{
  "track_name": "04 - Water Melody",
  "duration_sec": 80.373,
  "sample_rate": 44100,
  "note_count": 20921,
  "unique_pitches": 62,
  "pitch_range": 70,
  "avg_note_duration": 0.016,
  "reconstruction_stats": {
    "notes_reconstructed": 20921,
    "keyon_events": 20921,
    "keyoff_events": 2172,
    "orphan_keyons": 2,
    "unique_pitches": 62,
    "pitch_range": 70,
    "avg_duration_sec": 0.016
  },
  "metadata": {
    "source": "S\\Super Fantasy Zone\\04 - Water Melody.vgz"
  },
  "notes": [
    {
      "channel": 0,
      "note": 40,
      "start": 0.0,
      "duration": 0.0,
      "velocity": 115,
      "chip": "ym2612"
    },
    {
      "channel": 0,
      "note": 40,
      "start": 0.0,
      "duration": 0.0,
      "velocity": 1,
      "chip": "ym2612"
    },
    {
      "channel": 1,
      "note": 64,
      "start": 0.0,
      "duration": 0.0,
      "velocity": 124,
      "chip": "ym2612"
    },
    {
      "channel": 1,
      "note": 64,
      "start": 0.0,
      "duration": 0.0002,
      "velocity": 124,
      "chip": "ym2612"
    },
    {
      "channel": 2,
      "note": 57,
      "start": 0.0,
      "duration": 0.0,
      "velocity": 100,
      "chip": "ym2612"
    },
    {
      "channel": 2,
      "note": 57,
      "start": 0.0,
      "duration": 0.0,
      "velocity": 100,
      "chip": "ym2612"
    },
    {
      "channel": 2,
      "note": 57,
      "start": 0.0,
      "duration": 0.0166,
      "velocity": 100,
      "chip": "ym2612"
    },
    {
      "channel": 3,
      "note": 93,
      "start": 0.0,
      "duration": 0.0,
      "velocity": 101,
      "chip": "ym2612"
    },
    {
      "channel": 3,
      "note": 93,
      "start": 0.0,
      "duration": 0.0,
      "velocity": 101,
      "chip": "ym2612"
    },
    {
      "channel": 3,
      "note": 93,
      "start": 0.0,
      "duration": 0.0136,
      "velocity": 101,
      "chip": "ym2612"
    },
    {
      "channel": 4,
      "note": 88,
      "start": 0.0,
      "duration": 0.0,
      "velocity": 101,
      "chip": "ym2612"
    },
    {
      "channel": 4,
      "note": 88,
      "start": 0.0,
      "duration": 0.0,
      "velocity": 101,
      "chip": "ym2612"
    },
    {
      "channel": 4,
      "note": 88,
      "start": 0.0,
      "duration": 0.0105,
      "velocity": 101,
      "chip": "ym2612"
    },
    {
      "channel": 5,
      "note": 85,
      "start": 0.0,
      "duration": 0.0,
      "velocity": 101,
      "chip": "ym2612"
    },
    {
      "channel": 5,
      "note": 85,
      "start": 0.0,
      "duration": 0.0074,
      "velocity": 101,
      "chip": "ym2612"
    },
    {
      "channel": 1,
      "note": 64,
      "start": 0.0002,
      "duration": 0.0203,
      "velocity": 124,
      "chip": "ym2612"
    },
    {
      "channel": 0,
      "note": 36,
      "start": 0.0044,
      "duration": 0.0179,
      "velocity": 115,
      "chip": "ym2612"
    },
    {
      "channel": 5,
      "note": 90,
      "start": 0.0075,
      "duration": 0.0161,
      "velocity": 101,
      "chip": "ym2612"
    },
    {
      "channel": 4,
      "note": 95,
      "start": 0.0106,
      "duration": 0.0142,
      "velocity": 101,
      "chip": "ym2612"
    },
    {
      "channel": 3,
      "note": 99,
      "start": 0.0137,
      "duration": 0.0124,
      "velocity": 101,
      "chip": "ym2612"
    },
    {
      "channel": 2,
      "note": 54,
      "start": 0.0166,
      "duration": 0.0107,
      "velocity": 100,
      "chip": "ym2612"
    },
    {
      "channel": 1,
      "note": 64,
      "start": 0.0206,
      "duration": 0.0099,
      "velocity": 124,
      "chip": "ym2612"
    },
    {
      "channel": 0,
      "note": 36,
      "start": 0.0224,
      "duration": 0.0097,
      "velocity": 115,
      "chip": "ym2612"
    },
    {
      "channel": 5,
      "note": 90,
      "start": 0.0236,
      "duration": 0.0097,
      "velocity": 101,
      "chip": "ym2612"
    },
    {
      "channel": 4,
      "note": 95,
      "start": 0.0249,
      "duration": 0.0102,
      "velocity": 101,
      "chip": "ym2612"
    },
    {
      "channel": 3,
      "note": 99,
      "start": 0.0261,
      "duration": 0.0102,
      "velocity": 101,
      "chip": "ym2612"
    },
    {
      "channel": 2,
      "note": 54,
      "start": 0.0273,
      "duration": 0.0101,
      "velocity": 100,
      "chip": "ym2612"
    },
    {
      "channel": 1,
      "note": 64,
      "start": 0.0305,
      "duration": 0.0114,
      "velocity": 124,
      "chip": "ym2612"
    },
    {
      "channel": 0,
      "note": 37,
      "start": 0.0321,
      "duration": 0.0115,
      "velocity": 115,
      "chip": "ym2612"
    },
    {
      "channel": 5,
      "note": 90,
      "start": 0.0333,
      "duration": 0.0115,
      "velocity": 101,
      "chip": "ym2612"
    },
    {
      "channel": 4,
      "note": 95,
      "start": 0.035,
      "duration": 0.0109,
      "velocity": 101,
      "chip": "ym2612"
    },
    {
      "channel": 3,
      "note": 99,
      "start": 0.0363,
      "duration": 0.0108,
      "velocity": 101,
      "chip": "ym2612"
    },
    {
      "channel": 2,
      "note": 54,
      "start": 0.0375,
      "duration": 0.0108,
      "velocity": 100,
      "chip": "ym2612"
    },
    {
      "channel": 1,
      "note": 64,
      "start": 0.0418,
      "duration": 0.0161,
      "velocity": 124,
      "chip": "ym2612"
    },
    {
      "channel": 0,
      "note": 37,
      "start": 0.0436,
      "duration": 0.0161,
      "velocity": 115,
      "chip": "ym2612"
    },
    {
      "channel": 5,
      "note": 90,
      "start": 0.0448,
      "duration": 0.0161,
      "velocity": 101,
      "chip": "ym2612"
    },
    {
      "channel": 4,
      "note": 95,
      "start": 0.0459,
      "duration": 0.0161,
      "velocity": 101,
      "chip": "ym2612"
    },
    {
      "channel": 3,
      "note": 99,
      "start": 0.0471,
      "duration": 0.0161,
      "velocity": 101,
      "chip": "ym2612"
    },
    {
      "channel": 2,
      "note": 54,
      "start": 0.0483,
      "duration": 0.0161,
      "velocity": 100,
      "chip": "ym2612"
    },
    {
      "channel": 1,
      "note": 64,
      "start": 0.0579,
      "duration": 0.0161,
      "velocity": 124,
      "chip": "ym2612"
    },
    {
      "channel": 0,
      "note": 38,
      "start": 0.0597,
      "duration": 0.0161,
      "velocity": 115,
      "chip": "ym2612"
    },
    {
      "channel": 5,
      "note": 90,
      "start": 0.0609,
      "duration": 0.0161,
      "velocity": 101,
      "chip": "ym2612"
    },
    {
      "channel": 4,
      "note": 95,
      "start": 0.062,
      "duration": 0.0161,
      "velocity": 101,
      "chip": "ym2612"
    },
    {
      "channel": 3,
      "note": 99,
      "start": 0.0632,
      "duration": 0.0161,
      "velocity": 101,
      "chip": "ym2612"
    },
    {
      "channel": 2,
      "note": 54,
      "start": 0.0644,
      "duration": 0.0161,
      "velocity": 100,
      "chip": "ym2612"
    },
    {
      "channel": 1,
      "note": 64,
      "start": 0.074,
      "duration": 0.0161,
      "velocity": 124,
      "chip": "ym2612"
    },
    {
      "channel": 0,
      "note": 38,
      "start": 0.0757,
      "duration": 0.0161,
      "velocity": 115,
      "chip": "ym2612"
    },
    {
      "channel": 5,
      "note": 90,
      "start": 0.077,
      "duration": 0.0161,
      "velocity": 101,
      "chip": "ym2612"
    },
    {
      "channel": 4,
      "note": 95,
      "start": 0.0781,
      "duration": 0.0161,
      "velocity": 101,
      "chip": "ym2612"
    },
    {
      "channel": 3,
      "note": 99,
      "start": 0.0793,
      "duration": 0.0161,
      "velocity": 101,
      "chip": "ym2612"
    },
    {
      "channel": 2,
      "note": 54,
      "start": 0.0805,
      "duration": 0.0161,
      "velocity": 100,
      "chip": "ym2612"
    },
    {
      "channel": 1,
      "note": 64,
      "start": 0.0901,
      "duration": 0.0161,
      "velocity": 124,
      "chip": "ym2612"
    },
    {
      "channel": 0,
      "note": 39,
      "start": 0.0918,
      "duration": 0.0161,
      "velocity": 115,
      "chip": "ym2612"
    },
    {
      "channel": 5,
      "note": 90,
      "start": 0.0931,
      "duration": 0.0161,
      "velocity": 101,
      "chip": "ym2612"
    },
    {
      "channel": 4,
      "note": 95,
      "start": 0.0942,
      "duration": 0.0162,
      "velocity": 101,
      "chip": "ym2612"
    },
    {
      "channel": 3,
      "note": 99,
      "start": 0.0954,
      "duration": 0.0161,
      "velocity": 101,
      "chip": "ym2612"
    },
    {
      "channel": 2,
      "note": 54,
      "start": 0.0966,
      "duration": 0.0161,
      "velocity": 100,
      "chip": "ym2612"
    },
    {
      "channel": 1,
      "note": 64,
      "start": 0.1063,
      "duration": 0.0161,
      "velocity": 124,
      "chip": "ym2612"
    },
    {
      "channel": 0,
      "note": 39,
      "start": 0.1079,
      "duration": 0.0162,
      "velocity": 115,
      "chip": "ym2612"
    },
    {
      "channel": 5,
      "note": 90,
      "start": 0.1091,
      "duration": 0.0161,
      "velocity": 101,
      "chip": "ym2612"
    },
    {
      "channel": 4,
      "note": 95,
      "start": 0.1104,
      "duration": 0.0161,
      "velocity": 101,
      "chip": "ym2612"
    },
    {
      "channel": 3,
      "note": 99,
      "start": 0.1115,
      "duration": 0.0161,
      "velocity": 101,
      "chip": "ym2612"
    },
    {
      "channel": 2,
      "note": 54,
      "start": 0.1127,
      "duration": 0.0161,
      "velocity": 100,
      "chip": "ym2612"
    },
    {
      "channel": 1,
      "note": 64,
      "start": 0.1224,
      "duration": 0.0161,
      "velocity": 124,
      "chip": "ym2612"
    },
    {
      "channel": 0,
      "note": 40,
      "start": 0.1241,
      "duration": 0.0161,
      "velocity": 115,
      "chip": "ym2612"
    },
    {
      "channel": 5,
      "note": 90,
      "start": 0.1252,
      "duration": 0.0161,
      "velocity": 101,
      "chip": "ym2612"
    },
    {
      "channel": 4,
      "note": 95,
      "start": 0.1264,
      "duration": 0.0161,
      "velocity": 101,
      "chip": "ym2612"
    },
    {
      "channel": 3,
      "note": 99,
      "start": 0.1276,
      "duration": 0.0161,
      "velocity": 101,
      "chip": "ym2612"
    },
    {
      "channel": 2,
      "note": 54,
      "start": 0.1287,
      "duration": 0.0162,
      "velocity": 100,
      "chip": "ym2612"
    },
    {
      "channel": 1,
      "note": 64,
      "start": 0.1385,
      "duration": 0.0161,
      "velocity": 124,
      "chip": "ym2612"
    },
    {
      "channel": 0,
      "note": 40,
      "start": 0.1402,
      "duration": 0.0161,
      "velocity": 115,
      "chip": "ym2612"
    },
    {
      "channel": 5,
      "note": 90,
      "start": 0.1413,
      "duration": 0.0161,
      "velocity": 101,
      "chip": "ym2612"
    },
    {
      "channel": 4,
      "note": 95,
      "start": 0.1425,
      "duration": 0.0161,
      "velocity": 101,
      "chip": "ym2612"
    },
    {
      "channel": 3,
      "note": 99,
      "start": 0.1437,
      "duration": 0.0161,
      "velocity": 101,
      "chip": "ym2612"
    },
    {
      "channel": 2,
      "note": 54,
      "start": 0.1449,
      "duration": 0.0161,
      "velocity": 100,
      "chip": "ym2612"
    },
    {
      "channel": 1,
      "note": 64,
      "start": 0.1546,
      "duration": 0.0161,
      "velocity": 124,
      "chip": "ym2612"
    },
    {
      "channel": 0,
      "note": 40,
      "start": 0.1563,
      "duration": 0.0161,
      "velocity": 115,
      "chip": "ym2612"
    },
    {
      "channel": 5,
      "note": 90,
      "start": 0.1574,
      "duration": 0.0161,
      "velocity": 101,
      "chip": "ym2612"
    },
    {
      "channel": 4,
      "note": 95,
      "start": 0.1586,
      "duration": 0.0161,
      "velocity": 101,
      "chip": "ym2612"
    },
    {
      "channel": 3,
      "note": 99,
      "start": 0.1598,
      "duration": 0.0162,
      "velocity": 101,
      "chip": "ym2612"
    },
    {
      "channel": 2,
      "note": 54,
      "start": 0.161,
      "duration": 0.0161,
      "velocity": 100,
      "chip": "ym2612"
    },
    {
      "channel": 1,
      "note": 64,
      "start": 0.1707,
      "duration": 0.0161,
      "velocity": 124,
      "chip": "ym2612"
    },
    {
      "channel": 0,
      "note": 41,
      "start": 0.1724,
      "duration": 0.0161,
      "velocity": 115,
      "chip": "ym2612"
    },
    {
      "channel": 5,
      "note": 90,
      "start": 0.1736,
      "duration": 0.0161,
      "velocity": 101,
      "chip": "ym2612"
    },
    {
      "channel": 4,
      "note": 95,
      "start": 0.1747,
      "duration": 0.0161,
      "velocity": 101,
      "chip": "ym2612"
    },
    {
      "channel": 3,
      "note": 99,
      "start": 0.1759,
      "duration": 0.0161,
      "velocity": 101,
      "chip": "ym2612"
    },
    {
      "channel": 2,
      "note": 54,
      "start": 0.1771,
      "duration": 0.0161,
      "velocity": 100,
      "chip": "ym2612"
    },
    {
      "channel": 1,
      "note": 64,
      "start": 0.1868,
      "duration": 0.0179,
      "velocity": 105,
      "chip": "ym2612"
    },
    {
      "channel": 0,
      "note": 41,
      "start": 0.1885,
      "duration": 0.0179,
      "velocity": 115,
      "chip": "ym2612"
    },
    {
      "channel": 5,
      "note": 90,
      "start": 0.1897,
      "duration": 0.0179,
      "velocity": 101,
      "chip": "ym2612"
    },
    {
      "channel": 4,
      "note": 95,
      "start": 0.1908,
      "duration": 0.018,
      "velocity": 101,
      "chip": "ym2612"
    },
    {
      "channel": 3,
      "note": 99,
      "start": 0.192,
      "duration": 0.018,
      "velocity": 101,
      "chip": "ym2612"
    },
    {
      "channel": 2,
      "note": 54,
      "start": 0.1932,
      "duration": 0.0183,
      "velocity": 100,
      "chip": "ym2612"
    },
    {
      "channel": 1,
      "note": 105,
      "start": 0.2047,
      "duration": 0.0147,
      "velocity": 105,
      "chip": "ym2612"
    },
    {
      "channel": 0,
      "note": 42,
      "start": 0.2064,
      "duration": 0.0147,
      "velocity": 115,
      "chip": "ym2612"
    },
    {
      "channel": 5,
      "note": 90,
      "start": 0.2076,
      "duration": 0.0147,
      "velocity": 101,
      "chip": "ym2612"
    },
    {
      "channel": 4,
      "note": 95,
      "start": 0.2088,
      "duration": 0.0147,
      "velocity": 101,
      "chip": "ym2612"
    },
    {
      "channel": 3,
      "note": 99,
      "start": 0.21,
      "duration": 0.0147,
      "velocity": 101,
      "chip": "ym2612"
    },
    {
      "channel": 2,
      "note": 66,
      "start": 0.2115,
      "duration": 0.0144,
      "velocity": 100,
      "chip": "ym2612"
    },
    {
      "channel": 1,
      "note": 105,
      "start": 0.2194,
      "duration": 0.0163,
      "velocity": 105,
      "chip": "ym2612"
    },
    {
      "channel": 0,
      "note": 42,
      "start": 0.2211,
      "duration": 0.0162,
      "velocity": 115,
      "chip": "ym2612"
    },
    {
      "channel": 5,
      "note": 90,
      "start": 0.2223,
      "duration": 0.0162,
      "velocity": 101,
      "chip": "ym2612"
    },
    {
      "channel": 4,
      "note": 95,
      "start": 0.2235,
      "duration": 0.0162,
      "velocity": 101,
      "chip": "ym2612"
    },
    {
      "channel": 3,
      "note": 99,
      "start": 0.2247,
      "duration": 0.0162,
      "velocity": 101,
      "chip": "ym2612"
    },
    {
      "channel": 2,
      "note": 66,
      "start": 0.2259,
      "duration": 0.0161,
      "velocity": 100,
      "chip": "ym2612"
    },
    {
      "channel": 1,
      "note": 105,
      "start": 0.2357,
      "duration": 0.016,
      "velocity": 105,
      "chip": "ym2612"
    },
    {
      "channel": 0,
      "note": 43,
      "start": 0.2373,
      "duration": 0.0162,
      "velocity": 115,
      "chip": "ym2612"
    },
    {
      "channel": 5,
      "note": 90,
      "start": 0.2385,
      "duration": 0.0161,
      "velocity": 101,
      "chip": "ym2612"
    },
    {
      "channel": 4,
      "note": 95,
      "start": 0.2398,
      "duration": 0.0161,
      "velocity": 101,
      "chip": "ym2612"
    },
    {
      "channel": 3,
      "note": 99,
      "start": 0.241,
      "duration": 0.0161,
      "velocity": 101,
      "chip": "ym2612"
    },
    {
      "channel": 2,
      "note": 66,
      "start": 0.2421,
      "duration": 0.0161,
      "velocity": 100,
      "chip": "ym2612"
    },
    {
      "channel": 1,
      "note": 105,
      "start": 0.2517,
      "duration": 0.0158,
      "velocity": 105,
      "chip": "ym2612"
    },
    {
      "channel": 0,
      "note": 43,
      "start": 0.2535,
      "duration": 0.0161,
      "velocity": 115,
      "chip": "ym2612"
    },
    {
      "channel": 5,
      "note": 90,
      "start": 0.2546,
      "duration": 0.0162,
      "velocity": 101,
      "chip": "ym2612"
    },
    {
      "channel": 4,
      "note": 95,
      "start": 0.2558,
      "duration": 0.0162,
      "velocity": 101,
      "chip": "ym2612"
    },
    {
      "channel": 3,
      "note": 99,
      "start": 0.2571,
      "duration": 0.0161,
      "velocity": 101,
      "chip": "ym2612"
    },
    {
      "channel": 2,
      "note": 66,
      "start": 0.2582,
      "duration": 0.0162,
      "velocity": 100,
      "chip": "ym2612"
    },
    {
      "channel": 1,
      "note": 105,
      "start": 0.2675,
      "duration": 0.0159,
      "velocity": 105,
      "chip": "ym2612"
    },
    {
      "channel": 0,
      "note": 44,
      "start": 0.2696,
      "duration": 0.0161,
      "velocity": 115,
      "chip": "ym2612"
    },
    {
      "channel": 5,
      "note": 90,
      "start": 0.2708,
      "duration": 0.0161,
      "velocity": 101,
      "chip": "ym2612"
    },
    {
      "channel": 4,
      "note": 95,
      "start": 0.272,
      "duration": 0.0161,
      "velocity": 101,
      "chip": "ym2612"
    },
    {
      "channel": 3,
      "note": 99,
      "start": 0.2732,
      "duration": 0.0161,
      "velocity": 101,
      "chip": "ym2612"
    },
    {
      "channel": 2,
      "note": 66,
      "start": 0.2744,
      "duration": 0.0161,
      "velocity": 100,
      "chip": "ym2612"
    },
    {
      "channel": 1,
      "note": 105,
      "start": 0.2834,
      "duration": 0.0161,
      "velocity": 105,
      "chip": "ym2612"
    },
    {
      "channel": 0,
      "note": 44,
      "start": 0.2857,
      "duration": 0.016,
      "velocity": 115,
      "chip": "ym2612"
    },
    {
      "channel": 5,
      "note": 90,
      "start": 0.2869,
      "duration": 0.0161,
      "velocity": 101,
      "chip": "ym2612"
    },
    {
      "channel": 4,
      "note": 95,
      "start": 0.2881,
      "duration": 0.0161,
      "velocity": 101,
      "chip": "ym2612"
    },
    {
      "channel": 3,
      "note": 99,
      "start": 0.2893,
      "duration": 0.0161,
      "velocity": 101,
      "chip": "ym2612"
    },
    {
      "channel": 2,
      "note": 66,
      "start": 0.2905,
      "duration": 0.0161,
      "velocity": 100,
      "chip": "ym2612"
    },
    {
      "channel": 1,
      "note": 105,
      "start": 0.2995,
      "duration": 0.0161,
      "velocity": 105,
      "chip": "ym2612"
    },
    {
      "channel": 0,
      "note": 44,
      "start": 0.3017,
      "duration": 0.0158,
      "velocity": 115,
      "chip": "ym2612"
    },
    {
      "channel": 5,
      "note": 90,
      "start": 0.303,
      "duration": 0.0162,
      "velocity": 101,
      "chip": "ym2612"
    },
    {
      "channel": 4,
      "note": 95,
      "start": 0.3042,
      "duration": 0.0162,
      "velocity": 101,
      "chip": "ym2612"
    },
    {
      "channel": 3,
      "note": 99,
      "start": 0.3054,
      "duration": 0.0163,
      "velocity": 101,
      "chip": "ym2612"
    },
    {
      "channel": 2,
      "note": 66,
      "start": 0.3066,
      "duration": 0.0163,
      "velocity": 100,
      "chip": "ym2612"
    },
    {
      "channel": 1,
      "note": 105,
      "start": 0.3156,
      "duration": 0.0161,
      "velocity": 105,
      "chip": "ym2612"
    },
    {
      "channel": 0,
      "note": 45,
      "start": 0.3175,
      "duration": 0.0159,
      "velocity": 115,
      "chip": "ym2612"
    },
    {
      "channel": 5,
      "note": 90,
      "start": 0.3191,
      "duration": 0.016,
      "velocity": 101,
      "chip": "ym2612"
    },
    {
      "channel": 4,
      "note": 95,
      "start": 0.3204,
      "duration": 0.0161,
      "velocity": 101,
      "chip": "ym2612"
    },
    {
      "channel": 3,
      "note": 99,
      "start": 0.3217,
      "duration": 0.0161,
      "velocity": 101,
      "chip": "ym2612"
    },
    {
      "channel": 2,
      "note": 66,
      "start": 0.3229,
      "duration": 0.0161,
      "velocity": 100,
      "chip": "ym2612"
    },
    {
      "channel": 1,
      "note": 105,
      "start": 0.3317,
      "duration": 0.0161,
      "velocity": 105,
      "chip": "ym2612"
    },
    {
      "channel": 0,
      "note": 45,
      "start": 0.3334,
      "duration": 0.0161,
      "velocity": 115,
      "chip": "ym2612"
    },
    {
      "channel": 5,
      "note": 90,
      "start": 0.3352,
      "duration": 0.0158,
      "velocity": 101,
      "chip": "ym2612"
    },
    {
      "channel": 4,
      "note": 95,
      "start": 0.3365,
      "duration": 0.0161,
      "velocity": 101,
      "chip": "ym2612"
    },
    {
      "channel": 3,
      "note": 99,
      "start": 0.3378,
      "duration": 0.0161,
      "velocity": 101,
      "chip": "ym2612"
    },
    {
      "channel": 2,
      "note": 66,
      "start": 0.339,
      "duration": 0.016,
      "velocity": 100,
      "chip": "ym2612"
    },
    {
      "channel": 1,
      "note": 105,
      "start": 0.3478,
      "duration": 0.0161,
      "velocity": 105,
      "chip": "ym2612"
    },
    {
      "channel": 0,
      "note": 46,
      "start": 0.3495,
      "duration": 0.0161,
      "velocity": 115,
      "chip": "ym2612"
    },
    {
      "channel": 2,
      "note": 66,
      "start": 0.355,
      "duration": 0.016,
      "velocity": 100,
      "chip": "ym2612"
    },
    {
      "channel": 1,
      "note": 105,
      "start": 0.3639,
      "duration": 0.0161,
      "velocity": 105,
      "chip": "ym2612"
    },
    {
      "channel": 0,
      "note": 46,
      "start": 0.3656,
      "duration": 0.0161,
      "velocity": 115,
      "chip": "ym2612"
    },
    {
      "channel": 2,
      "note": 66,
      "start": 0.371,
      "duration": 0.0163,
      "velocity": 100,
      "chip": "ym2612"
    },
    {
      "channel": 1,
      "note": 105,
      "start": 0.38,
      "duration": 0.0161,
      "velocity": 105,
      "chip": "ym2612"
    },
    {
      "channel": 0,
      "note": 47,
      "start": 0.3817,
      "duration": 0.0161,
      "velocity": 115,
      "chip": "ym2612"
    },
    {
      "channel": 2,
      "note": 66,
      "start": 0.3873,
      "duration": 0.0158,
      "velocity": 100,
      "chip": "ym2612"
    },
    {
      "channel": 1,
      "note": 105,
      "start": 0.396,
      "duration": 0.0185,
      "velocity": 124,
      "chip": "ym2612"
    },
    {
      "channel": 0,
      "note": 47,
      "start": 0.3978,
      "duration": 0.0209,
      "velocity": 115,
      "chip": "ym2612"
    },
    {
      "channel": 2,
      "note": 66,
      "start": 0.4031,
      "duration": 0.0216,
      "velocity": 100,
      "chip": "ym2612"
    },
    {
      "channel": 1,
      "note": 84,
      "start": 0.4146,
      "duration": 0.0143,
      "velocity": 124,
      "chip": "ym2612"
    },
    {
      "channel": 0,
      "note": 36,
      "start": 0.4188,
      "duration": 0.0119,
      "velocity": 115,
      "chip": "ym2612"
    },
    {
      "channel": 5,
      "note": 90,
      "start": 0.4202,
      "duration": 0.0117,
      "velocity": 101,
      "chip": "ym2612"
    },
    {
      "channel": 4,
      "note": 94,
      "start": 0.4217,
      "duration": 0.0115,
      "velocity": 101,
      "chip": "ym2612"
    },
    {
      "channel": 3,
      "note": 97,
      "start": 0.4232,
      "duration": 0.0118,
      "velocity": 101,
      "chip": "ym2612"
    },
    {
      "channel": 2,
      "note": 54,
      "start": 0.4247,
      "duration": 0.0115,
      "velocity": 100,
      "chip": "ym2612"
    },
    {
      "channel": 1,
      "note": 82,
      "start": 0.4289,
      "duration": 0.016,
      "velocity": 124,
      "chip": "ym2612"
    },
    {
      "channel": 0,
      "note": 36,
      "start": 0.4307,
      "duration": 0.016,
      "velocity": 115,
      "chip": "ym2612"
    },
    {
      "channel": 5,
      "note": 90,
      "start": 0.4319,
      "duration": 0.0159,
      "velocity": 101,
      "chip": "ym2612"
    },
    {
      "channel": 4,
      "note": 94,
      "start": 0.4332,
      "duration": 0.0158,
      "velocity": 101,
      "chip": "ym2612"
    },
    {
      "channel": 3,
      "note": 97,
      "start": 0.435,
      "duration": 0.0152,
      "velocity": 101,
      "chip": "ym2612"
    },
    {
      "channel": 2,
      "note": 54,
      "start": 0.4362,
      "duration": 0.0156,
      "velocity": 100,
      "chip": "ym2612"
    },
    {
      "channel": 1,
      "note": 80,
      "start": 0.445,
      "duration": 0.0161,
      "velocity": 124,
      "chip": "ym2612"
    },
    {
      "channel": 0,
      "note": 37,
      "start": 0.4466,
      "duration": 0.0161,
      "velocity": 115,
      "chip": "ym2612"
    },
    {
      "channel": 5,
      "note": 90,
      "start": 0.4478,
      "duration": 0.0161,
      "velocity": 101,
      "chip": "ym2612"
    },
    {
      "channel": 4,
      "note": 94,
      "start": 0.449,
      "duration": 0.0162,
      "velocity": 101,
      "chip": "ym2612"
    },
    {
      "channel": 3,
      "note": 97,
      "start": 0.4502,
      "duration": 0.0161,
      "velocity": 101,
      "chip": "ym2612"
    },
    {
      "channel": 2,
      "note": 54,
      "start": 0.4519,
      "duration": 0.0158,
      "velocity": 100,
      "chip": "ym2612"
    },
    {
      "channel": 1,
      "note": 77,
      "start": 0.461,
      "duration": 0.0161,
      "velocity": 124,
      "chip": "ym2612"
    },
    {
      "channel": 0,
      "note": 37,
      "start": 0.4627,
      "duration": 0.0162,
      "velocity": 115,
      "chip": "ym2612"
    },
    {
      "channel": 5,
      "note": 90,
      "start": 0.4639,
      "duration": 0.0161,
      "velocity": 101,
      "chip": "ym2612"
    },
    {
      "channel": 4,
      "note": 94,
      "start": 0.4651,
      "duration": 0.0161,
      "velocity": 101,
      "chip": "ym2612"
    },
    {
      "channel": 3,
      "note": 97,
      "start": 0.4663,
      "duration": 0.0161,
      "velocity": 101,
      "chip": "ym2612"
    },
    {
      "channel": 2,
      "note": 54,
      "start": 0.4677,
      "duration": 0.0159,
      "velocity": 100,
      "chip": "ym2612"
    },
    {
      "channel": 1,
      "note": 75,
      "start": 0.4771,
      "duration": 0.0161,
      "velocity": 124,
      "chip": "ym2612"
    },
    {
      "channel": 0,
      "note": 38,
      "start": 0.4789,
      "duration": 0.0161,
      "velocity": 115,
      "chip": "ym2612"
    },
    {
      "channel": 5,
      "note": 90,
      "start": 0.48,
      "duration": 0.0161,
      "velocity": 101,
      "chip": "ym2612"
    },
    {
      "channel": 4,
      "note": 94,
      "start": 0.4812,
      "duration": 0.0161,
      "velocity": 101,
      "chip": "ym2612"
    },
    {
      "channel": 3,
      "note": 97,
      "start": 0.4824,
      "duration": 0.0161,
      "velocity": 101,
      "chip": "ym2612"
    },
    {
      "channel": 2,
      "note": 54,
      "start": 0.4836,
      "duration": 0.0161,
      "velocity": 100,
      "chip": "ym2612"
    },
    {
      "channel": 1,
      "note": 72,
      "start": 0.4932,
      "duration": 0.0161,
      "velocity": 124,
      "chip": "ym2612"
    },
    {
      "channel": 0,
      "note": 38,
      "start": 0.495,
      "duration": 0.0161,
      "velocity": 115,
      "chip": "ym2612"
    },
    {
      "channel": 5,
      "note": 90,
      "start": 0.4961,
      "duration": 0.0161,
      "velocity": 101,
      "chip": "ym2612"
    },
    {
      "channel": 4,
      "note": 94,
      "start": 0.4973,
      "duration": 0.0161,
      "velocity": 101,
      "chip": "ym2612"
    },
    {
      "channel": 3,
      "note": 97,
      "start": 0.4985,
      "duration": 0.0161,
      "velocity": 101,
      "chip": "ym2612"
    },
    {
      "channel": 2,
      "note": 54,
      "start": 0.4997,
      "duration": 0.0161,
      "velocity": 100,
      "chip": "ym2612"
    },
    {
      "channel": 1,
      "note": 70,
      "start": 0.5093,
      "duration": 0.0161,
      "velocity": 124,
      "chip": "ym2612"
    },
    {
      "channel": 0,
      "note": 39,
      "start": 0.511,
      "duration": 0.0161,
      "velocity": 115,
      "chip": "ym2612"
    },
    {
      "channel": 5,
      "note": 90,
      "start": 0.5122,
      "duration": 0.0161,
      "velocity": 101,
      "chip": "ym2612"
    },
    {
      "channel": 4,
      "note": 94,
      "start": 0.5134,
      "duration": 0.0161,
      "velocity": 101,
      "chip": "ym2612"
    },
    {
      "channel": 3,
      "note": 97,
      "start": 0.5146,
      "duration": 0.0161,
      "velocity": 101,
      "chip": "ym2612"
    },
    {
      "channel": 2,
      "note": 54,
      "start": 0.5158,
      "duration": 0.016,
      "velocity": 100,
      "chip": "ym2612"
    },
    {
      "channel": 1,
      "note": 68,
      "start": 0.5254,
      "duration": 0.0161,
      "velocity": 124,
      "chip": "ym2612"
    },
    {
      "channel": 0,
      "note": 39,
      "start": 0.5271,
      "duration": 0.0161,
      "velocity": 115,
      "chip": "ym2612"
    },
    {
      "channel": 5,
      "note": 90,
      "start": 0.5283,
      "duration": 0.0161,
      "velocity": 101,
      "chip": "ym2612"
    },
    {
      "channel": 4,
      "note": 94,
      "start": 0.5295,
      "duration": 0.0161,
      "velocity": 101,
      "chip": "ym2612"
    },
    {
      "channel": 3,
      "note": 97,
      "start": 0.5307,
      "duration": 0.0161,
      "velocity": 101,
      "chip": "ym2612"
    },
    {
      "channel": 2,
      "note": 54,
      "start": 0.5318,
      "duration": 0.0162,
      "velocity": 100,
      "chip": "ym2612"
    },
    {
      "channel": 1,
      "note": 65,
      "start": 0.5415,
      "duration": 0.0161,
      "velocity": 124,
      "chip": "ym2612"
    },
    {
      "channel": 0,
      "note": 40,
      "start": 0.5432,
      "duration": 0.0161,
      "velocity": 115,
      "chip": "ym2612"
    },
    {
      "channel": 5,
      "note": 90,
      "start": 0.5444,
      "duration": 0.0161,
      "velocity": 101,
      "chip": "ym2612"
    },
    {
      "channel": 4,
      "note": 94,
      "start": 0.5456,
      "duration": 0.0161,
      "velocity": 101,
      "chip": "ym2612"
    },
    {
      "channel": 3,
      "note": 97,
      "start": 0.5468,
      "duration": 0.0161,
      "velocity": 101,
      "chip": "ym2612"
    },
    {
      "channel": 2,
      "note": 54,
      "start": 0.548,
      "duration": 0.0161,
      "velocity": 100,
      "chip": "ym2612"
    },
    {
      "channel": 1,
      "note": 63,
      "start": 0.5576,
      "duration": 0.0153,
      "velocity": 1,
      "chip": "ym2612"
    },
    {
      "channel": 0,
      "note": 40,
      "start": 0.5593,
      "duration": 0.0153,
      "velocity": 115,
      "chip": "ym2612"
    },
    {
      "channel": 5,
      "note": 90,
      "start": 0.5605,
      "duration": 0.0153,
      "velocity": 101,
      "chip": "ym2612"
    },
    {
      "channel": 4,
      "note": 94,
      "start": 0.5617,
      "duration": 0.0153,
      "velocity": 101,
      "chip": "ym2612"
    },
    {
      "channel": 3,
      "note": 97,
      "start": 0.5629,
      "duration": 0.0153,
      "velocity": 101,
      "chip": "ym2612"
    },
    {
      "channel": 2,
      "note": 54,
      "start": 0.564,
      "duration": 0.0153,
      "velocity": 100,
      "chip": "ym2612"
    },
    {
      "channel": 0,
      "note": 40,
      "start": 0.5746,
      "duration": 0.0153,
      "velocity": 115,
      "chip": "ym2612"
    },
    {
      "channel": 5,
      "note": 90,
      "start": 0.5758,
      "duration": 0.0153,
      "velocity": 101,
      "chip": "ym2612"
    },
    {
      "channel": 4,
      "note": 94,
      "start": 0.577,
      "duration": 0.0153,
      "velocity": 101,
      "chip": "ym2612"
    },
    {
      "channel": 3,
      "note": 97,
      "start": 0.5782,
      "duration": 0.0153,
      "velocity": 101,
      "chip": "ym2612"
    },
    {
      "channel": 2,
      "note": 54,
      "start": 0.5793,
      "duration": 0.0153,
      "velocity": 100,
      "chip": "ym2612"
    },
    {
      "channel": 0,
      "note": 41,
      "start": 0.5899,
      "duration": 0.0161,
      "velocity": 115,
      "chip": "ym2612"
    },
    {
      "channel": 5,
      "note": 90,
      "start": 0.5911,
      "duration": 0.0161,
      "velocity": 101,
      "chip": "ym2612"
    },
    {
      "channel": 4,
      "note": 94,
      "start": 0.5922,
      "duration": 0.0161,
      "velocity": 101,
      "chip": "ym2612"
    },
    {
      "channel": 3,
      "note": 97,
      "start": 0.5934,
      "duration": 0.0161,
      "velocity": 101,
      "chip": "ym2612"
    },
    {
      "channel": 2,
      "note": 54,
      "start": 0.5946,
      "duration": 0.0161,
      "velocity": 100,
      "chip": "ym2612"
    },
    {
      "channel": 0,
      "note": 41,
      "start": 0.606,
      "duration": 0.019,
      "velocity": 115,
      "chip": "ym2612"
    },
    {
      "channel": 5,
      "note": 90,
      "start": 0.6072,
      "duration": 0.019,
      "velocity": 101,
      "chip": "ym2612"
    },
    {
      "channel": 4,
      "note": 94,
      "start": 0.6083,
      "duration": 0.0191,
      "velocity": 101,
      "chip": "ym2612"
    },
    {
      "channel": 3,
      "note": 97,
      "start": 0.6095,
      "duration": 0.0191,
      "velocity": 101,
      "chip": "ym2612"
    },
    {
      "channel": 2,
      "note": 54,
      "start": 0.6107,
      "duration": 0.0193,
      "velocity": 100,
      "chip": "ym2612"
    },
    {
      "channel": 1,
      "note": 105,
      "start": 0.6233,
      "duration": 0.0144,
      "velocity": 105,
      "chip": "ym2612"
    },
    {
      "channel": 0,
      "note": 42,
      "start": 0.625,
      "duration": 0.0144,
      "velocity": 115,
      "chip": "ym2612"
    },
    {
      "channel": 5,
      "note": 90,
      "start": 0.6262,
      "duration": 0.0144,
      "velocity": 101,
      "chip": "ym2612"
    },
    {
      "channel": 4,
      "note": 94,
      "start": 0.6274,
      "duration": 0.0144,
      "velocity": 101,
      "chip": "ym2612"
    },
    {
      "channel": 3,
      "note": 97,
      "start": 0.6286,
      "duration": 0.0144,
      "velocity": 101,
      "chip": "ym2612"
    },
    {
      "channel": 2,
      "note": 66,
      "start": 0.6301,
      "duration": 0.0141,
      "velocity": 100,
      "chip": "ym2612"
    },
    {
      "channel": 1,
      "note": 105,
      "start": 0.6376,
      "duration": 0.016,
      "velocity": 105,
      "chip": "ym2612"
    },
    {
      "channel": 0,
      "note": 42,
      "start": 0.6394,
      "duration": 0.016,
      "velocity": 115,
      "chip": "ym2612"
    },
    {
      "channel": 5,
      "note": 90,
      "start": 0.6406,
      "duration": 0.016,
      "velocity": 101,
      "chip": "ym2612"
    },
    {
      "channel": 4,
      "note": 94,
      "start": 0.6418,
      "duration": 0.016,
      "velocity": 101,
      "chip": "ym2612"
    },
    {
      "channel": 3,
      "note": 97,
      "start": 0.643,
      "duration": 0.016,
      "velocity": 101,
      "chip": "ym2612"
    },
    {
      "channel": 2,
      "note": 66,
      "start": 0.6442,
      "duration": 0.016,
      "velocity": 100,
      "chip": "ym2612"
    },
    {
      "channel": 1,
      "note": 105,
      "start": 0.6537,
      "duration": 0.0162,
      "velocity": 105,
      "chip": "ym2612"
    },
    {
      "channel": 0,
      "note": 43,
      "start": 0.6554,
      "duration": 0.0161,
      "velocity": 115,
      "chip": "ym2612"
    },
    {
      "channel": 5,
      "note": 90,
      "start": 0.6566,
      "duration": 0.0162,
      "velocity": 101,
      "chip": "ym2612"
    },
    {
      "channel": 4,
      "note": 94,
      "start": 0.6578,
      "duration": 0.0162,
      "velocity": 101,
      "chip": "ym2612"
    },
    {
      "channel": 3,
      "note": 97,
      "start": 0.659,
      "duration": 0.0161,
      "velocity": 101,
      "chip": "ym2612"
    },
    {
      "channel": 2,
      "note": 66,
      "start": 0.6602,
      "duration": 0.0162,
      "velocity": 100,
      "chip": "ym2612"
    },
    {
      "channel": 1,
      "note": 105,
      "start": 0.6698,
      "duration": 0.0163,
      "velocity": 105,
      "chip": "ym2612"
    },
    {
      "channel": 0,
      "note": 43,
      "start": 0.6715,
      "duration": 0.0163,
      "velocity": 115,
      "chip": "ym2612"
    },
    {
      "channel": 5,
      "note": 90,
      "start": 0.6728,
      "duration": 0.0163,
      "velocity": 101,
      "chip": "ym2612"
    },
    {
      "channel": 4,
      "note": 94,
      "start": 0.674,
      "duration": 0.0163,
      "velocity": 101,
      "chip": "ym2612"
    },
    {
      "channel": 3,
      "note": 97,
      "start": 0.6752,
      "duration": 0.0163,
      "velocity": 101,
      "chip": "ym2612"
    },
    {
      "channel": 2,
      "note": 66,
      "start": 0.6763,
      "duration": 0.0163,
      "velocity": 100,
      "chip": "ym2612"
    },
    {
      "channel": 1,
      "note": 105,
      "start": 0.6861,
      "duration": 0.0163,
      "velocity": 105,
      "chip": "ym2612"
    },
    {
      "channel": 0,
      "note": 44,
      "start": 0.6878,
      "duration": 0.0163,
      "velocity": 115,
      "chip": "ym2612"
    },
    {
      "channel": 5,
      "note": 90,
      "start": 0.689,
      "duration": 0.0163,
      "velocity": 101,
      "chip": "ym2612"
    },
    {
      "channel": 4,
      "note": 94,
      "start": 0.6902,
      "duration": 0.0163,
      "velocity": 101,
      "chip": "ym2612"
    },
    {
      "channel": 3,
      "note": 97,
      "start": 0.6915,
      "duration": 0.0163,
      "velocity": 101,
      "chip": "ym2612"
    },
    {
      "channel": 2,
      "note": 66,
      "start": 0.6926,
      "duration": 0.0163,
      "velocity": 100,
      "chip": "ym2612"
    },
    {
      "channel": 1,
      "note": 105,
      "start": 0.7025,
      "duration": 0.0162,
      "velocity": 105,
      "chip": "ym2612"
    },
    {
      "channel": 0,
      "note": 44,
      "start": 0.7042,
      "duration": 0.0162,
      "velocity": 115,
      "chip": "ym2612"
    },
    {
      "channel": 5,
      "note": 90,
      "start": 0.7054,
      "duration": 0.0162,
      "velocity": 101,
      "chip": "ym2612"
    },
    {
      "channel": 4,
      "note": 94,
      "start": 0.7066,
      "duration": 0.0162,
      "velocity": 101,
      "chip": "ym2612"
    },
    {
      "channel": 3,
      "note": 97,
      "start": 0.7078,
      "duration": 0.0162,
      "velocity": 101,
      "chip": "ym2612"
    },
    {
      "channel": 2,
      "note": 66,
      "start": 0.709,
      "duration": 0.0163,
      "velocity": 100,
      "chip": "ym2612"
    },
    {
      "channel": 1,
      "note": 105,
      "start": 0.7187,
      "duration": 0.016,
      "velocity": 105,
      "chip": "ym2612"
    },
    {
      "channel": 0,
      "note": 44,
      "start": 0.7204,
      "duration": 0.0161,
      "velocity": 115,
      "chip": "ym2612"
    },
    {
      "channel": 5,
      "note": 90,
      "start": 0.7216,
      "duration": 0.0162,
      "velocity": 101,
      "chip": "ym2612"
    },
    {
      "channel": 4,
      "note": 94,
      "start": 0.7228,
      "duration": 0.0162,
      "velocity": 101,
      "chip": "ym2612"
    },
    {
      "channel": 3,
      "note": 97,
      "start": 0.724,
      "duration": 0.0163,
      "velocity": 101,
      "chip": "ym2612"
    },
    {
      "channel": 2,
      "note": 66,
      "start": 0.7252,
      "duration": 0.0163,
      "velocity": 100,
      "chip": "ym2612"
    },
    {
      "channel": 1,
      "note": 105,
      "start": 0.7347,
      "duration": 0.0156,
      "velocity": 105,
      "chip": "ym2612"
    },
    {
      "channel": 0,
      "note": 45,
      "start": 0.7365,
      "duration": 0.0161,
      "velocity": 115,
      "chip": "ym2612"
    },
    {
      "channel": 5,
      "note": 90,
      "start": 0.7378,
      "duration": 0.0161,
      "velocity": 101,
      "chip": "ym2612"
    },
    {
      "channel": 4,
      "note": 94,
      "start": 0.739,
      "duration": 0.0161,
      "velocity": 101,
      "chip": "ym2612"
    },
    {
      "channel": 3,
      "note": 97,
      "start": 0.7403,
      "duration": 0.0161,
      "velocity": 101,
      "chip": "ym2612"
    },
    {
      "channel": 2,
      "note": 66,
      "start": 0.7415,
      "duration": 0.0161,
      "velocity": 100,
      "chip": "ym2612"
    },
    {
      "channel": 1,
      "note": 105,
      "start": 0.7503,
      "duration": 0.0161,
      "velocity": 105,
      "chip": "ym2612"
    },
    {
      "channel": 0,
      "note": 45,
      "start": 0.7526,
      "duration": 0.0161,
      "velocity": 115,
      "chip": "ym2612"
    },
    {
      "channel": 5,
      "note": 90,
      "start": 0.7539,
      "duration": 0.0161,
      "velocity": 101,
      "chip": "ym2612"
    },
    {
      "channel": 4,
      "note": 94,
      "start": 0.7551,
      "duration": 0.0161,
      "velocity": 101,
      "chip": "ym2612"
    },
    {
      "channel": 3,
      "note": 97,
      "start": 0.7564,
      "duration": 0.0161,
      "velocity": 101,
      "chip": "ym2612"
    },
    {
      "channel": 2,
      "note": 66,
      "start": 0.7576,
      "duration": 0.016,
      "velocity": 100,
      "chip": "ym2612"
    },
    {
      "channel": 1,
      "note": 105,
      "start": 0.7664,
      "duration": 0.0161,
      "velocity": 105,
      "chip": "ym2612"
    },
    {
      "channel": 0,
      "note": 46,
      "start": 0.7687,
      "duration": 0.016,
      "velocity": 115,
      "chip": "ym2612"
    },
    {
      "channel": 2,
      "note": 66,
      "start": 0.7737,
      "duration": 0.016,
      "velocity": 100,
      "chip": "ym2612"
    },
    {
      "channel": 1,
      "note": 105,
      "start": 0.7825,
      "duration": 0.0161,
      "velocity": 105,
      "chip": "ym2612"
    },
    {
      "channel": 0,
      "note": 46,
      "start": 0.7847,
      "duration": 0.0156,
      "velocity": 115,
      "chip": "ym2612"
    },
    {
      "channel": 2,
      "note": 66,
      "start": 0.7897,
      "duration": 0.0163,
      "velocity": 100,
      "chip": "ym2612"
    },
    {
      "channel": 1,
      "note": 105,
      "start": 0.7986,
      "duration": 0.0161,
      "velocity": 105,
      "chip": "ym2612"
    },
    {
      "channel": 0,
      "note": 47,
      "start": 0.8003,
      "duration": 0.0161,
      "velocity": 115,
      "chip": "ym2612"
    },
    {
      "channel": 2,
      "note": 66,
      "start": 0.806,
      "duration": 0.0158,
      "velocity": 100,
      "chip": "ym2612"
    },
    {
      "channel": 1,
      "note": 105,
      "start": 0.8147,
      "duration": 0.0179,
      "velocity": 124,
      "chip": "ym2612"
    },
    {
      "channel": 0,
      "note": 47,
      "start": 0.8164,
      "duration": 0.0203,
      "velocity": 115,
      "chip": "ym2612"
    },
    {
      "channel": 2,
      "note": 66,
      "start": 0.8217,
      "duration": 0.0209,
      "velocity": 100,
      "chip": "ym2612"
    },
    {
      "channel": 1,
      "note": 64,
      "start": 0.8326,
      "duration": 0.0144,
      "velocity": 124,
      "chip": "ym2612"
    },
    {
      "channel": 0,
      "note": 36,
      "start": 0.8368,
      "duration": 0.012,
      "velocity": 115,
      "chip": "ym2612"
    },
    {
      "channel": 5,
      "note": 88,
      "start": 0.8382,
      "duration": 0.0118,
      "velocity": 101,
      "chip": "ym2612"
    },
    {
      "channel": 4,
      "note": 92,
      "start": 0.8398,
      "duration": 0.012,
      "velocity": 101,
      "chip": "ym2612"
    },
    {
      "channel": 3,
      "note": 95,
      "start": 0.8412,
      "duration": 0.0118,
      "velocity": 101,
      "chip": "ym2612"
    },
    {
      "channel": 2,
      "note": 54,
      "start": 0.8427,
      "duration": 0.0116,
      "velocity": 100,
      "chip": "ym2612"
    },
    {
      "channel": 1,
      "note": 64,
      "start": 0.847,
      "duration": 0.016,
      "velocity": 124,
      "chip": "ym2612"
    },
    {
      "channel": 0,
      "note": 36,
      "start": 0.8488,
      "duration": 0.016,
      "velocity": 115,
      "chip": "ym2612"
    },
    {
      "channel": 5,
      "note": 88,
      "start": 0.85,
      "duration": 0.0159,
      "velocity": 101,
      "chip": "ym2612"
    },
    {
      "channel": 4,
      "note": 92,
      "start": 0.8518,
      "duration": 0.0153,
      "velocity": 101,
      "chip": "ym2612"
    },
    {
      "channel": 3,
      "note": 95,
      "start": 0.853,
      "duration": 0.0158,
      "velocity": 101,
      "chip": "ym2612"
    },
    {
      "channel": 2,
      "note": 54,
      "start": 0.8543,
      "duration": 0.0157,
      "velocity": 100,
      "chip": "ym2612"
    },
    {
      "channel": 1,
      "note": 64,
      "start": 0.863,
      "duration": 0.0161,
      "velocity": 124,
      "chip": "ym2612"
    },
    {
      "channel": 0,
      "note": 37,
      "start": 0.8647,
      "duration": 0.0161,
      "velocity": 115,
      "chip": "ym2612"
    },
    {
      "channel": 5,
      "note": 88,
      "start": 0.8659,
      "duration": 0.0161,
      "velocity": 101,
      "chip": "ym2612"
    },
    {
      "channel": 4,
      "note": 92,
      "start": 0.8671,
      "duration": 0.0161,
      "velocity": 101,
      "chip": "ym2612"
    },
    {
      "channel": 3,
      "note": 95,
      "start": 0.8688,
      "duration": 0.0161,
      "velocity": 101,
      "chip": "ym2612"
    },
    {
      "channel": 2,
      "note": 54,
      "start": 0.87,
      "duration": 0.0161,
      "velocity": 100,
      "chip": "ym2612"
    },
    {
      "channel": 1,
      "note": 64,
      "start": 0.8791,
      "duration": 0.0161,
      "velocity": 124,
      "chip": "ym2612"
    },
    {
      "channel": 0,
      "note": 37,
      "start": 0.8808,
      "duration": 0.0161,
      "velocity": 115,
      "chip": "ym2612"
    },
    {
      "channel": 5,
      "note": 88,
      "start": 0.882,
      "duration": 0.0161,
      "velocity": 101,
      "chip": "ym2612"
    },
    {
      "channel": 4,
      "note": 92,
      "start": 0.8832,
      "duration": 0.0161,
      "velocity": 101,
      "chip": "ym2612"
    },
    {
      "channel": 3,
      "note": 95,
      "start": 0.8849,
      "duration": 0.0155,
      "velocity": 101,
      "chip": "ym2612"
    },
    {
      "channel": 2,
      "note": 54,
      "start": 0.8861,
      "duration": 0.0161,
      "velocity": 100,
      "chip": "ym2612"
    },
    {
      "channel": 1,
      "note": 64,
      "start": 0.8952,
      "duration": 0.0161,
      "velocity": 124,
      "chip": "ym2612"
    },
    {
      "channel": 0,
      "note": 38,
      "start": 0.8969,
      "duration": 0.0161,
      "velocity": 115,
      "chip": "ym2612"
    },
    {
      "channel": 5,
      "note": 88,
      "start": 0.8981,
      "duration": 0.0162,
      "velocity": 101,
      "chip": "ym2612"
    },
    {
      "channel": 4,
      "note": 92,
      "start": 0.8993,
      "duration": 0.0161,
      "velocity": 101,
      "chip": "ym2612"
    },
    {
      "channel": 3,
      "note": 95,
      "start": 0.9004,
      "duration": 0.0162,
      "velocity": 101,
      "chip": "ym2612"
    },
    {
      "channel": 2,
      "note": 54,
      "start": 0.9022,
      "duration": 0.0161,
      "velocity": 100,
      "chip": "ym2612"
    },
    {
      "channel": 1,
      "note": 64,
      "start": 0.9113,
      "duration": 0.0161,
      "velocity": 124,
      "chip": "ym2612"
    },
    {
      "channel": 0,
      "note": 38,
      "start": 0.913,
      "duration": 0.0161,
      "velocity": 115,
      "chip": "ym2612"
    },
    {
      "channel": 5,
      "note": 88,
      "start": 0.9142,
      "duration": 0.0161,
      "velocity": 101,
      "chip": "ym2612"
    },
    {
      "channel": 4,
      "note": 92,
      "start": 0.9154,
      "duration": 0.0161,
      "velocity": 101,
      "chip": "ym2612"
    },
    {
      "channel": 3,
      "note": 95,
      "start": 0.9166,
      "duration": 0.0161,
      "velocity": 101,
      "chip": "ym2612"
    },
    {
      "channel": 2,
      "note": 54,
      "start": 0.9183,
      "duration": 0.0157,
      "velocity": 100,
      "chip": "ym2612"
    },
    {
      "channel": 1,
      "note": 64,
      "start": 0.9274,
      "duration": 0.0161,
      "velocity": 124,
      "chip": "ym2612"
    },
    {
      "channel": 0,
      "note": 39,
      "start": 0.9291,
      "duration": 0.0161,
      "velocity": 115,
      "chip": "ym2612"
    },
    {
      "channel": 5,
      "note": 88,
      "start": 0.9303,
      "duration": 0.0161,
      "velocity": 101,
      "chip": "ym2612"
    },
    {
      "channel": 4,
      "note": 92,
      "start": 0.9315,
      "duration": 0.0162,
      "velocity": 101,
      "chip": "ym2612"
    },
    {
      "channel": 3,
      "note": 95,
      "start": 0.9327,
      "duration": 0.0161,
      "velocity": 101,
      "chip": "ym2612"
    },
    {
      "channel": 2,
      "note": 54,
      "start": 0.934,
      "duration": 0.0159,
      "velocity": 100,
      "chip": "ym2612"
    },
    {
      "channel": 1,
      "note": 64,
      "start": 0.9435,
      "duration": 0.0161,
      "velocity": 124,
      "chip": "ym2612"
    },
    {
      "channel": 0,
      "note": 39,
      "start": 0.9452,
      "duration": 0.0161,
      "velocity": 115,
      "chip": "ym2612"
    },
    {
      "channel": 5,
      "note": 88,
      "start": 0.9464,
      "duration": 0.0161,
      "velocity": 101,
      "chip": "ym2612"
    },
    {
      "channel": 4,
      "note": 92,
      "start": 0.9476,
      "duration": 0.0161,
      "velocity": 101,
      "chip": "ym2612"
    },
    {
      "channel": 3,
      "note": 95,
      "start": 0.9488,
      "duration": 0.0161,
      "velocity": 101,
      "chip": "ym2612"
    },
    {
      "channel": 2,
      "note": 54,
      "start": 0.9499,
      "duration": 0.0161,
      "velocity": 100,
      "chip": "ym2612"
    },
    {
      "channel": 1,
      "note": 64,
      "start": 0.9596,
      "duration": 0.0161,
      "velocity": 124,
      "chip": "ym2612"
    },
    {
      "channel": 0,
      "note": 40,
      "start": 0.9613,
      "duration": 0.0161,
      "velocity": 115,
      "chip": "ym2612"
    },
    {
      "channel": 5,
      "note": 88,
      "start": 0.9625,
      "duration": 0.0161,
      "velocity": 101,
      "chip": "ym2612"
    },
    {
      "channel": 4,
      "note": 92,
      "start": 0.9637,
      "duration": 0.0161,
      "velocity": 101,
      "chip": "ym2612"
    },
    {
      "channel": 3,
      "note": 95,
      "start": 0.9649,
      "duration": 0.0161,
      "velocity": 101,
      "chip": "ym2612"
    },
    {
      "channel": 2,
      "note": 54,
      "start": 0.966,
      "duration": 0.0161,
      "velocity": 100,
      "chip": "ym2612"
    },
    {
      "channel": 1,
      "note": 64,
      "start": 0.9757,
      "duration": 0.0161,
      "velocity": 124,
      "chip": "ym2612"
    },
    {
      "channel": 0,
      "note": 40,
      "start": 0.9774,
      "duration": 0.0162,
      "velocity": 115,
      "chip": "ym2612"
    },
    {
      "channel": 5,
      "note": 88,
      "start": 0.9786,
      "duration": 0.0161,
      "velocity": 101,
      "chip": "ym2612"
    },
    {
      "channel": 4,
      "note": 92,
      "start": 0.9798,
      "duration": 0.0161,
      "velocity": 101,
      "chip": "ym2612"
    },
    {
      "channel": 3,
      "note": 95,
      "start": 0.981,
      "duration": 0.0161,
      "velocity": 101,
      "chip": "ym2612"
    },
    {
      "channel": 2,
      "note": 54,
      "start": 0.9821,
      "duration": 0.0161,
      "velocity": 100,
      "chip": "ym2612"
    },
    {
      "channel": 1,
      "note": 64,
      "start": 0.9918,
      "duration": 0.0161,
      "velocity": 124,
      "chip": "ym2612"
    },
    {
      "channel": 0,
      "note": 40,
      "start": 0.9936,
      "duration": 0.0161,
      "velocity": 115,
      "chip": "ym2612"
    },
    {
      "channel": 5,
      "note": 88,
      "start": 0.9947,
      "duration": 0.0161,
      "velocity": 101,
      "chip": "ym2612"
    },
    {
      "channel": 4,
      "note": 92,
      "start": 0.9959,
      "duration": 0.0161,
      "velocity": 101,
      "chip": "ym2612"
    },
    {
      "channel": 3,
      "note": 95,
      "start": 0.9971,
      "duration": 0.0161,
      "velocity": 101,
      "chip": "ym2612"
    },
    {
      "channel": 2,
      "note": 54,
      "start": 0.9982,
      "duration": 0.0161,
      "velocity": 100,
      "chip": "ym2612"
    },
    {
      "channel": 1,
      "note": 64,
      "start": 1.0079,
      "duration": 0.0161,
      "velocity": 124,
      "chip": "ym2612"
    },
    {
      "channel": 0,
      "note": 41,
      "start": 1.0097,
      "duration": 0.0161,
      "velocity": 115,
      "chip": "ym2612"
    },
    {
      "channel": 5,
      "note": 88,
      "start": 1.0108,
      "duration": 0.0161,
      "velocity": 101,
      "chip": "ym2612"
    },
    {
      "channel": 4,
      "note": 92,
      "start": 1.012,
      "duration": 0.0161,
      "velocity": 101,
      "chip": "ym2612"
    },
    {
      "channel": 3,
      "note": 95,
      "start": 1.0132,
      "duration": 0.0161,
      "velocity": 101,
      "chip": "ym2612"
    },
    {
      "channel": 2,
      "note": 54,
      "start": 1.0143,
      "duration": 0.0161,
      "velocity": 100,
      "chip": "ym2612"
    },
    {
      "channel": 1,
      "note": 64,
      "start": 1.024,
      "duration": 0.0178,
      "velocity": 105,
      "chip": "ym2612"
    },
    {
      "channel": 0,
      "note": 41,
      "start": 1.0257,
      "duration": 0.0179,
      "velocity": 115,
      "chip": "ym2612"
    },
    {
      "channel": 5,
      "note": 88,
      "start": 1.0269,
      "duration": 0.0179,
      "velocity": 101,
      "chip": "ym2612"
    },
    {
      "channel": 4,
      "note": 92,
      "start": 1.0281,
      "duration": 0.0179,
      "velocity": 101,
      "chip": "ym2612"
    },
    {
      "channel": 3,
      "note": 95,
      "start": 1.0293,
      "duration": 0.018,
      "velocity": 101,
      "chip": "ym2612"
    },
    {
      "channel": 2,
      "note": 54,
      "start": 1.0305,
      "duration": 0.0182,
      "velocity": 100,
      "chip": "ym2612"
    },
    {
      "channel": 1,
      "note": 105,
      "start": 1.0419,
      "duration": 0.0144,
      "velocity": 105,
      "chip": "ym2612"
    },
    {
      "channel": 0,
      "note": 42,
      "start": 1.0436,
      "duration": 0.0144,
      "velocity": 115,
      "chip": "ym2612"
    },
    {
      "channel": 5,
      "note": 88,
      "start": 1.0448,
      "duration": 0.0144,
      "velocity": 101,
      "chip": "ym2612"
    },
    {
      "channel": 4,
      "note": 92,
      "start": 1.046,
      "duration": 0.0144,
      "velocity": 101,
      "chip": "ym2612"
    },
    {
      "channel": 3,
      "note": 95,
      "start": 1.0473,
      "duration": 0.0144,
      "velocity": 101,
      "chip": "ym2612"
    },
    {
      "channel": 2,
      "note": 66,
      "start": 1.0487,
      "duration": 0.0141,
      "velocity": 100,
      "chip": "ym2612"
    },
    {
      "channel": 1,
      "note": 105,
      "start": 1.0563,
      "duration": 0.016,
      "velocity": 105,
      "chip": "ym2612"
    },
    {
      "channel": 0,
      "note": 42,
      "start": 1.058,
      "duration": 0.016,
      "velocity": 115,
      "chip": "ym2612"
    },
    {
      "channel": 5,
      "note": 88,
      "start": 1.0592,
      "duration": 0.016,
      "velocity": 101,
      "chip": "ym2612"
    },
    {
      "channel": 4,
      "note": 92,
      "start": 1.0604,
      "duration": 0.016,
      "velocity": 101,
      "chip": "ym2612"
    },
    {
      "channel": 3,
      "note": 95,
      "start": 1.0616,
      "duration": 0.016,
      "velocity": 101,
      "chip": "ym2612"
    },
    {
      "channel": 2,
      "note": 66,
      "start": 1.0628,
      "duration": 0.016,
      "velocity": 100,
      "chip": "ym2612"
    },
    {
      "channel": 1,
      "note": 105,
      "start": 1.0723,
      "duration": 0.0161,
      "velocity": 105,
      "chip": "ym2612"
    },
    {
      "channel": 0,
      "note": 43,
      "start": 1.074,
      "duration": 0.0161,
      "velocity": 115,
      "chip": "ym2612"
    },
    {
      "channel": 5,
      "note": 88,
      "start": 1.0752,
      "duration": 0.0161,
      "velocity": 101,
      "chip": "ym2612"
    },
    {
      "channel": 4,
      "note": 92,
      "start": 1.0764,
      "duration": 0.0161,
      "velocity": 101,
      "chip": "ym2612"
    },
    {
      "channel": 3,
      "note": 95,
      "start": 1.0777,
      "duration": 0.0161,
      "velocity": 101,
      "chip": "ym2612"
    },
    {
      "channel": 2,
      "note": 66,
      "start": 1.0788,
      "duration": 0.0161,
      "velocity": 100,
      "chip": "ym2612"
    },
    {
      "channel": 1,
      "note": 105,
      "start": 1.0884,
      "duration": 0.0161,
      "velocity": 105,
      "chip": "ym2612"
    },
    {
      "channel": 0,
      "note": 43,
      "start": 1.0901,
      "duration": 0.0161,
      "velocity": 115,
      "chip": "ym2612"
    },
    {
      "channel": 5,
      "note": 88,
      "start": 1.0913,
      "duration": 0.0161,
      "velocity": 101,
      "chip": "ym2612"
    },
    {
      "channel": 4,
      "note": 92,
      "start": 1.0925,
      "duration": 0.0161,
      "velocity": 101,
      "chip": "ym2612"
    },
    {
      "channel": 3,
      "note": 95,
      "start": 1.0937,
      "duration": 0.0161,
      "velocity": 101,
      "chip": "ym2612"
    },
    {
      "channel": 2,
      "note": 66,
      "start": 1.0949,
      "duration": 0.0161,
      "velocity": 100,
      "chip": "ym2612"
    },
    {
      "channel": 1,
      "note": 105,
      "start": 1.1045,
      "duration": 0.0161,
      "velocity": 105,
      "chip": "ym2612"
    },
    {
      "channel": 0,
      "note": 44,
      "start": 1.1062,
      "duration": 0.0161,
      "velocity": 115,
      "chip": "ym2612"
    },
    {
      "channel": 5,
      "note": 88,
      "start": 1.1074,
      "duration": 0.0161,
      "velocity": 101,
      "chip": "ym2612"
    },
    {
      "channel": 4,
      "note": 92,
      "start": 1.1086,
      "duration": 0.0161,
      "velocity": 101,
      "chip": "ym2612"
    },
    {
      "channel": 3,
      "note": 95,
      "start": 1.1098,
      "duration": 0.0161,
      "velocity": 101,
      "chip": "ym2612"
    },
    {
      "channel": 2,
      "note": 66,
      "start": 1.111,
      "duration": 0.0161,
      "velocity": 100,
      "chip": "ym2612"
    },
    {
      "channel": 1,
      "note": 105,
      "start": 1.1206,
      "duration": 0.0162,
      "velocity": 105,
      "chip": "ym2612"
    },
    {
      "channel": 0,
      "note": 44,
      "start": 1.1223,
      "duration": 0.0162,
      "velocity": 115,
      "chip": "ym2612"
    },
    {
      "channel": 5,
      "note": 88,
      "start": 1.1235,
      "duration": 0.0162,
      "velocity": 101,
      "chip": "ym2612"
    },
    {
      "channel": 4,
      "note": 92,
      "start": 1.1247,
      "duration": 0.0161,
      "velocity": 101,
      "chip": "ym2612"
    },
    {
      "channel": 3,
      "note": 95,
      "start": 1.1259,
      "duration": 0.0161,
      "velocity": 101,
      "chip": "ym2612"
    },
    {
      "channel": 2,
      "note": 66,
      "start": 1.1271,
      "duration": 0.0163,
      "velocity": 100,
      "chip": "ym2612"
    },
    {
      "channel": 1,
      "note": 105,
      "start": 1.1368,
      "duration": 0.0161,
      "velocity": 105,
      "chip": "ym2612"
    },
    {
      "channel": 0,
      "note": 44,
      "start": 1.1385,
      "duration": 0.0161,
      "velocity": 115,
      "chip": "ym2612"
    },
    {
      "channel": 5,
      "note": 88,
      "start": 1.1397,
      "duration": 0.0161,
      "velocity": 101,
      "chip": "ym2612"
    },
    {
      "channel": 4,
      "note": 92,
      "start": 1.1409,
      "duration": 0.0163,
      "velocity": 101,
      "chip": "ym2612"
    },
    {
      "channel": 3,
      "note": 95,
      "start": 1.1421,
      "duration": 0.0163,
      "velocity": 101,
      "chip": "ym2612"
    },
    {
      "channel": 2,
      "note": 66,
      "start": 1.1434,
      "duration": 0.0163,
      "velocity": 100,
      "chip": "ym2612"
    },
    {
      "channel": 1,
      "note": 105,
      "start": 1.1529,
      "duration": 0.0165,
      "velocity": 105,
      "chip": "ym2612"
    },
    {
      "channel": 0,
      "note": 45,
      "start": 1.1546,
      "duration": 0.0164,
      "velocity": 115,
      "chip": "ym2612"
    },
    {
      "channel": 5,
      "note": 88,
      "start": 1.1558,
      "duration": 0.0164,
      "velocity": 101,
      "chip": "ym2612"
    },
    {
      "channel": 4,
      "note": 92,
      "start": 1.1572,
      "duration": 0.0163,
      "velocity": 101,
      "chip": "ym2612"
    },
    {
      "channel": 3,
      "note": 95,
      "start": 1.1584,
      "duration": 0.0163,
      "velocity": 101,
      "chip": "ym2612"
    },
    {
      "channel": 2,
      "note": 66,
      "start": 1.1597,
      "duration": 0.0163,
      "velocity": 100,
      "chip": "ym2612"
    },
    {
      "channel": 1,
      "note": 105,
      "start": 1.1693,
      "duration": 0.0163,
      "velocity": 105,
      "chip": "ym2612"
    },
    {
      "channel": 0,
      "note": 45,
      "start": 1.171,
      "duration": 0.0163,
      "velocity": 115,
      "chip": "ym2612"
    },
    {
      "channel": 5,
      "note": 88,
      "start": 1.1722,
      "duration": 0.0163,
      "velocity": 101,
      "chip": "ym2612"
    },
    {
      "channel": 4,
      "note": 92,
      "start": 1.1735,
      "duration": 0.0163,
      "velocity": 101,
      "chip": "ym2612"
    },
    {
      "channel": 3,
      "note": 95,
      "start": 1.1748,
      "duration": 0.0163,
      "velocity": 101,
      "chip": "ym2612"
    },
    {
      "channel": 2,
      "note": 66,
      "start": 1.176,
      "duration": 0.0163,
      "velocity": 100,
      "chip": "ym2612"
    },
    {
      "channel": 1,
      "note": 105,
      "start": 1.1856,
      "duration": 0.016,
      "velocity": 105,
      "chip": "ym2612"
    },
    {
      "channel": 0,
      "note": 46,
      "start": 1.1873,
      "duration": 0.0161,
      "velocity": 115,
      "chip": "ym2612"
    },
    {
      "channel": 2,
      "note": 66,
      "start": 1.1923,
      "duration": 0.016,
      "velocity": 100,
      "chip": "ym2612"
    },
    {
      "channel": 1,
      "note": 105,
      "start": 1.2016,
      "duration": 0.0158,
      "velocity": 105,
      "chip": "ym2612"
    },
    {
      "channel": 0,
      "note": 46,
      "start": 1.2034,
      "duration": 0.0161,
      "velocity": 115,
      "chip": "ym2612"
    },
    {
      "channel": 2,
      "note": 66,
      "start": 1.2083,
      "duration": 0.0163,
      "velocity": 100,
      "chip": "ym2612"
    },
    {
      "channel": 1,
      "note": 105,
      "start": 1.2174,
      "duration": 0.0159,
      "velocity": 105,
      "chip": "ym2612"
    },
    {
      "channel": 0,
      "note": 47,
      "start": 1.2195,
      "duration": 0.0161,
      "velocity": 115,
      "chip": "ym2612"
    },
    {
      "channel": 2,
      "note": 66,
      "start": 1.2246,
      "duration": 0.0158,
      "velocity": 100,
      "chip": "ym2612"
    },
    {
      "channel": 1,
      "note": 105,
      "start": 1.2333,
      "duration": 0.0191,
      "velocity": 124,
      "chip": "ym2612"
    },
    {
      "channel": 0,
      "note": 47,
      "start": 1.2356,
      "duration": 0.0204,
      "velocity": 115,
      "chip": "ym2612"
    },
    {
      "channel": 2,
      "note": 66,
      "start": 1.2404,
      "duration": 0.0216,
      "velocity": 100,
      "chip": "ym2612"
    },
    {
      "channel": 1,
      "note": 84,
      "start": 1.2524,
      "duration": 0.0137,
      "velocity": 124,
      "chip": "ym2612"
    },
    {
      "channel": 0,
      "note": 36,
      "start": 1.256,
      "duration": 0.0125,
      "velocity": 115,
      "chip": "ym2612"
    },
    {
      "channel": 5,
      "note": 85,
      "start": 1.2575,
      "duration": 0.0123,
      "velocity": 101,
      "chip": "ym2612"
    },
    {
      "channel": 4,
      "note": 90,
      "start": 1.259,
      "duration": 0.012,
      "velocity": 101,
      "chip": "ym2612"
    },
    {
      "channel": 3,
      "note": 94,
      "start": 1.2604,
      "duration": 0.0118,
      "velocity": 101,
      "chip": "ym2612"
    },
    {
      "channel": 2,
      "note": 54,
      "start": 1.262,
      "duration": 0.0115,
      "velocity": 100,
      "chip": "ym2612"
    },
    {
      "channel": 1,
      "note": 82,
      "start": 1.2661,
      "duration": 0.016,
      "velocity": 124,
      "chip": "ym2612"
    },
    {
      "channel": 0,
      "note": 36,
      "start": 1.2684,
      "duration": 0.0156,
      "velocity": 115,
      "chip": "ym2612"
    },
    {
      "channel": 5,
      "note": 85,
      "start": 1.2698,
      "duration": 0.0159,
      "velocity": 101,
      "chip": "ym2612"
    },
    {
      "channel": 4,
      "note": 90,
      "start": 1.271,
      "duration": 0.0159,
      "velocity": 101,
      "chip": "ym2612"
    },
    {
      "channel": 3,
      "note": 94,
      "start": 1.2722,
      "duration": 0.0158,
      "velocity": 101,
      "chip": "ym2612"
    },
    {
      "channel": 2,
      "note": 54,
      "start": 1.2735,
      "duration": 0.0157,
      "velocity": 100,
      "chip": "ym2612"
    },
    {
      "channel": 1,
      "note": 80,
      "start": 1.2822,
      "duration": 0.0161,
      "velocity": 124,
      "chip": "ym2612"
    },
    {
      "channel": 0,
      "note": 37,
      "start": 1.2841,
      "duration": 0.0159,
      "velocity": 115,
      "chip": "ym2612"
    },
    {
      "channel": 5,
      "note": 85,
      "start": 1.2857,
      "duration": 0.016,
      "velocity": 101,
      "chip": "ym2612"
    },
    {
      "channel": 4,
      "note": 90,
      "start": 1.2869,
      "duration": 0.0161,
      "velocity": 101,
      "chip": "ym2612"
    },
    {
      "channel": 3,
      "note": 94,
      "start": 1.288,
      "duration": 0.0161,
      "velocity": 101,
      "chip": "ym2612"
    },
    {
      "channel": 2,
      "note": 54,
      "start": 1.2892,
      "duration": 0.0161,
      "velocity": 100,
      "chip": "ym2612"
    },
    {
      "channel": 1,
      "note": 77,
      "start": 1.2983,
      "duration": 0.0161,
      "velocity": 124,
      "chip": "ym2612"
    },
    {
      "channel": 0,
      "note": 37,
      "start": 1.3,
      "duration": 0.0161,
      "velocity": 115,
      "chip": "ym2612"
    },
    {
      "channel": 5,
      "note": 85,
      "start": 1.3017,
      "duration": 0.0158,
      "velocity": 101,
      "chip": "ym2612"
    },
    {
      "channel": 4,
      "note": 90,
      "start": 1.303,
      "duration": 0.0161,
      "velocity": 101,
      "chip": "ym2612"
    },
    {
      "channel": 3,
      "note": 94,
      "start": 1.3041,
      "duration": 0.0161,
      "velocity": 101,
      "chip": "ym2612"
    },
    {
      "channel": 2,
      "note": 54,
      "start": 1.3053,
      "duration": 0.0161,
      "velocity": 100,
      "chip": "ym2612"
    },
    {
      "channel": 1,
      "note": 75,
      "start": 1.3144,
      "duration": 0.0162,
      "velocity": 124,
      "chip": "ym2612"
    },
    {
      "channel": 0,
      "note": 38,
      "start": 1.3161,
      "duration": 0.0161,
      "velocity": 115,
      "chip": "ym2612"
    },
    {
      "channel": 5,
      "note": 85,
      "start": 1.3175,
      "duration": 0.0159,
      "velocity": 101,
      "chip": "ym2612"
    },
    {
      "channel": 4,
      "note": 90,
      "start": 1.3191,
      "duration": 0.016,
      "velocity": 101,
      "chip": "ym2612"
    },
    {
      "channel": 3,
      "note": 94,
      "start": 1.3202,
      "duration": 0.0161,
      "velocity": 101,
      "chip": "ym2612"
    },
    {
      "channel": 2,
      "note": 54,
      "start": 1.3214,
      "duration": 0.0161,
      "velocity": 100,
      "chip": "ym2612"
    },
    {
      "channel": 1,
      "note": 72,
      "start": 1.3305,
      "duration": 0.0161,
      "velocity": 124,
      "chip": "ym2612"
    },
    {
      "channel": 0,
      "note": 38,
      "start": 1.3322,
      "duration": 0.0161,
      "velocity": 115,
      "chip": "ym2612"
    },
    {
      "channel": 5,
      "note": 85,
      "start": 1.3334,
      "duration": 0.0161,
      "velocity": 101,
      "chip": "ym2612"
    },
    {
      "channel": 4,
      "note": 90,
      "start": 1.3351,
      "duration": 0.0158,
      "velocity": 101,
      "chip": "ym2612"
    },
    {
      "channel": 3,
      "note": 94,
      "start": 1.3363,
      "duration": 0.0161,
      "velocity": 101,
      "chip": "ym2612"
    },
    {
      "channel": 2,
      "note": 54,
      "start": 1.3375,
      "duration": 0.0161,
      "velocity": 100,
      "chip": "ym2612"
    },
    {
      "channel": 1,
      "note": 70,
      "start": 1.3466,
      "duration": 0.0161,
      "velocity": 124,
      "chip": "ym2612"
    },
    {
      "channel": 0,
      "note": 39,
      "start": 1.3483,
      "duration": 0.0161,
      "velocity": 115,
      "chip": "ym2612"
    },
    {
      "channel": 5,
      "note": 85,
      "start": 1.3495,
      "duration": 0.0161,
      "velocity": 101,
      "chip": "ym2612"
    },
    {
      "channel": 4,
      "note": 90,
      "start": 1.3509,
      "duration": 0.016,
      "velocity": 101,
      "chip": "ym2612"
    },
    {
      "channel": 3,
      "note": 94,
      "start": 1.3524,
      "duration": 0.0163,
      "velocity": 101,
      "chip": "ym2612"
    },
    {
      "channel": 2,
      "note": 54,
      "start": 1.3536,
      "duration": 0.0163,
      "velocity": 100,
      "chip": "ym2612"
    },
    {
      "channel": 1,
      "note": 68,
      "start": 1.3627,
      "duration": 0.0161,
      "velocity": 124,
      "chip": "ym2612"
    },
    {
      "channel": 0,
      "note": 39,
      "start": 1.3644,
      "duration": 0.0161,
      "velocity": 115,
      "chip": "ym2612"
    },
    {
      "channel": 5,
      "note": 85,
      "start": 1.3656,
      "duration": 0.0161,
      "velocity": 101,
      "chip": "ym2612"
    },
    {
      "channel": 4,
      "note": 90,
      "start": 1.3669,
      "duration": 0.016,
      "velocity": 101,
      "chip": "ym2612"
    },
    {
      "channel": 3,
      "note": 94,
      "start": 1.3688,
      "duration": 0.016,
      "velocity": 101,
      "chip": "ym2612"
    },
    {
      "channel": 2,
      "note": 54,
      "start": 1.3699,
      "duration": 0.016,
      "velocity": 100,
      "chip": "ym2612"
    },
    {
      "channel": 1,
      "note": 65,
      "start": 1.3788,
      "duration": 0.0161,
      "velocity": 124,
      "chip": "ym2612"
    },
    {
      "channel": 0,
      "note": 40,
      "start": 1.3805,
      "duration": 0.0161,
      "velocity": 115,
      "chip": "ym2612"
    },
    {
      "channel": 5,
      "note": 85,
      "start": 1.3817,
      "duration": 0.0161,
      "velocity": 101,
      "chip": "ym2612"
    },
    {
      "channel": 4,
      "note": 90,
      "start": 1.3829,
      "duration": 0.0161,
      "velocity": 101,
      "chip": "ym2612"
    },
    {
      "channel": 3,
      "note": 94,
      "start": 1.3847,
      "duration": 0.0156,
      "velocity": 101,
      "chip": "ym2612"
    },
    {
      "channel": 2,
      "note": 54,
      "start": 1.3859,
      "duration": 0.016,
      "velocity": 100,
      "chip": "ym2612"
    },
    {
      "channel": 1,
      "note": 63,
      "start": 1.3949,
      "duration": 0.0153,
      "velocity": 1,
      "chip": "ym2612"
    },
    {
      "channel": 0,
      "note": 40,
      "start": 1.3966,
      "duration": 0.0153,
      "velocity": 115,
      "chip": "ym2612"
    },
    {
      "channel": 2,
      "note": 54,
      "start": 1.402,
      "duration": 0.0148,
      "velocity": 100,
      "chip": "ym2612"
    },
    {
      "channel": 0,
      "note": 40,
      "start": 1.4119,
      "duration": 0.0153,
      "velocity": 115,
      "chip": "ym2612"
    },
    {
      "channel": 2,
      "note": 54,
      "start": 1.4167,
      "duration": 0.0153,
      "velocity": 100,
      "chip": "ym2612"
    },
    {
      "channel": 0,
      "note": 41,
      "start": 1.4271,
      "duration": 0.0161,
      "velocity": 115,
      "chip": "ym2612"
    },
    {
      "channel": 2,
      "note": 54,
      "start": 1.432,
      "duration": 0.0159,
      "velocity": 100,
      "chip": "ym2612"
    },
    {
      "channel": 0,
      "note": 41,
      "start": 1.4432,
      "duration": 0.019,
      "velocity": 115,
      "chip": "ym2612"
    },
    {
      "channel": 2,
      "note": 54,
      "start": 1.4479,
      "duration": 0.0207,
      "velocity": 100,
      "chip": "ym2612"
    },
    {
      "channel": 1,
      "note": 105,
      "start": 1.4605,
      "duration": 0.0144,
      "velocity": 105,
      "chip": "ym2612"
    },
    {
      "channel": 0,
      "note": 42,
      "start": 1.4622,
      "duration": 0.0144,
      "velocity": 115,
      "chip": "ym2612"
    },
    {
      "channel": 5,
      "note": 85,
      "start": 1.4637,
      "duration": 0.0142,
      "velocity": 101,
      "chip": "ym2612"
    },
    {
      "channel": 4,
      "note": 88,
      "start": 1.4652,
      "duration": 0.0139,
      "velocity": 101,
      "chip": "ym2612"
    },
    {
      "channel": 3,
      "note": 92,
      "start": 1.4666,
      "duration": 0.0137,
      "velocity": 101,
      "chip": "ym2612"
    },
    {
      "channel": 2,
      "note": 66,
      "start": 1.4688,
      "duration": 0.0128,
      "velocity": 100,
      "chip": "ym2612"
    },
    {
      "channel": 1,
      "note": 105,
      "start": 1.4749,
      "duration": 0.016,
      "velocity": 105,
      "chip": "ym2612"
    },
    {
      "channel": 0,
      "note": 42,
      "start": 1.4766,
      "duration": 0.0161,
      "velocity": 115,
      "chip": "ym2612"
    },
    {
      "channel": 5,
      "note": 85,
      "start": 1.4778,
      "duration": 0.016,
      "velocity": 101,
      "chip": "ym2612"
    },
    {
      "channel": 4,
      "note": 88,
      "start": 1.4791,
      "duration": 0.0159,
      "velocity": 101,
      "chip": "ym2612"
    },
    {
      "channel": 3,
      "note": 92,
      "start": 1.4803,
      "duration": 0.0159,
      "velocity": 101,
      "chip": "ym2612"
    },
    {
      "channel": 2,
      "note": 66,
      "start": 1.4815,
      "duration": 0.0158,
      "velocity": 100,
      "chip": "ym2612"
    },
    {
      "channel": 1,
      "note": 105,
      "start": 1.491,
      "duration": 0.0161,
      "velocity": 105,
      "chip": "ym2612"
    },
    {
      "channel": 0,
      "note": 43,
      "start": 1.4927,
      "duration": 0.0161,
      "velocity": 115,
      "chip": "ym2612"
    },
    {
      "channel": 5,
      "note": 85,
      "start": 1.4938,
      "duration": 0.0161,
      "velocity": 101,
      "chip": "ym2612"
    },
    {
      "channel": 4,
      "note": 88,
      "start": 1.495,
      "duration": 0.0161,
      "velocity": 101,
      "chip": "ym2612"
    },
    {
      "channel": 3,
      "note": 92,
      "start": 1.4962,
      "duration": 0.0162,
      "velocity": 101,
      "chip": "ym2612"
    },
    {
      "channel": 2,
      "note": 66,
      "start": 1.4973,
      "duration": 0.0161,
      "velocity": 100,
      "chip": "ym2612"
    },
    {
      "channel": 1,
      "note": 105,
      "start": 1.5071,
      "duration": 0.0161,
      "velocity": 105,
      "chip": "ym2612"
    },
    {
      "channel": 0,
      "note": 43,
      "start": 1.5088,
      "duration": 0.0161,
      "velocity": 115,
      "chip": "ym2612"
    },
    {
      "channel": 5,
      "note": 85,
      "start": 1.5099,
      "duration": 0.0161,
      "velocity": 101,
      "chip": "ym2612"
    },
    {
      "channel": 4,
      "note": 88,
      "start": 1.5111,
      "duration": 0.0161,
      "velocity": 101,
      "chip": "ym2612"
    },
    {
      "channel": 3,
      "note": 92,
      "start": 1.5123,
      "duration": 0.0161,
      "velocity": 101,
      "chip": "ym2612"
    },
    {
      "channel": 2,
      "note": 66,
      "start": 1.5135,
      "duration": 0.0161,
      "velocity": 100,
      "chip": "ym2612"
    },
    {
      "channel": 1,
      "note": 105,
      "start": 1.5231,
      "duration": 0.0161,
      "velocity": 105,
      "chip": "ym2612"
    },
    {
      "channel": 0,
      "note": 44,
      "start": 1.5249,
      "duration": 0.0161,
      "velocity": 115,
      "chip": "ym2612"
    },
    {
      "channel": 5,
      "note": 85,
      "start": 1.526,
      "duration": 0.0161,
      "velocity": 101,
      "chip": "ym2612"
    },
    {
      "channel": 4,
      "note": 88,
      "start": 1.5272,
      "duration": 0.0161,
      "velocity": 101,
      "chip": "ym2612"
    },
    {
      "channel": 3,
      "note": 92,
      "start": 1.5284,
      "duration": 0.0161,
      "velocity": 101,
      "chip": "ym2612"
    },
    {
      "channel": 2,
      "note": 66,
      "start": 1.5296,
      "duration": 0.0161,
      "velocity": 100,
      "chip": "ym2612"
    },
    {
      "channel": 1,
      "note": 105,
      "start": 1.5392,
      "duration": 0.0161,
      "velocity": 105,
      "chip": "ym2612"
    },
    {
      "channel": 0,
      "note": 44,
      "start": 1.541,
      "duration": 0.0161,
      "velocity": 115,
      "chip": "ym2612"
    },
    {
      "channel": 5,
      "note": 85,
      "start": 1.5421,
      "duration": 0.0162,
      "velocity": 101,
      "chip": "ym2612"
    },
    {
      "channel": 4,
      "note": 88,
      "start": 1.5433,
      "duration": 0.0161,
      "velocity": 101,
      "chip": "ym2612"
    },
    {
      "channel": 3,
      "note": 92,
      "start": 1.5445,
      "duration": 0.0161,
      "velocity": 101,
      "chip": "ym2612"
    },
    {
      "channel": 2,
      "note": 66,
      "start": 1.5457,
      "duration": 0.0161,
      "velocity": 100,
      "chip": "ym2612"
    },
    {
      "channel": 1,
      "note": 105,
      "start": 1.5553,
      "duration": 0.0161,
      "velocity": 105,
      "chip": "ym2612"
    },
    {
      "channel": 0,
      "note": 44,
      "start": 1.5571,
      "duration": 0.0161,
      "velocity": 115,
      "chip": "ym2612"
    },
    {
      "channel": 5,
      "note": 85,
      "start": 1.5583,
      "duration": 0.0161,
      "velocity": 101,
      "chip": "ym2612"
    },
    {
      "channel": 4,
      "note": 88,
      "start": 1.5594,
      "duration": 0.0161,
      "velocity": 101,
      "chip": "ym2612"
    },
    {
      "channel": 3,
      "note": 92,
      "start": 1.5606,
      "duration": 0.0161,
      "velocity": 101,
      "chip": "ym2612"
    },
    {
      "channel": 2,
      "note": 66,
      "start": 1.5618,
      "duration": 0.0161,
      "velocity": 100,
      "chip": "ym2612"
    },
    {
      "channel": 1,
      "note": 105,
      "start": 1.5714,
      "duration": 0.0161,
      "velocity": 105,
      "chip": "ym2612"
    },
    {
      "channel": 0,
      "note": 45,
      "start": 1.5731,
      "duration": 0.0161,
      "velocity": 115,
      "chip": "ym2612"
    },
    {
      "channel": 5,
      "note": 85,
      "start": 1.5744,
      "duration": 0.0161,
      "velocity": 101,
      "chip": "ym2612"
    },
    {
      "channel": 4,
      "note": 88,
      "start": 1.5756,
      "duration": 0.0161,
      "velocity": 101,
      "chip": "ym2612"
    },
    {
      "channel": 3,
      "note": 92,
      "start": 1.5767,
      "duration": 0.0161,
      "velocity": 101,
      "chip": "ym2612"
    },
    {
      "channel": 2,
      "note": 66,
      "start": 1.5779,
      "duration": 0.0161,
      "velocity": 100,
      "chip": "ym2612"
    },
    {
      "channel": 1,
      "note": 105,
      "start": 1.5876,
      "duration": 0.0161,
      "velocity": 105,
      "chip": "ym2612"
    },
    {
      "channel": 0,
      "note": 45,
      "start": 1.5892,
      "duration": 0.0161,
      "velocity": 115,
      "chip": "ym2612"
    },
    {
      "channel": 5,
      "note": 85,
      "start": 1.5905,
      "duration": 0.0161,
      "velocity": 101,
      "chip": "ym2612"
    },
    {
      "channel": 4,
      "note": 88,
      "start": 1.5917,
      "duration": 0.0161,
      "velocity": 101,
      "chip": "ym2612"
    },
    {
      "channel": 3,
      "note": 92,
      "start": 1.5928,
      "duration": 0.0161,
      "velocity": 101,
      "chip": "ym2612"
    },
    {
      "channel": 2,
      "note": 66,
      "start": 1.594,
      "duration": 0.016,
      "velocity": 100,
      "chip": "ym2612"
    },
    {
      "channel": 1,
      "note": 105,
      "start": 1.6037,
      "duration": 0.0162,
      "velocity": 105,
      "chip": "ym2612"
    },
    {
      "channel": 0,
      "note": 46,
      "start": 1.6053,
      "duration": 0.0162,
      "velocity": 115,
      "chip": "ym2612"
    },
    {
      "channel": 5,
      "note": 85,
      "start": 1.6065,
      "duration": 0.0162,
      "velocity": 101,
      "chip": "ym2612"
    },
    {
      "channel": 4,
      "note": 88,
      "start": 1.6078,
      "duration": 0.0161,
      "velocity": 101,
      "chip": "ym2612"
    },
    {
      "channel": 3,
      "note": 92,
      "start": 1.6089,
      "duration": 0.0162,
      "velocity": 101,
      "chip": "ym2612"
    },
    {
      "channel": 2,
      "note": 66,
      "start": 1.61,
      "duration": 0.0161,
      "velocity": 100,
      "chip": "ym2612"
    },
    {
      "channel": 1,
      "note": 105,
      "start": 1.6198,
      "duration": 0.0163,
      "velocity": 105,
      "chip": "ym2612"
    },
    {
      "channel": 0,
      "note": 46,
      "start": 1.6215,
      "duration": 0.0163,
      "velocity": 115,
      "chip": "ym2612"
    },
    {
      "channel": 5,
      "note": 85,
      "start": 1.6227,
      "duration": 0.0163,
      "velocity": 101,
      "chip": "ym2612"
    },
    {
      "channel": 4,
      "note": 88,
      "start": 1.6239,
      "duration": 0.0163,
      "velocity": 101,
      "chip": "ym2612"
    },
    {
      "channel": 3,
      "note": 92,
      "start": 1.6251,
      "duration": 0.0163,
      "velocity": 101,
      "chip": "ym2612"
    },
    {
      "channel": 2,
      "note": 66,
      "start": 1.6262,
      "duration": 0.0165,
      "velocity": 100,
      "chip": "ym2612"
    },
    {
      "channel": 1,
      "note": 105,
      "start": 1.6361,
      "duration": 0.0163,
      "velocity": 105,
      "chip": "ym2612"
    },
    {
      "channel": 0,
      "note": 47,
      "start": 1.6378,
      "duration": 0.0163,
      "velocity": 115,
      "chip": "ym2612"
    },
    {
      "channel": 5,
      "note": 85,
      "start": 1.639,
      "duration": 0.0163,
      "velocity": 101,
      "chip": "ym2612"
    },
    {
      "channel": 4,
      "note": 88,
      "start": 1.6402,
      "duration": 0.0163,
      "velocity": 101,
      "chip": "ym2612"
    },
    {
      "channel": 3,
      "note": 92,
      "start": 1.6414,
      "duration": 0.0163,
      "velocity": 101,
      "chip": "ym2612"
    },
    {
      "channel": 2,
      "note": 66,
      "start": 1.6427,
      "duration": 0.0162,
      "velocity": 100,
      "chip": "ym2612"
    },
    {
      "channel": 1,
      "note": 105,
      "start": 1.6525,
      "duration": 0.0179,
      "velocity": 124,
      "chip": "ym2612"
    },
    {
      "channel": 0,
      "note": 47,
      "start": 1.6542,
      "duration": 0.0198,
      "velocity": 115,
      "chip": "ym2612"
    },
    {
      "channel": 5,
      "note": 85,
      "start": 1.6553,
      "duration": 0.0199,
      "velocity": 101,
      "chip": "ym2612"
    },
    {
      "channel": 4,
      "note": 88,
      "start": 1.6565,
      "duration": 0.0199,
      "velocity": 101,
      "chip": "ym2612"
    },
    {
      "channel": 3,
      "note": 92,
      "start": 1.6578,
      "duration": 0.0199,
      "velocity": 101,
      "chip": "ym2612"
    },
    {
      "channel": 2,
      "note": 66,
      "start": 1.6589,
      "duration": 0.0203,
      "velocity": 100,
      "chip": "ym2612"
    },
    {
      "channel": 1,
      "note": 64,
      "start": 1.6705,
      "duration": 0.0143,
      "velocity": 124,
      "chip": "ym2612"
    },
    {
      "channel": 0,
      "note": 36,
      "start": 1.674,
      "duration": 0.0126,
      "velocity": 115,
      "chip": "ym2612"
    },
    {
      "channel": 5,
      "note": 85,
      "start": 1.6752,
      "duration": 0.0126,
      "velocity": 101,
      "chip": "ym2612"
    },
    {
      "channel": 4,
      "note": 88,
      "start": 1.6764,
      "duration": 0.0126,
      "velocity": 101,
      "chip": "ym2612"
    },
    {
      "channel": 3,
      "note": 92,
      "start": 1.6777,
      "duration": 0.0126,
      "velocity": 101,
      "chip": "ym2612"
    },
    {
      "channel": 2,
      "note": 54,
      "start": 1.6793,
      "duration": 0.0122,
      "velocity": 100,
      "chip": "ym2612"
    },
    {
      "channel": 1,
      "note": 64,
      "start": 1.6848,
      "duration": 0.0155,
      "velocity": 124,
      "chip": "ym2612"
    },
    {
      "channel": 0,
      "note": 36,
      "start": 1.6866,
      "duration": 0.016,
      "velocity": 115,
      "chip": "ym2612"
    },
    {
      "channel": 5,
      "note": 85,
      "start": 1.6878,
      "duration": 0.016,
      "velocity": 101,
      "chip": "ym2612"
    },
    {
      "channel": 4,
      "note": 88,
      "start": 1.689,
      "duration": 0.016,
      "velocity": 101,
      "chip": "ym2612"
    },
    {
      "channel": 3,
      "note": 92,
      "start": 1.6902,
      "duration": 0.016,
      "velocity": 101,
      "chip": "ym2612"
    },
    {
      "channel": 2,
      "note": 54,
      "start": 1.6915,
      "duration": 0.0159,
      "velocity": 100,
      "chip": "ym2612"
    },
    {
      "channel": 1,
      "note": 64,
      "start": 1.7002,
      "duration": 0.0161,
      "velocity": 124,
      "chip": "ym2612"
    },
    {
      "channel": 0,
      "note": 37,
      "start": 1.7026,
      "duration": 0.0161,
      "velocity": 115,
      "chip": "ym2612"
    },
    {
      "channel": 5,
      "note": 85,
      "start": 1.7038,
      "duration": 0.0161,
      "velocity": 101,
      "chip": "ym2612"
    },
    {
      "channel": 4,
      "note": 88,
      "start": 1.705,
      "duration": 0.0161,
      "velocity": 101,
      "chip": "ym2612"
    },
    {
      "channel": 3,
      "note": 92,
      "start": 1.7062,
      "duration": 0.0161,
      "velocity": 101,
      "chip": "ym2612"
    },
    {
      "channel": 2,
      "note": 54,
      "start": 1.7074,
      "duration": 0.0161,
      "velocity": 100,
      "chip": "ym2612"
    },
    {
      "channel": 1,
      "note": 64,
      "start": 1.7163,
      "duration": 0.0162,
      "velocity": 124,
      "chip": "ym2612"
    },
    {
      "channel": 0,
      "note": 37,
      "start": 1.7187,
      "duration": 0.016,
      "velocity": 115,
      "chip": "ym2612"
    },
    {
      "channel": 5,
      "note": 85,
      "start": 1.7199,
      "duration": 0.0161,
      "velocity": 101,
      "chip": "ym2612"
    },
    {
      "channel": 4,
      "note": 88,
      "start": 1.7211,
      "duration": 0.0161,
      "velocity": 101,
      "chip": "ym2612"
    },
    {
      "channel": 3,
      "note": 92,
      "start": 1.7223,
      "duration": 0.0161,
      "velocity": 101,
      "chip": "ym2612"
    },
    {
      "channel": 2,
      "note": 54,
      "start": 1.7235,
      "duration": 0.0161,
      "velocity": 100,
      "chip": "ym2612"
    },
    {
      "channel": 1,
      "note": 64,
      "start": 1.7325,
      "duration": 0.0161,
      "velocity": 124,
      "chip": "ym2612"
    },
    {
      "channel": 0,
      "note": 38,
      "start": 1.7347,
      "duration": 0.0156,
      "velocity": 115,
      "chip": "ym2612"
    },
    {
      "channel": 5,
      "note": 85,
      "start": 1.736,
      "duration": 0.0161,
      "velocity": 101,
      "chip": "ym2612"
    },
    {
      "channel": 4,
      "note": 88,
      "start": 1.7372,
      "duration": 0.0161,
      "velocity": 101,
      "chip": "ym2612"
    },
    {
      "channel": 3,
      "note": 92,
      "start": 1.7384,
      "duration": 0.0161,
      "velocity": 101,
      "chip": "ym2612"
    },
    {
      "channel": 2,
      "note": 54,
      "start": 1.7395,
      "duration": 0.0161,
      "velocity": 100,
      "chip": "ym2612"
    },
    {
      "channel": 1,
      "note": 64,
      "start": 1.7486,
      "duration": 0.0161,
      "velocity": 124,
      "chip": "ym2612"
    },
    {
      "channel": 0,
      "note": 38,
      "start": 1.7503,
      "duration": 0.0161,
      "velocity": 115,
      "chip": "ym2612"
    },
    {
      "channel": 5,
      "note": 85,
      "start": 1.7521,
      "duration": 0.016,
      "velocity": 101,
      "chip": "ym2612"
    },
    {
      "channel": 4,
      "note": 88,
      "start": 1.7533,
      "duration": 0.0161,
      "velocity": 101,
      "chip": "ym2612"
    },
    {
      "channel": 3,
      "note": 92,
      "start": 1.7545,
      "duration": 0.0161,
      "velocity": 101,
      "chip": "ym2612"
    },
    {
      "channel": 2,
      "note": 54,
      "start": 1.7556,
      "duration": 0.0161,
      "velocity": 100,
      "chip": "ym2612"
    },
    {
      "channel": 1,
      "note": 64,
      "start": 1.7647,
      "duration": 0.0161,
      "velocity": 124,
      "chip": "ym2612"
    },
    {
      "channel": 0,
      "note": 39,
      "start": 1.7664,
      "duration": 0.0161,
      "velocity": 115,
      "chip": "ym2612"
    },
    {
      "channel": 5,
      "note": 85,
      "start": 1.7681,
      "duration": 0.0156,
      "velocity": 101,
      "chip": "ym2612"
    },
    {
      "channel": 4,
      "note": 88,
      "start": 1.7694,
      "duration": 0.0162,
      "velocity": 101,
      "chip": "ym2612"
    },
    {
      "channel": 3,
      "note": 92,
      "start": 1.7706,
      "duration": 0.0163,
      "velocity": 101,
      "chip": "ym2612"
    },
    {
      "channel": 2,
      "note": 54,
      "start": 1.7717,
      "duration": 0.0163,
      "velocity": 100,
      "chip": "ym2612"
    },
    {
      "channel": 1,
      "note": 64,
      "start": 1.7808,
      "duration": 0.0161,
      "velocity": 124,
      "chip": "ym2612"
    },
    {
      "channel": 0,
      "note": 39,
      "start": 1.7825,
      "duration": 0.0161,
      "velocity": 115,
      "chip": "ym2612"
    },
    {
      "channel": 5,
      "note": 85,
      "start": 1.7838,
      "duration": 0.0161,
      "velocity": 101,
      "chip": "ym2612"
    },
    {
      "channel": 4,
      "note": 88,
      "start": 1.7856,
      "duration": 0.016,
      "velocity": 101,
      "chip": "ym2612"
    },
    {
      "channel": 3,
      "note": 92,
      "start": 1.7869,
      "duration": 0.0161,
      "velocity": 101,
      "chip": "ym2612"
    },
    {
      "channel": 2,
      "note": 54,
      "start": 1.7881,
      "duration": 0.016,
      "velocity": 100,
      "chip": "ym2612"
    },
    {
      "channel": 1,
      "note": 64,
      "start": 1.7969,
      "duration": 0.0161,
      "velocity": 124,
      "chip": "ym2612"
    },
    {
      "channel": 0,
      "note": 40,
      "start": 1.7986,
      "duration": 0.0161,
      "velocity": 115,
      "chip": "ym2612"
    },
    {
      "channel": 5,
      "note": 85,
      "start": 1.7999,
      "duration": 0.0161,
      "velocity": 101,
      "chip": "ym2612"
    },
    {
      "channel": 4,
      "note": 88,
      "start": 1.8016,
      "duration": 0.0158,
      "velocity": 101,
      "chip": "ym2612"
    },
    {
      "channel": 3,
      "note": 92,
      "start": 1.803,
      "duration": 0.0161,
      "velocity": 101,
      "chip": "ym2612"
    },
    {
      "channel": 2,
      "note": 54,
      "start": 1.8041,
      "duration": 0.0161,
      "velocity": 100,
      "chip": "ym2612"
    },
    {
      "channel": 1,
      "note": 64,
      "start": 1.813,
      "duration": 0.0161,
      "velocity": 124,
      "chip": "ym2612"
    },
    {
      "channel": 0,
      "note": 40,
      "start": 1.8147,
      "duration": 0.0161,
      "velocity": 115,
      "chip": "ym2612"
    },
    {
      "channel": 2,
      "note": 54,
      "start": 1.8202,
      "duration": 0.0161,
      "velocity": 100,
      "chip": "ym2612"
    },
    {
      "channel": 1,
      "note": 64,
      "start": 1.829,
      "duration": 0.0161,
      "velocity": 124,
      "chip": "ym2612"
    },
    {
      "channel": 0,
      "note": 40,
      "start": 1.8308,
      "duration": 0.0161,
      "velocity": 115,
      "chip": "ym2612"
    },
    {
      "channel": 2,
      "note": 54,
      "start": 1.8363,
      "duration": 0.0161,
      "velocity": 100,
      "chip": "ym2612"
    },
    {
      "channel": 1,
      "note": 64,
      "start": 1.8451,
      "duration": 0.0162,
      "velocity": 124,
      "chip": "ym2612"
    },
    {
      "channel": 0,
      "note": 41,
      "start": 1.8469,
      "duration": 0.0161,
      "velocity": 115,
      "chip": "ym2612"
    },
    {
      "channel": 2,
      "note": 54,
      "start": 1.8524,
      "duration": 0.0159,
      "velocity": 100,
      "chip": "ym2612"
    },
    {
      "channel": 1,
      "note": 64,
      "start": 1.8613,
      "duration": 0.0177,
      "velocity": 105,
      "chip": "ym2612"
    },
    {
      "channel": 0,
      "note": 41,
      "start": 1.863,
      "duration": 0.0179,
      "velocity": 115,
      "chip": "ym2612"
    },
    {
      "channel": 2,
      "note": 54,
      "start": 1.8683,
      "duration": 0.019,
      "velocity": 100,
      "chip": "ym2612"
    },
    {
      "channel": 1,
      "note": 105,
      "start": 1.8791,
      "duration": 0.0144,
      "velocity": 105,
      "chip": "ym2612"
    },
    {
      "channel": 0,
      "note": 42,
      "start": 1.8808,
      "duration": 0.0144,
      "velocity": 115,
      "chip": "ym2612"
    },
    {
      "channel": 5,
      "note": 85,
      "start": 1.8823,
      "duration": 0.0142,
      "velocity": 101,
      "chip": "ym2612"
    },
    {
      "channel": 4,
      "note": 88,
      "start": 1.884,
      "duration": 0.0137,
      "velocity": 101,
      "chip": "ym2612"
    },
    {
      "channel": 3,
      "note": 92,
      "start": 1.8859,
      "duration": 0.0131,
      "velocity": 101,
      "chip": "ym2612"
    },
    {
      "channel": 2,
      "note": 66,
      "start": 1.8873,
      "duration": 0.0129,
      "velocity": 100,
      "chip": "ym2612"
    },
    {
      "channel": 1,
      "note": 105,
      "start": 1.8936,
      "duration": 0.016,
      "velocity": 105,
      "chip": "ym2612"
    },
    {
      "channel": 0,
      "note": 42,
      "start": 1.8952,
      "duration": 0.016,
      "velocity": 115,
      "chip": "ym2612"
    },
    {
      "channel": 5,
      "note": 85,
      "start": 1.8965,
      "duration": 0.016,
      "velocity": 101,
      "chip": "ym2612"
    },
    {
      "channel": 4,
      "note": 88,
      "start": 1.8978,
      "duration": 0.0159,
      "velocity": 101,
      "chip": "ym2612"
    },
    {
      "channel": 3,
      "note": 92,
      "start": 1.899,
      "duration": 0.0159,
      "velocity": 101,
      "chip": "ym2612"
    },
    {
      "channel": 2,
      "note": 66,
      "start": 1.9002,
      "duration": 0.0158,
      "velocity": 100,
      "chip": "ym2612"
    },
    {
      "channel": 1,
      "note": 105,
      "start": 1.9096,
      "duration": 0.0161,
      "velocity": 105,
      "chip": "ym2612"
    },
    {
      "channel": 0,
      "note": 43,
      "start": 1.9112,
      "duration": 0.0161,
      "velocity": 115,
      "chip": "ym2612"
    },
    {
      "channel": 5,
      "note": 85,
      "start": 1.9124,
      "duration": 0.0161,
      "velocity": 101,
      "chip": "ym2612"
    },
    {
      "channel": 4,
      "note": 88,
      "start": 1.9137,
      "duration": 0.0161,
      "velocity": 101,
      "chip": "ym2612"
    },
    {
      "channel": 3,
      "note": 92,
      "start": 1.9148,
      "duration": 0.0161,
      "velocity": 101,
      "chip": "ym2612"
    },
    {
      "channel": 2,
      "note": 66,
      "start": 1.9159,
      "duration": 0.0161,
      "velocity": 100,
      "chip": "ym2612"
    },
    {
      "channel": 1,
      "note": 105,
      "start": 1.9257,
      "duration": 0.0161,
      "velocity": 105,
      "chip": "ym2612"
    },
    {
      "channel": 0,
      "note": 43,
      "start": 1.9273,
      "duration": 0.0161,
      "velocity": 115,
      "chip": "ym2612"
    },
    {
      "channel": 5,
      "note": 85,
      "start": 1.9285,
      "duration": 0.0161,
      "velocity": 101,
      "chip": "ym2612"
    },
    {
      "channel": 4,
      "note": 88,
      "start": 1.9298,
      "duration": 0.0161,
      "velocity": 101,
      "chip": "ym2612"
    },
    {
      "channel": 3,
      "note": 92,
      "start": 1.9309,
      "duration": 0.0161,
      "velocity": 101,
      "chip": "ym2612"
    },
    {
      "channel": 2,
      "note": 66,
      "start": 1.932,
      "duration": 0.0162,
      "velocity": 100,
      "chip": "ym2612"
    },
    {
      "channel": 1,
      "note": 105,
      "start": 1.9418,
      "duration": 0.0161,
      "velocity": 105,
      "chip": "ym2612"
    },
    {
      "channel": 0,
      "note": 44,
      "start": 1.9435,
      "duration": 0.0161,
      "velocity": 115,
      "chip": "ym2612"
    },
    {
      "channel": 5,
      "note": 85,
      "start": 1.9446,
      "duration": 0.0161,
      "velocity": 101,
      "chip": "ym2612"
    },
    {
      "channel": 4,
      "note": 88,
      "start": 1.9459,
      "duration": 0.0161,
      "velocity": 101,
      "chip": "ym2612"
    },
    {
      "channel": 3,
      "note": 92,
      "start": 1.9471,
      "duration": 0.0161,
      "velocity": 101,
      "chip": "ym2612"
    },
    {
      "channel": 2,
      "note": 66,
      "start": 1.9482,
      "duration": 0.0161,
      "velocity": 100,
      "chip": "ym2612"
    },
    {
      "channel": 1,
      "note": 105,
      "start": 1.9579,
      "duration": 0.0161,
      "velocity": 105,
      "chip": "ym2612"
    },
    {
      "channel": 0,
      "note": 44,
      "start": 1.9596,
      "duration": 0.0161,
      "velocity": 115,
      "chip": "ym2612"
    },
    {
      "channel": 5,
      "note": 85,
      "start": 1.9607,
      "duration": 0.0161,
      "velocity": 101,
      "chip": "ym2612"
    },
    {
      "channel": 4,
      "note": 88,
      "start": 1.962,
      "duration": 0.0161,
      "velocity": 101,
      "chip": "ym2612"
    },
    {
      "channel": 3,
      "note": 92,
      "start": 1.9632,
      "duration": 0.0161,
      "velocity": 101,
      "chip": "ym2612"
    },
    {
      "channel": 2,
      "note": 66,
      "start": 1.9643,
      "duration": 0.0161,
      "velocity": 100,
      "chip": "ym2612"
    },
    {
      "channel": 1,
      "note": 105,
      "start": 1.974,
      "duration": 0.0161,
      "velocity": 105,
      "chip": "ym2612"
    },
    {
      "channel": 0,
      "note": 44,
      "start": 1.9757,
      "duration": 0.0161,
      "velocity": 115,
      "chip": "ym2612"
    },
    {
      "channel": 5,
      "note": 85,
      "start": 1.9768,
      "duration": 0.0162,
      "velocity": 101,
      "chip": "ym2612"
    },
    {
      "channel": 4,
      "note": 88,
      "start": 1.978,
      "duration": 0.0163,
      "velocity": 101,
      "chip": "ym2612"
    },
    {
      "channel": 3,
      "note": 92,
      "start": 1.9793,
      "duration": 0.0163,
      "velocity": 101,
      "chip": "ym2612"
    },
    {
      "channel": 2,
      "note": 66,
      "start": 1.9805,
      "duration": 0.0163,
      "velocity": 100,
      "chip": "ym2612"
    },
    {
      "channel": 1,
      "note": 105,
      "start": 1.9901,
      "duration": 0.0161,
      "velocity": 105,
      "chip": "ym2612"
    },
    {
      "channel": 0,
      "note": 45,
      "start": 1.9918,
      "duration": 0.0161,
      "velocity": 115,
      "chip": "ym2612"
    },
    {
      "channel": 5,
      "note": 85,
      "start": 1.9931,
      "duration": 0.0161,
      "velocity": 101,
      "chip": "ym2612"
    },
    {
      "channel": 4,
      "note": 88,
      "start": 1.9943,
      "duration": 0.016,
      "velocity": 101,
      "chip": "ym2612"
    },
    {
      "channel": 3,
      "note": 92,
      "start": 1.9956,
      "duration": 0.016,
      "velocity": 101,
      "chip": "ym2612"
    },
    {
      "channel": 2,
      "note": 66,
      "start": 1.9967,
      "duration": 0.0161,
      "velocity": 100,
      "chip": "ym2612"
    },
    {
      "channel": 1,
      "note": 105,
      "start": 2.0061,
      "duration": 0.0161,
      "velocity": 105,
      "chip": "ym2612"
    },
    {
      "channel": 0,
      "note": 45,
      "start": 2.0079,
      "duration": 0.0161,
      "velocity": 115,
      "chip": "ym2612"
    },
    {
      "channel": 5,
      "note": 85,
      "start": 2.0091,
      "duration": 0.0161,
      "velocity": 101,
      "chip": "ym2612"
    },
    {
      "channel": 4,
      "note": 88,
      "start": 2.0104,
      "duration": 0.0161,
      "velocity": 101,
      "chip": "ym2612"
    },
    {
      "channel": 3,
      "note": 92,
      "start": 2.0116,
      "duration": 0.0161,
      "velocity": 101,
      "chip": "ym2612"
    },
    {
      "channel": 2,
      "note": 66,
      "start": 2.0128,
      "duration": 0.016,
      "velocity": 100,
      "chip": "ym2612"
    },
    {
      "channel": 1,
      "note": 105,
      "start": 2.0222,
      "duration": 0.0162,
      "velocity": 105,
      "chip": "ym2612"
    },
    {
      "channel": 0,
      "note": 46,
      "start": 2.024,
      "duration": 0.0161,
      "velocity": 115,
      "chip": "ym2612"
    },
    {
      "channel": 2,
      "note": 66,
      "start": 2.0289,
      "duration": 0.016,
      "velocity": 100,
      "chip": "ym2612"
    },
    {
      "channel": 1,
      "note": 105,
      "start": 2.0384,
      "duration": 0.0161,
      "velocity": 105,
      "chip": "ym2612"
    },
    {
      "channel": 0,
      "note": 46,
      "start": 2.0401,
      "duration": 0.0161,
      "velocity": 115,
      "chip": "ym2612"
    },
    {
      "channel": 2,
      "note": 66,
      "start": 2.0449,
      "duration": 0.0163,
      "velocity": 100,
      "chip": "ym2612"
    },
    {
      "channel": 1,
      "note": 105,
      "start": 2.0545,
      "duration": 0.0161,
      "velocity": 105,
      "chip": "ym2612"
    },
    {
      "channel": 0,
      "note": 47,
      "start": 2.0561,
      "duration": 0.0162,
      "velocity": 115,
      "chip": "ym2612"
    },
    {
      "channel": 2,
      "note": 66,
      "start": 2.0612,
      "duration": 0.0158,
      "velocity": 100,
      "chip": "ym2612"
    },
    {
      "channel": 1,
      "note": 105,
      "start": 2.0706,
      "duration": 0.0185,
      "velocity": 124,
      "chip": "ym2612"
    },
    {
      "channel": 0,
      "note": 47,
      "start": 2.0723,
      "duration": 0.0204,
      "velocity": 115,
      "chip": "ym2612"
    },
    {
      "channel": 2,
      "note": 66,
      "start": 2.077,
      "duration": 0.0218,
      "velocity": 100,
      "chip": "ym2612"
    },
    {
      "channel": 1,
      "note": 84,
      "start": 2.0892,
      "duration": 0.0143,
      "velocity": 124,
      "chip": "ym2612"
    },
    {
      "channel": 0,
      "note": 36,
      "start": 2.0927,
      "duration": 0.0125,
      "velocity": 115,
      "chip": "ym2612"
    },
    {
      "channel": 5,
      "note": 85,
      "start": 2.0943,
      "duration": 0.0122,
      "velocity": 101,
      "chip": "ym2612"
    },
    {
      "channel": 4,
      "note": 90,
      "start": 2.0958,
      "duration": 0.012,
      "velocity": 101,
      "chip": "ym2612"
    },
    {
      "channel": 3,
      "note": 94,
      "start": 2.0973,
      "duration": 0.0116,
      "velocity": 101,
      "chip": "ym2612"
    },
    {
      "channel": 2,
      "note": 54,
      "start": 2.0988,
      "duration": 0.0114,
      "velocity": 100,
      "chip": "ym2612"
    },
    {
      "channel": 1,
      "note": 82,
      "start": 2.1035,
      "duration": 0.0163,
      "velocity": 124,
      "chip": "ym2612"
    },
    {
      "channel": 0,
      "note": 36,
      "start": 2.1053,
      "duration": 0.0163,
      "velocity": 115,
      "chip": "ym2612"
    },
    {
      "channel": 5,
      "note": 85,
      "start": 2.1065,
      "duration": 0.0162,
      "velocity": 101,
      "chip": "ym2612"
    },
    {
      "channel": 4,
      "note": 90,
      "start": 2.1078,
      "duration": 0.0161,
      "velocity": 101,
      "chip": "ym2612"
    },
    {
      "channel": 3,
      "note": 94,
      "start": 2.109,
      "duration": 0.0161,
      "velocity": 101,
      "chip": "ym2612"
    },
    {
      "channel": 2,
      "note": 54,
      "start": 2.1102,
      "duration": 0.016,
      "velocity": 100,
      "chip": "ym2612"
    },
    {
      "channel": 1,
      "note": 80,
      "start": 2.1198,
      "duration": 0.0163,
      "velocity": 124,
      "chip": "ym2612"
    },
    {
      "channel": 0,
      "note": 37,
      "start": 2.1215,
      "duration": 0.0163,
      "velocity": 115,
      "chip": "ym2612"
    },
    {
      "channel": 5,
      "note": 85,
      "start": 2.1227,
      "duration": 0.0163,
      "velocity": 101,
      "chip": "ym2612"
    },
    {
      "channel": 4,
      "note": 90,
      "start": 2.1239,
      "duration": 0.0163,
      "velocity": 101,
      "chip": "ym2612"
    },
    {
      "channel": 3,
      "note": 94,
      "start": 2.1251,
      "duration": 0.0163,
      "velocity": 101,
      "chip": "ym2612"
    },
    {
      "channel": 2,
      "note": 54,
      "start": 2.1263,
      "duration": 0.0163,
      "velocity": 100,
      "chip": "ym2612"
    },
    {
      "channel": 1,
      "note": 77,
      "start": 2.1361,
      "duration": 0.0161,
      "velocity": 124,
      "chip": "ym2612"
    },
    {
      "channel": 0,
      "note": 37,
      "start": 2.1378,
      "duration": 0.0161,
      "velocity": 115,
      "chip": "ym2612"
    },
    {
      "channel": 5,
      "note": 85,
      "start": 2.139,
      "duration": 0.0161,
      "velocity": 101,
      "chip": "ym2612"
    },
    {
      "channel": 4,
      "note": 90,
      "start": 2.1402,
      "duration": 0.0161,
      "velocity": 101,
      "chip": "ym2612"
    },
    {
      "channel": 3,
      "note": 94,
      "start": 2.1414,
      "duration": 0.0161,
      "velocity": 101,
      "chip": "ym2612"
    },
    {
      "channel": 2,
      "note": 54,
      "start": 2.1425,
      "duration": 0.0161,
      "velocity": 100,
      "chip": "ym2612"
    },
    {
      "channel": 1,
      "note": 75,
      "start": 2.1522,
      "duration": 0.0161,
      "velocity": 124,
      "chip": "ym2612"
    },
    {
      "channel": 0,
      "note": 38,
      "start": 2.1539,
      "duration": 0.0161,
      "velocity": 115,
      "chip": "ym2612"
    },
    {
      "channel": 5,
      "note": 85,
      "start": 2.1551,
      "duration": 0.0161,
      "velocity": 101,
      "chip": "ym2612"
    },
    {
      "channel": 4,
      "note": 90,
      "start": 2.1563,
      "duration": 0.0161,
      "velocity": 101,
      "chip": "ym2612"
    },
    {
      "channel": 3,
      "note": 94,
      "start": 2.1575,
      "duration": 0.0161,
      "velocity": 101,
      "chip": "ym2612"
    },
    {
      "channel": 2,
      "note": 54,
      "start": 2.1586,
      "duration": 0.0161,
      "velocity": 100,
      "chip": "ym2612"
    },
    {
      "channel": 1,
      "note": 72,
      "start": 2.1683,
      "duration": 0.0158,
      "velocity": 124,
      "chip": "ym2612"
    },
    {
      "channel": 0,
      "note": 38,
      "start": 2.17,
      "duration": 0.0162,
      "velocity": 115,
      "chip": "ym2612"
    },
    {
      "channel": 5,
      "note": 85,
      "start": 2.1712,
      "duration": 0.0161,
      "velocity": 101,
      "chip": "ym2612"
    },
    {
      "channel": 4,
      "note": 90,
      "start": 2.1724,
      "duration": 0.0161,
      "velocity": 101,
      "chip": "ym2612"
    },
    {
      "channel": 3,
      "note": 94,
      "start": 2.1736,
      "duration": 0.0161,
      "velocity": 101,
      "chip": "ym2612"
    },
    {
      "channel": 2,
      "note": 54,
      "start": 2.1747,
      "duration": 0.0161,
      "velocity": 100,
      "chip": "ym2612"
    },
    {
      "channel": 1,
      "note": 70,
      "start": 2.1841,
      "duration": 0.0159,
      "velocity": 124,
      "chip": "ym2612"
    },
    {
      "channel": 0,
      "note": 39,
      "start": 2.1862,
      "duration": 0.016,
      "velocity": 115,
      "chip": "ym2612"
    },
    {
      "channel": 5,
      "note": 85,
      "start": 2.1873,
      "duration": 0.0161,
      "velocity": 101,
      "chip": "ym2612"
    },
    {
      "channel": 4,
      "note": 90,
      "start": 2.1885,
      "duration": 0.0161,
      "velocity": 101,
      "chip": "ym2612"
    },
    {
      "channel": 3,
      "note": 94,
      "start": 2.1897,
      "duration": 0.0161,
      "velocity": 101,
      "chip": "ym2612"
    },
    {
      "channel": 2,
      "note": 54,
      "start": 2.1908,
      "duration": 0.0161,
      "velocity": 100,
      "chip": "ym2612"
    },
    {
      "channel": 1,
      "note": 68,
      "start": 2.1999,
      "duration": 0.0161,
      "velocity": 124,
      "chip": "ym2612"
    },
    {
      "channel": 0,
      "note": 39,
      "start": 2.2022,
      "duration": 0.0161,
      "velocity": 115,
      "chip": "ym2612"
    },
    {
      "channel": 5,
      "note": 85,
      "start": 2.2034,
      "duration": 0.0161,
      "velocity": 101,
      "chip": "ym2612"
    },
    {
      "channel": 4,
      "note": 90,
      "start": 2.2046,
      "duration": 0.0161,
      "velocity": 101,
      "chip": "ym2612"
    },
    {
      "channel": 3,
      "note": 94,
      "start": 2.2058,
      "duration": 0.0161,
      "velocity": 101,
      "chip": "ym2612"
    },
    {
      "channel": 2,
      "note": 54,
      "start": 2.2069,
      "duration": 0.0162,
      "velocity": 100,
      "chip": "ym2612"
    },
    {
      "channel": 1,
      "note": 65,
      "start": 2.216,
      "duration": 0.0162,
      "velocity": 124,
      "chip": "ym2612"
    },
    {
      "channel": 0,
      "note": 40,
      "start": 2.2183,
      "duration": 0.0158,
      "velocity": 115,
      "chip": "ym2612"
    },
    {
      "channel": 5,
      "note": 85,
      "start": 2.2195,
      "duration": 0.0161,
      "velocity": 101,
      "chip": "ym2612"
    },
    {
      "channel": 4,
      "note": 90,
      "start": 2.2207,
      "duration": 0.0161,
      "velocity": 101,
      "chip": "ym2612"
    },
    {
      "channel": 3,
      "note": 94,
      "start": 2.2219,
      "duration": 0.0161,
      "velocity": 101,
      "chip": "ym2612"
    },
    {
      "channel": 2,
      "note": 54,
      "start": 2.2231,
      "duration": 0.0161,
      "velocity": 100,
      "chip": "ym2612"
    },
    {
      "channel": 1,
      "note": 63,
      "start": 2.2322,
      "duration": 0.0153,
      "velocity": 1,
      "chip": "ym2612"
    },
    {
      "channel": 0,
      "note": 40,
      "start": 2.2341,
      "duration": 0.0151,
      "velocity": 115,
      "chip": "ym2612"
    },
    {
      "channel": 5,
      "note": 85,
      "start": 2.2356,
      "duration": 0.0147,
      "velocity": 101,
      "chip": "ym2612"
    },
    {
      "channel": 4,
      "note": 90,
      "start": 2.2368,
      "duration": 0.0153,
      "velocity": 101,
      "chip": "ym2612"
    },
    {
      "channel": 3,
      "note": 94,
      "start": 2.238,
      "duration": 0.0153,
      "velocity": 101,
      "chip": "ym2612"
    },
    {
      "channel": 2,
      "note": 54,
      "start": 2.2392,
      "duration": 0.0153,
      "velocity": 100,
      "chip": "ym2612"
    },
    {
      "channel": 0,
      "note": 40,
      "start": 2.2492,
      "duration": 0.0152,
      "velocity": 115,
      "chip": "ym2612"
    },
    {
      "channel": 5,
      "note": 85,
      "start": 2.2503,
      "duration": 0.0153,
      "velocity": 101,
      "chip": "ym2612"
    },
    {
      "channel": 4,
      "note": 90,
      "start": 2.2521,
      "duration": 0.0147,
      "velocity": 101,
      "chip": "ym2612"
    },
    {
      "channel": 3,
      "note": 94,
      "start": 2.2533,
      "duration": 0.0152,
      "velocity": 101,
      "chip": "ym2612"
    },
    {
      "channel": 2,
      "note": 54,
      "start": 2.2544,
      "duration": 0.0153,
      "velocity": 100,
      "chip": "ym2612"
    },
    {
      "channel": 0,
      "note": 41,
      "start": 2.2644,
      "duration": 0.0161,
      "velocity": 115,
      "chip": "ym2612"
    },
    {
      "channel": 5,
      "note": 85,
      "start": 2.2656,
      "duration": 0.0161,
      "velocity": 101,
      "chip": "ym2612"
    },
    {
      "channel": 4,
      "note": 90,
      "start": 2.2668,
      "duration": 0.0161,
      "velocity": 101,
      "chip": "ym2612"
    },
    {
      "channel": 3,
      "note": 94,
      "start": 2.2685,
      "duration": 0.0157,
      "velocity": 101,
      "chip": "ym2612"
    },
    {
      "channel": 2,
      "note": 54,
      "start": 2.2697,
      "duration": 0.0161,
      "velocity": 100,
      "chip": "ym2612"
    },
    {
      "channel": 0,
      "note": 41,
      "start": 2.2805,
      "duration": 0.019,
      "velocity": 115,
      "chip": "ym2612"
    },
    {
      "channel": 5,
      "note": 85,
      "start": 2.2817,
      "duration": 0.0192,
      "velocity": 101,
      "chip": "ym2612"
    },
    {
      "channel": 4,
      "note": 90,
      "start": 2.2829,
      "duration": 0.0196,
      "velocity": 101,
      "chip": "ym2612"
    },
    {
      "channel": 3,
      "note": 94,
      "start": 2.2842,
      "duration": 0.0195,
      "velocity": 101,
      "chip": "ym2612"
    },
    {
      "channel": 2,
      "note": 54,
      "start": 2.2858,
      "duration": 0.0193,
      "velocity": 100,
      "chip": "ym2612"
    },
    {
      "channel": 1,
      "note": 105,
      "start": 2.2978,
      "duration": 0.0144,
      "velocity": 105,
      "chip": "ym2612"
    },
    {
      "channel": 0,
      "note": 42,
      "start": 2.2995,
      "duration": 0.0144,
      "velocity": 115,
      "chip": "ym2612"
    },
    {
      "channel": 5,
      "note": 85,
      "start": 2.3009,
      "duration": 0.0142,
      "velocity": 101,
      "chip": "ym2612"
    },
    {
      "channel": 4,
      "note": 90,
      "start": 2.3025,
      "duration": 0.0138,
      "velocity": 101,
      "chip": "ym2612"
    },
    {
      "channel": 3,
      "note": 94,
      "start": 2.3037,
      "duration": 0.0143,
      "velocity": 101,
      "chip": "ym2612"
    },
    {
      "channel": 2,
      "note": 66,
      "start": 2.3052,
      "duration": 0.0141,
      "velocity": 100,
      "chip": "ym2612"
    },
    {
      "channel": 1,
      "note": 105,
      "start": 2.3121,
      "duration": 0.016,
      "velocity": 105,
      "chip": "ym2612"
    },
    {
      "channel": 0,
      "note": 42,
      "start": 2.3139,
      "duration": 0.016,
      "velocity": 115,
      "chip": "ym2612"
    },
    {
      "channel": 5,
      "note": 85,
      "start": 2.3151,
      "duration": 0.016,
      "velocity": 101,
      "chip": "ym2612"
    },
    {
      "channel": 4,
      "note": 90,
      "start": 2.3163,
      "duration": 0.016,
      "velocity": 101,
      "chip": "ym2612"
    },
    {
      "channel": 3,
      "note": 94,
      "start": 2.318,
      "duration": 0.0155,
      "velocity": 101,
      "chip": "ym2612"
    },
    {
      "channel": 2,
      "note": 66,
      "start": 2.3193,
      "duration": 0.016,
      "velocity": 100,
      "chip": "ym2612"
    },
    {
      "channel": 1,
      "note": 105,
      "start": 2.3282,
      "duration": 0.0162,
      "velocity": 105,
      "chip": "ym2612"
    },
    {
      "channel": 0,
      "note": 43,
      "start": 2.3299,
      "duration": 0.0161,
      "velocity": 115,
      "chip": "ym2612"
    },
    {
      "channel": 5,
      "note": 85,
      "start": 2.3311,
      "duration": 0.0162,
      "velocity": 101,
      "chip": "ym2612"
    },
    {
      "channel": 4,
      "note": 90,
      "start": 2.3323,
      "duration": 0.0163,
      "velocity": 101,
      "chip": "ym2612"
    },
    {
      "channel": 3,
      "note": 94,
      "start": 2.3335,
      "duration": 0.0163,
      "velocity": 101,
      "chip": "ym2612"
    },
    {
      "channel": 2,
      "note": 66,
      "start": 2.3352,
      "duration": 0.0163,
      "velocity": 100,
      "chip": "ym2612"
    },
    {
      "channel": 1,
      "note": 105,
      "start": 2.3443,
      "duration": 0.0161,
      "velocity": 105,
      "chip": "ym2612"
    },
    {
      "channel": 0,
      "note": 43,
      "start": 2.346,
      "duration": 0.0161,
      "velocity": 115,
      "chip": "ym2612"
    },
    {
      "channel": 5,
      "note": 85,
      "start": 2.3473,
      "duration": 0.016,
      "velocity": 101,
      "chip": "ym2612"
    },
    {
      "channel": 4,
      "note": 90,
      "start": 2.3486,
      "duration": 0.016,
      "velocity": 101,
      "chip": "ym2612"
    },
    {
      "channel": 3,
      "note": 94,
      "start": 2.3499,
      "duration": 0.016,
      "velocity": 101,
      "chip": "ym2612"
    },
    {
      "channel": 2,
      "note": 66,
      "start": 2.3515,
      "duration": 0.0154,
      "velocity": 100,
      "chip": "ym2612"
    },
    {
      "channel": 1,
      "note": 105,
      "start": 2.3604,
      "duration": 0.0161,
      "velocity": 105,
      "chip": "ym2612"
    },
    {
      "channel": 0,
      "note": 44,
      "start": 2.3621,
      "duration": 0.0161,
      "velocity": 115,
      "chip": "ym2612"
    },
    {
      "channel": 5,
      "note": 85,
      "start": 2.3633,
      "duration": 0.0161,
      "velocity": 101,
      "chip": "ym2612"
    },
    {
      "channel": 4,
      "note": 90,
      "start": 2.3646,
      "duration": 0.0161,
      "velocity": 101,
      "chip": "ym2612"
    },
    {
      "channel": 3,
      "note": 94,
      "start": 2.3658,
      "duration": 0.0161,
      "velocity": 101,
      "chip": "ym2612"
    },
    {
      "channel": 2,
      "note": 66,
      "start": 2.367,
      "duration": 0.0161,
      "velocity": 100,
      "chip": "ym2612"
    },
    {
      "channel": 1,
      "note": 105,
      "start": 2.3765,
      "duration": 0.0161,
      "velocity": 105,
      "chip": "ym2612"
    },
    {
      "channel": 0,
      "note": 44,
      "start": 2.3782,
      "duration": 0.0161,
      "velocity": 115,
      "chip": "ym2612"
    },
    {
      "channel": 5,
      "note": 85,
      "start": 2.3794,
      "duration": 0.0161,
      "velocity": 101,
      "chip": "ym2612"
    },
    {
      "channel": 4,
      "note": 90,
      "start": 2.3807,
      "duration": 0.0161,
      "velocity": 101,
      "chip": "ym2612"
    },
    {
      "channel": 3,
      "note": 94,
      "start": 2.3819,
      "duration": 0.0161,
      "velocity": 101,
      "chip": "ym2612"
    },
    {
      "channel": 2,
      "note": 66,
      "start": 2.3831,
      "duration": 0.0162,
      "velocity": 100,
      "chip": "ym2612"
    },
    {
      "channel": 1,
      "note": 105,
      "start": 2.3926,
      "duration": 0.0161,
      "velocity": 105,
      "chip": "ym2612"
    },
    {
      "channel": 0,
      "note": 44,
      "start": 2.3943,
      "duration": 0.0161,
      "velocity": 115,
      "chip": "ym2612"
    },
    {
      "channel": 5,
      "note": 85,
      "start": 2.3955,
      "duration": 0.0162,
      "velocity": 101,
      "chip": "ym2612"
    },
    {
      "channel": 4,
      "note": 90,
      "start": 2.3968,
      "duration": 0.0162,
      "velocity": 101,
      "chip": "ym2612"
    },
    {
      "channel": 3,
      "note": 94,
      "start": 2.3981,
      "duration": 0.0162,
      "velocity": 101,
      "chip": "ym2612"
    },
    {
      "channel": 2,
      "note": 66,
      "start": 2.3993,
      "duration": 0.0162,
      "velocity": 100,
      "chip": "ym2612"
    },
    {
      "channel": 1,
      "note": 105,
      "start": 2.4087,
      "duration": 0.0161,
      "velocity": 105,
      "chip": "ym2612"
    },
    {
      "channel": 0,
      "note": 45,
      "start": 2.4104,
      "duration": 0.0161,
      "velocity": 115,
      "chip": "ym2612"
    },
    {
      "channel": 5,
      "note": 85,
      "start": 2.4117,
      "duration": 0.016,
      "velocity": 101,
      "chip": "ym2612"
    },
    {
      "channel": 4,
      "note": 90,
      "start": 2.413,
      "duration": 0.016,
      "velocity": 101,
      "chip": "ym2612"
    },
    {
      "channel": 3,
      "note": 94,
      "start": 2.4142,
      "duration": 0.016,
      "velocity": 101,
      "chip": "ym2612"
    },
    {
      "channel": 2,
      "note": 66,
      "start": 2.4154,
      "duration": 0.016,
      "velocity": 100,
      "chip": "ym2612"
    },
    {
      "channel": 1,
      "note": 105,
      "start": 2.4248,
      "duration": 0.0161,
      "velocity": 105,
      "chip": "ym2612"
    },
    {
      "channel": 0,
      "note": 45,
      "start": 2.4265,
      "duration": 0.0161,
      "velocity": 115,
      "chip": "ym2612"
    },
    {
      "channel": 5,
      "note": 85,
      "start": 2.4277,
      "duration": 0.0161,
      "velocity": 101,
      "chip": "ym2612"
    },
    {
      "channel": 4,
      "note": 90,
      "start": 2.4289,
      "duration": 0.0161,
      "velocity": 101,
      "chip": "ym2612"
    },
    {
      "channel": 3,
      "note": 94,
      "start": 2.4302,
      "duration": 0.016,
      "velocity": 101,
      "chip": "ym2612"
    },
    {
      "channel": 2,
      "note": 66,
      "start": 2.4314,
      "duration": 0.016,
      "velocity": 100,
      "chip": "ym2612"
    },
    {
      "channel": 1,
      "note": 105,
      "start": 2.4409,
      "duration": 0.0161,
      "velocity": 105,
      "chip": "ym2612"
    },
    {
      "channel": 0,
      "note": 46,
      "start": 2.4426,
      "duration": 0.0161,
      "velocity": 115,
      "chip": "ym2612"
    },
    {
      "channel": 2,
      "note": 66,
      "start": 2.4474,
      "duration": 0.0161,
      "velocity": 100,
      "chip": "ym2612"
    },
    {
      "channel": 1,
      "note": 105,
      "start": 2.457,
      "duration": 0.0161,
      "velocity": 105,
      "chip": "ym2612"
    },
    {
      "channel": 0,
      "note": 46,
      "start": 2.4587,
      "duration": 0.0161,
      "velocity": 115,
      "chip": "ym2612"
    },
    {
      "channel": 2,
      "note": 66,
      "start": 2.4635,
      "duration": 0.0162,
      "velocity": 100,
      "chip": "ym2612"
    },
    {
      "channel": 1,
      "note": 105,
      "start": 2.4731,
      "duration": 0.0161,
      "velocity": 105,
      "chip": "ym2612"
    },
    {
      "channel": 0,
      "note": 47,
      "start": 2.4748,
      "duration": 0.0161,
      "velocity": 115,
      "chip": "ym2612"
    },
    {
      "channel": 2,
      "note": 66,
      "start": 2.4797,
      "duration": 0.016,
      "velocity": 100,
      "chip": "ym2612"
    },
    {
      "channel": 1,
      "note": 105,
      "start": 2.4892,
      "duration": 0.0178,
      "velocity": 124,
      "chip": "ym2612"
    },
    {
      "channel": 0,
      "note": 47,
      "start": 2.4909,
      "duration": 0.0197,
      "velocity": 115,
      "chip": "ym2612"
    },
    {
      "channel": 2,
      "note": 66,
      "start": 2.4957,
      "duration": 0.021,
      "velocity": 100,
      "chip": "ym2612"
    },
    {
      "channel": 1,
      "note": 64,
      "start": 2.5071,
      "duration": 0.0144,
      "velocity": 124,
      "chip": "ym2612"
    },
    {
      "channel": 0,
      "note": 36,
      "start": 2.5107,
      "duration": 0.0126,
      "velocity": 115,
      "chip": "ym2612"
    },
    {
      "channel": 5,
      "note": 82,
      "start": 2.5122,
      "duration": 0.0123,
      "velocity": 101,
      "chip": "ym2612"
    },
    {
      "channel": 4,
      "note": 88,
      "start": 2.5137,
      "duration": 0.012,
      "velocity": 101,
      "chip": "ym2612"
    },
    {
      "channel": 3,
      "note": 90,
      "start": 2.5153,
      "duration": 0.0118,
      "velocity": 101,
      "chip": "ym2612"
    },
    {
      "channel": 2,
      "note": 54,
      "start": 2.5167,
      "duration": 0.0115,
      "velocity": 100,
      "chip": "ym2612"
    },
    {
      "channel": 1,
      "note": 64,
      "start": 2.5215,
      "duration": 0.016,
      "velocity": 124,
      "chip": "ym2612"
    },
    {
      "channel": 0,
      "note": 36,
      "start": 2.5233,
      "duration": 0.016,
      "velocity": 115,
      "chip": "ym2612"
    },
    {
      "channel": 5,
      "note": 82,
      "start": 2.5245,
      "duration": 0.016,
      "velocity": 101,
      "chip": "ym2612"
    },
    {
      "channel": 4,
      "note": 88,
      "start": 2.5257,
      "duration": 0.0159,
      "velocity": 101,
      "chip": "ym2612"
    },
    {
      "channel": 3,
      "note": 90,
      "start": 2.527,
      "duration": 0.0158,
      "velocity": 101,
      "chip": "ym2612"
    },
    {
      "channel": 2,
      "note": 54,
      "start": 2.5282,
      "duration": 0.0157,
      "velocity": 100,
      "chip": "ym2612"
    },
    {
      "channel": 1,
      "note": 64,
      "start": 2.5375,
      "duration": 0.0185,
      "velocity": 127,
      "chip": "ym2612"
    },
    {
      "channel": 0,
      "note": 37,
      "start": 2.5392,
      "duration": 0.0185,
      "velocity": 115,
      "chip": "ym2612"
    },
    {
      "channel": 5,
      "note": 82,
      "start": 2.5405,
      "duration": 0.0184,
      "velocity": 101,
      "chip": "ym2612"
    },
    {
      "channel": 4,
      "note": 88,
      "start": 2.5416,
      "duration": 0.0185,
      "velocity": 101,
      "chip": "ym2612"
    },
    {
      "channel": 3,
      "note": 90,
      "start": 2.5428,
      "duration": 0.0185,
      "velocity": 101,
      "chip": "ym2612"
    },
    {
      "channel": 2,
      "note": 54,
      "start": 2.5439,
      "duration": 0.0185,
      "velocity": 100,
      "chip": "ym2612"
    },
    {
      "channel": 1,
      "note": 88,
      "start": 2.556,
      "duration": 0.0144,
      "velocity": 127,
      "chip": "ym2612"
    },
    {
      "channel": 0,
      "note": 37,
      "start": 2.5578,
      "duration": 0.0143,
      "velocity": 115,
      "chip": "ym2612"
    },
    {
      "channel": 5,
      "note": 82,
      "start": 2.5589,
      "duration": 0.0144,
      "velocity": 101,
      "chip": "ym2612"
    },
    {
      "channel": 4,
      "note": 88,
      "start": 2.5601,
      "duration": 0.0144,
      "velocity": 101,
      "chip": "ym2612"
    },
    {
      "channel": 3,
      "note": 90,
      "start": 2.5613,
      "duration": 0.0143,
      "velocity": 101,
      "chip": "ym2612"
    },
    {
      "channel": 2,
      "note": 54,
      "start": 2.5624,
      "duration": 0.0143,
      "velocity": 100,
      "chip": "ym2612"
    },
    {
      "channel": 1,
      "note": 86,
      "start": 2.5704,
      "duration": 0.0163,
      "velocity": 127,
      "chip": "ym2612"
    },
    {
      "channel": 0,
      "note": 38,
      "start": 2.5721,
      "duration": 0.0163,
      "velocity": 115,
      "chip": "ym2612"
    },
    {
      "channel": 5,
      "note": 82,
      "start": 2.5733,
      "duration": 0.0163,
      "velocity": 101,
      "chip": "ym2612"
    },
    {
      "channel": 4,
      "note": 88,
      "start": 2.5745,
      "duration": 0.0163,
      "velocity": 101,
      "chip": "ym2612"
    },
    {
      "channel": 3,
      "note": 90,
      "start": 2.5756,
      "duration": 0.0163,
      "velocity": 101,
      "chip": "ym2612"
    },
    {
      "channel": 2,
      "note": 54,
      "start": 2.5768,
      "duration": 0.0163,
      "velocity": 100,
      "chip": "ym2612"
    },
    {
      "channel": 1,
      "note": 85,
      "start": 2.5868,
      "duration": 0.0181,
      "velocity": 127,
      "chip": "ym2612"
    },
    {
      "channel": 0,
      "note": 38,
      "start": 2.5884,
      "duration": 0.0183,
      "velocity": 115,
      "chip": "ym2612"
    },
    {
      "channel": 5,
      "note": 82,
      "start": 2.5896,
      "duration": 0.0182,
      "velocity": 101,
      "chip": "ym2612"
    },
    {
      "channel": 4,
      "note": 88,
      "start": 2.5908,
      "duration": 0.0182,
      "velocity": 101,
      "chip": "ym2612"
    },
    {
      "channel": 3,
      "note": 90,
      "start": 2.592,
      "duration": 0.0183,
      "velocity": 101,
      "chip": "ym2612"
    },
    {
      "channel": 2,
      "note": 54,
      "start": 2.5931,
      "duration": 0.0183,
      "velocity": 100,
      "chip": "ym2612"
    },
    {
      "channel": 1,
      "note": 88,
      "start": 2.6049,
      "duration": 0.0143,
      "velocity": 127,
      "chip": "ym2612"
    },
    {
      "channel": 0,
      "note": 39,
      "start": 2.6067,
      "duration": 0.0142,
      "velocity": 115,
      "chip": "ym2612"
    },
    {
      "channel": 5,
      "note": 82,
      "start": 2.6078,
      "duration": 0.0143,
      "velocity": 101,
      "chip": "ym2612"
    },
    {
      "channel": 4,
      "note": 88,
      "start": 2.609,
      "duration": 0.0142,
      "velocity": 101,
      "chip": "ym2612"
    },
    {
      "channel": 3,
      "note": 90,
      "start": 2.6102,
      "duration": 0.0142,
      "velocity": 101,
      "chip": "ym2612"
    },
    {
      "channel": 2,
      "note": 54,
      "start": 2.6114,
      "duration": 0.0143,
      "velocity": 100,
      "chip": "ym2612"
    },
    {
      "channel": 1,
      "note": 86,
      "start": 2.6192,
      "duration": 0.016,
      "velocity": 127,
      "chip": "ym2612"
    },
    {
      "channel": 0,
      "note": 39,
      "start": 2.6209,
      "duration": 0.016,
      "velocity": 115,
      "chip": "ym2612"
    },
    {
      "channel": 5,
      "note": 82,
      "start": 2.6221,
      "duration": 0.016,
      "velocity": 101,
      "chip": "ym2612"
    },
    {
      "channel": 4,
      "note": 88,
      "start": 2.6233,
      "duration": 0.0161,
      "velocity": 101,
      "chip": "ym2612"
    },
    {
      "channel": 3,
      "note": 90,
      "start": 2.6245,
      "duration": 0.016,
      "velocity": 101,
      "chip": "ym2612"
    },
    {
      "channel": 2,
      "note": 54,
      "start": 2.6256,
      "duration": 0.016,
      "velocity": 100,
      "chip": "ym2612"
    },
    {
      "channel": 1,
      "note": 85,
      "start": 2.6352,
      "duration": 0.018,
      "velocity": 127,
      "chip": "ym2612"
    },
    {
      "channel": 0,
      "note": 40,
      "start": 2.6369,
      "duration": 0.018,
      "velocity": 115,
      "chip": "ym2612"
    },
    {
      "channel": 5,
      "note": 82,
      "start": 2.6382,
      "duration": 0.0179,
      "velocity": 101,
      "chip": "ym2612"
    },
    {
      "channel": 4,
      "note": 88,
      "start": 2.6394,
      "duration": 0.0179,
      "velocity": 101,
      "chip": "ym2612"
    },
    {
      "channel": 3,
      "note": 90,
      "start": 2.6405,
      "duration": 0.018,
      "velocity": 101,
      "chip": "ym2612"
    },
    {
      "channel": 2,
      "note": 54,
      "start": 2.6417,
      "duration": 0.018,
      "velocity": 100,
      "chip": "ym2612"
    },
    {
      "channel": 1,
      "note": 88,
      "start": 2.6532,
      "duration": 0.0137,
      "velocity": 127,
      "chip": "ym2612"
    },
    {
      "channel": 0,
      "note": 40,
      "start": 2.6549,
      "duration": 0.0143,
      "velocity": 115,
      "chip": "ym2612"
    },
    {
      "channel": 5,
      "note": 82,
      "start": 2.6561,
      "duration": 0.0143,
      "velocity": 101,
      "chip": "ym2612"
    },
    {
      "channel": 4,
      "note": 88,
      "start": 2.6573,
      "duration": 0.0143,
      "velocity": 101,
      "chip": "ym2612"
    },
    {
      "channel": 3,
      "note": 90,
      "start": 2.6585,
      "duration": 0.0143,
      "velocity": 101,
      "chip": "ym2612"
    },
    {
      "channel": 2,
      "note": 54,
      "start": 2.6597,
      "duration": 0.0142,
      "velocity": 100,
      "chip": "ym2612"
    },
    {
      "channel": 1,
      "note": 86,
      "start": 2.6669,
      "duration": 0.016,
      "velocity": 127,
      "chip": "ym2612"
    },
    {
      "channel": 0,
      "note": 40,
      "start": 2.6693,
      "duration": 0.016,
      "velocity": 115,
      "chip": "ym2612"
    },
    {
      "channel": 5,
      "note": 82,
      "start": 2.6704,
      "duration": 0.016,
      "velocity": 101,
      "chip": "ym2612"
    },
    {
      "channel": 4,
      "note": 88,
      "start": 2.6716,
      "duration": 0.016,
      "velocity": 101,
      "chip": "ym2612"
    },
    {
      "channel": 3,
      "note": 90,
      "start": 2.6728,
      "duration": 0.0161,
      "velocity": 101,
      "chip": "ym2612"
    },
    {
      "channel": 2,
      "note": 54,
      "start": 2.6739,
      "duration": 0.0161,
      "velocity": 100,
      "chip": "ym2612"
    },
    {
      "channel": 1,
      "note": 85,
      "start": 2.6829,
      "duration": 0.0161,
      "velocity": 127,
      "chip": "ym2612"
    },
    {
      "channel": 0,
      "note": 41,
      "start": 2.6852,
      "duration": 0.0158,
      "velocity": 115,
      "chip": "ym2612"
    },
    {
      "channel": 5,
      "note": 82,
      "start": 2.6864,
      "duration": 0.0161,
      "velocity": 101,
      "chip": "ym2612"
    },
    {
      "channel": 4,
      "note": 88,
      "start": 2.6876,
      "duration": 0.0161,
      "velocity": 101,
      "chip": "ym2612"
    },
    {
      "channel": 3,
      "note": 90,
      "start": 2.6888,
      "duration": 0.0161,
      "velocity": 101,
      "chip": "ym2612"
    },
    {
      "channel": 2,
      "note": 54,
      "start": 2.69,
      "duration": 0.0161,
      "velocity": 100,
      "chip": "ym2612"
    },
    {
      "channel": 1,
      "note": 83,
      "start": 2.6991,
      "duration": 0.0179,
      "velocity": 127,
      "chip": "ym2612"
    },
    {
      "channel": 0,
      "note": 41,
      "start": 2.701,
      "duration": 0.0183,
      "velocity": 115,
      "chip": "ym2612"
    },
    {
      "channel": 5,
      "note": 82,
      "start": 2.7025,
      "duration": 0.018,
      "velocity": 101,
      "chip": "ym2612"
    },
    {
      "channel": 4,
      "note": 88,
      "start": 2.7037,
      "duration": 0.018,
      "velocity": 101,
      "chip": "ym2612"
    },
    {
      "channel": 3,
      "note": 90,
      "start": 2.7049,
      "duration": 0.018,
      "velocity": 101,
      "chip": "ym2612"
    },
    {
      "channel": 2,
      "note": 54,
      "start": 2.7061,
      "duration": 0.0183,
      "velocity": 100,
      "chip": "ym2612"
    },
    {
      "channel": 1,
      "note": 88,
      "start": 2.717,
      "duration": 0.0143,
      "velocity": 127,
      "chip": "ym2612"
    },
    {
      "channel": 0,
      "note": 42,
      "start": 2.7193,
      "duration": 0.0137,
      "velocity": 115,
      "chip": "ym2612"
    },
    {
      "channel": 5,
      "note": 82,
      "start": 2.7205,
      "duration": 0.0143,
      "velocity": 101,
      "chip": "ym2612"
    },
    {
      "channel": 4,
      "note": 88,
      "start": 2.7217,
      "duration": 0.0143,
      "velocity": 101,
      "chip": "ym2612"
    },
    {
      "channel": 3,
      "note": 90,
      "start": 2.7229,
      "duration": 0.0143,
      "velocity": 101,
      "chip": "ym2612"
    },
    {
      "channel": 2,
      "note": 61,
      "start": 2.7244,
      "duration": 0.0141,
      "velocity": 100,
      "chip": "ym2612"
    },
    {
      "channel": 1,
      "note": 86,
      "start": 2.7313,
      "duration": 0.016,
      "velocity": 127,
      "chip": "ym2612"
    },
    {
      "channel": 0,
      "note": 42,
      "start": 2.733,
      "duration": 0.0161,
      "velocity": 115,
      "chip": "ym2612"
    },
    {
      "channel": 5,
      "note": 82,
      "start": 2.7348,
      "duration": 0.0155,
      "velocity": 101,
      "chip": "ym2612"
    },
    {
      "channel": 4,
      "note": 88,
      "start": 2.7361,
      "duration": 0.016,
      "velocity": 101,
      "chip": "ym2612"
    },
    {
      "channel": 3,
      "note": 90,
      "start": 2.7373,
      "duration": 0.016,
      "velocity": 101,
      "chip": "ym2612"
    },
    {
      "channel": 2,
      "note": 61,
      "start": 2.7385,
      "duration": 0.016,
      "velocity": 100,
      "chip": "ym2612"
    },
    {
      "channel": 1,
      "note": 85,
      "start": 2.7474,
      "duration": 0.0161,
      "velocity": 127,
      "chip": "ym2612"
    },
    {
      "channel": 0,
      "note": 43,
      "start": 2.7491,
      "duration": 0.0161,
      "velocity": 115,
      "chip": "ym2612"
    },
    {
      "channel": 5,
      "note": 82,
      "start": 2.7503,
      "duration": 0.0161,
      "velocity": 101,
      "chip": "ym2612"
    },
    {
      "channel": 4,
      "note": 88,
      "start": 2.7521,
      "duration": 0.016,
      "velocity": 101,
      "chip": "ym2612"
    },
    {
      "channel": 3,
      "note": 90,
      "start": 2.7533,
      "duration": 0.0161,
      "velocity": 101,
      "chip": "ym2612"
    },
    {
      "channel": 2,
      "note": 61,
      "start": 2.7544,
      "duration": 0.0161,
      "velocity": 100,
      "chip": "ym2612"
    },
    {
      "channel": 1,
      "note": 83,
      "start": 2.7635,
      "duration": 0.0161,
      "velocity": 127,
      "chip": "ym2612"
    },
    {
      "channel": 0,
      "note": 43,
      "start": 2.7652,
      "duration": 0.0161,
      "velocity": 115,
      "chip": "ym2612"
    },
    {
      "channel": 5,
      "note": 82,
      "start": 2.7664,
      "duration": 0.0161,
      "velocity": 101,
      "chip": "ym2612"
    },
    {
      "channel": 4,
      "note": 88,
      "start": 2.7681,
      "duration": 0.0156,
      "velocity": 101,
      "chip": "ym2612"
    },
    {
      "channel": 3,
      "note": 90,
      "start": 2.7694,
      "duration": 0.0161,
      "velocity": 101,
      "chip": "ym2612"
    },
    {
      "channel": 2,
      "note": 61,
      "start": 2.7705,
      "duration": 0.0162,
      "velocity": 100,
      "chip": "ym2612"
    },
    {
      "channel": 1,
      "note": 81,
      "start": 2.7796,
      "duration": 0.0161,
      "velocity": 127,
      "chip": "ym2612"
    },
    {
      "channel": 0,
      "note": 44,
      "start": 2.7813,
      "duration": 0.0161,
      "velocity": 115,
      "chip": "ym2612"
    },
    {
      "channel": 5,
      "note": 82,
      "start": 2.7825,
      "duration": 0.0161,
      "velocity": 101,
      "chip": "ym2612"
    },
    {
      "channel": 4,
      "note": 88,
      "start": 2.7837,
      "duration": 0.0161,
      "velocity": 101,
      "chip": "ym2612"
    },
    {
      "channel": 3,
      "note": 90,
      "start": 2.7855,
      "duration": 0.0161,
      "velocity": 101,
      "chip": "ym2612"
    },
    {
      "channel": 2,
      "note": 61,
      "start": 2.7867,
      "duration": 0.0161,
      "velocity": 100,
      "chip": "ym2612"
    },
    {
      "channel": 1,
      "note": 80,
      "start": 2.7957,
      "duration": 0.0179,
      "velocity": 127,
      "chip": "ym2612"
    },
    {
      "channel": 0,
      "note": 44,
      "start": 2.7974,
      "duration": 0.018,
      "velocity": 115,
      "chip": "ym2612"
    },
    {
      "channel": 5,
      "note": 82,
      "start": 2.7986,
      "duration": 0.018,
      "velocity": 101,
      "chip": "ym2612"
    },
    {
      "channel": 4,
      "note": 88,
      "start": 2.7998,
      "duration": 0.0185,
      "velocity": 101,
      "chip": "ym2612"
    },
    {
      "channel": 3,
      "note": 90,
      "start": 2.8016,
      "duration": 0.018,
      "velocity": 101,
      "chip": "ym2612"
    },
    {
      "channel": 2,
      "note": 61,
      "start": 2.8028,
      "duration": 0.0182,
      "velocity": 100,
      "chip": "ym2612"
    },
    {
      "channel": 1,
      "note": 88,
      "start": 2.8137,
      "duration": 0.0143,
      "velocity": 127,
      "chip": "ym2612"
    },
    {
      "channel": 0,
      "note": 44,
      "start": 2.8154,
      "duration": 0.0143,
      "velocity": 115,
      "chip": "ym2612"
    },
    {
      "channel": 5,
      "note": 82,
      "start": 2.8166,
      "duration": 0.0142,
      "velocity": 101,
      "chip": "ym2612"
    },
    {
      "channel": 4,
      "note": 88,
      "start": 2.8183,
      "duration": 0.0137,
      "velocity": 101,
      "chip": "ym2612"
    },
    {
      "channel": 3,
      "note": 90,
      "start": 2.8196,
      "duration": 0.0137,
      "velocity": 101,
      "chip": "ym2612"
    },
    {
      "channel": 2,
      "note": 66,
      "start": 2.821,
      "duration": 0.0139,
      "velocity": 100,
      "chip": "ym2612"
    },
    {
      "channel": 1,
      "note": 86,
      "start": 2.8279,
      "duration": 0.0161,
      "velocity": 127,
      "chip": "ym2612"
    },
    {
      "channel": 0,
      "note": 45,
      "start": 2.8296,
      "duration": 0.016,
      "velocity": 115,
      "chip": "ym2612"
    },
    {
      "channel": 5,
      "note": 82,
      "start": 2.8308,
      "duration": 0.0161,
      "velocity": 101,
      "chip": "ym2612"
    },
    {
      "channel": 4,
      "note": 88,
      "start": 2.832,
      "duration": 0.0161,
      "velocity": 101,
      "chip": "ym2612"
    },
    {
      "channel": 3,
      "note": 90,
      "start": 2.8333,
      "duration": 0.0161,
      "velocity": 101,
      "chip": "ym2612"
    },
    {
      "channel": 2,
      "note": 66,
      "start": 2.835,
      "duration": 0.0158,
      "velocity": 100,
      "chip": "ym2612"
    },
    {
      "channel": 1,
      "note": 85,
      "start": 2.844,
      "duration": 0.0161,
      "velocity": 127,
      "chip": "ym2612"
    },
    {
      "channel": 0,
      "note": 45,
      "start": 2.8457,
      "duration": 0.0161,
      "velocity": 115,
      "chip": "ym2612"
    },
    {
      "channel": 5,
      "note": 82,
      "start": 2.8469,
      "duration": 0.016,
      "velocity": 101,
      "chip": "ym2612"
    },
    {
      "channel": 4,
      "note": 88,
      "start": 2.8481,
      "duration": 0.016,
      "velocity": 101,
      "chip": "ym2612"
    },
    {
      "channel": 3,
      "note": 90,
      "start": 2.8493,
      "duration": 0.016,
      "velocity": 101,
      "chip": "ym2612"
    },
    {
      "channel": 2,
      "note": 66,
      "start": 2.8507,
      "duration": 0.0159,
      "velocity": 100,
      "chip": "ym2612"
    },
    {
      "channel": 1,
      "note": 83,
      "start": 2.8601,
      "duration": 0.0161,
      "velocity": 127,
      "chip": "ym2612"
    },
    {
      "channel": 0,
      "note": 46,
      "start": 2.8617,
      "duration": 0.0162,
      "velocity": 115,
      "chip": "ym2612"
    },
    {
      "channel": 5,
      "note": 82,
      "start": 2.863,
      "duration": 0.0161,
      "velocity": 101,
      "chip": "ym2612"
    },
    {
      "channel": 4,
      "note": 88,
      "start": 2.8642,
      "duration": 0.0161,
      "velocity": 101,
      "chip": "ym2612"
    },
    {
      "channel": 3,
      "note": 90,
      "start": 2.8654,
      "duration": 0.0161,
      "velocity": 101,
      "chip": "ym2612"
    },
    {
      "channel": 2,
      "note": 66,
      "start": 2.8666,
      "duration": 0.0161,
      "velocity": 100,
      "chip": "ym2612"
    },
    {
      "channel": 1,
      "note": 81,
      "start": 2.8762,
      "duration": 0.0161,
      "velocity": 127,
      "chip": "ym2612"
    },
    {
      "channel": 0,
      "note": 46,
      "start": 2.8779,
      "duration": 0.0161,
      "velocity": 115,
      "chip": "ym2612"
    },
    {
      "channel": 5,
      "note": 82,
      "start": 2.879,
      "duration": 0.0161,
      "velocity": 101,
      "chip": "ym2612"
    },
    {
      "channel": 4,
      "note": 88,
      "start": 2.8803,
      "duration": 0.0161,
      "velocity": 101,
      "chip": "ym2612"
    },
    {
      "channel": 3,
      "note": 90,
      "start": 2.8815,
      "duration": 0.0161,
      "velocity": 101,
      "chip": "ym2612"
    },
    {
      "channel": 2,
      "note": 66,
      "start": 2.8827,
      "duration": 0.0161,
      "velocity": 100,
      "chip": "ym2612"
    },
    {
      "channel": 1,
      "note": 80,
      "start": 2.8923,
      "duration": 0.0161,
      "velocity": 127,
      "chip": "ym2612"
    },
    {
      "channel": 0,
      "note": 47,
      "start": 2.894,
      "duration": 0.0161,
      "velocity": 115,
      "chip": "ym2612"
    },
    {
      "channel": 5,
      "note": 82,
      "start": 2.8951,
      "duration": 0.0162,
      "velocity": 101,
      "chip": "ym2612"
    },
    {
      "channel": 4,
      "note": 88,
      "start": 2.8963,
      "duration": 0.0162,
      "velocity": 101,
      "chip": "ym2612"
    },
    {
      "channel": 3,
      "note": 90,
      "start": 2.8976,
      "duration": 0.0161,
      "velocity": 101,
      "chip": "ym2612"
    },
    {
      "channel": 2,
      "note": 66,
      "start": 2.8988,
      "duration": 0.0161,
      "velocity": 100,
      "chip": "ym2612"
    },
    {
      "channel": 1,
      "note": 78,
      "start": 2.9084,
      "duration": 0.018,
      "velocity": 127,
      "chip": "ym2612"
    },
    {
      "channel": 0,
      "note": 47,
      "start": 2.9101,
      "duration": 0.018,
      "velocity": 115,
      "chip": "ym2612"
    },
    {
      "channel": 5,
      "note": 82,
      "start": 2.9113,
      "duration": 0.018,
      "velocity": 101,
      "chip": "ym2612"
    },
    {
      "channel": 4,
      "note": 88,
      "start": 2.9125,
      "duration": 0.018,
      "velocity": 101,
      "chip": "ym2612"
    },
    {
      "channel": 3,
      "note": 90,
      "start": 2.9137,
      "duration": 0.018,
      "velocity": 101,
      "chip": "ym2612"
    },
    {
      "channel": 2,
      "note": 66,
      "start": 2.9149,
      "duration": 0.0183,
      "velocity": 100,
      "chip": "ym2612"
    },
    {
      "channel": 1,
      "note": 84,
      "start": 2.9264,
      "duration": 0.0142,
      "velocity": 127,
      "chip": "ym2612"
    },
    {
      "channel": 0,
      "note": 47,
      "start": 2.9281,
      "duration": 0.0143,
      "velocity": 115,
      "chip": "ym2612"
    },
    {
      "channel": 5,
      "note": 82,
      "start": 2.9293,
      "duration": 0.0142,
      "velocity": 101,
      "chip": "ym2612"
    },
    {
      "channel": 4,
      "note": 88,
      "start": 2.9305,
      "duration": 0.0142,
      "velocity": 101,
      "chip": "ym2612"
    },
    {
      "channel": 3,
      "note": 90,
      "start": 2.9317,
      "duration": 0.0143,
      "velocity": 101,
      "chip": "ym2612"
    },
    {
      "channel": 2,
      "note": 64,
      "start": 2.9332,
      "duration": 0.014,
      "velocity": 100,
      "chip": "ym2612"
    },
    {
      "channel": 1,
      "note": 82,
      "start": 2.9406,
      "duration": 0.016,
      "velocity": 127,
      "chip": "ym2612"
    },
    {
      "channel": 0,
      "note": 48,
      "start": 2.9424,
      "duration": 0.016,
      "velocity": 115,
      "chip": "ym2612"
    },
    {
      "channel": 5,
      "note": 82,
      "start": 2.9436,
      "duration": 0.016,
      "velocity": 101,
      "chip": "ym2612"
    },
    {
      "channel": 4,
      "note": 88,
      "start": 2.9448,
      "duration": 0.016,
      "velocity": 101,
      "chip": "ym2612"
    },
    {
      "channel": 3,
      "note": 90,
      "start": 2.946,
      "duration": 0.016,
      "velocity": 101,
      "chip": "ym2612"
    },
    {
      "channel": 2,
      "note": 64,
      "start": 2.9472,
      "duration": 0.016,
      "velocity": 100,
      "chip": "ym2612"
    },
    {
      "channel": 1,
      "note": 81,
      "start": 2.9567,
      "duration": 0.0161,
      "velocity": 127,
      "chip": "ym2612"
    },
    {
      "channel": 0,
      "note": 48,
      "start": 2.9584,
      "duration": 0.0161,
      "velocity": 115,
      "chip": "ym2612"
    },
    {
      "channel": 5,
      "note": 82,
      "start": 2.9596,
      "duration": 0.0161,
      "velocity": 101,
      "chip": "ym2612"
    },
    {
      "channel": 4,
      "note": 88,
      "start": 2.9608,
      "duration": 0.0162,
      "velocity": 101,
      "chip": "ym2612"
    },
    {
      "channel": 3,
      "note": 90,
      "start": 2.962,
      "duration": 0.0161,
      "velocity": 101,
      "chip": "ym2612"
    },
    {
      "channel": 2,
      "note": 64,
      "start": 2.9632,
      "duration": 0.0162,
      "velocity": 100,
      "chip": "ym2612"
    },
    {
      "channel": 1,
      "note": 79,
      "start": 2.9728,
      "duration": 0.0161,
      "velocity": 127,
      "chip": "ym2612"
    },
    {
      "channel": 0,
      "note": 49,
      "start": 2.9745,
      "duration": 0.0153,
      "velocity": 1,
      "chip": "ym2612"
    },
    {
      "channel": 5,
      "note": 82,
      "start": 2.9757,
      "duration": 0.0153,
      "velocity": 101,
      "chip": "ym2612"
    },
    {
      "channel": 4,
      "note": 88,
      "start": 2.977,
      "duration": 0.0152,
      "velocity": 101,
      "chip": "ym2612"
    },
    {
      "channel": 3,
      "note": 90,
      "start": 2.9782,
      "duration": 0.0152,
      "velocity": 101,
      "chip": "ym2612"
    },
    {
      "channel": 2,
      "note": 64,
      "start": 2.9793,
      "duration": 0.0153,
      "velocity": 100,
      "chip": "ym2612"
    },
    {
      "channel": 1,
      "note": 77,
      "start": 2.9889,
      "duration": 0.0161,
      "velocity": 127,
      "chip": "ym2612"
    },
    {
      "channel": 5,
      "note": 82,
      "start": 2.991,
      "duration": 0.0153,
      "velocity": 101,
      "chip": "ym2612"
    },
    {
      "channel": 4,
      "note": 88,
      "start": 2.9922,
      "duration": 0.0153,
      "velocity": 101,
      "chip": "ym2612"
    },
    {
      "channel": 3,
      "note": 90,
      "start": 2.9934,
      "duration": 0.0153,
      "velocity": 101,
      "chip": "ym2612"
    },
    {
      "channel": 2,
      "note": 64,
      "start": 2.9946,
      "duration": 0.0152,
      "velocity": 100,
      "chip": "ym2612"
    },
    {
      "channel": 1,
      "note": 76,
      "start": 3.005,
      "duration": 0.0179,
      "velocity": 127,
      "chip": "ym2612"
    },
    {
      "channel": 5,
      "note": 82,
      "start": 3.0062,
      "duration": 0.018,
      "velocity": 101,
      "chip": "ym2612"
    },
    {
      "channel": 4,
      "note": 88,
      "start": 3.0074,
      "duration": 0.018,
      "velocity": 101,
      "chip": "ym2612"
    },
    {
      "channel": 3,
      "note": 90,
      "start": 3.0086,
      "duration": 0.018,
      "velocity": 101,
      "chip": "ym2612"
    },
    {
      "channel": 2,
      "note": 64,
      "start": 3.0098,
      "duration": 0.0183,
      "velocity": 100,
      "chip": "ym2612"
    },
    {
      "channel": 1,
      "note": 84,
      "start": 3.023,
      "duration": 0.0143,
      "velocity": 127,
      "chip": "ym2612"
    },
    {
      "channel": 5,
      "note": 82,
      "start": 3.0242,
      "duration": 0.0143,
      "velocity": 101,
      "chip": "ym2612"
    },
    {
      "channel": 4,
      "note": 88,
      "start": 3.0254,
      "duration": 0.0143,
      "velocity": 101,
      "chip": "ym2612"
    },
    {
      "channel": 3,
      "note": 90,
      "start": 3.0266,
      "duration": 0.0143,
      "velocity": 101,
      "chip": "ym2612"
    },
    {
      "channel": 2,
      "note": 63,
      "start": 3.0281,
      "duration": 0.0141,
      "velocity": 100,
      "chip": "ym2612"
    },
    {
      "channel": 1,
      "note": 82,
      "start": 3.0373,
      "duration": 0.0161,
      "velocity": 127,
      "chip": "ym2612"
    },
    {
      "channel": 5,
      "note": 82,
      "start": 3.0385,
      "duration": 0.0161,
      "velocity": 101,
      "chip": "ym2612"
    },
    {
      "channel": 4,
      "note": 88,
      "start": 3.0398,
      "duration": 0.0161,
      "velocity": 101,
      "chip": "ym2612"
    },
    {
      "channel": 3,
      "note": 90,
      "start": 3.041,
      "duration": 0.0161,
      "velocity": 101,
      "chip": "ym2612"
    },
    {
      "channel": 2,
      "note": 63,
      "start": 3.0422,
      "duration": 0.016,
      "velocity": 100,
      "chip": "ym2612"
    },
    {
      "channel": 1,
      "note": 81,
      "start": 3.0534,
      "duration": 0.0163,
      "velocity": 127,
      "chip": "ym2612"
    },
    {
      "channel": 5,
      "note": 82,
      "start": 3.0546,
      "duration": 0.0164,
      "velocity": 101,
      "chip": "ym2612"
    },
    {
      "channel": 4,
      "note": 88,
      "start": 3.0558,
      "duration": 0.0164,
      "velocity": 101,
      "chip": "ym2612"
    },
    {
      "channel": 3,
      "note": 90,
      "start": 3.0571,
      "duration": 0.0164,
      "velocity": 101,
      "chip": "ym2612"
    },
    {
      "channel": 2,
      "note": 63,
      "start": 3.0582,
      "duration": 0.0164,
      "velocity": 100,
      "chip": "ym2612"
    },
    {
      "channel": 1,
      "note": 79,
      "start": 3.0698,
      "duration": 0.0163,
      "velocity": 127,
      "chip": "ym2612"
    },
    {
      "channel": 5,
      "note": 82,
      "start": 3.071,
      "duration": 0.0163,
      "velocity": 101,
      "chip": "ym2612"
    },
    {
      "channel": 4,
      "note": 88,
      "start": 3.0722,
      "duration": 0.0163,
      "velocity": 101,
      "chip": "ym2612"
    },
    {
      "channel": 3,
      "note": 90,
      "start": 3.0735,
      "duration": 0.0163,
      "velocity": 101,
      "chip": "ym2612"
    },
    {
      "channel": 2,
      "note": 63,
      "start": 3.0746,
      "duration": 0.0163,
      "velocity": 100,
      "chip": "ym2612"
    },
    {
      "channel": 1,
      "note": 77,
      "start": 3.0861,
      "duration": 0.0162,
      "velocity": 127,
      "chip": "ym2612"
    },
    {
      "channel": 5,
      "note": 82,
      "start": 3.0873,
      "duration": 0.0161,
      "velocity": 101,
      "chip": "ym2612"
    },
    {
      "channel": 4,
      "note": 88,
      "start": 3.0885,
      "duration": 0.0162,
      "velocity": 101,
      "chip": "ym2612"
    },
    {
      "channel": 3,
      "note": 90,
      "start": 3.0898,
      "duration": 0.0161,
      "velocity": 101,
      "chip": "ym2612"
    },
    {
      "channel": 2,
      "note": 63,
      "start": 3.0909,
      "duration": 0.0162,
      "velocity": 100,
      "chip": "ym2612"
    },
    {
      "channel": 1,
      "note": 76,
      "start": 3.1022,
      "duration": 0.016,
      "velocity": 127,
      "chip": "ym2612"
    },
    {
      "channel": 5,
      "note": 82,
      "start": 3.1034,
      "duration": 0.0161,
      "velocity": 101,
      "chip": "ym2612"
    },
    {
      "channel": 4,
      "note": 88,
      "start": 3.1047,
      "duration": 0.016,
      "velocity": 101,
      "chip": "ym2612"
    },
    {
      "channel": 3,
      "note": 90,
      "start": 3.1059,
      "duration": 0.016,
      "velocity": 101,
      "chip": "ym2612"
    },
    {
      "channel": 2,
      "note": 63,
      "start": 3.1071,
      "duration": 0.016,
      "velocity": 100,
      "chip": "ym2612"
    },
    {
      "channel": 1,
      "note": 74,
      "start": 3.1182,
      "duration": 0.018,
      "velocity": 127,
      "chip": "ym2612"
    },
    {
      "channel": 5,
      "note": 82,
      "start": 3.1195,
      "duration": 0.018,
      "velocity": 101,
      "chip": "ym2612"
    },
    {
      "channel": 4,
      "note": 88,
      "start": 3.1207,
      "duration": 0.018,
      "velocity": 101,
      "chip": "ym2612"
    },
    {
      "channel": 3,
      "note": 90,
      "start": 3.1219,
      "duration": 0.018,
      "velocity": 101,
      "chip": "ym2612"
    },
    {
      "channel": 2,
      "note": 63,
      "start": 3.1231,
      "duration": 0.0183,
      "velocity": 100,
      "chip": "ym2612"
    },
    {
      "channel": 1,
      "note": 78,
      "start": 3.1363,
      "duration": 0.0137,
      "velocity": 127,
      "chip": "ym2612"
    },
    {
      "channel": 5,
      "note": 82,
      "start": 3.1375,
      "duration": 0.0143,
      "velocity": 101,
      "chip": "ym2612"
    },
    {
      "channel": 4,
      "note": 88,
      "start": 3.1387,
      "duration": 0.0143,
      "velocity": 101,
      "chip": "ym2612"
    },
    {
      "channel": 3,
      "note": 90,
      "start": 3.1399,
      "duration": 0.0142,
      "velocity": 101,
      "chip": "ym2612"
    },
    {
      "channel": 2,
      "note": 61,
      "start": 3.1414,
      "duration": 0.0141,
      "velocity": 100,
      "chip": "ym2612"
    },
    {
      "channel": 1,
      "note": 76,
      "start": 3.15,
      "duration": 0.016,
      "velocity": 127,
      "chip": "ym2612"
    },
    {
      "channel": 5,
      "note": 82,
      "start": 3.1518,
      "duration": 0.0156,
      "velocity": 101,
      "chip": "ym2612"
    },
    {
      "channel": 4,
      "note": 88,
      "start": 3.153,
      "duration": 0.016,
      "velocity": 101,
      "chip": "ym2612"
    },
    {
      "channel": 3,
      "note": 90,
      "start": 3.1542,
      "duration": 0.016,
      "velocity": 101,
      "chip": "ym2612"
    },
    {
      "channel": 2,
      "note": 61,
      "start": 3.1555,
      "duration": 0.0159,
      "velocity": 100,
      "chip": "ym2612"
    },
    {
      "channel": 1,
      "note": 75,
      "start": 3.166,
      "duration": 0.0161,
      "velocity": 127,
      "chip": "ym2612"
    },
    {
      "channel": 5,
      "note": 82,
      "start": 3.1674,
      "duration": 0.0159,
      "velocity": 101,
      "chip": "ym2612"
    },
    {
      "channel": 4,
      "note": 88,
      "start": 3.169,
      "duration": 0.016,
      "velocity": 101,
      "chip": "ym2612"
    },
    {
      "channel": 3,
      "note": 90,
      "start": 3.1702,
      "duration": 0.0161,
      "velocity": 101,
      "chip": "ym2612"
    },
    {
      "channel": 2,
      "note": 61,
      "start": 3.1714,
      "duration": 0.0161,
      "velocity": 100,
      "chip": "ym2612"
    },
    {
      "channel": 1,
      "note": 73,
      "start": 3.1821,
      "duration": 0.0161,
      "velocity": 127,
      "chip": "ym2612"
    },
    {
      "channel": 5,
      "note": 82,
      "start": 3.1833,
      "duration": 0.0162,
      "velocity": 101,
      "chip": "ym2612"
    },
    {
      "channel": 4,
      "note": 88,
      "start": 3.185,
      "duration": 0.0159,
      "velocity": 101,
      "chip": "ym2612"
    },
    {
      "channel": 3,
      "note": 90,
      "start": 3.1863,
      "duration": 0.0162,
      "velocity": 101,
      "chip": "ym2612"
    },
    {
      "channel": 2,
      "note": 61,
      "start": 3.1875,
      "duration": 0.0161,
      "velocity": 100,
      "chip": "ym2612"
    },
    {
      "channel": 1,
      "note": 71,
      "start": 3.1982,
      "duration": 0.0161,
      "velocity": 127,
      "chip": "ym2612"
    },
    {
      "channel": 5,
      "note": 82,
      "start": 3.1995,
      "duration": 0.0161,
      "velocity": 101,
      "chip": "ym2612"
    },
    {
      "channel": 4,
      "note": 88,
      "start": 3.2009,
      "duration": 0.0159,
      "velocity": 101,
      "chip": "ym2612"
    },
    {
      "channel": 3,
      "note": 90,
      "start": 3.2025,
      "duration": 0.016,
      "velocity": 101,
      "chip": "ym2612"
    },
    {
      "channel": 2,
      "note": 61,
      "start": 3.2036,
      "duration": 0.0161,
      "velocity": 100,
      "chip": "ym2612"
    },
    {
      "channel": 1,
      "note": 70,
      "start": 3.2143,
      "duration": 0.018,
      "velocity": 127,
      "chip": "ym2612"
    },
    {
      "channel": 5,
      "note": 82,
      "start": 3.2156,
      "duration": 0.018,
      "velocity": 101,
      "chip": "ym2612"
    },
    {
      "channel": 4,
      "note": 88,
      "start": 3.2168,
      "duration": 0.0186,
      "velocity": 101,
      "chip": "ym2612"
    },
    {
      "channel": 3,
      "note": 90,
      "start": 3.2185,
      "duration": 0.0181,
      "velocity": 101,
      "chip": "ym2612"
    },
    {
      "channel": 2,
      "note": 61,
      "start": 3.2197,
      "duration": 0.0183,
      "velocity": 100,
      "chip": "ym2612"
    },
    {
      "channel": 1,
      "note": 78,
      "start": 3.2323,
      "duration": 0.0143,
      "velocity": 127,
      "chip": "ym2612"
    },
    {
      "channel": 5,
      "note": 82,
      "start": 3.2336,
      "duration": 0.0143,
      "velocity": 101,
      "chip": "ym2612"
    },
    {
      "channel": 4,
      "note": 88,
      "start": 3.2354,
      "duration": 0.0137,
      "velocity": 101,
      "chip": "ym2612"
    },
    {
      "channel": 3,
      "note": 90,
      "start": 3.2366,
      "duration": 0.0138,
      "velocity": 101,
      "chip": "ym2612"
    },
    {
      "channel": 2,
      "note": 54,
      "start": 3.238,
      "duration": 0.0142,
      "velocity": 100,
      "chip": "ym2612"
    },
    {
      "channel": 1,
      "note": 76,
      "start": 3.2466,
      "duration": 0.016,
      "velocity": 127,
      "chip": "ym2612"
    },
    {
      "channel": 5,
      "note": 82,
      "start": 3.2479,
      "duration": 0.016,
      "velocity": 101,
      "chip": "ym2612"
    },
    {
      "channel": 4,
      "note": 88,
      "start": 3.2492,
      "duration": 0.016,
      "velocity": 101,
      "chip": "ym2612"
    },
    {
      "channel": 3,
      "note": 90,
      "start": 3.2504,
      "duration": 0.016,
      "velocity": 101,
      "chip": "ym2612"
    },
    {
      "channel": 2,
      "note": 54,
      "start": 3.2523,
      "duration": 0.0158,
      "velocity": 100,
      "chip": "ym2612"
    },
    {
      "channel": 1,
      "note": 75,
      "start": 3.2626,
      "duration": 0.0161,
      "velocity": 127,
      "chip": "ym2612"
    },
    {
      "channel": 5,
      "note": 82,
      "start": 3.2639,
      "duration": 0.0161,
      "velocity": 101,
      "chip": "ym2612"
    },
    {
      "channel": 4,
      "note": 88,
      "start": 3.2651,
      "duration": 0.0162,
      "velocity": 101,
      "chip": "ym2612"
    },
    {
      "channel": 3,
      "note": 90,
      "start": 3.2664,
      "duration": 0.0162,
      "velocity": 101,
      "chip": "ym2612"
    },
    {
      "channel": 2,
      "note": 54,
      "start": 3.268,
      "duration": 0.0156,
      "velocity": 100,
      "chip": "ym2612"
    },
    {
      "channel": 1,
      "note": 73,
      "start": 3.2787,
      "duration": 0.0161,
      "velocity": 127,
      "chip": "ym2612"
    },
    {
      "channel": 2,
      "note": 54,
      "start": 3.2837,
      "duration": 0.016,
      "velocity": 100,
      "chip": "ym2612"
    },
    {
      "channel": 1,
      "note": 71,
      "start": 3.2948,
      "duration": 0.0161,
      "velocity": 127,
      "chip": "ym2612"
    },
    {
      "channel": 2,
      "note": 54,
      "start": 3.2997,
      "duration": 0.0162,
      "velocity": 100,
      "chip": "ym2612"
    },
    {
      "channel": 1,
      "note": 70,
      "start": 3.3109,
      "duration": 0.0161,
      "velocity": 127,
      "chip": "ym2612"
    },
    {
      "channel": 2,
      "note": 54,
      "start": 3.3159,
      "duration": 0.0159,
      "velocity": 100,
      "chip": "ym2612"
    },
    {
      "channel": 1,
      "note": 68,
      "start": 3.327,
      "duration": 0.0153,
      "velocity": 1,
      "chip": "ym2612"
    },
    {
      "channel": 2,
      "note": 54,
      "start": 3.3318,
      "duration": 0.0202,
      "velocity": 100,
      "chip": "ym2612"
    },
    {
      "channel": 0,
      "note": 36,
      "start": 3.3459,
      "duration": 0.0136,
      "velocity": 115,
      "chip": "ym2612"
    },
    {
      "channel": 2,
      "note": 59,
      "start": 3.3521,
      "duration": 0.0123,
      "velocity": 100,
      "chip": "ym2612"
    },
    {
      "channel": 0,
      "note": 36,
      "start": 3.3594,
      "duration": 0.016,
      "velocity": 115,
      "chip": "ym2612"
    },
    {
      "channel": 2,
      "note": 59,
      "start": 3.3644,
      "duration": 0.0157,
      "velocity": 100,
      "chip": "ym2612"
    },
    {
      "channel": 0,
      "note": 37,
      "start": 3.3754,
      "duration": 0.0161,
      "velocity": 115,
      "chip": "ym2612"
    },
    {
      "channel": 2,
      "note": 59,
      "start": 3.3801,
      "duration": 0.0161,
      "velocity": 100,
      "chip": "ym2612"
    },
    {
      "channel": 0,
      "note": 37,
      "start": 3.3915,
      "duration": 0.0161,
      "velocity": 115,
      "chip": "ym2612"
    },
    {
      "channel": 2,
      "note": 59,
      "start": 3.3962,
      "duration": 0.0161,
      "velocity": 100,
      "chip": "ym2612"
    },
    {
      "channel": 0,
      "note": 38,
      "start": 3.4076,
      "duration": 0.0161,
      "velocity": 115,
      "chip": "ym2612"
    },
    {
      "channel": 2,
      "note": 59,
      "start": 3.4123,
      "duration": 0.0161,
      "velocity": 100,
      "chip": "ym2612"
    },
    {
      "channel": 0,
      "note": 38,
      "start": 3.4237,
      "duration": 0.0161,
      "velocity": 115,
      "chip": "ym2612"
    },
    {
      "channel": 2,
      "note": 59,
      "start": 3.4285,
      "duration": 0.0161,
      "velocity": 100,
      "chip": "ym2612"
    },
    {
      "channel": 0,
      "note": 39,
      "start": 3.4398,
      "duration": 0.0161,
      "velocity": 115,
      "chip": "ym2612"
    },
    {
      "channel": 2,
      "note": 59,
      "start": 3.4446,
      "duration": 0.0161,
      "velocity": 100,
      "chip": "ym2612"
    },
    {
      "channel": 0,
      "note": 39,
      "start": 3.4558,
      "duration": 0.0161,
      "velocity": 115,
      "chip": "ym2612"
    },
    {
      "channel": 2,
      "note": 59,
      "start": 3.4607,
      "duration": 0.0161,
      "velocity": 100,
      "chip": "ym2612"
    },
    {
      "channel": 0,
      "note": 40,
      "start": 3.4719,
      "duration": 0.0161,
      "velocity": 115,
      "chip": "ym2612"
    },
    {
      "channel": 2,
      "note": 59,
      "start": 3.4768,
      "duration": 0.0162,
      "velocity": 100,
      "chip": "ym2612"
    },
    {
      "channel": 0,
      "note": 40,
      "start": 3.488,
      "duration": 0.0161,
      "velocity": 115,
      "chip": "ym2612"
    },
    {
      "channel": 2,
      "note": 59,
      "start": 3.4929,
      "duration": 0.016,
      "velocity": 100,
      "chip": "ym2612"
    },
    {
      "channel": 0,
      "note": 40,
      "start": 3.5042,
      "duration": 0.0162,
      "velocity": 115,
      "chip": "ym2612"
    },
    {
      "channel": 2,
      "note": 59,
      "start": 3.509,
      "duration": 0.0161,
      "velocity": 100,
      "chip": "ym2612"
    },
    {
      "channel": 0,
      "note": 41,
      "start": 3.5203,
      "duration": 0.0164,
      "velocity": 115,
      "chip": "ym2612"
    },
    {
      "channel": 2,
      "note": 59,
      "start": 3.5251,
      "duration": 0.0164,
      "velocity": 100,
      "chip": "ym2612"
    },
    {
      "channel": 0,
      "note": 41,
      "start": 3.5368,
      "duration": 0.0163,
      "velocity": 115,
      "chip": "ym2612"
    },
    {
      "channel": 2,
      "note": 59,
      "start": 3.5415,
      "duration": 0.018,
      "velocity": 100,
      "chip": "ym2612"
    },
    {
      "channel": 0,
      "note": 42,
      "start": 3.553,
      "duration": 0.0161,
      "velocity": 115,
      "chip": "ym2612"
    },
    {
      "channel": 3,
      "note": 71,
      "start": 3.5584,
      "duration": 0.0144,
      "velocity": 110,
      "chip": "ym2612"
    },
    {
      "channel": 2,
      "note": 59,
      "start": 3.5595,
      "duration": 0.0144,
      "velocity": 100,
      "chip": "ym2612"
    },
    {
      "channel": 1,
      "note": 75,
      "start": 3.5624,
      "duration": 0.0127,
      "velocity": 110,
      "chip": "ym2612"
    },
    {
      "channel": 0,
      "note": 42,
      "start": 3.5691,
      "duration": 0.0161,
      "velocity": 115,
      "chip": "ym2612"
    },
    {
      "channel": 3,
      "note": 71,
      "start": 3.5728,
      "duration": 0.0161,
      "velocity": 110,
      "chip": "ym2612"
    },
    {
      "channel": 2,
      "note": 59,
      "start": 3.5739,
      "duration": 0.0161,
      "velocity": 100,
      "chip": "ym2612"
    },
    {
      "channel": 1,
      "note": 75,
      "start": 3.5751,
      "duration": 0.016,
      "velocity": 110,
      "chip": "ym2612"
    },
    {
      "channel": 0,
      "note": 43,
      "start": 3.5852,
      "duration": 0.0158,
      "velocity": 115,
      "chip": "ym2612"
    },
    {
      "channel": 3,
      "note": 71,
      "start": 3.5888,
      "duration": 0.0161,
      "velocity": 110,
      "chip": "ym2612"
    },
    {
      "channel": 2,
      "note": 59,
      "start": 3.59,
      "duration": 0.0161,
      "velocity": 100,
      "chip": "ym2612"
    },
    {
      "channel": 1,
      "note": 75,
      "start": 3.5911,
      "duration": 0.0161,
      "velocity": 110,
      "chip": "ym2612"
    },
    {
      "channel": 0,
      "note": 43,
      "start": 3.601,
      "duration": 0.0159,
      "velocity": 115,
      "chip": "ym2612"
    },
    {
      "channel": 2,
      "note": 59,
      "start": 3.6061,
      "duration": 0.0161,
      "velocity": 100,
      "chip": "ym2612"
    },
    {
      "channel": 0,
      "note": 44,
      "start": 3.6168,
      "duration": 0.0161,
      "velocity": 115,
      "chip": "ym2612"
    },
    {
      "channel": 2,
      "note": 59,
      "start": 3.6222,
      "duration": 0.0161,
      "velocity": 100,
      "chip": "ym2612"
    },
    {
      "channel": 0,
      "note": 44,
      "start": 3.6329,
      "duration": 0.0184,
      "velocity": 115,
      "chip": "ym2612"
    },
    {
      "channel": 2,
      "note": 59,
      "start": 3.6383,
      "duration": 0.0185,
      "velocity": 100,
      "chip": "ym2612"
    },
    {
      "channel": 0,
      "note": 36,
      "start": 3.6515,
      "duration": 0.0138,
      "velocity": 115,
      "chip": "ym2612"
    },
    {
      "channel": 3,
      "note": 71,
      "start": 3.6553,
      "duration": 0.0141,
      "velocity": 110,
      "chip": "ym2612"
    },
    {
      "channel": 2,
      "note": 59,
      "start": 3.6568,
      "duration": 0.0138,
      "velocity": 100,
      "chip": "ym2612"
    },
    {
      "channel": 1,
      "note": 75,
      "start": 3.6583,
      "duration": 0.0135,
      "velocity": 110,
      "chip": "ym2612"
    },
    {
      "channel": 0,
      "note": 36,
      "start": 3.6653,
      "duration": 0.016,
      "velocity": 115,
      "chip": "ym2612"
    },
    {
      "channel": 3,
      "note": 71,
      "start": 3.6695,
      "duration": 0.016,
      "velocity": 110,
      "chip": "ym2612"
    },
    {
      "channel": 2,
      "note": 59,
      "start": 3.6707,
      "duration": 0.0159,
      "velocity": 100,
      "chip": "ym2612"
    },
    {
      "channel": 1,
      "note": 75,
      "start": 3.6719,
      "duration": 0.0159,
      "velocity": 110,
      "chip": "ym2612"
    },
    {
      "channel": 0,
      "note": 37,
      "start": 3.6813,
      "duration": 0.0161,
      "velocity": 115,
      "chip": "ym2612"
    },
    {
      "channel": 3,
      "note": 71,
      "start": 3.6854,
      "duration": 0.016,
      "velocity": 110,
      "chip": "ym2612"
    },
    {
      "channel": 2,
      "note": 59,
      "start": 3.6866,
      "duration": 0.0161,
      "velocity": 100,
      "chip": "ym2612"
    },
    {
      "channel": 1,
      "note": 75,
      "start": 3.6877,
      "duration": 0.0161,
      "velocity": 110,
      "chip": "ym2612"
    },
    {
      "channel": 0,
      "note": 37,
      "start": 3.6974,
      "duration": 0.0161,
      "velocity": 115,
      "chip": "ym2612"
    },
    {
      "channel": 3,
      "note": 71,
      "start": 3.7015,
      "duration": 0.0156,
      "velocity": 110,
      "chip": "ym2612"
    },
    {
      "channel": 2,
      "note": 59,
      "start": 3.7027,
      "duration": 0.0162,
      "velocity": 100,
      "chip": "ym2612"
    },
    {
      "channel": 1,
      "note": 75,
      "start": 3.7038,
      "duration": 0.0161,
      "velocity": 110,
      "chip": "ym2612"
    },
    {
      "channel": 0,
      "note": 38,
      "start": 3.7135,
      "duration": 0.0161,
      "velocity": 115,
      "chip": "ym2612"
    },
    {
      "channel": 2,
      "note": 59,
      "start": 3.7188,
      "duration": 0.016,
      "velocity": 100,
      "chip": "ym2612"
    },
    {
      "channel": 0,
      "note": 38,
      "start": 3.7296,
      "duration": 0.0161,
      "velocity": 115,
      "chip": "ym2612"
    },
    {
      "channel": 2,
      "note": 59,
      "start": 3.7349,
      "duration": 0.0156,
      "velocity": 100,
      "chip": "ym2612"
    },
    {
      "channel": 0,
      "note": 39,
      "start": 3.7457,
      "duration": 0.0179,
      "velocity": 124,
      "chip": "ym2612"
    },
    {
      "channel": 2,
      "note": 59,
      "start": 3.7504,
      "duration": 0.019,
      "velocity": 100,
      "chip": "ym2612"
    },
    {
      "channel": 0,
      "note": 84,
      "start": 3.7637,
      "duration": 0.0143,
      "velocity": 124,
      "chip": "ym2612"
    },
    {
      "channel": 3,
      "note": 75,
      "start": 3.768,
      "duration": 0.0135,
      "velocity": 110,
      "chip": "ym2612"
    },
    {
      "channel": 2,
      "note": 59,
      "start": 3.7694,
      "duration": 0.0134,
      "velocity": 100,
      "chip": "ym2612"
    },
    {
      "channel": 1,
      "note": 71,
      "start": 3.7708,
      "duration": 0.0133,
      "velocity": 110,
      "chip": "ym2612"
    },
    {
      "channel": 0,
      "note": 82,
      "start": 3.7779,
      "duration": 0.0161,
      "velocity": 124,
      "chip": "ym2612"
    },
    {
      "channel": 3,
      "note": 75,
      "start": 3.7815,
      "duration": 0.016,
      "velocity": 110,
      "chip": "ym2612"
    },
    {
      "channel": 2,
      "note": 59,
      "start": 3.7827,
      "duration": 0.016,
      "velocity": 100,
      "chip": "ym2612"
    },
    {
      "channel": 1,
      "note": 71,
      "start": 3.7841,
      "duration": 0.0158,
      "velocity": 110,
      "chip": "ym2612"
    },
    {
      "channel": 0,
      "note": 80,
      "start": 3.794,
      "duration": 0.0161,
      "velocity": 124,
      "chip": "ym2612"
    },
    {
      "channel": 3,
      "note": 75,
      "start": 3.7976,
      "duration": 0.0161,
      "velocity": 110,
      "chip": "ym2612"
    },
    {
      "channel": 2,
      "note": 59,
      "start": 3.7988,
      "duration": 0.016,
      "velocity": 100,
      "chip": "ym2612"
    },
    {
      "channel": 1,
      "note": 71,
      "start": 3.7999,
      "duration": 0.016,
      "velocity": 110,
      "chip": "ym2612"
    },
    {
      "channel": 0,
      "note": 77,
      "start": 3.8101,
      "duration": 0.0161,
      "velocity": 124,
      "chip": "ym2612"
    },
    {
      "channel": 2,
      "note": 59,
      "start": 3.8148,
      "duration": 0.0161,
      "velocity": 100,
      "chip": "ym2612"
    },
    {
      "channel": 0,
      "note": 75,
      "start": 3.8262,
      "duration": 0.0161,
      "velocity": 124,
      "chip": "ym2612"
    },
    {
      "channel": 2,
      "note": 59,
      "start": 3.8309,
      "duration": 0.0161,
      "velocity": 100,
      "chip": "ym2612"
    },
    {
      "channel": 0,
      "note": 72,
      "start": 3.8423,
      "duration": 0.0161,
      "velocity": 124,
      "chip": "ym2612"
    },
    {
      "channel": 2,
      "note": 59,
      "start": 3.847,
      "duration": 0.0166,
      "velocity": 100,
      "chip": "ym2612"
    },
    {
      "channel": 0,
      "note": 70,
      "start": 3.8584,
      "duration": 0.0161,
      "velocity": 124,
      "chip": "ym2612"
    },
    {
      "channel": 3,
      "note": 75,
      "start": 3.8623,
      "duration": 0.0159,
      "velocity": 110,
      "chip": "ym2612"
    },
    {
      "channel": 2,
      "note": 59,
      "start": 3.8636,
      "duration": 0.0158,
      "velocity": 100,
      "chip": "ym2612"
    },
    {
      "channel": 1,
      "note": 71,
      "start": 3.8651,
      "duration": 0.0155,
      "velocity": 110,
      "chip": "ym2612"
    },
    {
      "channel": 0,
      "note": 68,
      "start": 3.8745,
      "duration": 0.0161,
      "velocity": 124,
      "chip": "ym2612"
    },
    {
      "channel": 3,
      "note": 75,
      "start": 3.8782,
      "duration": 0.016,
      "velocity": 110,
      "chip": "ym2612"
    },
    {
      "channel": 2,
      "note": 59,
      "start": 3.8794,
      "duration": 0.016,
      "velocity": 100,
      "chip": "ym2612"
    },
    {
      "channel": 1,
      "note": 71,
      "start": 3.8806,
      "duration": 0.016,
      "velocity": 110,
      "chip": "ym2612"
    },
    {
      "channel": 0,
      "note": 65,
      "start": 3.8906,
      "duration": 0.0161,
      "velocity": 124,
      "chip": "ym2612"
    },
    {
      "channel": 3,
      "note": 75,
      "start": 3.8941,
      "duration": 0.0161,
      "velocity": 110,
      "chip": "ym2612"
    },
    {
      "channel": 2,
      "note": 59,
      "start": 3.8954,
      "duration": 0.0161,
      "velocity": 100,
      "chip": "ym2612"
    },
    {
      "channel": 1,
      "note": 71,
      "start": 3.8966,
      "duration": 0.0161,
      "velocity": 110,
      "chip": "ym2612"
    },
    {
      "channel": 0,
      "note": 63,
      "start": 3.9067,
      "duration": 0.0153,
      "velocity": 1,
      "chip": "ym2612"
    },
    {
      "channel": 3,
      "note": 75,
      "start": 3.9102,
      "duration": 0.0153,
      "velocity": 110,
      "chip": "ym2612"
    },
    {
      "channel": 2,
      "note": 59,
      "start": 3.9115,
      "duration": 0.0153,
      "velocity": 100,
      "chip": "ym2612"
    },
    {
      "channel": 1,
      "note": 71,
      "start": 3.9127,
      "duration": 0.0153,
      "velocity": 110,
      "chip": "ym2612"
    },
    {
      "channel": 2,
      "note": 59,
      "start": 3.9268,
      "duration": 0.0152,
      "velocity": 100,
      "chip": "ym2612"
    },
    {
      "channel": 2,
      "note": 59,
      "start": 3.942,
      "duration": 0.0161,
      "velocity": 100,
      "chip": "ym2612"
    },
    {
      "channel": 2,
      "note": 59,
      "start": 3.9581,
      "duration": 0.0202,
      "velocity": 100,
      "chip": "ym2612"
    },
    {
      "channel": 0,
      "note": 36,
      "start": 3.9729,
      "duration": 0.0144,
      "velocity": 115,
      "chip": "ym2612"
    },
    {
      "channel": 3,
      "note": 71,
      "start": 3.9769,
      "duration": 0.0141,
      "velocity": 110,
      "chip": "ym2612"
    },
    {
      "channel": 2,
      "note": 54,
      "start": 3.9783,
      "duration": 0.0139,
      "velocity": 100,
      "chip": "ym2612"
    },
    {
      "channel": 1,
      "note": 75,
      "start": 3.9798,
      "duration": 0.0136,
      "velocity": 110,
      "chip": "ym2612"
    },
    {
      "channel": 0,
      "note": 36,
      "start": 3.9873,
      "duration": 0.0161,
      "velocity": 115,
      "chip": "ym2612"
    },
    {
      "channel": 3,
      "note": 71,
      "start": 3.991,
      "duration": 0.016,
      "velocity": 110,
      "chip": "ym2612"
    },
    {
      "channel": 2,
      "note": 54,
      "start": 3.9922,
      "duration": 0.016,
      "velocity": 100,
      "chip": "ym2612"
    },
    {
      "channel": 1,
      "note": 75,
      "start": 3.9934,
      "duration": 0.016,
      "velocity": 110,
      "chip": "ym2612"
    },
    {
      "channel": 0,
      "note": 37,
      "start": 4.0034,
      "duration": 0.0163,
      "velocity": 115,
      "chip": "ym2612"
    },
    {
      "channel": 3,
      "note": 71,
      "start": 4.007,
      "duration": 0.0163,
      "velocity": 110,
      "chip": "ym2612"
    },
    {
      "channel": 2,
      "note": 54,
      "start": 4.0081,
      "duration": 0.0163,
      "velocity": 100,
      "chip": "ym2612"
    },
    {
      "channel": 1,
      "note": 75,
      "start": 4.0093,
      "duration": 0.0163,
      "velocity": 110,
      "chip": "ym2612"
    },
    {
      "channel": 0,
      "note": 37,
      "start": 4.0198,
      "duration": 0.0163,
      "velocity": 115,
      "chip": "ym2612"
    },
    {
      "channel": 3,
      "note": 71,
      "start": 4.0233,
      "duration": 0.0163,
      "velocity": 110,
      "chip": "ym2612"
    },
    {
      "channel": 2,
      "note": 54,
      "start": 4.0245,
      "duration": 0.0163,
      "velocity": 100,
      "chip": "ym2612"
    },
    {
      "channel": 1,
      "note": 75,
      "start": 4.0257,
      "duration": 0.0163,
      "velocity": 110,
      "chip": "ym2612"
    },
    {
      "channel": 0,
      "note": 38,
      "start": 4.0361,
      "duration": 0.0161,
      "velocity": 115,
      "chip": "ym2612"
    },
    {
      "channel": 3,
      "note": 71,
      "start": 4.0396,
      "duration": 0.0162,
      "velocity": 110,
      "chip": "ym2612"
    },
    {
      "channel": 2,
      "note": 54,
      "start": 4.0408,
      "duration": 0.0161,
      "velocity": 100,
      "chip": "ym2612"
    },
    {
      "channel": 1,
      "note": 75,
      "start": 4.042,
      "duration": 0.0161,
      "velocity": 110,
      "chip": "ym2612"
    },
    {
      "channel": 0,
      "note": 38,
      "start": 4.0522,
      "duration": 0.0179,
      "velocity": 115,
      "chip": "ym2612"
    },
    {
      "channel": 3,
      "note": 71,
      "start": 4.0558,
      "duration": 0.0179,
      "velocity": 110,
      "chip": "ym2612"
    },
    {
      "channel": 2,
      "note": 54,
      "start": 4.0569,
      "duration": 0.0182,
      "velocity": 100,
      "chip": "ym2612"
    },
    {
      "channel": 1,
      "note": 75,
      "start": 4.0581,
      "duration": 0.0183,
      "velocity": 110,
      "chip": "ym2612"
    },
    {
      "channel": 0,
      "note": 36,
      "start": 4.0702,
      "duration": 0.0139,
      "velocity": 115,
      "chip": "ym2612"
    },
    {
      "channel": 3,
      "note": 71,
      "start": 4.0737,
      "duration": 0.0143,
      "velocity": 110,
      "chip": "ym2612"
    },
    {
      "channel": 2,
      "note": 56,
      "start": 4.0752,
      "duration": 0.0141,
      "velocity": 100,
      "chip": "ym2612"
    },
    {
      "channel": 1,
      "note": 75,
      "start": 4.0763,
      "duration": 0.0141,
      "velocity": 110,
      "chip": "ym2612"
    },
    {
      "channel": 0,
      "note": 36,
      "start": 4.0841,
      "duration": 0.0159,
      "velocity": 115,
      "chip": "ym2612"
    },
    {
      "channel": 2,
      "note": 56,
      "start": 4.0892,
      "duration": 0.016,
      "velocity": 100,
      "chip": "ym2612"
    },
    {
      "channel": 0,
      "note": 37,
      "start": 4.0999,
      "duration": 0.0161,
      "velocity": 115,
      "chip": "ym2612"
    },
    {
      "channel": 2,
      "note": 56,
      "start": 4.1052,
      "duration": 0.0161,
      "velocity": 100,
      "chip": "ym2612"
    },
    {
      "channel": 0,
      "note": 37,
      "start": 4.116,
      "duration": 0.0161,
      "velocity": 115,
      "chip": "ym2612"
    },
    {
      "channel": 2,
      "note": 56,
      "start": 4.1213,
      "duration": 0.0161,
      "velocity": 100,
      "chip": "ym2612"
    },
    {
      "channel": 0,
      "note": 38,
      "start": 4.1321,
      "duration": 0.0161,
      "velocity": 115,
      "chip": "ym2612"
    },
    {
      "channel": 2,
      "note": 56,
      "start": 4.1374,
      "duration": 0.0161,
      "velocity": 100,
      "chip": "ym2612"
    },
    {
      "channel": 0,
      "note": 38,
      "start": 4.1482,
      "duration": 0.0161,
      "velocity": 115,
      "chip": "ym2612"
    },
    {
      "channel": 2,
      "note": 56,
      "start": 4.1535,
      "duration": 0.0161,
      "velocity": 100,
      "chip": "ym2612"
    },
    {
      "channel": 0,
      "note": 39,
      "start": 4.1643,
      "duration": 0.0179,
      "velocity": 115,
      "chip": "ym2612"
    },
    {
      "channel": 2,
      "note": 56,
      "start": 4.1696,
      "duration": 0.0185,
      "velocity": 100,
      "chip": "ym2612"
    },
    {
      "channel": 0,
      "note": 36,
      "start": 4.1822,
      "duration": 0.0143,
      "velocity": 115,
      "chip": "ym2612"
    },
    {
      "channel": 3,
      "note": 75,
      "start": 4.1868,
      "duration": 0.0134,
      "velocity": 110,
      "chip": "ym2612"
    },
    {
      "channel": 2,
      "note": 59,
      "start": 4.1882,
      "duration": 0.0137,
      "velocity": 100,
      "chip": "ym2612"
    },
    {
      "channel": 1,
      "note": 71,
      "start": 4.1897,
      "duration": 0.0135,
      "velocity": 110,
      "chip": "ym2612"
    },
    {
      "channel": 0,
      "note": 36,
      "start": 4.1966,
      "duration": 0.016,
      "velocity": 115,
      "chip": "ym2612"
    },
    {
      "channel": 3,
      "note": 75,
      "start": 4.2002,
      "duration": 0.016,
      "velocity": 110,
      "chip": "ym2612"
    },
    {
      "channel": 2,
      "note": 59,
      "start": 4.202,
      "duration": 0.0156,
      "velocity": 100,
      "chip": "ym2612"
    },
    {
      "channel": 1,
      "note": 71,
      "start": 4.2032,
      "duration": 0.0159,
      "velocity": 110,
      "chip": "ym2612"
    },
    {
      "channel": 0,
      "note": 37,
      "start": 4.2126,
      "duration": 0.0161,
      "velocity": 115,
      "chip": "ym2612"
    },
    {
      "channel": 3,
      "note": 75,
      "start": 4.2161,
      "duration": 0.0161,
      "velocity": 110,
      "chip": "ym2612"
    },
    {
      "channel": 2,
      "note": 59,
      "start": 4.2176,
      "duration": 0.0158,
      "velocity": 100,
      "chip": "ym2612"
    },
    {
      "channel": 1,
      "note": 71,
      "start": 4.2191,
      "duration": 0.016,
      "velocity": 110,
      "chip": "ym2612"
    },
    {
      "channel": 0,
      "note": 37,
      "start": 4.2287,
      "duration": 0.0161,
      "velocity": 115,
      "chip": "ym2612"
    },
    {
      "channel": 3,
      "note": 75,
      "start": 4.2322,
      "duration": 0.0161,
      "velocity": 110,
      "chip": "ym2612"
    },
    {
      "channel": 2,
      "note": 59,
      "start": 4.2334,
      "duration": 0.0161,
      "velocity": 100,
      "chip": "ym2612"
    },
    {
      "channel": 1,
      "note": 71,
      "start": 4.2351,
      "duration": 0.0158,
      "velocity": 110,
      "chip": "ym2612"
    },
    {
      "channel": 0,
      "note": 38,
      "start": 4.2448,
      "duration": 0.0161,
      "velocity": 115,
      "chip": "ym2612"
    },
    {
      "channel": 3,
      "note": 75,
      "start": 4.2483,
      "duration": 0.0162,
      "velocity": 110,
      "chip": "ym2612"
    },
    {
      "channel": 2,
      "note": 59,
      "start": 4.2495,
      "duration": 0.0161,
      "velocity": 100,
      "chip": "ym2612"
    },
    {
      "channel": 1,
      "note": 71,
      "start": 4.2509,
      "duration": 0.0159,
      "velocity": 110,
      "chip": "ym2612"
    },
    {
      "channel": 0,
      "note": 38,
      "start": 4.2609,
      "duration": 0.0179,
      "velocity": 127,
      "chip": "ym2612"
    },
    {
      "channel": 3,
      "note": 75,
      "start": 4.2645,
      "duration": 0.0179,
      "velocity": 110,
      "chip": "ym2612"
    },
    {
      "channel": 2,
      "note": 59,
      "start": 4.2656,
      "duration": 0.0184,
      "velocity": 100,
      "chip": "ym2612"
    },
    {
      "channel": 1,
      "note": 71,
      "start": 4.2668,
      "duration": 0.0188,
      "velocity": 110,
      "chip": "ym2612"
    },
    {
      "channel": 0,
      "note": 88,
      "start": 4.2789,
      "duration": 0.0143,
      "velocity": 127,
      "chip": "ym2612"
    },
    {
      "channel": 3,
      "note": 75,
      "start": 4.2824,
      "duration": 0.0143,
      "velocity": 110,
      "chip": "ym2612"
    },
    {
      "channel": 2,
      "note": 71,
      "start": 4.2841,
      "duration": 0.0139,
      "velocity": 100,
      "chip": "ym2612"
    },
    {
      "channel": 1,
      "note": 71,
      "start": 4.2856,
      "duration": 0.0135,
      "velocity": 110,
      "chip": "ym2612"
    },
    {
      "channel": 0,
      "note": 86,
      "start": 4.2932,
      "duration": 0.016,
      "velocity": 127,
      "chip": "ym2612"
    },
    {
      "channel": 2,
      "note": 71,
      "start": 4.298,
      "duration": 0.016,
      "velocity": 100,
      "chip": "ym2612"
    },
    {
      "channel": 0,
      "note": 85,
      "start": 4.3092,
      "duration": 0.0161,
      "velocity": 127,
      "chip": "ym2612"
    },
    {
      "channel": 2,
      "note": 71,
      "start": 4.3139,
      "duration": 0.0161,
      "velocity": 100,
      "chip": "ym2612"
    },
    {
      "channel": 0,
      "note": 83,
      "start": 4.3253,
      "duration": 0.0161,
      "velocity": 127,
      "chip": "ym2612"
    },
    {
      "channel": 2,
      "note": 71,
      "start": 4.33,
      "duration": 0.0161,
      "velocity": 100,
      "chip": "ym2612"
    },
    {
      "channel": 0,
      "note": 81,
      "start": 4.3414,
      "duration": 0.0161,
      "velocity": 127,
      "chip": "ym2612"
    },
    {
      "channel": 2,
      "note": 71,
      "start": 4.3461,
      "duration": 0.0161,
      "velocity": 100,
      "chip": "ym2612"
    },
    {
      "channel": 0,
      "note": 80,
      "start": 4.3575,
      "duration": 0.0161,
      "velocity": 127,
      "chip": "ym2612"
    },
    {
      "channel": 2,
      "note": 71,
      "start": 4.3622,
      "duration": 0.0161,
      "velocity": 100,
      "chip": "ym2612"
    },
    {
      "channel": 0,
      "note": 78,
      "start": 4.3736,
      "duration": 0.0161,
      "velocity": 127,
      "chip": "ym2612"
    },
    {
      "channel": 2,
      "note": 71,
      "start": 4.3783,
      "duration": 0.0168,
      "velocity": 100,
      "chip": "ym2612"
    },
    {
      "channel": 0,
      "note": 76,
      "start": 4.3897,
      "duration": 0.0161,
      "velocity": 127,
      "chip": "ym2612"
    },
    {
      "channel": 3,
      "note": 71,
      "start": 4.3937,
      "duration": 0.0158,
      "velocity": 110,
      "chip": "ym2612"
    },
    {
      "channel": 2,
      "note": 59,
      "start": 4.3951,
      "duration": 0.0155,
      "velocity": 100,
      "chip": "ym2612"
    },
    {
      "channel": 1,
      "note": 75,
      "start": 4.3967,
      "duration": 0.0152,
      "velocity": 110,
      "chip": "ym2612"
    },
    {
      "channel": 0,
      "note": 75,
      "start": 4.4058,
      "duration": 0.0161,
      "velocity": 127,
      "chip": "ym2612"
    },
    {
      "channel": 3,
      "note": 71,
      "start": 4.4095,
      "duration": 0.016,
      "velocity": 110,
      "chip": "ym2612"
    },
    {
      "channel": 2,
      "note": 59,
      "start": 4.4107,
      "duration": 0.016,
      "velocity": 100,
      "chip": "ym2612"
    },
    {
      "channel": 1,
      "note": 75,
      "start": 4.4119,
      "duration": 0.0159,
      "velocity": 110,
      "chip": "ym2612"
    },
    {
      "channel": 0,
      "note": 73,
      "start": 4.4219,
      "duration": 0.0161,
      "velocity": 127,
      "chip": "ym2612"
    },
    {
      "channel": 3,
      "note": 71,
      "start": 4.4255,
      "duration": 0.0161,
      "velocity": 110,
      "chip": "ym2612"
    },
    {
      "channel": 2,
      "note": 59,
      "start": 4.4266,
      "duration": 0.0161,
      "velocity": 100,
      "chip": "ym2612"
    },
    {
      "channel": 1,
      "note": 75,
      "start": 4.4278,
      "duration": 0.0161,
      "velocity": 110,
      "chip": "ym2612"
    },
    {
      "channel": 0,
      "note": 71,
      "start": 4.438,
      "duration": 0.0161,
      "velocity": 127,
      "chip": "ym2612"
    },
    {
      "channel": 3,
      "note": 71,
      "start": 4.4416,
      "duration": 0.0161,
      "velocity": 110,
      "chip": "ym2612"
    },
    {
      "channel": 2,
      "note": 59,
      "start": 4.4427,
      "duration": 0.0161,
      "velocity": 100,
      "chip": "ym2612"
    },
    {
      "channel": 1,
      "note": 75,
      "start": 4.4439,
      "duration": 0.0161,
      "velocity": 110,
      "chip": "ym2612"
    },
    {
      "channel": 0,
      "note": 69,
      "start": 4.4541,
      "duration": 0.0161,
      "velocity": 127,
      "chip": "ym2612"
    },
    {
      "channel": 3,
      "note": 71,
      "start": 4.4577,
      "duration": 0.0161,
      "velocity": 110,
      "chip": "ym2612"
    },
    {
      "channel": 2,
      "note": 59,
      "start": 4.4588,
      "duration": 0.0162,
      "velocity": 100,
      "chip": "ym2612"
    },
    {
      "channel": 1,
      "note": 75,
      "start": 4.46,
      "duration": 0.0161,
      "velocity": 110,
      "chip": "ym2612"
    },
    {
      "channel": 0,
      "note": 68,
      "start": 4.4703,
      "duration": 0.0183,
      "velocity": 127,
      "chip": "ym2612"
    },
    {
      "channel": 3,
      "note": 71,
      "start": 4.4738,
      "duration": 0.0183,
      "velocity": 110,
      "chip": "ym2612"
    },
    {
      "channel": 2,
      "note": 59,
      "start": 4.475,
      "duration": 0.0186,
      "velocity": 100,
      "chip": "ym2612"
    },
    {
      "channel": 1,
      "note": 75,
      "start": 4.4761,
      "duration": 0.0186,
      "velocity": 110,
      "chip": "ym2612"
    },
    {
      "channel": 0,
      "note": 84,
      "start": 4.4886,
      "duration": 0.0145,
      "velocity": 127,
      "chip": "ym2612"
    },
    {
      "channel": 3,
      "note": 71,
      "start": 4.4922,
      "duration": 0.0145,
      "velocity": 110,
      "chip": "ym2612"
    },
    {
      "channel": 2,
      "note": 71,
      "start": 4.4936,
      "duration": 0.0142,
      "velocity": 100,
      "chip": "ym2612"
    },
    {
      "channel": 1,
      "note": 75,
      "start": 4.4948,
      "duration": 0.0143,
      "velocity": 110,
      "chip": "ym2612"
    },
    {
      "channel": 0,
      "note": 82,
      "start": 4.5031,
      "duration": 0.016,
      "velocity": 127,
      "chip": "ym2612"
    },
    {
      "channel": 2,
      "note": 71,
      "start": 4.5079,
      "duration": 0.016,
      "velocity": 100,
      "chip": "ym2612"
    },
    {
      "channel": 0,
      "note": 81,
      "start": 4.5191,
      "duration": 0.016,
      "velocity": 127,
      "chip": "ym2612"
    },
    {
      "channel": 2,
      "note": 71,
      "start": 4.5238,
      "duration": 0.0161,
      "velocity": 100,
      "chip": "ym2612"
    },
    {
      "channel": 0,
      "note": 79,
      "start": 4.5352,
      "duration": 0.0158,
      "velocity": 127,
      "chip": "ym2612"
    },
    {
      "channel": 2,
      "note": 71,
      "start": 4.5399,
      "duration": 0.0161,
      "velocity": 100,
      "chip": "ym2612"
    },
    {
      "channel": 0,
      "note": 77,
      "start": 4.5509,
      "duration": 0.0159,
      "velocity": 127,
      "chip": "ym2612"
    },
    {
      "channel": 2,
      "note": 71,
      "start": 4.556,
      "duration": 0.0161,
      "velocity": 100,
      "chip": "ym2612"
    },
    {
      "channel": 0,
      "note": 76,
      "start": 4.5668,
      "duration": 0.0161,
      "velocity": 127,
      "chip": "ym2612"
    },
    {
      "channel": 2,
      "note": 71,
      "start": 4.5721,
      "duration": 0.0161,
      "velocity": 100,
      "chip": "ym2612"
    },
    {
      "channel": 0,
      "note": 74,
      "start": 4.5829,
      "duration": 0.0185,
      "velocity": 127,
      "chip": "ym2612"
    },
    {
      "channel": 2,
      "note": 71,
      "start": 4.5882,
      "duration": 0.0186,
      "velocity": 100,
      "chip": "ym2612"
    },
    {
      "channel": 0,
      "note": 78,
      "start": 4.6015,
      "duration": 0.0137,
      "velocity": 127,
      "chip": "ym2612"
    },
    {
      "channel": 3,
      "note": 75,
      "start": 4.6055,
      "duration": 0.0139,
      "velocity": 110,
      "chip": "ym2612"
    },
    {
      "channel": 2,
      "note": 54,
      "start": 4.6068,
      "duration": 0.0137,
      "velocity": 100,
      "chip": "ym2612"
    },
    {
      "channel": 1,
      "note": 71,
      "start": 4.6084,
      "duration": 0.0134,
      "velocity": 110,
      "chip": "ym2612"
    },
    {
      "channel": 0,
      "note": 76,
      "start": 4.6152,
      "duration": 0.016,
      "velocity": 127,
      "chip": "ym2612"
    },
    {
      "channel": 3,
      "note": 75,
      "start": 4.6194,
      "duration": 0.016,
      "velocity": 110,
      "chip": "ym2612"
    },
    {
      "channel": 2,
      "note": 54,
      "start": 4.6206,
      "duration": 0.0159,
      "velocity": 100,
      "chip": "ym2612"
    },
    {
      "channel": 1,
      "note": 71,
      "start": 4.6218,
      "duration": 0.0159,
      "velocity": 110,
      "chip": "ym2612"
    },
    {
      "channel": 0,
      "note": 75,
      "start": 4.6312,
      "duration": 0.0161,
      "velocity": 127,
      "chip": "ym2612"
    },
    {
      "channel": 3,
      "note": 75,
      "start": 4.6354,
      "duration": 0.0161,
      "velocity": 110,
      "chip": "ym2612"
    },
    {
      "channel": 2,
      "note": 54,
      "start": 4.6365,
      "duration": 0.0161,
      "velocity": 100,
      "chip": "ym2612"
    },
    {
      "channel": 1,
      "note": 71,
      "start": 4.6377,
      "duration": 0.0161,
      "velocity": 110,
      "chip": "ym2612"
    },
    {
      "channel": 0,
      "note": 73,
      "start": 4.6473,
      "duration": 0.0161,
      "velocity": 127,
      "chip": "ym2612"
    },
    {
      "channel": 3,
      "note": 75,
      "start": 4.6515,
      "duration": 0.0155,
      "velocity": 110,
      "chip": "ym2612"
    },
    {
      "channel": 2,
      "note": 54,
      "start": 4.6527,
      "duration": 0.0161,
      "velocity": 100,
      "chip": "ym2612"
    },
    {
      "channel": 1,
      "note": 71,
      "start": 4.6538,
      "duration": 0.0161,
      "velocity": 110,
      "chip": "ym2612"
    },
    {
      "channel": 0,
      "note": 71,
      "start": 4.6634,
      "duration": 0.0161,
      "velocity": 127,
      "chip": "ym2612"
    },
    {
      "channel": 3,
      "note": 75,
      "start": 4.667,
      "duration": 0.0161,
      "velocity": 110,
      "chip": "ym2612"
    },
    {
      "channel": 2,
      "note": 54,
      "start": 4.6688,
      "duration": 0.016,
      "velocity": 100,
      "chip": "ym2612"
    },
    {
      "channel": 1,
      "note": 71,
      "start": 4.6699,
      "duration": 0.0161,
      "velocity": 110,
      "chip": "ym2612"
    },
    {
      "channel": 0,
      "note": 70,
      "start": 4.6795,
      "duration": 0.0179,
      "velocity": 115,
      "chip": "ym2612"
    },
    {
      "channel": 3,
      "note": 75,
      "start": 4.6831,
      "duration": 0.0185,
      "velocity": 110,
      "chip": "ym2612"
    },
    {
      "channel": 2,
      "note": 54,
      "start": 4.6848,
      "duration": 0.018,
      "velocity": 100,
      "chip": "ym2612"
    },
    {
      "channel": 1,
      "note": 71,
      "start": 4.686,
      "duration": 0.0179,
      "velocity": 110,
      "chip": "ym2612"
    },
    {
      "channel": 0,
      "note": 36,
      "start": 4.6975,
      "duration": 0.0143,
      "velocity": 115,
      "chip": "ym2612"
    },
    {
      "channel": 3,
      "note": 75,
      "start": 4.7016,
      "duration": 0.0138,
      "velocity": 110,
      "chip": "ym2612"
    },
    {
      "channel": 2,
      "note": 54,
      "start": 4.7028,
      "duration": 0.0137,
      "velocity": 100,
      "chip": "ym2612"
    },
    {
      "channel": 1,
      "note": 71,
      "start": 4.7039,
      "duration": 0.0143,
      "velocity": 110,
      "chip": "ym2612"
    },
    {
      "channel": 0,
      "note": 36,
      "start": 4.7118,
      "duration": 0.016,
      "velocity": 115,
      "chip": "ym2612"
    },
    {
      "channel": 2,
      "note": 54,
      "start": 4.7165,
      "duration": 0.016,
      "velocity": 100,
      "chip": "ym2612"
    },
    {
      "channel": 0,
      "note": 37,
      "start": 4.7278,
      "duration": 0.0161,
      "velocity": 115,
      "chip": "ym2612"
    },
    {
      "channel": 2,
      "note": 54,
      "start": 4.7326,
      "duration": 0.0161,
      "velocity": 100,
      "chip": "ym2612"
    },
    {
      "channel": 0,
      "note": 37,
      "start": 4.7439,
      "duration": 0.0161,
      "velocity": 115,
      "chip": "ym2612"
    },
    {
      "channel": 2,
      "note": 54,
      "start": 4.7486,
      "duration": 0.0161,
      "velocity": 100,
      "chip": "ym2612"
    },
    {
      "channel": 0,
      "note": 38,
      "start": 4.76,
      "duration": 0.0161,
      "velocity": 115,
      "chip": "ym2612"
    },
    {
      "channel": 2,
      "note": 54,
      "start": 4.7647,
      "duration": 0.0162,
      "velocity": 100,
      "chip": "ym2612"
    },
    {
      "channel": 0,
      "note": 38,
      "start": 4.7761,
      "duration": 0.0161,
      "velocity": 115,
      "chip": "ym2612"
    },
    {
      "channel": 2,
      "note": 54,
      "start": 4.7809,
      "duration": 0.016,
      "velocity": 100,
      "chip": "ym2612"
    },
    {
      "channel": 0,
      "note": 39,
      "start": 4.7922,
      "duration": 0.0179,
      "velocity": 124,
      "chip": "ym2612"
    },
    {
      "channel": 2,
      "note": 54,
      "start": 4.7969,
      "duration": 0.0186,
      "velocity": 100,
      "chip": "ym2612"
    },
    {
      "channel": 0,
      "note": 84,
      "start": 4.8102,
      "duration": 0.0142,
      "velocity": 124,
      "chip": "ym2612"
    },
    {
      "channel": 3,
      "note": 71,
      "start": 4.8142,
      "duration": 0.0139,
      "velocity": 110,
      "chip": "ym2612"
    },
    {
      "channel": 2,
      "note": 56,
      "start": 4.8156,
      "duration": 0.0137,
      "velocity": 100,
      "chip": "ym2612"
    },
    {
      "channel": 1,
      "note": 75,
      "start": 4.8174,
      "duration": 0.0132,
      "velocity": 110,
      "chip": "ym2612"
    },
    {
      "channel": 0,
      "note": 82,
      "start": 4.8245,
      "duration": 0.0161,
      "velocity": 124,
      "chip": "ym2612"
    },
    {
      "channel": 3,
      "note": 71,
      "start": 4.8281,
      "duration": 0.016,
      "velocity": 110,
      "chip": "ym2612"
    },
    {
      "channel": 2,
      "note": 56,
      "start": 4.8293,
      "duration": 0.016,
      "velocity": 100,
      "chip": "ym2612"
    },
    {
      "channel": 1,
      "note": 75,
      "start": 4.8306,
      "duration": 0.0158,
      "velocity": 110,
      "chip": "ym2612"
    },
    {
      "channel": 0,
      "note": 80,
      "start": 4.8406,
      "duration": 0.0161,
      "velocity": 124,
      "chip": "ym2612"
    },
    {
      "channel": 3,
      "note": 71,
      "start": 4.8441,
      "duration": 0.0161,
      "velocity": 110,
      "chip": "ym2612"
    },
    {
      "channel": 2,
      "note": 56,
      "start": 4.8453,
      "duration": 0.0161,
      "velocity": 100,
      "chip": "ym2612"
    },
    {
      "channel": 1,
      "note": 75,
      "start": 4.8464,
      "duration": 0.0161,
      "velocity": 110,
      "chip": "ym2612"
    },
    {
      "channel": 0,
      "note": 77,
      "start": 4.8567,
      "duration": 0.0161,
      "velocity": 124,
      "chip": "ym2612"
    },
    {
      "channel": 3,
      "note": 71,
      "start": 4.8602,
      "duration": 0.0161,
      "velocity": 110,
      "chip": "ym2612"
    },
    {
      "channel": 2,
      "note": 56,
      "start": 4.8614,
      "duration": 0.0161,
      "velocity": 100,
      "chip": "ym2612"
    },
    {
      "channel": 1,
      "note": 75,
      "start": 4.8625,
      "duration": 0.0161,
      "velocity": 110,
      "chip": "ym2612"
    },
    {
      "channel": 0,
      "note": 75,
      "start": 4.8728,
      "duration": 0.0161,
      "velocity": 124,
      "chip": "ym2612"
    },
    {
      "channel": 3,
      "note": 71,
      "start": 4.8763,
      "duration": 0.0161,
      "velocity": 110,
      "chip": "ym2612"
    },
    {
      "channel": 2,
      "note": 56,
      "start": 4.8775,
      "duration": 0.0161,
      "velocity": 100,
      "chip": "ym2612"
    },
    {
      "channel": 1,
      "note": 75,
      "start": 4.8786,
      "duration": 0.0161,
      "velocity": 110,
      "chip": "ym2612"
    },
    {
      "channel": 0,
      "note": 72,
      "start": 4.8888,
      "duration": 0.018,
      "velocity": 124,
      "chip": "ym2612"
    },
    {
      "channel": 3,
      "note": 71,
      "start": 4.8924,
      "duration": 0.018,
      "velocity": 110,
      "chip": "ym2612"
    },
    {
      "channel": 2,
      "note": 56,
      "start": 4.8936,
      "duration": 0.018,
      "velocity": 100,
      "chip": "ym2612"
    },
    {
      "channel": 1,
      "note": 75,
      "start": 4.8947,
      "duration": 0.018,
      "velocity": 110,
      "chip": "ym2612"
    },
    {
      "channel": 0,
      "note": 84,
      "start": 4.9068,
      "duration": 0.0143,
      "velocity": 124,
      "chip": "ym2612"
    },
    {
      "channel": 3,
      "note": 71,
      "start": 4.9104,
      "duration": 0.0143,
      "velocity": 110,
      "chip": "ym2612"
    },
    {
      "channel": 2,
      "note": 56,
      "start": 4.9116,
      "duration": 0.0143,
      "velocity": 100,
      "chip": "ym2612"
    },
    {
      "channel": 1,
      "note": 75,
      "start": 4.9127,
      "duration": 0.0143,
      "velocity": 110,
      "chip": "ym2612"
    },
    {
      "channel": 0,
      "note": 82,
      "start": 4.9211,
      "duration": 0.0161,
      "velocity": 124,
      "chip": "ym2612"
    },
    {
      "channel": 2,
      "note": 56,
      "start": 4.9259,
      "duration": 0.016,
      "velocity": 100,
      "chip": "ym2612"
    },
    {
      "channel": 0,
      "note": 80,
      "start": 4.9372,
      "duration": 0.0162,
      "velocity": 124,
      "chip": "ym2612"
    },
    {
      "channel": 2,
      "note": 56,
      "start": 4.9419,
      "duration": 0.0162,
      "velocity": 100,
      "chip": "ym2612"
    },
    {
      "channel": 0,
      "note": 77,
      "start": 4.9534,
      "duration": 0.0163,
      "velocity": 124,
      "chip": "ym2612"
    },
    {
      "channel": 2,
      "note": 56,
      "start": 4.9581,
      "duration": 0.0163,
      "velocity": 100,
      "chip": "ym2612"
    },
    {
      "channel": 0,
      "note": 75,
      "start": 4.9697,
      "duration": 0.0163,
      "velocity": 124,
      "chip": "ym2612"
    },
    {
      "channel": 2,
      "note": 56,
      "start": 4.9744,
      "duration": 0.0163,
      "velocity": 100,
      "chip": "ym2612"
    },
    {
      "channel": 0,
      "note": 72,
      "start": 4.9861,
      "duration": 0.016,
      "velocity": 124,
      "chip": "ym2612"
    },
    {
      "channel": 2,
      "note": 56,
      "start": 4.9908,
      "duration": 0.0161,
      "velocity": 100,
      "chip": "ym2612"
    },
    {
      "channel": 0,
      "note": 70,
      "start": 5.0021,
      "duration": 0.018,
      "velocity": 115,
      "chip": "ym2612"
    },
    {
      "channel": 2,
      "note": 56,
      "start": 5.0068,
      "duration": 0.019,
      "velocity": 100,
      "chip": "ym2612"
    },
    {
      "channel": 0,
      "note": 36,
      "start": 5.0201,
      "duration": 0.0139,
      "velocity": 115,
      "chip": "ym2612"
    },
    {
      "channel": 3,
      "note": 75,
      "start": 5.0244,
      "duration": 0.0138,
      "velocity": 110,
      "chip": "ym2612"
    },
    {
      "channel": 2,
      "note": 59,
      "start": 5.0259,
      "duration": 0.0136,
      "velocity": 100,
      "chip": "ym2612"
    },
    {
      "channel": 1,
      "note": 71,
      "start": 5.0273,
      "duration": 0.0133,
      "velocity": 110,
      "chip": "ym2612"
    },
    {
      "channel": 0,
      "note": 36,
      "start": 5.034,
      "duration": 0.0159,
      "velocity": 115,
      "chip": "ym2612"
    },
    {
      "channel": 3,
      "note": 75,
      "start": 5.0382,
      "duration": 0.0159,
      "velocity": 110,
      "chip": "ym2612"
    },
    {
      "channel": 2,
      "note": 59,
      "start": 5.0394,
      "duration": 0.0158,
      "velocity": 100,
      "chip": "ym2612"
    },
    {
      "channel": 1,
      "note": 71,
      "start": 5.0406,
      "duration": 0.0157,
      "velocity": 110,
      "chip": "ym2612"
    },
    {
      "channel": 0,
      "note": 37,
      "start": 5.0499,
      "duration": 0.0161,
      "velocity": 115,
      "chip": "ym2612"
    },
    {
      "channel": 3,
      "note": 75,
      "start": 5.0541,
      "duration": 0.0161,
      "velocity": 110,
      "chip": "ym2612"
    },
    {
      "channel": 2,
      "note": 59,
      "start": 5.0552,
      "duration": 0.0161,
      "velocity": 100,
      "chip": "ym2612"
    },
    {
      "channel": 1,
      "note": 71,
      "start": 5.0563,
      "duration": 0.0161,
      "velocity": 110,
      "chip": "ym2612"
    },
    {
      "channel": 0,
      "note": 37,
      "start": 5.0659,
      "duration": 0.0161,
      "velocity": 115,
      "chip": "ym2612"
    },
    {
      "channel": 3,
      "note": 75,
      "start": 5.0702,
      "duration": 0.0161,
      "velocity": 110,
      "chip": "ym2612"
    },
    {
      "channel": 2,
      "note": 59,
      "start": 5.0713,
      "duration": 0.0161,
      "velocity": 100,
      "chip": "ym2612"
    },
    {
      "channel": 1,
      "note": 71,
      "start": 5.0724,
      "duration": 0.0161,
      "velocity": 110,
      "chip": "ym2612"
    },
    {
      "channel": 0,
      "note": 38,
      "start": 5.082,
      "duration": 0.0161,
      "velocity": 115,
      "chip": "ym2612"
    },
    {
      "channel": 3,
      "note": 75,
      "start": 5.0862,
      "duration": 0.0161,
      "velocity": 110,
      "chip": "ym2612"
    },
    {
      "channel": 2,
      "note": 59,
      "start": 5.0874,
      "duration": 0.0161,
      "velocity": 100,
      "chip": "ym2612"
    },
    {
      "channel": 1,
      "note": 71,
      "start": 5.0885,
      "duration": 0.0161,
      "velocity": 110,
      "chip": "ym2612"
    },
    {
      "channel": 0,
      "note": 38,
      "start": 5.0981,
      "duration": 0.0161,
      "velocity": 115,
      "chip": "ym2612"
    },
    {
      "channel": 3,
      "note": 75,
      "start": 5.1023,
      "duration": 0.016,
      "velocity": 110,
      "chip": "ym2612"
    },
    {
      "channel": 2,
      "note": 59,
      "start": 5.1035,
      "duration": 0.0161,
      "velocity": 100,
      "chip": "ym2612"
    },
    {
      "channel": 1,
      "note": 71,
      "start": 5.1046,
      "duration": 0.0161,
      "velocity": 110,
      "chip": "ym2612"
    },
    {
      "channel": 0,
      "note": 39,
      "start": 5.1142,
      "duration": 0.0161,
      "velocity": 115,
      "chip": "ym2612"
    },
    {
      "channel": 3,
      "note": 75,
      "start": 5.1184,
      "duration": 0.0158,
      "velocity": 110,
      "chip": "ym2612"
    },
    {
      "channel": 2,
      "note": 59,
      "start": 5.1196,
      "duration": 0.016,
      "velocity": 100,
      "chip": "ym2612"
    },
    {
      "channel": 1,
      "note": 71,
      "start": 5.1207,
      "duration": 0.0161,
      "velocity": 110,
      "chip": "ym2612"
    },
    {
      "channel": 0,
      "note": 39,
      "start": 5.1304,
      "duration": 0.0161,
      "velocity": 115,
      "chip": "ym2612"
    },
    {
      "channel": 2,
      "note": 59,
      "start": 5.1356,
      "duration": 0.0161,
      "velocity": 100,
      "chip": "ym2612"
    },
    {
      "channel": 0,
      "note": 40,
      "start": 5.1465,
      "duration": 0.0161,
      "velocity": 115,
      "chip": "ym2612"
    },
    {
      "channel": 2,
      "note": 59,
      "start": 5.1517,
      "duration": 0.0159,
      "velocity": 100,
      "chip": "ym2612"
    },
    {
      "channel": 0,
      "note": 40,
      "start": 5.1626,
      "duration": 0.0161,
      "velocity": 115,
      "chip": "ym2612"
    },
    {
      "channel": 2,
      "note": 59,
      "start": 5.1676,
      "duration": 0.0158,
      "velocity": 100,
      "chip": "ym2612"
    },
    {
      "channel": 0,
      "note": 40,
      "start": 5.1787,
      "duration": 0.0161,
      "velocity": 115,
      "chip": "ym2612"
    },
    {
      "channel": 2,
      "note": 59,
      "start": 5.1834,
      "duration": 0.0161,
      "velocity": 100,
      "chip": "ym2612"
    },
    {
      "channel": 0,
      "note": 41,
      "start": 5.1948,
      "duration": 0.0161,
      "velocity": 115,
      "chip": "ym2612"
    },
    {
      "channel": 2,
      "note": 59,
      "start": 5.1995,
      "duration": 0.0161,
      "velocity": 100,
      "chip": "ym2612"
    },
    {
      "channel": 0,
      "note": 41,
      "start": 5.2109,
      "duration": 0.0161,
      "velocity": 115,
      "chip": "ym2612"
    },
    {
      "channel": 2,
      "note": 59,
      "start": 5.2156,
      "duration": 0.0166,
      "velocity": 100,
      "chip": "ym2612"
    },
    {
      "channel": 0,
      "note": 42,
      "start": 5.227,
      "duration": 0.0161,
      "velocity": 115,
      "chip": "ym2612"
    },
    {
      "channel": 3,
      "note": 71,
      "start": 5.231,
      "duration": 0.0156,
      "velocity": 110,
      "chip": "ym2612"
    },
    {
      "channel": 2,
      "note": 59,
      "start": 5.2322,
      "duration": 0.0156,
      "velocity": 100,
      "chip": "ym2612"
    },
    {
      "channel": 1,
      "note": 75,
      "start": 5.2341,
      "duration": 0.0149,
      "velocity": 110,
      "chip": "ym2612"
    },
    {
      "channel": 0,
      "note": 42,
      "start": 5.2431,
      "duration": 0.0161,
      "velocity": 115,
      "chip": "ym2612"
    },
    {
      "channel": 3,
      "note": 71,
      "start": 5.2467,
      "duration": 0.016,
      "velocity": 110,
      "chip": "ym2612"
    },
    {
      "channel": 2,
      "note": 59,
      "start": 5.2478,
      "duration": 0.016,
      "velocity": 100,
      "chip": "ym2612"
    },
    {
      "channel": 1,
      "note": 75,
      "start": 5.249,
      "duration": 0.016,
      "velocity": 110,
      "chip": "ym2612"
    },
    {
      "channel": 0,
      "note": 43,
      "start": 5.2591,
      "duration": 0.0162,
      "velocity": 115,
      "chip": "ym2612"
    },
    {
      "channel": 3,
      "note": 71,
      "start": 5.2627,
      "duration": 0.0161,
      "velocity": 110,
      "chip": "ym2612"
    },
    {
      "channel": 2,
      "note": 59,
      "start": 5.2639,
      "duration": 0.0161,
      "velocity": 100,
      "chip": "ym2612"
    },
    {
      "channel": 1,
      "note": 75,
      "start": 5.265,
      "duration": 0.0162,
      "velocity": 110,
      "chip": "ym2612"
    },
    {
      "channel": 0,
      "note": 43,
      "start": 5.2753,
      "duration": 0.0161,
      "velocity": 115,
      "chip": "ym2612"
    },
    {
      "channel": 2,
      "note": 59,
      "start": 5.28,
      "duration": 0.0161,
      "velocity": 100,
      "chip": "ym2612"
    },
    {
      "channel": 0,
      "note": 44,
      "start": 5.2914,
      "duration": 0.0161,
      "velocity": 115,
      "chip": "ym2612"
    },
    {
      "channel": 2,
      "note": 59,
      "start": 5.2961,
      "duration": 0.0161,
      "velocity": 100,
      "chip": "ym2612"
    },
    {
      "channel": 0,
      "note": 44,
      "start": 5.3075,
      "duration": 0.0179,
      "velocity": 115,
      "chip": "ym2612"
    },
    {
      "channel": 2,
      "note": 59,
      "start": 5.3122,
      "duration": 0.0185,
      "velocity": 100,
      "chip": "ym2612"
    },
    {
      "channel": 0,
      "note": 36,
      "start": 5.3254,
      "duration": 0.0143,
      "velocity": 115,
      "chip": "ym2612"
    },
    {
      "channel": 3,
      "note": 71,
      "start": 5.3293,
      "duration": 0.0141,
      "velocity": 110,
      "chip": "ym2612"
    },
    {
      "channel": 2,
      "note": 59,
      "start": 5.3308,
      "duration": 0.0138,
      "velocity": 100,
      "chip": "ym2612"
    },
    {
      "channel": 1,
      "note": 75,
      "start": 5.3322,
      "duration": 0.0135,
      "velocity": 110,
      "chip": "ym2612"
    },
    {
      "channel": 0,
      "note": 36,
      "start": 5.3398,
      "duration": 0.016,
      "velocity": 115,
      "chip": "ym2612"
    },
    {
      "channel": 3,
      "note": 71,
      "start": 5.3434,
      "duration": 0.016,
      "velocity": 110,
      "chip": "ym2612"
    },
    {
      "channel": 2,
      "note": 59,
      "start": 5.3446,
      "duration": 0.0159,
      "velocity": 100,
      "chip": "ym2612"
    },
    {
      "channel": 1,
      "note": 75,
      "start": 5.3458,
      "duration": 0.0159,
      "velocity": 110,
      "chip": "ym2612"
    },
    {
      "channel": 0,
      "note": 37,
      "start": 5.3558,
      "duration": 0.0161,
      "velocity": 115,
      "chip": "ym2612"
    },
    {
      "channel": 3,
      "note": 71,
      "start": 5.3593,
      "duration": 0.0161,
      "velocity": 110,
      "chip": "ym2612"
    },
    {
      "channel": 2,
      "note": 59,
      "start": 5.3605,
      "duration": 0.0161,
      "velocity": 100,
      "chip": "ym2612"
    },
    {
      "channel": 1,
      "note": 75,
      "start": 5.3616,
      "duration": 0.0161,
      "velocity": 110,
      "chip": "ym2612"
    },
    {
      "channel": 0,
      "note": 37,
      "start": 5.3719,
      "duration": 0.0161,
      "velocity": 115,
      "chip": "ym2612"
    },
    {
      "channel": 3,
      "note": 71,
      "start": 5.3754,
      "duration": 0.0161,
      "velocity": 110,
      "chip": "ym2612"
    },
    {
      "channel": 2,
      "note": 59,
      "start": 5.3766,
      "duration": 0.0162,
      "velocity": 100,
      "chip": "ym2612"
    },
    {
      "channel": 1,
      "note": 75,
      "start": 5.3777,
      "duration": 0.0162,
      "velocity": 110,
      "chip": "ym2612"
    },
    {
      "channel": 0,
      "note": 38,
      "start": 5.388,
      "duration": 0.0162,
      "velocity": 115,
      "chip": "ym2612"
    },
    {
      "channel": 2,
      "note": 59,
      "start": 5.3927,
      "duration": 0.0161,
      "velocity": 100,
      "chip": "ym2612"
    },
    {
      "channel": 0,
      "note": 38,
      "start": 5.4041,
      "duration": 0.0161,
      "velocity": 115,
      "chip": "ym2612"
    },
    {
      "channel": 2,
      "note": 59,
      "start": 5.4088,
      "duration": 0.0162,
      "velocity": 100,
      "chip": "ym2612"
    },
    {
      "channel": 0,
      "note": 39,
      "start": 5.4202,
      "duration": 0.0183,
      "velocity": 124,
      "chip": "ym2612"
    },
    {
      "channel": 2,
      "note": 59,
      "start": 5.425,
      "duration": 0.0186,
      "velocity": 100,
      "chip": "ym2612"
    },
    {
      "channel": 0,
      "note": 84,
      "start": 5.4385,
      "duration": 0.0145,
      "velocity": 124,
      "chip": "ym2612"
    },
    {
      "channel": 3,
      "note": 75,
      "start": 5.4424,
      "duration": 0.0143,
      "velocity": 110,
      "chip": "ym2612"
    },
    {
      "channel": 2,
      "note": 59,
      "start": 5.4436,
      "duration": 0.0142,
      "velocity": 100,
      "chip": "ym2612"
    },
    {
      "channel": 1,
      "note": 71,
      "start": 5.4451,
      "duration": 0.0139,
      "velocity": 110,
      "chip": "ym2612"
    },
    {
      "channel": 0,
      "note": 82,
      "start": 5.453,
      "duration": 0.016,
      "velocity": 124,
      "chip": "ym2612"
    },
    {
      "channel": 3,
      "note": 75,
      "start": 5.4567,
      "duration": 0.016,
      "velocity": 110,
      "chip": "ym2612"
    },
    {
      "channel": 2,
      "note": 59,
      "start": 5.4579,
      "duration": 0.016,
      "velocity": 100,
      "chip": "ym2612"
    },
    {
      "channel": 1,
      "note": 71,
      "start": 5.4591,
      "duration": 0.0159,
      "velocity": 110,
      "chip": "ym2612"
    },
    {
      "channel": 0,
      "note": 80,
      "start": 5.4691,
      "duration": 0.0161,
      "velocity": 124,
      "chip": "ym2612"
    },
    {
      "channel": 3,
      "note": 75,
      "start": 5.4726,
      "duration": 0.0161,
      "velocity": 110,
      "chip": "ym2612"
    },
    {
      "channel": 2,
      "note": 59,
      "start": 5.4738,
      "duration": 0.0161,
      "velocity": 100,
      "chip": "ym2612"
    },
    {
      "channel": 1,
      "note": 71,
      "start": 5.475,
      "duration": 0.0161,
      "velocity": 110,
      "chip": "ym2612"
    },
    {
      "channel": 0,
      "note": 77,
      "start": 5.4852,
      "duration": 0.0158,
      "velocity": 124,
      "chip": "ym2612"
    },
    {
      "channel": 2,
      "note": 59,
      "start": 5.4899,
      "duration": 0.0161,
      "velocity": 100,
      "chip": "ym2612"
    },
    {
      "channel": 0,
      "note": 75,
      "start": 5.5009,
      "duration": 0.0159,
      "velocity": 124,
      "chip": "ym2612"
    },
    {
      "channel": 2,
      "note": 59,
      "start": 5.506,
      "duration": 0.0161,
      "velocity": 100,
      "chip": "ym2612"
    },
    {
      "channel": 0,
      "note": 72,
      "start": 5.5168,
      "duration": 0.0161,
      "velocity": 124,
      "chip": "ym2612"
    },
    {
      "channel": 2,
      "note": 59,
      "start": 5.5221,
      "duration": 0.0166,
      "velocity": 100,
      "chip": "ym2612"
    },
    {
      "channel": 0,
      "note": 70,
      "start": 5.5329,
      "duration": 0.0161,
      "velocity": 124,
      "chip": "ym2612"
    },
    {
      "channel": 3,
      "note": 75,
      "start": 5.5374,
      "duration": 0.0158,
      "velocity": 110,
      "chip": "ym2612"
    },
    {
      "channel": 2,
      "note": 59,
      "start": 5.5387,
      "duration": 0.0158,
      "velocity": 100,
      "chip": "ym2612"
    },
    {
      "channel": 1,
      "note": 71,
      "start": 5.5402,
      "duration": 0.0155,
      "velocity": 110,
      "chip": "ym2612"
    },
    {
      "channel": 0,
      "note": 68,
      "start": 5.549,
      "duration": 0.0161,
      "velocity": 124,
      "chip": "ym2612"
    },
    {
      "channel": 3,
      "note": 75,
      "start": 5.5532,
      "duration": 0.016,
      "velocity": 110,
      "chip": "ym2612"
    },
    {
      "channel": 2,
      "note": 59,
      "start": 5.5545,
      "duration": 0.016,
      "velocity": 100,
      "chip": "ym2612"
    },
    {
      "channel": 1,
      "note": 71,
      "start": 5.5557,
      "duration": 0.0159,
      "velocity": 110,
      "chip": "ym2612"
    },
    {
      "channel": 0,
      "note": 65,
      "start": 5.5651,
      "duration": 0.0162,
      "velocity": 124,
      "chip": "ym2612"
    },
    {
      "channel": 3,
      "note": 75,
      "start": 5.5693,
      "duration": 0.016,
      "velocity": 110,
      "chip": "ym2612"
    },
    {
      "channel": 2,
      "note": 59,
      "start": 5.5705,
      "duration": 0.0161,
      "velocity": 100,
      "chip": "ym2612"
    },
    {
      "channel": 1,
      "note": 71,
      "start": 5.5716,
      "duration": 0.0161,
      "velocity": 110,
      "chip": "ym2612"
    },
    {
      "channel": 0,
      "note": 63,
      "start": 5.5812,
      "duration": 0.0153,
      "velocity": 1,
      "chip": "ym2612"
    },
    {
      "channel": 3,
      "note": 75,
      "start": 5.5852,
      "duration": 0.0148,
      "velocity": 110,
      "chip": "ym2612"
    },
    {
      "channel": 2,
      "note": 59,
      "start": 5.5866,
      "duration": 0.0153,
      "velocity": 100,
      "chip": "ym2612"
    },
    {
      "channel": 1,
      "note": 71,
      "start": 5.5877,
      "duration": 0.0153,
      "velocity": 110,
      "chip": "ym2612"
    },
    {
      "channel": 2,
      "note": 59,
      "start": 5.6018,
      "duration": 0.0147,
      "velocity": 100,
      "chip": "ym2612"
    },
    {
      "channel": 2,
      "note": 59,
      "start": 5.6165,
      "duration": 0.0161,
      "velocity": 100,
      "chip": "ym2612"
    },
    {
      "channel": 2,
      "note": 59,
      "start": 5.6326,
      "duration": 0.0208,
      "velocity": 100,
      "chip": "ym2612"
    },
    {
      "channel": 0,
      "note": 36,
      "start": 5.6474,
      "duration": 0.0143,
      "velocity": 115,
      "chip": "ym2612"
    },
    {
      "channel": 3,
      "note": 71,
      "start": 5.652,
      "duration": 0.0134,
      "velocity": 110,
      "chip": "ym2612"
    },
    {
      "channel": 2,
      "note": 54,
      "start": 5.6534,
      "duration": 0.0132,
      "velocity": 100,
      "chip": "ym2612"
    },
    {
      "channel": 1,
      "note": 75,
      "start": 5.6549,
      "duration": 0.0134,
      "velocity": 110,
      "chip": "ym2612"
    },
    {
      "channel": 0,
      "note": 36,
      "start": 5.6617,
      "duration": 0.016,
      "velocity": 115,
      "chip": "ym2612"
    },
    {
      "channel": 3,
      "note": 71,
      "start": 5.6654,
      "duration": 0.016,
      "velocity": 110,
      "chip": "ym2612"
    },
    {
      "channel": 2,
      "note": 54,
      "start": 5.6666,
      "duration": 0.016,
      "velocity": 100,
      "chip": "ym2612"
    },
    {
      "channel": 1,
      "note": 75,
      "start": 5.6684,
      "duration": 0.0153,
      "velocity": 110,
      "chip": "ym2612"
    },
    {
      "channel": 0,
      "note": 37,
      "start": 5.6778,
      "duration": 0.0161,
      "velocity": 115,
      "chip": "ym2612"
    },
    {
      "channel": 3,
      "note": 71,
      "start": 5.6814,
      "duration": 0.016,
      "velocity": 110,
      "chip": "ym2612"
    },
    {
      "channel": 2,
      "note": 54,
      "start": 5.6826,
      "duration": 0.016,
      "velocity": 100,
      "chip": "ym2612"
    },
    {
      "channel": 1,
      "note": 75,
      "start": 5.6837,
      "duration": 0.0161,
      "velocity": 110,
      "chip": "ym2612"
    },
    {
      "channel": 0,
      "note": 37,
      "start": 5.6939,
      "duration": 0.0161,
      "velocity": 115,
      "chip": "ym2612"
    },
    {
      "channel": 3,
      "note": 71,
      "start": 5.6974,
      "duration": 0.0161,
      "velocity": 110,
      "chip": "ym2612"
    },
    {
      "channel": 2,
      "note": 54,
      "start": 5.6986,
      "duration": 0.0161,
      "velocity": 100,
      "chip": "ym2612"
    },
    {
      "channel": 1,
      "note": 75,
      "start": 5.6998,
      "duration": 0.0161,
      "velocity": 110,
      "chip": "ym2612"
    },
    {
      "channel": 0,
      "note": 38,
      "start": 5.71,
      "duration": 0.0161,
      "velocity": 115,
      "chip": "ym2612"
    },
    {
      "channel": 3,
      "note": 71,
      "start": 5.7135,
      "duration": 0.0161,
      "velocity": 110,
      "chip": "ym2612"
    },
    {
      "channel": 2,
      "note": 54,
      "start": 5.7147,
      "duration": 0.0161,
      "velocity": 100,
      "chip": "ym2612"
    },
    {
      "channel": 1,
      "note": 75,
      "start": 5.7159,
      "duration": 0.0161,
      "velocity": 110,
      "chip": "ym2612"
    },
    {
      "channel": 0,
      "note": 38,
      "start": 5.7261,
      "duration": 0.0179,
      "velocity": 115,
      "chip": "ym2612"
    },
    {
      "channel": 3,
      "note": 71,
      "start": 5.7296,
      "duration": 0.018,
      "velocity": 110,
      "chip": "ym2612"
    },
    {
      "channel": 2,
      "note": 54,
      "start": 5.7308,
      "duration": 0.0183,
      "velocity": 100,
      "chip": "ym2612"
    },
    {
      "channel": 1,
      "note": 75,
      "start": 5.732,
      "duration": 0.0183,
      "velocity": 110,
      "chip": "ym2612"
    },
    {
      "channel": 0,
      "note": 36,
      "start": 5.7441,
      "duration": 0.0143,
      "velocity": 115,
      "chip": "ym2612"
    },
    {
      "channel": 3,
      "note": 71,
      "start": 5.7476,
      "duration": 0.0143,
      "velocity": 110,
      "chip": "ym2612"
    },
    {
      "channel": 2,
      "note": 56,
      "start": 5.749,
      "duration": 0.0141,
      "velocity": 100,
      "chip": "ym2612"
    },
    {
      "channel": 1,
      "note": 75,
      "start": 5.7502,
      "duration": 0.0141,
      "velocity": 110,
      "chip": "ym2612"
    },
    {
      "channel": 0,
      "note": 36,
      "start": 5.7584,
      "duration": 0.016,
      "velocity": 115,
      "chip": "ym2612"
    },
    {
      "channel": 2,
      "note": 56,
      "start": 5.7632,
      "duration": 0.016,
      "velocity": 100,
      "chip": "ym2612"
    },
    {
      "channel": 0,
      "note": 37,
      "start": 5.7744,
      "duration": 0.0161,
      "velocity": 115,
      "chip": "ym2612"
    },
    {
      "channel": 2,
      "note": 56,
      "start": 5.7791,
      "duration": 0.0161,
      "velocity": 100,
      "chip": "ym2612"
    },
    {
      "channel": 0,
      "note": 37,
      "start": 5.7905,
      "duration": 0.0161,
      "velocity": 115,
      "chip": "ym2612"
    },
    {
      "channel": 2,
      "note": 56,
      "start": 5.7952,
      "duration": 0.0161,
      "velocity": 100,
      "chip": "ym2612"
    },
    {
      "channel": 0,
      "note": 38,
      "start": 5.8066,
      "duration": 0.0161,
      "velocity": 115,
      "chip": "ym2612"
    },
    {
      "channel": 2,
      "note": 56,
      "start": 5.8114,
      "duration": 0.016,
      "velocity": 100,
      "chip": "ym2612"
    },
    {
      "channel": 0,
      "note": 38,
      "start": 5.8227,
      "duration": 0.0161,
      "velocity": 115,
      "chip": "ym2612"
    },
    {
      "channel": 2,
      "note": 56,
      "start": 5.8274,
      "duration": 0.0161,
      "velocity": 100,
      "chip": "ym2612"
    },
    {
      "channel": 0,
      "note": 39,
      "start": 5.8388,
      "duration": 0.0179,
      "velocity": 115,
      "chip": "ym2612"
    },
    {
      "channel": 2,
      "note": 56,
      "start": 5.8435,
      "duration": 0.0186,
      "velocity": 100,
      "chip": "ym2612"
    },
    {
      "channel": 0,
      "note": 36,
      "start": 5.8568,
      "duration": 0.0143,
      "velocity": 115,
      "chip": "ym2612"
    },
    {
      "channel": 3,
      "note": 75,
      "start": 5.8607,
      "duration": 0.0141,
      "velocity": 110,
      "chip": "ym2612"
    },
    {
      "channel": 2,
      "note": 59,
      "start": 5.8621,
      "duration": 0.0138,
      "velocity": 100,
      "chip": "ym2612"
    },
    {
      "channel": 1,
      "note": 71,
      "start": 5.8636,
      "duration": 0.0135,
      "velocity": 110,
      "chip": "ym2612"
    },
    {
      "channel": 0,
      "note": 36,
      "start": 5.8711,
      "duration": 0.0161,
      "velocity": 115,
      "chip": "ym2612"
    },
    {
      "channel": 3,
      "note": 75,
      "start": 5.8747,
      "duration": 0.016,
      "velocity": 110,
      "chip": "ym2612"
    },
    {
      "channel": 2,
      "note": 59,
      "start": 5.8759,
      "duration": 0.016,
      "velocity": 100,
      "chip": "ym2612"
    },
    {
      "channel": 1,
      "note": 71,
      "start": 5.8771,
      "duration": 0.0159,
      "velocity": 110,
      "chip": "ym2612"
    },
    {
      "channel": 0,
      "note": 37,
      "start": 5.8872,
      "duration": 0.0162,
      "velocity": 115,
      "chip": "ym2612"
    },
    {
      "channel": 3,
      "note": 75,
      "start": 5.8908,
      "duration": 0.0161,
      "velocity": 110,
      "chip": "ym2612"
    },
    {
      "channel": 2,
      "note": 59,
      "start": 5.8919,
      "duration": 0.0162,
      "velocity": 100,
      "chip": "ym2612"
    },
    {
      "channel": 1,
      "note": 71,
      "start": 5.8931,
      "duration": 0.0161,
      "velocity": 110,
      "chip": "ym2612"
    },
    {
      "channel": 0,
      "note": 37,
      "start": 5.9034,
      "duration": 0.0163,
      "velocity": 115,
      "chip": "ym2612"
    },
    {
      "channel": 3,
      "note": 75,
      "start": 5.9069,
      "duration": 0.0163,
      "velocity": 110,
      "chip": "ym2612"
    },
    {
      "channel": 2,
      "note": 59,
      "start": 5.9081,
      "duration": 0.0163,
      "velocity": 100,
      "chip": "ym2612"
    },
    {
      "channel": 1,
      "note": 71,
      "start": 5.9092,
      "duration": 0.0163,
      "velocity": 110,
      "chip": "ym2612"
    },
    {
      "channel": 0,
      "note": 38,
      "start": 5.9197,
      "duration": 0.0163,
      "velocity": 115,
      "chip": "ym2612"
    },
    {
      "channel": 3,
      "note": 75,
      "start": 5.9233,
      "duration": 0.0163,
      "velocity": 110,
      "chip": "ym2612"
    },
    {
      "channel": 2,
      "note": 59,
      "start": 5.9244,
      "duration": 0.0163,
      "velocity": 100,
      "chip": "ym2612"
    },
    {
      "channel": 1,
      "note": 71,
      "start": 5.9256,
      "duration": 0.0163,
      "velocity": 110,
      "chip": "ym2612"
    },
    {
      "channel": 0,
      "note": 38,
      "start": 5.936,
      "duration": 0.0179,
      "velocity": 127,
      "chip": "ym2612"
    },
    {
      "channel": 3,
      "note": 75,
      "start": 5.9396,
      "duration": 0.0179,
      "velocity": 110,
      "chip": "ym2612"
    },
    {
      "channel": 2,
      "note": 59,
      "start": 5.9408,
      "duration": 0.0182,
      "velocity": 100,
      "chip": "ym2612"
    },
    {
      "channel": 1,
      "note": 71,
      "start": 5.9419,
      "duration": 0.0183,
      "velocity": 110,
      "chip": "ym2612"
    },
    {
      "channel": 0,
      "note": 88,
      "start": 5.954,
      "duration": 0.0142,
      "velocity": 127,
      "chip": "ym2612"
    },
    {
      "channel": 3,
      "note": 75,
      "start": 5.9576,
      "duration": 0.0143,
      "velocity": 110,
      "chip": "ym2612"
    },
    {
      "channel": 2,
      "note": 71,
      "start": 5.959,
      "duration": 0.0141,
      "velocity": 100,
      "chip": "ym2612"
    },
    {
      "channel": 1,
      "note": 71,
      "start": 5.9602,
      "duration": 0.0141,
      "velocity": 110,
      "chip": "ym2612"
    },
    {
      "channel": 0,
      "note": 86,
      "start": 5.9682,
      "duration": 0.0155,
      "velocity": 127,
      "chip": "ym2612"
    },
    {
      "channel": 2,
      "note": 71,
      "start": 5.9731,
      "duration": 0.016,
      "velocity": 100,
      "chip": "ym2612"
    },
    {
      "channel": 0,
      "note": 85,
      "start": 5.9837,
      "duration": 0.0161,
      "velocity": 127,
      "chip": "ym2612"
    },
    {
      "channel": 2,
      "note": 71,
      "start": 5.989,
      "duration": 0.0161,
      "velocity": 100,
      "chip": "ym2612"
    },
    {
      "channel": 0,
      "note": 83,
      "start": 5.9998,
      "duration": 0.0161,
      "velocity": 127,
      "chip": "ym2612"
    },
    {
      "channel": 2,
      "note": 71,
      "start": 6.0051,
      "duration": 0.0161,
      "velocity": 100,
      "chip": "ym2612"
    },
    {
      "channel": 0,
      "note": 81,
      "start": 6.0159,
      "duration": 0.0161,
      "velocity": 127,
      "chip": "ym2612"
    },
    {
      "channel": 2,
      "note": 71,
      "start": 6.0212,
      "duration": 0.0161,
      "velocity": 100,
      "chip": "ym2612"
    },
    {
      "channel": 0,
      "note": 80,
      "start": 6.032,
      "duration": 0.0161,
      "velocity": 127,
      "chip": "ym2612"
    },
    {
      "channel": 2,
      "note": 71,
      "start": 6.0373,
      "duration": 0.0161,
      "velocity": 100,
      "chip": "ym2612"
    },
    {
      "channel": 0,
      "note": 78,
      "start": 6.0481,
      "duration": 0.0161,
      "velocity": 127,
      "chip": "ym2612"
    },
    {
      "channel": 2,
      "note": 71,
      "start": 6.0534,
      "duration": 0.0168,
      "velocity": 100,
      "chip": "ym2612"
    },
    {
      "channel": 0,
      "note": 76,
      "start": 6.0642,
      "duration": 0.0161,
      "velocity": 127,
      "chip": "ym2612"
    },
    {
      "channel": 3,
      "note": 71,
      "start": 6.0688,
      "duration": 0.0153,
      "velocity": 110,
      "chip": "ym2612"
    },
    {
      "channel": 2,
      "note": 59,
      "start": 6.0703,
      "duration": 0.0155,
      "velocity": 100,
      "chip": "ym2612"
    },
    {
      "channel": 1,
      "note": 75,
      "start": 6.0718,
      "duration": 0.0151,
      "velocity": 110,
      "chip": "ym2612"
    },
    {
      "channel": 0,
      "note": 75,
      "start": 6.0803,
      "duration": 0.0161,
      "velocity": 127,
      "chip": "ym2612"
    },
    {
      "channel": 3,
      "note": 71,
      "start": 6.0841,
      "duration": 0.0158,
      "velocity": 110,
      "chip": "ym2612"
    },
    {
      "channel": 2,
      "note": 59,
      "start": 6.0857,
      "duration": 0.016,
      "velocity": 100,
      "chip": "ym2612"
    },
    {
      "channel": 1,
      "note": 75,
      "start": 6.0869,
      "duration": 0.016,
      "velocity": 110,
      "chip": "ym2612"
    },
    {
      "channel": 0,
      "note": 73,
      "start": 6.0964,
      "duration": 0.0161,
      "velocity": 127,
      "chip": "ym2612"
    },
    {
      "channel": 3,
      "note": 71,
      "start": 6.1,
      "duration": 0.0161,
      "velocity": 110,
      "chip": "ym2612"
    },
    {
      "channel": 2,
      "note": 59,
      "start": 6.1017,
      "duration": 0.0157,
      "velocity": 100,
      "chip": "ym2612"
    },
    {
      "channel": 1,
      "note": 75,
      "start": 6.1029,
      "duration": 0.0161,
      "velocity": 110,
      "chip": "ym2612"
    },
    {
      "channel": 0,
      "note": 71,
      "start": 6.1125,
      "duration": 0.0161,
      "velocity": 127,
      "chip": "ym2612"
    },
    {
      "channel": 3,
      "note": 71,
      "start": 6.1161,
      "duration": 0.0161,
      "velocity": 110,
      "chip": "ym2612"
    },
    {
      "channel": 2,
      "note": 59,
      "start": 6.1174,
      "duration": 0.0159,
      "velocity": 100,
      "chip": "ym2612"
    },
    {
      "channel": 1,
      "note": 75,
      "start": 6.119,
      "duration": 0.016,
      "velocity": 110,
      "chip": "ym2612"
    },
    {
      "channel": 0,
      "note": 69,
      "start": 6.1286,
      "duration": 0.0161,
      "velocity": 127,
      "chip": "ym2612"
    },
    {
      "channel": 3,
      "note": 71,
      "start": 6.1322,
      "duration": 0.0161,
      "velocity": 110,
      "chip": "ym2612"
    },
    {
      "channel": 2,
      "note": 59,
      "start": 6.1333,
      "duration": 0.0161,
      "velocity": 100,
      "chip": "ym2612"
    },
    {
      "channel": 1,
      "note": 75,
      "start": 6.135,
      "duration": 0.0158,
      "velocity": 110,
      "chip": "ym2612"
    },
    {
      "channel": 0,
      "note": 68,
      "start": 6.1447,
      "duration": 0.018,
      "velocity": 127,
      "chip": "ym2612"
    },
    {
      "channel": 3,
      "note": 71,
      "start": 6.1483,
      "duration": 0.018,
      "velocity": 110,
      "chip": "ym2612"
    },
    {
      "channel": 2,
      "note": 59,
      "start": 6.1494,
      "duration": 0.0188,
      "velocity": 100,
      "chip": "ym2612"
    },
    {
      "channel": 1,
      "note": 75,
      "start": 6.1508,
      "duration": 0.0186,
      "velocity": 110,
      "chip": "ym2612"
    },
    {
      "channel": 0,
      "note": 84,
      "start": 6.1627,
      "duration": 0.0143,
      "velocity": 127,
      "chip": "ym2612"
    },
    {
      "channel": 3,
      "note": 71,
      "start": 6.1663,
      "duration": 0.0142,
      "velocity": 110,
      "chip": "ym2612"
    },
    {
      "channel": 2,
      "note": 71,
      "start": 6.1682,
      "duration": 0.0136,
      "velocity": 100,
      "chip": "ym2612"
    },
    {
      "channel": 1,
      "note": 75,
      "start": 6.1695,
      "duration": 0.0135,
      "velocity": 110,
      "chip": "ym2612"
    },
    {
      "channel": 0,
      "note": 82,
      "start": 6.177,
      "duration": 0.0161,
      "velocity": 127,
      "chip": "ym2612"
    },
    {
      "channel": 2,
      "note": 71,
      "start": 6.1818,
      "duration": 0.016,
      "velocity": 100,
      "chip": "ym2612"
    },
    {
      "channel": 0,
      "note": 81,
      "start": 6.1931,
      "duration": 0.0161,
      "velocity": 127,
      "chip": "ym2612"
    },
    {
      "channel": 2,
      "note": 71,
      "start": 6.1978,
      "duration": 0.0161,
      "velocity": 100,
      "chip": "ym2612"
    },
    {
      "channel": 0,
      "note": 79,
      "start": 6.2091,
      "duration": 0.0161,
      "velocity": 127,
      "chip": "ym2612"
    },
    {
      "channel": 2,
      "note": 71,
      "start": 6.2139,
      "duration": 0.0161,
      "velocity": 100,
      "chip": "ym2612"
    },
    {
      "channel": 0,
      "note": 77,
      "start": 6.2252,
      "duration": 0.0161,
      "velocity": 127,
      "chip": "ym2612"
    },
    {
      "channel": 2,
      "note": 71,
      "start": 6.23,
      "duration": 0.0161,
      "velocity": 100,
      "chip": "ym2612"
    },
    {
      "channel": 0,
      "note": 76,
      "start": 6.2413,
      "duration": 0.0161,
      "velocity": 127,
      "chip": "ym2612"
    },
    {
      "channel": 2,
      "note": 71,
      "start": 6.246,
      "duration": 0.0161,
      "velocity": 100,
      "chip": "ym2612"
    },
    {
      "channel": 0,
      "note": 74,
      "start": 6.2574,
      "duration": 0.018,
      "velocity": 127,
      "chip": "ym2612"
    },
    {
      "channel": 2,
      "note": 71,
      "start": 6.2621,
      "duration": 0.0186,
      "velocity": 100,
      "chip": "ym2612"
    },
    {
      "channel": 0,
      "note": 78,
      "start": 6.2754,
      "duration": 0.0143,
      "velocity": 127,
      "chip": "ym2612"
    },
    {
      "channel": 3,
      "note": 75,
      "start": 6.2794,
      "duration": 0.0139,
      "velocity": 110,
      "chip": "ym2612"
    },
    {
      "channel": 2,
      "note": 59,
      "start": 6.2808,
      "duration": 0.0137,
      "velocity": 100,
      "chip": "ym2612"
    },
    {
      "channel": 1,
      "note": 71,
      "start": 6.2823,
      "duration": 0.0134,
      "velocity": 110,
      "chip": "ym2612"
    },
    {
      "channel": 0,
      "note": 76,
      "start": 6.2897,
      "duration": 0.016,
      "velocity": 127,
      "chip": "ym2612"
    },
    {
      "channel": 3,
      "note": 75,
      "start": 6.2933,
      "duration": 0.016,
      "velocity": 110,
      "chip": "ym2612"
    },
    {
      "channel": 2,
      "note": 59,
      "start": 6.2945,
      "duration": 0.0159,
      "velocity": 100,
      "chip": "ym2612"
    },
    {
      "channel": 1,
      "note": 71,
      "start": 6.2957,
      "duration": 0.0159,
      "velocity": 110,
      "chip": "ym2612"
    },
    {
      "channel": 0,
      "note": 75,
      "start": 6.3057,
      "duration": 0.0161,
      "velocity": 127,
      "chip": "ym2612"
    },
    {
      "channel": 3,
      "note": 75,
      "start": 6.3093,
      "duration": 0.0161,
      "velocity": 110,
      "chip": "ym2612"
    },
    {
      "channel": 2,
      "note": 59,
      "start": 6.3104,
      "duration": 0.0162,
      "velocity": 100,
      "chip": "ym2612"
    },
    {
      "channel": 1,
      "note": 71,
      "start": 6.3116,
      "duration": 0.0161,
      "velocity": 110,
      "chip": "ym2612"
    },
    {
      "channel": 0,
      "note": 73,
      "start": 6.3219,
      "duration": 0.0161,
      "velocity": 127,
      "chip": "ym2612"
    },
    {
      "channel": 3,
      "note": 75,
      "start": 6.3254,
      "duration": 0.0161,
      "velocity": 110,
      "chip": "ym2612"
    },
    {
      "channel": 2,
      "note": 59,
      "start": 6.3266,
      "duration": 0.0161,
      "velocity": 100,
      "chip": "ym2612"
    },
    {
      "channel": 1,
      "note": 71,
      "start": 6.3277,
      "duration": 0.0161,
      "velocity": 110,
      "chip": "ym2612"
    },
    {
      "channel": 0,
      "note": 71,
      "start": 6.338,
      "duration": 0.0161,
      "velocity": 127,
      "chip": "ym2612"
    },
    {
      "channel": 3,
      "note": 75,
      "start": 6.3415,
      "duration": 0.0161,
      "velocity": 110,
      "chip": "ym2612"
    },
    {
      "channel": 2,
      "note": 59,
      "start": 6.3427,
      "duration": 0.0161,
      "velocity": 100,
      "chip": "ym2612"
    },
    {
      "channel": 1,
      "note": 71,
      "start": 6.3438,
      "duration": 0.0161,
      "velocity": 110,
      "chip": "ym2612"
    },
    {
      "channel": 0,
      "note": 70,
      "start": 6.3541,
      "duration": 0.0179,
      "velocity": 115,
      "chip": "ym2612"
    },
    {
      "channel": 3,
      "note": 75,
      "start": 6.3576,
      "duration": 0.018,
      "velocity": 110,
      "chip": "ym2612"
    },
    {
      "channel": 2,
      "note": 59,
      "start": 6.3588,
      "duration": 0.018,
      "velocity": 100,
      "chip": "ym2612"
    },
    {
      "channel": 1,
      "note": 71,
      "start": 6.3599,
      "duration": 0.018,
      "velocity": 110,
      "chip": "ym2612"
    },
    {
      "channel": 0,
      "note": 36,
      "start": 6.3721,
      "duration": 0.0146,
      "velocity": 115,
      "chip": "ym2612"
    },
    {
      "channel": 3,
      "note": 75,
      "start": 6.3756,
      "duration": 0.0146,
      "velocity": 110,
      "chip": "ym2612"
    },
    {
      "channel": 2,
      "note": 59,
      "start": 6.3768,
      "duration": 0.0146,
      "velocity": 100,
      "chip": "ym2612"
    },
    {
      "channel": 1,
      "note": 71,
      "start": 6.3779,
      "duration": 0.0146,
      "velocity": 110,
      "chip": "ym2612"
    },
    {
      "channel": 0,
      "note": 36,
      "start": 6.3866,
      "duration": 0.0163,
      "velocity": 115,
      "chip": "ym2612"
    },
    {
      "channel": 2,
      "note": 59,
      "start": 6.3914,
      "duration": 0.0162,
      "velocity": 100,
      "chip": "ym2612"
    },
    {
      "channel": 0,
      "note": 37,
      "start": 6.4029,
      "duration": 0.0162,
      "velocity": 115,
      "chip": "ym2612"
    },
    {
      "channel": 2,
      "note": 59,
      "start": 6.4076,
      "duration": 0.0162,
      "velocity": 100,
      "chip": "ym2612"
    },
    {
      "channel": 0,
      "note": 37,
      "start": 6.4191,
      "duration": 0.0161,
      "velocity": 115,
      "chip": "ym2612"
    },
    {
      "channel": 2,
      "note": 59,
      "start": 6.4238,
      "duration": 0.016,
      "velocity": 100,
      "chip": "ym2612"
    },
    {
      "channel": 0,
      "note": 38,
      "start": 6.4352,
      "duration": 0.0157,
      "velocity": 115,
      "chip": "ym2612"
    },
    {
      "channel": 2,
      "note": 59,
      "start": 6.4398,
      "duration": 0.0162,
      "velocity": 100,
      "chip": "ym2612"
    },
    {
      "channel": 0,
      "note": 38,
      "start": 6.4509,
      "duration": 0.0159,
      "velocity": 115,
      "chip": "ym2612"
    },
    {
      "channel": 2,
      "note": 59,
      "start": 6.456,
      "duration": 0.0161,
      "velocity": 100,
      "chip": "ym2612"
    },
    {
      "channel": 0,
      "note": 39,
      "start": 6.4668,
      "duration": 0.0184,
      "velocity": 124,
      "chip": "ym2612"
    },
    {
      "channel": 2,
      "note": 59,
      "start": 6.4721,
      "duration": 0.0186,
      "velocity": 100,
      "chip": "ym2612"
    },
    {
      "channel": 0,
      "note": 84,
      "start": 6.4853,
      "duration": 0.0137,
      "velocity": 124,
      "chip": "ym2612"
    },
    {
      "channel": 3,
      "note": 71,
      "start": 6.4892,
      "duration": 0.014,
      "velocity": 110,
      "chip": "ym2612"
    },
    {
      "channel": 2,
      "note": 54,
      "start": 6.4907,
      "duration": 0.0137,
      "velocity": 100,
      "chip": "ym2612"
    },
    {
      "channel": 1,
      "note": 75,
      "start": 6.4922,
      "duration": 0.0134,
      "velocity": 110,
      "chip": "ym2612"
    },
    {
      "channel": 0,
      "note": 82,
      "start": 6.499,
      "duration": 0.016,
      "velocity": 124,
      "chip": "ym2612"
    },
    {
      "channel": 3,
      "note": 71,
      "start": 6.5032,
      "duration": 0.016,
      "velocity": 110,
      "chip": "ym2612"
    },
    {
      "channel": 2,
      "note": 54,
      "start": 6.5044,
      "duration": 0.0159,
      "velocity": 100,
      "chip": "ym2612"
    },
    {
      "channel": 1,
      "note": 75,
      "start": 6.5056,
      "duration": 0.0159,
      "velocity": 110,
      "chip": "ym2612"
    },
    {
      "channel": 0,
      "note": 80,
      "start": 6.5151,
      "duration": 0.0161,
      "velocity": 124,
      "chip": "ym2612"
    },
    {
      "channel": 3,
      "note": 71,
      "start": 6.5192,
      "duration": 0.0161,
      "velocity": 110,
      "chip": "ym2612"
    },
    {
      "channel": 2,
      "note": 54,
      "start": 6.5203,
      "duration": 0.0162,
      "velocity": 100,
      "chip": "ym2612"
    },
    {
      "channel": 1,
      "note": 75,
      "start": 6.5215,
      "duration": 0.0161,
      "velocity": 110,
      "chip": "ym2612"
    },
    {
      "channel": 0,
      "note": 77,
      "start": 6.5312,
      "duration": 0.0161,
      "velocity": 124,
      "chip": "ym2612"
    },
    {
      "channel": 3,
      "note": 71,
      "start": 6.5354,
      "duration": 0.016,
      "velocity": 110,
      "chip": "ym2612"
    },
    {
      "channel": 2,
      "note": 54,
      "start": 6.5365,
      "duration": 0.0161,
      "velocity": 100,
      "chip": "ym2612"
    },
    {
      "channel": 1,
      "note": 75,
      "start": 6.5376,
      "duration": 0.0161,
      "velocity": 110,
      "chip": "ym2612"
    },
    {
      "channel": 0,
      "note": 75,
      "start": 6.5473,
      "duration": 0.0161,
      "velocity": 124,
      "chip": "ym2612"
    },
    {
      "channel": 3,
      "note": 71,
      "start": 6.5514,
      "duration": 0.0155,
      "velocity": 110,
      "chip": "ym2612"
    },
    {
      "channel": 2,
      "note": 54,
      "start": 6.5526,
      "duration": 0.0161,
      "velocity": 100,
      "chip": "ym2612"
    },
    {
      "channel": 1,
      "note": 75,
      "start": 6.5537,
      "duration": 0.0161,
      "velocity": 110,
      "chip": "ym2612"
    },
    {
      "channel": 0,
      "note": 72,
      "start": 6.5633,
      "duration": 0.018,
      "velocity": 124,
      "chip": "ym2612"
    },
    {
      "channel": 3,
      "note": 71,
      "start": 6.5669,
      "duration": 0.0186,
      "velocity": 110,
      "chip": "ym2612"
    },
    {
      "channel": 2,
      "note": 54,
      "start": 6.5687,
      "duration": 0.018,
      "velocity": 100,
      "chip": "ym2612"
    },
    {
      "channel": 1,
      "note": 75,
      "start": 6.5698,
      "duration": 0.018,
      "velocity": 110,
      "chip": "ym2612"
    },
    {
      "channel": 0,
      "note": 84,
      "start": 6.5813,
      "duration": 0.0143,
      "velocity": 124,
      "chip": "ym2612"
    },
    {
      "channel": 3,
      "note": 71,
      "start": 6.5855,
      "duration": 0.0137,
      "velocity": 110,
      "chip": "ym2612"
    },
    {
      "channel": 2,
      "note": 54,
      "start": 6.5867,
      "duration": 0.0139,
      "velocity": 100,
      "chip": "ym2612"
    },
    {
      "channel": 1,
      "note": 75,
      "start": 6.5878,
      "duration": 0.0142,
      "velocity": 110,
      "chip": "ym2612"
    },
    {
      "channel": 0,
      "note": 82,
      "start": 6.5956,
      "duration": 0.0161,
      "velocity": 124,
      "chip": "ym2612"
    },
    {
      "channel": 2,
      "note": 54,
      "start": 6.6006,
      "duration": 0.0158,
      "velocity": 100,
      "chip": "ym2612"
    },
    {
      "channel": 0,
      "note": 80,
      "start": 6.6117,
      "duration": 0.0161,
      "velocity": 124,
      "chip": "ym2612"
    },
    {
      "channel": 2,
      "note": 54,
      "start": 6.6164,
      "duration": 0.0161,
      "velocity": 100,
      "chip": "ym2612"
    },
    {
      "channel": 0,
      "note": 77,
      "start": 6.6278,
      "duration": 0.0161,
      "velocity": 124,
      "chip": "ym2612"
    },
    {
      "channel": 2,
      "note": 54,
      "start": 6.6325,
      "duration": 0.0161,
      "velocity": 100,
      "chip": "ym2612"
    },
    {
      "channel": 0,
      "note": 75,
      "start": 6.6439,
      "duration": 0.0161,
      "velocity": 124,
      "chip": "ym2612"
    },
    {
      "channel": 2,
      "note": 54,
      "start": 6.6486,
      "duration": 0.0161,
      "velocity": 100,
      "chip": "ym2612"
    },
    {
      "channel": 0,
      "note": 72,
      "start": 6.66,
      "duration": 0.0161,
      "velocity": 124,
      "chip": "ym2612"
    },
    {
      "channel": 2,
      "note": 54,
      "start": 6.6647,
      "duration": 0.0161,
      "velocity": 100,
      "chip": "ym2612"
    },
    {
      "channel": 0,
      "note": 70,
      "start": 6.6761,
      "duration": 0.0179,
      "velocity": 115,
      "chip": "ym2612"
    },
    {
      "channel": 2,
      "note": 54,
      "start": 6.6808,
      "duration": 0.019,
      "velocity": 100,
      "chip": "ym2612"
    },
    {
      "channel": 0,
      "note": 36,
      "start": 6.694,
      "duration": 0.0143,
      "velocity": 115,
      "chip": "ym2612"
    },
    {
      "channel": 3,
      "note": 75,
      "start": 6.6983,
      "duration": 0.0138,
      "velocity": 110,
      "chip": "ym2612"
    },
    {
      "channel": 2,
      "note": 56,
      "start": 6.6998,
      "duration": 0.0135,
      "velocity": 100,
      "chip": "ym2612"
    },
    {
      "channel": 1,
      "note": 71,
      "start": 6.7019,
      "duration": 0.0127,
      "velocity": 110,
      "chip": "ym2612"
    },
    {
      "channel": 0,
      "note": 36,
      "start": 6.7083,
      "duration": 0.016,
      "velocity": 115,
      "chip": "ym2612"
    },
    {
      "channel": 3,
      "note": 75,
      "start": 6.7121,
      "duration": 0.0158,
      "velocity": 110,
      "chip": "ym2612"
    },
    {
      "channel": 2,
      "note": 56,
      "start": 6.7133,
      "duration": 0.0157,
      "velocity": 100,
      "chip": "ym2612"
    },
    {
      "channel": 1,
      "note": 71,
      "start": 6.7146,
      "duration": 0.0157,
      "velocity": 110,
      "chip": "ym2612"
    },
    {
      "channel": 0,
      "note": 37,
      "start": 6.7244,
      "duration": 0.0161,
      "velocity": 115,
      "chip": "ym2612"
    },
    {
      "channel": 3,
      "note": 75,
      "start": 6.7279,
      "duration": 0.0161,
      "velocity": 110,
      "chip": "ym2612"
    },
    {
      "channel": 2,
      "note": 56,
      "start": 6.729,
      "duration": 0.0161,
      "velocity": 100,
      "chip": "ym2612"
    },
    {
      "channel": 1,
      "note": 71,
      "start": 6.7303,
      "duration": 0.0161,
      "velocity": 110,
      "chip": "ym2612"
    },
    {
      "channel": 0,
      "note": 37,
      "start": 6.7405,
      "duration": 0.0161,
      "velocity": 115,
      "chip": "ym2612"
    },
    {
      "channel": 3,
      "note": 75,
      "start": 6.744,
      "duration": 0.0161,
      "velocity": 110,
      "chip": "ym2612"
    },
    {
      "channel": 2,
      "note": 56,
      "start": 6.7451,
      "duration": 0.0161,
      "velocity": 100,
      "chip": "ym2612"
    },
    {
      "channel": 1,
      "note": 71,
      "start": 6.7463,
      "duration": 0.0161,
      "velocity": 110,
      "chip": "ym2612"
    },
    {
      "channel": 0,
      "note": 38,
      "start": 6.7566,
      "duration": 0.0161,
      "velocity": 115,
      "chip": "ym2612"
    },
    {
      "channel": 3,
      "note": 75,
      "start": 6.7601,
      "duration": 0.0162,
      "velocity": 110,
      "chip": "ym2612"
    },
    {
      "channel": 2,
      "note": 56,
      "start": 6.7612,
      "duration": 0.0161,
      "velocity": 100,
      "chip": "ym2612"
    },
    {
      "channel": 1,
      "note": 71,
      "start": 6.7624,
      "duration": 0.0161,
      "velocity": 110,
      "chip": "ym2612"
    },
    {
      "channel": 0,
      "note": 38,
      "start": 6.7727,
      "duration": 0.0161,
      "velocity": 115,
      "chip": "ym2612"
    },
    {
      "channel": 3,
      "note": 75,
      "start": 6.7763,
      "duration": 0.0161,
      "velocity": 110,
      "chip": "ym2612"
    },
    {
      "channel": 2,
      "note": 56,
      "start": 6.7774,
      "duration": 0.0161,
      "velocity": 100,
      "chip": "ym2612"
    },
    {
      "channel": 1,
      "note": 71,
      "start": 6.7785,
      "duration": 0.0161,
      "velocity": 110,
      "chip": "ym2612"
    },
    {
      "channel": 0,
      "note": 39,
      "start": 6.7888,
      "duration": 0.0161,
      "velocity": 115,
      "chip": "ym2612"
    },
    {
      "channel": 3,
      "note": 75,
      "start": 6.7924,
      "duration": 0.0161,
      "velocity": 110,
      "chip": "ym2612"
    },
    {
      "channel": 2,
      "note": 56,
      "start": 6.7935,
      "duration": 0.0161,
      "velocity": 100,
      "chip": "ym2612"
    },
    {
      "channel": 1,
      "note": 71,
      "start": 6.7946,
      "duration": 0.0161,
      "velocity": 110,
      "chip": "ym2612"
    },
    {
      "channel": 0,
      "note": 39,
      "start": 6.8049,
      "duration": 0.0161,
      "velocity": 115,
      "chip": "ym2612"
    },
    {
      "channel": 2,
      "note": 56,
      "start": 6.8096,
      "duration": 0.0161,
      "velocity": 100,
      "chip": "ym2612"
    },
    {
      "channel": 0,
      "note": 40,
      "start": 6.821,
      "duration": 0.0162,
      "velocity": 115,
      "chip": "ym2612"
    },
    {
      "channel": 2,
      "note": 56,
      "start": 6.8257,
      "duration": 0.0161,
      "velocity": 100,
      "chip": "ym2612"
    },
    {
      "channel": 0,
      "note": 40,
      "start": 6.8371,
      "duration": 0.0161,
      "velocity": 115,
      "chip": "ym2612"
    },
    {
      "channel": 2,
      "note": 56,
      "start": 6.8418,
      "duration": 0.0162,
      "velocity": 100,
      "chip": "ym2612"
    },
    {
      "channel": 0,
      "note": 40,
      "start": 6.8533,
      "duration": 0.0164,
      "velocity": 115,
      "chip": "ym2612"
    },
    {
      "channel": 2,
      "note": 56,
      "start": 6.858,
      "duration": 0.0163,
      "velocity": 100,
      "chip": "ym2612"
    },
    {
      "channel": 0,
      "note": 41,
      "start": 6.8697,
      "duration": 0.0163,
      "velocity": 115,
      "chip": "ym2612"
    },
    {
      "channel": 2,
      "note": 56,
      "start": 6.8744,
      "duration": 0.0163,
      "velocity": 100,
      "chip": "ym2612"
    },
    {
      "channel": 0,
      "note": 41,
      "start": 6.886,
      "duration": 0.0161,
      "velocity": 115,
      "chip": "ym2612"
    },
    {
      "channel": 2,
      "note": 56,
      "start": 6.8907,
      "duration": 0.0166,
      "velocity": 100,
      "chip": "ym2612"
    },
    {
      "channel": 0,
      "note": 42,
      "start": 6.9021,
      "duration": 0.016,
      "velocity": 115,
      "chip": "ym2612"
    },
    {
      "channel": 3,
      "note": 71,
      "start": 6.9061,
      "duration": 0.0157,
      "velocity": 110,
      "chip": "ym2612"
    },
    {
      "channel": 2,
      "note": 56,
      "start": 6.9073,
      "duration": 0.0156,
      "velocity": 100,
      "chip": "ym2612"
    },
    {
      "channel": 1,
      "note": 75,
      "start": 6.909,
      "duration": 0.0152,
      "velocity": 110,
      "chip": "ym2612"
    },
    {
      "channel": 0,
      "note": 42,
      "start": 6.9181,
      "duration": 0.0158,
      "velocity": 115,
      "chip": "ym2612"
    },
    {
      "channel": 3,
      "note": 71,
      "start": 6.9218,
      "duration": 0.016,
      "velocity": 110,
      "chip": "ym2612"
    },
    {
      "channel": 2,
      "note": 56,
      "start": 6.9229,
      "duration": 0.016,
      "velocity": 100,
      "chip": "ym2612"
    },
    {
      "channel": 1,
      "note": 75,
      "start": 6.9241,
      "duration": 0.016,
      "velocity": 110,
      "chip": "ym2612"
    },
    {
      "channel": 0,
      "note": 43,
      "start": 6.9339,
      "duration": 0.0159,
      "velocity": 115,
      "chip": "ym2612"
    },
    {
      "channel": 3,
      "note": 71,
      "start": 6.9378,
      "duration": 0.0161,
      "velocity": 110,
      "chip": "ym2612"
    },
    {
      "channel": 2,
      "note": 56,
      "start": 6.939,
      "duration": 0.0162,
      "velocity": 100,
      "chip": "ym2612"
    },
    {
      "channel": 1,
      "note": 75,
      "start": 6.9402,
      "duration": 0.0161,
      "velocity": 110,
      "chip": "ym2612"
    },
    {
      "channel": 0,
      "note": 43,
      "start": 6.9498,
      "duration": 0.0161,
      "velocity": 115,
      "chip": "ym2612"
    },
    {
      "channel": 2,
      "note": 56,
      "start": 6.9551,
      "duration": 0.0161,
      "velocity": 100,
      "chip": "ym2612"
    },
    {
      "channel": 0,
      "note": 44,
      "start": 6.9659,
      "duration": 0.0161,
      "velocity": 115,
      "chip": "ym2612"
    },
    {
      "channel": 2,
      "note": 56,
      "start": 6.9712,
      "duration": 0.0161,
      "velocity": 100,
      "chip": "ym2612"
    },
    {
      "channel": 0,
      "note": 44,
      "start": 6.982,
      "duration": 0.018,
      "velocity": 115,
      "chip": "ym2612"
    },
    {
      "channel": 2,
      "note": 56,
      "start": 6.9873,
      "duration": 0.0185,
      "velocity": 100,
      "chip": "ym2612"
    },
    {
      "channel": 0,
      "note": 36,
      "start": 6.9999,
      "duration": 0.0143,
      "velocity": 115,
      "chip": "ym2612"
    },
    {
      "channel": 3,
      "note": 71,
      "start": 7.0044,
      "duration": 0.0141,
      "velocity": 110,
      "chip": "ym2612"
    },
    {
      "channel": 2,
      "note": 56,
      "start": 7.0059,
      "duration": 0.0138,
      "velocity": 100,
      "chip": "ym2612"
    },
    {
      "channel": 1,
      "note": 75,
      "start": 7.0074,
      "duration": 0.0135,
      "velocity": 110,
      "chip": "ym2612"
    },
    {
      "channel": 0,
      "note": 36,
      "start": 7.0142,
      "duration": 0.016,
      "velocity": 115,
      "chip": "ym2612"
    },
    {
      "channel": 3,
      "note": 71,
      "start": 7.0184,
      "duration": 0.0156,
      "velocity": 110,
      "chip": "ym2612"
    },
    {
      "channel": 2,
      "note": 56,
      "start": 7.0197,
      "duration": 0.0159,
      "velocity": 100,
      "chip": "ym2612"
    },
    {
      "channel": 1,
      "note": 75,
      "start": 7.0209,
      "duration": 0.0159,
      "velocity": 110,
      "chip": "ym2612"
    },
    {
      "channel": 0,
      "note": 37,
      "start": 7.0303,
      "duration": 0.0161,
      "velocity": 115,
      "chip": "ym2612"
    },
    {
      "channel": 3,
      "note": 71,
      "start": 7.034,
      "duration": 0.0159,
      "velocity": 110,
      "chip": "ym2612"
    },
    {
      "channel": 2,
      "note": 56,
      "start": 7.0356,
      "duration": 0.016,
      "velocity": 100,
      "chip": "ym2612"
    },
    {
      "channel": 1,
      "note": 75,
      "start": 7.0368,
      "duration": 0.0161,
      "velocity": 110,
      "chip": "ym2612"
    },
    {
      "channel": 0,
      "note": 37,
      "start": 7.0464,
      "duration": 0.0161,
      "velocity": 115,
      "chip": "ym2612"
    },
    {
      "channel": 3,
      "note": 71,
      "start": 7.0499,
      "duration": 0.0161,
      "velocity": 110,
      "chip": "ym2612"
    },
    {
      "channel": 2,
      "note": 56,
      "start": 7.0516,
      "duration": 0.0158,
      "velocity": 100,
      "chip": "ym2612"
    },
    {
      "channel": 1,
      "note": 75,
      "start": 7.0529,
      "duration": 0.0161,
      "velocity": 110,
      "chip": "ym2612"
    },
    {
      "channel": 0,
      "note": 38,
      "start": 7.0625,
      "duration": 0.0161,
      "velocity": 115,
      "chip": "ym2612"
    },
    {
      "channel": 2,
      "note": 56,
      "start": 7.0674,
      "duration": 0.0159,
      "velocity": 100,
      "chip": "ym2612"
    },
    {
      "channel": 0,
      "note": 38,
      "start": 7.0786,
      "duration": 0.0161,
      "velocity": 115,
      "chip": "ym2612"
    },
    {
      "channel": 2,
      "note": 56,
      "start": 7.0833,
      "duration": 0.0161,
      "velocity": 100,
      "chip": "ym2612"
    },
    {
      "channel": 0,
      "note": 39,
      "start": 7.0947,
      "duration": 0.0179,
      "velocity": 124,
      "chip": "ym2612"
    },
    {
      "channel": 2,
      "note": 56,
      "start": 7.0994,
      "duration": 0.0189,
      "velocity": 100,
      "chip": "ym2612"
    },
    {
      "channel": 0,
      "note": 84,
      "start": 7.1127,
      "duration": 0.0143,
      "velocity": 124,
      "chip": "ym2612"
    },
    {
      "channel": 3,
      "note": 75,
      "start": 7.1165,
      "duration": 0.0141,
      "velocity": 110,
      "chip": "ym2612"
    },
    {
      "channel": 2,
      "note": 56,
      "start": 7.1183,
      "duration": 0.0135,
      "velocity": 100,
      "chip": "ym2612"
    },
    {
      "channel": 1,
      "note": 71,
      "start": 7.1198,
      "duration": 0.0132,
      "velocity": 110,
      "chip": "ym2612"
    },
    {
      "channel": 0,
      "note": 82,
      "start": 7.127,
      "duration": 0.016,
      "velocity": 124,
      "chip": "ym2612"
    },
    {
      "channel": 3,
      "note": 75,
      "start": 7.1306,
      "duration": 0.016,
      "velocity": 110,
      "chip": "ym2612"
    },
    {
      "channel": 2,
      "note": 56,
      "start": 7.1318,
      "duration": 0.016,
      "velocity": 100,
      "chip": "ym2612"
    },
    {
      "channel": 1,
      "note": 71,
      "start": 7.133,
      "duration": 0.016,
      "velocity": 110,
      "chip": "ym2612"
    },
    {
      "channel": 0,
      "note": 80,
      "start": 7.143,
      "duration": 0.0161,
      "velocity": 124,
      "chip": "ym2612"
    },
    {
      "channel": 3,
      "note": 75,
      "start": 7.1466,
      "duration": 0.0161,
      "velocity": 110,
      "chip": "ym2612"
    },
    {
      "channel": 2,
      "note": 56,
      "start": 7.1478,
      "duration": 0.0161,
      "velocity": 100,
      "chip": "ym2612"
    },
    {
      "channel": 1,
      "note": 71,
      "start": 7.149,
      "duration": 0.016,
      "velocity": 110,
      "chip": "ym2612"
    },
    {
      "channel": 0,
      "note": 77,
      "start": 7.1591,
      "duration": 0.0162,
      "velocity": 124,
      "chip": "ym2612"
    },
    {
      "channel": 2,
      "note": 56,
      "start": 7.1639,
      "duration": 0.016,
      "velocity": 100,
      "chip": "ym2612"
    },
    {
      "channel": 0,
      "note": 75,
      "start": 7.1752,
      "duration": 0.0161,
      "velocity": 124,
      "chip": "ym2612"
    },
    {
      "channel": 2,
      "note": 56,
      "start": 7.1799,
      "duration": 0.0161,
      "velocity": 100,
      "chip": "ym2612"
    },
    {
      "channel": 0,
      "note": 72,
      "start": 7.1913,
      "duration": 0.0161,
      "velocity": 124,
      "chip": "ym2612"
    },
    {
      "channel": 2,
      "note": 56,
      "start": 7.196,
      "duration": 0.0166,
      "velocity": 100,
      "chip": "ym2612"
    },
    {
      "channel": 0,
      "note": 70,
      "start": 7.2074,
      "duration": 0.0161,
      "velocity": 124,
      "chip": "ym2612"
    },
    {
      "channel": 3,
      "note": 75,
      "start": 7.2112,
      "duration": 0.0159,
      "velocity": 110,
      "chip": "ym2612"
    },
    {
      "channel": 2,
      "note": 56,
      "start": 7.2126,
      "duration": 0.0158,
      "velocity": 100,
      "chip": "ym2612"
    },
    {
      "channel": 1,
      "note": 71,
      "start": 7.214,
      "duration": 0.0156,
      "velocity": 110,
      "chip": "ym2612"
    },
    {
      "channel": 0,
      "note": 68,
      "start": 7.2235,
      "duration": 0.0161,
      "velocity": 124,
      "chip": "ym2612"
    },
    {
      "channel": 3,
      "note": 75,
      "start": 7.2271,
      "duration": 0.016,
      "velocity": 110,
      "chip": "ym2612"
    },
    {
      "channel": 2,
      "note": 56,
      "start": 7.2284,
      "duration": 0.016,
      "velocity": 100,
      "chip": "ym2612"
    },
    {
      "channel": 1,
      "note": 71,
      "start": 7.2296,
      "duration": 0.0159,
      "velocity": 110,
      "chip": "ym2612"
    },
    {
      "channel": 0,
      "note": 65,
      "start": 7.2396,
      "duration": 0.0161,
      "velocity": 124,
      "chip": "ym2612"
    },
    {
      "channel": 3,
      "note": 75,
      "start": 7.2432,
      "duration": 0.0161,
      "velocity": 110,
      "chip": "ym2612"
    },
    {
      "channel": 2,
      "note": 56,
      "start": 7.2444,
      "duration": 0.0161,
      "velocity": 100,
      "chip": "ym2612"
    },
    {
      "channel": 1,
      "note": 71,
      "start": 7.2455,
      "duration": 0.0161,
      "velocity": 110,
      "chip": "ym2612"
    },
    {
      "channel": 0,
      "note": 63,
      "start": 7.2557,
      "duration": 0.0153,
      "velocity": 1,
      "chip": "ym2612"
    },
    {
      "channel": 3,
      "note": 75,
      "start": 7.2593,
      "duration": 0.0153,
      "velocity": 110,
      "chip": "ym2612"
    },
    {
      "channel": 2,
      "note": 56,
      "start": 7.2605,
      "duration": 0.0153,
      "velocity": 100,
      "chip": "ym2612"
    },
    {
      "channel": 1,
      "note": 71,
      "start": 7.2616,
      "duration": 0.0153,
      "velocity": 110,
      "chip": "ym2612"
    },
    {
      "channel": 2,
      "note": 56,
      "start": 7.2758,
      "duration": 0.0152,
      "velocity": 100,
      "chip": "ym2612"
    },
    {
      "channel": 2,
      "note": 56,
      "start": 7.291,
      "duration": 0.0161,
      "velocity": 100,
      "chip": "ym2612"
    },
    {
      "channel": 2,
      "note": 56,
      "start": 7.3071,
      "duration": 0.0203,
      "velocity": 100,
      "chip": "ym2612"
    },
    {
      "channel": 0,
      "note": 36,
      "start": 7.3221,
      "duration": 0.0146,
      "velocity": 115,
      "chip": "ym2612"
    },
    {
      "channel": 3,
      "note": 71,
      "start": 7.326,
      "duration": 0.0142,
      "velocity": 110,
      "chip": "ym2612"
    },
    {
      "channel": 2,
      "note": 51,
      "start": 7.3274,
      "duration": 0.0141,
      "velocity": 100,
      "chip": "ym2612"
    },
    {
      "channel": 1,
      "note": 75,
      "start": 7.3289,
      "duration": 0.0138,
      "velocity": 110,
      "chip": "ym2612"
    },
    {
      "channel": 0,
      "note": 36,
      "start": 7.3366,
      "duration": 0.0163,
      "velocity": 115,
      "chip": "ym2612"
    },
    {
      "channel": 3,
      "note": 71,
      "start": 7.3402,
      "duration": 0.0162,
      "velocity": 110,
      "chip": "ym2612"
    },
    {
      "channel": 2,
      "note": 51,
      "start": 7.3415,
      "duration": 0.0162,
      "velocity": 100,
      "chip": "ym2612"
    },
    {
      "channel": 1,
      "note": 75,
      "start": 7.3427,
      "duration": 0.0161,
      "velocity": 110,
      "chip": "ym2612"
    },
    {
      "channel": 0,
      "note": 37,
      "start": 7.3529,
      "duration": 0.0161,
      "velocity": 115,
      "chip": "ym2612"
    },
    {
      "channel": 3,
      "note": 71,
      "start": 7.3565,
      "duration": 0.0161,
      "velocity": 110,
      "chip": "ym2612"
    },
    {
      "channel": 2,
      "note": 51,
      "start": 7.3577,
      "duration": 0.016,
      "velocity": 100,
      "chip": "ym2612"
    },
    {
      "channel": 1,
      "note": 75,
      "start": 7.3588,
      "duration": 0.0161,
      "velocity": 110,
      "chip": "ym2612"
    },
    {
      "channel": 0,
      "note": 37,
      "start": 7.369,
      "duration": 0.0161,
      "velocity": 115,
      "chip": "ym2612"
    },
    {
      "channel": 3,
      "note": 71,
      "start": 7.3726,
      "duration": 0.0161,
      "velocity": 110,
      "chip": "ym2612"
    },
    {
      "channel": 2,
      "note": 51,
      "start": 7.3737,
      "duration": 0.0161,
      "velocity": 100,
      "chip": "ym2612"
    },
    {
      "channel": 1,
      "note": 75,
      "start": 7.3749,
      "duration": 0.0161,
      "velocity": 110,
      "chip": "ym2612"
    },
    {
      "channel": 0,
      "note": 38,
      "start": 7.3851,
      "duration": 0.0157,
      "velocity": 115,
      "chip": "ym2612"
    },
    {
      "channel": 3,
      "note": 71,
      "start": 7.3887,
      "duration": 0.0161,
      "velocity": 110,
      "chip": "ym2612"
    },
    {
      "channel": 2,
      "note": 51,
      "start": 7.3898,
      "duration": 0.0161,
      "velocity": 100,
      "chip": "ym2612"
    },
    {
      "channel": 1,
      "note": 75,
      "start": 7.391,
      "duration": 0.016,
      "velocity": 110,
      "chip": "ym2612"
    },
    {
      "channel": 0,
      "note": 38,
      "start": 7.4008,
      "duration": 0.0183,
      "velocity": 115,
      "chip": "ym2612"
    },
    {
      "channel": 3,
      "note": 71,
      "start": 7.4048,
      "duration": 0.0179,
      "velocity": 110,
      "chip": "ym2612"
    },
    {
      "channel": 2,
      "note": 51,
      "start": 7.4059,
      "duration": 0.0182,
      "velocity": 100,
      "chip": "ym2612"
    },
    {
      "channel": 1,
      "note": 75,
      "start": 7.4071,
      "duration": 0.0183,
      "velocity": 110,
      "chip": "ym2612"
    },
    {
      "channel": 0,
      "note": 36,
      "start": 7.4192,
      "duration": 0.0137,
      "velocity": 115,
      "chip": "ym2612"
    },
    {
      "channel": 3,
      "note": 71,
      "start": 7.4227,
      "duration": 0.0144,
      "velocity": 110,
      "chip": "ym2612"
    },
    {
      "channel": 2,
      "note": 54,
      "start": 7.4241,
      "duration": 0.0141,
      "velocity": 100,
      "chip": "ym2612"
    },
    {
      "channel": 1,
      "note": 75,
      "start": 7.4253,
      "duration": 0.0142,
      "velocity": 110,
      "chip": "ym2612"
    },
    {
      "channel": 0,
      "note": 36,
      "start": 7.4329,
      "duration": 0.016,
      "velocity": 115,
      "chip": "ym2612"
    },
    {
      "channel": 2,
      "note": 54,
      "start": 7.4383,
      "duration": 0.016,
      "velocity": 100,
      "chip": "ym2612"
    },
    {
      "channel": 0,
      "note": 37,
      "start": 7.4489,
      "duration": 0.0161,
      "velocity": 115,
      "chip": "ym2612"
    },
    {
      "channel": 2,
      "note": 54,
      "start": 7.4542,
      "duration": 0.0161,
      "velocity": 100,
      "chip": "ym2612"
    },
    {
      "channel": 0,
      "note": 37,
      "start": 7.465,
      "duration": 0.0162,
      "velocity": 115,
      "chip": "ym2612"
    },
    {
      "channel": 2,
      "note": 54,
      "start": 7.4703,
      "duration": 0.0162,
      "velocity": 100,
      "chip": "ym2612"
    },
    {
      "channel": 0,
      "note": 38,
      "start": 7.4812,
      "duration": 0.0161,
      "velocity": 115,
      "chip": "ym2612"
    },
    {
      "channel": 2,
      "note": 54,
      "start": 7.4865,
      "duration": 0.016,
      "velocity": 100,
      "chip": "ym2612"
    },
    {
      "channel": 0,
      "note": 38,
      "start": 7.4973,
      "duration": 0.0161,
      "velocity": 115,
      "chip": "ym2612"
    },
    {
      "channel": 2,
      "note": 54,
      "start": 7.5025,
      "duration": 0.016,
      "velocity": 100,
      "chip": "ym2612"
    },
    {
      "channel": 0,
      "note": 39,
      "start": 7.5133,
      "duration": 0.0179,
      "velocity": 115,
      "chip": "ym2612"
    },
    {
      "channel": 2,
      "note": 54,
      "start": 7.5185,
      "duration": 0.0186,
      "velocity": 100,
      "chip": "ym2612"
    },
    {
      "channel": 0,
      "note": 36,
      "start": 7.5313,
      "duration": 0.0143,
      "velocity": 115,
      "chip": "ym2612"
    },
    {
      "channel": 3,
      "note": 75,
      "start": 7.5357,
      "duration": 0.0136,
      "velocity": 110,
      "chip": "ym2612"
    },
    {
      "channel": 2,
      "note": 56,
      "start": 7.5372,
      "duration": 0.0132,
      "velocity": 100,
      "chip": "ym2612"
    },
    {
      "channel": 1,
      "note": 71,
      "start": 7.5387,
      "duration": 0.0136,
      "velocity": 110,
      "chip": "ym2612"
    },
    {
      "channel": 0,
      "note": 36,
      "start": 7.5456,
      "duration": 0.016,
      "velocity": 115,
      "chip": "ym2612"
    },
    {
      "channel": 3,
      "note": 75,
      "start": 7.5492,
      "duration": 0.016,
      "velocity": 110,
      "chip": "ym2612"
    },
    {
      "channel": 2,
      "note": 56,
      "start": 7.5504,
      "duration": 0.0159,
      "velocity": 100,
      "chip": "ym2612"
    },
    {
      "channel": 1,
      "note": 71,
      "start": 7.5522,
      "duration": 0.0158,
      "velocity": 110,
      "chip": "ym2612"
    },
    {
      "channel": 0,
      "note": 37,
      "start": 7.5616,
      "duration": 0.0161,
      "velocity": 115,
      "chip": "ym2612"
    },
    {
      "channel": 3,
      "note": 75,
      "start": 7.5652,
      "duration": 0.0161,
      "velocity": 110,
      "chip": "ym2612"
    },
    {
      "channel": 2,
      "note": 56,
      "start": 7.5663,
      "duration": 0.0161,
      "velocity": 100,
      "chip": "ym2612"
    },
    {
      "channel": 1,
      "note": 71,
      "start": 7.568,
      "duration": 0.0156,
      "velocity": 110,
      "chip": "ym2612"
    },
    {
      "channel": 0,
      "note": 37,
      "start": 7.5777,
      "duration": 0.0161,
      "velocity": 115,
      "chip": "ym2612"
    },
    {
      "channel": 3,
      "note": 75,
      "start": 7.5813,
      "duration": 0.0161,
      "velocity": 110,
      "chip": "ym2612"
    },
    {
      "channel": 2,
      "note": 56,
      "start": 7.5824,
      "duration": 0.0161,
      "velocity": 100,
      "chip": "ym2612"
    },
    {
      "channel": 1,
      "note": 71,
      "start": 7.5836,
      "duration": 0.0161,
      "velocity": 110,
      "chip": "ym2612"
    },
    {
      "channel": 0,
      "note": 38,
      "start": 7.5938,
      "duration": 0.0161,
      "velocity": 115,
      "chip": "ym2612"
    },
    {
      "channel": 3,
      "note": 75,
      "start": 7.5974,
      "duration": 0.0162,
      "velocity": 110,
      "chip": "ym2612"
    },
    {
      "channel": 2,
      "note": 56,
      "start": 7.5985,
      "duration": 0.0161,
      "velocity": 100,
      "chip": "ym2612"
    },
    {
      "channel": 1,
      "note": 71,
      "start": 7.5997,
      "duration": 0.0162,
      "velocity": 110,
      "chip": "ym2612"
    },
    {
      "channel": 0,
      "note": 38,
      "start": 7.6099,
      "duration": 0.0179,
      "velocity": 127,
      "chip": "ym2612"
    },
    {
      "channel": 3,
      "note": 75,
      "start": 7.6135,
      "duration": 0.0179,
      "velocity": 110,
      "chip": "ym2612"
    },
    {
      "channel": 2,
      "note": 56,
      "start": 7.6147,
      "duration": 0.0182,
      "velocity": 100,
      "chip": "ym2612"
    },
    {
      "channel": 1,
      "note": 71,
      "start": 7.6159,
      "duration": 0.0184,
      "velocity": 110,
      "chip": "ym2612"
    },
    {
      "channel": 0,
      "note": 88,
      "start": 7.6279,
      "duration": 0.0142,
      "velocity": 127,
      "chip": "ym2612"
    },
    {
      "channel": 3,
      "note": 75,
      "start": 7.6315,
      "duration": 0.0142,
      "velocity": 110,
      "chip": "ym2612"
    },
    {
      "channel": 2,
      "note": 68,
      "start": 7.6329,
      "duration": 0.014,
      "velocity": 100,
      "chip": "ym2612"
    },
    {
      "channel": 1,
      "note": 71,
      "start": 7.6343,
      "duration": 0.0139,
      "velocity": 110,
      "chip": "ym2612"
    },
    {
      "channel": 0,
      "note": 86,
      "start": 7.6422,
      "duration": 0.0161,
      "velocity": 127,
      "chip": "ym2612"
    },
    {
      "channel": 2,
      "note": 68,
      "start": 7.647,
      "duration": 0.016,
      "velocity": 100,
      "chip": "ym2612"
    },
    {
      "channel": 0,
      "note": 85,
      "start": 7.6583,
      "duration": 0.0161,
      "velocity": 127,
      "chip": "ym2612"
    },
    {
      "channel": 2,
      "note": 68,
      "start": 7.663,
      "duration": 0.0161,
      "velocity": 100,
      "chip": "ym2612"
    },
    {
      "channel": 0,
      "note": 83,
      "start": 7.6744,
      "duration": 0.0161,
      "velocity": 127,
      "chip": "ym2612"
    },
    {
      "channel": 2,
      "note": 68,
      "start": 7.679,
      "duration": 0.0161,
      "velocity": 100,
      "chip": "ym2612"
    },
    {
      "channel": 0,
      "note": 81,
      "start": 7.6905,
      "duration": 0.0161,
      "velocity": 127,
      "chip": "ym2612"
    },
    {
      "channel": 2,
      "note": 68,
      "start": 7.6951,
      "duration": 0.0161,
      "velocity": 100,
      "chip": "ym2612"
    },
    {
      "channel": 0,
      "note": 80,
      "start": 7.7065,
      "duration": 0.0161,
      "velocity": 127,
      "chip": "ym2612"
    },
    {
      "channel": 2,
      "note": 68,
      "start": 7.7112,
      "duration": 0.0161,
      "velocity": 100,
      "chip": "ym2612"
    },
    {
      "channel": 0,
      "note": 78,
      "start": 7.7226,
      "duration": 0.0161,
      "velocity": 127,
      "chip": "ym2612"
    },
    {
      "channel": 2,
      "note": 68,
      "start": 7.7273,
      "duration": 0.0168,
      "velocity": 100,
      "chip": "ym2612"
    },
    {
      "channel": 0,
      "note": 76,
      "start": 7.7387,
      "duration": 0.0161,
      "velocity": 127,
      "chip": "ym2612"
    },
    {
      "channel": 3,
      "note": 71,
      "start": 7.7427,
      "duration": 0.0157,
      "velocity": 110,
      "chip": "ym2612"
    },
    {
      "channel": 2,
      "note": 56,
      "start": 7.7442,
      "duration": 0.0155,
      "velocity": 100,
      "chip": "ym2612"
    },
    {
      "channel": 1,
      "note": 75,
      "start": 7.7457,
      "duration": 0.0152,
      "velocity": 110,
      "chip": "ym2612"
    },
    {
      "channel": 0,
      "note": 75,
      "start": 7.7548,
      "duration": 0.0161,
      "velocity": 127,
      "chip": "ym2612"
    },
    {
      "channel": 3,
      "note": 71,
      "start": 7.7584,
      "duration": 0.016,
      "velocity": 110,
      "chip": "ym2612"
    },
    {
      "channel": 2,
      "note": 56,
      "start": 7.7597,
      "duration": 0.016,
      "velocity": 100,
      "chip": "ym2612"
    },
    {
      "channel": 1,
      "note": 75,
      "start": 7.7609,
      "duration": 0.0159,
      "velocity": 110,
      "chip": "ym2612"
    },
    {
      "channel": 0,
      "note": 73,
      "start": 7.7709,
      "duration": 0.0162,
      "velocity": 127,
      "chip": "ym2612"
    },
    {
      "channel": 3,
      "note": 71,
      "start": 7.7745,
      "duration": 0.0162,
      "velocity": 110,
      "chip": "ym2612"
    },
    {
      "channel": 2,
      "note": 56,
      "start": 7.7756,
      "duration": 0.0161,
      "velocity": 100,
      "chip": "ym2612"
    },
    {
      "channel": 1,
      "note": 75,
      "start": 7.7768,
      "duration": 0.0162,
      "velocity": 110,
      "chip": "ym2612"
    },
    {
      "channel": 0,
      "note": 71,
      "start": 7.7871,
      "duration": 0.0163,
      "velocity": 127,
      "chip": "ym2612"
    },
    {
      "channel": 3,
      "note": 71,
      "start": 7.7906,
      "duration": 0.0163,
      "velocity": 110,
      "chip": "ym2612"
    },
    {
      "channel": 2,
      "note": 56,
      "start": 7.7918,
      "duration": 0.0163,
      "velocity": 100,
      "chip": "ym2612"
    },
    {
      "channel": 1,
      "note": 75,
      "start": 7.793,
      "duration": 0.0163,
      "velocity": 110,
      "chip": "ym2612"
    },
    {
      "channel": 0,
      "note": 69,
      "start": 7.8034,
      "duration": 0.0163,
      "velocity": 127,
      "chip": "ym2612"
    },
    {
      "channel": 3,
      "note": 71,
      "start": 7.8069,
      "duration": 0.0163,
      "velocity": 110,
      "chip": "ym2612"
    },
    {
      "channel": 2,
      "note": 56,
      "start": 7.8081,
      "duration": 0.0163,
      "velocity": 100,
      "chip": "ym2612"
    },
    {
      "channel": 1,
      "note": 75,
      "start": 7.8093,
      "duration": 0.0163,
      "velocity": 110,
      "chip": "ym2612"
    },
    {
      "channel": 0,
      "note": 68,
      "start": 7.8197,
      "duration": 0.0181,
      "velocity": 127,
      "chip": "ym2612"
    },
    {
      "channel": 3,
      "note": 71,
      "start": 7.8233,
      "duration": 0.0181,
      "velocity": 110,
      "chip": "ym2612"
    },
    {
      "channel": 2,
      "note": 56,
      "start": 7.8244,
      "duration": 0.0184,
      "velocity": 100,
      "chip": "ym2612"
    },
    {
      "channel": 1,
      "note": 75,
      "start": 7.8256,
      "duration": 0.0184,
      "velocity": 110,
      "chip": "ym2612"
    },
    {
      "channel": 0,
      "note": 84,
      "start": 7.8378,
      "duration": 0.0142,
      "velocity": 127,
      "chip": "ym2612"
    },
    {
      "channel": 3,
      "note": 71,
      "start": 7.8414,
      "duration": 0.0142,
      "velocity": 110,
      "chip": "ym2612"
    },
    {
      "channel": 2,
      "note": 68,
      "start": 7.8429,
      "duration": 0.0141,
      "velocity": 100,
      "chip": "ym2612"
    },
    {
      "channel": 1,
      "note": 75,
      "start": 7.844,
      "duration": 0.0141,
      "velocity": 110,
      "chip": "ym2612"
    },
    {
      "channel": 0,
      "note": 82,
      "start": 7.8521,
      "duration": 0.016,
      "velocity": 127,
      "chip": "ym2612"
    },
    {
      "channel": 2,
      "note": 68,
      "start": 7.8569,
      "duration": 0.016,
      "velocity": 100,
      "chip": "ym2612"
    },
    {
      "channel": 0,
      "note": 81,
      "start": 7.8681,
      "duration": 0.0155,
      "velocity": 127,
      "chip": "ym2612"
    },
    {
      "channel": 2,
      "note": 68,
      "start": 7.8729,
      "duration": 0.0161,
      "velocity": 100,
      "chip": "ym2612"
    },
    {
      "channel": 0,
      "note": 79,
      "start": 7.8836,
      "duration": 0.0161,
      "velocity": 127,
      "chip": "ym2612"
    },
    {
      "channel": 2,
      "note": 68,
      "start": 7.889,
      "duration": 0.0161,
      "velocity": 100,
      "chip": "ym2612"
    },
    {
      "channel": 0,
      "note": 77,
      "start": 7.8997,
      "duration": 0.0161,
      "velocity": 127,
      "chip": "ym2612"
    },
    {
      "channel": 2,
      "note": 68,
      "start": 7.9051,
      "duration": 0.0161,
      "velocity": 100,
      "chip": "ym2612"
    },
    {
      "channel": 0,
      "note": 76,
      "start": 7.9158,
      "duration": 0.0161,
      "velocity": 127,
      "chip": "ym2612"
    },
    {
      "channel": 2,
      "note": 68,
      "start": 7.9212,
      "duration": 0.0161,
      "velocity": 100,
      "chip": "ym2612"
    },
    {
      "channel": 0,
      "note": 74,
      "start": 7.9319,
      "duration": 0.018,
      "velocity": 127,
      "chip": "ym2612"
    },
    {
      "channel": 2,
      "note": 68,
      "start": 7.9373,
      "duration": 0.0186,
      "velocity": 100,
      "chip": "ym2612"
    },
    {
      "channel": 0,
      "note": 78,
      "start": 7.95,
      "duration": 0.0143,
      "velocity": 127,
      "chip": "ym2612"
    },
    {
      "channel": 3,
      "note": 75,
      "start": 7.9544,
      "duration": 0.0139,
      "velocity": 110,
      "chip": "ym2612"
    },
    {
      "channel": 2,
      "note": 51,
      "start": 7.9559,
      "duration": 0.0137,
      "velocity": 100,
      "chip": "ym2612"
    },
    {
      "channel": 1,
      "note": 71,
      "start": 7.9574,
      "duration": 0.0134,
      "velocity": 110,
      "chip": "ym2612"
    },
    {
      "channel": 0,
      "note": 76,
      "start": 7.9642,
      "duration": 0.016,
      "velocity": 127,
      "chip": "ym2612"
    },
    {
      "channel": 3,
      "note": 75,
      "start": 7.9684,
      "duration": 0.0156,
      "velocity": 110,
      "chip": "ym2612"
    },
    {
      "channel": 2,
      "note": 51,
      "start": 7.9696,
      "duration": 0.0159,
      "velocity": 100,
      "chip": "ym2612"
    },
    {
      "channel": 1,
      "note": 71,
      "start": 7.9708,
      "duration": 0.0159,
      "velocity": 110,
      "chip": "ym2612"
    },
    {
      "channel": 0,
      "note": 75,
      "start": 7.9803,
      "duration": 0.0161,
      "velocity": 127,
      "chip": "ym2612"
    },
    {
      "channel": 3,
      "note": 75,
      "start": 7.984,
      "duration": 0.0159,
      "velocity": 110,
      "chip": "ym2612"
    },
    {
      "channel": 2,
      "note": 51,
      "start": 7.9856,
      "duration": 0.0161,
      "velocity": 100,
      "chip": "ym2612"
    },
    {
      "channel": 1,
      "note": 71,
      "start": 7.9867,
      "duration": 0.0162,
      "velocity": 110,
      "chip": "ym2612"
    },
    {
      "channel": 0,
      "note": 73,
      "start": 7.9963,
      "duration": 0.0161,
      "velocity": 127,
      "chip": "ym2612"
    },
    {
      "channel": 3,
      "note": 75,
      "start": 7.9999,
      "duration": 0.0161,
      "velocity": 110,
      "chip": "ym2612"
    },
    {
      "channel": 2,
      "note": 51,
      "start": 8.0016,
      "duration": 0.0157,
      "velocity": 100,
      "chip": "ym2612"
    },
    {
      "channel": 1,
      "note": 71,
      "start": 8.0029,
      "duration": 0.016,
      "velocity": 110,
      "chip": "ym2612"
    },
    {
      "channel": 0,
      "note": 71,
      "start": 8.0124,
      "duration": 0.0161,
      "velocity": 127,
      "chip": "ym2612"
    },
    {
      "channel": 3,
      "note": 75,
      "start": 8.016,
      "duration": 0.0161,
      "velocity": 110,
      "chip": "ym2612"
    },
    {
      "channel": 2,
      "note": 51,
      "start": 8.0173,
      "duration": 0.0159,
      "velocity": 100,
      "chip": "ym2612"
    },
    {
      "channel": 1,
      "note": 71,
      "start": 8.0189,
      "duration": 0.0161,
      "velocity": 110,
      "chip": "ym2612"
    },
    {
      "channel": 0,
      "note": 70,
      "start": 8.0285,
      "duration": 0.0179,
      "velocity": 115,
      "chip": "ym2612"
    },
    {
      "channel": 3,
      "note": 75,
      "start": 8.0321,
      "duration": 0.0179,
      "velocity": 110,
      "chip": "ym2612"
    },
    {
      "channel": 2,
      "note": 51,
      "start": 8.0333,
      "duration": 0.0186,
      "velocity": 100,
      "chip": "ym2612"
    },
    {
      "channel": 1,
      "note": 71,
      "start": 8.035,
      "duration": 0.018,
      "velocity": 110,
      "chip": "ym2612"
    },
    {
      "channel": 0,
      "note": 36,
      "start": 8.0465,
      "duration": 0.0143,
      "velocity": 115,
      "chip": "ym2612"
    },
    {
      "channel": 3,
      "note": 75,
      "start": 8.05,
      "duration": 0.0143,
      "velocity": 110,
      "chip": "ym2612"
    },
    {
      "channel": 2,
      "note": 51,
      "start": 8.0518,
      "duration": 0.0137,
      "velocity": 100,
      "chip": "ym2612"
    },
    {
      "channel": 1,
      "note": 71,
      "start": 8.053,
      "duration": 0.0137,
      "velocity": 110,
      "chip": "ym2612"
    },
    {
      "channel": 0,
      "note": 36,
      "start": 8.0608,
      "duration": 0.016,
      "velocity": 115,
      "chip": "ym2612"
    },
    {
      "channel": 2,
      "note": 51,
      "start": 8.0656,
      "duration": 0.016,
      "velocity": 100,
      "chip": "ym2612"
    },
    {
      "channel": 0,
      "note": 37,
      "start": 8.0768,
      "duration": 0.0162,
      "velocity": 115,
      "chip": "ym2612"
    },
    {
      "channel": 2,
      "note": 51,
      "start": 8.0815,
      "duration": 0.0161,
      "velocity": 100,
      "chip": "ym2612"
    },
    {
      "channel": 0,
      "note": 37,
      "start": 8.093,
      "duration": 0.0161,
      "velocity": 115,
      "chip": "ym2612"
    },
    {
      "channel": 2,
      "note": 51,
      "start": 8.0976,
      "duration": 0.0161,
      "velocity": 100,
      "chip": "ym2612"
    },
    {
      "channel": 0,
      "note": 38,
      "start": 8.1091,
      "duration": 0.0161,
      "velocity": 115,
      "chip": "ym2612"
    },
    {
      "channel": 2,
      "note": 51,
      "start": 8.1138,
      "duration": 0.0161,
      "velocity": 100,
      "chip": "ym2612"
    },
    {
      "channel": 0,
      "note": 38,
      "start": 8.1252,
      "duration": 0.0161,
      "velocity": 115,
      "chip": "ym2612"
    },
    {
      "channel": 2,
      "note": 51,
      "start": 8.1299,
      "duration": 0.0161,
      "velocity": 100,
      "chip": "ym2612"
    },
    {
      "channel": 0,
      "note": 39,
      "start": 8.1413,
      "duration": 0.0179,
      "velocity": 124,
      "chip": "ym2612"
    },
    {
      "channel": 2,
      "note": 51,
      "start": 8.146,
      "duration": 0.0186,
      "velocity": 100,
      "chip": "ym2612"
    },
    {
      "channel": 0,
      "note": 84,
      "start": 8.1592,
      "duration": 0.0143,
      "velocity": 124,
      "chip": "ym2612"
    },
    {
      "channel": 3,
      "note": 71,
      "start": 8.1632,
      "duration": 0.014,
      "velocity": 110,
      "chip": "ym2612"
    },
    {
      "channel": 2,
      "note": 54,
      "start": 8.1646,
      "duration": 0.0137,
      "velocity": 100,
      "chip": "ym2612"
    },
    {
      "channel": 1,
      "note": 75,
      "start": 8.1661,
      "duration": 0.0135,
      "velocity": 110,
      "chip": "ym2612"
    },
    {
      "channel": 0,
      "note": 82,
      "start": 8.1735,
      "duration": 0.016,
      "velocity": 124,
      "chip": "ym2612"
    },
    {
      "channel": 3,
      "note": 71,
      "start": 8.1771,
      "duration": 0.016,
      "velocity": 110,
      "chip": "ym2612"
    },
    {
      "channel": 2,
      "note": 54,
      "start": 8.1784,
      "duration": 0.0159,
      "velocity": 100,
      "chip": "ym2612"
    },
    {
      "channel": 1,
      "note": 75,
      "start": 8.1796,
      "duration": 0.0158,
      "velocity": 110,
      "chip": "ym2612"
    },
    {
      "channel": 0,
      "note": 80,
      "start": 8.1895,
      "duration": 0.0161,
      "velocity": 124,
      "chip": "ym2612"
    },
    {
      "channel": 3,
      "note": 71,
      "start": 8.1931,
      "duration": 0.0161,
      "velocity": 110,
      "chip": "ym2612"
    },
    {
      "channel": 2,
      "note": 54,
      "start": 8.1943,
      "duration": 0.0161,
      "velocity": 100,
      "chip": "ym2612"
    },
    {
      "channel": 1,
      "note": 75,
      "start": 8.1955,
      "duration": 0.0161,
      "velocity": 110,
      "chip": "ym2612"
    },
    {
      "channel": 0,
      "note": 77,
      "start": 8.2056,
      "duration": 0.0162,
      "velocity": 124,
      "chip": "ym2612"
    },
    {
      "channel": 3,
      "note": 71,
      "start": 8.2092,
      "duration": 0.0161,
      "velocity": 110,
      "chip": "ym2612"
    },
    {
      "channel": 2,
      "note": 54,
      "start": 8.2104,
      "duration": 0.0161,
      "velocity": 100,
      "chip": "ym2612"
    },
    {
      "channel": 1,
      "note": 75,
      "start": 8.2116,
      "duration": 0.0161,
      "velocity": 110,
      "chip": "ym2612"
    },
    {
      "channel": 0,
      "note": 75,
      "start": 8.2218,
      "duration": 0.0161,
      "velocity": 124,
      "chip": "ym2612"
    },
    {
      "channel": 3,
      "note": 71,
      "start": 8.2253,
      "duration": 0.0161,
      "velocity": 110,
      "chip": "ym2612"
    },
    {
      "channel": 2,
      "note": 54,
      "start": 8.2264,
      "duration": 0.0162,
      "velocity": 100,
      "chip": "ym2612"
    },
    {
      "channel": 1,
      "note": 75,
      "start": 8.2277,
      "duration": 0.0161,
      "velocity": 110,
      "chip": "ym2612"
    },
    {
      "channel": 0,
      "note": 72,
      "start": 8.2379,
      "duration": 0.0179,
      "velocity": 124,
      "chip": "ym2612"
    },
    {
      "channel": 3,
      "note": 71,
      "start": 8.2415,
      "duration": 0.018,
      "velocity": 110,
      "chip": "ym2612"
    },
    {
      "channel": 2,
      "note": 54,
      "start": 8.2426,
      "duration": 0.0179,
      "velocity": 100,
      "chip": "ym2612"
    },
    {
      "channel": 1,
      "note": 75,
      "start": 8.2437,
      "duration": 0.018,
      "velocity": 110,
      "chip": "ym2612"
    },
    {
      "channel": 0,
      "note": 84,
      "start": 8.2558,
      "duration": 0.0144,
      "velocity": 124,
      "chip": "ym2612"
    },
    {
      "channel": 3,
      "note": 71,
      "start": 8.2594,
      "duration": 0.0144,
      "velocity": 110,
      "chip": "ym2612"
    },
    {
      "channel": 2,
      "note": 54,
      "start": 8.2605,
      "duration": 0.0144,
      "velocity": 100,
      "chip": "ym2612"
    },
    {
      "channel": 1,
      "note": 75,
      "start": 8.2617,
      "duration": 0.0143,
      "velocity": 110,
      "chip": "ym2612"
    },
    {
      "channel": 0,
      "note": 82,
      "start": 8.2702,
      "duration": 0.0163,
      "velocity": 124,
      "chip": "ym2612"
    },
    {
      "channel": 2,
      "note": 54,
      "start": 8.2749,
      "duration": 0.0163,
      "velocity": 100,
      "chip": "ym2612"
    },
    {
      "channel": 0,
      "note": 80,
      "start": 8.2866,
      "duration": 0.0163,
      "velocity": 124,
      "chip": "ym2612"
    },
    {
      "channel": 2,
      "note": 54,
      "start": 8.2913,
      "duration": 0.0163,
      "velocity": 100,
      "chip": "ym2612"
    },
    {
      "channel": 0,
      "note": 77,
      "start": 8.3029,
      "duration": 0.0161,
      "velocity": 124,
      "chip": "ym2612"
    },
    {
      "channel": 2,
      "note": 54,
      "start": 8.3076,
      "duration": 0.0161,
      "velocity": 100,
      "chip": "ym2612"
    },
    {
      "channel": 0,
      "note": 75,
      "start": 8.319,
      "duration": 0.016,
      "velocity": 124,
      "chip": "ym2612"
    },
    {
      "channel": 2,
      "note": 54,
      "start": 8.3237,
      "duration": 0.0161,
      "velocity": 100,
      "chip": "ym2612"
    },
    {
      "channel": 0,
      "note": 72,
      "start": 8.335,
      "duration": 0.0158,
      "velocity": 124,
      "chip": "ym2612"
    },
    {
      "channel": 2,
      "note": 54,
      "start": 8.3398,
      "duration": 0.0161,
      "velocity": 100,
      "chip": "ym2612"
    },
    {
      "channel": 0,
      "note": 70,
      "start": 8.3508,
      "duration": 0.0183,
      "velocity": 115,
      "chip": "ym2612"
    },
    {
      "channel": 2,
      "note": 54,
      "start": 8.3559,
      "duration": 0.019,
      "velocity": 100,
      "chip": "ym2612"
    },
    {
      "channel": 0,
      "note": 36,
      "start": 8.3691,
      "duration": 0.0137,
      "velocity": 115,
      "chip": "ym2612"
    },
    {
      "channel": 3,
      "note": 75,
      "start": 8.3735,
      "duration": 0.0137,
      "velocity": 110,
      "chip": "ym2612"
    },
    {
      "channel": 2,
      "note": 56,
      "start": 8.3749,
      "duration": 0.0136,
      "velocity": 100,
      "chip": "ym2612"
    },
    {
      "channel": 1,
      "note": 71,
      "start": 8.3764,
      "duration": 0.0133,
      "velocity": 110,
      "chip": "ym2612"
    },
    {
      "channel": 0,
      "note": 36,
      "start": 8.3829,
      "duration": 0.016,
      "velocity": 115,
      "chip": "ym2612"
    },
    {
      "channel": 3,
      "note": 75,
      "start": 8.3872,
      "duration": 0.0159,
      "velocity": 110,
      "chip": "ym2612"
    },
    {
      "channel": 2,
      "note": 56,
      "start": 8.3885,
      "duration": 0.0157,
      "velocity": 100,
      "chip": "ym2612"
    },
    {
      "channel": 1,
      "note": 71,
      "start": 8.3897,
      "duration": 0.0156,
      "velocity": 110,
      "chip": "ym2612"
    },
    {
      "channel": 0,
      "note": 37,
      "start": 8.3989,
      "duration": 0.0161,
      "velocity": 115,
      "chip": "ym2612"
    },
    {
      "channel": 3,
      "note": 75,
      "start": 8.403,
      "duration": 0.0161,
      "velocity": 110,
      "chip": "ym2612"
    },
    {
      "channel": 2,
      "note": 56,
      "start": 8.4042,
      "duration": 0.0161,
      "velocity": 100,
      "chip": "ym2612"
    },
    {
      "channel": 1,
      "note": 71,
      "start": 8.4053,
      "duration": 0.0161,
      "velocity": 110,
      "chip": "ym2612"
    },
    {
      "channel": 0,
      "note": 37,
      "start": 8.415,
      "duration": 0.0161,
      "velocity": 115,
      "chip": "ym2612"
    },
    {
      "channel": 3,
      "note": 75,
      "start": 8.4191,
      "duration": 0.0161,
      "velocity": 110,
      "chip": "ym2612"
    },
    {
      "channel": 2,
      "note": 56,
      "start": 8.4203,
      "duration": 0.0161,
      "velocity": 100,
      "chip": "ym2612"
    },
    {
      "channel": 1,
      "note": 71,
      "start": 8.4214,
      "duration": 0.0161,
      "velocity": 110,
      "chip": "ym2612"
    },
    {
      "channel": 0,
      "note": 38,
      "start": 8.4311,
      "duration": 0.0161,
      "velocity": 115,
      "chip": "ym2612"
    },
    {
      "channel": 3,
      "note": 75,
      "start": 8.4352,
      "duration": 0.016,
      "velocity": 110,
      "chip": "ym2612"
    },
    {
      "channel": 2,
      "note": 56,
      "start": 8.4364,
      "duration": 0.0161,
      "velocity": 100,
      "chip": "ym2612"
    },
    {
      "channel": 1,
      "note": 71,
      "start": 8.4375,
      "duration": 0.0162,
      "velocity": 110,
      "chip": "ym2612"
    },
    {
      "channel": 0,
      "note": 38,
      "start": 8.4472,
      "duration": 0.0161,
      "velocity": 115,
      "chip": "ym2612"
    },
    {
      "channel": 3,
      "note": 75,
      "start": 8.4512,
      "duration": 0.0156,
      "velocity": 110,
      "chip": "ym2612"
    },
    {
      "channel": 2,
      "note": 56,
      "start": 8.4525,
      "duration": 0.0161,
      "velocity": 100,
      "chip": "ym2612"
    },
    {
      "channel": 1,
      "note": 71,
      "start": 8.4537,
      "duration": 0.0161,
      "velocity": 110,
      "chip": "ym2612"
    },
    {
      "channel": 0,
      "note": 39,
      "start": 8.4633,
      "duration": 0.0161,
      "velocity": 115,
      "chip": "ym2612"
    },
    {
      "channel": 3,
      "note": 75,
      "start": 8.4668,
      "duration": 0.0161,
      "velocity": 110,
      "chip": "ym2612"
    },
    {
      "channel": 2,
      "note": 56,
      "start": 8.4685,
      "duration": 0.0161,
      "velocity": 100,
      "chip": "ym2612"
    },
    {
      "channel": 1,
      "note": 71,
      "start": 8.4698,
      "duration": 0.0161,
      "velocity": 110,
      "chip": "ym2612"
    },
    {
      "channel": 0,
      "note": 39,
      "start": 8.4794,
      "duration": 0.0161,
      "velocity": 115,
      "chip": "ym2612"
    },
    {
      "channel": 2,
      "note": 56,
      "start": 8.4846,
      "duration": 0.0155,
      "velocity": 100,
      "chip": "ym2612"
    },
    {
      "channel": 0,
      "note": 40,
      "start": 8.4955,
      "duration": 0.0161,
      "velocity": 115,
      "chip": "ym2612"
    },
    {
      "channel": 2,
      "note": 56,
      "start": 8.5002,
      "duration": 0.0161,
      "velocity": 100,
      "chip": "ym2612"
    },
    {
      "channel": 0,
      "note": 40,
      "start": 8.5116,
      "duration": 0.0161,
      "velocity": 115,
      "chip": "ym2612"
    },
    {
      "channel": 2,
      "note": 56,
      "start": 8.5163,
      "duration": 0.016,
      "velocity": 100,
      "chip": "ym2612"
    },
    {
      "channel": 0,
      "note": 40,
      "start": 8.5277,
      "duration": 0.0161,
      "velocity": 115,
      "chip": "ym2612"
    },
    {
      "channel": 2,
      "note": 56,
      "start": 8.5324,
      "duration": 0.0161,
      "velocity": 100,
      "chip": "ym2612"
    },
    {
      "channel": 0,
      "note": 41,
      "start": 8.5438,
      "duration": 0.0161,
      "velocity": 115,
      "chip": "ym2612"
    },
    {
      "channel": 2,
      "note": 56,
      "start": 8.5485,
      "duration": 0.0162,
      "velocity": 100,
      "chip": "ym2612"
    },
    {
      "channel": 0,
      "note": 41,
      "start": 8.5599,
      "duration": 0.0161,
      "velocity": 115,
      "chip": "ym2612"
    },
    {
      "channel": 2,
      "note": 56,
      "start": 8.5646,
      "duration": 0.0166,
      "velocity": 100,
      "chip": "ym2612"
    },
    {
      "channel": 0,
      "note": 42,
      "start": 8.576,
      "duration": 0.0161,
      "velocity": 115,
      "chip": "ym2612"
    },
    {
      "channel": 3,
      "note": 71,
      "start": 8.58,
      "duration": 0.0157,
      "velocity": 110,
      "chip": "ym2612"
    },
    {
      "channel": 2,
      "note": 56,
      "start": 8.5812,
      "duration": 0.0156,
      "velocity": 100,
      "chip": "ym2612"
    },
    {
      "channel": 1,
      "note": 75,
      "start": 8.5829,
      "duration": 0.0152,
      "velocity": 110,
      "chip": "ym2612"
    },
    {
      "channel": 0,
      "note": 42,
      "start": 8.5921,
      "duration": 0.0161,
      "velocity": 115,
      "chip": "ym2612"
    },
    {
      "channel": 3,
      "note": 71,
      "start": 8.5957,
      "duration": 0.016,
      "velocity": 110,
      "chip": "ym2612"
    },
    {
      "channel": 2,
      "note": 56,
      "start": 8.5969,
      "duration": 0.016,
      "velocity": 100,
      "chip": "ym2612"
    },
    {
      "channel": 1,
      "note": 75,
      "start": 8.5981,
      "duration": 0.016,
      "velocity": 110,
      "chip": "ym2612"
    },
    {
      "channel": 0,
      "note": 43,
      "start": 8.6082,
      "duration": 0.0161,
      "velocity": 115,
      "chip": "ym2612"
    },
    {
      "channel": 3,
      "note": 71,
      "start": 8.6117,
      "duration": 0.0161,
      "velocity": 110,
      "chip": "ym2612"
    },
    {
      "channel": 2,
      "note": 56,
      "start": 8.6129,
      "duration": 0.0161,
      "velocity": 100,
      "chip": "ym2612"
    },
    {
      "channel": 1,
      "note": 75,
      "start": 8.6141,
      "duration": 0.0161,
      "velocity": 110,
      "chip": "ym2612"
    },
    {
      "channel": 0,
      "note": 43,
      "start": 8.6243,
      "duration": 0.0161,
      "velocity": 115,
      "chip": "ym2612"
    },
    {
      "channel": 2,
      "note": 56,
      "start": 8.629,
      "duration": 0.0161,
      "velocity": 100,
      "chip": "ym2612"
    },
    {
      "channel": 0,
      "note": 44,
      "start": 8.6404,
      "duration": 0.0161,
      "velocity": 115,
      "chip": "ym2612"
    },
    {
      "channel": 2,
      "note": 56,
      "start": 8.6451,
      "duration": 0.016,
      "velocity": 100,
      "chip": "ym2612"
    },
    {
      "channel": 0,
      "note": 44,
      "start": 8.6565,
      "duration": 0.018,
      "velocity": 115,
      "chip": "ym2612"
    },
    {
      "channel": 2,
      "note": 56,
      "start": 8.6612,
      "duration": 0.0186,
      "velocity": 100,
      "chip": "ym2612"
    },
    {
      "channel": 0,
      "note": 36,
      "start": 8.6745,
      "duration": 0.0143,
      "velocity": 115,
      "chip": "ym2612"
    },
    {
      "channel": 3,
      "note": 71,
      "start": 8.6783,
      "duration": 0.0141,
      "velocity": 110,
      "chip": "ym2612"
    },
    {
      "channel": 2,
      "note": 56,
      "start": 8.6798,
      "duration": 0.0138,
      "velocity": 100,
      "chip": "ym2612"
    },
    {
      "channel": 1,
      "note": 75,
      "start": 8.6813,
      "duration": 0.0135,
      "velocity": 110,
      "chip": "ym2612"
    },
    {
      "channel": 0,
      "note": 36,
      "start": 8.6888,
      "duration": 0.016,
      "velocity": 115,
      "chip": "ym2612"
    },
    {
      "channel": 3,
      "note": 71,
      "start": 8.6924,
      "duration": 0.016,
      "velocity": 110,
      "chip": "ym2612"
    },
    {
      "channel": 2,
      "note": 56,
      "start": 8.6936,
      "duration": 0.0159,
      "velocity": 100,
      "chip": "ym2612"
    },
    {
      "channel": 1,
      "note": 75,
      "start": 8.6948,
      "duration": 0.0159,
      "velocity": 110,
      "chip": "ym2612"
    },
    {
      "channel": 0,
      "note": 37,
      "start": 8.7048,
      "duration": 0.0161,
      "velocity": 115,
      "chip": "ym2612"
    },
    {
      "channel": 3,
      "note": 71,
      "start": 8.7084,
      "duration": 0.0161,
      "velocity": 110,
      "chip": "ym2612"
    },
    {
      "channel": 2,
      "note": 56,
      "start": 8.7095,
      "duration": 0.0161,
      "velocity": 100,
      "chip": "ym2612"
    },
    {
      "channel": 1,
      "note": 75,
      "start": 8.7107,
      "duration": 0.0161,
      "velocity": 110,
      "chip": "ym2612"
    },
    {
      "channel": 0,
      "note": 37,
      "start": 8.7209,
      "duration": 0.0162,
      "velocity": 115,
      "chip": "ym2612"
    },
    {
      "channel": 3,
      "note": 71,
      "start": 8.7245,
      "duration": 0.0162,
      "velocity": 110,
      "chip": "ym2612"
    },
    {
      "channel": 2,
      "note": 56,
      "start": 8.7256,
      "duration": 0.0161,
      "velocity": 100,
      "chip": "ym2612"
    },
    {
      "channel": 1,
      "note": 75,
      "start": 8.7268,
      "duration": 0.0162,
      "velocity": 110,
      "chip": "ym2612"
    },
    {
      "channel": 0,
      "note": 38,
      "start": 8.7371,
      "duration": 0.0161,
      "velocity": 115,
      "chip": "ym2612"
    },
    {
      "channel": 2,
      "note": 56,
      "start": 8.7418,
      "duration": 0.0162,
      "velocity": 100,
      "chip": "ym2612"
    },
    {
      "channel": 0,
      "note": 38,
      "start": 8.7532,
      "duration": 0.0163,
      "velocity": 115,
      "chip": "ym2612"
    },
    {
      "channel": 2,
      "note": 56,
      "start": 8.7579,
      "duration": 0.0164,
      "velocity": 100,
      "chip": "ym2612"
    },
    {
      "channel": 0,
      "note": 39,
      "start": 8.7696,
      "duration": 0.0181,
      "velocity": 124,
      "chip": "ym2612"
    },
    {
      "channel": 2,
      "note": 56,
      "start": 8.7744,
      "duration": 0.0185,
      "velocity": 100,
      "chip": "ym2612"
    },
    {
      "channel": 0,
      "note": 84,
      "start": 8.7878,
      "duration": 0.0143,
      "velocity": 124,
      "chip": "ym2612"
    },
    {
      "channel": 3,
      "note": 75,
      "start": 8.7917,
      "duration": 0.0141,
      "velocity": 110,
      "chip": "ym2612"
    },
    {
      "channel": 2,
      "note": 56,
      "start": 8.7929,
      "duration": 0.0141,
      "velocity": 100,
      "chip": "ym2612"
    },
    {
      "channel": 1,
      "note": 71,
      "start": 8.7944,
      "duration": 0.0137,
      "velocity": 110,
      "chip": "ym2612"
    },
    {
      "channel": 0,
      "note": 82,
      "start": 8.8021,
      "duration": 0.016,
      "velocity": 124,
      "chip": "ym2612"
    },
    {
      "channel": 3,
      "note": 75,
      "start": 8.8057,
      "duration": 0.016,
      "velocity": 110,
      "chip": "ym2612"
    },
    {
      "channel": 2,
      "note": 56,
      "start": 8.8069,
      "duration": 0.016,
      "velocity": 100,
      "chip": "ym2612"
    },
    {
      "channel": 1,
      "note": 71,
      "start": 8.8081,
      "duration": 0.0159,
      "velocity": 110,
      "chip": "ym2612"
    },
    {
      "channel": 0,
      "note": 80,
      "start": 8.818,
      "duration": 0.0156,
      "velocity": 124,
      "chip": "ym2612"
    },
    {
      "channel": 3,
      "note": 75,
      "start": 8.8217,
      "duration": 0.0161,
      "velocity": 110,
      "chip": "ym2612"
    },
    {
      "channel": 2,
      "note": 56,
      "start": 8.8229,
      "duration": 0.0161,
      "velocity": 100,
      "chip": "ym2612"
    },
    {
      "channel": 1,
      "note": 71,
      "start": 8.824,
      "duration": 0.0161,
      "velocity": 110,
      "chip": "ym2612"
    },
    {
      "channel": 0,
      "note": 77,
      "start": 8.8336,
      "duration": 0.0161,
      "velocity": 124,
      "chip": "ym2612"
    },
    {
      "channel": 2,
      "note": 56,
      "start": 8.839,
      "duration": 0.016,
      "velocity": 100,
      "chip": "ym2612"
    },
    {
      "channel": 0,
      "note": 75,
      "start": 8.8497,
      "duration": 0.0161,
      "velocity": 124,
      "chip": "ym2612"
    },
    {
      "channel": 2,
      "note": 56,
      "start": 8.855,
      "duration": 0.0161,
      "velocity": 100,
      "chip": "ym2612"
    },
    {
      "channel": 0,
      "note": 72,
      "start": 8.8658,
      "duration": 0.0161,
      "velocity": 124,
      "chip": "ym2612"
    },
    {
      "channel": 2,
      "note": 56,
      "start": 8.8711,
      "duration": 0.0166,
      "velocity": 100,
      "chip": "ym2612"
    },
    {
      "channel": 0,
      "note": 70,
      "start": 8.8819,
      "duration": 0.0161,
      "velocity": 124,
      "chip": "ym2612"
    },
    {
      "channel": 3,
      "note": 75,
      "start": 8.8864,
      "duration": 0.0159,
      "velocity": 110,
      "chip": "ym2612"
    },
    {
      "channel": 2,
      "note": 56,
      "start": 8.8877,
      "duration": 0.0158,
      "velocity": 100,
      "chip": "ym2612"
    },
    {
      "channel": 1,
      "note": 71,
      "start": 8.8892,
      "duration": 0.0156,
      "velocity": 110,
      "chip": "ym2612"
    },
    {
      "channel": 0,
      "note": 68,
      "start": 8.898,
      "duration": 0.0161,
      "velocity": 124,
      "chip": "ym2612"
    },
    {
      "channel": 3,
      "note": 75,
      "start": 8.9023,
      "duration": 0.016,
      "velocity": 110,
      "chip": "ym2612"
    },
    {
      "channel": 2,
      "note": 56,
      "start": 8.9035,
      "duration": 0.016,
      "velocity": 100,
      "chip": "ym2612"
    },
    {
      "channel": 1,
      "note": 71,
      "start": 8.9048,
      "duration": 0.0159,
      "velocity": 110,
      "chip": "ym2612"
    },
    {
      "channel": 0,
      "note": 65,
      "start": 8.9141,
      "duration": 0.0161,
      "velocity": 124,
      "chip": "ym2612"
    },
    {
      "channel": 3,
      "note": 75,
      "start": 8.9182,
      "duration": 0.0157,
      "velocity": 110,
      "chip": "ym2612"
    },
    {
      "channel": 2,
      "note": 56,
      "start": 8.9195,
      "duration": 0.0161,
      "velocity": 100,
      "chip": "ym2612"
    },
    {
      "channel": 1,
      "note": 71,
      "start": 8.9207,
      "duration": 0.0161,
      "velocity": 110,
      "chip": "ym2612"
    },
    {
      "channel": 0,
      "note": 63,
      "start": 8.9302,
      "duration": 0.0153,
      "velocity": 1,
      "chip": "ym2612"
    },
    {
      "channel": 3,
      "note": 75,
      "start": 8.9339,
      "duration": 0.0151,
      "velocity": 110,
      "chip": "ym2612"
    },
    {
      "channel": 2,
      "note": 56,
      "start": 8.9356,
      "duration": 0.0147,
      "velocity": 100,
      "chip": "ym2612"
    },
    {
      "channel": 1,
      "note": 71,
      "start": 8.9368,
      "duration": 0.0153,
      "velocity": 110,
      "chip": "ym2612"
    },
    {
      "channel": 2,
      "note": 56,
      "start": 8.9503,
      "duration": 0.0152,
      "velocity": 100,
      "chip": "ym2612"
    },
    {
      "channel": 2,
      "note": 56,
      "start": 8.9655,
      "duration": 0.0161,
      "velocity": 100,
      "chip": "ym2612"
    },
    {
      "channel": 2,
      "note": 56,
      "start": 8.9817,
      "duration": 0.0207,
      "velocity": 100,
      "chip": "ym2612"
    },
    {
      "channel": 0,
      "note": 36,
      "start": 8.9965,
      "duration": 0.0143,
      "velocity": 115,
      "chip": "ym2612"
    },
    {
      "channel": 3,
      "note": 71,
      "start": 9.0006,
      "duration": 0.0138,
      "velocity": 110,
      "chip": "ym2612"
    },
    {
      "channel": 2,
      "note": 51,
      "start": 9.0025,
      "duration": 0.0132,
      "velocity": 100,
      "chip": "ym2612"
    },
    {
      "channel": 1,
      "note": 75,
      "start": 9.004,
      "duration": 0.0129,
      "velocity": 110,
      "chip": "ym2612"
    },
    {
      "channel": 0,
      "note": 36,
      "start": 9.0108,
      "duration": 0.016,
      "velocity": 115,
      "chip": "ym2612"
    },
    {
      "channel": 3,
      "note": 71,
      "start": 9.0144,
      "duration": 0.016,
      "velocity": 110,
      "chip": "ym2612"
    },
    {
      "channel": 2,
      "note": 51,
      "start": 9.0156,
      "duration": 0.0159,
      "velocity": 100,
      "chip": "ym2612"
    },
    {
      "channel": 1,
      "note": 75,
      "start": 9.0168,
      "duration": 0.0159,
      "velocity": 110,
      "chip": "ym2612"
    },
    {
      "channel": 0,
      "note": 37,
      "start": 9.0268,
      "duration": 0.0161,
      "velocity": 115,
      "chip": "ym2612"
    },
    {
      "channel": 3,
      "note": 71,
      "start": 9.0304,
      "duration": 0.0161,
      "velocity": 110,
      "chip": "ym2612"
    },
    {
      "channel": 2,
      "note": 51,
      "start": 9.0315,
      "duration": 0.0161,
      "velocity": 100,
      "chip": "ym2612"
    },
    {
      "channel": 1,
      "note": 75,
      "start": 9.0327,
      "duration": 0.016,
      "velocity": 110,
      "chip": "ym2612"
    },
    {
      "channel": 0,
      "note": 37,
      "start": 9.0429,
      "duration": 0.0161,
      "velocity": 115,
      "chip": "ym2612"
    },
    {
      "channel": 3,
      "note": 71,
      "start": 9.0465,
      "duration": 0.0161,
      "velocity": 110,
      "chip": "ym2612"
    },
    {
      "channel": 2,
      "note": 51,
      "start": 9.0476,
      "duration": 0.0161,
      "velocity": 100,
      "chip": "ym2612"
    },
    {
      "channel": 1,
      "note": 75,
      "start": 9.0488,
      "duration": 0.0162,
      "velocity": 110,
      "chip": "ym2612"
    },
    {
      "channel": 0,
      "note": 38,
      "start": 9.059,
      "duration": 0.0161,
      "velocity": 115,
      "chip": "ym2612"
    },
    {
      "channel": 3,
      "note": 71,
      "start": 9.0626,
      "duration": 0.0161,
      "velocity": 110,
      "chip": "ym2612"
    },
    {
      "channel": 2,
      "note": 51,
      "start": 9.0637,
      "duration": 0.0161,
      "velocity": 100,
      "chip": "ym2612"
    },
    {
      "channel": 1,
      "note": 75,
      "start": 9.0649,
      "duration": 0.0161,
      "velocity": 110,
      "chip": "ym2612"
    },
    {
      "channel": 0,
      "note": 38,
      "start": 9.0751,
      "duration": 0.018,
      "velocity": 115,
      "chip": "ym2612"
    },
    {
      "channel": 3,
      "note": 71,
      "start": 9.0787,
      "duration": 0.018,
      "velocity": 110,
      "chip": "ym2612"
    },
    {
      "channel": 2,
      "note": 51,
      "start": 9.0798,
      "duration": 0.0183,
      "velocity": 100,
      "chip": "ym2612"
    },
    {
      "channel": 1,
      "note": 75,
      "start": 9.081,
      "duration": 0.0183,
      "velocity": 110,
      "chip": "ym2612"
    },
    {
      "channel": 0,
      "note": 36,
      "start": 9.0931,
      "duration": 0.0143,
      "velocity": 115,
      "chip": "ym2612"
    },
    {
      "channel": 3,
      "note": 71,
      "start": 9.0967,
      "duration": 0.0143,
      "velocity": 110,
      "chip": "ym2612"
    },
    {
      "channel": 2,
      "note": 54,
      "start": 9.0981,
      "duration": 0.0141,
      "velocity": 100,
      "chip": "ym2612"
    },
    {
      "channel": 1,
      "note": 75,
      "start": 9.0993,
      "duration": 0.0141,
      "velocity": 110,
      "chip": "ym2612"
    },
    {
      "channel": 0,
      "note": 36,
      "start": 9.1074,
      "duration": 0.0161,
      "velocity": 115,
      "chip": "ym2612"
    },
    {
      "channel": 2,
      "note": 54,
      "start": 9.1122,
      "duration": 0.0159,
      "velocity": 100,
      "chip": "ym2612"
    },
    {
      "channel": 0,
      "note": 37,
      "start": 9.1235,
      "duration": 0.0161,
      "velocity": 115,
      "chip": "ym2612"
    },
    {
      "channel": 2,
      "note": 54,
      "start": 9.1281,
      "duration": 0.0162,
      "velocity": 100,
      "chip": "ym2612"
    },
    {
      "channel": 0,
      "note": 37,
      "start": 9.1395,
      "duration": 0.0161,
      "velocity": 115,
      "chip": "ym2612"
    },
    {
      "channel": 2,
      "note": 54,
      "start": 9.1443,
      "duration": 0.0161,
      "velocity": 100,
      "chip": "ym2612"
    },
    {
      "channel": 0,
      "note": 38,
      "start": 9.1556,
      "duration": 0.0161,
      "velocity": 115,
      "chip": "ym2612"
    },
    {
      "channel": 2,
      "note": 54,
      "start": 9.1604,
      "duration": 0.0161,
      "velocity": 100,
      "chip": "ym2612"
    },
    {
      "channel": 0,
      "note": 38,
      "start": 9.1717,
      "duration": 0.0161,
      "velocity": 115,
      "chip": "ym2612"
    },
    {
      "channel": 2,
      "note": 54,
      "start": 9.1764,
      "duration": 0.0161,
      "velocity": 100,
      "chip": "ym2612"
    },
    {
      "channel": 0,
      "note": 39,
      "start": 9.1878,
      "duration": 0.0179,
      "velocity": 127,
      "chip": "ym2612"
    },
    {
      "channel": 2,
      "note": 54,
      "start": 9.1925,
      "duration": 0.0186,
      "velocity": 100,
      "chip": "ym2612"
    },
    {
      "channel": 0,
      "note": 88,
      "start": 9.2058,
      "duration": 0.0144,
      "velocity": 127,
      "chip": "ym2612"
    },
    {
      "channel": 3,
      "note": 75,
      "start": 9.2097,
      "duration": 0.0141,
      "velocity": 110,
      "chip": "ym2612"
    },
    {
      "channel": 2,
      "note": 56,
      "start": 9.2111,
      "duration": 0.0139,
      "velocity": 100,
      "chip": "ym2612"
    },
    {
      "channel": 1,
      "note": 71,
      "start": 9.2127,
      "duration": 0.0136,
      "velocity": 110,
      "chip": "ym2612"
    },
    {
      "channel": 0,
      "note": 86,
      "start": 9.2202,
      "duration": 0.0163,
      "velocity": 127,
      "chip": "ym2612"
    },
    {
      "channel": 3,
      "note": 75,
      "start": 9.2238,
      "duration": 0.0163,
      "velocity": 110,
      "chip": "ym2612"
    },
    {
      "channel": 2,
      "note": 56,
      "start": 9.225,
      "duration": 0.0162,
      "velocity": 100,
      "chip": "ym2612"
    },
    {
      "channel": 1,
      "note": 71,
      "start": 9.2263,
      "duration": 0.0161,
      "velocity": 110,
      "chip": "ym2612"
    },
    {
      "channel": 0,
      "note": 85,
      "start": 9.2365,
      "duration": 0.0163,
      "velocity": 127,
      "chip": "ym2612"
    },
    {
      "channel": 3,
      "note": 75,
      "start": 9.2401,
      "duration": 0.0163,
      "velocity": 110,
      "chip": "ym2612"
    },
    {
      "channel": 2,
      "note": 56,
      "start": 9.2412,
      "duration": 0.0163,
      "velocity": 100,
      "chip": "ym2612"
    },
    {
      "channel": 1,
      "note": 71,
      "start": 9.2424,
      "duration": 0.0163,
      "velocity": 110,
      "chip": "ym2612"
    },
    {
      "channel": 0,
      "note": 83,
      "start": 9.2528,
      "duration": 0.0161,
      "velocity": 127,
      "chip": "ym2612"
    },
    {
      "channel": 3,
      "note": 75,
      "start": 9.2563,
      "duration": 0.0161,
      "velocity": 110,
      "chip": "ym2612"
    },
    {
      "channel": 2,
      "note": 56,
      "start": 9.2575,
      "duration": 0.0162,
      "velocity": 100,
      "chip": "ym2612"
    },
    {
      "channel": 1,
      "note": 71,
      "start": 9.2587,
      "duration": 0.0161,
      "velocity": 110,
      "chip": "ym2612"
    },
    {
      "channel": 0,
      "note": 81,
      "start": 9.2689,
      "duration": 0.016,
      "velocity": 127,
      "chip": "ym2612"
    },
    {
      "channel": 3,
      "note": 75,
      "start": 9.2725,
      "duration": 0.0161,
      "velocity": 110,
      "chip": "ym2612"
    },
    {
      "channel": 2,
      "note": 56,
      "start": 9.2737,
      "duration": 0.0161,
      "velocity": 100,
      "chip": "ym2612"
    },
    {
      "channel": 1,
      "note": 71,
      "start": 9.2748,
      "duration": 0.0162,
      "velocity": 110,
      "chip": "ym2612"
    },
    {
      "channel": 0,
      "note": 80,
      "start": 9.285,
      "duration": 0.018,
      "velocity": 127,
      "chip": "ym2612"
    },
    {
      "channel": 3,
      "note": 75,
      "start": 9.2886,
      "duration": 0.018,
      "velocity": 110,
      "chip": "ym2612"
    },
    {
      "channel": 2,
      "note": 56,
      "start": 9.2898,
      "duration": 0.0183,
      "velocity": 100,
      "chip": "ym2612"
    },
    {
      "channel": 1,
      "note": 71,
      "start": 9.291,
      "duration": 0.0183,
      "velocity": 110,
      "chip": "ym2612"
    },
    {
      "channel": 0,
      "note": 88,
      "start": 9.303,
      "duration": 0.0137,
      "velocity": 127,
      "chip": "ym2612"
    },
    {
      "channel": 3,
      "note": 75,
      "start": 9.3066,
      "duration": 0.0142,
      "velocity": 110,
      "chip": "ym2612"
    },
    {
      "channel": 2,
      "note": 68,
      "start": 9.308,
      "duration": 0.0141,
      "velocity": 100,
      "chip": "ym2612"
    },
    {
      "channel": 1,
      "note": 71,
      "start": 9.3092,
      "duration": 0.0141,
      "velocity": 110,
      "chip": "ym2612"
    },
    {
      "channel": 0,
      "note": 86,
      "start": 9.3167,
      "duration": 0.016,
      "velocity": 127,
      "chip": "ym2612"
    },
    {
      "channel": 2,
      "note": 68,
      "start": 9.3221,
      "duration": 0.016,
      "velocity": 100,
      "chip": "ym2612"
    },
    {
      "channel": 0,
      "note": 85,
      "start": 9.3327,
      "duration": 0.0161,
      "velocity": 127,
      "chip": "ym2612"
    },
    {
      "channel": 2,
      "note": 68,
      "start": 9.338,
      "duration": 0.0161,
      "velocity": 100,
      "chip": "ym2612"
    },
    {
      "channel": 0,
      "note": 83,
      "start": 9.3488,
      "duration": 0.0161,
      "velocity": 127,
      "chip": "ym2612"
    },
    {
      "channel": 2,
      "note": 68,
      "start": 9.3541,
      "duration": 0.0161,
      "velocity": 100,
      "chip": "ym2612"
    },
    {
      "channel": 0,
      "note": 81,
      "start": 9.3649,
      "duration": 0.0161,
      "velocity": 127,
      "chip": "ym2612"
    },
    {
      "channel": 2,
      "note": 68,
      "start": 9.3703,
      "duration": 0.0161,
      "velocity": 100,
      "chip": "ym2612"
    },
    {
      "channel": 0,
      "note": 80,
      "start": 9.381,
      "duration": 0.0161,
      "velocity": 127,
      "chip": "ym2612"
    },
    {
      "channel": 2,
      "note": 68,
      "start": 9.3864,
      "duration": 0.0161,
      "velocity": 100,
      "chip": "ym2612"
    },
    {
      "channel": 0,
      "note": 78,
      "start": 9.3971,
      "duration": 0.0161,
      "velocity": 127,
      "chip": "ym2612"
    },
    {
      "channel": 2,
      "note": 68,
      "start": 9.4025,
      "duration": 0.0167,
      "velocity": 100,
      "chip": "ym2612"
    },
    {
      "channel": 0,
      "note": 76,
      "start": 9.4132,
      "duration": 0.0161,
      "velocity": 127,
      "chip": "ym2612"
    },
    {
      "channel": 3,
      "note": 71,
      "start": 9.4174,
      "duration": 0.0156,
      "velocity": 110,
      "chip": "ym2612"
    },
    {
      "channel": 2,
      "note": 56,
      "start": 9.4193,
      "duration": 0.0155,
      "velocity": 100,
      "chip": "ym2612"
    },
    {
      "channel": 1,
      "note": 75,
      "start": 9.4208,
      "duration": 0.0152,
      "velocity": 110,
      "chip": "ym2612"
    },
    {
      "channel": 0,
      "note": 75,
      "start": 9.4294,
      "duration": 0.0161,
      "velocity": 127,
      "chip": "ym2612"
    },
    {
      "channel": 3,
      "note": 71,
      "start": 9.433,
      "duration": 0.016,
      "velocity": 110,
      "chip": "ym2612"
    },
    {
      "channel": 2,
      "note": 56,
      "start": 9.4347,
      "duration": 0.0155,
      "velocity": 100,
      "chip": "ym2612"
    },
    {
      "channel": 1,
      "note": 75,
      "start": 9.436,
      "duration": 0.0159,
      "velocity": 110,
      "chip": "ym2612"
    },
    {
      "channel": 0,
      "note": 73,
      "start": 9.4455,
      "duration": 0.0161,
      "velocity": 127,
      "chip": "ym2612"
    },
    {
      "channel": 3,
      "note": 71,
      "start": 9.449,
      "duration": 0.0161,
      "velocity": 110,
      "chip": "ym2612"
    },
    {
      "channel": 2,
      "note": 56,
      "start": 9.4502,
      "duration": 0.0161,
      "velocity": 100,
      "chip": "ym2612"
    },
    {
      "channel": 1,
      "note": 75,
      "start": 9.4519,
      "duration": 0.016,
      "velocity": 110,
      "chip": "ym2612"
    },
    {
      "channel": 0,
      "note": 71,
      "start": 9.4616,
      "duration": 0.0161,
      "velocity": 127,
      "chip": "ym2612"
    },
    {
      "channel": 3,
      "note": 71,
      "start": 9.4651,
      "duration": 0.0161,
      "velocity": 110,
      "chip": "ym2612"
    },
    {
      "channel": 2,
      "note": 56,
      "start": 9.4663,
      "duration": 0.0161,
      "velocity": 100,
      "chip": "ym2612"
    },
    {
      "channel": 1,
      "note": 75,
      "start": 9.4679,
      "duration": 0.0156,
      "velocity": 110,
      "chip": "ym2612"
    },
    {
      "channel": 0,
      "note": 69,
      "start": 9.4777,
      "duration": 0.0161,
      "velocity": 127,
      "chip": "ym2612"
    },
    {
      "channel": 3,
      "note": 71,
      "start": 9.4812,
      "duration": 0.0161,
      "velocity": 110,
      "chip": "ym2612"
    },
    {
      "channel": 2,
      "note": 56,
      "start": 9.4824,
      "duration": 0.0161,
      "velocity": 100,
      "chip": "ym2612"
    },
    {
      "channel": 1,
      "note": 75,
      "start": 9.4835,
      "duration": 0.0161,
      "velocity": 110,
      "chip": "ym2612"
    },
    {
      "channel": 0,
      "note": 68,
      "start": 9.4937,
      "duration": 0.018,
      "velocity": 127,
      "chip": "ym2612"
    },
    {
      "channel": 3,
      "note": 71,
      "start": 9.4973,
      "duration": 0.018,
      "velocity": 110,
      "chip": "ym2612"
    },
    {
      "channel": 2,
      "note": 56,
      "start": 9.4985,
      "duration": 0.0183,
      "velocity": 100,
      "chip": "ym2612"
    },
    {
      "channel": 1,
      "note": 75,
      "start": 9.4996,
      "duration": 0.0189,
      "velocity": 110,
      "chip": "ym2612"
    },
    {
      "channel": 0,
      "note": 84,
      "start": 9.5117,
      "duration": 0.0143,
      "velocity": 127,
      "chip": "ym2612"
    },
    {
      "channel": 3,
      "note": 71,
      "start": 9.5153,
      "duration": 0.0143,
      "velocity": 110,
      "chip": "ym2612"
    },
    {
      "channel": 2,
      "note": 68,
      "start": 9.5168,
      "duration": 0.0141,
      "velocity": 100,
      "chip": "ym2612"
    },
    {
      "channel": 1,
      "note": 75,
      "start": 9.5185,
      "duration": 0.0135,
      "velocity": 110,
      "chip": "ym2612"
    },
    {
      "channel": 0,
      "note": 82,
      "start": 9.526,
      "duration": 0.016,
      "velocity": 127,
      "chip": "ym2612"
    },
    {
      "channel": 2,
      "note": 68,
      "start": 9.5308,
      "duration": 0.016,
      "velocity": 100,
      "chip": "ym2612"
    },
    {
      "channel": 0,
      "note": 81,
      "start": 9.542,
      "duration": 0.0161,
      "velocity": 127,
      "chip": "ym2612"
    },
    {
      "channel": 2,
      "note": 68,
      "start": 9.5468,
      "duration": 0.016,
      "velocity": 100,
      "chip": "ym2612"
    },
    {
      "channel": 0,
      "note": 79,
      "start": 9.5581,
      "duration": 0.0161,
      "velocity": 127,
      "chip": "ym2612"
    },
    {
      "channel": 2,
      "note": 68,
      "start": 9.5628,
      "duration": 0.0161,
      "velocity": 100,
      "chip": "ym2612"
    },
    {
      "channel": 0,
      "note": 77,
      "start": 9.5742,
      "duration": 0.0162,
      "velocity": 127,
      "chip": "ym2612"
    },
    {
      "channel": 2,
      "note": 68,
      "start": 9.5789,
      "duration": 0.0161,
      "velocity": 100,
      "chip": "ym2612"
    },
    {
      "channel": 0,
      "note": 76,
      "start": 9.5904,
      "duration": 0.0161,
      "velocity": 127,
      "chip": "ym2612"
    },
    {
      "channel": 2,
      "note": 68,
      "start": 9.5951,
      "duration": 0.0161,
      "velocity": 100,
      "chip": "ym2612"
    },
    {
      "channel": 0,
      "note": 74,
      "start": 9.6065,
      "duration": 0.018,
      "velocity": 127,
      "chip": "ym2612"
    },
    {
      "channel": 2,
      "note": 68,
      "start": 9.6112,
      "duration": 0.0186,
      "velocity": 100,
      "chip": "ym2612"
    },
    {
      "channel": 0,
      "note": 78,
      "start": 9.6245,
      "duration": 0.0143,
      "velocity": 127,
      "chip": "ym2612"
    },
    {
      "channel": 3,
      "note": 75,
      "start": 9.6284,
      "duration": 0.014,
      "velocity": 110,
      "chip": "ym2612"
    },
    {
      "channel": 2,
      "note": 58,
      "start": 9.6298,
      "duration": 0.0137,
      "velocity": 100,
      "chip": "ym2612"
    },
    {
      "channel": 1,
      "note": 71,
      "start": 9.6313,
      "duration": 0.0135,
      "velocity": 110,
      "chip": "ym2612"
    },
    {
      "channel": 0,
      "note": 76,
      "start": 9.6387,
      "duration": 0.016,
      "velocity": 127,
      "chip": "ym2612"
    },
    {
      "channel": 3,
      "note": 75,
      "start": 9.6424,
      "duration": 0.016,
      "velocity": 110,
      "chip": "ym2612"
    },
    {
      "channel": 2,
      "note": 58,
      "start": 9.6436,
      "duration": 0.0159,
      "velocity": 100,
      "chip": "ym2612"
    },
    {
      "channel": 1,
      "note": 71,
      "start": 9.6448,
      "duration": 0.0159,
      "velocity": 110,
      "chip": "ym2612"
    },
    {
      "channel": 0,
      "note": 75,
      "start": 9.6548,
      "duration": 0.0161,
      "velocity": 127,
      "chip": "ym2612"
    },
    {
      "channel": 3,
      "note": 75,
      "start": 9.6583,
      "duration": 0.0161,
      "velocity": 110,
      "chip": "ym2612"
    },
    {
      "channel": 2,
      "note": 58,
      "start": 9.6595,
      "duration": 0.0162,
      "velocity": 100,
      "chip": "ym2612"
    },
    {
      "channel": 1,
      "note": 71,
      "start": 9.6606,
      "duration": 0.0161,
      "velocity": 110,
      "chip": "ym2612"
    },
    {
      "channel": 0,
      "note": 73,
      "start": 9.6708,
      "duration": 0.0162,
      "velocity": 127,
      "chip": "ym2612"
    },
    {
      "channel": 3,
      "note": 75,
      "start": 9.6745,
      "duration": 0.0161,
      "velocity": 110,
      "chip": "ym2612"
    },
    {
      "channel": 2,
      "note": 58,
      "start": 9.6756,
      "duration": 0.0161,
      "velocity": 100,
      "chip": "ym2612"
    },
    {
      "channel": 1,
      "note": 71,
      "start": 9.6768,
      "duration": 0.0161,
      "velocity": 110,
      "chip": "ym2612"
    },
    {
      "channel": 0,
      "note": 71,
      "start": 9.687,
      "duration": 0.0163,
      "velocity": 127,
      "chip": "ym2612"
    },
    {
      "channel": 3,
      "note": 75,
      "start": 9.6906,
      "duration": 0.0163,
      "velocity": 110,
      "chip": "ym2612"
    },
    {
      "channel": 2,
      "note": 58,
      "start": 9.6917,
      "duration": 0.0163,
      "velocity": 100,
      "chip": "ym2612"
    },
    {
      "channel": 1,
      "note": 71,
      "start": 9.6929,
      "duration": 0.0163,
      "velocity": 110,
      "chip": "ym2612"
    },
    {
      "channel": 0,
      "note": 70,
      "start": 9.7033,
      "duration": 0.0182,
      "velocity": 127,
      "chip": "ym2612"
    },
    {
      "channel": 3,
      "note": 75,
      "start": 9.7068,
      "duration": 0.0182,
      "velocity": 110,
      "chip": "ym2612"
    },
    {
      "channel": 2,
      "note": 58,
      "start": 9.708,
      "duration": 0.0182,
      "velocity": 100,
      "chip": "ym2612"
    },
    {
      "channel": 1,
      "note": 71,
      "start": 9.7091,
      "duration": 0.0182,
      "velocity": 110,
      "chip": "ym2612"
    },
    {
      "channel": 0,
      "note": 78,
      "start": 9.7215,
      "duration": 0.0144,
      "velocity": 127,
      "chip": "ym2612"
    },
    {
      "channel": 3,
      "note": 75,
      "start": 9.7251,
      "duration": 0.0144,
      "velocity": 110,
      "chip": "ym2612"
    },
    {
      "channel": 2,
      "note": 58,
      "start": 9.7262,
      "duration": 0.0144,
      "velocity": 100,
      "chip": "ym2612"
    },
    {
      "channel": 1,
      "note": 71,
      "start": 9.7273,
      "duration": 0.0144,
      "velocity": 110,
      "chip": "ym2612"
    },
    {
      "channel": 0,
      "note": 76,
      "start": 9.7359,
      "duration": 0.016,
      "velocity": 127,
      "chip": "ym2612"
    },
    {
      "channel": 2,
      "note": 58,
      "start": 9.7406,
      "duration": 0.016,
      "velocity": 100,
      "chip": "ym2612"
    },
    {
      "channel": 0,
      "note": 75,
      "start": 9.752,
      "duration": 0.0157,
      "velocity": 127,
      "chip": "ym2612"
    },
    {
      "channel": 2,
      "note": 58,
      "start": 9.7567,
      "duration": 0.0161,
      "velocity": 100,
      "chip": "ym2612"
    },
    {
      "channel": 0,
      "note": 73,
      "start": 9.7677,
      "duration": 0.0159,
      "velocity": 127,
      "chip": "ym2612"
    },
    {
      "channel": 2,
      "note": 58,
      "start": 9.7728,
      "duration": 0.0161,
      "velocity": 100,
      "chip": "ym2612"
    },
    {
      "channel": 0,
      "note": 71,
      "start": 9.7836,
      "duration": 0.0161,
      "velocity": 127,
      "chip": "ym2612"
    },
    {
      "channel": 2,
      "note": 58,
      "start": 9.7888,
      "duration": 0.0162,
      "velocity": 100,
      "chip": "ym2612"
    },
    {
      "channel": 0,
      "note": 70,
      "start": 9.7997,
      "duration": 0.0161,
      "velocity": 127,
      "chip": "ym2612"
    },
    {
      "channel": 2,
      "note": 58,
      "start": 9.805,
      "duration": 0.0161,
      "velocity": 100,
      "chip": "ym2612"
    },
    {
      "channel": 0,
      "note": 68,
      "start": 9.8158,
      "duration": 0.0179,
      "velocity": 124,
      "chip": "ym2612"
    },
    {
      "channel": 2,
      "note": 58,
      "start": 9.8211,
      "duration": 0.0186,
      "velocity": 100,
      "chip": "ym2612"
    },
    {
      "channel": 0,
      "note": 84,
      "start": 9.8338,
      "duration": 0.0143,
      "velocity": 124,
      "chip": "ym2612"
    },
    {
      "channel": 3,
      "note": 71,
      "start": 9.8383,
      "duration": 0.014,
      "velocity": 110,
      "chip": "ym2612"
    },
    {
      "channel": 2,
      "note": 59,
      "start": 9.8398,
      "duration": 0.0137,
      "velocity": 100,
      "chip": "ym2612"
    },
    {
      "channel": 1,
      "note": 75,
      "start": 9.8413,
      "duration": 0.0134,
      "velocity": 110,
      "chip": "ym2612"
    },
    {
      "channel": 0,
      "note": 82,
      "start": 9.8481,
      "duration": 0.016,
      "velocity": 124,
      "chip": "ym2612"
    },
    {
      "channel": 3,
      "note": 71,
      "start": 9.8523,
      "duration": 0.0159,
      "velocity": 110,
      "chip": "ym2612"
    },
    {
      "channel": 2,
      "note": 59,
      "start": 9.8535,
      "duration": 0.0159,
      "velocity": 100,
      "chip": "ym2612"
    },
    {
      "channel": 1,
      "note": 75,
      "start": 9.8547,
      "duration": 0.0158,
      "velocity": 110,
      "chip": "ym2612"
    },
    {
      "channel": 0,
      "note": 80,
      "start": 9.8641,
      "duration": 0.0161,
      "velocity": 124,
      "chip": "ym2612"
    },
    {
      "channel": 3,
      "note": 71,
      "start": 9.8682,
      "duration": 0.0156,
      "velocity": 110,
      "chip": "ym2612"
    },
    {
      "channel": 2,
      "note": 59,
      "start": 9.8694,
      "duration": 0.0161,
      "velocity": 100,
      "chip": "ym2612"
    },
    {
      "channel": 1,
      "note": 75,
      "start": 9.8705,
      "duration": 0.0161,
      "velocity": 110,
      "chip": "ym2612"
    },
    {
      "channel": 0,
      "note": 77,
      "start": 9.8802,
      "duration": 0.0161,
      "velocity": 124,
      "chip": "ym2612"
    },
    {
      "channel": 3,
      "note": 71,
      "start": 9.8838,
      "duration": 0.0161,
      "velocity": 110,
      "chip": "ym2612"
    },
    {
      "channel": 2,
      "note": 59,
      "start": 9.8855,
      "duration": 0.0161,
      "velocity": 100,
      "chip": "ym2612"
    },
    {
      "channel": 1,
      "note": 75,
      "start": 9.8866,
      "duration": 0.0162,
      "velocity": 110,
      "chip": "ym2612"
    },
    {
      "channel": 0,
      "note": 75,
      "start": 9.8963,
      "duration": 0.0161,
      "velocity": 124,
      "chip": "ym2612"
    },
    {
      "channel": 3,
      "note": 71,
      "start": 9.8999,
      "duration": 0.0161,
      "velocity": 110,
      "chip": "ym2612"
    },
    {
      "channel": 2,
      "note": 59,
      "start": 9.9016,
      "duration": 0.0155,
      "velocity": 100,
      "chip": "ym2612"
    },
    {
      "channel": 1,
      "note": 75,
      "start": 9.9028,
      "duration": 0.0161,
      "velocity": 110,
      "chip": "ym2612"
    },
    {
      "channel": 0,
      "note": 72,
      "start": 9.9124,
      "duration": 0.0179,
      "velocity": 124,
      "chip": "ym2612"
    },
    {
      "channel": 3,
      "note": 71,
      "start": 9.9159,
      "duration": 0.0182,
      "velocity": 110,
      "chip": "ym2612"
    },
    {
      "channel": 2,
      "note": 59,
      "start": 9.9171,
      "duration": 0.0185,
      "velocity": 100,
      "chip": "ym2612"
    },
    {
      "channel": 1,
      "note": 75,
      "start": 9.9189,
      "duration": 0.0179,
      "velocity": 110,
      "chip": "ym2612"
    },
    {
      "channel": 0,
      "note": 84,
      "start": 9.9303,
      "duration": 0.0143,
      "velocity": 124,
      "chip": "ym2612"
    },
    {
      "channel": 3,
      "note": 71,
      "start": 9.9341,
      "duration": 0.0141,
      "velocity": 110,
      "chip": "ym2612"
    },
    {
      "channel": 2,
      "note": 59,
      "start": 9.9356,
      "duration": 0.0138,
      "velocity": 100,
      "chip": "ym2612"
    },
    {
      "channel": 1,
      "note": 75,
      "start": 9.9368,
      "duration": 0.0139,
      "velocity": 110,
      "chip": "ym2612"
    },
    {
      "channel": 0,
      "note": 82,
      "start": 9.9446,
      "duration": 0.016,
      "velocity": 124,
      "chip": "ym2612"
    },
    {
      "channel": 2,
      "note": 59,
      "start": 9.9494,
      "duration": 0.016,
      "velocity": 100,
      "chip": "ym2612"
    },
    {
      "channel": 0,
      "note": 80,
      "start": 9.9607,
      "duration": 0.0161,
      "velocity": 124,
      "chip": "ym2612"
    },
    {
      "channel": 2,
      "note": 59,
      "start": 9.9654,
      "duration": 0.0162,
      "velocity": 100,
      "chip": "ym2612"
    },
    {
      "channel": 0,
      "note": 77,
      "start": 9.9768,
      "duration": 0.0161,
      "velocity": 124,
      "chip": "ym2612"
    },
    {
      "channel": 2,
      "note": 59,
      "start": 9.9815,
      "duration": 0.016,
      "velocity": 100,
      "chip": "ym2612"
    },
    {
      "channel": 0,
      "note": 75,
      "start": 9.9929,
      "duration": 0.0161,
      "velocity": 124,
      "chip": "ym2612"
    },
    {
      "channel": 2,
      "note": 59,
      "start": 9.9976,
      "duration": 0.0161,
      "velocity": 100,
      "chip": "ym2612"
    },
    {
      "channel": 0,
      "note": 72,
      "start": 10.009,
      "duration": 0.0161,
      "velocity": 124,
      "chip": "ym2612"
    },
    {
      "channel": 2,
      "note": 59,
      "start": 10.0137,
      "duration": 0.016,
      "velocity": 100,
      "chip": "ym2612"
    },
    {
      "channel": 0,
      "note": 70,
      "start": 10.0251,
      "duration": 0.0179,
      "velocity": 115,
      "chip": "ym2612"
    },
    {
      "channel": 2,
      "note": 59,
      "start": 10.0298,
      "duration": 0.019,
      "velocity": 100,
      "chip": "ym2612"
    },
    {
      "channel": 0,
      "note": 36,
      "start": 10.0431,
      "duration": 0.0143,
      "velocity": 115,
      "chip": "ym2612"
    },
    {
      "channel": 3,
      "note": 75,
      "start": 10.0473,
      "duration": 0.0138,
      "velocity": 110,
      "chip": "ym2612"
    },
    {
      "channel": 2,
      "note": 61,
      "start": 10.0488,
      "duration": 0.0136,
      "velocity": 100,
      "chip": "ym2612"
    },
    {
      "channel": 1,
      "note": 71,
      "start": 10.0502,
      "duration": 0.0133,
      "velocity": 110,
      "chip": "ym2612"
    },
    {
      "channel": 0,
      "note": 36,
      "start": 10.0574,
      "duration": 0.016,
      "velocity": 115,
      "chip": "ym2612"
    },
    {
      "channel": 3,
      "note": 75,
      "start": 10.0611,
      "duration": 0.0159,
      "velocity": 110,
      "chip": "ym2612"
    },
    {
      "channel": 2,
      "note": 61,
      "start": 10.0623,
      "duration": 0.0158,
      "velocity": 100,
      "chip": "ym2612"
    },
    {
      "channel": 1,
      "note": 71,
      "start": 10.0635,
      "duration": 0.0157,
      "velocity": 110,
      "chip": "ym2612"
    },
    {
      "channel": 0,
      "note": 37,
      "start": 10.0734,
      "duration": 0.0161,
      "velocity": 115,
      "chip": "ym2612"
    },
    {
      "channel": 3,
      "note": 75,
      "start": 10.077,
      "duration": 0.0161,
      "velocity": 110,
      "chip": "ym2612"
    },
    {
      "channel": 2,
      "note": 61,
      "start": 10.0781,
      "duration": 0.0161,
      "velocity": 100,
      "chip": "ym2612"
    },
    {
      "channel": 1,
      "note": 71,
      "start": 10.0793,
      "duration": 0.0161,
      "velocity": 110,
      "chip": "ym2612"
    },
    {
      "channel": 0,
      "note": 37,
      "start": 10.0895,
      "duration": 0.0161,
      "velocity": 115,
      "chip": "ym2612"
    },
    {
      "channel": 3,
      "note": 75,
      "start": 10.0931,
      "duration": 0.0161,
      "velocity": 110,
      "chip": "ym2612"
    },
    {
      "channel": 2,
      "note": 61,
      "start": 10.0942,
      "duration": 0.0161,
      "velocity": 100,
      "chip": "ym2612"
    },
    {
      "channel": 1,
      "note": 71,
      "start": 10.0954,
      "duration": 0.0161,
      "velocity": 110,
      "chip": "ym2612"
    },
    {
      "channel": 0,
      "note": 38,
      "start": 10.1056,
      "duration": 0.0161,
      "velocity": 115,
      "chip": "ym2612"
    },
    {
      "channel": 3,
      "note": 75,
      "start": 10.1091,
      "duration": 0.0161,
      "velocity": 110,
      "chip": "ym2612"
    },
    {
      "channel": 2,
      "note": 61,
      "start": 10.1103,
      "duration": 0.0161,
      "velocity": 100,
      "chip": "ym2612"
    },
    {
      "channel": 1,
      "note": 71,
      "start": 10.1114,
      "duration": 0.0161,
      "velocity": 110,
      "chip": "ym2612"
    },
    {
      "channel": 0,
      "note": 38,
      "start": 10.1217,
      "duration": 0.0161,
      "velocity": 115,
      "chip": "ym2612"
    },
    {
      "channel": 3,
      "note": 75,
      "start": 10.1252,
      "duration": 0.0161,
      "velocity": 110,
      "chip": "ym2612"
    },
    {
      "channel": 2,
      "note": 61,
      "start": 10.1264,
      "duration": 0.0161,
      "velocity": 100,
      "chip": "ym2612"
    },
    {
      "channel": 1,
      "note": 71,
      "start": 10.1275,
      "duration": 0.0161,
      "velocity": 110,
      "chip": "ym2612"
    },
    {
      "channel": 0,
      "note": 39,
      "start": 10.1378,
      "duration": 0.0162,
      "velocity": 115,
      "chip": "ym2612"
    },
    {
      "channel": 3,
      "note": 75,
      "start": 10.1413,
      "duration": 0.0161,
      "velocity": 110,
      "chip": "ym2612"
    },
    {
      "channel": 2,
      "note": 61,
      "start": 10.1425,
      "duration": 0.0162,
      "velocity": 100,
      "chip": "ym2612"
    },
    {
      "channel": 1,
      "note": 71,
      "start": 10.1436,
      "duration": 0.0162,
      "velocity": 110,
      "chip": "ym2612"
    },
    {
      "channel": 0,
      "note": 39,
      "start": 10.154,
      "duration": 0.0161,
      "velocity": 115,
      "chip": "ym2612"
    },
    {
      "channel": 2,
      "note": 61,
      "start": 10.1587,
      "duration": 0.0161,
      "velocity": 100,
      "chip": "ym2612"
    },
    {
      "channel": 0,
      "note": 40,
      "start": 10.1701,
      "duration": 0.0164,
      "velocity": 115,
      "chip": "ym2612"
    },
    {
      "channel": 2,
      "note": 61,
      "start": 10.1748,
      "duration": 0.0164,
      "velocity": 100,
      "chip": "ym2612"
    },
    {
      "channel": 0,
      "note": 40,
      "start": 10.1865,
      "duration": 0.0163,
      "velocity": 115,
      "chip": "ym2612"
    },
    {
      "channel": 2,
      "note": 61,
      "start": 10.1912,
      "duration": 0.0163,
      "velocity": 100,
      "chip": "ym2612"
    },
    {
      "channel": 0,
      "note": 40,
      "start": 10.2028,
      "duration": 0.0161,
      "velocity": 115,
      "chip": "ym2612"
    },
    {
      "channel": 2,
      "note": 61,
      "start": 10.2075,
      "duration": 0.0161,
      "velocity": 100,
      "chip": "ym2612"
    },
    {
      "channel": 0,
      "note": 41,
      "start": 10.2189,
      "duration": 0.016,
      "velocity": 115,
      "chip": "ym2612"
    },
    {
      "channel": 2,
      "note": 61,
      "start": 10.2236,
      "duration": 0.0162,
      "velocity": 100,
      "chip": "ym2612"
    },
    {
      "channel": 0,
      "note": 41,
      "start": 10.235,
      "duration": 0.0158,
      "velocity": 115,
      "chip": "ym2612"
    },
    {
      "channel": 2,
      "note": 61,
      "start": 10.2398,
      "duration": 0.0165,
      "velocity": 100,
      "chip": "ym2612"
    },
    {
      "channel": 0,
      "note": 42,
      "start": 10.2507,
      "duration": 0.0159,
      "velocity": 115,
      "chip": "ym2612"
    },
    {
      "channel": 3,
      "note": 73,
      "start": 10.2551,
      "duration": 0.0157,
      "velocity": 110,
      "chip": "ym2612"
    },
    {
      "channel": 2,
      "note": 61,
      "start": 10.2563,
      "duration": 0.0157,
      "velocity": 100,
      "chip": "ym2612"
    },
    {
      "channel": 1,
      "note": 76,
      "start": 10.2579,
      "duration": 0.0153,
      "velocity": 110,
      "chip": "ym2612"
    },
    {
      "channel": 0,
      "note": 42,
      "start": 10.2666,
      "duration": 0.0161,
      "velocity": 115,
      "chip": "ym2612"
    },
    {
      "channel": 3,
      "note": 73,
      "start": 10.2708,
      "duration": 0.016,
      "velocity": 110,
      "chip": "ym2612"
    },
    {
      "channel": 2,
      "note": 61,
      "start": 10.272,
      "duration": 0.016,
      "velocity": 100,
      "chip": "ym2612"
    },
    {
      "channel": 1,
      "note": 76,
      "start": 10.2732,
      "duration": 0.016,
      "velocity": 110,
      "chip": "ym2612"
    },
    {
      "channel": 0,
      "note": 43,
      "start": 10.2827,
      "duration": 0.0161,
      "velocity": 115,
      "chip": "ym2612"
    },
    {
      "channel": 3,
      "note": 73,
      "start": 10.2869,
      "duration": 0.0161,
      "velocity": 110,
      "chip": "ym2612"
    },
    {
      "channel": 2,
      "note": 61,
      "start": 10.288,
      "duration": 0.0161,
      "velocity": 100,
      "chip": "ym2612"
    },
    {
      "channel": 1,
      "note": 76,
      "start": 10.2892,
      "duration": 0.0161,
      "velocity": 110,
      "chip": "ym2612"
    },
    {
      "channel": 0,
      "note": 43,
      "start": 10.2988,
      "duration": 0.0162,
      "velocity": 115,
      "chip": "ym2612"
    },
    {
      "channel": 2,
      "note": 61,
      "start": 10.3041,
      "duration": 0.0161,
      "velocity": 100,
      "chip": "ym2612"
    },
    {
      "channel": 0,
      "note": 44,
      "start": 10.3149,
      "duration": 0.0161,
      "velocity": 115,
      "chip": "ym2612"
    },
    {
      "channel": 2,
      "note": 61,
      "start": 10.3203,
      "duration": 0.016,
      "velocity": 100,
      "chip": "ym2612"
    },
    {
      "channel": 0,
      "note": 44,
      "start": 10.331,
      "duration": 0.0179,
      "velocity": 115,
      "chip": "ym2612"
    },
    {
      "channel": 2,
      "note": 61,
      "start": 10.3363,
      "duration": 0.0186,
      "velocity": 100,
      "chip": "ym2612"
    },
    {
      "channel": 0,
      "note": 36,
      "start": 10.349,
      "duration": 0.0143,
      "velocity": 115,
      "chip": "ym2612"
    },
    {
      "channel": 3,
      "note": 73,
      "start": 10.3534,
      "duration": 0.0135,
      "velocity": 110,
      "chip": "ym2612"
    },
    {
      "channel": 2,
      "note": 61,
      "start": 10.3549,
      "duration": 0.0137,
      "velocity": 100,
      "chip": "ym2612"
    },
    {
      "channel": 1,
      "note": 76,
      "start": 10.3563,
      "duration": 0.0135,
      "velocity": 110,
      "chip": "ym2612"
    },
    {
      "channel": 0,
      "note": 36,
      "start": 10.3633,
      "duration": 0.016,
      "velocity": 115,
      "chip": "ym2612"
    },
    {
      "channel": 3,
      "note": 73,
      "start": 10.3669,
      "duration": 0.016,
      "velocity": 110,
      "chip": "ym2612"
    },
    {
      "channel": 2,
      "note": 61,
      "start": 10.3687,
      "duration": 0.0155,
      "velocity": 100,
      "chip": "ym2612"
    },
    {
      "channel": 1,
      "note": 76,
      "start": 10.3699,
      "duration": 0.0159,
      "velocity": 110,
      "chip": "ym2612"
    },
    {
      "channel": 0,
      "note": 37,
      "start": 10.3793,
      "duration": 0.0161,
      "velocity": 115,
      "chip": "ym2612"
    },
    {
      "channel": 3,
      "note": 73,
      "start": 10.3829,
      "duration": 0.0161,
      "velocity": 110,
      "chip": "ym2612"
    },
    {
      "channel": 2,
      "note": 61,
      "start": 10.3842,
      "duration": 0.0159,
      "velocity": 100,
      "chip": "ym2612"
    },
    {
      "channel": 1,
      "note": 76,
      "start": 10.3858,
      "duration": 0.016,
      "velocity": 110,
      "chip": "ym2612"
    },
    {
      "channel": 0,
      "note": 37,
      "start": 10.3954,
      "duration": 0.0161,
      "velocity": 115,
      "chip": "ym2612"
    },
    {
      "channel": 3,
      "note": 73,
      "start": 10.399,
      "duration": 0.0161,
      "velocity": 110,
      "chip": "ym2612"
    },
    {
      "channel": 2,
      "note": 61,
      "start": 10.4001,
      "duration": 0.0162,
      "velocity": 100,
      "chip": "ym2612"
    },
    {
      "channel": 1,
      "note": 76,
      "start": 10.4018,
      "duration": 0.0158,
      "velocity": 110,
      "chip": "ym2612"
    },
    {
      "channel": 0,
      "note": 38,
      "start": 10.4115,
      "duration": 0.0161,
      "velocity": 115,
      "chip": "ym2612"
    },
    {
      "channel": 2,
      "note": 61,
      "start": 10.4163,
      "duration": 0.016,
      "velocity": 100,
      "chip": "ym2612"
    },
    {
      "channel": 0,
      "note": 38,
      "start": 10.4276,
      "duration": 0.0161,
      "velocity": 115,
      "chip": "ym2612"
    },
    {
      "channel": 2,
      "note": 61,
      "start": 10.4323,
      "duration": 0.0162,
      "velocity": 100,
      "chip": "ym2612"
    },
    {
      "channel": 0,
      "note": 39,
      "start": 10.4437,
      "duration": 0.0179,
      "velocity": 124,
      "chip": "ym2612"
    },
    {
      "channel": 2,
      "note": 61,
      "start": 10.4485,
      "duration": 0.0183,
      "velocity": 100,
      "chip": "ym2612"
    },
    {
      "channel": 0,
      "note": 84,
      "start": 10.4617,
      "duration": 0.0143,
      "velocity": 124,
      "chip": "ym2612"
    },
    {
      "channel": 3,
      "note": 76,
      "start": 10.4656,
      "duration": 0.0141,
      "velocity": 110,
      "chip": "ym2612"
    },
    {
      "channel": 2,
      "note": 61,
      "start": 10.4668,
      "duration": 0.0141,
      "velocity": 100,
      "chip": "ym2612"
    },
    {
      "channel": 1,
      "note": 73,
      "start": 10.4688,
      "duration": 0.0132,
      "velocity": 110,
      "chip": "ym2612"
    },
    {
      "channel": 0,
      "note": 82,
      "start": 10.476,
      "duration": 0.016,
      "velocity": 124,
      "chip": "ym2612"
    },
    {
      "channel": 3,
      "note": 76,
      "start": 10.4796,
      "duration": 0.016,
      "velocity": 110,
      "chip": "ym2612"
    },
    {
      "channel": 2,
      "note": 61,
      "start": 10.4808,
      "duration": 0.016,
      "velocity": 100,
      "chip": "ym2612"
    },
    {
      "channel": 1,
      "note": 73,
      "start": 10.482,
      "duration": 0.0159,
      "velocity": 110,
      "chip": "ym2612"
    },
    {
      "channel": 0,
      "note": 80,
      "start": 10.492,
      "duration": 0.0161,
      "velocity": 124,
      "chip": "ym2612"
    },
    {
      "channel": 3,
      "note": 76,
      "start": 10.4956,
      "duration": 0.0161,
      "velocity": 110,
      "chip": "ym2612"
    },
    {
      "channel": 2,
      "note": 61,
      "start": 10.4968,
      "duration": 0.016,
      "velocity": 100,
      "chip": "ym2612"
    },
    {
      "channel": 1,
      "note": 73,
      "start": 10.498,
      "duration": 0.0161,
      "velocity": 110,
      "chip": "ym2612"
    },
    {
      "channel": 0,
      "note": 77,
      "start": 10.5081,
      "duration": 0.0161,
      "velocity": 124,
      "chip": "ym2612"
    },
    {
      "channel": 2,
      "note": 61,
      "start": 10.5128,
      "duration": 0.0161,
      "velocity": 100,
      "chip": "ym2612"
    },
    {
      "channel": 0,
      "note": 75,
      "start": 10.5242,
      "duration": 0.0161,
      "velocity": 124,
      "chip": "ym2612"
    },
    {
      "channel": 2,
      "note": 61,
      "start": 10.5289,
      "duration": 0.0161,
      "velocity": 100,
      "chip": "ym2612"
    },
    {
      "channel": 0,
      "note": 72,
      "start": 10.5403,
      "duration": 0.0161,
      "velocity": 124,
      "chip": "ym2612"
    },
    {
      "channel": 2,
      "note": 61,
      "start": 10.545,
      "duration": 0.0166,
      "velocity": 100,
      "chip": "ym2612"
    },
    {
      "channel": 0,
      "note": 70,
      "start": 10.5564,
      "duration": 0.0161,
      "velocity": 124,
      "chip": "ym2612"
    },
    {
      "channel": 3,
      "note": 76,
      "start": 10.5603,
      "duration": 0.0159,
      "velocity": 110,
      "chip": "ym2612"
    },
    {
      "channel": 2,
      "note": 61,
      "start": 10.5616,
      "duration": 0.0158,
      "velocity": 100,
      "chip": "ym2612"
    },
    {
      "channel": 1,
      "note": 73,
      "start": 10.5631,
      "duration": 0.0155,
      "velocity": 110,
      "chip": "ym2612"
    },
    {
      "channel": 0,
      "note": 68,
      "start": 10.5725,
      "duration": 0.0161,
      "velocity": 124,
      "chip": "ym2612"
    },
    {
      "channel": 3,
      "note": 76,
      "start": 10.5762,
      "duration": 0.016,
      "velocity": 110,
      "chip": "ym2612"
    },
    {
      "channel": 2,
      "note": 61,
      "start": 10.5774,
      "duration": 0.016,
      "velocity": 100,
      "chip": "ym2612"
    },
    {
      "channel": 1,
      "note": 73,
      "start": 10.5786,
      "duration": 0.016,
      "velocity": 110,
      "chip": "ym2612"
    },
    {
      "channel": 0,
      "note": 65,
      "start": 10.5886,
      "duration": 0.0162,
      "velocity": 124,
      "chip": "ym2612"
    },
    {
      "channel": 3,
      "note": 76,
      "start": 10.5922,
      "duration": 0.0161,
      "velocity": 110,
      "chip": "ym2612"
    },
    {
      "channel": 2,
      "note": 61,
      "start": 10.5934,
      "duration": 0.0161,
      "velocity": 100,
      "chip": "ym2612"
    },
    {
      "channel": 1,
      "note": 73,
      "start": 10.5946,
      "duration": 0.0161,
      "velocity": 110,
      "chip": "ym2612"
    },
    {
      "channel": 0,
      "note": 63,
      "start": 10.6048,
      "duration": 0.0153,
      "velocity": 1,
      "chip": "ym2612"
    },
    {
      "channel": 3,
      "note": 76,
      "start": 10.6083,
      "duration": 0.0153,
      "velocity": 110,
      "chip": "ym2612"
    },
    {
      "channel": 2,
      "note": 61,
      "start": 10.6095,
      "duration": 0.0153,
      "velocity": 100,
      "chip": "ym2612"
    },
    {
      "channel": 1,
      "note": 73,
      "start": 10.6107,
      "duration": 0.0153,
      "velocity": 110,
      "chip": "ym2612"
    },
    {
      "channel": 2,
      "note": 61,
      "start": 10.6248,
      "duration": 0.0154,
      "velocity": 100,
      "chip": "ym2612"
    },
    {
      "channel": 2,
      "note": 61,
      "start": 10.6401,
      "duration": 0.0164,
      "velocity": 100,
      "chip": "ym2612"
    },
    {
      "channel": 2,
      "note": 61,
      "start": 10.6565,
      "duration": 0.0204,
      "velocity": 100,
      "chip": "ym2612"
    },
    {
      "channel": 0,
      "note": 36,
      "start": 10.6715,
      "duration": 0.0144,
      "velocity": 115,
      "chip": "ym2612"
    },
    {
      "channel": 3,
      "note": 73,
      "start": 10.6755,
      "duration": 0.0141,
      "velocity": 110,
      "chip": "ym2612"
    },
    {
      "channel": 2,
      "note": 56,
      "start": 10.677,
      "duration": 0.0138,
      "velocity": 100,
      "chip": "ym2612"
    },
    {
      "channel": 1,
      "note": 76,
      "start": 10.6785,
      "duration": 0.0135,
      "velocity": 110,
      "chip": "ym2612"
    },
    {
      "channel": 0,
      "note": 36,
      "start": 10.6859,
      "duration": 0.016,
      "velocity": 115,
      "chip": "ym2612"
    },
    {
      "channel": 3,
      "note": 73,
      "start": 10.6895,
      "duration": 0.016,
      "velocity": 110,
      "chip": "ym2612"
    },
    {
      "channel": 2,
      "note": 56,
      "start": 10.6908,
      "duration": 0.0159,
      "velocity": 100,
      "chip": "ym2612"
    },
    {
      "channel": 1,
      "note": 76,
      "start": 10.692,
      "duration": 0.0159,
      "velocity": 110,
      "chip": "ym2612"
    },
    {
      "channel": 0,
      "note": 37,
      "start": 10.7019,
      "duration": 0.0158,
      "velocity": 115,
      "chip": "ym2612"
    },
    {
      "channel": 3,
      "note": 73,
      "start": 10.7055,
      "duration": 0.0161,
      "velocity": 110,
      "chip": "ym2612"
    },
    {
      "channel": 2,
      "note": 56,
      "start": 10.7067,
      "duration": 0.0161,
      "velocity": 100,
      "chip": "ym2612"
    },
    {
      "channel": 1,
      "note": 76,
      "start": 10.7079,
      "duration": 0.016,
      "velocity": 110,
      "chip": "ym2612"
    },
    {
      "channel": 0,
      "note": 37,
      "start": 10.7177,
      "duration": 0.0159,
      "velocity": 115,
      "chip": "ym2612"
    },
    {
      "channel": 3,
      "note": 73,
      "start": 10.7216,
      "duration": 0.0161,
      "velocity": 110,
      "chip": "ym2612"
    },
    {
      "channel": 2,
      "note": 56,
      "start": 10.7228,
      "duration": 0.0161,
      "velocity": 100,
      "chip": "ym2612"
    },
    {
      "channel": 1,
      "note": 76,
      "start": 10.7239,
      "duration": 0.0161,
      "velocity": 110,
      "chip": "ym2612"
    },
    {
      "channel": 0,
      "note": 38,
      "start": 10.7335,
      "duration": 0.0161,
      "velocity": 115,
      "chip": "ym2612"
    },
    {
      "channel": 3,
      "note": 73,
      "start": 10.7377,
      "duration": 0.0161,
      "velocity": 110,
      "chip": "ym2612"
    },
    {
      "channel": 2,
      "note": 56,
      "start": 10.7388,
      "duration": 0.0161,
      "velocity": 100,
      "chip": "ym2612"
    },
    {
      "channel": 1,
      "note": 76,
      "start": 10.74,
      "duration": 0.0161,
      "velocity": 110,
      "chip": "ym2612"
    },
    {
      "channel": 0,
      "note": 38,
      "start": 10.7497,
      "duration": 0.0184,
      "velocity": 115,
      "chip": "ym2612"
    },
    {
      "channel": 3,
      "note": 73,
      "start": 10.7538,
      "duration": 0.0179,
      "velocity": 110,
      "chip": "ym2612"
    },
    {
      "channel": 2,
      "note": 56,
      "start": 10.7549,
      "duration": 0.0182,
      "velocity": 100,
      "chip": "ym2612"
    },
    {
      "channel": 1,
      "note": 76,
      "start": 10.7561,
      "duration": 0.0183,
      "velocity": 110,
      "chip": "ym2612"
    },
    {
      "channel": 0,
      "note": 36,
      "start": 10.7681,
      "duration": 0.0138,
      "velocity": 115,
      "chip": "ym2612"
    },
    {
      "channel": 3,
      "note": 73,
      "start": 10.7717,
      "duration": 0.0143,
      "velocity": 110,
      "chip": "ym2612"
    },
    {
      "channel": 2,
      "note": 59,
      "start": 10.7732,
      "duration": 0.0141,
      "velocity": 100,
      "chip": "ym2612"
    },
    {
      "channel": 1,
      "note": 76,
      "start": 10.7744,
      "duration": 0.0141,
      "velocity": 110,
      "chip": "ym2612"
    },
    {
      "channel": 0,
      "note": 36,
      "start": 10.7819,
      "duration": 0.016,
      "velocity": 115,
      "chip": "ym2612"
    },
    {
      "channel": 2,
      "note": 59,
      "start": 10.7873,
      "duration": 0.016,
      "velocity": 100,
      "chip": "ym2612"
    },
    {
      "channel": 0,
      "note": 37,
      "start": 10.798,
      "duration": 0.0161,
      "velocity": 115,
      "chip": "ym2612"
    },
    {
      "channel": 2,
      "note": 59,
      "start": 10.8033,
      "duration": 0.016,
      "velocity": 100,
      "chip": "ym2612"
    },
    {
      "channel": 0,
      "note": 37,
      "start": 10.814,
      "duration": 0.0161,
      "velocity": 115,
      "chip": "ym2612"
    },
    {
      "channel": 2,
      "note": 59,
      "start": 10.8193,
      "duration": 0.0162,
      "velocity": 100,
      "chip": "ym2612"
    },
    {
      "channel": 0,
      "note": 38,
      "start": 10.8301,
      "duration": 0.0161,
      "velocity": 115,
      "chip": "ym2612"
    },
    {
      "channel": 2,
      "note": 59,
      "start": 10.8355,
      "duration": 0.016,
      "velocity": 100,
      "chip": "ym2612"
    },
    {
      "channel": 0,
      "note": 38,
      "start": 10.8462,
      "duration": 0.0161,
      "velocity": 115,
      "chip": "ym2612"
    },
    {
      "channel": 2,
      "note": 59,
      "start": 10.8515,
      "duration": 0.0155,
      "velocity": 100,
      "chip": "ym2612"
    },
    {
      "channel": 0,
      "note": 39,
      "start": 10.8623,
      "duration": 0.0179,
      "velocity": 115,
      "chip": "ym2612"
    },
    {
      "channel": 2,
      "note": 59,
      "start": 10.867,
      "duration": 0.0192,
      "velocity": 100,
      "chip": "ym2612"
    },
    {
      "channel": 0,
      "note": 36,
      "start": 10.8803,
      "duration": 0.0143,
      "velocity": 115,
      "chip": "ym2612"
    },
    {
      "channel": 3,
      "note": 76,
      "start": 10.8847,
      "duration": 0.0135,
      "velocity": 110,
      "chip": "ym2612"
    },
    {
      "channel": 2,
      "note": 61,
      "start": 10.8862,
      "duration": 0.0132,
      "velocity": 100,
      "chip": "ym2612"
    },
    {
      "channel": 1,
      "note": 73,
      "start": 10.8878,
      "duration": 0.0131,
      "velocity": 110,
      "chip": "ym2612"
    },
    {
      "channel": 0,
      "note": 36,
      "start": 10.8946,
      "duration": 0.0161,
      "velocity": 115,
      "chip": "ym2612"
    },
    {
      "channel": 3,
      "note": 76,
      "start": 10.8982,
      "duration": 0.016,
      "velocity": 110,
      "chip": "ym2612"
    },
    {
      "channel": 2,
      "note": 61,
      "start": 10.8994,
      "duration": 0.0159,
      "velocity": 100,
      "chip": "ym2612"
    },
    {
      "channel": 1,
      "note": 73,
      "start": 10.9009,
      "duration": 0.0156,
      "velocity": 110,
      "chip": "ym2612"
    },
    {
      "channel": 0,
      "note": 37,
      "start": 10.9107,
      "duration": 0.0161,
      "velocity": 115,
      "chip": "ym2612"
    },
    {
      "channel": 3,
      "note": 76,
      "start": 10.9142,
      "duration": 0.0161,
      "velocity": 110,
      "chip": "ym2612"
    },
    {
      "channel": 2,
      "note": 61,
      "start": 10.9153,
      "duration": 0.0162,
      "velocity": 100,
      "chip": "ym2612"
    },
    {
      "channel": 1,
      "note": 73,
      "start": 10.9165,
      "duration": 0.0161,
      "velocity": 110,
      "chip": "ym2612"
    },
    {
      "channel": 0,
      "note": 37,
      "start": 10.9268,
      "duration": 0.0161,
      "velocity": 115,
      "chip": "ym2612"
    },
    {
      "channel": 3,
      "note": 76,
      "start": 10.9303,
      "duration": 0.0161,
      "velocity": 110,
      "chip": "ym2612"
    },
    {
      "channel": 2,
      "note": 61,
      "start": 10.9315,
      "duration": 0.0161,
      "velocity": 100,
      "chip": "ym2612"
    },
    {
      "channel": 1,
      "note": 73,
      "start": 10.9326,
      "duration": 0.0161,
      "velocity": 110,
      "chip": "ym2612"
    },
    {
      "channel": 0,
      "note": 38,
      "start": 10.9429,
      "duration": 0.0161,
      "velocity": 115,
      "chip": "ym2612"
    },
    {
      "channel": 3,
      "note": 76,
      "start": 10.9464,
      "duration": 0.0161,
      "velocity": 110,
      "chip": "ym2612"
    },
    {
      "channel": 2,
      "note": 61,
      "start": 10.9476,
      "duration": 0.0161,
      "velocity": 100,
      "chip": "ym2612"
    },
    {
      "channel": 1,
      "note": 73,
      "start": 10.9487,
      "duration": 0.0161,
      "velocity": 110,
      "chip": "ym2612"
    },
    {
      "channel": 0,
      "note": 38,
      "start": 10.959,
      "duration": 0.0179,
      "velocity": 127,
      "chip": "ym2612"
    },
    {
      "channel": 3,
      "note": 76,
      "start": 10.9625,
      "duration": 0.0179,
      "velocity": 110,
      "chip": "ym2612"
    },
    {
      "channel": 2,
      "note": 61,
      "start": 10.9637,
      "duration": 0.0182,
      "velocity": 100,
      "chip": "ym2612"
    },
    {
      "channel": 1,
      "note": 73,
      "start": 10.9648,
      "duration": 0.0183,
      "velocity": 110,
      "chip": "ym2612"
    },
    {
      "channel": 0,
      "note": 88,
      "start": 10.9769,
      "duration": 0.0143,
      "velocity": 127,
      "chip": "ym2612"
    },
    {
      "channel": 3,
      "note": 76,
      "start": 10.9805,
      "duration": 0.0143,
      "velocity": 110,
      "chip": "ym2612"
    },
    {
      "channel": 2,
      "note": 73,
      "start": 10.9819,
      "duration": 0.0141,
      "velocity": 100,
      "chip": "ym2612"
    },
    {
      "channel": 1,
      "note": 73,
      "start": 10.9831,
      "duration": 0.0141,
      "velocity": 110,
      "chip": "ym2612"
    },
    {
      "channel": 0,
      "note": 86,
      "start": 10.9912,
      "duration": 0.016,
      "velocity": 127,
      "chip": "ym2612"
    },
    {
      "channel": 2,
      "note": 73,
      "start": 10.996,
      "duration": 0.0159,
      "velocity": 100,
      "chip": "ym2612"
    },
    {
      "channel": 0,
      "note": 85,
      "start": 11.0072,
      "duration": 0.0161,
      "velocity": 127,
      "chip": "ym2612"
    },
    {
      "channel": 2,
      "note": 73,
      "start": 11.012,
      "duration": 0.0161,
      "velocity": 100,
      "chip": "ym2612"
    },
    {
      "channel": 0,
      "note": 83,
      "start": 11.0233,
      "duration": 0.0161,
      "velocity": 127,
      "chip": "ym2612"
    },
    {
      "channel": 2,
      "note": 73,
      "start": 11.028,
      "duration": 0.0161,
      "velocity": 100,
      "chip": "ym2612"
    },
    {
      "channel": 0,
      "note": 81,
      "start": 11.0394,
      "duration": 0.0161,
      "velocity": 127,
      "chip": "ym2612"
    },
    {
      "channel": 2,
      "note": 73,
      "start": 11.0441,
      "duration": 0.0162,
      "velocity": 100,
      "chip": "ym2612"
    },
    {
      "channel": 0,
      "note": 80,
      "start": 11.0556,
      "duration": 0.0161,
      "velocity": 127,
      "chip": "ym2612"
    },
    {
      "channel": 2,
      "note": 73,
      "start": 11.0603,
      "duration": 0.0161,
      "velocity": 100,
      "chip": "ym2612"
    },
    {
      "channel": 0,
      "note": 78,
      "start": 11.0717,
      "duration": 0.0161,
      "velocity": 127,
      "chip": "ym2612"
    },
    {
      "channel": 2,
      "note": 73,
      "start": 11.0764,
      "duration": 0.0167,
      "velocity": 100,
      "chip": "ym2612"
    },
    {
      "channel": 0,
      "note": 76,
      "start": 11.0878,
      "duration": 0.0161,
      "velocity": 127,
      "chip": "ym2612"
    },
    {
      "channel": 3,
      "note": 73,
      "start": 11.0917,
      "duration": 0.0158,
      "velocity": 110,
      "chip": "ym2612"
    },
    {
      "channel": 2,
      "note": 61,
      "start": 11.0932,
      "duration": 0.0156,
      "velocity": 100,
      "chip": "ym2612"
    },
    {
      "channel": 1,
      "note": 76,
      "start": 11.0947,
      "duration": 0.0153,
      "velocity": 110,
      "chip": "ym2612"
    },
    {
      "channel": 0,
      "note": 75,
      "start": 11.1039,
      "duration": 0.0161,
      "velocity": 127,
      "chip": "ym2612"
    },
    {
      "channel": 3,
      "note": 73,
      "start": 11.1076,
      "duration": 0.016,
      "velocity": 110,
      "chip": "ym2612"
    },
    {
      "channel": 2,
      "note": 61,
      "start": 11.1088,
      "duration": 0.016,
      "velocity": 100,
      "chip": "ym2612"
    },
    {
      "channel": 1,
      "note": 76,
      "start": 11.11,
      "duration": 0.0159,
      "velocity": 110,
      "chip": "ym2612"
    },
    {
      "channel": 0,
      "note": 73,
      "start": 11.12,
      "duration": 0.0164,
      "velocity": 127,
      "chip": "ym2612"
    },
    {
      "channel": 3,
      "note": 73,
      "start": 11.1236,
      "duration": 0.0164,
      "velocity": 110,
      "chip": "ym2612"
    },
    {
      "channel": 2,
      "note": 61,
      "start": 11.1247,
      "duration": 0.0164,
      "velocity": 100,
      "chip": "ym2612"
    },
    {
      "channel": 1,
      "note": 76,
      "start": 11.1259,
      "duration": 0.0164,
      "velocity": 110,
      "chip": "ym2612"
    },
    {
      "channel": 0,
      "note": 71,
      "start": 11.1364,
      "duration": 0.0163,
      "velocity": 127,
      "chip": "ym2612"
    },
    {
      "channel": 3,
      "note": 73,
      "start": 11.14,
      "duration": 0.0163,
      "velocity": 110,
      "chip": "ym2612"
    },
    {
      "channel": 2,
      "note": 61,
      "start": 11.1411,
      "duration": 0.0163,
      "velocity": 100,
      "chip": "ym2612"
    },
    {
      "channel": 1,
      "note": 76,
      "start": 11.1423,
      "duration": 0.0163,
      "velocity": 110,
      "chip": "ym2612"
    },
    {
      "channel": 0,
      "note": 69,
      "start": 11.1527,
      "duration": 0.0162,
      "velocity": 127,
      "chip": "ym2612"
    },
    {
      "channel": 3,
      "note": 73,
      "start": 11.1563,
      "duration": 0.0162,
      "velocity": 110,
      "chip": "ym2612"
    },
    {
      "channel": 2,
      "note": 61,
      "start": 11.1574,
      "duration": 0.0161,
      "velocity": 100,
      "chip": "ym2612"
    },
    {
      "channel": 1,
      "note": 76,
      "start": 11.1586,
      "duration": 0.0162,
      "velocity": 110,
      "chip": "ym2612"
    },
    {
      "channel": 0,
      "note": 68,
      "start": 11.1689,
      "duration": 0.0179,
      "velocity": 127,
      "chip": "ym2612"
    },
    {
      "channel": 3,
      "note": 73,
      "start": 11.1724,
      "duration": 0.018,
      "velocity": 110,
      "chip": "ym2612"
    },
    {
      "channel": 2,
      "note": 61,
      "start": 11.1736,
      "duration": 0.0183,
      "velocity": 100,
      "chip": "ym2612"
    },
    {
      "channel": 1,
      "note": 76,
      "start": 11.1747,
      "duration": 0.0183,
      "velocity": 110,
      "chip": "ym2612"
    },
    {
      "channel": 0,
      "note": 84,
      "start": 11.1869,
      "duration": 0.0139,
      "velocity": 127,
      "chip": "ym2612"
    },
    {
      "channel": 3,
      "note": 73,
      "start": 11.1905,
      "duration": 0.0142,
      "velocity": 110,
      "chip": "ym2612"
    },
    {
      "channel": 2,
      "note": 73,
      "start": 11.1919,
      "duration": 0.014,
      "velocity": 100,
      "chip": "ym2612"
    },
    {
      "channel": 1,
      "note": 76,
      "start": 11.1931,
      "duration": 0.0141,
      "velocity": 110,
      "chip": "ym2612"
    },
    {
      "channel": 0,
      "note": 82,
      "start": 11.2007,
      "duration": 0.0159,
      "velocity": 127,
      "chip": "ym2612"
    },
    {
      "channel": 2,
      "note": 73,
      "start": 11.2059,
      "duration": 0.016,
      "velocity": 100,
      "chip": "ym2612"
    },
    {
      "channel": 0,
      "note": 81,
      "start": 11.2166,
      "duration": 0.0161,
      "velocity": 127,
      "chip": "ym2612"
    },
    {
      "channel": 2,
      "note": 73,
      "start": 11.2219,
      "duration": 0.0161,
      "velocity": 100,
      "chip": "ym2612"
    },
    {
      "channel": 0,
      "note": 79,
      "start": 11.2327,
      "duration": 0.0161,
      "velocity": 127,
      "chip": "ym2612"
    },
    {
      "channel": 2,
      "note": 73,
      "start": 11.238,
      "duration": 0.0161,
      "velocity": 100,
      "chip": "ym2612"
    },
    {
      "channel": 0,
      "note": 77,
      "start": 11.2488,
      "duration": 0.0161,
      "velocity": 127,
      "chip": "ym2612"
    },
    {
      "channel": 2,
      "note": 73,
      "start": 11.2541,
      "duration": 0.0161,
      "velocity": 100,
      "chip": "ym2612"
    },
    {
      "channel": 0,
      "note": 76,
      "start": 11.2649,
      "duration": 0.0161,
      "velocity": 127,
      "chip": "ym2612"
    },
    {
      "channel": 2,
      "note": 73,
      "start": 11.2702,
      "duration": 0.0161,
      "velocity": 100,
      "chip": "ym2612"
    },
    {
      "channel": 0,
      "note": 74,
      "start": 11.281,
      "duration": 0.018,
      "velocity": 127,
      "chip": "ym2612"
    },
    {
      "channel": 2,
      "note": 73,
      "start": 11.2862,
      "duration": 0.0186,
      "velocity": 100,
      "chip": "ym2612"
    },
    {
      "channel": 0,
      "note": 78,
      "start": 11.299,
      "duration": 0.0143,
      "velocity": 127,
      "chip": "ym2612"
    },
    {
      "channel": 3,
      "note": 76,
      "start": 11.3035,
      "duration": 0.0134,
      "velocity": 110,
      "chip": "ym2612"
    },
    {
      "channel": 2,
      "note": 61,
      "start": 11.3049,
      "duration": 0.0137,
      "velocity": 100,
      "chip": "ym2612"
    },
    {
      "channel": 1,
      "note": 73,
      "start": 11.3064,
      "duration": 0.0135,
      "velocity": 110,
      "chip": "ym2612"
    },
    {
      "channel": 0,
      "note": 76,
      "start": 11.3132,
      "duration": 0.016,
      "velocity": 127,
      "chip": "ym2612"
    },
    {
      "channel": 3,
      "note": 76,
      "start": 11.3168,
      "duration": 0.016,
      "velocity": 110,
      "chip": "ym2612"
    },
    {
      "channel": 2,
      "note": 61,
      "start": 11.3186,
      "duration": 0.0156,
      "velocity": 100,
      "chip": "ym2612"
    },
    {
      "channel": 1,
      "note": 73,
      "start": 11.3199,
      "duration": 0.0159,
      "velocity": 110,
      "chip": "ym2612"
    },
    {
      "channel": 0,
      "note": 75,
      "start": 11.3293,
      "duration": 0.0161,
      "velocity": 127,
      "chip": "ym2612"
    },
    {
      "channel": 3,
      "note": 76,
      "start": 11.3328,
      "duration": 0.0161,
      "velocity": 110,
      "chip": "ym2612"
    },
    {
      "channel": 2,
      "note": 61,
      "start": 11.3342,
      "duration": 0.0159,
      "velocity": 100,
      "chip": "ym2612"
    },
    {
      "channel": 1,
      "note": 73,
      "start": 11.3357,
      "duration": 0.0161,
      "velocity": 110,
      "chip": "ym2612"
    },
    {
      "channel": 0,
      "note": 73,
      "start": 11.3454,
      "duration": 0.0161,
      "velocity": 127,
      "chip": "ym2612"
    },
    {
      "channel": 3,
      "note": 76,
      "start": 11.349,
      "duration": 0.0161,
      "velocity": 110,
      "chip": "ym2612"
    },
    {
      "channel": 2,
      "note": 61,
      "start": 11.3501,
      "duration": 0.0161,
      "velocity": 100,
      "chip": "ym2612"
    },
    {
      "channel": 1,
      "note": 73,
      "start": 11.3518,
      "duration": 0.0157,
      "velocity": 110,
      "chip": "ym2612"
    },
    {
      "channel": 0,
      "note": 71,
      "start": 11.3615,
      "duration": 0.0161,
      "velocity": 127,
      "chip": "ym2612"
    },
    {
      "channel": 3,
      "note": 76,
      "start": 11.3651,
      "duration": 0.0161,
      "velocity": 110,
      "chip": "ym2612"
    },
    {
      "channel": 2,
      "note": 61,
      "start": 11.3662,
      "duration": 0.0161,
      "velocity": 100,
      "chip": "ym2612"
    },
    {
      "channel": 1,
      "note": 73,
      "start": 11.3676,
      "duration": 0.0159,
      "velocity": 110,
      "chip": "ym2612"
    },
    {
      "channel": 0,
      "note": 70,
      "start": 11.3776,
      "duration": 0.0179,
      "velocity": 115,
      "chip": "ym2612"
    },
    {
      "channel": 3,
      "note": 76,
      "start": 11.3812,
      "duration": 0.0179,
      "velocity": 110,
      "chip": "ym2612"
    },
    {
      "channel": 2,
      "note": 61,
      "start": 11.3823,
      "duration": 0.018,
      "velocity": 100,
      "chip": "ym2612"
    },
    {
      "channel": 1,
      "note": 73,
      "start": 11.3834,
      "duration": 0.0184,
      "velocity": 110,
      "chip": "ym2612"
    },
    {
      "channel": 0,
      "note": 36,
      "start": 11.3955,
      "duration": 0.0143,
      "velocity": 115,
      "chip": "ym2612"
    },
    {
      "channel": 3,
      "note": 76,
      "start": 11.3991,
      "duration": 0.0143,
      "velocity": 110,
      "chip": "ym2612"
    },
    {
      "channel": 2,
      "note": 61,
      "start": 11.4002,
      "duration": 0.0143,
      "velocity": 100,
      "chip": "ym2612"
    },
    {
      "channel": 1,
      "note": 73,
      "start": 11.4019,
      "duration": 0.0139,
      "velocity": 110,
      "chip": "ym2612"
    },
    {
      "channel": 0,
      "note": 36,
      "start": 11.4098,
      "duration": 0.016,
      "velocity": 115,
      "chip": "ym2612"
    },
    {
      "channel": 2,
      "note": 61,
      "start": 11.4146,
      "duration": 0.016,
      "velocity": 100,
      "chip": "ym2612"
    },
    {
      "channel": 0,
      "note": 37,
      "start": 11.4259,
      "duration": 0.0161,
      "velocity": 115,
      "chip": "ym2612"
    },
    {
      "channel": 2,
      "note": 61,
      "start": 11.4306,
      "duration": 0.0161,
      "velocity": 100,
      "chip": "ym2612"
    },
    {
      "channel": 0,
      "note": 37,
      "start": 11.442,
      "duration": 0.0161,
      "velocity": 115,
      "chip": "ym2612"
    },
    {
      "channel": 2,
      "note": 61,
      "start": 11.4467,
      "duration": 0.0161,
      "velocity": 100,
      "chip": "ym2612"
    },
    {
      "channel": 0,
      "note": 38,
      "start": 11.4581,
      "duration": 0.0161,
      "velocity": 115,
      "chip": "ym2612"
    },
    {
      "channel": 2,
      "note": 61,
      "start": 11.4628,
      "duration": 0.0162,
      "velocity": 100,
      "chip": "ym2612"
    },
    {
      "channel": 0,
      "note": 38,
      "start": 11.4741,
      "duration": 0.0162,
      "velocity": 115,
      "chip": "ym2612"
    },
    {
      "channel": 2,
      "note": 61,
      "start": 11.4789,
      "duration": 0.016,
      "velocity": 100,
      "chip": "ym2612"
    },
    {
      "channel": 0,
      "note": 39,
      "start": 11.4903,
      "duration": 0.0179,
      "velocity": 124,
      "chip": "ym2612"
    },
    {
      "channel": 2,
      "note": 61,
      "start": 11.495,
      "duration": 0.0186,
      "velocity": 100,
      "chip": "ym2612"
    },
    {
      "channel": 0,
      "note": 84,
      "start": 11.5083,
      "duration": 0.0143,
      "velocity": 124,
      "chip": "ym2612"
    },
    {
      "channel": 3,
      "note": 73,
      "start": 11.5122,
      "duration": 0.014,
      "velocity": 110,
      "chip": "ym2612"
    },
    {
      "channel": 2,
      "note": 56,
      "start": 11.5137,
      "duration": 0.0137,
      "velocity": 100,
      "chip": "ym2612"
    },
    {
      "channel": 1,
      "note": 76,
      "start": 11.5152,
      "duration": 0.0134,
      "velocity": 110,
      "chip": "ym2612"
    },
    {
      "channel": 0,
      "note": 82,
      "start": 11.5226,
      "duration": 0.016,
      "velocity": 124,
      "chip": "ym2612"
    },
    {
      "channel": 3,
      "note": 73,
      "start": 11.5262,
      "duration": 0.016,
      "velocity": 110,
      "chip": "ym2612"
    },
    {
      "channel": 2,
      "note": 56,
      "start": 11.5274,
      "duration": 0.0159,
      "velocity": 100,
      "chip": "ym2612"
    },
    {
      "channel": 1,
      "note": 76,
      "start": 11.5286,
      "duration": 0.0158,
      "velocity": 110,
      "chip": "ym2612"
    },
    {
      "channel": 0,
      "note": 80,
      "start": 11.5386,
      "duration": 0.0161,
      "velocity": 124,
      "chip": "ym2612"
    },
    {
      "channel": 3,
      "note": 73,
      "start": 11.5422,
      "duration": 0.0161,
      "velocity": 110,
      "chip": "ym2612"
    },
    {
      "channel": 2,
      "note": 56,
      "start": 11.5433,
      "duration": 0.0161,
      "velocity": 100,
      "chip": "ym2612"
    },
    {
      "channel": 1,
      "note": 76,
      "start": 11.5444,
      "duration": 0.0161,
      "velocity": 110,
      "chip": "ym2612"
    },
    {
      "channel": 0,
      "note": 77,
      "start": 11.5547,
      "duration": 0.0161,
      "velocity": 124,
      "chip": "ym2612"
    },
    {
      "channel": 3,
      "note": 73,
      "start": 11.5583,
      "duration": 0.0161,
      "velocity": 110,
      "chip": "ym2612"
    },
    {
      "channel": 2,
      "note": 56,
      "start": 11.5594,
      "duration": 0.0161,
      "velocity": 100,
      "chip": "ym2612"
    },
    {
      "channel": 1,
      "note": 76,
      "start": 11.5605,
      "duration": 0.0162,
      "velocity": 110,
      "chip": "ym2612"
    },
    {
      "channel": 0,
      "note": 75,
      "start": 11.5708,
      "duration": 0.0161,
      "velocity": 124,
      "chip": "ym2612"
    },
    {
      "channel": 3,
      "note": 73,
      "start": 11.5744,
      "duration": 0.0161,
      "velocity": 110,
      "chip": "ym2612"
    },
    {
      "channel": 2,
      "note": 56,
      "start": 11.5755,
      "duration": 0.0162,
      "velocity": 100,
      "chip": "ym2612"
    },
    {
      "channel": 1,
      "note": 76,
      "start": 11.5767,
      "duration": 0.0161,
      "velocity": 110,
      "chip": "ym2612"
    },
    {
      "channel": 0,
      "note": 72,
      "start": 11.5869,
      "duration": 0.0183,
      "velocity": 124,
      "chip": "ym2612"
    },
    {
      "channel": 3,
      "note": 73,
      "start": 11.5905,
      "duration": 0.0183,
      "velocity": 110,
      "chip": "ym2612"
    },
    {
      "channel": 2,
      "note": 56,
      "start": 11.5917,
      "duration": 0.0183,
      "velocity": 100,
      "chip": "ym2612"
    },
    {
      "channel": 1,
      "note": 76,
      "start": 11.5929,
      "duration": 0.0183,
      "velocity": 110,
      "chip": "ym2612"
    },
    {
      "channel": 0,
      "note": 84,
      "start": 11.6053,
      "duration": 0.0145,
      "velocity": 124,
      "chip": "ym2612"
    },
    {
      "channel": 3,
      "note": 73,
      "start": 11.6088,
      "duration": 0.0145,
      "velocity": 110,
      "chip": "ym2612"
    },
    {
      "channel": 2,
      "note": 56,
      "start": 11.61,
      "duration": 0.0145,
      "velocity": 100,
      "chip": "ym2612"
    },
    {
      "channel": 1,
      "note": 76,
      "start": 11.6112,
      "duration": 0.0144,
      "velocity": 110,
      "chip": "ym2612"
    },
    {
      "channel": 0,
      "note": 82,
      "start": 11.6198,
      "duration": 0.016,
      "velocity": 124,
      "chip": "ym2612"
    },
    {
      "channel": 2,
      "note": 56,
      "start": 11.6245,
      "duration": 0.016,
      "velocity": 100,
      "chip": "ym2612"
    },
    {
      "channel": 0,
      "note": 80,
      "start": 11.6358,
      "duration": 0.016,
      "velocity": 124,
      "chip": "ym2612"
    },
    {
      "channel": 2,
      "note": 56,
      "start": 11.6405,
      "duration": 0.0161,
      "velocity": 100,
      "chip": "ym2612"
    },
    {
      "channel": 0,
      "note": 77,
      "start": 11.6518,
      "duration": 0.0158,
      "velocity": 124,
      "chip": "ym2612"
    },
    {
      "channel": 2,
      "note": 56,
      "start": 11.6566,
      "duration": 0.0161,
      "velocity": 100,
      "chip": "ym2612"
    },
    {
      "channel": 0,
      "note": 75,
      "start": 11.6676,
      "duration": 0.0159,
      "velocity": 124,
      "chip": "ym2612"
    },
    {
      "channel": 2,
      "note": 56,
      "start": 11.6727,
      "duration": 0.0161,
      "velocity": 100,
      "chip": "ym2612"
    },
    {
      "channel": 0,
      "note": 72,
      "start": 11.6835,
      "duration": 0.0161,
      "velocity": 124,
      "chip": "ym2612"
    },
    {
      "channel": 2,
      "note": 56,
      "start": 11.6888,
      "duration": 0.0161,
      "velocity": 100,
      "chip": "ym2612"
    },
    {
      "channel": 0,
      "note": 70,
      "start": 11.6996,
      "duration": 0.0184,
      "velocity": 115,
      "chip": "ym2612"
    },
    {
      "channel": 2,
      "note": 56,
      "start": 11.7049,
      "duration": 0.019,
      "velocity": 100,
      "chip": "ym2612"
    },
    {
      "channel": 0,
      "note": 36,
      "start": 11.7181,
      "duration": 0.0137,
      "velocity": 115,
      "chip": "ym2612"
    },
    {
      "channel": 3,
      "note": 76,
      "start": 11.7224,
      "duration": 0.0138,
      "velocity": 110,
      "chip": "ym2612"
    },
    {
      "channel": 2,
      "note": 61,
      "start": 11.724,
      "duration": 0.0135,
      "velocity": 100,
      "chip": "ym2612"
    },
    {
      "channel": 1,
      "note": 73,
      "start": 11.7254,
      "duration": 0.0132,
      "velocity": 110,
      "chip": "ym2612"
    },
    {
      "channel": 0,
      "note": 36,
      "start": 11.7319,
      "duration": 0.016,
      "velocity": 115,
      "chip": "ym2612"
    },
    {
      "channel": 3,
      "note": 76,
      "start": 11.7362,
      "duration": 0.0158,
      "velocity": 110,
      "chip": "ym2612"
    },
    {
      "channel": 2,
      "note": 61,
      "start": 11.7375,
      "duration": 0.0157,
      "velocity": 100,
      "chip": "ym2612"
    },
    {
      "channel": 1,
      "note": 73,
      "start": 11.7387,
      "duration": 0.0157,
      "velocity": 110,
      "chip": "ym2612"
    },
    {
      "channel": 0,
      "note": 37,
      "start": 11.7479,
      "duration": 0.0161,
      "velocity": 115,
      "chip": "ym2612"
    },
    {
      "channel": 3,
      "note": 76,
      "start": 11.752,
      "duration": 0.0161,
      "velocity": 110,
      "chip": "ym2612"
    },
    {
      "channel": 2,
      "note": 61,
      "start": 11.7532,
      "duration": 0.0161,
      "velocity": 100,
      "chip": "ym2612"
    },
    {
      "channel": 1,
      "note": 73,
      "start": 11.7544,
      "duration": 0.0161,
      "velocity": 110,
      "chip": "ym2612"
    },
    {
      "channel": 0,
      "note": 37,
      "start": 11.764,
      "duration": 0.0161,
      "velocity": 115,
      "chip": "ym2612"
    },
    {
      "channel": 3,
      "note": 76,
      "start": 11.7681,
      "duration": 0.0155,
      "velocity": 110,
      "chip": "ym2612"
    },
    {
      "channel": 2,
      "note": 61,
      "start": 11.7693,
      "duration": 0.0161,
      "velocity": 100,
      "chip": "ym2612"
    },
    {
      "channel": 1,
      "note": 73,
      "start": 11.7705,
      "duration": 0.0161,
      "velocity": 110,
      "chip": "ym2612"
    },
    {
      "channel": 0,
      "note": 38,
      "start": 11.7801,
      "duration": 0.0162,
      "velocity": 115,
      "chip": "ym2612"
    },
    {
      "channel": 3,
      "note": 76,
      "start": 11.7836,
      "duration": 0.0161,
      "velocity": 110,
      "chip": "ym2612"
    },
    {
      "channel": 2,
      "note": 61,
      "start": 11.7854,
      "duration": 0.016,
      "velocity": 100,
      "chip": "ym2612"
    },
    {
      "channel": 1,
      "note": 73,
      "start": 11.7866,
      "duration": 0.0161,
      "velocity": 110,
      "chip": "ym2612"
    },
    {
      "channel": 0,
      "note": 38,
      "start": 11.7962,
      "duration": 0.0161,
      "velocity": 115,
      "chip": "ym2612"
    },
    {
      "channel": 3,
      "note": 76,
      "start": 11.7997,
      "duration": 0.0162,
      "velocity": 110,
      "chip": "ym2612"
    },
    {
      "channel": 2,
      "note": 61,
      "start": 11.8015,
      "duration": 0.0156,
      "velocity": 100,
      "chip": "ym2612"
    },
    {
      "channel": 1,
      "note": 73,
      "start": 11.8027,
      "duration": 0.0161,
      "velocity": 110,
      "chip": "ym2612"
    },
    {
      "channel": 0,
      "note": 39,
      "start": 11.8123,
      "duration": 0.0161,
      "velocity": 115,
      "chip": "ym2612"
    },
    {
      "channel": 3,
      "note": 76,
      "start": 11.8159,
      "duration": 0.0161,
      "velocity": 110,
      "chip": "ym2612"
    },
    {
      "channel": 2,
      "note": 61,
      "start": 11.817,
      "duration": 0.0161,
      "velocity": 100,
      "chip": "ym2612"
    },
    {
      "channel": 1,
      "note": 73,
      "start": 11.8188,
      "duration": 0.0161,
      "velocity": 110,
      "chip": "ym2612"
    },
    {
      "channel": 0,
      "note": 39,
      "start": 11.8284,
      "duration": 0.0161,
      "velocity": 115,
      "chip": "ym2612"
    },
    {
      "channel": 2,
      "note": 61,
      "start": 11.8331,
      "duration": 0.0161,
      "velocity": 100,
      "chip": "ym2612"
    },
    {
      "channel": 0,
      "note": 40,
      "start": 11.8445,
      "duration": 0.0161,
      "velocity": 115,
      "chip": "ym2612"
    },
    {
      "channel": 2,
      "note": 61,
      "start": 11.8492,
      "duration": 0.0161,
      "velocity": 100,
      "chip": "ym2612"
    },
    {
      "channel": 0,
      "note": 40,
      "start": 11.8606,
      "duration": 0.0161,
      "velocity": 115,
      "chip": "ym2612"
    },
    {
      "channel": 2,
      "note": 61,
      "start": 11.8654,
      "duration": 0.016,
      "velocity": 100,
      "chip": "ym2612"
    },
    {
      "channel": 0,
      "note": 40,
      "start": 11.8767,
      "duration": 0.0161,
      "velocity": 115,
      "chip": "ym2612"
    },
    {
      "channel": 2,
      "note": 61,
      "start": 11.8814,
      "duration": 0.0161,
      "velocity": 100,
      "chip": "ym2612"
    },
    {
      "channel": 0,
      "note": 41,
      "start": 11.8928,
      "duration": 0.0161,
      "velocity": 115,
      "chip": "ym2612"
    },
    {
      "channel": 2,
      "note": 61,
      "start": 11.8975,
      "duration": 0.0161,
      "velocity": 100,
      "chip": "ym2612"
    },
    {
      "channel": 0,
      "note": 41,
      "start": 11.9089,
      "duration": 0.0161,
      "velocity": 115,
      "chip": "ym2612"
    },
    {
      "channel": 2,
      "note": 61,
      "start": 11.9136,
      "duration": 0.0167,
      "velocity": 100,
      "chip": "ym2612"
    },
    {
      "channel": 0,
      "note": 42,
      "start": 11.925,
      "duration": 0.0161,
      "velocity": 115,
      "chip": "ym2612"
    },
    {
      "channel": 3,
      "note": 73,
      "start": 11.9291,
      "duration": 0.0156,
      "velocity": 110,
      "chip": "ym2612"
    },
    {
      "channel": 2,
      "note": 61,
      "start": 11.9303,
      "duration": 0.0156,
      "velocity": 100,
      "chip": "ym2612"
    },
    {
      "channel": 1,
      "note": 76,
      "start": 11.9319,
      "duration": 0.0152,
      "velocity": 110,
      "chip": "ym2612"
    },
    {
      "channel": 0,
      "note": 42,
      "start": 11.9411,
      "duration": 0.0161,
      "velocity": 115,
      "chip": "ym2612"
    },
    {
      "channel": 3,
      "note": 73,
      "start": 11.9448,
      "duration": 0.016,
      "velocity": 110,
      "chip": "ym2612"
    },
    {
      "channel": 2,
      "note": 61,
      "start": 11.9459,
      "duration": 0.016,
      "velocity": 100,
      "chip": "ym2612"
    },
    {
      "channel": 1,
      "note": 76,
      "start": 11.9471,
      "duration": 0.016,
      "velocity": 110,
      "chip": "ym2612"
    },
    {
      "channel": 0,
      "note": 43,
      "start": 11.9572,
      "duration": 0.0161,
      "velocity": 115,
      "chip": "ym2612"
    },
    {
      "channel": 3,
      "note": 73,
      "start": 11.9608,
      "duration": 0.0161,
      "velocity": 110,
      "chip": "ym2612"
    },
    {
      "channel": 2,
      "note": 61,
      "start": 11.962,
      "duration": 0.0161,
      "velocity": 100,
      "chip": "ym2612"
    },
    {
      "channel": 1,
      "note": 76,
      "start": 11.9631,
      "duration": 0.0161,
      "velocity": 110,
      "chip": "ym2612"
    },
    {
      "channel": 0,
      "note": 43,
      "start": 11.9733,
      "duration": 0.0161,
      "velocity": 115,
      "chip": "ym2612"
    },
    {
      "channel": 2,
      "note": 61,
      "start": 11.978,
      "duration": 0.0161,
      "velocity": 100,
      "chip": "ym2612"
    },
    {
      "channel": 0,
      "note": 44,
      "start": 11.9894,
      "duration": 0.0161,
      "velocity": 115,
      "chip": "ym2612"
    },
    {
      "channel": 2,
      "note": 61,
      "start": 11.9941,
      "duration": 0.0161,
      "velocity": 100,
      "chip": "ym2612"
    },
    {
      "channel": 0,
      "note": 44,
      "start": 12.0055,
      "duration": 0.018,
      "velocity": 115,
      "chip": "ym2612"
    },
    {
      "channel": 2,
      "note": 61,
      "start": 12.0102,
      "duration": 0.0186,
      "velocity": 100,
      "chip": "ym2612"
    },
    {
      "channel": 0,
      "note": 36,
      "start": 12.0235,
      "duration": 0.0143,
      "velocity": 115,
      "chip": "ym2612"
    },
    {
      "channel": 3,
      "note": 73,
      "start": 12.0273,
      "duration": 0.0141,
      "velocity": 110,
      "chip": "ym2612"
    },
    {
      "channel": 2,
      "note": 61,
      "start": 12.0289,
      "duration": 0.0137,
      "velocity": 100,
      "chip": "ym2612"
    },
    {
      "channel": 1,
      "note": 76,
      "start": 12.0303,
      "duration": 0.0135,
      "velocity": 110,
      "chip": "ym2612"
    },
    {
      "channel": 0,
      "note": 36,
      "start": 12.0378,
      "duration": 0.0161,
      "velocity": 115,
      "chip": "ym2612"
    },
    {
      "channel": 3,
      "note": 73,
      "start": 12.0414,
      "duration": 0.016,
      "velocity": 110,
      "chip": "ym2612"
    },
    {
      "channel": 2,
      "note": 61,
      "start": 12.0426,
      "duration": 0.016,
      "velocity": 100,
      "chip": "ym2612"
    },
    {
      "channel": 1,
      "note": 76,
      "start": 12.0438,
      "duration": 0.0159,
      "velocity": 110,
      "chip": "ym2612"
    },
    {
      "channel": 0,
      "note": 37,
      "start": 12.0539,
      "duration": 0.0162,
      "velocity": 115,
      "chip": "ym2612"
    },
    {
      "channel": 3,
      "note": 73,
      "start": 12.0574,
      "duration": 0.0161,
      "velocity": 110,
      "chip": "ym2612"
    },
    {
      "channel": 2,
      "note": 61,
      "start": 12.0586,
      "duration": 0.0162,
      "velocity": 100,
      "chip": "ym2612"
    },
    {
      "channel": 1,
      "note": 76,
      "start": 12.0597,
      "duration": 0.0161,
      "velocity": 110,
      "chip": "ym2612"
    },
    {
      "channel": 0,
      "note": 37,
      "start": 12.0701,
      "duration": 0.0163,
      "velocity": 115,
      "chip": "ym2612"
    },
    {
      "channel": 3,
      "note": 73,
      "start": 12.0736,
      "duration": 0.0164,
      "velocity": 110,
      "chip": "ym2612"
    },
    {
      "channel": 2,
      "note": 61,
      "start": 12.0747,
      "duration": 0.0164,
      "velocity": 100,
      "chip": "ym2612"
    },
    {
      "channel": 1,
      "note": 76,
      "start": 12.0759,
      "duration": 0.0164,
      "velocity": 110,
      "chip": "ym2612"
    },
    {
      "channel": 0,
      "note": 38,
      "start": 12.0864,
      "duration": 0.0163,
      "velocity": 115,
      "chip": "ym2612"
    },
    {
      "channel": 2,
      "note": 61,
      "start": 12.0911,
      "duration": 0.0163,
      "velocity": 100,
      "chip": "ym2612"
    },
    {
      "channel": 0,
      "note": 38,
      "start": 12.1027,
      "duration": 0.0161,
      "velocity": 115,
      "chip": "ym2612"
    },
    {
      "channel": 2,
      "note": 61,
      "start": 12.1074,
      "duration": 0.0161,
      "velocity": 100,
      "chip": "ym2612"
    },
    {
      "channel": 0,
      "note": 39,
      "start": 12.1188,
      "duration": 0.0179,
      "velocity": 124,
      "chip": "ym2612"
    },
    {
      "channel": 2,
      "note": 61,
      "start": 12.1236,
      "duration": 0.0183,
      "velocity": 100,
      "chip": "ym2612"
    },
    {
      "channel": 0,
      "note": 84,
      "start": 12.1368,
      "duration": 0.014,
      "velocity": 124,
      "chip": "ym2612"
    },
    {
      "channel": 3,
      "note": 76,
      "start": 12.1407,
      "duration": 0.0141,
      "velocity": 110,
      "chip": "ym2612"
    },
    {
      "channel": 2,
      "note": 61,
      "start": 12.1419,
      "duration": 0.0141,
      "velocity": 100,
      "chip": "ym2612"
    },
    {
      "channel": 1,
      "note": 73,
      "start": 12.1434,
      "duration": 0.0138,
      "velocity": 110,
      "chip": "ym2612"
    },
    {
      "channel": 0,
      "note": 82,
      "start": 12.1507,
      "duration": 0.0158,
      "velocity": 124,
      "chip": "ym2612"
    },
    {
      "channel": 3,
      "note": 76,
      "start": 12.1548,
      "duration": 0.016,
      "velocity": 110,
      "chip": "ym2612"
    },
    {
      "channel": 2,
      "note": 61,
      "start": 12.156,
      "duration": 0.016,
      "velocity": 100,
      "chip": "ym2612"
    },
    {
      "channel": 1,
      "note": 73,
      "start": 12.1572,
      "duration": 0.0159,
      "velocity": 110,
      "chip": "ym2612"
    },
    {
      "channel": 0,
      "note": 80,
      "start": 12.1665,
      "duration": 0.0161,
      "velocity": 124,
      "chip": "ym2612"
    },
    {
      "channel": 3,
      "note": 76,
      "start": 12.1707,
      "duration": 0.0161,
      "velocity": 110,
      "chip": "ym2612"
    },
    {
      "channel": 2,
      "note": 61,
      "start": 12.1719,
      "duration": 0.016,
      "velocity": 100,
      "chip": "ym2612"
    },
    {
      "channel": 1,
      "note": 73,
      "start": 12.1731,
      "duration": 0.0161,
      "velocity": 110,
      "chip": "ym2612"
    },
    {
      "channel": 0,
      "note": 77,
      "start": 12.1826,
      "duration": 0.0161,
      "velocity": 124,
      "chip": "ym2612"
    },
    {
      "channel": 2,
      "note": 61,
      "start": 12.188,
      "duration": 0.0161,
      "velocity": 100,
      "chip": "ym2612"
    },
    {
      "channel": 0,
      "note": 75,
      "start": 12.1987,
      "duration": 0.0162,
      "velocity": 124,
      "chip": "ym2612"
    },
    {
      "channel": 2,
      "note": 61,
      "start": 12.2041,
      "duration": 0.0161,
      "velocity": 100,
      "chip": "ym2612"
    },
    {
      "channel": 0,
      "note": 72,
      "start": 12.2149,
      "duration": 0.0161,
      "velocity": 124,
      "chip": "ym2612"
    },
    {
      "channel": 2,
      "note": 61,
      "start": 12.2202,
      "duration": 0.0166,
      "velocity": 100,
      "chip": "ym2612"
    },
    {
      "channel": 0,
      "note": 70,
      "start": 12.231,
      "duration": 0.0161,
      "velocity": 124,
      "chip": "ym2612"
    },
    {
      "channel": 3,
      "note": 76,
      "start": 12.2354,
      "duration": 0.0155,
      "velocity": 110,
      "chip": "ym2612"
    },
    {
      "channel": 2,
      "note": 61,
      "start": 12.2368,
      "duration": 0.0158,
      "velocity": 100,
      "chip": "ym2612"
    },
    {
      "channel": 1,
      "note": 73,
      "start": 12.2382,
      "duration": 0.0156,
      "velocity": 110,
      "chip": "ym2612"
    },
    {
      "channel": 0,
      "note": 68,
      "start": 12.2471,
      "duration": 0.0161,
      "velocity": 124,
      "chip": "ym2612"
    },
    {
      "channel": 3,
      "note": 76,
      "start": 12.2509,
      "duration": 0.0158,
      "velocity": 110,
      "chip": "ym2612"
    },
    {
      "channel": 2,
      "note": 61,
      "start": 12.2525,
      "duration": 0.0159,
      "velocity": 100,
      "chip": "ym2612"
    },
    {
      "channel": 1,
      "note": 73,
      "start": 12.2537,
      "duration": 0.016,
      "velocity": 110,
      "chip": "ym2612"
    },
    {
      "channel": 0,
      "note": 65,
      "start": 12.2632,
      "duration": 0.0161,
      "velocity": 124,
      "chip": "ym2612"
    },
    {
      "channel": 3,
      "note": 76,
      "start": 12.2667,
      "duration": 0.0161,
      "velocity": 110,
      "chip": "ym2612"
    },
    {
      "channel": 2,
      "note": 61,
      "start": 12.2684,
      "duration": 0.0158,
      "velocity": 100,
      "chip": "ym2612"
    },
    {
      "channel": 1,
      "note": 73,
      "start": 12.2697,
      "duration": 0.0161,
      "velocity": 110,
      "chip": "ym2612"
    },
    {
      "channel": 0,
      "note": 63,
      "start": 12.2793,
      "duration": 0.0153,
      "velocity": 1,
      "chip": "ym2612"
    },
    {
      "channel": 3,
      "note": 76,
      "start": 12.2828,
      "duration": 0.0153,
      "velocity": 110,
      "chip": "ym2612"
    },
    {
      "channel": 2,
      "note": 61,
      "start": 12.2842,
      "duration": 0.0151,
      "velocity": 100,
      "chip": "ym2612"
    },
    {
      "channel": 1,
      "note": 73,
      "start": 12.2858,
      "duration": 0.0149,
      "velocity": 110,
      "chip": "ym2612"
    },
    {
      "channel": 2,
      "note": 61,
      "start": 12.2993,
      "duration": 0.0152,
      "velocity": 100,
      "chip": "ym2612"
    },
    {
      "channel": 2,
      "note": 61,
      "start": 12.3146,
      "duration": 0.0161,
      "velocity": 100,
      "chip": "ym2612"
    },
    {
      "channel": 2,
      "note": 61,
      "start": 12.3307,
      "duration": 0.0207,
      "velocity": 100,
      "chip": "ym2612"
    },
    {
      "channel": 0,
      "note": 36,
      "start": 12.3455,
      "duration": 0.0142,
      "velocity": 115,
      "chip": "ym2612"
    },
    {
      "channel": 3,
      "note": 73,
      "start": 12.3495,
      "duration": 0.0139,
      "velocity": 110,
      "chip": "ym2612"
    },
    {
      "channel": 2,
      "note": 56,
      "start": 12.3515,
      "duration": 0.0132,
      "velocity": 100,
      "chip": "ym2612"
    },
    {
      "channel": 1,
      "note": 76,
      "start": 12.353,
      "duration": 0.0129,
      "velocity": 110,
      "chip": "ym2612"
    },
    {
      "channel": 0,
      "note": 36,
      "start": 12.3598,
      "duration": 0.0161,
      "velocity": 115,
      "chip": "ym2612"
    },
    {
      "channel": 3,
      "note": 73,
      "start": 12.3634,
      "duration": 0.016,
      "velocity": 110,
      "chip": "ym2612"
    },
    {
      "channel": 2,
      "note": 56,
      "start": 12.3646,
      "duration": 0.016,
      "velocity": 100,
      "chip": "ym2612"
    },
    {
      "channel": 1,
      "note": 76,
      "start": 12.3659,
      "duration": 0.0159,
      "velocity": 110,
      "chip": "ym2612"
    },
    {
      "channel": 0,
      "note": 37,
      "start": 12.3759,
      "duration": 0.0161,
      "velocity": 115,
      "chip": "ym2612"
    },
    {
      "channel": 3,
      "note": 73,
      "start": 12.3794,
      "duration": 0.0161,
      "velocity": 110,
      "chip": "ym2612"
    },
    {
      "channel": 2,
      "note": 56,
      "start": 12.3806,
      "duration": 0.0161,
      "velocity": 100,
      "chip": "ym2612"
    },
    {
      "channel": 1,
      "note": 76,
      "start": 12.3818,
      "duration": 0.016,
      "velocity": 110,
      "chip": "ym2612"
    },
    {
      "channel": 0,
      "note": 37,
      "start": 12.392,
      "duration": 0.0161,
      "velocity": 115,
      "chip": "ym2612"
    },
    {
      "channel": 3,
      "note": 73,
      "start": 12.3955,
      "duration": 0.0161,
      "velocity": 110,
      "chip": "ym2612"
    },
    {
      "channel": 2,
      "note": 56,
      "start": 12.3967,
      "duration": 0.0161,
      "velocity": 100,
      "chip": "ym2612"
    },
    {
      "channel": 1,
      "note": 76,
      "start": 12.3978,
      "duration": 0.0161,
      "velocity": 110,
      "chip": "ym2612"
    },
    {
      "channel": 0,
      "note": 38,
      "start": 12.4081,
      "duration": 0.0161,
      "velocity": 115,
      "chip": "ym2612"
    },
    {
      "channel": 3,
      "note": 73,
      "start": 12.4116,
      "duration": 0.0161,
      "velocity": 110,
      "chip": "ym2612"
    },
    {
      "channel": 2,
      "note": 56,
      "start": 12.4128,
      "duration": 0.0161,
      "velocity": 100,
      "chip": "ym2612"
    },
    {
      "channel": 1,
      "note": 76,
      "start": 12.4139,
      "duration": 0.0161,
      "velocity": 110,
      "chip": "ym2612"
    },
    {
      "channel": 0,
      "note": 38,
      "start": 12.4241,
      "duration": 0.0179,
      "velocity": 115,
      "chip": "ym2612"
    },
    {
      "channel": 3,
      "note": 73,
      "start": 12.4277,
      "duration": 0.018,
      "velocity": 110,
      "chip": "ym2612"
    },
    {
      "channel": 2,
      "note": 56,
      "start": 12.4289,
      "duration": 0.0182,
      "velocity": 100,
      "chip": "ym2612"
    },
    {
      "channel": 1,
      "note": 76,
      "start": 12.43,
      "duration": 0.0183,
      "velocity": 110,
      "chip": "ym2612"
    },
    {
      "channel": 0,
      "note": 36,
      "start": 12.4421,
      "duration": 0.0143,
      "velocity": 115,
      "chip": "ym2612"
    },
    {
      "channel": 3,
      "note": 73,
      "start": 12.4457,
      "duration": 0.0143,
      "velocity": 110,
      "chip": "ym2612"
    },
    {
      "channel": 2,
      "note": 59,
      "start": 12.4471,
      "duration": 0.0141,
      "velocity": 100,
      "chip": "ym2612"
    },
    {
      "channel": 1,
      "note": 76,
      "start": 12.4483,
      "duration": 0.0141,
      "velocity": 110,
      "chip": "ym2612"
    },
    {
      "channel": 0,
      "note": 36,
      "start": 12.4564,
      "duration": 0.016,
      "velocity": 115,
      "chip": "ym2612"
    },
    {
      "channel": 2,
      "note": 59,
      "start": 12.4612,
      "duration": 0.0159,
      "velocity": 100,
      "chip": "ym2612"
    },
    {
      "channel": 0,
      "note": 37,
      "start": 12.4724,
      "duration": 0.0161,
      "velocity": 115,
      "chip": "ym2612"
    },
    {
      "channel": 2,
      "note": 59,
      "start": 12.4771,
      "duration": 0.0161,
      "velocity": 100,
      "chip": "ym2612"
    },
    {
      "channel": 0,
      "note": 37,
      "start": 12.4885,
      "duration": 0.0161,
      "velocity": 115,
      "chip": "ym2612"
    },
    {
      "channel": 2,
      "note": 59,
      "start": 12.4932,
      "duration": 0.0162,
      "velocity": 100,
      "chip": "ym2612"
    },
    {
      "channel": 0,
      "note": 38,
      "start": 12.5046,
      "duration": 0.0162,
      "velocity": 115,
      "chip": "ym2612"
    },
    {
      "channel": 2,
      "note": 59,
      "start": 12.5094,
      "duration": 0.016,
      "velocity": 100,
      "chip": "ym2612"
    },
    {
      "channel": 0,
      "note": 38,
      "start": 12.5208,
      "duration": 0.0161,
      "velocity": 115,
      "chip": "ym2612"
    },
    {
      "channel": 2,
      "note": 59,
      "start": 12.5254,
      "duration": 0.0162,
      "velocity": 100,
      "chip": "ym2612"
    },
    {
      "channel": 0,
      "note": 39,
      "start": 12.5369,
      "duration": 0.0183,
      "velocity": 115,
      "chip": "ym2612"
    },
    {
      "channel": 2,
      "note": 59,
      "start": 12.5416,
      "duration": 0.0189,
      "velocity": 100,
      "chip": "ym2612"
    },
    {
      "channel": 0,
      "note": 36,
      "start": 12.5552,
      "duration": 0.0145,
      "velocity": 115,
      "chip": "ym2612"
    },
    {
      "channel": 3,
      "note": 76,
      "start": 12.5591,
      "duration": 0.0143,
      "velocity": 110,
      "chip": "ym2612"
    },
    {
      "channel": 2,
      "note": 61,
      "start": 12.5605,
      "duration": 0.014,
      "velocity": 100,
      "chip": "ym2612"
    },
    {
      "channel": 1,
      "note": 73,
      "start": 12.562,
      "duration": 0.0137,
      "velocity": 110,
      "chip": "ym2612"
    },
    {
      "channel": 0,
      "note": 36,
      "start": 12.5697,
      "duration": 0.016,
      "velocity": 115,
      "chip": "ym2612"
    },
    {
      "channel": 3,
      "note": 76,
      "start": 12.5733,
      "duration": 0.016,
      "velocity": 110,
      "chip": "ym2612"
    },
    {
      "channel": 2,
      "note": 61,
      "start": 12.5745,
      "duration": 0.0159,
      "velocity": 100,
      "chip": "ym2612"
    },
    {
      "channel": 1,
      "note": 73,
      "start": 12.5757,
      "duration": 0.0159,
      "velocity": 110,
      "chip": "ym2612"
    },
    {
      "channel": 0,
      "note": 37,
      "start": 12.5857,
      "duration": 0.0161,
      "velocity": 115,
      "chip": "ym2612"
    },
    {
      "channel": 3,
      "note": 76,
      "start": 12.5893,
      "duration": 0.0162,
      "velocity": 110,
      "chip": "ym2612"
    },
    {
      "channel": 2,
      "note": 61,
      "start": 12.5905,
      "duration": 0.0161,
      "velocity": 100,
      "chip": "ym2612"
    },
    {
      "channel": 1,
      "note": 73,
      "start": 12.5916,
      "duration": 0.0162,
      "velocity": 110,
      "chip": "ym2612"
    },
    {
      "channel": 0,
      "note": 37,
      "start": 12.6018,
      "duration": 0.0158,
      "velocity": 115,
      "chip": "ym2612"
    },
    {
      "channel": 3,
      "note": 76,
      "start": 12.6055,
      "duration": 0.0161,
      "velocity": 110,
      "chip": "ym2612"
    },
    {
      "channel": 2,
      "note": 61,
      "start": 12.6066,
      "duration": 0.0161,
      "velocity": 100,
      "chip": "ym2612"
    },
    {
      "channel": 1,
      "note": 73,
      "start": 12.6078,
      "duration": 0.0161,
      "velocity": 110,
      "chip": "ym2612"
    },
    {
      "channel": 0,
      "note": 38,
      "start": 12.6176,
      "duration": 0.0159,
      "velocity": 115,
      "chip": "ym2612"
    },
    {
      "channel": 3,
      "note": 76,
      "start": 12.6215,
      "duration": 0.0161,
      "velocity": 110,
      "chip": "ym2612"
    },
    {
      "channel": 2,
      "note": 61,
      "start": 12.6227,
      "duration": 0.0161,
      "velocity": 100,
      "chip": "ym2612"
    },
    {
      "channel": 1,
      "note": 73,
      "start": 12.6238,
      "duration": 0.0161,
      "velocity": 110,
      "chip": "ym2612"
    },
    {
      "channel": 0,
      "note": 38,
      "start": 12.6334,
      "duration": 0.0186,
      "velocity": 127,
      "chip": "ym2612"
    },
    {
      "channel": 3,
      "note": 76,
      "start": 12.6376,
      "duration": 0.0179,
      "velocity": 110,
      "chip": "ym2612"
    },
    {
      "channel": 2,
      "note": 61,
      "start": 12.6388,
      "duration": 0.0182,
      "velocity": 100,
      "chip": "ym2612"
    },
    {
      "channel": 1,
      "note": 73,
      "start": 12.6399,
      "duration": 0.0183,
      "velocity": 110,
      "chip": "ym2612"
    },
    {
      "channel": 0,
      "note": 88,
      "start": 12.652,
      "duration": 0.0137,
      "velocity": 127,
      "chip": "ym2612"
    },
    {
      "channel": 3,
      "note": 76,
      "start": 12.6556,
      "duration": 0.0143,
      "velocity": 110,
      "chip": "ym2612"
    },
    {
      "channel": 2,
      "note": 73,
      "start": 12.6571,
      "duration": 0.0141,
      "velocity": 100,
      "chip": "ym2612"
    },
    {
      "channel": 1,
      "note": 73,
      "start": 12.6582,
      "duration": 0.0141,
      "velocity": 110,
      "chip": "ym2612"
    },
    {
      "channel": 0,
      "note": 86,
      "start": 12.6657,
      "duration": 0.016,
      "velocity": 127,
      "chip": "ym2612"
    },
    {
      "channel": 2,
      "note": 73,
      "start": 12.6711,
      "duration": 0.016,
      "velocity": 100,
      "chip": "ym2612"
    },
    {
      "channel": 0,
      "note": 85,
      "start": 12.6817,
      "duration": 0.0162,
      "velocity": 127,
      "chip": "ym2612"
    },
    {
      "channel": 2,
      "note": 73,
      "start": 12.6871,
      "duration": 0.0161,
      "velocity": 100,
      "chip": "ym2612"
    },
    {
      "channel": 0,
      "note": 83,
      "start": 12.6979,
      "duration": 0.0161,
      "velocity": 127,
      "chip": "ym2612"
    },
    {
      "channel": 2,
      "note": 73,
      "start": 12.7032,
      "duration": 0.0161,
      "velocity": 100,
      "chip": "ym2612"
    },
    {
      "channel": 0,
      "note": 81,
      "start": 12.714,
      "duration": 0.0161,
      "velocity": 127,
      "chip": "ym2612"
    },
    {
      "channel": 2,
      "note": 73,
      "start": 12.7193,
      "duration": 0.016,
      "velocity": 100,
      "chip": "ym2612"
    },
    {
      "channel": 0,
      "note": 80,
      "start": 12.7301,
      "duration": 0.0161,
      "velocity": 127,
      "chip": "ym2612"
    },
    {
      "channel": 2,
      "note": 73,
      "start": 12.7353,
      "duration": 0.0162,
      "velocity": 100,
      "chip": "ym2612"
    },
    {
      "channel": 0,
      "note": 78,
      "start": 12.7462,
      "duration": 0.0161,
      "velocity": 127,
      "chip": "ym2612"
    },
    {
      "channel": 2,
      "note": 73,
      "start": 12.7515,
      "duration": 0.0167,
      "velocity": 100,
      "chip": "ym2612"
    },
    {
      "channel": 0,
      "note": 76,
      "start": 12.7623,
      "duration": 0.0161,
      "velocity": 127,
      "chip": "ym2612"
    },
    {
      "channel": 3,
      "note": 73,
      "start": 12.7663,
      "duration": 0.0157,
      "velocity": 110,
      "chip": "ym2612"
    },
    {
      "channel": 2,
      "note": 61,
      "start": 12.7682,
      "duration": 0.015,
      "velocity": 100,
      "chip": "ym2612"
    },
    {
      "channel": 1,
      "note": 76,
      "start": 12.7698,
      "duration": 0.0151,
      "velocity": 110,
      "chip": "ym2612"
    },
    {
      "channel": 0,
      "note": 75,
      "start": 12.7784,
      "duration": 0.0161,
      "velocity": 127,
      "chip": "ym2612"
    },
    {
      "channel": 3,
      "note": 73,
      "start": 12.782,
      "duration": 0.016,
      "velocity": 110,
      "chip": "ym2612"
    },
    {
      "channel": 2,
      "note": 61,
      "start": 12.7832,
      "duration": 0.016,
      "velocity": 100,
      "chip": "ym2612"
    },
    {
      "channel": 1,
      "note": 76,
      "start": 12.785,
      "duration": 0.0153,
      "velocity": 110,
      "chip": "ym2612"
    },
    {
      "channel": 0,
      "note": 73,
      "start": 12.7944,
      "duration": 0.0161,
      "velocity": 127,
      "chip": "ym2612"
    },
    {
      "channel": 3,
      "note": 73,
      "start": 12.798,
      "duration": 0.0161,
      "velocity": 110,
      "chip": "ym2612"
    },
    {
      "channel": 2,
      "note": 61,
      "start": 12.7992,
      "duration": 0.0161,
      "velocity": 100,
      "chip": "ym2612"
    },
    {
      "channel": 1,
      "note": 76,
      "start": 12.8003,
      "duration": 0.0161,
      "velocity": 110,
      "chip": "ym2612"
    },
    {
      "channel": 0,
      "note": 71,
      "start": 12.8105,
      "duration": 0.0161,
      "velocity": 127,
      "chip": "ym2612"
    },
    {
      "channel": 3,
      "note": 73,
      "start": 12.8141,
      "duration": 0.0161,
      "velocity": 110,
      "chip": "ym2612"
    },
    {
      "channel": 2,
      "note": 61,
      "start": 12.8153,
      "duration": 0.0161,
      "velocity": 100,
      "chip": "ym2612"
    },
    {
      "channel": 1,
      "note": 76,
      "start": 12.8164,
      "duration": 0.0161,
      "velocity": 110,
      "chip": "ym2612"
    },
    {
      "channel": 0,
      "note": 69,
      "start": 12.8266,
      "duration": 0.0161,
      "velocity": 127,
      "chip": "ym2612"
    },
    {
      "channel": 3,
      "note": 73,
      "start": 12.8302,
      "duration": 0.0161,
      "velocity": 110,
      "chip": "ym2612"
    },
    {
      "channel": 2,
      "note": 61,
      "start": 12.8313,
      "duration": 0.0162,
      "velocity": 100,
      "chip": "ym2612"
    },
    {
      "channel": 1,
      "note": 76,
      "start": 12.8325,
      "duration": 0.0161,
      "velocity": 110,
      "chip": "ym2612"
    },
    {
      "channel": 0,
      "note": 68,
      "start": 12.8428,
      "duration": 0.0179,
      "velocity": 127,
      "chip": "ym2612"
    },
    {
      "channel": 3,
      "note": 73,
      "start": 12.8463,
      "duration": 0.018,
      "velocity": 110,
      "chip": "ym2612"
    },
    {
      "channel": 2,
      "note": 61,
      "start": 12.8475,
      "duration": 0.0183,
      "velocity": 100,
      "chip": "ym2612"
    },
    {
      "channel": 1,
      "note": 76,
      "start": 12.8486,
      "duration": 0.0183,
      "velocity": 110,
      "chip": "ym2612"
    },
    {
      "channel": 0,
      "note": 84,
      "start": 12.8608,
      "duration": 0.0143,
      "velocity": 127,
      "chip": "ym2612"
    },
    {
      "channel": 3,
      "note": 73,
      "start": 12.8644,
      "duration": 0.0143,
      "velocity": 110,
      "chip": "ym2612"
    },
    {
      "channel": 2,
      "note": 73,
      "start": 12.8658,
      "duration": 0.014,
      "velocity": 100,
      "chip": "ym2612"
    },
    {
      "channel": 1,
      "note": 76,
      "start": 12.867,
      "duration": 0.014,
      "velocity": 110,
      "chip": "ym2612"
    },
    {
      "channel": 0,
      "note": 82,
      "start": 12.8751,
      "duration": 0.016,
      "velocity": 127,
      "chip": "ym2612"
    },
    {
      "channel": 2,
      "note": 73,
      "start": 12.8798,
      "duration": 0.016,
      "velocity": 100,
      "chip": "ym2612"
    },
    {
      "channel": 0,
      "note": 81,
      "start": 12.8911,
      "duration": 0.0161,
      "velocity": 127,
      "chip": "ym2612"
    },
    {
      "channel": 2,
      "note": 73,
      "start": 12.8959,
      "duration": 0.016,
      "velocity": 100,
      "chip": "ym2612"
    },
    {
      "channel": 0,
      "note": 79,
      "start": 12.9072,
      "duration": 0.0161,
      "velocity": 127,
      "chip": "ym2612"
    },
    {
      "channel": 2,
      "note": 73,
      "start": 12.9119,
      "duration": 0.0161,
      "velocity": 100,
      "chip": "ym2612"
    },
    {
      "channel": 0,
      "note": 77,
      "start": 12.9233,
      "duration": 0.0161,
      "velocity": 127,
      "chip": "ym2612"
    },
    {
      "channel": 2,
      "note": 73,
      "start": 12.928,
      "duration": 0.0161,
      "velocity": 100,
      "chip": "ym2612"
    },
    {
      "channel": 0,
      "note": 76,
      "start": 12.9394,
      "duration": 0.0161,
      "velocity": 127,
      "chip": "ym2612"
    },
    {
      "channel": 2,
      "note": 73,
      "start": 12.9441,
      "duration": 0.0161,
      "velocity": 100,
      "chip": "ym2612"
    },
    {
      "channel": 0,
      "note": 74,
      "start": 12.9555,
      "duration": 0.018,
      "velocity": 127,
      "chip": "ym2612"
    },
    {
      "channel": 2,
      "note": 73,
      "start": 12.9602,
      "duration": 0.0186,
      "velocity": 100,
      "chip": "ym2612"
    },
    {
      "channel": 0,
      "note": 78,
      "start": 12.9735,
      "duration": 0.0143,
      "velocity": 127,
      "chip": "ym2612"
    },
    {
      "channel": 3,
      "note": 76,
      "start": 12.9774,
      "duration": 0.014,
      "velocity": 110,
      "chip": "ym2612"
    },
    {
      "channel": 2,
      "note": 56,
      "start": 12.9788,
      "duration": 0.0138,
      "velocity": 100,
      "chip": "ym2612"
    },
    {
      "channel": 1,
      "note": 73,
      "start": 12.9803,
      "duration": 0.0135,
      "velocity": 110,
      "chip": "ym2612"
    },
    {
      "channel": 0,
      "note": 76,
      "start": 12.9878,
      "duration": 0.0161,
      "velocity": 127,
      "chip": "ym2612"
    },
    {
      "channel": 3,
      "note": 76,
      "start": 12.9914,
      "duration": 0.016,
      "velocity": 110,
      "chip": "ym2612"
    },
    {
      "channel": 2,
      "note": 56,
      "start": 12.9926,
      "duration": 0.016,
      "velocity": 100,
      "chip": "ym2612"
    },
    {
      "channel": 1,
      "note": 73,
      "start": 12.9938,
      "duration": 0.0159,
      "velocity": 110,
      "chip": "ym2612"
    },
    {
      "channel": 0,
      "note": 75,
      "start": 13.0039,
      "duration": 0.0163,
      "velocity": 127,
      "chip": "ym2612"
    },
    {
      "channel": 3,
      "note": 76,
      "start": 13.0074,
      "duration": 0.0164,
      "velocity": 110,
      "chip": "ym2612"
    },
    {
      "channel": 2,
      "note": 56,
      "start": 13.0086,
      "duration": 0.0164,
      "velocity": 100,
      "chip": "ym2612"
    },
    {
      "channel": 1,
      "note": 73,
      "start": 13.0097,
      "duration": 0.0164,
      "velocity": 110,
      "chip": "ym2612"
    },
    {
      "channel": 0,
      "note": 73,
      "start": 13.0202,
      "duration": 0.0163,
      "velocity": 127,
      "chip": "ym2612"
    },
    {
      "channel": 3,
      "note": 76,
      "start": 13.0238,
      "duration": 0.0163,
      "velocity": 110,
      "chip": "ym2612"
    },
    {
      "channel": 2,
      "note": 56,
      "start": 13.025,
      "duration": 0.0163,
      "velocity": 100,
      "chip": "ym2612"
    },
    {
      "channel": 1,
      "note": 73,
      "start": 13.0261,
      "duration": 0.0163,
      "velocity": 110,
      "chip": "ym2612"
    },
    {
      "channel": 0,
      "note": 71,
      "start": 13.0366,
      "duration": 0.0161,
      "velocity": 127,
      "chip": "ym2612"
    },
    {
      "channel": 3,
      "note": 76,
      "start": 13.0401,
      "duration": 0.0161,
      "velocity": 110,
      "chip": "ym2612"
    },
    {
      "channel": 2,
      "note": 56,
      "start": 13.0413,
      "duration": 0.0161,
      "velocity": 100,
      "chip": "ym2612"
    },
    {
      "channel": 1,
      "note": 73,
      "start": 13.0424,
      "duration": 0.0162,
      "velocity": 110,
      "chip": "ym2612"
    },
    {
      "channel": 0,
      "note": 70,
      "start": 13.0527,
      "duration": 0.0179,
      "velocity": 115,
      "chip": "ym2612"
    },
    {
      "channel": 3,
      "note": 76,
      "start": 13.0562,
      "duration": 0.018,
      "velocity": 110,
      "chip": "ym2612"
    },
    {
      "channel": 2,
      "note": 56,
      "start": 13.0574,
      "duration": 0.018,
      "velocity": 100,
      "chip": "ym2612"
    },
    {
      "channel": 1,
      "note": 73,
      "start": 13.0586,
      "duration": 0.0179,
      "velocity": 110,
      "chip": "ym2612"
    },
    {
      "channel": 0,
      "note": 36,
      "start": 13.0707,
      "duration": 0.0142,
      "velocity": 115,
      "chip": "ym2612"
    },
    {
      "channel": 3,
      "note": 76,
      "start": 13.0742,
      "duration": 0.0143,
      "velocity": 110,
      "chip": "ym2612"
    },
    {
      "channel": 2,
      "note": 56,
      "start": 13.0754,
      "duration": 0.0143,
      "velocity": 100,
      "chip": "ym2612"
    },
    {
      "channel": 1,
      "note": 73,
      "start": 13.0765,
      "duration": 0.0144,
      "velocity": 110,
      "chip": "ym2612"
    },
    {
      "channel": 0,
      "note": 36,
      "start": 13.0849,
      "duration": 0.0155,
      "velocity": 115,
      "chip": "ym2612"
    },
    {
      "channel": 2,
      "note": 56,
      "start": 13.0897,
      "duration": 0.016,
      "velocity": 100,
      "chip": "ym2612"
    },
    {
      "channel": 0,
      "note": 37,
      "start": 13.1004,
      "duration": 0.0162,
      "velocity": 115,
      "chip": "ym2612"
    },
    {
      "channel": 2,
      "note": 56,
      "start": 13.1057,
      "duration": 0.0161,
      "velocity": 100,
      "chip": "ym2612"
    },
    {
      "channel": 0,
      "note": 37,
      "start": 13.1165,
      "duration": 0.0161,
      "velocity": 115,
      "chip": "ym2612"
    },
    {
      "channel": 2,
      "note": 56,
      "start": 13.1218,
      "duration": 0.0161,
      "velocity": 100,
      "chip": "ym2612"
    },
    {
      "channel": 0,
      "note": 38,
      "start": 13.1326,
      "duration": 0.0161,
      "velocity": 115,
      "chip": "ym2612"
    },
    {
      "channel": 2,
      "note": 56,
      "start": 13.1379,
      "duration": 0.0162,
      "velocity": 100,
      "chip": "ym2612"
    },
    {
      "channel": 0,
      "note": 38,
      "start": 13.1487,
      "duration": 0.0161,
      "velocity": 115,
      "chip": "ym2612"
    },
    {
      "channel": 2,
      "note": 56,
      "start": 13.1541,
      "duration": 0.016,
      "velocity": 100,
      "chip": "ym2612"
    },
    {
      "channel": 0,
      "note": 39,
      "start": 13.1648,
      "duration": 0.0179,
      "velocity": 124,
      "chip": "ym2612"
    },
    {
      "channel": 2,
      "note": 56,
      "start": 13.1701,
      "duration": 0.0186,
      "velocity": 100,
      "chip": "ym2612"
    },
    {
      "channel": 0,
      "note": 84,
      "start": 13.1827,
      "duration": 0.0143,
      "velocity": 124,
      "chip": "ym2612"
    },
    {
      "channel": 3,
      "note": 73,
      "start": 13.1873,
      "duration": 0.0136,
      "velocity": 110,
      "chip": "ym2612"
    },
    {
      "channel": 2,
      "note": 55,
      "start": 13.1887,
      "duration": 0.0138,
      "velocity": 100,
      "chip": "ym2612"
    },
    {
      "channel": 1,
      "note": 76,
      "start": 13.1903,
      "duration": 0.0134,
      "velocity": 110,
      "chip": "ym2612"
    },
    {
      "channel": 0,
      "note": 82,
      "start": 13.1971,
      "duration": 0.016,
      "velocity": 124,
      "chip": "ym2612"
    },
    {
      "channel": 3,
      "note": 73,
      "start": 13.2009,
      "duration": 0.0157,
      "velocity": 110,
      "chip": "ym2612"
    },
    {
      "channel": 2,
      "note": 55,
      "start": 13.2025,
      "duration": 0.0158,
      "velocity": 100,
      "chip": "ym2612"
    },
    {
      "channel": 1,
      "note": 76,
      "start": 13.2037,
      "duration": 0.0158,
      "velocity": 110,
      "chip": "ym2612"
    },
    {
      "channel": 0,
      "note": 80,
      "start": 13.2131,
      "duration": 0.0161,
      "velocity": 124,
      "chip": "ym2612"
    },
    {
      "channel": 3,
      "note": 73,
      "start": 13.2166,
      "duration": 0.0161,
      "velocity": 110,
      "chip": "ym2612"
    },
    {
      "channel": 2,
      "note": 55,
      "start": 13.2184,
      "duration": 0.0158,
      "velocity": 100,
      "chip": "ym2612"
    },
    {
      "channel": 1,
      "note": 76,
      "start": 13.2196,
      "duration": 0.0161,
      "velocity": 110,
      "chip": "ym2612"
    },
    {
      "channel": 0,
      "note": 77,
      "start": 13.2292,
      "duration": 0.0162,
      "velocity": 124,
      "chip": "ym2612"
    },
    {
      "channel": 3,
      "note": 73,
      "start": 13.2327,
      "duration": 0.0161,
      "velocity": 110,
      "chip": "ym2612"
    },
    {
      "channel": 2,
      "note": 55,
      "start": 13.2341,
      "duration": 0.0158,
      "velocity": 100,
      "chip": "ym2612"
    },
    {
      "channel": 1,
      "note": 76,
      "start": 13.2357,
      "duration": 0.016,
      "velocity": 110,
      "chip": "ym2612"
    },
    {
      "channel": 0,
      "note": 75,
      "start": 13.2454,
      "duration": 0.0161,
      "velocity": 124,
      "chip": "ym2612"
    },
    {
      "channel": 3,
      "note": 73,
      "start": 13.2488,
      "duration": 0.0161,
      "velocity": 110,
      "chip": "ym2612"
    },
    {
      "channel": 2,
      "note": 55,
      "start": 13.25,
      "duration": 0.0162,
      "velocity": 100,
      "chip": "ym2612"
    },
    {
      "channel": 1,
      "note": 76,
      "start": 13.2517,
      "duration": 0.0158,
      "velocity": 110,
      "chip": "ym2612"
    },
    {
      "channel": 0,
      "note": 72,
      "start": 13.2614,
      "duration": 0.0179,
      "velocity": 124,
      "chip": "ym2612"
    },
    {
      "channel": 3,
      "note": 73,
      "start": 13.265,
      "duration": 0.018,
      "velocity": 110,
      "chip": "ym2612"
    },
    {
      "channel": 2,
      "note": 55,
      "start": 13.2661,
      "duration": 0.0182,
      "velocity": 100,
      "chip": "ym2612"
    },
    {
      "channel": 1,
      "note": 76,
      "start": 13.2675,
      "duration": 0.0184,
      "velocity": 110,
      "chip": "ym2612"
    },
    {
      "channel": 0,
      "note": 84,
      "start": 13.2794,
      "duration": 0.0143,
      "velocity": 124,
      "chip": "ym2612"
    },
    {
      "channel": 3,
      "note": 73,
      "start": 13.2829,
      "duration": 0.0143,
      "velocity": 110,
      "chip": "ym2612"
    },
    {
      "channel": 2,
      "note": 55,
      "start": 13.2843,
      "duration": 0.0141,
      "velocity": 100,
      "chip": "ym2612"
    },
    {
      "channel": 1,
      "note": 76,
      "start": 13.2859,
      "duration": 0.0137,
      "velocity": 110,
      "chip": "ym2612"
    },
    {
      "channel": 0,
      "note": 82,
      "start": 13.2937,
      "duration": 0.016,
      "velocity": 124,
      "chip": "ym2612"
    },
    {
      "channel": 2,
      "note": 55,
      "start": 13.2984,
      "duration": 0.016,
      "velocity": 100,
      "chip": "ym2612"
    },
    {
      "channel": 0,
      "note": 80,
      "start": 13.3097,
      "duration": 0.0161,
      "velocity": 124,
      "chip": "ym2612"
    },
    {
      "channel": 2,
      "note": 55,
      "start": 13.3144,
      "duration": 0.0161,
      "velocity": 100,
      "chip": "ym2612"
    },
    {
      "channel": 0,
      "note": 77,
      "start": 13.3258,
      "duration": 0.0161,
      "velocity": 124,
      "chip": "ym2612"
    },
    {
      "channel": 2,
      "note": 55,
      "start": 13.3305,
      "duration": 0.0161,
      "velocity": 100,
      "chip": "ym2612"
    },
    {
      "channel": 0,
      "note": 75,
      "start": 13.3419,
      "duration": 0.0161,
      "velocity": 124,
      "chip": "ym2612"
    },
    {
      "channel": 2,
      "note": 55,
      "start": 13.3466,
      "duration": 0.0161,
      "velocity": 100,
      "chip": "ym2612"
    },
    {
      "channel": 0,
      "note": 72,
      "start": 13.358,
      "duration": 0.0161,
      "velocity": 124,
      "chip": "ym2612"
    },
    {
      "channel": 2,
      "note": 55,
      "start": 13.3627,
      "duration": 0.0161,
      "velocity": 100,
      "chip": "ym2612"
    },
    {
      "channel": 0,
      "note": 70,
      "start": 13.3741,
      "duration": 0.0179,
      "velocity": 115,
      "chip": "ym2612"
    },
    {
      "channel": 2,
      "note": 55,
      "start": 13.3788,
      "duration": 0.019,
      "velocity": 100,
      "chip": "ym2612"
    },
    {
      "channel": 0,
      "note": 36,
      "start": 13.3921,
      "duration": 0.0143,
      "velocity": 115,
      "chip": "ym2612"
    },
    {
      "channel": 3,
      "note": 76,
      "start": 13.3963,
      "duration": 0.0138,
      "velocity": 110,
      "chip": "ym2612"
    },
    {
      "channel": 2,
      "note": 54,
      "start": 13.3978,
      "duration": 0.0135,
      "velocity": 100,
      "chip": "ym2612"
    },
    {
      "channel": 1,
      "note": 73,
      "start": 13.3993,
      "duration": 0.0133,
      "velocity": 110,
      "chip": "ym2612"
    },
    {
      "channel": 0,
      "note": 36,
      "start": 13.4064,
      "duration": 0.016,
      "velocity": 115,
      "chip": "ym2612"
    },
    {
      "channel": 3,
      "note": 76,
      "start": 13.4102,
      "duration": 0.0158,
      "velocity": 110,
      "chip": "ym2612"
    },
    {
      "channel": 2,
      "note": 54,
      "start": 13.4114,
      "duration": 0.0157,
      "velocity": 100,
      "chip": "ym2612"
    },
    {
      "channel": 1,
      "note": 73,
      "start": 13.4127,
      "duration": 0.0156,
      "velocity": 110,
      "chip": "ym2612"
    },
    {
      "channel": 0,
      "note": 37,
      "start": 13.4224,
      "duration": 0.0161,
      "velocity": 115,
      "chip": "ym2612"
    },
    {
      "channel": 3,
      "note": 76,
      "start": 13.4259,
      "duration": 0.0161,
      "velocity": 110,
      "chip": "ym2612"
    },
    {
      "channel": 2,
      "note": 54,
      "start": 13.4271,
      "duration": 0.0162,
      "velocity": 100,
      "chip": "ym2612"
    },
    {
      "channel": 1,
      "note": 73,
      "start": 13.4283,
      "duration": 0.0161,
      "velocity": 110,
      "chip": "ym2612"
    },
    {
      "channel": 0,
      "note": 37,
      "start": 13.4385,
      "duration": 0.0161,
      "velocity": 115,
      "chip": "ym2612"
    },
    {
      "channel": 3,
      "note": 76,
      "start": 13.4421,
      "duration": 0.0161,
      "velocity": 110,
      "chip": "ym2612"
    },
    {
      "channel": 2,
      "note": 54,
      "start": 13.4432,
      "duration": 0.0161,
      "velocity": 100,
      "chip": "ym2612"
    },
    {
      "channel": 1,
      "note": 73,
      "start": 13.4444,
      "duration": 0.0161,
      "velocity": 110,
      "chip": "ym2612"
    },
    {
      "channel": 0,
      "note": 38,
      "start": 13.4546,
      "duration": 0.0162,
      "velocity": 115,
      "chip": "ym2612"
    },
    {
      "channel": 3,
      "note": 76,
      "start": 13.4582,
      "duration": 0.0162,
      "velocity": 110,
      "chip": "ym2612"
    },
    {
      "channel": 2,
      "note": 54,
      "start": 13.4593,
      "duration": 0.0161,
      "velocity": 100,
      "chip": "ym2612"
    },
    {
      "channel": 1,
      "note": 73,
      "start": 13.4605,
      "duration": 0.0162,
      "velocity": 110,
      "chip": "ym2612"
    },
    {
      "channel": 0,
      "note": 38,
      "start": 13.4708,
      "duration": 0.0161,
      "velocity": 115,
      "chip": "ym2612"
    },
    {
      "channel": 3,
      "note": 76,
      "start": 13.4744,
      "duration": 0.0161,
      "velocity": 110,
      "chip": "ym2612"
    },
    {
      "channel": 2,
      "note": 54,
      "start": 13.4755,
      "duration": 0.0161,
      "velocity": 100,
      "chip": "ym2612"
    },
    {
      "channel": 1,
      "note": 73,
      "start": 13.4766,
      "duration": 0.0161,
      "velocity": 110,
      "chip": "ym2612"
    },
    {
      "channel": 0,
      "note": 39,
      "start": 13.4869,
      "duration": 0.0164,
      "velocity": 115,
      "chip": "ym2612"
    },
    {
      "channel": 3,
      "note": 76,
      "start": 13.4905,
      "duration": 0.0164,
      "velocity": 110,
      "chip": "ym2612"
    },
    {
      "channel": 2,
      "note": 54,
      "start": 13.4916,
      "duration": 0.0165,
      "velocity": 100,
      "chip": "ym2612"
    },
    {
      "channel": 1,
      "note": 73,
      "start": 13.4928,
      "duration": 0.0164,
      "velocity": 110,
      "chip": "ym2612"
    },
    {
      "channel": 0,
      "note": 39,
      "start": 13.5033,
      "duration": 0.0163,
      "velocity": 115,
      "chip": "ym2612"
    },
    {
      "channel": 2,
      "note": 54,
      "start": 13.5081,
      "duration": 0.0163,
      "velocity": 100,
      "chip": "ym2612"
    },
    {
      "channel": 0,
      "note": 40,
      "start": 13.5196,
      "duration": 0.016,
      "velocity": 115,
      "chip": "ym2612"
    },
    {
      "channel": 2,
      "note": 54,
      "start": 13.5244,
      "duration": 0.0161,
      "velocity": 100,
      "chip": "ym2612"
    },
    {
      "channel": 0,
      "note": 40,
      "start": 13.5357,
      "duration": 0.0161,
      "velocity": 115,
      "chip": "ym2612"
    },
    {
      "channel": 2,
      "note": 54,
      "start": 13.5405,
      "duration": 0.016,
      "velocity": 100,
      "chip": "ym2612"
    },
    {
      "channel": 0,
      "note": 40,
      "start": 13.5518,
      "duration": 0.0158,
      "velocity": 115,
      "chip": "ym2612"
    },
    {
      "channel": 2,
      "note": 54,
      "start": 13.5565,
      "duration": 0.0161,
      "velocity": 100,
      "chip": "ym2612"
    },
    {
      "channel": 0,
      "note": 41,
      "start": 13.5676,
      "duration": 0.0159,
      "velocity": 115,
      "chip": "ym2612"
    },
    {
      "channel": 2,
      "note": 54,
      "start": 13.5726,
      "duration": 0.0161,
      "velocity": 100,
      "chip": "ym2612"
    },
    {
      "channel": 0,
      "note": 41,
      "start": 13.5834,
      "duration": 0.0161,
      "velocity": 115,
      "chip": "ym2612"
    },
    {
      "channel": 2,
      "note": 54,
      "start": 13.5887,
      "duration": 0.0199,
      "velocity": 100,
      "chip": "ym2612"
    },
    {
      "channel": 0,
      "note": 42,
      "start": 13.5995,
      "duration": 0.0161,
      "velocity": 115,
      "chip": "ym2612"
    },
    {
      "channel": 5,
      "note": 76,
      "start": 13.6031,
      "duration": 0.0137,
      "velocity": 110,
      "chip": "ym2612"
    },
    {
      "channel": 4,
      "note": 78,
      "start": 13.606,
      "duration": 0.0126,
      "velocity": 110,
      "chip": "ym2612"
    },
    {
      "channel": 2,
      "note": 54,
      "start": 13.6086,
      "duration": 0.0125,
      "velocity": 100,
      "chip": "ym2612"
    },
    {
      "channel": 0,
      "note": 42,
      "start": 13.6156,
      "duration": 0.0161,
      "velocity": 115,
      "chip": "ym2612"
    },
    {
      "channel": 5,
      "note": 76,
      "start": 13.6168,
      "duration": 0.0161,
      "velocity": 110,
      "chip": "ym2612"
    },
    {
      "channel": 4,
      "note": 78,
      "start": 13.6186,
      "duration": 0.0157,
      "velocity": 110,
      "chip": "ym2612"
    },
    {
      "channel": 2,
      "note": 54,
      "start": 13.6211,
      "duration": 0.016,
      "velocity": 100,
      "chip": "ym2612"
    },
    {
      "channel": 0,
      "note": 43,
      "start": 13.6317,
      "duration": 0.0161,
      "velocity": 115,
      "chip": "ym2612"
    },
    {
      "channel": 5,
      "note": 76,
      "start": 13.6329,
      "duration": 0.0161,
      "velocity": 110,
      "chip": "ym2612"
    },
    {
      "channel": 4,
      "note": 78,
      "start": 13.6343,
      "duration": 0.0159,
      "velocity": 110,
      "chip": "ym2612"
    },
    {
      "channel": 2,
      "note": 54,
      "start": 13.6371,
      "duration": 0.0161,
      "velocity": 100,
      "chip": "ym2612"
    },
    {
      "channel": 0,
      "note": 43,
      "start": 13.6478,
      "duration": 0.0161,
      "velocity": 115,
      "chip": "ym2612"
    },
    {
      "channel": 2,
      "note": 54,
      "start": 13.6532,
      "duration": 0.016,
      "velocity": 100,
      "chip": "ym2612"
    },
    {
      "channel": 0,
      "note": 44,
      "start": 13.6639,
      "duration": 0.0161,
      "velocity": 115,
      "chip": "ym2612"
    },
    {
      "channel": 2,
      "note": 54,
      "start": 13.6693,
      "duration": 0.0161,
      "velocity": 100,
      "chip": "ym2612"
    },
    {
      "channel": 0,
      "note": 44,
      "start": 13.68,
      "duration": 0.018,
      "velocity": 115,
      "chip": "ym2612"
    },
    {
      "channel": 2,
      "note": 54,
      "start": 13.6854,
      "duration": 0.0189,
      "velocity": 100,
      "chip": "ym2612"
    },
    {
      "channel": 0,
      "note": 36,
      "start": 13.698,
      "duration": 0.0143,
      "velocity": 115,
      "chip": "ym2612"
    },
    {
      "channel": 5,
      "note": 76,
      "start": 13.6995,
      "duration": 0.0141,
      "velocity": 110,
      "chip": "ym2612"
    },
    {
      "channel": 4,
      "note": 78,
      "start": 13.7015,
      "duration": 0.0134,
      "velocity": 110,
      "chip": "ym2612"
    },
    {
      "channel": 2,
      "note": 54,
      "start": 13.7043,
      "duration": 0.0132,
      "velocity": 100,
      "chip": "ym2612"
    },
    {
      "channel": 0,
      "note": 36,
      "start": 13.7123,
      "duration": 0.016,
      "velocity": 115,
      "chip": "ym2612"
    },
    {
      "channel": 5,
      "note": 76,
      "start": 13.7135,
      "duration": 0.016,
      "velocity": 110,
      "chip": "ym2612"
    },
    {
      "channel": 4,
      "note": 78,
      "start": 13.7148,
      "duration": 0.0159,
      "velocity": 110,
      "chip": "ym2612"
    },
    {
      "channel": 2,
      "note": 54,
      "start": 13.7175,
      "duration": 0.0156,
      "velocity": 100,
      "chip": "ym2612"
    },
    {
      "channel": 0,
      "note": 37,
      "start": 13.7284,
      "duration": 0.0161,
      "velocity": 115,
      "chip": "ym2612"
    },
    {
      "channel": 5,
      "note": 76,
      "start": 13.7295,
      "duration": 0.0161,
      "velocity": 110,
      "chip": "ym2612"
    },
    {
      "channel": 4,
      "note": 78,
      "start": 13.7307,
      "duration": 0.0161,
      "velocity": 110,
      "chip": "ym2612"
    },
    {
      "channel": 2,
      "note": 54,
      "start": 13.7331,
      "duration": 0.0161,
      "velocity": 100,
      "chip": "ym2612"
    },
    {
      "channel": 0,
      "note": 37,
      "start": 13.7444,
      "duration": 0.0161,
      "velocity": 115,
      "chip": "ym2612"
    },
    {
      "channel": 5,
      "note": 76,
      "start": 13.7456,
      "duration": 0.0161,
      "velocity": 110,
      "chip": "ym2612"
    },
    {
      "channel": 4,
      "note": 78,
      "start": 13.7468,
      "duration": 0.0161,
      "velocity": 110,
      "chip": "ym2612"
    },
    {
      "channel": 2,
      "note": 54,
      "start": 13.7492,
      "duration": 0.0161,
      "velocity": 100,
      "chip": "ym2612"
    },
    {
      "channel": 0,
      "note": 38,
      "start": 13.7605,
      "duration": 0.0161,
      "velocity": 115,
      "chip": "ym2612"
    },
    {
      "channel": 2,
      "note": 54,
      "start": 13.7654,
      "duration": 0.016,
      "velocity": 100,
      "chip": "ym2612"
    },
    {
      "channel": 0,
      "note": 38,
      "start": 13.7766,
      "duration": 0.0161,
      "velocity": 115,
      "chip": "ym2612"
    },
    {
      "channel": 2,
      "note": 54,
      "start": 13.7814,
      "duration": 0.0161,
      "velocity": 100,
      "chip": "ym2612"
    },
    {
      "channel": 0,
      "note": 39,
      "start": 13.7927,
      "duration": 0.0179,
      "velocity": 124,
      "chip": "ym2612"
    },
    {
      "channel": 2,
      "note": 54,
      "start": 13.7975,
      "duration": 0.0188,
      "velocity": 100,
      "chip": "ym2612"
    },
    {
      "channel": 0,
      "note": 84,
      "start": 13.8107,
      "duration": 0.0143,
      "velocity": 124,
      "chip": "ym2612"
    },
    {
      "channel": 5,
      "note": 78,
      "start": 13.8122,
      "duration": 0.0141,
      "velocity": 110,
      "chip": "ym2612"
    },
    {
      "channel": 4,
      "note": 76,
      "start": 13.8137,
      "duration": 0.0137,
      "velocity": 110,
      "chip": "ym2612"
    },
    {
      "channel": 2,
      "note": 54,
      "start": 13.8163,
      "duration": 0.0137,
      "velocity": 100,
      "chip": "ym2612"
    },
    {
      "channel": 0,
      "note": 82,
      "start": 13.825,
      "duration": 0.0161,
      "velocity": 124,
      "chip": "ym2612"
    },
    {
      "channel": 5,
      "note": 78,
      "start": 13.8263,
      "duration": 0.016,
      "velocity": 110,
      "chip": "ym2612"
    },
    {
      "channel": 4,
      "note": 76,
      "start": 13.8275,
      "duration": 0.0159,
      "velocity": 110,
      "chip": "ym2612"
    },
    {
      "channel": 2,
      "note": 54,
      "start": 13.83,
      "duration": 0.016,
      "velocity": 100,
      "chip": "ym2612"
    },
    {
      "channel": 0,
      "note": 80,
      "start": 13.8411,
      "duration": 0.0161,
      "velocity": 124,
      "chip": "ym2612"
    },
    {
      "channel": 5,
      "note": 78,
      "start": 13.8422,
      "duration": 0.0161,
      "velocity": 110,
      "chip": "ym2612"
    },
    {
      "channel": 4,
      "note": 76,
      "start": 13.8434,
      "duration": 0.0161,
      "velocity": 110,
      "chip": "ym2612"
    },
    {
      "channel": 2,
      "note": 54,
      "start": 13.8459,
      "duration": 0.0161,
      "velocity": 100,
      "chip": "ym2612"
    },
    {
      "channel": 0,
      "note": 77,
      "start": 13.8572,
      "duration": 0.0161,
      "velocity": 124,
      "chip": "ym2612"
    },
    {
      "channel": 2,
      "note": 54,
      "start": 13.862,
      "duration": 0.016,
      "velocity": 100,
      "chip": "ym2612"
    },
    {
      "channel": 0,
      "note": 75,
      "start": 13.8733,
      "duration": 0.0161,
      "velocity": 124,
      "chip": "ym2612"
    },
    {
      "channel": 2,
      "note": 54,
      "start": 13.878,
      "duration": 0.0161,
      "velocity": 100,
      "chip": "ym2612"
    },
    {
      "channel": 0,
      "note": 72,
      "start": 13.8894,
      "duration": 0.0161,
      "velocity": 124,
      "chip": "ym2612"
    },
    {
      "channel": 2,
      "note": 54,
      "start": 13.8941,
      "duration": 0.0169,
      "velocity": 100,
      "chip": "ym2612"
    },
    {
      "channel": 0,
      "note": 70,
      "start": 13.9055,
      "duration": 0.0161,
      "velocity": 124,
      "chip": "ym2612"
    },
    {
      "channel": 5,
      "note": 78,
      "start": 13.9069,
      "duration": 0.0159,
      "velocity": 110,
      "chip": "ym2612"
    },
    {
      "channel": 4,
      "note": 76,
      "start": 13.9084,
      "duration": 0.0156,
      "velocity": 110,
      "chip": "ym2612"
    },
    {
      "channel": 2,
      "note": 54,
      "start": 13.911,
      "duration": 0.0155,
      "velocity": 100,
      "chip": "ym2612"
    },
    {
      "channel": 0,
      "note": 68,
      "start": 13.9215,
      "duration": 0.0162,
      "velocity": 124,
      "chip": "ym2612"
    },
    {
      "channel": 5,
      "note": 78,
      "start": 13.9228,
      "duration": 0.0161,
      "velocity": 110,
      "chip": "ym2612"
    },
    {
      "channel": 4,
      "note": 76,
      "start": 13.924,
      "duration": 0.016,
      "velocity": 110,
      "chip": "ym2612"
    },
    {
      "channel": 2,
      "note": 54,
      "start": 13.9265,
      "duration": 0.0161,
      "velocity": 100,
      "chip": "ym2612"
    },
    {
      "channel": 0,
      "note": 65,
      "start": 13.9377,
      "duration": 0.0161,
      "velocity": 124,
      "chip": "ym2612"
    },
    {
      "channel": 5,
      "note": 78,
      "start": 13.9389,
      "duration": 0.0161,
      "velocity": 110,
      "chip": "ym2612"
    },
    {
      "channel": 4,
      "note": 76,
      "start": 13.9401,
      "duration": 0.0161,
      "velocity": 110,
      "chip": "ym2612"
    },
    {
      "channel": 2,
      "note": 54,
      "start": 13.9426,
      "duration": 0.0161,
      "velocity": 100,
      "chip": "ym2612"
    },
    {
      "channel": 0,
      "note": 63,
      "start": 13.9538,
      "duration": 0.0154,
      "velocity": 1,
      "chip": "ym2612"
    },
    {
      "channel": 5,
      "note": 78,
      "start": 13.955,
      "duration": 0.0154,
      "velocity": 110,
      "chip": "ym2612"
    },
    {
      "channel": 4,
      "note": 76,
      "start": 13.9561,
      "duration": 0.0155,
      "velocity": 110,
      "chip": "ym2612"
    },
    {
      "channel": 2,
      "note": 54,
      "start": 13.9587,
      "duration": 0.0154,
      "velocity": 100,
      "chip": "ym2612"
    },
    {
      "channel": 2,
      "note": 54,
      "start": 13.9741,
      "duration": 0.0155,
      "velocity": 100,
      "chip": "ym2612"
    },
    {
      "channel": 2,
      "note": 54,
      "start": 13.9896,
      "duration": 0.0162,
      "velocity": 100,
      "chip": "ym2612"
    },
    {
      "channel": 2,
      "note": 54,
      "start": 14.0058,
      "duration": 0.0206,
      "velocity": 100,
      "chip": "ym2612"
    },
    {
      "channel": 0,
      "note": 36,
      "start": 14.0206,
      "duration": 0.0143,
      "velocity": 115,
      "chip": "ym2612"
    },
    {
      "channel": 5,
      "note": 76,
      "start": 14.0222,
      "duration": 0.014,
      "velocity": 110,
      "chip": "ym2612"
    },
    {
      "channel": 4,
      "note": 78,
      "start": 14.0237,
      "duration": 0.0137,
      "velocity": 110,
      "chip": "ym2612"
    },
    {
      "channel": 2,
      "note": 49,
      "start": 14.0264,
      "duration": 0.0134,
      "velocity": 100,
      "chip": "ym2612"
    },
    {
      "channel": 0,
      "note": 36,
      "start": 14.0349,
      "duration": 0.0155,
      "velocity": 115,
      "chip": "ym2612"
    },
    {
      "channel": 5,
      "note": 76,
      "start": 14.0362,
      "duration": 0.016,
      "velocity": 110,
      "chip": "ym2612"
    },
    {
      "channel": 4,
      "note": 78,
      "start": 14.0374,
      "duration": 0.0159,
      "velocity": 110,
      "chip": "ym2612"
    },
    {
      "channel": 2,
      "note": 49,
      "start": 14.0399,
      "duration": 0.0159,
      "velocity": 100,
      "chip": "ym2612"
    },
    {
      "channel": 0,
      "note": 37,
      "start": 14.0504,
      "duration": 0.0161,
      "velocity": 115,
      "chip": "ym2612"
    },
    {
      "channel": 5,
      "note": 76,
      "start": 14.0522,
      "duration": 0.016,
      "velocity": 110,
      "chip": "ym2612"
    },
    {
      "channel": 4,
      "note": 78,
      "start": 14.0533,
      "duration": 0.0161,
      "velocity": 110,
      "chip": "ym2612"
    },
    {
      "channel": 2,
      "note": 49,
      "start": 14.0557,
      "duration": 0.0161,
      "velocity": 100,
      "chip": "ym2612"
    },
    {
      "channel": 0,
      "note": 37,
      "start": 14.0665,
      "duration": 0.0161,
      "velocity": 115,
      "chip": "ym2612"
    },
    {
      "channel": 5,
      "note": 76,
      "start": 14.0682,
      "duration": 0.0156,
      "velocity": 110,
      "chip": "ym2612"
    },
    {
      "channel": 4,
      "note": 78,
      "start": 14.0694,
      "duration": 0.0161,
      "velocity": 110,
      "chip": "ym2612"
    },
    {
      "channel": 2,
      "note": 49,
      "start": 14.0719,
      "duration": 0.0161,
      "velocity": 100,
      "chip": "ym2612"
    },
    {
      "channel": 0,
      "note": 38,
      "start": 14.0826,
      "duration": 0.0161,
      "velocity": 115,
      "chip": "ym2612"
    },
    {
      "channel": 5,
      "note": 76,
      "start": 14.0838,
      "duration": 0.0161,
      "velocity": 110,
      "chip": "ym2612"
    },
    {
      "channel": 4,
      "note": 78,
      "start": 14.0855,
      "duration": 0.0161,
      "velocity": 110,
      "chip": "ym2612"
    },
    {
      "channel": 2,
      "note": 49,
      "start": 14.088,
      "duration": 0.0161,
      "velocity": 100,
      "chip": "ym2612"
    },
    {
      "channel": 0,
      "note": 38,
      "start": 14.0986,
      "duration": 0.018,
      "velocity": 115,
      "chip": "ym2612"
    },
    {
      "channel": 5,
      "note": 76,
      "start": 14.0999,
      "duration": 0.0185,
      "velocity": 110,
      "chip": "ym2612"
    },
    {
      "channel": 4,
      "note": 78,
      "start": 14.1016,
      "duration": 0.018,
      "velocity": 110,
      "chip": "ym2612"
    },
    {
      "channel": 2,
      "note": 49,
      "start": 14.1041,
      "duration": 0.0183,
      "velocity": 100,
      "chip": "ym2612"
    },
    {
      "channel": 0,
      "note": 36,
      "start": 14.1166,
      "duration": 0.0143,
      "velocity": 115,
      "chip": "ym2612"
    },
    {
      "channel": 5,
      "note": 76,
      "start": 14.1184,
      "duration": 0.0137,
      "velocity": 110,
      "chip": "ym2612"
    },
    {
      "channel": 4,
      "note": 78,
      "start": 14.1196,
      "duration": 0.0137,
      "velocity": 110,
      "chip": "ym2612"
    },
    {
      "channel": 2,
      "note": 51,
      "start": 14.1223,
      "duration": 0.0141,
      "velocity": 100,
      "chip": "ym2612"
    },
    {
      "channel": 0,
      "note": 36,
      "start": 14.1309,
      "duration": 0.0161,
      "velocity": 115,
      "chip": "ym2612"
    },
    {
      "channel": 2,
      "note": 51,
      "start": 14.1364,
      "duration": 0.016,
      "velocity": 100,
      "chip": "ym2612"
    },
    {
      "channel": 0,
      "note": 37,
      "start": 14.147,
      "duration": 0.0161,
      "velocity": 115,
      "chip": "ym2612"
    },
    {
      "channel": 2,
      "note": 51,
      "start": 14.1523,
      "duration": 0.016,
      "velocity": 100,
      "chip": "ym2612"
    },
    {
      "channel": 0,
      "note": 37,
      "start": 14.1631,
      "duration": 0.0161,
      "velocity": 115,
      "chip": "ym2612"
    },
    {
      "channel": 2,
      "note": 51,
      "start": 14.1684,
      "duration": 0.0158,
      "velocity": 100,
      "chip": "ym2612"
    },
    {
      "channel": 0,
      "note": 38,
      "start": 14.1792,
      "duration": 0.0161,
      "velocity": 115,
      "chip": "ym2612"
    },
    {
      "channel": 2,
      "note": 51,
      "start": 14.1841,
      "duration": 0.0159,
      "velocity": 100,
      "chip": "ym2612"
    },
    {
      "channel": 0,
      "note": 38,
      "start": 14.1953,
      "duration": 0.0161,
      "velocity": 115,
      "chip": "ym2612"
    },
    {
      "channel": 2,
      "note": 51,
      "start": 14.2,
      "duration": 0.0161,
      "velocity": 100,
      "chip": "ym2612"
    },
    {
      "channel": 0,
      "note": 39,
      "start": 14.2114,
      "duration": 0.018,
      "velocity": 115,
      "chip": "ym2612"
    },
    {
      "channel": 2,
      "note": 51,
      "start": 14.2161,
      "duration": 0.0195,
      "velocity": 100,
      "chip": "ym2612"
    },
    {
      "channel": 0,
      "note": 36,
      "start": 14.2293,
      "duration": 0.0143,
      "velocity": 115,
      "chip": "ym2612"
    },
    {
      "channel": 5,
      "note": 78,
      "start": 14.2308,
      "duration": 0.0141,
      "velocity": 110,
      "chip": "ym2612"
    },
    {
      "channel": 4,
      "note": 76,
      "start": 14.2324,
      "duration": 0.0137,
      "velocity": 110,
      "chip": "ym2612"
    },
    {
      "channel": 2,
      "note": 54,
      "start": 14.2357,
      "duration": 0.013,
      "velocity": 100,
      "chip": "ym2612"
    },
    {
      "channel": 0,
      "note": 36,
      "start": 14.2436,
      "duration": 0.016,
      "velocity": 115,
      "chip": "ym2612"
    },
    {
      "channel": 5,
      "note": 78,
      "start": 14.2449,
      "duration": 0.016,
      "velocity": 110,
      "chip": "ym2612"
    },
    {
      "channel": 4,
      "note": 76,
      "start": 14.2461,
      "duration": 0.0159,
      "velocity": 110,
      "chip": "ym2612"
    },
    {
      "channel": 2,
      "note": 54,
      "start": 14.2486,
      "duration": 0.0158,
      "velocity": 100,
      "chip": "ym2612"
    },
    {
      "channel": 0,
      "note": 37,
      "start": 14.2597,
      "duration": 0.0161,
      "velocity": 115,
      "chip": "ym2612"
    },
    {
      "channel": 5,
      "note": 78,
      "start": 14.2609,
      "duration": 0.0161,
      "velocity": 110,
      "chip": "ym2612"
    },
    {
      "channel": 4,
      "note": 76,
      "start": 14.262,
      "duration": 0.0161,
      "velocity": 110,
      "chip": "ym2612"
    },
    {
      "channel": 2,
      "note": 54,
      "start": 14.2644,
      "duration": 0.0162,
      "velocity": 100,
      "chip": "ym2612"
    },
    {
      "channel": 0,
      "note": 37,
      "start": 14.2757,
      "duration": 0.0161,
      "velocity": 115,
      "chip": "ym2612"
    },
    {
      "channel": 5,
      "note": 78,
      "start": 14.277,
      "duration": 0.0161,
      "velocity": 110,
      "chip": "ym2612"
    },
    {
      "channel": 4,
      "note": 76,
      "start": 14.2781,
      "duration": 0.0161,
      "velocity": 110,
      "chip": "ym2612"
    },
    {
      "channel": 2,
      "note": 54,
      "start": 14.2806,
      "duration": 0.0161,
      "velocity": 100,
      "chip": "ym2612"
    },
    {
      "channel": 0,
      "note": 38,
      "start": 14.2918,
      "duration": 0.0162,
      "velocity": 115,
      "chip": "ym2612"
    },
    {
      "channel": 5,
      "note": 78,
      "start": 14.2931,
      "duration": 0.0161,
      "velocity": 110,
      "chip": "ym2612"
    },
    {
      "channel": 4,
      "note": 76,
      "start": 14.2942,
      "duration": 0.0161,
      "velocity": 110,
      "chip": "ym2612"
    },
    {
      "channel": 2,
      "note": 54,
      "start": 14.2967,
      "duration": 0.0161,
      "velocity": 100,
      "chip": "ym2612"
    },
    {
      "channel": 0,
      "note": 38,
      "start": 14.308,
      "duration": 0.0179,
      "velocity": 127,
      "chip": "ym2612"
    },
    {
      "channel": 5,
      "note": 78,
      "start": 14.3091,
      "duration": 0.0179,
      "velocity": 110,
      "chip": "ym2612"
    },
    {
      "channel": 4,
      "note": 76,
      "start": 14.3103,
      "duration": 0.018,
      "velocity": 110,
      "chip": "ym2612"
    },
    {
      "channel": 2,
      "note": 54,
      "start": 14.3128,
      "duration": 0.0182,
      "velocity": 100,
      "chip": "ym2612"
    },
    {
      "channel": 0,
      "note": 88,
      "start": 14.3259,
      "duration": 0.0143,
      "velocity": 127,
      "chip": "ym2612"
    },
    {
      "channel": 5,
      "note": 78,
      "start": 14.3271,
      "duration": 0.0143,
      "velocity": 110,
      "chip": "ym2612"
    },
    {
      "channel": 4,
      "note": 76,
      "start": 14.3283,
      "duration": 0.0143,
      "velocity": 110,
      "chip": "ym2612"
    },
    {
      "channel": 2,
      "note": 66,
      "start": 14.331,
      "duration": 0.0141,
      "velocity": 100,
      "chip": "ym2612"
    },
    {
      "channel": 0,
      "note": 86,
      "start": 14.3402,
      "duration": 0.016,
      "velocity": 127,
      "chip": "ym2612"
    },
    {
      "channel": 2,
      "note": 66,
      "start": 14.3451,
      "duration": 0.016,
      "velocity": 100,
      "chip": "ym2612"
    },
    {
      "channel": 0,
      "note": 85,
      "start": 14.3563,
      "duration": 0.0161,
      "velocity": 127,
      "chip": "ym2612"
    },
    {
      "channel": 2,
      "note": 66,
      "start": 14.361,
      "duration": 0.0161,
      "velocity": 100,
      "chip": "ym2612"
    },
    {
      "channel": 0,
      "note": 83,
      "start": 14.3724,
      "duration": 0.0161,
      "velocity": 127,
      "chip": "ym2612"
    },
    {
      "channel": 2,
      "note": 66,
      "start": 14.3771,
      "duration": 0.0161,
      "velocity": 100,
      "chip": "ym2612"
    },
    {
      "channel": 0,
      "note": 81,
      "start": 14.3885,
      "duration": 0.0161,
      "velocity": 127,
      "chip": "ym2612"
    },
    {
      "channel": 2,
      "note": 66,
      "start": 14.3932,
      "duration": 0.0161,
      "velocity": 100,
      "chip": "ym2612"
    },
    {
      "channel": 0,
      "note": 80,
      "start": 14.4046,
      "duration": 0.0161,
      "velocity": 127,
      "chip": "ym2612"
    },
    {
      "channel": 2,
      "note": 66,
      "start": 14.4093,
      "duration": 0.0161,
      "velocity": 100,
      "chip": "ym2612"
    },
    {
      "channel": 0,
      "note": 78,
      "start": 14.4207,
      "duration": 0.0162,
      "velocity": 127,
      "chip": "ym2612"
    },
    {
      "channel": 2,
      "note": 66,
      "start": 14.4254,
      "duration": 0.0173,
      "velocity": 100,
      "chip": "ym2612"
    },
    {
      "channel": 0,
      "note": 76,
      "start": 14.4368,
      "duration": 0.0165,
      "velocity": 127,
      "chip": "ym2612"
    },
    {
      "channel": 5,
      "note": 76,
      "start": 14.4384,
      "duration": 0.0161,
      "velocity": 110,
      "chip": "ym2612"
    },
    {
      "channel": 4,
      "note": 78,
      "start": 14.44,
      "duration": 0.0158,
      "velocity": 110,
      "chip": "ym2612"
    },
    {
      "channel": 2,
      "note": 54,
      "start": 14.4427,
      "duration": 0.0155,
      "velocity": 100,
      "chip": "ym2612"
    },
    {
      "channel": 0,
      "note": 75,
      "start": 14.4533,
      "duration": 0.0163,
      "velocity": 127,
      "chip": "ym2612"
    },
    {
      "channel": 5,
      "note": 76,
      "start": 14.4545,
      "duration": 0.0162,
      "velocity": 110,
      "chip": "ym2612"
    },
    {
      "channel": 4,
      "note": 78,
      "start": 14.4558,
      "duration": 0.0161,
      "velocity": 110,
      "chip": "ym2612"
    },
    {
      "channel": 2,
      "note": 54,
      "start": 14.4583,
      "duration": 0.0161,
      "velocity": 100,
      "chip": "ym2612"
    },
    {
      "channel": 0,
      "note": 73,
      "start": 14.4696,
      "duration": 0.0161,
      "velocity": 127,
      "chip": "ym2612"
    },
    {
      "channel": 5,
      "note": 76,
      "start": 14.4707,
      "duration": 0.0161,
      "velocity": 110,
      "chip": "ym2612"
    },
    {
      "channel": 4,
      "note": 78,
      "start": 14.4719,
      "duration": 0.0161,
      "velocity": 110,
      "chip": "ym2612"
    },
    {
      "channel": 2,
      "note": 54,
      "start": 14.4744,
      "duration": 0.0161,
      "velocity": 100,
      "chip": "ym2612"
    },
    {
      "channel": 0,
      "note": 71,
      "start": 14.4857,
      "duration": 0.016,
      "velocity": 127,
      "chip": "ym2612"
    },
    {
      "channel": 5,
      "note": 76,
      "start": 14.4869,
      "duration": 0.0161,
      "velocity": 110,
      "chip": "ym2612"
    },
    {
      "channel": 4,
      "note": 78,
      "start": 14.488,
      "duration": 0.0161,
      "velocity": 110,
      "chip": "ym2612"
    },
    {
      "channel": 2,
      "note": 54,
      "start": 14.4905,
      "duration": 0.0161,
      "velocity": 100,
      "chip": "ym2612"
    },
    {
      "channel": 0,
      "note": 69,
      "start": 14.5017,
      "duration": 0.0158,
      "velocity": 127,
      "chip": "ym2612"
    },
    {
      "channel": 5,
      "note": 76,
      "start": 14.503,
      "duration": 0.0161,
      "velocity": 110,
      "chip": "ym2612"
    },
    {
      "channel": 4,
      "note": 78,
      "start": 14.5041,
      "duration": 0.0161,
      "velocity": 110,
      "chip": "ym2612"
    },
    {
      "channel": 2,
      "note": 54,
      "start": 14.5066,
      "duration": 0.016,
      "velocity": 100,
      "chip": "ym2612"
    },
    {
      "channel": 0,
      "note": 68,
      "start": 14.5175,
      "duration": 0.0184,
      "velocity": 127,
      "chip": "ym2612"
    },
    {
      "channel": 5,
      "note": 76,
      "start": 14.5191,
      "duration": 0.018,
      "velocity": 110,
      "chip": "ym2612"
    },
    {
      "channel": 4,
      "note": 78,
      "start": 14.5202,
      "duration": 0.0181,
      "velocity": 110,
      "chip": "ym2612"
    },
    {
      "channel": 2,
      "note": 54,
      "start": 14.5226,
      "duration": 0.0183,
      "velocity": 100,
      "chip": "ym2612"
    },
    {
      "channel": 0,
      "note": 84,
      "start": 14.5359,
      "duration": 0.0136,
      "velocity": 127,
      "chip": "ym2612"
    },
    {
      "channel": 5,
      "note": 76,
      "start": 14.5371,
      "duration": 0.0139,
      "velocity": 110,
      "chip": "ym2612"
    },
    {
      "channel": 4,
      "note": 78,
      "start": 14.5383,
      "duration": 0.0143,
      "velocity": 110,
      "chip": "ym2612"
    },
    {
      "channel": 2,
      "note": 66,
      "start": 14.541,
      "duration": 0.014,
      "velocity": 100,
      "chip": "ym2612"
    },
    {
      "channel": 0,
      "note": 82,
      "start": 14.5495,
      "duration": 0.016,
      "velocity": 127,
      "chip": "ym2612"
    },
    {
      "channel": 2,
      "note": 66,
      "start": 14.555,
      "duration": 0.016,
      "velocity": 100,
      "chip": "ym2612"
    },
    {
      "channel": 0,
      "note": 81,
      "start": 14.5656,
      "duration": 0.0161,
      "velocity": 127,
      "chip": "ym2612"
    },
    {
      "channel": 2,
      "note": 66,
      "start": 14.571,
      "duration": 0.0161,
      "velocity": 100,
      "chip": "ym2612"
    },
    {
      "channel": 0,
      "note": 79,
      "start": 14.5817,
      "duration": 0.0161,
      "velocity": 127,
      "chip": "ym2612"
    },
    {
      "channel": 2,
      "note": 66,
      "start": 14.5871,
      "duration": 0.0161,
      "velocity": 100,
      "chip": "ym2612"
    },
    {
      "channel": 0,
      "note": 77,
      "start": 14.5978,
      "duration": 0.0162,
      "velocity": 127,
      "chip": "ym2612"
    },
    {
      "channel": 2,
      "note": 66,
      "start": 14.6032,
      "duration": 0.0161,
      "velocity": 100,
      "chip": "ym2612"
    },
    {
      "channel": 0,
      "note": 76,
      "start": 14.6139,
      "duration": 0.0161,
      "velocity": 127,
      "chip": "ym2612"
    },
    {
      "channel": 2,
      "note": 66,
      "start": 14.6193,
      "duration": 0.0162,
      "velocity": 100,
      "chip": "ym2612"
    },
    {
      "channel": 0,
      "note": 74,
      "start": 14.63,
      "duration": 0.018,
      "velocity": 127,
      "chip": "ym2612"
    },
    {
      "channel": 2,
      "note": 66,
      "start": 14.6354,
      "duration": 0.0189,
      "velocity": 100,
      "chip": "ym2612"
    },
    {
      "channel": 0,
      "note": 78,
      "start": 14.648,
      "duration": 0.0143,
      "velocity": 127,
      "chip": "ym2612"
    },
    {
      "channel": 5,
      "note": 78,
      "start": 14.6495,
      "duration": 0.014,
      "velocity": 110,
      "chip": "ym2612"
    },
    {
      "channel": 4,
      "note": 76,
      "start": 14.6516,
      "duration": 0.0132,
      "velocity": 110,
      "chip": "ym2612"
    },
    {
      "channel": 2,
      "note": 54,
      "start": 14.6544,
      "duration": 0.0131,
      "velocity": 100,
      "chip": "ym2612"
    },
    {
      "channel": 0,
      "note": 76,
      "start": 14.6623,
      "duration": 0.016,
      "velocity": 127,
      "chip": "ym2612"
    },
    {
      "channel": 5,
      "note": 78,
      "start": 14.6635,
      "duration": 0.016,
      "velocity": 110,
      "chip": "ym2612"
    },
    {
      "channel": 4,
      "note": 76,
      "start": 14.6647,
      "duration": 0.0159,
      "velocity": 110,
      "chip": "ym2612"
    },
    {
      "channel": 2,
      "note": 54,
      "start": 14.6675,
      "duration": 0.0156,
      "velocity": 100,
      "chip": "ym2612"
    },
    {
      "channel": 0,
      "note": 75,
      "start": 14.6783,
      "duration": 0.0161,
      "velocity": 127,
      "chip": "ym2612"
    },
    {
      "channel": 5,
      "note": 78,
      "start": 14.6795,
      "duration": 0.0161,
      "velocity": 110,
      "chip": "ym2612"
    },
    {
      "channel": 4,
      "note": 76,
      "start": 14.6807,
      "duration": 0.0161,
      "velocity": 110,
      "chip": "ym2612"
    },
    {
      "channel": 2,
      "note": 54,
      "start": 14.6831,
      "duration": 0.0161,
      "velocity": 100,
      "chip": "ym2612"
    },
    {
      "channel": 0,
      "note": 73,
      "start": 14.6944,
      "duration": 0.0161,
      "velocity": 127,
      "chip": "ym2612"
    },
    {
      "channel": 5,
      "note": 78,
      "start": 14.6956,
      "duration": 0.0161,
      "velocity": 110,
      "chip": "ym2612"
    },
    {
      "channel": 4,
      "note": 76,
      "start": 14.6967,
      "duration": 0.0161,
      "velocity": 110,
      "chip": "ym2612"
    },
    {
      "channel": 2,
      "note": 54,
      "start": 14.6992,
      "duration": 0.0161,
      "velocity": 100,
      "chip": "ym2612"
    },
    {
      "channel": 0,
      "note": 71,
      "start": 14.7105,
      "duration": 0.0161,
      "velocity": 127,
      "chip": "ym2612"
    },
    {
      "channel": 5,
      "note": 78,
      "start": 14.7117,
      "duration": 0.0161,
      "velocity": 110,
      "chip": "ym2612"
    },
    {
      "channel": 4,
      "note": 76,
      "start": 14.7128,
      "duration": 0.0161,
      "velocity": 110,
      "chip": "ym2612"
    },
    {
      "channel": 2,
      "note": 54,
      "start": 14.7153,
      "duration": 0.0161,
      "velocity": 100,
      "chip": "ym2612"
    },
    {
      "channel": 0,
      "note": 70,
      "start": 14.7266,
      "duration": 0.0179,
      "velocity": 115,
      "chip": "ym2612"
    },
    {
      "channel": 5,
      "note": 78,
      "start": 14.7278,
      "duration": 0.0179,
      "velocity": 110,
      "chip": "ym2612"
    },
    {
      "channel": 4,
      "note": 76,
      "start": 14.7289,
      "duration": 0.018,
      "velocity": 110,
      "chip": "ym2612"
    },
    {
      "channel": 2,
      "note": 54,
      "start": 14.7313,
      "duration": 0.018,
      "velocity": 100,
      "chip": "ym2612"
    },
    {
      "channel": 0,
      "note": 36,
      "start": 14.7446,
      "duration": 0.0143,
      "velocity": 115,
      "chip": "ym2612"
    },
    {
      "channel": 5,
      "note": 78,
      "start": 14.7457,
      "duration": 0.0143,
      "velocity": 110,
      "chip": "ym2612"
    },
    {
      "channel": 4,
      "note": 76,
      "start": 14.7469,
      "duration": 0.0143,
      "velocity": 110,
      "chip": "ym2612"
    },
    {
      "channel": 2,
      "note": 54,
      "start": 14.7493,
      "duration": 0.0144,
      "velocity": 100,
      "chip": "ym2612"
    },
    {
      "channel": 0,
      "note": 36,
      "start": 14.7589,
      "duration": 0.016,
      "velocity": 115,
      "chip": "ym2612"
    },
    {
      "channel": 2,
      "note": 54,
      "start": 14.7637,
      "duration": 0.016,
      "velocity": 100,
      "chip": "ym2612"
    },
    {
      "channel": 0,
      "note": 37,
      "start": 14.7749,
      "duration": 0.0161,
      "velocity": 115,
      "chip": "ym2612"
    },
    {
      "channel": 2,
      "note": 54,
      "start": 14.7797,
      "duration": 0.0161,
      "velocity": 100,
      "chip": "ym2612"
    },
    {
      "channel": 0,
      "note": 37,
      "start": 14.791,
      "duration": 0.0161,
      "velocity": 115,
      "chip": "ym2612"
    },
    {
      "channel": 2,
      "note": 54,
      "start": 14.7958,
      "duration": 0.0161,
      "velocity": 100,
      "chip": "ym2612"
    },
    {
      "channel": 0,
      "note": 38,
      "start": 14.8071,
      "duration": 0.0161,
      "velocity": 115,
      "chip": "ym2612"
    },
    {
      "channel": 2,
      "note": 54,
      "start": 14.8119,
      "duration": 0.0161,
      "velocity": 100,
      "chip": "ym2612"
    },
    {
      "channel": 0,
      "note": 38,
      "start": 14.8232,
      "duration": 0.0161,
      "velocity": 115,
      "chip": "ym2612"
    },
    {
      "channel": 2,
      "note": 54,
      "start": 14.828,
      "duration": 0.0161,
      "velocity": 100,
      "chip": "ym2612"
    },
    {
      "channel": 0,
      "note": 39,
      "start": 14.8393,
      "duration": 0.0179,
      "velocity": 124,
      "chip": "ym2612"
    },
    {
      "channel": 2,
      "note": 54,
      "start": 14.8441,
      "duration": 0.019,
      "velocity": 100,
      "chip": "ym2612"
    },
    {
      "channel": 0,
      "note": 84,
      "start": 14.8573,
      "duration": 0.0142,
      "velocity": 124,
      "chip": "ym2612"
    },
    {
      "channel": 5,
      "note": 76,
      "start": 14.8588,
      "duration": 0.014,
      "velocity": 110,
      "chip": "ym2612"
    },
    {
      "channel": 4,
      "note": 78,
      "start": 14.8604,
      "duration": 0.0136,
      "velocity": 110,
      "chip": "ym2612"
    },
    {
      "channel": 2,
      "note": 49,
      "start": 14.8632,
      "duration": 0.0134,
      "velocity": 100,
      "chip": "ym2612"
    },
    {
      "channel": 0,
      "note": 82,
      "start": 14.8715,
      "duration": 0.0161,
      "velocity": 124,
      "chip": "ym2612"
    },
    {
      "channel": 5,
      "note": 76,
      "start": 14.8728,
      "duration": 0.016,
      "velocity": 110,
      "chip": "ym2612"
    },
    {
      "channel": 4,
      "note": 78,
      "start": 14.874,
      "duration": 0.016,
      "velocity": 110,
      "chip": "ym2612"
    },
    {
      "channel": 2,
      "note": 49,
      "start": 14.8765,
      "duration": 0.0159,
      "velocity": 100,
      "chip": "ym2612"
    },
    {
      "channel": 0,
      "note": 80,
      "start": 14.8876,
      "duration": 0.0162,
      "velocity": 124,
      "chip": "ym2612"
    },
    {
      "channel": 5,
      "note": 76,
      "start": 14.8888,
      "duration": 0.0161,
      "velocity": 110,
      "chip": "ym2612"
    },
    {
      "channel": 4,
      "note": 78,
      "start": 14.89,
      "duration": 0.0161,
      "velocity": 110,
      "chip": "ym2612"
    },
    {
      "channel": 2,
      "note": 49,
      "start": 14.8924,
      "duration": 0.0162,
      "velocity": 100,
      "chip": "ym2612"
    },
    {
      "channel": 0,
      "note": 77,
      "start": 14.9038,
      "duration": 0.0164,
      "velocity": 124,
      "chip": "ym2612"
    },
    {
      "channel": 5,
      "note": 76,
      "start": 14.9049,
      "duration": 0.0164,
      "velocity": 110,
      "chip": "ym2612"
    },
    {
      "channel": 4,
      "note": 78,
      "start": 14.9061,
      "duration": 0.0164,
      "velocity": 110,
      "chip": "ym2612"
    },
    {
      "channel": 2,
      "note": 49,
      "start": 14.9086,
      "duration": 0.0164,
      "velocity": 100,
      "chip": "ym2612"
    },
    {
      "channel": 0,
      "note": 75,
      "start": 14.9202,
      "duration": 0.0163,
      "velocity": 124,
      "chip": "ym2612"
    },
    {
      "channel": 5,
      "note": 76,
      "start": 14.9214,
      "duration": 0.0163,
      "velocity": 110,
      "chip": "ym2612"
    },
    {
      "channel": 4,
      "note": 78,
      "start": 14.9226,
      "duration": 0.0163,
      "velocity": 110,
      "chip": "ym2612"
    },
    {
      "channel": 2,
      "note": 49,
      "start": 14.925,
      "duration": 0.0163,
      "velocity": 100,
      "chip": "ym2612"
    },
    {
      "channel": 0,
      "note": 72,
      "start": 14.9365,
      "duration": 0.0179,
      "velocity": 124,
      "chip": "ym2612"
    },
    {
      "channel": 5,
      "note": 76,
      "start": 14.9377,
      "duration": 0.0179,
      "velocity": 110,
      "chip": "ym2612"
    },
    {
      "channel": 4,
      "note": 78,
      "start": 14.9388,
      "duration": 0.018,
      "velocity": 110,
      "chip": "ym2612"
    },
    {
      "channel": 2,
      "note": 49,
      "start": 14.9413,
      "duration": 0.0179,
      "velocity": 100,
      "chip": "ym2612"
    },
    {
      "channel": 0,
      "note": 84,
      "start": 14.9544,
      "duration": 0.0142,
      "velocity": 124,
      "chip": "ym2612"
    },
    {
      "channel": 5,
      "note": 76,
      "start": 14.9556,
      "duration": 0.0143,
      "velocity": 110,
      "chip": "ym2612"
    },
    {
      "channel": 4,
      "note": 78,
      "start": 14.9568,
      "duration": 0.0143,
      "velocity": 110,
      "chip": "ym2612"
    },
    {
      "channel": 2,
      "note": 49,
      "start": 14.9592,
      "duration": 0.0144,
      "velocity": 100,
      "chip": "ym2612"
    },
    {
      "channel": 0,
      "note": 82,
      "start": 14.9687,
      "duration": 0.0158,
      "velocity": 124,
      "chip": "ym2612"
    },
    {
      "channel": 2,
      "note": 49,
      "start": 14.9736,
      "duration": 0.016,
      "velocity": 100,
      "chip": "ym2612"
    },
    {
      "channel": 0,
      "note": 80,
      "start": 14.9845,
      "duration": 0.0158,
      "velocity": 124,
      "chip": "ym2612"
    },
    {
      "channel": 2,
      "note": 49,
      "start": 14.9896,
      "duration": 0.0161,
      "velocity": 100,
      "chip": "ym2612"
    },
    {
      "channel": 0,
      "note": 77,
      "start": 15.0003,
      "duration": 0.0162,
      "velocity": 124,
      "chip": "ym2612"
    },
    {
      "channel": 2,
      "note": 49,
      "start": 15.0057,
      "duration": 0.0161,
      "velocity": 100,
      "chip": "ym2612"
    },
    {
      "channel": 0,
      "note": 75,
      "start": 15.0165,
      "duration": 0.0161,
      "velocity": 124,
      "chip": "ym2612"
    },
    {
      "channel": 2,
      "note": 49,
      "start": 15.0218,
      "duration": 0.0161,
      "velocity": 100,
      "chip": "ym2612"
    },
    {
      "channel": 0,
      "note": 72,
      "start": 15.0326,
      "duration": 0.0161,
      "velocity": 124,
      "chip": "ym2612"
    },
    {
      "channel": 2,
      "note": 49,
      "start": 15.0379,
      "duration": 0.0161,
      "velocity": 100,
      "chip": "ym2612"
    },
    {
      "channel": 0,
      "note": 70,
      "start": 15.0486,
      "duration": 0.0179,
      "velocity": 115,
      "chip": "ym2612"
    },
    {
      "channel": 2,
      "note": 49,
      "start": 15.054,
      "duration": 0.0188,
      "velocity": 100,
      "chip": "ym2612"
    },
    {
      "channel": 0,
      "note": 36,
      "start": 15.0666,
      "duration": 0.0143,
      "velocity": 115,
      "chip": "ym2612"
    },
    {
      "channel": 5,
      "note": 78,
      "start": 15.0686,
      "duration": 0.0135,
      "velocity": 110,
      "chip": "ym2612"
    },
    {
      "channel": 4,
      "note": 76,
      "start": 15.0702,
      "duration": 0.0132,
      "velocity": 110,
      "chip": "ym2612"
    },
    {
      "channel": 2,
      "note": 54,
      "start": 15.0729,
      "duration": 0.0136,
      "velocity": 100,
      "chip": "ym2612"
    },
    {
      "channel": 1,
      "note": 102,
      "start": 15.0757,
      "duration": 0.012,
      "velocity": 85,
      "chip": "ym2612"
    },
    {
      "channel": 0,
      "note": 36,
      "start": 15.0809,
      "duration": 0.016,
      "velocity": 115,
      "chip": "ym2612"
    },
    {
      "channel": 5,
      "note": 78,
      "start": 15.0821,
      "duration": 0.016,
      "velocity": 110,
      "chip": "ym2612"
    },
    {
      "channel": 4,
      "note": 76,
      "start": 15.0834,
      "duration": 0.0159,
      "velocity": 110,
      "chip": "ym2612"
    },
    {
      "channel": 2,
      "note": 54,
      "start": 15.0864,
      "duration": 0.0159,
      "velocity": 100,
      "chip": "ym2612"
    },
    {
      "channel": 1,
      "note": 102,
      "start": 15.0877,
      "duration": 0.0158,
      "velocity": 85,
      "chip": "ym2612"
    },
    {
      "channel": 0,
      "note": 37,
      "start": 15.0969,
      "duration": 0.0161,
      "velocity": 115,
      "chip": "ym2612"
    },
    {
      "channel": 5,
      "note": 78,
      "start": 15.0981,
      "duration": 0.0162,
      "velocity": 110,
      "chip": "ym2612"
    },
    {
      "channel": 4,
      "note": 76,
      "start": 15.0993,
      "duration": 0.0161,
      "velocity": 110,
      "chip": "ym2612"
    },
    {
      "channel": 2,
      "note": 54,
      "start": 15.1023,
      "duration": 0.016,
      "velocity": 100,
      "chip": "ym2612"
    },
    {
      "channel": 1,
      "note": 102,
      "start": 15.1035,
      "duration": 0.0161,
      "velocity": 85,
      "chip": "ym2612"
    },
    {
      "channel": 0,
      "note": 37,
      "start": 15.113,
      "duration": 0.0161,
      "velocity": 115,
      "chip": "ym2612"
    },
    {
      "channel": 5,
      "note": 78,
      "start": 15.1142,
      "duration": 0.0161,
      "velocity": 110,
      "chip": "ym2612"
    },
    {
      "channel": 4,
      "note": 76,
      "start": 15.1154,
      "duration": 0.0161,
      "velocity": 110,
      "chip": "ym2612"
    },
    {
      "channel": 2,
      "note": 54,
      "start": 15.1184,
      "duration": 0.0155,
      "velocity": 100,
      "chip": "ym2612"
    },
    {
      "channel": 0,
      "note": 38,
      "start": 15.1291,
      "duration": 0.0161,
      "velocity": 115,
      "chip": "ym2612"
    },
    {
      "channel": 5,
      "note": 78,
      "start": 15.1303,
      "duration": 0.0161,
      "velocity": 110,
      "chip": "ym2612"
    },
    {
      "channel": 4,
      "note": 76,
      "start": 15.1315,
      "duration": 0.0161,
      "velocity": 110,
      "chip": "ym2612"
    },
    {
      "channel": 2,
      "note": 54,
      "start": 15.1339,
      "duration": 0.0161,
      "velocity": 100,
      "chip": "ym2612"
    },
    {
      "channel": 0,
      "note": 38,
      "start": 15.1452,
      "duration": 0.0179,
      "velocity": 124,
      "chip": "ym2612"
    },
    {
      "channel": 5,
      "note": 78,
      "start": 15.1464,
      "duration": 0.0179,
      "velocity": 110,
      "chip": "ym2612"
    },
    {
      "channel": 4,
      "note": 76,
      "start": 15.1476,
      "duration": 0.018,
      "velocity": 110,
      "chip": "ym2612"
    },
    {
      "channel": 2,
      "note": 54,
      "start": 15.15,
      "duration": 0.0185,
      "velocity": 100,
      "chip": "ym2612"
    },
    {
      "channel": 0,
      "note": 84,
      "start": 15.1632,
      "duration": 0.0143,
      "velocity": 124,
      "chip": "ym2612"
    },
    {
      "channel": 5,
      "note": 78,
      "start": 15.1644,
      "duration": 0.0143,
      "velocity": 110,
      "chip": "ym2612"
    },
    {
      "channel": 4,
      "note": 76,
      "start": 15.1656,
      "duration": 0.0143,
      "velocity": 110,
      "chip": "ym2612"
    },
    {
      "channel": 2,
      "note": 54,
      "start": 15.1685,
      "duration": 0.0139,
      "velocity": 100,
      "chip": "ym2612"
    },
    {
      "channel": 1,
      "note": 100,
      "start": 15.17,
      "duration": 0.0136,
      "velocity": 85,
      "chip": "ym2612"
    },
    {
      "channel": 0,
      "note": 82,
      "start": 15.1775,
      "duration": 0.016,
      "velocity": 124,
      "chip": "ym2612"
    },
    {
      "channel": 2,
      "note": 54,
      "start": 15.1824,
      "duration": 0.016,
      "velocity": 100,
      "chip": "ym2612"
    },
    {
      "channel": 1,
      "note": 100,
      "start": 15.1836,
      "duration": 0.0159,
      "velocity": 85,
      "chip": "ym2612"
    },
    {
      "channel": 0,
      "note": 80,
      "start": 15.1936,
      "duration": 0.0161,
      "velocity": 124,
      "chip": "ym2612"
    },
    {
      "channel": 2,
      "note": 54,
      "start": 15.1983,
      "duration": 0.0161,
      "velocity": 100,
      "chip": "ym2612"
    },
    {
      "channel": 1,
      "note": 100,
      "start": 15.1995,
      "duration": 0.0161,
      "velocity": 85,
      "chip": "ym2612"
    },
    {
      "channel": 0,
      "note": 77,
      "start": 15.2097,
      "duration": 0.0161,
      "velocity": 124,
      "chip": "ym2612"
    },
    {
      "channel": 2,
      "note": 54,
      "start": 15.2144,
      "duration": 0.0161,
      "velocity": 100,
      "chip": "ym2612"
    },
    {
      "channel": 1,
      "note": 100,
      "start": 15.2156,
      "duration": 0.0161,
      "velocity": 85,
      "chip": "ym2612"
    },
    {
      "channel": 0,
      "note": 75,
      "start": 15.2257,
      "duration": 0.0161,
      "velocity": 124,
      "chip": "ym2612"
    },
    {
      "channel": 2,
      "note": 54,
      "start": 15.2305,
      "duration": 0.0161,
      "velocity": 100,
      "chip": "ym2612"
    },
    {
      "channel": 0,
      "note": 72,
      "start": 15.2418,
      "duration": 0.0161,
      "velocity": 124,
      "chip": "ym2612"
    },
    {
      "channel": 2,
      "note": 54,
      "start": 15.2466,
      "duration": 0.0161,
      "velocity": 100,
      "chip": "ym2612"
    },
    {
      "channel": 0,
      "note": 70,
      "start": 15.2579,
      "duration": 0.0161,
      "velocity": 124,
      "chip": "ym2612"
    },
    {
      "channel": 2,
      "note": 54,
      "start": 15.2627,
      "duration": 0.0189,
      "velocity": 100,
      "chip": "ym2612"
    },
    {
      "channel": 0,
      "note": 68,
      "start": 15.274,
      "duration": 0.0161,
      "velocity": 124,
      "chip": "ym2612"
    },
    {
      "channel": 5,
      "note": 76,
      "start": 15.2757,
      "duration": 0.0157,
      "velocity": 110,
      "chip": "ym2612"
    },
    {
      "channel": 4,
      "note": 78,
      "start": 15.2775,
      "duration": 0.0151,
      "velocity": 110,
      "chip": "ym2612"
    },
    {
      "channel": 3,
      "note": 102,
      "start": 15.2805,
      "duration": 0.0134,
      "velocity": 85,
      "chip": "ym2612"
    },
    {
      "channel": 2,
      "note": 54,
      "start": 15.2816,
      "duration": 0.0134,
      "velocity": 100,
      "chip": "ym2612"
    },
    {
      "channel": 1,
      "note": 99,
      "start": 15.2831,
      "duration": 0.0132,
      "velocity": 85,
      "chip": "ym2612"
    },
    {
      "channel": 0,
      "note": 65,
      "start": 15.2901,
      "duration": 0.0161,
      "velocity": 124,
      "chip": "ym2612"
    },
    {
      "channel": 5,
      "note": 76,
      "start": 15.2914,
      "duration": 0.016,
      "velocity": 110,
      "chip": "ym2612"
    },
    {
      "channel": 4,
      "note": 78,
      "start": 15.2926,
      "duration": 0.016,
      "velocity": 110,
      "chip": "ym2612"
    },
    {
      "channel": 3,
      "note": 102,
      "start": 15.2938,
      "duration": 0.0159,
      "velocity": 85,
      "chip": "ym2612"
    },
    {
      "channel": 2,
      "note": 54,
      "start": 15.295,
      "duration": 0.0159,
      "velocity": 100,
      "chip": "ym2612"
    },
    {
      "channel": 1,
      "note": 99,
      "start": 15.2962,
      "duration": 0.0158,
      "velocity": 85,
      "chip": "ym2612"
    },
    {
      "channel": 0,
      "note": 63,
      "start": 15.3062,
      "duration": 0.0153,
      "velocity": 1,
      "chip": "ym2612"
    },
    {
      "channel": 5,
      "note": 76,
      "start": 15.3074,
      "duration": 0.0153,
      "velocity": 110,
      "chip": "ym2612"
    },
    {
      "channel": 4,
      "note": 78,
      "start": 15.3086,
      "duration": 0.0153,
      "velocity": 110,
      "chip": "ym2612"
    },
    {
      "channel": 3,
      "note": 102,
      "start": 15.3097,
      "duration": 0.0153,
      "velocity": 85,
      "chip": "ym2612"
    },
    {
      "channel": 2,
      "note": 54,
      "start": 15.3109,
      "duration": 0.0153,
      "velocity": 100,
      "chip": "ym2612"
    },
    {
      "channel": 1,
      "note": 99,
      "start": 15.3121,
      "duration": 0.0153,
      "velocity": 85,
      "chip": "ym2612"
    },
    {
      "channel": 2,
      "note": 54,
      "start": 15.3262,
      "duration": 0.0152,
      "velocity": 100,
      "chip": "ym2612"
    },
    {
      "channel": 2,
      "note": 54,
      "start": 15.3414,
      "duration": 0.0161,
      "velocity": 100,
      "chip": "ym2612"
    },
    {
      "channel": 2,
      "note": 54,
      "start": 15.3575,
      "duration": 0.0209,
      "velocity": 100,
      "chip": "ym2612"
    },
    {
      "channel": 0,
      "note": 36,
      "start": 15.3726,
      "duration": 0.0144,
      "velocity": 115,
      "chip": "ym2612"
    },
    {
      "channel": 5,
      "note": 76,
      "start": 15.374,
      "duration": 0.0141,
      "velocity": 110,
      "chip": "ym2612"
    },
    {
      "channel": 4,
      "note": 78,
      "start": 15.3755,
      "duration": 0.0139,
      "velocity": 110,
      "chip": "ym2612"
    },
    {
      "channel": 3,
      "note": 100,
      "start": 15.377,
      "duration": 0.0137,
      "velocity": 85,
      "chip": "ym2612"
    },
    {
      "channel": 2,
      "note": 54,
      "start": 15.3784,
      "duration": 0.0134,
      "velocity": 100,
      "chip": "ym2612"
    },
    {
      "channel": 1,
      "note": 97,
      "start": 15.3799,
      "duration": 0.0132,
      "velocity": 85,
      "chip": "ym2612"
    },
    {
      "channel": 0,
      "note": 36,
      "start": 15.3869,
      "duration": 0.0163,
      "velocity": 115,
      "chip": "ym2612"
    },
    {
      "channel": 5,
      "note": 76,
      "start": 15.3882,
      "duration": 0.0163,
      "velocity": 110,
      "chip": "ym2612"
    },
    {
      "channel": 4,
      "note": 78,
      "start": 15.3894,
      "duration": 0.0161,
      "velocity": 110,
      "chip": "ym2612"
    },
    {
      "channel": 3,
      "note": 100,
      "start": 15.3906,
      "duration": 0.0161,
      "velocity": 85,
      "chip": "ym2612"
    },
    {
      "channel": 2,
      "note": 54,
      "start": 15.3918,
      "duration": 0.016,
      "velocity": 100,
      "chip": "ym2612"
    },
    {
      "channel": 1,
      "note": 97,
      "start": 15.3931,
      "duration": 0.016,
      "velocity": 85,
      "chip": "ym2612"
    },
    {
      "channel": 0,
      "note": 37,
      "start": 15.4032,
      "duration": 0.0163,
      "velocity": 115,
      "chip": "ym2612"
    },
    {
      "channel": 5,
      "note": 76,
      "start": 15.4044,
      "duration": 0.0163,
      "velocity": 110,
      "chip": "ym2612"
    },
    {
      "channel": 4,
      "note": 78,
      "start": 15.4056,
      "duration": 0.0163,
      "velocity": 110,
      "chip": "ym2612"
    },
    {
      "channel": 3,
      "note": 100,
      "start": 15.4067,
      "duration": 0.0163,
      "velocity": 85,
      "chip": "ym2612"
    },
    {
      "channel": 2,
      "note": 54,
      "start": 15.4079,
      "duration": 0.0163,
      "velocity": 100,
      "chip": "ym2612"
    },
    {
      "channel": 1,
      "note": 97,
      "start": 15.4091,
      "duration": 0.0163,
      "velocity": 85,
      "chip": "ym2612"
    },
    {
      "channel": 0,
      "note": 37,
      "start": 15.4196,
      "duration": 0.0161,
      "velocity": 115,
      "chip": "ym2612"
    },
    {
      "channel": 5,
      "note": 76,
      "start": 15.4207,
      "duration": 0.0161,
      "velocity": 110,
      "chip": "ym2612"
    },
    {
      "channel": 4,
      "note": 78,
      "start": 15.4219,
      "duration": 0.0161,
      "velocity": 110,
      "chip": "ym2612"
    },
    {
      "channel": 3,
      "note": 100,
      "start": 15.4231,
      "duration": 0.0161,
      "velocity": 85,
      "chip": "ym2612"
    },
    {
      "channel": 2,
      "note": 54,
      "start": 15.4242,
      "duration": 0.0161,
      "velocity": 100,
      "chip": "ym2612"
    },
    {
      "channel": 1,
      "note": 97,
      "start": 15.4254,
      "duration": 0.0161,
      "velocity": 85,
      "chip": "ym2612"
    },
    {
      "channel": 0,
      "note": 38,
      "start": 15.4357,
      "duration": 0.016,
      "velocity": 115,
      "chip": "ym2612"
    },
    {
      "channel": 2,
      "note": 54,
      "start": 15.4403,
      "duration": 0.0161,
      "velocity": 100,
      "chip": "ym2612"
    },
    {
      "channel": 0,
      "note": 38,
      "start": 15.4517,
      "duration": 0.0155,
      "velocity": 115,
      "chip": "ym2612"
    },
    {
      "channel": 2,
      "note": 54,
      "start": 15.4564,
      "duration": 0.0161,
      "velocity": 100,
      "chip": "ym2612"
    },
    {
      "channel": 0,
      "note": 39,
      "start": 15.4672,
      "duration": 0.0185,
      "velocity": 124,
      "chip": "ym2612"
    },
    {
      "channel": 2,
      "note": 54,
      "start": 15.4725,
      "duration": 0.019,
      "velocity": 100,
      "chip": "ym2612"
    },
    {
      "channel": 0,
      "note": 84,
      "start": 15.4858,
      "duration": 0.0137,
      "velocity": 124,
      "chip": "ym2612"
    },
    {
      "channel": 5,
      "note": 78,
      "start": 15.4873,
      "duration": 0.0137,
      "velocity": 110,
      "chip": "ym2612"
    },
    {
      "channel": 4,
      "note": 76,
      "start": 15.4888,
      "duration": 0.0137,
      "velocity": 110,
      "chip": "ym2612"
    },
    {
      "channel": 3,
      "note": 99,
      "start": 15.4903,
      "duration": 0.0135,
      "velocity": 85,
      "chip": "ym2612"
    },
    {
      "channel": 2,
      "note": 54,
      "start": 15.4915,
      "duration": 0.0135,
      "velocity": 100,
      "chip": "ym2612"
    },
    {
      "channel": 1,
      "note": 100,
      "start": 15.493,
      "duration": 0.0132,
      "velocity": 85,
      "chip": "ym2612"
    },
    {
      "channel": 0,
      "note": 82,
      "start": 15.4995,
      "duration": 0.016,
      "velocity": 124,
      "chip": "ym2612"
    },
    {
      "channel": 5,
      "note": 78,
      "start": 15.501,
      "duration": 0.0157,
      "velocity": 110,
      "chip": "ym2612"
    },
    {
      "channel": 4,
      "note": 76,
      "start": 15.5026,
      "duration": 0.0159,
      "velocity": 110,
      "chip": "ym2612"
    },
    {
      "channel": 3,
      "note": 99,
      "start": 15.5038,
      "duration": 0.0159,
      "velocity": 85,
      "chip": "ym2612"
    },
    {
      "channel": 2,
      "note": 54,
      "start": 15.505,
      "duration": 0.0159,
      "velocity": 100,
      "chip": "ym2612"
    },
    {
      "channel": 1,
      "note": 100,
      "start": 15.5062,
      "duration": 0.0159,
      "velocity": 85,
      "chip": "ym2612"
    },
    {
      "channel": 0,
      "note": 80,
      "start": 15.5156,
      "duration": 0.0161,
      "velocity": 124,
      "chip": "ym2612"
    },
    {
      "channel": 5,
      "note": 78,
      "start": 15.5167,
      "duration": 0.0161,
      "velocity": 110,
      "chip": "ym2612"
    },
    {
      "channel": 4,
      "note": 76,
      "start": 15.5184,
      "duration": 0.0158,
      "velocity": 110,
      "chip": "ym2612"
    },
    {
      "channel": 3,
      "note": 99,
      "start": 15.5197,
      "duration": 0.016,
      "velocity": 85,
      "chip": "ym2612"
    },
    {
      "channel": 2,
      "note": 54,
      "start": 15.5209,
      "duration": 0.016,
      "velocity": 100,
      "chip": "ym2612"
    },
    {
      "channel": 1,
      "note": 100,
      "start": 15.5221,
      "duration": 0.0161,
      "velocity": 85,
      "chip": "ym2612"
    },
    {
      "channel": 0,
      "note": 77,
      "start": 15.5317,
      "duration": 0.0161,
      "velocity": 124,
      "chip": "ym2612"
    },
    {
      "channel": 2,
      "note": 54,
      "start": 15.5369,
      "duration": 0.0161,
      "velocity": 100,
      "chip": "ym2612"
    },
    {
      "channel": 0,
      "note": 75,
      "start": 15.5478,
      "duration": 0.0161,
      "velocity": 124,
      "chip": "ym2612"
    },
    {
      "channel": 2,
      "note": 54,
      "start": 15.553,
      "duration": 0.0161,
      "velocity": 100,
      "chip": "ym2612"
    },
    {
      "channel": 0,
      "note": 72,
      "start": 15.5639,
      "duration": 0.0179,
      "velocity": 115,
      "chip": "ym2612"
    },
    {
      "channel": 2,
      "note": 54,
      "start": 15.5691,
      "duration": 0.019,
      "velocity": 100,
      "chip": "ym2612"
    },
    {
      "channel": 0,
      "note": 36,
      "start": 15.5818,
      "duration": 0.0143,
      "velocity": 115,
      "chip": "ym2612"
    },
    {
      "channel": 5,
      "note": 78,
      "start": 15.5833,
      "duration": 0.0141,
      "velocity": 110,
      "chip": "ym2612"
    },
    {
      "channel": 4,
      "note": 76,
      "start": 15.5853,
      "duration": 0.0133,
      "velocity": 110,
      "chip": "ym2612"
    },
    {
      "channel": 3,
      "note": 97,
      "start": 15.5868,
      "duration": 0.013,
      "velocity": 85,
      "chip": "ym2612"
    },
    {
      "channel": 2,
      "note": 54,
      "start": 15.5882,
      "duration": 0.0134,
      "velocity": 100,
      "chip": "ym2612"
    },
    {
      "channel": 1,
      "note": 99,
      "start": 15.5896,
      "duration": 0.0132,
      "velocity": 85,
      "chip": "ym2612"
    },
    {
      "channel": 0,
      "note": 36,
      "start": 15.5961,
      "duration": 0.016,
      "velocity": 115,
      "chip": "ym2612"
    },
    {
      "channel": 5,
      "note": 78,
      "start": 15.5974,
      "duration": 0.016,
      "velocity": 110,
      "chip": "ym2612"
    },
    {
      "channel": 4,
      "note": 76,
      "start": 15.5986,
      "duration": 0.0159,
      "velocity": 110,
      "chip": "ym2612"
    },
    {
      "channel": 3,
      "note": 97,
      "start": 15.5998,
      "duration": 0.0159,
      "velocity": 85,
      "chip": "ym2612"
    },
    {
      "channel": 2,
      "note": 54,
      "start": 15.6016,
      "duration": 0.0154,
      "velocity": 100,
      "chip": "ym2612"
    },
    {
      "channel": 1,
      "note": 99,
      "start": 15.6029,
      "duration": 0.0158,
      "velocity": 85,
      "chip": "ym2612"
    },
    {
      "channel": 0,
      "note": 37,
      "start": 15.6121,
      "duration": 0.0162,
      "velocity": 115,
      "chip": "ym2612"
    },
    {
      "channel": 5,
      "note": 78,
      "start": 15.6133,
      "duration": 0.0161,
      "velocity": 110,
      "chip": "ym2612"
    },
    {
      "channel": 4,
      "note": 76,
      "start": 15.6145,
      "duration": 0.0161,
      "velocity": 110,
      "chip": "ym2612"
    },
    {
      "channel": 3,
      "note": 97,
      "start": 15.6157,
      "duration": 0.0161,
      "velocity": 85,
      "chip": "ym2612"
    },
    {
      "channel": 2,
      "note": 54,
      "start": 15.6169,
      "duration": 0.0161,
      "velocity": 100,
      "chip": "ym2612"
    },
    {
      "channel": 1,
      "note": 99,
      "start": 15.6186,
      "duration": 0.0158,
      "velocity": 85,
      "chip": "ym2612"
    },
    {
      "channel": 0,
      "note": 37,
      "start": 15.6283,
      "duration": 0.0161,
      "velocity": 115,
      "chip": "ym2612"
    },
    {
      "channel": 5,
      "note": 78,
      "start": 15.6294,
      "duration": 0.0161,
      "velocity": 110,
      "chip": "ym2612"
    },
    {
      "channel": 4,
      "note": 76,
      "start": 15.6306,
      "duration": 0.0161,
      "velocity": 110,
      "chip": "ym2612"
    },
    {
      "channel": 3,
      "note": 97,
      "start": 15.6318,
      "duration": 0.0161,
      "velocity": 85,
      "chip": "ym2612"
    },
    {
      "channel": 2,
      "note": 54,
      "start": 15.633,
      "duration": 0.0162,
      "velocity": 100,
      "chip": "ym2612"
    },
    {
      "channel": 1,
      "note": 99,
      "start": 15.6344,
      "duration": 0.0159,
      "velocity": 85,
      "chip": "ym2612"
    },
    {
      "channel": 0,
      "note": 38,
      "start": 15.6444,
      "duration": 0.0161,
      "velocity": 115,
      "chip": "ym2612"
    },
    {
      "channel": 2,
      "note": 54,
      "start": 15.6492,
      "duration": 0.016,
      "velocity": 100,
      "chip": "ym2612"
    },
    {
      "channel": 0,
      "note": 38,
      "start": 15.6605,
      "duration": 0.0161,
      "velocity": 115,
      "chip": "ym2612"
    },
    {
      "channel": 2,
      "note": 54,
      "start": 15.6652,
      "duration": 0.0161,
      "velocity": 100,
      "chip": "ym2612"
    },
    {
      "channel": 0,
      "note": 39,
      "start": 15.6766,
      "duration": 0.0179,
      "velocity": 124,
      "chip": "ym2612"
    },
    {
      "channel": 2,
      "note": 54,
      "start": 15.6813,
      "duration": 0.0192,
      "velocity": 100,
      "chip": "ym2612"
    },
    {
      "channel": 0,
      "note": 84,
      "start": 15.6945,
      "duration": 0.0143,
      "velocity": 124,
      "chip": "ym2612"
    },
    {
      "channel": 5,
      "note": 76,
      "start": 15.6961,
      "duration": 0.014,
      "velocity": 110,
      "chip": "ym2612"
    },
    {
      "channel": 4,
      "note": 78,
      "start": 15.6976,
      "duration": 0.0137,
      "velocity": 110,
      "chip": "ym2612"
    },
    {
      "channel": 3,
      "note": 100,
      "start": 15.6991,
      "duration": 0.0134,
      "velocity": 85,
      "chip": "ym2612"
    },
    {
      "channel": 2,
      "note": 49,
      "start": 15.7006,
      "duration": 0.0132,
      "velocity": 100,
      "chip": "ym2612"
    },
    {
      "channel": 1,
      "note": 97,
      "start": 15.7026,
      "duration": 0.0124,
      "velocity": 85,
      "chip": "ym2612"
    },
    {
      "channel": 0,
      "note": 82,
      "start": 15.7088,
      "duration": 0.016,
      "velocity": 124,
      "chip": "ym2612"
    },
    {
      "channel": 5,
      "note": 76,
      "start": 15.7101,
      "duration": 0.016,
      "velocity": 110,
      "chip": "ym2612"
    },
    {
      "channel": 4,
      "note": 78,
      "start": 15.7113,
      "duration": 0.0159,
      "velocity": 110,
      "chip": "ym2612"
    },
    {
      "channel": 3,
      "note": 100,
      "start": 15.7125,
      "duration": 0.0159,
      "velocity": 85,
      "chip": "ym2612"
    },
    {
      "channel": 2,
      "note": 49,
      "start": 15.7137,
      "duration": 0.0159,
      "velocity": 100,
      "chip": "ym2612"
    },
    {
      "channel": 1,
      "note": 97,
      "start": 15.715,
      "duration": 0.0157,
      "velocity": 85,
      "chip": "ym2612"
    },
    {
      "channel": 0,
      "note": 80,
      "start": 15.7249,
      "duration": 0.0161,
      "velocity": 124,
      "chip": "ym2612"
    },
    {
      "channel": 5,
      "note": 76,
      "start": 15.7261,
      "duration": 0.0161,
      "velocity": 110,
      "chip": "ym2612"
    },
    {
      "channel": 4,
      "note": 78,
      "start": 15.7272,
      "duration": 0.0161,
      "velocity": 110,
      "chip": "ym2612"
    },
    {
      "channel": 3,
      "note": 100,
      "start": 15.7284,
      "duration": 0.0161,
      "velocity": 85,
      "chip": "ym2612"
    },
    {
      "channel": 2,
      "note": 49,
      "start": 15.7296,
      "duration": 0.0161,
      "velocity": 100,
      "chip": "ym2612"
    },
    {
      "channel": 1,
      "note": 97,
      "start": 15.7307,
      "duration": 0.0161,
      "velocity": 85,
      "chip": "ym2612"
    },
    {
      "channel": 0,
      "note": 77,
      "start": 15.741,
      "duration": 0.0162,
      "velocity": 124,
      "chip": "ym2612"
    },
    {
      "channel": 5,
      "note": 76,
      "start": 15.7422,
      "duration": 0.0161,
      "velocity": 110,
      "chip": "ym2612"
    },
    {
      "channel": 4,
      "note": 78,
      "start": 15.7433,
      "duration": 0.0161,
      "velocity": 110,
      "chip": "ym2612"
    },
    {
      "channel": 2,
      "note": 49,
      "start": 15.7457,
      "duration": 0.0161,
      "velocity": 100,
      "chip": "ym2612"
    },
    {
      "channel": 0,
      "note": 75,
      "start": 15.7571,
      "duration": 0.0161,
      "velocity": 124,
      "chip": "ym2612"
    },
    {
      "channel": 5,
      "note": 76,
      "start": 15.7583,
      "duration": 0.0161,
      "velocity": 110,
      "chip": "ym2612"
    },
    {
      "channel": 4,
      "note": 78,
      "start": 15.7594,
      "duration": 0.0161,
      "velocity": 110,
      "chip": "ym2612"
    },
    {
      "channel": 2,
      "note": 49,
      "start": 15.7617,
      "duration": 0.0161,
      "velocity": 100,
      "chip": "ym2612"
    },
    {
      "channel": 0,
      "note": 72,
      "start": 15.7732,
      "duration": 0.0179,
      "velocity": 124,
      "chip": "ym2612"
    },
    {
      "channel": 5,
      "note": 76,
      "start": 15.7744,
      "duration": 0.0179,
      "velocity": 110,
      "chip": "ym2612"
    },
    {
      "channel": 4,
      "note": 78,
      "start": 15.7756,
      "duration": 0.0179,
      "velocity": 110,
      "chip": "ym2612"
    },
    {
      "channel": 2,
      "note": 49,
      "start": 15.7778,
      "duration": 0.0185,
      "velocity": 100,
      "chip": "ym2612"
    },
    {
      "channel": 0,
      "note": 84,
      "start": 15.7911,
      "duration": 0.0143,
      "velocity": 124,
      "chip": "ym2612"
    },
    {
      "channel": 5,
      "note": 76,
      "start": 15.7923,
      "duration": 0.0143,
      "velocity": 110,
      "chip": "ym2612"
    },
    {
      "channel": 4,
      "note": 78,
      "start": 15.7935,
      "duration": 0.0143,
      "velocity": 110,
      "chip": "ym2612"
    },
    {
      "channel": 3,
      "note": 99,
      "start": 15.795,
      "duration": 0.0141,
      "velocity": 85,
      "chip": "ym2612"
    },
    {
      "channel": 2,
      "note": 51,
      "start": 15.7963,
      "duration": 0.0139,
      "velocity": 100,
      "chip": "ym2612"
    },
    {
      "channel": 1,
      "note": 95,
      "start": 15.7978,
      "duration": 0.0137,
      "velocity": 85,
      "chip": "ym2612"
    },
    {
      "channel": 0,
      "note": 82,
      "start": 15.8055,
      "duration": 0.016,
      "velocity": 124,
      "chip": "ym2612"
    },
    {
      "channel": 3,
      "note": 99,
      "start": 15.809,
      "duration": 0.016,
      "velocity": 85,
      "chip": "ym2612"
    },
    {
      "channel": 2,
      "note": 51,
      "start": 15.8102,
      "duration": 0.0159,
      "velocity": 100,
      "chip": "ym2612"
    },
    {
      "channel": 1,
      "note": 95,
      "start": 15.8115,
      "duration": 0.0158,
      "velocity": 85,
      "chip": "ym2612"
    },
    {
      "channel": 0,
      "note": 80,
      "start": 15.8215,
      "duration": 0.0161,
      "velocity": 124,
      "chip": "ym2612"
    },
    {
      "channel": 3,
      "note": 99,
      "start": 15.825,
      "duration": 0.0161,
      "velocity": 85,
      "chip": "ym2612"
    },
    {
      "channel": 2,
      "note": 51,
      "start": 15.8261,
      "duration": 0.0161,
      "velocity": 100,
      "chip": "ym2612"
    },
    {
      "channel": 1,
      "note": 95,
      "start": 15.8273,
      "duration": 0.0161,
      "velocity": 85,
      "chip": "ym2612"
    },
    {
      "channel": 0,
      "note": 77,
      "start": 15.8376,
      "duration": 0.0162,
      "velocity": 124,
      "chip": "ym2612"
    },
    {
      "channel": 3,
      "note": 99,
      "start": 15.8411,
      "duration": 0.0161,
      "velocity": 85,
      "chip": "ym2612"
    },
    {
      "channel": 2,
      "note": 51,
      "start": 15.8422,
      "duration": 0.0162,
      "velocity": 100,
      "chip": "ym2612"
    },
    {
      "channel": 1,
      "note": 95,
      "start": 15.8434,
      "duration": 0.0162,
      "velocity": 85,
      "chip": "ym2612"
    },
    {
      "channel": 0,
      "note": 75,
      "start": 15.8537,
      "duration": 0.0164,
      "velocity": 124,
      "chip": "ym2612"
    },
    {
      "channel": 2,
      "note": 51,
      "start": 15.8584,
      "duration": 0.0163,
      "velocity": 100,
      "chip": "ym2612"
    },
    {
      "channel": 0,
      "note": 72,
      "start": 15.8702,
      "duration": 0.0163,
      "velocity": 124,
      "chip": "ym2612"
    },
    {
      "channel": 2,
      "note": 51,
      "start": 15.8748,
      "duration": 0.0163,
      "velocity": 100,
      "chip": "ym2612"
    },
    {
      "channel": 0,
      "note": 70,
      "start": 15.8865,
      "duration": 0.0179,
      "velocity": 115,
      "chip": "ym2612"
    },
    {
      "channel": 2,
      "note": 51,
      "start": 15.8911,
      "duration": 0.0192,
      "velocity": 100,
      "chip": "ym2612"
    },
    {
      "channel": 0,
      "note": 36,
      "start": 15.9044,
      "duration": 0.0142,
      "velocity": 115,
      "chip": "ym2612"
    },
    {
      "channel": 5,
      "note": 78,
      "start": 15.9059,
      "duration": 0.0141,
      "velocity": 110,
      "chip": "ym2612"
    },
    {
      "channel": 4,
      "note": 76,
      "start": 15.9074,
      "duration": 0.0138,
      "velocity": 110,
      "chip": "ym2612"
    },
    {
      "channel": 3,
      "note": 97,
      "start": 15.9089,
      "duration": 0.0136,
      "velocity": 85,
      "chip": "ym2612"
    },
    {
      "channel": 2,
      "note": 54,
      "start": 15.9104,
      "duration": 0.0133,
      "velocity": 100,
      "chip": "ym2612"
    },
    {
      "channel": 1,
      "note": 99,
      "start": 15.9118,
      "duration": 0.013,
      "velocity": 85,
      "chip": "ym2612"
    },
    {
      "channel": 0,
      "note": 36,
      "start": 15.9187,
      "duration": 0.0157,
      "velocity": 115,
      "chip": "ym2612"
    },
    {
      "channel": 5,
      "note": 78,
      "start": 15.92,
      "duration": 0.016,
      "velocity": 110,
      "chip": "ym2612"
    },
    {
      "channel": 4,
      "note": 76,
      "start": 15.9212,
      "duration": 0.0159,
      "velocity": 110,
      "chip": "ym2612"
    },
    {
      "channel": 3,
      "note": 97,
      "start": 15.9224,
      "duration": 0.0158,
      "velocity": 85,
      "chip": "ym2612"
    },
    {
      "channel": 2,
      "note": 54,
      "start": 15.9237,
      "duration": 0.0158,
      "velocity": 100,
      "chip": "ym2612"
    },
    {
      "channel": 1,
      "note": 99,
      "start": 15.9249,
      "duration": 0.0158,
      "velocity": 85,
      "chip": "ym2612"
    },
    {
      "channel": 0,
      "note": 37,
      "start": 15.9344,
      "duration": 0.0159,
      "velocity": 115,
      "chip": "ym2612"
    },
    {
      "channel": 5,
      "note": 78,
      "start": 15.936,
      "duration": 0.016,
      "velocity": 110,
      "chip": "ym2612"
    },
    {
      "channel": 4,
      "note": 76,
      "start": 15.9371,
      "duration": 0.0161,
      "velocity": 110,
      "chip": "ym2612"
    },
    {
      "channel": 3,
      "note": 97,
      "start": 15.9383,
      "duration": 0.0161,
      "velocity": 85,
      "chip": "ym2612"
    },
    {
      "channel": 2,
      "note": 54,
      "start": 15.9394,
      "duration": 0.0161,
      "velocity": 100,
      "chip": "ym2612"
    },
    {
      "channel": 1,
      "note": 99,
      "start": 15.9406,
      "duration": 0.0161,
      "velocity": 85,
      "chip": "ym2612"
    },
    {
      "channel": 0,
      "note": 37,
      "start": 15.9503,
      "duration": 0.0161,
      "velocity": 115,
      "chip": "ym2612"
    },
    {
      "channel": 5,
      "note": 78,
      "start": 15.952,
      "duration": 0.0158,
      "velocity": 110,
      "chip": "ym2612"
    },
    {
      "channel": 4,
      "note": 76,
      "start": 15.9532,
      "duration": 0.0161,
      "velocity": 110,
      "chip": "ym2612"
    },
    {
      "channel": 2,
      "note": 54,
      "start": 15.9555,
      "duration": 0.0161,
      "velocity": 100,
      "chip": "ym2612"
    },
    {
      "channel": 0,
      "note": 38,
      "start": 15.9664,
      "duration": 0.0161,
      "velocity": 115,
      "chip": "ym2612"
    },
    {
      "channel": 5,
      "note": 78,
      "start": 15.9677,
      "duration": 0.0159,
      "velocity": 110,
      "chip": "ym2612"
    },
    {
      "channel": 4,
      "note": 76,
      "start": 15.9693,
      "duration": 0.016,
      "velocity": 110,
      "chip": "ym2612"
    },
    {
      "channel": 2,
      "note": 54,
      "start": 15.9716,
      "duration": 0.0162,
      "velocity": 100,
      "chip": "ym2612"
    },
    {
      "channel": 0,
      "note": 38,
      "start": 15.9825,
      "duration": 0.0179,
      "velocity": 124,
      "chip": "ym2612"
    },
    {
      "channel": 5,
      "note": 78,
      "start": 15.9836,
      "duration": 0.0185,
      "velocity": 110,
      "chip": "ym2612"
    },
    {
      "channel": 4,
      "note": 76,
      "start": 15.9854,
      "duration": 0.018,
      "velocity": 110,
      "chip": "ym2612"
    },
    {
      "channel": 2,
      "note": 54,
      "start": 15.9878,
      "duration": 0.0184,
      "velocity": 100,
      "chip": "ym2612"
    },
    {
      "channel": 0,
      "note": 84,
      "start": 16.0004,
      "duration": 0.0143,
      "velocity": 124,
      "chip": "ym2612"
    },
    {
      "channel": 5,
      "note": 78,
      "start": 16.0022,
      "duration": 0.0138,
      "velocity": 110,
      "chip": "ym2612"
    },
    {
      "channel": 4,
      "note": 76,
      "start": 16.0034,
      "duration": 0.0138,
      "velocity": 110,
      "chip": "ym2612"
    },
    {
      "channel": 3,
      "note": 95,
      "start": 16.0048,
      "duration": 0.0141,
      "velocity": 85,
      "chip": "ym2612"
    },
    {
      "channel": 2,
      "note": 66,
      "start": 16.0063,
      "duration": 0.0139,
      "velocity": 100,
      "chip": "ym2612"
    },
    {
      "channel": 1,
      "note": 97,
      "start": 16.0078,
      "duration": 0.0136,
      "velocity": 85,
      "chip": "ym2612"
    },
    {
      "channel": 0,
      "note": 82,
      "start": 16.0147,
      "duration": 0.016,
      "velocity": 124,
      "chip": "ym2612"
    },
    {
      "channel": 3,
      "note": 95,
      "start": 16.0189,
      "duration": 0.0159,
      "velocity": 85,
      "chip": "ym2612"
    },
    {
      "channel": 2,
      "note": 66,
      "start": 16.0202,
      "duration": 0.0159,
      "velocity": 100,
      "chip": "ym2612"
    },
    {
      "channel": 1,
      "note": 97,
      "start": 16.0214,
      "duration": 0.0158,
      "velocity": 85,
      "chip": "ym2612"
    },
    {
      "channel": 0,
      "note": 80,
      "start": 16.0308,
      "duration": 0.0161,
      "velocity": 124,
      "chip": "ym2612"
    },
    {
      "channel": 3,
      "note": 95,
      "start": 16.0349,
      "duration": 0.0156,
      "velocity": 85,
      "chip": "ym2612"
    },
    {
      "channel": 2,
      "note": 66,
      "start": 16.0361,
      "duration": 0.016,
      "velocity": 100,
      "chip": "ym2612"
    },
    {
      "channel": 1,
      "note": 97,
      "start": 16.0372,
      "duration": 0.0162,
      "velocity": 85,
      "chip": "ym2612"
    },
    {
      "channel": 0,
      "note": 77,
      "start": 16.0469,
      "duration": 0.0161,
      "velocity": 124,
      "chip": "ym2612"
    },
    {
      "channel": 3,
      "note": 95,
      "start": 16.0504,
      "duration": 0.0161,
      "velocity": 85,
      "chip": "ym2612"
    },
    {
      "channel": 2,
      "note": 66,
      "start": 16.0521,
      "duration": 0.0161,
      "velocity": 100,
      "chip": "ym2612"
    },
    {
      "channel": 1,
      "note": 97,
      "start": 16.0534,
      "duration": 0.0161,
      "velocity": 85,
      "chip": "ym2612"
    },
    {
      "channel": 0,
      "note": 75,
      "start": 16.063,
      "duration": 0.0161,
      "velocity": 124,
      "chip": "ym2612"
    },
    {
      "channel": 2,
      "note": 66,
      "start": 16.0682,
      "duration": 0.0156,
      "velocity": 100,
      "chip": "ym2612"
    },
    {
      "channel": 0,
      "note": 72,
      "start": 16.0791,
      "duration": 0.0161,
      "velocity": 124,
      "chip": "ym2612"
    },
    {
      "channel": 2,
      "note": 66,
      "start": 16.0838,
      "duration": 0.0161,
      "velocity": 100,
      "chip": "ym2612"
    },
    {
      "channel": 0,
      "note": 70,
      "start": 16.0952,
      "duration": 0.0179,
      "velocity": 124,
      "chip": "ym2612"
    },
    {
      "channel": 2,
      "note": 66,
      "start": 16.0999,
      "duration": 0.0198,
      "velocity": 100,
      "chip": "ym2612"
    },
    {
      "channel": 0,
      "note": 84,
      "start": 16.1132,
      "duration": 0.0143,
      "velocity": 124,
      "chip": "ym2612"
    },
    {
      "channel": 5,
      "note": 76,
      "start": 16.1147,
      "duration": 0.014,
      "velocity": 110,
      "chip": "ym2612"
    },
    {
      "channel": 4,
      "note": 78,
      "start": 16.1163,
      "duration": 0.0137,
      "velocity": 110,
      "chip": "ym2612"
    },
    {
      "channel": 3,
      "note": 99,
      "start": 16.1182,
      "duration": 0.0129,
      "velocity": 85,
      "chip": "ym2612"
    },
    {
      "channel": 2,
      "note": 54,
      "start": 16.1198,
      "duration": 0.0126,
      "velocity": 100,
      "chip": "ym2612"
    },
    {
      "channel": 1,
      "note": 95,
      "start": 16.1212,
      "duration": 0.0124,
      "velocity": 85,
      "chip": "ym2612"
    },
    {
      "channel": 0,
      "note": 82,
      "start": 16.1275,
      "duration": 0.016,
      "velocity": 124,
      "chip": "ym2612"
    },
    {
      "channel": 5,
      "note": 76,
      "start": 16.1287,
      "duration": 0.016,
      "velocity": 110,
      "chip": "ym2612"
    },
    {
      "channel": 4,
      "note": 78,
      "start": 16.13,
      "duration": 0.0159,
      "velocity": 110,
      "chip": "ym2612"
    },
    {
      "channel": 3,
      "note": 99,
      "start": 16.1312,
      "duration": 0.0158,
      "velocity": 85,
      "chip": "ym2612"
    },
    {
      "channel": 2,
      "note": 54,
      "start": 16.1324,
      "duration": 0.0158,
      "velocity": 100,
      "chip": "ym2612"
    },
    {
      "channel": 1,
      "note": 95,
      "start": 16.1336,
      "duration": 0.0158,
      "velocity": 85,
      "chip": "ym2612"
    },
    {
      "channel": 0,
      "note": 80,
      "start": 16.1435,
      "duration": 0.0161,
      "velocity": 124,
      "chip": "ym2612"
    },
    {
      "channel": 5,
      "note": 76,
      "start": 16.1447,
      "duration": 0.0161,
      "velocity": 110,
      "chip": "ym2612"
    },
    {
      "channel": 4,
      "note": 78,
      "start": 16.1459,
      "duration": 0.0161,
      "velocity": 110,
      "chip": "ym2612"
    },
    {
      "channel": 3,
      "note": 99,
      "start": 16.147,
      "duration": 0.0162,
      "velocity": 85,
      "chip": "ym2612"
    },
    {
      "channel": 2,
      "note": 54,
      "start": 16.1481,
      "duration": 0.0162,
      "velocity": 100,
      "chip": "ym2612"
    },
    {
      "channel": 1,
      "note": 95,
      "start": 16.1493,
      "duration": 0.0161,
      "velocity": 85,
      "chip": "ym2612"
    },
    {
      "channel": 0,
      "note": 77,
      "start": 16.1596,
      "duration": 0.0161,
      "velocity": 124,
      "chip": "ym2612"
    },
    {
      "channel": 5,
      "note": 76,
      "start": 16.1608,
      "duration": 0.0161,
      "velocity": 110,
      "chip": "ym2612"
    },
    {
      "channel": 4,
      "note": 78,
      "start": 16.162,
      "duration": 0.0161,
      "velocity": 110,
      "chip": "ym2612"
    },
    {
      "channel": 2,
      "note": 54,
      "start": 16.1643,
      "duration": 0.0161,
      "velocity": 100,
      "chip": "ym2612"
    },
    {
      "channel": 0,
      "note": 75,
      "start": 16.1757,
      "duration": 0.0161,
      "velocity": 124,
      "chip": "ym2612"
    },
    {
      "channel": 5,
      "note": 76,
      "start": 16.1769,
      "duration": 0.0161,
      "velocity": 110,
      "chip": "ym2612"
    },
    {
      "channel": 4,
      "note": 78,
      "start": 16.178,
      "duration": 0.0161,
      "velocity": 110,
      "chip": "ym2612"
    },
    {
      "channel": 2,
      "note": 54,
      "start": 16.1804,
      "duration": 0.0161,
      "velocity": 100,
      "chip": "ym2612"
    },
    {
      "channel": 0,
      "note": 72,
      "start": 16.1918,
      "duration": 0.0179,
      "velocity": 115,
      "chip": "ym2612"
    },
    {
      "channel": 5,
      "note": 76,
      "start": 16.193,
      "duration": 0.0179,
      "velocity": 110,
      "chip": "ym2612"
    },
    {
      "channel": 4,
      "note": 78,
      "start": 16.1941,
      "duration": 0.018,
      "velocity": 110,
      "chip": "ym2612"
    },
    {
      "channel": 2,
      "note": 54,
      "start": 16.1965,
      "duration": 0.0185,
      "velocity": 100,
      "chip": "ym2612"
    },
    {
      "channel": 0,
      "note": 36,
      "start": 16.2098,
      "duration": 0.0143,
      "velocity": 115,
      "chip": "ym2612"
    },
    {
      "channel": 5,
      "note": 76,
      "start": 16.2109,
      "duration": 0.0143,
      "velocity": 110,
      "chip": "ym2612"
    },
    {
      "channel": 4,
      "note": 78,
      "start": 16.2121,
      "duration": 0.0143,
      "velocity": 110,
      "chip": "ym2612"
    },
    {
      "channel": 3,
      "note": 97,
      "start": 16.2136,
      "duration": 0.0141,
      "velocity": 85,
      "chip": "ym2612"
    },
    {
      "channel": 2,
      "note": 66,
      "start": 16.215,
      "duration": 0.0139,
      "velocity": 100,
      "chip": "ym2612"
    },
    {
      "channel": 1,
      "note": 94,
      "start": 16.2165,
      "duration": 0.0136,
      "velocity": 85,
      "chip": "ym2612"
    },
    {
      "channel": 0,
      "note": 36,
      "start": 16.2241,
      "duration": 0.016,
      "velocity": 115,
      "chip": "ym2612"
    },
    {
      "channel": 3,
      "note": 97,
      "start": 16.2277,
      "duration": 0.016,
      "velocity": 85,
      "chip": "ym2612"
    },
    {
      "channel": 2,
      "note": 66,
      "start": 16.2289,
      "duration": 0.0159,
      "velocity": 100,
      "chip": "ym2612"
    },
    {
      "channel": 1,
      "note": 94,
      "start": 16.2301,
      "duration": 0.0159,
      "velocity": 85,
      "chip": "ym2612"
    },
    {
      "channel": 0,
      "note": 37,
      "start": 16.2401,
      "duration": 0.0161,
      "velocity": 115,
      "chip": "ym2612"
    },
    {
      "channel": 3,
      "note": 97,
      "start": 16.2436,
      "duration": 0.0161,
      "velocity": 85,
      "chip": "ym2612"
    },
    {
      "channel": 2,
      "note": 66,
      "start": 16.2448,
      "duration": 0.0161,
      "velocity": 100,
      "chip": "ym2612"
    },
    {
      "channel": 1,
      "note": 94,
      "start": 16.2459,
      "duration": 0.0161,
      "velocity": 85,
      "chip": "ym2612"
    },
    {
      "channel": 0,
      "note": 37,
      "start": 16.2562,
      "duration": 0.0161,
      "velocity": 115,
      "chip": "ym2612"
    },
    {
      "channel": 3,
      "note": 97,
      "start": 16.2597,
      "duration": 0.0161,
      "velocity": 85,
      "chip": "ym2612"
    },
    {
      "channel": 2,
      "note": 66,
      "start": 16.2609,
      "duration": 0.0161,
      "velocity": 100,
      "chip": "ym2612"
    },
    {
      "channel": 1,
      "note": 94,
      "start": 16.262,
      "duration": 0.0161,
      "velocity": 85,
      "chip": "ym2612"
    },
    {
      "channel": 0,
      "note": 38,
      "start": 16.2723,
      "duration": 0.0161,
      "velocity": 115,
      "chip": "ym2612"
    },
    {
      "channel": 2,
      "note": 66,
      "start": 16.277,
      "duration": 0.0161,
      "velocity": 100,
      "chip": "ym2612"
    },
    {
      "channel": 0,
      "note": 38,
      "start": 16.2884,
      "duration": 0.0161,
      "velocity": 115,
      "chip": "ym2612"
    },
    {
      "channel": 2,
      "note": 66,
      "start": 16.2931,
      "duration": 0.0161,
      "velocity": 100,
      "chip": "ym2612"
    },
    {
      "channel": 0,
      "note": 39,
      "start": 16.3045,
      "duration": 0.0179,
      "velocity": 127,
      "chip": "ym2612"
    },
    {
      "channel": 2,
      "note": 66,
      "start": 16.3091,
      "duration": 0.0193,
      "velocity": 100,
      "chip": "ym2612"
    },
    {
      "channel": 0,
      "note": 88,
      "start": 16.3225,
      "duration": 0.0143,
      "velocity": 127,
      "chip": "ym2612"
    },
    {
      "channel": 5,
      "note": 78,
      "start": 16.324,
      "duration": 0.0141,
      "velocity": 110,
      "chip": "ym2612"
    },
    {
      "channel": 4,
      "note": 76,
      "start": 16.3256,
      "duration": 0.0137,
      "velocity": 110,
      "chip": "ym2612"
    },
    {
      "channel": 3,
      "note": 95,
      "start": 16.327,
      "duration": 0.0135,
      "velocity": 85,
      "chip": "ym2612"
    },
    {
      "channel": 2,
      "note": 56,
      "start": 16.3285,
      "duration": 0.0132,
      "velocity": 100,
      "chip": "ym2612"
    },
    {
      "channel": 1,
      "note": 97,
      "start": 16.33,
      "duration": 0.013,
      "velocity": 85,
      "chip": "ym2612"
    },
    {
      "channel": 0,
      "note": 86,
      "start": 16.3368,
      "duration": 0.0163,
      "velocity": 127,
      "chip": "ym2612"
    },
    {
      "channel": 5,
      "note": 78,
      "start": 16.3381,
      "duration": 0.0163,
      "velocity": 110,
      "chip": "ym2612"
    },
    {
      "channel": 4,
      "note": 76,
      "start": 16.3393,
      "duration": 0.0162,
      "velocity": 110,
      "chip": "ym2612"
    },
    {
      "channel": 3,
      "note": 95,
      "start": 16.3405,
      "duration": 0.0162,
      "velocity": 85,
      "chip": "ym2612"
    },
    {
      "channel": 2,
      "note": 56,
      "start": 16.3417,
      "duration": 0.0161,
      "velocity": 100,
      "chip": "ym2612"
    },
    {
      "channel": 1,
      "note": 97,
      "start": 16.343,
      "duration": 0.016,
      "velocity": 85,
      "chip": "ym2612"
    },
    {
      "channel": 0,
      "note": 85,
      "start": 16.3532,
      "duration": 0.0181,
      "velocity": 127,
      "chip": "ym2612"
    },
    {
      "channel": 5,
      "note": 78,
      "start": 16.3544,
      "duration": 0.0181,
      "velocity": 110,
      "chip": "ym2612"
    },
    {
      "channel": 4,
      "note": 76,
      "start": 16.3555,
      "duration": 0.0182,
      "velocity": 110,
      "chip": "ym2612"
    },
    {
      "channel": 3,
      "note": 95,
      "start": 16.3567,
      "duration": 0.0182,
      "velocity": 85,
      "chip": "ym2612"
    },
    {
      "channel": 2,
      "note": 56,
      "start": 16.3578,
      "duration": 0.0183,
      "velocity": 100,
      "chip": "ym2612"
    },
    {
      "channel": 1,
      "note": 97,
      "start": 16.359,
      "duration": 0.0182,
      "velocity": 85,
      "chip": "ym2612"
    },
    {
      "channel": 0,
      "note": 88,
      "start": 16.3714,
      "duration": 0.0143,
      "velocity": 127,
      "chip": "ym2612"
    },
    {
      "channel": 5,
      "note": 78,
      "start": 16.3725,
      "duration": 0.0143,
      "velocity": 110,
      "chip": "ym2612"
    },
    {
      "channel": 4,
      "note": 76,
      "start": 16.3737,
      "duration": 0.0143,
      "velocity": 110,
      "chip": "ym2612"
    },
    {
      "channel": 2,
      "note": 56,
      "start": 16.3761,
      "duration": 0.0142,
      "velocity": 100,
      "chip": "ym2612"
    },
    {
      "channel": 0,
      "note": 86,
      "start": 16.3857,
      "duration": 0.016,
      "velocity": 127,
      "chip": "ym2612"
    },
    {
      "channel": 5,
      "note": 78,
      "start": 16.3868,
      "duration": 0.016,
      "velocity": 110,
      "chip": "ym2612"
    },
    {
      "channel": 4,
      "note": 76,
      "start": 16.388,
      "duration": 0.016,
      "velocity": 110,
      "chip": "ym2612"
    },
    {
      "channel": 2,
      "note": 56,
      "start": 16.3903,
      "duration": 0.016,
      "velocity": 100,
      "chip": "ym2612"
    },
    {
      "channel": 0,
      "note": 85,
      "start": 16.4016,
      "duration": 0.018,
      "velocity": 127,
      "chip": "ym2612"
    },
    {
      "channel": 5,
      "note": 78,
      "start": 16.4029,
      "duration": 0.018,
      "velocity": 110,
      "chip": "ym2612"
    },
    {
      "channel": 4,
      "note": 76,
      "start": 16.4041,
      "duration": 0.018,
      "velocity": 110,
      "chip": "ym2612"
    },
    {
      "channel": 2,
      "note": 56,
      "start": 16.4063,
      "duration": 0.0183,
      "velocity": 100,
      "chip": "ym2612"
    },
    {
      "channel": 0,
      "note": 88,
      "start": 16.4197,
      "duration": 0.0137,
      "velocity": 127,
      "chip": "ym2612"
    },
    {
      "channel": 5,
      "note": 78,
      "start": 16.4208,
      "duration": 0.0143,
      "velocity": 110,
      "chip": "ym2612"
    },
    {
      "channel": 4,
      "note": 76,
      "start": 16.4221,
      "duration": 0.0142,
      "velocity": 110,
      "chip": "ym2612"
    },
    {
      "channel": 3,
      "note": 94,
      "start": 16.4235,
      "duration": 0.0141,
      "velocity": 85,
      "chip": "ym2612"
    },
    {
      "channel": 2,
      "note": 56,
      "start": 16.4247,
      "duration": 0.0141,
      "velocity": 100,
      "chip": "ym2612"
    },
    {
      "channel": 1,
      "note": 95,
      "start": 16.4261,
      "duration": 0.0138,
      "velocity": 85,
      "chip": "ym2612"
    },
    {
      "channel": 0,
      "note": 86,
      "start": 16.4334,
      "duration": 0.016,
      "velocity": 127,
      "chip": "ym2612"
    },
    {
      "channel": 3,
      "note": 94,
      "start": 16.4376,
      "duration": 0.016,
      "velocity": 85,
      "chip": "ym2612"
    },
    {
      "channel": 2,
      "note": 56,
      "start": 16.4387,
      "duration": 0.016,
      "velocity": 100,
      "chip": "ym2612"
    },
    {
      "channel": 1,
      "note": 95,
      "start": 16.4399,
      "duration": 0.0159,
      "velocity": 85,
      "chip": "ym2612"
    },
    {
      "channel": 0,
      "note": 85,
      "start": 16.4494,
      "duration": 0.0181,
      "velocity": 127,
      "chip": "ym2612"
    },
    {
      "channel": 3,
      "note": 94,
      "start": 16.4535,
      "duration": 0.018,
      "velocity": 85,
      "chip": "ym2612"
    },
    {
      "channel": 2,
      "note": 56,
      "start": 16.4547,
      "duration": 0.0179,
      "velocity": 100,
      "chip": "ym2612"
    },
    {
      "channel": 1,
      "note": 95,
      "start": 16.4558,
      "duration": 0.018,
      "velocity": 85,
      "chip": "ym2612"
    },
    {
      "channel": 0,
      "note": 88,
      "start": 16.4676,
      "duration": 0.0141,
      "velocity": 127,
      "chip": "ym2612"
    },
    {
      "channel": 3,
      "note": 94,
      "start": 16.4715,
      "duration": 0.0143,
      "velocity": 85,
      "chip": "ym2612"
    },
    {
      "channel": 2,
      "note": 56,
      "start": 16.4726,
      "duration": 0.0143,
      "velocity": 100,
      "chip": "ym2612"
    },
    {
      "channel": 1,
      "note": 95,
      "start": 16.4738,
      "duration": 0.0143,
      "velocity": 85,
      "chip": "ym2612"
    },
    {
      "channel": 0,
      "note": 86,
      "start": 16.4817,
      "duration": 0.016,
      "velocity": 127,
      "chip": "ym2612"
    },
    {
      "channel": 2,
      "note": 56,
      "start": 16.4869,
      "duration": 0.016,
      "velocity": 100,
      "chip": "ym2612"
    },
    {
      "channel": 0,
      "note": 85,
      "start": 16.4977,
      "duration": 0.0161,
      "velocity": 127,
      "chip": "ym2612"
    },
    {
      "channel": 2,
      "note": 56,
      "start": 16.503,
      "duration": 0.0161,
      "velocity": 100,
      "chip": "ym2612"
    },
    {
      "channel": 0,
      "note": 83,
      "start": 16.5138,
      "duration": 0.018,
      "velocity": 127,
      "chip": "ym2612"
    },
    {
      "channel": 2,
      "note": 56,
      "start": 16.5191,
      "duration": 0.0193,
      "velocity": 100,
      "chip": "ym2612"
    },
    {
      "channel": 0,
      "note": 84,
      "start": 16.5318,
      "duration": 0.0143,
      "velocity": 127,
      "chip": "ym2612"
    },
    {
      "channel": 5,
      "note": 76,
      "start": 16.5334,
      "duration": 0.0139,
      "velocity": 110,
      "chip": "ym2612"
    },
    {
      "channel": 4,
      "note": 78,
      "start": 16.5356,
      "duration": 0.013,
      "velocity": 110,
      "chip": "ym2612"
    },
    {
      "channel": 3,
      "note": 97,
      "start": 16.537,
      "duration": 0.0128,
      "velocity": 85,
      "chip": "ym2612"
    },
    {
      "channel": 2,
      "note": 58,
      "start": 16.5385,
      "duration": 0.013,
      "velocity": 100,
      "chip": "ym2612"
    },
    {
      "channel": 1,
      "note": 94,
      "start": 16.5399,
      "duration": 0.0129,
      "velocity": 85,
      "chip": "ym2612"
    },
    {
      "channel": 0,
      "note": 82,
      "start": 16.5461,
      "duration": 0.016,
      "velocity": 127,
      "chip": "ym2612"
    },
    {
      "channel": 5,
      "note": 76,
      "start": 16.5473,
      "duration": 0.016,
      "velocity": 110,
      "chip": "ym2612"
    },
    {
      "channel": 4,
      "note": 78,
      "start": 16.5486,
      "duration": 0.0159,
      "velocity": 110,
      "chip": "ym2612"
    },
    {
      "channel": 3,
      "note": 97,
      "start": 16.5498,
      "duration": 0.0158,
      "velocity": 85,
      "chip": "ym2612"
    },
    {
      "channel": 2,
      "note": 58,
      "start": 16.5515,
      "duration": 0.0153,
      "velocity": 100,
      "chip": "ym2612"
    },
    {
      "channel": 1,
      "note": 94,
      "start": 16.5529,
      "duration": 0.0156,
      "velocity": 85,
      "chip": "ym2612"
    },
    {
      "channel": 0,
      "note": 81,
      "start": 16.5621,
      "duration": 0.0161,
      "velocity": 127,
      "chip": "ym2612"
    },
    {
      "channel": 5,
      "note": 76,
      "start": 16.5633,
      "duration": 0.0161,
      "velocity": 110,
      "chip": "ym2612"
    },
    {
      "channel": 4,
      "note": 78,
      "start": 16.5645,
      "duration": 0.0161,
      "velocity": 110,
      "chip": "ym2612"
    },
    {
      "channel": 3,
      "note": 97,
      "start": 16.5656,
      "duration": 0.0161,
      "velocity": 85,
      "chip": "ym2612"
    },
    {
      "channel": 2,
      "note": 58,
      "start": 16.5668,
      "duration": 0.0161,
      "velocity": 100,
      "chip": "ym2612"
    },
    {
      "channel": 1,
      "note": 94,
      "start": 16.5685,
      "duration": 0.0158,
      "velocity": 85,
      "chip": "ym2612"
    },
    {
      "channel": 0,
      "note": 79,
      "start": 16.5782,
      "duration": 0.0161,
      "velocity": 127,
      "chip": "ym2612"
    },
    {
      "channel": 5,
      "note": 76,
      "start": 16.5794,
      "duration": 0.0162,
      "velocity": 110,
      "chip": "ym2612"
    },
    {
      "channel": 4,
      "note": 78,
      "start": 16.5806,
      "duration": 0.0161,
      "velocity": 110,
      "chip": "ym2612"
    },
    {
      "channel": 2,
      "note": 58,
      "start": 16.5829,
      "duration": 0.0161,
      "velocity": 100,
      "chip": "ym2612"
    },
    {
      "channel": 0,
      "note": 77,
      "start": 16.5943,
      "duration": 0.0161,
      "velocity": 127,
      "chip": "ym2612"
    },
    {
      "channel": 5,
      "note": 76,
      "start": 16.5955,
      "duration": 0.0161,
      "velocity": 110,
      "chip": "ym2612"
    },
    {
      "channel": 4,
      "note": 78,
      "start": 16.5967,
      "duration": 0.0161,
      "velocity": 110,
      "chip": "ym2612"
    },
    {
      "channel": 2,
      "note": 58,
      "start": 16.599,
      "duration": 0.0161,
      "velocity": 100,
      "chip": "ym2612"
    },
    {
      "channel": 0,
      "note": 76,
      "start": 16.6104,
      "duration": 0.018,
      "velocity": 127,
      "chip": "ym2612"
    },
    {
      "channel": 5,
      "note": 76,
      "start": 16.6116,
      "duration": 0.018,
      "velocity": 110,
      "chip": "ym2612"
    },
    {
      "channel": 4,
      "note": 78,
      "start": 16.6128,
      "duration": 0.018,
      "velocity": 110,
      "chip": "ym2612"
    },
    {
      "channel": 2,
      "note": 58,
      "start": 16.6151,
      "duration": 0.0183,
      "velocity": 100,
      "chip": "ym2612"
    },
    {
      "channel": 0,
      "note": 78,
      "start": 16.6284,
      "duration": 0.0143,
      "velocity": 127,
      "chip": "ym2612"
    },
    {
      "channel": 5,
      "note": 76,
      "start": 16.6296,
      "duration": 0.0142,
      "velocity": 110,
      "chip": "ym2612"
    },
    {
      "channel": 4,
      "note": 78,
      "start": 16.6308,
      "duration": 0.0143,
      "velocity": 110,
      "chip": "ym2612"
    },
    {
      "channel": 3,
      "note": 95,
      "start": 16.6322,
      "duration": 0.0141,
      "velocity": 85,
      "chip": "ym2612"
    },
    {
      "channel": 2,
      "note": 58,
      "start": 16.6334,
      "duration": 0.0141,
      "velocity": 100,
      "chip": "ym2612"
    },
    {
      "channel": 1,
      "note": 92,
      "start": 16.6355,
      "duration": 0.0132,
      "velocity": 85,
      "chip": "ym2612"
    },
    {
      "channel": 0,
      "note": 76,
      "start": 16.6427,
      "duration": 0.016,
      "velocity": 127,
      "chip": "ym2612"
    },
    {
      "channel": 3,
      "note": 95,
      "start": 16.6463,
      "duration": 0.016,
      "velocity": 85,
      "chip": "ym2612"
    },
    {
      "channel": 2,
      "note": 58,
      "start": 16.6474,
      "duration": 0.016,
      "velocity": 100,
      "chip": "ym2612"
    },
    {
      "channel": 1,
      "note": 92,
      "start": 16.6486,
      "duration": 0.0159,
      "velocity": 85,
      "chip": "ym2612"
    },
    {
      "channel": 0,
      "note": 75,
      "start": 16.6587,
      "duration": 0.0161,
      "velocity": 127,
      "chip": "ym2612"
    },
    {
      "channel": 3,
      "note": 95,
      "start": 16.6623,
      "duration": 0.0161,
      "velocity": 85,
      "chip": "ym2612"
    },
    {
      "channel": 2,
      "note": 58,
      "start": 16.6634,
      "duration": 0.0161,
      "velocity": 100,
      "chip": "ym2612"
    },
    {
      "channel": 1,
      "note": 92,
      "start": 16.6646,
      "duration": 0.0161,
      "velocity": 85,
      "chip": "ym2612"
    },
    {
      "channel": 0,
      "note": 73,
      "start": 16.6748,
      "duration": 0.0162,
      "velocity": 127,
      "chip": "ym2612"
    },
    {
      "channel": 3,
      "note": 95,
      "start": 16.6784,
      "duration": 0.0161,
      "velocity": 85,
      "chip": "ym2612"
    },
    {
      "channel": 2,
      "note": 58,
      "start": 16.6795,
      "duration": 0.0161,
      "velocity": 100,
      "chip": "ym2612"
    },
    {
      "channel": 1,
      "note": 92,
      "start": 16.6807,
      "duration": 0.0161,
      "velocity": 85,
      "chip": "ym2612"
    },
    {
      "channel": 0,
      "note": 71,
      "start": 16.691,
      "duration": 0.0161,
      "velocity": 127,
      "chip": "ym2612"
    },
    {
      "channel": 2,
      "note": 58,
      "start": 16.6956,
      "duration": 0.0161,
      "velocity": 100,
      "chip": "ym2612"
    },
    {
      "channel": 0,
      "note": 70,
      "start": 16.7071,
      "duration": 0.0161,
      "velocity": 127,
      "chip": "ym2612"
    },
    {
      "channel": 2,
      "note": 58,
      "start": 16.7117,
      "duration": 0.0161,
      "velocity": 100,
      "chip": "ym2612"
    },
    {
      "channel": 0,
      "note": 68,
      "start": 16.7231,
      "duration": 0.0179,
      "velocity": 115,
      "chip": "ym2612"
    },
    {
      "channel": 2,
      "note": 58,
      "start": 16.7278,
      "duration": 0.0193,
      "velocity": 100,
      "chip": "ym2612"
    },
    {
      "channel": 0,
      "note": 36,
      "start": 16.7411,
      "duration": 0.0143,
      "velocity": 115,
      "chip": "ym2612"
    },
    {
      "channel": 5,
      "note": 78,
      "start": 16.7426,
      "duration": 0.0141,
      "velocity": 110,
      "chip": "ym2612"
    },
    {
      "channel": 4,
      "note": 76,
      "start": 16.7441,
      "duration": 0.0137,
      "velocity": 110,
      "chip": "ym2612"
    },
    {
      "channel": 3,
      "note": 94,
      "start": 16.7456,
      "duration": 0.0135,
      "velocity": 85,
      "chip": "ym2612"
    },
    {
      "channel": 2,
      "note": 59,
      "start": 16.7471,
      "duration": 0.0132,
      "velocity": 100,
      "chip": "ym2612"
    },
    {
      "channel": 1,
      "note": 90,
      "start": 16.7486,
      "duration": 0.0129,
      "velocity": 85,
      "chip": "ym2612"
    },
    {
      "channel": 0,
      "note": 36,
      "start": 16.7554,
      "duration": 0.016,
      "velocity": 115,
      "chip": "ym2612"
    },
    {
      "channel": 5,
      "note": 78,
      "start": 16.7567,
      "duration": 0.016,
      "velocity": 110,
      "chip": "ym2612"
    },
    {
      "channel": 4,
      "note": 76,
      "start": 16.7579,
      "duration": 0.0159,
      "velocity": 110,
      "chip": "ym2612"
    },
    {
      "channel": 3,
      "note": 94,
      "start": 16.7591,
      "duration": 0.0159,
      "velocity": 85,
      "chip": "ym2612"
    },
    {
      "channel": 2,
      "note": 59,
      "start": 16.7603,
      "duration": 0.0158,
      "velocity": 100,
      "chip": "ym2612"
    },
    {
      "channel": 1,
      "note": 90,
      "start": 16.7615,
      "duration": 0.0158,
      "velocity": 85,
      "chip": "ym2612"
    },
    {
      "channel": 0,
      "note": 37,
      "start": 16.7714,
      "duration": 0.0161,
      "velocity": 115,
      "chip": "ym2612"
    },
    {
      "channel": 5,
      "note": 78,
      "start": 16.7726,
      "duration": 0.0161,
      "velocity": 110,
      "chip": "ym2612"
    },
    {
      "channel": 4,
      "note": 76,
      "start": 16.7738,
      "duration": 0.0161,
      "velocity": 110,
      "chip": "ym2612"
    },
    {
      "channel": 3,
      "note": 94,
      "start": 16.7749,
      "duration": 0.0162,
      "velocity": 85,
      "chip": "ym2612"
    },
    {
      "channel": 2,
      "note": 59,
      "start": 16.7761,
      "duration": 0.0161,
      "velocity": 100,
      "chip": "ym2612"
    },
    {
      "channel": 1,
      "note": 90,
      "start": 16.7773,
      "duration": 0.0161,
      "velocity": 85,
      "chip": "ym2612"
    },
    {
      "channel": 0,
      "note": 37,
      "start": 16.7875,
      "duration": 0.0162,
      "velocity": 115,
      "chip": "ym2612"
    },
    {
      "channel": 5,
      "note": 78,
      "start": 16.7887,
      "duration": 0.0161,
      "velocity": 110,
      "chip": "ym2612"
    },
    {
      "channel": 4,
      "note": 76,
      "start": 16.7899,
      "duration": 0.0162,
      "velocity": 110,
      "chip": "ym2612"
    },
    {
      "channel": 2,
      "note": 59,
      "start": 16.7922,
      "duration": 0.0162,
      "velocity": 100,
      "chip": "ym2612"
    },
    {
      "channel": 1,
      "note": 90,
      "start": 16.7934,
      "duration": 0.0161,
      "velocity": 85,
      "chip": "ym2612"
    },
    {
      "channel": 0,
      "note": 38,
      "start": 16.8037,
      "duration": 0.0163,
      "velocity": 115,
      "chip": "ym2612"
    },
    {
      "channel": 5,
      "note": 78,
      "start": 16.8049,
      "duration": 0.0163,
      "velocity": 110,
      "chip": "ym2612"
    },
    {
      "channel": 4,
      "note": 76,
      "start": 16.806,
      "duration": 0.0163,
      "velocity": 110,
      "chip": "ym2612"
    },
    {
      "channel": 2,
      "note": 59,
      "start": 16.8084,
      "duration": 0.0163,
      "velocity": 100,
      "chip": "ym2612"
    },
    {
      "channel": 1,
      "note": 90,
      "start": 16.8095,
      "duration": 0.0163,
      "velocity": 85,
      "chip": "ym2612"
    },
    {
      "channel": 0,
      "note": 38,
      "start": 16.8201,
      "duration": 0.0163,
      "velocity": 115,
      "chip": "ym2612"
    },
    {
      "channel": 5,
      "note": 78,
      "start": 16.8212,
      "duration": 0.0163,
      "velocity": 110,
      "chip": "ym2612"
    },
    {
      "channel": 4,
      "note": 76,
      "start": 16.8224,
      "duration": 0.0163,
      "velocity": 110,
      "chip": "ym2612"
    },
    {
      "channel": 2,
      "note": 59,
      "start": 16.8247,
      "duration": 0.0166,
      "velocity": 100,
      "chip": "ym2612"
    },
    {
      "channel": 1,
      "note": 90,
      "start": 16.8259,
      "duration": 0.0167,
      "velocity": 85,
      "chip": "ym2612"
    },
    {
      "channel": 0,
      "note": 39,
      "start": 16.8364,
      "duration": 0.0162,
      "velocity": 115,
      "chip": "ym2612"
    },
    {
      "channel": 5,
      "note": 78,
      "start": 16.8376,
      "duration": 0.0162,
      "velocity": 110,
      "chip": "ym2612"
    },
    {
      "channel": 4,
      "note": 76,
      "start": 16.8387,
      "duration": 0.0161,
      "velocity": 110,
      "chip": "ym2612"
    },
    {
      "channel": 3,
      "note": 92,
      "start": 16.8402,
      "duration": 0.016,
      "velocity": 85,
      "chip": "ym2612"
    },
    {
      "channel": 2,
      "note": 59,
      "start": 16.8413,
      "duration": 0.016,
      "velocity": 100,
      "chip": "ym2612"
    },
    {
      "channel": 1,
      "note": 90,
      "start": 16.8425,
      "duration": 0.0159,
      "velocity": 85,
      "chip": "ym2612"
    },
    {
      "channel": 0,
      "note": 39,
      "start": 16.8525,
      "duration": 0.016,
      "velocity": 115,
      "chip": "ym2612"
    },
    {
      "channel": 3,
      "note": 92,
      "start": 16.8561,
      "duration": 0.016,
      "velocity": 85,
      "chip": "ym2612"
    },
    {
      "channel": 2,
      "note": 59,
      "start": 16.8573,
      "duration": 0.016,
      "velocity": 100,
      "chip": "ym2612"
    },
    {
      "channel": 1,
      "note": 90,
      "start": 16.8584,
      "duration": 0.016,
      "velocity": 85,
      "chip": "ym2612"
    },
    {
      "channel": 0,
      "note": 40,
      "start": 16.8685,
      "duration": 0.0162,
      "velocity": 115,
      "chip": "ym2612"
    },
    {
      "channel": 3,
      "note": 92,
      "start": 16.8721,
      "duration": 0.0161,
      "velocity": 85,
      "chip": "ym2612"
    },
    {
      "channel": 2,
      "note": 59,
      "start": 16.8733,
      "duration": 0.0162,
      "velocity": 100,
      "chip": "ym2612"
    },
    {
      "channel": 1,
      "note": 90,
      "start": 16.8745,
      "duration": 0.0161,
      "velocity": 85,
      "chip": "ym2612"
    },
    {
      "channel": 0,
      "note": 40,
      "start": 16.8847,
      "duration": 0.0155,
      "velocity": 115,
      "chip": "ym2612"
    },
    {
      "channel": 3,
      "note": 92,
      "start": 16.8883,
      "duration": 0.0161,
      "velocity": 85,
      "chip": "ym2612"
    },
    {
      "channel": 2,
      "note": 59,
      "start": 16.8894,
      "duration": 0.0161,
      "velocity": 100,
      "chip": "ym2612"
    },
    {
      "channel": 1,
      "note": 90,
      "start": 16.8906,
      "duration": 0.0162,
      "velocity": 85,
      "chip": "ym2612"
    },
    {
      "channel": 0,
      "note": 40,
      "start": 16.9002,
      "duration": 0.0161,
      "velocity": 115,
      "chip": "ym2612"
    },
    {
      "channel": 2,
      "note": 59,
      "start": 16.9055,
      "duration": 0.0161,
      "velocity": 100,
      "chip": "ym2612"
    },
    {
      "channel": 1,
      "note": 90,
      "start": 16.9067,
      "duration": 0.016,
      "velocity": 85,
      "chip": "ym2612"
    },
    {
      "channel": 0,
      "note": 41,
      "start": 16.9163,
      "duration": 0.0161,
      "velocity": 115,
      "chip": "ym2612"
    },
    {
      "channel": 2,
      "note": 59,
      "start": 16.9216,
      "duration": 0.0161,
      "velocity": 100,
      "chip": "ym2612"
    },
    {
      "channel": 1,
      "note": 90,
      "start": 16.9228,
      "duration": 0.0161,
      "velocity": 85,
      "chip": "ym2612"
    },
    {
      "channel": 0,
      "note": 41,
      "start": 16.9324,
      "duration": 0.0161,
      "velocity": 115,
      "chip": "ym2612"
    },
    {
      "channel": 2,
      "note": 59,
      "start": 16.9377,
      "duration": 0.0176,
      "velocity": 100,
      "chip": "ym2612"
    },
    {
      "channel": 1,
      "note": 90,
      "start": 16.9388,
      "duration": 0.0176,
      "velocity": 85,
      "chip": "ym2612"
    },
    {
      "channel": 0,
      "note": 42,
      "start": 16.9485,
      "duration": 0.0161,
      "velocity": 115,
      "chip": "ym2612"
    },
    {
      "channel": 5,
      "note": 71,
      "start": 16.9502,
      "duration": 0.0156,
      "velocity": 110,
      "chip": "ym2612"
    },
    {
      "channel": 4,
      "note": 75,
      "start": 16.9526,
      "duration": 0.0145,
      "velocity": 110,
      "chip": "ym2612"
    },
    {
      "channel": 3,
      "note": 90,
      "start": 16.9541,
      "duration": 0.0148,
      "velocity": 85,
      "chip": "ym2612"
    },
    {
      "channel": 2,
      "note": 59,
      "start": 16.9553,
      "duration": 0.0148,
      "velocity": 100,
      "chip": "ym2612"
    },
    {
      "channel": 0,
      "note": 42,
      "start": 16.9647,
      "duration": 0.0161,
      "velocity": 115,
      "chip": "ym2612"
    },
    {
      "channel": 5,
      "note": 71,
      "start": 16.9659,
      "duration": 0.016,
      "velocity": 110,
      "chip": "ym2612"
    },
    {
      "channel": 4,
      "note": 75,
      "start": 16.9671,
      "duration": 0.016,
      "velocity": 110,
      "chip": "ym2612"
    },
    {
      "channel": 3,
      "note": 90,
      "start": 16.9689,
      "duration": 0.0159,
      "velocity": 85,
      "chip": "ym2612"
    },
    {
      "channel": 2,
      "note": 59,
      "start": 16.9701,
      "duration": 0.0159,
      "velocity": 100,
      "chip": "ym2612"
    },
    {
      "channel": 0,
      "note": 43,
      "start": 16.9808,
      "duration": 0.0161,
      "velocity": 115,
      "chip": "ym2612"
    },
    {
      "channel": 5,
      "note": 71,
      "start": 16.9819,
      "duration": 0.0161,
      "velocity": 110,
      "chip": "ym2612"
    },
    {
      "channel": 4,
      "note": 75,
      "start": 16.9831,
      "duration": 0.0161,
      "velocity": 110,
      "chip": "ym2612"
    },
    {
      "channel": 3,
      "note": 90,
      "start": 16.9848,
      "duration": 0.0156,
      "velocity": 85,
      "chip": "ym2612"
    },
    {
      "channel": 2,
      "note": 59,
      "start": 16.986,
      "duration": 0.0161,
      "velocity": 100,
      "chip": "ym2612"
    },
    {
      "channel": 0,
      "note": 43,
      "start": 16.9969,
      "duration": 0.0161,
      "velocity": 115,
      "chip": "ym2612"
    },
    {
      "channel": 3,
      "note": 90,
      "start": 17.0004,
      "duration": 0.0161,
      "velocity": 85,
      "chip": "ym2612"
    },
    {
      "channel": 2,
      "note": 59,
      "start": 17.0021,
      "duration": 0.0161,
      "velocity": 100,
      "chip": "ym2612"
    },
    {
      "channel": 0,
      "note": 44,
      "start": 17.013,
      "duration": 0.0161,
      "velocity": 115,
      "chip": "ym2612"
    },
    {
      "channel": 3,
      "note": 90,
      "start": 17.0165,
      "duration": 0.0161,
      "velocity": 85,
      "chip": "ym2612"
    },
    {
      "channel": 2,
      "note": 59,
      "start": 17.0182,
      "duration": 0.0155,
      "velocity": 100,
      "chip": "ym2612"
    },
    {
      "channel": 0,
      "note": 44,
      "start": 17.029,
      "duration": 0.0179,
      "velocity": 115,
      "chip": "ym2612"
    },
    {
      "channel": 3,
      "note": 90,
      "start": 17.0326,
      "duration": 0.0191,
      "velocity": 85,
      "chip": "ym2612"
    },
    {
      "channel": 2,
      "note": 59,
      "start": 17.0337,
      "duration": 0.0195,
      "velocity": 100,
      "chip": "ym2612"
    },
    {
      "channel": 0,
      "note": 36,
      "start": 17.047,
      "duration": 0.0143,
      "velocity": 115,
      "chip": "ym2612"
    },
    {
      "channel": 5,
      "note": 71,
      "start": 17.0485,
      "duration": 0.0141,
      "velocity": 110,
      "chip": "ym2612"
    },
    {
      "channel": 4,
      "note": 75,
      "start": 17.0499,
      "duration": 0.0139,
      "velocity": 110,
      "chip": "ym2612"
    },
    {
      "channel": 3,
      "note": 90,
      "start": 17.0516,
      "duration": 0.0133,
      "velocity": 85,
      "chip": "ym2612"
    },
    {
      "channel": 2,
      "note": 59,
      "start": 17.0532,
      "duration": 0.013,
      "velocity": 100,
      "chip": "ym2612"
    },
    {
      "channel": 0,
      "note": 36,
      "start": 17.0613,
      "duration": 0.016,
      "velocity": 115,
      "chip": "ym2612"
    },
    {
      "channel": 5,
      "note": 71,
      "start": 17.0626,
      "duration": 0.016,
      "velocity": 110,
      "chip": "ym2612"
    },
    {
      "channel": 4,
      "note": 75,
      "start": 17.0638,
      "duration": 0.0159,
      "velocity": 110,
      "chip": "ym2612"
    },
    {
      "channel": 3,
      "note": 90,
      "start": 17.0649,
      "duration": 0.016,
      "velocity": 85,
      "chip": "ym2612"
    },
    {
      "channel": 2,
      "note": 59,
      "start": 17.0661,
      "duration": 0.0159,
      "velocity": 100,
      "chip": "ym2612"
    },
    {
      "channel": 0,
      "note": 37,
      "start": 17.0773,
      "duration": 0.0161,
      "velocity": 115,
      "chip": "ym2612"
    },
    {
      "channel": 5,
      "note": 71,
      "start": 17.0785,
      "duration": 0.0161,
      "velocity": 110,
      "chip": "ym2612"
    },
    {
      "channel": 4,
      "note": 75,
      "start": 17.0797,
      "duration": 0.0161,
      "velocity": 110,
      "chip": "ym2612"
    },
    {
      "channel": 3,
      "note": 90,
      "start": 17.0809,
      "duration": 0.0161,
      "velocity": 85,
      "chip": "ym2612"
    },
    {
      "channel": 2,
      "note": 59,
      "start": 17.082,
      "duration": 0.0161,
      "velocity": 100,
      "chip": "ym2612"
    },
    {
      "channel": 0,
      "note": 37,
      "start": 17.0934,
      "duration": 0.0162,
      "velocity": 115,
      "chip": "ym2612"
    },
    {
      "channel": 5,
      "note": 71,
      "start": 17.0946,
      "duration": 0.0161,
      "velocity": 110,
      "chip": "ym2612"
    },
    {
      "channel": 4,
      "note": 75,
      "start": 17.0958,
      "duration": 0.0162,
      "velocity": 110,
      "chip": "ym2612"
    },
    {
      "channel": 3,
      "note": 90,
      "start": 17.097,
      "duration": 0.0161,
      "velocity": 85,
      "chip": "ym2612"
    },
    {
      "channel": 2,
      "note": 59,
      "start": 17.0981,
      "duration": 0.0161,
      "velocity": 100,
      "chip": "ym2612"
    },
    {
      "channel": 0,
      "note": 38,
      "start": 17.1096,
      "duration": 0.0161,
      "velocity": 115,
      "chip": "ym2612"
    },
    {
      "channel": 3,
      "note": 90,
      "start": 17.1131,
      "duration": 0.0161,
      "velocity": 85,
      "chip": "ym2612"
    },
    {
      "channel": 2,
      "note": 59,
      "start": 17.1142,
      "duration": 0.0161,
      "velocity": 100,
      "chip": "ym2612"
    },
    {
      "channel": 0,
      "note": 38,
      "start": 17.1257,
      "duration": 0.0161,
      "velocity": 115,
      "chip": "ym2612"
    },
    {
      "channel": 3,
      "note": 90,
      "start": 17.1292,
      "duration": 0.0161,
      "velocity": 85,
      "chip": "ym2612"
    },
    {
      "channel": 2,
      "note": 59,
      "start": 17.1303,
      "duration": 0.0161,
      "velocity": 100,
      "chip": "ym2612"
    },
    {
      "channel": 0,
      "note": 39,
      "start": 17.1418,
      "duration": 0.0179,
      "velocity": 124,
      "chip": "ym2612"
    },
    {
      "channel": 3,
      "note": 90,
      "start": 17.1453,
      "duration": 0.0186,
      "velocity": 85,
      "chip": "ym2612"
    },
    {
      "channel": 2,
      "note": 59,
      "start": 17.1464,
      "duration": 0.0187,
      "velocity": 100,
      "chip": "ym2612"
    },
    {
      "channel": 0,
      "note": 84,
      "start": 17.1597,
      "duration": 0.0143,
      "velocity": 124,
      "chip": "ym2612"
    },
    {
      "channel": 5,
      "note": 75,
      "start": 17.1612,
      "duration": 0.014,
      "velocity": 110,
      "chip": "ym2612"
    },
    {
      "channel": 4,
      "note": 71,
      "start": 17.1627,
      "duration": 0.0138,
      "velocity": 110,
      "chip": "ym2612"
    },
    {
      "channel": 3,
      "note": 90,
      "start": 17.1639,
      "duration": 0.0137,
      "velocity": 85,
      "chip": "ym2612"
    },
    {
      "channel": 2,
      "note": 59,
      "start": 17.1651,
      "duration": 0.0137,
      "velocity": 100,
      "chip": "ym2612"
    },
    {
      "channel": 1,
      "note": 63,
      "start": 17.1685,
      "duration": 0.0116,
      "velocity": 94,
      "chip": "ym2612"
    },
    {
      "channel": 0,
      "note": 82,
      "start": 17.174,
      "duration": 0.016,
      "velocity": 124,
      "chip": "ym2612"
    },
    {
      "channel": 5,
      "note": 75,
      "start": 17.1752,
      "duration": 0.016,
      "velocity": 110,
      "chip": "ym2612"
    },
    {
      "channel": 4,
      "note": 71,
      "start": 17.1765,
      "duration": 0.0159,
      "velocity": 110,
      "chip": "ym2612"
    },
    {
      "channel": 3,
      "note": 90,
      "start": 17.1777,
      "duration": 0.0159,
      "velocity": 85,
      "chip": "ym2612"
    },
    {
      "channel": 2,
      "note": 59,
      "start": 17.1789,
      "duration": 0.0159,
      "velocity": 100,
      "chip": "ym2612"
    },
    {
      "channel": 1,
      "note": 63,
      "start": 17.1801,
      "duration": 0.0159,
      "velocity": 94,
      "chip": "ym2612"
    },
    {
      "channel": 0,
      "note": 80,
      "start": 17.1901,
      "duration": 0.0161,
      "velocity": 124,
      "chip": "ym2612"
    },
    {
      "channel": 5,
      "note": 75,
      "start": 17.1913,
      "duration": 0.0161,
      "velocity": 110,
      "chip": "ym2612"
    },
    {
      "channel": 4,
      "note": 71,
      "start": 17.1924,
      "duration": 0.0162,
      "velocity": 110,
      "chip": "ym2612"
    },
    {
      "channel": 3,
      "note": 90,
      "start": 17.1936,
      "duration": 0.0162,
      "velocity": 85,
      "chip": "ym2612"
    },
    {
      "channel": 2,
      "note": 59,
      "start": 17.1948,
      "duration": 0.0161,
      "velocity": 100,
      "chip": "ym2612"
    },
    {
      "channel": 1,
      "note": 63,
      "start": 17.196,
      "duration": 0.016,
      "velocity": 94,
      "chip": "ym2612"
    },
    {
      "channel": 0,
      "note": 77,
      "start": 17.2061,
      "duration": 0.0161,
      "velocity": 124,
      "chip": "ym2612"
    },
    {
      "channel": 3,
      "note": 90,
      "start": 17.2097,
      "duration": 0.0161,
      "velocity": 85,
      "chip": "ym2612"
    },
    {
      "channel": 2,
      "note": 59,
      "start": 17.2109,
      "duration": 0.0161,
      "velocity": 100,
      "chip": "ym2612"
    },
    {
      "channel": 1,
      "note": 63,
      "start": 17.212,
      "duration": 0.0161,
      "velocity": 94,
      "chip": "ym2612"
    },
    {
      "channel": 0,
      "note": 75,
      "start": 17.2222,
      "duration": 0.0162,
      "velocity": 124,
      "chip": "ym2612"
    },
    {
      "channel": 3,
      "note": 90,
      "start": 17.2258,
      "duration": 0.0161,
      "velocity": 85,
      "chip": "ym2612"
    },
    {
      "channel": 2,
      "note": 59,
      "start": 17.227,
      "duration": 0.0161,
      "velocity": 100,
      "chip": "ym2612"
    },
    {
      "channel": 1,
      "note": 63,
      "start": 17.2281,
      "duration": 0.0161,
      "velocity": 94,
      "chip": "ym2612"
    },
    {
      "channel": 0,
      "note": 72,
      "start": 17.2384,
      "duration": 0.0161,
      "velocity": 124,
      "chip": "ym2612"
    },
    {
      "channel": 3,
      "note": 90,
      "start": 17.2419,
      "duration": 0.0167,
      "velocity": 85,
      "chip": "ym2612"
    },
    {
      "channel": 2,
      "note": 59,
      "start": 17.2431,
      "duration": 0.0169,
      "velocity": 100,
      "chip": "ym2612"
    },
    {
      "channel": 1,
      "note": 63,
      "start": 17.2442,
      "duration": 0.0169,
      "velocity": 94,
      "chip": "ym2612"
    },
    {
      "channel": 0,
      "note": 70,
      "start": 17.2545,
      "duration": 0.0161,
      "velocity": 124,
      "chip": "ym2612"
    },
    {
      "channel": 5,
      "note": 75,
      "start": 17.256,
      "duration": 0.0159,
      "velocity": 110,
      "chip": "ym2612"
    },
    {
      "channel": 4,
      "note": 71,
      "start": 17.2574,
      "duration": 0.0156,
      "velocity": 110,
      "chip": "ym2612"
    },
    {
      "channel": 3,
      "note": 90,
      "start": 17.2586,
      "duration": 0.0156,
      "velocity": 85,
      "chip": "ym2612"
    },
    {
      "channel": 2,
      "note": 59,
      "start": 17.26,
      "duration": 0.0155,
      "velocity": 100,
      "chip": "ym2612"
    },
    {
      "channel": 1,
      "note": 63,
      "start": 17.2611,
      "duration": 0.0155,
      "velocity": 94,
      "chip": "ym2612"
    },
    {
      "channel": 0,
      "note": 68,
      "start": 17.2707,
      "duration": 0.0161,
      "velocity": 124,
      "chip": "ym2612"
    },
    {
      "channel": 5,
      "note": 75,
      "start": 17.2719,
      "duration": 0.016,
      "velocity": 110,
      "chip": "ym2612"
    },
    {
      "channel": 4,
      "note": 71,
      "start": 17.2731,
      "duration": 0.016,
      "velocity": 110,
      "chip": "ym2612"
    },
    {
      "channel": 2,
      "note": 59,
      "start": 17.2755,
      "duration": 0.016,
      "velocity": 100,
      "chip": "ym2612"
    },
    {
      "channel": 1,
      "note": 63,
      "start": 17.2766,
      "duration": 0.016,
      "velocity": 94,
      "chip": "ym2612"
    },
    {
      "channel": 0,
      "note": 65,
      "start": 17.2868,
      "duration": 0.0164,
      "velocity": 124,
      "chip": "ym2612"
    },
    {
      "channel": 5,
      "note": 75,
      "start": 17.2879,
      "duration": 0.0164,
      "velocity": 110,
      "chip": "ym2612"
    },
    {
      "channel": 4,
      "note": 71,
      "start": 17.2891,
      "duration": 0.0164,
      "velocity": 110,
      "chip": "ym2612"
    },
    {
      "channel": 2,
      "note": 59,
      "start": 17.2915,
      "duration": 0.0164,
      "velocity": 100,
      "chip": "ym2612"
    },
    {
      "channel": 1,
      "note": 63,
      "start": 17.2927,
      "duration": 0.0164,
      "velocity": 94,
      "chip": "ym2612"
    },
    {
      "channel": 0,
      "note": 63,
      "start": 17.3032,
      "duration": 0.0155,
      "velocity": 1,
      "chip": "ym2612"
    },
    {
      "channel": 5,
      "note": 75,
      "start": 17.3043,
      "duration": 0.0155,
      "velocity": 110,
      "chip": "ym2612"
    },
    {
      "channel": 4,
      "note": 71,
      "start": 17.3055,
      "duration": 0.0155,
      "velocity": 110,
      "chip": "ym2612"
    },
    {
      "channel": 2,
      "note": 59,
      "start": 17.3079,
      "duration": 0.0155,
      "velocity": 100,
      "chip": "ym2612"
    },
    {
      "channel": 1,
      "note": 63,
      "start": 17.3091,
      "duration": 0.0155,
      "velocity": 94,
      "chip": "ym2612"
    },
    {
      "channel": 2,
      "note": 59,
      "start": 17.3234,
      "duration": 0.0153,
      "velocity": 100,
      "chip": "ym2612"
    },
    {
      "channel": 1,
      "note": 63,
      "start": 17.3246,
      "duration": 0.0152,
      "velocity": 94,
      "chip": "ym2612"
    },
    {
      "channel": 2,
      "note": 59,
      "start": 17.3387,
      "duration": 0.0161,
      "velocity": 100,
      "chip": "ym2612"
    },
    {
      "channel": 1,
      "note": 63,
      "start": 17.3398,
      "duration": 0.0161,
      "velocity": 94,
      "chip": "ym2612"
    },
    {
      "channel": 2,
      "note": 59,
      "start": 17.3548,
      "duration": 0.0205,
      "velocity": 100,
      "chip": "ym2612"
    },
    {
      "channel": 1,
      "note": 63,
      "start": 17.3559,
      "duration": 0.0206,
      "velocity": 94,
      "chip": "ym2612"
    },
    {
      "channel": 0,
      "note": 36,
      "start": 17.3696,
      "duration": 0.0137,
      "velocity": 115,
      "chip": "ym2612"
    },
    {
      "channel": 5,
      "note": 71,
      "start": 17.3712,
      "duration": 0.0139,
      "velocity": 110,
      "chip": "ym2612"
    },
    {
      "channel": 4,
      "note": 75,
      "start": 17.3728,
      "duration": 0.0137,
      "velocity": 110,
      "chip": "ym2612"
    },
    {
      "channel": 2,
      "note": 54,
      "start": 17.3754,
      "duration": 0.0134,
      "velocity": 100,
      "chip": "ym2612"
    },
    {
      "channel": 1,
      "note": 63,
      "start": 17.3765,
      "duration": 0.0135,
      "velocity": 94,
      "chip": "ym2612"
    },
    {
      "channel": 0,
      "note": 36,
      "start": 17.3833,
      "duration": 0.016,
      "velocity": 115,
      "chip": "ym2612"
    },
    {
      "channel": 5,
      "note": 71,
      "start": 17.3851,
      "duration": 0.0156,
      "velocity": 110,
      "chip": "ym2612"
    },
    {
      "channel": 4,
      "note": 75,
      "start": 17.3864,
      "duration": 0.0158,
      "velocity": 110,
      "chip": "ym2612"
    },
    {
      "channel": 2,
      "note": 54,
      "start": 17.3888,
      "duration": 0.0158,
      "velocity": 100,
      "chip": "ym2612"
    },
    {
      "channel": 1,
      "note": 63,
      "start": 17.39,
      "duration": 0.0158,
      "velocity": 94,
      "chip": "ym2612"
    },
    {
      "channel": 0,
      "note": 37,
      "start": 17.3993,
      "duration": 0.0162,
      "velocity": 115,
      "chip": "ym2612"
    },
    {
      "channel": 5,
      "note": 71,
      "start": 17.4007,
      "duration": 0.0159,
      "velocity": 110,
      "chip": "ym2612"
    },
    {
      "channel": 4,
      "note": 75,
      "start": 17.4023,
      "duration": 0.0161,
      "velocity": 110,
      "chip": "ym2612"
    },
    {
      "channel": 2,
      "note": 54,
      "start": 17.4046,
      "duration": 0.0161,
      "velocity": 100,
      "chip": "ym2612"
    },
    {
      "channel": 1,
      "note": 63,
      "start": 17.4058,
      "duration": 0.0161,
      "velocity": 94,
      "chip": "ym2612"
    },
    {
      "channel": 0,
      "note": 37,
      "start": 17.4155,
      "duration": 0.0161,
      "velocity": 115,
      "chip": "ym2612"
    },
    {
      "channel": 5,
      "note": 71,
      "start": 17.4166,
      "duration": 0.0161,
      "velocity": 110,
      "chip": "ym2612"
    },
    {
      "channel": 4,
      "note": 75,
      "start": 17.4184,
      "duration": 0.0158,
      "velocity": 110,
      "chip": "ym2612"
    },
    {
      "channel": 2,
      "note": 54,
      "start": 17.4207,
      "duration": 0.0161,
      "velocity": 100,
      "chip": "ym2612"
    },
    {
      "channel": 1,
      "note": 63,
      "start": 17.4219,
      "duration": 0.0161,
      "velocity": 94,
      "chip": "ym2612"
    },
    {
      "channel": 0,
      "note": 38,
      "start": 17.4316,
      "duration": 0.0161,
      "velocity": 115,
      "chip": "ym2612"
    },
    {
      "channel": 5,
      "note": 71,
      "start": 17.4327,
      "duration": 0.0161,
      "velocity": 110,
      "chip": "ym2612"
    },
    {
      "channel": 4,
      "note": 75,
      "start": 17.4341,
      "duration": 0.0159,
      "velocity": 110,
      "chip": "ym2612"
    },
    {
      "channel": 2,
      "note": 54,
      "start": 17.4368,
      "duration": 0.0161,
      "velocity": 100,
      "chip": "ym2612"
    },
    {
      "channel": 1,
      "note": 63,
      "start": 17.438,
      "duration": 0.0161,
      "velocity": 94,
      "chip": "ym2612"
    },
    {
      "channel": 0,
      "note": 38,
      "start": 17.4477,
      "duration": 0.0179,
      "velocity": 115,
      "chip": "ym2612"
    },
    {
      "channel": 5,
      "note": 71,
      "start": 17.4488,
      "duration": 0.018,
      "velocity": 110,
      "chip": "ym2612"
    },
    {
      "channel": 4,
      "note": 75,
      "start": 17.45,
      "duration": 0.0185,
      "velocity": 110,
      "chip": "ym2612"
    },
    {
      "channel": 2,
      "note": 54,
      "start": 17.4529,
      "duration": 0.0183,
      "velocity": 100,
      "chip": "ym2612"
    },
    {
      "channel": 1,
      "note": 63,
      "start": 17.4541,
      "duration": 0.0183,
      "velocity": 94,
      "chip": "ym2612"
    },
    {
      "channel": 0,
      "note": 36,
      "start": 17.4656,
      "duration": 0.0143,
      "velocity": 115,
      "chip": "ym2612"
    },
    {
      "channel": 5,
      "note": 71,
      "start": 17.4668,
      "duration": 0.0143,
      "velocity": 110,
      "chip": "ym2612"
    },
    {
      "channel": 4,
      "note": 75,
      "start": 17.4685,
      "duration": 0.0138,
      "velocity": 110,
      "chip": "ym2612"
    },
    {
      "channel": 2,
      "note": 56,
      "start": 17.4712,
      "duration": 0.016,
      "velocity": 100,
      "chip": "ym2612"
    },
    {
      "channel": 1,
      "note": 63,
      "start": 17.4724,
      "duration": 0.016,
      "velocity": 94,
      "chip": "ym2612"
    },
    {
      "channel": 0,
      "note": 36,
      "start": 17.48,
      "duration": 0.016,
      "velocity": 115,
      "chip": "ym2612"
    },
    {
      "channel": 3,
      "note": 63,
      "start": 17.4859,
      "duration": 0.0137,
      "velocity": 94,
      "chip": "ym2612"
    },
    {
      "channel": 2,
      "note": 56,
      "start": 17.4871,
      "duration": 0.0138,
      "velocity": 100,
      "chip": "ym2612"
    },
    {
      "channel": 1,
      "note": 63,
      "start": 17.4883,
      "duration": 0.0141,
      "velocity": 94,
      "chip": "ym2612"
    },
    {
      "channel": 0,
      "note": 37,
      "start": 17.496,
      "duration": 0.0161,
      "velocity": 115,
      "chip": "ym2612"
    },
    {
      "channel": 3,
      "note": 63,
      "start": 17.4996,
      "duration": 0.016,
      "velocity": 94,
      "chip": "ym2612"
    },
    {
      "channel": 2,
      "note": 56,
      "start": 17.5009,
      "duration": 0.0159,
      "velocity": 100,
      "chip": "ym2612"
    },
    {
      "channel": 1,
      "note": 63,
      "start": 17.5025,
      "duration": 0.016,
      "velocity": 94,
      "chip": "ym2612"
    },
    {
      "channel": 0,
      "note": 37,
      "start": 17.5121,
      "duration": 0.0161,
      "velocity": 115,
      "chip": "ym2612"
    },
    {
      "channel": 3,
      "note": 63,
      "start": 17.5156,
      "duration": 0.0161,
      "velocity": 94,
      "chip": "ym2612"
    },
    {
      "channel": 2,
      "note": 56,
      "start": 17.5168,
      "duration": 0.0161,
      "velocity": 100,
      "chip": "ym2612"
    },
    {
      "channel": 1,
      "note": 63,
      "start": 17.5184,
      "duration": 0.0158,
      "velocity": 94,
      "chip": "ym2612"
    },
    {
      "channel": 0,
      "note": 38,
      "start": 17.5282,
      "duration": 0.0161,
      "velocity": 115,
      "chip": "ym2612"
    },
    {
      "channel": 3,
      "note": 63,
      "start": 17.5317,
      "duration": 0.0161,
      "velocity": 94,
      "chip": "ym2612"
    },
    {
      "channel": 2,
      "note": 56,
      "start": 17.5329,
      "duration": 0.0161,
      "velocity": 100,
      "chip": "ym2612"
    },
    {
      "channel": 0,
      "note": 38,
      "start": 17.5443,
      "duration": 0.0161,
      "velocity": 115,
      "chip": "ym2612"
    },
    {
      "channel": 3,
      "note": 63,
      "start": 17.5478,
      "duration": 0.0161,
      "velocity": 94,
      "chip": "ym2612"
    },
    {
      "channel": 2,
      "note": 56,
      "start": 17.549,
      "duration": 0.0161,
      "velocity": 100,
      "chip": "ym2612"
    },
    {
      "channel": 0,
      "note": 39,
      "start": 17.5604,
      "duration": 0.0179,
      "velocity": 115,
      "chip": "ym2612"
    },
    {
      "channel": 3,
      "note": 63,
      "start": 17.5639,
      "duration": 0.0186,
      "velocity": 94,
      "chip": "ym2612"
    },
    {
      "channel": 2,
      "note": 56,
      "start": 17.5651,
      "duration": 0.0191,
      "velocity": 100,
      "chip": "ym2612"
    },
    {
      "channel": 0,
      "note": 36,
      "start": 17.5784,
      "duration": 0.0143,
      "velocity": 115,
      "chip": "ym2612"
    },
    {
      "channel": 5,
      "note": 75,
      "start": 17.5798,
      "duration": 0.0141,
      "velocity": 110,
      "chip": "ym2612"
    },
    {
      "channel": 4,
      "note": 71,
      "start": 17.5813,
      "duration": 0.0138,
      "velocity": 110,
      "chip": "ym2612"
    },
    {
      "channel": 3,
      "note": 63,
      "start": 17.5825,
      "duration": 0.0138,
      "velocity": 94,
      "chip": "ym2612"
    },
    {
      "channel": 2,
      "note": 59,
      "start": 17.5841,
      "duration": 0.0134,
      "velocity": 100,
      "chip": "ym2612"
    },
    {
      "channel": 1,
      "note": 66,
      "start": 17.5861,
      "duration": 0.0127,
      "velocity": 94,
      "chip": "ym2612"
    },
    {
      "channel": 0,
      "note": 36,
      "start": 17.5927,
      "duration": 0.016,
      "velocity": 115,
      "chip": "ym2612"
    },
    {
      "channel": 5,
      "note": 75,
      "start": 17.5939,
      "duration": 0.016,
      "velocity": 110,
      "chip": "ym2612"
    },
    {
      "channel": 4,
      "note": 71,
      "start": 17.5951,
      "duration": 0.0159,
      "velocity": 110,
      "chip": "ym2612"
    },
    {
      "channel": 3,
      "note": 63,
      "start": 17.5963,
      "duration": 0.0159,
      "velocity": 94,
      "chip": "ym2612"
    },
    {
      "channel": 2,
      "note": 59,
      "start": 17.5975,
      "duration": 0.0159,
      "velocity": 100,
      "chip": "ym2612"
    },
    {
      "channel": 1,
      "note": 66,
      "start": 17.5988,
      "duration": 0.0158,
      "velocity": 94,
      "chip": "ym2612"
    },
    {
      "channel": 0,
      "note": 37,
      "start": 17.6087,
      "duration": 0.0161,
      "velocity": 115,
      "chip": "ym2612"
    },
    {
      "channel": 5,
      "note": 75,
      "start": 17.6098,
      "duration": 0.0162,
      "velocity": 110,
      "chip": "ym2612"
    },
    {
      "channel": 4,
      "note": 71,
      "start": 17.611,
      "duration": 0.0161,
      "velocity": 110,
      "chip": "ym2612"
    },
    {
      "channel": 3,
      "note": 63,
      "start": 17.6122,
      "duration": 0.0162,
      "velocity": 94,
      "chip": "ym2612"
    },
    {
      "channel": 2,
      "note": 59,
      "start": 17.6134,
      "duration": 0.0161,
      "velocity": 100,
      "chip": "ym2612"
    },
    {
      "channel": 1,
      "note": 66,
      "start": 17.6146,
      "duration": 0.0161,
      "velocity": 94,
      "chip": "ym2612"
    },
    {
      "channel": 0,
      "note": 37,
      "start": 17.6248,
      "duration": 0.0161,
      "velocity": 115,
      "chip": "ym2612"
    },
    {
      "channel": 5,
      "note": 75,
      "start": 17.626,
      "duration": 0.0161,
      "velocity": 110,
      "chip": "ym2612"
    },
    {
      "channel": 4,
      "note": 71,
      "start": 17.6271,
      "duration": 0.0161,
      "velocity": 110,
      "chip": "ym2612"
    },
    {
      "channel": 3,
      "note": 63,
      "start": 17.6284,
      "duration": 0.0161,
      "velocity": 94,
      "chip": "ym2612"
    },
    {
      "channel": 2,
      "note": 59,
      "start": 17.6295,
      "duration": 0.0161,
      "velocity": 100,
      "chip": "ym2612"
    },
    {
      "channel": 1,
      "note": 66,
      "start": 17.6307,
      "duration": 0.0161,
      "velocity": 94,
      "chip": "ym2612"
    },
    {
      "channel": 0,
      "note": 38,
      "start": 17.6409,
      "duration": 0.0161,
      "velocity": 115,
      "chip": "ym2612"
    },
    {
      "channel": 5,
      "note": 75,
      "start": 17.6421,
      "duration": 0.0161,
      "velocity": 110,
      "chip": "ym2612"
    },
    {
      "channel": 4,
      "note": 71,
      "start": 17.6432,
      "duration": 0.0161,
      "velocity": 110,
      "chip": "ym2612"
    },
    {
      "channel": 3,
      "note": 63,
      "start": 17.6444,
      "duration": 0.0161,
      "velocity": 94,
      "chip": "ym2612"
    },
    {
      "channel": 2,
      "note": 59,
      "start": 17.6456,
      "duration": 0.0161,
      "velocity": 100,
      "chip": "ym2612"
    },
    {
      "channel": 1,
      "note": 66,
      "start": 17.6467,
      "duration": 0.0161,
      "velocity": 94,
      "chip": "ym2612"
    },
    {
      "channel": 0,
      "note": 38,
      "start": 17.657,
      "duration": 0.0179,
      "velocity": 127,
      "chip": "ym2612"
    },
    {
      "channel": 5,
      "note": 75,
      "start": 17.6582,
      "duration": 0.0179,
      "velocity": 110,
      "chip": "ym2612"
    },
    {
      "channel": 4,
      "note": 71,
      "start": 17.6593,
      "duration": 0.018,
      "velocity": 110,
      "chip": "ym2612"
    },
    {
      "channel": 3,
      "note": 63,
      "start": 17.6605,
      "duration": 0.0179,
      "velocity": 94,
      "chip": "ym2612"
    },
    {
      "channel": 2,
      "note": 59,
      "start": 17.6617,
      "duration": 0.0183,
      "velocity": 100,
      "chip": "ym2612"
    },
    {
      "channel": 1,
      "note": 66,
      "start": 17.6628,
      "duration": 0.0183,
      "velocity": 94,
      "chip": "ym2612"
    },
    {
      "channel": 0,
      "note": 88,
      "start": 17.675,
      "duration": 0.0142,
      "velocity": 127,
      "chip": "ym2612"
    },
    {
      "channel": 5,
      "note": 75,
      "start": 17.6761,
      "duration": 0.0143,
      "velocity": 110,
      "chip": "ym2612"
    },
    {
      "channel": 4,
      "note": 71,
      "start": 17.6773,
      "duration": 0.0142,
      "velocity": 110,
      "chip": "ym2612"
    },
    {
      "channel": 3,
      "note": 63,
      "start": 17.6785,
      "duration": 0.0143,
      "velocity": 94,
      "chip": "ym2612"
    },
    {
      "channel": 2,
      "note": 71,
      "start": 17.68,
      "duration": 0.0141,
      "velocity": 100,
      "chip": "ym2612"
    },
    {
      "channel": 1,
      "note": 66,
      "start": 17.6812,
      "duration": 0.0141,
      "velocity": 94,
      "chip": "ym2612"
    },
    {
      "channel": 0,
      "note": 86,
      "start": 17.6892,
      "duration": 0.016,
      "velocity": 127,
      "chip": "ym2612"
    },
    {
      "channel": 3,
      "note": 63,
      "start": 17.6928,
      "duration": 0.016,
      "velocity": 94,
      "chip": "ym2612"
    },
    {
      "channel": 2,
      "note": 71,
      "start": 17.694,
      "duration": 0.016,
      "velocity": 100,
      "chip": "ym2612"
    },
    {
      "channel": 1,
      "note": 66,
      "start": 17.6952,
      "duration": 0.0159,
      "velocity": 94,
      "chip": "ym2612"
    },
    {
      "channel": 0,
      "note": 85,
      "start": 17.7053,
      "duration": 0.0162,
      "velocity": 127,
      "chip": "ym2612"
    },
    {
      "channel": 3,
      "note": 63,
      "start": 17.7088,
      "duration": 0.0161,
      "velocity": 94,
      "chip": "ym2612"
    },
    {
      "channel": 2,
      "note": 71,
      "start": 17.71,
      "duration": 0.0161,
      "velocity": 100,
      "chip": "ym2612"
    },
    {
      "channel": 1,
      "note": 66,
      "start": 17.7111,
      "duration": 0.0162,
      "velocity": 94,
      "chip": "ym2612"
    },
    {
      "channel": 0,
      "note": 83,
      "start": 17.7214,
      "duration": 0.0161,
      "velocity": 127,
      "chip": "ym2612"
    },
    {
      "channel": 3,
      "note": 63,
      "start": 17.7249,
      "duration": 0.0161,
      "velocity": 94,
      "chip": "ym2612"
    },
    {
      "channel": 2,
      "note": 71,
      "start": 17.7261,
      "duration": 0.0161,
      "velocity": 100,
      "chip": "ym2612"
    },
    {
      "channel": 1,
      "note": 66,
      "start": 17.7273,
      "duration": 0.0161,
      "velocity": 94,
      "chip": "ym2612"
    },
    {
      "channel": 0,
      "note": 81,
      "start": 17.7375,
      "duration": 0.0162,
      "velocity": 127,
      "chip": "ym2612"
    },
    {
      "channel": 3,
      "note": 63,
      "start": 17.741,
      "duration": 0.0161,
      "velocity": 94,
      "chip": "ym2612"
    },
    {
      "channel": 2,
      "note": 71,
      "start": 17.7422,
      "duration": 0.0162,
      "velocity": 100,
      "chip": "ym2612"
    },
    {
      "channel": 1,
      "note": 66,
      "start": 17.7434,
      "duration": 0.0161,
      "velocity": 94,
      "chip": "ym2612"
    },
    {
      "channel": 0,
      "note": 80,
      "start": 17.7537,
      "duration": 0.0164,
      "velocity": 127,
      "chip": "ym2612"
    },
    {
      "channel": 3,
      "note": 63,
      "start": 17.7572,
      "duration": 0.0164,
      "velocity": 94,
      "chip": "ym2612"
    },
    {
      "channel": 2,
      "note": 71,
      "start": 17.7583,
      "duration": 0.0164,
      "velocity": 100,
      "chip": "ym2612"
    },
    {
      "channel": 1,
      "note": 66,
      "start": 17.7595,
      "duration": 0.0164,
      "velocity": 94,
      "chip": "ym2612"
    },
    {
      "channel": 0,
      "note": 78,
      "start": 17.7701,
      "duration": 0.0163,
      "velocity": 127,
      "chip": "ym2612"
    },
    {
      "channel": 3,
      "note": 63,
      "start": 17.7736,
      "duration": 0.0171,
      "velocity": 94,
      "chip": "ym2612"
    },
    {
      "channel": 2,
      "note": 71,
      "start": 17.7747,
      "duration": 0.0173,
      "velocity": 100,
      "chip": "ym2612"
    },
    {
      "channel": 1,
      "note": 66,
      "start": 17.7759,
      "duration": 0.0174,
      "velocity": 94,
      "chip": "ym2612"
    },
    {
      "channel": 0,
      "note": 76,
      "start": 17.7864,
      "duration": 0.0162,
      "velocity": 127,
      "chip": "ym2612"
    },
    {
      "channel": 5,
      "note": 71,
      "start": 17.788,
      "duration": 0.0158,
      "velocity": 110,
      "chip": "ym2612"
    },
    {
      "channel": 4,
      "note": 75,
      "start": 17.7895,
      "duration": 0.0155,
      "velocity": 110,
      "chip": "ym2612"
    },
    {
      "channel": 3,
      "note": 63,
      "start": 17.7907,
      "duration": 0.0154,
      "velocity": 94,
      "chip": "ym2612"
    },
    {
      "channel": 2,
      "note": 59,
      "start": 17.7922,
      "duration": 0.0152,
      "velocity": 100,
      "chip": "ym2612"
    },
    {
      "channel": 1,
      "note": 66,
      "start": 17.7933,
      "duration": 0.0153,
      "velocity": 94,
      "chip": "ym2612"
    },
    {
      "channel": 0,
      "note": 75,
      "start": 17.8025,
      "duration": 0.016,
      "velocity": 127,
      "chip": "ym2612"
    },
    {
      "channel": 5,
      "note": 71,
      "start": 17.8037,
      "duration": 0.016,
      "velocity": 110,
      "chip": "ym2612"
    },
    {
      "channel": 4,
      "note": 75,
      "start": 17.805,
      "duration": 0.016,
      "velocity": 110,
      "chip": "ym2612"
    },
    {
      "channel": 3,
      "note": 63,
      "start": 17.8061,
      "duration": 0.016,
      "velocity": 94,
      "chip": "ym2612"
    },
    {
      "channel": 2,
      "note": 59,
      "start": 17.8074,
      "duration": 0.0159,
      "velocity": 100,
      "chip": "ym2612"
    },
    {
      "channel": 1,
      "note": 66,
      "start": 17.8086,
      "duration": 0.0159,
      "velocity": 94,
      "chip": "ym2612"
    },
    {
      "channel": 0,
      "note": 73,
      "start": 17.8185,
      "duration": 0.0158,
      "velocity": 127,
      "chip": "ym2612"
    },
    {
      "channel": 5,
      "note": 71,
      "start": 17.8198,
      "duration": 0.0161,
      "velocity": 110,
      "chip": "ym2612"
    },
    {
      "channel": 4,
      "note": 75,
      "start": 17.821,
      "duration": 0.016,
      "velocity": 110,
      "chip": "ym2612"
    },
    {
      "channel": 3,
      "note": 63,
      "start": 17.8221,
      "duration": 0.0161,
      "velocity": 94,
      "chip": "ym2612"
    },
    {
      "channel": 2,
      "note": 59,
      "start": 17.8233,
      "duration": 0.0161,
      "velocity": 100,
      "chip": "ym2612"
    },
    {
      "channel": 1,
      "note": 66,
      "start": 17.8245,
      "duration": 0.016,
      "velocity": 94,
      "chip": "ym2612"
    },
    {
      "channel": 0,
      "note": 71,
      "start": 17.8343,
      "duration": 0.0159,
      "velocity": 127,
      "chip": "ym2612"
    },
    {
      "channel": 5,
      "note": 71,
      "start": 17.8359,
      "duration": 0.016,
      "velocity": 110,
      "chip": "ym2612"
    },
    {
      "channel": 4,
      "note": 75,
      "start": 17.837,
      "duration": 0.0162,
      "velocity": 110,
      "chip": "ym2612"
    },
    {
      "channel": 3,
      "note": 63,
      "start": 17.8382,
      "duration": 0.0161,
      "velocity": 94,
      "chip": "ym2612"
    },
    {
      "channel": 2,
      "note": 59,
      "start": 17.8394,
      "duration": 0.0161,
      "velocity": 100,
      "chip": "ym2612"
    },
    {
      "channel": 1,
      "note": 66,
      "start": 17.8405,
      "duration": 0.0162,
      "velocity": 94,
      "chip": "ym2612"
    },
    {
      "channel": 0,
      "note": 69,
      "start": 17.8502,
      "duration": 0.0161,
      "velocity": 127,
      "chip": "ym2612"
    },
    {
      "channel": 5,
      "note": 71,
      "start": 17.8519,
      "duration": 0.0162,
      "velocity": 110,
      "chip": "ym2612"
    },
    {
      "channel": 4,
      "note": 75,
      "start": 17.8532,
      "duration": 0.0161,
      "velocity": 110,
      "chip": "ym2612"
    },
    {
      "channel": 2,
      "note": 59,
      "start": 17.8555,
      "duration": 0.0161,
      "velocity": 100,
      "chip": "ym2612"
    },
    {
      "channel": 1,
      "note": 66,
      "start": 17.8567,
      "duration": 0.0161,
      "velocity": 94,
      "chip": "ym2612"
    },
    {
      "channel": 0,
      "note": 68,
      "start": 17.8663,
      "duration": 0.0185,
      "velocity": 127,
      "chip": "ym2612"
    },
    {
      "channel": 5,
      "note": 71,
      "start": 17.868,
      "duration": 0.0181,
      "velocity": 110,
      "chip": "ym2612"
    },
    {
      "channel": 4,
      "note": 75,
      "start": 17.8693,
      "duration": 0.018,
      "velocity": 110,
      "chip": "ym2612"
    },
    {
      "channel": 2,
      "note": 59,
      "start": 17.8716,
      "duration": 0.0183,
      "velocity": 100,
      "chip": "ym2612"
    },
    {
      "channel": 1,
      "note": 66,
      "start": 17.8728,
      "duration": 0.0183,
      "velocity": 94,
      "chip": "ym2612"
    },
    {
      "channel": 0,
      "note": 84,
      "start": 17.8849,
      "duration": 0.0137,
      "velocity": 127,
      "chip": "ym2612"
    },
    {
      "channel": 5,
      "note": 71,
      "start": 17.8861,
      "duration": 0.0136,
      "velocity": 110,
      "chip": "ym2612"
    },
    {
      "channel": 4,
      "note": 75,
      "start": 17.8873,
      "duration": 0.0142,
      "velocity": 110,
      "chip": "ym2612"
    },
    {
      "channel": 2,
      "note": 71,
      "start": 17.8899,
      "duration": 0.0144,
      "velocity": 100,
      "chip": "ym2612"
    },
    {
      "channel": 1,
      "note": 66,
      "start": 17.8911,
      "duration": 0.0143,
      "velocity": 94,
      "chip": "ym2612"
    },
    {
      "channel": 0,
      "note": 82,
      "start": 17.8986,
      "duration": 0.016,
      "velocity": 127,
      "chip": "ym2612"
    },
    {
      "channel": 3,
      "note": 66,
      "start": 17.903,
      "duration": 0.0157,
      "velocity": 94,
      "chip": "ym2612"
    },
    {
      "channel": 2,
      "note": 71,
      "start": 17.9042,
      "duration": 0.0157,
      "velocity": 100,
      "chip": "ym2612"
    },
    {
      "channel": 1,
      "note": 66,
      "start": 17.9054,
      "duration": 0.0157,
      "velocity": 94,
      "chip": "ym2612"
    },
    {
      "channel": 0,
      "note": 81,
      "start": 17.9146,
      "duration": 0.0161,
      "velocity": 127,
      "chip": "ym2612"
    },
    {
      "channel": 3,
      "note": 66,
      "start": 17.9188,
      "duration": 0.016,
      "velocity": 94,
      "chip": "ym2612"
    },
    {
      "channel": 2,
      "note": 71,
      "start": 17.92,
      "duration": 0.016,
      "velocity": 100,
      "chip": "ym2612"
    },
    {
      "channel": 1,
      "note": 66,
      "start": 17.9211,
      "duration": 0.016,
      "velocity": 94,
      "chip": "ym2612"
    },
    {
      "channel": 0,
      "note": 79,
      "start": 17.9307,
      "duration": 0.0161,
      "velocity": 127,
      "chip": "ym2612"
    },
    {
      "channel": 3,
      "note": 66,
      "start": 17.9348,
      "duration": 0.0156,
      "velocity": 94,
      "chip": "ym2612"
    },
    {
      "channel": 2,
      "note": 71,
      "start": 17.936,
      "duration": 0.0161,
      "velocity": 100,
      "chip": "ym2612"
    },
    {
      "channel": 1,
      "note": 66,
      "start": 17.9371,
      "duration": 0.0161,
      "velocity": 94,
      "chip": "ym2612"
    },
    {
      "channel": 0,
      "note": 77,
      "start": 17.9468,
      "duration": 0.0161,
      "velocity": 127,
      "chip": "ym2612"
    },
    {
      "channel": 3,
      "note": 66,
      "start": 17.9504,
      "duration": 0.0161,
      "velocity": 94,
      "chip": "ym2612"
    },
    {
      "channel": 2,
      "note": 71,
      "start": 17.9521,
      "duration": 0.016,
      "velocity": 100,
      "chip": "ym2612"
    },
    {
      "channel": 0,
      "note": 76,
      "start": 17.9629,
      "duration": 0.0161,
      "velocity": 127,
      "chip": "ym2612"
    },
    {
      "channel": 3,
      "note": 66,
      "start": 17.9665,
      "duration": 0.0161,
      "velocity": 94,
      "chip": "ym2612"
    },
    {
      "channel": 2,
      "note": 71,
      "start": 17.9681,
      "duration": 0.0156,
      "velocity": 100,
      "chip": "ym2612"
    },
    {
      "channel": 0,
      "note": 74,
      "start": 17.979,
      "duration": 0.018,
      "velocity": 127,
      "chip": "ym2612"
    },
    {
      "channel": 3,
      "note": 66,
      "start": 17.9826,
      "duration": 0.0192,
      "velocity": 94,
      "chip": "ym2612"
    },
    {
      "channel": 2,
      "note": 71,
      "start": 17.9837,
      "duration": 0.0195,
      "velocity": 100,
      "chip": "ym2612"
    },
    {
      "channel": 0,
      "note": 78,
      "start": 17.997,
      "duration": 0.0143,
      "velocity": 127,
      "chip": "ym2612"
    },
    {
      "channel": 5,
      "note": 75,
      "start": 17.9985,
      "duration": 0.014,
      "velocity": 110,
      "chip": "ym2612"
    },
    {
      "channel": 4,
      "note": 71,
      "start": 18.0,
      "duration": 0.0137,
      "velocity": 110,
      "chip": "ym2612"
    },
    {
      "channel": 3,
      "note": 66,
      "start": 18.0018,
      "duration": 0.0132,
      "velocity": 94,
      "chip": "ym2612"
    },
    {
      "channel": 2,
      "note": 54,
      "start": 18.0032,
      "duration": 0.0129,
      "velocity": 100,
      "chip": "ym2612"
    },
    {
      "channel": 1,
      "note": 73,
      "start": 18.0047,
      "duration": 0.0129,
      "velocity": 94,
      "chip": "ym2612"
    },
    {
      "channel": 0,
      "note": 76,
      "start": 18.0112,
      "duration": 0.0161,
      "velocity": 127,
      "chip": "ym2612"
    },
    {
      "channel": 5,
      "note": 75,
      "start": 18.0125,
      "duration": 0.016,
      "velocity": 110,
      "chip": "ym2612"
    },
    {
      "channel": 4,
      "note": 71,
      "start": 18.0137,
      "duration": 0.016,
      "velocity": 110,
      "chip": "ym2612"
    },
    {
      "channel": 3,
      "note": 66,
      "start": 18.0149,
      "duration": 0.0159,
      "velocity": 94,
      "chip": "ym2612"
    },
    {
      "channel": 2,
      "note": 54,
      "start": 18.0161,
      "duration": 0.0158,
      "velocity": 100,
      "chip": "ym2612"
    },
    {
      "channel": 1,
      "note": 73,
      "start": 18.0176,
      "duration": 0.0156,
      "velocity": 94,
      "chip": "ym2612"
    },
    {
      "channel": 0,
      "note": 75,
      "start": 18.0273,
      "duration": 0.0161,
      "velocity": 127,
      "chip": "ym2612"
    },
    {
      "channel": 5,
      "note": 75,
      "start": 18.0285,
      "duration": 0.0161,
      "velocity": 110,
      "chip": "ym2612"
    },
    {
      "channel": 4,
      "note": 71,
      "start": 18.0297,
      "duration": 0.0161,
      "velocity": 110,
      "chip": "ym2612"
    },
    {
      "channel": 3,
      "note": 66,
      "start": 18.0308,
      "duration": 0.0161,
      "velocity": 94,
      "chip": "ym2612"
    },
    {
      "channel": 2,
      "note": 54,
      "start": 18.032,
      "duration": 0.0161,
      "velocity": 100,
      "chip": "ym2612"
    },
    {
      "channel": 1,
      "note": 73,
      "start": 18.0332,
      "duration": 0.0161,
      "velocity": 94,
      "chip": "ym2612"
    },
    {
      "channel": 0,
      "note": 73,
      "start": 18.0434,
      "duration": 0.0161,
      "velocity": 127,
      "chip": "ym2612"
    },
    {
      "channel": 5,
      "note": 75,
      "start": 18.0446,
      "duration": 0.0161,
      "velocity": 110,
      "chip": "ym2612"
    },
    {
      "channel": 4,
      "note": 71,
      "start": 18.0458,
      "duration": 0.0161,
      "velocity": 110,
      "chip": "ym2612"
    },
    {
      "channel": 3,
      "note": 66,
      "start": 18.0469,
      "duration": 0.0161,
      "velocity": 94,
      "chip": "ym2612"
    },
    {
      "channel": 2,
      "note": 54,
      "start": 18.0481,
      "duration": 0.0161,
      "velocity": 100,
      "chip": "ym2612"
    },
    {
      "channel": 1,
      "note": 73,
      "start": 18.0493,
      "duration": 0.0161,
      "velocity": 94,
      "chip": "ym2612"
    },
    {
      "channel": 0,
      "note": 71,
      "start": 18.0595,
      "duration": 0.0161,
      "velocity": 127,
      "chip": "ym2612"
    },
    {
      "channel": 5,
      "note": 75,
      "start": 18.0607,
      "duration": 0.0161,
      "velocity": 110,
      "chip": "ym2612"
    },
    {
      "channel": 4,
      "note": 71,
      "start": 18.0619,
      "duration": 0.0161,
      "velocity": 110,
      "chip": "ym2612"
    },
    {
      "channel": 3,
      "note": 66,
      "start": 18.063,
      "duration": 0.0162,
      "velocity": 94,
      "chip": "ym2612"
    },
    {
      "channel": 2,
      "note": 54,
      "start": 18.0642,
      "duration": 0.0161,
      "velocity": 100,
      "chip": "ym2612"
    },
    {
      "channel": 1,
      "note": 73,
      "start": 18.0654,
      "duration": 0.0161,
      "velocity": 94,
      "chip": "ym2612"
    },
    {
      "channel": 0,
      "note": 70,
      "start": 18.0756,
      "duration": 0.0179,
      "velocity": 115,
      "chip": "ym2612"
    },
    {
      "channel": 5,
      "note": 75,
      "start": 18.0768,
      "duration": 0.0179,
      "velocity": 110,
      "chip": "ym2612"
    },
    {
      "channel": 4,
      "note": 71,
      "start": 18.078,
      "duration": 0.0179,
      "velocity": 110,
      "chip": "ym2612"
    },
    {
      "channel": 3,
      "note": 66,
      "start": 18.0792,
      "duration": 0.0179,
      "velocity": 94,
      "chip": "ym2612"
    },
    {
      "channel": 2,
      "note": 54,
      "start": 18.0803,
      "duration": 0.018,
      "velocity": 100,
      "chip": "ym2612"
    },
    {
      "channel": 1,
      "note": 73,
      "start": 18.0815,
      "duration": 0.0179,
      "velocity": 94,
      "chip": "ym2612"
    },
    {
      "channel": 0,
      "note": 36,
      "start": 18.0936,
      "duration": 0.0143,
      "velocity": 115,
      "chip": "ym2612"
    },
    {
      "channel": 5,
      "note": 75,
      "start": 18.0948,
      "duration": 0.0143,
      "velocity": 110,
      "chip": "ym2612"
    },
    {
      "channel": 4,
      "note": 71,
      "start": 18.0959,
      "duration": 0.0144,
      "velocity": 110,
      "chip": "ym2612"
    },
    {
      "channel": 3,
      "note": 66,
      "start": 18.0971,
      "duration": 0.0143,
      "velocity": 94,
      "chip": "ym2612"
    },
    {
      "channel": 2,
      "note": 54,
      "start": 18.0983,
      "duration": 0.0143,
      "velocity": 100,
      "chip": "ym2612"
    },
    {
      "channel": 1,
      "note": 73,
      "start": 18.0994,
      "duration": 0.0144,
      "velocity": 94,
      "chip": "ym2612"
    },
    {
      "channel": 0,
      "note": 36,
      "start": 18.1079,
      "duration": 0.016,
      "velocity": 115,
      "chip": "ym2612"
    },
    {
      "channel": 3,
      "note": 66,
      "start": 18.1114,
      "duration": 0.016,
      "velocity": 94,
      "chip": "ym2612"
    },
    {
      "channel": 2,
      "note": 54,
      "start": 18.1126,
      "duration": 0.016,
      "velocity": 100,
      "chip": "ym2612"
    },
    {
      "channel": 1,
      "note": 73,
      "start": 18.1138,
      "duration": 0.016,
      "velocity": 94,
      "chip": "ym2612"
    },
    {
      "channel": 0,
      "note": 37,
      "start": 18.1239,
      "duration": 0.0161,
      "velocity": 115,
      "chip": "ym2612"
    },
    {
      "channel": 3,
      "note": 66,
      "start": 18.1275,
      "duration": 0.0161,
      "velocity": 94,
      "chip": "ym2612"
    },
    {
      "channel": 2,
      "note": 54,
      "start": 18.1286,
      "duration": 0.0161,
      "velocity": 100,
      "chip": "ym2612"
    },
    {
      "channel": 1,
      "note": 73,
      "start": 18.1298,
      "duration": 0.0161,
      "velocity": 94,
      "chip": "ym2612"
    },
    {
      "channel": 0,
      "note": 37,
      "start": 18.14,
      "duration": 0.0161,
      "velocity": 115,
      "chip": "ym2612"
    },
    {
      "channel": 3,
      "note": 66,
      "start": 18.1436,
      "duration": 0.0161,
      "velocity": 94,
      "chip": "ym2612"
    },
    {
      "channel": 2,
      "note": 54,
      "start": 18.1447,
      "duration": 0.0161,
      "velocity": 100,
      "chip": "ym2612"
    },
    {
      "channel": 1,
      "note": 73,
      "start": 18.1459,
      "duration": 0.0162,
      "velocity": 94,
      "chip": "ym2612"
    },
    {
      "channel": 0,
      "note": 38,
      "start": 18.1561,
      "duration": 0.0161,
      "velocity": 115,
      "chip": "ym2612"
    },
    {
      "channel": 3,
      "note": 66,
      "start": 18.1597,
      "duration": 0.0161,
      "velocity": 94,
      "chip": "ym2612"
    },
    {
      "channel": 2,
      "note": 54,
      "start": 18.1608,
      "duration": 0.0161,
      "velocity": 100,
      "chip": "ym2612"
    },
    {
      "channel": 1,
      "note": 73,
      "start": 18.162,
      "duration": 0.0161,
      "velocity": 94,
      "chip": "ym2612"
    },
    {
      "channel": 0,
      "note": 38,
      "start": 18.1722,
      "duration": 0.0161,
      "velocity": 115,
      "chip": "ym2612"
    },
    {
      "channel": 3,
      "note": 66,
      "start": 18.1757,
      "duration": 0.0161,
      "velocity": 94,
      "chip": "ym2612"
    },
    {
      "channel": 2,
      "note": 54,
      "start": 18.1769,
      "duration": 0.0161,
      "velocity": 100,
      "chip": "ym2612"
    },
    {
      "channel": 1,
      "note": 73,
      "start": 18.1781,
      "duration": 0.0161,
      "velocity": 94,
      "chip": "ym2612"
    },
    {
      "channel": 0,
      "note": 39,
      "start": 18.1883,
      "duration": 0.0179,
      "velocity": 124,
      "chip": "ym2612"
    },
    {
      "channel": 3,
      "note": 66,
      "start": 18.1918,
      "duration": 0.0188,
      "velocity": 94,
      "chip": "ym2612"
    },
    {
      "channel": 2,
      "note": 54,
      "start": 18.193,
      "duration": 0.019,
      "velocity": 100,
      "chip": "ym2612"
    },
    {
      "channel": 1,
      "note": 73,
      "start": 18.1942,
      "duration": 0.019,
      "velocity": 94,
      "chip": "ym2612"
    },
    {
      "channel": 0,
      "note": 84,
      "start": 18.2063,
      "duration": 0.0144,
      "velocity": 124,
      "chip": "ym2612"
    },
    {
      "channel": 5,
      "note": 71,
      "start": 18.2079,
      "duration": 0.014,
      "velocity": 110,
      "chip": "ym2612"
    },
    {
      "channel": 4,
      "note": 75,
      "start": 18.2095,
      "duration": 0.0137,
      "velocity": 110,
      "chip": "ym2612"
    },
    {
      "channel": 3,
      "note": 66,
      "start": 18.2106,
      "duration": 0.0137,
      "velocity": 94,
      "chip": "ym2612"
    },
    {
      "channel": 2,
      "note": 56,
      "start": 18.2121,
      "duration": 0.0134,
      "velocity": 100,
      "chip": "ym2612"
    },
    {
      "channel": 1,
      "note": 73,
      "start": 18.2132,
      "duration": 0.0135,
      "velocity": 94,
      "chip": "ym2612"
    },
    {
      "channel": 0,
      "note": 82,
      "start": 18.2207,
      "duration": 0.0161,
      "velocity": 124,
      "chip": "ym2612"
    },
    {
      "channel": 5,
      "note": 71,
      "start": 18.2219,
      "duration": 0.016,
      "velocity": 110,
      "chip": "ym2612"
    },
    {
      "channel": 4,
      "note": 75,
      "start": 18.2231,
      "duration": 0.016,
      "velocity": 110,
      "chip": "ym2612"
    },
    {
      "channel": 3,
      "note": 66,
      "start": 18.2243,
      "duration": 0.016,
      "velocity": 94,
      "chip": "ym2612"
    },
    {
      "channel": 2,
      "note": 56,
      "start": 18.2255,
      "duration": 0.0159,
      "velocity": 100,
      "chip": "ym2612"
    },
    {
      "channel": 1,
      "note": 73,
      "start": 18.2267,
      "duration": 0.0159,
      "velocity": 94,
      "chip": "ym2612"
    },
    {
      "channel": 0,
      "note": 80,
      "start": 18.2368,
      "duration": 0.0163,
      "velocity": 124,
      "chip": "ym2612"
    },
    {
      "channel": 5,
      "note": 71,
      "start": 18.2379,
      "duration": 0.0164,
      "velocity": 110,
      "chip": "ym2612"
    },
    {
      "channel": 4,
      "note": 75,
      "start": 18.2391,
      "duration": 0.0163,
      "velocity": 110,
      "chip": "ym2612"
    },
    {
      "channel": 3,
      "note": 66,
      "start": 18.2402,
      "duration": 0.0164,
      "velocity": 94,
      "chip": "ym2612"
    },
    {
      "channel": 2,
      "note": 56,
      "start": 18.2414,
      "duration": 0.0164,
      "velocity": 100,
      "chip": "ym2612"
    },
    {
      "channel": 1,
      "note": 73,
      "start": 18.2426,
      "duration": 0.0163,
      "velocity": 94,
      "chip": "ym2612"
    },
    {
      "channel": 0,
      "note": 77,
      "start": 18.2531,
      "duration": 0.0163,
      "velocity": 124,
      "chip": "ym2612"
    },
    {
      "channel": 5,
      "note": 71,
      "start": 18.2543,
      "duration": 0.0163,
      "velocity": 110,
      "chip": "ym2612"
    },
    {
      "channel": 4,
      "note": 75,
      "start": 18.2555,
      "duration": 0.0163,
      "velocity": 110,
      "chip": "ym2612"
    },
    {
      "channel": 3,
      "note": 66,
      "start": 18.2567,
      "duration": 0.0163,
      "velocity": 94,
      "chip": "ym2612"
    },
    {
      "channel": 2,
      "note": 56,
      "start": 18.2578,
      "duration": 0.0163,
      "velocity": 100,
      "chip": "ym2612"
    },
    {
      "channel": 1,
      "note": 73,
      "start": 18.259,
      "duration": 0.0163,
      "velocity": 94,
      "chip": "ym2612"
    },
    {
      "channel": 0,
      "note": 75,
      "start": 18.2695,
      "duration": 0.0161,
      "velocity": 124,
      "chip": "ym2612"
    },
    {
      "channel": 5,
      "note": 71,
      "start": 18.2706,
      "duration": 0.0161,
      "velocity": 110,
      "chip": "ym2612"
    },
    {
      "channel": 4,
      "note": 75,
      "start": 18.2718,
      "duration": 0.0161,
      "velocity": 110,
      "chip": "ym2612"
    },
    {
      "channel": 2,
      "note": 56,
      "start": 18.2741,
      "duration": 0.0161,
      "velocity": 100,
      "chip": "ym2612"
    },
    {
      "channel": 1,
      "note": 73,
      "start": 18.2753,
      "duration": 0.0161,
      "velocity": 94,
      "chip": "ym2612"
    },
    {
      "channel": 0,
      "note": 72,
      "start": 18.2856,
      "duration": 0.0179,
      "velocity": 124,
      "chip": "ym2612"
    },
    {
      "channel": 5,
      "note": 71,
      "start": 18.2867,
      "duration": 0.0179,
      "velocity": 110,
      "chip": "ym2612"
    },
    {
      "channel": 4,
      "note": 75,
      "start": 18.2879,
      "duration": 0.0179,
      "velocity": 110,
      "chip": "ym2612"
    },
    {
      "channel": 2,
      "note": 56,
      "start": 18.2902,
      "duration": 0.0179,
      "velocity": 100,
      "chip": "ym2612"
    },
    {
      "channel": 1,
      "note": 73,
      "start": 18.2914,
      "duration": 0.0179,
      "velocity": 94,
      "chip": "ym2612"
    },
    {
      "channel": 0,
      "note": 84,
      "start": 18.3035,
      "duration": 0.0137,
      "velocity": 124,
      "chip": "ym2612"
    },
    {
      "channel": 5,
      "note": 71,
      "start": 18.3046,
      "duration": 0.0144,
      "velocity": 110,
      "chip": "ym2612"
    },
    {
      "channel": 4,
      "note": 75,
      "start": 18.3058,
      "duration": 0.0143,
      "velocity": 110,
      "chip": "ym2612"
    },
    {
      "channel": 2,
      "note": 56,
      "start": 18.3082,
      "duration": 0.0146,
      "velocity": 100,
      "chip": "ym2612"
    },
    {
      "channel": 1,
      "note": 73,
      "start": 18.3093,
      "duration": 0.0146,
      "velocity": 94,
      "chip": "ym2612"
    },
    {
      "channel": 0,
      "note": 82,
      "start": 18.3172,
      "duration": 0.016,
      "velocity": 124,
      "chip": "ym2612"
    },
    {
      "channel": 3,
      "note": 73,
      "start": 18.3216,
      "duration": 0.0158,
      "velocity": 94,
      "chip": "ym2612"
    },
    {
      "channel": 2,
      "note": 56,
      "start": 18.3228,
      "duration": 0.0158,
      "velocity": 100,
      "chip": "ym2612"
    },
    {
      "channel": 1,
      "note": 73,
      "start": 18.324,
      "duration": 0.0158,
      "velocity": 94,
      "chip": "ym2612"
    },
    {
      "channel": 0,
      "note": 80,
      "start": 18.3333,
      "duration": 0.0161,
      "velocity": 124,
      "chip": "ym2612"
    },
    {
      "channel": 3,
      "note": 73,
      "start": 18.3374,
      "duration": 0.0161,
      "velocity": 94,
      "chip": "ym2612"
    },
    {
      "channel": 2,
      "note": 56,
      "start": 18.3386,
      "duration": 0.016,
      "velocity": 100,
      "chip": "ym2612"
    },
    {
      "channel": 1,
      "note": 73,
      "start": 18.3398,
      "duration": 0.016,
      "velocity": 94,
      "chip": "ym2612"
    },
    {
      "channel": 0,
      "note": 77,
      "start": 18.3493,
      "duration": 0.0161,
      "velocity": 124,
      "chip": "ym2612"
    },
    {
      "channel": 3,
      "note": 73,
      "start": 18.3535,
      "duration": 0.0161,
      "velocity": 94,
      "chip": "ym2612"
    },
    {
      "channel": 2,
      "note": 56,
      "start": 18.3546,
      "duration": 0.0161,
      "velocity": 100,
      "chip": "ym2612"
    },
    {
      "channel": 1,
      "note": 73,
      "start": 18.3558,
      "duration": 0.0161,
      "velocity": 94,
      "chip": "ym2612"
    },
    {
      "channel": 0,
      "note": 75,
      "start": 18.3654,
      "duration": 0.0161,
      "velocity": 124,
      "chip": "ym2612"
    },
    {
      "channel": 3,
      "note": 73,
      "start": 18.3696,
      "duration": 0.0161,
      "velocity": 94,
      "chip": "ym2612"
    },
    {
      "channel": 2,
      "note": 56,
      "start": 18.3707,
      "duration": 0.0161,
      "velocity": 100,
      "chip": "ym2612"
    },
    {
      "channel": 0,
      "note": 72,
      "start": 18.3815,
      "duration": 0.0161,
      "velocity": 124,
      "chip": "ym2612"
    },
    {
      "channel": 3,
      "note": 73,
      "start": 18.3857,
      "duration": 0.016,
      "velocity": 94,
      "chip": "ym2612"
    },
    {
      "channel": 2,
      "note": 56,
      "start": 18.3868,
      "duration": 0.0161,
      "velocity": 100,
      "chip": "ym2612"
    },
    {
      "channel": 0,
      "note": 70,
      "start": 18.3976,
      "duration": 0.0179,
      "velocity": 115,
      "chip": "ym2612"
    },
    {
      "channel": 3,
      "note": 73,
      "start": 18.4017,
      "duration": 0.0187,
      "velocity": 94,
      "chip": "ym2612"
    },
    {
      "channel": 2,
      "note": 56,
      "start": 18.4029,
      "duration": 0.0189,
      "velocity": 100,
      "chip": "ym2612"
    },
    {
      "channel": 0,
      "note": 36,
      "start": 18.4156,
      "duration": 0.0143,
      "velocity": 115,
      "chip": "ym2612"
    },
    {
      "channel": 5,
      "note": 75,
      "start": 18.4171,
      "duration": 0.0141,
      "velocity": 110,
      "chip": "ym2612"
    },
    {
      "channel": 4,
      "note": 71,
      "start": 18.4192,
      "duration": 0.0132,
      "velocity": 110,
      "chip": "ym2612"
    },
    {
      "channel": 3,
      "note": 73,
      "start": 18.4204,
      "duration": 0.0132,
      "velocity": 94,
      "chip": "ym2612"
    },
    {
      "channel": 2,
      "note": 59,
      "start": 18.4218,
      "duration": 0.0135,
      "velocity": 100,
      "chip": "ym2612"
    },
    {
      "channel": 1,
      "note": 71,
      "start": 18.4233,
      "duration": 0.0134,
      "velocity": 94,
      "chip": "ym2612"
    },
    {
      "channel": 0,
      "note": 36,
      "start": 18.4299,
      "duration": 0.0161,
      "velocity": 115,
      "chip": "ym2612"
    },
    {
      "channel": 5,
      "note": 75,
      "start": 18.4312,
      "duration": 0.016,
      "velocity": 110,
      "chip": "ym2612"
    },
    {
      "channel": 4,
      "note": 71,
      "start": 18.4324,
      "duration": 0.0159,
      "velocity": 110,
      "chip": "ym2612"
    },
    {
      "channel": 3,
      "note": 73,
      "start": 18.4336,
      "duration": 0.0159,
      "velocity": 94,
      "chip": "ym2612"
    },
    {
      "channel": 2,
      "note": 59,
      "start": 18.4353,
      "duration": 0.0156,
      "velocity": 100,
      "chip": "ym2612"
    },
    {
      "channel": 1,
      "note": 71,
      "start": 18.4366,
      "duration": 0.0158,
      "velocity": 94,
      "chip": "ym2612"
    },
    {
      "channel": 0,
      "note": 37,
      "start": 18.446,
      "duration": 0.0161,
      "velocity": 115,
      "chip": "ym2612"
    },
    {
      "channel": 5,
      "note": 75,
      "start": 18.4471,
      "duration": 0.0161,
      "velocity": 110,
      "chip": "ym2612"
    },
    {
      "channel": 4,
      "note": 71,
      "start": 18.4483,
      "duration": 0.0161,
      "velocity": 110,
      "chip": "ym2612"
    },
    {
      "channel": 3,
      "note": 73,
      "start": 18.4495,
      "duration": 0.0161,
      "velocity": 94,
      "chip": "ym2612"
    },
    {
      "channel": 2,
      "note": 59,
      "start": 18.4509,
      "duration": 0.0158,
      "velocity": 100,
      "chip": "ym2612"
    },
    {
      "channel": 1,
      "note": 71,
      "start": 18.4524,
      "duration": 0.016,
      "velocity": 94,
      "chip": "ym2612"
    },
    {
      "channel": 0,
      "note": 37,
      "start": 18.4621,
      "duration": 0.0161,
      "velocity": 115,
      "chip": "ym2612"
    },
    {
      "channel": 5,
      "note": 75,
      "start": 18.4632,
      "duration": 0.0161,
      "velocity": 110,
      "chip": "ym2612"
    },
    {
      "channel": 4,
      "note": 71,
      "start": 18.4644,
      "duration": 0.0161,
      "velocity": 110,
      "chip": "ym2612"
    },
    {
      "channel": 3,
      "note": 73,
      "start": 18.4656,
      "duration": 0.0161,
      "velocity": 94,
      "chip": "ym2612"
    },
    {
      "channel": 2,
      "note": 59,
      "start": 18.4667,
      "duration": 0.0161,
      "velocity": 100,
      "chip": "ym2612"
    },
    {
      "channel": 1,
      "note": 71,
      "start": 18.4684,
      "duration": 0.0158,
      "velocity": 94,
      "chip": "ym2612"
    },
    {
      "channel": 0,
      "note": 38,
      "start": 18.4782,
      "duration": 0.0161,
      "velocity": 115,
      "chip": "ym2612"
    },
    {
      "channel": 5,
      "note": 75,
      "start": 18.4793,
      "duration": 0.0161,
      "velocity": 110,
      "chip": "ym2612"
    },
    {
      "channel": 4,
      "note": 71,
      "start": 18.4805,
      "duration": 0.0161,
      "velocity": 110,
      "chip": "ym2612"
    },
    {
      "channel": 3,
      "note": 73,
      "start": 18.4817,
      "duration": 0.0161,
      "velocity": 94,
      "chip": "ym2612"
    },
    {
      "channel": 2,
      "note": 59,
      "start": 18.4828,
      "duration": 0.0161,
      "velocity": 100,
      "chip": "ym2612"
    },
    {
      "channel": 1,
      "note": 71,
      "start": 18.4842,
      "duration": 0.0159,
      "velocity": 94,
      "chip": "ym2612"
    },
    {
      "channel": 0,
      "note": 38,
      "start": 18.4943,
      "duration": 0.0161,
      "velocity": 115,
      "chip": "ym2612"
    },
    {
      "channel": 5,
      "note": 75,
      "start": 18.4954,
      "duration": 0.0161,
      "velocity": 110,
      "chip": "ym2612"
    },
    {
      "channel": 4,
      "note": 71,
      "start": 18.4966,
      "duration": 0.0161,
      "velocity": 110,
      "chip": "ym2612"
    },
    {
      "channel": 3,
      "note": 73,
      "start": 18.4978,
      "duration": 0.0161,
      "velocity": 94,
      "chip": "ym2612"
    },
    {
      "channel": 2,
      "note": 59,
      "start": 18.499,
      "duration": 0.0161,
      "velocity": 100,
      "chip": "ym2612"
    },
    {
      "channel": 1,
      "note": 71,
      "start": 18.5001,
      "duration": 0.0161,
      "velocity": 94,
      "chip": "ym2612"
    },
    {
      "channel": 0,
      "note": 39,
      "start": 18.5104,
      "duration": 0.0161,
      "velocity": 115,
      "chip": "ym2612"
    },
    {
      "channel": 5,
      "note": 75,
      "start": 18.5115,
      "duration": 0.0162,
      "velocity": 110,
      "chip": "ym2612"
    },
    {
      "channel": 4,
      "note": 71,
      "start": 18.5127,
      "duration": 0.0161,
      "velocity": 110,
      "chip": "ym2612"
    },
    {
      "channel": 3,
      "note": 73,
      "start": 18.5139,
      "duration": 0.0161,
      "velocity": 94,
      "chip": "ym2612"
    },
    {
      "channel": 2,
      "note": 59,
      "start": 18.5151,
      "duration": 0.0161,
      "velocity": 100,
      "chip": "ym2612"
    },
    {
      "channel": 1,
      "note": 71,
      "start": 18.5162,
      "duration": 0.0161,
      "velocity": 94,
      "chip": "ym2612"
    },
    {
      "channel": 0,
      "note": 39,
      "start": 18.5264,
      "duration": 0.0161,
      "velocity": 115,
      "chip": "ym2612"
    },
    {
      "channel": 3,
      "note": 73,
      "start": 18.53,
      "duration": 0.0161,
      "velocity": 94,
      "chip": "ym2612"
    },
    {
      "channel": 2,
      "note": 59,
      "start": 18.5312,
      "duration": 0.0161,
      "velocity": 100,
      "chip": "ym2612"
    },
    {
      "channel": 1,
      "note": 71,
      "start": 18.5324,
      "duration": 0.016,
      "velocity": 94,
      "chip": "ym2612"
    },
    {
      "channel": 0,
      "note": 40,
      "start": 18.5425,
      "duration": 0.0161,
      "velocity": 115,
      "chip": "ym2612"
    },
    {
      "channel": 3,
      "note": 73,
      "start": 18.5461,
      "duration": 0.0161,
      "velocity": 94,
      "chip": "ym2612"
    },
    {
      "channel": 2,
      "note": 59,
      "start": 18.5473,
      "duration": 0.0161,
      "velocity": 100,
      "chip": "ym2612"
    },
    {
      "channel": 1,
      "note": 71,
      "start": 18.5484,
      "duration": 0.0161,
      "velocity": 94,
      "chip": "ym2612"
    },
    {
      "channel": 0,
      "note": 40,
      "start": 18.5586,
      "duration": 0.0161,
      "velocity": 115,
      "chip": "ym2612"
    },
    {
      "channel": 3,
      "note": 73,
      "start": 18.5622,
      "duration": 0.0161,
      "velocity": 94,
      "chip": "ym2612"
    },
    {
      "channel": 2,
      "note": 59,
      "start": 18.5633,
      "duration": 0.0161,
      "velocity": 100,
      "chip": "ym2612"
    },
    {
      "channel": 1,
      "note": 71,
      "start": 18.5645,
      "duration": 0.0161,
      "velocity": 94,
      "chip": "ym2612"
    },
    {
      "channel": 0,
      "note": 40,
      "start": 18.5747,
      "duration": 0.0161,
      "velocity": 115,
      "chip": "ym2612"
    },
    {
      "channel": 3,
      "note": 73,
      "start": 18.5783,
      "duration": 0.0161,
      "velocity": 94,
      "chip": "ym2612"
    },
    {
      "channel": 2,
      "note": 59,
      "start": 18.5794,
      "duration": 0.0161,
      "velocity": 100,
      "chip": "ym2612"
    },
    {
      "channel": 1,
      "note": 71,
      "start": 18.5806,
      "duration": 0.0161,
      "velocity": 94,
      "chip": "ym2612"
    },
    {
      "channel": 0,
      "note": 41,
      "start": 18.5909,
      "duration": 0.0161,
      "velocity": 115,
      "chip": "ym2612"
    },
    {
      "channel": 3,
      "note": 73,
      "start": 18.5944,
      "duration": 0.0161,
      "velocity": 94,
      "chip": "ym2612"
    },
    {
      "channel": 2,
      "note": 59,
      "start": 18.5955,
      "duration": 0.0161,
      "velocity": 100,
      "chip": "ym2612"
    },
    {
      "channel": 1,
      "note": 71,
      "start": 18.5967,
      "duration": 0.0162,
      "velocity": 94,
      "chip": "ym2612"
    },
    {
      "channel": 0,
      "note": 41,
      "start": 18.607,
      "duration": 0.0161,
      "velocity": 115,
      "chip": "ym2612"
    },
    {
      "channel": 3,
      "note": 73,
      "start": 18.6105,
      "duration": 0.0171,
      "velocity": 94,
      "chip": "ym2612"
    },
    {
      "channel": 2,
      "note": 59,
      "start": 18.6116,
      "duration": 0.0171,
      "velocity": 100,
      "chip": "ym2612"
    },
    {
      "channel": 1,
      "note": 71,
      "start": 18.6128,
      "duration": 0.0171,
      "velocity": 94,
      "chip": "ym2612"
    },
    {
      "channel": 0,
      "note": 42,
      "start": 18.6231,
      "duration": 0.0161,
      "velocity": 115,
      "chip": "ym2612"
    },
    {
      "channel": 5,
      "note": 71,
      "start": 18.6247,
      "duration": 0.0156,
      "velocity": 110,
      "chip": "ym2612"
    },
    {
      "channel": 4,
      "note": 75,
      "start": 18.6264,
      "duration": 0.0153,
      "velocity": 110,
      "chip": "ym2612"
    },
    {
      "channel": 3,
      "note": 73,
      "start": 18.6276,
      "duration": 0.0152,
      "velocity": 94,
      "chip": "ym2612"
    },
    {
      "channel": 2,
      "note": 59,
      "start": 18.6287,
      "duration": 0.0152,
      "velocity": 100,
      "chip": "ym2612"
    },
    {
      "channel": 1,
      "note": 71,
      "start": 18.6299,
      "duration": 0.0153,
      "velocity": 94,
      "chip": "ym2612"
    },
    {
      "channel": 0,
      "note": 42,
      "start": 18.6392,
      "duration": 0.0161,
      "velocity": 115,
      "chip": "ym2612"
    },
    {
      "channel": 5,
      "note": 71,
      "start": 18.6404,
      "duration": 0.016,
      "velocity": 110,
      "chip": "ym2612"
    },
    {
      "channel": 4,
      "note": 75,
      "start": 18.6417,
      "duration": 0.016,
      "velocity": 110,
      "chip": "ym2612"
    },
    {
      "channel": 3,
      "note": 73,
      "start": 18.6428,
      "duration": 0.016,
      "velocity": 94,
      "chip": "ym2612"
    },
    {
      "channel": 2,
      "note": 59,
      "start": 18.6439,
      "duration": 0.016,
      "velocity": 100,
      "chip": "ym2612"
    },
    {
      "channel": 1,
      "note": 71,
      "start": 18.6451,
      "duration": 0.016,
      "velocity": 94,
      "chip": "ym2612"
    },
    {
      "channel": 0,
      "note": 43,
      "start": 18.6553,
      "duration": 0.0161,
      "velocity": 115,
      "chip": "ym2612"
    },
    {
      "channel": 5,
      "note": 71,
      "start": 18.6564,
      "duration": 0.0161,
      "velocity": 110,
      "chip": "ym2612"
    },
    {
      "channel": 4,
      "note": 75,
      "start": 18.6576,
      "duration": 0.0161,
      "velocity": 110,
      "chip": "ym2612"
    },
    {
      "channel": 3,
      "note": 73,
      "start": 18.6588,
      "duration": 0.0162,
      "velocity": 94,
      "chip": "ym2612"
    },
    {
      "channel": 2,
      "note": 59,
      "start": 18.66,
      "duration": 0.0161,
      "velocity": 100,
      "chip": "ym2612"
    },
    {
      "channel": 1,
      "note": 71,
      "start": 18.6611,
      "duration": 0.0162,
      "velocity": 94,
      "chip": "ym2612"
    },
    {
      "channel": 0,
      "note": 43,
      "start": 18.6714,
      "duration": 0.0161,
      "velocity": 115,
      "chip": "ym2612"
    },
    {
      "channel": 3,
      "note": 73,
      "start": 18.6749,
      "duration": 0.0162,
      "velocity": 94,
      "chip": "ym2612"
    },
    {
      "channel": 2,
      "note": 59,
      "start": 18.6761,
      "duration": 0.0161,
      "velocity": 100,
      "chip": "ym2612"
    },
    {
      "channel": 1,
      "note": 71,
      "start": 18.6773,
      "duration": 0.0161,
      "velocity": 94,
      "chip": "ym2612"
    },
    {
      "channel": 0,
      "note": 44,
      "start": 18.6875,
      "duration": 0.0161,
      "velocity": 115,
      "chip": "ym2612"
    },
    {
      "channel": 2,
      "note": 59,
      "start": 18.6922,
      "duration": 0.0161,
      "velocity": 100,
      "chip": "ym2612"
    },
    {
      "channel": 1,
      "note": 71,
      "start": 18.6934,
      "duration": 0.0161,
      "velocity": 94,
      "chip": "ym2612"
    },
    {
      "channel": 0,
      "note": 44,
      "start": 18.7036,
      "duration": 0.0183,
      "velocity": 115,
      "chip": "ym2612"
    },
    {
      "channel": 2,
      "note": 59,
      "start": 18.7083,
      "duration": 0.0191,
      "velocity": 100,
      "chip": "ym2612"
    },
    {
      "channel": 1,
      "note": 71,
      "start": 18.7095,
      "duration": 0.0192,
      "velocity": 94,
      "chip": "ym2612"
    },
    {
      "channel": 0,
      "note": 36,
      "start": 18.7219,
      "duration": 0.0145,
      "velocity": 115,
      "chip": "ym2612"
    },
    {
      "channel": 5,
      "note": 71,
      "start": 18.7234,
      "duration": 0.0142,
      "velocity": 110,
      "chip": "ym2612"
    },
    {
      "channel": 4,
      "note": 75,
      "start": 18.7249,
      "duration": 0.0141,
      "velocity": 110,
      "chip": "ym2612"
    },
    {
      "channel": 2,
      "note": 59,
      "start": 18.7275,
      "duration": 0.0141,
      "velocity": 100,
      "chip": "ym2612"
    },
    {
      "channel": 1,
      "note": 71,
      "start": 18.7287,
      "duration": 0.0141,
      "velocity": 94,
      "chip": "ym2612"
    },
    {
      "channel": 0,
      "note": 36,
      "start": 18.7364,
      "duration": 0.016,
      "velocity": 115,
      "chip": "ym2612"
    },
    {
      "channel": 5,
      "note": 71,
      "start": 18.7376,
      "duration": 0.016,
      "velocity": 110,
      "chip": "ym2612"
    },
    {
      "channel": 4,
      "note": 75,
      "start": 18.7389,
      "duration": 0.0159,
      "velocity": 110,
      "chip": "ym2612"
    },
    {
      "channel": 3,
      "note": 71,
      "start": 18.7404,
      "duration": 0.0156,
      "velocity": 94,
      "chip": "ym2612"
    },
    {
      "channel": 2,
      "note": 59,
      "start": 18.7416,
      "duration": 0.0156,
      "velocity": 100,
      "chip": "ym2612"
    },
    {
      "channel": 1,
      "note": 71,
      "start": 18.7428,
      "duration": 0.0156,
      "velocity": 94,
      "chip": "ym2612"
    },
    {
      "channel": 0,
      "note": 37,
      "start": 18.7525,
      "duration": 0.016,
      "velocity": 115,
      "chip": "ym2612"
    },
    {
      "channel": 5,
      "note": 71,
      "start": 18.7536,
      "duration": 0.0161,
      "velocity": 110,
      "chip": "ym2612"
    },
    {
      "channel": 4,
      "note": 75,
      "start": 18.7548,
      "duration": 0.0161,
      "velocity": 110,
      "chip": "ym2612"
    },
    {
      "channel": 3,
      "note": 71,
      "start": 18.756,
      "duration": 0.016,
      "velocity": 94,
      "chip": "ym2612"
    },
    {
      "channel": 2,
      "note": 59,
      "start": 18.7572,
      "duration": 0.016,
      "velocity": 100,
      "chip": "ym2612"
    },
    {
      "channel": 1,
      "note": 71,
      "start": 18.7584,
      "duration": 0.016,
      "velocity": 94,
      "chip": "ym2612"
    },
    {
      "channel": 0,
      "note": 37,
      "start": 18.7685,
      "duration": 0.0158,
      "velocity": 115,
      "chip": "ym2612"
    },
    {
      "channel": 5,
      "note": 71,
      "start": 18.7697,
      "duration": 0.0162,
      "velocity": 110,
      "chip": "ym2612"
    },
    {
      "channel": 4,
      "note": 75,
      "start": 18.7709,
      "duration": 0.0161,
      "velocity": 110,
      "chip": "ym2612"
    },
    {
      "channel": 3,
      "note": 71,
      "start": 18.7721,
      "duration": 0.0161,
      "velocity": 94,
      "chip": "ym2612"
    },
    {
      "channel": 2,
      "note": 59,
      "start": 18.7733,
      "duration": 0.0161,
      "velocity": 100,
      "chip": "ym2612"
    },
    {
      "channel": 1,
      "note": 71,
      "start": 18.7744,
      "duration": 0.0161,
      "velocity": 94,
      "chip": "ym2612"
    },
    {
      "channel": 0,
      "note": 38,
      "start": 18.7843,
      "duration": 0.0159,
      "velocity": 115,
      "chip": "ym2612"
    },
    {
      "channel": 3,
      "note": 71,
      "start": 18.7882,
      "duration": 0.0161,
      "velocity": 94,
      "chip": "ym2612"
    },
    {
      "channel": 2,
      "note": 59,
      "start": 18.7894,
      "duration": 0.0161,
      "velocity": 100,
      "chip": "ym2612"
    },
    {
      "channel": 1,
      "note": 71,
      "start": 18.7905,
      "duration": 0.0161,
      "velocity": 94,
      "chip": "ym2612"
    },
    {
      "channel": 0,
      "note": 38,
      "start": 18.8002,
      "duration": 0.0161,
      "velocity": 115,
      "chip": "ym2612"
    },
    {
      "channel": 3,
      "note": 71,
      "start": 18.8043,
      "duration": 0.0161,
      "velocity": 94,
      "chip": "ym2612"
    },
    {
      "channel": 2,
      "note": 59,
      "start": 18.8055,
      "duration": 0.0161,
      "velocity": 100,
      "chip": "ym2612"
    },
    {
      "channel": 1,
      "note": 71,
      "start": 18.8066,
      "duration": 0.0161,
      "velocity": 94,
      "chip": "ym2612"
    },
    {
      "channel": 0,
      "note": 39,
      "start": 18.8163,
      "duration": 0.0181,
      "velocity": 124,
      "chip": "ym2612"
    },
    {
      "channel": 3,
      "note": 71,
      "start": 18.8204,
      "duration": 0.0186,
      "velocity": 94,
      "chip": "ym2612"
    },
    {
      "channel": 2,
      "note": 59,
      "start": 18.8215,
      "duration": 0.0188,
      "velocity": 100,
      "chip": "ym2612"
    },
    {
      "channel": 1,
      "note": 71,
      "start": 18.8227,
      "duration": 0.0188,
      "velocity": 94,
      "chip": "ym2612"
    },
    {
      "channel": 0,
      "note": 84,
      "start": 18.8345,
      "duration": 0.0141,
      "velocity": 124,
      "chip": "ym2612"
    },
    {
      "channel": 5,
      "note": 75,
      "start": 18.8364,
      "duration": 0.0134,
      "velocity": 110,
      "chip": "ym2612"
    },
    {
      "channel": 4,
      "note": 71,
      "start": 18.8379,
      "duration": 0.0137,
      "velocity": 110,
      "chip": "ym2612"
    },
    {
      "channel": 3,
      "note": 71,
      "start": 18.839,
      "duration": 0.0137,
      "velocity": 94,
      "chip": "ym2612"
    },
    {
      "channel": 2,
      "note": 59,
      "start": 18.8403,
      "duration": 0.0137,
      "velocity": 100,
      "chip": "ym2612"
    },
    {
      "channel": 1,
      "note": 71,
      "start": 18.8415,
      "duration": 0.0137,
      "velocity": 94,
      "chip": "ym2612"
    },
    {
      "channel": 0,
      "note": 82,
      "start": 18.8485,
      "duration": 0.0161,
      "velocity": 124,
      "chip": "ym2612"
    },
    {
      "channel": 5,
      "note": 75,
      "start": 18.8498,
      "duration": 0.016,
      "velocity": 110,
      "chip": "ym2612"
    },
    {
      "channel": 4,
      "note": 71,
      "start": 18.8516,
      "duration": 0.0154,
      "velocity": 110,
      "chip": "ym2612"
    },
    {
      "channel": 3,
      "note": 71,
      "start": 18.8528,
      "duration": 0.0158,
      "velocity": 94,
      "chip": "ym2612"
    },
    {
      "channel": 2,
      "note": 59,
      "start": 18.854,
      "duration": 0.016,
      "velocity": 100,
      "chip": "ym2612"
    },
    {
      "channel": 1,
      "note": 71,
      "start": 18.8551,
      "duration": 0.016,
      "velocity": 94,
      "chip": "ym2612"
    },
    {
      "channel": 0,
      "note": 80,
      "start": 18.8646,
      "duration": 0.0161,
      "velocity": 124,
      "chip": "ym2612"
    },
    {
      "channel": 5,
      "note": 75,
      "start": 18.8658,
      "duration": 0.0161,
      "velocity": 110,
      "chip": "ym2612"
    },
    {
      "channel": 4,
      "note": 71,
      "start": 18.8669,
      "duration": 0.0161,
      "velocity": 110,
      "chip": "ym2612"
    },
    {
      "channel": 3,
      "note": 71,
      "start": 18.8686,
      "duration": 0.0158,
      "velocity": 94,
      "chip": "ym2612"
    },
    {
      "channel": 2,
      "note": 59,
      "start": 18.87,
      "duration": 0.016,
      "velocity": 100,
      "chip": "ym2612"
    },
    {
      "channel": 1,
      "note": 71,
      "start": 18.8711,
      "duration": 0.016,
      "velocity": 94,
      "chip": "ym2612"
    },
    {
      "channel": 0,
      "note": 77,
      "start": 18.8807,
      "duration": 0.0161,
      "velocity": 124,
      "chip": "ym2612"
    },
    {
      "channel": 3,
      "note": 71,
      "start": 18.8844,
      "duration": 0.0159,
      "velocity": 94,
      "chip": "ym2612"
    },
    {
      "channel": 2,
      "note": 59,
      "start": 18.886,
      "duration": 0.016,
      "velocity": 100,
      "chip": "ym2612"
    },
    {
      "channel": 1,
      "note": 71,
      "start": 18.8871,
      "duration": 0.0161,
      "velocity": 94,
      "chip": "ym2612"
    },
    {
      "channel": 0,
      "note": 75,
      "start": 18.8968,
      "duration": 0.0161,
      "velocity": 124,
      "chip": "ym2612"
    },
    {
      "channel": 3,
      "note": 71,
      "start": 18.9003,
      "duration": 0.0161,
      "velocity": 94,
      "chip": "ym2612"
    },
    {
      "channel": 2,
      "note": 59,
      "start": 18.902,
      "duration": 0.0157,
      "velocity": 100,
      "chip": "ym2612"
    },
    {
      "channel": 1,
      "note": 71,
      "start": 18.9032,
      "duration": 0.0161,
      "velocity": 94,
      "chip": "ym2612"
    },
    {
      "channel": 0,
      "note": 72,
      "start": 18.9129,
      "duration": 0.0161,
      "velocity": 124,
      "chip": "ym2612"
    },
    {
      "channel": 3,
      "note": 71,
      "start": 18.9164,
      "duration": 0.0167,
      "velocity": 94,
      "chip": "ym2612"
    },
    {
      "channel": 2,
      "note": 59,
      "start": 18.9177,
      "duration": 0.0172,
      "velocity": 100,
      "chip": "ym2612"
    },
    {
      "channel": 1,
      "note": 71,
      "start": 18.9193,
      "duration": 0.0169,
      "velocity": 94,
      "chip": "ym2612"
    },
    {
      "channel": 0,
      "note": 70,
      "start": 18.929,
      "duration": 0.0161,
      "velocity": 124,
      "chip": "ym2612"
    },
    {
      "channel": 5,
      "note": 75,
      "start": 18.9305,
      "duration": 0.0159,
      "velocity": 110,
      "chip": "ym2612"
    },
    {
      "channel": 4,
      "note": 71,
      "start": 18.9319,
      "duration": 0.0156,
      "velocity": 110,
      "chip": "ym2612"
    },
    {
      "channel": 3,
      "note": 71,
      "start": 18.9331,
      "duration": 0.0156,
      "velocity": 94,
      "chip": "ym2612"
    },
    {
      "channel": 2,
      "note": 59,
      "start": 18.935,
      "duration": 0.015,
      "velocity": 100,
      "chip": "ym2612"
    },
    {
      "channel": 1,
      "note": 71,
      "start": 18.9362,
      "duration": 0.0155,
      "velocity": 94,
      "chip": "ym2612"
    },
    {
      "channel": 0,
      "note": 68,
      "start": 18.9451,
      "duration": 0.0161,
      "velocity": 124,
      "chip": "ym2612"
    },
    {
      "channel": 5,
      "note": 75,
      "start": 18.9463,
      "duration": 0.0161,
      "velocity": 110,
      "chip": "ym2612"
    },
    {
      "channel": 4,
      "note": 71,
      "start": 18.9476,
      "duration": 0.016,
      "velocity": 110,
      "chip": "ym2612"
    },
    {
      "channel": 3,
      "note": 71,
      "start": 18.9487,
      "duration": 0.016,
      "velocity": 94,
      "chip": "ym2612"
    },
    {
      "channel": 2,
      "note": 59,
      "start": 18.95,
      "duration": 0.016,
      "velocity": 100,
      "chip": "ym2612"
    },
    {
      "channel": 1,
      "note": 71,
      "start": 18.9517,
      "duration": 0.0154,
      "velocity": 94,
      "chip": "ym2612"
    },
    {
      "channel": 0,
      "note": 65,
      "start": 18.9612,
      "duration": 0.0161,
      "velocity": 124,
      "chip": "ym2612"
    },
    {
      "channel": 5,
      "note": 75,
      "start": 18.9624,
      "duration": 0.0161,
      "velocity": 110,
      "chip": "ym2612"
    },
    {
      "channel": 4,
      "note": 71,
      "start": 18.9635,
      "duration": 0.0161,
      "velocity": 110,
      "chip": "ym2612"
    },
    {
      "channel": 3,
      "note": 71,
      "start": 18.9647,
      "duration": 0.0161,
      "velocity": 94,
      "chip": "ym2612"
    },
    {
      "channel": 2,
      "note": 59,
      "start": 18.9659,
      "duration": 0.0161,
      "velocity": 100,
      "chip": "ym2612"
    },
    {
      "channel": 1,
      "note": 71,
      "start": 18.9671,
      "duration": 0.0161,
      "velocity": 94,
      "chip": "ym2612"
    },
    {
      "channel": 0,
      "note": 63,
      "start": 18.9773,
      "duration": 0.0153,
      "velocity": 1,
      "chip": "ym2612"
    },
    {
      "channel": 5,
      "note": 75,
      "start": 18.9785,
      "duration": 0.0153,
      "velocity": 110,
      "chip": "ym2612"
    },
    {
      "channel": 4,
      "note": 71,
      "start": 18.9796,
      "duration": 0.0153,
      "velocity": 110,
      "chip": "ym2612"
    },
    {
      "channel": 3,
      "note": 71,
      "start": 18.9808,
      "duration": 0.0153,
      "velocity": 94,
      "chip": "ym2612"
    },
    {
      "channel": 2,
      "note": 59,
      "start": 18.982,
      "duration": 0.0153,
      "velocity": 100,
      "chip": "ym2612"
    },
    {
      "channel": 1,
      "note": 71,
      "start": 18.9832,
      "duration": 0.0153,
      "velocity": 94,
      "chip": "ym2612"
    },
    {
      "channel": 3,
      "note": 71,
      "start": 18.9961,
      "duration": 0.0152,
      "velocity": 94,
      "chip": "ym2612"
    },
    {
      "channel": 2,
      "note": 59,
      "start": 18.9974,
      "duration": 0.0152,
      "velocity": 100,
      "chip": "ym2612"
    },
    {
      "channel": 1,
      "note": 71,
      "start": 18.9985,
      "duration": 0.0152,
      "velocity": 94,
      "chip": "ym2612"
    },
    {
      "channel": 3,
      "note": 71,
      "start": 19.0113,
      "duration": 0.0161,
      "velocity": 94,
      "chip": "ym2612"
    },
    {
      "channel": 2,
      "note": 59,
      "start": 19.0126,
      "duration": 0.0161,
      "velocity": 100,
      "chip": "ym2612"
    },
    {
      "channel": 1,
      "note": 71,
      "start": 19.0137,
      "duration": 0.0161,
      "velocity": 94,
      "chip": "ym2612"
    },
    {
      "channel": 3,
      "note": 71,
      "start": 19.0274,
      "duration": 0.0204,
      "velocity": 94,
      "chip": "ym2612"
    },
    {
      "channel": 2,
      "note": 59,
      "start": 19.0287,
      "duration": 0.0205,
      "velocity": 100,
      "chip": "ym2612"
    },
    {
      "channel": 1,
      "note": 71,
      "start": 19.0298,
      "duration": 0.0207,
      "velocity": 94,
      "chip": "ym2612"
    },
    {
      "channel": 0,
      "note": 36,
      "start": 19.0436,
      "duration": 0.0143,
      "velocity": 115,
      "chip": "ym2612"
    },
    {
      "channel": 5,
      "note": 71,
      "start": 19.0451,
      "duration": 0.014,
      "velocity": 110,
      "chip": "ym2612"
    },
    {
      "channel": 4,
      "note": 75,
      "start": 19.0467,
      "duration": 0.0137,
      "velocity": 110,
      "chip": "ym2612"
    },
    {
      "channel": 3,
      "note": 71,
      "start": 19.0478,
      "duration": 0.0137,
      "velocity": 94,
      "chip": "ym2612"
    },
    {
      "channel": 2,
      "note": 54,
      "start": 19.0493,
      "duration": 0.0134,
      "velocity": 100,
      "chip": "ym2612"
    },
    {
      "channel": 1,
      "note": 71,
      "start": 19.0505,
      "duration": 0.0134,
      "velocity": 94,
      "chip": "ym2612"
    },
    {
      "channel": 0,
      "note": 36,
      "start": 19.0579,
      "duration": 0.016,
      "velocity": 115,
      "chip": "ym2612"
    },
    {
      "channel": 5,
      "note": 71,
      "start": 19.0591,
      "duration": 0.016,
      "velocity": 110,
      "chip": "ym2612"
    },
    {
      "channel": 4,
      "note": 75,
      "start": 19.0604,
      "duration": 0.0159,
      "velocity": 110,
      "chip": "ym2612"
    },
    {
      "channel": 3,
      "note": 71,
      "start": 19.0615,
      "duration": 0.0159,
      "velocity": 94,
      "chip": "ym2612"
    },
    {
      "channel": 2,
      "note": 54,
      "start": 19.0627,
      "duration": 0.0159,
      "velocity": 100,
      "chip": "ym2612"
    },
    {
      "channel": 1,
      "note": 71,
      "start": 19.0639,
      "duration": 0.0158,
      "velocity": 94,
      "chip": "ym2612"
    },
    {
      "channel": 0,
      "note": 37,
      "start": 19.0739,
      "duration": 0.0161,
      "velocity": 115,
      "chip": "ym2612"
    },
    {
      "channel": 5,
      "note": 71,
      "start": 19.0751,
      "duration": 0.0161,
      "velocity": 110,
      "chip": "ym2612"
    },
    {
      "channel": 4,
      "note": 75,
      "start": 19.0763,
      "duration": 0.0161,
      "velocity": 110,
      "chip": "ym2612"
    },
    {
      "channel": 3,
      "note": 71,
      "start": 19.0774,
      "duration": 0.0161,
      "velocity": 94,
      "chip": "ym2612"
    },
    {
      "channel": 2,
      "note": 54,
      "start": 19.0785,
      "duration": 0.0161,
      "velocity": 100,
      "chip": "ym2612"
    },
    {
      "channel": 1,
      "note": 71,
      "start": 19.0798,
      "duration": 0.0161,
      "velocity": 94,
      "chip": "ym2612"
    },
    {
      "channel": 0,
      "note": 37,
      "start": 19.09,
      "duration": 0.0161,
      "velocity": 115,
      "chip": "ym2612"
    },
    {
      "channel": 5,
      "note": 71,
      "start": 19.0911,
      "duration": 0.0162,
      "velocity": 110,
      "chip": "ym2612"
    },
    {
      "channel": 4,
      "note": 75,
      "start": 19.0924,
      "duration": 0.0161,
      "velocity": 110,
      "chip": "ym2612"
    },
    {
      "channel": 3,
      "note": 71,
      "start": 19.0935,
      "duration": 0.0162,
      "velocity": 94,
      "chip": "ym2612"
    },
    {
      "channel": 2,
      "note": 54,
      "start": 19.0946,
      "duration": 0.0161,
      "velocity": 100,
      "chip": "ym2612"
    },
    {
      "channel": 1,
      "note": 71,
      "start": 19.0959,
      "duration": 0.0161,
      "velocity": 94,
      "chip": "ym2612"
    },
    {
      "channel": 0,
      "note": 38,
      "start": 19.1061,
      "duration": 0.0161,
      "velocity": 115,
      "chip": "ym2612"
    },
    {
      "channel": 5,
      "note": 71,
      "start": 19.1073,
      "duration": 0.0161,
      "velocity": 110,
      "chip": "ym2612"
    },
    {
      "channel": 4,
      "note": 75,
      "start": 19.1084,
      "duration": 0.0161,
      "velocity": 110,
      "chip": "ym2612"
    },
    {
      "channel": 3,
      "note": 71,
      "start": 19.1097,
      "duration": 0.0161,
      "velocity": 94,
      "chip": "ym2612"
    },
    {
      "channel": 2,
      "note": 54,
      "start": 19.1108,
      "duration": 0.0161,
      "velocity": 100,
      "chip": "ym2612"
    },
    {
      "channel": 1,
      "note": 71,
      "start": 19.112,
      "duration": 0.0161,
      "velocity": 94,
      "chip": "ym2612"
    },
    {
      "channel": 0,
      "note": 38,
      "start": 19.1222,
      "duration": 0.018,
      "velocity": 115,
      "chip": "ym2612"
    },
    {
      "channel": 5,
      "note": 71,
      "start": 19.1234,
      "duration": 0.0179,
      "velocity": 110,
      "chip": "ym2612"
    },
    {
      "channel": 4,
      "note": 75,
      "start": 19.1245,
      "duration": 0.018,
      "velocity": 110,
      "chip": "ym2612"
    },
    {
      "channel": 3,
      "note": 71,
      "start": 19.1257,
      "duration": 0.018,
      "velocity": 94,
      "chip": "ym2612"
    },
    {
      "channel": 2,
      "note": 54,
      "start": 19.1269,
      "duration": 0.0182,
      "velocity": 100,
      "chip": "ym2612"
    },
    {
      "channel": 1,
      "note": 71,
      "start": 19.128,
      "duration": 0.0183,
      "velocity": 94,
      "chip": "ym2612"
    },
    {
      "channel": 0,
      "note": 36,
      "start": 19.1402,
      "duration": 0.0143,
      "velocity": 115,
      "chip": "ym2612"
    },
    {
      "channel": 5,
      "note": 71,
      "start": 19.1413,
      "duration": 0.0143,
      "velocity": 110,
      "chip": "ym2612"
    },
    {
      "channel": 4,
      "note": 75,
      "start": 19.1425,
      "duration": 0.0143,
      "velocity": 110,
      "chip": "ym2612"
    },
    {
      "channel": 3,
      "note": 71,
      "start": 19.1437,
      "duration": 0.0143,
      "velocity": 94,
      "chip": "ym2612"
    },
    {
      "channel": 2,
      "note": 56,
      "start": 19.1451,
      "duration": 0.0141,
      "velocity": 100,
      "chip": "ym2612"
    },
    {
      "channel": 1,
      "note": 71,
      "start": 19.1463,
      "duration": 0.0141,
      "velocity": 94,
      "chip": "ym2612"
    },
    {
      "channel": 0,
      "note": 36,
      "start": 19.1544,
      "duration": 0.0161,
      "velocity": 115,
      "chip": "ym2612"
    },
    {
      "channel": 3,
      "note": 71,
      "start": 19.158,
      "duration": 0.0161,
      "velocity": 94,
      "chip": "ym2612"
    },
    {
      "channel": 2,
      "note": 56,
      "start": 19.1592,
      "duration": 0.016,
      "velocity": 100,
      "chip": "ym2612"
    },
    {
      "channel": 1,
      "note": 71,
      "start": 19.1604,
      "duration": 0.016,
      "velocity": 94,
      "chip": "ym2612"
    },
    {
      "channel": 0,
      "note": 37,
      "start": 19.1705,
      "duration": 0.0163,
      "velocity": 115,
      "chip": "ym2612"
    },
    {
      "channel": 3,
      "note": 71,
      "start": 19.1741,
      "duration": 0.0163,
      "velocity": 94,
      "chip": "ym2612"
    },
    {
      "channel": 2,
      "note": 56,
      "start": 19.1752,
      "duration": 0.0163,
      "velocity": 100,
      "chip": "ym2612"
    },
    {
      "channel": 1,
      "note": 71,
      "start": 19.1764,
      "duration": 0.0163,
      "velocity": 94,
      "chip": "ym2612"
    },
    {
      "channel": 0,
      "note": 37,
      "start": 19.1869,
      "duration": 0.0163,
      "velocity": 115,
      "chip": "ym2612"
    },
    {
      "channel": 3,
      "note": 71,
      "start": 19.1904,
      "duration": 0.0163,
      "velocity": 94,
      "chip": "ym2612"
    },
    {
      "channel": 2,
      "note": 56,
      "start": 19.1915,
      "duration": 0.0163,
      "velocity": 100,
      "chip": "ym2612"
    },
    {
      "channel": 1,
      "note": 71,
      "start": 19.1927,
      "duration": 0.0163,
      "velocity": 94,
      "chip": "ym2612"
    },
    {
      "channel": 0,
      "note": 38,
      "start": 19.2032,
      "duration": 0.0162,
      "velocity": 115,
      "chip": "ym2612"
    },
    {
      "channel": 3,
      "note": 71,
      "start": 19.2067,
      "duration": 0.0162,
      "velocity": 94,
      "chip": "ym2612"
    },
    {
      "channel": 2,
      "note": 56,
      "start": 19.2079,
      "duration": 0.0162,
      "velocity": 100,
      "chip": "ym2612"
    },
    {
      "channel": 1,
      "note": 71,
      "start": 19.2091,
      "duration": 0.0162,
      "velocity": 94,
      "chip": "ym2612"
    },
    {
      "channel": 0,
      "note": 38,
      "start": 19.2194,
      "duration": 0.016,
      "velocity": 115,
      "chip": "ym2612"
    },
    {
      "channel": 3,
      "note": 71,
      "start": 19.2229,
      "duration": 0.0161,
      "velocity": 94,
      "chip": "ym2612"
    },
    {
      "channel": 2,
      "note": 56,
      "start": 19.2241,
      "duration": 0.0161,
      "velocity": 100,
      "chip": "ym2612"
    },
    {
      "channel": 1,
      "note": 71,
      "start": 19.2252,
      "duration": 0.0162,
      "velocity": 94,
      "chip": "ym2612"
    },
    {
      "channel": 0,
      "note": 39,
      "start": 19.2354,
      "duration": 0.018,
      "velocity": 115,
      "chip": "ym2612"
    },
    {
      "channel": 3,
      "note": 71,
      "start": 19.239,
      "duration": 0.0186,
      "velocity": 94,
      "chip": "ym2612"
    },
    {
      "channel": 2,
      "note": 56,
      "start": 19.2402,
      "duration": 0.0188,
      "velocity": 100,
      "chip": "ym2612"
    },
    {
      "channel": 1,
      "note": 71,
      "start": 19.2414,
      "duration": 0.0189,
      "velocity": 94,
      "chip": "ym2612"
    },
    {
      "channel": 0,
      "note": 36,
      "start": 19.2534,
      "duration": 0.0137,
      "velocity": 115,
      "chip": "ym2612"
    },
    {
      "channel": 5,
      "note": 75,
      "start": 19.2549,
      "duration": 0.014,
      "velocity": 110,
      "chip": "ym2612"
    },
    {
      "channel": 4,
      "note": 71,
      "start": 19.2565,
      "duration": 0.0138,
      "velocity": 110,
      "chip": "ym2612"
    },
    {
      "channel": 3,
      "note": 71,
      "start": 19.2576,
      "duration": 0.0138,
      "velocity": 94,
      "chip": "ym2612"
    },
    {
      "channel": 2,
      "note": 59,
      "start": 19.2591,
      "duration": 0.0136,
      "velocity": 100,
      "chip": "ym2612"
    },
    {
      "channel": 1,
      "note": 71,
      "start": 19.2603,
      "duration": 0.0135,
      "velocity": 94,
      "chip": "ym2612"
    },
    {
      "channel": 0,
      "note": 36,
      "start": 19.2672,
      "duration": 0.016,
      "velocity": 115,
      "chip": "ym2612"
    },
    {
      "channel": 5,
      "note": 75,
      "start": 19.2689,
      "duration": 0.016,
      "velocity": 110,
      "chip": "ym2612"
    },
    {
      "channel": 4,
      "note": 71,
      "start": 19.2703,
      "duration": 0.0159,
      "velocity": 110,
      "chip": "ym2612"
    },
    {
      "channel": 3,
      "note": 71,
      "start": 19.2714,
      "duration": 0.0159,
      "velocity": 94,
      "chip": "ym2612"
    },
    {
      "channel": 2,
      "note": 59,
      "start": 19.2726,
      "duration": 0.0159,
      "velocity": 100,
      "chip": "ym2612"
    },
    {
      "channel": 1,
      "note": 71,
      "start": 19.2738,
      "duration": 0.0159,
      "velocity": 94,
      "chip": "ym2612"
    },
    {
      "channel": 0,
      "note": 37,
      "start": 19.2832,
      "duration": 0.0161,
      "velocity": 115,
      "chip": "ym2612"
    },
    {
      "channel": 5,
      "note": 75,
      "start": 19.2849,
      "duration": 0.0156,
      "velocity": 110,
      "chip": "ym2612"
    },
    {
      "channel": 4,
      "note": 71,
      "start": 19.2861,
      "duration": 0.0161,
      "velocity": 110,
      "chip": "ym2612"
    },
    {
      "channel": 3,
      "note": 71,
      "start": 19.2873,
      "duration": 0.0161,
      "velocity": 94,
      "chip": "ym2612"
    },
    {
      "channel": 2,
      "note": 59,
      "start": 19.2885,
      "duration": 0.0161,
      "velocity": 100,
      "chip": "ym2612"
    },
    {
      "channel": 1,
      "note": 71,
      "start": 19.2897,
      "duration": 0.0161,
      "velocity": 94,
      "chip": "ym2612"
    },
    {
      "channel": 0,
      "note": 37,
      "start": 19.2993,
      "duration": 0.0161,
      "velocity": 115,
      "chip": "ym2612"
    },
    {
      "channel": 5,
      "note": 75,
      "start": 19.3005,
      "duration": 0.0161,
      "velocity": 110,
      "chip": "ym2612"
    },
    {
      "channel": 4,
      "note": 71,
      "start": 19.3023,
      "duration": 0.016,
      "velocity": 110,
      "chip": "ym2612"
    },
    {
      "channel": 3,
      "note": 71,
      "start": 19.3034,
      "duration": 0.0161,
      "velocity": 94,
      "chip": "ym2612"
    },
    {
      "channel": 2,
      "note": 59,
      "start": 19.3046,
      "duration": 0.0162,
      "velocity": 100,
      "chip": "ym2612"
    },
    {
      "channel": 1,
      "note": 71,
      "start": 19.3058,
      "duration": 0.0161,
      "velocity": 94,
      "chip": "ym2612"
    },
    {
      "channel": 0,
      "note": 38,
      "start": 19.3154,
      "duration": 0.0162,
      "velocity": 115,
      "chip": "ym2612"
    },
    {
      "channel": 5,
      "note": 75,
      "start": 19.3166,
      "duration": 0.0161,
      "velocity": 110,
      "chip": "ym2612"
    },
    {
      "channel": 4,
      "note": 71,
      "start": 19.3183,
      "duration": 0.0155,
      "velocity": 110,
      "chip": "ym2612"
    },
    {
      "channel": 3,
      "note": 71,
      "start": 19.3195,
      "duration": 0.0161,
      "velocity": 94,
      "chip": "ym2612"
    },
    {
      "channel": 2,
      "note": 59,
      "start": 19.3207,
      "duration": 0.016,
      "velocity": 100,
      "chip": "ym2612"
    },
    {
      "channel": 1,
      "note": 71,
      "start": 19.3219,
      "duration": 0.0161,
      "velocity": 94,
      "chip": "ym2612"
    },
    {
      "channel": 0,
      "note": 38,
      "start": 19.3315,
      "duration": 0.0179,
      "velocity": 127,
      "chip": "ym2612"
    },
    {
      "channel": 5,
      "note": 75,
      "start": 19.3327,
      "duration": 0.0182,
      "velocity": 110,
      "chip": "ym2612"
    },
    {
      "channel": 4,
      "note": 71,
      "start": 19.3338,
      "duration": 0.0186,
      "velocity": 110,
      "chip": "ym2612"
    },
    {
      "channel": 3,
      "note": 71,
      "start": 19.3356,
      "duration": 0.018,
      "velocity": 94,
      "chip": "ym2612"
    },
    {
      "channel": 2,
      "note": 59,
      "start": 19.3368,
      "duration": 0.0183,
      "velocity": 100,
      "chip": "ym2612"
    },
    {
      "channel": 1,
      "note": 71,
      "start": 19.338,
      "duration": 0.0183,
      "velocity": 94,
      "chip": "ym2612"
    },
    {
      "channel": 0,
      "note": 88,
      "start": 19.3495,
      "duration": 0.0143,
      "velocity": 127,
      "chip": "ym2612"
    },
    {
      "channel": 5,
      "note": 75,
      "start": 19.3509,
      "duration": 0.0141,
      "velocity": 110,
      "chip": "ym2612"
    },
    {
      "channel": 4,
      "note": 71,
      "start": 19.3524,
      "duration": 0.0137,
      "velocity": 110,
      "chip": "ym2612"
    },
    {
      "channel": 3,
      "note": 71,
      "start": 19.3536,
      "duration": 0.0139,
      "velocity": 94,
      "chip": "ym2612"
    },
    {
      "channel": 2,
      "note": 71,
      "start": 19.3551,
      "duration": 0.0141,
      "velocity": 100,
      "chip": "ym2612"
    },
    {
      "channel": 1,
      "note": 71,
      "start": 19.3562,
      "duration": 0.0141,
      "velocity": 94,
      "chip": "ym2612"
    },
    {
      "channel": 0,
      "note": 86,
      "start": 19.3638,
      "duration": 0.016,
      "velocity": 127,
      "chip": "ym2612"
    },
    {
      "channel": 3,
      "note": 71,
      "start": 19.3676,
      "duration": 0.0158,
      "velocity": 94,
      "chip": "ym2612"
    },
    {
      "channel": 2,
      "note": 71,
      "start": 19.3691,
      "duration": 0.0159,
      "velocity": 100,
      "chip": "ym2612"
    },
    {
      "channel": 1,
      "note": 71,
      "start": 19.3703,
      "duration": 0.016,
      "velocity": 94,
      "chip": "ym2612"
    },
    {
      "channel": 0,
      "note": 85,
      "start": 19.3798,
      "duration": 0.0161,
      "velocity": 127,
      "chip": "ym2612"
    },
    {
      "channel": 3,
      "note": 71,
      "start": 19.3833,
      "duration": 0.0161,
      "velocity": 94,
      "chip": "ym2612"
    },
    {
      "channel": 2,
      "note": 71,
      "start": 19.385,
      "duration": 0.0158,
      "velocity": 100,
      "chip": "ym2612"
    },
    {
      "channel": 1,
      "note": 71,
      "start": 19.3863,
      "duration": 0.0161,
      "velocity": 94,
      "chip": "ym2612"
    },
    {
      "channel": 0,
      "note": 83,
      "start": 19.3959,
      "duration": 0.0161,
      "velocity": 127,
      "chip": "ym2612"
    },
    {
      "channel": 3,
      "note": 71,
      "start": 19.3994,
      "duration": 0.0161,
      "velocity": 94,
      "chip": "ym2612"
    },
    {
      "channel": 2,
      "note": 71,
      "start": 19.4008,
      "duration": 0.0159,
      "velocity": 100,
      "chip": "ym2612"
    },
    {
      "channel": 1,
      "note": 71,
      "start": 19.4024,
      "duration": 0.016,
      "velocity": 94,
      "chip": "ym2612"
    },
    {
      "channel": 0,
      "note": 81,
      "start": 19.412,
      "duration": 0.0161,
      "velocity": 127,
      "chip": "ym2612"
    },
    {
      "channel": 3,
      "note": 71,
      "start": 19.4155,
      "duration": 0.0161,
      "velocity": 94,
      "chip": "ym2612"
    },
    {
      "channel": 2,
      "note": 71,
      "start": 19.4167,
      "duration": 0.0161,
      "velocity": 100,
      "chip": "ym2612"
    },
    {
      "channel": 1,
      "note": 71,
      "start": 19.4184,
      "duration": 0.0158,
      "velocity": 94,
      "chip": "ym2612"
    },
    {
      "channel": 0,
      "note": 80,
      "start": 19.4281,
      "duration": 0.0161,
      "velocity": 127,
      "chip": "ym2612"
    },
    {
      "channel": 3,
      "note": 71,
      "start": 19.4317,
      "duration": 0.0161,
      "velocity": 94,
      "chip": "ym2612"
    },
    {
      "channel": 2,
      "note": 71,
      "start": 19.4328,
      "duration": 0.0161,
      "velocity": 100,
      "chip": "ym2612"
    },
    {
      "channel": 1,
      "note": 71,
      "start": 19.4342,
      "duration": 0.0159,
      "velocity": 94,
      "chip": "ym2612"
    },
    {
      "channel": 0,
      "note": 78,
      "start": 19.4442,
      "duration": 0.0161,
      "velocity": 127,
      "chip": "ym2612"
    },
    {
      "channel": 3,
      "note": 71,
      "start": 19.4478,
      "duration": 0.0169,
      "velocity": 94,
      "chip": "ym2612"
    },
    {
      "channel": 2,
      "note": 71,
      "start": 19.4489,
      "duration": 0.0171,
      "velocity": 100,
      "chip": "ym2612"
    },
    {
      "channel": 1,
      "note": 71,
      "start": 19.4501,
      "duration": 0.0174,
      "velocity": 94,
      "chip": "ym2612"
    },
    {
      "channel": 0,
      "note": 76,
      "start": 19.4603,
      "duration": 0.0161,
      "velocity": 127,
      "chip": "ym2612"
    },
    {
      "channel": 5,
      "note": 71,
      "start": 19.4619,
      "duration": 0.0158,
      "velocity": 110,
      "chip": "ym2612"
    },
    {
      "channel": 4,
      "note": 75,
      "start": 19.4635,
      "duration": 0.0154,
      "velocity": 110,
      "chip": "ym2612"
    },
    {
      "channel": 3,
      "note": 71,
      "start": 19.4646,
      "duration": 0.0154,
      "velocity": 94,
      "chip": "ym2612"
    },
    {
      "channel": 2,
      "note": 59,
      "start": 19.4661,
      "duration": 0.0152,
      "velocity": 100,
      "chip": "ym2612"
    },
    {
      "channel": 1,
      "note": 71,
      "start": 19.4675,
      "duration": 0.015,
      "velocity": 94,
      "chip": "ym2612"
    },
    {
      "channel": 0,
      "note": 75,
      "start": 19.4764,
      "duration": 0.0161,
      "velocity": 127,
      "chip": "ym2612"
    },
    {
      "channel": 5,
      "note": 71,
      "start": 19.4777,
      "duration": 0.016,
      "velocity": 110,
      "chip": "ym2612"
    },
    {
      "channel": 4,
      "note": 75,
      "start": 19.4789,
      "duration": 0.016,
      "velocity": 110,
      "chip": "ym2612"
    },
    {
      "channel": 3,
      "note": 71,
      "start": 19.4801,
      "duration": 0.016,
      "velocity": 94,
      "chip": "ym2612"
    },
    {
      "channel": 2,
      "note": 59,
      "start": 19.4813,
      "duration": 0.016,
      "velocity": 100,
      "chip": "ym2612"
    },
    {
      "channel": 1,
      "note": 71,
      "start": 19.4825,
      "duration": 0.0159,
      "velocity": 94,
      "chip": "ym2612"
    },
    {
      "channel": 0,
      "note": 73,
      "start": 19.4925,
      "duration": 0.0161,
      "velocity": 127,
      "chip": "ym2612"
    },
    {
      "channel": 5,
      "note": 71,
      "start": 19.4937,
      "duration": 0.0161,
      "velocity": 110,
      "chip": "ym2612"
    },
    {
      "channel": 4,
      "note": 75,
      "start": 19.4949,
      "duration": 0.0161,
      "velocity": 110,
      "chip": "ym2612"
    },
    {
      "channel": 3,
      "note": 71,
      "start": 19.4961,
      "duration": 0.0161,
      "velocity": 94,
      "chip": "ym2612"
    },
    {
      "channel": 2,
      "note": 59,
      "start": 19.4973,
      "duration": 0.0161,
      "velocity": 100,
      "chip": "ym2612"
    },
    {
      "channel": 1,
      "note": 71,
      "start": 19.4984,
      "duration": 0.0161,
      "velocity": 94,
      "chip": "ym2612"
    },
    {
      "channel": 0,
      "note": 71,
      "start": 19.5086,
      "duration": 0.0161,
      "velocity": 127,
      "chip": "ym2612"
    },
    {
      "channel": 5,
      "note": 71,
      "start": 19.5098,
      "duration": 0.0161,
      "velocity": 110,
      "chip": "ym2612"
    },
    {
      "channel": 4,
      "note": 75,
      "start": 19.511,
      "duration": 0.0161,
      "velocity": 110,
      "chip": "ym2612"
    },
    {
      "channel": 3,
      "note": 71,
      "start": 19.5122,
      "duration": 0.0161,
      "velocity": 94,
      "chip": "ym2612"
    },
    {
      "channel": 2,
      "note": 59,
      "start": 19.5133,
      "duration": 0.0161,
      "velocity": 100,
      "chip": "ym2612"
    },
    {
      "channel": 1,
      "note": 71,
      "start": 19.5145,
      "duration": 0.0161,
      "velocity": 94,
      "chip": "ym2612"
    },
    {
      "channel": 0,
      "note": 69,
      "start": 19.5247,
      "duration": 0.0161,
      "velocity": 127,
      "chip": "ym2612"
    },
    {
      "channel": 5,
      "note": 71,
      "start": 19.5259,
      "duration": 0.0161,
      "velocity": 110,
      "chip": "ym2612"
    },
    {
      "channel": 4,
      "note": 75,
      "start": 19.5271,
      "duration": 0.0161,
      "velocity": 110,
      "chip": "ym2612"
    },
    {
      "channel": 3,
      "note": 71,
      "start": 19.5283,
      "duration": 0.0161,
      "velocity": 94,
      "chip": "ym2612"
    },
    {
      "channel": 2,
      "note": 59,
      "start": 19.5294,
      "duration": 0.0161,
      "velocity": 100,
      "chip": "ym2612"
    },
    {
      "channel": 1,
      "note": 71,
      "start": 19.5306,
      "duration": 0.0161,
      "velocity": 94,
      "chip": "ym2612"
    },
    {
      "channel": 0,
      "note": 68,
      "start": 19.5408,
      "duration": 0.0179,
      "velocity": 127,
      "chip": "ym2612"
    },
    {
      "channel": 5,
      "note": 71,
      "start": 19.542,
      "duration": 0.018,
      "velocity": 110,
      "chip": "ym2612"
    },
    {
      "channel": 4,
      "note": 75,
      "start": 19.5432,
      "duration": 0.018,
      "velocity": 110,
      "chip": "ym2612"
    },
    {
      "channel": 3,
      "note": 71,
      "start": 19.5444,
      "duration": 0.018,
      "velocity": 94,
      "chip": "ym2612"
    },
    {
      "channel": 2,
      "note": 59,
      "start": 19.5455,
      "duration": 0.0183,
      "velocity": 100,
      "chip": "ym2612"
    },
    {
      "channel": 1,
      "note": 71,
      "start": 19.5467,
      "duration": 0.0184,
      "velocity": 94,
      "chip": "ym2612"
    },
    {
      "channel": 0,
      "note": 84,
      "start": 19.5588,
      "duration": 0.0143,
      "velocity": 127,
      "chip": "ym2612"
    },
    {
      "channel": 5,
      "note": 71,
      "start": 19.56,
      "duration": 0.0143,
      "velocity": 110,
      "chip": "ym2612"
    },
    {
      "channel": 4,
      "note": 75,
      "start": 19.5612,
      "duration": 0.0142,
      "velocity": 110,
      "chip": "ym2612"
    },
    {
      "channel": 3,
      "note": 71,
      "start": 19.5624,
      "duration": 0.0143,
      "velocity": 94,
      "chip": "ym2612"
    },
    {
      "channel": 2,
      "note": 71,
      "start": 19.5639,
      "duration": 0.0141,
      "velocity": 100,
      "chip": "ym2612"
    },
    {
      "channel": 1,
      "note": 71,
      "start": 19.5651,
      "duration": 0.014,
      "velocity": 94,
      "chip": "ym2612"
    },
    {
      "channel": 0,
      "note": 82,
      "start": 19.5731,
      "duration": 0.016,
      "velocity": 127,
      "chip": "ym2612"
    },
    {
      "channel": 3,
      "note": 71,
      "start": 19.5766,
      "duration": 0.016,
      "velocity": 94,
      "chip": "ym2612"
    },
    {
      "channel": 2,
      "note": 71,
      "start": 19.5779,
      "duration": 0.0159,
      "velocity": 100,
      "chip": "ym2612"
    },
    {
      "channel": 1,
      "note": 71,
      "start": 19.579,
      "duration": 0.016,
      "velocity": 94,
      "chip": "ym2612"
    },
    {
      "channel": 0,
      "note": 81,
      "start": 19.5891,
      "duration": 0.0161,
      "velocity": 127,
      "chip": "ym2612"
    },
    {
      "channel": 3,
      "note": 71,
      "start": 19.5927,
      "duration": 0.0161,
      "velocity": 94,
      "chip": "ym2612"
    },
    {
      "channel": 2,
      "note": 71,
      "start": 19.5938,
      "duration": 0.0161,
      "velocity": 100,
      "chip": "ym2612"
    },
    {
      "channel": 1,
      "note": 71,
      "start": 19.595,
      "duration": 0.0161,
      "velocity": 94,
      "chip": "ym2612"
    },
    {
      "channel": 0,
      "note": 79,
      "start": 19.6052,
      "duration": 0.0161,
      "velocity": 127,
      "chip": "ym2612"
    },
    {
      "channel": 3,
      "note": 71,
      "start": 19.6088,
      "duration": 0.0161,
      "velocity": 94,
      "chip": "ym2612"
    },
    {
      "channel": 2,
      "note": 71,
      "start": 19.6099,
      "duration": 0.0161,
      "velocity": 100,
      "chip": "ym2612"
    },
    {
      "channel": 1,
      "note": 71,
      "start": 19.6111,
      "duration": 0.0162,
      "velocity": 94,
      "chip": "ym2612"
    },
    {
      "channel": 0,
      "note": 77,
      "start": 19.6213,
      "duration": 0.0162,
      "velocity": 127,
      "chip": "ym2612"
    },
    {
      "channel": 3,
      "note": 71,
      "start": 19.6249,
      "duration": 0.0161,
      "velocity": 94,
      "chip": "ym2612"
    },
    {
      "channel": 2,
      "note": 71,
      "start": 19.626,
      "duration": 0.0161,
      "velocity": 100,
      "chip": "ym2612"
    },
    {
      "channel": 0,
      "note": 76,
      "start": 19.6375,
      "duration": 0.0161,
      "velocity": 127,
      "chip": "ym2612"
    },
    {
      "channel": 3,
      "note": 71,
      "start": 19.641,
      "duration": 0.0162,
      "velocity": 94,
      "chip": "ym2612"
    },
    {
      "channel": 2,
      "note": 71,
      "start": 19.6422,
      "duration": 0.0162,
      "velocity": 100,
      "chip": "ym2612"
    },
    {
      "channel": 0,
      "note": 74,
      "start": 19.6536,
      "duration": 0.0183,
      "velocity": 127,
      "chip": "ym2612"
    },
    {
      "channel": 3,
      "note": 71,
      "start": 19.6571,
      "duration": 0.019,
      "velocity": 94,
      "chip": "ym2612"
    },
    {
      "channel": 2,
      "note": 71,
      "start": 19.6583,
      "duration": 0.0192,
      "velocity": 100,
      "chip": "ym2612"
    },
    {
      "channel": 0,
      "note": 78,
      "start": 19.6719,
      "duration": 0.0144,
      "velocity": 127,
      "chip": "ym2612"
    },
    {
      "channel": 5,
      "note": 75,
      "start": 19.6735,
      "duration": 0.0142,
      "velocity": 110,
      "chip": "ym2612"
    },
    {
      "channel": 4,
      "note": 71,
      "start": 19.6749,
      "duration": 0.0139,
      "velocity": 110,
      "chip": "ym2612"
    },
    {
      "channel": 3,
      "note": 71,
      "start": 19.6761,
      "duration": 0.0139,
      "velocity": 94,
      "chip": "ym2612"
    },
    {
      "channel": 2,
      "note": 59,
      "start": 19.6776,
      "duration": 0.0137,
      "velocity": 100,
      "chip": "ym2612"
    },
    {
      "channel": 1,
      "note": 70,
      "start": 19.679,
      "duration": 0.0134,
      "velocity": 94,
      "chip": "ym2612"
    },
    {
      "channel": 0,
      "note": 76,
      "start": 19.6864,
      "duration": 0.0161,
      "velocity": 127,
      "chip": "ym2612"
    },
    {
      "channel": 5,
      "note": 75,
      "start": 19.6876,
      "duration": 0.016,
      "velocity": 110,
      "chip": "ym2612"
    },
    {
      "channel": 4,
      "note": 71,
      "start": 19.6888,
      "duration": 0.0159,
      "velocity": 110,
      "chip": "ym2612"
    },
    {
      "channel": 3,
      "note": 71,
      "start": 19.6901,
      "duration": 0.0159,
      "velocity": 94,
      "chip": "ym2612"
    },
    {
      "channel": 2,
      "note": 59,
      "start": 19.6913,
      "duration": 0.0159,
      "velocity": 100,
      "chip": "ym2612"
    },
    {
      "channel": 1,
      "note": 70,
      "start": 19.6925,
      "duration": 0.0159,
      "velocity": 94,
      "chip": "ym2612"
    },
    {
      "channel": 0,
      "note": 75,
      "start": 19.7025,
      "duration": 0.016,
      "velocity": 127,
      "chip": "ym2612"
    },
    {
      "channel": 5,
      "note": 75,
      "start": 19.7036,
      "duration": 0.0161,
      "velocity": 110,
      "chip": "ym2612"
    },
    {
      "channel": 4,
      "note": 71,
      "start": 19.7048,
      "duration": 0.0161,
      "velocity": 110,
      "chip": "ym2612"
    },
    {
      "channel": 3,
      "note": 71,
      "start": 19.706,
      "duration": 0.0162,
      "velocity": 94,
      "chip": "ym2612"
    },
    {
      "channel": 2,
      "note": 59,
      "start": 19.7072,
      "duration": 0.0161,
      "velocity": 100,
      "chip": "ym2612"
    },
    {
      "channel": 1,
      "note": 70,
      "start": 19.7083,
      "duration": 0.0161,
      "velocity": 94,
      "chip": "ym2612"
    },
    {
      "channel": 0,
      "note": 73,
      "start": 19.7185,
      "duration": 0.0158,
      "velocity": 127,
      "chip": "ym2612"
    },
    {
      "channel": 5,
      "note": 75,
      "start": 19.7197,
      "duration": 0.0161,
      "velocity": 110,
      "chip": "ym2612"
    },
    {
      "channel": 4,
      "note": 71,
      "start": 19.7209,
      "duration": 0.0161,
      "velocity": 110,
      "chip": "ym2612"
    },
    {
      "channel": 3,
      "note": 71,
      "start": 19.7221,
      "duration": 0.0161,
      "velocity": 94,
      "chip": "ym2612"
    },
    {
      "channel": 2,
      "note": 59,
      "start": 19.7233,
      "duration": 0.0161,
      "velocity": 100,
      "chip": "ym2612"
    },
    {
      "channel": 1,
      "note": 70,
      "start": 19.7244,
      "duration": 0.0161,
      "velocity": 94,
      "chip": "ym2612"
    },
    {
      "channel": 0,
      "note": 71,
      "start": 19.7343,
      "duration": 0.0159,
      "velocity": 127,
      "chip": "ym2612"
    },
    {
      "channel": 5,
      "note": 75,
      "start": 19.7358,
      "duration": 0.016,
      "velocity": 110,
      "chip": "ym2612"
    },
    {
      "channel": 4,
      "note": 71,
      "start": 19.737,
      "duration": 0.0161,
      "velocity": 110,
      "chip": "ym2612"
    },
    {
      "channel": 3,
      "note": 71,
      "start": 19.7382,
      "duration": 0.0161,
      "velocity": 94,
      "chip": "ym2612"
    },
    {
      "channel": 2,
      "note": 59,
      "start": 19.7394,
      "duration": 0.0161,
      "velocity": 100,
      "chip": "ym2612"
    },
    {
      "channel": 1,
      "note": 70,
      "start": 19.7405,
      "duration": 0.0161,
      "velocity": 94,
      "chip": "ym2612"
    },
    {
      "channel": 0,
      "note": 70,
      "start": 19.7501,
      "duration": 0.0185,
      "velocity": 115,
      "chip": "ym2612"
    },
    {
      "channel": 5,
      "note": 75,
      "start": 19.7518,
      "duration": 0.018,
      "velocity": 110,
      "chip": "ym2612"
    },
    {
      "channel": 4,
      "note": 71,
      "start": 19.7531,
      "duration": 0.0179,
      "velocity": 110,
      "chip": "ym2612"
    },
    {
      "channel": 3,
      "note": 71,
      "start": 19.7543,
      "duration": 0.0179,
      "velocity": 94,
      "chip": "ym2612"
    },
    {
      "channel": 2,
      "note": 59,
      "start": 19.7555,
      "duration": 0.0179,
      "velocity": 100,
      "chip": "ym2612"
    },
    {
      "channel": 1,
      "note": 70,
      "start": 19.7566,
      "duration": 0.0179,
      "velocity": 94,
      "chip": "ym2612"
    },
    {
      "channel": 0,
      "note": 36,
      "start": 19.7687,
      "duration": 0.0137,
      "velocity": 115,
      "chip": "ym2612"
    },
    {
      "channel": 5,
      "note": 75,
      "start": 19.7698,
      "duration": 0.0137,
      "velocity": 110,
      "chip": "ym2612"
    },
    {
      "channel": 4,
      "note": 71,
      "start": 19.771,
      "duration": 0.0143,
      "velocity": 110,
      "chip": "ym2612"
    },
    {
      "channel": 3,
      "note": 71,
      "start": 19.7722,
      "duration": 0.0143,
      "velocity": 94,
      "chip": "ym2612"
    },
    {
      "channel": 2,
      "note": 59,
      "start": 19.7734,
      "duration": 0.0143,
      "velocity": 100,
      "chip": "ym2612"
    },
    {
      "channel": 1,
      "note": 70,
      "start": 19.7745,
      "duration": 0.0144,
      "velocity": 94,
      "chip": "ym2612"
    },
    {
      "channel": 0,
      "note": 36,
      "start": 19.7824,
      "duration": 0.016,
      "velocity": 115,
      "chip": "ym2612"
    },
    {
      "channel": 3,
      "note": 71,
      "start": 19.7866,
      "duration": 0.016,
      "velocity": 94,
      "chip": "ym2612"
    },
    {
      "channel": 2,
      "note": 59,
      "start": 19.7877,
      "duration": 0.016,
      "velocity": 100,
      "chip": "ym2612"
    },
    {
      "channel": 1,
      "note": 70,
      "start": 19.7889,
      "duration": 0.016,
      "velocity": 94,
      "chip": "ym2612"
    },
    {
      "channel": 0,
      "note": 37,
      "start": 19.7985,
      "duration": 0.0161,
      "velocity": 115,
      "chip": "ym2612"
    },
    {
      "channel": 3,
      "note": 71,
      "start": 19.8026,
      "duration": 0.0161,
      "velocity": 94,
      "chip": "ym2612"
    },
    {
      "channel": 2,
      "note": 59,
      "start": 19.8037,
      "duration": 0.0161,
      "velocity": 100,
      "chip": "ym2612"
    },
    {
      "channel": 1,
      "note": 70,
      "start": 19.8049,
      "duration": 0.0161,
      "velocity": 94,
      "chip": "ym2612"
    },
    {
      "channel": 0,
      "note": 37,
      "start": 19.8146,
      "duration": 0.0161,
      "velocity": 115,
      "chip": "ym2612"
    },
    {
      "channel": 3,
      "note": 71,
      "start": 19.8187,
      "duration": 0.016,
      "velocity": 94,
      "chip": "ym2612"
    },
    {
      "channel": 2,
      "note": 59,
      "start": 19.8198,
      "duration": 0.0161,
      "velocity": 100,
      "chip": "ym2612"
    },
    {
      "channel": 1,
      "note": 70,
      "start": 19.821,
      "duration": 0.0161,
      "velocity": 94,
      "chip": "ym2612"
    },
    {
      "channel": 0,
      "note": 38,
      "start": 19.8307,
      "duration": 0.0161,
      "velocity": 115,
      "chip": "ym2612"
    },
    {
      "channel": 3,
      "note": 71,
      "start": 19.8347,
      "duration": 0.0156,
      "velocity": 94,
      "chip": "ym2612"
    },
    {
      "channel": 2,
      "note": 59,
      "start": 19.8359,
      "duration": 0.0161,
      "velocity": 100,
      "chip": "ym2612"
    },
    {
      "channel": 1,
      "note": 70,
      "start": 19.8371,
      "duration": 0.0161,
      "velocity": 94,
      "chip": "ym2612"
    },
    {
      "channel": 0,
      "note": 38,
      "start": 19.8467,
      "duration": 0.0161,
      "velocity": 115,
      "chip": "ym2612"
    },
    {
      "channel": 3,
      "note": 71,
      "start": 19.8503,
      "duration": 0.0161,
      "velocity": 94,
      "chip": "ym2612"
    },
    {
      "channel": 2,
      "note": 59,
      "start": 19.852,
      "duration": 0.0161,
      "velocity": 100,
      "chip": "ym2612"
    },
    {
      "channel": 1,
      "note": 70,
      "start": 19.8532,
      "duration": 0.0161,
      "velocity": 94,
      "chip": "ym2612"
    },
    {
      "channel": 0,
      "note": 39,
      "start": 19.8628,
      "duration": 0.0179,
      "velocity": 124,
      "chip": "ym2612"
    },
    {
      "channel": 3,
      "note": 71,
      "start": 19.8664,
      "duration": 0.0193,
      "velocity": 94,
      "chip": "ym2612"
    },
    {
      "channel": 2,
      "note": 59,
      "start": 19.8681,
      "duration": 0.019,
      "velocity": 100,
      "chip": "ym2612"
    },
    {
      "channel": 1,
      "note": 70,
      "start": 19.8693,
      "duration": 0.019,
      "velocity": 94,
      "chip": "ym2612"
    },
    {
      "channel": 0,
      "note": 84,
      "start": 19.8808,
      "duration": 0.0142,
      "velocity": 124,
      "chip": "ym2612"
    },
    {
      "channel": 5,
      "note": 71,
      "start": 19.8824,
      "duration": 0.014,
      "velocity": 110,
      "chip": "ym2612"
    },
    {
      "channel": 4,
      "note": 75,
      "start": 19.8841,
      "duration": 0.0134,
      "velocity": 110,
      "chip": "ym2612"
    },
    {
      "channel": 3,
      "note": 71,
      "start": 19.8857,
      "duration": 0.013,
      "velocity": 94,
      "chip": "ym2612"
    },
    {
      "channel": 2,
      "note": 54,
      "start": 19.8872,
      "duration": 0.0128,
      "velocity": 100,
      "chip": "ym2612"
    },
    {
      "channel": 1,
      "note": 70,
      "start": 19.8883,
      "duration": 0.0134,
      "velocity": 94,
      "chip": "ym2612"
    },
    {
      "channel": 0,
      "note": 82,
      "start": 19.8951,
      "duration": 0.0161,
      "velocity": 124,
      "chip": "ym2612"
    },
    {
      "channel": 5,
      "note": 71,
      "start": 19.8963,
      "duration": 0.016,
      "velocity": 110,
      "chip": "ym2612"
    },
    {
      "channel": 4,
      "note": 75,
      "start": 19.8976,
      "duration": 0.016,
      "velocity": 110,
      "chip": "ym2612"
    },
    {
      "channel": 3,
      "note": 71,
      "start": 19.8988,
      "duration": 0.016,
      "velocity": 94,
      "chip": "ym2612"
    },
    {
      "channel": 2,
      "note": 54,
      "start": 19.9,
      "duration": 0.0159,
      "velocity": 100,
      "chip": "ym2612"
    },
    {
      "channel": 1,
      "note": 70,
      "start": 19.9017,
      "duration": 0.0153,
      "velocity": 94,
      "chip": "ym2612"
    },
    {
      "channel": 0,
      "note": 80,
      "start": 19.9112,
      "duration": 0.0161,
      "velocity": 124,
      "chip": "ym2612"
    },
    {
      "channel": 5,
      "note": 71,
      "start": 19.9123,
      "duration": 0.0161,
      "velocity": 110,
      "chip": "ym2612"
    },
    {
      "channel": 4,
      "note": 75,
      "start": 19.9135,
      "duration": 0.0161,
      "velocity": 110,
      "chip": "ym2612"
    },
    {
      "channel": 3,
      "note": 71,
      "start": 19.9147,
      "duration": 0.0161,
      "velocity": 94,
      "chip": "ym2612"
    },
    {
      "channel": 2,
      "note": 54,
      "start": 19.9159,
      "duration": 0.0161,
      "velocity": 100,
      "chip": "ym2612"
    },
    {
      "channel": 1,
      "note": 70,
      "start": 19.917,
      "duration": 0.0161,
      "velocity": 94,
      "chip": "ym2612"
    },
    {
      "channel": 0,
      "note": 77,
      "start": 19.9273,
      "duration": 0.0161,
      "velocity": 124,
      "chip": "ym2612"
    },
    {
      "channel": 5,
      "note": 71,
      "start": 19.9284,
      "duration": 0.0161,
      "velocity": 110,
      "chip": "ym2612"
    },
    {
      "channel": 4,
      "note": 75,
      "start": 19.9296,
      "duration": 0.0161,
      "velocity": 110,
      "chip": "ym2612"
    },
    {
      "channel": 3,
      "note": 71,
      "start": 19.9308,
      "duration": 0.0161,
      "velocity": 94,
      "chip": "ym2612"
    },
    {
      "channel": 2,
      "note": 54,
      "start": 19.932,
      "duration": 0.0161,
      "velocity": 100,
      "chip": "ym2612"
    },
    {
      "channel": 1,
      "note": 70,
      "start": 19.9331,
      "duration": 0.0161,
      "velocity": 94,
      "chip": "ym2612"
    },
    {
      "channel": 0,
      "note": 75,
      "start": 19.9434,
      "duration": 0.0161,
      "velocity": 124,
      "chip": "ym2612"
    },
    {
      "channel": 5,
      "note": 71,
      "start": 19.9445,
      "duration": 0.0161,
      "velocity": 110,
      "chip": "ym2612"
    },
    {
      "channel": 4,
      "note": 75,
      "start": 19.9457,
      "duration": 0.0161,
      "velocity": 110,
      "chip": "ym2612"
    },
    {
      "channel": 2,
      "note": 54,
      "start": 19.9481,
      "duration": 0.0161,
      "velocity": 100,
      "chip": "ym2612"
    },
    {
      "channel": 1,
      "note": 70,
      "start": 19.9493,
      "duration": 0.016,
      "velocity": 94,
      "chip": "ym2612"
    },
    {
      "channel": 0,
      "note": 72,
      "start": 19.9595,
      "duration": 0.0179,
      "velocity": 124,
      "chip": "ym2612"
    },
    {
      "channel": 5,
      "note": 71,
      "start": 19.9606,
      "duration": 0.018,
      "velocity": 110,
      "chip": "ym2612"
    },
    {
      "channel": 4,
      "note": 75,
      "start": 19.9618,
      "duration": 0.0179,
      "velocity": 110,
      "chip": "ym2612"
    },
    {
      "channel": 2,
      "note": 54,
      "start": 19.9642,
      "duration": 0.0179,
      "velocity": 100,
      "chip": "ym2612"
    },
    {
      "channel": 1,
      "note": 70,
      "start": 19.9653,
      "duration": 0.018,
      "velocity": 94,
      "chip": "ym2612"
    },
    {
      "channel": 0,
      "note": 84,
      "start": 19.9774,
      "duration": 0.0143,
      "velocity": 124,
      "chip": "ym2612"
    },
    {
      "channel": 5,
      "note": 71,
      "start": 19.9786,
      "duration": 0.0142,
      "velocity": 110,
      "chip": "ym2612"
    },
    {
      "channel": 4,
      "note": 75,
      "start": 19.9798,
      "duration": 0.0143,
      "velocity": 110,
      "chip": "ym2612"
    },
    {
      "channel": 2,
      "note": 54,
      "start": 19.9821,
      "duration": 0.0146,
      "velocity": 100,
      "chip": "ym2612"
    },
    {
      "channel": 1,
      "note": 70,
      "start": 19.9833,
      "duration": 0.0146,
      "velocity": 94,
      "chip": "ym2612"
    },
    {
      "channel": 0,
      "note": 82,
      "start": 19.9917,
      "duration": 0.016,
      "velocity": 124,
      "chip": "ym2612"
    },
    {
      "channel": 3,
      "note": 70,
      "start": 19.9955,
      "duration": 0.0158,
      "velocity": 94,
      "chip": "ym2612"
    },
    {
      "channel": 2,
      "note": 54,
      "start": 19.9967,
      "duration": 0.0159,
      "velocity": 100,
      "chip": "ym2612"
    },
    {
      "channel": 1,
      "note": 70,
      "start": 19.9979,
      "duration": 0.0158,
      "velocity": 94,
      "chip": "ym2612"
    },
    {
      "channel": 0,
      "note": 80,
      "start": 20.0078,
      "duration": 0.0161,
      "velocity": 124,
      "chip": "ym2612"
    },
    {
      "channel": 3,
      "note": 70,
      "start": 20.0114,
      "duration": 0.016,
      "velocity": 94,
      "chip": "ym2612"
    },
    {
      "channel": 2,
      "note": 54,
      "start": 20.0125,
      "duration": 0.016,
      "velocity": 100,
      "chip": "ym2612"
    },
    {
      "channel": 1,
      "note": 70,
      "start": 20.0137,
      "duration": 0.016,
      "velocity": 94,
      "chip": "ym2612"
    },
    {
      "channel": 0,
      "note": 77,
      "start": 20.0238,
      "duration": 0.0161,
      "velocity": 124,
      "chip": "ym2612"
    },
    {
      "channel": 3,
      "note": 70,
      "start": 20.0274,
      "duration": 0.0161,
      "velocity": 94,
      "chip": "ym2612"
    },
    {
      "channel": 2,
      "note": 54,
      "start": 20.0285,
      "duration": 0.0161,
      "velocity": 100,
      "chip": "ym2612"
    },
    {
      "channel": 1,
      "note": 70,
      "start": 20.0297,
      "duration": 0.0161,
      "velocity": 94,
      "chip": "ym2612"
    },
    {
      "channel": 0,
      "note": 75,
      "start": 20.0399,
      "duration": 0.0162,
      "velocity": 124,
      "chip": "ym2612"
    },
    {
      "channel": 3,
      "note": 70,
      "start": 20.0435,
      "duration": 0.0161,
      "velocity": 94,
      "chip": "ym2612"
    },
    {
      "channel": 2,
      "note": 54,
      "start": 20.0446,
      "duration": 0.0161,
      "velocity": 100,
      "chip": "ym2612"
    },
    {
      "channel": 0,
      "note": 72,
      "start": 20.0561,
      "duration": 0.0161,
      "velocity": 124,
      "chip": "ym2612"
    },
    {
      "channel": 3,
      "note": 70,
      "start": 20.0596,
      "duration": 0.0161,
      "velocity": 94,
      "chip": "ym2612"
    },
    {
      "channel": 2,
      "note": 54,
      "start": 20.0607,
      "duration": 0.0161,
      "velocity": 100,
      "chip": "ym2612"
    },
    {
      "channel": 0,
      "note": 70,
      "start": 20.0722,
      "duration": 0.0179,
      "velocity": 115,
      "chip": "ym2612"
    },
    {
      "channel": 3,
      "note": 70,
      "start": 20.0757,
      "duration": 0.0186,
      "velocity": 94,
      "chip": "ym2612"
    },
    {
      "channel": 2,
      "note": 54,
      "start": 20.0768,
      "duration": 0.0189,
      "velocity": 100,
      "chip": "ym2612"
    },
    {
      "channel": 0,
      "note": 36,
      "start": 20.0901,
      "duration": 0.0143,
      "velocity": 115,
      "chip": "ym2612"
    },
    {
      "channel": 5,
      "note": 75,
      "start": 20.0916,
      "duration": 0.0141,
      "velocity": 110,
      "chip": "ym2612"
    },
    {
      "channel": 4,
      "note": 71,
      "start": 20.0931,
      "duration": 0.0138,
      "velocity": 110,
      "chip": "ym2612"
    },
    {
      "channel": 3,
      "note": 70,
      "start": 20.0943,
      "duration": 0.0138,
      "velocity": 94,
      "chip": "ym2612"
    },
    {
      "channel": 2,
      "note": 56,
      "start": 20.0957,
      "duration": 0.0136,
      "velocity": 100,
      "chip": "ym2612"
    },
    {
      "channel": 1,
      "note": 68,
      "start": 20.0972,
      "duration": 0.0134,
      "velocity": 94,
      "chip": "ym2612"
    },
    {
      "channel": 0,
      "note": 36,
      "start": 20.1044,
      "duration": 0.0161,
      "velocity": 115,
      "chip": "ym2612"
    },
    {
      "channel": 5,
      "note": 75,
      "start": 20.1056,
      "duration": 0.016,
      "velocity": 110,
      "chip": "ym2612"
    },
    {
      "channel": 4,
      "note": 71,
      "start": 20.1069,
      "duration": 0.016,
      "velocity": 110,
      "chip": "ym2612"
    },
    {
      "channel": 3,
      "note": 70,
      "start": 20.1081,
      "duration": 0.016,
      "velocity": 94,
      "chip": "ym2612"
    },
    {
      "channel": 2,
      "note": 56,
      "start": 20.1093,
      "duration": 0.016,
      "velocity": 100,
      "chip": "ym2612"
    },
    {
      "channel": 1,
      "note": 68,
      "start": 20.1105,
      "duration": 0.0159,
      "velocity": 94,
      "chip": "ym2612"
    },
    {
      "channel": 0,
      "note": 37,
      "start": 20.1205,
      "duration": 0.0162,
      "velocity": 115,
      "chip": "ym2612"
    },
    {
      "channel": 5,
      "note": 75,
      "start": 20.1217,
      "duration": 0.0162,
      "velocity": 110,
      "chip": "ym2612"
    },
    {
      "channel": 4,
      "note": 71,
      "start": 20.1229,
      "duration": 0.0162,
      "velocity": 110,
      "chip": "ym2612"
    },
    {
      "channel": 3,
      "note": 70,
      "start": 20.124,
      "duration": 0.0162,
      "velocity": 94,
      "chip": "ym2612"
    },
    {
      "channel": 2,
      "note": 56,
      "start": 20.1252,
      "duration": 0.0162,
      "velocity": 100,
      "chip": "ym2612"
    },
    {
      "channel": 1,
      "note": 68,
      "start": 20.1264,
      "duration": 0.0162,
      "velocity": 94,
      "chip": "ym2612"
    },
    {
      "channel": 0,
      "note": 37,
      "start": 20.1368,
      "duration": 0.0163,
      "velocity": 115,
      "chip": "ym2612"
    },
    {
      "channel": 5,
      "note": 75,
      "start": 20.1379,
      "duration": 0.0163,
      "velocity": 110,
      "chip": "ym2612"
    },
    {
      "channel": 4,
      "note": 71,
      "start": 20.139,
      "duration": 0.0163,
      "velocity": 110,
      "chip": "ym2612"
    },
    {
      "channel": 3,
      "note": 70,
      "start": 20.1402,
      "duration": 0.0163,
      "velocity": 94,
      "chip": "ym2612"
    },
    {
      "channel": 2,
      "note": 56,
      "start": 20.1414,
      "duration": 0.0163,
      "velocity": 100,
      "chip": "ym2612"
    },
    {
      "channel": 1,
      "note": 68,
      "start": 20.1426,
      "duration": 0.0163,
      "velocity": 94,
      "chip": "ym2612"
    },
    {
      "channel": 0,
      "note": 38,
      "start": 20.1531,
      "duration": 0.0163,
      "velocity": 115,
      "chip": "ym2612"
    },
    {
      "channel": 5,
      "note": 75,
      "start": 20.1542,
      "duration": 0.0163,
      "velocity": 110,
      "chip": "ym2612"
    },
    {
      "channel": 4,
      "note": 71,
      "start": 20.1554,
      "duration": 0.0163,
      "velocity": 110,
      "chip": "ym2612"
    },
    {
      "channel": 3,
      "note": 70,
      "start": 20.1566,
      "duration": 0.0163,
      "velocity": 94,
      "chip": "ym2612"
    },
    {
      "channel": 2,
      "note": 56,
      "start": 20.1578,
      "duration": 0.0163,
      "velocity": 100,
      "chip": "ym2612"
    },
    {
      "channel": 1,
      "note": 68,
      "start": 20.159,
      "duration": 0.0163,
      "velocity": 94,
      "chip": "ym2612"
    },
    {
      "channel": 0,
      "note": 38,
      "start": 20.1694,
      "duration": 0.0161,
      "velocity": 115,
      "chip": "ym2612"
    },
    {
      "channel": 5,
      "note": 75,
      "start": 20.1705,
      "duration": 0.0161,
      "velocity": 110,
      "chip": "ym2612"
    },
    {
      "channel": 4,
      "note": 71,
      "start": 20.1717,
      "duration": 0.0161,
      "velocity": 110,
      "chip": "ym2612"
    },
    {
      "channel": 3,
      "note": 70,
      "start": 20.1729,
      "duration": 0.0161,
      "velocity": 94,
      "chip": "ym2612"
    },
    {
      "channel": 2,
      "note": 56,
      "start": 20.174,
      "duration": 0.0161,
      "velocity": 100,
      "chip": "ym2612"
    },
    {
      "channel": 1,
      "note": 68,
      "start": 20.1752,
      "duration": 0.0161,
      "velocity": 94,
      "chip": "ym2612"
    },
    {
      "channel": 0,
      "note": 39,
      "start": 20.1855,
      "duration": 0.016,
      "velocity": 115,
      "chip": "ym2612"
    },
    {
      "channel": 5,
      "note": 75,
      "start": 20.1866,
      "duration": 0.0161,
      "velocity": 110,
      "chip": "ym2612"
    },
    {
      "channel": 4,
      "note": 71,
      "start": 20.1878,
      "duration": 0.0161,
      "velocity": 110,
      "chip": "ym2612"
    },
    {
      "channel": 3,
      "note": 70,
      "start": 20.189,
      "duration": 0.0162,
      "velocity": 94,
      "chip": "ym2612"
    },
    {
      "channel": 2,
      "note": 56,
      "start": 20.1902,
      "duration": 0.0161,
      "velocity": 100,
      "chip": "ym2612"
    },
    {
      "channel": 1,
      "note": 68,
      "start": 20.1913,
      "duration": 0.0161,
      "velocity": 94,
      "chip": "ym2612"
    },
    {
      "channel": 0,
      "note": 39,
      "start": 20.2015,
      "duration": 0.0156,
      "velocity": 115,
      "chip": "ym2612"
    },
    {
      "channel": 3,
      "note": 70,
      "start": 20.2051,
      "duration": 0.016,
      "velocity": 94,
      "chip": "ym2612"
    },
    {
      "channel": 2,
      "note": 56,
      "start": 20.2063,
      "duration": 0.016,
      "velocity": 100,
      "chip": "ym2612"
    },
    {
      "channel": 1,
      "note": 68,
      "start": 20.2074,
      "duration": 0.0161,
      "velocity": 94,
      "chip": "ym2612"
    },
    {
      "channel": 0,
      "note": 40,
      "start": 20.2171,
      "duration": 0.0161,
      "velocity": 115,
      "chip": "ym2612"
    },
    {
      "channel": 3,
      "note": 70,
      "start": 20.2212,
      "duration": 0.0161,
      "velocity": 94,
      "chip": "ym2612"
    },
    {
      "channel": 2,
      "note": 56,
      "start": 20.2223,
      "duration": 0.0162,
      "velocity": 100,
      "chip": "ym2612"
    },
    {
      "channel": 1,
      "note": 68,
      "start": 20.2235,
      "duration": 0.0161,
      "velocity": 94,
      "chip": "ym2612"
    },
    {
      "channel": 0,
      "note": 40,
      "start": 20.2332,
      "duration": 0.0161,
      "velocity": 115,
      "chip": "ym2612"
    },
    {
      "channel": 3,
      "note": 70,
      "start": 20.2373,
      "duration": 0.0161,
      "velocity": 94,
      "chip": "ym2612"
    },
    {
      "channel": 2,
      "note": 56,
      "start": 20.2385,
      "duration": 0.0161,
      "velocity": 100,
      "chip": "ym2612"
    },
    {
      "channel": 1,
      "note": 68,
      "start": 20.2396,
      "duration": 0.0161,
      "velocity": 94,
      "chip": "ym2612"
    },
    {
      "channel": 0,
      "note": 40,
      "start": 20.2493,
      "duration": 0.0161,
      "velocity": 115,
      "chip": "ym2612"
    },
    {
      "channel": 3,
      "note": 70,
      "start": 20.2534,
      "duration": 0.0162,
      "velocity": 94,
      "chip": "ym2612"
    },
    {
      "channel": 2,
      "note": 56,
      "start": 20.2546,
      "duration": 0.0161,
      "velocity": 100,
      "chip": "ym2612"
    },
    {
      "channel": 1,
      "note": 68,
      "start": 20.2557,
      "duration": 0.0161,
      "velocity": 94,
      "chip": "ym2612"
    },
    {
      "channel": 0,
      "note": 41,
      "start": 20.2654,
      "duration": 0.0161,
      "velocity": 115,
      "chip": "ym2612"
    },
    {
      "channel": 3,
      "note": 70,
      "start": 20.2695,
      "duration": 0.0161,
      "velocity": 94,
      "chip": "ym2612"
    },
    {
      "channel": 2,
      "note": 56,
      "start": 20.2707,
      "duration": 0.0161,
      "velocity": 100,
      "chip": "ym2612"
    },
    {
      "channel": 1,
      "note": 68,
      "start": 20.2718,
      "duration": 0.0161,
      "velocity": 94,
      "chip": "ym2612"
    },
    {
      "channel": 0,
      "note": 41,
      "start": 20.2815,
      "duration": 0.0161,
      "velocity": 115,
      "chip": "ym2612"
    },
    {
      "channel": 3,
      "note": 70,
      "start": 20.2856,
      "duration": 0.0171,
      "velocity": 94,
      "chip": "ym2612"
    },
    {
      "channel": 2,
      "note": 56,
      "start": 20.2868,
      "duration": 0.0171,
      "velocity": 100,
      "chip": "ym2612"
    },
    {
      "channel": 1,
      "note": 68,
      "start": 20.2879,
      "duration": 0.0171,
      "velocity": 94,
      "chip": "ym2612"
    },
    {
      "channel": 0,
      "note": 42,
      "start": 20.2976,
      "duration": 0.0161,
      "velocity": 115,
      "chip": "ym2612"
    },
    {
      "channel": 5,
      "note": 71,
      "start": 20.2993,
      "duration": 0.0157,
      "velocity": 110,
      "chip": "ym2612"
    },
    {
      "channel": 4,
      "note": 75,
      "start": 20.3015,
      "duration": 0.0147,
      "velocity": 110,
      "chip": "ym2612"
    },
    {
      "channel": 3,
      "note": 70,
      "start": 20.3027,
      "duration": 0.0148,
      "velocity": 94,
      "chip": "ym2612"
    },
    {
      "channel": 2,
      "note": 56,
      "start": 20.3039,
      "duration": 0.0152,
      "velocity": 100,
      "chip": "ym2612"
    },
    {
      "channel": 1,
      "note": 68,
      "start": 20.305,
      "duration": 0.0153,
      "velocity": 94,
      "chip": "ym2612"
    },
    {
      "channel": 0,
      "note": 42,
      "start": 20.3137,
      "duration": 0.0161,
      "velocity": 115,
      "chip": "ym2612"
    },
    {
      "channel": 5,
      "note": 71,
      "start": 20.3149,
      "duration": 0.016,
      "velocity": 110,
      "chip": "ym2612"
    },
    {
      "channel": 4,
      "note": 75,
      "start": 20.3161,
      "duration": 0.016,
      "velocity": 110,
      "chip": "ym2612"
    },
    {
      "channel": 3,
      "note": 70,
      "start": 20.3176,
      "duration": 0.0158,
      "velocity": 94,
      "chip": "ym2612"
    },
    {
      "channel": 2,
      "note": 56,
      "start": 20.3191,
      "duration": 0.016,
      "velocity": 100,
      "chip": "ym2612"
    },
    {
      "channel": 1,
      "note": 68,
      "start": 20.3203,
      "duration": 0.016,
      "velocity": 94,
      "chip": "ym2612"
    },
    {
      "channel": 0,
      "note": 43,
      "start": 20.3298,
      "duration": 0.0161,
      "velocity": 115,
      "chip": "ym2612"
    },
    {
      "channel": 5,
      "note": 71,
      "start": 20.331,
      "duration": 0.0161,
      "velocity": 110,
      "chip": "ym2612"
    },
    {
      "channel": 4,
      "note": 75,
      "start": 20.3321,
      "duration": 0.0162,
      "velocity": 110,
      "chip": "ym2612"
    },
    {
      "channel": 3,
      "note": 70,
      "start": 20.3333,
      "duration": 0.0161,
      "velocity": 94,
      "chip": "ym2612"
    },
    {
      "channel": 2,
      "note": 56,
      "start": 20.335,
      "duration": 0.0158,
      "velocity": 100,
      "chip": "ym2612"
    },
    {
      "channel": 1,
      "note": 68,
      "start": 20.3362,
      "duration": 0.0161,
      "velocity": 94,
      "chip": "ym2612"
    },
    {
      "channel": 0,
      "note": 43,
      "start": 20.3459,
      "duration": 0.0161,
      "velocity": 115,
      "chip": "ym2612"
    },
    {
      "channel": 3,
      "note": 70,
      "start": 20.3494,
      "duration": 0.0161,
      "velocity": 94,
      "chip": "ym2612"
    },
    {
      "channel": 2,
      "note": 56,
      "start": 20.3508,
      "duration": 0.0158,
      "velocity": 100,
      "chip": "ym2612"
    },
    {
      "channel": 1,
      "note": 68,
      "start": 20.3523,
      "duration": 0.016,
      "velocity": 94,
      "chip": "ym2612"
    },
    {
      "channel": 0,
      "note": 44,
      "start": 20.362,
      "duration": 0.0161,
      "velocity": 115,
      "chip": "ym2612"
    },
    {
      "channel": 2,
      "note": 56,
      "start": 20.3666,
      "duration": 0.0161,
      "velocity": 100,
      "chip": "ym2612"
    },
    {
      "channel": 1,
      "note": 68,
      "start": 20.3684,
      "duration": 0.0158,
      "velocity": 94,
      "chip": "ym2612"
    },
    {
      "channel": 0,
      "note": 44,
      "start": 20.3781,
      "duration": 0.0179,
      "velocity": 115,
      "chip": "ym2612"
    },
    {
      "channel": 2,
      "note": 56,
      "start": 20.3827,
      "duration": 0.0195,
      "velocity": 100,
      "chip": "ym2612"
    },
    {
      "channel": 1,
      "note": 68,
      "start": 20.3841,
      "duration": 0.0193,
      "velocity": 94,
      "chip": "ym2612"
    },
    {
      "channel": 0,
      "note": 36,
      "start": 20.396,
      "duration": 0.0143,
      "velocity": 115,
      "chip": "ym2612"
    },
    {
      "channel": 5,
      "note": 71,
      "start": 20.3975,
      "duration": 0.0141,
      "velocity": 110,
      "chip": "ym2612"
    },
    {
      "channel": 4,
      "note": 75,
      "start": 20.399,
      "duration": 0.0139,
      "velocity": 110,
      "chip": "ym2612"
    },
    {
      "channel": 2,
      "note": 56,
      "start": 20.4022,
      "duration": 0.0133,
      "velocity": 100,
      "chip": "ym2612"
    },
    {
      "channel": 1,
      "note": 68,
      "start": 20.4034,
      "duration": 0.0133,
      "velocity": 94,
      "chip": "ym2612"
    },
    {
      "channel": 0,
      "note": 36,
      "start": 20.4104,
      "duration": 0.016,
      "velocity": 115,
      "chip": "ym2612"
    },
    {
      "channel": 5,
      "note": 71,
      "start": 20.4116,
      "duration": 0.016,
      "velocity": 110,
      "chip": "ym2612"
    },
    {
      "channel": 4,
      "note": 75,
      "start": 20.4128,
      "duration": 0.0159,
      "velocity": 110,
      "chip": "ym2612"
    },
    {
      "channel": 3,
      "note": 68,
      "start": 20.4143,
      "duration": 0.0156,
      "velocity": 94,
      "chip": "ym2612"
    },
    {
      "channel": 2,
      "note": 56,
      "start": 20.4155,
      "duration": 0.0156,
      "velocity": 100,
      "chip": "ym2612"
    },
    {
      "channel": 1,
      "note": 68,
      "start": 20.4167,
      "duration": 0.0156,
      "velocity": 94,
      "chip": "ym2612"
    },
    {
      "channel": 0,
      "note": 37,
      "start": 20.4264,
      "duration": 0.0161,
      "velocity": 115,
      "chip": "ym2612"
    },
    {
      "channel": 5,
      "note": 71,
      "start": 20.4275,
      "duration": 0.0162,
      "velocity": 110,
      "chip": "ym2612"
    },
    {
      "channel": 4,
      "note": 75,
      "start": 20.4287,
      "duration": 0.0161,
      "velocity": 110,
      "chip": "ym2612"
    },
    {
      "channel": 3,
      "note": 68,
      "start": 20.43,
      "duration": 0.0161,
      "velocity": 94,
      "chip": "ym2612"
    },
    {
      "channel": 2,
      "note": 56,
      "start": 20.4312,
      "duration": 0.016,
      "velocity": 100,
      "chip": "ym2612"
    },
    {
      "channel": 1,
      "note": 68,
      "start": 20.4323,
      "duration": 0.016,
      "velocity": 94,
      "chip": "ym2612"
    },
    {
      "channel": 0,
      "note": 37,
      "start": 20.4425,
      "duration": 0.0161,
      "velocity": 115,
      "chip": "ym2612"
    },
    {
      "channel": 5,
      "note": 71,
      "start": 20.4437,
      "duration": 0.0161,
      "velocity": 110,
      "chip": "ym2612"
    },
    {
      "channel": 4,
      "note": 75,
      "start": 20.4448,
      "duration": 0.0161,
      "velocity": 110,
      "chip": "ym2612"
    },
    {
      "channel": 3,
      "note": 68,
      "start": 20.446,
      "duration": 0.0161,
      "velocity": 94,
      "chip": "ym2612"
    },
    {
      "channel": 2,
      "note": 56,
      "start": 20.4472,
      "duration": 0.0161,
      "velocity": 100,
      "chip": "ym2612"
    },
    {
      "channel": 1,
      "note": 68,
      "start": 20.4483,
      "duration": 0.0162,
      "velocity": 94,
      "chip": "ym2612"
    },
    {
      "channel": 0,
      "note": 38,
      "start": 20.4586,
      "duration": 0.0161,
      "velocity": 115,
      "chip": "ym2612"
    },
    {
      "channel": 3,
      "note": 68,
      "start": 20.4621,
      "duration": 0.0161,
      "velocity": 94,
      "chip": "ym2612"
    },
    {
      "channel": 2,
      "note": 56,
      "start": 20.4633,
      "duration": 0.0161,
      "velocity": 100,
      "chip": "ym2612"
    },
    {
      "channel": 1,
      "note": 68,
      "start": 20.4645,
      "duration": 0.016,
      "velocity": 94,
      "chip": "ym2612"
    },
    {
      "channel": 0,
      "note": 38,
      "start": 20.4747,
      "duration": 0.0161,
      "velocity": 115,
      "chip": "ym2612"
    },
    {
      "channel": 3,
      "note": 68,
      "start": 20.4782,
      "duration": 0.0161,
      "velocity": 94,
      "chip": "ym2612"
    },
    {
      "channel": 2,
      "note": 56,
      "start": 20.4794,
      "duration": 0.0161,
      "velocity": 100,
      "chip": "ym2612"
    },
    {
      "channel": 1,
      "note": 68,
      "start": 20.4805,
      "duration": 0.0161,
      "velocity": 94,
      "chip": "ym2612"
    },
    {
      "channel": 0,
      "note": 39,
      "start": 20.4908,
      "duration": 0.0179,
      "velocity": 124,
      "chip": "ym2612"
    },
    {
      "channel": 3,
      "note": 68,
      "start": 20.4943,
      "duration": 0.0186,
      "velocity": 94,
      "chip": "ym2612"
    },
    {
      "channel": 2,
      "note": 56,
      "start": 20.4955,
      "duration": 0.0187,
      "velocity": 100,
      "chip": "ym2612"
    },
    {
      "channel": 1,
      "note": 68,
      "start": 20.4966,
      "duration": 0.0187,
      "velocity": 94,
      "chip": "ym2612"
    },
    {
      "channel": 0,
      "note": 84,
      "start": 20.5088,
      "duration": 0.0143,
      "velocity": 124,
      "chip": "ym2612"
    },
    {
      "channel": 5,
      "note": 75,
      "start": 20.5102,
      "duration": 0.0141,
      "velocity": 110,
      "chip": "ym2612"
    },
    {
      "channel": 4,
      "note": 71,
      "start": 20.5117,
      "duration": 0.0138,
      "velocity": 110,
      "chip": "ym2612"
    },
    {
      "channel": 3,
      "note": 68,
      "start": 20.513,
      "duration": 0.0137,
      "velocity": 94,
      "chip": "ym2612"
    },
    {
      "channel": 2,
      "note": 56,
      "start": 20.5142,
      "duration": 0.0137,
      "velocity": 100,
      "chip": "ym2612"
    },
    {
      "channel": 1,
      "note": 68,
      "start": 20.5153,
      "duration": 0.0137,
      "velocity": 94,
      "chip": "ym2612"
    },
    {
      "channel": 0,
      "note": 82,
      "start": 20.5231,
      "duration": 0.016,
      "velocity": 124,
      "chip": "ym2612"
    },
    {
      "channel": 5,
      "note": 75,
      "start": 20.5243,
      "duration": 0.016,
      "velocity": 110,
      "chip": "ym2612"
    },
    {
      "channel": 4,
      "note": 71,
      "start": 20.5256,
      "duration": 0.0159,
      "velocity": 110,
      "chip": "ym2612"
    },
    {
      "channel": 3,
      "note": 68,
      "start": 20.5267,
      "duration": 0.0159,
      "velocity": 94,
      "chip": "ym2612"
    },
    {
      "channel": 2,
      "note": 56,
      "start": 20.5279,
      "duration": 0.016,
      "velocity": 100,
      "chip": "ym2612"
    },
    {
      "channel": 1,
      "note": 68,
      "start": 20.529,
      "duration": 0.016,
      "velocity": 94,
      "chip": "ym2612"
    },
    {
      "channel": 0,
      "note": 80,
      "start": 20.5391,
      "duration": 0.0161,
      "velocity": 124,
      "chip": "ym2612"
    },
    {
      "channel": 5,
      "note": 75,
      "start": 20.5402,
      "duration": 0.0161,
      "velocity": 110,
      "chip": "ym2612"
    },
    {
      "channel": 4,
      "note": 71,
      "start": 20.5415,
      "duration": 0.0161,
      "velocity": 110,
      "chip": "ym2612"
    },
    {
      "channel": 3,
      "note": 68,
      "start": 20.5426,
      "duration": 0.0161,
      "velocity": 94,
      "chip": "ym2612"
    },
    {
      "channel": 2,
      "note": 56,
      "start": 20.5439,
      "duration": 0.016,
      "velocity": 100,
      "chip": "ym2612"
    },
    {
      "channel": 1,
      "note": 68,
      "start": 20.545,
      "duration": 0.016,
      "velocity": 94,
      "chip": "ym2612"
    },
    {
      "channel": 0,
      "note": 77,
      "start": 20.5552,
      "duration": 0.0161,
      "velocity": 124,
      "chip": "ym2612"
    },
    {
      "channel": 3,
      "note": 68,
      "start": 20.5588,
      "duration": 0.016,
      "velocity": 94,
      "chip": "ym2612"
    },
    {
      "channel": 2,
      "note": 56,
      "start": 20.5599,
      "duration": 0.016,
      "velocity": 100,
      "chip": "ym2612"
    },
    {
      "channel": 1,
      "note": 68,
      "start": 20.561,
      "duration": 0.0161,
      "velocity": 94,
      "chip": "ym2612"
    },
    {
      "channel": 0,
      "note": 75,
      "start": 20.5713,
      "duration": 0.0161,
      "velocity": 124,
      "chip": "ym2612"
    },
    {
      "channel": 3,
      "note": 68,
      "start": 20.5748,
      "duration": 0.0162,
      "velocity": 94,
      "chip": "ym2612"
    },
    {
      "channel": 2,
      "note": 56,
      "start": 20.5759,
      "duration": 0.0161,
      "velocity": 100,
      "chip": "ym2612"
    },
    {
      "channel": 1,
      "note": 68,
      "start": 20.5771,
      "duration": 0.0161,
      "velocity": 94,
      "chip": "ym2612"
    },
    {
      "channel": 0,
      "note": 72,
      "start": 20.5874,
      "duration": 0.0161,
      "velocity": 124,
      "chip": "ym2612"
    },
    {
      "channel": 3,
      "note": 68,
      "start": 20.591,
      "duration": 0.0167,
      "velocity": 94,
      "chip": "ym2612"
    },
    {
      "channel": 2,
      "note": 56,
      "start": 20.5921,
      "duration": 0.0169,
      "velocity": 100,
      "chip": "ym2612"
    },
    {
      "channel": 1,
      "note": 68,
      "start": 20.5932,
      "duration": 0.017,
      "velocity": 94,
      "chip": "ym2612"
    },
    {
      "channel": 0,
      "note": 70,
      "start": 20.6035,
      "duration": 0.0164,
      "velocity": 124,
      "chip": "ym2612"
    },
    {
      "channel": 5,
      "note": 75,
      "start": 20.605,
      "duration": 0.0162,
      "velocity": 110,
      "chip": "ym2612"
    },
    {
      "channel": 4,
      "note": 71,
      "start": 20.6065,
      "duration": 0.016,
      "velocity": 110,
      "chip": "ym2612"
    },
    {
      "channel": 3,
      "note": 68,
      "start": 20.6077,
      "duration": 0.016,
      "velocity": 94,
      "chip": "ym2612"
    },
    {
      "channel": 2,
      "note": 56,
      "start": 20.609,
      "duration": 0.0158,
      "velocity": 100,
      "chip": "ym2612"
    },
    {
      "channel": 1,
      "note": 68,
      "start": 20.6102,
      "duration": 0.0159,
      "velocity": 94,
      "chip": "ym2612"
    },
    {
      "channel": 0,
      "note": 68,
      "start": 20.62,
      "duration": 0.0163,
      "velocity": 124,
      "chip": "ym2612"
    },
    {
      "channel": 5,
      "note": 75,
      "start": 20.6212,
      "duration": 0.0162,
      "velocity": 110,
      "chip": "ym2612"
    },
    {
      "channel": 4,
      "note": 71,
      "start": 20.6224,
      "duration": 0.0162,
      "velocity": 110,
      "chip": "ym2612"
    },
    {
      "channel": 3,
      "note": 68,
      "start": 20.6237,
      "duration": 0.0161,
      "velocity": 94,
      "chip": "ym2612"
    },
    {
      "channel": 2,
      "note": 56,
      "start": 20.6249,
      "duration": 0.0162,
      "velocity": 100,
      "chip": "ym2612"
    },
    {
      "channel": 1,
      "note": 68,
      "start": 20.6261,
      "duration": 0.0161,
      "velocity": 94,
      "chip": "ym2612"
    },
    {
      "channel": 0,
      "note": 65,
      "start": 20.6363,
      "duration": 0.0161,
      "velocity": 124,
      "chip": "ym2612"
    },
    {
      "channel": 5,
      "note": 75,
      "start": 20.6375,
      "duration": 0.0161,
      "velocity": 110,
      "chip": "ym2612"
    },
    {
      "channel": 4,
      "note": 71,
      "start": 20.6387,
      "duration": 0.0161,
      "velocity": 110,
      "chip": "ym2612"
    },
    {
      "channel": 3,
      "note": 68,
      "start": 20.6398,
      "duration": 0.0161,
      "velocity": 94,
      "chip": "ym2612"
    },
    {
      "channel": 2,
      "note": 56,
      "start": 20.6411,
      "duration": 0.0161,
      "velocity": 100,
      "chip": "ym2612"
    },
    {
      "channel": 1,
      "note": 68,
      "start": 20.6422,
      "duration": 0.0161,
      "velocity": 94,
      "chip": "ym2612"
    },
    {
      "channel": 0,
      "note": 63,
      "start": 20.6524,
      "duration": 0.0147,
      "velocity": 1,
      "chip": "ym2612"
    },
    {
      "channel": 5,
      "note": 75,
      "start": 20.6535,
      "duration": 0.0154,
      "velocity": 110,
      "chip": "ym2612"
    },
    {
      "channel": 4,
      "note": 71,
      "start": 20.6548,
      "duration": 0.0153,
      "velocity": 110,
      "chip": "ym2612"
    },
    {
      "channel": 3,
      "note": 68,
      "start": 20.6559,
      "duration": 0.0153,
      "velocity": 94,
      "chip": "ym2612"
    },
    {
      "channel": 2,
      "note": 56,
      "start": 20.6572,
      "duration": 0.0153,
      "velocity": 100,
      "chip": "ym2612"
    },
    {
      "channel": 1,
      "note": 68,
      "start": 20.6583,
      "duration": 0.0153,
      "velocity": 94,
      "chip": "ym2612"
    },
    {
      "channel": 3,
      "note": 68,
      "start": 20.6712,
      "duration": 0.0152,
      "velocity": 94,
      "chip": "ym2612"
    },
    {
      "channel": 2,
      "note": 56,
      "start": 20.6724,
      "duration": 0.0152,
      "velocity": 100,
      "chip": "ym2612"
    },
    {
      "channel": 1,
      "note": 68,
      "start": 20.6737,
      "duration": 0.0152,
      "velocity": 94,
      "chip": "ym2612"
    },
    {
      "channel": 3,
      "note": 68,
      "start": 20.6864,
      "duration": 0.0161,
      "velocity": 94,
      "chip": "ym2612"
    },
    {
      "channel": 2,
      "note": 56,
      "start": 20.6876,
      "duration": 0.0162,
      "velocity": 100,
      "chip": "ym2612"
    },
    {
      "channel": 1,
      "note": 68,
      "start": 20.6888,
      "duration": 0.0161,
      "velocity": 94,
      "chip": "ym2612"
    },
    {
      "channel": 3,
      "note": 68,
      "start": 20.7025,
      "duration": 0.0204,
      "velocity": 94,
      "chip": "ym2612"
    },
    {
      "channel": 2,
      "note": 56,
      "start": 20.7038,
      "duration": 0.0205,
      "velocity": 100,
      "chip": "ym2612"
    },
    {
      "channel": 1,
      "note": 68,
      "start": 20.7049,
      "duration": 0.0206,
      "velocity": 94,
      "chip": "ym2612"
    },
    {
      "channel": 0,
      "note": 36,
      "start": 20.7185,
      "duration": 0.0138,
      "velocity": 115,
      "chip": "ym2612"
    },
    {
      "channel": 5,
      "note": 71,
      "start": 20.7202,
      "duration": 0.0134,
      "velocity": 110,
      "chip": "ym2612"
    },
    {
      "channel": 4,
      "note": 75,
      "start": 20.7217,
      "duration": 0.0136,
      "velocity": 110,
      "chip": "ym2612"
    },
    {
      "channel": 3,
      "note": 68,
      "start": 20.7229,
      "duration": 0.0137,
      "velocity": 94,
      "chip": "ym2612"
    },
    {
      "channel": 2,
      "note": 51,
      "start": 20.7244,
      "duration": 0.0135,
      "velocity": 100,
      "chip": "ym2612"
    },
    {
      "channel": 1,
      "note": 68,
      "start": 20.7256,
      "duration": 0.0134,
      "velocity": 94,
      "chip": "ym2612"
    },
    {
      "channel": 0,
      "note": 36,
      "start": 20.7324,
      "duration": 0.016,
      "velocity": 115,
      "chip": "ym2612"
    },
    {
      "channel": 5,
      "note": 71,
      "start": 20.7336,
      "duration": 0.016,
      "velocity": 110,
      "chip": "ym2612"
    },
    {
      "channel": 4,
      "note": 75,
      "start": 20.7354,
      "duration": 0.0156,
      "velocity": 110,
      "chip": "ym2612"
    },
    {
      "channel": 3,
      "note": 68,
      "start": 20.7366,
      "duration": 0.0159,
      "velocity": 94,
      "chip": "ym2612"
    },
    {
      "channel": 2,
      "note": 51,
      "start": 20.7378,
      "duration": 0.0158,
      "velocity": 100,
      "chip": "ym2612"
    },
    {
      "channel": 1,
      "note": 68,
      "start": 20.739,
      "duration": 0.0159,
      "velocity": 94,
      "chip": "ym2612"
    },
    {
      "channel": 0,
      "note": 37,
      "start": 20.7484,
      "duration": 0.0161,
      "velocity": 115,
      "chip": "ym2612"
    },
    {
      "channel": 5,
      "note": 71,
      "start": 20.7496,
      "duration": 0.0161,
      "velocity": 110,
      "chip": "ym2612"
    },
    {
      "channel": 4,
      "note": 75,
      "start": 20.7509,
      "duration": 0.0159,
      "velocity": 110,
      "chip": "ym2612"
    },
    {
      "channel": 3,
      "note": 68,
      "start": 20.7525,
      "duration": 0.016,
      "velocity": 94,
      "chip": "ym2612"
    },
    {
      "channel": 2,
      "note": 51,
      "start": 20.7537,
      "duration": 0.0161,
      "velocity": 100,
      "chip": "ym2612"
    },
    {
      "channel": 1,
      "note": 68,
      "start": 20.7549,
      "duration": 0.0161,
      "velocity": 94,
      "chip": "ym2612"
    },
    {
      "channel": 0,
      "note": 37,
      "start": 20.7645,
      "duration": 0.0161,
      "velocity": 115,
      "chip": "ym2612"
    },
    {
      "channel": 5,
      "note": 71,
      "start": 20.7657,
      "duration": 0.0161,
      "velocity": 110,
      "chip": "ym2612"
    },
    {
      "channel": 4,
      "note": 75,
      "start": 20.7668,
      "duration": 0.0161,
      "velocity": 110,
      "chip": "ym2612"
    },
    {
      "channel": 3,
      "note": 68,
      "start": 20.7685,
      "duration": 0.0158,
      "velocity": 94,
      "chip": "ym2612"
    },
    {
      "channel": 2,
      "note": 51,
      "start": 20.7698,
      "duration": 0.0161,
      "velocity": 100,
      "chip": "ym2612"
    },
    {
      "channel": 1,
      "note": 68,
      "start": 20.771,
      "duration": 0.0161,
      "velocity": 94,
      "chip": "ym2612"
    },
    {
      "channel": 0,
      "note": 38,
      "start": 20.7806,
      "duration": 0.0161,
      "velocity": 115,
      "chip": "ym2612"
    },
    {
      "channel": 5,
      "note": 71,
      "start": 20.7818,
      "duration": 0.0161,
      "velocity": 110,
      "chip": "ym2612"
    },
    {
      "channel": 4,
      "note": 75,
      "start": 20.7829,
      "duration": 0.0161,
      "velocity": 110,
      "chip": "ym2612"
    },
    {
      "channel": 3,
      "note": 68,
      "start": 20.7843,
      "duration": 0.0159,
      "velocity": 94,
      "chip": "ym2612"
    },
    {
      "channel": 2,
      "note": 51,
      "start": 20.7859,
      "duration": 0.016,
      "velocity": 100,
      "chip": "ym2612"
    },
    {
      "channel": 1,
      "note": 68,
      "start": 20.7871,
      "duration": 0.0161,
      "velocity": 94,
      "chip": "ym2612"
    },
    {
      "channel": 0,
      "note": 38,
      "start": 20.7967,
      "duration": 0.0179,
      "velocity": 115,
      "chip": "ym2612"
    },
    {
      "channel": 5,
      "note": 71,
      "start": 20.7979,
      "duration": 0.0179,
      "velocity": 110,
      "chip": "ym2612"
    },
    {
      "channel": 4,
      "note": 75,
      "start": 20.799,
      "duration": 0.018,
      "velocity": 110,
      "chip": "ym2612"
    },
    {
      "channel": 3,
      "note": 68,
      "start": 20.8002,
      "duration": 0.0185,
      "velocity": 94,
      "chip": "ym2612"
    },
    {
      "channel": 2,
      "note": 51,
      "start": 20.8019,
      "duration": 0.0183,
      "velocity": 100,
      "chip": "ym2612"
    },
    {
      "channel": 1,
      "note": 68,
      "start": 20.8032,
      "duration": 0.0183,
      "velocity": 94,
      "chip": "ym2612"
    },
    {
      "channel": 0,
      "note": 36,
      "start": 20.8147,
      "duration": 0.0143,
      "velocity": 115,
      "chip": "ym2612"
    },
    {
      "channel": 5,
      "note": 71,
      "start": 20.8158,
      "duration": 0.0143,
      "velocity": 110,
      "chip": "ym2612"
    },
    {
      "channel": 4,
      "note": 75,
      "start": 20.817,
      "duration": 0.0143,
      "velocity": 110,
      "chip": "ym2612"
    },
    {
      "channel": 3,
      "note": 68,
      "start": 20.8188,
      "duration": 0.0138,
      "velocity": 94,
      "chip": "ym2612"
    },
    {
      "channel": 2,
      "note": 54,
      "start": 20.8202,
      "duration": 0.0136,
      "velocity": 100,
      "chip": "ym2612"
    },
    {
      "channel": 1,
      "note": 68,
      "start": 20.8214,
      "duration": 0.0141,
      "velocity": 94,
      "chip": "ym2612"
    },
    {
      "channel": 0,
      "note": 36,
      "start": 20.829,
      "duration": 0.016,
      "velocity": 115,
      "chip": "ym2612"
    },
    {
      "channel": 3,
      "note": 68,
      "start": 20.8326,
      "duration": 0.016,
      "velocity": 94,
      "chip": "ym2612"
    },
    {
      "channel": 2,
      "note": 54,
      "start": 20.8338,
      "duration": 0.0159,
      "velocity": 100,
      "chip": "ym2612"
    },
    {
      "channel": 1,
      "note": 68,
      "start": 20.8356,
      "duration": 0.0159,
      "velocity": 94,
      "chip": "ym2612"
    },
    {
      "channel": 0,
      "note": 37,
      "start": 20.845,
      "duration": 0.0161,
      "velocity": 115,
      "chip": "ym2612"
    },
    {
      "channel": 3,
      "note": 68,
      "start": 20.8485,
      "duration": 0.0161,
      "velocity": 94,
      "chip": "ym2612"
    },
    {
      "channel": 2,
      "note": 54,
      "start": 20.8497,
      "duration": 0.0161,
      "velocity": 100,
      "chip": "ym2612"
    },
    {
      "channel": 1,
      "note": 68,
      "start": 20.8515,
      "duration": 0.0155,
      "velocity": 94,
      "chip": "ym2612"
    },
    {
      "channel": 0,
      "note": 37,
      "start": 20.8611,
      "duration": 0.0161,
      "velocity": 115,
      "chip": "ym2612"
    },
    {
      "channel": 3,
      "note": 68,
      "start": 20.8646,
      "duration": 0.0161,
      "velocity": 94,
      "chip": "ym2612"
    },
    {
      "channel": 2,
      "note": 54,
      "start": 20.8658,
      "duration": 0.0161,
      "velocity": 100,
      "chip": "ym2612"
    },
    {
      "channel": 1,
      "note": 68,
      "start": 20.867,
      "duration": 0.0161,
      "velocity": 94,
      "chip": "ym2612"
    },
    {
      "channel": 0,
      "note": 38,
      "start": 20.8772,
      "duration": 0.0161,
      "velocity": 115,
      "chip": "ym2612"
    },
    {
      "channel": 3,
      "note": 68,
      "start": 20.8807,
      "duration": 0.0162,
      "velocity": 94,
      "chip": "ym2612"
    },
    {
      "channel": 2,
      "note": 54,
      "start": 20.8819,
      "duration": 0.0161,
      "velocity": 100,
      "chip": "ym2612"
    },
    {
      "channel": 1,
      "note": 68,
      "start": 20.8831,
      "duration": 0.0161,
      "velocity": 94,
      "chip": "ym2612"
    },
    {
      "channel": 0,
      "note": 38,
      "start": 20.8933,
      "duration": 0.0161,
      "velocity": 115,
      "chip": "ym2612"
    },
    {
      "channel": 3,
      "note": 68,
      "start": 20.8969,
      "duration": 0.0161,
      "velocity": 94,
      "chip": "ym2612"
    },
    {
      "channel": 2,
      "note": 54,
      "start": 20.898,
      "duration": 0.0161,
      "velocity": 100,
      "chip": "ym2612"
    },
    {
      "channel": 1,
      "note": 68,
      "start": 20.8992,
      "duration": 0.0161,
      "velocity": 94,
      "chip": "ym2612"
    },
    {
      "channel": 0,
      "note": 39,
      "start": 20.9094,
      "duration": 0.0179,
      "velocity": 115,
      "chip": "ym2612"
    },
    {
      "channel": 3,
      "note": 68,
      "start": 20.913,
      "duration": 0.0186,
      "velocity": 94,
      "chip": "ym2612"
    },
    {
      "channel": 2,
      "note": 54,
      "start": 20.9141,
      "duration": 0.0188,
      "velocity": 100,
      "chip": "ym2612"
    },
    {
      "channel": 1,
      "note": 68,
      "start": 20.9153,
      "duration": 0.0194,
      "velocity": 94,
      "chip": "ym2612"
    },
    {
      "channel": 0,
      "note": 36,
      "start": 20.9273,
      "duration": 0.0143,
      "velocity": 115,
      "chip": "ym2612"
    },
    {
      "channel": 5,
      "note": 75,
      "start": 20.9289,
      "duration": 0.0141,
      "velocity": 110,
      "chip": "ym2612"
    },
    {
      "channel": 4,
      "note": 71,
      "start": 20.9304,
      "duration": 0.0137,
      "velocity": 110,
      "chip": "ym2612"
    },
    {
      "channel": 3,
      "note": 68,
      "start": 20.9315,
      "duration": 0.0138,
      "velocity": 94,
      "chip": "ym2612"
    },
    {
      "channel": 2,
      "note": 56,
      "start": 20.933,
      "duration": 0.0136,
      "velocity": 100,
      "chip": "ym2612"
    },
    {
      "channel": 1,
      "note": 68,
      "start": 20.9347,
      "duration": 0.013,
      "velocity": 94,
      "chip": "ym2612"
    },
    {
      "channel": 0,
      "note": 36,
      "start": 20.9417,
      "duration": 0.0161,
      "velocity": 115,
      "chip": "ym2612"
    },
    {
      "channel": 5,
      "note": 75,
      "start": 20.9429,
      "duration": 0.016,
      "velocity": 110,
      "chip": "ym2612"
    },
    {
      "channel": 4,
      "note": 71,
      "start": 20.9441,
      "duration": 0.0159,
      "velocity": 110,
      "chip": "ym2612"
    },
    {
      "channel": 3,
      "note": 68,
      "start": 20.9454,
      "duration": 0.0159,
      "velocity": 94,
      "chip": "ym2612"
    },
    {
      "channel": 2,
      "note": 56,
      "start": 20.9466,
      "duration": 0.0158,
      "velocity": 100,
      "chip": "ym2612"
    },
    {
      "channel": 1,
      "note": 68,
      "start": 20.9477,
      "duration": 0.0159,
      "velocity": 94,
      "chip": "ym2612"
    },
    {
      "channel": 0,
      "note": 37,
      "start": 20.9578,
      "duration": 0.0161,
      "velocity": 115,
      "chip": "ym2612"
    },
    {
      "channel": 5,
      "note": 75,
      "start": 20.9589,
      "duration": 0.0161,
      "velocity": 110,
      "chip": "ym2612"
    },
    {
      "channel": 4,
      "note": 71,
      "start": 20.96,
      "duration": 0.0161,
      "velocity": 110,
      "chip": "ym2612"
    },
    {
      "channel": 3,
      "note": 68,
      "start": 20.9612,
      "duration": 0.0161,
      "velocity": 94,
      "chip": "ym2612"
    },
    {
      "channel": 2,
      "note": 56,
      "start": 20.9624,
      "duration": 0.0161,
      "velocity": 100,
      "chip": "ym2612"
    },
    {
      "channel": 1,
      "note": 68,
      "start": 20.9636,
      "duration": 0.0161,
      "velocity": 94,
      "chip": "ym2612"
    },
    {
      "channel": 0,
      "note": 37,
      "start": 20.9738,
      "duration": 0.0161,
      "velocity": 115,
      "chip": "ym2612"
    },
    {
      "channel": 5,
      "note": 75,
      "start": 20.975,
      "duration": 0.0161,
      "velocity": 110,
      "chip": "ym2612"
    },
    {
      "channel": 4,
      "note": 71,
      "start": 20.9761,
      "duration": 0.0162,
      "velocity": 110,
      "chip": "ym2612"
    },
    {
      "channel": 3,
      "note": 68,
      "start": 20.9773,
      "duration": 0.0161,
      "velocity": 94,
      "chip": "ym2612"
    },
    {
      "channel": 2,
      "note": 56,
      "start": 20.9785,
      "duration": 0.0161,
      "velocity": 100,
      "chip": "ym2612"
    },
    {
      "channel": 1,
      "note": 68,
      "start": 20.9797,
      "duration": 0.0161,
      "velocity": 94,
      "chip": "ym2612"
    },
    {
      "channel": 0,
      "note": 38,
      "start": 20.9899,
      "duration": 0.0161,
      "velocity": 115,
      "chip": "ym2612"
    },
    {
      "channel": 5,
      "note": 75,
      "start": 20.9911,
      "duration": 0.0161,
      "velocity": 110,
      "chip": "ym2612"
    },
    {
      "channel": 4,
      "note": 71,
      "start": 20.9923,
      "duration": 0.0161,
      "velocity": 110,
      "chip": "ym2612"
    },
    {
      "channel": 3,
      "note": 68,
      "start": 20.9934,
      "duration": 0.0161,
      "velocity": 94,
      "chip": "ym2612"
    },
    {
      "channel": 2,
      "note": 56,
      "start": 20.9946,
      "duration": 0.0161,
      "velocity": 100,
      "chip": "ym2612"
    },
    {
      "channel": 1,
      "note": 68,
      "start": 20.9958,
      "duration": 0.0161,
      "velocity": 94,
      "chip": "ym2612"
    },
    {
      "channel": 0,
      "note": 38,
      "start": 21.006,
      "duration": 0.0179,
      "velocity": 127,
      "chip": "ym2612"
    },
    {
      "channel": 5,
      "note": 75,
      "start": 21.0072,
      "duration": 0.018,
      "velocity": 110,
      "chip": "ym2612"
    },
    {
      "channel": 4,
      "note": 71,
      "start": 21.0084,
      "duration": 0.0179,
      "velocity": 110,
      "chip": "ym2612"
    },
    {
      "channel": 3,
      "note": 68,
      "start": 21.0095,
      "duration": 0.018,
      "velocity": 94,
      "chip": "ym2612"
    },
    {
      "channel": 2,
      "note": 56,
      "start": 21.0107,
      "duration": 0.0182,
      "velocity": 100,
      "chip": "ym2612"
    },
    {
      "channel": 1,
      "note": 68,
      "start": 21.0119,
      "duration": 0.0183,
      "velocity": 94,
      "chip": "ym2612"
    },
    {
      "channel": 0,
      "note": 88,
      "start": 21.024,
      "duration": 0.0143,
      "velocity": 127,
      "chip": "ym2612"
    },
    {
      "channel": 5,
      "note": 75,
      "start": 21.0252,
      "duration": 0.0143,
      "velocity": 110,
      "chip": "ym2612"
    },
    {
      "channel": 4,
      "note": 71,
      "start": 21.0263,
      "duration": 0.0143,
      "velocity": 110,
      "chip": "ym2612"
    },
    {
      "channel": 3,
      "note": 68,
      "start": 21.0275,
      "duration": 0.0143,
      "velocity": 94,
      "chip": "ym2612"
    },
    {
      "channel": 2,
      "note": 68,
      "start": 21.0289,
      "duration": 0.0142,
      "velocity": 100,
      "chip": "ym2612"
    },
    {
      "channel": 1,
      "note": 68,
      "start": 21.0301,
      "duration": 0.0141,
      "velocity": 94,
      "chip": "ym2612"
    },
    {
      "channel": 0,
      "note": 86,
      "start": 21.0383,
      "duration": 0.016,
      "velocity": 127,
      "chip": "ym2612"
    },
    {
      "channel": 3,
      "note": 68,
      "start": 21.0418,
      "duration": 0.016,
      "velocity": 94,
      "chip": "ym2612"
    },
    {
      "channel": 2,
      "note": 68,
      "start": 21.0431,
      "duration": 0.0159,
      "velocity": 100,
      "chip": "ym2612"
    },
    {
      "channel": 1,
      "note": 68,
      "start": 21.0443,
      "duration": 0.0159,
      "velocity": 94,
      "chip": "ym2612"
    },
    {
      "channel": 0,
      "note": 85,
      "start": 21.0543,
      "duration": 0.0162,
      "velocity": 127,
      "chip": "ym2612"
    },
    {
      "channel": 3,
      "note": 68,
      "start": 21.0579,
      "duration": 0.0162,
      "velocity": 94,
      "chip": "ym2612"
    },
    {
      "channel": 2,
      "note": 68,
      "start": 21.059,
      "duration": 0.0161,
      "velocity": 100,
      "chip": "ym2612"
    },
    {
      "channel": 1,
      "note": 68,
      "start": 21.0602,
      "duration": 0.0162,
      "velocity": 94,
      "chip": "ym2612"
    },
    {
      "channel": 0,
      "note": 83,
      "start": 21.0705,
      "duration": 0.0162,
      "velocity": 127,
      "chip": "ym2612"
    },
    {
      "channel": 3,
      "note": 68,
      "start": 21.074,
      "duration": 0.0162,
      "velocity": 94,
      "chip": "ym2612"
    },
    {
      "channel": 2,
      "note": 68,
      "start": 21.0752,
      "duration": 0.0162,
      "velocity": 100,
      "chip": "ym2612"
    },
    {
      "channel": 1,
      "note": 68,
      "start": 21.0763,
      "duration": 0.0163,
      "velocity": 94,
      "chip": "ym2612"
    },
    {
      "channel": 0,
      "note": 81,
      "start": 21.0867,
      "duration": 0.0163,
      "velocity": 127,
      "chip": "ym2612"
    },
    {
      "channel": 3,
      "note": 68,
      "start": 21.0902,
      "duration": 0.0163,
      "velocity": 94,
      "chip": "ym2612"
    },
    {
      "channel": 2,
      "note": 68,
      "start": 21.0914,
      "duration": 0.0163,
      "velocity": 100,
      "chip": "ym2612"
    },
    {
      "channel": 1,
      "note": 68,
      "start": 21.0926,
      "duration": 0.0163,
      "velocity": 94,
      "chip": "ym2612"
    },
    {
      "channel": 0,
      "note": 80,
      "start": 21.103,
      "duration": 0.0163,
      "velocity": 127,
      "chip": "ym2612"
    },
    {
      "channel": 3,
      "note": 68,
      "start": 21.1066,
      "duration": 0.0162,
      "velocity": 94,
      "chip": "ym2612"
    },
    {
      "channel": 2,
      "note": 68,
      "start": 21.1078,
      "duration": 0.0163,
      "velocity": 100,
      "chip": "ym2612"
    },
    {
      "channel": 1,
      "note": 68,
      "start": 21.109,
      "duration": 0.0162,
      "velocity": 94,
      "chip": "ym2612"
    },
    {
      "channel": 0,
      "note": 78,
      "start": 21.1193,
      "duration": 0.016,
      "velocity": 127,
      "chip": "ym2612"
    },
    {
      "channel": 3,
      "note": 68,
      "start": 21.1228,
      "duration": 0.0169,
      "velocity": 94,
      "chip": "ym2612"
    },
    {
      "channel": 2,
      "note": 68,
      "start": 21.124,
      "duration": 0.0171,
      "velocity": 100,
      "chip": "ym2612"
    },
    {
      "channel": 1,
      "note": 68,
      "start": 21.1252,
      "duration": 0.0172,
      "velocity": 94,
      "chip": "ym2612"
    },
    {
      "channel": 0,
      "note": 76,
      "start": 21.1354,
      "duration": 0.0161,
      "velocity": 127,
      "chip": "ym2612"
    },
    {
      "channel": 5,
      "note": 71,
      "start": 21.137,
      "duration": 0.0157,
      "velocity": 110,
      "chip": "ym2612"
    },
    {
      "channel": 4,
      "note": 75,
      "start": 21.1385,
      "duration": 0.0155,
      "velocity": 110,
      "chip": "ym2612"
    },
    {
      "channel": 3,
      "note": 68,
      "start": 21.1398,
      "duration": 0.0154,
      "velocity": 94,
      "chip": "ym2612"
    },
    {
      "channel": 2,
      "note": 56,
      "start": 21.1412,
      "duration": 0.0152,
      "velocity": 100,
      "chip": "ym2612"
    },
    {
      "channel": 1,
      "note": 68,
      "start": 21.1424,
      "duration": 0.0152,
      "velocity": 94,
      "chip": "ym2612"
    },
    {
      "channel": 0,
      "note": 75,
      "start": 21.1515,
      "duration": 0.0156,
      "velocity": 127,
      "chip": "ym2612"
    },
    {
      "channel": 5,
      "note": 71,
      "start": 21.1527,
      "duration": 0.0161,
      "velocity": 110,
      "chip": "ym2612"
    },
    {
      "channel": 4,
      "note": 75,
      "start": 21.154,
      "duration": 0.016,
      "velocity": 110,
      "chip": "ym2612"
    },
    {
      "channel": 3,
      "note": 68,
      "start": 21.1551,
      "duration": 0.016,
      "velocity": 94,
      "chip": "ym2612"
    },
    {
      "channel": 2,
      "note": 56,
      "start": 21.1564,
      "duration": 0.0159,
      "velocity": 100,
      "chip": "ym2612"
    },
    {
      "channel": 1,
      "note": 68,
      "start": 21.1576,
      "duration": 0.016,
      "velocity": 94,
      "chip": "ym2612"
    },
    {
      "channel": 0,
      "note": 73,
      "start": 21.167,
      "duration": 0.0161,
      "velocity": 127,
      "chip": "ym2612"
    },
    {
      "channel": 5,
      "note": 71,
      "start": 21.1688,
      "duration": 0.016,
      "velocity": 110,
      "chip": "ym2612"
    },
    {
      "channel": 4,
      "note": 75,
      "start": 21.17,
      "duration": 0.0161,
      "velocity": 110,
      "chip": "ym2612"
    },
    {
      "channel": 3,
      "note": 68,
      "start": 21.1712,
      "duration": 0.0161,
      "velocity": 94,
      "chip": "ym2612"
    },
    {
      "channel": 2,
      "note": 56,
      "start": 21.1723,
      "duration": 0.0161,
      "velocity": 100,
      "chip": "ym2612"
    },
    {
      "channel": 1,
      "note": 68,
      "start": 21.1735,
      "duration": 0.0161,
      "velocity": 94,
      "chip": "ym2612"
    },
    {
      "channel": 0,
      "note": 71,
      "start": 21.1831,
      "duration": 0.0161,
      "velocity": 127,
      "chip": "ym2612"
    },
    {
      "channel": 5,
      "note": 71,
      "start": 21.1849,
      "duration": 0.0156,
      "velocity": 110,
      "chip": "ym2612"
    },
    {
      "channel": 4,
      "note": 75,
      "start": 21.1861,
      "duration": 0.0162,
      "velocity": 110,
      "chip": "ym2612"
    },
    {
      "channel": 3,
      "note": 68,
      "start": 21.1873,
      "duration": 0.0161,
      "velocity": 94,
      "chip": "ym2612"
    },
    {
      "channel": 2,
      "note": 56,
      "start": 21.1884,
      "duration": 0.0161,
      "velocity": 100,
      "chip": "ym2612"
    },
    {
      "channel": 1,
      "note": 68,
      "start": 21.1896,
      "duration": 0.0161,
      "velocity": 94,
      "chip": "ym2612"
    },
    {
      "channel": 0,
      "note": 69,
      "start": 21.1992,
      "duration": 0.0161,
      "velocity": 127,
      "chip": "ym2612"
    },
    {
      "channel": 5,
      "note": 71,
      "start": 21.2004,
      "duration": 0.0161,
      "velocity": 110,
      "chip": "ym2612"
    },
    {
      "channel": 4,
      "note": 75,
      "start": 21.2022,
      "duration": 0.016,
      "velocity": 110,
      "chip": "ym2612"
    },
    {
      "channel": 3,
      "note": 68,
      "start": 21.2034,
      "duration": 0.0161,
      "velocity": 94,
      "chip": "ym2612"
    },
    {
      "channel": 2,
      "note": 56,
      "start": 21.2046,
      "duration": 0.0161,
      "velocity": 100,
      "chip": "ym2612"
    },
    {
      "channel": 1,
      "note": 68,
      "start": 21.2057,
      "duration": 0.0161,
      "velocity": 94,
      "chip": "ym2612"
    },
    {
      "channel": 0,
      "note": 68,
      "start": 21.2153,
      "duration": 0.018,
      "velocity": 127,
      "chip": "ym2612"
    },
    {
      "channel": 5,
      "note": 71,
      "start": 21.2165,
      "duration": 0.0186,
      "velocity": 110,
      "chip": "ym2612"
    },
    {
      "channel": 4,
      "note": 75,
      "start": 21.2182,
      "duration": 0.018,
      "velocity": 110,
      "chip": "ym2612"
    },
    {
      "channel": 3,
      "note": 68,
      "start": 21.2195,
      "duration": 0.018,
      "velocity": 94,
      "chip": "ym2612"
    },
    {
      "channel": 2,
      "note": 56,
      "start": 21.2207,
      "duration": 0.0183,
      "velocity": 100,
      "chip": "ym2612"
    },
    {
      "channel": 1,
      "note": 68,
      "start": 21.2218,
      "duration": 0.0183,
      "velocity": 94,
      "chip": "ym2612"
    },
    {
      "channel": 0,
      "note": 84,
      "start": 21.2333,
      "duration": 0.0143,
      "velocity": 127,
      "chip": "ym2612"
    },
    {
      "channel": 5,
      "note": 71,
      "start": 21.2351,
      "duration": 0.0137,
      "velocity": 110,
      "chip": "ym2612"
    },
    {
      "channel": 4,
      "note": 75,
      "start": 21.2362,
      "duration": 0.0137,
      "velocity": 110,
      "chip": "ym2612"
    },
    {
      "channel": 3,
      "note": 68,
      "start": 21.2375,
      "duration": 0.0142,
      "velocity": 94,
      "chip": "ym2612"
    },
    {
      "channel": 2,
      "note": 68,
      "start": 21.2389,
      "duration": 0.0141,
      "velocity": 100,
      "chip": "ym2612"
    },
    {
      "channel": 1,
      "note": 68,
      "start": 21.2401,
      "duration": 0.014,
      "velocity": 94,
      "chip": "ym2612"
    },
    {
      "channel": 0,
      "note": 82,
      "start": 21.2476,
      "duration": 0.016,
      "velocity": 127,
      "chip": "ym2612"
    },
    {
      "channel": 3,
      "note": 68,
      "start": 21.2517,
      "duration": 0.0156,
      "velocity": 94,
      "chip": "ym2612"
    },
    {
      "channel": 2,
      "note": 68,
      "start": 21.253,
      "duration": 0.016,
      "velocity": 100,
      "chip": "ym2612"
    },
    {
      "channel": 1,
      "note": 68,
      "start": 21.2541,
      "duration": 0.016,
      "velocity": 94,
      "chip": "ym2612"
    },
    {
      "channel": 0,
      "note": 81,
      "start": 21.2636,
      "duration": 0.0161,
      "velocity": 127,
      "chip": "ym2612"
    },
    {
      "channel": 3,
      "note": 68,
      "start": 21.2673,
      "duration": 0.0159,
      "velocity": 94,
      "chip": "ym2612"
    },
    {
      "channel": 2,
      "note": 68,
      "start": 21.2689,
      "duration": 0.016,
      "velocity": 100,
      "chip": "ym2612"
    },
    {
      "channel": 1,
      "note": 68,
      "start": 21.2701,
      "duration": 0.0161,
      "velocity": 94,
      "chip": "ym2612"
    },
    {
      "channel": 0,
      "note": 79,
      "start": 21.2798,
      "duration": 0.0161,
      "velocity": 127,
      "chip": "ym2612"
    },
    {
      "channel": 3,
      "note": 68,
      "start": 21.2833,
      "duration": 0.0161,
      "velocity": 94,
      "chip": "ym2612"
    },
    {
      "channel": 2,
      "note": 68,
      "start": 21.285,
      "duration": 0.0158,
      "velocity": 100,
      "chip": "ym2612"
    },
    {
      "channel": 1,
      "note": 68,
      "start": 21.2862,
      "duration": 0.0161,
      "velocity": 94,
      "chip": "ym2612"
    },
    {
      "channel": 0,
      "note": 77,
      "start": 21.2959,
      "duration": 0.0161,
      "velocity": 127,
      "chip": "ym2612"
    },
    {
      "channel": 3,
      "note": 68,
      "start": 21.2993,
      "duration": 0.0161,
      "velocity": 94,
      "chip": "ym2612"
    },
    {
      "channel": 2,
      "note": 68,
      "start": 21.3007,
      "duration": 0.0159,
      "velocity": 100,
      "chip": "ym2612"
    },
    {
      "channel": 1,
      "note": 68,
      "start": 21.3023,
      "duration": 0.016,
      "velocity": 94,
      "chip": "ym2612"
    },
    {
      "channel": 0,
      "note": 76,
      "start": 21.312,
      "duration": 0.0161,
      "velocity": 127,
      "chip": "ym2612"
    },
    {
      "channel": 3,
      "note": 68,
      "start": 21.3154,
      "duration": 0.0162,
      "velocity": 94,
      "chip": "ym2612"
    },
    {
      "channel": 2,
      "note": 68,
      "start": 21.3166,
      "duration": 0.0161,
      "velocity": 100,
      "chip": "ym2612"
    },
    {
      "channel": 1,
      "note": 68,
      "start": 21.3184,
      "duration": 0.0158,
      "velocity": 94,
      "chip": "ym2612"
    },
    {
      "channel": 0,
      "note": 74,
      "start": 21.328,
      "duration": 0.018,
      "velocity": 127,
      "chip": "ym2612"
    },
    {
      "channel": 3,
      "note": 68,
      "start": 21.3316,
      "duration": 0.0186,
      "velocity": 94,
      "chip": "ym2612"
    },
    {
      "channel": 2,
      "note": 68,
      "start": 21.3327,
      "duration": 0.0195,
      "velocity": 100,
      "chip": "ym2612"
    },
    {
      "channel": 1,
      "note": 68,
      "start": 21.3341,
      "duration": 0.0193,
      "velocity": 94,
      "chip": "ym2612"
    },
    {
      "channel": 0,
      "note": 78,
      "start": 21.346,
      "duration": 0.0143,
      "velocity": 127,
      "chip": "ym2612"
    },
    {
      "channel": 5,
      "note": 75,
      "start": 21.3476,
      "duration": 0.014,
      "velocity": 110,
      "chip": "ym2612"
    },
    {
      "channel": 4,
      "note": 71,
      "start": 21.3491,
      "duration": 0.0137,
      "velocity": 110,
      "chip": "ym2612"
    },
    {
      "channel": 3,
      "note": 68,
      "start": 21.3502,
      "duration": 0.0137,
      "velocity": 94,
      "chip": "ym2612"
    },
    {
      "channel": 2,
      "note": 51,
      "start": 21.3523,
      "duration": 0.0129,
      "velocity": 100,
      "chip": "ym2612"
    },
    {
      "channel": 1,
      "note": 68,
      "start": 21.3535,
      "duration": 0.0128,
      "velocity": 94,
      "chip": "ym2612"
    },
    {
      "channel": 0,
      "note": 76,
      "start": 21.3603,
      "duration": 0.016,
      "velocity": 127,
      "chip": "ym2612"
    },
    {
      "channel": 5,
      "note": 75,
      "start": 21.3616,
      "duration": 0.016,
      "velocity": 110,
      "chip": "ym2612"
    },
    {
      "channel": 4,
      "note": 71,
      "start": 21.3628,
      "duration": 0.0159,
      "velocity": 110,
      "chip": "ym2612"
    },
    {
      "channel": 3,
      "note": 68,
      "start": 21.364,
      "duration": 0.0159,
      "velocity": 94,
      "chip": "ym2612"
    },
    {
      "channel": 2,
      "note": 51,
      "start": 21.3652,
      "duration": 0.0158,
      "velocity": 100,
      "chip": "ym2612"
    },
    {
      "channel": 1,
      "note": 68,
      "start": 21.3663,
      "duration": 0.0159,
      "velocity": 94,
      "chip": "ym2612"
    },
    {
      "channel": 0,
      "note": 75,
      "start": 21.3763,
      "duration": 0.0161,
      "velocity": 127,
      "chip": "ym2612"
    },
    {
      "channel": 5,
      "note": 75,
      "start": 21.3775,
      "duration": 0.0161,
      "velocity": 110,
      "chip": "ym2612"
    },
    {
      "channel": 4,
      "note": 71,
      "start": 21.3787,
      "duration": 0.0161,
      "velocity": 110,
      "chip": "ym2612"
    },
    {
      "channel": 3,
      "note": 68,
      "start": 21.3799,
      "duration": 0.0161,
      "velocity": 94,
      "chip": "ym2612"
    },
    {
      "channel": 2,
      "note": 51,
      "start": 21.381,
      "duration": 0.0161,
      "velocity": 100,
      "chip": "ym2612"
    },
    {
      "channel": 1,
      "note": 68,
      "start": 21.3822,
      "duration": 0.0161,
      "velocity": 94,
      "chip": "ym2612"
    },
    {
      "channel": 0,
      "note": 73,
      "start": 21.3924,
      "duration": 0.0161,
      "velocity": 127,
      "chip": "ym2612"
    },
    {
      "channel": 5,
      "note": 75,
      "start": 21.3936,
      "duration": 0.0161,
      "velocity": 110,
      "chip": "ym2612"
    },
    {
      "channel": 4,
      "note": 71,
      "start": 21.3948,
      "duration": 0.0161,
      "velocity": 110,
      "chip": "ym2612"
    },
    {
      "channel": 3,
      "note": 68,
      "start": 21.396,
      "duration": 0.0161,
      "velocity": 94,
      "chip": "ym2612"
    },
    {
      "channel": 2,
      "note": 51,
      "start": 21.3971,
      "duration": 0.0161,
      "velocity": 100,
      "chip": "ym2612"
    },
    {
      "channel": 1,
      "note": 68,
      "start": 21.3983,
      "duration": 0.0161,
      "velocity": 94,
      "chip": "ym2612"
    },
    {
      "channel": 0,
      "note": 71,
      "start": 21.4085,
      "duration": 0.0162,
      "velocity": 127,
      "chip": "ym2612"
    },
    {
      "channel": 5,
      "note": 75,
      "start": 21.4097,
      "duration": 0.0161,
      "velocity": 110,
      "chip": "ym2612"
    },
    {
      "channel": 4,
      "note": 71,
      "start": 21.4109,
      "duration": 0.0162,
      "velocity": 110,
      "chip": "ym2612"
    },
    {
      "channel": 3,
      "note": 68,
      "start": 21.4121,
      "duration": 0.0162,
      "velocity": 94,
      "chip": "ym2612"
    },
    {
      "channel": 2,
      "note": 51,
      "start": 21.4132,
      "duration": 0.0161,
      "velocity": 100,
      "chip": "ym2612"
    },
    {
      "channel": 1,
      "note": 68,
      "start": 21.4144,
      "duration": 0.0161,
      "velocity": 94,
      "chip": "ym2612"
    },
    {
      "channel": 0,
      "note": 70,
      "start": 21.4247,
      "duration": 0.0179,
      "velocity": 115,
      "chip": "ym2612"
    },
    {
      "channel": 5,
      "note": 75,
      "start": 21.4258,
      "duration": 0.0179,
      "velocity": 110,
      "chip": "ym2612"
    },
    {
      "channel": 4,
      "note": 71,
      "start": 21.427,
      "duration": 0.0179,
      "velocity": 110,
      "chip": "ym2612"
    },
    {
      "channel": 3,
      "note": 68,
      "start": 21.4282,
      "duration": 0.0179,
      "velocity": 94,
      "chip": "ym2612"
    },
    {
      "channel": 2,
      "note": 51,
      "start": 21.4294,
      "duration": 0.018,
      "velocity": 100,
      "chip": "ym2612"
    },
    {
      "channel": 1,
      "note": 68,
      "start": 21.4305,
      "duration": 0.0179,
      "velocity": 94,
      "chip": "ym2612"
    },
    {
      "channel": 0,
      "note": 36,
      "start": 21.4426,
      "duration": 0.0143,
      "velocity": 115,
      "chip": "ym2612"
    },
    {
      "channel": 5,
      "note": 75,
      "start": 21.4437,
      "duration": 0.0143,
      "velocity": 110,
      "chip": "ym2612"
    },
    {
      "channel": 4,
      "note": 71,
      "start": 21.445,
      "duration": 0.0143,
      "velocity": 110,
      "chip": "ym2612"
    },
    {
      "channel": 3,
      "note": 68,
      "start": 21.4461,
      "duration": 0.0144,
      "velocity": 94,
      "chip": "ym2612"
    },
    {
      "channel": 2,
      "note": 51,
      "start": 21.4473,
      "duration": 0.0143,
      "velocity": 100,
      "chip": "ym2612"
    },
    {
      "channel": 1,
      "note": 68,
      "start": 21.4485,
      "duration": 0.0144,
      "velocity": 94,
      "chip": "ym2612"
    },
    {
      "channel": 0,
      "note": 36,
      "start": 21.4569,
      "duration": 0.016,
      "velocity": 115,
      "chip": "ym2612"
    },
    {
      "channel": 3,
      "note": 68,
      "start": 21.4605,
      "duration": 0.016,
      "velocity": 94,
      "chip": "ym2612"
    },
    {
      "channel": 2,
      "note": 51,
      "start": 21.4616,
      "duration": 0.016,
      "velocity": 100,
      "chip": "ym2612"
    },
    {
      "channel": 1,
      "note": 68,
      "start": 21.4628,
      "duration": 0.016,
      "velocity": 94,
      "chip": "ym2612"
    },
    {
      "channel": 0,
      "note": 37,
      "start": 21.4729,
      "duration": 0.0161,
      "velocity": 115,
      "chip": "ym2612"
    },
    {
      "channel": 3,
      "note": 68,
      "start": 21.4764,
      "duration": 0.0162,
      "velocity": 94,
      "chip": "ym2612"
    },
    {
      "channel": 2,
      "note": 51,
      "start": 21.4777,
      "duration": 0.0161,
      "velocity": 100,
      "chip": "ym2612"
    },
    {
      "channel": 1,
      "note": 68,
      "start": 21.4788,
      "duration": 0.0162,
      "velocity": 94,
      "chip": "ym2612"
    },
    {
      "channel": 0,
      "note": 37,
      "start": 21.489,
      "duration": 0.0161,
      "velocity": 115,
      "chip": "ym2612"
    },
    {
      "channel": 3,
      "note": 68,
      "start": 21.4926,
      "duration": 0.0161,
      "velocity": 94,
      "chip": "ym2612"
    },
    {
      "channel": 2,
      "note": 51,
      "start": 21.4937,
      "duration": 0.0161,
      "velocity": 100,
      "chip": "ym2612"
    },
    {
      "channel": 1,
      "note": 68,
      "start": 21.495,
      "duration": 0.0161,
      "velocity": 94,
      "chip": "ym2612"
    },
    {
      "channel": 0,
      "note": 38,
      "start": 21.5051,
      "duration": 0.0161,
      "velocity": 115,
      "chip": "ym2612"
    },
    {
      "channel": 3,
      "note": 68,
      "start": 21.5087,
      "duration": 0.0161,
      "velocity": 94,
      "chip": "ym2612"
    },
    {
      "channel": 2,
      "note": 51,
      "start": 21.5098,
      "duration": 0.0161,
      "velocity": 100,
      "chip": "ym2612"
    },
    {
      "channel": 1,
      "note": 68,
      "start": 21.511,
      "duration": 0.0161,
      "velocity": 94,
      "chip": "ym2612"
    },
    {
      "channel": 0,
      "note": 38,
      "start": 21.5212,
      "duration": 0.0161,
      "velocity": 115,
      "chip": "ym2612"
    },
    {
      "channel": 3,
      "note": 68,
      "start": 21.5248,
      "duration": 0.0161,
      "velocity": 94,
      "chip": "ym2612"
    },
    {
      "channel": 2,
      "note": 51,
      "start": 21.5259,
      "duration": 0.0161,
      "velocity": 100,
      "chip": "ym2612"
    },
    {
      "channel": 1,
      "note": 68,
      "start": 21.5271,
      "duration": 0.0161,
      "velocity": 94,
      "chip": "ym2612"
    },
    {
      "channel": 0,
      "note": 39,
      "start": 21.5373,
      "duration": 0.018,
      "velocity": 124,
      "chip": "ym2612"
    },
    {
      "channel": 3,
      "note": 68,
      "start": 21.5409,
      "duration": 0.0188,
      "velocity": 94,
      "chip": "ym2612"
    },
    {
      "channel": 2,
      "note": 51,
      "start": 21.542,
      "duration": 0.0191,
      "velocity": 100,
      "chip": "ym2612"
    },
    {
      "channel": 1,
      "note": 68,
      "start": 21.5432,
      "duration": 0.0191,
      "velocity": 94,
      "chip": "ym2612"
    },
    {
      "channel": 0,
      "note": 84,
      "start": 21.5554,
      "duration": 0.0146,
      "velocity": 124,
      "chip": "ym2612"
    },
    {
      "channel": 5,
      "note": 71,
      "start": 21.5569,
      "duration": 0.0143,
      "velocity": 110,
      "chip": "ym2612"
    },
    {
      "channel": 4,
      "note": 75,
      "start": 21.5585,
      "duration": 0.014,
      "velocity": 110,
      "chip": "ym2612"
    },
    {
      "channel": 3,
      "note": 68,
      "start": 21.5597,
      "duration": 0.0139,
      "velocity": 94,
      "chip": "ym2612"
    },
    {
      "channel": 2,
      "note": 54,
      "start": 21.5612,
      "duration": 0.0137,
      "velocity": 100,
      "chip": "ym2612"
    },
    {
      "channel": 1,
      "note": 68,
      "start": 21.5623,
      "duration": 0.0137,
      "velocity": 94,
      "chip": "ym2612"
    },
    {
      "channel": 0,
      "note": 82,
      "start": 21.57,
      "duration": 0.0162,
      "velocity": 124,
      "chip": "ym2612"
    },
    {
      "channel": 5,
      "note": 71,
      "start": 21.5712,
      "duration": 0.0162,
      "velocity": 110,
      "chip": "ym2612"
    },
    {
      "channel": 4,
      "note": 75,
      "start": 21.5725,
      "duration": 0.0161,
      "velocity": 110,
      "chip": "ym2612"
    },
    {
      "channel": 3,
      "note": 68,
      "start": 21.5737,
      "duration": 0.0161,
      "velocity": 94,
      "chip": "ym2612"
    },
    {
      "channel": 2,
      "note": 54,
      "start": 21.5749,
      "duration": 0.016,
      "velocity": 100,
      "chip": "ym2612"
    },
    {
      "channel": 1,
      "note": 68,
      "start": 21.5761,
      "duration": 0.0161,
      "velocity": 94,
      "chip": "ym2612"
    },
    {
      "channel": 0,
      "note": 80,
      "start": 21.5862,
      "duration": 0.0161,
      "velocity": 124,
      "chip": "ym2612"
    },
    {
      "channel": 5,
      "note": 71,
      "start": 21.5875,
      "duration": 0.0161,
      "velocity": 110,
      "chip": "ym2612"
    },
    {
      "channel": 4,
      "note": 75,
      "start": 21.5886,
      "duration": 0.0161,
      "velocity": 110,
      "chip": "ym2612"
    },
    {
      "channel": 3,
      "note": 68,
      "start": 21.5898,
      "duration": 0.0161,
      "velocity": 94,
      "chip": "ym2612"
    },
    {
      "channel": 2,
      "note": 54,
      "start": 21.591,
      "duration": 0.0161,
      "velocity": 100,
      "chip": "ym2612"
    },
    {
      "channel": 1,
      "note": 68,
      "start": 21.5922,
      "duration": 0.0161,
      "velocity": 94,
      "chip": "ym2612"
    },
    {
      "channel": 0,
      "note": 77,
      "start": 21.6023,
      "duration": 0.0161,
      "velocity": 124,
      "chip": "ym2612"
    },
    {
      "channel": 5,
      "note": 71,
      "start": 21.6035,
      "duration": 0.0161,
      "velocity": 110,
      "chip": "ym2612"
    },
    {
      "channel": 4,
      "note": 75,
      "start": 21.6047,
      "duration": 0.0161,
      "velocity": 110,
      "chip": "ym2612"
    },
    {
      "channel": 3,
      "note": 68,
      "start": 21.6059,
      "duration": 0.0161,
      "velocity": 94,
      "chip": "ym2612"
    },
    {
      "channel": 2,
      "note": 54,
      "start": 21.6071,
      "duration": 0.0161,
      "velocity": 100,
      "chip": "ym2612"
    },
    {
      "channel": 1,
      "note": 68,
      "start": 21.6083,
      "duration": 0.0161,
      "velocity": 94,
      "chip": "ym2612"
    },
    {
      "channel": 0,
      "note": 75,
      "start": 21.6184,
      "duration": 0.0158,
      "velocity": 124,
      "chip": "ym2612"
    },
    {
      "channel": 5,
      "note": 71,
      "start": 21.6196,
      "duration": 0.0161,
      "velocity": 110,
      "chip": "ym2612"
    },
    {
      "channel": 4,
      "note": 75,
      "start": 21.6208,
      "duration": 0.0161,
      "velocity": 110,
      "chip": "ym2612"
    },
    {
      "channel": 3,
      "note": 68,
      "start": 21.622,
      "duration": 0.0161,
      "velocity": 94,
      "chip": "ym2612"
    },
    {
      "channel": 2,
      "note": 54,
      "start": 21.6231,
      "duration": 0.0162,
      "velocity": 100,
      "chip": "ym2612"
    },
    {
      "channel": 1,
      "note": 68,
      "start": 21.6244,
      "duration": 0.0161,
      "velocity": 94,
      "chip": "ym2612"
    },
    {
      "channel": 0,
      "note": 72,
      "start": 21.6342,
      "duration": 0.0183,
      "velocity": 124,
      "chip": "ym2612"
    },
    {
      "channel": 5,
      "note": 71,
      "start": 21.6357,
      "duration": 0.0179,
      "velocity": 110,
      "chip": "ym2612"
    },
    {
      "channel": 4,
      "note": 75,
      "start": 21.6369,
      "duration": 0.0179,
      "velocity": 110,
      "chip": "ym2612"
    },
    {
      "channel": 3,
      "note": 68,
      "start": 21.6381,
      "duration": 0.018,
      "velocity": 94,
      "chip": "ym2612"
    },
    {
      "channel": 2,
      "note": 54,
      "start": 21.6393,
      "duration": 0.0179,
      "velocity": 100,
      "chip": "ym2612"
    },
    {
      "channel": 1,
      "note": 68,
      "start": 21.6405,
      "duration": 0.018,
      "velocity": 94,
      "chip": "ym2612"
    },
    {
      "channel": 0,
      "note": 84,
      "start": 21.6525,
      "duration": 0.0137,
      "velocity": 124,
      "chip": "ym2612"
    },
    {
      "channel": 5,
      "note": 71,
      "start": 21.6537,
      "duration": 0.0142,
      "velocity": 110,
      "chip": "ym2612"
    },
    {
      "channel": 4,
      "note": 75,
      "start": 21.6549,
      "duration": 0.0143,
      "velocity": 110,
      "chip": "ym2612"
    },
    {
      "channel": 3,
      "note": 68,
      "start": 21.6561,
      "duration": 0.0143,
      "velocity": 94,
      "chip": "ym2612"
    },
    {
      "channel": 2,
      "note": 54,
      "start": 21.6572,
      "duration": 0.0143,
      "velocity": 100,
      "chip": "ym2612"
    },
    {
      "channel": 1,
      "note": 68,
      "start": 21.6584,
      "duration": 0.0143,
      "velocity": 94,
      "chip": "ym2612"
    },
    {
      "channel": 0,
      "note": 82,
      "start": 21.6662,
      "duration": 0.0161,
      "velocity": 124,
      "chip": "ym2612"
    },
    {
      "channel": 3,
      "note": 68,
      "start": 21.6704,
      "duration": 0.016,
      "velocity": 94,
      "chip": "ym2612"
    },
    {
      "channel": 2,
      "note": 54,
      "start": 21.6715,
      "duration": 0.016,
      "velocity": 100,
      "chip": "ym2612"
    },
    {
      "channel": 1,
      "note": 68,
      "start": 21.6728,
      "duration": 0.016,
      "velocity": 94,
      "chip": "ym2612"
    },
    {
      "channel": 0,
      "note": 80,
      "start": 21.6823,
      "duration": 0.0161,
      "velocity": 124,
      "chip": "ym2612"
    },
    {
      "channel": 3,
      "note": 68,
      "start": 21.6864,
      "duration": 0.0161,
      "velocity": 94,
      "chip": "ym2612"
    },
    {
      "channel": 2,
      "note": 54,
      "start": 21.6876,
      "duration": 0.0161,
      "velocity": 100,
      "chip": "ym2612"
    },
    {
      "channel": 1,
      "note": 68,
      "start": 21.6888,
      "duration": 0.016,
      "velocity": 94,
      "chip": "ym2612"
    },
    {
      "channel": 0,
      "note": 77,
      "start": 21.6984,
      "duration": 0.0161,
      "velocity": 124,
      "chip": "ym2612"
    },
    {
      "channel": 3,
      "note": 68,
      "start": 21.7025,
      "duration": 0.0161,
      "velocity": 94,
      "chip": "ym2612"
    },
    {
      "channel": 2,
      "note": 54,
      "start": 21.7037,
      "duration": 0.0161,
      "velocity": 100,
      "chip": "ym2612"
    },
    {
      "channel": 1,
      "note": 68,
      "start": 21.7048,
      "duration": 0.0161,
      "velocity": 94,
      "chip": "ym2612"
    },
    {
      "channel": 0,
      "note": 75,
      "start": 21.7145,
      "duration": 0.0161,
      "velocity": 124,
      "chip": "ym2612"
    },
    {
      "channel": 3,
      "note": 68,
      "start": 21.7186,
      "duration": 0.016,
      "velocity": 94,
      "chip": "ym2612"
    },
    {
      "channel": 2,
      "note": 54,
      "start": 21.7198,
      "duration": 0.0161,
      "velocity": 100,
      "chip": "ym2612"
    },
    {
      "channel": 1,
      "note": 68,
      "start": 21.721,
      "duration": 0.0161,
      "velocity": 94,
      "chip": "ym2612"
    },
    {
      "channel": 0,
      "note": 72,
      "start": 21.7306,
      "duration": 0.0161,
      "velocity": 124,
      "chip": "ym2612"
    },
    {
      "channel": 3,
      "note": 68,
      "start": 21.7346,
      "duration": 0.0155,
      "velocity": 94,
      "chip": "ym2612"
    },
    {
      "channel": 2,
      "note": 54,
      "start": 21.7359,
      "duration": 0.0161,
      "velocity": 100,
      "chip": "ym2612"
    },
    {
      "channel": 1,
      "note": 68,
      "start": 21.7371,
      "duration": 0.016,
      "velocity": 94,
      "chip": "ym2612"
    },
    {
      "channel": 0,
      "note": 70,
      "start": 21.7467,
      "duration": 0.0179,
      "velocity": 115,
      "chip": "ym2612"
    },
    {
      "channel": 3,
      "note": 68,
      "start": 21.7502,
      "duration": 0.0193,
      "velocity": 94,
      "chip": "ym2612"
    },
    {
      "channel": 2,
      "note": 54,
      "start": 21.752,
      "duration": 0.0189,
      "velocity": 100,
      "chip": "ym2612"
    },
    {
      "channel": 1,
      "note": 68,
      "start": 21.7531,
      "duration": 0.019,
      "velocity": 94,
      "chip": "ym2612"
    },
    {
      "channel": 0,
      "note": 36,
      "start": 21.7646,
      "duration": 0.0143,
      "velocity": 115,
      "chip": "ym2612"
    },
    {
      "channel": 5,
      "note": 75,
      "start": 21.7661,
      "duration": 0.0141,
      "velocity": 110,
      "chip": "ym2612"
    },
    {
      "channel": 4,
      "note": 71,
      "start": 21.7682,
      "duration": 0.0132,
      "velocity": 110,
      "chip": "ym2612"
    },
    {
      "channel": 3,
      "note": 68,
      "start": 21.7695,
      "duration": 0.0132,
      "velocity": 94,
      "chip": "ym2612"
    },
    {
      "channel": 2,
      "note": 56,
      "start": 21.7709,
      "duration": 0.0131,
      "velocity": 100,
      "chip": "ym2612"
    },
    {
      "channel": 1,
      "note": 68,
      "start": 21.7721,
      "duration": 0.0135,
      "velocity": 94,
      "chip": "ym2612"
    },
    {
      "channel": 0,
      "note": 36,
      "start": 21.7789,
      "duration": 0.016,
      "velocity": 115,
      "chip": "ym2612"
    },
    {
      "channel": 5,
      "note": 75,
      "start": 21.7802,
      "duration": 0.016,
      "velocity": 110,
      "chip": "ym2612"
    },
    {
      "channel": 4,
      "note": 71,
      "start": 21.7814,
      "duration": 0.0159,
      "velocity": 110,
      "chip": "ym2612"
    },
    {
      "channel": 3,
      "note": 68,
      "start": 21.7826,
      "duration": 0.0159,
      "velocity": 94,
      "chip": "ym2612"
    },
    {
      "channel": 2,
      "note": 56,
      "start": 21.784,
      "duration": 0.0156,
      "velocity": 100,
      "chip": "ym2612"
    },
    {
      "channel": 1,
      "note": 68,
      "start": 21.7856,
      "duration": 0.0158,
      "velocity": 94,
      "chip": "ym2612"
    },
    {
      "channel": 0,
      "note": 37,
      "start": 21.795,
      "duration": 0.0161,
      "velocity": 115,
      "chip": "ym2612"
    },
    {
      "channel": 5,
      "note": 75,
      "start": 21.7962,
      "duration": 0.0161,
      "velocity": 110,
      "chip": "ym2612"
    },
    {
      "channel": 4,
      "note": 71,
      "start": 21.7973,
      "duration": 0.0161,
      "velocity": 110,
      "chip": "ym2612"
    },
    {
      "channel": 3,
      "note": 68,
      "start": 21.7985,
      "duration": 0.0161,
      "velocity": 94,
      "chip": "ym2612"
    },
    {
      "channel": 2,
      "note": 56,
      "start": 21.7997,
      "duration": 0.0162,
      "velocity": 100,
      "chip": "ym2612"
    },
    {
      "channel": 1,
      "note": 68,
      "start": 21.8014,
      "duration": 0.0159,
      "velocity": 94,
      "chip": "ym2612"
    },
    {
      "channel": 0,
      "note": 37,
      "start": 21.811,
      "duration": 0.0161,
      "velocity": 115,
      "chip": "ym2612"
    },
    {
      "channel": 5,
      "note": 75,
      "start": 21.8123,
      "duration": 0.0161,
      "velocity": 110,
      "chip": "ym2612"
    },
    {
      "channel": 4,
      "note": 71,
      "start": 21.8134,
      "duration": 0.0161,
      "velocity": 110,
      "chip": "ym2612"
    },
    {
      "channel": 3,
      "note": 68,
      "start": 21.8147,
      "duration": 0.016,
      "velocity": 94,
      "chip": "ym2612"
    },
    {
      "channel": 2,
      "note": 56,
      "start": 21.8158,
      "duration": 0.016,
      "velocity": 100,
      "chip": "ym2612"
    },
    {
      "channel": 1,
      "note": 68,
      "start": 21.8172,
      "duration": 0.0158,
      "velocity": 94,
      "chip": "ym2612"
    },
    {
      "channel": 0,
      "note": 38,
      "start": 21.8271,
      "duration": 0.0162,
      "velocity": 115,
      "chip": "ym2612"
    },
    {
      "channel": 5,
      "note": 75,
      "start": 21.8284,
      "duration": 0.0161,
      "velocity": 110,
      "chip": "ym2612"
    },
    {
      "channel": 4,
      "note": 71,
      "start": 21.8295,
      "duration": 0.0161,
      "velocity": 110,
      "chip": "ym2612"
    },
    {
      "channel": 3,
      "note": 68,
      "start": 21.8307,
      "duration": 0.0161,
      "velocity": 94,
      "chip": "ym2612"
    },
    {
      "channel": 2,
      "note": 56,
      "start": 21.8319,
      "duration": 0.0161,
      "velocity": 100,
      "chip": "ym2612"
    },
    {
      "channel": 1,
      "note": 68,
      "start": 21.8331,
      "duration": 0.0161,
      "velocity": 94,
      "chip": "ym2612"
    },
    {
      "channel": 0,
      "note": 38,
      "start": 21.8433,
      "duration": 0.0161,
      "velocity": 115,
      "chip": "ym2612"
    },
    {
      "channel": 5,
      "note": 75,
      "start": 21.8444,
      "duration": 0.0161,
      "velocity": 110,
      "chip": "ym2612"
    },
    {
      "channel": 4,
      "note": 71,
      "start": 21.8456,
      "duration": 0.0161,
      "velocity": 110,
      "chip": "ym2612"
    },
    {
      "channel": 3,
      "note": 68,
      "start": 21.8468,
      "duration": 0.0161,
      "velocity": 94,
      "chip": "ym2612"
    },
    {
      "channel": 2,
      "note": 56,
      "start": 21.848,
      "duration": 0.0161,
      "velocity": 100,
      "chip": "ym2612"
    },
    {
      "channel": 1,
      "note": 68,
      "start": 21.8492,
      "duration": 0.0161,
      "velocity": 94,
      "chip": "ym2612"
    },
    {
      "channel": 0,
      "note": 39,
      "start": 21.8594,
      "duration": 0.0161,
      "velocity": 115,
      "chip": "ym2612"
    },
    {
      "channel": 5,
      "note": 75,
      "start": 21.8605,
      "duration": 0.0161,
      "velocity": 110,
      "chip": "ym2612"
    },
    {
      "channel": 4,
      "note": 71,
      "start": 21.8617,
      "duration": 0.0161,
      "velocity": 110,
      "chip": "ym2612"
    },
    {
      "channel": 3,
      "note": 68,
      "start": 21.8629,
      "duration": 0.0161,
      "velocity": 94,
      "chip": "ym2612"
    },
    {
      "channel": 2,
      "note": 56,
      "start": 21.8641,
      "duration": 0.0161,
      "velocity": 100,
      "chip": "ym2612"
    },
    {
      "channel": 1,
      "note": 68,
      "start": 21.8653,
      "duration": 0.0161,
      "velocity": 94,
      "chip": "ym2612"
    },
    {
      "channel": 0,
      "note": 39,
      "start": 21.8755,
      "duration": 0.0161,
      "velocity": 115,
      "chip": "ym2612"
    },
    {
      "channel": 3,
      "note": 68,
      "start": 21.879,
      "duration": 0.016,
      "velocity": 94,
      "chip": "ym2612"
    },
    {
      "channel": 2,
      "note": 56,
      "start": 21.8802,
      "duration": 0.0161,
      "velocity": 100,
      "chip": "ym2612"
    },
    {
      "channel": 1,
      "note": 68,
      "start": 21.8814,
      "duration": 0.016,
      "velocity": 94,
      "chip": "ym2612"
    },
    {
      "channel": 0,
      "note": 40,
      "start": 21.8916,
      "duration": 0.0161,
      "velocity": 115,
      "chip": "ym2612"
    },
    {
      "channel": 3,
      "note": 68,
      "start": 21.8951,
      "duration": 0.0161,
      "velocity": 94,
      "chip": "ym2612"
    },
    {
      "channel": 2,
      "note": 56,
      "start": 21.8963,
      "duration": 0.0161,
      "velocity": 100,
      "chip": "ym2612"
    },
    {
      "channel": 1,
      "note": 68,
      "start": 21.8974,
      "duration": 0.0161,
      "velocity": 94,
      "chip": "ym2612"
    },
    {
      "channel": 0,
      "note": 40,
      "start": 21.9077,
      "duration": 0.0161,
      "velocity": 115,
      "chip": "ym2612"
    },
    {
      "channel": 3,
      "note": 68,
      "start": 21.9112,
      "duration": 0.0162,
      "velocity": 94,
      "chip": "ym2612"
    },
    {
      "channel": 2,
      "note": 56,
      "start": 21.9124,
      "duration": 0.0161,
      "velocity": 100,
      "chip": "ym2612"
    },
    {
      "channel": 1,
      "note": 68,
      "start": 21.9135,
      "duration": 0.0161,
      "velocity": 94,
      "chip": "ym2612"
    },
    {
      "channel": 0,
      "note": 40,
      "start": 21.9238,
      "duration": 0.0161,
      "velocity": 115,
      "chip": "ym2612"
    },
    {
      "channel": 3,
      "note": 68,
      "start": 21.9273,
      "duration": 0.0161,
      "velocity": 94,
      "chip": "ym2612"
    },
    {
      "channel": 2,
      "note": 56,
      "start": 21.9285,
      "duration": 0.0161,
      "velocity": 100,
      "chip": "ym2612"
    },
    {
      "channel": 0,
      "note": 41,
      "start": 21.9399,
      "duration": 0.0161,
      "velocity": 115,
      "chip": "ym2612"
    },
    {
      "channel": 3,
      "note": 68,
      "start": 21.9434,
      "duration": 0.0161,
      "velocity": 94,
      "chip": "ym2612"
    },
    {
      "channel": 2,
      "note": 56,
      "start": 21.9446,
      "duration": 0.0161,
      "velocity": 100,
      "chip": "ym2612"
    },
    {
      "channel": 0,
      "note": 41,
      "start": 21.956,
      "duration": 0.0161,
      "velocity": 115,
      "chip": "ym2612"
    },
    {
      "channel": 3,
      "note": 68,
      "start": 21.9595,
      "duration": 0.0171,
      "velocity": 94,
      "chip": "ym2612"
    },
    {
      "channel": 2,
      "note": 56,
      "start": 21.9607,
      "duration": 0.0171,
      "velocity": 100,
      "chip": "ym2612"
    },
    {
      "channel": 0,
      "note": 42,
      "start": 21.9721,
      "duration": 0.0161,
      "velocity": 115,
      "chip": "ym2612"
    },
    {
      "channel": 5,
      "note": 71,
      "start": 21.9738,
      "duration": 0.0156,
      "velocity": 110,
      "chip": "ym2612"
    },
    {
      "channel": 4,
      "note": 75,
      "start": 21.9754,
      "duration": 0.0152,
      "velocity": 110,
      "chip": "ym2612"
    },
    {
      "channel": 3,
      "note": 68,
      "start": 21.9766,
      "duration": 0.0152,
      "velocity": 94,
      "chip": "ym2612"
    },
    {
      "channel": 2,
      "note": 56,
      "start": 21.9778,
      "duration": 0.0152,
      "velocity": 100,
      "chip": "ym2612"
    },
    {
      "channel": 0,
      "note": 42,
      "start": 21.9882,
      "duration": 0.0161,
      "velocity": 115,
      "chip": "ym2612"
    },
    {
      "channel": 5,
      "note": 71,
      "start": 21.9894,
      "duration": 0.016,
      "velocity": 110,
      "chip": "ym2612"
    },
    {
      "channel": 4,
      "note": 75,
      "start": 21.9906,
      "duration": 0.016,
      "velocity": 110,
      "chip": "ym2612"
    },
    {
      "channel": 3,
      "note": 68,
      "start": 21.9918,
      "duration": 0.016,
      "velocity": 94,
      "chip": "ym2612"
    },
    {
      "channel": 2,
      "note": 56,
      "start": 21.993,
      "duration": 0.016,
      "velocity": 100,
      "chip": "ym2612"
    },
    {
      "channel": 0,
      "note": 43,
      "start": 22.0043,
      "duration": 0.0162,
      "velocity": 115,
      "chip": "ym2612"
    },
    {
      "channel": 5,
      "note": 71,
      "start": 22.0055,
      "duration": 0.0161,
      "velocity": 110,
      "chip": "ym2612"
    },
    {
      "channel": 4,
      "note": 75,
      "start": 22.0067,
      "duration": 0.0161,
      "velocity": 110,
      "chip": "ym2612"
    },
    {
      "channel": 3,
      "note": 68,
      "start": 22.0079,
      "duration": 0.0161,
      "velocity": 94,
      "chip": "ym2612"
    },
    {
      "channel": 2,
      "note": 56,
      "start": 22.009,
      "duration": 0.0161,
      "velocity": 100,
      "chip": "ym2612"
    },
    {
      "channel": 0,
      "note": 43,
      "start": 22.0205,
      "duration": 0.0161,
      "velocity": 115,
      "chip": "ym2612"
    },
    {
      "channel": 3,
      "note": 68,
      "start": 22.024,
      "duration": 0.0162,
      "velocity": 94,
      "chip": "ym2612"
    },
    {
      "channel": 2,
      "note": 56,
      "start": 22.0252,
      "duration": 0.0162,
      "velocity": 100,
      "chip": "ym2612"
    },
    {
      "channel": 0,
      "note": 44,
      "start": 22.0366,
      "duration": 0.0163,
      "velocity": 115,
      "chip": "ym2612"
    },
    {
      "channel": 3,
      "note": 68,
      "start": 22.0401,
      "duration": 0.0163,
      "velocity": 94,
      "chip": "ym2612"
    },
    {
      "channel": 2,
      "note": 56,
      "start": 22.0413,
      "duration": 0.0163,
      "velocity": 100,
      "chip": "ym2612"
    },
    {
      "channel": 0,
      "note": 44,
      "start": 22.053,
      "duration": 0.0181,
      "velocity": 115,
      "chip": "ym2612"
    },
    {
      "channel": 3,
      "note": 68,
      "start": 22.0565,
      "duration": 0.0188,
      "velocity": 94,
      "chip": "ym2612"
    },
    {
      "channel": 2,
      "note": 56,
      "start": 22.0577,
      "duration": 0.0191,
      "velocity": 100,
      "chip": "ym2612"
    },
    {
      "channel": 0,
      "note": 36,
      "start": 22.0712,
      "duration": 0.0142,
      "velocity": 115,
      "chip": "ym2612"
    },
    {
      "channel": 5,
      "note": 71,
      "start": 22.0726,
      "duration": 0.0141,
      "velocity": 110,
      "chip": "ym2612"
    },
    {
      "channel": 4,
      "note": 75,
      "start": 22.0741,
      "duration": 0.0138,
      "velocity": 110,
      "chip": "ym2612"
    },
    {
      "channel": 3,
      "note": 68,
      "start": 22.0753,
      "duration": 0.0138,
      "velocity": 94,
      "chip": "ym2612"
    },
    {
      "channel": 2,
      "note": 56,
      "start": 22.0768,
      "duration": 0.0136,
      "velocity": 100,
      "chip": "ym2612"
    },
    {
      "channel": 0,
      "note": 36,
      "start": 22.0854,
      "duration": 0.016,
      "velocity": 115,
      "chip": "ym2612"
    },
    {
      "channel": 5,
      "note": 71,
      "start": 22.0867,
      "duration": 0.016,
      "velocity": 110,
      "chip": "ym2612"
    },
    {
      "channel": 4,
      "note": 75,
      "start": 22.0879,
      "duration": 0.016,
      "velocity": 110,
      "chip": "ym2612"
    },
    {
      "channel": 3,
      "note": 68,
      "start": 22.0891,
      "duration": 0.0159,
      "velocity": 94,
      "chip": "ym2612"
    },
    {
      "channel": 2,
      "note": 56,
      "start": 22.0903,
      "duration": 0.0159,
      "velocity": 100,
      "chip": "ym2612"
    },
    {
      "channel": 0,
      "note": 37,
      "start": 22.1015,
      "duration": 0.0155,
      "velocity": 115,
      "chip": "ym2612"
    },
    {
      "channel": 5,
      "note": 71,
      "start": 22.1027,
      "duration": 0.0161,
      "velocity": 110,
      "chip": "ym2612"
    },
    {
      "channel": 4,
      "note": 75,
      "start": 22.1039,
      "duration": 0.0161,
      "velocity": 110,
      "chip": "ym2612"
    },
    {
      "channel": 3,
      "note": 68,
      "start": 22.105,
      "duration": 0.0161,
      "velocity": 94,
      "chip": "ym2612"
    },
    {
      "channel": 2,
      "note": 56,
      "start": 22.1062,
      "duration": 0.0161,
      "velocity": 100,
      "chip": "ym2612"
    },
    {
      "channel": 0,
      "note": 37,
      "start": 22.117,
      "duration": 0.0161,
      "velocity": 115,
      "chip": "ym2612"
    },
    {
      "channel": 5,
      "note": 71,
      "start": 22.1188,
      "duration": 0.016,
      "velocity": 110,
      "chip": "ym2612"
    },
    {
      "channel": 4,
      "note": 75,
      "start": 22.12,
      "duration": 0.0161,
      "velocity": 110,
      "chip": "ym2612"
    },
    {
      "channel": 3,
      "note": 68,
      "start": 22.1211,
      "duration": 0.0161,
      "velocity": 94,
      "chip": "ym2612"
    },
    {
      "channel": 2,
      "note": 56,
      "start": 22.1223,
      "duration": 0.0161,
      "velocity": 100,
      "chip": "ym2612"
    },
    {
      "channel": 0,
      "note": 38,
      "start": 22.1331,
      "duration": 0.0162,
      "velocity": 115,
      "chip": "ym2612"
    },
    {
      "channel": 3,
      "note": 68,
      "start": 22.1373,
      "duration": 0.0161,
      "velocity": 94,
      "chip": "ym2612"
    },
    {
      "channel": 2,
      "note": 56,
      "start": 22.1384,
      "duration": 0.0161,
      "velocity": 100,
      "chip": "ym2612"
    },
    {
      "channel": 0,
      "note": 38,
      "start": 22.1492,
      "duration": 0.0161,
      "velocity": 115,
      "chip": "ym2612"
    },
    {
      "channel": 3,
      "note": 68,
      "start": 22.1534,
      "duration": 0.0161,
      "velocity": 94,
      "chip": "ym2612"
    },
    {
      "channel": 2,
      "note": 56,
      "start": 22.1545,
      "duration": 0.0161,
      "velocity": 100,
      "chip": "ym2612"
    },
    {
      "channel": 0,
      "note": 39,
      "start": 22.1653,
      "duration": 0.0179,
      "velocity": 124,
      "chip": "ym2612"
    },
    {
      "channel": 3,
      "note": 68,
      "start": 22.1695,
      "duration": 0.0186,
      "velocity": 94,
      "chip": "ym2612"
    },
    {
      "channel": 2,
      "note": 56,
      "start": 22.1706,
      "duration": 0.0187,
      "velocity": 100,
      "chip": "ym2612"
    },
    {
      "channel": 0,
      "note": 84,
      "start": 22.1833,
      "duration": 0.0143,
      "velocity": 124,
      "chip": "ym2612"
    },
    {
      "channel": 5,
      "note": 75,
      "start": 22.1854,
      "duration": 0.0134,
      "velocity": 110,
      "chip": "ym2612"
    },
    {
      "channel": 4,
      "note": 71,
      "start": 22.1869,
      "duration": 0.0132,
      "velocity": 110,
      "chip": "ym2612"
    },
    {
      "channel": 3,
      "note": 68,
      "start": 22.1881,
      "duration": 0.0137,
      "velocity": 94,
      "chip": "ym2612"
    },
    {
      "channel": 2,
      "note": 56,
      "start": 22.1893,
      "duration": 0.0137,
      "velocity": 100,
      "chip": "ym2612"
    },
    {
      "channel": 1,
      "note": 68,
      "start": 22.1908,
      "duration": 0.0135,
      "velocity": 94,
      "chip": "ym2612"
    },
    {
      "channel": 0,
      "note": 82,
      "start": 22.1976,
      "duration": 0.016,
      "velocity": 124,
      "chip": "ym2612"
    },
    {
      "channel": 5,
      "note": 75,
      "start": 22.1988,
      "duration": 0.016,
      "velocity": 110,
      "chip": "ym2612"
    },
    {
      "channel": 4,
      "note": 71,
      "start": 22.2,
      "duration": 0.0159,
      "velocity": 110,
      "chip": "ym2612"
    },
    {
      "channel": 3,
      "note": 68,
      "start": 22.2018,
      "duration": 0.0156,
      "velocity": 94,
      "chip": "ym2612"
    },
    {
      "channel": 2,
      "note": 56,
      "start": 22.203,
      "duration": 0.0159,
      "velocity": 100,
      "chip": "ym2612"
    },
    {
      "channel": 1,
      "note": 68,
      "start": 22.2042,
      "duration": 0.0159,
      "velocity": 94,
      "chip": "ym2612"
    },
    {
      "channel": 0,
      "note": 80,
      "start": 22.2136,
      "duration": 0.0161,
      "velocity": 124,
      "chip": "ym2612"
    },
    {
      "channel": 5,
      "note": 75,
      "start": 22.2148,
      "duration": 0.0161,
      "velocity": 110,
      "chip": "ym2612"
    },
    {
      "channel": 4,
      "note": 71,
      "start": 22.2159,
      "duration": 0.0161,
      "velocity": 110,
      "chip": "ym2612"
    },
    {
      "channel": 3,
      "note": 68,
      "start": 22.2173,
      "duration": 0.0159,
      "velocity": 94,
      "chip": "ym2612"
    },
    {
      "channel": 2,
      "note": 56,
      "start": 22.2189,
      "duration": 0.016,
      "velocity": 100,
      "chip": "ym2612"
    },
    {
      "channel": 1,
      "note": 68,
      "start": 22.2202,
      "duration": 0.016,
      "velocity": 94,
      "chip": "ym2612"
    },
    {
      "channel": 0,
      "note": 77,
      "start": 22.2297,
      "duration": 0.0161,
      "velocity": 124,
      "chip": "ym2612"
    },
    {
      "channel": 3,
      "note": 68,
      "start": 22.2333,
      "duration": 0.0161,
      "velocity": 94,
      "chip": "ym2612"
    },
    {
      "channel": 2,
      "note": 56,
      "start": 22.235,
      "duration": 0.0158,
      "velocity": 100,
      "chip": "ym2612"
    },
    {
      "channel": 1,
      "note": 68,
      "start": 22.2362,
      "duration": 0.0161,
      "velocity": 94,
      "chip": "ym2612"
    },
    {
      "channel": 0,
      "note": 75,
      "start": 22.2458,
      "duration": 0.0161,
      "velocity": 124,
      "chip": "ym2612"
    },
    {
      "channel": 2,
      "note": 56,
      "start": 22.2507,
      "duration": 0.0159,
      "velocity": 100,
      "chip": "ym2612"
    },
    {
      "channel": 1,
      "note": 68,
      "start": 22.2523,
      "duration": 0.016,
      "velocity": 94,
      "chip": "ym2612"
    },
    {
      "channel": 0,
      "note": 72,
      "start": 22.2619,
      "duration": 0.0161,
      "velocity": 124,
      "chip": "ym2612"
    },
    {
      "channel": 2,
      "note": 56,
      "start": 22.2666,
      "duration": 0.0169,
      "velocity": 100,
      "chip": "ym2612"
    },
    {
      "channel": 1,
      "note": 68,
      "start": 22.2683,
      "duration": 0.017,
      "velocity": 94,
      "chip": "ym2612"
    },
    {
      "channel": 0,
      "note": 70,
      "start": 22.278,
      "duration": 0.0161,
      "velocity": 124,
      "chip": "ym2612"
    },
    {
      "channel": 5,
      "note": 75,
      "start": 22.2795,
      "duration": 0.0159,
      "velocity": 110,
      "chip": "ym2612"
    },
    {
      "channel": 4,
      "note": 71,
      "start": 22.281,
      "duration": 0.0156,
      "velocity": 110,
      "chip": "ym2612"
    },
    {
      "channel": 2,
      "note": 56,
      "start": 22.2835,
      "duration": 0.0156,
      "velocity": 100,
      "chip": "ym2612"
    },
    {
      "channel": 1,
      "note": 68,
      "start": 22.2853,
      "duration": 0.015,
      "velocity": 94,
      "chip": "ym2612"
    },
    {
      "channel": 0,
      "note": 68,
      "start": 22.2941,
      "duration": 0.0161,
      "velocity": 124,
      "chip": "ym2612"
    },
    {
      "channel": 5,
      "note": 75,
      "start": 22.2954,
      "duration": 0.016,
      "velocity": 110,
      "chip": "ym2612"
    },
    {
      "channel": 4,
      "note": 71,
      "start": 22.2966,
      "duration": 0.016,
      "velocity": 110,
      "chip": "ym2612"
    },
    {
      "channel": 2,
      "note": 56,
      "start": 22.2991,
      "duration": 0.0159,
      "velocity": 100,
      "chip": "ym2612"
    },
    {
      "channel": 1,
      "note": 68,
      "start": 22.3002,
      "duration": 0.0159,
      "velocity": 94,
      "chip": "ym2612"
    },
    {
      "channel": 0,
      "note": 65,
      "start": 22.3102,
      "duration": 0.0161,
      "velocity": 124,
      "chip": "ym2612"
    },
    {
      "channel": 5,
      "note": 75,
      "start": 22.3114,
      "duration": 0.0161,
      "velocity": 110,
      "chip": "ym2612"
    },
    {
      "channel": 4,
      "note": 71,
      "start": 22.3126,
      "duration": 0.0161,
      "velocity": 110,
      "chip": "ym2612"
    },
    {
      "channel": 2,
      "note": 56,
      "start": 22.315,
      "duration": 0.0161,
      "velocity": 100,
      "chip": "ym2612"
    },
    {
      "channel": 1,
      "note": 68,
      "start": 22.3161,
      "duration": 0.0161,
      "velocity": 94,
      "chip": "ym2612"
    },
    {
      "channel": 0,
      "note": 63,
      "start": 22.3263,
      "duration": 0.0153,
      "velocity": 1,
      "chip": "ym2612"
    },
    {
      "channel": 5,
      "note": 75,
      "start": 22.3275,
      "duration": 0.0153,
      "velocity": 110,
      "chip": "ym2612"
    },
    {
      "channel": 4,
      "note": 71,
      "start": 22.3287,
      "duration": 0.0153,
      "velocity": 110,
      "chip": "ym2612"
    },
    {
      "channel": 2,
      "note": 56,
      "start": 22.3311,
      "duration": 0.0153,
      "velocity": 100,
      "chip": "ym2612"
    },
    {
      "channel": 1,
      "note": 68,
      "start": 22.3322,
      "duration": 0.0153,
      "velocity": 94,
      "chip": "ym2612"
    },
    {
      "channel": 2,
      "note": 56,
      "start": 22.3463,
      "duration": 0.0153,
      "velocity": 100,
      "chip": "ym2612"
    },
    {
      "channel": 1,
      "note": 68,
      "start": 22.3476,
      "duration": 0.0152,
      "velocity": 94,
      "chip": "ym2612"
    },
    {
      "channel": 2,
      "note": 56,
      "start": 22.3616,
      "duration": 0.0161,
      "velocity": 100,
      "chip": "ym2612"
    },
    {
      "channel": 1,
      "note": 68,
      "start": 22.3628,
      "duration": 0.0161,
      "velocity": 94,
      "chip": "ym2612"
    },
    {
      "channel": 2,
      "note": 56,
      "start": 22.3777,
      "duration": 0.0206,
      "velocity": 100,
      "chip": "ym2612"
    },
    {
      "channel": 1,
      "note": 68,
      "start": 22.3789,
      "duration": 0.0207,
      "velocity": 94,
      "chip": "ym2612"
    },
    {
      "channel": 0,
      "note": 36,
      "start": 22.3926,
      "duration": 0.0142,
      "velocity": 115,
      "chip": "ym2612"
    },
    {
      "channel": 5,
      "note": 71,
      "start": 22.3941,
      "duration": 0.014,
      "velocity": 110,
      "chip": "ym2612"
    },
    {
      "channel": 4,
      "note": 75,
      "start": 22.3957,
      "duration": 0.0136,
      "velocity": 110,
      "chip": "ym2612"
    },
    {
      "channel": 2,
      "note": 51,
      "start": 22.3983,
      "duration": 0.0134,
      "velocity": 100,
      "chip": "ym2612"
    },
    {
      "channel": 1,
      "note": 68,
      "start": 22.3995,
      "duration": 0.0134,
      "velocity": 94,
      "chip": "ym2612"
    },
    {
      "channel": 0,
      "note": 36,
      "start": 22.4068,
      "duration": 0.016,
      "velocity": 115,
      "chip": "ym2612"
    },
    {
      "channel": 5,
      "note": 71,
      "start": 22.4081,
      "duration": 0.016,
      "velocity": 110,
      "chip": "ym2612"
    },
    {
      "channel": 4,
      "note": 75,
      "start": 22.4093,
      "duration": 0.0159,
      "velocity": 110,
      "chip": "ym2612"
    },
    {
      "channel": 2,
      "note": 51,
      "start": 22.4117,
      "duration": 0.0159,
      "velocity": 100,
      "chip": "ym2612"
    },
    {
      "channel": 1,
      "note": 68,
      "start": 22.4129,
      "duration": 0.0159,
      "velocity": 94,
      "chip": "ym2612"
    },
    {
      "channel": 0,
      "note": 37,
      "start": 22.4229,
      "duration": 0.0162,
      "velocity": 115,
      "chip": "ym2612"
    },
    {
      "channel": 5,
      "note": 71,
      "start": 22.4241,
      "duration": 0.0161,
      "velocity": 110,
      "chip": "ym2612"
    },
    {
      "channel": 4,
      "note": 75,
      "start": 22.4252,
      "duration": 0.0161,
      "velocity": 110,
      "chip": "ym2612"
    },
    {
      "channel": 2,
      "note": 51,
      "start": 22.4276,
      "duration": 0.0161,
      "velocity": 100,
      "chip": "ym2612"
    },
    {
      "channel": 1,
      "note": 68,
      "start": 22.4288,
      "duration": 0.0161,
      "velocity": 94,
      "chip": "ym2612"
    },
    {
      "channel": 0,
      "note": 37,
      "start": 22.439,
      "duration": 0.0161,
      "velocity": 115,
      "chip": "ym2612"
    },
    {
      "channel": 5,
      "note": 71,
      "start": 22.4402,
      "duration": 0.0161,
      "velocity": 110,
      "chip": "ym2612"
    },
    {
      "channel": 4,
      "note": 75,
      "start": 22.4413,
      "duration": 0.0161,
      "velocity": 110,
      "chip": "ym2612"
    },
    {
      "channel": 2,
      "note": 51,
      "start": 22.4437,
      "duration": 0.0161,
      "velocity": 100,
      "chip": "ym2612"
    },
    {
      "channel": 1,
      "note": 68,
      "start": 22.4449,
      "duration": 0.0161,
      "velocity": 94,
      "chip": "ym2612"
    },
    {
      "channel": 0,
      "note": 38,
      "start": 22.4551,
      "duration": 0.0161,
      "velocity": 115,
      "chip": "ym2612"
    },
    {
      "channel": 5,
      "note": 71,
      "start": 22.4563,
      "duration": 0.0161,
      "velocity": 110,
      "chip": "ym2612"
    },
    {
      "channel": 4,
      "note": 75,
      "start": 22.4575,
      "duration": 0.0161,
      "velocity": 110,
      "chip": "ym2612"
    },
    {
      "channel": 2,
      "note": 51,
      "start": 22.4598,
      "duration": 0.0161,
      "velocity": 100,
      "chip": "ym2612"
    },
    {
      "channel": 1,
      "note": 68,
      "start": 22.461,
      "duration": 0.0161,
      "velocity": 94,
      "chip": "ym2612"
    },
    {
      "channel": 0,
      "note": 38,
      "start": 22.4712,
      "duration": 0.0179,
      "velocity": 115,
      "chip": "ym2612"
    },
    {
      "channel": 5,
      "note": 71,
      "start": 22.4724,
      "duration": 0.018,
      "velocity": 110,
      "chip": "ym2612"
    },
    {
      "channel": 4,
      "note": 75,
      "start": 22.4736,
      "duration": 0.0179,
      "velocity": 110,
      "chip": "ym2612"
    },
    {
      "channel": 2,
      "note": 51,
      "start": 22.4759,
      "duration": 0.0182,
      "velocity": 100,
      "chip": "ym2612"
    },
    {
      "channel": 1,
      "note": 68,
      "start": 22.4771,
      "duration": 0.0183,
      "velocity": 94,
      "chip": "ym2612"
    },
    {
      "channel": 0,
      "note": 36,
      "start": 22.4892,
      "duration": 0.0144,
      "velocity": 115,
      "chip": "ym2612"
    },
    {
      "channel": 5,
      "note": 71,
      "start": 22.4904,
      "duration": 0.0143,
      "velocity": 110,
      "chip": "ym2612"
    },
    {
      "channel": 4,
      "note": 75,
      "start": 22.4915,
      "duration": 0.0144,
      "velocity": 110,
      "chip": "ym2612"
    },
    {
      "channel": 2,
      "note": 54,
      "start": 22.4942,
      "duration": 0.0144,
      "velocity": 100,
      "chip": "ym2612"
    },
    {
      "channel": 1,
      "note": 68,
      "start": 22.4954,
      "duration": 0.0144,
      "velocity": 94,
      "chip": "ym2612"
    },
    {
      "channel": 0,
      "note": 36,
      "start": 22.5035,
      "duration": 0.0163,
      "velocity": 115,
      "chip": "ym2612"
    },
    {
      "channel": 3,
      "note": 68,
      "start": 22.5074,
      "duration": 0.0161,
      "velocity": 94,
      "chip": "ym2612"
    },
    {
      "channel": 2,
      "note": 54,
      "start": 22.5086,
      "duration": 0.016,
      "velocity": 100,
      "chip": "ym2612"
    },
    {
      "channel": 1,
      "note": 68,
      "start": 22.5098,
      "duration": 0.016,
      "velocity": 94,
      "chip": "ym2612"
    },
    {
      "channel": 0,
      "note": 37,
      "start": 22.5199,
      "duration": 0.0163,
      "velocity": 115,
      "chip": "ym2612"
    },
    {
      "channel": 3,
      "note": 68,
      "start": 22.5235,
      "duration": 0.0162,
      "velocity": 94,
      "chip": "ym2612"
    },
    {
      "channel": 2,
      "note": 54,
      "start": 22.5247,
      "duration": 0.0162,
      "velocity": 100,
      "chip": "ym2612"
    },
    {
      "channel": 1,
      "note": 68,
      "start": 22.5258,
      "duration": 0.0162,
      "velocity": 94,
      "chip": "ym2612"
    },
    {
      "channel": 0,
      "note": 37,
      "start": 22.5362,
      "duration": 0.0161,
      "velocity": 115,
      "chip": "ym2612"
    },
    {
      "channel": 3,
      "note": 68,
      "start": 22.5398,
      "duration": 0.0161,
      "velocity": 94,
      "chip": "ym2612"
    },
    {
      "channel": 2,
      "note": 54,
      "start": 22.5409,
      "duration": 0.0161,
      "velocity": 100,
      "chip": "ym2612"
    },
    {
      "channel": 1,
      "note": 68,
      "start": 22.542,
      "duration": 0.0161,
      "velocity": 94,
      "chip": "ym2612"
    },
    {
      "channel": 0,
      "note": 38,
      "start": 22.5523,
      "duration": 0.016,
      "velocity": 115,
      "chip": "ym2612"
    },
    {
      "channel": 3,
      "note": 68,
      "start": 22.5558,
      "duration": 0.0161,
      "velocity": 94,
      "chip": "ym2612"
    },
    {
      "channel": 2,
      "note": 54,
      "start": 22.557,
      "duration": 0.0161,
      "velocity": 100,
      "chip": "ym2612"
    },
    {
      "channel": 0,
      "note": 38,
      "start": 22.5684,
      "duration": 0.0158,
      "velocity": 115,
      "chip": "ym2612"
    },
    {
      "channel": 3,
      "note": 68,
      "start": 22.5719,
      "duration": 0.0161,
      "velocity": 94,
      "chip": "ym2612"
    },
    {
      "channel": 2,
      "note": 54,
      "start": 22.5731,
      "duration": 0.0161,
      "velocity": 100,
      "chip": "ym2612"
    },
    {
      "channel": 0,
      "note": 39,
      "start": 22.5841,
      "duration": 0.0183,
      "velocity": 127,
      "chip": "ym2612"
    },
    {
      "channel": 3,
      "note": 68,
      "start": 22.588,
      "duration": 0.0186,
      "velocity": 94,
      "chip": "ym2612"
    },
    {
      "channel": 2,
      "note": 54,
      "start": 22.5892,
      "duration": 0.019,
      "velocity": 100,
      "chip": "ym2612"
    },
    {
      "channel": 0,
      "note": 88,
      "start": 22.6025,
      "duration": 0.0137,
      "velocity": 127,
      "chip": "ym2612"
    },
    {
      "channel": 5,
      "note": 75,
      "start": 22.604,
      "duration": 0.0136,
      "velocity": 110,
      "chip": "ym2612"
    },
    {
      "channel": 4,
      "note": 71,
      "start": 22.6055,
      "duration": 0.0137,
      "velocity": 110,
      "chip": "ym2612"
    },
    {
      "channel": 3,
      "note": 68,
      "start": 22.6067,
      "duration": 0.0138,
      "velocity": 94,
      "chip": "ym2612"
    },
    {
      "channel": 2,
      "note": 56,
      "start": 22.6081,
      "duration": 0.0136,
      "velocity": 100,
      "chip": "ym2612"
    },
    {
      "channel": 1,
      "note": 66,
      "start": 22.6096,
      "duration": 0.0133,
      "velocity": 94,
      "chip": "ym2612"
    },
    {
      "channel": 0,
      "note": 86,
      "start": 22.6162,
      "duration": 0.016,
      "velocity": 127,
      "chip": "ym2612"
    },
    {
      "channel": 5,
      "note": 75,
      "start": 22.6176,
      "duration": 0.0158,
      "velocity": 110,
      "chip": "ym2612"
    },
    {
      "channel": 4,
      "note": 71,
      "start": 22.6193,
      "duration": 0.0159,
      "velocity": 110,
      "chip": "ym2612"
    },
    {
      "channel": 3,
      "note": 68,
      "start": 22.6205,
      "duration": 0.0158,
      "velocity": 94,
      "chip": "ym2612"
    },
    {
      "channel": 2,
      "note": 56,
      "start": 22.6217,
      "duration": 0.0158,
      "velocity": 100,
      "chip": "ym2612"
    },
    {
      "channel": 1,
      "note": 66,
      "start": 22.6229,
      "duration": 0.0158,
      "velocity": 94,
      "chip": "ym2612"
    },
    {
      "channel": 0,
      "note": 85,
      "start": 22.6322,
      "duration": 0.0161,
      "velocity": 127,
      "chip": "ym2612"
    },
    {
      "channel": 5,
      "note": 75,
      "start": 22.6334,
      "duration": 0.0161,
      "velocity": 110,
      "chip": "ym2612"
    },
    {
      "channel": 4,
      "note": 71,
      "start": 22.6351,
      "duration": 0.0158,
      "velocity": 110,
      "chip": "ym2612"
    },
    {
      "channel": 3,
      "note": 68,
      "start": 22.6363,
      "duration": 0.0161,
      "velocity": 94,
      "chip": "ym2612"
    },
    {
      "channel": 2,
      "note": 56,
      "start": 22.6375,
      "duration": 0.0161,
      "velocity": 100,
      "chip": "ym2612"
    },
    {
      "channel": 1,
      "note": 66,
      "start": 22.6387,
      "duration": 0.0161,
      "velocity": 94,
      "chip": "ym2612"
    },
    {
      "channel": 0,
      "note": 83,
      "start": 22.6483,
      "duration": 0.0161,
      "velocity": 127,
      "chip": "ym2612"
    },
    {
      "channel": 5,
      "note": 75,
      "start": 22.6495,
      "duration": 0.0161,
      "velocity": 110,
      "chip": "ym2612"
    },
    {
      "channel": 4,
      "note": 71,
      "start": 22.6509,
      "duration": 0.0159,
      "velocity": 110,
      "chip": "ym2612"
    },
    {
      "channel": 3,
      "note": 68,
      "start": 22.6524,
      "duration": 0.0161,
      "velocity": 94,
      "chip": "ym2612"
    },
    {
      "channel": 2,
      "note": 56,
      "start": 22.6536,
      "duration": 0.0161,
      "velocity": 100,
      "chip": "ym2612"
    },
    {
      "channel": 1,
      "note": 66,
      "start": 22.6548,
      "duration": 0.0161,
      "velocity": 94,
      "chip": "ym2612"
    },
    {
      "channel": 0,
      "note": 81,
      "start": 22.6644,
      "duration": 0.0161,
      "velocity": 127,
      "chip": "ym2612"
    },
    {
      "channel": 5,
      "note": 75,
      "start": 22.6656,
      "duration": 0.0161,
      "velocity": 110,
      "chip": "ym2612"
    },
    {
      "channel": 4,
      "note": 71,
      "start": 22.6668,
      "duration": 0.0161,
      "velocity": 110,
      "chip": "ym2612"
    },
    {
      "channel": 3,
      "note": 68,
      "start": 22.6685,
      "duration": 0.0158,
      "velocity": 94,
      "chip": "ym2612"
    },
    {
      "channel": 2,
      "note": 56,
      "start": 22.6697,
      "duration": 0.0161,
      "velocity": 100,
      "chip": "ym2612"
    },
    {
      "channel": 1,
      "note": 66,
      "start": 22.6709,
      "duration": 0.016,
      "velocity": 94,
      "chip": "ym2612"
    },
    {
      "channel": 0,
      "note": 80,
      "start": 22.6805,
      "duration": 0.0179,
      "velocity": 127,
      "chip": "ym2612"
    },
    {
      "channel": 5,
      "note": 75,
      "start": 22.6817,
      "duration": 0.0179,
      "velocity": 110,
      "chip": "ym2612"
    },
    {
      "channel": 4,
      "note": 71,
      "start": 22.6829,
      "duration": 0.0185,
      "velocity": 110,
      "chip": "ym2612"
    },
    {
      "channel": 3,
      "note": 68,
      "start": 22.6843,
      "duration": 0.0184,
      "velocity": 94,
      "chip": "ym2612"
    },
    {
      "channel": 2,
      "note": 56,
      "start": 22.6858,
      "duration": 0.0183,
      "velocity": 100,
      "chip": "ym2612"
    },
    {
      "channel": 1,
      "note": 66,
      "start": 22.6869,
      "duration": 0.0183,
      "velocity": 94,
      "chip": "ym2612"
    },
    {
      "channel": 0,
      "note": 88,
      "start": 22.6985,
      "duration": 0.0142,
      "velocity": 127,
      "chip": "ym2612"
    },
    {
      "channel": 5,
      "note": 75,
      "start": 22.6997,
      "duration": 0.0143,
      "velocity": 110,
      "chip": "ym2612"
    },
    {
      "channel": 4,
      "note": 71,
      "start": 22.7014,
      "duration": 0.0137,
      "velocity": 110,
      "chip": "ym2612"
    },
    {
      "channel": 3,
      "note": 68,
      "start": 22.7027,
      "duration": 0.0137,
      "velocity": 94,
      "chip": "ym2612"
    },
    {
      "channel": 2,
      "note": 68,
      "start": 22.7041,
      "duration": 0.0141,
      "velocity": 100,
      "chip": "ym2612"
    },
    {
      "channel": 1,
      "note": 66,
      "start": 22.7053,
      "duration": 0.0141,
      "velocity": 94,
      "chip": "ym2612"
    },
    {
      "channel": 0,
      "note": 86,
      "start": 22.7128,
      "duration": 0.016,
      "velocity": 127,
      "chip": "ym2612"
    },
    {
      "channel": 3,
      "note": 68,
      "start": 22.7163,
      "duration": 0.016,
      "velocity": 94,
      "chip": "ym2612"
    },
    {
      "channel": 2,
      "note": 68,
      "start": 22.7181,
      "duration": 0.0154,
      "velocity": 100,
      "chip": "ym2612"
    },
    {
      "channel": 1,
      "note": 66,
      "start": 22.7193,
      "duration": 0.0159,
      "velocity": 94,
      "chip": "ym2612"
    },
    {
      "channel": 0,
      "note": 85,
      "start": 22.7288,
      "duration": 0.0161,
      "velocity": 127,
      "chip": "ym2612"
    },
    {
      "channel": 3,
      "note": 68,
      "start": 22.7324,
      "duration": 0.0161,
      "velocity": 94,
      "chip": "ym2612"
    },
    {
      "channel": 2,
      "note": 68,
      "start": 22.7335,
      "duration": 0.0161,
      "velocity": 100,
      "chip": "ym2612"
    },
    {
      "channel": 1,
      "note": 66,
      "start": 22.7352,
      "duration": 0.0158,
      "velocity": 94,
      "chip": "ym2612"
    },
    {
      "channel": 0,
      "note": 83,
      "start": 22.7449,
      "duration": 0.0161,
      "velocity": 127,
      "chip": "ym2612"
    },
    {
      "channel": 3,
      "note": 68,
      "start": 22.7485,
      "duration": 0.0161,
      "velocity": 94,
      "chip": "ym2612"
    },
    {
      "channel": 2,
      "note": 68,
      "start": 22.7496,
      "duration": 0.0161,
      "velocity": 100,
      "chip": "ym2612"
    },
    {
      "channel": 1,
      "note": 66,
      "start": 22.7509,
      "duration": 0.016,
      "velocity": 94,
      "chip": "ym2612"
    },
    {
      "channel": 0,
      "note": 81,
      "start": 22.761,
      "duration": 0.0161,
      "velocity": 127,
      "chip": "ym2612"
    },
    {
      "channel": 3,
      "note": 68,
      "start": 22.7646,
      "duration": 0.0161,
      "velocity": 94,
      "chip": "ym2612"
    },
    {
      "channel": 2,
      "note": 68,
      "start": 22.7657,
      "duration": 0.0161,
      "velocity": 100,
      "chip": "ym2612"
    },
    {
      "channel": 1,
      "note": 66,
      "start": 22.7669,
      "duration": 0.0161,
      "velocity": 94,
      "chip": "ym2612"
    },
    {
      "channel": 0,
      "note": 80,
      "start": 22.7771,
      "duration": 0.0161,
      "velocity": 127,
      "chip": "ym2612"
    },
    {
      "channel": 3,
      "note": 68,
      "start": 22.7807,
      "duration": 0.0161,
      "velocity": 94,
      "chip": "ym2612"
    },
    {
      "channel": 2,
      "note": 68,
      "start": 22.7818,
      "duration": 0.0161,
      "velocity": 100,
      "chip": "ym2612"
    },
    {
      "channel": 1,
      "note": 66,
      "start": 22.783,
      "duration": 0.0161,
      "velocity": 94,
      "chip": "ym2612"
    },
    {
      "channel": 0,
      "note": 78,
      "start": 22.7932,
      "duration": 0.0161,
      "velocity": 127,
      "chip": "ym2612"
    },
    {
      "channel": 3,
      "note": 68,
      "start": 22.7967,
      "duration": 0.0169,
      "velocity": 94,
      "chip": "ym2612"
    },
    {
      "channel": 2,
      "note": 68,
      "start": 22.7979,
      "duration": 0.0172,
      "velocity": 100,
      "chip": "ym2612"
    },
    {
      "channel": 1,
      "note": 66,
      "start": 22.7991,
      "duration": 0.0172,
      "velocity": 94,
      "chip": "ym2612"
    },
    {
      "channel": 0,
      "note": 76,
      "start": 22.8093,
      "duration": 0.0161,
      "velocity": 127,
      "chip": "ym2612"
    },
    {
      "channel": 5,
      "note": 71,
      "start": 22.8109,
      "duration": 0.0158,
      "velocity": 110,
      "chip": "ym2612"
    },
    {
      "channel": 4,
      "note": 75,
      "start": 22.8125,
      "duration": 0.0154,
      "velocity": 110,
      "chip": "ym2612"
    },
    {
      "channel": 3,
      "note": 68,
      "start": 22.8137,
      "duration": 0.0155,
      "velocity": 94,
      "chip": "ym2612"
    },
    {
      "channel": 2,
      "note": 56,
      "start": 22.8151,
      "duration": 0.0152,
      "velocity": 100,
      "chip": "ym2612"
    },
    {
      "channel": 1,
      "note": 66,
      "start": 22.8163,
      "duration": 0.0152,
      "velocity": 94,
      "chip": "ym2612"
    },
    {
      "channel": 0,
      "note": 75,
      "start": 22.8254,
      "duration": 0.0161,
      "velocity": 127,
      "chip": "ym2612"
    },
    {
      "channel": 5,
      "note": 71,
      "start": 22.8267,
      "duration": 0.016,
      "velocity": 110,
      "chip": "ym2612"
    },
    {
      "channel": 4,
      "note": 75,
      "start": 22.8279,
      "duration": 0.016,
      "velocity": 110,
      "chip": "ym2612"
    },
    {
      "channel": 3,
      "note": 68,
      "start": 22.8291,
      "duration": 0.016,
      "velocity": 94,
      "chip": "ym2612"
    },
    {
      "channel": 2,
      "note": 56,
      "start": 22.8303,
      "duration": 0.0159,
      "velocity": 100,
      "chip": "ym2612"
    },
    {
      "channel": 1,
      "note": 66,
      "start": 22.8315,
      "duration": 0.0159,
      "velocity": 94,
      "chip": "ym2612"
    },
    {
      "channel": 0,
      "note": 73,
      "start": 22.8415,
      "duration": 0.0161,
      "velocity": 127,
      "chip": "ym2612"
    },
    {
      "channel": 5,
      "note": 71,
      "start": 22.8427,
      "duration": 0.0161,
      "velocity": 110,
      "chip": "ym2612"
    },
    {
      "channel": 4,
      "note": 75,
      "start": 22.8439,
      "duration": 0.0161,
      "velocity": 110,
      "chip": "ym2612"
    },
    {
      "channel": 3,
      "note": 68,
      "start": 22.8451,
      "duration": 0.0161,
      "velocity": 94,
      "chip": "ym2612"
    },
    {
      "channel": 2,
      "note": 56,
      "start": 22.8462,
      "duration": 0.0161,
      "velocity": 100,
      "chip": "ym2612"
    },
    {
      "channel": 1,
      "note": 66,
      "start": 22.8474,
      "duration": 0.0161,
      "velocity": 94,
      "chip": "ym2612"
    },
    {
      "channel": 0,
      "note": 71,
      "start": 22.8576,
      "duration": 0.0161,
      "velocity": 127,
      "chip": "ym2612"
    },
    {
      "channel": 5,
      "note": 71,
      "start": 22.8588,
      "duration": 0.0161,
      "velocity": 110,
      "chip": "ym2612"
    },
    {
      "channel": 4,
      "note": 75,
      "start": 22.86,
      "duration": 0.0161,
      "velocity": 110,
      "chip": "ym2612"
    },
    {
      "channel": 3,
      "note": 68,
      "start": 22.8612,
      "duration": 0.0161,
      "velocity": 94,
      "chip": "ym2612"
    },
    {
      "channel": 2,
      "note": 56,
      "start": 22.8623,
      "duration": 0.0161,
      "velocity": 100,
      "chip": "ym2612"
    },
    {
      "channel": 1,
      "note": 66,
      "start": 22.8635,
      "duration": 0.0161,
      "velocity": 94,
      "chip": "ym2612"
    },
    {
      "channel": 0,
      "note": 69,
      "start": 22.8737,
      "duration": 0.0161,
      "velocity": 127,
      "chip": "ym2612"
    },
    {
      "channel": 5,
      "note": 71,
      "start": 22.8749,
      "duration": 0.0161,
      "velocity": 110,
      "chip": "ym2612"
    },
    {
      "channel": 4,
      "note": 75,
      "start": 22.8761,
      "duration": 0.0161,
      "velocity": 110,
      "chip": "ym2612"
    },
    {
      "channel": 2,
      "note": 56,
      "start": 22.8784,
      "duration": 0.0161,
      "velocity": 100,
      "chip": "ym2612"
    },
    {
      "channel": 1,
      "note": 66,
      "start": 22.8796,
      "duration": 0.0161,
      "velocity": 94,
      "chip": "ym2612"
    },
    {
      "channel": 0,
      "note": 68,
      "start": 22.8899,
      "duration": 0.0179,
      "velocity": 127,
      "chip": "ym2612"
    },
    {
      "channel": 5,
      "note": 71,
      "start": 22.891,
      "duration": 0.018,
      "velocity": 110,
      "chip": "ym2612"
    },
    {
      "channel": 4,
      "note": 75,
      "start": 22.8922,
      "duration": 0.018,
      "velocity": 110,
      "chip": "ym2612"
    },
    {
      "channel": 2,
      "note": 56,
      "start": 22.8945,
      "duration": 0.0183,
      "velocity": 100,
      "chip": "ym2612"
    },
    {
      "channel": 1,
      "note": 66,
      "start": 22.8957,
      "duration": 0.0183,
      "velocity": 94,
      "chip": "ym2612"
    },
    {
      "channel": 0,
      "note": 84,
      "start": 22.9079,
      "duration": 0.0143,
      "velocity": 127,
      "chip": "ym2612"
    },
    {
      "channel": 5,
      "note": 71,
      "start": 22.909,
      "duration": 0.0142,
      "velocity": 110,
      "chip": "ym2612"
    },
    {
      "channel": 4,
      "note": 75,
      "start": 22.9102,
      "duration": 0.0142,
      "velocity": 110,
      "chip": "ym2612"
    },
    {
      "channel": 2,
      "note": 68,
      "start": 22.9128,
      "duration": 0.0143,
      "velocity": 100,
      "chip": "ym2612"
    },
    {
      "channel": 1,
      "note": 66,
      "start": 22.914,
      "duration": 0.0144,
      "velocity": 94,
      "chip": "ym2612"
    },
    {
      "channel": 0,
      "note": 82,
      "start": 22.9221,
      "duration": 0.016,
      "velocity": 127,
      "chip": "ym2612"
    },
    {
      "channel": 3,
      "note": 66,
      "start": 22.9259,
      "duration": 0.0158,
      "velocity": 94,
      "chip": "ym2612"
    },
    {
      "channel": 2,
      "note": 68,
      "start": 22.9271,
      "duration": 0.0157,
      "velocity": 100,
      "chip": "ym2612"
    },
    {
      "channel": 1,
      "note": 66,
      "start": 22.9284,
      "duration": 0.0157,
      "velocity": 94,
      "chip": "ym2612"
    },
    {
      "channel": 0,
      "note": 81,
      "start": 22.9382,
      "duration": 0.0161,
      "velocity": 127,
      "chip": "ym2612"
    },
    {
      "channel": 3,
      "note": 66,
      "start": 22.9417,
      "duration": 0.0161,
      "velocity": 94,
      "chip": "ym2612"
    },
    {
      "channel": 2,
      "note": 68,
      "start": 22.9429,
      "duration": 0.0161,
      "velocity": 100,
      "chip": "ym2612"
    },
    {
      "channel": 1,
      "note": 66,
      "start": 22.9441,
      "duration": 0.016,
      "velocity": 94,
      "chip": "ym2612"
    },
    {
      "channel": 0,
      "note": 79,
      "start": 22.9542,
      "duration": 0.0162,
      "velocity": 127,
      "chip": "ym2612"
    },
    {
      "channel": 3,
      "note": 66,
      "start": 22.9578,
      "duration": 0.0162,
      "velocity": 94,
      "chip": "ym2612"
    },
    {
      "channel": 2,
      "note": 68,
      "start": 22.959,
      "duration": 0.0161,
      "velocity": 100,
      "chip": "ym2612"
    },
    {
      "channel": 1,
      "note": 66,
      "start": 22.9601,
      "duration": 0.0162,
      "velocity": 94,
      "chip": "ym2612"
    },
    {
      "channel": 0,
      "note": 77,
      "start": 22.9704,
      "duration": 0.0163,
      "velocity": 127,
      "chip": "ym2612"
    },
    {
      "channel": 3,
      "note": 66,
      "start": 22.974,
      "duration": 0.0163,
      "velocity": 94,
      "chip": "ym2612"
    },
    {
      "channel": 2,
      "note": 68,
      "start": 22.9751,
      "duration": 0.0163,
      "velocity": 100,
      "chip": "ym2612"
    },
    {
      "channel": 0,
      "note": 76,
      "start": 22.9867,
      "duration": 0.0163,
      "velocity": 127,
      "chip": "ym2612"
    },
    {
      "channel": 3,
      "note": 66,
      "start": 22.9902,
      "duration": 0.0163,
      "velocity": 94,
      "chip": "ym2612"
    },
    {
      "channel": 2,
      "note": 68,
      "start": 22.9914,
      "duration": 0.0163,
      "velocity": 100,
      "chip": "ym2612"
    },
    {
      "channel": 0,
      "note": 74,
      "start": 23.003,
      "duration": 0.0181,
      "velocity": 127,
      "chip": "ym2612"
    },
    {
      "channel": 3,
      "note": 66,
      "start": 23.0066,
      "duration": 0.0188,
      "velocity": 94,
      "chip": "ym2612"
    },
    {
      "channel": 2,
      "note": 68,
      "start": 23.0078,
      "duration": 0.019,
      "velocity": 100,
      "chip": "ym2612"
    },
    {
      "channel": 0,
      "note": 78,
      "start": 23.0212,
      "duration": 0.0142,
      "velocity": 127,
      "chip": "ym2612"
    },
    {
      "channel": 5,
      "note": 75,
      "start": 23.0227,
      "duration": 0.0139,
      "velocity": 110,
      "chip": "ym2612"
    },
    {
      "channel": 4,
      "note": 71,
      "start": 23.0241,
      "duration": 0.0137,
      "velocity": 110,
      "chip": "ym2612"
    },
    {
      "channel": 3,
      "note": 66,
      "start": 23.0254,
      "duration": 0.0137,
      "velocity": 94,
      "chip": "ym2612"
    },
    {
      "channel": 2,
      "note": 58,
      "start": 23.0268,
      "duration": 0.0135,
      "velocity": 100,
      "chip": "ym2612"
    },
    {
      "channel": 1,
      "note": 65,
      "start": 23.0282,
      "duration": 0.0133,
      "velocity": 94,
      "chip": "ym2612"
    },
    {
      "channel": 0,
      "note": 76,
      "start": 23.0354,
      "duration": 0.016,
      "velocity": 127,
      "chip": "ym2612"
    },
    {
      "channel": 5,
      "note": 75,
      "start": 23.0366,
      "duration": 0.016,
      "velocity": 110,
      "chip": "ym2612"
    },
    {
      "channel": 4,
      "note": 71,
      "start": 23.0379,
      "duration": 0.0159,
      "velocity": 110,
      "chip": "ym2612"
    },
    {
      "channel": 3,
      "note": 66,
      "start": 23.039,
      "duration": 0.0159,
      "velocity": 94,
      "chip": "ym2612"
    },
    {
      "channel": 2,
      "note": 58,
      "start": 23.0402,
      "duration": 0.0159,
      "velocity": 100,
      "chip": "ym2612"
    },
    {
      "channel": 1,
      "note": 65,
      "start": 23.0415,
      "duration": 0.0158,
      "velocity": 94,
      "chip": "ym2612"
    },
    {
      "channel": 0,
      "note": 75,
      "start": 23.0514,
      "duration": 0.0156,
      "velocity": 127,
      "chip": "ym2612"
    },
    {
      "channel": 5,
      "note": 75,
      "start": 23.0526,
      "duration": 0.0161,
      "velocity": 110,
      "chip": "ym2612"
    },
    {
      "channel": 4,
      "note": 71,
      "start": 23.0538,
      "duration": 0.0161,
      "velocity": 110,
      "chip": "ym2612"
    },
    {
      "channel": 3,
      "note": 66,
      "start": 23.0549,
      "duration": 0.0161,
      "velocity": 94,
      "chip": "ym2612"
    },
    {
      "channel": 2,
      "note": 58,
      "start": 23.0561,
      "duration": 0.016,
      "velocity": 100,
      "chip": "ym2612"
    },
    {
      "channel": 1,
      "note": 65,
      "start": 23.0573,
      "duration": 0.0161,
      "velocity": 94,
      "chip": "ym2612"
    },
    {
      "channel": 0,
      "note": 73,
      "start": 23.067,
      "duration": 0.0161,
      "velocity": 127,
      "chip": "ym2612"
    },
    {
      "channel": 5,
      "note": 75,
      "start": 23.0687,
      "duration": 0.0161,
      "velocity": 110,
      "chip": "ym2612"
    },
    {
      "channel": 4,
      "note": 71,
      "start": 23.0699,
      "duration": 0.0161,
      "velocity": 110,
      "chip": "ym2612"
    },
    {
      "channel": 3,
      "note": 66,
      "start": 23.071,
      "duration": 0.0161,
      "velocity": 94,
      "chip": "ym2612"
    },
    {
      "channel": 2,
      "note": 58,
      "start": 23.0722,
      "duration": 0.0162,
      "velocity": 100,
      "chip": "ym2612"
    },
    {
      "channel": 1,
      "note": 65,
      "start": 23.0734,
      "duration": 0.0161,
      "velocity": 94,
      "chip": "ym2612"
    },
    {
      "channel": 0,
      "note": 71,
      "start": 23.0831,
      "duration": 0.0161,
      "velocity": 127,
      "chip": "ym2612"
    },
    {
      "channel": 5,
      "note": 75,
      "start": 23.0848,
      "duration": 0.0155,
      "velocity": 110,
      "chip": "ym2612"
    },
    {
      "channel": 4,
      "note": 71,
      "start": 23.086,
      "duration": 0.0161,
      "velocity": 110,
      "chip": "ym2612"
    },
    {
      "channel": 3,
      "note": 66,
      "start": 23.0872,
      "duration": 0.016,
      "velocity": 94,
      "chip": "ym2612"
    },
    {
      "channel": 2,
      "note": 58,
      "start": 23.0883,
      "duration": 0.016,
      "velocity": 100,
      "chip": "ym2612"
    },
    {
      "channel": 1,
      "note": 65,
      "start": 23.0895,
      "duration": 0.0161,
      "velocity": 94,
      "chip": "ym2612"
    },
    {
      "channel": 0,
      "note": 70,
      "start": 23.0992,
      "duration": 0.0179,
      "velocity": 127,
      "chip": "ym2612"
    },
    {
      "channel": 5,
      "note": 75,
      "start": 23.1003,
      "duration": 0.0186,
      "velocity": 110,
      "chip": "ym2612"
    },
    {
      "channel": 4,
      "note": 71,
      "start": 23.1021,
      "duration": 0.018,
      "velocity": 110,
      "chip": "ym2612"
    },
    {
      "channel": 3,
      "note": 66,
      "start": 23.1032,
      "duration": 0.0181,
      "velocity": 94,
      "chip": "ym2612"
    },
    {
      "channel": 2,
      "note": 58,
      "start": 23.1044,
      "duration": 0.0181,
      "velocity": 100,
      "chip": "ym2612"
    },
    {
      "channel": 1,
      "note": 65,
      "start": 23.1056,
      "duration": 0.018,
      "velocity": 94,
      "chip": "ym2612"
    },
    {
      "channel": 0,
      "note": 78,
      "start": 23.1173,
      "duration": 0.0141,
      "velocity": 127,
      "chip": "ym2612"
    },
    {
      "channel": 5,
      "note": 75,
      "start": 23.1189,
      "duration": 0.0137,
      "velocity": 110,
      "chip": "ym2612"
    },
    {
      "channel": 4,
      "note": 71,
      "start": 23.1201,
      "duration": 0.0137,
      "velocity": 110,
      "chip": "ym2612"
    },
    {
      "channel": 3,
      "note": 66,
      "start": 23.1213,
      "duration": 0.0143,
      "velocity": 94,
      "chip": "ym2612"
    },
    {
      "channel": 2,
      "note": 58,
      "start": 23.1224,
      "duration": 0.0143,
      "velocity": 100,
      "chip": "ym2612"
    },
    {
      "channel": 1,
      "note": 65,
      "start": 23.1236,
      "duration": 0.0143,
      "velocity": 94,
      "chip": "ym2612"
    },
    {
      "channel": 0,
      "note": 76,
      "start": 23.1314,
      "duration": 0.016,
      "velocity": 127,
      "chip": "ym2612"
    },
    {
      "channel": 3,
      "note": 66,
      "start": 23.1356,
      "duration": 0.016,
      "velocity": 94,
      "chip": "ym2612"
    },
    {
      "channel": 2,
      "note": 58,
      "start": 23.1368,
      "duration": 0.016,
      "velocity": 100,
      "chip": "ym2612"
    },
    {
      "channel": 1,
      "note": 65,
      "start": 23.1379,
      "duration": 0.016,
      "velocity": 94,
      "chip": "ym2612"
    },
    {
      "channel": 0,
      "note": 75,
      "start": 23.1474,
      "duration": 0.0161,
      "velocity": 127,
      "chip": "ym2612"
    },
    {
      "channel": 3,
      "note": 66,
      "start": 23.1515,
      "duration": 0.0156,
      "velocity": 94,
      "chip": "ym2612"
    },
    {
      "channel": 2,
      "note": 58,
      "start": 23.1527,
      "duration": 0.0161,
      "velocity": 100,
      "chip": "ym2612"
    },
    {
      "channel": 1,
      "note": 65,
      "start": 23.1539,
      "duration": 0.016,
      "velocity": 94,
      "chip": "ym2612"
    },
    {
      "channel": 0,
      "note": 73,
      "start": 23.1635,
      "duration": 0.0161,
      "velocity": 127,
      "chip": "ym2612"
    },
    {
      "channel": 3,
      "note": 66,
      "start": 23.1671,
      "duration": 0.0161,
      "velocity": 94,
      "chip": "ym2612"
    },
    {
      "channel": 2,
      "note": 58,
      "start": 23.1688,
      "duration": 0.016,
      "velocity": 100,
      "chip": "ym2612"
    },
    {
      "channel": 1,
      "note": 65,
      "start": 23.17,
      "duration": 0.0162,
      "velocity": 94,
      "chip": "ym2612"
    },
    {
      "channel": 0,
      "note": 71,
      "start": 23.1796,
      "duration": 0.0161,
      "velocity": 127,
      "chip": "ym2612"
    },
    {
      "channel": 3,
      "note": 66,
      "start": 23.1832,
      "duration": 0.0161,
      "velocity": 94,
      "chip": "ym2612"
    },
    {
      "channel": 2,
      "note": 58,
      "start": 23.1849,
      "duration": 0.0156,
      "velocity": 100,
      "chip": "ym2612"
    },
    {
      "channel": 1,
      "note": 65,
      "start": 23.1861,
      "duration": 0.0161,
      "velocity": 94,
      "chip": "ym2612"
    },
    {
      "channel": 0,
      "note": 70,
      "start": 23.1958,
      "duration": 0.0161,
      "velocity": 127,
      "chip": "ym2612"
    },
    {
      "channel": 3,
      "note": 66,
      "start": 23.1993,
      "duration": 0.0161,
      "velocity": 94,
      "chip": "ym2612"
    },
    {
      "channel": 2,
      "note": 58,
      "start": 23.2004,
      "duration": 0.0161,
      "velocity": 100,
      "chip": "ym2612"
    },
    {
      "channel": 1,
      "note": 65,
      "start": 23.2022,
      "duration": 0.016,
      "velocity": 94,
      "chip": "ym2612"
    },
    {
      "channel": 0,
      "note": 68,
      "start": 23.2119,
      "duration": 0.0179,
      "velocity": 124,
      "chip": "ym2612"
    },
    {
      "channel": 3,
      "note": 66,
      "start": 23.2154,
      "duration": 0.0193,
      "velocity": 94,
      "chip": "ym2612"
    },
    {
      "channel": 2,
      "note": 58,
      "start": 23.2165,
      "duration": 0.0197,
      "velocity": 100,
      "chip": "ym2612"
    },
    {
      "channel": 1,
      "note": 65,
      "start": 23.2182,
      "duration": 0.0192,
      "velocity": 94,
      "chip": "ym2612"
    },
    {
      "channel": 0,
      "note": 84,
      "start": 23.2298,
      "duration": 0.0143,
      "velocity": 124,
      "chip": "ym2612"
    },
    {
      "channel": 5,
      "note": 71,
      "start": 23.2314,
      "duration": 0.0139,
      "velocity": 110,
      "chip": "ym2612"
    },
    {
      "channel": 4,
      "note": 75,
      "start": 23.233,
      "duration": 0.0136,
      "velocity": 110,
      "chip": "ym2612"
    },
    {
      "channel": 3,
      "note": 66,
      "start": 23.2347,
      "duration": 0.013,
      "velocity": 94,
      "chip": "ym2612"
    },
    {
      "channel": 2,
      "note": 59,
      "start": 23.2362,
      "duration": 0.0128,
      "velocity": 100,
      "chip": "ym2612"
    },
    {
      "channel": 1,
      "note": 65,
      "start": 23.2374,
      "duration": 0.0128,
      "velocity": 94,
      "chip": "ym2612"
    },
    {
      "channel": 0,
      "note": 82,
      "start": 23.2441,
      "duration": 0.016,
      "velocity": 124,
      "chip": "ym2612"
    },
    {
      "channel": 5,
      "note": 71,
      "start": 23.2454,
      "duration": 0.016,
      "velocity": 110,
      "chip": "ym2612"
    },
    {
      "channel": 4,
      "note": 75,
      "start": 23.2466,
      "duration": 0.0159,
      "velocity": 110,
      "chip": "ym2612"
    },
    {
      "channel": 3,
      "note": 66,
      "start": 23.2478,
      "duration": 0.016,
      "velocity": 94,
      "chip": "ym2612"
    },
    {
      "channel": 2,
      "note": 59,
      "start": 23.249,
      "duration": 0.0159,
      "velocity": 100,
      "chip": "ym2612"
    },
    {
      "channel": 1,
      "note": 65,
      "start": 23.2502,
      "duration": 0.0158,
      "velocity": 94,
      "chip": "ym2612"
    },
    {
      "channel": 0,
      "note": 80,
      "start": 23.2602,
      "duration": 0.0161,
      "velocity": 124,
      "chip": "ym2612"
    },
    {
      "channel": 5,
      "note": 71,
      "start": 23.2614,
      "duration": 0.0161,
      "velocity": 110,
      "chip": "ym2612"
    },
    {
      "channel": 4,
      "note": 75,
      "start": 23.2625,
      "duration": 0.0161,
      "velocity": 110,
      "chip": "ym2612"
    },
    {
      "channel": 3,
      "note": 66,
      "start": 23.2637,
      "duration": 0.0161,
      "velocity": 94,
      "chip": "ym2612"
    },
    {
      "channel": 2,
      "note": 59,
      "start": 23.2649,
      "duration": 0.0161,
      "velocity": 100,
      "chip": "ym2612"
    },
    {
      "channel": 1,
      "note": 65,
      "start": 23.266,
      "duration": 0.0161,
      "velocity": 94,
      "chip": "ym2612"
    },
    {
      "channel": 0,
      "note": 77,
      "start": 23.2763,
      "duration": 0.0161,
      "velocity": 124,
      "chip": "ym2612"
    },
    {
      "channel": 5,
      "note": 71,
      "start": 23.2775,
      "duration": 0.0161,
      "velocity": 110,
      "chip": "ym2612"
    },
    {
      "channel": 4,
      "note": 75,
      "start": 23.2786,
      "duration": 0.0161,
      "velocity": 110,
      "chip": "ym2612"
    },
    {
      "channel": 3,
      "note": 66,
      "start": 23.2798,
      "duration": 0.0161,
      "velocity": 94,
      "chip": "ym2612"
    },
    {
      "channel": 2,
      "note": 59,
      "start": 23.281,
      "duration": 0.0161,
      "velocity": 100,
      "chip": "ym2612"
    },
    {
      "channel": 1,
      "note": 65,
      "start": 23.2821,
      "duration": 0.0162,
      "velocity": 94,
      "chip": "ym2612"
    },
    {
      "channel": 0,
      "note": 75,
      "start": 23.2924,
      "duration": 0.0161,
      "velocity": 124,
      "chip": "ym2612"
    },
    {
      "channel": 5,
      "note": 71,
      "start": 23.2936,
      "duration": 0.0161,
      "velocity": 110,
      "chip": "ym2612"
    },
    {
      "channel": 4,
      "note": 75,
      "start": 23.2947,
      "duration": 0.0161,
      "velocity": 110,
      "chip": "ym2612"
    },
    {
      "channel": 2,
      "note": 59,
      "start": 23.2971,
      "duration": 0.0161,
      "velocity": 100,
      "chip": "ym2612"
    },
    {
      "channel": 1,
      "note": 65,
      "start": 23.2983,
      "duration": 0.016,
      "velocity": 94,
      "chip": "ym2612"
    },
    {
      "channel": 0,
      "note": 72,
      "start": 23.3085,
      "duration": 0.0179,
      "velocity": 124,
      "chip": "ym2612"
    },
    {
      "channel": 5,
      "note": 71,
      "start": 23.3097,
      "duration": 0.0179,
      "velocity": 110,
      "chip": "ym2612"
    },
    {
      "channel": 4,
      "note": 75,
      "start": 23.3108,
      "duration": 0.018,
      "velocity": 110,
      "chip": "ym2612"
    },
    {
      "channel": 2,
      "note": 59,
      "start": 23.3132,
      "duration": 0.0179,
      "velocity": 100,
      "chip": "ym2612"
    },
    {
      "channel": 1,
      "note": 65,
      "start": 23.3143,
      "duration": 0.018,
      "velocity": 94,
      "chip": "ym2612"
    },
    {
      "channel": 0,
      "note": 84,
      "start": 23.3264,
      "duration": 0.0143,
      "velocity": 124,
      "chip": "ym2612"
    },
    {
      "channel": 5,
      "note": 71,
      "start": 23.3276,
      "duration": 0.0143,
      "velocity": 110,
      "chip": "ym2612"
    },
    {
      "channel": 4,
      "note": 75,
      "start": 23.3288,
      "duration": 0.0143,
      "velocity": 110,
      "chip": "ym2612"
    },
    {
      "channel": 2,
      "note": 59,
      "start": 23.3311,
      "duration": 0.0146,
      "velocity": 100,
      "chip": "ym2612"
    },
    {
      "channel": 1,
      "note": 65,
      "start": 23.3323,
      "duration": 0.0146,
      "velocity": 94,
      "chip": "ym2612"
    },
    {
      "channel": 0,
      "note": 82,
      "start": 23.3408,
      "duration": 0.016,
      "velocity": 124,
      "chip": "ym2612"
    },
    {
      "channel": 3,
      "note": 65,
      "start": 23.3446,
      "duration": 0.0158,
      "velocity": 94,
      "chip": "ym2612"
    },
    {
      "channel": 2,
      "note": 59,
      "start": 23.3457,
      "duration": 0.0158,
      "velocity": 100,
      "chip": "ym2612"
    },
    {
      "channel": 1,
      "note": 65,
      "start": 23.3469,
      "duration": 0.0158,
      "velocity": 94,
      "chip": "ym2612"
    },
    {
      "channel": 0,
      "note": 80,
      "start": 23.3568,
      "duration": 0.0161,
      "velocity": 124,
      "chip": "ym2612"
    },
    {
      "channel": 3,
      "note": 65,
      "start": 23.3604,
      "duration": 0.016,
      "velocity": 94,
      "chip": "ym2612"
    },
    {
      "channel": 2,
      "note": 59,
      "start": 23.3615,
      "duration": 0.016,
      "velocity": 100,
      "chip": "ym2612"
    },
    {
      "channel": 1,
      "note": 65,
      "start": 23.3627,
      "duration": 0.016,
      "velocity": 94,
      "chip": "ym2612"
    },
    {
      "channel": 0,
      "note": 77,
      "start": 23.3729,
      "duration": 0.0161,
      "velocity": 124,
      "chip": "ym2612"
    },
    {
      "channel": 3,
      "note": 65,
      "start": 23.3764,
      "duration": 0.0161,
      "velocity": 94,
      "chip": "ym2612"
    },
    {
      "channel": 2,
      "note": 59,
      "start": 23.3775,
      "duration": 0.0162,
      "velocity": 100,
      "chip": "ym2612"
    },
    {
      "channel": 1,
      "note": 65,
      "start": 23.3787,
      "duration": 0.0161,
      "velocity": 94,
      "chip": "ym2612"
    },
    {
      "channel": 0,
      "note": 75,
      "start": 23.389,
      "duration": 0.0161,
      "velocity": 124,
      "chip": "ym2612"
    },
    {
      "channel": 3,
      "note": 65,
      "start": 23.3925,
      "duration": 0.0161,
      "velocity": 94,
      "chip": "ym2612"
    },
    {
      "channel": 2,
      "note": 59,
      "start": 23.3937,
      "duration": 0.0161,
      "velocity": 100,
      "chip": "ym2612"
    },
    {
      "channel": 0,
      "note": 72,
      "start": 23.4051,
      "duration": 0.0161,
      "velocity": 124,
      "chip": "ym2612"
    },
    {
      "channel": 3,
      "note": 65,
      "start": 23.4086,
      "duration": 0.0161,
      "velocity": 94,
      "chip": "ym2612"
    },
    {
      "channel": 2,
      "note": 59,
      "start": 23.4098,
      "duration": 0.0161,
      "velocity": 100,
      "chip": "ym2612"
    },
    {
      "channel": 0,
      "note": 70,
      "start": 23.4212,
      "duration": 0.0179,
      "velocity": 115,
      "chip": "ym2612"
    },
    {
      "channel": 3,
      "note": 65,
      "start": 23.4247,
      "duration": 0.0186,
      "velocity": 94,
      "chip": "ym2612"
    },
    {
      "channel": 2,
      "note": 59,
      "start": 23.4259,
      "duration": 0.0188,
      "velocity": 100,
      "chip": "ym2612"
    },
    {
      "channel": 0,
      "note": 36,
      "start": 23.4392,
      "duration": 0.0143,
      "velocity": 115,
      "chip": "ym2612"
    },
    {
      "channel": 5,
      "note": 75,
      "start": 23.4406,
      "duration": 0.0141,
      "velocity": 110,
      "chip": "ym2612"
    },
    {
      "channel": 4,
      "note": 71,
      "start": 23.4422,
      "duration": 0.0138,
      "velocity": 110,
      "chip": "ym2612"
    },
    {
      "channel": 3,
      "note": 65,
      "start": 23.4433,
      "duration": 0.0139,
      "velocity": 94,
      "chip": "ym2612"
    },
    {
      "channel": 2,
      "note": 61,
      "start": 23.4448,
      "duration": 0.0136,
      "velocity": 100,
      "chip": "ym2612"
    },
    {
      "channel": 1,
      "note": 64,
      "start": 23.4462,
      "duration": 0.0134,
      "velocity": 94,
      "chip": "ym2612"
    },
    {
      "channel": 0,
      "note": 36,
      "start": 23.4535,
      "duration": 0.0164,
      "velocity": 115,
      "chip": "ym2612"
    },
    {
      "channel": 5,
      "note": 75,
      "start": 23.4548,
      "duration": 0.0163,
      "velocity": 110,
      "chip": "ym2612"
    },
    {
      "channel": 4,
      "note": 71,
      "start": 23.456,
      "duration": 0.0163,
      "velocity": 110,
      "chip": "ym2612"
    },
    {
      "channel": 3,
      "note": 65,
      "start": 23.4572,
      "duration": 0.0162,
      "velocity": 94,
      "chip": "ym2612"
    },
    {
      "channel": 2,
      "note": 61,
      "start": 23.4584,
      "duration": 0.0161,
      "velocity": 100,
      "chip": "ym2612"
    },
    {
      "channel": 1,
      "note": 64,
      "start": 23.4596,
      "duration": 0.0161,
      "velocity": 94,
      "chip": "ym2612"
    },
    {
      "channel": 0,
      "note": 37,
      "start": 23.4699,
      "duration": 0.0163,
      "velocity": 115,
      "chip": "ym2612"
    },
    {
      "channel": 5,
      "note": 75,
      "start": 23.471,
      "duration": 0.0163,
      "velocity": 110,
      "chip": "ym2612"
    },
    {
      "channel": 4,
      "note": 71,
      "start": 23.4722,
      "duration": 0.0163,
      "velocity": 110,
      "chip": "ym2612"
    },
    {
      "channel": 3,
      "note": 65,
      "start": 23.4734,
      "duration": 0.0163,
      "velocity": 94,
      "chip": "ym2612"
    },
    {
      "channel": 2,
      "note": 61,
      "start": 23.4745,
      "duration": 0.0163,
      "velocity": 100,
      "chip": "ym2612"
    },
    {
      "channel": 1,
      "note": 64,
      "start": 23.4757,
      "duration": 0.0163,
      "velocity": 94,
      "chip": "ym2612"
    },
    {
      "channel": 0,
      "note": 37,
      "start": 23.4862,
      "duration": 0.0161,
      "velocity": 115,
      "chip": "ym2612"
    },
    {
      "channel": 5,
      "note": 75,
      "start": 23.4873,
      "duration": 0.0162,
      "velocity": 110,
      "chip": "ym2612"
    },
    {
      "channel": 4,
      "note": 71,
      "start": 23.4885,
      "duration": 0.0161,
      "velocity": 110,
      "chip": "ym2612"
    },
    {
      "channel": 3,
      "note": 65,
      "start": 23.4897,
      "duration": 0.0161,
      "velocity": 94,
      "chip": "ym2612"
    },
    {
      "channel": 2,
      "note": 61,
      "start": 23.4909,
      "duration": 0.0161,
      "velocity": 100,
      "chip": "ym2612"
    },
    {
      "channel": 1,
      "note": 64,
      "start": 23.492,
      "duration": 0.0161,
      "velocity": 94,
      "chip": "ym2612"
    },
    {
      "channel": 0,
      "note": 38,
      "start": 23.5023,
      "duration": 0.016,
      "velocity": 115,
      "chip": "ym2612"
    },
    {
      "channel": 5,
      "note": 75,
      "start": 23.5035,
      "duration": 0.0161,
      "velocity": 110,
      "chip": "ym2612"
    },
    {
      "channel": 4,
      "note": 71,
      "start": 23.5046,
      "duration": 0.0161,
      "velocity": 110,
      "chip": "ym2612"
    },
    {
      "channel": 3,
      "note": 65,
      "start": 23.5058,
      "duration": 0.0161,
      "velocity": 94,
      "chip": "ym2612"
    },
    {
      "channel": 2,
      "note": 61,
      "start": 23.507,
      "duration": 0.0161,
      "velocity": 100,
      "chip": "ym2612"
    },
    {
      "channel": 1,
      "note": 64,
      "start": 23.5081,
      "duration": 0.0161,
      "velocity": 94,
      "chip": "ym2612"
    },
    {
      "channel": 0,
      "note": 38,
      "start": 23.5183,
      "duration": 0.0158,
      "velocity": 115,
      "chip": "ym2612"
    },
    {
      "channel": 5,
      "note": 75,
      "start": 23.5196,
      "duration": 0.016,
      "velocity": 110,
      "chip": "ym2612"
    },
    {
      "channel": 4,
      "note": 71,
      "start": 23.5207,
      "duration": 0.0161,
      "velocity": 110,
      "chip": "ym2612"
    },
    {
      "channel": 3,
      "note": 65,
      "start": 23.5219,
      "duration": 0.0161,
      "velocity": 94,
      "chip": "ym2612"
    },
    {
      "channel": 2,
      "note": 61,
      "start": 23.5231,
      "duration": 0.0161,
      "velocity": 100,
      "chip": "ym2612"
    },
    {
      "channel": 1,
      "note": 64,
      "start": 23.5242,
      "duration": 0.0161,
      "velocity": 94,
      "chip": "ym2612"
    },
    {
      "channel": 0,
      "note": 39,
      "start": 23.5341,
      "duration": 0.0159,
      "velocity": 115,
      "chip": "ym2612"
    },
    {
      "channel": 5,
      "note": 75,
      "start": 23.5356,
      "duration": 0.0161,
      "velocity": 110,
      "chip": "ym2612"
    },
    {
      "channel": 4,
      "note": 71,
      "start": 23.5368,
      "duration": 0.0161,
      "velocity": 110,
      "chip": "ym2612"
    },
    {
      "channel": 3,
      "note": 65,
      "start": 23.538,
      "duration": 0.0161,
      "velocity": 94,
      "chip": "ym2612"
    },
    {
      "channel": 2,
      "note": 61,
      "start": 23.5392,
      "duration": 0.0162,
      "velocity": 100,
      "chip": "ym2612"
    },
    {
      "channel": 1,
      "note": 64,
      "start": 23.5403,
      "duration": 0.0161,
      "velocity": 94,
      "chip": "ym2612"
    },
    {
      "channel": 0,
      "note": 39,
      "start": 23.55,
      "duration": 0.0161,
      "velocity": 115,
      "chip": "ym2612"
    },
    {
      "channel": 3,
      "note": 65,
      "start": 23.5542,
      "duration": 0.016,
      "velocity": 94,
      "chip": "ym2612"
    },
    {
      "channel": 2,
      "note": 61,
      "start": 23.5553,
      "duration": 0.016,
      "velocity": 100,
      "chip": "ym2612"
    },
    {
      "channel": 1,
      "note": 64,
      "start": 23.5565,
      "duration": 0.016,
      "velocity": 94,
      "chip": "ym2612"
    },
    {
      "channel": 0,
      "note": 40,
      "start": 23.5661,
      "duration": 0.0161,
      "velocity": 115,
      "chip": "ym2612"
    },
    {
      "channel": 3,
      "note": 65,
      "start": 23.5702,
      "duration": 0.0161,
      "velocity": 94,
      "chip": "ym2612"
    },
    {
      "channel": 2,
      "note": 61,
      "start": 23.5714,
      "duration": 0.0161,
      "velocity": 100,
      "chip": "ym2612"
    },
    {
      "channel": 1,
      "note": 64,
      "start": 23.5725,
      "duration": 0.0162,
      "velocity": 94,
      "chip": "ym2612"
    },
    {
      "channel": 0,
      "note": 40,
      "start": 23.5822,
      "duration": 0.0161,
      "velocity": 115,
      "chip": "ym2612"
    },
    {
      "channel": 3,
      "note": 65,
      "start": 23.5863,
      "duration": 0.0161,
      "velocity": 94,
      "chip": "ym2612"
    },
    {
      "channel": 2,
      "note": 61,
      "start": 23.5875,
      "duration": 0.0161,
      "velocity": 100,
      "chip": "ym2612"
    },
    {
      "channel": 1,
      "note": 64,
      "start": 23.5887,
      "duration": 0.0161,
      "velocity": 94,
      "chip": "ym2612"
    },
    {
      "channel": 0,
      "note": 40,
      "start": 23.5983,
      "duration": 0.0161,
      "velocity": 115,
      "chip": "ym2612"
    },
    {
      "channel": 3,
      "note": 65,
      "start": 23.6024,
      "duration": 0.016,
      "velocity": 94,
      "chip": "ym2612"
    },
    {
      "channel": 2,
      "note": 61,
      "start": 23.6035,
      "duration": 0.0161,
      "velocity": 100,
      "chip": "ym2612"
    },
    {
      "channel": 1,
      "note": 64,
      "start": 23.6048,
      "duration": 0.0161,
      "velocity": 94,
      "chip": "ym2612"
    },
    {
      "channel": 0,
      "note": 41,
      "start": 23.6144,
      "duration": 0.0161,
      "velocity": 115,
      "chip": "ym2612"
    },
    {
      "channel": 3,
      "note": 65,
      "start": 23.6184,
      "duration": 0.0158,
      "velocity": 94,
      "chip": "ym2612"
    },
    {
      "channel": 2,
      "note": 61,
      "start": 23.6196,
      "duration": 0.0162,
      "velocity": 100,
      "chip": "ym2612"
    },
    {
      "channel": 1,
      "note": 64,
      "start": 23.6208,
      "duration": 0.0161,
      "velocity": 94,
      "chip": "ym2612"
    },
    {
      "channel": 0,
      "note": 41,
      "start": 23.6305,
      "duration": 0.0161,
      "velocity": 115,
      "chip": "ym2612"
    },
    {
      "channel": 3,
      "note": 65,
      "start": 23.6342,
      "duration": 0.0174,
      "velocity": 94,
      "chip": "ym2612"
    },
    {
      "channel": 2,
      "note": 61,
      "start": 23.6358,
      "duration": 0.0171,
      "velocity": 100,
      "chip": "ym2612"
    },
    {
      "channel": 1,
      "note": 64,
      "start": 23.6369,
      "duration": 0.0171,
      "velocity": 94,
      "chip": "ym2612"
    },
    {
      "channel": 0,
      "note": 42,
      "start": 23.6466,
      "duration": 0.0161,
      "velocity": 115,
      "chip": "ym2612"
    },
    {
      "channel": 5,
      "note": 73,
      "start": 23.6483,
      "duration": 0.0156,
      "velocity": 110,
      "chip": "ym2612"
    },
    {
      "channel": 4,
      "note": 76,
      "start": 23.6499,
      "duration": 0.0153,
      "velocity": 110,
      "chip": "ym2612"
    },
    {
      "channel": 3,
      "note": 65,
      "start": 23.6516,
      "duration": 0.0147,
      "velocity": 94,
      "chip": "ym2612"
    },
    {
      "channel": 2,
      "note": 61,
      "start": 23.6529,
      "duration": 0.0148,
      "velocity": 100,
      "chip": "ym2612"
    },
    {
      "channel": 1,
      "note": 64,
      "start": 23.6541,
      "duration": 0.0152,
      "velocity": 94,
      "chip": "ym2612"
    },
    {
      "channel": 0,
      "note": 42,
      "start": 23.6627,
      "duration": 0.0161,
      "velocity": 115,
      "chip": "ym2612"
    },
    {
      "channel": 5,
      "note": 73,
      "start": 23.6639,
      "duration": 0.016,
      "velocity": 110,
      "chip": "ym2612"
    },
    {
      "channel": 4,
      "note": 76,
      "start": 23.6652,
      "duration": 0.016,
      "velocity": 110,
      "chip": "ym2612"
    },
    {
      "channel": 3,
      "note": 65,
      "start": 23.6663,
      "duration": 0.016,
      "velocity": 94,
      "chip": "ym2612"
    },
    {
      "channel": 2,
      "note": 61,
      "start": 23.6677,
      "duration": 0.0159,
      "velocity": 100,
      "chip": "ym2612"
    },
    {
      "channel": 1,
      "note": 64,
      "start": 23.6693,
      "duration": 0.0159,
      "velocity": 94,
      "chip": "ym2612"
    },
    {
      "channel": 0,
      "note": 43,
      "start": 23.6788,
      "duration": 0.0161,
      "velocity": 115,
      "chip": "ym2612"
    },
    {
      "channel": 5,
      "note": 73,
      "start": 23.68,
      "duration": 0.0161,
      "velocity": 110,
      "chip": "ym2612"
    },
    {
      "channel": 4,
      "note": 76,
      "start": 23.6812,
      "duration": 0.0161,
      "velocity": 110,
      "chip": "ym2612"
    },
    {
      "channel": 3,
      "note": 65,
      "start": 23.6823,
      "duration": 0.0162,
      "velocity": 94,
      "chip": "ym2612"
    },
    {
      "channel": 2,
      "note": 61,
      "start": 23.6835,
      "duration": 0.0161,
      "velocity": 100,
      "chip": "ym2612"
    },
    {
      "channel": 1,
      "note": 64,
      "start": 23.6852,
      "duration": 0.0158,
      "velocity": 94,
      "chip": "ym2612"
    },
    {
      "channel": 0,
      "note": 43,
      "start": 23.6949,
      "duration": 0.0161,
      "velocity": 115,
      "chip": "ym2612"
    },
    {
      "channel": 3,
      "note": 65,
      "start": 23.6985,
      "duration": 0.0161,
      "velocity": 94,
      "chip": "ym2612"
    },
    {
      "channel": 2,
      "note": 61,
      "start": 23.6996,
      "duration": 0.0161,
      "velocity": 100,
      "chip": "ym2612"
    },
    {
      "channel": 1,
      "note": 64,
      "start": 23.7009,
      "duration": 0.0159,
      "velocity": 94,
      "chip": "ym2612"
    },
    {
      "channel": 0,
      "note": 44,
      "start": 23.711,
      "duration": 0.0161,
      "velocity": 115,
      "chip": "ym2612"
    },
    {
      "channel": 2,
      "note": 61,
      "start": 23.7157,
      "duration": 0.0161,
      "velocity": 100,
      "chip": "ym2612"
    },
    {
      "channel": 1,
      "note": 64,
      "start": 23.7168,
      "duration": 0.0161,
      "velocity": 94,
      "chip": "ym2612"
    },
    {
      "channel": 0,
      "note": 44,
      "start": 23.7271,
      "duration": 0.018,
      "velocity": 115,
      "chip": "ym2612"
    },
    {
      "channel": 2,
      "note": 61,
      "start": 23.7318,
      "duration": 0.019,
      "velocity": 100,
      "chip": "ym2612"
    },
    {
      "channel": 1,
      "note": 64,
      "start": 23.7329,
      "duration": 0.0195,
      "velocity": 94,
      "chip": "ym2612"
    },
    {
      "channel": 0,
      "note": 36,
      "start": 23.7451,
      "duration": 0.0143,
      "velocity": 115,
      "chip": "ym2612"
    },
    {
      "channel": 5,
      "note": 73,
      "start": 23.7466,
      "duration": 0.0141,
      "velocity": 110,
      "chip": "ym2612"
    },
    {
      "channel": 4,
      "note": 76,
      "start": 23.748,
      "duration": 0.0138,
      "velocity": 110,
      "chip": "ym2612"
    },
    {
      "channel": 2,
      "note": 61,
      "start": 23.7509,
      "duration": 0.0136,
      "velocity": 100,
      "chip": "ym2612"
    },
    {
      "channel": 1,
      "note": 64,
      "start": 23.7525,
      "duration": 0.0132,
      "velocity": 94,
      "chip": "ym2612"
    },
    {
      "channel": 0,
      "note": 36,
      "start": 23.7593,
      "duration": 0.0161,
      "velocity": 115,
      "chip": "ym2612"
    },
    {
      "channel": 5,
      "note": 73,
      "start": 23.7606,
      "duration": 0.016,
      "velocity": 110,
      "chip": "ym2612"
    },
    {
      "channel": 4,
      "note": 76,
      "start": 23.7618,
      "duration": 0.0159,
      "velocity": 110,
      "chip": "ym2612"
    },
    {
      "channel": 3,
      "note": 64,
      "start": 23.7633,
      "duration": 0.0157,
      "velocity": 94,
      "chip": "ym2612"
    },
    {
      "channel": 2,
      "note": 61,
      "start": 23.7645,
      "duration": 0.0156,
      "velocity": 100,
      "chip": "ym2612"
    },
    {
      "channel": 1,
      "note": 64,
      "start": 23.7657,
      "duration": 0.0156,
      "velocity": 94,
      "chip": "ym2612"
    },
    {
      "channel": 0,
      "note": 37,
      "start": 23.7754,
      "duration": 0.0161,
      "velocity": 115,
      "chip": "ym2612"
    },
    {
      "channel": 5,
      "note": 73,
      "start": 23.7766,
      "duration": 0.0161,
      "velocity": 110,
      "chip": "ym2612"
    },
    {
      "channel": 4,
      "note": 76,
      "start": 23.7777,
      "duration": 0.0162,
      "velocity": 110,
      "chip": "ym2612"
    },
    {
      "channel": 3,
      "note": 64,
      "start": 23.779,
      "duration": 0.016,
      "velocity": 94,
      "chip": "ym2612"
    },
    {
      "channel": 2,
      "note": 61,
      "start": 23.7801,
      "duration": 0.016,
      "velocity": 100,
      "chip": "ym2612"
    },
    {
      "channel": 1,
      "note": 64,
      "start": 23.7813,
      "duration": 0.0161,
      "velocity": 94,
      "chip": "ym2612"
    },
    {
      "channel": 0,
      "note": 37,
      "start": 23.7915,
      "duration": 0.0161,
      "velocity": 115,
      "chip": "ym2612"
    },
    {
      "channel": 5,
      "note": 73,
      "start": 23.7927,
      "duration": 0.0161,
      "velocity": 110,
      "chip": "ym2612"
    },
    {
      "channel": 4,
      "note": 76,
      "start": 23.7939,
      "duration": 0.0161,
      "velocity": 110,
      "chip": "ym2612"
    },
    {
      "channel": 3,
      "note": 64,
      "start": 23.795,
      "duration": 0.0161,
      "velocity": 94,
      "chip": "ym2612"
    },
    {
      "channel": 2,
      "note": 61,
      "start": 23.7962,
      "duration": 0.0162,
      "velocity": 100,
      "chip": "ym2612"
    },
    {
      "channel": 1,
      "note": 64,
      "start": 23.7974,
      "duration": 0.0161,
      "velocity": 94,
      "chip": "ym2612"
    },
    {
      "channel": 0,
      "note": 38,
      "start": 23.8076,
      "duration": 0.0161,
      "velocity": 115,
      "chip": "ym2612"
    },
    {
      "channel": 3,
      "note": 64,
      "start": 23.8112,
      "duration": 0.016,
      "velocity": 94,
      "chip": "ym2612"
    },
    {
      "channel": 2,
      "note": 61,
      "start": 23.8123,
      "duration": 0.016,
      "velocity": 100,
      "chip": "ym2612"
    },
    {
      "channel": 1,
      "note": 64,
      "start": 23.8135,
      "duration": 0.0161,
      "velocity": 94,
      "chip": "ym2612"
    },
    {
      "channel": 0,
      "note": 38,
      "start": 23.8237,
      "duration": 0.0161,
      "velocity": 115,
      "chip": "ym2612"
    },
    {
      "channel": 3,
      "note": 64,
      "start": 23.8272,
      "duration": 0.0161,
      "velocity": 94,
      "chip": "ym2612"
    },
    {
      "channel": 2,
      "note": 61,
      "start": 23.8284,
      "duration": 0.0161,
      "velocity": 100,
      "chip": "ym2612"
    },
    {
      "channel": 1,
      "note": 64,
      "start": 23.8296,
      "duration": 0.0161,
      "velocity": 94,
      "chip": "ym2612"
    },
    {
      "channel": 0,
      "note": 39,
      "start": 23.8398,
      "duration": 0.018,
      "velocity": 124,
      "chip": "ym2612"
    },
    {
      "channel": 3,
      "note": 64,
      "start": 23.8433,
      "duration": 0.0186,
      "velocity": 94,
      "chip": "ym2612"
    },
    {
      "channel": 2,
      "note": 61,
      "start": 23.8444,
      "duration": 0.0188,
      "velocity": 100,
      "chip": "ym2612"
    },
    {
      "channel": 1,
      "note": 64,
      "start": 23.8457,
      "duration": 0.0187,
      "velocity": 94,
      "chip": "ym2612"
    },
    {
      "channel": 0,
      "note": 84,
      "start": 23.8578,
      "duration": 0.0143,
      "velocity": 124,
      "chip": "ym2612"
    },
    {
      "channel": 5,
      "note": 76,
      "start": 23.8593,
      "duration": 0.0141,
      "velocity": 110,
      "chip": "ym2612"
    },
    {
      "channel": 4,
      "note": 73,
      "start": 23.8608,
      "duration": 0.0137,
      "velocity": 110,
      "chip": "ym2612"
    },
    {
      "channel": 3,
      "note": 64,
      "start": 23.862,
      "duration": 0.0138,
      "velocity": 94,
      "chip": "ym2612"
    },
    {
      "channel": 2,
      "note": 61,
      "start": 23.8632,
      "duration": 0.0137,
      "velocity": 100,
      "chip": "ym2612"
    },
    {
      "channel": 1,
      "note": 64,
      "start": 23.8644,
      "duration": 0.0137,
      "velocity": 94,
      "chip": "ym2612"
    },
    {
      "channel": 0,
      "note": 82,
      "start": 23.8721,
      "duration": 0.0161,
      "velocity": 124,
      "chip": "ym2612"
    },
    {
      "channel": 5,
      "note": 76,
      "start": 23.8733,
      "duration": 0.016,
      "velocity": 110,
      "chip": "ym2612"
    },
    {
      "channel": 4,
      "note": 73,
      "start": 23.8745,
      "duration": 0.0159,
      "velocity": 110,
      "chip": "ym2612"
    },
    {
      "channel": 3,
      "note": 64,
      "start": 23.8757,
      "duration": 0.0159,
      "velocity": 94,
      "chip": "ym2612"
    },
    {
      "channel": 2,
      "note": 61,
      "start": 23.877,
      "duration": 0.0159,
      "velocity": 100,
      "chip": "ym2612"
    },
    {
      "channel": 1,
      "note": 64,
      "start": 23.8781,
      "duration": 0.0159,
      "velocity": 94,
      "chip": "ym2612"
    },
    {
      "channel": 0,
      "note": 80,
      "start": 23.8882,
      "duration": 0.0161,
      "velocity": 124,
      "chip": "ym2612"
    },
    {
      "channel": 5,
      "note": 76,
      "start": 23.8893,
      "duration": 0.0161,
      "velocity": 110,
      "chip": "ym2612"
    },
    {
      "channel": 4,
      "note": 73,
      "start": 23.8905,
      "duration": 0.0161,
      "velocity": 110,
      "chip": "ym2612"
    },
    {
      "channel": 3,
      "note": 64,
      "start": 23.8917,
      "duration": 0.0161,
      "velocity": 94,
      "chip": "ym2612"
    },
    {
      "channel": 2,
      "note": 61,
      "start": 23.8929,
      "duration": 0.0161,
      "velocity": 100,
      "chip": "ym2612"
    },
    {
      "channel": 1,
      "note": 64,
      "start": 23.894,
      "duration": 0.0161,
      "velocity": 94,
      "chip": "ym2612"
    },
    {
      "channel": 0,
      "note": 77,
      "start": 23.9042,
      "duration": 0.0162,
      "velocity": 124,
      "chip": "ym2612"
    },
    {
      "channel": 3,
      "note": 64,
      "start": 23.9078,
      "duration": 0.0161,
      "velocity": 94,
      "chip": "ym2612"
    },
    {
      "channel": 2,
      "note": 61,
      "start": 23.909,
      "duration": 0.0161,
      "velocity": 100,
      "chip": "ym2612"
    },
    {
      "channel": 1,
      "note": 64,
      "start": 23.9101,
      "duration": 0.0162,
      "velocity": 94,
      "chip": "ym2612"
    },
    {
      "channel": 0,
      "note": 75,
      "start": 23.9204,
      "duration": 0.0163,
      "velocity": 124,
      "chip": "ym2612"
    },
    {
      "channel": 3,
      "note": 64,
      "start": 23.9239,
      "duration": 0.0163,
      "velocity": 94,
      "chip": "ym2612"
    },
    {
      "channel": 2,
      "note": 61,
      "start": 23.9251,
      "duration": 0.0163,
      "velocity": 100,
      "chip": "ym2612"
    },
    {
      "channel": 1,
      "note": 64,
      "start": 23.9263,
      "duration": 0.0163,
      "velocity": 94,
      "chip": "ym2612"
    },
    {
      "channel": 0,
      "note": 72,
      "start": 23.9368,
      "duration": 0.0163,
      "velocity": 124,
      "chip": "ym2612"
    },
    {
      "channel": 3,
      "note": 64,
      "start": 23.9402,
      "duration": 0.0169,
      "velocity": 94,
      "chip": "ym2612"
    },
    {
      "channel": 2,
      "note": 61,
      "start": 23.9414,
      "duration": 0.0171,
      "velocity": 100,
      "chip": "ym2612"
    },
    {
      "channel": 1,
      "note": 64,
      "start": 23.9425,
      "duration": 0.0172,
      "velocity": 94,
      "chip": "ym2612"
    },
    {
      "channel": 0,
      "note": 70,
      "start": 23.953,
      "duration": 0.0162,
      "velocity": 124,
      "chip": "ym2612"
    },
    {
      "channel": 5,
      "note": 76,
      "start": 23.9545,
      "duration": 0.016,
      "velocity": 110,
      "chip": "ym2612"
    },
    {
      "channel": 4,
      "note": 73,
      "start": 23.956,
      "duration": 0.0157,
      "velocity": 110,
      "chip": "ym2612"
    },
    {
      "channel": 3,
      "note": 64,
      "start": 23.9572,
      "duration": 0.0157,
      "velocity": 94,
      "chip": "ym2612"
    },
    {
      "channel": 2,
      "note": 61,
      "start": 23.9585,
      "duration": 0.0156,
      "velocity": 100,
      "chip": "ym2612"
    },
    {
      "channel": 1,
      "note": 64,
      "start": 23.9597,
      "duration": 0.0155,
      "velocity": 94,
      "chip": "ym2612"
    },
    {
      "channel": 0,
      "note": 68,
      "start": 23.9692,
      "duration": 0.0161,
      "velocity": 124,
      "chip": "ym2612"
    },
    {
      "channel": 5,
      "note": 76,
      "start": 23.9705,
      "duration": 0.016,
      "velocity": 110,
      "chip": "ym2612"
    },
    {
      "channel": 4,
      "note": 73,
      "start": 23.9717,
      "duration": 0.016,
      "velocity": 110,
      "chip": "ym2612"
    },
    {
      "channel": 3,
      "note": 64,
      "start": 23.9729,
      "duration": 0.016,
      "velocity": 94,
      "chip": "ym2612"
    },
    {
      "channel": 2,
      "note": 61,
      "start": 23.9741,
      "duration": 0.016,
      "velocity": 100,
      "chip": "ym2612"
    },
    {
      "channel": 1,
      "note": 64,
      "start": 23.9752,
      "duration": 0.016,
      "velocity": 94,
      "chip": "ym2612"
    },
    {
      "channel": 0,
      "note": 65,
      "start": 23.9853,
      "duration": 0.0161,
      "velocity": 124,
      "chip": "ym2612"
    },
    {
      "channel": 5,
      "note": 76,
      "start": 23.9865,
      "duration": 0.0161,
      "velocity": 110,
      "chip": "ym2612"
    },
    {
      "channel": 4,
      "note": 73,
      "start": 23.9876,
      "duration": 0.0162,
      "velocity": 110,
      "chip": "ym2612"
    },
    {
      "channel": 3,
      "note": 64,
      "start": 23.9888,
      "duration": 0.0161,
      "velocity": 94,
      "chip": "ym2612"
    },
    {
      "channel": 2,
      "note": 61,
      "start": 23.9901,
      "duration": 0.0161,
      "velocity": 100,
      "chip": "ym2612"
    },
    {
      "channel": 1,
      "note": 64,
      "start": 23.9912,
      "duration": 0.0162,
      "velocity": 94,
      "chip": "ym2612"
    },
    {
      "channel": 0,
      "note": 63,
      "start": 24.0014,
      "duration": 0.0148,
      "velocity": 1,
      "chip": "ym2612"
    },
    {
      "channel": 5,
      "note": 76,
      "start": 24.0026,
      "duration": 0.0149,
      "velocity": 110,
      "chip": "ym2612"
    },
    {
      "channel": 4,
      "note": 73,
      "start": 24.0038,
      "duration": 0.0153,
      "velocity": 110,
      "chip": "ym2612"
    },
    {
      "channel": 3,
      "note": 64,
      "start": 24.0049,
      "duration": 0.0153,
      "velocity": 94,
      "chip": "ym2612"
    },
    {
      "channel": 2,
      "note": 61,
      "start": 24.0062,
      "duration": 0.0153,
      "velocity": 100,
      "chip": "ym2612"
    },
    {
      "channel": 1,
      "note": 64,
      "start": 24.0074,
      "duration": 0.0153,
      "velocity": 94,
      "chip": "ym2612"
    },
    {
      "channel": 3,
      "note": 64,
      "start": 24.0203,
      "duration": 0.0152,
      "velocity": 94,
      "chip": "ym2612"
    },
    {
      "channel": 2,
      "note": 61,
      "start": 24.0215,
      "duration": 0.0152,
      "velocity": 100,
      "chip": "ym2612"
    },
    {
      "channel": 1,
      "note": 64,
      "start": 24.0226,
      "duration": 0.0152,
      "velocity": 94,
      "chip": "ym2612"
    },
    {
      "channel": 3,
      "note": 64,
      "start": 24.0355,
      "duration": 0.016,
      "velocity": 94,
      "chip": "ym2612"
    },
    {
      "channel": 2,
      "note": 61,
      "start": 24.0367,
      "duration": 0.0161,
      "velocity": 100,
      "chip": "ym2612"
    },
    {
      "channel": 1,
      "note": 64,
      "start": 24.0378,
      "duration": 0.0161,
      "velocity": 94,
      "chip": "ym2612"
    },
    {
      "channel": 3,
      "note": 64,
      "start": 24.0515,
      "duration": 0.0205,
      "velocity": 94,
      "chip": "ym2612"
    },
    {
      "channel": 2,
      "note": 61,
      "start": 24.0528,
      "duration": 0.0206,
      "velocity": 100,
      "chip": "ym2612"
    },
    {
      "channel": 1,
      "note": 64,
      "start": 24.0539,
      "duration": 0.0207,
      "velocity": 94,
      "chip": "ym2612"
    },
    {
      "channel": 0,
      "note": 36,
      "start": 24.0671,
      "duration": 0.0143,
      "velocity": 115,
      "chip": "ym2612"
    },
    {
      "channel": 5,
      "note": 73,
      "start": 24.0693,
      "duration": 0.0134,
      "velocity": 110,
      "chip": "ym2612"
    },
    {
      "channel": 4,
      "note": 76,
      "start": 24.0708,
      "duration": 0.0133,
      "velocity": 110,
      "chip": "ym2612"
    },
    {
      "channel": 3,
      "note": 64,
      "start": 24.072,
      "duration": 0.0136,
      "velocity": 94,
      "chip": "ym2612"
    },
    {
      "channel": 2,
      "note": 56,
      "start": 24.0734,
      "duration": 0.0135,
      "velocity": 100,
      "chip": "ym2612"
    },
    {
      "channel": 1,
      "note": 64,
      "start": 24.0746,
      "duration": 0.0134,
      "velocity": 94,
      "chip": "ym2612"
    },
    {
      "channel": 0,
      "note": 36,
      "start": 24.0814,
      "duration": 0.016,
      "velocity": 115,
      "chip": "ym2612"
    },
    {
      "channel": 5,
      "note": 73,
      "start": 24.0826,
      "duration": 0.016,
      "velocity": 110,
      "chip": "ym2612"
    },
    {
      "channel": 4,
      "note": 76,
      "start": 24.0841,
      "duration": 0.0157,
      "velocity": 110,
      "chip": "ym2612"
    },
    {
      "channel": 3,
      "note": 64,
      "start": 24.0856,
      "duration": 0.0159,
      "velocity": 94,
      "chip": "ym2612"
    },
    {
      "channel": 2,
      "note": 56,
      "start": 24.0869,
      "duration": 0.0159,
      "velocity": 100,
      "chip": "ym2612"
    },
    {
      "channel": 1,
      "note": 64,
      "start": 24.088,
      "duration": 0.0158,
      "velocity": 94,
      "chip": "ym2612"
    },
    {
      "channel": 0,
      "note": 37,
      "start": 24.0974,
      "duration": 0.0161,
      "velocity": 115,
      "chip": "ym2612"
    },
    {
      "channel": 5,
      "note": 73,
      "start": 24.0986,
      "duration": 0.0161,
      "velocity": 110,
      "chip": "ym2612"
    },
    {
      "channel": 4,
      "note": 76,
      "start": 24.0998,
      "duration": 0.0161,
      "velocity": 110,
      "chip": "ym2612"
    },
    {
      "channel": 3,
      "note": 64,
      "start": 24.1015,
      "duration": 0.0155,
      "velocity": 94,
      "chip": "ym2612"
    },
    {
      "channel": 2,
      "note": 56,
      "start": 24.1027,
      "duration": 0.0161,
      "velocity": 100,
      "chip": "ym2612"
    },
    {
      "channel": 1,
      "note": 64,
      "start": 24.1039,
      "duration": 0.0161,
      "velocity": 94,
      "chip": "ym2612"
    },
    {
      "channel": 0,
      "note": 37,
      "start": 24.1135,
      "duration": 0.0161,
      "velocity": 115,
      "chip": "ym2612"
    },
    {
      "channel": 5,
      "note": 73,
      "start": 24.1147,
      "duration": 0.0161,
      "velocity": 110,
      "chip": "ym2612"
    },
    {
      "channel": 4,
      "note": 76,
      "start": 24.1159,
      "duration": 0.0161,
      "velocity": 110,
      "chip": "ym2612"
    },
    {
      "channel": 3,
      "note": 64,
      "start": 24.117,
      "duration": 0.0161,
      "velocity": 94,
      "chip": "ym2612"
    },
    {
      "channel": 2,
      "note": 56,
      "start": 24.1188,
      "duration": 0.016,
      "velocity": 100,
      "chip": "ym2612"
    },
    {
      "channel": 1,
      "note": 64,
      "start": 24.12,
      "duration": 0.0162,
      "velocity": 94,
      "chip": "ym2612"
    },
    {
      "channel": 0,
      "note": 38,
      "start": 24.1296,
      "duration": 0.0161,
      "velocity": 115,
      "chip": "ym2612"
    },
    {
      "channel": 5,
      "note": 73,
      "start": 24.1308,
      "duration": 0.0162,
      "velocity": 110,
      "chip": "ym2612"
    },
    {
      "channel": 4,
      "note": 76,
      "start": 24.132,
      "duration": 0.0161,
      "velocity": 110,
      "chip": "ym2612"
    },
    {
      "channel": 3,
      "note": 64,
      "start": 24.1331,
      "duration": 0.0161,
      "velocity": 94,
      "chip": "ym2612"
    },
    {
      "channel": 2,
      "note": 56,
      "start": 24.1349,
      "duration": 0.0156,
      "velocity": 100,
      "chip": "ym2612"
    },
    {
      "channel": 1,
      "note": 64,
      "start": 24.1361,
      "duration": 0.0161,
      "velocity": 94,
      "chip": "ym2612"
    },
    {
      "channel": 0,
      "note": 38,
      "start": 24.1457,
      "duration": 0.0179,
      "velocity": 115,
      "chip": "ym2612"
    },
    {
      "channel": 5,
      "note": 73,
      "start": 24.1469,
      "duration": 0.0179,
      "velocity": 110,
      "chip": "ym2612"
    },
    {
      "channel": 4,
      "note": 76,
      "start": 24.1481,
      "duration": 0.0179,
      "velocity": 110,
      "chip": "ym2612"
    },
    {
      "channel": 3,
      "note": 64,
      "start": 24.1493,
      "duration": 0.0181,
      "velocity": 94,
      "chip": "ym2612"
    },
    {
      "channel": 2,
      "note": 56,
      "start": 24.1504,
      "duration": 0.0188,
      "velocity": 100,
      "chip": "ym2612"
    },
    {
      "channel": 1,
      "note": 64,
      "start": 24.1522,
      "duration": 0.0182,
      "velocity": 94,
      "chip": "ym2612"
    },
    {
      "channel": 0,
      "note": 36,
      "start": 24.1637,
      "duration": 0.0143,
      "velocity": 115,
      "chip": "ym2612"
    },
    {
      "channel": 5,
      "note": 73,
      "start": 24.1649,
      "duration": 0.0143,
      "velocity": 110,
      "chip": "ym2612"
    },
    {
      "channel": 4,
      "note": 76,
      "start": 24.166,
      "duration": 0.0144,
      "velocity": 110,
      "chip": "ym2612"
    },
    {
      "channel": 3,
      "note": 64,
      "start": 24.1674,
      "duration": 0.0141,
      "velocity": 94,
      "chip": "ym2612"
    },
    {
      "channel": 2,
      "note": 59,
      "start": 24.1693,
      "duration": 0.0135,
      "velocity": 100,
      "chip": "ym2612"
    },
    {
      "channel": 1,
      "note": 64,
      "start": 24.1704,
      "duration": 0.0137,
      "velocity": 94,
      "chip": "ym2612"
    },
    {
      "channel": 0,
      "note": 36,
      "start": 24.178,
      "duration": 0.016,
      "velocity": 115,
      "chip": "ym2612"
    },
    {
      "channel": 3,
      "note": 64,
      "start": 24.1815,
      "duration": 0.016,
      "velocity": 94,
      "chip": "ym2612"
    },
    {
      "channel": 2,
      "note": 59,
      "start": 24.1827,
      "duration": 0.016,
      "velocity": 100,
      "chip": "ym2612"
    },
    {
      "channel": 1,
      "note": 64,
      "start": 24.1841,
      "duration": 0.0157,
      "velocity": 94,
      "chip": "ym2612"
    },
    {
      "channel": 0,
      "note": 37,
      "start": 24.194,
      "duration": 0.0161,
      "velocity": 115,
      "chip": "ym2612"
    },
    {
      "channel": 3,
      "note": 64,
      "start": 24.1976,
      "duration": 0.0161,
      "velocity": 94,
      "chip": "ym2612"
    },
    {
      "channel": 2,
      "note": 59,
      "start": 24.1987,
      "duration": 0.0161,
      "velocity": 100,
      "chip": "ym2612"
    },
    {
      "channel": 1,
      "note": 64,
      "start": 24.1999,
      "duration": 0.0161,
      "velocity": 94,
      "chip": "ym2612"
    },
    {
      "channel": 0,
      "note": 37,
      "start": 24.2102,
      "duration": 0.0161,
      "velocity": 115,
      "chip": "ym2612"
    },
    {
      "channel": 3,
      "note": 64,
      "start": 24.2137,
      "duration": 0.0161,
      "velocity": 94,
      "chip": "ym2612"
    },
    {
      "channel": 2,
      "note": 59,
      "start": 24.2148,
      "duration": 0.0161,
      "velocity": 100,
      "chip": "ym2612"
    },
    {
      "channel": 1,
      "note": 64,
      "start": 24.2159,
      "duration": 0.0162,
      "velocity": 94,
      "chip": "ym2612"
    },
    {
      "channel": 0,
      "note": 38,
      "start": 24.2263,
      "duration": 0.0161,
      "velocity": 115,
      "chip": "ym2612"
    },
    {
      "channel": 3,
      "note": 64,
      "start": 24.2298,
      "duration": 0.0161,
      "velocity": 94,
      "chip": "ym2612"
    },
    {
      "channel": 2,
      "note": 59,
      "start": 24.2309,
      "duration": 0.0161,
      "velocity": 100,
      "chip": "ym2612"
    },
    {
      "channel": 1,
      "note": 64,
      "start": 24.2321,
      "duration": 0.0161,
      "velocity": 94,
      "chip": "ym2612"
    },
    {
      "channel": 0,
      "note": 38,
      "start": 24.2424,
      "duration": 0.0161,
      "velocity": 115,
      "chip": "ym2612"
    },
    {
      "channel": 3,
      "note": 64,
      "start": 24.2459,
      "duration": 0.0161,
      "velocity": 94,
      "chip": "ym2612"
    },
    {
      "channel": 2,
      "note": 59,
      "start": 24.247,
      "duration": 0.0161,
      "velocity": 100,
      "chip": "ym2612"
    },
    {
      "channel": 1,
      "note": 64,
      "start": 24.2482,
      "duration": 0.0161,
      "velocity": 94,
      "chip": "ym2612"
    },
    {
      "channel": 0,
      "note": 39,
      "start": 24.2584,
      "duration": 0.0179,
      "velocity": 115,
      "chip": "ym2612"
    },
    {
      "channel": 3,
      "note": 64,
      "start": 24.262,
      "duration": 0.0186,
      "velocity": 94,
      "chip": "ym2612"
    },
    {
      "channel": 2,
      "note": 59,
      "start": 24.2631,
      "duration": 0.0189,
      "velocity": 100,
      "chip": "ym2612"
    },
    {
      "channel": 1,
      "note": 64,
      "start": 24.2643,
      "duration": 0.019,
      "velocity": 94,
      "chip": "ym2612"
    },
    {
      "channel": 0,
      "note": 36,
      "start": 24.2764,
      "duration": 0.0143,
      "velocity": 115,
      "chip": "ym2612"
    },
    {
      "channel": 5,
      "note": 76,
      "start": 24.2779,
      "duration": 0.0141,
      "velocity": 110,
      "chip": "ym2612"
    },
    {
      "channel": 4,
      "note": 73,
      "start": 24.2794,
      "duration": 0.0137,
      "velocity": 110,
      "chip": "ym2612"
    },
    {
      "channel": 3,
      "note": 64,
      "start": 24.2806,
      "duration": 0.0138,
      "velocity": 94,
      "chip": "ym2612"
    },
    {
      "channel": 2,
      "note": 61,
      "start": 24.282,
      "duration": 0.0136,
      "velocity": 100,
      "chip": "ym2612"
    },
    {
      "channel": 1,
      "note": 64,
      "start": 24.2833,
      "duration": 0.0135,
      "velocity": 94,
      "chip": "ym2612"
    },
    {
      "channel": 0,
      "note": 36,
      "start": 24.2907,
      "duration": 0.016,
      "velocity": 115,
      "chip": "ym2612"
    },
    {
      "channel": 5,
      "note": 76,
      "start": 24.292,
      "duration": 0.016,
      "velocity": 110,
      "chip": "ym2612"
    },
    {
      "channel": 4,
      "note": 73,
      "start": 24.2932,
      "duration": 0.0159,
      "velocity": 110,
      "chip": "ym2612"
    },
    {
      "channel": 3,
      "note": 64,
      "start": 24.2944,
      "duration": 0.0159,
      "velocity": 94,
      "chip": "ym2612"
    },
    {
      "channel": 2,
      "note": 61,
      "start": 24.2956,
      "duration": 0.0158,
      "velocity": 100,
      "chip": "ym2612"
    },
    {
      "channel": 1,
      "note": 64,
      "start": 24.2967,
      "duration": 0.0159,
      "velocity": 94,
      "chip": "ym2612"
    },
    {
      "channel": 0,
      "note": 37,
      "start": 24.3067,
      "duration": 0.0161,
      "velocity": 115,
      "chip": "ym2612"
    },
    {
      "channel": 5,
      "note": 76,
      "start": 24.3079,
      "duration": 0.0161,
      "velocity": 110,
      "chip": "ym2612"
    },
    {
      "channel": 4,
      "note": 73,
      "start": 24.3091,
      "duration": 0.0161,
      "velocity": 110,
      "chip": "ym2612"
    },
    {
      "channel": 3,
      "note": 64,
      "start": 24.3103,
      "duration": 0.0161,
      "velocity": 94,
      "chip": "ym2612"
    },
    {
      "channel": 2,
      "note": 61,
      "start": 24.3114,
      "duration": 0.0161,
      "velocity": 100,
      "chip": "ym2612"
    },
    {
      "channel": 1,
      "note": 64,
      "start": 24.3126,
      "duration": 0.0161,
      "velocity": 94,
      "chip": "ym2612"
    },
    {
      "channel": 0,
      "note": 37,
      "start": 24.3228,
      "duration": 0.0161,
      "velocity": 115,
      "chip": "ym2612"
    },
    {
      "channel": 5,
      "note": 76,
      "start": 24.324,
      "duration": 0.0161,
      "velocity": 110,
      "chip": "ym2612"
    },
    {
      "channel": 4,
      "note": 73,
      "start": 24.3252,
      "duration": 0.0161,
      "velocity": 110,
      "chip": "ym2612"
    },
    {
      "channel": 3,
      "note": 64,
      "start": 24.3264,
      "duration": 0.0161,
      "velocity": 94,
      "chip": "ym2612"
    },
    {
      "channel": 2,
      "note": 61,
      "start": 24.3275,
      "duration": 0.0161,
      "velocity": 100,
      "chip": "ym2612"
    },
    {
      "channel": 1,
      "note": 64,
      "start": 24.3287,
      "duration": 0.0161,
      "velocity": 94,
      "chip": "ym2612"
    },
    {
      "channel": 0,
      "note": 38,
      "start": 24.3389,
      "duration": 0.0162,
      "velocity": 115,
      "chip": "ym2612"
    },
    {
      "channel": 5,
      "note": 76,
      "start": 24.3401,
      "duration": 0.0161,
      "velocity": 110,
      "chip": "ym2612"
    },
    {
      "channel": 4,
      "note": 73,
      "start": 24.3413,
      "duration": 0.0161,
      "velocity": 110,
      "chip": "ym2612"
    },
    {
      "channel": 3,
      "note": 64,
      "start": 24.3425,
      "duration": 0.0161,
      "velocity": 94,
      "chip": "ym2612"
    },
    {
      "channel": 2,
      "note": 61,
      "start": 24.3436,
      "duration": 0.0161,
      "velocity": 100,
      "chip": "ym2612"
    },
    {
      "channel": 1,
      "note": 64,
      "start": 24.3448,
      "duration": 0.0161,
      "velocity": 94,
      "chip": "ym2612"
    },
    {
      "channel": 0,
      "note": 38,
      "start": 24.3551,
      "duration": 0.0179,
      "velocity": 127,
      "chip": "ym2612"
    },
    {
      "channel": 5,
      "note": 76,
      "start": 24.3562,
      "duration": 0.0179,
      "velocity": 110,
      "chip": "ym2612"
    },
    {
      "channel": 4,
      "note": 73,
      "start": 24.3574,
      "duration": 0.018,
      "velocity": 110,
      "chip": "ym2612"
    },
    {
      "channel": 3,
      "note": 64,
      "start": 24.3586,
      "duration": 0.0179,
      "velocity": 94,
      "chip": "ym2612"
    },
    {
      "channel": 2,
      "note": 61,
      "start": 24.3597,
      "duration": 0.0183,
      "velocity": 100,
      "chip": "ym2612"
    },
    {
      "channel": 1,
      "note": 64,
      "start": 24.3609,
      "duration": 0.0183,
      "velocity": 94,
      "chip": "ym2612"
    },
    {
      "channel": 0,
      "note": 88,
      "start": 24.373,
      "duration": 0.0144,
      "velocity": 127,
      "chip": "ym2612"
    },
    {
      "channel": 5,
      "note": 76,
      "start": 24.3741,
      "duration": 0.0144,
      "velocity": 110,
      "chip": "ym2612"
    },
    {
      "channel": 4,
      "note": 73,
      "start": 24.3754,
      "duration": 0.0144,
      "velocity": 110,
      "chip": "ym2612"
    },
    {
      "channel": 3,
      "note": 64,
      "start": 24.3765,
      "duration": 0.0144,
      "velocity": 94,
      "chip": "ym2612"
    },
    {
      "channel": 2,
      "note": 73,
      "start": 24.378,
      "duration": 0.0142,
      "velocity": 100,
      "chip": "ym2612"
    },
    {
      "channel": 1,
      "note": 64,
      "start": 24.3792,
      "duration": 0.0141,
      "velocity": 94,
      "chip": "ym2612"
    },
    {
      "channel": 0,
      "note": 86,
      "start": 24.3874,
      "duration": 0.016,
      "velocity": 127,
      "chip": "ym2612"
    },
    {
      "channel": 3,
      "note": 64,
      "start": 24.391,
      "duration": 0.016,
      "velocity": 94,
      "chip": "ym2612"
    },
    {
      "channel": 2,
      "note": 73,
      "start": 24.3922,
      "duration": 0.016,
      "velocity": 100,
      "chip": "ym2612"
    },
    {
      "channel": 1,
      "note": 64,
      "start": 24.3933,
      "duration": 0.016,
      "velocity": 94,
      "chip": "ym2612"
    },
    {
      "channel": 0,
      "note": 85,
      "start": 24.4034,
      "duration": 0.0164,
      "velocity": 127,
      "chip": "ym2612"
    },
    {
      "channel": 3,
      "note": 64,
      "start": 24.4069,
      "duration": 0.0164,
      "velocity": 94,
      "chip": "ym2612"
    },
    {
      "channel": 2,
      "note": 73,
      "start": 24.4081,
      "duration": 0.0164,
      "velocity": 100,
      "chip": "ym2612"
    },
    {
      "channel": 1,
      "note": 64,
      "start": 24.4093,
      "duration": 0.0164,
      "velocity": 94,
      "chip": "ym2612"
    },
    {
      "channel": 0,
      "note": 83,
      "start": 24.4198,
      "duration": 0.0163,
      "velocity": 127,
      "chip": "ym2612"
    },
    {
      "channel": 3,
      "note": 64,
      "start": 24.4233,
      "duration": 0.0163,
      "velocity": 94,
      "chip": "ym2612"
    },
    {
      "channel": 2,
      "note": 73,
      "start": 24.4245,
      "duration": 0.0163,
      "velocity": 100,
      "chip": "ym2612"
    },
    {
      "channel": 1,
      "note": 64,
      "start": 24.4257,
      "duration": 0.0163,
      "velocity": 94,
      "chip": "ym2612"
    },
    {
      "channel": 0,
      "note": 81,
      "start": 24.4361,
      "duration": 0.0161,
      "velocity": 127,
      "chip": "ym2612"
    },
    {
      "channel": 3,
      "note": 64,
      "start": 24.4397,
      "duration": 0.0161,
      "velocity": 94,
      "chip": "ym2612"
    },
    {
      "channel": 2,
      "note": 73,
      "start": 24.4408,
      "duration": 0.0162,
      "velocity": 100,
      "chip": "ym2612"
    },
    {
      "channel": 1,
      "note": 64,
      "start": 24.442,
      "duration": 0.0161,
      "velocity": 94,
      "chip": "ym2612"
    },
    {
      "channel": 0,
      "note": 80,
      "start": 24.4523,
      "duration": 0.016,
      "velocity": 127,
      "chip": "ym2612"
    },
    {
      "channel": 3,
      "note": 64,
      "start": 24.4558,
      "duration": 0.0161,
      "velocity": 94,
      "chip": "ym2612"
    },
    {
      "channel": 2,
      "note": 73,
      "start": 24.457,
      "duration": 0.016,
      "velocity": 100,
      "chip": "ym2612"
    },
    {
      "channel": 1,
      "note": 64,
      "start": 24.4582,
      "duration": 0.016,
      "velocity": 94,
      "chip": "ym2612"
    },
    {
      "channel": 0,
      "note": 78,
      "start": 24.4683,
      "duration": 0.0158,
      "velocity": 127,
      "chip": "ym2612"
    },
    {
      "channel": 3,
      "note": 64,
      "start": 24.4719,
      "duration": 0.0169,
      "velocity": 94,
      "chip": "ym2612"
    },
    {
      "channel": 2,
      "note": 73,
      "start": 24.473,
      "duration": 0.0172,
      "velocity": 100,
      "chip": "ym2612"
    },
    {
      "channel": 1,
      "note": 64,
      "start": 24.4742,
      "duration": 0.0172,
      "velocity": 94,
      "chip": "ym2612"
    },
    {
      "channel": 0,
      "note": 76,
      "start": 24.4841,
      "duration": 0.0159,
      "velocity": 127,
      "chip": "ym2612"
    },
    {
      "channel": 5,
      "note": 73,
      "start": 24.486,
      "duration": 0.0157,
      "velocity": 110,
      "chip": "ym2612"
    },
    {
      "channel": 4,
      "note": 76,
      "start": 24.4876,
      "duration": 0.0155,
      "velocity": 110,
      "chip": "ym2612"
    },
    {
      "channel": 3,
      "note": 64,
      "start": 24.4888,
      "duration": 0.0154,
      "velocity": 94,
      "chip": "ym2612"
    },
    {
      "channel": 2,
      "note": 61,
      "start": 24.4902,
      "duration": 0.0152,
      "velocity": 100,
      "chip": "ym2612"
    },
    {
      "channel": 1,
      "note": 64,
      "start": 24.4914,
      "duration": 0.0152,
      "velocity": 94,
      "chip": "ym2612"
    },
    {
      "channel": 0,
      "note": 75,
      "start": 24.4999,
      "duration": 0.0161,
      "velocity": 127,
      "chip": "ym2612"
    },
    {
      "channel": 5,
      "note": 73,
      "start": 24.5017,
      "duration": 0.0157,
      "velocity": 110,
      "chip": "ym2612"
    },
    {
      "channel": 4,
      "note": 76,
      "start": 24.503,
      "duration": 0.016,
      "velocity": 110,
      "chip": "ym2612"
    },
    {
      "channel": 3,
      "note": 64,
      "start": 24.5042,
      "duration": 0.016,
      "velocity": 94,
      "chip": "ym2612"
    },
    {
      "channel": 2,
      "note": 61,
      "start": 24.5055,
      "duration": 0.0159,
      "velocity": 100,
      "chip": "ym2612"
    },
    {
      "channel": 1,
      "note": 64,
      "start": 24.5066,
      "duration": 0.0159,
      "velocity": 94,
      "chip": "ym2612"
    },
    {
      "channel": 0,
      "note": 73,
      "start": 24.516,
      "duration": 0.0162,
      "velocity": 127,
      "chip": "ym2612"
    },
    {
      "channel": 5,
      "note": 73,
      "start": 24.5174,
      "duration": 0.0159,
      "velocity": 110,
      "chip": "ym2612"
    },
    {
      "channel": 4,
      "note": 76,
      "start": 24.519,
      "duration": 0.016,
      "velocity": 110,
      "chip": "ym2612"
    },
    {
      "channel": 3,
      "note": 64,
      "start": 24.5202,
      "duration": 0.0161,
      "velocity": 94,
      "chip": "ym2612"
    },
    {
      "channel": 2,
      "note": 61,
      "start": 24.5214,
      "duration": 0.0161,
      "velocity": 100,
      "chip": "ym2612"
    },
    {
      "channel": 1,
      "note": 64,
      "start": 24.5225,
      "duration": 0.0161,
      "velocity": 94,
      "chip": "ym2612"
    },
    {
      "channel": 0,
      "note": 71,
      "start": 24.5322,
      "duration": 0.0161,
      "velocity": 127,
      "chip": "ym2612"
    },
    {
      "channel": 5,
      "note": 73,
      "start": 24.5333,
      "duration": 0.0161,
      "velocity": 110,
      "chip": "ym2612"
    },
    {
      "channel": 4,
      "note": 76,
      "start": 24.535,
      "duration": 0.0158,
      "velocity": 110,
      "chip": "ym2612"
    },
    {
      "channel": 3,
      "note": 64,
      "start": 24.5363,
      "duration": 0.0161,
      "velocity": 94,
      "chip": "ym2612"
    },
    {
      "channel": 2,
      "note": 61,
      "start": 24.5375,
      "duration": 0.0161,
      "velocity": 100,
      "chip": "ym2612"
    },
    {
      "channel": 1,
      "note": 64,
      "start": 24.5386,
      "duration": 0.0161,
      "velocity": 94,
      "chip": "ym2612"
    },
    {
      "channel": 0,
      "note": 69,
      "start": 24.5483,
      "duration": 0.0161,
      "velocity": 127,
      "chip": "ym2612"
    },
    {
      "channel": 5,
      "note": 73,
      "start": 24.5494,
      "duration": 0.0161,
      "velocity": 110,
      "chip": "ym2612"
    },
    {
      "channel": 4,
      "note": 76,
      "start": 24.5508,
      "duration": 0.0159,
      "velocity": 110,
      "chip": "ym2612"
    },
    {
      "channel": 3,
      "note": 64,
      "start": 24.5524,
      "duration": 0.016,
      "velocity": 94,
      "chip": "ym2612"
    },
    {
      "channel": 2,
      "note": 61,
      "start": 24.5535,
      "duration": 0.0161,
      "velocity": 100,
      "chip": "ym2612"
    },
    {
      "channel": 1,
      "note": 64,
      "start": 24.5547,
      "duration": 0.0161,
      "velocity": 94,
      "chip": "ym2612"
    },
    {
      "channel": 0,
      "note": 68,
      "start": 24.5644,
      "duration": 0.0179,
      "velocity": 127,
      "chip": "ym2612"
    },
    {
      "channel": 5,
      "note": 73,
      "start": 24.5655,
      "duration": 0.018,
      "velocity": 110,
      "chip": "ym2612"
    },
    {
      "channel": 4,
      "note": 76,
      "start": 24.5667,
      "duration": 0.0186,
      "velocity": 110,
      "chip": "ym2612"
    },
    {
      "channel": 3,
      "note": 64,
      "start": 24.5684,
      "duration": 0.0181,
      "velocity": 94,
      "chip": "ym2612"
    },
    {
      "channel": 2,
      "note": 61,
      "start": 24.5696,
      "duration": 0.0183,
      "velocity": 100,
      "chip": "ym2612"
    },
    {
      "channel": 1,
      "note": 64,
      "start": 24.5708,
      "duration": 0.0184,
      "velocity": 94,
      "chip": "ym2612"
    },
    {
      "channel": 0,
      "note": 84,
      "start": 24.5824,
      "duration": 0.0143,
      "velocity": 127,
      "chip": "ym2612"
    },
    {
      "channel": 5,
      "note": 73,
      "start": 24.5835,
      "duration": 0.0143,
      "velocity": 110,
      "chip": "ym2612"
    },
    {
      "channel": 4,
      "note": 76,
      "start": 24.5853,
      "duration": 0.0137,
      "velocity": 110,
      "chip": "ym2612"
    },
    {
      "channel": 3,
      "note": 64,
      "start": 24.5865,
      "duration": 0.0137,
      "velocity": 94,
      "chip": "ym2612"
    },
    {
      "channel": 2,
      "note": 73,
      "start": 24.588,
      "duration": 0.014,
      "velocity": 100,
      "chip": "ym2612"
    },
    {
      "channel": 1,
      "note": 64,
      "start": 24.5892,
      "duration": 0.0141,
      "velocity": 94,
      "chip": "ym2612"
    },
    {
      "channel": 0,
      "note": 82,
      "start": 24.5966,
      "duration": 0.016,
      "velocity": 127,
      "chip": "ym2612"
    },
    {
      "channel": 3,
      "note": 64,
      "start": 24.6002,
      "duration": 0.016,
      "velocity": 94,
      "chip": "ym2612"
    },
    {
      "channel": 2,
      "note": 73,
      "start": 24.602,
      "duration": 0.0156,
      "velocity": 100,
      "chip": "ym2612"
    },
    {
      "channel": 1,
      "note": 64,
      "start": 24.6032,
      "duration": 0.0159,
      "velocity": 94,
      "chip": "ym2612"
    },
    {
      "channel": 0,
      "note": 81,
      "start": 24.6127,
      "duration": 0.0161,
      "velocity": 127,
      "chip": "ym2612"
    },
    {
      "channel": 3,
      "note": 64,
      "start": 24.6162,
      "duration": 0.0161,
      "velocity": 94,
      "chip": "ym2612"
    },
    {
      "channel": 2,
      "note": 73,
      "start": 24.6176,
      "duration": 0.0159,
      "velocity": 100,
      "chip": "ym2612"
    },
    {
      "channel": 1,
      "note": 64,
      "start": 24.6191,
      "duration": 0.016,
      "velocity": 94,
      "chip": "ym2612"
    },
    {
      "channel": 0,
      "note": 79,
      "start": 24.6287,
      "duration": 0.0161,
      "velocity": 127,
      "chip": "ym2612"
    },
    {
      "channel": 3,
      "note": 64,
      "start": 24.6323,
      "duration": 0.0161,
      "velocity": 94,
      "chip": "ym2612"
    },
    {
      "channel": 2,
      "note": 73,
      "start": 24.6334,
      "duration": 0.0161,
      "velocity": 100,
      "chip": "ym2612"
    },
    {
      "channel": 1,
      "note": 64,
      "start": 24.6352,
      "duration": 0.0158,
      "velocity": 94,
      "chip": "ym2612"
    },
    {
      "channel": 0,
      "note": 77,
      "start": 24.6448,
      "duration": 0.0161,
      "velocity": 127,
      "chip": "ym2612"
    },
    {
      "channel": 3,
      "note": 64,
      "start": 24.6484,
      "duration": 0.0161,
      "velocity": 94,
      "chip": "ym2612"
    },
    {
      "channel": 2,
      "note": 73,
      "start": 24.6495,
      "duration": 0.0161,
      "velocity": 100,
      "chip": "ym2612"
    },
    {
      "channel": 1,
      "note": 64,
      "start": 24.651,
      "duration": 0.0159,
      "velocity": 94,
      "chip": "ym2612"
    },
    {
      "channel": 0,
      "note": 76,
      "start": 24.6609,
      "duration": 0.0161,
      "velocity": 127,
      "chip": "ym2612"
    },
    {
      "channel": 3,
      "note": 64,
      "start": 24.6645,
      "duration": 0.0161,
      "velocity": 94,
      "chip": "ym2612"
    },
    {
      "channel": 2,
      "note": 73,
      "start": 24.6656,
      "duration": 0.0162,
      "velocity": 100,
      "chip": "ym2612"
    },
    {
      "channel": 1,
      "note": 64,
      "start": 24.6668,
      "duration": 0.0161,
      "velocity": 94,
      "chip": "ym2612"
    },
    {
      "channel": 0,
      "note": 74,
      "start": 24.6771,
      "duration": 0.018,
      "velocity": 127,
      "chip": "ym2612"
    },
    {
      "channel": 3,
      "note": 64,
      "start": 24.6806,
      "duration": 0.0187,
      "velocity": 94,
      "chip": "ym2612"
    },
    {
      "channel": 2,
      "note": 73,
      "start": 24.6818,
      "duration": 0.0194,
      "velocity": 100,
      "chip": "ym2612"
    },
    {
      "channel": 1,
      "note": 64,
      "start": 24.6829,
      "duration": 0.0196,
      "velocity": 94,
      "chip": "ym2612"
    },
    {
      "channel": 0,
      "note": 78,
      "start": 24.6951,
      "duration": 0.0143,
      "velocity": 127,
      "chip": "ym2612"
    },
    {
      "channel": 5,
      "note": 76,
      "start": 24.6966,
      "duration": 0.0139,
      "velocity": 110,
      "chip": "ym2612"
    },
    {
      "channel": 4,
      "note": 73,
      "start": 24.6981,
      "duration": 0.0137,
      "velocity": 110,
      "chip": "ym2612"
    },
    {
      "channel": 3,
      "note": 64,
      "start": 24.6993,
      "duration": 0.0137,
      "velocity": 94,
      "chip": "ym2612"
    },
    {
      "channel": 2,
      "note": 61,
      "start": 24.7012,
      "duration": 0.013,
      "velocity": 100,
      "chip": "ym2612"
    },
    {
      "channel": 1,
      "note": 64,
      "start": 24.7025,
      "duration": 0.0128,
      "velocity": 94,
      "chip": "ym2612"
    },
    {
      "channel": 0,
      "note": 76,
      "start": 24.7093,
      "duration": 0.016,
      "velocity": 127,
      "chip": "ym2612"
    },
    {
      "channel": 5,
      "note": 76,
      "start": 24.7105,
      "duration": 0.016,
      "velocity": 110,
      "chip": "ym2612"
    },
    {
      "channel": 4,
      "note": 73,
      "start": 24.7118,
      "duration": 0.0159,
      "velocity": 110,
      "chip": "ym2612"
    },
    {
      "channel": 3,
      "note": 64,
      "start": 24.713,
      "duration": 0.016,
      "velocity": 94,
      "chip": "ym2612"
    },
    {
      "channel": 2,
      "note": 61,
      "start": 24.7142,
      "duration": 0.0158,
      "velocity": 100,
      "chip": "ym2612"
    },
    {
      "channel": 1,
      "note": 64,
      "start": 24.7154,
      "duration": 0.0159,
      "velocity": 94,
      "chip": "ym2612"
    },
    {
      "channel": 0,
      "note": 75,
      "start": 24.7254,
      "duration": 0.0161,
      "velocity": 127,
      "chip": "ym2612"
    },
    {
      "channel": 5,
      "note": 76,
      "start": 24.7266,
      "duration": 0.0161,
      "velocity": 110,
      "chip": "ym2612"
    },
    {
      "channel": 4,
      "note": 73,
      "start": 24.7277,
      "duration": 0.0161,
      "velocity": 110,
      "chip": "ym2612"
    },
    {
      "channel": 3,
      "note": 64,
      "start": 24.7289,
      "duration": 0.0161,
      "velocity": 94,
      "chip": "ym2612"
    },
    {
      "channel": 2,
      "note": 61,
      "start": 24.7301,
      "duration": 0.0161,
      "velocity": 100,
      "chip": "ym2612"
    },
    {
      "channel": 1,
      "note": 64,
      "start": 24.7312,
      "duration": 0.0161,
      "velocity": 94,
      "chip": "ym2612"
    },
    {
      "channel": 0,
      "note": 73,
      "start": 24.7415,
      "duration": 0.0161,
      "velocity": 127,
      "chip": "ym2612"
    },
    {
      "channel": 5,
      "note": 76,
      "start": 24.7427,
      "duration": 0.0161,
      "velocity": 110,
      "chip": "ym2612"
    },
    {
      "channel": 4,
      "note": 73,
      "start": 24.7438,
      "duration": 0.0161,
      "velocity": 110,
      "chip": "ym2612"
    },
    {
      "channel": 3,
      "note": 64,
      "start": 24.745,
      "duration": 0.0161,
      "velocity": 94,
      "chip": "ym2612"
    },
    {
      "channel": 2,
      "note": 61,
      "start": 24.7462,
      "duration": 0.0161,
      "velocity": 100,
      "chip": "ym2612"
    },
    {
      "channel": 1,
      "note": 64,
      "start": 24.7473,
      "duration": 0.0161,
      "velocity": 94,
      "chip": "ym2612"
    },
    {
      "channel": 0,
      "note": 71,
      "start": 24.7576,
      "duration": 0.0161,
      "velocity": 127,
      "chip": "ym2612"
    },
    {
      "channel": 5,
      "note": 76,
      "start": 24.7588,
      "duration": 0.0161,
      "velocity": 110,
      "chip": "ym2612"
    },
    {
      "channel": 4,
      "note": 73,
      "start": 24.7599,
      "duration": 0.0161,
      "velocity": 110,
      "chip": "ym2612"
    },
    {
      "channel": 3,
      "note": 64,
      "start": 24.7611,
      "duration": 0.0161,
      "velocity": 94,
      "chip": "ym2612"
    },
    {
      "channel": 2,
      "note": 61,
      "start": 24.7623,
      "duration": 0.0161,
      "velocity": 100,
      "chip": "ym2612"
    },
    {
      "channel": 1,
      "note": 64,
      "start": 24.7634,
      "duration": 0.0162,
      "velocity": 94,
      "chip": "ym2612"
    },
    {
      "channel": 0,
      "note": 70,
      "start": 24.7737,
      "duration": 0.0179,
      "velocity": 115,
      "chip": "ym2612"
    },
    {
      "channel": 5,
      "note": 76,
      "start": 24.7749,
      "duration": 0.0179,
      "velocity": 110,
      "chip": "ym2612"
    },
    {
      "channel": 4,
      "note": 73,
      "start": 24.776,
      "duration": 0.018,
      "velocity": 110,
      "chip": "ym2612"
    },
    {
      "channel": 3,
      "note": 64,
      "start": 24.7772,
      "duration": 0.0179,
      "velocity": 94,
      "chip": "ym2612"
    },
    {
      "channel": 2,
      "note": 61,
      "start": 24.7784,
      "duration": 0.018,
      "velocity": 100,
      "chip": "ym2612"
    },
    {
      "channel": 1,
      "note": 64,
      "start": 24.7796,
      "duration": 0.0179,
      "velocity": 94,
      "chip": "ym2612"
    },
    {
      "channel": 0,
      "note": 36,
      "start": 24.7917,
      "duration": 0.0143,
      "velocity": 115,
      "chip": "ym2612"
    },
    {
      "channel": 5,
      "note": 76,
      "start": 24.7928,
      "duration": 0.0143,
      "velocity": 110,
      "chip": "ym2612"
    },
    {
      "channel": 4,
      "note": 73,
      "start": 24.794,
      "duration": 0.0143,
      "velocity": 110,
      "chip": "ym2612"
    },
    {
      "channel": 3,
      "note": 64,
      "start": 24.7951,
      "duration": 0.0144,
      "velocity": 94,
      "chip": "ym2612"
    },
    {
      "channel": 2,
      "note": 61,
      "start": 24.7963,
      "duration": 0.0143,
      "velocity": 100,
      "chip": "ym2612"
    },
    {
      "channel": 1,
      "note": 64,
      "start": 24.7975,
      "duration": 0.0143,
      "velocity": 94,
      "chip": "ym2612"
    },
    {
      "channel": 0,
      "note": 36,
      "start": 24.806,
      "duration": 0.016,
      "velocity": 115,
      "chip": "ym2612"
    },
    {
      "channel": 3,
      "note": 64,
      "start": 24.8095,
      "duration": 0.016,
      "velocity": 94,
      "chip": "ym2612"
    },
    {
      "channel": 2,
      "note": 61,
      "start": 24.8107,
      "duration": 0.016,
      "velocity": 100,
      "chip": "ym2612"
    },
    {
      "channel": 1,
      "note": 64,
      "start": 24.8118,
      "duration": 0.016,
      "velocity": 94,
      "chip": "ym2612"
    },
    {
      "channel": 0,
      "note": 37,
      "start": 24.822,
      "duration": 0.0161,
      "velocity": 115,
      "chip": "ym2612"
    },
    {
      "channel": 3,
      "note": 64,
      "start": 24.8255,
      "duration": 0.0161,
      "velocity": 94,
      "chip": "ym2612"
    },
    {
      "channel": 2,
      "note": 61,
      "start": 24.8267,
      "duration": 0.0161,
      "velocity": 100,
      "chip": "ym2612"
    },
    {
      "channel": 1,
      "note": 64,
      "start": 24.8278,
      "duration": 0.0162,
      "velocity": 94,
      "chip": "ym2612"
    },
    {
      "channel": 0,
      "note": 37,
      "start": 24.8381,
      "duration": 0.0161,
      "velocity": 115,
      "chip": "ym2612"
    },
    {
      "channel": 3,
      "note": 64,
      "start": 24.8416,
      "duration": 0.0161,
      "velocity": 94,
      "chip": "ym2612"
    },
    {
      "channel": 2,
      "note": 61,
      "start": 24.8428,
      "duration": 0.0161,
      "velocity": 100,
      "chip": "ym2612"
    },
    {
      "channel": 1,
      "note": 64,
      "start": 24.844,
      "duration": 0.016,
      "velocity": 94,
      "chip": "ym2612"
    },
    {
      "channel": 0,
      "note": 38,
      "start": 24.8542,
      "duration": 0.0162,
      "velocity": 115,
      "chip": "ym2612"
    },
    {
      "channel": 3,
      "note": 64,
      "start": 24.8577,
      "duration": 0.0161,
      "velocity": 94,
      "chip": "ym2612"
    },
    {
      "channel": 2,
      "note": 61,
      "start": 24.8589,
      "duration": 0.0162,
      "velocity": 100,
      "chip": "ym2612"
    },
    {
      "channel": 1,
      "note": 64,
      "start": 24.86,
      "duration": 0.0161,
      "velocity": 94,
      "chip": "ym2612"
    },
    {
      "channel": 0,
      "note": 38,
      "start": 24.8703,
      "duration": 0.0162,
      "velocity": 115,
      "chip": "ym2612"
    },
    {
      "channel": 3,
      "note": 64,
      "start": 24.8738,
      "duration": 0.0163,
      "velocity": 94,
      "chip": "ym2612"
    },
    {
      "channel": 2,
      "note": 61,
      "start": 24.8751,
      "duration": 0.0162,
      "velocity": 100,
      "chip": "ym2612"
    },
    {
      "channel": 1,
      "note": 64,
      "start": 24.8762,
      "duration": 0.0163,
      "velocity": 94,
      "chip": "ym2612"
    },
    {
      "channel": 0,
      "note": 39,
      "start": 24.8866,
      "duration": 0.0182,
      "velocity": 124,
      "chip": "ym2612"
    },
    {
      "channel": 3,
      "note": 64,
      "start": 24.8901,
      "duration": 0.0189,
      "velocity": 94,
      "chip": "ym2612"
    },
    {
      "channel": 2,
      "note": 61,
      "start": 24.8913,
      "duration": 0.0193,
      "velocity": 100,
      "chip": "ym2612"
    },
    {
      "channel": 1,
      "note": 64,
      "start": 24.8925,
      "duration": 0.0193,
      "velocity": 94,
      "chip": "ym2612"
    },
    {
      "channel": 0,
      "note": 84,
      "start": 24.9048,
      "duration": 0.0145,
      "velocity": 124,
      "chip": "ym2612"
    },
    {
      "channel": 5,
      "note": 73,
      "start": 24.9063,
      "duration": 0.0141,
      "velocity": 110,
      "chip": "ym2612"
    },
    {
      "channel": 4,
      "note": 76,
      "start": 24.9079,
      "duration": 0.0137,
      "velocity": 110,
      "chip": "ym2612"
    },
    {
      "channel": 3,
      "note": 64,
      "start": 24.9091,
      "duration": 0.0138,
      "velocity": 94,
      "chip": "ym2612"
    },
    {
      "channel": 2,
      "note": 56,
      "start": 24.9105,
      "duration": 0.0136,
      "velocity": 100,
      "chip": "ym2612"
    },
    {
      "channel": 1,
      "note": 64,
      "start": 24.9117,
      "duration": 0.0135,
      "velocity": 94,
      "chip": "ym2612"
    },
    {
      "channel": 0,
      "note": 82,
      "start": 24.9193,
      "duration": 0.016,
      "velocity": 124,
      "chip": "ym2612"
    },
    {
      "channel": 5,
      "note": 73,
      "start": 24.9205,
      "duration": 0.016,
      "velocity": 110,
      "chip": "ym2612"
    },
    {
      "channel": 4,
      "note": 76,
      "start": 24.9217,
      "duration": 0.016,
      "velocity": 110,
      "chip": "ym2612"
    },
    {
      "channel": 3,
      "note": 64,
      "start": 24.9229,
      "duration": 0.016,
      "velocity": 94,
      "chip": "ym2612"
    },
    {
      "channel": 2,
      "note": 56,
      "start": 24.9241,
      "duration": 0.0159,
      "velocity": 100,
      "chip": "ym2612"
    },
    {
      "channel": 1,
      "note": 64,
      "start": 24.9252,
      "duration": 0.016,
      "velocity": 94,
      "chip": "ym2612"
    },
    {
      "channel": 0,
      "note": 80,
      "start": 24.9353,
      "duration": 0.016,
      "velocity": 124,
      "chip": "ym2612"
    },
    {
      "channel": 5,
      "note": 73,
      "start": 24.9364,
      "duration": 0.0161,
      "velocity": 110,
      "chip": "ym2612"
    },
    {
      "channel": 4,
      "note": 76,
      "start": 24.9376,
      "duration": 0.0161,
      "velocity": 110,
      "chip": "ym2612"
    },
    {
      "channel": 3,
      "note": 64,
      "start": 24.9388,
      "duration": 0.0161,
      "velocity": 94,
      "chip": "ym2612"
    },
    {
      "channel": 2,
      "note": 56,
      "start": 24.94,
      "duration": 0.0161,
      "velocity": 100,
      "chip": "ym2612"
    },
    {
      "channel": 1,
      "note": 64,
      "start": 24.9412,
      "duration": 0.0161,
      "velocity": 94,
      "chip": "ym2612"
    },
    {
      "channel": 0,
      "note": 77,
      "start": 24.9513,
      "duration": 0.0156,
      "velocity": 124,
      "chip": "ym2612"
    },
    {
      "channel": 5,
      "note": 73,
      "start": 24.9525,
      "duration": 0.0161,
      "velocity": 110,
      "chip": "ym2612"
    },
    {
      "channel": 4,
      "note": 76,
      "start": 24.9537,
      "duration": 0.0161,
      "velocity": 110,
      "chip": "ym2612"
    },
    {
      "channel": 3,
      "note": 64,
      "start": 24.9549,
      "duration": 0.0161,
      "velocity": 94,
      "chip": "ym2612"
    },
    {
      "channel": 2,
      "note": 56,
      "start": 24.9561,
      "duration": 0.0161,
      "velocity": 100,
      "chip": "ym2612"
    },
    {
      "channel": 1,
      "note": 64,
      "start": 24.9573,
      "duration": 0.0161,
      "velocity": 94,
      "chip": "ym2612"
    },
    {
      "channel": 0,
      "note": 75,
      "start": 24.9669,
      "duration": 0.0161,
      "velocity": 124,
      "chip": "ym2612"
    },
    {
      "channel": 5,
      "note": 73,
      "start": 24.9687,
      "duration": 0.016,
      "velocity": 110,
      "chip": "ym2612"
    },
    {
      "channel": 4,
      "note": 76,
      "start": 24.9698,
      "duration": 0.0161,
      "velocity": 110,
      "chip": "ym2612"
    },
    {
      "channel": 3,
      "note": 64,
      "start": 24.971,
      "duration": 0.0161,
      "velocity": 94,
      "chip": "ym2612"
    },
    {
      "channel": 2,
      "note": 56,
      "start": 24.9722,
      "duration": 0.0161,
      "velocity": 100,
      "chip": "ym2612"
    },
    {
      "channel": 1,
      "note": 64,
      "start": 24.9734,
      "duration": 0.0161,
      "velocity": 94,
      "chip": "ym2612"
    },
    {
      "channel": 0,
      "note": 72,
      "start": 24.983,
      "duration": 0.0185,
      "velocity": 124,
      "chip": "ym2612"
    },
    {
      "channel": 5,
      "note": 73,
      "start": 24.9847,
      "duration": 0.018,
      "velocity": 110,
      "chip": "ym2612"
    },
    {
      "channel": 4,
      "note": 76,
      "start": 24.9859,
      "duration": 0.0179,
      "velocity": 110,
      "chip": "ym2612"
    },
    {
      "channel": 3,
      "note": 64,
      "start": 24.9871,
      "duration": 0.0179,
      "velocity": 94,
      "chip": "ym2612"
    },
    {
      "channel": 2,
      "note": 56,
      "start": 24.9883,
      "duration": 0.0179,
      "velocity": 100,
      "chip": "ym2612"
    },
    {
      "channel": 1,
      "note": 64,
      "start": 24.9895,
      "duration": 0.018,
      "velocity": 94,
      "chip": "ym2612"
    },
    {
      "channel": 0,
      "note": 84,
      "start": 25.0015,
      "duration": 0.0138,
      "velocity": 124,
      "chip": "ym2612"
    },
    {
      "channel": 5,
      "note": 73,
      "start": 25.0027,
      "duration": 0.0137,
      "velocity": 110,
      "chip": "ym2612"
    },
    {
      "channel": 4,
      "note": 76,
      "start": 25.0039,
      "duration": 0.0143,
      "velocity": 110,
      "chip": "ym2612"
    },
    {
      "channel": 3,
      "note": 64,
      "start": 25.0051,
      "duration": 0.0143,
      "velocity": 94,
      "chip": "ym2612"
    },
    {
      "channel": 2,
      "note": 56,
      "start": 25.0062,
      "duration": 0.0143,
      "velocity": 100,
      "chip": "ym2612"
    },
    {
      "channel": 1,
      "note": 64,
      "start": 25.0074,
      "duration": 0.0143,
      "velocity": 94,
      "chip": "ym2612"
    },
    {
      "channel": 0,
      "note": 82,
      "start": 25.0153,
      "duration": 0.016,
      "velocity": 124,
      "chip": "ym2612"
    },
    {
      "channel": 3,
      "note": 64,
      "start": 25.0194,
      "duration": 0.016,
      "velocity": 94,
      "chip": "ym2612"
    },
    {
      "channel": 2,
      "note": 56,
      "start": 25.0205,
      "duration": 0.016,
      "velocity": 100,
      "chip": "ym2612"
    },
    {
      "channel": 1,
      "note": 64,
      "start": 25.0217,
      "duration": 0.016,
      "velocity": 94,
      "chip": "ym2612"
    },
    {
      "channel": 0,
      "note": 80,
      "start": 25.0313,
      "duration": 0.0161,
      "velocity": 124,
      "chip": "ym2612"
    },
    {
      "channel": 3,
      "note": 64,
      "start": 25.0354,
      "duration": 0.0161,
      "velocity": 94,
      "chip": "ym2612"
    },
    {
      "channel": 2,
      "note": 56,
      "start": 25.0366,
      "duration": 0.0162,
      "velocity": 100,
      "chip": "ym2612"
    },
    {
      "channel": 1,
      "note": 64,
      "start": 25.0378,
      "duration": 0.0161,
      "velocity": 94,
      "chip": "ym2612"
    },
    {
      "channel": 0,
      "note": 77,
      "start": 25.0474,
      "duration": 0.0161,
      "velocity": 124,
      "chip": "ym2612"
    },
    {
      "channel": 3,
      "note": 64,
      "start": 25.0515,
      "duration": 0.0158,
      "velocity": 94,
      "chip": "ym2612"
    },
    {
      "channel": 2,
      "note": 56,
      "start": 25.0527,
      "duration": 0.0161,
      "velocity": 100,
      "chip": "ym2612"
    },
    {
      "channel": 1,
      "note": 64,
      "start": 25.0539,
      "duration": 0.0161,
      "velocity": 94,
      "chip": "ym2612"
    },
    {
      "channel": 0,
      "note": 75,
      "start": 25.0635,
      "duration": 0.0162,
      "velocity": 124,
      "chip": "ym2612"
    },
    {
      "channel": 3,
      "note": 64,
      "start": 25.0673,
      "duration": 0.0159,
      "velocity": 94,
      "chip": "ym2612"
    },
    {
      "channel": 2,
      "note": 56,
      "start": 25.0688,
      "duration": 0.016,
      "velocity": 100,
      "chip": "ym2612"
    },
    {
      "channel": 1,
      "note": 64,
      "start": 25.07,
      "duration": 0.0162,
      "velocity": 94,
      "chip": "ym2612"
    },
    {
      "channel": 0,
      "note": 72,
      "start": 25.0796,
      "duration": 0.0161,
      "velocity": 124,
      "chip": "ym2612"
    },
    {
      "channel": 3,
      "note": 64,
      "start": 25.0831,
      "duration": 0.0161,
      "velocity": 94,
      "chip": "ym2612"
    },
    {
      "channel": 2,
      "note": 56,
      "start": 25.0849,
      "duration": 0.0158,
      "velocity": 100,
      "chip": "ym2612"
    },
    {
      "channel": 1,
      "note": 64,
      "start": 25.0861,
      "duration": 0.0161,
      "velocity": 94,
      "chip": "ym2612"
    },
    {
      "channel": 0,
      "note": 70,
      "start": 25.0957,
      "duration": 0.0179,
      "velocity": 115,
      "chip": "ym2612"
    },
    {
      "channel": 3,
      "note": 64,
      "start": 25.0992,
      "duration": 0.0192,
      "velocity": 94,
      "chip": "ym2612"
    },
    {
      "channel": 2,
      "note": 56,
      "start": 25.1006,
      "duration": 0.0193,
      "velocity": 100,
      "chip": "ym2612"
    },
    {
      "channel": 1,
      "note": 64,
      "start": 25.1022,
      "duration": 0.019,
      "velocity": 94,
      "chip": "ym2612"
    },
    {
      "channel": 0,
      "note": 36,
      "start": 25.1137,
      "duration": 0.0143,
      "velocity": 115,
      "chip": "ym2612"
    },
    {
      "channel": 5,
      "note": 76,
      "start": 25.1151,
      "duration": 0.0141,
      "velocity": 110,
      "chip": "ym2612"
    },
    {
      "channel": 4,
      "note": 73,
      "start": 25.1166,
      "duration": 0.0138,
      "velocity": 110,
      "chip": "ym2612"
    },
    {
      "channel": 3,
      "note": 64,
      "start": 25.1184,
      "duration": 0.0132,
      "velocity": 94,
      "chip": "ym2612"
    },
    {
      "channel": 2,
      "note": 61,
      "start": 25.12,
      "duration": 0.0129,
      "velocity": 100,
      "chip": "ym2612"
    },
    {
      "channel": 1,
      "note": 64,
      "start": 25.1212,
      "duration": 0.0134,
      "velocity": 94,
      "chip": "ym2612"
    },
    {
      "channel": 0,
      "note": 36,
      "start": 25.128,
      "duration": 0.016,
      "velocity": 115,
      "chip": "ym2612"
    },
    {
      "channel": 5,
      "note": 76,
      "start": 25.1292,
      "duration": 0.016,
      "velocity": 110,
      "chip": "ym2612"
    },
    {
      "channel": 4,
      "note": 73,
      "start": 25.1305,
      "duration": 0.0159,
      "velocity": 110,
      "chip": "ym2612"
    },
    {
      "channel": 3,
      "note": 64,
      "start": 25.1316,
      "duration": 0.0159,
      "velocity": 94,
      "chip": "ym2612"
    },
    {
      "channel": 2,
      "note": 61,
      "start": 25.1329,
      "duration": 0.0158,
      "velocity": 100,
      "chip": "ym2612"
    },
    {
      "channel": 1,
      "note": 64,
      "start": 25.1346,
      "duration": 0.0153,
      "velocity": 94,
      "chip": "ym2612"
    },
    {
      "channel": 0,
      "note": 37,
      "start": 25.144,
      "duration": 0.0161,
      "velocity": 115,
      "chip": "ym2612"
    },
    {
      "channel": 5,
      "note": 76,
      "start": 25.1451,
      "duration": 0.0161,
      "velocity": 110,
      "chip": "ym2612"
    },
    {
      "channel": 4,
      "note": 73,
      "start": 25.1463,
      "duration": 0.0161,
      "velocity": 110,
      "chip": "ym2612"
    },
    {
      "channel": 3,
      "note": 64,
      "start": 25.1475,
      "duration": 0.0161,
      "velocity": 94,
      "chip": "ym2612"
    },
    {
      "channel": 2,
      "note": 61,
      "start": 25.1487,
      "duration": 0.0161,
      "velocity": 100,
      "chip": "ym2612"
    },
    {
      "channel": 1,
      "note": 64,
      "start": 25.1499,
      "duration": 0.0161,
      "velocity": 94,
      "chip": "ym2612"
    },
    {
      "channel": 0,
      "note": 37,
      "start": 25.1601,
      "duration": 0.0161,
      "velocity": 115,
      "chip": "ym2612"
    },
    {
      "channel": 5,
      "note": 76,
      "start": 25.1612,
      "duration": 0.0161,
      "velocity": 110,
      "chip": "ym2612"
    },
    {
      "channel": 4,
      "note": 73,
      "start": 25.1624,
      "duration": 0.0161,
      "velocity": 110,
      "chip": "ym2612"
    },
    {
      "channel": 3,
      "note": 64,
      "start": 25.1637,
      "duration": 0.0161,
      "velocity": 94,
      "chip": "ym2612"
    },
    {
      "channel": 2,
      "note": 61,
      "start": 25.1648,
      "duration": 0.0161,
      "velocity": 100,
      "chip": "ym2612"
    },
    {
      "channel": 1,
      "note": 64,
      "start": 25.166,
      "duration": 0.016,
      "velocity": 94,
      "chip": "ym2612"
    },
    {
      "channel": 0,
      "note": 38,
      "start": 25.1762,
      "duration": 0.0161,
      "velocity": 115,
      "chip": "ym2612"
    },
    {
      "channel": 5,
      "note": 76,
      "start": 25.1773,
      "duration": 0.0161,
      "velocity": 110,
      "chip": "ym2612"
    },
    {
      "channel": 4,
      "note": 73,
      "start": 25.1785,
      "duration": 0.0161,
      "velocity": 110,
      "chip": "ym2612"
    },
    {
      "channel": 3,
      "note": 64,
      "start": 25.1798,
      "duration": 0.0161,
      "velocity": 94,
      "chip": "ym2612"
    },
    {
      "channel": 2,
      "note": 61,
      "start": 25.1809,
      "duration": 0.0161,
      "velocity": 100,
      "chip": "ym2612"
    },
    {
      "channel": 1,
      "note": 64,
      "start": 25.182,
      "duration": 0.0161,
      "velocity": 94,
      "chip": "ym2612"
    },
    {
      "channel": 0,
      "note": 38,
      "start": 25.1923,
      "duration": 0.0161,
      "velocity": 115,
      "chip": "ym2612"
    },
    {
      "channel": 5,
      "note": 76,
      "start": 25.1935,
      "duration": 0.0161,
      "velocity": 110,
      "chip": "ym2612"
    },
    {
      "channel": 4,
      "note": 73,
      "start": 25.1946,
      "duration": 0.0161,
      "velocity": 110,
      "chip": "ym2612"
    },
    {
      "channel": 3,
      "note": 64,
      "start": 25.1959,
      "duration": 0.0161,
      "velocity": 94,
      "chip": "ym2612"
    },
    {
      "channel": 2,
      "note": 61,
      "start": 25.197,
      "duration": 0.0161,
      "velocity": 100,
      "chip": "ym2612"
    },
    {
      "channel": 1,
      "note": 64,
      "start": 25.1981,
      "duration": 0.0161,
      "velocity": 94,
      "chip": "ym2612"
    },
    {
      "channel": 0,
      "note": 39,
      "start": 25.2084,
      "duration": 0.0161,
      "velocity": 115,
      "chip": "ym2612"
    },
    {
      "channel": 5,
      "note": 76,
      "start": 25.2096,
      "duration": 0.0161,
      "velocity": 110,
      "chip": "ym2612"
    },
    {
      "channel": 4,
      "note": 73,
      "start": 25.2107,
      "duration": 0.0162,
      "velocity": 110,
      "chip": "ym2612"
    },
    {
      "channel": 3,
      "note": 64,
      "start": 25.212,
      "duration": 0.0161,
      "velocity": 94,
      "chip": "ym2612"
    },
    {
      "channel": 2,
      "note": 61,
      "start": 25.2131,
      "duration": 0.0162,
      "velocity": 100,
      "chip": "ym2612"
    },
    {
      "channel": 1,
      "note": 64,
      "start": 25.2142,
      "duration": 0.0162,
      "velocity": 94,
      "chip": "ym2612"
    },
    {
      "channel": 0,
      "note": 39,
      "start": 25.2245,
      "duration": 0.0161,
      "velocity": 115,
      "chip": "ym2612"
    },
    {
      "channel": 3,
      "note": 64,
      "start": 25.228,
      "duration": 0.0161,
      "velocity": 94,
      "chip": "ym2612"
    },
    {
      "channel": 2,
      "note": 61,
      "start": 25.2293,
      "duration": 0.016,
      "velocity": 100,
      "chip": "ym2612"
    },
    {
      "channel": 1,
      "note": 64,
      "start": 25.2305,
      "duration": 0.016,
      "velocity": 94,
      "chip": "ym2612"
    },
    {
      "channel": 0,
      "note": 40,
      "start": 25.2406,
      "duration": 0.0162,
      "velocity": 115,
      "chip": "ym2612"
    },
    {
      "channel": 3,
      "note": 64,
      "start": 25.2441,
      "duration": 0.0161,
      "velocity": 94,
      "chip": "ym2612"
    },
    {
      "channel": 2,
      "note": 61,
      "start": 25.2453,
      "duration": 0.0161,
      "velocity": 100,
      "chip": "ym2612"
    },
    {
      "channel": 1,
      "note": 64,
      "start": 25.2465,
      "duration": 0.0161,
      "velocity": 94,
      "chip": "ym2612"
    },
    {
      "channel": 0,
      "note": 40,
      "start": 25.2567,
      "duration": 0.0161,
      "velocity": 115,
      "chip": "ym2612"
    },
    {
      "channel": 3,
      "note": 64,
      "start": 25.2602,
      "duration": 0.0161,
      "velocity": 94,
      "chip": "ym2612"
    },
    {
      "channel": 2,
      "note": 61,
      "start": 25.2614,
      "duration": 0.0162,
      "velocity": 100,
      "chip": "ym2612"
    },
    {
      "channel": 1,
      "note": 64,
      "start": 25.2626,
      "duration": 0.0161,
      "velocity": 94,
      "chip": "ym2612"
    },
    {
      "channel": 0,
      "note": 40,
      "start": 25.2728,
      "duration": 0.0161,
      "velocity": 115,
      "chip": "ym2612"
    },
    {
      "channel": 3,
      "note": 64,
      "start": 25.2763,
      "duration": 0.0161,
      "velocity": 94,
      "chip": "ym2612"
    },
    {
      "channel": 2,
      "note": 61,
      "start": 25.2775,
      "duration": 0.0161,
      "velocity": 100,
      "chip": "ym2612"
    },
    {
      "channel": 1,
      "note": 64,
      "start": 25.2787,
      "duration": 0.0161,
      "velocity": 94,
      "chip": "ym2612"
    },
    {
      "channel": 0,
      "note": 41,
      "start": 25.2889,
      "duration": 0.0161,
      "velocity": 115,
      "chip": "ym2612"
    },
    {
      "channel": 3,
      "note": 64,
      "start": 25.2924,
      "duration": 0.0161,
      "velocity": 94,
      "chip": "ym2612"
    },
    {
      "channel": 2,
      "note": 61,
      "start": 25.2936,
      "duration": 0.0161,
      "velocity": 100,
      "chip": "ym2612"
    },
    {
      "channel": 1,
      "note": 64,
      "start": 25.2948,
      "duration": 0.0161,
      "velocity": 94,
      "chip": "ym2612"
    },
    {
      "channel": 0,
      "note": 41,
      "start": 25.305,
      "duration": 0.0161,
      "velocity": 115,
      "chip": "ym2612"
    },
    {
      "channel": 3,
      "note": 64,
      "start": 25.3085,
      "duration": 0.0172,
      "velocity": 94,
      "chip": "ym2612"
    },
    {
      "channel": 2,
      "note": 61,
      "start": 25.3097,
      "duration": 0.0172,
      "velocity": 100,
      "chip": "ym2612"
    },
    {
      "channel": 1,
      "note": 64,
      "start": 25.3109,
      "duration": 0.0172,
      "velocity": 94,
      "chip": "ym2612"
    },
    {
      "channel": 0,
      "note": 42,
      "start": 25.3211,
      "duration": 0.0161,
      "velocity": 115,
      "chip": "ym2612"
    },
    {
      "channel": 5,
      "note": 73,
      "start": 25.3228,
      "duration": 0.0157,
      "velocity": 110,
      "chip": "ym2612"
    },
    {
      "channel": 4,
      "note": 76,
      "start": 25.3245,
      "duration": 0.0151,
      "velocity": 110,
      "chip": "ym2612"
    },
    {
      "channel": 3,
      "note": 64,
      "start": 25.3257,
      "duration": 0.0151,
      "velocity": 94,
      "chip": "ym2612"
    },
    {
      "channel": 2,
      "note": 61,
      "start": 25.3269,
      "duration": 0.0151,
      "velocity": 100,
      "chip": "ym2612"
    },
    {
      "channel": 1,
      "note": 64,
      "start": 25.328,
      "duration": 0.0151,
      "velocity": 94,
      "chip": "ym2612"
    },
    {
      "channel": 0,
      "note": 42,
      "start": 25.3372,
      "duration": 0.0162,
      "velocity": 115,
      "chip": "ym2612"
    },
    {
      "channel": 5,
      "note": 73,
      "start": 25.3385,
      "duration": 0.0161,
      "velocity": 110,
      "chip": "ym2612"
    },
    {
      "channel": 4,
      "note": 76,
      "start": 25.3397,
      "duration": 0.016,
      "velocity": 110,
      "chip": "ym2612"
    },
    {
      "channel": 3,
      "note": 64,
      "start": 25.3409,
      "duration": 0.016,
      "velocity": 94,
      "chip": "ym2612"
    },
    {
      "channel": 2,
      "note": 61,
      "start": 25.342,
      "duration": 0.016,
      "velocity": 100,
      "chip": "ym2612"
    },
    {
      "channel": 1,
      "note": 64,
      "start": 25.3432,
      "duration": 0.0161,
      "velocity": 94,
      "chip": "ym2612"
    },
    {
      "channel": 0,
      "note": 43,
      "start": 25.3534,
      "duration": 0.0165,
      "velocity": 115,
      "chip": "ym2612"
    },
    {
      "channel": 5,
      "note": 73,
      "start": 25.3546,
      "duration": 0.0164,
      "velocity": 110,
      "chip": "ym2612"
    },
    {
      "channel": 4,
      "note": 76,
      "start": 25.3557,
      "duration": 0.0165,
      "velocity": 110,
      "chip": "ym2612"
    },
    {
      "channel": 3,
      "note": 64,
      "start": 25.3569,
      "duration": 0.0164,
      "velocity": 94,
      "chip": "ym2612"
    },
    {
      "channel": 2,
      "note": 61,
      "start": 25.3581,
      "duration": 0.0165,
      "velocity": 100,
      "chip": "ym2612"
    },
    {
      "channel": 1,
      "note": 64,
      "start": 25.3593,
      "duration": 0.0164,
      "velocity": 94,
      "chip": "ym2612"
    },
    {
      "channel": 0,
      "note": 43,
      "start": 25.3698,
      "duration": 0.0163,
      "velocity": 115,
      "chip": "ym2612"
    },
    {
      "channel": 3,
      "note": 64,
      "start": 25.3733,
      "duration": 0.0163,
      "velocity": 94,
      "chip": "ym2612"
    },
    {
      "channel": 2,
      "note": 61,
      "start": 25.3745,
      "duration": 0.0163,
      "velocity": 100,
      "chip": "ym2612"
    },
    {
      "channel": 1,
      "note": 64,
      "start": 25.3757,
      "duration": 0.0163,
      "velocity": 94,
      "chip": "ym2612"
    },
    {
      "channel": 0,
      "note": 44,
      "start": 25.3861,
      "duration": 0.0161,
      "velocity": 115,
      "chip": "ym2612"
    },
    {
      "channel": 3,
      "note": 64,
      "start": 25.3896,
      "duration": 0.0161,
      "velocity": 94,
      "chip": "ym2612"
    },
    {
      "channel": 2,
      "note": 61,
      "start": 25.3908,
      "duration": 0.0161,
      "velocity": 100,
      "chip": "ym2612"
    },
    {
      "channel": 1,
      "note": 64,
      "start": 25.392,
      "duration": 0.0161,
      "velocity": 94,
      "chip": "ym2612"
    },
    {
      "channel": 0,
      "note": 44,
      "start": 25.4022,
      "duration": 0.0179,
      "velocity": 115,
      "chip": "ym2612"
    },
    {
      "channel": 3,
      "note": 64,
      "start": 25.4057,
      "duration": 0.0186,
      "velocity": 94,
      "chip": "ym2612"
    },
    {
      "channel": 2,
      "note": 61,
      "start": 25.4069,
      "duration": 0.0188,
      "velocity": 100,
      "chip": "ym2612"
    },
    {
      "channel": 1,
      "note": 64,
      "start": 25.4081,
      "duration": 0.019,
      "velocity": 94,
      "chip": "ym2612"
    },
    {
      "channel": 0,
      "note": 36,
      "start": 25.4202,
      "duration": 0.0139,
      "velocity": 115,
      "chip": "ym2612"
    },
    {
      "channel": 5,
      "note": 73,
      "start": 25.4216,
      "duration": 0.0141,
      "velocity": 110,
      "chip": "ym2612"
    },
    {
      "channel": 4,
      "note": 76,
      "start": 25.4231,
      "duration": 0.0139,
      "velocity": 110,
      "chip": "ym2612"
    },
    {
      "channel": 3,
      "note": 64,
      "start": 25.4243,
      "duration": 0.0139,
      "velocity": 94,
      "chip": "ym2612"
    },
    {
      "channel": 2,
      "note": 61,
      "start": 25.4258,
      "duration": 0.0136,
      "velocity": 100,
      "chip": "ym2612"
    },
    {
      "channel": 1,
      "note": 64,
      "start": 25.427,
      "duration": 0.0135,
      "velocity": 94,
      "chip": "ym2612"
    },
    {
      "channel": 0,
      "note": 36,
      "start": 25.4341,
      "duration": 0.0159,
      "velocity": 115,
      "chip": "ym2612"
    },
    {
      "channel": 5,
      "note": 73,
      "start": 25.4357,
      "duration": 0.0159,
      "velocity": 110,
      "chip": "ym2612"
    },
    {
      "channel": 4,
      "note": 76,
      "start": 25.4369,
      "duration": 0.0159,
      "velocity": 110,
      "chip": "ym2612"
    },
    {
      "channel": 3,
      "note": 64,
      "start": 25.4382,
      "duration": 0.0159,
      "velocity": 94,
      "chip": "ym2612"
    },
    {
      "channel": 2,
      "note": 61,
      "start": 25.4394,
      "duration": 0.0158,
      "velocity": 100,
      "chip": "ym2612"
    },
    {
      "channel": 1,
      "note": 64,
      "start": 25.4405,
      "duration": 0.0159,
      "velocity": 94,
      "chip": "ym2612"
    },
    {
      "channel": 0,
      "note": 37,
      "start": 25.4499,
      "duration": 0.0161,
      "velocity": 115,
      "chip": "ym2612"
    },
    {
      "channel": 5,
      "note": 73,
      "start": 25.4516,
      "duration": 0.0158,
      "velocity": 110,
      "chip": "ym2612"
    },
    {
      "channel": 4,
      "note": 76,
      "start": 25.4529,
      "duration": 0.0161,
      "velocity": 110,
      "chip": "ym2612"
    },
    {
      "channel": 3,
      "note": 64,
      "start": 25.4541,
      "duration": 0.0161,
      "velocity": 94,
      "chip": "ym2612"
    },
    {
      "channel": 2,
      "note": 61,
      "start": 25.4552,
      "duration": 0.0161,
      "velocity": 100,
      "chip": "ym2612"
    },
    {
      "channel": 1,
      "note": 64,
      "start": 25.4563,
      "duration": 0.0161,
      "velocity": 94,
      "chip": "ym2612"
    },
    {
      "channel": 0,
      "note": 37,
      "start": 25.466,
      "duration": 0.0161,
      "velocity": 115,
      "chip": "ym2612"
    },
    {
      "channel": 5,
      "note": 73,
      "start": 25.4674,
      "duration": 0.0159,
      "velocity": 110,
      "chip": "ym2612"
    },
    {
      "channel": 4,
      "note": 76,
      "start": 25.4689,
      "duration": 0.0162,
      "velocity": 110,
      "chip": "ym2612"
    },
    {
      "channel": 3,
      "note": 64,
      "start": 25.4702,
      "duration": 0.0161,
      "velocity": 94,
      "chip": "ym2612"
    },
    {
      "channel": 2,
      "note": 61,
      "start": 25.4713,
      "duration": 0.0162,
      "velocity": 100,
      "chip": "ym2612"
    },
    {
      "channel": 1,
      "note": 64,
      "start": 25.4724,
      "duration": 0.0161,
      "velocity": 94,
      "chip": "ym2612"
    },
    {
      "channel": 0,
      "note": 38,
      "start": 25.4821,
      "duration": 0.0161,
      "velocity": 115,
      "chip": "ym2612"
    },
    {
      "channel": 3,
      "note": 64,
      "start": 25.4863,
      "duration": 0.016,
      "velocity": 94,
      "chip": "ym2612"
    },
    {
      "channel": 2,
      "note": 61,
      "start": 25.4875,
      "duration": 0.016,
      "velocity": 100,
      "chip": "ym2612"
    },
    {
      "channel": 0,
      "note": 38,
      "start": 25.4982,
      "duration": 0.0161,
      "velocity": 115,
      "chip": "ym2612"
    },
    {
      "channel": 3,
      "note": 64,
      "start": 25.5023,
      "duration": 0.0162,
      "velocity": 94,
      "chip": "ym2612"
    },
    {
      "channel": 2,
      "note": 61,
      "start": 25.5035,
      "duration": 0.0161,
      "velocity": 100,
      "chip": "ym2612"
    },
    {
      "channel": 0,
      "note": 39,
      "start": 25.5143,
      "duration": 0.0179,
      "velocity": 124,
      "chip": "ym2612"
    },
    {
      "channel": 3,
      "note": 64,
      "start": 25.5185,
      "duration": 0.0186,
      "velocity": 94,
      "chip": "ym2612"
    },
    {
      "channel": 2,
      "note": 61,
      "start": 25.5196,
      "duration": 0.0187,
      "velocity": 100,
      "chip": "ym2612"
    },
    {
      "channel": 0,
      "note": 84,
      "start": 25.5323,
      "duration": 0.0143,
      "velocity": 124,
      "chip": "ym2612"
    },
    {
      "channel": 5,
      "note": 76,
      "start": 25.534,
      "duration": 0.0138,
      "velocity": 110,
      "chip": "ym2612"
    },
    {
      "channel": 4,
      "note": 73,
      "start": 25.5359,
      "duration": 0.0132,
      "velocity": 110,
      "chip": "ym2612"
    },
    {
      "channel": 3,
      "note": 64,
      "start": 25.5371,
      "duration": 0.0132,
      "velocity": 94,
      "chip": "ym2612"
    },
    {
      "channel": 2,
      "note": 61,
      "start": 25.5383,
      "duration": 0.0137,
      "velocity": 100,
      "chip": "ym2612"
    },
    {
      "channel": 1,
      "note": 68,
      "start": 25.5398,
      "duration": 0.0135,
      "velocity": 94,
      "chip": "ym2612"
    },
    {
      "channel": 0,
      "note": 82,
      "start": 25.5466,
      "duration": 0.016,
      "velocity": 124,
      "chip": "ym2612"
    },
    {
      "channel": 5,
      "note": 76,
      "start": 25.5478,
      "duration": 0.016,
      "velocity": 110,
      "chip": "ym2612"
    },
    {
      "channel": 4,
      "note": 73,
      "start": 25.5491,
      "duration": 0.0159,
      "velocity": 110,
      "chip": "ym2612"
    },
    {
      "channel": 3,
      "note": 64,
      "start": 25.5503,
      "duration": 0.0159,
      "velocity": 94,
      "chip": "ym2612"
    },
    {
      "channel": 2,
      "note": 61,
      "start": 25.5521,
      "duration": 0.0158,
      "velocity": 100,
      "chip": "ym2612"
    },
    {
      "channel": 1,
      "note": 68,
      "start": 25.5533,
      "duration": 0.0159,
      "velocity": 94,
      "chip": "ym2612"
    },
    {
      "channel": 0,
      "note": 80,
      "start": 25.5627,
      "duration": 0.0161,
      "velocity": 124,
      "chip": "ym2612"
    },
    {
      "channel": 5,
      "note": 76,
      "start": 25.5638,
      "duration": 0.0161,
      "velocity": 110,
      "chip": "ym2612"
    },
    {
      "channel": 4,
      "note": 73,
      "start": 25.565,
      "duration": 0.0161,
      "velocity": 110,
      "chip": "ym2612"
    },
    {
      "channel": 3,
      "note": 64,
      "start": 25.5662,
      "duration": 0.0161,
      "velocity": 94,
      "chip": "ym2612"
    },
    {
      "channel": 2,
      "note": 61,
      "start": 25.5679,
      "duration": 0.0155,
      "velocity": 100,
      "chip": "ym2612"
    },
    {
      "channel": 1,
      "note": 68,
      "start": 25.5692,
      "duration": 0.016,
      "velocity": 94,
      "chip": "ym2612"
    },
    {
      "channel": 0,
      "note": 77,
      "start": 25.5787,
      "duration": 0.0161,
      "velocity": 124,
      "chip": "ym2612"
    },
    {
      "channel": 3,
      "note": 64,
      "start": 25.5823,
      "duration": 0.016,
      "velocity": 94,
      "chip": "ym2612"
    },
    {
      "channel": 2,
      "note": 61,
      "start": 25.5834,
      "duration": 0.0161,
      "velocity": 100,
      "chip": "ym2612"
    },
    {
      "channel": 1,
      "note": 68,
      "start": 25.5852,
      "duration": 0.016,
      "velocity": 94,
      "chip": "ym2612"
    },
    {
      "channel": 0,
      "note": 75,
      "start": 25.5948,
      "duration": 0.0161,
      "velocity": 124,
      "chip": "ym2612"
    },
    {
      "channel": 3,
      "note": 64,
      "start": 25.5983,
      "duration": 0.0161,
      "velocity": 94,
      "chip": "ym2612"
    },
    {
      "channel": 2,
      "note": 61,
      "start": 25.5995,
      "duration": 0.0161,
      "velocity": 100,
      "chip": "ym2612"
    },
    {
      "channel": 1,
      "note": 68,
      "start": 25.6012,
      "duration": 0.0156,
      "velocity": 94,
      "chip": "ym2612"
    },
    {
      "channel": 0,
      "note": 72,
      "start": 25.6109,
      "duration": 0.0161,
      "velocity": 124,
      "chip": "ym2612"
    },
    {
      "channel": 3,
      "note": 64,
      "start": 25.6144,
      "duration": 0.0167,
      "velocity": 94,
      "chip": "ym2612"
    },
    {
      "channel": 2,
      "note": 61,
      "start": 25.6156,
      "duration": 0.0169,
      "velocity": 100,
      "chip": "ym2612"
    },
    {
      "channel": 1,
      "note": 68,
      "start": 25.6168,
      "duration": 0.0171,
      "velocity": 94,
      "chip": "ym2612"
    },
    {
      "channel": 0,
      "note": 70,
      "start": 25.627,
      "duration": 0.0161,
      "velocity": 124,
      "chip": "ym2612"
    },
    {
      "channel": 5,
      "note": 76,
      "start": 25.6285,
      "duration": 0.0159,
      "velocity": 110,
      "chip": "ym2612"
    },
    {
      "channel": 4,
      "note": 73,
      "start": 25.63,
      "duration": 0.0156,
      "velocity": 110,
      "chip": "ym2612"
    },
    {
      "channel": 3,
      "note": 64,
      "start": 25.6312,
      "duration": 0.0156,
      "velocity": 94,
      "chip": "ym2612"
    },
    {
      "channel": 2,
      "note": 61,
      "start": 25.6326,
      "duration": 0.0154,
      "velocity": 100,
      "chip": "ym2612"
    },
    {
      "channel": 1,
      "note": 68,
      "start": 25.6339,
      "duration": 0.0153,
      "velocity": 94,
      "chip": "ym2612"
    },
    {
      "channel": 0,
      "note": 68,
      "start": 25.6431,
      "duration": 0.0161,
      "velocity": 124,
      "chip": "ym2612"
    },
    {
      "channel": 5,
      "note": 76,
      "start": 25.6444,
      "duration": 0.016,
      "velocity": 110,
      "chip": "ym2612"
    },
    {
      "channel": 4,
      "note": 73,
      "start": 25.6456,
      "duration": 0.016,
      "velocity": 110,
      "chip": "ym2612"
    },
    {
      "channel": 3,
      "note": 64,
      "start": 25.6468,
      "duration": 0.016,
      "velocity": 94,
      "chip": "ym2612"
    },
    {
      "channel": 2,
      "note": 61,
      "start": 25.648,
      "duration": 0.016,
      "velocity": 100,
      "chip": "ym2612"
    },
    {
      "channel": 1,
      "note": 68,
      "start": 25.6492,
      "duration": 0.016,
      "velocity": 94,
      "chip": "ym2612"
    },
    {
      "channel": 0,
      "note": 65,
      "start": 25.6592,
      "duration": 0.0161,
      "velocity": 124,
      "chip": "ym2612"
    },
    {
      "channel": 5,
      "note": 76,
      "start": 25.6604,
      "duration": 0.0161,
      "velocity": 110,
      "chip": "ym2612"
    },
    {
      "channel": 4,
      "note": 73,
      "start": 25.6616,
      "duration": 0.0161,
      "velocity": 110,
      "chip": "ym2612"
    },
    {
      "channel": 3,
      "note": 64,
      "start": 25.6628,
      "duration": 0.0161,
      "velocity": 94,
      "chip": "ym2612"
    },
    {
      "channel": 2,
      "note": 61,
      "start": 25.664,
      "duration": 0.0161,
      "velocity": 100,
      "chip": "ym2612"
    },
    {
      "channel": 1,
      "note": 68,
      "start": 25.6652,
      "duration": 0.0161,
      "velocity": 94,
      "chip": "ym2612"
    },
    {
      "channel": 0,
      "note": 63,
      "start": 25.6753,
      "duration": 0.0153,
      "velocity": 1,
      "chip": "ym2612"
    },
    {
      "channel": 5,
      "note": 76,
      "start": 25.6765,
      "duration": 0.0153,
      "velocity": 110,
      "chip": "ym2612"
    },
    {
      "channel": 4,
      "note": 73,
      "start": 25.6777,
      "duration": 0.0153,
      "velocity": 110,
      "chip": "ym2612"
    },
    {
      "channel": 3,
      "note": 64,
      "start": 25.6789,
      "duration": 0.0153,
      "velocity": 94,
      "chip": "ym2612"
    },
    {
      "channel": 2,
      "note": 61,
      "start": 25.6801,
      "duration": 0.0153,
      "velocity": 100,
      "chip": "ym2612"
    },
    {
      "channel": 1,
      "note": 68,
      "start": 25.6813,
      "duration": 0.0153,
      "velocity": 94,
      "chip": "ym2612"
    },
    {
      "channel": 3,
      "note": 64,
      "start": 25.6942,
      "duration": 0.0152,
      "velocity": 94,
      "chip": "ym2612"
    },
    {
      "channel": 2,
      "note": 61,
      "start": 25.6954,
      "duration": 0.0152,
      "velocity": 100,
      "chip": "ym2612"
    },
    {
      "channel": 1,
      "note": 68,
      "start": 25.6966,
      "duration": 0.0152,
      "velocity": 94,
      "chip": "ym2612"
    },
    {
      "channel": 3,
      "note": 64,
      "start": 25.7094,
      "duration": 0.0161,
      "velocity": 94,
      "chip": "ym2612"
    },
    {
      "channel": 2,
      "note": 61,
      "start": 25.7106,
      "duration": 0.0161,
      "velocity": 100,
      "chip": "ym2612"
    },
    {
      "channel": 1,
      "note": 68,
      "start": 25.7118,
      "duration": 0.0161,
      "velocity": 94,
      "chip": "ym2612"
    },
    {
      "channel": 3,
      "note": 64,
      "start": 25.7255,
      "duration": 0.0204,
      "velocity": 94,
      "chip": "ym2612"
    },
    {
      "channel": 2,
      "note": 61,
      "start": 25.7268,
      "duration": 0.0206,
      "velocity": 100,
      "chip": "ym2612"
    },
    {
      "channel": 1,
      "note": 68,
      "start": 25.7279,
      "duration": 0.0206,
      "velocity": 94,
      "chip": "ym2612"
    },
    {
      "channel": 0,
      "note": 36,
      "start": 25.7416,
      "duration": 0.0143,
      "velocity": 115,
      "chip": "ym2612"
    },
    {
      "channel": 5,
      "note": 73,
      "start": 25.7432,
      "duration": 0.0139,
      "velocity": 110,
      "chip": "ym2612"
    },
    {
      "channel": 4,
      "note": 76,
      "start": 25.7447,
      "duration": 0.0137,
      "velocity": 110,
      "chip": "ym2612"
    },
    {
      "channel": 3,
      "note": 64,
      "start": 25.7459,
      "duration": 0.0136,
      "velocity": 94,
      "chip": "ym2612"
    },
    {
      "channel": 2,
      "note": 56,
      "start": 25.7474,
      "duration": 0.0134,
      "velocity": 100,
      "chip": "ym2612"
    },
    {
      "channel": 1,
      "note": 68,
      "start": 25.7485,
      "duration": 0.0134,
      "velocity": 94,
      "chip": "ym2612"
    },
    {
      "channel": 0,
      "note": 36,
      "start": 25.7559,
      "duration": 0.016,
      "velocity": 115,
      "chip": "ym2612"
    },
    {
      "channel": 5,
      "note": 73,
      "start": 25.7571,
      "duration": 0.016,
      "velocity": 110,
      "chip": "ym2612"
    },
    {
      "channel": 4,
      "note": 76,
      "start": 25.7584,
      "duration": 0.0159,
      "velocity": 110,
      "chip": "ym2612"
    },
    {
      "channel": 3,
      "note": 64,
      "start": 25.7595,
      "duration": 0.016,
      "velocity": 94,
      "chip": "ym2612"
    },
    {
      "channel": 2,
      "note": 56,
      "start": 25.7608,
      "duration": 0.0159,
      "velocity": 100,
      "chip": "ym2612"
    },
    {
      "channel": 1,
      "note": 68,
      "start": 25.762,
      "duration": 0.0158,
      "velocity": 94,
      "chip": "ym2612"
    },
    {
      "channel": 0,
      "note": 37,
      "start": 25.7719,
      "duration": 0.0161,
      "velocity": 115,
      "chip": "ym2612"
    },
    {
      "channel": 5,
      "note": 73,
      "start": 25.7731,
      "duration": 0.0161,
      "velocity": 110,
      "chip": "ym2612"
    },
    {
      "channel": 4,
      "note": 76,
      "start": 25.7743,
      "duration": 0.0161,
      "velocity": 110,
      "chip": "ym2612"
    },
    {
      "channel": 3,
      "note": 64,
      "start": 25.7755,
      "duration": 0.0161,
      "velocity": 94,
      "chip": "ym2612"
    },
    {
      "channel": 2,
      "note": 56,
      "start": 25.7766,
      "duration": 0.0161,
      "velocity": 100,
      "chip": "ym2612"
    },
    {
      "channel": 1,
      "note": 68,
      "start": 25.7778,
      "duration": 0.0161,
      "velocity": 94,
      "chip": "ym2612"
    },
    {
      "channel": 0,
      "note": 37,
      "start": 25.788,
      "duration": 0.0161,
      "velocity": 115,
      "chip": "ym2612"
    },
    {
      "channel": 5,
      "note": 73,
      "start": 25.7892,
      "duration": 0.0161,
      "velocity": 110,
      "chip": "ym2612"
    },
    {
      "channel": 4,
      "note": 76,
      "start": 25.7904,
      "duration": 0.0161,
      "velocity": 110,
      "chip": "ym2612"
    },
    {
      "channel": 3,
      "note": 64,
      "start": 25.7916,
      "duration": 0.0161,
      "velocity": 94,
      "chip": "ym2612"
    },
    {
      "channel": 2,
      "note": 56,
      "start": 25.7927,
      "duration": 0.0161,
      "velocity": 100,
      "chip": "ym2612"
    },
    {
      "channel": 1,
      "note": 68,
      "start": 25.7939,
      "duration": 0.0162,
      "velocity": 94,
      "chip": "ym2612"
    },
    {
      "channel": 0,
      "note": 38,
      "start": 25.8041,
      "duration": 0.0161,
      "velocity": 115,
      "chip": "ym2612"
    },
    {
      "channel": 5,
      "note": 73,
      "start": 25.8053,
      "duration": 0.0162,
      "velocity": 110,
      "chip": "ym2612"
    },
    {
      "channel": 4,
      "note": 76,
      "start": 25.8065,
      "duration": 0.0162,
      "velocity": 110,
      "chip": "ym2612"
    },
    {
      "channel": 2,
      "note": 56,
      "start": 25.8088,
      "duration": 0.0162,
      "velocity": 100,
      "chip": "ym2612"
    },
    {
      "channel": 1,
      "note": 68,
      "start": 25.81,
      "duration": 0.0161,
      "velocity": 94,
      "chip": "ym2612"
    },
    {
      "channel": 0,
      "note": 38,
      "start": 25.8203,
      "duration": 0.0181,
      "velocity": 115,
      "chip": "ym2612"
    },
    {
      "channel": 5,
      "note": 73,
      "start": 25.8215,
      "duration": 0.0181,
      "velocity": 110,
      "chip": "ym2612"
    },
    {
      "channel": 4,
      "note": 76,
      "start": 25.8226,
      "duration": 0.0182,
      "velocity": 110,
      "chip": "ym2612"
    },
    {
      "channel": 2,
      "note": 56,
      "start": 25.825,
      "duration": 0.0184,
      "velocity": 100,
      "chip": "ym2612"
    },
    {
      "channel": 1,
      "note": 68,
      "start": 25.8262,
      "duration": 0.0184,
      "velocity": 94,
      "chip": "ym2612"
    },
    {
      "channel": 0,
      "note": 36,
      "start": 25.8385,
      "duration": 0.0145,
      "velocity": 115,
      "chip": "ym2612"
    },
    {
      "channel": 5,
      "note": 73,
      "start": 25.8396,
      "duration": 0.0146,
      "velocity": 110,
      "chip": "ym2612"
    },
    {
      "channel": 4,
      "note": 76,
      "start": 25.8408,
      "duration": 0.0146,
      "velocity": 110,
      "chip": "ym2612"
    },
    {
      "channel": 2,
      "note": 59,
      "start": 25.8434,
      "duration": 0.0146,
      "velocity": 100,
      "chip": "ym2612"
    },
    {
      "channel": 1,
      "note": 68,
      "start": 25.8446,
      "duration": 0.0146,
      "velocity": 94,
      "chip": "ym2612"
    },
    {
      "channel": 0,
      "note": 36,
      "start": 25.853,
      "duration": 0.0162,
      "velocity": 115,
      "chip": "ym2612"
    },
    {
      "channel": 3,
      "note": 68,
      "start": 25.8568,
      "duration": 0.0159,
      "velocity": 94,
      "chip": "ym2612"
    },
    {
      "channel": 2,
      "note": 59,
      "start": 25.8581,
      "duration": 0.0158,
      "velocity": 100,
      "chip": "ym2612"
    },
    {
      "channel": 1,
      "note": 68,
      "start": 25.8592,
      "duration": 0.0159,
      "velocity": 94,
      "chip": "ym2612"
    },
    {
      "channel": 0,
      "note": 37,
      "start": 25.8691,
      "duration": 0.0161,
      "velocity": 115,
      "chip": "ym2612"
    },
    {
      "channel": 3,
      "note": 68,
      "start": 25.8727,
      "duration": 0.016,
      "velocity": 94,
      "chip": "ym2612"
    },
    {
      "channel": 2,
      "note": 59,
      "start": 25.8738,
      "duration": 0.016,
      "velocity": 100,
      "chip": "ym2612"
    },
    {
      "channel": 1,
      "note": 68,
      "start": 25.8751,
      "duration": 0.016,
      "velocity": 94,
      "chip": "ym2612"
    },
    {
      "channel": 0,
      "note": 37,
      "start": 25.8852,
      "duration": 0.0157,
      "velocity": 115,
      "chip": "ym2612"
    },
    {
      "channel": 3,
      "note": 68,
      "start": 25.8887,
      "duration": 0.0161,
      "velocity": 94,
      "chip": "ym2612"
    },
    {
      "channel": 2,
      "note": 59,
      "start": 25.8899,
      "duration": 0.0162,
      "velocity": 100,
      "chip": "ym2612"
    },
    {
      "channel": 1,
      "note": 68,
      "start": 25.8911,
      "duration": 0.0161,
      "velocity": 94,
      "chip": "ym2612"
    },
    {
      "channel": 0,
      "note": 38,
      "start": 25.9009,
      "duration": 0.0159,
      "velocity": 115,
      "chip": "ym2612"
    },
    {
      "channel": 3,
      "note": 68,
      "start": 25.9049,
      "duration": 0.0161,
      "velocity": 94,
      "chip": "ym2612"
    },
    {
      "channel": 2,
      "note": 59,
      "start": 25.906,
      "duration": 0.0161,
      "velocity": 100,
      "chip": "ym2612"
    },
    {
      "channel": 0,
      "note": 38,
      "start": 25.9168,
      "duration": 0.0161,
      "velocity": 115,
      "chip": "ym2612"
    },
    {
      "channel": 3,
      "note": 68,
      "start": 25.921,
      "duration": 0.0161,
      "velocity": 94,
      "chip": "ym2612"
    },
    {
      "channel": 2,
      "note": 59,
      "start": 25.9221,
      "duration": 0.0161,
      "velocity": 100,
      "chip": "ym2612"
    },
    {
      "channel": 0,
      "note": 39,
      "start": 25.9329,
      "duration": 0.0184,
      "velocity": 115,
      "chip": "ym2612"
    },
    {
      "channel": 3,
      "note": 68,
      "start": 25.9371,
      "duration": 0.0186,
      "velocity": 94,
      "chip": "ym2612"
    },
    {
      "channel": 2,
      "note": 59,
      "start": 25.9382,
      "duration": 0.0189,
      "velocity": 100,
      "chip": "ym2612"
    },
    {
      "channel": 0,
      "note": 36,
      "start": 25.9515,
      "duration": 0.0137,
      "velocity": 115,
      "chip": "ym2612"
    },
    {
      "channel": 5,
      "note": 76,
      "start": 25.953,
      "duration": 0.0134,
      "velocity": 110,
      "chip": "ym2612"
    },
    {
      "channel": 4,
      "note": 73,
      "start": 25.9545,
      "duration": 0.0137,
      "velocity": 110,
      "chip": "ym2612"
    },
    {
      "channel": 3,
      "note": 68,
      "start": 25.9557,
      "duration": 0.0137,
      "velocity": 94,
      "chip": "ym2612"
    },
    {
      "channel": 2,
      "note": 61,
      "start": 25.9571,
      "duration": 0.0135,
      "velocity": 100,
      "chip": "ym2612"
    },
    {
      "channel": 1,
      "note": 73,
      "start": 25.9586,
      "duration": 0.0134,
      "velocity": 94,
      "chip": "ym2612"
    },
    {
      "channel": 0,
      "note": 36,
      "start": 25.9652,
      "duration": 0.016,
      "velocity": 115,
      "chip": "ym2612"
    },
    {
      "channel": 5,
      "note": 76,
      "start": 25.9665,
      "duration": 0.016,
      "velocity": 110,
      "chip": "ym2612"
    },
    {
      "channel": 4,
      "note": 73,
      "start": 25.9682,
      "duration": 0.0154,
      "velocity": 110,
      "chip": "ym2612"
    },
    {
      "channel": 3,
      "note": 68,
      "start": 25.9695,
      "duration": 0.0159,
      "velocity": 94,
      "chip": "ym2612"
    },
    {
      "channel": 2,
      "note": 61,
      "start": 25.9707,
      "duration": 0.0159,
      "velocity": 100,
      "chip": "ym2612"
    },
    {
      "channel": 1,
      "note": 73,
      "start": 25.9719,
      "duration": 0.0158,
      "velocity": 94,
      "chip": "ym2612"
    },
    {
      "channel": 0,
      "note": 37,
      "start": 25.9812,
      "duration": 0.0161,
      "velocity": 115,
      "chip": "ym2612"
    },
    {
      "channel": 5,
      "note": 76,
      "start": 25.9824,
      "duration": 0.0161,
      "velocity": 110,
      "chip": "ym2612"
    },
    {
      "channel": 4,
      "note": 73,
      "start": 25.9836,
      "duration": 0.0161,
      "velocity": 110,
      "chip": "ym2612"
    },
    {
      "channel": 3,
      "note": 68,
      "start": 25.9854,
      "duration": 0.016,
      "velocity": 94,
      "chip": "ym2612"
    },
    {
      "channel": 2,
      "note": 61,
      "start": 25.9866,
      "duration": 0.016,
      "velocity": 100,
      "chip": "ym2612"
    },
    {
      "channel": 1,
      "note": 73,
      "start": 25.9877,
      "duration": 0.0161,
      "velocity": 94,
      "chip": "ym2612"
    },
    {
      "channel": 0,
      "note": 37,
      "start": 25.9974,
      "duration": 0.0161,
      "velocity": 115,
      "chip": "ym2612"
    },
    {
      "channel": 5,
      "note": 76,
      "start": 25.9985,
      "duration": 0.0161,
      "velocity": 110,
      "chip": "ym2612"
    },
    {
      "channel": 4,
      "note": 73,
      "start": 25.9997,
      "duration": 0.0162,
      "velocity": 110,
      "chip": "ym2612"
    },
    {
      "channel": 3,
      "note": 68,
      "start": 26.0014,
      "duration": 0.0156,
      "velocity": 94,
      "chip": "ym2612"
    },
    {
      "channel": 2,
      "note": 61,
      "start": 26.0026,
      "duration": 0.0161,
      "velocity": 100,
      "chip": "ym2612"
    },
    {
      "channel": 1,
      "note": 73,
      "start": 26.0038,
      "duration": 0.0161,
      "velocity": 94,
      "chip": "ym2612"
    },
    {
      "channel": 0,
      "note": 38,
      "start": 26.0135,
      "duration": 0.0161,
      "velocity": 115,
      "chip": "ym2612"
    },
    {
      "channel": 5,
      "note": 76,
      "start": 26.0146,
      "duration": 0.0161,
      "velocity": 110,
      "chip": "ym2612"
    },
    {
      "channel": 4,
      "note": 73,
      "start": 26.0158,
      "duration": 0.0161,
      "velocity": 110,
      "chip": "ym2612"
    },
    {
      "channel": 3,
      "note": 68,
      "start": 26.017,
      "duration": 0.0161,
      "velocity": 94,
      "chip": "ym2612"
    },
    {
      "channel": 2,
      "note": 61,
      "start": 26.0187,
      "duration": 0.0161,
      "velocity": 100,
      "chip": "ym2612"
    },
    {
      "channel": 1,
      "note": 73,
      "start": 26.0199,
      "duration": 0.0161,
      "velocity": 94,
      "chip": "ym2612"
    },
    {
      "channel": 0,
      "note": 38,
      "start": 26.0296,
      "duration": 0.0179,
      "velocity": 127,
      "chip": "ym2612"
    },
    {
      "channel": 5,
      "note": 76,
      "start": 26.0307,
      "duration": 0.0179,
      "velocity": 110,
      "chip": "ym2612"
    },
    {
      "channel": 4,
      "note": 73,
      "start": 26.0319,
      "duration": 0.0179,
      "velocity": 110,
      "chip": "ym2612"
    },
    {
      "channel": 3,
      "note": 68,
      "start": 26.0331,
      "duration": 0.0185,
      "velocity": 94,
      "chip": "ym2612"
    },
    {
      "channel": 2,
      "note": 61,
      "start": 26.0348,
      "duration": 0.0183,
      "velocity": 100,
      "chip": "ym2612"
    },
    {
      "channel": 1,
      "note": 73,
      "start": 26.036,
      "duration": 0.0183,
      "velocity": 94,
      "chip": "ym2612"
    },
    {
      "channel": 0,
      "note": 88,
      "start": 26.0475,
      "duration": 0.0143,
      "velocity": 127,
      "chip": "ym2612"
    },
    {
      "channel": 5,
      "note": 76,
      "start": 26.0486,
      "duration": 0.0144,
      "velocity": 110,
      "chip": "ym2612"
    },
    {
      "channel": 4,
      "note": 73,
      "start": 26.0499,
      "duration": 0.0143,
      "velocity": 110,
      "chip": "ym2612"
    },
    {
      "channel": 3,
      "note": 68,
      "start": 26.0516,
      "duration": 0.0138,
      "velocity": 94,
      "chip": "ym2612"
    },
    {
      "channel": 2,
      "note": 73,
      "start": 26.0531,
      "duration": 0.0135,
      "velocity": 100,
      "chip": "ym2612"
    },
    {
      "channel": 1,
      "note": 73,
      "start": 26.0542,
      "duration": 0.0141,
      "velocity": 94,
      "chip": "ym2612"
    },
    {
      "channel": 0,
      "note": 86,
      "start": 26.0618,
      "duration": 0.016,
      "velocity": 127,
      "chip": "ym2612"
    },
    {
      "channel": 3,
      "note": 68,
      "start": 26.0654,
      "duration": 0.016,
      "velocity": 94,
      "chip": "ym2612"
    },
    {
      "channel": 2,
      "note": 73,
      "start": 26.0666,
      "duration": 0.016,
      "velocity": 100,
      "chip": "ym2612"
    },
    {
      "channel": 1,
      "note": 73,
      "start": 26.0683,
      "duration": 0.0154,
      "velocity": 94,
      "chip": "ym2612"
    },
    {
      "channel": 0,
      "note": 85,
      "start": 26.0778,
      "duration": 0.0161,
      "velocity": 127,
      "chip": "ym2612"
    },
    {
      "channel": 3,
      "note": 68,
      "start": 26.0814,
      "duration": 0.0161,
      "velocity": 94,
      "chip": "ym2612"
    },
    {
      "channel": 2,
      "note": 73,
      "start": 26.0826,
      "duration": 0.0161,
      "velocity": 100,
      "chip": "ym2612"
    },
    {
      "channel": 1,
      "note": 73,
      "start": 26.0837,
      "duration": 0.0161,
      "velocity": 94,
      "chip": "ym2612"
    },
    {
      "channel": 0,
      "note": 83,
      "start": 26.0939,
      "duration": 0.0161,
      "velocity": 127,
      "chip": "ym2612"
    },
    {
      "channel": 3,
      "note": 68,
      "start": 26.0975,
      "duration": 0.0161,
      "velocity": 94,
      "chip": "ym2612"
    },
    {
      "channel": 2,
      "note": 73,
      "start": 26.0986,
      "duration": 0.0161,
      "velocity": 100,
      "chip": "ym2612"
    },
    {
      "channel": 1,
      "note": 73,
      "start": 26.0998,
      "duration": 0.0161,
      "velocity": 94,
      "chip": "ym2612"
    },
    {
      "channel": 0,
      "note": 81,
      "start": 26.11,
      "duration": 0.0161,
      "velocity": 127,
      "chip": "ym2612"
    },
    {
      "channel": 3,
      "note": 68,
      "start": 26.1136,
      "duration": 0.0161,
      "velocity": 94,
      "chip": "ym2612"
    },
    {
      "channel": 2,
      "note": 73,
      "start": 26.1147,
      "duration": 0.0161,
      "velocity": 100,
      "chip": "ym2612"
    },
    {
      "channel": 1,
      "note": 73,
      "start": 26.1159,
      "duration": 0.0161,
      "velocity": 94,
      "chip": "ym2612"
    },
    {
      "channel": 0,
      "note": 80,
      "start": 26.1261,
      "duration": 0.0161,
      "velocity": 127,
      "chip": "ym2612"
    },
    {
      "channel": 3,
      "note": 68,
      "start": 26.1297,
      "duration": 0.0161,
      "velocity": 94,
      "chip": "ym2612"
    },
    {
      "channel": 2,
      "note": 73,
      "start": 26.1308,
      "duration": 0.0161,
      "velocity": 100,
      "chip": "ym2612"
    },
    {
      "channel": 1,
      "note": 73,
      "start": 26.132,
      "duration": 0.0161,
      "velocity": 94,
      "chip": "ym2612"
    },
    {
      "channel": 0,
      "note": 78,
      "start": 26.1422,
      "duration": 0.0162,
      "velocity": 127,
      "chip": "ym2612"
    },
    {
      "channel": 3,
      "note": 68,
      "start": 26.1458,
      "duration": 0.0169,
      "velocity": 94,
      "chip": "ym2612"
    },
    {
      "channel": 2,
      "note": 73,
      "start": 26.1469,
      "duration": 0.0171,
      "velocity": 100,
      "chip": "ym2612"
    },
    {
      "channel": 1,
      "note": 73,
      "start": 26.1481,
      "duration": 0.0172,
      "velocity": 94,
      "chip": "ym2612"
    },
    {
      "channel": 0,
      "note": 76,
      "start": 26.1584,
      "duration": 0.0161,
      "velocity": 127,
      "chip": "ym2612"
    },
    {
      "channel": 5,
      "note": 73,
      "start": 26.1599,
      "duration": 0.0158,
      "velocity": 110,
      "chip": "ym2612"
    },
    {
      "channel": 4,
      "note": 76,
      "start": 26.1615,
      "duration": 0.0155,
      "velocity": 110,
      "chip": "ym2612"
    },
    {
      "channel": 3,
      "note": 68,
      "start": 26.1627,
      "duration": 0.0154,
      "velocity": 94,
      "chip": "ym2612"
    },
    {
      "channel": 2,
      "note": 61,
      "start": 26.1641,
      "duration": 0.0152,
      "velocity": 100,
      "chip": "ym2612"
    },
    {
      "channel": 1,
      "note": 73,
      "start": 26.1653,
      "duration": 0.0152,
      "velocity": 94,
      "chip": "ym2612"
    },
    {
      "channel": 0,
      "note": 75,
      "start": 26.1745,
      "duration": 0.0161,
      "velocity": 127,
      "chip": "ym2612"
    },
    {
      "channel": 5,
      "note": 73,
      "start": 26.1757,
      "duration": 0.016,
      "velocity": 110,
      "chip": "ym2612"
    },
    {
      "channel": 4,
      "note": 76,
      "start": 26.177,
      "duration": 0.016,
      "velocity": 110,
      "chip": "ym2612"
    },
    {
      "channel": 3,
      "note": 68,
      "start": 26.1781,
      "duration": 0.016,
      "velocity": 94,
      "chip": "ym2612"
    },
    {
      "channel": 2,
      "note": 61,
      "start": 26.1793,
      "duration": 0.0159,
      "velocity": 100,
      "chip": "ym2612"
    },
    {
      "channel": 1,
      "note": 73,
      "start": 26.1805,
      "duration": 0.0159,
      "velocity": 94,
      "chip": "ym2612"
    },
    {
      "channel": 0,
      "note": 73,
      "start": 26.1906,
      "duration": 0.0161,
      "velocity": 127,
      "chip": "ym2612"
    },
    {
      "channel": 5,
      "note": 73,
      "start": 26.1917,
      "duration": 0.0161,
      "velocity": 110,
      "chip": "ym2612"
    },
    {
      "channel": 4,
      "note": 76,
      "start": 26.1929,
      "duration": 0.0161,
      "velocity": 110,
      "chip": "ym2612"
    },
    {
      "channel": 3,
      "note": 68,
      "start": 26.1941,
      "duration": 0.0161,
      "velocity": 94,
      "chip": "ym2612"
    },
    {
      "channel": 2,
      "note": 61,
      "start": 26.1952,
      "duration": 0.0161,
      "velocity": 100,
      "chip": "ym2612"
    },
    {
      "channel": 1,
      "note": 73,
      "start": 26.1964,
      "duration": 0.0161,
      "velocity": 94,
      "chip": "ym2612"
    },
    {
      "channel": 0,
      "note": 71,
      "start": 26.2067,
      "duration": 0.0161,
      "velocity": 127,
      "chip": "ym2612"
    },
    {
      "channel": 5,
      "note": 73,
      "start": 26.2078,
      "duration": 0.0162,
      "velocity": 110,
      "chip": "ym2612"
    },
    {
      "channel": 4,
      "note": 76,
      "start": 26.209,
      "duration": 0.0161,
      "velocity": 110,
      "chip": "ym2612"
    },
    {
      "channel": 3,
      "note": 68,
      "start": 26.2102,
      "duration": 0.0162,
      "velocity": 94,
      "chip": "ym2612"
    },
    {
      "channel": 2,
      "note": 61,
      "start": 26.2113,
      "duration": 0.0161,
      "velocity": 100,
      "chip": "ym2612"
    },
    {
      "channel": 1,
      "note": 73,
      "start": 26.2125,
      "duration": 0.0161,
      "velocity": 94,
      "chip": "ym2612"
    },
    {
      "channel": 0,
      "note": 69,
      "start": 26.2228,
      "duration": 0.0161,
      "velocity": 127,
      "chip": "ym2612"
    },
    {
      "channel": 5,
      "note": 73,
      "start": 26.224,
      "duration": 0.0161,
      "velocity": 110,
      "chip": "ym2612"
    },
    {
      "channel": 4,
      "note": 76,
      "start": 26.2251,
      "duration": 0.0161,
      "velocity": 110,
      "chip": "ym2612"
    },
    {
      "channel": 2,
      "note": 61,
      "start": 26.2275,
      "duration": 0.0161,
      "velocity": 100,
      "chip": "ym2612"
    },
    {
      "channel": 1,
      "note": 73,
      "start": 26.2286,
      "duration": 0.0161,
      "velocity": 94,
      "chip": "ym2612"
    },
    {
      "channel": 0,
      "note": 68,
      "start": 26.2388,
      "duration": 0.018,
      "velocity": 127,
      "chip": "ym2612"
    },
    {
      "channel": 5,
      "note": 73,
      "start": 26.2401,
      "duration": 0.018,
      "velocity": 110,
      "chip": "ym2612"
    },
    {
      "channel": 4,
      "note": 76,
      "start": 26.2412,
      "duration": 0.018,
      "velocity": 110,
      "chip": "ym2612"
    },
    {
      "channel": 2,
      "note": 61,
      "start": 26.2436,
      "duration": 0.0183,
      "velocity": 100,
      "chip": "ym2612"
    },
    {
      "channel": 1,
      "note": 73,
      "start": 26.2447,
      "duration": 0.0183,
      "velocity": 94,
      "chip": "ym2612"
    },
    {
      "channel": 0,
      "note": 84,
      "start": 26.2568,
      "duration": 0.0143,
      "velocity": 127,
      "chip": "ym2612"
    },
    {
      "channel": 5,
      "note": 73,
      "start": 26.2581,
      "duration": 0.0142,
      "velocity": 110,
      "chip": "ym2612"
    },
    {
      "channel": 4,
      "note": 76,
      "start": 26.2592,
      "duration": 0.0143,
      "velocity": 110,
      "chip": "ym2612"
    },
    {
      "channel": 2,
      "note": 73,
      "start": 26.2618,
      "duration": 0.0144,
      "velocity": 100,
      "chip": "ym2612"
    },
    {
      "channel": 1,
      "note": 73,
      "start": 26.263,
      "duration": 0.0143,
      "velocity": 94,
      "chip": "ym2612"
    },
    {
      "channel": 0,
      "note": 82,
      "start": 26.2711,
      "duration": 0.0161,
      "velocity": 127,
      "chip": "ym2612"
    },
    {
      "channel": 3,
      "note": 73,
      "start": 26.275,
      "duration": 0.0158,
      "velocity": 94,
      "chip": "ym2612"
    },
    {
      "channel": 2,
      "note": 73,
      "start": 26.2762,
      "duration": 0.0158,
      "velocity": 100,
      "chip": "ym2612"
    },
    {
      "channel": 1,
      "note": 73,
      "start": 26.2773,
      "duration": 0.0158,
      "velocity": 94,
      "chip": "ym2612"
    },
    {
      "channel": 0,
      "note": 81,
      "start": 26.2872,
      "duration": 0.0162,
      "velocity": 127,
      "chip": "ym2612"
    },
    {
      "channel": 3,
      "note": 73,
      "start": 26.2908,
      "duration": 0.0161,
      "velocity": 94,
      "chip": "ym2612"
    },
    {
      "channel": 2,
      "note": 73,
      "start": 26.292,
      "duration": 0.0161,
      "velocity": 100,
      "chip": "ym2612"
    },
    {
      "channel": 1,
      "note": 73,
      "start": 26.2931,
      "duration": 0.0162,
      "velocity": 94,
      "chip": "ym2612"
    },
    {
      "channel": 0,
      "note": 79,
      "start": 26.3034,
      "duration": 0.0163,
      "velocity": 127,
      "chip": "ym2612"
    },
    {
      "channel": 3,
      "note": 73,
      "start": 26.3069,
      "duration": 0.0163,
      "velocity": 94,
      "chip": "ym2612"
    },
    {
      "channel": 2,
      "note": 73,
      "start": 26.3081,
      "duration": 0.0163,
      "velocity": 100,
      "chip": "ym2612"
    },
    {
      "channel": 1,
      "note": 73,
      "start": 26.3093,
      "duration": 0.0163,
      "velocity": 94,
      "chip": "ym2612"
    },
    {
      "channel": 0,
      "note": 77,
      "start": 26.3198,
      "duration": 0.0163,
      "velocity": 127,
      "chip": "ym2612"
    },
    {
      "channel": 3,
      "note": 73,
      "start": 26.3233,
      "duration": 0.0163,
      "velocity": 94,
      "chip": "ym2612"
    },
    {
      "channel": 2,
      "note": 73,
      "start": 26.3244,
      "duration": 0.0163,
      "velocity": 100,
      "chip": "ym2612"
    },
    {
      "channel": 0,
      "note": 76,
      "start": 26.3361,
      "duration": 0.0161,
      "velocity": 127,
      "chip": "ym2612"
    },
    {
      "channel": 3,
      "note": 73,
      "start": 26.3396,
      "duration": 0.0161,
      "velocity": 94,
      "chip": "ym2612"
    },
    {
      "channel": 2,
      "note": 73,
      "start": 26.3408,
      "duration": 0.0161,
      "velocity": 100,
      "chip": "ym2612"
    },
    {
      "channel": 0,
      "note": 74,
      "start": 26.3522,
      "duration": 0.018,
      "velocity": 127,
      "chip": "ym2612"
    },
    {
      "channel": 3,
      "note": 73,
      "start": 26.3557,
      "duration": 0.0187,
      "velocity": 94,
      "chip": "ym2612"
    },
    {
      "channel": 2,
      "note": 73,
      "start": 26.3568,
      "duration": 0.019,
      "velocity": 100,
      "chip": "ym2612"
    },
    {
      "channel": 0,
      "note": 78,
      "start": 26.3702,
      "duration": 0.0139,
      "velocity": 127,
      "chip": "ym2612"
    },
    {
      "channel": 5,
      "note": 76,
      "start": 26.3717,
      "duration": 0.0139,
      "velocity": 110,
      "chip": "ym2612"
    },
    {
      "channel": 4,
      "note": 73,
      "start": 26.3732,
      "duration": 0.0137,
      "velocity": 110,
      "chip": "ym2612"
    },
    {
      "channel": 3,
      "note": 73,
      "start": 26.3744,
      "duration": 0.0137,
      "velocity": 94,
      "chip": "ym2612"
    },
    {
      "channel": 2,
      "note": 56,
      "start": 26.3758,
      "duration": 0.0135,
      "velocity": 100,
      "chip": "ym2612"
    },
    {
      "channel": 1,
      "note": 71,
      "start": 26.3773,
      "duration": 0.0133,
      "velocity": 94,
      "chip": "ym2612"
    },
    {
      "channel": 0,
      "note": 76,
      "start": 26.3841,
      "duration": 0.0158,
      "velocity": 127,
      "chip": "ym2612"
    },
    {
      "channel": 5,
      "note": 76,
      "start": 26.3857,
      "duration": 0.0159,
      "velocity": 110,
      "chip": "ym2612"
    },
    {
      "channel": 4,
      "note": 73,
      "start": 26.3869,
      "duration": 0.0159,
      "velocity": 110,
      "chip": "ym2612"
    },
    {
      "channel": 3,
      "note": 73,
      "start": 26.3881,
      "duration": 0.0159,
      "velocity": 94,
      "chip": "ym2612"
    },
    {
      "channel": 2,
      "note": 56,
      "start": 26.3893,
      "duration": 0.0159,
      "velocity": 100,
      "chip": "ym2612"
    },
    {
      "channel": 1,
      "note": 71,
      "start": 26.3906,
      "duration": 0.0158,
      "velocity": 94,
      "chip": "ym2612"
    },
    {
      "channel": 0,
      "note": 75,
      "start": 26.3999,
      "duration": 0.0161,
      "velocity": 127,
      "chip": "ym2612"
    },
    {
      "channel": 5,
      "note": 76,
      "start": 26.4016,
      "duration": 0.0158,
      "velocity": 110,
      "chip": "ym2612"
    },
    {
      "channel": 4,
      "note": 73,
      "start": 26.4029,
      "duration": 0.0161,
      "velocity": 110,
      "chip": "ym2612"
    },
    {
      "channel": 3,
      "note": 73,
      "start": 26.404,
      "duration": 0.0161,
      "velocity": 94,
      "chip": "ym2612"
    },
    {
      "channel": 2,
      "note": 56,
      "start": 26.4051,
      "duration": 0.0161,
      "velocity": 100,
      "chip": "ym2612"
    },
    {
      "channel": 1,
      "note": 71,
      "start": 26.4063,
      "duration": 0.0161,
      "velocity": 94,
      "chip": "ym2612"
    },
    {
      "channel": 0,
      "note": 73,
      "start": 26.4159,
      "duration": 0.0161,
      "velocity": 127,
      "chip": "ym2612"
    },
    {
      "channel": 5,
      "note": 76,
      "start": 26.4173,
      "duration": 0.0159,
      "velocity": 110,
      "chip": "ym2612"
    },
    {
      "channel": 4,
      "note": 73,
      "start": 26.4189,
      "duration": 0.016,
      "velocity": 110,
      "chip": "ym2612"
    },
    {
      "channel": 3,
      "note": 73,
      "start": 26.4201,
      "duration": 0.0161,
      "velocity": 94,
      "chip": "ym2612"
    },
    {
      "channel": 2,
      "note": 56,
      "start": 26.4212,
      "duration": 0.0162,
      "velocity": 100,
      "chip": "ym2612"
    },
    {
      "channel": 1,
      "note": 71,
      "start": 26.4224,
      "duration": 0.0161,
      "velocity": 94,
      "chip": "ym2612"
    },
    {
      "channel": 0,
      "note": 71,
      "start": 26.432,
      "duration": 0.0161,
      "velocity": 127,
      "chip": "ym2612"
    },
    {
      "channel": 5,
      "note": 76,
      "start": 26.4333,
      "duration": 0.0161,
      "velocity": 110,
      "chip": "ym2612"
    },
    {
      "channel": 4,
      "note": 73,
      "start": 26.435,
      "duration": 0.0158,
      "velocity": 110,
      "chip": "ym2612"
    },
    {
      "channel": 3,
      "note": 73,
      "start": 26.4362,
      "duration": 0.0161,
      "velocity": 94,
      "chip": "ym2612"
    },
    {
      "channel": 2,
      "note": 56,
      "start": 26.4374,
      "duration": 0.0161,
      "velocity": 100,
      "chip": "ym2612"
    },
    {
      "channel": 1,
      "note": 71,
      "start": 26.4385,
      "duration": 0.0161,
      "velocity": 94,
      "chip": "ym2612"
    },
    {
      "channel": 0,
      "note": 70,
      "start": 26.4481,
      "duration": 0.0179,
      "velocity": 115,
      "chip": "ym2612"
    },
    {
      "channel": 5,
      "note": 76,
      "start": 26.4493,
      "duration": 0.0181,
      "velocity": 110,
      "chip": "ym2612"
    },
    {
      "channel": 4,
      "note": 73,
      "start": 26.4507,
      "duration": 0.0183,
      "velocity": 110,
      "chip": "ym2612"
    },
    {
      "channel": 3,
      "note": 73,
      "start": 26.4523,
      "duration": 0.0179,
      "velocity": 94,
      "chip": "ym2612"
    },
    {
      "channel": 2,
      "note": 56,
      "start": 26.4535,
      "duration": 0.0179,
      "velocity": 100,
      "chip": "ym2612"
    },
    {
      "channel": 1,
      "note": 71,
      "start": 26.4546,
      "duration": 0.0179,
      "velocity": 94,
      "chip": "ym2612"
    },
    {
      "channel": 0,
      "note": 36,
      "start": 26.4661,
      "duration": 0.0143,
      "velocity": 115,
      "chip": "ym2612"
    },
    {
      "channel": 5,
      "note": 76,
      "start": 26.4675,
      "duration": 0.0141,
      "velocity": 110,
      "chip": "ym2612"
    },
    {
      "channel": 4,
      "note": 73,
      "start": 26.469,
      "duration": 0.0138,
      "velocity": 110,
      "chip": "ym2612"
    },
    {
      "channel": 3,
      "note": 73,
      "start": 26.4702,
      "duration": 0.014,
      "velocity": 94,
      "chip": "ym2612"
    },
    {
      "channel": 2,
      "note": 56,
      "start": 26.4714,
      "duration": 0.0143,
      "velocity": 100,
      "chip": "ym2612"
    },
    {
      "channel": 1,
      "note": 71,
      "start": 26.4726,
      "duration": 0.0144,
      "velocity": 94,
      "chip": "ym2612"
    },
    {
      "channel": 0,
      "note": 36,
      "start": 26.4805,
      "duration": 0.016,
      "velocity": 115,
      "chip": "ym2612"
    },
    {
      "channel": 3,
      "note": 73,
      "start": 26.4842,
      "duration": 0.0158,
      "velocity": 94,
      "chip": "ym2612"
    },
    {
      "channel": 2,
      "note": 56,
      "start": 26.4857,
      "duration": 0.016,
      "velocity": 100,
      "chip": "ym2612"
    },
    {
      "channel": 1,
      "note": 71,
      "start": 26.4869,
      "duration": 0.016,
      "velocity": 94,
      "chip": "ym2612"
    },
    {
      "channel": 0,
      "note": 37,
      "start": 26.4965,
      "duration": 0.0161,
      "velocity": 115,
      "chip": "ym2612"
    },
    {
      "channel": 3,
      "note": 73,
      "start": 26.5,
      "duration": 0.0162,
      "velocity": 94,
      "chip": "ym2612"
    },
    {
      "channel": 2,
      "note": 56,
      "start": 26.5017,
      "duration": 0.0158,
      "velocity": 100,
      "chip": "ym2612"
    },
    {
      "channel": 1,
      "note": 71,
      "start": 26.5029,
      "duration": 0.0162,
      "velocity": 94,
      "chip": "ym2612"
    },
    {
      "channel": 0,
      "note": 37,
      "start": 26.5126,
      "duration": 0.0161,
      "velocity": 115,
      "chip": "ym2612"
    },
    {
      "channel": 3,
      "note": 73,
      "start": 26.5161,
      "duration": 0.0161,
      "velocity": 94,
      "chip": "ym2612"
    },
    {
      "channel": 2,
      "note": 56,
      "start": 26.5175,
      "duration": 0.0159,
      "velocity": 100,
      "chip": "ym2612"
    },
    {
      "channel": 1,
      "note": 71,
      "start": 26.5191,
      "duration": 0.016,
      "velocity": 94,
      "chip": "ym2612"
    },
    {
      "channel": 0,
      "note": 38,
      "start": 26.5287,
      "duration": 0.0161,
      "velocity": 115,
      "chip": "ym2612"
    },
    {
      "channel": 3,
      "note": 73,
      "start": 26.5322,
      "duration": 0.0161,
      "velocity": 94,
      "chip": "ym2612"
    },
    {
      "channel": 2,
      "note": 56,
      "start": 26.5334,
      "duration": 0.0161,
      "velocity": 100,
      "chip": "ym2612"
    },
    {
      "channel": 1,
      "note": 71,
      "start": 26.5351,
      "duration": 0.0158,
      "velocity": 94,
      "chip": "ym2612"
    },
    {
      "channel": 0,
      "note": 38,
      "start": 26.5448,
      "duration": 0.0161,
      "velocity": 115,
      "chip": "ym2612"
    },
    {
      "channel": 3,
      "note": 73,
      "start": 26.5483,
      "duration": 0.0161,
      "velocity": 94,
      "chip": "ym2612"
    },
    {
      "channel": 2,
      "note": 56,
      "start": 26.5495,
      "duration": 0.0161,
      "velocity": 100,
      "chip": "ym2612"
    },
    {
      "channel": 1,
      "note": 71,
      "start": 26.5509,
      "duration": 0.0158,
      "velocity": 94,
      "chip": "ym2612"
    },
    {
      "channel": 0,
      "note": 39,
      "start": 26.5609,
      "duration": 0.0179,
      "velocity": 124,
      "chip": "ym2612"
    },
    {
      "channel": 3,
      "note": 73,
      "start": 26.5644,
      "duration": 0.0187,
      "velocity": 94,
      "chip": "ym2612"
    },
    {
      "channel": 2,
      "note": 56,
      "start": 26.5656,
      "duration": 0.0195,
      "velocity": 100,
      "chip": "ym2612"
    },
    {
      "channel": 1,
      "note": 71,
      "start": 26.5667,
      "duration": 0.0197,
      "velocity": 94,
      "chip": "ym2612"
    },
    {
      "channel": 0,
      "note": 84,
      "start": 26.5789,
      "duration": 0.0143,
      "velocity": 124,
      "chip": "ym2612"
    },
    {
      "channel": 5,
      "note": 73,
      "start": 26.5804,
      "duration": 0.014,
      "velocity": 110,
      "chip": "ym2612"
    },
    {
      "channel": 4,
      "note": 76,
      "start": 26.582,
      "duration": 0.0137,
      "velocity": 110,
      "chip": "ym2612"
    },
    {
      "channel": 3,
      "note": 73,
      "start": 26.5831,
      "duration": 0.0137,
      "velocity": 94,
      "chip": "ym2612"
    },
    {
      "channel": 2,
      "note": 55,
      "start": 26.5852,
      "duration": 0.0128,
      "velocity": 100,
      "chip": "ym2612"
    },
    {
      "channel": 1,
      "note": 71,
      "start": 26.5864,
      "duration": 0.0129,
      "velocity": 94,
      "chip": "ym2612"
    },
    {
      "channel": 0,
      "note": 82,
      "start": 26.5932,
      "duration": 0.016,
      "velocity": 124,
      "chip": "ym2612"
    },
    {
      "channel": 5,
      "note": 73,
      "start": 26.5944,
      "duration": 0.016,
      "velocity": 110,
      "chip": "ym2612"
    },
    {
      "channel": 4,
      "note": 76,
      "start": 26.5957,
      "duration": 0.0159,
      "velocity": 110,
      "chip": "ym2612"
    },
    {
      "channel": 3,
      "note": 73,
      "start": 26.5968,
      "duration": 0.0159,
      "velocity": 94,
      "chip": "ym2612"
    },
    {
      "channel": 2,
      "note": 55,
      "start": 26.598,
      "duration": 0.0159,
      "velocity": 100,
      "chip": "ym2612"
    },
    {
      "channel": 1,
      "note": 71,
      "start": 26.5992,
      "duration": 0.0158,
      "velocity": 94,
      "chip": "ym2612"
    },
    {
      "channel": 0,
      "note": 80,
      "start": 26.6092,
      "duration": 0.0161,
      "velocity": 124,
      "chip": "ym2612"
    },
    {
      "channel": 5,
      "note": 73,
      "start": 26.6104,
      "duration": 0.0161,
      "velocity": 110,
      "chip": "ym2612"
    },
    {
      "channel": 4,
      "note": 76,
      "start": 26.6116,
      "duration": 0.0161,
      "velocity": 110,
      "chip": "ym2612"
    },
    {
      "channel": 3,
      "note": 73,
      "start": 26.6127,
      "duration": 0.0161,
      "velocity": 94,
      "chip": "ym2612"
    },
    {
      "channel": 2,
      "note": 55,
      "start": 26.6139,
      "duration": 0.0161,
      "velocity": 100,
      "chip": "ym2612"
    },
    {
      "channel": 1,
      "note": 71,
      "start": 26.6151,
      "duration": 0.0161,
      "velocity": 94,
      "chip": "ym2612"
    },
    {
      "channel": 0,
      "note": 77,
      "start": 26.6253,
      "duration": 0.0161,
      "velocity": 124,
      "chip": "ym2612"
    },
    {
      "channel": 5,
      "note": 73,
      "start": 26.6264,
      "duration": 0.0162,
      "velocity": 110,
      "chip": "ym2612"
    },
    {
      "channel": 4,
      "note": 76,
      "start": 26.6277,
      "duration": 0.0161,
      "velocity": 110,
      "chip": "ym2612"
    },
    {
      "channel": 3,
      "note": 73,
      "start": 26.6288,
      "duration": 0.0162,
      "velocity": 94,
      "chip": "ym2612"
    },
    {
      "channel": 2,
      "note": 55,
      "start": 26.63,
      "duration": 0.0161,
      "velocity": 100,
      "chip": "ym2612"
    },
    {
      "channel": 1,
      "note": 71,
      "start": 26.6312,
      "duration": 0.0161,
      "velocity": 94,
      "chip": "ym2612"
    },
    {
      "channel": 0,
      "note": 75,
      "start": 26.6414,
      "duration": 0.0161,
      "velocity": 124,
      "chip": "ym2612"
    },
    {
      "channel": 5,
      "note": 73,
      "start": 26.6426,
      "duration": 0.0161,
      "velocity": 110,
      "chip": "ym2612"
    },
    {
      "channel": 4,
      "note": 76,
      "start": 26.6437,
      "duration": 0.0161,
      "velocity": 110,
      "chip": "ym2612"
    },
    {
      "channel": 2,
      "note": 55,
      "start": 26.6461,
      "duration": 0.0161,
      "velocity": 100,
      "chip": "ym2612"
    },
    {
      "channel": 1,
      "note": 71,
      "start": 26.6473,
      "duration": 0.0161,
      "velocity": 94,
      "chip": "ym2612"
    },
    {
      "channel": 0,
      "note": 72,
      "start": 26.6575,
      "duration": 0.0179,
      "velocity": 124,
      "chip": "ym2612"
    },
    {
      "channel": 5,
      "note": 73,
      "start": 26.6587,
      "duration": 0.0179,
      "velocity": 110,
      "chip": "ym2612"
    },
    {
      "channel": 4,
      "note": 76,
      "start": 26.6598,
      "duration": 0.018,
      "velocity": 110,
      "chip": "ym2612"
    },
    {
      "channel": 2,
      "note": 55,
      "start": 26.6622,
      "duration": 0.0179,
      "velocity": 100,
      "chip": "ym2612"
    },
    {
      "channel": 1,
      "note": 71,
      "start": 26.6633,
      "duration": 0.018,
      "velocity": 94,
      "chip": "ym2612"
    },
    {
      "channel": 0,
      "note": 84,
      "start": 26.6755,
      "duration": 0.0143,
      "velocity": 124,
      "chip": "ym2612"
    },
    {
      "channel": 5,
      "note": 73,
      "start": 26.6766,
      "duration": 0.0143,
      "velocity": 110,
      "chip": "ym2612"
    },
    {
      "channel": 4,
      "note": 76,
      "start": 26.6778,
      "duration": 0.0143,
      "velocity": 110,
      "chip": "ym2612"
    },
    {
      "channel": 2,
      "note": 55,
      "start": 26.6801,
      "duration": 0.0146,
      "velocity": 100,
      "chip": "ym2612"
    },
    {
      "channel": 1,
      "note": 71,
      "start": 26.6813,
      "duration": 0.0146,
      "velocity": 94,
      "chip": "ym2612"
    },
    {
      "channel": 0,
      "note": 82,
      "start": 26.6898,
      "duration": 0.0161,
      "velocity": 124,
      "chip": "ym2612"
    },
    {
      "channel": 3,
      "note": 71,
      "start": 26.6936,
      "duration": 0.0158,
      "velocity": 94,
      "chip": "ym2612"
    },
    {
      "channel": 2,
      "note": 55,
      "start": 26.6948,
      "duration": 0.0158,
      "velocity": 100,
      "chip": "ym2612"
    },
    {
      "channel": 1,
      "note": 71,
      "start": 26.696,
      "duration": 0.0157,
      "velocity": 94,
      "chip": "ym2612"
    },
    {
      "channel": 0,
      "note": 80,
      "start": 26.7058,
      "duration": 0.0161,
      "velocity": 124,
      "chip": "ym2612"
    },
    {
      "channel": 3,
      "note": 71,
      "start": 26.7094,
      "duration": 0.016,
      "velocity": 94,
      "chip": "ym2612"
    },
    {
      "channel": 2,
      "note": 55,
      "start": 26.7105,
      "duration": 0.016,
      "velocity": 100,
      "chip": "ym2612"
    },
    {
      "channel": 1,
      "note": 71,
      "start": 26.7117,
      "duration": 0.0161,
      "velocity": 94,
      "chip": "ym2612"
    },
    {
      "channel": 0,
      "note": 77,
      "start": 26.7219,
      "duration": 0.0161,
      "velocity": 124,
      "chip": "ym2612"
    },
    {
      "channel": 3,
      "note": 71,
      "start": 26.7254,
      "duration": 0.0161,
      "velocity": 94,
      "chip": "ym2612"
    },
    {
      "channel": 2,
      "note": 55,
      "start": 26.7266,
      "duration": 0.0161,
      "velocity": 100,
      "chip": "ym2612"
    },
    {
      "channel": 1,
      "note": 71,
      "start": 26.7278,
      "duration": 0.0161,
      "velocity": 94,
      "chip": "ym2612"
    },
    {
      "channel": 0,
      "note": 75,
      "start": 26.738,
      "duration": 0.0161,
      "velocity": 124,
      "chip": "ym2612"
    },
    {
      "channel": 3,
      "note": 71,
      "start": 26.7415,
      "duration": 0.0161,
      "velocity": 94,
      "chip": "ym2612"
    },
    {
      "channel": 2,
      "note": 55,
      "start": 26.7427,
      "duration": 0.0161,
      "velocity": 100,
      "chip": "ym2612"
    },
    {
      "channel": 0,
      "note": 72,
      "start": 26.7541,
      "duration": 0.0161,
      "velocity": 124,
      "chip": "ym2612"
    },
    {
      "channel": 3,
      "note": 71,
      "start": 26.7576,
      "duration": 0.0162,
      "velocity": 94,
      "chip": "ym2612"
    },
    {
      "channel": 2,
      "note": 55,
      "start": 26.7588,
      "duration": 0.0162,
      "velocity": 100,
      "chip": "ym2612"
    },
    {
      "channel": 0,
      "note": 70,
      "start": 26.7703,
      "duration": 0.0183,
      "velocity": 115,
      "chip": "ym2612"
    },
    {
      "channel": 3,
      "note": 71,
      "start": 26.7738,
      "duration": 0.019,
      "velocity": 94,
      "chip": "ym2612"
    },
    {
      "channel": 2,
      "note": 55,
      "start": 26.7749,
      "duration": 0.0193,
      "velocity": 100,
      "chip": "ym2612"
    },
    {
      "channel": 0,
      "note": 36,
      "start": 26.7885,
      "duration": 0.0145,
      "velocity": 115,
      "chip": "ym2612"
    },
    {
      "channel": 5,
      "note": 76,
      "start": 26.7901,
      "duration": 0.0142,
      "velocity": 110,
      "chip": "ym2612"
    },
    {
      "channel": 4,
      "note": 73,
      "start": 26.7916,
      "duration": 0.0139,
      "velocity": 110,
      "chip": "ym2612"
    },
    {
      "channel": 3,
      "note": 71,
      "start": 26.7927,
      "duration": 0.014,
      "velocity": 94,
      "chip": "ym2612"
    },
    {
      "channel": 2,
      "note": 54,
      "start": 26.7942,
      "duration": 0.0137,
      "velocity": 100,
      "chip": "ym2612"
    },
    {
      "channel": 1,
      "note": 66,
      "start": 26.7958,
      "duration": 0.0134,
      "velocity": 94,
      "chip": "ym2612"
    },
    {
      "channel": 0,
      "note": 36,
      "start": 26.803,
      "duration": 0.0161,
      "velocity": 115,
      "chip": "ym2612"
    },
    {
      "channel": 5,
      "note": 76,
      "start": 26.8043,
      "duration": 0.016,
      "velocity": 110,
      "chip": "ym2612"
    },
    {
      "channel": 4,
      "note": 73,
      "start": 26.8055,
      "duration": 0.016,
      "velocity": 110,
      "chip": "ym2612"
    },
    {
      "channel": 3,
      "note": 71,
      "start": 26.8067,
      "duration": 0.0159,
      "velocity": 94,
      "chip": "ym2612"
    },
    {
      "channel": 2,
      "note": 54,
      "start": 26.8079,
      "duration": 0.0159,
      "velocity": 100,
      "chip": "ym2612"
    },
    {
      "channel": 1,
      "note": 66,
      "start": 26.8091,
      "duration": 0.0159,
      "velocity": 94,
      "chip": "ym2612"
    },
    {
      "channel": 0,
      "note": 37,
      "start": 26.8191,
      "duration": 0.016,
      "velocity": 115,
      "chip": "ym2612"
    },
    {
      "channel": 5,
      "note": 76,
      "start": 26.8203,
      "duration": 0.0161,
      "velocity": 110,
      "chip": "ym2612"
    },
    {
      "channel": 4,
      "note": 73,
      "start": 26.8215,
      "duration": 0.0161,
      "velocity": 110,
      "chip": "ym2612"
    },
    {
      "channel": 3,
      "note": 71,
      "start": 26.8226,
      "duration": 0.0161,
      "velocity": 94,
      "chip": "ym2612"
    },
    {
      "channel": 2,
      "note": 54,
      "start": 26.8238,
      "duration": 0.0161,
      "velocity": 100,
      "chip": "ym2612"
    },
    {
      "channel": 1,
      "note": 66,
      "start": 26.825,
      "duration": 0.0161,
      "velocity": 94,
      "chip": "ym2612"
    },
    {
      "channel": 0,
      "note": 37,
      "start": 26.8352,
      "duration": 0.0158,
      "velocity": 115,
      "chip": "ym2612"
    },
    {
      "channel": 5,
      "note": 76,
      "start": 26.8364,
      "duration": 0.0161,
      "velocity": 110,
      "chip": "ym2612"
    },
    {
      "channel": 4,
      "note": 73,
      "start": 26.8376,
      "duration": 0.0161,
      "velocity": 110,
      "chip": "ym2612"
    },
    {
      "channel": 3,
      "note": 71,
      "start": 26.8387,
      "duration": 0.0161,
      "velocity": 94,
      "chip": "ym2612"
    },
    {
      "channel": 2,
      "note": 54,
      "start": 26.8399,
      "duration": 0.0161,
      "velocity": 100,
      "chip": "ym2612"
    },
    {
      "channel": 1,
      "note": 66,
      "start": 26.8411,
      "duration": 0.0161,
      "velocity": 94,
      "chip": "ym2612"
    },
    {
      "channel": 0,
      "note": 38,
      "start": 26.8509,
      "duration": 0.0159,
      "velocity": 115,
      "chip": "ym2612"
    },
    {
      "channel": 5,
      "note": 76,
      "start": 26.8525,
      "duration": 0.016,
      "velocity": 110,
      "chip": "ym2612"
    },
    {
      "channel": 4,
      "note": 73,
      "start": 26.8537,
      "duration": 0.0161,
      "velocity": 110,
      "chip": "ym2612"
    },
    {
      "channel": 3,
      "note": 71,
      "start": 26.8548,
      "duration": 0.0161,
      "velocity": 94,
      "chip": "ym2612"
    },
    {
      "channel": 2,
      "note": 54,
      "start": 26.856,
      "duration": 0.0162,
      "velocity": 100,
      "chip": "ym2612"
    },
    {
      "channel": 1,
      "note": 66,
      "start": 26.8572,
      "duration": 0.0161,
      "velocity": 94,
      "chip": "ym2612"
    },
    {
      "channel": 0,
      "note": 38,
      "start": 26.8668,
      "duration": 0.0161,
      "velocity": 115,
      "chip": "ym2612"
    },
    {
      "channel": 5,
      "note": 76,
      "start": 26.8685,
      "duration": 0.0158,
      "velocity": 110,
      "chip": "ym2612"
    },
    {
      "channel": 4,
      "note": 73,
      "start": 26.8698,
      "duration": 0.0161,
      "velocity": 110,
      "chip": "ym2612"
    },
    {
      "channel": 3,
      "note": 71,
      "start": 26.8709,
      "duration": 0.0161,
      "velocity": 94,
      "chip": "ym2612"
    },
    {
      "channel": 2,
      "note": 54,
      "start": 26.8721,
      "duration": 0.016,
      "velocity": 100,
      "chip": "ym2612"
    },
    {
      "channel": 1,
      "note": 66,
      "start": 26.8733,
      "duration": 0.0161,
      "velocity": 94,
      "chip": "ym2612"
    },
    {
      "channel": 0,
      "note": 39,
      "start": 26.8829,
      "duration": 0.0161,
      "velocity": 115,
      "chip": "ym2612"
    },
    {
      "channel": 5,
      "note": 76,
      "start": 26.8843,
      "duration": 0.0159,
      "velocity": 110,
      "chip": "ym2612"
    },
    {
      "channel": 4,
      "note": 73,
      "start": 26.8859,
      "duration": 0.016,
      "velocity": 110,
      "chip": "ym2612"
    },
    {
      "channel": 3,
      "note": 71,
      "start": 26.887,
      "duration": 0.0162,
      "velocity": 94,
      "chip": "ym2612"
    },
    {
      "channel": 2,
      "note": 54,
      "start": 26.8882,
      "duration": 0.0161,
      "velocity": 100,
      "chip": "ym2612"
    },
    {
      "channel": 1,
      "note": 66,
      "start": 26.8894,
      "duration": 0.0161,
      "velocity": 94,
      "chip": "ym2612"
    },
    {
      "channel": 0,
      "note": 39,
      "start": 26.899,
      "duration": 0.0161,
      "velocity": 115,
      "chip": "ym2612"
    },
    {
      "channel": 3,
      "note": 71,
      "start": 26.9032,
      "duration": 0.016,
      "velocity": 94,
      "chip": "ym2612"
    },
    {
      "channel": 2,
      "note": 54,
      "start": 26.9043,
      "duration": 0.016,
      "velocity": 100,
      "chip": "ym2612"
    },
    {
      "channel": 1,
      "note": 66,
      "start": 26.9055,
      "duration": 0.0161,
      "velocity": 94,
      "chip": "ym2612"
    },
    {
      "channel": 0,
      "note": 40,
      "start": 26.9151,
      "duration": 0.0161,
      "velocity": 115,
      "chip": "ym2612"
    },
    {
      "channel": 3,
      "note": 71,
      "start": 26.9192,
      "duration": 0.016,
      "velocity": 94,
      "chip": "ym2612"
    },
    {
      "channel": 2,
      "note": 54,
      "start": 26.9203,
      "duration": 0.0162,
      "velocity": 100,
      "chip": "ym2612"
    },
    {
      "channel": 1,
      "note": 66,
      "start": 26.9215,
      "duration": 0.0161,
      "velocity": 94,
      "chip": "ym2612"
    },
    {
      "channel": 0,
      "note": 40,
      "start": 26.9312,
      "duration": 0.0161,
      "velocity": 115,
      "chip": "ym2612"
    },
    {
      "channel": 3,
      "note": 71,
      "start": 26.9352,
      "duration": 0.0162,
      "velocity": 94,
      "chip": "ym2612"
    },
    {
      "channel": 2,
      "note": 54,
      "start": 26.9365,
      "duration": 0.0161,
      "velocity": 100,
      "chip": "ym2612"
    },
    {
      "channel": 1,
      "note": 66,
      "start": 26.9376,
      "duration": 0.0162,
      "velocity": 94,
      "chip": "ym2612"
    },
    {
      "channel": 0,
      "note": 40,
      "start": 26.9473,
      "duration": 0.0161,
      "velocity": 115,
      "chip": "ym2612"
    },
    {
      "channel": 3,
      "note": 71,
      "start": 26.9514,
      "duration": 0.0156,
      "velocity": 94,
      "chip": "ym2612"
    },
    {
      "channel": 2,
      "note": 54,
      "start": 26.9526,
      "duration": 0.0161,
      "velocity": 100,
      "chip": "ym2612"
    },
    {
      "channel": 1,
      "note": 66,
      "start": 26.9538,
      "duration": 0.0161,
      "velocity": 94,
      "chip": "ym2612"
    },
    {
      "channel": 0,
      "note": 41,
      "start": 26.9634,
      "duration": 0.0161,
      "velocity": 115,
      "chip": "ym2612"
    },
    {
      "channel": 3,
      "note": 71,
      "start": 26.967,
      "duration": 0.0161,
      "velocity": 94,
      "chip": "ym2612"
    },
    {
      "channel": 2,
      "note": 54,
      "start": 26.9687,
      "duration": 0.016,
      "velocity": 100,
      "chip": "ym2612"
    },
    {
      "channel": 1,
      "note": 66,
      "start": 26.9699,
      "duration": 0.016,
      "velocity": 94,
      "chip": "ym2612"
    },
    {
      "channel": 0,
      "note": 41,
      "start": 26.9795,
      "duration": 0.0161,
      "velocity": 115,
      "chip": "ym2612"
    },
    {
      "channel": 3,
      "note": 71,
      "start": 26.9831,
      "duration": 0.0172,
      "velocity": 94,
      "chip": "ym2612"
    },
    {
      "channel": 2,
      "note": 54,
      "start": 26.9847,
      "duration": 0.0172,
      "velocity": 100,
      "chip": "ym2612"
    },
    {
      "channel": 1,
      "note": 66,
      "start": 26.9859,
      "duration": 0.0173,
      "velocity": 94,
      "chip": "ym2612"
    },
    {
      "channel": 0,
      "note": 42,
      "start": 26.9956,
      "duration": 0.0161,
      "velocity": 115,
      "chip": "ym2612"
    },
    {
      "channel": 5,
      "note": 76,
      "start": 26.9973,
      "duration": 0.0156,
      "velocity": 110,
      "chip": "ym2612"
    },
    {
      "channel": 4,
      "note": 78,
      "start": 26.999,
      "duration": 0.0151,
      "velocity": 110,
      "chip": "ym2612"
    },
    {
      "channel": 3,
      "note": 71,
      "start": 27.0002,
      "duration": 0.0151,
      "velocity": 94,
      "chip": "ym2612"
    },
    {
      "channel": 2,
      "note": 54,
      "start": 27.0019,
      "duration": 0.0146,
      "velocity": 100,
      "chip": "ym2612"
    },
    {
      "channel": 1,
      "note": 66,
      "start": 27.0032,
      "duration": 0.015,
      "velocity": 94,
      "chip": "ym2612"
    },
    {
      "channel": 0,
      "note": 42,
      "start": 27.0117,
      "duration": 0.0161,
      "velocity": 115,
      "chip": "ym2612"
    },
    {
      "channel": 5,
      "note": 76,
      "start": 27.013,
      "duration": 0.016,
      "velocity": 110,
      "chip": "ym2612"
    },
    {
      "channel": 4,
      "note": 78,
      "start": 27.0142,
      "duration": 0.016,
      "velocity": 110,
      "chip": "ym2612"
    },
    {
      "channel": 3,
      "note": 71,
      "start": 27.0154,
      "duration": 0.016,
      "velocity": 94,
      "chip": "ym2612"
    },
    {
      "channel": 2,
      "note": 54,
      "start": 27.0165,
      "duration": 0.016,
      "velocity": 100,
      "chip": "ym2612"
    },
    {
      "channel": 1,
      "note": 66,
      "start": 27.0182,
      "duration": 0.0155,
      "velocity": 94,
      "chip": "ym2612"
    },
    {
      "channel": 0,
      "note": 43,
      "start": 27.0278,
      "duration": 0.0161,
      "velocity": 115,
      "chip": "ym2612"
    },
    {
      "channel": 5,
      "note": 76,
      "start": 27.029,
      "duration": 0.0161,
      "velocity": 110,
      "chip": "ym2612"
    },
    {
      "channel": 4,
      "note": 78,
      "start": 27.0301,
      "duration": 0.0162,
      "velocity": 110,
      "chip": "ym2612"
    },
    {
      "channel": 3,
      "note": 71,
      "start": 27.0313,
      "duration": 0.0162,
      "velocity": 94,
      "chip": "ym2612"
    },
    {
      "channel": 2,
      "note": 54,
      "start": 27.0325,
      "duration": 0.0161,
      "velocity": 100,
      "chip": "ym2612"
    },
    {
      "channel": 1,
      "note": 66,
      "start": 27.0337,
      "duration": 0.0161,
      "velocity": 94,
      "chip": "ym2612"
    },
    {
      "channel": 0,
      "note": 43,
      "start": 27.0439,
      "duration": 0.0161,
      "velocity": 115,
      "chip": "ym2612"
    },
    {
      "channel": 3,
      "note": 71,
      "start": 27.0475,
      "duration": 0.016,
      "velocity": 94,
      "chip": "ym2612"
    },
    {
      "channel": 2,
      "note": 54,
      "start": 27.0486,
      "duration": 0.0161,
      "velocity": 100,
      "chip": "ym2612"
    },
    {
      "channel": 1,
      "note": 66,
      "start": 27.0498,
      "duration": 0.0161,
      "velocity": 94,
      "chip": "ym2612"
    },
    {
      "channel": 0,
      "note": 44,
      "start": 27.06,
      "duration": 0.0161,
      "velocity": 115,
      "chip": "ym2612"
    },
    {
      "channel": 2,
      "note": 54,
      "start": 27.0647,
      "duration": 0.016,
      "velocity": 100,
      "chip": "ym2612"
    },
    {
      "channel": 1,
      "note": 66,
      "start": 27.0659,
      "duration": 0.0161,
      "velocity": 94,
      "chip": "ym2612"
    },
    {
      "channel": 0,
      "note": 44,
      "start": 27.0761,
      "duration": 0.0179,
      "velocity": 115,
      "chip": "ym2612"
    },
    {
      "channel": 2,
      "note": 54,
      "start": 27.0808,
      "duration": 0.0189,
      "velocity": 100,
      "chip": "ym2612"
    },
    {
      "channel": 1,
      "note": 66,
      "start": 27.082,
      "duration": 0.0194,
      "velocity": 94,
      "chip": "ym2612"
    },
    {
      "channel": 0,
      "note": 36,
      "start": 27.0941,
      "duration": 0.0143,
      "velocity": 115,
      "chip": "ym2612"
    },
    {
      "channel": 5,
      "note": 76,
      "start": 27.0955,
      "duration": 0.0141,
      "velocity": 110,
      "chip": "ym2612"
    },
    {
      "channel": 4,
      "note": 78,
      "start": 27.097,
      "duration": 0.0139,
      "velocity": 110,
      "chip": "ym2612"
    },
    {
      "channel": 2,
      "note": 54,
      "start": 27.0997,
      "duration": 0.014,
      "velocity": 100,
      "chip": "ym2612"
    },
    {
      "channel": 1,
      "note": 66,
      "start": 27.1014,
      "duration": 0.0134,
      "velocity": 94,
      "chip": "ym2612"
    },
    {
      "channel": 0,
      "note": 36,
      "start": 27.1084,
      "duration": 0.016,
      "velocity": 115,
      "chip": "ym2612"
    },
    {
      "channel": 5,
      "note": 76,
      "start": 27.1097,
      "duration": 0.016,
      "velocity": 110,
      "chip": "ym2612"
    },
    {
      "channel": 4,
      "note": 78,
      "start": 27.1109,
      "duration": 0.0159,
      "velocity": 110,
      "chip": "ym2612"
    },
    {
      "channel": 3,
      "note": 66,
      "start": 27.1124,
      "duration": 0.0156,
      "velocity": 94,
      "chip": "ym2612"
    },
    {
      "channel": 2,
      "note": 54,
      "start": 27.1137,
      "duration": 0.0155,
      "velocity": 100,
      "chip": "ym2612"
    },
    {
      "channel": 1,
      "note": 66,
      "start": 27.1148,
      "duration": 0.0155,
      "velocity": 94,
      "chip": "ym2612"
    },
    {
      "channel": 0,
      "note": 37,
      "start": 27.1244,
      "duration": 0.0161,
      "velocity": 115,
      "chip": "ym2612"
    },
    {
      "channel": 5,
      "note": 76,
      "start": 27.1256,
      "duration": 0.0161,
      "velocity": 110,
      "chip": "ym2612"
    },
    {
      "channel": 4,
      "note": 78,
      "start": 27.1268,
      "duration": 0.0161,
      "velocity": 110,
      "chip": "ym2612"
    },
    {
      "channel": 3,
      "note": 66,
      "start": 27.128,
      "duration": 0.016,
      "velocity": 94,
      "chip": "ym2612"
    },
    {
      "channel": 2,
      "note": 54,
      "start": 27.1292,
      "duration": 0.016,
      "velocity": 100,
      "chip": "ym2612"
    },
    {
      "channel": 1,
      "note": 66,
      "start": 27.1303,
      "duration": 0.016,
      "velocity": 94,
      "chip": "ym2612"
    },
    {
      "channel": 0,
      "note": 37,
      "start": 27.1405,
      "duration": 0.0161,
      "velocity": 115,
      "chip": "ym2612"
    },
    {
      "channel": 5,
      "note": 76,
      "start": 27.1417,
      "duration": 0.0161,
      "velocity": 110,
      "chip": "ym2612"
    },
    {
      "channel": 4,
      "note": 78,
      "start": 27.1429,
      "duration": 0.0162,
      "velocity": 110,
      "chip": "ym2612"
    },
    {
      "channel": 3,
      "note": 66,
      "start": 27.1441,
      "duration": 0.0161,
      "velocity": 94,
      "chip": "ym2612"
    },
    {
      "channel": 2,
      "note": 54,
      "start": 27.1452,
      "duration": 0.0161,
      "velocity": 100,
      "chip": "ym2612"
    },
    {
      "channel": 1,
      "note": 66,
      "start": 27.1463,
      "duration": 0.0162,
      "velocity": 94,
      "chip": "ym2612"
    },
    {
      "channel": 0,
      "note": 38,
      "start": 27.1566,
      "duration": 0.0162,
      "velocity": 115,
      "chip": "ym2612"
    },
    {
      "channel": 3,
      "note": 66,
      "start": 27.1602,
      "duration": 0.0161,
      "velocity": 94,
      "chip": "ym2612"
    },
    {
      "channel": 2,
      "note": 54,
      "start": 27.1613,
      "duration": 0.0161,
      "velocity": 100,
      "chip": "ym2612"
    },
    {
      "channel": 1,
      "note": 66,
      "start": 27.1625,
      "duration": 0.016,
      "velocity": 94,
      "chip": "ym2612"
    },
    {
      "channel": 0,
      "note": 38,
      "start": 27.1728,
      "duration": 0.0161,
      "velocity": 115,
      "chip": "ym2612"
    },
    {
      "channel": 3,
      "note": 66,
      "start": 27.1763,
      "duration": 0.0161,
      "velocity": 94,
      "chip": "ym2612"
    },
    {
      "channel": 2,
      "note": 54,
      "start": 27.1774,
      "duration": 0.0161,
      "velocity": 100,
      "chip": "ym2612"
    },
    {
      "channel": 1,
      "note": 66,
      "start": 27.1785,
      "duration": 0.0161,
      "velocity": 94,
      "chip": "ym2612"
    },
    {
      "channel": 0,
      "note": 39,
      "start": 27.1888,
      "duration": 0.0179,
      "velocity": 124,
      "chip": "ym2612"
    },
    {
      "channel": 3,
      "note": 66,
      "start": 27.1924,
      "duration": 0.0186,
      "velocity": 94,
      "chip": "ym2612"
    },
    {
      "channel": 2,
      "note": 54,
      "start": 27.1935,
      "duration": 0.0187,
      "velocity": 100,
      "chip": "ym2612"
    },
    {
      "channel": 1,
      "note": 66,
      "start": 27.1947,
      "duration": 0.0187,
      "velocity": 94,
      "chip": "ym2612"
    },
    {
      "channel": 0,
      "note": 84,
      "start": 27.2068,
      "duration": 0.0143,
      "velocity": 124,
      "chip": "ym2612"
    },
    {
      "channel": 5,
      "note": 78,
      "start": 27.2083,
      "duration": 0.014,
      "velocity": 110,
      "chip": "ym2612"
    },
    {
      "channel": 4,
      "note": 76,
      "start": 27.2098,
      "duration": 0.0138,
      "velocity": 110,
      "chip": "ym2612"
    },
    {
      "channel": 3,
      "note": 66,
      "start": 27.211,
      "duration": 0.0137,
      "velocity": 94,
      "chip": "ym2612"
    },
    {
      "channel": 2,
      "note": 54,
      "start": 27.2122,
      "duration": 0.0137,
      "velocity": 100,
      "chip": "ym2612"
    },
    {
      "channel": 1,
      "note": 66,
      "start": 27.2134,
      "duration": 0.0137,
      "velocity": 94,
      "chip": "ym2612"
    },
    {
      "channel": 0,
      "note": 82,
      "start": 27.2211,
      "duration": 0.0161,
      "velocity": 124,
      "chip": "ym2612"
    },
    {
      "channel": 5,
      "note": 78,
      "start": 27.2223,
      "duration": 0.016,
      "velocity": 110,
      "chip": "ym2612"
    },
    {
      "channel": 4,
      "note": 76,
      "start": 27.2236,
      "duration": 0.016,
      "velocity": 110,
      "chip": "ym2612"
    },
    {
      "channel": 3,
      "note": 66,
      "start": 27.2247,
      "duration": 0.016,
      "velocity": 94,
      "chip": "ym2612"
    },
    {
      "channel": 2,
      "note": 54,
      "start": 27.2259,
      "duration": 0.016,
      "velocity": 100,
      "chip": "ym2612"
    },
    {
      "channel": 1,
      "note": 66,
      "start": 27.2271,
      "duration": 0.016,
      "velocity": 94,
      "chip": "ym2612"
    },
    {
      "channel": 0,
      "note": 80,
      "start": 27.2372,
      "duration": 0.0162,
      "velocity": 124,
      "chip": "ym2612"
    },
    {
      "channel": 5,
      "note": 78,
      "start": 27.2383,
      "duration": 0.0162,
      "velocity": 110,
      "chip": "ym2612"
    },
    {
      "channel": 4,
      "note": 76,
      "start": 27.2395,
      "duration": 0.0162,
      "velocity": 110,
      "chip": "ym2612"
    },
    {
      "channel": 3,
      "note": 66,
      "start": 27.2407,
      "duration": 0.0163,
      "velocity": 94,
      "chip": "ym2612"
    },
    {
      "channel": 2,
      "note": 54,
      "start": 27.242,
      "duration": 0.0161,
      "velocity": 100,
      "chip": "ym2612"
    },
    {
      "channel": 1,
      "note": 66,
      "start": 27.2431,
      "duration": 0.0162,
      "velocity": 94,
      "chip": "ym2612"
    },
    {
      "channel": 0,
      "note": 77,
      "start": 27.2534,
      "duration": 0.0163,
      "velocity": 124,
      "chip": "ym2612"
    },
    {
      "channel": 3,
      "note": 66,
      "start": 27.257,
      "duration": 0.0163,
      "velocity": 94,
      "chip": "ym2612"
    },
    {
      "channel": 2,
      "note": 54,
      "start": 27.2581,
      "duration": 0.0163,
      "velocity": 100,
      "chip": "ym2612"
    },
    {
      "channel": 1,
      "note": 66,
      "start": 27.2593,
      "duration": 0.0163,
      "velocity": 94,
      "chip": "ym2612"
    },
    {
      "channel": 0,
      "note": 75,
      "start": 27.2698,
      "duration": 0.0163,
      "velocity": 124,
      "chip": "ym2612"
    },
    {
      "channel": 3,
      "note": 66,
      "start": 27.2733,
      "duration": 0.0163,
      "velocity": 94,
      "chip": "ym2612"
    },
    {
      "channel": 2,
      "note": 54,
      "start": 27.2744,
      "duration": 0.0163,
      "velocity": 100,
      "chip": "ym2612"
    },
    {
      "channel": 1,
      "note": 66,
      "start": 27.2756,
      "duration": 0.0163,
      "velocity": 94,
      "chip": "ym2612"
    },
    {
      "channel": 0,
      "note": 72,
      "start": 27.2861,
      "duration": 0.0161,
      "velocity": 124,
      "chip": "ym2612"
    },
    {
      "channel": 3,
      "note": 66,
      "start": 27.2895,
      "duration": 0.0167,
      "velocity": 94,
      "chip": "ym2612"
    },
    {
      "channel": 2,
      "note": 54,
      "start": 27.2907,
      "duration": 0.0169,
      "velocity": 100,
      "chip": "ym2612"
    },
    {
      "channel": 1,
      "note": 66,
      "start": 27.2919,
      "duration": 0.0169,
      "velocity": 94,
      "chip": "ym2612"
    },
    {
      "channel": 0,
      "note": 70,
      "start": 27.3022,
      "duration": 0.016,
      "velocity": 124,
      "chip": "ym2612"
    },
    {
      "channel": 5,
      "note": 78,
      "start": 27.3036,
      "duration": 0.0159,
      "velocity": 110,
      "chip": "ym2612"
    },
    {
      "channel": 4,
      "note": 76,
      "start": 27.3051,
      "duration": 0.0156,
      "velocity": 110,
      "chip": "ym2612"
    },
    {
      "channel": 3,
      "note": 66,
      "start": 27.3063,
      "duration": 0.0156,
      "velocity": 94,
      "chip": "ym2612"
    },
    {
      "channel": 2,
      "note": 54,
      "start": 27.3076,
      "duration": 0.0155,
      "velocity": 100,
      "chip": "ym2612"
    },
    {
      "channel": 1,
      "note": 66,
      "start": 27.3088,
      "duration": 0.0155,
      "velocity": 94,
      "chip": "ym2612"
    },
    {
      "channel": 0,
      "note": 68,
      "start": 27.3182,
      "duration": 0.0156,
      "velocity": 124,
      "chip": "ym2612"
    },
    {
      "channel": 5,
      "note": 78,
      "start": 27.3195,
      "duration": 0.0161,
      "velocity": 110,
      "chip": "ym2612"
    },
    {
      "channel": 4,
      "note": 76,
      "start": 27.3207,
      "duration": 0.016,
      "velocity": 110,
      "chip": "ym2612"
    },
    {
      "channel": 3,
      "note": 66,
      "start": 27.3219,
      "duration": 0.016,
      "velocity": 94,
      "chip": "ym2612"
    },
    {
      "channel": 2,
      "note": 54,
      "start": 27.3231,
      "duration": 0.016,
      "velocity": 100,
      "chip": "ym2612"
    },
    {
      "channel": 1,
      "note": 66,
      "start": 27.3243,
      "duration": 0.016,
      "velocity": 94,
      "chip": "ym2612"
    },
    {
      "channel": 0,
      "note": 65,
      "start": 27.3338,
      "duration": 0.0161,
      "velocity": 124,
      "chip": "ym2612"
    },
    {
      "channel": 5,
      "note": 78,
      "start": 27.3356,
      "duration": 0.016,
      "velocity": 110,
      "chip": "ym2612"
    },
    {
      "channel": 4,
      "note": 76,
      "start": 27.3367,
      "duration": 0.0161,
      "velocity": 110,
      "chip": "ym2612"
    },
    {
      "channel": 3,
      "note": 66,
      "start": 27.3379,
      "duration": 0.0161,
      "velocity": 94,
      "chip": "ym2612"
    },
    {
      "channel": 2,
      "note": 54,
      "start": 27.3391,
      "duration": 0.0161,
      "velocity": 100,
      "chip": "ym2612"
    },
    {
      "channel": 1,
      "note": 66,
      "start": 27.3403,
      "duration": 0.0161,
      "velocity": 94,
      "chip": "ym2612"
    },
    {
      "channel": 0,
      "note": 63,
      "start": 27.3499,
      "duration": 0.0153,
      "velocity": 1,
      "chip": "ym2612"
    },
    {
      "channel": 5,
      "note": 78,
      "start": 27.3516,
      "duration": 0.0147,
      "velocity": 110,
      "chip": "ym2612"
    },
    {
      "channel": 4,
      "note": 76,
      "start": 27.3528,
      "duration": 0.0152,
      "velocity": 110,
      "chip": "ym2612"
    },
    {
      "channel": 3,
      "note": 66,
      "start": 27.354,
      "duration": 0.0153,
      "velocity": 94,
      "chip": "ym2612"
    },
    {
      "channel": 2,
      "note": 54,
      "start": 27.3552,
      "duration": 0.0153,
      "velocity": 100,
      "chip": "ym2612"
    },
    {
      "channel": 1,
      "note": 66,
      "start": 27.3564,
      "duration": 0.0153,
      "velocity": 94,
      "chip": "ym2612"
    },
    {
      "channel": 3,
      "note": 66,
      "start": 27.3693,
      "duration": 0.0148,
      "velocity": 94,
      "chip": "ym2612"
    },
    {
      "channel": 2,
      "note": 54,
      "start": 27.3705,
      "duration": 0.0153,
      "velocity": 100,
      "chip": "ym2612"
    },
    {
      "channel": 1,
      "note": 66,
      "start": 27.3717,
      "duration": 0.0152,
      "velocity": 94,
      "chip": "ym2612"
    },
    {
      "channel": 3,
      "note": 66,
      "start": 27.3841,
      "duration": 0.0159,
      "velocity": 94,
      "chip": "ym2612"
    },
    {
      "channel": 2,
      "note": 54,
      "start": 27.3857,
      "duration": 0.016,
      "velocity": 100,
      "chip": "ym2612"
    },
    {
      "channel": 1,
      "note": 66,
      "start": 27.3869,
      "duration": 0.0161,
      "velocity": 94,
      "chip": "ym2612"
    },
    {
      "channel": 3,
      "note": 66,
      "start": 27.4,
      "duration": 0.021,
      "velocity": 94,
      "chip": "ym2612"
    },
    {
      "channel": 2,
      "note": 54,
      "start": 27.4018,
      "duration": 0.0206,
      "velocity": 100,
      "chip": "ym2612"
    },
    {
      "channel": 1,
      "note": 66,
      "start": 27.403,
      "duration": 0.0207,
      "velocity": 94,
      "chip": "ym2612"
    },
    {
      "channel": 0,
      "note": 36,
      "start": 27.4161,
      "duration": 0.0143,
      "velocity": 115,
      "chip": "ym2612"
    },
    {
      "channel": 5,
      "note": 76,
      "start": 27.4182,
      "duration": 0.0135,
      "velocity": 110,
      "chip": "ym2612"
    },
    {
      "channel": 4,
      "note": 78,
      "start": 27.4198,
      "duration": 0.013,
      "velocity": 110,
      "chip": "ym2612"
    },
    {
      "channel": 3,
      "note": 66,
      "start": 27.421,
      "duration": 0.0133,
      "velocity": 94,
      "chip": "ym2612"
    },
    {
      "channel": 2,
      "note": 49,
      "start": 27.4224,
      "duration": 0.0134,
      "velocity": 100,
      "chip": "ym2612"
    },
    {
      "channel": 1,
      "note": 66,
      "start": 27.4237,
      "duration": 0.0134,
      "velocity": 94,
      "chip": "ym2612"
    },
    {
      "channel": 0,
      "note": 36,
      "start": 27.4304,
      "duration": 0.016,
      "velocity": 115,
      "chip": "ym2612"
    },
    {
      "channel": 5,
      "note": 76,
      "start": 27.4317,
      "duration": 0.016,
      "velocity": 110,
      "chip": "ym2612"
    },
    {
      "channel": 4,
      "note": 78,
      "start": 27.4329,
      "duration": 0.0159,
      "velocity": 110,
      "chip": "ym2612"
    },
    {
      "channel": 3,
      "note": 66,
      "start": 27.4343,
      "duration": 0.0157,
      "velocity": 94,
      "chip": "ym2612"
    },
    {
      "channel": 2,
      "note": 49,
      "start": 27.4359,
      "duration": 0.0158,
      "velocity": 100,
      "chip": "ym2612"
    },
    {
      "channel": 1,
      "note": 66,
      "start": 27.437,
      "duration": 0.0159,
      "velocity": 94,
      "chip": "ym2612"
    },
    {
      "channel": 0,
      "note": 37,
      "start": 27.4464,
      "duration": 0.0162,
      "velocity": 115,
      "chip": "ym2612"
    },
    {
      "channel": 5,
      "note": 76,
      "start": 27.4476,
      "duration": 0.0161,
      "velocity": 110,
      "chip": "ym2612"
    },
    {
      "channel": 4,
      "note": 78,
      "start": 27.4488,
      "duration": 0.0161,
      "velocity": 110,
      "chip": "ym2612"
    },
    {
      "channel": 3,
      "note": 66,
      "start": 27.45,
      "duration": 0.0161,
      "velocity": 94,
      "chip": "ym2612"
    },
    {
      "channel": 2,
      "note": 49,
      "start": 27.4516,
      "duration": 0.0158,
      "velocity": 100,
      "chip": "ym2612"
    },
    {
      "channel": 1,
      "note": 66,
      "start": 27.4529,
      "duration": 0.0161,
      "velocity": 94,
      "chip": "ym2612"
    },
    {
      "channel": 0,
      "note": 37,
      "start": 27.4626,
      "duration": 0.0161,
      "velocity": 115,
      "chip": "ym2612"
    },
    {
      "channel": 5,
      "note": 76,
      "start": 27.4637,
      "duration": 0.0161,
      "velocity": 110,
      "chip": "ym2612"
    },
    {
      "channel": 4,
      "note": 78,
      "start": 27.4649,
      "duration": 0.0161,
      "velocity": 110,
      "chip": "ym2612"
    },
    {
      "channel": 3,
      "note": 66,
      "start": 27.4661,
      "duration": 0.0161,
      "velocity": 94,
      "chip": "ym2612"
    },
    {
      "channel": 2,
      "note": 49,
      "start": 27.4674,
      "duration": 0.0159,
      "velocity": 100,
      "chip": "ym2612"
    },
    {
      "channel": 1,
      "note": 66,
      "start": 27.469,
      "duration": 0.016,
      "velocity": 94,
      "chip": "ym2612"
    },
    {
      "channel": 0,
      "note": 38,
      "start": 27.4787,
      "duration": 0.0161,
      "velocity": 115,
      "chip": "ym2612"
    },
    {
      "channel": 5,
      "note": 76,
      "start": 27.4798,
      "duration": 0.0161,
      "velocity": 110,
      "chip": "ym2612"
    },
    {
      "channel": 4,
      "note": 78,
      "start": 27.481,
      "duration": 0.0161,
      "velocity": 110,
      "chip": "ym2612"
    },
    {
      "channel": 3,
      "note": 66,
      "start": 27.4822,
      "duration": 0.0161,
      "velocity": 94,
      "chip": "ym2612"
    },
    {
      "channel": 2,
      "note": 49,
      "start": 27.4833,
      "duration": 0.0161,
      "velocity": 100,
      "chip": "ym2612"
    },
    {
      "channel": 1,
      "note": 66,
      "start": 27.485,
      "duration": 0.0158,
      "velocity": 94,
      "chip": "ym2612"
    },
    {
      "channel": 0,
      "note": 38,
      "start": 27.4948,
      "duration": 0.0179,
      "velocity": 115,
      "chip": "ym2612"
    },
    {
      "channel": 5,
      "note": 76,
      "start": 27.4959,
      "duration": 0.018,
      "velocity": 110,
      "chip": "ym2612"
    },
    {
      "channel": 4,
      "note": 78,
      "start": 27.4971,
      "duration": 0.0179,
      "velocity": 110,
      "chip": "ym2612"
    },
    {
      "channel": 3,
      "note": 66,
      "start": 27.4983,
      "duration": 0.018,
      "velocity": 94,
      "chip": "ym2612"
    },
    {
      "channel": 2,
      "note": 49,
      "start": 27.4994,
      "duration": 0.0188,
      "velocity": 100,
      "chip": "ym2612"
    },
    {
      "channel": 1,
      "note": 66,
      "start": 27.5008,
      "duration": 0.0186,
      "velocity": 94,
      "chip": "ym2612"
    },
    {
      "channel": 0,
      "note": 36,
      "start": 27.5127,
      "duration": 0.0143,
      "velocity": 115,
      "chip": "ym2612"
    },
    {
      "channel": 5,
      "note": 76,
      "start": 27.5139,
      "duration": 0.0142,
      "velocity": 110,
      "chip": "ym2612"
    },
    {
      "channel": 4,
      "note": 78,
      "start": 27.5151,
      "duration": 0.0143,
      "velocity": 110,
      "chip": "ym2612"
    },
    {
      "channel": 3,
      "note": 66,
      "start": 27.5163,
      "duration": 0.0143,
      "velocity": 94,
      "chip": "ym2612"
    },
    {
      "channel": 2,
      "note": 51,
      "start": 27.5182,
      "duration": 0.0136,
      "velocity": 100,
      "chip": "ym2612"
    },
    {
      "channel": 1,
      "note": 66,
      "start": 27.5195,
      "duration": 0.0135,
      "velocity": 94,
      "chip": "ym2612"
    },
    {
      "channel": 0,
      "note": 36,
      "start": 27.527,
      "duration": 0.016,
      "velocity": 115,
      "chip": "ym2612"
    },
    {
      "channel": 3,
      "note": 66,
      "start": 27.5306,
      "duration": 0.016,
      "velocity": 94,
      "chip": "ym2612"
    },
    {
      "channel": 2,
      "note": 51,
      "start": 27.5318,
      "duration": 0.016,
      "velocity": 100,
      "chip": "ym2612"
    },
    {
      "channel": 1,
      "note": 66,
      "start": 27.5329,
      "duration": 0.016,
      "velocity": 94,
      "chip": "ym2612"
    },
    {
      "channel": 0,
      "note": 37,
      "start": 27.5431,
      "duration": 0.0161,
      "velocity": 115,
      "chip": "ym2612"
    },
    {
      "channel": 3,
      "note": 66,
      "start": 27.5466,
      "duration": 0.0161,
      "velocity": 94,
      "chip": "ym2612"
    },
    {
      "channel": 2,
      "note": 51,
      "start": 27.5478,
      "duration": 0.0161,
      "velocity": 100,
      "chip": "ym2612"
    },
    {
      "channel": 1,
      "note": 66,
      "start": 27.5489,
      "duration": 0.0161,
      "velocity": 94,
      "chip": "ym2612"
    },
    {
      "channel": 0,
      "note": 37,
      "start": 27.5591,
      "duration": 0.0161,
      "velocity": 115,
      "chip": "ym2612"
    },
    {
      "channel": 3,
      "note": 66,
      "start": 27.5627,
      "duration": 0.0161,
      "velocity": 94,
      "chip": "ym2612"
    },
    {
      "channel": 2,
      "note": 51,
      "start": 27.5639,
      "duration": 0.0161,
      "velocity": 100,
      "chip": "ym2612"
    },
    {
      "channel": 1,
      "note": 66,
      "start": 27.565,
      "duration": 0.0161,
      "velocity": 94,
      "chip": "ym2612"
    },
    {
      "channel": 0,
      "note": 38,
      "start": 27.5752,
      "duration": 0.0161,
      "velocity": 115,
      "chip": "ym2612"
    },
    {
      "channel": 3,
      "note": 66,
      "start": 27.5788,
      "duration": 0.0161,
      "velocity": 94,
      "chip": "ym2612"
    },
    {
      "channel": 2,
      "note": 51,
      "start": 27.58,
      "duration": 0.0161,
      "velocity": 100,
      "chip": "ym2612"
    },
    {
      "channel": 1,
      "note": 66,
      "start": 27.5811,
      "duration": 0.0161,
      "velocity": 94,
      "chip": "ym2612"
    },
    {
      "channel": 0,
      "note": 38,
      "start": 27.5913,
      "duration": 0.0161,
      "velocity": 115,
      "chip": "ym2612"
    },
    {
      "channel": 3,
      "note": 66,
      "start": 27.5949,
      "duration": 0.0161,
      "velocity": 94,
      "chip": "ym2612"
    },
    {
      "channel": 2,
      "note": 51,
      "start": 27.596,
      "duration": 0.0161,
      "velocity": 100,
      "chip": "ym2612"
    },
    {
      "channel": 1,
      "note": 66,
      "start": 27.5972,
      "duration": 0.0161,
      "velocity": 94,
      "chip": "ym2612"
    },
    {
      "channel": 0,
      "note": 39,
      "start": 27.6075,
      "duration": 0.0179,
      "velocity": 115,
      "chip": "ym2612"
    },
    {
      "channel": 3,
      "note": 66,
      "start": 27.611,
      "duration": 0.0186,
      "velocity": 94,
      "chip": "ym2612"
    },
    {
      "channel": 2,
      "note": 51,
      "start": 27.6121,
      "duration": 0.0189,
      "velocity": 100,
      "chip": "ym2612"
    },
    {
      "channel": 1,
      "note": 66,
      "start": 27.6133,
      "duration": 0.019,
      "velocity": 94,
      "chip": "ym2612"
    },
    {
      "channel": 0,
      "note": 36,
      "start": 27.6254,
      "duration": 0.0143,
      "velocity": 115,
      "chip": "ym2612"
    },
    {
      "channel": 5,
      "note": 78,
      "start": 27.6269,
      "duration": 0.0141,
      "velocity": 110,
      "chip": "ym2612"
    },
    {
      "channel": 4,
      "note": 76,
      "start": 27.6284,
      "duration": 0.0138,
      "velocity": 110,
      "chip": "ym2612"
    },
    {
      "channel": 3,
      "note": 66,
      "start": 27.6296,
      "duration": 0.0138,
      "velocity": 94,
      "chip": "ym2612"
    },
    {
      "channel": 2,
      "note": 54,
      "start": 27.631,
      "duration": 0.0136,
      "velocity": 100,
      "chip": "ym2612"
    },
    {
      "channel": 1,
      "note": 66,
      "start": 27.6322,
      "duration": 0.0135,
      "velocity": 94,
      "chip": "ym2612"
    },
    {
      "channel": 0,
      "note": 36,
      "start": 27.6398,
      "duration": 0.016,
      "velocity": 115,
      "chip": "ym2612"
    },
    {
      "channel": 5,
      "note": 78,
      "start": 27.641,
      "duration": 0.016,
      "velocity": 110,
      "chip": "ym2612"
    },
    {
      "channel": 4,
      "note": 76,
      "start": 27.6422,
      "duration": 0.0159,
      "velocity": 110,
      "chip": "ym2612"
    },
    {
      "channel": 3,
      "note": 66,
      "start": 27.6434,
      "duration": 0.0159,
      "velocity": 94,
      "chip": "ym2612"
    },
    {
      "channel": 2,
      "note": 54,
      "start": 27.6446,
      "duration": 0.0158,
      "velocity": 100,
      "chip": "ym2612"
    },
    {
      "channel": 1,
      "note": 66,
      "start": 27.6458,
      "duration": 0.0159,
      "velocity": 94,
      "chip": "ym2612"
    },
    {
      "channel": 0,
      "note": 37,
      "start": 27.6558,
      "duration": 0.0161,
      "velocity": 115,
      "chip": "ym2612"
    },
    {
      "channel": 5,
      "note": 78,
      "start": 27.6569,
      "duration": 0.0161,
      "velocity": 110,
      "chip": "ym2612"
    },
    {
      "channel": 4,
      "note": 76,
      "start": 27.6581,
      "duration": 0.0161,
      "velocity": 110,
      "chip": "ym2612"
    },
    {
      "channel": 3,
      "note": 66,
      "start": 27.6593,
      "duration": 0.0161,
      "velocity": 94,
      "chip": "ym2612"
    },
    {
      "channel": 2,
      "note": 54,
      "start": 27.6604,
      "duration": 0.0162,
      "velocity": 100,
      "chip": "ym2612"
    },
    {
      "channel": 1,
      "note": 66,
      "start": 27.6616,
      "duration": 0.0161,
      "velocity": 94,
      "chip": "ym2612"
    },
    {
      "channel": 0,
      "note": 37,
      "start": 27.6719,
      "duration": 0.0161,
      "velocity": 115,
      "chip": "ym2612"
    },
    {
      "channel": 5,
      "note": 78,
      "start": 27.673,
      "duration": 0.0161,
      "velocity": 110,
      "chip": "ym2612"
    },
    {
      "channel": 4,
      "note": 76,
      "start": 27.6742,
      "duration": 0.0161,
      "velocity": 110,
      "chip": "ym2612"
    },
    {
      "channel": 3,
      "note": 66,
      "start": 27.6754,
      "duration": 0.0161,
      "velocity": 94,
      "chip": "ym2612"
    },
    {
      "channel": 2,
      "note": 54,
      "start": 27.6766,
      "duration": 0.0161,
      "velocity": 100,
      "chip": "ym2612"
    },
    {
      "channel": 1,
      "note": 66,
      "start": 27.6777,
      "duration": 0.0161,
      "velocity": 94,
      "chip": "ym2612"
    },
    {
      "channel": 0,
      "note": 38,
      "start": 27.688,
      "duration": 0.0161,
      "velocity": 115,
      "chip": "ym2612"
    },
    {
      "channel": 5,
      "note": 78,
      "start": 27.6892,
      "duration": 0.0161,
      "velocity": 110,
      "chip": "ym2612"
    },
    {
      "channel": 4,
      "note": 76,
      "start": 27.6903,
      "duration": 0.0161,
      "velocity": 110,
      "chip": "ym2612"
    },
    {
      "channel": 3,
      "note": 66,
      "start": 27.6915,
      "duration": 0.0161,
      "velocity": 94,
      "chip": "ym2612"
    },
    {
      "channel": 2,
      "note": 54,
      "start": 27.6927,
      "duration": 0.0161,
      "velocity": 100,
      "chip": "ym2612"
    },
    {
      "channel": 1,
      "note": 66,
      "start": 27.6938,
      "duration": 0.0161,
      "velocity": 94,
      "chip": "ym2612"
    },
    {
      "channel": 0,
      "note": 38,
      "start": 27.7041,
      "duration": 0.018,
      "velocity": 127,
      "chip": "ym2612"
    },
    {
      "channel": 5,
      "note": 78,
      "start": 27.7053,
      "duration": 0.018,
      "velocity": 110,
      "chip": "ym2612"
    },
    {
      "channel": 4,
      "note": 76,
      "start": 27.7064,
      "duration": 0.018,
      "velocity": 110,
      "chip": "ym2612"
    },
    {
      "channel": 3,
      "note": 66,
      "start": 27.7076,
      "duration": 0.018,
      "velocity": 94,
      "chip": "ym2612"
    },
    {
      "channel": 2,
      "note": 54,
      "start": 27.7088,
      "duration": 0.0183,
      "velocity": 100,
      "chip": "ym2612"
    },
    {
      "channel": 1,
      "note": 66,
      "start": 27.7099,
      "duration": 0.0184,
      "velocity": 94,
      "chip": "ym2612"
    },
    {
      "channel": 0,
      "note": 88,
      "start": 27.7221,
      "duration": 0.0146,
      "velocity": 127,
      "chip": "ym2612"
    },
    {
      "channel": 5,
      "note": 78,
      "start": 27.7233,
      "duration": 0.0146,
      "velocity": 110,
      "chip": "ym2612"
    },
    {
      "channel": 4,
      "note": 76,
      "start": 27.7245,
      "duration": 0.0146,
      "velocity": 110,
      "chip": "ym2612"
    },
    {
      "channel": 3,
      "note": 66,
      "start": 27.7256,
      "duration": 0.0146,
      "velocity": 94,
      "chip": "ym2612"
    },
    {
      "channel": 2,
      "note": 66,
      "start": 27.7271,
      "duration": 0.0144,
      "velocity": 100,
      "chip": "ym2612"
    },
    {
      "channel": 1,
      "note": 66,
      "start": 27.7283,
      "duration": 0.0144,
      "velocity": 94,
      "chip": "ym2612"
    },
    {
      "channel": 0,
      "note": 86,
      "start": 27.7367,
      "duration": 0.0163,
      "velocity": 127,
      "chip": "ym2612"
    },
    {
      "channel": 3,
      "note": 66,
      "start": 27.7402,
      "duration": 0.0162,
      "velocity": 94,
      "chip": "ym2612"
    },
    {
      "channel": 2,
      "note": 66,
      "start": 27.7415,
      "duration": 0.0162,
      "velocity": 100,
      "chip": "ym2612"
    },
    {
      "channel": 1,
      "note": 66,
      "start": 27.7427,
      "duration": 0.0161,
      "velocity": 94,
      "chip": "ym2612"
    },
    {
      "channel": 0,
      "note": 85,
      "start": 27.753,
      "duration": 0.0161,
      "velocity": 127,
      "chip": "ym2612"
    },
    {
      "channel": 3,
      "note": 66,
      "start": 27.7565,
      "duration": 0.0161,
      "velocity": 94,
      "chip": "ym2612"
    },
    {
      "channel": 2,
      "note": 66,
      "start": 27.7576,
      "duration": 0.0161,
      "velocity": 100,
      "chip": "ym2612"
    },
    {
      "channel": 1,
      "note": 66,
      "start": 27.7588,
      "duration": 0.0161,
      "velocity": 94,
      "chip": "ym2612"
    },
    {
      "channel": 0,
      "note": 83,
      "start": 27.7691,
      "duration": 0.016,
      "velocity": 127,
      "chip": "ym2612"
    },
    {
      "channel": 3,
      "note": 66,
      "start": 27.7726,
      "duration": 0.0161,
      "velocity": 94,
      "chip": "ym2612"
    },
    {
      "channel": 2,
      "note": 66,
      "start": 27.7737,
      "duration": 0.0161,
      "velocity": 100,
      "chip": "ym2612"
    },
    {
      "channel": 1,
      "note": 66,
      "start": 27.7749,
      "duration": 0.0161,
      "velocity": 94,
      "chip": "ym2612"
    },
    {
      "channel": 0,
      "note": 81,
      "start": 27.7851,
      "duration": 0.0158,
      "velocity": 127,
      "chip": "ym2612"
    },
    {
      "channel": 3,
      "note": 66,
      "start": 27.7887,
      "duration": 0.0162,
      "velocity": 94,
      "chip": "ym2612"
    },
    {
      "channel": 2,
      "note": 66,
      "start": 27.7898,
      "duration": 0.0162,
      "velocity": 100,
      "chip": "ym2612"
    },
    {
      "channel": 1,
      "note": 66,
      "start": 27.791,
      "duration": 0.0161,
      "velocity": 94,
      "chip": "ym2612"
    },
    {
      "channel": 0,
      "note": 80,
      "start": 27.8009,
      "duration": 0.0159,
      "velocity": 127,
      "chip": "ym2612"
    },
    {
      "channel": 3,
      "note": 66,
      "start": 27.8048,
      "duration": 0.016,
      "velocity": 94,
      "chip": "ym2612"
    },
    {
      "channel": 2,
      "note": 66,
      "start": 27.806,
      "duration": 0.016,
      "velocity": 100,
      "chip": "ym2612"
    },
    {
      "channel": 1,
      "note": 66,
      "start": 27.8071,
      "duration": 0.0161,
      "velocity": 94,
      "chip": "ym2612"
    },
    {
      "channel": 0,
      "note": 78,
      "start": 27.8168,
      "duration": 0.0161,
      "velocity": 127,
      "chip": "ym2612"
    },
    {
      "channel": 3,
      "note": 66,
      "start": 27.8208,
      "duration": 0.0169,
      "velocity": 94,
      "chip": "ym2612"
    },
    {
      "channel": 2,
      "note": 66,
      "start": 27.822,
      "duration": 0.0172,
      "velocity": 100,
      "chip": "ym2612"
    },
    {
      "channel": 1,
      "note": 66,
      "start": 27.8232,
      "duration": 0.0172,
      "velocity": 94,
      "chip": "ym2612"
    },
    {
      "channel": 0,
      "note": 76,
      "start": 27.8329,
      "duration": 0.0161,
      "velocity": 127,
      "chip": "ym2612"
    },
    {
      "channel": 5,
      "note": 76,
      "start": 27.835,
      "duration": 0.0153,
      "velocity": 110,
      "chip": "ym2612"
    },
    {
      "channel": 4,
      "note": 78,
      "start": 27.8366,
      "duration": 0.0155,
      "velocity": 110,
      "chip": "ym2612"
    },
    {
      "channel": 3,
      "note": 66,
      "start": 27.8378,
      "duration": 0.0154,
      "velocity": 94,
      "chip": "ym2612"
    },
    {
      "channel": 2,
      "note": 54,
      "start": 27.8392,
      "duration": 0.0152,
      "velocity": 100,
      "chip": "ym2612"
    },
    {
      "channel": 1,
      "note": 66,
      "start": 27.8404,
      "duration": 0.0153,
      "velocity": 94,
      "chip": "ym2612"
    },
    {
      "channel": 0,
      "note": 75,
      "start": 27.849,
      "duration": 0.0161,
      "velocity": 127,
      "chip": "ym2612"
    },
    {
      "channel": 5,
      "note": 76,
      "start": 27.8502,
      "duration": 0.016,
      "velocity": 110,
      "chip": "ym2612"
    },
    {
      "channel": 4,
      "note": 78,
      "start": 27.8521,
      "duration": 0.0155,
      "velocity": 110,
      "chip": "ym2612"
    },
    {
      "channel": 3,
      "note": 66,
      "start": 27.8532,
      "duration": 0.016,
      "velocity": 94,
      "chip": "ym2612"
    },
    {
      "channel": 2,
      "note": 54,
      "start": 27.8544,
      "duration": 0.0159,
      "velocity": 100,
      "chip": "ym2612"
    },
    {
      "channel": 1,
      "note": 66,
      "start": 27.8556,
      "duration": 0.0159,
      "velocity": 94,
      "chip": "ym2612"
    },
    {
      "channel": 0,
      "note": 73,
      "start": 27.8651,
      "duration": 0.0161,
      "velocity": 127,
      "chip": "ym2612"
    },
    {
      "channel": 5,
      "note": 76,
      "start": 27.8663,
      "duration": 0.0161,
      "velocity": 110,
      "chip": "ym2612"
    },
    {
      "channel": 4,
      "note": 78,
      "start": 27.8676,
      "duration": 0.0159,
      "velocity": 110,
      "chip": "ym2612"
    },
    {
      "channel": 3,
      "note": 66,
      "start": 27.8692,
      "duration": 0.016,
      "velocity": 94,
      "chip": "ym2612"
    },
    {
      "channel": 2,
      "note": 54,
      "start": 27.8703,
      "duration": 0.0161,
      "velocity": 100,
      "chip": "ym2612"
    },
    {
      "channel": 1,
      "note": 66,
      "start": 27.8715,
      "duration": 0.016,
      "velocity": 94,
      "chip": "ym2612"
    },
    {
      "channel": 0,
      "note": 71,
      "start": 27.8812,
      "duration": 0.0161,
      "velocity": 127,
      "chip": "ym2612"
    },
    {
      "channel": 5,
      "note": 76,
      "start": 27.8824,
      "duration": 0.0161,
      "velocity": 110,
      "chip": "ym2612"
    },
    {
      "channel": 4,
      "note": 78,
      "start": 27.8835,
      "duration": 0.0161,
      "velocity": 110,
      "chip": "ym2612"
    },
    {
      "channel": 3,
      "note": 66,
      "start": 27.8852,
      "duration": 0.0158,
      "velocity": 94,
      "chip": "ym2612"
    },
    {
      "channel": 2,
      "note": 54,
      "start": 27.8864,
      "duration": 0.0161,
      "velocity": 100,
      "chip": "ym2612"
    },
    {
      "channel": 1,
      "note": 66,
      "start": 27.8876,
      "duration": 0.0162,
      "velocity": 94,
      "chip": "ym2612"
    },
    {
      "channel": 0,
      "note": 69,
      "start": 27.8973,
      "duration": 0.0161,
      "velocity": 127,
      "chip": "ym2612"
    },
    {
      "channel": 5,
      "note": 76,
      "start": 27.8985,
      "duration": 0.0161,
      "velocity": 110,
      "chip": "ym2612"
    },
    {
      "channel": 4,
      "note": 78,
      "start": 27.8996,
      "duration": 0.0161,
      "velocity": 110,
      "chip": "ym2612"
    },
    {
      "channel": 3,
      "note": 66,
      "start": 27.901,
      "duration": 0.0159,
      "velocity": 94,
      "chip": "ym2612"
    },
    {
      "channel": 2,
      "note": 54,
      "start": 27.9025,
      "duration": 0.016,
      "velocity": 100,
      "chip": "ym2612"
    },
    {
      "channel": 1,
      "note": 66,
      "start": 27.9037,
      "duration": 0.0161,
      "velocity": 94,
      "chip": "ym2612"
    },
    {
      "channel": 0,
      "note": 68,
      "start": 27.9133,
      "duration": 0.018,
      "velocity": 127,
      "chip": "ym2612"
    },
    {
      "channel": 5,
      "note": 76,
      "start": 27.9146,
      "duration": 0.018,
      "velocity": 110,
      "chip": "ym2612"
    },
    {
      "channel": 4,
      "note": 78,
      "start": 27.9157,
      "duration": 0.0181,
      "velocity": 110,
      "chip": "ym2612"
    },
    {
      "channel": 3,
      "note": 66,
      "start": 27.9169,
      "duration": 0.0186,
      "velocity": 94,
      "chip": "ym2612"
    },
    {
      "channel": 2,
      "note": 54,
      "start": 27.9185,
      "duration": 0.0184,
      "velocity": 100,
      "chip": "ym2612"
    },
    {
      "channel": 1,
      "note": 66,
      "start": 27.9198,
      "duration": 0.0183,
      "velocity": 94,
      "chip": "ym2612"
    },
    {
      "channel": 0,
      "note": 84,
      "start": 27.9314,
      "duration": 0.0143,
      "velocity": 127,
      "chip": "ym2612"
    },
    {
      "channel": 5,
      "note": 76,
      "start": 27.9326,
      "duration": 0.0142,
      "velocity": 110,
      "chip": "ym2612"
    },
    {
      "channel": 4,
      "note": 78,
      "start": 27.9338,
      "duration": 0.0142,
      "velocity": 110,
      "chip": "ym2612"
    },
    {
      "channel": 3,
      "note": 66,
      "start": 27.9355,
      "duration": 0.0137,
      "velocity": 94,
      "chip": "ym2612"
    },
    {
      "channel": 2,
      "note": 66,
      "start": 27.937,
      "duration": 0.0134,
      "velocity": 100,
      "chip": "ym2612"
    },
    {
      "channel": 1,
      "note": 66,
      "start": 27.9382,
      "duration": 0.0141,
      "velocity": 94,
      "chip": "ym2612"
    },
    {
      "channel": 0,
      "note": 82,
      "start": 27.9457,
      "duration": 0.016,
      "velocity": 127,
      "chip": "ym2612"
    },
    {
      "channel": 3,
      "note": 66,
      "start": 27.9492,
      "duration": 0.016,
      "velocity": 94,
      "chip": "ym2612"
    },
    {
      "channel": 2,
      "note": 66,
      "start": 27.9504,
      "duration": 0.016,
      "velocity": 100,
      "chip": "ym2612"
    },
    {
      "channel": 1,
      "note": 66,
      "start": 27.9522,
      "duration": 0.0159,
      "velocity": 94,
      "chip": "ym2612"
    },
    {
      "channel": 0,
      "note": 81,
      "start": 27.9617,
      "duration": 0.0161,
      "velocity": 127,
      "chip": "ym2612"
    },
    {
      "channel": 3,
      "note": 66,
      "start": 27.9652,
      "duration": 0.0161,
      "velocity": 94,
      "chip": "ym2612"
    },
    {
      "channel": 2,
      "note": 66,
      "start": 27.9664,
      "duration": 0.0161,
      "velocity": 100,
      "chip": "ym2612"
    },
    {
      "channel": 1,
      "note": 66,
      "start": 27.9681,
      "duration": 0.0155,
      "velocity": 94,
      "chip": "ym2612"
    },
    {
      "channel": 0,
      "note": 79,
      "start": 27.9778,
      "duration": 0.0161,
      "velocity": 127,
      "chip": "ym2612"
    },
    {
      "channel": 3,
      "note": 66,
      "start": 27.9813,
      "duration": 0.0161,
      "velocity": 94,
      "chip": "ym2612"
    },
    {
      "channel": 2,
      "note": 66,
      "start": 27.9825,
      "duration": 0.0161,
      "velocity": 100,
      "chip": "ym2612"
    },
    {
      "channel": 1,
      "note": 66,
      "start": 27.9836,
      "duration": 0.0161,
      "velocity": 94,
      "chip": "ym2612"
    },
    {
      "channel": 0,
      "note": 77,
      "start": 27.9939,
      "duration": 0.0161,
      "velocity": 127,
      "chip": "ym2612"
    },
    {
      "channel": 3,
      "note": 66,
      "start": 27.9974,
      "duration": 0.0161,
      "velocity": 94,
      "chip": "ym2612"
    },
    {
      "channel": 2,
      "note": 66,
      "start": 27.9986,
      "duration": 0.0161,
      "velocity": 100,
      "chip": "ym2612"
    },
    {
      "channel": 1,
      "note": 66,
      "start": 27.9997,
      "duration": 0.0162,
      "velocity": 94,
      "chip": "ym2612"
    },
    {
      "channel": 0,
      "note": 76,
      "start": 28.01,
      "duration": 0.0161,
      "velocity": 127,
      "chip": "ym2612"
    },
    {
      "channel": 3,
      "note": 66,
      "start": 28.0135,
      "duration": 0.0161,
      "velocity": 94,
      "chip": "ym2612"
    },
    {
      "channel": 2,
      "note": 66,
      "start": 28.0147,
      "duration": 0.0161,
      "velocity": 100,
      "chip": "ym2612"
    },
    {
      "channel": 1,
      "note": 66,
      "start": 28.0159,
      "duration": 0.016,
      "velocity": 94,
      "chip": "ym2612"
    },
    {
      "channel": 0,
      "note": 74,
      "start": 28.0261,
      "duration": 0.018,
      "velocity": 127,
      "chip": "ym2612"
    },
    {
      "channel": 3,
      "note": 66,
      "start": 28.0296,
      "duration": 0.0187,
      "velocity": 94,
      "chip": "ym2612"
    },
    {
      "channel": 2,
      "note": 66,
      "start": 28.0308,
      "duration": 0.019,
      "velocity": 100,
      "chip": "ym2612"
    },
    {
      "channel": 1,
      "note": 66,
      "start": 28.0319,
      "duration": 0.0197,
      "velocity": 94,
      "chip": "ym2612"
    },
    {
      "channel": 0,
      "note": 78,
      "start": 28.0441,
      "duration": 0.0143,
      "velocity": 127,
      "chip": "ym2612"
    },
    {
      "channel": 5,
      "note": 78,
      "start": 28.0456,
      "duration": 0.014,
      "velocity": 110,
      "chip": "ym2612"
    },
    {
      "channel": 4,
      "note": 76,
      "start": 28.0471,
      "duration": 0.0137,
      "velocity": 110,
      "chip": "ym2612"
    },
    {
      "channel": 3,
      "note": 66,
      "start": 28.0483,
      "duration": 0.0137,
      "velocity": 94,
      "chip": "ym2612"
    },
    {
      "channel": 2,
      "note": 54,
      "start": 28.0497,
      "duration": 0.0135,
      "velocity": 100,
      "chip": "ym2612"
    },
    {
      "channel": 1,
      "note": 66,
      "start": 28.0516,
      "duration": 0.0127,
      "velocity": 94,
      "chip": "ym2612"
    },
    {
      "channel": 0,
      "note": 76,
      "start": 28.0583,
      "duration": 0.016,
      "velocity": 127,
      "chip": "ym2612"
    },
    {
      "channel": 5,
      "note": 78,
      "start": 28.0596,
      "duration": 0.016,
      "velocity": 110,
      "chip": "ym2612"
    },
    {
      "channel": 4,
      "note": 76,
      "start": 28.0608,
      "duration": 0.0159,
      "velocity": 110,
      "chip": "ym2612"
    },
    {
      "channel": 3,
      "note": 66,
      "start": 28.062,
      "duration": 0.0159,
      "velocity": 94,
      "chip": "ym2612"
    },
    {
      "channel": 2,
      "note": 54,
      "start": 28.0632,
      "duration": 0.0158,
      "velocity": 100,
      "chip": "ym2612"
    },
    {
      "channel": 1,
      "note": 66,
      "start": 28.0644,
      "duration": 0.0159,
      "velocity": 94,
      "chip": "ym2612"
    },
    {
      "channel": 0,
      "note": 75,
      "start": 28.0744,
      "duration": 0.0161,
      "velocity": 127,
      "chip": "ym2612"
    },
    {
      "channel": 5,
      "note": 78,
      "start": 28.0756,
      "duration": 0.0161,
      "velocity": 110,
      "chip": "ym2612"
    },
    {
      "channel": 4,
      "note": 76,
      "start": 28.0767,
      "duration": 0.0161,
      "velocity": 110,
      "chip": "ym2612"
    },
    {
      "channel": 3,
      "note": 66,
      "start": 28.0779,
      "duration": 0.0161,
      "velocity": 94,
      "chip": "ym2612"
    },
    {
      "channel": 2,
      "note": 54,
      "start": 28.079,
      "duration": 0.0162,
      "velocity": 100,
      "chip": "ym2612"
    },
    {
      "channel": 1,
      "note": 66,
      "start": 28.0803,
      "duration": 0.0161,
      "velocity": 94,
      "chip": "ym2612"
    },
    {
      "channel": 0,
      "note": 73,
      "start": 28.0905,
      "duration": 0.0161,
      "velocity": 127,
      "chip": "ym2612"
    },
    {
      "channel": 5,
      "note": 78,
      "start": 28.0917,
      "duration": 0.0161,
      "velocity": 110,
      "chip": "ym2612"
    },
    {
      "channel": 4,
      "note": 76,
      "start": 28.0929,
      "duration": 0.0161,
      "velocity": 110,
      "chip": "ym2612"
    },
    {
      "channel": 3,
      "note": 66,
      "start": 28.094,
      "duration": 0.0161,
      "velocity": 94,
      "chip": "ym2612"
    },
    {
      "channel": 2,
      "note": 54,
      "start": 28.0952,
      "duration": 0.0161,
      "velocity": 100,
      "chip": "ym2612"
    },
    {
      "channel": 1,
      "note": 66,
      "start": 28.0963,
      "duration": 0.0161,
      "velocity": 94,
      "chip": "ym2612"
    },
    {
      "channel": 0,
      "note": 71,
      "start": 28.1066,
      "duration": 0.0161,
      "velocity": 127,
      "chip": "ym2612"
    },
    {
      "channel": 5,
      "note": 78,
      "start": 28.1078,
      "duration": 0.0161,
      "velocity": 110,
      "chip": "ym2612"
    },
    {
      "channel": 4,
      "note": 76,
      "start": 28.109,
      "duration": 0.0161,
      "velocity": 110,
      "chip": "ym2612"
    },
    {
      "channel": 3,
      "note": 66,
      "start": 28.1101,
      "duration": 0.0161,
      "velocity": 94,
      "chip": "ym2612"
    },
    {
      "channel": 2,
      "note": 54,
      "start": 28.1113,
      "duration": 0.0161,
      "velocity": 100,
      "chip": "ym2612"
    },
    {
      "channel": 1,
      "note": 66,
      "start": 28.1124,
      "duration": 0.0161,
      "velocity": 94,
      "chip": "ym2612"
    },
    {
      "channel": 0,
      "note": 70,
      "start": 28.1227,
      "duration": 0.0179,
      "velocity": 115,
      "chip": "ym2612"
    },
    {
      "channel": 5,
      "note": 78,
      "start": 28.1238,
      "duration": 0.018,
      "velocity": 110,
      "chip": "ym2612"
    },
    {
      "channel": 4,
      "note": 76,
      "start": 28.1251,
      "duration": 0.0179,
      "velocity": 110,
      "chip": "ym2612"
    },
    {
      "channel": 3,
      "note": 66,
      "start": 28.1262,
      "duration": 0.018,
      "velocity": 94,
      "chip": "ym2612"
    },
    {
      "channel": 2,
      "note": 54,
      "start": 28.1274,
      "duration": 0.018,
      "velocity": 100,
      "chip": "ym2612"
    },
    {
      "channel": 1,
      "note": 66,
      "start": 28.1285,
      "duration": 0.018,
      "velocity": 94,
      "chip": "ym2612"
    },
    {
      "channel": 0,
      "note": 36,
      "start": 28.1406,
      "duration": 0.0143,
      "velocity": 115,
      "chip": "ym2612"
    },
    {
      "channel": 5,
      "note": 78,
      "start": 28.1418,
      "duration": 0.0143,
      "velocity": 110,
      "chip": "ym2612"
    },
    {
      "channel": 4,
      "note": 76,
      "start": 28.143,
      "duration": 0.0144,
      "velocity": 110,
      "chip": "ym2612"
    },
    {
      "channel": 3,
      "note": 66,
      "start": 28.1442,
      "duration": 0.0143,
      "velocity": 94,
      "chip": "ym2612"
    },
    {
      "channel": 2,
      "note": 54,
      "start": 28.1454,
      "duration": 0.0144,
      "velocity": 100,
      "chip": "ym2612"
    },
    {
      "channel": 1,
      "note": 66,
      "start": 28.1466,
      "duration": 0.0143,
      "velocity": 94,
      "chip": "ym2612"
    },
    {
      "channel": 0,
      "note": 36,
      "start": 28.1549,
      "duration": 0.016,
      "velocity": 115,
      "chip": "ym2612"
    },
    {
      "channel": 3,
      "note": 66,
      "start": 28.1585,
      "duration": 0.016,
      "velocity": 94,
      "chip": "ym2612"
    },
    {
      "channel": 2,
      "note": 54,
      "start": 28.1597,
      "duration": 0.016,
      "velocity": 100,
      "chip": "ym2612"
    },
    {
      "channel": 1,
      "note": 66,
      "start": 28.1609,
      "duration": 0.016,
      "velocity": 94,
      "chip": "ym2612"
    },
    {
      "channel": 0,
      "note": 37,
      "start": 28.171,
      "duration": 0.0162,
      "velocity": 115,
      "chip": "ym2612"
    },
    {
      "channel": 3,
      "note": 66,
      "start": 28.1745,
      "duration": 0.0162,
      "velocity": 94,
      "chip": "ym2612"
    },
    {
      "channel": 2,
      "note": 54,
      "start": 28.1757,
      "duration": 0.0161,
      "velocity": 100,
      "chip": "ym2612"
    },
    {
      "channel": 1,
      "note": 66,
      "start": 28.1769,
      "duration": 0.0162,
      "velocity": 94,
      "chip": "ym2612"
    },
    {
      "channel": 0,
      "note": 37,
      "start": 28.1871,
      "duration": 0.0163,
      "velocity": 115,
      "chip": "ym2612"
    },
    {
      "channel": 3,
      "note": 66,
      "start": 28.1907,
      "duration": 0.0162,
      "velocity": 94,
      "chip": "ym2612"
    },
    {
      "channel": 2,
      "note": 54,
      "start": 28.1918,
      "duration": 0.0162,
      "velocity": 100,
      "chip": "ym2612"
    },
    {
      "channel": 1,
      "note": 66,
      "start": 28.1931,
      "duration": 0.0163,
      "velocity": 94,
      "chip": "ym2612"
    },
    {
      "channel": 0,
      "note": 38,
      "start": 28.2034,
      "duration": 0.0163,
      "velocity": 115,
      "chip": "ym2612"
    },
    {
      "channel": 3,
      "note": 66,
      "start": 28.2069,
      "duration": 0.0163,
      "velocity": 94,
      "chip": "ym2612"
    },
    {
      "channel": 2,
      "note": 54,
      "start": 28.2081,
      "duration": 0.0163,
      "velocity": 100,
      "chip": "ym2612"
    },
    {
      "channel": 1,
      "note": 66,
      "start": 28.2093,
      "duration": 0.0163,
      "velocity": 94,
      "chip": "ym2612"
    },
    {
      "channel": 0,
      "note": 38,
      "start": 28.2197,
      "duration": 0.0163,
      "velocity": 115,
      "chip": "ym2612"
    },
    {
      "channel": 3,
      "note": 66,
      "start": 28.2233,
      "duration": 0.0162,
      "velocity": 94,
      "chip": "ym2612"
    },
    {
      "channel": 2,
      "note": 54,
      "start": 28.2244,
      "duration": 0.0163,
      "velocity": 100,
      "chip": "ym2612"
    },
    {
      "channel": 1,
      "note": 66,
      "start": 28.2256,
      "duration": 0.0162,
      "velocity": 94,
      "chip": "ym2612"
    },
    {
      "channel": 0,
      "note": 39,
      "start": 28.236,
      "duration": 0.0179,
      "velocity": 124,
      "chip": "ym2612"
    },
    {
      "channel": 3,
      "note": 66,
      "start": 28.2395,
      "duration": 0.0188,
      "velocity": 94,
      "chip": "ym2612"
    },
    {
      "channel": 2,
      "note": 54,
      "start": 28.2407,
      "duration": 0.019,
      "velocity": 100,
      "chip": "ym2612"
    },
    {
      "channel": 1,
      "note": 66,
      "start": 28.2418,
      "duration": 0.0191,
      "velocity": 94,
      "chip": "ym2612"
    },
    {
      "channel": 0,
      "note": 84,
      "start": 28.2539,
      "duration": 0.0143,
      "velocity": 124,
      "chip": "ym2612"
    },
    {
      "channel": 5,
      "note": 76,
      "start": 28.2555,
      "duration": 0.014,
      "velocity": 110,
      "chip": "ym2612"
    },
    {
      "channel": 4,
      "note": 78,
      "start": 28.2571,
      "duration": 0.0136,
      "velocity": 110,
      "chip": "ym2612"
    },
    {
      "channel": 3,
      "note": 66,
      "start": 28.2583,
      "duration": 0.0137,
      "velocity": 94,
      "chip": "ym2612"
    },
    {
      "channel": 2,
      "note": 49,
      "start": 28.2597,
      "duration": 0.0134,
      "velocity": 100,
      "chip": "ym2612"
    },
    {
      "channel": 1,
      "note": 66,
      "start": 28.2609,
      "duration": 0.0134,
      "velocity": 94,
      "chip": "ym2612"
    },
    {
      "channel": 0,
      "note": 82,
      "start": 28.2682,
      "duration": 0.0155,
      "velocity": 124,
      "chip": "ym2612"
    },
    {
      "channel": 5,
      "note": 76,
      "start": 28.2695,
      "duration": 0.016,
      "velocity": 110,
      "chip": "ym2612"
    },
    {
      "channel": 4,
      "note": 78,
      "start": 28.2707,
      "duration": 0.016,
      "velocity": 110,
      "chip": "ym2612"
    },
    {
      "channel": 3,
      "note": 66,
      "start": 28.2719,
      "duration": 0.0159,
      "velocity": 94,
      "chip": "ym2612"
    },
    {
      "channel": 2,
      "note": 49,
      "start": 28.2731,
      "duration": 0.0159,
      "velocity": 100,
      "chip": "ym2612"
    },
    {
      "channel": 1,
      "note": 66,
      "start": 28.2743,
      "duration": 0.0159,
      "velocity": 94,
      "chip": "ym2612"
    },
    {
      "channel": 0,
      "note": 80,
      "start": 28.2837,
      "duration": 0.0161,
      "velocity": 124,
      "chip": "ym2612"
    },
    {
      "channel": 5,
      "note": 76,
      "start": 28.2855,
      "duration": 0.016,
      "velocity": 110,
      "chip": "ym2612"
    },
    {
      "channel": 4,
      "note": 78,
      "start": 28.2867,
      "duration": 0.0161,
      "velocity": 110,
      "chip": "ym2612"
    },
    {
      "channel": 3,
      "note": 66,
      "start": 28.2878,
      "duration": 0.0161,
      "velocity": 94,
      "chip": "ym2612"
    },
    {
      "channel": 2,
      "note": 49,
      "start": 28.289,
      "duration": 0.0161,
      "velocity": 100,
      "chip": "ym2612"
    },
    {
      "channel": 1,
      "note": 66,
      "start": 28.2902,
      "duration": 0.0161,
      "velocity": 94,
      "chip": "ym2612"
    },
    {
      "channel": 0,
      "note": 77,
      "start": 28.2998,
      "duration": 0.0161,
      "velocity": 124,
      "chip": "ym2612"
    },
    {
      "channel": 5,
      "note": 76,
      "start": 28.3015,
      "duration": 0.0156,
      "velocity": 110,
      "chip": "ym2612"
    },
    {
      "channel": 4,
      "note": 78,
      "start": 28.3028,
      "duration": 0.0161,
      "velocity": 110,
      "chip": "ym2612"
    },
    {
      "channel": 3,
      "note": 66,
      "start": 28.3039,
      "duration": 0.0161,
      "velocity": 94,
      "chip": "ym2612"
    },
    {
      "channel": 2,
      "note": 49,
      "start": 28.3051,
      "duration": 0.0161,
      "velocity": 100,
      "chip": "ym2612"
    },
    {
      "channel": 1,
      "note": 66,
      "start": 28.3063,
      "duration": 0.0161,
      "velocity": 94,
      "chip": "ym2612"
    },
    {
      "channel": 0,
      "note": 75,
      "start": 28.3159,
      "duration": 0.0161,
      "velocity": 124,
      "chip": "ym2612"
    },
    {
      "channel": 5,
      "note": 76,
      "start": 28.3171,
      "duration": 0.0161,
      "velocity": 110,
      "chip": "ym2612"
    },
    {
      "channel": 4,
      "note": 78,
      "start": 28.3189,
      "duration": 0.016,
      "velocity": 110,
      "chip": "ym2612"
    },
    {
      "channel": 3,
      "note": 66,
      "start": 28.32,
      "duration": 0.0162,
      "velocity": 94,
      "chip": "ym2612"
    },
    {
      "channel": 2,
      "note": 49,
      "start": 28.3212,
      "duration": 0.0161,
      "velocity": 100,
      "chip": "ym2612"
    },
    {
      "channel": 1,
      "note": 66,
      "start": 28.3224,
      "duration": 0.0161,
      "velocity": 94,
      "chip": "ym2612"
    },
    {
      "channel": 0,
      "note": 72,
      "start": 28.332,
      "duration": 0.0179,
      "velocity": 124,
      "chip": "ym2612"
    },
    {
      "channel": 5,
      "note": 76,
      "start": 28.3332,
      "duration": 0.0184,
      "velocity": 110,
      "chip": "ym2612"
    },
    {
      "channel": 4,
      "note": 78,
      "start": 28.3349,
      "duration": 0.018,
      "velocity": 110,
      "chip": "ym2612"
    },
    {
      "channel": 3,
      "note": 66,
      "start": 28.3362,
      "duration": 0.0179,
      "velocity": 94,
      "chip": "ym2612"
    },
    {
      "channel": 2,
      "note": 49,
      "start": 28.3373,
      "duration": 0.0179,
      "velocity": 100,
      "chip": "ym2612"
    },
    {
      "channel": 1,
      "note": 66,
      "start": 28.3385,
      "duration": 0.0179,
      "velocity": 94,
      "chip": "ym2612"
    },
    {
      "channel": 0,
      "note": 84,
      "start": 28.35,
      "duration": 0.0143,
      "velocity": 124,
      "chip": "ym2612"
    },
    {
      "channel": 5,
      "note": 76,
      "start": 28.3516,
      "duration": 0.0138,
      "velocity": 110,
      "chip": "ym2612"
    },
    {
      "channel": 4,
      "note": 78,
      "start": 28.3529,
      "duration": 0.0137,
      "velocity": 110,
      "chip": "ym2612"
    },
    {
      "channel": 3,
      "note": 66,
      "start": 28.3541,
      "duration": 0.0145,
      "velocity": 94,
      "chip": "ym2612"
    },
    {
      "channel": 2,
      "note": 49,
      "start": 28.3553,
      "duration": 0.0145,
      "velocity": 100,
      "chip": "ym2612"
    },
    {
      "channel": 1,
      "note": 66,
      "start": 28.3564,
      "duration": 0.0146,
      "velocity": 94,
      "chip": "ym2612"
    },
    {
      "channel": 0,
      "note": 82,
      "start": 28.3643,
      "duration": 0.016,
      "velocity": 124,
      "chip": "ym2612"
    },
    {
      "channel": 3,
      "note": 66,
      "start": 28.3685,
      "duration": 0.0155,
      "velocity": 94,
      "chip": "ym2612"
    },
    {
      "channel": 2,
      "note": 49,
      "start": 28.3698,
      "duration": 0.0158,
      "velocity": 100,
      "chip": "ym2612"
    },
    {
      "channel": 1,
      "note": 66,
      "start": 28.371,
      "duration": 0.0159,
      "velocity": 94,
      "chip": "ym2612"
    },
    {
      "channel": 0,
      "note": 80,
      "start": 28.3803,
      "duration": 0.0161,
      "velocity": 124,
      "chip": "ym2612"
    },
    {
      "channel": 3,
      "note": 66,
      "start": 28.3841,
      "duration": 0.0159,
      "velocity": 94,
      "chip": "ym2612"
    },
    {
      "channel": 2,
      "note": 49,
      "start": 28.3856,
      "duration": 0.016,
      "velocity": 100,
      "chip": "ym2612"
    },
    {
      "channel": 1,
      "note": 66,
      "start": 28.3868,
      "duration": 0.0161,
      "velocity": 94,
      "chip": "ym2612"
    },
    {
      "channel": 0,
      "note": 77,
      "start": 28.3964,
      "duration": 0.0161,
      "velocity": 124,
      "chip": "ym2612"
    },
    {
      "channel": 3,
      "note": 66,
      "start": 28.3999,
      "duration": 0.0161,
      "velocity": 94,
      "chip": "ym2612"
    },
    {
      "channel": 2,
      "note": 49,
      "start": 28.4016,
      "duration": 0.0158,
      "velocity": 100,
      "chip": "ym2612"
    },
    {
      "channel": 1,
      "note": 66,
      "start": 28.4029,
      "duration": 0.0161,
      "velocity": 94,
      "chip": "ym2612"
    },
    {
      "channel": 0,
      "note": 75,
      "start": 28.4125,
      "duration": 0.0161,
      "velocity": 124,
      "chip": "ym2612"
    },
    {
      "channel": 3,
      "note": 66,
      "start": 28.416,
      "duration": 0.0161,
      "velocity": 94,
      "chip": "ym2612"
    },
    {
      "channel": 2,
      "note": 49,
      "start": 28.4174,
      "duration": 0.0159,
      "velocity": 100,
      "chip": "ym2612"
    },
    {
      "channel": 1,
      "note": 66,
      "start": 28.419,
      "duration": 0.016,
      "velocity": 94,
      "chip": "ym2612"
    },
    {
      "channel": 0,
      "note": 72,
      "start": 28.4286,
      "duration": 0.0161,
      "velocity": 124,
      "chip": "ym2612"
    },
    {
      "channel": 3,
      "note": 66,
      "start": 28.4321,
      "duration": 0.0162,
      "velocity": 94,
      "chip": "ym2612"
    },
    {
      "channel": 2,
      "note": 49,
      "start": 28.4333,
      "duration": 0.0161,
      "velocity": 100,
      "chip": "ym2612"
    },
    {
      "channel": 1,
      "note": 66,
      "start": 28.435,
      "duration": 0.0159,
      "velocity": 94,
      "chip": "ym2612"
    },
    {
      "channel": 0,
      "note": 70,
      "start": 28.4447,
      "duration": 0.018,
      "velocity": 115,
      "chip": "ym2612"
    },
    {
      "channel": 3,
      "note": 66,
      "start": 28.4483,
      "duration": 0.0186,
      "velocity": 94,
      "chip": "ym2612"
    },
    {
      "channel": 2,
      "note": 49,
      "start": 28.4494,
      "duration": 0.0194,
      "velocity": 100,
      "chip": "ym2612"
    },
    {
      "channel": 1,
      "note": 66,
      "start": 28.4509,
      "duration": 0.0193,
      "velocity": 94,
      "chip": "ym2612"
    },
    {
      "channel": 0,
      "note": 36,
      "start": 28.4627,
      "duration": 0.0143,
      "velocity": 115,
      "chip": "ym2612"
    },
    {
      "channel": 5,
      "note": 78,
      "start": 28.4642,
      "duration": 0.0141,
      "velocity": 110,
      "chip": "ym2612"
    },
    {
      "channel": 4,
      "note": 76,
      "start": 28.4657,
      "duration": 0.0137,
      "velocity": 110,
      "chip": "ym2612"
    },
    {
      "channel": 3,
      "note": 66,
      "start": 28.4669,
      "duration": 0.0137,
      "velocity": 94,
      "chip": "ym2612"
    },
    {
      "channel": 2,
      "note": 54,
      "start": 28.4689,
      "duration": 0.0129,
      "velocity": 100,
      "chip": "ym2612"
    },
    {
      "channel": 1,
      "note": 66,
      "start": 28.4702,
      "duration": 0.0128,
      "velocity": 94,
      "chip": "ym2612"
    },
    {
      "channel": 0,
      "note": 36,
      "start": 28.477,
      "duration": 0.0161,
      "velocity": 115,
      "chip": "ym2612"
    },
    {
      "channel": 5,
      "note": 78,
      "start": 28.4782,
      "duration": 0.016,
      "velocity": 110,
      "chip": "ym2612"
    },
    {
      "channel": 4,
      "note": 76,
      "start": 28.4794,
      "duration": 0.0159,
      "velocity": 110,
      "chip": "ym2612"
    },
    {
      "channel": 3,
      "note": 66,
      "start": 28.4807,
      "duration": 0.0159,
      "velocity": 94,
      "chip": "ym2612"
    },
    {
      "channel": 2,
      "note": 54,
      "start": 28.4819,
      "duration": 0.0158,
      "velocity": 100,
      "chip": "ym2612"
    },
    {
      "channel": 1,
      "note": 66,
      "start": 28.483,
      "duration": 0.0159,
      "velocity": 94,
      "chip": "ym2612"
    },
    {
      "channel": 0,
      "note": 37,
      "start": 28.4931,
      "duration": 0.0161,
      "velocity": 115,
      "chip": "ym2612"
    },
    {
      "channel": 5,
      "note": 78,
      "start": 28.4942,
      "duration": 0.0161,
      "velocity": 110,
      "chip": "ym2612"
    },
    {
      "channel": 4,
      "note": 76,
      "start": 28.4954,
      "duration": 0.0161,
      "velocity": 110,
      "chip": "ym2612"
    },
    {
      "channel": 3,
      "note": 66,
      "start": 28.4966,
      "duration": 0.0161,
      "velocity": 94,
      "chip": "ym2612"
    },
    {
      "channel": 2,
      "note": 54,
      "start": 28.4977,
      "duration": 0.0161,
      "velocity": 100,
      "chip": "ym2612"
    },
    {
      "channel": 1,
      "note": 66,
      "start": 28.4989,
      "duration": 0.0161,
      "velocity": 94,
      "chip": "ym2612"
    },
    {
      "channel": 0,
      "note": 37,
      "start": 28.5091,
      "duration": 0.0161,
      "velocity": 115,
      "chip": "ym2612"
    },
    {
      "channel": 5,
      "note": 78,
      "start": 28.5103,
      "duration": 0.0161,
      "velocity": 110,
      "chip": "ym2612"
    },
    {
      "channel": 4,
      "note": 76,
      "start": 28.5114,
      "duration": 0.0162,
      "velocity": 110,
      "chip": "ym2612"
    },
    {
      "channel": 3,
      "note": 66,
      "start": 28.5127,
      "duration": 0.0161,
      "velocity": 94,
      "chip": "ym2612"
    },
    {
      "channel": 2,
      "note": 54,
      "start": 28.5138,
      "duration": 0.0162,
      "velocity": 100,
      "chip": "ym2612"
    },
    {
      "channel": 1,
      "note": 66,
      "start": 28.515,
      "duration": 0.0161,
      "velocity": 94,
      "chip": "ym2612"
    },
    {
      "channel": 0,
      "note": 38,
      "start": 28.5252,
      "duration": 0.0161,
      "velocity": 115,
      "chip": "ym2612"
    },
    {
      "channel": 5,
      "note": 78,
      "start": 28.5264,
      "duration": 0.0161,
      "velocity": 110,
      "chip": "ym2612"
    },
    {
      "channel": 4,
      "note": 76,
      "start": 28.5276,
      "duration": 0.0161,
      "velocity": 110,
      "chip": "ym2612"
    },
    {
      "channel": 3,
      "note": 66,
      "start": 28.5288,
      "duration": 0.016,
      "velocity": 94,
      "chip": "ym2612"
    },
    {
      "channel": 2,
      "note": 54,
      "start": 28.53,
      "duration": 0.0161,
      "velocity": 100,
      "chip": "ym2612"
    },
    {
      "channel": 1,
      "note": 66,
      "start": 28.5311,
      "duration": 0.0161,
      "velocity": 94,
      "chip": "ym2612"
    },
    {
      "channel": 0,
      "note": 38,
      "start": 28.5413,
      "duration": 0.0179,
      "velocity": 124,
      "chip": "ym2612"
    },
    {
      "channel": 5,
      "note": 78,
      "start": 28.5425,
      "duration": 0.0179,
      "velocity": 110,
      "chip": "ym2612"
    },
    {
      "channel": 4,
      "note": 76,
      "start": 28.5437,
      "duration": 0.0179,
      "velocity": 110,
      "chip": "ym2612"
    },
    {
      "channel": 3,
      "note": 66,
      "start": 28.5448,
      "duration": 0.0179,
      "velocity": 94,
      "chip": "ym2612"
    },
    {
      "channel": 2,
      "note": 54,
      "start": 28.546,
      "duration": 0.018,
      "velocity": 100,
      "chip": "ym2612"
    },
    {
      "channel": 1,
      "note": 66,
      "start": 28.5472,
      "duration": 0.0179,
      "velocity": 94,
      "chip": "ym2612"
    },
    {
      "channel": 0,
      "note": 84,
      "start": 28.5593,
      "duration": 0.0143,
      "velocity": 124,
      "chip": "ym2612"
    },
    {
      "channel": 5,
      "note": 78,
      "start": 28.5604,
      "duration": 0.0143,
      "velocity": 110,
      "chip": "ym2612"
    },
    {
      "channel": 4,
      "note": 76,
      "start": 28.5616,
      "duration": 0.0143,
      "velocity": 110,
      "chip": "ym2612"
    },
    {
      "channel": 3,
      "note": 66,
      "start": 28.5628,
      "duration": 0.0144,
      "velocity": 94,
      "chip": "ym2612"
    },
    {
      "channel": 2,
      "note": 54,
      "start": 28.564,
      "duration": 0.0143,
      "velocity": 100,
      "chip": "ym2612"
    },
    {
      "channel": 1,
      "note": 66,
      "start": 28.5651,
      "duration": 0.0144,
      "velocity": 94,
      "chip": "ym2612"
    },
    {
      "channel": 0,
      "note": 82,
      "start": 28.5736,
      "duration": 0.016,
      "velocity": 124,
      "chip": "ym2612"
    },
    {
      "channel": 2,
      "note": 54,
      "start": 28.5783,
      "duration": 0.016,
      "velocity": 100,
      "chip": "ym2612"
    },
    {
      "channel": 1,
      "note": 66,
      "start": 28.5795,
      "duration": 0.016,
      "velocity": 94,
      "chip": "ym2612"
    },
    {
      "channel": 0,
      "note": 80,
      "start": 28.5896,
      "duration": 0.0161,
      "velocity": 124,
      "chip": "ym2612"
    },
    {
      "channel": 2,
      "note": 54,
      "start": 28.5943,
      "duration": 0.0161,
      "velocity": 100,
      "chip": "ym2612"
    },
    {
      "channel": 1,
      "note": 66,
      "start": 28.5955,
      "duration": 0.0161,
      "velocity": 94,
      "chip": "ym2612"
    },
    {
      "channel": 0,
      "note": 77,
      "start": 28.6057,
      "duration": 0.0161,
      "velocity": 124,
      "chip": "ym2612"
    },
    {
      "channel": 2,
      "note": 54,
      "start": 28.6104,
      "duration": 0.0161,
      "velocity": 100,
      "chip": "ym2612"
    },
    {
      "channel": 1,
      "note": 66,
      "start": 28.6116,
      "duration": 0.0161,
      "velocity": 94,
      "chip": "ym2612"
    },
    {
      "channel": 0,
      "note": 75,
      "start": 28.6219,
      "duration": 0.0161,
      "velocity": 124,
      "chip": "ym2612"
    },
    {
      "channel": 2,
      "note": 54,
      "start": 28.6265,
      "duration": 0.0161,
      "velocity": 100,
      "chip": "ym2612"
    },
    {
      "channel": 1,
      "note": 66,
      "start": 28.6277,
      "duration": 0.0161,
      "velocity": 94,
      "chip": "ym2612"
    },
    {
      "channel": 0,
      "note": 72,
      "start": 28.638,
      "duration": 0.0161,
      "velocity": 124,
      "chip": "ym2612"
    },
    {
      "channel": 2,
      "note": 54,
      "start": 28.6426,
      "duration": 0.0161,
      "velocity": 100,
      "chip": "ym2612"
    },
    {
      "channel": 1,
      "note": 66,
      "start": 28.6438,
      "duration": 0.0161,
      "velocity": 94,
      "chip": "ym2612"
    },
    {
      "channel": 0,
      "note": 70,
      "start": 28.6541,
      "duration": 0.0161,
      "velocity": 124,
      "chip": "ym2612"
    },
    {
      "channel": 2,
      "note": 54,
      "start": 28.6587,
      "duration": 0.022,
      "velocity": 100,
      "chip": "ym2612"
    },
    {
      "channel": 1,
      "note": 66,
      "start": 28.6599,
      "duration": 0.0219,
      "velocity": 94,
      "chip": "ym2612"
    },
    {
      "channel": 0,
      "note": 68,
      "start": 28.6702,
      "duration": 0.0169,
      "velocity": 124,
      "chip": "ym2612"
    },
    {
      "channel": 5,
      "note": 82,
      "start": 28.6733,
      "duration": 0.0151,
      "velocity": 101,
      "chip": "ym2612"
    },
    {
      "channel": 4,
      "note": 85,
      "start": 28.6764,
      "duration": 0.0132,
      "velocity": 101,
      "chip": "ym2612"
    },
    {
      "channel": 3,
      "note": 90,
      "start": 28.6794,
      "duration": 0.0114,
      "velocity": 101,
      "chip": "ym2612"
    },
    {
      "channel": 2,
      "note": 54,
      "start": 28.6807,
      "duration": 0.0113,
      "velocity": 100,
      "chip": "ym2612"
    },
    {
      "channel": 1,
      "note": 66,
      "start": 28.6818,
      "duration": 0.0114,
      "velocity": 94,
      "chip": "ym2612"
    },
    {
      "channel": 0,
      "note": 65,
      "start": 28.6871,
      "duration": 0.0158,
      "velocity": 124,
      "chip": "ym2612"
    },
    {
      "channel": 5,
      "note": 82,
      "start": 28.6883,
      "duration": 0.0158,
      "velocity": 101,
      "chip": "ym2612"
    },
    {
      "channel": 4,
      "note": 85,
      "start": 28.6896,
      "duration": 0.0157,
      "velocity": 101,
      "chip": "ym2612"
    },
    {
      "channel": 3,
      "note": 90,
      "start": 28.6908,
      "duration": 0.0156,
      "velocity": 101,
      "chip": "ym2612"
    },
    {
      "channel": 2,
      "note": 54,
      "start": 28.692,
      "duration": 0.0156,
      "velocity": 100,
      "chip": "ym2612"
    },
    {
      "channel": 1,
      "note": 66,
      "start": 28.6932,
      "duration": 0.0156,
      "velocity": 94,
      "chip": "ym2612"
    },
    {
      "channel": 0,
      "note": 63,
      "start": 28.7029,
      "duration": 0.0153,
      "velocity": 1,
      "chip": "ym2612"
    },
    {
      "channel": 5,
      "note": 82,
      "start": 28.7041,
      "duration": 0.0153,
      "velocity": 101,
      "chip": "ym2612"
    },
    {
      "channel": 4,
      "note": 85,
      "start": 28.7053,
      "duration": 0.0153,
      "velocity": 101,
      "chip": "ym2612"
    },
    {
      "channel": 3,
      "note": 90,
      "start": 28.7065,
      "duration": 0.0153,
      "velocity": 101,
      "chip": "ym2612"
    },
    {
      "channel": 2,
      "note": 54,
      "start": 28.7076,
      "duration": 0.0153,
      "velocity": 100,
      "chip": "ym2612"
    },
    {
      "channel": 1,
      "note": 66,
      "start": 28.7088,
      "duration": 0.0153,
      "velocity": 94,
      "chip": "ym2612"
    },
    {
      "channel": 5,
      "note": 82,
      "start": 28.7194,
      "duration": 0.0149,
      "velocity": 101,
      "chip": "ym2612"
    },
    {
      "channel": 4,
      "note": 85,
      "start": 28.7206,
      "duration": 0.0152,
      "velocity": 101,
      "chip": "ym2612"
    },
    {
      "channel": 3,
      "note": 90,
      "start": 28.7217,
      "duration": 0.0153,
      "velocity": 101,
      "chip": "ym2612"
    },
    {
      "channel": 2,
      "note": 54,
      "start": 28.7229,
      "duration": 0.0153,
      "velocity": 100,
      "chip": "ym2612"
    },
    {
      "channel": 1,
      "note": 66,
      "start": 28.7241,
      "duration": 0.0153,
      "velocity": 94,
      "chip": "ym2612"
    },
    {
      "channel": 5,
      "note": 82,
      "start": 28.7343,
      "duration": 0.0159,
      "velocity": 101,
      "chip": "ym2612"
    },
    {
      "channel": 4,
      "note": 85,
      "start": 28.7358,
      "duration": 0.0161,
      "velocity": 101,
      "chip": "ym2612"
    },
    {
      "channel": 3,
      "note": 90,
      "start": 28.737,
      "duration": 0.0161,
      "velocity": 101,
      "chip": "ym2612"
    },
    {
      "channel": 2,
      "note": 54,
      "start": 28.7382,
      "duration": 0.0161,
      "velocity": 100,
      "chip": "ym2612"
    },
    {
      "channel": 1,
      "note": 66,
      "start": 28.7394,
      "duration": 0.0161,
      "velocity": 94,
      "chip": "ym2612"
    },
    {
      "channel": 5,
      "note": 82,
      "start": 28.7502,
      "duration": 0.0203,
      "velocity": 101,
      "chip": "ym2612"
    },
    {
      "channel": 4,
      "note": 85,
      "start": 28.7519,
      "duration": 0.0199,
      "velocity": 101,
      "chip": "ym2612"
    },
    {
      "channel": 3,
      "note": 90,
      "start": 28.7531,
      "duration": 0.0199,
      "velocity": 101,
      "chip": "ym2612"
    },
    {
      "channel": 2,
      "note": 54,
      "start": 28.7542,
      "duration": 0.0202,
      "velocity": 100,
      "chip": "ym2612"
    },
    {
      "channel": 1,
      "note": 66,
      "start": 28.7555,
      "duration": 0.0202,
      "velocity": 94,
      "chip": "ym2612"
    },
    {
      "channel": 0,
      "note": 36,
      "start": 28.7692,
      "duration": 0.0137,
      "velocity": 115,
      "chip": "ym2612"
    },
    {
      "channel": 5,
      "note": 82,
      "start": 28.7705,
      "duration": 0.0142,
      "velocity": 101,
      "chip": "ym2612"
    },
    {
      "channel": 4,
      "note": 85,
      "start": 28.7717,
      "duration": 0.0142,
      "velocity": 101,
      "chip": "ym2612"
    },
    {
      "channel": 3,
      "note": 90,
      "start": 28.773,
      "duration": 0.0142,
      "velocity": 101,
      "chip": "ym2612"
    },
    {
      "channel": 2,
      "note": 54,
      "start": 28.7745,
      "duration": 0.014,
      "velocity": 100,
      "chip": "ym2612"
    },
    {
      "channel": 1,
      "note": 66,
      "start": 28.7757,
      "duration": 0.014,
      "velocity": 94,
      "chip": "ym2612"
    },
    {
      "channel": 0,
      "note": 36,
      "start": 28.7829,
      "duration": 0.0161,
      "velocity": 115,
      "chip": "ym2612"
    },
    {
      "channel": 2,
      "note": 54,
      "start": 28.7885,
      "duration": 0.0159,
      "velocity": 100,
      "chip": "ym2612"
    },
    {
      "channel": 1,
      "note": 66,
      "start": 28.7897,
      "duration": 0.0159,
      "velocity": 94,
      "chip": "ym2612"
    },
    {
      "channel": 0,
      "note": 37,
      "start": 28.799,
      "duration": 0.0161,
      "velocity": 115,
      "chip": "ym2612"
    },
    {
      "channel": 2,
      "note": 54,
      "start": 28.8044,
      "duration": 0.0161,
      "velocity": 100,
      "chip": "ym2612"
    },
    {
      "channel": 1,
      "note": 66,
      "start": 28.8056,
      "duration": 0.016,
      "velocity": 94,
      "chip": "ym2612"
    },
    {
      "channel": 0,
      "note": 37,
      "start": 28.8151,
      "duration": 0.0161,
      "velocity": 115,
      "chip": "ym2612"
    },
    {
      "channel": 2,
      "note": 54,
      "start": 28.8205,
      "duration": 0.0161,
      "velocity": 100,
      "chip": "ym2612"
    },
    {
      "channel": 1,
      "note": 66,
      "start": 28.8216,
      "duration": 0.0162,
      "velocity": 94,
      "chip": "ym2612"
    },
    {
      "channel": 0,
      "note": 38,
      "start": 28.8312,
      "duration": 0.0161,
      "velocity": 115,
      "chip": "ym2612"
    },
    {
      "channel": 2,
      "note": 54,
      "start": 28.8366,
      "duration": 0.0163,
      "velocity": 100,
      "chip": "ym2612"
    },
    {
      "channel": 1,
      "note": 66,
      "start": 28.8378,
      "duration": 0.0163,
      "velocity": 94,
      "chip": "ym2612"
    },
    {
      "channel": 0,
      "note": 38,
      "start": 28.8473,
      "duration": 0.0161,
      "velocity": 115,
      "chip": "ym2612"
    },
    {
      "channel": 2,
      "note": 54,
      "start": 28.853,
      "duration": 0.0156,
      "velocity": 100,
      "chip": "ym2612"
    },
    {
      "channel": 1,
      "note": 66,
      "start": 28.8541,
      "duration": 0.0157,
      "velocity": 94,
      "chip": "ym2612"
    },
    {
      "channel": 0,
      "note": 39,
      "start": 28.8633,
      "duration": 0.018,
      "velocity": 124,
      "chip": "ym2612"
    },
    {
      "channel": 2,
      "note": 54,
      "start": 28.8685,
      "duration": 0.0182,
      "velocity": 100,
      "chip": "ym2612"
    },
    {
      "channel": 1,
      "note": 66,
      "start": 28.8698,
      "duration": 0.018,
      "velocity": 94,
      "chip": "ym2612"
    },
    {
      "channel": 0,
      "note": 84,
      "start": 28.8813,
      "duration": 0.0143,
      "velocity": 124,
      "chip": "ym2612"
    },
    {
      "channel": 2,
      "note": 54,
      "start": 28.8868,
      "duration": 0.0137,
      "velocity": 100,
      "chip": "ym2612"
    },
    {
      "channel": 1,
      "note": 66,
      "start": 28.8879,
      "duration": 0.0143,
      "velocity": 94,
      "chip": "ym2612"
    },
    {
      "channel": 0,
      "note": 82,
      "start": 28.8956,
      "duration": 0.016,
      "velocity": 124,
      "chip": "ym2612"
    },
    {
      "channel": 2,
      "note": 54,
      "start": 28.9004,
      "duration": 0.0161,
      "velocity": 100,
      "chip": "ym2612"
    },
    {
      "channel": 1,
      "note": 66,
      "start": 28.9022,
      "duration": 0.016,
      "velocity": 94,
      "chip": "ym2612"
    },
    {
      "channel": 0,
      "note": 80,
      "start": 28.9116,
      "duration": 0.0161,
      "velocity": 124,
      "chip": "ym2612"
    },
    {
      "channel": 2,
      "note": 54,
      "start": 28.9165,
      "duration": 0.016,
      "velocity": 100,
      "chip": "ym2612"
    },
    {
      "channel": 1,
      "note": 66,
      "start": 28.9182,
      "duration": 0.0155,
      "velocity": 94,
      "chip": "ym2612"
    },
    {
      "channel": 0,
      "note": 77,
      "start": 28.9278,
      "duration": 0.0161,
      "velocity": 124,
      "chip": "ym2612"
    },
    {
      "channel": 2,
      "note": 54,
      "start": 28.9325,
      "duration": 0.0161,
      "velocity": 100,
      "chip": "ym2612"
    },
    {
      "channel": 1,
      "note": 66,
      "start": 28.9337,
      "duration": 0.0161,
      "velocity": 94,
      "chip": "ym2612"
    },
    {
      "channel": 0,
      "note": 75,
      "start": 28.9439,
      "duration": 0.0161,
      "velocity": 124,
      "chip": "ym2612"
    },
    {
      "channel": 2,
      "note": 54,
      "start": 28.9486,
      "duration": 0.0163,
      "velocity": 100,
      "chip": "ym2612"
    },
    {
      "channel": 1,
      "note": 66,
      "start": 28.9498,
      "duration": 0.0163,
      "velocity": 94,
      "chip": "ym2612"
    },
    {
      "channel": 0,
      "note": 72,
      "start": 28.96,
      "duration": 0.0179,
      "velocity": 115,
      "chip": "ym2612"
    },
    {
      "channel": 2,
      "note": 54,
      "start": 28.9649,
      "duration": 0.0191,
      "velocity": 100,
      "chip": "ym2612"
    },
    {
      "channel": 1,
      "note": 66,
      "start": 28.9661,
      "duration": 0.0196,
      "velocity": 94,
      "chip": "ym2612"
    },
    {
      "channel": 0,
      "note": 36,
      "start": 28.9779,
      "duration": 0.0143,
      "velocity": 115,
      "chip": "ym2612"
    },
    {
      "channel": 5,
      "note": 82,
      "start": 28.9794,
      "duration": 0.0141,
      "velocity": 101,
      "chip": "ym2612"
    },
    {
      "channel": 4,
      "note": 85,
      "start": 28.981,
      "duration": 0.0137,
      "velocity": 101,
      "chip": "ym2612"
    },
    {
      "channel": 3,
      "note": 90,
      "start": 28.9825,
      "duration": 0.0135,
      "velocity": 101,
      "chip": "ym2612"
    },
    {
      "channel": 2,
      "note": 54,
      "start": 28.984,
      "duration": 0.0132,
      "velocity": 100,
      "chip": "ym2612"
    },
    {
      "channel": 1,
      "note": 66,
      "start": 28.9857,
      "duration": 0.0127,
      "velocity": 94,
      "chip": "ym2612"
    },
    {
      "channel": 0,
      "note": 36,
      "start": 28.9922,
      "duration": 0.016,
      "velocity": 115,
      "chip": "ym2612"
    },
    {
      "channel": 5,
      "note": 82,
      "start": 28.9935,
      "duration": 0.016,
      "velocity": 101,
      "chip": "ym2612"
    },
    {
      "channel": 4,
      "note": 85,
      "start": 28.9947,
      "duration": 0.0159,
      "velocity": 101,
      "chip": "ym2612"
    },
    {
      "channel": 3,
      "note": 90,
      "start": 28.996,
      "duration": 0.0158,
      "velocity": 101,
      "chip": "ym2612"
    },
    {
      "channel": 2,
      "note": 54,
      "start": 28.9972,
      "duration": 0.0158,
      "velocity": 100,
      "chip": "ym2612"
    },
    {
      "channel": 1,
      "note": 66,
      "start": 28.9984,
      "duration": 0.0159,
      "velocity": 94,
      "chip": "ym2612"
    },
    {
      "channel": 0,
      "note": 37,
      "start": 29.0083,
      "duration": 0.0161,
      "velocity": 115,
      "chip": "ym2612"
    },
    {
      "channel": 5,
      "note": 82,
      "start": 29.0095,
      "duration": 0.0161,
      "velocity": 101,
      "chip": "ym2612"
    },
    {
      "channel": 4,
      "note": 85,
      "start": 29.0106,
      "duration": 0.0161,
      "velocity": 101,
      "chip": "ym2612"
    },
    {
      "channel": 3,
      "note": 90,
      "start": 29.0118,
      "duration": 0.0161,
      "velocity": 101,
      "chip": "ym2612"
    },
    {
      "channel": 2,
      "note": 54,
      "start": 29.013,
      "duration": 0.0162,
      "velocity": 100,
      "chip": "ym2612"
    },
    {
      "channel": 1,
      "note": 66,
      "start": 29.0142,
      "duration": 0.0161,
      "velocity": 94,
      "chip": "ym2612"
    },
    {
      "channel": 0,
      "note": 37,
      "start": 29.0244,
      "duration": 0.0161,
      "velocity": 115,
      "chip": "ym2612"
    },
    {
      "channel": 5,
      "note": 82,
      "start": 29.0256,
      "duration": 0.0161,
      "velocity": 101,
      "chip": "ym2612"
    },
    {
      "channel": 4,
      "note": 85,
      "start": 29.0268,
      "duration": 0.0161,
      "velocity": 101,
      "chip": "ym2612"
    },
    {
      "channel": 3,
      "note": 90,
      "start": 29.0279,
      "duration": 0.0161,
      "velocity": 101,
      "chip": "ym2612"
    },
    {
      "channel": 2,
      "note": 54,
      "start": 29.0292,
      "duration": 0.0161,
      "velocity": 100,
      "chip": "ym2612"
    },
    {
      "channel": 1,
      "note": 66,
      "start": 29.0303,
      "duration": 0.0161,
      "velocity": 94,
      "chip": "ym2612"
    },
    {
      "channel": 0,
      "note": 38,
      "start": 29.0405,
      "duration": 0.0161,
      "velocity": 115,
      "chip": "ym2612"
    },
    {
      "channel": 5,
      "note": 82,
      "start": 29.0417,
      "duration": 0.0161,
      "velocity": 101,
      "chip": "ym2612"
    },
    {
      "channel": 4,
      "note": 85,
      "start": 29.0429,
      "duration": 0.0161,
      "velocity": 101,
      "chip": "ym2612"
    },
    {
      "channel": 3,
      "note": 90,
      "start": 29.044,
      "duration": 0.0161,
      "velocity": 101,
      "chip": "ym2612"
    },
    {
      "channel": 2,
      "note": 54,
      "start": 29.0453,
      "duration": 0.0161,
      "velocity": 100,
      "chip": "ym2612"
    },
    {
      "channel": 1,
      "note": 66,
      "start": 29.0464,
      "duration": 0.0161,
      "velocity": 94,
      "chip": "ym2612"
    },
    {
      "channel": 0,
      "note": 38,
      "start": 29.0565,
      "duration": 0.0161,
      "velocity": 115,
      "chip": "ym2612"
    },
    {
      "channel": 5,
      "note": 82,
      "start": 29.0578,
      "duration": 0.0161,
      "velocity": 101,
      "chip": "ym2612"
    },
    {
      "channel": 4,
      "note": 85,
      "start": 29.059,
      "duration": 0.0162,
      "velocity": 101,
      "chip": "ym2612"
    },
    {
      "channel": 3,
      "note": 90,
      "start": 29.0601,
      "duration": 0.0163,
      "velocity": 101,
      "chip": "ym2612"
    },
    {
      "channel": 2,
      "note": 54,
      "start": 29.0614,
      "duration": 0.0163,
      "velocity": 100,
      "chip": "ym2612"
    },
    {
      "channel": 1,
      "note": 66,
      "start": 29.0625,
      "duration": 0.0163,
      "velocity": 94,
      "chip": "ym2612"
    },
    {
      "channel": 0,
      "note": 39,
      "start": 29.0726,
      "duration": 0.0179,
      "velocity": 124,
      "chip": "ym2612"
    },
    {
      "channel": 5,
      "note": 82,
      "start": 29.0739,
      "duration": 0.0179,
      "velocity": 101,
      "chip": "ym2612"
    },
    {
      "channel": 4,
      "note": 85,
      "start": 29.0752,
      "duration": 0.0179,
      "velocity": 101,
      "chip": "ym2612"
    },
    {
      "channel": 3,
      "note": 90,
      "start": 29.0764,
      "duration": 0.0179,
      "velocity": 101,
      "chip": "ym2612"
    },
    {
      "channel": 2,
      "note": 54,
      "start": 29.0777,
      "duration": 0.018,
      "velocity": 100,
      "chip": "ym2612"
    },
    {
      "channel": 1,
      "note": 66,
      "start": 29.0789,
      "duration": 0.0181,
      "velocity": 94,
      "chip": "ym2612"
    },
    {
      "channel": 0,
      "note": 84,
      "start": 29.0906,
      "duration": 0.0143,
      "velocity": 124,
      "chip": "ym2612"
    },
    {
      "channel": 2,
      "note": 49,
      "start": 29.0958,
      "duration": 0.014,
      "velocity": 100,
      "chip": "ym2612"
    },
    {
      "channel": 1,
      "note": 66,
      "start": 29.097,
      "duration": 0.014,
      "velocity": 94,
      "chip": "ym2612"
    },
    {
      "channel": 0,
      "note": 82,
      "start": 29.1049,
      "duration": 0.016,
      "velocity": 124,
      "chip": "ym2612"
    },
    {
      "channel": 2,
      "note": 49,
      "start": 29.1098,
      "duration": 0.016,
      "velocity": 100,
      "chip": "ym2612"
    },
    {
      "channel": 1,
      "note": 66,
      "start": 29.111,
      "duration": 0.016,
      "velocity": 94,
      "chip": "ym2612"
    },
    {
      "channel": 0,
      "note": 80,
      "start": 29.121,
      "duration": 0.0162,
      "velocity": 124,
      "chip": "ym2612"
    },
    {
      "channel": 2,
      "note": 49,
      "start": 29.1258,
      "duration": 0.0162,
      "velocity": 100,
      "chip": "ym2612"
    },
    {
      "channel": 1,
      "note": 66,
      "start": 29.127,
      "duration": 0.0162,
      "velocity": 94,
      "chip": "ym2612"
    },
    {
      "channel": 0,
      "note": 77,
      "start": 29.1371,
      "duration": 0.0161,
      "velocity": 124,
      "chip": "ym2612"
    },
    {
      "channel": 2,
      "note": 49,
      "start": 29.142,
      "duration": 0.0163,
      "velocity": 100,
      "chip": "ym2612"
    },
    {
      "channel": 1,
      "note": 66,
      "start": 29.1432,
      "duration": 0.0163,
      "velocity": 94,
      "chip": "ym2612"
    },
    {
      "channel": 0,
      "note": 75,
      "start": 29.1533,
      "duration": 0.0163,
      "velocity": 124,
      "chip": "ym2612"
    },
    {
      "channel": 2,
      "note": 49,
      "start": 29.1584,
      "duration": 0.016,
      "velocity": 100,
      "chip": "ym2612"
    },
    {
      "channel": 1,
      "note": 66,
      "start": 29.1595,
      "duration": 0.016,
      "velocity": 94,
      "chip": "ym2612"
    },
    {
      "channel": 0,
      "note": 72,
      "start": 29.1696,
      "duration": 0.0181,
      "velocity": 124,
      "chip": "ym2612"
    },
    {
      "channel": 2,
      "note": 49,
      "start": 29.1744,
      "duration": 0.0185,
      "velocity": 100,
      "chip": "ym2612"
    },
    {
      "channel": 1,
      "note": 66,
      "start": 29.1756,
      "duration": 0.0185,
      "velocity": 94,
      "chip": "ym2612"
    },
    {
      "channel": 0,
      "note": 84,
      "start": 29.1878,
      "duration": 0.0143,
      "velocity": 124,
      "chip": "ym2612"
    },
    {
      "channel": 2,
      "note": 51,
      "start": 29.1929,
      "duration": 0.0141,
      "velocity": 100,
      "chip": "ym2612"
    },
    {
      "channel": 1,
      "note": 66,
      "start": 29.1941,
      "duration": 0.0141,
      "velocity": 94,
      "chip": "ym2612"
    },
    {
      "channel": 0,
      "note": 82,
      "start": 29.2022,
      "duration": 0.016,
      "velocity": 124,
      "chip": "ym2612"
    },
    {
      "channel": 2,
      "note": 51,
      "start": 29.207,
      "duration": 0.016,
      "velocity": 100,
      "chip": "ym2612"
    },
    {
      "channel": 1,
      "note": 66,
      "start": 29.2081,
      "duration": 0.016,
      "velocity": 94,
      "chip": "ym2612"
    },
    {
      "channel": 0,
      "note": 80,
      "start": 29.2181,
      "duration": 0.0156,
      "velocity": 124,
      "chip": "ym2612"
    },
    {
      "channel": 2,
      "note": 51,
      "start": 29.2229,
      "duration": 0.0161,
      "velocity": 100,
      "chip": "ym2612"
    },
    {
      "channel": 1,
      "note": 66,
      "start": 29.2241,
      "duration": 0.0161,
      "velocity": 94,
      "chip": "ym2612"
    },
    {
      "channel": 0,
      "note": 77,
      "start": 29.2337,
      "duration": 0.0161,
      "velocity": 124,
      "chip": "ym2612"
    },
    {
      "channel": 2,
      "note": 51,
      "start": 29.239,
      "duration": 0.0161,
      "velocity": 100,
      "chip": "ym2612"
    },
    {
      "channel": 1,
      "note": 66,
      "start": 29.2402,
      "duration": 0.016,
      "velocity": 94,
      "chip": "ym2612"
    },
    {
      "channel": 0,
      "note": 75,
      "start": 29.2498,
      "duration": 0.0161,
      "velocity": 124,
      "chip": "ym2612"
    },
    {
      "channel": 2,
      "note": 51,
      "start": 29.2551,
      "duration": 0.0163,
      "velocity": 100,
      "chip": "ym2612"
    },
    {
      "channel": 1,
      "note": 66,
      "start": 29.2563,
      "duration": 0.0163,
      "velocity": 94,
      "chip": "ym2612"
    },
    {
      "channel": 0,
      "note": 72,
      "start": 29.2659,
      "duration": 0.0161,
      "velocity": 124,
      "chip": "ym2612"
    },
    {
      "channel": 2,
      "note": 51,
      "start": 29.2714,
      "duration": 0.0161,
      "velocity": 100,
      "chip": "ym2612"
    },
    {
      "channel": 1,
      "note": 66,
      "start": 29.2726,
      "duration": 0.0162,
      "velocity": 94,
      "chip": "ym2612"
    },
    {
      "channel": 0,
      "note": 70,
      "start": 29.282,
      "duration": 0.0179,
      "velocity": 115,
      "chip": "ym2612"
    },
    {
      "channel": 2,
      "note": 51,
      "start": 29.2876,
      "duration": 0.019,
      "velocity": 100,
      "chip": "ym2612"
    },
    {
      "channel": 1,
      "note": 66,
      "start": 29.2888,
      "duration": 0.019,
      "velocity": 94,
      "chip": "ym2612"
    },
    {
      "channel": 0,
      "note": 36,
      "start": 29.2999,
      "duration": 0.0143,
      "velocity": 115,
      "chip": "ym2612"
    },
    {
      "channel": 5,
      "note": 82,
      "start": 29.302,
      "duration": 0.0135,
      "velocity": 101,
      "chip": "ym2612"
    },
    {
      "channel": 4,
      "note": 85,
      "start": 29.3035,
      "duration": 0.0132,
      "velocity": 101,
      "chip": "ym2612"
    },
    {
      "channel": 3,
      "note": 90,
      "start": 29.3051,
      "duration": 0.0135,
      "velocity": 101,
      "chip": "ym2612"
    },
    {
      "channel": 2,
      "note": 54,
      "start": 29.3065,
      "duration": 0.0133,
      "velocity": 100,
      "chip": "ym2612"
    },
    {
      "channel": 1,
      "note": 66,
      "start": 29.3078,
      "duration": 0.0132,
      "velocity": 94,
      "chip": "ym2612"
    },
    {
      "channel": 0,
      "note": 36,
      "start": 29.3142,
      "duration": 0.016,
      "velocity": 115,
      "chip": "ym2612"
    },
    {
      "channel": 5,
      "note": 82,
      "start": 29.3155,
      "duration": 0.016,
      "velocity": 101,
      "chip": "ym2612"
    },
    {
      "channel": 4,
      "note": 85,
      "start": 29.3168,
      "duration": 0.0159,
      "velocity": 101,
      "chip": "ym2612"
    },
    {
      "channel": 3,
      "note": 90,
      "start": 29.3185,
      "duration": 0.0155,
      "velocity": 101,
      "chip": "ym2612"
    },
    {
      "channel": 2,
      "note": 54,
      "start": 29.3198,
      "duration": 0.0158,
      "velocity": 100,
      "chip": "ym2612"
    },
    {
      "channel": 1,
      "note": 66,
      "start": 29.321,
      "duration": 0.0158,
      "velocity": 94,
      "chip": "ym2612"
    },
    {
      "channel": 0,
      "note": 37,
      "start": 29.3303,
      "duration": 0.0161,
      "velocity": 115,
      "chip": "ym2612"
    },
    {
      "channel": 5,
      "note": 82,
      "start": 29.3315,
      "duration": 0.0161,
      "velocity": 101,
      "chip": "ym2612"
    },
    {
      "channel": 4,
      "note": 85,
      "start": 29.3327,
      "duration": 0.0161,
      "velocity": 101,
      "chip": "ym2612"
    },
    {
      "channel": 3,
      "note": 90,
      "start": 29.334,
      "duration": 0.0159,
      "velocity": 101,
      "chip": "ym2612"
    },
    {
      "channel": 2,
      "note": 54,
      "start": 29.3356,
      "duration": 0.016,
      "velocity": 100,
      "chip": "ym2612"
    },
    {
      "channel": 1,
      "note": 66,
      "start": 29.3368,
      "duration": 0.0161,
      "velocity": 94,
      "chip": "ym2612"
    },
    {
      "channel": 0,
      "note": 37,
      "start": 29.3463,
      "duration": 0.0161,
      "velocity": 115,
      "chip": "ym2612"
    },
    {
      "channel": 5,
      "note": 82,
      "start": 29.3476,
      "duration": 0.0161,
      "velocity": 101,
      "chip": "ym2612"
    },
    {
      "channel": 4,
      "note": 85,
      "start": 29.3488,
      "duration": 0.0161,
      "velocity": 101,
      "chip": "ym2612"
    },
    {
      "channel": 3,
      "note": 90,
      "start": 29.3499,
      "duration": 0.0161,
      "velocity": 101,
      "chip": "ym2612"
    },
    {
      "channel": 2,
      "note": 54,
      "start": 29.3516,
      "duration": 0.0158,
      "velocity": 100,
      "chip": "ym2612"
    },
    {
      "channel": 1,
      "note": 66,
      "start": 29.3529,
      "duration": 0.0161,
      "velocity": 94,
      "chip": "ym2612"
    },
    {
      "channel": 0,
      "note": 38,
      "start": 29.3624,
      "duration": 0.0161,
      "velocity": 115,
      "chip": "ym2612"
    },
    {
      "channel": 5,
      "note": 82,
      "start": 29.3637,
      "duration": 0.0161,
      "velocity": 101,
      "chip": "ym2612"
    },
    {
      "channel": 4,
      "note": 85,
      "start": 29.3649,
      "duration": 0.0161,
      "velocity": 101,
      "chip": "ym2612"
    },
    {
      "channel": 3,
      "note": 90,
      "start": 29.366,
      "duration": 0.0161,
      "velocity": 101,
      "chip": "ym2612"
    },
    {
      "channel": 2,
      "note": 54,
      "start": 29.3674,
      "duration": 0.0159,
      "velocity": 100,
      "chip": "ym2612"
    },
    {
      "channel": 1,
      "note": 66,
      "start": 29.369,
      "duration": 0.016,
      "velocity": 94,
      "chip": "ym2612"
    },
    {
      "channel": 0,
      "note": 38,
      "start": 29.3785,
      "duration": 0.0179,
      "velocity": 124,
      "chip": "ym2612"
    },
    {
      "channel": 5,
      "note": 82,
      "start": 29.3798,
      "duration": 0.0179,
      "velocity": 101,
      "chip": "ym2612"
    },
    {
      "channel": 4,
      "note": 85,
      "start": 29.381,
      "duration": 0.0179,
      "velocity": 101,
      "chip": "ym2612"
    },
    {
      "channel": 3,
      "note": 90,
      "start": 29.3821,
      "duration": 0.018,
      "velocity": 101,
      "chip": "ym2612"
    },
    {
      "channel": 2,
      "note": 54,
      "start": 29.3833,
      "duration": 0.0188,
      "velocity": 100,
      "chip": "ym2612"
    },
    {
      "channel": 1,
      "note": 66,
      "start": 29.385,
      "duration": 0.0183,
      "velocity": 94,
      "chip": "ym2612"
    },
    {
      "channel": 0,
      "note": 84,
      "start": 29.3966,
      "duration": 0.0143,
      "velocity": 124,
      "chip": "ym2612"
    },
    {
      "channel": 5,
      "note": 82,
      "start": 29.3977,
      "duration": 0.0143,
      "velocity": 101,
      "chip": "ym2612"
    },
    {
      "channel": 4,
      "note": 85,
      "start": 29.3989,
      "duration": 0.0143,
      "velocity": 101,
      "chip": "ym2612"
    },
    {
      "channel": 3,
      "note": 90,
      "start": 29.4001,
      "duration": 0.0143,
      "velocity": 101,
      "chip": "ym2612"
    },
    {
      "channel": 2,
      "note": 66,
      "start": 29.4021,
      "duration": 0.0135,
      "velocity": 100,
      "chip": "ym2612"
    },
    {
      "channel": 1,
      "note": 66,
      "start": 29.4033,
      "duration": 0.0135,
      "velocity": 94,
      "chip": "ym2612"
    },
    {
      "channel": 0,
      "note": 82,
      "start": 29.4109,
      "duration": 0.016,
      "velocity": 124,
      "chip": "ym2612"
    },
    {
      "channel": 5,
      "note": 82,
      "start": 29.412,
      "duration": 0.0161,
      "velocity": 101,
      "chip": "ym2612"
    },
    {
      "channel": 4,
      "note": 85,
      "start": 29.4132,
      "duration": 0.016,
      "velocity": 101,
      "chip": "ym2612"
    },
    {
      "channel": 3,
      "note": 90,
      "start": 29.4144,
      "duration": 0.016,
      "velocity": 101,
      "chip": "ym2612"
    },
    {
      "channel": 2,
      "note": 66,
      "start": 29.4156,
      "duration": 0.016,
      "velocity": 100,
      "chip": "ym2612"
    },
    {
      "channel": 1,
      "note": 66,
      "start": 29.4168,
      "duration": 0.016,
      "velocity": 94,
      "chip": "ym2612"
    },
    {
      "channel": 0,
      "note": 80,
      "start": 29.4269,
      "duration": 0.0161,
      "velocity": 124,
      "chip": "ym2612"
    },
    {
      "channel": 5,
      "note": 82,
      "start": 29.4281,
      "duration": 0.0161,
      "velocity": 101,
      "chip": "ym2612"
    },
    {
      "channel": 4,
      "note": 85,
      "start": 29.4293,
      "duration": 0.0161,
      "velocity": 101,
      "chip": "ym2612"
    },
    {
      "channel": 3,
      "note": 90,
      "start": 29.4305,
      "duration": 0.0161,
      "velocity": 101,
      "chip": "ym2612"
    },
    {
      "channel": 2,
      "note": 66,
      "start": 29.4316,
      "duration": 0.0161,
      "velocity": 100,
      "chip": "ym2612"
    },
    {
      "channel": 1,
      "note": 66,
      "start": 29.4327,
      "duration": 0.0161,
      "velocity": 94,
      "chip": "ym2612"
    },
    {
      "channel": 0,
      "note": 77,
      "start": 29.443,
      "duration": 0.0161,
      "velocity": 124,
      "chip": "ym2612"
    },
    {
      "channel": 5,
      "note": 82,
      "start": 29.4442,
      "duration": 0.0161,
      "velocity": 101,
      "chip": "ym2612"
    },
    {
      "channel": 4,
      "note": 85,
      "start": 29.4454,
      "duration": 0.0161,
      "velocity": 101,
      "chip": "ym2612"
    },
    {
      "channel": 3,
      "note": 90,
      "start": 29.4466,
      "duration": 0.0161,
      "velocity": 101,
      "chip": "ym2612"
    },
    {
      "channel": 2,
      "note": 66,
      "start": 29.4477,
      "duration": 0.0161,
      "velocity": 100,
      "chip": "ym2612"
    },
    {
      "channel": 1,
      "note": 66,
      "start": 29.4488,
      "duration": 0.0161,
      "velocity": 94,
      "chip": "ym2612"
    },
    {
      "channel": 0,
      "note": 75,
      "start": 29.4591,
      "duration": 0.0161,
      "velocity": 124,
      "chip": "ym2612"
    },
    {
      "channel": 5,
      "note": 82,
      "start": 29.4603,
      "duration": 0.0161,
      "velocity": 101,
      "chip": "ym2612"
    },
    {
      "channel": 4,
      "note": 85,
      "start": 29.4614,
      "duration": 0.0162,
      "velocity": 101,
      "chip": "ym2612"
    },
    {
      "channel": 3,
      "note": 90,
      "start": 29.4627,
      "duration": 0.0161,
      "velocity": 101,
      "chip": "ym2612"
    },
    {
      "channel": 2,
      "note": 66,
      "start": 29.4638,
      "duration": 0.0161,
      "velocity": 100,
      "chip": "ym2612"
    },
    {
      "channel": 1,
      "note": 66,
      "start": 29.4649,
      "duration": 0.0161,
      "velocity": 94,
      "chip": "ym2612"
    },
    {
      "channel": 0,
      "note": 72,
      "start": 29.4752,
      "duration": 0.0161,
      "velocity": 124,
      "chip": "ym2612"
    },
    {
      "channel": 5,
      "note": 82,
      "start": 29.4764,
      "duration": 0.0161,
      "velocity": 101,
      "chip": "ym2612"
    },
    {
      "channel": 4,
      "note": 85,
      "start": 29.4776,
      "duration": 0.0161,
      "velocity": 101,
      "chip": "ym2612"
    },
    {
      "channel": 3,
      "note": 90,
      "start": 29.4787,
      "duration": 0.0161,
      "velocity": 101,
      "chip": "ym2612"
    },
    {
      "channel": 2,
      "note": 66,
      "start": 29.4799,
      "duration": 0.0161,
      "velocity": 100,
      "chip": "ym2612"
    },
    {
      "channel": 1,
      "note": 66,
      "start": 29.4811,
      "duration": 0.0161,
      "velocity": 94,
      "chip": "ym2612"
    },
    {
      "channel": 0,
      "note": 70,
      "start": 29.4913,
      "duration": 0.0179,
      "velocity": 124,
      "chip": "ym2612"
    },
    {
      "channel": 5,
      "note": 82,
      "start": 29.4925,
      "duration": 0.018,
      "velocity": 101,
      "chip": "ym2612"
    },
    {
      "channel": 4,
      "note": 85,
      "start": 29.4937,
      "duration": 0.018,
      "velocity": 101,
      "chip": "ym2612"
    },
    {
      "channel": 3,
      "note": 90,
      "start": 29.4948,
      "duration": 0.0181,
      "velocity": 101,
      "chip": "ym2612"
    },
    {
      "channel": 2,
      "note": 66,
      "start": 29.496,
      "duration": 0.0183,
      "velocity": 100,
      "chip": "ym2612"
    },
    {
      "channel": 1,
      "note": 66,
      "start": 29.4972,
      "duration": 0.0183,
      "velocity": 94,
      "chip": "ym2612"
    },
    {
      "channel": 0,
      "note": 84,
      "start": 29.5093,
      "duration": 0.0142,
      "velocity": 124,
      "chip": "ym2612"
    },
    {
      "channel": 5,
      "note": 82,
      "start": 29.5105,
      "duration": 0.0143,
      "velocity": 101,
      "chip": "ym2612"
    },
    {
      "channel": 4,
      "note": 85,
      "start": 29.5117,
      "duration": 0.0142,
      "velocity": 101,
      "chip": "ym2612"
    },
    {
      "channel": 3,
      "note": 90,
      "start": 29.5129,
      "duration": 0.0142,
      "velocity": 101,
      "chip": "ym2612"
    },
    {
      "channel": 2,
      "note": 54,
      "start": 29.5143,
      "duration": 0.0141,
      "velocity": 100,
      "chip": "ym2612"
    },
    {
      "channel": 1,
      "note": 66,
      "start": 29.5155,
      "duration": 0.0141,
      "velocity": 94,
      "chip": "ym2612"
    },
    {
      "channel": 0,
      "note": 82,
      "start": 29.5235,
      "duration": 0.0161,
      "velocity": 124,
      "chip": "ym2612"
    },
    {
      "channel": 5,
      "note": 82,
      "start": 29.5247,
      "duration": 0.0161,
      "velocity": 101,
      "chip": "ym2612"
    },
    {
      "channel": 4,
      "note": 85,
      "start": 29.5259,
      "duration": 0.0161,
      "velocity": 101,
      "chip": "ym2612"
    },
    {
      "channel": 3,
      "note": 90,
      "start": 29.5271,
      "duration": 0.0161,
      "velocity": 101,
      "chip": "ym2612"
    },
    {
      "channel": 2,
      "note": 54,
      "start": 29.5284,
      "duration": 0.016,
      "velocity": 100,
      "chip": "ym2612"
    },
    {
      "channel": 1,
      "note": 66,
      "start": 29.5296,
      "duration": 0.016,
      "velocity": 94,
      "chip": "ym2612"
    },
    {
      "channel": 0,
      "note": 80,
      "start": 29.5396,
      "duration": 0.0161,
      "velocity": 124,
      "chip": "ym2612"
    },
    {
      "channel": 5,
      "note": 82,
      "start": 29.5408,
      "duration": 0.0161,
      "velocity": 101,
      "chip": "ym2612"
    },
    {
      "channel": 4,
      "note": 85,
      "start": 29.542,
      "duration": 0.0161,
      "velocity": 101,
      "chip": "ym2612"
    },
    {
      "channel": 3,
      "note": 90,
      "start": 29.5432,
      "duration": 0.0161,
      "velocity": 101,
      "chip": "ym2612"
    },
    {
      "channel": 2,
      "note": 54,
      "start": 29.5444,
      "duration": 0.0161,
      "velocity": 100,
      "chip": "ym2612"
    },
    {
      "channel": 1,
      "note": 66,
      "start": 29.5455,
      "duration": 0.0162,
      "velocity": 94,
      "chip": "ym2612"
    },
    {
      "channel": 0,
      "note": 77,
      "start": 29.5557,
      "duration": 0.0161,
      "velocity": 124,
      "chip": "ym2612"
    },
    {
      "channel": 5,
      "note": 82,
      "start": 29.5569,
      "duration": 0.0161,
      "velocity": 101,
      "chip": "ym2612"
    },
    {
      "channel": 4,
      "note": 85,
      "start": 29.5581,
      "duration": 0.0161,
      "velocity": 101,
      "chip": "ym2612"
    },
    {
      "channel": 3,
      "note": 90,
      "start": 29.5593,
      "duration": 0.0161,
      "velocity": 101,
      "chip": "ym2612"
    },
    {
      "channel": 2,
      "note": 54,
      "start": 29.5605,
      "duration": 0.0161,
      "velocity": 100,
      "chip": "ym2612"
    },
    {
      "channel": 1,
      "note": 66,
      "start": 29.5617,
      "duration": 0.016,
      "velocity": 94,
      "chip": "ym2612"
    },
    {
      "channel": 0,
      "note": 75,
      "start": 29.5718,
      "duration": 0.0161,
      "velocity": 124,
      "chip": "ym2612"
    },
    {
      "channel": 5,
      "note": 82,
      "start": 29.573,
      "duration": 0.0161,
      "velocity": 101,
      "chip": "ym2612"
    },
    {
      "channel": 4,
      "note": 85,
      "start": 29.5742,
      "duration": 0.0161,
      "velocity": 101,
      "chip": "ym2612"
    },
    {
      "channel": 3,
      "note": 90,
      "start": 29.5754,
      "duration": 0.0161,
      "velocity": 101,
      "chip": "ym2612"
    },
    {
      "channel": 2,
      "note": 54,
      "start": 29.5766,
      "duration": 0.0161,
      "velocity": 100,
      "chip": "ym2612"
    },
    {
      "channel": 1,
      "note": 66,
      "start": 29.5777,
      "duration": 0.0161,
      "velocity": 94,
      "chip": "ym2612"
    },
    {
      "channel": 0,
      "note": 72,
      "start": 29.5879,
      "duration": 0.0179,
      "velocity": 115,
      "chip": "ym2612"
    },
    {
      "channel": 5,
      "note": 82,
      "start": 29.5891,
      "duration": 0.018,
      "velocity": 101,
      "chip": "ym2612"
    },
    {
      "channel": 4,
      "note": 85,
      "start": 29.5903,
      "duration": 0.018,
      "velocity": 101,
      "chip": "ym2612"
    },
    {
      "channel": 3,
      "note": 90,
      "start": 29.5915,
      "duration": 0.018,
      "velocity": 101,
      "chip": "ym2612"
    },
    {
      "channel": 2,
      "note": 54,
      "start": 29.5927,
      "duration": 0.0183,
      "velocity": 100,
      "chip": "ym2612"
    },
    {
      "channel": 1,
      "note": 66,
      "start": 29.5938,
      "duration": 0.0183,
      "velocity": 94,
      "chip": "ym2612"
    },
    {
      "channel": 0,
      "note": 36,
      "start": 29.6059,
      "duration": 0.0143,
      "velocity": 115,
      "chip": "ym2612"
    },
    {
      "channel": 5,
      "note": 82,
      "start": 29.6071,
      "duration": 0.0144,
      "velocity": 101,
      "chip": "ym2612"
    },
    {
      "channel": 4,
      "note": 85,
      "start": 29.6083,
      "duration": 0.0145,
      "velocity": 101,
      "chip": "ym2612"
    },
    {
      "channel": 3,
      "note": 90,
      "start": 29.6095,
      "duration": 0.0146,
      "velocity": 101,
      "chip": "ym2612"
    },
    {
      "channel": 2,
      "note": 66,
      "start": 29.6109,
      "duration": 0.0144,
      "velocity": 100,
      "chip": "ym2612"
    },
    {
      "channel": 1,
      "note": 66,
      "start": 29.6121,
      "duration": 0.0143,
      "velocity": 94,
      "chip": "ym2612"
    },
    {
      "channel": 0,
      "note": 36,
      "start": 29.6202,
      "duration": 0.0163,
      "velocity": 115,
      "chip": "ym2612"
    },
    {
      "channel": 5,
      "note": 82,
      "start": 29.6215,
      "duration": 0.0163,
      "velocity": 101,
      "chip": "ym2612"
    },
    {
      "channel": 4,
      "note": 85,
      "start": 29.6228,
      "duration": 0.0163,
      "velocity": 101,
      "chip": "ym2612"
    },
    {
      "channel": 3,
      "note": 90,
      "start": 29.6241,
      "duration": 0.0163,
      "velocity": 101,
      "chip": "ym2612"
    },
    {
      "channel": 2,
      "note": 66,
      "start": 29.6253,
      "duration": 0.0162,
      "velocity": 100,
      "chip": "ym2612"
    },
    {
      "channel": 1,
      "note": 66,
      "start": 29.6264,
      "duration": 0.0163,
      "velocity": 94,
      "chip": "ym2612"
    },
    {
      "channel": 0,
      "note": 37,
      "start": 29.6366,
      "duration": 0.0163,
      "velocity": 115,
      "chip": "ym2612"
    },
    {
      "channel": 5,
      "note": 82,
      "start": 29.6378,
      "duration": 0.0163,
      "velocity": 101,
      "chip": "ym2612"
    },
    {
      "channel": 4,
      "note": 85,
      "start": 29.6391,
      "duration": 0.0163,
      "velocity": 101,
      "chip": "ym2612"
    },
    {
      "channel": 3,
      "note": 90,
      "start": 29.6404,
      "duration": 0.0163,
      "velocity": 101,
      "chip": "ym2612"
    },
    {
      "channel": 2,
      "note": 66,
      "start": 29.6415,
      "duration": 0.0163,
      "velocity": 100,
      "chip": "ym2612"
    },
    {
      "channel": 1,
      "note": 66,
      "start": 29.6427,
      "duration": 0.0163,
      "velocity": 94,
      "chip": "ym2612"
    },
    {
      "channel": 0,
      "note": 37,
      "start": 29.6529,
      "duration": 0.016,
      "velocity": 115,
      "chip": "ym2612"
    },
    {
      "channel": 2,
      "note": 66,
      "start": 29.6578,
      "duration": 0.0161,
      "velocity": 100,
      "chip": "ym2612"
    },
    {
      "channel": 1,
      "note": 66,
      "start": 29.659,
      "duration": 0.016,
      "velocity": 94,
      "chip": "ym2612"
    },
    {
      "channel": 0,
      "note": 38,
      "start": 29.6689,
      "duration": 0.0161,
      "velocity": 115,
      "chip": "ym2612"
    },
    {
      "channel": 2,
      "note": 66,
      "start": 29.6739,
      "duration": 0.0161,
      "velocity": 100,
      "chip": "ym2612"
    },
    {
      "channel": 1,
      "note": 66,
      "start": 29.6751,
      "duration": 0.0161,
      "velocity": 94,
      "chip": "ym2612"
    },
    {
      "channel": 0,
      "note": 38,
      "start": 29.685,
      "duration": 0.0158,
      "velocity": 115,
      "chip": "ym2612"
    },
    {
      "channel": 2,
      "note": 66,
      "start": 29.69,
      "duration": 0.016,
      "velocity": 100,
      "chip": "ym2612"
    },
    {
      "channel": 1,
      "note": 66,
      "start": 29.6912,
      "duration": 0.0159,
      "velocity": 94,
      "chip": "ym2612"
    },
    {
      "channel": 0,
      "note": 39,
      "start": 29.7008,
      "duration": 0.0183,
      "velocity": 127,
      "chip": "ym2612"
    },
    {
      "channel": 2,
      "note": 66,
      "start": 29.706,
      "duration": 0.0191,
      "velocity": 100,
      "chip": "ym2612"
    },
    {
      "channel": 1,
      "note": 66,
      "start": 29.7071,
      "duration": 0.0192,
      "velocity": 94,
      "chip": "ym2612"
    },
    {
      "channel": 0,
      "note": 88,
      "start": 29.7192,
      "duration": 0.0137,
      "velocity": 127,
      "chip": "ym2612"
    },
    {
      "channel": 5,
      "note": 81,
      "start": 29.7207,
      "duration": 0.0137,
      "velocity": 101,
      "chip": "ym2612"
    },
    {
      "channel": 4,
      "note": 84,
      "start": 29.7221,
      "duration": 0.0138,
      "velocity": 101,
      "chip": "ym2612"
    },
    {
      "channel": 3,
      "note": 89,
      "start": 29.7236,
      "duration": 0.0136,
      "velocity": 101,
      "chip": "ym2612"
    },
    {
      "channel": 2,
      "note": 53,
      "start": 29.7251,
      "duration": 0.0133,
      "velocity": 100,
      "chip": "ym2612"
    },
    {
      "channel": 0,
      "note": 86,
      "start": 29.7329,
      "duration": 0.016,
      "velocity": 127,
      "chip": "ym2612"
    },
    {
      "channel": 5,
      "note": 81,
      "start": 29.7343,
      "duration": 0.0157,
      "velocity": 101,
      "chip": "ym2612"
    },
    {
      "channel": 4,
      "note": 84,
      "start": 29.7359,
      "duration": 0.0159,
      "velocity": 101,
      "chip": "ym2612"
    },
    {
      "channel": 3,
      "note": 89,
      "start": 29.7372,
      "duration": 0.0159,
      "velocity": 101,
      "chip": "ym2612"
    },
    {
      "channel": 2,
      "note": 53,
      "start": 29.7384,
      "duration": 0.0158,
      "velocity": 100,
      "chip": "ym2612"
    },
    {
      "channel": 0,
      "note": 85,
      "start": 29.7489,
      "duration": 0.0179,
      "velocity": 127,
      "chip": "ym2612"
    },
    {
      "channel": 5,
      "note": 81,
      "start": 29.75,
      "duration": 0.0185,
      "velocity": 101,
      "chip": "ym2612"
    },
    {
      "channel": 4,
      "note": 84,
      "start": 29.7518,
      "duration": 0.0181,
      "velocity": 101,
      "chip": "ym2612"
    },
    {
      "channel": 3,
      "note": 89,
      "start": 29.753,
      "duration": 0.0179,
      "velocity": 101,
      "chip": "ym2612"
    },
    {
      "channel": 2,
      "note": 53,
      "start": 29.7542,
      "duration": 0.018,
      "velocity": 100,
      "chip": "ym2612"
    },
    {
      "channel": 0,
      "note": 88,
      "start": 29.7668,
      "duration": 0.0143,
      "velocity": 127,
      "chip": "ym2612"
    },
    {
      "channel": 5,
      "note": 81,
      "start": 29.7685,
      "duration": 0.0138,
      "velocity": 101,
      "chip": "ym2612"
    },
    {
      "channel": 4,
      "note": 84,
      "start": 29.7698,
      "duration": 0.0137,
      "velocity": 101,
      "chip": "ym2612"
    },
    {
      "channel": 3,
      "note": 89,
      "start": 29.771,
      "duration": 0.0142,
      "velocity": 101,
      "chip": "ym2612"
    },
    {
      "channel": 2,
      "note": 53,
      "start": 29.7721,
      "duration": 0.0144,
      "velocity": 100,
      "chip": "ym2612"
    },
    {
      "channel": 0,
      "note": 86,
      "start": 29.7812,
      "duration": 0.016,
      "velocity": 127,
      "chip": "ym2612"
    },
    {
      "channel": 5,
      "note": 81,
      "start": 29.7824,
      "duration": 0.016,
      "velocity": 101,
      "chip": "ym2612"
    },
    {
      "channel": 4,
      "note": 84,
      "start": 29.7836,
      "duration": 0.016,
      "velocity": 101,
      "chip": "ym2612"
    },
    {
      "channel": 3,
      "note": 89,
      "start": 29.7852,
      "duration": 0.0157,
      "velocity": 101,
      "chip": "ym2612"
    },
    {
      "channel": 2,
      "note": 53,
      "start": 29.7865,
      "duration": 0.016,
      "velocity": 100,
      "chip": "ym2612"
    },
    {
      "channel": 0,
      "note": 85,
      "start": 29.7972,
      "duration": 0.0179,
      "velocity": 127,
      "chip": "ym2612"
    },
    {
      "channel": 5,
      "note": 81,
      "start": 29.7984,
      "duration": 0.018,
      "velocity": 101,
      "chip": "ym2612"
    },
    {
      "channel": 4,
      "note": 84,
      "start": 29.7996,
      "duration": 0.0185,
      "velocity": 101,
      "chip": "ym2612"
    },
    {
      "channel": 3,
      "note": 89,
      "start": 29.8009,
      "duration": 0.0184,
      "velocity": 101,
      "chip": "ym2612"
    },
    {
      "channel": 2,
      "note": 53,
      "start": 29.8025,
      "duration": 0.0179,
      "velocity": 100,
      "chip": "ym2612"
    },
    {
      "channel": 0,
      "note": 88,
      "start": 29.8152,
      "duration": 0.0142,
      "velocity": 127,
      "chip": "ym2612"
    },
    {
      "channel": 5,
      "note": 81,
      "start": 29.8164,
      "duration": 0.0143,
      "velocity": 101,
      "chip": "ym2612"
    },
    {
      "channel": 4,
      "note": 84,
      "start": 29.8181,
      "duration": 0.0137,
      "velocity": 101,
      "chip": "ym2612"
    },
    {
      "channel": 3,
      "note": 89,
      "start": 29.8193,
      "duration": 0.0137,
      "velocity": 101,
      "chip": "ym2612"
    },
    {
      "channel": 2,
      "note": 53,
      "start": 29.8205,
      "duration": 0.0142,
      "velocity": 100,
      "chip": "ym2612"
    },
    {
      "channel": 0,
      "note": 86,
      "start": 29.8294,
      "duration": 0.016,
      "velocity": 127,
      "chip": "ym2612"
    },
    {
      "channel": 5,
      "note": 81,
      "start": 29.8307,
      "duration": 0.016,
      "velocity": 101,
      "chip": "ym2612"
    },
    {
      "channel": 4,
      "note": 84,
      "start": 29.8319,
      "duration": 0.016,
      "velocity": 101,
      "chip": "ym2612"
    },
    {
      "channel": 3,
      "note": 89,
      "start": 29.833,
      "duration": 0.016,
      "velocity": 101,
      "chip": "ym2612"
    },
    {
      "channel": 2,
      "note": 53,
      "start": 29.8347,
      "duration": 0.0155,
      "velocity": 100,
      "chip": "ym2612"
    },
    {
      "channel": 0,
      "note": 85,
      "start": 29.8455,
      "duration": 0.0179,
      "velocity": 127,
      "chip": "ym2612"
    },
    {
      "channel": 5,
      "note": 81,
      "start": 29.8467,
      "duration": 0.018,
      "velocity": 101,
      "chip": "ym2612"
    },
    {
      "channel": 4,
      "note": 84,
      "start": 29.8479,
      "duration": 0.0179,
      "velocity": 101,
      "chip": "ym2612"
    },
    {
      "channel": 3,
      "note": 89,
      "start": 29.849,
      "duration": 0.018,
      "velocity": 101,
      "chip": "ym2612"
    },
    {
      "channel": 2,
      "note": 53,
      "start": 29.8502,
      "duration": 0.0186,
      "velocity": 100,
      "chip": "ym2612"
    },
    {
      "channel": 0,
      "note": 88,
      "start": 29.8635,
      "duration": 0.0143,
      "velocity": 127,
      "chip": "ym2612"
    },
    {
      "channel": 5,
      "note": 81,
      "start": 29.8647,
      "duration": 0.0143,
      "velocity": 101,
      "chip": "ym2612"
    },
    {
      "channel": 4,
      "note": 84,
      "start": 29.8658,
      "duration": 0.0143,
      "velocity": 101,
      "chip": "ym2612"
    },
    {
      "channel": 3,
      "note": 89,
      "start": 29.867,
      "duration": 0.0143,
      "velocity": 101,
      "chip": "ym2612"
    },
    {
      "channel": 2,
      "note": 53,
      "start": 29.8688,
      "duration": 0.0137,
      "velocity": 100,
      "chip": "ym2612"
    },
    {
      "channel": 0,
      "note": 86,
      "start": 29.8778,
      "duration": 0.016,
      "velocity": 127,
      "chip": "ym2612"
    },
    {
      "channel": 5,
      "note": 81,
      "start": 29.8789,
      "duration": 0.016,
      "velocity": 101,
      "chip": "ym2612"
    },
    {
      "channel": 4,
      "note": 84,
      "start": 29.8801,
      "duration": 0.016,
      "velocity": 101,
      "chip": "ym2612"
    },
    {
      "channel": 3,
      "note": 89,
      "start": 29.8813,
      "duration": 0.016,
      "velocity": 101,
      "chip": "ym2612"
    },
    {
      "channel": 2,
      "note": 53,
      "start": 29.8825,
      "duration": 0.016,
      "velocity": 100,
      "chip": "ym2612"
    },
    {
      "channel": 0,
      "note": 85,
      "start": 29.8938,
      "duration": 0.0161,
      "velocity": 127,
      "chip": "ym2612"
    },
    {
      "channel": 5,
      "note": 81,
      "start": 29.895,
      "duration": 0.0161,
      "velocity": 101,
      "chip": "ym2612"
    },
    {
      "channel": 4,
      "note": 84,
      "start": 29.8962,
      "duration": 0.0161,
      "velocity": 101,
      "chip": "ym2612"
    },
    {
      "channel": 3,
      "note": 89,
      "start": 29.8974,
      "duration": 0.0161,
      "velocity": 101,
      "chip": "ym2612"
    },
    {
      "channel": 2,
      "note": 53,
      "start": 29.8985,
      "duration": 0.0161,
      "velocity": 100,
      "chip": "ym2612"
    },
    {
      "channel": 0,
      "note": 83,
      "start": 29.9099,
      "duration": 0.0179,
      "velocity": 127,
      "chip": "ym2612"
    },
    {
      "channel": 5,
      "note": 81,
      "start": 29.9111,
      "duration": 0.018,
      "velocity": 101,
      "chip": "ym2612"
    },
    {
      "channel": 4,
      "note": 84,
      "start": 29.9123,
      "duration": 0.018,
      "velocity": 101,
      "chip": "ym2612"
    },
    {
      "channel": 3,
      "note": 89,
      "start": 29.9135,
      "duration": 0.0181,
      "velocity": 101,
      "chip": "ym2612"
    },
    {
      "channel": 2,
      "note": 53,
      "start": 29.9146,
      "duration": 0.0184,
      "velocity": 100,
      "chip": "ym2612"
    },
    {
      "channel": 0,
      "note": 84,
      "start": 29.9279,
      "duration": 0.0142,
      "velocity": 127,
      "chip": "ym2612"
    },
    {
      "channel": 5,
      "note": 81,
      "start": 29.9291,
      "duration": 0.0143,
      "velocity": 101,
      "chip": "ym2612"
    },
    {
      "channel": 4,
      "note": 84,
      "start": 29.9303,
      "duration": 0.0143,
      "velocity": 101,
      "chip": "ym2612"
    },
    {
      "channel": 3,
      "note": 89,
      "start": 29.9315,
      "duration": 0.0142,
      "velocity": 101,
      "chip": "ym2612"
    },
    {
      "channel": 2,
      "note": 65,
      "start": 29.9331,
      "duration": 0.0139,
      "velocity": 100,
      "chip": "ym2612"
    },
    {
      "channel": 0,
      "note": 82,
      "start": 29.9422,
      "duration": 0.016,
      "velocity": 127,
      "chip": "ym2612"
    },
    {
      "channel": 5,
      "note": 81,
      "start": 29.9434,
      "duration": 0.016,
      "velocity": 101,
      "chip": "ym2612"
    },
    {
      "channel": 4,
      "note": 84,
      "start": 29.9446,
      "duration": 0.016,
      "velocity": 101,
      "chip": "ym2612"
    },
    {
      "channel": 3,
      "note": 89,
      "start": 29.9458,
      "duration": 0.016,
      "velocity": 101,
      "chip": "ym2612"
    },
    {
      "channel": 2,
      "note": 65,
      "start": 29.947,
      "duration": 0.016,
      "velocity": 100,
      "chip": "ym2612"
    },
    {
      "channel": 0,
      "note": 81,
      "start": 29.9582,
      "duration": 0.0161,
      "velocity": 127,
      "chip": "ym2612"
    },
    {
      "channel": 5,
      "note": 81,
      "start": 29.9594,
      "duration": 0.0161,
      "velocity": 101,
      "chip": "ym2612"
    },
    {
      "channel": 4,
      "note": 84,
      "start": 29.9606,
      "duration": 0.0161,
      "velocity": 101,
      "chip": "ym2612"
    },
    {
      "channel": 3,
      "note": 89,
      "start": 29.9618,
      "duration": 0.0161,
      "velocity": 101,
      "chip": "ym2612"
    },
    {
      "channel": 2,
      "note": 65,
      "start": 29.963,
      "duration": 0.0161,
      "velocity": 100,
      "chip": "ym2612"
    },
    {
      "channel": 0,
      "note": 79,
      "start": 29.9743,
      "duration": 0.0162,
      "velocity": 127,
      "chip": "ym2612"
    },
    {
      "channel": 5,
      "note": 81,
      "start": 29.9755,
      "duration": 0.0162,
      "velocity": 101,
      "chip": "ym2612"
    },
    {
      "channel": 4,
      "note": 84,
      "start": 29.9767,
      "duration": 0.0161,
      "velocity": 101,
      "chip": "ym2612"
    },
    {
      "channel": 3,
      "note": 89,
      "start": 29.9779,
      "duration": 0.0161,
      "velocity": 101,
      "chip": "ym2612"
    },
    {
      "channel": 2,
      "note": 65,
      "start": 29.9791,
      "duration": 0.0161,
      "velocity": 100,
      "chip": "ym2612"
    },
    {
      "channel": 0,
      "note": 77,
      "start": 29.9905,
      "duration": 0.0161,
      "velocity": 127,
      "chip": "ym2612"
    },
    {
      "channel": 5,
      "note": 81,
      "start": 29.9917,
      "duration": 0.0161,
      "velocity": 101,
      "chip": "ym2612"
    },
    {
      "channel": 4,
      "note": 84,
      "start": 29.9929,
      "duration": 0.0161,
      "velocity": 101,
      "chip": "ym2612"
    },
    {
      "channel": 3,
      "note": 89,
      "start": 29.9941,
      "duration": 0.0161,
      "velocity": 101,
      "chip": "ym2612"
    },
    {
      "channel": 2,
      "note": 65,
      "start": 29.9952,
      "duration": 0.0161,
      "velocity": 100,
      "chip": "ym2612"
    },
    {
      "channel": 0,
      "note": 76,
      "start": 30.0065,
      "duration": 0.0179,
      "velocity": 127,
      "chip": "ym2612"
    },
    {
      "channel": 5,
      "note": 81,
      "start": 30.0078,
      "duration": 0.018,
      "velocity": 101,
      "chip": "ym2612"
    },
    {
      "channel": 4,
      "note": 84,
      "start": 30.009,
      "duration": 0.018,
      "velocity": 101,
      "chip": "ym2612"
    },
    {
      "channel": 3,
      "note": 89,
      "start": 30.0102,
      "duration": 0.018,
      "velocity": 101,
      "chip": "ym2612"
    },
    {
      "channel": 2,
      "note": 65,
      "start": 30.0113,
      "duration": 0.018,
      "velocity": 100,
      "chip": "ym2612"
    },
    {
      "channel": 0,
      "note": 78,
      "start": 30.0245,
      "duration": 0.0143,
      "velocity": 127,
      "chip": "ym2612"
    },
    {
      "channel": 5,
      "note": 81,
      "start": 30.0257,
      "duration": 0.0143,
      "velocity": 101,
      "chip": "ym2612"
    },
    {
      "channel": 4,
      "note": 84,
      "start": 30.027,
      "duration": 0.0144,
      "velocity": 101,
      "chip": "ym2612"
    },
    {
      "channel": 3,
      "note": 89,
      "start": 30.0282,
      "duration": 0.0144,
      "velocity": 101,
      "chip": "ym2612"
    },
    {
      "channel": 2,
      "note": 65,
      "start": 30.0293,
      "duration": 0.0145,
      "velocity": 100,
      "chip": "ym2612"
    },
    {
      "channel": 0,
      "note": 76,
      "start": 30.0388,
      "duration": 0.016,
      "velocity": 127,
      "chip": "ym2612"
    },
    {
      "channel": 5,
      "note": 81,
      "start": 30.0401,
      "duration": 0.016,
      "velocity": 101,
      "chip": "ym2612"
    },
    {
      "channel": 4,
      "note": 84,
      "start": 30.0413,
      "duration": 0.016,
      "velocity": 101,
      "chip": "ym2612"
    },
    {
      "channel": 3,
      "note": 89,
      "start": 30.0426,
      "duration": 0.016,
      "velocity": 101,
      "chip": "ym2612"
    },
    {
      "channel": 2,
      "note": 65,
      "start": 30.0438,
      "duration": 0.016,
      "velocity": 100,
      "chip": "ym2612"
    },
    {
      "channel": 0,
      "note": 75,
      "start": 30.0548,
      "duration": 0.0161,
      "velocity": 127,
      "chip": "ym2612"
    },
    {
      "channel": 5,
      "note": 81,
      "start": 30.0561,
      "duration": 0.0161,
      "velocity": 101,
      "chip": "ym2612"
    },
    {
      "channel": 4,
      "note": 84,
      "start": 30.0574,
      "duration": 0.0161,
      "velocity": 101,
      "chip": "ym2612"
    },
    {
      "channel": 3,
      "note": 89,
      "start": 30.0586,
      "duration": 0.0161,
      "velocity": 101,
      "chip": "ym2612"
    },
    {
      "channel": 2,
      "note": 65,
      "start": 30.0598,
      "duration": 0.0161,
      "velocity": 100,
      "chip": "ym2612"
    },
    {
      "channel": 0,
      "note": 73,
      "start": 30.0709,
      "duration": 0.0162,
      "velocity": 127,
      "chip": "ym2612"
    },
    {
      "channel": 2,
      "note": 65,
      "start": 30.0759,
      "duration": 0.016,
      "velocity": 100,
      "chip": "ym2612"
    },
    {
      "channel": 0,
      "note": 71,
      "start": 30.0871,
      "duration": 0.0163,
      "velocity": 127,
      "chip": "ym2612"
    },
    {
      "channel": 2,
      "note": 65,
      "start": 30.092,
      "duration": 0.0163,
      "velocity": 100,
      "chip": "ym2612"
    },
    {
      "channel": 0,
      "note": 70,
      "start": 30.1034,
      "duration": 0.0163,
      "velocity": 127,
      "chip": "ym2612"
    },
    {
      "channel": 2,
      "note": 65,
      "start": 30.1083,
      "duration": 0.0161,
      "velocity": 100,
      "chip": "ym2612"
    },
    {
      "channel": 0,
      "note": 68,
      "start": 30.1197,
      "duration": 0.018,
      "velocity": 115,
      "chip": "ym2612"
    },
    {
      "channel": 2,
      "note": 65,
      "start": 30.1245,
      "duration": 0.0188,
      "velocity": 100,
      "chip": "ym2612"
    },
    {
      "channel": 0,
      "note": 36,
      "start": 30.1378,
      "duration": 0.0143,
      "velocity": 115,
      "chip": "ym2612"
    },
    {
      "channel": 2,
      "note": 52,
      "start": 30.1432,
      "duration": 0.0137,
      "velocity": 100,
      "chip": "ym2612"
    },
    {
      "channel": 0,
      "note": 36,
      "start": 30.1521,
      "duration": 0.016,
      "velocity": 115,
      "chip": "ym2612"
    },
    {
      "channel": 2,
      "note": 52,
      "start": 30.1569,
      "duration": 0.016,
      "velocity": 100,
      "chip": "ym2612"
    },
    {
      "channel": 0,
      "note": 37,
      "start": 30.168,
      "duration": 0.0156,
      "velocity": 115,
      "chip": "ym2612"
    },
    {
      "channel": 2,
      "note": 52,
      "start": 30.1729,
      "duration": 0.0161,
      "velocity": 100,
      "chip": "ym2612"
    },
    {
      "channel": 0,
      "note": 37,
      "start": 30.1836,
      "duration": 0.0161,
      "velocity": 115,
      "chip": "ym2612"
    },
    {
      "channel": 2,
      "note": 52,
      "start": 30.189,
      "duration": 0.0161,
      "velocity": 100,
      "chip": "ym2612"
    },
    {
      "channel": 0,
      "note": 38,
      "start": 30.1997,
      "duration": 0.0161,
      "velocity": 115,
      "chip": "ym2612"
    },
    {
      "channel": 2,
      "note": 52,
      "start": 30.2051,
      "duration": 0.0161,
      "velocity": 100,
      "chip": "ym2612"
    },
    {
      "channel": 0,
      "note": 38,
      "start": 30.2158,
      "duration": 0.0161,
      "velocity": 115,
      "chip": "ym2612"
    },
    {
      "channel": 2,
      "note": 52,
      "start": 30.2212,
      "duration": 0.0163,
      "velocity": 100,
      "chip": "ym2612"
    },
    {
      "channel": 0,
      "note": 39,
      "start": 30.2319,
      "duration": 0.0161,
      "velocity": 115,
      "chip": "ym2612"
    },
    {
      "channel": 2,
      "note": 52,
      "start": 30.2375,
      "duration": 0.0161,
      "velocity": 100,
      "chip": "ym2612"
    },
    {
      "channel": 0,
      "note": 39,
      "start": 30.248,
      "duration": 0.0161,
      "velocity": 115,
      "chip": "ym2612"
    },
    {
      "channel": 2,
      "note": 52,
      "start": 30.2536,
      "duration": 0.0162,
      "velocity": 100,
      "chip": "ym2612"
    },
    {
      "channel": 0,
      "note": 40,
      "start": 30.2641,
      "duration": 0.0162,
      "velocity": 115,
      "chip": "ym2612"
    },
    {
      "channel": 2,
      "note": 52,
      "start": 30.2698,
      "duration": 0.0161,
      "velocity": 100,
      "chip": "ym2612"
    },
    {
      "channel": 0,
      "note": 40,
      "start": 30.2803,
      "duration": 0.0161,
      "velocity": 115,
      "chip": "ym2612"
    },
    {
      "channel": 2,
      "note": 52,
      "start": 30.2859,
      "duration": 0.016,
      "velocity": 100,
      "chip": "ym2612"
    },
    {
      "channel": 0,
      "note": 40,
      "start": 30.2963,
      "duration": 0.0161,
      "velocity": 115,
      "chip": "ym2612"
    },
    {
      "channel": 2,
      "note": 52,
      "start": 30.3019,
      "duration": 0.0162,
      "velocity": 100,
      "chip": "ym2612"
    },
    {
      "channel": 0,
      "note": 41,
      "start": 30.3124,
      "duration": 0.0161,
      "velocity": 115,
      "chip": "ym2612"
    },
    {
      "channel": 2,
      "note": 52,
      "start": 30.318,
      "duration": 0.0155,
      "velocity": 100,
      "chip": "ym2612"
    },
    {
      "channel": 0,
      "note": 41,
      "start": 30.3285,
      "duration": 0.0179,
      "velocity": 124,
      "chip": "ym2612"
    },
    {
      "channel": 2,
      "note": 52,
      "start": 30.3335,
      "duration": 0.0207,
      "velocity": 100,
      "chip": "ym2612"
    },
    {
      "channel": 0,
      "note": 84,
      "start": 30.3465,
      "duration": 0.0158,
      "velocity": 124,
      "chip": "ym2612"
    },
    {
      "channel": 3,
      "note": 76,
      "start": 30.3528,
      "duration": 0.0132,
      "velocity": 100,
      "chip": "ym2612"
    },
    {
      "channel": 2,
      "note": 64,
      "start": 30.3543,
      "duration": 0.0132,
      "velocity": 100,
      "chip": "ym2612"
    },
    {
      "channel": 1,
      "note": 80,
      "start": 30.3572,
      "duration": 0.0119,
      "velocity": 100,
      "chip": "ym2612"
    },
    {
      "channel": 0,
      "note": 82,
      "start": 30.3623,
      "duration": 0.0146,
      "velocity": 124,
      "chip": "ym2612"
    },
    {
      "channel": 3,
      "note": 76,
      "start": 30.366,
      "duration": 0.0144,
      "velocity": 100,
      "chip": "ym2612"
    },
    {
      "channel": 2,
      "note": 64,
      "start": 30.3675,
      "duration": 0.0141,
      "velocity": 100,
      "chip": "ym2612"
    },
    {
      "channel": 1,
      "note": 80,
      "start": 30.3691,
      "duration": 0.0137,
      "velocity": 100,
      "chip": "ym2612"
    },
    {
      "channel": 0,
      "note": 80,
      "start": 30.3768,
      "duration": 0.0161,
      "velocity": 124,
      "chip": "ym2612"
    },
    {
      "channel": 3,
      "note": 76,
      "start": 30.3804,
      "duration": 0.0161,
      "velocity": 100,
      "chip": "ym2612"
    },
    {
      "channel": 2,
      "note": 64,
      "start": 30.3815,
      "duration": 0.0161,
      "velocity": 100,
      "chip": "ym2612"
    },
    {
      "channel": 1,
      "note": 80,
      "start": 30.3827,
      "duration": 0.0161,
      "velocity": 100,
      "chip": "ym2612"
    },
    {
      "channel": 0,
      "note": 77,
      "start": 30.3929,
      "duration": 0.0161,
      "velocity": 124,
      "chip": "ym2612"
    },
    {
      "channel": 3,
      "note": 76,
      "start": 30.3965,
      "duration": 0.0161,
      "velocity": 100,
      "chip": "ym2612"
    },
    {
      "channel": 2,
      "note": 64,
      "start": 30.3976,
      "duration": 0.0161,
      "velocity": 100,
      "chip": "ym2612"
    },
    {
      "channel": 1,
      "note": 80,
      "start": 30.3988,
      "duration": 0.0161,
      "velocity": 100,
      "chip": "ym2612"
    },
    {
      "channel": 0,
      "note": 75,
      "start": 30.4091,
      "duration": 0.0161,
      "velocity": 124,
      "chip": "ym2612"
    },
    {
      "channel": 3,
      "note": 76,
      "start": 30.4126,
      "duration": 0.0161,
      "velocity": 100,
      "chip": "ym2612"
    },
    {
      "channel": 2,
      "note": 64,
      "start": 30.4137,
      "duration": 0.0162,
      "velocity": 100,
      "chip": "ym2612"
    },
    {
      "channel": 1,
      "note": 80,
      "start": 30.4149,
      "duration": 0.0161,
      "velocity": 100,
      "chip": "ym2612"
    },
    {
      "channel": 0,
      "note": 72,
      "start": 30.4252,
      "duration": 0.0161,
      "velocity": 124,
      "chip": "ym2612"
    },
    {
      "channel": 3,
      "note": 76,
      "start": 30.4287,
      "duration": 0.0161,
      "velocity": 100,
      "chip": "ym2612"
    },
    {
      "channel": 2,
      "note": 64,
      "start": 30.4299,
      "duration": 0.0161,
      "velocity": 100,
      "chip": "ym2612"
    },
    {
      "channel": 1,
      "note": 80,
      "start": 30.431,
      "duration": 0.0162,
      "velocity": 100,
      "chip": "ym2612"
    },
    {
      "channel": 0,
      "note": 70,
      "start": 30.4413,
      "duration": 0.0161,
      "velocity": 124,
      "chip": "ym2612"
    },
    {
      "channel": 3,
      "note": 76,
      "start": 30.4448,
      "duration": 0.0161,
      "velocity": 100,
      "chip": "ym2612"
    },
    {
      "channel": 2,
      "note": 64,
      "start": 30.446,
      "duration": 0.0161,
      "velocity": 100,
      "chip": "ym2612"
    },
    {
      "channel": 1,
      "note": 80,
      "start": 30.4472,
      "duration": 0.0161,
      "velocity": 100,
      "chip": "ym2612"
    },
    {
      "channel": 0,
      "note": 68,
      "start": 30.4574,
      "duration": 0.0161,
      "velocity": 124,
      "chip": "ym2612"
    },
    {
      "channel": 2,
      "note": 64,
      "start": 30.4621,
      "duration": 0.0161,
      "velocity": 100,
      "chip": "ym2612"
    },
    {
      "channel": 0,
      "note": 65,
      "start": 30.4735,
      "duration": 0.0161,
      "velocity": 124,
      "chip": "ym2612"
    },
    {
      "channel": 2,
      "note": 64,
      "start": 30.4782,
      "duration": 0.0161,
      "velocity": 100,
      "chip": "ym2612"
    },
    {
      "channel": 0,
      "note": 63,
      "start": 30.4895,
      "duration": 0.0153,
      "velocity": 1,
      "chip": "ym2612"
    },
    {
      "channel": 2,
      "note": 64,
      "start": 30.4943,
      "duration": 0.0152,
      "velocity": 100,
      "chip": "ym2612"
    },
    {
      "channel": 2,
      "note": 64,
      "start": 30.5095,
      "duration": 0.0153,
      "velocity": 100,
      "chip": "ym2612"
    },
    {
      "channel": 2,
      "note": 64,
      "start": 30.5248,
      "duration": 0.0161,
      "velocity": 100,
      "chip": "ym2612"
    },
    {
      "channel": 2,
      "note": 64,
      "start": 30.5409,
      "duration": 0.0203,
      "velocity": 100,
      "chip": "ym2612"
    },
    {
      "channel": 0,
      "note": 36,
      "start": 30.5558,
      "duration": 0.0144,
      "velocity": 115,
      "chip": "ym2612"
    },
    {
      "channel": 3,
      "note": 76,
      "start": 30.5597,
      "duration": 0.0141,
      "velocity": 100,
      "chip": "ym2612"
    },
    {
      "channel": 2,
      "note": 52,
      "start": 30.5612,
      "duration": 0.0138,
      "velocity": 100,
      "chip": "ym2612"
    },
    {
      "channel": 1,
      "note": 80,
      "start": 30.5627,
      "duration": 0.0136,
      "velocity": 100,
      "chip": "ym2612"
    },
    {
      "channel": 0,
      "note": 36,
      "start": 30.5702,
      "duration": 0.0163,
      "velocity": 115,
      "chip": "ym2612"
    },
    {
      "channel": 3,
      "note": 76,
      "start": 30.5738,
      "duration": 0.0163,
      "velocity": 100,
      "chip": "ym2612"
    },
    {
      "channel": 2,
      "note": 52,
      "start": 30.5751,
      "duration": 0.0162,
      "velocity": 100,
      "chip": "ym2612"
    },
    {
      "channel": 1,
      "note": 80,
      "start": 30.5763,
      "duration": 0.0161,
      "velocity": 100,
      "chip": "ym2612"
    },
    {
      "channel": 0,
      "note": 37,
      "start": 30.5866,
      "duration": 0.0163,
      "velocity": 115,
      "chip": "ym2612"
    },
    {
      "channel": 3,
      "note": 76,
      "start": 30.5901,
      "duration": 0.0163,
      "velocity": 100,
      "chip": "ym2612"
    },
    {
      "channel": 2,
      "note": 52,
      "start": 30.5913,
      "duration": 0.0163,
      "velocity": 100,
      "chip": "ym2612"
    },
    {
      "channel": 1,
      "note": 80,
      "start": 30.5925,
      "duration": 0.0163,
      "velocity": 100,
      "chip": "ym2612"
    },
    {
      "channel": 0,
      "note": 37,
      "start": 30.6029,
      "duration": 0.0161,
      "velocity": 115,
      "chip": "ym2612"
    },
    {
      "channel": 3,
      "note": 76,
      "start": 30.6065,
      "duration": 0.016,
      "velocity": 100,
      "chip": "ym2612"
    },
    {
      "channel": 2,
      "note": 52,
      "start": 30.6076,
      "duration": 0.016,
      "velocity": 100,
      "chip": "ym2612"
    },
    {
      "channel": 1,
      "note": 80,
      "start": 30.6088,
      "duration": 0.016,
      "velocity": 100,
      "chip": "ym2612"
    },
    {
      "channel": 0,
      "note": 38,
      "start": 30.6189,
      "duration": 0.016,
      "velocity": 115,
      "chip": "ym2612"
    },
    {
      "channel": 3,
      "note": 76,
      "start": 30.6225,
      "duration": 0.0161,
      "velocity": 100,
      "chip": "ym2612"
    },
    {
      "channel": 2,
      "note": 52,
      "start": 30.6237,
      "duration": 0.0161,
      "velocity": 100,
      "chip": "ym2612"
    },
    {
      "channel": 1,
      "note": 80,
      "start": 30.6249,
      "duration": 0.0161,
      "velocity": 100,
      "chip": "ym2612"
    },
    {
      "channel": 0,
      "note": 38,
      "start": 30.635,
      "duration": 0.0158,
      "velocity": 115,
      "chip": "ym2612"
    },
    {
      "channel": 3,
      "note": 76,
      "start": 30.6386,
      "duration": 0.0161,
      "velocity": 100,
      "chip": "ym2612"
    },
    {
      "channel": 2,
      "note": 52,
      "start": 30.6398,
      "duration": 0.0161,
      "velocity": 100,
      "chip": "ym2612"
    },
    {
      "channel": 1,
      "note": 80,
      "start": 30.641,
      "duration": 0.0161,
      "velocity": 100,
      "chip": "ym2612"
    },
    {
      "channel": 0,
      "note": 39,
      "start": 30.6507,
      "duration": 0.0159,
      "velocity": 115,
      "chip": "ym2612"
    },
    {
      "channel": 3,
      "note": 76,
      "start": 30.6547,
      "duration": 0.0195,
      "velocity": 100,
      "chip": "ym2612"
    },
    {
      "channel": 2,
      "note": 52,
      "start": 30.6558,
      "duration": 0.0195,
      "velocity": 100,
      "chip": "ym2612"
    },
    {
      "channel": 1,
      "note": 80,
      "start": 30.6571,
      "duration": 0.0195,
      "velocity": 100,
      "chip": "ym2612"
    },
    {
      "channel": 0,
      "note": 39,
      "start": 30.6666,
      "duration": 0.0161,
      "velocity": 115,
      "chip": "ym2612"
    },
    {
      "channel": 5,
      "note": 76,
      "start": 30.6702,
      "duration": 0.014,
      "velocity": 100,
      "chip": "ym2612"
    },
    {
      "channel": 4,
      "note": 80,
      "start": 30.673,
      "duration": 0.0129,
      "velocity": 100,
      "chip": "ym2612"
    },
    {
      "channel": 2,
      "note": 52,
      "start": 30.6754,
      "duration": 0.0128,
      "velocity": 100,
      "chip": "ym2612"
    },
    {
      "channel": 0,
      "note": 40,
      "start": 30.6827,
      "duration": 0.0161,
      "velocity": 115,
      "chip": "ym2612"
    },
    {
      "channel": 5,
      "note": 76,
      "start": 30.6842,
      "duration": 0.0158,
      "velocity": 100,
      "chip": "ym2612"
    },
    {
      "channel": 4,
      "note": 80,
      "start": 30.6859,
      "duration": 0.0159,
      "velocity": 100,
      "chip": "ym2612"
    },
    {
      "channel": 2,
      "note": 52,
      "start": 30.6882,
      "duration": 0.016,
      "velocity": 100,
      "chip": "ym2612"
    },
    {
      "channel": 0,
      "note": 40,
      "start": 30.6988,
      "duration": 0.0161,
      "velocity": 115,
      "chip": "ym2612"
    },
    {
      "channel": 5,
      "note": 76,
      "start": 30.7,
      "duration": 0.0161,
      "velocity": 100,
      "chip": "ym2612"
    },
    {
      "channel": 4,
      "note": 80,
      "start": 30.7018,
      "duration": 0.0158,
      "velocity": 100,
      "chip": "ym2612"
    },
    {
      "channel": 2,
      "note": 52,
      "start": 30.7042,
      "duration": 0.0161,
      "velocity": 100,
      "chip": "ym2612"
    },
    {
      "channel": 0,
      "note": 40,
      "start": 30.7149,
      "duration": 0.0161,
      "velocity": 115,
      "chip": "ym2612"
    },
    {
      "channel": 5,
      "note": 76,
      "start": 30.7161,
      "duration": 0.0161,
      "velocity": 100,
      "chip": "ym2612"
    },
    {
      "channel": 4,
      "note": 80,
      "start": 30.7176,
      "duration": 0.0159,
      "velocity": 100,
      "chip": "ym2612"
    },
    {
      "channel": 2,
      "note": 52,
      "start": 30.7203,
      "duration": 0.0161,
      "velocity": 100,
      "chip": "ym2612"
    },
    {
      "channel": 0,
      "note": 41,
      "start": 30.7311,
      "duration": 0.0161,
      "velocity": 115,
      "chip": "ym2612"
    },
    {
      "channel": 5,
      "note": 76,
      "start": 30.7322,
      "duration": 0.0161,
      "velocity": 100,
      "chip": "ym2612"
    },
    {
      "channel": 4,
      "note": 80,
      "start": 30.7334,
      "duration": 0.0161,
      "velocity": 100,
      "chip": "ym2612"
    },
    {
      "channel": 2,
      "note": 52,
      "start": 30.7364,
      "duration": 0.0161,
      "velocity": 100,
      "chip": "ym2612"
    },
    {
      "channel": 0,
      "note": 41,
      "start": 30.7472,
      "duration": 0.0161,
      "velocity": 115,
      "chip": "ym2612"
    },
    {
      "channel": 5,
      "note": 76,
      "start": 30.7483,
      "duration": 0.0162,
      "velocity": 100,
      "chip": "ym2612"
    },
    {
      "channel": 4,
      "note": 80,
      "start": 30.7495,
      "duration": 0.0161,
      "velocity": 100,
      "chip": "ym2612"
    },
    {
      "channel": 2,
      "note": 52,
      "start": 30.7525,
      "duration": 0.0167,
      "velocity": 100,
      "chip": "ym2612"
    },
    {
      "channel": 0,
      "note": 42,
      "start": 30.7633,
      "duration": 0.0161,
      "velocity": 115,
      "chip": "ym2612"
    },
    {
      "channel": 5,
      "note": 76,
      "start": 30.7645,
      "duration": 0.0161,
      "velocity": 100,
      "chip": "ym2612"
    },
    {
      "channel": 4,
      "note": 80,
      "start": 30.7656,
      "duration": 0.0162,
      "velocity": 100,
      "chip": "ym2612"
    },
    {
      "channel": 3,
      "note": 71,
      "start": 30.7673,
      "duration": 0.0156,
      "velocity": 100,
      "chip": "ym2612"
    },
    {
      "channel": 2,
      "note": 64,
      "start": 30.7693,
      "duration": 0.0155,
      "velocity": 100,
      "chip": "ym2612"
    },
    {
      "channel": 1,
      "note": 76,
      "start": 30.7708,
      "duration": 0.0153,
      "velocity": 100,
      "chip": "ym2612"
    },
    {
      "channel": 0,
      "note": 42,
      "start": 30.7794,
      "duration": 0.0161,
      "velocity": 115,
      "chip": "ym2612"
    },
    {
      "channel": 3,
      "note": 71,
      "start": 30.783,
      "duration": 0.016,
      "velocity": 100,
      "chip": "ym2612"
    },
    {
      "channel": 2,
      "note": 64,
      "start": 30.7848,
      "duration": 0.0154,
      "velocity": 100,
      "chip": "ym2612"
    },
    {
      "channel": 1,
      "note": 76,
      "start": 30.7861,
      "duration": 0.0158,
      "velocity": 100,
      "chip": "ym2612"
    },
    {
      "channel": 0,
      "note": 43,
      "start": 30.7955,
      "duration": 0.0161,
      "velocity": 115,
      "chip": "ym2612"
    },
    {
      "channel": 3,
      "note": 71,
      "start": 30.799,
      "duration": 0.0161,
      "velocity": 100,
      "chip": "ym2612"
    },
    {
      "channel": 2,
      "note": 64,
      "start": 30.8002,
      "duration": 0.0161,
      "velocity": 100,
      "chip": "ym2612"
    },
    {
      "channel": 1,
      "note": 76,
      "start": 30.8019,
      "duration": 0.0158,
      "velocity": 100,
      "chip": "ym2612"
    },
    {
      "channel": 0,
      "note": 43,
      "start": 30.8116,
      "duration": 0.0161,
      "velocity": 115,
      "chip": "ym2612"
    },
    {
      "channel": 3,
      "note": 71,
      "start": 30.8151,
      "duration": 0.0161,
      "velocity": 100,
      "chip": "ym2612"
    },
    {
      "channel": 2,
      "note": 64,
      "start": 30.8163,
      "duration": 0.0161,
      "velocity": 100,
      "chip": "ym2612"
    },
    {
      "channel": 1,
      "note": 76,
      "start": 30.8177,
      "duration": 0.0159,
      "velocity": 100,
      "chip": "ym2612"
    },
    {
      "channel": 0,
      "note": 44,
      "start": 30.8277,
      "duration": 0.0161,
      "velocity": 115,
      "chip": "ym2612"
    },
    {
      "channel": 3,
      "note": 71,
      "start": 30.8312,
      "duration": 0.0161,
      "velocity": 100,
      "chip": "ym2612"
    },
    {
      "channel": 2,
      "note": 64,
      "start": 30.8324,
      "duration": 0.0161,
      "velocity": 100,
      "chip": "ym2612"
    },
    {
      "channel": 1,
      "note": 76,
      "start": 30.8336,
      "duration": 0.0161,
      "velocity": 100,
      "chip": "ym2612"
    },
    {
      "channel": 0,
      "note": 44,
      "start": 30.8437,
      "duration": 0.018,
      "velocity": 115,
      "chip": "ym2612"
    },
    {
      "channel": 3,
      "note": 71,
      "start": 30.8473,
      "duration": 0.0179,
      "velocity": 100,
      "chip": "ym2612"
    },
    {
      "channel": 2,
      "note": 64,
      "start": 30.8485,
      "duration": 0.0179,
      "velocity": 100,
      "chip": "ym2612"
    },
    {
      "channel": 1,
      "note": 76,
      "start": 30.8497,
      "duration": 0.0185,
      "velocity": 100,
      "chip": "ym2612"
    },
    {
      "channel": 0,
      "note": 36,
      "start": 30.8617,
      "duration": 0.0143,
      "velocity": 115,
      "chip": "ym2612"
    },
    {
      "channel": 3,
      "note": 71,
      "start": 30.8653,
      "duration": 0.0149,
      "velocity": 100,
      "chip": "ym2612"
    },
    {
      "channel": 2,
      "note": 64,
      "start": 30.8664,
      "duration": 0.015,
      "velocity": 100,
      "chip": "ym2612"
    },
    {
      "channel": 1,
      "note": 76,
      "start": 30.8682,
      "duration": 0.0144,
      "velocity": 100,
      "chip": "ym2612"
    },
    {
      "channel": 0,
      "note": 36,
      "start": 30.8761,
      "duration": 0.016,
      "velocity": 115,
      "chip": "ym2612"
    },
    {
      "channel": 5,
      "note": 76,
      "start": 30.8775,
      "duration": 0.0158,
      "velocity": 100,
      "chip": "ym2612"
    },
    {
      "channel": 4,
      "note": 80,
      "start": 30.879,
      "duration": 0.0156,
      "velocity": 100,
      "chip": "ym2612"
    },
    {
      "channel": 2,
      "note": 64,
      "start": 30.8814,
      "duration": 0.0156,
      "velocity": 100,
      "chip": "ym2612"
    },
    {
      "channel": 0,
      "note": 37,
      "start": 30.8921,
      "duration": 0.0161,
      "velocity": 115,
      "chip": "ym2612"
    },
    {
      "channel": 5,
      "note": 76,
      "start": 30.8933,
      "duration": 0.016,
      "velocity": 100,
      "chip": "ym2612"
    },
    {
      "channel": 4,
      "note": 80,
      "start": 30.8946,
      "duration": 0.016,
      "velocity": 100,
      "chip": "ym2612"
    },
    {
      "channel": 2,
      "note": 64,
      "start": 30.897,
      "duration": 0.016,
      "velocity": 100,
      "chip": "ym2612"
    },
    {
      "channel": 0,
      "note": 37,
      "start": 30.9082,
      "duration": 0.0161,
      "velocity": 115,
      "chip": "ym2612"
    },
    {
      "channel": 5,
      "note": 76,
      "start": 30.9093,
      "duration": 0.0161,
      "velocity": 100,
      "chip": "ym2612"
    },
    {
      "channel": 4,
      "note": 80,
      "start": 30.9105,
      "duration": 0.0161,
      "velocity": 100,
      "chip": "ym2612"
    },
    {
      "channel": 2,
      "note": 64,
      "start": 30.913,
      "duration": 0.016,
      "velocity": 100,
      "chip": "ym2612"
    },
    {
      "channel": 0,
      "note": 38,
      "start": 30.9243,
      "duration": 0.0161,
      "velocity": 115,
      "chip": "ym2612"
    },
    {
      "channel": 5,
      "note": 76,
      "start": 30.9255,
      "duration": 0.0161,
      "velocity": 100,
      "chip": "ym2612"
    },
    {
      "channel": 4,
      "note": 80,
      "start": 30.9266,
      "duration": 0.0161,
      "velocity": 100,
      "chip": "ym2612"
    },
    {
      "channel": 2,
      "note": 64,
      "start": 30.929,
      "duration": 0.0161,
      "velocity": 100,
      "chip": "ym2612"
    },
    {
      "channel": 0,
      "note": 38,
      "start": 30.9404,
      "duration": 0.0161,
      "velocity": 115,
      "chip": "ym2612"
    },
    {
      "channel": 5,
      "note": 76,
      "start": 30.9416,
      "duration": 0.0161,
      "velocity": 100,
      "chip": "ym2612"
    },
    {
      "channel": 4,
      "note": 80,
      "start": 30.9428,
      "duration": 0.0161,
      "velocity": 100,
      "chip": "ym2612"
    },
    {
      "channel": 2,
      "note": 64,
      "start": 30.9451,
      "duration": 0.0161,
      "velocity": 100,
      "chip": "ym2612"
    },
    {
      "channel": 0,
      "note": 39,
      "start": 30.9565,
      "duration": 0.0161,
      "velocity": 115,
      "chip": "ym2612"
    },
    {
      "channel": 5,
      "note": 76,
      "start": 30.9577,
      "duration": 0.0161,
      "velocity": 100,
      "chip": "ym2612"
    },
    {
      "channel": 4,
      "note": 80,
      "start": 30.9589,
      "duration": 0.0161,
      "velocity": 100,
      "chip": "ym2612"
    },
    {
      "channel": 2,
      "note": 64,
      "start": 30.9612,
      "duration": 0.0167,
      "velocity": 100,
      "chip": "ym2612"
    },
    {
      "channel": 0,
      "note": 39,
      "start": 30.9726,
      "duration": 0.0161,
      "velocity": 115,
      "chip": "ym2612"
    },
    {
      "channel": 5,
      "note": 76,
      "start": 30.9738,
      "duration": 0.0161,
      "velocity": 100,
      "chip": "ym2612"
    },
    {
      "channel": 4,
      "note": 80,
      "start": 30.975,
      "duration": 0.0161,
      "velocity": 100,
      "chip": "ym2612"
    },
    {
      "channel": 3,
      "note": 76,
      "start": 30.9764,
      "duration": 0.0159,
      "velocity": 100,
      "chip": "ym2612"
    },
    {
      "channel": 2,
      "note": 52,
      "start": 30.978,
      "duration": 0.0156,
      "velocity": 100,
      "chip": "ym2612"
    },
    {
      "channel": 1,
      "note": 80,
      "start": 30.9795,
      "duration": 0.0153,
      "velocity": 100,
      "chip": "ym2612"
    },
    {
      "channel": 0,
      "note": 40,
      "start": 30.9887,
      "duration": 0.0162,
      "velocity": 115,
      "chip": "ym2612"
    },
    {
      "channel": 3,
      "note": 76,
      "start": 30.9924,
      "duration": 0.016,
      "velocity": 100,
      "chip": "ym2612"
    },
    {
      "channel": 2,
      "note": 52,
      "start": 30.9936,
      "duration": 0.0159,
      "velocity": 100,
      "chip": "ym2612"
    },
    {
      "channel": 1,
      "note": 80,
      "start": 30.9948,
      "duration": 0.0159,
      "velocity": 100,
      "chip": "ym2612"
    },
    {
      "channel": 0,
      "note": 40,
      "start": 31.0048,
      "duration": 0.0161,
      "velocity": 115,
      "chip": "ym2612"
    },
    {
      "channel": 3,
      "note": 76,
      "start": 31.0083,
      "duration": 0.0161,
      "velocity": 100,
      "chip": "ym2612"
    },
    {
      "channel": 2,
      "note": 52,
      "start": 31.0095,
      "duration": 0.0161,
      "velocity": 100,
      "chip": "ym2612"
    },
    {
      "channel": 1,
      "note": 80,
      "start": 31.0107,
      "duration": 0.0161,
      "velocity": 100,
      "chip": "ym2612"
    },
    {
      "channel": 0,
      "note": 40,
      "start": 31.0209,
      "duration": 0.0162,
      "velocity": 115,
      "chip": "ym2612"
    },
    {
      "channel": 3,
      "note": 76,
      "start": 31.0244,
      "duration": 0.0161,
      "velocity": 100,
      "chip": "ym2612"
    },
    {
      "channel": 2,
      "note": 52,
      "start": 31.0256,
      "duration": 0.0162,
      "velocity": 100,
      "chip": "ym2612"
    },
    {
      "channel": 1,
      "note": 80,
      "start": 31.0268,
      "duration": 0.0162,
      "velocity": 100,
      "chip": "ym2612"
    },
    {
      "channel": 0,
      "note": 41,
      "start": 31.0371,
      "duration": 0.0163,
      "velocity": 115,
      "chip": "ym2612"
    },
    {
      "channel": 3,
      "note": 76,
      "start": 31.0406,
      "duration": 0.0163,
      "velocity": 100,
      "chip": "ym2612"
    },
    {
      "channel": 2,
      "note": 52,
      "start": 31.0417,
      "duration": 0.0163,
      "velocity": 100,
      "chip": "ym2612"
    },
    {
      "channel": 1,
      "note": 80,
      "start": 31.0429,
      "duration": 0.0163,
      "velocity": 100,
      "chip": "ym2612"
    },
    {
      "channel": 0,
      "note": 41,
      "start": 31.0534,
      "duration": 0.0182,
      "velocity": 124,
      "chip": "ym2612"
    },
    {
      "channel": 3,
      "note": 76,
      "start": 31.0569,
      "duration": 0.0182,
      "velocity": 100,
      "chip": "ym2612"
    },
    {
      "channel": 2,
      "note": 52,
      "start": 31.0581,
      "duration": 0.0185,
      "velocity": 100,
      "chip": "ym2612"
    },
    {
      "channel": 1,
      "note": 80,
      "start": 31.0593,
      "duration": 0.0185,
      "velocity": 100,
      "chip": "ym2612"
    },
    {
      "channel": 0,
      "note": 84,
      "start": 31.0715,
      "duration": 0.0144,
      "velocity": 124,
      "chip": "ym2612"
    },
    {
      "channel": 3,
      "note": 76,
      "start": 31.0751,
      "duration": 0.0151,
      "velocity": 100,
      "chip": "ym2612"
    },
    {
      "channel": 2,
      "note": 64,
      "start": 31.0766,
      "duration": 0.0148,
      "velocity": 100,
      "chip": "ym2612"
    },
    {
      "channel": 1,
      "note": 80,
      "start": 31.0778,
      "duration": 0.0148,
      "velocity": 100,
      "chip": "ym2612"
    },
    {
      "channel": 0,
      "note": 82,
      "start": 31.086,
      "duration": 0.016,
      "velocity": 124,
      "chip": "ym2612"
    },
    {
      "channel": 5,
      "note": 71,
      "start": 31.0875,
      "duration": 0.0158,
      "velocity": 100,
      "chip": "ym2612"
    },
    {
      "channel": 4,
      "note": 76,
      "start": 31.089,
      "duration": 0.0155,
      "velocity": 100,
      "chip": "ym2612"
    },
    {
      "channel": 2,
      "note": 64,
      "start": 31.0914,
      "duration": 0.0154,
      "velocity": 100,
      "chip": "ym2612"
    },
    {
      "channel": 0,
      "note": 80,
      "start": 31.102,
      "duration": 0.016,
      "velocity": 124,
      "chip": "ym2612"
    },
    {
      "channel": 5,
      "note": 71,
      "start": 31.1032,
      "duration": 0.016,
      "velocity": 100,
      "chip": "ym2612"
    },
    {
      "channel": 4,
      "note": 76,
      "start": 31.1045,
      "duration": 0.016,
      "velocity": 100,
      "chip": "ym2612"
    },
    {
      "channel": 2,
      "note": 64,
      "start": 31.1068,
      "duration": 0.016,
      "velocity": 100,
      "chip": "ym2612"
    },
    {
      "channel": 0,
      "note": 77,
      "start": 31.118,
      "duration": 0.0155,
      "velocity": 124,
      "chip": "ym2612"
    },
    {
      "channel": 5,
      "note": 71,
      "start": 31.1193,
      "duration": 0.0161,
      "velocity": 100,
      "chip": "ym2612"
    },
    {
      "channel": 4,
      "note": 76,
      "start": 31.1205,
      "duration": 0.0161,
      "velocity": 100,
      "chip": "ym2612"
    },
    {
      "channel": 2,
      "note": 64,
      "start": 31.1228,
      "duration": 0.0161,
      "velocity": 100,
      "chip": "ym2612"
    },
    {
      "channel": 0,
      "note": 75,
      "start": 31.1336,
      "duration": 0.0161,
      "velocity": 124,
      "chip": "ym2612"
    },
    {
      "channel": 5,
      "note": 71,
      "start": 31.1354,
      "duration": 0.0161,
      "velocity": 100,
      "chip": "ym2612"
    },
    {
      "channel": 4,
      "note": 76,
      "start": 31.1366,
      "duration": 0.0161,
      "velocity": 100,
      "chip": "ym2612"
    },
    {
      "channel": 2,
      "note": 64,
      "start": 31.1389,
      "duration": 0.0161,
      "velocity": 100,
      "chip": "ym2612"
    },
    {
      "channel": 0,
      "note": 72,
      "start": 31.1497,
      "duration": 0.0161,
      "velocity": 124,
      "chip": "ym2612"
    },
    {
      "channel": 5,
      "note": 71,
      "start": 31.1515,
      "duration": 0.0155,
      "velocity": 100,
      "chip": "ym2612"
    },
    {
      "channel": 4,
      "note": 76,
      "start": 31.1527,
      "duration": 0.0161,
      "velocity": 100,
      "chip": "ym2612"
    },
    {
      "channel": 2,
      "note": 64,
      "start": 31.155,
      "duration": 0.0161,
      "velocity": 100,
      "chip": "ym2612"
    },
    {
      "channel": 0,
      "note": 70,
      "start": 31.1658,
      "duration": 0.0179,
      "velocity": 115,
      "chip": "ym2612"
    },
    {
      "channel": 5,
      "note": 71,
      "start": 31.167,
      "duration": 0.0186,
      "velocity": 100,
      "chip": "ym2612"
    },
    {
      "channel": 4,
      "note": 76,
      "start": 31.1688,
      "duration": 0.0179,
      "velocity": 100,
      "chip": "ym2612"
    },
    {
      "channel": 2,
      "note": 64,
      "start": 31.1711,
      "duration": 0.0184,
      "velocity": 100,
      "chip": "ym2612"
    },
    {
      "channel": 0,
      "note": 36,
      "start": 31.1838,
      "duration": 0.0143,
      "velocity": 115,
      "chip": "ym2612"
    },
    {
      "channel": 5,
      "note": 71,
      "start": 31.1856,
      "duration": 0.0137,
      "velocity": 100,
      "chip": "ym2612"
    },
    {
      "channel": 4,
      "note": 76,
      "start": 31.1867,
      "duration": 0.014,
      "velocity": 100,
      "chip": "ym2612"
    },
    {
      "channel": 3,
      "note": 71,
      "start": 31.1882,
      "duration": 0.0141,
      "velocity": 100,
      "chip": "ym2612"
    },
    {
      "channel": 2,
      "note": 64,
      "start": 31.1895,
      "duration": 0.0141,
      "velocity": 100,
      "chip": "ym2612"
    },
    {
      "channel": 1,
      "note": 76,
      "start": 31.191,
      "duration": 0.0137,
      "velocity": 100,
      "chip": "ym2612"
    },
    {
      "channel": 0,
      "note": 36,
      "start": 31.1981,
      "duration": 0.016,
      "velocity": 115,
      "chip": "ym2612"
    },
    {
      "channel": 3,
      "note": 71,
      "start": 31.2023,
      "duration": 0.0159,
      "velocity": 100,
      "chip": "ym2612"
    },
    {
      "channel": 2,
      "note": 64,
      "start": 31.2035,
      "duration": 0.0159,
      "velocity": 100,
      "chip": "ym2612"
    },
    {
      "channel": 1,
      "note": 76,
      "start": 31.2048,
      "duration": 0.0158,
      "velocity": 100,
      "chip": "ym2612"
    },
    {
      "channel": 0,
      "note": 37,
      "start": 31.2141,
      "duration": 0.0161,
      "velocity": 115,
      "chip": "ym2612"
    },
    {
      "channel": 3,
      "note": 71,
      "start": 31.2182,
      "duration": 0.0156,
      "velocity": 100,
      "chip": "ym2612"
    },
    {
      "channel": 2,
      "note": 64,
      "start": 31.2195,
      "duration": 0.0161,
      "velocity": 100,
      "chip": "ym2612"
    },
    {
      "channel": 1,
      "note": 76,
      "start": 31.2206,
      "duration": 0.0161,
      "velocity": 100,
      "chip": "ym2612"
    },
    {
      "channel": 0,
      "note": 37,
      "start": 31.2302,
      "duration": 0.0161,
      "velocity": 115,
      "chip": "ym2612"
    },
    {
      "channel": 2,
      "note": 64,
      "start": 31.2356,
      "duration": 0.016,
      "velocity": 100,
      "chip": "ym2612"
    },
    {
      "channel": 0,
      "note": 38,
      "start": 31.2463,
      "duration": 0.0161,
      "velocity": 115,
      "chip": "ym2612"
    },
    {
      "channel": 2,
      "note": 64,
      "start": 31.2515,
      "duration": 0.0156,
      "velocity": 100,
      "chip": "ym2612"
    },
    {
      "channel": 0,
      "note": 38,
      "start": 31.2624,
      "duration": 0.0179,
      "velocity": 115,
      "chip": "ym2612"
    },
    {
      "channel": 2,
      "note": 64,
      "start": 31.2671,
      "duration": 0.0191,
      "velocity": 100,
      "chip": "ym2612"
    },
    {
      "channel": 0,
      "note": 36,
      "start": 31.2803,
      "duration": 0.0143,
      "velocity": 115,
      "chip": "ym2612"
    },
    {
      "channel": 3,
      "note": 76,
      "start": 31.2848,
      "duration": 0.0142,
      "velocity": 100,
      "chip": "ym2612"
    },
    {
      "channel": 2,
      "note": 52,
      "start": 31.2863,
      "duration": 0.0139,
      "velocity": 100,
      "chip": "ym2612"
    },
    {
      "channel": 1,
      "note": 80,
      "start": 31.2878,
      "duration": 0.0142,
      "velocity": 100,
      "chip": "ym2612"
    },
    {
      "channel": 0,
      "note": 36,
      "start": 31.2946,
      "duration": 0.0161,
      "velocity": 115,
      "chip": "ym2612"
    },
    {
      "channel": 5,
      "note": 76,
      "start": 31.2962,
      "duration": 0.0158,
      "velocity": 100,
      "chip": "ym2612"
    },
    {
      "channel": 4,
      "note": 80,
      "start": 31.2977,
      "duration": 0.0155,
      "velocity": 100,
      "chip": "ym2612"
    },
    {
      "channel": 3,
      "note": 76,
      "start": 31.299,
      "duration": 0.0154,
      "velocity": 100,
      "chip": "ym2612"
    },
    {
      "channel": 2,
      "note": 52,
      "start": 31.3002,
      "duration": 0.0153,
      "velocity": 100,
      "chip": "ym2612"
    },
    {
      "channel": 1,
      "note": 80,
      "start": 31.302,
      "duration": 0.0147,
      "velocity": 100,
      "chip": "ym2612"
    },
    {
      "channel": 0,
      "note": 37,
      "start": 31.3107,
      "duration": 0.0161,
      "velocity": 115,
      "chip": "ym2612"
    },
    {
      "channel": 5,
      "note": 76,
      "start": 31.312,
      "duration": 0.016,
      "velocity": 100,
      "chip": "ym2612"
    },
    {
      "channel": 4,
      "note": 80,
      "start": 31.3132,
      "duration": 0.016,
      "velocity": 100,
      "chip": "ym2612"
    },
    {
      "channel": 3,
      "note": 76,
      "start": 31.3144,
      "duration": 0.016,
      "velocity": 100,
      "chip": "ym2612"
    },
    {
      "channel": 2,
      "note": 52,
      "start": 31.3155,
      "duration": 0.016,
      "velocity": 100,
      "chip": "ym2612"
    },
    {
      "channel": 1,
      "note": 80,
      "start": 31.3167,
      "duration": 0.016,
      "velocity": 100,
      "chip": "ym2612"
    },
    {
      "channel": 0,
      "note": 37,
      "start": 31.3268,
      "duration": 0.0161,
      "velocity": 115,
      "chip": "ym2612"
    },
    {
      "channel": 5,
      "note": 76,
      "start": 31.328,
      "duration": 0.0161,
      "velocity": 100,
      "chip": "ym2612"
    },
    {
      "channel": 4,
      "note": 80,
      "start": 31.3292,
      "duration": 0.0161,
      "velocity": 100,
      "chip": "ym2612"
    },
    {
      "channel": 3,
      "note": 76,
      "start": 31.3304,
      "duration": 0.0161,
      "velocity": 100,
      "chip": "ym2612"
    },
    {
      "channel": 2,
      "note": 52,
      "start": 31.3315,
      "duration": 0.0161,
      "velocity": 100,
      "chip": "ym2612"
    },
    {
      "channel": 1,
      "note": 80,
      "start": 31.3327,
      "duration": 0.0162,
      "velocity": 100,
      "chip": "ym2612"
    },
    {
      "channel": 0,
      "note": 38,
      "start": 31.3429,
      "duration": 0.0161,
      "velocity": 115,
      "chip": "ym2612"
    },
    {
      "channel": 5,
      "note": 76,
      "start": 31.3441,
      "duration": 0.0161,
      "velocity": 100,
      "chip": "ym2612"
    },
    {
      "channel": 4,
      "note": 80,
      "start": 31.3453,
      "duration": 0.0161,
      "velocity": 100,
      "chip": "ym2612"
    },
    {
      "channel": 3,
      "note": 76,
      "start": 31.3465,
      "duration": 0.0161,
      "velocity": 100,
      "chip": "ym2612"
    },
    {
      "channel": 2,
      "note": 52,
      "start": 31.3477,
      "duration": 0.0161,
      "velocity": 100,
      "chip": "ym2612"
    },
    {
      "channel": 1,
      "note": 80,
      "start": 31.3489,
      "duration": 0.016,
      "velocity": 100,
      "chip": "ym2612"
    },
    {
      "channel": 0,
      "note": 38,
      "start": 31.359,
      "duration": 0.0161,
      "velocity": 115,
      "chip": "ym2612"
    },
    {
      "channel": 5,
      "note": 76,
      "start": 31.3602,
      "duration": 0.0162,
      "velocity": 100,
      "chip": "ym2612"
    },
    {
      "channel": 4,
      "note": 80,
      "start": 31.3614,
      "duration": 0.0161,
      "velocity": 100,
      "chip": "ym2612"
    },
    {
      "channel": 3,
      "note": 76,
      "start": 31.3626,
      "duration": 0.0161,
      "velocity": 100,
      "chip": "ym2612"
    },
    {
      "channel": 2,
      "note": 52,
      "start": 31.3638,
      "duration": 0.0161,
      "velocity": 100,
      "chip": "ym2612"
    },
    {
      "channel": 1,
      "note": 80,
      "start": 31.3649,
      "duration": 0.0161,
      "velocity": 100,
      "chip": "ym2612"
    },
    {
      "channel": 0,
      "note": 39,
      "start": 31.3751,
      "duration": 0.018,
      "velocity": 115,
      "chip": "ym2612"
    },
    {
      "channel": 5,
      "note": 76,
      "start": 31.3763,
      "duration": 0.0179,
      "velocity": 100,
      "chip": "ym2612"
    },
    {
      "channel": 4,
      "note": 80,
      "start": 31.3775,
      "duration": 0.018,
      "velocity": 100,
      "chip": "ym2612"
    },
    {
      "channel": 3,
      "note": 76,
      "start": 31.3787,
      "duration": 0.018,
      "velocity": 100,
      "chip": "ym2612"
    },
    {
      "channel": 2,
      "note": 52,
      "start": 31.3799,
      "duration": 0.0182,
      "velocity": 100,
      "chip": "ym2612"
    },
    {
      "channel": 1,
      "note": 80,
      "start": 31.3811,
      "duration": 0.0183,
      "velocity": 100,
      "chip": "ym2612"
    },
    {
      "channel": 0,
      "note": 36,
      "start": 31.3931,
      "duration": 0.0143,
      "velocity": 115,
      "chip": "ym2612"
    },
    {
      "channel": 5,
      "note": 76,
      "start": 31.3943,
      "duration": 0.0143,
      "velocity": 100,
      "chip": "ym2612"
    },
    {
      "channel": 4,
      "note": 80,
      "start": 31.3955,
      "duration": 0.0143,
      "velocity": 100,
      "chip": "ym2612"
    },
    {
      "channel": 2,
      "note": 52,
      "start": 31.3981,
      "duration": 0.0141,
      "velocity": 100,
      "chip": "ym2612"
    },
    {
      "channel": 0,
      "note": 36,
      "start": 31.4074,
      "duration": 0.016,
      "velocity": 115,
      "chip": "ym2612"
    },
    {
      "channel": 2,
      "note": 52,
      "start": 31.4122,
      "duration": 0.0159,
      "velocity": 100,
      "chip": "ym2612"
    },
    {
      "channel": 0,
      "note": 37,
      "start": 31.4234,
      "duration": 0.0161,
      "velocity": 115,
      "chip": "ym2612"
    },
    {
      "channel": 2,
      "note": 52,
      "start": 31.4281,
      "duration": 0.0161,
      "velocity": 100,
      "chip": "ym2612"
    },
    {
      "channel": 0,
      "note": 37,
      "start": 31.4395,
      "duration": 0.0162,
      "velocity": 115,
      "chip": "ym2612"
    },
    {
      "channel": 2,
      "note": 52,
      "start": 31.4442,
      "duration": 0.0161,
      "velocity": 100,
      "chip": "ym2612"
    },
    {
      "channel": 0,
      "note": 38,
      "start": 31.4556,
      "duration": 0.0161,
      "velocity": 115,
      "chip": "ym2612"
    },
    {
      "channel": 2,
      "note": 52,
      "start": 31.4603,
      "duration": 0.0161,
      "velocity": 100,
      "chip": "ym2612"
    },
    {
      "channel": 0,
      "note": 38,
      "start": 31.4717,
      "duration": 0.0161,
      "velocity": 115,
      "chip": "ym2612"
    },
    {
      "channel": 2,
      "note": 52,
      "start": 31.4764,
      "duration": 0.0165,
      "velocity": 100,
      "chip": "ym2612"
    },
    {
      "channel": 0,
      "note": 39,
      "start": 31.4878,
      "duration": 0.0161,
      "velocity": 115,
      "chip": "ym2612"
    },
    {
      "channel": 3,
      "note": 71,
      "start": 31.4917,
      "duration": 0.0166,
      "velocity": 100,
      "chip": "ym2612"
    },
    {
      "channel": 2,
      "note": 52,
      "start": 31.4929,
      "duration": 0.0166,
      "velocity": 100,
      "chip": "ym2612"
    },
    {
      "channel": 1,
      "note": 76,
      "start": 31.4944,
      "duration": 0.0163,
      "velocity": 100,
      "chip": "ym2612"
    },
    {
      "channel": 0,
      "note": 39,
      "start": 31.504,
      "duration": 0.0161,
      "velocity": 115,
      "chip": "ym2612"
    },
    {
      "channel": 5,
      "note": 71,
      "start": 31.5055,
      "duration": 0.0158,
      "velocity": 100,
      "chip": "ym2612"
    },
    {
      "channel": 4,
      "note": 76,
      "start": 31.5071,
      "duration": 0.0155,
      "velocity": 100,
      "chip": "ym2612"
    },
    {
      "channel": 3,
      "note": 71,
      "start": 31.5083,
      "duration": 0.0155,
      "velocity": 100,
      "chip": "ym2612"
    },
    {
      "channel": 2,
      "note": 52,
      "start": 31.5095,
      "duration": 0.0155,
      "velocity": 100,
      "chip": "ym2612"
    },
    {
      "channel": 1,
      "note": 76,
      "start": 31.5107,
      "duration": 0.0154,
      "velocity": 100,
      "chip": "ym2612"
    },
    {
      "channel": 0,
      "note": 40,
      "start": 31.5201,
      "duration": 0.0164,
      "velocity": 115,
      "chip": "ym2612"
    },
    {
      "channel": 5,
      "note": 71,
      "start": 31.5213,
      "duration": 0.0164,
      "velocity": 100,
      "chip": "ym2612"
    },
    {
      "channel": 4,
      "note": 76,
      "start": 31.5226,
      "duration": 0.0163,
      "velocity": 100,
      "chip": "ym2612"
    },
    {
      "channel": 3,
      "note": 71,
      "start": 31.5238,
      "duration": 0.0163,
      "velocity": 100,
      "chip": "ym2612"
    },
    {
      "channel": 2,
      "note": 52,
      "start": 31.5249,
      "duration": 0.0163,
      "velocity": 100,
      "chip": "ym2612"
    },
    {
      "channel": 1,
      "note": 76,
      "start": 31.5261,
      "duration": 0.0163,
      "velocity": 100,
      "chip": "ym2612"
    },
    {
      "channel": 0,
      "note": 40,
      "start": 31.5365,
      "duration": 0.0163,
      "velocity": 115,
      "chip": "ym2612"
    },
    {
      "channel": 5,
      "note": 71,
      "start": 31.5377,
      "duration": 0.0163,
      "velocity": 100,
      "chip": "ym2612"
    },
    {
      "channel": 4,
      "note": 76,
      "start": 31.5389,
      "duration": 0.0163,
      "velocity": 100,
      "chip": "ym2612"
    },
    {
      "channel": 3,
      "note": 71,
      "start": 31.5401,
      "duration": 0.0163,
      "velocity": 100,
      "chip": "ym2612"
    },
    {
      "channel": 2,
      "note": 52,
      "start": 31.5412,
      "duration": 0.0163,
      "velocity": 100,
      "chip": "ym2612"
    },
    {
      "channel": 1,
      "note": 76,
      "start": 31.5424,
      "duration": 0.0163,
      "velocity": 100,
      "chip": "ym2612"
    },
    {
      "channel": 0,
      "note": 40,
      "start": 31.5529,
      "duration": 0.0161,
      "velocity": 115,
      "chip": "ym2612"
    },
    {
      "channel": 2,
      "note": 52,
      "start": 31.5576,
      "duration": 0.016,
      "velocity": 100,
      "chip": "ym2612"
    },
    {
      "channel": 0,
      "note": 41,
      "start": 31.5689,
      "duration": 0.016,
      "velocity": 115,
      "chip": "ym2612"
    },
    {
      "channel": 2,
      "note": 52,
      "start": 31.5736,
      "duration": 0.0161,
      "velocity": 100,
      "chip": "ym2612"
    },
    {
      "channel": 0,
      "note": 41,
      "start": 31.585,
      "duration": 0.0179,
      "velocity": 124,
      "chip": "ym2612"
    },
    {
      "channel": 2,
      "note": 52,
      "start": 31.5897,
      "duration": 0.0193,
      "velocity": 100,
      "chip": "ym2612"
    },
    {
      "channel": 0,
      "note": 84,
      "start": 31.603,
      "duration": 0.0137,
      "velocity": 124,
      "chip": "ym2612"
    },
    {
      "channel": 5,
      "note": 76,
      "start": 31.6045,
      "duration": 0.014,
      "velocity": 100,
      "chip": "ym2612"
    },
    {
      "channel": 4,
      "note": 80,
      "start": 31.606,
      "duration": 0.0137,
      "velocity": 100,
      "chip": "ym2612"
    },
    {
      "channel": 3,
      "note": 76,
      "start": 31.6076,
      "duration": 0.0135,
      "velocity": 100,
      "chip": "ym2612"
    },
    {
      "channel": 2,
      "note": 64,
      "start": 31.609,
      "duration": 0.0132,
      "velocity": 100,
      "chip": "ym2612"
    },
    {
      "channel": 1,
      "note": 80,
      "start": 31.6105,
      "duration": 0.013,
      "velocity": 100,
      "chip": "ym2612"
    },
    {
      "channel": 0,
      "note": 82,
      "start": 31.6167,
      "duration": 0.016,
      "velocity": 124,
      "chip": "ym2612"
    },
    {
      "channel": 5,
      "note": 76,
      "start": 31.6185,
      "duration": 0.0156,
      "velocity": 100,
      "chip": "ym2612"
    },
    {
      "channel": 4,
      "note": 80,
      "start": 31.6198,
      "duration": 0.016,
      "velocity": 100,
      "chip": "ym2612"
    },
    {
      "channel": 3,
      "note": 76,
      "start": 31.621,
      "duration": 0.0158,
      "velocity": 100,
      "chip": "ym2612"
    },
    {
      "channel": 2,
      "note": 64,
      "start": 31.6222,
      "duration": 0.0158,
      "velocity": 100,
      "chip": "ym2612"
    },
    {
      "channel": 1,
      "note": 80,
      "start": 31.6235,
      "duration": 0.0157,
      "velocity": 100,
      "chip": "ym2612"
    },
    {
      "channel": 0,
      "note": 80,
      "start": 31.6327,
      "duration": 0.0161,
      "velocity": 124,
      "chip": "ym2612"
    },
    {
      "channel": 5,
      "note": 76,
      "start": 31.6341,
      "duration": 0.0159,
      "velocity": 100,
      "chip": "ym2612"
    },
    {
      "channel": 4,
      "note": 80,
      "start": 31.6357,
      "duration": 0.016,
      "velocity": 100,
      "chip": "ym2612"
    },
    {
      "channel": 3,
      "note": 76,
      "start": 31.6369,
      "duration": 0.0161,
      "velocity": 100,
      "chip": "ym2612"
    },
    {
      "channel": 2,
      "note": 64,
      "start": 31.638,
      "duration": 0.0161,
      "velocity": 100,
      "chip": "ym2612"
    },
    {
      "channel": 1,
      "note": 80,
      "start": 31.6392,
      "duration": 0.0161,
      "velocity": 100,
      "chip": "ym2612"
    },
    {
      "channel": 0,
      "note": 77,
      "start": 31.6488,
      "duration": 0.0161,
      "velocity": 124,
      "chip": "ym2612"
    },
    {
      "channel": 5,
      "note": 76,
      "start": 31.65,
      "duration": 0.0161,
      "velocity": 100,
      "chip": "ym2612"
    },
    {
      "channel": 4,
      "note": 80,
      "start": 31.6518,
      "duration": 0.0158,
      "velocity": 100,
      "chip": "ym2612"
    },
    {
      "channel": 3,
      "note": 76,
      "start": 31.653,
      "duration": 0.0161,
      "velocity": 100,
      "chip": "ym2612"
    },
    {
      "channel": 2,
      "note": 64,
      "start": 31.6541,
      "duration": 0.0161,
      "velocity": 100,
      "chip": "ym2612"
    },
    {
      "channel": 1,
      "note": 80,
      "start": 31.6553,
      "duration": 0.0161,
      "velocity": 100,
      "chip": "ym2612"
    },
    {
      "channel": 0,
      "note": 75,
      "start": 31.6649,
      "duration": 0.0161,
      "velocity": 124,
      "chip": "ym2612"
    },
    {
      "channel": 5,
      "note": 76,
      "start": 31.6661,
      "duration": 0.0161,
      "velocity": 100,
      "chip": "ym2612"
    },
    {
      "channel": 4,
      "note": 80,
      "start": 31.6676,
      "duration": 0.0158,
      "velocity": 100,
      "chip": "ym2612"
    },
    {
      "channel": 3,
      "note": 76,
      "start": 31.6691,
      "duration": 0.016,
      "velocity": 100,
      "chip": "ym2612"
    },
    {
      "channel": 2,
      "note": 64,
      "start": 31.6702,
      "duration": 0.0161,
      "velocity": 100,
      "chip": "ym2612"
    },
    {
      "channel": 1,
      "note": 80,
      "start": 31.6714,
      "duration": 0.0161,
      "velocity": 100,
      "chip": "ym2612"
    },
    {
      "channel": 0,
      "note": 72,
      "start": 31.681,
      "duration": 0.0161,
      "velocity": 124,
      "chip": "ym2612"
    },
    {
      "channel": 5,
      "note": 76,
      "start": 31.6822,
      "duration": 0.0161,
      "velocity": 100,
      "chip": "ym2612"
    },
    {
      "channel": 4,
      "note": 80,
      "start": 31.6834,
      "duration": 0.0162,
      "velocity": 100,
      "chip": "ym2612"
    },
    {
      "channel": 3,
      "note": 76,
      "start": 31.6851,
      "duration": 0.0158,
      "velocity": 100,
      "chip": "ym2612"
    },
    {
      "channel": 2,
      "note": 64,
      "start": 31.6863,
      "duration": 0.0162,
      "velocity": 100,
      "chip": "ym2612"
    },
    {
      "channel": 1,
      "note": 80,
      "start": 31.6875,
      "duration": 0.0161,
      "velocity": 100,
      "chip": "ym2612"
    },
    {
      "channel": 0,
      "note": 70,
      "start": 31.6971,
      "duration": 0.0161,
      "velocity": 124,
      "chip": "ym2612"
    },
    {
      "channel": 5,
      "note": 76,
      "start": 31.6983,
      "duration": 0.0161,
      "velocity": 100,
      "chip": "ym2612"
    },
    {
      "channel": 4,
      "note": 80,
      "start": 31.6995,
      "duration": 0.0161,
      "velocity": 100,
      "chip": "ym2612"
    },
    {
      "channel": 3,
      "note": 76,
      "start": 31.7009,
      "duration": 0.0159,
      "velocity": 100,
      "chip": "ym2612"
    },
    {
      "channel": 2,
      "note": 64,
      "start": 31.7025,
      "duration": 0.0161,
      "velocity": 100,
      "chip": "ym2612"
    },
    {
      "channel": 1,
      "note": 80,
      "start": 31.7036,
      "duration": 0.0162,
      "velocity": 100,
      "chip": "ym2612"
    },
    {
      "channel": 0,
      "note": 68,
      "start": 31.7132,
      "duration": 0.0161,
      "velocity": 124,
      "chip": "ym2612"
    },
    {
      "channel": 2,
      "note": 64,
      "start": 31.7185,
      "duration": 0.0158,
      "velocity": 100,
      "chip": "ym2612"
    },
    {
      "channel": 0,
      "note": 65,
      "start": 31.7293,
      "duration": 0.0161,
      "velocity": 124,
      "chip": "ym2612"
    },
    {
      "channel": 2,
      "note": 64,
      "start": 31.7343,
      "duration": 0.0159,
      "velocity": 100,
      "chip": "ym2612"
    },
    {
      "channel": 0,
      "note": 63,
      "start": 31.7454,
      "duration": 0.0153,
      "velocity": 1,
      "chip": "ym2612"
    },
    {
      "channel": 2,
      "note": 64,
      "start": 31.7502,
      "duration": 0.0152,
      "velocity": 100,
      "chip": "ym2612"
    },
    {
      "channel": 2,
      "note": 64,
      "start": 31.7654,
      "duration": 0.0153,
      "velocity": 100,
      "chip": "ym2612"
    },
    {
      "channel": 2,
      "note": 64,
      "start": 31.7807,
      "duration": 0.0161,
      "velocity": 100,
      "chip": "ym2612"
    },
    {
      "channel": 2,
      "note": 64,
      "start": 31.7967,
      "duration": 0.0209,
      "velocity": 100,
      "chip": "ym2612"
    },
    {
      "channel": 0,
      "note": 36,
      "start": 31.8117,
      "duration": 0.0143,
      "velocity": 115,
      "chip": "ym2612"
    },
    {
      "channel": 5,
      "note": 71,
      "start": 31.8132,
      "duration": 0.0141,
      "velocity": 100,
      "chip": "ym2612"
    },
    {
      "channel": 4,
      "note": 76,
      "start": 31.8147,
      "duration": 0.0138,
      "velocity": 100,
      "chip": "ym2612"
    },
    {
      "channel": 2,
      "note": 54,
      "start": 31.818,
      "duration": 0.0129,
      "velocity": 100,
      "chip": "ym2612"
    },
    {
      "channel": 0,
      "note": 36,
      "start": 31.826,
      "duration": 0.016,
      "velocity": 115,
      "chip": "ym2612"
    },
    {
      "channel": 5,
      "note": 71,
      "start": 31.8273,
      "duration": 0.016,
      "velocity": 100,
      "chip": "ym2612"
    },
    {
      "channel": 4,
      "note": 76,
      "start": 31.8285,
      "duration": 0.0159,
      "velocity": 100,
      "chip": "ym2612"
    },
    {
      "channel": 2,
      "note": 54,
      "start": 31.831,
      "duration": 0.0158,
      "velocity": 100,
      "chip": "ym2612"
    },
    {
      "channel": 0,
      "note": 37,
      "start": 31.842,
      "duration": 0.0161,
      "velocity": 115,
      "chip": "ym2612"
    },
    {
      "channel": 5,
      "note": 71,
      "start": 31.8432,
      "duration": 0.0161,
      "velocity": 100,
      "chip": "ym2612"
    },
    {
      "channel": 4,
      "note": 76,
      "start": 31.8444,
      "duration": 0.0161,
      "velocity": 100,
      "chip": "ym2612"
    },
    {
      "channel": 2,
      "note": 54,
      "start": 31.8468,
      "duration": 0.0161,
      "velocity": 100,
      "chip": "ym2612"
    },
    {
      "channel": 0,
      "note": 37,
      "start": 31.8581,
      "duration": 0.0161,
      "velocity": 115,
      "chip": "ym2612"
    },
    {
      "channel": 5,
      "note": 71,
      "start": 31.8593,
      "duration": 0.0161,
      "velocity": 100,
      "chip": "ym2612"
    },
    {
      "channel": 4,
      "note": 76,
      "start": 31.8605,
      "duration": 0.0161,
      "velocity": 100,
      "chip": "ym2612"
    },
    {
      "channel": 2,
      "note": 54,
      "start": 31.8629,
      "duration": 0.0161,
      "velocity": 100,
      "chip": "ym2612"
    },
    {
      "channel": 0,
      "note": 38,
      "start": 31.8742,
      "duration": 0.0161,
      "velocity": 115,
      "chip": "ym2612"
    },
    {
      "channel": 2,
      "note": 54,
      "start": 31.879,
      "duration": 0.0161,
      "velocity": 100,
      "chip": "ym2612"
    },
    {
      "channel": 0,
      "note": 38,
      "start": 31.8903,
      "duration": 0.0161,
      "velocity": 115,
      "chip": "ym2612"
    },
    {
      "channel": 2,
      "note": 54,
      "start": 31.8951,
      "duration": 0.0161,
      "velocity": 100,
      "chip": "ym2612"
    },
    {
      "channel": 0,
      "note": 39,
      "start": 31.9065,
      "duration": 0.0161,
      "velocity": 115,
      "chip": "ym2612"
    },
    {
      "channel": 2,
      "note": 54,
      "start": 31.9112,
      "duration": 0.0168,
      "velocity": 100,
      "chip": "ym2612"
    },
    {
      "channel": 0,
      "note": 39,
      "start": 31.9226,
      "duration": 0.0161,
      "velocity": 115,
      "chip": "ym2612"
    },
    {
      "channel": 5,
      "note": 76,
      "start": 31.9241,
      "duration": 0.0158,
      "velocity": 100,
      "chip": "ym2612"
    },
    {
      "channel": 4,
      "note": 80,
      "start": 31.9256,
      "duration": 0.0155,
      "velocity": 100,
      "chip": "ym2612"
    },
    {
      "channel": 2,
      "note": 54,
      "start": 31.928,
      "duration": 0.0155,
      "velocity": 100,
      "chip": "ym2612"
    },
    {
      "channel": 0,
      "note": 40,
      "start": 31.9387,
      "duration": 0.0161,
      "velocity": 115,
      "chip": "ym2612"
    },
    {
      "channel": 5,
      "note": 76,
      "start": 31.9399,
      "duration": 0.0161,
      "velocity": 100,
      "chip": "ym2612"
    },
    {
      "channel": 4,
      "note": 80,
      "start": 31.9411,
      "duration": 0.016,
      "velocity": 100,
      "chip": "ym2612"
    },
    {
      "channel": 2,
      "note": 54,
      "start": 31.9435,
      "duration": 0.016,
      "velocity": 100,
      "chip": "ym2612"
    },
    {
      "channel": 0,
      "note": 40,
      "start": 31.9548,
      "duration": 0.0161,
      "velocity": 115,
      "chip": "ym2612"
    },
    {
      "channel": 5,
      "note": 76,
      "start": 31.956,
      "duration": 0.0161,
      "velocity": 100,
      "chip": "ym2612"
    },
    {
      "channel": 4,
      "note": 80,
      "start": 31.9571,
      "duration": 0.0161,
      "velocity": 100,
      "chip": "ym2612"
    },
    {
      "channel": 2,
      "note": 54,
      "start": 31.9595,
      "duration": 0.0161,
      "velocity": 100,
      "chip": "ym2612"
    },
    {
      "channel": 0,
      "note": 40,
      "start": 31.9708,
      "duration": 0.0162,
      "velocity": 115,
      "chip": "ym2612"
    },
    {
      "channel": 5,
      "note": 76,
      "start": 31.9721,
      "duration": 0.0161,
      "velocity": 100,
      "chip": "ym2612"
    },
    {
      "channel": 4,
      "note": 80,
      "start": 31.9732,
      "duration": 0.0162,
      "velocity": 100,
      "chip": "ym2612"
    },
    {
      "channel": 2,
      "note": 54,
      "start": 31.9756,
      "duration": 0.0162,
      "velocity": 100,
      "chip": "ym2612"
    },
    {
      "channel": 0,
      "note": 41,
      "start": 31.987,
      "duration": 0.0164,
      "velocity": 115,
      "chip": "ym2612"
    },
    {
      "channel": 5,
      "note": 76,
      "start": 31.9882,
      "duration": 0.0164,
      "velocity": 100,
      "chip": "ym2612"
    },
    {
      "channel": 4,
      "note": 80,
      "start": 31.9894,
      "duration": 0.0164,
      "velocity": 100,
      "chip": "ym2612"
    },
    {
      "channel": 2,
      "note": 54,
      "start": 31.9917,
      "duration": 0.0164,
      "velocity": 100,
      "chip": "ym2612"
    },
    {
      "channel": 0,
      "note": 41,
      "start": 32.0034,
      "duration": 0.0181,
      "velocity": 115,
      "chip": "ym2612"
    },
    {
      "channel": 5,
      "note": 76,
      "start": 32.0046,
      "duration": 0.0181,
      "velocity": 100,
      "chip": "ym2612"
    },
    {
      "channel": 4,
      "note": 80,
      "start": 32.0058,
      "duration": 0.0182,
      "velocity": 100,
      "chip": "ym2612"
    },
    {
      "channel": 2,
      "note": 54,
      "start": 32.0081,
      "duration": 0.0188,
      "velocity": 100,
      "chip": "ym2612"
    },
    {
      "channel": 0,
      "note": 36,
      "start": 32.0215,
      "duration": 0.0144,
      "velocity": 115,
      "chip": "ym2612"
    },
    {
      "channel": 5,
      "note": 76,
      "start": 32.0228,
      "duration": 0.0144,
      "velocity": 100,
      "chip": "ym2612"
    },
    {
      "channel": 4,
      "note": 80,
      "start": 32.024,
      "duration": 0.0144,
      "velocity": 100,
      "chip": "ym2612"
    },
    {
      "channel": 3,
      "note": 78,
      "start": 32.0254,
      "duration": 0.0141,
      "velocity": 100,
      "chip": "ym2612"
    },
    {
      "channel": 2,
      "note": 66,
      "start": 32.0269,
      "duration": 0.0139,
      "velocity": 100,
      "chip": "ym2612"
    },
    {
      "channel": 1,
      "note": 82,
      "start": 32.0284,
      "duration": 0.0136,
      "velocity": 100,
      "chip": "ym2612"
    },
    {
      "channel": 0,
      "note": 36,
      "start": 32.0359,
      "duration": 0.016,
      "velocity": 115,
      "chip": "ym2612"
    },
    {
      "channel": 3,
      "note": 78,
      "start": 32.0395,
      "duration": 0.016,
      "velocity": 100,
      "chip": "ym2612"
    },
    {
      "channel": 2,
      "note": 66,
      "start": 32.0408,
      "duration": 0.0159,
      "velocity": 100,
      "chip": "ym2612"
    },
    {
      "channel": 1,
      "note": 82,
      "start": 32.042,
      "duration": 0.0158,
      "velocity": 100,
      "chip": "ym2612"
    },
    {
      "channel": 0,
      "note": 37,
      "start": 32.0519,
      "duration": 0.0158,
      "velocity": 115,
      "chip": "ym2612"
    },
    {
      "channel": 3,
      "note": 78,
      "start": 32.0555,
      "duration": 0.0161,
      "velocity": 100,
      "chip": "ym2612"
    },
    {
      "channel": 2,
      "note": 66,
      "start": 32.0567,
      "duration": 0.0161,
      "velocity": 100,
      "chip": "ym2612"
    },
    {
      "channel": 1,
      "note": 82,
      "start": 32.0579,
      "duration": 0.0161,
      "velocity": 100,
      "chip": "ym2612"
    },
    {
      "channel": 0,
      "note": 37,
      "start": 32.0677,
      "duration": 0.0159,
      "velocity": 115,
      "chip": "ym2612"
    },
    {
      "channel": 3,
      "note": 78,
      "start": 32.0716,
      "duration": 0.0161,
      "velocity": 100,
      "chip": "ym2612"
    },
    {
      "channel": 2,
      "note": 66,
      "start": 32.0728,
      "duration": 0.0161,
      "velocity": 100,
      "chip": "ym2612"
    },
    {
      "channel": 1,
      "note": 82,
      "start": 32.074,
      "duration": 0.0161,
      "velocity": 100,
      "chip": "ym2612"
    },
    {
      "channel": 0,
      "note": 38,
      "start": 32.0836,
      "duration": 0.0161,
      "velocity": 115,
      "chip": "ym2612"
    },
    {
      "channel": 3,
      "note": 78,
      "start": 32.0877,
      "duration": 0.0161,
      "velocity": 100,
      "chip": "ym2612"
    },
    {
      "channel": 2,
      "note": 66,
      "start": 32.0888,
      "duration": 0.0161,
      "velocity": 100,
      "chip": "ym2612"
    },
    {
      "channel": 1,
      "note": 82,
      "start": 32.0901,
      "duration": 0.0161,
      "velocity": 100,
      "chip": "ym2612"
    },
    {
      "channel": 0,
      "note": 38,
      "start": 32.0997,
      "duration": 0.0161,
      "velocity": 115,
      "chip": "ym2612"
    },
    {
      "channel": 3,
      "note": 78,
      "start": 32.1038,
      "duration": 0.0161,
      "velocity": 100,
      "chip": "ym2612"
    },
    {
      "channel": 2,
      "note": 66,
      "start": 32.1049,
      "duration": 0.0161,
      "velocity": 100,
      "chip": "ym2612"
    },
    {
      "channel": 1,
      "note": 82,
      "start": 32.1061,
      "duration": 0.0161,
      "velocity": 100,
      "chip": "ym2612"
    },
    {
      "channel": 0,
      "note": 39,
      "start": 32.1158,
      "duration": 0.0161,
      "velocity": 115,
      "chip": "ym2612"
    },
    {
      "channel": 3,
      "note": 78,
      "start": 32.1199,
      "duration": 0.0164,
      "velocity": 100,
      "chip": "ym2612"
    },
    {
      "channel": 2,
      "note": 66,
      "start": 32.121,
      "duration": 0.0165,
      "velocity": 100,
      "chip": "ym2612"
    },
    {
      "channel": 1,
      "note": 82,
      "start": 32.1222,
      "duration": 0.0165,
      "velocity": 100,
      "chip": "ym2612"
    },
    {
      "channel": 0,
      "note": 39,
      "start": 32.1319,
      "duration": 0.0161,
      "velocity": 115,
      "chip": "ym2612"
    },
    {
      "channel": 2,
      "note": 66,
      "start": 32.1375,
      "duration": 0.0159,
      "velocity": 100,
      "chip": "ym2612"
    },
    {
      "channel": 0,
      "note": 40,
      "start": 32.148,
      "duration": 0.0161,
      "velocity": 115,
      "chip": "ym2612"
    },
    {
      "channel": 2,
      "note": 66,
      "start": 32.1534,
      "duration": 0.0161,
      "velocity": 100,
      "chip": "ym2612"
    },
    {
      "channel": 0,
      "note": 40,
      "start": 32.164,
      "duration": 0.0161,
      "velocity": 115,
      "chip": "ym2612"
    },
    {
      "channel": 2,
      "note": 66,
      "start": 32.1695,
      "duration": 0.016,
      "velocity": 100,
      "chip": "ym2612"
    },
    {
      "channel": 0,
      "note": 40,
      "start": 32.1801,
      "duration": 0.0161,
      "velocity": 115,
      "chip": "ym2612"
    },
    {
      "channel": 2,
      "note": 66,
      "start": 32.1855,
      "duration": 0.0161,
      "velocity": 100,
      "chip": "ym2612"
    },
    {
      "channel": 0,
      "note": 41,
      "start": 32.1962,
      "duration": 0.0161,
      "velocity": 115,
      "chip": "ym2612"
    },
    {
      "channel": 2,
      "note": 66,
      "start": 32.2016,
      "duration": 0.0155,
      "velocity": 100,
      "chip": "ym2612"
    },
    {
      "channel": 0,
      "note": 41,
      "start": 32.2124,
      "duration": 0.0179,
      "velocity": 124,
      "chip": "ym2612"
    },
    {
      "channel": 2,
      "note": 66,
      "start": 32.2171,
      "duration": 0.0191,
      "velocity": 100,
      "chip": "ym2612"
    },
    {
      "channel": 0,
      "note": 84,
      "start": 32.2303,
      "duration": 0.0143,
      "velocity": 124,
      "chip": "ym2612"
    },
    {
      "channel": 3,
      "note": 78,
      "start": 32.2347,
      "duration": 0.0136,
      "velocity": 100,
      "chip": "ym2612"
    },
    {
      "channel": 2,
      "note": 56,
      "start": 32.2363,
      "duration": 0.0132,
      "velocity": 100,
      "chip": "ym2612"
    },
    {
      "channel": 1,
      "note": 82,
      "start": 32.2378,
      "duration": 0.0132,
      "velocity": 100,
      "chip": "ym2612"
    },
    {
      "channel": 0,
      "note": 82,
      "start": 32.2446,
      "duration": 0.016,
      "velocity": 124,
      "chip": "ym2612"
    },
    {
      "channel": 3,
      "note": 78,
      "start": 32.2483,
      "duration": 0.016,
      "velocity": 100,
      "chip": "ym2612"
    },
    {
      "channel": 2,
      "note": 56,
      "start": 32.2495,
      "duration": 0.0159,
      "velocity": 100,
      "chip": "ym2612"
    },
    {
      "channel": 1,
      "note": 82,
      "start": 32.251,
      "duration": 0.0156,
      "velocity": 100,
      "chip": "ym2612"
    },
    {
      "channel": 0,
      "note": 80,
      "start": 32.2607,
      "duration": 0.0161,
      "velocity": 124,
      "chip": "ym2612"
    },
    {
      "channel": 3,
      "note": 78,
      "start": 32.2643,
      "duration": 0.0161,
      "velocity": 100,
      "chip": "ym2612"
    },
    {
      "channel": 2,
      "note": 56,
      "start": 32.2654,
      "duration": 0.0161,
      "velocity": 100,
      "chip": "ym2612"
    },
    {
      "channel": 1,
      "note": 82,
      "start": 32.2666,
      "duration": 0.0161,
      "velocity": 100,
      "chip": "ym2612"
    },
    {
      "channel": 0,
      "note": 77,
      "start": 32.2768,
      "duration": 0.0161,
      "velocity": 124,
      "chip": "ym2612"
    },
    {
      "channel": 3,
      "note": 78,
      "start": 32.2804,
      "duration": 0.0161,
      "velocity": 100,
      "chip": "ym2612"
    },
    {
      "channel": 2,
      "note": 56,
      "start": 32.2815,
      "duration": 0.0161,
      "velocity": 100,
      "chip": "ym2612"
    },
    {
      "channel": 1,
      "note": 82,
      "start": 32.2827,
      "duration": 0.0161,
      "velocity": 100,
      "chip": "ym2612"
    },
    {
      "channel": 0,
      "note": 75,
      "start": 32.2929,
      "duration": 0.0161,
      "velocity": 124,
      "chip": "ym2612"
    },
    {
      "channel": 3,
      "note": 78,
      "start": 32.2965,
      "duration": 0.0161,
      "velocity": 100,
      "chip": "ym2612"
    },
    {
      "channel": 2,
      "note": 56,
      "start": 32.2976,
      "duration": 0.0161,
      "velocity": 100,
      "chip": "ym2612"
    },
    {
      "channel": 1,
      "note": 82,
      "start": 32.2988,
      "duration": 0.0161,
      "velocity": 100,
      "chip": "ym2612"
    },
    {
      "channel": 0,
      "note": 72,
      "start": 32.309,
      "duration": 0.0161,
      "velocity": 124,
      "chip": "ym2612"
    },
    {
      "channel": 3,
      "note": 78,
      "start": 32.3126,
      "duration": 0.0161,
      "velocity": 100,
      "chip": "ym2612"
    },
    {
      "channel": 2,
      "note": 56,
      "start": 32.3137,
      "duration": 0.0161,
      "velocity": 100,
      "chip": "ym2612"
    },
    {
      "channel": 1,
      "note": 82,
      "start": 32.3149,
      "duration": 0.0161,
      "velocity": 100,
      "chip": "ym2612"
    },
    {
      "channel": 0,
      "note": 70,
      "start": 32.3251,
      "duration": 0.0161,
      "velocity": 124,
      "chip": "ym2612"
    },
    {
      "channel": 3,
      "note": 78,
      "start": 32.3287,
      "duration": 0.0167,
      "velocity": 100,
      "chip": "ym2612"
    },
    {
      "channel": 2,
      "note": 56,
      "start": 32.3298,
      "duration": 0.0167,
      "velocity": 100,
      "chip": "ym2612"
    },
    {
      "channel": 1,
      "note": 82,
      "start": 32.331,
      "duration": 0.0167,
      "velocity": 100,
      "chip": "ym2612"
    },
    {
      "channel": 0,
      "note": 68,
      "start": 32.3411,
      "duration": 0.0162,
      "velocity": 124,
      "chip": "ym2612"
    },
    {
      "channel": 5,
      "note": 78,
      "start": 32.3427,
      "duration": 0.0158,
      "velocity": 100,
      "chip": "ym2612"
    },
    {
      "channel": 4,
      "note": 82,
      "start": 32.3441,
      "duration": 0.0156,
      "velocity": 100,
      "chip": "ym2612"
    },
    {
      "channel": 2,
      "note": 56,
      "start": 32.3465,
      "duration": 0.0156,
      "velocity": 100,
      "chip": "ym2612"
    },
    {
      "channel": 0,
      "note": 65,
      "start": 32.3573,
      "duration": 0.0161,
      "velocity": 124,
      "chip": "ym2612"
    },
    {
      "channel": 5,
      "note": 78,
      "start": 32.3585,
      "duration": 0.016,
      "velocity": 100,
      "chip": "ym2612"
    },
    {
      "channel": 4,
      "note": 82,
      "start": 32.3598,
      "duration": 0.016,
      "velocity": 100,
      "chip": "ym2612"
    },
    {
      "channel": 2,
      "note": 56,
      "start": 32.3621,
      "duration": 0.016,
      "velocity": 100,
      "chip": "ym2612"
    },
    {
      "channel": 0,
      "note": 63,
      "start": 32.3734,
      "duration": 0.0153,
      "velocity": 1,
      "chip": "ym2612"
    },
    {
      "channel": 5,
      "note": 78,
      "start": 32.3745,
      "duration": 0.0153,
      "velocity": 100,
      "chip": "ym2612"
    },
    {
      "channel": 4,
      "note": 82,
      "start": 32.3757,
      "duration": 0.0153,
      "velocity": 100,
      "chip": "ym2612"
    },
    {
      "channel": 2,
      "note": 56,
      "start": 32.3781,
      "duration": 0.0153,
      "velocity": 100,
      "chip": "ym2612"
    },
    {
      "channel": 5,
      "note": 78,
      "start": 32.3898,
      "duration": 0.0153,
      "velocity": 100,
      "chip": "ym2612"
    },
    {
      "channel": 4,
      "note": 82,
      "start": 32.391,
      "duration": 0.0153,
      "velocity": 100,
      "chip": "ym2612"
    },
    {
      "channel": 2,
      "note": 56,
      "start": 32.3934,
      "duration": 0.0153,
      "velocity": 100,
      "chip": "ym2612"
    },
    {
      "channel": 5,
      "note": 78,
      "start": 32.4051,
      "duration": 0.0161,
      "velocity": 100,
      "chip": "ym2612"
    },
    {
      "channel": 4,
      "note": 82,
      "start": 32.4063,
      "duration": 0.0161,
      "velocity": 100,
      "chip": "ym2612"
    },
    {
      "channel": 2,
      "note": 56,
      "start": 32.4086,
      "duration": 0.0161,
      "velocity": 100,
      "chip": "ym2612"
    },
    {
      "channel": 5,
      "note": 78,
      "start": 32.4212,
      "duration": 0.0196,
      "velocity": 100,
      "chip": "ym2612"
    },
    {
      "channel": 4,
      "note": 82,
      "start": 32.4224,
      "duration": 0.0197,
      "velocity": 100,
      "chip": "ym2612"
    },
    {
      "channel": 2,
      "note": 56,
      "start": 32.4247,
      "duration": 0.0202,
      "velocity": 100,
      "chip": "ym2612"
    },
    {
      "channel": 0,
      "note": 36,
      "start": 32.4396,
      "duration": 0.0143,
      "velocity": 115,
      "chip": "ym2612"
    },
    {
      "channel": 5,
      "note": 78,
      "start": 32.4408,
      "duration": 0.0143,
      "velocity": 100,
      "chip": "ym2612"
    },
    {
      "channel": 4,
      "note": 82,
      "start": 32.442,
      "duration": 0.0143,
      "velocity": 100,
      "chip": "ym2612"
    },
    {
      "channel": 3,
      "note": 73,
      "start": 32.4435,
      "duration": 0.0141,
      "velocity": 100,
      "chip": "ym2612"
    },
    {
      "channel": 2,
      "note": 68,
      "start": 32.445,
      "duration": 0.0138,
      "velocity": 100,
      "chip": "ym2612"
    },
    {
      "channel": 1,
      "note": 78,
      "start": 32.4466,
      "duration": 0.0135,
      "velocity": 100,
      "chip": "ym2612"
    },
    {
      "channel": 0,
      "note": 36,
      "start": 32.4539,
      "duration": 0.0161,
      "velocity": 115,
      "chip": "ym2612"
    },
    {
      "channel": 3,
      "note": 73,
      "start": 32.4576,
      "duration": 0.016,
      "velocity": 100,
      "chip": "ym2612"
    },
    {
      "channel": 2,
      "note": 68,
      "start": 32.4588,
      "duration": 0.0159,
      "velocity": 100,
      "chip": "ym2612"
    },
    {
      "channel": 1,
      "note": 78,
      "start": 32.46,
      "duration": 0.0159,
      "velocity": 100,
      "chip": "ym2612"
    },
    {
      "channel": 0,
      "note": 37,
      "start": 32.47,
      "duration": 0.0165,
      "velocity": 115,
      "chip": "ym2612"
    },
    {
      "channel": 3,
      "note": 73,
      "start": 32.4736,
      "duration": 0.0164,
      "velocity": 100,
      "chip": "ym2612"
    },
    {
      "channel": 2,
      "note": 68,
      "start": 32.4747,
      "duration": 0.0164,
      "velocity": 100,
      "chip": "ym2612"
    },
    {
      "channel": 1,
      "note": 78,
      "start": 32.4759,
      "duration": 0.0164,
      "velocity": 100,
      "chip": "ym2612"
    },
    {
      "channel": 0,
      "note": 37,
      "start": 32.4865,
      "duration": 0.0163,
      "velocity": 115,
      "chip": "ym2612"
    },
    {
      "channel": 3,
      "note": 73,
      "start": 32.49,
      "duration": 0.0163,
      "velocity": 100,
      "chip": "ym2612"
    },
    {
      "channel": 2,
      "note": 68,
      "start": 32.4911,
      "duration": 0.0163,
      "velocity": 100,
      "chip": "ym2612"
    },
    {
      "channel": 1,
      "note": 78,
      "start": 32.4924,
      "duration": 0.0163,
      "velocity": 100,
      "chip": "ym2612"
    },
    {
      "channel": 0,
      "note": 38,
      "start": 32.5028,
      "duration": 0.0161,
      "velocity": 115,
      "chip": "ym2612"
    },
    {
      "channel": 3,
      "note": 73,
      "start": 32.5063,
      "duration": 0.0161,
      "velocity": 100,
      "chip": "ym2612"
    },
    {
      "channel": 2,
      "note": 68,
      "start": 32.5075,
      "duration": 0.0161,
      "velocity": 100,
      "chip": "ym2612"
    },
    {
      "channel": 1,
      "note": 78,
      "start": 32.5086,
      "duration": 0.0161,
      "velocity": 100,
      "chip": "ym2612"
    },
    {
      "channel": 0,
      "note": 38,
      "start": 32.5189,
      "duration": 0.0179,
      "velocity": 115,
      "chip": "ym2612"
    },
    {
      "channel": 3,
      "note": 73,
      "start": 32.5224,
      "duration": 0.0179,
      "velocity": 100,
      "chip": "ym2612"
    },
    {
      "channel": 2,
      "note": 68,
      "start": 32.5236,
      "duration": 0.0179,
      "velocity": 100,
      "chip": "ym2612"
    },
    {
      "channel": 1,
      "note": 78,
      "start": 32.5247,
      "duration": 0.018,
      "velocity": 100,
      "chip": "ym2612"
    },
    {
      "channel": 0,
      "note": 36,
      "start": 32.5368,
      "duration": 0.0139,
      "velocity": 115,
      "chip": "ym2612"
    },
    {
      "channel": 3,
      "note": 73,
      "start": 32.5404,
      "duration": 0.0149,
      "velocity": 100,
      "chip": "ym2612"
    },
    {
      "channel": 2,
      "note": 68,
      "start": 32.5415,
      "duration": 0.015,
      "velocity": 100,
      "chip": "ym2612"
    },
    {
      "channel": 1,
      "note": 78,
      "start": 32.5427,
      "duration": 0.015,
      "velocity": 100,
      "chip": "ym2612"
    },
    {
      "channel": 0,
      "note": 36,
      "start": 32.5507,
      "duration": 0.0159,
      "velocity": 115,
      "chip": "ym2612"
    },
    {
      "channel": 5,
      "note": 78,
      "start": 32.5526,
      "duration": 0.0159,
      "velocity": 100,
      "chip": "ym2612"
    },
    {
      "channel": 4,
      "note": 82,
      "start": 32.5541,
      "duration": 0.0156,
      "velocity": 100,
      "chip": "ym2612"
    },
    {
      "channel": 2,
      "note": 68,
      "start": 32.5565,
      "duration": 0.0155,
      "velocity": 100,
      "chip": "ym2612"
    },
    {
      "channel": 0,
      "note": 37,
      "start": 32.5666,
      "duration": 0.0161,
      "velocity": 115,
      "chip": "ym2612"
    },
    {
      "channel": 5,
      "note": 78,
      "start": 32.5684,
      "duration": 0.0156,
      "velocity": 100,
      "chip": "ym2612"
    },
    {
      "channel": 4,
      "note": 82,
      "start": 32.5697,
      "duration": 0.016,
      "velocity": 100,
      "chip": "ym2612"
    },
    {
      "channel": 2,
      "note": 68,
      "start": 32.5721,
      "duration": 0.016,
      "velocity": 100,
      "chip": "ym2612"
    },
    {
      "channel": 0,
      "note": 37,
      "start": 32.5827,
      "duration": 0.0161,
      "velocity": 115,
      "chip": "ym2612"
    },
    {
      "channel": 5,
      "note": 78,
      "start": 32.5841,
      "duration": 0.0159,
      "velocity": 100,
      "chip": "ym2612"
    },
    {
      "channel": 4,
      "note": 82,
      "start": 32.5857,
      "duration": 0.016,
      "velocity": 100,
      "chip": "ym2612"
    },
    {
      "channel": 2,
      "note": 68,
      "start": 32.588,
      "duration": 0.0161,
      "velocity": 100,
      "chip": "ym2612"
    },
    {
      "channel": 0,
      "note": 38,
      "start": 32.5988,
      "duration": 0.0161,
      "velocity": 115,
      "chip": "ym2612"
    },
    {
      "channel": 5,
      "note": 78,
      "start": 32.6,
      "duration": 0.0161,
      "velocity": 100,
      "chip": "ym2612"
    },
    {
      "channel": 4,
      "note": 82,
      "start": 32.6017,
      "duration": 0.0158,
      "velocity": 100,
      "chip": "ym2612"
    },
    {
      "channel": 2,
      "note": 68,
      "start": 32.6041,
      "duration": 0.016,
      "velocity": 100,
      "chip": "ym2612"
    },
    {
      "channel": 0,
      "note": 38,
      "start": 32.6149,
      "duration": 0.0161,
      "velocity": 115,
      "chip": "ym2612"
    },
    {
      "channel": 5,
      "note": 78,
      "start": 32.6161,
      "duration": 0.0161,
      "velocity": 100,
      "chip": "ym2612"
    },
    {
      "channel": 4,
      "note": 82,
      "start": 32.6175,
      "duration": 0.0159,
      "velocity": 100,
      "chip": "ym2612"
    },
    {
      "channel": 2,
      "note": 68,
      "start": 32.6202,
      "duration": 0.0161,
      "velocity": 100,
      "chip": "ym2612"
    },
    {
      "channel": 0,
      "note": 39,
      "start": 32.631,
      "duration": 0.0179,
      "velocity": 115,
      "chip": "ym2612"
    },
    {
      "channel": 5,
      "note": 78,
      "start": 32.6322,
      "duration": 0.0179,
      "velocity": 100,
      "chip": "ym2612"
    },
    {
      "channel": 4,
      "note": 82,
      "start": 32.6334,
      "duration": 0.0185,
      "velocity": 100,
      "chip": "ym2612"
    },
    {
      "channel": 2,
      "note": 68,
      "start": 32.6363,
      "duration": 0.0186,
      "velocity": 100,
      "chip": "ym2612"
    },
    {
      "channel": 0,
      "note": 36,
      "start": 32.649,
      "duration": 0.0143,
      "velocity": 115,
      "chip": "ym2612"
    },
    {
      "channel": 5,
      "note": 78,
      "start": 32.6501,
      "duration": 0.0144,
      "velocity": 100,
      "chip": "ym2612"
    },
    {
      "channel": 4,
      "note": 82,
      "start": 32.6519,
      "duration": 0.0137,
      "velocity": 100,
      "chip": "ym2612"
    },
    {
      "channel": 3,
      "note": 78,
      "start": 32.6534,
      "duration": 0.0135,
      "velocity": 100,
      "chip": "ym2612"
    },
    {
      "channel": 2,
      "note": 58,
      "start": 32.6549,
      "duration": 0.0138,
      "velocity": 100,
      "chip": "ym2612"
    },
    {
      "channel": 1,
      "note": 82,
      "start": 32.6564,
      "duration": 0.0135,
      "velocity": 100,
      "chip": "ym2612"
    },
    {
      "channel": 0,
      "note": 36,
      "start": 32.6633,
      "duration": 0.016,
      "velocity": 115,
      "chip": "ym2612"
    },
    {
      "channel": 3,
      "note": 78,
      "start": 32.6669,
      "duration": 0.0159,
      "velocity": 100,
      "chip": "ym2612"
    },
    {
      "channel": 2,
      "note": 58,
      "start": 32.6688,
      "duration": 0.0155,
      "velocity": 100,
      "chip": "ym2612"
    },
    {
      "channel": 1,
      "note": 82,
      "start": 32.67,
      "duration": 0.0158,
      "velocity": 100,
      "chip": "ym2612"
    },
    {
      "channel": 0,
      "note": 37,
      "start": 32.6793,
      "duration": 0.0161,
      "velocity": 115,
      "chip": "ym2612"
    },
    {
      "channel": 3,
      "note": 78,
      "start": 32.6828,
      "duration": 0.0161,
      "velocity": 100,
      "chip": "ym2612"
    },
    {
      "channel": 2,
      "note": 58,
      "start": 32.6842,
      "duration": 0.0159,
      "velocity": 100,
      "chip": "ym2612"
    },
    {
      "channel": 1,
      "note": 82,
      "start": 32.6857,
      "duration": 0.0161,
      "velocity": 100,
      "chip": "ym2612"
    },
    {
      "channel": 0,
      "note": 37,
      "start": 32.6954,
      "duration": 0.0161,
      "velocity": 115,
      "chip": "ym2612"
    },
    {
      "channel": 3,
      "note": 78,
      "start": 32.699,
      "duration": 0.0161,
      "velocity": 100,
      "chip": "ym2612"
    },
    {
      "channel": 2,
      "note": 58,
      "start": 32.7001,
      "duration": 0.0161,
      "velocity": 100,
      "chip": "ym2612"
    },
    {
      "channel": 1,
      "note": 82,
      "start": 32.7019,
      "duration": 0.016,
      "velocity": 100,
      "chip": "ym2612"
    },
    {
      "channel": 0,
      "note": 38,
      "start": 32.7115,
      "duration": 0.0161,
      "velocity": 115,
      "chip": "ym2612"
    },
    {
      "channel": 3,
      "note": 78,
      "start": 32.7151,
      "duration": 0.0161,
      "velocity": 100,
      "chip": "ym2612"
    },
    {
      "channel": 2,
      "note": 58,
      "start": 32.7162,
      "duration": 0.0161,
      "velocity": 100,
      "chip": "ym2612"
    },
    {
      "channel": 1,
      "note": 82,
      "start": 32.7179,
      "duration": 0.0155,
      "velocity": 100,
      "chip": "ym2612"
    },
    {
      "channel": 0,
      "note": 38,
      "start": 32.7276,
      "duration": 0.0161,
      "velocity": 115,
      "chip": "ym2612"
    },
    {
      "channel": 3,
      "note": 78,
      "start": 32.7312,
      "duration": 0.0161,
      "velocity": 100,
      "chip": "ym2612"
    },
    {
      "channel": 2,
      "note": 58,
      "start": 32.7323,
      "duration": 0.0161,
      "velocity": 100,
      "chip": "ym2612"
    },
    {
      "channel": 1,
      "note": 82,
      "start": 32.7334,
      "duration": 0.0161,
      "velocity": 100,
      "chip": "ym2612"
    },
    {
      "channel": 0,
      "note": 39,
      "start": 32.7437,
      "duration": 0.0161,
      "velocity": 115,
      "chip": "ym2612"
    },
    {
      "channel": 3,
      "note": 78,
      "start": 32.7473,
      "duration": 0.0168,
      "velocity": 100,
      "chip": "ym2612"
    },
    {
      "channel": 2,
      "note": 58,
      "start": 32.7484,
      "duration": 0.0168,
      "velocity": 100,
      "chip": "ym2612"
    },
    {
      "channel": 1,
      "note": 82,
      "start": 32.7495,
      "duration": 0.0168,
      "velocity": 100,
      "chip": "ym2612"
    },
    {
      "channel": 0,
      "note": 39,
      "start": 32.7598,
      "duration": 0.0161,
      "velocity": 115,
      "chip": "ym2612"
    },
    {
      "channel": 5,
      "note": 73,
      "start": 32.7613,
      "duration": 0.0158,
      "velocity": 100,
      "chip": "ym2612"
    },
    {
      "channel": 4,
      "note": 78,
      "start": 32.7628,
      "duration": 0.0156,
      "velocity": 100,
      "chip": "ym2612"
    },
    {
      "channel": 2,
      "note": 58,
      "start": 32.7652,
      "duration": 0.0155,
      "velocity": 100,
      "chip": "ym2612"
    },
    {
      "channel": 0,
      "note": 40,
      "start": 32.7759,
      "duration": 0.0162,
      "velocity": 115,
      "chip": "ym2612"
    },
    {
      "channel": 5,
      "note": 73,
      "start": 32.7771,
      "duration": 0.016,
      "velocity": 100,
      "chip": "ym2612"
    },
    {
      "channel": 4,
      "note": 78,
      "start": 32.7784,
      "duration": 0.016,
      "velocity": 100,
      "chip": "ym2612"
    },
    {
      "channel": 2,
      "note": 58,
      "start": 32.7807,
      "duration": 0.016,
      "velocity": 100,
      "chip": "ym2612"
    },
    {
      "channel": 0,
      "note": 40,
      "start": 32.792,
      "duration": 0.0161,
      "velocity": 115,
      "chip": "ym2612"
    },
    {
      "channel": 5,
      "note": 73,
      "start": 32.7932,
      "duration": 0.0161,
      "velocity": 100,
      "chip": "ym2612"
    },
    {
      "channel": 4,
      "note": 78,
      "start": 32.7944,
      "duration": 0.0161,
      "velocity": 100,
      "chip": "ym2612"
    },
    {
      "channel": 2,
      "note": 58,
      "start": 32.7967,
      "duration": 0.0162,
      "velocity": 100,
      "chip": "ym2612"
    },
    {
      "channel": 0,
      "note": 40,
      "start": 32.8081,
      "duration": 0.0161,
      "velocity": 115,
      "chip": "ym2612"
    },
    {
      "channel": 5,
      "note": 73,
      "start": 32.8093,
      "duration": 0.0161,
      "velocity": 100,
      "chip": "ym2612"
    },
    {
      "channel": 4,
      "note": 78,
      "start": 32.8105,
      "duration": 0.0161,
      "velocity": 100,
      "chip": "ym2612"
    },
    {
      "channel": 2,
      "note": 58,
      "start": 32.8128,
      "duration": 0.0161,
      "velocity": 100,
      "chip": "ym2612"
    },
    {
      "channel": 0,
      "note": 41,
      "start": 32.8242,
      "duration": 0.0161,
      "velocity": 115,
      "chip": "ym2612"
    },
    {
      "channel": 5,
      "note": 73,
      "start": 32.8254,
      "duration": 0.0161,
      "velocity": 100,
      "chip": "ym2612"
    },
    {
      "channel": 4,
      "note": 78,
      "start": 32.8266,
      "duration": 0.0161,
      "velocity": 100,
      "chip": "ym2612"
    },
    {
      "channel": 2,
      "note": 58,
      "start": 32.8289,
      "duration": 0.0161,
      "velocity": 100,
      "chip": "ym2612"
    },
    {
      "channel": 0,
      "note": 41,
      "start": 32.8403,
      "duration": 0.0179,
      "velocity": 115,
      "chip": "ym2612"
    },
    {
      "channel": 5,
      "note": 73,
      "start": 32.8415,
      "duration": 0.018,
      "velocity": 100,
      "chip": "ym2612"
    },
    {
      "channel": 4,
      "note": 78,
      "start": 32.8427,
      "duration": 0.018,
      "velocity": 100,
      "chip": "ym2612"
    },
    {
      "channel": 2,
      "note": 58,
      "start": 32.845,
      "duration": 0.0186,
      "velocity": 100,
      "chip": "ym2612"
    },
    {
      "channel": 0,
      "note": 36,
      "start": 32.8583,
      "duration": 0.0143,
      "velocity": 115,
      "chip": "ym2612"
    },
    {
      "channel": 5,
      "note": 73,
      "start": 32.8595,
      "duration": 0.0143,
      "velocity": 100,
      "chip": "ym2612"
    },
    {
      "channel": 4,
      "note": 78,
      "start": 32.8607,
      "duration": 0.0143,
      "velocity": 100,
      "chip": "ym2612"
    },
    {
      "channel": 3,
      "note": 73,
      "start": 32.8622,
      "duration": 0.014,
      "velocity": 100,
      "chip": "ym2612"
    },
    {
      "channel": 2,
      "note": 70,
      "start": 32.8637,
      "duration": 0.0137,
      "velocity": 100,
      "chip": "ym2612"
    },
    {
      "channel": 1,
      "note": 78,
      "start": 32.8652,
      "duration": 0.0135,
      "velocity": 100,
      "chip": "ym2612"
    },
    {
      "channel": 0,
      "note": 36,
      "start": 32.8726,
      "duration": 0.016,
      "velocity": 115,
      "chip": "ym2612"
    },
    {
      "channel": 3,
      "note": 73,
      "start": 32.8762,
      "duration": 0.016,
      "velocity": 100,
      "chip": "ym2612"
    },
    {
      "channel": 2,
      "note": 70,
      "start": 32.8774,
      "duration": 0.0159,
      "velocity": 100,
      "chip": "ym2612"
    },
    {
      "channel": 1,
      "note": 78,
      "start": 32.8787,
      "duration": 0.0158,
      "velocity": 100,
      "chip": "ym2612"
    },
    {
      "channel": 0,
      "note": 37,
      "start": 32.8886,
      "duration": 0.0161,
      "velocity": 115,
      "chip": "ym2612"
    },
    {
      "channel": 3,
      "note": 73,
      "start": 32.8922,
      "duration": 0.0161,
      "velocity": 100,
      "chip": "ym2612"
    },
    {
      "channel": 2,
      "note": 70,
      "start": 32.8933,
      "duration": 0.0161,
      "velocity": 100,
      "chip": "ym2612"
    },
    {
      "channel": 1,
      "note": 78,
      "start": 32.8945,
      "duration": 0.0161,
      "velocity": 100,
      "chip": "ym2612"
    },
    {
      "channel": 0,
      "note": 37,
      "start": 32.9047,
      "duration": 0.0161,
      "velocity": 115,
      "chip": "ym2612"
    },
    {
      "channel": 2,
      "note": 70,
      "start": 32.9094,
      "duration": 0.0161,
      "velocity": 100,
      "chip": "ym2612"
    },
    {
      "channel": 0,
      "note": 38,
      "start": 32.9208,
      "duration": 0.0162,
      "velocity": 115,
      "chip": "ym2612"
    },
    {
      "channel": 2,
      "note": 70,
      "start": 32.9255,
      "duration": 0.0162,
      "velocity": 100,
      "chip": "ym2612"
    },
    {
      "channel": 0,
      "note": 38,
      "start": 32.937,
      "duration": 0.0163,
      "velocity": 115,
      "chip": "ym2612"
    },
    {
      "channel": 2,
      "note": 70,
      "start": 32.9417,
      "duration": 0.0167,
      "velocity": 100,
      "chip": "ym2612"
    },
    {
      "channel": 0,
      "note": 39,
      "start": 32.9533,
      "duration": 0.0163,
      "velocity": 115,
      "chip": "ym2612"
    },
    {
      "channel": 3,
      "note": 78,
      "start": 32.9572,
      "duration": 0.0167,
      "velocity": 100,
      "chip": "ym2612"
    },
    {
      "channel": 2,
      "note": 70,
      "start": 32.9583,
      "duration": 0.0168,
      "velocity": 100,
      "chip": "ym2612"
    },
    {
      "channel": 1,
      "note": 82,
      "start": 32.9598,
      "duration": 0.0166,
      "velocity": 100,
      "chip": "ym2612"
    },
    {
      "channel": 0,
      "note": 39,
      "start": 32.9696,
      "duration": 0.0162,
      "velocity": 115,
      "chip": "ym2612"
    },
    {
      "channel": 5,
      "note": 78,
      "start": 32.9711,
      "duration": 0.016,
      "velocity": 100,
      "chip": "ym2612"
    },
    {
      "channel": 4,
      "note": 82,
      "start": 32.9726,
      "duration": 0.0157,
      "velocity": 100,
      "chip": "ym2612"
    },
    {
      "channel": 3,
      "note": 78,
      "start": 32.9739,
      "duration": 0.0156,
      "velocity": 100,
      "chip": "ym2612"
    },
    {
      "channel": 2,
      "note": 70,
      "start": 32.9751,
      "duration": 0.0156,
      "velocity": 100,
      "chip": "ym2612"
    },
    {
      "channel": 1,
      "note": 82,
      "start": 32.9764,
      "duration": 0.0155,
      "velocity": 100,
      "chip": "ym2612"
    },
    {
      "channel": 0,
      "note": 40,
      "start": 32.9858,
      "duration": 0.016,
      "velocity": 115,
      "chip": "ym2612"
    },
    {
      "channel": 5,
      "note": 78,
      "start": 32.9871,
      "duration": 0.016,
      "velocity": 100,
      "chip": "ym2612"
    },
    {
      "channel": 4,
      "note": 82,
      "start": 32.9883,
      "duration": 0.016,
      "velocity": 100,
      "chip": "ym2612"
    },
    {
      "channel": 3,
      "note": 78,
      "start": 32.9895,
      "duration": 0.016,
      "velocity": 100,
      "chip": "ym2612"
    },
    {
      "channel": 2,
      "note": 70,
      "start": 32.9907,
      "duration": 0.016,
      "velocity": 100,
      "chip": "ym2612"
    },
    {
      "channel": 1,
      "note": 82,
      "start": 32.9919,
      "duration": 0.016,
      "velocity": 100,
      "chip": "ym2612"
    },
    {
      "channel": 0,
      "note": 40,
      "start": 33.0018,
      "duration": 0.0161,
      "velocity": 115,
      "chip": "ym2612"
    },
    {
      "channel": 5,
      "note": 78,
      "start": 33.0031,
      "duration": 0.0161,
      "velocity": 100,
      "chip": "ym2612"
    },
    {
      "channel": 4,
      "note": 82,
      "start": 33.0043,
      "duration": 0.0161,
      "velocity": 100,
      "chip": "ym2612"
    },
    {
      "channel": 3,
      "note": 78,
      "start": 33.0055,
      "duration": 0.0161,
      "velocity": 100,
      "chip": "ym2612"
    },
    {
      "channel": 2,
      "note": 70,
      "start": 33.0067,
      "duration": 0.0161,
      "velocity": 100,
      "chip": "ym2612"
    },
    {
      "channel": 1,
      "note": 82,
      "start": 33.0079,
      "duration": 0.016,
      "velocity": 100,
      "chip": "ym2612"
    },
    {
      "channel": 0,
      "note": 40,
      "start": 33.018,
      "duration": 0.0155,
      "velocity": 115,
      "chip": "ym2612"
    },
    {
      "channel": 5,
      "note": 78,
      "start": 33.0192,
      "duration": 0.0161,
      "velocity": 100,
      "chip": "ym2612"
    },
    {
      "channel": 4,
      "note": 82,
      "start": 33.0204,
      "duration": 0.0161,
      "velocity": 100,
      "chip": "ym2612"
    },
    {
      "channel": 3,
      "note": 78,
      "start": 33.0216,
      "duration": 0.0161,
      "velocity": 100,
      "chip": "ym2612"
    },
    {
      "channel": 2,
      "note": 70,
      "start": 33.0228,
      "duration": 0.0161,
      "velocity": 100,
      "chip": "ym2612"
    },
    {
      "channel": 1,
      "note": 82,
      "start": 33.0239,
      "duration": 0.0161,
      "velocity": 100,
      "chip": "ym2612"
    },
    {
      "channel": 0,
      "note": 41,
      "start": 33.0335,
      "duration": 0.0161,
      "velocity": 115,
      "chip": "ym2612"
    },
    {
      "channel": 5,
      "note": 78,
      "start": 33.0353,
      "duration": 0.0161,
      "velocity": 100,
      "chip": "ym2612"
    },
    {
      "channel": 4,
      "note": 82,
      "start": 33.0365,
      "duration": 0.0161,
      "velocity": 100,
      "chip": "ym2612"
    },
    {
      "channel": 3,
      "note": 78,
      "start": 33.0377,
      "duration": 0.0161,
      "velocity": 100,
      "chip": "ym2612"
    },
    {
      "channel": 2,
      "note": 70,
      "start": 33.0388,
      "duration": 0.0161,
      "velocity": 100,
      "chip": "ym2612"
    },
    {
      "channel": 1,
      "note": 82,
      "start": 33.04,
      "duration": 0.0161,
      "velocity": 100,
      "chip": "ym2612"
    },
    {
      "channel": 0,
      "note": 41,
      "start": 33.0496,
      "duration": 0.0184,
      "velocity": 124,
      "chip": "ym2612"
    },
    {
      "channel": 5,
      "note": 78,
      "start": 33.0514,
      "duration": 0.018,
      "velocity": 100,
      "chip": "ym2612"
    },
    {
      "channel": 4,
      "note": 82,
      "start": 33.0526,
      "duration": 0.0179,
      "velocity": 100,
      "chip": "ym2612"
    },
    {
      "channel": 3,
      "note": 78,
      "start": 33.0538,
      "duration": 0.0179,
      "velocity": 100,
      "chip": "ym2612"
    },
    {
      "channel": 2,
      "note": 70,
      "start": 33.0549,
      "duration": 0.0183,
      "velocity": 100,
      "chip": "ym2612"
    },
    {
      "channel": 1,
      "note": 82,
      "start": 33.0561,
      "duration": 0.0183,
      "velocity": 100,
      "chip": "ym2612"
    },
    {
      "channel": 0,
      "note": 84,
      "start": 33.0681,
      "duration": 0.0138,
      "velocity": 124,
      "chip": "ym2612"
    },
    {
      "channel": 5,
      "note": 78,
      "start": 33.0694,
      "duration": 0.0137,
      "velocity": 100,
      "chip": "ym2612"
    },
    {
      "channel": 4,
      "note": 82,
      "start": 33.0705,
      "duration": 0.0143,
      "velocity": 100,
      "chip": "ym2612"
    },
    {
      "channel": 2,
      "note": 54,
      "start": 33.0732,
      "duration": 0.0141,
      "velocity": 100,
      "chip": "ym2612"
    },
    {
      "channel": 0,
      "note": 82,
      "start": 33.0819,
      "duration": 0.016,
      "velocity": 124,
      "chip": "ym2612"
    },
    {
      "channel": 2,
      "note": 54,
      "start": 33.0873,
      "duration": 0.0159,
      "velocity": 100,
      "chip": "ym2612"
    },
    {
      "channel": 0,
      "note": 80,
      "start": 33.098,
      "duration": 0.0161,
      "velocity": 124,
      "chip": "ym2612"
    },
    {
      "channel": 2,
      "note": 54,
      "start": 33.1032,
      "duration": 0.0161,
      "velocity": 100,
      "chip": "ym2612"
    },
    {
      "channel": 0,
      "note": 77,
      "start": 33.114,
      "duration": 0.0161,
      "velocity": 124,
      "chip": "ym2612"
    },
    {
      "channel": 2,
      "note": 54,
      "start": 33.1193,
      "duration": 0.016,
      "velocity": 100,
      "chip": "ym2612"
    },
    {
      "channel": 0,
      "note": 75,
      "start": 33.1301,
      "duration": 0.0161,
      "velocity": 124,
      "chip": "ym2612"
    },
    {
      "channel": 2,
      "note": 54,
      "start": 33.1354,
      "duration": 0.0161,
      "velocity": 100,
      "chip": "ym2612"
    },
    {
      "channel": 0,
      "note": 72,
      "start": 33.1462,
      "duration": 0.0179,
      "velocity": 124,
      "chip": "ym2612"
    },
    {
      "channel": 2,
      "note": 54,
      "start": 33.1515,
      "duration": 0.0184,
      "velocity": 100,
      "chip": "ym2612"
    },
    {
      "channel": 0,
      "note": 84,
      "start": 33.1642,
      "duration": 0.0143,
      "velocity": 124,
      "chip": "ym2612"
    },
    {
      "channel": 3,
      "note": 80,
      "start": 33.1687,
      "duration": 0.0141,
      "velocity": 100,
      "chip": "ym2612"
    },
    {
      "channel": 2,
      "note": 54,
      "start": 33.1698,
      "duration": 0.0143,
      "velocity": 100,
      "chip": "ym2612"
    },
    {
      "channel": 1,
      "note": 83,
      "start": 33.1714,
      "duration": 0.0144,
      "velocity": 100,
      "chip": "ym2612"
    },
    {
      "channel": 0,
      "note": 82,
      "start": 33.1785,
      "duration": 0.016,
      "velocity": 124,
      "chip": "ym2612"
    },
    {
      "channel": 5,
      "note": 73,
      "start": 33.18,
      "duration": 0.0158,
      "velocity": 100,
      "chip": "ym2612"
    },
    {
      "channel": 4,
      "note": 78,
      "start": 33.1815,
      "duration": 0.0155,
      "velocity": 100,
      "chip": "ym2612"
    },
    {
      "channel": 3,
      "note": 80,
      "start": 33.1828,
      "duration": 0.0154,
      "velocity": 100,
      "chip": "ym2612"
    },
    {
      "channel": 2,
      "note": 54,
      "start": 33.1841,
      "duration": 0.0152,
      "velocity": 100,
      "chip": "ym2612"
    },
    {
      "channel": 1,
      "note": 83,
      "start": 33.1858,
      "duration": 0.0149,
      "velocity": 100,
      "chip": "ym2612"
    },
    {
      "channel": 0,
      "note": 80,
      "start": 33.1945,
      "duration": 0.0162,
      "velocity": 124,
      "chip": "ym2612"
    },
    {
      "channel": 5,
      "note": 73,
      "start": 33.1958,
      "duration": 0.016,
      "velocity": 100,
      "chip": "ym2612"
    },
    {
      "channel": 4,
      "note": 78,
      "start": 33.1971,
      "duration": 0.016,
      "velocity": 100,
      "chip": "ym2612"
    },
    {
      "channel": 3,
      "note": 80,
      "start": 33.1982,
      "duration": 0.016,
      "velocity": 100,
      "chip": "ym2612"
    },
    {
      "channel": 2,
      "note": 54,
      "start": 33.1993,
      "duration": 0.016,
      "velocity": 100,
      "chip": "ym2612"
    },
    {
      "channel": 1,
      "note": 83,
      "start": 33.2007,
      "duration": 0.0158,
      "velocity": 100,
      "chip": "ym2612"
    },
    {
      "channel": 0,
      "note": 77,
      "start": 33.2107,
      "duration": 0.0161,
      "velocity": 124,
      "chip": "ym2612"
    },
    {
      "channel": 5,
      "note": 73,
      "start": 33.2118,
      "duration": 0.0162,
      "velocity": 100,
      "chip": "ym2612"
    },
    {
      "channel": 4,
      "note": 78,
      "start": 33.213,
      "duration": 0.0162,
      "velocity": 100,
      "chip": "ym2612"
    },
    {
      "channel": 3,
      "note": 80,
      "start": 33.2142,
      "duration": 0.0162,
      "velocity": 100,
      "chip": "ym2612"
    },
    {
      "channel": 2,
      "note": 54,
      "start": 33.2153,
      "duration": 0.0162,
      "velocity": 100,
      "chip": "ym2612"
    },
    {
      "channel": 1,
      "note": 83,
      "start": 33.2165,
      "duration": 0.0161,
      "velocity": 100,
      "chip": "ym2612"
    },
    {
      "channel": 0,
      "note": 75,
      "start": 33.2268,
      "duration": 0.0161,
      "velocity": 124,
      "chip": "ym2612"
    },
    {
      "channel": 2,
      "note": 54,
      "start": 33.2315,
      "duration": 0.016,
      "velocity": 100,
      "chip": "ym2612"
    },
    {
      "channel": 0,
      "note": 72,
      "start": 33.2429,
      "duration": 0.0161,
      "velocity": 124,
      "chip": "ym2612"
    },
    {
      "channel": 2,
      "note": 54,
      "start": 33.2475,
      "duration": 0.0161,
      "velocity": 100,
      "chip": "ym2612"
    },
    {
      "channel": 0,
      "note": 70,
      "start": 33.259,
      "duration": 0.0179,
      "velocity": 115,
      "chip": "ym2612"
    },
    {
      "channel": 2,
      "note": 54,
      "start": 33.2636,
      "duration": 0.0193,
      "velocity": 100,
      "chip": "ym2612"
    },
    {
      "channel": 0,
      "note": 36,
      "start": 33.2769,
      "duration": 0.0143,
      "velocity": 115,
      "chip": "ym2612"
    },
    {
      "channel": 5,
      "note": 78,
      "start": 33.2784,
      "duration": 0.0141,
      "velocity": 100,
      "chip": "ym2612"
    },
    {
      "channel": 4,
      "note": 82,
      "start": 33.2799,
      "duration": 0.0138,
      "velocity": 100,
      "chip": "ym2612"
    },
    {
      "channel": 3,
      "note": 82,
      "start": 33.2814,
      "duration": 0.0136,
      "velocity": 100,
      "chip": "ym2612"
    },
    {
      "channel": 2,
      "note": 66,
      "start": 33.2829,
      "duration": 0.0132,
      "velocity": 100,
      "chip": "ym2612"
    },
    {
      "channel": 1,
      "note": 85,
      "start": 33.285,
      "duration": 0.0125,
      "velocity": 100,
      "chip": "ym2612"
    },
    {
      "channel": 0,
      "note": 36,
      "start": 33.2912,
      "duration": 0.016,
      "velocity": 115,
      "chip": "ym2612"
    },
    {
      "channel": 5,
      "note": 78,
      "start": 33.2925,
      "duration": 0.016,
      "velocity": 100,
      "chip": "ym2612"
    },
    {
      "channel": 4,
      "note": 82,
      "start": 33.2937,
      "duration": 0.0159,
      "velocity": 100,
      "chip": "ym2612"
    },
    {
      "channel": 3,
      "note": 82,
      "start": 33.295,
      "duration": 0.0158,
      "velocity": 100,
      "chip": "ym2612"
    },
    {
      "channel": 2,
      "note": 66,
      "start": 33.2962,
      "duration": 0.0158,
      "velocity": 100,
      "chip": "ym2612"
    },
    {
      "channel": 1,
      "note": 85,
      "start": 33.2974,
      "duration": 0.0157,
      "velocity": 100,
      "chip": "ym2612"
    },
    {
      "channel": 0,
      "note": 37,
      "start": 33.3072,
      "duration": 0.0161,
      "velocity": 115,
      "chip": "ym2612"
    },
    {
      "channel": 5,
      "note": 78,
      "start": 33.3084,
      "duration": 0.0161,
      "velocity": 100,
      "chip": "ym2612"
    },
    {
      "channel": 4,
      "note": 82,
      "start": 33.3096,
      "duration": 0.0161,
      "velocity": 100,
      "chip": "ym2612"
    },
    {
      "channel": 3,
      "note": 82,
      "start": 33.3108,
      "duration": 0.0161,
      "velocity": 100,
      "chip": "ym2612"
    },
    {
      "channel": 2,
      "note": 66,
      "start": 33.312,
      "duration": 0.0161,
      "velocity": 100,
      "chip": "ym2612"
    },
    {
      "channel": 1,
      "note": 85,
      "start": 33.3132,
      "duration": 0.0161,
      "velocity": 100,
      "chip": "ym2612"
    },
    {
      "channel": 0,
      "note": 37,
      "start": 33.3233,
      "duration": 0.0161,
      "velocity": 115,
      "chip": "ym2612"
    },
    {
      "channel": 5,
      "note": 78,
      "start": 33.3245,
      "duration": 0.0161,
      "velocity": 100,
      "chip": "ym2612"
    },
    {
      "channel": 4,
      "note": 82,
      "start": 33.3257,
      "duration": 0.0161,
      "velocity": 100,
      "chip": "ym2612"
    },
    {
      "channel": 3,
      "note": 82,
      "start": 33.3269,
      "duration": 0.0161,
      "velocity": 100,
      "chip": "ym2612"
    },
    {
      "channel": 2,
      "note": 66,
      "start": 33.328,
      "duration": 0.0161,
      "velocity": 100,
      "chip": "ym2612"
    },
    {
      "channel": 1,
      "note": 85,
      "start": 33.3293,
      "duration": 0.0161,
      "velocity": 100,
      "chip": "ym2612"
    },
    {
      "channel": 0,
      "note": 38,
      "start": 33.3394,
      "duration": 0.0161,
      "velocity": 115,
      "chip": "ym2612"
    },
    {
      "channel": 5,
      "note": 78,
      "start": 33.3406,
      "duration": 0.0161,
      "velocity": 100,
      "chip": "ym2612"
    },
    {
      "channel": 4,
      "note": 82,
      "start": 33.3418,
      "duration": 0.0161,
      "velocity": 100,
      "chip": "ym2612"
    },
    {
      "channel": 3,
      "note": 82,
      "start": 33.343,
      "duration": 0.0161,
      "velocity": 100,
      "chip": "ym2612"
    },
    {
      "channel": 2,
      "note": 66,
      "start": 33.3441,
      "duration": 0.0161,
      "velocity": 100,
      "chip": "ym2612"
    },
    {
      "channel": 1,
      "note": 85,
      "start": 33.3454,
      "duration": 0.0161,
      "velocity": 100,
      "chip": "ym2612"
    },
    {
      "channel": 0,
      "note": 38,
      "start": 33.3555,
      "duration": 0.0162,
      "velocity": 115,
      "chip": "ym2612"
    },
    {
      "channel": 5,
      "note": 78,
      "start": 33.3567,
      "duration": 0.0161,
      "velocity": 100,
      "chip": "ym2612"
    },
    {
      "channel": 4,
      "note": 82,
      "start": 33.3579,
      "duration": 0.0161,
      "velocity": 100,
      "chip": "ym2612"
    },
    {
      "channel": 3,
      "note": 82,
      "start": 33.3591,
      "duration": 0.0161,
      "velocity": 100,
      "chip": "ym2612"
    },
    {
      "channel": 2,
      "note": 66,
      "start": 33.3602,
      "duration": 0.0161,
      "velocity": 100,
      "chip": "ym2612"
    },
    {
      "channel": 1,
      "note": 85,
      "start": 33.3614,
      "duration": 0.0161,
      "velocity": 100,
      "chip": "ym2612"
    },
    {
      "channel": 0,
      "note": 39,
      "start": 33.3717,
      "duration": 0.0161,
      "velocity": 115,
      "chip": "ym2612"
    },
    {
      "channel": 5,
      "note": 78,
      "start": 33.3728,
      "duration": 0.0161,
      "velocity": 100,
      "chip": "ym2612"
    },
    {
      "channel": 4,
      "note": 82,
      "start": 33.374,
      "duration": 0.0161,
      "velocity": 100,
      "chip": "ym2612"
    },
    {
      "channel": 3,
      "note": 82,
      "start": 33.3752,
      "duration": 0.0162,
      "velocity": 100,
      "chip": "ym2612"
    },
    {
      "channel": 2,
      "note": 66,
      "start": 33.3763,
      "duration": 0.0162,
      "velocity": 100,
      "chip": "ym2612"
    },
    {
      "channel": 1,
      "note": 85,
      "start": 33.3775,
      "duration": 0.0162,
      "velocity": 100,
      "chip": "ym2612"
    },
    {
      "channel": 0,
      "note": 39,
      "start": 33.3878,
      "duration": 0.0161,
      "velocity": 115,
      "chip": "ym2612"
    },
    {
      "channel": 2,
      "note": 66,
      "start": 33.3925,
      "duration": 0.0161,
      "velocity": 100,
      "chip": "ym2612"
    },
    {
      "channel": 0,
      "note": 40,
      "start": 33.4039,
      "duration": 0.0161,
      "velocity": 115,
      "chip": "ym2612"
    },
    {
      "channel": 2,
      "note": 66,
      "start": 33.4086,
      "duration": 0.0161,
      "velocity": 100,
      "chip": "ym2612"
    },
    {
      "channel": 0,
      "note": 40,
      "start": 33.42,
      "duration": 0.0164,
      "velocity": 115,
      "chip": "ym2612"
    },
    {
      "channel": 2,
      "note": 66,
      "start": 33.4247,
      "duration": 0.0164,
      "velocity": 100,
      "chip": "ym2612"
    },
    {
      "channel": 0,
      "note": 40,
      "start": 33.4364,
      "duration": 0.0163,
      "velocity": 115,
      "chip": "ym2612"
    },
    {
      "channel": 2,
      "note": 66,
      "start": 33.4411,
      "duration": 0.0163,
      "velocity": 100,
      "chip": "ym2612"
    },
    {
      "channel": 0,
      "note": 41,
      "start": 33.4527,
      "duration": 0.0162,
      "velocity": 115,
      "chip": "ym2612"
    },
    {
      "channel": 2,
      "note": 66,
      "start": 33.4574,
      "duration": 0.0161,
      "velocity": 100,
      "chip": "ym2612"
    },
    {
      "channel": 0,
      "note": 41,
      "start": 33.4689,
      "duration": 0.0179,
      "velocity": 115,
      "chip": "ym2612"
    },
    {
      "channel": 2,
      "note": 66,
      "start": 33.4735,
      "duration": 0.0191,
      "velocity": 100,
      "chip": "ym2612"
    },
    {
      "channel": 0,
      "note": 36,
      "start": 33.4868,
      "duration": 0.0139,
      "velocity": 115,
      "chip": "ym2612"
    },
    {
      "channel": 5,
      "note": 80,
      "start": 33.4883,
      "duration": 0.014,
      "velocity": 100,
      "chip": "ym2612"
    },
    {
      "channel": 4,
      "note": 83,
      "start": 33.4899,
      "duration": 0.0137,
      "velocity": 100,
      "chip": "ym2612"
    },
    {
      "channel": 2,
      "note": 59,
      "start": 33.4926,
      "duration": 0.0134,
      "velocity": 100,
      "chip": "ym2612"
    },
    {
      "channel": 0,
      "note": 36,
      "start": 33.5007,
      "duration": 0.0158,
      "velocity": 115,
      "chip": "ym2612"
    },
    {
      "channel": 5,
      "note": 80,
      "start": 33.5023,
      "duration": 0.016,
      "velocity": 100,
      "chip": "ym2612"
    },
    {
      "channel": 4,
      "note": 83,
      "start": 33.5036,
      "duration": 0.0159,
      "velocity": 100,
      "chip": "ym2612"
    },
    {
      "channel": 2,
      "note": 59,
      "start": 33.506,
      "duration": 0.0158,
      "velocity": 100,
      "chip": "ym2612"
    },
    {
      "channel": 0,
      "note": 37,
      "start": 33.5165,
      "duration": 0.0161,
      "velocity": 115,
      "chip": "ym2612"
    },
    {
      "channel": 5,
      "note": 80,
      "start": 33.5183,
      "duration": 0.0157,
      "velocity": 100,
      "chip": "ym2612"
    },
    {
      "channel": 4,
      "note": 83,
      "start": 33.5195,
      "duration": 0.0161,
      "velocity": 100,
      "chip": "ym2612"
    },
    {
      "channel": 2,
      "note": 59,
      "start": 33.5219,
      "duration": 0.0161,
      "velocity": 100,
      "chip": "ym2612"
    },
    {
      "channel": 0,
      "note": 37,
      "start": 33.5327,
      "duration": 0.0161,
      "velocity": 115,
      "chip": "ym2612"
    },
    {
      "channel": 5,
      "note": 80,
      "start": 33.534,
      "duration": 0.0159,
      "velocity": 100,
      "chip": "ym2612"
    },
    {
      "channel": 4,
      "note": 83,
      "start": 33.5356,
      "duration": 0.016,
      "velocity": 100,
      "chip": "ym2612"
    },
    {
      "channel": 2,
      "note": 59,
      "start": 33.538,
      "duration": 0.0162,
      "velocity": 100,
      "chip": "ym2612"
    },
    {
      "channel": 0,
      "note": 38,
      "start": 33.5488,
      "duration": 0.0161,
      "velocity": 115,
      "chip": "ym2612"
    },
    {
      "channel": 2,
      "note": 59,
      "start": 33.5541,
      "duration": 0.016,
      "velocity": 100,
      "chip": "ym2612"
    },
    {
      "channel": 0,
      "note": 38,
      "start": 33.5649,
      "duration": 0.0161,
      "velocity": 115,
      "chip": "ym2612"
    },
    {
      "channel": 2,
      "note": 59,
      "start": 33.5702,
      "duration": 0.0161,
      "velocity": 100,
      "chip": "ym2612"
    },
    {
      "channel": 0,
      "note": 39,
      "start": 33.581,
      "duration": 0.0161,
      "velocity": 115,
      "chip": "ym2612"
    },
    {
      "channel": 2,
      "note": 59,
      "start": 33.5862,
      "duration": 0.0169,
      "velocity": 100,
      "chip": "ym2612"
    },
    {
      "channel": 0,
      "note": 39,
      "start": 33.5971,
      "duration": 0.0161,
      "velocity": 115,
      "chip": "ym2612"
    },
    {
      "channel": 5,
      "note": 82,
      "start": 33.5986,
      "duration": 0.0158,
      "velocity": 100,
      "chip": "ym2612"
    },
    {
      "channel": 4,
      "note": 85,
      "start": 33.6001,
      "duration": 0.0156,
      "velocity": 100,
      "chip": "ym2612"
    },
    {
      "channel": 2,
      "note": 59,
      "start": 33.6031,
      "duration": 0.0155,
      "velocity": 100,
      "chip": "ym2612"
    },
    {
      "channel": 0,
      "note": 40,
      "start": 33.6132,
      "duration": 0.0161,
      "velocity": 115,
      "chip": "ym2612"
    },
    {
      "channel": 5,
      "note": 82,
      "start": 33.6144,
      "duration": 0.016,
      "velocity": 100,
      "chip": "ym2612"
    },
    {
      "channel": 4,
      "note": 85,
      "start": 33.6157,
      "duration": 0.016,
      "velocity": 100,
      "chip": "ym2612"
    },
    {
      "channel": 2,
      "note": 59,
      "start": 33.6186,
      "duration": 0.0156,
      "velocity": 100,
      "chip": "ym2612"
    },
    {
      "channel": 0,
      "note": 40,
      "start": 33.6293,
      "duration": 0.0161,
      "velocity": 115,
      "chip": "ym2612"
    },
    {
      "channel": 5,
      "note": 82,
      "start": 33.6305,
      "duration": 0.0161,
      "velocity": 100,
      "chip": "ym2612"
    },
    {
      "channel": 4,
      "note": 85,
      "start": 33.6317,
      "duration": 0.0161,
      "velocity": 100,
      "chip": "ym2612"
    },
    {
      "channel": 2,
      "note": 59,
      "start": 33.6342,
      "duration": 0.0158,
      "velocity": 100,
      "chip": "ym2612"
    },
    {
      "channel": 0,
      "note": 40,
      "start": 33.6454,
      "duration": 0.0161,
      "velocity": 115,
      "chip": "ym2612"
    },
    {
      "channel": 5,
      "note": 82,
      "start": 33.6466,
      "duration": 0.0161,
      "velocity": 100,
      "chip": "ym2612"
    },
    {
      "channel": 4,
      "note": 85,
      "start": 33.6478,
      "duration": 0.0161,
      "velocity": 100,
      "chip": "ym2612"
    },
    {
      "channel": 2,
      "note": 59,
      "start": 33.65,
      "duration": 0.0162,
      "velocity": 100,
      "chip": "ym2612"
    },
    {
      "channel": 0,
      "note": 41,
      "start": 33.6614,
      "duration": 0.0162,
      "velocity": 115,
      "chip": "ym2612"
    },
    {
      "channel": 5,
      "note": 82,
      "start": 33.6627,
      "duration": 0.0161,
      "velocity": 100,
      "chip": "ym2612"
    },
    {
      "channel": 4,
      "note": 85,
      "start": 33.6639,
      "duration": 0.0161,
      "velocity": 100,
      "chip": "ym2612"
    },
    {
      "channel": 2,
      "note": 59,
      "start": 33.6662,
      "duration": 0.0161,
      "velocity": 100,
      "chip": "ym2612"
    },
    {
      "channel": 0,
      "note": 41,
      "start": 33.6776,
      "duration": 0.0179,
      "velocity": 124,
      "chip": "ym2612"
    },
    {
      "channel": 5,
      "note": 82,
      "start": 33.6787,
      "duration": 0.0179,
      "velocity": 100,
      "chip": "ym2612"
    },
    {
      "channel": 4,
      "note": 85,
      "start": 33.68,
      "duration": 0.0179,
      "velocity": 100,
      "chip": "ym2612"
    },
    {
      "channel": 2,
      "note": 59,
      "start": 33.6823,
      "duration": 0.019,
      "velocity": 100,
      "chip": "ym2612"
    },
    {
      "channel": 0,
      "note": 84,
      "start": 33.6955,
      "duration": 0.0143,
      "velocity": 124,
      "chip": "ym2612"
    },
    {
      "channel": 5,
      "note": 82,
      "start": 33.6967,
      "duration": 0.0143,
      "velocity": 100,
      "chip": "ym2612"
    },
    {
      "channel": 4,
      "note": 85,
      "start": 33.6979,
      "duration": 0.0143,
      "velocity": 100,
      "chip": "ym2612"
    },
    {
      "channel": 3,
      "note": 78,
      "start": 33.6993,
      "duration": 0.0141,
      "velocity": 100,
      "chip": "ym2612"
    },
    {
      "channel": 2,
      "note": 71,
      "start": 33.7014,
      "duration": 0.0133,
      "velocity": 100,
      "chip": "ym2612"
    },
    {
      "channel": 1,
      "note": 83,
      "start": 33.703,
      "duration": 0.013,
      "velocity": 100,
      "chip": "ym2612"
    },
    {
      "channel": 0,
      "note": 82,
      "start": 33.7098,
      "duration": 0.016,
      "velocity": 124,
      "chip": "ym2612"
    },
    {
      "channel": 3,
      "note": 78,
      "start": 33.7135,
      "duration": 0.016,
      "velocity": 100,
      "chip": "ym2612"
    },
    {
      "channel": 2,
      "note": 71,
      "start": 33.7147,
      "duration": 0.0159,
      "velocity": 100,
      "chip": "ym2612"
    },
    {
      "channel": 1,
      "note": 83,
      "start": 33.7159,
      "duration": 0.0158,
      "velocity": 100,
      "chip": "ym2612"
    },
    {
      "channel": 0,
      "note": 80,
      "start": 33.7259,
      "duration": 0.0161,
      "velocity": 124,
      "chip": "ym2612"
    },
    {
      "channel": 3,
      "note": 78,
      "start": 33.7294,
      "duration": 0.0161,
      "velocity": 100,
      "chip": "ym2612"
    },
    {
      "channel": 2,
      "note": 71,
      "start": 33.7306,
      "duration": 0.0161,
      "velocity": 100,
      "chip": "ym2612"
    },
    {
      "channel": 1,
      "note": 83,
      "start": 33.7317,
      "duration": 0.0161,
      "velocity": 100,
      "chip": "ym2612"
    },
    {
      "channel": 0,
      "note": 77,
      "start": 33.742,
      "duration": 0.0161,
      "velocity": 124,
      "chip": "ym2612"
    },
    {
      "channel": 3,
      "note": 78,
      "start": 33.7455,
      "duration": 0.0161,
      "velocity": 100,
      "chip": "ym2612"
    },
    {
      "channel": 2,
      "note": 71,
      "start": 33.7467,
      "duration": 0.0161,
      "velocity": 100,
      "chip": "ym2612"
    },
    {
      "channel": 1,
      "note": 83,
      "start": 33.7478,
      "duration": 0.0161,
      "velocity": 100,
      "chip": "ym2612"
    },
    {
      "channel": 0,
      "note": 75,
      "start": 33.7581,
      "duration": 0.0161,
      "velocity": 124,
      "chip": "ym2612"
    },
    {
      "channel": 3,
      "note": 78,
      "start": 33.7616,
      "duration": 0.0161,
      "velocity": 100,
      "chip": "ym2612"
    },
    {
      "channel": 2,
      "note": 71,
      "start": 33.7628,
      "duration": 0.0161,
      "velocity": 100,
      "chip": "ym2612"
    },
    {
      "channel": 1,
      "note": 83,
      "start": 33.7639,
      "duration": 0.0161,
      "velocity": 100,
      "chip": "ym2612"
    },
    {
      "channel": 0,
      "note": 72,
      "start": 33.7741,
      "duration": 0.0161,
      "velocity": 124,
      "chip": "ym2612"
    },
    {
      "channel": 3,
      "note": 78,
      "start": 33.7777,
      "duration": 0.0161,
      "velocity": 100,
      "chip": "ym2612"
    },
    {
      "channel": 2,
      "note": 71,
      "start": 33.7789,
      "duration": 0.0161,
      "velocity": 100,
      "chip": "ym2612"
    },
    {
      "channel": 1,
      "note": 83,
      "start": 33.7801,
      "duration": 0.0161,
      "velocity": 100,
      "chip": "ym2612"
    },
    {
      "channel": 0,
      "note": 70,
      "start": 33.7902,
      "duration": 0.0161,
      "velocity": 124,
      "chip": "ym2612"
    },
    {
      "channel": 3,
      "note": 78,
      "start": 33.7938,
      "duration": 0.0163,
      "velocity": 100,
      "chip": "ym2612"
    },
    {
      "channel": 2,
      "note": 71,
      "start": 33.795,
      "duration": 0.0164,
      "velocity": 100,
      "chip": "ym2612"
    },
    {
      "channel": 1,
      "note": 83,
      "start": 33.7962,
      "duration": 0.0164,
      "velocity": 100,
      "chip": "ym2612"
    },
    {
      "channel": 0,
      "note": 68,
      "start": 33.8063,
      "duration": 0.0161,
      "velocity": 124,
      "chip": "ym2612"
    },
    {
      "channel": 2,
      "note": 71,
      "start": 33.8114,
      "duration": 0.0159,
      "velocity": 100,
      "chip": "ym2612"
    },
    {
      "channel": 0,
      "note": 65,
      "start": 33.8224,
      "duration": 0.0161,
      "velocity": 124,
      "chip": "ym2612"
    },
    {
      "channel": 2,
      "note": 71,
      "start": 33.8273,
      "duration": 0.0161,
      "velocity": 100,
      "chip": "ym2612"
    },
    {
      "channel": 0,
      "note": 63,
      "start": 33.8386,
      "duration": 0.0153,
      "velocity": 1,
      "chip": "ym2612"
    },
    {
      "channel": 2,
      "note": 71,
      "start": 33.8434,
      "duration": 0.0152,
      "velocity": 100,
      "chip": "ym2612"
    },
    {
      "channel": 2,
      "note": 71,
      "start": 33.8586,
      "duration": 0.0153,
      "velocity": 100,
      "chip": "ym2612"
    },
    {
      "channel": 2,
      "note": 71,
      "start": 33.8738,
      "duration": 0.0162,
      "velocity": 100,
      "chip": "ym2612"
    },
    {
      "channel": 2,
      "note": 71,
      "start": 33.89,
      "duration": 0.0205,
      "velocity": 100,
      "chip": "ym2612"
    },
    {
      "channel": 0,
      "note": 36,
      "start": 33.9052,
      "duration": 0.0146,
      "velocity": 115,
      "chip": "ym2612"
    },
    {
      "channel": 3,
      "note": 78,
      "start": 33.9091,
      "duration": 0.0144,
      "velocity": 100,
      "chip": "ym2612"
    },
    {
      "channel": 2,
      "note": 59,
      "start": 33.9106,
      "duration": 0.0141,
      "velocity": 100,
      "chip": "ym2612"
    },
    {
      "channel": 1,
      "note": 83,
      "start": 33.9121,
      "duration": 0.0138,
      "velocity": 100,
      "chip": "ym2612"
    },
    {
      "channel": 0,
      "note": 36,
      "start": 33.9198,
      "duration": 0.016,
      "velocity": 115,
      "chip": "ym2612"
    },
    {
      "channel": 3,
      "note": 78,
      "start": 33.9235,
      "duration": 0.0159,
      "velocity": 100,
      "chip": "ym2612"
    },
    {
      "channel": 2,
      "note": 59,
      "start": 33.9247,
      "duration": 0.0158,
      "velocity": 100,
      "chip": "ym2612"
    },
    {
      "channel": 1,
      "note": 83,
      "start": 33.9259,
      "duration": 0.0159,
      "velocity": 100,
      "chip": "ym2612"
    },
    {
      "channel": 0,
      "note": 37,
      "start": 33.9357,
      "duration": 0.0161,
      "velocity": 115,
      "chip": "ym2612"
    },
    {
      "channel": 3,
      "note": 78,
      "start": 33.9394,
      "duration": 0.0161,
      "velocity": 100,
      "chip": "ym2612"
    },
    {
      "channel": 2,
      "note": 59,
      "start": 33.9405,
      "duration": 0.0161,
      "velocity": 100,
      "chip": "ym2612"
    },
    {
      "channel": 1,
      "note": 83,
      "start": 33.9417,
      "duration": 0.0161,
      "velocity": 100,
      "chip": "ym2612"
    },
    {
      "channel": 0,
      "note": 37,
      "start": 33.9518,
      "duration": 0.0158,
      "velocity": 115,
      "chip": "ym2612"
    },
    {
      "channel": 3,
      "note": 78,
      "start": 33.9555,
      "duration": 0.0161,
      "velocity": 100,
      "chip": "ym2612"
    },
    {
      "channel": 2,
      "note": 59,
      "start": 33.9566,
      "duration": 0.0161,
      "velocity": 100,
      "chip": "ym2612"
    },
    {
      "channel": 1,
      "note": 83,
      "start": 33.9578,
      "duration": 0.0161,
      "velocity": 100,
      "chip": "ym2612"
    },
    {
      "channel": 0,
      "note": 38,
      "start": 33.9676,
      "duration": 0.0159,
      "velocity": 115,
      "chip": "ym2612"
    },
    {
      "channel": 3,
      "note": 78,
      "start": 33.9715,
      "duration": 0.0161,
      "velocity": 100,
      "chip": "ym2612"
    },
    {
      "channel": 2,
      "note": 59,
      "start": 33.9727,
      "duration": 0.0161,
      "velocity": 100,
      "chip": "ym2612"
    },
    {
      "channel": 1,
      "note": 83,
      "start": 33.9739,
      "duration": 0.0161,
      "velocity": 100,
      "chip": "ym2612"
    },
    {
      "channel": 0,
      "note": 38,
      "start": 33.9835,
      "duration": 0.0161,
      "velocity": 115,
      "chip": "ym2612"
    },
    {
      "channel": 3,
      "note": 78,
      "start": 33.9876,
      "duration": 0.0161,
      "velocity": 100,
      "chip": "ym2612"
    },
    {
      "channel": 2,
      "note": 59,
      "start": 33.9888,
      "duration": 0.0161,
      "velocity": 100,
      "chip": "ym2612"
    },
    {
      "channel": 1,
      "note": 83,
      "start": 33.99,
      "duration": 0.0161,
      "velocity": 100,
      "chip": "ym2612"
    },
    {
      "channel": 0,
      "note": 39,
      "start": 33.9996,
      "duration": 0.0161,
      "velocity": 115,
      "chip": "ym2612"
    },
    {
      "channel": 3,
      "note": 78,
      "start": 34.0037,
      "duration": 0.0167,
      "velocity": 100,
      "chip": "ym2612"
    },
    {
      "channel": 2,
      "note": 59,
      "start": 34.0049,
      "duration": 0.0168,
      "velocity": 100,
      "chip": "ym2612"
    },
    {
      "channel": 1,
      "note": 83,
      "start": 34.0061,
      "duration": 0.0167,
      "velocity": 100,
      "chip": "ym2612"
    },
    {
      "channel": 0,
      "note": 39,
      "start": 34.0157,
      "duration": 0.0161,
      "velocity": 115,
      "chip": "ym2612"
    },
    {
      "channel": 5,
      "note": 78,
      "start": 34.0174,
      "duration": 0.0156,
      "velocity": 100,
      "chip": "ym2612"
    },
    {
      "channel": 4,
      "note": 83,
      "start": 34.0193,
      "duration": 0.0155,
      "velocity": 100,
      "chip": "ym2612"
    },
    {
      "channel": 2,
      "note": 59,
      "start": 34.0217,
      "duration": 0.0155,
      "velocity": 100,
      "chip": "ym2612"
    },
    {
      "channel": 0,
      "note": 40,
      "start": 34.0318,
      "duration": 0.0161,
      "velocity": 115,
      "chip": "ym2612"
    },
    {
      "channel": 5,
      "note": 78,
      "start": 34.0331,
      "duration": 0.016,
      "velocity": 100,
      "chip": "ym2612"
    },
    {
      "channel": 4,
      "note": 83,
      "start": 34.0349,
      "duration": 0.0154,
      "velocity": 100,
      "chip": "ym2612"
    },
    {
      "channel": 2,
      "note": 59,
      "start": 34.0372,
      "duration": 0.016,
      "velocity": 100,
      "chip": "ym2612"
    },
    {
      "channel": 0,
      "note": 40,
      "start": 34.0479,
      "duration": 0.0161,
      "velocity": 115,
      "chip": "ym2612"
    },
    {
      "channel": 5,
      "note": 78,
      "start": 34.0491,
      "duration": 0.0161,
      "velocity": 100,
      "chip": "ym2612"
    },
    {
      "channel": 4,
      "note": 83,
      "start": 34.0502,
      "duration": 0.0161,
      "velocity": 100,
      "chip": "ym2612"
    },
    {
      "channel": 2,
      "note": 59,
      "start": 34.0532,
      "duration": 0.0161,
      "velocity": 100,
      "chip": "ym2612"
    },
    {
      "channel": 0,
      "note": 40,
      "start": 34.064,
      "duration": 0.0161,
      "velocity": 115,
      "chip": "ym2612"
    },
    {
      "channel": 5,
      "note": 78,
      "start": 34.0652,
      "duration": 0.0161,
      "velocity": 100,
      "chip": "ym2612"
    },
    {
      "channel": 4,
      "note": 83,
      "start": 34.0664,
      "duration": 0.0161,
      "velocity": 100,
      "chip": "ym2612"
    },
    {
      "channel": 2,
      "note": 59,
      "start": 34.0693,
      "duration": 0.0162,
      "velocity": 100,
      "chip": "ym2612"
    },
    {
      "channel": 0,
      "note": 41,
      "start": 34.0801,
      "duration": 0.0161,
      "velocity": 115,
      "chip": "ym2612"
    },
    {
      "channel": 5,
      "note": 78,
      "start": 34.0813,
      "duration": 0.0161,
      "velocity": 100,
      "chip": "ym2612"
    },
    {
      "channel": 4,
      "note": 83,
      "start": 34.0825,
      "duration": 0.0161,
      "velocity": 100,
      "chip": "ym2612"
    },
    {
      "channel": 2,
      "note": 59,
      "start": 34.0854,
      "duration": 0.016,
      "velocity": 100,
      "chip": "ym2612"
    },
    {
      "channel": 0,
      "note": 41,
      "start": 34.0962,
      "duration": 0.0161,
      "velocity": 115,
      "chip": "ym2612"
    },
    {
      "channel": 5,
      "note": 78,
      "start": 34.0974,
      "duration": 0.0161,
      "velocity": 100,
      "chip": "ym2612"
    },
    {
      "channel": 4,
      "note": 83,
      "start": 34.0986,
      "duration": 0.0161,
      "velocity": 100,
      "chip": "ym2612"
    },
    {
      "channel": 2,
      "note": 59,
      "start": 34.1015,
      "duration": 0.0167,
      "velocity": 100,
      "chip": "ym2612"
    },
    {
      "channel": 0,
      "note": 42,
      "start": 34.1123,
      "duration": 0.0161,
      "velocity": 115,
      "chip": "ym2612"
    },
    {
      "channel": 5,
      "note": 78,
      "start": 34.1135,
      "duration": 0.0161,
      "velocity": 100,
      "chip": "ym2612"
    },
    {
      "channel": 4,
      "note": 83,
      "start": 34.1147,
      "duration": 0.0161,
      "velocity": 100,
      "chip": "ym2612"
    },
    {
      "channel": 3,
      "note": 75,
      "start": 34.1161,
      "duration": 0.0159,
      "velocity": 100,
      "chip": "ym2612"
    },
    {
      "channel": 2,
      "note": 71,
      "start": 34.1182,
      "duration": 0.0151,
      "velocity": 100,
      "chip": "ym2612"
    },
    {
      "channel": 1,
      "note": 78,
      "start": 34.1198,
      "duration": 0.0153,
      "velocity": 100,
      "chip": "ym2612"
    },
    {
      "channel": 0,
      "note": 42,
      "start": 34.1284,
      "duration": 0.0161,
      "velocity": 115,
      "chip": "ym2612"
    },
    {
      "channel": 3,
      "note": 75,
      "start": 34.132,
      "duration": 0.016,
      "velocity": 100,
      "chip": "ym2612"
    },
    {
      "channel": 2,
      "note": 71,
      "start": 34.1333,
      "duration": 0.0159,
      "velocity": 100,
      "chip": "ym2612"
    },
    {
      "channel": 1,
      "note": 78,
      "start": 34.135,
      "duration": 0.0153,
      "velocity": 100,
      "chip": "ym2612"
    },
    {
      "channel": 0,
      "note": 43,
      "start": 34.1445,
      "duration": 0.0161,
      "velocity": 115,
      "chip": "ym2612"
    },
    {
      "channel": 3,
      "note": 75,
      "start": 34.148,
      "duration": 0.0161,
      "velocity": 100,
      "chip": "ym2612"
    },
    {
      "channel": 2,
      "note": 71,
      "start": 34.1492,
      "duration": 0.0161,
      "velocity": 100,
      "chip": "ym2612"
    },
    {
      "channel": 1,
      "note": 78,
      "start": 34.1504,
      "duration": 0.0161,
      "velocity": 100,
      "chip": "ym2612"
    },
    {
      "channel": 0,
      "note": 43,
      "start": 34.1606,
      "duration": 0.0161,
      "velocity": 115,
      "chip": "ym2612"
    },
    {
      "channel": 3,
      "note": 75,
      "start": 34.1641,
      "duration": 0.0162,
      "velocity": 100,
      "chip": "ym2612"
    },
    {
      "channel": 2,
      "note": 71,
      "start": 34.1653,
      "duration": 0.0161,
      "velocity": 100,
      "chip": "ym2612"
    },
    {
      "channel": 1,
      "note": 78,
      "start": 34.1665,
      "duration": 0.0161,
      "velocity": 100,
      "chip": "ym2612"
    },
    {
      "channel": 0,
      "note": 44,
      "start": 34.1767,
      "duration": 0.0161,
      "velocity": 115,
      "chip": "ym2612"
    },
    {
      "channel": 3,
      "note": 75,
      "start": 34.1803,
      "duration": 0.0161,
      "velocity": 100,
      "chip": "ym2612"
    },
    {
      "channel": 2,
      "note": 71,
      "start": 34.1814,
      "duration": 0.0161,
      "velocity": 100,
      "chip": "ym2612"
    },
    {
      "channel": 1,
      "note": 78,
      "start": 34.1826,
      "duration": 0.0161,
      "velocity": 100,
      "chip": "ym2612"
    },
    {
      "channel": 0,
      "note": 44,
      "start": 34.1928,
      "duration": 0.0179,
      "velocity": 115,
      "chip": "ym2612"
    },
    {
      "channel": 3,
      "note": 75,
      "start": 34.1963,
      "duration": 0.018,
      "velocity": 100,
      "chip": "ym2612"
    },
    {
      "channel": 2,
      "note": 71,
      "start": 34.1975,
      "duration": 0.0179,
      "velocity": 100,
      "chip": "ym2612"
    },
    {
      "channel": 1,
      "note": 78,
      "start": 34.1987,
      "duration": 0.0179,
      "velocity": 100,
      "chip": "ym2612"
    },
    {
      "channel": 0,
      "note": 36,
      "start": 34.2107,
      "duration": 0.0143,
      "velocity": 115,
      "chip": "ym2612"
    },
    {
      "channel": 3,
      "note": 75,
      "start": 34.2143,
      "duration": 0.0149,
      "velocity": 100,
      "chip": "ym2612"
    },
    {
      "channel": 2,
      "note": 71,
      "start": 34.2154,
      "duration": 0.015,
      "velocity": 100,
      "chip": "ym2612"
    },
    {
      "channel": 1,
      "note": 78,
      "start": 34.2166,
      "duration": 0.015,
      "velocity": 100,
      "chip": "ym2612"
    },
    {
      "channel": 0,
      "note": 36,
      "start": 34.2251,
      "duration": 0.016,
      "velocity": 115,
      "chip": "ym2612"
    },
    {
      "channel": 5,
      "note": 78,
      "start": 34.2266,
      "duration": 0.0158,
      "velocity": 100,
      "chip": "ym2612"
    },
    {
      "channel": 4,
      "note": 83,
      "start": 34.228,
      "duration": 0.0156,
      "velocity": 100,
      "chip": "ym2612"
    },
    {
      "channel": 2,
      "note": 71,
      "start": 34.2305,
      "duration": 0.0155,
      "velocity": 100,
      "chip": "ym2612"
    },
    {
      "channel": 0,
      "note": 37,
      "start": 34.2411,
      "duration": 0.0161,
      "velocity": 115,
      "chip": "ym2612"
    },
    {
      "channel": 5,
      "note": 78,
      "start": 34.2424,
      "duration": 0.016,
      "velocity": 100,
      "chip": "ym2612"
    },
    {
      "channel": 4,
      "note": 83,
      "start": 34.2436,
      "duration": 0.016,
      "velocity": 100,
      "chip": "ym2612"
    },
    {
      "channel": 2,
      "note": 71,
      "start": 34.246,
      "duration": 0.016,
      "velocity": 100,
      "chip": "ym2612"
    },
    {
      "channel": 0,
      "note": 37,
      "start": 34.2572,
      "duration": 0.0162,
      "velocity": 115,
      "chip": "ym2612"
    },
    {
      "channel": 5,
      "note": 78,
      "start": 34.2584,
      "duration": 0.0161,
      "velocity": 100,
      "chip": "ym2612"
    },
    {
      "channel": 4,
      "note": 83,
      "start": 34.2596,
      "duration": 0.0161,
      "velocity": 100,
      "chip": "ym2612"
    },
    {
      "channel": 2,
      "note": 71,
      "start": 34.262,
      "duration": 0.016,
      "velocity": 100,
      "chip": "ym2612"
    },
    {
      "channel": 0,
      "note": 38,
      "start": 34.2733,
      "duration": 0.0161,
      "velocity": 115,
      "chip": "ym2612"
    },
    {
      "channel": 5,
      "note": 78,
      "start": 34.2745,
      "duration": 0.0161,
      "velocity": 100,
      "chip": "ym2612"
    },
    {
      "channel": 4,
      "note": 83,
      "start": 34.2757,
      "duration": 0.0161,
      "velocity": 100,
      "chip": "ym2612"
    },
    {
      "channel": 2,
      "note": 71,
      "start": 34.278,
      "duration": 0.0161,
      "velocity": 100,
      "chip": "ym2612"
    },
    {
      "channel": 0,
      "note": 38,
      "start": 34.2894,
      "duration": 0.0161,
      "velocity": 115,
      "chip": "ym2612"
    },
    {
      "channel": 5,
      "note": 78,
      "start": 34.2906,
      "duration": 0.0161,
      "velocity": 100,
      "chip": "ym2612"
    },
    {
      "channel": 4,
      "note": 83,
      "start": 34.2918,
      "duration": 0.0161,
      "velocity": 100,
      "chip": "ym2612"
    },
    {
      "channel": 2,
      "note": 71,
      "start": 34.2941,
      "duration": 0.0161,
      "velocity": 100,
      "chip": "ym2612"
    },
    {
      "channel": 0,
      "note": 39,
      "start": 34.3055,
      "duration": 0.0161,
      "velocity": 115,
      "chip": "ym2612"
    },
    {
      "channel": 5,
      "note": 78,
      "start": 34.3067,
      "duration": 0.0161,
      "velocity": 100,
      "chip": "ym2612"
    },
    {
      "channel": 4,
      "note": 83,
      "start": 34.3079,
      "duration": 0.0161,
      "velocity": 100,
      "chip": "ym2612"
    },
    {
      "channel": 2,
      "note": 71,
      "start": 34.3102,
      "duration": 0.0167,
      "velocity": 100,
      "chip": "ym2612"
    },
    {
      "channel": 0,
      "note": 39,
      "start": 34.3216,
      "duration": 0.0161,
      "velocity": 115,
      "chip": "ym2612"
    },
    {
      "channel": 5,
      "note": 78,
      "start": 34.3228,
      "duration": 0.0161,
      "velocity": 100,
      "chip": "ym2612"
    },
    {
      "channel": 4,
      "note": 83,
      "start": 34.324,
      "duration": 0.0161,
      "velocity": 100,
      "chip": "ym2612"
    },
    {
      "channel": 3,
      "note": 78,
      "start": 34.3255,
      "duration": 0.0159,
      "velocity": 100,
      "chip": "ym2612"
    },
    {
      "channel": 2,
      "note": 59,
      "start": 34.327,
      "duration": 0.0156,
      "velocity": 100,
      "chip": "ym2612"
    },
    {
      "channel": 1,
      "note": 83,
      "start": 34.3285,
      "duration": 0.0153,
      "velocity": 100,
      "chip": "ym2612"
    },
    {
      "channel": 0,
      "note": 40,
      "start": 34.3377,
      "duration": 0.0161,
      "velocity": 115,
      "chip": "ym2612"
    },
    {
      "channel": 3,
      "note": 78,
      "start": 34.3413,
      "duration": 0.0161,
      "velocity": 100,
      "chip": "ym2612"
    },
    {
      "channel": 2,
      "note": 59,
      "start": 34.3425,
      "duration": 0.016,
      "velocity": 100,
      "chip": "ym2612"
    },
    {
      "channel": 1,
      "note": 83,
      "start": 34.3438,
      "duration": 0.0159,
      "velocity": 100,
      "chip": "ym2612"
    },
    {
      "channel": 0,
      "note": 40,
      "start": 34.3539,
      "duration": 0.0162,
      "velocity": 115,
      "chip": "ym2612"
    },
    {
      "channel": 3,
      "note": 78,
      "start": 34.3574,
      "duration": 0.0161,
      "velocity": 100,
      "chip": "ym2612"
    },
    {
      "channel": 2,
      "note": 59,
      "start": 34.3586,
      "duration": 0.0162,
      "velocity": 100,
      "chip": "ym2612"
    },
    {
      "channel": 1,
      "note": 83,
      "start": 34.3597,
      "duration": 0.0162,
      "velocity": 100,
      "chip": "ym2612"
    },
    {
      "channel": 0,
      "note": 40,
      "start": 34.3701,
      "duration": 0.0163,
      "velocity": 115,
      "chip": "ym2612"
    },
    {
      "channel": 3,
      "note": 78,
      "start": 34.3736,
      "duration": 0.0163,
      "velocity": 100,
      "chip": "ym2612"
    },
    {
      "channel": 2,
      "note": 59,
      "start": 34.3747,
      "duration": 0.0163,
      "velocity": 100,
      "chip": "ym2612"
    },
    {
      "channel": 1,
      "note": 83,
      "start": 34.3759,
      "duration": 0.0163,
      "velocity": 100,
      "chip": "ym2612"
    },
    {
      "channel": 0,
      "note": 41,
      "start": 34.3864,
      "duration": 0.0163,
      "velocity": 115,
      "chip": "ym2612"
    },
    {
      "channel": 3,
      "note": 78,
      "start": 34.3899,
      "duration": 0.0163,
      "velocity": 100,
      "chip": "ym2612"
    },
    {
      "channel": 2,
      "note": 59,
      "start": 34.3911,
      "duration": 0.0163,
      "velocity": 100,
      "chip": "ym2612"
    },
    {
      "channel": 1,
      "note": 83,
      "start": 34.3923,
      "duration": 0.0163,
      "velocity": 100,
      "chip": "ym2612"
    },
    {
      "channel": 0,
      "note": 41,
      "start": 34.4027,
      "duration": 0.0179,
      "velocity": 124,
      "chip": "ym2612"
    },
    {
      "channel": 3,
      "note": 78,
      "start": 34.4062,
      "duration": 0.0179,
      "velocity": 100,
      "chip": "ym2612"
    },
    {
      "channel": 2,
      "note": 59,
      "start": 34.4074,
      "duration": 0.0183,
      "velocity": 100,
      "chip": "ym2612"
    },
    {
      "channel": 1,
      "note": 83,
      "start": 34.4086,
      "duration": 0.0183,
      "velocity": 100,
      "chip": "ym2612"
    },
    {
      "channel": 0,
      "note": 84,
      "start": 34.4207,
      "duration": 0.0142,
      "velocity": 124,
      "chip": "ym2612"
    },
    {
      "channel": 3,
      "note": 78,
      "start": 34.4241,
      "duration": 0.0151,
      "velocity": 100,
      "chip": "ym2612"
    },
    {
      "channel": 2,
      "note": 71,
      "start": 34.4257,
      "duration": 0.0148,
      "velocity": 100,
      "chip": "ym2612"
    },
    {
      "channel": 1,
      "note": 83,
      "start": 34.4268,
      "duration": 0.0148,
      "velocity": 100,
      "chip": "ym2612"
    },
    {
      "channel": 0,
      "note": 82,
      "start": 34.4349,
      "duration": 0.0155,
      "velocity": 124,
      "chip": "ym2612"
    },
    {
      "channel": 5,
      "note": 75,
      "start": 34.4365,
      "duration": 0.0158,
      "velocity": 100,
      "chip": "ym2612"
    },
    {
      "channel": 4,
      "note": 78,
      "start": 34.438,
      "duration": 0.0155,
      "velocity": 100,
      "chip": "ym2612"
    },
    {
      "channel": 2,
      "note": 71,
      "start": 34.4405,
      "duration": 0.0154,
      "velocity": 100,
      "chip": "ym2612"
    },
    {
      "channel": 0,
      "note": 80,
      "start": 34.4504,
      "duration": 0.0161,
      "velocity": 124,
      "chip": "ym2612"
    },
    {
      "channel": 5,
      "note": 75,
      "start": 34.4523,
      "duration": 0.016,
      "velocity": 100,
      "chip": "ym2612"
    },
    {
      "channel": 4,
      "note": 78,
      "start": 34.4535,
      "duration": 0.016,
      "velocity": 100,
      "chip": "ym2612"
    },
    {
      "channel": 2,
      "note": 71,
      "start": 34.4558,
      "duration": 0.016,
      "velocity": 100,
      "chip": "ym2612"
    },
    {
      "channel": 0,
      "note": 77,
      "start": 34.4665,
      "duration": 0.0161,
      "velocity": 124,
      "chip": "ym2612"
    },
    {
      "channel": 5,
      "note": 75,
      "start": 34.4682,
      "duration": 0.0158,
      "velocity": 100,
      "chip": "ym2612"
    },
    {
      "channel": 4,
      "note": 78,
      "start": 34.4695,
      "duration": 0.0161,
      "velocity": 100,
      "chip": "ym2612"
    },
    {
      "channel": 2,
      "note": 71,
      "start": 34.4718,
      "duration": 0.0161,
      "velocity": 100,
      "chip": "ym2612"
    },
    {
      "channel": 0,
      "note": 75,
      "start": 34.4826,
      "duration": 0.0161,
      "velocity": 124,
      "chip": "ym2612"
    },
    {
      "channel": 5,
      "note": 75,
      "start": 34.484,
      "duration": 0.0159,
      "velocity": 100,
      "chip": "ym2612"
    },
    {
      "channel": 4,
      "note": 78,
      "start": 34.4856,
      "duration": 0.016,
      "velocity": 100,
      "chip": "ym2612"
    },
    {
      "channel": 2,
      "note": 71,
      "start": 34.4879,
      "duration": 0.0162,
      "velocity": 100,
      "chip": "ym2612"
    },
    {
      "channel": 0,
      "note": 72,
      "start": 34.4987,
      "duration": 0.0161,
      "velocity": 124,
      "chip": "ym2612"
    },
    {
      "channel": 5,
      "note": 75,
      "start": 34.4999,
      "duration": 0.0161,
      "velocity": 100,
      "chip": "ym2612"
    },
    {
      "channel": 4,
      "note": 78,
      "start": 34.5016,
      "duration": 0.0158,
      "velocity": 100,
      "chip": "ym2612"
    },
    {
      "channel": 2,
      "note": 71,
      "start": 34.5041,
      "duration": 0.0161,
      "velocity": 100,
      "chip": "ym2612"
    },
    {
      "channel": 0,
      "note": 70,
      "start": 34.5148,
      "duration": 0.0179,
      "velocity": 115,
      "chip": "ym2612"
    },
    {
      "channel": 5,
      "note": 75,
      "start": 34.516,
      "duration": 0.0182,
      "velocity": 100,
      "chip": "ym2612"
    },
    {
      "channel": 4,
      "note": 78,
      "start": 34.5174,
      "duration": 0.0183,
      "velocity": 100,
      "chip": "ym2612"
    },
    {
      "channel": 2,
      "note": 71,
      "start": 34.5202,
      "duration": 0.0184,
      "velocity": 100,
      "chip": "ym2612"
    },
    {
      "channel": 0,
      "note": 36,
      "start": 34.5328,
      "duration": 0.0142,
      "velocity": 115,
      "chip": "ym2612"
    },
    {
      "channel": 5,
      "note": 75,
      "start": 34.5342,
      "duration": 0.0141,
      "velocity": 100,
      "chip": "ym2612"
    },
    {
      "channel": 4,
      "note": 78,
      "start": 34.5357,
      "duration": 0.0137,
      "velocity": 100,
      "chip": "ym2612"
    },
    {
      "channel": 3,
      "note": 75,
      "start": 34.5373,
      "duration": 0.0137,
      "velocity": 100,
      "chip": "ym2612"
    },
    {
      "channel": 2,
      "note": 71,
      "start": 34.5385,
      "duration": 0.014,
      "velocity": 100,
      "chip": "ym2612"
    },
    {
      "channel": 1,
      "note": 78,
      "start": 34.5401,
      "duration": 0.0137,
      "velocity": 100,
      "chip": "ym2612"
    },
    {
      "channel": 0,
      "note": 36,
      "start": 34.5471,
      "duration": 0.0161,
      "velocity": 115,
      "chip": "ym2612"
    },
    {
      "channel": 3,
      "note": 75,
      "start": 34.5509,
      "duration": 0.0157,
      "velocity": 100,
      "chip": "ym2612"
    },
    {
      "channel": 2,
      "note": 71,
      "start": 34.5525,
      "duration": 0.0159,
      "velocity": 100,
      "chip": "ym2612"
    },
    {
      "channel": 1,
      "note": 78,
      "start": 34.5537,
      "duration": 0.0159,
      "velocity": 100,
      "chip": "ym2612"
    },
    {
      "channel": 0,
      "note": 37,
      "start": 34.5632,
      "duration": 0.0161,
      "velocity": 115,
      "chip": "ym2612"
    },
    {
      "channel": 3,
      "note": 75,
      "start": 34.5666,
      "duration": 0.0162,
      "velocity": 100,
      "chip": "ym2612"
    },
    {
      "channel": 2,
      "note": 71,
      "start": 34.5684,
      "duration": 0.0157,
      "velocity": 100,
      "chip": "ym2612"
    },
    {
      "channel": 1,
      "note": 78,
      "start": 34.5696,
      "duration": 0.0161,
      "velocity": 100,
      "chip": "ym2612"
    },
    {
      "channel": 0,
      "note": 37,
      "start": 34.5793,
      "duration": 0.0161,
      "velocity": 115,
      "chip": "ym2612"
    },
    {
      "channel": 2,
      "note": 71,
      "start": 34.5841,
      "duration": 0.0158,
      "velocity": 100,
      "chip": "ym2612"
    },
    {
      "channel": 0,
      "note": 38,
      "start": 34.5954,
      "duration": 0.0161,
      "velocity": 115,
      "chip": "ym2612"
    },
    {
      "channel": 2,
      "note": 71,
      "start": 34.6,
      "duration": 0.0161,
      "velocity": 100,
      "chip": "ym2612"
    },
    {
      "channel": 0,
      "note": 38,
      "start": 34.6114,
      "duration": 0.0179,
      "velocity": 115,
      "chip": "ym2612"
    },
    {
      "channel": 2,
      "note": 71,
      "start": 34.6161,
      "duration": 0.0191,
      "velocity": 100,
      "chip": "ym2612"
    },
    {
      "channel": 0,
      "note": 36,
      "start": 34.6294,
      "duration": 0.0143,
      "velocity": 115,
      "chip": "ym2612"
    },
    {
      "channel": 3,
      "note": 78,
      "start": 34.6333,
      "duration": 0.0147,
      "velocity": 100,
      "chip": "ym2612"
    },
    {
      "channel": 2,
      "note": 59,
      "start": 34.6352,
      "duration": 0.014,
      "velocity": 100,
      "chip": "ym2612"
    },
    {
      "channel": 1,
      "note": 83,
      "start": 34.6368,
      "duration": 0.0136,
      "velocity": 100,
      "chip": "ym2612"
    },
    {
      "channel": 0,
      "note": 36,
      "start": 34.6437,
      "duration": 0.016,
      "velocity": 115,
      "chip": "ym2612"
    },
    {
      "channel": 5,
      "note": 78,
      "start": 34.6452,
      "duration": 0.0158,
      "velocity": 100,
      "chip": "ym2612"
    },
    {
      "channel": 4,
      "note": 83,
      "start": 34.6467,
      "duration": 0.0155,
      "velocity": 100,
      "chip": "ym2612"
    },
    {
      "channel": 3,
      "note": 78,
      "start": 34.648,
      "duration": 0.0154,
      "velocity": 100,
      "chip": "ym2612"
    },
    {
      "channel": 2,
      "note": 59,
      "start": 34.6492,
      "duration": 0.0153,
      "velocity": 100,
      "chip": "ym2612"
    },
    {
      "channel": 1,
      "note": 83,
      "start": 34.6504,
      "duration": 0.0153,
      "velocity": 100,
      "chip": "ym2612"
    },
    {
      "channel": 0,
      "note": 37,
      "start": 34.6597,
      "duration": 0.0161,
      "velocity": 115,
      "chip": "ym2612"
    },
    {
      "channel": 5,
      "note": 78,
      "start": 34.661,
      "duration": 0.016,
      "velocity": 100,
      "chip": "ym2612"
    },
    {
      "channel": 4,
      "note": 83,
      "start": 34.6623,
      "duration": 0.016,
      "velocity": 100,
      "chip": "ym2612"
    },
    {
      "channel": 3,
      "note": 78,
      "start": 34.6634,
      "duration": 0.016,
      "velocity": 100,
      "chip": "ym2612"
    },
    {
      "channel": 2,
      "note": 59,
      "start": 34.6646,
      "duration": 0.016,
      "velocity": 100,
      "chip": "ym2612"
    },
    {
      "channel": 1,
      "note": 83,
      "start": 34.6658,
      "duration": 0.016,
      "velocity": 100,
      "chip": "ym2612"
    },
    {
      "channel": 0,
      "note": 37,
      "start": 34.6758,
      "duration": 0.0161,
      "velocity": 115,
      "chip": "ym2612"
    },
    {
      "channel": 5,
      "note": 78,
      "start": 34.677,
      "duration": 0.0161,
      "velocity": 100,
      "chip": "ym2612"
    },
    {
      "channel": 4,
      "note": 83,
      "start": 34.6782,
      "duration": 0.0161,
      "velocity": 100,
      "chip": "ym2612"
    },
    {
      "channel": 3,
      "note": 78,
      "start": 34.6794,
      "duration": 0.0161,
      "velocity": 100,
      "chip": "ym2612"
    },
    {
      "channel": 2,
      "note": 59,
      "start": 34.6805,
      "duration": 0.0162,
      "velocity": 100,
      "chip": "ym2612"
    },
    {
      "channel": 1,
      "note": 83,
      "start": 34.6817,
      "duration": 0.0162,
      "velocity": 100,
      "chip": "ym2612"
    },
    {
      "channel": 0,
      "note": 38,
      "start": 34.6919,
      "duration": 0.0162,
      "velocity": 115,
      "chip": "ym2612"
    },
    {
      "channel": 5,
      "note": 78,
      "start": 34.6931,
      "duration": 0.0161,
      "velocity": 100,
      "chip": "ym2612"
    },
    {
      "channel": 4,
      "note": 83,
      "start": 34.6943,
      "duration": 0.0161,
      "velocity": 100,
      "chip": "ym2612"
    },
    {
      "channel": 3,
      "note": 78,
      "start": 34.6955,
      "duration": 0.0161,
      "velocity": 100,
      "chip": "ym2612"
    },
    {
      "channel": 2,
      "note": 59,
      "start": 34.6967,
      "duration": 0.016,
      "velocity": 100,
      "chip": "ym2612"
    },
    {
      "channel": 1,
      "note": 83,
      "start": 34.6979,
      "duration": 0.0161,
      "velocity": 100,
      "chip": "ym2612"
    },
    {
      "channel": 0,
      "note": 38,
      "start": 34.7081,
      "duration": 0.0161,
      "velocity": 115,
      "chip": "ym2612"
    },
    {
      "channel": 5,
      "note": 78,
      "start": 34.7092,
      "duration": 0.0161,
      "velocity": 100,
      "chip": "ym2612"
    },
    {
      "channel": 4,
      "note": 83,
      "start": 34.7104,
      "duration": 0.0161,
      "velocity": 100,
      "chip": "ym2612"
    },
    {
      "channel": 3,
      "note": 78,
      "start": 34.7116,
      "duration": 0.0161,
      "velocity": 100,
      "chip": "ym2612"
    },
    {
      "channel": 2,
      "note": 59,
      "start": 34.7128,
      "duration": 0.0161,
      "velocity": 100,
      "chip": "ym2612"
    },
    {
      "channel": 1,
      "note": 83,
      "start": 34.714,
      "duration": 0.0161,
      "velocity": 100,
      "chip": "ym2612"
    },
    {
      "channel": 0,
      "note": 39,
      "start": 34.7241,
      "duration": 0.0179,
      "velocity": 115,
      "chip": "ym2612"
    },
    {
      "channel": 5,
      "note": 78,
      "start": 34.7253,
      "duration": 0.0179,
      "velocity": 100,
      "chip": "ym2612"
    },
    {
      "channel": 4,
      "note": 83,
      "start": 34.7265,
      "duration": 0.0179,
      "velocity": 100,
      "chip": "ym2612"
    },
    {
      "channel": 3,
      "note": 78,
      "start": 34.7277,
      "duration": 0.018,
      "velocity": 100,
      "chip": "ym2612"
    },
    {
      "channel": 2,
      "note": 59,
      "start": 34.7289,
      "duration": 0.0182,
      "velocity": 100,
      "chip": "ym2612"
    },
    {
      "channel": 1,
      "note": 83,
      "start": 34.7301,
      "duration": 0.0183,
      "velocity": 100,
      "chip": "ym2612"
    },
    {
      "channel": 0,
      "note": 36,
      "start": 34.7421,
      "duration": 0.0143,
      "velocity": 115,
      "chip": "ym2612"
    },
    {
      "channel": 5,
      "note": 78,
      "start": 34.7432,
      "duration": 0.0144,
      "velocity": 100,
      "chip": "ym2612"
    },
    {
      "channel": 4,
      "note": 83,
      "start": 34.7444,
      "duration": 0.0143,
      "velocity": 100,
      "chip": "ym2612"
    },
    {
      "channel": 2,
      "note": 59,
      "start": 34.7471,
      "duration": 0.0141,
      "velocity": 100,
      "chip": "ym2612"
    },
    {
      "channel": 0,
      "note": 36,
      "start": 34.7564,
      "duration": 0.016,
      "velocity": 115,
      "chip": "ym2612"
    },
    {
      "channel": 2,
      "note": 59,
      "start": 34.7612,
      "duration": 0.016,
      "velocity": 100,
      "chip": "ym2612"
    },
    {
      "channel": 0,
      "note": 37,
      "start": 34.7724,
      "duration": 0.0161,
      "velocity": 115,
      "chip": "ym2612"
    },
    {
      "channel": 2,
      "note": 59,
      "start": 34.7771,
      "duration": 0.0161,
      "velocity": 100,
      "chip": "ym2612"
    },
    {
      "channel": 0,
      "note": 37,
      "start": 34.7885,
      "duration": 0.0161,
      "velocity": 115,
      "chip": "ym2612"
    },
    {
      "channel": 2,
      "note": 59,
      "start": 34.7932,
      "duration": 0.0161,
      "velocity": 100,
      "chip": "ym2612"
    },
    {
      "channel": 0,
      "note": 38,
      "start": 34.8046,
      "duration": 0.0161,
      "velocity": 115,
      "chip": "ym2612"
    },
    {
      "channel": 2,
      "note": 59,
      "start": 34.8093,
      "duration": 0.0161,
      "velocity": 100,
      "chip": "ym2612"
    },
    {
      "channel": 0,
      "note": 38,
      "start": 34.8207,
      "duration": 0.0161,
      "velocity": 115,
      "chip": "ym2612"
    },
    {
      "channel": 2,
      "note": 59,
      "start": 34.8254,
      "duration": 0.0166,
      "velocity": 100,
      "chip": "ym2612"
    },
    {
      "channel": 0,
      "note": 39,
      "start": 34.8369,
      "duration": 0.0165,
      "velocity": 115,
      "chip": "ym2612"
    },
    {
      "channel": 3,
      "note": 78,
      "start": 34.8408,
      "duration": 0.0168,
      "velocity": 100,
      "chip": "ym2612"
    },
    {
      "channel": 2,
      "note": 59,
      "start": 34.842,
      "duration": 0.0168,
      "velocity": 100,
      "chip": "ym2612"
    },
    {
      "channel": 1,
      "note": 83,
      "start": 34.8436,
      "duration": 0.0165,
      "velocity": 100,
      "chip": "ym2612"
    },
    {
      "channel": 0,
      "note": 39,
      "start": 34.8534,
      "duration": 0.0163,
      "velocity": 115,
      "chip": "ym2612"
    },
    {
      "channel": 5,
      "note": 75,
      "start": 34.8548,
      "duration": 0.0161,
      "velocity": 100,
      "chip": "ym2612"
    },
    {
      "channel": 4,
      "note": 78,
      "start": 34.8563,
      "duration": 0.0158,
      "velocity": 100,
      "chip": "ym2612"
    },
    {
      "channel": 3,
      "note": 78,
      "start": 34.8576,
      "duration": 0.0157,
      "velocity": 100,
      "chip": "ym2612"
    },
    {
      "channel": 2,
      "note": 59,
      "start": 34.8588,
      "duration": 0.0157,
      "velocity": 100,
      "chip": "ym2612"
    },
    {
      "channel": 1,
      "note": 83,
      "start": 34.86,
      "duration": 0.0156,
      "velocity": 100,
      "chip": "ym2612"
    },
    {
      "channel": 0,
      "note": 40,
      "start": 34.8696,
      "duration": 0.0161,
      "velocity": 115,
      "chip": "ym2612"
    },
    {
      "channel": 5,
      "note": 75,
      "start": 34.8709,
      "duration": 0.016,
      "velocity": 100,
      "chip": "ym2612"
    },
    {
      "channel": 4,
      "note": 78,
      "start": 34.8721,
      "duration": 0.016,
      "velocity": 100,
      "chip": "ym2612"
    },
    {
      "channel": 3,
      "note": 78,
      "start": 34.8733,
      "duration": 0.016,
      "velocity": 100,
      "chip": "ym2612"
    },
    {
      "channel": 2,
      "note": 59,
      "start": 34.8745,
      "duration": 0.016,
      "velocity": 100,
      "chip": "ym2612"
    },
    {
      "channel": 1,
      "note": 83,
      "start": 34.8757,
      "duration": 0.016,
      "velocity": 100,
      "chip": "ym2612"
    },
    {
      "channel": 0,
      "note": 40,
      "start": 34.8857,
      "duration": 0.016,
      "velocity": 115,
      "chip": "ym2612"
    },
    {
      "channel": 5,
      "note": 75,
      "start": 34.8869,
      "duration": 0.0161,
      "velocity": 100,
      "chip": "ym2612"
    },
    {
      "channel": 4,
      "note": 78,
      "start": 34.8881,
      "duration": 0.0161,
      "velocity": 100,
      "chip": "ym2612"
    },
    {
      "channel": 3,
      "note": 78,
      "start": 34.8893,
      "duration": 0.0162,
      "velocity": 100,
      "chip": "ym2612"
    },
    {
      "channel": 2,
      "note": 59,
      "start": 34.8905,
      "duration": 0.0161,
      "velocity": 100,
      "chip": "ym2612"
    },
    {
      "channel": 1,
      "note": 83,
      "start": 34.8917,
      "duration": 0.0161,
      "velocity": 100,
      "chip": "ym2612"
    },
    {
      "channel": 0,
      "note": 40,
      "start": 34.9018,
      "duration": 0.0158,
      "velocity": 115,
      "chip": "ym2612"
    },
    {
      "channel": 2,
      "note": 59,
      "start": 34.9066,
      "duration": 0.016,
      "velocity": 100,
      "chip": "ym2612"
    },
    {
      "channel": 0,
      "note": 41,
      "start": 34.9176,
      "duration": 0.0159,
      "velocity": 115,
      "chip": "ym2612"
    },
    {
      "channel": 2,
      "note": 59,
      "start": 34.9226,
      "duration": 0.0161,
      "velocity": 100,
      "chip": "ym2612"
    },
    {
      "channel": 0,
      "note": 41,
      "start": 34.9334,
      "duration": 0.0184,
      "velocity": 124,
      "chip": "ym2612"
    },
    {
      "channel": 2,
      "note": 59,
      "start": 34.9387,
      "duration": 0.0193,
      "velocity": 100,
      "chip": "ym2612"
    },
    {
      "channel": 0,
      "note": 84,
      "start": 34.952,
      "duration": 0.0137,
      "velocity": 124,
      "chip": "ym2612"
    },
    {
      "channel": 5,
      "note": 78,
      "start": 34.9535,
      "duration": 0.0134,
      "velocity": 100,
      "chip": "ym2612"
    },
    {
      "channel": 4,
      "note": 83,
      "start": 34.9551,
      "duration": 0.0137,
      "velocity": 100,
      "chip": "ym2612"
    },
    {
      "channel": 3,
      "note": 78,
      "start": 34.9565,
      "duration": 0.0136,
      "velocity": 100,
      "chip": "ym2612"
    },
    {
      "channel": 2,
      "note": 71,
      "start": 34.9581,
      "duration": 0.0132,
      "velocity": 100,
      "chip": "ym2612"
    },
    {
      "channel": 1,
      "note": 82,
      "start": 34.9596,
      "duration": 0.0129,
      "velocity": 100,
      "chip": "ym2612"
    },
    {
      "channel": 0,
      "note": 82,
      "start": 34.9657,
      "duration": 0.0161,
      "velocity": 124,
      "chip": "ym2612"
    },
    {
      "channel": 5,
      "note": 78,
      "start": 34.967,
      "duration": 0.016,
      "velocity": 100,
      "chip": "ym2612"
    },
    {
      "channel": 4,
      "note": 83,
      "start": 34.9688,
      "duration": 0.0155,
      "velocity": 100,
      "chip": "ym2612"
    },
    {
      "channel": 3,
      "note": 78,
      "start": 34.9701,
      "duration": 0.0158,
      "velocity": 100,
      "chip": "ym2612"
    },
    {
      "channel": 2,
      "note": 71,
      "start": 34.9713,
      "duration": 0.0158,
      "velocity": 100,
      "chip": "ym2612"
    },
    {
      "channel": 1,
      "note": 82,
      "start": 34.9725,
      "duration": 0.0157,
      "velocity": 100,
      "chip": "ym2612"
    },
    {
      "channel": 0,
      "note": 80,
      "start": 34.9818,
      "duration": 0.0161,
      "velocity": 124,
      "chip": "ym2612"
    },
    {
      "channel": 5,
      "note": 78,
      "start": 34.9829,
      "duration": 0.0161,
      "velocity": 100,
      "chip": "ym2612"
    },
    {
      "channel": 4,
      "note": 83,
      "start": 34.9843,
      "duration": 0.0159,
      "velocity": 100,
      "chip": "ym2612"
    },
    {
      "channel": 3,
      "note": 78,
      "start": 34.9859,
      "duration": 0.016,
      "velocity": 100,
      "chip": "ym2612"
    },
    {
      "channel": 2,
      "note": 71,
      "start": 34.9871,
      "duration": 0.0161,
      "velocity": 100,
      "chip": "ym2612"
    },
    {
      "channel": 1,
      "note": 82,
      "start": 34.9882,
      "duration": 0.0161,
      "velocity": 100,
      "chip": "ym2612"
    },
    {
      "channel": 0,
      "note": 77,
      "start": 34.9979,
      "duration": 0.0161,
      "velocity": 124,
      "chip": "ym2612"
    },
    {
      "channel": 5,
      "note": 78,
      "start": 34.999,
      "duration": 0.0161,
      "velocity": 100,
      "chip": "ym2612"
    },
    {
      "channel": 4,
      "note": 83,
      "start": 35.0002,
      "duration": 0.0161,
      "velocity": 100,
      "chip": "ym2612"
    },
    {
      "channel": 3,
      "note": 78,
      "start": 35.002,
      "duration": 0.0161,
      "velocity": 100,
      "chip": "ym2612"
    },
    {
      "channel": 2,
      "note": 71,
      "start": 35.0032,
      "duration": 0.0161,
      "velocity": 100,
      "chip": "ym2612"
    },
    {
      "channel": 1,
      "note": 82,
      "start": 35.0043,
      "duration": 0.0162,
      "velocity": 100,
      "chip": "ym2612"
    },
    {
      "channel": 0,
      "note": 75,
      "start": 35.014,
      "duration": 0.0161,
      "velocity": 124,
      "chip": "ym2612"
    },
    {
      "channel": 5,
      "note": 78,
      "start": 35.0151,
      "duration": 0.0162,
      "velocity": 100,
      "chip": "ym2612"
    },
    {
      "channel": 4,
      "note": 83,
      "start": 35.0163,
      "duration": 0.0161,
      "velocity": 100,
      "chip": "ym2612"
    },
    {
      "channel": 3,
      "note": 78,
      "start": 35.018,
      "duration": 0.0156,
      "velocity": 100,
      "chip": "ym2612"
    },
    {
      "channel": 2,
      "note": 71,
      "start": 35.0193,
      "duration": 0.0161,
      "velocity": 100,
      "chip": "ym2612"
    },
    {
      "channel": 1,
      "note": 82,
      "start": 35.0205,
      "duration": 0.0161,
      "velocity": 100,
      "chip": "ym2612"
    },
    {
      "channel": 0,
      "note": 72,
      "start": 35.0301,
      "duration": 0.0161,
      "velocity": 124,
      "chip": "ym2612"
    },
    {
      "channel": 5,
      "note": 78,
      "start": 35.0313,
      "duration": 0.0161,
      "velocity": 100,
      "chip": "ym2612"
    },
    {
      "channel": 4,
      "note": 83,
      "start": 35.0324,
      "duration": 0.0161,
      "velocity": 100,
      "chip": "ym2612"
    },
    {
      "channel": 3,
      "note": 78,
      "start": 35.0336,
      "duration": 0.0161,
      "velocity": 100,
      "chip": "ym2612"
    },
    {
      "channel": 2,
      "note": 71,
      "start": 35.0354,
      "duration": 0.0161,
      "velocity": 100,
      "chip": "ym2612"
    },
    {
      "channel": 1,
      "note": 82,
      "start": 35.0366,
      "duration": 0.0161,
      "velocity": 100,
      "chip": "ym2612"
    },
    {
      "channel": 0,
      "note": 70,
      "start": 35.0462,
      "duration": 0.0161,
      "velocity": 124,
      "chip": "ym2612"
    },
    {
      "channel": 5,
      "note": 78,
      "start": 35.0474,
      "duration": 0.0161,
      "velocity": 100,
      "chip": "ym2612"
    },
    {
      "channel": 4,
      "note": 83,
      "start": 35.0485,
      "duration": 0.0161,
      "velocity": 100,
      "chip": "ym2612"
    },
    {
      "channel": 3,
      "note": 78,
      "start": 35.0497,
      "duration": 0.0161,
      "velocity": 100,
      "chip": "ym2612"
    },
    {
      "channel": 2,
      "note": 71,
      "start": 35.0515,
      "duration": 0.0156,
      "velocity": 100,
      "chip": "ym2612"
    },
    {
      "channel": 1,
      "note": 82,
      "start": 35.0527,
      "duration": 0.0162,
      "velocity": 100,
      "chip": "ym2612"
    },
    {
      "channel": 0,
      "note": 68,
      "start": 35.0623,
      "duration": 0.0161,
      "velocity": 124,
      "chip": "ym2612"
    },
    {
      "channel": 2,
      "note": 71,
      "start": 35.0671,
      "duration": 0.016,
      "velocity": 100,
      "chip": "ym2612"
    },
    {
      "channel": 0,
      "note": 65,
      "start": 35.0784,
      "duration": 0.0161,
      "velocity": 124,
      "chip": "ym2612"
    },
    {
      "channel": 2,
      "note": 71,
      "start": 35.0831,
      "duration": 0.0162,
      "velocity": 100,
      "chip": "ym2612"
    },
    {
      "channel": 0,
      "note": 63,
      "start": 35.0944,
      "duration": 0.0153,
      "velocity": 1,
      "chip": "ym2612"
    },
    {
      "channel": 2,
      "note": 71,
      "start": 35.0992,
      "duration": 0.0152,
      "velocity": 100,
      "chip": "ym2612"
    },
    {
      "channel": 2,
      "note": 71,
      "start": 35.1144,
      "duration": 0.0153,
      "velocity": 100,
      "chip": "ym2612"
    },
    {
      "channel": 2,
      "note": 71,
      "start": 35.1297,
      "duration": 0.0161,
      "velocity": 100,
      "chip": "ym2612"
    },
    {
      "channel": 2,
      "note": 71,
      "start": 35.1458,
      "duration": 0.0209,
      "velocity": 100,
      "chip": "ym2612"
    },
    {
      "channel": 0,
      "note": 36,
      "start": 35.1607,
      "duration": 0.0143,
      "velocity": 115,
      "chip": "ym2612"
    },
    {
      "channel": 5,
      "note": 78,
      "start": 35.1623,
      "duration": 0.014,
      "velocity": 100,
      "chip": "ym2612"
    },
    {
      "channel": 4,
      "note": 83,
      "start": 35.1639,
      "duration": 0.0137,
      "velocity": 100,
      "chip": "ym2612"
    },
    {
      "channel": 2,
      "note": 56,
      "start": 35.1667,
      "duration": 0.0132,
      "velocity": 100,
      "chip": "ym2612"
    },
    {
      "channel": 0,
      "note": 36,
      "start": 35.1751,
      "duration": 0.016,
      "velocity": 115,
      "chip": "ym2612"
    },
    {
      "channel": 5,
      "note": 78,
      "start": 35.1763,
      "duration": 0.016,
      "velocity": 100,
      "chip": "ym2612"
    },
    {
      "channel": 4,
      "note": 83,
      "start": 35.1775,
      "duration": 0.0159,
      "velocity": 100,
      "chip": "ym2612"
    },
    {
      "channel": 2,
      "note": 56,
      "start": 35.18,
      "duration": 0.0158,
      "velocity": 100,
      "chip": "ym2612"
    },
    {
      "channel": 0,
      "note": 37,
      "start": 35.1911,
      "duration": 0.0161,
      "velocity": 115,
      "chip": "ym2612"
    },
    {
      "channel": 5,
      "note": 78,
      "start": 35.1922,
      "duration": 0.0161,
      "velocity": 100,
      "chip": "ym2612"
    },
    {
      "channel": 4,
      "note": 83,
      "start": 35.1934,
      "duration": 0.0161,
      "velocity": 100,
      "chip": "ym2612"
    },
    {
      "channel": 2,
      "note": 56,
      "start": 35.1958,
      "duration": 0.0161,
      "velocity": 100,
      "chip": "ym2612"
    },
    {
      "channel": 0,
      "note": 37,
      "start": 35.2072,
      "duration": 0.0161,
      "velocity": 115,
      "chip": "ym2612"
    },
    {
      "channel": 5,
      "note": 78,
      "start": 35.2083,
      "duration": 0.0161,
      "velocity": 100,
      "chip": "ym2612"
    },
    {
      "channel": 4,
      "note": 83,
      "start": 35.2095,
      "duration": 0.0161,
      "velocity": 100,
      "chip": "ym2612"
    },
    {
      "channel": 2,
      "note": 56,
      "start": 35.2119,
      "duration": 0.0161,
      "velocity": 100,
      "chip": "ym2612"
    },
    {
      "channel": 0,
      "note": 38,
      "start": 35.2233,
      "duration": 0.0161,
      "velocity": 115,
      "chip": "ym2612"
    },
    {
      "channel": 2,
      "note": 56,
      "start": 35.228,
      "duration": 0.016,
      "velocity": 100,
      "chip": "ym2612"
    },
    {
      "channel": 0,
      "note": 38,
      "start": 35.2394,
      "duration": 0.0161,
      "velocity": 115,
      "chip": "ym2612"
    },
    {
      "channel": 2,
      "note": 56,
      "start": 35.2441,
      "duration": 0.0161,
      "velocity": 100,
      "chip": "ym2612"
    },
    {
      "channel": 0,
      "note": 39,
      "start": 35.2555,
      "duration": 0.0161,
      "velocity": 115,
      "chip": "ym2612"
    },
    {
      "channel": 2,
      "note": 56,
      "start": 35.2602,
      "duration": 0.0169,
      "velocity": 100,
      "chip": "ym2612"
    },
    {
      "channel": 0,
      "note": 39,
      "start": 35.2715,
      "duration": 0.0161,
      "velocity": 115,
      "chip": "ym2612"
    },
    {
      "channel": 5,
      "note": 78,
      "start": 35.2731,
      "duration": 0.0158,
      "velocity": 100,
      "chip": "ym2612"
    },
    {
      "channel": 4,
      "note": 82,
      "start": 35.2746,
      "duration": 0.0156,
      "velocity": 100,
      "chip": "ym2612"
    },
    {
      "channel": 2,
      "note": 56,
      "start": 35.277,
      "duration": 0.0155,
      "velocity": 100,
      "chip": "ym2612"
    },
    {
      "channel": 0,
      "note": 40,
      "start": 35.2876,
      "duration": 0.0162,
      "velocity": 115,
      "chip": "ym2612"
    },
    {
      "channel": 5,
      "note": 78,
      "start": 35.2889,
      "duration": 0.0161,
      "velocity": 100,
      "chip": "ym2612"
    },
    {
      "channel": 4,
      "note": 82,
      "start": 35.2902,
      "duration": 0.016,
      "velocity": 100,
      "chip": "ym2612"
    },
    {
      "channel": 2,
      "note": 56,
      "start": 35.2925,
      "duration": 0.016,
      "velocity": 100,
      "chip": "ym2612"
    },
    {
      "channel": 0,
      "note": 40,
      "start": 35.3039,
      "duration": 0.0162,
      "velocity": 115,
      "chip": "ym2612"
    },
    {
      "channel": 5,
      "note": 78,
      "start": 35.305,
      "duration": 0.0162,
      "velocity": 100,
      "chip": "ym2612"
    },
    {
      "channel": 4,
      "note": 82,
      "start": 35.3062,
      "duration": 0.0162,
      "velocity": 100,
      "chip": "ym2612"
    },
    {
      "channel": 2,
      "note": 56,
      "start": 35.3086,
      "duration": 0.0162,
      "velocity": 100,
      "chip": "ym2612"
    },
    {
      "channel": 0,
      "note": 40,
      "start": 35.32,
      "duration": 0.0163,
      "velocity": 115,
      "chip": "ym2612"
    },
    {
      "channel": 5,
      "note": 78,
      "start": 35.3212,
      "duration": 0.0163,
      "velocity": 100,
      "chip": "ym2612"
    },
    {
      "channel": 4,
      "note": 82,
      "start": 35.3224,
      "duration": 0.0163,
      "velocity": 100,
      "chip": "ym2612"
    },
    {
      "channel": 2,
      "note": 56,
      "start": 35.3248,
      "duration": 0.0163,
      "velocity": 100,
      "chip": "ym2612"
    },
    {
      "channel": 0,
      "note": 41,
      "start": 35.3364,
      "duration": 0.0163,
      "velocity": 115,
      "chip": "ym2612"
    },
    {
      "channel": 5,
      "note": 78,
      "start": 35.3376,
      "duration": 0.0163,
      "velocity": 100,
      "chip": "ym2612"
    },
    {
      "channel": 4,
      "note": 82,
      "start": 35.3388,
      "duration": 0.0163,
      "velocity": 100,
      "chip": "ym2612"
    },
    {
      "channel": 2,
      "note": 56,
      "start": 35.3411,
      "duration": 0.0163,
      "velocity": 100,
      "chip": "ym2612"
    },
    {
      "channel": 0,
      "note": 41,
      "start": 35.3527,
      "duration": 0.0179,
      "velocity": 115,
      "chip": "ym2612"
    },
    {
      "channel": 5,
      "note": 78,
      "start": 35.3539,
      "duration": 0.018,
      "velocity": 100,
      "chip": "ym2612"
    },
    {
      "channel": 4,
      "note": 82,
      "start": 35.3551,
      "duration": 0.0179,
      "velocity": 100,
      "chip": "ym2612"
    },
    {
      "channel": 2,
      "note": 56,
      "start": 35.3574,
      "duration": 0.0185,
      "velocity": 100,
      "chip": "ym2612"
    },
    {
      "channel": 0,
      "note": 36,
      "start": 35.3706,
      "duration": 0.0143,
      "velocity": 115,
      "chip": "ym2612"
    },
    {
      "channel": 5,
      "note": 78,
      "start": 35.3718,
      "duration": 0.0144,
      "velocity": 100,
      "chip": "ym2612"
    },
    {
      "channel": 4,
      "note": 82,
      "start": 35.373,
      "duration": 0.0143,
      "velocity": 100,
      "chip": "ym2612"
    },
    {
      "channel": 3,
      "note": 75,
      "start": 35.3745,
      "duration": 0.0141,
      "velocity": 100,
      "chip": "ym2612"
    },
    {
      "channel": 2,
      "note": 68,
      "start": 35.3759,
      "duration": 0.0139,
      "velocity": 100,
      "chip": "ym2612"
    },
    {
      "channel": 1,
      "note": 80,
      "start": 35.3775,
      "duration": 0.0136,
      "velocity": 100,
      "chip": "ym2612"
    },
    {
      "channel": 0,
      "note": 36,
      "start": 35.3849,
      "duration": 0.0155,
      "velocity": 115,
      "chip": "ym2612"
    },
    {
      "channel": 3,
      "note": 75,
      "start": 35.3886,
      "duration": 0.0159,
      "velocity": 100,
      "chip": "ym2612"
    },
    {
      "channel": 2,
      "note": 68,
      "start": 35.3898,
      "duration": 0.0159,
      "velocity": 100,
      "chip": "ym2612"
    },
    {
      "channel": 1,
      "note": 80,
      "start": 35.3911,
      "duration": 0.0158,
      "velocity": 100,
      "chip": "ym2612"
    },
    {
      "channel": 0,
      "note": 37,
      "start": 35.4004,
      "duration": 0.0161,
      "velocity": 115,
      "chip": "ym2612"
    },
    {
      "channel": 3,
      "note": 75,
      "start": 35.4045,
      "duration": 0.0161,
      "velocity": 100,
      "chip": "ym2612"
    },
    {
      "channel": 2,
      "note": 68,
      "start": 35.4056,
      "duration": 0.0161,
      "velocity": 100,
      "chip": "ym2612"
    },
    {
      "channel": 1,
      "note": 80,
      "start": 35.4068,
      "duration": 0.0161,
      "velocity": 100,
      "chip": "ym2612"
    },
    {
      "channel": 0,
      "note": 37,
      "start": 35.4165,
      "duration": 0.0161,
      "velocity": 115,
      "chip": "ym2612"
    },
    {
      "channel": 3,
      "note": 75,
      "start": 35.4206,
      "duration": 0.0161,
      "velocity": 100,
      "chip": "ym2612"
    },
    {
      "channel": 2,
      "note": 68,
      "start": 35.4217,
      "duration": 0.0161,
      "velocity": 100,
      "chip": "ym2612"
    },
    {
      "channel": 1,
      "note": 80,
      "start": 35.4229,
      "duration": 0.0161,
      "velocity": 100,
      "chip": "ym2612"
    },
    {
      "channel": 0,
      "note": 38,
      "start": 35.4326,
      "duration": 0.0161,
      "velocity": 115,
      "chip": "ym2612"
    },
    {
      "channel": 3,
      "note": 75,
      "start": 35.4367,
      "duration": 0.0162,
      "velocity": 100,
      "chip": "ym2612"
    },
    {
      "channel": 2,
      "note": 68,
      "start": 35.4378,
      "duration": 0.0161,
      "velocity": 100,
      "chip": "ym2612"
    },
    {
      "channel": 1,
      "note": 80,
      "start": 35.439,
      "duration": 0.0161,
      "velocity": 100,
      "chip": "ym2612"
    },
    {
      "channel": 0,
      "note": 38,
      "start": 35.4486,
      "duration": 0.0162,
      "velocity": 115,
      "chip": "ym2612"
    },
    {
      "channel": 3,
      "note": 75,
      "start": 35.4529,
      "duration": 0.0161,
      "velocity": 100,
      "chip": "ym2612"
    },
    {
      "channel": 2,
      "note": 68,
      "start": 35.454,
      "duration": 0.0161,
      "velocity": 100,
      "chip": "ym2612"
    },
    {
      "channel": 1,
      "note": 80,
      "start": 35.4551,
      "duration": 0.0161,
      "velocity": 100,
      "chip": "ym2612"
    },
    {
      "channel": 0,
      "note": 39,
      "start": 35.4648,
      "duration": 0.0161,
      "velocity": 115,
      "chip": "ym2612"
    },
    {
      "channel": 3,
      "note": 75,
      "start": 35.4689,
      "duration": 0.0163,
      "velocity": 100,
      "chip": "ym2612"
    },
    {
      "channel": 2,
      "note": 68,
      "start": 35.4701,
      "duration": 0.0164,
      "velocity": 100,
      "chip": "ym2612"
    },
    {
      "channel": 1,
      "note": 80,
      "start": 35.4713,
      "duration": 0.0164,
      "velocity": 100,
      "chip": "ym2612"
    },
    {
      "channel": 0,
      "note": 39,
      "start": 35.4809,
      "duration": 0.0161,
      "velocity": 115,
      "chip": "ym2612"
    },
    {
      "channel": 2,
      "note": 68,
      "start": 35.4865,
      "duration": 0.0158,
      "velocity": 100,
      "chip": "ym2612"
    },
    {
      "channel": 0,
      "note": 40,
      "start": 35.497,
      "duration": 0.0161,
      "velocity": 115,
      "chip": "ym2612"
    },
    {
      "channel": 2,
      "note": 68,
      "start": 35.5023,
      "duration": 0.0161,
      "velocity": 100,
      "chip": "ym2612"
    },
    {
      "channel": 0,
      "note": 40,
      "start": 35.5131,
      "duration": 0.0161,
      "velocity": 115,
      "chip": "ym2612"
    },
    {
      "channel": 2,
      "note": 68,
      "start": 35.5184,
      "duration": 0.0157,
      "velocity": 100,
      "chip": "ym2612"
    },
    {
      "channel": 0,
      "note": 40,
      "start": 35.5292,
      "duration": 0.0161,
      "velocity": 115,
      "chip": "ym2612"
    },
    {
      "channel": 2,
      "note": 68,
      "start": 35.5341,
      "duration": 0.0159,
      "velocity": 100,
      "chip": "ym2612"
    },
    {
      "channel": 0,
      "note": 41,
      "start": 35.5453,
      "duration": 0.0161,
      "velocity": 115,
      "chip": "ym2612"
    },
    {
      "channel": 2,
      "note": 68,
      "start": 35.55,
      "duration": 0.0161,
      "velocity": 100,
      "chip": "ym2612"
    },
    {
      "channel": 0,
      "note": 41,
      "start": 35.5614,
      "duration": 0.018,
      "velocity": 124,
      "chip": "ym2612"
    },
    {
      "channel": 2,
      "note": 68,
      "start": 35.5661,
      "duration": 0.0191,
      "velocity": 100,
      "chip": "ym2612"
    },
    {
      "channel": 0,
      "note": 84,
      "start": 35.5794,
      "duration": 0.0143,
      "velocity": 124,
      "chip": "ym2612"
    },
    {
      "channel": 3,
      "note": 75,
      "start": 35.5833,
      "duration": 0.0141,
      "velocity": 100,
      "chip": "ym2612"
    },
    {
      "channel": 2,
      "note": 58,
      "start": 35.5853,
      "duration": 0.0132,
      "velocity": 100,
      "chip": "ym2612"
    },
    {
      "channel": 1,
      "note": 80,
      "start": 35.5868,
      "duration": 0.013,
      "velocity": 100,
      "chip": "ym2612"
    },
    {
      "channel": 0,
      "note": 82,
      "start": 35.5936,
      "duration": 0.0161,
      "velocity": 124,
      "chip": "ym2612"
    },
    {
      "channel": 3,
      "note": 75,
      "start": 35.5973,
      "duration": 0.016,
      "velocity": 100,
      "chip": "ym2612"
    },
    {
      "channel": 2,
      "note": 58,
      "start": 35.5985,
      "duration": 0.0159,
      "velocity": 100,
      "chip": "ym2612"
    },
    {
      "channel": 1,
      "note": 80,
      "start": 35.5998,
      "duration": 0.0158,
      "velocity": 100,
      "chip": "ym2612"
    },
    {
      "channel": 0,
      "note": 80,
      "start": 35.6097,
      "duration": 0.0161,
      "velocity": 124,
      "chip": "ym2612"
    },
    {
      "channel": 3,
      "note": 75,
      "start": 35.6133,
      "duration": 0.0161,
      "velocity": 100,
      "chip": "ym2612"
    },
    {
      "channel": 2,
      "note": 58,
      "start": 35.6144,
      "duration": 0.0161,
      "velocity": 100,
      "chip": "ym2612"
    },
    {
      "channel": 1,
      "note": 80,
      "start": 35.6156,
      "duration": 0.0161,
      "velocity": 100,
      "chip": "ym2612"
    },
    {
      "channel": 0,
      "note": 77,
      "start": 35.6258,
      "duration": 0.0161,
      "velocity": 124,
      "chip": "ym2612"
    },
    {
      "channel": 3,
      "note": 75,
      "start": 35.6294,
      "duration": 0.0161,
      "velocity": 100,
      "chip": "ym2612"
    },
    {
      "channel": 2,
      "note": 58,
      "start": 35.6305,
      "duration": 0.0161,
      "velocity": 100,
      "chip": "ym2612"
    },
    {
      "channel": 1,
      "note": 80,
      "start": 35.6317,
      "duration": 0.0161,
      "velocity": 100,
      "chip": "ym2612"
    },
    {
      "channel": 0,
      "note": 75,
      "start": 35.6419,
      "duration": 0.0161,
      "velocity": 124,
      "chip": "ym2612"
    },
    {
      "channel": 3,
      "note": 75,
      "start": 35.6455,
      "duration": 0.0161,
      "velocity": 100,
      "chip": "ym2612"
    },
    {
      "channel": 2,
      "note": 58,
      "start": 35.6466,
      "duration": 0.0161,
      "velocity": 100,
      "chip": "ym2612"
    },
    {
      "channel": 1,
      "note": 80,
      "start": 35.6478,
      "duration": 0.0161,
      "velocity": 100,
      "chip": "ym2612"
    },
    {
      "channel": 0,
      "note": 72,
      "start": 35.658,
      "duration": 0.0161,
      "velocity": 124,
      "chip": "ym2612"
    },
    {
      "channel": 3,
      "note": 75,
      "start": 35.6616,
      "duration": 0.0161,
      "velocity": 100,
      "chip": "ym2612"
    },
    {
      "channel": 2,
      "note": 58,
      "start": 35.6627,
      "duration": 0.0161,
      "velocity": 100,
      "chip": "ym2612"
    },
    {
      "channel": 1,
      "note": 80,
      "start": 35.6639,
      "duration": 0.0161,
      "velocity": 100,
      "chip": "ym2612"
    },
    {
      "channel": 0,
      "note": 70,
      "start": 35.6741,
      "duration": 0.0161,
      "velocity": 124,
      "chip": "ym2612"
    },
    {
      "channel": 3,
      "note": 75,
      "start": 35.6777,
      "duration": 0.0167,
      "velocity": 100,
      "chip": "ym2612"
    },
    {
      "channel": 2,
      "note": 58,
      "start": 35.6788,
      "duration": 0.0167,
      "velocity": 100,
      "chip": "ym2612"
    },
    {
      "channel": 1,
      "note": 80,
      "start": 35.68,
      "duration": 0.0167,
      "velocity": 100,
      "chip": "ym2612"
    },
    {
      "channel": 0,
      "note": 68,
      "start": 35.6902,
      "duration": 0.0161,
      "velocity": 124,
      "chip": "ym2612"
    },
    {
      "channel": 5,
      "note": 75,
      "start": 35.6917,
      "duration": 0.0158,
      "velocity": 100,
      "chip": "ym2612"
    },
    {
      "channel": 4,
      "note": 80,
      "start": 35.6932,
      "duration": 0.0156,
      "velocity": 100,
      "chip": "ym2612"
    },
    {
      "channel": 2,
      "note": 58,
      "start": 35.6955,
      "duration": 0.0156,
      "velocity": 100,
      "chip": "ym2612"
    },
    {
      "channel": 0,
      "note": 65,
      "start": 35.7063,
      "duration": 0.0161,
      "velocity": 124,
      "chip": "ym2612"
    },
    {
      "channel": 5,
      "note": 75,
      "start": 35.7076,
      "duration": 0.016,
      "velocity": 100,
      "chip": "ym2612"
    },
    {
      "channel": 4,
      "note": 80,
      "start": 35.7088,
      "duration": 0.016,
      "velocity": 100,
      "chip": "ym2612"
    },
    {
      "channel": 2,
      "note": 58,
      "start": 35.7111,
      "duration": 0.016,
      "velocity": 100,
      "chip": "ym2612"
    },
    {
      "channel": 0,
      "note": 63,
      "start": 35.7224,
      "duration": 0.0153,
      "velocity": 1,
      "chip": "ym2612"
    },
    {
      "channel": 5,
      "note": 75,
      "start": 35.7236,
      "duration": 0.0153,
      "velocity": 100,
      "chip": "ym2612"
    },
    {
      "channel": 4,
      "note": 80,
      "start": 35.7248,
      "duration": 0.0153,
      "velocity": 100,
      "chip": "ym2612"
    },
    {
      "channel": 2,
      "note": 58,
      "start": 35.7271,
      "duration": 0.0153,
      "velocity": 100,
      "chip": "ym2612"
    },
    {
      "channel": 5,
      "note": 75,
      "start": 35.7388,
      "duration": 0.0153,
      "velocity": 100,
      "chip": "ym2612"
    },
    {
      "channel": 4,
      "note": 80,
      "start": 35.7401,
      "duration": 0.0152,
      "velocity": 100,
      "chip": "ym2612"
    },
    {
      "channel": 2,
      "note": 58,
      "start": 35.7424,
      "duration": 0.0153,
      "velocity": 100,
      "chip": "ym2612"
    },
    {
      "channel": 5,
      "note": 75,
      "start": 35.7541,
      "duration": 0.0161,
      "velocity": 100,
      "chip": "ym2612"
    },
    {
      "channel": 4,
      "note": 80,
      "start": 35.7553,
      "duration": 0.0162,
      "velocity": 100,
      "chip": "ym2612"
    },
    {
      "channel": 2,
      "note": 58,
      "start": 35.7576,
      "duration": 0.0161,
      "velocity": 100,
      "chip": "ym2612"
    },
    {
      "channel": 5,
      "note": 75,
      "start": 35.7702,
      "duration": 0.0197,
      "velocity": 100,
      "chip": "ym2612"
    },
    {
      "channel": 4,
      "note": 80,
      "start": 35.7714,
      "duration": 0.0197,
      "velocity": 100,
      "chip": "ym2612"
    },
    {
      "channel": 2,
      "note": 58,
      "start": 35.7737,
      "duration": 0.0203,
      "velocity": 100,
      "chip": "ym2612"
    },
    {
      "channel": 0,
      "note": 36,
      "start": 35.7887,
      "duration": 0.0146,
      "velocity": 115,
      "chip": "ym2612"
    },
    {
      "channel": 5,
      "note": 75,
      "start": 35.7899,
      "duration": 0.0147,
      "velocity": 100,
      "chip": "ym2612"
    },
    {
      "channel": 4,
      "note": 80,
      "start": 35.7911,
      "duration": 0.0147,
      "velocity": 100,
      "chip": "ym2612"
    },
    {
      "channel": 3,
      "note": 71,
      "start": 35.7926,
      "duration": 0.0144,
      "velocity": 100,
      "chip": "ym2612"
    },
    {
      "channel": 2,
      "note": 70,
      "start": 35.7941,
      "duration": 0.0141,
      "velocity": 100,
      "chip": "ym2612"
    },
    {
      "channel": 1,
      "note": 75,
      "start": 35.7956,
      "duration": 0.0139,
      "velocity": 100,
      "chip": "ym2612"
    },
    {
      "channel": 0,
      "note": 36,
      "start": 35.8034,
      "duration": 0.0162,
      "velocity": 115,
      "chip": "ym2612"
    },
    {
      "channel": 3,
      "note": 71,
      "start": 35.807,
      "duration": 0.0161,
      "velocity": 100,
      "chip": "ym2612"
    },
    {
      "channel": 2,
      "note": 70,
      "start": 35.8082,
      "duration": 0.0161,
      "velocity": 100,
      "chip": "ym2612"
    },
    {
      "channel": 1,
      "note": 75,
      "start": 35.8095,
      "duration": 0.016,
      "velocity": 100,
      "chip": "ym2612"
    },
    {
      "channel": 0,
      "note": 37,
      "start": 35.8196,
      "duration": 0.0162,
      "velocity": 115,
      "chip": "ym2612"
    },
    {
      "channel": 3,
      "note": 71,
      "start": 35.8231,
      "duration": 0.0161,
      "velocity": 100,
      "chip": "ym2612"
    },
    {
      "channel": 2,
      "note": 70,
      "start": 35.8243,
      "duration": 0.0161,
      "velocity": 100,
      "chip": "ym2612"
    },
    {
      "channel": 1,
      "note": 75,
      "start": 35.8255,
      "duration": 0.0161,
      "velocity": 100,
      "chip": "ym2612"
    },
    {
      "channel": 0,
      "note": 37,
      "start": 35.8357,
      "duration": 0.016,
      "velocity": 115,
      "chip": "ym2612"
    },
    {
      "channel": 3,
      "note": 71,
      "start": 35.8392,
      "duration": 0.0161,
      "velocity": 100,
      "chip": "ym2612"
    },
    {
      "channel": 2,
      "note": 70,
      "start": 35.8404,
      "duration": 0.0161,
      "velocity": 100,
      "chip": "ym2612"
    },
    {
      "channel": 1,
      "note": 75,
      "start": 35.8416,
      "duration": 0.0161,
      "velocity": 100,
      "chip": "ym2612"
    },
    {
      "channel": 0,
      "note": 38,
      "start": 35.8518,
      "duration": 0.0158,
      "velocity": 115,
      "chip": "ym2612"
    },
    {
      "channel": 3,
      "note": 71,
      "start": 35.8553,
      "duration": 0.0161,
      "velocity": 100,
      "chip": "ym2612"
    },
    {
      "channel": 2,
      "note": 70,
      "start": 35.8565,
      "duration": 0.0161,
      "velocity": 100,
      "chip": "ym2612"
    },
    {
      "channel": 1,
      "note": 75,
      "start": 35.8577,
      "duration": 0.0161,
      "velocity": 100,
      "chip": "ym2612"
    },
    {
      "channel": 0,
      "note": 38,
      "start": 35.8676,
      "duration": 0.0183,
      "velocity": 115,
      "chip": "ym2612"
    },
    {
      "channel": 3,
      "note": 71,
      "start": 35.8714,
      "duration": 0.018,
      "velocity": 100,
      "chip": "ym2612"
    },
    {
      "channel": 2,
      "note": 70,
      "start": 35.8726,
      "duration": 0.018,
      "velocity": 100,
      "chip": "ym2612"
    },
    {
      "channel": 1,
      "note": 75,
      "start": 35.8738,
      "duration": 0.018,
      "velocity": 100,
      "chip": "ym2612"
    },
    {
      "channel": 0,
      "note": 36,
      "start": 35.8859,
      "duration": 0.0137,
      "velocity": 115,
      "chip": "ym2612"
    },
    {
      "channel": 3,
      "note": 71,
      "start": 35.8894,
      "duration": 0.0149,
      "velocity": 100,
      "chip": "ym2612"
    },
    {
      "channel": 2,
      "note": 70,
      "start": 35.8906,
      "duration": 0.015,
      "velocity": 100,
      "chip": "ym2612"
    },
    {
      "channel": 1,
      "note": 75,
      "start": 35.8918,
      "duration": 0.015,
      "velocity": 100,
      "chip": "ym2612"
    },
    {
      "channel": 0,
      "note": 36,
      "start": 35.8996,
      "duration": 0.016,
      "velocity": 115,
      "chip": "ym2612"
    },
    {
      "channel": 5,
      "note": 75,
      "start": 35.9016,
      "duration": 0.0153,
      "velocity": 100,
      "chip": "ym2612"
    },
    {
      "channel": 4,
      "note": 80,
      "start": 35.9031,
      "duration": 0.0156,
      "velocity": 100,
      "chip": "ym2612"
    },
    {
      "channel": 2,
      "note": 70,
      "start": 35.9056,
      "duration": 0.0155,
      "velocity": 100,
      "chip": "ym2612"
    },
    {
      "channel": 0,
      "note": 37,
      "start": 35.9156,
      "duration": 0.0161,
      "velocity": 115,
      "chip": "ym2612"
    },
    {
      "channel": 5,
      "note": 75,
      "start": 35.9168,
      "duration": 0.016,
      "velocity": 100,
      "chip": "ym2612"
    },
    {
      "channel": 4,
      "note": 80,
      "start": 35.9187,
      "duration": 0.0156,
      "velocity": 100,
      "chip": "ym2612"
    },
    {
      "channel": 2,
      "note": 70,
      "start": 35.9211,
      "duration": 0.016,
      "velocity": 100,
      "chip": "ym2612"
    },
    {
      "channel": 0,
      "note": 37,
      "start": 35.9317,
      "duration": 0.0161,
      "velocity": 115,
      "chip": "ym2612"
    },
    {
      "channel": 5,
      "note": 75,
      "start": 35.9329,
      "duration": 0.0161,
      "velocity": 100,
      "chip": "ym2612"
    },
    {
      "channel": 4,
      "note": 80,
      "start": 35.9343,
      "duration": 0.0159,
      "velocity": 100,
      "chip": "ym2612"
    },
    {
      "channel": 2,
      "note": 70,
      "start": 35.9371,
      "duration": 0.016,
      "velocity": 100,
      "chip": "ym2612"
    },
    {
      "channel": 0,
      "note": 38,
      "start": 35.9478,
      "duration": 0.0161,
      "velocity": 115,
      "chip": "ym2612"
    },
    {
      "channel": 5,
      "note": 75,
      "start": 35.949,
      "duration": 0.0161,
      "velocity": 100,
      "chip": "ym2612"
    },
    {
      "channel": 4,
      "note": 80,
      "start": 35.9502,
      "duration": 0.0161,
      "velocity": 100,
      "chip": "ym2612"
    },
    {
      "channel": 2,
      "note": 70,
      "start": 35.9531,
      "duration": 0.0161,
      "velocity": 100,
      "chip": "ym2612"
    },
    {
      "channel": 0,
      "note": 38,
      "start": 35.9639,
      "duration": 0.0161,
      "velocity": 115,
      "chip": "ym2612"
    },
    {
      "channel": 5,
      "note": 75,
      "start": 35.9651,
      "duration": 0.0161,
      "velocity": 100,
      "chip": "ym2612"
    },
    {
      "channel": 4,
      "note": 80,
      "start": 35.9663,
      "duration": 0.0161,
      "velocity": 100,
      "chip": "ym2612"
    },
    {
      "channel": 2,
      "note": 70,
      "start": 35.9692,
      "duration": 0.0161,
      "velocity": 100,
      "chip": "ym2612"
    },
    {
      "channel": 0,
      "note": 39,
      "start": 35.98,
      "duration": 0.018,
      "velocity": 115,
      "chip": "ym2612"
    },
    {
      "channel": 5,
      "note": 75,
      "start": 35.9812,
      "duration": 0.0179,
      "velocity": 100,
      "chip": "ym2612"
    },
    {
      "channel": 4,
      "note": 80,
      "start": 35.9824,
      "duration": 0.0179,
      "velocity": 100,
      "chip": "ym2612"
    },
    {
      "channel": 2,
      "note": 70,
      "start": 35.9854,
      "duration": 0.0186,
      "velocity": 100,
      "chip": "ym2612"
    },
    {
      "channel": 0,
      "note": 36,
      "start": 35.998,
      "duration": 0.0143,
      "velocity": 115,
      "chip": "ym2612"
    },
    {
      "channel": 5,
      "note": 75,
      "start": 35.9992,
      "duration": 0.0143,
      "velocity": 100,
      "chip": "ym2612"
    },
    {
      "channel": 4,
      "note": 80,
      "start": 36.0004,
      "duration": 0.0143,
      "velocity": 100,
      "chip": "ym2612"
    },
    {
      "channel": 3,
      "note": 75,
      "start": 36.0025,
      "duration": 0.0135,
      "velocity": 100,
      "chip": "ym2612"
    },
    {
      "channel": 2,
      "note": 59,
      "start": 36.0039,
      "duration": 0.0134,
      "velocity": 100,
      "chip": "ym2612"
    },
    {
      "channel": 1,
      "note": 80,
      "start": 36.0055,
      "duration": 0.0135,
      "velocity": 100,
      "chip": "ym2612"
    },
    {
      "channel": 0,
      "note": 36,
      "start": 36.0123,
      "duration": 0.016,
      "velocity": 115,
      "chip": "ym2612"
    },
    {
      "channel": 3,
      "note": 75,
      "start": 36.0159,
      "duration": 0.0159,
      "velocity": 100,
      "chip": "ym2612"
    },
    {
      "channel": 2,
      "note": 59,
      "start": 36.0173,
      "duration": 0.0156,
      "velocity": 100,
      "chip": "ym2612"
    },
    {
      "channel": 1,
      "note": 80,
      "start": 36.019,
      "duration": 0.0158,
      "velocity": 100,
      "chip": "ym2612"
    },
    {
      "channel": 0,
      "note": 37,
      "start": 36.0283,
      "duration": 0.0161,
      "velocity": 115,
      "chip": "ym2612"
    },
    {
      "channel": 3,
      "note": 75,
      "start": 36.0319,
      "duration": 0.0161,
      "velocity": 100,
      "chip": "ym2612"
    },
    {
      "channel": 2,
      "note": 59,
      "start": 36.033,
      "duration": 0.0161,
      "velocity": 100,
      "chip": "ym2612"
    },
    {
      "channel": 1,
      "note": 80,
      "start": 36.0348,
      "duration": 0.0155,
      "velocity": 100,
      "chip": "ym2612"
    },
    {
      "channel": 0,
      "note": 37,
      "start": 36.0444,
      "duration": 0.0161,
      "velocity": 115,
      "chip": "ym2612"
    },
    {
      "channel": 3,
      "note": 75,
      "start": 36.048,
      "duration": 0.0161,
      "velocity": 100,
      "chip": "ym2612"
    },
    {
      "channel": 2,
      "note": 59,
      "start": 36.0491,
      "duration": 0.0161,
      "velocity": 100,
      "chip": "ym2612"
    },
    {
      "channel": 1,
      "note": 80,
      "start": 36.0503,
      "duration": 0.0161,
      "velocity": 100,
      "chip": "ym2612"
    },
    {
      "channel": 0,
      "note": 38,
      "start": 36.0605,
      "duration": 0.0161,
      "velocity": 115,
      "chip": "ym2612"
    },
    {
      "channel": 3,
      "note": 75,
      "start": 36.064,
      "duration": 0.0161,
      "velocity": 100,
      "chip": "ym2612"
    },
    {
      "channel": 2,
      "note": 59,
      "start": 36.0652,
      "duration": 0.0161,
      "velocity": 100,
      "chip": "ym2612"
    },
    {
      "channel": 1,
      "note": 80,
      "start": 36.0664,
      "duration": 0.0161,
      "velocity": 100,
      "chip": "ym2612"
    },
    {
      "channel": 0,
      "note": 38,
      "start": 36.0766,
      "duration": 0.0161,
      "velocity": 115,
      "chip": "ym2612"
    },
    {
      "channel": 3,
      "note": 75,
      "start": 36.0801,
      "duration": 0.0161,
      "velocity": 100,
      "chip": "ym2612"
    },
    {
      "channel": 2,
      "note": 59,
      "start": 36.0813,
      "duration": 0.0161,
      "velocity": 100,
      "chip": "ym2612"
    },
    {
      "channel": 1,
      "note": 80,
      "start": 36.0825,
      "duration": 0.0161,
      "velocity": 100,
      "chip": "ym2612"
    },
    {
      "channel": 0,
      "note": 39,
      "start": 36.0927,
      "duration": 0.0161,
      "velocity": 115,
      "chip": "ym2612"
    },
    {
      "channel": 3,
      "note": 75,
      "start": 36.0962,
      "duration": 0.0168,
      "velocity": 100,
      "chip": "ym2612"
    },
    {
      "channel": 2,
      "note": 59,
      "start": 36.0974,
      "duration": 0.0169,
      "velocity": 100,
      "chip": "ym2612"
    },
    {
      "channel": 1,
      "note": 80,
      "start": 36.0986,
      "duration": 0.0168,
      "velocity": 100,
      "chip": "ym2612"
    },
    {
      "channel": 0,
      "note": 39,
      "start": 36.1088,
      "duration": 0.0161,
      "velocity": 115,
      "chip": "ym2612"
    },
    {
      "channel": 5,
      "note": 71,
      "start": 36.1104,
      "duration": 0.0158,
      "velocity": 100,
      "chip": "ym2612"
    },
    {
      "channel": 4,
      "note": 75,
      "start": 36.1119,
      "duration": 0.0155,
      "velocity": 100,
      "chip": "ym2612"
    },
    {
      "channel": 3,
      "note": 75,
      "start": 36.1131,
      "duration": 0.0155,
      "velocity": 100,
      "chip": "ym2612"
    },
    {
      "channel": 2,
      "note": 59,
      "start": 36.1142,
      "duration": 0.0155,
      "velocity": 100,
      "chip": "ym2612"
    },
    {
      "channel": 1,
      "note": 80,
      "start": 36.1154,
      "duration": 0.0156,
      "velocity": 100,
      "chip": "ym2612"
    },
    {
      "channel": 0,
      "note": 40,
      "start": 36.1249,
      "duration": 0.0161,
      "velocity": 115,
      "chip": "ym2612"
    },
    {
      "channel": 5,
      "note": 71,
      "start": 36.1262,
      "duration": 0.016,
      "velocity": 100,
      "chip": "ym2612"
    },
    {
      "channel": 4,
      "note": 75,
      "start": 36.1274,
      "duration": 0.016,
      "velocity": 100,
      "chip": "ym2612"
    },
    {
      "channel": 3,
      "note": 75,
      "start": 36.1286,
      "duration": 0.016,
      "velocity": 100,
      "chip": "ym2612"
    },
    {
      "channel": 2,
      "note": 59,
      "start": 36.1298,
      "duration": 0.016,
      "velocity": 100,
      "chip": "ym2612"
    },
    {
      "channel": 1,
      "note": 80,
      "start": 36.131,
      "duration": 0.016,
      "velocity": 100,
      "chip": "ym2612"
    },
    {
      "channel": 0,
      "note": 40,
      "start": 36.141,
      "duration": 0.0161,
      "velocity": 115,
      "chip": "ym2612"
    },
    {
      "channel": 5,
      "note": 71,
      "start": 36.1422,
      "duration": 0.0161,
      "velocity": 100,
      "chip": "ym2612"
    },
    {
      "channel": 4,
      "note": 75,
      "start": 36.1434,
      "duration": 0.0161,
      "velocity": 100,
      "chip": "ym2612"
    },
    {
      "channel": 3,
      "note": 75,
      "start": 36.1446,
      "duration": 0.0161,
      "velocity": 100,
      "chip": "ym2612"
    },
    {
      "channel": 2,
      "note": 59,
      "start": 36.1457,
      "duration": 0.0161,
      "velocity": 100,
      "chip": "ym2612"
    },
    {
      "channel": 1,
      "note": 80,
      "start": 36.1469,
      "duration": 0.0161,
      "velocity": 100,
      "chip": "ym2612"
    },
    {
      "channel": 0,
      "note": 40,
      "start": 36.1571,
      "duration": 0.0161,
      "velocity": 115,
      "chip": "ym2612"
    },
    {
      "channel": 5,
      "note": 71,
      "start": 36.1583,
      "duration": 0.0161,
      "velocity": 100,
      "chip": "ym2612"
    },
    {
      "channel": 4,
      "note": 75,
      "start": 36.1595,
      "duration": 0.0161,
      "velocity": 100,
      "chip": "ym2612"
    },
    {
      "channel": 3,
      "note": 75,
      "start": 36.1607,
      "duration": 0.0161,
      "velocity": 100,
      "chip": "ym2612"
    },
    {
      "channel": 2,
      "note": 59,
      "start": 36.1618,
      "duration": 0.0161,
      "velocity": 100,
      "chip": "ym2612"
    },
    {
      "channel": 1,
      "note": 80,
      "start": 36.163,
      "duration": 0.0161,
      "velocity": 100,
      "chip": "ym2612"
    },
    {
      "channel": 0,
      "note": 41,
      "start": 36.1732,
      "duration": 0.0161,
      "velocity": 115,
      "chip": "ym2612"
    },
    {
      "channel": 5,
      "note": 71,
      "start": 36.1744,
      "duration": 0.0161,
      "velocity": 100,
      "chip": "ym2612"
    },
    {
      "channel": 4,
      "note": 75,
      "start": 36.1756,
      "duration": 0.0161,
      "velocity": 100,
      "chip": "ym2612"
    },
    {
      "channel": 3,
      "note": 75,
      "start": 36.1768,
      "duration": 0.0161,
      "velocity": 100,
      "chip": "ym2612"
    },
    {
      "channel": 2,
      "note": 59,
      "start": 36.1779,
      "duration": 0.0161,
      "velocity": 100,
      "chip": "ym2612"
    },
    {
      "channel": 1,
      "note": 80,
      "start": 36.1791,
      "duration": 0.0161,
      "velocity": 100,
      "chip": "ym2612"
    },
    {
      "channel": 0,
      "note": 41,
      "start": 36.1893,
      "duration": 0.0179,
      "velocity": 115,
      "chip": "ym2612"
    },
    {
      "channel": 5,
      "note": 71,
      "start": 36.1905,
      "duration": 0.0179,
      "velocity": 100,
      "chip": "ym2612"
    },
    {
      "channel": 4,
      "note": 75,
      "start": 36.1917,
      "duration": 0.0179,
      "velocity": 100,
      "chip": "ym2612"
    },
    {
      "channel": 3,
      "note": 75,
      "start": 36.1929,
      "duration": 0.018,
      "velocity": 100,
      "chip": "ym2612"
    },
    {
      "channel": 2,
      "note": 59,
      "start": 36.194,
      "duration": 0.0183,
      "velocity": 100,
      "chip": "ym2612"
    },
    {
      "channel": 1,
      "note": 80,
      "start": 36.1952,
      "duration": 0.0183,
      "velocity": 100,
      "chip": "ym2612"
    },
    {
      "channel": 0,
      "note": 36,
      "start": 36.2073,
      "duration": 0.0143,
      "velocity": 115,
      "chip": "ym2612"
    },
    {
      "channel": 5,
      "note": 71,
      "start": 36.2084,
      "duration": 0.0144,
      "velocity": 100,
      "chip": "ym2612"
    },
    {
      "channel": 4,
      "note": 75,
      "start": 36.2097,
      "duration": 0.0144,
      "velocity": 100,
      "chip": "ym2612"
    },
    {
      "channel": 3,
      "note": 75,
      "start": 36.2109,
      "duration": 0.0144,
      "velocity": 100,
      "chip": "ym2612"
    },
    {
      "channel": 2,
      "note": 71,
      "start": 36.2123,
      "duration": 0.0141,
      "velocity": 100,
      "chip": "ym2612"
    },
    {
      "channel": 1,
      "note": 80,
      "start": 36.2135,
      "duration": 0.0141,
      "velocity": 100,
      "chip": "ym2612"
    },
    {
      "channel": 0,
      "note": 36,
      "start": 36.2216,
      "duration": 0.016,
      "velocity": 115,
      "chip": "ym2612"
    },
    {
      "channel": 3,
      "note": 75,
      "start": 36.2252,
      "duration": 0.016,
      "velocity": 100,
      "chip": "ym2612"
    },
    {
      "channel": 2,
      "note": 71,
      "start": 36.2264,
      "duration": 0.0159,
      "velocity": 100,
      "chip": "ym2612"
    },
    {
      "channel": 1,
      "note": 80,
      "start": 36.2276,
      "duration": 0.016,
      "velocity": 100,
      "chip": "ym2612"
    },
    {
      "channel": 0,
      "note": 37,
      "start": 36.2376,
      "duration": 0.0162,
      "velocity": 115,
      "chip": "ym2612"
    },
    {
      "channel": 3,
      "note": 75,
      "start": 36.2412,
      "duration": 0.0162,
      "velocity": 100,
      "chip": "ym2612"
    },
    {
      "channel": 2,
      "note": 71,
      "start": 36.2424,
      "duration": 0.0161,
      "velocity": 100,
      "chip": "ym2612"
    },
    {
      "channel": 1,
      "note": 80,
      "start": 36.2436,
      "duration": 0.0162,
      "velocity": 100,
      "chip": "ym2612"
    },
    {
      "channel": 0,
      "note": 37,
      "start": 36.2538,
      "duration": 0.0163,
      "velocity": 115,
      "chip": "ym2612"
    },
    {
      "channel": 3,
      "note": 75,
      "start": 36.2574,
      "duration": 0.0163,
      "velocity": 100,
      "chip": "ym2612"
    },
    {
      "channel": 2,
      "note": 71,
      "start": 36.2585,
      "duration": 0.0163,
      "velocity": 100,
      "chip": "ym2612"
    },
    {
      "channel": 1,
      "note": 80,
      "start": 36.2597,
      "duration": 0.0162,
      "velocity": 100,
      "chip": "ym2612"
    },
    {
      "channel": 0,
      "note": 38,
      "start": 36.2701,
      "duration": 0.0163,
      "velocity": 115,
      "chip": "ym2612"
    },
    {
      "channel": 3,
      "note": 75,
      "start": 36.2737,
      "duration": 0.0163,
      "velocity": 100,
      "chip": "ym2612"
    },
    {
      "channel": 2,
      "note": 71,
      "start": 36.2748,
      "duration": 0.0163,
      "velocity": 100,
      "chip": "ym2612"
    },
    {
      "channel": 1,
      "note": 80,
      "start": 36.2759,
      "duration": 0.0163,
      "velocity": 100,
      "chip": "ym2612"
    },
    {
      "channel": 0,
      "note": 38,
      "start": 36.2864,
      "duration": 0.0163,
      "velocity": 115,
      "chip": "ym2612"
    },
    {
      "channel": 3,
      "note": 75,
      "start": 36.2899,
      "duration": 0.0163,
      "velocity": 100,
      "chip": "ym2612"
    },
    {
      "channel": 2,
      "note": 71,
      "start": 36.2911,
      "duration": 0.0163,
      "velocity": 100,
      "chip": "ym2612"
    },
    {
      "channel": 1,
      "note": 80,
      "start": 36.2923,
      "duration": 0.0162,
      "velocity": 100,
      "chip": "ym2612"
    },
    {
      "channel": 0,
      "note": 39,
      "start": 36.3027,
      "duration": 0.0161,
      "velocity": 115,
      "chip": "ym2612"
    },
    {
      "channel": 3,
      "note": 75,
      "start": 36.3062,
      "duration": 0.0168,
      "velocity": 100,
      "chip": "ym2612"
    },
    {
      "channel": 2,
      "note": 71,
      "start": 36.3074,
      "duration": 0.0168,
      "velocity": 100,
      "chip": "ym2612"
    },
    {
      "channel": 1,
      "note": 80,
      "start": 36.3085,
      "duration": 0.0169,
      "velocity": 100,
      "chip": "ym2612"
    },
    {
      "channel": 0,
      "note": 39,
      "start": 36.3188,
      "duration": 0.016,
      "velocity": 115,
      "chip": "ym2612"
    },
    {
      "channel": 5,
      "note": 75,
      "start": 36.3203,
      "duration": 0.0159,
      "velocity": 100,
      "chip": "ym2612"
    },
    {
      "channel": 4,
      "note": 80,
      "start": 36.3218,
      "duration": 0.0155,
      "velocity": 100,
      "chip": "ym2612"
    },
    {
      "channel": 2,
      "note": 71,
      "start": 36.3242,
      "duration": 0.0155,
      "velocity": 100,
      "chip": "ym2612"
    },
    {
      "channel": 0,
      "note": 40,
      "start": 36.3348,
      "duration": 0.0156,
      "velocity": 115,
      "chip": "ym2612"
    },
    {
      "channel": 5,
      "note": 75,
      "start": 36.3361,
      "duration": 0.016,
      "velocity": 100,
      "chip": "ym2612"
    },
    {
      "channel": 4,
      "note": 80,
      "start": 36.3373,
      "duration": 0.016,
      "velocity": 100,
      "chip": "ym2612"
    },
    {
      "channel": 2,
      "note": 71,
      "start": 36.3398,
      "duration": 0.016,
      "velocity": 100,
      "chip": "ym2612"
    },
    {
      "channel": 0,
      "note": 40,
      "start": 36.3504,
      "duration": 0.0161,
      "velocity": 115,
      "chip": "ym2612"
    },
    {
      "channel": 5,
      "note": 75,
      "start": 36.3522,
      "duration": 0.016,
      "velocity": 100,
      "chip": "ym2612"
    },
    {
      "channel": 4,
      "note": 80,
      "start": 36.3533,
      "duration": 0.0161,
      "velocity": 100,
      "chip": "ym2612"
    },
    {
      "channel": 2,
      "note": 71,
      "start": 36.3557,
      "duration": 0.016,
      "velocity": 100,
      "chip": "ym2612"
    },
    {
      "channel": 0,
      "note": 40,
      "start": 36.3665,
      "duration": 0.0161,
      "velocity": 115,
      "chip": "ym2612"
    },
    {
      "channel": 5,
      "note": 75,
      "start": 36.3682,
      "duration": 0.0155,
      "velocity": 100,
      "chip": "ym2612"
    },
    {
      "channel": 4,
      "note": 80,
      "start": 36.3694,
      "duration": 0.0161,
      "velocity": 100,
      "chip": "ym2612"
    },
    {
      "channel": 2,
      "note": 71,
      "start": 36.3717,
      "duration": 0.0161,
      "velocity": 100,
      "chip": "ym2612"
    },
    {
      "channel": 0,
      "note": 41,
      "start": 36.3826,
      "duration": 0.0161,
      "velocity": 115,
      "chip": "ym2612"
    },
    {
      "channel": 5,
      "note": 75,
      "start": 36.3837,
      "duration": 0.0162,
      "velocity": 100,
      "chip": "ym2612"
    },
    {
      "channel": 4,
      "note": 80,
      "start": 36.3855,
      "duration": 0.0161,
      "velocity": 100,
      "chip": "ym2612"
    },
    {
      "channel": 2,
      "note": 71,
      "start": 36.3878,
      "duration": 0.0161,
      "velocity": 100,
      "chip": "ym2612"
    },
    {
      "channel": 0,
      "note": 41,
      "start": 36.3986,
      "duration": 0.0179,
      "velocity": 124,
      "chip": "ym2612"
    },
    {
      "channel": 5,
      "note": 75,
      "start": 36.3999,
      "duration": 0.0184,
      "velocity": 100,
      "chip": "ym2612"
    },
    {
      "channel": 4,
      "note": 80,
      "start": 36.4016,
      "duration": 0.018,
      "velocity": 100,
      "chip": "ym2612"
    },
    {
      "channel": 2,
      "note": 71,
      "start": 36.404,
      "duration": 0.0185,
      "velocity": 100,
      "chip": "ym2612"
    },
    {
      "channel": 0,
      "note": 84,
      "start": 36.4166,
      "duration": 0.0143,
      "velocity": 124,
      "chip": "ym2612"
    },
    {
      "channel": 5,
      "note": 75,
      "start": 36.4183,
      "duration": 0.0138,
      "velocity": 100,
      "chip": "ym2612"
    },
    {
      "channel": 4,
      "note": 80,
      "start": 36.4196,
      "duration": 0.0137,
      "velocity": 100,
      "chip": "ym2612"
    },
    {
      "channel": 3,
      "note": 75,
      "start": 36.421,
      "duration": 0.0141,
      "velocity": 100,
      "chip": "ym2612"
    },
    {
      "channel": 2,
      "note": 56,
      "start": 36.4225,
      "duration": 0.0139,
      "velocity": 100,
      "chip": "ym2612"
    },
    {
      "channel": 1,
      "note": 78,
      "start": 36.424,
      "duration": 0.0135,
      "velocity": 100,
      "chip": "ym2612"
    },
    {
      "channel": 0,
      "note": 82,
      "start": 36.4309,
      "duration": 0.016,
      "velocity": 124,
      "chip": "ym2612"
    },
    {
      "channel": 5,
      "note": 75,
      "start": 36.4321,
      "duration": 0.016,
      "velocity": 100,
      "chip": "ym2612"
    },
    {
      "channel": 4,
      "note": 80,
      "start": 36.4333,
      "duration": 0.016,
      "velocity": 100,
      "chip": "ym2612"
    },
    {
      "channel": 3,
      "note": 75,
      "start": 36.4351,
      "duration": 0.0156,
      "velocity": 100,
      "chip": "ym2612"
    },
    {
      "channel": 2,
      "note": 56,
      "start": 36.4364,
      "duration": 0.0159,
      "velocity": 100,
      "chip": "ym2612"
    },
    {
      "channel": 1,
      "note": 78,
      "start": 36.4376,
      "duration": 0.0159,
      "velocity": 100,
      "chip": "ym2612"
    },
    {
      "channel": 0,
      "note": 80,
      "start": 36.4469,
      "duration": 0.0161,
      "velocity": 124,
      "chip": "ym2612"
    },
    {
      "channel": 5,
      "note": 75,
      "start": 36.4481,
      "duration": 0.0161,
      "velocity": 100,
      "chip": "ym2612"
    },
    {
      "channel": 4,
      "note": 80,
      "start": 36.4493,
      "duration": 0.0161,
      "velocity": 100,
      "chip": "ym2612"
    },
    {
      "channel": 3,
      "note": 75,
      "start": 36.4507,
      "duration": 0.0159,
      "velocity": 100,
      "chip": "ym2612"
    },
    {
      "channel": 2,
      "note": 56,
      "start": 36.4523,
      "duration": 0.016,
      "velocity": 100,
      "chip": "ym2612"
    },
    {
      "channel": 1,
      "note": 78,
      "start": 36.4535,
      "duration": 0.0161,
      "velocity": 100,
      "chip": "ym2612"
    },
    {
      "channel": 0,
      "note": 77,
      "start": 36.4631,
      "duration": 0.0161,
      "velocity": 124,
      "chip": "ym2612"
    },
    {
      "channel": 5,
      "note": 75,
      "start": 36.4642,
      "duration": 0.0161,
      "velocity": 100,
      "chip": "ym2612"
    },
    {
      "channel": 4,
      "note": 80,
      "start": 36.4654,
      "duration": 0.0161,
      "velocity": 100,
      "chip": "ym2612"
    },
    {
      "channel": 3,
      "note": 75,
      "start": 36.4666,
      "duration": 0.0161,
      "velocity": 100,
      "chip": "ym2612"
    },
    {
      "channel": 2,
      "note": 56,
      "start": 36.4683,
      "duration": 0.0158,
      "velocity": 100,
      "chip": "ym2612"
    },
    {
      "channel": 1,
      "note": 78,
      "start": 36.4696,
      "duration": 0.0161,
      "velocity": 100,
      "chip": "ym2612"
    },
    {
      "channel": 0,
      "note": 75,
      "start": 36.4792,
      "duration": 0.0161,
      "velocity": 124,
      "chip": "ym2612"
    },
    {
      "channel": 5,
      "note": 75,
      "start": 36.4803,
      "duration": 0.0161,
      "velocity": 100,
      "chip": "ym2612"
    },
    {
      "channel": 4,
      "note": 80,
      "start": 36.4815,
      "duration": 0.0161,
      "velocity": 100,
      "chip": "ym2612"
    },
    {
      "channel": 3,
      "note": 75,
      "start": 36.4827,
      "duration": 0.0161,
      "velocity": 100,
      "chip": "ym2612"
    },
    {
      "channel": 2,
      "note": 56,
      "start": 36.4841,
      "duration": 0.0159,
      "velocity": 100,
      "chip": "ym2612"
    },
    {
      "channel": 1,
      "note": 78,
      "start": 36.4857,
      "duration": 0.016,
      "velocity": 100,
      "chip": "ym2612"
    },
    {
      "channel": 0,
      "note": 72,
      "start": 36.4953,
      "duration": 0.0179,
      "velocity": 124,
      "chip": "ym2612"
    },
    {
      "channel": 5,
      "note": 75,
      "start": 36.4964,
      "duration": 0.0179,
      "velocity": 100,
      "chip": "ym2612"
    },
    {
      "channel": 4,
      "note": 80,
      "start": 36.4976,
      "duration": 0.0179,
      "velocity": 100,
      "chip": "ym2612"
    },
    {
      "channel": 3,
      "note": 75,
      "start": 36.4988,
      "duration": 0.0179,
      "velocity": 100,
      "chip": "ym2612"
    },
    {
      "channel": 2,
      "note": 56,
      "start": 36.5,
      "duration": 0.0185,
      "velocity": 100,
      "chip": "ym2612"
    },
    {
      "channel": 1,
      "note": 78,
      "start": 36.5017,
      "duration": 0.018,
      "velocity": 100,
      "chip": "ym2612"
    },
    {
      "channel": 0,
      "note": 84,
      "start": 36.5132,
      "duration": 0.0143,
      "velocity": 124,
      "chip": "ym2612"
    },
    {
      "channel": 5,
      "note": 75,
      "start": 36.5144,
      "duration": 0.0144,
      "velocity": 100,
      "chip": "ym2612"
    },
    {
      "channel": 4,
      "note": 80,
      "start": 36.5156,
      "duration": 0.0144,
      "velocity": 100,
      "chip": "ym2612"
    },
    {
      "channel": 3,
      "note": 75,
      "start": 36.5168,
      "duration": 0.0143,
      "velocity": 100,
      "chip": "ym2612"
    },
    {
      "channel": 2,
      "note": 56,
      "start": 36.5184,
      "duration": 0.0138,
      "velocity": 100,
      "chip": "ym2612"
    },
    {
      "channel": 1,
      "note": 78,
      "start": 36.5197,
      "duration": 0.0137,
      "velocity": 100,
      "chip": "ym2612"
    },
    {
      "channel": 0,
      "note": 82,
      "start": 36.5275,
      "duration": 0.016,
      "velocity": 124,
      "chip": "ym2612"
    },
    {
      "channel": 5,
      "note": 75,
      "start": 36.5287,
      "duration": 0.016,
      "velocity": 100,
      "chip": "ym2612"
    },
    {
      "channel": 4,
      "note": 80,
      "start": 36.53,
      "duration": 0.016,
      "velocity": 100,
      "chip": "ym2612"
    },
    {
      "channel": 3,
      "note": 75,
      "start": 36.5311,
      "duration": 0.016,
      "velocity": 100,
      "chip": "ym2612"
    },
    {
      "channel": 2,
      "note": 56,
      "start": 36.5322,
      "duration": 0.016,
      "velocity": 100,
      "chip": "ym2612"
    },
    {
      "channel": 1,
      "note": 78,
      "start": 36.5334,
      "duration": 0.016,
      "velocity": 100,
      "chip": "ym2612"
    },
    {
      "channel": 0,
      "note": 80,
      "start": 36.5436,
      "duration": 0.0161,
      "velocity": 124,
      "chip": "ym2612"
    },
    {
      "channel": 5,
      "note": 75,
      "start": 36.5448,
      "duration": 0.0161,
      "velocity": 100,
      "chip": "ym2612"
    },
    {
      "channel": 4,
      "note": 80,
      "start": 36.546,
      "duration": 0.0161,
      "velocity": 100,
      "chip": "ym2612"
    },
    {
      "channel": 3,
      "note": 75,
      "start": 36.5471,
      "duration": 0.0161,
      "velocity": 100,
      "chip": "ym2612"
    },
    {
      "channel": 2,
      "note": 56,
      "start": 36.5483,
      "duration": 0.0161,
      "velocity": 100,
      "chip": "ym2612"
    },
    {
      "channel": 1,
      "note": 78,
      "start": 36.5495,
      "duration": 0.0161,
      "velocity": 100,
      "chip": "ym2612"
    },
    {
      "channel": 0,
      "note": 77,
      "start": 36.5597,
      "duration": 0.0161,
      "velocity": 124,
      "chip": "ym2612"
    },
    {
      "channel": 5,
      "note": 75,
      "start": 36.5609,
      "duration": 0.0162,
      "velocity": 100,
      "chip": "ym2612"
    },
    {
      "channel": 4,
      "note": 80,
      "start": 36.5621,
      "duration": 0.0162,
      "velocity": 100,
      "chip": "ym2612"
    },
    {
      "channel": 3,
      "note": 75,
      "start": 36.5632,
      "duration": 0.0161,
      "velocity": 100,
      "chip": "ym2612"
    },
    {
      "channel": 2,
      "note": 56,
      "start": 36.5644,
      "duration": 0.0162,
      "velocity": 100,
      "chip": "ym2612"
    },
    {
      "channel": 1,
      "note": 78,
      "start": 36.5656,
      "duration": 0.0161,
      "velocity": 100,
      "chip": "ym2612"
    },
    {
      "channel": 0,
      "note": 75,
      "start": 36.5757,
      "duration": 0.0161,
      "velocity": 124,
      "chip": "ym2612"
    },
    {
      "channel": 5,
      "note": 75,
      "start": 36.577,
      "duration": 0.0161,
      "velocity": 100,
      "chip": "ym2612"
    },
    {
      "channel": 4,
      "note": 80,
      "start": 36.5782,
      "duration": 0.0161,
      "velocity": 100,
      "chip": "ym2612"
    },
    {
      "channel": 3,
      "note": 75,
      "start": 36.5794,
      "duration": 0.0161,
      "velocity": 100,
      "chip": "ym2612"
    },
    {
      "channel": 2,
      "note": 56,
      "start": 36.5805,
      "duration": 0.0161,
      "velocity": 100,
      "chip": "ym2612"
    },
    {
      "channel": 1,
      "note": 78,
      "start": 36.5817,
      "duration": 0.0161,
      "velocity": 100,
      "chip": "ym2612"
    },
    {
      "channel": 0,
      "note": 72,
      "start": 36.5918,
      "duration": 0.0161,
      "velocity": 124,
      "chip": "ym2612"
    },
    {
      "channel": 5,
      "note": 75,
      "start": 36.5931,
      "duration": 0.0161,
      "velocity": 100,
      "chip": "ym2612"
    },
    {
      "channel": 4,
      "note": 80,
      "start": 36.5943,
      "duration": 0.0161,
      "velocity": 100,
      "chip": "ym2612"
    },
    {
      "channel": 3,
      "note": 75,
      "start": 36.5955,
      "duration": 0.0161,
      "velocity": 100,
      "chip": "ym2612"
    },
    {
      "channel": 2,
      "note": 56,
      "start": 36.5966,
      "duration": 0.0161,
      "velocity": 100,
      "chip": "ym2612"
    },
    {
      "channel": 1,
      "note": 78,
      "start": 36.5978,
      "duration": 0.0161,
      "velocity": 100,
      "chip": "ym2612"
    },
    {
      "channel": 0,
      "note": 70,
      "start": 36.6079,
      "duration": 0.0179,
      "velocity": 115,
      "chip": "ym2612"
    },
    {
      "channel": 5,
      "note": 75,
      "start": 36.6092,
      "duration": 0.0179,
      "velocity": 100,
      "chip": "ym2612"
    },
    {
      "channel": 4,
      "note": 80,
      "start": 36.6104,
      "duration": 0.018,
      "velocity": 100,
      "chip": "ym2612"
    },
    {
      "channel": 3,
      "note": 75,
      "start": 36.6116,
      "duration": 0.018,
      "velocity": 100,
      "chip": "ym2612"
    },
    {
      "channel": 2,
      "note": 56,
      "start": 36.6127,
      "duration": 0.0183,
      "velocity": 100,
      "chip": "ym2612"
    },
    {
      "channel": 1,
      "note": 78,
      "start": 36.6139,
      "duration": 0.0183,
      "velocity": 100,
      "chip": "ym2612"
    },
    {
      "channel": 0,
      "note": 36,
      "start": 36.6259,
      "duration": 0.0143,
      "velocity": 115,
      "chip": "ym2612"
    },
    {
      "channel": 5,
      "note": 75,
      "start": 36.6271,
      "duration": 0.0143,
      "velocity": 100,
      "chip": "ym2612"
    },
    {
      "channel": 4,
      "note": 80,
      "start": 36.6284,
      "duration": 0.0143,
      "velocity": 100,
      "chip": "ym2612"
    },
    {
      "channel": 3,
      "note": 75,
      "start": 36.6296,
      "duration": 0.0143,
      "velocity": 100,
      "chip": "ym2612"
    },
    {
      "channel": 2,
      "note": 68,
      "start": 36.631,
      "duration": 0.0141,
      "velocity": 100,
      "chip": "ym2612"
    },
    {
      "channel": 1,
      "note": 78,
      "start": 36.6322,
      "duration": 0.014,
      "velocity": 100,
      "chip": "ym2612"
    },
    {
      "channel": 0,
      "note": 36,
      "start": 36.6402,
      "duration": 0.016,
      "velocity": 115,
      "chip": "ym2612"
    },
    {
      "channel": 3,
      "note": 75,
      "start": 36.6439,
      "duration": 0.016,
      "velocity": 100,
      "chip": "ym2612"
    },
    {
      "channel": 2,
      "note": 68,
      "start": 36.6451,
      "duration": 0.016,
      "velocity": 100,
      "chip": "ym2612"
    },
    {
      "channel": 1,
      "note": 78,
      "start": 36.6462,
      "duration": 0.016,
      "velocity": 100,
      "chip": "ym2612"
    },
    {
      "channel": 0,
      "note": 37,
      "start": 36.6563,
      "duration": 0.0161,
      "velocity": 115,
      "chip": "ym2612"
    },
    {
      "channel": 3,
      "note": 75,
      "start": 36.6599,
      "duration": 0.0161,
      "velocity": 100,
      "chip": "ym2612"
    },
    {
      "channel": 2,
      "note": 68,
      "start": 36.661,
      "duration": 0.0161,
      "velocity": 100,
      "chip": "ym2612"
    },
    {
      "channel": 1,
      "note": 78,
      "start": 36.6622,
      "duration": 0.0161,
      "velocity": 100,
      "chip": "ym2612"
    },
    {
      "channel": 0,
      "note": 37,
      "start": 36.6724,
      "duration": 0.0161,
      "velocity": 115,
      "chip": "ym2612"
    },
    {
      "channel": 3,
      "note": 75,
      "start": 36.676,
      "duration": 0.0161,
      "velocity": 100,
      "chip": "ym2612"
    },
    {
      "channel": 2,
      "note": 68,
      "start": 36.6771,
      "duration": 0.0161,
      "velocity": 100,
      "chip": "ym2612"
    },
    {
      "channel": 1,
      "note": 78,
      "start": 36.6783,
      "duration": 0.0161,
      "velocity": 100,
      "chip": "ym2612"
    },
    {
      "channel": 0,
      "note": 38,
      "start": 36.6885,
      "duration": 0.0161,
      "velocity": 115,
      "chip": "ym2612"
    },
    {
      "channel": 3,
      "note": 75,
      "start": 36.6921,
      "duration": 0.0161,
      "velocity": 100,
      "chip": "ym2612"
    },
    {
      "channel": 2,
      "note": 68,
      "start": 36.6932,
      "duration": 0.0161,
      "velocity": 100,
      "chip": "ym2612"
    },
    {
      "channel": 1,
      "note": 78,
      "start": 36.6944,
      "duration": 0.0161,
      "velocity": 100,
      "chip": "ym2612"
    },
    {
      "channel": 0,
      "note": 38,
      "start": 36.7046,
      "duration": 0.0162,
      "velocity": 115,
      "chip": "ym2612"
    },
    {
      "channel": 3,
      "note": 75,
      "start": 36.7082,
      "duration": 0.0162,
      "velocity": 100,
      "chip": "ym2612"
    },
    {
      "channel": 2,
      "note": 68,
      "start": 36.7093,
      "duration": 0.0161,
      "velocity": 100,
      "chip": "ym2612"
    },
    {
      "channel": 1,
      "note": 78,
      "start": 36.7105,
      "duration": 0.0162,
      "velocity": 100,
      "chip": "ym2612"
    },
    {
      "channel": 0,
      "note": 39,
      "start": 36.7207,
      "duration": 0.0161,
      "velocity": 115,
      "chip": "ym2612"
    },
    {
      "channel": 3,
      "note": 75,
      "start": 36.7244,
      "duration": 0.0167,
      "velocity": 100,
      "chip": "ym2612"
    },
    {
      "channel": 2,
      "note": 68,
      "start": 36.7255,
      "duration": 0.0167,
      "velocity": 100,
      "chip": "ym2612"
    },
    {
      "channel": 1,
      "note": 78,
      "start": 36.7266,
      "duration": 0.0168,
      "velocity": 100,
      "chip": "ym2612"
    },
    {
      "channel": 0,
      "note": 39,
      "start": 36.7368,
      "duration": 0.0164,
      "velocity": 115,
      "chip": "ym2612"
    },
    {
      "channel": 5,
      "note": 75,
      "start": 36.7383,
      "duration": 0.0162,
      "velocity": 100,
      "chip": "ym2612"
    },
    {
      "channel": 4,
      "note": 78,
      "start": 36.7398,
      "duration": 0.016,
      "velocity": 100,
      "chip": "ym2612"
    },
    {
      "channel": 2,
      "note": 68,
      "start": 36.7422,
      "duration": 0.016,
      "velocity": 100,
      "chip": "ym2612"
    },
    {
      "channel": 0,
      "note": 40,
      "start": 36.7532,
      "duration": 0.0163,
      "velocity": 115,
      "chip": "ym2612"
    },
    {
      "channel": 5,
      "note": 75,
      "start": 36.7545,
      "duration": 0.0162,
      "velocity": 100,
      "chip": "ym2612"
    },
    {
      "channel": 4,
      "note": 78,
      "start": 36.7558,
      "duration": 0.0161,
      "velocity": 100,
      "chip": "ym2612"
    },
    {
      "channel": 2,
      "note": 68,
      "start": 36.7582,
      "duration": 0.0162,
      "velocity": 100,
      "chip": "ym2612"
    },
    {
      "channel": 0,
      "note": 40,
      "start": 36.7696,
      "duration": 0.0161,
      "velocity": 115,
      "chip": "ym2612"
    },
    {
      "channel": 5,
      "note": 75,
      "start": 36.7707,
      "duration": 0.0161,
      "velocity": 100,
      "chip": "ym2612"
    },
    {
      "channel": 4,
      "note": 78,
      "start": 36.7719,
      "duration": 0.0161,
      "velocity": 100,
      "chip": "ym2612"
    },
    {
      "channel": 2,
      "note": 68,
      "start": 36.7744,
      "duration": 0.016,
      "velocity": 100,
      "chip": "ym2612"
    },
    {
      "channel": 0,
      "note": 40,
      "start": 36.7857,
      "duration": 0.016,
      "velocity": 115,
      "chip": "ym2612"
    },
    {
      "channel": 5,
      "note": 75,
      "start": 36.7868,
      "duration": 0.0161,
      "velocity": 100,
      "chip": "ym2612"
    },
    {
      "channel": 4,
      "note": 78,
      "start": 36.788,
      "duration": 0.0161,
      "velocity": 100,
      "chip": "ym2612"
    },
    {
      "channel": 2,
      "note": 68,
      "start": 36.7904,
      "duration": 0.0161,
      "velocity": 100,
      "chip": "ym2612"
    },
    {
      "channel": 0,
      "note": 41,
      "start": 36.8017,
      "duration": 0.0158,
      "velocity": 115,
      "chip": "ym2612"
    },
    {
      "channel": 5,
      "note": 75,
      "start": 36.803,
      "duration": 0.0161,
      "velocity": 100,
      "chip": "ym2612"
    },
    {
      "channel": 4,
      "note": 78,
      "start": 36.8041,
      "duration": 0.0161,
      "velocity": 100,
      "chip": "ym2612"
    },
    {
      "channel": 2,
      "note": 68,
      "start": 36.8065,
      "duration": 0.0161,
      "velocity": 100,
      "chip": "ym2612"
    },
    {
      "channel": 0,
      "note": 41,
      "start": 36.8175,
      "duration": 0.0183,
      "velocity": 115,
      "chip": "ym2612"
    },
    {
      "channel": 5,
      "note": 75,
      "start": 36.8191,
      "duration": 0.0179,
      "velocity": 100,
      "chip": "ym2612"
    },
    {
      "channel": 4,
      "note": 78,
      "start": 36.8202,
      "duration": 0.018,
      "velocity": 100,
      "chip": "ym2612"
    },
    {
      "channel": 2,
      "note": 68,
      "start": 36.8226,
      "duration": 0.0184,
      "velocity": 100,
      "chip": "ym2612"
    },
    {
      "channel": 0,
      "note": 36,
      "start": 36.8358,
      "duration": 0.0137,
      "velocity": 115,
      "chip": "ym2612"
    },
    {
      "channel": 5,
      "note": 75,
      "start": 36.837,
      "duration": 0.0139,
      "velocity": 100,
      "chip": "ym2612"
    },
    {
      "channel": 4,
      "note": 78,
      "start": 36.8382,
      "duration": 0.0144,
      "velocity": 100,
      "chip": "ym2612"
    },
    {
      "channel": 2,
      "note": 52,
      "start": 36.841,
      "duration": 0.0139,
      "velocity": 100,
      "chip": "ym2612"
    },
    {
      "channel": 0,
      "note": 36,
      "start": 36.8495,
      "duration": 0.016,
      "velocity": 115,
      "chip": "ym2612"
    },
    {
      "channel": 5,
      "note": 75,
      "start": 36.8509,
      "duration": 0.0159,
      "velocity": 100,
      "chip": "ym2612"
    },
    {
      "channel": 4,
      "note": 78,
      "start": 36.8525,
      "duration": 0.016,
      "velocity": 100,
      "chip": "ym2612"
    },
    {
      "channel": 2,
      "note": 52,
      "start": 36.8549,
      "duration": 0.016,
      "velocity": 100,
      "chip": "ym2612"
    },
    {
      "channel": 0,
      "note": 37,
      "start": 36.8656,
      "duration": 0.0161,
      "velocity": 115,
      "chip": "ym2612"
    },
    {
      "channel": 5,
      "note": 75,
      "start": 36.8668,
      "duration": 0.0161,
      "velocity": 100,
      "chip": "ym2612"
    },
    {
      "channel": 4,
      "note": 78,
      "start": 36.8685,
      "duration": 0.0158,
      "velocity": 100,
      "chip": "ym2612"
    },
    {
      "channel": 2,
      "note": 52,
      "start": 36.8709,
      "duration": 0.0161,
      "velocity": 100,
      "chip": "ym2612"
    },
    {
      "channel": 0,
      "note": 37,
      "start": 36.8817,
      "duration": 0.0161,
      "velocity": 115,
      "chip": "ym2612"
    },
    {
      "channel": 5,
      "note": 75,
      "start": 36.8829,
      "duration": 0.0161,
      "velocity": 100,
      "chip": "ym2612"
    },
    {
      "channel": 4,
      "note": 78,
      "start": 36.8843,
      "duration": 0.0159,
      "velocity": 100,
      "chip": "ym2612"
    },
    {
      "channel": 2,
      "note": 52,
      "start": 36.887,
      "duration": 0.0161,
      "velocity": 100,
      "chip": "ym2612"
    },
    {
      "channel": 0,
      "note": 38,
      "start": 36.8978,
      "duration": 0.0161,
      "velocity": 115,
      "chip": "ym2612"
    },
    {
      "channel": 5,
      "note": 75,
      "start": 36.899,
      "duration": 0.0161,
      "velocity": 100,
      "chip": "ym2612"
    },
    {
      "channel": 4,
      "note": 78,
      "start": 36.9002,
      "duration": 0.0161,
      "velocity": 100,
      "chip": "ym2612"
    },
    {
      "channel": 2,
      "note": 52,
      "start": 36.9031,
      "duration": 0.0161,
      "velocity": 100,
      "chip": "ym2612"
    },
    {
      "channel": 0,
      "note": 38,
      "start": 36.9139,
      "duration": 0.0161,
      "velocity": 115,
      "chip": "ym2612"
    },
    {
      "channel": 5,
      "note": 75,
      "start": 36.9151,
      "duration": 0.0161,
      "velocity": 100,
      "chip": "ym2612"
    },
    {
      "channel": 4,
      "note": 78,
      "start": 36.9163,
      "duration": 0.0161,
      "velocity": 100,
      "chip": "ym2612"
    },
    {
      "channel": 2,
      "note": 52,
      "start": 36.9192,
      "duration": 0.016,
      "velocity": 100,
      "chip": "ym2612"
    },
    {
      "channel": 0,
      "note": 39,
      "start": 36.93,
      "duration": 0.0161,
      "velocity": 115,
      "chip": "ym2612"
    },
    {
      "channel": 5,
      "note": 75,
      "start": 36.9312,
      "duration": 0.0162,
      "velocity": 100,
      "chip": "ym2612"
    },
    {
      "channel": 4,
      "note": 78,
      "start": 36.9324,
      "duration": 0.0162,
      "velocity": 100,
      "chip": "ym2612"
    },
    {
      "channel": 2,
      "note": 52,
      "start": 36.9352,
      "duration": 0.0162,
      "velocity": 100,
      "chip": "ym2612"
    },
    {
      "channel": 0,
      "note": 39,
      "start": 36.9461,
      "duration": 0.0161,
      "velocity": 115,
      "chip": "ym2612"
    },
    {
      "channel": 5,
      "note": 75,
      "start": 36.9473,
      "duration": 0.0161,
      "velocity": 100,
      "chip": "ym2612"
    },
    {
      "channel": 4,
      "note": 78,
      "start": 36.9485,
      "duration": 0.0161,
      "velocity": 100,
      "chip": "ym2612"
    },
    {
      "channel": 2,
      "note": 52,
      "start": 36.9514,
      "duration": 0.0156,
      "velocity": 100,
      "chip": "ym2612"
    },
    {
      "channel": 0,
      "note": 40,
      "start": 36.9622,
      "duration": 0.0161,
      "velocity": 115,
      "chip": "ym2612"
    },
    {
      "channel": 5,
      "note": 75,
      "start": 36.9634,
      "duration": 0.0161,
      "velocity": 100,
      "chip": "ym2612"
    },
    {
      "channel": 4,
      "note": 78,
      "start": 36.9646,
      "duration": 0.0161,
      "velocity": 100,
      "chip": "ym2612"
    },
    {
      "channel": 2,
      "note": 52,
      "start": 36.967,
      "duration": 0.0161,
      "velocity": 100,
      "chip": "ym2612"
    },
    {
      "channel": 0,
      "note": 40,
      "start": 36.9783,
      "duration": 0.0161,
      "velocity": 115,
      "chip": "ym2612"
    },
    {
      "channel": 5,
      "note": 75,
      "start": 36.9795,
      "duration": 0.0161,
      "velocity": 100,
      "chip": "ym2612"
    },
    {
      "channel": 4,
      "note": 78,
      "start": 36.9807,
      "duration": 0.0161,
      "velocity": 100,
      "chip": "ym2612"
    },
    {
      "channel": 2,
      "note": 52,
      "start": 36.9831,
      "duration": 0.0161,
      "velocity": 100,
      "chip": "ym2612"
    },
    {
      "channel": 0,
      "note": 40,
      "start": 36.9944,
      "duration": 0.0161,
      "velocity": 115,
      "chip": "ym2612"
    },
    {
      "channel": 5,
      "note": 75,
      "start": 36.9956,
      "duration": 0.0161,
      "velocity": 100,
      "chip": "ym2612"
    },
    {
      "channel": 4,
      "note": 78,
      "start": 36.9968,
      "duration": 0.0161,
      "velocity": 100,
      "chip": "ym2612"
    },
    {
      "channel": 2,
      "note": 52,
      "start": 36.9992,
      "duration": 0.0161,
      "velocity": 100,
      "chip": "ym2612"
    },
    {
      "channel": 0,
      "note": 41,
      "start": 37.0105,
      "duration": 0.0161,
      "velocity": 115,
      "chip": "ym2612"
    },
    {
      "channel": 5,
      "note": 75,
      "start": 37.0117,
      "duration": 0.0161,
      "velocity": 100,
      "chip": "ym2612"
    },
    {
      "channel": 4,
      "note": 78,
      "start": 37.0129,
      "duration": 0.0161,
      "velocity": 100,
      "chip": "ym2612"
    },
    {
      "channel": 2,
      "note": 52,
      "start": 37.0153,
      "duration": 0.016,
      "velocity": 100,
      "chip": "ym2612"
    },
    {
      "channel": 0,
      "note": 41,
      "start": 37.0266,
      "duration": 0.0179,
      "velocity": 124,
      "chip": "ym2612"
    },
    {
      "channel": 5,
      "note": 75,
      "start": 37.0278,
      "duration": 0.018,
      "velocity": 100,
      "chip": "ym2612"
    },
    {
      "channel": 4,
      "note": 78,
      "start": 37.029,
      "duration": 0.018,
      "velocity": 100,
      "chip": "ym2612"
    },
    {
      "channel": 2,
      "note": 52,
      "start": 37.0313,
      "duration": 0.0187,
      "velocity": 100,
      "chip": "ym2612"
    },
    {
      "channel": 0,
      "note": 84,
      "start": 37.0446,
      "duration": 0.0142,
      "velocity": 124,
      "chip": "ym2612"
    },
    {
      "channel": 5,
      "note": 75,
      "start": 37.0458,
      "duration": 0.0143,
      "velocity": 100,
      "chip": "ym2612"
    },
    {
      "channel": 4,
      "note": 78,
      "start": 37.047,
      "duration": 0.0143,
      "velocity": 100,
      "chip": "ym2612"
    },
    {
      "channel": 3,
      "note": 76,
      "start": 37.0486,
      "duration": 0.0139,
      "velocity": 100,
      "chip": "ym2612"
    },
    {
      "channel": 2,
      "note": 64,
      "start": 37.0501,
      "duration": 0.0136,
      "velocity": 100,
      "chip": "ym2612"
    },
    {
      "channel": 1,
      "note": 80,
      "start": 37.0523,
      "duration": 0.0127,
      "velocity": 100,
      "chip": "ym2612"
    },
    {
      "channel": 0,
      "note": 82,
      "start": 37.0588,
      "duration": 0.0161,
      "velocity": 124,
      "chip": "ym2612"
    },
    {
      "channel": 3,
      "note": 76,
      "start": 37.0625,
      "duration": 0.016,
      "velocity": 100,
      "chip": "ym2612"
    },
    {
      "channel": 2,
      "note": 64,
      "start": 37.0637,
      "duration": 0.016,
      "velocity": 100,
      "chip": "ym2612"
    },
    {
      "channel": 1,
      "note": 80,
      "start": 37.065,
      "duration": 0.0159,
      "velocity": 100,
      "chip": "ym2612"
    },
    {
      "channel": 0,
      "note": 80,
      "start": 37.0749,
      "duration": 0.0161,
      "velocity": 124,
      "chip": "ym2612"
    },
    {
      "channel": 3,
      "note": 76,
      "start": 37.0785,
      "duration": 0.016,
      "velocity": 100,
      "chip": "ym2612"
    },
    {
      "channel": 2,
      "note": 64,
      "start": 37.0797,
      "duration": 0.016,
      "velocity": 100,
      "chip": "ym2612"
    },
    {
      "channel": 1,
      "note": 80,
      "start": 37.0808,
      "duration": 0.0161,
      "velocity": 100,
      "chip": "ym2612"
    },
    {
      "channel": 0,
      "note": 77,
      "start": 37.091,
      "duration": 0.0161,
      "velocity": 124,
      "chip": "ym2612"
    },
    {
      "channel": 3,
      "note": 76,
      "start": 37.0946,
      "duration": 0.0161,
      "velocity": 100,
      "chip": "ym2612"
    },
    {
      "channel": 2,
      "note": 64,
      "start": 37.0957,
      "duration": 0.0161,
      "velocity": 100,
      "chip": "ym2612"
    },
    {
      "channel": 1,
      "note": 80,
      "start": 37.0969,
      "duration": 0.0161,
      "velocity": 100,
      "chip": "ym2612"
    },
    {
      "channel": 0,
      "note": 75,
      "start": 37.1071,
      "duration": 0.0161,
      "velocity": 124,
      "chip": "ym2612"
    },
    {
      "channel": 3,
      "note": 76,
      "start": 37.1107,
      "duration": 0.0161,
      "velocity": 100,
      "chip": "ym2612"
    },
    {
      "channel": 2,
      "note": 64,
      "start": 37.1118,
      "duration": 0.0161,
      "velocity": 100,
      "chip": "ym2612"
    },
    {
      "channel": 1,
      "note": 80,
      "start": 37.113,
      "duration": 0.0161,
      "velocity": 100,
      "chip": "ym2612"
    },
    {
      "channel": 0,
      "note": 72,
      "start": 37.1232,
      "duration": 0.0161,
      "velocity": 124,
      "chip": "ym2612"
    },
    {
      "channel": 3,
      "note": 76,
      "start": 37.1268,
      "duration": 0.0161,
      "velocity": 100,
      "chip": "ym2612"
    },
    {
      "channel": 2,
      "note": 64,
      "start": 37.1279,
      "duration": 0.0161,
      "velocity": 100,
      "chip": "ym2612"
    },
    {
      "channel": 1,
      "note": 80,
      "start": 37.1291,
      "duration": 0.0161,
      "velocity": 100,
      "chip": "ym2612"
    },
    {
      "channel": 0,
      "note": 70,
      "start": 37.1393,
      "duration": 0.0161,
      "velocity": 124,
      "chip": "ym2612"
    },
    {
      "channel": 3,
      "note": 76,
      "start": 37.1429,
      "duration": 0.0163,
      "velocity": 100,
      "chip": "ym2612"
    },
    {
      "channel": 2,
      "note": 64,
      "start": 37.144,
      "duration": 0.0164,
      "velocity": 100,
      "chip": "ym2612"
    },
    {
      "channel": 1,
      "note": 80,
      "start": 37.1452,
      "duration": 0.0163,
      "velocity": 100,
      "chip": "ym2612"
    },
    {
      "channel": 0,
      "note": 68,
      "start": 37.1554,
      "duration": 0.0161,
      "velocity": 124,
      "chip": "ym2612"
    },
    {
      "channel": 2,
      "note": 64,
      "start": 37.1604,
      "duration": 0.0159,
      "velocity": 100,
      "chip": "ym2612"
    },
    {
      "channel": 0,
      "note": 65,
      "start": 37.1715,
      "duration": 0.0161,
      "velocity": 124,
      "chip": "ym2612"
    },
    {
      "channel": 2,
      "note": 64,
      "start": 37.1763,
      "duration": 0.0161,
      "velocity": 100,
      "chip": "ym2612"
    },
    {
      "channel": 0,
      "note": 63,
      "start": 37.1876,
      "duration": 0.0154,
      "velocity": 1,
      "chip": "ym2612"
    },
    {
      "channel": 2,
      "note": 64,
      "start": 37.1924,
      "duration": 0.0153,
      "velocity": 100,
      "chip": "ym2612"
    },
    {
      "channel": 2,
      "note": 64,
      "start": 37.2077,
      "duration": 0.0154,
      "velocity": 100,
      "chip": "ym2612"
    },
    {
      "channel": 2,
      "note": 64,
      "start": 37.2231,
      "duration": 0.0163,
      "velocity": 100,
      "chip": "ym2612"
    },
    {
      "channel": 2,
      "note": 64,
      "start": 37.2395,
      "duration": 0.0203,
      "velocity": 100,
      "chip": "ym2612"
    },
    {
      "channel": 0,
      "note": 36,
      "start": 37.2544,
      "duration": 0.0142,
      "velocity": 115,
      "chip": "ym2612"
    },
    {
      "channel": 3,
      "note": 76,
      "start": 37.2583,
      "duration": 0.0141,
      "velocity": 100,
      "chip": "ym2612"
    },
    {
      "channel": 2,
      "note": 52,
      "start": 37.2598,
      "duration": 0.0138,
      "velocity": 100,
      "chip": "ym2612"
    },
    {
      "channel": 1,
      "note": 80,
      "start": 37.2613,
      "duration": 0.0136,
      "velocity": 100,
      "chip": "ym2612"
    },
    {
      "channel": 0,
      "note": 36,
      "start": 37.2687,
      "duration": 0.016,
      "velocity": 115,
      "chip": "ym2612"
    },
    {
      "channel": 3,
      "note": 76,
      "start": 37.2724,
      "duration": 0.016,
      "velocity": 100,
      "chip": "ym2612"
    },
    {
      "channel": 2,
      "note": 52,
      "start": 37.2737,
      "duration": 0.0159,
      "velocity": 100,
      "chip": "ym2612"
    },
    {
      "channel": 1,
      "note": 80,
      "start": 37.2749,
      "duration": 0.0159,
      "velocity": 100,
      "chip": "ym2612"
    },
    {
      "channel": 0,
      "note": 37,
      "start": 37.2847,
      "duration": 0.0156,
      "velocity": 115,
      "chip": "ym2612"
    },
    {
      "channel": 3,
      "note": 76,
      "start": 37.2884,
      "duration": 0.0161,
      "velocity": 100,
      "chip": "ym2612"
    },
    {
      "channel": 2,
      "note": 52,
      "start": 37.2895,
      "duration": 0.0161,
      "velocity": 100,
      "chip": "ym2612"
    },
    {
      "channel": 1,
      "note": 80,
      "start": 37.2908,
      "duration": 0.016,
      "velocity": 100,
      "chip": "ym2612"
    },
    {
      "channel": 0,
      "note": 37,
      "start": 37.3003,
      "duration": 0.0161,
      "velocity": 115,
      "chip": "ym2612"
    },
    {
      "channel": 3,
      "note": 76,
      "start": 37.3045,
      "duration": 0.0161,
      "velocity": 100,
      "chip": "ym2612"
    },
    {
      "channel": 2,
      "note": 52,
      "start": 37.3056,
      "duration": 0.0161,
      "velocity": 100,
      "chip": "ym2612"
    },
    {
      "channel": 1,
      "note": 80,
      "start": 37.3068,
      "duration": 0.0161,
      "velocity": 100,
      "chip": "ym2612"
    },
    {
      "channel": 0,
      "note": 38,
      "start": 37.3164,
      "duration": 0.0161,
      "velocity": 115,
      "chip": "ym2612"
    },
    {
      "channel": 3,
      "note": 76,
      "start": 37.3206,
      "duration": 0.0162,
      "velocity": 100,
      "chip": "ym2612"
    },
    {
      "channel": 2,
      "note": 52,
      "start": 37.3217,
      "duration": 0.0161,
      "velocity": 100,
      "chip": "ym2612"
    },
    {
      "channel": 1,
      "note": 80,
      "start": 37.3229,
      "duration": 0.0161,
      "velocity": 100,
      "chip": "ym2612"
    },
    {
      "channel": 0,
      "note": 38,
      "start": 37.3325,
      "duration": 0.0161,
      "velocity": 115,
      "chip": "ym2612"
    },
    {
      "channel": 3,
      "note": 76,
      "start": 37.3368,
      "duration": 0.016,
      "velocity": 100,
      "chip": "ym2612"
    },
    {
      "channel": 2,
      "note": 52,
      "start": 37.3379,
      "duration": 0.016,
      "velocity": 100,
      "chip": "ym2612"
    },
    {
      "channel": 1,
      "note": 80,
      "start": 37.339,
      "duration": 0.0161,
      "velocity": 100,
      "chip": "ym2612"
    },
    {
      "channel": 0,
      "note": 39,
      "start": 37.3486,
      "duration": 0.0161,
      "velocity": 115,
      "chip": "ym2612"
    },
    {
      "channel": 3,
      "note": 76,
      "start": 37.3528,
      "duration": 0.0169,
      "velocity": 100,
      "chip": "ym2612"
    },
    {
      "channel": 2,
      "note": 52,
      "start": 37.3539,
      "duration": 0.017,
      "velocity": 100,
      "chip": "ym2612"
    },
    {
      "channel": 1,
      "note": 80,
      "start": 37.3551,
      "duration": 0.0169,
      "velocity": 100,
      "chip": "ym2612"
    },
    {
      "channel": 0,
      "note": 39,
      "start": 37.3647,
      "duration": 0.0162,
      "velocity": 115,
      "chip": "ym2612"
    },
    {
      "channel": 5,
      "note": 76,
      "start": 37.3663,
      "duration": 0.0157,
      "velocity": 100,
      "chip": "ym2612"
    },
    {
      "channel": 4,
      "note": 80,
      "start": 37.3685,
      "duration": 0.0148,
      "velocity": 100,
      "chip": "ym2612"
    },
    {
      "channel": 2,
      "note": 52,
      "start": 37.3709,
      "duration": 0.0153,
      "velocity": 100,
      "chip": "ym2612"
    },
    {
      "channel": 0,
      "note": 40,
      "start": 37.3808,
      "duration": 0.0161,
      "velocity": 115,
      "chip": "ym2612"
    },
    {
      "channel": 5,
      "note": 76,
      "start": 37.382,
      "duration": 0.016,
      "velocity": 100,
      "chip": "ym2612"
    },
    {
      "channel": 4,
      "note": 80,
      "start": 37.3833,
      "duration": 0.016,
      "velocity": 100,
      "chip": "ym2612"
    },
    {
      "channel": 2,
      "note": 52,
      "start": 37.3862,
      "duration": 0.0159,
      "velocity": 100,
      "chip": "ym2612"
    },
    {
      "channel": 0,
      "note": 40,
      "start": 37.3969,
      "duration": 0.0161,
      "velocity": 115,
      "chip": "ym2612"
    },
    {
      "channel": 5,
      "note": 76,
      "start": 37.3981,
      "duration": 0.0161,
      "velocity": 100,
      "chip": "ym2612"
    },
    {
      "channel": 4,
      "note": 80,
      "start": 37.3993,
      "duration": 0.0161,
      "velocity": 100,
      "chip": "ym2612"
    },
    {
      "channel": 2,
      "note": 52,
      "start": 37.4022,
      "duration": 0.0161,
      "velocity": 100,
      "chip": "ym2612"
    },
    {
      "channel": 0,
      "note": 40,
      "start": 37.413,
      "duration": 0.0161,
      "velocity": 115,
      "chip": "ym2612"
    },
    {
      "channel": 5,
      "note": 76,
      "start": 37.4142,
      "duration": 0.0161,
      "velocity": 100,
      "chip": "ym2612"
    },
    {
      "channel": 4,
      "note": 80,
      "start": 37.4154,
      "duration": 0.0161,
      "velocity": 100,
      "chip": "ym2612"
    },
    {
      "channel": 2,
      "note": 52,
      "start": 37.4182,
      "duration": 0.0158,
      "velocity": 100,
      "chip": "ym2612"
    },
    {
      "channel": 0,
      "note": 41,
      "start": 37.4291,
      "duration": 0.0161,
      "velocity": 115,
      "chip": "ym2612"
    },
    {
      "channel": 5,
      "note": 76,
      "start": 37.4303,
      "duration": 0.0161,
      "velocity": 100,
      "chip": "ym2612"
    },
    {
      "channel": 4,
      "note": 80,
      "start": 37.4315,
      "duration": 0.0161,
      "velocity": 100,
      "chip": "ym2612"
    },
    {
      "channel": 2,
      "note": 52,
      "start": 37.434,
      "duration": 0.0159,
      "velocity": 100,
      "chip": "ym2612"
    },
    {
      "channel": 0,
      "note": 41,
      "start": 37.4452,
      "duration": 0.0161,
      "velocity": 115,
      "chip": "ym2612"
    },
    {
      "channel": 5,
      "note": 76,
      "start": 37.4464,
      "duration": 0.0161,
      "velocity": 100,
      "chip": "ym2612"
    },
    {
      "channel": 4,
      "note": 80,
      "start": 37.4476,
      "duration": 0.0161,
      "velocity": 100,
      "chip": "ym2612"
    },
    {
      "channel": 2,
      "note": 52,
      "start": 37.4499,
      "duration": 0.0167,
      "velocity": 100,
      "chip": "ym2612"
    },
    {
      "channel": 0,
      "note": 42,
      "start": 37.4613,
      "duration": 0.0161,
      "velocity": 115,
      "chip": "ym2612"
    },
    {
      "channel": 5,
      "note": 76,
      "start": 37.4625,
      "duration": 0.0161,
      "velocity": 100,
      "chip": "ym2612"
    },
    {
      "channel": 4,
      "note": 80,
      "start": 37.4637,
      "duration": 0.0161,
      "velocity": 100,
      "chip": "ym2612"
    },
    {
      "channel": 3,
      "note": 71,
      "start": 37.4652,
      "duration": 0.0158,
      "velocity": 100,
      "chip": "ym2612"
    },
    {
      "channel": 2,
      "note": 64,
      "start": 37.4667,
      "duration": 0.0155,
      "velocity": 100,
      "chip": "ym2612"
    },
    {
      "channel": 1,
      "note": 76,
      "start": 37.4688,
      "duration": 0.0147,
      "velocity": 100,
      "chip": "ym2612"
    },
    {
      "channel": 0,
      "note": 42,
      "start": 37.4774,
      "duration": 0.0161,
      "velocity": 115,
      "chip": "ym2612"
    },
    {
      "channel": 3,
      "note": 71,
      "start": 37.481,
      "duration": 0.016,
      "velocity": 100,
      "chip": "ym2612"
    },
    {
      "channel": 2,
      "note": 64,
      "start": 37.4822,
      "duration": 0.016,
      "velocity": 100,
      "chip": "ym2612"
    },
    {
      "channel": 1,
      "note": 76,
      "start": 37.4835,
      "duration": 0.0159,
      "velocity": 100,
      "chip": "ym2612"
    },
    {
      "channel": 0,
      "note": 43,
      "start": 37.4935,
      "duration": 0.0161,
      "velocity": 115,
      "chip": "ym2612"
    },
    {
      "channel": 3,
      "note": 71,
      "start": 37.4971,
      "duration": 0.0161,
      "velocity": 100,
      "chip": "ym2612"
    },
    {
      "channel": 2,
      "note": 64,
      "start": 37.4982,
      "duration": 0.0161,
      "velocity": 100,
      "chip": "ym2612"
    },
    {
      "channel": 1,
      "note": 76,
      "start": 37.4994,
      "duration": 0.0161,
      "velocity": 100,
      "chip": "ym2612"
    },
    {
      "channel": 0,
      "note": 43,
      "start": 37.5096,
      "duration": 0.0161,
      "velocity": 115,
      "chip": "ym2612"
    },
    {
      "channel": 3,
      "note": 71,
      "start": 37.5132,
      "duration": 0.0161,
      "velocity": 100,
      "chip": "ym2612"
    },
    {
      "channel": 2,
      "note": 64,
      "start": 37.5143,
      "duration": 0.0161,
      "velocity": 100,
      "chip": "ym2612"
    },
    {
      "channel": 1,
      "note": 76,
      "start": 37.5155,
      "duration": 0.0161,
      "velocity": 100,
      "chip": "ym2612"
    },
    {
      "channel": 0,
      "note": 44,
      "start": 37.5257,
      "duration": 0.0161,
      "velocity": 115,
      "chip": "ym2612"
    },
    {
      "channel": 3,
      "note": 71,
      "start": 37.5293,
      "duration": 0.0161,
      "velocity": 100,
      "chip": "ym2612"
    },
    {
      "channel": 2,
      "note": 64,
      "start": 37.5304,
      "duration": 0.0161,
      "velocity": 100,
      "chip": "ym2612"
    },
    {
      "channel": 1,
      "note": 76,
      "start": 37.5316,
      "duration": 0.0161,
      "velocity": 100,
      "chip": "ym2612"
    },
    {
      "channel": 0,
      "note": 44,
      "start": 37.5418,
      "duration": 0.0179,
      "velocity": 115,
      "chip": "ym2612"
    },
    {
      "channel": 3,
      "note": 71,
      "start": 37.5454,
      "duration": 0.0179,
      "velocity": 100,
      "chip": "ym2612"
    },
    {
      "channel": 2,
      "note": 64,
      "start": 37.5465,
      "duration": 0.0179,
      "velocity": 100,
      "chip": "ym2612"
    },
    {
      "channel": 1,
      "note": 76,
      "start": 37.5477,
      "duration": 0.0179,
      "velocity": 100,
      "chip": "ym2612"
    },
    {
      "channel": 0,
      "note": 36,
      "start": 37.5598,
      "duration": 0.0143,
      "velocity": 115,
      "chip": "ym2612"
    },
    {
      "channel": 3,
      "note": 71,
      "start": 37.5633,
      "duration": 0.0149,
      "velocity": 100,
      "chip": "ym2612"
    },
    {
      "channel": 2,
      "note": 64,
      "start": 37.5644,
      "duration": 0.0151,
      "velocity": 100,
      "chip": "ym2612"
    },
    {
      "channel": 1,
      "note": 76,
      "start": 37.5656,
      "duration": 0.015,
      "velocity": 100,
      "chip": "ym2612"
    },
    {
      "channel": 0,
      "note": 36,
      "start": 37.5741,
      "duration": 0.016,
      "velocity": 115,
      "chip": "ym2612"
    },
    {
      "channel": 5,
      "note": 76,
      "start": 37.5756,
      "duration": 0.0159,
      "velocity": 100,
      "chip": "ym2612"
    },
    {
      "channel": 4,
      "note": 80,
      "start": 37.577,
      "duration": 0.0156,
      "velocity": 100,
      "chip": "ym2612"
    },
    {
      "channel": 2,
      "note": 64,
      "start": 37.5795,
      "duration": 0.0155,
      "velocity": 100,
      "chip": "ym2612"
    },
    {
      "channel": 0,
      "note": 37,
      "start": 37.5901,
      "duration": 0.0161,
      "velocity": 115,
      "chip": "ym2612"
    },
    {
      "channel": 5,
      "note": 76,
      "start": 37.5914,
      "duration": 0.016,
      "velocity": 100,
      "chip": "ym2612"
    },
    {
      "channel": 4,
      "note": 80,
      "start": 37.5927,
      "duration": 0.0159,
      "velocity": 100,
      "chip": "ym2612"
    },
    {
      "channel": 2,
      "note": 64,
      "start": 37.595,
      "duration": 0.016,
      "velocity": 100,
      "chip": "ym2612"
    },
    {
      "channel": 0,
      "note": 37,
      "start": 37.6062,
      "duration": 0.0161,
      "velocity": 115,
      "chip": "ym2612"
    },
    {
      "channel": 5,
      "note": 76,
      "start": 37.6074,
      "duration": 0.0161,
      "velocity": 100,
      "chip": "ym2612"
    },
    {
      "channel": 4,
      "note": 80,
      "start": 37.6086,
      "duration": 0.0162,
      "velocity": 100,
      "chip": "ym2612"
    },
    {
      "channel": 2,
      "note": 64,
      "start": 37.611,
      "duration": 0.016,
      "velocity": 100,
      "chip": "ym2612"
    },
    {
      "channel": 0,
      "note": 38,
      "start": 37.6223,
      "duration": 0.0161,
      "velocity": 115,
      "chip": "ym2612"
    },
    {
      "channel": 5,
      "note": 76,
      "start": 37.6235,
      "duration": 0.0161,
      "velocity": 100,
      "chip": "ym2612"
    },
    {
      "channel": 4,
      "note": 80,
      "start": 37.6247,
      "duration": 0.0161,
      "velocity": 100,
      "chip": "ym2612"
    },
    {
      "channel": 2,
      "note": 64,
      "start": 37.627,
      "duration": 0.0161,
      "velocity": 100,
      "chip": "ym2612"
    },
    {
      "channel": 0,
      "note": 38,
      "start": 37.6384,
      "duration": 0.0161,
      "velocity": 115,
      "chip": "ym2612"
    },
    {
      "channel": 5,
      "note": 76,
      "start": 37.6396,
      "duration": 0.0161,
      "velocity": 100,
      "chip": "ym2612"
    },
    {
      "channel": 4,
      "note": 80,
      "start": 37.6408,
      "duration": 0.0161,
      "velocity": 100,
      "chip": "ym2612"
    },
    {
      "channel": 2,
      "note": 64,
      "start": 37.6431,
      "duration": 0.0161,
      "velocity": 100,
      "chip": "ym2612"
    },
    {
      "channel": 0,
      "note": 39,
      "start": 37.6545,
      "duration": 0.0161,
      "velocity": 115,
      "chip": "ym2612"
    },
    {
      "channel": 5,
      "note": 76,
      "start": 37.6557,
      "duration": 0.0161,
      "velocity": 100,
      "chip": "ym2612"
    },
    {
      "channel": 4,
      "note": 80,
      "start": 37.6569,
      "duration": 0.0162,
      "velocity": 100,
      "chip": "ym2612"
    },
    {
      "channel": 2,
      "note": 64,
      "start": 37.6592,
      "duration": 0.0168,
      "velocity": 100,
      "chip": "ym2612"
    },
    {
      "channel": 0,
      "note": 39,
      "start": 37.6707,
      "duration": 0.0162,
      "velocity": 115,
      "chip": "ym2612"
    },
    {
      "channel": 5,
      "note": 76,
      "start": 37.6719,
      "duration": 0.0162,
      "velocity": 100,
      "chip": "ym2612"
    },
    {
      "channel": 4,
      "note": 80,
      "start": 37.6731,
      "duration": 0.0161,
      "velocity": 100,
      "chip": "ym2612"
    },
    {
      "channel": 3,
      "note": 76,
      "start": 37.6745,
      "duration": 0.0159,
      "velocity": 100,
      "chip": "ym2612"
    },
    {
      "channel": 2,
      "note": 52,
      "start": 37.6761,
      "duration": 0.0156,
      "velocity": 100,
      "chip": "ym2612"
    },
    {
      "channel": 1,
      "note": 80,
      "start": 37.6776,
      "duration": 0.0153,
      "velocity": 100,
      "chip": "ym2612"
    },
    {
      "channel": 0,
      "note": 40,
      "start": 37.6868,
      "duration": 0.0164,
      "velocity": 115,
      "chip": "ym2612"
    },
    {
      "channel": 3,
      "note": 76,
      "start": 37.6905,
      "duration": 0.0163,
      "velocity": 100,
      "chip": "ym2612"
    },
    {
      "channel": 2,
      "note": 52,
      "start": 37.6917,
      "duration": 0.0162,
      "velocity": 100,
      "chip": "ym2612"
    },
    {
      "channel": 1,
      "note": 80,
      "start": 37.6929,
      "duration": 0.0161,
      "velocity": 100,
      "chip": "ym2612"
    },
    {
      "channel": 0,
      "note": 40,
      "start": 37.7032,
      "duration": 0.0163,
      "velocity": 115,
      "chip": "ym2612"
    },
    {
      "channel": 3,
      "note": 76,
      "start": 37.7067,
      "duration": 0.0163,
      "velocity": 100,
      "chip": "ym2612"
    },
    {
      "channel": 2,
      "note": 52,
      "start": 37.7079,
      "duration": 0.0163,
      "velocity": 100,
      "chip": "ym2612"
    },
    {
      "channel": 1,
      "note": 80,
      "start": 37.7091,
      "duration": 0.0163,
      "velocity": 100,
      "chip": "ym2612"
    },
    {
      "channel": 0,
      "note": 40,
      "start": 37.7195,
      "duration": 0.0161,
      "velocity": 115,
      "chip": "ym2612"
    },
    {
      "channel": 3,
      "note": 76,
      "start": 37.7231,
      "duration": 0.0161,
      "velocity": 100,
      "chip": "ym2612"
    },
    {
      "channel": 2,
      "note": 52,
      "start": 37.7242,
      "duration": 0.0161,
      "velocity": 100,
      "chip": "ym2612"
    },
    {
      "channel": 1,
      "note": 80,
      "start": 37.7254,
      "duration": 0.0161,
      "velocity": 100,
      "chip": "ym2612"
    },
    {
      "channel": 0,
      "note": 41,
      "start": 37.7356,
      "duration": 0.0161,
      "velocity": 115,
      "chip": "ym2612"
    },
    {
      "channel": 3,
      "note": 76,
      "start": 37.7392,
      "duration": 0.0161,
      "velocity": 100,
      "chip": "ym2612"
    },
    {
      "channel": 2,
      "note": 52,
      "start": 37.7403,
      "duration": 0.0161,
      "velocity": 100,
      "chip": "ym2612"
    },
    {
      "channel": 1,
      "note": 80,
      "start": 37.7415,
      "duration": 0.0161,
      "velocity": 100,
      "chip": "ym2612"
    },
    {
      "channel": 0,
      "note": 41,
      "start": 37.7517,
      "duration": 0.0179,
      "velocity": 124,
      "chip": "ym2612"
    },
    {
      "channel": 3,
      "note": 76,
      "start": 37.7553,
      "duration": 0.018,
      "velocity": 100,
      "chip": "ym2612"
    },
    {
      "channel": 2,
      "note": 52,
      "start": 37.7564,
      "duration": 0.0183,
      "velocity": 100,
      "chip": "ym2612"
    },
    {
      "channel": 1,
      "note": 80,
      "start": 37.7576,
      "duration": 0.0183,
      "velocity": 100,
      "chip": "ym2612"
    },
    {
      "channel": 0,
      "note": 84,
      "start": 37.7697,
      "duration": 0.0137,
      "velocity": 124,
      "chip": "ym2612"
    },
    {
      "channel": 3,
      "note": 76,
      "start": 37.7733,
      "duration": 0.0149,
      "velocity": 100,
      "chip": "ym2612"
    },
    {
      "channel": 2,
      "note": 64,
      "start": 37.7747,
      "duration": 0.0147,
      "velocity": 100,
      "chip": "ym2612"
    },
    {
      "channel": 1,
      "note": 80,
      "start": 37.7759,
      "duration": 0.0147,
      "velocity": 100,
      "chip": "ym2612"
    },
    {
      "channel": 0,
      "note": 82,
      "start": 37.7834,
      "duration": 0.016,
      "velocity": 124,
      "chip": "ym2612"
    },
    {
      "channel": 5,
      "note": 71,
      "start": 37.7856,
      "duration": 0.0153,
      "velocity": 100,
      "chip": "ym2612"
    },
    {
      "channel": 4,
      "note": 76,
      "start": 37.787,
      "duration": 0.0155,
      "velocity": 100,
      "chip": "ym2612"
    },
    {
      "channel": 2,
      "note": 64,
      "start": 37.7894,
      "duration": 0.0154,
      "velocity": 100,
      "chip": "ym2612"
    },
    {
      "channel": 0,
      "note": 80,
      "start": 37.7994,
      "duration": 0.0162,
      "velocity": 124,
      "chip": "ym2612"
    },
    {
      "channel": 5,
      "note": 71,
      "start": 37.8009,
      "duration": 0.0158,
      "velocity": 100,
      "chip": "ym2612"
    },
    {
      "channel": 4,
      "note": 76,
      "start": 37.8025,
      "duration": 0.0159,
      "velocity": 100,
      "chip": "ym2612"
    },
    {
      "channel": 2,
      "note": 64,
      "start": 37.8049,
      "duration": 0.016,
      "velocity": 100,
      "chip": "ym2612"
    },
    {
      "channel": 0,
      "note": 77,
      "start": 37.8156,
      "duration": 0.0161,
      "velocity": 124,
      "chip": "ym2612"
    },
    {
      "channel": 5,
      "note": 71,
      "start": 37.8167,
      "duration": 0.0161,
      "velocity": 100,
      "chip": "ym2612"
    },
    {
      "channel": 4,
      "note": 76,
      "start": 37.8184,
      "duration": 0.0158,
      "velocity": 100,
      "chip": "ym2612"
    },
    {
      "channel": 2,
      "note": 64,
      "start": 37.8208,
      "duration": 0.0161,
      "velocity": 100,
      "chip": "ym2612"
    },
    {
      "channel": 0,
      "note": 75,
      "start": 37.8317,
      "duration": 0.0161,
      "velocity": 124,
      "chip": "ym2612"
    },
    {
      "channel": 5,
      "note": 71,
      "start": 37.8328,
      "duration": 0.0161,
      "velocity": 100,
      "chip": "ym2612"
    },
    {
      "channel": 4,
      "note": 76,
      "start": 37.8342,
      "duration": 0.0159,
      "velocity": 100,
      "chip": "ym2612"
    },
    {
      "channel": 2,
      "note": 64,
      "start": 37.8369,
      "duration": 0.0161,
      "velocity": 100,
      "chip": "ym2612"
    },
    {
      "channel": 0,
      "note": 72,
      "start": 37.8478,
      "duration": 0.0161,
      "velocity": 124,
      "chip": "ym2612"
    },
    {
      "channel": 5,
      "note": 71,
      "start": 37.849,
      "duration": 0.0161,
      "velocity": 100,
      "chip": "ym2612"
    },
    {
      "channel": 4,
      "note": 76,
      "start": 37.8501,
      "duration": 0.0161,
      "velocity": 100,
      "chip": "ym2612"
    },
    {
      "channel": 2,
      "note": 64,
      "start": 37.853,
      "duration": 0.0161,
      "velocity": 100,
      "chip": "ym2612"
    },
    {
      "channel": 0,
      "note": 70,
      "start": 37.8639,
      "duration": 0.0179,
      "velocity": 115,
      "chip": "ym2612"
    },
    {
      "channel": 5,
      "note": 71,
      "start": 37.8651,
      "duration": 0.0179,
      "velocity": 100,
      "chip": "ym2612"
    },
    {
      "channel": 4,
      "note": 76,
      "start": 37.8662,
      "duration": 0.0185,
      "velocity": 100,
      "chip": "ym2612"
    },
    {
      "channel": 2,
      "note": 64,
      "start": 37.8691,
      "duration": 0.0184,
      "velocity": 100,
      "chip": "ym2612"
    },
    {
      "channel": 0,
      "note": 36,
      "start": 37.8818,
      "duration": 0.0143,
      "velocity": 115,
      "chip": "ym2612"
    },
    {
      "channel": 5,
      "note": 71,
      "start": 37.883,
      "duration": 0.0143,
      "velocity": 100,
      "chip": "ym2612"
    },
    {
      "channel": 4,
      "note": 76,
      "start": 37.8847,
      "duration": 0.0138,
      "velocity": 100,
      "chip": "ym2612"
    },
    {
      "channel": 3,
      "note": 71,
      "start": 37.8863,
      "duration": 0.0134,
      "velocity": 100,
      "chip": "ym2612"
    },
    {
      "channel": 2,
      "note": 64,
      "start": 37.8875,
      "duration": 0.014,
      "velocity": 100,
      "chip": "ym2612"
    },
    {
      "channel": 1,
      "note": 76,
      "start": 37.889,
      "duration": 0.0137,
      "velocity": 100,
      "chip": "ym2612"
    },
    {
      "channel": 0,
      "note": 36,
      "start": 37.8961,
      "duration": 0.016,
      "velocity": 115,
      "chip": "ym2612"
    },
    {
      "channel": 3,
      "note": 71,
      "start": 37.8997,
      "duration": 0.016,
      "velocity": 100,
      "chip": "ym2612"
    },
    {
      "channel": 2,
      "note": 64,
      "start": 37.9015,
      "duration": 0.0154,
      "velocity": 100,
      "chip": "ym2612"
    },
    {
      "channel": 1,
      "note": 76,
      "start": 37.9028,
      "duration": 0.0159,
      "velocity": 100,
      "chip": "ym2612"
    },
    {
      "channel": 0,
      "note": 37,
      "start": 37.9121,
      "duration": 0.0161,
      "velocity": 115,
      "chip": "ym2612"
    },
    {
      "channel": 3,
      "note": 71,
      "start": 37.9157,
      "duration": 0.0161,
      "velocity": 100,
      "chip": "ym2612"
    },
    {
      "channel": 2,
      "note": 64,
      "start": 37.9169,
      "duration": 0.016,
      "velocity": 100,
      "chip": "ym2612"
    },
    {
      "channel": 1,
      "note": 76,
      "start": 37.9187,
      "duration": 0.016,
      "velocity": 100,
      "chip": "ym2612"
    },
    {
      "channel": 0,
      "note": 37,
      "start": 37.9282,
      "duration": 0.0161,
      "velocity": 115,
      "chip": "ym2612"
    },
    {
      "channel": 2,
      "note": 64,
      "start": 37.9329,
      "duration": 0.0161,
      "velocity": 100,
      "chip": "ym2612"
    },
    {
      "channel": 0,
      "note": 38,
      "start": 37.9443,
      "duration": 0.0161,
      "velocity": 115,
      "chip": "ym2612"
    },
    {
      "channel": 2,
      "note": 64,
      "start": 37.949,
      "duration": 0.0161,
      "velocity": 100,
      "chip": "ym2612"
    },
    {
      "channel": 0,
      "note": 38,
      "start": 37.9604,
      "duration": 0.018,
      "velocity": 115,
      "chip": "ym2612"
    },
    {
      "channel": 2,
      "note": 64,
      "start": 37.9651,
      "duration": 0.0186,
      "velocity": 100,
      "chip": "ym2612"
    },
    {
      "channel": 0,
      "note": 36,
      "start": 37.9784,
      "duration": 0.0143,
      "velocity": 115,
      "chip": "ym2612"
    },
    {
      "channel": 3,
      "note": 76,
      "start": 37.9823,
      "duration": 0.0148,
      "velocity": 100,
      "chip": "ym2612"
    },
    {
      "channel": 2,
      "note": 52,
      "start": 37.9838,
      "duration": 0.0145,
      "velocity": 100,
      "chip": "ym2612"
    },
    {
      "channel": 1,
      "note": 80,
      "start": 37.9859,
      "duration": 0.0136,
      "velocity": 100,
      "chip": "ym2612"
    },
    {
      "channel": 0,
      "note": 36,
      "start": 37.9927,
      "duration": 0.016,
      "velocity": 115,
      "chip": "ym2612"
    },
    {
      "channel": 5,
      "note": 76,
      "start": 37.9943,
      "duration": 0.0157,
      "velocity": 100,
      "chip": "ym2612"
    },
    {
      "channel": 4,
      "note": 80,
      "start": 37.9958,
      "duration": 0.0155,
      "velocity": 100,
      "chip": "ym2612"
    },
    {
      "channel": 3,
      "note": 76,
      "start": 37.9971,
      "duration": 0.0154,
      "velocity": 100,
      "chip": "ym2612"
    },
    {
      "channel": 2,
      "note": 52,
      "start": 37.9983,
      "duration": 0.0153,
      "velocity": 100,
      "chip": "ym2612"
    },
    {
      "channel": 1,
      "note": 80,
      "start": 37.9995,
      "duration": 0.0153,
      "velocity": 100,
      "chip": "ym2612"
    },
    {
      "channel": 0,
      "note": 37,
      "start": 38.0088,
      "duration": 0.0161,
      "velocity": 115,
      "chip": "ym2612"
    },
    {
      "channel": 5,
      "note": 76,
      "start": 38.01,
      "duration": 0.016,
      "velocity": 100,
      "chip": "ym2612"
    },
    {
      "channel": 4,
      "note": 80,
      "start": 38.0112,
      "duration": 0.016,
      "velocity": 100,
      "chip": "ym2612"
    },
    {
      "channel": 3,
      "note": 76,
      "start": 38.0124,
      "duration": 0.016,
      "velocity": 100,
      "chip": "ym2612"
    },
    {
      "channel": 2,
      "note": 52,
      "start": 38.0136,
      "duration": 0.016,
      "velocity": 100,
      "chip": "ym2612"
    },
    {
      "channel": 1,
      "note": 80,
      "start": 38.0147,
      "duration": 0.016,
      "velocity": 100,
      "chip": "ym2612"
    },
    {
      "channel": 0,
      "note": 37,
      "start": 38.0249,
      "duration": 0.0161,
      "velocity": 115,
      "chip": "ym2612"
    },
    {
      "channel": 5,
      "note": 76,
      "start": 38.026,
      "duration": 0.0161,
      "velocity": 100,
      "chip": "ym2612"
    },
    {
      "channel": 4,
      "note": 80,
      "start": 38.0272,
      "duration": 0.0161,
      "velocity": 100,
      "chip": "ym2612"
    },
    {
      "channel": 3,
      "note": 76,
      "start": 38.0284,
      "duration": 0.0161,
      "velocity": 100,
      "chip": "ym2612"
    },
    {
      "channel": 2,
      "note": 52,
      "start": 38.0296,
      "duration": 0.0161,
      "velocity": 100,
      "chip": "ym2612"
    },
    {
      "channel": 1,
      "note": 80,
      "start": 38.0307,
      "duration": 0.0162,
      "velocity": 100,
      "chip": "ym2612"
    },
    {
      "channel": 0,
      "note": 38,
      "start": 38.041,
      "duration": 0.0161,
      "velocity": 115,
      "chip": "ym2612"
    },
    {
      "channel": 5,
      "note": 76,
      "start": 38.0422,
      "duration": 0.0161,
      "velocity": 100,
      "chip": "ym2612"
    },
    {
      "channel": 4,
      "note": 80,
      "start": 38.0433,
      "duration": 0.0161,
      "velocity": 100,
      "chip": "ym2612"
    },
    {
      "channel": 3,
      "note": 76,
      "start": 38.0445,
      "duration": 0.0161,
      "velocity": 100,
      "chip": "ym2612"
    },
    {
      "channel": 2,
      "note": 52,
      "start": 38.0457,
      "duration": 0.0161,
      "velocity": 100,
      "chip": "ym2612"
    },
    {
      "channel": 1,
      "note": 80,
      "start": 38.0469,
      "duration": 0.0161,
      "velocity": 100,
      "chip": "ym2612"
    },
    {
      "channel": 0,
      "note": 38,
      "start": 38.0571,
      "duration": 0.0161,
      "velocity": 115,
      "chip": "ym2612"
    },
    {
      "channel": 5,
      "note": 76,
      "start": 38.0583,
      "duration": 0.0161,
      "velocity": 100,
      "chip": "ym2612"
    },
    {
      "channel": 4,
      "note": 80,
      "start": 38.0595,
      "duration": 0.0161,
      "velocity": 100,
      "chip": "ym2612"
    },
    {
      "channel": 3,
      "note": 76,
      "start": 38.0606,
      "duration": 0.0161,
      "velocity": 100,
      "chip": "ym2612"
    },
    {
      "channel": 2,
      "note": 52,
      "start": 38.0618,
      "duration": 0.0161,
      "velocity": 100,
      "chip": "ym2612"
    },
    {
      "channel": 1,
      "note": 80,
      "start": 38.063,
      "duration": 0.0161,
      "velocity": 100,
      "chip": "ym2612"
    },
    {
      "channel": 0,
      "note": 39,
      "start": 38.0731,
      "duration": 0.018,
      "velocity": 115,
      "chip": "ym2612"
    },
    {
      "channel": 5,
      "note": 76,
      "start": 38.0744,
      "duration": 0.0179,
      "velocity": 100,
      "chip": "ym2612"
    },
    {
      "channel": 4,
      "note": 80,
      "start": 38.0756,
      "duration": 0.0179,
      "velocity": 100,
      "chip": "ym2612"
    },
    {
      "channel": 3,
      "note": 76,
      "start": 38.0767,
      "duration": 0.018,
      "velocity": 100,
      "chip": "ym2612"
    },
    {
      "channel": 2,
      "note": 52,
      "start": 38.0779,
      "duration": 0.0183,
      "velocity": 100,
      "chip": "ym2612"
    },
    {
      "channel": 1,
      "note": 80,
      "start": 38.0791,
      "duration": 0.0183,
      "velocity": 100,
      "chip": "ym2612"
    },
    {
      "channel": 0,
      "note": 36,
      "start": 38.0911,
      "duration": 0.0143,
      "velocity": 115,
      "chip": "ym2612"
    },
    {
      "channel": 5,
      "note": 76,
      "start": 38.0923,
      "duration": 0.0143,
      "velocity": 100,
      "chip": "ym2612"
    },
    {
      "channel": 4,
      "note": 80,
      "start": 38.0935,
      "duration": 0.0143,
      "velocity": 100,
      "chip": "ym2612"
    },
    {
      "channel": 2,
      "note": 52,
      "start": 38.0962,
      "duration": 0.0141,
      "velocity": 100,
      "chip": "ym2612"
    },
    {
      "channel": 0,
      "note": 36,
      "start": 38.1054,
      "duration": 0.0161,
      "velocity": 115,
      "chip": "ym2612"
    },
    {
      "channel": 2,
      "note": 52,
      "start": 38.1102,
      "duration": 0.0159,
      "velocity": 100,
      "chip": "ym2612"
    },
    {
      "channel": 0,
      "note": 37,
      "start": 38.1215,
      "duration": 0.0161,
      "velocity": 115,
      "chip": "ym2612"
    },
    {
      "channel": 2,
      "note": 52,
      "start": 38.1261,
      "duration": 0.0161,
      "velocity": 100,
      "chip": "ym2612"
    },
    {
      "channel": 0,
      "note": 37,
      "start": 38.1376,
      "duration": 0.0162,
      "velocity": 115,
      "chip": "ym2612"
    },
    {
      "channel": 2,
      "note": 52,
      "start": 38.1422,
      "duration": 0.0162,
      "velocity": 100,
      "chip": "ym2612"
    },
    {
      "channel": 0,
      "note": 38,
      "start": 38.1537,
      "duration": 0.0163,
      "velocity": 115,
      "chip": "ym2612"
    },
    {
      "channel": 2,
      "note": 52,
      "start": 38.1584,
      "duration": 0.0163,
      "velocity": 100,
      "chip": "ym2612"
    },
    {
      "channel": 0,
      "note": 38,
      "start": 38.1701,
      "duration": 0.0163,
      "velocity": 115,
      "chip": "ym2612"
    },
    {
      "channel": 2,
      "note": 52,
      "start": 38.1747,
      "duration": 0.0167,
      "velocity": 100,
      "chip": "ym2612"
    },
    {
      "channel": 0,
      "note": 39,
      "start": 38.1864,
      "duration": 0.0162,
      "velocity": 115,
      "chip": "ym2612"
    },
    {
      "channel": 3,
      "note": 71,
      "start": 38.1902,
      "duration": 0.0166,
      "velocity": 100,
      "chip": "ym2612"
    },
    {
      "channel": 2,
      "note": 52,
      "start": 38.1915,
      "duration": 0.0166,
      "velocity": 100,
      "chip": "ym2612"
    },
    {
      "channel": 1,
      "note": 76,
      "start": 38.193,
      "duration": 0.0163,
      "velocity": 100,
      "chip": "ym2612"
    },
    {
      "channel": 0,
      "note": 39,
      "start": 38.2026,
      "duration": 0.016,
      "velocity": 115,
      "chip": "ym2612"
    },
    {
      "channel": 5,
      "note": 71,
      "start": 38.2041,
      "duration": 0.0158,
      "velocity": 100,
      "chip": "ym2612"
    },
    {
      "channel": 4,
      "note": 76,
      "start": 38.2056,
      "duration": 0.0156,
      "velocity": 100,
      "chip": "ym2612"
    },
    {
      "channel": 3,
      "note": 71,
      "start": 38.2068,
      "duration": 0.0155,
      "velocity": 100,
      "chip": "ym2612"
    },
    {
      "channel": 2,
      "note": 52,
      "start": 38.208,
      "duration": 0.0155,
      "velocity": 100,
      "chip": "ym2612"
    },
    {
      "channel": 1,
      "note": 76,
      "start": 38.2093,
      "duration": 0.0154,
      "velocity": 100,
      "chip": "ym2612"
    },
    {
      "channel": 0,
      "note": 40,
      "start": 38.2186,
      "duration": 0.0161,
      "velocity": 115,
      "chip": "ym2612"
    },
    {
      "channel": 5,
      "note": 71,
      "start": 38.2199,
      "duration": 0.016,
      "velocity": 100,
      "chip": "ym2612"
    },
    {
      "channel": 4,
      "note": 76,
      "start": 38.2212,
      "duration": 0.016,
      "velocity": 100,
      "chip": "ym2612"
    },
    {
      "channel": 3,
      "note": 71,
      "start": 38.2224,
      "duration": 0.016,
      "velocity": 100,
      "chip": "ym2612"
    },
    {
      "channel": 2,
      "note": 52,
      "start": 38.2235,
      "duration": 0.016,
      "velocity": 100,
      "chip": "ym2612"
    },
    {
      "channel": 1,
      "note": 76,
      "start": 38.2247,
      "duration": 0.016,
      "velocity": 100,
      "chip": "ym2612"
    },
    {
      "channel": 0,
      "note": 40,
      "start": 38.2347,
      "duration": 0.0155,
      "velocity": 115,
      "chip": "ym2612"
    },
    {
      "channel": 5,
      "note": 71,
      "start": 38.2359,
      "duration": 0.0162,
      "velocity": 100,
      "chip": "ym2612"
    },
    {
      "channel": 4,
      "note": 76,
      "start": 38.2371,
      "duration": 0.0161,
      "velocity": 100,
      "chip": "ym2612"
    },
    {
      "channel": 3,
      "note": 71,
      "start": 38.2383,
      "duration": 0.0162,
      "velocity": 100,
      "chip": "ym2612"
    },
    {
      "channel": 2,
      "note": 52,
      "start": 38.2395,
      "duration": 0.0162,
      "velocity": 100,
      "chip": "ym2612"
    },
    {
      "channel": 1,
      "note": 76,
      "start": 38.2406,
      "duration": 0.0162,
      "velocity": 100,
      "chip": "ym2612"
    },
    {
      "channel": 0,
      "note": 40,
      "start": 38.2502,
      "duration": 0.0161,
      "velocity": 115,
      "chip": "ym2612"
    },
    {
      "channel": 2,
      "note": 52,
      "start": 38.2556,
      "duration": 0.016,
      "velocity": 100,
      "chip": "ym2612"
    },
    {
      "channel": 0,
      "note": 41,
      "start": 38.2664,
      "duration": 0.0161,
      "velocity": 115,
      "chip": "ym2612"
    },
    {
      "channel": 2,
      "note": 52,
      "start": 38.2717,
      "duration": 0.0161,
      "velocity": 100,
      "chip": "ym2612"
    },
    {
      "channel": 0,
      "note": 41,
      "start": 38.2825,
      "duration": 0.0179,
      "velocity": 124,
      "chip": "ym2612"
    },
    {
      "channel": 2,
      "note": 52,
      "start": 38.2878,
      "duration": 0.0193,
      "velocity": 100,
      "chip": "ym2612"
    },
    {
      "channel": 0,
      "note": 84,
      "start": 38.3004,
      "duration": 0.0143,
      "velocity": 124,
      "chip": "ym2612"
    },
    {
      "channel": 5,
      "note": 76,
      "start": 38.3025,
      "duration": 0.0134,
      "velocity": 100,
      "chip": "ym2612"
    },
    {
      "channel": 4,
      "note": 80,
      "start": 38.3041,
      "duration": 0.0134,
      "velocity": 100,
      "chip": "ym2612"
    },
    {
      "channel": 3,
      "note": 76,
      "start": 38.3056,
      "duration": 0.0135,
      "velocity": 100,
      "chip": "ym2612"
    },
    {
      "channel": 2,
      "note": 64,
      "start": 38.3071,
      "duration": 0.0132,
      "velocity": 100,
      "chip": "ym2612"
    },
    {
      "channel": 1,
      "note": 80,
      "start": 38.3086,
      "duration": 0.013,
      "velocity": 100,
      "chip": "ym2612"
    },
    {
      "channel": 0,
      "note": 82,
      "start": 38.3147,
      "duration": 0.016,
      "velocity": 124,
      "chip": "ym2612"
    },
    {
      "channel": 5,
      "note": 76,
      "start": 38.3159,
      "duration": 0.016,
      "velocity": 100,
      "chip": "ym2612"
    },
    {
      "channel": 4,
      "note": 80,
      "start": 38.3174,
      "duration": 0.0157,
      "velocity": 100,
      "chip": "ym2612"
    },
    {
      "channel": 3,
      "note": 76,
      "start": 38.3191,
      "duration": 0.0158,
      "velocity": 100,
      "chip": "ym2612"
    },
    {
      "channel": 2,
      "note": 64,
      "start": 38.3203,
      "duration": 0.0158,
      "velocity": 100,
      "chip": "ym2612"
    },
    {
      "channel": 1,
      "note": 80,
      "start": 38.3215,
      "duration": 0.0157,
      "velocity": 100,
      "chip": "ym2612"
    },
    {
      "channel": 0,
      "note": 80,
      "start": 38.3308,
      "duration": 0.0161,
      "velocity": 124,
      "chip": "ym2612"
    },
    {
      "channel": 5,
      "note": 76,
      "start": 38.332,
      "duration": 0.0161,
      "velocity": 100,
      "chip": "ym2612"
    },
    {
      "channel": 4,
      "note": 80,
      "start": 38.3331,
      "duration": 0.0161,
      "velocity": 100,
      "chip": "ym2612"
    },
    {
      "channel": 3,
      "note": 76,
      "start": 38.3349,
      "duration": 0.0158,
      "velocity": 100,
      "chip": "ym2612"
    },
    {
      "channel": 2,
      "note": 64,
      "start": 38.3361,
      "duration": 0.0162,
      "velocity": 100,
      "chip": "ym2612"
    },
    {
      "channel": 1,
      "note": 80,
      "start": 38.3373,
      "duration": 0.0161,
      "velocity": 100,
      "chip": "ym2612"
    },
    {
      "channel": 0,
      "note": 77,
      "start": 38.3469,
      "duration": 0.0161,
      "velocity": 124,
      "chip": "ym2612"
    },
    {
      "channel": 5,
      "note": 76,
      "start": 38.3481,
      "duration": 0.0161,
      "velocity": 100,
      "chip": "ym2612"
    },
    {
      "channel": 4,
      "note": 80,
      "start": 38.3493,
      "duration": 0.0161,
      "velocity": 100,
      "chip": "ym2612"
    },
    {
      "channel": 3,
      "note": 76,
      "start": 38.3507,
      "duration": 0.0159,
      "velocity": 100,
      "chip": "ym2612"
    },
    {
      "channel": 2,
      "note": 64,
      "start": 38.3522,
      "duration": 0.016,
      "velocity": 100,
      "chip": "ym2612"
    },
    {
      "channel": 1,
      "note": 80,
      "start": 38.3534,
      "duration": 0.0161,
      "velocity": 100,
      "chip": "ym2612"
    },
    {
      "channel": 0,
      "note": 75,
      "start": 38.363,
      "duration": 0.0161,
      "velocity": 124,
      "chip": "ym2612"
    },
    {
      "channel": 5,
      "note": 76,
      "start": 38.3642,
      "duration": 0.0161,
      "velocity": 100,
      "chip": "ym2612"
    },
    {
      "channel": 4,
      "note": 80,
      "start": 38.3654,
      "duration": 0.0161,
      "velocity": 100,
      "chip": "ym2612"
    },
    {
      "channel": 3,
      "note": 76,
      "start": 38.3665,
      "duration": 0.0161,
      "velocity": 100,
      "chip": "ym2612"
    },
    {
      "channel": 2,
      "note": 64,
      "start": 38.3682,
      "duration": 0.0158,
      "velocity": 100,
      "chip": "ym2612"
    },
    {
      "channel": 1,
      "note": 80,
      "start": 38.3695,
      "duration": 0.0161,
      "velocity": 100,
      "chip": "ym2612"
    },
    {
      "channel": 0,
      "note": 72,
      "start": 38.379,
      "duration": 0.0161,
      "velocity": 124,
      "chip": "ym2612"
    },
    {
      "channel": 5,
      "note": 76,
      "start": 38.3803,
      "duration": 0.0161,
      "velocity": 100,
      "chip": "ym2612"
    },
    {
      "channel": 4,
      "note": 80,
      "start": 38.3815,
      "duration": 0.0161,
      "velocity": 100,
      "chip": "ym2612"
    },
    {
      "channel": 3,
      "note": 76,
      "start": 38.3826,
      "duration": 0.0161,
      "velocity": 100,
      "chip": "ym2612"
    },
    {
      "channel": 2,
      "note": 64,
      "start": 38.384,
      "duration": 0.0159,
      "velocity": 100,
      "chip": "ym2612"
    },
    {
      "channel": 1,
      "note": 80,
      "start": 38.3856,
      "duration": 0.0161,
      "velocity": 100,
      "chip": "ym2612"
    },
    {
      "channel": 0,
      "note": 70,
      "start": 38.3951,
      "duration": 0.0162,
      "velocity": 124,
      "chip": "ym2612"
    },
    {
      "channel": 5,
      "note": 76,
      "start": 38.3963,
      "duration": 0.0161,
      "velocity": 100,
      "chip": "ym2612"
    },
    {
      "channel": 4,
      "note": 80,
      "start": 38.3976,
      "duration": 0.0161,
      "velocity": 100,
      "chip": "ym2612"
    },
    {
      "channel": 3,
      "note": 76,
      "start": 38.3987,
      "duration": 0.0162,
      "velocity": 100,
      "chip": "ym2612"
    },
    {
      "channel": 2,
      "note": 64,
      "start": 38.3999,
      "duration": 0.0162,
      "velocity": 100,
      "chip": "ym2612"
    },
    {
      "channel": 1,
      "note": 80,
      "start": 38.4016,
      "duration": 0.0159,
      "velocity": 100,
      "chip": "ym2612"
    },
    {
      "channel": 0,
      "note": 68,
      "start": 38.4113,
      "duration": 0.0161,
      "velocity": 124,
      "chip": "ym2612"
    },
    {
      "channel": 2,
      "note": 64,
      "start": 38.4161,
      "duration": 0.016,
      "velocity": 100,
      "chip": "ym2612"
    },
    {
      "channel": 0,
      "note": 65,
      "start": 38.4274,
      "duration": 0.0161,
      "velocity": 124,
      "chip": "ym2612"
    },
    {
      "channel": 2,
      "note": 64,
      "start": 38.4321,
      "duration": 0.0161,
      "velocity": 100,
      "chip": "ym2612"
    },
    {
      "channel": 0,
      "note": 63,
      "start": 38.4435,
      "duration": 0.0153,
      "velocity": 1,
      "chip": "ym2612"
    },
    {
      "channel": 2,
      "note": 64,
      "start": 38.4482,
      "duration": 0.0153,
      "velocity": 100,
      "chip": "ym2612"
    },
    {
      "channel": 2,
      "note": 64,
      "start": 38.4635,
      "duration": 0.0152,
      "velocity": 100,
      "chip": "ym2612"
    },
    {
      "channel": 2,
      "note": 64,
      "start": 38.4787,
      "duration": 0.0161,
      "velocity": 100,
      "chip": "ym2612"
    },
    {
      "channel": 2,
      "note": 64,
      "start": 38.4948,
      "duration": 0.0207,
      "velocity": 100,
      "chip": "ym2612"
    },
    {
      "channel": 0,
      "note": 36,
      "start": 38.5097,
      "duration": 0.0143,
      "velocity": 115,
      "chip": "ym2612"
    },
    {
      "channel": 5,
      "note": 71,
      "start": 38.5112,
      "duration": 0.0141,
      "velocity": 100,
      "chip": "ym2612"
    },
    {
      "channel": 4,
      "note": 76,
      "start": 38.5128,
      "duration": 0.0138,
      "velocity": 100,
      "chip": "ym2612"
    },
    {
      "channel": 2,
      "note": 54,
      "start": 38.5156,
      "duration": 0.0134,
      "velocity": 100,
      "chip": "ym2612"
    },
    {
      "channel": 0,
      "note": 36,
      "start": 38.524,
      "duration": 0.016,
      "velocity": 115,
      "chip": "ym2612"
    },
    {
      "channel": 5,
      "note": 71,
      "start": 38.5253,
      "duration": 0.016,
      "velocity": 100,
      "chip": "ym2612"
    },
    {
      "channel": 4,
      "note": 76,
      "start": 38.5266,
      "duration": 0.0159,
      "velocity": 100,
      "chip": "ym2612"
    },
    {
      "channel": 2,
      "note": 54,
      "start": 38.529,
      "duration": 0.0158,
      "velocity": 100,
      "chip": "ym2612"
    },
    {
      "channel": 0,
      "note": 37,
      "start": 38.5401,
      "duration": 0.0161,
      "velocity": 115,
      "chip": "ym2612"
    },
    {
      "channel": 5,
      "note": 71,
      "start": 38.5413,
      "duration": 0.0161,
      "velocity": 100,
      "chip": "ym2612"
    },
    {
      "channel": 4,
      "note": 76,
      "start": 38.5425,
      "duration": 0.0161,
      "velocity": 100,
      "chip": "ym2612"
    },
    {
      "channel": 2,
      "note": 54,
      "start": 38.5448,
      "duration": 0.0161,
      "velocity": 100,
      "chip": "ym2612"
    },
    {
      "channel": 0,
      "note": 37,
      "start": 38.5562,
      "duration": 0.0161,
      "velocity": 115,
      "chip": "ym2612"
    },
    {
      "channel": 5,
      "note": 71,
      "start": 38.5574,
      "duration": 0.0161,
      "velocity": 100,
      "chip": "ym2612"
    },
    {
      "channel": 4,
      "note": 76,
      "start": 38.5586,
      "duration": 0.0162,
      "velocity": 100,
      "chip": "ym2612"
    },
    {
      "channel": 2,
      "note": 54,
      "start": 38.5609,
      "duration": 0.0161,
      "velocity": 100,
      "chip": "ym2612"
    },
    {
      "channel": 0,
      "note": 38,
      "start": 38.5723,
      "duration": 0.0161,
      "velocity": 115,
      "chip": "ym2612"
    },
    {
      "channel": 2,
      "note": 54,
      "start": 38.5771,
      "duration": 0.016,
      "velocity": 100,
      "chip": "ym2612"
    },
    {
      "channel": 0,
      "note": 38,
      "start": 38.5884,
      "duration": 0.0161,
      "velocity": 115,
      "chip": "ym2612"
    },
    {
      "channel": 2,
      "note": 54,
      "start": 38.5931,
      "duration": 0.0161,
      "velocity": 100,
      "chip": "ym2612"
    },
    {
      "channel": 0,
      "note": 39,
      "start": 38.6045,
      "duration": 0.0161,
      "velocity": 115,
      "chip": "ym2612"
    },
    {
      "channel": 2,
      "note": 54,
      "start": 38.6092,
      "duration": 0.0169,
      "velocity": 100,
      "chip": "ym2612"
    },
    {
      "channel": 0,
      "note": 39,
      "start": 38.6207,
      "duration": 0.0161,
      "velocity": 115,
      "chip": "ym2612"
    },
    {
      "channel": 5,
      "note": 76,
      "start": 38.6222,
      "duration": 0.0159,
      "velocity": 100,
      "chip": "ym2612"
    },
    {
      "channel": 4,
      "note": 80,
      "start": 38.6237,
      "duration": 0.0156,
      "velocity": 100,
      "chip": "ym2612"
    },
    {
      "channel": 2,
      "note": 54,
      "start": 38.6261,
      "duration": 0.0156,
      "velocity": 100,
      "chip": "ym2612"
    },
    {
      "channel": 0,
      "note": 40,
      "start": 38.6368,
      "duration": 0.0164,
      "velocity": 115,
      "chip": "ym2612"
    },
    {
      "channel": 5,
      "note": 76,
      "start": 38.638,
      "duration": 0.0163,
      "velocity": 100,
      "chip": "ym2612"
    },
    {
      "channel": 4,
      "note": 80,
      "start": 38.6393,
      "duration": 0.0163,
      "velocity": 100,
      "chip": "ym2612"
    },
    {
      "channel": 2,
      "note": 54,
      "start": 38.6417,
      "duration": 0.0163,
      "velocity": 100,
      "chip": "ym2612"
    },
    {
      "channel": 0,
      "note": 40,
      "start": 38.6532,
      "duration": 0.0163,
      "velocity": 115,
      "chip": "ym2612"
    },
    {
      "channel": 5,
      "note": 76,
      "start": 38.6544,
      "duration": 0.0163,
      "velocity": 100,
      "chip": "ym2612"
    },
    {
      "channel": 4,
      "note": 80,
      "start": 38.6556,
      "duration": 0.0163,
      "velocity": 100,
      "chip": "ym2612"
    },
    {
      "channel": 2,
      "note": 54,
      "start": 38.6579,
      "duration": 0.0163,
      "velocity": 100,
      "chip": "ym2612"
    },
    {
      "channel": 0,
      "note": 40,
      "start": 38.6695,
      "duration": 0.0161,
      "velocity": 115,
      "chip": "ym2612"
    },
    {
      "channel": 5,
      "note": 76,
      "start": 38.6707,
      "duration": 0.0161,
      "velocity": 100,
      "chip": "ym2612"
    },
    {
      "channel": 4,
      "note": 80,
      "start": 38.6719,
      "duration": 0.0161,
      "velocity": 100,
      "chip": "ym2612"
    },
    {
      "channel": 2,
      "note": 54,
      "start": 38.6742,
      "duration": 0.0161,
      "velocity": 100,
      "chip": "ym2612"
    },
    {
      "channel": 0,
      "note": 41,
      "start": 38.6856,
      "duration": 0.016,
      "velocity": 115,
      "chip": "ym2612"
    },
    {
      "channel": 5,
      "note": 76,
      "start": 38.6868,
      "duration": 0.0161,
      "velocity": 100,
      "chip": "ym2612"
    },
    {
      "channel": 4,
      "note": 80,
      "start": 38.688,
      "duration": 0.0161,
      "velocity": 100,
      "chip": "ym2612"
    },
    {
      "channel": 2,
      "note": 54,
      "start": 38.6903,
      "duration": 0.0161,
      "velocity": 100,
      "chip": "ym2612"
    },
    {
      "channel": 0,
      "note": 41,
      "start": 38.7016,
      "duration": 0.0179,
      "velocity": 115,
      "chip": "ym2612"
    },
    {
      "channel": 5,
      "note": 76,
      "start": 38.7029,
      "duration": 0.0179,
      "velocity": 100,
      "chip": "ym2612"
    },
    {
      "channel": 4,
      "note": 80,
      "start": 38.7041,
      "duration": 0.0179,
      "velocity": 100,
      "chip": "ym2612"
    },
    {
      "channel": 2,
      "note": 54,
      "start": 38.7064,
      "duration": 0.0185,
      "velocity": 100,
      "chip": "ym2612"
    },
    {
      "channel": 0,
      "note": 36,
      "start": 38.7196,
      "duration": 0.0137,
      "velocity": 115,
      "chip": "ym2612"
    },
    {
      "channel": 5,
      "note": 76,
      "start": 38.7208,
      "duration": 0.0143,
      "velocity": 100,
      "chip": "ym2612"
    },
    {
      "channel": 4,
      "note": 80,
      "start": 38.722,
      "duration": 0.0144,
      "velocity": 100,
      "chip": "ym2612"
    },
    {
      "channel": 3,
      "note": 78,
      "start": 38.7235,
      "duration": 0.0141,
      "velocity": 100,
      "chip": "ym2612"
    },
    {
      "channel": 2,
      "note": 66,
      "start": 38.725,
      "duration": 0.0138,
      "velocity": 100,
      "chip": "ym2612"
    },
    {
      "channel": 1,
      "note": 82,
      "start": 38.7265,
      "duration": 0.0136,
      "velocity": 100,
      "chip": "ym2612"
    },
    {
      "channel": 0,
      "note": 36,
      "start": 38.7334,
      "duration": 0.016,
      "velocity": 115,
      "chip": "ym2612"
    },
    {
      "channel": 3,
      "note": 78,
      "start": 38.7376,
      "duration": 0.016,
      "velocity": 100,
      "chip": "ym2612"
    },
    {
      "channel": 2,
      "note": 66,
      "start": 38.7388,
      "duration": 0.0159,
      "velocity": 100,
      "chip": "ym2612"
    },
    {
      "channel": 1,
      "note": 82,
      "start": 38.7401,
      "duration": 0.0158,
      "velocity": 100,
      "chip": "ym2612"
    },
    {
      "channel": 0,
      "note": 37,
      "start": 38.7494,
      "duration": 0.0161,
      "velocity": 115,
      "chip": "ym2612"
    },
    {
      "channel": 3,
      "note": 78,
      "start": 38.7535,
      "duration": 0.0161,
      "velocity": 100,
      "chip": "ym2612"
    },
    {
      "channel": 2,
      "note": 66,
      "start": 38.7547,
      "duration": 0.0161,
      "velocity": 100,
      "chip": "ym2612"
    },
    {
      "channel": 1,
      "note": 82,
      "start": 38.7559,
      "duration": 0.016,
      "velocity": 100,
      "chip": "ym2612"
    },
    {
      "channel": 0,
      "note": 37,
      "start": 38.7655,
      "duration": 0.0161,
      "velocity": 115,
      "chip": "ym2612"
    },
    {
      "channel": 3,
      "note": 78,
      "start": 38.7696,
      "duration": 0.0161,
      "velocity": 100,
      "chip": "ym2612"
    },
    {
      "channel": 2,
      "note": 66,
      "start": 38.7708,
      "duration": 0.0161,
      "velocity": 100,
      "chip": "ym2612"
    },
    {
      "channel": 1,
      "note": 82,
      "start": 38.7719,
      "duration": 0.0162,
      "velocity": 100,
      "chip": "ym2612"
    },
    {
      "channel": 0,
      "note": 38,
      "start": 38.7816,
      "duration": 0.0161,
      "velocity": 115,
      "chip": "ym2612"
    },
    {
      "channel": 3,
      "note": 78,
      "start": 38.7857,
      "duration": 0.016,
      "velocity": 100,
      "chip": "ym2612"
    },
    {
      "channel": 2,
      "note": 66,
      "start": 38.7869,
      "duration": 0.0161,
      "velocity": 100,
      "chip": "ym2612"
    },
    {
      "channel": 1,
      "note": 82,
      "start": 38.7881,
      "duration": 0.0161,
      "velocity": 100,
      "chip": "ym2612"
    },
    {
      "channel": 0,
      "note": 38,
      "start": 38.7977,
      "duration": 0.0161,
      "velocity": 115,
      "chip": "ym2612"
    },
    {
      "channel": 3,
      "note": 78,
      "start": 38.8018,
      "duration": 0.0158,
      "velocity": 100,
      "chip": "ym2612"
    },
    {
      "channel": 2,
      "note": 66,
      "start": 38.803,
      "duration": 0.0161,
      "velocity": 100,
      "chip": "ym2612"
    },
    {
      "channel": 1,
      "note": 82,
      "start": 38.8042,
      "duration": 0.0161,
      "velocity": 100,
      "chip": "ym2612"
    },
    {
      "channel": 0,
      "note": 39,
      "start": 38.8138,
      "duration": 0.0161,
      "velocity": 115,
      "chip": "ym2612"
    },
    {
      "channel": 3,
      "note": 78,
      "start": 38.8176,
      "duration": 0.0161,
      "velocity": 100,
      "chip": "ym2612"
    },
    {
      "channel": 2,
      "note": 66,
      "start": 38.8191,
      "duration": 0.0164,
      "velocity": 100,
      "chip": "ym2612"
    },
    {
      "channel": 1,
      "note": 82,
      "start": 38.8203,
      "duration": 0.0164,
      "velocity": 100,
      "chip": "ym2612"
    },
    {
      "channel": 0,
      "note": 39,
      "start": 38.8299,
      "duration": 0.0161,
      "velocity": 115,
      "chip": "ym2612"
    },
    {
      "channel": 2,
      "note": 66,
      "start": 38.8355,
      "duration": 0.0155,
      "velocity": 100,
      "chip": "ym2612"
    },
    {
      "channel": 0,
      "note": 40,
      "start": 38.846,
      "duration": 0.0161,
      "velocity": 115,
      "chip": "ym2612"
    },
    {
      "channel": 2,
      "note": 66,
      "start": 38.851,
      "duration": 0.0159,
      "velocity": 100,
      "chip": "ym2612"
    },
    {
      "channel": 0,
      "note": 40,
      "start": 38.8621,
      "duration": 0.0161,
      "velocity": 115,
      "chip": "ym2612"
    },
    {
      "channel": 2,
      "note": 66,
      "start": 38.8669,
      "duration": 0.016,
      "velocity": 100,
      "chip": "ym2612"
    },
    {
      "channel": 0,
      "note": 40,
      "start": 38.8782,
      "duration": 0.0161,
      "velocity": 115,
      "chip": "ym2612"
    },
    {
      "channel": 2,
      "note": 66,
      "start": 38.8829,
      "duration": 0.0161,
      "velocity": 100,
      "chip": "ym2612"
    },
    {
      "channel": 0,
      "note": 41,
      "start": 38.8943,
      "duration": 0.0161,
      "velocity": 115,
      "chip": "ym2612"
    },
    {
      "channel": 2,
      "note": 66,
      "start": 38.899,
      "duration": 0.0161,
      "velocity": 100,
      "chip": "ym2612"
    },
    {
      "channel": 0,
      "note": 41,
      "start": 38.9104,
      "duration": 0.0179,
      "velocity": 124,
      "chip": "ym2612"
    },
    {
      "channel": 2,
      "note": 66,
      "start": 38.9151,
      "duration": 0.0186,
      "velocity": 100,
      "chip": "ym2612"
    },
    {
      "channel": 0,
      "note": 84,
      "start": 38.9284,
      "duration": 0.0143,
      "velocity": 124,
      "chip": "ym2612"
    },
    {
      "channel": 3,
      "note": 78,
      "start": 38.9322,
      "duration": 0.0141,
      "velocity": 100,
      "chip": "ym2612"
    },
    {
      "channel": 2,
      "note": 56,
      "start": 38.9338,
      "duration": 0.0138,
      "velocity": 100,
      "chip": "ym2612"
    },
    {
      "channel": 1,
      "note": 82,
      "start": 38.9358,
      "duration": 0.013,
      "velocity": 100,
      "chip": "ym2612"
    },
    {
      "channel": 0,
      "note": 82,
      "start": 38.9427,
      "duration": 0.016,
      "velocity": 124,
      "chip": "ym2612"
    },
    {
      "channel": 3,
      "note": 78,
      "start": 38.9463,
      "duration": 0.016,
      "velocity": 100,
      "chip": "ym2612"
    },
    {
      "channel": 2,
      "note": 56,
      "start": 38.9476,
      "duration": 0.016,
      "velocity": 100,
      "chip": "ym2612"
    },
    {
      "channel": 1,
      "note": 82,
      "start": 38.9488,
      "duration": 0.0158,
      "velocity": 100,
      "chip": "ym2612"
    },
    {
      "channel": 0,
      "note": 80,
      "start": 38.9587,
      "duration": 0.0161,
      "velocity": 124,
      "chip": "ym2612"
    },
    {
      "channel": 3,
      "note": 78,
      "start": 38.9624,
      "duration": 0.016,
      "velocity": 100,
      "chip": "ym2612"
    },
    {
      "channel": 2,
      "note": 56,
      "start": 38.9635,
      "duration": 0.016,
      "velocity": 100,
      "chip": "ym2612"
    },
    {
      "channel": 1,
      "note": 82,
      "start": 38.9647,
      "duration": 0.0161,
      "velocity": 100,
      "chip": "ym2612"
    },
    {
      "channel": 0,
      "note": 77,
      "start": 38.9748,
      "duration": 0.0162,
      "velocity": 124,
      "chip": "ym2612"
    },
    {
      "channel": 3,
      "note": 78,
      "start": 38.9784,
      "duration": 0.0161,
      "velocity": 100,
      "chip": "ym2612"
    },
    {
      "channel": 2,
      "note": 56,
      "start": 38.9796,
      "duration": 0.0161,
      "velocity": 100,
      "chip": "ym2612"
    },
    {
      "channel": 1,
      "note": 82,
      "start": 38.9808,
      "duration": 0.0161,
      "velocity": 100,
      "chip": "ym2612"
    },
    {
      "channel": 0,
      "note": 75,
      "start": 38.991,
      "duration": 0.0161,
      "velocity": 124,
      "chip": "ym2612"
    },
    {
      "channel": 3,
      "note": 78,
      "start": 38.9945,
      "duration": 0.0161,
      "velocity": 100,
      "chip": "ym2612"
    },
    {
      "channel": 2,
      "note": 56,
      "start": 38.9957,
      "duration": 0.0161,
      "velocity": 100,
      "chip": "ym2612"
    },
    {
      "channel": 1,
      "note": 82,
      "start": 38.9969,
      "duration": 0.0161,
      "velocity": 100,
      "chip": "ym2612"
    },
    {
      "channel": 0,
      "note": 72,
      "start": 39.0071,
      "duration": 0.0161,
      "velocity": 124,
      "chip": "ym2612"
    },
    {
      "channel": 3,
      "note": 78,
      "start": 39.0106,
      "duration": 0.0161,
      "velocity": 100,
      "chip": "ym2612"
    },
    {
      "channel": 2,
      "note": 56,
      "start": 39.0117,
      "duration": 0.0161,
      "velocity": 100,
      "chip": "ym2612"
    },
    {
      "channel": 1,
      "note": 82,
      "start": 39.013,
      "duration": 0.0161,
      "velocity": 100,
      "chip": "ym2612"
    },
    {
      "channel": 0,
      "note": 70,
      "start": 39.0231,
      "duration": 0.0161,
      "velocity": 124,
      "chip": "ym2612"
    },
    {
      "channel": 3,
      "note": 78,
      "start": 39.0267,
      "duration": 0.0167,
      "velocity": 100,
      "chip": "ym2612"
    },
    {
      "channel": 2,
      "note": 56,
      "start": 39.0278,
      "duration": 0.0167,
      "velocity": 100,
      "chip": "ym2612"
    },
    {
      "channel": 1,
      "note": 82,
      "start": 39.029,
      "duration": 0.0167,
      "velocity": 100,
      "chip": "ym2612"
    },
    {
      "channel": 0,
      "note": 68,
      "start": 39.0392,
      "duration": 0.0161,
      "velocity": 124,
      "chip": "ym2612"
    },
    {
      "channel": 5,
      "note": 78,
      "start": 39.0407,
      "duration": 0.0158,
      "velocity": 100,
      "chip": "ym2612"
    },
    {
      "channel": 4,
      "note": 82,
      "start": 39.0422,
      "duration": 0.0156,
      "velocity": 100,
      "chip": "ym2612"
    },
    {
      "channel": 2,
      "note": 56,
      "start": 39.0446,
      "duration": 0.0156,
      "velocity": 100,
      "chip": "ym2612"
    },
    {
      "channel": 0,
      "note": 65,
      "start": 39.0553,
      "duration": 0.0161,
      "velocity": 124,
      "chip": "ym2612"
    },
    {
      "channel": 5,
      "note": 78,
      "start": 39.0565,
      "duration": 0.016,
      "velocity": 100,
      "chip": "ym2612"
    },
    {
      "channel": 4,
      "note": 82,
      "start": 39.0578,
      "duration": 0.016,
      "velocity": 100,
      "chip": "ym2612"
    },
    {
      "channel": 2,
      "note": 56,
      "start": 39.0602,
      "duration": 0.016,
      "velocity": 100,
      "chip": "ym2612"
    },
    {
      "channel": 0,
      "note": 63,
      "start": 39.0714,
      "duration": 0.0153,
      "velocity": 1,
      "chip": "ym2612"
    },
    {
      "channel": 5,
      "note": 78,
      "start": 39.0726,
      "duration": 0.0153,
      "velocity": 100,
      "chip": "ym2612"
    },
    {
      "channel": 4,
      "note": 82,
      "start": 39.0738,
      "duration": 0.0153,
      "velocity": 100,
      "chip": "ym2612"
    },
    {
      "channel": 2,
      "note": 56,
      "start": 39.0761,
      "duration": 0.0153,
      "velocity": 100,
      "chip": "ym2612"
    },
    {
      "channel": 5,
      "note": 78,
      "start": 39.0879,
      "duration": 0.0153,
      "velocity": 100,
      "chip": "ym2612"
    },
    {
      "channel": 4,
      "note": 82,
      "start": 39.089,
      "duration": 0.0153,
      "velocity": 100,
      "chip": "ym2612"
    },
    {
      "channel": 2,
      "note": 56,
      "start": 39.0914,
      "duration": 0.0153,
      "velocity": 100,
      "chip": "ym2612"
    },
    {
      "channel": 5,
      "note": 78,
      "start": 39.1032,
      "duration": 0.0164,
      "velocity": 100,
      "chip": "ym2612"
    },
    {
      "channel": 4,
      "note": 82,
      "start": 39.1044,
      "duration": 0.0163,
      "velocity": 100,
      "chip": "ym2612"
    },
    {
      "channel": 2,
      "note": 56,
      "start": 39.1067,
      "duration": 0.0163,
      "velocity": 100,
      "chip": "ym2612"
    },
    {
      "channel": 5,
      "note": 78,
      "start": 39.1196,
      "duration": 0.0199,
      "velocity": 100,
      "chip": "ym2612"
    },
    {
      "channel": 4,
      "note": 82,
      "start": 39.1207,
      "duration": 0.0199,
      "velocity": 100,
      "chip": "ym2612"
    },
    {
      "channel": 2,
      "note": 56,
      "start": 39.1231,
      "duration": 0.0205,
      "velocity": 100,
      "chip": "ym2612"
    },
    {
      "channel": 0,
      "note": 36,
      "start": 39.1382,
      "duration": 0.0144,
      "velocity": 115,
      "chip": "ym2612"
    },
    {
      "channel": 5,
      "note": 78,
      "start": 39.1394,
      "duration": 0.0144,
      "velocity": 100,
      "chip": "ym2612"
    },
    {
      "channel": 4,
      "note": 82,
      "start": 39.1406,
      "duration": 0.0143,
      "velocity": 100,
      "chip": "ym2612"
    },
    {
      "channel": 3,
      "note": 73,
      "start": 39.1421,
      "duration": 0.0141,
      "velocity": 100,
      "chip": "ym2612"
    },
    {
      "channel": 2,
      "note": 68,
      "start": 39.1436,
      "duration": 0.0138,
      "velocity": 100,
      "chip": "ym2612"
    },
    {
      "channel": 1,
      "note": 78,
      "start": 39.1451,
      "duration": 0.0136,
      "velocity": 100,
      "chip": "ym2612"
    },
    {
      "channel": 0,
      "note": 36,
      "start": 39.1526,
      "duration": 0.016,
      "velocity": 115,
      "chip": "ym2612"
    },
    {
      "channel": 3,
      "note": 73,
      "start": 39.1562,
      "duration": 0.016,
      "velocity": 100,
      "chip": "ym2612"
    },
    {
      "channel": 2,
      "note": 68,
      "start": 39.1574,
      "duration": 0.0159,
      "velocity": 100,
      "chip": "ym2612"
    },
    {
      "channel": 1,
      "note": 78,
      "start": 39.1587,
      "duration": 0.0158,
      "velocity": 100,
      "chip": "ym2612"
    },
    {
      "channel": 0,
      "note": 37,
      "start": 39.1685,
      "duration": 0.0161,
      "velocity": 115,
      "chip": "ym2612"
    },
    {
      "channel": 3,
      "note": 73,
      "start": 39.1722,
      "duration": 0.0161,
      "velocity": 100,
      "chip": "ym2612"
    },
    {
      "channel": 2,
      "note": 68,
      "start": 39.1733,
      "duration": 0.0161,
      "velocity": 100,
      "chip": "ym2612"
    },
    {
      "channel": 1,
      "note": 78,
      "start": 39.1745,
      "duration": 0.0161,
      "velocity": 100,
      "chip": "ym2612"
    },
    {
      "channel": 0,
      "note": 37,
      "start": 39.1846,
      "duration": 0.0156,
      "velocity": 115,
      "chip": "ym2612"
    },
    {
      "channel": 3,
      "note": 73,
      "start": 39.1883,
      "duration": 0.0161,
      "velocity": 100,
      "chip": "ym2612"
    },
    {
      "channel": 2,
      "note": 68,
      "start": 39.1894,
      "duration": 0.0161,
      "velocity": 100,
      "chip": "ym2612"
    },
    {
      "channel": 1,
      "note": 78,
      "start": 39.1906,
      "duration": 0.0161,
      "velocity": 100,
      "chip": "ym2612"
    },
    {
      "channel": 0,
      "note": 38,
      "start": 39.2002,
      "duration": 0.0161,
      "velocity": 115,
      "chip": "ym2612"
    },
    {
      "channel": 3,
      "note": 73,
      "start": 39.2044,
      "duration": 0.0161,
      "velocity": 100,
      "chip": "ym2612"
    },
    {
      "channel": 2,
      "note": 68,
      "start": 39.2055,
      "duration": 0.0161,
      "velocity": 100,
      "chip": "ym2612"
    },
    {
      "channel": 1,
      "note": 78,
      "start": 39.2067,
      "duration": 0.0161,
      "velocity": 100,
      "chip": "ym2612"
    },
    {
      "channel": 0,
      "note": 38,
      "start": 39.2163,
      "duration": 0.0185,
      "velocity": 115,
      "chip": "ym2612"
    },
    {
      "channel": 3,
      "note": 73,
      "start": 39.2205,
      "duration": 0.0179,
      "velocity": 100,
      "chip": "ym2612"
    },
    {
      "channel": 2,
      "note": 68,
      "start": 39.2216,
      "duration": 0.0179,
      "velocity": 100,
      "chip": "ym2612"
    },
    {
      "channel": 1,
      "note": 78,
      "start": 39.2228,
      "duration": 0.018,
      "velocity": 100,
      "chip": "ym2612"
    },
    {
      "channel": 0,
      "note": 36,
      "start": 39.2349,
      "duration": 0.0137,
      "velocity": 115,
      "chip": "ym2612"
    },
    {
      "channel": 3,
      "note": 73,
      "start": 39.2384,
      "duration": 0.0149,
      "velocity": 100,
      "chip": "ym2612"
    },
    {
      "channel": 2,
      "note": 68,
      "start": 39.2395,
      "duration": 0.015,
      "velocity": 100,
      "chip": "ym2612"
    },
    {
      "channel": 1,
      "note": 78,
      "start": 39.2408,
      "duration": 0.015,
      "velocity": 100,
      "chip": "ym2612"
    },
    {
      "channel": 0,
      "note": 36,
      "start": 39.2486,
      "duration": 0.016,
      "velocity": 115,
      "chip": "ym2612"
    },
    {
      "channel": 5,
      "note": 78,
      "start": 39.2501,
      "duration": 0.0158,
      "velocity": 100,
      "chip": "ym2612"
    },
    {
      "channel": 4,
      "note": 82,
      "start": 39.2522,
      "duration": 0.0152,
      "velocity": 100,
      "chip": "ym2612"
    },
    {
      "channel": 2,
      "note": 68,
      "start": 39.2546,
      "duration": 0.0156,
      "velocity": 100,
      "chip": "ym2612"
    },
    {
      "channel": 0,
      "note": 37,
      "start": 39.2646,
      "duration": 0.0161,
      "velocity": 115,
      "chip": "ym2612"
    },
    {
      "channel": 5,
      "note": 78,
      "start": 39.2659,
      "duration": 0.016,
      "velocity": 100,
      "chip": "ym2612"
    },
    {
      "channel": 4,
      "note": 82,
      "start": 39.2673,
      "duration": 0.0158,
      "velocity": 100,
      "chip": "ym2612"
    },
    {
      "channel": 2,
      "note": 68,
      "start": 39.2702,
      "duration": 0.016,
      "velocity": 100,
      "chip": "ym2612"
    },
    {
      "channel": 0,
      "note": 37,
      "start": 39.2807,
      "duration": 0.0162,
      "velocity": 115,
      "chip": "ym2612"
    },
    {
      "channel": 5,
      "note": 78,
      "start": 39.2819,
      "duration": 0.0161,
      "velocity": 100,
      "chip": "ym2612"
    },
    {
      "channel": 4,
      "note": 82,
      "start": 39.2831,
      "duration": 0.0161,
      "velocity": 100,
      "chip": "ym2612"
    },
    {
      "channel": 2,
      "note": 68,
      "start": 39.2861,
      "duration": 0.016,
      "velocity": 100,
      "chip": "ym2612"
    },
    {
      "channel": 0,
      "note": 38,
      "start": 39.2969,
      "duration": 0.0161,
      "velocity": 115,
      "chip": "ym2612"
    },
    {
      "channel": 5,
      "note": 78,
      "start": 39.298,
      "duration": 0.0161,
      "velocity": 100,
      "chip": "ym2612"
    },
    {
      "channel": 4,
      "note": 82,
      "start": 39.2992,
      "duration": 0.0161,
      "velocity": 100,
      "chip": "ym2612"
    },
    {
      "channel": 2,
      "note": 68,
      "start": 39.3022,
      "duration": 0.016,
      "velocity": 100,
      "chip": "ym2612"
    },
    {
      "channel": 0,
      "note": 38,
      "start": 39.313,
      "duration": 0.0161,
      "velocity": 115,
      "chip": "ym2612"
    },
    {
      "channel": 5,
      "note": 78,
      "start": 39.3141,
      "duration": 0.0161,
      "velocity": 100,
      "chip": "ym2612"
    },
    {
      "channel": 4,
      "note": 82,
      "start": 39.3153,
      "duration": 0.0161,
      "velocity": 100,
      "chip": "ym2612"
    },
    {
      "channel": 2,
      "note": 68,
      "start": 39.3182,
      "duration": 0.0156,
      "velocity": 100,
      "chip": "ym2612"
    },
    {
      "channel": 0,
      "note": 39,
      "start": 39.329,
      "duration": 0.0179,
      "velocity": 115,
      "chip": "ym2612"
    },
    {
      "channel": 5,
      "note": 78,
      "start": 39.3302,
      "duration": 0.0179,
      "velocity": 100,
      "chip": "ym2612"
    },
    {
      "channel": 4,
      "note": 82,
      "start": 39.3314,
      "duration": 0.0179,
      "velocity": 100,
      "chip": "ym2612"
    },
    {
      "channel": 2,
      "note": 68,
      "start": 39.3338,
      "duration": 0.0191,
      "velocity": 100,
      "chip": "ym2612"
    },
    {
      "channel": 0,
      "note": 36,
      "start": 39.347,
      "duration": 0.0143,
      "velocity": 115,
      "chip": "ym2612"
    },
    {
      "channel": 5,
      "note": 78,
      "start": 39.3481,
      "duration": 0.0144,
      "velocity": 100,
      "chip": "ym2612"
    },
    {
      "channel": 4,
      "note": 82,
      "start": 39.3493,
      "duration": 0.0143,
      "velocity": 100,
      "chip": "ym2612"
    },
    {
      "channel": 3,
      "note": 78,
      "start": 39.3514,
      "duration": 0.0136,
      "velocity": 100,
      "chip": "ym2612"
    },
    {
      "channel": 2,
      "note": 58,
      "start": 39.353,
      "duration": 0.0132,
      "velocity": 100,
      "chip": "ym2612"
    },
    {
      "channel": 1,
      "note": 82,
      "start": 39.3544,
      "duration": 0.0132,
      "velocity": 100,
      "chip": "ym2612"
    },
    {
      "channel": 0,
      "note": 36,
      "start": 39.3613,
      "duration": 0.016,
      "velocity": 115,
      "chip": "ym2612"
    },
    {
      "channel": 3,
      "note": 78,
      "start": 39.3649,
      "duration": 0.016,
      "velocity": 100,
      "chip": "ym2612"
    },
    {
      "channel": 2,
      "note": 58,
      "start": 39.3661,
      "duration": 0.0159,
      "velocity": 100,
      "chip": "ym2612"
    },
    {
      "channel": 1,
      "note": 82,
      "start": 39.3676,
      "duration": 0.0156,
      "velocity": 100,
      "chip": "ym2612"
    },
    {
      "channel": 0,
      "note": 37,
      "start": 39.3773,
      "duration": 0.0161,
      "velocity": 115,
      "chip": "ym2612"
    },
    {
      "channel": 3,
      "note": 78,
      "start": 39.3809,
      "duration": 0.0161,
      "velocity": 100,
      "chip": "ym2612"
    },
    {
      "channel": 2,
      "note": 58,
      "start": 39.382,
      "duration": 0.0161,
      "velocity": 100,
      "chip": "ym2612"
    },
    {
      "channel": 1,
      "note": 82,
      "start": 39.3832,
      "duration": 0.0161,
      "velocity": 100,
      "chip": "ym2612"
    },
    {
      "channel": 0,
      "note": 37,
      "start": 39.3934,
      "duration": 0.0161,
      "velocity": 115,
      "chip": "ym2612"
    },
    {
      "channel": 3,
      "note": 78,
      "start": 39.397,
      "duration": 0.0161,
      "velocity": 100,
      "chip": "ym2612"
    },
    {
      "channel": 2,
      "note": 58,
      "start": 39.3981,
      "duration": 0.0161,
      "velocity": 100,
      "chip": "ym2612"
    },
    {
      "channel": 1,
      "note": 82,
      "start": 39.3993,
      "duration": 0.0161,
      "velocity": 100,
      "chip": "ym2612"
    },
    {
      "channel": 0,
      "note": 38,
      "start": 39.4095,
      "duration": 0.0161,
      "velocity": 115,
      "chip": "ym2612"
    },
    {
      "channel": 3,
      "note": 78,
      "start": 39.4131,
      "duration": 0.0161,
      "velocity": 100,
      "chip": "ym2612"
    },
    {
      "channel": 2,
      "note": 58,
      "start": 39.4142,
      "duration": 0.0161,
      "velocity": 100,
      "chip": "ym2612"
    },
    {
      "channel": 1,
      "note": 82,
      "start": 39.4154,
      "duration": 0.0162,
      "velocity": 100,
      "chip": "ym2612"
    },
    {
      "channel": 0,
      "note": 38,
      "start": 39.4256,
      "duration": 0.0161,
      "velocity": 115,
      "chip": "ym2612"
    },
    {
      "channel": 3,
      "note": 78,
      "start": 39.4292,
      "duration": 0.0161,
      "velocity": 100,
      "chip": "ym2612"
    },
    {
      "channel": 2,
      "note": 58,
      "start": 39.4303,
      "duration": 0.0161,
      "velocity": 100,
      "chip": "ym2612"
    },
    {
      "channel": 1,
      "note": 82,
      "start": 39.4315,
      "duration": 0.0161,
      "velocity": 100,
      "chip": "ym2612"
    },
    {
      "channel": 0,
      "note": 39,
      "start": 39.4417,
      "duration": 0.0161,
      "velocity": 115,
      "chip": "ym2612"
    },
    {
      "channel": 3,
      "note": 78,
      "start": 39.4453,
      "duration": 0.0168,
      "velocity": 100,
      "chip": "ym2612"
    },
    {
      "channel": 2,
      "note": 58,
      "start": 39.4464,
      "duration": 0.0168,
      "velocity": 100,
      "chip": "ym2612"
    },
    {
      "channel": 1,
      "note": 82,
      "start": 39.4476,
      "duration": 0.0168,
      "velocity": 100,
      "chip": "ym2612"
    },
    {
      "channel": 0,
      "note": 39,
      "start": 39.4579,
      "duration": 0.0161,
      "velocity": 115,
      "chip": "ym2612"
    },
    {
      "channel": 5,
      "note": 73,
      "start": 39.4593,
      "duration": 0.0158,
      "velocity": 100,
      "chip": "ym2612"
    },
    {
      "channel": 4,
      "note": 78,
      "start": 39.4609,
      "duration": 0.0156,
      "velocity": 100,
      "chip": "ym2612"
    },
    {
      "channel": 2,
      "note": 58,
      "start": 39.4632,
      "duration": 0.0156,
      "velocity": 100,
      "chip": "ym2612"
    },
    {
      "channel": 0,
      "note": 40,
      "start": 39.474,
      "duration": 0.0161,
      "velocity": 115,
      "chip": "ym2612"
    },
    {
      "channel": 5,
      "note": 73,
      "start": 39.4752,
      "duration": 0.016,
      "velocity": 100,
      "chip": "ym2612"
    },
    {
      "channel": 4,
      "note": 78,
      "start": 39.4764,
      "duration": 0.016,
      "velocity": 100,
      "chip": "ym2612"
    },
    {
      "channel": 2,
      "note": 58,
      "start": 39.4788,
      "duration": 0.016,
      "velocity": 100,
      "chip": "ym2612"
    },
    {
      "channel": 0,
      "note": 40,
      "start": 39.4901,
      "duration": 0.0161,
      "velocity": 115,
      "chip": "ym2612"
    },
    {
      "channel": 5,
      "note": 73,
      "start": 39.4912,
      "duration": 0.0162,
      "velocity": 100,
      "chip": "ym2612"
    },
    {
      "channel": 4,
      "note": 78,
      "start": 39.4924,
      "duration": 0.0161,
      "velocity": 100,
      "chip": "ym2612"
    },
    {
      "channel": 2,
      "note": 58,
      "start": 39.4948,
      "duration": 0.0161,
      "velocity": 100,
      "chip": "ym2612"
    },
    {
      "channel": 0,
      "note": 40,
      "start": 39.5061,
      "duration": 0.0161,
      "velocity": 115,
      "chip": "ym2612"
    },
    {
      "channel": 5,
      "note": 73,
      "start": 39.5074,
      "duration": 0.0161,
      "velocity": 100,
      "chip": "ym2612"
    },
    {
      "channel": 4,
      "note": 78,
      "start": 39.5085,
      "duration": 0.0162,
      "velocity": 100,
      "chip": "ym2612"
    },
    {
      "channel": 2,
      "note": 58,
      "start": 39.5109,
      "duration": 0.0161,
      "velocity": 100,
      "chip": "ym2612"
    },
    {
      "channel": 0,
      "note": 41,
      "start": 39.5222,
      "duration": 0.0161,
      "velocity": 115,
      "chip": "ym2612"
    },
    {
      "channel": 5,
      "note": 73,
      "start": 39.5235,
      "duration": 0.0161,
      "velocity": 100,
      "chip": "ym2612"
    },
    {
      "channel": 4,
      "note": 78,
      "start": 39.5247,
      "duration": 0.0161,
      "velocity": 100,
      "chip": "ym2612"
    },
    {
      "channel": 2,
      "note": 58,
      "start": 39.527,
      "duration": 0.0161,
      "velocity": 100,
      "chip": "ym2612"
    },
    {
      "channel": 0,
      "note": 41,
      "start": 39.5383,
      "duration": 0.0179,
      "velocity": 115,
      "chip": "ym2612"
    },
    {
      "channel": 5,
      "note": 73,
      "start": 39.5395,
      "duration": 0.0179,
      "velocity": 100,
      "chip": "ym2612"
    },
    {
      "channel": 4,
      "note": 78,
      "start": 39.5408,
      "duration": 0.0179,
      "velocity": 100,
      "chip": "ym2612"
    },
    {
      "channel": 2,
      "note": 58,
      "start": 39.5431,
      "duration": 0.0186,
      "velocity": 100,
      "chip": "ym2612"
    },
    {
      "channel": 0,
      "note": 36,
      "start": 39.5563,
      "duration": 0.0143,
      "velocity": 115,
      "chip": "ym2612"
    },
    {
      "channel": 5,
      "note": 73,
      "start": 39.5575,
      "duration": 0.0144,
      "velocity": 100,
      "chip": "ym2612"
    },
    {
      "channel": 4,
      "note": 78,
      "start": 39.5587,
      "duration": 0.0144,
      "velocity": 100,
      "chip": "ym2612"
    },
    {
      "channel": 3,
      "note": 73,
      "start": 39.5602,
      "duration": 0.0141,
      "velocity": 100,
      "chip": "ym2612"
    },
    {
      "channel": 2,
      "note": 70,
      "start": 39.5617,
      "duration": 0.0139,
      "velocity": 100,
      "chip": "ym2612"
    },
    {
      "channel": 1,
      "note": 78,
      "start": 39.5632,
      "duration": 0.0135,
      "velocity": 100,
      "chip": "ym2612"
    },
    {
      "channel": 0,
      "note": 36,
      "start": 39.5707,
      "duration": 0.016,
      "velocity": 115,
      "chip": "ym2612"
    },
    {
      "channel": 3,
      "note": 73,
      "start": 39.5744,
      "duration": 0.0159,
      "velocity": 100,
      "chip": "ym2612"
    },
    {
      "channel": 2,
      "note": 70,
      "start": 39.5756,
      "duration": 0.0159,
      "velocity": 100,
      "chip": "ym2612"
    },
    {
      "channel": 1,
      "note": 78,
      "start": 39.5768,
      "duration": 0.0159,
      "velocity": 100,
      "chip": "ym2612"
    },
    {
      "channel": 0,
      "note": 37,
      "start": 39.5867,
      "duration": 0.0165,
      "velocity": 115,
      "chip": "ym2612"
    },
    {
      "channel": 3,
      "note": 73,
      "start": 39.5902,
      "duration": 0.0165,
      "velocity": 100,
      "chip": "ym2612"
    },
    {
      "channel": 2,
      "note": 70,
      "start": 39.5914,
      "duration": 0.0165,
      "velocity": 100,
      "chip": "ym2612"
    },
    {
      "channel": 1,
      "note": 78,
      "start": 39.5926,
      "duration": 0.0165,
      "velocity": 100,
      "chip": "ym2612"
    },
    {
      "channel": 0,
      "note": 37,
      "start": 39.6032,
      "duration": 0.0163,
      "velocity": 115,
      "chip": "ym2612"
    },
    {
      "channel": 2,
      "note": 70,
      "start": 39.6079,
      "duration": 0.0163,
      "velocity": 100,
      "chip": "ym2612"
    },
    {
      "channel": 0,
      "note": 38,
      "start": 39.6195,
      "duration": 0.0161,
      "velocity": 115,
      "chip": "ym2612"
    },
    {
      "channel": 2,
      "note": 70,
      "start": 39.6241,
      "duration": 0.0161,
      "velocity": 100,
      "chip": "ym2612"
    },
    {
      "channel": 0,
      "note": 38,
      "start": 39.6356,
      "duration": 0.016,
      "velocity": 115,
      "chip": "ym2612"
    },
    {
      "channel": 2,
      "note": 70,
      "start": 39.6402,
      "duration": 0.0164,
      "velocity": 100,
      "chip": "ym2612"
    },
    {
      "channel": 0,
      "note": 39,
      "start": 39.6516,
      "duration": 0.0158,
      "velocity": 115,
      "chip": "ym2612"
    },
    {
      "channel": 3,
      "note": 78,
      "start": 39.6555,
      "duration": 0.0166,
      "velocity": 100,
      "chip": "ym2612"
    },
    {
      "channel": 2,
      "note": 70,
      "start": 39.6567,
      "duration": 0.0166,
      "velocity": 100,
      "chip": "ym2612"
    },
    {
      "channel": 1,
      "note": 82,
      "start": 39.6582,
      "duration": 0.0163,
      "velocity": 100,
      "chip": "ym2612"
    },
    {
      "channel": 0,
      "note": 39,
      "start": 39.6673,
      "duration": 0.0159,
      "velocity": 115,
      "chip": "ym2612"
    },
    {
      "channel": 5,
      "note": 78,
      "start": 39.6693,
      "duration": 0.0158,
      "velocity": 100,
      "chip": "ym2612"
    },
    {
      "channel": 4,
      "note": 82,
      "start": 39.6708,
      "duration": 0.0156,
      "velocity": 100,
      "chip": "ym2612"
    },
    {
      "channel": 3,
      "note": 78,
      "start": 39.6721,
      "duration": 0.0155,
      "velocity": 100,
      "chip": "ym2612"
    },
    {
      "channel": 2,
      "note": 70,
      "start": 39.6733,
      "duration": 0.0155,
      "velocity": 100,
      "chip": "ym2612"
    },
    {
      "channel": 1,
      "note": 82,
      "start": 39.6745,
      "duration": 0.0154,
      "velocity": 100,
      "chip": "ym2612"
    },
    {
      "channel": 0,
      "note": 40,
      "start": 39.6833,
      "duration": 0.0161,
      "velocity": 115,
      "chip": "ym2612"
    },
    {
      "channel": 5,
      "note": 78,
      "start": 39.685,
      "duration": 0.0157,
      "velocity": 100,
      "chip": "ym2612"
    },
    {
      "channel": 4,
      "note": 82,
      "start": 39.6864,
      "duration": 0.016,
      "velocity": 100,
      "chip": "ym2612"
    },
    {
      "channel": 3,
      "note": 78,
      "start": 39.6876,
      "duration": 0.016,
      "velocity": 100,
      "chip": "ym2612"
    },
    {
      "channel": 2,
      "note": 70,
      "start": 39.6888,
      "duration": 0.016,
      "velocity": 100,
      "chip": "ym2612"
    },
    {
      "channel": 1,
      "note": 82,
      "start": 39.6899,
      "duration": 0.016,
      "velocity": 100,
      "chip": "ym2612"
    },
    {
      "channel": 0,
      "note": 40,
      "start": 39.6993,
      "duration": 0.0161,
      "velocity": 115,
      "chip": "ym2612"
    },
    {
      "channel": 5,
      "note": 78,
      "start": 39.7007,
      "duration": 0.0159,
      "velocity": 100,
      "chip": "ym2612"
    },
    {
      "channel": 4,
      "note": 82,
      "start": 39.7023,
      "duration": 0.016,
      "velocity": 100,
      "chip": "ym2612"
    },
    {
      "channel": 3,
      "note": 78,
      "start": 39.7035,
      "duration": 0.0161,
      "velocity": 100,
      "chip": "ym2612"
    },
    {
      "channel": 2,
      "note": 70,
      "start": 39.7048,
      "duration": 0.016,
      "velocity": 100,
      "chip": "ym2612"
    },
    {
      "channel": 1,
      "note": 82,
      "start": 39.7059,
      "duration": 0.016,
      "velocity": 100,
      "chip": "ym2612"
    },
    {
      "channel": 0,
      "note": 40,
      "start": 39.7154,
      "duration": 0.0161,
      "velocity": 115,
      "chip": "ym2612"
    },
    {
      "channel": 5,
      "note": 78,
      "start": 39.7166,
      "duration": 0.0161,
      "velocity": 100,
      "chip": "ym2612"
    },
    {
      "channel": 4,
      "note": 82,
      "start": 39.7184,
      "duration": 0.0158,
      "velocity": 100,
      "chip": "ym2612"
    },
    {
      "channel": 3,
      "note": 78,
      "start": 39.7196,
      "duration": 0.0161,
      "velocity": 100,
      "chip": "ym2612"
    },
    {
      "channel": 2,
      "note": 70,
      "start": 39.7208,
      "duration": 0.0161,
      "velocity": 100,
      "chip": "ym2612"
    },
    {
      "channel": 1,
      "note": 82,
      "start": 39.7219,
      "duration": 0.0161,
      "velocity": 100,
      "chip": "ym2612"
    },
    {
      "channel": 0,
      "note": 41,
      "start": 39.7315,
      "duration": 0.0161,
      "velocity": 115,
      "chip": "ym2612"
    },
    {
      "channel": 5,
      "note": 78,
      "start": 39.7327,
      "duration": 0.0161,
      "velocity": 100,
      "chip": "ym2612"
    },
    {
      "channel": 4,
      "note": 82,
      "start": 39.7341,
      "duration": 0.0159,
      "velocity": 100,
      "chip": "ym2612"
    },
    {
      "channel": 3,
      "note": 78,
      "start": 39.7357,
      "duration": 0.016,
      "velocity": 100,
      "chip": "ym2612"
    },
    {
      "channel": 2,
      "note": 70,
      "start": 39.7369,
      "duration": 0.0161,
      "velocity": 100,
      "chip": "ym2612"
    },
    {
      "channel": 1,
      "note": 82,
      "start": 39.738,
      "duration": 0.0161,
      "velocity": 100,
      "chip": "ym2612"
    },
    {
      "channel": 0,
      "note": 41,
      "start": 39.7477,
      "duration": 0.0179,
      "velocity": 124,
      "chip": "ym2612"
    },
    {
      "channel": 5,
      "note": 78,
      "start": 39.7488,
      "duration": 0.0179,
      "velocity": 100,
      "chip": "ym2612"
    },
    {
      "channel": 4,
      "note": 82,
      "start": 39.75,
      "duration": 0.0185,
      "velocity": 100,
      "chip": "ym2612"
    },
    {
      "channel": 3,
      "note": 78,
      "start": 39.7518,
      "duration": 0.018,
      "velocity": 100,
      "chip": "ym2612"
    },
    {
      "channel": 2,
      "note": 70,
      "start": 39.753,
      "duration": 0.0183,
      "velocity": 100,
      "chip": "ym2612"
    },
    {
      "channel": 1,
      "note": 82,
      "start": 39.7541,
      "duration": 0.0183,
      "velocity": 100,
      "chip": "ym2612"
    },
    {
      "channel": 0,
      "note": 84,
      "start": 39.7656,
      "duration": 0.0143,
      "velocity": 124,
      "chip": "ym2612"
    },
    {
      "channel": 5,
      "note": 78,
      "start": 39.7668,
      "duration": 0.0144,
      "velocity": 100,
      "chip": "ym2612"
    },
    {
      "channel": 4,
      "note": 82,
      "start": 39.7685,
      "duration": 0.0138,
      "velocity": 100,
      "chip": "ym2612"
    },
    {
      "channel": 2,
      "note": 54,
      "start": 39.7712,
      "duration": 0.0141,
      "velocity": 100,
      "chip": "ym2612"
    },
    {
      "channel": 0,
      "note": 82,
      "start": 39.78,
      "duration": 0.016,
      "velocity": 124,
      "chip": "ym2612"
    },
    {
      "channel": 2,
      "note": 54,
      "start": 39.7854,
      "duration": 0.0155,
      "velocity": 100,
      "chip": "ym2612"
    },
    {
      "channel": 0,
      "note": 80,
      "start": 39.796,
      "duration": 0.0161,
      "velocity": 124,
      "chip": "ym2612"
    },
    {
      "channel": 2,
      "note": 54,
      "start": 39.8009,
      "duration": 0.0159,
      "velocity": 100,
      "chip": "ym2612"
    },
    {
      "channel": 0,
      "note": 77,
      "start": 39.8121,
      "duration": 0.0161,
      "velocity": 124,
      "chip": "ym2612"
    },
    {
      "channel": 2,
      "note": 54,
      "start": 39.8168,
      "duration": 0.0161,
      "velocity": 100,
      "chip": "ym2612"
    },
    {
      "channel": 0,
      "note": 75,
      "start": 39.8282,
      "duration": 0.0161,
      "velocity": 124,
      "chip": "ym2612"
    },
    {
      "channel": 2,
      "note": 54,
      "start": 39.8329,
      "duration": 0.0161,
      "velocity": 100,
      "chip": "ym2612"
    },
    {
      "channel": 0,
      "note": 72,
      "start": 39.8443,
      "duration": 0.0179,
      "velocity": 124,
      "chip": "ym2612"
    },
    {
      "channel": 2,
      "note": 54,
      "start": 39.849,
      "duration": 0.0185,
      "velocity": 100,
      "chip": "ym2612"
    },
    {
      "channel": 0,
      "note": 84,
      "start": 39.8623,
      "duration": 0.0142,
      "velocity": 124,
      "chip": "ym2612"
    },
    {
      "channel": 3,
      "note": 80,
      "start": 39.8661,
      "duration": 0.0147,
      "velocity": 100,
      "chip": "ym2612"
    },
    {
      "channel": 2,
      "note": 54,
      "start": 39.8675,
      "duration": 0.0145,
      "velocity": 100,
      "chip": "ym2612"
    },
    {
      "channel": 1,
      "note": 83,
      "start": 39.8694,
      "duration": 0.0139,
      "velocity": 100,
      "chip": "ym2612"
    },
    {
      "channel": 0,
      "note": 82,
      "start": 39.8765,
      "duration": 0.0161,
      "velocity": 124,
      "chip": "ym2612"
    },
    {
      "channel": 5,
      "note": 73,
      "start": 39.878,
      "duration": 0.0158,
      "velocity": 100,
      "chip": "ym2612"
    },
    {
      "channel": 4,
      "note": 78,
      "start": 39.8796,
      "duration": 0.0155,
      "velocity": 100,
      "chip": "ym2612"
    },
    {
      "channel": 3,
      "note": 80,
      "start": 39.8808,
      "duration": 0.0154,
      "velocity": 100,
      "chip": "ym2612"
    },
    {
      "channel": 2,
      "note": 54,
      "start": 39.882,
      "duration": 0.0154,
      "velocity": 100,
      "chip": "ym2612"
    },
    {
      "channel": 1,
      "note": 83,
      "start": 39.8833,
      "duration": 0.0153,
      "velocity": 100,
      "chip": "ym2612"
    },
    {
      "channel": 0,
      "note": 80,
      "start": 39.8926,
      "duration": 0.0161,
      "velocity": 124,
      "chip": "ym2612"
    },
    {
      "channel": 5,
      "note": 73,
      "start": 39.8938,
      "duration": 0.016,
      "velocity": 100,
      "chip": "ym2612"
    },
    {
      "channel": 4,
      "note": 78,
      "start": 39.8951,
      "duration": 0.016,
      "velocity": 100,
      "chip": "ym2612"
    },
    {
      "channel": 3,
      "note": 80,
      "start": 39.8962,
      "duration": 0.016,
      "velocity": 100,
      "chip": "ym2612"
    },
    {
      "channel": 2,
      "note": 54,
      "start": 39.8974,
      "duration": 0.016,
      "velocity": 100,
      "chip": "ym2612"
    },
    {
      "channel": 1,
      "note": 83,
      "start": 39.8986,
      "duration": 0.016,
      "velocity": 100,
      "chip": "ym2612"
    },
    {
      "channel": 0,
      "note": 77,
      "start": 39.9087,
      "duration": 0.0161,
      "velocity": 124,
      "chip": "ym2612"
    },
    {
      "channel": 5,
      "note": 73,
      "start": 39.9098,
      "duration": 0.0162,
      "velocity": 100,
      "chip": "ym2612"
    },
    {
      "channel": 4,
      "note": 78,
      "start": 39.911,
      "duration": 0.0162,
      "velocity": 100,
      "chip": "ym2612"
    },
    {
      "channel": 3,
      "note": 80,
      "start": 39.9123,
      "duration": 0.0161,
      "velocity": 100,
      "chip": "ym2612"
    },
    {
      "channel": 2,
      "note": 54,
      "start": 39.9134,
      "duration": 0.0162,
      "velocity": 100,
      "chip": "ym2612"
    },
    {
      "channel": 1,
      "note": 83,
      "start": 39.9146,
      "duration": 0.0161,
      "velocity": 100,
      "chip": "ym2612"
    },
    {
      "channel": 0,
      "note": 75,
      "start": 39.9248,
      "duration": 0.0161,
      "velocity": 124,
      "chip": "ym2612"
    },
    {
      "channel": 2,
      "note": 54,
      "start": 39.9296,
      "duration": 0.016,
      "velocity": 100,
      "chip": "ym2612"
    },
    {
      "channel": 0,
      "note": 72,
      "start": 39.9409,
      "duration": 0.0161,
      "velocity": 124,
      "chip": "ym2612"
    },
    {
      "channel": 2,
      "note": 54,
      "start": 39.9456,
      "duration": 0.0161,
      "velocity": 100,
      "chip": "ym2612"
    },
    {
      "channel": 0,
      "note": 70,
      "start": 39.957,
      "duration": 0.0179,
      "velocity": 115,
      "chip": "ym2612"
    },
    {
      "channel": 2,
      "note": 54,
      "start": 39.9617,
      "duration": 0.0193,
      "velocity": 100,
      "chip": "ym2612"
    },
    {
      "channel": 0,
      "note": 36,
      "start": 39.9749,
      "duration": 0.0143,
      "velocity": 115,
      "chip": "ym2612"
    },
    {
      "channel": 5,
      "note": 78,
      "start": 39.9764,
      "duration": 0.0141,
      "velocity": 100,
      "chip": "ym2612"
    },
    {
      "channel": 4,
      "note": 82,
      "start": 39.978,
      "duration": 0.0138,
      "velocity": 100,
      "chip": "ym2612"
    },
    {
      "channel": 3,
      "note": 82,
      "start": 39.9795,
      "duration": 0.0135,
      "velocity": 100,
      "chip": "ym2612"
    },
    {
      "channel": 2,
      "note": 66,
      "start": 39.981,
      "duration": 0.0132,
      "velocity": 100,
      "chip": "ym2612"
    },
    {
      "channel": 1,
      "note": 85,
      "start": 39.9825,
      "duration": 0.013,
      "velocity": 100,
      "chip": "ym2612"
    },
    {
      "channel": 0,
      "note": 36,
      "start": 39.9892,
      "duration": 0.016,
      "velocity": 115,
      "chip": "ym2612"
    },
    {
      "channel": 5,
      "note": 78,
      "start": 39.9905,
      "duration": 0.016,
      "velocity": 100,
      "chip": "ym2612"
    },
    {
      "channel": 4,
      "note": 82,
      "start": 39.9918,
      "duration": 0.0159,
      "velocity": 100,
      "chip": "ym2612"
    },
    {
      "channel": 3,
      "note": 82,
      "start": 39.993,
      "duration": 0.0158,
      "velocity": 100,
      "chip": "ym2612"
    },
    {
      "channel": 2,
      "note": 66,
      "start": 39.9942,
      "duration": 0.0158,
      "velocity": 100,
      "chip": "ym2612"
    },
    {
      "channel": 1,
      "note": 85,
      "start": 39.9955,
      "duration": 0.0157,
      "velocity": 100,
      "chip": "ym2612"
    },
    {
      "channel": 0,
      "note": 37,
      "start": 40.0053,
      "duration": 0.0161,
      "velocity": 115,
      "chip": "ym2612"
    },
    {
      "channel": 5,
      "note": 78,
      "start": 40.0065,
      "duration": 0.0161,
      "velocity": 100,
      "chip": "ym2612"
    },
    {
      "channel": 4,
      "note": 82,
      "start": 40.0077,
      "duration": 0.0161,
      "velocity": 100,
      "chip": "ym2612"
    },
    {
      "channel": 3,
      "note": 82,
      "start": 40.0088,
      "duration": 0.0161,
      "velocity": 100,
      "chip": "ym2612"
    },
    {
      "channel": 2,
      "note": 66,
      "start": 40.01,
      "duration": 0.0161,
      "velocity": 100,
      "chip": "ym2612"
    },
    {
      "channel": 1,
      "note": 85,
      "start": 40.0112,
      "duration": 0.0161,
      "velocity": 100,
      "chip": "ym2612"
    },
    {
      "channel": 0,
      "note": 37,
      "start": 40.0214,
      "duration": 0.0161,
      "velocity": 115,
      "chip": "ym2612"
    },
    {
      "channel": 5,
      "note": 78,
      "start": 40.0226,
      "duration": 0.0161,
      "velocity": 100,
      "chip": "ym2612"
    },
    {
      "channel": 4,
      "note": 82,
      "start": 40.0238,
      "duration": 0.0161,
      "velocity": 100,
      "chip": "ym2612"
    },
    {
      "channel": 3,
      "note": 82,
      "start": 40.0249,
      "duration": 0.0161,
      "velocity": 100,
      "chip": "ym2612"
    },
    {
      "channel": 2,
      "note": 66,
      "start": 40.0261,
      "duration": 0.0161,
      "velocity": 100,
      "chip": "ym2612"
    },
    {
      "channel": 1,
      "note": 85,
      "start": 40.0273,
      "duration": 0.0161,
      "velocity": 100,
      "chip": "ym2612"
    },
    {
      "channel": 0,
      "note": 38,
      "start": 40.0375,
      "duration": 0.0162,
      "velocity": 115,
      "chip": "ym2612"
    },
    {
      "channel": 5,
      "note": 78,
      "start": 40.0387,
      "duration": 0.0162,
      "velocity": 100,
      "chip": "ym2612"
    },
    {
      "channel": 4,
      "note": 82,
      "start": 40.0399,
      "duration": 0.0162,
      "velocity": 100,
      "chip": "ym2612"
    },
    {
      "channel": 3,
      "note": 82,
      "start": 40.041,
      "duration": 0.0161,
      "velocity": 100,
      "chip": "ym2612"
    },
    {
      "channel": 2,
      "note": 66,
      "start": 40.0422,
      "duration": 0.0162,
      "velocity": 100,
      "chip": "ym2612"
    },
    {
      "channel": 1,
      "note": 85,
      "start": 40.0434,
      "duration": 0.0161,
      "velocity": 100,
      "chip": "ym2612"
    },
    {
      "channel": 0,
      "note": 38,
      "start": 40.0537,
      "duration": 0.0164,
      "velocity": 115,
      "chip": "ym2612"
    },
    {
      "channel": 5,
      "note": 78,
      "start": 40.0548,
      "duration": 0.0164,
      "velocity": 100,
      "chip": "ym2612"
    },
    {
      "channel": 4,
      "note": 82,
      "start": 40.056,
      "duration": 0.0164,
      "velocity": 100,
      "chip": "ym2612"
    },
    {
      "channel": 3,
      "note": 82,
      "start": 40.0572,
      "duration": 0.0164,
      "velocity": 100,
      "chip": "ym2612"
    },
    {
      "channel": 2,
      "note": 66,
      "start": 40.0583,
      "duration": 0.0164,
      "velocity": 100,
      "chip": "ym2612"
    },
    {
      "channel": 1,
      "note": 85,
      "start": 40.0595,
      "duration": 0.0164,
      "velocity": 100,
      "chip": "ym2612"
    },
    {
      "channel": 0,
      "note": 39,
      "start": 40.0701,
      "duration": 0.0163,
      "velocity": 115,
      "chip": "ym2612"
    },
    {
      "channel": 5,
      "note": 78,
      "start": 40.0712,
      "duration": 0.0163,
      "velocity": 100,
      "chip": "ym2612"
    },
    {
      "channel": 4,
      "note": 82,
      "start": 40.0724,
      "duration": 0.0163,
      "velocity": 100,
      "chip": "ym2612"
    },
    {
      "channel": 3,
      "note": 82,
      "start": 40.0736,
      "duration": 0.0163,
      "velocity": 100,
      "chip": "ym2612"
    },
    {
      "channel": 2,
      "note": 66,
      "start": 40.0747,
      "duration": 0.0165,
      "velocity": 100,
      "chip": "ym2612"
    },
    {
      "channel": 1,
      "note": 85,
      "start": 40.0759,
      "duration": 0.0164,
      "velocity": 100,
      "chip": "ym2612"
    },
    {
      "channel": 0,
      "note": 39,
      "start": 40.0864,
      "duration": 0.0161,
      "velocity": 115,
      "chip": "ym2612"
    },
    {
      "channel": 2,
      "note": 66,
      "start": 40.0912,
      "duration": 0.016,
      "velocity": 100,
      "chip": "ym2612"
    },
    {
      "channel": 0,
      "note": 40,
      "start": 40.1025,
      "duration": 0.0161,
      "velocity": 115,
      "chip": "ym2612"
    },
    {
      "channel": 2,
      "note": 66,
      "start": 40.1072,
      "duration": 0.0161,
      "velocity": 100,
      "chip": "ym2612"
    },
    {
      "channel": 0,
      "note": 40,
      "start": 40.1185,
      "duration": 0.0157,
      "velocity": 115,
      "chip": "ym2612"
    },
    {
      "channel": 2,
      "note": 66,
      "start": 40.1233,
      "duration": 0.016,
      "velocity": 100,
      "chip": "ym2612"
    },
    {
      "channel": 0,
      "note": 40,
      "start": 40.1343,
      "duration": 0.0159,
      "velocity": 115,
      "chip": "ym2612"
    },
    {
      "channel": 2,
      "note": 66,
      "start": 40.1394,
      "duration": 0.0161,
      "velocity": 100,
      "chip": "ym2612"
    },
    {
      "channel": 0,
      "note": 41,
      "start": 40.1502,
      "duration": 0.0161,
      "velocity": 115,
      "chip": "ym2612"
    },
    {
      "channel": 2,
      "note": 66,
      "start": 40.1555,
      "duration": 0.0161,
      "velocity": 100,
      "chip": "ym2612"
    },
    {
      "channel": 0,
      "note": 41,
      "start": 40.1663,
      "duration": 0.0184,
      "velocity": 115,
      "chip": "ym2612"
    },
    {
      "channel": 2,
      "note": 66,
      "start": 40.1716,
      "duration": 0.019,
      "velocity": 100,
      "chip": "ym2612"
    },
    {
      "channel": 0,
      "note": 36,
      "start": 40.1848,
      "duration": 0.0138,
      "velocity": 115,
      "chip": "ym2612"
    },
    {
      "channel": 5,
      "note": 80,
      "start": 40.1864,
      "duration": 0.0134,
      "velocity": 100,
      "chip": "ym2612"
    },
    {
      "channel": 4,
      "note": 83,
      "start": 40.1879,
      "duration": 0.0137,
      "velocity": 100,
      "chip": "ym2612"
    },
    {
      "channel": 2,
      "note": 59,
      "start": 40.1907,
      "duration": 0.0134,
      "velocity": 100,
      "chip": "ym2612"
    },
    {
      "channel": 0,
      "note": 36,
      "start": 40.1986,
      "duration": 0.016,
      "velocity": 115,
      "chip": "ym2612"
    },
    {
      "channel": 5,
      "note": 80,
      "start": 40.1998,
      "duration": 0.016,
      "velocity": 100,
      "chip": "ym2612"
    },
    {
      "channel": 4,
      "note": 83,
      "start": 40.2016,
      "duration": 0.0154,
      "velocity": 100,
      "chip": "ym2612"
    },
    {
      "channel": 2,
      "note": 59,
      "start": 40.2041,
      "duration": 0.0158,
      "velocity": 100,
      "chip": "ym2612"
    },
    {
      "channel": 0,
      "note": 37,
      "start": 40.2146,
      "duration": 0.0161,
      "velocity": 115,
      "chip": "ym2612"
    },
    {
      "channel": 5,
      "note": 80,
      "start": 40.2158,
      "duration": 0.0162,
      "velocity": 100,
      "chip": "ym2612"
    },
    {
      "channel": 4,
      "note": 83,
      "start": 40.217,
      "duration": 0.0161,
      "velocity": 100,
      "chip": "ym2612"
    },
    {
      "channel": 2,
      "note": 59,
      "start": 40.2199,
      "duration": 0.0162,
      "velocity": 100,
      "chip": "ym2612"
    },
    {
      "channel": 0,
      "note": 37,
      "start": 40.2307,
      "duration": 0.0161,
      "velocity": 115,
      "chip": "ym2612"
    },
    {
      "channel": 5,
      "note": 80,
      "start": 40.2319,
      "duration": 0.0161,
      "velocity": 100,
      "chip": "ym2612"
    },
    {
      "channel": 4,
      "note": 83,
      "start": 40.2331,
      "duration": 0.0161,
      "velocity": 100,
      "chip": "ym2612"
    },
    {
      "channel": 2,
      "note": 59,
      "start": 40.2361,
      "duration": 0.0161,
      "velocity": 100,
      "chip": "ym2612"
    },
    {
      "channel": 0,
      "note": 38,
      "start": 40.2468,
      "duration": 0.0161,
      "velocity": 115,
      "chip": "ym2612"
    },
    {
      "channel": 2,
      "note": 59,
      "start": 40.2522,
      "duration": 0.016,
      "velocity": 100,
      "chip": "ym2612"
    },
    {
      "channel": 0,
      "note": 38,
      "start": 40.2629,
      "duration": 0.0161,
      "velocity": 115,
      "chip": "ym2612"
    },
    {
      "channel": 2,
      "note": 59,
      "start": 40.2681,
      "duration": 0.0158,
      "velocity": 100,
      "chip": "ym2612"
    },
    {
      "channel": 0,
      "note": 39,
      "start": 40.279,
      "duration": 0.0161,
      "velocity": 115,
      "chip": "ym2612"
    },
    {
      "channel": 2,
      "note": 59,
      "start": 40.2839,
      "duration": 0.0168,
      "velocity": 100,
      "chip": "ym2612"
    },
    {
      "channel": 0,
      "note": 39,
      "start": 40.2951,
      "duration": 0.0161,
      "velocity": 115,
      "chip": "ym2612"
    },
    {
      "channel": 5,
      "note": 82,
      "start": 40.2966,
      "duration": 0.0158,
      "velocity": 100,
      "chip": "ym2612"
    },
    {
      "channel": 4,
      "note": 85,
      "start": 40.2981,
      "duration": 0.0156,
      "velocity": 100,
      "chip": "ym2612"
    },
    {
      "channel": 2,
      "note": 59,
      "start": 40.3007,
      "duration": 0.0153,
      "velocity": 100,
      "chip": "ym2612"
    },
    {
      "channel": 0,
      "note": 40,
      "start": 40.3112,
      "duration": 0.0161,
      "velocity": 115,
      "chip": "ym2612"
    },
    {
      "channel": 5,
      "note": 82,
      "start": 40.3124,
      "duration": 0.016,
      "velocity": 100,
      "chip": "ym2612"
    },
    {
      "channel": 4,
      "note": 85,
      "start": 40.3137,
      "duration": 0.016,
      "velocity": 100,
      "chip": "ym2612"
    },
    {
      "channel": 2,
      "note": 59,
      "start": 40.3161,
      "duration": 0.016,
      "velocity": 100,
      "chip": "ym2612"
    },
    {
      "channel": 0,
      "note": 40,
      "start": 40.3273,
      "duration": 0.0161,
      "velocity": 115,
      "chip": "ym2612"
    },
    {
      "channel": 5,
      "note": 82,
      "start": 40.3285,
      "duration": 0.0161,
      "velocity": 100,
      "chip": "ym2612"
    },
    {
      "channel": 4,
      "note": 85,
      "start": 40.3297,
      "duration": 0.0161,
      "velocity": 100,
      "chip": "ym2612"
    },
    {
      "channel": 2,
      "note": 59,
      "start": 40.332,
      "duration": 0.0161,
      "velocity": 100,
      "chip": "ym2612"
    },
    {
      "channel": 0,
      "note": 40,
      "start": 40.3434,
      "duration": 0.0161,
      "velocity": 115,
      "chip": "ym2612"
    },
    {
      "channel": 5,
      "note": 82,
      "start": 40.3446,
      "duration": 0.0161,
      "velocity": 100,
      "chip": "ym2612"
    },
    {
      "channel": 4,
      "note": 85,
      "start": 40.3458,
      "duration": 0.0161,
      "velocity": 100,
      "chip": "ym2612"
    },
    {
      "channel": 2,
      "note": 59,
      "start": 40.3481,
      "duration": 0.0161,
      "velocity": 100,
      "chip": "ym2612"
    },
    {
      "channel": 0,
      "note": 41,
      "start": 40.3595,
      "duration": 0.0161,
      "velocity": 115,
      "chip": "ym2612"
    },
    {
      "channel": 5,
      "note": 82,
      "start": 40.3607,
      "duration": 0.0161,
      "velocity": 100,
      "chip": "ym2612"
    },
    {
      "channel": 4,
      "note": 85,
      "start": 40.3619,
      "duration": 0.0161,
      "velocity": 100,
      "chip": "ym2612"
    },
    {
      "channel": 2,
      "note": 59,
      "start": 40.3642,
      "duration": 0.0161,
      "velocity": 100,
      "chip": "ym2612"
    },
    {
      "channel": 0,
      "note": 41,
      "start": 40.3756,
      "duration": 0.0179,
      "velocity": 124,
      "chip": "ym2612"
    },
    {
      "channel": 5,
      "note": 82,
      "start": 40.3768,
      "duration": 0.018,
      "velocity": 100,
      "chip": "ym2612"
    },
    {
      "channel": 4,
      "note": 85,
      "start": 40.378,
      "duration": 0.0179,
      "velocity": 100,
      "chip": "ym2612"
    },
    {
      "channel": 2,
      "note": 59,
      "start": 40.3803,
      "duration": 0.0185,
      "velocity": 100,
      "chip": "ym2612"
    },
    {
      "channel": 0,
      "note": 84,
      "start": 40.3936,
      "duration": 0.0143,
      "velocity": 124,
      "chip": "ym2612"
    },
    {
      "channel": 5,
      "note": 82,
      "start": 40.3948,
      "duration": 0.0143,
      "velocity": 100,
      "chip": "ym2612"
    },
    {
      "channel": 4,
      "note": 85,
      "start": 40.3959,
      "duration": 0.0143,
      "velocity": 100,
      "chip": "ym2612"
    },
    {
      "channel": 3,
      "note": 78,
      "start": 40.3974,
      "duration": 0.0141,
      "velocity": 100,
      "chip": "ym2612"
    },
    {
      "channel": 2,
      "note": 71,
      "start": 40.3989,
      "duration": 0.0138,
      "velocity": 100,
      "chip": "ym2612"
    },
    {
      "channel": 1,
      "note": 83,
      "start": 40.4006,
      "duration": 0.0134,
      "velocity": 100,
      "chip": "ym2612"
    },
    {
      "channel": 0,
      "note": 82,
      "start": 40.4079,
      "duration": 0.016,
      "velocity": 124,
      "chip": "ym2612"
    },
    {
      "channel": 3,
      "note": 78,
      "start": 40.4115,
      "duration": 0.016,
      "velocity": 100,
      "chip": "ym2612"
    },
    {
      "channel": 2,
      "note": 71,
      "start": 40.4127,
      "duration": 0.0159,
      "velocity": 100,
      "chip": "ym2612"
    },
    {
      "channel": 1,
      "note": 83,
      "start": 40.414,
      "duration": 0.0158,
      "velocity": 100,
      "chip": "ym2612"
    },
    {
      "channel": 0,
      "note": 80,
      "start": 40.4239,
      "duration": 0.0161,
      "velocity": 124,
      "chip": "ym2612"
    },
    {
      "channel": 3,
      "note": 78,
      "start": 40.4275,
      "duration": 0.0161,
      "velocity": 100,
      "chip": "ym2612"
    },
    {
      "channel": 2,
      "note": 71,
      "start": 40.4286,
      "duration": 0.0161,
      "velocity": 100,
      "chip": "ym2612"
    },
    {
      "channel": 1,
      "note": 83,
      "start": 40.4298,
      "duration": 0.0161,
      "velocity": 100,
      "chip": "ym2612"
    },
    {
      "channel": 0,
      "note": 77,
      "start": 40.44,
      "duration": 0.0161,
      "velocity": 124,
      "chip": "ym2612"
    },
    {
      "channel": 3,
      "note": 78,
      "start": 40.4436,
      "duration": 0.0161,
      "velocity": 100,
      "chip": "ym2612"
    },
    {
      "channel": 2,
      "note": 71,
      "start": 40.4447,
      "duration": 0.0161,
      "velocity": 100,
      "chip": "ym2612"
    },
    {
      "channel": 1,
      "note": 83,
      "start": 40.4459,
      "duration": 0.0161,
      "velocity": 100,
      "chip": "ym2612"
    },
    {
      "channel": 0,
      "note": 75,
      "start": 40.4561,
      "duration": 0.0161,
      "velocity": 124,
      "chip": "ym2612"
    },
    {
      "channel": 3,
      "note": 78,
      "start": 40.4597,
      "duration": 0.0161,
      "velocity": 100,
      "chip": "ym2612"
    },
    {
      "channel": 2,
      "note": 71,
      "start": 40.4608,
      "duration": 0.0161,
      "velocity": 100,
      "chip": "ym2612"
    },
    {
      "channel": 1,
      "note": 83,
      "start": 40.462,
      "duration": 0.0161,
      "velocity": 100,
      "chip": "ym2612"
    },
    {
      "channel": 0,
      "note": 72,
      "start": 40.4722,
      "duration": 0.0161,
      "velocity": 124,
      "chip": "ym2612"
    },
    {
      "channel": 3,
      "note": 78,
      "start": 40.4757,
      "duration": 0.0161,
      "velocity": 100,
      "chip": "ym2612"
    },
    {
      "channel": 2,
      "note": 71,
      "start": 40.4769,
      "duration": 0.0161,
      "velocity": 100,
      "chip": "ym2612"
    },
    {
      "channel": 1,
      "note": 83,
      "start": 40.4781,
      "duration": 0.0161,
      "velocity": 100,
      "chip": "ym2612"
    },
    {
      "channel": 0,
      "note": 70,
      "start": 40.4883,
      "duration": 0.0161,
      "velocity": 124,
      "chip": "ym2612"
    },
    {
      "channel": 3,
      "note": 78,
      "start": 40.4918,
      "duration": 0.0163,
      "velocity": 100,
      "chip": "ym2612"
    },
    {
      "channel": 2,
      "note": 71,
      "start": 40.493,
      "duration": 0.0164,
      "velocity": 100,
      "chip": "ym2612"
    },
    {
      "channel": 1,
      "note": 83,
      "start": 40.4942,
      "duration": 0.0164,
      "velocity": 100,
      "chip": "ym2612"
    },
    {
      "channel": 0,
      "note": 68,
      "start": 40.5044,
      "duration": 0.0161,
      "velocity": 124,
      "chip": "ym2612"
    },
    {
      "channel": 2,
      "note": 71,
      "start": 40.5094,
      "duration": 0.0159,
      "velocity": 100,
      "chip": "ym2612"
    },
    {
      "channel": 0,
      "note": 65,
      "start": 40.5205,
      "duration": 0.0162,
      "velocity": 124,
      "chip": "ym2612"
    },
    {
      "channel": 2,
      "note": 71,
      "start": 40.5253,
      "duration": 0.0161,
      "velocity": 100,
      "chip": "ym2612"
    },
    {
      "channel": 0,
      "note": 63,
      "start": 40.5367,
      "duration": 0.0156,
      "velocity": 1,
      "chip": "ym2612"
    },
    {
      "channel": 2,
      "note": 71,
      "start": 40.5415,
      "duration": 0.0155,
      "velocity": 100,
      "chip": "ym2612"
    },
    {
      "channel": 2,
      "note": 71,
      "start": 40.557,
      "duration": 0.0155,
      "velocity": 100,
      "chip": "ym2612"
    },
    {
      "channel": 2,
      "note": 71,
      "start": 40.5724,
      "duration": 0.0161,
      "velocity": 100,
      "chip": "ym2612"
    },
    {
      "channel": 2,
      "note": 71,
      "start": 40.5885,
      "duration": 0.0203,
      "velocity": 100,
      "chip": "ym2612"
    },
    {
      "channel": 0,
      "note": 36,
      "start": 40.6035,
      "duration": 0.0139,
      "velocity": 115,
      "chip": "ym2612"
    },
    {
      "channel": 3,
      "note": 78,
      "start": 40.6074,
      "duration": 0.0141,
      "velocity": 100,
      "chip": "ym2612"
    },
    {
      "channel": 2,
      "note": 59,
      "start": 40.6088,
      "duration": 0.0139,
      "velocity": 100,
      "chip": "ym2612"
    },
    {
      "channel": 1,
      "note": 83,
      "start": 40.6103,
      "duration": 0.0136,
      "velocity": 100,
      "chip": "ym2612"
    },
    {
      "channel": 0,
      "note": 36,
      "start": 40.6174,
      "duration": 0.0159,
      "velocity": 115,
      "chip": "ym2612"
    },
    {
      "channel": 3,
      "note": 78,
      "start": 40.6215,
      "duration": 0.016,
      "velocity": 100,
      "chip": "ym2612"
    },
    {
      "channel": 2,
      "note": 59,
      "start": 40.6227,
      "duration": 0.0159,
      "velocity": 100,
      "chip": "ym2612"
    },
    {
      "channel": 1,
      "note": 83,
      "start": 40.6239,
      "duration": 0.0159,
      "velocity": 100,
      "chip": "ym2612"
    },
    {
      "channel": 0,
      "note": 37,
      "start": 40.6333,
      "duration": 0.0161,
      "velocity": 115,
      "chip": "ym2612"
    },
    {
      "channel": 3,
      "note": 78,
      "start": 40.6375,
      "duration": 0.016,
      "velocity": 100,
      "chip": "ym2612"
    },
    {
      "channel": 2,
      "note": 59,
      "start": 40.6386,
      "duration": 0.016,
      "velocity": 100,
      "chip": "ym2612"
    },
    {
      "channel": 1,
      "note": 83,
      "start": 40.6398,
      "duration": 0.0161,
      "velocity": 100,
      "chip": "ym2612"
    },
    {
      "channel": 0,
      "note": 37,
      "start": 40.6493,
      "duration": 0.0161,
      "velocity": 115,
      "chip": "ym2612"
    },
    {
      "channel": 3,
      "note": 78,
      "start": 40.6535,
      "duration": 0.0161,
      "velocity": 100,
      "chip": "ym2612"
    },
    {
      "channel": 2,
      "note": 59,
      "start": 40.6546,
      "duration": 0.0162,
      "velocity": 100,
      "chip": "ym2612"
    },
    {
      "channel": 1,
      "note": 83,
      "start": 40.6558,
      "duration": 0.0161,
      "velocity": 100,
      "chip": "ym2612"
    },
    {
      "channel": 0,
      "note": 38,
      "start": 40.6654,
      "duration": 0.0161,
      "velocity": 115,
      "chip": "ym2612"
    },
    {
      "channel": 3,
      "note": 78,
      "start": 40.6696,
      "duration": 0.0161,
      "velocity": 100,
      "chip": "ym2612"
    },
    {
      "channel": 2,
      "note": 59,
      "start": 40.6708,
      "duration": 0.0161,
      "velocity": 100,
      "chip": "ym2612"
    },
    {
      "channel": 1,
      "note": 83,
      "start": 40.6719,
      "duration": 0.0161,
      "velocity": 100,
      "chip": "ym2612"
    },
    {
      "channel": 0,
      "note": 38,
      "start": 40.6815,
      "duration": 0.0161,
      "velocity": 115,
      "chip": "ym2612"
    },
    {
      "channel": 3,
      "note": 78,
      "start": 40.6857,
      "duration": 0.0161,
      "velocity": 100,
      "chip": "ym2612"
    },
    {
      "channel": 2,
      "note": 59,
      "start": 40.6869,
      "duration": 0.0161,
      "velocity": 100,
      "chip": "ym2612"
    },
    {
      "channel": 1,
      "note": 83,
      "start": 40.688,
      "duration": 0.0161,
      "velocity": 100,
      "chip": "ym2612"
    },
    {
      "channel": 0,
      "note": 39,
      "start": 40.6976,
      "duration": 0.0161,
      "velocity": 115,
      "chip": "ym2612"
    },
    {
      "channel": 3,
      "note": 78,
      "start": 40.7018,
      "duration": 0.0167,
      "velocity": 100,
      "chip": "ym2612"
    },
    {
      "channel": 2,
      "note": 59,
      "start": 40.703,
      "duration": 0.0167,
      "velocity": 100,
      "chip": "ym2612"
    },
    {
      "channel": 1,
      "note": 83,
      "start": 40.7041,
      "duration": 0.0167,
      "velocity": 100,
      "chip": "ym2612"
    },
    {
      "channel": 0,
      "note": 39,
      "start": 40.7137,
      "duration": 0.0161,
      "velocity": 115,
      "chip": "ym2612"
    },
    {
      "channel": 5,
      "note": 78,
      "start": 40.7152,
      "duration": 0.0159,
      "velocity": 100,
      "chip": "ym2612"
    },
    {
      "channel": 4,
      "note": 83,
      "start": 40.7167,
      "duration": 0.0156,
      "velocity": 100,
      "chip": "ym2612"
    },
    {
      "channel": 2,
      "note": 59,
      "start": 40.7197,
      "duration": 0.0155,
      "velocity": 100,
      "chip": "ym2612"
    },
    {
      "channel": 0,
      "note": 40,
      "start": 40.7298,
      "duration": 0.0161,
      "velocity": 115,
      "chip": "ym2612"
    },
    {
      "channel": 5,
      "note": 78,
      "start": 40.7311,
      "duration": 0.016,
      "velocity": 100,
      "chip": "ym2612"
    },
    {
      "channel": 4,
      "note": 83,
      "start": 40.7324,
      "duration": 0.016,
      "velocity": 100,
      "chip": "ym2612"
    },
    {
      "channel": 2,
      "note": 59,
      "start": 40.7352,
      "duration": 0.0156,
      "velocity": 100,
      "chip": "ym2612"
    },
    {
      "channel": 0,
      "note": 40,
      "start": 40.7459,
      "duration": 0.0161,
      "velocity": 115,
      "chip": "ym2612"
    },
    {
      "channel": 5,
      "note": 78,
      "start": 40.7471,
      "duration": 0.0161,
      "velocity": 100,
      "chip": "ym2612"
    },
    {
      "channel": 4,
      "note": 83,
      "start": 40.7483,
      "duration": 0.0161,
      "velocity": 100,
      "chip": "ym2612"
    },
    {
      "channel": 2,
      "note": 59,
      "start": 40.7508,
      "duration": 0.0159,
      "velocity": 100,
      "chip": "ym2612"
    },
    {
      "channel": 0,
      "note": 40,
      "start": 40.762,
      "duration": 0.0161,
      "velocity": 115,
      "chip": "ym2612"
    },
    {
      "channel": 5,
      "note": 78,
      "start": 40.7632,
      "duration": 0.0161,
      "velocity": 100,
      "chip": "ym2612"
    },
    {
      "channel": 4,
      "note": 83,
      "start": 40.7644,
      "duration": 0.0161,
      "velocity": 100,
      "chip": "ym2612"
    },
    {
      "channel": 2,
      "note": 59,
      "start": 40.7667,
      "duration": 0.0161,
      "velocity": 100,
      "chip": "ym2612"
    },
    {
      "channel": 0,
      "note": 41,
      "start": 40.7782,
      "duration": 0.0161,
      "velocity": 115,
      "chip": "ym2612"
    },
    {
      "channel": 5,
      "note": 78,
      "start": 40.7793,
      "duration": 0.0161,
      "velocity": 100,
      "chip": "ym2612"
    },
    {
      "channel": 4,
      "note": 83,
      "start": 40.7805,
      "duration": 0.0161,
      "velocity": 100,
      "chip": "ym2612"
    },
    {
      "channel": 2,
      "note": 59,
      "start": 40.7828,
      "duration": 0.0161,
      "velocity": 100,
      "chip": "ym2612"
    },
    {
      "channel": 0,
      "note": 41,
      "start": 40.7943,
      "duration": 0.0161,
      "velocity": 115,
      "chip": "ym2612"
    },
    {
      "channel": 5,
      "note": 78,
      "start": 40.7954,
      "duration": 0.0161,
      "velocity": 100,
      "chip": "ym2612"
    },
    {
      "channel": 4,
      "note": 83,
      "start": 40.7966,
      "duration": 0.0161,
      "velocity": 100,
      "chip": "ym2612"
    },
    {
      "channel": 2,
      "note": 59,
      "start": 40.7989,
      "duration": 0.0168,
      "velocity": 100,
      "chip": "ym2612"
    },
    {
      "channel": 0,
      "note": 42,
      "start": 40.8104,
      "duration": 0.0161,
      "velocity": 115,
      "chip": "ym2612"
    },
    {
      "channel": 5,
      "note": 78,
      "start": 40.8115,
      "duration": 0.0162,
      "velocity": 100,
      "chip": "ym2612"
    },
    {
      "channel": 4,
      "note": 83,
      "start": 40.8127,
      "duration": 0.0161,
      "velocity": 100,
      "chip": "ym2612"
    },
    {
      "channel": 3,
      "note": 75,
      "start": 40.8142,
      "duration": 0.0158,
      "velocity": 100,
      "chip": "ym2612"
    },
    {
      "channel": 2,
      "note": 71,
      "start": 40.8157,
      "duration": 0.0156,
      "velocity": 100,
      "chip": "ym2612"
    },
    {
      "channel": 1,
      "note": 78,
      "start": 40.8174,
      "duration": 0.0151,
      "velocity": 100,
      "chip": "ym2612"
    },
    {
      "channel": 0,
      "note": 42,
      "start": 40.8264,
      "duration": 0.0161,
      "velocity": 115,
      "chip": "ym2612"
    },
    {
      "channel": 3,
      "note": 75,
      "start": 40.8301,
      "duration": 0.016,
      "velocity": 100,
      "chip": "ym2612"
    },
    {
      "channel": 2,
      "note": 71,
      "start": 40.8313,
      "duration": 0.016,
      "velocity": 100,
      "chip": "ym2612"
    },
    {
      "channel": 1,
      "note": 78,
      "start": 40.8326,
      "duration": 0.0159,
      "velocity": 100,
      "chip": "ym2612"
    },
    {
      "channel": 0,
      "note": 43,
      "start": 40.8425,
      "duration": 0.0161,
      "velocity": 115,
      "chip": "ym2612"
    },
    {
      "channel": 3,
      "note": 75,
      "start": 40.8461,
      "duration": 0.0161,
      "velocity": 100,
      "chip": "ym2612"
    },
    {
      "channel": 2,
      "note": 71,
      "start": 40.8473,
      "duration": 0.0161,
      "velocity": 100,
      "chip": "ym2612"
    },
    {
      "channel": 1,
      "note": 78,
      "start": 40.8485,
      "duration": 0.0161,
      "velocity": 100,
      "chip": "ym2612"
    },
    {
      "channel": 0,
      "note": 43,
      "start": 40.8586,
      "duration": 0.0161,
      "velocity": 115,
      "chip": "ym2612"
    },
    {
      "channel": 3,
      "note": 75,
      "start": 40.8622,
      "duration": 0.0161,
      "velocity": 100,
      "chip": "ym2612"
    },
    {
      "channel": 2,
      "note": 71,
      "start": 40.8633,
      "duration": 0.0161,
      "velocity": 100,
      "chip": "ym2612"
    },
    {
      "channel": 1,
      "note": 78,
      "start": 40.8646,
      "duration": 0.0161,
      "velocity": 100,
      "chip": "ym2612"
    },
    {
      "channel": 0,
      "note": 44,
      "start": 40.8747,
      "duration": 0.0161,
      "velocity": 115,
      "chip": "ym2612"
    },
    {
      "channel": 3,
      "note": 75,
      "start": 40.8783,
      "duration": 0.0161,
      "velocity": 100,
      "chip": "ym2612"
    },
    {
      "channel": 2,
      "note": 71,
      "start": 40.8794,
      "duration": 0.0161,
      "velocity": 100,
      "chip": "ym2612"
    },
    {
      "channel": 1,
      "note": 78,
      "start": 40.8807,
      "duration": 0.0161,
      "velocity": 100,
      "chip": "ym2612"
    },
    {
      "channel": 0,
      "note": 44,
      "start": 40.8908,
      "duration": 0.0179,
      "velocity": 115,
      "chip": "ym2612"
    },
    {
      "channel": 3,
      "note": 75,
      "start": 40.8944,
      "duration": 0.018,
      "velocity": 100,
      "chip": "ym2612"
    },
    {
      "channel": 2,
      "note": 71,
      "start": 40.8955,
      "duration": 0.0179,
      "velocity": 100,
      "chip": "ym2612"
    },
    {
      "channel": 1,
      "note": 78,
      "start": 40.8967,
      "duration": 0.0179,
      "velocity": 100,
      "chip": "ym2612"
    },
    {
      "channel": 0,
      "note": 36,
      "start": 40.9088,
      "duration": 0.0143,
      "velocity": 115,
      "chip": "ym2612"
    },
    {
      "channel": 3,
      "note": 75,
      "start": 40.9123,
      "duration": 0.0149,
      "velocity": 100,
      "chip": "ym2612"
    },
    {
      "channel": 2,
      "note": 71,
      "start": 40.9135,
      "duration": 0.015,
      "velocity": 100,
      "chip": "ym2612"
    },
    {
      "channel": 1,
      "note": 78,
      "start": 40.9147,
      "duration": 0.015,
      "velocity": 100,
      "chip": "ym2612"
    },
    {
      "channel": 0,
      "note": 36,
      "start": 40.9231,
      "duration": 0.0161,
      "velocity": 115,
      "chip": "ym2612"
    },
    {
      "channel": 5,
      "note": 78,
      "start": 40.9246,
      "duration": 0.0158,
      "velocity": 100,
      "chip": "ym2612"
    },
    {
      "channel": 4,
      "note": 83,
      "start": 40.9261,
      "duration": 0.0156,
      "velocity": 100,
      "chip": "ym2612"
    },
    {
      "channel": 2,
      "note": 71,
      "start": 40.9285,
      "duration": 0.0155,
      "velocity": 100,
      "chip": "ym2612"
    },
    {
      "channel": 0,
      "note": 37,
      "start": 40.9392,
      "duration": 0.0161,
      "velocity": 115,
      "chip": "ym2612"
    },
    {
      "channel": 5,
      "note": 78,
      "start": 40.9404,
      "duration": 0.016,
      "velocity": 100,
      "chip": "ym2612"
    },
    {
      "channel": 4,
      "note": 83,
      "start": 40.9417,
      "duration": 0.016,
      "velocity": 100,
      "chip": "ym2612"
    },
    {
      "channel": 2,
      "note": 71,
      "start": 40.944,
      "duration": 0.016,
      "velocity": 100,
      "chip": "ym2612"
    },
    {
      "channel": 0,
      "note": 37,
      "start": 40.9553,
      "duration": 0.0161,
      "velocity": 115,
      "chip": "ym2612"
    },
    {
      "channel": 5,
      "note": 78,
      "start": 40.9564,
      "duration": 0.0161,
      "velocity": 100,
      "chip": "ym2612"
    },
    {
      "channel": 4,
      "note": 83,
      "start": 40.9576,
      "duration": 0.0161,
      "velocity": 100,
      "chip": "ym2612"
    },
    {
      "channel": 2,
      "note": 71,
      "start": 40.96,
      "duration": 0.016,
      "velocity": 100,
      "chip": "ym2612"
    },
    {
      "channel": 0,
      "note": 38,
      "start": 40.9714,
      "duration": 0.0161,
      "velocity": 115,
      "chip": "ym2612"
    },
    {
      "channel": 5,
      "note": 78,
      "start": 40.9726,
      "duration": 0.016,
      "velocity": 100,
      "chip": "ym2612"
    },
    {
      "channel": 4,
      "note": 83,
      "start": 40.9737,
      "duration": 0.0161,
      "velocity": 100,
      "chip": "ym2612"
    },
    {
      "channel": 2,
      "note": 71,
      "start": 40.9761,
      "duration": 0.0161,
      "velocity": 100,
      "chip": "ym2612"
    },
    {
      "channel": 0,
      "note": 38,
      "start": 40.9875,
      "duration": 0.0161,
      "velocity": 115,
      "chip": "ym2612"
    },
    {
      "channel": 5,
      "note": 78,
      "start": 40.9886,
      "duration": 0.0162,
      "velocity": 100,
      "chip": "ym2612"
    },
    {
      "channel": 4,
      "note": 83,
      "start": 40.9898,
      "duration": 0.0162,
      "velocity": 100,
      "chip": "ym2612"
    },
    {
      "channel": 2,
      "note": 71,
      "start": 40.9922,
      "duration": 0.0162,
      "velocity": 100,
      "chip": "ym2612"
    },
    {
      "channel": 0,
      "note": 39,
      "start": 41.0036,
      "duration": 0.0163,
      "velocity": 115,
      "chip": "ym2612"
    },
    {
      "channel": 5,
      "note": 78,
      "start": 41.0048,
      "duration": 0.0163,
      "velocity": 100,
      "chip": "ym2612"
    },
    {
      "channel": 4,
      "note": 83,
      "start": 41.006,
      "duration": 0.0163,
      "velocity": 100,
      "chip": "ym2612"
    },
    {
      "channel": 2,
      "note": 71,
      "start": 41.0083,
      "duration": 0.0169,
      "velocity": 100,
      "chip": "ym2612"
    },
    {
      "channel": 0,
      "note": 39,
      "start": 41.0199,
      "duration": 0.0163,
      "velocity": 115,
      "chip": "ym2612"
    },
    {
      "channel": 5,
      "note": 78,
      "start": 41.0211,
      "duration": 0.0163,
      "velocity": 100,
      "chip": "ym2612"
    },
    {
      "channel": 4,
      "note": 83,
      "start": 41.0223,
      "duration": 0.0163,
      "velocity": 100,
      "chip": "ym2612"
    },
    {
      "channel": 3,
      "note": 78,
      "start": 41.0238,
      "duration": 0.0161,
      "velocity": 100,
      "chip": "ym2612"
    },
    {
      "channel": 2,
      "note": 59,
      "start": 41.0253,
      "duration": 0.0158,
      "velocity": 100,
      "chip": "ym2612"
    },
    {
      "channel": 1,
      "note": 83,
      "start": 41.0268,
      "duration": 0.0155,
      "velocity": 100,
      "chip": "ym2612"
    },
    {
      "channel": 0,
      "note": 40,
      "start": 41.0362,
      "duration": 0.0162,
      "velocity": 115,
      "chip": "ym2612"
    },
    {
      "channel": 3,
      "note": 78,
      "start": 41.0399,
      "duration": 0.0161,
      "velocity": 100,
      "chip": "ym2612"
    },
    {
      "channel": 2,
      "note": 59,
      "start": 41.0411,
      "duration": 0.016,
      "velocity": 100,
      "chip": "ym2612"
    },
    {
      "channel": 1,
      "note": 83,
      "start": 41.0424,
      "duration": 0.016,
      "velocity": 100,
      "chip": "ym2612"
    },
    {
      "channel": 0,
      "note": 40,
      "start": 41.0525,
      "duration": 0.0161,
      "velocity": 115,
      "chip": "ym2612"
    },
    {
      "channel": 3,
      "note": 78,
      "start": 41.056,
      "duration": 0.0161,
      "velocity": 100,
      "chip": "ym2612"
    },
    {
      "channel": 2,
      "note": 59,
      "start": 41.0571,
      "duration": 0.0161,
      "velocity": 100,
      "chip": "ym2612"
    },
    {
      "channel": 1,
      "note": 83,
      "start": 41.0583,
      "duration": 0.0161,
      "velocity": 100,
      "chip": "ym2612"
    },
    {
      "channel": 0,
      "note": 40,
      "start": 41.0685,
      "duration": 0.016,
      "velocity": 115,
      "chip": "ym2612"
    },
    {
      "channel": 3,
      "note": 78,
      "start": 41.0721,
      "duration": 0.0161,
      "velocity": 100,
      "chip": "ym2612"
    },
    {
      "channel": 2,
      "note": 59,
      "start": 41.0732,
      "duration": 0.0162,
      "velocity": 100,
      "chip": "ym2612"
    },
    {
      "channel": 1,
      "note": 83,
      "start": 41.0744,
      "duration": 0.0161,
      "velocity": 100,
      "chip": "ym2612"
    },
    {
      "channel": 0,
      "note": 41,
      "start": 41.0846,
      "duration": 0.0156,
      "velocity": 115,
      "chip": "ym2612"
    },
    {
      "channel": 3,
      "note": 78,
      "start": 41.0882,
      "duration": 0.0161,
      "velocity": 100,
      "chip": "ym2612"
    },
    {
      "channel": 2,
      "note": 59,
      "start": 41.0894,
      "duration": 0.0161,
      "velocity": 100,
      "chip": "ym2612"
    },
    {
      "channel": 1,
      "note": 83,
      "start": 41.0905,
      "duration": 0.0161,
      "velocity": 100,
      "chip": "ym2612"
    },
    {
      "channel": 0,
      "note": 41,
      "start": 41.1002,
      "duration": 0.0184,
      "velocity": 124,
      "chip": "ym2612"
    },
    {
      "channel": 3,
      "note": 78,
      "start": 41.1043,
      "duration": 0.0179,
      "velocity": 100,
      "chip": "ym2612"
    },
    {
      "channel": 2,
      "note": 59,
      "start": 41.1055,
      "duration": 0.0183,
      "velocity": 100,
      "chip": "ym2612"
    },
    {
      "channel": 1,
      "note": 83,
      "start": 41.1066,
      "duration": 0.0183,
      "velocity": 100,
      "chip": "ym2612"
    },
    {
      "channel": 0,
      "note": 84,
      "start": 41.1187,
      "duration": 0.0137,
      "velocity": 124,
      "chip": "ym2612"
    },
    {
      "channel": 3,
      "note": 78,
      "start": 41.1222,
      "duration": 0.015,
      "velocity": 100,
      "chip": "ym2612"
    },
    {
      "channel": 2,
      "note": 71,
      "start": 41.1237,
      "duration": 0.0148,
      "velocity": 100,
      "chip": "ym2612"
    },
    {
      "channel": 1,
      "note": 83,
      "start": 41.1249,
      "duration": 0.0148,
      "velocity": 100,
      "chip": "ym2612"
    },
    {
      "channel": 0,
      "note": 82,
      "start": 41.1324,
      "duration": 0.016,
      "velocity": 124,
      "chip": "ym2612"
    },
    {
      "channel": 5,
      "note": 75,
      "start": 41.1341,
      "duration": 0.0156,
      "velocity": 100,
      "chip": "ym2612"
    },
    {
      "channel": 4,
      "note": 78,
      "start": 41.1361,
      "duration": 0.0155,
      "velocity": 100,
      "chip": "ym2612"
    },
    {
      "channel": 2,
      "note": 71,
      "start": 41.1385,
      "duration": 0.0154,
      "velocity": 100,
      "chip": "ym2612"
    },
    {
      "channel": 0,
      "note": 80,
      "start": 41.1485,
      "duration": 0.0161,
      "velocity": 124,
      "chip": "ym2612"
    },
    {
      "channel": 5,
      "note": 75,
      "start": 41.1497,
      "duration": 0.016,
      "velocity": 100,
      "chip": "ym2612"
    },
    {
      "channel": 4,
      "note": 78,
      "start": 41.1515,
      "duration": 0.0154,
      "velocity": 100,
      "chip": "ym2612"
    },
    {
      "channel": 2,
      "note": 71,
      "start": 41.1539,
      "duration": 0.016,
      "velocity": 100,
      "chip": "ym2612"
    },
    {
      "channel": 0,
      "note": 77,
      "start": 41.1646,
      "duration": 0.0161,
      "velocity": 124,
      "chip": "ym2612"
    },
    {
      "channel": 5,
      "note": 75,
      "start": 41.1658,
      "duration": 0.0161,
      "velocity": 100,
      "chip": "ym2612"
    },
    {
      "channel": 4,
      "note": 78,
      "start": 41.167,
      "duration": 0.0161,
      "velocity": 100,
      "chip": "ym2612"
    },
    {
      "channel": 2,
      "note": 71,
      "start": 41.1699,
      "duration": 0.0161,
      "velocity": 100,
      "chip": "ym2612"
    },
    {
      "channel": 0,
      "note": 75,
      "start": 41.1807,
      "duration": 0.0161,
      "velocity": 124,
      "chip": "ym2612"
    },
    {
      "channel": 5,
      "note": 75,
      "start": 41.1819,
      "duration": 0.0161,
      "velocity": 100,
      "chip": "ym2612"
    },
    {
      "channel": 4,
      "note": 78,
      "start": 41.1831,
      "duration": 0.0161,
      "velocity": 100,
      "chip": "ym2612"
    },
    {
      "channel": 2,
      "note": 71,
      "start": 41.186,
      "duration": 0.0161,
      "velocity": 100,
      "chip": "ym2612"
    },
    {
      "channel": 0,
      "note": 72,
      "start": 41.1967,
      "duration": 0.0162,
      "velocity": 124,
      "chip": "ym2612"
    },
    {
      "channel": 5,
      "note": 75,
      "start": 41.198,
      "duration": 0.0161,
      "velocity": 100,
      "chip": "ym2612"
    },
    {
      "channel": 4,
      "note": 78,
      "start": 41.1992,
      "duration": 0.0161,
      "velocity": 100,
      "chip": "ym2612"
    },
    {
      "channel": 2,
      "note": 71,
      "start": 41.2021,
      "duration": 0.016,
      "velocity": 100,
      "chip": "ym2612"
    },
    {
      "channel": 0,
      "note": 70,
      "start": 41.2129,
      "duration": 0.0179,
      "velocity": 115,
      "chip": "ym2612"
    },
    {
      "channel": 5,
      "note": 75,
      "start": 41.214,
      "duration": 0.0179,
      "velocity": 100,
      "chip": "ym2612"
    },
    {
      "channel": 4,
      "note": 78,
      "start": 41.2153,
      "duration": 0.0179,
      "velocity": 100,
      "chip": "ym2612"
    },
    {
      "channel": 2,
      "note": 71,
      "start": 41.2181,
      "duration": 0.0184,
      "velocity": 100,
      "chip": "ym2612"
    },
    {
      "channel": 0,
      "note": 36,
      "start": 41.2308,
      "duration": 0.0143,
      "velocity": 115,
      "chip": "ym2612"
    },
    {
      "channel": 5,
      "note": 75,
      "start": 41.232,
      "duration": 0.0144,
      "velocity": 100,
      "chip": "ym2612"
    },
    {
      "channel": 4,
      "note": 78,
      "start": 41.2332,
      "duration": 0.0144,
      "velocity": 100,
      "chip": "ym2612"
    },
    {
      "channel": 3,
      "note": 75,
      "start": 41.2353,
      "duration": 0.0135,
      "velocity": 100,
      "chip": "ym2612"
    },
    {
      "channel": 2,
      "note": 71,
      "start": 41.2366,
      "duration": 0.0134,
      "velocity": 100,
      "chip": "ym2612"
    },
    {
      "channel": 1,
      "note": 78,
      "start": 41.2381,
      "duration": 0.0137,
      "velocity": 100,
      "chip": "ym2612"
    },
    {
      "channel": 0,
      "note": 36,
      "start": 41.2451,
      "duration": 0.016,
      "velocity": 115,
      "chip": "ym2612"
    },
    {
      "channel": 3,
      "note": 75,
      "start": 41.2488,
      "duration": 0.0159,
      "velocity": 100,
      "chip": "ym2612"
    },
    {
      "channel": 2,
      "note": 71,
      "start": 41.25,
      "duration": 0.0159,
      "velocity": 100,
      "chip": "ym2612"
    },
    {
      "channel": 1,
      "note": 78,
      "start": 41.2518,
      "duration": 0.0154,
      "velocity": 100,
      "chip": "ym2612"
    },
    {
      "channel": 0,
      "note": 37,
      "start": 41.2612,
      "duration": 0.0161,
      "velocity": 115,
      "chip": "ym2612"
    },
    {
      "channel": 3,
      "note": 75,
      "start": 41.2647,
      "duration": 0.0162,
      "velocity": 100,
      "chip": "ym2612"
    },
    {
      "channel": 2,
      "note": 71,
      "start": 41.2659,
      "duration": 0.0161,
      "velocity": 100,
      "chip": "ym2612"
    },
    {
      "channel": 1,
      "note": 78,
      "start": 41.2673,
      "duration": 0.0159,
      "velocity": 100,
      "chip": "ym2612"
    },
    {
      "channel": 0,
      "note": 37,
      "start": 41.2773,
      "duration": 0.0161,
      "velocity": 115,
      "chip": "ym2612"
    },
    {
      "channel": 2,
      "note": 71,
      "start": 41.282,
      "duration": 0.0161,
      "velocity": 100,
      "chip": "ym2612"
    },
    {
      "channel": 0,
      "note": 38,
      "start": 41.2934,
      "duration": 0.0161,
      "velocity": 115,
      "chip": "ym2612"
    },
    {
      "channel": 2,
      "note": 71,
      "start": 41.2981,
      "duration": 0.0161,
      "velocity": 100,
      "chip": "ym2612"
    },
    {
      "channel": 0,
      "note": 38,
      "start": 41.3095,
      "duration": 0.0179,
      "velocity": 115,
      "chip": "ym2612"
    },
    {
      "channel": 2,
      "note": 71,
      "start": 41.3142,
      "duration": 0.0186,
      "velocity": 100,
      "chip": "ym2612"
    },
    {
      "channel": 0,
      "note": 36,
      "start": 41.3274,
      "duration": 0.0143,
      "velocity": 115,
      "chip": "ym2612"
    },
    {
      "channel": 3,
      "note": 78,
      "start": 41.3313,
      "duration": 0.0147,
      "velocity": 100,
      "chip": "ym2612"
    },
    {
      "channel": 2,
      "note": 59,
      "start": 41.3327,
      "duration": 0.0145,
      "velocity": 100,
      "chip": "ym2612"
    },
    {
      "channel": 1,
      "note": 83,
      "start": 41.3348,
      "duration": 0.0137,
      "velocity": 100,
      "chip": "ym2612"
    },
    {
      "channel": 0,
      "note": 36,
      "start": 41.3417,
      "duration": 0.016,
      "velocity": 115,
      "chip": "ym2612"
    },
    {
      "channel": 5,
      "note": 78,
      "start": 41.3432,
      "duration": 0.0158,
      "velocity": 100,
      "chip": "ym2612"
    },
    {
      "channel": 4,
      "note": 83,
      "start": 41.3448,
      "duration": 0.0155,
      "velocity": 100,
      "chip": "ym2612"
    },
    {
      "channel": 3,
      "note": 78,
      "start": 41.346,
      "duration": 0.0154,
      "velocity": 100,
      "chip": "ym2612"
    },
    {
      "channel": 2,
      "note": 59,
      "start": 41.3473,
      "duration": 0.0153,
      "velocity": 100,
      "chip": "ym2612"
    },
    {
      "channel": 1,
      "note": 83,
      "start": 41.3485,
      "duration": 0.0153,
      "velocity": 100,
      "chip": "ym2612"
    },
    {
      "channel": 0,
      "note": 37,
      "start": 41.3578,
      "duration": 0.0161,
      "velocity": 115,
      "chip": "ym2612"
    },
    {
      "channel": 5,
      "note": 78,
      "start": 41.359,
      "duration": 0.016,
      "velocity": 100,
      "chip": "ym2612"
    },
    {
      "channel": 4,
      "note": 83,
      "start": 41.3603,
      "duration": 0.016,
      "velocity": 100,
      "chip": "ym2612"
    },
    {
      "channel": 3,
      "note": 78,
      "start": 41.3614,
      "duration": 0.016,
      "velocity": 100,
      "chip": "ym2612"
    },
    {
      "channel": 2,
      "note": 59,
      "start": 41.3626,
      "duration": 0.016,
      "velocity": 100,
      "chip": "ym2612"
    },
    {
      "channel": 1,
      "note": 83,
      "start": 41.3638,
      "duration": 0.016,
      "velocity": 100,
      "chip": "ym2612"
    },
    {
      "channel": 0,
      "note": 37,
      "start": 41.3739,
      "duration": 0.0161,
      "velocity": 115,
      "chip": "ym2612"
    },
    {
      "channel": 5,
      "note": 78,
      "start": 41.3751,
      "duration": 0.0161,
      "velocity": 100,
      "chip": "ym2612"
    },
    {
      "channel": 4,
      "note": 83,
      "start": 41.3763,
      "duration": 0.0161,
      "velocity": 100,
      "chip": "ym2612"
    },
    {
      "channel": 3,
      "note": 78,
      "start": 41.3774,
      "duration": 0.0162,
      "velocity": 100,
      "chip": "ym2612"
    },
    {
      "channel": 2,
      "note": 59,
      "start": 41.3785,
      "duration": 0.0162,
      "velocity": 100,
      "chip": "ym2612"
    },
    {
      "channel": 1,
      "note": 83,
      "start": 41.3798,
      "duration": 0.0162,
      "velocity": 100,
      "chip": "ym2612"
    },
    {
      "channel": 0,
      "note": 38,
      "start": 41.39,
      "duration": 0.0161,
      "velocity": 115,
      "chip": "ym2612"
    },
    {
      "channel": 5,
      "note": 78,
      "start": 41.3911,
      "duration": 0.0161,
      "velocity": 100,
      "chip": "ym2612"
    },
    {
      "channel": 4,
      "note": 83,
      "start": 41.3924,
      "duration": 0.0161,
      "velocity": 100,
      "chip": "ym2612"
    },
    {
      "channel": 3,
      "note": 78,
      "start": 41.3936,
      "duration": 0.0161,
      "velocity": 100,
      "chip": "ym2612"
    },
    {
      "channel": 2,
      "note": 59,
      "start": 41.3948,
      "duration": 0.0161,
      "velocity": 100,
      "chip": "ym2612"
    },
    {
      "channel": 1,
      "note": 83,
      "start": 41.3959,
      "duration": 0.0161,
      "velocity": 100,
      "chip": "ym2612"
    },
    {
      "channel": 0,
      "note": 38,
      "start": 41.4061,
      "duration": 0.0161,
      "velocity": 115,
      "chip": "ym2612"
    },
    {
      "channel": 5,
      "note": 78,
      "start": 41.4072,
      "duration": 0.0161,
      "velocity": 100,
      "chip": "ym2612"
    },
    {
      "channel": 4,
      "note": 83,
      "start": 41.4084,
      "duration": 0.0161,
      "velocity": 100,
      "chip": "ym2612"
    },
    {
      "channel": 3,
      "note": 78,
      "start": 41.4097,
      "duration": 0.0161,
      "velocity": 100,
      "chip": "ym2612"
    },
    {
      "channel": 2,
      "note": 59,
      "start": 41.4109,
      "duration": 0.0161,
      "velocity": 100,
      "chip": "ym2612"
    },
    {
      "channel": 1,
      "note": 83,
      "start": 41.412,
      "duration": 0.0161,
      "velocity": 100,
      "chip": "ym2612"
    },
    {
      "channel": 0,
      "note": 39,
      "start": 41.4222,
      "duration": 0.0179,
      "velocity": 115,
      "chip": "ym2612"
    },
    {
      "channel": 5,
      "note": 78,
      "start": 41.4233,
      "duration": 0.018,
      "velocity": 100,
      "chip": "ym2612"
    },
    {
      "channel": 4,
      "note": 83,
      "start": 41.4245,
      "duration": 0.0179,
      "velocity": 100,
      "chip": "ym2612"
    },
    {
      "channel": 3,
      "note": 78,
      "start": 41.4257,
      "duration": 0.018,
      "velocity": 100,
      "chip": "ym2612"
    },
    {
      "channel": 2,
      "note": 59,
      "start": 41.427,
      "duration": 0.0182,
      "velocity": 100,
      "chip": "ym2612"
    },
    {
      "channel": 1,
      "note": 83,
      "start": 41.4281,
      "duration": 0.0183,
      "velocity": 100,
      "chip": "ym2612"
    },
    {
      "channel": 0,
      "note": 36,
      "start": 41.4401,
      "duration": 0.0143,
      "velocity": 115,
      "chip": "ym2612"
    },
    {
      "channel": 5,
      "note": 78,
      "start": 41.4413,
      "duration": 0.0143,
      "velocity": 100,
      "chip": "ym2612"
    },
    {
      "channel": 4,
      "note": 83,
      "start": 41.4425,
      "duration": 0.0144,
      "velocity": 100,
      "chip": "ym2612"
    },
    {
      "channel": 2,
      "note": 59,
      "start": 41.4451,
      "duration": 0.0141,
      "velocity": 100,
      "chip": "ym2612"
    },
    {
      "channel": 0,
      "note": 36,
      "start": 41.4544,
      "duration": 0.016,
      "velocity": 115,
      "chip": "ym2612"
    },
    {
      "channel": 2,
      "note": 59,
      "start": 41.4592,
      "duration": 0.016,
      "velocity": 100,
      "chip": "ym2612"
    },
    {
      "channel": 0,
      "note": 37,
      "start": 41.4705,
      "duration": 0.0161,
      "velocity": 115,
      "chip": "ym2612"
    },
    {
      "channel": 2,
      "note": 59,
      "start": 41.4752,
      "duration": 0.0162,
      "velocity": 100,
      "chip": "ym2612"
    },
    {
      "channel": 0,
      "note": 37,
      "start": 41.4866,
      "duration": 0.0164,
      "velocity": 115,
      "chip": "ym2612"
    },
    {
      "channel": 2,
      "note": 59,
      "start": 41.4913,
      "duration": 0.0164,
      "velocity": 100,
      "chip": "ym2612"
    },
    {
      "channel": 0,
      "note": 38,
      "start": 41.503,
      "duration": 0.0163,
      "velocity": 115,
      "chip": "ym2612"
    },
    {
      "channel": 2,
      "note": 59,
      "start": 41.5078,
      "duration": 0.0163,
      "velocity": 100,
      "chip": "ym2612"
    },
    {
      "channel": 0,
      "note": 38,
      "start": 41.5194,
      "duration": 0.0161,
      "velocity": 115,
      "chip": "ym2612"
    },
    {
      "channel": 2,
      "note": 59,
      "start": 41.524,
      "duration": 0.0165,
      "velocity": 100,
      "chip": "ym2612"
    },
    {
      "channel": 0,
      "note": 39,
      "start": 41.5355,
      "duration": 0.016,
      "velocity": 115,
      "chip": "ym2612"
    },
    {
      "channel": 3,
      "note": 82,
      "start": 41.5394,
      "duration": 0.0165,
      "velocity": 100,
      "chip": "ym2612"
    },
    {
      "channel": 2,
      "note": 59,
      "start": 41.5406,
      "duration": 0.0165,
      "velocity": 100,
      "chip": "ym2612"
    },
    {
      "channel": 1,
      "note": 85,
      "start": 41.5422,
      "duration": 0.0161,
      "velocity": 100,
      "chip": "ym2612"
    },
    {
      "channel": 0,
      "note": 39,
      "start": 41.5515,
      "duration": 0.0158,
      "velocity": 115,
      "chip": "ym2612"
    },
    {
      "channel": 5,
      "note": 75,
      "start": 41.5531,
      "duration": 0.0158,
      "velocity": 100,
      "chip": "ym2612"
    },
    {
      "channel": 4,
      "note": 78,
      "start": 41.5546,
      "duration": 0.0155,
      "velocity": 100,
      "chip": "ym2612"
    },
    {
      "channel": 3,
      "note": 82,
      "start": 41.5559,
      "duration": 0.0155,
      "velocity": 100,
      "chip": "ym2612"
    },
    {
      "channel": 2,
      "note": 59,
      "start": 41.5571,
      "duration": 0.0154,
      "velocity": 100,
      "chip": "ym2612"
    },
    {
      "channel": 1,
      "note": 85,
      "start": 41.5583,
      "duration": 0.0155,
      "velocity": 100,
      "chip": "ym2612"
    },
    {
      "channel": 0,
      "note": 40,
      "start": 41.5673,
      "duration": 0.0159,
      "velocity": 115,
      "chip": "ym2612"
    },
    {
      "channel": 5,
      "note": 75,
      "start": 41.5689,
      "duration": 0.016,
      "velocity": 100,
      "chip": "ym2612"
    },
    {
      "channel": 4,
      "note": 78,
      "start": 41.5702,
      "duration": 0.016,
      "velocity": 100,
      "chip": "ym2612"
    },
    {
      "channel": 3,
      "note": 82,
      "start": 41.5714,
      "duration": 0.016,
      "velocity": 100,
      "chip": "ym2612"
    },
    {
      "channel": 2,
      "note": 59,
      "start": 41.5725,
      "duration": 0.016,
      "velocity": 100,
      "chip": "ym2612"
    },
    {
      "channel": 1,
      "note": 85,
      "start": 41.5737,
      "duration": 0.016,
      "velocity": 100,
      "chip": "ym2612"
    },
    {
      "channel": 0,
      "note": 40,
      "start": 41.5832,
      "duration": 0.0161,
      "velocity": 115,
      "chip": "ym2612"
    },
    {
      "channel": 5,
      "note": 75,
      "start": 41.5849,
      "duration": 0.0158,
      "velocity": 100,
      "chip": "ym2612"
    },
    {
      "channel": 4,
      "note": 78,
      "start": 41.5862,
      "duration": 0.0161,
      "velocity": 100,
      "chip": "ym2612"
    },
    {
      "channel": 3,
      "note": 82,
      "start": 41.5873,
      "duration": 0.0162,
      "velocity": 100,
      "chip": "ym2612"
    },
    {
      "channel": 2,
      "note": 59,
      "start": 41.5885,
      "duration": 0.0161,
      "velocity": 100,
      "chip": "ym2612"
    },
    {
      "channel": 1,
      "note": 85,
      "start": 41.5897,
      "duration": 0.0161,
      "velocity": 100,
      "chip": "ym2612"
    },
    {
      "channel": 0,
      "note": 40,
      "start": 41.5993,
      "duration": 0.0161,
      "velocity": 115,
      "chip": "ym2612"
    },
    {
      "channel": 2,
      "note": 59,
      "start": 41.6046,
      "duration": 0.016,
      "velocity": 100,
      "chip": "ym2612"
    },
    {
      "channel": 0,
      "note": 41,
      "start": 41.6154,
      "duration": 0.0161,
      "velocity": 115,
      "chip": "ym2612"
    },
    {
      "channel": 2,
      "note": 59,
      "start": 41.6207,
      "duration": 0.0161,
      "velocity": 100,
      "chip": "ym2612"
    },
    {
      "channel": 0,
      "note": 41,
      "start": 41.6315,
      "duration": 0.0179,
      "velocity": 124,
      "chip": "ym2612"
    },
    {
      "channel": 2,
      "note": 59,
      "start": 41.6368,
      "duration": 0.0193,
      "velocity": 100,
      "chip": "ym2612"
    },
    {
      "channel": 0,
      "note": 84,
      "start": 41.6495,
      "duration": 0.0143,
      "velocity": 124,
      "chip": "ym2612"
    },
    {
      "channel": 5,
      "note": 78,
      "start": 41.6515,
      "duration": 0.0135,
      "velocity": 100,
      "chip": "ym2612"
    },
    {
      "channel": 4,
      "note": 83,
      "start": 41.6531,
      "duration": 0.0132,
      "velocity": 100,
      "chip": "ym2612"
    },
    {
      "channel": 3,
      "note": 83,
      "start": 41.6546,
      "duration": 0.0135,
      "velocity": 100,
      "chip": "ym2612"
    },
    {
      "channel": 2,
      "note": 71,
      "start": 41.6561,
      "duration": 0.0132,
      "velocity": 100,
      "chip": "ym2612"
    },
    {
      "channel": 1,
      "note": 87,
      "start": 41.6576,
      "duration": 0.013,
      "velocity": 100,
      "chip": "ym2612"
    },
    {
      "channel": 0,
      "note": 82,
      "start": 41.6638,
      "duration": 0.016,
      "velocity": 124,
      "chip": "ym2612"
    },
    {
      "channel": 5,
      "note": 78,
      "start": 41.665,
      "duration": 0.016,
      "velocity": 100,
      "chip": "ym2612"
    },
    {
      "channel": 4,
      "note": 83,
      "start": 41.6663,
      "duration": 0.0159,
      "velocity": 100,
      "chip": "ym2612"
    },
    {
      "channel": 3,
      "note": 83,
      "start": 41.668,
      "duration": 0.0153,
      "velocity": 100,
      "chip": "ym2612"
    },
    {
      "channel": 2,
      "note": 71,
      "start": 41.6693,
      "duration": 0.0157,
      "velocity": 100,
      "chip": "ym2612"
    },
    {
      "channel": 1,
      "note": 87,
      "start": 41.6706,
      "duration": 0.0157,
      "velocity": 100,
      "chip": "ym2612"
    },
    {
      "channel": 0,
      "note": 80,
      "start": 41.6798,
      "duration": 0.0161,
      "velocity": 124,
      "chip": "ym2612"
    },
    {
      "channel": 5,
      "note": 78,
      "start": 41.681,
      "duration": 0.0161,
      "velocity": 100,
      "chip": "ym2612"
    },
    {
      "channel": 4,
      "note": 83,
      "start": 41.6822,
      "duration": 0.0161,
      "velocity": 100,
      "chip": "ym2612"
    },
    {
      "channel": 3,
      "note": 83,
      "start": 41.6834,
      "duration": 0.0161,
      "velocity": 100,
      "chip": "ym2612"
    },
    {
      "channel": 2,
      "note": 71,
      "start": 41.685,
      "duration": 0.0158,
      "velocity": 100,
      "chip": "ym2612"
    },
    {
      "channel": 1,
      "note": 87,
      "start": 41.6863,
      "duration": 0.0161,
      "velocity": 100,
      "chip": "ym2612"
    },
    {
      "channel": 0,
      "note": 77,
      "start": 41.6959,
      "duration": 0.0161,
      "velocity": 124,
      "chip": "ym2612"
    },
    {
      "channel": 5,
      "note": 78,
      "start": 41.6971,
      "duration": 0.0161,
      "velocity": 100,
      "chip": "ym2612"
    },
    {
      "channel": 4,
      "note": 83,
      "start": 41.6983,
      "duration": 0.0161,
      "velocity": 100,
      "chip": "ym2612"
    },
    {
      "channel": 3,
      "note": 83,
      "start": 41.6995,
      "duration": 0.0161,
      "velocity": 100,
      "chip": "ym2612"
    },
    {
      "channel": 2,
      "note": 71,
      "start": 41.7008,
      "duration": 0.0159,
      "velocity": 100,
      "chip": "ym2612"
    },
    {
      "channel": 1,
      "note": 87,
      "start": 41.7024,
      "duration": 0.016,
      "velocity": 100,
      "chip": "ym2612"
    },
    {
      "channel": 0,
      "note": 75,
      "start": 41.712,
      "duration": 0.0161,
      "velocity": 124,
      "chip": "ym2612"
    },
    {
      "channel": 5,
      "note": 78,
      "start": 41.7132,
      "duration": 0.0161,
      "velocity": 100,
      "chip": "ym2612"
    },
    {
      "channel": 4,
      "note": 83,
      "start": 41.7144,
      "duration": 0.0161,
      "velocity": 100,
      "chip": "ym2612"
    },
    {
      "channel": 3,
      "note": 83,
      "start": 41.7156,
      "duration": 0.0161,
      "velocity": 100,
      "chip": "ym2612"
    },
    {
      "channel": 2,
      "note": 71,
      "start": 41.7167,
      "duration": 0.0161,
      "velocity": 100,
      "chip": "ym2612"
    },
    {
      "channel": 1,
      "note": 87,
      "start": 41.7184,
      "duration": 0.0158,
      "velocity": 100,
      "chip": "ym2612"
    },
    {
      "channel": 0,
      "note": 72,
      "start": 41.7281,
      "duration": 0.0161,
      "velocity": 124,
      "chip": "ym2612"
    },
    {
      "channel": 5,
      "note": 78,
      "start": 41.7293,
      "duration": 0.0161,
      "velocity": 100,
      "chip": "ym2612"
    },
    {
      "channel": 4,
      "note": 83,
      "start": 41.7305,
      "duration": 0.0162,
      "velocity": 100,
      "chip": "ym2612"
    },
    {
      "channel": 3,
      "note": 83,
      "start": 41.7317,
      "duration": 0.0161,
      "velocity": 100,
      "chip": "ym2612"
    },
    {
      "channel": 2,
      "note": 71,
      "start": 41.7328,
      "duration": 0.0161,
      "velocity": 100,
      "chip": "ym2612"
    },
    {
      "channel": 1,
      "note": 87,
      "start": 41.7342,
      "duration": 0.0159,
      "velocity": 100,
      "chip": "ym2612"
    },
    {
      "channel": 0,
      "note": 70,
      "start": 41.7442,
      "duration": 0.0161,
      "velocity": 124,
      "chip": "ym2612"
    },
    {
      "channel": 5,
      "note": 78,
      "start": 41.7454,
      "duration": 0.0161,
      "velocity": 100,
      "chip": "ym2612"
    },
    {
      "channel": 4,
      "note": 83,
      "start": 41.7466,
      "duration": 0.0161,
      "velocity": 100,
      "chip": "ym2612"
    },
    {
      "channel": 3,
      "note": 83,
      "start": 41.7478,
      "duration": 0.0161,
      "velocity": 100,
      "chip": "ym2612"
    },
    {
      "channel": 2,
      "note": 71,
      "start": 41.7489,
      "duration": 0.0162,
      "velocity": 100,
      "chip": "ym2612"
    },
    {
      "channel": 1,
      "note": 87,
      "start": 41.7501,
      "duration": 0.0162,
      "velocity": 100,
      "chip": "ym2612"
    },
    {
      "channel": 0,
      "note": 68,
      "start": 41.7603,
      "duration": 0.0161,
      "velocity": 124,
      "chip": "ym2612"
    },
    {
      "channel": 2,
      "note": 71,
      "start": 41.7651,
      "duration": 0.016,
      "velocity": 100,
      "chip": "ym2612"
    },
    {
      "channel": 0,
      "note": 65,
      "start": 41.7764,
      "duration": 0.0161,
      "velocity": 124,
      "chip": "ym2612"
    },
    {
      "channel": 2,
      "note": 71,
      "start": 41.7812,
      "duration": 0.0161,
      "velocity": 100,
      "chip": "ym2612"
    },
    {
      "channel": 0,
      "note": 63,
      "start": 41.7925,
      "duration": 0.0153,
      "velocity": 1,
      "chip": "ym2612"
    },
    {
      "channel": 2,
      "note": 71,
      "start": 41.7973,
      "duration": 0.0152,
      "velocity": 100,
      "chip": "ym2612"
    },
    {
      "channel": 2,
      "note": 71,
      "start": 41.8124,
      "duration": 0.0153,
      "velocity": 100,
      "chip": "ym2612"
    },
    {
      "channel": 2,
      "note": 71,
      "start": 41.8277,
      "duration": 0.0161,
      "velocity": 100,
      "chip": "ym2612"
    },
    {
      "channel": 2,
      "note": 71,
      "start": 41.8438,
      "duration": 0.0172,
      "velocity": 100,
      "chip": "ym2612"
    },
    {
      "channel": 5,
      "note": 82,
      "start": 41.8568,
      "duration": 0.0158,
      "velocity": 100,
      "chip": "ym2612"
    },
    {
      "channel": 4,
      "note": 85,
      "start": 41.8584,
      "duration": 0.0154,
      "velocity": 100,
      "chip": "ym2612"
    },
    {
      "channel": 2,
      "note": 71,
      "start": 41.861,
      "duration": 0.0152,
      "velocity": 100,
      "chip": "ym2612"
    },
    {
      "channel": 5,
      "note": 82,
      "start": 41.8726,
      "duration": 0.016,
      "velocity": 100,
      "chip": "ym2612"
    },
    {
      "channel": 4,
      "note": 85,
      "start": 41.8738,
      "duration": 0.016,
      "velocity": 100,
      "chip": "ym2612"
    },
    {
      "channel": 2,
      "note": 71,
      "start": 41.8763,
      "duration": 0.016,
      "velocity": 100,
      "chip": "ym2612"
    },
    {
      "channel": 5,
      "note": 82,
      "start": 41.8886,
      "duration": 0.0161,
      "velocity": 100,
      "chip": "ym2612"
    },
    {
      "channel": 4,
      "note": 85,
      "start": 41.8898,
      "duration": 0.0161,
      "velocity": 100,
      "chip": "ym2612"
    },
    {
      "channel": 2,
      "note": 71,
      "start": 41.8922,
      "duration": 0.0161,
      "velocity": 100,
      "chip": "ym2612"
    },
    {
      "channel": 5,
      "note": 82,
      "start": 41.9047,
      "duration": 0.0161,
      "velocity": 100,
      "chip": "ym2612"
    },
    {
      "channel": 4,
      "note": 85,
      "start": 41.9059,
      "duration": 0.0161,
      "velocity": 100,
      "chip": "ym2612"
    },
    {
      "channel": 2,
      "note": 71,
      "start": 41.9083,
      "duration": 0.0161,
      "velocity": 100,
      "chip": "ym2612"
    },
    {
      "channel": 2,
      "note": 71,
      "start": 41.9245,
      "duration": 0.0161,
      "velocity": 100,
      "chip": "ym2612"
    },
    {
      "channel": 2,
      "note": 71,
      "start": 41.9406,
      "duration": 0.0161,
      "velocity": 100,
      "chip": "ym2612"
    },
    {
      "channel": 2,
      "note": 71,
      "start": 41.9567,
      "duration": 0.0172,
      "velocity": 100,
      "chip": "ym2612"
    },
    {
      "channel": 5,
      "note": 83,
      "start": 41.9698,
      "duration": 0.016,
      "velocity": 100,
      "chip": "ym2612"
    },
    {
      "channel": 4,
      "note": 87,
      "start": 41.9714,
      "duration": 0.0158,
      "velocity": 100,
      "chip": "ym2612"
    },
    {
      "channel": 2,
      "note": 71,
      "start": 41.9738,
      "duration": 0.0157,
      "velocity": 100,
      "chip": "ym2612"
    },
    {
      "channel": 5,
      "note": 83,
      "start": 41.9859,
      "duration": 0.016,
      "velocity": 100,
      "chip": "ym2612"
    },
    {
      "channel": 4,
      "note": 87,
      "start": 41.9871,
      "duration": 0.016,
      "velocity": 100,
      "chip": "ym2612"
    },
    {
      "channel": 2,
      "note": 71,
      "start": 41.9895,
      "duration": 0.016,
      "velocity": 100,
      "chip": "ym2612"
    },
    {
      "channel": 5,
      "note": 83,
      "start": 42.0019,
      "duration": 0.0158,
      "velocity": 100,
      "chip": "ym2612"
    },
    {
      "channel": 4,
      "note": 87,
      "start": 42.0031,
      "duration": 0.0161,
      "velocity": 100,
      "chip": "ym2612"
    },
    {
      "channel": 2,
      "note": 71,
      "start": 42.0055,
      "duration": 0.0162,
      "velocity": 100,
      "chip": "ym2612"
    },
    {
      "channel": 2,
      "note": 71,
      "start": 42.0217,
      "duration": 0.016,
      "velocity": 100,
      "chip": "ym2612"
    },
    {
      "channel": 2,
      "note": 71,
      "start": 42.0377,
      "duration": 0.0161,
      "velocity": 100,
      "chip": "ym2612"
    },
    {
      "channel": 2,
      "note": 71,
      "start": 42.0538,
      "duration": 0.0254,
      "velocity": 100,
      "chip": "ym2612"
    },
    {
      "channel": 0,
      "note": 36,
      "start": 42.0686,
      "duration": 0.0167,
      "velocity": 115,
      "chip": "ym2612"
    },
    {
      "channel": 5,
      "note": 82,
      "start": 42.0717,
      "duration": 0.0149,
      "velocity": 101,
      "chip": "ym2612"
    },
    {
      "channel": 4,
      "note": 85,
      "start": 42.0747,
      "duration": 0.0132,
      "velocity": 101,
      "chip": "ym2612"
    },
    {
      "channel": 3,
      "note": 90,
      "start": 42.0777,
      "duration": 0.0114,
      "velocity": 101,
      "chip": "ym2612"
    },
    {
      "channel": 2,
      "note": 54,
      "start": 42.0793,
      "duration": 0.0111,
      "velocity": 100,
      "chip": "ym2612"
    },
    {
      "channel": 0,
      "note": 36,
      "start": 42.0854,
      "duration": 0.013,
      "velocity": 115,
      "chip": "ym2612"
    },
    {
      "channel": 5,
      "note": 82,
      "start": 42.0866,
      "duration": 0.013,
      "velocity": 101,
      "chip": "ym2612"
    },
    {
      "channel": 4,
      "note": 85,
      "start": 42.0878,
      "duration": 0.0132,
      "velocity": 101,
      "chip": "ym2612"
    },
    {
      "channel": 3,
      "note": 90,
      "start": 42.0891,
      "duration": 0.0135,
      "velocity": 101,
      "chip": "ym2612"
    },
    {
      "channel": 2,
      "note": 54,
      "start": 42.0903,
      "duration": 0.0134,
      "velocity": 100,
      "chip": "ym2612"
    },
    {
      "channel": 0,
      "note": 37,
      "start": 42.0984,
      "duration": 0.0162,
      "velocity": 115,
      "chip": "ym2612"
    },
    {
      "channel": 5,
      "note": 82,
      "start": 42.0996,
      "duration": 0.0161,
      "velocity": 101,
      "chip": "ym2612"
    },
    {
      "channel": 4,
      "note": 85,
      "start": 42.101,
      "duration": 0.0159,
      "velocity": 101,
      "chip": "ym2612"
    },
    {
      "channel": 3,
      "note": 90,
      "start": 42.1026,
      "duration": 0.0161,
      "velocity": 101,
      "chip": "ym2612"
    },
    {
      "channel": 2,
      "note": 54,
      "start": 42.1037,
      "duration": 0.0161,
      "velocity": 100,
      "chip": "ym2612"
    },
    {
      "channel": 0,
      "note": 37,
      "start": 42.1146,
      "duration": 0.0161,
      "velocity": 115,
      "chip": "ym2612"
    },
    {
      "channel": 5,
      "note": 82,
      "start": 42.1157,
      "duration": 0.0161,
      "velocity": 101,
      "chip": "ym2612"
    },
    {
      "channel": 4,
      "note": 85,
      "start": 42.1169,
      "duration": 0.0161,
      "velocity": 101,
      "chip": "ym2612"
    },
    {
      "channel": 3,
      "note": 90,
      "start": 42.1187,
      "duration": 0.016,
      "velocity": 101,
      "chip": "ym2612"
    },
    {
      "channel": 2,
      "note": 54,
      "start": 42.1198,
      "duration": 0.0161,
      "velocity": 100,
      "chip": "ym2612"
    },
    {
      "channel": 0,
      "note": 38,
      "start": 42.1307,
      "duration": 0.0161,
      "velocity": 115,
      "chip": "ym2612"
    },
    {
      "channel": 5,
      "note": 82,
      "start": 42.1318,
      "duration": 0.0161,
      "velocity": 101,
      "chip": "ym2612"
    },
    {
      "channel": 4,
      "note": 85,
      "start": 42.133,
      "duration": 0.0161,
      "velocity": 101,
      "chip": "ym2612"
    },
    {
      "channel": 3,
      "note": 90,
      "start": 42.1347,
      "duration": 0.0156,
      "velocity": 101,
      "chip": "ym2612"
    },
    {
      "channel": 2,
      "note": 54,
      "start": 42.1359,
      "duration": 0.0161,
      "velocity": 100,
      "chip": "ym2612"
    },
    {
      "channel": 0,
      "note": 38,
      "start": 42.1467,
      "duration": 0.0161,
      "velocity": 115,
      "chip": "ym2612"
    },
    {
      "channel": 5,
      "note": 82,
      "start": 42.1479,
      "duration": 0.0161,
      "velocity": 101,
      "chip": "ym2612"
    },
    {
      "channel": 4,
      "note": 85,
      "start": 42.1491,
      "duration": 0.0161,
      "velocity": 101,
      "chip": "ym2612"
    },
    {
      "channel": 3,
      "note": 90,
      "start": 42.1503,
      "duration": 0.0161,
      "velocity": 101,
      "chip": "ym2612"
    },
    {
      "channel": 2,
      "note": 54,
      "start": 42.152,
      "duration": 0.016,
      "velocity": 100,
      "chip": "ym2612"
    },
    {
      "channel": 0,
      "note": 39,
      "start": 42.1628,
      "duration": 0.0161,
      "velocity": 115,
      "chip": "ym2612"
    },
    {
      "channel": 5,
      "note": 82,
      "start": 42.164,
      "duration": 0.0162,
      "velocity": 101,
      "chip": "ym2612"
    },
    {
      "channel": 4,
      "note": 85,
      "start": 42.1652,
      "duration": 0.0163,
      "velocity": 101,
      "chip": "ym2612"
    },
    {
      "channel": 3,
      "note": 90,
      "start": 42.1664,
      "duration": 0.0163,
      "velocity": 101,
      "chip": "ym2612"
    },
    {
      "channel": 2,
      "note": 54,
      "start": 42.168,
      "duration": 0.016,
      "velocity": 100,
      "chip": "ym2612"
    },
    {
      "channel": 0,
      "note": 39,
      "start": 42.1789,
      "duration": 0.0161,
      "velocity": 115,
      "chip": "ym2612"
    },
    {
      "channel": 5,
      "note": 82,
      "start": 42.1802,
      "duration": 0.0161,
      "velocity": 101,
      "chip": "ym2612"
    },
    {
      "channel": 4,
      "note": 85,
      "start": 42.1815,
      "duration": 0.016,
      "velocity": 101,
      "chip": "ym2612"
    },
    {
      "channel": 3,
      "note": 90,
      "start": 42.1827,
      "duration": 0.016,
      "velocity": 101,
      "chip": "ym2612"
    },
    {
      "channel": 2,
      "note": 54,
      "start": 42.1841,
      "duration": 0.0159,
      "velocity": 100,
      "chip": "ym2612"
    },
    {
      "channel": 0,
      "note": 40,
      "start": 42.195,
      "duration": 0.0161,
      "velocity": 115,
      "chip": "ym2612"
    },
    {
      "channel": 5,
      "note": 82,
      "start": 42.1963,
      "duration": 0.0161,
      "velocity": 101,
      "chip": "ym2612"
    },
    {
      "channel": 4,
      "note": 85,
      "start": 42.1975,
      "duration": 0.0161,
      "velocity": 101,
      "chip": "ym2612"
    },
    {
      "channel": 3,
      "note": 90,
      "start": 42.1987,
      "duration": 0.0162,
      "velocity": 101,
      "chip": "ym2612"
    },
    {
      "channel": 2,
      "note": 54,
      "start": 42.1999,
      "duration": 0.0161,
      "velocity": 100,
      "chip": "ym2612"
    },
    {
      "channel": 0,
      "note": 40,
      "start": 42.2111,
      "duration": 0.0161,
      "velocity": 115,
      "chip": "ym2612"
    },
    {
      "channel": 2,
      "note": 54,
      "start": 42.2161,
      "duration": 0.016,
      "velocity": 100,
      "chip": "ym2612"
    },
    {
      "channel": 0,
      "note": 40,
      "start": 42.2272,
      "duration": 0.0161,
      "velocity": 115,
      "chip": "ym2612"
    },
    {
      "channel": 2,
      "note": 54,
      "start": 42.2321,
      "duration": 0.0162,
      "velocity": 100,
      "chip": "ym2612"
    },
    {
      "channel": 0,
      "note": 41,
      "start": 42.2433,
      "duration": 0.0161,
      "velocity": 115,
      "chip": "ym2612"
    },
    {
      "channel": 2,
      "note": 54,
      "start": 42.2483,
      "duration": 0.0158,
      "velocity": 100,
      "chip": "ym2612"
    },
    {
      "channel": 0,
      "note": 41,
      "start": 42.2595,
      "duration": 0.0179,
      "velocity": 124,
      "chip": "ym2612"
    },
    {
      "channel": 2,
      "note": 54,
      "start": 42.2641,
      "duration": 0.0192,
      "velocity": 100,
      "chip": "ym2612"
    },
    {
      "channel": 0,
      "note": 84,
      "start": 42.2774,
      "duration": 0.0143,
      "velocity": 124,
      "chip": "ym2612"
    },
    {
      "channel": 5,
      "note": 82,
      "start": 42.2789,
      "duration": 0.0141,
      "velocity": 101,
      "chip": "ym2612"
    },
    {
      "channel": 4,
      "note": 85,
      "start": 42.2803,
      "duration": 0.0139,
      "velocity": 101,
      "chip": "ym2612"
    },
    {
      "channel": 3,
      "note": 90,
      "start": 42.2818,
      "duration": 0.0137,
      "velocity": 101,
      "chip": "ym2612"
    },
    {
      "channel": 2,
      "note": 54,
      "start": 42.2833,
      "duration": 0.0134,
      "velocity": 100,
      "chip": "ym2612"
    },
    {
      "channel": 0,
      "note": 82,
      "start": 42.2917,
      "duration": 0.016,
      "velocity": 124,
      "chip": "ym2612"
    },
    {
      "channel": 5,
      "note": 82,
      "start": 42.2929,
      "duration": 0.016,
      "velocity": 101,
      "chip": "ym2612"
    },
    {
      "channel": 4,
      "note": 85,
      "start": 42.2942,
      "duration": 0.0159,
      "velocity": 101,
      "chip": "ym2612"
    },
    {
      "channel": 3,
      "note": 90,
      "start": 42.2955,
      "duration": 0.0159,
      "velocity": 101,
      "chip": "ym2612"
    },
    {
      "channel": 2,
      "note": 54,
      "start": 42.2967,
      "duration": 0.0158,
      "velocity": 100,
      "chip": "ym2612"
    },
    {
      "channel": 0,
      "note": 80,
      "start": 42.3078,
      "duration": 0.0161,
      "velocity": 124,
      "chip": "ym2612"
    },
    {
      "channel": 5,
      "note": 82,
      "start": 42.309,
      "duration": 0.0161,
      "velocity": 101,
      "chip": "ym2612"
    },
    {
      "channel": 4,
      "note": 85,
      "start": 42.3101,
      "duration": 0.0161,
      "velocity": 101,
      "chip": "ym2612"
    },
    {
      "channel": 3,
      "note": 90,
      "start": 42.3113,
      "duration": 0.0161,
      "velocity": 101,
      "chip": "ym2612"
    },
    {
      "channel": 2,
      "note": 54,
      "start": 42.3124,
      "duration": 0.0161,
      "velocity": 100,
      "chip": "ym2612"
    },
    {
      "channel": 0,
      "note": 77,
      "start": 42.3238,
      "duration": 0.0161,
      "velocity": 124,
      "chip": "ym2612"
    },
    {
      "channel": 5,
      "note": 82,
      "start": 42.3251,
      "duration": 0.0161,
      "velocity": 101,
      "chip": "ym2612"
    },
    {
      "channel": 4,
      "note": 85,
      "start": 42.3262,
      "duration": 0.0161,
      "velocity": 101,
      "chip": "ym2612"
    },
    {
      "channel": 3,
      "note": 90,
      "start": 42.3274,
      "duration": 0.0161,
      "velocity": 101,
      "chip": "ym2612"
    },
    {
      "channel": 2,
      "note": 54,
      "start": 42.3285,
      "duration": 0.0161,
      "velocity": 100,
      "chip": "ym2612"
    },
    {
      "channel": 0,
      "note": 75,
      "start": 42.3399,
      "duration": 0.0161,
      "velocity": 124,
      "chip": "ym2612"
    },
    {
      "channel": 5,
      "note": 82,
      "start": 42.3411,
      "duration": 0.0161,
      "velocity": 101,
      "chip": "ym2612"
    },
    {
      "channel": 4,
      "note": 85,
      "start": 42.3423,
      "duration": 0.0161,
      "velocity": 101,
      "chip": "ym2612"
    },
    {
      "channel": 3,
      "note": 90,
      "start": 42.3435,
      "duration": 0.0161,
      "velocity": 101,
      "chip": "ym2612"
    },
    {
      "channel": 2,
      "note": 54,
      "start": 42.3446,
      "duration": 0.0161,
      "velocity": 100,
      "chip": "ym2612"
    },
    {
      "channel": 0,
      "note": 72,
      "start": 42.356,
      "duration": 0.0179,
      "velocity": 124,
      "chip": "ym2612"
    },
    {
      "channel": 5,
      "note": 82,
      "start": 42.3572,
      "duration": 0.0179,
      "velocity": 101,
      "chip": "ym2612"
    },
    {
      "channel": 4,
      "note": 85,
      "start": 42.3584,
      "duration": 0.018,
      "velocity": 101,
      "chip": "ym2612"
    },
    {
      "channel": 3,
      "note": 90,
      "start": 42.3596,
      "duration": 0.018,
      "velocity": 101,
      "chip": "ym2612"
    },
    {
      "channel": 2,
      "note": 54,
      "start": 42.3607,
      "duration": 0.018,
      "velocity": 100,
      "chip": "ym2612"
    },
    {
      "channel": 0,
      "note": 84,
      "start": 42.374,
      "duration": 0.0142,
      "velocity": 124,
      "chip": "ym2612"
    },
    {
      "channel": 5,
      "note": 82,
      "start": 42.3752,
      "duration": 0.0144,
      "velocity": 101,
      "chip": "ym2612"
    },
    {
      "channel": 4,
      "note": 85,
      "start": 42.3764,
      "duration": 0.0144,
      "velocity": 101,
      "chip": "ym2612"
    },
    {
      "channel": 3,
      "note": 90,
      "start": 42.3776,
      "duration": 0.0145,
      "velocity": 101,
      "chip": "ym2612"
    },
    {
      "channel": 2,
      "note": 54,
      "start": 42.3787,
      "duration": 0.0145,
      "velocity": 100,
      "chip": "ym2612"
    },
    {
      "channel": 0,
      "note": 82,
      "start": 42.3883,
      "duration": 0.0161,
      "velocity": 124,
      "chip": "ym2612"
    },
    {
      "channel": 5,
      "note": 82,
      "start": 42.3895,
      "duration": 0.016,
      "velocity": 101,
      "chip": "ym2612"
    },
    {
      "channel": 4,
      "note": 85,
      "start": 42.3908,
      "duration": 0.016,
      "velocity": 101,
      "chip": "ym2612"
    },
    {
      "channel": 3,
      "note": 90,
      "start": 42.3921,
      "duration": 0.016,
      "velocity": 101,
      "chip": "ym2612"
    },
    {
      "channel": 2,
      "note": 54,
      "start": 42.3932,
      "duration": 0.016,
      "velocity": 100,
      "chip": "ym2612"
    },
    {
      "channel": 0,
      "note": 80,
      "start": 42.4044,
      "duration": 0.0161,
      "velocity": 124,
      "chip": "ym2612"
    },
    {
      "channel": 5,
      "note": 82,
      "start": 42.4056,
      "duration": 0.0161,
      "velocity": 101,
      "chip": "ym2612"
    },
    {
      "channel": 4,
      "note": 85,
      "start": 42.4068,
      "duration": 0.0161,
      "velocity": 101,
      "chip": "ym2612"
    },
    {
      "channel": 3,
      "note": 90,
      "start": 42.4081,
      "duration": 0.0161,
      "velocity": 101,
      "chip": "ym2612"
    },
    {
      "channel": 2,
      "note": 54,
      "start": 42.4092,
      "duration": 0.0162,
      "velocity": 100,
      "chip": "ym2612"
    },
    {
      "channel": 0,
      "note": 77,
      "start": 42.4205,
      "duration": 0.0161,
      "velocity": 124,
      "chip": "ym2612"
    },
    {
      "channel": 2,
      "note": 54,
      "start": 42.4254,
      "duration": 0.016,
      "velocity": 100,
      "chip": "ym2612"
    },
    {
      "channel": 0,
      "note": 75,
      "start": 42.4366,
      "duration": 0.0164,
      "velocity": 124,
      "chip": "ym2612"
    },
    {
      "channel": 2,
      "note": 54,
      "start": 42.4415,
      "duration": 0.0166,
      "velocity": 100,
      "chip": "ym2612"
    },
    {
      "channel": 0,
      "note": 72,
      "start": 42.453,
      "duration": 0.0163,
      "velocity": 124,
      "chip": "ym2612"
    },
    {
      "channel": 2,
      "note": 54,
      "start": 42.458,
      "duration": 0.016,
      "velocity": 100,
      "chip": "ym2612"
    },
    {
      "channel": 0,
      "note": 70,
      "start": 42.4693,
      "duration": 0.0162,
      "velocity": 124,
      "chip": "ym2612"
    },
    {
      "channel": 2,
      "note": 54,
      "start": 42.474,
      "duration": 0.0173,
      "velocity": 100,
      "chip": "ym2612"
    },
    {
      "channel": 0,
      "note": 68,
      "start": 42.4855,
      "duration": 0.016,
      "velocity": 124,
      "chip": "ym2612"
    },
    {
      "channel": 5,
      "note": 82,
      "start": 42.4869,
      "duration": 0.0159,
      "velocity": 101,
      "chip": "ym2612"
    },
    {
      "channel": 4,
      "note": 85,
      "start": 42.4884,
      "duration": 0.0156,
      "velocity": 101,
      "chip": "ym2612"
    },
    {
      "channel": 3,
      "note": 90,
      "start": 42.4899,
      "duration": 0.0155,
      "velocity": 101,
      "chip": "ym2612"
    },
    {
      "channel": 2,
      "note": 54,
      "start": 42.4913,
      "duration": 0.0152,
      "velocity": 100,
      "chip": "ym2612"
    },
    {
      "channel": 0,
      "note": 65,
      "start": 42.5015,
      "duration": 0.0158,
      "velocity": 124,
      "chip": "ym2612"
    },
    {
      "channel": 5,
      "note": 82,
      "start": 42.5028,
      "duration": 0.016,
      "velocity": 101,
      "chip": "ym2612"
    },
    {
      "channel": 4,
      "note": 85,
      "start": 42.5041,
      "duration": 0.016,
      "velocity": 101,
      "chip": "ym2612"
    },
    {
      "channel": 3,
      "note": 90,
      "start": 42.5053,
      "duration": 0.0159,
      "velocity": 101,
      "chip": "ym2612"
    },
    {
      "channel": 2,
      "note": 54,
      "start": 42.5065,
      "duration": 0.0159,
      "velocity": 100,
      "chip": "ym2612"
    },
    {
      "channel": 0,
      "note": 63,
      "start": 42.5173,
      "duration": 0.0151,
      "velocity": 1,
      "chip": "ym2612"
    },
    {
      "channel": 5,
      "note": 82,
      "start": 42.5188,
      "duration": 0.0147,
      "velocity": 101,
      "chip": "ym2612"
    },
    {
      "channel": 4,
      "note": 85,
      "start": 42.52,
      "duration": 0.0153,
      "velocity": 101,
      "chip": "ym2612"
    },
    {
      "channel": 3,
      "note": 90,
      "start": 42.5212,
      "duration": 0.0152,
      "velocity": 101,
      "chip": "ym2612"
    },
    {
      "channel": 2,
      "note": 54,
      "start": 42.5224,
      "duration": 0.0152,
      "velocity": 100,
      "chip": "ym2612"
    },
    {
      "channel": 5,
      "note": 82,
      "start": 42.5335,
      "duration": 0.0153,
      "velocity": 101,
      "chip": "ym2612"
    },
    {
      "channel": 4,
      "note": 85,
      "start": 42.5353,
      "duration": 0.0146,
      "velocity": 101,
      "chip": "ym2612"
    },
    {
      "channel": 3,
      "note": 90,
      "start": 42.5364,
      "duration": 0.0152,
      "velocity": 101,
      "chip": "ym2612"
    },
    {
      "channel": 2,
      "note": 54,
      "start": 42.5376,
      "duration": 0.0153,
      "velocity": 100,
      "chip": "ym2612"
    },
    {
      "channel": 5,
      "note": 82,
      "start": 42.5488,
      "duration": 0.0161,
      "velocity": 101,
      "chip": "ym2612"
    },
    {
      "channel": 4,
      "note": 85,
      "start": 42.5499,
      "duration": 0.0161,
      "velocity": 101,
      "chip": "ym2612"
    },
    {
      "channel": 3,
      "note": 90,
      "start": 42.5516,
      "duration": 0.0159,
      "velocity": 101,
      "chip": "ym2612"
    },
    {
      "channel": 2,
      "note": 54,
      "start": 42.5529,
      "duration": 0.0161,
      "velocity": 100,
      "chip": "ym2612"
    },
    {
      "channel": 5,
      "note": 82,
      "start": 42.5649,
      "duration": 0.0202,
      "velocity": 101,
      "chip": "ym2612"
    },
    {
      "channel": 4,
      "note": 85,
      "start": 42.5661,
      "duration": 0.0202,
      "velocity": 101,
      "chip": "ym2612"
    },
    {
      "channel": 3,
      "note": 90,
      "start": 42.5675,
      "duration": 0.02,
      "velocity": 101,
      "chip": "ym2612"
    },
    {
      "channel": 2,
      "note": 54,
      "start": 42.569,
      "duration": 0.0196,
      "velocity": 100,
      "chip": "ym2612"
    },
    {
      "channel": 0,
      "note": 36,
      "start": 42.5833,
      "duration": 0.0143,
      "velocity": 115,
      "chip": "ym2612"
    },
    {
      "channel": 5,
      "note": 82,
      "start": 42.585,
      "duration": 0.0139,
      "velocity": 101,
      "chip": "ym2612"
    },
    {
      "channel": 4,
      "note": 85,
      "start": 42.5862,
      "duration": 0.0139,
      "velocity": 101,
      "chip": "ym2612"
    },
    {
      "channel": 3,
      "note": 90,
      "start": 42.5875,
      "duration": 0.0146,
      "velocity": 101,
      "chip": "ym2612"
    },
    {
      "channel": 2,
      "note": 54,
      "start": 42.5886,
      "duration": 0.0146,
      "velocity": 100,
      "chip": "ym2612"
    },
    {
      "channel": 0,
      "note": 36,
      "start": 42.5976,
      "duration": 0.016,
      "velocity": 115,
      "chip": "ym2612"
    },
    {
      "channel": 5,
      "note": 82,
      "start": 42.5989,
      "duration": 0.016,
      "velocity": 101,
      "chip": "ym2612"
    },
    {
      "channel": 4,
      "note": 85,
      "start": 42.6002,
      "duration": 0.0159,
      "velocity": 101,
      "chip": "ym2612"
    },
    {
      "channel": 3,
      "note": 90,
      "start": 42.602,
      "duration": 0.0159,
      "velocity": 101,
      "chip": "ym2612"
    },
    {
      "channel": 2,
      "note": 54,
      "start": 42.6032,
      "duration": 0.0159,
      "velocity": 100,
      "chip": "ym2612"
    },
    {
      "channel": 0,
      "note": 37,
      "start": 42.6137,
      "duration": 0.0161,
      "velocity": 115,
      "chip": "ym2612"
    },
    {
      "channel": 5,
      "note": 82,
      "start": 42.6149,
      "duration": 0.0161,
      "velocity": 101,
      "chip": "ym2612"
    },
    {
      "channel": 4,
      "note": 85,
      "start": 42.6161,
      "duration": 0.0162,
      "velocity": 101,
      "chip": "ym2612"
    },
    {
      "channel": 3,
      "note": 90,
      "start": 42.6179,
      "duration": 0.0156,
      "velocity": 101,
      "chip": "ym2612"
    },
    {
      "channel": 2,
      "note": 54,
      "start": 42.6191,
      "duration": 0.0162,
      "velocity": 100,
      "chip": "ym2612"
    },
    {
      "channel": 0,
      "note": 37,
      "start": 42.6298,
      "duration": 0.0161,
      "velocity": 115,
      "chip": "ym2612"
    },
    {
      "channel": 2,
      "note": 54,
      "start": 42.6353,
      "duration": 0.016,
      "velocity": 100,
      "chip": "ym2612"
    },
    {
      "channel": 0,
      "note": 38,
      "start": 42.6459,
      "duration": 0.0161,
      "velocity": 115,
      "chip": "ym2612"
    },
    {
      "channel": 2,
      "note": 54,
      "start": 42.6512,
      "duration": 0.0157,
      "velocity": 100,
      "chip": "ym2612"
    },
    {
      "channel": 0,
      "note": 38,
      "start": 42.662,
      "duration": 0.0161,
      "velocity": 115,
      "chip": "ym2612"
    },
    {
      "channel": 2,
      "note": 54,
      "start": 42.6669,
      "duration": 0.0158,
      "velocity": 100,
      "chip": "ym2612"
    },
    {
      "channel": 0,
      "note": 39,
      "start": 42.678,
      "duration": 0.018,
      "velocity": 115,
      "chip": "ym2612"
    },
    {
      "channel": 2,
      "note": 54,
      "start": 42.6827,
      "duration": 0.0197,
      "velocity": 100,
      "chip": "ym2612"
    },
    {
      "channel": 0,
      "note": 36,
      "start": 42.696,
      "duration": 0.0143,
      "velocity": 115,
      "chip": "ym2612"
    },
    {
      "channel": 5,
      "note": 83,
      "start": 42.6975,
      "duration": 0.0141,
      "velocity": 101,
      "chip": "ym2612"
    },
    {
      "channel": 4,
      "note": 88,
      "start": 42.699,
      "duration": 0.0139,
      "velocity": 101,
      "chip": "ym2612"
    },
    {
      "channel": 3,
      "note": 92,
      "start": 42.7007,
      "duration": 0.0134,
      "velocity": 101,
      "chip": "ym2612"
    },
    {
      "channel": 2,
      "note": 54,
      "start": 42.7025,
      "duration": 0.0128,
      "velocity": 100,
      "chip": "ym2612"
    },
    {
      "channel": 0,
      "note": 36,
      "start": 42.7104,
      "duration": 0.016,
      "velocity": 115,
      "chip": "ym2612"
    },
    {
      "channel": 5,
      "note": 83,
      "start": 42.7116,
      "duration": 0.016,
      "velocity": 101,
      "chip": "ym2612"
    },
    {
      "channel": 4,
      "note": 88,
      "start": 42.7128,
      "duration": 0.0159,
      "velocity": 101,
      "chip": "ym2612"
    },
    {
      "channel": 3,
      "note": 92,
      "start": 42.7141,
      "duration": 0.0159,
      "velocity": 101,
      "chip": "ym2612"
    },
    {
      "channel": 2,
      "note": 54,
      "start": 42.7153,
      "duration": 0.0158,
      "velocity": 100,
      "chip": "ym2612"
    },
    {
      "channel": 0,
      "note": 37,
      "start": 42.7264,
      "duration": 0.0161,
      "velocity": 115,
      "chip": "ym2612"
    },
    {
      "channel": 5,
      "note": 83,
      "start": 42.7275,
      "duration": 0.0161,
      "velocity": 101,
      "chip": "ym2612"
    },
    {
      "channel": 4,
      "note": 88,
      "start": 42.7287,
      "duration": 0.0161,
      "velocity": 101,
      "chip": "ym2612"
    },
    {
      "channel": 3,
      "note": 92,
      "start": 42.73,
      "duration": 0.0161,
      "velocity": 101,
      "chip": "ym2612"
    },
    {
      "channel": 2,
      "note": 54,
      "start": 42.7311,
      "duration": 0.0161,
      "velocity": 100,
      "chip": "ym2612"
    },
    {
      "channel": 0,
      "note": 37,
      "start": 42.7425,
      "duration": 0.0161,
      "velocity": 115,
      "chip": "ym2612"
    },
    {
      "channel": 5,
      "note": 83,
      "start": 42.7436,
      "duration": 0.0161,
      "velocity": 101,
      "chip": "ym2612"
    },
    {
      "channel": 4,
      "note": 88,
      "start": 42.7448,
      "duration": 0.0161,
      "velocity": 101,
      "chip": "ym2612"
    },
    {
      "channel": 3,
      "note": 92,
      "start": 42.746,
      "duration": 0.0161,
      "velocity": 101,
      "chip": "ym2612"
    },
    {
      "channel": 2,
      "note": 54,
      "start": 42.7472,
      "duration": 0.0161,
      "velocity": 100,
      "chip": "ym2612"
    },
    {
      "channel": 0,
      "note": 38,
      "start": 42.7586,
      "duration": 0.0161,
      "velocity": 115,
      "chip": "ym2612"
    },
    {
      "channel": 5,
      "note": 83,
      "start": 42.7597,
      "duration": 0.0161,
      "velocity": 101,
      "chip": "ym2612"
    },
    {
      "channel": 4,
      "note": 88,
      "start": 42.7609,
      "duration": 0.0161,
      "velocity": 101,
      "chip": "ym2612"
    },
    {
      "channel": 3,
      "note": 92,
      "start": 42.7621,
      "duration": 0.0161,
      "velocity": 101,
      "chip": "ym2612"
    },
    {
      "channel": 2,
      "note": 54,
      "start": 42.7633,
      "duration": 0.0161,
      "velocity": 100,
      "chip": "ym2612"
    },
    {
      "channel": 0,
      "note": 38,
      "start": 42.7747,
      "duration": 0.0179,
      "velocity": 124,
      "chip": "ym2612"
    },
    {
      "channel": 5,
      "note": 83,
      "start": 42.7759,
      "duration": 0.0179,
      "velocity": 101,
      "chip": "ym2612"
    },
    {
      "channel": 4,
      "note": 88,
      "start": 42.777,
      "duration": 0.018,
      "velocity": 101,
      "chip": "ym2612"
    },
    {
      "channel": 3,
      "note": 92,
      "start": 42.7782,
      "duration": 0.018,
      "velocity": 101,
      "chip": "ym2612"
    },
    {
      "channel": 2,
      "note": 54,
      "start": 42.7794,
      "duration": 0.0183,
      "velocity": 100,
      "chip": "ym2612"
    },
    {
      "channel": 0,
      "note": 84,
      "start": 42.7927,
      "duration": 0.0142,
      "velocity": 124,
      "chip": "ym2612"
    },
    {
      "channel": 5,
      "note": 83,
      "start": 42.7938,
      "duration": 0.0143,
      "velocity": 101,
      "chip": "ym2612"
    },
    {
      "channel": 4,
      "note": 88,
      "start": 42.795,
      "duration": 0.0143,
      "velocity": 101,
      "chip": "ym2612"
    },
    {
      "channel": 3,
      "note": 92,
      "start": 42.7962,
      "duration": 0.0142,
      "velocity": 101,
      "chip": "ym2612"
    },
    {
      "channel": 2,
      "note": 66,
      "start": 42.7976,
      "duration": 0.0141,
      "velocity": 100,
      "chip": "ym2612"
    },
    {
      "channel": 0,
      "note": 82,
      "start": 42.8069,
      "duration": 0.016,
      "velocity": 124,
      "chip": "ym2612"
    },
    {
      "channel": 5,
      "note": 83,
      "start": 42.8081,
      "duration": 0.016,
      "velocity": 101,
      "chip": "ym2612"
    },
    {
      "channel": 4,
      "note": 88,
      "start": 42.8093,
      "duration": 0.016,
      "velocity": 101,
      "chip": "ym2612"
    },
    {
      "channel": 3,
      "note": 92,
      "start": 42.8105,
      "duration": 0.016,
      "velocity": 101,
      "chip": "ym2612"
    },
    {
      "channel": 2,
      "note": 66,
      "start": 42.8117,
      "duration": 0.016,
      "velocity": 100,
      "chip": "ym2612"
    },
    {
      "channel": 0,
      "note": 80,
      "start": 42.8229,
      "duration": 0.0162,
      "velocity": 124,
      "chip": "ym2612"
    },
    {
      "channel": 5,
      "note": 83,
      "start": 42.8241,
      "duration": 0.0161,
      "velocity": 101,
      "chip": "ym2612"
    },
    {
      "channel": 4,
      "note": 88,
      "start": 42.8254,
      "duration": 0.0161,
      "velocity": 101,
      "chip": "ym2612"
    },
    {
      "channel": 3,
      "note": 92,
      "start": 42.8265,
      "duration": 0.0161,
      "velocity": 101,
      "chip": "ym2612"
    },
    {
      "channel": 2,
      "note": 66,
      "start": 42.8277,
      "duration": 0.0161,
      "velocity": 100,
      "chip": "ym2612"
    },
    {
      "channel": 0,
      "note": 77,
      "start": 42.8391,
      "duration": 0.0161,
      "velocity": 124,
      "chip": "ym2612"
    },
    {
      "channel": 5,
      "note": 83,
      "start": 42.8402,
      "duration": 0.0161,
      "velocity": 101,
      "chip": "ym2612"
    },
    {
      "channel": 4,
      "note": 88,
      "start": 42.8415,
      "duration": 0.0161,
      "velocity": 101,
      "chip": "ym2612"
    },
    {
      "channel": 3,
      "note": 92,
      "start": 42.8426,
      "duration": 0.0161,
      "velocity": 101,
      "chip": "ym2612"
    },
    {
      "channel": 2,
      "note": 66,
      "start": 42.8437,
      "duration": 0.0162,
      "velocity": 100,
      "chip": "ym2612"
    },
    {
      "channel": 0,
      "note": 75,
      "start": 42.8552,
      "duration": 0.0161,
      "velocity": 124,
      "chip": "ym2612"
    },
    {
      "channel": 5,
      "note": 83,
      "start": 42.8563,
      "duration": 0.0161,
      "velocity": 101,
      "chip": "ym2612"
    },
    {
      "channel": 4,
      "note": 88,
      "start": 42.8576,
      "duration": 0.0161,
      "velocity": 101,
      "chip": "ym2612"
    },
    {
      "channel": 3,
      "note": 92,
      "start": 42.8588,
      "duration": 0.0161,
      "velocity": 101,
      "chip": "ym2612"
    },
    {
      "channel": 2,
      "note": 66,
      "start": 42.8599,
      "duration": 0.0161,
      "velocity": 100,
      "chip": "ym2612"
    },
    {
      "channel": 0,
      "note": 72,
      "start": 42.8713,
      "duration": 0.0161,
      "velocity": 124,
      "chip": "ym2612"
    },
    {
      "channel": 5,
      "note": 83,
      "start": 42.8725,
      "duration": 0.0161,
      "velocity": 101,
      "chip": "ym2612"
    },
    {
      "channel": 4,
      "note": 88,
      "start": 42.8737,
      "duration": 0.0161,
      "velocity": 101,
      "chip": "ym2612"
    },
    {
      "channel": 3,
      "note": 92,
      "start": 42.8749,
      "duration": 0.0161,
      "velocity": 101,
      "chip": "ym2612"
    },
    {
      "channel": 2,
      "note": 66,
      "start": 42.876,
      "duration": 0.0161,
      "velocity": 100,
      "chip": "ym2612"
    },
    {
      "channel": 0,
      "note": 70,
      "start": 42.8874,
      "duration": 0.0179,
      "velocity": 115,
      "chip": "ym2612"
    },
    {
      "channel": 5,
      "note": 83,
      "start": 42.8886,
      "duration": 0.018,
      "velocity": 101,
      "chip": "ym2612"
    },
    {
      "channel": 4,
      "note": 88,
      "start": 42.8898,
      "duration": 0.018,
      "velocity": 101,
      "chip": "ym2612"
    },
    {
      "channel": 3,
      "note": 92,
      "start": 42.891,
      "duration": 0.0181,
      "velocity": 101,
      "chip": "ym2612"
    },
    {
      "channel": 2,
      "note": 66,
      "start": 42.8921,
      "duration": 0.0183,
      "velocity": 100,
      "chip": "ym2612"
    },
    {
      "channel": 0,
      "note": 36,
      "start": 42.9054,
      "duration": 0.0146,
      "velocity": 115,
      "chip": "ym2612"
    },
    {
      "channel": 5,
      "note": 83,
      "start": 42.9066,
      "duration": 0.0146,
      "velocity": 101,
      "chip": "ym2612"
    },
    {
      "channel": 4,
      "note": 88,
      "start": 42.9078,
      "duration": 0.0146,
      "velocity": 101,
      "chip": "ym2612"
    },
    {
      "channel": 3,
      "note": 92,
      "start": 42.909,
      "duration": 0.0146,
      "velocity": 101,
      "chip": "ym2612"
    },
    {
      "channel": 2,
      "note": 54,
      "start": 42.9105,
      "duration": 0.0144,
      "velocity": 100,
      "chip": "ym2612"
    },
    {
      "channel": 0,
      "note": 36,
      "start": 42.92,
      "duration": 0.0163,
      "velocity": 115,
      "chip": "ym2612"
    },
    {
      "channel": 5,
      "note": 83,
      "start": 42.9212,
      "duration": 0.0163,
      "velocity": 101,
      "chip": "ym2612"
    },
    {
      "channel": 4,
      "note": 88,
      "start": 42.9224,
      "duration": 0.0163,
      "velocity": 101,
      "chip": "ym2612"
    },
    {
      "channel": 3,
      "note": 92,
      "start": 42.9236,
      "duration": 0.0163,
      "velocity": 101,
      "chip": "ym2612"
    },
    {
      "channel": 2,
      "note": 54,
      "start": 42.9249,
      "duration": 0.0162,
      "velocity": 100,
      "chip": "ym2612"
    },
    {
      "channel": 0,
      "note": 37,
      "start": 42.9362,
      "duration": 0.0162,
      "velocity": 115,
      "chip": "ym2612"
    },
    {
      "channel": 5,
      "note": 83,
      "start": 42.9375,
      "duration": 0.0161,
      "velocity": 101,
      "chip": "ym2612"
    },
    {
      "channel": 4,
      "note": 88,
      "start": 42.9387,
      "duration": 0.0162,
      "velocity": 101,
      "chip": "ym2612"
    },
    {
      "channel": 3,
      "note": 92,
      "start": 42.9399,
      "duration": 0.0162,
      "velocity": 101,
      "chip": "ym2612"
    },
    {
      "channel": 2,
      "note": 54,
      "start": 42.941,
      "duration": 0.0161,
      "velocity": 100,
      "chip": "ym2612"
    },
    {
      "channel": 0,
      "note": 37,
      "start": 42.9524,
      "duration": 0.0161,
      "velocity": 115,
      "chip": "ym2612"
    },
    {
      "channel": 5,
      "note": 83,
      "start": 42.9536,
      "duration": 0.0161,
      "velocity": 101,
      "chip": "ym2612"
    },
    {
      "channel": 4,
      "note": 88,
      "start": 42.9548,
      "duration": 0.0161,
      "velocity": 101,
      "chip": "ym2612"
    },
    {
      "channel": 3,
      "note": 92,
      "start": 42.956,
      "duration": 0.0161,
      "velocity": 101,
      "chip": "ym2612"
    },
    {
      "channel": 2,
      "note": 54,
      "start": 42.9572,
      "duration": 0.0161,
      "velocity": 100,
      "chip": "ym2612"
    },
    {
      "channel": 0,
      "note": 38,
      "start": 42.9685,
      "duration": 0.0157,
      "velocity": 115,
      "chip": "ym2612"
    },
    {
      "channel": 5,
      "note": 83,
      "start": 42.9697,
      "duration": 0.0161,
      "velocity": 101,
      "chip": "ym2612"
    },
    {
      "channel": 4,
      "note": 88,
      "start": 42.9709,
      "duration": 0.0161,
      "velocity": 101,
      "chip": "ym2612"
    },
    {
      "channel": 3,
      "note": 92,
      "start": 42.9721,
      "duration": 0.0161,
      "velocity": 101,
      "chip": "ym2612"
    },
    {
      "channel": 2,
      "note": 54,
      "start": 42.9733,
      "duration": 0.0161,
      "velocity": 100,
      "chip": "ym2612"
    },
    {
      "channel": 0,
      "note": 38,
      "start": 42.9842,
      "duration": 0.0183,
      "velocity": 124,
      "chip": "ym2612"
    },
    {
      "channel": 5,
      "note": 83,
      "start": 42.9858,
      "duration": 0.0179,
      "velocity": 101,
      "chip": "ym2612"
    },
    {
      "channel": 4,
      "note": 88,
      "start": 42.987,
      "duration": 0.0179,
      "velocity": 101,
      "chip": "ym2612"
    },
    {
      "channel": 3,
      "note": 92,
      "start": 42.9882,
      "duration": 0.0179,
      "velocity": 101,
      "chip": "ym2612"
    },
    {
      "channel": 2,
      "note": 54,
      "start": 42.9894,
      "duration": 0.0182,
      "velocity": 100,
      "chip": "ym2612"
    },
    {
      "channel": 0,
      "note": 84,
      "start": 43.0025,
      "duration": 0.0137,
      "velocity": 124,
      "chip": "ym2612"
    },
    {
      "channel": 5,
      "note": 83,
      "start": 43.0037,
      "duration": 0.0143,
      "velocity": 101,
      "chip": "ym2612"
    },
    {
      "channel": 4,
      "note": 88,
      "start": 43.0049,
      "duration": 0.0144,
      "velocity": 101,
      "chip": "ym2612"
    },
    {
      "channel": 3,
      "note": 92,
      "start": 43.0061,
      "duration": 0.0146,
      "velocity": 101,
      "chip": "ym2612"
    },
    {
      "channel": 2,
      "note": 54,
      "start": 43.0076,
      "duration": 0.0144,
      "velocity": 100,
      "chip": "ym2612"
    },
    {
      "channel": 0,
      "note": 82,
      "start": 43.0163,
      "duration": 0.016,
      "velocity": 124,
      "chip": "ym2612"
    },
    {
      "channel": 5,
      "note": 83,
      "start": 43.018,
      "duration": 0.0155,
      "velocity": 101,
      "chip": "ym2612"
    },
    {
      "channel": 4,
      "note": 88,
      "start": 43.0194,
      "duration": 0.016,
      "velocity": 101,
      "chip": "ym2612"
    },
    {
      "channel": 3,
      "note": 92,
      "start": 43.0207,
      "duration": 0.016,
      "velocity": 101,
      "chip": "ym2612"
    },
    {
      "channel": 2,
      "note": 54,
      "start": 43.0219,
      "duration": 0.0159,
      "velocity": 100,
      "chip": "ym2612"
    },
    {
      "channel": 0,
      "note": 80,
      "start": 43.0323,
      "duration": 0.0161,
      "velocity": 124,
      "chip": "ym2612"
    },
    {
      "channel": 5,
      "note": 83,
      "start": 43.0336,
      "duration": 0.0161,
      "velocity": 101,
      "chip": "ym2612"
    },
    {
      "channel": 4,
      "note": 88,
      "start": 43.0354,
      "duration": 0.016,
      "velocity": 101,
      "chip": "ym2612"
    },
    {
      "channel": 3,
      "note": 92,
      "start": 43.0367,
      "duration": 0.0161,
      "velocity": 101,
      "chip": "ym2612"
    },
    {
      "channel": 2,
      "note": 54,
      "start": 43.0378,
      "duration": 0.0161,
      "velocity": 100,
      "chip": "ym2612"
    },
    {
      "channel": 0,
      "note": 77,
      "start": 43.0484,
      "duration": 0.0161,
      "velocity": 124,
      "chip": "ym2612"
    },
    {
      "channel": 2,
      "note": 54,
      "start": 43.0539,
      "duration": 0.016,
      "velocity": 100,
      "chip": "ym2612"
    },
    {
      "channel": 0,
      "note": 75,
      "start": 43.0645,
      "duration": 0.0161,
      "velocity": 124,
      "chip": "ym2612"
    },
    {
      "channel": 2,
      "note": 54,
      "start": 43.07,
      "duration": 0.0162,
      "velocity": 100,
      "chip": "ym2612"
    },
    {
      "channel": 0,
      "note": 72,
      "start": 43.0806,
      "duration": 0.0161,
      "velocity": 124,
      "chip": "ym2612"
    },
    {
      "channel": 2,
      "note": 54,
      "start": 43.0861,
      "duration": 0.0159,
      "velocity": 100,
      "chip": "ym2612"
    },
    {
      "channel": 0,
      "note": 70,
      "start": 43.0967,
      "duration": 0.018,
      "velocity": 124,
      "chip": "ym2612"
    },
    {
      "channel": 2,
      "note": 54,
      "start": 43.102,
      "duration": 0.0191,
      "velocity": 100,
      "chip": "ym2612"
    },
    {
      "channel": 0,
      "note": 84,
      "start": 43.1147,
      "duration": 0.0143,
      "velocity": 124,
      "chip": "ym2612"
    },
    {
      "channel": 5,
      "note": 85,
      "start": 43.1161,
      "duration": 0.0141,
      "velocity": 101,
      "chip": "ym2612"
    },
    {
      "channel": 4,
      "note": 90,
      "start": 43.1182,
      "duration": 0.0133,
      "velocity": 101,
      "chip": "ym2612"
    },
    {
      "channel": 3,
      "note": 94,
      "start": 43.1197,
      "duration": 0.013,
      "velocity": 101,
      "chip": "ym2612"
    },
    {
      "channel": 2,
      "note": 56,
      "start": 43.1211,
      "duration": 0.013,
      "velocity": 100,
      "chip": "ym2612"
    },
    {
      "channel": 0,
      "note": 82,
      "start": 43.1289,
      "duration": 0.0161,
      "velocity": 124,
      "chip": "ym2612"
    },
    {
      "channel": 5,
      "note": 85,
      "start": 43.1302,
      "duration": 0.016,
      "velocity": 101,
      "chip": "ym2612"
    },
    {
      "channel": 4,
      "note": 90,
      "start": 43.1315,
      "duration": 0.0159,
      "velocity": 101,
      "chip": "ym2612"
    },
    {
      "channel": 3,
      "note": 94,
      "start": 43.1327,
      "duration": 0.0159,
      "velocity": 101,
      "chip": "ym2612"
    },
    {
      "channel": 2,
      "note": 56,
      "start": 43.1341,
      "duration": 0.0156,
      "velocity": 100,
      "chip": "ym2612"
    },
    {
      "channel": 0,
      "note": 80,
      "start": 43.145,
      "duration": 0.0161,
      "velocity": 124,
      "chip": "ym2612"
    },
    {
      "channel": 5,
      "note": 85,
      "start": 43.1462,
      "duration": 0.0161,
      "velocity": 101,
      "chip": "ym2612"
    },
    {
      "channel": 4,
      "note": 90,
      "start": 43.1474,
      "duration": 0.0161,
      "velocity": 101,
      "chip": "ym2612"
    },
    {
      "channel": 3,
      "note": 94,
      "start": 43.1485,
      "duration": 0.0161,
      "velocity": 101,
      "chip": "ym2612"
    },
    {
      "channel": 2,
      "note": 56,
      "start": 43.1497,
      "duration": 0.0161,
      "velocity": 100,
      "chip": "ym2612"
    },
    {
      "channel": 0,
      "note": 77,
      "start": 43.1611,
      "duration": 0.0161,
      "velocity": 124,
      "chip": "ym2612"
    },
    {
      "channel": 5,
      "note": 85,
      "start": 43.1623,
      "duration": 0.0161,
      "velocity": 101,
      "chip": "ym2612"
    },
    {
      "channel": 4,
      "note": 90,
      "start": 43.1635,
      "duration": 0.0161,
      "velocity": 101,
      "chip": "ym2612"
    },
    {
      "channel": 3,
      "note": 94,
      "start": 43.1646,
      "duration": 0.0161,
      "velocity": 101,
      "chip": "ym2612"
    },
    {
      "channel": 2,
      "note": 56,
      "start": 43.1658,
      "duration": 0.0161,
      "velocity": 100,
      "chip": "ym2612"
    },
    {
      "channel": 0,
      "note": 75,
      "start": 43.1772,
      "duration": 0.0161,
      "velocity": 124,
      "chip": "ym2612"
    },
    {
      "channel": 5,
      "note": 85,
      "start": 43.1784,
      "duration": 0.0161,
      "velocity": 101,
      "chip": "ym2612"
    },
    {
      "channel": 4,
      "note": 90,
      "start": 43.1796,
      "duration": 0.0161,
      "velocity": 101,
      "chip": "ym2612"
    },
    {
      "channel": 3,
      "note": 94,
      "start": 43.1808,
      "duration": 0.0161,
      "velocity": 101,
      "chip": "ym2612"
    },
    {
      "channel": 2,
      "note": 56,
      "start": 43.1819,
      "duration": 0.0161,
      "velocity": 100,
      "chip": "ym2612"
    },
    {
      "channel": 0,
      "note": 72,
      "start": 43.1933,
      "duration": 0.0179,
      "velocity": 124,
      "chip": "ym2612"
    },
    {
      "channel": 5,
      "note": 85,
      "start": 43.1945,
      "duration": 0.0179,
      "velocity": 101,
      "chip": "ym2612"
    },
    {
      "channel": 4,
      "note": 90,
      "start": 43.1957,
      "duration": 0.0179,
      "velocity": 101,
      "chip": "ym2612"
    },
    {
      "channel": 3,
      "note": 94,
      "start": 43.1969,
      "duration": 0.0179,
      "velocity": 101,
      "chip": "ym2612"
    },
    {
      "channel": 2,
      "note": 56,
      "start": 43.198,
      "duration": 0.0179,
      "velocity": 100,
      "chip": "ym2612"
    },
    {
      "channel": 0,
      "note": 84,
      "start": 43.2112,
      "duration": 0.0143,
      "velocity": 124,
      "chip": "ym2612"
    },
    {
      "channel": 5,
      "note": 85,
      "start": 43.2124,
      "duration": 0.0144,
      "velocity": 101,
      "chip": "ym2612"
    },
    {
      "channel": 4,
      "note": 90,
      "start": 43.2136,
      "duration": 0.0144,
      "velocity": 101,
      "chip": "ym2612"
    },
    {
      "channel": 3,
      "note": 94,
      "start": 43.2147,
      "duration": 0.0144,
      "velocity": 101,
      "chip": "ym2612"
    },
    {
      "channel": 2,
      "note": 56,
      "start": 43.2159,
      "duration": 0.0143,
      "velocity": 100,
      "chip": "ym2612"
    },
    {
      "channel": 0,
      "note": 82,
      "start": 43.2256,
      "duration": 0.016,
      "velocity": 124,
      "chip": "ym2612"
    },
    {
      "channel": 5,
      "note": 85,
      "start": 43.2268,
      "duration": 0.016,
      "velocity": 101,
      "chip": "ym2612"
    },
    {
      "channel": 4,
      "note": 90,
      "start": 43.228,
      "duration": 0.016,
      "velocity": 101,
      "chip": "ym2612"
    },
    {
      "channel": 3,
      "note": 94,
      "start": 43.2291,
      "duration": 0.016,
      "velocity": 101,
      "chip": "ym2612"
    },
    {
      "channel": 2,
      "note": 56,
      "start": 43.2303,
      "duration": 0.016,
      "velocity": 100,
      "chip": "ym2612"
    },
    {
      "channel": 0,
      "note": 80,
      "start": 43.2416,
      "duration": 0.0161,
      "velocity": 124,
      "chip": "ym2612"
    },
    {
      "channel": 5,
      "note": 85,
      "start": 43.2428,
      "duration": 0.0161,
      "velocity": 101,
      "chip": "ym2612"
    },
    {
      "channel": 4,
      "note": 90,
      "start": 43.244,
      "duration": 0.0161,
      "velocity": 101,
      "chip": "ym2612"
    },
    {
      "channel": 3,
      "note": 94,
      "start": 43.2451,
      "duration": 0.0161,
      "velocity": 101,
      "chip": "ym2612"
    },
    {
      "channel": 2,
      "note": 56,
      "start": 43.2463,
      "duration": 0.0161,
      "velocity": 100,
      "chip": "ym2612"
    },
    {
      "channel": 0,
      "note": 77,
      "start": 43.2577,
      "duration": 0.0161,
      "velocity": 124,
      "chip": "ym2612"
    },
    {
      "channel": 5,
      "note": 85,
      "start": 43.2589,
      "duration": 0.0161,
      "velocity": 101,
      "chip": "ym2612"
    },
    {
      "channel": 4,
      "note": 90,
      "start": 43.2601,
      "duration": 0.0161,
      "velocity": 101,
      "chip": "ym2612"
    },
    {
      "channel": 3,
      "note": 94,
      "start": 43.2612,
      "duration": 0.0161,
      "velocity": 101,
      "chip": "ym2612"
    },
    {
      "channel": 2,
      "note": 56,
      "start": 43.2624,
      "duration": 0.0161,
      "velocity": 100,
      "chip": "ym2612"
    },
    {
      "channel": 0,
      "note": 75,
      "start": 43.2738,
      "duration": 0.0161,
      "velocity": 124,
      "chip": "ym2612"
    },
    {
      "channel": 5,
      "note": 85,
      "start": 43.275,
      "duration": 0.0161,
      "velocity": 101,
      "chip": "ym2612"
    },
    {
      "channel": 4,
      "note": 90,
      "start": 43.2762,
      "duration": 0.0161,
      "velocity": 101,
      "chip": "ym2612"
    },
    {
      "channel": 3,
      "note": 94,
      "start": 43.2773,
      "duration": 0.0161,
      "velocity": 101,
      "chip": "ym2612"
    },
    {
      "channel": 2,
      "note": 56,
      "start": 43.2785,
      "duration": 0.0161,
      "velocity": 100,
      "chip": "ym2612"
    },
    {
      "channel": 0,
      "note": 72,
      "start": 43.2899,
      "duration": 0.0161,
      "velocity": 124,
      "chip": "ym2612"
    },
    {
      "channel": 5,
      "note": 85,
      "start": 43.2911,
      "duration": 0.0161,
      "velocity": 101,
      "chip": "ym2612"
    },
    {
      "channel": 4,
      "note": 90,
      "start": 43.2923,
      "duration": 0.0161,
      "velocity": 101,
      "chip": "ym2612"
    },
    {
      "channel": 3,
      "note": 94,
      "start": 43.2934,
      "duration": 0.0161,
      "velocity": 101,
      "chip": "ym2612"
    },
    {
      "channel": 2,
      "note": 56,
      "start": 43.2946,
      "duration": 0.0161,
      "velocity": 100,
      "chip": "ym2612"
    },
    {
      "channel": 0,
      "note": 70,
      "start": 43.306,
      "duration": 0.0179,
      "velocity": 124,
      "chip": "ym2612"
    },
    {
      "channel": 5,
      "note": 85,
      "start": 43.3072,
      "duration": 0.018,
      "velocity": 101,
      "chip": "ym2612"
    },
    {
      "channel": 4,
      "note": 90,
      "start": 43.3084,
      "duration": 0.018,
      "velocity": 101,
      "chip": "ym2612"
    },
    {
      "channel": 3,
      "note": 94,
      "start": 43.3095,
      "duration": 0.0181,
      "velocity": 101,
      "chip": "ym2612"
    },
    {
      "channel": 2,
      "note": 56,
      "start": 43.3107,
      "duration": 0.0183,
      "velocity": 100,
      "chip": "ym2612"
    },
    {
      "channel": 0,
      "note": 84,
      "start": 43.324,
      "duration": 0.0143,
      "velocity": 124,
      "chip": "ym2612"
    },
    {
      "channel": 5,
      "note": 85,
      "start": 43.3252,
      "duration": 0.0143,
      "velocity": 101,
      "chip": "ym2612"
    },
    {
      "channel": 4,
      "note": 90,
      "start": 43.3264,
      "duration": 0.0143,
      "velocity": 101,
      "chip": "ym2612"
    },
    {
      "channel": 3,
      "note": 94,
      "start": 43.3276,
      "duration": 0.0143,
      "velocity": 101,
      "chip": "ym2612"
    },
    {
      "channel": 2,
      "note": 58,
      "start": 43.329,
      "duration": 0.0141,
      "velocity": 100,
      "chip": "ym2612"
    },
    {
      "channel": 0,
      "note": 82,
      "start": 43.3383,
      "duration": 0.016,
      "velocity": 124,
      "chip": "ym2612"
    },
    {
      "channel": 5,
      "note": 85,
      "start": 43.3395,
      "duration": 0.016,
      "velocity": 101,
      "chip": "ym2612"
    },
    {
      "channel": 4,
      "note": 90,
      "start": 43.3407,
      "duration": 0.016,
      "velocity": 101,
      "chip": "ym2612"
    },
    {
      "channel": 3,
      "note": 94,
      "start": 43.3419,
      "duration": 0.016,
      "velocity": 101,
      "chip": "ym2612"
    },
    {
      "channel": 2,
      "note": 58,
      "start": 43.3431,
      "duration": 0.016,
      "velocity": 100,
      "chip": "ym2612"
    },
    {
      "channel": 0,
      "note": 80,
      "start": 43.3543,
      "duration": 0.0162,
      "velocity": 124,
      "chip": "ym2612"
    },
    {
      "channel": 5,
      "note": 85,
      "start": 43.3555,
      "duration": 0.0161,
      "velocity": 101,
      "chip": "ym2612"
    },
    {
      "channel": 4,
      "note": 90,
      "start": 43.3567,
      "duration": 0.0161,
      "velocity": 101,
      "chip": "ym2612"
    },
    {
      "channel": 3,
      "note": 94,
      "start": 43.3579,
      "duration": 0.0161,
      "velocity": 101,
      "chip": "ym2612"
    },
    {
      "channel": 2,
      "note": 58,
      "start": 43.3591,
      "duration": 0.0161,
      "velocity": 100,
      "chip": "ym2612"
    },
    {
      "channel": 0,
      "note": 77,
      "start": 43.3705,
      "duration": 0.0161,
      "velocity": 124,
      "chip": "ym2612"
    },
    {
      "channel": 5,
      "note": 85,
      "start": 43.3716,
      "duration": 0.0162,
      "velocity": 101,
      "chip": "ym2612"
    },
    {
      "channel": 4,
      "note": 90,
      "start": 43.3728,
      "duration": 0.0162,
      "velocity": 101,
      "chip": "ym2612"
    },
    {
      "channel": 3,
      "note": 94,
      "start": 43.374,
      "duration": 0.0161,
      "velocity": 101,
      "chip": "ym2612"
    },
    {
      "channel": 2,
      "note": 58,
      "start": 43.3752,
      "duration": 0.0162,
      "velocity": 100,
      "chip": "ym2612"
    },
    {
      "channel": 0,
      "note": 75,
      "start": 43.3866,
      "duration": 0.0164,
      "velocity": 124,
      "chip": "ym2612"
    },
    {
      "channel": 5,
      "note": 85,
      "start": 43.3878,
      "duration": 0.0164,
      "velocity": 101,
      "chip": "ym2612"
    },
    {
      "channel": 4,
      "note": 90,
      "start": 43.389,
      "duration": 0.0164,
      "velocity": 101,
      "chip": "ym2612"
    },
    {
      "channel": 3,
      "note": 94,
      "start": 43.3902,
      "duration": 0.0164,
      "velocity": 101,
      "chip": "ym2612"
    },
    {
      "channel": 2,
      "note": 58,
      "start": 43.3913,
      "duration": 0.0164,
      "velocity": 100,
      "chip": "ym2612"
    },
    {
      "channel": 0,
      "note": 72,
      "start": 43.403,
      "duration": 0.0181,
      "velocity": 124,
      "chip": "ym2612"
    },
    {
      "channel": 5,
      "note": 85,
      "start": 43.4042,
      "duration": 0.0182,
      "velocity": 101,
      "chip": "ym2612"
    },
    {
      "channel": 4,
      "note": 90,
      "start": 43.4054,
      "duration": 0.0182,
      "velocity": 101,
      "chip": "ym2612"
    },
    {
      "channel": 3,
      "note": 94,
      "start": 43.4066,
      "duration": 0.0182,
      "velocity": 101,
      "chip": "ym2612"
    },
    {
      "channel": 2,
      "note": 58,
      "start": 43.4078,
      "duration": 0.0182,
      "velocity": 100,
      "chip": "ym2612"
    },
    {
      "channel": 0,
      "note": 84,
      "start": 43.4212,
      "duration": 0.0143,
      "velocity": 124,
      "chip": "ym2612"
    },
    {
      "channel": 5,
      "note": 85,
      "start": 43.4224,
      "duration": 0.0144,
      "velocity": 101,
      "chip": "ym2612"
    },
    {
      "channel": 4,
      "note": 90,
      "start": 43.4236,
      "duration": 0.0144,
      "velocity": 101,
      "chip": "ym2612"
    },
    {
      "channel": 3,
      "note": 94,
      "start": 43.4248,
      "duration": 0.0145,
      "velocity": 101,
      "chip": "ym2612"
    },
    {
      "channel": 2,
      "note": 58,
      "start": 43.4259,
      "duration": 0.0145,
      "velocity": 100,
      "chip": "ym2612"
    },
    {
      "channel": 0,
      "note": 82,
      "start": 43.4355,
      "duration": 0.016,
      "velocity": 124,
      "chip": "ym2612"
    },
    {
      "channel": 5,
      "note": 85,
      "start": 43.4368,
      "duration": 0.016,
      "velocity": 101,
      "chip": "ym2612"
    },
    {
      "channel": 4,
      "note": 90,
      "start": 43.438,
      "duration": 0.016,
      "velocity": 101,
      "chip": "ym2612"
    },
    {
      "channel": 3,
      "note": 94,
      "start": 43.4393,
      "duration": 0.016,
      "velocity": 101,
      "chip": "ym2612"
    },
    {
      "channel": 2,
      "note": 58,
      "start": 43.4405,
      "duration": 0.016,
      "velocity": 100,
      "chip": "ym2612"
    },
    {
      "channel": 0,
      "note": 80,
      "start": 43.4515,
      "duration": 0.0158,
      "velocity": 124,
      "chip": "ym2612"
    },
    {
      "channel": 5,
      "note": 85,
      "start": 43.4528,
      "duration": 0.0161,
      "velocity": 101,
      "chip": "ym2612"
    },
    {
      "channel": 4,
      "note": 90,
      "start": 43.4541,
      "duration": 0.0161,
      "velocity": 101,
      "chip": "ym2612"
    },
    {
      "channel": 3,
      "note": 94,
      "start": 43.4553,
      "duration": 0.0161,
      "velocity": 101,
      "chip": "ym2612"
    },
    {
      "channel": 2,
      "note": 58,
      "start": 43.4565,
      "duration": 0.0161,
      "velocity": 100,
      "chip": "ym2612"
    },
    {
      "channel": 0,
      "note": 77,
      "start": 43.4672,
      "duration": 0.0159,
      "velocity": 124,
      "chip": "ym2612"
    },
    {
      "channel": 2,
      "note": 58,
      "start": 43.4726,
      "duration": 0.016,
      "velocity": 100,
      "chip": "ym2612"
    },
    {
      "channel": 0,
      "note": 75,
      "start": 43.4831,
      "duration": 0.0161,
      "velocity": 124,
      "chip": "ym2612"
    },
    {
      "channel": 2,
      "note": 58,
      "start": 43.4886,
      "duration": 0.0162,
      "velocity": 100,
      "chip": "ym2612"
    },
    {
      "channel": 0,
      "note": 72,
      "start": 43.4992,
      "duration": 0.0161,
      "velocity": 124,
      "chip": "ym2612"
    },
    {
      "channel": 2,
      "note": 58,
      "start": 43.5048,
      "duration": 0.0159,
      "velocity": 100,
      "chip": "ym2612"
    },
    {
      "channel": 0,
      "note": 70,
      "start": 43.5153,
      "duration": 0.018,
      "velocity": 115,
      "chip": "ym2612"
    },
    {
      "channel": 2,
      "note": 58,
      "start": 43.5207,
      "duration": 0.0189,
      "velocity": 100,
      "chip": "ym2612"
    },
    {
      "channel": 0,
      "note": 36,
      "start": 43.5333,
      "duration": 0.0143,
      "velocity": 115,
      "chip": "ym2612"
    },
    {
      "channel": 2,
      "note": 59,
      "start": 43.5395,
      "duration": 0.0136,
      "velocity": 100,
      "chip": "ym2612"
    },
    {
      "channel": 0,
      "note": 36,
      "start": 43.5476,
      "duration": 0.016,
      "velocity": 115,
      "chip": "ym2612"
    },
    {
      "channel": 2,
      "note": 59,
      "start": 43.5531,
      "duration": 0.016,
      "velocity": 100,
      "chip": "ym2612"
    },
    {
      "channel": 0,
      "note": 37,
      "start": 43.5636,
      "duration": 0.0161,
      "velocity": 115,
      "chip": "ym2612"
    },
    {
      "channel": 2,
      "note": 59,
      "start": 43.5691,
      "duration": 0.0161,
      "velocity": 100,
      "chip": "ym2612"
    },
    {
      "channel": 0,
      "note": 37,
      "start": 43.5797,
      "duration": 0.0162,
      "velocity": 115,
      "chip": "ym2612"
    },
    {
      "channel": 2,
      "note": 59,
      "start": 43.5852,
      "duration": 0.0157,
      "velocity": 100,
      "chip": "ym2612"
    },
    {
      "channel": 0,
      "note": 38,
      "start": 43.5959,
      "duration": 0.0161,
      "velocity": 115,
      "chip": "ym2612"
    },
    {
      "channel": 2,
      "note": 59,
      "start": 43.6009,
      "duration": 0.0159,
      "velocity": 100,
      "chip": "ym2612"
    },
    {
      "channel": 0,
      "note": 38,
      "start": 43.612,
      "duration": 0.0161,
      "velocity": 115,
      "chip": "ym2612"
    },
    {
      "channel": 2,
      "note": 59,
      "start": 43.6168,
      "duration": 0.0162,
      "velocity": 100,
      "chip": "ym2612"
    },
    {
      "channel": 0,
      "note": 39,
      "start": 43.628,
      "duration": 0.0161,
      "velocity": 115,
      "chip": "ym2612"
    },
    {
      "channel": 2,
      "note": 59,
      "start": 43.633,
      "duration": 0.0161,
      "velocity": 100,
      "chip": "ym2612"
    },
    {
      "channel": 0,
      "note": 39,
      "start": 43.6441,
      "duration": 0.0161,
      "velocity": 115,
      "chip": "ym2612"
    },
    {
      "channel": 2,
      "note": 59,
      "start": 43.6491,
      "duration": 0.0161,
      "velocity": 100,
      "chip": "ym2612"
    },
    {
      "channel": 0,
      "note": 40,
      "start": 43.6602,
      "duration": 0.0161,
      "velocity": 115,
      "chip": "ym2612"
    },
    {
      "channel": 2,
      "note": 59,
      "start": 43.6652,
      "duration": 0.0161,
      "velocity": 100,
      "chip": "ym2612"
    },
    {
      "channel": 0,
      "note": 40,
      "start": 43.6763,
      "duration": 0.0161,
      "velocity": 115,
      "chip": "ym2612"
    },
    {
      "channel": 2,
      "note": 59,
      "start": 43.6813,
      "duration": 0.0161,
      "velocity": 100,
      "chip": "ym2612"
    },
    {
      "channel": 0,
      "note": 40,
      "start": 43.6924,
      "duration": 0.0161,
      "velocity": 115,
      "chip": "ym2612"
    },
    {
      "channel": 2,
      "note": 59,
      "start": 43.6974,
      "duration": 0.0162,
      "velocity": 100,
      "chip": "ym2612"
    },
    {
      "channel": 0,
      "note": 41,
      "start": 43.7085,
      "duration": 0.0161,
      "velocity": 115,
      "chip": "ym2612"
    },
    {
      "channel": 2,
      "note": 59,
      "start": 43.7136,
      "duration": 0.016,
      "velocity": 100,
      "chip": "ym2612"
    },
    {
      "channel": 0,
      "note": 41,
      "start": 43.7246,
      "duration": 0.0162,
      "velocity": 115,
      "chip": "ym2612"
    },
    {
      "channel": 2,
      "note": 59,
      "start": 43.7296,
      "duration": 0.0177,
      "velocity": 100,
      "chip": "ym2612"
    },
    {
      "channel": 0,
      "note": 42,
      "start": 43.7408,
      "duration": 0.0161,
      "velocity": 115,
      "chip": "ym2612"
    },
    {
      "channel": 3,
      "note": 71,
      "start": 43.7462,
      "duration": 0.0144,
      "velocity": 110,
      "chip": "ym2612"
    },
    {
      "channel": 2,
      "note": 59,
      "start": 43.7474,
      "duration": 0.0144,
      "velocity": 100,
      "chip": "ym2612"
    },
    {
      "channel": 1,
      "note": 75,
      "start": 43.7506,
      "duration": 0.0124,
      "velocity": 110,
      "chip": "ym2612"
    },
    {
      "channel": 0,
      "note": 42,
      "start": 43.7568,
      "duration": 0.0161,
      "velocity": 115,
      "chip": "ym2612"
    },
    {
      "channel": 3,
      "note": 71,
      "start": 43.7606,
      "duration": 0.016,
      "velocity": 110,
      "chip": "ym2612"
    },
    {
      "channel": 2,
      "note": 59,
      "start": 43.7618,
      "duration": 0.016,
      "velocity": 100,
      "chip": "ym2612"
    },
    {
      "channel": 1,
      "note": 75,
      "start": 43.763,
      "duration": 0.016,
      "velocity": 110,
      "chip": "ym2612"
    },
    {
      "channel": 0,
      "note": 43,
      "start": 43.7729,
      "duration": 0.0161,
      "velocity": 115,
      "chip": "ym2612"
    },
    {
      "channel": 3,
      "note": 71,
      "start": 43.7766,
      "duration": 0.0161,
      "velocity": 110,
      "chip": "ym2612"
    },
    {
      "channel": 2,
      "note": 59,
      "start": 43.7778,
      "duration": 0.0161,
      "velocity": 100,
      "chip": "ym2612"
    },
    {
      "channel": 1,
      "note": 75,
      "start": 43.779,
      "duration": 0.0161,
      "velocity": 110,
      "chip": "ym2612"
    },
    {
      "channel": 0,
      "note": 43,
      "start": 43.789,
      "duration": 0.0161,
      "velocity": 115,
      "chip": "ym2612"
    },
    {
      "channel": 2,
      "note": 59,
      "start": 43.7939,
      "duration": 0.0161,
      "velocity": 100,
      "chip": "ym2612"
    },
    {
      "channel": 0,
      "note": 44,
      "start": 43.8051,
      "duration": 0.0161,
      "velocity": 115,
      "chip": "ym2612"
    },
    {
      "channel": 2,
      "note": 59,
      "start": 43.81,
      "duration": 0.0161,
      "velocity": 100,
      "chip": "ym2612"
    },
    {
      "channel": 0,
      "note": 44,
      "start": 43.8212,
      "duration": 0.0179,
      "velocity": 115,
      "chip": "ym2612"
    },
    {
      "channel": 2,
      "note": 59,
      "start": 43.8261,
      "duration": 0.0186,
      "velocity": 100,
      "chip": "ym2612"
    },
    {
      "channel": 0,
      "note": 36,
      "start": 43.8392,
      "duration": 0.0144,
      "velocity": 115,
      "chip": "ym2612"
    },
    {
      "channel": 3,
      "note": 71,
      "start": 43.8432,
      "duration": 0.0141,
      "velocity": 110,
      "chip": "ym2612"
    },
    {
      "channel": 2,
      "note": 59,
      "start": 43.8448,
      "duration": 0.0139,
      "velocity": 100,
      "chip": "ym2612"
    },
    {
      "channel": 1,
      "note": 75,
      "start": 43.8462,
      "duration": 0.0136,
      "velocity": 110,
      "chip": "ym2612"
    },
    {
      "channel": 0,
      "note": 36,
      "start": 43.8535,
      "duration": 0.0164,
      "velocity": 115,
      "chip": "ym2612"
    },
    {
      "channel": 3,
      "note": 71,
      "start": 43.8574,
      "duration": 0.0163,
      "velocity": 110,
      "chip": "ym2612"
    },
    {
      "channel": 2,
      "note": 59,
      "start": 43.8586,
      "duration": 0.0162,
      "velocity": 100,
      "chip": "ym2612"
    },
    {
      "channel": 1,
      "note": 75,
      "start": 43.8598,
      "duration": 0.0162,
      "velocity": 110,
      "chip": "ym2612"
    },
    {
      "channel": 0,
      "note": 37,
      "start": 43.87,
      "duration": 0.0163,
      "velocity": 115,
      "chip": "ym2612"
    },
    {
      "channel": 3,
      "note": 71,
      "start": 43.8737,
      "duration": 0.0163,
      "velocity": 110,
      "chip": "ym2612"
    },
    {
      "channel": 2,
      "note": 59,
      "start": 43.8749,
      "duration": 0.0163,
      "velocity": 100,
      "chip": "ym2612"
    },
    {
      "channel": 1,
      "note": 75,
      "start": 43.876,
      "duration": 0.0163,
      "velocity": 110,
      "chip": "ym2612"
    },
    {
      "channel": 0,
      "note": 37,
      "start": 43.8862,
      "duration": 0.0161,
      "velocity": 115,
      "chip": "ym2612"
    },
    {
      "channel": 3,
      "note": 71,
      "start": 43.8899,
      "duration": 0.0162,
      "velocity": 110,
      "chip": "ym2612"
    },
    {
      "channel": 2,
      "note": 59,
      "start": 43.8911,
      "duration": 0.0161,
      "velocity": 100,
      "chip": "ym2612"
    },
    {
      "channel": 1,
      "note": 75,
      "start": 43.8923,
      "duration": 0.0161,
      "velocity": 110,
      "chip": "ym2612"
    },
    {
      "channel": 0,
      "note": 38,
      "start": 43.9023,
      "duration": 0.016,
      "velocity": 115,
      "chip": "ym2612"
    },
    {
      "channel": 2,
      "note": 59,
      "start": 43.9072,
      "duration": 0.0161,
      "velocity": 100,
      "chip": "ym2612"
    },
    {
      "channel": 0,
      "note": 38,
      "start": 43.9184,
      "duration": 0.0158,
      "velocity": 115,
      "chip": "ym2612"
    },
    {
      "channel": 2,
      "note": 59,
      "start": 43.9233,
      "duration": 0.0161,
      "velocity": 100,
      "chip": "ym2612"
    },
    {
      "channel": 0,
      "note": 39,
      "start": 43.9341,
      "duration": 0.0183,
      "velocity": 124,
      "chip": "ym2612"
    },
    {
      "channel": 2,
      "note": 59,
      "start": 43.9394,
      "duration": 0.0184,
      "velocity": 100,
      "chip": "ym2612"
    },
    {
      "channel": 0,
      "note": 84,
      "start": 43.9525,
      "duration": 0.0137,
      "velocity": 124,
      "chip": "ym2612"
    },
    {
      "channel": 3,
      "note": 75,
      "start": 43.9566,
      "duration": 0.0141,
      "velocity": 110,
      "chip": "ym2612"
    },
    {
      "channel": 2,
      "note": 59,
      "start": 43.9578,
      "duration": 0.0141,
      "velocity": 100,
      "chip": "ym2612"
    },
    {
      "channel": 1,
      "note": 71,
      "start": 43.9593,
      "duration": 0.0137,
      "velocity": 110,
      "chip": "ym2612"
    },
    {
      "channel": 0,
      "note": 82,
      "start": 43.9662,
      "duration": 0.016,
      "velocity": 124,
      "chip": "ym2612"
    },
    {
      "channel": 3,
      "note": 75,
      "start": 43.9707,
      "duration": 0.016,
      "velocity": 110,
      "chip": "ym2612"
    },
    {
      "channel": 2,
      "note": 59,
      "start": 43.9719,
      "duration": 0.016,
      "velocity": 100,
      "chip": "ym2612"
    },
    {
      "channel": 1,
      "note": 71,
      "start": 43.9731,
      "duration": 0.0159,
      "velocity": 110,
      "chip": "ym2612"
    },
    {
      "channel": 0,
      "note": 80,
      "start": 43.9822,
      "duration": 0.0161,
      "velocity": 124,
      "chip": "ym2612"
    },
    {
      "channel": 3,
      "note": 75,
      "start": 43.9866,
      "duration": 0.0161,
      "velocity": 110,
      "chip": "ym2612"
    },
    {
      "channel": 2,
      "note": 59,
      "start": 43.9878,
      "duration": 0.016,
      "velocity": 100,
      "chip": "ym2612"
    },
    {
      "channel": 1,
      "note": 71,
      "start": 43.989,
      "duration": 0.016,
      "velocity": 110,
      "chip": "ym2612"
    },
    {
      "channel": 0,
      "note": 77,
      "start": 43.9983,
      "duration": 0.0162,
      "velocity": 124,
      "chip": "ym2612"
    },
    {
      "channel": 2,
      "note": 59,
      "start": 44.0039,
      "duration": 0.0161,
      "velocity": 100,
      "chip": "ym2612"
    },
    {
      "channel": 0,
      "note": 75,
      "start": 44.0145,
      "duration": 0.0161,
      "velocity": 124,
      "chip": "ym2612"
    },
    {
      "channel": 2,
      "note": 59,
      "start": 44.02,
      "duration": 0.0161,
      "velocity": 100,
      "chip": "ym2612"
    },
    {
      "channel": 0,
      "note": 72,
      "start": 44.0306,
      "duration": 0.0161,
      "velocity": 124,
      "chip": "ym2612"
    },
    {
      "channel": 2,
      "note": 59,
      "start": 44.0361,
      "duration": 0.0166,
      "velocity": 100,
      "chip": "ym2612"
    },
    {
      "channel": 0,
      "note": 70,
      "start": 44.0467,
      "duration": 0.0161,
      "velocity": 124,
      "chip": "ym2612"
    },
    {
      "channel": 3,
      "note": 75,
      "start": 44.0509,
      "duration": 0.0156,
      "velocity": 110,
      "chip": "ym2612"
    },
    {
      "channel": 2,
      "note": 59,
      "start": 44.0527,
      "duration": 0.0156,
      "velocity": 100,
      "chip": "ym2612"
    },
    {
      "channel": 1,
      "note": 71,
      "start": 44.0541,
      "duration": 0.0155,
      "velocity": 110,
      "chip": "ym2612"
    },
    {
      "channel": 0,
      "note": 68,
      "start": 44.0628,
      "duration": 0.0161,
      "velocity": 124,
      "chip": "ym2612"
    },
    {
      "channel": 3,
      "note": 75,
      "start": 44.0665,
      "duration": 0.016,
      "velocity": 110,
      "chip": "ym2612"
    },
    {
      "channel": 2,
      "note": 59,
      "start": 44.0683,
      "duration": 0.0157,
      "velocity": 100,
      "chip": "ym2612"
    },
    {
      "channel": 1,
      "note": 71,
      "start": 44.0696,
      "duration": 0.016,
      "velocity": 110,
      "chip": "ym2612"
    },
    {
      "channel": 0,
      "note": 65,
      "start": 44.0789,
      "duration": 0.0161,
      "velocity": 124,
      "chip": "ym2612"
    },
    {
      "channel": 3,
      "note": 75,
      "start": 44.0826,
      "duration": 0.0161,
      "velocity": 110,
      "chip": "ym2612"
    },
    {
      "channel": 2,
      "note": 59,
      "start": 44.084,
      "duration": 0.016,
      "velocity": 100,
      "chip": "ym2612"
    },
    {
      "channel": 1,
      "note": 71,
      "start": 44.0856,
      "duration": 0.016,
      "velocity": 110,
      "chip": "ym2612"
    },
    {
      "channel": 0,
      "note": 63,
      "start": 44.095,
      "duration": 0.0153,
      "velocity": 1,
      "chip": "ym2612"
    },
    {
      "channel": 3,
      "note": 75,
      "start": 44.0987,
      "duration": 0.0153,
      "velocity": 110,
      "chip": "ym2612"
    },
    {
      "channel": 2,
      "note": 59,
      "start": 44.1,
      "duration": 0.0153,
      "velocity": 100,
      "chip": "ym2612"
    },
    {
      "channel": 1,
      "note": 71,
      "start": 44.1016,
      "duration": 0.0148,
      "velocity": 110,
      "chip": "ym2612"
    },
    {
      "channel": 2,
      "note": 59,
      "start": 44.1153,
      "duration": 0.0152,
      "velocity": 100,
      "chip": "ym2612"
    },
    {
      "channel": 2,
      "note": 59,
      "start": 44.1305,
      "duration": 0.0161,
      "velocity": 100,
      "chip": "ym2612"
    },
    {
      "channel": 2,
      "note": 59,
      "start": 44.1466,
      "duration": 0.0202,
      "velocity": 100,
      "chip": "ym2612"
    },
    {
      "channel": 0,
      "note": 36,
      "start": 44.1612,
      "duration": 0.0142,
      "velocity": 115,
      "chip": "ym2612"
    },
    {
      "channel": 3,
      "note": 71,
      "start": 44.1653,
      "duration": 0.014,
      "velocity": 110,
      "chip": "ym2612"
    },
    {
      "channel": 2,
      "note": 54,
      "start": 44.1668,
      "duration": 0.0138,
      "velocity": 100,
      "chip": "ym2612"
    },
    {
      "channel": 1,
      "note": 75,
      "start": 44.1689,
      "duration": 0.0129,
      "velocity": 110,
      "chip": "ym2612"
    },
    {
      "channel": 0,
      "note": 36,
      "start": 44.1755,
      "duration": 0.0161,
      "velocity": 115,
      "chip": "ym2612"
    },
    {
      "channel": 3,
      "note": 71,
      "start": 44.1793,
      "duration": 0.016,
      "velocity": 110,
      "chip": "ym2612"
    },
    {
      "channel": 2,
      "note": 54,
      "start": 44.1806,
      "duration": 0.0159,
      "velocity": 100,
      "chip": "ym2612"
    },
    {
      "channel": 1,
      "note": 75,
      "start": 44.1818,
      "duration": 0.0159,
      "velocity": 110,
      "chip": "ym2612"
    },
    {
      "channel": 0,
      "note": 37,
      "start": 44.1916,
      "duration": 0.0161,
      "velocity": 115,
      "chip": "ym2612"
    },
    {
      "channel": 3,
      "note": 71,
      "start": 44.1953,
      "duration": 0.0161,
      "velocity": 110,
      "chip": "ym2612"
    },
    {
      "channel": 2,
      "note": 54,
      "start": 44.1965,
      "duration": 0.0161,
      "velocity": 100,
      "chip": "ym2612"
    },
    {
      "channel": 1,
      "note": 75,
      "start": 44.1976,
      "duration": 0.0161,
      "velocity": 110,
      "chip": "ym2612"
    },
    {
      "channel": 0,
      "note": 37,
      "start": 44.2077,
      "duration": 0.0161,
      "velocity": 115,
      "chip": "ym2612"
    },
    {
      "channel": 3,
      "note": 71,
      "start": 44.2114,
      "duration": 0.0162,
      "velocity": 110,
      "chip": "ym2612"
    },
    {
      "channel": 2,
      "note": 54,
      "start": 44.2126,
      "duration": 0.0161,
      "velocity": 100,
      "chip": "ym2612"
    },
    {
      "channel": 1,
      "note": 75,
      "start": 44.2137,
      "duration": 0.0162,
      "velocity": 110,
      "chip": "ym2612"
    },
    {
      "channel": 0,
      "note": 38,
      "start": 44.2238,
      "duration": 0.0161,
      "velocity": 115,
      "chip": "ym2612"
    },
    {
      "channel": 3,
      "note": 71,
      "start": 44.2275,
      "duration": 0.0161,
      "velocity": 110,
      "chip": "ym2612"
    },
    {
      "channel": 2,
      "note": 54,
      "start": 44.2287,
      "duration": 0.0161,
      "velocity": 100,
      "chip": "ym2612"
    },
    {
      "channel": 1,
      "note": 75,
      "start": 44.2299,
      "duration": 0.016,
      "velocity": 110,
      "chip": "ym2612"
    },
    {
      "channel": 0,
      "note": 38,
      "start": 44.2399,
      "duration": 0.0179,
      "velocity": 115,
      "chip": "ym2612"
    },
    {
      "channel": 3,
      "note": 71,
      "start": 44.2436,
      "duration": 0.0179,
      "velocity": 110,
      "chip": "ym2612"
    },
    {
      "channel": 2,
      "note": 54,
      "start": 44.2448,
      "duration": 0.0183,
      "velocity": 100,
      "chip": "ym2612"
    },
    {
      "channel": 1,
      "note": 75,
      "start": 44.2459,
      "duration": 0.0183,
      "velocity": 110,
      "chip": "ym2612"
    },
    {
      "channel": 0,
      "note": 36,
      "start": 44.2578,
      "duration": 0.0143,
      "velocity": 115,
      "chip": "ym2612"
    },
    {
      "channel": 3,
      "note": 71,
      "start": 44.2616,
      "duration": 0.0143,
      "velocity": 110,
      "chip": "ym2612"
    },
    {
      "channel": 2,
      "note": 56,
      "start": 44.263,
      "duration": 0.0141,
      "velocity": 100,
      "chip": "ym2612"
    },
    {
      "channel": 1,
      "note": 75,
      "start": 44.2642,
      "duration": 0.0141,
      "velocity": 110,
      "chip": "ym2612"
    },
    {
      "channel": 0,
      "note": 36,
      "start": 44.2721,
      "duration": 0.016,
      "velocity": 115,
      "chip": "ym2612"
    },
    {
      "channel": 2,
      "note": 56,
      "start": 44.2771,
      "duration": 0.0159,
      "velocity": 100,
      "chip": "ym2612"
    },
    {
      "channel": 0,
      "note": 37,
      "start": 44.2882,
      "duration": 0.0161,
      "velocity": 115,
      "chip": "ym2612"
    },
    {
      "channel": 2,
      "note": 56,
      "start": 44.2931,
      "duration": 0.0161,
      "velocity": 100,
      "chip": "ym2612"
    },
    {
      "channel": 0,
      "note": 37,
      "start": 44.3042,
      "duration": 0.0162,
      "velocity": 115,
      "chip": "ym2612"
    },
    {
      "channel": 2,
      "note": 56,
      "start": 44.3091,
      "duration": 0.0162,
      "velocity": 100,
      "chip": "ym2612"
    },
    {
      "channel": 0,
      "note": 38,
      "start": 44.3204,
      "duration": 0.0163,
      "velocity": 115,
      "chip": "ym2612"
    },
    {
      "channel": 2,
      "note": 56,
      "start": 44.3254,
      "duration": 0.0163,
      "velocity": 100,
      "chip": "ym2612"
    },
    {
      "channel": 0,
      "note": 38,
      "start": 44.3368,
      "duration": 0.0163,
      "velocity": 115,
      "chip": "ym2612"
    },
    {
      "channel": 2,
      "note": 56,
      "start": 44.3417,
      "duration": 0.0163,
      "velocity": 100,
      "chip": "ym2612"
    },
    {
      "channel": 0,
      "note": 39,
      "start": 44.353,
      "duration": 0.0181,
      "velocity": 115,
      "chip": "ym2612"
    },
    {
      "channel": 2,
      "note": 56,
      "start": 44.358,
      "duration": 0.0186,
      "velocity": 100,
      "chip": "ym2612"
    },
    {
      "channel": 0,
      "note": 36,
      "start": 44.3711,
      "duration": 0.0143,
      "velocity": 115,
      "chip": "ym2612"
    },
    {
      "channel": 3,
      "note": 75,
      "start": 44.3752,
      "duration": 0.014,
      "velocity": 110,
      "chip": "ym2612"
    },
    {
      "channel": 2,
      "note": 59,
      "start": 44.3766,
      "duration": 0.0138,
      "velocity": 100,
      "chip": "ym2612"
    },
    {
      "channel": 1,
      "note": 71,
      "start": 44.3782,
      "duration": 0.0136,
      "velocity": 110,
      "chip": "ym2612"
    },
    {
      "channel": 0,
      "note": 36,
      "start": 44.3854,
      "duration": 0.016,
      "velocity": 115,
      "chip": "ym2612"
    },
    {
      "channel": 3,
      "note": 75,
      "start": 44.3892,
      "duration": 0.016,
      "velocity": 110,
      "chip": "ym2612"
    },
    {
      "channel": 2,
      "note": 59,
      "start": 44.3905,
      "duration": 0.0159,
      "velocity": 100,
      "chip": "ym2612"
    },
    {
      "channel": 1,
      "note": 71,
      "start": 44.3917,
      "duration": 0.0158,
      "velocity": 110,
      "chip": "ym2612"
    },
    {
      "channel": 0,
      "note": 37,
      "start": 44.4014,
      "duration": 0.0156,
      "velocity": 115,
      "chip": "ym2612"
    },
    {
      "channel": 3,
      "note": 75,
      "start": 44.4052,
      "duration": 0.0161,
      "velocity": 110,
      "chip": "ym2612"
    },
    {
      "channel": 2,
      "note": 59,
      "start": 44.4063,
      "duration": 0.0161,
      "velocity": 100,
      "chip": "ym2612"
    },
    {
      "channel": 1,
      "note": 71,
      "start": 44.4076,
      "duration": 0.0161,
      "velocity": 110,
      "chip": "ym2612"
    },
    {
      "channel": 0,
      "note": 37,
      "start": 44.417,
      "duration": 0.0161,
      "velocity": 115,
      "chip": "ym2612"
    },
    {
      "channel": 3,
      "note": 75,
      "start": 44.4213,
      "duration": 0.0161,
      "velocity": 110,
      "chip": "ym2612"
    },
    {
      "channel": 2,
      "note": 59,
      "start": 44.4225,
      "duration": 0.0161,
      "velocity": 100,
      "chip": "ym2612"
    },
    {
      "channel": 1,
      "note": 71,
      "start": 44.4237,
      "duration": 0.0161,
      "velocity": 110,
      "chip": "ym2612"
    },
    {
      "channel": 0,
      "note": 38,
      "start": 44.4331,
      "duration": 0.0161,
      "velocity": 115,
      "chip": "ym2612"
    },
    {
      "channel": 3,
      "note": 75,
      "start": 44.4374,
      "duration": 0.0161,
      "velocity": 110,
      "chip": "ym2612"
    },
    {
      "channel": 2,
      "note": 59,
      "start": 44.4386,
      "duration": 0.0161,
      "velocity": 100,
      "chip": "ym2612"
    },
    {
      "channel": 1,
      "note": 71,
      "start": 44.4398,
      "duration": 0.0161,
      "velocity": 110,
      "chip": "ym2612"
    },
    {
      "channel": 0,
      "note": 38,
      "start": 44.4492,
      "duration": 0.0179,
      "velocity": 127,
      "chip": "ym2612"
    },
    {
      "channel": 3,
      "note": 75,
      "start": 44.4535,
      "duration": 0.018,
      "velocity": 110,
      "chip": "ym2612"
    },
    {
      "channel": 2,
      "note": 59,
      "start": 44.4547,
      "duration": 0.0182,
      "velocity": 100,
      "chip": "ym2612"
    },
    {
      "channel": 1,
      "note": 71,
      "start": 44.4558,
      "duration": 0.0183,
      "velocity": 110,
      "chip": "ym2612"
    },
    {
      "channel": 0,
      "note": 88,
      "start": 44.4673,
      "duration": 0.0141,
      "velocity": 127,
      "chip": "ym2612"
    },
    {
      "channel": 3,
      "note": 75,
      "start": 44.4715,
      "duration": 0.0143,
      "velocity": 110,
      "chip": "ym2612"
    },
    {
      "channel": 2,
      "note": 71,
      "start": 44.4729,
      "duration": 0.0141,
      "velocity": 100,
      "chip": "ym2612"
    },
    {
      "channel": 1,
      "note": 71,
      "start": 44.4741,
      "duration": 0.0141,
      "velocity": 110,
      "chip": "ym2612"
    },
    {
      "channel": 0,
      "note": 86,
      "start": 44.4814,
      "duration": 0.016,
      "velocity": 127,
      "chip": "ym2612"
    },
    {
      "channel": 2,
      "note": 71,
      "start": 44.487,
      "duration": 0.016,
      "velocity": 100,
      "chip": "ym2612"
    },
    {
      "channel": 0,
      "note": 85,
      "start": 44.4974,
      "duration": 0.0162,
      "velocity": 127,
      "chip": "ym2612"
    },
    {
      "channel": 2,
      "note": 71,
      "start": 44.503,
      "duration": 0.0161,
      "velocity": 100,
      "chip": "ym2612"
    },
    {
      "channel": 0,
      "note": 83,
      "start": 44.5136,
      "duration": 0.0161,
      "velocity": 127,
      "chip": "ym2612"
    },
    {
      "channel": 2,
      "note": 71,
      "start": 44.5191,
      "duration": 0.016,
      "velocity": 100,
      "chip": "ym2612"
    },
    {
      "channel": 0,
      "note": 81,
      "start": 44.5297,
      "duration": 0.0161,
      "velocity": 127,
      "chip": "ym2612"
    },
    {
      "channel": 2,
      "note": 71,
      "start": 44.5351,
      "duration": 0.0158,
      "velocity": 100,
      "chip": "ym2612"
    },
    {
      "channel": 0,
      "note": 80,
      "start": 44.5458,
      "duration": 0.0161,
      "velocity": 127,
      "chip": "ym2612"
    },
    {
      "channel": 2,
      "note": 71,
      "start": 44.5509,
      "duration": 0.016,
      "velocity": 100,
      "chip": "ym2612"
    },
    {
      "channel": 0,
      "note": 78,
      "start": 44.5619,
      "duration": 0.0161,
      "velocity": 127,
      "chip": "ym2612"
    },
    {
      "channel": 2,
      "note": 71,
      "start": 44.5668,
      "duration": 0.0167,
      "velocity": 100,
      "chip": "ym2612"
    },
    {
      "channel": 0,
      "note": 76,
      "start": 44.578,
      "duration": 0.0161,
      "velocity": 127,
      "chip": "ym2612"
    },
    {
      "channel": 3,
      "note": 71,
      "start": 44.5822,
      "duration": 0.0157,
      "velocity": 110,
      "chip": "ym2612"
    },
    {
      "channel": 2,
      "note": 59,
      "start": 44.5836,
      "duration": 0.0156,
      "velocity": 100,
      "chip": "ym2612"
    },
    {
      "channel": 1,
      "note": 75,
      "start": 44.5857,
      "duration": 0.0146,
      "velocity": 110,
      "chip": "ym2612"
    },
    {
      "channel": 0,
      "note": 75,
      "start": 44.5941,
      "duration": 0.0161,
      "velocity": 127,
      "chip": "ym2612"
    },
    {
      "channel": 3,
      "note": 71,
      "start": 44.5979,
      "duration": 0.0161,
      "velocity": 110,
      "chip": "ym2612"
    },
    {
      "channel": 2,
      "note": 59,
      "start": 44.5992,
      "duration": 0.016,
      "velocity": 100,
      "chip": "ym2612"
    },
    {
      "channel": 1,
      "note": 75,
      "start": 44.6004,
      "duration": 0.0159,
      "velocity": 110,
      "chip": "ym2612"
    },
    {
      "channel": 0,
      "note": 73,
      "start": 44.6102,
      "duration": 0.0161,
      "velocity": 127,
      "chip": "ym2612"
    },
    {
      "channel": 3,
      "note": 71,
      "start": 44.614,
      "duration": 0.016,
      "velocity": 110,
      "chip": "ym2612"
    },
    {
      "channel": 2,
      "note": 59,
      "start": 44.6151,
      "duration": 0.0161,
      "velocity": 100,
      "chip": "ym2612"
    },
    {
      "channel": 1,
      "note": 75,
      "start": 44.6163,
      "duration": 0.0161,
      "velocity": 110,
      "chip": "ym2612"
    },
    {
      "channel": 0,
      "note": 71,
      "start": 44.6263,
      "duration": 0.0161,
      "velocity": 127,
      "chip": "ym2612"
    },
    {
      "channel": 3,
      "note": 71,
      "start": 44.63,
      "duration": 0.0161,
      "velocity": 110,
      "chip": "ym2612"
    },
    {
      "channel": 2,
      "note": 59,
      "start": 44.6312,
      "duration": 0.0161,
      "velocity": 100,
      "chip": "ym2612"
    },
    {
      "channel": 1,
      "note": 75,
      "start": 44.6324,
      "duration": 0.0161,
      "velocity": 110,
      "chip": "ym2612"
    },
    {
      "channel": 0,
      "note": 69,
      "start": 44.6424,
      "duration": 0.0161,
      "velocity": 127,
      "chip": "ym2612"
    },
    {
      "channel": 3,
      "note": 71,
      "start": 44.6461,
      "duration": 0.0161,
      "velocity": 110,
      "chip": "ym2612"
    },
    {
      "channel": 2,
      "note": 59,
      "start": 44.6473,
      "duration": 0.0161,
      "velocity": 100,
      "chip": "ym2612"
    },
    {
      "channel": 1,
      "note": 75,
      "start": 44.6485,
      "duration": 0.0161,
      "velocity": 110,
      "chip": "ym2612"
    },
    {
      "channel": 0,
      "note": 68,
      "start": 44.6585,
      "duration": 0.0179,
      "velocity": 127,
      "chip": "ym2612"
    },
    {
      "channel": 3,
      "note": 71,
      "start": 44.6622,
      "duration": 0.0181,
      "velocity": 110,
      "chip": "ym2612"
    },
    {
      "channel": 2,
      "note": 59,
      "start": 44.6634,
      "duration": 0.0183,
      "velocity": 100,
      "chip": "ym2612"
    },
    {
      "channel": 1,
      "note": 75,
      "start": 44.6646,
      "duration": 0.0183,
      "velocity": 110,
      "chip": "ym2612"
    },
    {
      "channel": 0,
      "note": 84,
      "start": 44.6765,
      "duration": 0.0143,
      "velocity": 127,
      "chip": "ym2612"
    },
    {
      "channel": 3,
      "note": 71,
      "start": 44.6803,
      "duration": 0.0142,
      "velocity": 110,
      "chip": "ym2612"
    },
    {
      "channel": 2,
      "note": 71,
      "start": 44.6817,
      "duration": 0.0141,
      "velocity": 100,
      "chip": "ym2612"
    },
    {
      "channel": 1,
      "note": 75,
      "start": 44.6829,
      "duration": 0.014,
      "velocity": 110,
      "chip": "ym2612"
    },
    {
      "channel": 0,
      "note": 82,
      "start": 44.6908,
      "duration": 0.016,
      "velocity": 127,
      "chip": "ym2612"
    },
    {
      "channel": 2,
      "note": 71,
      "start": 44.6957,
      "duration": 0.016,
      "velocity": 100,
      "chip": "ym2612"
    },
    {
      "channel": 0,
      "note": 81,
      "start": 44.7068,
      "duration": 0.0161,
      "velocity": 127,
      "chip": "ym2612"
    },
    {
      "channel": 2,
      "note": 71,
      "start": 44.7117,
      "duration": 0.0161,
      "velocity": 100,
      "chip": "ym2612"
    },
    {
      "channel": 0,
      "note": 79,
      "start": 44.7229,
      "duration": 0.0161,
      "velocity": 127,
      "chip": "ym2612"
    },
    {
      "channel": 2,
      "note": 71,
      "start": 44.7278,
      "duration": 0.0161,
      "velocity": 100,
      "chip": "ym2612"
    },
    {
      "channel": 0,
      "note": 77,
      "start": 44.739,
      "duration": 0.0161,
      "velocity": 127,
      "chip": "ym2612"
    },
    {
      "channel": 2,
      "note": 71,
      "start": 44.7439,
      "duration": 0.0161,
      "velocity": 100,
      "chip": "ym2612"
    },
    {
      "channel": 0,
      "note": 76,
      "start": 44.7551,
      "duration": 0.0161,
      "velocity": 127,
      "chip": "ym2612"
    },
    {
      "channel": 2,
      "note": 71,
      "start": 44.76,
      "duration": 0.0161,
      "velocity": 100,
      "chip": "ym2612"
    },
    {
      "channel": 0,
      "note": 74,
      "start": 44.7712,
      "duration": 0.018,
      "velocity": 127,
      "chip": "ym2612"
    },
    {
      "channel": 2,
      "note": 71,
      "start": 44.7761,
      "duration": 0.0186,
      "velocity": 100,
      "chip": "ym2612"
    },
    {
      "channel": 0,
      "note": 78,
      "start": 44.7892,
      "duration": 0.0143,
      "velocity": 127,
      "chip": "ym2612"
    },
    {
      "channel": 3,
      "note": 75,
      "start": 44.7933,
      "duration": 0.014,
      "velocity": 110,
      "chip": "ym2612"
    },
    {
      "channel": 2,
      "note": 54,
      "start": 44.7948,
      "duration": 0.0138,
      "velocity": 100,
      "chip": "ym2612"
    },
    {
      "channel": 1,
      "note": 71,
      "start": 44.7963,
      "duration": 0.0135,
      "velocity": 110,
      "chip": "ym2612"
    },
    {
      "channel": 0,
      "note": 76,
      "start": 44.8035,
      "duration": 0.0163,
      "velocity": 127,
      "chip": "ym2612"
    },
    {
      "channel": 3,
      "note": 75,
      "start": 44.8073,
      "duration": 0.0163,
      "velocity": 110,
      "chip": "ym2612"
    },
    {
      "channel": 2,
      "note": 54,
      "start": 44.8086,
      "duration": 0.0162,
      "velocity": 100,
      "chip": "ym2612"
    },
    {
      "channel": 1,
      "note": 71,
      "start": 44.8098,
      "duration": 0.0162,
      "velocity": 110,
      "chip": "ym2612"
    },
    {
      "channel": 0,
      "note": 75,
      "start": 44.8199,
      "duration": 0.0163,
      "velocity": 127,
      "chip": "ym2612"
    },
    {
      "channel": 3,
      "note": 75,
      "start": 44.8236,
      "duration": 0.0163,
      "velocity": 110,
      "chip": "ym2612"
    },
    {
      "channel": 2,
      "note": 54,
      "start": 44.8248,
      "duration": 0.0163,
      "velocity": 100,
      "chip": "ym2612"
    },
    {
      "channel": 1,
      "note": 71,
      "start": 44.8259,
      "duration": 0.0163,
      "velocity": 110,
      "chip": "ym2612"
    },
    {
      "channel": 0,
      "note": 73,
      "start": 44.8362,
      "duration": 0.0161,
      "velocity": 127,
      "chip": "ym2612"
    },
    {
      "channel": 3,
      "note": 75,
      "start": 44.8399,
      "duration": 0.0161,
      "velocity": 110,
      "chip": "ym2612"
    },
    {
      "channel": 2,
      "note": 54,
      "start": 44.8411,
      "duration": 0.016,
      "velocity": 100,
      "chip": "ym2612"
    },
    {
      "channel": 1,
      "note": 71,
      "start": 44.8423,
      "duration": 0.0161,
      "velocity": 110,
      "chip": "ym2612"
    },
    {
      "channel": 0,
      "note": 71,
      "start": 44.8523,
      "duration": 0.0161,
      "velocity": 127,
      "chip": "ym2612"
    },
    {
      "channel": 3,
      "note": 75,
      "start": 44.856,
      "duration": 0.0161,
      "velocity": 110,
      "chip": "ym2612"
    },
    {
      "channel": 2,
      "note": 54,
      "start": 44.8572,
      "duration": 0.0162,
      "velocity": 100,
      "chip": "ym2612"
    },
    {
      "channel": 1,
      "note": 71,
      "start": 44.8584,
      "duration": 0.0161,
      "velocity": 110,
      "chip": "ym2612"
    },
    {
      "channel": 0,
      "note": 70,
      "start": 44.8684,
      "duration": 0.0179,
      "velocity": 115,
      "chip": "ym2612"
    },
    {
      "channel": 3,
      "note": 75,
      "start": 44.8722,
      "duration": 0.018,
      "velocity": 110,
      "chip": "ym2612"
    },
    {
      "channel": 2,
      "note": 54,
      "start": 44.8733,
      "duration": 0.0179,
      "velocity": 100,
      "chip": "ym2612"
    },
    {
      "channel": 1,
      "note": 71,
      "start": 44.8745,
      "duration": 0.0179,
      "velocity": 110,
      "chip": "ym2612"
    },
    {
      "channel": 0,
      "note": 36,
      "start": 44.8864,
      "duration": 0.0137,
      "velocity": 115,
      "chip": "ym2612"
    },
    {
      "channel": 3,
      "note": 75,
      "start": 44.8901,
      "duration": 0.0143,
      "velocity": 110,
      "chip": "ym2612"
    },
    {
      "channel": 2,
      "note": 54,
      "start": 44.8913,
      "duration": 0.0143,
      "velocity": 100,
      "chip": "ym2612"
    },
    {
      "channel": 1,
      "note": 71,
      "start": 44.8924,
      "duration": 0.0143,
      "velocity": 110,
      "chip": "ym2612"
    },
    {
      "channel": 0,
      "note": 36,
      "start": 44.9,
      "duration": 0.016,
      "velocity": 115,
      "chip": "ym2612"
    },
    {
      "channel": 2,
      "note": 54,
      "start": 44.9056,
      "duration": 0.016,
      "velocity": 100,
      "chip": "ym2612"
    },
    {
      "channel": 0,
      "note": 37,
      "start": 44.9161,
      "duration": 0.0162,
      "velocity": 115,
      "chip": "ym2612"
    },
    {
      "channel": 2,
      "note": 54,
      "start": 44.9216,
      "duration": 0.0161,
      "velocity": 100,
      "chip": "ym2612"
    },
    {
      "channel": 0,
      "note": 37,
      "start": 44.9322,
      "duration": 0.0161,
      "velocity": 115,
      "chip": "ym2612"
    },
    {
      "channel": 2,
      "note": 54,
      "start": 44.9377,
      "duration": 0.0161,
      "velocity": 100,
      "chip": "ym2612"
    },
    {
      "channel": 0,
      "note": 38,
      "start": 44.9483,
      "duration": 0.0161,
      "velocity": 115,
      "chip": "ym2612"
    },
    {
      "channel": 2,
      "note": 54,
      "start": 44.9538,
      "duration": 0.0161,
      "velocity": 100,
      "chip": "ym2612"
    },
    {
      "channel": 0,
      "note": 38,
      "start": 44.9644,
      "duration": 0.0161,
      "velocity": 115,
      "chip": "ym2612"
    },
    {
      "channel": 2,
      "note": 54,
      "start": 44.9699,
      "duration": 0.0161,
      "velocity": 100,
      "chip": "ym2612"
    },
    {
      "channel": 0,
      "note": 39,
      "start": 44.9805,
      "duration": 0.0179,
      "velocity": 124,
      "chip": "ym2612"
    },
    {
      "channel": 2,
      "note": 54,
      "start": 44.986,
      "duration": 0.0186,
      "velocity": 100,
      "chip": "ym2612"
    },
    {
      "channel": 0,
      "note": 84,
      "start": 44.9985,
      "duration": 0.0143,
      "velocity": 124,
      "chip": "ym2612"
    },
    {
      "channel": 3,
      "note": 71,
      "start": 45.0032,
      "duration": 0.0134,
      "velocity": 110,
      "chip": "ym2612"
    },
    {
      "channel": 2,
      "note": 56,
      "start": 45.0047,
      "duration": 0.0137,
      "velocity": 100,
      "chip": "ym2612"
    },
    {
      "channel": 1,
      "note": 75,
      "start": 45.0063,
      "duration": 0.0134,
      "velocity": 110,
      "chip": "ym2612"
    },
    {
      "channel": 0,
      "note": 82,
      "start": 45.0128,
      "duration": 0.016,
      "velocity": 124,
      "chip": "ym2612"
    },
    {
      "channel": 3,
      "note": 71,
      "start": 45.0166,
      "duration": 0.016,
      "velocity": 110,
      "chip": "ym2612"
    },
    {
      "channel": 2,
      "note": 56,
      "start": 45.0184,
      "duration": 0.0154,
      "velocity": 100,
      "chip": "ym2612"
    },
    {
      "channel": 1,
      "note": 75,
      "start": 45.0196,
      "duration": 0.0159,
      "velocity": 110,
      "chip": "ym2612"
    },
    {
      "channel": 0,
      "note": 80,
      "start": 45.0288,
      "duration": 0.0161,
      "velocity": 124,
      "chip": "ym2612"
    },
    {
      "channel": 3,
      "note": 71,
      "start": 45.0326,
      "duration": 0.0161,
      "velocity": 110,
      "chip": "ym2612"
    },
    {
      "channel": 2,
      "note": 56,
      "start": 45.0338,
      "duration": 0.0161,
      "velocity": 100,
      "chip": "ym2612"
    },
    {
      "channel": 1,
      "note": 75,
      "start": 45.0355,
      "duration": 0.016,
      "velocity": 110,
      "chip": "ym2612"
    },
    {
      "channel": 0,
      "note": 77,
      "start": 45.0449,
      "duration": 0.0161,
      "velocity": 124,
      "chip": "ym2612"
    },
    {
      "channel": 3,
      "note": 71,
      "start": 45.0486,
      "duration": 0.0161,
      "velocity": 110,
      "chip": "ym2612"
    },
    {
      "channel": 2,
      "note": 56,
      "start": 45.0499,
      "duration": 0.0161,
      "velocity": 100,
      "chip": "ym2612"
    },
    {
      "channel": 1,
      "note": 75,
      "start": 45.0515,
      "duration": 0.0156,
      "velocity": 110,
      "chip": "ym2612"
    },
    {
      "channel": 0,
      "note": 75,
      "start": 45.061,
      "duration": 0.0161,
      "velocity": 124,
      "chip": "ym2612"
    },
    {
      "channel": 3,
      "note": 71,
      "start": 45.0647,
      "duration": 0.0161,
      "velocity": 110,
      "chip": "ym2612"
    },
    {
      "channel": 2,
      "note": 56,
      "start": 45.0659,
      "duration": 0.0161,
      "velocity": 100,
      "chip": "ym2612"
    },
    {
      "channel": 1,
      "note": 75,
      "start": 45.0671,
      "duration": 0.0161,
      "velocity": 110,
      "chip": "ym2612"
    },
    {
      "channel": 0,
      "note": 72,
      "start": 45.0771,
      "duration": 0.0179,
      "velocity": 124,
      "chip": "ym2612"
    },
    {
      "channel": 3,
      "note": 71,
      "start": 45.0808,
      "duration": 0.0179,
      "velocity": 110,
      "chip": "ym2612"
    },
    {
      "channel": 2,
      "note": 56,
      "start": 45.082,
      "duration": 0.0179,
      "velocity": 100,
      "chip": "ym2612"
    },
    {
      "channel": 1,
      "note": 75,
      "start": 45.0832,
      "duration": 0.0185,
      "velocity": 110,
      "chip": "ym2612"
    },
    {
      "channel": 0,
      "note": 84,
      "start": 45.0951,
      "duration": 0.0143,
      "velocity": 124,
      "chip": "ym2612"
    },
    {
      "channel": 3,
      "note": 71,
      "start": 45.0988,
      "duration": 0.0144,
      "velocity": 110,
      "chip": "ym2612"
    },
    {
      "channel": 2,
      "note": 56,
      "start": 45.1,
      "duration": 0.0143,
      "velocity": 100,
      "chip": "ym2612"
    },
    {
      "channel": 1,
      "note": 75,
      "start": 45.1017,
      "duration": 0.0137,
      "velocity": 110,
      "chip": "ym2612"
    },
    {
      "channel": 0,
      "note": 82,
      "start": 45.1094,
      "duration": 0.016,
      "velocity": 124,
      "chip": "ym2612"
    },
    {
      "channel": 2,
      "note": 56,
      "start": 45.1143,
      "duration": 0.016,
      "velocity": 100,
      "chip": "ym2612"
    },
    {
      "channel": 0,
      "note": 80,
      "start": 45.1254,
      "duration": 0.0161,
      "velocity": 124,
      "chip": "ym2612"
    },
    {
      "channel": 2,
      "note": 56,
      "start": 45.1303,
      "duration": 0.0161,
      "velocity": 100,
      "chip": "ym2612"
    },
    {
      "channel": 0,
      "note": 77,
      "start": 45.1415,
      "duration": 0.0161,
      "velocity": 124,
      "chip": "ym2612"
    },
    {
      "channel": 2,
      "note": 56,
      "start": 45.1464,
      "duration": 0.0162,
      "velocity": 100,
      "chip": "ym2612"
    },
    {
      "channel": 0,
      "note": 75,
      "start": 45.1576,
      "duration": 0.0161,
      "velocity": 124,
      "chip": "ym2612"
    },
    {
      "channel": 2,
      "note": 56,
      "start": 45.1626,
      "duration": 0.0161,
      "velocity": 100,
      "chip": "ym2612"
    },
    {
      "channel": 0,
      "note": 72,
      "start": 45.1737,
      "duration": 0.0161,
      "velocity": 124,
      "chip": "ym2612"
    },
    {
      "channel": 2,
      "note": 56,
      "start": 45.1787,
      "duration": 0.0161,
      "velocity": 100,
      "chip": "ym2612"
    },
    {
      "channel": 0,
      "note": 70,
      "start": 45.1898,
      "duration": 0.018,
      "velocity": 115,
      "chip": "ym2612"
    },
    {
      "channel": 2,
      "note": 56,
      "start": 45.1948,
      "duration": 0.0186,
      "velocity": 100,
      "chip": "ym2612"
    },
    {
      "channel": 0,
      "note": 36,
      "start": 45.2078,
      "duration": 0.0143,
      "velocity": 115,
      "chip": "ym2612"
    },
    {
      "channel": 3,
      "note": 75,
      "start": 45.212,
      "duration": 0.0139,
      "velocity": 110,
      "chip": "ym2612"
    },
    {
      "channel": 2,
      "note": 59,
      "start": 45.2134,
      "duration": 0.0137,
      "velocity": 100,
      "chip": "ym2612"
    },
    {
      "channel": 1,
      "note": 71,
      "start": 45.2149,
      "duration": 0.0134,
      "velocity": 110,
      "chip": "ym2612"
    },
    {
      "channel": 0,
      "note": 36,
      "start": 45.2221,
      "duration": 0.016,
      "velocity": 115,
      "chip": "ym2612"
    },
    {
      "channel": 3,
      "note": 75,
      "start": 45.2259,
      "duration": 0.0159,
      "velocity": 110,
      "chip": "ym2612"
    },
    {
      "channel": 2,
      "note": 59,
      "start": 45.2271,
      "duration": 0.0158,
      "velocity": 100,
      "chip": "ym2612"
    },
    {
      "channel": 1,
      "note": 71,
      "start": 45.2283,
      "duration": 0.0157,
      "velocity": 110,
      "chip": "ym2612"
    },
    {
      "channel": 0,
      "note": 37,
      "start": 45.2382,
      "duration": 0.0161,
      "velocity": 115,
      "chip": "ym2612"
    },
    {
      "channel": 3,
      "note": 75,
      "start": 45.2417,
      "duration": 0.0161,
      "velocity": 110,
      "chip": "ym2612"
    },
    {
      "channel": 2,
      "note": 59,
      "start": 45.2429,
      "duration": 0.0161,
      "velocity": 100,
      "chip": "ym2612"
    },
    {
      "channel": 1,
      "note": 71,
      "start": 45.244,
      "duration": 0.0161,
      "velocity": 110,
      "chip": "ym2612"
    },
    {
      "channel": 0,
      "note": 37,
      "start": 45.2542,
      "duration": 0.0162,
      "velocity": 115,
      "chip": "ym2612"
    },
    {
      "channel": 3,
      "note": 75,
      "start": 45.2578,
      "duration": 0.0162,
      "velocity": 110,
      "chip": "ym2612"
    },
    {
      "channel": 2,
      "note": 59,
      "start": 45.259,
      "duration": 0.0161,
      "velocity": 100,
      "chip": "ym2612"
    },
    {
      "channel": 1,
      "note": 71,
      "start": 45.2602,
      "duration": 0.0161,
      "velocity": 110,
      "chip": "ym2612"
    },
    {
      "channel": 0,
      "note": 38,
      "start": 45.2704,
      "duration": 0.0163,
      "velocity": 115,
      "chip": "ym2612"
    },
    {
      "channel": 3,
      "note": 75,
      "start": 45.274,
      "duration": 0.0163,
      "velocity": 110,
      "chip": "ym2612"
    },
    {
      "channel": 2,
      "note": 59,
      "start": 45.2751,
      "duration": 0.0163,
      "velocity": 100,
      "chip": "ym2612"
    },
    {
      "channel": 1,
      "note": 71,
      "start": 45.2763,
      "duration": 0.0163,
      "velocity": 110,
      "chip": "ym2612"
    },
    {
      "channel": 0,
      "note": 38,
      "start": 45.2868,
      "duration": 0.0163,
      "velocity": 115,
      "chip": "ym2612"
    },
    {
      "channel": 3,
      "note": 75,
      "start": 45.2902,
      "duration": 0.0163,
      "velocity": 110,
      "chip": "ym2612"
    },
    {
      "channel": 2,
      "note": 59,
      "start": 45.2914,
      "duration": 0.0163,
      "velocity": 100,
      "chip": "ym2612"
    },
    {
      "channel": 1,
      "note": 71,
      "start": 45.2926,
      "duration": 0.0163,
      "velocity": 110,
      "chip": "ym2612"
    },
    {
      "channel": 0,
      "note": 39,
      "start": 45.303,
      "duration": 0.0162,
      "velocity": 115,
      "chip": "ym2612"
    },
    {
      "channel": 3,
      "note": 75,
      "start": 45.3066,
      "duration": 0.0162,
      "velocity": 110,
      "chip": "ym2612"
    },
    {
      "channel": 2,
      "note": 59,
      "start": 45.3078,
      "duration": 0.0162,
      "velocity": 100,
      "chip": "ym2612"
    },
    {
      "channel": 1,
      "note": 71,
      "start": 45.309,
      "duration": 0.0161,
      "velocity": 110,
      "chip": "ym2612"
    },
    {
      "channel": 0,
      "note": 39,
      "start": 45.3193,
      "duration": 0.016,
      "velocity": 115,
      "chip": "ym2612"
    },
    {
      "channel": 2,
      "note": 59,
      "start": 45.324,
      "duration": 0.0161,
      "velocity": 100,
      "chip": "ym2612"
    },
    {
      "channel": 0,
      "note": 40,
      "start": 45.3353,
      "duration": 0.0161,
      "velocity": 115,
      "chip": "ym2612"
    },
    {
      "channel": 2,
      "note": 59,
      "start": 45.3401,
      "duration": 0.0161,
      "velocity": 100,
      "chip": "ym2612"
    },
    {
      "channel": 0,
      "note": 40,
      "start": 45.3514,
      "duration": 0.0156,
      "velocity": 115,
      "chip": "ym2612"
    },
    {
      "channel": 2,
      "note": 59,
      "start": 45.3561,
      "duration": 0.0161,
      "velocity": 100,
      "chip": "ym2612"
    },
    {
      "channel": 0,
      "note": 40,
      "start": 45.367,
      "duration": 0.0161,
      "velocity": 115,
      "chip": "ym2612"
    },
    {
      "channel": 2,
      "note": 59,
      "start": 45.3722,
      "duration": 0.0162,
      "velocity": 100,
      "chip": "ym2612"
    },
    {
      "channel": 0,
      "note": 41,
      "start": 45.3831,
      "duration": 0.0161,
      "velocity": 115,
      "chip": "ym2612"
    },
    {
      "channel": 2,
      "note": 59,
      "start": 45.3884,
      "duration": 0.016,
      "velocity": 100,
      "chip": "ym2612"
    },
    {
      "channel": 0,
      "note": 41,
      "start": 45.3992,
      "duration": 0.0161,
      "velocity": 115,
      "chip": "ym2612"
    },
    {
      "channel": 2,
      "note": 59,
      "start": 45.4044,
      "duration": 0.0166,
      "velocity": 100,
      "chip": "ym2612"
    },
    {
      "channel": 0,
      "note": 42,
      "start": 45.4153,
      "duration": 0.0161,
      "velocity": 115,
      "chip": "ym2612"
    },
    {
      "channel": 3,
      "note": 71,
      "start": 45.4199,
      "duration": 0.0157,
      "velocity": 110,
      "chip": "ym2612"
    },
    {
      "channel": 2,
      "note": 59,
      "start": 45.421,
      "duration": 0.0156,
      "velocity": 100,
      "chip": "ym2612"
    },
    {
      "channel": 1,
      "note": 75,
      "start": 45.4227,
      "duration": 0.0153,
      "velocity": 110,
      "chip": "ym2612"
    },
    {
      "channel": 0,
      "note": 42,
      "start": 45.4313,
      "duration": 0.0161,
      "velocity": 115,
      "chip": "ym2612"
    },
    {
      "channel": 3,
      "note": 71,
      "start": 45.4356,
      "duration": 0.016,
      "velocity": 110,
      "chip": "ym2612"
    },
    {
      "channel": 2,
      "note": 59,
      "start": 45.4367,
      "duration": 0.0161,
      "velocity": 100,
      "chip": "ym2612"
    },
    {
      "channel": 1,
      "note": 75,
      "start": 45.438,
      "duration": 0.016,
      "velocity": 110,
      "chip": "ym2612"
    },
    {
      "channel": 0,
      "note": 43,
      "start": 45.4474,
      "duration": 0.0161,
      "velocity": 115,
      "chip": "ym2612"
    },
    {
      "channel": 3,
      "note": 71,
      "start": 45.4516,
      "duration": 0.0155,
      "velocity": 110,
      "chip": "ym2612"
    },
    {
      "channel": 2,
      "note": 59,
      "start": 45.4528,
      "duration": 0.0161,
      "velocity": 100,
      "chip": "ym2612"
    },
    {
      "channel": 1,
      "note": 75,
      "start": 45.4539,
      "duration": 0.0161,
      "velocity": 110,
      "chip": "ym2612"
    },
    {
      "channel": 0,
      "note": 43,
      "start": 45.4635,
      "duration": 0.0161,
      "velocity": 115,
      "chip": "ym2612"
    },
    {
      "channel": 2,
      "note": 59,
      "start": 45.4689,
      "duration": 0.016,
      "velocity": 100,
      "chip": "ym2612"
    },
    {
      "channel": 0,
      "note": 44,
      "start": 45.4796,
      "duration": 0.0161,
      "velocity": 115,
      "chip": "ym2612"
    },
    {
      "channel": 2,
      "note": 59,
      "start": 45.4849,
      "duration": 0.0155,
      "velocity": 100,
      "chip": "ym2612"
    },
    {
      "channel": 0,
      "note": 44,
      "start": 45.4957,
      "duration": 0.0179,
      "velocity": 115,
      "chip": "ym2612"
    },
    {
      "channel": 2,
      "note": 59,
      "start": 45.5004,
      "duration": 0.0192,
      "velocity": 100,
      "chip": "ym2612"
    },
    {
      "channel": 0,
      "note": 36,
      "start": 45.5137,
      "duration": 0.0143,
      "velocity": 115,
      "chip": "ym2612"
    },
    {
      "channel": 3,
      "note": 71,
      "start": 45.5181,
      "duration": 0.0135,
      "velocity": 110,
      "chip": "ym2612"
    },
    {
      "channel": 2,
      "note": 59,
      "start": 45.5197,
      "duration": 0.0132,
      "velocity": 100,
      "chip": "ym2612"
    },
    {
      "channel": 1,
      "note": 75,
      "start": 45.5212,
      "duration": 0.0131,
      "velocity": 110,
      "chip": "ym2612"
    },
    {
      "channel": 0,
      "note": 36,
      "start": 45.528,
      "duration": 0.016,
      "velocity": 115,
      "chip": "ym2612"
    },
    {
      "channel": 3,
      "note": 71,
      "start": 45.5317,
      "duration": 0.016,
      "velocity": 110,
      "chip": "ym2612"
    },
    {
      "channel": 2,
      "note": 59,
      "start": 45.5329,
      "duration": 0.0159,
      "velocity": 100,
      "chip": "ym2612"
    },
    {
      "channel": 1,
      "note": 75,
      "start": 45.5343,
      "duration": 0.0157,
      "velocity": 110,
      "chip": "ym2612"
    },
    {
      "channel": 0,
      "note": 37,
      "start": 45.5441,
      "duration": 0.0161,
      "velocity": 115,
      "chip": "ym2612"
    },
    {
      "channel": 3,
      "note": 71,
      "start": 45.5476,
      "duration": 0.0161,
      "velocity": 110,
      "chip": "ym2612"
    },
    {
      "channel": 2,
      "note": 59,
      "start": 45.5488,
      "duration": 0.0161,
      "velocity": 100,
      "chip": "ym2612"
    },
    {
      "channel": 1,
      "note": 75,
      "start": 45.5499,
      "duration": 0.0161,
      "velocity": 110,
      "chip": "ym2612"
    },
    {
      "channel": 0,
      "note": 37,
      "start": 45.5602,
      "duration": 0.0161,
      "velocity": 115,
      "chip": "ym2612"
    },
    {
      "channel": 3,
      "note": 71,
      "start": 45.5637,
      "duration": 0.0161,
      "velocity": 110,
      "chip": "ym2612"
    },
    {
      "channel": 2,
      "note": 59,
      "start": 45.5649,
      "duration": 0.0161,
      "velocity": 100,
      "chip": "ym2612"
    },
    {
      "channel": 1,
      "note": 75,
      "start": 45.566,
      "duration": 0.0162,
      "velocity": 110,
      "chip": "ym2612"
    },
    {
      "channel": 0,
      "note": 38,
      "start": 45.5763,
      "duration": 0.0161,
      "velocity": 115,
      "chip": "ym2612"
    },
    {
      "channel": 2,
      "note": 59,
      "start": 45.581,
      "duration": 0.0161,
      "velocity": 100,
      "chip": "ym2612"
    },
    {
      "channel": 0,
      "note": 38,
      "start": 45.5924,
      "duration": 0.0161,
      "velocity": 115,
      "chip": "ym2612"
    },
    {
      "channel": 2,
      "note": 59,
      "start": 45.5971,
      "duration": 0.0161,
      "velocity": 100,
      "chip": "ym2612"
    },
    {
      "channel": 0,
      "note": 39,
      "start": 45.6084,
      "duration": 0.018,
      "velocity": 124,
      "chip": "ym2612"
    },
    {
      "channel": 2,
      "note": 59,
      "start": 45.6132,
      "duration": 0.0184,
      "velocity": 100,
      "chip": "ym2612"
    },
    {
      "channel": 0,
      "note": 84,
      "start": 45.6264,
      "duration": 0.0143,
      "velocity": 124,
      "chip": "ym2612"
    },
    {
      "channel": 3,
      "note": 75,
      "start": 45.6303,
      "duration": 0.0141,
      "velocity": 110,
      "chip": "ym2612"
    },
    {
      "channel": 2,
      "note": 59,
      "start": 45.6315,
      "duration": 0.0141,
      "velocity": 100,
      "chip": "ym2612"
    },
    {
      "channel": 1,
      "note": 71,
      "start": 45.6331,
      "duration": 0.0137,
      "velocity": 110,
      "chip": "ym2612"
    },
    {
      "channel": 0,
      "note": 82,
      "start": 45.6407,
      "duration": 0.0161,
      "velocity": 124,
      "chip": "ym2612"
    },
    {
      "channel": 3,
      "note": 75,
      "start": 45.6444,
      "duration": 0.0159,
      "velocity": 110,
      "chip": "ym2612"
    },
    {
      "channel": 2,
      "note": 59,
      "start": 45.6456,
      "duration": 0.0159,
      "velocity": 100,
      "chip": "ym2612"
    },
    {
      "channel": 1,
      "note": 71,
      "start": 45.6468,
      "duration": 0.0159,
      "velocity": 110,
      "chip": "ym2612"
    },
    {
      "channel": 0,
      "note": 80,
      "start": 45.6568,
      "duration": 0.0161,
      "velocity": 124,
      "chip": "ym2612"
    },
    {
      "channel": 3,
      "note": 75,
      "start": 45.6603,
      "duration": 0.0161,
      "velocity": 110,
      "chip": "ym2612"
    },
    {
      "channel": 2,
      "note": 59,
      "start": 45.6615,
      "duration": 0.0161,
      "velocity": 100,
      "chip": "ym2612"
    },
    {
      "channel": 1,
      "note": 71,
      "start": 45.6627,
      "duration": 0.016,
      "velocity": 110,
      "chip": "ym2612"
    },
    {
      "channel": 0,
      "note": 77,
      "start": 45.6729,
      "duration": 0.0161,
      "velocity": 124,
      "chip": "ym2612"
    },
    {
      "channel": 2,
      "note": 59,
      "start": 45.6776,
      "duration": 0.0161,
      "velocity": 100,
      "chip": "ym2612"
    },
    {
      "channel": 0,
      "note": 75,
      "start": 45.689,
      "duration": 0.0161,
      "velocity": 124,
      "chip": "ym2612"
    },
    {
      "channel": 2,
      "note": 59,
      "start": 45.6937,
      "duration": 0.0161,
      "velocity": 100,
      "chip": "ym2612"
    },
    {
      "channel": 0,
      "note": 72,
      "start": 45.7051,
      "duration": 0.0161,
      "velocity": 124,
      "chip": "ym2612"
    },
    {
      "channel": 2,
      "note": 59,
      "start": 45.7098,
      "duration": 0.0166,
      "velocity": 100,
      "chip": "ym2612"
    },
    {
      "channel": 0,
      "note": 70,
      "start": 45.7212,
      "duration": 0.0161,
      "velocity": 124,
      "chip": "ym2612"
    },
    {
      "channel": 3,
      "note": 75,
      "start": 45.7251,
      "duration": 0.0159,
      "velocity": 110,
      "chip": "ym2612"
    },
    {
      "channel": 2,
      "note": 59,
      "start": 45.7264,
      "duration": 0.0158,
      "velocity": 100,
      "chip": "ym2612"
    },
    {
      "channel": 1,
      "note": 71,
      "start": 45.7278,
      "duration": 0.0156,
      "velocity": 110,
      "chip": "ym2612"
    },
    {
      "channel": 0,
      "note": 68,
      "start": 45.7373,
      "duration": 0.0161,
      "velocity": 124,
      "chip": "ym2612"
    },
    {
      "channel": 3,
      "note": 75,
      "start": 45.741,
      "duration": 0.016,
      "velocity": 110,
      "chip": "ym2612"
    },
    {
      "channel": 2,
      "note": 59,
      "start": 45.7422,
      "duration": 0.016,
      "velocity": 100,
      "chip": "ym2612"
    },
    {
      "channel": 1,
      "note": 71,
      "start": 45.7434,
      "duration": 0.016,
      "velocity": 110,
      "chip": "ym2612"
    },
    {
      "channel": 0,
      "note": 65,
      "start": 45.7534,
      "duration": 0.0164,
      "velocity": 124,
      "chip": "ym2612"
    },
    {
      "channel": 3,
      "note": 75,
      "start": 45.757,
      "duration": 0.0165,
      "velocity": 110,
      "chip": "ym2612"
    },
    {
      "channel": 2,
      "note": 59,
      "start": 45.7583,
      "duration": 0.0164,
      "velocity": 100,
      "chip": "ym2612"
    },
    {
      "channel": 1,
      "note": 71,
      "start": 45.7594,
      "duration": 0.0165,
      "velocity": 110,
      "chip": "ym2612"
    },
    {
      "channel": 0,
      "note": 63,
      "start": 45.7698,
      "duration": 0.0155,
      "velocity": 1,
      "chip": "ym2612"
    },
    {
      "channel": 3,
      "note": 75,
      "start": 45.7735,
      "duration": 0.0154,
      "velocity": 110,
      "chip": "ym2612"
    },
    {
      "channel": 2,
      "note": 59,
      "start": 45.7747,
      "duration": 0.0155,
      "velocity": 100,
      "chip": "ym2612"
    },
    {
      "channel": 1,
      "note": 71,
      "start": 45.7759,
      "duration": 0.0155,
      "velocity": 110,
      "chip": "ym2612"
    },
    {
      "channel": 2,
      "note": 59,
      "start": 45.7901,
      "duration": 0.0153,
      "velocity": 100,
      "chip": "ym2612"
    },
    {
      "channel": 2,
      "note": 59,
      "start": 45.8054,
      "duration": 0.0161,
      "velocity": 100,
      "chip": "ym2612"
    },
    {
      "channel": 2,
      "note": 59,
      "start": 45.8215,
      "duration": 0.0202,
      "velocity": 100,
      "chip": "ym2612"
    },
    {
      "channel": 0,
      "note": 36,
      "start": 45.8363,
      "duration": 0.0137,
      "velocity": 115,
      "chip": "ym2612"
    },
    {
      "channel": 3,
      "note": 71,
      "start": 45.8402,
      "duration": 0.014,
      "velocity": 110,
      "chip": "ym2612"
    },
    {
      "channel": 2,
      "note": 54,
      "start": 45.8417,
      "duration": 0.0137,
      "velocity": 100,
      "chip": "ym2612"
    },
    {
      "channel": 1,
      "note": 75,
      "start": 45.8432,
      "duration": 0.0135,
      "velocity": 110,
      "chip": "ym2612"
    },
    {
      "channel": 0,
      "note": 36,
      "start": 45.85,
      "duration": 0.016,
      "velocity": 115,
      "chip": "ym2612"
    },
    {
      "channel": 3,
      "note": 71,
      "start": 45.8542,
      "duration": 0.016,
      "velocity": 110,
      "chip": "ym2612"
    },
    {
      "channel": 2,
      "note": 54,
      "start": 45.8555,
      "duration": 0.0159,
      "velocity": 100,
      "chip": "ym2612"
    },
    {
      "channel": 1,
      "note": 75,
      "start": 45.8567,
      "duration": 0.0158,
      "velocity": 110,
      "chip": "ym2612"
    },
    {
      "channel": 0,
      "note": 37,
      "start": 45.8661,
      "duration": 0.0161,
      "velocity": 115,
      "chip": "ym2612"
    },
    {
      "channel": 3,
      "note": 71,
      "start": 45.8702,
      "duration": 0.0161,
      "velocity": 110,
      "chip": "ym2612"
    },
    {
      "channel": 2,
      "note": 54,
      "start": 45.8714,
      "duration": 0.0161,
      "velocity": 100,
      "chip": "ym2612"
    },
    {
      "channel": 1,
      "note": 75,
      "start": 45.8726,
      "duration": 0.0161,
      "velocity": 110,
      "chip": "ym2612"
    },
    {
      "channel": 0,
      "note": 37,
      "start": 45.8822,
      "duration": 0.0161,
      "velocity": 115,
      "chip": "ym2612"
    },
    {
      "channel": 3,
      "note": 71,
      "start": 45.8863,
      "duration": 0.0162,
      "velocity": 110,
      "chip": "ym2612"
    },
    {
      "channel": 2,
      "note": 54,
      "start": 45.8875,
      "duration": 0.0161,
      "velocity": 100,
      "chip": "ym2612"
    },
    {
      "channel": 1,
      "note": 75,
      "start": 45.8887,
      "duration": 0.0162,
      "velocity": 110,
      "chip": "ym2612"
    },
    {
      "channel": 0,
      "note": 38,
      "start": 45.8983,
      "duration": 0.0161,
      "velocity": 115,
      "chip": "ym2612"
    },
    {
      "channel": 3,
      "note": 71,
      "start": 45.9025,
      "duration": 0.016,
      "velocity": 110,
      "chip": "ym2612"
    },
    {
      "channel": 2,
      "note": 54,
      "start": 45.9036,
      "duration": 0.0161,
      "velocity": 100,
      "chip": "ym2612"
    },
    {
      "channel": 1,
      "note": 75,
      "start": 45.9048,
      "duration": 0.016,
      "velocity": 110,
      "chip": "ym2612"
    },
    {
      "channel": 0,
      "note": 38,
      "start": 45.9144,
      "duration": 0.0179,
      "velocity": 115,
      "chip": "ym2612"
    },
    {
      "channel": 3,
      "note": 71,
      "start": 45.9185,
      "duration": 0.018,
      "velocity": 110,
      "chip": "ym2612"
    },
    {
      "channel": 2,
      "note": 54,
      "start": 45.9197,
      "duration": 0.0182,
      "velocity": 100,
      "chip": "ym2612"
    },
    {
      "channel": 1,
      "note": 75,
      "start": 45.9208,
      "duration": 0.0183,
      "velocity": 110,
      "chip": "ym2612"
    },
    {
      "channel": 0,
      "note": 36,
      "start": 45.9324,
      "duration": 0.0143,
      "velocity": 115,
      "chip": "ym2612"
    },
    {
      "channel": 3,
      "note": 71,
      "start": 45.9365,
      "duration": 0.0137,
      "velocity": 110,
      "chip": "ym2612"
    },
    {
      "channel": 2,
      "note": 56,
      "start": 45.938,
      "duration": 0.0141,
      "velocity": 100,
      "chip": "ym2612"
    },
    {
      "channel": 1,
      "note": 75,
      "start": 45.9391,
      "duration": 0.0141,
      "velocity": 110,
      "chip": "ym2612"
    },
    {
      "channel": 0,
      "note": 36,
      "start": 45.9466,
      "duration": 0.0161,
      "velocity": 115,
      "chip": "ym2612"
    },
    {
      "channel": 2,
      "note": 56,
      "start": 45.952,
      "duration": 0.0156,
      "velocity": 100,
      "chip": "ym2612"
    },
    {
      "channel": 0,
      "note": 37,
      "start": 45.9627,
      "duration": 0.0161,
      "velocity": 115,
      "chip": "ym2612"
    },
    {
      "channel": 2,
      "note": 56,
      "start": 45.9676,
      "duration": 0.0159,
      "velocity": 100,
      "chip": "ym2612"
    },
    {
      "channel": 0,
      "note": 37,
      "start": 45.9788,
      "duration": 0.0161,
      "velocity": 115,
      "chip": "ym2612"
    },
    {
      "channel": 2,
      "note": 56,
      "start": 45.9835,
      "duration": 0.0161,
      "velocity": 100,
      "chip": "ym2612"
    },
    {
      "channel": 0,
      "note": 38,
      "start": 45.9949,
      "duration": 0.0161,
      "velocity": 115,
      "chip": "ym2612"
    },
    {
      "channel": 2,
      "note": 56,
      "start": 45.9996,
      "duration": 0.0161,
      "velocity": 100,
      "chip": "ym2612"
    },
    {
      "channel": 0,
      "note": 38,
      "start": 46.011,
      "duration": 0.0161,
      "velocity": 115,
      "chip": "ym2612"
    },
    {
      "channel": 2,
      "note": 56,
      "start": 46.0157,
      "duration": 0.0162,
      "velocity": 100,
      "chip": "ym2612"
    },
    {
      "channel": 0,
      "note": 39,
      "start": 46.0271,
      "duration": 0.018,
      "velocity": 115,
      "chip": "ym2612"
    },
    {
      "channel": 2,
      "note": 56,
      "start": 46.0319,
      "duration": 0.0185,
      "velocity": 100,
      "chip": "ym2612"
    },
    {
      "channel": 0,
      "note": 36,
      "start": 46.045,
      "duration": 0.0143,
      "velocity": 115,
      "chip": "ym2612"
    },
    {
      "channel": 3,
      "note": 75,
      "start": 46.049,
      "duration": 0.014,
      "velocity": 110,
      "chip": "ym2612"
    },
    {
      "channel": 2,
      "note": 59,
      "start": 46.0504,
      "duration": 0.0138,
      "velocity": 100,
      "chip": "ym2612"
    },
    {
      "channel": 1,
      "note": 71,
      "start": 46.0525,
      "duration": 0.013,
      "velocity": 110,
      "chip": "ym2612"
    },
    {
      "channel": 0,
      "note": 36,
      "start": 46.0593,
      "duration": 0.016,
      "velocity": 115,
      "chip": "ym2612"
    },
    {
      "channel": 3,
      "note": 75,
      "start": 46.063,
      "duration": 0.016,
      "velocity": 110,
      "chip": "ym2612"
    },
    {
      "channel": 2,
      "note": 59,
      "start": 46.0642,
      "duration": 0.0159,
      "velocity": 100,
      "chip": "ym2612"
    },
    {
      "channel": 1,
      "note": 71,
      "start": 46.0654,
      "duration": 0.0159,
      "velocity": 110,
      "chip": "ym2612"
    },
    {
      "channel": 0,
      "note": 37,
      "start": 46.0754,
      "duration": 0.0161,
      "velocity": 115,
      "chip": "ym2612"
    },
    {
      "channel": 3,
      "note": 75,
      "start": 46.0789,
      "duration": 0.0161,
      "velocity": 110,
      "chip": "ym2612"
    },
    {
      "channel": 2,
      "note": 59,
      "start": 46.0801,
      "duration": 0.0161,
      "velocity": 100,
      "chip": "ym2612"
    },
    {
      "channel": 1,
      "note": 71,
      "start": 46.0813,
      "duration": 0.0161,
      "velocity": 110,
      "chip": "ym2612"
    },
    {
      "channel": 0,
      "note": 37,
      "start": 46.0915,
      "duration": 0.0162,
      "velocity": 115,
      "chip": "ym2612"
    },
    {
      "channel": 3,
      "note": 75,
      "start": 46.095,
      "duration": 0.0161,
      "velocity": 110,
      "chip": "ym2612"
    },
    {
      "channel": 2,
      "note": 59,
      "start": 46.0962,
      "duration": 0.0161,
      "velocity": 100,
      "chip": "ym2612"
    },
    {
      "channel": 1,
      "note": 71,
      "start": 46.0974,
      "duration": 0.0161,
      "velocity": 110,
      "chip": "ym2612"
    },
    {
      "channel": 0,
      "note": 38,
      "start": 46.1076,
      "duration": 0.0161,
      "velocity": 115,
      "chip": "ym2612"
    },
    {
      "channel": 3,
      "note": 75,
      "start": 46.1111,
      "duration": 0.0161,
      "velocity": 110,
      "chip": "ym2612"
    },
    {
      "channel": 2,
      "note": 59,
      "start": 46.1123,
      "duration": 0.0161,
      "velocity": 100,
      "chip": "ym2612"
    },
    {
      "channel": 1,
      "note": 71,
      "start": 46.1135,
      "duration": 0.0161,
      "velocity": 110,
      "chip": "ym2612"
    },
    {
      "channel": 0,
      "note": 38,
      "start": 46.1237,
      "duration": 0.0179,
      "velocity": 127,
      "chip": "ym2612"
    },
    {
      "channel": 3,
      "note": 75,
      "start": 46.1272,
      "duration": 0.018,
      "velocity": 110,
      "chip": "ym2612"
    },
    {
      "channel": 2,
      "note": 59,
      "start": 46.1284,
      "duration": 0.0183,
      "velocity": 100,
      "chip": "ym2612"
    },
    {
      "channel": 1,
      "note": 71,
      "start": 46.1296,
      "duration": 0.0183,
      "velocity": 110,
      "chip": "ym2612"
    },
    {
      "channel": 0,
      "note": 88,
      "start": 46.1417,
      "duration": 0.0143,
      "velocity": 127,
      "chip": "ym2612"
    },
    {
      "channel": 3,
      "note": 75,
      "start": 46.1452,
      "duration": 0.0143,
      "velocity": 110,
      "chip": "ym2612"
    },
    {
      "channel": 2,
      "note": 71,
      "start": 46.1467,
      "duration": 0.0141,
      "velocity": 100,
      "chip": "ym2612"
    },
    {
      "channel": 1,
      "note": 71,
      "start": 46.1478,
      "duration": 0.0141,
      "velocity": 110,
      "chip": "ym2612"
    },
    {
      "channel": 0,
      "note": 86,
      "start": 46.156,
      "duration": 0.016,
      "velocity": 127,
      "chip": "ym2612"
    },
    {
      "channel": 2,
      "note": 71,
      "start": 46.1608,
      "duration": 0.0159,
      "velocity": 100,
      "chip": "ym2612"
    },
    {
      "channel": 0,
      "note": 85,
      "start": 46.172,
      "duration": 0.0161,
      "velocity": 127,
      "chip": "ym2612"
    },
    {
      "channel": 2,
      "note": 71,
      "start": 46.1767,
      "duration": 0.0161,
      "velocity": 100,
      "chip": "ym2612"
    },
    {
      "channel": 0,
      "note": 83,
      "start": 46.1881,
      "duration": 0.0161,
      "velocity": 127,
      "chip": "ym2612"
    },
    {
      "channel": 2,
      "note": 71,
      "start": 46.1928,
      "duration": 0.0162,
      "velocity": 100,
      "chip": "ym2612"
    },
    {
      "channel": 0,
      "note": 81,
      "start": 46.2042,
      "duration": 0.0161,
      "velocity": 127,
      "chip": "ym2612"
    },
    {
      "channel": 2,
      "note": 71,
      "start": 46.209,
      "duration": 0.0161,
      "velocity": 100,
      "chip": "ym2612"
    },
    {
      "channel": 0,
      "note": 80,
      "start": 46.2203,
      "duration": 0.0163,
      "velocity": 127,
      "chip": "ym2612"
    },
    {
      "channel": 2,
      "note": 71,
      "start": 46.2251,
      "duration": 0.0163,
      "velocity": 100,
      "chip": "ym2612"
    },
    {
      "channel": 0,
      "note": 78,
      "start": 46.2367,
      "duration": 0.0163,
      "velocity": 127,
      "chip": "ym2612"
    },
    {
      "channel": 2,
      "note": 71,
      "start": 46.2414,
      "duration": 0.017,
      "velocity": 100,
      "chip": "ym2612"
    },
    {
      "channel": 0,
      "note": 76,
      "start": 46.253,
      "duration": 0.0162,
      "velocity": 127,
      "chip": "ym2612"
    },
    {
      "channel": 3,
      "note": 71,
      "start": 46.257,
      "duration": 0.0158,
      "velocity": 110,
      "chip": "ym2612"
    },
    {
      "channel": 2,
      "note": 59,
      "start": 46.2584,
      "duration": 0.0156,
      "velocity": 100,
      "chip": "ym2612"
    },
    {
      "channel": 1,
      "note": 75,
      "start": 46.26,
      "duration": 0.0152,
      "velocity": 110,
      "chip": "ym2612"
    },
    {
      "channel": 0,
      "note": 75,
      "start": 46.2692,
      "duration": 0.016,
      "velocity": 127,
      "chip": "ym2612"
    },
    {
      "channel": 3,
      "note": 71,
      "start": 46.2728,
      "duration": 0.0161,
      "velocity": 110,
      "chip": "ym2612"
    },
    {
      "channel": 2,
      "note": 59,
      "start": 46.274,
      "duration": 0.016,
      "velocity": 100,
      "chip": "ym2612"
    },
    {
      "channel": 1,
      "note": 75,
      "start": 46.2752,
      "duration": 0.016,
      "velocity": 110,
      "chip": "ym2612"
    },
    {
      "channel": 0,
      "note": 73,
      "start": 46.2852,
      "duration": 0.0161,
      "velocity": 127,
      "chip": "ym2612"
    },
    {
      "channel": 3,
      "note": 71,
      "start": 46.2889,
      "duration": 0.016,
      "velocity": 110,
      "chip": "ym2612"
    },
    {
      "channel": 2,
      "note": 59,
      "start": 46.2901,
      "duration": 0.016,
      "velocity": 100,
      "chip": "ym2612"
    },
    {
      "channel": 1,
      "note": 75,
      "start": 46.2912,
      "duration": 0.016,
      "velocity": 110,
      "chip": "ym2612"
    },
    {
      "channel": 0,
      "note": 71,
      "start": 46.3013,
      "duration": 0.0156,
      "velocity": 127,
      "chip": "ym2612"
    },
    {
      "channel": 3,
      "note": 71,
      "start": 46.3049,
      "duration": 0.0161,
      "velocity": 110,
      "chip": "ym2612"
    },
    {
      "channel": 2,
      "note": 59,
      "start": 46.3061,
      "duration": 0.0161,
      "velocity": 100,
      "chip": "ym2612"
    },
    {
      "channel": 1,
      "note": 75,
      "start": 46.3072,
      "duration": 0.0161,
      "velocity": 110,
      "chip": "ym2612"
    },
    {
      "channel": 0,
      "note": 69,
      "start": 46.3169,
      "duration": 0.0161,
      "velocity": 127,
      "chip": "ym2612"
    },
    {
      "channel": 3,
      "note": 71,
      "start": 46.321,
      "duration": 0.0161,
      "velocity": 110,
      "chip": "ym2612"
    },
    {
      "channel": 2,
      "note": 59,
      "start": 46.3222,
      "duration": 0.0161,
      "velocity": 100,
      "chip": "ym2612"
    },
    {
      "channel": 1,
      "note": 75,
      "start": 46.3233,
      "duration": 0.0161,
      "velocity": 110,
      "chip": "ym2612"
    },
    {
      "channel": 0,
      "note": 68,
      "start": 46.333,
      "duration": 0.0185,
      "velocity": 127,
      "chip": "ym2612"
    },
    {
      "channel": 3,
      "note": 71,
      "start": 46.3371,
      "duration": 0.018,
      "velocity": 110,
      "chip": "ym2612"
    },
    {
      "channel": 2,
      "note": 59,
      "start": 46.3383,
      "duration": 0.0183,
      "velocity": 100,
      "chip": "ym2612"
    },
    {
      "channel": 1,
      "note": 75,
      "start": 46.3395,
      "duration": 0.0183,
      "velocity": 110,
      "chip": "ym2612"
    },
    {
      "channel": 0,
      "note": 84,
      "start": 46.3516,
      "duration": 0.0137,
      "velocity": 127,
      "chip": "ym2612"
    },
    {
      "channel": 3,
      "note": 71,
      "start": 46.3552,
      "duration": 0.0143,
      "velocity": 110,
      "chip": "ym2612"
    },
    {
      "channel": 2,
      "note": 71,
      "start": 46.3567,
      "duration": 0.014,
      "velocity": 100,
      "chip": "ym2612"
    },
    {
      "channel": 1,
      "note": 75,
      "start": 46.3578,
      "duration": 0.014,
      "velocity": 110,
      "chip": "ym2612"
    },
    {
      "channel": 0,
      "note": 82,
      "start": 46.3653,
      "duration": 0.016,
      "velocity": 127,
      "chip": "ym2612"
    },
    {
      "channel": 2,
      "note": 71,
      "start": 46.3707,
      "duration": 0.016,
      "velocity": 100,
      "chip": "ym2612"
    },
    {
      "channel": 0,
      "note": 81,
      "start": 46.3813,
      "duration": 0.0161,
      "velocity": 127,
      "chip": "ym2612"
    },
    {
      "channel": 2,
      "note": 71,
      "start": 46.3866,
      "duration": 0.0161,
      "velocity": 100,
      "chip": "ym2612"
    },
    {
      "channel": 0,
      "note": 79,
      "start": 46.3974,
      "duration": 0.0161,
      "velocity": 127,
      "chip": "ym2612"
    },
    {
      "channel": 2,
      "note": 71,
      "start": 46.4027,
      "duration": 0.0162,
      "velocity": 100,
      "chip": "ym2612"
    },
    {
      "channel": 0,
      "note": 77,
      "start": 46.4135,
      "duration": 0.0162,
      "velocity": 127,
      "chip": "ym2612"
    },
    {
      "channel": 2,
      "note": 71,
      "start": 46.4189,
      "duration": 0.016,
      "velocity": 100,
      "chip": "ym2612"
    },
    {
      "channel": 0,
      "note": 76,
      "start": 46.4296,
      "duration": 0.0161,
      "velocity": 127,
      "chip": "ym2612"
    },
    {
      "channel": 2,
      "note": 71,
      "start": 46.4349,
      "duration": 0.0156,
      "velocity": 100,
      "chip": "ym2612"
    },
    {
      "channel": 0,
      "note": 74,
      "start": 46.4457,
      "duration": 0.0179,
      "velocity": 127,
      "chip": "ym2612"
    },
    {
      "channel": 2,
      "note": 71,
      "start": 46.4504,
      "duration": 0.0191,
      "velocity": 100,
      "chip": "ym2612"
    },
    {
      "channel": 0,
      "note": 78,
      "start": 46.4637,
      "duration": 0.0143,
      "velocity": 127,
      "chip": "ym2612"
    },
    {
      "channel": 3,
      "note": 75,
      "start": 46.4681,
      "duration": 0.0135,
      "velocity": 110,
      "chip": "ym2612"
    },
    {
      "channel": 2,
      "note": 59,
      "start": 46.4696,
      "duration": 0.0132,
      "velocity": 100,
      "chip": "ym2612"
    },
    {
      "channel": 1,
      "note": 71,
      "start": 46.4712,
      "duration": 0.013,
      "velocity": 110,
      "chip": "ym2612"
    },
    {
      "channel": 0,
      "note": 76,
      "start": 46.478,
      "duration": 0.016,
      "velocity": 127,
      "chip": "ym2612"
    },
    {
      "channel": 3,
      "note": 75,
      "start": 46.4816,
      "duration": 0.016,
      "velocity": 110,
      "chip": "ym2612"
    },
    {
      "channel": 2,
      "note": 59,
      "start": 46.4828,
      "duration": 0.0159,
      "velocity": 100,
      "chip": "ym2612"
    },
    {
      "channel": 1,
      "note": 71,
      "start": 46.4842,
      "duration": 0.0157,
      "velocity": 110,
      "chip": "ym2612"
    },
    {
      "channel": 0,
      "note": 75,
      "start": 46.494,
      "duration": 0.0161,
      "velocity": 127,
      "chip": "ym2612"
    },
    {
      "channel": 3,
      "note": 75,
      "start": 46.4976,
      "duration": 0.0161,
      "velocity": 110,
      "chip": "ym2612"
    },
    {
      "channel": 2,
      "note": 59,
      "start": 46.4987,
      "duration": 0.0161,
      "velocity": 100,
      "chip": "ym2612"
    },
    {
      "channel": 1,
      "note": 71,
      "start": 46.4999,
      "duration": 0.0161,
      "velocity": 110,
      "chip": "ym2612"
    },
    {
      "channel": 0,
      "note": 73,
      "start": 46.5101,
      "duration": 0.0161,
      "velocity": 127,
      "chip": "ym2612"
    },
    {
      "channel": 3,
      "note": 75,
      "start": 46.5137,
      "duration": 0.0161,
      "velocity": 110,
      "chip": "ym2612"
    },
    {
      "channel": 2,
      "note": 59,
      "start": 46.5148,
      "duration": 0.0161,
      "velocity": 100,
      "chip": "ym2612"
    },
    {
      "channel": 1,
      "note": 71,
      "start": 46.516,
      "duration": 0.0161,
      "velocity": 110,
      "chip": "ym2612"
    },
    {
      "channel": 0,
      "note": 71,
      "start": 46.5262,
      "duration": 0.0161,
      "velocity": 127,
      "chip": "ym2612"
    },
    {
      "channel": 3,
      "note": 75,
      "start": 46.5298,
      "duration": 0.0162,
      "velocity": 110,
      "chip": "ym2612"
    },
    {
      "channel": 2,
      "note": 59,
      "start": 46.5309,
      "duration": 0.0161,
      "velocity": 100,
      "chip": "ym2612"
    },
    {
      "channel": 1,
      "note": 71,
      "start": 46.5321,
      "duration": 0.0162,
      "velocity": 110,
      "chip": "ym2612"
    },
    {
      "channel": 0,
      "note": 70,
      "start": 46.5423,
      "duration": 0.0179,
      "velocity": 115,
      "chip": "ym2612"
    },
    {
      "channel": 3,
      "note": 75,
      "start": 46.5459,
      "duration": 0.0179,
      "velocity": 110,
      "chip": "ym2612"
    },
    {
      "channel": 2,
      "note": 59,
      "start": 46.5471,
      "duration": 0.0179,
      "velocity": 100,
      "chip": "ym2612"
    },
    {
      "channel": 1,
      "note": 71,
      "start": 46.5483,
      "duration": 0.0179,
      "velocity": 110,
      "chip": "ym2612"
    },
    {
      "channel": 0,
      "note": 36,
      "start": 46.5603,
      "duration": 0.0143,
      "velocity": 115,
      "chip": "ym2612"
    },
    {
      "channel": 3,
      "note": 75,
      "start": 46.5639,
      "duration": 0.0143,
      "velocity": 110,
      "chip": "ym2612"
    },
    {
      "channel": 2,
      "note": 59,
      "start": 46.565,
      "duration": 0.0143,
      "velocity": 100,
      "chip": "ym2612"
    },
    {
      "channel": 1,
      "note": 71,
      "start": 46.5661,
      "duration": 0.0143,
      "velocity": 110,
      "chip": "ym2612"
    },
    {
      "channel": 0,
      "note": 36,
      "start": 46.5746,
      "duration": 0.016,
      "velocity": 115,
      "chip": "ym2612"
    },
    {
      "channel": 2,
      "note": 59,
      "start": 46.5793,
      "duration": 0.016,
      "velocity": 100,
      "chip": "ym2612"
    },
    {
      "channel": 0,
      "note": 37,
      "start": 46.5906,
      "duration": 0.0161,
      "velocity": 115,
      "chip": "ym2612"
    },
    {
      "channel": 2,
      "note": 59,
      "start": 46.5954,
      "duration": 0.0161,
      "velocity": 100,
      "chip": "ym2612"
    },
    {
      "channel": 0,
      "note": 37,
      "start": 46.6067,
      "duration": 0.0161,
      "velocity": 115,
      "chip": "ym2612"
    },
    {
      "channel": 2,
      "note": 59,
      "start": 46.6114,
      "duration": 0.0161,
      "velocity": 100,
      "chip": "ym2612"
    },
    {
      "channel": 0,
      "note": 38,
      "start": 46.6228,
      "duration": 0.0161,
      "velocity": 115,
      "chip": "ym2612"
    },
    {
      "channel": 2,
      "note": 59,
      "start": 46.6275,
      "duration": 0.0161,
      "velocity": 100,
      "chip": "ym2612"
    },
    {
      "channel": 0,
      "note": 38,
      "start": 46.6389,
      "duration": 0.0161,
      "velocity": 115,
      "chip": "ym2612"
    },
    {
      "channel": 2,
      "note": 59,
      "start": 46.6436,
      "duration": 0.0161,
      "velocity": 100,
      "chip": "ym2612"
    },
    {
      "channel": 0,
      "note": 39,
      "start": 46.655,
      "duration": 0.0179,
      "velocity": 124,
      "chip": "ym2612"
    },
    {
      "channel": 2,
      "note": 59,
      "start": 46.6597,
      "duration": 0.0186,
      "velocity": 100,
      "chip": "ym2612"
    },
    {
      "channel": 0,
      "note": 84,
      "start": 46.673,
      "duration": 0.0143,
      "velocity": 124,
      "chip": "ym2612"
    },
    {
      "channel": 3,
      "note": 71,
      "start": 46.677,
      "duration": 0.014,
      "velocity": 110,
      "chip": "ym2612"
    },
    {
      "channel": 2,
      "note": 54,
      "start": 46.6784,
      "duration": 0.0137,
      "velocity": 100,
      "chip": "ym2612"
    },
    {
      "channel": 1,
      "note": 75,
      "start": 46.68,
      "duration": 0.0134,
      "velocity": 110,
      "chip": "ym2612"
    },
    {
      "channel": 0,
      "note": 82,
      "start": 46.6873,
      "duration": 0.0161,
      "velocity": 124,
      "chip": "ym2612"
    },
    {
      "channel": 3,
      "note": 71,
      "start": 46.691,
      "duration": 0.016,
      "velocity": 110,
      "chip": "ym2612"
    },
    {
      "channel": 2,
      "note": 54,
      "start": 46.6922,
      "duration": 0.016,
      "velocity": 100,
      "chip": "ym2612"
    },
    {
      "channel": 1,
      "note": 75,
      "start": 46.6934,
      "duration": 0.0159,
      "velocity": 110,
      "chip": "ym2612"
    },
    {
      "channel": 0,
      "note": 80,
      "start": 46.7034,
      "duration": 0.0164,
      "velocity": 124,
      "chip": "ym2612"
    },
    {
      "channel": 3,
      "note": 71,
      "start": 46.707,
      "duration": 0.0164,
      "velocity": 110,
      "chip": "ym2612"
    },
    {
      "channel": 2,
      "note": 54,
      "start": 46.7081,
      "duration": 0.0164,
      "velocity": 100,
      "chip": "ym2612"
    },
    {
      "channel": 1,
      "note": 75,
      "start": 46.7093,
      "duration": 0.0164,
      "velocity": 110,
      "chip": "ym2612"
    },
    {
      "channel": 0,
      "note": 77,
      "start": 46.7198,
      "duration": 0.0163,
      "velocity": 124,
      "chip": "ym2612"
    },
    {
      "channel": 3,
      "note": 71,
      "start": 46.7234,
      "duration": 0.0163,
      "velocity": 110,
      "chip": "ym2612"
    },
    {
      "channel": 2,
      "note": 54,
      "start": 46.7245,
      "duration": 0.0163,
      "velocity": 100,
      "chip": "ym2612"
    },
    {
      "channel": 1,
      "note": 75,
      "start": 46.7257,
      "duration": 0.0163,
      "velocity": 110,
      "chip": "ym2612"
    },
    {
      "channel": 0,
      "note": 75,
      "start": 46.7361,
      "duration": 0.0161,
      "velocity": 124,
      "chip": "ym2612"
    },
    {
      "channel": 3,
      "note": 71,
      "start": 46.7397,
      "duration": 0.0161,
      "velocity": 110,
      "chip": "ym2612"
    },
    {
      "channel": 2,
      "note": 54,
      "start": 46.7408,
      "duration": 0.0161,
      "velocity": 100,
      "chip": "ym2612"
    },
    {
      "channel": 1,
      "note": 75,
      "start": 46.742,
      "duration": 0.0161,
      "velocity": 110,
      "chip": "ym2612"
    },
    {
      "channel": 0,
      "note": 72,
      "start": 46.7522,
      "duration": 0.0179,
      "velocity": 124,
      "chip": "ym2612"
    },
    {
      "channel": 3,
      "note": 71,
      "start": 46.7558,
      "duration": 0.0179,
      "velocity": 110,
      "chip": "ym2612"
    },
    {
      "channel": 2,
      "note": 54,
      "start": 46.7569,
      "duration": 0.0179,
      "velocity": 100,
      "chip": "ym2612"
    },
    {
      "channel": 1,
      "note": 75,
      "start": 46.7581,
      "duration": 0.018,
      "velocity": 110,
      "chip": "ym2612"
    },
    {
      "channel": 0,
      "note": 84,
      "start": 46.7702,
      "duration": 0.014,
      "velocity": 124,
      "chip": "ym2612"
    },
    {
      "channel": 3,
      "note": 71,
      "start": 46.7737,
      "duration": 0.0144,
      "velocity": 110,
      "chip": "ym2612"
    },
    {
      "channel": 2,
      "note": 54,
      "start": 46.7749,
      "duration": 0.0144,
      "velocity": 100,
      "chip": "ym2612"
    },
    {
      "channel": 1,
      "note": 75,
      "start": 46.7761,
      "duration": 0.0144,
      "velocity": 110,
      "chip": "ym2612"
    },
    {
      "channel": 0,
      "note": 82,
      "start": 46.7841,
      "duration": 0.0158,
      "velocity": 124,
      "chip": "ym2612"
    },
    {
      "channel": 2,
      "note": 54,
      "start": 46.7892,
      "duration": 0.016,
      "velocity": 100,
      "chip": "ym2612"
    },
    {
      "channel": 0,
      "note": 80,
      "start": 46.7999,
      "duration": 0.0161,
      "velocity": 124,
      "chip": "ym2612"
    },
    {
      "channel": 2,
      "note": 54,
      "start": 46.8053,
      "duration": 0.0161,
      "velocity": 100,
      "chip": "ym2612"
    },
    {
      "channel": 0,
      "note": 77,
      "start": 46.816,
      "duration": 0.0162,
      "velocity": 124,
      "chip": "ym2612"
    },
    {
      "channel": 2,
      "note": 54,
      "start": 46.8214,
      "duration": 0.0161,
      "velocity": 100,
      "chip": "ym2612"
    },
    {
      "channel": 0,
      "note": 75,
      "start": 46.8322,
      "duration": 0.0161,
      "velocity": 124,
      "chip": "ym2612"
    },
    {
      "channel": 2,
      "note": 54,
      "start": 46.8375,
      "duration": 0.0161,
      "velocity": 100,
      "chip": "ym2612"
    },
    {
      "channel": 0,
      "note": 72,
      "start": 46.8483,
      "duration": 0.0161,
      "velocity": 124,
      "chip": "ym2612"
    },
    {
      "channel": 2,
      "note": 54,
      "start": 46.8535,
      "duration": 0.0161,
      "velocity": 100,
      "chip": "ym2612"
    },
    {
      "channel": 0,
      "note": 70,
      "start": 46.8644,
      "duration": 0.0179,
      "velocity": 115,
      "chip": "ym2612"
    },
    {
      "channel": 2,
      "note": 54,
      "start": 46.8696,
      "duration": 0.019,
      "velocity": 100,
      "chip": "ym2612"
    },
    {
      "channel": 0,
      "note": 36,
      "start": 46.8823,
      "duration": 0.0143,
      "velocity": 115,
      "chip": "ym2612"
    },
    {
      "channel": 3,
      "note": 75,
      "start": 46.8872,
      "duration": 0.0132,
      "velocity": 110,
      "chip": "ym2612"
    },
    {
      "channel": 2,
      "note": 56,
      "start": 46.8886,
      "duration": 0.0136,
      "velocity": 100,
      "chip": "ym2612"
    },
    {
      "channel": 1,
      "note": 71,
      "start": 46.8901,
      "duration": 0.0133,
      "velocity": 110,
      "chip": "ym2612"
    },
    {
      "channel": 0,
      "note": 36,
      "start": 46.8966,
      "duration": 0.016,
      "velocity": 115,
      "chip": "ym2612"
    },
    {
      "channel": 3,
      "note": 75,
      "start": 46.9004,
      "duration": 0.0159,
      "velocity": 110,
      "chip": "ym2612"
    },
    {
      "channel": 2,
      "note": 56,
      "start": 46.9022,
      "duration": 0.0154,
      "velocity": 100,
      "chip": "ym2612"
    },
    {
      "channel": 1,
      "note": 71,
      "start": 46.9034,
      "duration": 0.0157,
      "velocity": 110,
      "chip": "ym2612"
    },
    {
      "channel": 0,
      "note": 37,
      "start": 46.9127,
      "duration": 0.0161,
      "velocity": 115,
      "chip": "ym2612"
    },
    {
      "channel": 3,
      "note": 75,
      "start": 46.9162,
      "duration": 0.0161,
      "velocity": 110,
      "chip": "ym2612"
    },
    {
      "channel": 2,
      "note": 56,
      "start": 46.9176,
      "duration": 0.0159,
      "velocity": 100,
      "chip": "ym2612"
    },
    {
      "channel": 1,
      "note": 71,
      "start": 46.9191,
      "duration": 0.016,
      "velocity": 110,
      "chip": "ym2612"
    },
    {
      "channel": 0,
      "note": 37,
      "start": 46.9287,
      "duration": 0.0161,
      "velocity": 115,
      "chip": "ym2612"
    },
    {
      "channel": 3,
      "note": 75,
      "start": 46.9324,
      "duration": 0.016,
      "velocity": 110,
      "chip": "ym2612"
    },
    {
      "channel": 2,
      "note": 56,
      "start": 46.9335,
      "duration": 0.016,
      "velocity": 100,
      "chip": "ym2612"
    },
    {
      "channel": 1,
      "note": 71,
      "start": 46.9352,
      "duration": 0.0158,
      "velocity": 110,
      "chip": "ym2612"
    },
    {
      "channel": 0,
      "note": 38,
      "start": 46.9448,
      "duration": 0.0161,
      "velocity": 115,
      "chip": "ym2612"
    },
    {
      "channel": 3,
      "note": 75,
      "start": 46.9484,
      "duration": 0.0161,
      "velocity": 110,
      "chip": "ym2612"
    },
    {
      "channel": 2,
      "note": 56,
      "start": 46.9495,
      "duration": 0.0161,
      "velocity": 100,
      "chip": "ym2612"
    },
    {
      "channel": 1,
      "note": 71,
      "start": 46.9509,
      "duration": 0.0159,
      "velocity": 110,
      "chip": "ym2612"
    },
    {
      "channel": 0,
      "note": 38,
      "start": 46.9609,
      "duration": 0.0161,
      "velocity": 115,
      "chip": "ym2612"
    },
    {
      "channel": 3,
      "note": 75,
      "start": 46.9645,
      "duration": 0.0161,
      "velocity": 110,
      "chip": "ym2612"
    },
    {
      "channel": 2,
      "note": 56,
      "start": 46.9656,
      "duration": 0.0161,
      "velocity": 100,
      "chip": "ym2612"
    },
    {
      "channel": 1,
      "note": 71,
      "start": 46.9668,
      "duration": 0.0161,
      "velocity": 110,
      "chip": "ym2612"
    },
    {
      "channel": 0,
      "note": 39,
      "start": 46.977,
      "duration": 0.0161,
      "velocity": 115,
      "chip": "ym2612"
    },
    {
      "channel": 3,
      "note": 75,
      "start": 46.9806,
      "duration": 0.0161,
      "velocity": 110,
      "chip": "ym2612"
    },
    {
      "channel": 2,
      "note": 56,
      "start": 46.9817,
      "duration": 0.0162,
      "velocity": 100,
      "chip": "ym2612"
    },
    {
      "channel": 1,
      "note": 71,
      "start": 46.9829,
      "duration": 0.0161,
      "velocity": 110,
      "chip": "ym2612"
    },
    {
      "channel": 0,
      "note": 39,
      "start": 46.9932,
      "duration": 0.0161,
      "velocity": 115,
      "chip": "ym2612"
    },
    {
      "channel": 2,
      "note": 56,
      "start": 46.9979,
      "duration": 0.016,
      "velocity": 100,
      "chip": "ym2612"
    },
    {
      "channel": 0,
      "note": 40,
      "start": 47.0093,
      "duration": 0.0161,
      "velocity": 115,
      "chip": "ym2612"
    },
    {
      "channel": 2,
      "note": 56,
      "start": 47.0139,
      "duration": 0.0161,
      "velocity": 100,
      "chip": "ym2612"
    },
    {
      "channel": 0,
      "note": 40,
      "start": 47.0254,
      "duration": 0.0161,
      "velocity": 115,
      "chip": "ym2612"
    },
    {
      "channel": 2,
      "note": 56,
      "start": 47.0301,
      "duration": 0.0161,
      "velocity": 100,
      "chip": "ym2612"
    },
    {
      "channel": 0,
      "note": 40,
      "start": 47.0415,
      "duration": 0.0161,
      "velocity": 115,
      "chip": "ym2612"
    },
    {
      "channel": 2,
      "note": 56,
      "start": 47.0462,
      "duration": 0.0162,
      "velocity": 100,
      "chip": "ym2612"
    },
    {
      "channel": 0,
      "note": 41,
      "start": 47.0576,
      "duration": 0.0161,
      "velocity": 115,
      "chip": "ym2612"
    },
    {
      "channel": 2,
      "note": 56,
      "start": 47.0623,
      "duration": 0.016,
      "velocity": 100,
      "chip": "ym2612"
    },
    {
      "channel": 0,
      "note": 41,
      "start": 47.0737,
      "duration": 0.0161,
      "velocity": 115,
      "chip": "ym2612"
    },
    {
      "channel": 2,
      "note": 56,
      "start": 47.0784,
      "duration": 0.0166,
      "velocity": 100,
      "chip": "ym2612"
    },
    {
      "channel": 0,
      "note": 42,
      "start": 47.0898,
      "duration": 0.0161,
      "velocity": 115,
      "chip": "ym2612"
    },
    {
      "channel": 3,
      "note": 71,
      "start": 47.0938,
      "duration": 0.0156,
      "velocity": 110,
      "chip": "ym2612"
    },
    {
      "channel": 2,
      "note": 56,
      "start": 47.095,
      "duration": 0.0156,
      "velocity": 100,
      "chip": "ym2612"
    },
    {
      "channel": 1,
      "note": 75,
      "start": 47.0966,
      "duration": 0.0153,
      "velocity": 110,
      "chip": "ym2612"
    },
    {
      "channel": 0,
      "note": 42,
      "start": 47.1058,
      "duration": 0.0161,
      "velocity": 115,
      "chip": "ym2612"
    },
    {
      "channel": 3,
      "note": 71,
      "start": 47.1095,
      "duration": 0.016,
      "velocity": 110,
      "chip": "ym2612"
    },
    {
      "channel": 2,
      "note": 56,
      "start": 47.1106,
      "duration": 0.016,
      "velocity": 100,
      "chip": "ym2612"
    },
    {
      "channel": 1,
      "note": 75,
      "start": 47.1119,
      "duration": 0.016,
      "velocity": 110,
      "chip": "ym2612"
    },
    {
      "channel": 0,
      "note": 43,
      "start": 47.1219,
      "duration": 0.0162,
      "velocity": 115,
      "chip": "ym2612"
    },
    {
      "channel": 3,
      "note": 71,
      "start": 47.1255,
      "duration": 0.0161,
      "velocity": 110,
      "chip": "ym2612"
    },
    {
      "channel": 2,
      "note": 56,
      "start": 47.1266,
      "duration": 0.0161,
      "velocity": 100,
      "chip": "ym2612"
    },
    {
      "channel": 1,
      "note": 75,
      "start": 47.1278,
      "duration": 0.0161,
      "velocity": 110,
      "chip": "ym2612"
    },
    {
      "channel": 0,
      "note": 43,
      "start": 47.1381,
      "duration": 0.0161,
      "velocity": 115,
      "chip": "ym2612"
    },
    {
      "channel": 2,
      "note": 56,
      "start": 47.1428,
      "duration": 0.0162,
      "velocity": 100,
      "chip": "ym2612"
    },
    {
      "channel": 0,
      "note": 44,
      "start": 47.1542,
      "duration": 0.0161,
      "velocity": 115,
      "chip": "ym2612"
    },
    {
      "channel": 2,
      "note": 56,
      "start": 47.159,
      "duration": 0.0161,
      "velocity": 100,
      "chip": "ym2612"
    },
    {
      "channel": 0,
      "note": 44,
      "start": 47.1703,
      "duration": 0.0182,
      "velocity": 115,
      "chip": "ym2612"
    },
    {
      "channel": 2,
      "note": 56,
      "start": 47.1751,
      "duration": 0.0189,
      "velocity": 100,
      "chip": "ym2612"
    },
    {
      "channel": 0,
      "note": 36,
      "start": 47.1886,
      "duration": 0.0145,
      "velocity": 115,
      "chip": "ym2612"
    },
    {
      "channel": 3,
      "note": 71,
      "start": 47.1925,
      "duration": 0.0143,
      "velocity": 110,
      "chip": "ym2612"
    },
    {
      "channel": 2,
      "note": 56,
      "start": 47.194,
      "duration": 0.0139,
      "velocity": 100,
      "chip": "ym2612"
    },
    {
      "channel": 1,
      "note": 75,
      "start": 47.1955,
      "duration": 0.0137,
      "velocity": 110,
      "chip": "ym2612"
    },
    {
      "channel": 0,
      "note": 36,
      "start": 47.2031,
      "duration": 0.0161,
      "velocity": 115,
      "chip": "ym2612"
    },
    {
      "channel": 3,
      "note": 71,
      "start": 47.2067,
      "duration": 0.016,
      "velocity": 110,
      "chip": "ym2612"
    },
    {
      "channel": 2,
      "note": 56,
      "start": 47.2079,
      "duration": 0.016,
      "velocity": 100,
      "chip": "ym2612"
    },
    {
      "channel": 1,
      "note": 75,
      "start": 47.2092,
      "duration": 0.0159,
      "velocity": 110,
      "chip": "ym2612"
    },
    {
      "channel": 0,
      "note": 37,
      "start": 47.2192,
      "duration": 0.016,
      "velocity": 115,
      "chip": "ym2612"
    },
    {
      "channel": 3,
      "note": 71,
      "start": 47.2228,
      "duration": 0.0161,
      "velocity": 110,
      "chip": "ym2612"
    },
    {
      "channel": 2,
      "note": 56,
      "start": 47.2239,
      "duration": 0.0161,
      "velocity": 100,
      "chip": "ym2612"
    },
    {
      "channel": 1,
      "note": 75,
      "start": 47.2251,
      "duration": 0.0161,
      "velocity": 110,
      "chip": "ym2612"
    },
    {
      "channel": 0,
      "note": 37,
      "start": 47.2352,
      "duration": 0.0158,
      "velocity": 115,
      "chip": "ym2612"
    },
    {
      "channel": 3,
      "note": 71,
      "start": 47.2388,
      "duration": 0.0161,
      "velocity": 110,
      "chip": "ym2612"
    },
    {
      "channel": 2,
      "note": 56,
      "start": 47.24,
      "duration": 0.0161,
      "velocity": 100,
      "chip": "ym2612"
    },
    {
      "channel": 1,
      "note": 75,
      "start": 47.2411,
      "duration": 0.0161,
      "velocity": 110,
      "chip": "ym2612"
    },
    {
      "channel": 0,
      "note": 38,
      "start": 47.251,
      "duration": 0.0159,
      "velocity": 115,
      "chip": "ym2612"
    },
    {
      "channel": 2,
      "note": 56,
      "start": 47.2561,
      "duration": 0.0161,
      "velocity": 100,
      "chip": "ym2612"
    },
    {
      "channel": 0,
      "note": 38,
      "start": 47.2668,
      "duration": 0.0161,
      "velocity": 115,
      "chip": "ym2612"
    },
    {
      "channel": 2,
      "note": 56,
      "start": 47.2722,
      "duration": 0.0161,
      "velocity": 100,
      "chip": "ym2612"
    },
    {
      "channel": 0,
      "note": 39,
      "start": 47.283,
      "duration": 0.0181,
      "velocity": 124,
      "chip": "ym2612"
    },
    {
      "channel": 2,
      "note": 56,
      "start": 47.2883,
      "duration": 0.0184,
      "velocity": 100,
      "chip": "ym2612"
    },
    {
      "channel": 0,
      "note": 84,
      "start": 47.3011,
      "duration": 0.0141,
      "velocity": 124,
      "chip": "ym2612"
    },
    {
      "channel": 3,
      "note": 75,
      "start": 47.3054,
      "duration": 0.0141,
      "velocity": 110,
      "chip": "ym2612"
    },
    {
      "channel": 2,
      "note": 56,
      "start": 47.3067,
      "duration": 0.014,
      "velocity": 100,
      "chip": "ym2612"
    },
    {
      "channel": 1,
      "note": 71,
      "start": 47.3081,
      "duration": 0.0138,
      "velocity": 110,
      "chip": "ym2612"
    },
    {
      "channel": 0,
      "note": 82,
      "start": 47.3153,
      "duration": 0.016,
      "velocity": 124,
      "chip": "ym2612"
    },
    {
      "channel": 3,
      "note": 75,
      "start": 47.3195,
      "duration": 0.0159,
      "velocity": 110,
      "chip": "ym2612"
    },
    {
      "channel": 2,
      "note": 56,
      "start": 47.3207,
      "duration": 0.016,
      "velocity": 100,
      "chip": "ym2612"
    },
    {
      "channel": 1,
      "note": 71,
      "start": 47.3219,
      "duration": 0.0159,
      "velocity": 110,
      "chip": "ym2612"
    },
    {
      "channel": 0,
      "note": 80,
      "start": 47.3313,
      "duration": 0.0161,
      "velocity": 124,
      "chip": "ym2612"
    },
    {
      "channel": 3,
      "note": 75,
      "start": 47.3354,
      "duration": 0.0161,
      "velocity": 110,
      "chip": "ym2612"
    },
    {
      "channel": 2,
      "note": 56,
      "start": 47.3366,
      "duration": 0.0161,
      "velocity": 100,
      "chip": "ym2612"
    },
    {
      "channel": 1,
      "note": 71,
      "start": 47.3378,
      "duration": 0.016,
      "velocity": 110,
      "chip": "ym2612"
    },
    {
      "channel": 0,
      "note": 77,
      "start": 47.3474,
      "duration": 0.0161,
      "velocity": 124,
      "chip": "ym2612"
    },
    {
      "channel": 2,
      "note": 56,
      "start": 47.3527,
      "duration": 0.016,
      "velocity": 100,
      "chip": "ym2612"
    },
    {
      "channel": 0,
      "note": 75,
      "start": 47.3635,
      "duration": 0.0161,
      "velocity": 124,
      "chip": "ym2612"
    },
    {
      "channel": 2,
      "note": 56,
      "start": 47.3688,
      "duration": 0.0161,
      "velocity": 100,
      "chip": "ym2612"
    },
    {
      "channel": 0,
      "note": 72,
      "start": 47.3796,
      "duration": 0.0161,
      "velocity": 124,
      "chip": "ym2612"
    },
    {
      "channel": 2,
      "note": 56,
      "start": 47.3849,
      "duration": 0.0163,
      "velocity": 100,
      "chip": "ym2612"
    },
    {
      "channel": 0,
      "note": 70,
      "start": 47.3957,
      "duration": 0.0161,
      "velocity": 124,
      "chip": "ym2612"
    },
    {
      "channel": 3,
      "note": 75,
      "start": 47.3995,
      "duration": 0.0158,
      "velocity": 110,
      "chip": "ym2612"
    },
    {
      "channel": 2,
      "note": 56,
      "start": 47.4011,
      "duration": 0.0155,
      "velocity": 100,
      "chip": "ym2612"
    },
    {
      "channel": 1,
      "note": 71,
      "start": 47.403,
      "duration": 0.0155,
      "velocity": 110,
      "chip": "ym2612"
    },
    {
      "channel": 0,
      "note": 68,
      "start": 47.4117,
      "duration": 0.0162,
      "velocity": 124,
      "chip": "ym2612"
    },
    {
      "channel": 3,
      "note": 75,
      "start": 47.4154,
      "duration": 0.016,
      "velocity": 110,
      "chip": "ym2612"
    },
    {
      "channel": 2,
      "note": 56,
      "start": 47.4166,
      "duration": 0.016,
      "velocity": 100,
      "chip": "ym2612"
    },
    {
      "channel": 1,
      "note": 71,
      "start": 47.4184,
      "duration": 0.0154,
      "velocity": 110,
      "chip": "ym2612"
    },
    {
      "channel": 0,
      "note": 65,
      "start": 47.4279,
      "duration": 0.0161,
      "velocity": 124,
      "chip": "ym2612"
    },
    {
      "channel": 3,
      "note": 75,
      "start": 47.4314,
      "duration": 0.0162,
      "velocity": 110,
      "chip": "ym2612"
    },
    {
      "channel": 2,
      "note": 56,
      "start": 47.4327,
      "duration": 0.0162,
      "velocity": 100,
      "chip": "ym2612"
    },
    {
      "channel": 1,
      "note": 71,
      "start": 47.4338,
      "duration": 0.0161,
      "velocity": 110,
      "chip": "ym2612"
    },
    {
      "channel": 0,
      "note": 63,
      "start": 47.444,
      "duration": 0.0153,
      "velocity": 1,
      "chip": "ym2612"
    },
    {
      "channel": 3,
      "note": 75,
      "start": 47.4476,
      "duration": 0.0153,
      "velocity": 110,
      "chip": "ym2612"
    },
    {
      "channel": 2,
      "note": 56,
      "start": 47.4488,
      "duration": 0.0152,
      "velocity": 100,
      "chip": "ym2612"
    },
    {
      "channel": 1,
      "note": 71,
      "start": 47.45,
      "duration": 0.0153,
      "velocity": 110,
      "chip": "ym2612"
    },
    {
      "channel": 2,
      "note": 56,
      "start": 47.464,
      "duration": 0.0153,
      "velocity": 100,
      "chip": "ym2612"
    },
    {
      "channel": 2,
      "note": 56,
      "start": 47.4793,
      "duration": 0.0161,
      "velocity": 100,
      "chip": "ym2612"
    },
    {
      "channel": 2,
      "note": 56,
      "start": 47.4954,
      "duration": 0.0202,
      "velocity": 100,
      "chip": "ym2612"
    },
    {
      "channel": 0,
      "note": 36,
      "start": 47.5102,
      "duration": 0.0143,
      "velocity": 115,
      "chip": "ym2612"
    },
    {
      "channel": 3,
      "note": 71,
      "start": 47.5142,
      "duration": 0.014,
      "velocity": 110,
      "chip": "ym2612"
    },
    {
      "channel": 2,
      "note": 51,
      "start": 47.5156,
      "duration": 0.0137,
      "velocity": 100,
      "chip": "ym2612"
    },
    {
      "channel": 1,
      "note": 75,
      "start": 47.5172,
      "duration": 0.0135,
      "velocity": 110,
      "chip": "ym2612"
    },
    {
      "channel": 0,
      "note": 36,
      "start": 47.5245,
      "duration": 0.016,
      "velocity": 115,
      "chip": "ym2612"
    },
    {
      "channel": 3,
      "note": 71,
      "start": 47.5282,
      "duration": 0.016,
      "velocity": 110,
      "chip": "ym2612"
    },
    {
      "channel": 2,
      "note": 51,
      "start": 47.5294,
      "duration": 0.0159,
      "velocity": 100,
      "chip": "ym2612"
    },
    {
      "channel": 1,
      "note": 75,
      "start": 47.5307,
      "duration": 0.0158,
      "velocity": 110,
      "chip": "ym2612"
    },
    {
      "channel": 0,
      "note": 37,
      "start": 47.5406,
      "duration": 0.0161,
      "velocity": 115,
      "chip": "ym2612"
    },
    {
      "channel": 3,
      "note": 71,
      "start": 47.5441,
      "duration": 0.0161,
      "velocity": 110,
      "chip": "ym2612"
    },
    {
      "channel": 2,
      "note": 51,
      "start": 47.5453,
      "duration": 0.0161,
      "velocity": 100,
      "chip": "ym2612"
    },
    {
      "channel": 1,
      "note": 75,
      "start": 47.5465,
      "duration": 0.0161,
      "velocity": 110,
      "chip": "ym2612"
    },
    {
      "channel": 0,
      "note": 37,
      "start": 47.5567,
      "duration": 0.0161,
      "velocity": 115,
      "chip": "ym2612"
    },
    {
      "channel": 3,
      "note": 71,
      "start": 47.5602,
      "duration": 0.0162,
      "velocity": 110,
      "chip": "ym2612"
    },
    {
      "channel": 2,
      "note": 51,
      "start": 47.5614,
      "duration": 0.0162,
      "velocity": 100,
      "chip": "ym2612"
    },
    {
      "channel": 1,
      "note": 75,
      "start": 47.5626,
      "duration": 0.0161,
      "velocity": 110,
      "chip": "ym2612"
    },
    {
      "channel": 0,
      "note": 38,
      "start": 47.5728,
      "duration": 0.0161,
      "velocity": 115,
      "chip": "ym2612"
    },
    {
      "channel": 3,
      "note": 71,
      "start": 47.5764,
      "duration": 0.016,
      "velocity": 110,
      "chip": "ym2612"
    },
    {
      "channel": 2,
      "note": 51,
      "start": 47.5775,
      "duration": 0.016,
      "velocity": 100,
      "chip": "ym2612"
    },
    {
      "channel": 1,
      "note": 75,
      "start": 47.5787,
      "duration": 0.016,
      "velocity": 110,
      "chip": "ym2612"
    },
    {
      "channel": 0,
      "note": 38,
      "start": 47.5889,
      "duration": 0.0179,
      "velocity": 115,
      "chip": "ym2612"
    },
    {
      "channel": 3,
      "note": 71,
      "start": 47.5924,
      "duration": 0.018,
      "velocity": 110,
      "chip": "ym2612"
    },
    {
      "channel": 2,
      "note": 51,
      "start": 47.5936,
      "duration": 0.0183,
      "velocity": 100,
      "chip": "ym2612"
    },
    {
      "channel": 1,
      "note": 75,
      "start": 47.5948,
      "duration": 0.0183,
      "velocity": 110,
      "chip": "ym2612"
    },
    {
      "channel": 0,
      "note": 36,
      "start": 47.6068,
      "duration": 0.0143,
      "velocity": 115,
      "chip": "ym2612"
    },
    {
      "channel": 3,
      "note": 71,
      "start": 47.6104,
      "duration": 0.0143,
      "velocity": 110,
      "chip": "ym2612"
    },
    {
      "channel": 2,
      "note": 54,
      "start": 47.6118,
      "duration": 0.0141,
      "velocity": 100,
      "chip": "ym2612"
    },
    {
      "channel": 1,
      "note": 75,
      "start": 47.613,
      "duration": 0.0141,
      "velocity": 110,
      "chip": "ym2612"
    },
    {
      "channel": 0,
      "note": 36,
      "start": 47.6212,
      "duration": 0.0161,
      "velocity": 115,
      "chip": "ym2612"
    },
    {
      "channel": 2,
      "note": 54,
      "start": 47.6259,
      "duration": 0.016,
      "velocity": 100,
      "chip": "ym2612"
    },
    {
      "channel": 0,
      "note": 37,
      "start": 47.6373,
      "duration": 0.0163,
      "velocity": 115,
      "chip": "ym2612"
    },
    {
      "channel": 2,
      "note": 54,
      "start": 47.642,
      "duration": 0.0163,
      "velocity": 100,
      "chip": "ym2612"
    },
    {
      "channel": 0,
      "note": 37,
      "start": 47.6535,
      "duration": 0.0163,
      "velocity": 115,
      "chip": "ym2612"
    },
    {
      "channel": 2,
      "note": 54,
      "start": 47.6583,
      "duration": 0.0163,
      "velocity": 100,
      "chip": "ym2612"
    },
    {
      "channel": 0,
      "note": 38,
      "start": 47.6699,
      "duration": 0.0162,
      "velocity": 115,
      "chip": "ym2612"
    },
    {
      "channel": 2,
      "note": 54,
      "start": 47.6746,
      "duration": 0.0162,
      "velocity": 100,
      "chip": "ym2612"
    },
    {
      "channel": 0,
      "note": 38,
      "start": 47.6861,
      "duration": 0.016,
      "velocity": 115,
      "chip": "ym2612"
    },
    {
      "channel": 2,
      "note": 54,
      "start": 47.6908,
      "duration": 0.0161,
      "velocity": 100,
      "chip": "ym2612"
    },
    {
      "channel": 0,
      "note": 39,
      "start": 47.7022,
      "duration": 0.0179,
      "velocity": 115,
      "chip": "ym2612"
    },
    {
      "channel": 2,
      "note": 54,
      "start": 47.7069,
      "duration": 0.0185,
      "velocity": 100,
      "chip": "ym2612"
    },
    {
      "channel": 0,
      "note": 36,
      "start": 47.7202,
      "duration": 0.0137,
      "velocity": 115,
      "chip": "ym2612"
    },
    {
      "channel": 3,
      "note": 75,
      "start": 47.724,
      "duration": 0.0141,
      "velocity": 110,
      "chip": "ym2612"
    },
    {
      "channel": 2,
      "note": 56,
      "start": 47.7255,
      "duration": 0.0138,
      "velocity": 100,
      "chip": "ym2612"
    },
    {
      "channel": 1,
      "note": 71,
      "start": 47.727,
      "duration": 0.0135,
      "velocity": 110,
      "chip": "ym2612"
    },
    {
      "channel": 0,
      "note": 36,
      "start": 47.7338,
      "duration": 0.0161,
      "velocity": 115,
      "chip": "ym2612"
    },
    {
      "channel": 3,
      "note": 75,
      "start": 47.7381,
      "duration": 0.016,
      "velocity": 110,
      "chip": "ym2612"
    },
    {
      "channel": 2,
      "note": 56,
      "start": 47.7393,
      "duration": 0.0159,
      "velocity": 100,
      "chip": "ym2612"
    },
    {
      "channel": 1,
      "note": 71,
      "start": 47.7405,
      "duration": 0.0159,
      "velocity": 110,
      "chip": "ym2612"
    },
    {
      "channel": 0,
      "note": 37,
      "start": 47.7499,
      "duration": 0.0161,
      "velocity": 115,
      "chip": "ym2612"
    },
    {
      "channel": 3,
      "note": 75,
      "start": 47.7541,
      "duration": 0.0161,
      "velocity": 110,
      "chip": "ym2612"
    },
    {
      "channel": 2,
      "note": 56,
      "start": 47.7552,
      "duration": 0.0161,
      "velocity": 100,
      "chip": "ym2612"
    },
    {
      "channel": 1,
      "note": 71,
      "start": 47.7563,
      "duration": 0.0161,
      "velocity": 110,
      "chip": "ym2612"
    },
    {
      "channel": 0,
      "note": 37,
      "start": 47.766,
      "duration": 0.0161,
      "velocity": 115,
      "chip": "ym2612"
    },
    {
      "channel": 3,
      "note": 75,
      "start": 47.7702,
      "duration": 0.0161,
      "velocity": 110,
      "chip": "ym2612"
    },
    {
      "channel": 2,
      "note": 56,
      "start": 47.7713,
      "duration": 0.0161,
      "velocity": 100,
      "chip": "ym2612"
    },
    {
      "channel": 1,
      "note": 71,
      "start": 47.7725,
      "duration": 0.0161,
      "velocity": 110,
      "chip": "ym2612"
    },
    {
      "channel": 0,
      "note": 38,
      "start": 47.7821,
      "duration": 0.0161,
      "velocity": 115,
      "chip": "ym2612"
    },
    {
      "channel": 3,
      "note": 75,
      "start": 47.7862,
      "duration": 0.0161,
      "velocity": 110,
      "chip": "ym2612"
    },
    {
      "channel": 2,
      "note": 56,
      "start": 47.7874,
      "duration": 0.0161,
      "velocity": 100,
      "chip": "ym2612"
    },
    {
      "channel": 1,
      "note": 71,
      "start": 47.7886,
      "duration": 0.0161,
      "velocity": 110,
      "chip": "ym2612"
    },
    {
      "channel": 0,
      "note": 38,
      "start": 47.7982,
      "duration": 0.0179,
      "velocity": 127,
      "chip": "ym2612"
    },
    {
      "channel": 3,
      "note": 75,
      "start": 47.8023,
      "duration": 0.018,
      "velocity": 110,
      "chip": "ym2612"
    },
    {
      "channel": 2,
      "note": 56,
      "start": 47.8035,
      "duration": 0.0182,
      "velocity": 100,
      "chip": "ym2612"
    },
    {
      "channel": 1,
      "note": 71,
      "start": 47.8047,
      "duration": 0.0183,
      "velocity": 110,
      "chip": "ym2612"
    },
    {
      "channel": 0,
      "note": 88,
      "start": 47.8161,
      "duration": 0.0143,
      "velocity": 127,
      "chip": "ym2612"
    },
    {
      "channel": 3,
      "note": 75,
      "start": 47.8203,
      "duration": 0.0139,
      "velocity": 110,
      "chip": "ym2612"
    },
    {
      "channel": 2,
      "note": 68,
      "start": 47.8217,
      "duration": 0.0141,
      "velocity": 100,
      "chip": "ym2612"
    },
    {
      "channel": 1,
      "note": 71,
      "start": 47.8229,
      "duration": 0.0141,
      "velocity": 110,
      "chip": "ym2612"
    },
    {
      "channel": 0,
      "note": 86,
      "start": 47.8305,
      "duration": 0.016,
      "velocity": 127,
      "chip": "ym2612"
    },
    {
      "channel": 2,
      "note": 68,
      "start": 47.8359,
      "duration": 0.0159,
      "velocity": 100,
      "chip": "ym2612"
    },
    {
      "channel": 0,
      "note": 85,
      "start": 47.8465,
      "duration": 0.0161,
      "velocity": 127,
      "chip": "ym2612"
    },
    {
      "channel": 2,
      "note": 68,
      "start": 47.8518,
      "duration": 0.0158,
      "velocity": 100,
      "chip": "ym2612"
    },
    {
      "channel": 0,
      "note": 83,
      "start": 47.8626,
      "duration": 0.0161,
      "velocity": 127,
      "chip": "ym2612"
    },
    {
      "channel": 2,
      "note": 68,
      "start": 47.8676,
      "duration": 0.0158,
      "velocity": 100,
      "chip": "ym2612"
    },
    {
      "channel": 0,
      "note": 81,
      "start": 47.8787,
      "duration": 0.0161,
      "velocity": 127,
      "chip": "ym2612"
    },
    {
      "channel": 2,
      "note": 68,
      "start": 47.8834,
      "duration": 0.0161,
      "velocity": 100,
      "chip": "ym2612"
    },
    {
      "channel": 0,
      "note": 80,
      "start": 47.8948,
      "duration": 0.0162,
      "velocity": 127,
      "chip": "ym2612"
    },
    {
      "channel": 2,
      "note": 68,
      "start": 47.8995,
      "duration": 0.0161,
      "velocity": 100,
      "chip": "ym2612"
    },
    {
      "channel": 0,
      "note": 78,
      "start": 47.9109,
      "duration": 0.0161,
      "velocity": 127,
      "chip": "ym2612"
    },
    {
      "channel": 2,
      "note": 68,
      "start": 47.9156,
      "duration": 0.0167,
      "velocity": 100,
      "chip": "ym2612"
    },
    {
      "channel": 0,
      "note": 76,
      "start": 47.927,
      "duration": 0.0161,
      "velocity": 127,
      "chip": "ym2612"
    },
    {
      "channel": 3,
      "note": 71,
      "start": 47.931,
      "duration": 0.0158,
      "velocity": 110,
      "chip": "ym2612"
    },
    {
      "channel": 2,
      "note": 56,
      "start": 47.9324,
      "duration": 0.0155,
      "velocity": 100,
      "chip": "ym2612"
    },
    {
      "channel": 1,
      "note": 75,
      "start": 47.9342,
      "duration": 0.0149,
      "velocity": 110,
      "chip": "ym2612"
    },
    {
      "channel": 0,
      "note": 75,
      "start": 47.9431,
      "duration": 0.0161,
      "velocity": 127,
      "chip": "ym2612"
    },
    {
      "channel": 3,
      "note": 71,
      "start": 47.9467,
      "duration": 0.0161,
      "velocity": 110,
      "chip": "ym2612"
    },
    {
      "channel": 2,
      "note": 56,
      "start": 47.948,
      "duration": 0.016,
      "velocity": 100,
      "chip": "ym2612"
    },
    {
      "channel": 1,
      "note": 75,
      "start": 47.9492,
      "duration": 0.016,
      "velocity": 110,
      "chip": "ym2612"
    },
    {
      "channel": 0,
      "note": 73,
      "start": 47.9592,
      "duration": 0.0161,
      "velocity": 127,
      "chip": "ym2612"
    },
    {
      "channel": 3,
      "note": 71,
      "start": 47.9628,
      "duration": 0.016,
      "velocity": 110,
      "chip": "ym2612"
    },
    {
      "channel": 2,
      "note": 56,
      "start": 47.964,
      "duration": 0.016,
      "velocity": 100,
      "chip": "ym2612"
    },
    {
      "channel": 1,
      "note": 75,
      "start": 47.9651,
      "duration": 0.0161,
      "velocity": 110,
      "chip": "ym2612"
    },
    {
      "channel": 0,
      "note": 71,
      "start": 47.9753,
      "duration": 0.0161,
      "velocity": 127,
      "chip": "ym2612"
    },
    {
      "channel": 3,
      "note": 71,
      "start": 47.9789,
      "duration": 0.0161,
      "velocity": 110,
      "chip": "ym2612"
    },
    {
      "channel": 2,
      "note": 56,
      "start": 47.98,
      "duration": 0.0161,
      "velocity": 100,
      "chip": "ym2612"
    },
    {
      "channel": 1,
      "note": 75,
      "start": 47.9812,
      "duration": 0.0161,
      "velocity": 110,
      "chip": "ym2612"
    },
    {
      "channel": 0,
      "note": 69,
      "start": 47.9914,
      "duration": 0.0161,
      "velocity": 127,
      "chip": "ym2612"
    },
    {
      "channel": 3,
      "note": 71,
      "start": 47.995,
      "duration": 0.0161,
      "velocity": 110,
      "chip": "ym2612"
    },
    {
      "channel": 2,
      "note": 56,
      "start": 47.9961,
      "duration": 0.0161,
      "velocity": 100,
      "chip": "ym2612"
    },
    {
      "channel": 1,
      "note": 75,
      "start": 47.9973,
      "duration": 0.0161,
      "velocity": 110,
      "chip": "ym2612"
    },
    {
      "channel": 0,
      "note": 68,
      "start": 48.0075,
      "duration": 0.018,
      "velocity": 127,
      "chip": "ym2612"
    },
    {
      "channel": 3,
      "note": 71,
      "start": 48.011,
      "duration": 0.018,
      "velocity": 110,
      "chip": "ym2612"
    },
    {
      "channel": 2,
      "note": 56,
      "start": 48.0122,
      "duration": 0.0183,
      "velocity": 100,
      "chip": "ym2612"
    },
    {
      "channel": 1,
      "note": 75,
      "start": 48.0134,
      "duration": 0.0183,
      "velocity": 110,
      "chip": "ym2612"
    },
    {
      "channel": 0,
      "note": 84,
      "start": 48.0255,
      "duration": 0.0143,
      "velocity": 127,
      "chip": "ym2612"
    },
    {
      "channel": 3,
      "note": 71,
      "start": 48.029,
      "duration": 0.0143,
      "velocity": 110,
      "chip": "ym2612"
    },
    {
      "channel": 2,
      "note": 68,
      "start": 48.0305,
      "duration": 0.0141,
      "velocity": 100,
      "chip": "ym2612"
    },
    {
      "channel": 1,
      "note": 75,
      "start": 48.0317,
      "duration": 0.0141,
      "velocity": 110,
      "chip": "ym2612"
    },
    {
      "channel": 0,
      "note": 82,
      "start": 48.0398,
      "duration": 0.016,
      "velocity": 127,
      "chip": "ym2612"
    },
    {
      "channel": 2,
      "note": 68,
      "start": 48.0446,
      "duration": 0.016,
      "velocity": 100,
      "chip": "ym2612"
    },
    {
      "channel": 0,
      "note": 81,
      "start": 48.0558,
      "duration": 0.0161,
      "velocity": 127,
      "chip": "ym2612"
    },
    {
      "channel": 2,
      "note": 68,
      "start": 48.0605,
      "duration": 0.0161,
      "velocity": 100,
      "chip": "ym2612"
    },
    {
      "channel": 0,
      "note": 79,
      "start": 48.0719,
      "duration": 0.0161,
      "velocity": 127,
      "chip": "ym2612"
    },
    {
      "channel": 2,
      "note": 68,
      "start": 48.0766,
      "duration": 0.0161,
      "velocity": 100,
      "chip": "ym2612"
    },
    {
      "channel": 0,
      "note": 77,
      "start": 48.088,
      "duration": 0.0161,
      "velocity": 127,
      "chip": "ym2612"
    },
    {
      "channel": 2,
      "note": 68,
      "start": 48.0927,
      "duration": 0.0161,
      "velocity": 100,
      "chip": "ym2612"
    },
    {
      "channel": 0,
      "note": 76,
      "start": 48.1041,
      "duration": 0.0161,
      "velocity": 127,
      "chip": "ym2612"
    },
    {
      "channel": 2,
      "note": 68,
      "start": 48.1088,
      "duration": 0.0162,
      "velocity": 100,
      "chip": "ym2612"
    },
    {
      "channel": 0,
      "note": 74,
      "start": 48.1203,
      "duration": 0.0183,
      "velocity": 127,
      "chip": "ym2612"
    },
    {
      "channel": 2,
      "note": 68,
      "start": 48.125,
      "duration": 0.019,
      "velocity": 100,
      "chip": "ym2612"
    },
    {
      "channel": 0,
      "note": 78,
      "start": 48.1386,
      "duration": 0.0145,
      "velocity": 127,
      "chip": "ym2612"
    },
    {
      "channel": 3,
      "note": 75,
      "start": 48.1425,
      "duration": 0.0142,
      "velocity": 110,
      "chip": "ym2612"
    },
    {
      "channel": 2,
      "note": 51,
      "start": 48.1439,
      "duration": 0.014,
      "velocity": 100,
      "chip": "ym2612"
    },
    {
      "channel": 1,
      "note": 71,
      "start": 48.1455,
      "duration": 0.0137,
      "velocity": 110,
      "chip": "ym2612"
    },
    {
      "channel": 0,
      "note": 76,
      "start": 48.1531,
      "duration": 0.016,
      "velocity": 127,
      "chip": "ym2612"
    },
    {
      "channel": 3,
      "note": 75,
      "start": 48.1567,
      "duration": 0.016,
      "velocity": 110,
      "chip": "ym2612"
    },
    {
      "channel": 2,
      "note": 51,
      "start": 48.1579,
      "duration": 0.0159,
      "velocity": 100,
      "chip": "ym2612"
    },
    {
      "channel": 1,
      "note": 71,
      "start": 48.1591,
      "duration": 0.0159,
      "velocity": 110,
      "chip": "ym2612"
    },
    {
      "channel": 0,
      "note": 75,
      "start": 48.1691,
      "duration": 0.016,
      "velocity": 127,
      "chip": "ym2612"
    },
    {
      "channel": 3,
      "note": 75,
      "start": 48.1727,
      "duration": 0.0161,
      "velocity": 110,
      "chip": "ym2612"
    },
    {
      "channel": 2,
      "note": 51,
      "start": 48.1738,
      "duration": 0.0161,
      "velocity": 100,
      "chip": "ym2612"
    },
    {
      "channel": 1,
      "note": 71,
      "start": 48.175,
      "duration": 0.0161,
      "velocity": 110,
      "chip": "ym2612"
    },
    {
      "channel": 0,
      "note": 73,
      "start": 48.1852,
      "duration": 0.0158,
      "velocity": 127,
      "chip": "ym2612"
    },
    {
      "channel": 3,
      "note": 75,
      "start": 48.1888,
      "duration": 0.0161,
      "velocity": 110,
      "chip": "ym2612"
    },
    {
      "channel": 2,
      "note": 51,
      "start": 48.1899,
      "duration": 0.0161,
      "velocity": 100,
      "chip": "ym2612"
    },
    {
      "channel": 1,
      "note": 71,
      "start": 48.1911,
      "duration": 0.0161,
      "velocity": 110,
      "chip": "ym2612"
    },
    {
      "channel": 0,
      "note": 71,
      "start": 48.2009,
      "duration": 0.0159,
      "velocity": 127,
      "chip": "ym2612"
    },
    {
      "channel": 3,
      "note": 75,
      "start": 48.2049,
      "duration": 0.0162,
      "velocity": 110,
      "chip": "ym2612"
    },
    {
      "channel": 2,
      "note": 51,
      "start": 48.206,
      "duration": 0.0161,
      "velocity": 100,
      "chip": "ym2612"
    },
    {
      "channel": 1,
      "note": 71,
      "start": 48.2072,
      "duration": 0.0161,
      "velocity": 110,
      "chip": "ym2612"
    },
    {
      "channel": 0,
      "note": 70,
      "start": 48.2168,
      "duration": 0.0184,
      "velocity": 115,
      "chip": "ym2612"
    },
    {
      "channel": 3,
      "note": 75,
      "start": 48.221,
      "duration": 0.0179,
      "velocity": 110,
      "chip": "ym2612"
    },
    {
      "channel": 2,
      "note": 51,
      "start": 48.2222,
      "duration": 0.0179,
      "velocity": 100,
      "chip": "ym2612"
    },
    {
      "channel": 1,
      "note": 71,
      "start": 48.2233,
      "duration": 0.0179,
      "velocity": 110,
      "chip": "ym2612"
    },
    {
      "channel": 0,
      "note": 36,
      "start": 48.2353,
      "duration": 0.0138,
      "velocity": 115,
      "chip": "ym2612"
    },
    {
      "channel": 3,
      "note": 75,
      "start": 48.2389,
      "duration": 0.0144,
      "velocity": 110,
      "chip": "ym2612"
    },
    {
      "channel": 2,
      "note": 51,
      "start": 48.2401,
      "duration": 0.0144,
      "velocity": 100,
      "chip": "ym2612"
    },
    {
      "channel": 1,
      "note": 71,
      "start": 48.2412,
      "duration": 0.0144,
      "velocity": 110,
      "chip": "ym2612"
    },
    {
      "channel": 0,
      "note": 36,
      "start": 48.2491,
      "duration": 0.016,
      "velocity": 115,
      "chip": "ym2612"
    },
    {
      "channel": 2,
      "note": 51,
      "start": 48.2544,
      "duration": 0.016,
      "velocity": 100,
      "chip": "ym2612"
    },
    {
      "channel": 0,
      "note": 37,
      "start": 48.2651,
      "duration": 0.0161,
      "velocity": 115,
      "chip": "ym2612"
    },
    {
      "channel": 2,
      "note": 51,
      "start": 48.2705,
      "duration": 0.0161,
      "velocity": 100,
      "chip": "ym2612"
    },
    {
      "channel": 0,
      "note": 37,
      "start": 48.2812,
      "duration": 0.0161,
      "velocity": 115,
      "chip": "ym2612"
    },
    {
      "channel": 2,
      "note": 51,
      "start": 48.2866,
      "duration": 0.0161,
      "velocity": 100,
      "chip": "ym2612"
    },
    {
      "channel": 0,
      "note": 38,
      "start": 48.2973,
      "duration": 0.0161,
      "velocity": 115,
      "chip": "ym2612"
    },
    {
      "channel": 2,
      "note": 51,
      "start": 48.3027,
      "duration": 0.0161,
      "velocity": 100,
      "chip": "ym2612"
    },
    {
      "channel": 0,
      "note": 38,
      "start": 48.3134,
      "duration": 0.0162,
      "velocity": 115,
      "chip": "ym2612"
    },
    {
      "channel": 2,
      "note": 51,
      "start": 48.3188,
      "duration": 0.016,
      "velocity": 100,
      "chip": "ym2612"
    },
    {
      "channel": 0,
      "note": 39,
      "start": 48.3296,
      "duration": 0.0179,
      "velocity": 124,
      "chip": "ym2612"
    },
    {
      "channel": 2,
      "note": 51,
      "start": 48.3348,
      "duration": 0.0187,
      "velocity": 100,
      "chip": "ym2612"
    },
    {
      "channel": 0,
      "note": 84,
      "start": 48.3475,
      "duration": 0.0143,
      "velocity": 124,
      "chip": "ym2612"
    },
    {
      "channel": 3,
      "note": 71,
      "start": 48.3521,
      "duration": 0.0134,
      "velocity": 110,
      "chip": "ym2612"
    },
    {
      "channel": 2,
      "note": 54,
      "start": 48.3535,
      "duration": 0.0131,
      "velocity": 100,
      "chip": "ym2612"
    },
    {
      "channel": 1,
      "note": 75,
      "start": 48.3551,
      "duration": 0.0134,
      "velocity": 110,
      "chip": "ym2612"
    },
    {
      "channel": 0,
      "note": 82,
      "start": 48.3618,
      "duration": 0.016,
      "velocity": 124,
      "chip": "ym2612"
    },
    {
      "channel": 3,
      "note": 71,
      "start": 48.3654,
      "duration": 0.016,
      "velocity": 110,
      "chip": "ym2612"
    },
    {
      "channel": 2,
      "note": 54,
      "start": 48.3666,
      "duration": 0.0159,
      "velocity": 100,
      "chip": "ym2612"
    },
    {
      "channel": 1,
      "note": 75,
      "start": 48.3684,
      "duration": 0.0153,
      "velocity": 110,
      "chip": "ym2612"
    },
    {
      "channel": 0,
      "note": 80,
      "start": 48.3778,
      "duration": 0.0161,
      "velocity": 124,
      "chip": "ym2612"
    },
    {
      "channel": 3,
      "note": 71,
      "start": 48.3814,
      "duration": 0.0161,
      "velocity": 110,
      "chip": "ym2612"
    },
    {
      "channel": 2,
      "note": 54,
      "start": 48.3826,
      "duration": 0.0161,
      "velocity": 100,
      "chip": "ym2612"
    },
    {
      "channel": 1,
      "note": 75,
      "start": 48.3837,
      "duration": 0.0161,
      "velocity": 110,
      "chip": "ym2612"
    },
    {
      "channel": 0,
      "note": 77,
      "start": 48.3939,
      "duration": 0.0161,
      "velocity": 124,
      "chip": "ym2612"
    },
    {
      "channel": 3,
      "note": 71,
      "start": 48.3975,
      "duration": 0.0161,
      "velocity": 110,
      "chip": "ym2612"
    },
    {
      "channel": 2,
      "note": 54,
      "start": 48.3986,
      "duration": 0.0161,
      "velocity": 100,
      "chip": "ym2612"
    },
    {
      "channel": 1,
      "note": 75,
      "start": 48.3998,
      "duration": 0.0161,
      "velocity": 110,
      "chip": "ym2612"
    },
    {
      "channel": 0,
      "note": 75,
      "start": 48.41,
      "duration": 0.0161,
      "velocity": 124,
      "chip": "ym2612"
    },
    {
      "channel": 3,
      "note": 71,
      "start": 48.4136,
      "duration": 0.0161,
      "velocity": 110,
      "chip": "ym2612"
    },
    {
      "channel": 2,
      "note": 54,
      "start": 48.4147,
      "duration": 0.0161,
      "velocity": 100,
      "chip": "ym2612"
    },
    {
      "channel": 1,
      "note": 75,
      "start": 48.4159,
      "duration": 0.0161,
      "velocity": 110,
      "chip": "ym2612"
    },
    {
      "channel": 0,
      "note": 72,
      "start": 48.4261,
      "duration": 0.0179,
      "velocity": 124,
      "chip": "ym2612"
    },
    {
      "channel": 3,
      "note": 71,
      "start": 48.4297,
      "duration": 0.018,
      "velocity": 110,
      "chip": "ym2612"
    },
    {
      "channel": 2,
      "note": 54,
      "start": 48.4308,
      "duration": 0.018,
      "velocity": 100,
      "chip": "ym2612"
    },
    {
      "channel": 1,
      "note": 75,
      "start": 48.432,
      "duration": 0.0179,
      "velocity": 110,
      "chip": "ym2612"
    },
    {
      "channel": 0,
      "note": 84,
      "start": 48.4441,
      "duration": 0.0143,
      "velocity": 124,
      "chip": "ym2612"
    },
    {
      "channel": 3,
      "note": 71,
      "start": 48.4477,
      "duration": 0.0143,
      "velocity": 110,
      "chip": "ym2612"
    },
    {
      "channel": 2,
      "note": 54,
      "start": 48.4488,
      "duration": 0.0143,
      "velocity": 100,
      "chip": "ym2612"
    },
    {
      "channel": 1,
      "note": 75,
      "start": 48.45,
      "duration": 0.0143,
      "velocity": 110,
      "chip": "ym2612"
    },
    {
      "channel": 0,
      "note": 82,
      "start": 48.4584,
      "duration": 0.0161,
      "velocity": 124,
      "chip": "ym2612"
    },
    {
      "channel": 2,
      "note": 54,
      "start": 48.4632,
      "duration": 0.016,
      "velocity": 100,
      "chip": "ym2612"
    },
    {
      "channel": 0,
      "note": 80,
      "start": 48.4745,
      "duration": 0.0161,
      "velocity": 124,
      "chip": "ym2612"
    },
    {
      "channel": 2,
      "note": 54,
      "start": 48.4792,
      "duration": 0.0161,
      "velocity": 100,
      "chip": "ym2612"
    },
    {
      "channel": 0,
      "note": 77,
      "start": 48.4906,
      "duration": 0.0161,
      "velocity": 124,
      "chip": "ym2612"
    },
    {
      "channel": 2,
      "note": 54,
      "start": 48.4953,
      "duration": 0.0161,
      "velocity": 100,
      "chip": "ym2612"
    },
    {
      "channel": 0,
      "note": 75,
      "start": 48.5067,
      "duration": 0.0161,
      "velocity": 124,
      "chip": "ym2612"
    },
    {
      "channel": 2,
      "note": 54,
      "start": 48.5114,
      "duration": 0.0161,
      "velocity": 100,
      "chip": "ym2612"
    },
    {
      "channel": 0,
      "note": 72,
      "start": 48.5228,
      "duration": 0.0161,
      "velocity": 124,
      "chip": "ym2612"
    },
    {
      "channel": 2,
      "note": 54,
      "start": 48.5275,
      "duration": 0.0161,
      "velocity": 100,
      "chip": "ym2612"
    },
    {
      "channel": 0,
      "note": 70,
      "start": 48.5388,
      "duration": 0.018,
      "velocity": 115,
      "chip": "ym2612"
    },
    {
      "channel": 2,
      "note": 54,
      "start": 48.5436,
      "duration": 0.019,
      "velocity": 100,
      "chip": "ym2612"
    },
    {
      "channel": 0,
      "note": 36,
      "start": 48.5568,
      "duration": 0.0143,
      "velocity": 115,
      "chip": "ym2612"
    },
    {
      "channel": 3,
      "note": 75,
      "start": 48.5611,
      "duration": 0.0137,
      "velocity": 110,
      "chip": "ym2612"
    },
    {
      "channel": 2,
      "note": 56,
      "start": 48.5626,
      "duration": 0.0135,
      "velocity": 100,
      "chip": "ym2612"
    },
    {
      "channel": 1,
      "note": 71,
      "start": 48.5641,
      "duration": 0.0132,
      "velocity": 110,
      "chip": "ym2612"
    },
    {
      "channel": 0,
      "note": 36,
      "start": 48.5711,
      "duration": 0.0161,
      "velocity": 115,
      "chip": "ym2612"
    },
    {
      "channel": 3,
      "note": 75,
      "start": 48.5749,
      "duration": 0.0159,
      "velocity": 110,
      "chip": "ym2612"
    },
    {
      "channel": 2,
      "note": 56,
      "start": 48.5761,
      "duration": 0.0158,
      "velocity": 100,
      "chip": "ym2612"
    },
    {
      "channel": 1,
      "note": 71,
      "start": 48.5773,
      "duration": 0.0158,
      "velocity": 110,
      "chip": "ym2612"
    },
    {
      "channel": 0,
      "note": 37,
      "start": 48.5872,
      "duration": 0.0162,
      "velocity": 115,
      "chip": "ym2612"
    },
    {
      "channel": 3,
      "note": 75,
      "start": 48.5908,
      "duration": 0.0162,
      "velocity": 110,
      "chip": "ym2612"
    },
    {
      "channel": 2,
      "note": 56,
      "start": 48.5919,
      "duration": 0.0162,
      "velocity": 100,
      "chip": "ym2612"
    },
    {
      "channel": 1,
      "note": 71,
      "start": 48.5931,
      "duration": 0.0162,
      "velocity": 110,
      "chip": "ym2612"
    },
    {
      "channel": 0,
      "note": 37,
      "start": 48.6034,
      "duration": 0.0163,
      "velocity": 115,
      "chip": "ym2612"
    },
    {
      "channel": 3,
      "note": 75,
      "start": 48.607,
      "duration": 0.0163,
      "velocity": 110,
      "chip": "ym2612"
    },
    {
      "channel": 2,
      "note": 56,
      "start": 48.6081,
      "duration": 0.0163,
      "velocity": 100,
      "chip": "ym2612"
    },
    {
      "channel": 1,
      "note": 71,
      "start": 48.6093,
      "duration": 0.0163,
      "velocity": 110,
      "chip": "ym2612"
    },
    {
      "channel": 0,
      "note": 38,
      "start": 48.6197,
      "duration": 0.0163,
      "velocity": 115,
      "chip": "ym2612"
    },
    {
      "channel": 3,
      "note": 75,
      "start": 48.6233,
      "duration": 0.0163,
      "velocity": 110,
      "chip": "ym2612"
    },
    {
      "channel": 2,
      "note": 56,
      "start": 48.6244,
      "duration": 0.0163,
      "velocity": 100,
      "chip": "ym2612"
    },
    {
      "channel": 1,
      "note": 71,
      "start": 48.6256,
      "duration": 0.0163,
      "velocity": 110,
      "chip": "ym2612"
    },
    {
      "channel": 0,
      "note": 38,
      "start": 48.6361,
      "duration": 0.0161,
      "velocity": 115,
      "chip": "ym2612"
    },
    {
      "channel": 3,
      "note": 75,
      "start": 48.6396,
      "duration": 0.0161,
      "velocity": 110,
      "chip": "ym2612"
    },
    {
      "channel": 2,
      "note": 56,
      "start": 48.6408,
      "duration": 0.0161,
      "velocity": 100,
      "chip": "ym2612"
    },
    {
      "channel": 1,
      "note": 71,
      "start": 48.6419,
      "duration": 0.0162,
      "velocity": 110,
      "chip": "ym2612"
    },
    {
      "channel": 0,
      "note": 39,
      "start": 48.6522,
      "duration": 0.016,
      "velocity": 115,
      "chip": "ym2612"
    },
    {
      "channel": 3,
      "note": 75,
      "start": 48.6557,
      "duration": 0.0161,
      "velocity": 110,
      "chip": "ym2612"
    },
    {
      "channel": 2,
      "note": 56,
      "start": 48.6568,
      "duration": 0.0162,
      "velocity": 100,
      "chip": "ym2612"
    },
    {
      "channel": 1,
      "note": 71,
      "start": 48.6581,
      "duration": 0.0161,
      "velocity": 110,
      "chip": "ym2612"
    },
    {
      "channel": 0,
      "note": 39,
      "start": 48.6682,
      "duration": 0.0156,
      "velocity": 115,
      "chip": "ym2612"
    },
    {
      "channel": 2,
      "note": 56,
      "start": 48.673,
      "duration": 0.016,
      "velocity": 100,
      "chip": "ym2612"
    },
    {
      "channel": 0,
      "note": 40,
      "start": 48.6838,
      "duration": 0.0161,
      "velocity": 115,
      "chip": "ym2612"
    },
    {
      "channel": 2,
      "note": 56,
      "start": 48.689,
      "duration": 0.0161,
      "velocity": 100,
      "chip": "ym2612"
    },
    {
      "channel": 0,
      "note": 40,
      "start": 48.6999,
      "duration": 0.0161,
      "velocity": 115,
      "chip": "ym2612"
    },
    {
      "channel": 2,
      "note": 56,
      "start": 48.7052,
      "duration": 0.0161,
      "velocity": 100,
      "chip": "ym2612"
    },
    {
      "channel": 0,
      "note": 40,
      "start": 48.7159,
      "duration": 0.0161,
      "velocity": 115,
      "chip": "ym2612"
    },
    {
      "channel": 2,
      "note": 56,
      "start": 48.7213,
      "duration": 0.0161,
      "velocity": 100,
      "chip": "ym2612"
    },
    {
      "channel": 0,
      "note": 41,
      "start": 48.732,
      "duration": 0.0161,
      "velocity": 115,
      "chip": "ym2612"
    },
    {
      "channel": 2,
      "note": 56,
      "start": 48.7374,
      "duration": 0.0161,
      "velocity": 100,
      "chip": "ym2612"
    },
    {
      "channel": 0,
      "note": 41,
      "start": 48.7481,
      "duration": 0.0161,
      "velocity": 115,
      "chip": "ym2612"
    },
    {
      "channel": 2,
      "note": 56,
      "start": 48.7535,
      "duration": 0.0166,
      "velocity": 100,
      "chip": "ym2612"
    },
    {
      "channel": 0,
      "note": 42,
      "start": 48.7642,
      "duration": 0.0161,
      "velocity": 115,
      "chip": "ym2612"
    },
    {
      "channel": 3,
      "note": 71,
      "start": 48.7689,
      "duration": 0.0153,
      "velocity": 110,
      "chip": "ym2612"
    },
    {
      "channel": 2,
      "note": 56,
      "start": 48.7701,
      "duration": 0.0156,
      "velocity": 100,
      "chip": "ym2612"
    },
    {
      "channel": 1,
      "note": 75,
      "start": 48.7717,
      "duration": 0.0152,
      "velocity": 110,
      "chip": "ym2612"
    },
    {
      "channel": 0,
      "note": 42,
      "start": 48.7804,
      "duration": 0.0161,
      "velocity": 115,
      "chip": "ym2612"
    },
    {
      "channel": 3,
      "note": 71,
      "start": 48.7841,
      "duration": 0.0159,
      "velocity": 110,
      "chip": "ym2612"
    },
    {
      "channel": 2,
      "note": 56,
      "start": 48.7857,
      "duration": 0.016,
      "velocity": 100,
      "chip": "ym2612"
    },
    {
      "channel": 1,
      "note": 75,
      "start": 48.7869,
      "duration": 0.016,
      "velocity": 110,
      "chip": "ym2612"
    },
    {
      "channel": 0,
      "note": 43,
      "start": 48.7965,
      "duration": 0.0161,
      "velocity": 115,
      "chip": "ym2612"
    },
    {
      "channel": 3,
      "note": 71,
      "start": 48.8,
      "duration": 0.0161,
      "velocity": 110,
      "chip": "ym2612"
    },
    {
      "channel": 2,
      "note": 56,
      "start": 48.8017,
      "duration": 0.0158,
      "velocity": 100,
      "chip": "ym2612"
    },
    {
      "channel": 1,
      "note": 75,
      "start": 48.8029,
      "duration": 0.0162,
      "velocity": 110,
      "chip": "ym2612"
    },
    {
      "channel": 0,
      "note": 43,
      "start": 48.8126,
      "duration": 0.0161,
      "velocity": 115,
      "chip": "ym2612"
    },
    {
      "channel": 2,
      "note": 56,
      "start": 48.8175,
      "duration": 0.0159,
      "velocity": 100,
      "chip": "ym2612"
    },
    {
      "channel": 0,
      "note": 44,
      "start": 48.8287,
      "duration": 0.0161,
      "velocity": 115,
      "chip": "ym2612"
    },
    {
      "channel": 2,
      "note": 56,
      "start": 48.8334,
      "duration": 0.0161,
      "velocity": 100,
      "chip": "ym2612"
    },
    {
      "channel": 0,
      "note": 44,
      "start": 48.8448,
      "duration": 0.0179,
      "velocity": 115,
      "chip": "ym2612"
    },
    {
      "channel": 2,
      "note": 56,
      "start": 48.8495,
      "duration": 0.0191,
      "velocity": 100,
      "chip": "ym2612"
    },
    {
      "channel": 0,
      "note": 36,
      "start": 48.8627,
      "duration": 0.0143,
      "velocity": 115,
      "chip": "ym2612"
    },
    {
      "channel": 3,
      "note": 71,
      "start": 48.8666,
      "duration": 0.0141,
      "velocity": 110,
      "chip": "ym2612"
    },
    {
      "channel": 2,
      "note": 56,
      "start": 48.8686,
      "duration": 0.0132,
      "velocity": 100,
      "chip": "ym2612"
    },
    {
      "channel": 1,
      "note": 75,
      "start": 48.8702,
      "duration": 0.013,
      "velocity": 110,
      "chip": "ym2612"
    },
    {
      "channel": 0,
      "note": 36,
      "start": 48.877,
      "duration": 0.016,
      "velocity": 115,
      "chip": "ym2612"
    },
    {
      "channel": 3,
      "note": 71,
      "start": 48.8807,
      "duration": 0.016,
      "velocity": 110,
      "chip": "ym2612"
    },
    {
      "channel": 2,
      "note": 56,
      "start": 48.8819,
      "duration": 0.0159,
      "velocity": 100,
      "chip": "ym2612"
    },
    {
      "channel": 1,
      "note": 75,
      "start": 48.8831,
      "duration": 0.0158,
      "velocity": 110,
      "chip": "ym2612"
    },
    {
      "channel": 0,
      "note": 37,
      "start": 48.8931,
      "duration": 0.0161,
      "velocity": 115,
      "chip": "ym2612"
    },
    {
      "channel": 3,
      "note": 71,
      "start": 48.8966,
      "duration": 0.0161,
      "velocity": 110,
      "chip": "ym2612"
    },
    {
      "channel": 2,
      "note": 56,
      "start": 48.8978,
      "duration": 0.0161,
      "velocity": 100,
      "chip": "ym2612"
    },
    {
      "channel": 1,
      "note": 75,
      "start": 48.899,
      "duration": 0.0161,
      "velocity": 110,
      "chip": "ym2612"
    },
    {
      "channel": 0,
      "note": 37,
      "start": 48.9092,
      "duration": 0.0161,
      "velocity": 115,
      "chip": "ym2612"
    },
    {
      "channel": 3,
      "note": 71,
      "start": 48.9127,
      "duration": 0.0161,
      "velocity": 110,
      "chip": "ym2612"
    },
    {
      "channel": 2,
      "note": 56,
      "start": 48.9139,
      "duration": 0.0161,
      "velocity": 100,
      "chip": "ym2612"
    },
    {
      "channel": 1,
      "note": 75,
      "start": 48.9151,
      "duration": 0.0161,
      "velocity": 110,
      "chip": "ym2612"
    },
    {
      "channel": 0,
      "note": 38,
      "start": 48.9253,
      "duration": 0.0161,
      "velocity": 115,
      "chip": "ym2612"
    },
    {
      "channel": 2,
      "note": 56,
      "start": 48.93,
      "duration": 0.0161,
      "velocity": 100,
      "chip": "ym2612"
    },
    {
      "channel": 0,
      "note": 38,
      "start": 48.9414,
      "duration": 0.0161,
      "velocity": 115,
      "chip": "ym2612"
    },
    {
      "channel": 2,
      "note": 56,
      "start": 48.9461,
      "duration": 0.0161,
      "velocity": 100,
      "chip": "ym2612"
    },
    {
      "channel": 0,
      "note": 39,
      "start": 48.9575,
      "duration": 0.0179,
      "velocity": 124,
      "chip": "ym2612"
    },
    {
      "channel": 2,
      "note": 56,
      "start": 48.9622,
      "duration": 0.0183,
      "velocity": 100,
      "chip": "ym2612"
    },
    {
      "channel": 0,
      "note": 84,
      "start": 48.9754,
      "duration": 0.0143,
      "velocity": 124,
      "chip": "ym2612"
    },
    {
      "channel": 3,
      "note": 75,
      "start": 48.9793,
      "duration": 0.0141,
      "velocity": 110,
      "chip": "ym2612"
    },
    {
      "channel": 2,
      "note": 56,
      "start": 48.9805,
      "duration": 0.0141,
      "velocity": 100,
      "chip": "ym2612"
    },
    {
      "channel": 1,
      "note": 71,
      "start": 48.982,
      "duration": 0.0138,
      "velocity": 110,
      "chip": "ym2612"
    },
    {
      "channel": 0,
      "note": 82,
      "start": 48.9898,
      "duration": 0.016,
      "velocity": 124,
      "chip": "ym2612"
    },
    {
      "channel": 3,
      "note": 75,
      "start": 48.9934,
      "duration": 0.0159,
      "velocity": 110,
      "chip": "ym2612"
    },
    {
      "channel": 2,
      "note": 56,
      "start": 48.9946,
      "duration": 0.0159,
      "velocity": 100,
      "chip": "ym2612"
    },
    {
      "channel": 1,
      "note": 71,
      "start": 48.9959,
      "duration": 0.0159,
      "velocity": 110,
      "chip": "ym2612"
    },
    {
      "channel": 0,
      "note": 80,
      "start": 49.0058,
      "duration": 0.0161,
      "velocity": 124,
      "chip": "ym2612"
    },
    {
      "channel": 3,
      "note": 75,
      "start": 49.0093,
      "duration": 0.0161,
      "velocity": 110,
      "chip": "ym2612"
    },
    {
      "channel": 2,
      "note": 56,
      "start": 49.0105,
      "duration": 0.0161,
      "velocity": 100,
      "chip": "ym2612"
    },
    {
      "channel": 1,
      "note": 71,
      "start": 49.0117,
      "duration": 0.016,
      "velocity": 110,
      "chip": "ym2612"
    },
    {
      "channel": 0,
      "note": 77,
      "start": 49.0219,
      "duration": 0.0162,
      "velocity": 124,
      "chip": "ym2612"
    },
    {
      "channel": 2,
      "note": 56,
      "start": 49.0266,
      "duration": 0.016,
      "velocity": 100,
      "chip": "ym2612"
    },
    {
      "channel": 0,
      "note": 75,
      "start": 49.038,
      "duration": 0.0161,
      "velocity": 124,
      "chip": "ym2612"
    },
    {
      "channel": 2,
      "note": 56,
      "start": 49.0427,
      "duration": 0.0162,
      "velocity": 100,
      "chip": "ym2612"
    },
    {
      "channel": 0,
      "note": 72,
      "start": 49.0542,
      "duration": 0.0161,
      "velocity": 124,
      "chip": "ym2612"
    },
    {
      "channel": 2,
      "note": 56,
      "start": 49.0589,
      "duration": 0.0165,
      "velocity": 100,
      "chip": "ym2612"
    },
    {
      "channel": 0,
      "note": 70,
      "start": 49.0703,
      "duration": 0.0164,
      "velocity": 124,
      "chip": "ym2612"
    },
    {
      "channel": 3,
      "note": 75,
      "start": 49.0741,
      "duration": 0.0162,
      "velocity": 110,
      "chip": "ym2612"
    },
    {
      "channel": 2,
      "note": 56,
      "start": 49.0754,
      "duration": 0.0161,
      "velocity": 100,
      "chip": "ym2612"
    },
    {
      "channel": 1,
      "note": 71,
      "start": 49.0769,
      "duration": 0.0159,
      "velocity": 110,
      "chip": "ym2612"
    },
    {
      "channel": 0,
      "note": 68,
      "start": 49.0867,
      "duration": 0.0163,
      "velocity": 124,
      "chip": "ym2612"
    },
    {
      "channel": 3,
      "note": 75,
      "start": 49.0903,
      "duration": 0.0162,
      "velocity": 110,
      "chip": "ym2612"
    },
    {
      "channel": 2,
      "note": 56,
      "start": 49.0915,
      "duration": 0.0163,
      "velocity": 100,
      "chip": "ym2612"
    },
    {
      "channel": 1,
      "note": 71,
      "start": 49.0928,
      "duration": 0.0162,
      "velocity": 110,
      "chip": "ym2612"
    },
    {
      "channel": 0,
      "note": 65,
      "start": 49.103,
      "duration": 0.0161,
      "velocity": 124,
      "chip": "ym2612"
    },
    {
      "channel": 3,
      "note": 75,
      "start": 49.1065,
      "duration": 0.0162,
      "velocity": 110,
      "chip": "ym2612"
    },
    {
      "channel": 2,
      "note": 56,
      "start": 49.1078,
      "duration": 0.0161,
      "velocity": 100,
      "chip": "ym2612"
    },
    {
      "channel": 1,
      "note": 71,
      "start": 49.109,
      "duration": 0.0161,
      "velocity": 110,
      "chip": "ym2612"
    },
    {
      "channel": 0,
      "note": 63,
      "start": 49.1191,
      "duration": 0.0147,
      "velocity": 1,
      "chip": "ym2612"
    },
    {
      "channel": 3,
      "note": 75,
      "start": 49.1227,
      "duration": 0.0152,
      "velocity": 110,
      "chip": "ym2612"
    },
    {
      "channel": 2,
      "note": 56,
      "start": 49.1239,
      "duration": 0.0153,
      "velocity": 100,
      "chip": "ym2612"
    },
    {
      "channel": 1,
      "note": 71,
      "start": 49.1251,
      "duration": 0.0153,
      "velocity": 110,
      "chip": "ym2612"
    },
    {
      "channel": 2,
      "note": 56,
      "start": 49.1392,
      "duration": 0.0152,
      "velocity": 100,
      "chip": "ym2612"
    },
    {
      "channel": 2,
      "note": 56,
      "start": 49.1544,
      "duration": 0.0161,
      "velocity": 100,
      "chip": "ym2612"
    },
    {
      "channel": 2,
      "note": 56,
      "start": 49.1705,
      "duration": 0.0202,
      "velocity": 100,
      "chip": "ym2612"
    },
    {
      "channel": 0,
      "note": 36,
      "start": 49.1853,
      "duration": 0.0137,
      "velocity": 115,
      "chip": "ym2612"
    },
    {
      "channel": 3,
      "note": 71,
      "start": 49.1893,
      "duration": 0.014,
      "velocity": 110,
      "chip": "ym2612"
    },
    {
      "channel": 2,
      "note": 51,
      "start": 49.1908,
      "duration": 0.0137,
      "velocity": 100,
      "chip": "ym2612"
    },
    {
      "channel": 1,
      "note": 75,
      "start": 49.1923,
      "duration": 0.0134,
      "velocity": 110,
      "chip": "ym2612"
    },
    {
      "channel": 0,
      "note": 36,
      "start": 49.199,
      "duration": 0.0161,
      "velocity": 115,
      "chip": "ym2612"
    },
    {
      "channel": 3,
      "note": 71,
      "start": 49.2033,
      "duration": 0.016,
      "velocity": 110,
      "chip": "ym2612"
    },
    {
      "channel": 2,
      "note": 51,
      "start": 49.2045,
      "duration": 0.0159,
      "velocity": 100,
      "chip": "ym2612"
    },
    {
      "channel": 1,
      "note": 75,
      "start": 49.2057,
      "duration": 0.0158,
      "velocity": 110,
      "chip": "ym2612"
    },
    {
      "channel": 0,
      "note": 37,
      "start": 49.2151,
      "duration": 0.0161,
      "velocity": 115,
      "chip": "ym2612"
    },
    {
      "channel": 3,
      "note": 71,
      "start": 49.2193,
      "duration": 0.016,
      "velocity": 110,
      "chip": "ym2612"
    },
    {
      "channel": 2,
      "note": 51,
      "start": 49.2204,
      "duration": 0.0161,
      "velocity": 100,
      "chip": "ym2612"
    },
    {
      "channel": 1,
      "note": 75,
      "start": 49.2215,
      "duration": 0.0161,
      "velocity": 110,
      "chip": "ym2612"
    },
    {
      "channel": 0,
      "note": 37,
      "start": 49.2312,
      "duration": 0.0161,
      "velocity": 115,
      "chip": "ym2612"
    },
    {
      "channel": 3,
      "note": 71,
      "start": 49.2353,
      "duration": 0.0158,
      "velocity": 110,
      "chip": "ym2612"
    },
    {
      "channel": 2,
      "note": 51,
      "start": 49.2365,
      "duration": 0.0161,
      "velocity": 100,
      "chip": "ym2612"
    },
    {
      "channel": 1,
      "note": 75,
      "start": 49.2376,
      "duration": 0.0162,
      "velocity": 110,
      "chip": "ym2612"
    },
    {
      "channel": 0,
      "note": 38,
      "start": 49.2473,
      "duration": 0.0161,
      "velocity": 115,
      "chip": "ym2612"
    },
    {
      "channel": 3,
      "note": 71,
      "start": 49.2511,
      "duration": 0.0159,
      "velocity": 110,
      "chip": "ym2612"
    },
    {
      "channel": 2,
      "note": 51,
      "start": 49.2527,
      "duration": 0.016,
      "velocity": 100,
      "chip": "ym2612"
    },
    {
      "channel": 1,
      "note": 75,
      "start": 49.2538,
      "duration": 0.0161,
      "velocity": 110,
      "chip": "ym2612"
    },
    {
      "channel": 0,
      "note": 38,
      "start": 49.2634,
      "duration": 0.0179,
      "velocity": 115,
      "chip": "ym2612"
    },
    {
      "channel": 3,
      "note": 71,
      "start": 49.267,
      "duration": 0.0185,
      "velocity": 110,
      "chip": "ym2612"
    },
    {
      "channel": 2,
      "note": 51,
      "start": 49.2686,
      "duration": 0.0183,
      "velocity": 100,
      "chip": "ym2612"
    },
    {
      "channel": 1,
      "note": 75,
      "start": 49.2699,
      "duration": 0.0183,
      "velocity": 110,
      "chip": "ym2612"
    },
    {
      "channel": 0,
      "note": 36,
      "start": 49.2813,
      "duration": 0.0143,
      "velocity": 115,
      "chip": "ym2612"
    },
    {
      "channel": 3,
      "note": 71,
      "start": 49.2854,
      "duration": 0.0138,
      "velocity": 110,
      "chip": "ym2612"
    },
    {
      "channel": 2,
      "note": 54,
      "start": 49.2869,
      "duration": 0.0136,
      "velocity": 100,
      "chip": "ym2612"
    },
    {
      "channel": 1,
      "note": 75,
      "start": 49.2882,
      "duration": 0.0141,
      "velocity": 110,
      "chip": "ym2612"
    },
    {
      "channel": 0,
      "note": 36,
      "start": 49.2957,
      "duration": 0.016,
      "velocity": 115,
      "chip": "ym2612"
    },
    {
      "channel": 2,
      "note": 54,
      "start": 49.3005,
      "duration": 0.0159,
      "velocity": 100,
      "chip": "ym2612"
    },
    {
      "channel": 0,
      "note": 37,
      "start": 49.3117,
      "duration": 0.0161,
      "velocity": 115,
      "chip": "ym2612"
    },
    {
      "channel": 2,
      "note": 54,
      "start": 49.3164,
      "duration": 0.0161,
      "velocity": 100,
      "chip": "ym2612"
    },
    {
      "channel": 0,
      "note": 37,
      "start": 49.3278,
      "duration": 0.0161,
      "velocity": 115,
      "chip": "ym2612"
    },
    {
      "channel": 2,
      "note": 54,
      "start": 49.3325,
      "duration": 0.0161,
      "velocity": 100,
      "chip": "ym2612"
    },
    {
      "channel": 0,
      "note": 38,
      "start": 49.3439,
      "duration": 0.0162,
      "velocity": 115,
      "chip": "ym2612"
    },
    {
      "channel": 2,
      "note": 54,
      "start": 49.3486,
      "duration": 0.0161,
      "velocity": 100,
      "chip": "ym2612"
    },
    {
      "channel": 0,
      "note": 38,
      "start": 49.36,
      "duration": 0.0161,
      "velocity": 115,
      "chip": "ym2612"
    },
    {
      "channel": 2,
      "note": 54,
      "start": 49.3647,
      "duration": 0.0162,
      "velocity": 100,
      "chip": "ym2612"
    },
    {
      "channel": 0,
      "note": 39,
      "start": 49.3761,
      "duration": 0.0179,
      "velocity": 127,
      "chip": "ym2612"
    },
    {
      "channel": 2,
      "note": 54,
      "start": 49.3808,
      "duration": 0.0185,
      "velocity": 100,
      "chip": "ym2612"
    },
    {
      "channel": 0,
      "note": 88,
      "start": 49.3941,
      "duration": 0.0143,
      "velocity": 127,
      "chip": "ym2612"
    },
    {
      "channel": 3,
      "note": 75,
      "start": 49.398,
      "duration": 0.0141,
      "velocity": 110,
      "chip": "ym2612"
    },
    {
      "channel": 2,
      "note": 56,
      "start": 49.3994,
      "duration": 0.0138,
      "velocity": 100,
      "chip": "ym2612"
    },
    {
      "channel": 1,
      "note": 71,
      "start": 49.4011,
      "duration": 0.0133,
      "velocity": 110,
      "chip": "ym2612"
    },
    {
      "channel": 0,
      "note": 86,
      "start": 49.4084,
      "duration": 0.016,
      "velocity": 127,
      "chip": "ym2612"
    },
    {
      "channel": 3,
      "note": 75,
      "start": 49.412,
      "duration": 0.016,
      "velocity": 110,
      "chip": "ym2612"
    },
    {
      "channel": 2,
      "note": 56,
      "start": 49.4132,
      "duration": 0.0159,
      "velocity": 100,
      "chip": "ym2612"
    },
    {
      "channel": 1,
      "note": 71,
      "start": 49.4144,
      "duration": 0.0159,
      "velocity": 110,
      "chip": "ym2612"
    },
    {
      "channel": 0,
      "note": 85,
      "start": 49.4244,
      "duration": 0.0161,
      "velocity": 127,
      "chip": "ym2612"
    },
    {
      "channel": 3,
      "note": 75,
      "start": 49.428,
      "duration": 0.0161,
      "velocity": 110,
      "chip": "ym2612"
    },
    {
      "channel": 2,
      "note": 56,
      "start": 49.4291,
      "duration": 0.0161,
      "velocity": 100,
      "chip": "ym2612"
    },
    {
      "channel": 1,
      "note": 71,
      "start": 49.4303,
      "duration": 0.0161,
      "velocity": 110,
      "chip": "ym2612"
    },
    {
      "channel": 0,
      "note": 83,
      "start": 49.4405,
      "duration": 0.0161,
      "velocity": 127,
      "chip": "ym2612"
    },
    {
      "channel": 3,
      "note": 75,
      "start": 49.4441,
      "duration": 0.0161,
      "velocity": 110,
      "chip": "ym2612"
    },
    {
      "channel": 2,
      "note": 56,
      "start": 49.4452,
      "duration": 0.0161,
      "velocity": 100,
      "chip": "ym2612"
    },
    {
      "channel": 1,
      "note": 71,
      "start": 49.4463,
      "duration": 0.0162,
      "velocity": 110,
      "chip": "ym2612"
    },
    {
      "channel": 0,
      "note": 81,
      "start": 49.4566,
      "duration": 0.0161,
      "velocity": 127,
      "chip": "ym2612"
    },
    {
      "channel": 3,
      "note": 75,
      "start": 49.4602,
      "duration": 0.0161,
      "velocity": 110,
      "chip": "ym2612"
    },
    {
      "channel": 2,
      "note": 56,
      "start": 49.4613,
      "duration": 0.0161,
      "velocity": 100,
      "chip": "ym2612"
    },
    {
      "channel": 1,
      "note": 71,
      "start": 49.4625,
      "duration": 0.0161,
      "velocity": 110,
      "chip": "ym2612"
    },
    {
      "channel": 0,
      "note": 80,
      "start": 49.4727,
      "duration": 0.0179,
      "velocity": 127,
      "chip": "ym2612"
    },
    {
      "channel": 3,
      "note": 75,
      "start": 49.4763,
      "duration": 0.018,
      "velocity": 110,
      "chip": "ym2612"
    },
    {
      "channel": 2,
      "note": 56,
      "start": 49.4774,
      "duration": 0.0183,
      "velocity": 100,
      "chip": "ym2612"
    },
    {
      "channel": 1,
      "note": 71,
      "start": 49.4786,
      "duration": 0.0183,
      "velocity": 110,
      "chip": "ym2612"
    },
    {
      "channel": 0,
      "note": 88,
      "start": 49.4907,
      "duration": 0.0142,
      "velocity": 127,
      "chip": "ym2612"
    },
    {
      "channel": 3,
      "note": 75,
      "start": 49.4943,
      "duration": 0.0143,
      "velocity": 110,
      "chip": "ym2612"
    },
    {
      "channel": 2,
      "note": 68,
      "start": 49.4957,
      "duration": 0.0141,
      "velocity": 100,
      "chip": "ym2612"
    },
    {
      "channel": 1,
      "note": 71,
      "start": 49.4969,
      "duration": 0.0141,
      "velocity": 110,
      "chip": "ym2612"
    },
    {
      "channel": 0,
      "note": 86,
      "start": 49.5049,
      "duration": 0.0161,
      "velocity": 127,
      "chip": "ym2612"
    },
    {
      "channel": 2,
      "note": 68,
      "start": 49.5098,
      "duration": 0.016,
      "velocity": 100,
      "chip": "ym2612"
    },
    {
      "channel": 0,
      "note": 85,
      "start": 49.521,
      "duration": 0.0161,
      "velocity": 127,
      "chip": "ym2612"
    },
    {
      "channel": 2,
      "note": 68,
      "start": 49.5257,
      "duration": 0.0162,
      "velocity": 100,
      "chip": "ym2612"
    },
    {
      "channel": 0,
      "note": 83,
      "start": 49.5372,
      "duration": 0.0163,
      "velocity": 127,
      "chip": "ym2612"
    },
    {
      "channel": 2,
      "note": 68,
      "start": 49.5419,
      "duration": 0.0163,
      "velocity": 100,
      "chip": "ym2612"
    },
    {
      "channel": 0,
      "note": 81,
      "start": 49.5535,
      "duration": 0.0163,
      "velocity": 127,
      "chip": "ym2612"
    },
    {
      "channel": 2,
      "note": 68,
      "start": 49.5583,
      "duration": 0.0163,
      "velocity": 100,
      "chip": "ym2612"
    },
    {
      "channel": 0,
      "note": 80,
      "start": 49.5698,
      "duration": 0.0161,
      "velocity": 127,
      "chip": "ym2612"
    },
    {
      "channel": 2,
      "note": 68,
      "start": 49.5745,
      "duration": 0.0162,
      "velocity": 100,
      "chip": "ym2612"
    },
    {
      "channel": 0,
      "note": 78,
      "start": 49.586,
      "duration": 0.0161,
      "velocity": 127,
      "chip": "ym2612"
    },
    {
      "channel": 2,
      "note": 68,
      "start": 49.5907,
      "duration": 0.0168,
      "velocity": 100,
      "chip": "ym2612"
    },
    {
      "channel": 0,
      "note": 76,
      "start": 49.6021,
      "duration": 0.0161,
      "velocity": 127,
      "chip": "ym2612"
    },
    {
      "channel": 3,
      "note": 71,
      "start": 49.6061,
      "duration": 0.0158,
      "velocity": 110,
      "chip": "ym2612"
    },
    {
      "channel": 2,
      "note": 56,
      "start": 49.6076,
      "duration": 0.0155,
      "velocity": 100,
      "chip": "ym2612"
    },
    {
      "channel": 1,
      "note": 75,
      "start": 49.6091,
      "duration": 0.0152,
      "velocity": 110,
      "chip": "ym2612"
    },
    {
      "channel": 0,
      "note": 75,
      "start": 49.6182,
      "duration": 0.0155,
      "velocity": 127,
      "chip": "ym2612"
    },
    {
      "channel": 3,
      "note": 71,
      "start": 49.6219,
      "duration": 0.016,
      "velocity": 110,
      "chip": "ym2612"
    },
    {
      "channel": 2,
      "note": 56,
      "start": 49.6231,
      "duration": 0.016,
      "velocity": 100,
      "chip": "ym2612"
    },
    {
      "channel": 1,
      "note": 75,
      "start": 49.6243,
      "duration": 0.016,
      "velocity": 110,
      "chip": "ym2612"
    },
    {
      "channel": 0,
      "note": 73,
      "start": 49.6337,
      "duration": 0.0161,
      "velocity": 127,
      "chip": "ym2612"
    },
    {
      "channel": 3,
      "note": 71,
      "start": 49.6379,
      "duration": 0.0161,
      "velocity": 110,
      "chip": "ym2612"
    },
    {
      "channel": 2,
      "note": 56,
      "start": 49.639,
      "duration": 0.0161,
      "velocity": 100,
      "chip": "ym2612"
    },
    {
      "channel": 1,
      "note": 75,
      "start": 49.6402,
      "duration": 0.016,
      "velocity": 110,
      "chip": "ym2612"
    },
    {
      "channel": 0,
      "note": 71,
      "start": 49.6498,
      "duration": 0.0161,
      "velocity": 127,
      "chip": "ym2612"
    },
    {
      "channel": 3,
      "note": 71,
      "start": 49.654,
      "duration": 0.0161,
      "velocity": 110,
      "chip": "ym2612"
    },
    {
      "channel": 2,
      "note": 56,
      "start": 49.6551,
      "duration": 0.0161,
      "velocity": 100,
      "chip": "ym2612"
    },
    {
      "channel": 1,
      "note": 75,
      "start": 49.6563,
      "duration": 0.0161,
      "velocity": 110,
      "chip": "ym2612"
    },
    {
      "channel": 0,
      "note": 69,
      "start": 49.6659,
      "duration": 0.0161,
      "velocity": 127,
      "chip": "ym2612"
    },
    {
      "channel": 3,
      "note": 71,
      "start": 49.6701,
      "duration": 0.0161,
      "velocity": 110,
      "chip": "ym2612"
    },
    {
      "channel": 2,
      "note": 56,
      "start": 49.6712,
      "duration": 0.0161,
      "velocity": 100,
      "chip": "ym2612"
    },
    {
      "channel": 1,
      "note": 75,
      "start": 49.6724,
      "duration": 0.0161,
      "velocity": 110,
      "chip": "ym2612"
    },
    {
      "channel": 0,
      "note": 68,
      "start": 49.682,
      "duration": 0.0179,
      "velocity": 127,
      "chip": "ym2612"
    },
    {
      "channel": 3,
      "note": 71,
      "start": 49.6862,
      "duration": 0.018,
      "velocity": 110,
      "chip": "ym2612"
    },
    {
      "channel": 2,
      "note": 56,
      "start": 49.6873,
      "duration": 0.0183,
      "velocity": 100,
      "chip": "ym2612"
    },
    {
      "channel": 1,
      "note": 75,
      "start": 49.6885,
      "duration": 0.0183,
      "velocity": 110,
      "chip": "ym2612"
    },
    {
      "channel": 0,
      "note": 84,
      "start": 49.7,
      "duration": 0.0143,
      "velocity": 127,
      "chip": "ym2612"
    },
    {
      "channel": 3,
      "note": 71,
      "start": 49.7042,
      "duration": 0.0142,
      "velocity": 110,
      "chip": "ym2612"
    },
    {
      "channel": 2,
      "note": 68,
      "start": 49.7056,
      "duration": 0.014,
      "velocity": 100,
      "chip": "ym2612"
    },
    {
      "channel": 1,
      "note": 75,
      "start": 49.7068,
      "duration": 0.014,
      "velocity": 110,
      "chip": "ym2612"
    },
    {
      "channel": 0,
      "note": 82,
      "start": 49.7143,
      "duration": 0.016,
      "velocity": 127,
      "chip": "ym2612"
    },
    {
      "channel": 2,
      "note": 68,
      "start": 49.7196,
      "duration": 0.016,
      "velocity": 100,
      "chip": "ym2612"
    },
    {
      "channel": 0,
      "note": 81,
      "start": 49.7303,
      "duration": 0.0161,
      "velocity": 127,
      "chip": "ym2612"
    },
    {
      "channel": 2,
      "note": 68,
      "start": 49.7356,
      "duration": 0.0161,
      "velocity": 100,
      "chip": "ym2612"
    },
    {
      "channel": 0,
      "note": 79,
      "start": 49.7464,
      "duration": 0.0161,
      "velocity": 127,
      "chip": "ym2612"
    },
    {
      "channel": 2,
      "note": 68,
      "start": 49.7517,
      "duration": 0.0156,
      "velocity": 100,
      "chip": "ym2612"
    },
    {
      "channel": 0,
      "note": 77,
      "start": 49.7625,
      "duration": 0.0161,
      "velocity": 127,
      "chip": "ym2612"
    },
    {
      "channel": 2,
      "note": 68,
      "start": 49.7673,
      "duration": 0.016,
      "velocity": 100,
      "chip": "ym2612"
    },
    {
      "channel": 0,
      "note": 76,
      "start": 49.7786,
      "duration": 0.0161,
      "velocity": 127,
      "chip": "ym2612"
    },
    {
      "channel": 2,
      "note": 68,
      "start": 49.7833,
      "duration": 0.0161,
      "velocity": 100,
      "chip": "ym2612"
    },
    {
      "channel": 0,
      "note": 74,
      "start": 49.7947,
      "duration": 0.018,
      "velocity": 127,
      "chip": "ym2612"
    },
    {
      "channel": 2,
      "note": 68,
      "start": 49.7994,
      "duration": 0.0191,
      "velocity": 100,
      "chip": "ym2612"
    },
    {
      "channel": 0,
      "note": 78,
      "start": 49.8127,
      "duration": 0.0143,
      "velocity": 127,
      "chip": "ym2612"
    },
    {
      "channel": 3,
      "note": 75,
      "start": 49.8166,
      "duration": 0.014,
      "velocity": 110,
      "chip": "ym2612"
    },
    {
      "channel": 2,
      "note": 58,
      "start": 49.8186,
      "duration": 0.0132,
      "velocity": 100,
      "chip": "ym2612"
    },
    {
      "channel": 1,
      "note": 71,
      "start": 49.8202,
      "duration": 0.0129,
      "velocity": 110,
      "chip": "ym2612"
    },
    {
      "channel": 0,
      "note": 76,
      "start": 49.827,
      "duration": 0.016,
      "velocity": 127,
      "chip": "ym2612"
    },
    {
      "channel": 3,
      "note": 75,
      "start": 49.8307,
      "duration": 0.016,
      "velocity": 110,
      "chip": "ym2612"
    },
    {
      "channel": 2,
      "note": 58,
      "start": 49.8319,
      "duration": 0.0159,
      "velocity": 100,
      "chip": "ym2612"
    },
    {
      "channel": 1,
      "note": 71,
      "start": 49.8331,
      "duration": 0.0159,
      "velocity": 110,
      "chip": "ym2612"
    },
    {
      "channel": 0,
      "note": 75,
      "start": 49.8431,
      "duration": 0.0161,
      "velocity": 127,
      "chip": "ym2612"
    },
    {
      "channel": 3,
      "note": 75,
      "start": 49.8466,
      "duration": 0.0161,
      "velocity": 110,
      "chip": "ym2612"
    },
    {
      "channel": 2,
      "note": 58,
      "start": 49.8478,
      "duration": 0.0161,
      "velocity": 100,
      "chip": "ym2612"
    },
    {
      "channel": 1,
      "note": 71,
      "start": 49.8489,
      "duration": 0.0161,
      "velocity": 110,
      "chip": "ym2612"
    },
    {
      "channel": 0,
      "note": 73,
      "start": 49.8591,
      "duration": 0.0161,
      "velocity": 127,
      "chip": "ym2612"
    },
    {
      "channel": 3,
      "note": 75,
      "start": 49.8627,
      "duration": 0.0161,
      "velocity": 110,
      "chip": "ym2612"
    },
    {
      "channel": 2,
      "note": 58,
      "start": 49.8639,
      "duration": 0.0161,
      "velocity": 100,
      "chip": "ym2612"
    },
    {
      "channel": 1,
      "note": 71,
      "start": 49.865,
      "duration": 0.0161,
      "velocity": 110,
      "chip": "ym2612"
    },
    {
      "channel": 0,
      "note": 71,
      "start": 49.8752,
      "duration": 0.0161,
      "velocity": 127,
      "chip": "ym2612"
    },
    {
      "channel": 3,
      "note": 75,
      "start": 49.8788,
      "duration": 0.0162,
      "velocity": 110,
      "chip": "ym2612"
    },
    {
      "channel": 2,
      "note": 58,
      "start": 49.88,
      "duration": 0.0161,
      "velocity": 100,
      "chip": "ym2612"
    },
    {
      "channel": 1,
      "note": 71,
      "start": 49.8811,
      "duration": 0.0162,
      "velocity": 110,
      "chip": "ym2612"
    },
    {
      "channel": 0,
      "note": 70,
      "start": 49.8913,
      "duration": 0.0179,
      "velocity": 127,
      "chip": "ym2612"
    },
    {
      "channel": 3,
      "note": 75,
      "start": 49.895,
      "duration": 0.0179,
      "velocity": 110,
      "chip": "ym2612"
    },
    {
      "channel": 2,
      "note": 58,
      "start": 49.8961,
      "duration": 0.0179,
      "velocity": 100,
      "chip": "ym2612"
    },
    {
      "channel": 1,
      "note": 71,
      "start": 49.8973,
      "duration": 0.0179,
      "velocity": 110,
      "chip": "ym2612"
    },
    {
      "channel": 0,
      "note": 78,
      "start": 49.9093,
      "duration": 0.0142,
      "velocity": 127,
      "chip": "ym2612"
    },
    {
      "channel": 3,
      "note": 75,
      "start": 49.9129,
      "duration": 0.0142,
      "velocity": 110,
      "chip": "ym2612"
    },
    {
      "channel": 2,
      "note": 58,
      "start": 49.914,
      "duration": 0.0143,
      "velocity": 100,
      "chip": "ym2612"
    },
    {
      "channel": 1,
      "note": 71,
      "start": 49.9152,
      "duration": 0.0143,
      "velocity": 110,
      "chip": "ym2612"
    },
    {
      "channel": 0,
      "note": 76,
      "start": 49.9236,
      "duration": 0.016,
      "velocity": 127,
      "chip": "ym2612"
    },
    {
      "channel": 2,
      "note": 58,
      "start": 49.9284,
      "duration": 0.016,
      "velocity": 100,
      "chip": "ym2612"
    },
    {
      "channel": 0,
      "note": 75,
      "start": 49.9396,
      "duration": 0.0161,
      "velocity": 127,
      "chip": "ym2612"
    },
    {
      "channel": 2,
      "note": 58,
      "start": 49.9443,
      "duration": 0.0161,
      "velocity": 100,
      "chip": "ym2612"
    },
    {
      "channel": 0,
      "note": 73,
      "start": 49.9557,
      "duration": 0.0161,
      "velocity": 127,
      "chip": "ym2612"
    },
    {
      "channel": 2,
      "note": 58,
      "start": 49.9604,
      "duration": 0.0162,
      "velocity": 100,
      "chip": "ym2612"
    },
    {
      "channel": 0,
      "note": 71,
      "start": 49.9719,
      "duration": 0.0161,
      "velocity": 127,
      "chip": "ym2612"
    },
    {
      "channel": 2,
      "note": 58,
      "start": 49.9766,
      "duration": 0.0161,
      "velocity": 100,
      "chip": "ym2612"
    },
    {
      "channel": 0,
      "note": 70,
      "start": 49.988,
      "duration": 0.0162,
      "velocity": 127,
      "chip": "ym2612"
    },
    {
      "channel": 2,
      "note": 58,
      "start": 49.9927,
      "duration": 0.0161,
      "velocity": 100,
      "chip": "ym2612"
    },
    {
      "channel": 0,
      "note": 68,
      "start": 50.0041,
      "duration": 0.0179,
      "velocity": 124,
      "chip": "ym2612"
    },
    {
      "channel": 2,
      "note": 58,
      "start": 50.0088,
      "duration": 0.0186,
      "velocity": 100,
      "chip": "ym2612"
    },
    {
      "channel": 0,
      "note": 84,
      "start": 50.0221,
      "duration": 0.0146,
      "velocity": 124,
      "chip": "ym2612"
    },
    {
      "channel": 3,
      "note": 71,
      "start": 50.0261,
      "duration": 0.0142,
      "velocity": 110,
      "chip": "ym2612"
    },
    {
      "channel": 2,
      "note": 59,
      "start": 50.0275,
      "duration": 0.014,
      "velocity": 100,
      "chip": "ym2612"
    },
    {
      "channel": 1,
      "note": 75,
      "start": 50.029,
      "duration": 0.0137,
      "velocity": 110,
      "chip": "ym2612"
    },
    {
      "channel": 0,
      "note": 82,
      "start": 50.0367,
      "duration": 0.0163,
      "velocity": 124,
      "chip": "ym2612"
    },
    {
      "channel": 3,
      "note": 71,
      "start": 50.0403,
      "duration": 0.0162,
      "velocity": 110,
      "chip": "ym2612"
    },
    {
      "channel": 2,
      "note": 59,
      "start": 50.0415,
      "duration": 0.0162,
      "velocity": 100,
      "chip": "ym2612"
    },
    {
      "channel": 1,
      "note": 75,
      "start": 50.0428,
      "duration": 0.016,
      "velocity": 110,
      "chip": "ym2612"
    },
    {
      "channel": 0,
      "note": 80,
      "start": 50.053,
      "duration": 0.016,
      "velocity": 124,
      "chip": "ym2612"
    },
    {
      "channel": 3,
      "note": 71,
      "start": 50.0565,
      "duration": 0.0161,
      "velocity": 110,
      "chip": "ym2612"
    },
    {
      "channel": 2,
      "note": 59,
      "start": 50.0577,
      "duration": 0.0161,
      "velocity": 100,
      "chip": "ym2612"
    },
    {
      "channel": 1,
      "note": 75,
      "start": 50.0588,
      "duration": 0.0161,
      "velocity": 110,
      "chip": "ym2612"
    },
    {
      "channel": 0,
      "note": 77,
      "start": 50.069,
      "duration": 0.0161,
      "velocity": 124,
      "chip": "ym2612"
    },
    {
      "channel": 3,
      "note": 71,
      "start": 50.0726,
      "duration": 0.0161,
      "velocity": 110,
      "chip": "ym2612"
    },
    {
      "channel": 2,
      "note": 59,
      "start": 50.0738,
      "duration": 0.0161,
      "velocity": 100,
      "chip": "ym2612"
    },
    {
      "channel": 1,
      "note": 75,
      "start": 50.0749,
      "duration": 0.0161,
      "velocity": 110,
      "chip": "ym2612"
    },
    {
      "channel": 0,
      "note": 75,
      "start": 50.0851,
      "duration": 0.0158,
      "velocity": 124,
      "chip": "ym2612"
    },
    {
      "channel": 3,
      "note": 71,
      "start": 50.0887,
      "duration": 0.0161,
      "velocity": 110,
      "chip": "ym2612"
    },
    {
      "channel": 2,
      "note": 59,
      "start": 50.0899,
      "duration": 0.0161,
      "velocity": 100,
      "chip": "ym2612"
    },
    {
      "channel": 1,
      "note": 75,
      "start": 50.091,
      "duration": 0.0161,
      "velocity": 110,
      "chip": "ym2612"
    },
    {
      "channel": 0,
      "note": 72,
      "start": 50.1009,
      "duration": 0.0183,
      "velocity": 124,
      "chip": "ym2612"
    },
    {
      "channel": 3,
      "note": 71,
      "start": 50.1048,
      "duration": 0.0179,
      "velocity": 110,
      "chip": "ym2612"
    },
    {
      "channel": 2,
      "note": 59,
      "start": 50.106,
      "duration": 0.0179,
      "velocity": 100,
      "chip": "ym2612"
    },
    {
      "channel": 1,
      "note": 75,
      "start": 50.1072,
      "duration": 0.0179,
      "velocity": 110,
      "chip": "ym2612"
    },
    {
      "channel": 0,
      "note": 84,
      "start": 50.1192,
      "duration": 0.0137,
      "velocity": 124,
      "chip": "ym2612"
    },
    {
      "channel": 3,
      "note": 71,
      "start": 50.1228,
      "duration": 0.0143,
      "velocity": 110,
      "chip": "ym2612"
    },
    {
      "channel": 2,
      "note": 59,
      "start": 50.1239,
      "duration": 0.0144,
      "velocity": 100,
      "chip": "ym2612"
    },
    {
      "channel": 1,
      "note": 75,
      "start": 50.1251,
      "duration": 0.0143,
      "velocity": 110,
      "chip": "ym2612"
    },
    {
      "channel": 0,
      "note": 82,
      "start": 50.1329,
      "duration": 0.016,
      "velocity": 124,
      "chip": "ym2612"
    },
    {
      "channel": 2,
      "note": 59,
      "start": 50.1383,
      "duration": 0.016,
      "velocity": 100,
      "chip": "ym2612"
    },
    {
      "channel": 0,
      "note": 80,
      "start": 50.149,
      "duration": 0.0161,
      "velocity": 124,
      "chip": "ym2612"
    },
    {
      "channel": 2,
      "note": 59,
      "start": 50.1542,
      "duration": 0.0162,
      "velocity": 100,
      "chip": "ym2612"
    },
    {
      "channel": 0,
      "note": 77,
      "start": 50.1651,
      "duration": 0.0161,
      "velocity": 124,
      "chip": "ym2612"
    },
    {
      "channel": 2,
      "note": 59,
      "start": 50.1704,
      "duration": 0.0161,
      "velocity": 100,
      "chip": "ym2612"
    },
    {
      "channel": 0,
      "note": 75,
      "start": 50.1812,
      "duration": 0.0161,
      "velocity": 124,
      "chip": "ym2612"
    },
    {
      "channel": 2,
      "note": 59,
      "start": 50.1865,
      "duration": 0.016,
      "velocity": 100,
      "chip": "ym2612"
    },
    {
      "channel": 0,
      "note": 72,
      "start": 50.1973,
      "duration": 0.0161,
      "velocity": 124,
      "chip": "ym2612"
    },
    {
      "channel": 2,
      "note": 59,
      "start": 50.2025,
      "duration": 0.0161,
      "velocity": 100,
      "chip": "ym2612"
    },
    {
      "channel": 0,
      "note": 70,
      "start": 50.2133,
      "duration": 0.018,
      "velocity": 115,
      "chip": "ym2612"
    },
    {
      "channel": 2,
      "note": 59,
      "start": 50.2186,
      "duration": 0.019,
      "velocity": 100,
      "chip": "ym2612"
    },
    {
      "channel": 0,
      "note": 36,
      "start": 50.2313,
      "duration": 0.0143,
      "velocity": 115,
      "chip": "ym2612"
    },
    {
      "channel": 3,
      "note": 75,
      "start": 50.2362,
      "duration": 0.0131,
      "velocity": 110,
      "chip": "ym2612"
    },
    {
      "channel": 2,
      "note": 61,
      "start": 50.2377,
      "duration": 0.0129,
      "velocity": 100,
      "chip": "ym2612"
    },
    {
      "channel": 1,
      "note": 71,
      "start": 50.2392,
      "duration": 0.0132,
      "velocity": 110,
      "chip": "ym2612"
    },
    {
      "channel": 0,
      "note": 36,
      "start": 50.2456,
      "duration": 0.0161,
      "velocity": 115,
      "chip": "ym2612"
    },
    {
      "channel": 3,
      "note": 75,
      "start": 50.2493,
      "duration": 0.0159,
      "velocity": 110,
      "chip": "ym2612"
    },
    {
      "channel": 2,
      "note": 61,
      "start": 50.2506,
      "duration": 0.0158,
      "velocity": 100,
      "chip": "ym2612"
    },
    {
      "channel": 1,
      "note": 71,
      "start": 50.2524,
      "duration": 0.0153,
      "velocity": 110,
      "chip": "ym2612"
    },
    {
      "channel": 0,
      "note": 37,
      "start": 50.2617,
      "duration": 0.0161,
      "velocity": 115,
      "chip": "ym2612"
    },
    {
      "channel": 3,
      "note": 75,
      "start": 50.2653,
      "duration": 0.0161,
      "velocity": 110,
      "chip": "ym2612"
    },
    {
      "channel": 2,
      "note": 61,
      "start": 50.2664,
      "duration": 0.0161,
      "velocity": 100,
      "chip": "ym2612"
    },
    {
      "channel": 1,
      "note": 71,
      "start": 50.2677,
      "duration": 0.016,
      "velocity": 110,
      "chip": "ym2612"
    },
    {
      "channel": 0,
      "note": 37,
      "start": 50.2778,
      "duration": 0.0161,
      "velocity": 115,
      "chip": "ym2612"
    },
    {
      "channel": 3,
      "note": 75,
      "start": 50.2813,
      "duration": 0.0161,
      "velocity": 110,
      "chip": "ym2612"
    },
    {
      "channel": 2,
      "note": 61,
      "start": 50.2825,
      "duration": 0.0161,
      "velocity": 100,
      "chip": "ym2612"
    },
    {
      "channel": 1,
      "note": 71,
      "start": 50.2837,
      "duration": 0.016,
      "velocity": 110,
      "chip": "ym2612"
    },
    {
      "channel": 0,
      "note": 38,
      "start": 50.2939,
      "duration": 0.0161,
      "velocity": 115,
      "chip": "ym2612"
    },
    {
      "channel": 3,
      "note": 75,
      "start": 50.2974,
      "duration": 0.0161,
      "velocity": 110,
      "chip": "ym2612"
    },
    {
      "channel": 2,
      "note": 61,
      "start": 50.2986,
      "duration": 0.0161,
      "velocity": 100,
      "chip": "ym2612"
    },
    {
      "channel": 1,
      "note": 71,
      "start": 50.2997,
      "duration": 0.0161,
      "velocity": 110,
      "chip": "ym2612"
    },
    {
      "channel": 0,
      "note": 38,
      "start": 50.31,
      "duration": 0.0161,
      "velocity": 115,
      "chip": "ym2612"
    },
    {
      "channel": 3,
      "note": 75,
      "start": 50.3135,
      "duration": 0.0161,
      "velocity": 110,
      "chip": "ym2612"
    },
    {
      "channel": 2,
      "note": 61,
      "start": 50.3147,
      "duration": 0.0161,
      "velocity": 100,
      "chip": "ym2612"
    },
    {
      "channel": 1,
      "note": 71,
      "start": 50.3158,
      "duration": 0.0161,
      "velocity": 110,
      "chip": "ym2612"
    },
    {
      "channel": 0,
      "note": 39,
      "start": 50.3261,
      "duration": 0.0161,
      "velocity": 115,
      "chip": "ym2612"
    },
    {
      "channel": 3,
      "note": 75,
      "start": 50.3296,
      "duration": 0.0161,
      "velocity": 110,
      "chip": "ym2612"
    },
    {
      "channel": 2,
      "note": 61,
      "start": 50.3308,
      "duration": 0.0162,
      "velocity": 100,
      "chip": "ym2612"
    },
    {
      "channel": 1,
      "note": 71,
      "start": 50.3319,
      "duration": 0.0161,
      "velocity": 110,
      "chip": "ym2612"
    },
    {
      "channel": 0,
      "note": 39,
      "start": 50.3422,
      "duration": 0.0161,
      "velocity": 115,
      "chip": "ym2612"
    },
    {
      "channel": 2,
      "note": 61,
      "start": 50.3469,
      "duration": 0.016,
      "velocity": 100,
      "chip": "ym2612"
    },
    {
      "channel": 0,
      "note": 40,
      "start": 50.3583,
      "duration": 0.0161,
      "velocity": 115,
      "chip": "ym2612"
    },
    {
      "channel": 2,
      "note": 61,
      "start": 50.363,
      "duration": 0.0161,
      "velocity": 100,
      "chip": "ym2612"
    },
    {
      "channel": 0,
      "note": 40,
      "start": 50.3744,
      "duration": 0.0161,
      "velocity": 115,
      "chip": "ym2612"
    },
    {
      "channel": 2,
      "note": 61,
      "start": 50.379,
      "duration": 0.0161,
      "velocity": 100,
      "chip": "ym2612"
    },
    {
      "channel": 0,
      "note": 40,
      "start": 50.3905,
      "duration": 0.0161,
      "velocity": 115,
      "chip": "ym2612"
    },
    {
      "channel": 2,
      "note": 61,
      "start": 50.3951,
      "duration": 0.0162,
      "velocity": 100,
      "chip": "ym2612"
    },
    {
      "channel": 0,
      "note": 41,
      "start": 50.4066,
      "duration": 0.0161,
      "velocity": 115,
      "chip": "ym2612"
    },
    {
      "channel": 2,
      "note": 61,
      "start": 50.4113,
      "duration": 0.0161,
      "velocity": 100,
      "chip": "ym2612"
    },
    {
      "channel": 0,
      "note": 41,
      "start": 50.4227,
      "duration": 0.0161,
      "velocity": 115,
      "chip": "ym2612"
    },
    {
      "channel": 2,
      "note": 61,
      "start": 50.4274,
      "duration": 0.0166,
      "velocity": 100,
      "chip": "ym2612"
    },
    {
      "channel": 0,
      "note": 42,
      "start": 50.4388,
      "duration": 0.0161,
      "velocity": 115,
      "chip": "ym2612"
    },
    {
      "channel": 3,
      "note": 73,
      "start": 50.4428,
      "duration": 0.0157,
      "velocity": 110,
      "chip": "ym2612"
    },
    {
      "channel": 2,
      "note": 61,
      "start": 50.4439,
      "duration": 0.0157,
      "velocity": 100,
      "chip": "ym2612"
    },
    {
      "channel": 1,
      "note": 76,
      "start": 50.4457,
      "duration": 0.0152,
      "velocity": 110,
      "chip": "ym2612"
    },
    {
      "channel": 0,
      "note": 42,
      "start": 50.4549,
      "duration": 0.0162,
      "velocity": 115,
      "chip": "ym2612"
    },
    {
      "channel": 3,
      "note": 73,
      "start": 50.4585,
      "duration": 0.0161,
      "velocity": 110,
      "chip": "ym2612"
    },
    {
      "channel": 2,
      "note": 61,
      "start": 50.4597,
      "duration": 0.0161,
      "velocity": 100,
      "chip": "ym2612"
    },
    {
      "channel": 1,
      "note": 76,
      "start": 50.4609,
      "duration": 0.0161,
      "velocity": 110,
      "chip": "ym2612"
    },
    {
      "channel": 0,
      "note": 43,
      "start": 50.471,
      "duration": 0.0161,
      "velocity": 115,
      "chip": "ym2612"
    },
    {
      "channel": 3,
      "note": 73,
      "start": 50.4746,
      "duration": 0.0161,
      "velocity": 110,
      "chip": "ym2612"
    },
    {
      "channel": 2,
      "note": 61,
      "start": 50.4757,
      "duration": 0.0162,
      "velocity": 100,
      "chip": "ym2612"
    },
    {
      "channel": 1,
      "note": 76,
      "start": 50.477,
      "duration": 0.0161,
      "velocity": 110,
      "chip": "ym2612"
    },
    {
      "channel": 0,
      "note": 43,
      "start": 50.4871,
      "duration": 0.0163,
      "velocity": 115,
      "chip": "ym2612"
    },
    {
      "channel": 2,
      "note": 61,
      "start": 50.4919,
      "duration": 0.0162,
      "velocity": 100,
      "chip": "ym2612"
    },
    {
      "channel": 0,
      "note": 44,
      "start": 50.5034,
      "duration": 0.0163,
      "velocity": 115,
      "chip": "ym2612"
    },
    {
      "channel": 2,
      "note": 61,
      "start": 50.5081,
      "duration": 0.0163,
      "velocity": 100,
      "chip": "ym2612"
    },
    {
      "channel": 0,
      "note": 44,
      "start": 50.5197,
      "duration": 0.0181,
      "velocity": 115,
      "chip": "ym2612"
    },
    {
      "channel": 2,
      "note": 61,
      "start": 50.5244,
      "duration": 0.0188,
      "velocity": 100,
      "chip": "ym2612"
    },
    {
      "channel": 0,
      "note": 36,
      "start": 50.5378,
      "duration": 0.0143,
      "velocity": 115,
      "chip": "ym2612"
    },
    {
      "channel": 3,
      "note": 73,
      "start": 50.5417,
      "duration": 0.0141,
      "velocity": 110,
      "chip": "ym2612"
    },
    {
      "channel": 2,
      "note": 61,
      "start": 50.5432,
      "duration": 0.0137,
      "velocity": 100,
      "chip": "ym2612"
    },
    {
      "channel": 1,
      "note": 76,
      "start": 50.5447,
      "duration": 0.0135,
      "velocity": 110,
      "chip": "ym2612"
    },
    {
      "channel": 0,
      "note": 36,
      "start": 50.5522,
      "duration": 0.016,
      "velocity": 115,
      "chip": "ym2612"
    },
    {
      "channel": 3,
      "note": 73,
      "start": 50.5558,
      "duration": 0.016,
      "velocity": 110,
      "chip": "ym2612"
    },
    {
      "channel": 2,
      "note": 61,
      "start": 50.557,
      "duration": 0.0159,
      "velocity": 100,
      "chip": "ym2612"
    },
    {
      "channel": 1,
      "note": 76,
      "start": 50.5582,
      "duration": 0.0159,
      "velocity": 110,
      "chip": "ym2612"
    },
    {
      "channel": 0,
      "note": 37,
      "start": 50.5681,
      "duration": 0.0156,
      "velocity": 115,
      "chip": "ym2612"
    },
    {
      "channel": 3,
      "note": 73,
      "start": 50.5717,
      "duration": 0.0161,
      "velocity": 110,
      "chip": "ym2612"
    },
    {
      "channel": 2,
      "note": 61,
      "start": 50.5729,
      "duration": 0.0161,
      "velocity": 100,
      "chip": "ym2612"
    },
    {
      "channel": 1,
      "note": 76,
      "start": 50.574,
      "duration": 0.0161,
      "velocity": 110,
      "chip": "ym2612"
    },
    {
      "channel": 0,
      "note": 37,
      "start": 50.5837,
      "duration": 0.0161,
      "velocity": 115,
      "chip": "ym2612"
    },
    {
      "channel": 3,
      "note": 73,
      "start": 50.5878,
      "duration": 0.0161,
      "velocity": 110,
      "chip": "ym2612"
    },
    {
      "channel": 2,
      "note": 61,
      "start": 50.589,
      "duration": 0.0162,
      "velocity": 100,
      "chip": "ym2612"
    },
    {
      "channel": 1,
      "note": 76,
      "start": 50.5901,
      "duration": 0.0161,
      "velocity": 110,
      "chip": "ym2612"
    },
    {
      "channel": 0,
      "note": 38,
      "start": 50.5998,
      "duration": 0.0161,
      "velocity": 115,
      "chip": "ym2612"
    },
    {
      "channel": 2,
      "note": 61,
      "start": 50.6051,
      "duration": 0.016,
      "velocity": 100,
      "chip": "ym2612"
    },
    {
      "channel": 0,
      "note": 38,
      "start": 50.6159,
      "duration": 0.0161,
      "velocity": 115,
      "chip": "ym2612"
    },
    {
      "channel": 2,
      "note": 61,
      "start": 50.6212,
      "duration": 0.0161,
      "velocity": 100,
      "chip": "ym2612"
    },
    {
      "channel": 0,
      "note": 39,
      "start": 50.632,
      "duration": 0.018,
      "velocity": 124,
      "chip": "ym2612"
    },
    {
      "channel": 2,
      "note": 61,
      "start": 50.6373,
      "duration": 0.0184,
      "velocity": 100,
      "chip": "ym2612"
    },
    {
      "channel": 0,
      "note": 84,
      "start": 50.65,
      "duration": 0.0143,
      "velocity": 124,
      "chip": "ym2612"
    },
    {
      "channel": 3,
      "note": 76,
      "start": 50.6544,
      "duration": 0.014,
      "velocity": 110,
      "chip": "ym2612"
    },
    {
      "channel": 2,
      "note": 61,
      "start": 50.6557,
      "duration": 0.014,
      "velocity": 100,
      "chip": "ym2612"
    },
    {
      "channel": 1,
      "note": 73,
      "start": 50.6572,
      "duration": 0.0138,
      "velocity": 110,
      "chip": "ym2612"
    },
    {
      "channel": 0,
      "note": 82,
      "start": 50.6642,
      "duration": 0.0161,
      "velocity": 124,
      "chip": "ym2612"
    },
    {
      "channel": 3,
      "note": 76,
      "start": 50.6684,
      "duration": 0.0156,
      "velocity": 110,
      "chip": "ym2612"
    },
    {
      "channel": 2,
      "note": 61,
      "start": 50.6697,
      "duration": 0.016,
      "velocity": 100,
      "chip": "ym2612"
    },
    {
      "channel": 1,
      "note": 73,
      "start": 50.671,
      "duration": 0.0159,
      "velocity": 110,
      "chip": "ym2612"
    },
    {
      "channel": 0,
      "note": 80,
      "start": 50.6803,
      "duration": 0.0161,
      "velocity": 124,
      "chip": "ym2612"
    },
    {
      "channel": 3,
      "note": 76,
      "start": 50.6841,
      "duration": 0.0159,
      "velocity": 110,
      "chip": "ym2612"
    },
    {
      "channel": 2,
      "note": 61,
      "start": 50.6857,
      "duration": 0.016,
      "velocity": 100,
      "chip": "ym2612"
    },
    {
      "channel": 1,
      "note": 73,
      "start": 50.6868,
      "duration": 0.0161,
      "velocity": 110,
      "chip": "ym2612"
    },
    {
      "channel": 0,
      "note": 77,
      "start": 50.6964,
      "duration": 0.0161,
      "velocity": 124,
      "chip": "ym2612"
    },
    {
      "channel": 2,
      "note": 61,
      "start": 50.7016,
      "duration": 0.0158,
      "velocity": 100,
      "chip": "ym2612"
    },
    {
      "channel": 0,
      "note": 75,
      "start": 50.7125,
      "duration": 0.0161,
      "velocity": 124,
      "chip": "ym2612"
    },
    {
      "channel": 2,
      "note": 61,
      "start": 50.7174,
      "duration": 0.0159,
      "velocity": 100,
      "chip": "ym2612"
    },
    {
      "channel": 0,
      "note": 72,
      "start": 50.7286,
      "duration": 0.0161,
      "velocity": 124,
      "chip": "ym2612"
    },
    {
      "channel": 2,
      "note": 61,
      "start": 50.7333,
      "duration": 0.0166,
      "velocity": 100,
      "chip": "ym2612"
    },
    {
      "channel": 0,
      "note": 70,
      "start": 50.7447,
      "duration": 0.0161,
      "velocity": 124,
      "chip": "ym2612"
    },
    {
      "channel": 3,
      "note": 76,
      "start": 50.7486,
      "duration": 0.0158,
      "velocity": 110,
      "chip": "ym2612"
    },
    {
      "channel": 2,
      "note": 61,
      "start": 50.7499,
      "duration": 0.0158,
      "velocity": 100,
      "chip": "ym2612"
    },
    {
      "channel": 1,
      "note": 73,
      "start": 50.752,
      "duration": 0.0149,
      "velocity": 110,
      "chip": "ym2612"
    },
    {
      "channel": 0,
      "note": 68,
      "start": 50.7608,
      "duration": 0.0161,
      "velocity": 124,
      "chip": "ym2612"
    },
    {
      "channel": 3,
      "note": 76,
      "start": 50.7644,
      "duration": 0.016,
      "velocity": 110,
      "chip": "ym2612"
    },
    {
      "channel": 2,
      "note": 61,
      "start": 50.7657,
      "duration": 0.016,
      "velocity": 100,
      "chip": "ym2612"
    },
    {
      "channel": 1,
      "note": 73,
      "start": 50.7669,
      "duration": 0.016,
      "velocity": 110,
      "chip": "ym2612"
    },
    {
      "channel": 0,
      "note": 65,
      "start": 50.7769,
      "duration": 0.0161,
      "velocity": 124,
      "chip": "ym2612"
    },
    {
      "channel": 3,
      "note": 76,
      "start": 50.7805,
      "duration": 0.0162,
      "velocity": 110,
      "chip": "ym2612"
    },
    {
      "channel": 2,
      "note": 61,
      "start": 50.7817,
      "duration": 0.0161,
      "velocity": 100,
      "chip": "ym2612"
    },
    {
      "channel": 1,
      "note": 73,
      "start": 50.7829,
      "duration": 0.0161,
      "velocity": 110,
      "chip": "ym2612"
    },
    {
      "channel": 0,
      "note": 63,
      "start": 50.793,
      "duration": 0.0153,
      "velocity": 1,
      "chip": "ym2612"
    },
    {
      "channel": 3,
      "note": 76,
      "start": 50.7966,
      "duration": 0.0152,
      "velocity": 110,
      "chip": "ym2612"
    },
    {
      "channel": 2,
      "note": 61,
      "start": 50.7978,
      "duration": 0.0153,
      "velocity": 100,
      "chip": "ym2612"
    },
    {
      "channel": 1,
      "note": 73,
      "start": 50.799,
      "duration": 0.0153,
      "velocity": 110,
      "chip": "ym2612"
    },
    {
      "channel": 2,
      "note": 61,
      "start": 50.8131,
      "duration": 0.0152,
      "velocity": 100,
      "chip": "ym2612"
    },
    {
      "channel": 2,
      "note": 61,
      "start": 50.8283,
      "duration": 0.0161,
      "velocity": 100,
      "chip": "ym2612"
    },
    {
      "channel": 2,
      "note": 61,
      "start": 50.8444,
      "duration": 0.0202,
      "velocity": 100,
      "chip": "ym2612"
    },
    {
      "channel": 0,
      "note": 36,
      "start": 50.8593,
      "duration": 0.0143,
      "velocity": 115,
      "chip": "ym2612"
    },
    {
      "channel": 3,
      "note": 73,
      "start": 50.8632,
      "duration": 0.014,
      "velocity": 110,
      "chip": "ym2612"
    },
    {
      "channel": 2,
      "note": 56,
      "start": 50.8646,
      "duration": 0.0138,
      "velocity": 100,
      "chip": "ym2612"
    },
    {
      "channel": 1,
      "note": 76,
      "start": 50.8662,
      "duration": 0.0134,
      "velocity": 110,
      "chip": "ym2612"
    },
    {
      "channel": 0,
      "note": 36,
      "start": 50.8736,
      "duration": 0.016,
      "velocity": 115,
      "chip": "ym2612"
    },
    {
      "channel": 3,
      "note": 73,
      "start": 50.8772,
      "duration": 0.016,
      "velocity": 110,
      "chip": "ym2612"
    },
    {
      "channel": 2,
      "note": 56,
      "start": 50.8784,
      "duration": 0.0159,
      "velocity": 100,
      "chip": "ym2612"
    },
    {
      "channel": 1,
      "note": 76,
      "start": 50.8796,
      "duration": 0.0159,
      "velocity": 110,
      "chip": "ym2612"
    },
    {
      "channel": 0,
      "note": 37,
      "start": 50.8896,
      "duration": 0.0161,
      "velocity": 115,
      "chip": "ym2612"
    },
    {
      "channel": 3,
      "note": 73,
      "start": 50.8932,
      "duration": 0.0161,
      "velocity": 110,
      "chip": "ym2612"
    },
    {
      "channel": 2,
      "note": 56,
      "start": 50.8943,
      "duration": 0.0161,
      "velocity": 100,
      "chip": "ym2612"
    },
    {
      "channel": 1,
      "note": 76,
      "start": 50.8955,
      "duration": 0.0161,
      "velocity": 110,
      "chip": "ym2612"
    },
    {
      "channel": 0,
      "note": 37,
      "start": 50.9057,
      "duration": 0.0161,
      "velocity": 115,
      "chip": "ym2612"
    },
    {
      "channel": 3,
      "note": 73,
      "start": 50.9093,
      "duration": 0.0161,
      "velocity": 110,
      "chip": "ym2612"
    },
    {
      "channel": 2,
      "note": 56,
      "start": 50.9104,
      "duration": 0.0162,
      "velocity": 100,
      "chip": "ym2612"
    },
    {
      "channel": 1,
      "note": 76,
      "start": 50.9116,
      "duration": 0.0161,
      "velocity": 110,
      "chip": "ym2612"
    },
    {
      "channel": 0,
      "note": 38,
      "start": 50.9218,
      "duration": 0.0161,
      "velocity": 115,
      "chip": "ym2612"
    },
    {
      "channel": 3,
      "note": 73,
      "start": 50.9254,
      "duration": 0.016,
      "velocity": 110,
      "chip": "ym2612"
    },
    {
      "channel": 2,
      "note": 56,
      "start": 50.9266,
      "duration": 0.016,
      "velocity": 100,
      "chip": "ym2612"
    },
    {
      "channel": 1,
      "note": 76,
      "start": 50.9277,
      "duration": 0.0161,
      "velocity": 110,
      "chip": "ym2612"
    },
    {
      "channel": 0,
      "note": 38,
      "start": 50.9379,
      "duration": 0.0179,
      "velocity": 115,
      "chip": "ym2612"
    },
    {
      "channel": 3,
      "note": 73,
      "start": 50.9415,
      "duration": 0.018,
      "velocity": 110,
      "chip": "ym2612"
    },
    {
      "channel": 2,
      "note": 56,
      "start": 50.9426,
      "duration": 0.0183,
      "velocity": 100,
      "chip": "ym2612"
    },
    {
      "channel": 1,
      "note": 76,
      "start": 50.9438,
      "duration": 0.0183,
      "velocity": 110,
      "chip": "ym2612"
    },
    {
      "channel": 0,
      "note": 36,
      "start": 50.9559,
      "duration": 0.0143,
      "velocity": 115,
      "chip": "ym2612"
    },
    {
      "channel": 3,
      "note": 73,
      "start": 50.9595,
      "duration": 0.0143,
      "velocity": 110,
      "chip": "ym2612"
    },
    {
      "channel": 2,
      "note": 59,
      "start": 50.9609,
      "duration": 0.0142,
      "velocity": 100,
      "chip": "ym2612"
    },
    {
      "channel": 1,
      "note": 76,
      "start": 50.9621,
      "duration": 0.0141,
      "velocity": 110,
      "chip": "ym2612"
    },
    {
      "channel": 0,
      "note": 36,
      "start": 50.9702,
      "duration": 0.0164,
      "velocity": 115,
      "chip": "ym2612"
    },
    {
      "channel": 2,
      "note": 59,
      "start": 50.9751,
      "duration": 0.0163,
      "velocity": 100,
      "chip": "ym2612"
    },
    {
      "channel": 0,
      "note": 37,
      "start": 50.9866,
      "duration": 0.0163,
      "velocity": 115,
      "chip": "ym2612"
    },
    {
      "channel": 2,
      "note": 59,
      "start": 50.9913,
      "duration": 0.0163,
      "velocity": 100,
      "chip": "ym2612"
    },
    {
      "channel": 0,
      "note": 37,
      "start": 51.0029,
      "duration": 0.0161,
      "velocity": 115,
      "chip": "ym2612"
    },
    {
      "channel": 2,
      "note": 59,
      "start": 51.0076,
      "duration": 0.0161,
      "velocity": 100,
      "chip": "ym2612"
    },
    {
      "channel": 0,
      "note": 38,
      "start": 51.019,
      "duration": 0.016,
      "velocity": 115,
      "chip": "ym2612"
    },
    {
      "channel": 2,
      "note": 59,
      "start": 51.0237,
      "duration": 0.0161,
      "velocity": 100,
      "chip": "ym2612"
    },
    {
      "channel": 0,
      "note": 38,
      "start": 51.035,
      "duration": 0.0158,
      "velocity": 115,
      "chip": "ym2612"
    },
    {
      "channel": 2,
      "note": 59,
      "start": 51.0398,
      "duration": 0.0162,
      "velocity": 100,
      "chip": "ym2612"
    },
    {
      "channel": 0,
      "note": 39,
      "start": 51.0508,
      "duration": 0.0183,
      "velocity": 115,
      "chip": "ym2612"
    },
    {
      "channel": 2,
      "note": 59,
      "start": 51.056,
      "duration": 0.0185,
      "velocity": 100,
      "chip": "ym2612"
    },
    {
      "channel": 0,
      "note": 36,
      "start": 51.0692,
      "duration": 0.0137,
      "velocity": 115,
      "chip": "ym2612"
    },
    {
      "channel": 3,
      "note": 76,
      "start": 51.0731,
      "duration": 0.0141,
      "velocity": 110,
      "chip": "ym2612"
    },
    {
      "channel": 2,
      "note": 61,
      "start": 51.0745,
      "duration": 0.0139,
      "velocity": 100,
      "chip": "ym2612"
    },
    {
      "channel": 1,
      "note": 73,
      "start": 51.076,
      "duration": 0.0135,
      "velocity": 110,
      "chip": "ym2612"
    },
    {
      "channel": 0,
      "note": 36,
      "start": 51.0829,
      "duration": 0.016,
      "velocity": 115,
      "chip": "ym2612"
    },
    {
      "channel": 3,
      "note": 76,
      "start": 51.0871,
      "duration": 0.016,
      "velocity": 110,
      "chip": "ym2612"
    },
    {
      "channel": 2,
      "note": 61,
      "start": 51.0883,
      "duration": 0.0159,
      "velocity": 100,
      "chip": "ym2612"
    },
    {
      "channel": 1,
      "note": 73,
      "start": 51.0895,
      "duration": 0.0159,
      "velocity": 110,
      "chip": "ym2612"
    },
    {
      "channel": 0,
      "note": 37,
      "start": 51.0989,
      "duration": 0.0161,
      "velocity": 115,
      "chip": "ym2612"
    },
    {
      "channel": 3,
      "note": 76,
      "start": 51.1031,
      "duration": 0.0161,
      "velocity": 110,
      "chip": "ym2612"
    },
    {
      "channel": 2,
      "note": 61,
      "start": 51.1042,
      "duration": 0.0161,
      "velocity": 100,
      "chip": "ym2612"
    },
    {
      "channel": 1,
      "note": 73,
      "start": 51.1054,
      "duration": 0.0161,
      "velocity": 110,
      "chip": "ym2612"
    },
    {
      "channel": 0,
      "note": 37,
      "start": 51.115,
      "duration": 0.0161,
      "velocity": 115,
      "chip": "ym2612"
    },
    {
      "channel": 3,
      "note": 76,
      "start": 51.1192,
      "duration": 0.016,
      "velocity": 110,
      "chip": "ym2612"
    },
    {
      "channel": 2,
      "note": 61,
      "start": 51.1203,
      "duration": 0.016,
      "velocity": 100,
      "chip": "ym2612"
    },
    {
      "channel": 1,
      "note": 73,
      "start": 51.1215,
      "duration": 0.0161,
      "velocity": 110,
      "chip": "ym2612"
    },
    {
      "channel": 0,
      "note": 38,
      "start": 51.1311,
      "duration": 0.0162,
      "velocity": 115,
      "chip": "ym2612"
    },
    {
      "channel": 3,
      "note": 76,
      "start": 51.1352,
      "duration": 0.0158,
      "velocity": 110,
      "chip": "ym2612"
    },
    {
      "channel": 2,
      "note": 61,
      "start": 51.1364,
      "duration": 0.0162,
      "velocity": 100,
      "chip": "ym2612"
    },
    {
      "channel": 1,
      "note": 73,
      "start": 51.1376,
      "duration": 0.0161,
      "velocity": 110,
      "chip": "ym2612"
    },
    {
      "channel": 0,
      "note": 38,
      "start": 51.1473,
      "duration": 0.0179,
      "velocity": 127,
      "chip": "ym2612"
    },
    {
      "channel": 3,
      "note": 76,
      "start": 51.1509,
      "duration": 0.0184,
      "velocity": 110,
      "chip": "ym2612"
    },
    {
      "channel": 2,
      "note": 61,
      "start": 51.1525,
      "duration": 0.0182,
      "velocity": 100,
      "chip": "ym2612"
    },
    {
      "channel": 1,
      "note": 73,
      "start": 51.1537,
      "duration": 0.0183,
      "velocity": 110,
      "chip": "ym2612"
    },
    {
      "channel": 0,
      "note": 88,
      "start": 51.1652,
      "duration": 0.0143,
      "velocity": 127,
      "chip": "ym2612"
    },
    {
      "channel": 3,
      "note": 76,
      "start": 51.1693,
      "duration": 0.0137,
      "velocity": 110,
      "chip": "ym2612"
    },
    {
      "channel": 2,
      "note": 73,
      "start": 51.1708,
      "duration": 0.0141,
      "velocity": 100,
      "chip": "ym2612"
    },
    {
      "channel": 1,
      "note": 73,
      "start": 51.1719,
      "duration": 0.0141,
      "velocity": 110,
      "chip": "ym2612"
    },
    {
      "channel": 0,
      "note": 86,
      "start": 51.1795,
      "duration": 0.016,
      "velocity": 127,
      "chip": "ym2612"
    },
    {
      "channel": 2,
      "note": 73,
      "start": 51.1849,
      "duration": 0.0154,
      "velocity": 100,
      "chip": "ym2612"
    },
    {
      "channel": 0,
      "note": 85,
      "start": 51.1955,
      "duration": 0.0161,
      "velocity": 127,
      "chip": "ym2612"
    },
    {
      "channel": 2,
      "note": 73,
      "start": 51.2002,
      "duration": 0.0161,
      "velocity": 100,
      "chip": "ym2612"
    },
    {
      "channel": 0,
      "note": 83,
      "start": 51.2116,
      "duration": 0.0161,
      "velocity": 127,
      "chip": "ym2612"
    },
    {
      "channel": 2,
      "note": 73,
      "start": 51.2163,
      "duration": 0.0161,
      "velocity": 100,
      "chip": "ym2612"
    },
    {
      "channel": 0,
      "note": 81,
      "start": 51.2277,
      "duration": 0.0161,
      "velocity": 127,
      "chip": "ym2612"
    },
    {
      "channel": 2,
      "note": 73,
      "start": 51.2324,
      "duration": 0.0161,
      "velocity": 100,
      "chip": "ym2612"
    },
    {
      "channel": 0,
      "note": 80,
      "start": 51.2438,
      "duration": 0.0161,
      "velocity": 127,
      "chip": "ym2612"
    },
    {
      "channel": 2,
      "note": 73,
      "start": 51.2485,
      "duration": 0.0161,
      "velocity": 100,
      "chip": "ym2612"
    },
    {
      "channel": 0,
      "note": 78,
      "start": 51.2599,
      "duration": 0.0161,
      "velocity": 127,
      "chip": "ym2612"
    },
    {
      "channel": 2,
      "note": 73,
      "start": 51.2646,
      "duration": 0.0167,
      "velocity": 100,
      "chip": "ym2612"
    },
    {
      "channel": 0,
      "note": 76,
      "start": 51.276,
      "duration": 0.0161,
      "velocity": 127,
      "chip": "ym2612"
    },
    {
      "channel": 3,
      "note": 73,
      "start": 51.28,
      "duration": 0.0158,
      "velocity": 110,
      "chip": "ym2612"
    },
    {
      "channel": 2,
      "note": 61,
      "start": 51.2814,
      "duration": 0.0155,
      "velocity": 100,
      "chip": "ym2612"
    },
    {
      "channel": 1,
      "note": 76,
      "start": 51.283,
      "duration": 0.0152,
      "velocity": 110,
      "chip": "ym2612"
    },
    {
      "channel": 0,
      "note": 75,
      "start": 51.2921,
      "duration": 0.0162,
      "velocity": 127,
      "chip": "ym2612"
    },
    {
      "channel": 3,
      "note": 73,
      "start": 51.2957,
      "duration": 0.0161,
      "velocity": 110,
      "chip": "ym2612"
    },
    {
      "channel": 2,
      "note": 61,
      "start": 51.2969,
      "duration": 0.016,
      "velocity": 100,
      "chip": "ym2612"
    },
    {
      "channel": 1,
      "note": 76,
      "start": 51.2982,
      "duration": 0.016,
      "velocity": 110,
      "chip": "ym2612"
    },
    {
      "channel": 0,
      "note": 73,
      "start": 51.3083,
      "duration": 0.0161,
      "velocity": 127,
      "chip": "ym2612"
    },
    {
      "channel": 3,
      "note": 73,
      "start": 51.3118,
      "duration": 0.0161,
      "velocity": 110,
      "chip": "ym2612"
    },
    {
      "channel": 2,
      "note": 61,
      "start": 51.313,
      "duration": 0.0161,
      "velocity": 100,
      "chip": "ym2612"
    },
    {
      "channel": 1,
      "note": 76,
      "start": 51.3142,
      "duration": 0.016,
      "velocity": 110,
      "chip": "ym2612"
    },
    {
      "channel": 0,
      "note": 71,
      "start": 51.3244,
      "duration": 0.0161,
      "velocity": 127,
      "chip": "ym2612"
    },
    {
      "channel": 3,
      "note": 73,
      "start": 51.3279,
      "duration": 0.0161,
      "velocity": 110,
      "chip": "ym2612"
    },
    {
      "channel": 2,
      "note": 61,
      "start": 51.329,
      "duration": 0.0161,
      "velocity": 100,
      "chip": "ym2612"
    },
    {
      "channel": 1,
      "note": 76,
      "start": 51.3302,
      "duration": 0.0161,
      "velocity": 110,
      "chip": "ym2612"
    },
    {
      "channel": 0,
      "note": 69,
      "start": 51.3405,
      "duration": 0.0161,
      "velocity": 127,
      "chip": "ym2612"
    },
    {
      "channel": 3,
      "note": 73,
      "start": 51.344,
      "duration": 0.0161,
      "velocity": 110,
      "chip": "ym2612"
    },
    {
      "channel": 2,
      "note": 61,
      "start": 51.3451,
      "duration": 0.0161,
      "velocity": 100,
      "chip": "ym2612"
    },
    {
      "channel": 1,
      "note": 76,
      "start": 51.3463,
      "duration": 0.0161,
      "velocity": 110,
      "chip": "ym2612"
    },
    {
      "channel": 0,
      "note": 68,
      "start": 51.3565,
      "duration": 0.0179,
      "velocity": 127,
      "chip": "ym2612"
    },
    {
      "channel": 3,
      "note": 73,
      "start": 51.3601,
      "duration": 0.018,
      "velocity": 110,
      "chip": "ym2612"
    },
    {
      "channel": 2,
      "note": 61,
      "start": 51.3612,
      "duration": 0.0183,
      "velocity": 100,
      "chip": "ym2612"
    },
    {
      "channel": 1,
      "note": 76,
      "start": 51.3624,
      "duration": 0.0183,
      "velocity": 110,
      "chip": "ym2612"
    },
    {
      "channel": 0,
      "note": 84,
      "start": 51.3745,
      "duration": 0.0143,
      "velocity": 127,
      "chip": "ym2612"
    },
    {
      "channel": 3,
      "note": 73,
      "start": 51.3781,
      "duration": 0.0143,
      "velocity": 110,
      "chip": "ym2612"
    },
    {
      "channel": 2,
      "note": 73,
      "start": 51.3796,
      "duration": 0.0141,
      "velocity": 100,
      "chip": "ym2612"
    },
    {
      "channel": 1,
      "note": 76,
      "start": 51.3807,
      "duration": 0.0141,
      "velocity": 110,
      "chip": "ym2612"
    },
    {
      "channel": 0,
      "note": 82,
      "start": 51.3888,
      "duration": 0.016,
      "velocity": 127,
      "chip": "ym2612"
    },
    {
      "channel": 2,
      "note": 73,
      "start": 51.3936,
      "duration": 0.0159,
      "velocity": 100,
      "chip": "ym2612"
    },
    {
      "channel": 0,
      "note": 81,
      "start": 51.4048,
      "duration": 0.0161,
      "velocity": 127,
      "chip": "ym2612"
    },
    {
      "channel": 2,
      "note": 73,
      "start": 51.4095,
      "duration": 0.0161,
      "velocity": 100,
      "chip": "ym2612"
    },
    {
      "channel": 0,
      "note": 79,
      "start": 51.4209,
      "duration": 0.0162,
      "velocity": 127,
      "chip": "ym2612"
    },
    {
      "channel": 2,
      "note": 73,
      "start": 51.4256,
      "duration": 0.0162,
      "velocity": 100,
      "chip": "ym2612"
    },
    {
      "channel": 0,
      "note": 77,
      "start": 51.4371,
      "duration": 0.0163,
      "velocity": 127,
      "chip": "ym2612"
    },
    {
      "channel": 2,
      "note": 73,
      "start": 51.4418,
      "duration": 0.0163,
      "velocity": 100,
      "chip": "ym2612"
    },
    {
      "channel": 0,
      "note": 76,
      "start": 51.4534,
      "duration": 0.0163,
      "velocity": 127,
      "chip": "ym2612"
    },
    {
      "channel": 2,
      "note": 73,
      "start": 51.4581,
      "duration": 0.0163,
      "velocity": 100,
      "chip": "ym2612"
    },
    {
      "channel": 0,
      "note": 74,
      "start": 51.4697,
      "duration": 0.0181,
      "velocity": 127,
      "chip": "ym2612"
    },
    {
      "channel": 2,
      "note": 73,
      "start": 51.4744,
      "duration": 0.0187,
      "velocity": 100,
      "chip": "ym2612"
    },
    {
      "channel": 0,
      "note": 78,
      "start": 51.4878,
      "duration": 0.0142,
      "velocity": 127,
      "chip": "ym2612"
    },
    {
      "channel": 3,
      "note": 76,
      "start": 51.4917,
      "duration": 0.014,
      "velocity": 110,
      "chip": "ym2612"
    },
    {
      "channel": 2,
      "note": 61,
      "start": 51.4932,
      "duration": 0.0137,
      "velocity": 100,
      "chip": "ym2612"
    },
    {
      "channel": 1,
      "note": 73,
      "start": 51.4947,
      "duration": 0.0135,
      "velocity": 110,
      "chip": "ym2612"
    },
    {
      "channel": 0,
      "note": 76,
      "start": 51.5021,
      "duration": 0.016,
      "velocity": 127,
      "chip": "ym2612"
    },
    {
      "channel": 3,
      "note": 76,
      "start": 51.5057,
      "duration": 0.016,
      "velocity": 110,
      "chip": "ym2612"
    },
    {
      "channel": 2,
      "note": 61,
      "start": 51.5069,
      "duration": 0.016,
      "velocity": 100,
      "chip": "ym2612"
    },
    {
      "channel": 1,
      "note": 73,
      "start": 51.5082,
      "duration": 0.0159,
      "velocity": 110,
      "chip": "ym2612"
    },
    {
      "channel": 0,
      "note": 75,
      "start": 51.5181,
      "duration": 0.0155,
      "velocity": 127,
      "chip": "ym2612"
    },
    {
      "channel": 3,
      "note": 76,
      "start": 51.5217,
      "duration": 0.0161,
      "velocity": 110,
      "chip": "ym2612"
    },
    {
      "channel": 2,
      "note": 61,
      "start": 51.5229,
      "duration": 0.0161,
      "velocity": 100,
      "chip": "ym2612"
    },
    {
      "channel": 1,
      "note": 73,
      "start": 51.524,
      "duration": 0.0161,
      "velocity": 110,
      "chip": "ym2612"
    },
    {
      "channel": 0,
      "note": 73,
      "start": 51.5336,
      "duration": 0.0161,
      "velocity": 127,
      "chip": "ym2612"
    },
    {
      "channel": 3,
      "note": 76,
      "start": 51.5378,
      "duration": 0.0161,
      "velocity": 110,
      "chip": "ym2612"
    },
    {
      "channel": 2,
      "note": 61,
      "start": 51.539,
      "duration": 0.0161,
      "velocity": 100,
      "chip": "ym2612"
    },
    {
      "channel": 1,
      "note": 73,
      "start": 51.5401,
      "duration": 0.0161,
      "velocity": 110,
      "chip": "ym2612"
    },
    {
      "channel": 0,
      "note": 71,
      "start": 51.5497,
      "duration": 0.0161,
      "velocity": 127,
      "chip": "ym2612"
    },
    {
      "channel": 3,
      "note": 76,
      "start": 51.5539,
      "duration": 0.0161,
      "velocity": 110,
      "chip": "ym2612"
    },
    {
      "channel": 2,
      "note": 61,
      "start": 51.5551,
      "duration": 0.0161,
      "velocity": 100,
      "chip": "ym2612"
    },
    {
      "channel": 1,
      "note": 73,
      "start": 51.5562,
      "duration": 0.0162,
      "velocity": 110,
      "chip": "ym2612"
    },
    {
      "channel": 0,
      "note": 70,
      "start": 51.5658,
      "duration": 0.0179,
      "velocity": 115,
      "chip": "ym2612"
    },
    {
      "channel": 3,
      "note": 76,
      "start": 51.57,
      "duration": 0.0179,
      "velocity": 110,
      "chip": "ym2612"
    },
    {
      "channel": 2,
      "note": 61,
      "start": 51.5712,
      "duration": 0.0179,
      "velocity": 100,
      "chip": "ym2612"
    },
    {
      "channel": 1,
      "note": 73,
      "start": 51.5724,
      "duration": 0.0179,
      "velocity": 110,
      "chip": "ym2612"
    },
    {
      "channel": 0,
      "note": 36,
      "start": 51.584,
      "duration": 0.0141,
      "velocity": 115,
      "chip": "ym2612"
    },
    {
      "channel": 3,
      "note": 76,
      "start": 51.588,
      "duration": 0.0143,
      "velocity": 110,
      "chip": "ym2612"
    },
    {
      "channel": 2,
      "note": 61,
      "start": 51.5891,
      "duration": 0.0143,
      "velocity": 100,
      "chip": "ym2612"
    },
    {
      "channel": 1,
      "note": 73,
      "start": 51.5902,
      "duration": 0.0144,
      "velocity": 110,
      "chip": "ym2612"
    },
    {
      "channel": 0,
      "note": 36,
      "start": 51.5981,
      "duration": 0.016,
      "velocity": 115,
      "chip": "ym2612"
    },
    {
      "channel": 2,
      "note": 61,
      "start": 51.6034,
      "duration": 0.016,
      "velocity": 100,
      "chip": "ym2612"
    },
    {
      "channel": 0,
      "note": 37,
      "start": 51.6142,
      "duration": 0.0161,
      "velocity": 115,
      "chip": "ym2612"
    },
    {
      "channel": 2,
      "note": 61,
      "start": 51.6195,
      "duration": 0.0161,
      "velocity": 100,
      "chip": "ym2612"
    },
    {
      "channel": 0,
      "note": 37,
      "start": 51.6303,
      "duration": 0.0161,
      "velocity": 115,
      "chip": "ym2612"
    },
    {
      "channel": 2,
      "note": 61,
      "start": 51.6356,
      "duration": 0.0161,
      "velocity": 100,
      "chip": "ym2612"
    },
    {
      "channel": 0,
      "note": 38,
      "start": 51.6463,
      "duration": 0.0161,
      "velocity": 115,
      "chip": "ym2612"
    },
    {
      "channel": 2,
      "note": 61,
      "start": 51.6516,
      "duration": 0.0157,
      "velocity": 100,
      "chip": "ym2612"
    },
    {
      "channel": 0,
      "note": 38,
      "start": 51.6624,
      "duration": 0.0161,
      "velocity": 115,
      "chip": "ym2612"
    },
    {
      "channel": 2,
      "note": 61,
      "start": 51.6673,
      "duration": 0.0159,
      "velocity": 100,
      "chip": "ym2612"
    },
    {
      "channel": 0,
      "note": 39,
      "start": 51.6785,
      "duration": 0.0179,
      "velocity": 124,
      "chip": "ym2612"
    },
    {
      "channel": 2,
      "note": 61,
      "start": 51.6833,
      "duration": 0.0193,
      "velocity": 100,
      "chip": "ym2612"
    },
    {
      "channel": 0,
      "note": 84,
      "start": 51.6966,
      "duration": 0.0142,
      "velocity": 124,
      "chip": "ym2612"
    },
    {
      "channel": 3,
      "note": 73,
      "start": 51.7007,
      "duration": 0.0137,
      "velocity": 110,
      "chip": "ym2612"
    },
    {
      "channel": 2,
      "note": 56,
      "start": 51.7025,
      "duration": 0.0131,
      "velocity": 100,
      "chip": "ym2612"
    },
    {
      "channel": 1,
      "note": 76,
      "start": 51.7041,
      "duration": 0.0128,
      "velocity": 110,
      "chip": "ym2612"
    },
    {
      "channel": 0,
      "note": 82,
      "start": 51.7108,
      "duration": 0.0161,
      "velocity": 124,
      "chip": "ym2612"
    },
    {
      "channel": 3,
      "note": 73,
      "start": 51.7144,
      "duration": 0.016,
      "velocity": 110,
      "chip": "ym2612"
    },
    {
      "channel": 2,
      "note": 56,
      "start": 51.7156,
      "duration": 0.016,
      "velocity": 100,
      "chip": "ym2612"
    },
    {
      "channel": 1,
      "note": 76,
      "start": 51.7169,
      "duration": 0.0158,
      "velocity": 110,
      "chip": "ym2612"
    },
    {
      "channel": 0,
      "note": 80,
      "start": 51.7269,
      "duration": 0.0161,
      "velocity": 124,
      "chip": "ym2612"
    },
    {
      "channel": 3,
      "note": 73,
      "start": 51.7305,
      "duration": 0.0161,
      "velocity": 110,
      "chip": "ym2612"
    },
    {
      "channel": 2,
      "note": 56,
      "start": 51.7316,
      "duration": 0.0161,
      "velocity": 100,
      "chip": "ym2612"
    },
    {
      "channel": 1,
      "note": 76,
      "start": 51.7327,
      "duration": 0.0161,
      "velocity": 110,
      "chip": "ym2612"
    },
    {
      "channel": 0,
      "note": 77,
      "start": 51.743,
      "duration": 0.0161,
      "velocity": 124,
      "chip": "ym2612"
    },
    {
      "channel": 3,
      "note": 73,
      "start": 51.7466,
      "duration": 0.0161,
      "velocity": 110,
      "chip": "ym2612"
    },
    {
      "channel": 2,
      "note": 56,
      "start": 51.7477,
      "duration": 0.0161,
      "velocity": 100,
      "chip": "ym2612"
    },
    {
      "channel": 1,
      "note": 76,
      "start": 51.7488,
      "duration": 0.0161,
      "velocity": 110,
      "chip": "ym2612"
    },
    {
      "channel": 0,
      "note": 75,
      "start": 51.7591,
      "duration": 0.0161,
      "velocity": 124,
      "chip": "ym2612"
    },
    {
      "channel": 3,
      "note": 73,
      "start": 51.7627,
      "duration": 0.0161,
      "velocity": 110,
      "chip": "ym2612"
    },
    {
      "channel": 2,
      "note": 56,
      "start": 51.7638,
      "duration": 0.0161,
      "velocity": 100,
      "chip": "ym2612"
    },
    {
      "channel": 1,
      "note": 76,
      "start": 51.7649,
      "duration": 0.0161,
      "velocity": 110,
      "chip": "ym2612"
    },
    {
      "channel": 0,
      "note": 72,
      "start": 51.7752,
      "duration": 0.0179,
      "velocity": 124,
      "chip": "ym2612"
    },
    {
      "channel": 3,
      "note": 73,
      "start": 51.7787,
      "duration": 0.0179,
      "velocity": 110,
      "chip": "ym2612"
    },
    {
      "channel": 2,
      "note": 56,
      "start": 51.7799,
      "duration": 0.0179,
      "velocity": 100,
      "chip": "ym2612"
    },
    {
      "channel": 1,
      "note": 76,
      "start": 51.7811,
      "duration": 0.0179,
      "velocity": 110,
      "chip": "ym2612"
    },
    {
      "channel": 0,
      "note": 84,
      "start": 51.7931,
      "duration": 0.0143,
      "velocity": 124,
      "chip": "ym2612"
    },
    {
      "channel": 3,
      "note": 73,
      "start": 51.7967,
      "duration": 0.0143,
      "velocity": 110,
      "chip": "ym2612"
    },
    {
      "channel": 2,
      "note": 56,
      "start": 51.7978,
      "duration": 0.0144,
      "velocity": 100,
      "chip": "ym2612"
    },
    {
      "channel": 1,
      "note": 76,
      "start": 51.799,
      "duration": 0.0143,
      "velocity": 110,
      "chip": "ym2612"
    },
    {
      "channel": 0,
      "note": 82,
      "start": 51.8074,
      "duration": 0.016,
      "velocity": 124,
      "chip": "ym2612"
    },
    {
      "channel": 2,
      "note": 56,
      "start": 51.8122,
      "duration": 0.016,
      "velocity": 100,
      "chip": "ym2612"
    },
    {
      "channel": 0,
      "note": 80,
      "start": 51.8235,
      "duration": 0.0161,
      "velocity": 124,
      "chip": "ym2612"
    },
    {
      "channel": 2,
      "note": 56,
      "start": 51.8282,
      "duration": 0.0161,
      "velocity": 100,
      "chip": "ym2612"
    },
    {
      "channel": 0,
      "note": 77,
      "start": 51.8395,
      "duration": 0.0162,
      "velocity": 124,
      "chip": "ym2612"
    },
    {
      "channel": 2,
      "note": 56,
      "start": 51.8443,
      "duration": 0.016,
      "velocity": 100,
      "chip": "ym2612"
    },
    {
      "channel": 0,
      "note": 75,
      "start": 51.8557,
      "duration": 0.0161,
      "velocity": 124,
      "chip": "ym2612"
    },
    {
      "channel": 2,
      "note": 56,
      "start": 51.8604,
      "duration": 0.0161,
      "velocity": 100,
      "chip": "ym2612"
    },
    {
      "channel": 0,
      "note": 72,
      "start": 51.8718,
      "duration": 0.0161,
      "velocity": 124,
      "chip": "ym2612"
    },
    {
      "channel": 2,
      "note": 56,
      "start": 51.8765,
      "duration": 0.016,
      "velocity": 100,
      "chip": "ym2612"
    },
    {
      "channel": 0,
      "note": 70,
      "start": 51.8879,
      "duration": 0.0179,
      "velocity": 115,
      "chip": "ym2612"
    },
    {
      "channel": 2,
      "note": 56,
      "start": 51.8925,
      "duration": 0.0192,
      "velocity": 100,
      "chip": "ym2612"
    },
    {
      "channel": 0,
      "note": 36,
      "start": 51.9058,
      "duration": 0.0144,
      "velocity": 115,
      "chip": "ym2612"
    },
    {
      "channel": 3,
      "note": 76,
      "start": 51.9102,
      "duration": 0.0138,
      "velocity": 110,
      "chip": "ym2612"
    },
    {
      "channel": 2,
      "note": 61,
      "start": 51.9117,
      "duration": 0.0135,
      "velocity": 100,
      "chip": "ym2612"
    },
    {
      "channel": 1,
      "note": 73,
      "start": 51.9132,
      "duration": 0.0132,
      "velocity": 110,
      "chip": "ym2612"
    },
    {
      "channel": 0,
      "note": 36,
      "start": 51.9202,
      "duration": 0.0163,
      "velocity": 115,
      "chip": "ym2612"
    },
    {
      "channel": 3,
      "note": 76,
      "start": 51.924,
      "duration": 0.0162,
      "velocity": 110,
      "chip": "ym2612"
    },
    {
      "channel": 2,
      "note": 61,
      "start": 51.9252,
      "duration": 0.0161,
      "velocity": 100,
      "chip": "ym2612"
    },
    {
      "channel": 1,
      "note": 73,
      "start": 51.9264,
      "duration": 0.0161,
      "velocity": 110,
      "chip": "ym2612"
    },
    {
      "channel": 0,
      "note": 37,
      "start": 51.9366,
      "duration": 0.0163,
      "velocity": 115,
      "chip": "ym2612"
    },
    {
      "channel": 3,
      "note": 76,
      "start": 51.9401,
      "duration": 0.0163,
      "velocity": 110,
      "chip": "ym2612"
    },
    {
      "channel": 2,
      "note": 61,
      "start": 51.9413,
      "duration": 0.0163,
      "velocity": 100,
      "chip": "ym2612"
    },
    {
      "channel": 1,
      "note": 73,
      "start": 51.9425,
      "duration": 0.0163,
      "velocity": 110,
      "chip": "ym2612"
    },
    {
      "channel": 0,
      "note": 37,
      "start": 51.9529,
      "duration": 0.0161,
      "velocity": 115,
      "chip": "ym2612"
    },
    {
      "channel": 3,
      "note": 76,
      "start": 51.9565,
      "duration": 0.0161,
      "velocity": 110,
      "chip": "ym2612"
    },
    {
      "channel": 2,
      "note": 61,
      "start": 51.9576,
      "duration": 0.0161,
      "velocity": 100,
      "chip": "ym2612"
    },
    {
      "channel": 1,
      "note": 73,
      "start": 51.9588,
      "duration": 0.016,
      "velocity": 110,
      "chip": "ym2612"
    },
    {
      "channel": 0,
      "note": 38,
      "start": 51.969,
      "duration": 0.016,
      "velocity": 115,
      "chip": "ym2612"
    },
    {
      "channel": 3,
      "note": 76,
      "start": 51.9726,
      "duration": 0.0161,
      "velocity": 110,
      "chip": "ym2612"
    },
    {
      "channel": 2,
      "note": 61,
      "start": 51.9737,
      "duration": 0.0161,
      "velocity": 100,
      "chip": "ym2612"
    },
    {
      "channel": 1,
      "note": 73,
      "start": 51.9749,
      "duration": 0.0161,
      "velocity": 110,
      "chip": "ym2612"
    },
    {
      "channel": 0,
      "note": 38,
      "start": 51.985,
      "duration": 0.0158,
      "velocity": 115,
      "chip": "ym2612"
    },
    {
      "channel": 3,
      "note": 76,
      "start": 51.9887,
      "duration": 0.0161,
      "velocity": 110,
      "chip": "ym2612"
    },
    {
      "channel": 2,
      "note": 61,
      "start": 51.9898,
      "duration": 0.0161,
      "velocity": 100,
      "chip": "ym2612"
    },
    {
      "channel": 1,
      "note": 73,
      "start": 51.991,
      "duration": 0.0161,
      "velocity": 110,
      "chip": "ym2612"
    },
    {
      "channel": 0,
      "note": 39,
      "start": 52.0008,
      "duration": 0.0158,
      "velocity": 115,
      "chip": "ym2612"
    },
    {
      "channel": 3,
      "note": 76,
      "start": 52.0048,
      "duration": 0.0161,
      "velocity": 110,
      "chip": "ym2612"
    },
    {
      "channel": 2,
      "note": 61,
      "start": 52.0059,
      "duration": 0.0161,
      "velocity": 100,
      "chip": "ym2612"
    },
    {
      "channel": 1,
      "note": 73,
      "start": 52.0071,
      "duration": 0.0161,
      "velocity": 110,
      "chip": "ym2612"
    },
    {
      "channel": 0,
      "note": 39,
      "start": 52.0166,
      "duration": 0.0162,
      "velocity": 115,
      "chip": "ym2612"
    },
    {
      "channel": 2,
      "note": 61,
      "start": 52.022,
      "duration": 0.0161,
      "velocity": 100,
      "chip": "ym2612"
    },
    {
      "channel": 0,
      "note": 40,
      "start": 52.0328,
      "duration": 0.0161,
      "velocity": 115,
      "chip": "ym2612"
    },
    {
      "channel": 2,
      "note": 61,
      "start": 52.0381,
      "duration": 0.0161,
      "velocity": 100,
      "chip": "ym2612"
    },
    {
      "channel": 0,
      "note": 40,
      "start": 52.0489,
      "duration": 0.0161,
      "velocity": 115,
      "chip": "ym2612"
    },
    {
      "channel": 2,
      "note": 61,
      "start": 52.0542,
      "duration": 0.0161,
      "velocity": 100,
      "chip": "ym2612"
    },
    {
      "channel": 0,
      "note": 40,
      "start": 52.065,
      "duration": 0.0161,
      "velocity": 115,
      "chip": "ym2612"
    },
    {
      "channel": 2,
      "note": 61,
      "start": 52.0703,
      "duration": 0.0162,
      "velocity": 100,
      "chip": "ym2612"
    },
    {
      "channel": 0,
      "note": 41,
      "start": 52.0811,
      "duration": 0.0161,
      "velocity": 115,
      "chip": "ym2612"
    },
    {
      "channel": 2,
      "note": 61,
      "start": 52.0864,
      "duration": 0.0161,
      "velocity": 100,
      "chip": "ym2612"
    },
    {
      "channel": 0,
      "note": 41,
      "start": 52.0972,
      "duration": 0.0161,
      "velocity": 115,
      "chip": "ym2612"
    },
    {
      "channel": 2,
      "note": 61,
      "start": 52.1025,
      "duration": 0.0167,
      "velocity": 100,
      "chip": "ym2612"
    },
    {
      "channel": 0,
      "note": 42,
      "start": 52.1133,
      "duration": 0.0161,
      "velocity": 115,
      "chip": "ym2612"
    },
    {
      "channel": 3,
      "note": 73,
      "start": 52.1176,
      "duration": 0.0154,
      "velocity": 110,
      "chip": "ym2612"
    },
    {
      "channel": 2,
      "note": 61,
      "start": 52.1192,
      "duration": 0.0155,
      "velocity": 100,
      "chip": "ym2612"
    },
    {
      "channel": 1,
      "note": 76,
      "start": 52.1209,
      "duration": 0.0151,
      "velocity": 110,
      "chip": "ym2612"
    },
    {
      "channel": 0,
      "note": 42,
      "start": 52.1294,
      "duration": 0.0161,
      "velocity": 115,
      "chip": "ym2612"
    },
    {
      "channel": 3,
      "note": 73,
      "start": 52.133,
      "duration": 0.016,
      "velocity": 110,
      "chip": "ym2612"
    },
    {
      "channel": 2,
      "note": 61,
      "start": 52.1347,
      "duration": 0.0155,
      "velocity": 100,
      "chip": "ym2612"
    },
    {
      "channel": 1,
      "note": 76,
      "start": 52.136,
      "duration": 0.0159,
      "velocity": 110,
      "chip": "ym2612"
    },
    {
      "channel": 0,
      "note": 43,
      "start": 52.1455,
      "duration": 0.0161,
      "velocity": 115,
      "chip": "ym2612"
    },
    {
      "channel": 3,
      "note": 73,
      "start": 52.149,
      "duration": 0.0161,
      "velocity": 110,
      "chip": "ym2612"
    },
    {
      "channel": 2,
      "note": 61,
      "start": 52.1502,
      "duration": 0.0161,
      "velocity": 100,
      "chip": "ym2612"
    },
    {
      "channel": 1,
      "note": 76,
      "start": 52.1519,
      "duration": 0.0161,
      "velocity": 110,
      "chip": "ym2612"
    },
    {
      "channel": 0,
      "note": 43,
      "start": 52.1616,
      "duration": 0.0161,
      "velocity": 115,
      "chip": "ym2612"
    },
    {
      "channel": 2,
      "note": 61,
      "start": 52.1663,
      "duration": 0.016,
      "velocity": 100,
      "chip": "ym2612"
    },
    {
      "channel": 0,
      "note": 44,
      "start": 52.1777,
      "duration": 0.0161,
      "velocity": 115,
      "chip": "ym2612"
    },
    {
      "channel": 2,
      "note": 61,
      "start": 52.1824,
      "duration": 0.0162,
      "velocity": 100,
      "chip": "ym2612"
    },
    {
      "channel": 0,
      "note": 44,
      "start": 52.1938,
      "duration": 0.0179,
      "velocity": 115,
      "chip": "ym2612"
    },
    {
      "channel": 2,
      "note": 61,
      "start": 52.1985,
      "duration": 0.0186,
      "velocity": 100,
      "chip": "ym2612"
    },
    {
      "channel": 0,
      "note": 36,
      "start": 52.2117,
      "duration": 0.0143,
      "velocity": 115,
      "chip": "ym2612"
    },
    {
      "channel": 3,
      "note": 73,
      "start": 52.2156,
      "duration": 0.0141,
      "velocity": 110,
      "chip": "ym2612"
    },
    {
      "channel": 2,
      "note": 61,
      "start": 52.2171,
      "duration": 0.0138,
      "velocity": 100,
      "chip": "ym2612"
    },
    {
      "channel": 1,
      "note": 76,
      "start": 52.2192,
      "duration": 0.0129,
      "velocity": 110,
      "chip": "ym2612"
    },
    {
      "channel": 0,
      "note": 36,
      "start": 52.2261,
      "duration": 0.016,
      "velocity": 115,
      "chip": "ym2612"
    },
    {
      "channel": 3,
      "note": 73,
      "start": 52.2297,
      "duration": 0.016,
      "velocity": 110,
      "chip": "ym2612"
    },
    {
      "channel": 2,
      "note": 61,
      "start": 52.2309,
      "duration": 0.0159,
      "velocity": 100,
      "chip": "ym2612"
    },
    {
      "channel": 1,
      "note": 76,
      "start": 52.2321,
      "duration": 0.0159,
      "velocity": 110,
      "chip": "ym2612"
    },
    {
      "channel": 0,
      "note": 37,
      "start": 52.2421,
      "duration": 0.0161,
      "velocity": 115,
      "chip": "ym2612"
    },
    {
      "channel": 3,
      "note": 73,
      "start": 52.2457,
      "duration": 0.0161,
      "velocity": 110,
      "chip": "ym2612"
    },
    {
      "channel": 2,
      "note": 61,
      "start": 52.2468,
      "duration": 0.0161,
      "velocity": 100,
      "chip": "ym2612"
    },
    {
      "channel": 1,
      "note": 76,
      "start": 52.248,
      "duration": 0.0161,
      "velocity": 110,
      "chip": "ym2612"
    },
    {
      "channel": 0,
      "note": 37,
      "start": 52.2582,
      "duration": 0.0161,
      "velocity": 115,
      "chip": "ym2612"
    },
    {
      "channel": 3,
      "note": 73,
      "start": 52.2617,
      "duration": 0.0161,
      "velocity": 110,
      "chip": "ym2612"
    },
    {
      "channel": 2,
      "note": 61,
      "start": 52.2629,
      "duration": 0.0161,
      "velocity": 100,
      "chip": "ym2612"
    },
    {
      "channel": 1,
      "note": 76,
      "start": 52.2641,
      "duration": 0.0161,
      "velocity": 110,
      "chip": "ym2612"
    },
    {
      "channel": 0,
      "note": 38,
      "start": 52.2743,
      "duration": 0.0161,
      "velocity": 115,
      "chip": "ym2612"
    },
    {
      "channel": 2,
      "note": 61,
      "start": 52.279,
      "duration": 0.016,
      "velocity": 100,
      "chip": "ym2612"
    },
    {
      "channel": 0,
      "note": 38,
      "start": 52.2904,
      "duration": 0.0161,
      "velocity": 115,
      "chip": "ym2612"
    },
    {
      "channel": 2,
      "note": 61,
      "start": 52.2951,
      "duration": 0.0161,
      "velocity": 100,
      "chip": "ym2612"
    },
    {
      "channel": 0,
      "note": 39,
      "start": 52.3065,
      "duration": 0.018,
      "velocity": 124,
      "chip": "ym2612"
    },
    {
      "channel": 2,
      "note": 61,
      "start": 52.3112,
      "duration": 0.0184,
      "velocity": 100,
      "chip": "ym2612"
    },
    {
      "channel": 0,
      "note": 84,
      "start": 52.3245,
      "duration": 0.0143,
      "velocity": 124,
      "chip": "ym2612"
    },
    {
      "channel": 3,
      "note": 76,
      "start": 52.3284,
      "duration": 0.014,
      "velocity": 110,
      "chip": "ym2612"
    },
    {
      "channel": 2,
      "note": 61,
      "start": 52.3296,
      "duration": 0.0141,
      "velocity": 100,
      "chip": "ym2612"
    },
    {
      "channel": 1,
      "note": 73,
      "start": 52.3311,
      "duration": 0.0137,
      "velocity": 110,
      "chip": "ym2612"
    },
    {
      "channel": 0,
      "note": 82,
      "start": 52.3388,
      "duration": 0.016,
      "velocity": 124,
      "chip": "ym2612"
    },
    {
      "channel": 3,
      "note": 76,
      "start": 52.3424,
      "duration": 0.016,
      "velocity": 110,
      "chip": "ym2612"
    },
    {
      "channel": 2,
      "note": 61,
      "start": 52.3436,
      "duration": 0.016,
      "velocity": 100,
      "chip": "ym2612"
    },
    {
      "channel": 1,
      "note": 73,
      "start": 52.3448,
      "duration": 0.0159,
      "velocity": 110,
      "chip": "ym2612"
    },
    {
      "channel": 0,
      "note": 80,
      "start": 52.3548,
      "duration": 0.0161,
      "velocity": 124,
      "chip": "ym2612"
    },
    {
      "channel": 3,
      "note": 76,
      "start": 52.3584,
      "duration": 0.0161,
      "velocity": 110,
      "chip": "ym2612"
    },
    {
      "channel": 2,
      "note": 61,
      "start": 52.3596,
      "duration": 0.016,
      "velocity": 100,
      "chip": "ym2612"
    },
    {
      "channel": 1,
      "note": 73,
      "start": 52.3607,
      "duration": 0.0161,
      "velocity": 110,
      "chip": "ym2612"
    },
    {
      "channel": 0,
      "note": 77,
      "start": 52.3709,
      "duration": 0.0162,
      "velocity": 124,
      "chip": "ym2612"
    },
    {
      "channel": 2,
      "note": 61,
      "start": 52.3756,
      "duration": 0.0161,
      "velocity": 100,
      "chip": "ym2612"
    },
    {
      "channel": 0,
      "note": 75,
      "start": 52.3871,
      "duration": 0.0163,
      "velocity": 124,
      "chip": "ym2612"
    },
    {
      "channel": 2,
      "note": 61,
      "start": 52.3918,
      "duration": 0.0163,
      "velocity": 100,
      "chip": "ym2612"
    },
    {
      "channel": 0,
      "note": 72,
      "start": 52.4034,
      "duration": 0.0163,
      "velocity": 124,
      "chip": "ym2612"
    },
    {
      "channel": 2,
      "note": 61,
      "start": 52.4081,
      "duration": 0.0168,
      "velocity": 100,
      "chip": "ym2612"
    },
    {
      "channel": 0,
      "note": 70,
      "start": 52.4198,
      "duration": 0.0161,
      "velocity": 124,
      "chip": "ym2612"
    },
    {
      "channel": 3,
      "note": 76,
      "start": 52.4236,
      "duration": 0.0159,
      "velocity": 110,
      "chip": "ym2612"
    },
    {
      "channel": 2,
      "note": 61,
      "start": 52.4249,
      "duration": 0.0159,
      "velocity": 100,
      "chip": "ym2612"
    },
    {
      "channel": 1,
      "note": 73,
      "start": 52.4264,
      "duration": 0.0156,
      "velocity": 110,
      "chip": "ym2612"
    },
    {
      "channel": 0,
      "note": 68,
      "start": 52.4359,
      "duration": 0.016,
      "velocity": 124,
      "chip": "ym2612"
    },
    {
      "channel": 3,
      "note": 76,
      "start": 52.4395,
      "duration": 0.0161,
      "velocity": 110,
      "chip": "ym2612"
    },
    {
      "channel": 2,
      "note": 61,
      "start": 52.4408,
      "duration": 0.016,
      "velocity": 100,
      "chip": "ym2612"
    },
    {
      "channel": 1,
      "note": 73,
      "start": 52.442,
      "duration": 0.016,
      "velocity": 110,
      "chip": "ym2612"
    },
    {
      "channel": 0,
      "note": 65,
      "start": 52.452,
      "duration": 0.0158,
      "velocity": 124,
      "chip": "ym2612"
    },
    {
      "channel": 3,
      "note": 76,
      "start": 52.4556,
      "duration": 0.0161,
      "velocity": 110,
      "chip": "ym2612"
    },
    {
      "channel": 2,
      "note": 61,
      "start": 52.4568,
      "duration": 0.0161,
      "velocity": 100,
      "chip": "ym2612"
    },
    {
      "channel": 1,
      "note": 73,
      "start": 52.4579,
      "duration": 0.0162,
      "velocity": 110,
      "chip": "ym2612"
    },
    {
      "channel": 0,
      "note": 63,
      "start": 52.4677,
      "duration": 0.0151,
      "velocity": 1,
      "chip": "ym2612"
    },
    {
      "channel": 3,
      "note": 76,
      "start": 52.4717,
      "duration": 0.0153,
      "velocity": 110,
      "chip": "ym2612"
    },
    {
      "channel": 2,
      "note": 61,
      "start": 52.4729,
      "duration": 0.0153,
      "velocity": 100,
      "chip": "ym2612"
    },
    {
      "channel": 1,
      "note": 73,
      "start": 52.4741,
      "duration": 0.0153,
      "velocity": 110,
      "chip": "ym2612"
    },
    {
      "channel": 2,
      "note": 61,
      "start": 52.4882,
      "duration": 0.0152,
      "velocity": 100,
      "chip": "ym2612"
    },
    {
      "channel": 2,
      "note": 61,
      "start": 52.5034,
      "duration": 0.0161,
      "velocity": 100,
      "chip": "ym2612"
    },
    {
      "channel": 2,
      "note": 61,
      "start": 52.5195,
      "duration": 0.0202,
      "velocity": 100,
      "chip": "ym2612"
    },
    {
      "channel": 0,
      "note": 36,
      "start": 52.5338,
      "duration": 0.0143,
      "velocity": 115,
      "chip": "ym2612"
    },
    {
      "channel": 3,
      "note": 73,
      "start": 52.5383,
      "duration": 0.014,
      "velocity": 110,
      "chip": "ym2612"
    },
    {
      "channel": 2,
      "note": 56,
      "start": 52.5398,
      "duration": 0.0137,
      "velocity": 100,
      "chip": "ym2612"
    },
    {
      "channel": 1,
      "note": 76,
      "start": 52.5413,
      "duration": 0.0134,
      "velocity": 110,
      "chip": "ym2612"
    },
    {
      "channel": 0,
      "note": 36,
      "start": 52.5481,
      "duration": 0.016,
      "velocity": 115,
      "chip": "ym2612"
    },
    {
      "channel": 3,
      "note": 73,
      "start": 52.5523,
      "duration": 0.0159,
      "velocity": 110,
      "chip": "ym2612"
    },
    {
      "channel": 2,
      "note": 56,
      "start": 52.5535,
      "duration": 0.0159,
      "velocity": 100,
      "chip": "ym2612"
    },
    {
      "channel": 1,
      "note": 76,
      "start": 52.5548,
      "duration": 0.0158,
      "velocity": 110,
      "chip": "ym2612"
    },
    {
      "channel": 0,
      "note": 37,
      "start": 52.5641,
      "duration": 0.0161,
      "velocity": 115,
      "chip": "ym2612"
    },
    {
      "channel": 3,
      "note": 73,
      "start": 52.5682,
      "duration": 0.0155,
      "velocity": 110,
      "chip": "ym2612"
    },
    {
      "channel": 2,
      "note": 56,
      "start": 52.5695,
      "duration": 0.016,
      "velocity": 100,
      "chip": "ym2612"
    },
    {
      "channel": 1,
      "note": 76,
      "start": 52.5706,
      "duration": 0.0161,
      "velocity": 110,
      "chip": "ym2612"
    },
    {
      "channel": 0,
      "note": 37,
      "start": 52.5802,
      "duration": 0.0161,
      "velocity": 115,
      "chip": "ym2612"
    },
    {
      "channel": 3,
      "note": 73,
      "start": 52.5838,
      "duration": 0.0162,
      "velocity": 110,
      "chip": "ym2612"
    },
    {
      "channel": 2,
      "note": 56,
      "start": 52.5855,
      "duration": 0.0161,
      "velocity": 100,
      "chip": "ym2612"
    },
    {
      "channel": 1,
      "note": 76,
      "start": 52.5867,
      "duration": 0.0162,
      "velocity": 110,
      "chip": "ym2612"
    },
    {
      "channel": 0,
      "note": 38,
      "start": 52.5963,
      "duration": 0.0161,
      "velocity": 115,
      "chip": "ym2612"
    },
    {
      "channel": 3,
      "note": 73,
      "start": 52.5999,
      "duration": 0.016,
      "velocity": 110,
      "chip": "ym2612"
    },
    {
      "channel": 2,
      "note": 56,
      "start": 52.6016,
      "duration": 0.0155,
      "velocity": 100,
      "chip": "ym2612"
    },
    {
      "channel": 1,
      "note": 76,
      "start": 52.6029,
      "duration": 0.016,
      "velocity": 110,
      "chip": "ym2612"
    },
    {
      "channel": 0,
      "note": 38,
      "start": 52.6124,
      "duration": 0.0179,
      "velocity": 115,
      "chip": "ym2612"
    },
    {
      "channel": 3,
      "note": 73,
      "start": 52.6159,
      "duration": 0.0182,
      "velocity": 110,
      "chip": "ym2612"
    },
    {
      "channel": 2,
      "note": 56,
      "start": 52.6171,
      "duration": 0.0188,
      "velocity": 100,
      "chip": "ym2612"
    },
    {
      "channel": 1,
      "note": 76,
      "start": 52.6189,
      "duration": 0.0183,
      "velocity": 110,
      "chip": "ym2612"
    },
    {
      "channel": 0,
      "note": 36,
      "start": 52.6304,
      "duration": 0.0143,
      "velocity": 115,
      "chip": "ym2612"
    },
    {
      "channel": 3,
      "note": 73,
      "start": 52.6341,
      "duration": 0.0141,
      "velocity": 110,
      "chip": "ym2612"
    },
    {
      "channel": 2,
      "note": 59,
      "start": 52.636,
      "duration": 0.0135,
      "velocity": 100,
      "chip": "ym2612"
    },
    {
      "channel": 1,
      "note": 76,
      "start": 52.6371,
      "duration": 0.0137,
      "velocity": 110,
      "chip": "ym2612"
    },
    {
      "channel": 0,
      "note": 36,
      "start": 52.6447,
      "duration": 0.016,
      "velocity": 115,
      "chip": "ym2612"
    },
    {
      "channel": 2,
      "note": 59,
      "start": 52.6495,
      "duration": 0.016,
      "velocity": 100,
      "chip": "ym2612"
    },
    {
      "channel": 0,
      "note": 37,
      "start": 52.6607,
      "duration": 0.0161,
      "velocity": 115,
      "chip": "ym2612"
    },
    {
      "channel": 2,
      "note": 59,
      "start": 52.6654,
      "duration": 0.0161,
      "velocity": 100,
      "chip": "ym2612"
    },
    {
      "channel": 0,
      "note": 37,
      "start": 52.6768,
      "duration": 0.0161,
      "velocity": 115,
      "chip": "ym2612"
    },
    {
      "channel": 2,
      "note": 59,
      "start": 52.6815,
      "duration": 0.0161,
      "velocity": 100,
      "chip": "ym2612"
    },
    {
      "channel": 0,
      "note": 38,
      "start": 52.6929,
      "duration": 0.0161,
      "velocity": 115,
      "chip": "ym2612"
    },
    {
      "channel": 2,
      "note": 59,
      "start": 52.6976,
      "duration": 0.0161,
      "velocity": 100,
      "chip": "ym2612"
    },
    {
      "channel": 0,
      "note": 38,
      "start": 52.709,
      "duration": 0.0161,
      "velocity": 115,
      "chip": "ym2612"
    },
    {
      "channel": 2,
      "note": 59,
      "start": 52.7137,
      "duration": 0.0162,
      "velocity": 100,
      "chip": "ym2612"
    },
    {
      "channel": 0,
      "note": 39,
      "start": 52.7251,
      "duration": 0.018,
      "velocity": 115,
      "chip": "ym2612"
    },
    {
      "channel": 2,
      "note": 59,
      "start": 52.7299,
      "duration": 0.0185,
      "velocity": 100,
      "chip": "ym2612"
    },
    {
      "channel": 0,
      "note": 36,
      "start": 52.7431,
      "duration": 0.0143,
      "velocity": 115,
      "chip": "ym2612"
    },
    {
      "channel": 3,
      "note": 76,
      "start": 52.747,
      "duration": 0.014,
      "velocity": 110,
      "chip": "ym2612"
    },
    {
      "channel": 2,
      "note": 61,
      "start": 52.7485,
      "duration": 0.0137,
      "velocity": 100,
      "chip": "ym2612"
    },
    {
      "channel": 1,
      "note": 73,
      "start": 52.75,
      "duration": 0.0135,
      "velocity": 110,
      "chip": "ym2612"
    },
    {
      "channel": 0,
      "note": 36,
      "start": 52.7574,
      "duration": 0.0161,
      "velocity": 115,
      "chip": "ym2612"
    },
    {
      "channel": 3,
      "note": 76,
      "start": 52.761,
      "duration": 0.016,
      "velocity": 110,
      "chip": "ym2612"
    },
    {
      "channel": 2,
      "note": 61,
      "start": 52.7622,
      "duration": 0.016,
      "velocity": 100,
      "chip": "ym2612"
    },
    {
      "channel": 1,
      "note": 73,
      "start": 52.7635,
      "duration": 0.0159,
      "velocity": 110,
      "chip": "ym2612"
    },
    {
      "channel": 0,
      "note": 37,
      "start": 52.7735,
      "duration": 0.0161,
      "velocity": 115,
      "chip": "ym2612"
    },
    {
      "channel": 3,
      "note": 76,
      "start": 52.777,
      "duration": 0.0161,
      "velocity": 110,
      "chip": "ym2612"
    },
    {
      "channel": 2,
      "note": 61,
      "start": 52.7782,
      "duration": 0.0161,
      "velocity": 100,
      "chip": "ym2612"
    },
    {
      "channel": 1,
      "note": 73,
      "start": 52.7793,
      "duration": 0.0161,
      "velocity": 110,
      "chip": "ym2612"
    },
    {
      "channel": 0,
      "note": 37,
      "start": 52.7895,
      "duration": 0.0161,
      "velocity": 115,
      "chip": "ym2612"
    },
    {
      "channel": 3,
      "note": 76,
      "start": 52.7931,
      "duration": 0.0161,
      "velocity": 110,
      "chip": "ym2612"
    },
    {
      "channel": 2,
      "note": 61,
      "start": 52.7943,
      "duration": 0.0161,
      "velocity": 100,
      "chip": "ym2612"
    },
    {
      "channel": 1,
      "note": 73,
      "start": 52.7954,
      "duration": 0.0161,
      "velocity": 110,
      "chip": "ym2612"
    },
    {
      "channel": 0,
      "note": 38,
      "start": 52.8056,
      "duration": 0.0161,
      "velocity": 115,
      "chip": "ym2612"
    },
    {
      "channel": 3,
      "note": 76,
      "start": 52.8092,
      "duration": 0.0161,
      "velocity": 110,
      "chip": "ym2612"
    },
    {
      "channel": 2,
      "note": 61,
      "start": 52.8104,
      "duration": 0.0161,
      "velocity": 100,
      "chip": "ym2612"
    },
    {
      "channel": 1,
      "note": 73,
      "start": 52.8115,
      "duration": 0.0162,
      "velocity": 110,
      "chip": "ym2612"
    },
    {
      "channel": 0,
      "note": 38,
      "start": 52.8217,
      "duration": 0.0179,
      "velocity": 127,
      "chip": "ym2612"
    },
    {
      "channel": 3,
      "note": 76,
      "start": 52.8253,
      "duration": 0.0179,
      "velocity": 110,
      "chip": "ym2612"
    },
    {
      "channel": 2,
      "note": 61,
      "start": 52.8264,
      "duration": 0.0182,
      "velocity": 100,
      "chip": "ym2612"
    },
    {
      "channel": 1,
      "note": 73,
      "start": 52.8277,
      "duration": 0.0182,
      "velocity": 110,
      "chip": "ym2612"
    },
    {
      "channel": 0,
      "note": 88,
      "start": 52.8397,
      "duration": 0.0144,
      "velocity": 127,
      "chip": "ym2612"
    },
    {
      "channel": 3,
      "note": 76,
      "start": 52.8432,
      "duration": 0.0144,
      "velocity": 110,
      "chip": "ym2612"
    },
    {
      "channel": 2,
      "note": 73,
      "start": 52.8447,
      "duration": 0.0142,
      "velocity": 100,
      "chip": "ym2612"
    },
    {
      "channel": 1,
      "note": 73,
      "start": 52.8459,
      "duration": 0.0142,
      "velocity": 110,
      "chip": "ym2612"
    },
    {
      "channel": 0,
      "note": 86,
      "start": 52.8541,
      "duration": 0.0161,
      "velocity": 127,
      "chip": "ym2612"
    },
    {
      "channel": 2,
      "note": 73,
      "start": 52.8589,
      "duration": 0.016,
      "velocity": 100,
      "chip": "ym2612"
    },
    {
      "channel": 0,
      "note": 85,
      "start": 52.8702,
      "duration": 0.0163,
      "velocity": 127,
      "chip": "ym2612"
    },
    {
      "channel": 2,
      "note": 73,
      "start": 52.8749,
      "duration": 0.0163,
      "velocity": 100,
      "chip": "ym2612"
    },
    {
      "channel": 0,
      "note": 83,
      "start": 52.8865,
      "duration": 0.0163,
      "velocity": 127,
      "chip": "ym2612"
    },
    {
      "channel": 2,
      "note": 73,
      "start": 52.8912,
      "duration": 0.0163,
      "velocity": 100,
      "chip": "ym2612"
    },
    {
      "channel": 0,
      "note": 81,
      "start": 52.9029,
      "duration": 0.0161,
      "velocity": 127,
      "chip": "ym2612"
    },
    {
      "channel": 2,
      "note": 73,
      "start": 52.9076,
      "duration": 0.0161,
      "velocity": 100,
      "chip": "ym2612"
    },
    {
      "channel": 0,
      "note": 80,
      "start": 52.9189,
      "duration": 0.016,
      "velocity": 127,
      "chip": "ym2612"
    },
    {
      "channel": 2,
      "note": 73,
      "start": 52.9237,
      "duration": 0.0161,
      "velocity": 100,
      "chip": "ym2612"
    },
    {
      "channel": 0,
      "note": 78,
      "start": 52.935,
      "duration": 0.0156,
      "velocity": 127,
      "chip": "ym2612"
    },
    {
      "channel": 2,
      "note": 73,
      "start": 52.9398,
      "duration": 0.0167,
      "velocity": 100,
      "chip": "ym2612"
    },
    {
      "channel": 0,
      "note": 76,
      "start": 52.9506,
      "duration": 0.0161,
      "velocity": 127,
      "chip": "ym2612"
    },
    {
      "channel": 3,
      "note": 73,
      "start": 52.9551,
      "duration": 0.0158,
      "velocity": 110,
      "chip": "ym2612"
    },
    {
      "channel": 2,
      "note": 61,
      "start": 52.9565,
      "duration": 0.0155,
      "velocity": 100,
      "chip": "ym2612"
    },
    {
      "channel": 1,
      "note": 76,
      "start": 52.9581,
      "duration": 0.0151,
      "velocity": 110,
      "chip": "ym2612"
    },
    {
      "channel": 0,
      "note": 75,
      "start": 52.9666,
      "duration": 0.0161,
      "velocity": 127,
      "chip": "ym2612"
    },
    {
      "channel": 3,
      "note": 73,
      "start": 52.9708,
      "duration": 0.0161,
      "velocity": 110,
      "chip": "ym2612"
    },
    {
      "channel": 2,
      "note": 61,
      "start": 52.9721,
      "duration": 0.016,
      "velocity": 100,
      "chip": "ym2612"
    },
    {
      "channel": 1,
      "note": 76,
      "start": 52.9733,
      "duration": 0.016,
      "velocity": 110,
      "chip": "ym2612"
    },
    {
      "channel": 0,
      "note": 73,
      "start": 52.9827,
      "duration": 0.0161,
      "velocity": 127,
      "chip": "ym2612"
    },
    {
      "channel": 3,
      "note": 73,
      "start": 52.9869,
      "duration": 0.0161,
      "velocity": 110,
      "chip": "ym2612"
    },
    {
      "channel": 2,
      "note": 61,
      "start": 52.9881,
      "duration": 0.0161,
      "velocity": 100,
      "chip": "ym2612"
    },
    {
      "channel": 1,
      "note": 76,
      "start": 52.9892,
      "duration": 0.0161,
      "velocity": 110,
      "chip": "ym2612"
    },
    {
      "channel": 0,
      "note": 71,
      "start": 52.9988,
      "duration": 0.0161,
      "velocity": 127,
      "chip": "ym2612"
    },
    {
      "channel": 3,
      "note": 73,
      "start": 53.003,
      "duration": 0.0161,
      "velocity": 110,
      "chip": "ym2612"
    },
    {
      "channel": 2,
      "note": 61,
      "start": 53.0042,
      "duration": 0.0161,
      "velocity": 100,
      "chip": "ym2612"
    },
    {
      "channel": 1,
      "note": 76,
      "start": 53.0053,
      "duration": 0.0161,
      "velocity": 110,
      "chip": "ym2612"
    },
    {
      "channel": 0,
      "note": 69,
      "start": 53.0149,
      "duration": 0.0161,
      "velocity": 127,
      "chip": "ym2612"
    },
    {
      "channel": 3,
      "note": 73,
      "start": 53.0191,
      "duration": 0.016,
      "velocity": 110,
      "chip": "ym2612"
    },
    {
      "channel": 2,
      "note": 61,
      "start": 53.0203,
      "duration": 0.0161,
      "velocity": 100,
      "chip": "ym2612"
    },
    {
      "channel": 1,
      "note": 76,
      "start": 53.0214,
      "duration": 0.0161,
      "velocity": 110,
      "chip": "ym2612"
    },
    {
      "channel": 0,
      "note": 68,
      "start": 53.031,
      "duration": 0.018,
      "velocity": 127,
      "chip": "ym2612"
    },
    {
      "channel": 3,
      "note": 73,
      "start": 53.0352,
      "duration": 0.018,
      "velocity": 110,
      "chip": "ym2612"
    },
    {
      "channel": 2,
      "note": 61,
      "start": 53.0364,
      "duration": 0.0183,
      "velocity": 100,
      "chip": "ym2612"
    },
    {
      "channel": 1,
      "note": 76,
      "start": 53.0375,
      "duration": 0.0183,
      "velocity": 110,
      "chip": "ym2612"
    },
    {
      "channel": 0,
      "note": 84,
      "start": 53.049,
      "duration": 0.0143,
      "velocity": 127,
      "chip": "ym2612"
    },
    {
      "channel": 3,
      "note": 73,
      "start": 53.0532,
      "duration": 0.0136,
      "velocity": 110,
      "chip": "ym2612"
    },
    {
      "channel": 2,
      "note": 73,
      "start": 53.0546,
      "duration": 0.014,
      "velocity": 100,
      "chip": "ym2612"
    },
    {
      "channel": 1,
      "note": 76,
      "start": 53.0558,
      "duration": 0.014,
      "velocity": 110,
      "chip": "ym2612"
    },
    {
      "channel": 0,
      "note": 82,
      "start": 53.0633,
      "duration": 0.0161,
      "velocity": 127,
      "chip": "ym2612"
    },
    {
      "channel": 2,
      "note": 73,
      "start": 53.0686,
      "duration": 0.0156,
      "velocity": 100,
      "chip": "ym2612"
    },
    {
      "channel": 0,
      "note": 81,
      "start": 53.0794,
      "duration": 0.0161,
      "velocity": 127,
      "chip": "ym2612"
    },
    {
      "channel": 2,
      "note": 73,
      "start": 53.0843,
      "duration": 0.0159,
      "velocity": 100,
      "chip": "ym2612"
    },
    {
      "channel": 0,
      "note": 79,
      "start": 53.0955,
      "duration": 0.0161,
      "velocity": 127,
      "chip": "ym2612"
    },
    {
      "channel": 2,
      "note": 73,
      "start": 53.1002,
      "duration": 0.0161,
      "velocity": 100,
      "chip": "ym2612"
    },
    {
      "channel": 0,
      "note": 77,
      "start": 53.1116,
      "duration": 0.0161,
      "velocity": 127,
      "chip": "ym2612"
    },
    {
      "channel": 2,
      "note": 73,
      "start": 53.1163,
      "duration": 0.0161,
      "velocity": 100,
      "chip": "ym2612"
    },
    {
      "channel": 0,
      "note": 76,
      "start": 53.1277,
      "duration": 0.0161,
      "velocity": 127,
      "chip": "ym2612"
    },
    {
      "channel": 2,
      "note": 73,
      "start": 53.1324,
      "duration": 0.0161,
      "velocity": 100,
      "chip": "ym2612"
    },
    {
      "channel": 0,
      "note": 74,
      "start": 53.1437,
      "duration": 0.018,
      "velocity": 127,
      "chip": "ym2612"
    },
    {
      "channel": 2,
      "note": 73,
      "start": 53.1485,
      "duration": 0.0186,
      "velocity": 100,
      "chip": "ym2612"
    },
    {
      "channel": 0,
      "note": 78,
      "start": 53.1617,
      "duration": 0.0143,
      "velocity": 127,
      "chip": "ym2612"
    },
    {
      "channel": 3,
      "note": 76,
      "start": 53.1656,
      "duration": 0.014,
      "velocity": 110,
      "chip": "ym2612"
    },
    {
      "channel": 2,
      "note": 56,
      "start": 53.1671,
      "duration": 0.0137,
      "velocity": 100,
      "chip": "ym2612"
    },
    {
      "channel": 1,
      "note": 73,
      "start": 53.1692,
      "duration": 0.0129,
      "velocity": 110,
      "chip": "ym2612"
    },
    {
      "channel": 0,
      "note": 76,
      "start": 53.176,
      "duration": 0.016,
      "velocity": 127,
      "chip": "ym2612"
    },
    {
      "channel": 3,
      "note": 76,
      "start": 53.1796,
      "duration": 0.016,
      "velocity": 110,
      "chip": "ym2612"
    },
    {
      "channel": 2,
      "note": 56,
      "start": 53.1808,
      "duration": 0.0159,
      "velocity": 100,
      "chip": "ym2612"
    },
    {
      "channel": 1,
      "note": 73,
      "start": 53.1821,
      "duration": 0.0159,
      "velocity": 110,
      "chip": "ym2612"
    },
    {
      "channel": 0,
      "note": 75,
      "start": 53.192,
      "duration": 0.0161,
      "velocity": 127,
      "chip": "ym2612"
    },
    {
      "channel": 3,
      "note": 76,
      "start": 53.1956,
      "duration": 0.0161,
      "velocity": 110,
      "chip": "ym2612"
    },
    {
      "channel": 2,
      "note": 56,
      "start": 53.1967,
      "duration": 0.0161,
      "velocity": 100,
      "chip": "ym2612"
    },
    {
      "channel": 1,
      "note": 73,
      "start": 53.198,
      "duration": 0.0161,
      "velocity": 110,
      "chip": "ym2612"
    },
    {
      "channel": 0,
      "note": 73,
      "start": 53.2081,
      "duration": 0.0162,
      "velocity": 127,
      "chip": "ym2612"
    },
    {
      "channel": 3,
      "note": 76,
      "start": 53.2117,
      "duration": 0.0161,
      "velocity": 110,
      "chip": "ym2612"
    },
    {
      "channel": 2,
      "note": 56,
      "start": 53.2128,
      "duration": 0.0162,
      "velocity": 100,
      "chip": "ym2612"
    },
    {
      "channel": 1,
      "note": 73,
      "start": 53.214,
      "duration": 0.0161,
      "velocity": 110,
      "chip": "ym2612"
    },
    {
      "channel": 0,
      "note": 71,
      "start": 53.2243,
      "duration": 0.0161,
      "velocity": 127,
      "chip": "ym2612"
    },
    {
      "channel": 3,
      "note": 76,
      "start": 53.2278,
      "duration": 0.0161,
      "velocity": 110,
      "chip": "ym2612"
    },
    {
      "channel": 2,
      "note": 56,
      "start": 53.229,
      "duration": 0.0161,
      "velocity": 100,
      "chip": "ym2612"
    },
    {
      "channel": 1,
      "note": 73,
      "start": 53.2301,
      "duration": 0.0162,
      "velocity": 110,
      "chip": "ym2612"
    },
    {
      "channel": 0,
      "note": 70,
      "start": 53.2404,
      "duration": 0.0179,
      "velocity": 115,
      "chip": "ym2612"
    },
    {
      "channel": 3,
      "note": 76,
      "start": 53.2439,
      "duration": 0.0179,
      "velocity": 110,
      "chip": "ym2612"
    },
    {
      "channel": 2,
      "note": 56,
      "start": 53.2451,
      "duration": 0.0179,
      "velocity": 100,
      "chip": "ym2612"
    },
    {
      "channel": 1,
      "note": 73,
      "start": 53.2463,
      "duration": 0.0179,
      "velocity": 110,
      "chip": "ym2612"
    },
    {
      "channel": 0,
      "note": 36,
      "start": 53.2583,
      "duration": 0.0143,
      "velocity": 115,
      "chip": "ym2612"
    },
    {
      "channel": 3,
      "note": 76,
      "start": 53.2619,
      "duration": 0.0143,
      "velocity": 110,
      "chip": "ym2612"
    },
    {
      "channel": 2,
      "note": 56,
      "start": 53.263,
      "duration": 0.0143,
      "velocity": 100,
      "chip": "ym2612"
    },
    {
      "channel": 1,
      "note": 73,
      "start": 53.2642,
      "duration": 0.0144,
      "velocity": 110,
      "chip": "ym2612"
    },
    {
      "channel": 0,
      "note": 36,
      "start": 53.2726,
      "duration": 0.016,
      "velocity": 115,
      "chip": "ym2612"
    },
    {
      "channel": 2,
      "note": 56,
      "start": 53.2773,
      "duration": 0.016,
      "velocity": 100,
      "chip": "ym2612"
    },
    {
      "channel": 0,
      "note": 37,
      "start": 53.2887,
      "duration": 0.0161,
      "velocity": 115,
      "chip": "ym2612"
    },
    {
      "channel": 2,
      "note": 56,
      "start": 53.2934,
      "duration": 0.0161,
      "velocity": 100,
      "chip": "ym2612"
    },
    {
      "channel": 0,
      "note": 37,
      "start": 53.3048,
      "duration": 0.0161,
      "velocity": 115,
      "chip": "ym2612"
    },
    {
      "channel": 2,
      "note": 56,
      "start": 53.3095,
      "duration": 0.0162,
      "velocity": 100,
      "chip": "ym2612"
    },
    {
      "channel": 0,
      "note": 38,
      "start": 53.3209,
      "duration": 0.0161,
      "velocity": 115,
      "chip": "ym2612"
    },
    {
      "channel": 2,
      "note": 56,
      "start": 53.3256,
      "duration": 0.0161,
      "velocity": 100,
      "chip": "ym2612"
    },
    {
      "channel": 0,
      "note": 38,
      "start": 53.337,
      "duration": 0.0165,
      "velocity": 115,
      "chip": "ym2612"
    },
    {
      "channel": 2,
      "note": 56,
      "start": 53.3417,
      "duration": 0.0165,
      "velocity": 100,
      "chip": "ym2612"
    },
    {
      "channel": 0,
      "note": 39,
      "start": 53.3535,
      "duration": 0.018,
      "velocity": 124,
      "chip": "ym2612"
    },
    {
      "channel": 2,
      "note": 56,
      "start": 53.3582,
      "duration": 0.0188,
      "velocity": 100,
      "chip": "ym2612"
    },
    {
      "channel": 0,
      "note": 84,
      "start": 53.3716,
      "duration": 0.0143,
      "velocity": 124,
      "chip": "ym2612"
    },
    {
      "channel": 3,
      "note": 73,
      "start": 53.3756,
      "duration": 0.0139,
      "velocity": 110,
      "chip": "ym2612"
    },
    {
      "channel": 2,
      "note": 55,
      "start": 53.3771,
      "duration": 0.0137,
      "velocity": 100,
      "chip": "ym2612"
    },
    {
      "channel": 1,
      "note": 76,
      "start": 53.3786,
      "duration": 0.0134,
      "velocity": 110,
      "chip": "ym2612"
    },
    {
      "channel": 0,
      "note": 82,
      "start": 53.3859,
      "duration": 0.016,
      "velocity": 124,
      "chip": "ym2612"
    },
    {
      "channel": 3,
      "note": 73,
      "start": 53.3895,
      "duration": 0.016,
      "velocity": 110,
      "chip": "ym2612"
    },
    {
      "channel": 2,
      "note": 55,
      "start": 53.3908,
      "duration": 0.0159,
      "velocity": 100,
      "chip": "ym2612"
    },
    {
      "channel": 1,
      "note": 76,
      "start": 53.392,
      "duration": 0.0158,
      "velocity": 110,
      "chip": "ym2612"
    },
    {
      "channel": 0,
      "note": 80,
      "start": 53.402,
      "duration": 0.0157,
      "velocity": 124,
      "chip": "ym2612"
    },
    {
      "channel": 3,
      "note": 73,
      "start": 53.4055,
      "duration": 0.0161,
      "velocity": 110,
      "chip": "ym2612"
    },
    {
      "channel": 2,
      "note": 55,
      "start": 53.4067,
      "duration": 0.0161,
      "velocity": 100,
      "chip": "ym2612"
    },
    {
      "channel": 1,
      "note": 76,
      "start": 53.4079,
      "duration": 0.0161,
      "velocity": 110,
      "chip": "ym2612"
    },
    {
      "channel": 0,
      "note": 77,
      "start": 53.4177,
      "duration": 0.0159,
      "velocity": 124,
      "chip": "ym2612"
    },
    {
      "channel": 3,
      "note": 73,
      "start": 53.4216,
      "duration": 0.0161,
      "velocity": 110,
      "chip": "ym2612"
    },
    {
      "channel": 2,
      "note": 55,
      "start": 53.4228,
      "duration": 0.0161,
      "velocity": 100,
      "chip": "ym2612"
    },
    {
      "channel": 1,
      "note": 76,
      "start": 53.424,
      "duration": 0.0161,
      "velocity": 110,
      "chip": "ym2612"
    },
    {
      "channel": 0,
      "note": 75,
      "start": 53.4336,
      "duration": 0.0161,
      "velocity": 124,
      "chip": "ym2612"
    },
    {
      "channel": 3,
      "note": 73,
      "start": 53.4377,
      "duration": 0.0161,
      "velocity": 110,
      "chip": "ym2612"
    },
    {
      "channel": 2,
      "note": 55,
      "start": 53.4389,
      "duration": 0.0161,
      "velocity": 100,
      "chip": "ym2612"
    },
    {
      "channel": 1,
      "note": 76,
      "start": 53.4401,
      "duration": 0.0161,
      "velocity": 110,
      "chip": "ym2612"
    },
    {
      "channel": 0,
      "note": 72,
      "start": 53.4497,
      "duration": 0.0185,
      "velocity": 124,
      "chip": "ym2612"
    },
    {
      "channel": 3,
      "note": 73,
      "start": 53.4539,
      "duration": 0.018,
      "velocity": 110,
      "chip": "ym2612"
    },
    {
      "channel": 2,
      "note": 55,
      "start": 53.455,
      "duration": 0.0179,
      "velocity": 100,
      "chip": "ym2612"
    },
    {
      "channel": 1,
      "note": 76,
      "start": 53.4562,
      "duration": 0.0179,
      "velocity": 110,
      "chip": "ym2612"
    },
    {
      "channel": 0,
      "note": 84,
      "start": 53.4682,
      "duration": 0.0137,
      "velocity": 124,
      "chip": "ym2612"
    },
    {
      "channel": 3,
      "note": 73,
      "start": 53.4718,
      "duration": 0.0143,
      "velocity": 110,
      "chip": "ym2612"
    },
    {
      "channel": 2,
      "note": 55,
      "start": 53.4729,
      "duration": 0.0143,
      "velocity": 100,
      "chip": "ym2612"
    },
    {
      "channel": 1,
      "note": 76,
      "start": 53.4741,
      "duration": 0.0143,
      "velocity": 110,
      "chip": "ym2612"
    },
    {
      "channel": 0,
      "note": 82,
      "start": 53.4819,
      "duration": 0.0161,
      "velocity": 124,
      "chip": "ym2612"
    },
    {
      "channel": 2,
      "note": 55,
      "start": 53.4873,
      "duration": 0.0161,
      "velocity": 100,
      "chip": "ym2612"
    },
    {
      "channel": 0,
      "note": 80,
      "start": 53.498,
      "duration": 0.0161,
      "velocity": 124,
      "chip": "ym2612"
    },
    {
      "channel": 2,
      "note": 55,
      "start": 53.5034,
      "duration": 0.0161,
      "velocity": 100,
      "chip": "ym2612"
    },
    {
      "channel": 0,
      "note": 77,
      "start": 53.5141,
      "duration": 0.0161,
      "velocity": 124,
      "chip": "ym2612"
    },
    {
      "channel": 2,
      "note": 55,
      "start": 53.5195,
      "duration": 0.016,
      "velocity": 100,
      "chip": "ym2612"
    },
    {
      "channel": 0,
      "note": 75,
      "start": 53.5302,
      "duration": 0.0161,
      "velocity": 124,
      "chip": "ym2612"
    },
    {
      "channel": 2,
      "note": 55,
      "start": 53.5354,
      "duration": 0.0161,
      "velocity": 100,
      "chip": "ym2612"
    },
    {
      "channel": 0,
      "note": 72,
      "start": 53.5463,
      "duration": 0.0161,
      "velocity": 124,
      "chip": "ym2612"
    },
    {
      "channel": 2,
      "note": 55,
      "start": 53.5515,
      "duration": 0.0156,
      "velocity": 100,
      "chip": "ym2612"
    },
    {
      "channel": 0,
      "note": 70,
      "start": 53.5624,
      "duration": 0.0179,
      "velocity": 115,
      "chip": "ym2612"
    },
    {
      "channel": 2,
      "note": 55,
      "start": 53.5671,
      "duration": 0.0197,
      "velocity": 100,
      "chip": "ym2612"
    },
    {
      "channel": 0,
      "note": 36,
      "start": 53.5803,
      "duration": 0.0143,
      "velocity": 115,
      "chip": "ym2612"
    },
    {
      "channel": 3,
      "note": 76,
      "start": 53.5853,
      "duration": 0.0131,
      "velocity": 110,
      "chip": "ym2612"
    },
    {
      "channel": 2,
      "note": 54,
      "start": 53.5868,
      "duration": 0.0129,
      "velocity": 100,
      "chip": "ym2612"
    },
    {
      "channel": 1,
      "note": 73,
      "start": 53.5883,
      "duration": 0.0131,
      "velocity": 110,
      "chip": "ym2612"
    },
    {
      "channel": 0,
      "note": 36,
      "start": 53.5946,
      "duration": 0.016,
      "velocity": 115,
      "chip": "ym2612"
    },
    {
      "channel": 3,
      "note": 76,
      "start": 53.5984,
      "duration": 0.0159,
      "velocity": 110,
      "chip": "ym2612"
    },
    {
      "channel": 2,
      "note": 54,
      "start": 53.5996,
      "duration": 0.0158,
      "velocity": 100,
      "chip": "ym2612"
    },
    {
      "channel": 1,
      "note": 73,
      "start": 53.6014,
      "duration": 0.0152,
      "velocity": 110,
      "chip": "ym2612"
    },
    {
      "channel": 0,
      "note": 37,
      "start": 53.6107,
      "duration": 0.0161,
      "velocity": 115,
      "chip": "ym2612"
    },
    {
      "channel": 3,
      "note": 76,
      "start": 53.6142,
      "duration": 0.0161,
      "velocity": 110,
      "chip": "ym2612"
    },
    {
      "channel": 2,
      "note": 54,
      "start": 53.6154,
      "duration": 0.0162,
      "velocity": 100,
      "chip": "ym2612"
    },
    {
      "channel": 1,
      "note": 73,
      "start": 53.6166,
      "duration": 0.0161,
      "velocity": 110,
      "chip": "ym2612"
    },
    {
      "channel": 0,
      "note": 37,
      "start": 53.6268,
      "duration": 0.0162,
      "velocity": 115,
      "chip": "ym2612"
    },
    {
      "channel": 3,
      "note": 76,
      "start": 53.6304,
      "duration": 0.016,
      "velocity": 110,
      "chip": "ym2612"
    },
    {
      "channel": 2,
      "note": 54,
      "start": 53.6315,
      "duration": 0.016,
      "velocity": 100,
      "chip": "ym2612"
    },
    {
      "channel": 1,
      "note": 73,
      "start": 53.6327,
      "duration": 0.016,
      "velocity": 110,
      "chip": "ym2612"
    },
    {
      "channel": 0,
      "note": 38,
      "start": 53.6429,
      "duration": 0.0161,
      "velocity": 115,
      "chip": "ym2612"
    },
    {
      "channel": 3,
      "note": 76,
      "start": 53.6464,
      "duration": 0.0161,
      "velocity": 110,
      "chip": "ym2612"
    },
    {
      "channel": 2,
      "note": 54,
      "start": 53.6476,
      "duration": 0.0161,
      "velocity": 100,
      "chip": "ym2612"
    },
    {
      "channel": 1,
      "note": 73,
      "start": 53.6488,
      "duration": 0.0161,
      "velocity": 110,
      "chip": "ym2612"
    },
    {
      "channel": 0,
      "note": 38,
      "start": 53.659,
      "duration": 0.0161,
      "velocity": 115,
      "chip": "ym2612"
    },
    {
      "channel": 3,
      "note": 76,
      "start": 53.6625,
      "duration": 0.0162,
      "velocity": 110,
      "chip": "ym2612"
    },
    {
      "channel": 2,
      "note": 54,
      "start": 53.6637,
      "duration": 0.0162,
      "velocity": 100,
      "chip": "ym2612"
    },
    {
      "channel": 1,
      "note": 73,
      "start": 53.6649,
      "duration": 0.0161,
      "velocity": 110,
      "chip": "ym2612"
    },
    {
      "channel": 0,
      "note": 39,
      "start": 53.6751,
      "duration": 0.0161,
      "velocity": 115,
      "chip": "ym2612"
    },
    {
      "channel": 3,
      "note": 76,
      "start": 53.6787,
      "duration": 0.0161,
      "velocity": 110,
      "chip": "ym2612"
    },
    {
      "channel": 2,
      "note": 54,
      "start": 53.6798,
      "duration": 0.0161,
      "velocity": 100,
      "chip": "ym2612"
    },
    {
      "channel": 1,
      "note": 73,
      "start": 53.681,
      "duration": 0.0161,
      "velocity": 110,
      "chip": "ym2612"
    },
    {
      "channel": 0,
      "note": 39,
      "start": 53.6912,
      "duration": 0.0161,
      "velocity": 115,
      "chip": "ym2612"
    },
    {
      "channel": 2,
      "note": 54,
      "start": 53.6959,
      "duration": 0.0161,
      "velocity": 100,
      "chip": "ym2612"
    },
    {
      "channel": 0,
      "note": 40,
      "start": 53.7073,
      "duration": 0.0161,
      "velocity": 115,
      "chip": "ym2612"
    },
    {
      "channel": 2,
      "note": 54,
      "start": 53.712,
      "duration": 0.0161,
      "velocity": 100,
      "chip": "ym2612"
    },
    {
      "channel": 0,
      "note": 40,
      "start": 53.7234,
      "duration": 0.0161,
      "velocity": 115,
      "chip": "ym2612"
    },
    {
      "channel": 2,
      "note": 54,
      "start": 53.7282,
      "duration": 0.016,
      "velocity": 100,
      "chip": "ym2612"
    },
    {
      "channel": 0,
      "note": 40,
      "start": 53.7395,
      "duration": 0.0161,
      "velocity": 115,
      "chip": "ym2612"
    },
    {
      "channel": 2,
      "note": 54,
      "start": 53.7442,
      "duration": 0.0162,
      "velocity": 100,
      "chip": "ym2612"
    },
    {
      "channel": 0,
      "note": 41,
      "start": 53.7556,
      "duration": 0.0161,
      "velocity": 115,
      "chip": "ym2612"
    },
    {
      "channel": 2,
      "note": 54,
      "start": 53.7604,
      "duration": 0.016,
      "velocity": 100,
      "chip": "ym2612"
    },
    {
      "channel": 0,
      "note": 41,
      "start": 53.7717,
      "duration": 0.0161,
      "velocity": 115,
      "chip": "ym2612"
    },
    {
      "channel": 2,
      "note": 54,
      "start": 53.7764,
      "duration": 0.02,
      "velocity": 100,
      "chip": "ym2612"
    },
    {
      "channel": 0,
      "note": 42,
      "start": 53.7878,
      "duration": 0.0162,
      "velocity": 115,
      "chip": "ym2612"
    },
    {
      "channel": 5,
      "note": 76,
      "start": 53.7908,
      "duration": 0.0144,
      "velocity": 110,
      "chip": "ym2612"
    },
    {
      "channel": 4,
      "note": 78,
      "start": 53.7937,
      "duration": 0.0127,
      "velocity": 110,
      "chip": "ym2612"
    },
    {
      "channel": 2,
      "note": 54,
      "start": 53.7963,
      "duration": 0.0125,
      "velocity": 100,
      "chip": "ym2612"
    },
    {
      "channel": 0,
      "note": 42,
      "start": 53.804,
      "duration": 0.0161,
      "velocity": 115,
      "chip": "ym2612"
    },
    {
      "channel": 5,
      "note": 76,
      "start": 53.8052,
      "duration": 0.016,
      "velocity": 110,
      "chip": "ym2612"
    },
    {
      "channel": 4,
      "note": 78,
      "start": 53.8064,
      "duration": 0.016,
      "velocity": 110,
      "chip": "ym2612"
    },
    {
      "channel": 2,
      "note": 54,
      "start": 53.8088,
      "duration": 0.016,
      "velocity": 100,
      "chip": "ym2612"
    },
    {
      "channel": 0,
      "note": 43,
      "start": 53.8201,
      "duration": 0.0164,
      "velocity": 115,
      "chip": "ym2612"
    },
    {
      "channel": 5,
      "note": 76,
      "start": 53.8212,
      "duration": 0.0164,
      "velocity": 110,
      "chip": "ym2612"
    },
    {
      "channel": 4,
      "note": 78,
      "start": 53.8224,
      "duration": 0.0164,
      "velocity": 110,
      "chip": "ym2612"
    },
    {
      "channel": 2,
      "note": 54,
      "start": 53.8249,
      "duration": 0.0164,
      "velocity": 100,
      "chip": "ym2612"
    },
    {
      "channel": 0,
      "note": 43,
      "start": 53.8365,
      "duration": 0.0163,
      "velocity": 115,
      "chip": "ym2612"
    },
    {
      "channel": 2,
      "note": 54,
      "start": 53.8413,
      "duration": 0.0163,
      "velocity": 100,
      "chip": "ym2612"
    },
    {
      "channel": 0,
      "note": 44,
      "start": 53.8528,
      "duration": 0.0161,
      "velocity": 115,
      "chip": "ym2612"
    },
    {
      "channel": 2,
      "note": 54,
      "start": 53.8576,
      "duration": 0.016,
      "velocity": 100,
      "chip": "ym2612"
    },
    {
      "channel": 0,
      "note": 44,
      "start": 53.8689,
      "duration": 0.0179,
      "velocity": 115,
      "chip": "ym2612"
    },
    {
      "channel": 2,
      "note": 54,
      "start": 53.8737,
      "duration": 0.0189,
      "velocity": 100,
      "chip": "ym2612"
    },
    {
      "channel": 0,
      "note": 36,
      "start": 53.8869,
      "duration": 0.0139,
      "velocity": 115,
      "chip": "ym2612"
    },
    {
      "channel": 5,
      "note": 76,
      "start": 53.8883,
      "duration": 0.0141,
      "velocity": 110,
      "chip": "ym2612"
    },
    {
      "channel": 4,
      "note": 78,
      "start": 53.8898,
      "duration": 0.0139,
      "velocity": 110,
      "chip": "ym2612"
    },
    {
      "channel": 2,
      "note": 54,
      "start": 53.8926,
      "duration": 0.0135,
      "velocity": 100,
      "chip": "ym2612"
    },
    {
      "channel": 0,
      "note": 36,
      "start": 53.9008,
      "duration": 0.0158,
      "velocity": 115,
      "chip": "ym2612"
    },
    {
      "channel": 5,
      "note": 76,
      "start": 53.9024,
      "duration": 0.0159,
      "velocity": 110,
      "chip": "ym2612"
    },
    {
      "channel": 4,
      "note": 78,
      "start": 53.9037,
      "duration": 0.0159,
      "velocity": 110,
      "chip": "ym2612"
    },
    {
      "channel": 2,
      "note": 54,
      "start": 53.9061,
      "duration": 0.0159,
      "velocity": 100,
      "chip": "ym2612"
    },
    {
      "channel": 0,
      "note": 37,
      "start": 53.9166,
      "duration": 0.0161,
      "velocity": 115,
      "chip": "ym2612"
    },
    {
      "channel": 5,
      "note": 76,
      "start": 53.9183,
      "duration": 0.0158,
      "velocity": 110,
      "chip": "ym2612"
    },
    {
      "channel": 4,
      "note": 78,
      "start": 53.9196,
      "duration": 0.016,
      "velocity": 110,
      "chip": "ym2612"
    },
    {
      "channel": 2,
      "note": 54,
      "start": 53.9221,
      "duration": 0.016,
      "velocity": 100,
      "chip": "ym2612"
    },
    {
      "channel": 0,
      "note": 37,
      "start": 53.9327,
      "duration": 0.0162,
      "velocity": 115,
      "chip": "ym2612"
    },
    {
      "channel": 5,
      "note": 76,
      "start": 53.9341,
      "duration": 0.0159,
      "velocity": 110,
      "chip": "ym2612"
    },
    {
      "channel": 4,
      "note": 78,
      "start": 53.9356,
      "duration": 0.0161,
      "velocity": 110,
      "chip": "ym2612"
    },
    {
      "channel": 2,
      "note": 54,
      "start": 53.9381,
      "duration": 0.0161,
      "velocity": 100,
      "chip": "ym2612"
    },
    {
      "channel": 0,
      "note": 38,
      "start": 53.9488,
      "duration": 0.0161,
      "velocity": 115,
      "chip": "ym2612"
    },
    {
      "channel": 2,
      "note": 54,
      "start": 53.9542,
      "duration": 0.0161,
      "velocity": 100,
      "chip": "ym2612"
    },
    {
      "channel": 0,
      "note": 38,
      "start": 53.9649,
      "duration": 0.0161,
      "velocity": 115,
      "chip": "ym2612"
    },
    {
      "channel": 2,
      "note": 54,
      "start": 53.9703,
      "duration": 0.0161,
      "velocity": 100,
      "chip": "ym2612"
    },
    {
      "channel": 0,
      "note": 39,
      "start": 53.981,
      "duration": 0.0179,
      "velocity": 124,
      "chip": "ym2612"
    },
    {
      "channel": 2,
      "note": 54,
      "start": 53.9864,
      "duration": 0.0187,
      "velocity": 100,
      "chip": "ym2612"
    },
    {
      "channel": 0,
      "note": 84,
      "start": 53.999,
      "duration": 0.0143,
      "velocity": 124,
      "chip": "ym2612"
    },
    {
      "channel": 5,
      "note": 78,
      "start": 54.0007,
      "duration": 0.0138,
      "velocity": 110,
      "chip": "ym2612"
    },
    {
      "channel": 4,
      "note": 76,
      "start": 54.0026,
      "duration": 0.0132,
      "velocity": 110,
      "chip": "ym2612"
    },
    {
      "channel": 2,
      "note": 54,
      "start": 54.0051,
      "duration": 0.0137,
      "velocity": 100,
      "chip": "ym2612"
    },
    {
      "channel": 0,
      "note": 82,
      "start": 54.0133,
      "duration": 0.016,
      "velocity": 124,
      "chip": "ym2612"
    },
    {
      "channel": 5,
      "note": 78,
      "start": 54.0145,
      "duration": 0.016,
      "velocity": 110,
      "chip": "ym2612"
    },
    {
      "channel": 4,
      "note": 76,
      "start": 54.0158,
      "duration": 0.0159,
      "velocity": 110,
      "chip": "ym2612"
    },
    {
      "channel": 2,
      "note": 54,
      "start": 54.0188,
      "duration": 0.0159,
      "velocity": 100,
      "chip": "ym2612"
    },
    {
      "channel": 0,
      "note": 80,
      "start": 54.0293,
      "duration": 0.0161,
      "velocity": 124,
      "chip": "ym2612"
    },
    {
      "channel": 5,
      "note": 78,
      "start": 54.0305,
      "duration": 0.0161,
      "velocity": 110,
      "chip": "ym2612"
    },
    {
      "channel": 4,
      "note": 76,
      "start": 54.0317,
      "duration": 0.0162,
      "velocity": 110,
      "chip": "ym2612"
    },
    {
      "channel": 2,
      "note": 54,
      "start": 54.0347,
      "duration": 0.0155,
      "velocity": 100,
      "chip": "ym2612"
    },
    {
      "channel": 0,
      "note": 77,
      "start": 54.0454,
      "duration": 0.0161,
      "velocity": 124,
      "chip": "ym2612"
    },
    {
      "channel": 2,
      "note": 54,
      "start": 54.0502,
      "duration": 0.0161,
      "velocity": 100,
      "chip": "ym2612"
    },
    {
      "channel": 0,
      "note": 75,
      "start": 54.0615,
      "duration": 0.0162,
      "velocity": 124,
      "chip": "ym2612"
    },
    {
      "channel": 2,
      "note": 54,
      "start": 54.0663,
      "duration": 0.0161,
      "velocity": 100,
      "chip": "ym2612"
    },
    {
      "channel": 0,
      "note": 72,
      "start": 54.0777,
      "duration": 0.0161,
      "velocity": 124,
      "chip": "ym2612"
    },
    {
      "channel": 2,
      "note": 54,
      "start": 54.0824,
      "duration": 0.0168,
      "velocity": 100,
      "chip": "ym2612"
    },
    {
      "channel": 0,
      "note": 70,
      "start": 54.0937,
      "duration": 0.0161,
      "velocity": 124,
      "chip": "ym2612"
    },
    {
      "channel": 5,
      "note": 78,
      "start": 54.0952,
      "duration": 0.0158,
      "velocity": 110,
      "chip": "ym2612"
    },
    {
      "channel": 4,
      "note": 76,
      "start": 54.0967,
      "duration": 0.0157,
      "velocity": 110,
      "chip": "ym2612"
    },
    {
      "channel": 2,
      "note": 54,
      "start": 54.0993,
      "duration": 0.0155,
      "velocity": 100,
      "chip": "ym2612"
    },
    {
      "channel": 0,
      "note": 68,
      "start": 54.1098,
      "duration": 0.0161,
      "velocity": 124,
      "chip": "ym2612"
    },
    {
      "channel": 5,
      "note": 78,
      "start": 54.111,
      "duration": 0.016,
      "velocity": 110,
      "chip": "ym2612"
    },
    {
      "channel": 4,
      "note": 76,
      "start": 54.1123,
      "duration": 0.016,
      "velocity": 110,
      "chip": "ym2612"
    },
    {
      "channel": 2,
      "note": 54,
      "start": 54.1148,
      "duration": 0.016,
      "velocity": 100,
      "chip": "ym2612"
    },
    {
      "channel": 0,
      "note": 65,
      "start": 54.1259,
      "duration": 0.0161,
      "velocity": 124,
      "chip": "ym2612"
    },
    {
      "channel": 5,
      "note": 78,
      "start": 54.1271,
      "duration": 0.0161,
      "velocity": 110,
      "chip": "ym2612"
    },
    {
      "channel": 4,
      "note": 76,
      "start": 54.1283,
      "duration": 0.0161,
      "velocity": 110,
      "chip": "ym2612"
    },
    {
      "channel": 2,
      "note": 54,
      "start": 54.1308,
      "duration": 0.0161,
      "velocity": 100,
      "chip": "ym2612"
    },
    {
      "channel": 0,
      "note": 63,
      "start": 54.142,
      "duration": 0.0153,
      "velocity": 1,
      "chip": "ym2612"
    },
    {
      "channel": 5,
      "note": 78,
      "start": 54.1432,
      "duration": 0.0153,
      "velocity": 110,
      "chip": "ym2612"
    },
    {
      "channel": 4,
      "note": 76,
      "start": 54.1444,
      "duration": 0.0153,
      "velocity": 110,
      "chip": "ym2612"
    },
    {
      "channel": 2,
      "note": 54,
      "start": 54.1469,
      "duration": 0.0153,
      "velocity": 100,
      "chip": "ym2612"
    },
    {
      "channel": 2,
      "note": 54,
      "start": 54.1622,
      "duration": 0.0153,
      "velocity": 100,
      "chip": "ym2612"
    },
    {
      "channel": 2,
      "note": 54,
      "start": 54.1775,
      "duration": 0.016,
      "velocity": 100,
      "chip": "ym2612"
    },
    {
      "channel": 2,
      "note": 54,
      "start": 54.1935,
      "duration": 0.0206,
      "velocity": 100,
      "chip": "ym2612"
    },
    {
      "channel": 0,
      "note": 36,
      "start": 54.2083,
      "duration": 0.0142,
      "velocity": 115,
      "chip": "ym2612"
    },
    {
      "channel": 5,
      "note": 76,
      "start": 54.2098,
      "duration": 0.014,
      "velocity": 110,
      "chip": "ym2612"
    },
    {
      "channel": 4,
      "note": 78,
      "start": 54.2114,
      "duration": 0.0136,
      "velocity": 110,
      "chip": "ym2612"
    },
    {
      "channel": 2,
      "note": 49,
      "start": 54.2142,
      "duration": 0.0134,
      "velocity": 100,
      "chip": "ym2612"
    },
    {
      "channel": 0,
      "note": 36,
      "start": 54.2226,
      "duration": 0.016,
      "velocity": 115,
      "chip": "ym2612"
    },
    {
      "channel": 5,
      "note": 76,
      "start": 54.2238,
      "duration": 0.016,
      "velocity": 110,
      "chip": "ym2612"
    },
    {
      "channel": 4,
      "note": 78,
      "start": 54.2251,
      "duration": 0.0159,
      "velocity": 110,
      "chip": "ym2612"
    },
    {
      "channel": 2,
      "note": 49,
      "start": 54.2275,
      "duration": 0.0159,
      "velocity": 100,
      "chip": "ym2612"
    },
    {
      "channel": 0,
      "note": 37,
      "start": 54.2386,
      "duration": 0.0162,
      "velocity": 115,
      "chip": "ym2612"
    },
    {
      "channel": 5,
      "note": 76,
      "start": 54.2398,
      "duration": 0.0161,
      "velocity": 110,
      "chip": "ym2612"
    },
    {
      "channel": 4,
      "note": 78,
      "start": 54.241,
      "duration": 0.0161,
      "velocity": 110,
      "chip": "ym2612"
    },
    {
      "channel": 2,
      "note": 49,
      "start": 54.2434,
      "duration": 0.0161,
      "velocity": 100,
      "chip": "ym2612"
    },
    {
      "channel": 0,
      "note": 37,
      "start": 54.2548,
      "duration": 0.0161,
      "velocity": 115,
      "chip": "ym2612"
    },
    {
      "channel": 5,
      "note": 76,
      "start": 54.2559,
      "duration": 0.0161,
      "velocity": 110,
      "chip": "ym2612"
    },
    {
      "channel": 4,
      "note": 78,
      "start": 54.2571,
      "duration": 0.0161,
      "velocity": 110,
      "chip": "ym2612"
    },
    {
      "channel": 2,
      "note": 49,
      "start": 54.2595,
      "duration": 0.0161,
      "velocity": 100,
      "chip": "ym2612"
    },
    {
      "channel": 0,
      "note": 38,
      "start": 54.2708,
      "duration": 0.0162,
      "velocity": 115,
      "chip": "ym2612"
    },
    {
      "channel": 5,
      "note": 76,
      "start": 54.272,
      "duration": 0.0162,
      "velocity": 110,
      "chip": "ym2612"
    },
    {
      "channel": 4,
      "note": 78,
      "start": 54.2732,
      "duration": 0.0162,
      "velocity": 110,
      "chip": "ym2612"
    },
    {
      "channel": 2,
      "note": 49,
      "start": 54.2756,
      "duration": 0.0161,
      "velocity": 100,
      "chip": "ym2612"
    },
    {
      "channel": 0,
      "note": 38,
      "start": 54.287,
      "duration": 0.0182,
      "velocity": 115,
      "chip": "ym2612"
    },
    {
      "channel": 5,
      "note": 76,
      "start": 54.2882,
      "duration": 0.0183,
      "velocity": 110,
      "chip": "ym2612"
    },
    {
      "channel": 4,
      "note": 78,
      "start": 54.2894,
      "duration": 0.0183,
      "velocity": 110,
      "chip": "ym2612"
    },
    {
      "channel": 2,
      "note": 49,
      "start": 54.2918,
      "duration": 0.0186,
      "velocity": 100,
      "chip": "ym2612"
    },
    {
      "channel": 0,
      "note": 36,
      "start": 54.3053,
      "duration": 0.0145,
      "velocity": 115,
      "chip": "ym2612"
    },
    {
      "channel": 5,
      "note": 76,
      "start": 54.3065,
      "duration": 0.0145,
      "velocity": 110,
      "chip": "ym2612"
    },
    {
      "channel": 4,
      "note": 78,
      "start": 54.3076,
      "duration": 0.0146,
      "velocity": 110,
      "chip": "ym2612"
    },
    {
      "channel": 2,
      "note": 51,
      "start": 54.3104,
      "duration": 0.0143,
      "velocity": 100,
      "chip": "ym2612"
    },
    {
      "channel": 0,
      "note": 36,
      "start": 54.3198,
      "duration": 0.0161,
      "velocity": 115,
      "chip": "ym2612"
    },
    {
      "channel": 2,
      "note": 51,
      "start": 54.3247,
      "duration": 0.016,
      "velocity": 100,
      "chip": "ym2612"
    },
    {
      "channel": 0,
      "note": 37,
      "start": 54.3359,
      "duration": 0.016,
      "velocity": 115,
      "chip": "ym2612"
    },
    {
      "channel": 2,
      "note": 51,
      "start": 54.3406,
      "duration": 0.0161,
      "velocity": 100,
      "chip": "ym2612"
    },
    {
      "channel": 0,
      "note": 37,
      "start": 54.3519,
      "duration": 0.0158,
      "velocity": 115,
      "chip": "ym2612"
    },
    {
      "channel": 2,
      "note": 51,
      "start": 54.3567,
      "duration": 0.0161,
      "velocity": 100,
      "chip": "ym2612"
    },
    {
      "channel": 0,
      "note": 38,
      "start": 54.3677,
      "duration": 0.0159,
      "velocity": 115,
      "chip": "ym2612"
    },
    {
      "channel": 2,
      "note": 51,
      "start": 54.3728,
      "duration": 0.0161,
      "velocity": 100,
      "chip": "ym2612"
    },
    {
      "channel": 0,
      "note": 38,
      "start": 54.3836,
      "duration": 0.0161,
      "velocity": 115,
      "chip": "ym2612"
    },
    {
      "channel": 2,
      "note": 51,
      "start": 54.3889,
      "duration": 0.0161,
      "velocity": 100,
      "chip": "ym2612"
    },
    {
      "channel": 0,
      "note": 39,
      "start": 54.3997,
      "duration": 0.0184,
      "velocity": 115,
      "chip": "ym2612"
    },
    {
      "channel": 2,
      "note": 51,
      "start": 54.405,
      "duration": 0.0188,
      "velocity": 100,
      "chip": "ym2612"
    },
    {
      "channel": 0,
      "note": 36,
      "start": 54.4181,
      "duration": 0.0138,
      "velocity": 115,
      "chip": "ym2612"
    },
    {
      "channel": 5,
      "note": 78,
      "start": 54.4197,
      "duration": 0.0134,
      "velocity": 110,
      "chip": "ym2612"
    },
    {
      "channel": 4,
      "note": 76,
      "start": 54.4212,
      "duration": 0.0137,
      "velocity": 110,
      "chip": "ym2612"
    },
    {
      "channel": 2,
      "note": 54,
      "start": 54.4239,
      "duration": 0.0136,
      "velocity": 100,
      "chip": "ym2612"
    },
    {
      "channel": 0,
      "note": 36,
      "start": 54.4319,
      "duration": 0.016,
      "velocity": 115,
      "chip": "ym2612"
    },
    {
      "channel": 5,
      "note": 78,
      "start": 54.4331,
      "duration": 0.016,
      "velocity": 110,
      "chip": "ym2612"
    },
    {
      "channel": 4,
      "note": 76,
      "start": 54.4349,
      "duration": 0.0154,
      "velocity": 110,
      "chip": "ym2612"
    },
    {
      "channel": 2,
      "note": 54,
      "start": 54.4375,
      "duration": 0.0158,
      "velocity": 100,
      "chip": "ym2612"
    },
    {
      "channel": 0,
      "note": 37,
      "start": 54.448,
      "duration": 0.0161,
      "velocity": 115,
      "chip": "ym2612"
    },
    {
      "channel": 5,
      "note": 78,
      "start": 54.4491,
      "duration": 0.0162,
      "velocity": 110,
      "chip": "ym2612"
    },
    {
      "channel": 4,
      "note": 76,
      "start": 54.4503,
      "duration": 0.0161,
      "velocity": 110,
      "chip": "ym2612"
    },
    {
      "channel": 2,
      "note": 54,
      "start": 54.4533,
      "duration": 0.0162,
      "velocity": 100,
      "chip": "ym2612"
    },
    {
      "channel": 0,
      "note": 37,
      "start": 54.464,
      "duration": 0.0161,
      "velocity": 115,
      "chip": "ym2612"
    },
    {
      "channel": 5,
      "note": 78,
      "start": 54.4653,
      "duration": 0.0161,
      "velocity": 110,
      "chip": "ym2612"
    },
    {
      "channel": 4,
      "note": 76,
      "start": 54.4664,
      "duration": 0.0161,
      "velocity": 110,
      "chip": "ym2612"
    },
    {
      "channel": 2,
      "note": 54,
      "start": 54.4695,
      "duration": 0.0161,
      "velocity": 100,
      "chip": "ym2612"
    },
    {
      "channel": 0,
      "note": 38,
      "start": 54.4801,
      "duration": 0.0161,
      "velocity": 115,
      "chip": "ym2612"
    },
    {
      "channel": 5,
      "note": 78,
      "start": 54.4813,
      "duration": 0.0161,
      "velocity": 110,
      "chip": "ym2612"
    },
    {
      "channel": 4,
      "note": 76,
      "start": 54.4825,
      "duration": 0.0161,
      "velocity": 110,
      "chip": "ym2612"
    },
    {
      "channel": 2,
      "note": 54,
      "start": 54.4856,
      "duration": 0.016,
      "velocity": 100,
      "chip": "ym2612"
    },
    {
      "channel": 0,
      "note": 38,
      "start": 54.4962,
      "duration": 0.0179,
      "velocity": 127,
      "chip": "ym2612"
    },
    {
      "channel": 5,
      "note": 78,
      "start": 54.4974,
      "duration": 0.0179,
      "velocity": 110,
      "chip": "ym2612"
    },
    {
      "channel": 4,
      "note": 76,
      "start": 54.4986,
      "duration": 0.018,
      "velocity": 110,
      "chip": "ym2612"
    },
    {
      "channel": 2,
      "note": 54,
      "start": 54.5016,
      "duration": 0.0183,
      "velocity": 100,
      "chip": "ym2612"
    },
    {
      "channel": 0,
      "note": 88,
      "start": 54.5142,
      "duration": 0.0142,
      "velocity": 127,
      "chip": "ym2612"
    },
    {
      "channel": 5,
      "note": 78,
      "start": 54.5154,
      "duration": 0.0143,
      "velocity": 110,
      "chip": "ym2612"
    },
    {
      "channel": 4,
      "note": 76,
      "start": 54.5166,
      "duration": 0.0142,
      "velocity": 110,
      "chip": "ym2612"
    },
    {
      "channel": 2,
      "note": 66,
      "start": 54.5199,
      "duration": 0.0135,
      "velocity": 100,
      "chip": "ym2612"
    },
    {
      "channel": 0,
      "note": 86,
      "start": 54.5285,
      "duration": 0.016,
      "velocity": 127,
      "chip": "ym2612"
    },
    {
      "channel": 2,
      "note": 66,
      "start": 54.5334,
      "duration": 0.016,
      "velocity": 100,
      "chip": "ym2612"
    },
    {
      "channel": 0,
      "note": 85,
      "start": 54.5445,
      "duration": 0.0162,
      "velocity": 127,
      "chip": "ym2612"
    },
    {
      "channel": 2,
      "note": 66,
      "start": 54.5493,
      "duration": 0.0161,
      "velocity": 100,
      "chip": "ym2612"
    },
    {
      "channel": 0,
      "note": 83,
      "start": 54.5607,
      "duration": 0.0161,
      "velocity": 127,
      "chip": "ym2612"
    },
    {
      "channel": 2,
      "note": 66,
      "start": 54.5654,
      "duration": 0.0161,
      "velocity": 100,
      "chip": "ym2612"
    },
    {
      "channel": 0,
      "note": 81,
      "start": 54.5768,
      "duration": 0.0161,
      "velocity": 127,
      "chip": "ym2612"
    },
    {
      "channel": 2,
      "note": 66,
      "start": 54.5815,
      "duration": 0.0161,
      "velocity": 100,
      "chip": "ym2612"
    },
    {
      "channel": 0,
      "note": 80,
      "start": 54.5929,
      "duration": 0.0161,
      "velocity": 127,
      "chip": "ym2612"
    },
    {
      "channel": 2,
      "note": 66,
      "start": 54.5976,
      "duration": 0.0161,
      "velocity": 100,
      "chip": "ym2612"
    },
    {
      "channel": 0,
      "note": 78,
      "start": 54.609,
      "duration": 0.0161,
      "velocity": 127,
      "chip": "ym2612"
    },
    {
      "channel": 2,
      "note": 66,
      "start": 54.6137,
      "duration": 0.0172,
      "velocity": 100,
      "chip": "ym2612"
    },
    {
      "channel": 0,
      "note": 76,
      "start": 54.6251,
      "duration": 0.0161,
      "velocity": 127,
      "chip": "ym2612"
    },
    {
      "channel": 5,
      "note": 76,
      "start": 54.6266,
      "duration": 0.0158,
      "velocity": 110,
      "chip": "ym2612"
    },
    {
      "channel": 4,
      "note": 78,
      "start": 54.6282,
      "duration": 0.0154,
      "velocity": 110,
      "chip": "ym2612"
    },
    {
      "channel": 2,
      "note": 54,
      "start": 54.631,
      "duration": 0.0151,
      "velocity": 100,
      "chip": "ym2612"
    },
    {
      "channel": 0,
      "note": 75,
      "start": 54.6411,
      "duration": 0.0161,
      "velocity": 127,
      "chip": "ym2612"
    },
    {
      "channel": 5,
      "note": 76,
      "start": 54.6424,
      "duration": 0.016,
      "velocity": 110,
      "chip": "ym2612"
    },
    {
      "channel": 4,
      "note": 78,
      "start": 54.6436,
      "duration": 0.016,
      "velocity": 110,
      "chip": "ym2612"
    },
    {
      "channel": 2,
      "note": 54,
      "start": 54.6461,
      "duration": 0.0159,
      "velocity": 100,
      "chip": "ym2612"
    },
    {
      "channel": 0,
      "note": 73,
      "start": 54.6572,
      "duration": 0.0161,
      "velocity": 127,
      "chip": "ym2612"
    },
    {
      "channel": 5,
      "note": 76,
      "start": 54.6584,
      "duration": 0.0161,
      "velocity": 110,
      "chip": "ym2612"
    },
    {
      "channel": 4,
      "note": 78,
      "start": 54.6596,
      "duration": 0.0161,
      "velocity": 110,
      "chip": "ym2612"
    },
    {
      "channel": 2,
      "note": 54,
      "start": 54.662,
      "duration": 0.0161,
      "velocity": 100,
      "chip": "ym2612"
    },
    {
      "channel": 0,
      "note": 71,
      "start": 54.6733,
      "duration": 0.0161,
      "velocity": 127,
      "chip": "ym2612"
    },
    {
      "channel": 5,
      "note": 76,
      "start": 54.6745,
      "duration": 0.0161,
      "velocity": 110,
      "chip": "ym2612"
    },
    {
      "channel": 4,
      "note": 78,
      "start": 54.6757,
      "duration": 0.0161,
      "velocity": 110,
      "chip": "ym2612"
    },
    {
      "channel": 2,
      "note": 54,
      "start": 54.6781,
      "duration": 0.0162,
      "velocity": 100,
      "chip": "ym2612"
    },
    {
      "channel": 0,
      "note": 69,
      "start": 54.6894,
      "duration": 0.0161,
      "velocity": 127,
      "chip": "ym2612"
    },
    {
      "channel": 5,
      "note": 76,
      "start": 54.6906,
      "duration": 0.0161,
      "velocity": 110,
      "chip": "ym2612"
    },
    {
      "channel": 4,
      "note": 78,
      "start": 54.6918,
      "duration": 0.0161,
      "velocity": 110,
      "chip": "ym2612"
    },
    {
      "channel": 2,
      "note": 54,
      "start": 54.6943,
      "duration": 0.0161,
      "velocity": 100,
      "chip": "ym2612"
    },
    {
      "channel": 0,
      "note": 68,
      "start": 54.7055,
      "duration": 0.018,
      "velocity": 127,
      "chip": "ym2612"
    },
    {
      "channel": 5,
      "note": 76,
      "start": 54.7067,
      "duration": 0.018,
      "velocity": 110,
      "chip": "ym2612"
    },
    {
      "channel": 4,
      "note": 78,
      "start": 54.7079,
      "duration": 0.0181,
      "velocity": 110,
      "chip": "ym2612"
    },
    {
      "channel": 2,
      "note": 54,
      "start": 54.7104,
      "duration": 0.0183,
      "velocity": 100,
      "chip": "ym2612"
    },
    {
      "channel": 0,
      "note": 84,
      "start": 54.7236,
      "duration": 0.0143,
      "velocity": 127,
      "chip": "ym2612"
    },
    {
      "channel": 5,
      "note": 76,
      "start": 54.7247,
      "duration": 0.0143,
      "velocity": 110,
      "chip": "ym2612"
    },
    {
      "channel": 4,
      "note": 78,
      "start": 54.7259,
      "duration": 0.0143,
      "velocity": 110,
      "chip": "ym2612"
    },
    {
      "channel": 2,
      "note": 66,
      "start": 54.7287,
      "duration": 0.0141,
      "velocity": 100,
      "chip": "ym2612"
    },
    {
      "channel": 0,
      "note": 82,
      "start": 54.7379,
      "duration": 0.016,
      "velocity": 127,
      "chip": "ym2612"
    },
    {
      "channel": 2,
      "note": 66,
      "start": 54.7427,
      "duration": 0.016,
      "velocity": 100,
      "chip": "ym2612"
    },
    {
      "channel": 0,
      "note": 81,
      "start": 54.7539,
      "duration": 0.0161,
      "velocity": 127,
      "chip": "ym2612"
    },
    {
      "channel": 2,
      "note": 66,
      "start": 54.7587,
      "duration": 0.0161,
      "velocity": 100,
      "chip": "ym2612"
    },
    {
      "channel": 0,
      "note": 79,
      "start": 54.77,
      "duration": 0.0164,
      "velocity": 127,
      "chip": "ym2612"
    },
    {
      "channel": 2,
      "note": 66,
      "start": 54.7749,
      "duration": 0.0163,
      "velocity": 100,
      "chip": "ym2612"
    },
    {
      "channel": 0,
      "note": 77,
      "start": 54.7864,
      "duration": 0.0163,
      "velocity": 127,
      "chip": "ym2612"
    },
    {
      "channel": 2,
      "note": 66,
      "start": 54.7912,
      "duration": 0.0163,
      "velocity": 100,
      "chip": "ym2612"
    },
    {
      "channel": 0,
      "note": 76,
      "start": 54.8027,
      "duration": 0.0162,
      "velocity": 127,
      "chip": "ym2612"
    },
    {
      "channel": 2,
      "note": 66,
      "start": 54.8076,
      "duration": 0.0161,
      "velocity": 100,
      "chip": "ym2612"
    },
    {
      "channel": 0,
      "note": 74,
      "start": 54.8189,
      "duration": 0.0179,
      "velocity": 127,
      "chip": "ym2612"
    },
    {
      "channel": 2,
      "note": 66,
      "start": 54.8237,
      "duration": 0.0189,
      "velocity": 100,
      "chip": "ym2612"
    },
    {
      "channel": 0,
      "note": 78,
      "start": 54.8369,
      "duration": 0.0139,
      "velocity": 127,
      "chip": "ym2612"
    },
    {
      "channel": 5,
      "note": 78,
      "start": 54.8384,
      "duration": 0.0139,
      "velocity": 110,
      "chip": "ym2612"
    },
    {
      "channel": 4,
      "note": 76,
      "start": 54.8399,
      "duration": 0.0137,
      "velocity": 110,
      "chip": "ym2612"
    },
    {
      "channel": 2,
      "note": 54,
      "start": 54.8426,
      "duration": 0.0135,
      "velocity": 100,
      "chip": "ym2612"
    },
    {
      "channel": 0,
      "note": 76,
      "start": 54.8507,
      "duration": 0.0159,
      "velocity": 127,
      "chip": "ym2612"
    },
    {
      "channel": 5,
      "note": 78,
      "start": 54.8523,
      "duration": 0.016,
      "velocity": 110,
      "chip": "ym2612"
    },
    {
      "channel": 4,
      "note": 76,
      "start": 54.8536,
      "duration": 0.0159,
      "velocity": 110,
      "chip": "ym2612"
    },
    {
      "channel": 2,
      "note": 54,
      "start": 54.8561,
      "duration": 0.0158,
      "velocity": 100,
      "chip": "ym2612"
    },
    {
      "channel": 0,
      "note": 75,
      "start": 54.8666,
      "duration": 0.0161,
      "velocity": 127,
      "chip": "ym2612"
    },
    {
      "channel": 5,
      "note": 78,
      "start": 54.8683,
      "duration": 0.0157,
      "velocity": 110,
      "chip": "ym2612"
    },
    {
      "channel": 4,
      "note": 76,
      "start": 54.8695,
      "duration": 0.0161,
      "velocity": 110,
      "chip": "ym2612"
    },
    {
      "channel": 2,
      "note": 54,
      "start": 54.8719,
      "duration": 0.0161,
      "velocity": 100,
      "chip": "ym2612"
    },
    {
      "channel": 0,
      "note": 73,
      "start": 54.8827,
      "duration": 0.0161,
      "velocity": 127,
      "chip": "ym2612"
    },
    {
      "channel": 5,
      "note": 78,
      "start": 54.884,
      "duration": 0.0159,
      "velocity": 110,
      "chip": "ym2612"
    },
    {
      "channel": 4,
      "note": 76,
      "start": 54.8856,
      "duration": 0.016,
      "velocity": 110,
      "chip": "ym2612"
    },
    {
      "channel": 2,
      "note": 54,
      "start": 54.888,
      "duration": 0.0161,
      "velocity": 100,
      "chip": "ym2612"
    },
    {
      "channel": 0,
      "note": 71,
      "start": 54.8988,
      "duration": 0.0161,
      "velocity": 127,
      "chip": "ym2612"
    },
    {
      "channel": 5,
      "note": 78,
      "start": 54.8999,
      "duration": 0.0161,
      "velocity": 110,
      "chip": "ym2612"
    },
    {
      "channel": 4,
      "note": 76,
      "start": 54.9016,
      "duration": 0.0159,
      "velocity": 110,
      "chip": "ym2612"
    },
    {
      "channel": 2,
      "note": 54,
      "start": 54.9041,
      "duration": 0.0161,
      "velocity": 100,
      "chip": "ym2612"
    },
    {
      "channel": 0,
      "note": 70,
      "start": 54.9149,
      "duration": 0.0179,
      "velocity": 115,
      "chip": "ym2612"
    },
    {
      "channel": 5,
      "note": 78,
      "start": 54.9161,
      "duration": 0.0181,
      "velocity": 110,
      "chip": "ym2612"
    },
    {
      "channel": 4,
      "note": 76,
      "start": 54.9175,
      "duration": 0.0183,
      "velocity": 110,
      "chip": "ym2612"
    },
    {
      "channel": 2,
      "note": 54,
      "start": 54.9203,
      "duration": 0.0179,
      "velocity": 100,
      "chip": "ym2612"
    },
    {
      "channel": 0,
      "note": 36,
      "start": 54.9328,
      "duration": 0.0143,
      "velocity": 115,
      "chip": "ym2612"
    },
    {
      "channel": 5,
      "note": 78,
      "start": 54.9342,
      "duration": 0.0141,
      "velocity": 110,
      "chip": "ym2612"
    },
    {
      "channel": 4,
      "note": 76,
      "start": 54.9358,
      "duration": 0.0137,
      "velocity": 110,
      "chip": "ym2612"
    },
    {
      "channel": 2,
      "note": 54,
      "start": 54.9382,
      "duration": 0.0144,
      "velocity": 100,
      "chip": "ym2612"
    },
    {
      "channel": 0,
      "note": 36,
      "start": 54.9471,
      "duration": 0.016,
      "velocity": 115,
      "chip": "ym2612"
    },
    {
      "channel": 2,
      "note": 54,
      "start": 54.9526,
      "duration": 0.0159,
      "velocity": 100,
      "chip": "ym2612"
    },
    {
      "channel": 0,
      "note": 37,
      "start": 54.9632,
      "duration": 0.0162,
      "velocity": 115,
      "chip": "ym2612"
    },
    {
      "channel": 2,
      "note": 54,
      "start": 54.9685,
      "duration": 0.0158,
      "velocity": 100,
      "chip": "ym2612"
    },
    {
      "channel": 0,
      "note": 37,
      "start": 54.9793,
      "duration": 0.0161,
      "velocity": 115,
      "chip": "ym2612"
    },
    {
      "channel": 2,
      "note": 54,
      "start": 54.9843,
      "duration": 0.0159,
      "velocity": 100,
      "chip": "ym2612"
    },
    {
      "channel": 0,
      "note": 38,
      "start": 54.9954,
      "duration": 0.0161,
      "velocity": 115,
      "chip": "ym2612"
    },
    {
      "channel": 2,
      "note": 54,
      "start": 55.0002,
      "duration": 0.0161,
      "velocity": 100,
      "chip": "ym2612"
    },
    {
      "channel": 0,
      "note": 38,
      "start": 55.0115,
      "duration": 0.0161,
      "velocity": 115,
      "chip": "ym2612"
    },
    {
      "channel": 2,
      "note": 54,
      "start": 55.0163,
      "duration": 0.0161,
      "velocity": 100,
      "chip": "ym2612"
    },
    {
      "channel": 0,
      "note": 39,
      "start": 55.0276,
      "duration": 0.0179,
      "velocity": 124,
      "chip": "ym2612"
    },
    {
      "channel": 2,
      "note": 54,
      "start": 55.0324,
      "duration": 0.0195,
      "velocity": 100,
      "chip": "ym2612"
    },
    {
      "channel": 0,
      "note": 84,
      "start": 55.0455,
      "duration": 0.0143,
      "velocity": 124,
      "chip": "ym2612"
    },
    {
      "channel": 5,
      "note": 76,
      "start": 55.0471,
      "duration": 0.0139,
      "velocity": 110,
      "chip": "ym2612"
    },
    {
      "channel": 4,
      "note": 78,
      "start": 55.0487,
      "duration": 0.0136,
      "velocity": 110,
      "chip": "ym2612"
    },
    {
      "channel": 2,
      "note": 49,
      "start": 55.052,
      "duration": 0.0128,
      "velocity": 100,
      "chip": "ym2612"
    },
    {
      "channel": 0,
      "note": 82,
      "start": 55.0598,
      "duration": 0.016,
      "velocity": 124,
      "chip": "ym2612"
    },
    {
      "channel": 5,
      "note": 76,
      "start": 55.061,
      "duration": 0.016,
      "velocity": 110,
      "chip": "ym2612"
    },
    {
      "channel": 4,
      "note": 78,
      "start": 55.0623,
      "duration": 0.0159,
      "velocity": 110,
      "chip": "ym2612"
    },
    {
      "channel": 2,
      "note": 49,
      "start": 55.0648,
      "duration": 0.0159,
      "velocity": 100,
      "chip": "ym2612"
    },
    {
      "channel": 0,
      "note": 80,
      "start": 55.0759,
      "duration": 0.0161,
      "velocity": 124,
      "chip": "ym2612"
    },
    {
      "channel": 5,
      "note": 76,
      "start": 55.0771,
      "duration": 0.0161,
      "velocity": 110,
      "chip": "ym2612"
    },
    {
      "channel": 4,
      "note": 78,
      "start": 55.0782,
      "duration": 0.0161,
      "velocity": 110,
      "chip": "ym2612"
    },
    {
      "channel": 2,
      "note": 49,
      "start": 55.0807,
      "duration": 0.0161,
      "velocity": 100,
      "chip": "ym2612"
    },
    {
      "channel": 0,
      "note": 77,
      "start": 55.092,
      "duration": 0.0161,
      "velocity": 124,
      "chip": "ym2612"
    },
    {
      "channel": 5,
      "note": 76,
      "start": 55.0932,
      "duration": 0.0161,
      "velocity": 110,
      "chip": "ym2612"
    },
    {
      "channel": 4,
      "note": 78,
      "start": 55.0943,
      "duration": 0.0161,
      "velocity": 110,
      "chip": "ym2612"
    },
    {
      "channel": 2,
      "note": 49,
      "start": 55.0968,
      "duration": 0.0161,
      "velocity": 100,
      "chip": "ym2612"
    },
    {
      "channel": 0,
      "note": 75,
      "start": 55.1081,
      "duration": 0.0161,
      "velocity": 124,
      "chip": "ym2612"
    },
    {
      "channel": 5,
      "note": 76,
      "start": 55.1093,
      "duration": 0.0161,
      "velocity": 110,
      "chip": "ym2612"
    },
    {
      "channel": 4,
      "note": 78,
      "start": 55.1104,
      "duration": 0.0161,
      "velocity": 110,
      "chip": "ym2612"
    },
    {
      "channel": 2,
      "note": 49,
      "start": 55.1129,
      "duration": 0.0161,
      "velocity": 100,
      "chip": "ym2612"
    },
    {
      "channel": 0,
      "note": 72,
      "start": 55.1242,
      "duration": 0.0179,
      "velocity": 124,
      "chip": "ym2612"
    },
    {
      "channel": 5,
      "note": 76,
      "start": 55.1254,
      "duration": 0.0179,
      "velocity": 110,
      "chip": "ym2612"
    },
    {
      "channel": 4,
      "note": 78,
      "start": 55.1265,
      "duration": 0.018,
      "velocity": 110,
      "chip": "ym2612"
    },
    {
      "channel": 2,
      "note": 49,
      "start": 55.129,
      "duration": 0.0179,
      "velocity": 100,
      "chip": "ym2612"
    },
    {
      "channel": 0,
      "note": 84,
      "start": 55.1422,
      "duration": 0.0143,
      "velocity": 124,
      "chip": "ym2612"
    },
    {
      "channel": 5,
      "note": 76,
      "start": 55.1433,
      "duration": 0.0143,
      "velocity": 110,
      "chip": "ym2612"
    },
    {
      "channel": 4,
      "note": 78,
      "start": 55.1445,
      "duration": 0.0143,
      "velocity": 110,
      "chip": "ym2612"
    },
    {
      "channel": 2,
      "note": 49,
      "start": 55.1469,
      "duration": 0.0143,
      "velocity": 100,
      "chip": "ym2612"
    },
    {
      "channel": 0,
      "note": 82,
      "start": 55.1565,
      "duration": 0.016,
      "velocity": 124,
      "chip": "ym2612"
    },
    {
      "channel": 2,
      "note": 49,
      "start": 55.1612,
      "duration": 0.016,
      "velocity": 100,
      "chip": "ym2612"
    },
    {
      "channel": 0,
      "note": 80,
      "start": 55.1725,
      "duration": 0.0161,
      "velocity": 124,
      "chip": "ym2612"
    },
    {
      "channel": 2,
      "note": 49,
      "start": 55.1773,
      "duration": 0.0161,
      "velocity": 100,
      "chip": "ym2612"
    },
    {
      "channel": 0,
      "note": 77,
      "start": 55.1886,
      "duration": 0.0161,
      "velocity": 124,
      "chip": "ym2612"
    },
    {
      "channel": 2,
      "note": 49,
      "start": 55.1934,
      "duration": 0.0161,
      "velocity": 100,
      "chip": "ym2612"
    },
    {
      "channel": 0,
      "note": 75,
      "start": 55.2047,
      "duration": 0.0161,
      "velocity": 124,
      "chip": "ym2612"
    },
    {
      "channel": 2,
      "note": 49,
      "start": 55.2095,
      "duration": 0.0161,
      "velocity": 100,
      "chip": "ym2612"
    },
    {
      "channel": 0,
      "note": 72,
      "start": 55.2208,
      "duration": 0.0161,
      "velocity": 124,
      "chip": "ym2612"
    },
    {
      "channel": 2,
      "note": 49,
      "start": 55.2256,
      "duration": 0.0161,
      "velocity": 100,
      "chip": "ym2612"
    },
    {
      "channel": 0,
      "note": 70,
      "start": 55.2369,
      "duration": 0.0183,
      "velocity": 115,
      "chip": "ym2612"
    },
    {
      "channel": 2,
      "note": 49,
      "start": 55.2418,
      "duration": 0.0192,
      "velocity": 100,
      "chip": "ym2612"
    },
    {
      "channel": 0,
      "note": 36,
      "start": 55.2553,
      "duration": 0.0145,
      "velocity": 115,
      "chip": "ym2612"
    },
    {
      "channel": 5,
      "note": 78,
      "start": 55.2567,
      "duration": 0.0142,
      "velocity": 110,
      "chip": "ym2612"
    },
    {
      "channel": 4,
      "note": 76,
      "start": 55.2583,
      "duration": 0.014,
      "velocity": 110,
      "chip": "ym2612"
    },
    {
      "channel": 2,
      "note": 54,
      "start": 55.261,
      "duration": 0.0137,
      "velocity": 100,
      "chip": "ym2612"
    },
    {
      "channel": 1,
      "note": 102,
      "start": 55.2639,
      "duration": 0.012,
      "velocity": 85,
      "chip": "ym2612"
    },
    {
      "channel": 0,
      "note": 36,
      "start": 55.2698,
      "duration": 0.016,
      "velocity": 115,
      "chip": "ym2612"
    },
    {
      "channel": 5,
      "note": 78,
      "start": 55.271,
      "duration": 0.016,
      "velocity": 110,
      "chip": "ym2612"
    },
    {
      "channel": 4,
      "note": 76,
      "start": 55.2722,
      "duration": 0.0159,
      "velocity": 110,
      "chip": "ym2612"
    },
    {
      "channel": 2,
      "note": 54,
      "start": 55.2747,
      "duration": 0.0158,
      "velocity": 100,
      "chip": "ym2612"
    },
    {
      "channel": 1,
      "note": 102,
      "start": 55.2759,
      "duration": 0.0158,
      "velocity": 85,
      "chip": "ym2612"
    },
    {
      "channel": 0,
      "note": 37,
      "start": 55.2858,
      "duration": 0.016,
      "velocity": 115,
      "chip": "ym2612"
    },
    {
      "channel": 5,
      "note": 78,
      "start": 55.2869,
      "duration": 0.0161,
      "velocity": 110,
      "chip": "ym2612"
    },
    {
      "channel": 4,
      "note": 76,
      "start": 55.2882,
      "duration": 0.0161,
      "velocity": 110,
      "chip": "ym2612"
    },
    {
      "channel": 2,
      "note": 54,
      "start": 55.2906,
      "duration": 0.0161,
      "velocity": 100,
      "chip": "ym2612"
    },
    {
      "channel": 1,
      "note": 102,
      "start": 55.2918,
      "duration": 0.0161,
      "velocity": 85,
      "chip": "ym2612"
    },
    {
      "channel": 0,
      "note": 37,
      "start": 55.3018,
      "duration": 0.0158,
      "velocity": 115,
      "chip": "ym2612"
    },
    {
      "channel": 5,
      "note": 78,
      "start": 55.303,
      "duration": 0.0162,
      "velocity": 110,
      "chip": "ym2612"
    },
    {
      "channel": 4,
      "note": 76,
      "start": 55.3042,
      "duration": 0.0161,
      "velocity": 110,
      "chip": "ym2612"
    },
    {
      "channel": 2,
      "note": 54,
      "start": 55.3067,
      "duration": 0.0161,
      "velocity": 100,
      "chip": "ym2612"
    },
    {
      "channel": 0,
      "note": 38,
      "start": 55.3176,
      "duration": 0.0159,
      "velocity": 115,
      "chip": "ym2612"
    },
    {
      "channel": 5,
      "note": 78,
      "start": 55.3192,
      "duration": 0.016,
      "velocity": 110,
      "chip": "ym2612"
    },
    {
      "channel": 4,
      "note": 76,
      "start": 55.3203,
      "duration": 0.0161,
      "velocity": 110,
      "chip": "ym2612"
    },
    {
      "channel": 2,
      "note": 54,
      "start": 55.3228,
      "duration": 0.0161,
      "velocity": 100,
      "chip": "ym2612"
    },
    {
      "channel": 0,
      "note": 38,
      "start": 55.3335,
      "duration": 0.0185,
      "velocity": 124,
      "chip": "ym2612"
    },
    {
      "channel": 5,
      "note": 78,
      "start": 55.3352,
      "duration": 0.018,
      "velocity": 110,
      "chip": "ym2612"
    },
    {
      "channel": 4,
      "note": 76,
      "start": 55.3364,
      "duration": 0.0179,
      "velocity": 110,
      "chip": "ym2612"
    },
    {
      "channel": 2,
      "note": 54,
      "start": 55.3389,
      "duration": 0.0179,
      "velocity": 100,
      "chip": "ym2612"
    },
    {
      "channel": 0,
      "note": 84,
      "start": 55.352,
      "duration": 0.0137,
      "velocity": 124,
      "chip": "ym2612"
    },
    {
      "channel": 5,
      "note": 78,
      "start": 55.3532,
      "duration": 0.0137,
      "velocity": 110,
      "chip": "ym2612"
    },
    {
      "channel": 4,
      "note": 76,
      "start": 55.3544,
      "duration": 0.0144,
      "velocity": 110,
      "chip": "ym2612"
    },
    {
      "channel": 2,
      "note": 54,
      "start": 55.3568,
      "duration": 0.0143,
      "velocity": 100,
      "chip": "ym2612"
    },
    {
      "channel": 1,
      "note": 100,
      "start": 55.3583,
      "duration": 0.0141,
      "velocity": 85,
      "chip": "ym2612"
    },
    {
      "channel": 0,
      "note": 82,
      "start": 55.3658,
      "duration": 0.016,
      "velocity": 124,
      "chip": "ym2612"
    },
    {
      "channel": 2,
      "note": 54,
      "start": 55.3712,
      "duration": 0.016,
      "velocity": 100,
      "chip": "ym2612"
    },
    {
      "channel": 1,
      "note": 100,
      "start": 55.3724,
      "duration": 0.0159,
      "velocity": 85,
      "chip": "ym2612"
    },
    {
      "channel": 0,
      "note": 80,
      "start": 55.3818,
      "duration": 0.0161,
      "velocity": 124,
      "chip": "ym2612"
    },
    {
      "channel": 2,
      "note": 54,
      "start": 55.3872,
      "duration": 0.0161,
      "velocity": 100,
      "chip": "ym2612"
    },
    {
      "channel": 1,
      "note": 100,
      "start": 55.3883,
      "duration": 0.0161,
      "velocity": 85,
      "chip": "ym2612"
    },
    {
      "channel": 0,
      "note": 77,
      "start": 55.3979,
      "duration": 0.0161,
      "velocity": 124,
      "chip": "ym2612"
    },
    {
      "channel": 2,
      "note": 54,
      "start": 55.4033,
      "duration": 0.0161,
      "velocity": 100,
      "chip": "ym2612"
    },
    {
      "channel": 1,
      "note": 100,
      "start": 55.4044,
      "duration": 0.0161,
      "velocity": 85,
      "chip": "ym2612"
    },
    {
      "channel": 0,
      "note": 75,
      "start": 55.414,
      "duration": 0.0161,
      "velocity": 124,
      "chip": "ym2612"
    },
    {
      "channel": 2,
      "note": 54,
      "start": 55.4194,
      "duration": 0.0161,
      "velocity": 100,
      "chip": "ym2612"
    },
    {
      "channel": 0,
      "note": 72,
      "start": 55.4301,
      "duration": 0.0161,
      "velocity": 124,
      "chip": "ym2612"
    },
    {
      "channel": 2,
      "note": 54,
      "start": 55.4355,
      "duration": 0.016,
      "velocity": 100,
      "chip": "ym2612"
    },
    {
      "channel": 0,
      "note": 70,
      "start": 55.4462,
      "duration": 0.0161,
      "velocity": 124,
      "chip": "ym2612"
    },
    {
      "channel": 2,
      "note": 54,
      "start": 55.4515,
      "duration": 0.019,
      "velocity": 100,
      "chip": "ym2612"
    },
    {
      "channel": 0,
      "note": 68,
      "start": 55.4623,
      "duration": 0.0161,
      "velocity": 124,
      "chip": "ym2612"
    },
    {
      "channel": 5,
      "note": 76,
      "start": 55.464,
      "duration": 0.0156,
      "velocity": 110,
      "chip": "ym2612"
    },
    {
      "channel": 4,
      "note": 78,
      "start": 55.4658,
      "duration": 0.0151,
      "velocity": 110,
      "chip": "ym2612"
    },
    {
      "channel": 3,
      "note": 102,
      "start": 55.4693,
      "duration": 0.0128,
      "velocity": 85,
      "chip": "ym2612"
    },
    {
      "channel": 2,
      "note": 54,
      "start": 55.4705,
      "duration": 0.0128,
      "velocity": 100,
      "chip": "ym2612"
    },
    {
      "channel": 1,
      "note": 99,
      "start": 55.4719,
      "duration": 0.0132,
      "velocity": 85,
      "chip": "ym2612"
    },
    {
      "channel": 0,
      "note": 65,
      "start": 55.4784,
      "duration": 0.0161,
      "velocity": 124,
      "chip": "ym2612"
    },
    {
      "channel": 5,
      "note": 76,
      "start": 55.4796,
      "duration": 0.0161,
      "velocity": 110,
      "chip": "ym2612"
    },
    {
      "channel": 4,
      "note": 78,
      "start": 55.4809,
      "duration": 0.016,
      "velocity": 110,
      "chip": "ym2612"
    },
    {
      "channel": 3,
      "note": 102,
      "start": 55.4821,
      "duration": 0.0159,
      "velocity": 85,
      "chip": "ym2612"
    },
    {
      "channel": 2,
      "note": 54,
      "start": 55.4833,
      "duration": 0.0159,
      "velocity": 100,
      "chip": "ym2612"
    },
    {
      "channel": 1,
      "note": 99,
      "start": 55.4851,
      "duration": 0.0155,
      "velocity": 85,
      "chip": "ym2612"
    },
    {
      "channel": 0,
      "note": 63,
      "start": 55.4945,
      "duration": 0.0153,
      "velocity": 1,
      "chip": "ym2612"
    },
    {
      "channel": 5,
      "note": 76,
      "start": 55.4957,
      "duration": 0.0153,
      "velocity": 110,
      "chip": "ym2612"
    },
    {
      "channel": 4,
      "note": 78,
      "start": 55.4969,
      "duration": 0.0153,
      "velocity": 110,
      "chip": "ym2612"
    },
    {
      "channel": 3,
      "note": 102,
      "start": 55.498,
      "duration": 0.0153,
      "velocity": 85,
      "chip": "ym2612"
    },
    {
      "channel": 2,
      "note": 54,
      "start": 55.4992,
      "duration": 0.0153,
      "velocity": 100,
      "chip": "ym2612"
    },
    {
      "channel": 1,
      "note": 99,
      "start": 55.5006,
      "duration": 0.0151,
      "velocity": 85,
      "chip": "ym2612"
    },
    {
      "channel": 2,
      "note": 54,
      "start": 55.5145,
      "duration": 0.0152,
      "velocity": 100,
      "chip": "ym2612"
    },
    {
      "channel": 2,
      "note": 54,
      "start": 55.5297,
      "duration": 0.0161,
      "velocity": 100,
      "chip": "ym2612"
    },
    {
      "channel": 2,
      "note": 54,
      "start": 55.5458,
      "duration": 0.0209,
      "velocity": 100,
      "chip": "ym2612"
    },
    {
      "channel": 0,
      "note": 36,
      "start": 55.5608,
      "duration": 0.0143,
      "velocity": 115,
      "chip": "ym2612"
    },
    {
      "channel": 5,
      "note": 76,
      "start": 55.5623,
      "duration": 0.0141,
      "velocity": 110,
      "chip": "ym2612"
    },
    {
      "channel": 4,
      "note": 78,
      "start": 55.5637,
      "duration": 0.0139,
      "velocity": 110,
      "chip": "ym2612"
    },
    {
      "channel": 3,
      "note": 100,
      "start": 55.5652,
      "duration": 0.0136,
      "velocity": 85,
      "chip": "ym2612"
    },
    {
      "channel": 2,
      "note": 54,
      "start": 55.5666,
      "duration": 0.0134,
      "velocity": 100,
      "chip": "ym2612"
    },
    {
      "channel": 1,
      "note": 97,
      "start": 55.5688,
      "duration": 0.0125,
      "velocity": 85,
      "chip": "ym2612"
    },
    {
      "channel": 0,
      "note": 36,
      "start": 55.5751,
      "duration": 0.016,
      "velocity": 115,
      "chip": "ym2612"
    },
    {
      "channel": 5,
      "note": 76,
      "start": 55.5763,
      "duration": 0.016,
      "velocity": 110,
      "chip": "ym2612"
    },
    {
      "channel": 4,
      "note": 78,
      "start": 55.5776,
      "duration": 0.0159,
      "velocity": 110,
      "chip": "ym2612"
    },
    {
      "channel": 3,
      "note": 100,
      "start": 55.5788,
      "duration": 0.0159,
      "velocity": 85,
      "chip": "ym2612"
    },
    {
      "channel": 2,
      "note": 54,
      "start": 55.58,
      "duration": 0.0158,
      "velocity": 100,
      "chip": "ym2612"
    },
    {
      "channel": 1,
      "note": 97,
      "start": 55.5812,
      "duration": 0.0157,
      "velocity": 85,
      "chip": "ym2612"
    },
    {
      "channel": 0,
      "note": 37,
      "start": 55.5911,
      "duration": 0.0161,
      "velocity": 115,
      "chip": "ym2612"
    },
    {
      "channel": 5,
      "note": 76,
      "start": 55.5923,
      "duration": 0.0161,
      "velocity": 110,
      "chip": "ym2612"
    },
    {
      "channel": 4,
      "note": 78,
      "start": 55.5935,
      "duration": 0.0161,
      "velocity": 110,
      "chip": "ym2612"
    },
    {
      "channel": 3,
      "note": 100,
      "start": 55.5946,
      "duration": 0.0161,
      "velocity": 85,
      "chip": "ym2612"
    },
    {
      "channel": 2,
      "note": 54,
      "start": 55.5958,
      "duration": 0.0161,
      "velocity": 100,
      "chip": "ym2612"
    },
    {
      "channel": 1,
      "note": 97,
      "start": 55.5969,
      "duration": 0.0161,
      "velocity": 85,
      "chip": "ym2612"
    },
    {
      "channel": 0,
      "note": 37,
      "start": 55.6072,
      "duration": 0.0161,
      "velocity": 115,
      "chip": "ym2612"
    },
    {
      "channel": 5,
      "note": 76,
      "start": 55.6084,
      "duration": 0.0161,
      "velocity": 110,
      "chip": "ym2612"
    },
    {
      "channel": 4,
      "note": 78,
      "start": 55.6096,
      "duration": 0.0161,
      "velocity": 110,
      "chip": "ym2612"
    },
    {
      "channel": 3,
      "note": 100,
      "start": 55.6107,
      "duration": 0.0162,
      "velocity": 85,
      "chip": "ym2612"
    },
    {
      "channel": 2,
      "note": 54,
      "start": 55.6119,
      "duration": 0.0161,
      "velocity": 100,
      "chip": "ym2612"
    },
    {
      "channel": 1,
      "note": 97,
      "start": 55.613,
      "duration": 0.0162,
      "velocity": 85,
      "chip": "ym2612"
    },
    {
      "channel": 0,
      "note": 38,
      "start": 55.6233,
      "duration": 0.0161,
      "velocity": 115,
      "chip": "ym2612"
    },
    {
      "channel": 2,
      "note": 54,
      "start": 55.628,
      "duration": 0.016,
      "velocity": 100,
      "chip": "ym2612"
    },
    {
      "channel": 0,
      "note": 38,
      "start": 55.6394,
      "duration": 0.0161,
      "velocity": 115,
      "chip": "ym2612"
    },
    {
      "channel": 2,
      "note": 54,
      "start": 55.6441,
      "duration": 0.0161,
      "velocity": 100,
      "chip": "ym2612"
    },
    {
      "channel": 0,
      "note": 39,
      "start": 55.6555,
      "duration": 0.018,
      "velocity": 124,
      "chip": "ym2612"
    },
    {
      "channel": 2,
      "note": 54,
      "start": 55.6602,
      "duration": 0.0191,
      "velocity": 100,
      "chip": "ym2612"
    },
    {
      "channel": 0,
      "note": 84,
      "start": 55.6735,
      "duration": 0.0143,
      "velocity": 124,
      "chip": "ym2612"
    },
    {
      "channel": 5,
      "note": 78,
      "start": 55.675,
      "duration": 0.0141,
      "velocity": 110,
      "chip": "ym2612"
    },
    {
      "channel": 4,
      "note": 76,
      "start": 55.6765,
      "duration": 0.0137,
      "velocity": 110,
      "chip": "ym2612"
    },
    {
      "channel": 3,
      "note": 99,
      "start": 55.678,
      "duration": 0.0135,
      "velocity": 85,
      "chip": "ym2612"
    },
    {
      "channel": 2,
      "note": 54,
      "start": 55.6793,
      "duration": 0.0134,
      "velocity": 100,
      "chip": "ym2612"
    },
    {
      "channel": 1,
      "note": 100,
      "start": 55.6807,
      "duration": 0.0132,
      "velocity": 85,
      "chip": "ym2612"
    },
    {
      "channel": 0,
      "note": 82,
      "start": 55.6878,
      "duration": 0.0161,
      "velocity": 124,
      "chip": "ym2612"
    },
    {
      "channel": 5,
      "note": 78,
      "start": 55.689,
      "duration": 0.016,
      "velocity": 110,
      "chip": "ym2612"
    },
    {
      "channel": 4,
      "note": 76,
      "start": 55.6902,
      "duration": 0.0159,
      "velocity": 110,
      "chip": "ym2612"
    },
    {
      "channel": 3,
      "note": 99,
      "start": 55.6915,
      "duration": 0.0159,
      "velocity": 85,
      "chip": "ym2612"
    },
    {
      "channel": 2,
      "note": 54,
      "start": 55.6927,
      "duration": 0.0159,
      "velocity": 100,
      "chip": "ym2612"
    },
    {
      "channel": 1,
      "note": 100,
      "start": 55.6939,
      "duration": 0.0159,
      "velocity": 85,
      "chip": "ym2612"
    },
    {
      "channel": 0,
      "note": 80,
      "start": 55.7039,
      "duration": 0.0162,
      "velocity": 124,
      "chip": "ym2612"
    },
    {
      "channel": 5,
      "note": 78,
      "start": 55.705,
      "duration": 0.0162,
      "velocity": 110,
      "chip": "ym2612"
    },
    {
      "channel": 4,
      "note": 76,
      "start": 55.7061,
      "duration": 0.0162,
      "velocity": 110,
      "chip": "ym2612"
    },
    {
      "channel": 3,
      "note": 99,
      "start": 55.7074,
      "duration": 0.0161,
      "velocity": 85,
      "chip": "ym2612"
    },
    {
      "channel": 2,
      "note": 54,
      "start": 55.7086,
      "duration": 0.0161,
      "velocity": 100,
      "chip": "ym2612"
    },
    {
      "channel": 1,
      "note": 100,
      "start": 55.7097,
      "duration": 0.0161,
      "velocity": 85,
      "chip": "ym2612"
    },
    {
      "channel": 0,
      "note": 77,
      "start": 55.72,
      "duration": 0.0164,
      "velocity": 124,
      "chip": "ym2612"
    },
    {
      "channel": 2,
      "note": 54,
      "start": 55.7247,
      "duration": 0.0164,
      "velocity": 100,
      "chip": "ym2612"
    },
    {
      "channel": 0,
      "note": 75,
      "start": 55.7364,
      "duration": 0.0163,
      "velocity": 124,
      "chip": "ym2612"
    },
    {
      "channel": 2,
      "note": 54,
      "start": 55.7411,
      "duration": 0.0163,
      "velocity": 100,
      "chip": "ym2612"
    },
    {
      "channel": 0,
      "note": 72,
      "start": 55.7527,
      "duration": 0.0179,
      "velocity": 115,
      "chip": "ym2612"
    },
    {
      "channel": 2,
      "note": 54,
      "start": 55.7574,
      "duration": 0.0191,
      "velocity": 100,
      "chip": "ym2612"
    },
    {
      "channel": 0,
      "note": 36,
      "start": 55.7707,
      "duration": 0.0142,
      "velocity": 115,
      "chip": "ym2612"
    },
    {
      "channel": 5,
      "note": 78,
      "start": 55.7721,
      "duration": 0.0141,
      "velocity": 110,
      "chip": "ym2612"
    },
    {
      "channel": 4,
      "note": 76,
      "start": 55.7736,
      "duration": 0.0139,
      "velocity": 110,
      "chip": "ym2612"
    },
    {
      "channel": 3,
      "note": 97,
      "start": 55.7751,
      "duration": 0.0136,
      "velocity": 85,
      "chip": "ym2612"
    },
    {
      "channel": 2,
      "note": 54,
      "start": 55.7764,
      "duration": 0.0135,
      "velocity": 100,
      "chip": "ym2612"
    },
    {
      "channel": 1,
      "note": 99,
      "start": 55.7779,
      "duration": 0.0132,
      "velocity": 85,
      "chip": "ym2612"
    },
    {
      "channel": 0,
      "note": 36,
      "start": 55.7849,
      "duration": 0.0157,
      "velocity": 115,
      "chip": "ym2612"
    },
    {
      "channel": 5,
      "note": 78,
      "start": 55.7862,
      "duration": 0.0159,
      "velocity": 110,
      "chip": "ym2612"
    },
    {
      "channel": 4,
      "note": 76,
      "start": 55.7875,
      "duration": 0.0159,
      "velocity": 110,
      "chip": "ym2612"
    },
    {
      "channel": 3,
      "note": 97,
      "start": 55.7887,
      "duration": 0.0159,
      "velocity": 85,
      "chip": "ym2612"
    },
    {
      "channel": 2,
      "note": 54,
      "start": 55.7899,
      "duration": 0.0159,
      "velocity": 100,
      "chip": "ym2612"
    },
    {
      "channel": 1,
      "note": 99,
      "start": 55.7911,
      "duration": 0.0158,
      "velocity": 85,
      "chip": "ym2612"
    },
    {
      "channel": 0,
      "note": 37,
      "start": 55.8006,
      "duration": 0.0159,
      "velocity": 115,
      "chip": "ym2612"
    },
    {
      "channel": 5,
      "note": 78,
      "start": 55.8022,
      "duration": 0.0161,
      "velocity": 110,
      "chip": "ym2612"
    },
    {
      "channel": 4,
      "note": 76,
      "start": 55.8034,
      "duration": 0.0161,
      "velocity": 110,
      "chip": "ym2612"
    },
    {
      "channel": 3,
      "note": 97,
      "start": 55.8045,
      "duration": 0.0161,
      "velocity": 85,
      "chip": "ym2612"
    },
    {
      "channel": 2,
      "note": 54,
      "start": 55.8058,
      "duration": 0.0161,
      "velocity": 100,
      "chip": "ym2612"
    },
    {
      "channel": 1,
      "note": 99,
      "start": 55.8069,
      "duration": 0.0161,
      "velocity": 85,
      "chip": "ym2612"
    },
    {
      "channel": 0,
      "note": 37,
      "start": 55.8165,
      "duration": 0.0161,
      "velocity": 115,
      "chip": "ym2612"
    },
    {
      "channel": 5,
      "note": 78,
      "start": 55.8182,
      "duration": 0.0158,
      "velocity": 110,
      "chip": "ym2612"
    },
    {
      "channel": 4,
      "note": 76,
      "start": 55.8195,
      "duration": 0.0161,
      "velocity": 110,
      "chip": "ym2612"
    },
    {
      "channel": 3,
      "note": 97,
      "start": 55.8207,
      "duration": 0.0161,
      "velocity": 85,
      "chip": "ym2612"
    },
    {
      "channel": 2,
      "note": 54,
      "start": 55.8219,
      "duration": 0.0162,
      "velocity": 100,
      "chip": "ym2612"
    },
    {
      "channel": 1,
      "note": 99,
      "start": 55.823,
      "duration": 0.0161,
      "velocity": 85,
      "chip": "ym2612"
    },
    {
      "channel": 0,
      "note": 38,
      "start": 55.8326,
      "duration": 0.0161,
      "velocity": 115,
      "chip": "ym2612"
    },
    {
      "channel": 2,
      "note": 54,
      "start": 55.838,
      "duration": 0.016,
      "velocity": 100,
      "chip": "ym2612"
    },
    {
      "channel": 0,
      "note": 38,
      "start": 55.8487,
      "duration": 0.0161,
      "velocity": 115,
      "chip": "ym2612"
    },
    {
      "channel": 2,
      "note": 54,
      "start": 55.8541,
      "duration": 0.0161,
      "velocity": 100,
      "chip": "ym2612"
    },
    {
      "channel": 0,
      "note": 39,
      "start": 55.8648,
      "duration": 0.0179,
      "velocity": 124,
      "chip": "ym2612"
    },
    {
      "channel": 2,
      "note": 54,
      "start": 55.8702,
      "duration": 0.0192,
      "velocity": 100,
      "chip": "ym2612"
    },
    {
      "channel": 0,
      "note": 84,
      "start": 55.8828,
      "duration": 0.0143,
      "velocity": 124,
      "chip": "ym2612"
    },
    {
      "channel": 5,
      "note": 76,
      "start": 55.8849,
      "duration": 0.0134,
      "velocity": 110,
      "chip": "ym2612"
    },
    {
      "channel": 4,
      "note": 78,
      "start": 55.8865,
      "duration": 0.0131,
      "velocity": 110,
      "chip": "ym2612"
    },
    {
      "channel": 3,
      "note": 100,
      "start": 55.888,
      "duration": 0.0134,
      "velocity": 85,
      "chip": "ym2612"
    },
    {
      "channel": 2,
      "note": 49,
      "start": 55.8894,
      "duration": 0.0132,
      "velocity": 100,
      "chip": "ym2612"
    },
    {
      "channel": 1,
      "note": 97,
      "start": 55.8909,
      "duration": 0.013,
      "velocity": 85,
      "chip": "ym2612"
    },
    {
      "channel": 0,
      "note": 82,
      "start": 55.8971,
      "duration": 0.016,
      "velocity": 124,
      "chip": "ym2612"
    },
    {
      "channel": 5,
      "note": 76,
      "start": 55.8983,
      "duration": 0.016,
      "velocity": 110,
      "chip": "ym2612"
    },
    {
      "channel": 4,
      "note": 78,
      "start": 55.8996,
      "duration": 0.0159,
      "velocity": 110,
      "chip": "ym2612"
    },
    {
      "channel": 3,
      "note": 100,
      "start": 55.9013,
      "duration": 0.0153,
      "velocity": 85,
      "chip": "ym2612"
    },
    {
      "channel": 2,
      "note": 49,
      "start": 55.9026,
      "duration": 0.0159,
      "velocity": 100,
      "chip": "ym2612"
    },
    {
      "channel": 1,
      "note": 97,
      "start": 55.9039,
      "duration": 0.0157,
      "velocity": 85,
      "chip": "ym2612"
    },
    {
      "channel": 0,
      "note": 80,
      "start": 55.9132,
      "duration": 0.0161,
      "velocity": 124,
      "chip": "ym2612"
    },
    {
      "channel": 5,
      "note": 76,
      "start": 55.9143,
      "duration": 0.0161,
      "velocity": 110,
      "chip": "ym2612"
    },
    {
      "channel": 4,
      "note": 78,
      "start": 55.9155,
      "duration": 0.0161,
      "velocity": 110,
      "chip": "ym2612"
    },
    {
      "channel": 3,
      "note": 100,
      "start": 55.9166,
      "duration": 0.0161,
      "velocity": 85,
      "chip": "ym2612"
    },
    {
      "channel": 2,
      "note": 49,
      "start": 55.9184,
      "duration": 0.0157,
      "velocity": 100,
      "chip": "ym2612"
    },
    {
      "channel": 1,
      "note": 97,
      "start": 55.9196,
      "duration": 0.0161,
      "velocity": 85,
      "chip": "ym2612"
    },
    {
      "channel": 0,
      "note": 77,
      "start": 55.9293,
      "duration": 0.0161,
      "velocity": 124,
      "chip": "ym2612"
    },
    {
      "channel": 5,
      "note": 76,
      "start": 55.9304,
      "duration": 0.0162,
      "velocity": 110,
      "chip": "ym2612"
    },
    {
      "channel": 4,
      "note": 78,
      "start": 55.9316,
      "duration": 0.0161,
      "velocity": 110,
      "chip": "ym2612"
    },
    {
      "channel": 2,
      "note": 49,
      "start": 55.9341,
      "duration": 0.0158,
      "velocity": 100,
      "chip": "ym2612"
    },
    {
      "channel": 0,
      "note": 75,
      "start": 55.9454,
      "duration": 0.0161,
      "velocity": 124,
      "chip": "ym2612"
    },
    {
      "channel": 5,
      "note": 76,
      "start": 55.9466,
      "duration": 0.0161,
      "velocity": 110,
      "chip": "ym2612"
    },
    {
      "channel": 4,
      "note": 78,
      "start": 55.9477,
      "duration": 0.0161,
      "velocity": 110,
      "chip": "ym2612"
    },
    {
      "channel": 2,
      "note": 49,
      "start": 55.95,
      "duration": 0.0161,
      "velocity": 100,
      "chip": "ym2612"
    },
    {
      "channel": 0,
      "note": 72,
      "start": 55.9614,
      "duration": 0.0179,
      "velocity": 124,
      "chip": "ym2612"
    },
    {
      "channel": 5,
      "note": 76,
      "start": 55.9627,
      "duration": 0.0179,
      "velocity": 110,
      "chip": "ym2612"
    },
    {
      "channel": 4,
      "note": 78,
      "start": 55.9638,
      "duration": 0.018,
      "velocity": 110,
      "chip": "ym2612"
    },
    {
      "channel": 2,
      "note": 49,
      "start": 55.9661,
      "duration": 0.0191,
      "velocity": 100,
      "chip": "ym2612"
    },
    {
      "channel": 0,
      "note": 84,
      "start": 55.9794,
      "duration": 0.0143,
      "velocity": 124,
      "chip": "ym2612"
    },
    {
      "channel": 5,
      "note": 76,
      "start": 55.9806,
      "duration": 0.0143,
      "velocity": 110,
      "chip": "ym2612"
    },
    {
      "channel": 4,
      "note": 78,
      "start": 55.9818,
      "duration": 0.0143,
      "velocity": 110,
      "chip": "ym2612"
    },
    {
      "channel": 3,
      "note": 99,
      "start": 55.9833,
      "duration": 0.0141,
      "velocity": 85,
      "chip": "ym2612"
    },
    {
      "channel": 2,
      "note": 51,
      "start": 55.9853,
      "duration": 0.0132,
      "velocity": 100,
      "chip": "ym2612"
    },
    {
      "channel": 1,
      "note": 95,
      "start": 55.9868,
      "duration": 0.013,
      "velocity": 85,
      "chip": "ym2612"
    },
    {
      "channel": 0,
      "note": 82,
      "start": 55.9937,
      "duration": 0.0161,
      "velocity": 124,
      "chip": "ym2612"
    },
    {
      "channel": 3,
      "note": 99,
      "start": 55.9973,
      "duration": 0.016,
      "velocity": 85,
      "chip": "ym2612"
    },
    {
      "channel": 2,
      "note": 51,
      "start": 55.9985,
      "duration": 0.0159,
      "velocity": 100,
      "chip": "ym2612"
    },
    {
      "channel": 1,
      "note": 95,
      "start": 55.9997,
      "duration": 0.0159,
      "velocity": 85,
      "chip": "ym2612"
    },
    {
      "channel": 0,
      "note": 80,
      "start": 56.0098,
      "duration": 0.0161,
      "velocity": 124,
      "chip": "ym2612"
    },
    {
      "channel": 3,
      "note": 99,
      "start": 56.0133,
      "duration": 0.0161,
      "velocity": 85,
      "chip": "ym2612"
    },
    {
      "channel": 2,
      "note": 51,
      "start": 56.0144,
      "duration": 0.0161,
      "velocity": 100,
      "chip": "ym2612"
    },
    {
      "channel": 1,
      "note": 95,
      "start": 56.0156,
      "duration": 0.0161,
      "velocity": 85,
      "chip": "ym2612"
    },
    {
      "channel": 0,
      "note": 77,
      "start": 56.0259,
      "duration": 0.0161,
      "velocity": 124,
      "chip": "ym2612"
    },
    {
      "channel": 3,
      "note": 99,
      "start": 56.0294,
      "duration": 0.0161,
      "velocity": 85,
      "chip": "ym2612"
    },
    {
      "channel": 2,
      "note": 51,
      "start": 56.0305,
      "duration": 0.0161,
      "velocity": 100,
      "chip": "ym2612"
    },
    {
      "channel": 1,
      "note": 95,
      "start": 56.0317,
      "duration": 0.0162,
      "velocity": 85,
      "chip": "ym2612"
    },
    {
      "channel": 0,
      "note": 75,
      "start": 56.042,
      "duration": 0.0161,
      "velocity": 124,
      "chip": "ym2612"
    },
    {
      "channel": 2,
      "note": 51,
      "start": 56.0466,
      "duration": 0.0161,
      "velocity": 100,
      "chip": "ym2612"
    },
    {
      "channel": 0,
      "note": 72,
      "start": 56.0581,
      "duration": 0.0161,
      "velocity": 124,
      "chip": "ym2612"
    },
    {
      "channel": 2,
      "note": 51,
      "start": 56.0627,
      "duration": 0.0161,
      "velocity": 100,
      "chip": "ym2612"
    },
    {
      "channel": 0,
      "note": 70,
      "start": 56.0741,
      "duration": 0.0179,
      "velocity": 115,
      "chip": "ym2612"
    },
    {
      "channel": 2,
      "note": 51,
      "start": 56.0788,
      "duration": 0.0192,
      "velocity": 100,
      "chip": "ym2612"
    },
    {
      "channel": 0,
      "note": 36,
      "start": 56.0921,
      "duration": 0.0143,
      "velocity": 115,
      "chip": "ym2612"
    },
    {
      "channel": 5,
      "note": 78,
      "start": 56.0936,
      "duration": 0.0141,
      "velocity": 110,
      "chip": "ym2612"
    },
    {
      "channel": 4,
      "note": 76,
      "start": 56.0951,
      "duration": 0.0137,
      "velocity": 110,
      "chip": "ym2612"
    },
    {
      "channel": 3,
      "note": 97,
      "start": 56.0966,
      "duration": 0.0135,
      "velocity": 85,
      "chip": "ym2612"
    },
    {
      "channel": 2,
      "note": 54,
      "start": 56.0981,
      "duration": 0.0132,
      "velocity": 100,
      "chip": "ym2612"
    },
    {
      "channel": 1,
      "note": 99,
      "start": 56.0995,
      "duration": 0.013,
      "velocity": 85,
      "chip": "ym2612"
    },
    {
      "channel": 0,
      "note": 36,
      "start": 56.1064,
      "duration": 0.016,
      "velocity": 115,
      "chip": "ym2612"
    },
    {
      "channel": 5,
      "note": 78,
      "start": 56.1077,
      "duration": 0.016,
      "velocity": 110,
      "chip": "ym2612"
    },
    {
      "channel": 4,
      "note": 76,
      "start": 56.1089,
      "duration": 0.0159,
      "velocity": 110,
      "chip": "ym2612"
    },
    {
      "channel": 3,
      "note": 97,
      "start": 56.1101,
      "duration": 0.0159,
      "velocity": 85,
      "chip": "ym2612"
    },
    {
      "channel": 2,
      "note": 54,
      "start": 56.1113,
      "duration": 0.0158,
      "velocity": 100,
      "chip": "ym2612"
    },
    {
      "channel": 1,
      "note": 99,
      "start": 56.1126,
      "duration": 0.0157,
      "velocity": 85,
      "chip": "ym2612"
    },
    {
      "channel": 0,
      "note": 37,
      "start": 56.1224,
      "duration": 0.0161,
      "velocity": 115,
      "chip": "ym2612"
    },
    {
      "channel": 5,
      "note": 78,
      "start": 56.1237,
      "duration": 0.0161,
      "velocity": 110,
      "chip": "ym2612"
    },
    {
      "channel": 4,
      "note": 76,
      "start": 56.1248,
      "duration": 0.0161,
      "velocity": 110,
      "chip": "ym2612"
    },
    {
      "channel": 3,
      "note": 97,
      "start": 56.1259,
      "duration": 0.0161,
      "velocity": 85,
      "chip": "ym2612"
    },
    {
      "channel": 2,
      "note": 54,
      "start": 56.1271,
      "duration": 0.0162,
      "velocity": 100,
      "chip": "ym2612"
    },
    {
      "channel": 1,
      "note": 99,
      "start": 56.1283,
      "duration": 0.0161,
      "velocity": 85,
      "chip": "ym2612"
    },
    {
      "channel": 0,
      "note": 37,
      "start": 56.1385,
      "duration": 0.0161,
      "velocity": 115,
      "chip": "ym2612"
    },
    {
      "channel": 5,
      "note": 78,
      "start": 56.1398,
      "duration": 0.0161,
      "velocity": 110,
      "chip": "ym2612"
    },
    {
      "channel": 4,
      "note": 76,
      "start": 56.1409,
      "duration": 0.0161,
      "velocity": 110,
      "chip": "ym2612"
    },
    {
      "channel": 2,
      "note": 54,
      "start": 56.1432,
      "duration": 0.0161,
      "velocity": 100,
      "chip": "ym2612"
    },
    {
      "channel": 0,
      "note": 38,
      "start": 56.1546,
      "duration": 0.0162,
      "velocity": 115,
      "chip": "ym2612"
    },
    {
      "channel": 5,
      "note": 78,
      "start": 56.1558,
      "duration": 0.0161,
      "velocity": 110,
      "chip": "ym2612"
    },
    {
      "channel": 4,
      "note": 76,
      "start": 56.157,
      "duration": 0.0161,
      "velocity": 110,
      "chip": "ym2612"
    },
    {
      "channel": 2,
      "note": 54,
      "start": 56.1593,
      "duration": 0.0161,
      "velocity": 100,
      "chip": "ym2612"
    },
    {
      "channel": 0,
      "note": 38,
      "start": 56.1708,
      "duration": 0.0179,
      "velocity": 124,
      "chip": "ym2612"
    },
    {
      "channel": 5,
      "note": 78,
      "start": 56.1719,
      "duration": 0.018,
      "velocity": 110,
      "chip": "ym2612"
    },
    {
      "channel": 4,
      "note": 76,
      "start": 56.1731,
      "duration": 0.018,
      "velocity": 110,
      "chip": "ym2612"
    },
    {
      "channel": 2,
      "note": 54,
      "start": 56.1754,
      "duration": 0.0186,
      "velocity": 100,
      "chip": "ym2612"
    },
    {
      "channel": 0,
      "note": 84,
      "start": 56.1888,
      "duration": 0.0146,
      "velocity": 124,
      "chip": "ym2612"
    },
    {
      "channel": 5,
      "note": 78,
      "start": 56.1899,
      "duration": 0.0146,
      "velocity": 110,
      "chip": "ym2612"
    },
    {
      "channel": 4,
      "note": 76,
      "start": 56.1911,
      "duration": 0.0146,
      "velocity": 110,
      "chip": "ym2612"
    },
    {
      "channel": 3,
      "note": 95,
      "start": 56.1926,
      "duration": 0.0143,
      "velocity": 85,
      "chip": "ym2612"
    },
    {
      "channel": 2,
      "note": 66,
      "start": 56.194,
      "duration": 0.0141,
      "velocity": 100,
      "chip": "ym2612"
    },
    {
      "channel": 1,
      "note": 97,
      "start": 56.1955,
      "duration": 0.0139,
      "velocity": 85,
      "chip": "ym2612"
    },
    {
      "channel": 0,
      "note": 82,
      "start": 56.2034,
      "duration": 0.0162,
      "velocity": 124,
      "chip": "ym2612"
    },
    {
      "channel": 3,
      "note": 95,
      "start": 56.2069,
      "duration": 0.0162,
      "velocity": 85,
      "chip": "ym2612"
    },
    {
      "channel": 2,
      "note": 66,
      "start": 56.2081,
      "duration": 0.0161,
      "velocity": 100,
      "chip": "ym2612"
    },
    {
      "channel": 1,
      "note": 97,
      "start": 56.2093,
      "duration": 0.0161,
      "velocity": 85,
      "chip": "ym2612"
    },
    {
      "channel": 0,
      "note": 80,
      "start": 56.2196,
      "duration": 0.0162,
      "velocity": 124,
      "chip": "ym2612"
    },
    {
      "channel": 3,
      "note": 95,
      "start": 56.2231,
      "duration": 0.0162,
      "velocity": 85,
      "chip": "ym2612"
    },
    {
      "channel": 2,
      "note": 66,
      "start": 56.2242,
      "duration": 0.0162,
      "velocity": 100,
      "chip": "ym2612"
    },
    {
      "channel": 1,
      "note": 97,
      "start": 56.2254,
      "duration": 0.0162,
      "velocity": 85,
      "chip": "ym2612"
    },
    {
      "channel": 0,
      "note": 77,
      "start": 56.2358,
      "duration": 0.0161,
      "velocity": 124,
      "chip": "ym2612"
    },
    {
      "channel": 3,
      "note": 95,
      "start": 56.2393,
      "duration": 0.0161,
      "velocity": 85,
      "chip": "ym2612"
    },
    {
      "channel": 2,
      "note": 66,
      "start": 56.2405,
      "duration": 0.0161,
      "velocity": 100,
      "chip": "ym2612"
    },
    {
      "channel": 1,
      "note": 97,
      "start": 56.2416,
      "duration": 0.0162,
      "velocity": 85,
      "chip": "ym2612"
    },
    {
      "channel": 0,
      "note": 75,
      "start": 56.2519,
      "duration": 0.016,
      "velocity": 124,
      "chip": "ym2612"
    },
    {
      "channel": 2,
      "note": 66,
      "start": 56.2565,
      "duration": 0.0161,
      "velocity": 100,
      "chip": "ym2612"
    },
    {
      "channel": 0,
      "note": 72,
      "start": 56.2679,
      "duration": 0.0155,
      "velocity": 124,
      "chip": "ym2612"
    },
    {
      "channel": 2,
      "note": 66,
      "start": 56.2726,
      "duration": 0.0161,
      "velocity": 100,
      "chip": "ym2612"
    },
    {
      "channel": 0,
      "note": 70,
      "start": 56.2834,
      "duration": 0.0185,
      "velocity": 124,
      "chip": "ym2612"
    },
    {
      "channel": 2,
      "note": 66,
      "start": 56.2887,
      "duration": 0.0193,
      "velocity": 100,
      "chip": "ym2612"
    },
    {
      "channel": 0,
      "note": 84,
      "start": 56.302,
      "duration": 0.0137,
      "velocity": 124,
      "chip": "ym2612"
    },
    {
      "channel": 5,
      "note": 76,
      "start": 56.3036,
      "duration": 0.0136,
      "velocity": 110,
      "chip": "ym2612"
    },
    {
      "channel": 4,
      "note": 78,
      "start": 56.3051,
      "duration": 0.0137,
      "velocity": 110,
      "chip": "ym2612"
    },
    {
      "channel": 3,
      "note": 99,
      "start": 56.3066,
      "duration": 0.0134,
      "velocity": 85,
      "chip": "ym2612"
    },
    {
      "channel": 2,
      "note": 54,
      "start": 56.3081,
      "duration": 0.0132,
      "velocity": 100,
      "chip": "ym2612"
    },
    {
      "channel": 1,
      "note": 95,
      "start": 56.3095,
      "duration": 0.013,
      "velocity": 85,
      "chip": "ym2612"
    },
    {
      "channel": 0,
      "note": 82,
      "start": 56.3158,
      "duration": 0.016,
      "velocity": 124,
      "chip": "ym2612"
    },
    {
      "channel": 5,
      "note": 76,
      "start": 56.3172,
      "duration": 0.0157,
      "velocity": 110,
      "chip": "ym2612"
    },
    {
      "channel": 4,
      "note": 78,
      "start": 56.3188,
      "duration": 0.0158,
      "velocity": 110,
      "chip": "ym2612"
    },
    {
      "channel": 3,
      "note": 99,
      "start": 56.32,
      "duration": 0.0159,
      "velocity": 85,
      "chip": "ym2612"
    },
    {
      "channel": 2,
      "note": 54,
      "start": 56.3212,
      "duration": 0.0159,
      "velocity": 100,
      "chip": "ym2612"
    },
    {
      "channel": 1,
      "note": 95,
      "start": 56.3225,
      "duration": 0.0157,
      "velocity": 85,
      "chip": "ym2612"
    },
    {
      "channel": 0,
      "note": 80,
      "start": 56.3318,
      "duration": 0.0161,
      "velocity": 124,
      "chip": "ym2612"
    },
    {
      "channel": 5,
      "note": 76,
      "start": 56.3329,
      "duration": 0.0161,
      "velocity": 110,
      "chip": "ym2612"
    },
    {
      "channel": 4,
      "note": 78,
      "start": 56.3346,
      "duration": 0.0156,
      "velocity": 110,
      "chip": "ym2612"
    },
    {
      "channel": 3,
      "note": 99,
      "start": 56.3359,
      "duration": 0.0161,
      "velocity": 85,
      "chip": "ym2612"
    },
    {
      "channel": 2,
      "note": 54,
      "start": 56.3371,
      "duration": 0.0161,
      "velocity": 100,
      "chip": "ym2612"
    },
    {
      "channel": 1,
      "note": 95,
      "start": 56.3382,
      "duration": 0.0161,
      "velocity": 85,
      "chip": "ym2612"
    },
    {
      "channel": 0,
      "note": 77,
      "start": 56.3479,
      "duration": 0.0161,
      "velocity": 124,
      "chip": "ym2612"
    },
    {
      "channel": 5,
      "note": 76,
      "start": 56.349,
      "duration": 0.0161,
      "velocity": 110,
      "chip": "ym2612"
    },
    {
      "channel": 4,
      "note": 78,
      "start": 56.3502,
      "duration": 0.0161,
      "velocity": 110,
      "chip": "ym2612"
    },
    {
      "channel": 2,
      "note": 54,
      "start": 56.3532,
      "duration": 0.0161,
      "velocity": 100,
      "chip": "ym2612"
    },
    {
      "channel": 0,
      "note": 75,
      "start": 56.364,
      "duration": 0.0161,
      "velocity": 124,
      "chip": "ym2612"
    },
    {
      "channel": 5,
      "note": 76,
      "start": 56.3651,
      "duration": 0.0161,
      "velocity": 110,
      "chip": "ym2612"
    },
    {
      "channel": 4,
      "note": 78,
      "start": 56.3663,
      "duration": 0.0161,
      "velocity": 110,
      "chip": "ym2612"
    },
    {
      "channel": 2,
      "note": 54,
      "start": 56.3693,
      "duration": 0.0161,
      "velocity": 100,
      "chip": "ym2612"
    },
    {
      "channel": 0,
      "note": 72,
      "start": 56.3801,
      "duration": 0.0179,
      "velocity": 115,
      "chip": "ym2612"
    },
    {
      "channel": 5,
      "note": 76,
      "start": 56.3812,
      "duration": 0.018,
      "velocity": 110,
      "chip": "ym2612"
    },
    {
      "channel": 4,
      "note": 78,
      "start": 56.3824,
      "duration": 0.0182,
      "velocity": 110,
      "chip": "ym2612"
    },
    {
      "channel": 2,
      "note": 54,
      "start": 56.3854,
      "duration": 0.0185,
      "velocity": 100,
      "chip": "ym2612"
    },
    {
      "channel": 0,
      "note": 36,
      "start": 56.398,
      "duration": 0.0143,
      "velocity": 115,
      "chip": "ym2612"
    },
    {
      "channel": 5,
      "note": 76,
      "start": 56.3992,
      "duration": 0.0143,
      "velocity": 110,
      "chip": "ym2612"
    },
    {
      "channel": 4,
      "note": 78,
      "start": 56.4006,
      "duration": 0.0141,
      "velocity": 110,
      "chip": "ym2612"
    },
    {
      "channel": 3,
      "note": 97,
      "start": 56.4025,
      "duration": 0.0135,
      "velocity": 85,
      "chip": "ym2612"
    },
    {
      "channel": 2,
      "note": 66,
      "start": 56.4039,
      "duration": 0.0135,
      "velocity": 100,
      "chip": "ym2612"
    },
    {
      "channel": 1,
      "note": 94,
      "start": 56.4053,
      "duration": 0.0137,
      "velocity": 85,
      "chip": "ym2612"
    },
    {
      "channel": 0,
      "note": 36,
      "start": 56.4123,
      "duration": 0.016,
      "velocity": 115,
      "chip": "ym2612"
    },
    {
      "channel": 3,
      "note": 97,
      "start": 56.4159,
      "duration": 0.016,
      "velocity": 85,
      "chip": "ym2612"
    },
    {
      "channel": 2,
      "note": 66,
      "start": 56.4173,
      "duration": 0.0157,
      "velocity": 100,
      "chip": "ym2612"
    },
    {
      "channel": 1,
      "note": 94,
      "start": 56.419,
      "duration": 0.0157,
      "velocity": 85,
      "chip": "ym2612"
    },
    {
      "channel": 0,
      "note": 37,
      "start": 56.4284,
      "duration": 0.0161,
      "velocity": 115,
      "chip": "ym2612"
    },
    {
      "channel": 3,
      "note": 97,
      "start": 56.4319,
      "duration": 0.0161,
      "velocity": 85,
      "chip": "ym2612"
    },
    {
      "channel": 2,
      "note": 66,
      "start": 56.4331,
      "duration": 0.0161,
      "velocity": 100,
      "chip": "ym2612"
    },
    {
      "channel": 1,
      "note": 94,
      "start": 56.4347,
      "duration": 0.0156,
      "velocity": 85,
      "chip": "ym2612"
    },
    {
      "channel": 0,
      "note": 37,
      "start": 56.4444,
      "duration": 0.0161,
      "velocity": 115,
      "chip": "ym2612"
    },
    {
      "channel": 3,
      "note": 97,
      "start": 56.448,
      "duration": 0.0161,
      "velocity": 85,
      "chip": "ym2612"
    },
    {
      "channel": 2,
      "note": 66,
      "start": 56.4492,
      "duration": 0.0161,
      "velocity": 100,
      "chip": "ym2612"
    },
    {
      "channel": 1,
      "note": 94,
      "start": 56.4503,
      "duration": 0.0161,
      "velocity": 85,
      "chip": "ym2612"
    },
    {
      "channel": 0,
      "note": 38,
      "start": 56.4605,
      "duration": 0.0162,
      "velocity": 115,
      "chip": "ym2612"
    },
    {
      "channel": 2,
      "note": 66,
      "start": 56.4653,
      "duration": 0.0161,
      "velocity": 100,
      "chip": "ym2612"
    },
    {
      "channel": 0,
      "note": 38,
      "start": 56.4767,
      "duration": 0.0161,
      "velocity": 115,
      "chip": "ym2612"
    },
    {
      "channel": 2,
      "note": 66,
      "start": 56.4813,
      "duration": 0.0161,
      "velocity": 100,
      "chip": "ym2612"
    },
    {
      "channel": 0,
      "note": 39,
      "start": 56.4928,
      "duration": 0.0179,
      "velocity": 127,
      "chip": "ym2612"
    },
    {
      "channel": 2,
      "note": 66,
      "start": 56.4974,
      "duration": 0.0193,
      "velocity": 100,
      "chip": "ym2612"
    },
    {
      "channel": 0,
      "note": 88,
      "start": 56.5107,
      "duration": 0.0143,
      "velocity": 127,
      "chip": "ym2612"
    },
    {
      "channel": 5,
      "note": 78,
      "start": 56.5123,
      "duration": 0.014,
      "velocity": 110,
      "chip": "ym2612"
    },
    {
      "channel": 4,
      "note": 76,
      "start": 56.5138,
      "duration": 0.0137,
      "velocity": 110,
      "chip": "ym2612"
    },
    {
      "channel": 3,
      "note": 95,
      "start": 56.5153,
      "duration": 0.0135,
      "velocity": 85,
      "chip": "ym2612"
    },
    {
      "channel": 2,
      "note": 56,
      "start": 56.5167,
      "duration": 0.0132,
      "velocity": 100,
      "chip": "ym2612"
    },
    {
      "channel": 1,
      "note": 97,
      "start": 56.5188,
      "duration": 0.0123,
      "velocity": 85,
      "chip": "ym2612"
    },
    {
      "channel": 0,
      "note": 86,
      "start": 56.5251,
      "duration": 0.016,
      "velocity": 127,
      "chip": "ym2612"
    },
    {
      "channel": 5,
      "note": 78,
      "start": 56.5263,
      "duration": 0.016,
      "velocity": 110,
      "chip": "ym2612"
    },
    {
      "channel": 4,
      "note": 76,
      "start": 56.5275,
      "duration": 0.0159,
      "velocity": 110,
      "chip": "ym2612"
    },
    {
      "channel": 3,
      "note": 95,
      "start": 56.5287,
      "duration": 0.0159,
      "velocity": 85,
      "chip": "ym2612"
    },
    {
      "channel": 2,
      "note": 56,
      "start": 56.53,
      "duration": 0.0158,
      "velocity": 100,
      "chip": "ym2612"
    },
    {
      "channel": 1,
      "note": 97,
      "start": 56.5312,
      "duration": 0.0158,
      "velocity": 85,
      "chip": "ym2612"
    },
    {
      "channel": 0,
      "note": 85,
      "start": 56.5411,
      "duration": 0.0179,
      "velocity": 127,
      "chip": "ym2612"
    },
    {
      "channel": 5,
      "note": 78,
      "start": 56.5422,
      "duration": 0.018,
      "velocity": 110,
      "chip": "ym2612"
    },
    {
      "channel": 4,
      "note": 76,
      "start": 56.5434,
      "duration": 0.018,
      "velocity": 110,
      "chip": "ym2612"
    },
    {
      "channel": 3,
      "note": 95,
      "start": 56.5446,
      "duration": 0.018,
      "velocity": 85,
      "chip": "ym2612"
    },
    {
      "channel": 2,
      "note": 56,
      "start": 56.5457,
      "duration": 0.0181,
      "velocity": 100,
      "chip": "ym2612"
    },
    {
      "channel": 1,
      "note": 97,
      "start": 56.5469,
      "duration": 0.018,
      "velocity": 85,
      "chip": "ym2612"
    },
    {
      "channel": 0,
      "note": 88,
      "start": 56.5591,
      "duration": 0.0143,
      "velocity": 127,
      "chip": "ym2612"
    },
    {
      "channel": 5,
      "note": 78,
      "start": 56.5602,
      "duration": 0.0143,
      "velocity": 110,
      "chip": "ym2612"
    },
    {
      "channel": 4,
      "note": 76,
      "start": 56.5614,
      "duration": 0.0143,
      "velocity": 110,
      "chip": "ym2612"
    },
    {
      "channel": 2,
      "note": 56,
      "start": 56.5638,
      "duration": 0.0142,
      "velocity": 100,
      "chip": "ym2612"
    },
    {
      "channel": 0,
      "note": 86,
      "start": 56.5733,
      "duration": 0.016,
      "velocity": 127,
      "chip": "ym2612"
    },
    {
      "channel": 5,
      "note": 78,
      "start": 56.5745,
      "duration": 0.016,
      "velocity": 110,
      "chip": "ym2612"
    },
    {
      "channel": 4,
      "note": 76,
      "start": 56.5757,
      "duration": 0.016,
      "velocity": 110,
      "chip": "ym2612"
    },
    {
      "channel": 2,
      "note": 56,
      "start": 56.578,
      "duration": 0.016,
      "velocity": 100,
      "chip": "ym2612"
    },
    {
      "channel": 0,
      "note": 85,
      "start": 56.5894,
      "duration": 0.0179,
      "velocity": 127,
      "chip": "ym2612"
    },
    {
      "channel": 5,
      "note": 78,
      "start": 56.5906,
      "duration": 0.0179,
      "velocity": 110,
      "chip": "ym2612"
    },
    {
      "channel": 4,
      "note": 76,
      "start": 56.5917,
      "duration": 0.018,
      "velocity": 110,
      "chip": "ym2612"
    },
    {
      "channel": 2,
      "note": 56,
      "start": 56.594,
      "duration": 0.0183,
      "velocity": 100,
      "chip": "ym2612"
    },
    {
      "channel": 0,
      "note": 88,
      "start": 56.6074,
      "duration": 0.0143,
      "velocity": 127,
      "chip": "ym2612"
    },
    {
      "channel": 5,
      "note": 78,
      "start": 56.6085,
      "duration": 0.0143,
      "velocity": 110,
      "chip": "ym2612"
    },
    {
      "channel": 4,
      "note": 76,
      "start": 56.6097,
      "duration": 0.0143,
      "velocity": 110,
      "chip": "ym2612"
    },
    {
      "channel": 3,
      "note": 94,
      "start": 56.6112,
      "duration": 0.0141,
      "velocity": 85,
      "chip": "ym2612"
    },
    {
      "channel": 2,
      "note": 56,
      "start": 56.6123,
      "duration": 0.0141,
      "velocity": 100,
      "chip": "ym2612"
    },
    {
      "channel": 1,
      "note": 95,
      "start": 56.6138,
      "duration": 0.0139,
      "velocity": 85,
      "chip": "ym2612"
    },
    {
      "channel": 0,
      "note": 86,
      "start": 56.6217,
      "duration": 0.016,
      "velocity": 127,
      "chip": "ym2612"
    },
    {
      "channel": 3,
      "note": 94,
      "start": 56.6252,
      "duration": 0.016,
      "velocity": 85,
      "chip": "ym2612"
    },
    {
      "channel": 2,
      "note": 56,
      "start": 56.6264,
      "duration": 0.016,
      "velocity": 100,
      "chip": "ym2612"
    },
    {
      "channel": 1,
      "note": 95,
      "start": 56.6277,
      "duration": 0.0158,
      "velocity": 85,
      "chip": "ym2612"
    },
    {
      "channel": 0,
      "note": 85,
      "start": 56.6377,
      "duration": 0.0179,
      "velocity": 127,
      "chip": "ym2612"
    },
    {
      "channel": 3,
      "note": 94,
      "start": 56.6412,
      "duration": 0.0179,
      "velocity": 85,
      "chip": "ym2612"
    },
    {
      "channel": 2,
      "note": 56,
      "start": 56.6424,
      "duration": 0.0179,
      "velocity": 100,
      "chip": "ym2612"
    },
    {
      "channel": 1,
      "note": 95,
      "start": 56.6435,
      "duration": 0.018,
      "velocity": 85,
      "chip": "ym2612"
    },
    {
      "channel": 0,
      "note": 88,
      "start": 56.6556,
      "duration": 0.0144,
      "velocity": 127,
      "chip": "ym2612"
    },
    {
      "channel": 3,
      "note": 94,
      "start": 56.6591,
      "duration": 0.0144,
      "velocity": 85,
      "chip": "ym2612"
    },
    {
      "channel": 2,
      "note": 56,
      "start": 56.6603,
      "duration": 0.0144,
      "velocity": 100,
      "chip": "ym2612"
    },
    {
      "channel": 1,
      "note": 95,
      "start": 56.6615,
      "duration": 0.0144,
      "velocity": 85,
      "chip": "ym2612"
    },
    {
      "channel": 0,
      "note": 86,
      "start": 56.67,
      "duration": 0.0163,
      "velocity": 127,
      "chip": "ym2612"
    },
    {
      "channel": 2,
      "note": 56,
      "start": 56.6747,
      "duration": 0.0163,
      "velocity": 100,
      "chip": "ym2612"
    },
    {
      "channel": 0,
      "note": 85,
      "start": 56.6864,
      "duration": 0.0163,
      "velocity": 127,
      "chip": "ym2612"
    },
    {
      "channel": 2,
      "note": 56,
      "start": 56.691,
      "duration": 0.0163,
      "velocity": 100,
      "chip": "ym2612"
    },
    {
      "channel": 0,
      "note": 83,
      "start": 56.7027,
      "duration": 0.018,
      "velocity": 127,
      "chip": "ym2612"
    },
    {
      "channel": 2,
      "note": 56,
      "start": 56.7074,
      "duration": 0.0193,
      "velocity": 100,
      "chip": "ym2612"
    },
    {
      "channel": 0,
      "note": 84,
      "start": 56.7207,
      "duration": 0.0142,
      "velocity": 127,
      "chip": "ym2612"
    },
    {
      "channel": 5,
      "note": 76,
      "start": 56.7223,
      "duration": 0.0139,
      "velocity": 110,
      "chip": "ym2612"
    },
    {
      "channel": 4,
      "note": 78,
      "start": 56.7238,
      "duration": 0.0136,
      "velocity": 110,
      "chip": "ym2612"
    },
    {
      "channel": 3,
      "note": 97,
      "start": 56.7253,
      "duration": 0.0134,
      "velocity": 85,
      "chip": "ym2612"
    },
    {
      "channel": 2,
      "note": 58,
      "start": 56.7268,
      "duration": 0.0131,
      "velocity": 100,
      "chip": "ym2612"
    },
    {
      "channel": 1,
      "note": 94,
      "start": 56.7282,
      "duration": 0.0129,
      "velocity": 85,
      "chip": "ym2612"
    },
    {
      "channel": 0,
      "note": 82,
      "start": 56.7349,
      "duration": 0.0155,
      "velocity": 127,
      "chip": "ym2612"
    },
    {
      "channel": 5,
      "note": 76,
      "start": 56.7362,
      "duration": 0.016,
      "velocity": 110,
      "chip": "ym2612"
    },
    {
      "channel": 4,
      "note": 78,
      "start": 56.7375,
      "duration": 0.0159,
      "velocity": 110,
      "chip": "ym2612"
    },
    {
      "channel": 3,
      "note": 97,
      "start": 56.7387,
      "duration": 0.0159,
      "velocity": 85,
      "chip": "ym2612"
    },
    {
      "channel": 2,
      "note": 58,
      "start": 56.7399,
      "duration": 0.0158,
      "velocity": 100,
      "chip": "ym2612"
    },
    {
      "channel": 1,
      "note": 94,
      "start": 56.7411,
      "duration": 0.0157,
      "velocity": 85,
      "chip": "ym2612"
    },
    {
      "channel": 0,
      "note": 81,
      "start": 56.7504,
      "duration": 0.0161,
      "velocity": 127,
      "chip": "ym2612"
    },
    {
      "channel": 5,
      "note": 76,
      "start": 56.7522,
      "duration": 0.016,
      "velocity": 110,
      "chip": "ym2612"
    },
    {
      "channel": 4,
      "note": 78,
      "start": 56.7534,
      "duration": 0.0161,
      "velocity": 110,
      "chip": "ym2612"
    },
    {
      "channel": 3,
      "note": 97,
      "start": 56.7545,
      "duration": 0.0161,
      "velocity": 85,
      "chip": "ym2612"
    },
    {
      "channel": 2,
      "note": 58,
      "start": 56.7556,
      "duration": 0.0161,
      "velocity": 100,
      "chip": "ym2612"
    },
    {
      "channel": 1,
      "note": 94,
      "start": 56.7568,
      "duration": 0.0161,
      "velocity": 85,
      "chip": "ym2612"
    },
    {
      "channel": 0,
      "note": 79,
      "start": 56.7665,
      "duration": 0.0161,
      "velocity": 127,
      "chip": "ym2612"
    },
    {
      "channel": 5,
      "note": 76,
      "start": 56.7682,
      "duration": 0.0156,
      "velocity": 110,
      "chip": "ym2612"
    },
    {
      "channel": 4,
      "note": 78,
      "start": 56.7695,
      "duration": 0.0161,
      "velocity": 110,
      "chip": "ym2612"
    },
    {
      "channel": 2,
      "note": 58,
      "start": 56.7717,
      "duration": 0.0161,
      "velocity": 100,
      "chip": "ym2612"
    },
    {
      "channel": 0,
      "note": 77,
      "start": 56.7826,
      "duration": 0.0161,
      "velocity": 127,
      "chip": "ym2612"
    },
    {
      "channel": 5,
      "note": 76,
      "start": 56.7838,
      "duration": 0.0161,
      "velocity": 110,
      "chip": "ym2612"
    },
    {
      "channel": 4,
      "note": 78,
      "start": 56.7856,
      "duration": 0.016,
      "velocity": 110,
      "chip": "ym2612"
    },
    {
      "channel": 2,
      "note": 58,
      "start": 56.7878,
      "duration": 0.0161,
      "velocity": 100,
      "chip": "ym2612"
    },
    {
      "channel": 0,
      "note": 76,
      "start": 56.7987,
      "duration": 0.0179,
      "velocity": 127,
      "chip": "ym2612"
    },
    {
      "channel": 5,
      "note": 76,
      "start": 56.7999,
      "duration": 0.0186,
      "velocity": 110,
      "chip": "ym2612"
    },
    {
      "channel": 4,
      "note": 78,
      "start": 56.8016,
      "duration": 0.0181,
      "velocity": 110,
      "chip": "ym2612"
    },
    {
      "channel": 2,
      "note": 58,
      "start": 56.8039,
      "duration": 0.0183,
      "velocity": 100,
      "chip": "ym2612"
    },
    {
      "channel": 0,
      "note": 78,
      "start": 56.8167,
      "duration": 0.0143,
      "velocity": 127,
      "chip": "ym2612"
    },
    {
      "channel": 5,
      "note": 76,
      "start": 56.8184,
      "duration": 0.0137,
      "velocity": 110,
      "chip": "ym2612"
    },
    {
      "channel": 4,
      "note": 78,
      "start": 56.8196,
      "duration": 0.0137,
      "velocity": 110,
      "chip": "ym2612"
    },
    {
      "channel": 3,
      "note": 95,
      "start": 56.8211,
      "duration": 0.014,
      "velocity": 85,
      "chip": "ym2612"
    },
    {
      "channel": 2,
      "note": 58,
      "start": 56.8222,
      "duration": 0.0141,
      "velocity": 100,
      "chip": "ym2612"
    },
    {
      "channel": 1,
      "note": 92,
      "start": 56.8237,
      "duration": 0.0138,
      "velocity": 85,
      "chip": "ym2612"
    },
    {
      "channel": 0,
      "note": 76,
      "start": 56.831,
      "duration": 0.016,
      "velocity": 127,
      "chip": "ym2612"
    },
    {
      "channel": 3,
      "note": 95,
      "start": 56.8351,
      "duration": 0.0156,
      "velocity": 85,
      "chip": "ym2612"
    },
    {
      "channel": 2,
      "note": 58,
      "start": 56.8363,
      "duration": 0.016,
      "velocity": 100,
      "chip": "ym2612"
    },
    {
      "channel": 1,
      "note": 92,
      "start": 56.8375,
      "duration": 0.0159,
      "velocity": 85,
      "chip": "ym2612"
    },
    {
      "channel": 0,
      "note": 75,
      "start": 56.847,
      "duration": 0.0161,
      "velocity": 127,
      "chip": "ym2612"
    },
    {
      "channel": 3,
      "note": 95,
      "start": 56.8507,
      "duration": 0.0159,
      "velocity": 85,
      "chip": "ym2612"
    },
    {
      "channel": 2,
      "note": 58,
      "start": 56.8523,
      "duration": 0.016,
      "velocity": 100,
      "chip": "ym2612"
    },
    {
      "channel": 1,
      "note": 92,
      "start": 56.8534,
      "duration": 0.0161,
      "velocity": 85,
      "chip": "ym2612"
    },
    {
      "channel": 0,
      "note": 73,
      "start": 56.8631,
      "duration": 0.0161,
      "velocity": 127,
      "chip": "ym2612"
    },
    {
      "channel": 3,
      "note": 95,
      "start": 56.8666,
      "duration": 0.0161,
      "velocity": 85,
      "chip": "ym2612"
    },
    {
      "channel": 2,
      "note": 58,
      "start": 56.8683,
      "duration": 0.0158,
      "velocity": 100,
      "chip": "ym2612"
    },
    {
      "channel": 1,
      "note": 92,
      "start": 56.8695,
      "duration": 0.0161,
      "velocity": 85,
      "chip": "ym2612"
    },
    {
      "channel": 0,
      "note": 71,
      "start": 56.8792,
      "duration": 0.0161,
      "velocity": 127,
      "chip": "ym2612"
    },
    {
      "channel": 2,
      "note": 58,
      "start": 56.8841,
      "duration": 0.0159,
      "velocity": 100,
      "chip": "ym2612"
    },
    {
      "channel": 0,
      "note": 70,
      "start": 56.8953,
      "duration": 0.0161,
      "velocity": 127,
      "chip": "ym2612"
    },
    {
      "channel": 2,
      "note": 58,
      "start": 56.8999,
      "duration": 0.0161,
      "velocity": 100,
      "chip": "ym2612"
    },
    {
      "channel": 0,
      "note": 68,
      "start": 56.9114,
      "duration": 0.018,
      "velocity": 115,
      "chip": "ym2612"
    },
    {
      "channel": 2,
      "note": 58,
      "start": 56.9161,
      "duration": 0.0198,
      "velocity": 100,
      "chip": "ym2612"
    },
    {
      "channel": 0,
      "note": 36,
      "start": 56.9294,
      "duration": 0.0143,
      "velocity": 115,
      "chip": "ym2612"
    },
    {
      "channel": 5,
      "note": 78,
      "start": 56.9308,
      "duration": 0.0141,
      "velocity": 110,
      "chip": "ym2612"
    },
    {
      "channel": 4,
      "note": 76,
      "start": 56.9324,
      "duration": 0.0138,
      "velocity": 110,
      "chip": "ym2612"
    },
    {
      "channel": 3,
      "note": 94,
      "start": 56.934,
      "duration": 0.0134,
      "velocity": 85,
      "chip": "ym2612"
    },
    {
      "channel": 2,
      "note": 59,
      "start": 56.9359,
      "duration": 0.0127,
      "velocity": 100,
      "chip": "ym2612"
    },
    {
      "channel": 1,
      "note": 90,
      "start": 56.9375,
      "duration": 0.0123,
      "velocity": 85,
      "chip": "ym2612"
    },
    {
      "channel": 0,
      "note": 36,
      "start": 56.9437,
      "duration": 0.016,
      "velocity": 115,
      "chip": "ym2612"
    },
    {
      "channel": 5,
      "note": 78,
      "start": 56.9449,
      "duration": 0.016,
      "velocity": 110,
      "chip": "ym2612"
    },
    {
      "channel": 4,
      "note": 76,
      "start": 56.9462,
      "duration": 0.0159,
      "velocity": 110,
      "chip": "ym2612"
    },
    {
      "channel": 3,
      "note": 94,
      "start": 56.9474,
      "duration": 0.0159,
      "velocity": 85,
      "chip": "ym2612"
    },
    {
      "channel": 2,
      "note": 59,
      "start": 56.9486,
      "duration": 0.0158,
      "velocity": 100,
      "chip": "ym2612"
    },
    {
      "channel": 1,
      "note": 90,
      "start": 56.9498,
      "duration": 0.0158,
      "velocity": 85,
      "chip": "ym2612"
    },
    {
      "channel": 0,
      "note": 37,
      "start": 56.9597,
      "duration": 0.0161,
      "velocity": 115,
      "chip": "ym2612"
    },
    {
      "channel": 5,
      "note": 78,
      "start": 56.9609,
      "duration": 0.0161,
      "velocity": 110,
      "chip": "ym2612"
    },
    {
      "channel": 4,
      "note": 76,
      "start": 56.9621,
      "duration": 0.0161,
      "velocity": 110,
      "chip": "ym2612"
    },
    {
      "channel": 3,
      "note": 94,
      "start": 56.9632,
      "duration": 0.0161,
      "velocity": 85,
      "chip": "ym2612"
    },
    {
      "channel": 2,
      "note": 59,
      "start": 56.9644,
      "duration": 0.0162,
      "velocity": 100,
      "chip": "ym2612"
    },
    {
      "channel": 1,
      "note": 90,
      "start": 56.9656,
      "duration": 0.0161,
      "velocity": 85,
      "chip": "ym2612"
    },
    {
      "channel": 0,
      "note": 37,
      "start": 56.9758,
      "duration": 0.0161,
      "velocity": 115,
      "chip": "ym2612"
    },
    {
      "channel": 5,
      "note": 78,
      "start": 56.977,
      "duration": 0.0161,
      "velocity": 110,
      "chip": "ym2612"
    },
    {
      "channel": 4,
      "note": 76,
      "start": 56.9782,
      "duration": 0.0161,
      "velocity": 110,
      "chip": "ym2612"
    },
    {
      "channel": 2,
      "note": 59,
      "start": 56.9805,
      "duration": 0.016,
      "velocity": 100,
      "chip": "ym2612"
    },
    {
      "channel": 1,
      "note": 90,
      "start": 56.9817,
      "duration": 0.0161,
      "velocity": 85,
      "chip": "ym2612"
    },
    {
      "channel": 0,
      "note": 38,
      "start": 56.9919,
      "duration": 0.0161,
      "velocity": 115,
      "chip": "ym2612"
    },
    {
      "channel": 5,
      "note": 78,
      "start": 56.9931,
      "duration": 0.0161,
      "velocity": 110,
      "chip": "ym2612"
    },
    {
      "channel": 4,
      "note": 76,
      "start": 56.9943,
      "duration": 0.0161,
      "velocity": 110,
      "chip": "ym2612"
    },
    {
      "channel": 2,
      "note": 59,
      "start": 56.9966,
      "duration": 0.0161,
      "velocity": 100,
      "chip": "ym2612"
    },
    {
      "channel": 1,
      "note": 90,
      "start": 56.9978,
      "duration": 0.0161,
      "velocity": 85,
      "chip": "ym2612"
    },
    {
      "channel": 0,
      "note": 38,
      "start": 57.008,
      "duration": 0.0161,
      "velocity": 115,
      "chip": "ym2612"
    },
    {
      "channel": 5,
      "note": 78,
      "start": 57.0092,
      "duration": 0.0161,
      "velocity": 110,
      "chip": "ym2612"
    },
    {
      "channel": 4,
      "note": 76,
      "start": 57.0104,
      "duration": 0.0161,
      "velocity": 110,
      "chip": "ym2612"
    },
    {
      "channel": 2,
      "note": 59,
      "start": 57.0127,
      "duration": 0.0165,
      "velocity": 100,
      "chip": "ym2612"
    },
    {
      "channel": 1,
      "note": 90,
      "start": 57.0139,
      "duration": 0.0164,
      "velocity": 85,
      "chip": "ym2612"
    },
    {
      "channel": 0,
      "note": 39,
      "start": 57.0241,
      "duration": 0.0161,
      "velocity": 115,
      "chip": "ym2612"
    },
    {
      "channel": 5,
      "note": 78,
      "start": 57.0253,
      "duration": 0.0161,
      "velocity": 110,
      "chip": "ym2612"
    },
    {
      "channel": 4,
      "note": 76,
      "start": 57.0264,
      "duration": 0.0162,
      "velocity": 110,
      "chip": "ym2612"
    },
    {
      "channel": 3,
      "note": 92,
      "start": 57.0279,
      "duration": 0.0159,
      "velocity": 85,
      "chip": "ym2612"
    },
    {
      "channel": 2,
      "note": 59,
      "start": 57.0291,
      "duration": 0.0159,
      "velocity": 100,
      "chip": "ym2612"
    },
    {
      "channel": 1,
      "note": 90,
      "start": 57.0303,
      "duration": 0.0158,
      "velocity": 85,
      "chip": "ym2612"
    },
    {
      "channel": 0,
      "note": 39,
      "start": 57.0402,
      "duration": 0.0162,
      "velocity": 115,
      "chip": "ym2612"
    },
    {
      "channel": 3,
      "note": 92,
      "start": 57.0438,
      "duration": 0.016,
      "velocity": 85,
      "chip": "ym2612"
    },
    {
      "channel": 2,
      "note": 59,
      "start": 57.045,
      "duration": 0.016,
      "velocity": 100,
      "chip": "ym2612"
    },
    {
      "channel": 1,
      "note": 90,
      "start": 57.0461,
      "duration": 0.016,
      "velocity": 85,
      "chip": "ym2612"
    },
    {
      "channel": 0,
      "note": 40,
      "start": 57.0563,
      "duration": 0.0161,
      "velocity": 115,
      "chip": "ym2612"
    },
    {
      "channel": 3,
      "note": 92,
      "start": 57.0598,
      "duration": 0.0161,
      "velocity": 85,
      "chip": "ym2612"
    },
    {
      "channel": 2,
      "note": 59,
      "start": 57.061,
      "duration": 0.0161,
      "velocity": 100,
      "chip": "ym2612"
    },
    {
      "channel": 1,
      "note": 90,
      "start": 57.0621,
      "duration": 0.0161,
      "velocity": 85,
      "chip": "ym2612"
    },
    {
      "channel": 0,
      "note": 40,
      "start": 57.0724,
      "duration": 0.0161,
      "velocity": 115,
      "chip": "ym2612"
    },
    {
      "channel": 3,
      "note": 92,
      "start": 57.0759,
      "duration": 0.0161,
      "velocity": 85,
      "chip": "ym2612"
    },
    {
      "channel": 2,
      "note": 59,
      "start": 57.0771,
      "duration": 0.0161,
      "velocity": 100,
      "chip": "ym2612"
    },
    {
      "channel": 1,
      "note": 90,
      "start": 57.0782,
      "duration": 0.0161,
      "velocity": 85,
      "chip": "ym2612"
    },
    {
      "channel": 0,
      "note": 40,
      "start": 57.0885,
      "duration": 0.0161,
      "velocity": 115,
      "chip": "ym2612"
    },
    {
      "channel": 2,
      "note": 59,
      "start": 57.0932,
      "duration": 0.0161,
      "velocity": 100,
      "chip": "ym2612"
    },
    {
      "channel": 1,
      "note": 90,
      "start": 57.0944,
      "duration": 0.016,
      "velocity": 85,
      "chip": "ym2612"
    },
    {
      "channel": 0,
      "note": 41,
      "start": 57.1046,
      "duration": 0.0161,
      "velocity": 115,
      "chip": "ym2612"
    },
    {
      "channel": 2,
      "note": 59,
      "start": 57.1093,
      "duration": 0.0161,
      "velocity": 100,
      "chip": "ym2612"
    },
    {
      "channel": 1,
      "note": 90,
      "start": 57.1104,
      "duration": 0.0161,
      "velocity": 85,
      "chip": "ym2612"
    },
    {
      "channel": 0,
      "note": 41,
      "start": 57.1207,
      "duration": 0.0161,
      "velocity": 115,
      "chip": "ym2612"
    },
    {
      "channel": 2,
      "note": 59,
      "start": 57.1254,
      "duration": 0.0177,
      "velocity": 100,
      "chip": "ym2612"
    },
    {
      "channel": 1,
      "note": 90,
      "start": 57.1265,
      "duration": 0.0177,
      "velocity": 85,
      "chip": "ym2612"
    },
    {
      "channel": 0,
      "note": 42,
      "start": 57.1369,
      "duration": 0.0164,
      "velocity": 115,
      "chip": "ym2612"
    },
    {
      "channel": 5,
      "note": 71,
      "start": 57.1386,
      "duration": 0.016,
      "velocity": 110,
      "chip": "ym2612"
    },
    {
      "channel": 4,
      "note": 75,
      "start": 57.1403,
      "duration": 0.0155,
      "velocity": 110,
      "chip": "ym2612"
    },
    {
      "channel": 3,
      "note": 90,
      "start": 57.1419,
      "duration": 0.0151,
      "velocity": 85,
      "chip": "ym2612"
    },
    {
      "channel": 2,
      "note": 59,
      "start": 57.1431,
      "duration": 0.0151,
      "velocity": 100,
      "chip": "ym2612"
    },
    {
      "channel": 0,
      "note": 42,
      "start": 57.1533,
      "duration": 0.0163,
      "velocity": 115,
      "chip": "ym2612"
    },
    {
      "channel": 5,
      "note": 71,
      "start": 57.1546,
      "duration": 0.0162,
      "velocity": 110,
      "chip": "ym2612"
    },
    {
      "channel": 4,
      "note": 75,
      "start": 57.1558,
      "duration": 0.0162,
      "velocity": 110,
      "chip": "ym2612"
    },
    {
      "channel": 3,
      "note": 90,
      "start": 57.157,
      "duration": 0.0161,
      "velocity": 85,
      "chip": "ym2612"
    },
    {
      "channel": 2,
      "note": 59,
      "start": 57.1581,
      "duration": 0.0162,
      "velocity": 100,
      "chip": "ym2612"
    },
    {
      "channel": 0,
      "note": 43,
      "start": 57.1696,
      "duration": 0.0161,
      "velocity": 115,
      "chip": "ym2612"
    },
    {
      "channel": 5,
      "note": 71,
      "start": 57.1708,
      "duration": 0.0161,
      "velocity": 110,
      "chip": "ym2612"
    },
    {
      "channel": 4,
      "note": 75,
      "start": 57.172,
      "duration": 0.0161,
      "velocity": 110,
      "chip": "ym2612"
    },
    {
      "channel": 3,
      "note": 90,
      "start": 57.1731,
      "duration": 0.0161,
      "velocity": 85,
      "chip": "ym2612"
    },
    {
      "channel": 2,
      "note": 59,
      "start": 57.1743,
      "duration": 0.0161,
      "velocity": 100,
      "chip": "ym2612"
    },
    {
      "channel": 0,
      "note": 43,
      "start": 57.1857,
      "duration": 0.016,
      "velocity": 115,
      "chip": "ym2612"
    },
    {
      "channel": 3,
      "note": 90,
      "start": 57.1892,
      "duration": 0.0161,
      "velocity": 85,
      "chip": "ym2612"
    },
    {
      "channel": 2,
      "note": 59,
      "start": 57.1904,
      "duration": 0.0161,
      "velocity": 100,
      "chip": "ym2612"
    },
    {
      "channel": 0,
      "note": 44,
      "start": 57.2018,
      "duration": 0.0158,
      "velocity": 115,
      "chip": "ym2612"
    },
    {
      "channel": 3,
      "note": 90,
      "start": 57.2053,
      "duration": 0.0161,
      "velocity": 85,
      "chip": "ym2612"
    },
    {
      "channel": 2,
      "note": 59,
      "start": 57.2065,
      "duration": 0.0161,
      "velocity": 100,
      "chip": "ym2612"
    },
    {
      "channel": 0,
      "note": 44,
      "start": 57.2176,
      "duration": 0.0183,
      "velocity": 115,
      "chip": "ym2612"
    },
    {
      "channel": 3,
      "note": 90,
      "start": 57.2214,
      "duration": 0.0185,
      "velocity": 85,
      "chip": "ym2612"
    },
    {
      "channel": 2,
      "note": 59,
      "start": 57.2226,
      "duration": 0.0188,
      "velocity": 100,
      "chip": "ym2612"
    },
    {
      "channel": 0,
      "note": 36,
      "start": 57.2359,
      "duration": 0.0137,
      "velocity": 115,
      "chip": "ym2612"
    },
    {
      "channel": 5,
      "note": 71,
      "start": 57.2373,
      "duration": 0.0141,
      "velocity": 110,
      "chip": "ym2612"
    },
    {
      "channel": 4,
      "note": 75,
      "start": 57.2388,
      "duration": 0.0139,
      "velocity": 110,
      "chip": "ym2612"
    },
    {
      "channel": 3,
      "note": 90,
      "start": 57.2399,
      "duration": 0.0139,
      "velocity": 85,
      "chip": "ym2612"
    },
    {
      "channel": 2,
      "note": 59,
      "start": 57.2415,
      "duration": 0.0136,
      "velocity": 100,
      "chip": "ym2612"
    },
    {
      "channel": 0,
      "note": 36,
      "start": 57.2496,
      "duration": 0.016,
      "velocity": 115,
      "chip": "ym2612"
    },
    {
      "channel": 5,
      "note": 71,
      "start": 57.2514,
      "duration": 0.0155,
      "velocity": 110,
      "chip": "ym2612"
    },
    {
      "channel": 4,
      "note": 75,
      "start": 57.2527,
      "duration": 0.0159,
      "velocity": 110,
      "chip": "ym2612"
    },
    {
      "channel": 3,
      "note": 90,
      "start": 57.2538,
      "duration": 0.016,
      "velocity": 85,
      "chip": "ym2612"
    },
    {
      "channel": 2,
      "note": 59,
      "start": 57.255,
      "duration": 0.0159,
      "velocity": 100,
      "chip": "ym2612"
    },
    {
      "channel": 0,
      "note": 37,
      "start": 57.2656,
      "duration": 0.0161,
      "velocity": 115,
      "chip": "ym2612"
    },
    {
      "channel": 5,
      "note": 71,
      "start": 57.2668,
      "duration": 0.0161,
      "velocity": 110,
      "chip": "ym2612"
    },
    {
      "channel": 4,
      "note": 75,
      "start": 57.2685,
      "duration": 0.0158,
      "velocity": 110,
      "chip": "ym2612"
    },
    {
      "channel": 3,
      "note": 90,
      "start": 57.2698,
      "duration": 0.0161,
      "velocity": 85,
      "chip": "ym2612"
    },
    {
      "channel": 2,
      "note": 59,
      "start": 57.2709,
      "duration": 0.0161,
      "velocity": 100,
      "chip": "ym2612"
    },
    {
      "channel": 0,
      "note": 37,
      "start": 57.2817,
      "duration": 0.0161,
      "velocity": 115,
      "chip": "ym2612"
    },
    {
      "channel": 5,
      "note": 71,
      "start": 57.2829,
      "duration": 0.0161,
      "velocity": 110,
      "chip": "ym2612"
    },
    {
      "channel": 4,
      "note": 75,
      "start": 57.2843,
      "duration": 0.0159,
      "velocity": 110,
      "chip": "ym2612"
    },
    {
      "channel": 3,
      "note": 90,
      "start": 57.2859,
      "duration": 0.016,
      "velocity": 85,
      "chip": "ym2612"
    },
    {
      "channel": 2,
      "note": 59,
      "start": 57.287,
      "duration": 0.0161,
      "velocity": 100,
      "chip": "ym2612"
    },
    {
      "channel": 0,
      "note": 38,
      "start": 57.2978,
      "duration": 0.0161,
      "velocity": 115,
      "chip": "ym2612"
    },
    {
      "channel": 3,
      "note": 90,
      "start": 57.3019,
      "duration": 0.0158,
      "velocity": 85,
      "chip": "ym2612"
    },
    {
      "channel": 2,
      "note": 59,
      "start": 57.3031,
      "duration": 0.0161,
      "velocity": 100,
      "chip": "ym2612"
    },
    {
      "channel": 0,
      "note": 38,
      "start": 57.3139,
      "duration": 0.0161,
      "velocity": 115,
      "chip": "ym2612"
    },
    {
      "channel": 3,
      "note": 90,
      "start": 57.3177,
      "duration": 0.0159,
      "velocity": 85,
      "chip": "ym2612"
    },
    {
      "channel": 2,
      "note": 59,
      "start": 57.3192,
      "duration": 0.016,
      "velocity": 100,
      "chip": "ym2612"
    },
    {
      "channel": 0,
      "note": 39,
      "start": 57.33,
      "duration": 0.018,
      "velocity": 124,
      "chip": "ym2612"
    },
    {
      "channel": 3,
      "note": 90,
      "start": 57.3336,
      "duration": 0.0192,
      "velocity": 85,
      "chip": "ym2612"
    },
    {
      "channel": 2,
      "note": 59,
      "start": 57.3352,
      "duration": 0.0188,
      "velocity": 100,
      "chip": "ym2612"
    },
    {
      "channel": 0,
      "note": 84,
      "start": 57.348,
      "duration": 0.0143,
      "velocity": 124,
      "chip": "ym2612"
    },
    {
      "channel": 5,
      "note": 75,
      "start": 57.3495,
      "duration": 0.0141,
      "velocity": 110,
      "chip": "ym2612"
    },
    {
      "channel": 4,
      "note": 71,
      "start": 57.3516,
      "duration": 0.0132,
      "velocity": 110,
      "chip": "ym2612"
    },
    {
      "channel": 3,
      "note": 90,
      "start": 57.3528,
      "duration": 0.0132,
      "velocity": 85,
      "chip": "ym2612"
    },
    {
      "channel": 2,
      "note": 59,
      "start": 57.354,
      "duration": 0.0134,
      "velocity": 100,
      "chip": "ym2612"
    },
    {
      "channel": 1,
      "note": 63,
      "start": 57.3568,
      "duration": 0.0121,
      "velocity": 94,
      "chip": "ym2612"
    },
    {
      "channel": 0,
      "note": 82,
      "start": 57.3623,
      "duration": 0.016,
      "velocity": 124,
      "chip": "ym2612"
    },
    {
      "channel": 5,
      "note": 75,
      "start": 57.3635,
      "duration": 0.016,
      "velocity": 110,
      "chip": "ym2612"
    },
    {
      "channel": 4,
      "note": 71,
      "start": 57.3648,
      "duration": 0.0159,
      "velocity": 110,
      "chip": "ym2612"
    },
    {
      "channel": 3,
      "note": 90,
      "start": 57.3659,
      "duration": 0.0159,
      "velocity": 85,
      "chip": "ym2612"
    },
    {
      "channel": 2,
      "note": 59,
      "start": 57.3673,
      "duration": 0.0157,
      "velocity": 100,
      "chip": "ym2612"
    },
    {
      "channel": 1,
      "note": 63,
      "start": 57.3689,
      "duration": 0.0159,
      "velocity": 94,
      "chip": "ym2612"
    },
    {
      "channel": 0,
      "note": 80,
      "start": 57.3784,
      "duration": 0.0161,
      "velocity": 124,
      "chip": "ym2612"
    },
    {
      "channel": 5,
      "note": 75,
      "start": 57.3795,
      "duration": 0.0161,
      "velocity": 110,
      "chip": "ym2612"
    },
    {
      "channel": 4,
      "note": 71,
      "start": 57.3807,
      "duration": 0.0161,
      "velocity": 110,
      "chip": "ym2612"
    },
    {
      "channel": 3,
      "note": 90,
      "start": 57.3819,
      "duration": 0.0161,
      "velocity": 85,
      "chip": "ym2612"
    },
    {
      "channel": 2,
      "note": 59,
      "start": 57.3831,
      "duration": 0.0161,
      "velocity": 100,
      "chip": "ym2612"
    },
    {
      "channel": 1,
      "note": 63,
      "start": 57.3848,
      "duration": 0.0155,
      "velocity": 94,
      "chip": "ym2612"
    },
    {
      "channel": 0,
      "note": 77,
      "start": 57.3944,
      "duration": 0.0161,
      "velocity": 124,
      "chip": "ym2612"
    },
    {
      "channel": 3,
      "note": 90,
      "start": 57.398,
      "duration": 0.016,
      "velocity": 85,
      "chip": "ym2612"
    },
    {
      "channel": 2,
      "note": 59,
      "start": 57.3992,
      "duration": 0.016,
      "velocity": 100,
      "chip": "ym2612"
    },
    {
      "channel": 1,
      "note": 63,
      "start": 57.4003,
      "duration": 0.016,
      "velocity": 94,
      "chip": "ym2612"
    },
    {
      "channel": 0,
      "note": 75,
      "start": 57.4105,
      "duration": 0.0161,
      "velocity": 124,
      "chip": "ym2612"
    },
    {
      "channel": 3,
      "note": 90,
      "start": 57.414,
      "duration": 0.0161,
      "velocity": 85,
      "chip": "ym2612"
    },
    {
      "channel": 2,
      "note": 59,
      "start": 57.4152,
      "duration": 0.0161,
      "velocity": 100,
      "chip": "ym2612"
    },
    {
      "channel": 1,
      "note": 63,
      "start": 57.4163,
      "duration": 0.0162,
      "velocity": 94,
      "chip": "ym2612"
    },
    {
      "channel": 0,
      "note": 72,
      "start": 57.4266,
      "duration": 0.0161,
      "velocity": 124,
      "chip": "ym2612"
    },
    {
      "channel": 3,
      "note": 90,
      "start": 57.4301,
      "duration": 0.0167,
      "velocity": 85,
      "chip": "ym2612"
    },
    {
      "channel": 2,
      "note": 59,
      "start": 57.4313,
      "duration": 0.017,
      "velocity": 100,
      "chip": "ym2612"
    },
    {
      "channel": 1,
      "note": 63,
      "start": 57.4325,
      "duration": 0.0169,
      "velocity": 94,
      "chip": "ym2612"
    },
    {
      "channel": 0,
      "note": 70,
      "start": 57.4427,
      "duration": 0.0161,
      "velocity": 124,
      "chip": "ym2612"
    },
    {
      "channel": 5,
      "note": 75,
      "start": 57.4443,
      "duration": 0.0158,
      "velocity": 110,
      "chip": "ym2612"
    },
    {
      "channel": 4,
      "note": 71,
      "start": 57.4457,
      "duration": 0.0156,
      "velocity": 110,
      "chip": "ym2612"
    },
    {
      "channel": 3,
      "note": 90,
      "start": 57.4469,
      "duration": 0.0156,
      "velocity": 85,
      "chip": "ym2612"
    },
    {
      "channel": 2,
      "note": 59,
      "start": 57.4483,
      "duration": 0.0154,
      "velocity": 100,
      "chip": "ym2612"
    },
    {
      "channel": 1,
      "note": 63,
      "start": 57.4494,
      "duration": 0.0155,
      "velocity": 94,
      "chip": "ym2612"
    },
    {
      "channel": 0,
      "note": 68,
      "start": 57.4588,
      "duration": 0.0161,
      "velocity": 124,
      "chip": "ym2612"
    },
    {
      "channel": 5,
      "note": 75,
      "start": 57.4601,
      "duration": 0.016,
      "velocity": 110,
      "chip": "ym2612"
    },
    {
      "channel": 4,
      "note": 71,
      "start": 57.4613,
      "duration": 0.016,
      "velocity": 110,
      "chip": "ym2612"
    },
    {
      "channel": 2,
      "note": 59,
      "start": 57.4637,
      "duration": 0.016,
      "velocity": 100,
      "chip": "ym2612"
    },
    {
      "channel": 1,
      "note": 63,
      "start": 57.4649,
      "duration": 0.016,
      "velocity": 94,
      "chip": "ym2612"
    },
    {
      "channel": 0,
      "note": 65,
      "start": 57.4749,
      "duration": 0.0162,
      "velocity": 124,
      "chip": "ym2612"
    },
    {
      "channel": 5,
      "note": 75,
      "start": 57.4761,
      "duration": 0.0161,
      "velocity": 110,
      "chip": "ym2612"
    },
    {
      "channel": 4,
      "note": 71,
      "start": 57.4773,
      "duration": 0.0161,
      "velocity": 110,
      "chip": "ym2612"
    },
    {
      "channel": 2,
      "note": 59,
      "start": 57.4797,
      "duration": 0.0161,
      "velocity": 100,
      "chip": "ym2612"
    },
    {
      "channel": 1,
      "note": 63,
      "start": 57.4808,
      "duration": 0.0161,
      "velocity": 94,
      "chip": "ym2612"
    },
    {
      "channel": 0,
      "note": 63,
      "start": 57.4911,
      "duration": 0.0153,
      "velocity": 1,
      "chip": "ym2612"
    },
    {
      "channel": 5,
      "note": 75,
      "start": 57.4922,
      "duration": 0.0153,
      "velocity": 110,
      "chip": "ym2612"
    },
    {
      "channel": 4,
      "note": 71,
      "start": 57.4934,
      "duration": 0.0153,
      "velocity": 110,
      "chip": "ym2612"
    },
    {
      "channel": 2,
      "note": 59,
      "start": 57.4958,
      "duration": 0.0153,
      "velocity": 100,
      "chip": "ym2612"
    },
    {
      "channel": 1,
      "note": 63,
      "start": 57.4969,
      "duration": 0.0153,
      "velocity": 94,
      "chip": "ym2612"
    },
    {
      "channel": 2,
      "note": 59,
      "start": 57.5111,
      "duration": 0.0152,
      "velocity": 100,
      "chip": "ym2612"
    },
    {
      "channel": 1,
      "note": 63,
      "start": 57.5123,
      "duration": 0.0152,
      "velocity": 94,
      "chip": "ym2612"
    },
    {
      "channel": 2,
      "note": 59,
      "start": 57.5263,
      "duration": 0.0161,
      "velocity": 100,
      "chip": "ym2612"
    },
    {
      "channel": 1,
      "note": 63,
      "start": 57.5275,
      "duration": 0.0161,
      "velocity": 94,
      "chip": "ym2612"
    },
    {
      "channel": 2,
      "note": 59,
      "start": 57.5424,
      "duration": 0.0206,
      "velocity": 100,
      "chip": "ym2612"
    },
    {
      "channel": 1,
      "note": 63,
      "start": 57.5436,
      "duration": 0.0207,
      "velocity": 94,
      "chip": "ym2612"
    },
    {
      "channel": 0,
      "note": 36,
      "start": 57.5573,
      "duration": 0.0143,
      "velocity": 115,
      "chip": "ym2612"
    },
    {
      "channel": 5,
      "note": 71,
      "start": 57.5589,
      "duration": 0.0139,
      "velocity": 110,
      "chip": "ym2612"
    },
    {
      "channel": 4,
      "note": 75,
      "start": 57.5604,
      "duration": 0.0137,
      "velocity": 110,
      "chip": "ym2612"
    },
    {
      "channel": 2,
      "note": 54,
      "start": 57.563,
      "duration": 0.0134,
      "velocity": 100,
      "chip": "ym2612"
    },
    {
      "channel": 1,
      "note": 63,
      "start": 57.5642,
      "duration": 0.0134,
      "velocity": 94,
      "chip": "ym2612"
    },
    {
      "channel": 0,
      "note": 36,
      "start": 57.5716,
      "duration": 0.016,
      "velocity": 115,
      "chip": "ym2612"
    },
    {
      "channel": 5,
      "note": 71,
      "start": 57.5728,
      "duration": 0.016,
      "velocity": 110,
      "chip": "ym2612"
    },
    {
      "channel": 4,
      "note": 75,
      "start": 57.5741,
      "duration": 0.0159,
      "velocity": 110,
      "chip": "ym2612"
    },
    {
      "channel": 2,
      "note": 54,
      "start": 57.5764,
      "duration": 0.0159,
      "velocity": 100,
      "chip": "ym2612"
    },
    {
      "channel": 1,
      "note": 63,
      "start": 57.5777,
      "duration": 0.0158,
      "velocity": 94,
      "chip": "ym2612"
    },
    {
      "channel": 0,
      "note": 37,
      "start": 57.5876,
      "duration": 0.0162,
      "velocity": 115,
      "chip": "ym2612"
    },
    {
      "channel": 5,
      "note": 71,
      "start": 57.5888,
      "duration": 0.0162,
      "velocity": 110,
      "chip": "ym2612"
    },
    {
      "channel": 4,
      "note": 75,
      "start": 57.59,
      "duration": 0.0161,
      "velocity": 110,
      "chip": "ym2612"
    },
    {
      "channel": 2,
      "note": 54,
      "start": 57.5923,
      "duration": 0.0161,
      "velocity": 100,
      "chip": "ym2612"
    },
    {
      "channel": 1,
      "note": 63,
      "start": 57.5935,
      "duration": 0.0162,
      "velocity": 94,
      "chip": "ym2612"
    },
    {
      "channel": 0,
      "note": 37,
      "start": 57.6038,
      "duration": 0.0163,
      "velocity": 115,
      "chip": "ym2612"
    },
    {
      "channel": 5,
      "note": 71,
      "start": 57.605,
      "duration": 0.0162,
      "velocity": 110,
      "chip": "ym2612"
    },
    {
      "channel": 4,
      "note": 75,
      "start": 57.6061,
      "duration": 0.0162,
      "velocity": 110,
      "chip": "ym2612"
    },
    {
      "channel": 2,
      "note": 54,
      "start": 57.6084,
      "duration": 0.0163,
      "velocity": 100,
      "chip": "ym2612"
    },
    {
      "channel": 1,
      "note": 63,
      "start": 57.6097,
      "duration": 0.0162,
      "velocity": 94,
      "chip": "ym2612"
    },
    {
      "channel": 0,
      "note": 38,
      "start": 57.6201,
      "duration": 0.0163,
      "velocity": 115,
      "chip": "ym2612"
    },
    {
      "channel": 5,
      "note": 71,
      "start": 57.6212,
      "duration": 0.0163,
      "velocity": 110,
      "chip": "ym2612"
    },
    {
      "channel": 4,
      "note": 75,
      "start": 57.6224,
      "duration": 0.0163,
      "velocity": 110,
      "chip": "ym2612"
    },
    {
      "channel": 2,
      "note": 54,
      "start": 57.6247,
      "duration": 0.0163,
      "velocity": 100,
      "chip": "ym2612"
    },
    {
      "channel": 1,
      "note": 63,
      "start": 57.6259,
      "duration": 0.0163,
      "velocity": 94,
      "chip": "ym2612"
    },
    {
      "channel": 0,
      "note": 38,
      "start": 57.6364,
      "duration": 0.0181,
      "velocity": 115,
      "chip": "ym2612"
    },
    {
      "channel": 5,
      "note": 71,
      "start": 57.6376,
      "duration": 0.0181,
      "velocity": 110,
      "chip": "ym2612"
    },
    {
      "channel": 4,
      "note": 75,
      "start": 57.6387,
      "duration": 0.0181,
      "velocity": 110,
      "chip": "ym2612"
    },
    {
      "channel": 2,
      "note": 54,
      "start": 57.641,
      "duration": 0.0184,
      "velocity": 100,
      "chip": "ym2612"
    },
    {
      "channel": 1,
      "note": 63,
      "start": 57.6422,
      "duration": 0.0185,
      "velocity": 94,
      "chip": "ym2612"
    },
    {
      "channel": 0,
      "note": 36,
      "start": 57.6545,
      "duration": 0.0142,
      "velocity": 115,
      "chip": "ym2612"
    },
    {
      "channel": 5,
      "note": 71,
      "start": 57.6556,
      "duration": 0.0144,
      "velocity": 110,
      "chip": "ym2612"
    },
    {
      "channel": 4,
      "note": 75,
      "start": 57.6568,
      "duration": 0.0143,
      "velocity": 110,
      "chip": "ym2612"
    },
    {
      "channel": 2,
      "note": 56,
      "start": 57.6595,
      "duration": 0.016,
      "velocity": 100,
      "chip": "ym2612"
    },
    {
      "channel": 1,
      "note": 63,
      "start": 57.6607,
      "duration": 0.016,
      "velocity": 94,
      "chip": "ym2612"
    },
    {
      "channel": 0,
      "note": 36,
      "start": 57.6688,
      "duration": 0.016,
      "velocity": 115,
      "chip": "ym2612"
    },
    {
      "channel": 3,
      "note": 63,
      "start": 57.6742,
      "duration": 0.0143,
      "velocity": 94,
      "chip": "ym2612"
    },
    {
      "channel": 2,
      "note": 56,
      "start": 57.6754,
      "duration": 0.0142,
      "velocity": 100,
      "chip": "ym2612"
    },
    {
      "channel": 1,
      "note": 63,
      "start": 57.6766,
      "duration": 0.0141,
      "velocity": 94,
      "chip": "ym2612"
    },
    {
      "channel": 0,
      "note": 37,
      "start": 57.6848,
      "duration": 0.0156,
      "velocity": 115,
      "chip": "ym2612"
    },
    {
      "channel": 3,
      "note": 63,
      "start": 57.6885,
      "duration": 0.016,
      "velocity": 94,
      "chip": "ym2612"
    },
    {
      "channel": 2,
      "note": 56,
      "start": 57.6896,
      "duration": 0.016,
      "velocity": 100,
      "chip": "ym2612"
    },
    {
      "channel": 1,
      "note": 63,
      "start": 57.6908,
      "duration": 0.016,
      "velocity": 94,
      "chip": "ym2612"
    },
    {
      "channel": 0,
      "note": 37,
      "start": 57.7004,
      "duration": 0.0161,
      "velocity": 115,
      "chip": "ym2612"
    },
    {
      "channel": 3,
      "note": 63,
      "start": 57.7045,
      "duration": 0.016,
      "velocity": 94,
      "chip": "ym2612"
    },
    {
      "channel": 2,
      "note": 56,
      "start": 57.7056,
      "duration": 0.0161,
      "velocity": 100,
      "chip": "ym2612"
    },
    {
      "channel": 1,
      "note": 63,
      "start": 57.7068,
      "duration": 0.0161,
      "velocity": 94,
      "chip": "ym2612"
    },
    {
      "channel": 0,
      "note": 38,
      "start": 57.7165,
      "duration": 0.0161,
      "velocity": 115,
      "chip": "ym2612"
    },
    {
      "channel": 3,
      "note": 63,
      "start": 57.7205,
      "duration": 0.0162,
      "velocity": 94,
      "chip": "ym2612"
    },
    {
      "channel": 2,
      "note": 56,
      "start": 57.7217,
      "duration": 0.0161,
      "velocity": 100,
      "chip": "ym2612"
    },
    {
      "channel": 0,
      "note": 38,
      "start": 57.7326,
      "duration": 0.0161,
      "velocity": 115,
      "chip": "ym2612"
    },
    {
      "channel": 3,
      "note": 63,
      "start": 57.7367,
      "duration": 0.0161,
      "velocity": 94,
      "chip": "ym2612"
    },
    {
      "channel": 2,
      "note": 56,
      "start": 57.7378,
      "duration": 0.0161,
      "velocity": 100,
      "chip": "ym2612"
    },
    {
      "channel": 0,
      "note": 39,
      "start": 57.7486,
      "duration": 0.018,
      "velocity": 115,
      "chip": "ym2612"
    },
    {
      "channel": 3,
      "note": 63,
      "start": 57.7528,
      "duration": 0.0186,
      "velocity": 94,
      "chip": "ym2612"
    },
    {
      "channel": 2,
      "note": 56,
      "start": 57.7539,
      "duration": 0.0189,
      "velocity": 100,
      "chip": "ym2612"
    },
    {
      "channel": 0,
      "note": 36,
      "start": 57.7666,
      "duration": 0.0143,
      "velocity": 115,
      "chip": "ym2612"
    },
    {
      "channel": 5,
      "note": 75,
      "start": 57.7688,
      "duration": 0.0134,
      "velocity": 110,
      "chip": "ym2612"
    },
    {
      "channel": 4,
      "note": 71,
      "start": 57.7703,
      "duration": 0.0131,
      "velocity": 110,
      "chip": "ym2612"
    },
    {
      "channel": 3,
      "note": 63,
      "start": 57.7714,
      "duration": 0.0137,
      "velocity": 94,
      "chip": "ym2612"
    },
    {
      "channel": 2,
      "note": 59,
      "start": 57.7729,
      "duration": 0.0135,
      "velocity": 100,
      "chip": "ym2612"
    },
    {
      "channel": 1,
      "note": 66,
      "start": 57.7744,
      "duration": 0.0133,
      "velocity": 94,
      "chip": "ym2612"
    },
    {
      "channel": 0,
      "note": 36,
      "start": 57.7809,
      "duration": 0.0161,
      "velocity": 115,
      "chip": "ym2612"
    },
    {
      "channel": 5,
      "note": 75,
      "start": 57.7822,
      "duration": 0.016,
      "velocity": 110,
      "chip": "ym2612"
    },
    {
      "channel": 4,
      "note": 71,
      "start": 57.7834,
      "duration": 0.0159,
      "velocity": 110,
      "chip": "ym2612"
    },
    {
      "channel": 3,
      "note": 63,
      "start": 57.7851,
      "duration": 0.0154,
      "velocity": 94,
      "chip": "ym2612"
    },
    {
      "channel": 2,
      "note": 59,
      "start": 57.7864,
      "duration": 0.0159,
      "velocity": 100,
      "chip": "ym2612"
    },
    {
      "channel": 1,
      "note": 66,
      "start": 57.7876,
      "duration": 0.0158,
      "velocity": 94,
      "chip": "ym2612"
    },
    {
      "channel": 0,
      "note": 37,
      "start": 57.797,
      "duration": 0.0161,
      "velocity": 115,
      "chip": "ym2612"
    },
    {
      "channel": 5,
      "note": 75,
      "start": 57.7981,
      "duration": 0.0161,
      "velocity": 110,
      "chip": "ym2612"
    },
    {
      "channel": 4,
      "note": 71,
      "start": 57.7993,
      "duration": 0.0162,
      "velocity": 110,
      "chip": "ym2612"
    },
    {
      "channel": 3,
      "note": 63,
      "start": 57.8005,
      "duration": 0.0161,
      "velocity": 94,
      "chip": "ym2612"
    },
    {
      "channel": 2,
      "note": 59,
      "start": 57.8022,
      "duration": 0.0161,
      "velocity": 100,
      "chip": "ym2612"
    },
    {
      "channel": 1,
      "note": 66,
      "start": 57.8034,
      "duration": 0.0161,
      "velocity": 94,
      "chip": "ym2612"
    },
    {
      "channel": 0,
      "note": 37,
      "start": 57.8131,
      "duration": 0.0161,
      "velocity": 115,
      "chip": "ym2612"
    },
    {
      "channel": 5,
      "note": 75,
      "start": 57.8142,
      "duration": 0.0161,
      "velocity": 110,
      "chip": "ym2612"
    },
    {
      "channel": 4,
      "note": 71,
      "start": 57.8154,
      "duration": 0.0161,
      "velocity": 110,
      "chip": "ym2612"
    },
    {
      "channel": 3,
      "note": 63,
      "start": 57.8166,
      "duration": 0.0161,
      "velocity": 94,
      "chip": "ym2612"
    },
    {
      "channel": 2,
      "note": 59,
      "start": 57.8183,
      "duration": 0.0158,
      "velocity": 100,
      "chip": "ym2612"
    },
    {
      "channel": 1,
      "note": 66,
      "start": 57.8195,
      "duration": 0.0161,
      "velocity": 94,
      "chip": "ym2612"
    },
    {
      "channel": 0,
      "note": 38,
      "start": 57.8292,
      "duration": 0.0161,
      "velocity": 115,
      "chip": "ym2612"
    },
    {
      "channel": 5,
      "note": 75,
      "start": 57.8303,
      "duration": 0.0161,
      "velocity": 110,
      "chip": "ym2612"
    },
    {
      "channel": 4,
      "note": 71,
      "start": 57.8315,
      "duration": 0.0161,
      "velocity": 110,
      "chip": "ym2612"
    },
    {
      "channel": 3,
      "note": 63,
      "start": 57.8327,
      "duration": 0.0161,
      "velocity": 94,
      "chip": "ym2612"
    },
    {
      "channel": 2,
      "note": 59,
      "start": 57.8341,
      "duration": 0.0159,
      "velocity": 100,
      "chip": "ym2612"
    },
    {
      "channel": 1,
      "note": 66,
      "start": 57.8356,
      "duration": 0.016,
      "velocity": 94,
      "chip": "ym2612"
    },
    {
      "channel": 0,
      "note": 38,
      "start": 57.8453,
      "duration": 0.0179,
      "velocity": 127,
      "chip": "ym2612"
    },
    {
      "channel": 5,
      "note": 75,
      "start": 57.8464,
      "duration": 0.018,
      "velocity": 110,
      "chip": "ym2612"
    },
    {
      "channel": 4,
      "note": 71,
      "start": 57.8476,
      "duration": 0.0179,
      "velocity": 110,
      "chip": "ym2612"
    },
    {
      "channel": 3,
      "note": 63,
      "start": 57.8488,
      "duration": 0.018,
      "velocity": 94,
      "chip": "ym2612"
    },
    {
      "channel": 2,
      "note": 59,
      "start": 57.85,
      "duration": 0.0188,
      "velocity": 100,
      "chip": "ym2612"
    },
    {
      "channel": 1,
      "note": 66,
      "start": 57.8516,
      "duration": 0.0183,
      "velocity": 94,
      "chip": "ym2612"
    },
    {
      "channel": 0,
      "note": 88,
      "start": 57.8632,
      "duration": 0.0143,
      "velocity": 127,
      "chip": "ym2612"
    },
    {
      "channel": 5,
      "note": 75,
      "start": 57.8644,
      "duration": 0.0143,
      "velocity": 110,
      "chip": "ym2612"
    },
    {
      "channel": 4,
      "note": 71,
      "start": 57.8656,
      "duration": 0.0143,
      "velocity": 110,
      "chip": "ym2612"
    },
    {
      "channel": 3,
      "note": 63,
      "start": 57.8668,
      "duration": 0.0143,
      "velocity": 94,
      "chip": "ym2612"
    },
    {
      "channel": 2,
      "note": 71,
      "start": 57.8688,
      "duration": 0.0135,
      "velocity": 100,
      "chip": "ym2612"
    },
    {
      "channel": 1,
      "note": 66,
      "start": 57.87,
      "duration": 0.0135,
      "velocity": 94,
      "chip": "ym2612"
    },
    {
      "channel": 0,
      "note": 86,
      "start": 57.8775,
      "duration": 0.016,
      "velocity": 127,
      "chip": "ym2612"
    },
    {
      "channel": 3,
      "note": 63,
      "start": 57.8811,
      "duration": 0.016,
      "velocity": 94,
      "chip": "ym2612"
    },
    {
      "channel": 2,
      "note": 71,
      "start": 57.8823,
      "duration": 0.016,
      "velocity": 100,
      "chip": "ym2612"
    },
    {
      "channel": 1,
      "note": 66,
      "start": 57.8834,
      "duration": 0.016,
      "velocity": 94,
      "chip": "ym2612"
    },
    {
      "channel": 0,
      "note": 85,
      "start": 57.8936,
      "duration": 0.0161,
      "velocity": 127,
      "chip": "ym2612"
    },
    {
      "channel": 3,
      "note": 63,
      "start": 57.8971,
      "duration": 0.0161,
      "velocity": 94,
      "chip": "ym2612"
    },
    {
      "channel": 2,
      "note": 71,
      "start": 57.8983,
      "duration": 0.0161,
      "velocity": 100,
      "chip": "ym2612"
    },
    {
      "channel": 1,
      "note": 66,
      "start": 57.8994,
      "duration": 0.0161,
      "velocity": 94,
      "chip": "ym2612"
    },
    {
      "channel": 0,
      "note": 83,
      "start": 57.9097,
      "duration": 0.0161,
      "velocity": 127,
      "chip": "ym2612"
    },
    {
      "channel": 3,
      "note": 63,
      "start": 57.9132,
      "duration": 0.0161,
      "velocity": 94,
      "chip": "ym2612"
    },
    {
      "channel": 2,
      "note": 71,
      "start": 57.9144,
      "duration": 0.0161,
      "velocity": 100,
      "chip": "ym2612"
    },
    {
      "channel": 1,
      "note": 66,
      "start": 57.9155,
      "duration": 0.0161,
      "velocity": 94,
      "chip": "ym2612"
    },
    {
      "channel": 0,
      "note": 81,
      "start": 57.9257,
      "duration": 0.0161,
      "velocity": 127,
      "chip": "ym2612"
    },
    {
      "channel": 3,
      "note": 63,
      "start": 57.9293,
      "duration": 0.0161,
      "velocity": 94,
      "chip": "ym2612"
    },
    {
      "channel": 2,
      "note": 71,
      "start": 57.9305,
      "duration": 0.0161,
      "velocity": 100,
      "chip": "ym2612"
    },
    {
      "channel": 1,
      "note": 66,
      "start": 57.9316,
      "duration": 0.0161,
      "velocity": 94,
      "chip": "ym2612"
    },
    {
      "channel": 0,
      "note": 80,
      "start": 57.9418,
      "duration": 0.0162,
      "velocity": 127,
      "chip": "ym2612"
    },
    {
      "channel": 3,
      "note": 63,
      "start": 57.9454,
      "duration": 0.0161,
      "velocity": 94,
      "chip": "ym2612"
    },
    {
      "channel": 2,
      "note": 71,
      "start": 57.9466,
      "duration": 0.0161,
      "velocity": 100,
      "chip": "ym2612"
    },
    {
      "channel": 1,
      "note": 66,
      "start": 57.9477,
      "duration": 0.0162,
      "velocity": 94,
      "chip": "ym2612"
    },
    {
      "channel": 0,
      "note": 78,
      "start": 57.958,
      "duration": 0.0161,
      "velocity": 127,
      "chip": "ym2612"
    },
    {
      "channel": 3,
      "note": 63,
      "start": 57.9615,
      "duration": 0.0169,
      "velocity": 94,
      "chip": "ym2612"
    },
    {
      "channel": 2,
      "note": 71,
      "start": 57.9627,
      "duration": 0.0171,
      "velocity": 100,
      "chip": "ym2612"
    },
    {
      "channel": 1,
      "note": 66,
      "start": 57.9639,
      "duration": 0.0172,
      "velocity": 94,
      "chip": "ym2612"
    },
    {
      "channel": 0,
      "note": 76,
      "start": 57.9741,
      "duration": 0.0161,
      "velocity": 127,
      "chip": "ym2612"
    },
    {
      "channel": 5,
      "note": 71,
      "start": 57.9756,
      "duration": 0.0158,
      "velocity": 110,
      "chip": "ym2612"
    },
    {
      "channel": 4,
      "note": 75,
      "start": 57.9772,
      "duration": 0.0155,
      "velocity": 110,
      "chip": "ym2612"
    },
    {
      "channel": 3,
      "note": 63,
      "start": 57.9784,
      "duration": 0.0154,
      "velocity": 94,
      "chip": "ym2612"
    },
    {
      "channel": 2,
      "note": 59,
      "start": 57.9798,
      "duration": 0.0152,
      "velocity": 100,
      "chip": "ym2612"
    },
    {
      "channel": 1,
      "note": 66,
      "start": 57.981,
      "duration": 0.0152,
      "velocity": 94,
      "chip": "ym2612"
    },
    {
      "channel": 0,
      "note": 75,
      "start": 57.9902,
      "duration": 0.0161,
      "velocity": 127,
      "chip": "ym2612"
    },
    {
      "channel": 5,
      "note": 71,
      "start": 57.9914,
      "duration": 0.0161,
      "velocity": 110,
      "chip": "ym2612"
    },
    {
      "channel": 4,
      "note": 75,
      "start": 57.9927,
      "duration": 0.016,
      "velocity": 110,
      "chip": "ym2612"
    },
    {
      "channel": 3,
      "note": 63,
      "start": 57.9938,
      "duration": 0.016,
      "velocity": 94,
      "chip": "ym2612"
    },
    {
      "channel": 2,
      "note": 59,
      "start": 57.995,
      "duration": 0.016,
      "velocity": 100,
      "chip": "ym2612"
    },
    {
      "channel": 1,
      "note": 66,
      "start": 57.9962,
      "duration": 0.0159,
      "velocity": 94,
      "chip": "ym2612"
    },
    {
      "channel": 0,
      "note": 73,
      "start": 58.0063,
      "duration": 0.0161,
      "velocity": 127,
      "chip": "ym2612"
    },
    {
      "channel": 5,
      "note": 71,
      "start": 58.0075,
      "duration": 0.0161,
      "velocity": 110,
      "chip": "ym2612"
    },
    {
      "channel": 4,
      "note": 75,
      "start": 58.0086,
      "duration": 0.0161,
      "velocity": 110,
      "chip": "ym2612"
    },
    {
      "channel": 3,
      "note": 63,
      "start": 58.0098,
      "duration": 0.0161,
      "velocity": 94,
      "chip": "ym2612"
    },
    {
      "channel": 2,
      "note": 59,
      "start": 58.011,
      "duration": 0.0161,
      "velocity": 100,
      "chip": "ym2612"
    },
    {
      "channel": 1,
      "note": 66,
      "start": 58.0121,
      "duration": 0.0161,
      "velocity": 94,
      "chip": "ym2612"
    },
    {
      "channel": 0,
      "note": 71,
      "start": 58.0224,
      "duration": 0.0161,
      "velocity": 127,
      "chip": "ym2612"
    },
    {
      "channel": 5,
      "note": 71,
      "start": 58.0236,
      "duration": 0.0161,
      "velocity": 110,
      "chip": "ym2612"
    },
    {
      "channel": 4,
      "note": 75,
      "start": 58.0247,
      "duration": 0.0161,
      "velocity": 110,
      "chip": "ym2612"
    },
    {
      "channel": 3,
      "note": 63,
      "start": 58.0259,
      "duration": 0.0161,
      "velocity": 94,
      "chip": "ym2612"
    },
    {
      "channel": 2,
      "note": 59,
      "start": 58.0271,
      "duration": 0.0161,
      "velocity": 100,
      "chip": "ym2612"
    },
    {
      "channel": 1,
      "note": 66,
      "start": 58.0282,
      "duration": 0.0161,
      "velocity": 94,
      "chip": "ym2612"
    },
    {
      "channel": 0,
      "note": 69,
      "start": 58.0385,
      "duration": 0.0161,
      "velocity": 127,
      "chip": "ym2612"
    },
    {
      "channel": 5,
      "note": 71,
      "start": 58.0397,
      "duration": 0.0161,
      "velocity": 110,
      "chip": "ym2612"
    },
    {
      "channel": 4,
      "note": 75,
      "start": 58.0408,
      "duration": 0.0161,
      "velocity": 110,
      "chip": "ym2612"
    },
    {
      "channel": 2,
      "note": 59,
      "start": 58.0432,
      "duration": 0.0161,
      "velocity": 100,
      "chip": "ym2612"
    },
    {
      "channel": 1,
      "note": 66,
      "start": 58.0443,
      "duration": 0.0161,
      "velocity": 94,
      "chip": "ym2612"
    },
    {
      "channel": 0,
      "note": 68,
      "start": 58.0546,
      "duration": 0.0181,
      "velocity": 127,
      "chip": "ym2612"
    },
    {
      "channel": 5,
      "note": 71,
      "start": 58.0558,
      "duration": 0.018,
      "velocity": 110,
      "chip": "ym2612"
    },
    {
      "channel": 4,
      "note": 75,
      "start": 58.0569,
      "duration": 0.0181,
      "velocity": 110,
      "chip": "ym2612"
    },
    {
      "channel": 2,
      "note": 59,
      "start": 58.0593,
      "duration": 0.0183,
      "velocity": 100,
      "chip": "ym2612"
    },
    {
      "channel": 1,
      "note": 66,
      "start": 58.0604,
      "duration": 0.0184,
      "velocity": 94,
      "chip": "ym2612"
    },
    {
      "channel": 0,
      "note": 84,
      "start": 58.0726,
      "duration": 0.0142,
      "velocity": 127,
      "chip": "ym2612"
    },
    {
      "channel": 5,
      "note": 71,
      "start": 58.0738,
      "duration": 0.0143,
      "velocity": 110,
      "chip": "ym2612"
    },
    {
      "channel": 4,
      "note": 75,
      "start": 58.075,
      "duration": 0.0142,
      "velocity": 110,
      "chip": "ym2612"
    },
    {
      "channel": 2,
      "note": 71,
      "start": 58.0776,
      "duration": 0.0144,
      "velocity": 100,
      "chip": "ym2612"
    },
    {
      "channel": 1,
      "note": 66,
      "start": 58.0788,
      "duration": 0.0143,
      "velocity": 94,
      "chip": "ym2612"
    },
    {
      "channel": 0,
      "note": 82,
      "start": 58.0869,
      "duration": 0.0164,
      "velocity": 127,
      "chip": "ym2612"
    },
    {
      "channel": 3,
      "note": 66,
      "start": 58.0908,
      "duration": 0.0161,
      "velocity": 94,
      "chip": "ym2612"
    },
    {
      "channel": 2,
      "note": 71,
      "start": 58.092,
      "duration": 0.016,
      "velocity": 100,
      "chip": "ym2612"
    },
    {
      "channel": 1,
      "note": 66,
      "start": 58.0931,
      "duration": 0.0161,
      "velocity": 94,
      "chip": "ym2612"
    },
    {
      "channel": 0,
      "note": 81,
      "start": 58.1033,
      "duration": 0.0163,
      "velocity": 127,
      "chip": "ym2612"
    },
    {
      "channel": 3,
      "note": 66,
      "start": 58.1068,
      "duration": 0.0162,
      "velocity": 94,
      "chip": "ym2612"
    },
    {
      "channel": 2,
      "note": 71,
      "start": 58.108,
      "duration": 0.0162,
      "velocity": 100,
      "chip": "ym2612"
    },
    {
      "channel": 1,
      "note": 66,
      "start": 58.1092,
      "duration": 0.0162,
      "velocity": 94,
      "chip": "ym2612"
    },
    {
      "channel": 0,
      "note": 79,
      "start": 58.1196,
      "duration": 0.0161,
      "velocity": 127,
      "chip": "ym2612"
    },
    {
      "channel": 3,
      "note": 66,
      "start": 58.1231,
      "duration": 0.0161,
      "velocity": 94,
      "chip": "ym2612"
    },
    {
      "channel": 2,
      "note": 71,
      "start": 58.1242,
      "duration": 0.0161,
      "velocity": 100,
      "chip": "ym2612"
    },
    {
      "channel": 1,
      "note": 66,
      "start": 58.1254,
      "duration": 0.0161,
      "velocity": 94,
      "chip": "ym2612"
    },
    {
      "channel": 0,
      "note": 77,
      "start": 58.1357,
      "duration": 0.016,
      "velocity": 127,
      "chip": "ym2612"
    },
    {
      "channel": 3,
      "note": 66,
      "start": 58.1392,
      "duration": 0.0162,
      "velocity": 94,
      "chip": "ym2612"
    },
    {
      "channel": 2,
      "note": 71,
      "start": 58.1403,
      "duration": 0.0161,
      "velocity": 100,
      "chip": "ym2612"
    },
    {
      "channel": 0,
      "note": 76,
      "start": 58.1517,
      "duration": 0.0158,
      "velocity": 127,
      "chip": "ym2612"
    },
    {
      "channel": 3,
      "note": 66,
      "start": 58.1553,
      "duration": 0.0161,
      "velocity": 94,
      "chip": "ym2612"
    },
    {
      "channel": 2,
      "note": 71,
      "start": 58.1565,
      "duration": 0.0161,
      "velocity": 100,
      "chip": "ym2612"
    },
    {
      "channel": 0,
      "note": 74,
      "start": 58.1675,
      "duration": 0.0184,
      "velocity": 127,
      "chip": "ym2612"
    },
    {
      "channel": 3,
      "note": 66,
      "start": 58.1714,
      "duration": 0.0186,
      "velocity": 94,
      "chip": "ym2612"
    },
    {
      "channel": 2,
      "note": 71,
      "start": 58.1726,
      "duration": 0.019,
      "velocity": 100,
      "chip": "ym2612"
    },
    {
      "channel": 0,
      "note": 78,
      "start": 58.1859,
      "duration": 0.0136,
      "velocity": 127,
      "chip": "ym2612"
    },
    {
      "channel": 5,
      "note": 75,
      "start": 58.1874,
      "duration": 0.0139,
      "velocity": 110,
      "chip": "ym2612"
    },
    {
      "channel": 4,
      "note": 71,
      "start": 58.1889,
      "duration": 0.0137,
      "velocity": 110,
      "chip": "ym2612"
    },
    {
      "channel": 3,
      "note": 66,
      "start": 58.1901,
      "duration": 0.0137,
      "velocity": 94,
      "chip": "ym2612"
    },
    {
      "channel": 2,
      "note": 54,
      "start": 58.1915,
      "duration": 0.0135,
      "velocity": 100,
      "chip": "ym2612"
    },
    {
      "channel": 1,
      "note": 73,
      "start": 58.193,
      "duration": 0.0133,
      "velocity": 94,
      "chip": "ym2612"
    },
    {
      "channel": 0,
      "note": 76,
      "start": 58.1995,
      "duration": 0.016,
      "velocity": 127,
      "chip": "ym2612"
    },
    {
      "channel": 5,
      "note": 75,
      "start": 58.2013,
      "duration": 0.0155,
      "velocity": 110,
      "chip": "ym2612"
    },
    {
      "channel": 4,
      "note": 71,
      "start": 58.2027,
      "duration": 0.0158,
      "velocity": 110,
      "chip": "ym2612"
    },
    {
      "channel": 3,
      "note": 66,
      "start": 58.2038,
      "duration": 0.0159,
      "velocity": 94,
      "chip": "ym2612"
    },
    {
      "channel": 2,
      "note": 54,
      "start": 58.205,
      "duration": 0.0158,
      "velocity": 100,
      "chip": "ym2612"
    },
    {
      "channel": 1,
      "note": 73,
      "start": 58.2063,
      "duration": 0.0157,
      "velocity": 94,
      "chip": "ym2612"
    },
    {
      "channel": 0,
      "note": 75,
      "start": 58.2156,
      "duration": 0.0161,
      "velocity": 127,
      "chip": "ym2612"
    },
    {
      "channel": 5,
      "note": 75,
      "start": 58.2168,
      "duration": 0.0161,
      "velocity": 110,
      "chip": "ym2612"
    },
    {
      "channel": 4,
      "note": 71,
      "start": 58.2184,
      "duration": 0.0158,
      "velocity": 110,
      "chip": "ym2612"
    },
    {
      "channel": 3,
      "note": 66,
      "start": 58.2197,
      "duration": 0.0161,
      "velocity": 94,
      "chip": "ym2612"
    },
    {
      "channel": 2,
      "note": 54,
      "start": 58.2208,
      "duration": 0.0161,
      "velocity": 100,
      "chip": "ym2612"
    },
    {
      "channel": 1,
      "note": 73,
      "start": 58.222,
      "duration": 0.0161,
      "velocity": 94,
      "chip": "ym2612"
    },
    {
      "channel": 0,
      "note": 73,
      "start": 58.2317,
      "duration": 0.0162,
      "velocity": 127,
      "chip": "ym2612"
    },
    {
      "channel": 5,
      "note": 75,
      "start": 58.2329,
      "duration": 0.0161,
      "velocity": 110,
      "chip": "ym2612"
    },
    {
      "channel": 4,
      "note": 71,
      "start": 58.2342,
      "duration": 0.016,
      "velocity": 110,
      "chip": "ym2612"
    },
    {
      "channel": 3,
      "note": 66,
      "start": 58.2358,
      "duration": 0.016,
      "velocity": 94,
      "chip": "ym2612"
    },
    {
      "channel": 2,
      "note": 54,
      "start": 58.2369,
      "duration": 0.0162,
      "velocity": 100,
      "chip": "ym2612"
    },
    {
      "channel": 1,
      "note": 73,
      "start": 58.2381,
      "duration": 0.0161,
      "velocity": 94,
      "chip": "ym2612"
    },
    {
      "channel": 0,
      "note": 71,
      "start": 58.2478,
      "duration": 0.0161,
      "velocity": 127,
      "chip": "ym2612"
    },
    {
      "channel": 5,
      "note": 75,
      "start": 58.249,
      "duration": 0.0161,
      "velocity": 110,
      "chip": "ym2612"
    },
    {
      "channel": 4,
      "note": 71,
      "start": 58.2502,
      "duration": 0.0161,
      "velocity": 110,
      "chip": "ym2612"
    },
    {
      "channel": 3,
      "note": 66,
      "start": 58.2518,
      "duration": 0.0158,
      "velocity": 94,
      "chip": "ym2612"
    },
    {
      "channel": 2,
      "note": 54,
      "start": 58.2531,
      "duration": 0.0161,
      "velocity": 100,
      "chip": "ym2612"
    },
    {
      "channel": 1,
      "note": 73,
      "start": 58.2542,
      "duration": 0.0161,
      "velocity": 94,
      "chip": "ym2612"
    },
    {
      "channel": 0,
      "note": 70,
      "start": 58.2639,
      "duration": 0.0179,
      "velocity": 115,
      "chip": "ym2612"
    },
    {
      "channel": 5,
      "note": 75,
      "start": 58.2651,
      "duration": 0.0179,
      "velocity": 110,
      "chip": "ym2612"
    },
    {
      "channel": 4,
      "note": 71,
      "start": 58.2663,
      "duration": 0.0184,
      "velocity": 110,
      "chip": "ym2612"
    },
    {
      "channel": 3,
      "note": 66,
      "start": 58.2676,
      "duration": 0.0183,
      "velocity": 94,
      "chip": "ym2612"
    },
    {
      "channel": 2,
      "note": 54,
      "start": 58.2692,
      "duration": 0.0179,
      "velocity": 100,
      "chip": "ym2612"
    },
    {
      "channel": 1,
      "note": 73,
      "start": 58.2703,
      "duration": 0.0179,
      "velocity": 94,
      "chip": "ym2612"
    },
    {
      "channel": 0,
      "note": 36,
      "start": 58.2819,
      "duration": 0.0143,
      "velocity": 115,
      "chip": "ym2612"
    },
    {
      "channel": 5,
      "note": 75,
      "start": 58.283,
      "duration": 0.0143,
      "velocity": 110,
      "chip": "ym2612"
    },
    {
      "channel": 4,
      "note": 71,
      "start": 58.2847,
      "duration": 0.0138,
      "velocity": 110,
      "chip": "ym2612"
    },
    {
      "channel": 3,
      "note": 66,
      "start": 58.2859,
      "duration": 0.0138,
      "velocity": 94,
      "chip": "ym2612"
    },
    {
      "channel": 2,
      "note": 54,
      "start": 58.2871,
      "duration": 0.0143,
      "velocity": 100,
      "chip": "ym2612"
    },
    {
      "channel": 1,
      "note": 73,
      "start": 58.2883,
      "duration": 0.0144,
      "velocity": 94,
      "chip": "ym2612"
    },
    {
      "channel": 0,
      "note": 36,
      "start": 58.2962,
      "duration": 0.016,
      "velocity": 115,
      "chip": "ym2612"
    },
    {
      "channel": 3,
      "note": 66,
      "start": 58.2997,
      "duration": 0.016,
      "velocity": 94,
      "chip": "ym2612"
    },
    {
      "channel": 2,
      "note": 54,
      "start": 58.3014,
      "duration": 0.0155,
      "velocity": 100,
      "chip": "ym2612"
    },
    {
      "channel": 1,
      "note": 73,
      "start": 58.3027,
      "duration": 0.0159,
      "velocity": 94,
      "chip": "ym2612"
    },
    {
      "channel": 0,
      "note": 37,
      "start": 58.3122,
      "duration": 0.0161,
      "velocity": 115,
      "chip": "ym2612"
    },
    {
      "channel": 3,
      "note": 66,
      "start": 58.3158,
      "duration": 0.0161,
      "velocity": 94,
      "chip": "ym2612"
    },
    {
      "channel": 2,
      "note": 54,
      "start": 58.3169,
      "duration": 0.0161,
      "velocity": 100,
      "chip": "ym2612"
    },
    {
      "channel": 1,
      "note": 73,
      "start": 58.3185,
      "duration": 0.0158,
      "velocity": 94,
      "chip": "ym2612"
    },
    {
      "channel": 0,
      "note": 37,
      "start": 58.3283,
      "duration": 0.0161,
      "velocity": 115,
      "chip": "ym2612"
    },
    {
      "channel": 3,
      "note": 66,
      "start": 58.3319,
      "duration": 0.0161,
      "velocity": 94,
      "chip": "ym2612"
    },
    {
      "channel": 2,
      "note": 54,
      "start": 58.333,
      "duration": 0.0161,
      "velocity": 100,
      "chip": "ym2612"
    },
    {
      "channel": 1,
      "note": 73,
      "start": 58.3343,
      "duration": 0.0159,
      "velocity": 94,
      "chip": "ym2612"
    },
    {
      "channel": 0,
      "note": 38,
      "start": 58.3444,
      "duration": 0.0161,
      "velocity": 115,
      "chip": "ym2612"
    },
    {
      "channel": 3,
      "note": 66,
      "start": 58.348,
      "duration": 0.0161,
      "velocity": 94,
      "chip": "ym2612"
    },
    {
      "channel": 2,
      "note": 54,
      "start": 58.3491,
      "duration": 0.0161,
      "velocity": 100,
      "chip": "ym2612"
    },
    {
      "channel": 1,
      "note": 73,
      "start": 58.3502,
      "duration": 0.0161,
      "velocity": 94,
      "chip": "ym2612"
    },
    {
      "channel": 0,
      "note": 38,
      "start": 58.3605,
      "duration": 0.0161,
      "velocity": 115,
      "chip": "ym2612"
    },
    {
      "channel": 3,
      "note": 66,
      "start": 58.364,
      "duration": 0.0161,
      "velocity": 94,
      "chip": "ym2612"
    },
    {
      "channel": 2,
      "note": 54,
      "start": 58.3652,
      "duration": 0.0161,
      "velocity": 100,
      "chip": "ym2612"
    },
    {
      "channel": 1,
      "note": 73,
      "start": 58.3663,
      "duration": 0.0161,
      "velocity": 94,
      "chip": "ym2612"
    },
    {
      "channel": 0,
      "note": 39,
      "start": 58.3766,
      "duration": 0.0179,
      "velocity": 124,
      "chip": "ym2612"
    },
    {
      "channel": 3,
      "note": 66,
      "start": 58.3801,
      "duration": 0.0187,
      "velocity": 94,
      "chip": "ym2612"
    },
    {
      "channel": 2,
      "note": 54,
      "start": 58.3813,
      "duration": 0.019,
      "velocity": 100,
      "chip": "ym2612"
    },
    {
      "channel": 1,
      "note": 73,
      "start": 58.3824,
      "duration": 0.0197,
      "velocity": 94,
      "chip": "ym2612"
    },
    {
      "channel": 0,
      "note": 84,
      "start": 58.3946,
      "duration": 0.0143,
      "velocity": 124,
      "chip": "ym2612"
    },
    {
      "channel": 5,
      "note": 71,
      "start": 58.3961,
      "duration": 0.014,
      "velocity": 110,
      "chip": "ym2612"
    },
    {
      "channel": 4,
      "note": 75,
      "start": 58.3977,
      "duration": 0.0137,
      "velocity": 110,
      "chip": "ym2612"
    },
    {
      "channel": 3,
      "note": 66,
      "start": 58.3988,
      "duration": 0.0137,
      "velocity": 94,
      "chip": "ym2612"
    },
    {
      "channel": 2,
      "note": 56,
      "start": 58.4003,
      "duration": 0.0134,
      "velocity": 100,
      "chip": "ym2612"
    },
    {
      "channel": 1,
      "note": 73,
      "start": 58.4021,
      "duration": 0.0129,
      "velocity": 94,
      "chip": "ym2612"
    },
    {
      "channel": 0,
      "note": 82,
      "start": 58.4089,
      "duration": 0.016,
      "velocity": 124,
      "chip": "ym2612"
    },
    {
      "channel": 5,
      "note": 71,
      "start": 58.4101,
      "duration": 0.016,
      "velocity": 110,
      "chip": "ym2612"
    },
    {
      "channel": 4,
      "note": 75,
      "start": 58.4114,
      "duration": 0.0159,
      "velocity": 110,
      "chip": "ym2612"
    },
    {
      "channel": 3,
      "note": 66,
      "start": 58.4125,
      "duration": 0.0159,
      "velocity": 94,
      "chip": "ym2612"
    },
    {
      "channel": 2,
      "note": 56,
      "start": 58.4137,
      "duration": 0.0159,
      "velocity": 100,
      "chip": "ym2612"
    },
    {
      "channel": 1,
      "note": 73,
      "start": 58.4149,
      "duration": 0.0158,
      "velocity": 94,
      "chip": "ym2612"
    },
    {
      "channel": 0,
      "note": 80,
      "start": 58.4249,
      "duration": 0.0161,
      "velocity": 124,
      "chip": "ym2612"
    },
    {
      "channel": 5,
      "note": 71,
      "start": 58.4261,
      "duration": 0.0161,
      "velocity": 110,
      "chip": "ym2612"
    },
    {
      "channel": 4,
      "note": 75,
      "start": 58.4273,
      "duration": 0.0161,
      "velocity": 110,
      "chip": "ym2612"
    },
    {
      "channel": 3,
      "note": 66,
      "start": 58.4284,
      "duration": 0.0161,
      "velocity": 94,
      "chip": "ym2612"
    },
    {
      "channel": 2,
      "note": 56,
      "start": 58.4296,
      "duration": 0.0161,
      "velocity": 100,
      "chip": "ym2612"
    },
    {
      "channel": 1,
      "note": 73,
      "start": 58.4308,
      "duration": 0.0161,
      "velocity": 94,
      "chip": "ym2612"
    },
    {
      "channel": 0,
      "note": 77,
      "start": 58.441,
      "duration": 0.0161,
      "velocity": 124,
      "chip": "ym2612"
    },
    {
      "channel": 5,
      "note": 71,
      "start": 58.4422,
      "duration": 0.0162,
      "velocity": 110,
      "chip": "ym2612"
    },
    {
      "channel": 4,
      "note": 75,
      "start": 58.4434,
      "duration": 0.0161,
      "velocity": 110,
      "chip": "ym2612"
    },
    {
      "channel": 3,
      "note": 66,
      "start": 58.4445,
      "duration": 0.0162,
      "velocity": 94,
      "chip": "ym2612"
    },
    {
      "channel": 2,
      "note": 56,
      "start": 58.4457,
      "duration": 0.0161,
      "velocity": 100,
      "chip": "ym2612"
    },
    {
      "channel": 1,
      "note": 73,
      "start": 58.4469,
      "duration": 0.0161,
      "velocity": 94,
      "chip": "ym2612"
    },
    {
      "channel": 0,
      "note": 75,
      "start": 58.4571,
      "duration": 0.0161,
      "velocity": 124,
      "chip": "ym2612"
    },
    {
      "channel": 5,
      "note": 71,
      "start": 58.4583,
      "duration": 0.0161,
      "velocity": 110,
      "chip": "ym2612"
    },
    {
      "channel": 4,
      "note": 75,
      "start": 58.4595,
      "duration": 0.0161,
      "velocity": 110,
      "chip": "ym2612"
    },
    {
      "channel": 2,
      "note": 56,
      "start": 58.4618,
      "duration": 0.0161,
      "velocity": 100,
      "chip": "ym2612"
    },
    {
      "channel": 1,
      "note": 73,
      "start": 58.463,
      "duration": 0.0161,
      "velocity": 94,
      "chip": "ym2612"
    },
    {
      "channel": 0,
      "note": 72,
      "start": 58.4732,
      "duration": 0.0179,
      "velocity": 124,
      "chip": "ym2612"
    },
    {
      "channel": 5,
      "note": 71,
      "start": 58.4744,
      "duration": 0.0179,
      "velocity": 110,
      "chip": "ym2612"
    },
    {
      "channel": 4,
      "note": 75,
      "start": 58.4756,
      "duration": 0.018,
      "velocity": 110,
      "chip": "ym2612"
    },
    {
      "channel": 2,
      "note": 56,
      "start": 58.4779,
      "duration": 0.0179,
      "velocity": 100,
      "chip": "ym2612"
    },
    {
      "channel": 1,
      "note": 73,
      "start": 58.479,
      "duration": 0.018,
      "velocity": 94,
      "chip": "ym2612"
    },
    {
      "channel": 0,
      "note": 84,
      "start": 58.4912,
      "duration": 0.0143,
      "velocity": 124,
      "chip": "ym2612"
    },
    {
      "channel": 5,
      "note": 71,
      "start": 58.4924,
      "duration": 0.0143,
      "velocity": 110,
      "chip": "ym2612"
    },
    {
      "channel": 4,
      "note": 75,
      "start": 58.4936,
      "duration": 0.0143,
      "velocity": 110,
      "chip": "ym2612"
    },
    {
      "channel": 2,
      "note": 56,
      "start": 58.4959,
      "duration": 0.0146,
      "velocity": 100,
      "chip": "ym2612"
    },
    {
      "channel": 1,
      "note": 73,
      "start": 58.4971,
      "duration": 0.0146,
      "velocity": 94,
      "chip": "ym2612"
    },
    {
      "channel": 0,
      "note": 82,
      "start": 58.5055,
      "duration": 0.0161,
      "velocity": 124,
      "chip": "ym2612"
    },
    {
      "channel": 3,
      "note": 73,
      "start": 58.5093,
      "duration": 0.0158,
      "velocity": 94,
      "chip": "ym2612"
    },
    {
      "channel": 2,
      "note": 56,
      "start": 58.5105,
      "duration": 0.0158,
      "velocity": 100,
      "chip": "ym2612"
    },
    {
      "channel": 1,
      "note": 73,
      "start": 58.5117,
      "duration": 0.0157,
      "velocity": 94,
      "chip": "ym2612"
    },
    {
      "channel": 0,
      "note": 80,
      "start": 58.5215,
      "duration": 0.0161,
      "velocity": 124,
      "chip": "ym2612"
    },
    {
      "channel": 3,
      "note": 73,
      "start": 58.5251,
      "duration": 0.016,
      "velocity": 94,
      "chip": "ym2612"
    },
    {
      "channel": 2,
      "note": 56,
      "start": 58.5263,
      "duration": 0.016,
      "velocity": 100,
      "chip": "ym2612"
    },
    {
      "channel": 1,
      "note": 73,
      "start": 58.5274,
      "duration": 0.0161,
      "velocity": 94,
      "chip": "ym2612"
    },
    {
      "channel": 0,
      "note": 77,
      "start": 58.5376,
      "duration": 0.0162,
      "velocity": 124,
      "chip": "ym2612"
    },
    {
      "channel": 3,
      "note": 73,
      "start": 58.5411,
      "duration": 0.0162,
      "velocity": 94,
      "chip": "ym2612"
    },
    {
      "channel": 2,
      "note": 56,
      "start": 58.5423,
      "duration": 0.0161,
      "velocity": 100,
      "chip": "ym2612"
    },
    {
      "channel": 1,
      "note": 73,
      "start": 58.5435,
      "duration": 0.0162,
      "velocity": 94,
      "chip": "ym2612"
    },
    {
      "channel": 0,
      "note": 75,
      "start": 58.5538,
      "duration": 0.0163,
      "velocity": 124,
      "chip": "ym2612"
    },
    {
      "channel": 3,
      "note": 73,
      "start": 58.5573,
      "duration": 0.0163,
      "velocity": 94,
      "chip": "ym2612"
    },
    {
      "channel": 2,
      "note": 56,
      "start": 58.5584,
      "duration": 0.0163,
      "velocity": 100,
      "chip": "ym2612"
    },
    {
      "channel": 0,
      "note": 72,
      "start": 58.5701,
      "duration": 0.0163,
      "velocity": 124,
      "chip": "ym2612"
    },
    {
      "channel": 3,
      "note": 73,
      "start": 58.5736,
      "duration": 0.0163,
      "velocity": 94,
      "chip": "ym2612"
    },
    {
      "channel": 2,
      "note": 56,
      "start": 58.5747,
      "duration": 0.0163,
      "velocity": 100,
      "chip": "ym2612"
    },
    {
      "channel": 0,
      "note": 70,
      "start": 58.5864,
      "duration": 0.0181,
      "velocity": 115,
      "chip": "ym2612"
    },
    {
      "channel": 3,
      "note": 73,
      "start": 58.5899,
      "duration": 0.0187,
      "velocity": 94,
      "chip": "ym2612"
    },
    {
      "channel": 2,
      "note": 56,
      "start": 58.5911,
      "duration": 0.019,
      "velocity": 100,
      "chip": "ym2612"
    },
    {
      "channel": 0,
      "note": 36,
      "start": 58.6044,
      "duration": 0.0144,
      "velocity": 115,
      "chip": "ym2612"
    },
    {
      "channel": 5,
      "note": 75,
      "start": 58.606,
      "duration": 0.0141,
      "velocity": 110,
      "chip": "ym2612"
    },
    {
      "channel": 4,
      "note": 71,
      "start": 58.6075,
      "duration": 0.0138,
      "velocity": 110,
      "chip": "ym2612"
    },
    {
      "channel": 3,
      "note": 73,
      "start": 58.6086,
      "duration": 0.0138,
      "velocity": 94,
      "chip": "ym2612"
    },
    {
      "channel": 2,
      "note": 59,
      "start": 58.6101,
      "duration": 0.0136,
      "velocity": 100,
      "chip": "ym2612"
    },
    {
      "channel": 1,
      "note": 71,
      "start": 58.6116,
      "duration": 0.0134,
      "velocity": 94,
      "chip": "ym2612"
    },
    {
      "channel": 0,
      "note": 36,
      "start": 58.6188,
      "duration": 0.016,
      "velocity": 115,
      "chip": "ym2612"
    },
    {
      "channel": 5,
      "note": 75,
      "start": 58.62,
      "duration": 0.016,
      "velocity": 110,
      "chip": "ym2612"
    },
    {
      "channel": 4,
      "note": 71,
      "start": 58.6213,
      "duration": 0.0159,
      "velocity": 110,
      "chip": "ym2612"
    },
    {
      "channel": 3,
      "note": 73,
      "start": 58.6224,
      "duration": 0.0159,
      "velocity": 94,
      "chip": "ym2612"
    },
    {
      "channel": 2,
      "note": 59,
      "start": 58.6237,
      "duration": 0.0158,
      "velocity": 100,
      "chip": "ym2612"
    },
    {
      "channel": 1,
      "note": 71,
      "start": 58.6249,
      "duration": 0.0158,
      "velocity": 94,
      "chip": "ym2612"
    },
    {
      "channel": 0,
      "note": 37,
      "start": 58.6348,
      "duration": 0.0155,
      "velocity": 115,
      "chip": "ym2612"
    },
    {
      "channel": 5,
      "note": 75,
      "start": 58.636,
      "duration": 0.0161,
      "velocity": 110,
      "chip": "ym2612"
    },
    {
      "channel": 4,
      "note": 71,
      "start": 58.6371,
      "duration": 0.0161,
      "velocity": 110,
      "chip": "ym2612"
    },
    {
      "channel": 3,
      "note": 73,
      "start": 58.6383,
      "duration": 0.0161,
      "velocity": 94,
      "chip": "ym2612"
    },
    {
      "channel": 2,
      "note": 59,
      "start": 58.6395,
      "duration": 0.0161,
      "velocity": 100,
      "chip": "ym2612"
    },
    {
      "channel": 1,
      "note": 71,
      "start": 58.6407,
      "duration": 0.0161,
      "velocity": 94,
      "chip": "ym2612"
    },
    {
      "channel": 0,
      "note": 37,
      "start": 58.6503,
      "duration": 0.0161,
      "velocity": 115,
      "chip": "ym2612"
    },
    {
      "channel": 5,
      "note": 75,
      "start": 58.6521,
      "duration": 0.016,
      "velocity": 110,
      "chip": "ym2612"
    },
    {
      "channel": 4,
      "note": 71,
      "start": 58.6533,
      "duration": 0.0161,
      "velocity": 110,
      "chip": "ym2612"
    },
    {
      "channel": 3,
      "note": 73,
      "start": 58.6544,
      "duration": 0.0161,
      "velocity": 94,
      "chip": "ym2612"
    },
    {
      "channel": 2,
      "note": 59,
      "start": 58.6556,
      "duration": 0.0161,
      "velocity": 100,
      "chip": "ym2612"
    },
    {
      "channel": 1,
      "note": 71,
      "start": 58.6568,
      "duration": 0.0161,
      "velocity": 94,
      "chip": "ym2612"
    },
    {
      "channel": 0,
      "note": 38,
      "start": 58.6664,
      "duration": 0.0162,
      "velocity": 115,
      "chip": "ym2612"
    },
    {
      "channel": 5,
      "note": 75,
      "start": 58.6681,
      "duration": 0.0156,
      "velocity": 110,
      "chip": "ym2612"
    },
    {
      "channel": 4,
      "note": 71,
      "start": 58.6694,
      "duration": 0.0161,
      "velocity": 110,
      "chip": "ym2612"
    },
    {
      "channel": 3,
      "note": 73,
      "start": 58.6705,
      "duration": 0.0161,
      "velocity": 94,
      "chip": "ym2612"
    },
    {
      "channel": 2,
      "note": 59,
      "start": 58.6717,
      "duration": 0.0161,
      "velocity": 100,
      "chip": "ym2612"
    },
    {
      "channel": 1,
      "note": 71,
      "start": 58.6729,
      "duration": 0.0161,
      "velocity": 94,
      "chip": "ym2612"
    },
    {
      "channel": 0,
      "note": 38,
      "start": 58.6826,
      "duration": 0.0161,
      "velocity": 115,
      "chip": "ym2612"
    },
    {
      "channel": 5,
      "note": 75,
      "start": 58.6837,
      "duration": 0.0161,
      "velocity": 110,
      "chip": "ym2612"
    },
    {
      "channel": 4,
      "note": 71,
      "start": 58.6855,
      "duration": 0.016,
      "velocity": 110,
      "chip": "ym2612"
    },
    {
      "channel": 3,
      "note": 73,
      "start": 58.6866,
      "duration": 0.0161,
      "velocity": 94,
      "chip": "ym2612"
    },
    {
      "channel": 2,
      "note": 59,
      "start": 58.6878,
      "duration": 0.0161,
      "velocity": 100,
      "chip": "ym2612"
    },
    {
      "channel": 1,
      "note": 71,
      "start": 58.689,
      "duration": 0.0161,
      "velocity": 94,
      "chip": "ym2612"
    },
    {
      "channel": 0,
      "note": 39,
      "start": 58.6986,
      "duration": 0.0161,
      "velocity": 115,
      "chip": "ym2612"
    },
    {
      "channel": 5,
      "note": 75,
      "start": 58.6998,
      "duration": 0.0161,
      "velocity": 110,
      "chip": "ym2612"
    },
    {
      "channel": 4,
      "note": 71,
      "start": 58.7015,
      "duration": 0.0156,
      "velocity": 110,
      "chip": "ym2612"
    },
    {
      "channel": 3,
      "note": 73,
      "start": 58.7027,
      "duration": 0.0162,
      "velocity": 94,
      "chip": "ym2612"
    },
    {
      "channel": 2,
      "note": 59,
      "start": 58.7039,
      "duration": 0.0162,
      "velocity": 100,
      "chip": "ym2612"
    },
    {
      "channel": 1,
      "note": 71,
      "start": 58.7051,
      "duration": 0.0161,
      "velocity": 94,
      "chip": "ym2612"
    },
    {
      "channel": 0,
      "note": 39,
      "start": 58.7147,
      "duration": 0.0161,
      "velocity": 115,
      "chip": "ym2612"
    },
    {
      "channel": 3,
      "note": 73,
      "start": 58.7189,
      "duration": 0.016,
      "velocity": 94,
      "chip": "ym2612"
    },
    {
      "channel": 2,
      "note": 59,
      "start": 58.72,
      "duration": 0.0161,
      "velocity": 100,
      "chip": "ym2612"
    },
    {
      "channel": 1,
      "note": 71,
      "start": 58.7212,
      "duration": 0.016,
      "velocity": 94,
      "chip": "ym2612"
    },
    {
      "channel": 0,
      "note": 40,
      "start": 58.7308,
      "duration": 0.0161,
      "velocity": 115,
      "chip": "ym2612"
    },
    {
      "channel": 3,
      "note": 73,
      "start": 58.7349,
      "duration": 0.0158,
      "velocity": 94,
      "chip": "ym2612"
    },
    {
      "channel": 2,
      "note": 59,
      "start": 58.7361,
      "duration": 0.0161,
      "velocity": 100,
      "chip": "ym2612"
    },
    {
      "channel": 1,
      "note": 71,
      "start": 58.7373,
      "duration": 0.0161,
      "velocity": 94,
      "chip": "ym2612"
    },
    {
      "channel": 0,
      "note": 40,
      "start": 58.7469,
      "duration": 0.0161,
      "velocity": 115,
      "chip": "ym2612"
    },
    {
      "channel": 3,
      "note": 73,
      "start": 58.7507,
      "duration": 0.0159,
      "velocity": 94,
      "chip": "ym2612"
    },
    {
      "channel": 2,
      "note": 59,
      "start": 58.7522,
      "duration": 0.016,
      "velocity": 100,
      "chip": "ym2612"
    },
    {
      "channel": 1,
      "note": 71,
      "start": 58.7534,
      "duration": 0.0161,
      "velocity": 94,
      "chip": "ym2612"
    },
    {
      "channel": 0,
      "note": 40,
      "start": 58.763,
      "duration": 0.0161,
      "velocity": 115,
      "chip": "ym2612"
    },
    {
      "channel": 3,
      "note": 73,
      "start": 58.7666,
      "duration": 0.0161,
      "velocity": 94,
      "chip": "ym2612"
    },
    {
      "channel": 2,
      "note": 59,
      "start": 58.7682,
      "duration": 0.0158,
      "velocity": 100,
      "chip": "ym2612"
    },
    {
      "channel": 1,
      "note": 71,
      "start": 58.7695,
      "duration": 0.0161,
      "velocity": 94,
      "chip": "ym2612"
    },
    {
      "channel": 0,
      "note": 41,
      "start": 58.7791,
      "duration": 0.0161,
      "velocity": 115,
      "chip": "ym2612"
    },
    {
      "channel": 3,
      "note": 73,
      "start": 58.7827,
      "duration": 0.0161,
      "velocity": 94,
      "chip": "ym2612"
    },
    {
      "channel": 2,
      "note": 59,
      "start": 58.784,
      "duration": 0.0159,
      "velocity": 100,
      "chip": "ym2612"
    },
    {
      "channel": 1,
      "note": 71,
      "start": 58.7856,
      "duration": 0.0161,
      "velocity": 94,
      "chip": "ym2612"
    },
    {
      "channel": 0,
      "note": 41,
      "start": 58.7952,
      "duration": 0.0161,
      "velocity": 115,
      "chip": "ym2612"
    },
    {
      "channel": 3,
      "note": 73,
      "start": 58.7988,
      "duration": 0.0171,
      "velocity": 94,
      "chip": "ym2612"
    },
    {
      "channel": 2,
      "note": 59,
      "start": 58.7999,
      "duration": 0.0171,
      "velocity": 100,
      "chip": "ym2612"
    },
    {
      "channel": 1,
      "note": 71,
      "start": 58.8016,
      "duration": 0.0171,
      "velocity": 94,
      "chip": "ym2612"
    },
    {
      "channel": 0,
      "note": 42,
      "start": 58.8113,
      "duration": 0.0161,
      "velocity": 115,
      "chip": "ym2612"
    },
    {
      "channel": 5,
      "note": 71,
      "start": 58.813,
      "duration": 0.0157,
      "velocity": 110,
      "chip": "ym2612"
    },
    {
      "channel": 4,
      "note": 75,
      "start": 58.8147,
      "duration": 0.0152,
      "velocity": 110,
      "chip": "ym2612"
    },
    {
      "channel": 3,
      "note": 73,
      "start": 58.8159,
      "duration": 0.0152,
      "velocity": 94,
      "chip": "ym2612"
    },
    {
      "channel": 2,
      "note": 59,
      "start": 58.817,
      "duration": 0.0152,
      "velocity": 100,
      "chip": "ym2612"
    },
    {
      "channel": 1,
      "note": 71,
      "start": 58.8188,
      "duration": 0.0146,
      "velocity": 94,
      "chip": "ym2612"
    },
    {
      "channel": 0,
      "note": 42,
      "start": 58.8274,
      "duration": 0.0162,
      "velocity": 115,
      "chip": "ym2612"
    },
    {
      "channel": 5,
      "note": 71,
      "start": 58.8287,
      "duration": 0.016,
      "velocity": 110,
      "chip": "ym2612"
    },
    {
      "channel": 4,
      "note": 75,
      "start": 58.8299,
      "duration": 0.016,
      "velocity": 110,
      "chip": "ym2612"
    },
    {
      "channel": 3,
      "note": 73,
      "start": 58.8311,
      "duration": 0.016,
      "velocity": 94,
      "chip": "ym2612"
    },
    {
      "channel": 2,
      "note": 59,
      "start": 58.8322,
      "duration": 0.016,
      "velocity": 100,
      "chip": "ym2612"
    },
    {
      "channel": 1,
      "note": 71,
      "start": 58.8334,
      "duration": 0.016,
      "velocity": 94,
      "chip": "ym2612"
    },
    {
      "channel": 0,
      "note": 43,
      "start": 58.8436,
      "duration": 0.0161,
      "velocity": 115,
      "chip": "ym2612"
    },
    {
      "channel": 5,
      "note": 71,
      "start": 58.8447,
      "duration": 0.0161,
      "velocity": 110,
      "chip": "ym2612"
    },
    {
      "channel": 4,
      "note": 75,
      "start": 58.8459,
      "duration": 0.0162,
      "velocity": 110,
      "chip": "ym2612"
    },
    {
      "channel": 3,
      "note": 73,
      "start": 58.8471,
      "duration": 0.0162,
      "velocity": 94,
      "chip": "ym2612"
    },
    {
      "channel": 2,
      "note": 59,
      "start": 58.8482,
      "duration": 0.0161,
      "velocity": 100,
      "chip": "ym2612"
    },
    {
      "channel": 1,
      "note": 71,
      "start": 58.8494,
      "duration": 0.0161,
      "velocity": 94,
      "chip": "ym2612"
    },
    {
      "channel": 0,
      "note": 43,
      "start": 58.8597,
      "duration": 0.0161,
      "velocity": 115,
      "chip": "ym2612"
    },
    {
      "channel": 3,
      "note": 73,
      "start": 58.8632,
      "duration": 0.016,
      "velocity": 94,
      "chip": "ym2612"
    },
    {
      "channel": 2,
      "note": 59,
      "start": 58.8644,
      "duration": 0.0161,
      "velocity": 100,
      "chip": "ym2612"
    },
    {
      "channel": 1,
      "note": 71,
      "start": 58.8655,
      "duration": 0.0161,
      "velocity": 94,
      "chip": "ym2612"
    },
    {
      "channel": 0,
      "note": 44,
      "start": 58.8757,
      "duration": 0.0161,
      "velocity": 115,
      "chip": "ym2612"
    },
    {
      "channel": 2,
      "note": 59,
      "start": 58.8805,
      "duration": 0.016,
      "velocity": 100,
      "chip": "ym2612"
    },
    {
      "channel": 1,
      "note": 71,
      "start": 58.8816,
      "duration": 0.0161,
      "velocity": 94,
      "chip": "ym2612"
    },
    {
      "channel": 0,
      "note": 44,
      "start": 58.8918,
      "duration": 0.0179,
      "velocity": 115,
      "chip": "ym2612"
    },
    {
      "channel": 2,
      "note": 59,
      "start": 58.8965,
      "duration": 0.0189,
      "velocity": 100,
      "chip": "ym2612"
    },
    {
      "channel": 1,
      "note": 71,
      "start": 58.8977,
      "duration": 0.0189,
      "velocity": 94,
      "chip": "ym2612"
    },
    {
      "channel": 0,
      "note": 36,
      "start": 58.9098,
      "duration": 0.0143,
      "velocity": 115,
      "chip": "ym2612"
    },
    {
      "channel": 5,
      "note": 71,
      "start": 58.9112,
      "duration": 0.0141,
      "velocity": 110,
      "chip": "ym2612"
    },
    {
      "channel": 4,
      "note": 75,
      "start": 58.9127,
      "duration": 0.0139,
      "velocity": 110,
      "chip": "ym2612"
    },
    {
      "channel": 2,
      "note": 59,
      "start": 58.9154,
      "duration": 0.0139,
      "velocity": 100,
      "chip": "ym2612"
    },
    {
      "channel": 1,
      "note": 71,
      "start": 58.9166,
      "duration": 0.0139,
      "velocity": 94,
      "chip": "ym2612"
    },
    {
      "channel": 0,
      "note": 36,
      "start": 58.9241,
      "duration": 0.016,
      "velocity": 115,
      "chip": "ym2612"
    },
    {
      "channel": 5,
      "note": 71,
      "start": 58.9254,
      "duration": 0.016,
      "velocity": 110,
      "chip": "ym2612"
    },
    {
      "channel": 4,
      "note": 75,
      "start": 58.9266,
      "duration": 0.0159,
      "velocity": 110,
      "chip": "ym2612"
    },
    {
      "channel": 3,
      "note": 71,
      "start": 58.928,
      "duration": 0.0157,
      "velocity": 94,
      "chip": "ym2612"
    },
    {
      "channel": 2,
      "note": 59,
      "start": 58.9293,
      "duration": 0.0156,
      "velocity": 100,
      "chip": "ym2612"
    },
    {
      "channel": 1,
      "note": 71,
      "start": 58.9305,
      "duration": 0.0156,
      "velocity": 94,
      "chip": "ym2612"
    },
    {
      "channel": 0,
      "note": 37,
      "start": 58.9401,
      "duration": 0.0161,
      "velocity": 115,
      "chip": "ym2612"
    },
    {
      "channel": 5,
      "note": 71,
      "start": 58.9413,
      "duration": 0.0161,
      "velocity": 110,
      "chip": "ym2612"
    },
    {
      "channel": 4,
      "note": 75,
      "start": 58.9425,
      "duration": 0.0161,
      "velocity": 110,
      "chip": "ym2612"
    },
    {
      "channel": 3,
      "note": 71,
      "start": 58.9437,
      "duration": 0.016,
      "velocity": 94,
      "chip": "ym2612"
    },
    {
      "channel": 2,
      "note": 59,
      "start": 58.9449,
      "duration": 0.016,
      "velocity": 100,
      "chip": "ym2612"
    },
    {
      "channel": 1,
      "note": 71,
      "start": 58.946,
      "duration": 0.0161,
      "velocity": 94,
      "chip": "ym2612"
    },
    {
      "channel": 0,
      "note": 37,
      "start": 58.9562,
      "duration": 0.0161,
      "velocity": 115,
      "chip": "ym2612"
    },
    {
      "channel": 5,
      "note": 71,
      "start": 58.9574,
      "duration": 0.0161,
      "velocity": 110,
      "chip": "ym2612"
    },
    {
      "channel": 4,
      "note": 75,
      "start": 58.9586,
      "duration": 0.0162,
      "velocity": 110,
      "chip": "ym2612"
    },
    {
      "channel": 3,
      "note": 71,
      "start": 58.9598,
      "duration": 0.0161,
      "velocity": 94,
      "chip": "ym2612"
    },
    {
      "channel": 2,
      "note": 59,
      "start": 58.9609,
      "duration": 0.0161,
      "velocity": 100,
      "chip": "ym2612"
    },
    {
      "channel": 1,
      "note": 71,
      "start": 58.9621,
      "duration": 0.0161,
      "velocity": 94,
      "chip": "ym2612"
    },
    {
      "channel": 0,
      "note": 38,
      "start": 58.9723,
      "duration": 0.0162,
      "velocity": 115,
      "chip": "ym2612"
    },
    {
      "channel": 3,
      "note": 71,
      "start": 58.9759,
      "duration": 0.0161,
      "velocity": 94,
      "chip": "ym2612"
    },
    {
      "channel": 2,
      "note": 59,
      "start": 58.977,
      "duration": 0.0161,
      "velocity": 100,
      "chip": "ym2612"
    },
    {
      "channel": 1,
      "note": 71,
      "start": 58.9782,
      "duration": 0.0161,
      "velocity": 94,
      "chip": "ym2612"
    },
    {
      "channel": 0,
      "note": 38,
      "start": 58.9885,
      "duration": 0.0161,
      "velocity": 115,
      "chip": "ym2612"
    },
    {
      "channel": 3,
      "note": 71,
      "start": 58.992,
      "duration": 0.0161,
      "velocity": 94,
      "chip": "ym2612"
    },
    {
      "channel": 2,
      "note": 59,
      "start": 58.9931,
      "duration": 0.0161,
      "velocity": 100,
      "chip": "ym2612"
    },
    {
      "channel": 1,
      "note": 71,
      "start": 58.9943,
      "duration": 0.0161,
      "velocity": 94,
      "chip": "ym2612"
    },
    {
      "channel": 0,
      "note": 39,
      "start": 59.0046,
      "duration": 0.0179,
      "velocity": 124,
      "chip": "ym2612"
    },
    {
      "channel": 3,
      "note": 71,
      "start": 59.0081,
      "duration": 0.0186,
      "velocity": 94,
      "chip": "ym2612"
    },
    {
      "channel": 2,
      "note": 59,
      "start": 59.0092,
      "duration": 0.0187,
      "velocity": 100,
      "chip": "ym2612"
    },
    {
      "channel": 1,
      "note": 71,
      "start": 59.0104,
      "duration": 0.0186,
      "velocity": 94,
      "chip": "ym2612"
    },
    {
      "channel": 0,
      "note": 84,
      "start": 59.0225,
      "duration": 0.0144,
      "velocity": 124,
      "chip": "ym2612"
    },
    {
      "channel": 5,
      "note": 75,
      "start": 59.024,
      "duration": 0.0141,
      "velocity": 110,
      "chip": "ym2612"
    },
    {
      "channel": 4,
      "note": 71,
      "start": 59.0255,
      "duration": 0.0139,
      "velocity": 110,
      "chip": "ym2612"
    },
    {
      "channel": 3,
      "note": 71,
      "start": 59.0267,
      "duration": 0.0138,
      "velocity": 94,
      "chip": "ym2612"
    },
    {
      "channel": 2,
      "note": 59,
      "start": 59.0279,
      "duration": 0.0138,
      "velocity": 100,
      "chip": "ym2612"
    },
    {
      "channel": 1,
      "note": 71,
      "start": 59.029,
      "duration": 0.0138,
      "velocity": 94,
      "chip": "ym2612"
    },
    {
      "channel": 0,
      "note": 82,
      "start": 59.0369,
      "duration": 0.0163,
      "velocity": 124,
      "chip": "ym2612"
    },
    {
      "channel": 5,
      "note": 75,
      "start": 59.0381,
      "duration": 0.0163,
      "velocity": 110,
      "chip": "ym2612"
    },
    {
      "channel": 4,
      "note": 71,
      "start": 59.0394,
      "duration": 0.0162,
      "velocity": 110,
      "chip": "ym2612"
    },
    {
      "channel": 3,
      "note": 71,
      "start": 59.0405,
      "duration": 0.0163,
      "velocity": 94,
      "chip": "ym2612"
    },
    {
      "channel": 2,
      "note": 59,
      "start": 59.0417,
      "duration": 0.0163,
      "velocity": 100,
      "chip": "ym2612"
    },
    {
      "channel": 1,
      "note": 71,
      "start": 59.0429,
      "duration": 0.0163,
      "velocity": 94,
      "chip": "ym2612"
    },
    {
      "channel": 0,
      "note": 80,
      "start": 59.0532,
      "duration": 0.0163,
      "velocity": 124,
      "chip": "ym2612"
    },
    {
      "channel": 5,
      "note": 75,
      "start": 59.0544,
      "duration": 0.0163,
      "velocity": 110,
      "chip": "ym2612"
    },
    {
      "channel": 4,
      "note": 71,
      "start": 59.0556,
      "duration": 0.0163,
      "velocity": 110,
      "chip": "ym2612"
    },
    {
      "channel": 3,
      "note": 71,
      "start": 59.0568,
      "duration": 0.0163,
      "velocity": 94,
      "chip": "ym2612"
    },
    {
      "channel": 2,
      "note": 59,
      "start": 59.058,
      "duration": 0.0162,
      "velocity": 100,
      "chip": "ym2612"
    },
    {
      "channel": 1,
      "note": 71,
      "start": 59.0592,
      "duration": 0.0162,
      "velocity": 94,
      "chip": "ym2612"
    },
    {
      "channel": 0,
      "note": 77,
      "start": 59.0696,
      "duration": 0.0161,
      "velocity": 124,
      "chip": "ym2612"
    },
    {
      "channel": 3,
      "note": 71,
      "start": 59.0731,
      "duration": 0.0161,
      "velocity": 94,
      "chip": "ym2612"
    },
    {
      "channel": 2,
      "note": 59,
      "start": 59.0742,
      "duration": 0.0161,
      "velocity": 100,
      "chip": "ym2612"
    },
    {
      "channel": 1,
      "note": 71,
      "start": 59.0754,
      "duration": 0.0161,
      "velocity": 94,
      "chip": "ym2612"
    },
    {
      "channel": 0,
      "note": 75,
      "start": 59.0857,
      "duration": 0.0161,
      "velocity": 124,
      "chip": "ym2612"
    },
    {
      "channel": 3,
      "note": 71,
      "start": 59.0892,
      "duration": 0.0161,
      "velocity": 94,
      "chip": "ym2612"
    },
    {
      "channel": 2,
      "note": 59,
      "start": 59.0903,
      "duration": 0.0161,
      "velocity": 100,
      "chip": "ym2612"
    },
    {
      "channel": 1,
      "note": 71,
      "start": 59.0915,
      "duration": 0.0161,
      "velocity": 94,
      "chip": "ym2612"
    },
    {
      "channel": 0,
      "note": 72,
      "start": 59.1018,
      "duration": 0.0157,
      "velocity": 124,
      "chip": "ym2612"
    },
    {
      "channel": 3,
      "note": 71,
      "start": 59.1053,
      "duration": 0.0167,
      "velocity": 94,
      "chip": "ym2612"
    },
    {
      "channel": 2,
      "note": 59,
      "start": 59.1064,
      "duration": 0.0169,
      "velocity": 100,
      "chip": "ym2612"
    },
    {
      "channel": 1,
      "note": 71,
      "start": 59.1076,
      "duration": 0.0168,
      "velocity": 94,
      "chip": "ym2612"
    },
    {
      "channel": 0,
      "note": 70,
      "start": 59.1175,
      "duration": 0.0159,
      "velocity": 124,
      "chip": "ym2612"
    },
    {
      "channel": 5,
      "note": 75,
      "start": 59.1193,
      "duration": 0.0158,
      "velocity": 110,
      "chip": "ym2612"
    },
    {
      "channel": 4,
      "note": 71,
      "start": 59.1208,
      "duration": 0.0156,
      "velocity": 110,
      "chip": "ym2612"
    },
    {
      "channel": 3,
      "note": 71,
      "start": 59.122,
      "duration": 0.0156,
      "velocity": 94,
      "chip": "ym2612"
    },
    {
      "channel": 2,
      "note": 59,
      "start": 59.1233,
      "duration": 0.0155,
      "velocity": 100,
      "chip": "ym2612"
    },
    {
      "channel": 1,
      "note": 71,
      "start": 59.1245,
      "duration": 0.0155,
      "velocity": 94,
      "chip": "ym2612"
    },
    {
      "channel": 0,
      "note": 68,
      "start": 59.1334,
      "duration": 0.0161,
      "velocity": 124,
      "chip": "ym2612"
    },
    {
      "channel": 5,
      "note": 75,
      "start": 59.1351,
      "duration": 0.0157,
      "velocity": 110,
      "chip": "ym2612"
    },
    {
      "channel": 4,
      "note": 71,
      "start": 59.1364,
      "duration": 0.016,
      "velocity": 110,
      "chip": "ym2612"
    },
    {
      "channel": 3,
      "note": 71,
      "start": 59.1376,
      "duration": 0.016,
      "velocity": 94,
      "chip": "ym2612"
    },
    {
      "channel": 2,
      "note": 59,
      "start": 59.1388,
      "duration": 0.016,
      "velocity": 100,
      "chip": "ym2612"
    },
    {
      "channel": 1,
      "note": 71,
      "start": 59.14,
      "duration": 0.016,
      "velocity": 94,
      "chip": "ym2612"
    },
    {
      "channel": 0,
      "note": 65,
      "start": 59.1495,
      "duration": 0.0161,
      "velocity": 124,
      "chip": "ym2612"
    },
    {
      "channel": 5,
      "note": 75,
      "start": 59.1508,
      "duration": 0.0159,
      "velocity": 110,
      "chip": "ym2612"
    },
    {
      "channel": 4,
      "note": 71,
      "start": 59.1524,
      "duration": 0.0161,
      "velocity": 110,
      "chip": "ym2612"
    },
    {
      "channel": 3,
      "note": 71,
      "start": 59.1536,
      "duration": 0.016,
      "velocity": 94,
      "chip": "ym2612"
    },
    {
      "channel": 2,
      "note": 59,
      "start": 59.1548,
      "duration": 0.0161,
      "velocity": 100,
      "chip": "ym2612"
    },
    {
      "channel": 1,
      "note": 71,
      "start": 59.156,
      "duration": 0.0161,
      "velocity": 94,
      "chip": "ym2612"
    },
    {
      "channel": 0,
      "note": 63,
      "start": 59.1656,
      "duration": 0.0153,
      "velocity": 1,
      "chip": "ym2612"
    },
    {
      "channel": 5,
      "note": 75,
      "start": 59.1667,
      "duration": 0.0153,
      "velocity": 110,
      "chip": "ym2612"
    },
    {
      "channel": 4,
      "note": 71,
      "start": 59.1685,
      "duration": 0.0147,
      "velocity": 110,
      "chip": "ym2612"
    },
    {
      "channel": 3,
      "note": 71,
      "start": 59.1696,
      "duration": 0.0153,
      "velocity": 94,
      "chip": "ym2612"
    },
    {
      "channel": 2,
      "note": 59,
      "start": 59.1709,
      "duration": 0.0153,
      "velocity": 100,
      "chip": "ym2612"
    },
    {
      "channel": 1,
      "note": 71,
      "start": 59.1721,
      "duration": 0.0153,
      "velocity": 94,
      "chip": "ym2612"
    },
    {
      "channel": 3,
      "note": 71,
      "start": 59.1849,
      "duration": 0.0147,
      "velocity": 94,
      "chip": "ym2612"
    },
    {
      "channel": 2,
      "note": 59,
      "start": 59.1862,
      "duration": 0.0151,
      "velocity": 100,
      "chip": "ym2612"
    },
    {
      "channel": 1,
      "note": 71,
      "start": 59.1874,
      "duration": 0.0152,
      "velocity": 94,
      "chip": "ym2612"
    },
    {
      "channel": 3,
      "note": 71,
      "start": 59.1996,
      "duration": 0.0161,
      "velocity": 94,
      "chip": "ym2612"
    },
    {
      "channel": 2,
      "note": 59,
      "start": 59.2014,
      "duration": 0.0156,
      "velocity": 100,
      "chip": "ym2612"
    },
    {
      "channel": 1,
      "note": 71,
      "start": 59.2026,
      "duration": 0.0161,
      "velocity": 94,
      "chip": "ym2612"
    },
    {
      "channel": 3,
      "note": 71,
      "start": 59.2157,
      "duration": 0.021,
      "velocity": 94,
      "chip": "ym2612"
    },
    {
      "channel": 2,
      "note": 59,
      "start": 59.217,
      "duration": 0.0212,
      "velocity": 100,
      "chip": "ym2612"
    },
    {
      "channel": 1,
      "note": 71,
      "start": 59.2187,
      "duration": 0.0207,
      "velocity": 94,
      "chip": "ym2612"
    },
    {
      "channel": 0,
      "note": 36,
      "start": 59.2319,
      "duration": 0.0142,
      "velocity": 115,
      "chip": "ym2612"
    },
    {
      "channel": 5,
      "note": 71,
      "start": 59.2334,
      "duration": 0.014,
      "velocity": 110,
      "chip": "ym2612"
    },
    {
      "channel": 4,
      "note": 75,
      "start": 59.2356,
      "duration": 0.013,
      "velocity": 110,
      "chip": "ym2612"
    },
    {
      "channel": 3,
      "note": 71,
      "start": 59.2367,
      "duration": 0.0131,
      "velocity": 94,
      "chip": "ym2612"
    },
    {
      "channel": 2,
      "note": 54,
      "start": 59.2382,
      "duration": 0.0134,
      "velocity": 100,
      "chip": "ym2612"
    },
    {
      "channel": 1,
      "note": 71,
      "start": 59.2394,
      "duration": 0.0134,
      "velocity": 94,
      "chip": "ym2612"
    },
    {
      "channel": 0,
      "note": 36,
      "start": 59.2461,
      "duration": 0.016,
      "velocity": 115,
      "chip": "ym2612"
    },
    {
      "channel": 5,
      "note": 71,
      "start": 59.2474,
      "duration": 0.016,
      "velocity": 110,
      "chip": "ym2612"
    },
    {
      "channel": 4,
      "note": 75,
      "start": 59.2486,
      "duration": 0.0159,
      "velocity": 110,
      "chip": "ym2612"
    },
    {
      "channel": 3,
      "note": 71,
      "start": 59.2498,
      "duration": 0.0159,
      "velocity": 94,
      "chip": "ym2612"
    },
    {
      "channel": 2,
      "note": 54,
      "start": 59.2515,
      "duration": 0.0153,
      "velocity": 100,
      "chip": "ym2612"
    },
    {
      "channel": 1,
      "note": 71,
      "start": 59.2528,
      "duration": 0.0158,
      "velocity": 94,
      "chip": "ym2612"
    },
    {
      "channel": 0,
      "note": 37,
      "start": 59.2621,
      "duration": 0.0162,
      "velocity": 115,
      "chip": "ym2612"
    },
    {
      "channel": 5,
      "note": 71,
      "start": 59.2633,
      "duration": 0.0161,
      "velocity": 110,
      "chip": "ym2612"
    },
    {
      "channel": 4,
      "note": 75,
      "start": 59.2645,
      "duration": 0.0161,
      "velocity": 110,
      "chip": "ym2612"
    },
    {
      "channel": 3,
      "note": 71,
      "start": 59.2657,
      "duration": 0.0161,
      "velocity": 94,
      "chip": "ym2612"
    },
    {
      "channel": 2,
      "note": 54,
      "start": 59.2668,
      "duration": 0.0161,
      "velocity": 100,
      "chip": "ym2612"
    },
    {
      "channel": 1,
      "note": 71,
      "start": 59.2685,
      "duration": 0.0162,
      "velocity": 94,
      "chip": "ym2612"
    },
    {
      "channel": 0,
      "note": 37,
      "start": 59.2783,
      "duration": 0.0161,
      "velocity": 115,
      "chip": "ym2612"
    },
    {
      "channel": 5,
      "note": 71,
      "start": 59.2794,
      "duration": 0.0161,
      "velocity": 110,
      "chip": "ym2612"
    },
    {
      "channel": 4,
      "note": 75,
      "start": 59.2806,
      "duration": 0.0161,
      "velocity": 110,
      "chip": "ym2612"
    },
    {
      "channel": 3,
      "note": 71,
      "start": 59.2818,
      "duration": 0.0161,
      "velocity": 94,
      "chip": "ym2612"
    },
    {
      "channel": 2,
      "note": 54,
      "start": 59.2829,
      "duration": 0.0161,
      "velocity": 100,
      "chip": "ym2612"
    },
    {
      "channel": 1,
      "note": 71,
      "start": 59.2847,
      "duration": 0.0155,
      "velocity": 94,
      "chip": "ym2612"
    },
    {
      "channel": 0,
      "note": 38,
      "start": 59.2944,
      "duration": 0.0161,
      "velocity": 115,
      "chip": "ym2612"
    },
    {
      "channel": 5,
      "note": 71,
      "start": 59.2955,
      "duration": 0.0161,
      "velocity": 110,
      "chip": "ym2612"
    },
    {
      "channel": 4,
      "note": 75,
      "start": 59.2967,
      "duration": 0.0162,
      "velocity": 110,
      "chip": "ym2612"
    },
    {
      "channel": 3,
      "note": 71,
      "start": 59.2979,
      "duration": 0.0161,
      "velocity": 94,
      "chip": "ym2612"
    },
    {
      "channel": 2,
      "note": 54,
      "start": 59.299,
      "duration": 0.0161,
      "velocity": 100,
      "chip": "ym2612"
    },
    {
      "channel": 1,
      "note": 71,
      "start": 59.3002,
      "duration": 0.0161,
      "velocity": 94,
      "chip": "ym2612"
    },
    {
      "channel": 0,
      "note": 38,
      "start": 59.3105,
      "duration": 0.0179,
      "velocity": 115,
      "chip": "ym2612"
    },
    {
      "channel": 5,
      "note": 71,
      "start": 59.3116,
      "duration": 0.018,
      "velocity": 110,
      "chip": "ym2612"
    },
    {
      "channel": 4,
      "note": 75,
      "start": 59.3128,
      "duration": 0.0179,
      "velocity": 110,
      "chip": "ym2612"
    },
    {
      "channel": 3,
      "note": 71,
      "start": 59.314,
      "duration": 0.018,
      "velocity": 94,
      "chip": "ym2612"
    },
    {
      "channel": 2,
      "note": 54,
      "start": 59.3151,
      "duration": 0.0183,
      "velocity": 100,
      "chip": "ym2612"
    },
    {
      "channel": 1,
      "note": 71,
      "start": 59.3163,
      "duration": 0.0189,
      "velocity": 94,
      "chip": "ym2612"
    },
    {
      "channel": 0,
      "note": 36,
      "start": 59.3284,
      "duration": 0.0143,
      "velocity": 115,
      "chip": "ym2612"
    },
    {
      "channel": 5,
      "note": 71,
      "start": 59.3296,
      "duration": 0.0142,
      "velocity": 110,
      "chip": "ym2612"
    },
    {
      "channel": 4,
      "note": 75,
      "start": 59.3308,
      "duration": 0.0143,
      "velocity": 110,
      "chip": "ym2612"
    },
    {
      "channel": 3,
      "note": 71,
      "start": 59.332,
      "duration": 0.0143,
      "velocity": 94,
      "chip": "ym2612"
    },
    {
      "channel": 2,
      "note": 56,
      "start": 59.3334,
      "duration": 0.0141,
      "velocity": 100,
      "chip": "ym2612"
    },
    {
      "channel": 1,
      "note": 71,
      "start": 59.3352,
      "duration": 0.0134,
      "velocity": 94,
      "chip": "ym2612"
    },
    {
      "channel": 0,
      "note": 36,
      "start": 59.3427,
      "duration": 0.016,
      "velocity": 115,
      "chip": "ym2612"
    },
    {
      "channel": 3,
      "note": 71,
      "start": 59.3463,
      "duration": 0.016,
      "velocity": 94,
      "chip": "ym2612"
    },
    {
      "channel": 2,
      "note": 56,
      "start": 59.3475,
      "duration": 0.016,
      "velocity": 100,
      "chip": "ym2612"
    },
    {
      "channel": 1,
      "note": 71,
      "start": 59.3486,
      "duration": 0.016,
      "velocity": 94,
      "chip": "ym2612"
    },
    {
      "channel": 0,
      "note": 37,
      "start": 59.3588,
      "duration": 0.0161,
      "velocity": 115,
      "chip": "ym2612"
    },
    {
      "channel": 3,
      "note": 71,
      "start": 59.3623,
      "duration": 0.0161,
      "velocity": 94,
      "chip": "ym2612"
    },
    {
      "channel": 2,
      "note": 56,
      "start": 59.3635,
      "duration": 0.0161,
      "velocity": 100,
      "chip": "ym2612"
    },
    {
      "channel": 1,
      "note": 71,
      "start": 59.3646,
      "duration": 0.0161,
      "velocity": 94,
      "chip": "ym2612"
    },
    {
      "channel": 0,
      "note": 37,
      "start": 59.3749,
      "duration": 0.0161,
      "velocity": 115,
      "chip": "ym2612"
    },
    {
      "channel": 3,
      "note": 71,
      "start": 59.3784,
      "duration": 0.0161,
      "velocity": 94,
      "chip": "ym2612"
    },
    {
      "channel": 2,
      "note": 56,
      "start": 59.3796,
      "duration": 0.0161,
      "velocity": 100,
      "chip": "ym2612"
    },
    {
      "channel": 1,
      "note": 71,
      "start": 59.3807,
      "duration": 0.0162,
      "velocity": 94,
      "chip": "ym2612"
    },
    {
      "channel": 0,
      "note": 38,
      "start": 59.391,
      "duration": 0.0161,
      "velocity": 115,
      "chip": "ym2612"
    },
    {
      "channel": 3,
      "note": 71,
      "start": 59.3945,
      "duration": 0.0161,
      "velocity": 94,
      "chip": "ym2612"
    },
    {
      "channel": 2,
      "note": 56,
      "start": 59.3957,
      "duration": 0.0161,
      "velocity": 100,
      "chip": "ym2612"
    },
    {
      "channel": 1,
      "note": 71,
      "start": 59.3969,
      "duration": 0.0161,
      "velocity": 94,
      "chip": "ym2612"
    },
    {
      "channel": 0,
      "note": 38,
      "start": 59.4071,
      "duration": 0.0161,
      "velocity": 115,
      "chip": "ym2612"
    },
    {
      "channel": 3,
      "note": 71,
      "start": 59.4106,
      "duration": 0.0161,
      "velocity": 94,
      "chip": "ym2612"
    },
    {
      "channel": 2,
      "note": 56,
      "start": 59.4117,
      "duration": 0.0161,
      "velocity": 100,
      "chip": "ym2612"
    },
    {
      "channel": 1,
      "note": 71,
      "start": 59.413,
      "duration": 0.0161,
      "velocity": 94,
      "chip": "ym2612"
    },
    {
      "channel": 0,
      "note": 39,
      "start": 59.4232,
      "duration": 0.0179,
      "velocity": 115,
      "chip": "ym2612"
    },
    {
      "channel": 3,
      "note": 71,
      "start": 59.4267,
      "duration": 0.0186,
      "velocity": 94,
      "chip": "ym2612"
    },
    {
      "channel": 2,
      "note": 56,
      "start": 59.4278,
      "duration": 0.0188,
      "velocity": 100,
      "chip": "ym2612"
    },
    {
      "channel": 1,
      "note": 71,
      "start": 59.429,
      "duration": 0.0189,
      "velocity": 94,
      "chip": "ym2612"
    },
    {
      "channel": 0,
      "note": 36,
      "start": 59.4411,
      "duration": 0.0143,
      "velocity": 115,
      "chip": "ym2612"
    },
    {
      "channel": 5,
      "note": 75,
      "start": 59.4426,
      "duration": 0.0141,
      "velocity": 110,
      "chip": "ym2612"
    },
    {
      "channel": 4,
      "note": 71,
      "start": 59.4441,
      "duration": 0.0138,
      "velocity": 110,
      "chip": "ym2612"
    },
    {
      "channel": 3,
      "note": 71,
      "start": 59.4453,
      "duration": 0.0138,
      "velocity": 94,
      "chip": "ym2612"
    },
    {
      "channel": 2,
      "note": 59,
      "start": 59.4467,
      "duration": 0.0136,
      "velocity": 100,
      "chip": "ym2612"
    },
    {
      "channel": 1,
      "note": 71,
      "start": 59.448,
      "duration": 0.0135,
      "velocity": 94,
      "chip": "ym2612"
    },
    {
      "channel": 0,
      "note": 36,
      "start": 59.4555,
      "duration": 0.016,
      "velocity": 115,
      "chip": "ym2612"
    },
    {
      "channel": 5,
      "note": 75,
      "start": 59.4567,
      "duration": 0.016,
      "velocity": 110,
      "chip": "ym2612"
    },
    {
      "channel": 4,
      "note": 71,
      "start": 59.4579,
      "duration": 0.0159,
      "velocity": 110,
      "chip": "ym2612"
    },
    {
      "channel": 3,
      "note": 71,
      "start": 59.4591,
      "duration": 0.0159,
      "velocity": 94,
      "chip": "ym2612"
    },
    {
      "channel": 2,
      "note": 59,
      "start": 59.4603,
      "duration": 0.0158,
      "velocity": 100,
      "chip": "ym2612"
    },
    {
      "channel": 1,
      "note": 71,
      "start": 59.4615,
      "duration": 0.0159,
      "velocity": 94,
      "chip": "ym2612"
    },
    {
      "channel": 0,
      "note": 37,
      "start": 59.4715,
      "duration": 0.0161,
      "velocity": 115,
      "chip": "ym2612"
    },
    {
      "channel": 5,
      "note": 75,
      "start": 59.4726,
      "duration": 0.0161,
      "velocity": 110,
      "chip": "ym2612"
    },
    {
      "channel": 4,
      "note": 71,
      "start": 59.4738,
      "duration": 0.0161,
      "velocity": 110,
      "chip": "ym2612"
    },
    {
      "channel": 3,
      "note": 71,
      "start": 59.475,
      "duration": 0.0161,
      "velocity": 94,
      "chip": "ym2612"
    },
    {
      "channel": 2,
      "note": 59,
      "start": 59.4761,
      "duration": 0.0162,
      "velocity": 100,
      "chip": "ym2612"
    },
    {
      "channel": 1,
      "note": 71,
      "start": 59.4773,
      "duration": 0.0161,
      "velocity": 94,
      "chip": "ym2612"
    },
    {
      "channel": 0,
      "note": 37,
      "start": 59.4876,
      "duration": 0.0162,
      "velocity": 115,
      "chip": "ym2612"
    },
    {
      "channel": 5,
      "note": 75,
      "start": 59.4887,
      "duration": 0.0162,
      "velocity": 110,
      "chip": "ym2612"
    },
    {
      "channel": 4,
      "note": 71,
      "start": 59.4899,
      "duration": 0.0162,
      "velocity": 110,
      "chip": "ym2612"
    },
    {
      "channel": 3,
      "note": 71,
      "start": 59.4911,
      "duration": 0.0162,
      "velocity": 94,
      "chip": "ym2612"
    },
    {
      "channel": 2,
      "note": 59,
      "start": 59.4923,
      "duration": 0.0161,
      "velocity": 100,
      "chip": "ym2612"
    },
    {
      "channel": 1,
      "note": 71,
      "start": 59.4934,
      "duration": 0.0162,
      "velocity": 94,
      "chip": "ym2612"
    },
    {
      "channel": 0,
      "note": 38,
      "start": 59.5037,
      "duration": 0.0161,
      "velocity": 115,
      "chip": "ym2612"
    },
    {
      "channel": 5,
      "note": 75,
      "start": 59.5049,
      "duration": 0.0162,
      "velocity": 110,
      "chip": "ym2612"
    },
    {
      "channel": 4,
      "note": 71,
      "start": 59.5061,
      "duration": 0.0161,
      "velocity": 110,
      "chip": "ym2612"
    },
    {
      "channel": 3,
      "note": 71,
      "start": 59.5073,
      "duration": 0.0162,
      "velocity": 94,
      "chip": "ym2612"
    },
    {
      "channel": 2,
      "note": 59,
      "start": 59.5084,
      "duration": 0.0162,
      "velocity": 100,
      "chip": "ym2612"
    },
    {
      "channel": 1,
      "note": 71,
      "start": 59.5096,
      "duration": 0.0162,
      "velocity": 94,
      "chip": "ym2612"
    },
    {
      "channel": 0,
      "note": 38,
      "start": 59.5199,
      "duration": 0.0182,
      "velocity": 127,
      "chip": "ym2612"
    },
    {
      "channel": 5,
      "note": 75,
      "start": 59.5211,
      "duration": 0.0182,
      "velocity": 110,
      "chip": "ym2612"
    },
    {
      "channel": 4,
      "note": 71,
      "start": 59.5222,
      "duration": 0.0183,
      "velocity": 110,
      "chip": "ym2612"
    },
    {
      "channel": 3,
      "note": 71,
      "start": 59.5235,
      "duration": 0.0182,
      "velocity": 94,
      "chip": "ym2612"
    },
    {
      "channel": 2,
      "note": 59,
      "start": 59.5246,
      "duration": 0.0185,
      "velocity": 100,
      "chip": "ym2612"
    },
    {
      "channel": 1,
      "note": 71,
      "start": 59.5258,
      "duration": 0.0185,
      "velocity": 94,
      "chip": "ym2612"
    },
    {
      "channel": 0,
      "note": 88,
      "start": 59.5382,
      "duration": 0.0145,
      "velocity": 127,
      "chip": "ym2612"
    },
    {
      "channel": 5,
      "note": 75,
      "start": 59.5393,
      "duration": 0.0145,
      "velocity": 110,
      "chip": "ym2612"
    },
    {
      "channel": 4,
      "note": 71,
      "start": 59.5405,
      "duration": 0.0145,
      "velocity": 110,
      "chip": "ym2612"
    },
    {
      "channel": 3,
      "note": 71,
      "start": 59.5417,
      "duration": 0.0146,
      "velocity": 94,
      "chip": "ym2612"
    },
    {
      "channel": 2,
      "note": 71,
      "start": 59.5431,
      "duration": 0.0143,
      "velocity": 100,
      "chip": "ym2612"
    },
    {
      "channel": 1,
      "note": 71,
      "start": 59.5443,
      "duration": 0.0142,
      "velocity": 94,
      "chip": "ym2612"
    },
    {
      "channel": 0,
      "note": 86,
      "start": 59.5527,
      "duration": 0.016,
      "velocity": 127,
      "chip": "ym2612"
    },
    {
      "channel": 3,
      "note": 71,
      "start": 59.5562,
      "duration": 0.016,
      "velocity": 94,
      "chip": "ym2612"
    },
    {
      "channel": 2,
      "note": 71,
      "start": 59.5574,
      "duration": 0.016,
      "velocity": 100,
      "chip": "ym2612"
    },
    {
      "channel": 1,
      "note": 71,
      "start": 59.5586,
      "duration": 0.016,
      "velocity": 94,
      "chip": "ym2612"
    },
    {
      "channel": 0,
      "note": 85,
      "start": 59.5687,
      "duration": 0.016,
      "velocity": 127,
      "chip": "ym2612"
    },
    {
      "channel": 3,
      "note": 71,
      "start": 59.5722,
      "duration": 0.0161,
      "velocity": 94,
      "chip": "ym2612"
    },
    {
      "channel": 2,
      "note": 71,
      "start": 59.5734,
      "duration": 0.016,
      "velocity": 100,
      "chip": "ym2612"
    },
    {
      "channel": 1,
      "note": 71,
      "start": 59.5745,
      "duration": 0.0161,
      "velocity": 94,
      "chip": "ym2612"
    },
    {
      "channel": 0,
      "note": 83,
      "start": 59.5847,
      "duration": 0.0156,
      "velocity": 127,
      "chip": "ym2612"
    },
    {
      "channel": 3,
      "note": 71,
      "start": 59.5883,
      "duration": 0.0161,
      "velocity": 94,
      "chip": "ym2612"
    },
    {
      "channel": 2,
      "note": 71,
      "start": 59.5894,
      "duration": 0.0161,
      "velocity": 100,
      "chip": "ym2612"
    },
    {
      "channel": 1,
      "note": 71,
      "start": 59.5906,
      "duration": 0.0161,
      "velocity": 94,
      "chip": "ym2612"
    },
    {
      "channel": 0,
      "note": 81,
      "start": 59.6003,
      "duration": 0.0161,
      "velocity": 127,
      "chip": "ym2612"
    },
    {
      "channel": 3,
      "note": 71,
      "start": 59.6044,
      "duration": 0.0161,
      "velocity": 94,
      "chip": "ym2612"
    },
    {
      "channel": 2,
      "note": 71,
      "start": 59.6056,
      "duration": 0.0161,
      "velocity": 100,
      "chip": "ym2612"
    },
    {
      "channel": 1,
      "note": 71,
      "start": 59.6067,
      "duration": 0.0161,
      "velocity": 94,
      "chip": "ym2612"
    },
    {
      "channel": 0,
      "note": 80,
      "start": 59.6164,
      "duration": 0.0161,
      "velocity": 127,
      "chip": "ym2612"
    },
    {
      "channel": 3,
      "note": 71,
      "start": 59.6205,
      "duration": 0.016,
      "velocity": 94,
      "chip": "ym2612"
    },
    {
      "channel": 2,
      "note": 71,
      "start": 59.6217,
      "duration": 0.0161,
      "velocity": 100,
      "chip": "ym2612"
    },
    {
      "channel": 1,
      "note": 71,
      "start": 59.6229,
      "duration": 0.016,
      "velocity": 94,
      "chip": "ym2612"
    },
    {
      "channel": 0,
      "note": 78,
      "start": 59.6325,
      "duration": 0.0161,
      "velocity": 127,
      "chip": "ym2612"
    },
    {
      "channel": 3,
      "note": 71,
      "start": 59.6366,
      "duration": 0.017,
      "velocity": 94,
      "chip": "ym2612"
    },
    {
      "channel": 2,
      "note": 71,
      "start": 59.6378,
      "duration": 0.0172,
      "velocity": 100,
      "chip": "ym2612"
    },
    {
      "channel": 1,
      "note": 71,
      "start": 59.6389,
      "duration": 0.0172,
      "velocity": 94,
      "chip": "ym2612"
    },
    {
      "channel": 0,
      "note": 76,
      "start": 59.6486,
      "duration": 0.0161,
      "velocity": 127,
      "chip": "ym2612"
    },
    {
      "channel": 5,
      "note": 71,
      "start": 59.6502,
      "duration": 0.0158,
      "velocity": 110,
      "chip": "ym2612"
    },
    {
      "channel": 4,
      "note": 75,
      "start": 59.6523,
      "duration": 0.015,
      "velocity": 110,
      "chip": "ym2612"
    },
    {
      "channel": 3,
      "note": 71,
      "start": 59.6535,
      "duration": 0.0154,
      "velocity": 94,
      "chip": "ym2612"
    },
    {
      "channel": 2,
      "note": 59,
      "start": 59.6549,
      "duration": 0.0153,
      "velocity": 100,
      "chip": "ym2612"
    },
    {
      "channel": 1,
      "note": 71,
      "start": 59.6561,
      "duration": 0.0152,
      "velocity": 94,
      "chip": "ym2612"
    },
    {
      "channel": 0,
      "note": 75,
      "start": 59.6647,
      "duration": 0.0161,
      "velocity": 127,
      "chip": "ym2612"
    },
    {
      "channel": 5,
      "note": 71,
      "start": 59.6659,
      "duration": 0.016,
      "velocity": 110,
      "chip": "ym2612"
    },
    {
      "channel": 4,
      "note": 75,
      "start": 59.6673,
      "duration": 0.0158,
      "velocity": 110,
      "chip": "ym2612"
    },
    {
      "channel": 3,
      "note": 71,
      "start": 59.6689,
      "duration": 0.0159,
      "velocity": 94,
      "chip": "ym2612"
    },
    {
      "channel": 2,
      "note": 59,
      "start": 59.6702,
      "duration": 0.0159,
      "velocity": 100,
      "chip": "ym2612"
    },
    {
      "channel": 1,
      "note": 71,
      "start": 59.6714,
      "duration": 0.0159,
      "velocity": 94,
      "chip": "ym2612"
    },
    {
      "channel": 0,
      "note": 73,
      "start": 59.6808,
      "duration": 0.0161,
      "velocity": 127,
      "chip": "ym2612"
    },
    {
      "channel": 5,
      "note": 71,
      "start": 59.682,
      "duration": 0.0161,
      "velocity": 110,
      "chip": "ym2612"
    },
    {
      "channel": 4,
      "note": 75,
      "start": 59.6831,
      "duration": 0.0161,
      "velocity": 110,
      "chip": "ym2612"
    },
    {
      "channel": 3,
      "note": 71,
      "start": 59.6849,
      "duration": 0.0158,
      "velocity": 94,
      "chip": "ym2612"
    },
    {
      "channel": 2,
      "note": 59,
      "start": 59.6861,
      "duration": 0.0161,
      "velocity": 100,
      "chip": "ym2612"
    },
    {
      "channel": 1,
      "note": 71,
      "start": 59.6873,
      "duration": 0.0161,
      "velocity": 94,
      "chip": "ym2612"
    },
    {
      "channel": 0,
      "note": 71,
      "start": 59.6969,
      "duration": 0.0161,
      "velocity": 127,
      "chip": "ym2612"
    },
    {
      "channel": 5,
      "note": 71,
      "start": 59.6981,
      "duration": 0.0161,
      "velocity": 110,
      "chip": "ym2612"
    },
    {
      "channel": 4,
      "note": 75,
      "start": 59.6992,
      "duration": 0.0161,
      "velocity": 110,
      "chip": "ym2612"
    },
    {
      "channel": 3,
      "note": 71,
      "start": 59.7006,
      "duration": 0.0159,
      "velocity": 94,
      "chip": "ym2612"
    },
    {
      "channel": 2,
      "note": 59,
      "start": 59.7022,
      "duration": 0.016,
      "velocity": 100,
      "chip": "ym2612"
    },
    {
      "channel": 1,
      "note": 71,
      "start": 59.7034,
      "duration": 0.0161,
      "velocity": 94,
      "chip": "ym2612"
    },
    {
      "channel": 0,
      "note": 69,
      "start": 59.713,
      "duration": 0.0161,
      "velocity": 127,
      "chip": "ym2612"
    },
    {
      "channel": 5,
      "note": 71,
      "start": 59.7142,
      "duration": 0.0161,
      "velocity": 110,
      "chip": "ym2612"
    },
    {
      "channel": 4,
      "note": 75,
      "start": 59.7153,
      "duration": 0.0161,
      "velocity": 110,
      "chip": "ym2612"
    },
    {
      "channel": 3,
      "note": 71,
      "start": 59.7165,
      "duration": 0.0161,
      "velocity": 94,
      "chip": "ym2612"
    },
    {
      "channel": 2,
      "note": 59,
      "start": 59.7182,
      "duration": 0.0158,
      "velocity": 100,
      "chip": "ym2612"
    },
    {
      "channel": 1,
      "note": 71,
      "start": 59.7195,
      "duration": 0.0161,
      "velocity": 94,
      "chip": "ym2612"
    },
    {
      "channel": 0,
      "note": 68,
      "start": 59.729,
      "duration": 0.018,
      "velocity": 127,
      "chip": "ym2612"
    },
    {
      "channel": 5,
      "note": 71,
      "start": 59.7303,
      "duration": 0.018,
      "velocity": 110,
      "chip": "ym2612"
    },
    {
      "channel": 4,
      "note": 75,
      "start": 59.7314,
      "duration": 0.0181,
      "velocity": 110,
      "chip": "ym2612"
    },
    {
      "channel": 3,
      "note": 71,
      "start": 59.7326,
      "duration": 0.0186,
      "velocity": 94,
      "chip": "ym2612"
    },
    {
      "channel": 2,
      "note": 59,
      "start": 59.734,
      "duration": 0.0187,
      "velocity": 100,
      "chip": "ym2612"
    },
    {
      "channel": 1,
      "note": 71,
      "start": 59.7356,
      "duration": 0.0183,
      "velocity": 94,
      "chip": "ym2612"
    },
    {
      "channel": 0,
      "note": 84,
      "start": 59.7471,
      "duration": 0.0142,
      "velocity": 127,
      "chip": "ym2612"
    },
    {
      "channel": 5,
      "note": 71,
      "start": 59.7483,
      "duration": 0.0142,
      "velocity": 110,
      "chip": "ym2612"
    },
    {
      "channel": 4,
      "note": 75,
      "start": 59.7495,
      "duration": 0.0142,
      "velocity": 110,
      "chip": "ym2612"
    },
    {
      "channel": 3,
      "note": 71,
      "start": 59.7512,
      "duration": 0.0137,
      "velocity": 94,
      "chip": "ym2612"
    },
    {
      "channel": 2,
      "note": 71,
      "start": 59.7527,
      "duration": 0.0134,
      "velocity": 100,
      "chip": "ym2612"
    },
    {
      "channel": 1,
      "note": 71,
      "start": 59.7539,
      "duration": 0.0136,
      "velocity": 94,
      "chip": "ym2612"
    },
    {
      "channel": 0,
      "note": 82,
      "start": 59.7614,
      "duration": 0.016,
      "velocity": 127,
      "chip": "ym2612"
    },
    {
      "channel": 3,
      "note": 71,
      "start": 59.7649,
      "duration": 0.016,
      "velocity": 94,
      "chip": "ym2612"
    },
    {
      "channel": 2,
      "note": 71,
      "start": 59.7661,
      "duration": 0.016,
      "velocity": 100,
      "chip": "ym2612"
    },
    {
      "channel": 1,
      "note": 71,
      "start": 59.7676,
      "duration": 0.0157,
      "velocity": 94,
      "chip": "ym2612"
    },
    {
      "channel": 0,
      "note": 81,
      "start": 59.7774,
      "duration": 0.0161,
      "velocity": 127,
      "chip": "ym2612"
    },
    {
      "channel": 3,
      "note": 71,
      "start": 59.7809,
      "duration": 0.0161,
      "velocity": 94,
      "chip": "ym2612"
    },
    {
      "channel": 2,
      "note": 71,
      "start": 59.7821,
      "duration": 0.0161,
      "velocity": 100,
      "chip": "ym2612"
    },
    {
      "channel": 1,
      "note": 71,
      "start": 59.7833,
      "duration": 0.0161,
      "velocity": 94,
      "chip": "ym2612"
    },
    {
      "channel": 0,
      "note": 79,
      "start": 59.7935,
      "duration": 0.0161,
      "velocity": 127,
      "chip": "ym2612"
    },
    {
      "channel": 3,
      "note": 71,
      "start": 59.7971,
      "duration": 0.0161,
      "velocity": 94,
      "chip": "ym2612"
    },
    {
      "channel": 2,
      "note": 71,
      "start": 59.7982,
      "duration": 0.0161,
      "velocity": 100,
      "chip": "ym2612"
    },
    {
      "channel": 1,
      "note": 71,
      "start": 59.7994,
      "duration": 0.0161,
      "velocity": 94,
      "chip": "ym2612"
    },
    {
      "channel": 0,
      "note": 77,
      "start": 59.8096,
      "duration": 0.0161,
      "velocity": 127,
      "chip": "ym2612"
    },
    {
      "channel": 3,
      "note": 71,
      "start": 59.8132,
      "duration": 0.0161,
      "velocity": 94,
      "chip": "ym2612"
    },
    {
      "channel": 2,
      "note": 71,
      "start": 59.8143,
      "duration": 0.0161,
      "velocity": 100,
      "chip": "ym2612"
    },
    {
      "channel": 0,
      "note": 76,
      "start": 59.8257,
      "duration": 0.0161,
      "velocity": 127,
      "chip": "ym2612"
    },
    {
      "channel": 3,
      "note": 71,
      "start": 59.8293,
      "duration": 0.0161,
      "velocity": 94,
      "chip": "ym2612"
    },
    {
      "channel": 2,
      "note": 71,
      "start": 59.8304,
      "duration": 0.0161,
      "velocity": 100,
      "chip": "ym2612"
    },
    {
      "channel": 0,
      "note": 74,
      "start": 59.8418,
      "duration": 0.018,
      "velocity": 127,
      "chip": "ym2612"
    },
    {
      "channel": 3,
      "note": 71,
      "start": 59.8454,
      "duration": 0.0187,
      "velocity": 94,
      "chip": "ym2612"
    },
    {
      "channel": 2,
      "note": 71,
      "start": 59.8465,
      "duration": 0.019,
      "velocity": 100,
      "chip": "ym2612"
    },
    {
      "channel": 0,
      "note": 78,
      "start": 59.8598,
      "duration": 0.0143,
      "velocity": 127,
      "chip": "ym2612"
    },
    {
      "channel": 5,
      "note": 75,
      "start": 59.8613,
      "duration": 0.014,
      "velocity": 110,
      "chip": "ym2612"
    },
    {
      "channel": 4,
      "note": 71,
      "start": 59.8628,
      "duration": 0.0137,
      "velocity": 110,
      "chip": "ym2612"
    },
    {
      "channel": 3,
      "note": 71,
      "start": 59.864,
      "duration": 0.0137,
      "velocity": 94,
      "chip": "ym2612"
    },
    {
      "channel": 2,
      "note": 59,
      "start": 59.8654,
      "duration": 0.0135,
      "velocity": 100,
      "chip": "ym2612"
    },
    {
      "channel": 1,
      "note": 70,
      "start": 59.8669,
      "duration": 0.0132,
      "velocity": 94,
      "chip": "ym2612"
    },
    {
      "channel": 0,
      "note": 76,
      "start": 59.874,
      "duration": 0.0161,
      "velocity": 127,
      "chip": "ym2612"
    },
    {
      "channel": 5,
      "note": 75,
      "start": 59.8753,
      "duration": 0.016,
      "velocity": 110,
      "chip": "ym2612"
    },
    {
      "channel": 4,
      "note": 71,
      "start": 59.8765,
      "duration": 0.016,
      "velocity": 110,
      "chip": "ym2612"
    },
    {
      "channel": 3,
      "note": 71,
      "start": 59.8777,
      "duration": 0.016,
      "velocity": 94,
      "chip": "ym2612"
    },
    {
      "channel": 2,
      "note": 59,
      "start": 59.8789,
      "duration": 0.0159,
      "velocity": 100,
      "chip": "ym2612"
    },
    {
      "channel": 1,
      "note": 70,
      "start": 59.8801,
      "duration": 0.0159,
      "velocity": 94,
      "chip": "ym2612"
    },
    {
      "channel": 0,
      "note": 75,
      "start": 59.8901,
      "duration": 0.0161,
      "velocity": 127,
      "chip": "ym2612"
    },
    {
      "channel": 5,
      "note": 75,
      "start": 59.8913,
      "duration": 0.0161,
      "velocity": 110,
      "chip": "ym2612"
    },
    {
      "channel": 4,
      "note": 71,
      "start": 59.8925,
      "duration": 0.0161,
      "velocity": 110,
      "chip": "ym2612"
    },
    {
      "channel": 3,
      "note": 71,
      "start": 59.8937,
      "duration": 0.0161,
      "velocity": 94,
      "chip": "ym2612"
    },
    {
      "channel": 2,
      "note": 59,
      "start": 59.8948,
      "duration": 0.0161,
      "velocity": 100,
      "chip": "ym2612"
    },
    {
      "channel": 1,
      "note": 70,
      "start": 59.896,
      "duration": 0.0161,
      "velocity": 94,
      "chip": "ym2612"
    },
    {
      "channel": 0,
      "note": 73,
      "start": 59.9062,
      "duration": 0.0161,
      "velocity": 127,
      "chip": "ym2612"
    },
    {
      "channel": 5,
      "note": 75,
      "start": 59.9074,
      "duration": 0.0161,
      "velocity": 110,
      "chip": "ym2612"
    },
    {
      "channel": 4,
      "note": 71,
      "start": 59.9086,
      "duration": 0.0161,
      "velocity": 110,
      "chip": "ym2612"
    },
    {
      "channel": 3,
      "note": 71,
      "start": 59.9098,
      "duration": 0.0161,
      "velocity": 94,
      "chip": "ym2612"
    },
    {
      "channel": 2,
      "note": 59,
      "start": 59.9109,
      "duration": 0.0161,
      "velocity": 100,
      "chip": "ym2612"
    },
    {
      "channel": 1,
      "note": 70,
      "start": 59.9121,
      "duration": 0.0161,
      "velocity": 94,
      "chip": "ym2612"
    },
    {
      "channel": 0,
      "note": 71,
      "start": 59.9223,
      "duration": 0.0161,
      "velocity": 127,
      "chip": "ym2612"
    },
    {
      "channel": 5,
      "note": 75,
      "start": 59.9235,
      "duration": 0.0161,
      "velocity": 110,
      "chip": "ym2612"
    },
    {
      "channel": 4,
      "note": 71,
      "start": 59.9247,
      "duration": 0.0161,
      "velocity": 110,
      "chip": "ym2612"
    },
    {
      "channel": 3,
      "note": 71,
      "start": 59.9259,
      "duration": 0.0161,
      "velocity": 94,
      "chip": "ym2612"
    },
    {
      "channel": 2,
      "note": 59,
      "start": 59.927,
      "duration": 0.0161,
      "velocity": 100,
      "chip": "ym2612"
    },
    {
      "channel": 1,
      "note": 70,
      "start": 59.9282,
      "duration": 0.0161,
      "velocity": 94,
      "chip": "ym2612"
    },
    {
      "channel": 0,
      "note": 70,
      "start": 59.9384,
      "duration": 0.0179,
      "velocity": 115,
      "chip": "ym2612"
    },
    {
      "channel": 5,
      "note": 75,
      "start": 59.9395,
      "duration": 0.018,
      "velocity": 110,
      "chip": "ym2612"
    },
    {
      "channel": 4,
      "note": 71,
      "start": 59.9408,
      "duration": 0.0179,
      "velocity": 110,
      "chip": "ym2612"
    },
    {
      "channel": 3,
      "note": 71,
      "start": 59.942,
      "duration": 0.0179,
      "velocity": 94,
      "chip": "ym2612"
    },
    {
      "channel": 2,
      "note": 59,
      "start": 59.9431,
      "duration": 0.0179,
      "velocity": 100,
      "chip": "ym2612"
    },
    {
      "channel": 1,
      "note": 70,
      "start": 59.9443,
      "duration": 0.0179,
      "velocity": 94,
      "chip": "ym2612"
    },
    {
      "channel": 0,
      "note": 36,
      "start": 59.9563,
      "duration": 0.0143,
      "velocity": 115,
      "chip": "ym2612"
    },
    {
      "channel": 5,
      "note": 75,
      "start": 59.9576,
      "duration": 0.0143,
      "velocity": 110,
      "chip": "ym2612"
    },
    {
      "channel": 4,
      "note": 71,
      "start": 59.9587,
      "duration": 0.0144,
      "velocity": 110,
      "chip": "ym2612"
    },
    {
      "channel": 3,
      "note": 71,
      "start": 59.9599,
      "duration": 0.0143,
      "velocity": 94,
      "chip": "ym2612"
    },
    {
      "channel": 2,
      "note": 59,
      "start": 59.961,
      "duration": 0.0144,
      "velocity": 100,
      "chip": "ym2612"
    },
    {
      "channel": 1,
      "note": 70,
      "start": 59.9622,
      "duration": 0.0144,
      "velocity": 94,
      "chip": "ym2612"
    },
    {
      "channel": 0,
      "note": 36,
      "start": 59.9707,
      "duration": 0.0161,
      "velocity": 115,
      "chip": "ym2612"
    },
    {
      "channel": 3,
      "note": 71,
      "start": 59.9742,
      "duration": 0.0161,
      "velocity": 94,
      "chip": "ym2612"
    },
    {
      "channel": 2,
      "note": 59,
      "start": 59.9754,
      "duration": 0.016,
      "velocity": 100,
      "chip": "ym2612"
    },
    {
      "channel": 1,
      "note": 70,
      "start": 59.9766,
      "duration": 0.0161,
      "velocity": 94,
      "chip": "ym2612"
    },
    {
      "channel": 0,
      "note": 37,
      "start": 59.9868,
      "duration": 0.0165,
      "velocity": 115,
      "chip": "ym2612"
    },
    {
      "channel": 3,
      "note": 71,
      "start": 59.9903,
      "duration": 0.0164,
      "velocity": 94,
      "chip": "ym2612"
    },
    {
      "channel": 2,
      "note": 59,
      "start": 59.9915,
      "duration": 0.0165,
      "velocity": 100,
      "chip": "ym2612"
    },
    {
      "channel": 1,
      "note": 70,
      "start": 59.9927,
      "duration": 0.0164,
      "velocity": 94,
      "chip": "ym2612"
    },
    {
      "channel": 0,
      "note": 37,
      "start": 60.0032,
      "duration": 0.0163,
      "velocity": 115,
      "chip": "ym2612"
    },
    {
      "channel": 3,
      "note": 71,
      "start": 60.0067,
      "duration": 0.0163,
      "velocity": 94,
      "chip": "ym2612"
    },
    {
      "channel": 2,
      "note": 59,
      "start": 60.0079,
      "duration": 0.0163,
      "velocity": 100,
      "chip": "ym2612"
    },
    {
      "channel": 1,
      "note": 70,
      "start": 60.0091,
      "duration": 0.0163,
      "velocity": 94,
      "chip": "ym2612"
    },
    {
      "channel": 0,
      "note": 38,
      "start": 60.0195,
      "duration": 0.0161,
      "velocity": 115,
      "chip": "ym2612"
    },
    {
      "channel": 3,
      "note": 71,
      "start": 60.023,
      "duration": 0.0161,
      "velocity": 94,
      "chip": "ym2612"
    },
    {
      "channel": 2,
      "note": 59,
      "start": 60.0242,
      "duration": 0.0161,
      "velocity": 100,
      "chip": "ym2612"
    },
    {
      "channel": 1,
      "note": 70,
      "start": 60.0254,
      "duration": 0.0161,
      "velocity": 94,
      "chip": "ym2612"
    },
    {
      "channel": 0,
      "note": 38,
      "start": 60.0356,
      "duration": 0.016,
      "velocity": 115,
      "chip": "ym2612"
    },
    {
      "channel": 3,
      "note": 71,
      "start": 60.0392,
      "duration": 0.0161,
      "velocity": 94,
      "chip": "ym2612"
    },
    {
      "channel": 2,
      "note": 59,
      "start": 60.0403,
      "duration": 0.0161,
      "velocity": 100,
      "chip": "ym2612"
    },
    {
      "channel": 1,
      "note": 70,
      "start": 60.0415,
      "duration": 0.0161,
      "velocity": 94,
      "chip": "ym2612"
    },
    {
      "channel": 0,
      "note": 39,
      "start": 60.0516,
      "duration": 0.018,
      "velocity": 124,
      "chip": "ym2612"
    },
    {
      "channel": 3,
      "note": 71,
      "start": 60.0553,
      "duration": 0.0188,
      "velocity": 94,
      "chip": "ym2612"
    },
    {
      "channel": 2,
      "note": 59,
      "start": 60.0564,
      "duration": 0.019,
      "velocity": 100,
      "chip": "ym2612"
    },
    {
      "channel": 1,
      "note": 70,
      "start": 60.0576,
      "duration": 0.0191,
      "velocity": 94,
      "chip": "ym2612"
    },
    {
      "channel": 0,
      "note": 84,
      "start": 60.0696,
      "duration": 0.0137,
      "velocity": 124,
      "chip": "ym2612"
    },
    {
      "channel": 5,
      "note": 71,
      "start": 60.0712,
      "duration": 0.0139,
      "velocity": 110,
      "chip": "ym2612"
    },
    {
      "channel": 4,
      "note": 75,
      "start": 60.0728,
      "duration": 0.0136,
      "velocity": 110,
      "chip": "ym2612"
    },
    {
      "channel": 3,
      "note": 71,
      "start": 60.074,
      "duration": 0.0136,
      "velocity": 94,
      "chip": "ym2612"
    },
    {
      "channel": 2,
      "note": 54,
      "start": 60.0754,
      "duration": 0.0134,
      "velocity": 100,
      "chip": "ym2612"
    },
    {
      "channel": 1,
      "note": 70,
      "start": 60.0766,
      "duration": 0.0134,
      "velocity": 94,
      "chip": "ym2612"
    },
    {
      "channel": 0,
      "note": 82,
      "start": 60.0834,
      "duration": 0.016,
      "velocity": 124,
      "chip": "ym2612"
    },
    {
      "channel": 5,
      "note": 71,
      "start": 60.0852,
      "duration": 0.0156,
      "velocity": 110,
      "chip": "ym2612"
    },
    {
      "channel": 4,
      "note": 75,
      "start": 60.0864,
      "duration": 0.016,
      "velocity": 110,
      "chip": "ym2612"
    },
    {
      "channel": 3,
      "note": 71,
      "start": 60.0876,
      "duration": 0.016,
      "velocity": 94,
      "chip": "ym2612"
    },
    {
      "channel": 2,
      "note": 54,
      "start": 60.0888,
      "duration": 0.0159,
      "velocity": 100,
      "chip": "ym2612"
    },
    {
      "channel": 1,
      "note": 70,
      "start": 60.0901,
      "duration": 0.0158,
      "velocity": 94,
      "chip": "ym2612"
    },
    {
      "channel": 0,
      "note": 80,
      "start": 60.0994,
      "duration": 0.0161,
      "velocity": 124,
      "chip": "ym2612"
    },
    {
      "channel": 5,
      "note": 71,
      "start": 60.1008,
      "duration": 0.0159,
      "velocity": 110,
      "chip": "ym2612"
    },
    {
      "channel": 4,
      "note": 75,
      "start": 60.1024,
      "duration": 0.016,
      "velocity": 110,
      "chip": "ym2612"
    },
    {
      "channel": 3,
      "note": 71,
      "start": 60.1036,
      "duration": 0.0161,
      "velocity": 94,
      "chip": "ym2612"
    },
    {
      "channel": 2,
      "note": 54,
      "start": 60.1048,
      "duration": 0.0161,
      "velocity": 100,
      "chip": "ym2612"
    },
    {
      "channel": 1,
      "note": 70,
      "start": 60.1059,
      "duration": 0.0161,
      "velocity": 94,
      "chip": "ym2612"
    },
    {
      "channel": 0,
      "note": 77,
      "start": 60.1155,
      "duration": 0.0161,
      "velocity": 124,
      "chip": "ym2612"
    },
    {
      "channel": 5,
      "note": 71,
      "start": 60.1167,
      "duration": 0.0161,
      "velocity": 110,
      "chip": "ym2612"
    },
    {
      "channel": 4,
      "note": 75,
      "start": 60.1184,
      "duration": 0.0158,
      "velocity": 110,
      "chip": "ym2612"
    },
    {
      "channel": 3,
      "note": 71,
      "start": 60.1197,
      "duration": 0.0161,
      "velocity": 94,
      "chip": "ym2612"
    },
    {
      "channel": 2,
      "note": 54,
      "start": 60.1208,
      "duration": 0.0161,
      "velocity": 100,
      "chip": "ym2612"
    },
    {
      "channel": 1,
      "note": 70,
      "start": 60.122,
      "duration": 0.0162,
      "velocity": 94,
      "chip": "ym2612"
    },
    {
      "channel": 0,
      "note": 75,
      "start": 60.1317,
      "duration": 0.0161,
      "velocity": 124,
      "chip": "ym2612"
    },
    {
      "channel": 5,
      "note": 71,
      "start": 60.1328,
      "duration": 0.0161,
      "velocity": 110,
      "chip": "ym2612"
    },
    {
      "channel": 4,
      "note": 75,
      "start": 60.1342,
      "duration": 0.0158,
      "velocity": 110,
      "chip": "ym2612"
    },
    {
      "channel": 2,
      "note": 54,
      "start": 60.1369,
      "duration": 0.0161,
      "velocity": 100,
      "chip": "ym2612"
    },
    {
      "channel": 1,
      "note": 70,
      "start": 60.1382,
      "duration": 0.016,
      "velocity": 94,
      "chip": "ym2612"
    },
    {
      "channel": 0,
      "note": 72,
      "start": 60.1478,
      "duration": 0.0179,
      "velocity": 124,
      "chip": "ym2612"
    },
    {
      "channel": 5,
      "note": 71,
      "start": 60.1489,
      "duration": 0.0179,
      "velocity": 110,
      "chip": "ym2612"
    },
    {
      "channel": 4,
      "note": 75,
      "start": 60.15,
      "duration": 0.0185,
      "velocity": 110,
      "chip": "ym2612"
    },
    {
      "channel": 2,
      "note": 54,
      "start": 60.153,
      "duration": 0.0179,
      "velocity": 100,
      "chip": "ym2612"
    },
    {
      "channel": 1,
      "note": 70,
      "start": 60.1542,
      "duration": 0.018,
      "velocity": 94,
      "chip": "ym2612"
    },
    {
      "channel": 0,
      "note": 84,
      "start": 60.1657,
      "duration": 0.0143,
      "velocity": 124,
      "chip": "ym2612"
    },
    {
      "channel": 5,
      "note": 71,
      "start": 60.1668,
      "duration": 0.0143,
      "velocity": 110,
      "chip": "ym2612"
    },
    {
      "channel": 4,
      "note": 75,
      "start": 60.1685,
      "duration": 0.0138,
      "velocity": 110,
      "chip": "ym2612"
    },
    {
      "channel": 2,
      "note": 54,
      "start": 60.171,
      "duration": 0.0146,
      "velocity": 100,
      "chip": "ym2612"
    },
    {
      "channel": 1,
      "note": 70,
      "start": 60.1721,
      "duration": 0.0146,
      "velocity": 94,
      "chip": "ym2612"
    },
    {
      "channel": 0,
      "note": 82,
      "start": 60.18,
      "duration": 0.016,
      "velocity": 124,
      "chip": "ym2612"
    },
    {
      "channel": 3,
      "note": 70,
      "start": 60.1841,
      "duration": 0.0155,
      "velocity": 94,
      "chip": "ym2612"
    },
    {
      "channel": 2,
      "note": 54,
      "start": 60.1856,
      "duration": 0.0154,
      "velocity": 100,
      "chip": "ym2612"
    },
    {
      "channel": 1,
      "note": 70,
      "start": 60.1868,
      "duration": 0.0158,
      "velocity": 94,
      "chip": "ym2612"
    },
    {
      "channel": 0,
      "note": 80,
      "start": 60.196,
      "duration": 0.0161,
      "velocity": 124,
      "chip": "ym2612"
    },
    {
      "channel": 3,
      "note": 70,
      "start": 60.1996,
      "duration": 0.016,
      "velocity": 94,
      "chip": "ym2612"
    },
    {
      "channel": 2,
      "note": 54,
      "start": 60.201,
      "duration": 0.0158,
      "velocity": 100,
      "chip": "ym2612"
    },
    {
      "channel": 1,
      "note": 70,
      "start": 60.2025,
      "duration": 0.016,
      "velocity": 94,
      "chip": "ym2612"
    },
    {
      "channel": 0,
      "note": 77,
      "start": 60.2121,
      "duration": 0.0161,
      "velocity": 124,
      "chip": "ym2612"
    },
    {
      "channel": 3,
      "note": 70,
      "start": 60.2156,
      "duration": 0.0161,
      "velocity": 94,
      "chip": "ym2612"
    },
    {
      "channel": 2,
      "note": 54,
      "start": 60.2168,
      "duration": 0.0161,
      "velocity": 100,
      "chip": "ym2612"
    },
    {
      "channel": 1,
      "note": 70,
      "start": 60.2185,
      "duration": 0.0158,
      "velocity": 94,
      "chip": "ym2612"
    },
    {
      "channel": 0,
      "note": 75,
      "start": 60.2282,
      "duration": 0.0161,
      "velocity": 124,
      "chip": "ym2612"
    },
    {
      "channel": 3,
      "note": 70,
      "start": 60.2317,
      "duration": 0.0162,
      "velocity": 94,
      "chip": "ym2612"
    },
    {
      "channel": 2,
      "note": 54,
      "start": 60.2329,
      "duration": 0.0161,
      "velocity": 100,
      "chip": "ym2612"
    },
    {
      "channel": 0,
      "note": 72,
      "start": 60.2443,
      "duration": 0.0161,
      "velocity": 124,
      "chip": "ym2612"
    },
    {
      "channel": 3,
      "note": 70,
      "start": 60.2479,
      "duration": 0.0161,
      "velocity": 94,
      "chip": "ym2612"
    },
    {
      "channel": 2,
      "note": 54,
      "start": 60.249,
      "duration": 0.0161,
      "velocity": 100,
      "chip": "ym2612"
    },
    {
      "channel": 0,
      "note": 70,
      "start": 60.2604,
      "duration": 0.018,
      "velocity": 115,
      "chip": "ym2612"
    },
    {
      "channel": 3,
      "note": 70,
      "start": 60.264,
      "duration": 0.0186,
      "velocity": 94,
      "chip": "ym2612"
    },
    {
      "channel": 2,
      "note": 54,
      "start": 60.2651,
      "duration": 0.0191,
      "velocity": 100,
      "chip": "ym2612"
    },
    {
      "channel": 0,
      "note": 36,
      "start": 60.2784,
      "duration": 0.0143,
      "velocity": 115,
      "chip": "ym2612"
    },
    {
      "channel": 5,
      "note": 75,
      "start": 60.2799,
      "duration": 0.0141,
      "velocity": 110,
      "chip": "ym2612"
    },
    {
      "channel": 4,
      "note": 71,
      "start": 60.2814,
      "duration": 0.0137,
      "velocity": 110,
      "chip": "ym2612"
    },
    {
      "channel": 3,
      "note": 70,
      "start": 60.2826,
      "duration": 0.0138,
      "velocity": 94,
      "chip": "ym2612"
    },
    {
      "channel": 2,
      "note": 56,
      "start": 60.2843,
      "duration": 0.0133,
      "velocity": 100,
      "chip": "ym2612"
    },
    {
      "channel": 1,
      "note": 68,
      "start": 60.2861,
      "duration": 0.0127,
      "velocity": 94,
      "chip": "ym2612"
    },
    {
      "channel": 0,
      "note": 36,
      "start": 60.2927,
      "duration": 0.016,
      "velocity": 115,
      "chip": "ym2612"
    },
    {
      "channel": 5,
      "note": 75,
      "start": 60.2939,
      "duration": 0.016,
      "velocity": 110,
      "chip": "ym2612"
    },
    {
      "channel": 4,
      "note": 71,
      "start": 60.2951,
      "duration": 0.0159,
      "velocity": 110,
      "chip": "ym2612"
    },
    {
      "channel": 3,
      "note": 70,
      "start": 60.2963,
      "duration": 0.0159,
      "velocity": 94,
      "chip": "ym2612"
    },
    {
      "channel": 2,
      "note": 56,
      "start": 60.2976,
      "duration": 0.0158,
      "velocity": 100,
      "chip": "ym2612"
    },
    {
      "channel": 1,
      "note": 68,
      "start": 60.2988,
      "duration": 0.0159,
      "velocity": 94,
      "chip": "ym2612"
    },
    {
      "channel": 0,
      "note": 37,
      "start": 60.3087,
      "duration": 0.0161,
      "velocity": 115,
      "chip": "ym2612"
    },
    {
      "channel": 5,
      "note": 75,
      "start": 60.3099,
      "duration": 0.0161,
      "velocity": 110,
      "chip": "ym2612"
    },
    {
      "channel": 4,
      "note": 71,
      "start": 60.311,
      "duration": 0.0161,
      "velocity": 110,
      "chip": "ym2612"
    },
    {
      "channel": 3,
      "note": 70,
      "start": 60.3123,
      "duration": 0.0161,
      "velocity": 94,
      "chip": "ym2612"
    },
    {
      "channel": 2,
      "note": 56,
      "start": 60.3134,
      "duration": 0.0161,
      "velocity": 100,
      "chip": "ym2612"
    },
    {
      "channel": 1,
      "note": 68,
      "start": 60.3146,
      "duration": 0.0161,
      "velocity": 94,
      "chip": "ym2612"
    },
    {
      "channel": 0,
      "note": 37,
      "start": 60.3249,
      "duration": 0.0161,
      "velocity": 115,
      "chip": "ym2612"
    },
    {
      "channel": 5,
      "note": 75,
      "start": 60.326,
      "duration": 0.0161,
      "velocity": 110,
      "chip": "ym2612"
    },
    {
      "channel": 4,
      "note": 71,
      "start": 60.3271,
      "duration": 0.0162,
      "velocity": 110,
      "chip": "ym2612"
    },
    {
      "channel": 3,
      "note": 70,
      "start": 60.3284,
      "duration": 0.0161,
      "velocity": 94,
      "chip": "ym2612"
    },
    {
      "channel": 2,
      "note": 56,
      "start": 60.3295,
      "duration": 0.0161,
      "velocity": 100,
      "chip": "ym2612"
    },
    {
      "channel": 1,
      "note": 68,
      "start": 60.3307,
      "duration": 0.0161,
      "velocity": 94,
      "chip": "ym2612"
    },
    {
      "channel": 0,
      "note": 38,
      "start": 60.341,
      "duration": 0.0161,
      "velocity": 115,
      "chip": "ym2612"
    },
    {
      "channel": 5,
      "note": 75,
      "start": 60.3421,
      "duration": 0.0161,
      "velocity": 110,
      "chip": "ym2612"
    },
    {
      "channel": 4,
      "note": 71,
      "start": 60.3433,
      "duration": 0.0161,
      "velocity": 110,
      "chip": "ym2612"
    },
    {
      "channel": 3,
      "note": 70,
      "start": 60.3444,
      "duration": 0.0161,
      "velocity": 94,
      "chip": "ym2612"
    },
    {
      "channel": 2,
      "note": 56,
      "start": 60.3456,
      "duration": 0.0161,
      "velocity": 100,
      "chip": "ym2612"
    },
    {
      "channel": 1,
      "note": 68,
      "start": 60.3468,
      "duration": 0.0161,
      "velocity": 94,
      "chip": "ym2612"
    },
    {
      "channel": 0,
      "note": 38,
      "start": 60.3571,
      "duration": 0.0161,
      "velocity": 115,
      "chip": "ym2612"
    },
    {
      "channel": 5,
      "note": 75,
      "start": 60.3582,
      "duration": 0.0161,
      "velocity": 110,
      "chip": "ym2612"
    },
    {
      "channel": 4,
      "note": 71,
      "start": 60.3594,
      "duration": 0.0161,
      "velocity": 110,
      "chip": "ym2612"
    },
    {
      "channel": 3,
      "note": 70,
      "start": 60.3605,
      "duration": 0.0161,
      "velocity": 94,
      "chip": "ym2612"
    },
    {
      "channel": 2,
      "note": 56,
      "start": 60.3617,
      "duration": 0.0161,
      "velocity": 100,
      "chip": "ym2612"
    },
    {
      "channel": 1,
      "note": 68,
      "start": 60.3629,
      "duration": 0.0161,
      "velocity": 94,
      "chip": "ym2612"
    },
    {
      "channel": 0,
      "note": 39,
      "start": 60.3731,
      "duration": 0.0161,
      "velocity": 115,
      "chip": "ym2612"
    },
    {
      "channel": 5,
      "note": 75,
      "start": 60.3743,
      "duration": 0.0162,
      "velocity": 110,
      "chip": "ym2612"
    },
    {
      "channel": 4,
      "note": 71,
      "start": 60.3755,
      "duration": 0.0161,
      "velocity": 110,
      "chip": "ym2612"
    },
    {
      "channel": 3,
      "note": 70,
      "start": 60.3766,
      "duration": 0.0161,
      "velocity": 94,
      "chip": "ym2612"
    },
    {
      "channel": 2,
      "note": 56,
      "start": 60.3778,
      "duration": 0.0161,
      "velocity": 100,
      "chip": "ym2612"
    },
    {
      "channel": 1,
      "note": 68,
      "start": 60.379,
      "duration": 0.0161,
      "velocity": 94,
      "chip": "ym2612"
    },
    {
      "channel": 0,
      "note": 39,
      "start": 60.3892,
      "duration": 0.0161,
      "velocity": 115,
      "chip": "ym2612"
    },
    {
      "channel": 3,
      "note": 70,
      "start": 60.3928,
      "duration": 0.0161,
      "velocity": 94,
      "chip": "ym2612"
    },
    {
      "channel": 2,
      "note": 56,
      "start": 60.3939,
      "duration": 0.0161,
      "velocity": 100,
      "chip": "ym2612"
    },
    {
      "channel": 1,
      "note": 68,
      "start": 60.3951,
      "duration": 0.016,
      "velocity": 94,
      "chip": "ym2612"
    },
    {
      "channel": 0,
      "note": 40,
      "start": 60.4053,
      "duration": 0.0161,
      "velocity": 115,
      "chip": "ym2612"
    },
    {
      "channel": 3,
      "note": 70,
      "start": 60.4089,
      "duration": 0.0161,
      "velocity": 94,
      "chip": "ym2612"
    },
    {
      "channel": 2,
      "note": 56,
      "start": 60.41,
      "duration": 0.0161,
      "velocity": 100,
      "chip": "ym2612"
    },
    {
      "channel": 1,
      "note": 68,
      "start": 60.4112,
      "duration": 0.0161,
      "velocity": 94,
      "chip": "ym2612"
    },
    {
      "channel": 0,
      "note": 40,
      "start": 60.4214,
      "duration": 0.0161,
      "velocity": 115,
      "chip": "ym2612"
    },
    {
      "channel": 3,
      "note": 70,
      "start": 60.425,
      "duration": 0.0161,
      "velocity": 94,
      "chip": "ym2612"
    },
    {
      "channel": 2,
      "note": 56,
      "start": 60.4261,
      "duration": 0.0161,
      "velocity": 100,
      "chip": "ym2612"
    },
    {
      "channel": 1,
      "note": 68,
      "start": 60.4273,
      "duration": 0.0161,
      "velocity": 94,
      "chip": "ym2612"
    },
    {
      "channel": 0,
      "note": 40,
      "start": 60.4375,
      "duration": 0.0162,
      "velocity": 115,
      "chip": "ym2612"
    },
    {
      "channel": 3,
      "note": 70,
      "start": 60.4411,
      "duration": 0.0161,
      "velocity": 94,
      "chip": "ym2612"
    },
    {
      "channel": 2,
      "note": 56,
      "start": 60.4422,
      "duration": 0.0162,
      "velocity": 100,
      "chip": "ym2612"
    },
    {
      "channel": 1,
      "note": 68,
      "start": 60.4434,
      "duration": 0.0161,
      "velocity": 94,
      "chip": "ym2612"
    },
    {
      "channel": 0,
      "note": 41,
      "start": 60.4537,
      "duration": 0.0163,
      "velocity": 115,
      "chip": "ym2612"
    },
    {
      "channel": 3,
      "note": 70,
      "start": 60.4572,
      "duration": 0.0163,
      "velocity": 94,
      "chip": "ym2612"
    },
    {
      "channel": 2,
      "note": 56,
      "start": 60.4584,
      "duration": 0.0163,
      "velocity": 100,
      "chip": "ym2612"
    },
    {
      "channel": 1,
      "note": 68,
      "start": 60.4595,
      "duration": 0.0164,
      "velocity": 94,
      "chip": "ym2612"
    },
    {
      "channel": 0,
      "note": 41,
      "start": 60.4701,
      "duration": 0.0163,
      "velocity": 115,
      "chip": "ym2612"
    },
    {
      "channel": 3,
      "note": 70,
      "start": 60.4736,
      "duration": 0.0174,
      "velocity": 94,
      "chip": "ym2612"
    },
    {
      "channel": 2,
      "note": 56,
      "start": 60.4747,
      "duration": 0.0173,
      "velocity": 100,
      "chip": "ym2612"
    },
    {
      "channel": 1,
      "note": 68,
      "start": 60.4759,
      "duration": 0.0173,
      "velocity": 94,
      "chip": "ym2612"
    },
    {
      "channel": 0,
      "note": 42,
      "start": 60.4864,
      "duration": 0.0161,
      "velocity": 115,
      "chip": "ym2612"
    },
    {
      "channel": 5,
      "note": 71,
      "start": 60.4881,
      "duration": 0.0157,
      "velocity": 110,
      "chip": "ym2612"
    },
    {
      "channel": 4,
      "note": 75,
      "start": 60.4898,
      "duration": 0.0153,
      "velocity": 110,
      "chip": "ym2612"
    },
    {
      "channel": 3,
      "note": 70,
      "start": 60.491,
      "duration": 0.0153,
      "velocity": 94,
      "chip": "ym2612"
    },
    {
      "channel": 2,
      "note": 56,
      "start": 60.4921,
      "duration": 0.0153,
      "velocity": 100,
      "chip": "ym2612"
    },
    {
      "channel": 1,
      "note": 68,
      "start": 60.4932,
      "duration": 0.0153,
      "velocity": 94,
      "chip": "ym2612"
    },
    {
      "channel": 0,
      "note": 42,
      "start": 60.5025,
      "duration": 0.016,
      "velocity": 115,
      "chip": "ym2612"
    },
    {
      "channel": 5,
      "note": 71,
      "start": 60.5038,
      "duration": 0.016,
      "velocity": 110,
      "chip": "ym2612"
    },
    {
      "channel": 4,
      "note": 75,
      "start": 60.505,
      "duration": 0.016,
      "velocity": 110,
      "chip": "ym2612"
    },
    {
      "channel": 3,
      "note": 70,
      "start": 60.5062,
      "duration": 0.016,
      "velocity": 94,
      "chip": "ym2612"
    },
    {
      "channel": 2,
      "note": 56,
      "start": 60.5074,
      "duration": 0.016,
      "velocity": 100,
      "chip": "ym2612"
    },
    {
      "channel": 1,
      "note": 68,
      "start": 60.5085,
      "duration": 0.016,
      "velocity": 94,
      "chip": "ym2612"
    },
    {
      "channel": 0,
      "note": 43,
      "start": 60.5185,
      "duration": 0.0162,
      "velocity": 115,
      "chip": "ym2612"
    },
    {
      "channel": 5,
      "note": 71,
      "start": 60.5198,
      "duration": 0.0161,
      "velocity": 110,
      "chip": "ym2612"
    },
    {
      "channel": 4,
      "note": 75,
      "start": 60.521,
      "duration": 0.0162,
      "velocity": 110,
      "chip": "ym2612"
    },
    {
      "channel": 3,
      "note": 70,
      "start": 60.5222,
      "duration": 0.0161,
      "velocity": 94,
      "chip": "ym2612"
    },
    {
      "channel": 2,
      "note": 56,
      "start": 60.5233,
      "duration": 0.0161,
      "velocity": 100,
      "chip": "ym2612"
    },
    {
      "channel": 1,
      "note": 68,
      "start": 60.5245,
      "duration": 0.0162,
      "velocity": 94,
      "chip": "ym2612"
    },
    {
      "channel": 0,
      "note": 43,
      "start": 60.5347,
      "duration": 0.0155,
      "velocity": 115,
      "chip": "ym2612"
    },
    {
      "channel": 3,
      "note": 70,
      "start": 60.5383,
      "duration": 0.0161,
      "velocity": 94,
      "chip": "ym2612"
    },
    {
      "channel": 2,
      "note": 56,
      "start": 60.5394,
      "duration": 0.0161,
      "velocity": 100,
      "chip": "ym2612"
    },
    {
      "channel": 1,
      "note": 68,
      "start": 60.5406,
      "duration": 0.0161,
      "velocity": 94,
      "chip": "ym2612"
    },
    {
      "channel": 0,
      "note": 44,
      "start": 60.5502,
      "duration": 0.0161,
      "velocity": 115,
      "chip": "ym2612"
    },
    {
      "channel": 2,
      "note": 56,
      "start": 60.5556,
      "duration": 0.016,
      "velocity": 100,
      "chip": "ym2612"
    },
    {
      "channel": 1,
      "note": 68,
      "start": 60.5567,
      "duration": 0.016,
      "velocity": 94,
      "chip": "ym2612"
    },
    {
      "channel": 0,
      "note": 44,
      "start": 60.5663,
      "duration": 0.0185,
      "velocity": 115,
      "chip": "ym2612"
    },
    {
      "channel": 2,
      "note": 56,
      "start": 60.5716,
      "duration": 0.0188,
      "velocity": 100,
      "chip": "ym2612"
    },
    {
      "channel": 1,
      "note": 68,
      "start": 60.5728,
      "duration": 0.019,
      "velocity": 94,
      "chip": "ym2612"
    },
    {
      "channel": 0,
      "note": 36,
      "start": 60.5849,
      "duration": 0.0137,
      "velocity": 115,
      "chip": "ym2612"
    },
    {
      "channel": 5,
      "note": 71,
      "start": 60.5864,
      "duration": 0.0135,
      "velocity": 110,
      "chip": "ym2612"
    },
    {
      "channel": 4,
      "note": 75,
      "start": 60.5878,
      "duration": 0.0138,
      "velocity": 110,
      "chip": "ym2612"
    },
    {
      "channel": 2,
      "note": 56,
      "start": 60.5905,
      "duration": 0.0139,
      "velocity": 100,
      "chip": "ym2612"
    },
    {
      "channel": 1,
      "note": 68,
      "start": 60.5917,
      "duration": 0.0138,
      "velocity": 94,
      "chip": "ym2612"
    },
    {
      "channel": 0,
      "note": 36,
      "start": 60.5986,
      "duration": 0.0161,
      "velocity": 115,
      "chip": "ym2612"
    },
    {
      "channel": 5,
      "note": 71,
      "start": 60.5999,
      "duration": 0.016,
      "velocity": 110,
      "chip": "ym2612"
    },
    {
      "channel": 4,
      "note": 75,
      "start": 60.6016,
      "duration": 0.0153,
      "velocity": 110,
      "chip": "ym2612"
    },
    {
      "channel": 3,
      "note": 68,
      "start": 60.6032,
      "duration": 0.0156,
      "velocity": 94,
      "chip": "ym2612"
    },
    {
      "channel": 2,
      "note": 56,
      "start": 60.6044,
      "duration": 0.0156,
      "velocity": 100,
      "chip": "ym2612"
    },
    {
      "channel": 1,
      "note": 68,
      "start": 60.6055,
      "duration": 0.0157,
      "velocity": 94,
      "chip": "ym2612"
    },
    {
      "channel": 0,
      "note": 37,
      "start": 60.6147,
      "duration": 0.0161,
      "velocity": 115,
      "chip": "ym2612"
    },
    {
      "channel": 5,
      "note": 71,
      "start": 60.6158,
      "duration": 0.0161,
      "velocity": 110,
      "chip": "ym2612"
    },
    {
      "channel": 4,
      "note": 75,
      "start": 60.617,
      "duration": 0.0162,
      "velocity": 110,
      "chip": "ym2612"
    },
    {
      "channel": 3,
      "note": 68,
      "start": 60.6188,
      "duration": 0.016,
      "velocity": 94,
      "chip": "ym2612"
    },
    {
      "channel": 2,
      "note": 56,
      "start": 60.62,
      "duration": 0.0161,
      "velocity": 100,
      "chip": "ym2612"
    },
    {
      "channel": 1,
      "note": 68,
      "start": 60.6212,
      "duration": 0.016,
      "velocity": 94,
      "chip": "ym2612"
    },
    {
      "channel": 0,
      "note": 37,
      "start": 60.6308,
      "duration": 0.0161,
      "velocity": 115,
      "chip": "ym2612"
    },
    {
      "channel": 5,
      "note": 71,
      "start": 60.6319,
      "duration": 0.0161,
      "velocity": 110,
      "chip": "ym2612"
    },
    {
      "channel": 4,
      "note": 75,
      "start": 60.6331,
      "duration": 0.0161,
      "velocity": 110,
      "chip": "ym2612"
    },
    {
      "channel": 3,
      "note": 68,
      "start": 60.6349,
      "duration": 0.0156,
      "velocity": 94,
      "chip": "ym2612"
    },
    {
      "channel": 2,
      "note": 56,
      "start": 60.6361,
      "duration": 0.0161,
      "velocity": 100,
      "chip": "ym2612"
    },
    {
      "channel": 1,
      "note": 68,
      "start": 60.6372,
      "duration": 0.0162,
      "velocity": 94,
      "chip": "ym2612"
    },
    {
      "channel": 0,
      "note": 38,
      "start": 60.6469,
      "duration": 0.0161,
      "velocity": 115,
      "chip": "ym2612"
    },
    {
      "channel": 3,
      "note": 68,
      "start": 60.6504,
      "duration": 0.016,
      "velocity": 94,
      "chip": "ym2612"
    },
    {
      "channel": 2,
      "note": 56,
      "start": 60.6522,
      "duration": 0.016,
      "velocity": 100,
      "chip": "ym2612"
    },
    {
      "channel": 1,
      "note": 68,
      "start": 60.6534,
      "duration": 0.016,
      "velocity": 94,
      "chip": "ym2612"
    },
    {
      "channel": 0,
      "note": 38,
      "start": 60.663,
      "duration": 0.0161,
      "velocity": 115,
      "chip": "ym2612"
    },
    {
      "channel": 3,
      "note": 68,
      "start": 60.6665,
      "duration": 0.0161,
      "velocity": 94,
      "chip": "ym2612"
    },
    {
      "channel": 2,
      "note": 56,
      "start": 60.6682,
      "duration": 0.0155,
      "velocity": 100,
      "chip": "ym2612"
    },
    {
      "channel": 1,
      "note": 68,
      "start": 60.6694,
      "duration": 0.0161,
      "velocity": 94,
      "chip": "ym2612"
    },
    {
      "channel": 0,
      "note": 39,
      "start": 60.679,
      "duration": 0.0179,
      "velocity": 124,
      "chip": "ym2612"
    },
    {
      "channel": 3,
      "note": 68,
      "start": 60.6826,
      "duration": 0.0192,
      "velocity": 94,
      "chip": "ym2612"
    },
    {
      "channel": 2,
      "note": 56,
      "start": 60.6837,
      "duration": 0.0193,
      "velocity": 100,
      "chip": "ym2612"
    },
    {
      "channel": 1,
      "note": 68,
      "start": 60.6855,
      "duration": 0.0188,
      "velocity": 94,
      "chip": "ym2612"
    },
    {
      "channel": 0,
      "note": 84,
      "start": 60.697,
      "duration": 0.0143,
      "velocity": 124,
      "chip": "ym2612"
    },
    {
      "channel": 5,
      "note": 75,
      "start": 60.6985,
      "duration": 0.0141,
      "velocity": 110,
      "chip": "ym2612"
    },
    {
      "channel": 4,
      "note": 71,
      "start": 60.7,
      "duration": 0.0137,
      "velocity": 110,
      "chip": "ym2612"
    },
    {
      "channel": 3,
      "note": 68,
      "start": 60.7018,
      "duration": 0.0132,
      "velocity": 94,
      "chip": "ym2612"
    },
    {
      "channel": 2,
      "note": 56,
      "start": 60.703,
      "duration": 0.0132,
      "velocity": 100,
      "chip": "ym2612"
    },
    {
      "channel": 1,
      "note": 68,
      "start": 60.7042,
      "duration": 0.0133,
      "velocity": 94,
      "chip": "ym2612"
    },
    {
      "channel": 0,
      "note": 82,
      "start": 60.7113,
      "duration": 0.016,
      "velocity": 124,
      "chip": "ym2612"
    },
    {
      "channel": 5,
      "note": 75,
      "start": 60.7126,
      "duration": 0.016,
      "velocity": 110,
      "chip": "ym2612"
    },
    {
      "channel": 4,
      "note": 71,
      "start": 60.7138,
      "duration": 0.0159,
      "velocity": 110,
      "chip": "ym2612"
    },
    {
      "channel": 3,
      "note": 68,
      "start": 60.715,
      "duration": 0.0159,
      "velocity": 94,
      "chip": "ym2612"
    },
    {
      "channel": 2,
      "note": 56,
      "start": 60.7162,
      "duration": 0.0159,
      "velocity": 100,
      "chip": "ym2612"
    },
    {
      "channel": 1,
      "note": 68,
      "start": 60.7176,
      "duration": 0.0157,
      "velocity": 94,
      "chip": "ym2612"
    },
    {
      "channel": 0,
      "note": 80,
      "start": 60.7273,
      "duration": 0.0161,
      "velocity": 124,
      "chip": "ym2612"
    },
    {
      "channel": 5,
      "note": 75,
      "start": 60.7285,
      "duration": 0.0161,
      "velocity": 110,
      "chip": "ym2612"
    },
    {
      "channel": 4,
      "note": 71,
      "start": 60.7297,
      "duration": 0.0162,
      "velocity": 110,
      "chip": "ym2612"
    },
    {
      "channel": 3,
      "note": 68,
      "start": 60.7309,
      "duration": 0.0161,
      "velocity": 94,
      "chip": "ym2612"
    },
    {
      "channel": 2,
      "note": 56,
      "start": 60.7321,
      "duration": 0.0161,
      "velocity": 100,
      "chip": "ym2612"
    },
    {
      "channel": 1,
      "note": 68,
      "start": 60.7333,
      "duration": 0.0161,
      "velocity": 94,
      "chip": "ym2612"
    },
    {
      "channel": 0,
      "note": 77,
      "start": 60.7435,
      "duration": 0.0161,
      "velocity": 124,
      "chip": "ym2612"
    },
    {
      "channel": 3,
      "note": 68,
      "start": 60.7471,
      "duration": 0.016,
      "velocity": 94,
      "chip": "ym2612"
    },
    {
      "channel": 2,
      "note": 56,
      "start": 60.7482,
      "duration": 0.016,
      "velocity": 100,
      "chip": "ym2612"
    },
    {
      "channel": 1,
      "note": 68,
      "start": 60.7493,
      "duration": 0.0161,
      "velocity": 94,
      "chip": "ym2612"
    },
    {
      "channel": 0,
      "note": 75,
      "start": 60.7596,
      "duration": 0.0161,
      "velocity": 124,
      "chip": "ym2612"
    },
    {
      "channel": 3,
      "note": 68,
      "start": 60.7631,
      "duration": 0.0161,
      "velocity": 94,
      "chip": "ym2612"
    },
    {
      "channel": 2,
      "note": 56,
      "start": 60.7642,
      "duration": 0.0161,
      "velocity": 100,
      "chip": "ym2612"
    },
    {
      "channel": 1,
      "note": 68,
      "start": 60.7654,
      "duration": 0.0161,
      "velocity": 94,
      "chip": "ym2612"
    },
    {
      "channel": 0,
      "note": 72,
      "start": 60.7757,
      "duration": 0.0161,
      "velocity": 124,
      "chip": "ym2612"
    },
    {
      "channel": 3,
      "note": 68,
      "start": 60.7792,
      "duration": 0.0167,
      "velocity": 94,
      "chip": "ym2612"
    },
    {
      "channel": 2,
      "note": 56,
      "start": 60.7803,
      "duration": 0.0169,
      "velocity": 100,
      "chip": "ym2612"
    },
    {
      "channel": 1,
      "note": 68,
      "start": 60.7815,
      "duration": 0.0169,
      "velocity": 94,
      "chip": "ym2612"
    },
    {
      "channel": 0,
      "note": 70,
      "start": 60.7918,
      "duration": 0.0161,
      "velocity": 124,
      "chip": "ym2612"
    },
    {
      "channel": 5,
      "note": 75,
      "start": 60.7932,
      "duration": 0.0158,
      "velocity": 110,
      "chip": "ym2612"
    },
    {
      "channel": 4,
      "note": 71,
      "start": 60.7947,
      "duration": 0.0157,
      "velocity": 110,
      "chip": "ym2612"
    },
    {
      "channel": 3,
      "note": 68,
      "start": 60.7959,
      "duration": 0.0156,
      "velocity": 94,
      "chip": "ym2612"
    },
    {
      "channel": 2,
      "note": 56,
      "start": 60.7973,
      "duration": 0.0155,
      "velocity": 100,
      "chip": "ym2612"
    },
    {
      "channel": 1,
      "note": 68,
      "start": 60.7985,
      "duration": 0.0155,
      "velocity": 94,
      "chip": "ym2612"
    },
    {
      "channel": 0,
      "note": 68,
      "start": 60.8079,
      "duration": 0.0161,
      "velocity": 124,
      "chip": "ym2612"
    },
    {
      "channel": 5,
      "note": 75,
      "start": 60.8091,
      "duration": 0.016,
      "velocity": 110,
      "chip": "ym2612"
    },
    {
      "channel": 4,
      "note": 71,
      "start": 60.8104,
      "duration": 0.016,
      "velocity": 110,
      "chip": "ym2612"
    },
    {
      "channel": 3,
      "note": 68,
      "start": 60.8115,
      "duration": 0.016,
      "velocity": 94,
      "chip": "ym2612"
    },
    {
      "channel": 2,
      "note": 56,
      "start": 60.8128,
      "duration": 0.016,
      "velocity": 100,
      "chip": "ym2612"
    },
    {
      "channel": 1,
      "note": 68,
      "start": 60.8139,
      "duration": 0.016,
      "velocity": 94,
      "chip": "ym2612"
    },
    {
      "channel": 0,
      "note": 65,
      "start": 60.824,
      "duration": 0.0161,
      "velocity": 124,
      "chip": "ym2612"
    },
    {
      "channel": 5,
      "note": 75,
      "start": 60.8251,
      "duration": 0.0162,
      "velocity": 110,
      "chip": "ym2612"
    },
    {
      "channel": 4,
      "note": 71,
      "start": 60.8263,
      "duration": 0.0161,
      "velocity": 110,
      "chip": "ym2612"
    },
    {
      "channel": 3,
      "note": 68,
      "start": 60.8275,
      "duration": 0.0162,
      "velocity": 94,
      "chip": "ym2612"
    },
    {
      "channel": 2,
      "note": 56,
      "start": 60.8287,
      "duration": 0.0161,
      "velocity": 100,
      "chip": "ym2612"
    },
    {
      "channel": 1,
      "note": 68,
      "start": 60.8299,
      "duration": 0.0161,
      "velocity": 94,
      "chip": "ym2612"
    },
    {
      "channel": 0,
      "note": 63,
      "start": 60.8401,
      "duration": 0.0153,
      "velocity": 1,
      "chip": "ym2612"
    },
    {
      "channel": 5,
      "note": 75,
      "start": 60.8413,
      "duration": 0.0153,
      "velocity": 110,
      "chip": "ym2612"
    },
    {
      "channel": 4,
      "note": 71,
      "start": 60.8424,
      "duration": 0.0154,
      "velocity": 110,
      "chip": "ym2612"
    },
    {
      "channel": 3,
      "note": 68,
      "start": 60.8436,
      "duration": 0.0153,
      "velocity": 94,
      "chip": "ym2612"
    },
    {
      "channel": 2,
      "note": 56,
      "start": 60.8448,
      "duration": 0.0153,
      "velocity": 100,
      "chip": "ym2612"
    },
    {
      "channel": 1,
      "note": 68,
      "start": 60.846,
      "duration": 0.0153,
      "velocity": 94,
      "chip": "ym2612"
    },
    {
      "channel": 3,
      "note": 68,
      "start": 60.8589,
      "duration": 0.0152,
      "velocity": 94,
      "chip": "ym2612"
    },
    {
      "channel": 2,
      "note": 56,
      "start": 60.8602,
      "duration": 0.0152,
      "velocity": 100,
      "chip": "ym2612"
    },
    {
      "channel": 1,
      "note": 68,
      "start": 60.8613,
      "duration": 0.0152,
      "velocity": 94,
      "chip": "ym2612"
    },
    {
      "channel": 3,
      "note": 68,
      "start": 60.8741,
      "duration": 0.0161,
      "velocity": 94,
      "chip": "ym2612"
    },
    {
      "channel": 2,
      "note": 56,
      "start": 60.8754,
      "duration": 0.0161,
      "velocity": 100,
      "chip": "ym2612"
    },
    {
      "channel": 1,
      "note": 68,
      "start": 60.8765,
      "duration": 0.0161,
      "velocity": 94,
      "chip": "ym2612"
    },
    {
      "channel": 3,
      "note": 68,
      "start": 60.8902,
      "duration": 0.0204,
      "velocity": 94,
      "chip": "ym2612"
    },
    {
      "channel": 2,
      "note": 56,
      "start": 60.8915,
      "duration": 0.0206,
      "velocity": 100,
      "chip": "ym2612"
    },
    {
      "channel": 1,
      "note": 68,
      "start": 60.8926,
      "duration": 0.0206,
      "velocity": 94,
      "chip": "ym2612"
    },
    {
      "channel": 0,
      "note": 36,
      "start": 60.9063,
      "duration": 0.0144,
      "velocity": 115,
      "chip": "ym2612"
    },
    {
      "channel": 5,
      "note": 71,
      "start": 60.9079,
      "duration": 0.0141,
      "velocity": 110,
      "chip": "ym2612"
    },
    {
      "channel": 4,
      "note": 75,
      "start": 60.9095,
      "duration": 0.0137,
      "velocity": 110,
      "chip": "ym2612"
    },
    {
      "channel": 3,
      "note": 68,
      "start": 60.9106,
      "duration": 0.0137,
      "velocity": 94,
      "chip": "ym2612"
    },
    {
      "channel": 2,
      "note": 51,
      "start": 60.9121,
      "duration": 0.0135,
      "velocity": 100,
      "chip": "ym2612"
    },
    {
      "channel": 1,
      "note": 68,
      "start": 60.9132,
      "duration": 0.0135,
      "velocity": 94,
      "chip": "ym2612"
    },
    {
      "channel": 0,
      "note": 36,
      "start": 60.9207,
      "duration": 0.016,
      "velocity": 115,
      "chip": "ym2612"
    },
    {
      "channel": 5,
      "note": 71,
      "start": 60.9219,
      "duration": 0.016,
      "velocity": 110,
      "chip": "ym2612"
    },
    {
      "channel": 4,
      "note": 75,
      "start": 60.9232,
      "duration": 0.0159,
      "velocity": 110,
      "chip": "ym2612"
    },
    {
      "channel": 3,
      "note": 68,
      "start": 60.9244,
      "duration": 0.0159,
      "velocity": 94,
      "chip": "ym2612"
    },
    {
      "channel": 2,
      "note": 51,
      "start": 60.9256,
      "duration": 0.0159,
      "velocity": 100,
      "chip": "ym2612"
    },
    {
      "channel": 1,
      "note": 68,
      "start": 60.9268,
      "duration": 0.0159,
      "velocity": 94,
      "chip": "ym2612"
    },
    {
      "channel": 0,
      "note": 37,
      "start": 60.9368,
      "duration": 0.0164,
      "velocity": 115,
      "chip": "ym2612"
    },
    {
      "channel": 5,
      "note": 71,
      "start": 60.9379,
      "duration": 0.0164,
      "velocity": 110,
      "chip": "ym2612"
    },
    {
      "channel": 4,
      "note": 75,
      "start": 60.9391,
      "duration": 0.0164,
      "velocity": 110,
      "chip": "ym2612"
    },
    {
      "channel": 3,
      "note": 68,
      "start": 60.9402,
      "duration": 0.0164,
      "velocity": 94,
      "chip": "ym2612"
    },
    {
      "channel": 2,
      "note": 51,
      "start": 60.9414,
      "duration": 0.0164,
      "velocity": 100,
      "chip": "ym2612"
    },
    {
      "channel": 1,
      "note": 68,
      "start": 60.9426,
      "duration": 0.0164,
      "velocity": 94,
      "chip": "ym2612"
    },
    {
      "channel": 0,
      "note": 37,
      "start": 60.9532,
      "duration": 0.0163,
      "velocity": 115,
      "chip": "ym2612"
    },
    {
      "channel": 5,
      "note": 71,
      "start": 60.9543,
      "duration": 0.0163,
      "velocity": 110,
      "chip": "ym2612"
    },
    {
      "channel": 4,
      "note": 75,
      "start": 60.9555,
      "duration": 0.0163,
      "velocity": 110,
      "chip": "ym2612"
    },
    {
      "channel": 3,
      "note": 68,
      "start": 60.9567,
      "duration": 0.0163,
      "velocity": 94,
      "chip": "ym2612"
    },
    {
      "channel": 2,
      "note": 51,
      "start": 60.9578,
      "duration": 0.0163,
      "velocity": 100,
      "chip": "ym2612"
    },
    {
      "channel": 1,
      "note": 68,
      "start": 60.959,
      "duration": 0.0163,
      "velocity": 94,
      "chip": "ym2612"
    },
    {
      "channel": 0,
      "note": 38,
      "start": 60.9695,
      "duration": 0.0161,
      "velocity": 115,
      "chip": "ym2612"
    },
    {
      "channel": 5,
      "note": 71,
      "start": 60.9707,
      "duration": 0.0161,
      "velocity": 110,
      "chip": "ym2612"
    },
    {
      "channel": 4,
      "note": 75,
      "start": 60.9718,
      "duration": 0.0161,
      "velocity": 110,
      "chip": "ym2612"
    },
    {
      "channel": 3,
      "note": 68,
      "start": 60.973,
      "duration": 0.0161,
      "velocity": 94,
      "chip": "ym2612"
    },
    {
      "channel": 2,
      "note": 51,
      "start": 60.9741,
      "duration": 0.0161,
      "velocity": 100,
      "chip": "ym2612"
    },
    {
      "channel": 1,
      "note": 68,
      "start": 60.9754,
      "duration": 0.0161,
      "velocity": 94,
      "chip": "ym2612"
    },
    {
      "channel": 0,
      "note": 38,
      "start": 60.9856,
      "duration": 0.0179,
      "velocity": 115,
      "chip": "ym2612"
    },
    {
      "channel": 5,
      "note": 71,
      "start": 60.9868,
      "duration": 0.0179,
      "velocity": 110,
      "chip": "ym2612"
    },
    {
      "channel": 4,
      "note": 75,
      "start": 60.9879,
      "duration": 0.018,
      "velocity": 110,
      "chip": "ym2612"
    },
    {
      "channel": 3,
      "note": 68,
      "start": 60.9891,
      "duration": 0.0179,
      "velocity": 94,
      "chip": "ym2612"
    },
    {
      "channel": 2,
      "note": 51,
      "start": 60.9902,
      "duration": 0.0182,
      "velocity": 100,
      "chip": "ym2612"
    },
    {
      "channel": 1,
      "note": 68,
      "start": 60.9915,
      "duration": 0.0182,
      "velocity": 94,
      "chip": "ym2612"
    },
    {
      "channel": 0,
      "note": 36,
      "start": 61.0035,
      "duration": 0.0139,
      "velocity": 115,
      "chip": "ym2612"
    },
    {
      "channel": 5,
      "note": 71,
      "start": 61.0047,
      "duration": 0.0143,
      "velocity": 110,
      "chip": "ym2612"
    },
    {
      "channel": 4,
      "note": 75,
      "start": 61.0059,
      "duration": 0.0143,
      "velocity": 110,
      "chip": "ym2612"
    },
    {
      "channel": 3,
      "note": 68,
      "start": 61.0071,
      "duration": 0.0144,
      "velocity": 94,
      "chip": "ym2612"
    },
    {
      "channel": 2,
      "note": 54,
      "start": 61.0085,
      "duration": 0.0141,
      "velocity": 100,
      "chip": "ym2612"
    },
    {
      "channel": 1,
      "note": 68,
      "start": 61.0097,
      "duration": 0.0141,
      "velocity": 94,
      "chip": "ym2612"
    },
    {
      "channel": 0,
      "note": 36,
      "start": 61.0175,
      "duration": 0.0158,
      "velocity": 115,
      "chip": "ym2612"
    },
    {
      "channel": 3,
      "note": 68,
      "start": 61.0214,
      "duration": 0.016,
      "velocity": 94,
      "chip": "ym2612"
    },
    {
      "channel": 2,
      "note": 54,
      "start": 61.0226,
      "duration": 0.0159,
      "velocity": 100,
      "chip": "ym2612"
    },
    {
      "channel": 1,
      "note": 68,
      "start": 61.0238,
      "duration": 0.016,
      "velocity": 94,
      "chip": "ym2612"
    },
    {
      "channel": 0,
      "note": 37,
      "start": 61.0333,
      "duration": 0.0161,
      "velocity": 115,
      "chip": "ym2612"
    },
    {
      "channel": 3,
      "note": 68,
      "start": 61.0374,
      "duration": 0.0161,
      "velocity": 94,
      "chip": "ym2612"
    },
    {
      "channel": 2,
      "note": 54,
      "start": 61.0385,
      "duration": 0.0161,
      "velocity": 100,
      "chip": "ym2612"
    },
    {
      "channel": 1,
      "note": 68,
      "start": 61.0398,
      "duration": 0.0161,
      "velocity": 94,
      "chip": "ym2612"
    },
    {
      "channel": 0,
      "note": 37,
      "start": 61.0494,
      "duration": 0.0161,
      "velocity": 115,
      "chip": "ym2612"
    },
    {
      "channel": 3,
      "note": 68,
      "start": 61.0535,
      "duration": 0.0161,
      "velocity": 94,
      "chip": "ym2612"
    },
    {
      "channel": 2,
      "note": 54,
      "start": 61.0546,
      "duration": 0.0161,
      "velocity": 100,
      "chip": "ym2612"
    },
    {
      "channel": 1,
      "note": 68,
      "start": 61.0558,
      "duration": 0.0161,
      "velocity": 94,
      "chip": "ym2612"
    },
    {
      "channel": 0,
      "note": 38,
      "start": 61.0655,
      "duration": 0.0161,
      "velocity": 115,
      "chip": "ym2612"
    },
    {
      "channel": 3,
      "note": 68,
      "start": 61.0696,
      "duration": 0.0161,
      "velocity": 94,
      "chip": "ym2612"
    },
    {
      "channel": 2,
      "note": 54,
      "start": 61.0707,
      "duration": 0.0161,
      "velocity": 100,
      "chip": "ym2612"
    },
    {
      "channel": 1,
      "note": 68,
      "start": 61.0719,
      "duration": 0.0161,
      "velocity": 94,
      "chip": "ym2612"
    },
    {
      "channel": 0,
      "note": 38,
      "start": 61.0816,
      "duration": 0.0161,
      "velocity": 115,
      "chip": "ym2612"
    },
    {
      "channel": 3,
      "note": 68,
      "start": 61.0857,
      "duration": 0.016,
      "velocity": 94,
      "chip": "ym2612"
    },
    {
      "channel": 2,
      "note": 54,
      "start": 61.0868,
      "duration": 0.0161,
      "velocity": 100,
      "chip": "ym2612"
    },
    {
      "channel": 1,
      "note": 68,
      "start": 61.088,
      "duration": 0.0161,
      "velocity": 94,
      "chip": "ym2612"
    },
    {
      "channel": 0,
      "note": 39,
      "start": 61.0977,
      "duration": 0.0179,
      "velocity": 115,
      "chip": "ym2612"
    },
    {
      "channel": 3,
      "note": 68,
      "start": 61.1017,
      "duration": 0.0188,
      "velocity": 94,
      "chip": "ym2612"
    },
    {
      "channel": 2,
      "note": 54,
      "start": 61.1029,
      "duration": 0.019,
      "velocity": 100,
      "chip": "ym2612"
    },
    {
      "channel": 1,
      "note": 68,
      "start": 61.1042,
      "duration": 0.0189,
      "velocity": 94,
      "chip": "ym2612"
    },
    {
      "channel": 0,
      "note": 36,
      "start": 61.1156,
      "duration": 0.0143,
      "velocity": 115,
      "chip": "ym2612"
    },
    {
      "channel": 5,
      "note": 75,
      "start": 61.1173,
      "duration": 0.0139,
      "velocity": 110,
      "chip": "ym2612"
    },
    {
      "channel": 4,
      "note": 71,
      "start": 61.1193,
      "duration": 0.0132,
      "velocity": 110,
      "chip": "ym2612"
    },
    {
      "channel": 3,
      "note": 68,
      "start": 61.1205,
      "duration": 0.0132,
      "velocity": 94,
      "chip": "ym2612"
    },
    {
      "channel": 2,
      "note": 56,
      "start": 61.1219,
      "duration": 0.0135,
      "velocity": 100,
      "chip": "ym2612"
    },
    {
      "channel": 1,
      "note": 68,
      "start": 61.1231,
      "duration": 0.0135,
      "velocity": 94,
      "chip": "ym2612"
    },
    {
      "channel": 0,
      "note": 36,
      "start": 61.13,
      "duration": 0.016,
      "velocity": 115,
      "chip": "ym2612"
    },
    {
      "channel": 5,
      "note": 75,
      "start": 61.1312,
      "duration": 0.016,
      "velocity": 110,
      "chip": "ym2612"
    },
    {
      "channel": 4,
      "note": 71,
      "start": 61.1324,
      "duration": 0.0159,
      "velocity": 110,
      "chip": "ym2612"
    },
    {
      "channel": 3,
      "note": 68,
      "start": 61.1336,
      "duration": 0.0159,
      "velocity": 94,
      "chip": "ym2612"
    },
    {
      "channel": 2,
      "note": 56,
      "start": 61.1354,
      "duration": 0.0155,
      "velocity": 100,
      "chip": "ym2612"
    },
    {
      "channel": 1,
      "note": 68,
      "start": 61.1366,
      "duration": 0.0159,
      "velocity": 94,
      "chip": "ym2612"
    },
    {
      "channel": 0,
      "note": 37,
      "start": 61.146,
      "duration": 0.0161,
      "velocity": 115,
      "chip": "ym2612"
    },
    {
      "channel": 5,
      "note": 75,
      "start": 61.1472,
      "duration": 0.0161,
      "velocity": 110,
      "chip": "ym2612"
    },
    {
      "channel": 4,
      "note": 71,
      "start": 61.1483,
      "duration": 0.0161,
      "velocity": 110,
      "chip": "ym2612"
    },
    {
      "channel": 3,
      "note": 68,
      "start": 61.1495,
      "duration": 0.0161,
      "velocity": 94,
      "chip": "ym2612"
    },
    {
      "channel": 2,
      "note": 56,
      "start": 61.1509,
      "duration": 0.0159,
      "velocity": 100,
      "chip": "ym2612"
    },
    {
      "channel": 1,
      "note": 68,
      "start": 61.1525,
      "duration": 0.016,
      "velocity": 94,
      "chip": "ym2612"
    },
    {
      "channel": 0,
      "note": 37,
      "start": 61.1621,
      "duration": 0.0161,
      "velocity": 115,
      "chip": "ym2612"
    },
    {
      "channel": 5,
      "note": 75,
      "start": 61.1633,
      "duration": 0.0161,
      "velocity": 110,
      "chip": "ym2612"
    },
    {
      "channel": 4,
      "note": 71,
      "start": 61.1644,
      "duration": 0.0161,
      "velocity": 110,
      "chip": "ym2612"
    },
    {
      "channel": 3,
      "note": 68,
      "start": 61.1656,
      "duration": 0.0161,
      "velocity": 94,
      "chip": "ym2612"
    },
    {
      "channel": 2,
      "note": 56,
      "start": 61.1668,
      "duration": 0.0161,
      "velocity": 100,
      "chip": "ym2612"
    },
    {
      "channel": 1,
      "note": 68,
      "start": 61.1685,
      "duration": 0.0158,
      "velocity": 94,
      "chip": "ym2612"
    },
    {
      "channel": 0,
      "note": 38,
      "start": 61.1782,
      "duration": 0.0162,
      "velocity": 115,
      "chip": "ym2612"
    },
    {
      "channel": 5,
      "note": 75,
      "start": 61.1794,
      "duration": 0.0161,
      "velocity": 110,
      "chip": "ym2612"
    },
    {
      "channel": 4,
      "note": 71,
      "start": 61.1805,
      "duration": 0.0161,
      "velocity": 110,
      "chip": "ym2612"
    },
    {
      "channel": 3,
      "note": 68,
      "start": 61.1817,
      "duration": 0.0161,
      "velocity": 94,
      "chip": "ym2612"
    },
    {
      "channel": 2,
      "note": 56,
      "start": 61.1829,
      "duration": 0.0161,
      "velocity": 100,
      "chip": "ym2612"
    },
    {
      "channel": 1,
      "note": 68,
      "start": 61.1843,
      "duration": 0.0159,
      "velocity": 94,
      "chip": "ym2612"
    },
    {
      "channel": 0,
      "note": 38,
      "start": 61.1943,
      "duration": 0.0179,
      "velocity": 127,
      "chip": "ym2612"
    },
    {
      "channel": 5,
      "note": 75,
      "start": 61.1955,
      "duration": 0.0179,
      "velocity": 110,
      "chip": "ym2612"
    },
    {
      "channel": 4,
      "note": 71,
      "start": 61.1966,
      "duration": 0.018,
      "velocity": 110,
      "chip": "ym2612"
    },
    {
      "channel": 3,
      "note": 68,
      "start": 61.1978,
      "duration": 0.0179,
      "velocity": 94,
      "chip": "ym2612"
    },
    {
      "channel": 2,
      "note": 56,
      "start": 61.199,
      "duration": 0.0185,
      "velocity": 100,
      "chip": "ym2612"
    },
    {
      "channel": 1,
      "note": 68,
      "start": 61.2002,
      "duration": 0.0188,
      "velocity": 94,
      "chip": "ym2612"
    },
    {
      "channel": 0,
      "note": 88,
      "start": 61.2123,
      "duration": 0.0143,
      "velocity": 127,
      "chip": "ym2612"
    },
    {
      "channel": 5,
      "note": 75,
      "start": 61.2134,
      "duration": 0.0143,
      "velocity": 110,
      "chip": "ym2612"
    },
    {
      "channel": 4,
      "note": 71,
      "start": 61.2146,
      "duration": 0.0143,
      "velocity": 110,
      "chip": "ym2612"
    },
    {
      "channel": 3,
      "note": 68,
      "start": 61.2158,
      "duration": 0.0144,
      "velocity": 94,
      "chip": "ym2612"
    },
    {
      "channel": 2,
      "note": 68,
      "start": 61.2174,
      "duration": 0.0139,
      "velocity": 100,
      "chip": "ym2612"
    },
    {
      "channel": 1,
      "note": 68,
      "start": 61.219,
      "duration": 0.0135,
      "velocity": 94,
      "chip": "ym2612"
    },
    {
      "channel": 0,
      "note": 86,
      "start": 61.2266,
      "duration": 0.016,
      "velocity": 127,
      "chip": "ym2612"
    },
    {
      "channel": 3,
      "note": 68,
      "start": 61.2301,
      "duration": 0.016,
      "velocity": 94,
      "chip": "ym2612"
    },
    {
      "channel": 2,
      "note": 68,
      "start": 61.2313,
      "duration": 0.016,
      "velocity": 100,
      "chip": "ym2612"
    },
    {
      "channel": 1,
      "note": 68,
      "start": 61.2325,
      "duration": 0.016,
      "velocity": 94,
      "chip": "ym2612"
    },
    {
      "channel": 0,
      "note": 85,
      "start": 61.2426,
      "duration": 0.0161,
      "velocity": 127,
      "chip": "ym2612"
    },
    {
      "channel": 3,
      "note": 68,
      "start": 61.2461,
      "duration": 0.0161,
      "velocity": 94,
      "chip": "ym2612"
    },
    {
      "channel": 2,
      "note": 68,
      "start": 61.2473,
      "duration": 0.0161,
      "velocity": 100,
      "chip": "ym2612"
    },
    {
      "channel": 1,
      "note": 68,
      "start": 61.2485,
      "duration": 0.0161,
      "velocity": 94,
      "chip": "ym2612"
    },
    {
      "channel": 0,
      "note": 83,
      "start": 61.2587,
      "duration": 0.0161,
      "velocity": 127,
      "chip": "ym2612"
    },
    {
      "channel": 3,
      "note": 68,
      "start": 61.2622,
      "duration": 0.0161,
      "velocity": 94,
      "chip": "ym2612"
    },
    {
      "channel": 2,
      "note": 68,
      "start": 61.2634,
      "duration": 0.0161,
      "velocity": 100,
      "chip": "ym2612"
    },
    {
      "channel": 1,
      "note": 68,
      "start": 61.2646,
      "duration": 0.0161,
      "velocity": 94,
      "chip": "ym2612"
    },
    {
      "channel": 0,
      "note": 81,
      "start": 61.2748,
      "duration": 0.0161,
      "velocity": 127,
      "chip": "ym2612"
    },
    {
      "channel": 3,
      "note": 68,
      "start": 61.2783,
      "duration": 0.0161,
      "velocity": 94,
      "chip": "ym2612"
    },
    {
      "channel": 2,
      "note": 68,
      "start": 61.2795,
      "duration": 0.0161,
      "velocity": 100,
      "chip": "ym2612"
    },
    {
      "channel": 1,
      "note": 68,
      "start": 61.2807,
      "duration": 0.0161,
      "velocity": 94,
      "chip": "ym2612"
    },
    {
      "channel": 0,
      "note": 80,
      "start": 61.2909,
      "duration": 0.0161,
      "velocity": 127,
      "chip": "ym2612"
    },
    {
      "channel": 3,
      "note": 68,
      "start": 61.2944,
      "duration": 0.0161,
      "velocity": 94,
      "chip": "ym2612"
    },
    {
      "channel": 2,
      "note": 68,
      "start": 61.2956,
      "duration": 0.0161,
      "velocity": 100,
      "chip": "ym2612"
    },
    {
      "channel": 1,
      "note": 68,
      "start": 61.2968,
      "duration": 0.016,
      "velocity": 94,
      "chip": "ym2612"
    },
    {
      "channel": 0,
      "note": 78,
      "start": 61.307,
      "duration": 0.0161,
      "velocity": 127,
      "chip": "ym2612"
    },
    {
      "channel": 3,
      "note": 68,
      "start": 61.3105,
      "duration": 0.0168,
      "velocity": 94,
      "chip": "ym2612"
    },
    {
      "channel": 2,
      "note": 68,
      "start": 61.3117,
      "duration": 0.0172,
      "velocity": 100,
      "chip": "ym2612"
    },
    {
      "channel": 1,
      "note": 68,
      "start": 61.3128,
      "duration": 0.0172,
      "velocity": 94,
      "chip": "ym2612"
    },
    {
      "channel": 0,
      "note": 76,
      "start": 61.3231,
      "duration": 0.0161,
      "velocity": 127,
      "chip": "ym2612"
    },
    {
      "channel": 5,
      "note": 71,
      "start": 61.3247,
      "duration": 0.0158,
      "velocity": 110,
      "chip": "ym2612"
    },
    {
      "channel": 4,
      "note": 75,
      "start": 61.3263,
      "duration": 0.0154,
      "velocity": 110,
      "chip": "ym2612"
    },
    {
      "channel": 3,
      "note": 68,
      "start": 61.3274,
      "duration": 0.0155,
      "velocity": 94,
      "chip": "ym2612"
    },
    {
      "channel": 2,
      "note": 56,
      "start": 61.3289,
      "duration": 0.0152,
      "velocity": 100,
      "chip": "ym2612"
    },
    {
      "channel": 1,
      "note": 68,
      "start": 61.3301,
      "duration": 0.0151,
      "velocity": 94,
      "chip": "ym2612"
    },
    {
      "channel": 0,
      "note": 75,
      "start": 61.3392,
      "duration": 0.0161,
      "velocity": 127,
      "chip": "ym2612"
    },
    {
      "channel": 5,
      "note": 71,
      "start": 61.3405,
      "duration": 0.016,
      "velocity": 110,
      "chip": "ym2612"
    },
    {
      "channel": 4,
      "note": 75,
      "start": 61.3417,
      "duration": 0.016,
      "velocity": 110,
      "chip": "ym2612"
    },
    {
      "channel": 3,
      "note": 68,
      "start": 61.3429,
      "duration": 0.016,
      "velocity": 94,
      "chip": "ym2612"
    },
    {
      "channel": 2,
      "note": 56,
      "start": 61.3441,
      "duration": 0.0159,
      "velocity": 100,
      "chip": "ym2612"
    },
    {
      "channel": 1,
      "note": 68,
      "start": 61.3452,
      "duration": 0.016,
      "velocity": 94,
      "chip": "ym2612"
    },
    {
      "channel": 0,
      "note": 73,
      "start": 61.3553,
      "duration": 0.0162,
      "velocity": 127,
      "chip": "ym2612"
    },
    {
      "channel": 5,
      "note": 71,
      "start": 61.3565,
      "duration": 0.0161,
      "velocity": 110,
      "chip": "ym2612"
    },
    {
      "channel": 4,
      "note": 75,
      "start": 61.3576,
      "duration": 0.0162,
      "velocity": 110,
      "chip": "ym2612"
    },
    {
      "channel": 3,
      "note": 68,
      "start": 61.3588,
      "duration": 0.0161,
      "velocity": 94,
      "chip": "ym2612"
    },
    {
      "channel": 2,
      "note": 56,
      "start": 61.36,
      "duration": 0.0161,
      "velocity": 100,
      "chip": "ym2612"
    },
    {
      "channel": 1,
      "note": 68,
      "start": 61.3612,
      "duration": 0.0161,
      "velocity": 94,
      "chip": "ym2612"
    },
    {
      "channel": 0,
      "note": 71,
      "start": 61.3714,
      "duration": 0.0161,
      "velocity": 127,
      "chip": "ym2612"
    },
    {
      "channel": 5,
      "note": 71,
      "start": 61.3726,
      "duration": 0.0161,
      "velocity": 110,
      "chip": "ym2612"
    },
    {
      "channel": 4,
      "note": 75,
      "start": 61.3738,
      "duration": 0.0161,
      "velocity": 110,
      "chip": "ym2612"
    },
    {
      "channel": 3,
      "note": 68,
      "start": 61.3749,
      "duration": 0.0161,
      "velocity": 94,
      "chip": "ym2612"
    },
    {
      "channel": 2,
      "note": 56,
      "start": 61.3761,
      "duration": 0.0161,
      "velocity": 100,
      "chip": "ym2612"
    },
    {
      "channel": 1,
      "note": 68,
      "start": 61.3773,
      "duration": 0.0161,
      "velocity": 94,
      "chip": "ym2612"
    },
    {
      "channel": 0,
      "note": 69,
      "start": 61.3875,
      "duration": 0.0162,
      "velocity": 127,
      "chip": "ym2612"
    },
    {
      "channel": 5,
      "note": 71,
      "start": 61.3887,
      "duration": 0.0162,
      "velocity": 110,
      "chip": "ym2612"
    },
    {
      "channel": 4,
      "note": 75,
      "start": 61.3899,
      "duration": 0.0162,
      "velocity": 110,
      "chip": "ym2612"
    },
    {
      "channel": 3,
      "note": 68,
      "start": 61.391,
      "duration": 0.0161,
      "velocity": 94,
      "chip": "ym2612"
    },
    {
      "channel": 2,
      "note": 56,
      "start": 61.3922,
      "duration": 0.0162,
      "velocity": 100,
      "chip": "ym2612"
    },
    {
      "channel": 1,
      "note": 68,
      "start": 61.3934,
      "duration": 0.0161,
      "velocity": 94,
      "chip": "ym2612"
    },
    {
      "channel": 0,
      "note": 68,
      "start": 61.4037,
      "duration": 0.0183,
      "velocity": 127,
      "chip": "ym2612"
    },
    {
      "channel": 5,
      "note": 71,
      "start": 61.4048,
      "duration": 0.0183,
      "velocity": 110,
      "chip": "ym2612"
    },
    {
      "channel": 4,
      "note": 75,
      "start": 61.406,
      "duration": 0.0183,
      "velocity": 110,
      "chip": "ym2612"
    },
    {
      "channel": 3,
      "note": 68,
      "start": 61.4072,
      "duration": 0.0183,
      "velocity": 94,
      "chip": "ym2612"
    },
    {
      "channel": 2,
      "note": 56,
      "start": 61.4084,
      "duration": 0.0185,
      "velocity": 100,
      "chip": "ym2612"
    },
    {
      "channel": 1,
      "note": 68,
      "start": 61.4095,
      "duration": 0.0186,
      "velocity": 94,
      "chip": "ym2612"
    },
    {
      "channel": 0,
      "note": 84,
      "start": 61.4219,
      "duration": 0.0145,
      "velocity": 127,
      "chip": "ym2612"
    },
    {
      "channel": 5,
      "note": 71,
      "start": 61.4231,
      "duration": 0.0144,
      "velocity": 110,
      "chip": "ym2612"
    },
    {
      "channel": 4,
      "note": 75,
      "start": 61.4243,
      "duration": 0.0145,
      "velocity": 110,
      "chip": "ym2612"
    },
    {
      "channel": 3,
      "note": 68,
      "start": 61.4255,
      "duration": 0.0145,
      "velocity": 94,
      "chip": "ym2612"
    },
    {
      "channel": 2,
      "note": 68,
      "start": 61.427,
      "duration": 0.0142,
      "velocity": 100,
      "chip": "ym2612"
    },
    {
      "channel": 1,
      "note": 68,
      "start": 61.4282,
      "duration": 0.0142,
      "velocity": 94,
      "chip": "ym2612"
    },
    {
      "channel": 0,
      "note": 82,
      "start": 61.4364,
      "duration": 0.0161,
      "velocity": 127,
      "chip": "ym2612"
    },
    {
      "channel": 3,
      "note": 68,
      "start": 61.44,
      "duration": 0.016,
      "velocity": 94,
      "chip": "ym2612"
    },
    {
      "channel": 2,
      "note": 68,
      "start": 61.4412,
      "duration": 0.016,
      "velocity": 100,
      "chip": "ym2612"
    },
    {
      "channel": 1,
      "note": 68,
      "start": 61.4424,
      "duration": 0.016,
      "velocity": 94,
      "chip": "ym2612"
    },
    {
      "channel": 0,
      "note": 81,
      "start": 61.4525,
      "duration": 0.016,
      "velocity": 127,
      "chip": "ym2612"
    },
    {
      "channel": 3,
      "note": 68,
      "start": 61.456,
      "duration": 0.0161,
      "velocity": 94,
      "chip": "ym2612"
    },
    {
      "channel": 2,
      "note": 68,
      "start": 61.4572,
      "duration": 0.0161,
      "velocity": 100,
      "chip": "ym2612"
    },
    {
      "channel": 1,
      "note": 68,
      "start": 61.4584,
      "duration": 0.0161,
      "velocity": 94,
      "chip": "ym2612"
    },
    {
      "channel": 0,
      "note": 79,
      "start": 61.4685,
      "duration": 0.0158,
      "velocity": 127,
      "chip": "ym2612"
    },
    {
      "channel": 3,
      "note": 68,
      "start": 61.4721,
      "duration": 0.0161,
      "velocity": 94,
      "chip": "ym2612"
    },
    {
      "channel": 2,
      "note": 68,
      "start": 61.4733,
      "duration": 0.0162,
      "velocity": 100,
      "chip": "ym2612"
    },
    {
      "channel": 1,
      "note": 68,
      "start": 61.4745,
      "duration": 0.0162,
      "velocity": 94,
      "chip": "ym2612"
    },
    {
      "channel": 0,
      "note": 77,
      "start": 61.4843,
      "duration": 0.0159,
      "velocity": 127,
      "chip": "ym2612"
    },
    {
      "channel": 3,
      "note": 68,
      "start": 61.4882,
      "duration": 0.0161,
      "velocity": 94,
      "chip": "ym2612"
    },
    {
      "channel": 2,
      "note": 68,
      "start": 61.4894,
      "duration": 0.0161,
      "velocity": 100,
      "chip": "ym2612"
    },
    {
      "channel": 1,
      "note": 68,
      "start": 61.4906,
      "duration": 0.016,
      "velocity": 94,
      "chip": "ym2612"
    },
    {
      "channel": 0,
      "note": 76,
      "start": 61.5002,
      "duration": 0.0161,
      "velocity": 127,
      "chip": "ym2612"
    },
    {
      "channel": 3,
      "note": 68,
      "start": 61.5043,
      "duration": 0.0161,
      "velocity": 94,
      "chip": "ym2612"
    },
    {
      "channel": 2,
      "note": 68,
      "start": 61.5055,
      "duration": 0.0161,
      "velocity": 100,
      "chip": "ym2612"
    },
    {
      "channel": 1,
      "note": 68,
      "start": 61.5067,
      "duration": 0.0161,
      "velocity": 94,
      "chip": "ym2612"
    },
    {
      "channel": 0,
      "note": 74,
      "start": 61.5163,
      "duration": 0.0185,
      "velocity": 127,
      "chip": "ym2612"
    },
    {
      "channel": 3,
      "note": 68,
      "start": 61.5204,
      "duration": 0.0188,
      "velocity": 94,
      "chip": "ym2612"
    },
    {
      "channel": 2,
      "note": 68,
      "start": 61.5216,
      "duration": 0.019,
      "velocity": 100,
      "chip": "ym2612"
    },
    {
      "channel": 1,
      "note": 68,
      "start": 61.5228,
      "duration": 0.019,
      "velocity": 94,
      "chip": "ym2612"
    },
    {
      "channel": 0,
      "note": 78,
      "start": 61.5349,
      "duration": 0.0137,
      "velocity": 127,
      "chip": "ym2612"
    },
    {
      "channel": 5,
      "note": 75,
      "start": 61.5364,
      "duration": 0.0134,
      "velocity": 110,
      "chip": "ym2612"
    },
    {
      "channel": 4,
      "note": 71,
      "start": 61.538,
      "duration": 0.0136,
      "velocity": 110,
      "chip": "ym2612"
    },
    {
      "channel": 3,
      "note": 68,
      "start": 61.5392,
      "duration": 0.0137,
      "velocity": 94,
      "chip": "ym2612"
    },
    {
      "channel": 2,
      "note": 51,
      "start": 61.5406,
      "duration": 0.0135,
      "velocity": 100,
      "chip": "ym2612"
    },
    {
      "channel": 1,
      "note": 68,
      "start": 61.5418,
      "duration": 0.0134,
      "velocity": 94,
      "chip": "ym2612"
    },
    {
      "channel": 0,
      "note": 76,
      "start": 61.5486,
      "duration": 0.016,
      "velocity": 127,
      "chip": "ym2612"
    },
    {
      "channel": 5,
      "note": 75,
      "start": 61.5498,
      "duration": 0.016,
      "velocity": 110,
      "chip": "ym2612"
    },
    {
      "channel": 4,
      "note": 71,
      "start": 61.5516,
      "duration": 0.0154,
      "velocity": 110,
      "chip": "ym2612"
    },
    {
      "channel": 3,
      "note": 68,
      "start": 61.5529,
      "duration": 0.0159,
      "velocity": 94,
      "chip": "ym2612"
    },
    {
      "channel": 2,
      "note": 51,
      "start": 61.5541,
      "duration": 0.0158,
      "velocity": 100,
      "chip": "ym2612"
    },
    {
      "channel": 1,
      "note": 68,
      "start": 61.5552,
      "duration": 0.0159,
      "velocity": 94,
      "chip": "ym2612"
    },
    {
      "channel": 0,
      "note": 75,
      "start": 61.5646,
      "duration": 0.0161,
      "velocity": 127,
      "chip": "ym2612"
    },
    {
      "channel": 5,
      "note": 75,
      "start": 61.5658,
      "duration": 0.0162,
      "velocity": 110,
      "chip": "ym2612"
    },
    {
      "channel": 4,
      "note": 71,
      "start": 61.567,
      "duration": 0.0161,
      "velocity": 110,
      "chip": "ym2612"
    },
    {
      "channel": 3,
      "note": 68,
      "start": 61.5688,
      "duration": 0.016,
      "velocity": 94,
      "chip": "ym2612"
    },
    {
      "channel": 2,
      "note": 51,
      "start": 61.5699,
      "duration": 0.0161,
      "velocity": 100,
      "chip": "ym2612"
    },
    {
      "channel": 1,
      "note": 68,
      "start": 61.5711,
      "duration": 0.0161,
      "velocity": 94,
      "chip": "ym2612"
    },
    {
      "channel": 0,
      "note": 73,
      "start": 61.5807,
      "duration": 0.0161,
      "velocity": 127,
      "chip": "ym2612"
    },
    {
      "channel": 5,
      "note": 75,
      "start": 61.5819,
      "duration": 0.0161,
      "velocity": 110,
      "chip": "ym2612"
    },
    {
      "channel": 4,
      "note": 71,
      "start": 61.5831,
      "duration": 0.0161,
      "velocity": 110,
      "chip": "ym2612"
    },
    {
      "channel": 3,
      "note": 68,
      "start": 61.5848,
      "duration": 0.0156,
      "velocity": 94,
      "chip": "ym2612"
    },
    {
      "channel": 2,
      "note": 51,
      "start": 61.586,
      "duration": 0.0161,
      "velocity": 100,
      "chip": "ym2612"
    },
    {
      "channel": 1,
      "note": 68,
      "start": 61.5872,
      "duration": 0.0161,
      "velocity": 94,
      "chip": "ym2612"
    },
    {
      "channel": 0,
      "note": 71,
      "start": 61.5968,
      "duration": 0.0161,
      "velocity": 127,
      "chip": "ym2612"
    },
    {
      "channel": 5,
      "note": 75,
      "start": 61.598,
      "duration": 0.0161,
      "velocity": 110,
      "chip": "ym2612"
    },
    {
      "channel": 4,
      "note": 71,
      "start": 61.5992,
      "duration": 0.0161,
      "velocity": 110,
      "chip": "ym2612"
    },
    {
      "channel": 3,
      "note": 68,
      "start": 61.6004,
      "duration": 0.0161,
      "velocity": 94,
      "chip": "ym2612"
    },
    {
      "channel": 2,
      "note": 51,
      "start": 61.6021,
      "duration": 0.0161,
      "velocity": 100,
      "chip": "ym2612"
    },
    {
      "channel": 1,
      "note": 68,
      "start": 61.6033,
      "duration": 0.0161,
      "velocity": 94,
      "chip": "ym2612"
    },
    {
      "channel": 0,
      "note": 70,
      "start": 61.6129,
      "duration": 0.0179,
      "velocity": 115,
      "chip": "ym2612"
    },
    {
      "channel": 5,
      "note": 75,
      "start": 61.6141,
      "duration": 0.0179,
      "velocity": 110,
      "chip": "ym2612"
    },
    {
      "channel": 4,
      "note": 71,
      "start": 61.6153,
      "duration": 0.018,
      "velocity": 110,
      "chip": "ym2612"
    },
    {
      "channel": 3,
      "note": 68,
      "start": 61.6165,
      "duration": 0.0185,
      "velocity": 94,
      "chip": "ym2612"
    },
    {
      "channel": 2,
      "note": 51,
      "start": 61.6182,
      "duration": 0.018,
      "velocity": 100,
      "chip": "ym2612"
    },
    {
      "channel": 1,
      "note": 68,
      "start": 61.6194,
      "duration": 0.0179,
      "velocity": 94,
      "chip": "ym2612"
    },
    {
      "channel": 0,
      "note": 36,
      "start": 61.6309,
      "duration": 0.0143,
      "velocity": 115,
      "chip": "ym2612"
    },
    {
      "channel": 5,
      "note": 75,
      "start": 61.632,
      "duration": 0.0143,
      "velocity": 110,
      "chip": "ym2612"
    },
    {
      "channel": 4,
      "note": 71,
      "start": 61.6333,
      "duration": 0.0143,
      "velocity": 110,
      "chip": "ym2612"
    },
    {
      "channel": 3,
      "note": 68,
      "start": 61.635,
      "duration": 0.0138,
      "velocity": 94,
      "chip": "ym2612"
    },
    {
      "channel": 2,
      "note": 51,
      "start": 61.6362,
      "duration": 0.0137,
      "velocity": 100,
      "chip": "ym2612"
    },
    {
      "channel": 1,
      "note": 68,
      "start": 61.6373,
      "duration": 0.0143,
      "velocity": 94,
      "chip": "ym2612"
    },
    {
      "channel": 0,
      "note": 36,
      "start": 61.6452,
      "duration": 0.016,
      "velocity": 115,
      "chip": "ym2612"
    },
    {
      "channel": 3,
      "note": 68,
      "start": 61.6488,
      "duration": 0.016,
      "velocity": 94,
      "chip": "ym2612"
    },
    {
      "channel": 2,
      "note": 51,
      "start": 61.6499,
      "duration": 0.016,
      "velocity": 100,
      "chip": "ym2612"
    },
    {
      "channel": 1,
      "note": 68,
      "start": 61.6516,
      "duration": 0.0155,
      "velocity": 94,
      "chip": "ym2612"
    },
    {
      "channel": 0,
      "note": 37,
      "start": 61.6612,
      "duration": 0.0161,
      "velocity": 115,
      "chip": "ym2612"
    },
    {
      "channel": 3,
      "note": 68,
      "start": 61.6647,
      "duration": 0.0161,
      "velocity": 94,
      "chip": "ym2612"
    },
    {
      "channel": 2,
      "note": 51,
      "start": 61.6659,
      "duration": 0.0161,
      "velocity": 100,
      "chip": "ym2612"
    },
    {
      "channel": 1,
      "note": 68,
      "start": 61.6671,
      "duration": 0.0162,
      "velocity": 94,
      "chip": "ym2612"
    },
    {
      "channel": 0,
      "note": 37,
      "start": 61.6773,
      "duration": 0.0161,
      "velocity": 115,
      "chip": "ym2612"
    },
    {
      "channel": 3,
      "note": 68,
      "start": 61.6808,
      "duration": 0.0161,
      "velocity": 94,
      "chip": "ym2612"
    },
    {
      "channel": 2,
      "note": 51,
      "start": 61.682,
      "duration": 0.0161,
      "velocity": 100,
      "chip": "ym2612"
    },
    {
      "channel": 1,
      "note": 68,
      "start": 61.6833,
      "duration": 0.016,
      "velocity": 94,
      "chip": "ym2612"
    },
    {
      "channel": 0,
      "note": 38,
      "start": 61.6934,
      "duration": 0.0161,
      "velocity": 115,
      "chip": "ym2612"
    },
    {
      "channel": 3,
      "note": 68,
      "start": 61.6969,
      "duration": 0.0161,
      "velocity": 94,
      "chip": "ym2612"
    },
    {
      "channel": 2,
      "note": 51,
      "start": 61.6981,
      "duration": 0.0161,
      "velocity": 100,
      "chip": "ym2612"
    },
    {
      "channel": 1,
      "note": 68,
      "start": 61.6993,
      "duration": 0.0161,
      "velocity": 94,
      "chip": "ym2612"
    },
    {
      "channel": 0,
      "note": 38,
      "start": 61.7095,
      "duration": 0.0161,
      "velocity": 115,
      "chip": "ym2612"
    },
    {
      "channel": 3,
      "note": 68,
      "start": 61.713,
      "duration": 0.0162,
      "velocity": 94,
      "chip": "ym2612"
    },
    {
      "channel": 2,
      "note": 51,
      "start": 61.7142,
      "duration": 0.0161,
      "velocity": 100,
      "chip": "ym2612"
    },
    {
      "channel": 1,
      "note": 68,
      "start": 61.7154,
      "duration": 0.0162,
      "velocity": 94,
      "chip": "ym2612"
    },
    {
      "channel": 0,
      "note": 39,
      "start": 61.7256,
      "duration": 0.0179,
      "velocity": 124,
      "chip": "ym2612"
    },
    {
      "channel": 3,
      "note": 68,
      "start": 61.7292,
      "duration": 0.0188,
      "velocity": 94,
      "chip": "ym2612"
    },
    {
      "channel": 2,
      "note": 51,
      "start": 61.7303,
      "duration": 0.019,
      "velocity": 100,
      "chip": "ym2612"
    },
    {
      "channel": 1,
      "note": 68,
      "start": 61.7315,
      "duration": 0.0193,
      "velocity": 94,
      "chip": "ym2612"
    },
    {
      "channel": 0,
      "note": 84,
      "start": 61.7436,
      "duration": 0.0142,
      "velocity": 124,
      "chip": "ym2612"
    },
    {
      "channel": 5,
      "note": 71,
      "start": 61.7451,
      "duration": 0.014,
      "velocity": 110,
      "chip": "ym2612"
    },
    {
      "channel": 4,
      "note": 75,
      "start": 61.7467,
      "duration": 0.0136,
      "velocity": 110,
      "chip": "ym2612"
    },
    {
      "channel": 3,
      "note": 68,
      "start": 61.748,
      "duration": 0.0136,
      "velocity": 94,
      "chip": "ym2612"
    },
    {
      "channel": 2,
      "note": 54,
      "start": 61.7494,
      "duration": 0.0134,
      "velocity": 100,
      "chip": "ym2612"
    },
    {
      "channel": 1,
      "note": 68,
      "start": 61.7508,
      "duration": 0.0131,
      "velocity": 94,
      "chip": "ym2612"
    },
    {
      "channel": 0,
      "note": 82,
      "start": 61.7579,
      "duration": 0.0161,
      "velocity": 124,
      "chip": "ym2612"
    },
    {
      "channel": 5,
      "note": 71,
      "start": 61.7591,
      "duration": 0.016,
      "velocity": 110,
      "chip": "ym2612"
    },
    {
      "channel": 4,
      "note": 75,
      "start": 61.7604,
      "duration": 0.0159,
      "velocity": 110,
      "chip": "ym2612"
    },
    {
      "channel": 3,
      "note": 68,
      "start": 61.7616,
      "duration": 0.0159,
      "velocity": 94,
      "chip": "ym2612"
    },
    {
      "channel": 2,
      "note": 54,
      "start": 61.7628,
      "duration": 0.0159,
      "velocity": 100,
      "chip": "ym2612"
    },
    {
      "channel": 1,
      "note": 68,
      "start": 61.7639,
      "duration": 0.0159,
      "velocity": 94,
      "chip": "ym2612"
    },
    {
      "channel": 0,
      "note": 80,
      "start": 61.774,
      "duration": 0.0161,
      "velocity": 124,
      "chip": "ym2612"
    },
    {
      "channel": 5,
      "note": 71,
      "start": 61.7751,
      "duration": 0.0161,
      "velocity": 110,
      "chip": "ym2612"
    },
    {
      "channel": 4,
      "note": 75,
      "start": 61.7763,
      "duration": 0.0161,
      "velocity": 110,
      "chip": "ym2612"
    },
    {
      "channel": 3,
      "note": 68,
      "start": 61.7775,
      "duration": 0.0161,
      "velocity": 94,
      "chip": "ym2612"
    },
    {
      "channel": 2,
      "note": 54,
      "start": 61.7786,
      "duration": 0.0161,
      "velocity": 100,
      "chip": "ym2612"
    },
    {
      "channel": 1,
      "note": 68,
      "start": 61.7798,
      "duration": 0.0161,
      "velocity": 94,
      "chip": "ym2612"
    },
    {
      "channel": 0,
      "note": 77,
      "start": 61.7901,
      "duration": 0.0161,
      "velocity": 124,
      "chip": "ym2612"
    },
    {
      "channel": 5,
      "note": 71,
      "start": 61.7912,
      "duration": 0.0161,
      "velocity": 110,
      "chip": "ym2612"
    },
    {
      "channel": 4,
      "note": 75,
      "start": 61.7924,
      "duration": 0.0161,
      "velocity": 110,
      "chip": "ym2612"
    },
    {
      "channel": 3,
      "note": 68,
      "start": 61.7936,
      "duration": 0.0162,
      "velocity": 94,
      "chip": "ym2612"
    },
    {
      "channel": 2,
      "note": 54,
      "start": 61.7948,
      "duration": 0.0161,
      "velocity": 100,
      "chip": "ym2612"
    },
    {
      "channel": 1,
      "note": 68,
      "start": 61.7959,
      "duration": 0.0161,
      "velocity": 94,
      "chip": "ym2612"
    },
    {
      "channel": 0,
      "note": 75,
      "start": 61.8061,
      "duration": 0.0161,
      "velocity": 124,
      "chip": "ym2612"
    },
    {
      "channel": 5,
      "note": 71,
      "start": 61.8073,
      "duration": 0.0161,
      "velocity": 110,
      "chip": "ym2612"
    },
    {
      "channel": 4,
      "note": 75,
      "start": 61.8085,
      "duration": 0.0161,
      "velocity": 110,
      "chip": "ym2612"
    },
    {
      "channel": 3,
      "note": 68,
      "start": 61.8097,
      "duration": 0.0161,
      "velocity": 94,
      "chip": "ym2612"
    },
    {
      "channel": 2,
      "note": 54,
      "start": 61.8109,
      "duration": 0.0161,
      "velocity": 100,
      "chip": "ym2612"
    },
    {
      "channel": 1,
      "note": 68,
      "start": 61.8121,
      "duration": 0.0161,
      "velocity": 94,
      "chip": "ym2612"
    },
    {
      "channel": 0,
      "note": 72,
      "start": 61.8222,
      "duration": 0.0179,
      "velocity": 124,
      "chip": "ym2612"
    },
    {
      "channel": 5,
      "note": 71,
      "start": 61.8234,
      "duration": 0.018,
      "velocity": 110,
      "chip": "ym2612"
    },
    {
      "channel": 4,
      "note": 75,
      "start": 61.8246,
      "duration": 0.0179,
      "velocity": 110,
      "chip": "ym2612"
    },
    {
      "channel": 3,
      "note": 68,
      "start": 61.8258,
      "duration": 0.0179,
      "velocity": 94,
      "chip": "ym2612"
    },
    {
      "channel": 2,
      "note": 54,
      "start": 61.827,
      "duration": 0.0179,
      "velocity": 100,
      "chip": "ym2612"
    },
    {
      "channel": 1,
      "note": 68,
      "start": 61.8282,
      "duration": 0.0179,
      "velocity": 94,
      "chip": "ym2612"
    },
    {
      "channel": 0,
      "note": 84,
      "start": 61.8402,
      "duration": 0.0143,
      "velocity": 124,
      "chip": "ym2612"
    },
    {
      "channel": 5,
      "note": 71,
      "start": 61.8414,
      "duration": 0.0142,
      "velocity": 110,
      "chip": "ym2612"
    },
    {
      "channel": 4,
      "note": 75,
      "start": 61.8425,
      "duration": 0.0143,
      "velocity": 110,
      "chip": "ym2612"
    },
    {
      "channel": 3,
      "note": 68,
      "start": 61.8437,
      "duration": 0.0143,
      "velocity": 94,
      "chip": "ym2612"
    },
    {
      "channel": 2,
      "note": 54,
      "start": 61.8449,
      "duration": 0.0143,
      "velocity": 100,
      "chip": "ym2612"
    },
    {
      "channel": 1,
      "note": 68,
      "start": 61.8461,
      "duration": 0.0143,
      "velocity": 94,
      "chip": "ym2612"
    },
    {
      "channel": 0,
      "note": 82,
      "start": 61.8545,
      "duration": 0.0161,
      "velocity": 124,
      "chip": "ym2612"
    },
    {
      "channel": 3,
      "note": 68,
      "start": 61.8581,
      "duration": 0.0161,
      "velocity": 94,
      "chip": "ym2612"
    },
    {
      "channel": 2,
      "note": 54,
      "start": 61.8592,
      "duration": 0.0161,
      "velocity": 100,
      "chip": "ym2612"
    },
    {
      "channel": 1,
      "note": 68,
      "start": 61.8604,
      "duration": 0.0162,
      "velocity": 94,
      "chip": "ym2612"
    },
    {
      "channel": 0,
      "note": 80,
      "start": 61.8706,
      "duration": 0.0162,
      "velocity": 124,
      "chip": "ym2612"
    },
    {
      "channel": 3,
      "note": 68,
      "start": 61.8741,
      "duration": 0.0161,
      "velocity": 94,
      "chip": "ym2612"
    },
    {
      "channel": 2,
      "note": 54,
      "start": 61.8753,
      "duration": 0.0161,
      "velocity": 100,
      "chip": "ym2612"
    },
    {
      "channel": 1,
      "note": 68,
      "start": 61.8766,
      "duration": 0.016,
      "velocity": 94,
      "chip": "ym2612"
    },
    {
      "channel": 0,
      "note": 77,
      "start": 61.8868,
      "duration": 0.0164,
      "velocity": 124,
      "chip": "ym2612"
    },
    {
      "channel": 3,
      "note": 68,
      "start": 61.8902,
      "duration": 0.0164,
      "velocity": 94,
      "chip": "ym2612"
    },
    {
      "channel": 2,
      "note": 54,
      "start": 61.8915,
      "duration": 0.0163,
      "velocity": 100,
      "chip": "ym2612"
    },
    {
      "channel": 1,
      "note": 68,
      "start": 61.8926,
      "duration": 0.0164,
      "velocity": 94,
      "chip": "ym2612"
    },
    {
      "channel": 0,
      "note": 75,
      "start": 61.9032,
      "duration": 0.0163,
      "velocity": 124,
      "chip": "ym2612"
    },
    {
      "channel": 3,
      "note": 68,
      "start": 61.9067,
      "duration": 0.0163,
      "velocity": 94,
      "chip": "ym2612"
    },
    {
      "channel": 2,
      "note": 54,
      "start": 61.9078,
      "duration": 0.0163,
      "velocity": 100,
      "chip": "ym2612"
    },
    {
      "channel": 1,
      "note": 68,
      "start": 61.909,
      "duration": 0.0163,
      "velocity": 94,
      "chip": "ym2612"
    },
    {
      "channel": 0,
      "note": 72,
      "start": 61.9195,
      "duration": 0.016,
      "velocity": 124,
      "chip": "ym2612"
    },
    {
      "channel": 3,
      "note": 68,
      "start": 61.9229,
      "duration": 0.0161,
      "velocity": 94,
      "chip": "ym2612"
    },
    {
      "channel": 2,
      "note": 54,
      "start": 61.9241,
      "duration": 0.0161,
      "velocity": 100,
      "chip": "ym2612"
    },
    {
      "channel": 1,
      "note": 68,
      "start": 61.9253,
      "duration": 0.0161,
      "velocity": 94,
      "chip": "ym2612"
    },
    {
      "channel": 0,
      "note": 70,
      "start": 61.9355,
      "duration": 0.0179,
      "velocity": 115,
      "chip": "ym2612"
    },
    {
      "channel": 3,
      "note": 68,
      "start": 61.939,
      "duration": 0.0187,
      "velocity": 94,
      "chip": "ym2612"
    },
    {
      "channel": 2,
      "note": 54,
      "start": 61.9402,
      "duration": 0.0189,
      "velocity": 100,
      "chip": "ym2612"
    },
    {
      "channel": 1,
      "note": 68,
      "start": 61.9414,
      "duration": 0.019,
      "velocity": 94,
      "chip": "ym2612"
    },
    {
      "channel": 0,
      "note": 36,
      "start": 61.9535,
      "duration": 0.0139,
      "velocity": 115,
      "chip": "ym2612"
    },
    {
      "channel": 5,
      "note": 75,
      "start": 61.955,
      "duration": 0.0141,
      "velocity": 110,
      "chip": "ym2612"
    },
    {
      "channel": 4,
      "note": 71,
      "start": 61.9565,
      "duration": 0.0137,
      "velocity": 110,
      "chip": "ym2612"
    },
    {
      "channel": 3,
      "note": 68,
      "start": 61.9578,
      "duration": 0.0137,
      "velocity": 94,
      "chip": "ym2612"
    },
    {
      "channel": 2,
      "note": 56,
      "start": 61.9591,
      "duration": 0.0136,
      "velocity": 100,
      "chip": "ym2612"
    },
    {
      "channel": 1,
      "note": 68,
      "start": 61.9604,
      "duration": 0.0135,
      "velocity": 94,
      "chip": "ym2612"
    },
    {
      "channel": 0,
      "note": 36,
      "start": 61.9674,
      "duration": 0.0159,
      "velocity": 115,
      "chip": "ym2612"
    },
    {
      "channel": 5,
      "note": 75,
      "start": 61.9691,
      "duration": 0.0159,
      "velocity": 110,
      "chip": "ym2612"
    },
    {
      "channel": 4,
      "note": 71,
      "start": 61.9703,
      "duration": 0.0159,
      "velocity": 110,
      "chip": "ym2612"
    },
    {
      "channel": 3,
      "note": 68,
      "start": 61.9715,
      "duration": 0.0159,
      "velocity": 94,
      "chip": "ym2612"
    },
    {
      "channel": 2,
      "note": 56,
      "start": 61.9727,
      "duration": 0.0158,
      "velocity": 100,
      "chip": "ym2612"
    },
    {
      "channel": 1,
      "note": 68,
      "start": 61.9738,
      "duration": 0.0159,
      "velocity": 94,
      "chip": "ym2612"
    },
    {
      "channel": 0,
      "note": 37,
      "start": 61.9833,
      "duration": 0.0161,
      "velocity": 115,
      "chip": "ym2612"
    },
    {
      "channel": 5,
      "note": 75,
      "start": 61.985,
      "duration": 0.0158,
      "velocity": 110,
      "chip": "ym2612"
    },
    {
      "channel": 4,
      "note": 71,
      "start": 61.9862,
      "duration": 0.0161,
      "velocity": 110,
      "chip": "ym2612"
    },
    {
      "channel": 3,
      "note": 68,
      "start": 61.9874,
      "duration": 0.0161,
      "velocity": 94,
      "chip": "ym2612"
    },
    {
      "channel": 2,
      "note": 56,
      "start": 61.9885,
      "duration": 0.0162,
      "velocity": 100,
      "chip": "ym2612"
    },
    {
      "channel": 1,
      "note": 68,
      "start": 61.9898,
      "duration": 0.0161,
      "velocity": 94,
      "chip": "ym2612"
    },
    {
      "channel": 0,
      "note": 37,
      "start": 61.9993,
      "duration": 0.0161,
      "velocity": 115,
      "chip": "ym2612"
    },
    {
      "channel": 5,
      "note": 75,
      "start": 62.0007,
      "duration": 0.0159,
      "velocity": 110,
      "chip": "ym2612"
    },
    {
      "channel": 4,
      "note": 71,
      "start": 62.0023,
      "duration": 0.016,
      "velocity": 110,
      "chip": "ym2612"
    },
    {
      "channel": 3,
      "note": 68,
      "start": 62.0035,
      "duration": 0.0161,
      "velocity": 94,
      "chip": "ym2612"
    },
    {
      "channel": 2,
      "note": 56,
      "start": 62.0047,
      "duration": 0.016,
      "velocity": 100,
      "chip": "ym2612"
    },
    {
      "channel": 1,
      "note": 68,
      "start": 62.0058,
      "duration": 0.0161,
      "velocity": 94,
      "chip": "ym2612"
    },
    {
      "channel": 0,
      "note": 38,
      "start": 62.0154,
      "duration": 0.0161,
      "velocity": 115,
      "chip": "ym2612"
    },
    {
      "channel": 5,
      "note": 75,
      "start": 62.0166,
      "duration": 0.0161,
      "velocity": 110,
      "chip": "ym2612"
    },
    {
      "channel": 4,
      "note": 71,
      "start": 62.0183,
      "duration": 0.0159,
      "velocity": 110,
      "chip": "ym2612"
    },
    {
      "channel": 3,
      "note": 68,
      "start": 62.0196,
      "duration": 0.0161,
      "velocity": 94,
      "chip": "ym2612"
    },
    {
      "channel": 2,
      "note": 56,
      "start": 62.0207,
      "duration": 0.0161,
      "velocity": 100,
      "chip": "ym2612"
    },
    {
      "channel": 1,
      "note": 68,
      "start": 62.0219,
      "duration": 0.0161,
      "velocity": 94,
      "chip": "ym2612"
    },
    {
      "channel": 0,
      "note": 38,
      "start": 62.0315,
      "duration": 0.0161,
      "velocity": 115,
      "chip": "ym2612"
    },
    {
      "channel": 5,
      "note": 75,
      "start": 62.0327,
      "duration": 0.0161,
      "velocity": 110,
      "chip": "ym2612"
    },
    {
      "channel": 4,
      "note": 71,
      "start": 62.0341,
      "duration": 0.0158,
      "velocity": 110,
      "chip": "ym2612"
    },
    {
      "channel": 3,
      "note": 68,
      "start": 62.0357,
      "duration": 0.016,
      "velocity": 94,
      "chip": "ym2612"
    },
    {
      "channel": 2,
      "note": 56,
      "start": 62.0369,
      "duration": 0.016,
      "velocity": 100,
      "chip": "ym2612"
    },
    {
      "channel": 1,
      "note": 68,
      "start": 62.038,
      "duration": 0.0161,
      "velocity": 94,
      "chip": "ym2612"
    },
    {
      "channel": 0,
      "note": 39,
      "start": 62.0476,
      "duration": 0.0161,
      "velocity": 115,
      "chip": "ym2612"
    },
    {
      "channel": 5,
      "note": 75,
      "start": 62.0488,
      "duration": 0.0161,
      "velocity": 110,
      "chip": "ym2612"
    },
    {
      "channel": 4,
      "note": 71,
      "start": 62.05,
      "duration": 0.0162,
      "velocity": 110,
      "chip": "ym2612"
    },
    {
      "channel": 3,
      "note": 68,
      "start": 62.0517,
      "duration": 0.0159,
      "velocity": 94,
      "chip": "ym2612"
    },
    {
      "channel": 2,
      "note": 56,
      "start": 62.0529,
      "duration": 0.0162,
      "velocity": 100,
      "chip": "ym2612"
    },
    {
      "channel": 1,
      "note": 68,
      "start": 62.0541,
      "duration": 0.0161,
      "velocity": 94,
      "chip": "ym2612"
    },
    {
      "channel": 0,
      "note": 39,
      "start": 62.0637,
      "duration": 0.0162,
      "velocity": 115,
      "chip": "ym2612"
    },
    {
      "channel": 3,
      "note": 68,
      "start": 62.0676,
      "duration": 0.0158,
      "velocity": 94,
      "chip": "ym2612"
    },
    {
      "channel": 2,
      "note": 56,
      "start": 62.0691,
      "duration": 0.016,
      "velocity": 100,
      "chip": "ym2612"
    },
    {
      "channel": 1,
      "note": 68,
      "start": 62.0703,
      "duration": 0.0161,
      "velocity": 94,
      "chip": "ym2612"
    },
    {
      "channel": 0,
      "note": 40,
      "start": 62.0799,
      "duration": 0.0161,
      "velocity": 115,
      "chip": "ym2612"
    },
    {
      "channel": 3,
      "note": 68,
      "start": 62.0834,
      "duration": 0.0161,
      "velocity": 94,
      "chip": "ym2612"
    },
    {
      "channel": 2,
      "note": 56,
      "start": 62.0851,
      "duration": 0.0158,
      "velocity": 100,
      "chip": "ym2612"
    },
    {
      "channel": 1,
      "note": 68,
      "start": 62.0864,
      "duration": 0.0161,
      "velocity": 94,
      "chip": "ym2612"
    },
    {
      "channel": 0,
      "note": 40,
      "start": 62.096,
      "duration": 0.0161,
      "velocity": 115,
      "chip": "ym2612"
    },
    {
      "channel": 3,
      "note": 68,
      "start": 62.0995,
      "duration": 0.0161,
      "velocity": 94,
      "chip": "ym2612"
    },
    {
      "channel": 2,
      "note": 56,
      "start": 62.1009,
      "duration": 0.0159,
      "velocity": 100,
      "chip": "ym2612"
    },
    {
      "channel": 1,
      "note": 68,
      "start": 62.1025,
      "duration": 0.016,
      "velocity": 94,
      "chip": "ym2612"
    },
    {
      "channel": 0,
      "note": 40,
      "start": 62.1121,
      "duration": 0.0161,
      "velocity": 115,
      "chip": "ym2612"
    },
    {
      "channel": 3,
      "note": 68,
      "start": 62.1156,
      "duration": 0.0161,
      "velocity": 94,
      "chip": "ym2612"
    },
    {
      "channel": 2,
      "note": 56,
      "start": 62.1168,
      "duration": 0.0161,
      "velocity": 100,
      "chip": "ym2612"
    },
    {
      "channel": 0,
      "note": 41,
      "start": 62.1282,
      "duration": 0.0161,
      "velocity": 115,
      "chip": "ym2612"
    },
    {
      "channel": 3,
      "note": 68,
      "start": 62.1317,
      "duration": 0.0161,
      "velocity": 94,
      "chip": "ym2612"
    },
    {
      "channel": 2,
      "note": 56,
      "start": 62.1329,
      "duration": 0.0161,
      "velocity": 100,
      "chip": "ym2612"
    },
    {
      "channel": 0,
      "note": 41,
      "start": 62.1443,
      "duration": 0.0161,
      "velocity": 115,
      "chip": "ym2612"
    },
    {
      "channel": 3,
      "note": 68,
      "start": 62.1478,
      "duration": 0.0171,
      "velocity": 94,
      "chip": "ym2612"
    },
    {
      "channel": 2,
      "note": 56,
      "start": 62.149,
      "duration": 0.0171,
      "velocity": 100,
      "chip": "ym2612"
    },
    {
      "channel": 0,
      "note": 42,
      "start": 62.1604,
      "duration": 0.0161,
      "velocity": 115,
      "chip": "ym2612"
    },
    {
      "channel": 5,
      "note": 71,
      "start": 62.162,
      "duration": 0.0157,
      "velocity": 110,
      "chip": "ym2612"
    },
    {
      "channel": 4,
      "note": 75,
      "start": 62.1637,
      "duration": 0.0152,
      "velocity": 110,
      "chip": "ym2612"
    },
    {
      "channel": 3,
      "note": 68,
      "start": 62.1649,
      "duration": 0.0153,
      "velocity": 94,
      "chip": "ym2612"
    },
    {
      "channel": 2,
      "note": 56,
      "start": 62.1661,
      "duration": 0.0152,
      "velocity": 100,
      "chip": "ym2612"
    },
    {
      "channel": 0,
      "note": 42,
      "start": 62.1764,
      "duration": 0.0161,
      "velocity": 115,
      "chip": "ym2612"
    },
    {
      "channel": 5,
      "note": 71,
      "start": 62.1777,
      "duration": 0.016,
      "velocity": 110,
      "chip": "ym2612"
    },
    {
      "channel": 4,
      "note": 75,
      "start": 62.1789,
      "duration": 0.016,
      "velocity": 110,
      "chip": "ym2612"
    },
    {
      "channel": 3,
      "note": 68,
      "start": 62.1801,
      "duration": 0.016,
      "velocity": 94,
      "chip": "ym2612"
    },
    {
      "channel": 2,
      "note": 56,
      "start": 62.1813,
      "duration": 0.016,
      "velocity": 100,
      "chip": "ym2612"
    },
    {
      "channel": 0,
      "note": 43,
      "start": 62.1925,
      "duration": 0.0161,
      "velocity": 115,
      "chip": "ym2612"
    },
    {
      "channel": 5,
      "note": 71,
      "start": 62.1937,
      "duration": 0.0161,
      "velocity": 110,
      "chip": "ym2612"
    },
    {
      "channel": 4,
      "note": 75,
      "start": 62.1949,
      "duration": 0.0161,
      "velocity": 110,
      "chip": "ym2612"
    },
    {
      "channel": 3,
      "note": 68,
      "start": 62.1962,
      "duration": 0.016,
      "velocity": 94,
      "chip": "ym2612"
    },
    {
      "channel": 2,
      "note": 56,
      "start": 62.1973,
      "duration": 0.0161,
      "velocity": 100,
      "chip": "ym2612"
    },
    {
      "channel": 0,
      "note": 43,
      "start": 62.2086,
      "duration": 0.0161,
      "velocity": 115,
      "chip": "ym2612"
    },
    {
      "channel": 3,
      "note": 68,
      "start": 62.2122,
      "duration": 0.0161,
      "velocity": 94,
      "chip": "ym2612"
    },
    {
      "channel": 2,
      "note": 56,
      "start": 62.2134,
      "duration": 0.016,
      "velocity": 100,
      "chip": "ym2612"
    },
    {
      "channel": 0,
      "note": 44,
      "start": 62.2248,
      "duration": 0.0161,
      "velocity": 115,
      "chip": "ym2612"
    },
    {
      "channel": 3,
      "note": 68,
      "start": 62.2283,
      "duration": 0.0161,
      "velocity": 94,
      "chip": "ym2612"
    },
    {
      "channel": 2,
      "note": 56,
      "start": 62.2294,
      "duration": 0.0161,
      "velocity": 100,
      "chip": "ym2612"
    },
    {
      "channel": 0,
      "note": 44,
      "start": 62.2409,
      "duration": 0.0179,
      "velocity": 115,
      "chip": "ym2612"
    },
    {
      "channel": 3,
      "note": 68,
      "start": 62.2444,
      "duration": 0.0186,
      "velocity": 94,
      "chip": "ym2612"
    },
    {
      "channel": 2,
      "note": 56,
      "start": 62.2455,
      "duration": 0.0189,
      "velocity": 100,
      "chip": "ym2612"
    },
    {
      "channel": 0,
      "note": 36,
      "start": 62.2588,
      "duration": 0.0143,
      "velocity": 115,
      "chip": "ym2612"
    },
    {
      "channel": 5,
      "note": 71,
      "start": 62.2603,
      "duration": 0.0141,
      "velocity": 110,
      "chip": "ym2612"
    },
    {
      "channel": 4,
      "note": 75,
      "start": 62.2617,
      "duration": 0.0139,
      "velocity": 110,
      "chip": "ym2612"
    },
    {
      "channel": 3,
      "note": 68,
      "start": 62.263,
      "duration": 0.0138,
      "velocity": 94,
      "chip": "ym2612"
    },
    {
      "channel": 2,
      "note": 56,
      "start": 62.2644,
      "duration": 0.0136,
      "velocity": 100,
      "chip": "ym2612"
    },
    {
      "channel": 0,
      "note": 36,
      "start": 62.2731,
      "duration": 0.016,
      "velocity": 115,
      "chip": "ym2612"
    },
    {
      "channel": 5,
      "note": 71,
      "start": 62.2744,
      "duration": 0.016,
      "velocity": 110,
      "chip": "ym2612"
    },
    {
      "channel": 4,
      "note": 75,
      "start": 62.2756,
      "duration": 0.0159,
      "velocity": 110,
      "chip": "ym2612"
    },
    {
      "channel": 3,
      "note": 68,
      "start": 62.2768,
      "duration": 0.016,
      "velocity": 94,
      "chip": "ym2612"
    },
    {
      "channel": 2,
      "note": 56,
      "start": 62.278,
      "duration": 0.0159,
      "velocity": 100,
      "chip": "ym2612"
    },
    {
      "channel": 0,
      "note": 37,
      "start": 62.2892,
      "duration": 0.0161,
      "velocity": 115,
      "chip": "ym2612"
    },
    {
      "channel": 5,
      "note": 71,
      "start": 62.2903,
      "duration": 0.0161,
      "velocity": 110,
      "chip": "ym2612"
    },
    {
      "channel": 4,
      "note": 75,
      "start": 62.2915,
      "duration": 0.0161,
      "velocity": 110,
      "chip": "ym2612"
    },
    {
      "channel": 3,
      "note": 68,
      "start": 62.2927,
      "duration": 0.0161,
      "velocity": 94,
      "chip": "ym2612"
    },
    {
      "channel": 2,
      "note": 56,
      "start": 62.2939,
      "duration": 0.0161,
      "velocity": 100,
      "chip": "ym2612"
    },
    {
      "channel": 0,
      "note": 37,
      "start": 62.3053,
      "duration": 0.0161,
      "velocity": 115,
      "chip": "ym2612"
    },
    {
      "channel": 5,
      "note": 71,
      "start": 62.3065,
      "duration": 0.0161,
      "velocity": 110,
      "chip": "ym2612"
    },
    {
      "channel": 4,
      "note": 75,
      "start": 62.3076,
      "duration": 0.0161,
      "velocity": 110,
      "chip": "ym2612"
    },
    {
      "channel": 3,
      "note": 68,
      "start": 62.3088,
      "duration": 0.0161,
      "velocity": 94,
      "chip": "ym2612"
    },
    {
      "channel": 2,
      "note": 56,
      "start": 62.31,
      "duration": 0.0161,
      "velocity": 100,
      "chip": "ym2612"
    },
    {
      "channel": 0,
      "note": 38,
      "start": 62.3214,
      "duration": 0.0161,
      "velocity": 115,
      "chip": "ym2612"
    },
    {
      "channel": 3,
      "note": 68,
      "start": 62.3249,
      "duration": 0.0162,
      "velocity": 94,
      "chip": "ym2612"
    },
    {
      "channel": 2,
      "note": 56,
      "start": 62.3261,
      "duration": 0.0161,
      "velocity": 100,
      "chip": "ym2612"
    },
    {
      "channel": 0,
      "note": 38,
      "start": 62.3375,
      "duration": 0.0161,
      "velocity": 115,
      "chip": "ym2612"
    },
    {
      "channel": 3,
      "note": 68,
      "start": 62.3411,
      "duration": 0.0161,
      "velocity": 94,
      "chip": "ym2612"
    },
    {
      "channel": 2,
      "note": 56,
      "start": 62.3422,
      "duration": 0.0161,
      "velocity": 100,
      "chip": "ym2612"
    },
    {
      "channel": 0,
      "note": 39,
      "start": 62.3536,
      "duration": 0.0183,
      "velocity": 124,
      "chip": "ym2612"
    },
    {
      "channel": 3,
      "note": 68,
      "start": 62.3572,
      "duration": 0.019,
      "velocity": 94,
      "chip": "ym2612"
    },
    {
      "channel": 2,
      "note": 56,
      "start": 62.3583,
      "duration": 0.019,
      "velocity": 100,
      "chip": "ym2612"
    },
    {
      "channel": 0,
      "note": 84,
      "start": 62.3719,
      "duration": 0.0145,
      "velocity": 124,
      "chip": "ym2612"
    },
    {
      "channel": 5,
      "note": 75,
      "start": 62.3734,
      "duration": 0.0142,
      "velocity": 110,
      "chip": "ym2612"
    },
    {
      "channel": 4,
      "note": 71,
      "start": 62.3749,
      "duration": 0.014,
      "velocity": 110,
      "chip": "ym2612"
    },
    {
      "channel": 3,
      "note": 68,
      "start": 62.3761,
      "duration": 0.014,
      "velocity": 94,
      "chip": "ym2612"
    },
    {
      "channel": 2,
      "note": 56,
      "start": 62.3773,
      "duration": 0.014,
      "velocity": 100,
      "chip": "ym2612"
    },
    {
      "channel": 1,
      "note": 68,
      "start": 62.3788,
      "duration": 0.0137,
      "velocity": 94,
      "chip": "ym2612"
    },
    {
      "channel": 0,
      "note": 82,
      "start": 62.3864,
      "duration": 0.016,
      "velocity": 124,
      "chip": "ym2612"
    },
    {
      "channel": 5,
      "note": 75,
      "start": 62.3876,
      "duration": 0.016,
      "velocity": 110,
      "chip": "ym2612"
    },
    {
      "channel": 4,
      "note": 71,
      "start": 62.3889,
      "duration": 0.0159,
      "velocity": 110,
      "chip": "ym2612"
    },
    {
      "channel": 3,
      "note": 68,
      "start": 62.3901,
      "duration": 0.0159,
      "velocity": 94,
      "chip": "ym2612"
    },
    {
      "channel": 2,
      "note": 56,
      "start": 62.3913,
      "duration": 0.0159,
      "velocity": 100,
      "chip": "ym2612"
    },
    {
      "channel": 1,
      "note": 68,
      "start": 62.3925,
      "duration": 0.0159,
      "velocity": 94,
      "chip": "ym2612"
    },
    {
      "channel": 0,
      "note": 80,
      "start": 62.4025,
      "duration": 0.016,
      "velocity": 124,
      "chip": "ym2612"
    },
    {
      "channel": 5,
      "note": 75,
      "start": 62.4037,
      "duration": 0.0161,
      "velocity": 110,
      "chip": "ym2612"
    },
    {
      "channel": 4,
      "note": 71,
      "start": 62.4048,
      "duration": 0.0161,
      "velocity": 110,
      "chip": "ym2612"
    },
    {
      "channel": 3,
      "note": 68,
      "start": 62.406,
      "duration": 0.0161,
      "velocity": 94,
      "chip": "ym2612"
    },
    {
      "channel": 2,
      "note": 56,
      "start": 62.4072,
      "duration": 0.0161,
      "velocity": 100,
      "chip": "ym2612"
    },
    {
      "channel": 1,
      "note": 68,
      "start": 62.4084,
      "duration": 0.0161,
      "velocity": 94,
      "chip": "ym2612"
    },
    {
      "channel": 0,
      "note": 77,
      "start": 62.4185,
      "duration": 0.0158,
      "velocity": 124,
      "chip": "ym2612"
    },
    {
      "channel": 3,
      "note": 68,
      "start": 62.4221,
      "duration": 0.0161,
      "velocity": 94,
      "chip": "ym2612"
    },
    {
      "channel": 2,
      "note": 56,
      "start": 62.4233,
      "duration": 0.016,
      "velocity": 100,
      "chip": "ym2612"
    },
    {
      "channel": 1,
      "note": 68,
      "start": 62.4245,
      "duration": 0.0161,
      "velocity": 94,
      "chip": "ym2612"
    },
    {
      "channel": 0,
      "note": 75,
      "start": 62.4343,
      "duration": 0.0159,
      "velocity": 124,
      "chip": "ym2612"
    },
    {
      "channel": 2,
      "note": 56,
      "start": 62.4394,
      "duration": 0.0161,
      "velocity": 100,
      "chip": "ym2612"
    },
    {
      "channel": 1,
      "note": 68,
      "start": 62.4406,
      "duration": 0.016,
      "velocity": 94,
      "chip": "ym2612"
    },
    {
      "channel": 0,
      "note": 72,
      "start": 62.4502,
      "duration": 0.0161,
      "velocity": 124,
      "chip": "ym2612"
    },
    {
      "channel": 2,
      "note": 56,
      "start": 62.4555,
      "duration": 0.0169,
      "velocity": 100,
      "chip": "ym2612"
    },
    {
      "channel": 1,
      "note": 68,
      "start": 62.4566,
      "duration": 0.017,
      "velocity": 94,
      "chip": "ym2612"
    },
    {
      "channel": 0,
      "note": 70,
      "start": 62.4663,
      "duration": 0.0161,
      "velocity": 124,
      "chip": "ym2612"
    },
    {
      "channel": 5,
      "note": 75,
      "start": 62.4683,
      "duration": 0.0153,
      "velocity": 110,
      "chip": "ym2612"
    },
    {
      "channel": 4,
      "note": 71,
      "start": 62.4698,
      "duration": 0.0156,
      "velocity": 110,
      "chip": "ym2612"
    },
    {
      "channel": 2,
      "note": 56,
      "start": 62.4724,
      "duration": 0.0156,
      "velocity": 100,
      "chip": "ym2612"
    },
    {
      "channel": 1,
      "note": 68,
      "start": 62.4736,
      "duration": 0.0155,
      "velocity": 94,
      "chip": "ym2612"
    },
    {
      "channel": 0,
      "note": 68,
      "start": 62.4824,
      "duration": 0.0161,
      "velocity": 124,
      "chip": "ym2612"
    },
    {
      "channel": 5,
      "note": 75,
      "start": 62.4836,
      "duration": 0.016,
      "velocity": 110,
      "chip": "ym2612"
    },
    {
      "channel": 4,
      "note": 71,
      "start": 62.4854,
      "duration": 0.016,
      "velocity": 110,
      "chip": "ym2612"
    },
    {
      "channel": 2,
      "note": 56,
      "start": 62.488,
      "duration": 0.0159,
      "velocity": 100,
      "chip": "ym2612"
    },
    {
      "channel": 1,
      "note": 68,
      "start": 62.4891,
      "duration": 0.0159,
      "velocity": 94,
      "chip": "ym2612"
    },
    {
      "channel": 0,
      "note": 65,
      "start": 62.4985,
      "duration": 0.0161,
      "velocity": 124,
      "chip": "ym2612"
    },
    {
      "channel": 5,
      "note": 75,
      "start": 62.4997,
      "duration": 0.0161,
      "velocity": 110,
      "chip": "ym2612"
    },
    {
      "channel": 4,
      "note": 71,
      "start": 62.5014,
      "duration": 0.0155,
      "velocity": 110,
      "chip": "ym2612"
    },
    {
      "channel": 2,
      "note": 56,
      "start": 62.5039,
      "duration": 0.0161,
      "velocity": 100,
      "chip": "ym2612"
    },
    {
      "channel": 1,
      "note": 68,
      "start": 62.505,
      "duration": 0.0161,
      "velocity": 94,
      "chip": "ym2612"
    },
    {
      "channel": 0,
      "note": 63,
      "start": 62.5146,
      "duration": 0.0153,
      "velocity": 1,
      "chip": "ym2612"
    },
    {
      "channel": 5,
      "note": 75,
      "start": 62.5158,
      "duration": 0.0153,
      "velocity": 110,
      "chip": "ym2612"
    },
    {
      "channel": 4,
      "note": 71,
      "start": 62.5169,
      "duration": 0.0153,
      "velocity": 110,
      "chip": "ym2612"
    },
    {
      "channel": 2,
      "note": 56,
      "start": 62.52,
      "duration": 0.0153,
      "velocity": 100,
      "chip": "ym2612"
    },
    {
      "channel": 1,
      "note": 68,
      "start": 62.5211,
      "duration": 0.0153,
      "velocity": 94,
      "chip": "ym2612"
    },
    {
      "channel": 2,
      "note": 56,
      "start": 62.5352,
      "duration": 0.0146,
      "velocity": 100,
      "chip": "ym2612"
    },
    {
      "channel": 1,
      "note": 68,
      "start": 62.5364,
      "duration": 0.0151,
      "velocity": 94,
      "chip": "ym2612"
    },
    {
      "channel": 2,
      "note": 56,
      "start": 62.5499,
      "duration": 0.0161,
      "velocity": 100,
      "chip": "ym2612"
    },
    {
      "channel": 1,
      "note": 68,
      "start": 62.5516,
      "duration": 0.0158,
      "velocity": 94,
      "chip": "ym2612"
    },
    {
      "channel": 2,
      "note": 56,
      "start": 62.566,
      "duration": 0.0212,
      "velocity": 100,
      "chip": "ym2612"
    },
    {
      "channel": 1,
      "note": 68,
      "start": 62.5673,
      "duration": 0.0211,
      "velocity": 94,
      "chip": "ym2612"
    },
    {
      "channel": 0,
      "note": 36,
      "start": 62.5808,
      "duration": 0.0143,
      "velocity": 115,
      "chip": "ym2612"
    },
    {
      "channel": 5,
      "note": 71,
      "start": 62.5824,
      "duration": 0.0139,
      "velocity": 110,
      "chip": "ym2612"
    },
    {
      "channel": 4,
      "note": 75,
      "start": 62.5841,
      "duration": 0.0135,
      "velocity": 110,
      "chip": "ym2612"
    },
    {
      "channel": 2,
      "note": 51,
      "start": 62.5872,
      "duration": 0.0129,
      "velocity": 100,
      "chip": "ym2612"
    },
    {
      "channel": 1,
      "note": 68,
      "start": 62.5884,
      "duration": 0.0133,
      "velocity": 94,
      "chip": "ym2612"
    },
    {
      "channel": 0,
      "note": 36,
      "start": 62.5951,
      "duration": 0.016,
      "velocity": 115,
      "chip": "ym2612"
    },
    {
      "channel": 5,
      "note": 71,
      "start": 62.5963,
      "duration": 0.016,
      "velocity": 110,
      "chip": "ym2612"
    },
    {
      "channel": 4,
      "note": 75,
      "start": 62.5976,
      "duration": 0.0159,
      "velocity": 110,
      "chip": "ym2612"
    },
    {
      "channel": 2,
      "note": 51,
      "start": 62.6,
      "duration": 0.0159,
      "velocity": 100,
      "chip": "ym2612"
    },
    {
      "channel": 1,
      "note": 68,
      "start": 62.6017,
      "duration": 0.0153,
      "velocity": 94,
      "chip": "ym2612"
    },
    {
      "channel": 0,
      "note": 37,
      "start": 62.6112,
      "duration": 0.0161,
      "velocity": 115,
      "chip": "ym2612"
    },
    {
      "channel": 5,
      "note": 71,
      "start": 62.6124,
      "duration": 0.0161,
      "velocity": 110,
      "chip": "ym2612"
    },
    {
      "channel": 4,
      "note": 75,
      "start": 62.6135,
      "duration": 0.0161,
      "velocity": 110,
      "chip": "ym2612"
    },
    {
      "channel": 2,
      "note": 51,
      "start": 62.6159,
      "duration": 0.0161,
      "velocity": 100,
      "chip": "ym2612"
    },
    {
      "channel": 1,
      "note": 68,
      "start": 62.617,
      "duration": 0.0161,
      "velocity": 94,
      "chip": "ym2612"
    },
    {
      "channel": 0,
      "note": 37,
      "start": 62.6273,
      "duration": 0.0161,
      "velocity": 115,
      "chip": "ym2612"
    },
    {
      "channel": 5,
      "note": 71,
      "start": 62.6285,
      "duration": 0.0161,
      "velocity": 110,
      "chip": "ym2612"
    },
    {
      "channel": 4,
      "note": 75,
      "start": 62.6296,
      "duration": 0.0161,
      "velocity": 110,
      "chip": "ym2612"
    },
    {
      "channel": 2,
      "note": 51,
      "start": 62.632,
      "duration": 0.0162,
      "velocity": 100,
      "chip": "ym2612"
    },
    {
      "channel": 1,
      "note": 68,
      "start": 62.6331,
      "duration": 0.0161,
      "velocity": 94,
      "chip": "ym2612"
    },
    {
      "channel": 0,
      "note": 38,
      "start": 62.6434,
      "duration": 0.0161,
      "velocity": 115,
      "chip": "ym2612"
    },
    {
      "channel": 5,
      "note": 71,
      "start": 62.6446,
      "duration": 0.0161,
      "velocity": 110,
      "chip": "ym2612"
    },
    {
      "channel": 4,
      "note": 75,
      "start": 62.6457,
      "duration": 0.0161,
      "velocity": 110,
      "chip": "ym2612"
    },
    {
      "channel": 2,
      "note": 51,
      "start": 62.6481,
      "duration": 0.016,
      "velocity": 100,
      "chip": "ym2612"
    },
    {
      "channel": 1,
      "note": 68,
      "start": 62.6493,
      "duration": 0.0161,
      "velocity": 94,
      "chip": "ym2612"
    },
    {
      "channel": 0,
      "note": 38,
      "start": 62.6595,
      "duration": 0.0179,
      "velocity": 115,
      "chip": "ym2612"
    },
    {
      "channel": 5,
      "note": 71,
      "start": 62.6607,
      "duration": 0.0179,
      "velocity": 110,
      "chip": "ym2612"
    },
    {
      "channel": 4,
      "note": 75,
      "start": 62.6618,
      "duration": 0.018,
      "velocity": 110,
      "chip": "ym2612"
    },
    {
      "channel": 2,
      "note": 51,
      "start": 62.6642,
      "duration": 0.0182,
      "velocity": 100,
      "chip": "ym2612"
    },
    {
      "channel": 1,
      "note": 68,
      "start": 62.6654,
      "duration": 0.0183,
      "velocity": 94,
      "chip": "ym2612"
    },
    {
      "channel": 0,
      "note": 36,
      "start": 62.6775,
      "duration": 0.0143,
      "velocity": 115,
      "chip": "ym2612"
    },
    {
      "channel": 5,
      "note": 71,
      "start": 62.6786,
      "duration": 0.0143,
      "velocity": 110,
      "chip": "ym2612"
    },
    {
      "channel": 4,
      "note": 75,
      "start": 62.6798,
      "duration": 0.0143,
      "velocity": 110,
      "chip": "ym2612"
    },
    {
      "channel": 2,
      "note": 54,
      "start": 62.6824,
      "duration": 0.0144,
      "velocity": 100,
      "chip": "ym2612"
    },
    {
      "channel": 1,
      "note": 68,
      "start": 62.6836,
      "duration": 0.0144,
      "velocity": 94,
      "chip": "ym2612"
    },
    {
      "channel": 0,
      "note": 36,
      "start": 62.6918,
      "duration": 0.016,
      "velocity": 115,
      "chip": "ym2612"
    },
    {
      "channel": 3,
      "note": 68,
      "start": 62.6956,
      "duration": 0.0158,
      "velocity": 94,
      "chip": "ym2612"
    },
    {
      "channel": 2,
      "note": 54,
      "start": 62.6968,
      "duration": 0.0157,
      "velocity": 100,
      "chip": "ym2612"
    },
    {
      "channel": 1,
      "note": 68,
      "start": 62.698,
      "duration": 0.0157,
      "velocity": 94,
      "chip": "ym2612"
    },
    {
      "channel": 0,
      "note": 37,
      "start": 62.7078,
      "duration": 0.0161,
      "velocity": 115,
      "chip": "ym2612"
    },
    {
      "channel": 3,
      "note": 68,
      "start": 62.7114,
      "duration": 0.016,
      "velocity": 94,
      "chip": "ym2612"
    },
    {
      "channel": 2,
      "note": 54,
      "start": 62.7125,
      "duration": 0.016,
      "velocity": 100,
      "chip": "ym2612"
    },
    {
      "channel": 1,
      "note": 68,
      "start": 62.7137,
      "duration": 0.016,
      "velocity": 94,
      "chip": "ym2612"
    },
    {
      "channel": 0,
      "note": 37,
      "start": 62.7239,
      "duration": 0.0161,
      "velocity": 115,
      "chip": "ym2612"
    },
    {
      "channel": 3,
      "note": 68,
      "start": 62.7274,
      "duration": 0.0162,
      "velocity": 94,
      "chip": "ym2612"
    },
    {
      "channel": 2,
      "note": 54,
      "start": 62.7285,
      "duration": 0.0161,
      "velocity": 100,
      "chip": "ym2612"
    },
    {
      "channel": 1,
      "note": 68,
      "start": 62.7298,
      "duration": 0.0161,
      "velocity": 94,
      "chip": "ym2612"
    },
    {
      "channel": 0,
      "note": 38,
      "start": 62.74,
      "duration": 0.0161,
      "velocity": 115,
      "chip": "ym2612"
    },
    {
      "channel": 3,
      "note": 68,
      "start": 62.7436,
      "duration": 0.016,
      "velocity": 94,
      "chip": "ym2612"
    },
    {
      "channel": 2,
      "note": 54,
      "start": 62.7447,
      "duration": 0.016,
      "velocity": 100,
      "chip": "ym2612"
    },
    {
      "channel": 0,
      "note": 38,
      "start": 62.7561,
      "duration": 0.0161,
      "velocity": 115,
      "chip": "ym2612"
    },
    {
      "channel": 3,
      "note": 68,
      "start": 62.7596,
      "duration": 0.0161,
      "velocity": 94,
      "chip": "ym2612"
    },
    {
      "channel": 2,
      "note": 54,
      "start": 62.7607,
      "duration": 0.0162,
      "velocity": 100,
      "chip": "ym2612"
    },
    {
      "channel": 0,
      "note": 39,
      "start": 62.7722,
      "duration": 0.018,
      "velocity": 127,
      "chip": "ym2612"
    },
    {
      "channel": 3,
      "note": 68,
      "start": 62.7757,
      "duration": 0.0186,
      "velocity": 94,
      "chip": "ym2612"
    },
    {
      "channel": 2,
      "note": 54,
      "start": 62.7769,
      "duration": 0.0189,
      "velocity": 100,
      "chip": "ym2612"
    },
    {
      "channel": 0,
      "note": 88,
      "start": 62.7902,
      "duration": 0.0143,
      "velocity": 127,
      "chip": "ym2612"
    },
    {
      "channel": 5,
      "note": 75,
      "start": 62.7917,
      "duration": 0.014,
      "velocity": 110,
      "chip": "ym2612"
    },
    {
      "channel": 4,
      "note": 71,
      "start": 62.7932,
      "duration": 0.0137,
      "velocity": 110,
      "chip": "ym2612"
    },
    {
      "channel": 3,
      "note": 68,
      "start": 62.7944,
      "duration": 0.0137,
      "velocity": 94,
      "chip": "ym2612"
    },
    {
      "channel": 2,
      "note": 56,
      "start": 62.7958,
      "duration": 0.0136,
      "velocity": 100,
      "chip": "ym2612"
    },
    {
      "channel": 1,
      "note": 66,
      "start": 62.7973,
      "duration": 0.0133,
      "velocity": 94,
      "chip": "ym2612"
    },
    {
      "channel": 0,
      "note": 86,
      "start": 62.8044,
      "duration": 0.0161,
      "velocity": 127,
      "chip": "ym2612"
    },
    {
      "channel": 5,
      "note": 75,
      "start": 62.8057,
      "duration": 0.016,
      "velocity": 110,
      "chip": "ym2612"
    },
    {
      "channel": 4,
      "note": 71,
      "start": 62.8069,
      "duration": 0.016,
      "velocity": 110,
      "chip": "ym2612"
    },
    {
      "channel": 3,
      "note": 68,
      "start": 62.8081,
      "duration": 0.016,
      "velocity": 94,
      "chip": "ym2612"
    },
    {
      "channel": 2,
      "note": 56,
      "start": 62.8093,
      "duration": 0.0159,
      "velocity": 100,
      "chip": "ym2612"
    },
    {
      "channel": 1,
      "note": 66,
      "start": 62.8105,
      "duration": 0.0159,
      "velocity": 94,
      "chip": "ym2612"
    },
    {
      "channel": 0,
      "note": 85,
      "start": 62.8205,
      "duration": 0.0162,
      "velocity": 127,
      "chip": "ym2612"
    },
    {
      "channel": 5,
      "note": 75,
      "start": 62.8217,
      "duration": 0.0161,
      "velocity": 110,
      "chip": "ym2612"
    },
    {
      "channel": 4,
      "note": 71,
      "start": 62.8229,
      "duration": 0.0162,
      "velocity": 110,
      "chip": "ym2612"
    },
    {
      "channel": 3,
      "note": 68,
      "start": 62.8241,
      "duration": 0.0161,
      "velocity": 94,
      "chip": "ym2612"
    },
    {
      "channel": 2,
      "note": 56,
      "start": 62.8252,
      "duration": 0.0162,
      "velocity": 100,
      "chip": "ym2612"
    },
    {
      "channel": 1,
      "note": 66,
      "start": 62.8264,
      "duration": 0.0161,
      "velocity": 94,
      "chip": "ym2612"
    },
    {
      "channel": 0,
      "note": 83,
      "start": 62.8367,
      "duration": 0.0164,
      "velocity": 127,
      "chip": "ym2612"
    },
    {
      "channel": 5,
      "note": 75,
      "start": 62.8379,
      "duration": 0.0163,
      "velocity": 110,
      "chip": "ym2612"
    },
    {
      "channel": 4,
      "note": 71,
      "start": 62.839,
      "duration": 0.0164,
      "velocity": 110,
      "chip": "ym2612"
    },
    {
      "channel": 3,
      "note": 68,
      "start": 62.8402,
      "duration": 0.0163,
      "velocity": 94,
      "chip": "ym2612"
    },
    {
      "channel": 2,
      "note": 56,
      "start": 62.8414,
      "duration": 0.0163,
      "velocity": 100,
      "chip": "ym2612"
    },
    {
      "channel": 1,
      "note": 66,
      "start": 62.8425,
      "duration": 0.0164,
      "velocity": 94,
      "chip": "ym2612"
    },
    {
      "channel": 0,
      "note": 81,
      "start": 62.8531,
      "duration": 0.0163,
      "velocity": 127,
      "chip": "ym2612"
    },
    {
      "channel": 5,
      "note": 75,
      "start": 62.8542,
      "duration": 0.0163,
      "velocity": 110,
      "chip": "ym2612"
    },
    {
      "channel": 4,
      "note": 71,
      "start": 62.8555,
      "duration": 0.0163,
      "velocity": 110,
      "chip": "ym2612"
    },
    {
      "channel": 3,
      "note": 68,
      "start": 62.8566,
      "duration": 0.0163,
      "velocity": 94,
      "chip": "ym2612"
    },
    {
      "channel": 2,
      "note": 56,
      "start": 62.8578,
      "duration": 0.0163,
      "velocity": 100,
      "chip": "ym2612"
    },
    {
      "channel": 1,
      "note": 66,
      "start": 62.859,
      "duration": 0.0163,
      "velocity": 94,
      "chip": "ym2612"
    },
    {
      "channel": 0,
      "note": 80,
      "start": 62.8694,
      "duration": 0.0179,
      "velocity": 127,
      "chip": "ym2612"
    },
    {
      "channel": 5,
      "note": 75,
      "start": 62.8705,
      "duration": 0.018,
      "velocity": 110,
      "chip": "ym2612"
    },
    {
      "channel": 4,
      "note": 71,
      "start": 62.8717,
      "duration": 0.0179,
      "velocity": 110,
      "chip": "ym2612"
    },
    {
      "channel": 3,
      "note": 68,
      "start": 62.8729,
      "duration": 0.0179,
      "velocity": 94,
      "chip": "ym2612"
    },
    {
      "channel": 2,
      "note": 56,
      "start": 62.8741,
      "duration": 0.0181,
      "velocity": 100,
      "chip": "ym2612"
    },
    {
      "channel": 1,
      "note": 66,
      "start": 62.8752,
      "duration": 0.0183,
      "velocity": 94,
      "chip": "ym2612"
    },
    {
      "channel": 0,
      "note": 88,
      "start": 62.8873,
      "duration": 0.0143,
      "velocity": 127,
      "chip": "ym2612"
    },
    {
      "channel": 5,
      "note": 75,
      "start": 62.8885,
      "duration": 0.0144,
      "velocity": 110,
      "chip": "ym2612"
    },
    {
      "channel": 4,
      "note": 71,
      "start": 62.8897,
      "duration": 0.0144,
      "velocity": 110,
      "chip": "ym2612"
    },
    {
      "channel": 3,
      "note": 68,
      "start": 62.8908,
      "duration": 0.0144,
      "velocity": 94,
      "chip": "ym2612"
    },
    {
      "channel": 2,
      "note": 68,
      "start": 62.8923,
      "duration": 0.0141,
      "velocity": 100,
      "chip": "ym2612"
    },
    {
      "channel": 1,
      "note": 66,
      "start": 62.8935,
      "duration": 0.0141,
      "velocity": 94,
      "chip": "ym2612"
    },
    {
      "channel": 0,
      "note": 86,
      "start": 62.9016,
      "duration": 0.0155,
      "velocity": 127,
      "chip": "ym2612"
    },
    {
      "channel": 3,
      "note": 68,
      "start": 62.9052,
      "duration": 0.016,
      "velocity": 94,
      "chip": "ym2612"
    },
    {
      "channel": 2,
      "note": 68,
      "start": 62.9064,
      "duration": 0.016,
      "velocity": 100,
      "chip": "ym2612"
    },
    {
      "channel": 1,
      "note": 66,
      "start": 62.9076,
      "duration": 0.0159,
      "velocity": 94,
      "chip": "ym2612"
    },
    {
      "channel": 0,
      "note": 85,
      "start": 62.9171,
      "duration": 0.0161,
      "velocity": 127,
      "chip": "ym2612"
    },
    {
      "channel": 3,
      "note": 68,
      "start": 62.9212,
      "duration": 0.0161,
      "velocity": 94,
      "chip": "ym2612"
    },
    {
      "channel": 2,
      "note": 68,
      "start": 62.9224,
      "duration": 0.0161,
      "velocity": 100,
      "chip": "ym2612"
    },
    {
      "channel": 1,
      "note": 66,
      "start": 62.9235,
      "duration": 0.0161,
      "velocity": 94,
      "chip": "ym2612"
    },
    {
      "channel": 0,
      "note": 83,
      "start": 62.9332,
      "duration": 0.0161,
      "velocity": 127,
      "chip": "ym2612"
    },
    {
      "channel": 3,
      "note": 68,
      "start": 62.9373,
      "duration": 0.0161,
      "velocity": 94,
      "chip": "ym2612"
    },
    {
      "channel": 2,
      "note": 68,
      "start": 62.9385,
      "duration": 0.0161,
      "velocity": 100,
      "chip": "ym2612"
    },
    {
      "channel": 1,
      "note": 66,
      "start": 62.9396,
      "duration": 0.0161,
      "velocity": 94,
      "chip": "ym2612"
    },
    {
      "channel": 0,
      "note": 81,
      "start": 62.9493,
      "duration": 0.0161,
      "velocity": 127,
      "chip": "ym2612"
    },
    {
      "channel": 3,
      "note": 68,
      "start": 62.9534,
      "duration": 0.0161,
      "velocity": 94,
      "chip": "ym2612"
    },
    {
      "channel": 2,
      "note": 68,
      "start": 62.9546,
      "duration": 0.0161,
      "velocity": 100,
      "chip": "ym2612"
    },
    {
      "channel": 1,
      "note": 66,
      "start": 62.9557,
      "duration": 0.0161,
      "velocity": 94,
      "chip": "ym2612"
    },
    {
      "channel": 0,
      "note": 80,
      "start": 62.9654,
      "duration": 0.0162,
      "velocity": 127,
      "chip": "ym2612"
    },
    {
      "channel": 3,
      "note": 68,
      "start": 62.9695,
      "duration": 0.0161,
      "velocity": 94,
      "chip": "ym2612"
    },
    {
      "channel": 2,
      "note": 68,
      "start": 62.9707,
      "duration": 0.0162,
      "velocity": 100,
      "chip": "ym2612"
    },
    {
      "channel": 1,
      "note": 66,
      "start": 62.9718,
      "duration": 0.0161,
      "velocity": 94,
      "chip": "ym2612"
    },
    {
      "channel": 0,
      "note": 78,
      "start": 62.9815,
      "duration": 0.0161,
      "velocity": 127,
      "chip": "ym2612"
    },
    {
      "channel": 3,
      "note": 68,
      "start": 62.9856,
      "duration": 0.0169,
      "velocity": 94,
      "chip": "ym2612"
    },
    {
      "channel": 2,
      "note": 68,
      "start": 62.9868,
      "duration": 0.0171,
      "velocity": 100,
      "chip": "ym2612"
    },
    {
      "channel": 1,
      "note": 66,
      "start": 62.988,
      "duration": 0.0172,
      "velocity": 94,
      "chip": "ym2612"
    },
    {
      "channel": 0,
      "note": 76,
      "start": 62.9976,
      "duration": 0.0161,
      "velocity": 127,
      "chip": "ym2612"
    },
    {
      "channel": 5,
      "note": 71,
      "start": 62.9992,
      "duration": 0.0158,
      "velocity": 110,
      "chip": "ym2612"
    },
    {
      "channel": 4,
      "note": 75,
      "start": 63.0009,
      "duration": 0.0153,
      "velocity": 110,
      "chip": "ym2612"
    },
    {
      "channel": 3,
      "note": 68,
      "start": 63.0025,
      "duration": 0.015,
      "velocity": 94,
      "chip": "ym2612"
    },
    {
      "channel": 2,
      "note": 56,
      "start": 63.004,
      "duration": 0.0152,
      "velocity": 100,
      "chip": "ym2612"
    },
    {
      "channel": 1,
      "note": 66,
      "start": 63.0051,
      "duration": 0.0152,
      "velocity": 94,
      "chip": "ym2612"
    },
    {
      "channel": 0,
      "note": 75,
      "start": 63.0137,
      "duration": 0.0161,
      "velocity": 127,
      "chip": "ym2612"
    },
    {
      "channel": 5,
      "note": 71,
      "start": 63.0149,
      "duration": 0.016,
      "velocity": 110,
      "chip": "ym2612"
    },
    {
      "channel": 4,
      "note": 75,
      "start": 63.0162,
      "duration": 0.016,
      "velocity": 110,
      "chip": "ym2612"
    },
    {
      "channel": 3,
      "note": 68,
      "start": 63.0176,
      "duration": 0.0158,
      "velocity": 94,
      "chip": "ym2612"
    },
    {
      "channel": 2,
      "note": 56,
      "start": 63.0192,
      "duration": 0.0158,
      "velocity": 100,
      "chip": "ym2612"
    },
    {
      "channel": 1,
      "note": 66,
      "start": 63.0203,
      "duration": 0.0159,
      "velocity": 94,
      "chip": "ym2612"
    },
    {
      "channel": 0,
      "note": 73,
      "start": 63.0298,
      "duration": 0.0161,
      "velocity": 127,
      "chip": "ym2612"
    },
    {
      "channel": 5,
      "note": 71,
      "start": 63.031,
      "duration": 0.0161,
      "velocity": 110,
      "chip": "ym2612"
    },
    {
      "channel": 4,
      "note": 75,
      "start": 63.0322,
      "duration": 0.0161,
      "velocity": 110,
      "chip": "ym2612"
    },
    {
      "channel": 3,
      "note": 68,
      "start": 63.0333,
      "duration": 0.0161,
      "velocity": 94,
      "chip": "ym2612"
    },
    {
      "channel": 2,
      "note": 56,
      "start": 63.035,
      "duration": 0.0158,
      "velocity": 100,
      "chip": "ym2612"
    },
    {
      "channel": 1,
      "note": 66,
      "start": 63.0362,
      "duration": 0.0161,
      "velocity": 94,
      "chip": "ym2612"
    },
    {
      "channel": 0,
      "note": 71,
      "start": 63.0459,
      "duration": 0.0161,
      "velocity": 127,
      "chip": "ym2612"
    },
    {
      "channel": 5,
      "note": 71,
      "start": 63.0471,
      "duration": 0.0162,
      "velocity": 110,
      "chip": "ym2612"
    },
    {
      "channel": 4,
      "note": 75,
      "start": 63.0483,
      "duration": 0.0161,
      "velocity": 110,
      "chip": "ym2612"
    },
    {
      "channel": 3,
      "note": 68,
      "start": 63.0494,
      "duration": 0.0162,
      "velocity": 94,
      "chip": "ym2612"
    },
    {
      "channel": 2,
      "note": 56,
      "start": 63.0508,
      "duration": 0.0159,
      "velocity": 100,
      "chip": "ym2612"
    },
    {
      "channel": 1,
      "note": 66,
      "start": 63.0523,
      "duration": 0.0161,
      "velocity": 94,
      "chip": "ym2612"
    },
    {
      "channel": 0,
      "note": 69,
      "start": 63.062,
      "duration": 0.0161,
      "velocity": 127,
      "chip": "ym2612"
    },
    {
      "channel": 5,
      "note": 71,
      "start": 63.0632,
      "duration": 0.0161,
      "velocity": 110,
      "chip": "ym2612"
    },
    {
      "channel": 4,
      "note": 75,
      "start": 63.0644,
      "duration": 0.0161,
      "velocity": 110,
      "chip": "ym2612"
    },
    {
      "channel": 2,
      "note": 56,
      "start": 63.0667,
      "duration": 0.0161,
      "velocity": 100,
      "chip": "ym2612"
    },
    {
      "channel": 1,
      "note": 66,
      "start": 63.0684,
      "duration": 0.0157,
      "velocity": 94,
      "chip": "ym2612"
    },
    {
      "channel": 0,
      "note": 68,
      "start": 63.0781,
      "duration": 0.018,
      "velocity": 127,
      "chip": "ym2612"
    },
    {
      "channel": 5,
      "note": 71,
      "start": 63.0793,
      "duration": 0.018,
      "velocity": 110,
      "chip": "ym2612"
    },
    {
      "channel": 4,
      "note": 75,
      "start": 63.0805,
      "duration": 0.018,
      "velocity": 110,
      "chip": "ym2612"
    },
    {
      "channel": 2,
      "note": 56,
      "start": 63.0828,
      "duration": 0.0188,
      "velocity": 100,
      "chip": "ym2612"
    },
    {
      "channel": 1,
      "note": 66,
      "start": 63.0841,
      "duration": 0.0187,
      "velocity": 94,
      "chip": "ym2612"
    },
    {
      "channel": 0,
      "note": 84,
      "start": 63.0961,
      "duration": 0.0143,
      "velocity": 127,
      "chip": "ym2612"
    },
    {
      "channel": 5,
      "note": 71,
      "start": 63.0973,
      "duration": 0.0142,
      "velocity": 110,
      "chip": "ym2612"
    },
    {
      "channel": 4,
      "note": 75,
      "start": 63.0985,
      "duration": 0.0142,
      "velocity": 110,
      "chip": "ym2612"
    },
    {
      "channel": 2,
      "note": 68,
      "start": 63.1016,
      "duration": 0.0138,
      "velocity": 100,
      "chip": "ym2612"
    },
    {
      "channel": 1,
      "note": 66,
      "start": 63.1029,
      "duration": 0.0137,
      "velocity": 94,
      "chip": "ym2612"
    },
    {
      "channel": 0,
      "note": 82,
      "start": 63.1104,
      "duration": 0.016,
      "velocity": 127,
      "chip": "ym2612"
    },
    {
      "channel": 3,
      "note": 66,
      "start": 63.1142,
      "duration": 0.0158,
      "velocity": 94,
      "chip": "ym2612"
    },
    {
      "channel": 2,
      "note": 68,
      "start": 63.1154,
      "duration": 0.0157,
      "velocity": 100,
      "chip": "ym2612"
    },
    {
      "channel": 1,
      "note": 66,
      "start": 63.1166,
      "duration": 0.0157,
      "velocity": 94,
      "chip": "ym2612"
    },
    {
      "channel": 0,
      "note": 81,
      "start": 63.1264,
      "duration": 0.0161,
      "velocity": 127,
      "chip": "ym2612"
    },
    {
      "channel": 3,
      "note": 66,
      "start": 63.13,
      "duration": 0.016,
      "velocity": 94,
      "chip": "ym2612"
    },
    {
      "channel": 2,
      "note": 68,
      "start": 63.1312,
      "duration": 0.016,
      "velocity": 100,
      "chip": "ym2612"
    },
    {
      "channel": 1,
      "note": 66,
      "start": 63.1323,
      "duration": 0.0161,
      "velocity": 94,
      "chip": "ym2612"
    },
    {
      "channel": 0,
      "note": 79,
      "start": 63.1425,
      "duration": 0.0161,
      "velocity": 127,
      "chip": "ym2612"
    },
    {
      "channel": 3,
      "note": 66,
      "start": 63.146,
      "duration": 0.0161,
      "velocity": 94,
      "chip": "ym2612"
    },
    {
      "channel": 2,
      "note": 68,
      "start": 63.1472,
      "duration": 0.0161,
      "velocity": 100,
      "chip": "ym2612"
    },
    {
      "channel": 1,
      "note": 66,
      "start": 63.1484,
      "duration": 0.0161,
      "velocity": 94,
      "chip": "ym2612"
    },
    {
      "channel": 0,
      "note": 77,
      "start": 63.1586,
      "duration": 0.0161,
      "velocity": 127,
      "chip": "ym2612"
    },
    {
      "channel": 3,
      "note": 66,
      "start": 63.1621,
      "duration": 0.0161,
      "velocity": 94,
      "chip": "ym2612"
    },
    {
      "channel": 2,
      "note": 68,
      "start": 63.1633,
      "duration": 0.0161,
      "velocity": 100,
      "chip": "ym2612"
    },
    {
      "channel": 0,
      "note": 76,
      "start": 63.1747,
      "duration": 0.0161,
      "velocity": 127,
      "chip": "ym2612"
    },
    {
      "channel": 3,
      "note": 66,
      "start": 63.1782,
      "duration": 0.0161,
      "velocity": 94,
      "chip": "ym2612"
    },
    {
      "channel": 2,
      "note": 68,
      "start": 63.1794,
      "duration": 0.0162,
      "velocity": 100,
      "chip": "ym2612"
    },
    {
      "channel": 0,
      "note": 74,
      "start": 63.1908,
      "duration": 0.0179,
      "velocity": 127,
      "chip": "ym2612"
    },
    {
      "channel": 3,
      "note": 66,
      "start": 63.1944,
      "duration": 0.0186,
      "velocity": 94,
      "chip": "ym2612"
    },
    {
      "channel": 2,
      "note": 68,
      "start": 63.1955,
      "duration": 0.0189,
      "velocity": 100,
      "chip": "ym2612"
    },
    {
      "channel": 0,
      "note": 78,
      "start": 63.2088,
      "duration": 0.0143,
      "velocity": 127,
      "chip": "ym2612"
    },
    {
      "channel": 5,
      "note": 75,
      "start": 63.2104,
      "duration": 0.014,
      "velocity": 110,
      "chip": "ym2612"
    },
    {
      "channel": 4,
      "note": 71,
      "start": 63.2119,
      "duration": 0.0137,
      "velocity": 110,
      "chip": "ym2612"
    },
    {
      "channel": 3,
      "note": 66,
      "start": 63.213,
      "duration": 0.0137,
      "velocity": 94,
      "chip": "ym2612"
    },
    {
      "channel": 2,
      "note": 58,
      "start": 63.2145,
      "duration": 0.0135,
      "velocity": 100,
      "chip": "ym2612"
    },
    {
      "channel": 1,
      "note": 65,
      "start": 63.2159,
      "duration": 0.0132,
      "velocity": 94,
      "chip": "ym2612"
    },
    {
      "channel": 0,
      "note": 76,
      "start": 63.2231,
      "duration": 0.016,
      "velocity": 127,
      "chip": "ym2612"
    },
    {
      "channel": 5,
      "note": 75,
      "start": 63.2244,
      "duration": 0.016,
      "velocity": 110,
      "chip": "ym2612"
    },
    {
      "channel": 4,
      "note": 71,
      "start": 63.2256,
      "duration": 0.0159,
      "velocity": 110,
      "chip": "ym2612"
    },
    {
      "channel": 3,
      "note": 66,
      "start": 63.2268,
      "duration": 0.0159,
      "velocity": 94,
      "chip": "ym2612"
    },
    {
      "channel": 2,
      "note": 58,
      "start": 63.228,
      "duration": 0.0158,
      "velocity": 100,
      "chip": "ym2612"
    },
    {
      "channel": 1,
      "note": 65,
      "start": 63.2292,
      "duration": 0.0158,
      "velocity": 94,
      "chip": "ym2612"
    },
    {
      "channel": 0,
      "note": 75,
      "start": 63.2391,
      "duration": 0.0161,
      "velocity": 127,
      "chip": "ym2612"
    },
    {
      "channel": 5,
      "note": 75,
      "start": 63.2403,
      "duration": 0.0161,
      "velocity": 110,
      "chip": "ym2612"
    },
    {
      "channel": 4,
      "note": 71,
      "start": 63.2415,
      "duration": 0.0161,
      "velocity": 110,
      "chip": "ym2612"
    },
    {
      "channel": 3,
      "note": 66,
      "start": 63.2427,
      "duration": 0.0161,
      "velocity": 94,
      "chip": "ym2612"
    },
    {
      "channel": 2,
      "note": 58,
      "start": 63.2438,
      "duration": 0.0161,
      "velocity": 100,
      "chip": "ym2612"
    },
    {
      "channel": 1,
      "note": 65,
      "start": 63.245,
      "duration": 0.0161,
      "velocity": 94,
      "chip": "ym2612"
    },
    {
      "channel": 0,
      "note": 73,
      "start": 63.2552,
      "duration": 0.0161,
      "velocity": 127,
      "chip": "ym2612"
    },
    {
      "channel": 5,
      "note": 75,
      "start": 63.2564,
      "duration": 0.0161,
      "velocity": 110,
      "chip": "ym2612"
    },
    {
      "channel": 4,
      "note": 71,
      "start": 63.2576,
      "duration": 0.0161,
      "velocity": 110,
      "chip": "ym2612"
    },
    {
      "channel": 3,
      "note": 66,
      "start": 63.2588,
      "duration": 0.0161,
      "velocity": 94,
      "chip": "ym2612"
    },
    {
      "channel": 2,
      "note": 58,
      "start": 63.2599,
      "duration": 0.0161,
      "velocity": 100,
      "chip": "ym2612"
    },
    {
      "channel": 1,
      "note": 65,
      "start": 63.261,
      "duration": 0.0161,
      "velocity": 94,
      "chip": "ym2612"
    },
    {
      "channel": 0,
      "note": 71,
      "start": 63.2713,
      "duration": 0.0162,
      "velocity": 127,
      "chip": "ym2612"
    },
    {
      "channel": 5,
      "note": 75,
      "start": 63.2725,
      "duration": 0.0161,
      "velocity": 110,
      "chip": "ym2612"
    },
    {
      "channel": 4,
      "note": 71,
      "start": 63.2737,
      "duration": 0.0161,
      "velocity": 110,
      "chip": "ym2612"
    },
    {
      "channel": 3,
      "note": 66,
      "start": 63.2749,
      "duration": 0.0161,
      "velocity": 94,
      "chip": "ym2612"
    },
    {
      "channel": 2,
      "note": 58,
      "start": 63.276,
      "duration": 0.0161,
      "velocity": 100,
      "chip": "ym2612"
    },
    {
      "channel": 1,
      "note": 65,
      "start": 63.2771,
      "duration": 0.0162,
      "velocity": 94,
      "chip": "ym2612"
    },
    {
      "channel": 0,
      "note": 70,
      "start": 63.2875,
      "duration": 0.018,
      "velocity": 127,
      "chip": "ym2612"
    },
    {
      "channel": 5,
      "note": 75,
      "start": 63.2886,
      "duration": 0.0181,
      "velocity": 110,
      "chip": "ym2612"
    },
    {
      "channel": 4,
      "note": 71,
      "start": 63.2898,
      "duration": 0.0181,
      "velocity": 110,
      "chip": "ym2612"
    },
    {
      "channel": 3,
      "note": 66,
      "start": 63.291,
      "duration": 0.0181,
      "velocity": 94,
      "chip": "ym2612"
    },
    {
      "channel": 2,
      "note": 58,
      "start": 63.2921,
      "duration": 0.0181,
      "velocity": 100,
      "chip": "ym2612"
    },
    {
      "channel": 1,
      "note": 65,
      "start": 63.2933,
      "duration": 0.018,
      "velocity": 94,
      "chip": "ym2612"
    },
    {
      "channel": 0,
      "note": 78,
      "start": 63.3055,
      "duration": 0.0145,
      "velocity": 127,
      "chip": "ym2612"
    },
    {
      "channel": 5,
      "note": 75,
      "start": 63.3067,
      "duration": 0.0145,
      "velocity": 110,
      "chip": "ym2612"
    },
    {
      "channel": 4,
      "note": 71,
      "start": 63.3079,
      "duration": 0.0145,
      "velocity": 110,
      "chip": "ym2612"
    },
    {
      "channel": 3,
      "note": 66,
      "start": 63.309,
      "duration": 0.0146,
      "velocity": 94,
      "chip": "ym2612"
    },
    {
      "channel": 2,
      "note": 58,
      "start": 63.3102,
      "duration": 0.0145,
      "velocity": 100,
      "chip": "ym2612"
    },
    {
      "channel": 1,
      "note": 65,
      "start": 63.3114,
      "duration": 0.0145,
      "velocity": 94,
      "chip": "ym2612"
    },
    {
      "channel": 0,
      "note": 76,
      "start": 63.32,
      "duration": 0.0162,
      "velocity": 127,
      "chip": "ym2612"
    },
    {
      "channel": 3,
      "note": 66,
      "start": 63.3236,
      "duration": 0.0162,
      "velocity": 94,
      "chip": "ym2612"
    },
    {
      "channel": 2,
      "note": 58,
      "start": 63.3247,
      "duration": 0.0162,
      "velocity": 100,
      "chip": "ym2612"
    },
    {
      "channel": 1,
      "note": 65,
      "start": 63.3259,
      "duration": 0.0162,
      "velocity": 94,
      "chip": "ym2612"
    },
    {
      "channel": 0,
      "note": 75,
      "start": 63.3362,
      "duration": 0.0162,
      "velocity": 127,
      "chip": "ym2612"
    },
    {
      "channel": 3,
      "note": 66,
      "start": 63.3398,
      "duration": 0.0162,
      "velocity": 94,
      "chip": "ym2612"
    },
    {
      "channel": 2,
      "note": 58,
      "start": 63.341,
      "duration": 0.0162,
      "velocity": 100,
      "chip": "ym2612"
    },
    {
      "channel": 1,
      "note": 65,
      "start": 63.3421,
      "duration": 0.0162,
      "velocity": 94,
      "chip": "ym2612"
    },
    {
      "channel": 0,
      "note": 73,
      "start": 63.3524,
      "duration": 0.0161,
      "velocity": 127,
      "chip": "ym2612"
    },
    {
      "channel": 3,
      "note": 66,
      "start": 63.356,
      "duration": 0.0161,
      "velocity": 94,
      "chip": "ym2612"
    },
    {
      "channel": 2,
      "note": 58,
      "start": 63.3571,
      "duration": 0.0161,
      "velocity": 100,
      "chip": "ym2612"
    },
    {
      "channel": 1,
      "note": 65,
      "start": 63.3583,
      "duration": 0.0162,
      "velocity": 94,
      "chip": "ym2612"
    },
    {
      "channel": 0,
      "note": 71,
      "start": 63.3685,
      "duration": 0.0158,
      "velocity": 127,
      "chip": "ym2612"
    },
    {
      "channel": 3,
      "note": 66,
      "start": 63.3721,
      "duration": 0.0161,
      "velocity": 94,
      "chip": "ym2612"
    },
    {
      "channel": 2,
      "note": 58,
      "start": 63.3732,
      "duration": 0.0161,
      "velocity": 100,
      "chip": "ym2612"
    },
    {
      "channel": 1,
      "note": 65,
      "start": 63.3744,
      "duration": 0.0161,
      "velocity": 94,
      "chip": "ym2612"
    },
    {
      "channel": 0,
      "note": 70,
      "start": 63.3843,
      "duration": 0.0159,
      "velocity": 127,
      "chip": "ym2612"
    },
    {
      "channel": 3,
      "note": 66,
      "start": 63.3882,
      "duration": 0.0161,
      "velocity": 94,
      "chip": "ym2612"
    },
    {
      "channel": 2,
      "note": 58,
      "start": 63.3893,
      "duration": 0.0161,
      "velocity": 100,
      "chip": "ym2612"
    },
    {
      "channel": 1,
      "note": 65,
      "start": 63.3905,
      "duration": 0.016,
      "velocity": 94,
      "chip": "ym2612"
    },
    {
      "channel": 0,
      "note": 68,
      "start": 63.4001,
      "duration": 0.0184,
      "velocity": 124,
      "chip": "ym2612"
    },
    {
      "channel": 3,
      "note": 66,
      "start": 63.4042,
      "duration": 0.0188,
      "velocity": 94,
      "chip": "ym2612"
    },
    {
      "channel": 2,
      "note": 58,
      "start": 63.4054,
      "duration": 0.019,
      "velocity": 100,
      "chip": "ym2612"
    },
    {
      "channel": 1,
      "note": 65,
      "start": 63.4065,
      "duration": 0.0191,
      "velocity": 94,
      "chip": "ym2612"
    },
    {
      "channel": 0,
      "note": 84,
      "start": 63.4187,
      "duration": 0.0137,
      "velocity": 124,
      "chip": "ym2612"
    },
    {
      "channel": 5,
      "note": 71,
      "start": 63.4203,
      "duration": 0.0134,
      "velocity": 110,
      "chip": "ym2612"
    },
    {
      "channel": 4,
      "note": 75,
      "start": 63.4218,
      "duration": 0.0137,
      "velocity": 110,
      "chip": "ym2612"
    },
    {
      "channel": 3,
      "note": 66,
      "start": 63.423,
      "duration": 0.0136,
      "velocity": 94,
      "chip": "ym2612"
    },
    {
      "channel": 2,
      "note": 59,
      "start": 63.4244,
      "duration": 0.0135,
      "velocity": 100,
      "chip": "ym2612"
    },
    {
      "channel": 1,
      "note": 65,
      "start": 63.4256,
      "duration": 0.0134,
      "velocity": 94,
      "chip": "ym2612"
    },
    {
      "channel": 0,
      "note": 82,
      "start": 63.4324,
      "duration": 0.016,
      "velocity": 124,
      "chip": "ym2612"
    },
    {
      "channel": 5,
      "note": 71,
      "start": 63.4336,
      "duration": 0.016,
      "velocity": 110,
      "chip": "ym2612"
    },
    {
      "channel": 4,
      "note": 75,
      "start": 63.4355,
      "duration": 0.0158,
      "velocity": 110,
      "chip": "ym2612"
    },
    {
      "channel": 3,
      "note": 66,
      "start": 63.4366,
      "duration": 0.016,
      "velocity": 94,
      "chip": "ym2612"
    },
    {
      "channel": 2,
      "note": 59,
      "start": 63.4379,
      "duration": 0.0159,
      "velocity": 100,
      "chip": "ym2612"
    },
    {
      "channel": 1,
      "note": 65,
      "start": 63.439,
      "duration": 0.0158,
      "velocity": 94,
      "chip": "ym2612"
    },
    {
      "channel": 0,
      "note": 80,
      "start": 63.4485,
      "duration": 0.0161,
      "velocity": 124,
      "chip": "ym2612"
    },
    {
      "channel": 5,
      "note": 71,
      "start": 63.4496,
      "duration": 0.0161,
      "velocity": 110,
      "chip": "ym2612"
    },
    {
      "channel": 4,
      "note": 75,
      "start": 63.4513,
      "duration": 0.0156,
      "velocity": 110,
      "chip": "ym2612"
    },
    {
      "channel": 3,
      "note": 66,
      "start": 63.4526,
      "duration": 0.016,
      "velocity": 94,
      "chip": "ym2612"
    },
    {
      "channel": 2,
      "note": 59,
      "start": 63.4537,
      "duration": 0.0161,
      "velocity": 100,
      "chip": "ym2612"
    },
    {
      "channel": 1,
      "note": 65,
      "start": 63.4549,
      "duration": 0.0161,
      "velocity": 94,
      "chip": "ym2612"
    },
    {
      "channel": 0,
      "note": 77,
      "start": 63.4646,
      "duration": 0.0161,
      "velocity": 124,
      "chip": "ym2612"
    },
    {
      "channel": 5,
      "note": 71,
      "start": 63.4657,
      "duration": 0.0161,
      "velocity": 110,
      "chip": "ym2612"
    },
    {
      "channel": 4,
      "note": 75,
      "start": 63.4669,
      "duration": 0.0161,
      "velocity": 110,
      "chip": "ym2612"
    },
    {
      "channel": 3,
      "note": 66,
      "start": 63.4686,
      "duration": 0.0161,
      "velocity": 94,
      "chip": "ym2612"
    },
    {
      "channel": 2,
      "note": 59,
      "start": 63.4698,
      "duration": 0.0161,
      "velocity": 100,
      "chip": "ym2612"
    },
    {
      "channel": 1,
      "note": 65,
      "start": 63.471,
      "duration": 0.0162,
      "velocity": 94,
      "chip": "ym2612"
    },
    {
      "channel": 0,
      "note": 75,
      "start": 63.4807,
      "duration": 0.0161,
      "velocity": 124,
      "chip": "ym2612"
    },
    {
      "channel": 5,
      "note": 71,
      "start": 63.4818,
      "duration": 0.0161,
      "velocity": 110,
      "chip": "ym2612"
    },
    {
      "channel": 4,
      "note": 75,
      "start": 63.483,
      "duration": 0.0161,
      "velocity": 110,
      "chip": "ym2612"
    },
    {
      "channel": 2,
      "note": 59,
      "start": 63.4859,
      "duration": 0.0161,
      "velocity": 100,
      "chip": "ym2612"
    },
    {
      "channel": 1,
      "note": 65,
      "start": 63.4871,
      "duration": 0.016,
      "velocity": 94,
      "chip": "ym2612"
    },
    {
      "channel": 0,
      "note": 72,
      "start": 63.4967,
      "duration": 0.0179,
      "velocity": 124,
      "chip": "ym2612"
    },
    {
      "channel": 5,
      "note": 71,
      "start": 63.4979,
      "duration": 0.018,
      "velocity": 110,
      "chip": "ym2612"
    },
    {
      "channel": 4,
      "note": 75,
      "start": 63.4991,
      "duration": 0.018,
      "velocity": 110,
      "chip": "ym2612"
    },
    {
      "channel": 2,
      "note": 59,
      "start": 63.502,
      "duration": 0.018,
      "velocity": 100,
      "chip": "ym2612"
    },
    {
      "channel": 1,
      "note": 65,
      "start": 63.5032,
      "duration": 0.018,
      "velocity": 94,
      "chip": "ym2612"
    },
    {
      "channel": 0,
      "note": 84,
      "start": 63.5147,
      "duration": 0.0143,
      "velocity": 124,
      "chip": "ym2612"
    },
    {
      "channel": 5,
      "note": 71,
      "start": 63.5159,
      "duration": 0.0143,
      "velocity": 110,
      "chip": "ym2612"
    },
    {
      "channel": 4,
      "note": 75,
      "start": 63.5171,
      "duration": 0.0143,
      "velocity": 110,
      "chip": "ym2612"
    },
    {
      "channel": 2,
      "note": 59,
      "start": 63.52,
      "duration": 0.0142,
      "velocity": 100,
      "chip": "ym2612"
    },
    {
      "channel": 1,
      "note": 65,
      "start": 63.5212,
      "duration": 0.0146,
      "velocity": 94,
      "chip": "ym2612"
    },
    {
      "channel": 0,
      "note": 82,
      "start": 63.529,
      "duration": 0.0161,
      "velocity": 124,
      "chip": "ym2612"
    },
    {
      "channel": 3,
      "note": 65,
      "start": 63.5329,
      "duration": 0.0158,
      "velocity": 94,
      "chip": "ym2612"
    },
    {
      "channel": 2,
      "note": 59,
      "start": 63.5342,
      "duration": 0.0156,
      "velocity": 100,
      "chip": "ym2612"
    },
    {
      "channel": 1,
      "note": 65,
      "start": 63.5358,
      "duration": 0.0157,
      "velocity": 94,
      "chip": "ym2612"
    },
    {
      "channel": 0,
      "note": 80,
      "start": 63.5451,
      "duration": 0.0161,
      "velocity": 124,
      "chip": "ym2612"
    },
    {
      "channel": 3,
      "note": 65,
      "start": 63.5486,
      "duration": 0.016,
      "velocity": 94,
      "chip": "ym2612"
    },
    {
      "channel": 2,
      "note": 59,
      "start": 63.5498,
      "duration": 0.016,
      "velocity": 100,
      "chip": "ym2612"
    },
    {
      "channel": 1,
      "note": 65,
      "start": 63.5515,
      "duration": 0.0154,
      "velocity": 94,
      "chip": "ym2612"
    },
    {
      "channel": 0,
      "note": 77,
      "start": 63.5612,
      "duration": 0.0161,
      "velocity": 124,
      "chip": "ym2612"
    },
    {
      "channel": 3,
      "note": 65,
      "start": 63.5647,
      "duration": 0.0161,
      "velocity": 94,
      "chip": "ym2612"
    },
    {
      "channel": 2,
      "note": 59,
      "start": 63.5658,
      "duration": 0.0161,
      "velocity": 100,
      "chip": "ym2612"
    },
    {
      "channel": 1,
      "note": 65,
      "start": 63.567,
      "duration": 0.0162,
      "velocity": 94,
      "chip": "ym2612"
    },
    {
      "channel": 0,
      "note": 75,
      "start": 63.5773,
      "duration": 0.0161,
      "velocity": 124,
      "chip": "ym2612"
    },
    {
      "channel": 3,
      "note": 65,
      "start": 63.5808,
      "duration": 0.0161,
      "velocity": 94,
      "chip": "ym2612"
    },
    {
      "channel": 2,
      "note": 59,
      "start": 63.5819,
      "duration": 0.0161,
      "velocity": 100,
      "chip": "ym2612"
    },
    {
      "channel": 0,
      "note": 72,
      "start": 63.5934,
      "duration": 0.0161,
      "velocity": 124,
      "chip": "ym2612"
    },
    {
      "channel": 3,
      "note": 65,
      "start": 63.5969,
      "duration": 0.0161,
      "velocity": 94,
      "chip": "ym2612"
    },
    {
      "channel": 2,
      "note": 59,
      "start": 63.598,
      "duration": 0.0161,
      "velocity": 100,
      "chip": "ym2612"
    },
    {
      "channel": 0,
      "note": 70,
      "start": 63.6095,
      "duration": 0.0179,
      "velocity": 115,
      "chip": "ym2612"
    },
    {
      "channel": 3,
      "note": 65,
      "start": 63.613,
      "duration": 0.0186,
      "velocity": 94,
      "chip": "ym2612"
    },
    {
      "channel": 2,
      "note": 59,
      "start": 63.6141,
      "duration": 0.0189,
      "velocity": 100,
      "chip": "ym2612"
    },
    {
      "channel": 0,
      "note": 36,
      "start": 63.6274,
      "duration": 0.0143,
      "velocity": 115,
      "chip": "ym2612"
    },
    {
      "channel": 5,
      "note": 75,
      "start": 63.6289,
      "duration": 0.0141,
      "velocity": 110,
      "chip": "ym2612"
    },
    {
      "channel": 4,
      "note": 71,
      "start": 63.6305,
      "duration": 0.0137,
      "velocity": 110,
      "chip": "ym2612"
    },
    {
      "channel": 3,
      "note": 65,
      "start": 63.6316,
      "duration": 0.0138,
      "velocity": 94,
      "chip": "ym2612"
    },
    {
      "channel": 2,
      "note": 61,
      "start": 63.6331,
      "duration": 0.0136,
      "velocity": 100,
      "chip": "ym2612"
    },
    {
      "channel": 1,
      "note": 64,
      "start": 63.635,
      "duration": 0.0128,
      "velocity": 94,
      "chip": "ym2612"
    },
    {
      "channel": 0,
      "note": 36,
      "start": 63.6417,
      "duration": 0.016,
      "velocity": 115,
      "chip": "ym2612"
    },
    {
      "channel": 5,
      "note": 75,
      "start": 63.643,
      "duration": 0.016,
      "velocity": 110,
      "chip": "ym2612"
    },
    {
      "channel": 4,
      "note": 71,
      "start": 63.6442,
      "duration": 0.0159,
      "velocity": 110,
      "chip": "ym2612"
    },
    {
      "channel": 3,
      "note": 65,
      "start": 63.6454,
      "duration": 0.0159,
      "velocity": 94,
      "chip": "ym2612"
    },
    {
      "channel": 2,
      "note": 61,
      "start": 63.6466,
      "duration": 0.0158,
      "velocity": 100,
      "chip": "ym2612"
    },
    {
      "channel": 1,
      "note": 64,
      "start": 63.6478,
      "duration": 0.0158,
      "velocity": 94,
      "chip": "ym2612"
    },
    {
      "channel": 0,
      "note": 37,
      "start": 63.6578,
      "duration": 0.0161,
      "velocity": 115,
      "chip": "ym2612"
    },
    {
      "channel": 5,
      "note": 75,
      "start": 63.659,
      "duration": 0.0161,
      "velocity": 110,
      "chip": "ym2612"
    },
    {
      "channel": 4,
      "note": 71,
      "start": 63.6601,
      "duration": 0.0161,
      "velocity": 110,
      "chip": "ym2612"
    },
    {
      "channel": 3,
      "note": 65,
      "start": 63.6613,
      "duration": 0.0161,
      "velocity": 94,
      "chip": "ym2612"
    },
    {
      "channel": 2,
      "note": 61,
      "start": 63.6624,
      "duration": 0.0161,
      "velocity": 100,
      "chip": "ym2612"
    },
    {
      "channel": 1,
      "note": 64,
      "start": 63.6636,
      "duration": 0.0161,
      "velocity": 94,
      "chip": "ym2612"
    },
    {
      "channel": 0,
      "note": 37,
      "start": 63.6738,
      "duration": 0.0161,
      "velocity": 115,
      "chip": "ym2612"
    },
    {
      "channel": 5,
      "note": 75,
      "start": 63.6751,
      "duration": 0.0161,
      "velocity": 110,
      "chip": "ym2612"
    },
    {
      "channel": 4,
      "note": 71,
      "start": 63.6762,
      "duration": 0.0161,
      "velocity": 110,
      "chip": "ym2612"
    },
    {
      "channel": 3,
      "note": 65,
      "start": 63.6774,
      "duration": 0.0161,
      "velocity": 94,
      "chip": "ym2612"
    },
    {
      "channel": 2,
      "note": 61,
      "start": 63.6785,
      "duration": 0.0161,
      "velocity": 100,
      "chip": "ym2612"
    },
    {
      "channel": 1,
      "note": 64,
      "start": 63.6797,
      "duration": 0.0161,
      "velocity": 94,
      "chip": "ym2612"
    },
    {
      "channel": 0,
      "note": 38,
      "start": 63.6899,
      "duration": 0.0161,
      "velocity": 115,
      "chip": "ym2612"
    },
    {
      "channel": 5,
      "note": 75,
      "start": 63.6911,
      "duration": 0.0161,
      "velocity": 110,
      "chip": "ym2612"
    },
    {
      "channel": 4,
      "note": 71,
      "start": 63.6923,
      "duration": 0.0161,
      "velocity": 110,
      "chip": "ym2612"
    },
    {
      "channel": 3,
      "note": 65,
      "start": 63.6935,
      "duration": 0.0161,
      "velocity": 94,
      "chip": "ym2612"
    },
    {
      "channel": 2,
      "note": 61,
      "start": 63.6946,
      "duration": 0.0161,
      "velocity": 100,
      "chip": "ym2612"
    },
    {
      "channel": 1,
      "note": 64,
      "start": 63.6958,
      "duration": 0.0161,
      "velocity": 94,
      "chip": "ym2612"
    },
    {
      "channel": 0,
      "note": 38,
      "start": 63.706,
      "duration": 0.0161,
      "velocity": 115,
      "chip": "ym2612"
    },
    {
      "channel": 5,
      "note": 75,
      "start": 63.7072,
      "duration": 0.0161,
      "velocity": 110,
      "chip": "ym2612"
    },
    {
      "channel": 4,
      "note": 71,
      "start": 63.7084,
      "duration": 0.0161,
      "velocity": 110,
      "chip": "ym2612"
    },
    {
      "channel": 3,
      "note": 65,
      "start": 63.7096,
      "duration": 0.0161,
      "velocity": 94,
      "chip": "ym2612"
    },
    {
      "channel": 2,
      "note": 61,
      "start": 63.7107,
      "duration": 0.0161,
      "velocity": 100,
      "chip": "ym2612"
    },
    {
      "channel": 1,
      "note": 64,
      "start": 63.7119,
      "duration": 0.0161,
      "velocity": 94,
      "chip": "ym2612"
    },
    {
      "channel": 0,
      "note": 39,
      "start": 63.7222,
      "duration": 0.0161,
      "velocity": 115,
      "chip": "ym2612"
    },
    {
      "channel": 5,
      "note": 75,
      "start": 63.7233,
      "duration": 0.0161,
      "velocity": 110,
      "chip": "ym2612"
    },
    {
      "channel": 4,
      "note": 71,
      "start": 63.7245,
      "duration": 0.0161,
      "velocity": 110,
      "chip": "ym2612"
    },
    {
      "channel": 3,
      "note": 65,
      "start": 63.7257,
      "duration": 0.0161,
      "velocity": 94,
      "chip": "ym2612"
    },
    {
      "channel": 2,
      "note": 61,
      "start": 63.7268,
      "duration": 0.0162,
      "velocity": 100,
      "chip": "ym2612"
    },
    {
      "channel": 1,
      "note": 64,
      "start": 63.728,
      "duration": 0.0161,
      "velocity": 94,
      "chip": "ym2612"
    },
    {
      "channel": 0,
      "note": 39,
      "start": 63.7383,
      "duration": 0.0161,
      "velocity": 115,
      "chip": "ym2612"
    },
    {
      "channel": 3,
      "note": 65,
      "start": 63.7418,
      "duration": 0.016,
      "velocity": 94,
      "chip": "ym2612"
    },
    {
      "channel": 2,
      "note": 61,
      "start": 63.743,
      "duration": 0.016,
      "velocity": 100,
      "chip": "ym2612"
    },
    {
      "channel": 1,
      "note": 64,
      "start": 63.7441,
      "duration": 0.0161,
      "velocity": 94,
      "chip": "ym2612"
    },
    {
      "channel": 0,
      "note": 40,
      "start": 63.7544,
      "duration": 0.0161,
      "velocity": 115,
      "chip": "ym2612"
    },
    {
      "channel": 3,
      "note": 65,
      "start": 63.7579,
      "duration": 0.0162,
      "velocity": 94,
      "chip": "ym2612"
    },
    {
      "channel": 2,
      "note": 61,
      "start": 63.759,
      "duration": 0.0161,
      "velocity": 100,
      "chip": "ym2612"
    },
    {
      "channel": 1,
      "note": 64,
      "start": 63.7602,
      "duration": 0.0162,
      "velocity": 94,
      "chip": "ym2612"
    },
    {
      "channel": 0,
      "note": 40,
      "start": 63.7705,
      "duration": 0.0162,
      "velocity": 115,
      "chip": "ym2612"
    },
    {
      "channel": 3,
      "note": 65,
      "start": 63.774,
      "duration": 0.0162,
      "velocity": 94,
      "chip": "ym2612"
    },
    {
      "channel": 2,
      "note": 61,
      "start": 63.7752,
      "duration": 0.0162,
      "velocity": 100,
      "chip": "ym2612"
    },
    {
      "channel": 1,
      "note": 64,
      "start": 63.7764,
      "duration": 0.0162,
      "velocity": 94,
      "chip": "ym2612"
    },
    {
      "channel": 0,
      "note": 40,
      "start": 63.7868,
      "duration": 0.0163,
      "velocity": 115,
      "chip": "ym2612"
    },
    {
      "channel": 3,
      "note": 65,
      "start": 63.7902,
      "duration": 0.0163,
      "velocity": 94,
      "chip": "ym2612"
    },
    {
      "channel": 2,
      "note": 61,
      "start": 63.7914,
      "duration": 0.0163,
      "velocity": 100,
      "chip": "ym2612"
    },
    {
      "channel": 1,
      "note": 64,
      "start": 63.7926,
      "duration": 0.0163,
      "velocity": 94,
      "chip": "ym2612"
    },
    {
      "channel": 0,
      "note": 41,
      "start": 63.8031,
      "duration": 0.0163,
      "velocity": 115,
      "chip": "ym2612"
    },
    {
      "channel": 3,
      "note": 65,
      "start": 63.8066,
      "duration": 0.0163,
      "velocity": 94,
      "chip": "ym2612"
    },
    {
      "channel": 2,
      "note": 61,
      "start": 63.8078,
      "duration": 0.0163,
      "velocity": 100,
      "chip": "ym2612"
    },
    {
      "channel": 1,
      "note": 64,
      "start": 63.8089,
      "duration": 0.0163,
      "velocity": 94,
      "chip": "ym2612"
    },
    {
      "channel": 0,
      "note": 41,
      "start": 63.8194,
      "duration": 0.0161,
      "velocity": 115,
      "chip": "ym2612"
    },
    {
      "channel": 3,
      "note": 65,
      "start": 63.8229,
      "duration": 0.0171,
      "velocity": 94,
      "chip": "ym2612"
    },
    {
      "channel": 2,
      "note": 61,
      "start": 63.824,
      "duration": 0.0171,
      "velocity": 100,
      "chip": "ym2612"
    },
    {
      "channel": 1,
      "note": 64,
      "start": 63.8252,
      "duration": 0.0171,
      "velocity": 94,
      "chip": "ym2612"
    },
    {
      "channel": 0,
      "note": 42,
      "start": 63.8355,
      "duration": 0.016,
      "velocity": 115,
      "chip": "ym2612"
    },
    {
      "channel": 5,
      "note": 73,
      "start": 63.8371,
      "duration": 0.0156,
      "velocity": 110,
      "chip": "ym2612"
    },
    {
      "channel": 4,
      "note": 76,
      "start": 63.8388,
      "duration": 0.0153,
      "velocity": 110,
      "chip": "ym2612"
    },
    {
      "channel": 3,
      "note": 65,
      "start": 63.84,
      "duration": 0.0152,
      "velocity": 94,
      "chip": "ym2612"
    },
    {
      "channel": 2,
      "note": 61,
      "start": 63.8411,
      "duration": 0.0152,
      "velocity": 100,
      "chip": "ym2612"
    },
    {
      "channel": 1,
      "note": 64,
      "start": 63.8423,
      "duration": 0.0153,
      "velocity": 94,
      "chip": "ym2612"
    },
    {
      "channel": 0,
      "note": 42,
      "start": 63.8515,
      "duration": 0.0156,
      "velocity": 115,
      "chip": "ym2612"
    },
    {
      "channel": 5,
      "note": 73,
      "start": 63.8528,
      "duration": 0.016,
      "velocity": 110,
      "chip": "ym2612"
    },
    {
      "channel": 4,
      "note": 76,
      "start": 63.8541,
      "duration": 0.016,
      "velocity": 110,
      "chip": "ym2612"
    },
    {
      "channel": 3,
      "note": 65,
      "start": 63.8552,
      "duration": 0.016,
      "velocity": 94,
      "chip": "ym2612"
    },
    {
      "channel": 2,
      "note": 61,
      "start": 63.8563,
      "duration": 0.016,
      "velocity": 100,
      "chip": "ym2612"
    },
    {
      "channel": 1,
      "note": 64,
      "start": 63.8576,
      "duration": 0.016,
      "velocity": 94,
      "chip": "ym2612"
    },
    {
      "channel": 0,
      "note": 43,
      "start": 63.8671,
      "duration": 0.0161,
      "velocity": 115,
      "chip": "ym2612"
    },
    {
      "channel": 5,
      "note": 73,
      "start": 63.8688,
      "duration": 0.0161,
      "velocity": 110,
      "chip": "ym2612"
    },
    {
      "channel": 4,
      "note": 76,
      "start": 63.87,
      "duration": 0.0161,
      "velocity": 110,
      "chip": "ym2612"
    },
    {
      "channel": 3,
      "note": 65,
      "start": 63.8712,
      "duration": 0.0161,
      "velocity": 94,
      "chip": "ym2612"
    },
    {
      "channel": 2,
      "note": 61,
      "start": 63.8723,
      "duration": 0.0162,
      "velocity": 100,
      "chip": "ym2612"
    },
    {
      "channel": 1,
      "note": 64,
      "start": 63.8735,
      "duration": 0.0161,
      "velocity": 94,
      "chip": "ym2612"
    },
    {
      "channel": 0,
      "note": 43,
      "start": 63.8832,
      "duration": 0.0161,
      "velocity": 115,
      "chip": "ym2612"
    },
    {
      "channel": 3,
      "note": 65,
      "start": 63.8873,
      "duration": 0.0161,
      "velocity": 94,
      "chip": "ym2612"
    },
    {
      "channel": 2,
      "note": 61,
      "start": 63.8885,
      "duration": 0.0161,
      "velocity": 100,
      "chip": "ym2612"
    },
    {
      "channel": 1,
      "note": 64,
      "start": 63.8896,
      "duration": 0.0161,
      "velocity": 94,
      "chip": "ym2612"
    },
    {
      "channel": 0,
      "note": 44,
      "start": 63.8993,
      "duration": 0.0161,
      "velocity": 115,
      "chip": "ym2612"
    },
    {
      "channel": 2,
      "note": 61,
      "start": 63.9046,
      "duration": 0.016,
      "velocity": 100,
      "chip": "ym2612"
    },
    {
      "channel": 1,
      "note": 64,
      "start": 63.9057,
      "duration": 0.0161,
      "velocity": 94,
      "chip": "ym2612"
    },
    {
      "channel": 0,
      "note": 44,
      "start": 63.9154,
      "duration": 0.0179,
      "velocity": 115,
      "chip": "ym2612"
    },
    {
      "channel": 2,
      "note": 61,
      "start": 63.9206,
      "duration": 0.0189,
      "velocity": 100,
      "chip": "ym2612"
    },
    {
      "channel": 1,
      "note": 64,
      "start": 63.9218,
      "duration": 0.0189,
      "velocity": 94,
      "chip": "ym2612"
    },
    {
      "channel": 0,
      "note": 36,
      "start": 63.9333,
      "duration": 0.0143,
      "velocity": 115,
      "chip": "ym2612"
    },
    {
      "channel": 5,
      "note": 73,
      "start": 63.9354,
      "duration": 0.0136,
      "velocity": 110,
      "chip": "ym2612"
    },
    {
      "channel": 4,
      "note": 76,
      "start": 63.9369,
      "duration": 0.0132,
      "velocity": 110,
      "chip": "ym2612"
    },
    {
      "channel": 2,
      "note": 61,
      "start": 63.9395,
      "duration": 0.0139,
      "velocity": 100,
      "chip": "ym2612"
    },
    {
      "channel": 1,
      "note": 64,
      "start": 63.9407,
      "duration": 0.0139,
      "velocity": 94,
      "chip": "ym2612"
    },
    {
      "channel": 0,
      "note": 36,
      "start": 63.9476,
      "duration": 0.016,
      "velocity": 115,
      "chip": "ym2612"
    },
    {
      "channel": 5,
      "note": 73,
      "start": 63.9489,
      "duration": 0.016,
      "velocity": 110,
      "chip": "ym2612"
    },
    {
      "channel": 4,
      "note": 76,
      "start": 63.9501,
      "duration": 0.0159,
      "velocity": 110,
      "chip": "ym2612"
    },
    {
      "channel": 3,
      "note": 64,
      "start": 63.9522,
      "duration": 0.0153,
      "velocity": 94,
      "chip": "ym2612"
    },
    {
      "channel": 2,
      "note": 61,
      "start": 63.9534,
      "duration": 0.0156,
      "velocity": 100,
      "chip": "ym2612"
    },
    {
      "channel": 1,
      "note": 64,
      "start": 63.9546,
      "duration": 0.0156,
      "velocity": 94,
      "chip": "ym2612"
    },
    {
      "channel": 0,
      "note": 37,
      "start": 63.9637,
      "duration": 0.0161,
      "velocity": 115,
      "chip": "ym2612"
    },
    {
      "channel": 5,
      "note": 73,
      "start": 63.9649,
      "duration": 0.0161,
      "velocity": 110,
      "chip": "ym2612"
    },
    {
      "channel": 4,
      "note": 76,
      "start": 63.966,
      "duration": 0.0161,
      "velocity": 110,
      "chip": "ym2612"
    },
    {
      "channel": 3,
      "note": 64,
      "start": 63.9675,
      "duration": 0.0158,
      "velocity": 94,
      "chip": "ym2612"
    },
    {
      "channel": 2,
      "note": 61,
      "start": 63.969,
      "duration": 0.016,
      "velocity": 100,
      "chip": "ym2612"
    },
    {
      "channel": 1,
      "note": 64,
      "start": 63.9702,
      "duration": 0.016,
      "velocity": 94,
      "chip": "ym2612"
    },
    {
      "channel": 0,
      "note": 37,
      "start": 63.9798,
      "duration": 0.0161,
      "velocity": 115,
      "chip": "ym2612"
    },
    {
      "channel": 5,
      "note": 73,
      "start": 63.981,
      "duration": 0.0161,
      "velocity": 110,
      "chip": "ym2612"
    },
    {
      "channel": 4,
      "note": 76,
      "start": 63.9821,
      "duration": 0.0162,
      "velocity": 110,
      "chip": "ym2612"
    },
    {
      "channel": 3,
      "note": 64,
      "start": 63.9833,
      "duration": 0.0161,
      "velocity": 94,
      "chip": "ym2612"
    },
    {
      "channel": 2,
      "note": 61,
      "start": 63.985,
      "duration": 0.0158,
      "velocity": 100,
      "chip": "ym2612"
    },
    {
      "channel": 1,
      "note": 64,
      "start": 63.9862,
      "duration": 0.0161,
      "velocity": 94,
      "chip": "ym2612"
    },
    {
      "channel": 0,
      "note": 38,
      "start": 63.9959,
      "duration": 0.0162,
      "velocity": 115,
      "chip": "ym2612"
    },
    {
      "channel": 3,
      "note": 64,
      "start": 63.9994,
      "duration": 0.0161,
      "velocity": 94,
      "chip": "ym2612"
    },
    {
      "channel": 2,
      "note": 61,
      "start": 64.0007,
      "duration": 0.0159,
      "velocity": 100,
      "chip": "ym2612"
    },
    {
      "channel": 1,
      "note": 64,
      "start": 64.0023,
      "duration": 0.016,
      "velocity": 94,
      "chip": "ym2612"
    },
    {
      "channel": 0,
      "note": 38,
      "start": 64.012,
      "duration": 0.0161,
      "velocity": 115,
      "chip": "ym2612"
    },
    {
      "channel": 3,
      "note": 64,
      "start": 64.0155,
      "duration": 0.0161,
      "velocity": 94,
      "chip": "ym2612"
    },
    {
      "channel": 2,
      "note": 61,
      "start": 64.0166,
      "duration": 0.0161,
      "velocity": 100,
      "chip": "ym2612"
    },
    {
      "channel": 1,
      "note": 64,
      "start": 64.0184,
      "duration": 0.0157,
      "velocity": 94,
      "chip": "ym2612"
    },
    {
      "channel": 0,
      "note": 39,
      "start": 64.0281,
      "duration": 0.0179,
      "velocity": 124,
      "chip": "ym2612"
    },
    {
      "channel": 3,
      "note": 64,
      "start": 64.0316,
      "duration": 0.0186,
      "velocity": 94,
      "chip": "ym2612"
    },
    {
      "channel": 2,
      "note": 61,
      "start": 64.0327,
      "duration": 0.0193,
      "velocity": 100,
      "chip": "ym2612"
    },
    {
      "channel": 1,
      "note": 64,
      "start": 64.0341,
      "duration": 0.0191,
      "velocity": 94,
      "chip": "ym2612"
    },
    {
      "channel": 0,
      "note": 84,
      "start": 64.046,
      "duration": 0.0143,
      "velocity": 124,
      "chip": "ym2612"
    },
    {
      "channel": 5,
      "note": 76,
      "start": 64.0476,
      "duration": 0.014,
      "velocity": 110,
      "chip": "ym2612"
    },
    {
      "channel": 4,
      "note": 73,
      "start": 64.049,
      "duration": 0.0138,
      "velocity": 110,
      "chip": "ym2612"
    },
    {
      "channel": 3,
      "note": 64,
      "start": 64.0502,
      "duration": 0.0137,
      "velocity": 94,
      "chip": "ym2612"
    },
    {
      "channel": 2,
      "note": 61,
      "start": 64.052,
      "duration": 0.0132,
      "velocity": 100,
      "chip": "ym2612"
    },
    {
      "channel": 1,
      "note": 64,
      "start": 64.0532,
      "duration": 0.0131,
      "velocity": 94,
      "chip": "ym2612"
    },
    {
      "channel": 0,
      "note": 82,
      "start": 64.0604,
      "duration": 0.016,
      "velocity": 124,
      "chip": "ym2612"
    },
    {
      "channel": 5,
      "note": 76,
      "start": 64.0616,
      "duration": 0.016,
      "velocity": 110,
      "chip": "ym2612"
    },
    {
      "channel": 4,
      "note": 73,
      "start": 64.0628,
      "duration": 0.0159,
      "velocity": 110,
      "chip": "ym2612"
    },
    {
      "channel": 3,
      "note": 64,
      "start": 64.064,
      "duration": 0.0159,
      "velocity": 94,
      "chip": "ym2612"
    },
    {
      "channel": 2,
      "note": 61,
      "start": 64.0652,
      "duration": 0.016,
      "velocity": 100,
      "chip": "ym2612"
    },
    {
      "channel": 1,
      "note": 64,
      "start": 64.0663,
      "duration": 0.016,
      "velocity": 94,
      "chip": "ym2612"
    },
    {
      "channel": 0,
      "note": 80,
      "start": 64.0764,
      "duration": 0.0161,
      "velocity": 124,
      "chip": "ym2612"
    },
    {
      "channel": 5,
      "note": 76,
      "start": 64.0775,
      "duration": 0.0162,
      "velocity": 110,
      "chip": "ym2612"
    },
    {
      "channel": 4,
      "note": 73,
      "start": 64.0787,
      "duration": 0.0161,
      "velocity": 110,
      "chip": "ym2612"
    },
    {
      "channel": 3,
      "note": 64,
      "start": 64.0799,
      "duration": 0.0161,
      "velocity": 94,
      "chip": "ym2612"
    },
    {
      "channel": 2,
      "note": 61,
      "start": 64.0812,
      "duration": 0.016,
      "velocity": 100,
      "chip": "ym2612"
    },
    {
      "channel": 1,
      "note": 64,
      "start": 64.0823,
      "duration": 0.0161,
      "velocity": 94,
      "chip": "ym2612"
    },
    {
      "channel": 0,
      "note": 77,
      "start": 64.0925,
      "duration": 0.0161,
      "velocity": 124,
      "chip": "ym2612"
    },
    {
      "channel": 3,
      "note": 64,
      "start": 64.096,
      "duration": 0.0161,
      "velocity": 94,
      "chip": "ym2612"
    },
    {
      "channel": 2,
      "note": 61,
      "start": 64.0972,
      "duration": 0.0161,
      "velocity": 100,
      "chip": "ym2612"
    },
    {
      "channel": 1,
      "note": 64,
      "start": 64.0984,
      "duration": 0.016,
      "velocity": 94,
      "chip": "ym2612"
    },
    {
      "channel": 0,
      "note": 75,
      "start": 64.1086,
      "duration": 0.0161,
      "velocity": 124,
      "chip": "ym2612"
    },
    {
      "channel": 3,
      "note": 64,
      "start": 64.1121,
      "duration": 0.0161,
      "velocity": 94,
      "chip": "ym2612"
    },
    {
      "channel": 2,
      "note": 61,
      "start": 64.1133,
      "duration": 0.0161,
      "velocity": 100,
      "chip": "ym2612"
    },
    {
      "channel": 1,
      "note": 64,
      "start": 64.1144,
      "duration": 0.0161,
      "velocity": 94,
      "chip": "ym2612"
    },
    {
      "channel": 0,
      "note": 72,
      "start": 64.1247,
      "duration": 0.0161,
      "velocity": 124,
      "chip": "ym2612"
    },
    {
      "channel": 3,
      "note": 64,
      "start": 64.1282,
      "duration": 0.0167,
      "velocity": 94,
      "chip": "ym2612"
    },
    {
      "channel": 2,
      "note": 61,
      "start": 64.1294,
      "duration": 0.0169,
      "velocity": 100,
      "chip": "ym2612"
    },
    {
      "channel": 1,
      "note": 64,
      "start": 64.1305,
      "duration": 0.0169,
      "velocity": 94,
      "chip": "ym2612"
    },
    {
      "channel": 0,
      "note": 70,
      "start": 64.1408,
      "duration": 0.0161,
      "velocity": 124,
      "chip": "ym2612"
    },
    {
      "channel": 5,
      "note": 76,
      "start": 64.1423,
      "duration": 0.0158,
      "velocity": 110,
      "chip": "ym2612"
    },
    {
      "channel": 4,
      "note": 73,
      "start": 64.1437,
      "duration": 0.0156,
      "velocity": 110,
      "chip": "ym2612"
    },
    {
      "channel": 3,
      "note": 64,
      "start": 64.1449,
      "duration": 0.0156,
      "velocity": 94,
      "chip": "ym2612"
    },
    {
      "channel": 2,
      "note": 61,
      "start": 64.1463,
      "duration": 0.0154,
      "velocity": 100,
      "chip": "ym2612"
    },
    {
      "channel": 1,
      "note": 64,
      "start": 64.1474,
      "duration": 0.0155,
      "velocity": 94,
      "chip": "ym2612"
    },
    {
      "channel": 0,
      "note": 68,
      "start": 64.1569,
      "duration": 0.0161,
      "velocity": 124,
      "chip": "ym2612"
    },
    {
      "channel": 5,
      "note": 76,
      "start": 64.1581,
      "duration": 0.016,
      "velocity": 110,
      "chip": "ym2612"
    },
    {
      "channel": 4,
      "note": 73,
      "start": 64.1593,
      "duration": 0.016,
      "velocity": 110,
      "chip": "ym2612"
    },
    {
      "channel": 3,
      "note": 64,
      "start": 64.1605,
      "duration": 0.016,
      "velocity": 94,
      "chip": "ym2612"
    },
    {
      "channel": 2,
      "note": 61,
      "start": 64.1617,
      "duration": 0.016,
      "velocity": 100,
      "chip": "ym2612"
    },
    {
      "channel": 1,
      "note": 64,
      "start": 64.1629,
      "duration": 0.016,
      "velocity": 94,
      "chip": "ym2612"
    },
    {
      "channel": 0,
      "note": 65,
      "start": 64.173,
      "duration": 0.0161,
      "velocity": 124,
      "chip": "ym2612"
    },
    {
      "channel": 5,
      "note": 76,
      "start": 64.1741,
      "duration": 0.0161,
      "velocity": 110,
      "chip": "ym2612"
    },
    {
      "channel": 4,
      "note": 73,
      "start": 64.1754,
      "duration": 0.0161,
      "velocity": 110,
      "chip": "ym2612"
    },
    {
      "channel": 3,
      "note": 64,
      "start": 64.1765,
      "duration": 0.0161,
      "velocity": 94,
      "chip": "ym2612"
    },
    {
      "channel": 2,
      "note": 61,
      "start": 64.1778,
      "duration": 0.0161,
      "velocity": 100,
      "chip": "ym2612"
    },
    {
      "channel": 1,
      "note": 64,
      "start": 64.1789,
      "duration": 0.0161,
      "velocity": 94,
      "chip": "ym2612"
    },
    {
      "channel": 0,
      "note": 63,
      "start": 64.1891,
      "duration": 0.0153,
      "velocity": 1,
      "chip": "ym2612"
    },
    {
      "channel": 5,
      "note": 76,
      "start": 64.1902,
      "duration": 0.0153,
      "velocity": 110,
      "chip": "ym2612"
    },
    {
      "channel": 4,
      "note": 73,
      "start": 64.1915,
      "duration": 0.0153,
      "velocity": 110,
      "chip": "ym2612"
    },
    {
      "channel": 3,
      "note": 64,
      "start": 64.1926,
      "duration": 0.0153,
      "velocity": 94,
      "chip": "ym2612"
    },
    {
      "channel": 2,
      "note": 61,
      "start": 64.1939,
      "duration": 0.0153,
      "velocity": 100,
      "chip": "ym2612"
    },
    {
      "channel": 1,
      "note": 64,
      "start": 64.195,
      "duration": 0.0153,
      "velocity": 94,
      "chip": "ym2612"
    },
    {
      "channel": 3,
      "note": 64,
      "start": 64.2079,
      "duration": 0.0152,
      "velocity": 94,
      "chip": "ym2612"
    },
    {
      "channel": 2,
      "note": 61,
      "start": 64.2091,
      "duration": 0.0153,
      "velocity": 100,
      "chip": "ym2612"
    },
    {
      "channel": 1,
      "note": 64,
      "start": 64.2103,
      "duration": 0.0153,
      "velocity": 94,
      "chip": "ym2612"
    },
    {
      "channel": 3,
      "note": 64,
      "start": 64.2231,
      "duration": 0.0161,
      "velocity": 94,
      "chip": "ym2612"
    },
    {
      "channel": 2,
      "note": 61,
      "start": 64.2244,
      "duration": 0.0161,
      "velocity": 100,
      "chip": "ym2612"
    },
    {
      "channel": 1,
      "note": 64,
      "start": 64.2256,
      "duration": 0.0161,
      "velocity": 94,
      "chip": "ym2612"
    },
    {
      "channel": 3,
      "note": 64,
      "start": 64.2392,
      "duration": 0.0205,
      "velocity": 94,
      "chip": "ym2612"
    },
    {
      "channel": 2,
      "note": 61,
      "start": 64.2405,
      "duration": 0.0206,
      "velocity": 100,
      "chip": "ym2612"
    },
    {
      "channel": 1,
      "note": 64,
      "start": 64.2417,
      "duration": 0.0207,
      "velocity": 94,
      "chip": "ym2612"
    },
    {
      "channel": 0,
      "note": 36,
      "start": 64.2554,
      "duration": 0.0146,
      "velocity": 115,
      "chip": "ym2612"
    },
    {
      "channel": 5,
      "note": 73,
      "start": 64.257,
      "duration": 0.0143,
      "velocity": 110,
      "chip": "ym2612"
    },
    {
      "channel": 4,
      "note": 76,
      "start": 64.2585,
      "duration": 0.014,
      "velocity": 110,
      "chip": "ym2612"
    },
    {
      "channel": 3,
      "note": 64,
      "start": 64.2597,
      "duration": 0.014,
      "velocity": 94,
      "chip": "ym2612"
    },
    {
      "channel": 2,
      "note": 56,
      "start": 64.2611,
      "duration": 0.0138,
      "velocity": 100,
      "chip": "ym2612"
    },
    {
      "channel": 1,
      "note": 64,
      "start": 64.2623,
      "duration": 0.0137,
      "velocity": 94,
      "chip": "ym2612"
    },
    {
      "channel": 0,
      "note": 36,
      "start": 64.27,
      "duration": 0.0163,
      "velocity": 115,
      "chip": "ym2612"
    },
    {
      "channel": 5,
      "note": 73,
      "start": 64.2713,
      "duration": 0.0162,
      "velocity": 110,
      "chip": "ym2612"
    },
    {
      "channel": 4,
      "note": 76,
      "start": 64.2725,
      "duration": 0.0162,
      "velocity": 110,
      "chip": "ym2612"
    },
    {
      "channel": 3,
      "note": 64,
      "start": 64.2737,
      "duration": 0.0161,
      "velocity": 94,
      "chip": "ym2612"
    },
    {
      "channel": 2,
      "note": 56,
      "start": 64.2749,
      "duration": 0.0161,
      "velocity": 100,
      "chip": "ym2612"
    },
    {
      "channel": 1,
      "note": 64,
      "start": 64.2761,
      "duration": 0.0161,
      "velocity": 94,
      "chip": "ym2612"
    },
    {
      "channel": 0,
      "note": 37,
      "start": 64.2863,
      "duration": 0.0161,
      "velocity": 115,
      "chip": "ym2612"
    },
    {
      "channel": 5,
      "note": 73,
      "start": 64.2875,
      "duration": 0.0161,
      "velocity": 110,
      "chip": "ym2612"
    },
    {
      "channel": 4,
      "note": 76,
      "start": 64.2887,
      "duration": 0.0161,
      "velocity": 110,
      "chip": "ym2612"
    },
    {
      "channel": 3,
      "note": 64,
      "start": 64.2898,
      "duration": 0.0161,
      "velocity": 94,
      "chip": "ym2612"
    },
    {
      "channel": 2,
      "note": 56,
      "start": 64.291,
      "duration": 0.016,
      "velocity": 100,
      "chip": "ym2612"
    },
    {
      "channel": 1,
      "note": 64,
      "start": 64.2922,
      "duration": 0.0161,
      "velocity": 94,
      "chip": "ym2612"
    },
    {
      "channel": 0,
      "note": 37,
      "start": 64.3024,
      "duration": 0.016,
      "velocity": 115,
      "chip": "ym2612"
    },
    {
      "channel": 5,
      "note": 73,
      "start": 64.3035,
      "duration": 0.0161,
      "velocity": 110,
      "chip": "ym2612"
    },
    {
      "channel": 4,
      "note": 76,
      "start": 64.3048,
      "duration": 0.0161,
      "velocity": 110,
      "chip": "ym2612"
    },
    {
      "channel": 3,
      "note": 64,
      "start": 64.3059,
      "duration": 0.0161,
      "velocity": 94,
      "chip": "ym2612"
    },
    {
      "channel": 2,
      "note": 56,
      "start": 64.3071,
      "duration": 0.0161,
      "velocity": 100,
      "chip": "ym2612"
    },
    {
      "channel": 1,
      "note": 64,
      "start": 64.3083,
      "duration": 0.0161,
      "velocity": 94,
      "chip": "ym2612"
    },
    {
      "channel": 0,
      "note": 38,
      "start": 64.3184,
      "duration": 0.0158,
      "velocity": 115,
      "chip": "ym2612"
    },
    {
      "channel": 5,
      "note": 73,
      "start": 64.3196,
      "duration": 0.016,
      "velocity": 110,
      "chip": "ym2612"
    },
    {
      "channel": 4,
      "note": 76,
      "start": 64.3208,
      "duration": 0.0161,
      "velocity": 110,
      "chip": "ym2612"
    },
    {
      "channel": 3,
      "note": 64,
      "start": 64.322,
      "duration": 0.0161,
      "velocity": 94,
      "chip": "ym2612"
    },
    {
      "channel": 2,
      "note": 56,
      "start": 64.3232,
      "duration": 0.016,
      "velocity": 100,
      "chip": "ym2612"
    },
    {
      "channel": 1,
      "note": 64,
      "start": 64.3244,
      "duration": 0.0161,
      "velocity": 94,
      "chip": "ym2612"
    },
    {
      "channel": 0,
      "note": 38,
      "start": 64.3342,
      "duration": 0.0183,
      "velocity": 115,
      "chip": "ym2612"
    },
    {
      "channel": 5,
      "note": 73,
      "start": 64.3357,
      "duration": 0.0181,
      "velocity": 110,
      "chip": "ym2612"
    },
    {
      "channel": 4,
      "note": 76,
      "start": 64.3369,
      "duration": 0.0179,
      "velocity": 110,
      "chip": "ym2612"
    },
    {
      "channel": 3,
      "note": 64,
      "start": 64.3381,
      "duration": 0.018,
      "velocity": 94,
      "chip": "ym2612"
    },
    {
      "channel": 2,
      "note": 56,
      "start": 64.3392,
      "duration": 0.0183,
      "velocity": 100,
      "chip": "ym2612"
    },
    {
      "channel": 1,
      "note": 64,
      "start": 64.3405,
      "duration": 0.0183,
      "velocity": 94,
      "chip": "ym2612"
    },
    {
      "channel": 0,
      "note": 36,
      "start": 64.3525,
      "duration": 0.0137,
      "velocity": 115,
      "chip": "ym2612"
    },
    {
      "channel": 5,
      "note": 73,
      "start": 64.3537,
      "duration": 0.0139,
      "velocity": 110,
      "chip": "ym2612"
    },
    {
      "channel": 4,
      "note": 76,
      "start": 64.3549,
      "duration": 0.0143,
      "velocity": 110,
      "chip": "ym2612"
    },
    {
      "channel": 3,
      "note": 64,
      "start": 64.3561,
      "duration": 0.0143,
      "velocity": 94,
      "chip": "ym2612"
    },
    {
      "channel": 2,
      "note": 59,
      "start": 64.3575,
      "duration": 0.0141,
      "velocity": 100,
      "chip": "ym2612"
    },
    {
      "channel": 1,
      "note": 64,
      "start": 64.3587,
      "duration": 0.0141,
      "velocity": 94,
      "chip": "ym2612"
    },
    {
      "channel": 0,
      "note": 36,
      "start": 64.3663,
      "duration": 0.016,
      "velocity": 115,
      "chip": "ym2612"
    },
    {
      "channel": 3,
      "note": 64,
      "start": 64.3704,
      "duration": 0.016,
      "velocity": 94,
      "chip": "ym2612"
    },
    {
      "channel": 2,
      "note": 59,
      "start": 64.3716,
      "duration": 0.016,
      "velocity": 100,
      "chip": "ym2612"
    },
    {
      "channel": 1,
      "note": 64,
      "start": 64.3728,
      "duration": 0.0159,
      "velocity": 94,
      "chip": "ym2612"
    },
    {
      "channel": 0,
      "note": 37,
      "start": 64.3823,
      "duration": 0.0161,
      "velocity": 115,
      "chip": "ym2612"
    },
    {
      "channel": 3,
      "note": 64,
      "start": 64.3864,
      "duration": 0.0161,
      "velocity": 94,
      "chip": "ym2612"
    },
    {
      "channel": 2,
      "note": 59,
      "start": 64.3876,
      "duration": 0.0161,
      "velocity": 100,
      "chip": "ym2612"
    },
    {
      "channel": 1,
      "note": 64,
      "start": 64.3887,
      "duration": 0.0161,
      "velocity": 94,
      "chip": "ym2612"
    },
    {
      "channel": 0,
      "note": 37,
      "start": 64.3984,
      "duration": 0.0161,
      "velocity": 115,
      "chip": "ym2612"
    },
    {
      "channel": 3,
      "note": 64,
      "start": 64.4025,
      "duration": 0.016,
      "velocity": 94,
      "chip": "ym2612"
    },
    {
      "channel": 2,
      "note": 59,
      "start": 64.4037,
      "duration": 0.0161,
      "velocity": 100,
      "chip": "ym2612"
    },
    {
      "channel": 1,
      "note": 64,
      "start": 64.4048,
      "duration": 0.0161,
      "velocity": 94,
      "chip": "ym2612"
    },
    {
      "channel": 0,
      "note": 38,
      "start": 64.4145,
      "duration": 0.0161,
      "velocity": 115,
      "chip": "ym2612"
    },
    {
      "channel": 3,
      "note": 64,
      "start": 64.4185,
      "duration": 0.0158,
      "velocity": 94,
      "chip": "ym2612"
    },
    {
      "channel": 2,
      "note": 59,
      "start": 64.4198,
      "duration": 0.0161,
      "velocity": 100,
      "chip": "ym2612"
    },
    {
      "channel": 0,
      "note": 38,
      "start": 64.4306,
      "duration": 0.0161,
      "velocity": 115,
      "chip": "ym2612"
    },
    {
      "channel": 3,
      "note": 64,
      "start": 64.4343,
      "duration": 0.0159,
      "velocity": 94,
      "chip": "ym2612"
    },
    {
      "channel": 2,
      "note": 59,
      "start": 64.4359,
      "duration": 0.016,
      "velocity": 100,
      "chip": "ym2612"
    },
    {
      "channel": 0,
      "note": 39,
      "start": 64.4467,
      "duration": 0.018,
      "velocity": 115,
      "chip": "ym2612"
    },
    {
      "channel": 3,
      "note": 64,
      "start": 64.4502,
      "duration": 0.0192,
      "velocity": 94,
      "chip": "ym2612"
    },
    {
      "channel": 2,
      "note": 59,
      "start": 64.4519,
      "duration": 0.019,
      "velocity": 100,
      "chip": "ym2612"
    },
    {
      "channel": 0,
      "note": 36,
      "start": 64.4647,
      "duration": 0.0143,
      "velocity": 115,
      "chip": "ym2612"
    },
    {
      "channel": 5,
      "note": 76,
      "start": 64.4661,
      "duration": 0.0141,
      "velocity": 110,
      "chip": "ym2612"
    },
    {
      "channel": 4,
      "note": 73,
      "start": 64.4682,
      "duration": 0.0133,
      "velocity": 110,
      "chip": "ym2612"
    },
    {
      "channel": 3,
      "note": 64,
      "start": 64.4695,
      "duration": 0.0132,
      "velocity": 94,
      "chip": "ym2612"
    },
    {
      "channel": 2,
      "note": 61,
      "start": 64.4708,
      "duration": 0.0132,
      "velocity": 100,
      "chip": "ym2612"
    },
    {
      "channel": 1,
      "note": 68,
      "start": 64.4723,
      "duration": 0.0134,
      "velocity": 94,
      "chip": "ym2612"
    },
    {
      "channel": 0,
      "note": 36,
      "start": 64.479,
      "duration": 0.016,
      "velocity": 115,
      "chip": "ym2612"
    },
    {
      "channel": 5,
      "note": 76,
      "start": 64.4802,
      "duration": 0.016,
      "velocity": 110,
      "chip": "ym2612"
    },
    {
      "channel": 4,
      "note": 73,
      "start": 64.4815,
      "duration": 0.0159,
      "velocity": 110,
      "chip": "ym2612"
    },
    {
      "channel": 3,
      "note": 64,
      "start": 64.4826,
      "duration": 0.0159,
      "velocity": 94,
      "chip": "ym2612"
    },
    {
      "channel": 2,
      "note": 61,
      "start": 64.484,
      "duration": 0.0156,
      "velocity": 100,
      "chip": "ym2612"
    },
    {
      "channel": 1,
      "note": 68,
      "start": 64.4857,
      "duration": 0.0157,
      "velocity": 94,
      "chip": "ym2612"
    },
    {
      "channel": 0,
      "note": 37,
      "start": 64.495,
      "duration": 0.0161,
      "velocity": 115,
      "chip": "ym2612"
    },
    {
      "channel": 5,
      "note": 76,
      "start": 64.4962,
      "duration": 0.0161,
      "velocity": 110,
      "chip": "ym2612"
    },
    {
      "channel": 4,
      "note": 73,
      "start": 64.4974,
      "duration": 0.0161,
      "velocity": 110,
      "chip": "ym2612"
    },
    {
      "channel": 3,
      "note": 64,
      "start": 64.4985,
      "duration": 0.0161,
      "velocity": 94,
      "chip": "ym2612"
    },
    {
      "channel": 2,
      "note": 61,
      "start": 64.4997,
      "duration": 0.0162,
      "velocity": 100,
      "chip": "ym2612"
    },
    {
      "channel": 1,
      "note": 68,
      "start": 64.5014,
      "duration": 0.0156,
      "velocity": 94,
      "chip": "ym2612"
    },
    {
      "channel": 0,
      "note": 37,
      "start": 64.5111,
      "duration": 0.0161,
      "velocity": 115,
      "chip": "ym2612"
    },
    {
      "channel": 5,
      "note": 76,
      "start": 64.5123,
      "duration": 0.0161,
      "velocity": 110,
      "chip": "ym2612"
    },
    {
      "channel": 4,
      "note": 73,
      "start": 64.5135,
      "duration": 0.0161,
      "velocity": 110,
      "chip": "ym2612"
    },
    {
      "channel": 3,
      "note": 64,
      "start": 64.5146,
      "duration": 0.0161,
      "velocity": 94,
      "chip": "ym2612"
    },
    {
      "channel": 2,
      "note": 61,
      "start": 64.5158,
      "duration": 0.0161,
      "velocity": 100,
      "chip": "ym2612"
    },
    {
      "channel": 1,
      "note": 68,
      "start": 64.517,
      "duration": 0.0161,
      "velocity": 94,
      "chip": "ym2612"
    },
    {
      "channel": 0,
      "note": 38,
      "start": 64.5272,
      "duration": 0.0161,
      "velocity": 115,
      "chip": "ym2612"
    },
    {
      "channel": 5,
      "note": 76,
      "start": 64.5284,
      "duration": 0.0161,
      "velocity": 110,
      "chip": "ym2612"
    },
    {
      "channel": 4,
      "note": 73,
      "start": 64.5296,
      "duration": 0.0161,
      "velocity": 110,
      "chip": "ym2612"
    },
    {
      "channel": 3,
      "note": 64,
      "start": 64.5307,
      "duration": 0.0162,
      "velocity": 94,
      "chip": "ym2612"
    },
    {
      "channel": 2,
      "note": 61,
      "start": 64.5319,
      "duration": 0.0161,
      "velocity": 100,
      "chip": "ym2612"
    },
    {
      "channel": 1,
      "note": 68,
      "start": 64.5331,
      "duration": 0.0161,
      "velocity": 94,
      "chip": "ym2612"
    },
    {
      "channel": 0,
      "note": 38,
      "start": 64.5433,
      "duration": 0.0179,
      "velocity": 127,
      "chip": "ym2612"
    },
    {
      "channel": 5,
      "note": 76,
      "start": 64.5445,
      "duration": 0.0179,
      "velocity": 110,
      "chip": "ym2612"
    },
    {
      "channel": 4,
      "note": 73,
      "start": 64.5457,
      "duration": 0.018,
      "velocity": 110,
      "chip": "ym2612"
    },
    {
      "channel": 3,
      "note": 64,
      "start": 64.5469,
      "duration": 0.0179,
      "velocity": 94,
      "chip": "ym2612"
    },
    {
      "channel": 2,
      "note": 61,
      "start": 64.548,
      "duration": 0.0183,
      "velocity": 100,
      "chip": "ym2612"
    },
    {
      "channel": 1,
      "note": 68,
      "start": 64.5492,
      "duration": 0.0185,
      "velocity": 94,
      "chip": "ym2612"
    },
    {
      "channel": 0,
      "note": 88,
      "start": 64.5613,
      "duration": 0.0142,
      "velocity": 127,
      "chip": "ym2612"
    },
    {
      "channel": 5,
      "note": 76,
      "start": 64.5624,
      "duration": 0.0143,
      "velocity": 110,
      "chip": "ym2612"
    },
    {
      "channel": 4,
      "note": 73,
      "start": 64.5637,
      "duration": 0.0143,
      "velocity": 110,
      "chip": "ym2612"
    },
    {
      "channel": 3,
      "note": 64,
      "start": 64.5648,
      "duration": 0.0143,
      "velocity": 94,
      "chip": "ym2612"
    },
    {
      "channel": 2,
      "note": 73,
      "start": 64.5663,
      "duration": 0.0141,
      "velocity": 100,
      "chip": "ym2612"
    },
    {
      "channel": 1,
      "note": 68,
      "start": 64.5677,
      "duration": 0.0139,
      "velocity": 94,
      "chip": "ym2612"
    },
    {
      "channel": 0,
      "note": 86,
      "start": 64.5756,
      "duration": 0.016,
      "velocity": 127,
      "chip": "ym2612"
    },
    {
      "channel": 3,
      "note": 64,
      "start": 64.5791,
      "duration": 0.016,
      "velocity": 94,
      "chip": "ym2612"
    },
    {
      "channel": 2,
      "note": 73,
      "start": 64.5804,
      "duration": 0.0159,
      "velocity": 100,
      "chip": "ym2612"
    },
    {
      "channel": 1,
      "note": 68,
      "start": 64.5815,
      "duration": 0.016,
      "velocity": 94,
      "chip": "ym2612"
    },
    {
      "channel": 0,
      "note": 85,
      "start": 64.5916,
      "duration": 0.0161,
      "velocity": 127,
      "chip": "ym2612"
    },
    {
      "channel": 3,
      "note": 64,
      "start": 64.5951,
      "duration": 0.0161,
      "velocity": 94,
      "chip": "ym2612"
    },
    {
      "channel": 2,
      "note": 73,
      "start": 64.5963,
      "duration": 0.0161,
      "velocity": 100,
      "chip": "ym2612"
    },
    {
      "channel": 1,
      "note": 68,
      "start": 64.5975,
      "duration": 0.0161,
      "velocity": 94,
      "chip": "ym2612"
    },
    {
      "channel": 0,
      "note": 83,
      "start": 64.6077,
      "duration": 0.0161,
      "velocity": 127,
      "chip": "ym2612"
    },
    {
      "channel": 3,
      "note": 64,
      "start": 64.6112,
      "duration": 0.0161,
      "velocity": 94,
      "chip": "ym2612"
    },
    {
      "channel": 2,
      "note": 73,
      "start": 64.6124,
      "duration": 0.0162,
      "velocity": 100,
      "chip": "ym2612"
    },
    {
      "channel": 1,
      "note": 68,
      "start": 64.6136,
      "duration": 0.0161,
      "velocity": 94,
      "chip": "ym2612"
    },
    {
      "channel": 0,
      "note": 81,
      "start": 64.6238,
      "duration": 0.0161,
      "velocity": 127,
      "chip": "ym2612"
    },
    {
      "channel": 3,
      "note": 64,
      "start": 64.6273,
      "duration": 0.0161,
      "velocity": 94,
      "chip": "ym2612"
    },
    {
      "channel": 2,
      "note": 73,
      "start": 64.6285,
      "duration": 0.0161,
      "velocity": 100,
      "chip": "ym2612"
    },
    {
      "channel": 1,
      "note": 68,
      "start": 64.6297,
      "duration": 0.0161,
      "velocity": 94,
      "chip": "ym2612"
    },
    {
      "channel": 0,
      "note": 80,
      "start": 64.6399,
      "duration": 0.0161,
      "velocity": 127,
      "chip": "ym2612"
    },
    {
      "channel": 3,
      "note": 64,
      "start": 64.6434,
      "duration": 0.0161,
      "velocity": 94,
      "chip": "ym2612"
    },
    {
      "channel": 2,
      "note": 73,
      "start": 64.6446,
      "duration": 0.0161,
      "velocity": 100,
      "chip": "ym2612"
    },
    {
      "channel": 1,
      "note": 68,
      "start": 64.6458,
      "duration": 0.0161,
      "velocity": 94,
      "chip": "ym2612"
    },
    {
      "channel": 0,
      "note": 78,
      "start": 64.656,
      "duration": 0.0161,
      "velocity": 127,
      "chip": "ym2612"
    },
    {
      "channel": 3,
      "note": 64,
      "start": 64.6595,
      "duration": 0.0169,
      "velocity": 94,
      "chip": "ym2612"
    },
    {
      "channel": 2,
      "note": 73,
      "start": 64.6607,
      "duration": 0.0171,
      "velocity": 100,
      "chip": "ym2612"
    },
    {
      "channel": 1,
      "note": 68,
      "start": 64.6619,
      "duration": 0.0172,
      "velocity": 94,
      "chip": "ym2612"
    },
    {
      "channel": 0,
      "note": 76,
      "start": 64.6721,
      "duration": 0.0161,
      "velocity": 127,
      "chip": "ym2612"
    },
    {
      "channel": 5,
      "note": 73,
      "start": 64.6737,
      "duration": 0.0158,
      "velocity": 110,
      "chip": "ym2612"
    },
    {
      "channel": 4,
      "note": 76,
      "start": 64.6753,
      "duration": 0.0154,
      "velocity": 110,
      "chip": "ym2612"
    },
    {
      "channel": 3,
      "note": 64,
      "start": 64.6764,
      "duration": 0.0155,
      "velocity": 94,
      "chip": "ym2612"
    },
    {
      "channel": 2,
      "note": 61,
      "start": 64.6779,
      "duration": 0.0152,
      "velocity": 100,
      "chip": "ym2612"
    },
    {
      "channel": 1,
      "note": 68,
      "start": 64.6791,
      "duration": 0.0151,
      "velocity": 94,
      "chip": "ym2612"
    },
    {
      "channel": 0,
      "note": 75,
      "start": 64.6882,
      "duration": 0.0161,
      "velocity": 127,
      "chip": "ym2612"
    },
    {
      "channel": 5,
      "note": 73,
      "start": 64.6895,
      "duration": 0.016,
      "velocity": 110,
      "chip": "ym2612"
    },
    {
      "channel": 4,
      "note": 76,
      "start": 64.6907,
      "duration": 0.016,
      "velocity": 110,
      "chip": "ym2612"
    },
    {
      "channel": 3,
      "note": 64,
      "start": 64.6919,
      "duration": 0.016,
      "velocity": 94,
      "chip": "ym2612"
    },
    {
      "channel": 2,
      "note": 61,
      "start": 64.6931,
      "duration": 0.0159,
      "velocity": 100,
      "chip": "ym2612"
    },
    {
      "channel": 1,
      "note": 68,
      "start": 64.6943,
      "duration": 0.0159,
      "velocity": 94,
      "chip": "ym2612"
    },
    {
      "channel": 0,
      "note": 73,
      "start": 64.7043,
      "duration": 0.0162,
      "velocity": 127,
      "chip": "ym2612"
    },
    {
      "channel": 5,
      "note": 73,
      "start": 64.7055,
      "duration": 0.0162,
      "velocity": 110,
      "chip": "ym2612"
    },
    {
      "channel": 4,
      "note": 76,
      "start": 64.7067,
      "duration": 0.0161,
      "velocity": 110,
      "chip": "ym2612"
    },
    {
      "channel": 3,
      "note": 64,
      "start": 64.7079,
      "duration": 0.0162,
      "velocity": 94,
      "chip": "ym2612"
    },
    {
      "channel": 2,
      "note": 61,
      "start": 64.709,
      "duration": 0.0161,
      "velocity": 100,
      "chip": "ym2612"
    },
    {
      "channel": 1,
      "note": 68,
      "start": 64.7102,
      "duration": 0.0162,
      "velocity": 94,
      "chip": "ym2612"
    },
    {
      "channel": 0,
      "note": 71,
      "start": 64.7205,
      "duration": 0.0162,
      "velocity": 127,
      "chip": "ym2612"
    },
    {
      "channel": 5,
      "note": 73,
      "start": 64.7217,
      "duration": 0.0162,
      "velocity": 110,
      "chip": "ym2612"
    },
    {
      "channel": 4,
      "note": 76,
      "start": 64.7228,
      "duration": 0.0162,
      "velocity": 110,
      "chip": "ym2612"
    },
    {
      "channel": 3,
      "note": 64,
      "start": 64.724,
      "duration": 0.0162,
      "velocity": 94,
      "chip": "ym2612"
    },
    {
      "channel": 2,
      "note": 61,
      "start": 64.7252,
      "duration": 0.0163,
      "velocity": 100,
      "chip": "ym2612"
    },
    {
      "channel": 1,
      "note": 68,
      "start": 64.7263,
      "duration": 0.0163,
      "velocity": 94,
      "chip": "ym2612"
    },
    {
      "channel": 0,
      "note": 69,
      "start": 64.7367,
      "duration": 0.0163,
      "velocity": 127,
      "chip": "ym2612"
    },
    {
      "channel": 5,
      "note": 73,
      "start": 64.7379,
      "duration": 0.0163,
      "velocity": 110,
      "chip": "ym2612"
    },
    {
      "channel": 4,
      "note": 76,
      "start": 64.739,
      "duration": 0.0163,
      "velocity": 110,
      "chip": "ym2612"
    },
    {
      "channel": 2,
      "note": 61,
      "start": 64.7415,
      "duration": 0.0163,
      "velocity": 100,
      "chip": "ym2612"
    },
    {
      "channel": 1,
      "note": 68,
      "start": 64.7426,
      "duration": 0.0163,
      "velocity": 94,
      "chip": "ym2612"
    },
    {
      "channel": 0,
      "note": 68,
      "start": 64.753,
      "duration": 0.0181,
      "velocity": 127,
      "chip": "ym2612"
    },
    {
      "channel": 5,
      "note": 73,
      "start": 64.7542,
      "duration": 0.0181,
      "velocity": 110,
      "chip": "ym2612"
    },
    {
      "channel": 4,
      "note": 76,
      "start": 64.7554,
      "duration": 0.0182,
      "velocity": 110,
      "chip": "ym2612"
    },
    {
      "channel": 2,
      "note": 61,
      "start": 64.7578,
      "duration": 0.0184,
      "velocity": 100,
      "chip": "ym2612"
    },
    {
      "channel": 1,
      "note": 68,
      "start": 64.7589,
      "duration": 0.0185,
      "velocity": 94,
      "chip": "ym2612"
    },
    {
      "channel": 0,
      "note": 84,
      "start": 64.7712,
      "duration": 0.0143,
      "velocity": 127,
      "chip": "ym2612"
    },
    {
      "channel": 5,
      "note": 73,
      "start": 64.7724,
      "duration": 0.0142,
      "velocity": 110,
      "chip": "ym2612"
    },
    {
      "channel": 4,
      "note": 76,
      "start": 64.7736,
      "duration": 0.0143,
      "velocity": 110,
      "chip": "ym2612"
    },
    {
      "channel": 2,
      "note": 73,
      "start": 64.7763,
      "duration": 0.0142,
      "velocity": 100,
      "chip": "ym2612"
    },
    {
      "channel": 1,
      "note": 68,
      "start": 64.7774,
      "duration": 0.0143,
      "velocity": 94,
      "chip": "ym2612"
    },
    {
      "channel": 0,
      "note": 82,
      "start": 64.7855,
      "duration": 0.016,
      "velocity": 127,
      "chip": "ym2612"
    },
    {
      "channel": 3,
      "note": 68,
      "start": 64.7893,
      "duration": 0.0159,
      "velocity": 94,
      "chip": "ym2612"
    },
    {
      "channel": 2,
      "note": 73,
      "start": 64.7905,
      "duration": 0.0158,
      "velocity": 100,
      "chip": "ym2612"
    },
    {
      "channel": 1,
      "note": 68,
      "start": 64.7917,
      "duration": 0.0157,
      "velocity": 94,
      "chip": "ym2612"
    },
    {
      "channel": 0,
      "note": 81,
      "start": 64.8015,
      "duration": 0.0156,
      "velocity": 127,
      "chip": "ym2612"
    },
    {
      "channel": 3,
      "note": 68,
      "start": 64.8051,
      "duration": 0.016,
      "velocity": 94,
      "chip": "ym2612"
    },
    {
      "channel": 2,
      "note": 73,
      "start": 64.8063,
      "duration": 0.016,
      "velocity": 100,
      "chip": "ym2612"
    },
    {
      "channel": 1,
      "note": 68,
      "start": 64.8074,
      "duration": 0.016,
      "velocity": 94,
      "chip": "ym2612"
    },
    {
      "channel": 0,
      "note": 79,
      "start": 64.817,
      "duration": 0.0161,
      "velocity": 127,
      "chip": "ym2612"
    },
    {
      "channel": 3,
      "note": 68,
      "start": 64.8212,
      "duration": 0.0161,
      "velocity": 94,
      "chip": "ym2612"
    },
    {
      "channel": 2,
      "note": 73,
      "start": 64.8223,
      "duration": 0.0161,
      "velocity": 100,
      "chip": "ym2612"
    },
    {
      "channel": 1,
      "note": 68,
      "start": 64.8235,
      "duration": 0.0161,
      "velocity": 94,
      "chip": "ym2612"
    },
    {
      "channel": 0,
      "note": 77,
      "start": 64.8331,
      "duration": 0.0161,
      "velocity": 127,
      "chip": "ym2612"
    },
    {
      "channel": 3,
      "note": 68,
      "start": 64.8373,
      "duration": 0.0161,
      "velocity": 94,
      "chip": "ym2612"
    },
    {
      "channel": 2,
      "note": 73,
      "start": 64.8384,
      "duration": 0.0161,
      "velocity": 100,
      "chip": "ym2612"
    },
    {
      "channel": 0,
      "note": 76,
      "start": 64.8492,
      "duration": 0.0161,
      "velocity": 127,
      "chip": "ym2612"
    },
    {
      "channel": 3,
      "note": 68,
      "start": 64.8534,
      "duration": 0.0161,
      "velocity": 94,
      "chip": "ym2612"
    },
    {
      "channel": 2,
      "note": 73,
      "start": 64.8545,
      "duration": 0.0161,
      "velocity": 100,
      "chip": "ym2612"
    },
    {
      "channel": 0,
      "note": 74,
      "start": 64.8653,
      "duration": 0.018,
      "velocity": 127,
      "chip": "ym2612"
    },
    {
      "channel": 3,
      "note": 68,
      "start": 64.8695,
      "duration": 0.0186,
      "velocity": 94,
      "chip": "ym2612"
    },
    {
      "channel": 2,
      "note": 73,
      "start": 64.8706,
      "duration": 0.0189,
      "velocity": 100,
      "chip": "ym2612"
    },
    {
      "channel": 0,
      "note": 78,
      "start": 64.8833,
      "duration": 0.0143,
      "velocity": 127,
      "chip": "ym2612"
    },
    {
      "channel": 5,
      "note": 76,
      "start": 64.8854,
      "duration": 0.0134,
      "velocity": 110,
      "chip": "ym2612"
    },
    {
      "channel": 4,
      "note": 73,
      "start": 64.8869,
      "duration": 0.0131,
      "velocity": 110,
      "chip": "ym2612"
    },
    {
      "channel": 3,
      "note": 68,
      "start": 64.8881,
      "duration": 0.0137,
      "velocity": 94,
      "chip": "ym2612"
    },
    {
      "channel": 2,
      "note": 61,
      "start": 64.8895,
      "duration": 0.0135,
      "velocity": 100,
      "chip": "ym2612"
    },
    {
      "channel": 1,
      "note": 73,
      "start": 64.891,
      "duration": 0.0132,
      "velocity": 94,
      "chip": "ym2612"
    },
    {
      "channel": 0,
      "note": 76,
      "start": 64.8976,
      "duration": 0.016,
      "velocity": 127,
      "chip": "ym2612"
    },
    {
      "channel": 5,
      "note": 76,
      "start": 64.8988,
      "duration": 0.016,
      "velocity": 110,
      "chip": "ym2612"
    },
    {
      "channel": 4,
      "note": 73,
      "start": 64.9,
      "duration": 0.0159,
      "velocity": 110,
      "chip": "ym2612"
    },
    {
      "channel": 3,
      "note": 68,
      "start": 64.9018,
      "duration": 0.0156,
      "velocity": 94,
      "chip": "ym2612"
    },
    {
      "channel": 2,
      "note": 61,
      "start": 64.903,
      "duration": 0.0159,
      "velocity": 100,
      "chip": "ym2612"
    },
    {
      "channel": 1,
      "note": 73,
      "start": 64.9042,
      "duration": 0.0159,
      "velocity": 94,
      "chip": "ym2612"
    },
    {
      "channel": 0,
      "note": 75,
      "start": 64.9136,
      "duration": 0.0161,
      "velocity": 127,
      "chip": "ym2612"
    },
    {
      "channel": 5,
      "note": 76,
      "start": 64.9148,
      "duration": 0.0161,
      "velocity": 110,
      "chip": "ym2612"
    },
    {
      "channel": 4,
      "note": 73,
      "start": 64.9159,
      "duration": 0.0162,
      "velocity": 110,
      "chip": "ym2612"
    },
    {
      "channel": 3,
      "note": 68,
      "start": 64.9173,
      "duration": 0.0159,
      "velocity": 94,
      "chip": "ym2612"
    },
    {
      "channel": 2,
      "note": 61,
      "start": 64.9189,
      "duration": 0.0161,
      "velocity": 100,
      "chip": "ym2612"
    },
    {
      "channel": 1,
      "note": 73,
      "start": 64.9201,
      "duration": 0.0161,
      "velocity": 94,
      "chip": "ym2612"
    },
    {
      "channel": 0,
      "note": 73,
      "start": 64.9298,
      "duration": 0.0161,
      "velocity": 127,
      "chip": "ym2612"
    },
    {
      "channel": 5,
      "note": 76,
      "start": 64.9309,
      "duration": 0.0161,
      "velocity": 110,
      "chip": "ym2612"
    },
    {
      "channel": 4,
      "note": 73,
      "start": 64.9321,
      "duration": 0.0161,
      "velocity": 110,
      "chip": "ym2612"
    },
    {
      "channel": 3,
      "note": 68,
      "start": 64.9333,
      "duration": 0.0161,
      "velocity": 94,
      "chip": "ym2612"
    },
    {
      "channel": 2,
      "note": 61,
      "start": 64.935,
      "duration": 0.0157,
      "velocity": 100,
      "chip": "ym2612"
    },
    {
      "channel": 1,
      "note": 73,
      "start": 64.9362,
      "duration": 0.0161,
      "velocity": 94,
      "chip": "ym2612"
    },
    {
      "channel": 0,
      "note": 71,
      "start": 64.9459,
      "duration": 0.0161,
      "velocity": 127,
      "chip": "ym2612"
    },
    {
      "channel": 5,
      "note": 76,
      "start": 64.947,
      "duration": 0.0161,
      "velocity": 110,
      "chip": "ym2612"
    },
    {
      "channel": 4,
      "note": 73,
      "start": 64.9482,
      "duration": 0.0161,
      "velocity": 110,
      "chip": "ym2612"
    },
    {
      "channel": 3,
      "note": 68,
      "start": 64.9493,
      "duration": 0.0161,
      "velocity": 94,
      "chip": "ym2612"
    },
    {
      "channel": 2,
      "note": 61,
      "start": 64.9507,
      "duration": 0.0159,
      "velocity": 100,
      "chip": "ym2612"
    },
    {
      "channel": 1,
      "note": 73,
      "start": 64.9523,
      "duration": 0.016,
      "velocity": 94,
      "chip": "ym2612"
    },
    {
      "channel": 0,
      "note": 70,
      "start": 64.962,
      "duration": 0.0179,
      "velocity": 115,
      "chip": "ym2612"
    },
    {
      "channel": 5,
      "note": 76,
      "start": 64.9631,
      "duration": 0.018,
      "velocity": 110,
      "chip": "ym2612"
    },
    {
      "channel": 4,
      "note": 73,
      "start": 64.9643,
      "duration": 0.0179,
      "velocity": 110,
      "chip": "ym2612"
    },
    {
      "channel": 3,
      "note": 68,
      "start": 64.9654,
      "duration": 0.018,
      "velocity": 94,
      "chip": "ym2612"
    },
    {
      "channel": 2,
      "note": 61,
      "start": 64.9666,
      "duration": 0.0185,
      "velocity": 100,
      "chip": "ym2612"
    },
    {
      "channel": 1,
      "note": 73,
      "start": 64.9683,
      "duration": 0.018,
      "velocity": 94,
      "chip": "ym2612"
    },
    {
      "channel": 0,
      "note": 36,
      "start": 64.9799,
      "duration": 0.0143,
      "velocity": 115,
      "chip": "ym2612"
    },
    {
      "channel": 5,
      "note": 76,
      "start": 64.9811,
      "duration": 0.0143,
      "velocity": 110,
      "chip": "ym2612"
    },
    {
      "channel": 4,
      "note": 73,
      "start": 64.9822,
      "duration": 0.0144,
      "velocity": 110,
      "chip": "ym2612"
    },
    {
      "channel": 3,
      "note": 68,
      "start": 64.9834,
      "duration": 0.0143,
      "velocity": 94,
      "chip": "ym2612"
    },
    {
      "channel": 2,
      "note": 61,
      "start": 64.9851,
      "duration": 0.0138,
      "velocity": 100,
      "chip": "ym2612"
    },
    {
      "channel": 1,
      "note": 73,
      "start": 64.9863,
      "duration": 0.0138,
      "velocity": 94,
      "chip": "ym2612"
    },
    {
      "channel": 0,
      "note": 36,
      "start": 64.9942,
      "duration": 0.016,
      "velocity": 115,
      "chip": "ym2612"
    },
    {
      "channel": 3,
      "note": 68,
      "start": 64.9978,
      "duration": 0.016,
      "velocity": 94,
      "chip": "ym2612"
    },
    {
      "channel": 2,
      "note": 61,
      "start": 64.9989,
      "duration": 0.016,
      "velocity": 100,
      "chip": "ym2612"
    },
    {
      "channel": 1,
      "note": 73,
      "start": 65.0001,
      "duration": 0.016,
      "velocity": 94,
      "chip": "ym2612"
    },
    {
      "channel": 0,
      "note": 37,
      "start": 65.0102,
      "duration": 0.0161,
      "velocity": 115,
      "chip": "ym2612"
    },
    {
      "channel": 3,
      "note": 68,
      "start": 65.0138,
      "duration": 0.0161,
      "velocity": 94,
      "chip": "ym2612"
    },
    {
      "channel": 2,
      "note": 61,
      "start": 65.0149,
      "duration": 0.0161,
      "velocity": 100,
      "chip": "ym2612"
    },
    {
      "channel": 1,
      "note": 73,
      "start": 65.0161,
      "duration": 0.0161,
      "velocity": 94,
      "chip": "ym2612"
    },
    {
      "channel": 0,
      "note": 37,
      "start": 65.0263,
      "duration": 0.0161,
      "velocity": 115,
      "chip": "ym2612"
    },
    {
      "channel": 3,
      "note": 68,
      "start": 65.0299,
      "duration": 0.0161,
      "velocity": 94,
      "chip": "ym2612"
    },
    {
      "channel": 2,
      "note": 61,
      "start": 65.031,
      "duration": 0.0161,
      "velocity": 100,
      "chip": "ym2612"
    },
    {
      "channel": 1,
      "note": 73,
      "start": 65.0322,
      "duration": 0.0161,
      "velocity": 94,
      "chip": "ym2612"
    },
    {
      "channel": 0,
      "note": 38,
      "start": 65.0424,
      "duration": 0.0162,
      "velocity": 115,
      "chip": "ym2612"
    },
    {
      "channel": 3,
      "note": 68,
      "start": 65.046,
      "duration": 0.0161,
      "velocity": 94,
      "chip": "ym2612"
    },
    {
      "channel": 2,
      "note": 61,
      "start": 65.0471,
      "duration": 0.0161,
      "velocity": 100,
      "chip": "ym2612"
    },
    {
      "channel": 1,
      "note": 73,
      "start": 65.0483,
      "duration": 0.0161,
      "velocity": 94,
      "chip": "ym2612"
    },
    {
      "channel": 0,
      "note": 38,
      "start": 65.0586,
      "duration": 0.0161,
      "velocity": 115,
      "chip": "ym2612"
    },
    {
      "channel": 3,
      "note": 68,
      "start": 65.0621,
      "duration": 0.0161,
      "velocity": 94,
      "chip": "ym2612"
    },
    {
      "channel": 2,
      "note": 61,
      "start": 65.0632,
      "duration": 0.0161,
      "velocity": 100,
      "chip": "ym2612"
    },
    {
      "channel": 1,
      "note": 73,
      "start": 65.0644,
      "duration": 0.0162,
      "velocity": 94,
      "chip": "ym2612"
    },
    {
      "channel": 0,
      "note": 39,
      "start": 65.0747,
      "duration": 0.0179,
      "velocity": 124,
      "chip": "ym2612"
    },
    {
      "channel": 3,
      "note": 68,
      "start": 65.0782,
      "duration": 0.0188,
      "velocity": 94,
      "chip": "ym2612"
    },
    {
      "channel": 2,
      "note": 61,
      "start": 65.0793,
      "duration": 0.019,
      "velocity": 100,
      "chip": "ym2612"
    },
    {
      "channel": 1,
      "note": 73,
      "start": 65.0805,
      "duration": 0.019,
      "velocity": 94,
      "chip": "ym2612"
    },
    {
      "channel": 0,
      "note": 84,
      "start": 65.0926,
      "duration": 0.0143,
      "velocity": 124,
      "chip": "ym2612"
    },
    {
      "channel": 5,
      "note": 73,
      "start": 65.0942,
      "duration": 0.0139,
      "velocity": 110,
      "chip": "ym2612"
    },
    {
      "channel": 4,
      "note": 76,
      "start": 65.0958,
      "duration": 0.0136,
      "velocity": 110,
      "chip": "ym2612"
    },
    {
      "channel": 3,
      "note": 68,
      "start": 65.0969,
      "duration": 0.0136,
      "velocity": 94,
      "chip": "ym2612"
    },
    {
      "channel": 2,
      "note": 56,
      "start": 65.0984,
      "duration": 0.0134,
      "velocity": 100,
      "chip": "ym2612"
    },
    {
      "channel": 1,
      "note": 73,
      "start": 65.0995,
      "duration": 0.0134,
      "velocity": 94,
      "chip": "ym2612"
    },
    {
      "channel": 0,
      "note": 82,
      "start": 65.1069,
      "duration": 0.016,
      "velocity": 124,
      "chip": "ym2612"
    },
    {
      "channel": 5,
      "note": 73,
      "start": 65.1081,
      "duration": 0.016,
      "velocity": 110,
      "chip": "ym2612"
    },
    {
      "channel": 4,
      "note": 76,
      "start": 65.1094,
      "duration": 0.0159,
      "velocity": 110,
      "chip": "ym2612"
    },
    {
      "channel": 3,
      "note": 68,
      "start": 65.1105,
      "duration": 0.016,
      "velocity": 94,
      "chip": "ym2612"
    },
    {
      "channel": 2,
      "note": 56,
      "start": 65.1117,
      "duration": 0.0159,
      "velocity": 100,
      "chip": "ym2612"
    },
    {
      "channel": 1,
      "note": 73,
      "start": 65.113,
      "duration": 0.0158,
      "velocity": 94,
      "chip": "ym2612"
    },
    {
      "channel": 0,
      "note": 80,
      "start": 65.1229,
      "duration": 0.0161,
      "velocity": 124,
      "chip": "ym2612"
    },
    {
      "channel": 5,
      "note": 73,
      "start": 65.1241,
      "duration": 0.0161,
      "velocity": 110,
      "chip": "ym2612"
    },
    {
      "channel": 4,
      "note": 76,
      "start": 65.1253,
      "duration": 0.0161,
      "velocity": 110,
      "chip": "ym2612"
    },
    {
      "channel": 3,
      "note": 68,
      "start": 65.1265,
      "duration": 0.0161,
      "velocity": 94,
      "chip": "ym2612"
    },
    {
      "channel": 2,
      "note": 56,
      "start": 65.1277,
      "duration": 0.0161,
      "velocity": 100,
      "chip": "ym2612"
    },
    {
      "channel": 1,
      "note": 73,
      "start": 65.1288,
      "duration": 0.0161,
      "velocity": 94,
      "chip": "ym2612"
    },
    {
      "channel": 0,
      "note": 77,
      "start": 65.139,
      "duration": 0.0161,
      "velocity": 124,
      "chip": "ym2612"
    },
    {
      "channel": 5,
      "note": 73,
      "start": 65.1402,
      "duration": 0.0161,
      "velocity": 110,
      "chip": "ym2612"
    },
    {
      "channel": 4,
      "note": 76,
      "start": 65.1414,
      "duration": 0.0161,
      "velocity": 110,
      "chip": "ym2612"
    },
    {
      "channel": 3,
      "note": 68,
      "start": 65.1426,
      "duration": 0.0161,
      "velocity": 94,
      "chip": "ym2612"
    },
    {
      "channel": 2,
      "note": 56,
      "start": 65.1437,
      "duration": 0.0161,
      "velocity": 100,
      "chip": "ym2612"
    },
    {
      "channel": 1,
      "note": 73,
      "start": 65.1449,
      "duration": 0.0161,
      "velocity": 94,
      "chip": "ym2612"
    },
    {
      "channel": 0,
      "note": 75,
      "start": 65.1551,
      "duration": 0.0161,
      "velocity": 124,
      "chip": "ym2612"
    },
    {
      "channel": 5,
      "note": 73,
      "start": 65.1563,
      "duration": 0.0161,
      "velocity": 110,
      "chip": "ym2612"
    },
    {
      "channel": 4,
      "note": 76,
      "start": 65.1575,
      "duration": 0.0161,
      "velocity": 110,
      "chip": "ym2612"
    },
    {
      "channel": 2,
      "note": 56,
      "start": 65.1598,
      "duration": 0.0161,
      "velocity": 100,
      "chip": "ym2612"
    },
    {
      "channel": 1,
      "note": 73,
      "start": 65.161,
      "duration": 0.016,
      "velocity": 94,
      "chip": "ym2612"
    },
    {
      "channel": 0,
      "note": 72,
      "start": 65.1713,
      "duration": 0.0179,
      "velocity": 124,
      "chip": "ym2612"
    },
    {
      "channel": 5,
      "note": 73,
      "start": 65.1724,
      "duration": 0.0179,
      "velocity": 110,
      "chip": "ym2612"
    },
    {
      "channel": 4,
      "note": 76,
      "start": 65.1736,
      "duration": 0.018,
      "velocity": 110,
      "chip": "ym2612"
    },
    {
      "channel": 2,
      "note": 56,
      "start": 65.1759,
      "duration": 0.0179,
      "velocity": 100,
      "chip": "ym2612"
    },
    {
      "channel": 1,
      "note": 73,
      "start": 65.1771,
      "duration": 0.018,
      "velocity": 94,
      "chip": "ym2612"
    },
    {
      "channel": 0,
      "note": 84,
      "start": 65.1892,
      "duration": 0.0144,
      "velocity": 124,
      "chip": "ym2612"
    },
    {
      "channel": 5,
      "note": 73,
      "start": 65.1904,
      "duration": 0.0144,
      "velocity": 110,
      "chip": "ym2612"
    },
    {
      "channel": 4,
      "note": 76,
      "start": 65.1916,
      "duration": 0.0144,
      "velocity": 110,
      "chip": "ym2612"
    },
    {
      "channel": 2,
      "note": 56,
      "start": 65.1939,
      "duration": 0.0147,
      "velocity": 100,
      "chip": "ym2612"
    },
    {
      "channel": 1,
      "note": 73,
      "start": 65.1951,
      "duration": 0.0147,
      "velocity": 94,
      "chip": "ym2612"
    },
    {
      "channel": 0,
      "note": 82,
      "start": 65.2036,
      "duration": 0.0163,
      "velocity": 124,
      "chip": "ym2612"
    },
    {
      "channel": 3,
      "note": 73,
      "start": 65.2074,
      "duration": 0.0161,
      "velocity": 94,
      "chip": "ym2612"
    },
    {
      "channel": 2,
      "note": 56,
      "start": 65.2086,
      "duration": 0.0161,
      "velocity": 100,
      "chip": "ym2612"
    },
    {
      "channel": 1,
      "note": 73,
      "start": 65.2098,
      "duration": 0.0161,
      "velocity": 94,
      "chip": "ym2612"
    },
    {
      "channel": 0,
      "note": 80,
      "start": 65.22,
      "duration": 0.0163,
      "velocity": 124,
      "chip": "ym2612"
    },
    {
      "channel": 3,
      "note": 73,
      "start": 65.2235,
      "duration": 0.0163,
      "velocity": 94,
      "chip": "ym2612"
    },
    {
      "channel": 2,
      "note": 56,
      "start": 65.2247,
      "duration": 0.0163,
      "velocity": 100,
      "chip": "ym2612"
    },
    {
      "channel": 1,
      "note": 73,
      "start": 65.2259,
      "duration": 0.0162,
      "velocity": 94,
      "chip": "ym2612"
    },
    {
      "channel": 0,
      "note": 77,
      "start": 65.2362,
      "duration": 0.0161,
      "velocity": 124,
      "chip": "ym2612"
    },
    {
      "channel": 3,
      "note": 73,
      "start": 65.2398,
      "duration": 0.0161,
      "velocity": 94,
      "chip": "ym2612"
    },
    {
      "channel": 2,
      "note": 56,
      "start": 65.241,
      "duration": 0.0161,
      "velocity": 100,
      "chip": "ym2612"
    },
    {
      "channel": 1,
      "note": 73,
      "start": 65.2421,
      "duration": 0.0161,
      "velocity": 94,
      "chip": "ym2612"
    },
    {
      "channel": 0,
      "note": 75,
      "start": 65.2523,
      "duration": 0.0161,
      "velocity": 124,
      "chip": "ym2612"
    },
    {
      "channel": 3,
      "note": 73,
      "start": 65.2559,
      "duration": 0.0161,
      "velocity": 94,
      "chip": "ym2612"
    },
    {
      "channel": 2,
      "note": 56,
      "start": 65.2571,
      "duration": 0.0161,
      "velocity": 100,
      "chip": "ym2612"
    },
    {
      "channel": 0,
      "note": 72,
      "start": 65.2684,
      "duration": 0.0158,
      "velocity": 124,
      "chip": "ym2612"
    },
    {
      "channel": 3,
      "note": 73,
      "start": 65.272,
      "duration": 0.0161,
      "velocity": 94,
      "chip": "ym2612"
    },
    {
      "channel": 2,
      "note": 56,
      "start": 65.2731,
      "duration": 0.0161,
      "velocity": 100,
      "chip": "ym2612"
    },
    {
      "channel": 0,
      "note": 70,
      "start": 65.2842,
      "duration": 0.0183,
      "velocity": 115,
      "chip": "ym2612"
    },
    {
      "channel": 3,
      "note": 73,
      "start": 65.2881,
      "duration": 0.0186,
      "velocity": 94,
      "chip": "ym2612"
    },
    {
      "channel": 2,
      "note": 56,
      "start": 65.2892,
      "duration": 0.019,
      "velocity": 100,
      "chip": "ym2612"
    },
    {
      "channel": 0,
      "note": 36,
      "start": 65.3025,
      "duration": 0.0137,
      "velocity": 115,
      "chip": "ym2612"
    },
    {
      "channel": 5,
      "note": 76,
      "start": 65.3041,
      "duration": 0.0139,
      "velocity": 110,
      "chip": "ym2612"
    },
    {
      "channel": 4,
      "note": 73,
      "start": 65.3055,
      "duration": 0.0138,
      "velocity": 110,
      "chip": "ym2612"
    },
    {
      "channel": 3,
      "note": 73,
      "start": 65.3067,
      "duration": 0.0137,
      "velocity": 94,
      "chip": "ym2612"
    },
    {
      "channel": 2,
      "note": 54,
      "start": 65.3083,
      "duration": 0.0134,
      "velocity": 100,
      "chip": "ym2612"
    },
    {
      "channel": 1,
      "note": 66,
      "start": 65.3097,
      "duration": 0.0132,
      "velocity": 94,
      "chip": "ym2612"
    },
    {
      "channel": 0,
      "note": 36,
      "start": 65.3162,
      "duration": 0.016,
      "velocity": 115,
      "chip": "ym2612"
    },
    {
      "channel": 5,
      "note": 76,
      "start": 65.318,
      "duration": 0.0155,
      "velocity": 110,
      "chip": "ym2612"
    },
    {
      "channel": 4,
      "note": 73,
      "start": 65.3193,
      "duration": 0.0159,
      "velocity": 110,
      "chip": "ym2612"
    },
    {
      "channel": 3,
      "note": 73,
      "start": 65.3205,
      "duration": 0.0159,
      "velocity": 94,
      "chip": "ym2612"
    },
    {
      "channel": 2,
      "note": 54,
      "start": 65.3217,
      "duration": 0.0159,
      "velocity": 100,
      "chip": "ym2612"
    },
    {
      "channel": 1,
      "note": 66,
      "start": 65.3229,
      "duration": 0.0158,
      "velocity": 94,
      "chip": "ym2612"
    },
    {
      "channel": 0,
      "note": 37,
      "start": 65.3322,
      "duration": 0.0161,
      "velocity": 115,
      "chip": "ym2612"
    },
    {
      "channel": 5,
      "note": 76,
      "start": 65.3334,
      "duration": 0.0161,
      "velocity": 110,
      "chip": "ym2612"
    },
    {
      "channel": 4,
      "note": 73,
      "start": 65.3352,
      "duration": 0.0158,
      "velocity": 110,
      "chip": "ym2612"
    },
    {
      "channel": 3,
      "note": 73,
      "start": 65.3364,
      "duration": 0.0161,
      "velocity": 94,
      "chip": "ym2612"
    },
    {
      "channel": 2,
      "note": 54,
      "start": 65.3376,
      "duration": 0.016,
      "velocity": 100,
      "chip": "ym2612"
    },
    {
      "channel": 1,
      "note": 66,
      "start": 65.3387,
      "duration": 0.0161,
      "velocity": 94,
      "chip": "ym2612"
    },
    {
      "channel": 0,
      "note": 37,
      "start": 65.3484,
      "duration": 0.0161,
      "velocity": 115,
      "chip": "ym2612"
    },
    {
      "channel": 5,
      "note": 76,
      "start": 65.3495,
      "duration": 0.0161,
      "velocity": 110,
      "chip": "ym2612"
    },
    {
      "channel": 4,
      "note": 73,
      "start": 65.3509,
      "duration": 0.0159,
      "velocity": 110,
      "chip": "ym2612"
    },
    {
      "channel": 3,
      "note": 73,
      "start": 65.3525,
      "duration": 0.016,
      "velocity": 94,
      "chip": "ym2612"
    },
    {
      "channel": 2,
      "note": 54,
      "start": 65.3536,
      "duration": 0.0162,
      "velocity": 100,
      "chip": "ym2612"
    },
    {
      "channel": 1,
      "note": 66,
      "start": 65.3548,
      "duration": 0.0161,
      "velocity": 94,
      "chip": "ym2612"
    },
    {
      "channel": 0,
      "note": 38,
      "start": 65.3645,
      "duration": 0.0161,
      "velocity": 115,
      "chip": "ym2612"
    },
    {
      "channel": 5,
      "note": 76,
      "start": 65.3656,
      "duration": 0.0161,
      "velocity": 110,
      "chip": "ym2612"
    },
    {
      "channel": 4,
      "note": 73,
      "start": 65.3668,
      "duration": 0.0161,
      "velocity": 110,
      "chip": "ym2612"
    },
    {
      "channel": 3,
      "note": 73,
      "start": 65.3685,
      "duration": 0.0158,
      "velocity": 94,
      "chip": "ym2612"
    },
    {
      "channel": 2,
      "note": 54,
      "start": 65.3698,
      "duration": 0.0161,
      "velocity": 100,
      "chip": "ym2612"
    },
    {
      "channel": 1,
      "note": 66,
      "start": 65.3709,
      "duration": 0.0161,
      "velocity": 94,
      "chip": "ym2612"
    },
    {
      "channel": 0,
      "note": 38,
      "start": 65.3806,
      "duration": 0.0161,
      "velocity": 115,
      "chip": "ym2612"
    },
    {
      "channel": 5,
      "note": 76,
      "start": 65.3817,
      "duration": 0.0161,
      "velocity": 110,
      "chip": "ym2612"
    },
    {
      "channel": 4,
      "note": 73,
      "start": 65.3829,
      "duration": 0.0161,
      "velocity": 110,
      "chip": "ym2612"
    },
    {
      "channel": 3,
      "note": 73,
      "start": 65.3843,
      "duration": 0.0159,
      "velocity": 94,
      "chip": "ym2612"
    },
    {
      "channel": 2,
      "note": 54,
      "start": 65.3859,
      "duration": 0.016,
      "velocity": 100,
      "chip": "ym2612"
    },
    {
      "channel": 1,
      "note": 66,
      "start": 65.387,
      "duration": 0.0161,
      "velocity": 94,
      "chip": "ym2612"
    },
    {
      "channel": 0,
      "note": 39,
      "start": 65.3967,
      "duration": 0.0161,
      "velocity": 115,
      "chip": "ym2612"
    },
    {
      "channel": 5,
      "note": 76,
      "start": 65.3978,
      "duration": 0.0161,
      "velocity": 110,
      "chip": "ym2612"
    },
    {
      "channel": 4,
      "note": 73,
      "start": 65.399,
      "duration": 0.0161,
      "velocity": 110,
      "chip": "ym2612"
    },
    {
      "channel": 3,
      "note": 73,
      "start": 65.4002,
      "duration": 0.0161,
      "velocity": 94,
      "chip": "ym2612"
    },
    {
      "channel": 2,
      "note": 54,
      "start": 65.4019,
      "duration": 0.0161,
      "velocity": 100,
      "chip": "ym2612"
    },
    {
      "channel": 1,
      "note": 66,
      "start": 65.4031,
      "duration": 0.0161,
      "velocity": 94,
      "chip": "ym2612"
    },
    {
      "channel": 0,
      "note": 39,
      "start": 65.4128,
      "duration": 0.0161,
      "velocity": 115,
      "chip": "ym2612"
    },
    {
      "channel": 3,
      "note": 73,
      "start": 65.4163,
      "duration": 0.0161,
      "velocity": 94,
      "chip": "ym2612"
    },
    {
      "channel": 2,
      "note": 54,
      "start": 65.418,
      "duration": 0.0156,
      "velocity": 100,
      "chip": "ym2612"
    },
    {
      "channel": 1,
      "note": 66,
      "start": 65.4193,
      "duration": 0.016,
      "velocity": 94,
      "chip": "ym2612"
    },
    {
      "channel": 0,
      "note": 40,
      "start": 65.4289,
      "duration": 0.0161,
      "velocity": 115,
      "chip": "ym2612"
    },
    {
      "channel": 3,
      "note": 73,
      "start": 65.4324,
      "duration": 0.0161,
      "velocity": 94,
      "chip": "ym2612"
    },
    {
      "channel": 2,
      "note": 54,
      "start": 65.4336,
      "duration": 0.0161,
      "velocity": 100,
      "chip": "ym2612"
    },
    {
      "channel": 1,
      "note": 66,
      "start": 65.4352,
      "duration": 0.0162,
      "velocity": 94,
      "chip": "ym2612"
    },
    {
      "channel": 0,
      "note": 40,
      "start": 65.445,
      "duration": 0.0161,
      "velocity": 115,
      "chip": "ym2612"
    },
    {
      "channel": 3,
      "note": 73,
      "start": 65.4485,
      "duration": 0.0161,
      "velocity": 94,
      "chip": "ym2612"
    },
    {
      "channel": 2,
      "note": 54,
      "start": 65.4497,
      "duration": 0.0161,
      "velocity": 100,
      "chip": "ym2612"
    },
    {
      "channel": 1,
      "note": 66,
      "start": 65.4514,
      "duration": 0.0155,
      "velocity": 94,
      "chip": "ym2612"
    },
    {
      "channel": 0,
      "note": 40,
      "start": 65.461,
      "duration": 0.0162,
      "velocity": 115,
      "chip": "ym2612"
    },
    {
      "channel": 3,
      "note": 73,
      "start": 65.4646,
      "duration": 0.0161,
      "velocity": 94,
      "chip": "ym2612"
    },
    {
      "channel": 2,
      "note": 54,
      "start": 65.4658,
      "duration": 0.0161,
      "velocity": 100,
      "chip": "ym2612"
    },
    {
      "channel": 1,
      "note": 66,
      "start": 65.4669,
      "duration": 0.0161,
      "velocity": 94,
      "chip": "ym2612"
    },
    {
      "channel": 0,
      "note": 41,
      "start": 65.4772,
      "duration": 0.0161,
      "velocity": 115,
      "chip": "ym2612"
    },
    {
      "channel": 3,
      "note": 73,
      "start": 65.4807,
      "duration": 0.0161,
      "velocity": 94,
      "chip": "ym2612"
    },
    {
      "channel": 2,
      "note": 54,
      "start": 65.4819,
      "duration": 0.0161,
      "velocity": 100,
      "chip": "ym2612"
    },
    {
      "channel": 1,
      "note": 66,
      "start": 65.483,
      "duration": 0.0161,
      "velocity": 94,
      "chip": "ym2612"
    },
    {
      "channel": 0,
      "note": 41,
      "start": 65.4933,
      "duration": 0.0161,
      "velocity": 115,
      "chip": "ym2612"
    },
    {
      "channel": 3,
      "note": 73,
      "start": 65.4968,
      "duration": 0.0172,
      "velocity": 94,
      "chip": "ym2612"
    },
    {
      "channel": 2,
      "note": 54,
      "start": 65.498,
      "duration": 0.0172,
      "velocity": 100,
      "chip": "ym2612"
    },
    {
      "channel": 1,
      "note": 66,
      "start": 65.4991,
      "duration": 0.0172,
      "velocity": 94,
      "chip": "ym2612"
    },
    {
      "channel": 0,
      "note": 42,
      "start": 65.5094,
      "duration": 0.0161,
      "velocity": 115,
      "chip": "ym2612"
    },
    {
      "channel": 5,
      "note": 76,
      "start": 65.5111,
      "duration": 0.0156,
      "velocity": 110,
      "chip": "ym2612"
    },
    {
      "channel": 4,
      "note": 78,
      "start": 65.5128,
      "duration": 0.0151,
      "velocity": 110,
      "chip": "ym2612"
    },
    {
      "channel": 3,
      "note": 73,
      "start": 65.514,
      "duration": 0.0151,
      "velocity": 94,
      "chip": "ym2612"
    },
    {
      "channel": 2,
      "note": 54,
      "start": 65.5152,
      "duration": 0.0151,
      "velocity": 100,
      "chip": "ym2612"
    },
    {
      "channel": 1,
      "note": 66,
      "start": 65.5163,
      "duration": 0.0151,
      "velocity": 94,
      "chip": "ym2612"
    },
    {
      "channel": 0,
      "note": 42,
      "start": 65.5255,
      "duration": 0.0161,
      "velocity": 115,
      "chip": "ym2612"
    },
    {
      "channel": 5,
      "note": 76,
      "start": 65.5267,
      "duration": 0.016,
      "velocity": 110,
      "chip": "ym2612"
    },
    {
      "channel": 4,
      "note": 78,
      "start": 65.528,
      "duration": 0.016,
      "velocity": 110,
      "chip": "ym2612"
    },
    {
      "channel": 3,
      "note": 73,
      "start": 65.5291,
      "duration": 0.016,
      "velocity": 94,
      "chip": "ym2612"
    },
    {
      "channel": 2,
      "note": 54,
      "start": 65.5303,
      "duration": 0.016,
      "velocity": 100,
      "chip": "ym2612"
    },
    {
      "channel": 1,
      "note": 66,
      "start": 65.5315,
      "duration": 0.016,
      "velocity": 94,
      "chip": "ym2612"
    },
    {
      "channel": 0,
      "note": 43,
      "start": 65.5416,
      "duration": 0.0161,
      "velocity": 115,
      "chip": "ym2612"
    },
    {
      "channel": 5,
      "note": 76,
      "start": 65.5427,
      "duration": 0.0161,
      "velocity": 110,
      "chip": "ym2612"
    },
    {
      "channel": 4,
      "note": 78,
      "start": 65.5439,
      "duration": 0.0161,
      "velocity": 110,
      "chip": "ym2612"
    },
    {
      "channel": 3,
      "note": 73,
      "start": 65.5451,
      "duration": 0.0162,
      "velocity": 94,
      "chip": "ym2612"
    },
    {
      "channel": 2,
      "note": 54,
      "start": 65.5463,
      "duration": 0.0161,
      "velocity": 100,
      "chip": "ym2612"
    },
    {
      "channel": 1,
      "note": 66,
      "start": 65.5474,
      "duration": 0.0161,
      "velocity": 94,
      "chip": "ym2612"
    },
    {
      "channel": 0,
      "note": 43,
      "start": 65.5577,
      "duration": 0.0161,
      "velocity": 115,
      "chip": "ym2612"
    },
    {
      "channel": 3,
      "note": 73,
      "start": 65.5612,
      "duration": 0.0161,
      "velocity": 94,
      "chip": "ym2612"
    },
    {
      "channel": 2,
      "note": 54,
      "start": 65.5624,
      "duration": 0.0161,
      "velocity": 100,
      "chip": "ym2612"
    },
    {
      "channel": 1,
      "note": 66,
      "start": 65.5635,
      "duration": 0.0161,
      "velocity": 94,
      "chip": "ym2612"
    },
    {
      "channel": 0,
      "note": 44,
      "start": 65.5738,
      "duration": 0.0161,
      "velocity": 115,
      "chip": "ym2612"
    },
    {
      "channel": 2,
      "note": 54,
      "start": 65.5785,
      "duration": 0.0161,
      "velocity": 100,
      "chip": "ym2612"
    },
    {
      "channel": 1,
      "note": 66,
      "start": 65.5796,
      "duration": 0.0161,
      "velocity": 94,
      "chip": "ym2612"
    },
    {
      "channel": 0,
      "note": 44,
      "start": 65.5899,
      "duration": 0.0179,
      "velocity": 115,
      "chip": "ym2612"
    },
    {
      "channel": 2,
      "note": 54,
      "start": 65.5946,
      "duration": 0.0188,
      "velocity": 100,
      "chip": "ym2612"
    },
    {
      "channel": 1,
      "note": 66,
      "start": 65.5957,
      "duration": 0.0189,
      "velocity": 94,
      "chip": "ym2612"
    },
    {
      "channel": 0,
      "note": 36,
      "start": 65.6079,
      "duration": 0.0143,
      "velocity": 115,
      "chip": "ym2612"
    },
    {
      "channel": 5,
      "note": 76,
      "start": 65.6093,
      "duration": 0.0141,
      "velocity": 110,
      "chip": "ym2612"
    },
    {
      "channel": 4,
      "note": 78,
      "start": 65.6108,
      "duration": 0.0138,
      "velocity": 110,
      "chip": "ym2612"
    },
    {
      "channel": 2,
      "note": 54,
      "start": 65.6135,
      "duration": 0.0138,
      "velocity": 100,
      "chip": "ym2612"
    },
    {
      "channel": 1,
      "note": 66,
      "start": 65.6146,
      "duration": 0.0139,
      "velocity": 94,
      "chip": "ym2612"
    },
    {
      "channel": 0,
      "note": 36,
      "start": 65.6221,
      "duration": 0.0161,
      "velocity": 115,
      "chip": "ym2612"
    },
    {
      "channel": 5,
      "note": 76,
      "start": 65.6234,
      "duration": 0.016,
      "velocity": 110,
      "chip": "ym2612"
    },
    {
      "channel": 4,
      "note": 78,
      "start": 65.6246,
      "duration": 0.0159,
      "velocity": 110,
      "chip": "ym2612"
    },
    {
      "channel": 3,
      "note": 66,
      "start": 65.6261,
      "duration": 0.0157,
      "velocity": 94,
      "chip": "ym2612"
    },
    {
      "channel": 2,
      "note": 54,
      "start": 65.6273,
      "duration": 0.0156,
      "velocity": 100,
      "chip": "ym2612"
    },
    {
      "channel": 1,
      "note": 66,
      "start": 65.6285,
      "duration": 0.0156,
      "velocity": 94,
      "chip": "ym2612"
    },
    {
      "channel": 0,
      "note": 37,
      "start": 65.6382,
      "duration": 0.0161,
      "velocity": 115,
      "chip": "ym2612"
    },
    {
      "channel": 5,
      "note": 76,
      "start": 65.6394,
      "duration": 0.0161,
      "velocity": 110,
      "chip": "ym2612"
    },
    {
      "channel": 4,
      "note": 78,
      "start": 65.6405,
      "duration": 0.0161,
      "velocity": 110,
      "chip": "ym2612"
    },
    {
      "channel": 3,
      "note": 66,
      "start": 65.6418,
      "duration": 0.016,
      "velocity": 94,
      "chip": "ym2612"
    },
    {
      "channel": 2,
      "note": 54,
      "start": 65.6429,
      "duration": 0.016,
      "velocity": 100,
      "chip": "ym2612"
    },
    {
      "channel": 1,
      "note": 66,
      "start": 65.6441,
      "duration": 0.016,
      "velocity": 94,
      "chip": "ym2612"
    },
    {
      "channel": 0,
      "note": 37,
      "start": 65.6543,
      "duration": 0.0162,
      "velocity": 115,
      "chip": "ym2612"
    },
    {
      "channel": 5,
      "note": 76,
      "start": 65.6555,
      "duration": 0.0161,
      "velocity": 110,
      "chip": "ym2612"
    },
    {
      "channel": 4,
      "note": 78,
      "start": 65.6566,
      "duration": 0.0162,
      "velocity": 110,
      "chip": "ym2612"
    },
    {
      "channel": 3,
      "note": 66,
      "start": 65.6578,
      "duration": 0.0162,
      "velocity": 94,
      "chip": "ym2612"
    },
    {
      "channel": 2,
      "note": 54,
      "start": 65.659,
      "duration": 0.0162,
      "velocity": 100,
      "chip": "ym2612"
    },
    {
      "channel": 1,
      "note": 66,
      "start": 65.6601,
      "duration": 0.0162,
      "velocity": 94,
      "chip": "ym2612"
    },
    {
      "channel": 0,
      "note": 38,
      "start": 65.6705,
      "duration": 0.0163,
      "velocity": 115,
      "chip": "ym2612"
    },
    {
      "channel": 3,
      "note": 66,
      "start": 65.674,
      "duration": 0.0162,
      "velocity": 94,
      "chip": "ym2612"
    },
    {
      "channel": 2,
      "note": 54,
      "start": 65.6752,
      "duration": 0.0162,
      "velocity": 100,
      "chip": "ym2612"
    },
    {
      "channel": 1,
      "note": 66,
      "start": 65.6763,
      "duration": 0.0162,
      "velocity": 94,
      "chip": "ym2612"
    },
    {
      "channel": 0,
      "note": 38,
      "start": 65.6868,
      "duration": 0.0163,
      "velocity": 115,
      "chip": "ym2612"
    },
    {
      "channel": 3,
      "note": 66,
      "start": 65.6902,
      "duration": 0.0163,
      "velocity": 94,
      "chip": "ym2612"
    },
    {
      "channel": 2,
      "note": 54,
      "start": 65.6914,
      "duration": 0.0163,
      "velocity": 100,
      "chip": "ym2612"
    },
    {
      "channel": 1,
      "note": 66,
      "start": 65.6925,
      "duration": 0.0163,
      "velocity": 94,
      "chip": "ym2612"
    },
    {
      "channel": 0,
      "note": 39,
      "start": 65.703,
      "duration": 0.0181,
      "velocity": 124,
      "chip": "ym2612"
    },
    {
      "channel": 3,
      "note": 66,
      "start": 65.7066,
      "duration": 0.0188,
      "velocity": 94,
      "chip": "ym2612"
    },
    {
      "channel": 2,
      "note": 54,
      "start": 65.7078,
      "duration": 0.0188,
      "velocity": 100,
      "chip": "ym2612"
    },
    {
      "channel": 1,
      "note": 66,
      "start": 65.7089,
      "duration": 0.0188,
      "velocity": 94,
      "chip": "ym2612"
    },
    {
      "channel": 0,
      "note": 84,
      "start": 65.7212,
      "duration": 0.0143,
      "velocity": 124,
      "chip": "ym2612"
    },
    {
      "channel": 5,
      "note": 78,
      "start": 65.7226,
      "duration": 0.0141,
      "velocity": 110,
      "chip": "ym2612"
    },
    {
      "channel": 4,
      "note": 76,
      "start": 65.7241,
      "duration": 0.0138,
      "velocity": 110,
      "chip": "ym2612"
    },
    {
      "channel": 3,
      "note": 66,
      "start": 65.7254,
      "duration": 0.0137,
      "velocity": 94,
      "chip": "ym2612"
    },
    {
      "channel": 2,
      "note": 54,
      "start": 65.7266,
      "duration": 0.0137,
      "velocity": 100,
      "chip": "ym2612"
    },
    {
      "channel": 1,
      "note": 66,
      "start": 65.7277,
      "duration": 0.0137,
      "velocity": 94,
      "chip": "ym2612"
    },
    {
      "channel": 0,
      "note": 82,
      "start": 65.7355,
      "duration": 0.016,
      "velocity": 124,
      "chip": "ym2612"
    },
    {
      "channel": 5,
      "note": 78,
      "start": 65.7367,
      "duration": 0.016,
      "velocity": 110,
      "chip": "ym2612"
    },
    {
      "channel": 4,
      "note": 76,
      "start": 65.738,
      "duration": 0.0159,
      "velocity": 110,
      "chip": "ym2612"
    },
    {
      "channel": 3,
      "note": 66,
      "start": 65.7391,
      "duration": 0.0159,
      "velocity": 94,
      "chip": "ym2612"
    },
    {
      "channel": 2,
      "note": 54,
      "start": 65.7403,
      "duration": 0.016,
      "velocity": 100,
      "chip": "ym2612"
    },
    {
      "channel": 1,
      "note": 66,
      "start": 65.7415,
      "duration": 0.016,
      "velocity": 94,
      "chip": "ym2612"
    },
    {
      "channel": 0,
      "note": 80,
      "start": 65.7515,
      "duration": 0.0156,
      "velocity": 124,
      "chip": "ym2612"
    },
    {
      "channel": 5,
      "note": 78,
      "start": 65.7527,
      "duration": 0.0162,
      "velocity": 110,
      "chip": "ym2612"
    },
    {
      "channel": 4,
      "note": 76,
      "start": 65.7539,
      "duration": 0.0161,
      "velocity": 110,
      "chip": "ym2612"
    },
    {
      "channel": 3,
      "note": 66,
      "start": 65.755,
      "duration": 0.0162,
      "velocity": 94,
      "chip": "ym2612"
    },
    {
      "channel": 2,
      "note": 54,
      "start": 65.7563,
      "duration": 0.016,
      "velocity": 100,
      "chip": "ym2612"
    },
    {
      "channel": 1,
      "note": 66,
      "start": 65.7574,
      "duration": 0.016,
      "velocity": 94,
      "chip": "ym2612"
    },
    {
      "channel": 0,
      "note": 77,
      "start": 65.767,
      "duration": 0.0161,
      "velocity": 124,
      "chip": "ym2612"
    },
    {
      "channel": 3,
      "note": 66,
      "start": 65.7712,
      "duration": 0.016,
      "velocity": 94,
      "chip": "ym2612"
    },
    {
      "channel": 2,
      "note": 54,
      "start": 65.7723,
      "duration": 0.0161,
      "velocity": 100,
      "chip": "ym2612"
    },
    {
      "channel": 1,
      "note": 66,
      "start": 65.7735,
      "duration": 0.0161,
      "velocity": 94,
      "chip": "ym2612"
    },
    {
      "channel": 0,
      "note": 75,
      "start": 65.7831,
      "duration": 0.0161,
      "velocity": 124,
      "chip": "ym2612"
    },
    {
      "channel": 3,
      "note": 66,
      "start": 65.7872,
      "duration": 0.0161,
      "velocity": 94,
      "chip": "ym2612"
    },
    {
      "channel": 2,
      "note": 54,
      "start": 65.7884,
      "duration": 0.016,
      "velocity": 100,
      "chip": "ym2612"
    },
    {
      "channel": 1,
      "note": 66,
      "start": 65.7895,
      "duration": 0.0161,
      "velocity": 94,
      "chip": "ym2612"
    },
    {
      "channel": 0,
      "note": 72,
      "start": 65.7992,
      "duration": 0.0161,
      "velocity": 124,
      "chip": "ym2612"
    },
    {
      "channel": 3,
      "note": 66,
      "start": 65.8033,
      "duration": 0.0167,
      "velocity": 94,
      "chip": "ym2612"
    },
    {
      "channel": 2,
      "note": 54,
      "start": 65.8044,
      "duration": 0.0169,
      "velocity": 100,
      "chip": "ym2612"
    },
    {
      "channel": 1,
      "note": 66,
      "start": 65.8056,
      "duration": 0.0169,
      "velocity": 94,
      "chip": "ym2612"
    },
    {
      "channel": 0,
      "note": 70,
      "start": 65.8153,
      "duration": 0.0161,
      "velocity": 124,
      "chip": "ym2612"
    },
    {
      "channel": 5,
      "note": 78,
      "start": 65.8168,
      "duration": 0.0158,
      "velocity": 110,
      "chip": "ym2612"
    },
    {
      "channel": 4,
      "note": 76,
      "start": 65.8188,
      "duration": 0.0153,
      "velocity": 110,
      "chip": "ym2612"
    },
    {
      "channel": 3,
      "note": 66,
      "start": 65.82,
      "duration": 0.0156,
      "velocity": 94,
      "chip": "ym2612"
    },
    {
      "channel": 2,
      "note": 54,
      "start": 65.8214,
      "duration": 0.0155,
      "velocity": 100,
      "chip": "ym2612"
    },
    {
      "channel": 1,
      "note": 66,
      "start": 65.8226,
      "duration": 0.0155,
      "velocity": 94,
      "chip": "ym2612"
    },
    {
      "channel": 0,
      "note": 68,
      "start": 65.8314,
      "duration": 0.0161,
      "velocity": 124,
      "chip": "ym2612"
    },
    {
      "channel": 5,
      "note": 78,
      "start": 65.8326,
      "duration": 0.016,
      "velocity": 110,
      "chip": "ym2612"
    },
    {
      "channel": 4,
      "note": 76,
      "start": 65.8341,
      "duration": 0.0158,
      "velocity": 110,
      "chip": "ym2612"
    },
    {
      "channel": 3,
      "note": 66,
      "start": 65.8356,
      "duration": 0.016,
      "velocity": 94,
      "chip": "ym2612"
    },
    {
      "channel": 2,
      "note": 54,
      "start": 65.8369,
      "duration": 0.016,
      "velocity": 100,
      "chip": "ym2612"
    },
    {
      "channel": 1,
      "note": 66,
      "start": 65.838,
      "duration": 0.016,
      "velocity": 94,
      "chip": "ym2612"
    },
    {
      "channel": 0,
      "note": 65,
      "start": 65.8475,
      "duration": 0.0161,
      "velocity": 124,
      "chip": "ym2612"
    },
    {
      "channel": 5,
      "note": 78,
      "start": 65.8486,
      "duration": 0.0162,
      "velocity": 110,
      "chip": "ym2612"
    },
    {
      "channel": 4,
      "note": 76,
      "start": 65.8499,
      "duration": 0.0161,
      "velocity": 110,
      "chip": "ym2612"
    },
    {
      "channel": 3,
      "note": 66,
      "start": 65.8516,
      "duration": 0.0158,
      "velocity": 94,
      "chip": "ym2612"
    },
    {
      "channel": 2,
      "note": 54,
      "start": 65.8529,
      "duration": 0.0161,
      "velocity": 100,
      "chip": "ym2612"
    },
    {
      "channel": 1,
      "note": 66,
      "start": 65.8541,
      "duration": 0.0161,
      "velocity": 94,
      "chip": "ym2612"
    },
    {
      "channel": 0,
      "note": 63,
      "start": 65.8636,
      "duration": 0.0153,
      "velocity": 1,
      "chip": "ym2612"
    },
    {
      "channel": 5,
      "note": 78,
      "start": 65.8648,
      "duration": 0.0153,
      "velocity": 110,
      "chip": "ym2612"
    },
    {
      "channel": 4,
      "note": 76,
      "start": 65.8659,
      "duration": 0.0154,
      "velocity": 110,
      "chip": "ym2612"
    },
    {
      "channel": 3,
      "note": 66,
      "start": 65.8673,
      "duration": 0.0151,
      "velocity": 94,
      "chip": "ym2612"
    },
    {
      "channel": 2,
      "note": 54,
      "start": 65.8689,
      "duration": 0.0148,
      "velocity": 100,
      "chip": "ym2612"
    },
    {
      "channel": 1,
      "note": 66,
      "start": 65.8702,
      "duration": 0.0153,
      "velocity": 94,
      "chip": "ym2612"
    },
    {
      "channel": 3,
      "note": 66,
      "start": 65.8824,
      "duration": 0.0152,
      "velocity": 94,
      "chip": "ym2612"
    },
    {
      "channel": 2,
      "note": 54,
      "start": 65.8837,
      "duration": 0.0152,
      "velocity": 100,
      "chip": "ym2612"
    },
    {
      "channel": 1,
      "note": 66,
      "start": 65.8854,
      "duration": 0.0146,
      "velocity": 94,
      "chip": "ym2612"
    },
    {
      "channel": 3,
      "note": 66,
      "start": 65.8976,
      "duration": 0.0161,
      "velocity": 94,
      "chip": "ym2612"
    },
    {
      "channel": 2,
      "note": 54,
      "start": 65.8989,
      "duration": 0.0161,
      "velocity": 100,
      "chip": "ym2612"
    },
    {
      "channel": 1,
      "note": 66,
      "start": 65.9,
      "duration": 0.0161,
      "velocity": 94,
      "chip": "ym2612"
    },
    {
      "channel": 3,
      "note": 66,
      "start": 65.9137,
      "duration": 0.021,
      "velocity": 94,
      "chip": "ym2612"
    },
    {
      "channel": 2,
      "note": 54,
      "start": 65.915,
      "duration": 0.0212,
      "velocity": 100,
      "chip": "ym2612"
    },
    {
      "channel": 1,
      "note": 66,
      "start": 65.9161,
      "duration": 0.0212,
      "velocity": 94,
      "chip": "ym2612"
    },
    {
      "channel": 0,
      "note": 36,
      "start": 65.9299,
      "duration": 0.0143,
      "velocity": 115,
      "chip": "ym2612"
    },
    {
      "channel": 5,
      "note": 76,
      "start": 65.9314,
      "duration": 0.014,
      "velocity": 110,
      "chip": "ym2612"
    },
    {
      "channel": 4,
      "note": 78,
      "start": 65.933,
      "duration": 0.0137,
      "velocity": 110,
      "chip": "ym2612"
    },
    {
      "channel": 3,
      "note": 66,
      "start": 65.9347,
      "duration": 0.0131,
      "velocity": 94,
      "chip": "ym2612"
    },
    {
      "channel": 2,
      "note": 49,
      "start": 65.9362,
      "duration": 0.0128,
      "velocity": 100,
      "chip": "ym2612"
    },
    {
      "channel": 1,
      "note": 66,
      "start": 65.9374,
      "duration": 0.0129,
      "velocity": 94,
      "chip": "ym2612"
    },
    {
      "channel": 0,
      "note": 36,
      "start": 65.9442,
      "duration": 0.016,
      "velocity": 115,
      "chip": "ym2612"
    },
    {
      "channel": 5,
      "note": 76,
      "start": 65.9454,
      "duration": 0.016,
      "velocity": 110,
      "chip": "ym2612"
    },
    {
      "channel": 4,
      "note": 78,
      "start": 65.9467,
      "duration": 0.0159,
      "velocity": 110,
      "chip": "ym2612"
    },
    {
      "channel": 3,
      "note": 66,
      "start": 65.9478,
      "duration": 0.0159,
      "velocity": 94,
      "chip": "ym2612"
    },
    {
      "channel": 2,
      "note": 49,
      "start": 65.949,
      "duration": 0.0159,
      "velocity": 100,
      "chip": "ym2612"
    },
    {
      "channel": 1,
      "note": 66,
      "start": 65.9502,
      "duration": 0.0158,
      "velocity": 94,
      "chip": "ym2612"
    },
    {
      "channel": 0,
      "note": 37,
      "start": 65.9602,
      "duration": 0.0161,
      "velocity": 115,
      "chip": "ym2612"
    },
    {
      "channel": 5,
      "note": 76,
      "start": 65.9614,
      "duration": 0.0161,
      "velocity": 110,
      "chip": "ym2612"
    },
    {
      "channel": 4,
      "note": 78,
      "start": 65.9626,
      "duration": 0.0161,
      "velocity": 110,
      "chip": "ym2612"
    },
    {
      "channel": 3,
      "note": 66,
      "start": 65.9637,
      "duration": 0.0161,
      "velocity": 94,
      "chip": "ym2612"
    },
    {
      "channel": 2,
      "note": 49,
      "start": 65.9649,
      "duration": 0.0161,
      "velocity": 100,
      "chip": "ym2612"
    },
    {
      "channel": 1,
      "note": 66,
      "start": 65.9661,
      "duration": 0.0161,
      "velocity": 94,
      "chip": "ym2612"
    },
    {
      "channel": 0,
      "note": 37,
      "start": 65.9763,
      "duration": 0.0161,
      "velocity": 115,
      "chip": "ym2612"
    },
    {
      "channel": 5,
      "note": 76,
      "start": 65.9775,
      "duration": 0.0161,
      "velocity": 110,
      "chip": "ym2612"
    },
    {
      "channel": 4,
      "note": 78,
      "start": 65.9787,
      "duration": 0.0161,
      "velocity": 110,
      "chip": "ym2612"
    },
    {
      "channel": 3,
      "note": 66,
      "start": 65.9798,
      "duration": 0.0161,
      "velocity": 94,
      "chip": "ym2612"
    },
    {
      "channel": 2,
      "note": 49,
      "start": 65.981,
      "duration": 0.0161,
      "velocity": 100,
      "chip": "ym2612"
    },
    {
      "channel": 1,
      "note": 66,
      "start": 65.9822,
      "duration": 0.0161,
      "velocity": 94,
      "chip": "ym2612"
    },
    {
      "channel": 0,
      "note": 38,
      "start": 65.9924,
      "duration": 0.0161,
      "velocity": 115,
      "chip": "ym2612"
    },
    {
      "channel": 5,
      "note": 76,
      "start": 65.9936,
      "duration": 0.0162,
      "velocity": 110,
      "chip": "ym2612"
    },
    {
      "channel": 4,
      "note": 78,
      "start": 65.9948,
      "duration": 0.0161,
      "velocity": 110,
      "chip": "ym2612"
    },
    {
      "channel": 3,
      "note": 66,
      "start": 65.9959,
      "duration": 0.0161,
      "velocity": 94,
      "chip": "ym2612"
    },
    {
      "channel": 2,
      "note": 49,
      "start": 65.9971,
      "duration": 0.0161,
      "velocity": 100,
      "chip": "ym2612"
    },
    {
      "channel": 1,
      "note": 66,
      "start": 65.9983,
      "duration": 0.0161,
      "velocity": 94,
      "chip": "ym2612"
    },
    {
      "channel": 0,
      "note": 38,
      "start": 66.0085,
      "duration": 0.0179,
      "velocity": 115,
      "chip": "ym2612"
    },
    {
      "channel": 5,
      "note": 76,
      "start": 66.0097,
      "duration": 0.0179,
      "velocity": 110,
      "chip": "ym2612"
    },
    {
      "channel": 4,
      "note": 78,
      "start": 66.0109,
      "duration": 0.0179,
      "velocity": 110,
      "chip": "ym2612"
    },
    {
      "channel": 3,
      "note": 66,
      "start": 66.0121,
      "duration": 0.0179,
      "velocity": 94,
      "chip": "ym2612"
    },
    {
      "channel": 2,
      "note": 49,
      "start": 66.0132,
      "duration": 0.0182,
      "velocity": 100,
      "chip": "ym2612"
    },
    {
      "channel": 1,
      "note": 66,
      "start": 66.0144,
      "duration": 0.0183,
      "velocity": 94,
      "chip": "ym2612"
    },
    {
      "channel": 0,
      "note": 36,
      "start": 66.0264,
      "duration": 0.0143,
      "velocity": 115,
      "chip": "ym2612"
    },
    {
      "channel": 5,
      "note": 76,
      "start": 66.0277,
      "duration": 0.0143,
      "velocity": 110,
      "chip": "ym2612"
    },
    {
      "channel": 4,
      "note": 78,
      "start": 66.0288,
      "duration": 0.0144,
      "velocity": 110,
      "chip": "ym2612"
    },
    {
      "channel": 3,
      "note": 66,
      "start": 66.03,
      "duration": 0.0143,
      "velocity": 94,
      "chip": "ym2612"
    },
    {
      "channel": 2,
      "note": 51,
      "start": 66.0314,
      "duration": 0.0141,
      "velocity": 100,
      "chip": "ym2612"
    },
    {
      "channel": 1,
      "note": 66,
      "start": 66.0326,
      "duration": 0.0141,
      "velocity": 94,
      "chip": "ym2612"
    },
    {
      "channel": 0,
      "note": 36,
      "start": 66.0408,
      "duration": 0.016,
      "velocity": 115,
      "chip": "ym2612"
    },
    {
      "channel": 3,
      "note": 66,
      "start": 66.0443,
      "duration": 0.016,
      "velocity": 94,
      "chip": "ym2612"
    },
    {
      "channel": 2,
      "note": 51,
      "start": 66.0455,
      "duration": 0.016,
      "velocity": 100,
      "chip": "ym2612"
    },
    {
      "channel": 1,
      "note": 66,
      "start": 66.0467,
      "duration": 0.016,
      "velocity": 94,
      "chip": "ym2612"
    },
    {
      "channel": 0,
      "note": 37,
      "start": 66.0568,
      "duration": 0.0161,
      "velocity": 115,
      "chip": "ym2612"
    },
    {
      "channel": 3,
      "note": 66,
      "start": 66.0604,
      "duration": 0.0161,
      "velocity": 94,
      "chip": "ym2612"
    },
    {
      "channel": 2,
      "note": 51,
      "start": 66.0615,
      "duration": 0.0161,
      "velocity": 100,
      "chip": "ym2612"
    },
    {
      "channel": 1,
      "note": 66,
      "start": 66.0627,
      "duration": 0.0161,
      "velocity": 94,
      "chip": "ym2612"
    },
    {
      "channel": 0,
      "note": 37,
      "start": 66.0729,
      "duration": 0.0161,
      "velocity": 115,
      "chip": "ym2612"
    },
    {
      "channel": 3,
      "note": 66,
      "start": 66.0764,
      "duration": 0.0161,
      "velocity": 94,
      "chip": "ym2612"
    },
    {
      "channel": 2,
      "note": 51,
      "start": 66.0776,
      "duration": 0.0161,
      "velocity": 100,
      "chip": "ym2612"
    },
    {
      "channel": 1,
      "note": 66,
      "start": 66.0788,
      "duration": 0.0161,
      "velocity": 94,
      "chip": "ym2612"
    },
    {
      "channel": 0,
      "note": 38,
      "start": 66.089,
      "duration": 0.0161,
      "velocity": 115,
      "chip": "ym2612"
    },
    {
      "channel": 3,
      "note": 66,
      "start": 66.0925,
      "duration": 0.0161,
      "velocity": 94,
      "chip": "ym2612"
    },
    {
      "channel": 2,
      "note": 51,
      "start": 66.0937,
      "duration": 0.0161,
      "velocity": 100,
      "chip": "ym2612"
    },
    {
      "channel": 1,
      "note": 66,
      "start": 66.0949,
      "duration": 0.0161,
      "velocity": 94,
      "chip": "ym2612"
    },
    {
      "channel": 0,
      "note": 38,
      "start": 66.1051,
      "duration": 0.0161,
      "velocity": 115,
      "chip": "ym2612"
    },
    {
      "channel": 3,
      "note": 66,
      "start": 66.1086,
      "duration": 0.0161,
      "velocity": 94,
      "chip": "ym2612"
    },
    {
      "channel": 2,
      "note": 51,
      "start": 66.1098,
      "duration": 0.0161,
      "velocity": 100,
      "chip": "ym2612"
    },
    {
      "channel": 1,
      "note": 66,
      "start": 66.111,
      "duration": 0.0161,
      "velocity": 94,
      "chip": "ym2612"
    },
    {
      "channel": 0,
      "note": 39,
      "start": 66.1212,
      "duration": 0.0179,
      "velocity": 115,
      "chip": "ym2612"
    },
    {
      "channel": 3,
      "note": 66,
      "start": 66.1247,
      "duration": 0.0186,
      "velocity": 94,
      "chip": "ym2612"
    },
    {
      "channel": 2,
      "note": 51,
      "start": 66.1259,
      "duration": 0.019,
      "velocity": 100,
      "chip": "ym2612"
    },
    {
      "channel": 1,
      "note": 66,
      "start": 66.1271,
      "duration": 0.019,
      "velocity": 94,
      "chip": "ym2612"
    },
    {
      "channel": 0,
      "note": 36,
      "start": 66.1392,
      "duration": 0.0143,
      "velocity": 115,
      "chip": "ym2612"
    },
    {
      "channel": 5,
      "note": 78,
      "start": 66.1407,
      "duration": 0.0141,
      "velocity": 110,
      "chip": "ym2612"
    },
    {
      "channel": 4,
      "note": 76,
      "start": 66.1422,
      "duration": 0.0138,
      "velocity": 110,
      "chip": "ym2612"
    },
    {
      "channel": 3,
      "note": 66,
      "start": 66.1434,
      "duration": 0.0139,
      "velocity": 94,
      "chip": "ym2612"
    },
    {
      "channel": 2,
      "note": 54,
      "start": 66.1448,
      "duration": 0.0136,
      "velocity": 100,
      "chip": "ym2612"
    },
    {
      "channel": 1,
      "note": 66,
      "start": 66.146,
      "duration": 0.0136,
      "velocity": 94,
      "chip": "ym2612"
    },
    {
      "channel": 0,
      "note": 36,
      "start": 66.1535,
      "duration": 0.0163,
      "velocity": 115,
      "chip": "ym2612"
    },
    {
      "channel": 5,
      "note": 78,
      "start": 66.1548,
      "duration": 0.0163,
      "velocity": 110,
      "chip": "ym2612"
    },
    {
      "channel": 4,
      "note": 76,
      "start": 66.156,
      "duration": 0.0162,
      "velocity": 110,
      "chip": "ym2612"
    },
    {
      "channel": 3,
      "note": 66,
      "start": 66.1572,
      "duration": 0.0162,
      "velocity": 94,
      "chip": "ym2612"
    },
    {
      "channel": 2,
      "note": 54,
      "start": 66.1584,
      "duration": 0.0162,
      "velocity": 100,
      "chip": "ym2612"
    },
    {
      "channel": 1,
      "note": 66,
      "start": 66.1596,
      "duration": 0.0161,
      "velocity": 94,
      "chip": "ym2612"
    },
    {
      "channel": 0,
      "note": 37,
      "start": 66.1699,
      "duration": 0.0163,
      "velocity": 115,
      "chip": "ym2612"
    },
    {
      "channel": 5,
      "note": 78,
      "start": 66.1711,
      "duration": 0.0163,
      "velocity": 110,
      "chip": "ym2612"
    },
    {
      "channel": 4,
      "note": 76,
      "start": 66.1722,
      "duration": 0.0163,
      "velocity": 110,
      "chip": "ym2612"
    },
    {
      "channel": 3,
      "note": 66,
      "start": 66.1735,
      "duration": 0.0163,
      "velocity": 94,
      "chip": "ym2612"
    },
    {
      "channel": 2,
      "note": 54,
      "start": 66.1746,
      "duration": 0.0163,
      "velocity": 100,
      "chip": "ym2612"
    },
    {
      "channel": 1,
      "note": 66,
      "start": 66.1757,
      "duration": 0.0163,
      "velocity": 94,
      "chip": "ym2612"
    },
    {
      "channel": 0,
      "note": 37,
      "start": 66.1862,
      "duration": 0.016,
      "velocity": 115,
      "chip": "ym2612"
    },
    {
      "channel": 5,
      "note": 78,
      "start": 66.1874,
      "duration": 0.0161,
      "velocity": 110,
      "chip": "ym2612"
    },
    {
      "channel": 4,
      "note": 76,
      "start": 66.1886,
      "duration": 0.0161,
      "velocity": 110,
      "chip": "ym2612"
    },
    {
      "channel": 3,
      "note": 66,
      "start": 66.1898,
      "duration": 0.0161,
      "velocity": 94,
      "chip": "ym2612"
    },
    {
      "channel": 2,
      "note": 54,
      "start": 66.1909,
      "duration": 0.0161,
      "velocity": 100,
      "chip": "ym2612"
    },
    {
      "channel": 1,
      "note": 66,
      "start": 66.1921,
      "duration": 0.0161,
      "velocity": 94,
      "chip": "ym2612"
    },
    {
      "channel": 0,
      "note": 38,
      "start": 66.2023,
      "duration": 0.0161,
      "velocity": 115,
      "chip": "ym2612"
    },
    {
      "channel": 5,
      "note": 78,
      "start": 66.2035,
      "duration": 0.0161,
      "velocity": 110,
      "chip": "ym2612"
    },
    {
      "channel": 4,
      "note": 76,
      "start": 66.2047,
      "duration": 0.0161,
      "velocity": 110,
      "chip": "ym2612"
    },
    {
      "channel": 3,
      "note": 66,
      "start": 66.2058,
      "duration": 0.0161,
      "velocity": 94,
      "chip": "ym2612"
    },
    {
      "channel": 2,
      "note": 54,
      "start": 66.207,
      "duration": 0.0161,
      "velocity": 100,
      "chip": "ym2612"
    },
    {
      "channel": 1,
      "note": 66,
      "start": 66.2082,
      "duration": 0.0161,
      "velocity": 94,
      "chip": "ym2612"
    },
    {
      "channel": 0,
      "note": 38,
      "start": 66.2184,
      "duration": 0.0179,
      "velocity": 127,
      "chip": "ym2612"
    },
    {
      "channel": 5,
      "note": 78,
      "start": 66.2196,
      "duration": 0.0179,
      "velocity": 110,
      "chip": "ym2612"
    },
    {
      "channel": 4,
      "note": 76,
      "start": 66.2208,
      "duration": 0.0179,
      "velocity": 110,
      "chip": "ym2612"
    },
    {
      "channel": 3,
      "note": 66,
      "start": 66.2219,
      "duration": 0.0179,
      "velocity": 94,
      "chip": "ym2612"
    },
    {
      "channel": 2,
      "note": 54,
      "start": 66.2231,
      "duration": 0.0182,
      "velocity": 100,
      "chip": "ym2612"
    },
    {
      "channel": 1,
      "note": 66,
      "start": 66.2243,
      "duration": 0.0183,
      "velocity": 94,
      "chip": "ym2612"
    },
    {
      "channel": 0,
      "note": 88,
      "start": 66.2364,
      "duration": 0.0137,
      "velocity": 127,
      "chip": "ym2612"
    },
    {
      "channel": 5,
      "note": 78,
      "start": 66.2375,
      "duration": 0.0143,
      "velocity": 110,
      "chip": "ym2612"
    },
    {
      "channel": 4,
      "note": 76,
      "start": 66.2387,
      "duration": 0.0143,
      "velocity": 110,
      "chip": "ym2612"
    },
    {
      "channel": 3,
      "note": 66,
      "start": 66.2399,
      "duration": 0.0144,
      "velocity": 94,
      "chip": "ym2612"
    },
    {
      "channel": 2,
      "note": 66,
      "start": 66.2413,
      "duration": 0.0141,
      "velocity": 100,
      "chip": "ym2612"
    },
    {
      "channel": 1,
      "note": 66,
      "start": 66.2425,
      "duration": 0.0141,
      "velocity": 94,
      "chip": "ym2612"
    },
    {
      "channel": 0,
      "note": 86,
      "start": 66.2501,
      "duration": 0.016,
      "velocity": 127,
      "chip": "ym2612"
    },
    {
      "channel": 3,
      "note": 66,
      "start": 66.2542,
      "duration": 0.016,
      "velocity": 94,
      "chip": "ym2612"
    },
    {
      "channel": 2,
      "note": 66,
      "start": 66.2555,
      "duration": 0.016,
      "velocity": 100,
      "chip": "ym2612"
    },
    {
      "channel": 1,
      "note": 66,
      "start": 66.2567,
      "duration": 0.0159,
      "velocity": 94,
      "chip": "ym2612"
    },
    {
      "channel": 0,
      "note": 85,
      "start": 66.2661,
      "duration": 0.0161,
      "velocity": 127,
      "chip": "ym2612"
    },
    {
      "channel": 3,
      "note": 66,
      "start": 66.2703,
      "duration": 0.0161,
      "velocity": 94,
      "chip": "ym2612"
    },
    {
      "channel": 2,
      "note": 66,
      "start": 66.2714,
      "duration": 0.0161,
      "velocity": 100,
      "chip": "ym2612"
    },
    {
      "channel": 1,
      "note": 66,
      "start": 66.2726,
      "duration": 0.0161,
      "velocity": 94,
      "chip": "ym2612"
    },
    {
      "channel": 0,
      "note": 83,
      "start": 66.2822,
      "duration": 0.0161,
      "velocity": 127,
      "chip": "ym2612"
    },
    {
      "channel": 3,
      "note": 66,
      "start": 66.2864,
      "duration": 0.0161,
      "velocity": 94,
      "chip": "ym2612"
    },
    {
      "channel": 2,
      "note": 66,
      "start": 66.2875,
      "duration": 0.0161,
      "velocity": 100,
      "chip": "ym2612"
    },
    {
      "channel": 1,
      "note": 66,
      "start": 66.2887,
      "duration": 0.0161,
      "velocity": 94,
      "chip": "ym2612"
    },
    {
      "channel": 0,
      "note": 81,
      "start": 66.2983,
      "duration": 0.0161,
      "velocity": 127,
      "chip": "ym2612"
    },
    {
      "channel": 3,
      "note": 66,
      "start": 66.3025,
      "duration": 0.016,
      "velocity": 94,
      "chip": "ym2612"
    },
    {
      "channel": 2,
      "note": 66,
      "start": 66.3036,
      "duration": 0.0161,
      "velocity": 100,
      "chip": "ym2612"
    },
    {
      "channel": 1,
      "note": 66,
      "start": 66.3048,
      "duration": 0.0161,
      "velocity": 94,
      "chip": "ym2612"
    },
    {
      "channel": 0,
      "note": 80,
      "start": 66.3144,
      "duration": 0.0161,
      "velocity": 127,
      "chip": "ym2612"
    },
    {
      "channel": 3,
      "note": 66,
      "start": 66.3185,
      "duration": 0.0158,
      "velocity": 94,
      "chip": "ym2612"
    },
    {
      "channel": 2,
      "note": 66,
      "start": 66.3197,
      "duration": 0.0161,
      "velocity": 100,
      "chip": "ym2612"
    },
    {
      "channel": 1,
      "note": 66,
      "start": 66.3209,
      "duration": 0.0161,
      "velocity": 94,
      "chip": "ym2612"
    },
    {
      "channel": 0,
      "note": 78,
      "start": 66.3305,
      "duration": 0.0161,
      "velocity": 127,
      "chip": "ym2612"
    },
    {
      "channel": 3,
      "note": 66,
      "start": 66.3343,
      "duration": 0.0173,
      "velocity": 94,
      "chip": "ym2612"
    },
    {
      "channel": 2,
      "note": 66,
      "start": 66.3358,
      "duration": 0.0172,
      "velocity": 100,
      "chip": "ym2612"
    },
    {
      "channel": 1,
      "note": 66,
      "start": 66.337,
      "duration": 0.0172,
      "velocity": 94,
      "chip": "ym2612"
    },
    {
      "channel": 0,
      "note": 76,
      "start": 66.3466,
      "duration": 0.0161,
      "velocity": 127,
      "chip": "ym2612"
    },
    {
      "channel": 5,
      "note": 76,
      "start": 66.3482,
      "duration": 0.0158,
      "velocity": 110,
      "chip": "ym2612"
    },
    {
      "channel": 4,
      "note": 78,
      "start": 66.3498,
      "duration": 0.0154,
      "velocity": 110,
      "chip": "ym2612"
    },
    {
      "channel": 3,
      "note": 66,
      "start": 66.3515,
      "duration": 0.0149,
      "velocity": 94,
      "chip": "ym2612"
    },
    {
      "channel": 2,
      "note": 54,
      "start": 66.353,
      "duration": 0.0151,
      "velocity": 100,
      "chip": "ym2612"
    },
    {
      "channel": 1,
      "note": 66,
      "start": 66.3542,
      "duration": 0.0152,
      "velocity": 94,
      "chip": "ym2612"
    },
    {
      "channel": 0,
      "note": 75,
      "start": 66.3627,
      "duration": 0.0161,
      "velocity": 127,
      "chip": "ym2612"
    },
    {
      "channel": 5,
      "note": 76,
      "start": 66.364,
      "duration": 0.016,
      "velocity": 110,
      "chip": "ym2612"
    },
    {
      "channel": 4,
      "note": 78,
      "start": 66.3652,
      "duration": 0.016,
      "velocity": 110,
      "chip": "ym2612"
    },
    {
      "channel": 3,
      "note": 66,
      "start": 66.3664,
      "duration": 0.016,
      "velocity": 94,
      "chip": "ym2612"
    },
    {
      "channel": 2,
      "note": 54,
      "start": 66.3681,
      "duration": 0.0154,
      "velocity": 100,
      "chip": "ym2612"
    },
    {
      "channel": 1,
      "note": 66,
      "start": 66.3694,
      "duration": 0.016,
      "velocity": 94,
      "chip": "ym2612"
    },
    {
      "channel": 0,
      "note": 73,
      "start": 66.3788,
      "duration": 0.0162,
      "velocity": 127,
      "chip": "ym2612"
    },
    {
      "channel": 5,
      "note": 76,
      "start": 66.38,
      "duration": 0.0161,
      "velocity": 110,
      "chip": "ym2612"
    },
    {
      "channel": 4,
      "note": 78,
      "start": 66.3812,
      "duration": 0.0162,
      "velocity": 110,
      "chip": "ym2612"
    },
    {
      "channel": 3,
      "note": 66,
      "start": 66.3824,
      "duration": 0.0161,
      "velocity": 94,
      "chip": "ym2612"
    },
    {
      "channel": 2,
      "note": 54,
      "start": 66.3835,
      "duration": 0.0161,
      "velocity": 100,
      "chip": "ym2612"
    },
    {
      "channel": 1,
      "note": 66,
      "start": 66.3854,
      "duration": 0.016,
      "velocity": 94,
      "chip": "ym2612"
    },
    {
      "channel": 0,
      "note": 71,
      "start": 66.395,
      "duration": 0.0161,
      "velocity": 127,
      "chip": "ym2612"
    },
    {
      "channel": 5,
      "note": 76,
      "start": 66.3961,
      "duration": 0.0161,
      "velocity": 110,
      "chip": "ym2612"
    },
    {
      "channel": 4,
      "note": 78,
      "start": 66.3973,
      "duration": 0.0161,
      "velocity": 110,
      "chip": "ym2612"
    },
    {
      "channel": 3,
      "note": 66,
      "start": 66.3985,
      "duration": 0.0161,
      "velocity": 94,
      "chip": "ym2612"
    },
    {
      "channel": 2,
      "note": 54,
      "start": 66.3997,
      "duration": 0.0161,
      "velocity": 100,
      "chip": "ym2612"
    },
    {
      "channel": 1,
      "note": 66,
      "start": 66.4014,
      "duration": 0.0155,
      "velocity": 94,
      "chip": "ym2612"
    },
    {
      "channel": 0,
      "note": 69,
      "start": 66.411,
      "duration": 0.0161,
      "velocity": 127,
      "chip": "ym2612"
    },
    {
      "channel": 5,
      "note": 76,
      "start": 66.4122,
      "duration": 0.0161,
      "velocity": 110,
      "chip": "ym2612"
    },
    {
      "channel": 4,
      "note": 78,
      "start": 66.4134,
      "duration": 0.0161,
      "velocity": 110,
      "chip": "ym2612"
    },
    {
      "channel": 3,
      "note": 66,
      "start": 66.4146,
      "duration": 0.0161,
      "velocity": 94,
      "chip": "ym2612"
    },
    {
      "channel": 2,
      "note": 54,
      "start": 66.4158,
      "duration": 0.0161,
      "velocity": 100,
      "chip": "ym2612"
    },
    {
      "channel": 1,
      "note": 66,
      "start": 66.4169,
      "duration": 0.0161,
      "velocity": 94,
      "chip": "ym2612"
    },
    {
      "channel": 0,
      "note": 68,
      "start": 66.4271,
      "duration": 0.0179,
      "velocity": 127,
      "chip": "ym2612"
    },
    {
      "channel": 5,
      "note": 76,
      "start": 66.4283,
      "duration": 0.018,
      "velocity": 110,
      "chip": "ym2612"
    },
    {
      "channel": 4,
      "note": 78,
      "start": 66.4295,
      "duration": 0.018,
      "velocity": 110,
      "chip": "ym2612"
    },
    {
      "channel": 3,
      "note": 66,
      "start": 66.4307,
      "duration": 0.018,
      "velocity": 94,
      "chip": "ym2612"
    },
    {
      "channel": 2,
      "note": 54,
      "start": 66.4319,
      "duration": 0.0183,
      "velocity": 100,
      "chip": "ym2612"
    },
    {
      "channel": 1,
      "note": 66,
      "start": 66.433,
      "duration": 0.019,
      "velocity": 94,
      "chip": "ym2612"
    },
    {
      "channel": 0,
      "note": 84,
      "start": 66.4451,
      "duration": 0.0143,
      "velocity": 127,
      "chip": "ym2612"
    },
    {
      "channel": 5,
      "note": 76,
      "start": 66.4463,
      "duration": 0.0143,
      "velocity": 110,
      "chip": "ym2612"
    },
    {
      "channel": 4,
      "note": 78,
      "start": 66.4475,
      "duration": 0.0142,
      "velocity": 110,
      "chip": "ym2612"
    },
    {
      "channel": 3,
      "note": 66,
      "start": 66.4487,
      "duration": 0.0143,
      "velocity": 94,
      "chip": "ym2612"
    },
    {
      "channel": 2,
      "note": 66,
      "start": 66.4502,
      "duration": 0.0141,
      "velocity": 100,
      "chip": "ym2612"
    },
    {
      "channel": 1,
      "note": 66,
      "start": 66.452,
      "duration": 0.0134,
      "velocity": 94,
      "chip": "ym2612"
    },
    {
      "channel": 0,
      "note": 82,
      "start": 66.4594,
      "duration": 0.016,
      "velocity": 127,
      "chip": "ym2612"
    },
    {
      "channel": 3,
      "note": 66,
      "start": 66.463,
      "duration": 0.016,
      "velocity": 94,
      "chip": "ym2612"
    },
    {
      "channel": 2,
      "note": 66,
      "start": 66.4642,
      "duration": 0.0159,
      "velocity": 100,
      "chip": "ym2612"
    },
    {
      "channel": 1,
      "note": 66,
      "start": 66.4654,
      "duration": 0.0159,
      "velocity": 94,
      "chip": "ym2612"
    },
    {
      "channel": 0,
      "note": 81,
      "start": 66.4754,
      "duration": 0.0161,
      "velocity": 127,
      "chip": "ym2612"
    },
    {
      "channel": 3,
      "note": 66,
      "start": 66.479,
      "duration": 0.0161,
      "velocity": 94,
      "chip": "ym2612"
    },
    {
      "channel": 2,
      "note": 66,
      "start": 66.4801,
      "duration": 0.0161,
      "velocity": 100,
      "chip": "ym2612"
    },
    {
      "channel": 1,
      "note": 66,
      "start": 66.4813,
      "duration": 0.0161,
      "velocity": 94,
      "chip": "ym2612"
    },
    {
      "channel": 0,
      "note": 79,
      "start": 66.4915,
      "duration": 0.0161,
      "velocity": 127,
      "chip": "ym2612"
    },
    {
      "channel": 3,
      "note": 66,
      "start": 66.4951,
      "duration": 0.0161,
      "velocity": 94,
      "chip": "ym2612"
    },
    {
      "channel": 2,
      "note": 66,
      "start": 66.4962,
      "duration": 0.0161,
      "velocity": 100,
      "chip": "ym2612"
    },
    {
      "channel": 1,
      "note": 66,
      "start": 66.4974,
      "duration": 0.0162,
      "velocity": 94,
      "chip": "ym2612"
    },
    {
      "channel": 0,
      "note": 77,
      "start": 66.5076,
      "duration": 0.0161,
      "velocity": 127,
      "chip": "ym2612"
    },
    {
      "channel": 3,
      "note": 66,
      "start": 66.5112,
      "duration": 0.0161,
      "velocity": 94,
      "chip": "ym2612"
    },
    {
      "channel": 2,
      "note": 66,
      "start": 66.5123,
      "duration": 0.0161,
      "velocity": 100,
      "chip": "ym2612"
    },
    {
      "channel": 1,
      "note": 66,
      "start": 66.5135,
      "duration": 0.0161,
      "velocity": 94,
      "chip": "ym2612"
    },
    {
      "channel": 0,
      "note": 76,
      "start": 66.5237,
      "duration": 0.0161,
      "velocity": 127,
      "chip": "ym2612"
    },
    {
      "channel": 3,
      "note": 66,
      "start": 66.5273,
      "duration": 0.0161,
      "velocity": 94,
      "chip": "ym2612"
    },
    {
      "channel": 2,
      "note": 66,
      "start": 66.5284,
      "duration": 0.0162,
      "velocity": 100,
      "chip": "ym2612"
    },
    {
      "channel": 1,
      "note": 66,
      "start": 66.5296,
      "duration": 0.0161,
      "velocity": 94,
      "chip": "ym2612"
    },
    {
      "channel": 0,
      "note": 74,
      "start": 66.5399,
      "duration": 0.0179,
      "velocity": 127,
      "chip": "ym2612"
    },
    {
      "channel": 3,
      "note": 66,
      "start": 66.5434,
      "duration": 0.0187,
      "velocity": 94,
      "chip": "ym2612"
    },
    {
      "channel": 2,
      "note": 66,
      "start": 66.5446,
      "duration": 0.019,
      "velocity": 100,
      "chip": "ym2612"
    },
    {
      "channel": 1,
      "note": 66,
      "start": 66.5457,
      "duration": 0.019,
      "velocity": 94,
      "chip": "ym2612"
    },
    {
      "channel": 0,
      "note": 78,
      "start": 66.5579,
      "duration": 0.0143,
      "velocity": 127,
      "chip": "ym2612"
    },
    {
      "channel": 5,
      "note": 78,
      "start": 66.5594,
      "duration": 0.0139,
      "velocity": 110,
      "chip": "ym2612"
    },
    {
      "channel": 4,
      "note": 76,
      "start": 66.5609,
      "duration": 0.0137,
      "velocity": 110,
      "chip": "ym2612"
    },
    {
      "channel": 3,
      "note": 66,
      "start": 66.5621,
      "duration": 0.0137,
      "velocity": 94,
      "chip": "ym2612"
    },
    {
      "channel": 2,
      "note": 56,
      "start": 66.5636,
      "duration": 0.0134,
      "velocity": 100,
      "chip": "ym2612"
    },
    {
      "channel": 1,
      "note": 66,
      "start": 66.5647,
      "duration": 0.0134,
      "velocity": 94,
      "chip": "ym2612"
    },
    {
      "channel": 0,
      "note": 76,
      "start": 66.5721,
      "duration": 0.016,
      "velocity": 127,
      "chip": "ym2612"
    },
    {
      "channel": 5,
      "note": 78,
      "start": 66.5733,
      "duration": 0.016,
      "velocity": 110,
      "chip": "ym2612"
    },
    {
      "channel": 4,
      "note": 76,
      "start": 66.5746,
      "duration": 0.0159,
      "velocity": 110,
      "chip": "ym2612"
    },
    {
      "channel": 3,
      "note": 66,
      "start": 66.5757,
      "duration": 0.0159,
      "velocity": 94,
      "chip": "ym2612"
    },
    {
      "channel": 2,
      "note": 56,
      "start": 66.577,
      "duration": 0.0158,
      "velocity": 100,
      "chip": "ym2612"
    },
    {
      "channel": 1,
      "note": 66,
      "start": 66.5782,
      "duration": 0.0159,
      "velocity": 94,
      "chip": "ym2612"
    },
    {
      "channel": 0,
      "note": 75,
      "start": 66.5882,
      "duration": 0.0161,
      "velocity": 127,
      "chip": "ym2612"
    },
    {
      "channel": 5,
      "note": 78,
      "start": 66.5893,
      "duration": 0.0162,
      "velocity": 110,
      "chip": "ym2612"
    },
    {
      "channel": 4,
      "note": 76,
      "start": 66.5905,
      "duration": 0.0161,
      "velocity": 110,
      "chip": "ym2612"
    },
    {
      "channel": 3,
      "note": 66,
      "start": 66.5917,
      "duration": 0.0161,
      "velocity": 94,
      "chip": "ym2612"
    },
    {
      "channel": 2,
      "note": 56,
      "start": 66.5929,
      "duration": 0.0161,
      "velocity": 100,
      "chip": "ym2612"
    },
    {
      "channel": 1,
      "note": 66,
      "start": 66.594,
      "duration": 0.0161,
      "velocity": 94,
      "chip": "ym2612"
    },
    {
      "channel": 0,
      "note": 73,
      "start": 66.6042,
      "duration": 0.0162,
      "velocity": 127,
      "chip": "ym2612"
    },
    {
      "channel": 5,
      "note": 78,
      "start": 66.6055,
      "duration": 0.0161,
      "velocity": 110,
      "chip": "ym2612"
    },
    {
      "channel": 4,
      "note": 76,
      "start": 66.6066,
      "duration": 0.0162,
      "velocity": 110,
      "chip": "ym2612"
    },
    {
      "channel": 3,
      "note": 66,
      "start": 66.6078,
      "duration": 0.0162,
      "velocity": 94,
      "chip": "ym2612"
    },
    {
      "channel": 2,
      "note": 56,
      "start": 66.609,
      "duration": 0.0161,
      "velocity": 100,
      "chip": "ym2612"
    },
    {
      "channel": 1,
      "note": 66,
      "start": 66.6102,
      "duration": 0.0162,
      "velocity": 94,
      "chip": "ym2612"
    },
    {
      "channel": 0,
      "note": 71,
      "start": 66.6204,
      "duration": 0.0162,
      "velocity": 127,
      "chip": "ym2612"
    },
    {
      "channel": 5,
      "note": 78,
      "start": 66.6216,
      "duration": 0.0162,
      "velocity": 110,
      "chip": "ym2612"
    },
    {
      "channel": 4,
      "note": 76,
      "start": 66.6228,
      "duration": 0.0162,
      "velocity": 110,
      "chip": "ym2612"
    },
    {
      "channel": 3,
      "note": 66,
      "start": 66.624,
      "duration": 0.0162,
      "velocity": 94,
      "chip": "ym2612"
    },
    {
      "channel": 2,
      "note": 56,
      "start": 66.6251,
      "duration": 0.0162,
      "velocity": 100,
      "chip": "ym2612"
    },
    {
      "channel": 1,
      "note": 66,
      "start": 66.6263,
      "duration": 0.0161,
      "velocity": 94,
      "chip": "ym2612"
    },
    {
      "channel": 0,
      "note": 70,
      "start": 66.6366,
      "duration": 0.0181,
      "velocity": 115,
      "chip": "ym2612"
    },
    {
      "channel": 5,
      "note": 78,
      "start": 66.6378,
      "duration": 0.0182,
      "velocity": 110,
      "chip": "ym2612"
    },
    {
      "channel": 4,
      "note": 76,
      "start": 66.639,
      "duration": 0.0182,
      "velocity": 110,
      "chip": "ym2612"
    },
    {
      "channel": 3,
      "note": 66,
      "start": 66.6402,
      "duration": 0.0181,
      "velocity": 94,
      "chip": "ym2612"
    },
    {
      "channel": 2,
      "note": 56,
      "start": 66.6413,
      "duration": 0.0182,
      "velocity": 100,
      "chip": "ym2612"
    },
    {
      "channel": 1,
      "note": 66,
      "start": 66.6425,
      "duration": 0.0182,
      "velocity": 94,
      "chip": "ym2612"
    },
    {
      "channel": 0,
      "note": 36,
      "start": 66.6548,
      "duration": 0.0145,
      "velocity": 115,
      "chip": "ym2612"
    },
    {
      "channel": 5,
      "note": 78,
      "start": 66.656,
      "duration": 0.0145,
      "velocity": 110,
      "chip": "ym2612"
    },
    {
      "channel": 4,
      "note": 76,
      "start": 66.6572,
      "duration": 0.0145,
      "velocity": 110,
      "chip": "ym2612"
    },
    {
      "channel": 3,
      "note": 66,
      "start": 66.6583,
      "duration": 0.0146,
      "velocity": 94,
      "chip": "ym2612"
    },
    {
      "channel": 2,
      "note": 56,
      "start": 66.6595,
      "duration": 0.0145,
      "velocity": 100,
      "chip": "ym2612"
    },
    {
      "channel": 1,
      "note": 66,
      "start": 66.6607,
      "duration": 0.0146,
      "velocity": 94,
      "chip": "ym2612"
    },
    {
      "channel": 0,
      "note": 36,
      "start": 66.6693,
      "duration": 0.016,
      "velocity": 115,
      "chip": "ym2612"
    },
    {
      "channel": 3,
      "note": 66,
      "start": 66.6729,
      "duration": 0.016,
      "velocity": 94,
      "chip": "ym2612"
    },
    {
      "channel": 2,
      "note": 56,
      "start": 66.674,
      "duration": 0.016,
      "velocity": 100,
      "chip": "ym2612"
    },
    {
      "channel": 1,
      "note": 66,
      "start": 66.6752,
      "duration": 0.016,
      "velocity": 94,
      "chip": "ym2612"
    },
    {
      "channel": 0,
      "note": 37,
      "start": 66.6854,
      "duration": 0.016,
      "velocity": 115,
      "chip": "ym2612"
    },
    {
      "channel": 3,
      "note": 66,
      "start": 66.6888,
      "duration": 0.0161,
      "velocity": 94,
      "chip": "ym2612"
    },
    {
      "channel": 2,
      "note": 56,
      "start": 66.6901,
      "duration": 0.0161,
      "velocity": 100,
      "chip": "ym2612"
    },
    {
      "channel": 1,
      "note": 66,
      "start": 66.6912,
      "duration": 0.0162,
      "velocity": 94,
      "chip": "ym2612"
    },
    {
      "channel": 0,
      "note": 37,
      "start": 66.7014,
      "duration": 0.0156,
      "velocity": 115,
      "chip": "ym2612"
    },
    {
      "channel": 3,
      "note": 66,
      "start": 66.7049,
      "duration": 0.0162,
      "velocity": 94,
      "chip": "ym2612"
    },
    {
      "channel": 2,
      "note": 56,
      "start": 66.7061,
      "duration": 0.0161,
      "velocity": 100,
      "chip": "ym2612"
    },
    {
      "channel": 1,
      "note": 66,
      "start": 66.7074,
      "duration": 0.0161,
      "velocity": 94,
      "chip": "ym2612"
    },
    {
      "channel": 0,
      "note": 38,
      "start": 66.717,
      "duration": 0.0161,
      "velocity": 115,
      "chip": "ym2612"
    },
    {
      "channel": 3,
      "note": 66,
      "start": 66.7211,
      "duration": 0.0161,
      "velocity": 94,
      "chip": "ym2612"
    },
    {
      "channel": 2,
      "note": 56,
      "start": 66.7222,
      "duration": 0.0161,
      "velocity": 100,
      "chip": "ym2612"
    },
    {
      "channel": 1,
      "note": 66,
      "start": 66.7235,
      "duration": 0.0161,
      "velocity": 94,
      "chip": "ym2612"
    },
    {
      "channel": 0,
      "note": 38,
      "start": 66.7331,
      "duration": 0.0161,
      "velocity": 115,
      "chip": "ym2612"
    },
    {
      "channel": 3,
      "note": 66,
      "start": 66.7372,
      "duration": 0.0161,
      "velocity": 94,
      "chip": "ym2612"
    },
    {
      "channel": 2,
      "note": 56,
      "start": 66.7383,
      "duration": 0.0161,
      "velocity": 100,
      "chip": "ym2612"
    },
    {
      "channel": 1,
      "note": 66,
      "start": 66.7395,
      "duration": 0.0161,
      "velocity": 94,
      "chip": "ym2612"
    },
    {
      "channel": 0,
      "note": 39,
      "start": 66.7492,
      "duration": 0.0181,
      "velocity": 124,
      "chip": "ym2612"
    },
    {
      "channel": 3,
      "note": 66,
      "start": 66.7533,
      "duration": 0.0188,
      "velocity": 94,
      "chip": "ym2612"
    },
    {
      "channel": 2,
      "note": 56,
      "start": 66.7544,
      "duration": 0.019,
      "velocity": 100,
      "chip": "ym2612"
    },
    {
      "channel": 1,
      "note": 66,
      "start": 66.7556,
      "duration": 0.019,
      "velocity": 94,
      "chip": "ym2612"
    },
    {
      "channel": 0,
      "note": 84,
      "start": 66.7673,
      "duration": 0.0141,
      "velocity": 124,
      "chip": "ym2612"
    },
    {
      "channel": 5,
      "note": 76,
      "start": 66.7693,
      "duration": 0.0134,
      "velocity": 110,
      "chip": "ym2612"
    },
    {
      "channel": 4,
      "note": 78,
      "start": 66.7708,
      "duration": 0.0132,
      "velocity": 110,
      "chip": "ym2612"
    },
    {
      "channel": 3,
      "note": 66,
      "start": 66.7721,
      "duration": 0.0136,
      "velocity": 94,
      "chip": "ym2612"
    },
    {
      "channel": 2,
      "note": 58,
      "start": 66.7735,
      "duration": 0.0134,
      "velocity": 100,
      "chip": "ym2612"
    },
    {
      "channel": 1,
      "note": 66,
      "start": 66.7747,
      "duration": 0.0134,
      "velocity": 94,
      "chip": "ym2612"
    },
    {
      "channel": 0,
      "note": 82,
      "start": 66.7814,
      "duration": 0.0161,
      "velocity": 124,
      "chip": "ym2612"
    },
    {
      "channel": 5,
      "note": 76,
      "start": 66.7827,
      "duration": 0.016,
      "velocity": 110,
      "chip": "ym2612"
    },
    {
      "channel": 4,
      "note": 78,
      "start": 66.7841,
      "duration": 0.0157,
      "velocity": 110,
      "chip": "ym2612"
    },
    {
      "channel": 3,
      "note": 66,
      "start": 66.7857,
      "duration": 0.0159,
      "velocity": 94,
      "chip": "ym2612"
    },
    {
      "channel": 2,
      "note": 58,
      "start": 66.7869,
      "duration": 0.0159,
      "velocity": 100,
      "chip": "ym2612"
    },
    {
      "channel": 1,
      "note": 66,
      "start": 66.7881,
      "duration": 0.0158,
      "velocity": 94,
      "chip": "ym2612"
    },
    {
      "channel": 0,
      "note": 80,
      "start": 66.7975,
      "duration": 0.0161,
      "velocity": 124,
      "chip": "ym2612"
    },
    {
      "channel": 5,
      "note": 76,
      "start": 66.7986,
      "duration": 0.0161,
      "velocity": 110,
      "chip": "ym2612"
    },
    {
      "channel": 4,
      "note": 78,
      "start": 66.7998,
      "duration": 0.0161,
      "velocity": 110,
      "chip": "ym2612"
    },
    {
      "channel": 3,
      "note": 66,
      "start": 66.8016,
      "duration": 0.0158,
      "velocity": 94,
      "chip": "ym2612"
    },
    {
      "channel": 2,
      "note": 58,
      "start": 66.8028,
      "duration": 0.0161,
      "velocity": 100,
      "chip": "ym2612"
    },
    {
      "channel": 1,
      "note": 66,
      "start": 66.8039,
      "duration": 0.0161,
      "velocity": 94,
      "chip": "ym2612"
    },
    {
      "channel": 0,
      "note": 77,
      "start": 66.8136,
      "duration": 0.0161,
      "velocity": 124,
      "chip": "ym2612"
    },
    {
      "channel": 5,
      "note": 76,
      "start": 66.8147,
      "duration": 0.0161,
      "velocity": 110,
      "chip": "ym2612"
    },
    {
      "channel": 4,
      "note": 78,
      "start": 66.8159,
      "duration": 0.0161,
      "velocity": 110,
      "chip": "ym2612"
    },
    {
      "channel": 3,
      "note": 66,
      "start": 66.8173,
      "duration": 0.0159,
      "velocity": 94,
      "chip": "ym2612"
    },
    {
      "channel": 2,
      "note": 58,
      "start": 66.8189,
      "duration": 0.0161,
      "velocity": 100,
      "chip": "ym2612"
    },
    {
      "channel": 1,
      "note": 66,
      "start": 66.82,
      "duration": 0.0162,
      "velocity": 94,
      "chip": "ym2612"
    },
    {
      "channel": 0,
      "note": 75,
      "start": 66.8297,
      "duration": 0.0161,
      "velocity": 124,
      "chip": "ym2612"
    },
    {
      "channel": 5,
      "note": 76,
      "start": 66.8308,
      "duration": 0.0161,
      "velocity": 110,
      "chip": "ym2612"
    },
    {
      "channel": 4,
      "note": 78,
      "start": 66.832,
      "duration": 0.0161,
      "velocity": 110,
      "chip": "ym2612"
    },
    {
      "channel": 3,
      "note": 66,
      "start": 66.8333,
      "duration": 0.0161,
      "velocity": 94,
      "chip": "ym2612"
    },
    {
      "channel": 2,
      "note": 58,
      "start": 66.835,
      "duration": 0.0157,
      "velocity": 100,
      "chip": "ym2612"
    },
    {
      "channel": 1,
      "note": 66,
      "start": 66.8362,
      "duration": 0.0161,
      "velocity": 94,
      "chip": "ym2612"
    },
    {
      "channel": 0,
      "note": 72,
      "start": 66.8458,
      "duration": 0.0179,
      "velocity": 124,
      "chip": "ym2612"
    },
    {
      "channel": 5,
      "note": 76,
      "start": 66.8469,
      "duration": 0.0179,
      "velocity": 110,
      "chip": "ym2612"
    },
    {
      "channel": 4,
      "note": 78,
      "start": 66.8481,
      "duration": 0.0179,
      "velocity": 110,
      "chip": "ym2612"
    },
    {
      "channel": 3,
      "note": 66,
      "start": 66.8493,
      "duration": 0.0181,
      "velocity": 94,
      "chip": "ym2612"
    },
    {
      "channel": 2,
      "note": 58,
      "start": 66.8507,
      "duration": 0.0183,
      "velocity": 100,
      "chip": "ym2612"
    },
    {
      "channel": 1,
      "note": 66,
      "start": 66.8523,
      "duration": 0.0179,
      "velocity": 94,
      "chip": "ym2612"
    },
    {
      "channel": 0,
      "note": 84,
      "start": 66.8637,
      "duration": 0.0143,
      "velocity": 124,
      "chip": "ym2612"
    },
    {
      "channel": 5,
      "note": 76,
      "start": 66.8649,
      "duration": 0.0143,
      "velocity": 110,
      "chip": "ym2612"
    },
    {
      "channel": 4,
      "note": 78,
      "start": 66.8661,
      "duration": 0.0143,
      "velocity": 110,
      "chip": "ym2612"
    },
    {
      "channel": 3,
      "note": 66,
      "start": 66.8675,
      "duration": 0.0141,
      "velocity": 94,
      "chip": "ym2612"
    },
    {
      "channel": 2,
      "note": 58,
      "start": 66.869,
      "duration": 0.0137,
      "velocity": 100,
      "chip": "ym2612"
    },
    {
      "channel": 1,
      "note": 66,
      "start": 66.8702,
      "duration": 0.014,
      "velocity": 94,
      "chip": "ym2612"
    },
    {
      "channel": 0,
      "note": 82,
      "start": 66.878,
      "duration": 0.016,
      "velocity": 124,
      "chip": "ym2612"
    },
    {
      "channel": 3,
      "note": 66,
      "start": 66.8816,
      "duration": 0.016,
      "velocity": 94,
      "chip": "ym2612"
    },
    {
      "channel": 2,
      "note": 58,
      "start": 66.8827,
      "duration": 0.016,
      "velocity": 100,
      "chip": "ym2612"
    },
    {
      "channel": 1,
      "note": 66,
      "start": 66.8841,
      "duration": 0.0158,
      "velocity": 94,
      "chip": "ym2612"
    },
    {
      "channel": 0,
      "note": 80,
      "start": 66.8941,
      "duration": 0.0161,
      "velocity": 124,
      "chip": "ym2612"
    },
    {
      "channel": 3,
      "note": 66,
      "start": 66.8976,
      "duration": 0.0161,
      "velocity": 94,
      "chip": "ym2612"
    },
    {
      "channel": 2,
      "note": 58,
      "start": 66.8988,
      "duration": 0.0161,
      "velocity": 100,
      "chip": "ym2612"
    },
    {
      "channel": 1,
      "note": 66,
      "start": 66.9,
      "duration": 0.0161,
      "velocity": 94,
      "chip": "ym2612"
    },
    {
      "channel": 0,
      "note": 77,
      "start": 66.9102,
      "duration": 0.0161,
      "velocity": 124,
      "chip": "ym2612"
    },
    {
      "channel": 3,
      "note": 66,
      "start": 66.9137,
      "duration": 0.0161,
      "velocity": 94,
      "chip": "ym2612"
    },
    {
      "channel": 2,
      "note": 58,
      "start": 66.9149,
      "duration": 0.0161,
      "velocity": 100,
      "chip": "ym2612"
    },
    {
      "channel": 1,
      "note": 66,
      "start": 66.9161,
      "duration": 0.0161,
      "velocity": 94,
      "chip": "ym2612"
    },
    {
      "channel": 0,
      "note": 75,
      "start": 66.9263,
      "duration": 0.0161,
      "velocity": 124,
      "chip": "ym2612"
    },
    {
      "channel": 3,
      "note": 66,
      "start": 66.9298,
      "duration": 0.0161,
      "velocity": 94,
      "chip": "ym2612"
    },
    {
      "channel": 2,
      "note": 58,
      "start": 66.931,
      "duration": 0.0161,
      "velocity": 100,
      "chip": "ym2612"
    },
    {
      "channel": 0,
      "note": 72,
      "start": 66.9424,
      "duration": 0.0161,
      "velocity": 124,
      "chip": "ym2612"
    },
    {
      "channel": 3,
      "note": 66,
      "start": 66.9459,
      "duration": 0.0161,
      "velocity": 94,
      "chip": "ym2612"
    },
    {
      "channel": 2,
      "note": 58,
      "start": 66.9471,
      "duration": 0.0161,
      "velocity": 100,
      "chip": "ym2612"
    },
    {
      "channel": 0,
      "note": 70,
      "start": 66.9584,
      "duration": 0.018,
      "velocity": 115,
      "chip": "ym2612"
    },
    {
      "channel": 3,
      "note": 66,
      "start": 66.962,
      "duration": 0.0186,
      "velocity": 94,
      "chip": "ym2612"
    },
    {
      "channel": 2,
      "note": 58,
      "start": 66.9632,
      "duration": 0.0189,
      "velocity": 100,
      "chip": "ym2612"
    },
    {
      "channel": 0,
      "note": 36,
      "start": 66.9764,
      "duration": 0.0143,
      "velocity": 115,
      "chip": "ym2612"
    },
    {
      "channel": 5,
      "note": 78,
      "start": 66.9779,
      "duration": 0.0141,
      "velocity": 110,
      "chip": "ym2612"
    },
    {
      "channel": 4,
      "note": 76,
      "start": 66.9794,
      "duration": 0.0138,
      "velocity": 110,
      "chip": "ym2612"
    },
    {
      "channel": 3,
      "note": 66,
      "start": 66.9807,
      "duration": 0.0137,
      "velocity": 94,
      "chip": "ym2612"
    },
    {
      "channel": 2,
      "note": 59,
      "start": 66.9821,
      "duration": 0.0136,
      "velocity": 100,
      "chip": "ym2612"
    },
    {
      "channel": 1,
      "note": 71,
      "start": 66.9836,
      "duration": 0.0132,
      "velocity": 94,
      "chip": "ym2612"
    },
    {
      "channel": 0,
      "note": 36,
      "start": 66.9908,
      "duration": 0.016,
      "velocity": 115,
      "chip": "ym2612"
    },
    {
      "channel": 5,
      "note": 78,
      "start": 66.992,
      "duration": 0.016,
      "velocity": 110,
      "chip": "ym2612"
    },
    {
      "channel": 4,
      "note": 76,
      "start": 66.9932,
      "duration": 0.0159,
      "velocity": 110,
      "chip": "ym2612"
    },
    {
      "channel": 3,
      "note": 66,
      "start": 66.9944,
      "duration": 0.0159,
      "velocity": 94,
      "chip": "ym2612"
    },
    {
      "channel": 2,
      "note": 59,
      "start": 66.9957,
      "duration": 0.0158,
      "velocity": 100,
      "chip": "ym2612"
    },
    {
      "channel": 1,
      "note": 71,
      "start": 66.9969,
      "duration": 0.0158,
      "velocity": 94,
      "chip": "ym2612"
    },
    {
      "channel": 0,
      "note": 37,
      "start": 67.0068,
      "duration": 0.0161,
      "velocity": 115,
      "chip": "ym2612"
    },
    {
      "channel": 5,
      "note": 78,
      "start": 67.0079,
      "duration": 0.0161,
      "velocity": 110,
      "chip": "ym2612"
    },
    {
      "channel": 4,
      "note": 76,
      "start": 67.0091,
      "duration": 0.0161,
      "velocity": 110,
      "chip": "ym2612"
    },
    {
      "channel": 3,
      "note": 66,
      "start": 67.0103,
      "duration": 0.0161,
      "velocity": 94,
      "chip": "ym2612"
    },
    {
      "channel": 2,
      "note": 59,
      "start": 67.0115,
      "duration": 0.0161,
      "velocity": 100,
      "chip": "ym2612"
    },
    {
      "channel": 1,
      "note": 71,
      "start": 67.0127,
      "duration": 0.0161,
      "velocity": 94,
      "chip": "ym2612"
    },
    {
      "channel": 0,
      "note": 37,
      "start": 67.0229,
      "duration": 0.0161,
      "velocity": 115,
      "chip": "ym2612"
    },
    {
      "channel": 5,
      "note": 78,
      "start": 67.024,
      "duration": 0.0161,
      "velocity": 110,
      "chip": "ym2612"
    },
    {
      "channel": 4,
      "note": 76,
      "start": 67.0252,
      "duration": 0.0161,
      "velocity": 110,
      "chip": "ym2612"
    },
    {
      "channel": 3,
      "note": 66,
      "start": 67.0264,
      "duration": 0.0161,
      "velocity": 94,
      "chip": "ym2612"
    },
    {
      "channel": 2,
      "note": 59,
      "start": 67.0276,
      "duration": 0.0161,
      "velocity": 100,
      "chip": "ym2612"
    },
    {
      "channel": 1,
      "note": 71,
      "start": 67.0288,
      "duration": 0.016,
      "velocity": 94,
      "chip": "ym2612"
    },
    {
      "channel": 0,
      "note": 38,
      "start": 67.039,
      "duration": 0.0161,
      "velocity": 115,
      "chip": "ym2612"
    },
    {
      "channel": 5,
      "note": 78,
      "start": 67.0401,
      "duration": 0.0161,
      "velocity": 110,
      "chip": "ym2612"
    },
    {
      "channel": 4,
      "note": 76,
      "start": 67.0413,
      "duration": 0.0161,
      "velocity": 110,
      "chip": "ym2612"
    },
    {
      "channel": 3,
      "note": 66,
      "start": 67.0425,
      "duration": 0.0161,
      "velocity": 94,
      "chip": "ym2612"
    },
    {
      "channel": 2,
      "note": 59,
      "start": 67.0437,
      "duration": 0.0161,
      "velocity": 100,
      "chip": "ym2612"
    },
    {
      "channel": 1,
      "note": 71,
      "start": 67.0448,
      "duration": 0.0161,
      "velocity": 94,
      "chip": "ym2612"
    },
    {
      "channel": 0,
      "note": 38,
      "start": 67.0551,
      "duration": 0.0161,
      "velocity": 115,
      "chip": "ym2612"
    },
    {
      "channel": 5,
      "note": 78,
      "start": 67.0563,
      "duration": 0.0161,
      "velocity": 110,
      "chip": "ym2612"
    },
    {
      "channel": 4,
      "note": 76,
      "start": 67.0574,
      "duration": 0.0161,
      "velocity": 110,
      "chip": "ym2612"
    },
    {
      "channel": 3,
      "note": 66,
      "start": 67.0586,
      "duration": 0.0161,
      "velocity": 94,
      "chip": "ym2612"
    },
    {
      "channel": 2,
      "note": 59,
      "start": 67.0598,
      "duration": 0.0161,
      "velocity": 100,
      "chip": "ym2612"
    },
    {
      "channel": 1,
      "note": 71,
      "start": 67.0609,
      "duration": 0.0161,
      "velocity": 94,
      "chip": "ym2612"
    },
    {
      "channel": 0,
      "note": 39,
      "start": 67.0712,
      "duration": 0.0161,
      "velocity": 115,
      "chip": "ym2612"
    },
    {
      "channel": 5,
      "note": 78,
      "start": 67.0724,
      "duration": 0.0161,
      "velocity": 110,
      "chip": "ym2612"
    },
    {
      "channel": 4,
      "note": 76,
      "start": 67.0735,
      "duration": 0.0162,
      "velocity": 110,
      "chip": "ym2612"
    },
    {
      "channel": 3,
      "note": 66,
      "start": 67.0747,
      "duration": 0.0161,
      "velocity": 94,
      "chip": "ym2612"
    },
    {
      "channel": 2,
      "note": 59,
      "start": 67.0759,
      "duration": 0.0162,
      "velocity": 100,
      "chip": "ym2612"
    },
    {
      "channel": 1,
      "note": 71,
      "start": 67.077,
      "duration": 0.0161,
      "velocity": 94,
      "chip": "ym2612"
    },
    {
      "channel": 0,
      "note": 39,
      "start": 67.0873,
      "duration": 0.0162,
      "velocity": 115,
      "chip": "ym2612"
    },
    {
      "channel": 3,
      "note": 66,
      "start": 67.0908,
      "duration": 0.0162,
      "velocity": 94,
      "chip": "ym2612"
    },
    {
      "channel": 2,
      "note": 59,
      "start": 67.092,
      "duration": 0.0161,
      "velocity": 100,
      "chip": "ym2612"
    },
    {
      "channel": 1,
      "note": 71,
      "start": 67.0932,
      "duration": 0.0162,
      "velocity": 94,
      "chip": "ym2612"
    },
    {
      "channel": 0,
      "note": 40,
      "start": 67.1035,
      "duration": 0.0164,
      "velocity": 115,
      "chip": "ym2612"
    },
    {
      "channel": 3,
      "note": 66,
      "start": 67.107,
      "duration": 0.0164,
      "velocity": 94,
      "chip": "ym2612"
    },
    {
      "channel": 2,
      "note": 59,
      "start": 67.1081,
      "duration": 0.0165,
      "velocity": 100,
      "chip": "ym2612"
    },
    {
      "channel": 1,
      "note": 71,
      "start": 67.1093,
      "duration": 0.0164,
      "velocity": 94,
      "chip": "ym2612"
    },
    {
      "channel": 0,
      "note": 40,
      "start": 67.1199,
      "duration": 0.0163,
      "velocity": 115,
      "chip": "ym2612"
    },
    {
      "channel": 3,
      "note": 66,
      "start": 67.1234,
      "duration": 0.0163,
      "velocity": 94,
      "chip": "ym2612"
    },
    {
      "channel": 2,
      "note": 59,
      "start": 67.1246,
      "duration": 0.0163,
      "velocity": 100,
      "chip": "ym2612"
    },
    {
      "channel": 1,
      "note": 71,
      "start": 67.1257,
      "duration": 0.0163,
      "velocity": 94,
      "chip": "ym2612"
    },
    {
      "channel": 0,
      "note": 40,
      "start": 67.1362,
      "duration": 0.0161,
      "velocity": 115,
      "chip": "ym2612"
    },
    {
      "channel": 3,
      "note": 66,
      "start": 67.1397,
      "duration": 0.0161,
      "velocity": 94,
      "chip": "ym2612"
    },
    {
      "channel": 2,
      "note": 59,
      "start": 67.1409,
      "duration": 0.0161,
      "velocity": 100,
      "chip": "ym2612"
    },
    {
      "channel": 1,
      "note": 71,
      "start": 67.142,
      "duration": 0.0161,
      "velocity": 94,
      "chip": "ym2612"
    },
    {
      "channel": 0,
      "note": 41,
      "start": 67.1523,
      "duration": 0.016,
      "velocity": 115,
      "chip": "ym2612"
    },
    {
      "channel": 3,
      "note": 66,
      "start": 67.1558,
      "duration": 0.0161,
      "velocity": 94,
      "chip": "ym2612"
    },
    {
      "channel": 2,
      "note": 59,
      "start": 67.157,
      "duration": 0.0161,
      "velocity": 100,
      "chip": "ym2612"
    },
    {
      "channel": 1,
      "note": 71,
      "start": 67.1581,
      "duration": 0.0161,
      "velocity": 94,
      "chip": "ym2612"
    },
    {
      "channel": 0,
      "note": 41,
      "start": 67.1683,
      "duration": 0.0159,
      "velocity": 115,
      "chip": "ym2612"
    },
    {
      "channel": 3,
      "note": 66,
      "start": 67.1719,
      "duration": 0.0171,
      "velocity": 94,
      "chip": "ym2612"
    },
    {
      "channel": 2,
      "note": 59,
      "start": 67.1731,
      "duration": 0.0171,
      "velocity": 100,
      "chip": "ym2612"
    },
    {
      "channel": 1,
      "note": 71,
      "start": 67.1742,
      "duration": 0.0171,
      "velocity": 94,
      "chip": "ym2612"
    },
    {
      "channel": 0,
      "note": 42,
      "start": 67.1841,
      "duration": 0.0158,
      "velocity": 115,
      "chip": "ym2612"
    },
    {
      "channel": 5,
      "note": 75,
      "start": 67.1862,
      "duration": 0.0156,
      "velocity": 110,
      "chip": "ym2612"
    },
    {
      "channel": 4,
      "note": 78,
      "start": 67.1878,
      "duration": 0.0152,
      "velocity": 110,
      "chip": "ym2612"
    },
    {
      "channel": 3,
      "note": 66,
      "start": 67.189,
      "duration": 0.0152,
      "velocity": 94,
      "chip": "ym2612"
    },
    {
      "channel": 2,
      "note": 59,
      "start": 67.1902,
      "duration": 0.0152,
      "velocity": 100,
      "chip": "ym2612"
    },
    {
      "channel": 1,
      "note": 71,
      "start": 67.1913,
      "duration": 0.0153,
      "velocity": 94,
      "chip": "ym2612"
    },
    {
      "channel": 0,
      "note": 42,
      "start": 67.2,
      "duration": 0.0161,
      "velocity": 115,
      "chip": "ym2612"
    },
    {
      "channel": 5,
      "note": 75,
      "start": 67.2018,
      "duration": 0.0156,
      "velocity": 110,
      "chip": "ym2612"
    },
    {
      "channel": 4,
      "note": 78,
      "start": 67.203,
      "duration": 0.016,
      "velocity": 110,
      "chip": "ym2612"
    },
    {
      "channel": 3,
      "note": 66,
      "start": 67.2042,
      "duration": 0.016,
      "velocity": 94,
      "chip": "ym2612"
    },
    {
      "channel": 2,
      "note": 59,
      "start": 67.2054,
      "duration": 0.016,
      "velocity": 100,
      "chip": "ym2612"
    },
    {
      "channel": 1,
      "note": 71,
      "start": 67.2066,
      "duration": 0.016,
      "velocity": 94,
      "chip": "ym2612"
    },
    {
      "channel": 0,
      "note": 43,
      "start": 67.2161,
      "duration": 0.0161,
      "velocity": 115,
      "chip": "ym2612"
    },
    {
      "channel": 5,
      "note": 75,
      "start": 67.2175,
      "duration": 0.0159,
      "velocity": 110,
      "chip": "ym2612"
    },
    {
      "channel": 4,
      "note": 78,
      "start": 67.219,
      "duration": 0.0162,
      "velocity": 110,
      "chip": "ym2612"
    },
    {
      "channel": 3,
      "note": 66,
      "start": 67.2203,
      "duration": 0.0161,
      "velocity": 94,
      "chip": "ym2612"
    },
    {
      "channel": 2,
      "note": 59,
      "start": 67.2214,
      "duration": 0.0161,
      "velocity": 100,
      "chip": "ym2612"
    },
    {
      "channel": 1,
      "note": 71,
      "start": 67.2226,
      "duration": 0.0161,
      "velocity": 94,
      "chip": "ym2612"
    },
    {
      "channel": 0,
      "note": 43,
      "start": 67.2322,
      "duration": 0.0161,
      "velocity": 115,
      "chip": "ym2612"
    },
    {
      "channel": 3,
      "note": 66,
      "start": 67.2364,
      "duration": 0.016,
      "velocity": 94,
      "chip": "ym2612"
    },
    {
      "channel": 2,
      "note": 59,
      "start": 67.2375,
      "duration": 0.0161,
      "velocity": 100,
      "chip": "ym2612"
    },
    {
      "channel": 1,
      "note": 71,
      "start": 67.2387,
      "duration": 0.0161,
      "velocity": 94,
      "chip": "ym2612"
    },
    {
      "channel": 0,
      "note": 44,
      "start": 67.2483,
      "duration": 0.0161,
      "velocity": 115,
      "chip": "ym2612"
    },
    {
      "channel": 2,
      "note": 59,
      "start": 67.2536,
      "duration": 0.0161,
      "velocity": 100,
      "chip": "ym2612"
    },
    {
      "channel": 1,
      "note": 71,
      "start": 67.2548,
      "duration": 0.0161,
      "velocity": 94,
      "chip": "ym2612"
    },
    {
      "channel": 0,
      "note": 44,
      "start": 67.2644,
      "duration": 0.0179,
      "velocity": 115,
      "chip": "ym2612"
    },
    {
      "channel": 2,
      "note": 59,
      "start": 67.2697,
      "duration": 0.0188,
      "velocity": 100,
      "chip": "ym2612"
    },
    {
      "channel": 1,
      "note": 71,
      "start": 67.2708,
      "duration": 0.0189,
      "velocity": 94,
      "chip": "ym2612"
    },
    {
      "channel": 0,
      "note": 36,
      "start": 67.2824,
      "duration": 0.0143,
      "velocity": 115,
      "chip": "ym2612"
    },
    {
      "channel": 5,
      "note": 75,
      "start": 67.284,
      "duration": 0.0139,
      "velocity": 110,
      "chip": "ym2612"
    },
    {
      "channel": 4,
      "note": 78,
      "start": 67.2859,
      "duration": 0.0133,
      "velocity": 110,
      "chip": "ym2612"
    },
    {
      "channel": 2,
      "note": 59,
      "start": 67.2886,
      "duration": 0.0139,
      "velocity": 100,
      "chip": "ym2612"
    },
    {
      "channel": 1,
      "note": 71,
      "start": 67.2898,
      "duration": 0.0139,
      "velocity": 94,
      "chip": "ym2612"
    },
    {
      "channel": 0,
      "note": 36,
      "start": 67.2967,
      "duration": 0.016,
      "velocity": 115,
      "chip": "ym2612"
    },
    {
      "channel": 5,
      "note": 75,
      "start": 67.2979,
      "duration": 0.016,
      "velocity": 110,
      "chip": "ym2612"
    },
    {
      "channel": 4,
      "note": 78,
      "start": 67.2992,
      "duration": 0.0159,
      "velocity": 110,
      "chip": "ym2612"
    },
    {
      "channel": 3,
      "note": 71,
      "start": 67.3012,
      "duration": 0.0151,
      "velocity": 94,
      "chip": "ym2612"
    },
    {
      "channel": 2,
      "note": 59,
      "start": 67.3025,
      "duration": 0.0155,
      "velocity": 100,
      "chip": "ym2612"
    },
    {
      "channel": 1,
      "note": 71,
      "start": 67.3037,
      "duration": 0.0155,
      "velocity": 94,
      "chip": "ym2612"
    },
    {
      "channel": 0,
      "note": 37,
      "start": 67.3127,
      "duration": 0.0161,
      "velocity": 115,
      "chip": "ym2612"
    },
    {
      "channel": 5,
      "note": 75,
      "start": 67.3139,
      "duration": 0.0161,
      "velocity": 110,
      "chip": "ym2612"
    },
    {
      "channel": 4,
      "note": 78,
      "start": 67.3151,
      "duration": 0.0161,
      "velocity": 110,
      "chip": "ym2612"
    },
    {
      "channel": 3,
      "note": 71,
      "start": 67.3163,
      "duration": 0.016,
      "velocity": 94,
      "chip": "ym2612"
    },
    {
      "channel": 2,
      "note": 59,
      "start": 67.318,
      "duration": 0.0155,
      "velocity": 100,
      "chip": "ym2612"
    },
    {
      "channel": 1,
      "note": 71,
      "start": 67.3192,
      "duration": 0.016,
      "velocity": 94,
      "chip": "ym2612"
    },
    {
      "channel": 0,
      "note": 37,
      "start": 67.3288,
      "duration": 0.0161,
      "velocity": 115,
      "chip": "ym2612"
    },
    {
      "channel": 5,
      "note": 75,
      "start": 67.33,
      "duration": 0.0161,
      "velocity": 110,
      "chip": "ym2612"
    },
    {
      "channel": 4,
      "note": 78,
      "start": 67.3312,
      "duration": 0.0161,
      "velocity": 110,
      "chip": "ym2612"
    },
    {
      "channel": 3,
      "note": 71,
      "start": 67.3323,
      "duration": 0.0162,
      "velocity": 94,
      "chip": "ym2612"
    },
    {
      "channel": 2,
      "note": 59,
      "start": 67.3335,
      "duration": 0.0161,
      "velocity": 100,
      "chip": "ym2612"
    },
    {
      "channel": 1,
      "note": 71,
      "start": 67.3352,
      "duration": 0.0161,
      "velocity": 94,
      "chip": "ym2612"
    },
    {
      "channel": 0,
      "note": 38,
      "start": 67.3449,
      "duration": 0.0161,
      "velocity": 115,
      "chip": "ym2612"
    },
    {
      "channel": 3,
      "note": 71,
      "start": 67.3485,
      "duration": 0.0161,
      "velocity": 94,
      "chip": "ym2612"
    },
    {
      "channel": 2,
      "note": 59,
      "start": 67.3496,
      "duration": 0.0161,
      "velocity": 100,
      "chip": "ym2612"
    },
    {
      "channel": 1,
      "note": 71,
      "start": 67.3513,
      "duration": 0.0155,
      "velocity": 94,
      "chip": "ym2612"
    },
    {
      "channel": 0,
      "note": 38,
      "start": 67.361,
      "duration": 0.0161,
      "velocity": 115,
      "chip": "ym2612"
    },
    {
      "channel": 3,
      "note": 71,
      "start": 67.3646,
      "duration": 0.0161,
      "velocity": 94,
      "chip": "ym2612"
    },
    {
      "channel": 2,
      "note": 59,
      "start": 67.3657,
      "duration": 0.0161,
      "velocity": 100,
      "chip": "ym2612"
    },
    {
      "channel": 1,
      "note": 71,
      "start": 67.3668,
      "duration": 0.0161,
      "velocity": 94,
      "chip": "ym2612"
    },
    {
      "channel": 0,
      "note": 39,
      "start": 67.3771,
      "duration": 0.018,
      "velocity": 124,
      "chip": "ym2612"
    },
    {
      "channel": 3,
      "note": 71,
      "start": 67.3807,
      "duration": 0.0186,
      "velocity": 94,
      "chip": "ym2612"
    },
    {
      "channel": 2,
      "note": 59,
      "start": 67.3818,
      "duration": 0.0189,
      "velocity": 100,
      "chip": "ym2612"
    },
    {
      "channel": 1,
      "note": 71,
      "start": 67.3829,
      "duration": 0.0193,
      "velocity": 94,
      "chip": "ym2612"
    },
    {
      "channel": 0,
      "note": 84,
      "start": 67.3951,
      "duration": 0.0143,
      "velocity": 124,
      "chip": "ym2612"
    },
    {
      "channel": 5,
      "note": 78,
      "start": 67.3966,
      "duration": 0.0141,
      "velocity": 110,
      "chip": "ym2612"
    },
    {
      "channel": 4,
      "note": 75,
      "start": 67.3981,
      "duration": 0.0138,
      "velocity": 110,
      "chip": "ym2612"
    },
    {
      "channel": 3,
      "note": 71,
      "start": 67.3993,
      "duration": 0.0137,
      "velocity": 94,
      "chip": "ym2612"
    },
    {
      "channel": 2,
      "note": 59,
      "start": 67.4007,
      "duration": 0.0136,
      "velocity": 100,
      "chip": "ym2612"
    },
    {
      "channel": 1,
      "note": 71,
      "start": 67.4023,
      "duration": 0.0131,
      "velocity": 94,
      "chip": "ym2612"
    },
    {
      "channel": 0,
      "note": 82,
      "start": 67.4094,
      "duration": 0.016,
      "velocity": 124,
      "chip": "ym2612"
    },
    {
      "channel": 5,
      "note": 78,
      "start": 67.4106,
      "duration": 0.016,
      "velocity": 110,
      "chip": "ym2612"
    },
    {
      "channel": 4,
      "note": 75,
      "start": 67.4119,
      "duration": 0.0159,
      "velocity": 110,
      "chip": "ym2612"
    },
    {
      "channel": 3,
      "note": 71,
      "start": 67.413,
      "duration": 0.0159,
      "velocity": 94,
      "chip": "ym2612"
    },
    {
      "channel": 2,
      "note": 59,
      "start": 67.4142,
      "duration": 0.0159,
      "velocity": 100,
      "chip": "ym2612"
    },
    {
      "channel": 1,
      "note": 71,
      "start": 67.4154,
      "duration": 0.016,
      "velocity": 94,
      "chip": "ym2612"
    },
    {
      "channel": 0,
      "note": 80,
      "start": 67.4254,
      "duration": 0.0161,
      "velocity": 124,
      "chip": "ym2612"
    },
    {
      "channel": 5,
      "note": 78,
      "start": 67.4266,
      "duration": 0.0161,
      "velocity": 110,
      "chip": "ym2612"
    },
    {
      "channel": 4,
      "note": 75,
      "start": 67.4278,
      "duration": 0.0161,
      "velocity": 110,
      "chip": "ym2612"
    },
    {
      "channel": 3,
      "note": 71,
      "start": 67.4289,
      "duration": 0.0161,
      "velocity": 94,
      "chip": "ym2612"
    },
    {
      "channel": 2,
      "note": 59,
      "start": 67.4301,
      "duration": 0.0161,
      "velocity": 100,
      "chip": "ym2612"
    },
    {
      "channel": 1,
      "note": 71,
      "start": 67.4313,
      "duration": 0.016,
      "velocity": 94,
      "chip": "ym2612"
    },
    {
      "channel": 0,
      "note": 77,
      "start": 67.4415,
      "duration": 0.0161,
      "velocity": 124,
      "chip": "ym2612"
    },
    {
      "channel": 3,
      "note": 71,
      "start": 67.4451,
      "duration": 0.016,
      "velocity": 94,
      "chip": "ym2612"
    },
    {
      "channel": 2,
      "note": 59,
      "start": 67.4462,
      "duration": 0.016,
      "velocity": 100,
      "chip": "ym2612"
    },
    {
      "channel": 1,
      "note": 71,
      "start": 67.4474,
      "duration": 0.0161,
      "velocity": 94,
      "chip": "ym2612"
    },
    {
      "channel": 0,
      "note": 75,
      "start": 67.4576,
      "duration": 0.0161,
      "velocity": 124,
      "chip": "ym2612"
    },
    {
      "channel": 3,
      "note": 71,
      "start": 67.4611,
      "duration": 0.0162,
      "velocity": 94,
      "chip": "ym2612"
    },
    {
      "channel": 2,
      "note": 59,
      "start": 67.4623,
      "duration": 0.0161,
      "velocity": 100,
      "chip": "ym2612"
    },
    {
      "channel": 1,
      "note": 71,
      "start": 67.4635,
      "duration": 0.0161,
      "velocity": 94,
      "chip": "ym2612"
    },
    {
      "channel": 0,
      "note": 72,
      "start": 67.4737,
      "duration": 0.0161,
      "velocity": 124,
      "chip": "ym2612"
    },
    {
      "channel": 3,
      "note": 71,
      "start": 67.4773,
      "duration": 0.0167,
      "velocity": 94,
      "chip": "ym2612"
    },
    {
      "channel": 2,
      "note": 59,
      "start": 67.4784,
      "duration": 0.0169,
      "velocity": 100,
      "chip": "ym2612"
    },
    {
      "channel": 1,
      "note": 71,
      "start": 67.4796,
      "duration": 0.0169,
      "velocity": 94,
      "chip": "ym2612"
    },
    {
      "channel": 0,
      "note": 70,
      "start": 67.4898,
      "duration": 0.0161,
      "velocity": 124,
      "chip": "ym2612"
    },
    {
      "channel": 5,
      "note": 78,
      "start": 67.4913,
      "duration": 0.0159,
      "velocity": 110,
      "chip": "ym2612"
    },
    {
      "channel": 4,
      "note": 75,
      "start": 67.4927,
      "duration": 0.0156,
      "velocity": 110,
      "chip": "ym2612"
    },
    {
      "channel": 3,
      "note": 71,
      "start": 67.4939,
      "duration": 0.0156,
      "velocity": 94,
      "chip": "ym2612"
    },
    {
      "channel": 2,
      "note": 59,
      "start": 67.4953,
      "duration": 0.0155,
      "velocity": 100,
      "chip": "ym2612"
    },
    {
      "channel": 1,
      "note": 71,
      "start": 67.4965,
      "duration": 0.0155,
      "velocity": 94,
      "chip": "ym2612"
    },
    {
      "channel": 0,
      "note": 68,
      "start": 67.5059,
      "duration": 0.0161,
      "velocity": 124,
      "chip": "ym2612"
    },
    {
      "channel": 5,
      "note": 78,
      "start": 67.5072,
      "duration": 0.016,
      "velocity": 110,
      "chip": "ym2612"
    },
    {
      "channel": 4,
      "note": 75,
      "start": 67.5084,
      "duration": 0.016,
      "velocity": 110,
      "chip": "ym2612"
    },
    {
      "channel": 3,
      "note": 71,
      "start": 67.5096,
      "duration": 0.016,
      "velocity": 94,
      "chip": "ym2612"
    },
    {
      "channel": 2,
      "note": 59,
      "start": 67.5108,
      "duration": 0.016,
      "velocity": 100,
      "chip": "ym2612"
    },
    {
      "channel": 1,
      "note": 71,
      "start": 67.512,
      "duration": 0.016,
      "velocity": 94,
      "chip": "ym2612"
    },
    {
      "channel": 0,
      "note": 65,
      "start": 67.522,
      "duration": 0.0161,
      "velocity": 124,
      "chip": "ym2612"
    },
    {
      "channel": 5,
      "note": 78,
      "start": 67.5232,
      "duration": 0.0161,
      "velocity": 110,
      "chip": "ym2612"
    },
    {
      "channel": 4,
      "note": 75,
      "start": 67.5244,
      "duration": 0.0161,
      "velocity": 110,
      "chip": "ym2612"
    },
    {
      "channel": 3,
      "note": 71,
      "start": 67.5256,
      "duration": 0.0161,
      "velocity": 94,
      "chip": "ym2612"
    },
    {
      "channel": 2,
      "note": 59,
      "start": 67.5268,
      "duration": 0.0161,
      "velocity": 100,
      "chip": "ym2612"
    },
    {
      "channel": 1,
      "note": 71,
      "start": 67.5279,
      "duration": 0.0161,
      "velocity": 94,
      "chip": "ym2612"
    },
    {
      "channel": 0,
      "note": 63,
      "start": 67.5381,
      "duration": 0.0153,
      "velocity": 1,
      "chip": "ym2612"
    },
    {
      "channel": 5,
      "note": 78,
      "start": 67.5393,
      "duration": 0.0153,
      "velocity": 110,
      "chip": "ym2612"
    },
    {
      "channel": 4,
      "note": 75,
      "start": 67.5405,
      "duration": 0.0153,
      "velocity": 110,
      "chip": "ym2612"
    },
    {
      "channel": 3,
      "note": 71,
      "start": 67.5417,
      "duration": 0.0153,
      "velocity": 94,
      "chip": "ym2612"
    },
    {
      "channel": 2,
      "note": 59,
      "start": 67.5429,
      "duration": 0.0153,
      "velocity": 100,
      "chip": "ym2612"
    },
    {
      "channel": 1,
      "note": 71,
      "start": 67.544,
      "duration": 0.0153,
      "velocity": 94,
      "chip": "ym2612"
    },
    {
      "channel": 3,
      "note": 71,
      "start": 67.557,
      "duration": 0.0153,
      "velocity": 94,
      "chip": "ym2612"
    },
    {
      "channel": 2,
      "note": 59,
      "start": 67.5582,
      "duration": 0.0153,
      "velocity": 100,
      "chip": "ym2612"
    },
    {
      "channel": 1,
      "note": 71,
      "start": 67.5593,
      "duration": 0.0153,
      "velocity": 94,
      "chip": "ym2612"
    },
    {
      "channel": 3,
      "note": 71,
      "start": 67.5722,
      "duration": 0.0162,
      "velocity": 94,
      "chip": "ym2612"
    },
    {
      "channel": 2,
      "note": 59,
      "start": 67.5735,
      "duration": 0.0162,
      "velocity": 100,
      "chip": "ym2612"
    },
    {
      "channel": 1,
      "note": 71,
      "start": 67.5746,
      "duration": 0.0162,
      "velocity": 94,
      "chip": "ym2612"
    },
    {
      "channel": 3,
      "note": 71,
      "start": 67.5884,
      "duration": 0.0207,
      "velocity": 94,
      "chip": "ym2612"
    },
    {
      "channel": 2,
      "note": 59,
      "start": 67.5897,
      "duration": 0.0208,
      "velocity": 100,
      "chip": "ym2612"
    },
    {
      "channel": 1,
      "note": 71,
      "start": 67.5908,
      "duration": 0.0209,
      "velocity": 94,
      "chip": "ym2612"
    },
    {
      "channel": 0,
      "note": 36,
      "start": 67.6048,
      "duration": 0.0145,
      "velocity": 115,
      "chip": "ym2612"
    },
    {
      "channel": 5,
      "note": 75,
      "start": 67.6063,
      "duration": 0.0142,
      "velocity": 110,
      "chip": "ym2612"
    },
    {
      "channel": 4,
      "note": 78,
      "start": 67.6079,
      "duration": 0.0139,
      "velocity": 110,
      "chip": "ym2612"
    },
    {
      "channel": 3,
      "note": 71,
      "start": 67.6091,
      "duration": 0.0139,
      "velocity": 94,
      "chip": "ym2612"
    },
    {
      "channel": 2,
      "note": 54,
      "start": 67.6105,
      "duration": 0.0137,
      "velocity": 100,
      "chip": "ym2612"
    },
    {
      "channel": 1,
      "note": 71,
      "start": 67.6117,
      "duration": 0.0136,
      "velocity": 94,
      "chip": "ym2612"
    },
    {
      "channel": 0,
      "note": 36,
      "start": 67.6193,
      "duration": 0.0161,
      "velocity": 115,
      "chip": "ym2612"
    },
    {
      "channel": 5,
      "note": 75,
      "start": 67.6205,
      "duration": 0.016,
      "velocity": 110,
      "chip": "ym2612"
    },
    {
      "channel": 4,
      "note": 78,
      "start": 67.6217,
      "duration": 0.0159,
      "velocity": 110,
      "chip": "ym2612"
    },
    {
      "channel": 3,
      "note": 71,
      "start": 67.6229,
      "duration": 0.0159,
      "velocity": 94,
      "chip": "ym2612"
    },
    {
      "channel": 2,
      "note": 54,
      "start": 67.6241,
      "duration": 0.0159,
      "velocity": 100,
      "chip": "ym2612"
    },
    {
      "channel": 1,
      "note": 71,
      "start": 67.6253,
      "duration": 0.0159,
      "velocity": 94,
      "chip": "ym2612"
    },
    {
      "channel": 0,
      "note": 37,
      "start": 67.6354,
      "duration": 0.016,
      "velocity": 115,
      "chip": "ym2612"
    },
    {
      "channel": 5,
      "note": 75,
      "start": 67.6365,
      "duration": 0.0161,
      "velocity": 110,
      "chip": "ym2612"
    },
    {
      "channel": 4,
      "note": 78,
      "start": 67.6376,
      "duration": 0.0161,
      "velocity": 110,
      "chip": "ym2612"
    },
    {
      "channel": 3,
      "note": 71,
      "start": 67.6388,
      "duration": 0.0161,
      "velocity": 94,
      "chip": "ym2612"
    },
    {
      "channel": 2,
      "note": 54,
      "start": 67.64,
      "duration": 0.0161,
      "velocity": 100,
      "chip": "ym2612"
    },
    {
      "channel": 1,
      "note": 71,
      "start": 67.6412,
      "duration": 0.0161,
      "velocity": 94,
      "chip": "ym2612"
    },
    {
      "channel": 0,
      "note": 37,
      "start": 67.6514,
      "duration": 0.0155,
      "velocity": 115,
      "chip": "ym2612"
    },
    {
      "channel": 5,
      "note": 75,
      "start": 67.6526,
      "duration": 0.0161,
      "velocity": 110,
      "chip": "ym2612"
    },
    {
      "channel": 4,
      "note": 78,
      "start": 67.6537,
      "duration": 0.0161,
      "velocity": 110,
      "chip": "ym2612"
    },
    {
      "channel": 3,
      "note": 71,
      "start": 67.6549,
      "duration": 0.0161,
      "velocity": 94,
      "chip": "ym2612"
    },
    {
      "channel": 2,
      "note": 54,
      "start": 67.6561,
      "duration": 0.0161,
      "velocity": 100,
      "chip": "ym2612"
    },
    {
      "channel": 1,
      "note": 71,
      "start": 67.6573,
      "duration": 0.0161,
      "velocity": 94,
      "chip": "ym2612"
    },
    {
      "channel": 0,
      "note": 38,
      "start": 67.6669,
      "duration": 0.0161,
      "velocity": 115,
      "chip": "ym2612"
    },
    {
      "channel": 5,
      "note": 75,
      "start": 67.6687,
      "duration": 0.016,
      "velocity": 110,
      "chip": "ym2612"
    },
    {
      "channel": 4,
      "note": 78,
      "start": 67.6699,
      "duration": 0.016,
      "velocity": 110,
      "chip": "ym2612"
    },
    {
      "channel": 3,
      "note": 71,
      "start": 67.671,
      "duration": 0.0161,
      "velocity": 94,
      "chip": "ym2612"
    },
    {
      "channel": 2,
      "note": 54,
      "start": 67.6722,
      "duration": 0.0161,
      "velocity": 100,
      "chip": "ym2612"
    },
    {
      "channel": 1,
      "note": 71,
      "start": 67.6734,
      "duration": 0.0161,
      "velocity": 94,
      "chip": "ym2612"
    },
    {
      "channel": 0,
      "note": 38,
      "start": 67.683,
      "duration": 0.0185,
      "velocity": 115,
      "chip": "ym2612"
    },
    {
      "channel": 5,
      "note": 75,
      "start": 67.6847,
      "duration": 0.018,
      "velocity": 110,
      "chip": "ym2612"
    },
    {
      "channel": 4,
      "note": 78,
      "start": 67.6859,
      "duration": 0.018,
      "velocity": 110,
      "chip": "ym2612"
    },
    {
      "channel": 3,
      "note": 71,
      "start": 67.6871,
      "duration": 0.0179,
      "velocity": 94,
      "chip": "ym2612"
    },
    {
      "channel": 2,
      "note": 54,
      "start": 67.6883,
      "duration": 0.0183,
      "velocity": 100,
      "chip": "ym2612"
    },
    {
      "channel": 1,
      "note": 71,
      "start": 67.6895,
      "duration": 0.0183,
      "velocity": 94,
      "chip": "ym2612"
    },
    {
      "channel": 0,
      "note": 36,
      "start": 67.7015,
      "duration": 0.0138,
      "velocity": 115,
      "chip": "ym2612"
    },
    {
      "channel": 5,
      "note": 75,
      "start": 67.7027,
      "duration": 0.0137,
      "velocity": 110,
      "chip": "ym2612"
    },
    {
      "channel": 4,
      "note": 78,
      "start": 67.7039,
      "duration": 0.0143,
      "velocity": 110,
      "chip": "ym2612"
    },
    {
      "channel": 3,
      "note": 71,
      "start": 67.7051,
      "duration": 0.0144,
      "velocity": 94,
      "chip": "ym2612"
    },
    {
      "channel": 2,
      "note": 56,
      "start": 67.7065,
      "duration": 0.0141,
      "velocity": 100,
      "chip": "ym2612"
    },
    {
      "channel": 1,
      "note": 71,
      "start": 67.7078,
      "duration": 0.0141,
      "velocity": 94,
      "chip": "ym2612"
    },
    {
      "channel": 0,
      "note": 36,
      "start": 67.7153,
      "duration": 0.016,
      "velocity": 115,
      "chip": "ym2612"
    },
    {
      "channel": 3,
      "note": 71,
      "start": 67.7195,
      "duration": 0.016,
      "velocity": 94,
      "chip": "ym2612"
    },
    {
      "channel": 2,
      "note": 56,
      "start": 67.7207,
      "duration": 0.016,
      "velocity": 100,
      "chip": "ym2612"
    },
    {
      "channel": 1,
      "note": 71,
      "start": 67.7219,
      "duration": 0.0159,
      "velocity": 94,
      "chip": "ym2612"
    },
    {
      "channel": 0,
      "note": 37,
      "start": 67.7313,
      "duration": 0.0161,
      "velocity": 115,
      "chip": "ym2612"
    },
    {
      "channel": 3,
      "note": 71,
      "start": 67.7354,
      "duration": 0.0161,
      "velocity": 94,
      "chip": "ym2612"
    },
    {
      "channel": 2,
      "note": 56,
      "start": 67.7366,
      "duration": 0.0161,
      "velocity": 100,
      "chip": "ym2612"
    },
    {
      "channel": 1,
      "note": 71,
      "start": 67.7378,
      "duration": 0.0161,
      "velocity": 94,
      "chip": "ym2612"
    },
    {
      "channel": 0,
      "note": 37,
      "start": 67.7474,
      "duration": 0.0161,
      "velocity": 115,
      "chip": "ym2612"
    },
    {
      "channel": 3,
      "note": 71,
      "start": 67.7515,
      "duration": 0.0158,
      "velocity": 94,
      "chip": "ym2612"
    },
    {
      "channel": 2,
      "note": 56,
      "start": 67.7527,
      "duration": 0.0161,
      "velocity": 100,
      "chip": "ym2612"
    },
    {
      "channel": 1,
      "note": 71,
      "start": 67.7539,
      "duration": 0.0161,
      "velocity": 94,
      "chip": "ym2612"
    },
    {
      "channel": 0,
      "note": 38,
      "start": 67.7635,
      "duration": 0.0161,
      "velocity": 115,
      "chip": "ym2612"
    },
    {
      "channel": 3,
      "note": 71,
      "start": 67.7673,
      "duration": 0.0159,
      "velocity": 94,
      "chip": "ym2612"
    },
    {
      "channel": 2,
      "note": 56,
      "start": 67.7688,
      "duration": 0.016,
      "velocity": 100,
      "chip": "ym2612"
    },
    {
      "channel": 1,
      "note": 71,
      "start": 67.77,
      "duration": 0.0161,
      "velocity": 94,
      "chip": "ym2612"
    },
    {
      "channel": 0,
      "note": 38,
      "start": 67.7796,
      "duration": 0.0161,
      "velocity": 115,
      "chip": "ym2612"
    },
    {
      "channel": 3,
      "note": 71,
      "start": 67.7831,
      "duration": 0.0161,
      "velocity": 94,
      "chip": "ym2612"
    },
    {
      "channel": 2,
      "note": 56,
      "start": 67.7849,
      "duration": 0.0158,
      "velocity": 100,
      "chip": "ym2612"
    },
    {
      "channel": 1,
      "note": 71,
      "start": 67.7861,
      "duration": 0.0162,
      "velocity": 94,
      "chip": "ym2612"
    },
    {
      "channel": 0,
      "note": 39,
      "start": 67.7957,
      "duration": 0.0179,
      "velocity": 115,
      "chip": "ym2612"
    },
    {
      "channel": 3,
      "note": 71,
      "start": 67.7993,
      "duration": 0.0192,
      "velocity": 94,
      "chip": "ym2612"
    },
    {
      "channel": 2,
      "note": 56,
      "start": 67.8006,
      "duration": 0.0193,
      "velocity": 100,
      "chip": "ym2612"
    },
    {
      "channel": 1,
      "note": 71,
      "start": 67.8022,
      "duration": 0.0189,
      "velocity": 94,
      "chip": "ym2612"
    },
    {
      "channel": 0,
      "note": 36,
      "start": 67.8137,
      "duration": 0.0143,
      "velocity": 115,
      "chip": "ym2612"
    },
    {
      "channel": 5,
      "note": 78,
      "start": 67.8152,
      "duration": 0.0141,
      "velocity": 110,
      "chip": "ym2612"
    },
    {
      "channel": 4,
      "note": 75,
      "start": 67.8167,
      "duration": 0.0137,
      "velocity": 110,
      "chip": "ym2612"
    },
    {
      "channel": 3,
      "note": 71,
      "start": 67.8185,
      "duration": 0.0132,
      "velocity": 94,
      "chip": "ym2612"
    },
    {
      "channel": 2,
      "note": 59,
      "start": 67.8199,
      "duration": 0.013,
      "velocity": 100,
      "chip": "ym2612"
    },
    {
      "channel": 1,
      "note": 71,
      "start": 67.8211,
      "duration": 0.0135,
      "velocity": 94,
      "chip": "ym2612"
    },
    {
      "channel": 0,
      "note": 36,
      "start": 67.828,
      "duration": 0.016,
      "velocity": 115,
      "chip": "ym2612"
    },
    {
      "channel": 5,
      "note": 78,
      "start": 67.8293,
      "duration": 0.016,
      "velocity": 110,
      "chip": "ym2612"
    },
    {
      "channel": 4,
      "note": 75,
      "start": 67.8305,
      "duration": 0.0159,
      "velocity": 110,
      "chip": "ym2612"
    },
    {
      "channel": 3,
      "note": 71,
      "start": 67.8317,
      "duration": 0.0159,
      "velocity": 94,
      "chip": "ym2612"
    },
    {
      "channel": 2,
      "note": 59,
      "start": 67.8329,
      "duration": 0.0158,
      "velocity": 100,
      "chip": "ym2612"
    },
    {
      "channel": 1,
      "note": 71,
      "start": 67.8346,
      "duration": 0.0154,
      "velocity": 94,
      "chip": "ym2612"
    },
    {
      "channel": 0,
      "note": 37,
      "start": 67.844,
      "duration": 0.0161,
      "velocity": 115,
      "chip": "ym2612"
    },
    {
      "channel": 5,
      "note": 78,
      "start": 67.8452,
      "duration": 0.0161,
      "velocity": 110,
      "chip": "ym2612"
    },
    {
      "channel": 4,
      "note": 75,
      "start": 67.8463,
      "duration": 0.0161,
      "velocity": 110,
      "chip": "ym2612"
    },
    {
      "channel": 3,
      "note": 71,
      "start": 67.8476,
      "duration": 0.0161,
      "velocity": 94,
      "chip": "ym2612"
    },
    {
      "channel": 2,
      "note": 59,
      "start": 67.8487,
      "duration": 0.0161,
      "velocity": 100,
      "chip": "ym2612"
    },
    {
      "channel": 1,
      "note": 71,
      "start": 67.8499,
      "duration": 0.0161,
      "velocity": 94,
      "chip": "ym2612"
    },
    {
      "channel": 0,
      "note": 37,
      "start": 67.8602,
      "duration": 0.0161,
      "velocity": 115,
      "chip": "ym2612"
    },
    {
      "channel": 5,
      "note": 78,
      "start": 67.8613,
      "duration": 0.0161,
      "velocity": 110,
      "chip": "ym2612"
    },
    {
      "channel": 4,
      "note": 75,
      "start": 67.8624,
      "duration": 0.0162,
      "velocity": 110,
      "chip": "ym2612"
    },
    {
      "channel": 3,
      "note": 71,
      "start": 67.8637,
      "duration": 0.0161,
      "velocity": 94,
      "chip": "ym2612"
    },
    {
      "channel": 2,
      "note": 59,
      "start": 67.8648,
      "duration": 0.0161,
      "velocity": 100,
      "chip": "ym2612"
    },
    {
      "channel": 1,
      "note": 71,
      "start": 67.866,
      "duration": 0.0161,
      "velocity": 94,
      "chip": "ym2612"
    },
    {
      "channel": 0,
      "note": 38,
      "start": 67.8763,
      "duration": 0.0161,
      "velocity": 115,
      "chip": "ym2612"
    },
    {
      "channel": 5,
      "note": 78,
      "start": 67.8774,
      "duration": 0.0161,
      "velocity": 110,
      "chip": "ym2612"
    },
    {
      "channel": 4,
      "note": 75,
      "start": 67.8786,
      "duration": 0.0161,
      "velocity": 110,
      "chip": "ym2612"
    },
    {
      "channel": 3,
      "note": 71,
      "start": 67.8798,
      "duration": 0.0161,
      "velocity": 94,
      "chip": "ym2612"
    },
    {
      "channel": 2,
      "note": 59,
      "start": 67.8809,
      "duration": 0.0161,
      "velocity": 100,
      "chip": "ym2612"
    },
    {
      "channel": 1,
      "note": 71,
      "start": 67.8821,
      "duration": 0.0161,
      "velocity": 94,
      "chip": "ym2612"
    },
    {
      "channel": 0,
      "note": 38,
      "start": 67.8924,
      "duration": 0.0179,
      "velocity": 127,
      "chip": "ym2612"
    },
    {
      "channel": 5,
      "note": 78,
      "start": 67.8935,
      "duration": 0.0179,
      "velocity": 110,
      "chip": "ym2612"
    },
    {
      "channel": 4,
      "note": 75,
      "start": 67.8947,
      "duration": 0.018,
      "velocity": 110,
      "chip": "ym2612"
    },
    {
      "channel": 3,
      "note": 71,
      "start": 67.8959,
      "duration": 0.0179,
      "velocity": 94,
      "chip": "ym2612"
    },
    {
      "channel": 2,
      "note": 59,
      "start": 67.8971,
      "duration": 0.0182,
      "velocity": 100,
      "chip": "ym2612"
    },
    {
      "channel": 1,
      "note": 71,
      "start": 67.8982,
      "duration": 0.0183,
      "velocity": 94,
      "chip": "ym2612"
    },
    {
      "channel": 0,
      "note": 88,
      "start": 67.9103,
      "duration": 0.0143,
      "velocity": 127,
      "chip": "ym2612"
    },
    {
      "channel": 5,
      "note": 78,
      "start": 67.9114,
      "duration": 0.0144,
      "velocity": 110,
      "chip": "ym2612"
    },
    {
      "channel": 4,
      "note": 75,
      "start": 67.9127,
      "duration": 0.0143,
      "velocity": 110,
      "chip": "ym2612"
    },
    {
      "channel": 3,
      "note": 71,
      "start": 67.9138,
      "duration": 0.0144,
      "velocity": 94,
      "chip": "ym2612"
    },
    {
      "channel": 2,
      "note": 71,
      "start": 67.9153,
      "duration": 0.0141,
      "velocity": 100,
      "chip": "ym2612"
    },
    {
      "channel": 1,
      "note": 71,
      "start": 67.9165,
      "duration": 0.0141,
      "velocity": 94,
      "chip": "ym2612"
    },
    {
      "channel": 0,
      "note": 86,
      "start": 67.9246,
      "duration": 0.016,
      "velocity": 127,
      "chip": "ym2612"
    },
    {
      "channel": 3,
      "note": 71,
      "start": 67.9282,
      "duration": 0.016,
      "velocity": 94,
      "chip": "ym2612"
    },
    {
      "channel": 2,
      "note": 71,
      "start": 67.9294,
      "duration": 0.016,
      "velocity": 100,
      "chip": "ym2612"
    },
    {
      "channel": 1,
      "note": 71,
      "start": 67.9306,
      "duration": 0.0159,
      "velocity": 94,
      "chip": "ym2612"
    },
    {
      "channel": 0,
      "note": 85,
      "start": 67.9406,
      "duration": 0.0161,
      "velocity": 127,
      "chip": "ym2612"
    },
    {
      "channel": 3,
      "note": 71,
      "start": 67.9441,
      "duration": 0.0162,
      "velocity": 94,
      "chip": "ym2612"
    },
    {
      "channel": 2,
      "note": 71,
      "start": 67.9454,
      "duration": 0.0161,
      "velocity": 100,
      "chip": "ym2612"
    },
    {
      "channel": 1,
      "note": 71,
      "start": 67.9465,
      "duration": 0.0162,
      "velocity": 94,
      "chip": "ym2612"
    },
    {
      "channel": 0,
      "note": 83,
      "start": 67.9567,
      "duration": 0.0161,
      "velocity": 127,
      "chip": "ym2612"
    },
    {
      "channel": 3,
      "note": 71,
      "start": 67.9603,
      "duration": 0.0161,
      "velocity": 94,
      "chip": "ym2612"
    },
    {
      "channel": 2,
      "note": 71,
      "start": 67.9614,
      "duration": 0.0161,
      "velocity": 100,
      "chip": "ym2612"
    },
    {
      "channel": 1,
      "note": 71,
      "start": 67.9627,
      "duration": 0.0161,
      "velocity": 94,
      "chip": "ym2612"
    },
    {
      "channel": 0,
      "note": 81,
      "start": 67.9728,
      "duration": 0.0161,
      "velocity": 127,
      "chip": "ym2612"
    },
    {
      "channel": 3,
      "note": 71,
      "start": 67.9764,
      "duration": 0.0161,
      "velocity": 94,
      "chip": "ym2612"
    },
    {
      "channel": 2,
      "note": 71,
      "start": 67.9775,
      "duration": 0.0161,
      "velocity": 100,
      "chip": "ym2612"
    },
    {
      "channel": 1,
      "note": 71,
      "start": 67.9787,
      "duration": 0.0161,
      "velocity": 94,
      "chip": "ym2612"
    },
    {
      "channel": 0,
      "note": 80,
      "start": 67.9889,
      "duration": 0.0161,
      "velocity": 127,
      "chip": "ym2612"
    },
    {
      "channel": 3,
      "note": 71,
      "start": 67.9925,
      "duration": 0.0161,
      "velocity": 94,
      "chip": "ym2612"
    },
    {
      "channel": 2,
      "note": 71,
      "start": 67.9936,
      "duration": 0.0161,
      "velocity": 100,
      "chip": "ym2612"
    },
    {
      "channel": 1,
      "note": 71,
      "start": 67.9948,
      "duration": 0.0161,
      "velocity": 94,
      "chip": "ym2612"
    },
    {
      "channel": 0,
      "note": 78,
      "start": 68.005,
      "duration": 0.0162,
      "velocity": 127,
      "chip": "ym2612"
    },
    {
      "channel": 3,
      "note": 71,
      "start": 68.0086,
      "duration": 0.0169,
      "velocity": 94,
      "chip": "ym2612"
    },
    {
      "channel": 2,
      "note": 71,
      "start": 68.0097,
      "duration": 0.0172,
      "velocity": 100,
      "chip": "ym2612"
    },
    {
      "channel": 1,
      "note": 71,
      "start": 68.0109,
      "duration": 0.0172,
      "velocity": 94,
      "chip": "ym2612"
    },
    {
      "channel": 0,
      "note": 76,
      "start": 68.0212,
      "duration": 0.0161,
      "velocity": 127,
      "chip": "ym2612"
    },
    {
      "channel": 5,
      "note": 75,
      "start": 68.0227,
      "duration": 0.0158,
      "velocity": 110,
      "chip": "ym2612"
    },
    {
      "channel": 4,
      "note": 78,
      "start": 68.0243,
      "duration": 0.0155,
      "velocity": 110,
      "chip": "ym2612"
    },
    {
      "channel": 3,
      "note": 71,
      "start": 68.0255,
      "duration": 0.0155,
      "velocity": 94,
      "chip": "ym2612"
    },
    {
      "channel": 2,
      "note": 59,
      "start": 68.027,
      "duration": 0.0153,
      "velocity": 100,
      "chip": "ym2612"
    },
    {
      "channel": 1,
      "note": 71,
      "start": 68.0281,
      "duration": 0.0153,
      "velocity": 94,
      "chip": "ym2612"
    },
    {
      "channel": 0,
      "note": 75,
      "start": 68.0373,
      "duration": 0.0161,
      "velocity": 127,
      "chip": "ym2612"
    },
    {
      "channel": 5,
      "note": 75,
      "start": 68.0385,
      "duration": 0.016,
      "velocity": 110,
      "chip": "ym2612"
    },
    {
      "channel": 4,
      "note": 78,
      "start": 68.0398,
      "duration": 0.016,
      "velocity": 110,
      "chip": "ym2612"
    },
    {
      "channel": 3,
      "note": 71,
      "start": 68.041,
      "duration": 0.016,
      "velocity": 94,
      "chip": "ym2612"
    },
    {
      "channel": 2,
      "note": 59,
      "start": 68.0422,
      "duration": 0.0159,
      "velocity": 100,
      "chip": "ym2612"
    },
    {
      "channel": 1,
      "note": 71,
      "start": 68.0434,
      "duration": 0.0159,
      "velocity": 94,
      "chip": "ym2612"
    },
    {
      "channel": 0,
      "note": 73,
      "start": 68.0534,
      "duration": 0.0164,
      "velocity": 127,
      "chip": "ym2612"
    },
    {
      "channel": 5,
      "note": 75,
      "start": 68.0546,
      "duration": 0.0165,
      "velocity": 110,
      "chip": "ym2612"
    },
    {
      "channel": 4,
      "note": 78,
      "start": 68.0558,
      "duration": 0.0164,
      "velocity": 110,
      "chip": "ym2612"
    },
    {
      "channel": 3,
      "note": 71,
      "start": 68.057,
      "duration": 0.0164,
      "velocity": 94,
      "chip": "ym2612"
    },
    {
      "channel": 2,
      "note": 59,
      "start": 68.0581,
      "duration": 0.0164,
      "velocity": 100,
      "chip": "ym2612"
    },
    {
      "channel": 1,
      "note": 71,
      "start": 68.0593,
      "duration": 0.0165,
      "velocity": 94,
      "chip": "ym2612"
    },
    {
      "channel": 0,
      "note": 71,
      "start": 68.0698,
      "duration": 0.0163,
      "velocity": 127,
      "chip": "ym2612"
    },
    {
      "channel": 5,
      "note": 75,
      "start": 68.071,
      "duration": 0.0163,
      "velocity": 110,
      "chip": "ym2612"
    },
    {
      "channel": 4,
      "note": 78,
      "start": 68.0722,
      "duration": 0.0163,
      "velocity": 110,
      "chip": "ym2612"
    },
    {
      "channel": 3,
      "note": 71,
      "start": 68.0734,
      "duration": 0.0163,
      "velocity": 94,
      "chip": "ym2612"
    },
    {
      "channel": 2,
      "note": 59,
      "start": 68.0745,
      "duration": 0.0163,
      "velocity": 100,
      "chip": "ym2612"
    },
    {
      "channel": 1,
      "note": 71,
      "start": 68.0757,
      "duration": 0.0163,
      "velocity": 94,
      "chip": "ym2612"
    },
    {
      "channel": 0,
      "note": 69,
      "start": 68.0861,
      "duration": 0.0161,
      "velocity": 127,
      "chip": "ym2612"
    },
    {
      "channel": 5,
      "note": 75,
      "start": 68.0873,
      "duration": 0.0161,
      "velocity": 110,
      "chip": "ym2612"
    },
    {
      "channel": 4,
      "note": 78,
      "start": 68.0885,
      "duration": 0.0161,
      "velocity": 110,
      "chip": "ym2612"
    },
    {
      "channel": 3,
      "note": 71,
      "start": 68.0897,
      "duration": 0.0161,
      "velocity": 94,
      "chip": "ym2612"
    },
    {
      "channel": 2,
      "note": 59,
      "start": 68.0909,
      "duration": 0.0161,
      "velocity": 100,
      "chip": "ym2612"
    },
    {
      "channel": 1,
      "note": 71,
      "start": 68.092,
      "duration": 0.0161,
      "velocity": 94,
      "chip": "ym2612"
    },
    {
      "channel": 0,
      "note": 68,
      "start": 68.1023,
      "duration": 0.0179,
      "velocity": 127,
      "chip": "ym2612"
    },
    {
      "channel": 5,
      "note": 75,
      "start": 68.1034,
      "duration": 0.018,
      "velocity": 110,
      "chip": "ym2612"
    },
    {
      "channel": 4,
      "note": 78,
      "start": 68.1046,
      "duration": 0.018,
      "velocity": 110,
      "chip": "ym2612"
    },
    {
      "channel": 3,
      "note": 71,
      "start": 68.1058,
      "duration": 0.018,
      "velocity": 94,
      "chip": "ym2612"
    },
    {
      "channel": 2,
      "note": 59,
      "start": 68.107,
      "duration": 0.0183,
      "velocity": 100,
      "chip": "ym2612"
    },
    {
      "channel": 1,
      "note": 71,
      "start": 68.1081,
      "duration": 0.0183,
      "velocity": 94,
      "chip": "ym2612"
    },
    {
      "channel": 0,
      "note": 84,
      "start": 68.1203,
      "duration": 0.0139,
      "velocity": 127,
      "chip": "ym2612"
    },
    {
      "channel": 5,
      "note": 75,
      "start": 68.1214,
      "duration": 0.0142,
      "velocity": 110,
      "chip": "ym2612"
    },
    {
      "channel": 4,
      "note": 78,
      "start": 68.1226,
      "duration": 0.0142,
      "velocity": 110,
      "chip": "ym2612"
    },
    {
      "channel": 3,
      "note": 71,
      "start": 68.1238,
      "duration": 0.0143,
      "velocity": 94,
      "chip": "ym2612"
    },
    {
      "channel": 2,
      "note": 71,
      "start": 68.1252,
      "duration": 0.0141,
      "velocity": 100,
      "chip": "ym2612"
    },
    {
      "channel": 1,
      "note": 71,
      "start": 68.1264,
      "duration": 0.014,
      "velocity": 94,
      "chip": "ym2612"
    },
    {
      "channel": 0,
      "note": 82,
      "start": 68.1341,
      "duration": 0.0158,
      "velocity": 127,
      "chip": "ym2612"
    },
    {
      "channel": 3,
      "note": 71,
      "start": 68.1381,
      "duration": 0.016,
      "velocity": 94,
      "chip": "ym2612"
    },
    {
      "channel": 2,
      "note": 71,
      "start": 68.1393,
      "duration": 0.0159,
      "velocity": 100,
      "chip": "ym2612"
    },
    {
      "channel": 1,
      "note": 71,
      "start": 68.1405,
      "duration": 0.016,
      "velocity": 94,
      "chip": "ym2612"
    },
    {
      "channel": 0,
      "note": 81,
      "start": 68.1499,
      "duration": 0.0161,
      "velocity": 127,
      "chip": "ym2612"
    },
    {
      "channel": 3,
      "note": 71,
      "start": 68.1541,
      "duration": 0.0161,
      "velocity": 94,
      "chip": "ym2612"
    },
    {
      "channel": 2,
      "note": 71,
      "start": 68.1552,
      "duration": 0.0162,
      "velocity": 100,
      "chip": "ym2612"
    },
    {
      "channel": 1,
      "note": 71,
      "start": 68.1564,
      "duration": 0.0161,
      "velocity": 94,
      "chip": "ym2612"
    },
    {
      "channel": 0,
      "note": 79,
      "start": 68.166,
      "duration": 0.0162,
      "velocity": 127,
      "chip": "ym2612"
    },
    {
      "channel": 3,
      "note": 71,
      "start": 68.1702,
      "duration": 0.0161,
      "velocity": 94,
      "chip": "ym2612"
    },
    {
      "channel": 2,
      "note": 71,
      "start": 68.1714,
      "duration": 0.0161,
      "velocity": 100,
      "chip": "ym2612"
    },
    {
      "channel": 1,
      "note": 71,
      "start": 68.1725,
      "duration": 0.0162,
      "velocity": 94,
      "chip": "ym2612"
    },
    {
      "channel": 0,
      "note": 77,
      "start": 68.1822,
      "duration": 0.0161,
      "velocity": 127,
      "chip": "ym2612"
    },
    {
      "channel": 3,
      "note": 71,
      "start": 68.1863,
      "duration": 0.0161,
      "velocity": 94,
      "chip": "ym2612"
    },
    {
      "channel": 2,
      "note": 71,
      "start": 68.1875,
      "duration": 0.0161,
      "velocity": 100,
      "chip": "ym2612"
    },
    {
      "channel": 1,
      "note": 71,
      "start": 68.1887,
      "duration": 0.016,
      "velocity": 94,
      "chip": "ym2612"
    },
    {
      "channel": 0,
      "note": 76,
      "start": 68.1983,
      "duration": 0.0161,
      "velocity": 127,
      "chip": "ym2612"
    },
    {
      "channel": 3,
      "note": 71,
      "start": 68.2024,
      "duration": 0.016,
      "velocity": 94,
      "chip": "ym2612"
    },
    {
      "channel": 2,
      "note": 71,
      "start": 68.2035,
      "duration": 0.0162,
      "velocity": 100,
      "chip": "ym2612"
    },
    {
      "channel": 1,
      "note": 71,
      "start": 68.2047,
      "duration": 0.0161,
      "velocity": 94,
      "chip": "ym2612"
    },
    {
      "channel": 0,
      "note": 74,
      "start": 68.2144,
      "duration": 0.0179,
      "velocity": 127,
      "chip": "ym2612"
    },
    {
      "channel": 3,
      "note": 71,
      "start": 68.2184,
      "duration": 0.0188,
      "velocity": 94,
      "chip": "ym2612"
    },
    {
      "channel": 2,
      "note": 71,
      "start": 68.2197,
      "duration": 0.0189,
      "velocity": 100,
      "chip": "ym2612"
    },
    {
      "channel": 1,
      "note": 71,
      "start": 68.2208,
      "duration": 0.019,
      "velocity": 94,
      "chip": "ym2612"
    },
    {
      "channel": 0,
      "note": 78,
      "start": 68.2324,
      "duration": 0.0143,
      "velocity": 127,
      "chip": "ym2612"
    },
    {
      "channel": 5,
      "note": 78,
      "start": 68.2341,
      "duration": 0.0138,
      "velocity": 110,
      "chip": "ym2612"
    },
    {
      "channel": 4,
      "note": 75,
      "start": 68.236,
      "duration": 0.0131,
      "velocity": 110,
      "chip": "ym2612"
    },
    {
      "channel": 3,
      "note": 71,
      "start": 68.2372,
      "duration": 0.0131,
      "velocity": 94,
      "chip": "ym2612"
    },
    {
      "channel": 2,
      "note": 54,
      "start": 68.2386,
      "duration": 0.0135,
      "velocity": 100,
      "chip": "ym2612"
    },
    {
      "channel": 1,
      "note": 71,
      "start": 68.2398,
      "duration": 0.0135,
      "velocity": 94,
      "chip": "ym2612"
    },
    {
      "channel": 0,
      "note": 76,
      "start": 68.2466,
      "duration": 0.016,
      "velocity": 127,
      "chip": "ym2612"
    },
    {
      "channel": 5,
      "note": 78,
      "start": 68.2479,
      "duration": 0.016,
      "velocity": 110,
      "chip": "ym2612"
    },
    {
      "channel": 4,
      "note": 75,
      "start": 68.2491,
      "duration": 0.0159,
      "velocity": 110,
      "chip": "ym2612"
    },
    {
      "channel": 3,
      "note": 71,
      "start": 68.2503,
      "duration": 0.0159,
      "velocity": 94,
      "chip": "ym2612"
    },
    {
      "channel": 2,
      "note": 54,
      "start": 68.2521,
      "duration": 0.0155,
      "velocity": 100,
      "chip": "ym2612"
    },
    {
      "channel": 1,
      "note": 71,
      "start": 68.2533,
      "duration": 0.0159,
      "velocity": 94,
      "chip": "ym2612"
    },
    {
      "channel": 0,
      "note": 75,
      "start": 68.2627,
      "duration": 0.0161,
      "velocity": 127,
      "chip": "ym2612"
    },
    {
      "channel": 5,
      "note": 78,
      "start": 68.2639,
      "duration": 0.0161,
      "velocity": 110,
      "chip": "ym2612"
    },
    {
      "channel": 4,
      "note": 75,
      "start": 68.265,
      "duration": 0.0161,
      "velocity": 110,
      "chip": "ym2612"
    },
    {
      "channel": 3,
      "note": 71,
      "start": 68.2662,
      "duration": 0.0161,
      "velocity": 94,
      "chip": "ym2612"
    },
    {
      "channel": 2,
      "note": 54,
      "start": 68.2676,
      "duration": 0.0159,
      "velocity": 100,
      "chip": "ym2612"
    },
    {
      "channel": 1,
      "note": 71,
      "start": 68.2691,
      "duration": 0.016,
      "velocity": 94,
      "chip": "ym2612"
    },
    {
      "channel": 0,
      "note": 73,
      "start": 68.2787,
      "duration": 0.0161,
      "velocity": 127,
      "chip": "ym2612"
    },
    {
      "channel": 5,
      "note": 78,
      "start": 68.28,
      "duration": 0.0161,
      "velocity": 110,
      "chip": "ym2612"
    },
    {
      "channel": 4,
      "note": 75,
      "start": 68.2811,
      "duration": 0.0161,
      "velocity": 110,
      "chip": "ym2612"
    },
    {
      "channel": 3,
      "note": 71,
      "start": 68.2823,
      "duration": 0.0161,
      "velocity": 94,
      "chip": "ym2612"
    },
    {
      "channel": 2,
      "note": 54,
      "start": 68.2834,
      "duration": 0.0162,
      "velocity": 100,
      "chip": "ym2612"
    },
    {
      "channel": 1,
      "note": 71,
      "start": 68.2852,
      "duration": 0.0158,
      "velocity": 94,
      "chip": "ym2612"
    },
    {
      "channel": 0,
      "note": 71,
      "start": 68.2948,
      "duration": 0.0161,
      "velocity": 127,
      "chip": "ym2612"
    },
    {
      "channel": 5,
      "note": 78,
      "start": 68.296,
      "duration": 0.0161,
      "velocity": 110,
      "chip": "ym2612"
    },
    {
      "channel": 4,
      "note": 75,
      "start": 68.2972,
      "duration": 0.0161,
      "velocity": 110,
      "chip": "ym2612"
    },
    {
      "channel": 3,
      "note": 71,
      "start": 68.2984,
      "duration": 0.0162,
      "velocity": 94,
      "chip": "ym2612"
    },
    {
      "channel": 2,
      "note": 54,
      "start": 68.2996,
      "duration": 0.0161,
      "velocity": 100,
      "chip": "ym2612"
    },
    {
      "channel": 1,
      "note": 71,
      "start": 68.301,
      "duration": 0.0159,
      "velocity": 94,
      "chip": "ym2612"
    },
    {
      "channel": 0,
      "note": 70,
      "start": 68.3109,
      "duration": 0.0179,
      "velocity": 115,
      "chip": "ym2612"
    },
    {
      "channel": 5,
      "note": 78,
      "start": 68.3121,
      "duration": 0.0179,
      "velocity": 110,
      "chip": "ym2612"
    },
    {
      "channel": 4,
      "note": 75,
      "start": 68.3133,
      "duration": 0.018,
      "velocity": 110,
      "chip": "ym2612"
    },
    {
      "channel": 3,
      "note": 71,
      "start": 68.3146,
      "duration": 0.0179,
      "velocity": 94,
      "chip": "ym2612"
    },
    {
      "channel": 2,
      "note": 54,
      "start": 68.3157,
      "duration": 0.0179,
      "velocity": 100,
      "chip": "ym2612"
    },
    {
      "channel": 1,
      "note": 71,
      "start": 68.3168,
      "duration": 0.0185,
      "velocity": 94,
      "chip": "ym2612"
    },
    {
      "channel": 0,
      "note": 36,
      "start": 68.3289,
      "duration": 0.0143,
      "velocity": 115,
      "chip": "ym2612"
    },
    {
      "channel": 5,
      "note": 78,
      "start": 68.3301,
      "duration": 0.0143,
      "velocity": 110,
      "chip": "ym2612"
    },
    {
      "channel": 4,
      "note": 75,
      "start": 68.3313,
      "duration": 0.0143,
      "velocity": 110,
      "chip": "ym2612"
    },
    {
      "channel": 3,
      "note": 71,
      "start": 68.3324,
      "duration": 0.0144,
      "velocity": 94,
      "chip": "ym2612"
    },
    {
      "channel": 2,
      "note": 54,
      "start": 68.3336,
      "duration": 0.0143,
      "velocity": 100,
      "chip": "ym2612"
    },
    {
      "channel": 1,
      "note": 71,
      "start": 68.3354,
      "duration": 0.0138,
      "velocity": 94,
      "chip": "ym2612"
    },
    {
      "channel": 0,
      "note": 36,
      "start": 68.3432,
      "duration": 0.016,
      "velocity": 115,
      "chip": "ym2612"
    },
    {
      "channel": 3,
      "note": 71,
      "start": 68.3468,
      "duration": 0.016,
      "velocity": 94,
      "chip": "ym2612"
    },
    {
      "channel": 2,
      "note": 54,
      "start": 68.348,
      "duration": 0.016,
      "velocity": 100,
      "chip": "ym2612"
    },
    {
      "channel": 1,
      "note": 71,
      "start": 68.3492,
      "duration": 0.016,
      "velocity": 94,
      "chip": "ym2612"
    },
    {
      "channel": 0,
      "note": 37,
      "start": 68.3593,
      "duration": 0.0161,
      "velocity": 115,
      "chip": "ym2612"
    },
    {
      "channel": 3,
      "note": 71,
      "start": 68.3628,
      "duration": 0.0162,
      "velocity": 94,
      "chip": "ym2612"
    },
    {
      "channel": 2,
      "note": 54,
      "start": 68.364,
      "duration": 0.0161,
      "velocity": 100,
      "chip": "ym2612"
    },
    {
      "channel": 1,
      "note": 71,
      "start": 68.3651,
      "duration": 0.0162,
      "velocity": 94,
      "chip": "ym2612"
    },
    {
      "channel": 0,
      "note": 37,
      "start": 68.3754,
      "duration": 0.0161,
      "velocity": 115,
      "chip": "ym2612"
    },
    {
      "channel": 3,
      "note": 71,
      "start": 68.3789,
      "duration": 0.0161,
      "velocity": 94,
      "chip": "ym2612"
    },
    {
      "channel": 2,
      "note": 54,
      "start": 68.3801,
      "duration": 0.0161,
      "velocity": 100,
      "chip": "ym2612"
    },
    {
      "channel": 1,
      "note": 71,
      "start": 68.3813,
      "duration": 0.0161,
      "velocity": 94,
      "chip": "ym2612"
    },
    {
      "channel": 0,
      "note": 38,
      "start": 68.3915,
      "duration": 0.0161,
      "velocity": 115,
      "chip": "ym2612"
    },
    {
      "channel": 3,
      "note": 71,
      "start": 68.395,
      "duration": 0.0161,
      "velocity": 94,
      "chip": "ym2612"
    },
    {
      "channel": 2,
      "note": 54,
      "start": 68.3962,
      "duration": 0.0161,
      "velocity": 100,
      "chip": "ym2612"
    },
    {
      "channel": 1,
      "note": 71,
      "start": 68.3974,
      "duration": 0.0161,
      "velocity": 94,
      "chip": "ym2612"
    },
    {
      "channel": 0,
      "note": 38,
      "start": 68.4076,
      "duration": 0.0161,
      "velocity": 115,
      "chip": "ym2612"
    },
    {
      "channel": 3,
      "note": 71,
      "start": 68.4111,
      "duration": 0.0161,
      "velocity": 94,
      "chip": "ym2612"
    },
    {
      "channel": 2,
      "note": 54,
      "start": 68.4123,
      "duration": 0.0161,
      "velocity": 100,
      "chip": "ym2612"
    },
    {
      "channel": 1,
      "note": 71,
      "start": 68.4135,
      "duration": 0.0161,
      "velocity": 94,
      "chip": "ym2612"
    },
    {
      "channel": 0,
      "note": 39,
      "start": 68.4237,
      "duration": 0.0179,
      "velocity": 124,
      "chip": "ym2612"
    },
    {
      "channel": 3,
      "note": 71,
      "start": 68.4272,
      "duration": 0.0188,
      "velocity": 94,
      "chip": "ym2612"
    },
    {
      "channel": 2,
      "note": 54,
      "start": 68.4284,
      "duration": 0.0191,
      "velocity": 100,
      "chip": "ym2612"
    },
    {
      "channel": 1,
      "note": 71,
      "start": 68.4296,
      "duration": 0.0191,
      "velocity": 94,
      "chip": "ym2612"
    },
    {
      "channel": 0,
      "note": 84,
      "start": 68.4417,
      "duration": 0.0143,
      "velocity": 124,
      "chip": "ym2612"
    },
    {
      "channel": 5,
      "note": 75,
      "start": 68.4432,
      "duration": 0.014,
      "velocity": 110,
      "chip": "ym2612"
    },
    {
      "channel": 4,
      "note": 78,
      "start": 68.4448,
      "duration": 0.0137,
      "velocity": 110,
      "chip": "ym2612"
    },
    {
      "channel": 3,
      "note": 71,
      "start": 68.446,
      "duration": 0.0137,
      "velocity": 94,
      "chip": "ym2612"
    },
    {
      "channel": 2,
      "note": 56,
      "start": 68.4474,
      "duration": 0.0134,
      "velocity": 100,
      "chip": "ym2612"
    },
    {
      "channel": 1,
      "note": 71,
      "start": 68.4486,
      "duration": 0.0134,
      "velocity": 94,
      "chip": "ym2612"
    },
    {
      "channel": 0,
      "note": 82,
      "start": 68.456,
      "duration": 0.016,
      "velocity": 124,
      "chip": "ym2612"
    },
    {
      "channel": 5,
      "note": 75,
      "start": 68.4572,
      "duration": 0.016,
      "velocity": 110,
      "chip": "ym2612"
    },
    {
      "channel": 4,
      "note": 78,
      "start": 68.4584,
      "duration": 0.0159,
      "velocity": 110,
      "chip": "ym2612"
    },
    {
      "channel": 3,
      "note": 71,
      "start": 68.4597,
      "duration": 0.0159,
      "velocity": 94,
      "chip": "ym2612"
    },
    {
      "channel": 2,
      "note": 56,
      "start": 68.4609,
      "duration": 0.0159,
      "velocity": 100,
      "chip": "ym2612"
    },
    {
      "channel": 1,
      "note": 71,
      "start": 68.462,
      "duration": 0.0159,
      "velocity": 94,
      "chip": "ym2612"
    },
    {
      "channel": 0,
      "note": 80,
      "start": 68.472,
      "duration": 0.0161,
      "velocity": 124,
      "chip": "ym2612"
    },
    {
      "channel": 5,
      "note": 75,
      "start": 68.4731,
      "duration": 0.0161,
      "velocity": 110,
      "chip": "ym2612"
    },
    {
      "channel": 4,
      "note": 78,
      "start": 68.4744,
      "duration": 0.0161,
      "velocity": 110,
      "chip": "ym2612"
    },
    {
      "channel": 3,
      "note": 71,
      "start": 68.4756,
      "duration": 0.0161,
      "velocity": 94,
      "chip": "ym2612"
    },
    {
      "channel": 2,
      "note": 56,
      "start": 68.4767,
      "duration": 0.0161,
      "velocity": 100,
      "chip": "ym2612"
    },
    {
      "channel": 1,
      "note": 71,
      "start": 68.4779,
      "duration": 0.0161,
      "velocity": 94,
      "chip": "ym2612"
    },
    {
      "channel": 0,
      "note": 77,
      "start": 68.4881,
      "duration": 0.0161,
      "velocity": 124,
      "chip": "ym2612"
    },
    {
      "channel": 5,
      "note": 75,
      "start": 68.4892,
      "duration": 0.0161,
      "velocity": 110,
      "chip": "ym2612"
    },
    {
      "channel": 4,
      "note": 78,
      "start": 68.4905,
      "duration": 0.0161,
      "velocity": 110,
      "chip": "ym2612"
    },
    {
      "channel": 3,
      "note": 71,
      "start": 68.4917,
      "duration": 0.0161,
      "velocity": 94,
      "chip": "ym2612"
    },
    {
      "channel": 2,
      "note": 56,
      "start": 68.4928,
      "duration": 0.0161,
      "velocity": 100,
      "chip": "ym2612"
    },
    {
      "channel": 1,
      "note": 71,
      "start": 68.494,
      "duration": 0.0161,
      "velocity": 94,
      "chip": "ym2612"
    },
    {
      "channel": 0,
      "note": 75,
      "start": 68.5042,
      "duration": 0.0162,
      "velocity": 124,
      "chip": "ym2612"
    },
    {
      "channel": 5,
      "note": 75,
      "start": 68.5053,
      "duration": 0.0162,
      "velocity": 110,
      "chip": "ym2612"
    },
    {
      "channel": 4,
      "note": 78,
      "start": 68.5065,
      "duration": 0.0162,
      "velocity": 110,
      "chip": "ym2612"
    },
    {
      "channel": 3,
      "note": 71,
      "start": 68.5078,
      "duration": 0.0161,
      "velocity": 94,
      "chip": "ym2612"
    },
    {
      "channel": 2,
      "note": 56,
      "start": 68.5089,
      "duration": 0.0162,
      "velocity": 100,
      "chip": "ym2612"
    },
    {
      "channel": 1,
      "note": 71,
      "start": 68.5101,
      "duration": 0.0162,
      "velocity": 94,
      "chip": "ym2612"
    },
    {
      "channel": 0,
      "note": 72,
      "start": 68.5203,
      "duration": 0.0182,
      "velocity": 124,
      "chip": "ym2612"
    },
    {
      "channel": 5,
      "note": 75,
      "start": 68.5215,
      "duration": 0.0182,
      "velocity": 110,
      "chip": "ym2612"
    },
    {
      "channel": 4,
      "note": 78,
      "start": 68.5227,
      "duration": 0.0183,
      "velocity": 110,
      "chip": "ym2612"
    },
    {
      "channel": 3,
      "note": 71,
      "start": 68.5239,
      "duration": 0.0182,
      "velocity": 94,
      "chip": "ym2612"
    },
    {
      "channel": 2,
      "note": 56,
      "start": 68.5251,
      "duration": 0.0183,
      "velocity": 100,
      "chip": "ym2612"
    },
    {
      "channel": 1,
      "note": 71,
      "start": 68.5263,
      "duration": 0.0182,
      "velocity": 94,
      "chip": "ym2612"
    },
    {
      "channel": 0,
      "note": 84,
      "start": 68.5386,
      "duration": 0.0145,
      "velocity": 124,
      "chip": "ym2612"
    },
    {
      "channel": 5,
      "note": 75,
      "start": 68.5398,
      "duration": 0.0146,
      "velocity": 110,
      "chip": "ym2612"
    },
    {
      "channel": 4,
      "note": 78,
      "start": 68.541,
      "duration": 0.0146,
      "velocity": 110,
      "chip": "ym2612"
    },
    {
      "channel": 3,
      "note": 71,
      "start": 68.5421,
      "duration": 0.0146,
      "velocity": 94,
      "chip": "ym2612"
    },
    {
      "channel": 2,
      "note": 56,
      "start": 68.5433,
      "duration": 0.0146,
      "velocity": 100,
      "chip": "ym2612"
    },
    {
      "channel": 1,
      "note": 71,
      "start": 68.5444,
      "duration": 0.0146,
      "velocity": 94,
      "chip": "ym2612"
    },
    {
      "channel": 0,
      "note": 82,
      "start": 68.5531,
      "duration": 0.0161,
      "velocity": 124,
      "chip": "ym2612"
    },
    {
      "channel": 3,
      "note": 71,
      "start": 68.5567,
      "duration": 0.016,
      "velocity": 94,
      "chip": "ym2612"
    },
    {
      "channel": 2,
      "note": 56,
      "start": 68.5579,
      "duration": 0.016,
      "velocity": 100,
      "chip": "ym2612"
    },
    {
      "channel": 1,
      "note": 71,
      "start": 68.559,
      "duration": 0.0161,
      "velocity": 94,
      "chip": "ym2612"
    },
    {
      "channel": 0,
      "note": 80,
      "start": 68.5692,
      "duration": 0.016,
      "velocity": 124,
      "chip": "ym2612"
    },
    {
      "channel": 3,
      "note": 71,
      "start": 68.5727,
      "duration": 0.0161,
      "velocity": 94,
      "chip": "ym2612"
    },
    {
      "channel": 2,
      "note": 56,
      "start": 68.5739,
      "duration": 0.0161,
      "velocity": 100,
      "chip": "ym2612"
    },
    {
      "channel": 1,
      "note": 71,
      "start": 68.5751,
      "duration": 0.016,
      "velocity": 94,
      "chip": "ym2612"
    },
    {
      "channel": 0,
      "note": 77,
      "start": 68.5852,
      "duration": 0.0161,
      "velocity": 124,
      "chip": "ym2612"
    },
    {
      "channel": 3,
      "note": 71,
      "start": 68.5888,
      "duration": 0.0161,
      "velocity": 94,
      "chip": "ym2612"
    },
    {
      "channel": 2,
      "note": 56,
      "start": 68.59,
      "duration": 0.0161,
      "velocity": 100,
      "chip": "ym2612"
    },
    {
      "channel": 1,
      "note": 71,
      "start": 68.5911,
      "duration": 0.0162,
      "velocity": 94,
      "chip": "ym2612"
    },
    {
      "channel": 0,
      "note": 75,
      "start": 68.6013,
      "duration": 0.0156,
      "velocity": 124,
      "chip": "ym2612"
    },
    {
      "channel": 3,
      "note": 71,
      "start": 68.6049,
      "duration": 0.0162,
      "velocity": 94,
      "chip": "ym2612"
    },
    {
      "channel": 2,
      "note": 56,
      "start": 68.6061,
      "duration": 0.0161,
      "velocity": 100,
      "chip": "ym2612"
    },
    {
      "channel": 0,
      "note": 72,
      "start": 68.6169,
      "duration": 0.0161,
      "velocity": 124,
      "chip": "ym2612"
    },
    {
      "channel": 3,
      "note": 71,
      "start": 68.621,
      "duration": 0.0161,
      "velocity": 94,
      "chip": "ym2612"
    },
    {
      "channel": 2,
      "note": 56,
      "start": 68.6222,
      "duration": 0.0161,
      "velocity": 100,
      "chip": "ym2612"
    },
    {
      "channel": 0,
      "note": 70,
      "start": 68.633,
      "duration": 0.0161,
      "velocity": 124,
      "chip": "ym2612"
    },
    {
      "channel": 3,
      "note": 71,
      "start": 68.6371,
      "duration": 0.0168,
      "velocity": 94,
      "chip": "ym2612"
    },
    {
      "channel": 2,
      "note": 56,
      "start": 68.6383,
      "duration": 0.0169,
      "velocity": 100,
      "chip": "ym2612"
    },
    {
      "channel": 0,
      "note": 68,
      "start": 68.6491,
      "duration": 0.0161,
      "velocity": 124,
      "chip": "ym2612"
    },
    {
      "channel": 5,
      "note": 78,
      "start": 68.6508,
      "duration": 0.0156,
      "velocity": 110,
      "chip": "ym2612"
    },
    {
      "channel": 4,
      "note": 75,
      "start": 68.6527,
      "duration": 0.0155,
      "velocity": 110,
      "chip": "ym2612"
    },
    {
      "channel": 3,
      "note": 71,
      "start": 68.6539,
      "duration": 0.0155,
      "velocity": 94,
      "chip": "ym2612"
    },
    {
      "channel": 2,
      "note": 56,
      "start": 68.6551,
      "duration": 0.0155,
      "velocity": 100,
      "chip": "ym2612"
    },
    {
      "channel": 1,
      "note": 90,
      "start": 68.658,
      "duration": 0.0139,
      "velocity": 85,
      "chip": "ym2612"
    },
    {
      "channel": 0,
      "note": 65,
      "start": 68.6652,
      "duration": 0.0161,
      "velocity": 124,
      "chip": "ym2612"
    },
    {
      "channel": 5,
      "note": 78,
      "start": 68.6664,
      "duration": 0.0161,
      "velocity": 110,
      "chip": "ym2612"
    },
    {
      "channel": 4,
      "note": 75,
      "start": 68.6682,
      "duration": 0.0154,
      "velocity": 110,
      "chip": "ym2612"
    },
    {
      "channel": 3,
      "note": 71,
      "start": 68.6695,
      "duration": 0.016,
      "velocity": 94,
      "chip": "ym2612"
    },
    {
      "channel": 2,
      "note": 56,
      "start": 68.6707,
      "duration": 0.016,
      "velocity": 100,
      "chip": "ym2612"
    },
    {
      "channel": 1,
      "note": 90,
      "start": 68.6719,
      "duration": 0.016,
      "velocity": 85,
      "chip": "ym2612"
    },
    {
      "channel": 0,
      "note": 63,
      "start": 68.6813,
      "duration": 0.0153,
      "velocity": 1,
      "chip": "ym2612"
    },
    {
      "channel": 5,
      "note": 78,
      "start": 68.6825,
      "duration": 0.0153,
      "velocity": 110,
      "chip": "ym2612"
    },
    {
      "channel": 4,
      "note": 75,
      "start": 68.6836,
      "duration": 0.0153,
      "velocity": 110,
      "chip": "ym2612"
    },
    {
      "channel": 3,
      "note": 71,
      "start": 68.6854,
      "duration": 0.0147,
      "velocity": 94,
      "chip": "ym2612"
    },
    {
      "channel": 2,
      "note": 56,
      "start": 68.6867,
      "duration": 0.0151,
      "velocity": 100,
      "chip": "ym2612"
    },
    {
      "channel": 1,
      "note": 90,
      "start": 68.6878,
      "duration": 0.0152,
      "velocity": 85,
      "chip": "ym2612"
    },
    {
      "channel": 5,
      "note": 78,
      "start": 68.6978,
      "duration": 0.0152,
      "velocity": 110,
      "chip": "ym2612"
    },
    {
      "channel": 4,
      "note": 75,
      "start": 68.6989,
      "duration": 0.0153,
      "velocity": 110,
      "chip": "ym2612"
    },
    {
      "channel": 3,
      "note": 71,
      "start": 68.7001,
      "duration": 0.0153,
      "velocity": 94,
      "chip": "ym2612"
    },
    {
      "channel": 2,
      "note": 56,
      "start": 68.7018,
      "duration": 0.0147,
      "velocity": 100,
      "chip": "ym2612"
    },
    {
      "channel": 5,
      "note": 78,
      "start": 68.713,
      "duration": 0.0161,
      "velocity": 110,
      "chip": "ym2612"
    },
    {
      "channel": 4,
      "note": 75,
      "start": 68.7142,
      "duration": 0.0161,
      "velocity": 110,
      "chip": "ym2612"
    },
    {
      "channel": 3,
      "note": 71,
      "start": 68.7154,
      "duration": 0.0161,
      "velocity": 94,
      "chip": "ym2612"
    },
    {
      "channel": 2,
      "note": 56,
      "start": 68.7165,
      "duration": 0.0161,
      "velocity": 100,
      "chip": "ym2612"
    },
    {
      "channel": 5,
      "note": 78,
      "start": 68.729,
      "duration": 0.0162,
      "velocity": 110,
      "chip": "ym2612"
    },
    {
      "channel": 4,
      "note": 75,
      "start": 68.7303,
      "duration": 0.0161,
      "velocity": 110,
      "chip": "ym2612"
    },
    {
      "channel": 3,
      "note": 71,
      "start": 68.7315,
      "duration": 0.0161,
      "velocity": 94,
      "chip": "ym2612"
    },
    {
      "channel": 2,
      "note": 56,
      "start": 68.7326,
      "duration": 0.0161,
      "velocity": 100,
      "chip": "ym2612"
    },
    {
      "channel": 5,
      "note": 78,
      "start": 68.7452,
      "duration": 0.0161,
      "velocity": 110,
      "chip": "ym2612"
    },
    {
      "channel": 4,
      "note": 75,
      "start": 68.7463,
      "duration": 0.0162,
      "velocity": 110,
      "chip": "ym2612"
    },
    {
      "channel": 3,
      "note": 71,
      "start": 68.7476,
      "duration": 0.0161,
      "velocity": 94,
      "chip": "ym2612"
    },
    {
      "channel": 2,
      "note": 56,
      "start": 68.7487,
      "duration": 0.0162,
      "velocity": 100,
      "chip": "ym2612"
    },
    {
      "channel": 1,
      "note": 92,
      "start": 68.7502,
      "duration": 0.0159,
      "velocity": 85,
      "chip": "ym2612"
    },
    {
      "channel": 3,
      "note": 71,
      "start": 68.7637,
      "duration": 0.0161,
      "velocity": 94,
      "chip": "ym2612"
    },
    {
      "channel": 2,
      "note": 56,
      "start": 68.7649,
      "duration": 0.016,
      "velocity": 100,
      "chip": "ym2612"
    },
    {
      "channel": 1,
      "note": 92,
      "start": 68.7661,
      "duration": 0.016,
      "velocity": 85,
      "chip": "ym2612"
    },
    {
      "channel": 3,
      "note": 71,
      "start": 68.7798,
      "duration": 0.0161,
      "velocity": 94,
      "chip": "ym2612"
    },
    {
      "channel": 2,
      "note": 56,
      "start": 68.7809,
      "duration": 0.0161,
      "velocity": 100,
      "chip": "ym2612"
    },
    {
      "channel": 1,
      "note": 92,
      "start": 68.7821,
      "duration": 0.0161,
      "velocity": 85,
      "chip": "ym2612"
    },
    {
      "channel": 3,
      "note": 71,
      "start": 68.7959,
      "duration": 0.0162,
      "velocity": 94,
      "chip": "ym2612"
    },
    {
      "channel": 2,
      "note": 56,
      "start": 68.7971,
      "duration": 0.0162,
      "velocity": 100,
      "chip": "ym2612"
    },
    {
      "channel": 1,
      "note": 92,
      "start": 68.7982,
      "duration": 0.0161,
      "velocity": 85,
      "chip": "ym2612"
    },
    {
      "channel": 2,
      "note": 56,
      "start": 68.8132,
      "duration": 0.0161,
      "velocity": 100,
      "chip": "ym2612"
    },
    {
      "channel": 2,
      "note": 56,
      "start": 68.8293,
      "duration": 0.0161,
      "velocity": 100,
      "chip": "ym2612"
    },
    {
      "channel": 2,
      "note": 56,
      "start": 68.8454,
      "duration": 0.026,
      "velocity": 100,
      "chip": "ym2612"
    },
    {
      "channel": 0,
      "note": 36,
      "start": 68.8603,
      "duration": 0.0171,
      "velocity": 115,
      "chip": "ym2612"
    },
    {
      "channel": 5,
      "note": 82,
      "start": 68.8633,
      "duration": 0.0153,
      "velocity": 101,
      "chip": "ym2612"
    },
    {
      "channel": 4,
      "note": 88,
      "start": 68.8663,
      "duration": 0.0135,
      "velocity": 101,
      "chip": "ym2612"
    },
    {
      "channel": 3,
      "note": 90,
      "start": 68.87,
      "duration": 0.0111,
      "velocity": 85,
      "chip": "ym2612"
    },
    {
      "channel": 2,
      "note": 54,
      "start": 68.8714,
      "duration": 0.0108,
      "velocity": 100,
      "chip": "ym2612"
    },
    {
      "channel": 1,
      "note": 94,
      "start": 68.8729,
      "duration": 0.0106,
      "velocity": 85,
      "chip": "ym2612"
    },
    {
      "channel": 0,
      "note": 36,
      "start": 68.8773,
      "duration": 0.0132,
      "velocity": 115,
      "chip": "ym2612"
    },
    {
      "channel": 5,
      "note": 82,
      "start": 68.8786,
      "duration": 0.0132,
      "velocity": 101,
      "chip": "ym2612"
    },
    {
      "channel": 4,
      "note": 88,
      "start": 68.8798,
      "duration": 0.0132,
      "velocity": 101,
      "chip": "ym2612"
    },
    {
      "channel": 3,
      "note": 90,
      "start": 68.881,
      "duration": 0.0131,
      "velocity": 85,
      "chip": "ym2612"
    },
    {
      "channel": 2,
      "note": 54,
      "start": 68.8822,
      "duration": 0.013,
      "velocity": 100,
      "chip": "ym2612"
    },
    {
      "channel": 1,
      "note": 94,
      "start": 68.8835,
      "duration": 0.0129,
      "velocity": 85,
      "chip": "ym2612"
    },
    {
      "channel": 0,
      "note": 37,
      "start": 68.8906,
      "duration": 0.0162,
      "velocity": 115,
      "chip": "ym2612"
    },
    {
      "channel": 5,
      "note": 82,
      "start": 68.8918,
      "duration": 0.0161,
      "velocity": 101,
      "chip": "ym2612"
    },
    {
      "channel": 4,
      "note": 88,
      "start": 68.893,
      "duration": 0.0161,
      "velocity": 101,
      "chip": "ym2612"
    },
    {
      "channel": 3,
      "note": 90,
      "start": 68.8941,
      "duration": 0.0161,
      "velocity": 85,
      "chip": "ym2612"
    },
    {
      "channel": 2,
      "note": 54,
      "start": 68.8953,
      "duration": 0.0161,
      "velocity": 100,
      "chip": "ym2612"
    },
    {
      "channel": 1,
      "note": 94,
      "start": 68.8964,
      "duration": 0.0162,
      "velocity": 85,
      "chip": "ym2612"
    },
    {
      "channel": 0,
      "note": 37,
      "start": 68.9067,
      "duration": 0.0161,
      "velocity": 115,
      "chip": "ym2612"
    },
    {
      "channel": 5,
      "note": 82,
      "start": 68.9079,
      "duration": 0.0161,
      "velocity": 101,
      "chip": "ym2612"
    },
    {
      "channel": 4,
      "note": 88,
      "start": 68.9091,
      "duration": 0.0161,
      "velocity": 101,
      "chip": "ym2612"
    },
    {
      "channel": 2,
      "note": 54,
      "start": 68.9114,
      "duration": 0.016,
      "velocity": 100,
      "chip": "ym2612"
    },
    {
      "channel": 0,
      "note": 38,
      "start": 68.9228,
      "duration": 0.0161,
      "velocity": 115,
      "chip": "ym2612"
    },
    {
      "channel": 5,
      "note": 82,
      "start": 68.924,
      "duration": 0.0161,
      "velocity": 101,
      "chip": "ym2612"
    },
    {
      "channel": 4,
      "note": 88,
      "start": 68.9252,
      "duration": 0.0161,
      "velocity": 101,
      "chip": "ym2612"
    },
    {
      "channel": 2,
      "note": 54,
      "start": 68.9275,
      "duration": 0.0161,
      "velocity": 100,
      "chip": "ym2612"
    },
    {
      "channel": 0,
      "note": 38,
      "start": 68.9389,
      "duration": 0.0161,
      "velocity": 115,
      "chip": "ym2612"
    },
    {
      "channel": 5,
      "note": 82,
      "start": 68.9401,
      "duration": 0.0161,
      "velocity": 101,
      "chip": "ym2612"
    },
    {
      "channel": 4,
      "note": 88,
      "start": 68.9413,
      "duration": 0.0161,
      "velocity": 101,
      "chip": "ym2612"
    },
    {
      "channel": 2,
      "note": 54,
      "start": 68.9436,
      "duration": 0.0164,
      "velocity": 100,
      "chip": "ym2612"
    },
    {
      "channel": 0,
      "note": 39,
      "start": 68.955,
      "duration": 0.0161,
      "velocity": 115,
      "chip": "ym2612"
    },
    {
      "channel": 5,
      "note": 82,
      "start": 68.9562,
      "duration": 0.0162,
      "velocity": 101,
      "chip": "ym2612"
    },
    {
      "channel": 4,
      "note": 88,
      "start": 68.9574,
      "duration": 0.0163,
      "velocity": 101,
      "chip": "ym2612"
    },
    {
      "channel": 3,
      "note": 92,
      "start": 68.9588,
      "duration": 0.016,
      "velocity": 85,
      "chip": "ym2612"
    },
    {
      "channel": 2,
      "note": 54,
      "start": 68.96,
      "duration": 0.016,
      "velocity": 100,
      "chip": "ym2612"
    },
    {
      "channel": 1,
      "note": 95,
      "start": 68.9614,
      "duration": 0.0159,
      "velocity": 85,
      "chip": "ym2612"
    },
    {
      "channel": 0,
      "note": 39,
      "start": 68.9711,
      "duration": 0.0161,
      "velocity": 115,
      "chip": "ym2612"
    },
    {
      "channel": 5,
      "note": 82,
      "start": 68.9724,
      "duration": 0.0161,
      "velocity": 101,
      "chip": "ym2612"
    },
    {
      "channel": 4,
      "note": 88,
      "start": 68.9737,
      "duration": 0.0161,
      "velocity": 101,
      "chip": "ym2612"
    },
    {
      "channel": 3,
      "note": 92,
      "start": 68.9749,
      "duration": 0.016,
      "velocity": 85,
      "chip": "ym2612"
    },
    {
      "channel": 2,
      "note": 54,
      "start": 68.976,
      "duration": 0.016,
      "velocity": 100,
      "chip": "ym2612"
    },
    {
      "channel": 1,
      "note": 95,
      "start": 68.9773,
      "duration": 0.016,
      "velocity": 85,
      "chip": "ym2612"
    },
    {
      "channel": 0,
      "note": 40,
      "start": 68.9873,
      "duration": 0.0162,
      "velocity": 115,
      "chip": "ym2612"
    },
    {
      "channel": 5,
      "note": 82,
      "start": 68.9885,
      "duration": 0.0161,
      "velocity": 101,
      "chip": "ym2612"
    },
    {
      "channel": 4,
      "note": 88,
      "start": 68.9898,
      "duration": 0.0161,
      "velocity": 101,
      "chip": "ym2612"
    },
    {
      "channel": 3,
      "note": 92,
      "start": 68.9909,
      "duration": 0.0162,
      "velocity": 85,
      "chip": "ym2612"
    },
    {
      "channel": 2,
      "note": 54,
      "start": 68.992,
      "duration": 0.0161,
      "velocity": 100,
      "chip": "ym2612"
    },
    {
      "channel": 1,
      "note": 95,
      "start": 68.9932,
      "duration": 0.0161,
      "velocity": 85,
      "chip": "ym2612"
    },
    {
      "channel": 0,
      "note": 40,
      "start": 69.0034,
      "duration": 0.0163,
      "velocity": 115,
      "chip": "ym2612"
    },
    {
      "channel": 3,
      "note": 92,
      "start": 69.0071,
      "duration": 0.0163,
      "velocity": 85,
      "chip": "ym2612"
    },
    {
      "channel": 2,
      "note": 54,
      "start": 69.0082,
      "duration": 0.0164,
      "velocity": 100,
      "chip": "ym2612"
    },
    {
      "channel": 1,
      "note": 95,
      "start": 69.0093,
      "duration": 0.0164,
      "velocity": 85,
      "chip": "ym2612"
    },
    {
      "channel": 0,
      "note": 40,
      "start": 69.0198,
      "duration": 0.0163,
      "velocity": 115,
      "chip": "ym2612"
    },
    {
      "channel": 2,
      "note": 54,
      "start": 69.0246,
      "duration": 0.0163,
      "velocity": 100,
      "chip": "ym2612"
    },
    {
      "channel": 0,
      "note": 41,
      "start": 69.0361,
      "duration": 0.0161,
      "velocity": 115,
      "chip": "ym2612"
    },
    {
      "channel": 2,
      "note": 54,
      "start": 69.0409,
      "duration": 0.016,
      "velocity": 100,
      "chip": "ym2612"
    },
    {
      "channel": 0,
      "note": 41,
      "start": 69.0522,
      "duration": 0.0179,
      "velocity": 124,
      "chip": "ym2612"
    },
    {
      "channel": 2,
      "note": 54,
      "start": 69.0568,
      "duration": 0.0192,
      "velocity": 100,
      "chip": "ym2612"
    },
    {
      "channel": 0,
      "note": 84,
      "start": 69.0702,
      "duration": 0.0139,
      "velocity": 124,
      "chip": "ym2612"
    },
    {
      "channel": 5,
      "note": 82,
      "start": 69.0717,
      "duration": 0.0141,
      "velocity": 101,
      "chip": "ym2612"
    },
    {
      "channel": 4,
      "note": 88,
      "start": 69.0732,
      "duration": 0.0137,
      "velocity": 101,
      "chip": "ym2612"
    },
    {
      "channel": 3,
      "note": 94,
      "start": 69.0747,
      "duration": 0.0135,
      "velocity": 85,
      "chip": "ym2612"
    },
    {
      "channel": 2,
      "note": 54,
      "start": 69.0761,
      "duration": 0.0132,
      "velocity": 100,
      "chip": "ym2612"
    },
    {
      "channel": 1,
      "note": 92,
      "start": 69.0776,
      "duration": 0.013,
      "velocity": 85,
      "chip": "ym2612"
    },
    {
      "channel": 0,
      "note": 82,
      "start": 69.0841,
      "duration": 0.0159,
      "velocity": 124,
      "chip": "ym2612"
    },
    {
      "channel": 5,
      "note": 82,
      "start": 69.0857,
      "duration": 0.0159,
      "velocity": 101,
      "chip": "ym2612"
    },
    {
      "channel": 4,
      "note": 88,
      "start": 69.0869,
      "duration": 0.0159,
      "velocity": 101,
      "chip": "ym2612"
    },
    {
      "channel": 3,
      "note": 94,
      "start": 69.0882,
      "duration": 0.0158,
      "velocity": 85,
      "chip": "ym2612"
    },
    {
      "channel": 2,
      "note": 54,
      "start": 69.0894,
      "duration": 0.0158,
      "velocity": 100,
      "chip": "ym2612"
    },
    {
      "channel": 1,
      "note": 92,
      "start": 69.0906,
      "duration": 0.0157,
      "velocity": 85,
      "chip": "ym2612"
    },
    {
      "channel": 0,
      "note": 80,
      "start": 69.0999,
      "duration": 0.0161,
      "velocity": 124,
      "chip": "ym2612"
    },
    {
      "channel": 5,
      "note": 82,
      "start": 69.1016,
      "duration": 0.0158,
      "velocity": 101,
      "chip": "ym2612"
    },
    {
      "channel": 4,
      "note": 88,
      "start": 69.1029,
      "duration": 0.0161,
      "velocity": 101,
      "chip": "ym2612"
    },
    {
      "channel": 3,
      "note": 94,
      "start": 69.104,
      "duration": 0.0162,
      "velocity": 85,
      "chip": "ym2612"
    },
    {
      "channel": 2,
      "note": 54,
      "start": 69.1051,
      "duration": 0.0161,
      "velocity": 100,
      "chip": "ym2612"
    },
    {
      "channel": 1,
      "note": 92,
      "start": 69.1063,
      "duration": 0.0161,
      "velocity": 85,
      "chip": "ym2612"
    },
    {
      "channel": 0,
      "note": 77,
      "start": 69.116,
      "duration": 0.0161,
      "velocity": 124,
      "chip": "ym2612"
    },
    {
      "channel": 5,
      "note": 82,
      "start": 69.1174,
      "duration": 0.0159,
      "velocity": 101,
      "chip": "ym2612"
    },
    {
      "channel": 4,
      "note": 88,
      "start": 69.119,
      "duration": 0.016,
      "velocity": 101,
      "chip": "ym2612"
    },
    {
      "channel": 2,
      "note": 54,
      "start": 69.1213,
      "duration": 0.0161,
      "velocity": 100,
      "chip": "ym2612"
    },
    {
      "channel": 0,
      "note": 75,
      "start": 69.1321,
      "duration": 0.0161,
      "velocity": 124,
      "chip": "ym2612"
    },
    {
      "channel": 5,
      "note": 82,
      "start": 69.1333,
      "duration": 0.0161,
      "velocity": 101,
      "chip": "ym2612"
    },
    {
      "channel": 4,
      "note": 88,
      "start": 69.135,
      "duration": 0.0158,
      "velocity": 101,
      "chip": "ym2612"
    },
    {
      "channel": 2,
      "note": 54,
      "start": 69.1374,
      "duration": 0.0161,
      "velocity": 100,
      "chip": "ym2612"
    },
    {
      "channel": 0,
      "note": 72,
      "start": 69.1482,
      "duration": 0.0179,
      "velocity": 124,
      "chip": "ym2612"
    },
    {
      "channel": 5,
      "note": 82,
      "start": 69.1494,
      "duration": 0.0182,
      "velocity": 101,
      "chip": "ym2612"
    },
    {
      "channel": 4,
      "note": 88,
      "start": 69.1508,
      "duration": 0.0183,
      "velocity": 101,
      "chip": "ym2612"
    },
    {
      "channel": 2,
      "note": 54,
      "start": 69.1535,
      "duration": 0.0183,
      "velocity": 100,
      "chip": "ym2612"
    },
    {
      "channel": 0,
      "note": 84,
      "start": 69.1662,
      "duration": 0.0142,
      "velocity": 124,
      "chip": "ym2612"
    },
    {
      "channel": 5,
      "note": 82,
      "start": 69.1676,
      "duration": 0.0141,
      "velocity": 101,
      "chip": "ym2612"
    },
    {
      "channel": 4,
      "note": 88,
      "start": 69.1691,
      "duration": 0.0139,
      "velocity": 101,
      "chip": "ym2612"
    },
    {
      "channel": 3,
      "note": 95,
      "start": 69.1706,
      "duration": 0.0142,
      "velocity": 85,
      "chip": "ym2612"
    },
    {
      "channel": 2,
      "note": 54,
      "start": 69.1717,
      "duration": 0.0142,
      "velocity": 100,
      "chip": "ym2612"
    },
    {
      "channel": 1,
      "note": 94,
      "start": 69.1732,
      "duration": 0.014,
      "velocity": 85,
      "chip": "ym2612"
    },
    {
      "channel": 0,
      "note": 82,
      "start": 69.1805,
      "duration": 0.0161,
      "velocity": 124,
      "chip": "ym2612"
    },
    {
      "channel": 5,
      "note": 82,
      "start": 69.1817,
      "duration": 0.016,
      "velocity": 101,
      "chip": "ym2612"
    },
    {
      "channel": 4,
      "note": 88,
      "start": 69.183,
      "duration": 0.016,
      "velocity": 101,
      "chip": "ym2612"
    },
    {
      "channel": 3,
      "note": 95,
      "start": 69.1848,
      "duration": 0.0154,
      "velocity": 85,
      "chip": "ym2612"
    },
    {
      "channel": 2,
      "note": 54,
      "start": 69.186,
      "duration": 0.0159,
      "velocity": 100,
      "chip": "ym2612"
    },
    {
      "channel": 1,
      "note": 94,
      "start": 69.1872,
      "duration": 0.0159,
      "velocity": 85,
      "chip": "ym2612"
    },
    {
      "channel": 0,
      "note": 80,
      "start": 69.1966,
      "duration": 0.0161,
      "velocity": 124,
      "chip": "ym2612"
    },
    {
      "channel": 5,
      "note": 82,
      "start": 69.1978,
      "duration": 0.0161,
      "velocity": 101,
      "chip": "ym2612"
    },
    {
      "channel": 4,
      "note": 88,
      "start": 69.199,
      "duration": 0.0162,
      "velocity": 101,
      "chip": "ym2612"
    },
    {
      "channel": 3,
      "note": 95,
      "start": 69.2002,
      "duration": 0.0161,
      "velocity": 85,
      "chip": "ym2612"
    },
    {
      "channel": 2,
      "note": 54,
      "start": 69.2018,
      "duration": 0.0158,
      "velocity": 100,
      "chip": "ym2612"
    },
    {
      "channel": 1,
      "note": 94,
      "start": 69.2031,
      "duration": 0.0161,
      "velocity": 85,
      "chip": "ym2612"
    },
    {
      "channel": 0,
      "note": 77,
      "start": 69.2127,
      "duration": 0.0161,
      "velocity": 124,
      "chip": "ym2612"
    },
    {
      "channel": 3,
      "note": 95,
      "start": 69.2163,
      "duration": 0.0161,
      "velocity": 85,
      "chip": "ym2612"
    },
    {
      "channel": 2,
      "note": 54,
      "start": 69.2177,
      "duration": 0.0159,
      "velocity": 100,
      "chip": "ym2612"
    },
    {
      "channel": 1,
      "note": 94,
      "start": 69.2192,
      "duration": 0.016,
      "velocity": 85,
      "chip": "ym2612"
    },
    {
      "channel": 0,
      "note": 75,
      "start": 69.2287,
      "duration": 0.0161,
      "velocity": 124,
      "chip": "ym2612"
    },
    {
      "channel": 2,
      "note": 54,
      "start": 69.2335,
      "duration": 0.0161,
      "velocity": 100,
      "chip": "ym2612"
    },
    {
      "channel": 0,
      "note": 72,
      "start": 69.2448,
      "duration": 0.0161,
      "velocity": 124,
      "chip": "ym2612"
    },
    {
      "channel": 2,
      "note": 54,
      "start": 69.2496,
      "duration": 0.016,
      "velocity": 100,
      "chip": "ym2612"
    },
    {
      "channel": 0,
      "note": 70,
      "start": 69.2609,
      "duration": 0.0161,
      "velocity": 124,
      "chip": "ym2612"
    },
    {
      "channel": 2,
      "note": 54,
      "start": 69.2656,
      "duration": 0.0174,
      "velocity": 100,
      "chip": "ym2612"
    },
    {
      "channel": 0,
      "note": 68,
      "start": 69.277,
      "duration": 0.0161,
      "velocity": 124,
      "chip": "ym2612"
    },
    {
      "channel": 5,
      "note": 82,
      "start": 69.2785,
      "duration": 0.0158,
      "velocity": 101,
      "chip": "ym2612"
    },
    {
      "channel": 4,
      "note": 88,
      "start": 69.2801,
      "duration": 0.0155,
      "velocity": 101,
      "chip": "ym2612"
    },
    {
      "channel": 3,
      "note": 92,
      "start": 69.2816,
      "duration": 0.0153,
      "velocity": 85,
      "chip": "ym2612"
    },
    {
      "channel": 2,
      "note": 54,
      "start": 69.283,
      "duration": 0.0151,
      "velocity": 100,
      "chip": "ym2612"
    },
    {
      "channel": 1,
      "note": 95,
      "start": 69.285,
      "duration": 0.0142,
      "velocity": 85,
      "chip": "ym2612"
    },
    {
      "channel": 0,
      "note": 65,
      "start": 69.2931,
      "duration": 0.0161,
      "velocity": 124,
      "chip": "ym2612"
    },
    {
      "channel": 5,
      "note": 82,
      "start": 69.2944,
      "duration": 0.016,
      "velocity": 101,
      "chip": "ym2612"
    },
    {
      "channel": 4,
      "note": 88,
      "start": 69.2957,
      "duration": 0.016,
      "velocity": 101,
      "chip": "ym2612"
    },
    {
      "channel": 3,
      "note": 92,
      "start": 69.2969,
      "duration": 0.0159,
      "velocity": 85,
      "chip": "ym2612"
    },
    {
      "channel": 2,
      "note": 54,
      "start": 69.2981,
      "duration": 0.0159,
      "velocity": 100,
      "chip": "ym2612"
    },
    {
      "channel": 1,
      "note": 95,
      "start": 69.2993,
      "duration": 0.0158,
      "velocity": 85,
      "chip": "ym2612"
    },
    {
      "channel": 0,
      "note": 63,
      "start": 69.3092,
      "duration": 0.0153,
      "velocity": 1,
      "chip": "ym2612"
    },
    {
      "channel": 5,
      "note": 82,
      "start": 69.3104,
      "duration": 0.0153,
      "velocity": 101,
      "chip": "ym2612"
    },
    {
      "channel": 4,
      "note": 88,
      "start": 69.3116,
      "duration": 0.0153,
      "velocity": 101,
      "chip": "ym2612"
    },
    {
      "channel": 3,
      "note": 92,
      "start": 69.3128,
      "duration": 0.0153,
      "velocity": 85,
      "chip": "ym2612"
    },
    {
      "channel": 2,
      "note": 54,
      "start": 69.3139,
      "duration": 0.0153,
      "velocity": 100,
      "chip": "ym2612"
    },
    {
      "channel": 1,
      "note": 95,
      "start": 69.3151,
      "duration": 0.0153,
      "velocity": 85,
      "chip": "ym2612"
    },
    {
      "channel": 5,
      "note": 82,
      "start": 69.3257,
      "duration": 0.0153,
      "velocity": 101,
      "chip": "ym2612"
    },
    {
      "channel": 4,
      "note": 88,
      "start": 69.3269,
      "duration": 0.0152,
      "velocity": 101,
      "chip": "ym2612"
    },
    {
      "channel": 2,
      "note": 54,
      "start": 69.3293,
      "duration": 0.0152,
      "velocity": 100,
      "chip": "ym2612"
    },
    {
      "channel": 5,
      "note": 82,
      "start": 69.341,
      "duration": 0.0161,
      "velocity": 101,
      "chip": "ym2612"
    },
    {
      "channel": 4,
      "note": 88,
      "start": 69.3421,
      "duration": 0.0162,
      "velocity": 101,
      "chip": "ym2612"
    },
    {
      "channel": 2,
      "note": 54,
      "start": 69.3444,
      "duration": 0.0161,
      "velocity": 100,
      "chip": "ym2612"
    },
    {
      "channel": 5,
      "note": 82,
      "start": 69.3571,
      "duration": 0.0196,
      "velocity": 101,
      "chip": "ym2612"
    },
    {
      "channel": 4,
      "note": 88,
      "start": 69.3583,
      "duration": 0.0196,
      "velocity": 101,
      "chip": "ym2612"
    },
    {
      "channel": 2,
      "note": 54,
      "start": 69.3605,
      "duration": 0.0199,
      "velocity": 100,
      "chip": "ym2612"
    },
    {
      "channel": 0,
      "note": 36,
      "start": 69.3755,
      "duration": 0.0143,
      "velocity": 115,
      "chip": "ym2612"
    },
    {
      "channel": 5,
      "note": 82,
      "start": 69.3766,
      "duration": 0.0144,
      "velocity": 101,
      "chip": "ym2612"
    },
    {
      "channel": 4,
      "note": 88,
      "start": 69.3778,
      "duration": 0.0145,
      "velocity": 101,
      "chip": "ym2612"
    },
    {
      "channel": 3,
      "note": 94,
      "start": 69.3793,
      "duration": 0.0142,
      "velocity": 85,
      "chip": "ym2612"
    },
    {
      "channel": 2,
      "note": 54,
      "start": 69.3805,
      "duration": 0.0142,
      "velocity": 100,
      "chip": "ym2612"
    },
    {
      "channel": 1,
      "note": 97,
      "start": 69.3819,
      "duration": 0.014,
      "velocity": 85,
      "chip": "ym2612"
    },
    {
      "channel": 0,
      "note": 36,
      "start": 69.3898,
      "duration": 0.016,
      "velocity": 115,
      "chip": "ym2612"
    },
    {
      "channel": 5,
      "note": 82,
      "start": 69.3911,
      "duration": 0.016,
      "velocity": 101,
      "chip": "ym2612"
    },
    {
      "channel": 4,
      "note": 88,
      "start": 69.3924,
      "duration": 0.016,
      "velocity": 101,
      "chip": "ym2612"
    },
    {
      "channel": 3,
      "note": 94,
      "start": 69.3936,
      "duration": 0.0159,
      "velocity": 85,
      "chip": "ym2612"
    },
    {
      "channel": 2,
      "note": 54,
      "start": 69.3947,
      "duration": 0.0159,
      "velocity": 100,
      "chip": "ym2612"
    },
    {
      "channel": 1,
      "note": 97,
      "start": 69.3959,
      "duration": 0.0159,
      "velocity": 85,
      "chip": "ym2612"
    },
    {
      "channel": 0,
      "note": 37,
      "start": 69.4058,
      "duration": 0.0161,
      "velocity": 115,
      "chip": "ym2612"
    },
    {
      "channel": 5,
      "note": 82,
      "start": 69.4071,
      "duration": 0.0161,
      "velocity": 101,
      "chip": "ym2612"
    },
    {
      "channel": 4,
      "note": 88,
      "start": 69.4083,
      "duration": 0.0161,
      "velocity": 101,
      "chip": "ym2612"
    },
    {
      "channel": 3,
      "note": 94,
      "start": 69.4095,
      "duration": 0.0162,
      "velocity": 85,
      "chip": "ym2612"
    },
    {
      "channel": 2,
      "note": 54,
      "start": 69.4106,
      "duration": 0.0161,
      "velocity": 100,
      "chip": "ym2612"
    },
    {
      "channel": 1,
      "note": 97,
      "start": 69.4118,
      "duration": 0.0161,
      "velocity": 85,
      "chip": "ym2612"
    },
    {
      "channel": 0,
      "note": 37,
      "start": 69.4219,
      "duration": 0.0161,
      "velocity": 115,
      "chip": "ym2612"
    },
    {
      "channel": 3,
      "note": 94,
      "start": 69.4256,
      "duration": 0.016,
      "velocity": 85,
      "chip": "ym2612"
    },
    {
      "channel": 2,
      "note": 54,
      "start": 69.4268,
      "duration": 0.016,
      "velocity": 100,
      "chip": "ym2612"
    },
    {
      "channel": 1,
      "note": 97,
      "start": 69.4279,
      "duration": 0.0161,
      "velocity": 85,
      "chip": "ym2612"
    },
    {
      "channel": 0,
      "note": 38,
      "start": 69.438,
      "duration": 0.0161,
      "velocity": 115,
      "chip": "ym2612"
    },
    {
      "channel": 2,
      "note": 54,
      "start": 69.4428,
      "duration": 0.0161,
      "velocity": 100,
      "chip": "ym2612"
    },
    {
      "channel": 0,
      "note": 38,
      "start": 69.4541,
      "duration": 0.0161,
      "velocity": 115,
      "chip": "ym2612"
    },
    {
      "channel": 2,
      "note": 54,
      "start": 69.4589,
      "duration": 0.0161,
      "velocity": 100,
      "chip": "ym2612"
    },
    {
      "channel": 0,
      "note": 39,
      "start": 69.4703,
      "duration": 0.0183,
      "velocity": 115,
      "chip": "ym2612"
    },
    {
      "channel": 2,
      "note": 54,
      "start": 69.475,
      "duration": 0.0195,
      "velocity": 100,
      "chip": "ym2612"
    },
    {
      "channel": 0,
      "note": 36,
      "start": 69.4886,
      "duration": 0.0145,
      "velocity": 115,
      "chip": "ym2612"
    },
    {
      "channel": 5,
      "note": 82,
      "start": 69.4901,
      "duration": 0.0142,
      "velocity": 101,
      "chip": "ym2612"
    },
    {
      "channel": 4,
      "note": 88,
      "start": 69.4917,
      "duration": 0.0139,
      "velocity": 101,
      "chip": "ym2612"
    },
    {
      "channel": 3,
      "note": 95,
      "start": 69.4931,
      "duration": 0.0137,
      "velocity": 85,
      "chip": "ym2612"
    },
    {
      "channel": 2,
      "note": 54,
      "start": 69.4945,
      "duration": 0.0135,
      "velocity": 100,
      "chip": "ym2612"
    },
    {
      "channel": 1,
      "note": 94,
      "start": 69.496,
      "duration": 0.0133,
      "velocity": 85,
      "chip": "ym2612"
    },
    {
      "channel": 0,
      "note": 36,
      "start": 69.5031,
      "duration": 0.016,
      "velocity": 115,
      "chip": "ym2612"
    },
    {
      "channel": 5,
      "note": 82,
      "start": 69.5044,
      "duration": 0.016,
      "velocity": 101,
      "chip": "ym2612"
    },
    {
      "channel": 4,
      "note": 88,
      "start": 69.5056,
      "duration": 0.0159,
      "velocity": 101,
      "chip": "ym2612"
    },
    {
      "channel": 3,
      "note": 95,
      "start": 69.5068,
      "duration": 0.0159,
      "velocity": 85,
      "chip": "ym2612"
    },
    {
      "channel": 2,
      "note": 54,
      "start": 69.508,
      "duration": 0.0158,
      "velocity": 100,
      "chip": "ym2612"
    },
    {
      "channel": 1,
      "note": 94,
      "start": 69.5093,
      "duration": 0.0157,
      "velocity": 85,
      "chip": "ym2612"
    },
    {
      "channel": 0,
      "note": 37,
      "start": 69.5191,
      "duration": 0.016,
      "velocity": 115,
      "chip": "ym2612"
    },
    {
      "channel": 5,
      "note": 82,
      "start": 69.5203,
      "duration": 0.0161,
      "velocity": 101,
      "chip": "ym2612"
    },
    {
      "channel": 4,
      "note": 88,
      "start": 69.5215,
      "duration": 0.0161,
      "velocity": 101,
      "chip": "ym2612"
    },
    {
      "channel": 3,
      "note": 95,
      "start": 69.5227,
      "duration": 0.0161,
      "velocity": 85,
      "chip": "ym2612"
    },
    {
      "channel": 2,
      "note": 54,
      "start": 69.5238,
      "duration": 0.0161,
      "velocity": 100,
      "chip": "ym2612"
    },
    {
      "channel": 1,
      "note": 94,
      "start": 69.525,
      "duration": 0.0161,
      "velocity": 85,
      "chip": "ym2612"
    },
    {
      "channel": 0,
      "note": 37,
      "start": 69.5352,
      "duration": 0.0158,
      "velocity": 115,
      "chip": "ym2612"
    },
    {
      "channel": 5,
      "note": 82,
      "start": 69.5364,
      "duration": 0.0161,
      "velocity": 101,
      "chip": "ym2612"
    },
    {
      "channel": 4,
      "note": 88,
      "start": 69.5376,
      "duration": 0.0161,
      "velocity": 101,
      "chip": "ym2612"
    },
    {
      "channel": 2,
      "note": 54,
      "start": 69.5399,
      "duration": 0.0161,
      "velocity": 100,
      "chip": "ym2612"
    },
    {
      "channel": 0,
      "note": 38,
      "start": 69.5509,
      "duration": 0.0159,
      "velocity": 115,
      "chip": "ym2612"
    },
    {
      "channel": 5,
      "note": 82,
      "start": 69.5525,
      "duration": 0.016,
      "velocity": 101,
      "chip": "ym2612"
    },
    {
      "channel": 4,
      "note": 88,
      "start": 69.5537,
      "duration": 0.0161,
      "velocity": 101,
      "chip": "ym2612"
    },
    {
      "channel": 2,
      "note": 54,
      "start": 69.556,
      "duration": 0.0161,
      "velocity": 100,
      "chip": "ym2612"
    },
    {
      "channel": 0,
      "note": 38,
      "start": 69.5668,
      "duration": 0.0185,
      "velocity": 124,
      "chip": "ym2612"
    },
    {
      "channel": 5,
      "note": 82,
      "start": 69.5685,
      "duration": 0.0181,
      "velocity": 101,
      "chip": "ym2612"
    },
    {
      "channel": 4,
      "note": 88,
      "start": 69.5698,
      "duration": 0.0179,
      "velocity": 101,
      "chip": "ym2612"
    },
    {
      "channel": 2,
      "note": 54,
      "start": 69.5721,
      "duration": 0.0185,
      "velocity": 100,
      "chip": "ym2612"
    },
    {
      "channel": 0,
      "note": 84,
      "start": 69.5854,
      "duration": 0.0137,
      "velocity": 124,
      "chip": "ym2612"
    },
    {
      "channel": 5,
      "note": 82,
      "start": 69.5866,
      "duration": 0.0137,
      "velocity": 101,
      "chip": "ym2612"
    },
    {
      "channel": 4,
      "note": 88,
      "start": 69.5878,
      "duration": 0.0144,
      "velocity": 101,
      "chip": "ym2612"
    },
    {
      "channel": 3,
      "note": 97,
      "start": 69.5892,
      "duration": 0.0143,
      "velocity": 85,
      "chip": "ym2612"
    },
    {
      "channel": 2,
      "note": 66,
      "start": 69.5907,
      "duration": 0.014,
      "velocity": 100,
      "chip": "ym2612"
    },
    {
      "channel": 1,
      "note": 95,
      "start": 69.5922,
      "duration": 0.0137,
      "velocity": 85,
      "chip": "ym2612"
    },
    {
      "channel": 0,
      "note": 82,
      "start": 69.5991,
      "duration": 0.0161,
      "velocity": 124,
      "chip": "ym2612"
    },
    {
      "channel": 5,
      "note": 82,
      "start": 69.6004,
      "duration": 0.016,
      "velocity": 101,
      "chip": "ym2612"
    },
    {
      "channel": 4,
      "note": 88,
      "start": 69.6022,
      "duration": 0.016,
      "velocity": 101,
      "chip": "ym2612"
    },
    {
      "channel": 3,
      "note": 97,
      "start": 69.6035,
      "duration": 0.0159,
      "velocity": 85,
      "chip": "ym2612"
    },
    {
      "channel": 2,
      "note": 66,
      "start": 69.6047,
      "duration": 0.0158,
      "velocity": 100,
      "chip": "ym2612"
    },
    {
      "channel": 1,
      "note": 95,
      "start": 69.6059,
      "duration": 0.0158,
      "velocity": 85,
      "chip": "ym2612"
    },
    {
      "channel": 0,
      "note": 80,
      "start": 69.6152,
      "duration": 0.0161,
      "velocity": 124,
      "chip": "ym2612"
    },
    {
      "channel": 5,
      "note": 82,
      "start": 69.6164,
      "duration": 0.0161,
      "velocity": 101,
      "chip": "ym2612"
    },
    {
      "channel": 4,
      "note": 88,
      "start": 69.6182,
      "duration": 0.0156,
      "velocity": 101,
      "chip": "ym2612"
    },
    {
      "channel": 3,
      "note": 97,
      "start": 69.6194,
      "duration": 0.0161,
      "velocity": 85,
      "chip": "ym2612"
    },
    {
      "channel": 2,
      "note": 66,
      "start": 69.6205,
      "duration": 0.0161,
      "velocity": 100,
      "chip": "ym2612"
    },
    {
      "channel": 1,
      "note": 95,
      "start": 69.6217,
      "duration": 0.0162,
      "velocity": 85,
      "chip": "ym2612"
    },
    {
      "channel": 0,
      "note": 77,
      "start": 69.6313,
      "duration": 0.0161,
      "velocity": 124,
      "chip": "ym2612"
    },
    {
      "channel": 3,
      "note": 97,
      "start": 69.6355,
      "duration": 0.016,
      "velocity": 85,
      "chip": "ym2612"
    },
    {
      "channel": 2,
      "note": 66,
      "start": 69.6366,
      "duration": 0.0161,
      "velocity": 100,
      "chip": "ym2612"
    },
    {
      "channel": 1,
      "note": 95,
      "start": 69.6378,
      "duration": 0.0161,
      "velocity": 85,
      "chip": "ym2612"
    },
    {
      "channel": 0,
      "note": 75,
      "start": 69.6474,
      "duration": 0.0161,
      "velocity": 124,
      "chip": "ym2612"
    },
    {
      "channel": 2,
      "note": 66,
      "start": 69.6527,
      "duration": 0.0161,
      "velocity": 100,
      "chip": "ym2612"
    },
    {
      "channel": 0,
      "note": 72,
      "start": 69.6635,
      "duration": 0.0161,
      "velocity": 124,
      "chip": "ym2612"
    },
    {
      "channel": 2,
      "note": 66,
      "start": 69.6688,
      "duration": 0.016,
      "velocity": 100,
      "chip": "ym2612"
    },
    {
      "channel": 0,
      "note": 70,
      "start": 69.6796,
      "duration": 0.0179,
      "velocity": 115,
      "chip": "ym2612"
    },
    {
      "channel": 2,
      "note": 66,
      "start": 69.6848,
      "duration": 0.0193,
      "velocity": 100,
      "chip": "ym2612"
    },
    {
      "channel": 0,
      "note": 36,
      "start": 69.6975,
      "duration": 0.0143,
      "velocity": 115,
      "chip": "ym2612"
    },
    {
      "channel": 5,
      "note": 82,
      "start": 69.699,
      "duration": 0.0141,
      "velocity": 101,
      "chip": "ym2612"
    },
    {
      "channel": 4,
      "note": 88,
      "start": 69.7008,
      "duration": 0.0135,
      "velocity": 101,
      "chip": "ym2612"
    },
    {
      "channel": 3,
      "note": 94,
      "start": 69.7027,
      "duration": 0.0129,
      "velocity": 85,
      "chip": "ym2612"
    },
    {
      "channel": 2,
      "note": 54,
      "start": 69.7041,
      "duration": 0.0127,
      "velocity": 100,
      "chip": "ym2612"
    },
    {
      "channel": 1,
      "note": 97,
      "start": 69.7055,
      "duration": 0.013,
      "velocity": 85,
      "chip": "ym2612"
    },
    {
      "channel": 0,
      "note": 36,
      "start": 69.7118,
      "duration": 0.016,
      "velocity": 115,
      "chip": "ym2612"
    },
    {
      "channel": 5,
      "note": 82,
      "start": 69.7131,
      "duration": 0.016,
      "velocity": 101,
      "chip": "ym2612"
    },
    {
      "channel": 4,
      "note": 88,
      "start": 69.7144,
      "duration": 0.0159,
      "velocity": 101,
      "chip": "ym2612"
    },
    {
      "channel": 3,
      "note": 94,
      "start": 69.7156,
      "duration": 0.0158,
      "velocity": 85,
      "chip": "ym2612"
    },
    {
      "channel": 2,
      "note": 54,
      "start": 69.7168,
      "duration": 0.0158,
      "velocity": 100,
      "chip": "ym2612"
    },
    {
      "channel": 1,
      "note": 97,
      "start": 69.7185,
      "duration": 0.0152,
      "velocity": 85,
      "chip": "ym2612"
    },
    {
      "channel": 0,
      "note": 37,
      "start": 69.7278,
      "duration": 0.0161,
      "velocity": 115,
      "chip": "ym2612"
    },
    {
      "channel": 5,
      "note": 82,
      "start": 69.729,
      "duration": 0.0161,
      "velocity": 101,
      "chip": "ym2612"
    },
    {
      "channel": 4,
      "note": 88,
      "start": 69.7303,
      "duration": 0.0161,
      "velocity": 101,
      "chip": "ym2612"
    },
    {
      "channel": 3,
      "note": 94,
      "start": 69.7314,
      "duration": 0.0161,
      "velocity": 85,
      "chip": "ym2612"
    },
    {
      "channel": 2,
      "note": 54,
      "start": 69.7326,
      "duration": 0.0161,
      "velocity": 100,
      "chip": "ym2612"
    },
    {
      "channel": 1,
      "note": 97,
      "start": 69.7337,
      "duration": 0.0161,
      "velocity": 85,
      "chip": "ym2612"
    },
    {
      "channel": 0,
      "note": 37,
      "start": 69.7439,
      "duration": 0.0161,
      "velocity": 115,
      "chip": "ym2612"
    },
    {
      "channel": 5,
      "note": 82,
      "start": 69.7451,
      "duration": 0.0161,
      "velocity": 101,
      "chip": "ym2612"
    },
    {
      "channel": 4,
      "note": 88,
      "start": 69.7463,
      "duration": 0.0161,
      "velocity": 101,
      "chip": "ym2612"
    },
    {
      "channel": 2,
      "note": 54,
      "start": 69.7486,
      "duration": 0.0161,
      "velocity": 100,
      "chip": "ym2612"
    },
    {
      "channel": 0,
      "note": 38,
      "start": 69.76,
      "duration": 0.0161,
      "velocity": 115,
      "chip": "ym2612"
    },
    {
      "channel": 5,
      "note": 82,
      "start": 69.7612,
      "duration": 0.0161,
      "velocity": 101,
      "chip": "ym2612"
    },
    {
      "channel": 4,
      "note": 88,
      "start": 69.7624,
      "duration": 0.0161,
      "velocity": 101,
      "chip": "ym2612"
    },
    {
      "channel": 2,
      "note": 54,
      "start": 69.7647,
      "duration": 0.0161,
      "velocity": 100,
      "chip": "ym2612"
    },
    {
      "channel": 0,
      "note": 38,
      "start": 69.7762,
      "duration": 0.0179,
      "velocity": 124,
      "chip": "ym2612"
    },
    {
      "channel": 5,
      "note": 82,
      "start": 69.7773,
      "duration": 0.0179,
      "velocity": 101,
      "chip": "ym2612"
    },
    {
      "channel": 4,
      "note": 88,
      "start": 69.7785,
      "duration": 0.0179,
      "velocity": 101,
      "chip": "ym2612"
    },
    {
      "channel": 2,
      "note": 54,
      "start": 69.7808,
      "duration": 0.0185,
      "velocity": 100,
      "chip": "ym2612"
    },
    {
      "channel": 0,
      "note": 84,
      "start": 69.7941,
      "duration": 0.0143,
      "velocity": 124,
      "chip": "ym2612"
    },
    {
      "channel": 5,
      "note": 82,
      "start": 69.7953,
      "duration": 0.0144,
      "velocity": 101,
      "chip": "ym2612"
    },
    {
      "channel": 4,
      "note": 88,
      "start": 69.7965,
      "duration": 0.0144,
      "velocity": 101,
      "chip": "ym2612"
    },
    {
      "channel": 3,
      "note": 95,
      "start": 69.798,
      "duration": 0.0142,
      "velocity": 85,
      "chip": "ym2612"
    },
    {
      "channel": 2,
      "note": 54,
      "start": 69.7994,
      "duration": 0.014,
      "velocity": 100,
      "chip": "ym2612"
    },
    {
      "channel": 1,
      "note": 99,
      "start": 69.8014,
      "duration": 0.0132,
      "velocity": 85,
      "chip": "ym2612"
    },
    {
      "channel": 0,
      "note": 82,
      "start": 69.8084,
      "duration": 0.016,
      "velocity": 124,
      "chip": "ym2612"
    },
    {
      "channel": 5,
      "note": 82,
      "start": 69.8097,
      "duration": 0.016,
      "velocity": 101,
      "chip": "ym2612"
    },
    {
      "channel": 4,
      "note": 88,
      "start": 69.8109,
      "duration": 0.016,
      "velocity": 101,
      "chip": "ym2612"
    },
    {
      "channel": 3,
      "note": 95,
      "start": 69.8122,
      "duration": 0.0159,
      "velocity": 85,
      "chip": "ym2612"
    },
    {
      "channel": 2,
      "note": 54,
      "start": 69.8134,
      "duration": 0.0159,
      "velocity": 100,
      "chip": "ym2612"
    },
    {
      "channel": 1,
      "note": 99,
      "start": 69.8146,
      "duration": 0.0158,
      "velocity": 85,
      "chip": "ym2612"
    },
    {
      "channel": 0,
      "note": 80,
      "start": 69.8245,
      "duration": 0.0161,
      "velocity": 124,
      "chip": "ym2612"
    },
    {
      "channel": 5,
      "note": 82,
      "start": 69.8257,
      "duration": 0.0161,
      "velocity": 101,
      "chip": "ym2612"
    },
    {
      "channel": 4,
      "note": 88,
      "start": 69.8269,
      "duration": 0.0162,
      "velocity": 101,
      "chip": "ym2612"
    },
    {
      "channel": 3,
      "note": 95,
      "start": 69.8281,
      "duration": 0.0161,
      "velocity": 85,
      "chip": "ym2612"
    },
    {
      "channel": 2,
      "note": 54,
      "start": 69.8293,
      "duration": 0.0161,
      "velocity": 100,
      "chip": "ym2612"
    },
    {
      "channel": 1,
      "note": 99,
      "start": 69.8304,
      "duration": 0.0162,
      "velocity": 85,
      "chip": "ym2612"
    },
    {
      "channel": 0,
      "note": 77,
      "start": 69.8406,
      "duration": 0.0161,
      "velocity": 124,
      "chip": "ym2612"
    },
    {
      "channel": 3,
      "note": 95,
      "start": 69.8442,
      "duration": 0.0161,
      "velocity": 85,
      "chip": "ym2612"
    },
    {
      "channel": 2,
      "note": 54,
      "start": 69.8454,
      "duration": 0.0161,
      "velocity": 100,
      "chip": "ym2612"
    },
    {
      "channel": 1,
      "note": 99,
      "start": 69.8466,
      "duration": 0.0161,
      "velocity": 85,
      "chip": "ym2612"
    },
    {
      "channel": 0,
      "note": 75,
      "start": 69.8567,
      "duration": 0.0161,
      "velocity": 124,
      "chip": "ym2612"
    },
    {
      "channel": 2,
      "note": 54,
      "start": 69.8614,
      "duration": 0.0162,
      "velocity": 100,
      "chip": "ym2612"
    },
    {
      "channel": 0,
      "note": 72,
      "start": 69.8728,
      "duration": 0.0161,
      "velocity": 124,
      "chip": "ym2612"
    },
    {
      "channel": 2,
      "note": 54,
      "start": 69.8776,
      "duration": 0.016,
      "velocity": 100,
      "chip": "ym2612"
    },
    {
      "channel": 0,
      "note": 70,
      "start": 69.8888,
      "duration": 0.018,
      "velocity": 124,
      "chip": "ym2612"
    },
    {
      "channel": 2,
      "note": 54,
      "start": 69.8936,
      "duration": 0.0193,
      "velocity": 100,
      "chip": "ym2612"
    },
    {
      "channel": 0,
      "note": 84,
      "start": 69.9068,
      "duration": 0.0143,
      "velocity": 124,
      "chip": "ym2612"
    },
    {
      "channel": 5,
      "note": 82,
      "start": 69.9084,
      "duration": 0.014,
      "velocity": 101,
      "chip": "ym2612"
    },
    {
      "channel": 4,
      "note": 88,
      "start": 69.9099,
      "duration": 0.0137,
      "velocity": 101,
      "chip": "ym2612"
    },
    {
      "channel": 3,
      "note": 97,
      "start": 69.9114,
      "duration": 0.0135,
      "velocity": 85,
      "chip": "ym2612"
    },
    {
      "channel": 2,
      "note": 54,
      "start": 69.9128,
      "duration": 0.0132,
      "velocity": 100,
      "chip": "ym2612"
    },
    {
      "channel": 1,
      "note": 100,
      "start": 69.9143,
      "duration": 0.013,
      "velocity": 85,
      "chip": "ym2612"
    },
    {
      "channel": 0,
      "note": 82,
      "start": 69.9211,
      "duration": 0.0161,
      "velocity": 124,
      "chip": "ym2612"
    },
    {
      "channel": 5,
      "note": 82,
      "start": 69.9224,
      "duration": 0.016,
      "velocity": 101,
      "chip": "ym2612"
    },
    {
      "channel": 4,
      "note": 88,
      "start": 69.9237,
      "duration": 0.016,
      "velocity": 101,
      "chip": "ym2612"
    },
    {
      "channel": 3,
      "note": 97,
      "start": 69.9249,
      "duration": 0.0159,
      "velocity": 85,
      "chip": "ym2612"
    },
    {
      "channel": 2,
      "note": 54,
      "start": 69.9261,
      "duration": 0.0158,
      "velocity": 100,
      "chip": "ym2612"
    },
    {
      "channel": 1,
      "note": 100,
      "start": 69.9273,
      "duration": 0.0158,
      "velocity": 85,
      "chip": "ym2612"
    },
    {
      "channel": 0,
      "note": 80,
      "start": 69.9373,
      "duration": 0.0161,
      "velocity": 124,
      "chip": "ym2612"
    },
    {
      "channel": 5,
      "note": 82,
      "start": 69.9384,
      "duration": 0.0161,
      "velocity": 101,
      "chip": "ym2612"
    },
    {
      "channel": 4,
      "note": 88,
      "start": 69.9396,
      "duration": 0.0162,
      "velocity": 101,
      "chip": "ym2612"
    },
    {
      "channel": 3,
      "note": 97,
      "start": 69.9408,
      "duration": 0.0161,
      "velocity": 85,
      "chip": "ym2612"
    },
    {
      "channel": 2,
      "note": 54,
      "start": 69.9419,
      "duration": 0.0162,
      "velocity": 100,
      "chip": "ym2612"
    },
    {
      "channel": 1,
      "note": 100,
      "start": 69.9431,
      "duration": 0.0162,
      "velocity": 85,
      "chip": "ym2612"
    },
    {
      "channel": 0,
      "note": 77,
      "start": 69.9534,
      "duration": 0.0164,
      "velocity": 124,
      "chip": "ym2612"
    },
    {
      "channel": 5,
      "note": 82,
      "start": 69.9546,
      "duration": 0.0164,
      "velocity": 101,
      "chip": "ym2612"
    },
    {
      "channel": 4,
      "note": 88,
      "start": 69.9558,
      "duration": 0.0163,
      "velocity": 101,
      "chip": "ym2612"
    },
    {
      "channel": 2,
      "note": 54,
      "start": 69.9581,
      "duration": 0.0163,
      "velocity": 100,
      "chip": "ym2612"
    },
    {
      "channel": 0,
      "note": 75,
      "start": 69.9698,
      "duration": 0.0163,
      "velocity": 124,
      "chip": "ym2612"
    },
    {
      "channel": 5,
      "note": 82,
      "start": 69.971,
      "duration": 0.0163,
      "velocity": 101,
      "chip": "ym2612"
    },
    {
      "channel": 4,
      "note": 88,
      "start": 69.9721,
      "duration": 0.0163,
      "velocity": 101,
      "chip": "ym2612"
    },
    {
      "channel": 2,
      "note": 54,
      "start": 69.9744,
      "duration": 0.0163,
      "velocity": 100,
      "chip": "ym2612"
    },
    {
      "channel": 0,
      "note": 72,
      "start": 69.9861,
      "duration": 0.0179,
      "velocity": 124,
      "chip": "ym2612"
    },
    {
      "channel": 5,
      "note": 82,
      "start": 69.9873,
      "duration": 0.0179,
      "velocity": 101,
      "chip": "ym2612"
    },
    {
      "channel": 4,
      "note": 88,
      "start": 69.9885,
      "duration": 0.0179,
      "velocity": 101,
      "chip": "ym2612"
    },
    {
      "channel": 2,
      "note": 54,
      "start": 69.9908,
      "duration": 0.0183,
      "velocity": 100,
      "chip": "ym2612"
    },
    {
      "channel": 0,
      "note": 84,
      "start": 70.004,
      "duration": 0.0143,
      "velocity": 124,
      "chip": "ym2612"
    },
    {
      "channel": 5,
      "note": 82,
      "start": 70.0052,
      "duration": 0.0144,
      "velocity": 101,
      "chip": "ym2612"
    },
    {
      "channel": 4,
      "note": 88,
      "start": 70.0064,
      "duration": 0.0144,
      "velocity": 101,
      "chip": "ym2612"
    },
    {
      "channel": 3,
      "note": 99,
      "start": 70.0079,
      "duration": 0.0143,
      "velocity": 85,
      "chip": "ym2612"
    },
    {
      "channel": 2,
      "note": 54,
      "start": 70.009,
      "duration": 0.0142,
      "velocity": 100,
      "chip": "ym2612"
    },
    {
      "channel": 1,
      "note": 102,
      "start": 70.0105,
      "duration": 0.014,
      "velocity": 85,
      "chip": "ym2612"
    },
    {
      "channel": 0,
      "note": 82,
      "start": 70.0183,
      "duration": 0.0157,
      "velocity": 124,
      "chip": "ym2612"
    },
    {
      "channel": 5,
      "note": 82,
      "start": 70.0196,
      "duration": 0.016,
      "velocity": 101,
      "chip": "ym2612"
    },
    {
      "channel": 4,
      "note": 88,
      "start": 70.0208,
      "duration": 0.016,
      "velocity": 101,
      "chip": "ym2612"
    },
    {
      "channel": 3,
      "note": 99,
      "start": 70.0221,
      "duration": 0.0159,
      "velocity": 85,
      "chip": "ym2612"
    },
    {
      "channel": 2,
      "note": 54,
      "start": 70.0233,
      "duration": 0.0159,
      "velocity": 100,
      "chip": "ym2612"
    },
    {
      "channel": 1,
      "note": 102,
      "start": 70.0245,
      "duration": 0.0159,
      "velocity": 85,
      "chip": "ym2612"
    },
    {
      "channel": 0,
      "note": 80,
      "start": 70.034,
      "duration": 0.0159,
      "velocity": 124,
      "chip": "ym2612"
    },
    {
      "channel": 5,
      "note": 82,
      "start": 70.0356,
      "duration": 0.0161,
      "velocity": 101,
      "chip": "ym2612"
    },
    {
      "channel": 4,
      "note": 88,
      "start": 70.0368,
      "duration": 0.0161,
      "velocity": 101,
      "chip": "ym2612"
    },
    {
      "channel": 3,
      "note": 99,
      "start": 70.038,
      "duration": 0.0161,
      "velocity": 85,
      "chip": "ym2612"
    },
    {
      "channel": 2,
      "note": 54,
      "start": 70.0392,
      "duration": 0.0161,
      "velocity": 100,
      "chip": "ym2612"
    },
    {
      "channel": 1,
      "note": 102,
      "start": 70.0403,
      "duration": 0.0161,
      "velocity": 85,
      "chip": "ym2612"
    },
    {
      "channel": 0,
      "note": 77,
      "start": 70.0499,
      "duration": 0.0161,
      "velocity": 124,
      "chip": "ym2612"
    },
    {
      "channel": 3,
      "note": 99,
      "start": 70.0541,
      "duration": 0.0161,
      "velocity": 85,
      "chip": "ym2612"
    },
    {
      "channel": 2,
      "note": 54,
      "start": 70.0553,
      "duration": 0.0161,
      "velocity": 100,
      "chip": "ym2612"
    },
    {
      "channel": 1,
      "note": 102,
      "start": 70.0565,
      "duration": 0.0161,
      "velocity": 85,
      "chip": "ym2612"
    },
    {
      "channel": 0,
      "note": 75,
      "start": 70.066,
      "duration": 0.0161,
      "velocity": 124,
      "chip": "ym2612"
    },
    {
      "channel": 2,
      "note": 54,
      "start": 70.0714,
      "duration": 0.0161,
      "velocity": 100,
      "chip": "ym2612"
    },
    {
      "channel": 0,
      "note": 72,
      "start": 70.0821,
      "duration": 0.0161,
      "velocity": 124,
      "chip": "ym2612"
    },
    {
      "channel": 2,
      "note": 54,
      "start": 70.0875,
      "duration": 0.016,
      "velocity": 100,
      "chip": "ym2612"
    },
    {
      "channel": 0,
      "note": 70,
      "start": 70.0982,
      "duration": 0.0179,
      "velocity": 124,
      "chip": "ym2612"
    },
    {
      "channel": 2,
      "note": 54,
      "start": 70.1034,
      "duration": 0.0193,
      "velocity": 100,
      "chip": "ym2612"
    },
    {
      "channel": 0,
      "note": 84,
      "start": 70.1161,
      "duration": 0.0143,
      "velocity": 124,
      "chip": "ym2612"
    },
    {
      "channel": 5,
      "note": 82,
      "start": 70.1182,
      "duration": 0.0135,
      "velocity": 101,
      "chip": "ym2612"
    },
    {
      "channel": 4,
      "note": 88,
      "start": 70.1198,
      "duration": 0.0132,
      "velocity": 101,
      "chip": "ym2612"
    },
    {
      "channel": 3,
      "note": 100,
      "start": 70.1212,
      "duration": 0.0135,
      "velocity": 85,
      "chip": "ym2612"
    },
    {
      "channel": 2,
      "note": 66,
      "start": 70.1228,
      "duration": 0.0132,
      "velocity": 100,
      "chip": "ym2612"
    },
    {
      "channel": 1,
      "note": 104,
      "start": 70.1242,
      "duration": 0.013,
      "velocity": 85,
      "chip": "ym2612"
    },
    {
      "channel": 0,
      "note": 82,
      "start": 70.1305,
      "duration": 0.016,
      "velocity": 124,
      "chip": "ym2612"
    },
    {
      "channel": 5,
      "note": 82,
      "start": 70.1317,
      "duration": 0.016,
      "velocity": 101,
      "chip": "ym2612"
    },
    {
      "channel": 4,
      "note": 88,
      "start": 70.1329,
      "duration": 0.016,
      "velocity": 101,
      "chip": "ym2612"
    },
    {
      "channel": 3,
      "note": 100,
      "start": 70.1347,
      "duration": 0.0153,
      "velocity": 85,
      "chip": "ym2612"
    },
    {
      "channel": 2,
      "note": 66,
      "start": 70.136,
      "duration": 0.0157,
      "velocity": 100,
      "chip": "ym2612"
    },
    {
      "channel": 1,
      "note": 104,
      "start": 70.1372,
      "duration": 0.0158,
      "velocity": 85,
      "chip": "ym2612"
    },
    {
      "channel": 0,
      "note": 80,
      "start": 70.1465,
      "duration": 0.0161,
      "velocity": 124,
      "chip": "ym2612"
    },
    {
      "channel": 5,
      "note": 82,
      "start": 70.1477,
      "duration": 0.0161,
      "velocity": 101,
      "chip": "ym2612"
    },
    {
      "channel": 4,
      "note": 88,
      "start": 70.1489,
      "duration": 0.0161,
      "velocity": 101,
      "chip": "ym2612"
    },
    {
      "channel": 3,
      "note": 100,
      "start": 70.15,
      "duration": 0.0161,
      "velocity": 85,
      "chip": "ym2612"
    },
    {
      "channel": 2,
      "note": 66,
      "start": 70.1517,
      "duration": 0.0159,
      "velocity": 100,
      "chip": "ym2612"
    },
    {
      "channel": 1,
      "note": 104,
      "start": 70.153,
      "duration": 0.0161,
      "velocity": 85,
      "chip": "ym2612"
    },
    {
      "channel": 0,
      "note": 77,
      "start": 70.1626,
      "duration": 0.0161,
      "velocity": 124,
      "chip": "ym2612"
    },
    {
      "channel": 5,
      "note": 82,
      "start": 70.1638,
      "duration": 0.0161,
      "velocity": 101,
      "chip": "ym2612"
    },
    {
      "channel": 4,
      "note": 88,
      "start": 70.165,
      "duration": 0.0161,
      "velocity": 101,
      "chip": "ym2612"
    },
    {
      "channel": 2,
      "note": 66,
      "start": 70.1676,
      "duration": 0.0158,
      "velocity": 100,
      "chip": "ym2612"
    },
    {
      "channel": 0,
      "note": 75,
      "start": 70.1787,
      "duration": 0.0161,
      "velocity": 124,
      "chip": "ym2612"
    },
    {
      "channel": 5,
      "note": 82,
      "start": 70.1799,
      "duration": 0.0161,
      "velocity": 101,
      "chip": "ym2612"
    },
    {
      "channel": 4,
      "note": 88,
      "start": 70.1811,
      "duration": 0.0161,
      "velocity": 101,
      "chip": "ym2612"
    },
    {
      "channel": 2,
      "note": 66,
      "start": 70.1834,
      "duration": 0.0161,
      "velocity": 100,
      "chip": "ym2612"
    },
    {
      "channel": 0,
      "note": 72,
      "start": 70.1948,
      "duration": 0.0179,
      "velocity": 124,
      "chip": "ym2612"
    },
    {
      "channel": 5,
      "note": 82,
      "start": 70.196,
      "duration": 0.0179,
      "velocity": 101,
      "chip": "ym2612"
    },
    {
      "channel": 4,
      "note": 88,
      "start": 70.1972,
      "duration": 0.0179,
      "velocity": 101,
      "chip": "ym2612"
    },
    {
      "channel": 2,
      "note": 66,
      "start": 70.1995,
      "duration": 0.0189,
      "velocity": 100,
      "chip": "ym2612"
    },
    {
      "channel": 0,
      "note": 84,
      "start": 70.2128,
      "duration": 0.0143,
      "velocity": 124,
      "chip": "ym2612"
    },
    {
      "channel": 5,
      "note": 82,
      "start": 70.2139,
      "duration": 0.0144,
      "velocity": 101,
      "chip": "ym2612"
    },
    {
      "channel": 4,
      "note": 88,
      "start": 70.2151,
      "duration": 0.0144,
      "velocity": 101,
      "chip": "ym2612"
    },
    {
      "channel": 3,
      "note": 102,
      "start": 70.2166,
      "duration": 0.0142,
      "velocity": 85,
      "chip": "ym2612"
    },
    {
      "channel": 2,
      "note": 66,
      "start": 70.2184,
      "duration": 0.0137,
      "velocity": 100,
      "chip": "ym2612"
    },
    {
      "channel": 1,
      "note": 106,
      "start": 70.2199,
      "duration": 0.0134,
      "velocity": 85,
      "chip": "ym2612"
    },
    {
      "channel": 0,
      "note": 82,
      "start": 70.2271,
      "duration": 0.016,
      "velocity": 124,
      "chip": "ym2612"
    },
    {
      "channel": 5,
      "note": 82,
      "start": 70.2284,
      "duration": 0.016,
      "velocity": 101,
      "chip": "ym2612"
    },
    {
      "channel": 4,
      "note": 88,
      "start": 70.2296,
      "duration": 0.016,
      "velocity": 101,
      "chip": "ym2612"
    },
    {
      "channel": 3,
      "note": 102,
      "start": 70.2308,
      "duration": 0.0159,
      "velocity": 85,
      "chip": "ym2612"
    },
    {
      "channel": 2,
      "note": 66,
      "start": 70.232,
      "duration": 0.0159,
      "velocity": 100,
      "chip": "ym2612"
    },
    {
      "channel": 1,
      "note": 106,
      "start": 70.2333,
      "duration": 0.0158,
      "velocity": 85,
      "chip": "ym2612"
    },
    {
      "channel": 0,
      "note": 80,
      "start": 70.2431,
      "duration": 0.0161,
      "velocity": 124,
      "chip": "ym2612"
    },
    {
      "channel": 5,
      "note": 82,
      "start": 70.2443,
      "duration": 0.0161,
      "velocity": 101,
      "chip": "ym2612"
    },
    {
      "channel": 4,
      "note": 88,
      "start": 70.2455,
      "duration": 0.0162,
      "velocity": 101,
      "chip": "ym2612"
    },
    {
      "channel": 3,
      "note": 102,
      "start": 70.2467,
      "duration": 0.0161,
      "velocity": 85,
      "chip": "ym2612"
    },
    {
      "channel": 2,
      "note": 66,
      "start": 70.248,
      "duration": 0.016,
      "velocity": 100,
      "chip": "ym2612"
    },
    {
      "channel": 1,
      "note": 106,
      "start": 70.2491,
      "duration": 0.0161,
      "velocity": 85,
      "chip": "ym2612"
    },
    {
      "channel": 0,
      "note": 77,
      "start": 70.2592,
      "duration": 0.0161,
      "velocity": 124,
      "chip": "ym2612"
    },
    {
      "channel": 3,
      "note": 102,
      "start": 70.2628,
      "duration": 0.0161,
      "velocity": 85,
      "chip": "ym2612"
    },
    {
      "channel": 2,
      "note": 66,
      "start": 70.264,
      "duration": 0.0161,
      "velocity": 100,
      "chip": "ym2612"
    },
    {
      "channel": 0,
      "note": 75,
      "start": 70.2753,
      "duration": 0.0161,
      "velocity": 124,
      "chip": "ym2612"
    },
    {
      "channel": 2,
      "note": 66,
      "start": 70.2801,
      "duration": 0.0162,
      "velocity": 100,
      "chip": "ym2612"
    },
    {
      "channel": 0,
      "note": 72,
      "start": 70.2914,
      "duration": 0.0161,
      "velocity": 124,
      "chip": "ym2612"
    },
    {
      "channel": 2,
      "note": 66,
      "start": 70.2963,
      "duration": 0.0158,
      "velocity": 100,
      "chip": "ym2612"
    },
    {
      "channel": 0,
      "note": 70,
      "start": 70.3075,
      "duration": 0.0209,
      "velocity": 115,
      "chip": "ym2612"
    },
    {
      "channel": 2,
      "note": 66,
      "start": 70.3121,
      "duration": 0.0222,
      "velocity": 100,
      "chip": "ym2612"
    },
    {
      "channel": 1,
      "note": 68,
      "start": 70.3248,
      "duration": 0.0144,
      "velocity": 116,
      "chip": "ym2612"
    },
    {
      "channel": 0,
      "note": 36,
      "start": 70.3284,
      "duration": 0.0126,
      "velocity": 115,
      "chip": "ym2612"
    },
    {
      "channel": 3,
      "note": 104,
      "start": 70.3326,
      "duration": 0.012,
      "velocity": 85,
      "chip": "ym2612"
    },
    {
      "channel": 2,
      "note": 54,
      "start": 70.3347,
      "duration": 0.0111,
      "velocity": 100,
      "chip": "ym2612"
    },
    {
      "channel": 1,
      "note": 68,
      "start": 70.3392,
      "duration": 0.016,
      "velocity": 116,
      "chip": "ym2612"
    },
    {
      "channel": 0,
      "note": 36,
      "start": 70.341,
      "duration": 0.016,
      "velocity": 115,
      "chip": "ym2612"
    },
    {
      "channel": 3,
      "note": 104,
      "start": 70.3446,
      "duration": 0.0159,
      "velocity": 85,
      "chip": "ym2612"
    },
    {
      "channel": 2,
      "note": 54,
      "start": 70.3458,
      "duration": 0.0159,
      "velocity": 100,
      "chip": "ym2612"
    },
    {
      "channel": 1,
      "note": 68,
      "start": 70.3552,
      "duration": 0.0162,
      "velocity": 116,
      "chip": "ym2612"
    },
    {
      "channel": 0,
      "note": 37,
      "start": 70.3569,
      "duration": 0.0161,
      "velocity": 115,
      "chip": "ym2612"
    },
    {
      "channel": 3,
      "note": 104,
      "start": 70.3605,
      "duration": 0.0161,
      "velocity": 85,
      "chip": "ym2612"
    },
    {
      "channel": 2,
      "note": 54,
      "start": 70.3616,
      "duration": 0.0161,
      "velocity": 100,
      "chip": "ym2612"
    },
    {
      "channel": 1,
      "note": 68,
      "start": 70.3714,
      "duration": 0.0161,
      "velocity": 116,
      "chip": "ym2612"
    },
    {
      "channel": 0,
      "note": 37,
      "start": 70.373,
      "duration": 0.0161,
      "velocity": 115,
      "chip": "ym2612"
    },
    {
      "channel": 2,
      "note": 54,
      "start": 70.3778,
      "duration": 0.016,
      "velocity": 100,
      "chip": "ym2612"
    },
    {
      "channel": 1,
      "note": 68,
      "start": 70.3875,
      "duration": 0.0161,
      "velocity": 116,
      "chip": "ym2612"
    },
    {
      "channel": 0,
      "note": 38,
      "start": 70.3892,
      "duration": 0.0161,
      "velocity": 115,
      "chip": "ym2612"
    },
    {
      "channel": 2,
      "note": 54,
      "start": 70.3938,
      "duration": 0.0161,
      "velocity": 100,
      "chip": "ym2612"
    },
    {
      "channel": 1,
      "note": 68,
      "start": 70.4035,
      "duration": 0.0179,
      "velocity": 116,
      "chip": "ym2612"
    },
    {
      "channel": 0,
      "note": 38,
      "start": 70.4053,
      "duration": 0.0179,
      "velocity": 115,
      "chip": "ym2612"
    },
    {
      "channel": 2,
      "note": 54,
      "start": 70.4099,
      "duration": 0.0185,
      "velocity": 100,
      "chip": "ym2612"
    },
    {
      "channel": 1,
      "note": 68,
      "start": 70.4215,
      "duration": 0.0147,
      "velocity": 116,
      "chip": "ym2612"
    },
    {
      "channel": 0,
      "note": 39,
      "start": 70.4232,
      "duration": 0.0147,
      "velocity": 115,
      "chip": "ym2612"
    },
    {
      "channel": 3,
      "note": 106,
      "start": 70.4273,
      "duration": 0.0144,
      "velocity": 85,
      "chip": "ym2612"
    },
    {
      "channel": 2,
      "note": 54,
      "start": 70.4284,
      "duration": 0.0144,
      "velocity": 100,
      "chip": "ym2612"
    },
    {
      "channel": 1,
      "note": 68,
      "start": 70.4362,
      "duration": 0.0162,
      "velocity": 116,
      "chip": "ym2612"
    },
    {
      "channel": 0,
      "note": 39,
      "start": 70.4379,
      "duration": 0.0162,
      "velocity": 115,
      "chip": "ym2612"
    },
    {
      "channel": 3,
      "note": 106,
      "start": 70.4417,
      "duration": 0.0162,
      "velocity": 85,
      "chip": "ym2612"
    },
    {
      "channel": 2,
      "note": 54,
      "start": 70.4428,
      "duration": 0.0162,
      "velocity": 100,
      "chip": "ym2612"
    },
    {
      "channel": 1,
      "note": 68,
      "start": 70.4524,
      "duration": 0.0161,
      "velocity": 116,
      "chip": "ym2612"
    },
    {
      "channel": 0,
      "note": 40,
      "start": 70.4541,
      "duration": 0.0161,
      "velocity": 115,
      "chip": "ym2612"
    },
    {
      "channel": 3,
      "note": 106,
      "start": 70.4579,
      "duration": 0.0162,
      "velocity": 85,
      "chip": "ym2612"
    },
    {
      "channel": 2,
      "note": 54,
      "start": 70.459,
      "duration": 0.0161,
      "velocity": 100,
      "chip": "ym2612"
    },
    {
      "channel": 1,
      "note": 68,
      "start": 70.4685,
      "duration": 0.0158,
      "velocity": 116,
      "chip": "ym2612"
    },
    {
      "channel": 0,
      "note": 40,
      "start": 70.4702,
      "duration": 0.0161,
      "velocity": 115,
      "chip": "ym2612"
    },
    {
      "channel": 3,
      "note": 106,
      "start": 70.474,
      "duration": 0.016,
      "velocity": 85,
      "chip": "ym2612"
    },
    {
      "channel": 2,
      "note": 54,
      "start": 70.4752,
      "duration": 0.016,
      "velocity": 100,
      "chip": "ym2612"
    },
    {
      "channel": 1,
      "note": 68,
      "start": 70.4843,
      "duration": 0.0159,
      "velocity": 116,
      "chip": "ym2612"
    },
    {
      "channel": 0,
      "note": 40,
      "start": 70.4863,
      "duration": 0.0162,
      "velocity": 115,
      "chip": "ym2612"
    },
    {
      "channel": 2,
      "note": 54,
      "start": 70.4912,
      "duration": 0.0161,
      "velocity": 100,
      "chip": "ym2612"
    },
    {
      "channel": 1,
      "note": 68,
      "start": 70.5001,
      "duration": 0.0162,
      "velocity": 116,
      "chip": "ym2612"
    },
    {
      "channel": 0,
      "note": 41,
      "start": 70.5025,
      "duration": 0.016,
      "velocity": 115,
      "chip": "ym2612"
    },
    {
      "channel": 2,
      "note": 54,
      "start": 70.5073,
      "duration": 0.0161,
      "velocity": 100,
      "chip": "ym2612"
    },
    {
      "channel": 1,
      "note": 68,
      "start": 70.5163,
      "duration": 0.018,
      "velocity": 105,
      "chip": "ym2612"
    },
    {
      "channel": 0,
      "note": 41,
      "start": 70.5185,
      "duration": 0.0179,
      "velocity": 115,
      "chip": "ym2612"
    },
    {
      "channel": 2,
      "note": 54,
      "start": 70.5234,
      "duration": 0.0206,
      "velocity": 100,
      "chip": "ym2612"
    },
    {
      "channel": 1,
      "note": 105,
      "start": 70.5343,
      "duration": 0.0143,
      "velocity": 105,
      "chip": "ym2612"
    },
    {
      "channel": 0,
      "note": 42,
      "start": 70.5364,
      "duration": 0.0138,
      "velocity": 115,
      "chip": "ym2612"
    },
    {
      "channel": 5,
      "note": 90,
      "start": 70.538,
      "duration": 0.0141,
      "velocity": 101,
      "chip": "ym2612"
    },
    {
      "channel": 4,
      "note": 95,
      "start": 70.5395,
      "duration": 0.0138,
      "velocity": 101,
      "chip": "ym2612"
    },
    {
      "channel": 3,
      "note": 99,
      "start": 70.5425,
      "duration": 0.012,
      "velocity": 101,
      "chip": "ym2612"
    },
    {
      "channel": 2,
      "note": 66,
      "start": 70.5441,
      "duration": 0.0117,
      "velocity": 100,
      "chip": "ym2612"
    },
    {
      "channel": 1,
      "note": 105,
      "start": 70.5485,
      "duration": 0.016,
      "velocity": 105,
      "chip": "ym2612"
    },
    {
      "channel": 0,
      "note": 42,
      "start": 70.5502,
      "duration": 0.016,
      "velocity": 115,
      "chip": "ym2612"
    },
    {
      "channel": 5,
      "note": 90,
      "start": 70.5521,
      "duration": 0.0155,
      "velocity": 101,
      "chip": "ym2612"
    },
    {
      "channel": 4,
      "note": 95,
      "start": 70.5533,
      "duration": 0.0159,
      "velocity": 101,
      "chip": "ym2612"
    },
    {
      "channel": 3,
      "note": 99,
      "start": 70.5546,
      "duration": 0.0159,
      "velocity": 101,
      "chip": "ym2612"
    },
    {
      "channel": 2,
      "note": 66,
      "start": 70.5558,
      "duration": 0.0158,
      "velocity": 100,
      "chip": "ym2612"
    },
    {
      "channel": 1,
      "note": 105,
      "start": 70.5646,
      "duration": 0.0161,
      "velocity": 105,
      "chip": "ym2612"
    },
    {
      "channel": 0,
      "note": 43,
      "start": 70.5662,
      "duration": 0.0161,
      "velocity": 115,
      "chip": "ym2612"
    },
    {
      "channel": 5,
      "note": 90,
      "start": 70.5676,
      "duration": 0.0159,
      "velocity": 101,
      "chip": "ym2612"
    },
    {
      "channel": 4,
      "note": 95,
      "start": 70.5692,
      "duration": 0.016,
      "velocity": 101,
      "chip": "ym2612"
    },
    {
      "channel": 3,
      "note": 99,
      "start": 70.5704,
      "duration": 0.016,
      "velocity": 101,
      "chip": "ym2612"
    },
    {
      "channel": 2,
      "note": 66,
      "start": 70.5715,
      "duration": 0.0161,
      "velocity": 100,
      "chip": "ym2612"
    },
    {
      "channel": 1,
      "note": 105,
      "start": 70.5807,
      "duration": 0.0161,
      "velocity": 105,
      "chip": "ym2612"
    },
    {
      "channel": 0,
      "note": 43,
      "start": 70.5824,
      "duration": 0.0161,
      "velocity": 115,
      "chip": "ym2612"
    },
    {
      "channel": 5,
      "note": 90,
      "start": 70.5835,
      "duration": 0.0161,
      "velocity": 101,
      "chip": "ym2612"
    },
    {
      "channel": 4,
      "note": 95,
      "start": 70.5852,
      "duration": 0.0161,
      "velocity": 101,
      "chip": "ym2612"
    },
    {
      "channel": 3,
      "note": 99,
      "start": 70.5864,
      "duration": 0.0161,
      "velocity": 101,
      "chip": "ym2612"
    },
    {
      "channel": 2,
      "note": 66,
      "start": 70.5876,
      "duration": 0.0161,
      "velocity": 100,
      "chip": "ym2612"
    },
    {
      "channel": 1,
      "note": 105,
      "start": 70.5967,
      "duration": 0.0161,
      "velocity": 105,
      "chip": "ym2612"
    },
    {
      "channel": 0,
      "note": 44,
      "start": 70.5985,
      "duration": 0.0161,
      "velocity": 115,
      "chip": "ym2612"
    },
    {
      "channel": 5,
      "note": 90,
      "start": 70.5996,
      "duration": 0.0161,
      "velocity": 101,
      "chip": "ym2612"
    },
    {
      "channel": 4,
      "note": 95,
      "start": 70.6013,
      "duration": 0.0156,
      "velocity": 101,
      "chip": "ym2612"
    },
    {
      "channel": 3,
      "note": 99,
      "start": 70.6026,
      "duration": 0.0161,
      "velocity": 101,
      "chip": "ym2612"
    },
    {
      "channel": 2,
      "note": 66,
      "start": 70.6037,
      "duration": 0.0161,
      "velocity": 100,
      "chip": "ym2612"
    },
    {
      "channel": 1,
      "note": 105,
      "start": 70.6128,
      "duration": 0.0161,
      "velocity": 105,
      "chip": "ym2612"
    },
    {
      "channel": 0,
      "note": 44,
      "start": 70.6146,
      "duration": 0.0161,
      "velocity": 115,
      "chip": "ym2612"
    },
    {
      "channel": 5,
      "note": 90,
      "start": 70.6157,
      "duration": 0.0161,
      "velocity": 101,
      "chip": "ym2612"
    },
    {
      "channel": 4,
      "note": 95,
      "start": 70.6169,
      "duration": 0.0161,
      "velocity": 101,
      "chip": "ym2612"
    },
    {
      "channel": 3,
      "note": 99,
      "start": 70.6187,
      "duration": 0.016,
      "velocity": 101,
      "chip": "ym2612"
    },
    {
      "channel": 2,
      "note": 66,
      "start": 70.6198,
      "duration": 0.0161,
      "velocity": 100,
      "chip": "ym2612"
    },
    {
      "channel": 1,
      "note": 105,
      "start": 70.6289,
      "duration": 0.0161,
      "velocity": 105,
      "chip": "ym2612"
    },
    {
      "channel": 0,
      "note": 44,
      "start": 70.6307,
      "duration": 0.0161,
      "velocity": 115,
      "chip": "ym2612"
    },
    {
      "channel": 5,
      "note": 90,
      "start": 70.6318,
      "duration": 0.0162,
      "velocity": 101,
      "chip": "ym2612"
    },
    {
      "channel": 4,
      "note": 95,
      "start": 70.633,
      "duration": 0.0163,
      "velocity": 101,
      "chip": "ym2612"
    },
    {
      "channel": 3,
      "note": 99,
      "start": 70.6347,
      "duration": 0.016,
      "velocity": 101,
      "chip": "ym2612"
    },
    {
      "channel": 2,
      "note": 66,
      "start": 70.636,
      "duration": 0.0163,
      "velocity": 100,
      "chip": "ym2612"
    },
    {
      "channel": 1,
      "note": 105,
      "start": 70.645,
      "duration": 0.0161,
      "velocity": 105,
      "chip": "ym2612"
    },
    {
      "channel": 0,
      "note": 45,
      "start": 70.6467,
      "duration": 0.0161,
      "velocity": 115,
      "chip": "ym2612"
    },
    {
      "channel": 5,
      "note": 90,
      "start": 70.648,
      "duration": 0.016,
      "velocity": 101,
      "chip": "ym2612"
    },
    {
      "channel": 4,
      "note": 95,
      "start": 70.6493,
      "duration": 0.016,
      "velocity": 101,
      "chip": "ym2612"
    },
    {
      "channel": 3,
      "note": 99,
      "start": 70.6507,
      "duration": 0.0158,
      "velocity": 101,
      "chip": "ym2612"
    },
    {
      "channel": 2,
      "note": 66,
      "start": 70.6523,
      "duration": 0.016,
      "velocity": 100,
      "chip": "ym2612"
    },
    {
      "channel": 1,
      "note": 105,
      "start": 70.6611,
      "duration": 0.0161,
      "velocity": 105,
      "chip": "ym2612"
    },
    {
      "channel": 0,
      "note": 45,
      "start": 70.6628,
      "duration": 0.0161,
      "velocity": 115,
      "chip": "ym2612"
    },
    {
      "channel": 5,
      "note": 90,
      "start": 70.664,
      "duration": 0.0162,
      "velocity": 101,
      "chip": "ym2612"
    },
    {
      "channel": 4,
      "note": 95,
      "start": 70.6653,
      "duration": 0.0161,
      "velocity": 101,
      "chip": "ym2612"
    },
    {
      "channel": 3,
      "note": 99,
      "start": 70.6665,
      "duration": 0.0161,
      "velocity": 101,
      "chip": "ym2612"
    },
    {
      "channel": 2,
      "note": 66,
      "start": 70.6683,
      "duration": 0.0157,
      "velocity": 100,
      "chip": "ym2612"
    },
    {
      "channel": 1,
      "note": 105,
      "start": 70.6772,
      "duration": 0.0162,
      "velocity": 105,
      "chip": "ym2612"
    },
    {
      "channel": 0,
      "note": 46,
      "start": 70.6789,
      "duration": 0.0161,
      "velocity": 115,
      "chip": "ym2612"
    },
    {
      "channel": 2,
      "note": 66,
      "start": 70.684,
      "duration": 0.0159,
      "velocity": 100,
      "chip": "ym2612"
    },
    {
      "channel": 1,
      "note": 105,
      "start": 70.6934,
      "duration": 0.0161,
      "velocity": 105,
      "chip": "ym2612"
    },
    {
      "channel": 0,
      "note": 46,
      "start": 70.695,
      "duration": 0.0161,
      "velocity": 115,
      "chip": "ym2612"
    },
    {
      "channel": 2,
      "note": 66,
      "start": 70.6999,
      "duration": 0.0163,
      "velocity": 100,
      "chip": "ym2612"
    },
    {
      "channel": 1,
      "note": 105,
      "start": 70.7095,
      "duration": 0.0161,
      "velocity": 105,
      "chip": "ym2612"
    },
    {
      "channel": 0,
      "note": 47,
      "start": 70.7111,
      "duration": 0.0162,
      "velocity": 115,
      "chip": "ym2612"
    },
    {
      "channel": 2,
      "note": 66,
      "start": 70.7161,
      "duration": 0.0158,
      "velocity": 100,
      "chip": "ym2612"
    },
    {
      "channel": 1,
      "note": 105,
      "start": 70.7256,
      "duration": 0.0179,
      "velocity": 116,
      "chip": "ym2612"
    },
    {
      "channel": 0,
      "note": 47,
      "start": 70.7273,
      "duration": 0.0197,
      "velocity": 115,
      "chip": "ym2612"
    },
    {
      "channel": 2,
      "note": 66,
      "start": 70.7319,
      "duration": 0.0217,
      "velocity": 100,
      "chip": "ym2612"
    },
    {
      "channel": 1,
      "note": 68,
      "start": 70.7434,
      "duration": 0.0144,
      "velocity": 116,
      "chip": "ym2612"
    },
    {
      "channel": 0,
      "note": 36,
      "start": 70.747,
      "duration": 0.0126,
      "velocity": 115,
      "chip": "ym2612"
    },
    {
      "channel": 5,
      "note": 90,
      "start": 70.7485,
      "duration": 0.0123,
      "velocity": 101,
      "chip": "ym2612"
    },
    {
      "channel": 4,
      "note": 95,
      "start": 70.75,
      "duration": 0.0121,
      "velocity": 101,
      "chip": "ym2612"
    },
    {
      "channel": 3,
      "note": 99,
      "start": 70.752,
      "duration": 0.0113,
      "velocity": 101,
      "chip": "ym2612"
    },
    {
      "channel": 2,
      "note": 54,
      "start": 70.7537,
      "duration": 0.0109,
      "velocity": 100,
      "chip": "ym2612"
    },
    {
      "channel": 1,
      "note": 68,
      "start": 70.7578,
      "duration": 0.016,
      "velocity": 116,
      "chip": "ym2612"
    },
    {
      "channel": 0,
      "note": 36,
      "start": 70.7596,
      "duration": 0.016,
      "velocity": 115,
      "chip": "ym2612"
    },
    {
      "channel": 5,
      "note": 90,
      "start": 70.7609,
      "duration": 0.0159,
      "velocity": 101,
      "chip": "ym2612"
    },
    {
      "channel": 4,
      "note": 95,
      "start": 70.7621,
      "duration": 0.0159,
      "velocity": 101,
      "chip": "ym2612"
    },
    {
      "channel": 3,
      "note": 99,
      "start": 70.7633,
      "duration": 0.0158,
      "velocity": 101,
      "chip": "ym2612"
    },
    {
      "channel": 2,
      "note": 54,
      "start": 70.7646,
      "duration": 0.0157,
      "velocity": 100,
      "chip": "ym2612"
    },
    {
      "channel": 1,
      "note": 68,
      "start": 70.7738,
      "duration": 0.0161,
      "velocity": 116,
      "chip": "ym2612"
    },
    {
      "channel": 0,
      "note": 37,
      "start": 70.7756,
      "duration": 0.0161,
      "velocity": 115,
      "chip": "ym2612"
    },
    {
      "channel": 5,
      "note": 90,
      "start": 70.7768,
      "duration": 0.0161,
      "velocity": 101,
      "chip": "ym2612"
    },
    {
      "channel": 4,
      "note": 95,
      "start": 70.7779,
      "duration": 0.0161,
      "velocity": 101,
      "chip": "ym2612"
    },
    {
      "channel": 3,
      "note": 99,
      "start": 70.7791,
      "duration": 0.0161,
      "velocity": 101,
      "chip": "ym2612"
    },
    {
      "channel": 2,
      "note": 54,
      "start": 70.7803,
      "duration": 0.0161,
      "velocity": 100,
      "chip": "ym2612"
    },
    {
      "channel": 1,
      "note": 68,
      "start": 70.7899,
      "duration": 0.0161,
      "velocity": 116,
      "chip": "ym2612"
    },
    {
      "channel": 0,
      "note": 37,
      "start": 70.7917,
      "duration": 0.0161,
      "velocity": 115,
      "chip": "ym2612"
    },
    {
      "channel": 5,
      "note": 90,
      "start": 70.7929,
      "duration": 0.0161,
      "velocity": 101,
      "chip": "ym2612"
    },
    {
      "channel": 4,
      "note": 95,
      "start": 70.794,
      "duration": 0.0161,
      "velocity": 101,
      "chip": "ym2612"
    },
    {
      "channel": 3,
      "note": 99,
      "start": 70.7952,
      "duration": 0.0161,
      "velocity": 101,
      "chip": "ym2612"
    },
    {
      "channel": 2,
      "note": 54,
      "start": 70.7963,
      "duration": 0.0161,
      "velocity": 100,
      "chip": "ym2612"
    },
    {
      "channel": 1,
      "note": 68,
      "start": 70.806,
      "duration": 0.0161,
      "velocity": 116,
      "chip": "ym2612"
    },
    {
      "channel": 0,
      "note": 38,
      "start": 70.8078,
      "duration": 0.0161,
      "velocity": 115,
      "chip": "ym2612"
    },
    {
      "channel": 5,
      "note": 90,
      "start": 70.809,
      "duration": 0.0161,
      "velocity": 101,
      "chip": "ym2612"
    },
    {
      "channel": 4,
      "note": 95,
      "start": 70.8101,
      "duration": 0.0162,
      "velocity": 101,
      "chip": "ym2612"
    },
    {
      "channel": 3,
      "note": 99,
      "start": 70.8113,
      "duration": 0.0161,
      "velocity": 101,
      "chip": "ym2612"
    },
    {
      "channel": 2,
      "note": 54,
      "start": 70.8124,
      "duration": 0.0161,
      "velocity": 100,
      "chip": "ym2612"
    },
    {
      "channel": 1,
      "note": 68,
      "start": 70.8222,
      "duration": 0.0178,
      "velocity": 116,
      "chip": "ym2612"
    },
    {
      "channel": 0,
      "note": 38,
      "start": 70.8238,
      "duration": 0.0179,
      "velocity": 115,
      "chip": "ym2612"
    },
    {
      "channel": 5,
      "note": 90,
      "start": 70.8251,
      "duration": 0.0179,
      "velocity": 101,
      "chip": "ym2612"
    },
    {
      "channel": 4,
      "note": 95,
      "start": 70.8263,
      "duration": 0.0179,
      "velocity": 101,
      "chip": "ym2612"
    },
    {
      "channel": 3,
      "note": 99,
      "start": 70.8274,
      "duration": 0.0179,
      "velocity": 101,
      "chip": "ym2612"
    },
    {
      "channel": 2,
      "note": 54,
      "start": 70.8285,
      "duration": 0.0179,
      "velocity": 100,
      "chip": "ym2612"
    },
    {
      "channel": 1,
      "note": 68,
      "start": 70.8401,
      "duration": 0.0144,
      "velocity": 116,
      "chip": "ym2612"
    },
    {
      "channel": 0,
      "note": 39,
      "start": 70.8418,
      "duration": 0.0144,
      "velocity": 115,
      "chip": "ym2612"
    },
    {
      "channel": 5,
      "note": 90,
      "start": 70.8429,
      "duration": 0.0144,
      "velocity": 101,
      "chip": "ym2612"
    },
    {
      "channel": 4,
      "note": 95,
      "start": 70.8441,
      "duration": 0.0144,
      "velocity": 101,
      "chip": "ym2612"
    },
    {
      "channel": 3,
      "note": 99,
      "start": 70.8453,
      "duration": 0.0144,
      "velocity": 101,
      "chip": "ym2612"
    },
    {
      "channel": 2,
      "note": 54,
      "start": 70.8465,
      "duration": 0.0144,
      "velocity": 100,
      "chip": "ym2612"
    },
    {
      "channel": 1,
      "note": 68,
      "start": 70.8544,
      "duration": 0.016,
      "velocity": 116,
      "chip": "ym2612"
    },
    {
      "channel": 0,
      "note": 39,
      "start": 70.8561,
      "duration": 0.016,
      "velocity": 115,
      "chip": "ym2612"
    },
    {
      "channel": 5,
      "note": 90,
      "start": 70.8573,
      "duration": 0.016,
      "velocity": 101,
      "chip": "ym2612"
    },
    {
      "channel": 4,
      "note": 95,
      "start": 70.8585,
      "duration": 0.016,
      "velocity": 101,
      "chip": "ym2612"
    },
    {
      "channel": 3,
      "note": 99,
      "start": 70.8597,
      "duration": 0.016,
      "velocity": 101,
      "chip": "ym2612"
    },
    {
      "channel": 2,
      "note": 54,
      "start": 70.8609,
      "duration": 0.016,
      "velocity": 100,
      "chip": "ym2612"
    },
    {
      "channel": 1,
      "note": 68,
      "start": 70.8705,
      "duration": 0.0161,
      "velocity": 116,
      "chip": "ym2612"
    },
    {
      "channel": 0,
      "note": 40,
      "start": 70.8722,
      "duration": 0.0162,
      "velocity": 115,
      "chip": "ym2612"
    },
    {
      "channel": 5,
      "note": 90,
      "start": 70.8733,
      "duration": 0.0162,
      "velocity": 101,
      "chip": "ym2612"
    },
    {
      "channel": 4,
      "note": 95,
      "start": 70.8745,
      "duration": 0.0162,
      "velocity": 101,
      "chip": "ym2612"
    },
    {
      "channel": 3,
      "note": 99,
      "start": 70.8757,
      "duration": 0.0162,
      "velocity": 101,
      "chip": "ym2612"
    },
    {
      "channel": 2,
      "note": 54,
      "start": 70.8769,
      "duration": 0.0162,
      "velocity": 100,
      "chip": "ym2612"
    },
    {
      "channel": 1,
      "note": 68,
      "start": 70.8866,
      "duration": 0.0162,
      "velocity": 116,
      "chip": "ym2612"
    },
    {
      "channel": 0,
      "note": 40,
      "start": 70.8883,
      "duration": 0.0162,
      "velocity": 115,
      "chip": "ym2612"
    },
    {
      "channel": 5,
      "note": 90,
      "start": 70.8895,
      "duration": 0.0162,
      "velocity": 101,
      "chip": "ym2612"
    },
    {
      "channel": 4,
      "note": 95,
      "start": 70.8907,
      "duration": 0.0162,
      "velocity": 101,
      "chip": "ym2612"
    },
    {
      "channel": 3,
      "note": 99,
      "start": 70.8919,
      "duration": 0.0162,
      "velocity": 101,
      "chip": "ym2612"
    },
    {
      "channel": 2,
      "note": 54,
      "start": 70.8931,
      "duration": 0.0161,
      "velocity": 100,
      "chip": "ym2612"
    },
    {
      "channel": 1,
      "note": 68,
      "start": 70.9029,
      "duration": 0.0163,
      "velocity": 116,
      "chip": "ym2612"
    },
    {
      "channel": 0,
      "note": 40,
      "start": 70.9045,
      "duration": 0.0163,
      "velocity": 115,
      "chip": "ym2612"
    },
    {
      "channel": 5,
      "note": 90,
      "start": 70.9057,
      "duration": 0.0163,
      "velocity": 101,
      "chip": "ym2612"
    },
    {
      "channel": 4,
      "note": 95,
      "start": 70.9069,
      "duration": 0.0163,
      "velocity": 101,
      "chip": "ym2612"
    },
    {
      "channel": 3,
      "note": 99,
      "start": 70.9081,
      "duration": 0.0163,
      "velocity": 101,
      "chip": "ym2612"
    },
    {
      "channel": 2,
      "note": 54,
      "start": 70.9092,
      "duration": 0.0163,
      "velocity": 100,
      "chip": "ym2612"
    },
    {
      "channel": 1,
      "note": 68,
      "start": 70.9191,
      "duration": 0.0163,
      "velocity": 116,
      "chip": "ym2612"
    },
    {
      "channel": 0,
      "note": 41,
      "start": 70.9208,
      "duration": 0.0163,
      "velocity": 115,
      "chip": "ym2612"
    },
    {
      "channel": 5,
      "note": 90,
      "start": 70.9221,
      "duration": 0.0163,
      "velocity": 101,
      "chip": "ym2612"
    },
    {
      "channel": 4,
      "note": 95,
      "start": 70.9232,
      "duration": 0.0163,
      "velocity": 101,
      "chip": "ym2612"
    },
    {
      "channel": 3,
      "note": 99,
      "start": 70.9244,
      "duration": 0.0163,
      "velocity": 101,
      "chip": "ym2612"
    },
    {
      "channel": 2,
      "note": 54,
      "start": 70.9256,
      "duration": 0.0163,
      "velocity": 100,
      "chip": "ym2612"
    },
    {
      "channel": 1,
      "note": 68,
      "start": 70.9355,
      "duration": 0.0178,
      "velocity": 105,
      "chip": "ym2612"
    },
    {
      "channel": 0,
      "note": 41,
      "start": 70.9372,
      "duration": 0.0178,
      "velocity": 115,
      "chip": "ym2612"
    },
    {
      "channel": 5,
      "note": 90,
      "start": 70.9383,
      "duration": 0.0179,
      "velocity": 101,
      "chip": "ym2612"
    },
    {
      "channel": 4,
      "note": 95,
      "start": 70.9395,
      "duration": 0.0179,
      "velocity": 101,
      "chip": "ym2612"
    },
    {
      "channel": 3,
      "note": 99,
      "start": 70.9407,
      "duration": 0.0179,
      "velocity": 101,
      "chip": "ym2612"
    },
    {
      "channel": 2,
      "note": 54,
      "start": 70.9418,
      "duration": 0.0183,
      "velocity": 100,
      "chip": "ym2612"
    },
    {
      "channel": 1,
      "note": 105,
      "start": 70.9533,
      "duration": 0.0141,
      "velocity": 105,
      "chip": "ym2612"
    },
    {
      "channel": 0,
      "note": 42,
      "start": 70.955,
      "duration": 0.0144,
      "velocity": 115,
      "chip": "ym2612"
    },
    {
      "channel": 5,
      "note": 90,
      "start": 70.9562,
      "duration": 0.0144,
      "velocity": 101,
      "chip": "ym2612"
    },
    {
      "channel": 4,
      "note": 95,
      "start": 70.9574,
      "duration": 0.0144,
      "velocity": 101,
      "chip": "ym2612"
    },
    {
      "channel": 3,
      "note": 99,
      "start": 70.9586,
      "duration": 0.0144,
      "velocity": 101,
      "chip": "ym2612"
    },
    {
      "channel": 2,
      "note": 66,
      "start": 70.9602,
      "duration": 0.0141,
      "velocity": 100,
      "chip": "ym2612"
    },
    {
      "channel": 1,
      "note": 105,
      "start": 70.9673,
      "duration": 0.0159,
      "velocity": 105,
      "chip": "ym2612"
    },
    {
      "channel": 0,
      "note": 42,
      "start": 70.9695,
      "duration": 0.016,
      "velocity": 115,
      "chip": "ym2612"
    },
    {
      "channel": 5,
      "note": 90,
      "start": 70.9706,
      "duration": 0.0161,
      "velocity": 101,
      "chip": "ym2612"
    },
    {
      "channel": 4,
      "note": 95,
      "start": 70.9718,
      "duration": 0.0161,
      "velocity": 101,
      "chip": "ym2612"
    },
    {
      "channel": 3,
      "note": 99,
      "start": 70.973,
      "duration": 0.0161,
      "velocity": 101,
      "chip": "ym2612"
    },
    {
      "channel": 2,
      "note": 66,
      "start": 70.9742,
      "duration": 0.016,
      "velocity": 100,
      "chip": "ym2612"
    },
    {
      "channel": 1,
      "note": 105,
      "start": 70.9832,
      "duration": 0.0161,
      "velocity": 105,
      "chip": "ym2612"
    },
    {
      "channel": 0,
      "note": 43,
      "start": 70.9855,
      "duration": 0.016,
      "velocity": 115,
      "chip": "ym2612"
    },
    {
      "channel": 5,
      "note": 90,
      "start": 70.9867,
      "duration": 0.0161,
      "velocity": 101,
      "chip": "ym2612"
    },
    {
      "channel": 4,
      "note": 95,
      "start": 70.9879,
      "duration": 0.0161,
      "velocity": 101,
      "chip": "ym2612"
    },
    {
      "channel": 3,
      "note": 99,
      "start": 70.9891,
      "duration": 0.0161,
      "velocity": 101,
      "chip": "ym2612"
    },
    {
      "channel": 2,
      "note": 66,
      "start": 70.9902,
      "duration": 0.0161,
      "velocity": 100,
      "chip": "ym2612"
    },
    {
      "channel": 1,
      "note": 105,
      "start": 70.9993,
      "duration": 0.0161,
      "velocity": 105,
      "chip": "ym2612"
    },
    {
      "channel": 0,
      "note": 43,
      "start": 71.0015,
      "duration": 0.0156,
      "velocity": 115,
      "chip": "ym2612"
    },
    {
      "channel": 5,
      "note": 90,
      "start": 71.0028,
      "duration": 0.0161,
      "velocity": 101,
      "chip": "ym2612"
    },
    {
      "channel": 4,
      "note": 95,
      "start": 71.004,
      "duration": 0.0161,
      "velocity": 101,
      "chip": "ym2612"
    },
    {
      "channel": 3,
      "note": 99,
      "start": 71.0052,
      "duration": 0.0161,
      "velocity": 101,
      "chip": "ym2612"
    },
    {
      "channel": 2,
      "note": 66,
      "start": 71.0063,
      "duration": 0.0161,
      "velocity": 100,
      "chip": "ym2612"
    },
    {
      "channel": 1,
      "note": 105,
      "start": 71.0154,
      "duration": 0.0161,
      "velocity": 105,
      "chip": "ym2612"
    },
    {
      "channel": 0,
      "note": 44,
      "start": 71.0171,
      "duration": 0.0161,
      "velocity": 115,
      "chip": "ym2612"
    },
    {
      "channel": 5,
      "note": 90,
      "start": 71.0189,
      "duration": 0.016,
      "velocity": 101,
      "chip": "ym2612"
    },
    {
      "channel": 4,
      "note": 95,
      "start": 71.0201,
      "duration": 0.0161,
      "velocity": 101,
      "chip": "ym2612"
    },
    {
      "channel": 3,
      "note": 99,
      "start": 71.0213,
      "duration": 0.0161,
      "velocity": 101,
      "chip": "ym2612"
    },
    {
      "channel": 2,
      "note": 66,
      "start": 71.0224,
      "duration": 0.0161,
      "velocity": 100,
      "chip": "ym2612"
    },
    {
      "channel": 1,
      "note": 105,
      "start": 71.0315,
      "duration": 0.0161,
      "velocity": 105,
      "chip": "ym2612"
    },
    {
      "channel": 0,
      "note": 44,
      "start": 71.0332,
      "duration": 0.0161,
      "velocity": 115,
      "chip": "ym2612"
    },
    {
      "channel": 5,
      "note": 90,
      "start": 71.0349,
      "duration": 0.0158,
      "velocity": 101,
      "chip": "ym2612"
    },
    {
      "channel": 4,
      "note": 95,
      "start": 71.0362,
      "duration": 0.0161,
      "velocity": 101,
      "chip": "ym2612"
    },
    {
      "channel": 3,
      "note": 99,
      "start": 71.0374,
      "duration": 0.0161,
      "velocity": 101,
      "chip": "ym2612"
    },
    {
      "channel": 2,
      "note": 66,
      "start": 71.0385,
      "duration": 0.0162,
      "velocity": 100,
      "chip": "ym2612"
    },
    {
      "channel": 1,
      "note": 105,
      "start": 71.0476,
      "duration": 0.0161,
      "velocity": 105,
      "chip": "ym2612"
    },
    {
      "channel": 0,
      "note": 44,
      "start": 71.0493,
      "duration": 0.0161,
      "velocity": 115,
      "chip": "ym2612"
    },
    {
      "channel": 5,
      "note": 90,
      "start": 71.0507,
      "duration": 0.016,
      "velocity": 101,
      "chip": "ym2612"
    },
    {
      "channel": 4,
      "note": 95,
      "start": 71.0523,
      "duration": 0.0162,
      "velocity": 101,
      "chip": "ym2612"
    },
    {
      "channel": 3,
      "note": 99,
      "start": 71.0535,
      "duration": 0.0163,
      "velocity": 101,
      "chip": "ym2612"
    },
    {
      "channel": 2,
      "note": 66,
      "start": 71.0547,
      "duration": 0.0163,
      "velocity": 100,
      "chip": "ym2612"
    },
    {
      "channel": 1,
      "note": 105,
      "start": 71.0637,
      "duration": 0.0161,
      "velocity": 105,
      "chip": "ym2612"
    },
    {
      "channel": 0,
      "note": 45,
      "start": 71.0654,
      "duration": 0.0161,
      "velocity": 115,
      "chip": "ym2612"
    },
    {
      "channel": 5,
      "note": 90,
      "start": 71.0666,
      "duration": 0.0161,
      "velocity": 101,
      "chip": "ym2612"
    },
    {
      "channel": 4,
      "note": 95,
      "start": 71.0685,
      "duration": 0.0157,
      "velocity": 101,
      "chip": "ym2612"
    },
    {
      "channel": 3,
      "note": 99,
      "start": 71.0698,
      "duration": 0.0161,
      "velocity": 101,
      "chip": "ym2612"
    },
    {
      "channel": 2,
      "note": 66,
      "start": 71.071,
      "duration": 0.0161,
      "velocity": 100,
      "chip": "ym2612"
    },
    {
      "channel": 1,
      "note": 105,
      "start": 71.0798,
      "duration": 0.0161,
      "velocity": 105,
      "chip": "ym2612"
    },
    {
      "channel": 0,
      "note": 45,
      "start": 71.0815,
      "duration": 0.0161,
      "velocity": 115,
      "chip": "ym2612"
    },
    {
      "channel": 5,
      "note": 90,
      "start": 71.0827,
      "duration": 0.0161,
      "velocity": 101,
      "chip": "ym2612"
    },
    {
      "channel": 4,
      "note": 95,
      "start": 71.0842,
      "duration": 0.0159,
      "velocity": 101,
      "chip": "ym2612"
    },
    {
      "channel": 3,
      "note": 99,
      "start": 71.0859,
      "duration": 0.016,
      "velocity": 101,
      "chip": "ym2612"
    },
    {
      "channel": 2,
      "note": 66,
      "start": 71.0871,
      "duration": 0.016,
      "velocity": 100,
      "chip": "ym2612"
    },
    {
      "channel": 1,
      "note": 105,
      "start": 71.0959,
      "duration": 0.0161,
      "velocity": 105,
      "chip": "ym2612"
    },
    {
      "channel": 0,
      "note": 46,
      "start": 71.0976,
      "duration": 0.0161,
      "velocity": 115,
      "chip": "ym2612"
    },
    {
      "channel": 2,
      "note": 66,
      "start": 71.1031,
      "duration": 0.0161,
      "velocity": 100,
      "chip": "ym2612"
    },
    {
      "channel": 1,
      "note": 105,
      "start": 71.112,
      "duration": 0.0161,
      "velocity": 105,
      "chip": "ym2612"
    },
    {
      "channel": 0,
      "note": 46,
      "start": 71.1137,
      "duration": 0.0161,
      "velocity": 115,
      "chip": "ym2612"
    },
    {
      "channel": 2,
      "note": 66,
      "start": 71.1192,
      "duration": 0.0162,
      "velocity": 100,
      "chip": "ym2612"
    },
    {
      "channel": 1,
      "note": 105,
      "start": 71.1281,
      "duration": 0.0161,
      "velocity": 105,
      "chip": "ym2612"
    },
    {
      "channel": 0,
      "note": 47,
      "start": 71.1298,
      "duration": 0.0161,
      "velocity": 115,
      "chip": "ym2612"
    },
    {
      "channel": 2,
      "note": 66,
      "start": 71.1354,
      "duration": 0.0154,
      "velocity": 100,
      "chip": "ym2612"
    },
    {
      "channel": 1,
      "note": 105,
      "start": 71.1442,
      "duration": 0.0178,
      "velocity": 116,
      "chip": "ym2612"
    },
    {
      "channel": 0,
      "note": 47,
      "start": 71.1459,
      "duration": 0.0197,
      "velocity": 115,
      "chip": "ym2612"
    },
    {
      "channel": 2,
      "note": 66,
      "start": 71.1508,
      "duration": 0.0214,
      "velocity": 100,
      "chip": "ym2612"
    },
    {
      "channel": 1,
      "note": 68,
      "start": 71.1621,
      "duration": 0.0144,
      "velocity": 116,
      "chip": "ym2612"
    },
    {
      "channel": 0,
      "note": 36,
      "start": 71.1656,
      "duration": 0.0126,
      "velocity": 115,
      "chip": "ym2612"
    },
    {
      "channel": 5,
      "note": 90,
      "start": 71.1671,
      "duration": 0.0124,
      "velocity": 101,
      "chip": "ym2612"
    },
    {
      "channel": 4,
      "note": 94,
      "start": 71.1691,
      "duration": 0.0116,
      "velocity": 101,
      "chip": "ym2612"
    },
    {
      "channel": 3,
      "note": 97,
      "start": 71.1707,
      "duration": 0.0113,
      "velocity": 101,
      "chip": "ym2612"
    },
    {
      "channel": 2,
      "note": 54,
      "start": 71.1722,
      "duration": 0.011,
      "velocity": 100,
      "chip": "ym2612"
    },
    {
      "channel": 1,
      "note": 68,
      "start": 71.1764,
      "duration": 0.016,
      "velocity": 116,
      "chip": "ym2612"
    },
    {
      "channel": 0,
      "note": 36,
      "start": 71.1782,
      "duration": 0.016,
      "velocity": 115,
      "chip": "ym2612"
    },
    {
      "channel": 5,
      "note": 90,
      "start": 71.1795,
      "duration": 0.0159,
      "velocity": 101,
      "chip": "ym2612"
    },
    {
      "channel": 4,
      "note": 94,
      "start": 71.1807,
      "duration": 0.0159,
      "velocity": 101,
      "chip": "ym2612"
    },
    {
      "channel": 3,
      "note": 97,
      "start": 71.182,
      "duration": 0.0158,
      "velocity": 101,
      "chip": "ym2612"
    },
    {
      "channel": 2,
      "note": 54,
      "start": 71.1832,
      "duration": 0.0157,
      "velocity": 100,
      "chip": "ym2612"
    },
    {
      "channel": 1,
      "note": 68,
      "start": 71.1925,
      "duration": 0.0161,
      "velocity": 116,
      "chip": "ym2612"
    },
    {
      "channel": 0,
      "note": 37,
      "start": 71.1942,
      "duration": 0.0161,
      "velocity": 115,
      "chip": "ym2612"
    },
    {
      "channel": 5,
      "note": 90,
      "start": 71.1954,
      "duration": 0.0161,
      "velocity": 101,
      "chip": "ym2612"
    },
    {
      "channel": 4,
      "note": 94,
      "start": 71.1966,
      "duration": 0.0161,
      "velocity": 101,
      "chip": "ym2612"
    },
    {
      "channel": 3,
      "note": 97,
      "start": 71.1978,
      "duration": 0.0161,
      "velocity": 101,
      "chip": "ym2612"
    },
    {
      "channel": 2,
      "note": 54,
      "start": 71.1989,
      "duration": 0.0161,
      "velocity": 100,
      "chip": "ym2612"
    },
    {
      "channel": 1,
      "note": 68,
      "start": 71.2086,
      "duration": 0.0161,
      "velocity": 116,
      "chip": "ym2612"
    },
    {
      "channel": 0,
      "note": 37,
      "start": 71.2103,
      "duration": 0.0161,
      "velocity": 115,
      "chip": "ym2612"
    },
    {
      "channel": 5,
      "note": 90,
      "start": 71.2115,
      "duration": 0.0161,
      "velocity": 101,
      "chip": "ym2612"
    },
    {
      "channel": 4,
      "note": 94,
      "start": 71.2127,
      "duration": 0.0161,
      "velocity": 101,
      "chip": "ym2612"
    },
    {
      "channel": 3,
      "note": 97,
      "start": 71.2139,
      "duration": 0.0161,
      "velocity": 101,
      "chip": "ym2612"
    },
    {
      "channel": 2,
      "note": 54,
      "start": 71.215,
      "duration": 0.0161,
      "velocity": 100,
      "chip": "ym2612"
    },
    {
      "channel": 1,
      "note": 68,
      "start": 71.2247,
      "duration": 0.0161,
      "velocity": 116,
      "chip": "ym2612"
    },
    {
      "channel": 0,
      "note": 38,
      "start": 71.2264,
      "duration": 0.0161,
      "velocity": 115,
      "chip": "ym2612"
    },
    {
      "channel": 5,
      "note": 90,
      "start": 71.2276,
      "duration": 0.0161,
      "velocity": 101,
      "chip": "ym2612"
    },
    {
      "channel": 4,
      "note": 94,
      "start": 71.2287,
      "duration": 0.0161,
      "velocity": 101,
      "chip": "ym2612"
    },
    {
      "channel": 3,
      "note": 97,
      "start": 71.23,
      "duration": 0.0161,
      "velocity": 101,
      "chip": "ym2612"
    },
    {
      "channel": 2,
      "note": 54,
      "start": 71.2311,
      "duration": 0.0161,
      "velocity": 100,
      "chip": "ym2612"
    },
    {
      "channel": 1,
      "note": 68,
      "start": 71.2408,
      "duration": 0.0179,
      "velocity": 116,
      "chip": "ym2612"
    },
    {
      "channel": 0,
      "note": 38,
      "start": 71.2425,
      "duration": 0.0179,
      "velocity": 115,
      "chip": "ym2612"
    },
    {
      "channel": 5,
      "note": 90,
      "start": 71.2437,
      "duration": 0.0179,
      "velocity": 101,
      "chip": "ym2612"
    },
    {
      "channel": 4,
      "note": 94,
      "start": 71.2448,
      "duration": 0.0179,
      "velocity": 101,
      "chip": "ym2612"
    },
    {
      "channel": 3,
      "note": 97,
      "start": 71.246,
      "duration": 0.0179,
      "velocity": 101,
      "chip": "ym2612"
    },
    {
      "channel": 2,
      "note": 54,
      "start": 71.2472,
      "duration": 0.0179,
      "velocity": 100,
      "chip": "ym2612"
    },
    {
      "channel": 1,
      "note": 68,
      "start": 71.2587,
      "duration": 0.0144,
      "velocity": 116,
      "chip": "ym2612"
    },
    {
      "channel": 0,
      "note": 39,
      "start": 71.2604,
      "duration": 0.0143,
      "velocity": 115,
      "chip": "ym2612"
    },
    {
      "channel": 5,
      "note": 90,
      "start": 71.2616,
      "duration": 0.0144,
      "velocity": 101,
      "chip": "ym2612"
    },
    {
      "channel": 4,
      "note": 94,
      "start": 71.2628,
      "duration": 0.0144,
      "velocity": 101,
      "chip": "ym2612"
    },
    {
      "channel": 3,
      "note": 97,
      "start": 71.2639,
      "duration": 0.0144,
      "velocity": 101,
      "chip": "ym2612"
    },
    {
      "channel": 2,
      "note": 54,
      "start": 71.2651,
      "duration": 0.0143,
      "velocity": 100,
      "chip": "ym2612"
    },
    {
      "channel": 1,
      "note": 68,
      "start": 71.2731,
      "duration": 0.016,
      "velocity": 116,
      "chip": "ym2612"
    },
    {
      "channel": 0,
      "note": 39,
      "start": 71.2747,
      "duration": 0.0161,
      "velocity": 115,
      "chip": "ym2612"
    },
    {
      "channel": 5,
      "note": 90,
      "start": 71.2759,
      "duration": 0.016,
      "velocity": 101,
      "chip": "ym2612"
    },
    {
      "channel": 4,
      "note": 94,
      "start": 71.2771,
      "duration": 0.016,
      "velocity": 101,
      "chip": "ym2612"
    },
    {
      "channel": 3,
      "note": 97,
      "start": 71.2783,
      "duration": 0.016,
      "velocity": 101,
      "chip": "ym2612"
    },
    {
      "channel": 2,
      "note": 54,
      "start": 71.2794,
      "duration": 0.0161,
      "velocity": 100,
      "chip": "ym2612"
    },
    {
      "channel": 1,
      "note": 68,
      "start": 71.2891,
      "duration": 0.0161,
      "velocity": 116,
      "chip": "ym2612"
    },
    {
      "channel": 0,
      "note": 40,
      "start": 71.2908,
      "duration": 0.0161,
      "velocity": 115,
      "chip": "ym2612"
    },
    {
      "channel": 5,
      "note": 90,
      "start": 71.292,
      "duration": 0.0161,
      "velocity": 101,
      "chip": "ym2612"
    },
    {
      "channel": 4,
      "note": 94,
      "start": 71.2932,
      "duration": 0.0161,
      "velocity": 101,
      "chip": "ym2612"
    },
    {
      "channel": 3,
      "note": 97,
      "start": 71.2943,
      "duration": 0.0161,
      "velocity": 101,
      "chip": "ym2612"
    },
    {
      "channel": 2,
      "note": 54,
      "start": 71.2955,
      "duration": 0.0161,
      "velocity": 100,
      "chip": "ym2612"
    },
    {
      "channel": 1,
      "note": 68,
      "start": 71.3052,
      "duration": 0.0161,
      "velocity": 116,
      "chip": "ym2612"
    },
    {
      "channel": 0,
      "note": 40,
      "start": 71.3069,
      "duration": 0.0161,
      "velocity": 115,
      "chip": "ym2612"
    },
    {
      "channel": 5,
      "note": 90,
      "start": 71.3081,
      "duration": 0.0161,
      "velocity": 101,
      "chip": "ym2612"
    },
    {
      "channel": 4,
      "note": 94,
      "start": 71.3093,
      "duration": 0.0161,
      "velocity": 101,
      "chip": "ym2612"
    },
    {
      "channel": 3,
      "note": 97,
      "start": 71.3104,
      "duration": 0.0161,
      "velocity": 101,
      "chip": "ym2612"
    },
    {
      "channel": 2,
      "note": 54,
      "start": 71.3116,
      "duration": 0.0161,
      "velocity": 100,
      "chip": "ym2612"
    },
    {
      "channel": 1,
      "note": 68,
      "start": 71.3213,
      "duration": 0.0161,
      "velocity": 116,
      "chip": "ym2612"
    },
    {
      "channel": 0,
      "note": 40,
      "start": 71.323,
      "duration": 0.0161,
      "velocity": 115,
      "chip": "ym2612"
    },
    {
      "channel": 5,
      "note": 90,
      "start": 71.3241,
      "duration": 0.0162,
      "velocity": 101,
      "chip": "ym2612"
    },
    {
      "channel": 4,
      "note": 94,
      "start": 71.3254,
      "duration": 0.0161,
      "velocity": 101,
      "chip": "ym2612"
    },
    {
      "channel": 3,
      "note": 97,
      "start": 71.3265,
      "duration": 0.0162,
      "velocity": 101,
      "chip": "ym2612"
    },
    {
      "channel": 2,
      "note": 54,
      "start": 71.3277,
      "duration": 0.0161,
      "velocity": 100,
      "chip": "ym2612"
    },
    {
      "channel": 1,
      "note": 68,
      "start": 71.3374,
      "duration": 0.0161,
      "velocity": 116,
      "chip": "ym2612"
    },
    {
      "channel": 0,
      "note": 41,
      "start": 71.3391,
      "duration": 0.0161,
      "velocity": 115,
      "chip": "ym2612"
    },
    {
      "channel": 5,
      "note": 90,
      "start": 71.3403,
      "duration": 0.0161,
      "velocity": 101,
      "chip": "ym2612"
    },
    {
      "channel": 4,
      "note": 94,
      "start": 71.3415,
      "duration": 0.0161,
      "velocity": 101,
      "chip": "ym2612"
    },
    {
      "channel": 3,
      "note": 97,
      "start": 71.3427,
      "duration": 0.0161,
      "velocity": 101,
      "chip": "ym2612"
    },
    {
      "channel": 2,
      "note": 54,
      "start": 71.3438,
      "duration": 0.0161,
      "velocity": 100,
      "chip": "ym2612"
    },
    {
      "channel": 1,
      "note": 68,
      "start": 71.3535,
      "duration": 0.0179,
      "velocity": 105,
      "chip": "ym2612"
    },
    {
      "channel": 0,
      "note": 41,
      "start": 71.3552,
      "duration": 0.0179,
      "velocity": 115,
      "chip": "ym2612"
    },
    {
      "channel": 5,
      "note": 90,
      "start": 71.3564,
      "duration": 0.018,
      "velocity": 101,
      "chip": "ym2612"
    },
    {
      "channel": 4,
      "note": 94,
      "start": 71.3576,
      "duration": 0.0181,
      "velocity": 101,
      "chip": "ym2612"
    },
    {
      "channel": 3,
      "note": 97,
      "start": 71.3588,
      "duration": 0.0182,
      "velocity": 101,
      "chip": "ym2612"
    },
    {
      "channel": 2,
      "note": 54,
      "start": 71.3599,
      "duration": 0.0185,
      "velocity": 100,
      "chip": "ym2612"
    },
    {
      "channel": 1,
      "note": 105,
      "start": 71.3714,
      "duration": 0.0147,
      "velocity": 105,
      "chip": "ym2612"
    },
    {
      "channel": 0,
      "note": 42,
      "start": 71.3731,
      "duration": 0.0147,
      "velocity": 115,
      "chip": "ym2612"
    },
    {
      "channel": 5,
      "note": 90,
      "start": 71.3744,
      "duration": 0.0147,
      "velocity": 101,
      "chip": "ym2612"
    },
    {
      "channel": 4,
      "note": 94,
      "start": 71.3757,
      "duration": 0.0146,
      "velocity": 101,
      "chip": "ym2612"
    },
    {
      "channel": 3,
      "note": 97,
      "start": 71.377,
      "duration": 0.0146,
      "velocity": 101,
      "chip": "ym2612"
    },
    {
      "channel": 2,
      "note": 66,
      "start": 71.3785,
      "duration": 0.0143,
      "velocity": 100,
      "chip": "ym2612"
    },
    {
      "channel": 1,
      "note": 105,
      "start": 71.3861,
      "duration": 0.0163,
      "velocity": 105,
      "chip": "ym2612"
    },
    {
      "channel": 0,
      "note": 42,
      "start": 71.3878,
      "duration": 0.0162,
      "velocity": 115,
      "chip": "ym2612"
    },
    {
      "channel": 5,
      "note": 90,
      "start": 71.3891,
      "duration": 0.0162,
      "velocity": 101,
      "chip": "ym2612"
    },
    {
      "channel": 4,
      "note": 94,
      "start": 71.3903,
      "duration": 0.0163,
      "velocity": 101,
      "chip": "ym2612"
    },
    {
      "channel": 3,
      "note": 97,
      "start": 71.3916,
      "duration": 0.0163,
      "velocity": 101,
      "chip": "ym2612"
    },
    {
      "channel": 2,
      "note": 66,
      "start": 71.3928,
      "duration": 0.0162,
      "velocity": 100,
      "chip": "ym2612"
    },
    {
      "channel": 1,
      "note": 105,
      "start": 71.4024,
      "duration": 0.016,
      "velocity": 105,
      "chip": "ym2612"
    },
    {
      "channel": 0,
      "note": 43,
      "start": 71.4041,
      "duration": 0.0161,
      "velocity": 115,
      "chip": "ym2612"
    },
    {
      "channel": 2,
      "note": 66,
      "start": 71.409,
      "duration": 0.016,
      "velocity": 100,
      "chip": "ym2612"
    },
    {
      "channel": 1,
      "note": 105,
      "start": 71.4184,
      "duration": 0.0158,
      "velocity": 105,
      "chip": "ym2612"
    },
    {
      "channel": 0,
      "note": 43,
      "start": 71.4202,
      "duration": 0.0161,
      "velocity": 115,
      "chip": "ym2612"
    },
    {
      "channel": 2,
      "note": 66,
      "start": 71.4251,
      "duration": 0.0162,
      "velocity": 100,
      "chip": "ym2612"
    },
    {
      "channel": 1,
      "note": 105,
      "start": 71.4342,
      "duration": 0.0159,
      "velocity": 105,
      "chip": "ym2612"
    },
    {
      "channel": 0,
      "note": 44,
      "start": 71.4363,
      "duration": 0.0161,
      "velocity": 115,
      "chip": "ym2612"
    },
    {
      "channel": 2,
      "note": 66,
      "start": 71.4413,
      "duration": 0.0159,
      "velocity": 100,
      "chip": "ym2612"
    },
    {
      "channel": 1,
      "note": 105,
      "start": 71.4501,
      "duration": 0.0161,
      "velocity": 105,
      "chip": "ym2612"
    },
    {
      "channel": 0,
      "note": 44,
      "start": 71.4524,
      "duration": 0.016,
      "velocity": 115,
      "chip": "ym2612"
    },
    {
      "channel": 2,
      "note": 66,
      "start": 71.4572,
      "duration": 0.017,
      "velocity": 100,
      "chip": "ym2612"
    },
    {
      "channel": 1,
      "note": 105,
      "start": 71.4662,
      "duration": 0.0161,
      "velocity": 105,
      "chip": "ym2612"
    },
    {
      "channel": 0,
      "note": 44,
      "start": 71.4684,
      "duration": 0.0158,
      "velocity": 115,
      "chip": "ym2612"
    },
    {
      "channel": 5,
      "note": 90,
      "start": 71.47,
      "duration": 0.0159,
      "velocity": 101,
      "chip": "ym2612"
    },
    {
      "channel": 4,
      "note": 94,
      "start": 71.4714,
      "duration": 0.0156,
      "velocity": 101,
      "chip": "ym2612"
    },
    {
      "channel": 3,
      "note": 97,
      "start": 71.4729,
      "duration": 0.0154,
      "velocity": 101,
      "chip": "ym2612"
    },
    {
      "channel": 2,
      "note": 66,
      "start": 71.4741,
      "duration": 0.0154,
      "velocity": 100,
      "chip": "ym2612"
    },
    {
      "channel": 1,
      "note": 105,
      "start": 71.4823,
      "duration": 0.0161,
      "velocity": 105,
      "chip": "ym2612"
    },
    {
      "channel": 0,
      "note": 45,
      "start": 71.4842,
      "duration": 0.0159,
      "velocity": 115,
      "chip": "ym2612"
    },
    {
      "channel": 5,
      "note": 90,
      "start": 71.4859,
      "duration": 0.016,
      "velocity": 101,
      "chip": "ym2612"
    },
    {
      "channel": 4,
      "note": 94,
      "start": 71.4871,
      "duration": 0.016,
      "velocity": 101,
      "chip": "ym2612"
    },
    {
      "channel": 3,
      "note": 97,
      "start": 71.4883,
      "duration": 0.0159,
      "velocity": 101,
      "chip": "ym2612"
    },
    {
      "channel": 2,
      "note": 66,
      "start": 71.4895,
      "duration": 0.0159,
      "velocity": 100,
      "chip": "ym2612"
    },
    {
      "channel": 1,
      "note": 105,
      "start": 71.4984,
      "duration": 0.0161,
      "velocity": 105,
      "chip": "ym2612"
    },
    {
      "channel": 0,
      "note": 45,
      "start": 71.5001,
      "duration": 0.0161,
      "velocity": 115,
      "chip": "ym2612"
    },
    {
      "channel": 5,
      "note": 90,
      "start": 71.5018,
      "duration": 0.0158,
      "velocity": 101,
      "chip": "ym2612"
    },
    {
      "channel": 4,
      "note": 94,
      "start": 71.503,
      "duration": 0.0161,
      "velocity": 101,
      "chip": "ym2612"
    },
    {
      "channel": 3,
      "note": 97,
      "start": 71.5042,
      "duration": 0.0161,
      "velocity": 101,
      "chip": "ym2612"
    },
    {
      "channel": 2,
      "note": 66,
      "start": 71.5055,
      "duration": 0.016,
      "velocity": 100,
      "chip": "ym2612"
    },
    {
      "channel": 1,
      "note": 105,
      "start": 71.5145,
      "duration": 0.0161,
      "velocity": 105,
      "chip": "ym2612"
    },
    {
      "channel": 0,
      "note": 46,
      "start": 71.5162,
      "duration": 0.0161,
      "velocity": 115,
      "chip": "ym2612"
    },
    {
      "channel": 5,
      "note": 90,
      "start": 71.5176,
      "duration": 0.0159,
      "velocity": 101,
      "chip": "ym2612"
    },
    {
      "channel": 4,
      "note": 94,
      "start": 71.5191,
      "duration": 0.0161,
      "velocity": 101,
      "chip": "ym2612"
    },
    {
      "channel": 3,
      "note": 97,
      "start": 71.5203,
      "duration": 0.0161,
      "velocity": 101,
      "chip": "ym2612"
    },
    {
      "channel": 2,
      "note": 66,
      "start": 71.5215,
      "duration": 0.0161,
      "velocity": 100,
      "chip": "ym2612"
    },
    {
      "channel": 1,
      "note": 105,
      "start": 71.5306,
      "duration": 0.0161,
      "velocity": 105,
      "chip": "ym2612"
    },
    {
      "channel": 0,
      "note": 46,
      "start": 71.5323,
      "duration": 0.0161,
      "velocity": 115,
      "chip": "ym2612"
    },
    {
      "channel": 5,
      "note": 90,
      "start": 71.5335,
      "duration": 0.0161,
      "velocity": 101,
      "chip": "ym2612"
    },
    {
      "channel": 4,
      "note": 94,
      "start": 71.5352,
      "duration": 0.0158,
      "velocity": 101,
      "chip": "ym2612"
    },
    {
      "channel": 3,
      "note": 97,
      "start": 71.5364,
      "duration": 0.0161,
      "velocity": 101,
      "chip": "ym2612"
    },
    {
      "channel": 2,
      "note": 66,
      "start": 71.5376,
      "duration": 0.0163,
      "velocity": 100,
      "chip": "ym2612"
    },
    {
      "channel": 1,
      "note": 105,
      "start": 71.5467,
      "duration": 0.0162,
      "velocity": 105,
      "chip": "ym2612"
    },
    {
      "channel": 0,
      "note": 47,
      "start": 71.5484,
      "duration": 0.0161,
      "velocity": 115,
      "chip": "ym2612"
    },
    {
      "channel": 5,
      "note": 90,
      "start": 71.5496,
      "duration": 0.0161,
      "velocity": 101,
      "chip": "ym2612"
    },
    {
      "channel": 4,
      "note": 94,
      "start": 71.551,
      "duration": 0.0159,
      "velocity": 101,
      "chip": "ym2612"
    },
    {
      "channel": 3,
      "note": 97,
      "start": 71.5525,
      "duration": 0.0161,
      "velocity": 101,
      "chip": "ym2612"
    },
    {
      "channel": 2,
      "note": 66,
      "start": 71.5539,
      "duration": 0.016,
      "velocity": 100,
      "chip": "ym2612"
    },
    {
      "channel": 1,
      "note": 105,
      "start": 71.5628,
      "duration": 0.0178,
      "velocity": 116,
      "chip": "ym2612"
    },
    {
      "channel": 0,
      "note": 47,
      "start": 71.5645,
      "duration": 0.0202,
      "velocity": 115,
      "chip": "ym2612"
    },
    {
      "channel": 5,
      "note": 90,
      "start": 71.5657,
      "duration": 0.0204,
      "velocity": 101,
      "chip": "ym2612"
    },
    {
      "channel": 4,
      "note": 94,
      "start": 71.5669,
      "duration": 0.0205,
      "velocity": 101,
      "chip": "ym2612"
    },
    {
      "channel": 3,
      "note": 97,
      "start": 71.5687,
      "duration": 0.0199,
      "velocity": 101,
      "chip": "ym2612"
    },
    {
      "channel": 2,
      "note": 66,
      "start": 71.5698,
      "duration": 0.0203,
      "velocity": 100,
      "chip": "ym2612"
    },
    {
      "channel": 1,
      "note": 68,
      "start": 71.5807,
      "duration": 0.0144,
      "velocity": 116,
      "chip": "ym2612"
    },
    {
      "channel": 0,
      "note": 36,
      "start": 71.5848,
      "duration": 0.0121,
      "velocity": 115,
      "chip": "ym2612"
    },
    {
      "channel": 5,
      "note": 90,
      "start": 71.5861,
      "duration": 0.012,
      "velocity": 101,
      "chip": "ym2612"
    },
    {
      "channel": 4,
      "note": 94,
      "start": 71.5874,
      "duration": 0.0119,
      "velocity": 101,
      "chip": "ym2612"
    },
    {
      "channel": 3,
      "note": 97,
      "start": 71.5886,
      "duration": 0.0122,
      "velocity": 101,
      "chip": "ym2612"
    },
    {
      "channel": 2,
      "note": 54,
      "start": 71.5902,
      "duration": 0.0121,
      "velocity": 100,
      "chip": "ym2612"
    },
    {
      "channel": 1,
      "note": 68,
      "start": 71.5951,
      "duration": 0.016,
      "velocity": 116,
      "chip": "ym2612"
    },
    {
      "channel": 0,
      "note": 36,
      "start": 71.5969,
      "duration": 0.016,
      "velocity": 115,
      "chip": "ym2612"
    },
    {
      "channel": 5,
      "note": 90,
      "start": 71.5981,
      "duration": 0.016,
      "velocity": 101,
      "chip": "ym2612"
    },
    {
      "channel": 4,
      "note": 94,
      "start": 71.5993,
      "duration": 0.016,
      "velocity": 101,
      "chip": "ym2612"
    },
    {
      "channel": 3,
      "note": 97,
      "start": 71.6007,
      "duration": 0.0158,
      "velocity": 101,
      "chip": "ym2612"
    },
    {
      "channel": 2,
      "note": 54,
      "start": 71.6023,
      "duration": 0.0159,
      "velocity": 100,
      "chip": "ym2612"
    },
    {
      "channel": 1,
      "note": 68,
      "start": 71.6111,
      "duration": 0.0161,
      "velocity": 116,
      "chip": "ym2612"
    },
    {
      "channel": 0,
      "note": 37,
      "start": 71.6128,
      "duration": 0.0161,
      "velocity": 115,
      "chip": "ym2612"
    },
    {
      "channel": 2,
      "note": 54,
      "start": 71.6182,
      "duration": 0.0155,
      "velocity": 100,
      "chip": "ym2612"
    },
    {
      "channel": 1,
      "note": 68,
      "start": 71.6272,
      "duration": 0.0161,
      "velocity": 116,
      "chip": "ym2612"
    },
    {
      "channel": 0,
      "note": 37,
      "start": 71.6289,
      "duration": 0.0161,
      "velocity": 115,
      "chip": "ym2612"
    },
    {
      "channel": 2,
      "note": 54,
      "start": 71.6338,
      "duration": 0.0162,
      "velocity": 100,
      "chip": "ym2612"
    },
    {
      "channel": 1,
      "note": 68,
      "start": 71.6433,
      "duration": 0.0161,
      "velocity": 116,
      "chip": "ym2612"
    },
    {
      "channel": 0,
      "note": 38,
      "start": 71.645,
      "duration": 0.0161,
      "velocity": 115,
      "chip": "ym2612"
    },
    {
      "channel": 2,
      "note": 54,
      "start": 71.6499,
      "duration": 0.0159,
      "velocity": 100,
      "chip": "ym2612"
    },
    {
      "channel": 1,
      "note": 68,
      "start": 71.6594,
      "duration": 0.0179,
      "velocity": 116,
      "chip": "ym2612"
    },
    {
      "channel": 0,
      "note": 38,
      "start": 71.6611,
      "duration": 0.0179,
      "velocity": 115,
      "chip": "ym2612"
    },
    {
      "channel": 2,
      "note": 54,
      "start": 71.6658,
      "duration": 0.0189,
      "velocity": 100,
      "chip": "ym2612"
    },
    {
      "channel": 1,
      "note": 68,
      "start": 71.6773,
      "duration": 0.0144,
      "velocity": 116,
      "chip": "ym2612"
    },
    {
      "channel": 0,
      "note": 39,
      "start": 71.679,
      "duration": 0.0144,
      "velocity": 115,
      "chip": "ym2612"
    },
    {
      "channel": 2,
      "note": 54,
      "start": 71.6847,
      "duration": 0.0134,
      "velocity": 100,
      "chip": "ym2612"
    },
    {
      "channel": 1,
      "note": 68,
      "start": 71.6917,
      "duration": 0.016,
      "velocity": 116,
      "chip": "ym2612"
    },
    {
      "channel": 0,
      "note": 39,
      "start": 71.6934,
      "duration": 0.016,
      "velocity": 115,
      "chip": "ym2612"
    },
    {
      "channel": 2,
      "note": 54,
      "start": 71.6981,
      "duration": 0.016,
      "velocity": 100,
      "chip": "ym2612"
    },
    {
      "channel": 1,
      "note": 68,
      "start": 71.7078,
      "duration": 0.0161,
      "velocity": 116,
      "chip": "ym2612"
    },
    {
      "channel": 0,
      "note": 40,
      "start": 71.7094,
      "duration": 0.0161,
      "velocity": 115,
      "chip": "ym2612"
    },
    {
      "channel": 2,
      "note": 54,
      "start": 71.7142,
      "duration": 0.0161,
      "velocity": 100,
      "chip": "ym2612"
    },
    {
      "channel": 1,
      "note": 68,
      "start": 71.7238,
      "duration": 0.0161,
      "velocity": 116,
      "chip": "ym2612"
    },
    {
      "channel": 0,
      "note": 40,
      "start": 71.7256,
      "duration": 0.0161,
      "velocity": 115,
      "chip": "ym2612"
    },
    {
      "channel": 2,
      "note": 54,
      "start": 71.7303,
      "duration": 0.0161,
      "velocity": 100,
      "chip": "ym2612"
    },
    {
      "channel": 1,
      "note": 68,
      "start": 71.7399,
      "duration": 0.0161,
      "velocity": 116,
      "chip": "ym2612"
    },
    {
      "channel": 0,
      "note": 40,
      "start": 71.7417,
      "duration": 0.0161,
      "velocity": 115,
      "chip": "ym2612"
    },
    {
      "channel": 2,
      "note": 54,
      "start": 71.7464,
      "duration": 0.0161,
      "velocity": 100,
      "chip": "ym2612"
    },
    {
      "channel": 1,
      "note": 68,
      "start": 71.756,
      "duration": 0.0161,
      "velocity": 116,
      "chip": "ym2612"
    },
    {
      "channel": 0,
      "note": 41,
      "start": 71.7578,
      "duration": 0.0161,
      "velocity": 115,
      "chip": "ym2612"
    },
    {
      "channel": 2,
      "note": 54,
      "start": 71.7625,
      "duration": 0.0163,
      "velocity": 100,
      "chip": "ym2612"
    },
    {
      "channel": 1,
      "note": 68,
      "start": 71.7721,
      "duration": 0.0178,
      "velocity": 105,
      "chip": "ym2612"
    },
    {
      "channel": 0,
      "note": 41,
      "start": 71.7738,
      "duration": 0.0179,
      "velocity": 115,
      "chip": "ym2612"
    },
    {
      "channel": 2,
      "note": 54,
      "start": 71.7788,
      "duration": 0.0189,
      "velocity": 100,
      "chip": "ym2612"
    },
    {
      "channel": 1,
      "note": 105,
      "start": 71.79,
      "duration": 0.0144,
      "velocity": 105,
      "chip": "ym2612"
    },
    {
      "channel": 0,
      "note": 42,
      "start": 71.7917,
      "duration": 0.0144,
      "velocity": 115,
      "chip": "ym2612"
    },
    {
      "channel": 5,
      "note": 88,
      "start": 71.7932,
      "duration": 0.0141,
      "velocity": 101,
      "chip": "ym2612"
    },
    {
      "channel": 4,
      "note": 92,
      "start": 71.7948,
      "duration": 0.0138,
      "velocity": 101,
      "chip": "ym2612"
    },
    {
      "channel": 3,
      "note": 95,
      "start": 71.7963,
      "duration": 0.0135,
      "velocity": 101,
      "chip": "ym2612"
    },
    {
      "channel": 2,
      "note": 66,
      "start": 71.7978,
      "duration": 0.0133,
      "velocity": 100,
      "chip": "ym2612"
    },
    {
      "channel": 1,
      "note": 105,
      "start": 71.8044,
      "duration": 0.016,
      "velocity": 105,
      "chip": "ym2612"
    },
    {
      "channel": 0,
      "note": 42,
      "start": 71.8061,
      "duration": 0.016,
      "velocity": 115,
      "chip": "ym2612"
    },
    {
      "channel": 5,
      "note": 88,
      "start": 71.8073,
      "duration": 0.016,
      "velocity": 101,
      "chip": "ym2612"
    },
    {
      "channel": 4,
      "note": 92,
      "start": 71.8086,
      "duration": 0.0159,
      "velocity": 101,
      "chip": "ym2612"
    },
    {
      "channel": 3,
      "note": 95,
      "start": 71.8098,
      "duration": 0.0159,
      "velocity": 101,
      "chip": "ym2612"
    },
    {
      "channel": 2,
      "note": 66,
      "start": 71.811,
      "duration": 0.0158,
      "velocity": 100,
      "chip": "ym2612"
    },
    {
      "channel": 1,
      "note": 105,
      "start": 71.8204,
      "duration": 0.0161,
      "velocity": 105,
      "chip": "ym2612"
    },
    {
      "channel": 0,
      "note": 43,
      "start": 71.8221,
      "duration": 0.0161,
      "velocity": 115,
      "chip": "ym2612"
    },
    {
      "channel": 5,
      "note": 88,
      "start": 71.8233,
      "duration": 0.0161,
      "velocity": 101,
      "chip": "ym2612"
    },
    {
      "channel": 4,
      "note": 92,
      "start": 71.8245,
      "duration": 0.0162,
      "velocity": 101,
      "chip": "ym2612"
    },
    {
      "channel": 3,
      "note": 95,
      "start": 71.8257,
      "duration": 0.0161,
      "velocity": 101,
      "chip": "ym2612"
    },
    {
      "channel": 2,
      "note": 66,
      "start": 71.8268,
      "duration": 0.0162,
      "velocity": 100,
      "chip": "ym2612"
    },
    {
      "channel": 1,
      "note": 105,
      "start": 71.8366,
      "duration": 0.0163,
      "velocity": 105,
      "chip": "ym2612"
    },
    {
      "channel": 0,
      "note": 43,
      "start": 71.8383,
      "duration": 0.0163,
      "velocity": 115,
      "chip": "ym2612"
    },
    {
      "channel": 5,
      "note": 88,
      "start": 71.8395,
      "duration": 0.0162,
      "velocity": 101,
      "chip": "ym2612"
    },
    {
      "channel": 4,
      "note": 92,
      "start": 71.8406,
      "duration": 0.0163,
      "velocity": 101,
      "chip": "ym2612"
    },
    {
      "channel": 3,
      "note": 95,
      "start": 71.8418,
      "duration": 0.0162,
      "velocity": 101,
      "chip": "ym2612"
    },
    {
      "channel": 2,
      "note": 66,
      "start": 71.843,
      "duration": 0.0163,
      "velocity": 100,
      "chip": "ym2612"
    },
    {
      "channel": 1,
      "note": 105,
      "start": 71.8529,
      "duration": 0.0163,
      "velocity": 105,
      "chip": "ym2612"
    },
    {
      "channel": 0,
      "note": 44,
      "start": 71.8546,
      "duration": 0.0163,
      "velocity": 115,
      "chip": "ym2612"
    },
    {
      "channel": 5,
      "note": 88,
      "start": 71.8557,
      "duration": 0.0163,
      "velocity": 101,
      "chip": "ym2612"
    },
    {
      "channel": 4,
      "note": 92,
      "start": 71.8569,
      "duration": 0.0163,
      "velocity": 101,
      "chip": "ym2612"
    },
    {
      "channel": 3,
      "note": 95,
      "start": 71.8581,
      "duration": 0.0163,
      "velocity": 101,
      "chip": "ym2612"
    },
    {
      "channel": 2,
      "note": 66,
      "start": 71.8593,
      "duration": 0.0163,
      "velocity": 100,
      "chip": "ym2612"
    },
    {
      "channel": 1,
      "note": 105,
      "start": 71.8692,
      "duration": 0.0162,
      "velocity": 105,
      "chip": "ym2612"
    },
    {
      "channel": 0,
      "note": 44,
      "start": 71.8708,
      "duration": 0.0163,
      "velocity": 115,
      "chip": "ym2612"
    },
    {
      "channel": 5,
      "note": 88,
      "start": 71.8721,
      "duration": 0.0162,
      "velocity": 101,
      "chip": "ym2612"
    },
    {
      "channel": 4,
      "note": 92,
      "start": 71.8733,
      "duration": 0.0162,
      "velocity": 101,
      "chip": "ym2612"
    },
    {
      "channel": 3,
      "note": 95,
      "start": 71.8744,
      "duration": 0.0162,
      "velocity": 101,
      "chip": "ym2612"
    },
    {
      "channel": 2,
      "note": 66,
      "start": 71.8756,
      "duration": 0.0163,
      "velocity": 100,
      "chip": "ym2612"
    },
    {
      "channel": 1,
      "note": 105,
      "start": 71.8854,
      "duration": 0.016,
      "velocity": 105,
      "chip": "ym2612"
    },
    {
      "channel": 0,
      "note": 44,
      "start": 71.8871,
      "duration": 0.0161,
      "velocity": 115,
      "chip": "ym2612"
    },
    {
      "channel": 5,
      "note": 88,
      "start": 71.8883,
      "duration": 0.0161,
      "velocity": 101,
      "chip": "ym2612"
    },
    {
      "channel": 4,
      "note": 92,
      "start": 71.8895,
      "duration": 0.0161,
      "velocity": 101,
      "chip": "ym2612"
    },
    {
      "channel": 3,
      "note": 95,
      "start": 71.8906,
      "duration": 0.0161,
      "velocity": 101,
      "chip": "ym2612"
    },
    {
      "channel": 2,
      "note": 66,
      "start": 71.8919,
      "duration": 0.016,
      "velocity": 100,
      "chip": "ym2612"
    },
    {
      "channel": 1,
      "note": 105,
      "start": 71.9015,
      "duration": 0.0156,
      "velocity": 105,
      "chip": "ym2612"
    },
    {
      "channel": 0,
      "note": 45,
      "start": 71.9032,
      "duration": 0.0161,
      "velocity": 115,
      "chip": "ym2612"
    },
    {
      "channel": 5,
      "note": 88,
      "start": 71.9044,
      "duration": 0.0161,
      "velocity": 101,
      "chip": "ym2612"
    },
    {
      "channel": 4,
      "note": 92,
      "start": 71.9056,
      "duration": 0.0161,
      "velocity": 101,
      "chip": "ym2612"
    },
    {
      "channel": 3,
      "note": 95,
      "start": 71.9067,
      "duration": 0.0161,
      "velocity": 101,
      "chip": "ym2612"
    },
    {
      "channel": 2,
      "note": 66,
      "start": 71.9079,
      "duration": 0.0162,
      "velocity": 100,
      "chip": "ym2612"
    },
    {
      "channel": 1,
      "note": 105,
      "start": 71.917,
      "duration": 0.0161,
      "velocity": 105,
      "chip": "ym2612"
    },
    {
      "channel": 0,
      "note": 45,
      "start": 71.9193,
      "duration": 0.016,
      "velocity": 115,
      "chip": "ym2612"
    },
    {
      "channel": 5,
      "note": 88,
      "start": 71.9205,
      "duration": 0.0161,
      "velocity": 101,
      "chip": "ym2612"
    },
    {
      "channel": 4,
      "note": 92,
      "start": 71.9217,
      "duration": 0.0162,
      "velocity": 101,
      "chip": "ym2612"
    },
    {
      "channel": 3,
      "note": 95,
      "start": 71.9229,
      "duration": 0.0161,
      "velocity": 101,
      "chip": "ym2612"
    },
    {
      "channel": 2,
      "note": 66,
      "start": 71.9241,
      "duration": 0.016,
      "velocity": 100,
      "chip": "ym2612"
    },
    {
      "channel": 1,
      "note": 105,
      "start": 71.9331,
      "duration": 0.0161,
      "velocity": 105,
      "chip": "ym2612"
    },
    {
      "channel": 0,
      "note": 46,
      "start": 71.9354,
      "duration": 0.0161,
      "velocity": 115,
      "chip": "ym2612"
    },
    {
      "channel": 5,
      "note": 88,
      "start": 71.9366,
      "duration": 0.0161,
      "velocity": 101,
      "chip": "ym2612"
    },
    {
      "channel": 4,
      "note": 92,
      "start": 71.9378,
      "duration": 0.016,
      "velocity": 101,
      "chip": "ym2612"
    },
    {
      "channel": 3,
      "note": 95,
      "start": 71.939,
      "duration": 0.0161,
      "velocity": 101,
      "chip": "ym2612"
    },
    {
      "channel": 2,
      "note": 66,
      "start": 71.9401,
      "duration": 0.0161,
      "velocity": 100,
      "chip": "ym2612"
    },
    {
      "channel": 1,
      "note": 105,
      "start": 71.9492,
      "duration": 0.0161,
      "velocity": 105,
      "chip": "ym2612"
    },
    {
      "channel": 0,
      "note": 46,
      "start": 71.9515,
      "duration": 0.0156,
      "velocity": 115,
      "chip": "ym2612"
    },
    {
      "channel": 5,
      "note": 88,
      "start": 71.9527,
      "duration": 0.0161,
      "velocity": 101,
      "chip": "ym2612"
    },
    {
      "channel": 4,
      "note": 92,
      "start": 71.9539,
      "duration": 0.0162,
      "velocity": 101,
      "chip": "ym2612"
    },
    {
      "channel": 3,
      "note": 95,
      "start": 71.9551,
      "duration": 0.0161,
      "velocity": 101,
      "chip": "ym2612"
    },
    {
      "channel": 2,
      "note": 66,
      "start": 71.9562,
      "duration": 0.0162,
      "velocity": 100,
      "chip": "ym2612"
    },
    {
      "channel": 1,
      "note": 105,
      "start": 71.9653,
      "duration": 0.0161,
      "velocity": 105,
      "chip": "ym2612"
    },
    {
      "channel": 0,
      "note": 47,
      "start": 71.967,
      "duration": 0.0161,
      "velocity": 115,
      "chip": "ym2612"
    },
    {
      "channel": 5,
      "note": 88,
      "start": 71.9688,
      "duration": 0.016,
      "velocity": 101,
      "chip": "ym2612"
    },
    {
      "channel": 4,
      "note": 92,
      "start": 71.97,
      "duration": 0.0161,
      "velocity": 101,
      "chip": "ym2612"
    },
    {
      "channel": 3,
      "note": 95,
      "start": 71.9712,
      "duration": 0.0161,
      "velocity": 101,
      "chip": "ym2612"
    },
    {
      "channel": 2,
      "note": 66,
      "start": 71.9724,
      "duration": 0.016,
      "velocity": 100,
      "chip": "ym2612"
    },
    {
      "channel": 1,
      "note": 105,
      "start": 71.9814,
      "duration": 0.0179,
      "velocity": 116,
      "chip": "ym2612"
    },
    {
      "channel": 0,
      "note": 47,
      "start": 71.9831,
      "duration": 0.0203,
      "velocity": 115,
      "chip": "ym2612"
    },
    {
      "channel": 5,
      "note": 88,
      "start": 71.9849,
      "duration": 0.0198,
      "velocity": 101,
      "chip": "ym2612"
    },
    {
      "channel": 4,
      "note": 92,
      "start": 71.9861,
      "duration": 0.0198,
      "velocity": 101,
      "chip": "ym2612"
    },
    {
      "channel": 3,
      "note": 95,
      "start": 71.9873,
      "duration": 0.0199,
      "velocity": 101,
      "chip": "ym2612"
    },
    {
      "channel": 2,
      "note": 66,
      "start": 71.9884,
      "duration": 0.0203,
      "velocity": 100,
      "chip": "ym2612"
    },
    {
      "channel": 1,
      "note": 68,
      "start": 71.9993,
      "duration": 0.0144,
      "velocity": 116,
      "chip": "ym2612"
    },
    {
      "channel": 0,
      "note": 36,
      "start": 72.0035,
      "duration": 0.012,
      "velocity": 115,
      "chip": "ym2612"
    },
    {
      "channel": 5,
      "note": 88,
      "start": 72.0047,
      "duration": 0.012,
      "velocity": 101,
      "chip": "ym2612"
    },
    {
      "channel": 4,
      "note": 92,
      "start": 72.0059,
      "duration": 0.0125,
      "velocity": 101,
      "chip": "ym2612"
    },
    {
      "channel": 3,
      "note": 95,
      "start": 72.0071,
      "duration": 0.0126,
      "velocity": 101,
      "chip": "ym2612"
    },
    {
      "channel": 2,
      "note": 54,
      "start": 72.0087,
      "duration": 0.0122,
      "velocity": 100,
      "chip": "ym2612"
    },
    {
      "channel": 1,
      "note": 68,
      "start": 72.0137,
      "duration": 0.016,
      "velocity": 116,
      "chip": "ym2612"
    },
    {
      "channel": 0,
      "note": 36,
      "start": 72.0155,
      "duration": 0.016,
      "velocity": 115,
      "chip": "ym2612"
    },
    {
      "channel": 5,
      "note": 88,
      "start": 72.0167,
      "duration": 0.016,
      "velocity": 101,
      "chip": "ym2612"
    },
    {
      "channel": 4,
      "note": 92,
      "start": 72.0184,
      "duration": 0.0156,
      "velocity": 101,
      "chip": "ym2612"
    },
    {
      "channel": 3,
      "note": 95,
      "start": 72.0197,
      "duration": 0.016,
      "velocity": 101,
      "chip": "ym2612"
    },
    {
      "channel": 2,
      "note": 54,
      "start": 72.0209,
      "duration": 0.0159,
      "velocity": 100,
      "chip": "ym2612"
    },
    {
      "channel": 1,
      "note": 68,
      "start": 72.0298,
      "duration": 0.0161,
      "velocity": 116,
      "chip": "ym2612"
    },
    {
      "channel": 0,
      "note": 37,
      "start": 72.0315,
      "duration": 0.0161,
      "velocity": 115,
      "chip": "ym2612"
    },
    {
      "channel": 5,
      "note": 88,
      "start": 72.0327,
      "duration": 0.0161,
      "velocity": 101,
      "chip": "ym2612"
    },
    {
      "channel": 4,
      "note": 92,
      "start": 72.0341,
      "duration": 0.0159,
      "velocity": 101,
      "chip": "ym2612"
    },
    {
      "channel": 3,
      "note": 95,
      "start": 72.0357,
      "duration": 0.016,
      "velocity": 101,
      "chip": "ym2612"
    },
    {
      "channel": 2,
      "note": 54,
      "start": 72.0368,
      "duration": 0.0161,
      "velocity": 100,
      "chip": "ym2612"
    },
    {
      "channel": 1,
      "note": 68,
      "start": 72.0459,
      "duration": 0.0161,
      "velocity": 116,
      "chip": "ym2612"
    },
    {
      "channel": 0,
      "note": 37,
      "start": 72.0476,
      "duration": 0.0161,
      "velocity": 115,
      "chip": "ym2612"
    },
    {
      "channel": 5,
      "note": 88,
      "start": 72.0488,
      "duration": 0.0161,
      "velocity": 101,
      "chip": "ym2612"
    },
    {
      "channel": 4,
      "note": 92,
      "start": 72.05,
      "duration": 0.0161,
      "velocity": 101,
      "chip": "ym2612"
    },
    {
      "channel": 3,
      "note": 95,
      "start": 72.0517,
      "duration": 0.0158,
      "velocity": 101,
      "chip": "ym2612"
    },
    {
      "channel": 2,
      "note": 54,
      "start": 72.0529,
      "duration": 0.016,
      "velocity": 100,
      "chip": "ym2612"
    },
    {
      "channel": 1,
      "note": 68,
      "start": 72.062,
      "duration": 0.0161,
      "velocity": 116,
      "chip": "ym2612"
    },
    {
      "channel": 0,
      "note": 38,
      "start": 72.0637,
      "duration": 0.0161,
      "velocity": 115,
      "chip": "ym2612"
    },
    {
      "channel": 5,
      "note": 88,
      "start": 72.0649,
      "duration": 0.0161,
      "velocity": 101,
      "chip": "ym2612"
    },
    {
      "channel": 4,
      "note": 92,
      "start": 72.0661,
      "duration": 0.0161,
      "velocity": 101,
      "chip": "ym2612"
    },
    {
      "channel": 3,
      "note": 95,
      "start": 72.0675,
      "duration": 0.0159,
      "velocity": 101,
      "chip": "ym2612"
    },
    {
      "channel": 2,
      "note": 54,
      "start": 72.0689,
      "duration": 0.0162,
      "velocity": 100,
      "chip": "ym2612"
    },
    {
      "channel": 1,
      "note": 68,
      "start": 72.078,
      "duration": 0.0179,
      "velocity": 116,
      "chip": "ym2612"
    },
    {
      "channel": 0,
      "note": 38,
      "start": 72.0798,
      "duration": 0.0179,
      "velocity": 115,
      "chip": "ym2612"
    },
    {
      "channel": 5,
      "note": 88,
      "start": 72.081,
      "duration": 0.0179,
      "velocity": 101,
      "chip": "ym2612"
    },
    {
      "channel": 4,
      "note": 92,
      "start": 72.0822,
      "duration": 0.0179,
      "velocity": 101,
      "chip": "ym2612"
    },
    {
      "channel": 3,
      "note": 95,
      "start": 72.0834,
      "duration": 0.0185,
      "velocity": 101,
      "chip": "ym2612"
    },
    {
      "channel": 2,
      "note": 54,
      "start": 72.0851,
      "duration": 0.0179,
      "velocity": 100,
      "chip": "ym2612"
    },
    {
      "channel": 1,
      "note": 68,
      "start": 72.0959,
      "duration": 0.0144,
      "velocity": 116,
      "chip": "ym2612"
    },
    {
      "channel": 0,
      "note": 39,
      "start": 72.0976,
      "duration": 0.0144,
      "velocity": 115,
      "chip": "ym2612"
    },
    {
      "channel": 5,
      "note": 88,
      "start": 72.0988,
      "duration": 0.0144,
      "velocity": 101,
      "chip": "ym2612"
    },
    {
      "channel": 4,
      "note": 92,
      "start": 72.1,
      "duration": 0.0146,
      "velocity": 101,
      "chip": "ym2612"
    },
    {
      "channel": 3,
      "note": 95,
      "start": 72.1018,
      "duration": 0.0141,
      "velocity": 101,
      "chip": "ym2612"
    },
    {
      "channel": 2,
      "note": 54,
      "start": 72.103,
      "duration": 0.014,
      "velocity": 100,
      "chip": "ym2612"
    },
    {
      "channel": 1,
      "note": 68,
      "start": 72.1103,
      "duration": 0.016,
      "velocity": 116,
      "chip": "ym2612"
    },
    {
      "channel": 0,
      "note": 39,
      "start": 72.112,
      "duration": 0.016,
      "velocity": 115,
      "chip": "ym2612"
    },
    {
      "channel": 5,
      "note": 88,
      "start": 72.1133,
      "duration": 0.016,
      "velocity": 101,
      "chip": "ym2612"
    },
    {
      "channel": 4,
      "note": 92,
      "start": 72.1146,
      "duration": 0.016,
      "velocity": 101,
      "chip": "ym2612"
    },
    {
      "channel": 3,
      "note": 95,
      "start": 72.1159,
      "duration": 0.016,
      "velocity": 101,
      "chip": "ym2612"
    },
    {
      "channel": 2,
      "note": 54,
      "start": 72.117,
      "duration": 0.016,
      "velocity": 100,
      "chip": "ym2612"
    },
    {
      "channel": 1,
      "note": 68,
      "start": 72.1263,
      "duration": 0.0161,
      "velocity": 116,
      "chip": "ym2612"
    },
    {
      "channel": 0,
      "note": 40,
      "start": 72.128,
      "duration": 0.0161,
      "velocity": 115,
      "chip": "ym2612"
    },
    {
      "channel": 5,
      "note": 88,
      "start": 72.1293,
      "duration": 0.0161,
      "velocity": 101,
      "chip": "ym2612"
    },
    {
      "channel": 4,
      "note": 92,
      "start": 72.1306,
      "duration": 0.0161,
      "velocity": 101,
      "chip": "ym2612"
    },
    {
      "channel": 3,
      "note": 95,
      "start": 72.1319,
      "duration": 0.0161,
      "velocity": 101,
      "chip": "ym2612"
    },
    {
      "channel": 2,
      "note": 54,
      "start": 72.133,
      "duration": 0.0161,
      "velocity": 100,
      "chip": "ym2612"
    },
    {
      "channel": 1,
      "note": 68,
      "start": 72.1424,
      "duration": 0.0162,
      "velocity": 116,
      "chip": "ym2612"
    },
    {
      "channel": 0,
      "note": 40,
      "start": 72.1441,
      "duration": 0.0161,
      "velocity": 115,
      "chip": "ym2612"
    },
    {
      "channel": 2,
      "note": 54,
      "start": 72.1491,
      "duration": 0.016,
      "velocity": 100,
      "chip": "ym2612"
    },
    {
      "channel": 1,
      "note": 68,
      "start": 72.1586,
      "duration": 0.0161,
      "velocity": 116,
      "chip": "ym2612"
    },
    {
      "channel": 0,
      "note": 40,
      "start": 72.1602,
      "duration": 0.0162,
      "velocity": 115,
      "chip": "ym2612"
    },
    {
      "channel": 2,
      "note": 54,
      "start": 72.1651,
      "duration": 0.0162,
      "velocity": 100,
      "chip": "ym2612"
    },
    {
      "channel": 1,
      "note": 68,
      "start": 72.1747,
      "duration": 0.0161,
      "velocity": 116,
      "chip": "ym2612"
    },
    {
      "channel": 0,
      "note": 41,
      "start": 72.1764,
      "duration": 0.0161,
      "velocity": 115,
      "chip": "ym2612"
    },
    {
      "channel": 2,
      "note": 54,
      "start": 72.1813,
      "duration": 0.016,
      "velocity": 100,
      "chip": "ym2612"
    },
    {
      "channel": 1,
      "note": 68,
      "start": 72.1908,
      "duration": 0.0178,
      "velocity": 105,
      "chip": "ym2612"
    },
    {
      "channel": 0,
      "note": 41,
      "start": 72.1925,
      "duration": 0.0179,
      "velocity": 115,
      "chip": "ym2612"
    },
    {
      "channel": 2,
      "note": 54,
      "start": 72.1973,
      "duration": 0.019,
      "velocity": 100,
      "chip": "ym2612"
    },
    {
      "channel": 1,
      "note": 105,
      "start": 72.2086,
      "duration": 0.0144,
      "velocity": 105,
      "chip": "ym2612"
    },
    {
      "channel": 0,
      "note": 42,
      "start": 72.2104,
      "duration": 0.0143,
      "velocity": 115,
      "chip": "ym2612"
    },
    {
      "channel": 5,
      "note": 88,
      "start": 72.2118,
      "duration": 0.0141,
      "velocity": 101,
      "chip": "ym2612"
    },
    {
      "channel": 4,
      "note": 92,
      "start": 72.2133,
      "duration": 0.0139,
      "velocity": 101,
      "chip": "ym2612"
    },
    {
      "channel": 3,
      "note": 95,
      "start": 72.2148,
      "duration": 0.0136,
      "velocity": 101,
      "chip": "ym2612"
    },
    {
      "channel": 2,
      "note": 66,
      "start": 72.2163,
      "duration": 0.0134,
      "velocity": 100,
      "chip": "ym2612"
    },
    {
      "channel": 1,
      "note": 105,
      "start": 72.223,
      "duration": 0.016,
      "velocity": 105,
      "chip": "ym2612"
    },
    {
      "channel": 0,
      "note": 42,
      "start": 72.2247,
      "duration": 0.0161,
      "velocity": 115,
      "chip": "ym2612"
    },
    {
      "channel": 5,
      "note": 88,
      "start": 72.2259,
      "duration": 0.016,
      "velocity": 101,
      "chip": "ym2612"
    },
    {
      "channel": 4,
      "note": 92,
      "start": 72.2272,
      "duration": 0.0159,
      "velocity": 101,
      "chip": "ym2612"
    },
    {
      "channel": 3,
      "note": 95,
      "start": 72.2284,
      "duration": 0.0159,
      "velocity": 101,
      "chip": "ym2612"
    },
    {
      "channel": 2,
      "note": 66,
      "start": 72.2296,
      "duration": 0.0158,
      "velocity": 100,
      "chip": "ym2612"
    },
    {
      "channel": 1,
      "note": 105,
      "start": 72.239,
      "duration": 0.0161,
      "velocity": 105,
      "chip": "ym2612"
    },
    {
      "channel": 0,
      "note": 43,
      "start": 72.2408,
      "duration": 0.0161,
      "velocity": 115,
      "chip": "ym2612"
    },
    {
      "channel": 5,
      "note": 88,
      "start": 72.2419,
      "duration": 0.0161,
      "velocity": 101,
      "chip": "ym2612"
    },
    {
      "channel": 4,
      "note": 92,
      "start": 72.2431,
      "duration": 0.0161,
      "velocity": 101,
      "chip": "ym2612"
    },
    {
      "channel": 3,
      "note": 95,
      "start": 72.2443,
      "duration": 0.0161,
      "velocity": 101,
      "chip": "ym2612"
    },
    {
      "channel": 2,
      "note": 66,
      "start": 72.2455,
      "duration": 0.0161,
      "velocity": 100,
      "chip": "ym2612"
    },
    {
      "channel": 1,
      "note": 105,
      "start": 72.2551,
      "duration": 0.0161,
      "velocity": 105,
      "chip": "ym2612"
    },
    {
      "channel": 0,
      "note": 43,
      "start": 72.2568,
      "duration": 0.0161,
      "velocity": 115,
      "chip": "ym2612"
    },
    {
      "channel": 5,
      "note": 88,
      "start": 72.258,
      "duration": 0.0161,
      "velocity": 101,
      "chip": "ym2612"
    },
    {
      "channel": 4,
      "note": 92,
      "start": 72.2592,
      "duration": 0.0161,
      "velocity": 101,
      "chip": "ym2612"
    },
    {
      "channel": 3,
      "note": 95,
      "start": 72.2604,
      "duration": 0.0161,
      "velocity": 101,
      "chip": "ym2612"
    },
    {
      "channel": 2,
      "note": 66,
      "start": 72.2616,
      "duration": 0.0161,
      "velocity": 100,
      "chip": "ym2612"
    },
    {
      "channel": 1,
      "note": 105,
      "start": 72.2712,
      "duration": 0.0161,
      "velocity": 105,
      "chip": "ym2612"
    },
    {
      "channel": 0,
      "note": 44,
      "start": 72.2729,
      "duration": 0.0161,
      "velocity": 115,
      "chip": "ym2612"
    },
    {
      "channel": 5,
      "note": 88,
      "start": 72.2741,
      "duration": 0.0161,
      "velocity": 101,
      "chip": "ym2612"
    },
    {
      "channel": 4,
      "note": 92,
      "start": 72.2753,
      "duration": 0.0161,
      "velocity": 101,
      "chip": "ym2612"
    },
    {
      "channel": 3,
      "note": 95,
      "start": 72.2765,
      "duration": 0.0161,
      "velocity": 101,
      "chip": "ym2612"
    },
    {
      "channel": 2,
      "note": 66,
      "start": 72.2777,
      "duration": 0.0161,
      "velocity": 100,
      "chip": "ym2612"
    },
    {
      "channel": 1,
      "note": 105,
      "start": 72.2873,
      "duration": 0.0162,
      "velocity": 105,
      "chip": "ym2612"
    },
    {
      "channel": 0,
      "note": 44,
      "start": 72.289,
      "duration": 0.0161,
      "velocity": 115,
      "chip": "ym2612"
    },
    {
      "channel": 5,
      "note": 88,
      "start": 72.2902,
      "duration": 0.0161,
      "velocity": 101,
      "chip": "ym2612"
    },
    {
      "channel": 4,
      "note": 92,
      "start": 72.2915,
      "duration": 0.0161,
      "velocity": 101,
      "chip": "ym2612"
    },
    {
      "channel": 3,
      "note": 95,
      "start": 72.2926,
      "duration": 0.0161,
      "velocity": 101,
      "chip": "ym2612"
    },
    {
      "channel": 2,
      "note": 66,
      "start": 72.2937,
      "duration": 0.0162,
      "velocity": 100,
      "chip": "ym2612"
    },
    {
      "channel": 1,
      "note": 105,
      "start": 72.3035,
      "duration": 0.0161,
      "velocity": 105,
      "chip": "ym2612"
    },
    {
      "channel": 0,
      "note": 44,
      "start": 72.3051,
      "duration": 0.0161,
      "velocity": 115,
      "chip": "ym2612"
    },
    {
      "channel": 5,
      "note": 88,
      "start": 72.3063,
      "duration": 0.0162,
      "velocity": 101,
      "chip": "ym2612"
    },
    {
      "channel": 4,
      "note": 92,
      "start": 72.3076,
      "duration": 0.0163,
      "velocity": 101,
      "chip": "ym2612"
    },
    {
      "channel": 3,
      "note": 95,
      "start": 72.3087,
      "duration": 0.0164,
      "velocity": 101,
      "chip": "ym2612"
    },
    {
      "channel": 2,
      "note": 66,
      "start": 72.31,
      "duration": 0.0163,
      "velocity": 100,
      "chip": "ym2612"
    },
    {
      "channel": 1,
      "note": 105,
      "start": 72.3196,
      "duration": 0.0164,
      "velocity": 105,
      "chip": "ym2612"
    },
    {
      "channel": 0,
      "note": 45,
      "start": 72.3213,
      "duration": 0.0165,
      "velocity": 115,
      "chip": "ym2612"
    },
    {
      "channel": 5,
      "note": 88,
      "start": 72.3226,
      "duration": 0.0164,
      "velocity": 101,
      "chip": "ym2612"
    },
    {
      "channel": 4,
      "note": 92,
      "start": 72.3238,
      "duration": 0.0163,
      "velocity": 101,
      "chip": "ym2612"
    },
    {
      "channel": 3,
      "note": 95,
      "start": 72.3251,
      "duration": 0.0163,
      "velocity": 101,
      "chip": "ym2612"
    },
    {
      "channel": 2,
      "note": 66,
      "start": 72.3263,
      "duration": 0.0163,
      "velocity": 100,
      "chip": "ym2612"
    },
    {
      "channel": 1,
      "note": 105,
      "start": 72.3361,
      "duration": 0.0163,
      "velocity": 105,
      "chip": "ym2612"
    },
    {
      "channel": 0,
      "note": 45,
      "start": 72.3378,
      "duration": 0.0163,
      "velocity": 115,
      "chip": "ym2612"
    },
    {
      "channel": 5,
      "note": 88,
      "start": 72.339,
      "duration": 0.0163,
      "velocity": 101,
      "chip": "ym2612"
    },
    {
      "channel": 4,
      "note": 92,
      "start": 72.3402,
      "duration": 0.0163,
      "velocity": 101,
      "chip": "ym2612"
    },
    {
      "channel": 3,
      "note": 95,
      "start": 72.3414,
      "duration": 0.0164,
      "velocity": 101,
      "chip": "ym2612"
    },
    {
      "channel": 2,
      "note": 66,
      "start": 72.3426,
      "duration": 0.0163,
      "velocity": 100,
      "chip": "ym2612"
    },
    {
      "channel": 1,
      "note": 105,
      "start": 72.3523,
      "duration": 0.016,
      "velocity": 105,
      "chip": "ym2612"
    },
    {
      "channel": 0,
      "note": 46,
      "start": 72.3541,
      "duration": 0.0161,
      "velocity": 115,
      "chip": "ym2612"
    },
    {
      "channel": 2,
      "note": 66,
      "start": 72.359,
      "duration": 0.016,
      "velocity": 100,
      "chip": "ym2612"
    },
    {
      "channel": 1,
      "note": 105,
      "start": 72.3684,
      "duration": 0.0158,
      "velocity": 105,
      "chip": "ym2612"
    },
    {
      "channel": 0,
      "note": 46,
      "start": 72.3702,
      "duration": 0.0161,
      "velocity": 115,
      "chip": "ym2612"
    },
    {
      "channel": 2,
      "note": 66,
      "start": 72.375,
      "duration": 0.0163,
      "velocity": 100,
      "chip": "ym2612"
    },
    {
      "channel": 1,
      "note": 105,
      "start": 72.3841,
      "duration": 0.0159,
      "velocity": 105,
      "chip": "ym2612"
    },
    {
      "channel": 0,
      "note": 47,
      "start": 72.3862,
      "duration": 0.0161,
      "velocity": 115,
      "chip": "ym2612"
    },
    {
      "channel": 2,
      "note": 66,
      "start": 72.3913,
      "duration": 0.0158,
      "velocity": 100,
      "chip": "ym2612"
    },
    {
      "channel": 1,
      "note": 105,
      "start": 72.4,
      "duration": 0.0184,
      "velocity": 116,
      "chip": "ym2612"
    },
    {
      "channel": 0,
      "note": 47,
      "start": 72.4023,
      "duration": 0.0197,
      "velocity": 115,
      "chip": "ym2612"
    },
    {
      "channel": 2,
      "note": 66,
      "start": 72.4071,
      "duration": 0.021,
      "velocity": 100,
      "chip": "ym2612"
    },
    {
      "channel": 1,
      "note": 68,
      "start": 72.4185,
      "duration": 0.0138,
      "velocity": 116,
      "chip": "ym2612"
    },
    {
      "channel": 0,
      "note": 36,
      "start": 72.4221,
      "duration": 0.0122,
      "velocity": 115,
      "chip": "ym2612"
    },
    {
      "channel": 5,
      "note": 88,
      "start": 72.4236,
      "duration": 0.0123,
      "velocity": 101,
      "chip": "ym2612"
    },
    {
      "channel": 4,
      "note": 92,
      "start": 72.4251,
      "duration": 0.0121,
      "velocity": 101,
      "chip": "ym2612"
    },
    {
      "channel": 3,
      "note": 95,
      "start": 72.4265,
      "duration": 0.0119,
      "velocity": 101,
      "chip": "ym2612"
    },
    {
      "channel": 2,
      "note": 54,
      "start": 72.4282,
      "duration": 0.0115,
      "velocity": 100,
      "chip": "ym2612"
    },
    {
      "channel": 1,
      "note": 68,
      "start": 72.4323,
      "duration": 0.0161,
      "velocity": 116,
      "chip": "ym2612"
    },
    {
      "channel": 0,
      "note": 36,
      "start": 72.4343,
      "duration": 0.0157,
      "velocity": 115,
      "chip": "ym2612"
    },
    {
      "channel": 5,
      "note": 88,
      "start": 72.4359,
      "duration": 0.0159,
      "velocity": 101,
      "chip": "ym2612"
    },
    {
      "channel": 4,
      "note": 92,
      "start": 72.4372,
      "duration": 0.0159,
      "velocity": 101,
      "chip": "ym2612"
    },
    {
      "channel": 3,
      "note": 95,
      "start": 72.4384,
      "duration": 0.0158,
      "velocity": 101,
      "chip": "ym2612"
    },
    {
      "channel": 2,
      "note": 54,
      "start": 72.4396,
      "duration": 0.0158,
      "velocity": 100,
      "chip": "ym2612"
    },
    {
      "channel": 1,
      "note": 68,
      "start": 72.4484,
      "duration": 0.0161,
      "velocity": 116,
      "chip": "ym2612"
    },
    {
      "channel": 0,
      "note": 37,
      "start": 72.45,
      "duration": 0.0162,
      "velocity": 115,
      "chip": "ym2612"
    },
    {
      "channel": 5,
      "note": 88,
      "start": 72.4518,
      "duration": 0.0157,
      "velocity": 101,
      "chip": "ym2612"
    },
    {
      "channel": 4,
      "note": 92,
      "start": 72.453,
      "duration": 0.0161,
      "velocity": 101,
      "chip": "ym2612"
    },
    {
      "channel": 3,
      "note": 95,
      "start": 72.4542,
      "duration": 0.016,
      "velocity": 101,
      "chip": "ym2612"
    },
    {
      "channel": 2,
      "note": 54,
      "start": 72.4554,
      "duration": 0.016,
      "velocity": 100,
      "chip": "ym2612"
    },
    {
      "channel": 1,
      "note": 68,
      "start": 72.4645,
      "duration": 0.0161,
      "velocity": 116,
      "chip": "ym2612"
    },
    {
      "channel": 0,
      "note": 37,
      "start": 72.4662,
      "duration": 0.0161,
      "velocity": 115,
      "chip": "ym2612"
    },
    {
      "channel": 5,
      "note": 88,
      "start": 72.4676,
      "duration": 0.0159,
      "velocity": 101,
      "chip": "ym2612"
    },
    {
      "channel": 4,
      "note": 92,
      "start": 72.4691,
      "duration": 0.016,
      "velocity": 101,
      "chip": "ym2612"
    },
    {
      "channel": 3,
      "note": 95,
      "start": 72.4703,
      "duration": 0.0162,
      "velocity": 101,
      "chip": "ym2612"
    },
    {
      "channel": 2,
      "note": 54,
      "start": 72.4714,
      "duration": 0.0161,
      "velocity": 100,
      "chip": "ym2612"
    },
    {
      "channel": 1,
      "note": 68,
      "start": 72.4806,
      "duration": 0.0161,
      "velocity": 116,
      "chip": "ym2612"
    },
    {
      "channel": 0,
      "note": 38,
      "start": 72.4823,
      "duration": 0.0161,
      "velocity": 115,
      "chip": "ym2612"
    },
    {
      "channel": 5,
      "note": 88,
      "start": 72.4834,
      "duration": 0.0161,
      "velocity": 101,
      "chip": "ym2612"
    },
    {
      "channel": 4,
      "note": 92,
      "start": 72.4852,
      "duration": 0.0158,
      "velocity": 101,
      "chip": "ym2612"
    },
    {
      "channel": 3,
      "note": 95,
      "start": 72.4864,
      "duration": 0.0161,
      "velocity": 101,
      "chip": "ym2612"
    },
    {
      "channel": 2,
      "note": 54,
      "start": 72.4876,
      "duration": 0.0161,
      "velocity": 100,
      "chip": "ym2612"
    },
    {
      "channel": 1,
      "note": 68,
      "start": 72.4967,
      "duration": 0.0179,
      "velocity": 116,
      "chip": "ym2612"
    },
    {
      "channel": 0,
      "note": 38,
      "start": 72.4984,
      "duration": 0.0179,
      "velocity": 115,
      "chip": "ym2612"
    },
    {
      "channel": 5,
      "note": 88,
      "start": 72.4995,
      "duration": 0.0184,
      "velocity": 101,
      "chip": "ym2612"
    },
    {
      "channel": 4,
      "note": 92,
      "start": 72.5009,
      "duration": 0.0183,
      "velocity": 101,
      "chip": "ym2612"
    },
    {
      "channel": 3,
      "note": 95,
      "start": 72.5025,
      "duration": 0.0179,
      "velocity": 101,
      "chip": "ym2612"
    },
    {
      "channel": 2,
      "note": 54,
      "start": 72.5037,
      "duration": 0.0179,
      "velocity": 100,
      "chip": "ym2612"
    },
    {
      "channel": 1,
      "note": 68,
      "start": 72.5146,
      "duration": 0.0144,
      "velocity": 116,
      "chip": "ym2612"
    },
    {
      "channel": 0,
      "note": 39,
      "start": 72.5163,
      "duration": 0.0144,
      "velocity": 115,
      "chip": "ym2612"
    },
    {
      "channel": 5,
      "note": 88,
      "start": 72.518,
      "duration": 0.0139,
      "velocity": 101,
      "chip": "ym2612"
    },
    {
      "channel": 4,
      "note": 92,
      "start": 72.5193,
      "duration": 0.0139,
      "velocity": 101,
      "chip": "ym2612"
    },
    {
      "channel": 3,
      "note": 95,
      "start": 72.5204,
      "duration": 0.0146,
      "velocity": 101,
      "chip": "ym2612"
    },
    {
      "channel": 2,
      "note": 54,
      "start": 72.5215,
      "duration": 0.0146,
      "velocity": 100,
      "chip": "ym2612"
    },
    {
      "channel": 1,
      "note": 68,
      "start": 72.5289,
      "duration": 0.016,
      "velocity": 116,
      "chip": "ym2612"
    },
    {
      "channel": 0,
      "note": 39,
      "start": 72.5307,
      "duration": 0.016,
      "velocity": 115,
      "chip": "ym2612"
    },
    {
      "channel": 5,
      "note": 88,
      "start": 72.5319,
      "duration": 0.016,
      "velocity": 101,
      "chip": "ym2612"
    },
    {
      "channel": 4,
      "note": 92,
      "start": 72.5332,
      "duration": 0.016,
      "velocity": 101,
      "chip": "ym2612"
    },
    {
      "channel": 3,
      "note": 95,
      "start": 72.535,
      "duration": 0.0154,
      "velocity": 101,
      "chip": "ym2612"
    },
    {
      "channel": 2,
      "note": 54,
      "start": 72.5362,
      "duration": 0.016,
      "velocity": 100,
      "chip": "ym2612"
    },
    {
      "channel": 1,
      "note": 68,
      "start": 72.545,
      "duration": 0.0161,
      "velocity": 116,
      "chip": "ym2612"
    },
    {
      "channel": 0,
      "note": 40,
      "start": 72.5467,
      "duration": 0.0161,
      "velocity": 115,
      "chip": "ym2612"
    },
    {
      "channel": 5,
      "note": 88,
      "start": 72.548,
      "duration": 0.0161,
      "velocity": 101,
      "chip": "ym2612"
    },
    {
      "channel": 4,
      "note": 92,
      "start": 72.5492,
      "duration": 0.0161,
      "velocity": 101,
      "chip": "ym2612"
    },
    {
      "channel": 3,
      "note": 95,
      "start": 72.5504,
      "duration": 0.0162,
      "velocity": 101,
      "chip": "ym2612"
    },
    {
      "channel": 2,
      "note": 54,
      "start": 72.5522,
      "duration": 0.016,
      "velocity": 100,
      "chip": "ym2612"
    },
    {
      "channel": 1,
      "note": 68,
      "start": 72.561,
      "duration": 0.0162,
      "velocity": 116,
      "chip": "ym2612"
    },
    {
      "channel": 0,
      "note": 40,
      "start": 72.5628,
      "duration": 0.0161,
      "velocity": 115,
      "chip": "ym2612"
    },
    {
      "channel": 2,
      "note": 54,
      "start": 72.5682,
      "duration": 0.0155,
      "velocity": 100,
      "chip": "ym2612"
    },
    {
      "channel": 1,
      "note": 68,
      "start": 72.5772,
      "duration": 0.0161,
      "velocity": 116,
      "chip": "ym2612"
    },
    {
      "channel": 0,
      "note": 40,
      "start": 72.5789,
      "duration": 0.0161,
      "velocity": 115,
      "chip": "ym2612"
    },
    {
      "channel": 2,
      "note": 54,
      "start": 72.5837,
      "duration": 0.0162,
      "velocity": 100,
      "chip": "ym2612"
    },
    {
      "channel": 1,
      "note": 68,
      "start": 72.5933,
      "duration": 0.0161,
      "velocity": 116,
      "chip": "ym2612"
    },
    {
      "channel": 0,
      "note": 41,
      "start": 72.595,
      "duration": 0.0161,
      "velocity": 115,
      "chip": "ym2612"
    },
    {
      "channel": 2,
      "note": 54,
      "start": 72.5999,
      "duration": 0.0159,
      "velocity": 100,
      "chip": "ym2612"
    },
    {
      "channel": 1,
      "note": 68,
      "start": 72.6094,
      "duration": 0.0178,
      "velocity": 105,
      "chip": "ym2612"
    },
    {
      "channel": 0,
      "note": 41,
      "start": 72.6111,
      "duration": 0.0178,
      "velocity": 115,
      "chip": "ym2612"
    },
    {
      "channel": 2,
      "note": 54,
      "start": 72.6158,
      "duration": 0.0198,
      "velocity": 100,
      "chip": "ym2612"
    },
    {
      "channel": 1,
      "note": 105,
      "start": 72.6272,
      "duration": 0.0144,
      "velocity": 105,
      "chip": "ym2612"
    },
    {
      "channel": 0,
      "note": 42,
      "start": 72.6289,
      "duration": 0.0144,
      "velocity": 115,
      "chip": "ym2612"
    },
    {
      "channel": 5,
      "note": 90,
      "start": 72.6305,
      "duration": 0.0141,
      "velocity": 101,
      "chip": "ym2612"
    },
    {
      "channel": 4,
      "note": 94,
      "start": 72.632,
      "duration": 0.0139,
      "velocity": 101,
      "chip": "ym2612"
    },
    {
      "channel": 3,
      "note": 97,
      "start": 72.6335,
      "duration": 0.0135,
      "velocity": 101,
      "chip": "ym2612"
    },
    {
      "channel": 2,
      "note": 66,
      "start": 72.6356,
      "duration": 0.0127,
      "velocity": 100,
      "chip": "ym2612"
    },
    {
      "channel": 1,
      "note": 105,
      "start": 72.6417,
      "duration": 0.016,
      "velocity": 105,
      "chip": "ym2612"
    },
    {
      "channel": 0,
      "note": 42,
      "start": 72.6433,
      "duration": 0.0161,
      "velocity": 115,
      "chip": "ym2612"
    },
    {
      "channel": 5,
      "note": 90,
      "start": 72.6446,
      "duration": 0.016,
      "velocity": 101,
      "chip": "ym2612"
    },
    {
      "channel": 4,
      "note": 94,
      "start": 72.6459,
      "duration": 0.0159,
      "velocity": 101,
      "chip": "ym2612"
    },
    {
      "channel": 3,
      "note": 97,
      "start": 72.6471,
      "duration": 0.0159,
      "velocity": 101,
      "chip": "ym2612"
    },
    {
      "channel": 2,
      "note": 66,
      "start": 72.6483,
      "duration": 0.0158,
      "velocity": 100,
      "chip": "ym2612"
    },
    {
      "channel": 1,
      "note": 105,
      "start": 72.6577,
      "duration": 0.0161,
      "velocity": 105,
      "chip": "ym2612"
    },
    {
      "channel": 0,
      "note": 43,
      "start": 72.6594,
      "duration": 0.0161,
      "velocity": 115,
      "chip": "ym2612"
    },
    {
      "channel": 5,
      "note": 90,
      "start": 72.6605,
      "duration": 0.0161,
      "velocity": 101,
      "chip": "ym2612"
    },
    {
      "channel": 4,
      "note": 94,
      "start": 72.6617,
      "duration": 0.0161,
      "velocity": 101,
      "chip": "ym2612"
    },
    {
      "channel": 3,
      "note": 97,
      "start": 72.6629,
      "duration": 0.0161,
      "velocity": 101,
      "chip": "ym2612"
    },
    {
      "channel": 2,
      "note": 66,
      "start": 72.664,
      "duration": 0.0162,
      "velocity": 100,
      "chip": "ym2612"
    },
    {
      "channel": 1,
      "note": 105,
      "start": 72.6738,
      "duration": 0.0161,
      "velocity": 105,
      "chip": "ym2612"
    },
    {
      "channel": 0,
      "note": 43,
      "start": 72.6755,
      "duration": 0.0161,
      "velocity": 115,
      "chip": "ym2612"
    },
    {
      "channel": 5,
      "note": 90,
      "start": 72.6766,
      "duration": 0.0161,
      "velocity": 101,
      "chip": "ym2612"
    },
    {
      "channel": 4,
      "note": 94,
      "start": 72.6778,
      "duration": 0.0161,
      "velocity": 101,
      "chip": "ym2612"
    },
    {
      "channel": 3,
      "note": 97,
      "start": 72.679,
      "duration": 0.0161,
      "velocity": 101,
      "chip": "ym2612"
    },
    {
      "channel": 2,
      "note": 66,
      "start": 72.6802,
      "duration": 0.0161,
      "velocity": 100,
      "chip": "ym2612"
    },
    {
      "channel": 1,
      "note": 105,
      "start": 72.6899,
      "duration": 0.0161,
      "velocity": 105,
      "chip": "ym2612"
    },
    {
      "channel": 0,
      "note": 44,
      "start": 72.6916,
      "duration": 0.0161,
      "velocity": 115,
      "chip": "ym2612"
    },
    {
      "channel": 5,
      "note": 90,
      "start": 72.6927,
      "duration": 0.0161,
      "velocity": 101,
      "chip": "ym2612"
    },
    {
      "channel": 4,
      "note": 94,
      "start": 72.6939,
      "duration": 0.0161,
      "velocity": 101,
      "chip": "ym2612"
    },
    {
      "channel": 3,
      "note": 97,
      "start": 72.6951,
      "duration": 0.0161,
      "velocity": 101,
      "chip": "ym2612"
    },
    {
      "channel": 2,
      "note": 66,
      "start": 72.6963,
      "duration": 0.0161,
      "velocity": 100,
      "chip": "ym2612"
    },
    {
      "channel": 1,
      "note": 105,
      "start": 72.706,
      "duration": 0.0161,
      "velocity": 105,
      "chip": "ym2612"
    },
    {
      "channel": 0,
      "note": 44,
      "start": 72.7077,
      "duration": 0.0161,
      "velocity": 115,
      "chip": "ym2612"
    },
    {
      "channel": 5,
      "note": 90,
      "start": 72.7088,
      "duration": 0.0162,
      "velocity": 101,
      "chip": "ym2612"
    },
    {
      "channel": 4,
      "note": 94,
      "start": 72.71,
      "duration": 0.0161,
      "velocity": 101,
      "chip": "ym2612"
    },
    {
      "channel": 3,
      "note": 97,
      "start": 72.7112,
      "duration": 0.0162,
      "velocity": 101,
      "chip": "ym2612"
    },
    {
      "channel": 2,
      "note": 66,
      "start": 72.7124,
      "duration": 0.0162,
      "velocity": 100,
      "chip": "ym2612"
    },
    {
      "channel": 1,
      "note": 105,
      "start": 72.7221,
      "duration": 0.0161,
      "velocity": 105,
      "chip": "ym2612"
    },
    {
      "channel": 0,
      "note": 44,
      "start": 72.7238,
      "duration": 0.0161,
      "velocity": 115,
      "chip": "ym2612"
    },
    {
      "channel": 5,
      "note": 90,
      "start": 72.725,
      "duration": 0.0161,
      "velocity": 101,
      "chip": "ym2612"
    },
    {
      "channel": 4,
      "note": 94,
      "start": 72.7261,
      "duration": 0.0161,
      "velocity": 101,
      "chip": "ym2612"
    },
    {
      "channel": 3,
      "note": 97,
      "start": 72.7273,
      "duration": 0.0161,
      "velocity": 101,
      "chip": "ym2612"
    },
    {
      "channel": 2,
      "note": 66,
      "start": 72.7285,
      "duration": 0.0161,
      "velocity": 100,
      "chip": "ym2612"
    },
    {
      "channel": 1,
      "note": 105,
      "start": 72.7382,
      "duration": 0.0161,
      "velocity": 105,
      "chip": "ym2612"
    },
    {
      "channel": 0,
      "note": 45,
      "start": 72.7399,
      "duration": 0.0161,
      "velocity": 115,
      "chip": "ym2612"
    },
    {
      "channel": 5,
      "note": 90,
      "start": 72.7411,
      "duration": 0.0161,
      "velocity": 101,
      "chip": "ym2612"
    },
    {
      "channel": 4,
      "note": 94,
      "start": 72.7422,
      "duration": 0.0161,
      "velocity": 101,
      "chip": "ym2612"
    },
    {
      "channel": 3,
      "note": 97,
      "start": 72.7434,
      "duration": 0.0161,
      "velocity": 101,
      "chip": "ym2612"
    },
    {
      "channel": 2,
      "note": 66,
      "start": 72.7446,
      "duration": 0.0161,
      "velocity": 100,
      "chip": "ym2612"
    },
    {
      "channel": 1,
      "note": 105,
      "start": 72.7542,
      "duration": 0.0162,
      "velocity": 105,
      "chip": "ym2612"
    },
    {
      "channel": 0,
      "note": 45,
      "start": 72.756,
      "duration": 0.0161,
      "velocity": 115,
      "chip": "ym2612"
    },
    {
      "channel": 5,
      "note": 90,
      "start": 72.7572,
      "duration": 0.0161,
      "velocity": 101,
      "chip": "ym2612"
    },
    {
      "channel": 4,
      "note": 94,
      "start": 72.7583,
      "duration": 0.0161,
      "velocity": 101,
      "chip": "ym2612"
    },
    {
      "channel": 3,
      "note": 97,
      "start": 72.7595,
      "duration": 0.0161,
      "velocity": 101,
      "chip": "ym2612"
    },
    {
      "channel": 2,
      "note": 66,
      "start": 72.7607,
      "duration": 0.016,
      "velocity": 100,
      "chip": "ym2612"
    },
    {
      "channel": 1,
      "note": 105,
      "start": 72.7704,
      "duration": 0.0161,
      "velocity": 105,
      "chip": "ym2612"
    },
    {
      "channel": 0,
      "note": 46,
      "start": 72.7721,
      "duration": 0.0161,
      "velocity": 115,
      "chip": "ym2612"
    },
    {
      "channel": 5,
      "note": 90,
      "start": 72.7733,
      "duration": 0.0162,
      "velocity": 101,
      "chip": "ym2612"
    },
    {
      "channel": 4,
      "note": 94,
      "start": 72.7745,
      "duration": 0.0162,
      "velocity": 101,
      "chip": "ym2612"
    },
    {
      "channel": 3,
      "note": 97,
      "start": 72.7756,
      "duration": 0.0161,
      "velocity": 101,
      "chip": "ym2612"
    },
    {
      "channel": 2,
      "note": 66,
      "start": 72.7768,
      "duration": 0.0162,
      "velocity": 100,
      "chip": "ym2612"
    },
    {
      "channel": 1,
      "note": 105,
      "start": 72.7866,
      "duration": 0.0162,
      "velocity": 105,
      "chip": "ym2612"
    },
    {
      "channel": 0,
      "note": 46,
      "start": 72.7882,
      "duration": 0.0163,
      "velocity": 115,
      "chip": "ym2612"
    },
    {
      "channel": 5,
      "note": 90,
      "start": 72.7894,
      "duration": 0.0163,
      "velocity": 101,
      "chip": "ym2612"
    },
    {
      "channel": 4,
      "note": 94,
      "start": 72.7906,
      "duration": 0.0162,
      "velocity": 101,
      "chip": "ym2612"
    },
    {
      "channel": 3,
      "note": 97,
      "start": 72.7918,
      "duration": 0.0163,
      "velocity": 101,
      "chip": "ym2612"
    },
    {
      "channel": 2,
      "note": 66,
      "start": 72.7929,
      "duration": 0.0164,
      "velocity": 100,
      "chip": "ym2612"
    },
    {
      "channel": 1,
      "note": 105,
      "start": 72.8028,
      "duration": 0.0163,
      "velocity": 105,
      "chip": "ym2612"
    },
    {
      "channel": 0,
      "note": 47,
      "start": 72.8045,
      "duration": 0.0163,
      "velocity": 115,
      "chip": "ym2612"
    },
    {
      "channel": 5,
      "note": 90,
      "start": 72.8057,
      "duration": 0.0163,
      "velocity": 101,
      "chip": "ym2612"
    },
    {
      "channel": 4,
      "note": 94,
      "start": 72.8068,
      "duration": 0.0163,
      "velocity": 101,
      "chip": "ym2612"
    },
    {
      "channel": 3,
      "note": 97,
      "start": 72.8081,
      "duration": 0.0163,
      "velocity": 101,
      "chip": "ym2612"
    },
    {
      "channel": 2,
      "note": 66,
      "start": 72.8093,
      "duration": 0.0162,
      "velocity": 100,
      "chip": "ym2612"
    },
    {
      "channel": 1,
      "note": 105,
      "start": 72.8191,
      "duration": 0.0186,
      "velocity": 127,
      "chip": "ym2612"
    },
    {
      "channel": 0,
      "note": 47,
      "start": 72.8208,
      "duration": 0.0205,
      "velocity": 115,
      "chip": "ym2612"
    },
    {
      "channel": 5,
      "note": 90,
      "start": 72.8221,
      "duration": 0.0205,
      "velocity": 101,
      "chip": "ym2612"
    },
    {
      "channel": 4,
      "note": 94,
      "start": 72.8232,
      "duration": 0.0206,
      "velocity": 101,
      "chip": "ym2612"
    },
    {
      "channel": 3,
      "note": 97,
      "start": 72.8244,
      "duration": 0.0206,
      "velocity": 101,
      "chip": "ym2612"
    },
    {
      "channel": 2,
      "note": 66,
      "start": 72.8256,
      "duration": 0.021,
      "velocity": 100,
      "chip": "ym2612"
    },
    {
      "channel": 1,
      "note": 88,
      "start": 72.8378,
      "duration": 0.0142,
      "velocity": 127,
      "chip": "ym2612"
    },
    {
      "channel": 0,
      "note": 36,
      "start": 72.8414,
      "duration": 0.0124,
      "velocity": 115,
      "chip": "ym2612"
    },
    {
      "channel": 5,
      "note": 90,
      "start": 72.8426,
      "duration": 0.0125,
      "velocity": 101,
      "chip": "ym2612"
    },
    {
      "channel": 4,
      "note": 94,
      "start": 72.8438,
      "duration": 0.0125,
      "velocity": 101,
      "chip": "ym2612"
    },
    {
      "channel": 3,
      "note": 97,
      "start": 72.845,
      "duration": 0.0124,
      "velocity": 101,
      "chip": "ym2612"
    },
    {
      "channel": 2,
      "note": 54,
      "start": 72.8466,
      "duration": 0.0121,
      "velocity": 100,
      "chip": "ym2612"
    },
    {
      "channel": 1,
      "note": 86,
      "start": 72.8521,
      "duration": 0.016,
      "velocity": 127,
      "chip": "ym2612"
    },
    {
      "channel": 0,
      "note": 36,
      "start": 72.8539,
      "duration": 0.016,
      "velocity": 115,
      "chip": "ym2612"
    },
    {
      "channel": 5,
      "note": 90,
      "start": 72.8551,
      "duration": 0.016,
      "velocity": 101,
      "chip": "ym2612"
    },
    {
      "channel": 4,
      "note": 94,
      "start": 72.8563,
      "duration": 0.016,
      "velocity": 101,
      "chip": "ym2612"
    },
    {
      "channel": 3,
      "note": 97,
      "start": 72.8575,
      "duration": 0.016,
      "velocity": 101,
      "chip": "ym2612"
    },
    {
      "channel": 2,
      "note": 54,
      "start": 72.8587,
      "duration": 0.0159,
      "velocity": 100,
      "chip": "ym2612"
    },
    {
      "channel": 1,
      "note": 85,
      "start": 72.868,
      "duration": 0.018,
      "velocity": 127,
      "chip": "ym2612"
    },
    {
      "channel": 0,
      "note": 37,
      "start": 72.8698,
      "duration": 0.018,
      "velocity": 115,
      "chip": "ym2612"
    },
    {
      "channel": 5,
      "note": 90,
      "start": 72.871,
      "duration": 0.0179,
      "velocity": 101,
      "chip": "ym2612"
    },
    {
      "channel": 4,
      "note": 94,
      "start": 72.8722,
      "duration": 0.0179,
      "velocity": 101,
      "chip": "ym2612"
    },
    {
      "channel": 3,
      "note": 97,
      "start": 72.8735,
      "duration": 0.0179,
      "velocity": 101,
      "chip": "ym2612"
    },
    {
      "channel": 2,
      "note": 54,
      "start": 72.8746,
      "duration": 0.0179,
      "velocity": 100,
      "chip": "ym2612"
    },
    {
      "channel": 1,
      "note": 88,
      "start": 72.8861,
      "duration": 0.0137,
      "velocity": 127,
      "chip": "ym2612"
    },
    {
      "channel": 0,
      "note": 37,
      "start": 72.8878,
      "duration": 0.0142,
      "velocity": 115,
      "chip": "ym2612"
    },
    {
      "channel": 5,
      "note": 90,
      "start": 72.889,
      "duration": 0.0143,
      "velocity": 101,
      "chip": "ym2612"
    },
    {
      "channel": 4,
      "note": 94,
      "start": 72.8902,
      "duration": 0.0143,
      "velocity": 101,
      "chip": "ym2612"
    },
    {
      "channel": 3,
      "note": 97,
      "start": 72.8914,
      "duration": 0.0143,
      "velocity": 101,
      "chip": "ym2612"
    },
    {
      "channel": 2,
      "note": 54,
      "start": 72.8925,
      "duration": 0.0143,
      "velocity": 100,
      "chip": "ym2612"
    },
    {
      "channel": 1,
      "note": 86,
      "start": 72.8998,
      "duration": 0.016,
      "velocity": 127,
      "chip": "ym2612"
    },
    {
      "channel": 0,
      "note": 38,
      "start": 72.9021,
      "duration": 0.016,
      "velocity": 115,
      "chip": "ym2612"
    },
    {
      "channel": 5,
      "note": 90,
      "start": 72.9033,
      "duration": 0.016,
      "velocity": 101,
      "chip": "ym2612"
    },
    {
      "channel": 4,
      "note": 94,
      "start": 72.9045,
      "duration": 0.016,
      "velocity": 101,
      "chip": "ym2612"
    },
    {
      "channel": 3,
      "note": 97,
      "start": 72.9057,
      "duration": 0.016,
      "velocity": 101,
      "chip": "ym2612"
    },
    {
      "channel": 2,
      "note": 54,
      "start": 72.9068,
      "duration": 0.016,
      "velocity": 100,
      "chip": "ym2612"
    },
    {
      "channel": 1,
      "note": 85,
      "start": 72.9158,
      "duration": 0.0179,
      "velocity": 127,
      "chip": "ym2612"
    },
    {
      "channel": 0,
      "note": 38,
      "start": 72.918,
      "duration": 0.0181,
      "velocity": 115,
      "chip": "ym2612"
    },
    {
      "channel": 5,
      "note": 90,
      "start": 72.9193,
      "duration": 0.018,
      "velocity": 101,
      "chip": "ym2612"
    },
    {
      "channel": 4,
      "note": 94,
      "start": 72.9205,
      "duration": 0.018,
      "velocity": 101,
      "chip": "ym2612"
    },
    {
      "channel": 3,
      "note": 97,
      "start": 72.9217,
      "duration": 0.018,
      "velocity": 101,
      "chip": "ym2612"
    },
    {
      "channel": 2,
      "note": 54,
      "start": 72.9229,
      "duration": 0.018,
      "velocity": 100,
      "chip": "ym2612"
    },
    {
      "channel": 1,
      "note": 88,
      "start": 72.934,
      "duration": 0.0141,
      "velocity": 127,
      "chip": "ym2612"
    },
    {
      "channel": 0,
      "note": 39,
      "start": 72.9361,
      "duration": 0.0137,
      "velocity": 115,
      "chip": "ym2612"
    },
    {
      "channel": 5,
      "note": 90,
      "start": 72.9373,
      "duration": 0.0142,
      "velocity": 101,
      "chip": "ym2612"
    },
    {
      "channel": 4,
      "note": 94,
      "start": 72.9385,
      "duration": 0.0143,
      "velocity": 101,
      "chip": "ym2612"
    },
    {
      "channel": 3,
      "note": 97,
      "start": 72.9398,
      "duration": 0.0143,
      "velocity": 101,
      "chip": "ym2612"
    },
    {
      "channel": 2,
      "note": 54,
      "start": 72.9409,
      "duration": 0.0143,
      "velocity": 100,
      "chip": "ym2612"
    },
    {
      "channel": 1,
      "note": 86,
      "start": 72.9481,
      "duration": 0.016,
      "velocity": 127,
      "chip": "ym2612"
    },
    {
      "channel": 0,
      "note": 39,
      "start": 72.9498,
      "duration": 0.016,
      "velocity": 115,
      "chip": "ym2612"
    },
    {
      "channel": 5,
      "note": 90,
      "start": 72.9516,
      "duration": 0.0155,
      "velocity": 101,
      "chip": "ym2612"
    },
    {
      "channel": 4,
      "note": 94,
      "start": 72.9529,
      "duration": 0.016,
      "velocity": 101,
      "chip": "ym2612"
    },
    {
      "channel": 3,
      "note": 97,
      "start": 72.9541,
      "duration": 0.016,
      "velocity": 101,
      "chip": "ym2612"
    },
    {
      "channel": 2,
      "note": 54,
      "start": 72.9552,
      "duration": 0.016,
      "velocity": 100,
      "chip": "ym2612"
    },
    {
      "channel": 1,
      "note": 85,
      "start": 72.9642,
      "duration": 0.0179,
      "velocity": 127,
      "chip": "ym2612"
    },
    {
      "channel": 0,
      "note": 40,
      "start": 72.9658,
      "duration": 0.018,
      "velocity": 115,
      "chip": "ym2612"
    },
    {
      "channel": 5,
      "note": 90,
      "start": 72.9671,
      "duration": 0.0185,
      "velocity": 101,
      "chip": "ym2612"
    },
    {
      "channel": 4,
      "note": 94,
      "start": 72.9689,
      "duration": 0.0179,
      "velocity": 101,
      "chip": "ym2612"
    },
    {
      "channel": 3,
      "note": 97,
      "start": 72.9701,
      "duration": 0.0179,
      "velocity": 101,
      "chip": "ym2612"
    },
    {
      "channel": 2,
      "note": 54,
      "start": 72.9712,
      "duration": 0.0179,
      "velocity": 100,
      "chip": "ym2612"
    },
    {
      "channel": 1,
      "note": 88,
      "start": 72.9821,
      "duration": 0.0143,
      "velocity": 127,
      "chip": "ym2612"
    },
    {
      "channel": 0,
      "note": 40,
      "start": 72.9838,
      "duration": 0.0142,
      "velocity": 115,
      "chip": "ym2612"
    },
    {
      "channel": 5,
      "note": 90,
      "start": 72.9856,
      "duration": 0.0137,
      "velocity": 101,
      "chip": "ym2612"
    },
    {
      "channel": 4,
      "note": 94,
      "start": 72.9868,
      "duration": 0.0139,
      "velocity": 101,
      "chip": "ym2612"
    },
    {
      "channel": 3,
      "note": 97,
      "start": 72.988,
      "duration": 0.0143,
      "velocity": 101,
      "chip": "ym2612"
    },
    {
      "channel": 2,
      "note": 54,
      "start": 72.9892,
      "duration": 0.0143,
      "velocity": 100,
      "chip": "ym2612"
    },
    {
      "channel": 1,
      "note": 86,
      "start": 72.9964,
      "duration": 0.016,
      "velocity": 127,
      "chip": "ym2612"
    },
    {
      "channel": 0,
      "note": 40,
      "start": 72.9981,
      "duration": 0.0161,
      "velocity": 115,
      "chip": "ym2612"
    },
    {
      "channel": 5,
      "note": 90,
      "start": 72.9993,
      "duration": 0.016,
      "velocity": 101,
      "chip": "ym2612"
    },
    {
      "channel": 4,
      "note": 94,
      "start": 73.0007,
      "duration": 0.0158,
      "velocity": 101,
      "chip": "ym2612"
    },
    {
      "channel": 3,
      "note": 97,
      "start": 73.0023,
      "duration": 0.016,
      "velocity": 101,
      "chip": "ym2612"
    },
    {
      "channel": 2,
      "note": 54,
      "start": 73.0035,
      "duration": 0.016,
      "velocity": 100,
      "chip": "ym2612"
    },
    {
      "channel": 1,
      "note": 85,
      "start": 73.0124,
      "duration": 0.0161,
      "velocity": 127,
      "chip": "ym2612"
    },
    {
      "channel": 0,
      "note": 41,
      "start": 73.0142,
      "duration": 0.0161,
      "velocity": 115,
      "chip": "ym2612"
    },
    {
      "channel": 5,
      "note": 90,
      "start": 73.0153,
      "duration": 0.0162,
      "velocity": 101,
      "chip": "ym2612"
    },
    {
      "channel": 4,
      "note": 94,
      "start": 73.0165,
      "duration": 0.0161,
      "velocity": 101,
      "chip": "ym2612"
    },
    {
      "channel": 3,
      "note": 97,
      "start": 73.0183,
      "duration": 0.0158,
      "velocity": 101,
      "chip": "ym2612"
    },
    {
      "channel": 2,
      "note": 54,
      "start": 73.0195,
      "duration": 0.0161,
      "velocity": 100,
      "chip": "ym2612"
    },
    {
      "channel": 1,
      "note": 83,
      "start": 73.0285,
      "duration": 0.018,
      "velocity": 127,
      "chip": "ym2612"
    },
    {
      "channel": 0,
      "note": 41,
      "start": 73.0303,
      "duration": 0.018,
      "velocity": 115,
      "chip": "ym2612"
    },
    {
      "channel": 5,
      "note": 90,
      "start": 73.0315,
      "duration": 0.018,
      "velocity": 101,
      "chip": "ym2612"
    },
    {
      "channel": 4,
      "note": 94,
      "start": 73.0327,
      "duration": 0.0182,
      "velocity": 101,
      "chip": "ym2612"
    },
    {
      "channel": 3,
      "note": 97,
      "start": 73.0341,
      "duration": 0.0184,
      "velocity": 101,
      "chip": "ym2612"
    },
    {
      "channel": 2,
      "note": 54,
      "start": 73.0356,
      "duration": 0.0183,
      "velocity": 100,
      "chip": "ym2612"
    },
    {
      "channel": 1,
      "note": 84,
      "start": 73.0466,
      "duration": 0.0142,
      "velocity": 127,
      "chip": "ym2612"
    },
    {
      "channel": 0,
      "note": 42,
      "start": 73.0483,
      "duration": 0.0142,
      "velocity": 115,
      "chip": "ym2612"
    },
    {
      "channel": 5,
      "note": 90,
      "start": 73.0495,
      "duration": 0.0142,
      "velocity": 101,
      "chip": "ym2612"
    },
    {
      "channel": 4,
      "note": 94,
      "start": 73.0509,
      "duration": 0.0141,
      "velocity": 101,
      "chip": "ym2612"
    },
    {
      "channel": 3,
      "note": 97,
      "start": 73.0525,
      "duration": 0.0137,
      "velocity": 101,
      "chip": "ym2612"
    },
    {
      "channel": 2,
      "note": 66,
      "start": 73.054,
      "duration": 0.0136,
      "velocity": 100,
      "chip": "ym2612"
    },
    {
      "channel": 1,
      "note": 82,
      "start": 73.0608,
      "duration": 0.016,
      "velocity": 127,
      "chip": "ym2612"
    },
    {
      "channel": 0,
      "note": 42,
      "start": 73.0625,
      "duration": 0.016,
      "velocity": 115,
      "chip": "ym2612"
    },
    {
      "channel": 5,
      "note": 90,
      "start": 73.0637,
      "duration": 0.016,
      "velocity": 101,
      "chip": "ym2612"
    },
    {
      "channel": 4,
      "note": 94,
      "start": 73.0649,
      "duration": 0.016,
      "velocity": 101,
      "chip": "ym2612"
    },
    {
      "channel": 3,
      "note": 97,
      "start": 73.0661,
      "duration": 0.016,
      "velocity": 101,
      "chip": "ym2612"
    },
    {
      "channel": 2,
      "note": 66,
      "start": 73.0676,
      "duration": 0.0157,
      "velocity": 100,
      "chip": "ym2612"
    },
    {
      "channel": 1,
      "note": 81,
      "start": 73.0768,
      "duration": 0.0161,
      "velocity": 127,
      "chip": "ym2612"
    },
    {
      "channel": 0,
      "note": 43,
      "start": 73.0785,
      "duration": 0.0161,
      "velocity": 115,
      "chip": "ym2612"
    },
    {
      "channel": 5,
      "note": 90,
      "start": 73.0798,
      "duration": 0.0161,
      "velocity": 101,
      "chip": "ym2612"
    },
    {
      "channel": 4,
      "note": 94,
      "start": 73.081,
      "duration": 0.0161,
      "velocity": 101,
      "chip": "ym2612"
    },
    {
      "channel": 3,
      "note": 97,
      "start": 73.0822,
      "duration": 0.0161,
      "velocity": 101,
      "chip": "ym2612"
    },
    {
      "channel": 2,
      "note": 66,
      "start": 73.0833,
      "duration": 0.0162,
      "velocity": 100,
      "chip": "ym2612"
    },
    {
      "channel": 1,
      "note": 79,
      "start": 73.0929,
      "duration": 0.0161,
      "velocity": 127,
      "chip": "ym2612"
    },
    {
      "channel": 0,
      "note": 43,
      "start": 73.0946,
      "duration": 0.0161,
      "velocity": 115,
      "chip": "ym2612"
    },
    {
      "channel": 5,
      "note": 90,
      "start": 73.0959,
      "duration": 0.0161,
      "velocity": 101,
      "chip": "ym2612"
    },
    {
      "channel": 4,
      "note": 94,
      "start": 73.0971,
      "duration": 0.016,
      "velocity": 101,
      "chip": "ym2612"
    },
    {
      "channel": 3,
      "note": 97,
      "start": 73.0983,
      "duration": 0.016,
      "velocity": 101,
      "chip": "ym2612"
    },
    {
      "channel": 2,
      "note": 66,
      "start": 73.0995,
      "duration": 0.016,
      "velocity": 100,
      "chip": "ym2612"
    },
    {
      "channel": 1,
      "note": 77,
      "start": 73.1091,
      "duration": 0.0161,
      "velocity": 127,
      "chip": "ym2612"
    },
    {
      "channel": 0,
      "note": 44,
      "start": 73.1107,
      "duration": 0.0161,
      "velocity": 115,
      "chip": "ym2612"
    },
    {
      "channel": 5,
      "note": 90,
      "start": 73.112,
      "duration": 0.0161,
      "velocity": 101,
      "chip": "ym2612"
    },
    {
      "channel": 4,
      "note": 94,
      "start": 73.1132,
      "duration": 0.0161,
      "velocity": 101,
      "chip": "ym2612"
    },
    {
      "channel": 3,
      "note": 97,
      "start": 73.1144,
      "duration": 0.0161,
      "velocity": 101,
      "chip": "ym2612"
    },
    {
      "channel": 2,
      "note": 66,
      "start": 73.1155,
      "duration": 0.0161,
      "velocity": 100,
      "chip": "ym2612"
    },
    {
      "channel": 1,
      "note": 76,
      "start": 73.1252,
      "duration": 0.0179,
      "velocity": 127,
      "chip": "ym2612"
    },
    {
      "channel": 0,
      "note": 44,
      "start": 73.1268,
      "duration": 0.0181,
      "velocity": 115,
      "chip": "ym2612"
    },
    {
      "channel": 5,
      "note": 90,
      "start": 73.128,
      "duration": 0.0181,
      "velocity": 101,
      "chip": "ym2612"
    },
    {
      "channel": 4,
      "note": 94,
      "start": 73.1293,
      "duration": 0.0181,
      "velocity": 101,
      "chip": "ym2612"
    },
    {
      "channel": 3,
      "note": 97,
      "start": 73.1305,
      "duration": 0.0181,
      "velocity": 101,
      "chip": "ym2612"
    },
    {
      "channel": 2,
      "note": 66,
      "start": 73.1316,
      "duration": 0.0181,
      "velocity": 100,
      "chip": "ym2612"
    },
    {
      "channel": 1,
      "note": 84,
      "start": 73.1432,
      "duration": 0.0143,
      "velocity": 127,
      "chip": "ym2612"
    },
    {
      "channel": 0,
      "note": 44,
      "start": 73.1449,
      "duration": 0.0142,
      "velocity": 115,
      "chip": "ym2612"
    },
    {
      "channel": 5,
      "note": 90,
      "start": 73.1461,
      "duration": 0.0142,
      "velocity": 101,
      "chip": "ym2612"
    },
    {
      "channel": 4,
      "note": 94,
      "start": 73.1473,
      "duration": 0.0142,
      "velocity": 101,
      "chip": "ym2612"
    },
    {
      "channel": 3,
      "note": 97,
      "start": 73.1485,
      "duration": 0.0142,
      "velocity": 101,
      "chip": "ym2612"
    },
    {
      "channel": 2,
      "note": 66,
      "start": 73.1497,
      "duration": 0.0142,
      "velocity": 100,
      "chip": "ym2612"
    },
    {
      "channel": 1,
      "note": 82,
      "start": 73.1574,
      "duration": 0.016,
      "velocity": 127,
      "chip": "ym2612"
    },
    {
      "channel": 0,
      "note": 45,
      "start": 73.1591,
      "duration": 0.0161,
      "velocity": 115,
      "chip": "ym2612"
    },
    {
      "channel": 5,
      "note": 90,
      "start": 73.1603,
      "duration": 0.016,
      "velocity": 101,
      "chip": "ym2612"
    },
    {
      "channel": 4,
      "note": 94,
      "start": 73.1615,
      "duration": 0.016,
      "velocity": 101,
      "chip": "ym2612"
    },
    {
      "channel": 3,
      "note": 97,
      "start": 73.1627,
      "duration": 0.016,
      "velocity": 101,
      "chip": "ym2612"
    },
    {
      "channel": 2,
      "note": 66,
      "start": 73.1639,
      "duration": 0.016,
      "velocity": 100,
      "chip": "ym2612"
    },
    {
      "channel": 1,
      "note": 81,
      "start": 73.1735,
      "duration": 0.0161,
      "velocity": 127,
      "chip": "ym2612"
    },
    {
      "channel": 0,
      "note": 45,
      "start": 73.1752,
      "duration": 0.0161,
      "velocity": 115,
      "chip": "ym2612"
    },
    {
      "channel": 5,
      "note": 90,
      "start": 73.1763,
      "duration": 0.0161,
      "velocity": 101,
      "chip": "ym2612"
    },
    {
      "channel": 4,
      "note": 94,
      "start": 73.1775,
      "duration": 0.0162,
      "velocity": 101,
      "chip": "ym2612"
    },
    {
      "channel": 3,
      "note": 97,
      "start": 73.1787,
      "duration": 0.0162,
      "velocity": 101,
      "chip": "ym2612"
    },
    {
      "channel": 2,
      "note": 66,
      "start": 73.18,
      "duration": 0.0161,
      "velocity": 100,
      "chip": "ym2612"
    },
    {
      "channel": 1,
      "note": 79,
      "start": 73.1895,
      "duration": 0.0161,
      "velocity": 127,
      "chip": "ym2612"
    },
    {
      "channel": 0,
      "note": 46,
      "start": 73.1913,
      "duration": 0.0161,
      "velocity": 115,
      "chip": "ym2612"
    },
    {
      "channel": 5,
      "note": 90,
      "start": 73.1925,
      "duration": 0.0161,
      "velocity": 101,
      "chip": "ym2612"
    },
    {
      "channel": 4,
      "note": 94,
      "start": 73.1937,
      "duration": 0.0161,
      "velocity": 101,
      "chip": "ym2612"
    },
    {
      "channel": 3,
      "note": 97,
      "start": 73.1949,
      "duration": 0.0161,
      "velocity": 101,
      "chip": "ym2612"
    },
    {
      "channel": 2,
      "note": 66,
      "start": 73.196,
      "duration": 0.0161,
      "velocity": 100,
      "chip": "ym2612"
    },
    {
      "channel": 1,
      "note": 77,
      "start": 73.2056,
      "duration": 0.0161,
      "velocity": 127,
      "chip": "ym2612"
    },
    {
      "channel": 0,
      "note": 46,
      "start": 73.2074,
      "duration": 0.0161,
      "velocity": 115,
      "chip": "ym2612"
    },
    {
      "channel": 5,
      "note": 90,
      "start": 73.2086,
      "duration": 0.0161,
      "velocity": 101,
      "chip": "ym2612"
    },
    {
      "channel": 4,
      "note": 94,
      "start": 73.2098,
      "duration": 0.0162,
      "velocity": 101,
      "chip": "ym2612"
    },
    {
      "channel": 3,
      "note": 97,
      "start": 73.211,
      "duration": 0.0161,
      "velocity": 101,
      "chip": "ym2612"
    },
    {
      "channel": 2,
      "note": 66,
      "start": 73.2121,
      "duration": 0.0163,
      "velocity": 100,
      "chip": "ym2612"
    },
    {
      "channel": 1,
      "note": 76,
      "start": 73.2217,
      "duration": 0.0161,
      "velocity": 127,
      "chip": "ym2612"
    },
    {
      "channel": 0,
      "note": 47,
      "start": 73.2235,
      "duration": 0.0161,
      "velocity": 115,
      "chip": "ym2612"
    },
    {
      "channel": 5,
      "note": 90,
      "start": 73.2247,
      "duration": 0.0161,
      "velocity": 101,
      "chip": "ym2612"
    },
    {
      "channel": 4,
      "note": 94,
      "start": 73.2259,
      "duration": 0.016,
      "velocity": 101,
      "chip": "ym2612"
    },
    {
      "channel": 3,
      "note": 97,
      "start": 73.2271,
      "duration": 0.016,
      "velocity": 101,
      "chip": "ym2612"
    },
    {
      "channel": 2,
      "note": 66,
      "start": 73.2284,
      "duration": 0.0159,
      "velocity": 100,
      "chip": "ym2612"
    },
    {
      "channel": 1,
      "note": 74,
      "start": 73.2378,
      "duration": 0.018,
      "velocity": 127,
      "chip": "ym2612"
    },
    {
      "channel": 0,
      "note": 47,
      "start": 73.2395,
      "duration": 0.0198,
      "velocity": 115,
      "chip": "ym2612"
    },
    {
      "channel": 5,
      "note": 90,
      "start": 73.2408,
      "duration": 0.0198,
      "velocity": 101,
      "chip": "ym2612"
    },
    {
      "channel": 4,
      "note": 94,
      "start": 73.242,
      "duration": 0.0198,
      "velocity": 101,
      "chip": "ym2612"
    },
    {
      "channel": 3,
      "note": 97,
      "start": 73.2432,
      "duration": 0.0198,
      "velocity": 101,
      "chip": "ym2612"
    },
    {
      "channel": 2,
      "note": 66,
      "start": 73.2443,
      "duration": 0.0203,
      "velocity": 100,
      "chip": "ym2612"
    },
    {
      "channel": 1,
      "note": 78,
      "start": 73.2558,
      "duration": 0.0144,
      "velocity": 127,
      "chip": "ym2612"
    },
    {
      "channel": 0,
      "note": 36,
      "start": 73.2594,
      "duration": 0.0125,
      "velocity": 115,
      "chip": "ym2612"
    },
    {
      "channel": 5,
      "note": 90,
      "start": 73.2606,
      "duration": 0.0125,
      "velocity": 101,
      "chip": "ym2612"
    },
    {
      "channel": 4,
      "note": 94,
      "start": 73.2618,
      "duration": 0.0125,
      "velocity": 101,
      "chip": "ym2612"
    },
    {
      "channel": 3,
      "note": 97,
      "start": 73.263,
      "duration": 0.0125,
      "velocity": 101,
      "chip": "ym2612"
    },
    {
      "channel": 2,
      "note": 54,
      "start": 73.2646,
      "duration": 0.0121,
      "velocity": 100,
      "chip": "ym2612"
    },
    {
      "channel": 1,
      "note": 76,
      "start": 73.2702,
      "duration": 0.0163,
      "velocity": 127,
      "chip": "ym2612"
    },
    {
      "channel": 0,
      "note": 36,
      "start": 73.2719,
      "duration": 0.0163,
      "velocity": 115,
      "chip": "ym2612"
    },
    {
      "channel": 5,
      "note": 90,
      "start": 73.2731,
      "duration": 0.0163,
      "velocity": 101,
      "chip": "ym2612"
    },
    {
      "channel": 4,
      "note": 94,
      "start": 73.2744,
      "duration": 0.0163,
      "velocity": 101,
      "chip": "ym2612"
    },
    {
      "channel": 3,
      "note": 97,
      "start": 73.2756,
      "duration": 0.0163,
      "velocity": 101,
      "chip": "ym2612"
    },
    {
      "channel": 2,
      "note": 54,
      "start": 73.2768,
      "duration": 0.0162,
      "velocity": 100,
      "chip": "ym2612"
    },
    {
      "channel": 1,
      "note": 75,
      "start": 73.2866,
      "duration": 0.0163,
      "velocity": 127,
      "chip": "ym2612"
    },
    {
      "channel": 0,
      "note": 37,
      "start": 73.2882,
      "duration": 0.0163,
      "velocity": 115,
      "chip": "ym2612"
    },
    {
      "channel": 5,
      "note": 90,
      "start": 73.2894,
      "duration": 0.0163,
      "velocity": 101,
      "chip": "ym2612"
    },
    {
      "channel": 4,
      "note": 94,
      "start": 73.2906,
      "duration": 0.0163,
      "velocity": 101,
      "chip": "ym2612"
    },
    {
      "channel": 3,
      "note": 97,
      "start": 73.2918,
      "duration": 0.0163,
      "velocity": 101,
      "chip": "ym2612"
    },
    {
      "channel": 2,
      "note": 54,
      "start": 73.293,
      "duration": 0.0163,
      "velocity": 100,
      "chip": "ym2612"
    },
    {
      "channel": 1,
      "note": 73,
      "start": 73.3029,
      "duration": 0.0161,
      "velocity": 127,
      "chip": "ym2612"
    },
    {
      "channel": 0,
      "note": 37,
      "start": 73.3046,
      "duration": 0.0161,
      "velocity": 115,
      "chip": "ym2612"
    },
    {
      "channel": 5,
      "note": 90,
      "start": 73.3058,
      "duration": 0.0161,
      "velocity": 101,
      "chip": "ym2612"
    },
    {
      "channel": 4,
      "note": 94,
      "start": 73.307,
      "duration": 0.0161,
      "velocity": 101,
      "chip": "ym2612"
    },
    {
      "channel": 3,
      "note": 97,
      "start": 73.3082,
      "duration": 0.0161,
      "velocity": 101,
      "chip": "ym2612"
    },
    {
      "channel": 2,
      "note": 54,
      "start": 73.3093,
      "duration": 0.0161,
      "velocity": 100,
      "chip": "ym2612"
    },
    {
      "channel": 1,
      "note": 71,
      "start": 73.3189,
      "duration": 0.0161,
      "velocity": 127,
      "chip": "ym2612"
    },
    {
      "channel": 0,
      "note": 38,
      "start": 73.3207,
      "duration": 0.0161,
      "velocity": 115,
      "chip": "ym2612"
    },
    {
      "channel": 5,
      "note": 90,
      "start": 73.3219,
      "duration": 0.0161,
      "velocity": 101,
      "chip": "ym2612"
    },
    {
      "channel": 4,
      "note": 94,
      "start": 73.3231,
      "duration": 0.0161,
      "velocity": 101,
      "chip": "ym2612"
    },
    {
      "channel": 3,
      "note": 97,
      "start": 73.3243,
      "duration": 0.0161,
      "velocity": 101,
      "chip": "ym2612"
    },
    {
      "channel": 2,
      "note": 54,
      "start": 73.3254,
      "duration": 0.0161,
      "velocity": 100,
      "chip": "ym2612"
    },
    {
      "channel": 1,
      "note": 70,
      "start": 73.335,
      "duration": 0.018,
      "velocity": 127,
      "chip": "ym2612"
    },
    {
      "channel": 0,
      "note": 38,
      "start": 73.3368,
      "duration": 0.0181,
      "velocity": 115,
      "chip": "ym2612"
    },
    {
      "channel": 5,
      "note": 90,
      "start": 73.338,
      "duration": 0.0181,
      "velocity": 101,
      "chip": "ym2612"
    },
    {
      "channel": 4,
      "note": 94,
      "start": 73.3392,
      "duration": 0.0181,
      "velocity": 101,
      "chip": "ym2612"
    },
    {
      "channel": 3,
      "note": 97,
      "start": 73.3404,
      "duration": 0.018,
      "velocity": 101,
      "chip": "ym2612"
    },
    {
      "channel": 2,
      "note": 54,
      "start": 73.3415,
      "duration": 0.0181,
      "velocity": 100,
      "chip": "ym2612"
    },
    {
      "channel": 1,
      "note": 78,
      "start": 73.3531,
      "duration": 0.0136,
      "velocity": 127,
      "chip": "ym2612"
    },
    {
      "channel": 0,
      "note": 39,
      "start": 73.3548,
      "duration": 0.0142,
      "velocity": 115,
      "chip": "ym2612"
    },
    {
      "channel": 5,
      "note": 90,
      "start": 73.356,
      "duration": 0.0142,
      "velocity": 101,
      "chip": "ym2612"
    },
    {
      "channel": 4,
      "note": 94,
      "start": 73.3572,
      "duration": 0.0142,
      "velocity": 101,
      "chip": "ym2612"
    },
    {
      "channel": 3,
      "note": 97,
      "start": 73.3584,
      "duration": 0.0142,
      "velocity": 101,
      "chip": "ym2612"
    },
    {
      "channel": 2,
      "note": 54,
      "start": 73.3596,
      "duration": 0.0142,
      "velocity": 100,
      "chip": "ym2612"
    },
    {
      "channel": 1,
      "note": 76,
      "start": 73.3667,
      "duration": 0.016,
      "velocity": 127,
      "chip": "ym2612"
    },
    {
      "channel": 0,
      "note": 39,
      "start": 73.3691,
      "duration": 0.016,
      "velocity": 115,
      "chip": "ym2612"
    },
    {
      "channel": 5,
      "note": 90,
      "start": 73.3702,
      "duration": 0.0161,
      "velocity": 101,
      "chip": "ym2612"
    },
    {
      "channel": 4,
      "note": 94,
      "start": 73.3714,
      "duration": 0.0161,
      "velocity": 101,
      "chip": "ym2612"
    },
    {
      "channel": 3,
      "note": 97,
      "start": 73.3726,
      "duration": 0.0161,
      "velocity": 101,
      "chip": "ym2612"
    },
    {
      "channel": 2,
      "note": 54,
      "start": 73.3738,
      "duration": 0.0161,
      "velocity": 100,
      "chip": "ym2612"
    },
    {
      "channel": 1,
      "note": 75,
      "start": 73.3827,
      "duration": 0.0162,
      "velocity": 127,
      "chip": "ym2612"
    },
    {
      "channel": 0,
      "note": 40,
      "start": 73.385,
      "duration": 0.0158,
      "velocity": 115,
      "chip": "ym2612"
    },
    {
      "channel": 5,
      "note": 90,
      "start": 73.3863,
      "duration": 0.016,
      "velocity": 101,
      "chip": "ym2612"
    },
    {
      "channel": 4,
      "note": 94,
      "start": 73.3875,
      "duration": 0.0161,
      "velocity": 101,
      "chip": "ym2612"
    },
    {
      "channel": 3,
      "note": 97,
      "start": 73.3887,
      "duration": 0.0161,
      "velocity": 101,
      "chip": "ym2612"
    },
    {
      "channel": 2,
      "note": 54,
      "start": 73.3899,
      "duration": 0.0161,
      "velocity": 100,
      "chip": "ym2612"
    },
    {
      "channel": 1,
      "note": 73,
      "start": 73.3989,
      "duration": 0.0161,
      "velocity": 127,
      "chip": "ym2612"
    },
    {
      "channel": 0,
      "note": 40,
      "start": 73.4008,
      "duration": 0.0158,
      "velocity": 115,
      "chip": "ym2612"
    },
    {
      "channel": 5,
      "note": 90,
      "start": 73.4023,
      "duration": 0.0161,
      "velocity": 101,
      "chip": "ym2612"
    },
    {
      "channel": 4,
      "note": 94,
      "start": 73.4036,
      "duration": 0.0161,
      "velocity": 101,
      "chip": "ym2612"
    },
    {
      "channel": 3,
      "note": 97,
      "start": 73.4048,
      "duration": 0.0161,
      "velocity": 101,
      "chip": "ym2612"
    },
    {
      "channel": 2,
      "note": 54,
      "start": 73.406,
      "duration": 0.0161,
      "velocity": 100,
      "chip": "ym2612"
    },
    {
      "channel": 1,
      "note": 71,
      "start": 73.415,
      "duration": 0.0161,
      "velocity": 127,
      "chip": "ym2612"
    },
    {
      "channel": 0,
      "note": 40,
      "start": 73.4166,
      "duration": 0.0161,
      "velocity": 115,
      "chip": "ym2612"
    },
    {
      "channel": 5,
      "note": 90,
      "start": 73.4184,
      "duration": 0.0158,
      "velocity": 101,
      "chip": "ym2612"
    },
    {
      "channel": 4,
      "note": 94,
      "start": 73.4197,
      "duration": 0.0161,
      "velocity": 101,
      "chip": "ym2612"
    },
    {
      "channel": 3,
      "note": 97,
      "start": 73.4209,
      "duration": 0.0161,
      "velocity": 101,
      "chip": "ym2612"
    },
    {
      "channel": 2,
      "note": 54,
      "start": 73.4221,
      "duration": 0.0161,
      "velocity": 100,
      "chip": "ym2612"
    },
    {
      "channel": 1,
      "note": 70,
      "start": 73.4311,
      "duration": 0.0161,
      "velocity": 127,
      "chip": "ym2612"
    },
    {
      "channel": 0,
      "note": 41,
      "start": 73.4327,
      "duration": 0.0161,
      "velocity": 115,
      "chip": "ym2612"
    },
    {
      "channel": 5,
      "note": 90,
      "start": 73.4342,
      "duration": 0.0158,
      "velocity": 101,
      "chip": "ym2612"
    },
    {
      "channel": 4,
      "note": 94,
      "start": 73.4358,
      "duration": 0.016,
      "velocity": 101,
      "chip": "ym2612"
    },
    {
      "channel": 3,
      "note": 97,
      "start": 73.437,
      "duration": 0.0161,
      "velocity": 101,
      "chip": "ym2612"
    },
    {
      "channel": 2,
      "note": 54,
      "start": 73.4382,
      "duration": 0.0161,
      "velocity": 100,
      "chip": "ym2612"
    },
    {
      "channel": 1,
      "note": 68,
      "start": 73.4472,
      "duration": 0.0179,
      "velocity": 127,
      "chip": "ym2612"
    },
    {
      "channel": 0,
      "note": 41,
      "start": 73.4488,
      "duration": 0.0181,
      "velocity": 115,
      "chip": "ym2612"
    },
    {
      "channel": 5,
      "note": 90,
      "start": 73.45,
      "duration": 0.0187,
      "velocity": 101,
      "chip": "ym2612"
    },
    {
      "channel": 4,
      "note": 94,
      "start": 73.4518,
      "duration": 0.0182,
      "velocity": 101,
      "chip": "ym2612"
    },
    {
      "channel": 3,
      "note": 97,
      "start": 73.4531,
      "duration": 0.0182,
      "velocity": 101,
      "chip": "ym2612"
    },
    {
      "channel": 2,
      "note": 54,
      "start": 73.4542,
      "duration": 0.0185,
      "velocity": 100,
      "chip": "ym2612"
    },
    {
      "channel": 1,
      "note": 71,
      "start": 73.4652,
      "duration": 0.0142,
      "velocity": 127,
      "chip": "ym2612"
    },
    {
      "channel": 0,
      "note": 42,
      "start": 73.4669,
      "duration": 0.0142,
      "velocity": 115,
      "chip": "ym2612"
    },
    {
      "channel": 5,
      "note": 90,
      "start": 73.4688,
      "duration": 0.0137,
      "velocity": 101,
      "chip": "ym2612"
    },
    {
      "channel": 4,
      "note": 94,
      "start": 73.47,
      "duration": 0.0137,
      "velocity": 101,
      "chip": "ym2612"
    },
    {
      "channel": 3,
      "note": 97,
      "start": 73.4713,
      "duration": 0.0143,
      "velocity": 101,
      "chip": "ym2612"
    },
    {
      "channel": 2,
      "note": 66,
      "start": 73.4728,
      "duration": 0.0139,
      "velocity": 100,
      "chip": "ym2612"
    },
    {
      "channel": 1,
      "note": 69,
      "start": 73.4794,
      "duration": 0.016,
      "velocity": 127,
      "chip": "ym2612"
    },
    {
      "channel": 0,
      "note": 42,
      "start": 73.4812,
      "duration": 0.016,
      "velocity": 115,
      "chip": "ym2612"
    },
    {
      "channel": 5,
      "note": 90,
      "start": 73.4824,
      "duration": 0.016,
      "velocity": 101,
      "chip": "ym2612"
    },
    {
      "channel": 4,
      "note": 94,
      "start": 73.4837,
      "duration": 0.016,
      "velocity": 101,
      "chip": "ym2612"
    },
    {
      "channel": 3,
      "note": 97,
      "start": 73.4856,
      "duration": 0.0159,
      "velocity": 101,
      "chip": "ym2612"
    },
    {
      "channel": 2,
      "note": 66,
      "start": 73.4868,
      "duration": 0.0159,
      "velocity": 100,
      "chip": "ym2612"
    },
    {
      "channel": 1,
      "note": 68,
      "start": 73.4955,
      "duration": 0.0161,
      "velocity": 127,
      "chip": "ym2612"
    },
    {
      "channel": 0,
      "note": 43,
      "start": 73.4972,
      "duration": 0.0161,
      "velocity": 115,
      "chip": "ym2612"
    },
    {
      "channel": 5,
      "note": 90,
      "start": 73.4985,
      "duration": 0.0161,
      "velocity": 101,
      "chip": "ym2612"
    },
    {
      "channel": 4,
      "note": 94,
      "start": 73.4997,
      "duration": 0.0161,
      "velocity": 101,
      "chip": "ym2612"
    },
    {
      "channel": 3,
      "note": 97,
      "start": 73.5015,
      "duration": 0.0156,
      "velocity": 101,
      "chip": "ym2612"
    },
    {
      "channel": 2,
      "note": 66,
      "start": 73.5027,
      "duration": 0.0162,
      "velocity": 100,
      "chip": "ym2612"
    },
    {
      "channel": 1,
      "note": 66,
      "start": 73.5116,
      "duration": 0.0161,
      "velocity": 127,
      "chip": "ym2612"
    },
    {
      "channel": 0,
      "note": 43,
      "start": 73.5133,
      "duration": 0.0161,
      "velocity": 115,
      "chip": "ym2612"
    },
    {
      "channel": 5,
      "note": 90,
      "start": 73.5146,
      "duration": 0.0161,
      "velocity": 101,
      "chip": "ym2612"
    },
    {
      "channel": 4,
      "note": 94,
      "start": 73.5158,
      "duration": 0.0162,
      "velocity": 101,
      "chip": "ym2612"
    },
    {
      "channel": 3,
      "note": 97,
      "start": 73.517,
      "duration": 0.0162,
      "velocity": 101,
      "chip": "ym2612"
    },
    {
      "channel": 2,
      "note": 66,
      "start": 73.5188,
      "duration": 0.0161,
      "velocity": 100,
      "chip": "ym2612"
    },
    {
      "channel": 1,
      "note": 64,
      "start": 73.5277,
      "duration": 0.0161,
      "velocity": 127,
      "chip": "ym2612"
    },
    {
      "channel": 0,
      "note": 44,
      "start": 73.5294,
      "duration": 0.0161,
      "velocity": 115,
      "chip": "ym2612"
    },
    {
      "channel": 5,
      "note": 90,
      "start": 73.5307,
      "duration": 0.016,
      "velocity": 101,
      "chip": "ym2612"
    },
    {
      "channel": 4,
      "note": 94,
      "start": 73.5319,
      "duration": 0.016,
      "velocity": 101,
      "chip": "ym2612"
    },
    {
      "channel": 3,
      "note": 97,
      "start": 73.5332,
      "duration": 0.0159,
      "velocity": 101,
      "chip": "ym2612"
    },
    {
      "channel": 2,
      "note": 66,
      "start": 73.5349,
      "duration": 0.0154,
      "velocity": 100,
      "chip": "ym2612"
    },
    {
      "channel": 1,
      "note": 63,
      "start": 73.5437,
      "duration": 0.018,
      "velocity": 127,
      "chip": "ym2612"
    },
    {
      "channel": 0,
      "note": 44,
      "start": 73.5455,
      "duration": 0.0181,
      "velocity": 115,
      "chip": "ym2612"
    },
    {
      "channel": 5,
      "note": 90,
      "start": 73.5467,
      "duration": 0.0181,
      "velocity": 101,
      "chip": "ym2612"
    },
    {
      "channel": 4,
      "note": 94,
      "start": 73.5479,
      "duration": 0.018,
      "velocity": 101,
      "chip": "ym2612"
    },
    {
      "channel": 3,
      "note": 97,
      "start": 73.5491,
      "duration": 0.0183,
      "velocity": 101,
      "chip": "ym2612"
    },
    {
      "channel": 2,
      "note": 66,
      "start": 73.5502,
      "duration": 0.0187,
      "velocity": 100,
      "chip": "ym2612"
    },
    {
      "channel": 1,
      "note": 71,
      "start": 73.5618,
      "duration": 0.0143,
      "velocity": 127,
      "chip": "ym2612"
    },
    {
      "channel": 0,
      "note": 44,
      "start": 73.5635,
      "duration": 0.0142,
      "velocity": 115,
      "chip": "ym2612"
    },
    {
      "channel": 5,
      "note": 90,
      "start": 73.5647,
      "duration": 0.0142,
      "velocity": 101,
      "chip": "ym2612"
    },
    {
      "channel": 4,
      "note": 94,
      "start": 73.5659,
      "duration": 0.0142,
      "velocity": 101,
      "chip": "ym2612"
    },
    {
      "channel": 3,
      "note": 97,
      "start": 73.5673,
      "duration": 0.014,
      "velocity": 101,
      "chip": "ym2612"
    },
    {
      "channel": 2,
      "note": 66,
      "start": 73.5689,
      "duration": 0.0136,
      "velocity": 100,
      "chip": "ym2612"
    },
    {
      "channel": 1,
      "note": 69,
      "start": 73.5761,
      "duration": 0.016,
      "velocity": 127,
      "chip": "ym2612"
    },
    {
      "channel": 0,
      "note": 45,
      "start": 73.5777,
      "duration": 0.0161,
      "velocity": 115,
      "chip": "ym2612"
    },
    {
      "channel": 5,
      "note": 90,
      "start": 73.5789,
      "duration": 0.016,
      "velocity": 101,
      "chip": "ym2612"
    },
    {
      "channel": 4,
      "note": 94,
      "start": 73.5801,
      "duration": 0.016,
      "velocity": 101,
      "chip": "ym2612"
    },
    {
      "channel": 3,
      "note": 97,
      "start": 73.5813,
      "duration": 0.016,
      "velocity": 101,
      "chip": "ym2612"
    },
    {
      "channel": 2,
      "note": 66,
      "start": 73.5826,
      "duration": 0.016,
      "velocity": 100,
      "chip": "ym2612"
    },
    {
      "channel": 1,
      "note": 68,
      "start": 73.5921,
      "duration": 0.0161,
      "velocity": 127,
      "chip": "ym2612"
    },
    {
      "channel": 0,
      "note": 45,
      "start": 73.5938,
      "duration": 0.0161,
      "velocity": 115,
      "chip": "ym2612"
    },
    {
      "channel": 5,
      "note": 90,
      "start": 73.595,
      "duration": 0.0161,
      "velocity": 101,
      "chip": "ym2612"
    },
    {
      "channel": 4,
      "note": 94,
      "start": 73.5962,
      "duration": 0.0162,
      "velocity": 101,
      "chip": "ym2612"
    },
    {
      "channel": 3,
      "note": 97,
      "start": 73.5974,
      "duration": 0.0162,
      "velocity": 101,
      "chip": "ym2612"
    },
    {
      "channel": 2,
      "note": 66,
      "start": 73.5986,
      "duration": 0.0161,
      "velocity": 100,
      "chip": "ym2612"
    },
    {
      "channel": 1,
      "note": 66,
      "start": 73.6082,
      "duration": 0.0161,
      "velocity": 127,
      "chip": "ym2612"
    },
    {
      "channel": 0,
      "note": 46,
      "start": 73.6099,
      "duration": 0.0161,
      "velocity": 115,
      "chip": "ym2612"
    },
    {
      "channel": 2,
      "note": 66,
      "start": 73.6147,
      "duration": 0.016,
      "velocity": 100,
      "chip": "ym2612"
    },
    {
      "channel": 1,
      "note": 64,
      "start": 73.6243,
      "duration": 0.0161,
      "velocity": 127,
      "chip": "ym2612"
    },
    {
      "channel": 0,
      "note": 46,
      "start": 73.626,
      "duration": 0.0161,
      "velocity": 115,
      "chip": "ym2612"
    },
    {
      "channel": 2,
      "note": 66,
      "start": 73.6308,
      "duration": 0.0162,
      "velocity": 100,
      "chip": "ym2612"
    },
    {
      "channel": 1,
      "note": 63,
      "start": 73.6404,
      "duration": 0.0161,
      "velocity": 127,
      "chip": "ym2612"
    },
    {
      "channel": 0,
      "note": 47,
      "start": 73.6421,
      "duration": 0.0161,
      "velocity": 115,
      "chip": "ym2612"
    },
    {
      "channel": 2,
      "note": 66,
      "start": 73.647,
      "duration": 0.0162,
      "velocity": 100,
      "chip": "ym2612"
    },
    {
      "channel": 1,
      "note": 61,
      "start": 73.6565,
      "duration": 0.0173,
      "velocity": 116,
      "chip": "ym2612"
    },
    {
      "channel": 0,
      "note": 47,
      "start": 73.6582,
      "duration": 0.0192,
      "velocity": 115,
      "chip": "ym2612"
    },
    {
      "channel": 2,
      "note": 66,
      "start": 73.6632,
      "duration": 0.02,
      "velocity": 100,
      "chip": "ym2612"
    },
    {
      "channel": 1,
      "note": 68,
      "start": 73.6738,
      "duration": 0.0144,
      "velocity": 116,
      "chip": "ym2612"
    },
    {
      "channel": 0,
      "note": 36,
      "start": 73.6774,
      "duration": 0.0126,
      "velocity": 115,
      "chip": "ym2612"
    },
    {
      "channel": 2,
      "note": 54,
      "start": 73.6833,
      "duration": 0.0118,
      "velocity": 100,
      "chip": "ym2612"
    },
    {
      "channel": 1,
      "note": 68,
      "start": 73.6882,
      "duration": 0.016,
      "velocity": 116,
      "chip": "ym2612"
    },
    {
      "channel": 0,
      "note": 36,
      "start": 73.69,
      "duration": 0.016,
      "velocity": 115,
      "chip": "ym2612"
    },
    {
      "channel": 2,
      "note": 54,
      "start": 73.695,
      "duration": 0.0159,
      "velocity": 100,
      "chip": "ym2612"
    },
    {
      "channel": 1,
      "note": 68,
      "start": 73.7042,
      "duration": 0.0161,
      "velocity": 116,
      "chip": "ym2612"
    },
    {
      "channel": 0,
      "note": 37,
      "start": 73.706,
      "duration": 0.0161,
      "velocity": 115,
      "chip": "ym2612"
    },
    {
      "channel": 2,
      "note": 54,
      "start": 73.7109,
      "duration": 0.0161,
      "velocity": 100,
      "chip": "ym2612"
    },
    {
      "channel": 1,
      "note": 68,
      "start": 73.7203,
      "duration": 0.0162,
      "velocity": 116,
      "chip": "ym2612"
    },
    {
      "channel": 0,
      "note": 37,
      "start": 73.7221,
      "duration": 0.0161,
      "velocity": 115,
      "chip": "ym2612"
    },
    {
      "channel": 2,
      "note": 54,
      "start": 73.7271,
      "duration": 0.0162,
      "velocity": 100,
      "chip": "ym2612"
    },
    {
      "channel": 1,
      "note": 68,
      "start": 73.7365,
      "duration": 0.0163,
      "velocity": 116,
      "chip": "ym2612"
    },
    {
      "channel": 0,
      "note": 38,
      "start": 73.7382,
      "duration": 0.0163,
      "velocity": 115,
      "chip": "ym2612"
    },
    {
      "channel": 2,
      "note": 54,
      "start": 73.7432,
      "duration": 0.0163,
      "velocity": 100,
      "chip": "ym2612"
    },
    {
      "channel": 1,
      "note": 68,
      "start": 73.7529,
      "duration": 0.018,
      "velocity": 116,
      "chip": "ym2612"
    },
    {
      "channel": 0,
      "note": 38,
      "start": 73.7545,
      "duration": 0.0181,
      "velocity": 115,
      "chip": "ym2612"
    },
    {
      "channel": 2,
      "note": 54,
      "start": 73.7595,
      "duration": 0.0181,
      "velocity": 100,
      "chip": "ym2612"
    },
    {
      "channel": 1,
      "note": 68,
      "start": 73.7709,
      "duration": 0.0145,
      "velocity": 116,
      "chip": "ym2612"
    },
    {
      "channel": 0,
      "note": 39,
      "start": 73.7726,
      "duration": 0.0145,
      "velocity": 115,
      "chip": "ym2612"
    },
    {
      "channel": 2,
      "note": 54,
      "start": 73.7777,
      "duration": 0.0144,
      "velocity": 100,
      "chip": "ym2612"
    },
    {
      "channel": 1,
      "note": 68,
      "start": 73.7854,
      "duration": 0.016,
      "velocity": 116,
      "chip": "ym2612"
    },
    {
      "channel": 0,
      "note": 39,
      "start": 73.7871,
      "duration": 0.016,
      "velocity": 115,
      "chip": "ym2612"
    },
    {
      "channel": 2,
      "note": 54,
      "start": 73.7921,
      "duration": 0.016,
      "velocity": 100,
      "chip": "ym2612"
    },
    {
      "channel": 1,
      "note": 68,
      "start": 73.8014,
      "duration": 0.0156,
      "velocity": 116,
      "chip": "ym2612"
    },
    {
      "channel": 0,
      "note": 40,
      "start": 73.8032,
      "duration": 0.0161,
      "velocity": 115,
      "chip": "ym2612"
    },
    {
      "channel": 2,
      "note": 54,
      "start": 73.8081,
      "duration": 0.0162,
      "velocity": 100,
      "chip": "ym2612"
    },
    {
      "channel": 1,
      "note": 68,
      "start": 73.817,
      "duration": 0.0161,
      "velocity": 116,
      "chip": "ym2612"
    },
    {
      "channel": 0,
      "note": 40,
      "start": 73.8193,
      "duration": 0.0161,
      "velocity": 115,
      "chip": "ym2612"
    },
    {
      "channel": 2,
      "note": 54,
      "start": 73.8243,
      "duration": 0.016,
      "velocity": 100,
      "chip": "ym2612"
    },
    {
      "channel": 1,
      "note": 68,
      "start": 73.8331,
      "duration": 0.0161,
      "velocity": 116,
      "chip": "ym2612"
    },
    {
      "channel": 0,
      "note": 40,
      "start": 73.8354,
      "duration": 0.016,
      "velocity": 115,
      "chip": "ym2612"
    },
    {
      "channel": 2,
      "note": 54,
      "start": 73.8403,
      "duration": 0.0161,
      "velocity": 100,
      "chip": "ym2612"
    },
    {
      "channel": 1,
      "note": 68,
      "start": 73.8492,
      "duration": 0.0161,
      "velocity": 116,
      "chip": "ym2612"
    },
    {
      "channel": 0,
      "note": 41,
      "start": 73.8514,
      "duration": 0.0156,
      "velocity": 115,
      "chip": "ym2612"
    },
    {
      "channel": 2,
      "note": 54,
      "start": 73.8565,
      "duration": 0.0161,
      "velocity": 100,
      "chip": "ym2612"
    },
    {
      "channel": 1,
      "note": 68,
      "start": 73.8653,
      "duration": 0.0178,
      "velocity": 105,
      "chip": "ym2612"
    },
    {
      "channel": 0,
      "note": 41,
      "start": 73.867,
      "duration": 0.0185,
      "velocity": 115,
      "chip": "ym2612"
    },
    {
      "channel": 2,
      "note": 54,
      "start": 73.8726,
      "duration": 0.0189,
      "velocity": 100,
      "chip": "ym2612"
    },
    {
      "channel": 1,
      "note": 105,
      "start": 73.8831,
      "duration": 0.0144,
      "velocity": 105,
      "chip": "ym2612"
    },
    {
      "channel": 0,
      "note": 42,
      "start": 73.8854,
      "duration": 0.0138,
      "velocity": 115,
      "chip": "ym2612"
    },
    {
      "channel": 5,
      "note": 92,
      "start": 73.8869,
      "duration": 0.0135,
      "velocity": 101,
      "chip": "ym2612"
    },
    {
      "channel": 4,
      "note": 97,
      "start": 73.8885,
      "duration": 0.0138,
      "velocity": 101,
      "chip": "ym2612"
    },
    {
      "channel": 3,
      "note": 100,
      "start": 73.89,
      "duration": 0.0135,
      "velocity": 101,
      "chip": "ym2612"
    },
    {
      "channel": 2,
      "note": 66,
      "start": 73.8915,
      "duration": 0.0133,
      "velocity": 100,
      "chip": "ym2612"
    },
    {
      "channel": 1,
      "note": 105,
      "start": 73.8975,
      "duration": 0.016,
      "velocity": 105,
      "chip": "ym2612"
    },
    {
      "channel": 0,
      "note": 42,
      "start": 73.8992,
      "duration": 0.016,
      "velocity": 115,
      "chip": "ym2612"
    },
    {
      "channel": 5,
      "note": 92,
      "start": 73.9004,
      "duration": 0.016,
      "velocity": 101,
      "chip": "ym2612"
    },
    {
      "channel": 4,
      "note": 97,
      "start": 73.9023,
      "duration": 0.0159,
      "velocity": 101,
      "chip": "ym2612"
    },
    {
      "channel": 3,
      "note": 100,
      "start": 73.9035,
      "duration": 0.0159,
      "velocity": 101,
      "chip": "ym2612"
    },
    {
      "channel": 2,
      "note": 66,
      "start": 73.9048,
      "duration": 0.0158,
      "velocity": 100,
      "chip": "ym2612"
    },
    {
      "channel": 1,
      "note": 105,
      "start": 73.9135,
      "duration": 0.0161,
      "velocity": 105,
      "chip": "ym2612"
    },
    {
      "channel": 0,
      "note": 43,
      "start": 73.9153,
      "duration": 0.0161,
      "velocity": 115,
      "chip": "ym2612"
    },
    {
      "channel": 5,
      "note": 92,
      "start": 73.9165,
      "duration": 0.0161,
      "velocity": 101,
      "chip": "ym2612"
    },
    {
      "channel": 4,
      "note": 97,
      "start": 73.9182,
      "duration": 0.0156,
      "velocity": 101,
      "chip": "ym2612"
    },
    {
      "channel": 3,
      "note": 100,
      "start": 73.9194,
      "duration": 0.0161,
      "velocity": 101,
      "chip": "ym2612"
    },
    {
      "channel": 2,
      "note": 66,
      "start": 73.9205,
      "duration": 0.0162,
      "velocity": 100,
      "chip": "ym2612"
    },
    {
      "channel": 1,
      "note": 105,
      "start": 73.9297,
      "duration": 0.0161,
      "velocity": 105,
      "chip": "ym2612"
    },
    {
      "channel": 0,
      "note": 43,
      "start": 73.9313,
      "duration": 0.0161,
      "velocity": 115,
      "chip": "ym2612"
    },
    {
      "channel": 5,
      "note": 92,
      "start": 73.9326,
      "duration": 0.0161,
      "velocity": 101,
      "chip": "ym2612"
    },
    {
      "channel": 4,
      "note": 97,
      "start": 73.9338,
      "duration": 0.0161,
      "velocity": 101,
      "chip": "ym2612"
    },
    {
      "channel": 3,
      "note": 100,
      "start": 73.9355,
      "duration": 0.0161,
      "velocity": 101,
      "chip": "ym2612"
    },
    {
      "channel": 2,
      "note": 66,
      "start": 73.9367,
      "duration": 0.0161,
      "velocity": 100,
      "chip": "ym2612"
    },
    {
      "channel": 1,
      "note": 105,
      "start": 73.9458,
      "duration": 0.0161,
      "velocity": 105,
      "chip": "ym2612"
    },
    {
      "channel": 0,
      "note": 44,
      "start": 73.9474,
      "duration": 0.0161,
      "velocity": 115,
      "chip": "ym2612"
    },
    {
      "channel": 5,
      "note": 92,
      "start": 73.9486,
      "duration": 0.0161,
      "velocity": 101,
      "chip": "ym2612"
    },
    {
      "channel": 4,
      "note": 97,
      "start": 73.9499,
      "duration": 0.0161,
      "velocity": 101,
      "chip": "ym2612"
    },
    {
      "channel": 3,
      "note": 100,
      "start": 73.9516,
      "duration": 0.0155,
      "velocity": 101,
      "chip": "ym2612"
    },
    {
      "channel": 2,
      "note": 66,
      "start": 73.9528,
      "duration": 0.0161,
      "velocity": 100,
      "chip": "ym2612"
    },
    {
      "channel": 1,
      "note": 105,
      "start": 73.9619,
      "duration": 0.0161,
      "velocity": 105,
      "chip": "ym2612"
    },
    {
      "channel": 0,
      "note": 44,
      "start": 73.9635,
      "duration": 0.0161,
      "velocity": 115,
      "chip": "ym2612"
    },
    {
      "channel": 5,
      "note": 92,
      "start": 73.9647,
      "duration": 0.0161,
      "velocity": 101,
      "chip": "ym2612"
    },
    {
      "channel": 4,
      "note": 97,
      "start": 73.9659,
      "duration": 0.0161,
      "velocity": 101,
      "chip": "ym2612"
    },
    {
      "channel": 3,
      "note": 100,
      "start": 73.9671,
      "duration": 0.0161,
      "velocity": 101,
      "chip": "ym2612"
    },
    {
      "channel": 2,
      "note": 66,
      "start": 73.9689,
      "duration": 0.0161,
      "velocity": 100,
      "chip": "ym2612"
    },
    {
      "channel": 1,
      "note": 105,
      "start": 73.978,
      "duration": 0.0161,
      "velocity": 105,
      "chip": "ym2612"
    },
    {
      "channel": 0,
      "note": 44,
      "start": 73.9797,
      "duration": 0.0161,
      "velocity": 115,
      "chip": "ym2612"
    },
    {
      "channel": 5,
      "note": 92,
      "start": 73.9808,
      "duration": 0.0162,
      "velocity": 101,
      "chip": "ym2612"
    },
    {
      "channel": 4,
      "note": 97,
      "start": 73.982,
      "duration": 0.0162,
      "velocity": 101,
      "chip": "ym2612"
    },
    {
      "channel": 3,
      "note": 100,
      "start": 73.9832,
      "duration": 0.0163,
      "velocity": 101,
      "chip": "ym2612"
    },
    {
      "channel": 2,
      "note": 66,
      "start": 73.985,
      "duration": 0.016,
      "velocity": 100,
      "chip": "ym2612"
    },
    {
      "channel": 1,
      "note": 105,
      "start": 73.9941,
      "duration": 0.0161,
      "velocity": 105,
      "chip": "ym2612"
    },
    {
      "channel": 0,
      "note": 45,
      "start": 73.9958,
      "duration": 0.0161,
      "velocity": 115,
      "chip": "ym2612"
    },
    {
      "channel": 5,
      "note": 92,
      "start": 73.9971,
      "duration": 0.016,
      "velocity": 101,
      "chip": "ym2612"
    },
    {
      "channel": 4,
      "note": 97,
      "start": 73.9983,
      "duration": 0.016,
      "velocity": 101,
      "chip": "ym2612"
    },
    {
      "channel": 3,
      "note": 100,
      "start": 73.9995,
      "duration": 0.016,
      "velocity": 101,
      "chip": "ym2612"
    },
    {
      "channel": 2,
      "note": 66,
      "start": 74.0009,
      "duration": 0.0159,
      "velocity": 100,
      "chip": "ym2612"
    },
    {
      "channel": 1,
      "note": 105,
      "start": 74.0102,
      "duration": 0.0161,
      "velocity": 105,
      "chip": "ym2612"
    },
    {
      "channel": 0,
      "note": 45,
      "start": 74.0119,
      "duration": 0.0161,
      "velocity": 115,
      "chip": "ym2612"
    },
    {
      "channel": 5,
      "note": 92,
      "start": 74.0131,
      "duration": 0.0161,
      "velocity": 101,
      "chip": "ym2612"
    },
    {
      "channel": 4,
      "note": 97,
      "start": 74.0143,
      "duration": 0.0161,
      "velocity": 101,
      "chip": "ym2612"
    },
    {
      "channel": 3,
      "note": 100,
      "start": 74.0156,
      "duration": 0.0161,
      "velocity": 101,
      "chip": "ym2612"
    },
    {
      "channel": 2,
      "note": 66,
      "start": 74.0168,
      "duration": 0.016,
      "velocity": 100,
      "chip": "ym2612"
    },
    {
      "channel": 1,
      "note": 105,
      "start": 74.0263,
      "duration": 0.0161,
      "velocity": 105,
      "chip": "ym2612"
    },
    {
      "channel": 0,
      "note": 46,
      "start": 74.028,
      "duration": 0.0161,
      "velocity": 115,
      "chip": "ym2612"
    },
    {
      "channel": 2,
      "note": 66,
      "start": 74.0328,
      "duration": 0.0161,
      "velocity": 100,
      "chip": "ym2612"
    },
    {
      "channel": 1,
      "note": 105,
      "start": 74.0424,
      "duration": 0.0161,
      "velocity": 105,
      "chip": "ym2612"
    },
    {
      "channel": 0,
      "note": 46,
      "start": 74.0441,
      "duration": 0.0161,
      "velocity": 115,
      "chip": "ym2612"
    },
    {
      "channel": 2,
      "note": 66,
      "start": 74.0489,
      "duration": 0.0163,
      "velocity": 100,
      "chip": "ym2612"
    },
    {
      "channel": 1,
      "note": 105,
      "start": 74.0584,
      "duration": 0.0161,
      "velocity": 105,
      "chip": "ym2612"
    },
    {
      "channel": 0,
      "note": 47,
      "start": 74.0602,
      "duration": 0.0161,
      "velocity": 115,
      "chip": "ym2612"
    },
    {
      "channel": 2,
      "note": 66,
      "start": 74.0652,
      "duration": 0.0158,
      "velocity": 100,
      "chip": "ym2612"
    },
    {
      "channel": 1,
      "note": 105,
      "start": 74.0745,
      "duration": 0.0179,
      "velocity": 116,
      "chip": "ym2612"
    },
    {
      "channel": 0,
      "note": 47,
      "start": 74.0763,
      "duration": 0.0197,
      "velocity": 115,
      "chip": "ym2612"
    },
    {
      "channel": 2,
      "note": 66,
      "start": 74.081,
      "duration": 0.0217,
      "velocity": 100,
      "chip": "ym2612"
    },
    {
      "channel": 1,
      "note": 68,
      "start": 74.0925,
      "duration": 0.0144,
      "velocity": 116,
      "chip": "ym2612"
    },
    {
      "channel": 0,
      "note": 36,
      "start": 74.096,
      "duration": 0.0126,
      "velocity": 115,
      "chip": "ym2612"
    },
    {
      "channel": 5,
      "note": 92,
      "start": 74.0975,
      "duration": 0.0123,
      "velocity": 101,
      "chip": "ym2612"
    },
    {
      "channel": 4,
      "note": 97,
      "start": 74.099,
      "duration": 0.0122,
      "velocity": 101,
      "chip": "ym2612"
    },
    {
      "channel": 3,
      "note": 100,
      "start": 74.1007,
      "duration": 0.0117,
      "velocity": 101,
      "chip": "ym2612"
    },
    {
      "channel": 2,
      "note": 54,
      "start": 74.1027,
      "duration": 0.011,
      "velocity": 100,
      "chip": "ym2612"
    },
    {
      "channel": 1,
      "note": 68,
      "start": 74.1068,
      "duration": 0.016,
      "velocity": 116,
      "chip": "ym2612"
    },
    {
      "channel": 0,
      "note": 36,
      "start": 74.1086,
      "duration": 0.016,
      "velocity": 115,
      "chip": "ym2612"
    },
    {
      "channel": 5,
      "note": 92,
      "start": 74.1098,
      "duration": 0.0159,
      "velocity": 101,
      "chip": "ym2612"
    },
    {
      "channel": 4,
      "note": 97,
      "start": 74.1111,
      "duration": 0.0159,
      "velocity": 101,
      "chip": "ym2612"
    },
    {
      "channel": 3,
      "note": 100,
      "start": 74.1123,
      "duration": 0.0158,
      "velocity": 101,
      "chip": "ym2612"
    },
    {
      "channel": 2,
      "note": 54,
      "start": 74.1136,
      "duration": 0.0157,
      "velocity": 100,
      "chip": "ym2612"
    },
    {
      "channel": 1,
      "note": 68,
      "start": 74.1229,
      "duration": 0.0161,
      "velocity": 116,
      "chip": "ym2612"
    },
    {
      "channel": 0,
      "note": 37,
      "start": 74.1246,
      "duration": 0.0161,
      "velocity": 115,
      "chip": "ym2612"
    },
    {
      "channel": 5,
      "note": 92,
      "start": 74.1257,
      "duration": 0.0161,
      "velocity": 101,
      "chip": "ym2612"
    },
    {
      "channel": 4,
      "note": 97,
      "start": 74.127,
      "duration": 0.0161,
      "velocity": 101,
      "chip": "ym2612"
    },
    {
      "channel": 3,
      "note": 100,
      "start": 74.1281,
      "duration": 0.0161,
      "velocity": 101,
      "chip": "ym2612"
    },
    {
      "channel": 2,
      "note": 54,
      "start": 74.1293,
      "duration": 0.0161,
      "velocity": 100,
      "chip": "ym2612"
    },
    {
      "channel": 1,
      "note": 68,
      "start": 74.139,
      "duration": 0.0161,
      "velocity": 116,
      "chip": "ym2612"
    },
    {
      "channel": 0,
      "note": 37,
      "start": 74.1407,
      "duration": 0.0161,
      "velocity": 115,
      "chip": "ym2612"
    },
    {
      "channel": 5,
      "note": 92,
      "start": 74.1418,
      "duration": 0.0162,
      "velocity": 101,
      "chip": "ym2612"
    },
    {
      "channel": 4,
      "note": 97,
      "start": 74.1431,
      "duration": 0.0161,
      "velocity": 101,
      "chip": "ym2612"
    },
    {
      "channel": 3,
      "note": 100,
      "start": 74.1442,
      "duration": 0.0162,
      "velocity": 101,
      "chip": "ym2612"
    },
    {
      "channel": 2,
      "note": 54,
      "start": 74.1454,
      "duration": 0.0161,
      "velocity": 100,
      "chip": "ym2612"
    },
    {
      "channel": 1,
      "note": 68,
      "start": 74.1551,
      "duration": 0.0161,
      "velocity": 116,
      "chip": "ym2612"
    },
    {
      "channel": 0,
      "note": 38,
      "start": 74.1568,
      "duration": 0.0161,
      "velocity": 115,
      "chip": "ym2612"
    },
    {
      "channel": 5,
      "note": 92,
      "start": 74.158,
      "duration": 0.0161,
      "velocity": 101,
      "chip": "ym2612"
    },
    {
      "channel": 4,
      "note": 97,
      "start": 74.1591,
      "duration": 0.0161,
      "velocity": 101,
      "chip": "ym2612"
    },
    {
      "channel": 3,
      "note": 100,
      "start": 74.1604,
      "duration": 0.0161,
      "velocity": 101,
      "chip": "ym2612"
    },
    {
      "channel": 2,
      "note": 54,
      "start": 74.1615,
      "duration": 0.0161,
      "velocity": 100,
      "chip": "ym2612"
    },
    {
      "channel": 1,
      "note": 68,
      "start": 74.1712,
      "duration": 0.0179,
      "velocity": 116,
      "chip": "ym2612"
    },
    {
      "channel": 0,
      "note": 38,
      "start": 74.1729,
      "duration": 0.0179,
      "velocity": 115,
      "chip": "ym2612"
    },
    {
      "channel": 5,
      "note": 92,
      "start": 74.1741,
      "duration": 0.0179,
      "velocity": 101,
      "chip": "ym2612"
    },
    {
      "channel": 4,
      "note": 97,
      "start": 74.1752,
      "duration": 0.0179,
      "velocity": 101,
      "chip": "ym2612"
    },
    {
      "channel": 3,
      "note": 100,
      "start": 74.1764,
      "duration": 0.0179,
      "velocity": 101,
      "chip": "ym2612"
    },
    {
      "channel": 2,
      "note": 54,
      "start": 74.1776,
      "duration": 0.0179,
      "velocity": 100,
      "chip": "ym2612"
    },
    {
      "channel": 1,
      "note": 68,
      "start": 74.189,
      "duration": 0.0144,
      "velocity": 116,
      "chip": "ym2612"
    },
    {
      "channel": 0,
      "note": 39,
      "start": 74.1908,
      "duration": 0.0144,
      "velocity": 115,
      "chip": "ym2612"
    },
    {
      "channel": 5,
      "note": 92,
      "start": 74.192,
      "duration": 0.0144,
      "velocity": 101,
      "chip": "ym2612"
    },
    {
      "channel": 4,
      "note": 97,
      "start": 74.1931,
      "duration": 0.0144,
      "velocity": 101,
      "chip": "ym2612"
    },
    {
      "channel": 3,
      "note": 100,
      "start": 74.1943,
      "duration": 0.0144,
      "velocity": 101,
      "chip": "ym2612"
    },
    {
      "channel": 2,
      "note": 54,
      "start": 74.1955,
      "duration": 0.0144,
      "velocity": 100,
      "chip": "ym2612"
    },
    {
      "channel": 1,
      "note": 68,
      "start": 74.2035,
      "duration": 0.0161,
      "velocity": 116,
      "chip": "ym2612"
    },
    {
      "channel": 0,
      "note": 39,
      "start": 74.2052,
      "duration": 0.016,
      "velocity": 115,
      "chip": "ym2612"
    },
    {
      "channel": 5,
      "note": 92,
      "start": 74.2064,
      "duration": 0.016,
      "velocity": 101,
      "chip": "ym2612"
    },
    {
      "channel": 4,
      "note": 97,
      "start": 74.2076,
      "duration": 0.0161,
      "velocity": 101,
      "chip": "ym2612"
    },
    {
      "channel": 3,
      "note": 100,
      "start": 74.2088,
      "duration": 0.016,
      "velocity": 101,
      "chip": "ym2612"
    },
    {
      "channel": 2,
      "note": 54,
      "start": 74.2099,
      "duration": 0.016,
      "velocity": 100,
      "chip": "ym2612"
    },
    {
      "channel": 1,
      "note": 68,
      "start": 74.2196,
      "duration": 0.0164,
      "velocity": 116,
      "chip": "ym2612"
    },
    {
      "channel": 0,
      "note": 40,
      "start": 74.2212,
      "duration": 0.0165,
      "velocity": 115,
      "chip": "ym2612"
    },
    {
      "channel": 5,
      "note": 92,
      "start": 74.2224,
      "duration": 0.0164,
      "velocity": 101,
      "chip": "ym2612"
    },
    {
      "channel": 4,
      "note": 97,
      "start": 74.2237,
      "duration": 0.0164,
      "velocity": 101,
      "chip": "ym2612"
    },
    {
      "channel": 3,
      "note": 100,
      "start": 74.2248,
      "duration": 0.0164,
      "velocity": 101,
      "chip": "ym2612"
    },
    {
      "channel": 2,
      "note": 54,
      "start": 74.2259,
      "duration": 0.0164,
      "velocity": 100,
      "chip": "ym2612"
    },
    {
      "channel": 1,
      "note": 68,
      "start": 74.236,
      "duration": 0.0163,
      "velocity": 116,
      "chip": "ym2612"
    },
    {
      "channel": 0,
      "note": 40,
      "start": 74.2377,
      "duration": 0.0163,
      "velocity": 115,
      "chip": "ym2612"
    },
    {
      "channel": 5,
      "note": 92,
      "start": 74.2388,
      "duration": 0.0163,
      "velocity": 101,
      "chip": "ym2612"
    },
    {
      "channel": 4,
      "note": 97,
      "start": 74.2401,
      "duration": 0.0163,
      "velocity": 101,
      "chip": "ym2612"
    },
    {
      "channel": 3,
      "note": 100,
      "start": 74.2412,
      "duration": 0.0163,
      "velocity": 101,
      "chip": "ym2612"
    },
    {
      "channel": 2,
      "note": 54,
      "start": 74.2424,
      "duration": 0.0163,
      "velocity": 100,
      "chip": "ym2612"
    },
    {
      "channel": 1,
      "note": 68,
      "start": 74.2523,
      "duration": 0.0161,
      "velocity": 116,
      "chip": "ym2612"
    },
    {
      "channel": 0,
      "note": 40,
      "start": 74.254,
      "duration": 0.0161,
      "velocity": 115,
      "chip": "ym2612"
    },
    {
      "channel": 5,
      "note": 92,
      "start": 74.2552,
      "duration": 0.0161,
      "velocity": 101,
      "chip": "ym2612"
    },
    {
      "channel": 4,
      "note": 97,
      "start": 74.2563,
      "duration": 0.0161,
      "velocity": 101,
      "chip": "ym2612"
    },
    {
      "channel": 3,
      "note": 100,
      "start": 74.2576,
      "duration": 0.0161,
      "velocity": 101,
      "chip": "ym2612"
    },
    {
      "channel": 2,
      "note": 54,
      "start": 74.2587,
      "duration": 0.0161,
      "velocity": 100,
      "chip": "ym2612"
    },
    {
      "channel": 1,
      "note": 68,
      "start": 74.2684,
      "duration": 0.0157,
      "velocity": 116,
      "chip": "ym2612"
    },
    {
      "channel": 0,
      "note": 41,
      "start": 74.2701,
      "duration": 0.0161,
      "velocity": 115,
      "chip": "ym2612"
    },
    {
      "channel": 5,
      "note": 92,
      "start": 74.2713,
      "duration": 0.0161,
      "velocity": 101,
      "chip": "ym2612"
    },
    {
      "channel": 4,
      "note": 97,
      "start": 74.2724,
      "duration": 0.0161,
      "velocity": 101,
      "chip": "ym2612"
    },
    {
      "channel": 3,
      "note": 100,
      "start": 74.2737,
      "duration": 0.0161,
      "velocity": 101,
      "chip": "ym2612"
    },
    {
      "channel": 2,
      "note": 54,
      "start": 74.2748,
      "duration": 0.0161,
      "velocity": 100,
      "chip": "ym2612"
    },
    {
      "channel": 1,
      "note": 68,
      "start": 74.2841,
      "duration": 0.0183,
      "velocity": 105,
      "chip": "ym2612"
    },
    {
      "channel": 0,
      "note": 41,
      "start": 74.2862,
      "duration": 0.0179,
      "velocity": 115,
      "chip": "ym2612"
    },
    {
      "channel": 5,
      "note": 92,
      "start": 74.2874,
      "duration": 0.0179,
      "velocity": 101,
      "chip": "ym2612"
    },
    {
      "channel": 4,
      "note": 97,
      "start": 74.2885,
      "duration": 0.0179,
      "velocity": 101,
      "chip": "ym2612"
    },
    {
      "channel": 3,
      "note": 100,
      "start": 74.2898,
      "duration": 0.0179,
      "velocity": 101,
      "chip": "ym2612"
    },
    {
      "channel": 2,
      "note": 54,
      "start": 74.2909,
      "duration": 0.0183,
      "velocity": 100,
      "chip": "ym2612"
    },
    {
      "channel": 1,
      "note": 105,
      "start": 74.3023,
      "duration": 0.0138,
      "velocity": 105,
      "chip": "ym2612"
    },
    {
      "channel": 0,
      "note": 42,
      "start": 74.3041,
      "duration": 0.0144,
      "velocity": 115,
      "chip": "ym2612"
    },
    {
      "channel": 5,
      "note": 92,
      "start": 74.3053,
      "duration": 0.0144,
      "velocity": 101,
      "chip": "ym2612"
    },
    {
      "channel": 4,
      "note": 97,
      "start": 74.3065,
      "duration": 0.0144,
      "velocity": 101,
      "chip": "ym2612"
    },
    {
      "channel": 3,
      "note": 100,
      "start": 74.3077,
      "duration": 0.0144,
      "velocity": 101,
      "chip": "ym2612"
    },
    {
      "channel": 2,
      "note": 66,
      "start": 74.3092,
      "duration": 0.0141,
      "velocity": 100,
      "chip": "ym2612"
    },
    {
      "channel": 1,
      "note": 105,
      "start": 74.3161,
      "duration": 0.016,
      "velocity": 105,
      "chip": "ym2612"
    },
    {
      "channel": 0,
      "note": 42,
      "start": 74.3184,
      "duration": 0.0156,
      "velocity": 115,
      "chip": "ym2612"
    },
    {
      "channel": 5,
      "note": 92,
      "start": 74.3196,
      "duration": 0.016,
      "velocity": 101,
      "chip": "ym2612"
    },
    {
      "channel": 4,
      "note": 97,
      "start": 74.3208,
      "duration": 0.016,
      "velocity": 101,
      "chip": "ym2612"
    },
    {
      "channel": 3,
      "note": 100,
      "start": 74.3221,
      "duration": 0.016,
      "velocity": 101,
      "chip": "ym2612"
    },
    {
      "channel": 2,
      "note": 66,
      "start": 74.3233,
      "duration": 0.016,
      "velocity": 100,
      "chip": "ym2612"
    },
    {
      "channel": 1,
      "note": 105,
      "start": 74.3322,
      "duration": 0.0161,
      "velocity": 105,
      "chip": "ym2612"
    },
    {
      "channel": 0,
      "note": 43,
      "start": 74.3341,
      "duration": 0.0159,
      "velocity": 115,
      "chip": "ym2612"
    },
    {
      "channel": 5,
      "note": 92,
      "start": 74.3357,
      "duration": 0.0161,
      "velocity": 101,
      "chip": "ym2612"
    },
    {
      "channel": 4,
      "note": 97,
      "start": 74.3369,
      "duration": 0.0161,
      "velocity": 101,
      "chip": "ym2612"
    },
    {
      "channel": 3,
      "note": 100,
      "start": 74.3381,
      "duration": 0.0161,
      "velocity": 101,
      "chip": "ym2612"
    },
    {
      "channel": 2,
      "note": 66,
      "start": 74.3392,
      "duration": 0.0161,
      "velocity": 100,
      "chip": "ym2612"
    },
    {
      "channel": 1,
      "note": 105,
      "start": 74.3483,
      "duration": 0.0161,
      "velocity": 105,
      "chip": "ym2612"
    },
    {
      "channel": 0,
      "note": 43,
      "start": 74.35,
      "duration": 0.0161,
      "velocity": 115,
      "chip": "ym2612"
    },
    {
      "channel": 5,
      "note": 92,
      "start": 74.3518,
      "duration": 0.0158,
      "velocity": 101,
      "chip": "ym2612"
    },
    {
      "channel": 4,
      "note": 97,
      "start": 74.353,
      "duration": 0.0162,
      "velocity": 101,
      "chip": "ym2612"
    },
    {
      "channel": 3,
      "note": 100,
      "start": 74.3542,
      "duration": 0.0162,
      "velocity": 101,
      "chip": "ym2612"
    },
    {
      "channel": 2,
      "note": 66,
      "start": 74.3553,
      "duration": 0.0162,
      "velocity": 100,
      "chip": "ym2612"
    },
    {
      "channel": 1,
      "note": 105,
      "start": 74.3644,
      "duration": 0.0161,
      "velocity": 105,
      "chip": "ym2612"
    },
    {
      "channel": 0,
      "note": 44,
      "start": 74.3661,
      "duration": 0.0161,
      "velocity": 115,
      "chip": "ym2612"
    },
    {
      "channel": 5,
      "note": 92,
      "start": 74.3676,
      "duration": 0.0158,
      "velocity": 101,
      "chip": "ym2612"
    },
    {
      "channel": 4,
      "note": 97,
      "start": 74.3691,
      "duration": 0.0161,
      "velocity": 101,
      "chip": "ym2612"
    },
    {
      "channel": 3,
      "note": 100,
      "start": 74.3703,
      "duration": 0.0161,
      "velocity": 101,
      "chip": "ym2612"
    },
    {
      "channel": 2,
      "note": 66,
      "start": 74.3715,
      "duration": 0.0161,
      "velocity": 100,
      "chip": "ym2612"
    },
    {
      "channel": 1,
      "note": 105,
      "start": 74.3805,
      "duration": 0.0162,
      "velocity": 105,
      "chip": "ym2612"
    },
    {
      "channel": 0,
      "note": 44,
      "start": 74.3822,
      "duration": 0.0161,
      "velocity": 115,
      "chip": "ym2612"
    },
    {
      "channel": 5,
      "note": 92,
      "start": 74.3834,
      "duration": 0.0161,
      "velocity": 101,
      "chip": "ym2612"
    },
    {
      "channel": 4,
      "note": 97,
      "start": 74.3852,
      "duration": 0.016,
      "velocity": 101,
      "chip": "ym2612"
    },
    {
      "channel": 3,
      "note": 100,
      "start": 74.3864,
      "duration": 0.0161,
      "velocity": 101,
      "chip": "ym2612"
    },
    {
      "channel": 2,
      "note": 66,
      "start": 74.3876,
      "duration": 0.0162,
      "velocity": 100,
      "chip": "ym2612"
    },
    {
      "channel": 1,
      "note": 105,
      "start": 74.3966,
      "duration": 0.0161,
      "velocity": 105,
      "chip": "ym2612"
    },
    {
      "channel": 0,
      "note": 44,
      "start": 74.3983,
      "duration": 0.0161,
      "velocity": 115,
      "chip": "ym2612"
    },
    {
      "channel": 5,
      "note": 92,
      "start": 74.3995,
      "duration": 0.0162,
      "velocity": 101,
      "chip": "ym2612"
    },
    {
      "channel": 4,
      "note": 97,
      "start": 74.4012,
      "duration": 0.0157,
      "velocity": 101,
      "chip": "ym2612"
    },
    {
      "channel": 3,
      "note": 100,
      "start": 74.4025,
      "duration": 0.0163,
      "velocity": 101,
      "chip": "ym2612"
    },
    {
      "channel": 2,
      "note": 66,
      "start": 74.4037,
      "duration": 0.0163,
      "velocity": 100,
      "chip": "ym2612"
    },
    {
      "channel": 1,
      "note": 105,
      "start": 74.4127,
      "duration": 0.0161,
      "velocity": 105,
      "chip": "ym2612"
    },
    {
      "channel": 0,
      "note": 45,
      "start": 74.4144,
      "duration": 0.0162,
      "velocity": 115,
      "chip": "ym2612"
    },
    {
      "channel": 5,
      "note": 92,
      "start": 74.4157,
      "duration": 0.016,
      "velocity": 101,
      "chip": "ym2612"
    },
    {
      "channel": 4,
      "note": 97,
      "start": 74.417,
      "duration": 0.016,
      "velocity": 101,
      "chip": "ym2612"
    },
    {
      "channel": 3,
      "note": 100,
      "start": 74.4188,
      "duration": 0.016,
      "velocity": 101,
      "chip": "ym2612"
    },
    {
      "channel": 2,
      "note": 66,
      "start": 74.42,
      "duration": 0.0161,
      "velocity": 100,
      "chip": "ym2612"
    },
    {
      "channel": 1,
      "note": 105,
      "start": 74.4288,
      "duration": 0.0161,
      "velocity": 105,
      "chip": "ym2612"
    },
    {
      "channel": 0,
      "note": 45,
      "start": 74.4305,
      "duration": 0.0161,
      "velocity": 115,
      "chip": "ym2612"
    },
    {
      "channel": 5,
      "note": 92,
      "start": 74.4317,
      "duration": 0.0162,
      "velocity": 101,
      "chip": "ym2612"
    },
    {
      "channel": 4,
      "note": 97,
      "start": 74.433,
      "duration": 0.0162,
      "velocity": 101,
      "chip": "ym2612"
    },
    {
      "channel": 3,
      "note": 100,
      "start": 74.4349,
      "duration": 0.0158,
      "velocity": 101,
      "chip": "ym2612"
    },
    {
      "channel": 2,
      "note": 66,
      "start": 74.4361,
      "duration": 0.016,
      "velocity": 100,
      "chip": "ym2612"
    },
    {
      "channel": 1,
      "note": 105,
      "start": 74.4449,
      "duration": 0.0161,
      "velocity": 105,
      "chip": "ym2612"
    },
    {
      "channel": 0,
      "note": 46,
      "start": 74.4466,
      "duration": 0.0161,
      "velocity": 115,
      "chip": "ym2612"
    },
    {
      "channel": 2,
      "note": 66,
      "start": 74.4522,
      "duration": 0.016,
      "velocity": 100,
      "chip": "ym2612"
    },
    {
      "channel": 1,
      "note": 105,
      "start": 74.461,
      "duration": 0.0161,
      "velocity": 105,
      "chip": "ym2612"
    },
    {
      "channel": 0,
      "note": 46,
      "start": 74.4627,
      "duration": 0.0161,
      "velocity": 115,
      "chip": "ym2612"
    },
    {
      "channel": 2,
      "note": 66,
      "start": 74.4681,
      "duration": 0.016,
      "velocity": 100,
      "chip": "ym2612"
    },
    {
      "channel": 1,
      "note": 105,
      "start": 74.4771,
      "duration": 0.0161,
      "velocity": 105,
      "chip": "ym2612"
    },
    {
      "channel": 0,
      "note": 47,
      "start": 74.4788,
      "duration": 0.0161,
      "velocity": 115,
      "chip": "ym2612"
    },
    {
      "channel": 2,
      "note": 66,
      "start": 74.4841,
      "duration": 0.0156,
      "velocity": 100,
      "chip": "ym2612"
    },
    {
      "channel": 1,
      "note": 105,
      "start": 74.4932,
      "duration": 0.0179,
      "velocity": 116,
      "chip": "ym2612"
    },
    {
      "channel": 0,
      "note": 47,
      "start": 74.4949,
      "duration": 0.0197,
      "velocity": 115,
      "chip": "ym2612"
    },
    {
      "channel": 2,
      "note": 66,
      "start": 74.4997,
      "duration": 0.0216,
      "velocity": 100,
      "chip": "ym2612"
    },
    {
      "channel": 1,
      "note": 68,
      "start": 74.5111,
      "duration": 0.0144,
      "velocity": 116,
      "chip": "ym2612"
    },
    {
      "channel": 0,
      "note": 36,
      "start": 74.5147,
      "duration": 0.0125,
      "velocity": 115,
      "chip": "ym2612"
    },
    {
      "channel": 5,
      "note": 90,
      "start": 74.5161,
      "duration": 0.0123,
      "velocity": 101,
      "chip": "ym2612"
    },
    {
      "channel": 4,
      "note": 95,
      "start": 74.5182,
      "duration": 0.0116,
      "velocity": 101,
      "chip": "ym2612"
    },
    {
      "channel": 3,
      "note": 99,
      "start": 74.5197,
      "duration": 0.0113,
      "velocity": 101,
      "chip": "ym2612"
    },
    {
      "channel": 2,
      "note": 54,
      "start": 74.5213,
      "duration": 0.0109,
      "velocity": 100,
      "chip": "ym2612"
    },
    {
      "channel": 1,
      "note": 68,
      "start": 74.5255,
      "duration": 0.016,
      "velocity": 116,
      "chip": "ym2612"
    },
    {
      "channel": 0,
      "note": 36,
      "start": 74.5272,
      "duration": 0.016,
      "velocity": 115,
      "chip": "ym2612"
    },
    {
      "channel": 5,
      "note": 90,
      "start": 74.5285,
      "duration": 0.0159,
      "velocity": 101,
      "chip": "ym2612"
    },
    {
      "channel": 4,
      "note": 95,
      "start": 74.5298,
      "duration": 0.0159,
      "velocity": 101,
      "chip": "ym2612"
    },
    {
      "channel": 3,
      "note": 99,
      "start": 74.531,
      "duration": 0.0158,
      "velocity": 101,
      "chip": "ym2612"
    },
    {
      "channel": 2,
      "note": 54,
      "start": 74.5322,
      "duration": 0.0158,
      "velocity": 100,
      "chip": "ym2612"
    },
    {
      "channel": 1,
      "note": 68,
      "start": 74.5415,
      "duration": 0.0161,
      "velocity": 116,
      "chip": "ym2612"
    },
    {
      "channel": 0,
      "note": 37,
      "start": 74.5432,
      "duration": 0.0161,
      "velocity": 115,
      "chip": "ym2612"
    },
    {
      "channel": 5,
      "note": 90,
      "start": 74.5444,
      "duration": 0.0161,
      "velocity": 101,
      "chip": "ym2612"
    },
    {
      "channel": 4,
      "note": 95,
      "start": 74.5456,
      "duration": 0.0161,
      "velocity": 101,
      "chip": "ym2612"
    },
    {
      "channel": 3,
      "note": 99,
      "start": 74.5467,
      "duration": 0.0161,
      "velocity": 101,
      "chip": "ym2612"
    },
    {
      "channel": 2,
      "note": 54,
      "start": 74.548,
      "duration": 0.0161,
      "velocity": 100,
      "chip": "ym2612"
    },
    {
      "channel": 1,
      "note": 68,
      "start": 74.5576,
      "duration": 0.0161,
      "velocity": 116,
      "chip": "ym2612"
    },
    {
      "channel": 0,
      "note": 37,
      "start": 74.5593,
      "duration": 0.0161,
      "velocity": 115,
      "chip": "ym2612"
    },
    {
      "channel": 5,
      "note": 90,
      "start": 74.5605,
      "duration": 0.0161,
      "velocity": 101,
      "chip": "ym2612"
    },
    {
      "channel": 4,
      "note": 95,
      "start": 74.5617,
      "duration": 0.0161,
      "velocity": 101,
      "chip": "ym2612"
    },
    {
      "channel": 3,
      "note": 99,
      "start": 74.5628,
      "duration": 0.0161,
      "velocity": 101,
      "chip": "ym2612"
    },
    {
      "channel": 2,
      "note": 54,
      "start": 74.564,
      "duration": 0.0161,
      "velocity": 100,
      "chip": "ym2612"
    },
    {
      "channel": 1,
      "note": 68,
      "start": 74.5737,
      "duration": 0.0161,
      "velocity": 116,
      "chip": "ym2612"
    },
    {
      "channel": 0,
      "note": 38,
      "start": 74.5754,
      "duration": 0.0161,
      "velocity": 115,
      "chip": "ym2612"
    },
    {
      "channel": 5,
      "note": 90,
      "start": 74.5766,
      "duration": 0.0162,
      "velocity": 101,
      "chip": "ym2612"
    },
    {
      "channel": 4,
      "note": 95,
      "start": 74.5778,
      "duration": 0.0161,
      "velocity": 101,
      "chip": "ym2612"
    },
    {
      "channel": 3,
      "note": 99,
      "start": 74.5789,
      "duration": 0.0161,
      "velocity": 101,
      "chip": "ym2612"
    },
    {
      "channel": 2,
      "note": 54,
      "start": 74.5801,
      "duration": 0.0161,
      "velocity": 100,
      "chip": "ym2612"
    },
    {
      "channel": 1,
      "note": 68,
      "start": 74.5898,
      "duration": 0.0179,
      "velocity": 116,
      "chip": "ym2612"
    },
    {
      "channel": 0,
      "note": 38,
      "start": 74.5915,
      "duration": 0.0179,
      "velocity": 115,
      "chip": "ym2612"
    },
    {
      "channel": 5,
      "note": 90,
      "start": 74.5927,
      "duration": 0.0179,
      "velocity": 101,
      "chip": "ym2612"
    },
    {
      "channel": 4,
      "note": 95,
      "start": 74.5939,
      "duration": 0.0179,
      "velocity": 101,
      "chip": "ym2612"
    },
    {
      "channel": 3,
      "note": 99,
      "start": 74.5951,
      "duration": 0.0179,
      "velocity": 101,
      "chip": "ym2612"
    },
    {
      "channel": 2,
      "note": 54,
      "start": 74.5962,
      "duration": 0.0179,
      "velocity": 100,
      "chip": "ym2612"
    },
    {
      "channel": 1,
      "note": 68,
      "start": 74.6077,
      "duration": 0.0144,
      "velocity": 116,
      "chip": "ym2612"
    },
    {
      "channel": 0,
      "note": 39,
      "start": 74.6094,
      "duration": 0.0144,
      "velocity": 115,
      "chip": "ym2612"
    },
    {
      "channel": 5,
      "note": 90,
      "start": 74.6106,
      "duration": 0.0144,
      "velocity": 101,
      "chip": "ym2612"
    },
    {
      "channel": 4,
      "note": 95,
      "start": 74.6117,
      "duration": 0.0144,
      "velocity": 101,
      "chip": "ym2612"
    },
    {
      "channel": 3,
      "note": 99,
      "start": 74.613,
      "duration": 0.0144,
      "velocity": 101,
      "chip": "ym2612"
    },
    {
      "channel": 2,
      "note": 54,
      "start": 74.6141,
      "duration": 0.0144,
      "velocity": 100,
      "chip": "ym2612"
    },
    {
      "channel": 1,
      "note": 68,
      "start": 74.6221,
      "duration": 0.016,
      "velocity": 116,
      "chip": "ym2612"
    },
    {
      "channel": 0,
      "note": 39,
      "start": 74.6238,
      "duration": 0.016,
      "velocity": 115,
      "chip": "ym2612"
    },
    {
      "channel": 5,
      "note": 90,
      "start": 74.625,
      "duration": 0.016,
      "velocity": 101,
      "chip": "ym2612"
    },
    {
      "channel": 4,
      "note": 95,
      "start": 74.6261,
      "duration": 0.016,
      "velocity": 101,
      "chip": "ym2612"
    },
    {
      "channel": 3,
      "note": 99,
      "start": 74.6273,
      "duration": 0.016,
      "velocity": 101,
      "chip": "ym2612"
    },
    {
      "channel": 2,
      "note": 54,
      "start": 74.6285,
      "duration": 0.016,
      "velocity": 100,
      "chip": "ym2612"
    },
    {
      "channel": 1,
      "note": 68,
      "start": 74.6381,
      "duration": 0.0161,
      "velocity": 116,
      "chip": "ym2612"
    },
    {
      "channel": 0,
      "note": 40,
      "start": 74.6398,
      "duration": 0.0161,
      "velocity": 115,
      "chip": "ym2612"
    },
    {
      "channel": 5,
      "note": 90,
      "start": 74.641,
      "duration": 0.0161,
      "velocity": 101,
      "chip": "ym2612"
    },
    {
      "channel": 4,
      "note": 95,
      "start": 74.6422,
      "duration": 0.0162,
      "velocity": 101,
      "chip": "ym2612"
    },
    {
      "channel": 3,
      "note": 99,
      "start": 74.6434,
      "duration": 0.0161,
      "velocity": 101,
      "chip": "ym2612"
    },
    {
      "channel": 2,
      "note": 54,
      "start": 74.6445,
      "duration": 0.0161,
      "velocity": 100,
      "chip": "ym2612"
    },
    {
      "channel": 1,
      "note": 68,
      "start": 74.6542,
      "duration": 0.0161,
      "velocity": 116,
      "chip": "ym2612"
    },
    {
      "channel": 0,
      "note": 40,
      "start": 74.6559,
      "duration": 0.0162,
      "velocity": 115,
      "chip": "ym2612"
    },
    {
      "channel": 5,
      "note": 90,
      "start": 74.6571,
      "duration": 0.0161,
      "velocity": 101,
      "chip": "ym2612"
    },
    {
      "channel": 4,
      "note": 95,
      "start": 74.6583,
      "duration": 0.0161,
      "velocity": 101,
      "chip": "ym2612"
    },
    {
      "channel": 3,
      "note": 99,
      "start": 74.6595,
      "duration": 0.0161,
      "velocity": 101,
      "chip": "ym2612"
    },
    {
      "channel": 2,
      "note": 54,
      "start": 74.6606,
      "duration": 0.0161,
      "velocity": 100,
      "chip": "ym2612"
    },
    {
      "channel": 1,
      "note": 68,
      "start": 74.6703,
      "duration": 0.0162,
      "velocity": 116,
      "chip": "ym2612"
    },
    {
      "channel": 0,
      "note": 40,
      "start": 74.6721,
      "duration": 0.0161,
      "velocity": 115,
      "chip": "ym2612"
    },
    {
      "channel": 5,
      "note": 90,
      "start": 74.6732,
      "duration": 0.0162,
      "velocity": 101,
      "chip": "ym2612"
    },
    {
      "channel": 4,
      "note": 95,
      "start": 74.6744,
      "duration": 0.0161,
      "velocity": 101,
      "chip": "ym2612"
    },
    {
      "channel": 3,
      "note": 99,
      "start": 74.6756,
      "duration": 0.0162,
      "velocity": 101,
      "chip": "ym2612"
    },
    {
      "channel": 2,
      "note": 54,
      "start": 74.6767,
      "duration": 0.0161,
      "velocity": 100,
      "chip": "ym2612"
    },
    {
      "channel": 1,
      "note": 68,
      "start": 74.6865,
      "duration": 0.0162,
      "velocity": 116,
      "chip": "ym2612"
    },
    {
      "channel": 0,
      "note": 41,
      "start": 74.6882,
      "duration": 0.0162,
      "velocity": 115,
      "chip": "ym2612"
    },
    {
      "channel": 5,
      "note": 90,
      "start": 74.6894,
      "duration": 0.0162,
      "velocity": 101,
      "chip": "ym2612"
    },
    {
      "channel": 4,
      "note": 95,
      "start": 74.6906,
      "duration": 0.0162,
      "velocity": 101,
      "chip": "ym2612"
    },
    {
      "channel": 3,
      "note": 99,
      "start": 74.6917,
      "duration": 0.0162,
      "velocity": 101,
      "chip": "ym2612"
    },
    {
      "channel": 2,
      "note": 54,
      "start": 74.6929,
      "duration": 0.0162,
      "velocity": 100,
      "chip": "ym2612"
    },
    {
      "channel": 1,
      "note": 68,
      "start": 74.7027,
      "duration": 0.018,
      "velocity": 105,
      "chip": "ym2612"
    },
    {
      "channel": 0,
      "note": 41,
      "start": 74.7044,
      "duration": 0.0181,
      "velocity": 115,
      "chip": "ym2612"
    },
    {
      "channel": 5,
      "note": 90,
      "start": 74.7056,
      "duration": 0.0182,
      "velocity": 101,
      "chip": "ym2612"
    },
    {
      "channel": 4,
      "note": 95,
      "start": 74.7068,
      "duration": 0.0183,
      "velocity": 101,
      "chip": "ym2612"
    },
    {
      "channel": 3,
      "note": 99,
      "start": 74.7079,
      "duration": 0.0184,
      "velocity": 101,
      "chip": "ym2612"
    },
    {
      "channel": 2,
      "note": 54,
      "start": 74.7091,
      "duration": 0.0187,
      "velocity": 100,
      "chip": "ym2612"
    },
    {
      "channel": 1,
      "note": 105,
      "start": 74.7208,
      "duration": 0.0145,
      "velocity": 105,
      "chip": "ym2612"
    },
    {
      "channel": 0,
      "note": 42,
      "start": 74.7225,
      "duration": 0.0146,
      "velocity": 115,
      "chip": "ym2612"
    },
    {
      "channel": 5,
      "note": 90,
      "start": 74.7238,
      "duration": 0.0146,
      "velocity": 101,
      "chip": "ym2612"
    },
    {
      "channel": 4,
      "note": 95,
      "start": 74.7251,
      "duration": 0.0145,
      "velocity": 101,
      "chip": "ym2612"
    },
    {
      "channel": 3,
      "note": 99,
      "start": 74.7263,
      "duration": 0.0145,
      "velocity": 101,
      "chip": "ym2612"
    },
    {
      "channel": 2,
      "note": 66,
      "start": 74.7278,
      "duration": 0.0142,
      "velocity": 100,
      "chip": "ym2612"
    },
    {
      "channel": 1,
      "note": 105,
      "start": 74.7353,
      "duration": 0.0161,
      "velocity": 105,
      "chip": "ym2612"
    },
    {
      "channel": 0,
      "note": 42,
      "start": 74.7371,
      "duration": 0.016,
      "velocity": 115,
      "chip": "ym2612"
    },
    {
      "channel": 5,
      "note": 90,
      "start": 74.7383,
      "duration": 0.016,
      "velocity": 101,
      "chip": "ym2612"
    },
    {
      "channel": 4,
      "note": 95,
      "start": 74.7395,
      "duration": 0.0161,
      "velocity": 101,
      "chip": "ym2612"
    },
    {
      "channel": 3,
      "note": 99,
      "start": 74.7408,
      "duration": 0.0161,
      "velocity": 101,
      "chip": "ym2612"
    },
    {
      "channel": 2,
      "note": 66,
      "start": 74.742,
      "duration": 0.016,
      "velocity": 100,
      "chip": "ym2612"
    },
    {
      "channel": 1,
      "note": 105,
      "start": 74.7514,
      "duration": 0.0155,
      "velocity": 105,
      "chip": "ym2612"
    },
    {
      "channel": 0,
      "note": 43,
      "start": 74.7531,
      "duration": 0.0161,
      "velocity": 115,
      "chip": "ym2612"
    },
    {
      "channel": 2,
      "note": 66,
      "start": 74.7581,
      "duration": 0.016,
      "velocity": 100,
      "chip": "ym2612"
    },
    {
      "channel": 1,
      "note": 105,
      "start": 74.7669,
      "duration": 0.0161,
      "velocity": 105,
      "chip": "ym2612"
    },
    {
      "channel": 0,
      "note": 43,
      "start": 74.7692,
      "duration": 0.0161,
      "velocity": 115,
      "chip": "ym2612"
    },
    {
      "channel": 2,
      "note": 66,
      "start": 74.7741,
      "duration": 0.0161,
      "velocity": 100,
      "chip": "ym2612"
    },
    {
      "channel": 1,
      "note": 105,
      "start": 74.783,
      "duration": 0.0161,
      "velocity": 105,
      "chip": "ym2612"
    },
    {
      "channel": 0,
      "note": 44,
      "start": 74.7853,
      "duration": 0.0161,
      "velocity": 115,
      "chip": "ym2612"
    },
    {
      "channel": 2,
      "note": 66,
      "start": 74.7902,
      "duration": 0.0159,
      "velocity": 100,
      "chip": "ym2612"
    },
    {
      "channel": 1,
      "note": 105,
      "start": 74.7991,
      "duration": 0.0161,
      "velocity": 105,
      "chip": "ym2612"
    },
    {
      "channel": 0,
      "note": 44,
      "start": 74.8014,
      "duration": 0.0155,
      "velocity": 115,
      "chip": "ym2612"
    },
    {
      "channel": 2,
      "note": 66,
      "start": 74.8061,
      "duration": 0.0172,
      "velocity": 100,
      "chip": "ym2612"
    },
    {
      "channel": 1,
      "note": 105,
      "start": 74.8152,
      "duration": 0.0161,
      "velocity": 105,
      "chip": "ym2612"
    },
    {
      "channel": 0,
      "note": 44,
      "start": 74.8169,
      "duration": 0.0161,
      "velocity": 115,
      "chip": "ym2612"
    },
    {
      "channel": 5,
      "note": 90,
      "start": 74.8191,
      "duration": 0.0157,
      "velocity": 101,
      "chip": "ym2612"
    },
    {
      "channel": 4,
      "note": 95,
      "start": 74.8206,
      "duration": 0.0155,
      "velocity": 101,
      "chip": "ym2612"
    },
    {
      "channel": 3,
      "note": 99,
      "start": 74.8221,
      "duration": 0.0153,
      "velocity": 101,
      "chip": "ym2612"
    },
    {
      "channel": 2,
      "note": 66,
      "start": 74.8233,
      "duration": 0.0153,
      "velocity": 100,
      "chip": "ym2612"
    },
    {
      "channel": 1,
      "note": 105,
      "start": 74.8313,
      "duration": 0.0161,
      "velocity": 105,
      "chip": "ym2612"
    },
    {
      "channel": 0,
      "note": 45,
      "start": 74.833,
      "duration": 0.0161,
      "velocity": 115,
      "chip": "ym2612"
    },
    {
      "channel": 5,
      "note": 90,
      "start": 74.8348,
      "duration": 0.0155,
      "velocity": 101,
      "chip": "ym2612"
    },
    {
      "channel": 4,
      "note": 95,
      "start": 74.8361,
      "duration": 0.016,
      "velocity": 101,
      "chip": "ym2612"
    },
    {
      "channel": 3,
      "note": 99,
      "start": 74.8374,
      "duration": 0.0158,
      "velocity": 101,
      "chip": "ym2612"
    },
    {
      "channel": 2,
      "note": 66,
      "start": 74.8386,
      "duration": 0.0159,
      "velocity": 100,
      "chip": "ym2612"
    },
    {
      "channel": 1,
      "note": 105,
      "start": 74.8474,
      "duration": 0.0161,
      "velocity": 105,
      "chip": "ym2612"
    },
    {
      "channel": 0,
      "note": 45,
      "start": 74.8491,
      "duration": 0.0161,
      "velocity": 115,
      "chip": "ym2612"
    },
    {
      "channel": 5,
      "note": 90,
      "start": 74.8503,
      "duration": 0.0161,
      "velocity": 101,
      "chip": "ym2612"
    },
    {
      "channel": 4,
      "note": 95,
      "start": 74.8521,
      "duration": 0.016,
      "velocity": 101,
      "chip": "ym2612"
    },
    {
      "channel": 3,
      "note": 99,
      "start": 74.8532,
      "duration": 0.0162,
      "velocity": 101,
      "chip": "ym2612"
    },
    {
      "channel": 2,
      "note": 66,
      "start": 74.8545,
      "duration": 0.016,
      "velocity": 100,
      "chip": "ym2612"
    },
    {
      "channel": 1,
      "note": 105,
      "start": 74.8635,
      "duration": 0.0161,
      "velocity": 105,
      "chip": "ym2612"
    },
    {
      "channel": 0,
      "note": 46,
      "start": 74.8652,
      "duration": 0.0161,
      "velocity": 115,
      "chip": "ym2612"
    },
    {
      "channel": 5,
      "note": 90,
      "start": 74.8664,
      "duration": 0.0161,
      "velocity": 101,
      "chip": "ym2612"
    },
    {
      "channel": 4,
      "note": 95,
      "start": 74.8681,
      "duration": 0.0158,
      "velocity": 101,
      "chip": "ym2612"
    },
    {
      "channel": 3,
      "note": 99,
      "start": 74.8694,
      "duration": 0.016,
      "velocity": 101,
      "chip": "ym2612"
    },
    {
      "channel": 2,
      "note": 66,
      "start": 74.8705,
      "duration": 0.016,
      "velocity": 100,
      "chip": "ym2612"
    },
    {
      "channel": 1,
      "note": 105,
      "start": 74.8796,
      "duration": 0.0161,
      "velocity": 105,
      "chip": "ym2612"
    },
    {
      "channel": 0,
      "note": 46,
      "start": 74.8813,
      "duration": 0.0161,
      "velocity": 115,
      "chip": "ym2612"
    },
    {
      "channel": 5,
      "note": 90,
      "start": 74.8825,
      "duration": 0.0161,
      "velocity": 101,
      "chip": "ym2612"
    },
    {
      "channel": 4,
      "note": 95,
      "start": 74.8839,
      "duration": 0.0159,
      "velocity": 101,
      "chip": "ym2612"
    },
    {
      "channel": 3,
      "note": 99,
      "start": 74.8854,
      "duration": 0.0161,
      "velocity": 101,
      "chip": "ym2612"
    },
    {
      "channel": 2,
      "note": 66,
      "start": 74.8866,
      "duration": 0.0163,
      "velocity": 100,
      "chip": "ym2612"
    },
    {
      "channel": 1,
      "note": 105,
      "start": 74.8957,
      "duration": 0.0161,
      "velocity": 105,
      "chip": "ym2612"
    },
    {
      "channel": 0,
      "note": 47,
      "start": 74.8974,
      "duration": 0.0161,
      "velocity": 115,
      "chip": "ym2612"
    },
    {
      "channel": 5,
      "note": 90,
      "start": 74.8986,
      "duration": 0.0161,
      "velocity": 101,
      "chip": "ym2612"
    },
    {
      "channel": 4,
      "note": 95,
      "start": 74.8998,
      "duration": 0.0161,
      "velocity": 101,
      "chip": "ym2612"
    },
    {
      "channel": 3,
      "note": 99,
      "start": 74.9015,
      "duration": 0.0158,
      "velocity": 101,
      "chip": "ym2612"
    },
    {
      "channel": 2,
      "note": 66,
      "start": 74.9029,
      "duration": 0.016,
      "velocity": 100,
      "chip": "ym2612"
    },
    {
      "channel": 1,
      "note": 105,
      "start": 74.9118,
      "duration": 0.0179,
      "velocity": 116,
      "chip": "ym2612"
    },
    {
      "channel": 0,
      "note": 47,
      "start": 74.9135,
      "duration": 0.0197,
      "velocity": 115,
      "chip": "ym2612"
    },
    {
      "channel": 5,
      "note": 90,
      "start": 74.9147,
      "duration": 0.0205,
      "velocity": 101,
      "chip": "ym2612"
    },
    {
      "channel": 4,
      "note": 95,
      "start": 74.9159,
      "duration": 0.0205,
      "velocity": 101,
      "chip": "ym2612"
    },
    {
      "channel": 3,
      "note": 99,
      "start": 74.9173,
      "duration": 0.0204,
      "velocity": 101,
      "chip": "ym2612"
    },
    {
      "channel": 2,
      "note": 66,
      "start": 74.9188,
      "duration": 0.0204,
      "velocity": 100,
      "chip": "ym2612"
    },
    {
      "channel": 1,
      "note": 68,
      "start": 74.9297,
      "duration": 0.0144,
      "velocity": 116,
      "chip": "ym2612"
    },
    {
      "channel": 0,
      "note": 36,
      "start": 74.9333,
      "duration": 0.0126,
      "velocity": 115,
      "chip": "ym2612"
    },
    {
      "channel": 5,
      "note": 90,
      "start": 74.9352,
      "duration": 0.012,
      "velocity": 101,
      "chip": "ym2612"
    },
    {
      "channel": 4,
      "note": 95,
      "start": 74.9364,
      "duration": 0.012,
      "velocity": 101,
      "chip": "ym2612"
    },
    {
      "channel": 3,
      "note": 99,
      "start": 74.9376,
      "duration": 0.0119,
      "velocity": 101,
      "chip": "ym2612"
    },
    {
      "channel": 2,
      "note": 54,
      "start": 74.9392,
      "duration": 0.0121,
      "velocity": 100,
      "chip": "ym2612"
    },
    {
      "channel": 1,
      "note": 68,
      "start": 74.9441,
      "duration": 0.0161,
      "velocity": 116,
      "chip": "ym2612"
    },
    {
      "channel": 0,
      "note": 36,
      "start": 74.9459,
      "duration": 0.016,
      "velocity": 115,
      "chip": "ym2612"
    },
    {
      "channel": 5,
      "note": 90,
      "start": 74.9471,
      "duration": 0.016,
      "velocity": 101,
      "chip": "ym2612"
    },
    {
      "channel": 4,
      "note": 95,
      "start": 74.9483,
      "duration": 0.016,
      "velocity": 101,
      "chip": "ym2612"
    },
    {
      "channel": 3,
      "note": 99,
      "start": 74.9495,
      "duration": 0.016,
      "velocity": 101,
      "chip": "ym2612"
    },
    {
      "channel": 2,
      "note": 54,
      "start": 74.9513,
      "duration": 0.0154,
      "velocity": 100,
      "chip": "ym2612"
    },
    {
      "channel": 1,
      "note": 68,
      "start": 74.9602,
      "duration": 0.0161,
      "velocity": 116,
      "chip": "ym2612"
    },
    {
      "channel": 0,
      "note": 37,
      "start": 74.9618,
      "duration": 0.0162,
      "velocity": 115,
      "chip": "ym2612"
    },
    {
      "channel": 2,
      "note": 54,
      "start": 74.9667,
      "duration": 0.016,
      "velocity": 100,
      "chip": "ym2612"
    },
    {
      "channel": 1,
      "note": 68,
      "start": 74.9763,
      "duration": 0.0161,
      "velocity": 116,
      "chip": "ym2612"
    },
    {
      "channel": 0,
      "note": 37,
      "start": 74.978,
      "duration": 0.0161,
      "velocity": 115,
      "chip": "ym2612"
    },
    {
      "channel": 2,
      "note": 54,
      "start": 74.9827,
      "duration": 0.0162,
      "velocity": 100,
      "chip": "ym2612"
    },
    {
      "channel": 1,
      "note": 68,
      "start": 74.9924,
      "duration": 0.0161,
      "velocity": 116,
      "chip": "ym2612"
    },
    {
      "channel": 0,
      "note": 38,
      "start": 74.9941,
      "duration": 0.0161,
      "velocity": 115,
      "chip": "ym2612"
    },
    {
      "channel": 2,
      "note": 54,
      "start": 74.9989,
      "duration": 0.0159,
      "velocity": 100,
      "chip": "ym2612"
    },
    {
      "channel": 1,
      "note": 68,
      "start": 75.0084,
      "duration": 0.0179,
      "velocity": 116,
      "chip": "ym2612"
    },
    {
      "channel": 0,
      "note": 38,
      "start": 75.0102,
      "duration": 0.0179,
      "velocity": 115,
      "chip": "ym2612"
    },
    {
      "channel": 2,
      "note": 54,
      "start": 75.0148,
      "duration": 0.0184,
      "velocity": 100,
      "chip": "ym2612"
    },
    {
      "channel": 1,
      "note": 68,
      "start": 75.0263,
      "duration": 0.0144,
      "velocity": 116,
      "chip": "ym2612"
    },
    {
      "channel": 0,
      "note": 39,
      "start": 75.028,
      "duration": 0.0144,
      "velocity": 115,
      "chip": "ym2612"
    },
    {
      "channel": 2,
      "note": 54,
      "start": 75.0332,
      "duration": 0.014,
      "velocity": 100,
      "chip": "ym2612"
    },
    {
      "channel": 1,
      "note": 68,
      "start": 75.0407,
      "duration": 0.016,
      "velocity": 116,
      "chip": "ym2612"
    },
    {
      "channel": 0,
      "note": 39,
      "start": 75.0424,
      "duration": 0.016,
      "velocity": 115,
      "chip": "ym2612"
    },
    {
      "channel": 2,
      "note": 54,
      "start": 75.0472,
      "duration": 0.016,
      "velocity": 100,
      "chip": "ym2612"
    },
    {
      "channel": 1,
      "note": 68,
      "start": 75.0567,
      "duration": 0.0161,
      "velocity": 116,
      "chip": "ym2612"
    },
    {
      "channel": 0,
      "note": 40,
      "start": 75.0584,
      "duration": 0.0161,
      "velocity": 115,
      "chip": "ym2612"
    },
    {
      "channel": 2,
      "note": 54,
      "start": 75.0632,
      "duration": 0.0161,
      "velocity": 100,
      "chip": "ym2612"
    },
    {
      "channel": 1,
      "note": 68,
      "start": 75.0728,
      "duration": 0.0161,
      "velocity": 116,
      "chip": "ym2612"
    },
    {
      "channel": 0,
      "note": 40,
      "start": 75.0745,
      "duration": 0.0161,
      "velocity": 115,
      "chip": "ym2612"
    },
    {
      "channel": 2,
      "note": 54,
      "start": 75.0793,
      "duration": 0.0161,
      "velocity": 100,
      "chip": "ym2612"
    },
    {
      "channel": 1,
      "note": 68,
      "start": 75.0889,
      "duration": 0.0162,
      "velocity": 116,
      "chip": "ym2612"
    },
    {
      "channel": 0,
      "note": 40,
      "start": 75.0906,
      "duration": 0.0161,
      "velocity": 115,
      "chip": "ym2612"
    },
    {
      "channel": 2,
      "note": 54,
      "start": 75.0954,
      "duration": 0.0161,
      "velocity": 100,
      "chip": "ym2612"
    },
    {
      "channel": 1,
      "note": 68,
      "start": 75.1051,
      "duration": 0.0161,
      "velocity": 116,
      "chip": "ym2612"
    },
    {
      "channel": 0,
      "note": 41,
      "start": 75.1067,
      "duration": 0.0161,
      "velocity": 115,
      "chip": "ym2612"
    },
    {
      "channel": 2,
      "note": 54,
      "start": 75.1115,
      "duration": 0.0163,
      "velocity": 100,
      "chip": "ym2612"
    },
    {
      "channel": 1,
      "note": 68,
      "start": 75.1212,
      "duration": 0.0178,
      "velocity": 105,
      "chip": "ym2612"
    },
    {
      "channel": 0,
      "note": 41,
      "start": 75.1228,
      "duration": 0.0179,
      "velocity": 115,
      "chip": "ym2612"
    },
    {
      "channel": 2,
      "note": 54,
      "start": 75.1278,
      "duration": 0.019,
      "velocity": 100,
      "chip": "ym2612"
    },
    {
      "channel": 1,
      "note": 105,
      "start": 75.139,
      "duration": 0.0144,
      "velocity": 105,
      "chip": "ym2612"
    },
    {
      "channel": 0,
      "note": 42,
      "start": 75.1407,
      "duration": 0.0144,
      "velocity": 115,
      "chip": "ym2612"
    },
    {
      "channel": 5,
      "note": 92,
      "start": 75.1422,
      "duration": 0.0141,
      "velocity": 101,
      "chip": "ym2612"
    },
    {
      "channel": 4,
      "note": 97,
      "start": 75.1437,
      "duration": 0.0139,
      "velocity": 101,
      "chip": "ym2612"
    },
    {
      "channel": 3,
      "note": 100,
      "start": 75.1453,
      "duration": 0.0135,
      "velocity": 101,
      "chip": "ym2612"
    },
    {
      "channel": 2,
      "note": 66,
      "start": 75.1467,
      "duration": 0.0133,
      "velocity": 100,
      "chip": "ym2612"
    },
    {
      "channel": 1,
      "note": 105,
      "start": 75.1534,
      "duration": 0.0161,
      "velocity": 105,
      "chip": "ym2612"
    },
    {
      "channel": 0,
      "note": 42,
      "start": 75.1551,
      "duration": 0.0161,
      "velocity": 115,
      "chip": "ym2612"
    },
    {
      "channel": 5,
      "note": 92,
      "start": 75.1563,
      "duration": 0.016,
      "velocity": 101,
      "chip": "ym2612"
    },
    {
      "channel": 4,
      "note": 97,
      "start": 75.1576,
      "duration": 0.016,
      "velocity": 101,
      "chip": "ym2612"
    },
    {
      "channel": 3,
      "note": 100,
      "start": 75.1588,
      "duration": 0.0159,
      "velocity": 101,
      "chip": "ym2612"
    },
    {
      "channel": 2,
      "note": 66,
      "start": 75.16,
      "duration": 0.0159,
      "velocity": 100,
      "chip": "ym2612"
    },
    {
      "channel": 1,
      "note": 105,
      "start": 75.1695,
      "duration": 0.0164,
      "velocity": 105,
      "chip": "ym2612"
    },
    {
      "channel": 0,
      "note": 43,
      "start": 75.1712,
      "duration": 0.0164,
      "velocity": 115,
      "chip": "ym2612"
    },
    {
      "channel": 5,
      "note": 92,
      "start": 75.1724,
      "duration": 0.0164,
      "velocity": 101,
      "chip": "ym2612"
    },
    {
      "channel": 4,
      "note": 97,
      "start": 75.1736,
      "duration": 0.0164,
      "velocity": 101,
      "chip": "ym2612"
    },
    {
      "channel": 3,
      "note": 100,
      "start": 75.1747,
      "duration": 0.0164,
      "velocity": 101,
      "chip": "ym2612"
    },
    {
      "channel": 2,
      "note": 66,
      "start": 75.1759,
      "duration": 0.0164,
      "velocity": 100,
      "chip": "ym2612"
    },
    {
      "channel": 1,
      "note": 105,
      "start": 75.1859,
      "duration": 0.0163,
      "velocity": 105,
      "chip": "ym2612"
    },
    {
      "channel": 0,
      "note": 43,
      "start": 75.1876,
      "duration": 0.0163,
      "velocity": 115,
      "chip": "ym2612"
    },
    {
      "channel": 5,
      "note": 92,
      "start": 75.1888,
      "duration": 0.0163,
      "velocity": 101,
      "chip": "ym2612"
    },
    {
      "channel": 4,
      "note": 97,
      "start": 75.19,
      "duration": 0.0163,
      "velocity": 101,
      "chip": "ym2612"
    },
    {
      "channel": 3,
      "note": 100,
      "start": 75.1911,
      "duration": 0.0163,
      "velocity": 101,
      "chip": "ym2612"
    },
    {
      "channel": 2,
      "note": 66,
      "start": 75.1924,
      "duration": 0.0163,
      "velocity": 100,
      "chip": "ym2612"
    },
    {
      "channel": 1,
      "note": 105,
      "start": 75.2023,
      "duration": 0.016,
      "velocity": 105,
      "chip": "ym2612"
    },
    {
      "channel": 0,
      "note": 44,
      "start": 75.2039,
      "duration": 0.0161,
      "velocity": 115,
      "chip": "ym2612"
    },
    {
      "channel": 5,
      "note": 92,
      "start": 75.2051,
      "duration": 0.0161,
      "velocity": 101,
      "chip": "ym2612"
    },
    {
      "channel": 4,
      "note": 97,
      "start": 75.2063,
      "duration": 0.0161,
      "velocity": 101,
      "chip": "ym2612"
    },
    {
      "channel": 3,
      "note": 100,
      "start": 75.2075,
      "duration": 0.0161,
      "velocity": 101,
      "chip": "ym2612"
    },
    {
      "channel": 2,
      "note": 66,
      "start": 75.2086,
      "duration": 0.0161,
      "velocity": 100,
      "chip": "ym2612"
    },
    {
      "channel": 1,
      "note": 105,
      "start": 75.2182,
      "duration": 0.0158,
      "velocity": 105,
      "chip": "ym2612"
    },
    {
      "channel": 0,
      "note": 44,
      "start": 75.22,
      "duration": 0.0161,
      "velocity": 115,
      "chip": "ym2612"
    },
    {
      "channel": 5,
      "note": 92,
      "start": 75.2212,
      "duration": 0.0161,
      "velocity": 101,
      "chip": "ym2612"
    },
    {
      "channel": 4,
      "note": 97,
      "start": 75.2224,
      "duration": 0.0161,
      "velocity": 101,
      "chip": "ym2612"
    },
    {
      "channel": 3,
      "note": 100,
      "start": 75.2236,
      "duration": 0.0161,
      "velocity": 101,
      "chip": "ym2612"
    },
    {
      "channel": 2,
      "note": 66,
      "start": 75.2247,
      "duration": 0.0162,
      "velocity": 100,
      "chip": "ym2612"
    },
    {
      "channel": 1,
      "note": 105,
      "start": 75.234,
      "duration": 0.0159,
      "velocity": 105,
      "chip": "ym2612"
    },
    {
      "channel": 0,
      "note": 44,
      "start": 75.2361,
      "duration": 0.0161,
      "velocity": 115,
      "chip": "ym2612"
    },
    {
      "channel": 5,
      "note": 92,
      "start": 75.2373,
      "duration": 0.0161,
      "velocity": 101,
      "chip": "ym2612"
    },
    {
      "channel": 4,
      "note": 97,
      "start": 75.2385,
      "duration": 0.0161,
      "velocity": 101,
      "chip": "ym2612"
    },
    {
      "channel": 3,
      "note": 100,
      "start": 75.2397,
      "duration": 0.0161,
      "velocity": 101,
      "chip": "ym2612"
    },
    {
      "channel": 2,
      "note": 66,
      "start": 75.241,
      "duration": 0.016,
      "velocity": 100,
      "chip": "ym2612"
    },
    {
      "channel": 1,
      "note": 105,
      "start": 75.2499,
      "duration": 0.0161,
      "velocity": 105,
      "chip": "ym2612"
    },
    {
      "channel": 0,
      "note": 45,
      "start": 75.2522,
      "duration": 0.0161,
      "velocity": 115,
      "chip": "ym2612"
    },
    {
      "channel": 5,
      "note": 92,
      "start": 75.2534,
      "duration": 0.0161,
      "velocity": 101,
      "chip": "ym2612"
    },
    {
      "channel": 4,
      "note": 97,
      "start": 75.2546,
      "duration": 0.0161,
      "velocity": 101,
      "chip": "ym2612"
    },
    {
      "channel": 3,
      "note": 100,
      "start": 75.2558,
      "duration": 0.0161,
      "velocity": 101,
      "chip": "ym2612"
    },
    {
      "channel": 2,
      "note": 66,
      "start": 75.257,
      "duration": 0.0161,
      "velocity": 100,
      "chip": "ym2612"
    },
    {
      "channel": 1,
      "note": 105,
      "start": 75.266,
      "duration": 0.0162,
      "velocity": 105,
      "chip": "ym2612"
    },
    {
      "channel": 0,
      "note": 45,
      "start": 75.2683,
      "duration": 0.0158,
      "velocity": 115,
      "chip": "ym2612"
    },
    {
      "channel": 5,
      "note": 92,
      "start": 75.2695,
      "duration": 0.0161,
      "velocity": 101,
      "chip": "ym2612"
    },
    {
      "channel": 4,
      "note": 97,
      "start": 75.2707,
      "duration": 0.0161,
      "velocity": 101,
      "chip": "ym2612"
    },
    {
      "channel": 3,
      "note": 100,
      "start": 75.2719,
      "duration": 0.0161,
      "velocity": 101,
      "chip": "ym2612"
    },
    {
      "channel": 2,
      "note": 66,
      "start": 75.2731,
      "duration": 0.016,
      "velocity": 100,
      "chip": "ym2612"
    },
    {
      "channel": 1,
      "note": 105,
      "start": 75.2822,
      "duration": 0.0161,
      "velocity": 105,
      "chip": "ym2612"
    },
    {
      "channel": 0,
      "note": 46,
      "start": 75.2841,
      "duration": 0.0159,
      "velocity": 115,
      "chip": "ym2612"
    },
    {
      "channel": 5,
      "note": 92,
      "start": 75.2856,
      "duration": 0.0161,
      "velocity": 101,
      "chip": "ym2612"
    },
    {
      "channel": 4,
      "note": 97,
      "start": 75.2868,
      "duration": 0.0161,
      "velocity": 101,
      "chip": "ym2612"
    },
    {
      "channel": 3,
      "note": 100,
      "start": 75.288,
      "duration": 0.0162,
      "velocity": 101,
      "chip": "ym2612"
    },
    {
      "channel": 2,
      "note": 66,
      "start": 75.2892,
      "duration": 0.0161,
      "velocity": 100,
      "chip": "ym2612"
    },
    {
      "channel": 1,
      "note": 105,
      "start": 75.2983,
      "duration": 0.0161,
      "velocity": 105,
      "chip": "ym2612"
    },
    {
      "channel": 0,
      "note": 46,
      "start": 75.2999,
      "duration": 0.0161,
      "velocity": 115,
      "chip": "ym2612"
    },
    {
      "channel": 5,
      "note": 92,
      "start": 75.3017,
      "duration": 0.0157,
      "velocity": 101,
      "chip": "ym2612"
    },
    {
      "channel": 4,
      "note": 97,
      "start": 75.3029,
      "duration": 0.0161,
      "velocity": 101,
      "chip": "ym2612"
    },
    {
      "channel": 3,
      "note": 100,
      "start": 75.3041,
      "duration": 0.016,
      "velocity": 101,
      "chip": "ym2612"
    },
    {
      "channel": 2,
      "note": 66,
      "start": 75.3053,
      "duration": 0.0162,
      "velocity": 100,
      "chip": "ym2612"
    },
    {
      "channel": 1,
      "note": 105,
      "start": 75.3144,
      "duration": 0.0161,
      "velocity": 105,
      "chip": "ym2612"
    },
    {
      "channel": 0,
      "note": 47,
      "start": 75.3161,
      "duration": 0.0161,
      "velocity": 115,
      "chip": "ym2612"
    },
    {
      "channel": 5,
      "note": 92,
      "start": 75.3174,
      "duration": 0.0159,
      "velocity": 101,
      "chip": "ym2612"
    },
    {
      "channel": 4,
      "note": 97,
      "start": 75.319,
      "duration": 0.0161,
      "velocity": 101,
      "chip": "ym2612"
    },
    {
      "channel": 3,
      "note": 100,
      "start": 75.3202,
      "duration": 0.0161,
      "velocity": 101,
      "chip": "ym2612"
    },
    {
      "channel": 2,
      "note": 66,
      "start": 75.3215,
      "duration": 0.016,
      "velocity": 100,
      "chip": "ym2612"
    },
    {
      "channel": 1,
      "note": 105,
      "start": 75.3305,
      "duration": 0.0179,
      "velocity": 116,
      "chip": "ym2612"
    },
    {
      "channel": 0,
      "note": 47,
      "start": 75.3322,
      "duration": 0.0203,
      "velocity": 115,
      "chip": "ym2612"
    },
    {
      "channel": 5,
      "note": 92,
      "start": 75.3333,
      "duration": 0.0204,
      "velocity": 101,
      "chip": "ym2612"
    },
    {
      "channel": 4,
      "note": 97,
      "start": 75.3351,
      "duration": 0.0198,
      "velocity": 101,
      "chip": "ym2612"
    },
    {
      "channel": 3,
      "note": 100,
      "start": 75.3363,
      "duration": 0.0198,
      "velocity": 101,
      "chip": "ym2612"
    },
    {
      "channel": 2,
      "note": 66,
      "start": 75.3375,
      "duration": 0.0202,
      "velocity": 100,
      "chip": "ym2612"
    },
    {
      "channel": 1,
      "note": 68,
      "start": 75.3483,
      "duration": 0.0144,
      "velocity": 116,
      "chip": "ym2612"
    },
    {
      "channel": 0,
      "note": 36,
      "start": 75.3525,
      "duration": 0.012,
      "velocity": 115,
      "chip": "ym2612"
    },
    {
      "channel": 5,
      "note": 92,
      "start": 75.3537,
      "duration": 0.012,
      "velocity": 101,
      "chip": "ym2612"
    },
    {
      "channel": 4,
      "note": 97,
      "start": 75.3549,
      "duration": 0.012,
      "velocity": 101,
      "chip": "ym2612"
    },
    {
      "channel": 3,
      "note": 100,
      "start": 75.3561,
      "duration": 0.0126,
      "velocity": 101,
      "chip": "ym2612"
    },
    {
      "channel": 2,
      "note": 54,
      "start": 75.3578,
      "duration": 0.0122,
      "velocity": 100,
      "chip": "ym2612"
    },
    {
      "channel": 1,
      "note": 68,
      "start": 75.3627,
      "duration": 0.016,
      "velocity": 116,
      "chip": "ym2612"
    },
    {
      "channel": 0,
      "note": 36,
      "start": 75.3645,
      "duration": 0.016,
      "velocity": 115,
      "chip": "ym2612"
    },
    {
      "channel": 5,
      "note": 92,
      "start": 75.3657,
      "duration": 0.016,
      "velocity": 101,
      "chip": "ym2612"
    },
    {
      "channel": 4,
      "note": 97,
      "start": 75.3669,
      "duration": 0.016,
      "velocity": 101,
      "chip": "ym2612"
    },
    {
      "channel": 3,
      "note": 100,
      "start": 75.3688,
      "duration": 0.0159,
      "velocity": 101,
      "chip": "ym2612"
    },
    {
      "channel": 2,
      "note": 54,
      "start": 75.37,
      "duration": 0.0159,
      "velocity": 100,
      "chip": "ym2612"
    },
    {
      "channel": 1,
      "note": 68,
      "start": 75.3787,
      "duration": 0.0162,
      "velocity": 116,
      "chip": "ym2612"
    },
    {
      "channel": 0,
      "note": 37,
      "start": 75.3805,
      "duration": 0.0161,
      "velocity": 115,
      "chip": "ym2612"
    },
    {
      "channel": 5,
      "note": 92,
      "start": 75.3817,
      "duration": 0.0161,
      "velocity": 101,
      "chip": "ym2612"
    },
    {
      "channel": 4,
      "note": 97,
      "start": 75.3829,
      "duration": 0.0161,
      "velocity": 101,
      "chip": "ym2612"
    },
    {
      "channel": 3,
      "note": 100,
      "start": 75.3846,
      "duration": 0.0155,
      "velocity": 101,
      "chip": "ym2612"
    },
    {
      "channel": 2,
      "note": 54,
      "start": 75.3859,
      "duration": 0.016,
      "velocity": 100,
      "chip": "ym2612"
    },
    {
      "channel": 1,
      "note": 68,
      "start": 75.3949,
      "duration": 0.0161,
      "velocity": 116,
      "chip": "ym2612"
    },
    {
      "channel": 0,
      "note": 37,
      "start": 75.3966,
      "duration": 0.0161,
      "velocity": 115,
      "chip": "ym2612"
    },
    {
      "channel": 5,
      "note": 92,
      "start": 75.3978,
      "duration": 0.0161,
      "velocity": 101,
      "chip": "ym2612"
    },
    {
      "channel": 4,
      "note": 97,
      "start": 75.399,
      "duration": 0.0161,
      "velocity": 101,
      "chip": "ym2612"
    },
    {
      "channel": 3,
      "note": 100,
      "start": 75.4002,
      "duration": 0.0161,
      "velocity": 101,
      "chip": "ym2612"
    },
    {
      "channel": 2,
      "note": 54,
      "start": 75.4019,
      "duration": 0.0161,
      "velocity": 100,
      "chip": "ym2612"
    },
    {
      "channel": 1,
      "note": 68,
      "start": 75.411,
      "duration": 0.0161,
      "velocity": 116,
      "chip": "ym2612"
    },
    {
      "channel": 0,
      "note": 38,
      "start": 75.4127,
      "duration": 0.0161,
      "velocity": 115,
      "chip": "ym2612"
    },
    {
      "channel": 5,
      "note": 92,
      "start": 75.4139,
      "duration": 0.0161,
      "velocity": 101,
      "chip": "ym2612"
    },
    {
      "channel": 4,
      "note": 97,
      "start": 75.4151,
      "duration": 0.0162,
      "velocity": 101,
      "chip": "ym2612"
    },
    {
      "channel": 3,
      "note": 100,
      "start": 75.4163,
      "duration": 0.0161,
      "velocity": 101,
      "chip": "ym2612"
    },
    {
      "channel": 2,
      "note": 54,
      "start": 75.418,
      "duration": 0.0156,
      "velocity": 100,
      "chip": "ym2612"
    },
    {
      "channel": 1,
      "note": 68,
      "start": 75.4271,
      "duration": 0.0178,
      "velocity": 116,
      "chip": "ym2612"
    },
    {
      "channel": 0,
      "note": 38,
      "start": 75.4288,
      "duration": 0.0179,
      "velocity": 115,
      "chip": "ym2612"
    },
    {
      "channel": 5,
      "note": 92,
      "start": 75.43,
      "duration": 0.0179,
      "velocity": 101,
      "chip": "ym2612"
    },
    {
      "channel": 4,
      "note": 97,
      "start": 75.4312,
      "duration": 0.0179,
      "velocity": 101,
      "chip": "ym2612"
    },
    {
      "channel": 3,
      "note": 100,
      "start": 75.4324,
      "duration": 0.0179,
      "velocity": 101,
      "chip": "ym2612"
    },
    {
      "channel": 2,
      "note": 54,
      "start": 75.4336,
      "duration": 0.0184,
      "velocity": 100,
      "chip": "ym2612"
    },
    {
      "channel": 1,
      "note": 68,
      "start": 75.445,
      "duration": 0.0144,
      "velocity": 116,
      "chip": "ym2612"
    },
    {
      "channel": 0,
      "note": 39,
      "start": 75.4467,
      "duration": 0.0144,
      "velocity": 115,
      "chip": "ym2612"
    },
    {
      "channel": 5,
      "note": 92,
      "start": 75.4479,
      "duration": 0.0144,
      "velocity": 101,
      "chip": "ym2612"
    },
    {
      "channel": 4,
      "note": 97,
      "start": 75.4491,
      "duration": 0.0145,
      "velocity": 101,
      "chip": "ym2612"
    },
    {
      "channel": 3,
      "note": 100,
      "start": 75.4503,
      "duration": 0.0146,
      "velocity": 101,
      "chip": "ym2612"
    },
    {
      "channel": 2,
      "note": 54,
      "start": 75.452,
      "duration": 0.014,
      "velocity": 100,
      "chip": "ym2612"
    },
    {
      "channel": 1,
      "note": 68,
      "start": 75.4593,
      "duration": 0.016,
      "velocity": 116,
      "chip": "ym2612"
    },
    {
      "channel": 0,
      "note": 39,
      "start": 75.461,
      "duration": 0.016,
      "velocity": 115,
      "chip": "ym2612"
    },
    {
      "channel": 5,
      "note": 92,
      "start": 75.4623,
      "duration": 0.016,
      "velocity": 101,
      "chip": "ym2612"
    },
    {
      "channel": 4,
      "note": 97,
      "start": 75.4636,
      "duration": 0.016,
      "velocity": 101,
      "chip": "ym2612"
    },
    {
      "channel": 3,
      "note": 100,
      "start": 75.4649,
      "duration": 0.016,
      "velocity": 101,
      "chip": "ym2612"
    },
    {
      "channel": 2,
      "note": 54,
      "start": 75.466,
      "duration": 0.016,
      "velocity": 100,
      "chip": "ym2612"
    },
    {
      "channel": 1,
      "note": 68,
      "start": 75.4754,
      "duration": 0.0161,
      "velocity": 116,
      "chip": "ym2612"
    },
    {
      "channel": 0,
      "note": 40,
      "start": 75.4771,
      "duration": 0.0161,
      "velocity": 115,
      "chip": "ym2612"
    },
    {
      "channel": 5,
      "note": 92,
      "start": 75.4784,
      "duration": 0.0161,
      "velocity": 101,
      "chip": "ym2612"
    },
    {
      "channel": 4,
      "note": 97,
      "start": 75.4796,
      "duration": 0.0161,
      "velocity": 101,
      "chip": "ym2612"
    },
    {
      "channel": 3,
      "note": 100,
      "start": 75.4809,
      "duration": 0.0161,
      "velocity": 101,
      "chip": "ym2612"
    },
    {
      "channel": 2,
      "note": 54,
      "start": 75.482,
      "duration": 0.0161,
      "velocity": 100,
      "chip": "ym2612"
    },
    {
      "channel": 1,
      "note": 68,
      "start": 75.4915,
      "duration": 0.0161,
      "velocity": 116,
      "chip": "ym2612"
    },
    {
      "channel": 0,
      "note": 40,
      "start": 75.4932,
      "duration": 0.0161,
      "velocity": 115,
      "chip": "ym2612"
    },
    {
      "channel": 2,
      "note": 54,
      "start": 75.4981,
      "duration": 0.016,
      "velocity": 100,
      "chip": "ym2612"
    },
    {
      "channel": 1,
      "note": 68,
      "start": 75.5076,
      "duration": 0.0161,
      "velocity": 116,
      "chip": "ym2612"
    },
    {
      "channel": 0,
      "note": 40,
      "start": 75.5093,
      "duration": 0.0161,
      "velocity": 115,
      "chip": "ym2612"
    },
    {
      "channel": 2,
      "note": 54,
      "start": 75.5142,
      "duration": 0.0161,
      "velocity": 100,
      "chip": "ym2612"
    },
    {
      "channel": 1,
      "note": 68,
      "start": 75.5237,
      "duration": 0.0161,
      "velocity": 116,
      "chip": "ym2612"
    },
    {
      "channel": 0,
      "note": 41,
      "start": 75.5254,
      "duration": 0.0161,
      "velocity": 115,
      "chip": "ym2612"
    },
    {
      "channel": 2,
      "note": 54,
      "start": 75.5303,
      "duration": 0.0159,
      "velocity": 100,
      "chip": "ym2612"
    },
    {
      "channel": 1,
      "note": 68,
      "start": 75.5398,
      "duration": 0.0178,
      "velocity": 105,
      "chip": "ym2612"
    },
    {
      "channel": 0,
      "note": 41,
      "start": 75.5415,
      "duration": 0.0179,
      "velocity": 115,
      "chip": "ym2612"
    },
    {
      "channel": 2,
      "note": 54,
      "start": 75.5462,
      "duration": 0.019,
      "velocity": 100,
      "chip": "ym2612"
    },
    {
      "channel": 1,
      "note": 105,
      "start": 75.5576,
      "duration": 0.0144,
      "velocity": 105,
      "chip": "ym2612"
    },
    {
      "channel": 0,
      "note": 42,
      "start": 75.5593,
      "duration": 0.0144,
      "velocity": 115,
      "chip": "ym2612"
    },
    {
      "channel": 5,
      "note": 92,
      "start": 75.5608,
      "duration": 0.0142,
      "velocity": 101,
      "chip": "ym2612"
    },
    {
      "channel": 4,
      "note": 97,
      "start": 75.5623,
      "duration": 0.014,
      "velocity": 101,
      "chip": "ym2612"
    },
    {
      "channel": 3,
      "note": 100,
      "start": 75.5638,
      "duration": 0.0137,
      "velocity": 101,
      "chip": "ym2612"
    },
    {
      "channel": 2,
      "note": 66,
      "start": 75.5653,
      "duration": 0.0134,
      "velocity": 100,
      "chip": "ym2612"
    },
    {
      "channel": 1,
      "note": 105,
      "start": 75.5721,
      "duration": 0.016,
      "velocity": 105,
      "chip": "ym2612"
    },
    {
      "channel": 0,
      "note": 42,
      "start": 75.5737,
      "duration": 0.016,
      "velocity": 115,
      "chip": "ym2612"
    },
    {
      "channel": 5,
      "note": 92,
      "start": 75.575,
      "duration": 0.016,
      "velocity": 101,
      "chip": "ym2612"
    },
    {
      "channel": 4,
      "note": 97,
      "start": 75.5763,
      "duration": 0.0159,
      "velocity": 101,
      "chip": "ym2612"
    },
    {
      "channel": 3,
      "note": 100,
      "start": 75.5775,
      "duration": 0.0159,
      "velocity": 101,
      "chip": "ym2612"
    },
    {
      "channel": 2,
      "note": 66,
      "start": 75.5787,
      "duration": 0.0158,
      "velocity": 100,
      "chip": "ym2612"
    },
    {
      "channel": 1,
      "note": 105,
      "start": 75.5881,
      "duration": 0.0161,
      "velocity": 105,
      "chip": "ym2612"
    },
    {
      "channel": 0,
      "note": 43,
      "start": 75.5898,
      "duration": 0.0161,
      "velocity": 115,
      "chip": "ym2612"
    },
    {
      "channel": 5,
      "note": 92,
      "start": 75.591,
      "duration": 0.0161,
      "velocity": 101,
      "chip": "ym2612"
    },
    {
      "channel": 4,
      "note": 97,
      "start": 75.5922,
      "duration": 0.0161,
      "velocity": 101,
      "chip": "ym2612"
    },
    {
      "channel": 3,
      "note": 100,
      "start": 75.5933,
      "duration": 0.0161,
      "velocity": 101,
      "chip": "ym2612"
    },
    {
      "channel": 2,
      "note": 66,
      "start": 75.5944,
      "duration": 0.0161,
      "velocity": 100,
      "chip": "ym2612"
    },
    {
      "channel": 1,
      "note": 105,
      "start": 75.6042,
      "duration": 0.0161,
      "velocity": 105,
      "chip": "ym2612"
    },
    {
      "channel": 0,
      "note": 43,
      "start": 75.6059,
      "duration": 0.0161,
      "velocity": 115,
      "chip": "ym2612"
    },
    {
      "channel": 5,
      "note": 92,
      "start": 75.6071,
      "duration": 0.0161,
      "velocity": 101,
      "chip": "ym2612"
    },
    {
      "channel": 4,
      "note": 97,
      "start": 75.6083,
      "duration": 0.0161,
      "velocity": 101,
      "chip": "ym2612"
    },
    {
      "channel": 3,
      "note": 100,
      "start": 75.6094,
      "duration": 0.0161,
      "velocity": 101,
      "chip": "ym2612"
    },
    {
      "channel": 2,
      "note": 66,
      "start": 75.6105,
      "duration": 0.0162,
      "velocity": 100,
      "chip": "ym2612"
    },
    {
      "channel": 1,
      "note": 105,
      "start": 75.6203,
      "duration": 0.0162,
      "velocity": 105,
      "chip": "ym2612"
    },
    {
      "channel": 0,
      "note": 44,
      "start": 75.622,
      "duration": 0.0162,
      "velocity": 115,
      "chip": "ym2612"
    },
    {
      "channel": 5,
      "note": 92,
      "start": 75.6231,
      "duration": 0.0162,
      "velocity": 101,
      "chip": "ym2612"
    },
    {
      "channel": 4,
      "note": 97,
      "start": 75.6244,
      "duration": 0.0161,
      "velocity": 101,
      "chip": "ym2612"
    },
    {
      "channel": 3,
      "note": 100,
      "start": 75.6255,
      "duration": 0.0162,
      "velocity": 101,
      "chip": "ym2612"
    },
    {
      "channel": 2,
      "note": 66,
      "start": 75.6267,
      "duration": 0.0161,
      "velocity": 100,
      "chip": "ym2612"
    },
    {
      "channel": 1,
      "note": 105,
      "start": 75.6364,
      "duration": 0.0163,
      "velocity": 105,
      "chip": "ym2612"
    },
    {
      "channel": 0,
      "note": 44,
      "start": 75.6382,
      "duration": 0.0162,
      "velocity": 115,
      "chip": "ym2612"
    },
    {
      "channel": 5,
      "note": 92,
      "start": 75.6393,
      "duration": 0.0163,
      "velocity": 101,
      "chip": "ym2612"
    },
    {
      "channel": 4,
      "note": 97,
      "start": 75.6405,
      "duration": 0.0163,
      "velocity": 101,
      "chip": "ym2612"
    },
    {
      "channel": 3,
      "note": 100,
      "start": 75.6417,
      "duration": 0.0163,
      "velocity": 101,
      "chip": "ym2612"
    },
    {
      "channel": 2,
      "note": 66,
      "start": 75.6429,
      "duration": 0.0163,
      "velocity": 100,
      "chip": "ym2612"
    },
    {
      "channel": 1,
      "note": 105,
      "start": 75.6527,
      "duration": 0.0163,
      "velocity": 105,
      "chip": "ym2612"
    },
    {
      "channel": 0,
      "note": 44,
      "start": 75.6544,
      "duration": 0.0163,
      "velocity": 115,
      "chip": "ym2612"
    },
    {
      "channel": 5,
      "note": 92,
      "start": 75.6556,
      "duration": 0.0164,
      "velocity": 101,
      "chip": "ym2612"
    },
    {
      "channel": 4,
      "note": 97,
      "start": 75.6568,
      "duration": 0.0164,
      "velocity": 101,
      "chip": "ym2612"
    },
    {
      "channel": 3,
      "note": 100,
      "start": 75.6579,
      "duration": 0.0165,
      "velocity": 101,
      "chip": "ym2612"
    },
    {
      "channel": 2,
      "note": 66,
      "start": 75.6592,
      "duration": 0.0165,
      "velocity": 100,
      "chip": "ym2612"
    },
    {
      "channel": 1,
      "note": 105,
      "start": 75.669,
      "duration": 0.0163,
      "velocity": 105,
      "chip": "ym2612"
    },
    {
      "channel": 0,
      "note": 45,
      "start": 75.6707,
      "duration": 0.0162,
      "velocity": 115,
      "chip": "ym2612"
    },
    {
      "channel": 5,
      "note": 92,
      "start": 75.672,
      "duration": 0.0162,
      "velocity": 101,
      "chip": "ym2612"
    },
    {
      "channel": 4,
      "note": 97,
      "start": 75.6732,
      "duration": 0.0162,
      "velocity": 101,
      "chip": "ym2612"
    },
    {
      "channel": 3,
      "note": 100,
      "start": 75.6745,
      "duration": 0.0162,
      "velocity": 101,
      "chip": "ym2612"
    },
    {
      "channel": 2,
      "note": 66,
      "start": 75.6757,
      "duration": 0.0161,
      "velocity": 100,
      "chip": "ym2612"
    },
    {
      "channel": 1,
      "note": 105,
      "start": 75.6853,
      "duration": 0.016,
      "velocity": 105,
      "chip": "ym2612"
    },
    {
      "channel": 0,
      "note": 45,
      "start": 75.6869,
      "duration": 0.0162,
      "velocity": 115,
      "chip": "ym2612"
    },
    {
      "channel": 5,
      "note": 92,
      "start": 75.6882,
      "duration": 0.0161,
      "velocity": 101,
      "chip": "ym2612"
    },
    {
      "channel": 4,
      "note": 97,
      "start": 75.6894,
      "duration": 0.0161,
      "velocity": 101,
      "chip": "ym2612"
    },
    {
      "channel": 3,
      "note": 100,
      "start": 75.6906,
      "duration": 0.0162,
      "velocity": 101,
      "chip": "ym2612"
    },
    {
      "channel": 2,
      "note": 66,
      "start": 75.6918,
      "duration": 0.0161,
      "velocity": 100,
      "chip": "ym2612"
    },
    {
      "channel": 1,
      "note": 105,
      "start": 75.7013,
      "duration": 0.0156,
      "velocity": 105,
      "chip": "ym2612"
    },
    {
      "channel": 0,
      "note": 46,
      "start": 75.7031,
      "duration": 0.0161,
      "velocity": 115,
      "chip": "ym2612"
    },
    {
      "channel": 2,
      "note": 66,
      "start": 75.7079,
      "duration": 0.016,
      "velocity": 100,
      "chip": "ym2612"
    },
    {
      "channel": 1,
      "note": 105,
      "start": 75.7169,
      "duration": 0.0161,
      "velocity": 105,
      "chip": "ym2612"
    },
    {
      "channel": 0,
      "note": 46,
      "start": 75.7192,
      "duration": 0.0161,
      "velocity": 115,
      "chip": "ym2612"
    },
    {
      "channel": 2,
      "note": 66,
      "start": 75.724,
      "duration": 0.0163,
      "velocity": 100,
      "chip": "ym2612"
    },
    {
      "channel": 1,
      "note": 105,
      "start": 75.733,
      "duration": 0.0161,
      "velocity": 105,
      "chip": "ym2612"
    },
    {
      "channel": 0,
      "note": 47,
      "start": 75.7353,
      "duration": 0.016,
      "velocity": 115,
      "chip": "ym2612"
    },
    {
      "channel": 2,
      "note": 66,
      "start": 75.7403,
      "duration": 0.0157,
      "velocity": 100,
      "chip": "ym2612"
    },
    {
      "channel": 1,
      "note": 105,
      "start": 75.7491,
      "duration": 0.0179,
      "velocity": 116,
      "chip": "ym2612"
    },
    {
      "channel": 0,
      "note": 47,
      "start": 75.7513,
      "duration": 0.0198,
      "velocity": 115,
      "chip": "ym2612"
    },
    {
      "channel": 2,
      "note": 66,
      "start": 75.756,
      "duration": 0.0211,
      "velocity": 100,
      "chip": "ym2612"
    },
    {
      "channel": 1,
      "note": 68,
      "start": 75.767,
      "duration": 0.0144,
      "velocity": 116,
      "chip": "ym2612"
    },
    {
      "channel": 0,
      "note": 36,
      "start": 75.7712,
      "duration": 0.012,
      "velocity": 115,
      "chip": "ym2612"
    },
    {
      "channel": 5,
      "note": 92,
      "start": 75.7726,
      "duration": 0.0123,
      "velocity": 101,
      "chip": "ym2612"
    },
    {
      "channel": 4,
      "note": 97,
      "start": 75.7741,
      "duration": 0.0121,
      "velocity": 101,
      "chip": "ym2612"
    },
    {
      "channel": 3,
      "note": 100,
      "start": 75.7756,
      "duration": 0.0119,
      "velocity": 101,
      "chip": "ym2612"
    },
    {
      "channel": 2,
      "note": 54,
      "start": 75.7772,
      "duration": 0.0115,
      "velocity": 100,
      "chip": "ym2612"
    },
    {
      "channel": 1,
      "note": 68,
      "start": 75.7813,
      "duration": 0.016,
      "velocity": 116,
      "chip": "ym2612"
    },
    {
      "channel": 0,
      "note": 36,
      "start": 75.7831,
      "duration": 0.016,
      "velocity": 115,
      "chip": "ym2612"
    },
    {
      "channel": 5,
      "note": 92,
      "start": 75.7849,
      "duration": 0.0154,
      "velocity": 101,
      "chip": "ym2612"
    },
    {
      "channel": 4,
      "note": 97,
      "start": 75.7862,
      "duration": 0.0158,
      "velocity": 101,
      "chip": "ym2612"
    },
    {
      "channel": 3,
      "note": 100,
      "start": 75.7875,
      "duration": 0.0158,
      "velocity": 101,
      "chip": "ym2612"
    },
    {
      "channel": 2,
      "note": 54,
      "start": 75.7887,
      "duration": 0.0158,
      "velocity": 100,
      "chip": "ym2612"
    },
    {
      "channel": 1,
      "note": 68,
      "start": 75.7974,
      "duration": 0.0161,
      "velocity": 116,
      "chip": "ym2612"
    },
    {
      "channel": 0,
      "note": 37,
      "start": 75.7991,
      "duration": 0.0161,
      "velocity": 115,
      "chip": "ym2612"
    },
    {
      "channel": 5,
      "note": 92,
      "start": 75.8003,
      "duration": 0.0161,
      "velocity": 101,
      "chip": "ym2612"
    },
    {
      "channel": 4,
      "note": 97,
      "start": 75.802,
      "duration": 0.0161,
      "velocity": 101,
      "chip": "ym2612"
    },
    {
      "channel": 3,
      "note": 100,
      "start": 75.8032,
      "duration": 0.0161,
      "velocity": 101,
      "chip": "ym2612"
    },
    {
      "channel": 2,
      "note": 54,
      "start": 75.8044,
      "duration": 0.016,
      "velocity": 100,
      "chip": "ym2612"
    },
    {
      "channel": 1,
      "note": 68,
      "start": 75.8135,
      "duration": 0.0161,
      "velocity": 116,
      "chip": "ym2612"
    },
    {
      "channel": 0,
      "note": 37,
      "start": 75.8152,
      "duration": 0.0161,
      "velocity": 115,
      "chip": "ym2612"
    },
    {
      "channel": 5,
      "note": 92,
      "start": 75.8164,
      "duration": 0.0161,
      "velocity": 101,
      "chip": "ym2612"
    },
    {
      "channel": 4,
      "note": 97,
      "start": 75.8181,
      "duration": 0.0155,
      "velocity": 101,
      "chip": "ym2612"
    },
    {
      "channel": 3,
      "note": 100,
      "start": 75.8193,
      "duration": 0.0161,
      "velocity": 101,
      "chip": "ym2612"
    },
    {
      "channel": 2,
      "note": 54,
      "start": 75.8205,
      "duration": 0.0161,
      "velocity": 100,
      "chip": "ym2612"
    },
    {
      "channel": 1,
      "note": 68,
      "start": 75.8296,
      "duration": 0.0161,
      "velocity": 116,
      "chip": "ym2612"
    },
    {
      "channel": 0,
      "note": 38,
      "start": 75.8313,
      "duration": 0.0161,
      "velocity": 115,
      "chip": "ym2612"
    },
    {
      "channel": 5,
      "note": 92,
      "start": 75.8325,
      "duration": 0.0161,
      "velocity": 101,
      "chip": "ym2612"
    },
    {
      "channel": 4,
      "note": 97,
      "start": 75.8336,
      "duration": 0.0162,
      "velocity": 101,
      "chip": "ym2612"
    },
    {
      "channel": 3,
      "note": 100,
      "start": 75.8354,
      "duration": 0.0161,
      "velocity": 101,
      "chip": "ym2612"
    },
    {
      "channel": 2,
      "note": 54,
      "start": 75.8366,
      "duration": 0.0162,
      "velocity": 100,
      "chip": "ym2612"
    },
    {
      "channel": 1,
      "note": 68,
      "start": 75.8457,
      "duration": 0.0178,
      "velocity": 116,
      "chip": "ym2612"
    },
    {
      "channel": 0,
      "note": 38,
      "start": 75.8474,
      "duration": 0.0179,
      "velocity": 115,
      "chip": "ym2612"
    },
    {
      "channel": 5,
      "note": 92,
      "start": 75.8486,
      "duration": 0.0179,
      "velocity": 101,
      "chip": "ym2612"
    },
    {
      "channel": 4,
      "note": 97,
      "start": 75.8498,
      "duration": 0.0184,
      "velocity": 101,
      "chip": "ym2612"
    },
    {
      "channel": 3,
      "note": 100,
      "start": 75.8515,
      "duration": 0.0179,
      "velocity": 101,
      "chip": "ym2612"
    },
    {
      "channel": 2,
      "note": 54,
      "start": 75.8527,
      "duration": 0.0179,
      "velocity": 100,
      "chip": "ym2612"
    },
    {
      "channel": 1,
      "note": 68,
      "start": 75.8636,
      "duration": 0.0144,
      "velocity": 116,
      "chip": "ym2612"
    },
    {
      "channel": 0,
      "note": 39,
      "start": 75.8653,
      "duration": 0.0144,
      "velocity": 115,
      "chip": "ym2612"
    },
    {
      "channel": 5,
      "note": 92,
      "start": 75.8665,
      "duration": 0.0144,
      "velocity": 101,
      "chip": "ym2612"
    },
    {
      "channel": 4,
      "note": 97,
      "start": 75.8682,
      "duration": 0.0139,
      "velocity": 101,
      "chip": "ym2612"
    },
    {
      "channel": 3,
      "note": 100,
      "start": 75.8695,
      "duration": 0.0137,
      "velocity": 101,
      "chip": "ym2612"
    },
    {
      "channel": 2,
      "note": 54,
      "start": 75.8706,
      "duration": 0.0143,
      "velocity": 100,
      "chip": "ym2612"
    },
    {
      "channel": 1,
      "note": 68,
      "start": 75.878,
      "duration": 0.016,
      "velocity": 116,
      "chip": "ym2612"
    },
    {
      "channel": 0,
      "note": 39,
      "start": 75.8797,
      "duration": 0.016,
      "velocity": 115,
      "chip": "ym2612"
    },
    {
      "channel": 5,
      "note": 92,
      "start": 75.8808,
      "duration": 0.016,
      "velocity": 101,
      "chip": "ym2612"
    },
    {
      "channel": 4,
      "note": 97,
      "start": 75.882,
      "duration": 0.016,
      "velocity": 101,
      "chip": "ym2612"
    },
    {
      "channel": 3,
      "note": 100,
      "start": 75.8832,
      "duration": 0.016,
      "velocity": 101,
      "chip": "ym2612"
    },
    {
      "channel": 2,
      "note": 54,
      "start": 75.8849,
      "duration": 0.0155,
      "velocity": 100,
      "chip": "ym2612"
    },
    {
      "channel": 1,
      "note": 68,
      "start": 75.894,
      "duration": 0.0161,
      "velocity": 116,
      "chip": "ym2612"
    },
    {
      "channel": 0,
      "note": 40,
      "start": 75.8957,
      "duration": 0.0161,
      "velocity": 115,
      "chip": "ym2612"
    },
    {
      "channel": 5,
      "note": 92,
      "start": 75.8969,
      "duration": 0.0161,
      "velocity": 101,
      "chip": "ym2612"
    },
    {
      "channel": 4,
      "note": 97,
      "start": 75.8981,
      "duration": 0.0161,
      "velocity": 101,
      "chip": "ym2612"
    },
    {
      "channel": 3,
      "note": 100,
      "start": 75.8992,
      "duration": 0.0161,
      "velocity": 101,
      "chip": "ym2612"
    },
    {
      "channel": 2,
      "note": 54,
      "start": 75.9004,
      "duration": 0.0161,
      "velocity": 100,
      "chip": "ym2612"
    },
    {
      "channel": 1,
      "note": 68,
      "start": 75.9101,
      "duration": 0.0161,
      "velocity": 116,
      "chip": "ym2612"
    },
    {
      "channel": 0,
      "note": 40,
      "start": 75.9118,
      "duration": 0.0161,
      "velocity": 115,
      "chip": "ym2612"
    },
    {
      "channel": 5,
      "note": 92,
      "start": 75.913,
      "duration": 0.0161,
      "velocity": 101,
      "chip": "ym2612"
    },
    {
      "channel": 4,
      "note": 97,
      "start": 75.9142,
      "duration": 0.0161,
      "velocity": 101,
      "chip": "ym2612"
    },
    {
      "channel": 3,
      "note": 100,
      "start": 75.9154,
      "duration": 0.0161,
      "velocity": 101,
      "chip": "ym2612"
    },
    {
      "channel": 2,
      "note": 54,
      "start": 75.9165,
      "duration": 0.0161,
      "velocity": 100,
      "chip": "ym2612"
    },
    {
      "channel": 1,
      "note": 68,
      "start": 75.9262,
      "duration": 0.0161,
      "velocity": 116,
      "chip": "ym2612"
    },
    {
      "channel": 0,
      "note": 40,
      "start": 75.9279,
      "duration": 0.0161,
      "velocity": 115,
      "chip": "ym2612"
    },
    {
      "channel": 5,
      "note": 92,
      "start": 75.9291,
      "duration": 0.0161,
      "velocity": 101,
      "chip": "ym2612"
    },
    {
      "channel": 4,
      "note": 97,
      "start": 75.9303,
      "duration": 0.0161,
      "velocity": 101,
      "chip": "ym2612"
    },
    {
      "channel": 3,
      "note": 100,
      "start": 75.9315,
      "duration": 0.0161,
      "velocity": 101,
      "chip": "ym2612"
    },
    {
      "channel": 2,
      "note": 54,
      "start": 75.9326,
      "duration": 0.0161,
      "velocity": 100,
      "chip": "ym2612"
    },
    {
      "channel": 1,
      "note": 68,
      "start": 75.9423,
      "duration": 0.0161,
      "velocity": 116,
      "chip": "ym2612"
    },
    {
      "channel": 0,
      "note": 41,
      "start": 75.944,
      "duration": 0.0161,
      "velocity": 115,
      "chip": "ym2612"
    },
    {
      "channel": 5,
      "note": 92,
      "start": 75.9452,
      "duration": 0.0161,
      "velocity": 101,
      "chip": "ym2612"
    },
    {
      "channel": 4,
      "note": 97,
      "start": 75.9463,
      "duration": 0.0161,
      "velocity": 101,
      "chip": "ym2612"
    },
    {
      "channel": 3,
      "note": 100,
      "start": 75.9476,
      "duration": 0.0161,
      "velocity": 101,
      "chip": "ym2612"
    },
    {
      "channel": 2,
      "note": 54,
      "start": 75.9487,
      "duration": 0.0161,
      "velocity": 100,
      "chip": "ym2612"
    },
    {
      "channel": 1,
      "note": 68,
      "start": 75.9584,
      "duration": 0.0178,
      "velocity": 105,
      "chip": "ym2612"
    },
    {
      "channel": 0,
      "note": 41,
      "start": 75.9601,
      "duration": 0.0179,
      "velocity": 115,
      "chip": "ym2612"
    },
    {
      "channel": 5,
      "note": 92,
      "start": 75.9613,
      "duration": 0.0179,
      "velocity": 101,
      "chip": "ym2612"
    },
    {
      "channel": 4,
      "note": 97,
      "start": 75.9624,
      "duration": 0.0179,
      "velocity": 101,
      "chip": "ym2612"
    },
    {
      "channel": 3,
      "note": 100,
      "start": 75.9637,
      "duration": 0.018,
      "velocity": 101,
      "chip": "ym2612"
    },
    {
      "channel": 2,
      "note": 54,
      "start": 75.9648,
      "duration": 0.0182,
      "velocity": 100,
      "chip": "ym2612"
    },
    {
      "channel": 1,
      "note": 105,
      "start": 75.9763,
      "duration": 0.0144,
      "velocity": 105,
      "chip": "ym2612"
    },
    {
      "channel": 0,
      "note": 42,
      "start": 75.978,
      "duration": 0.0144,
      "velocity": 115,
      "chip": "ym2612"
    },
    {
      "channel": 5,
      "note": 92,
      "start": 75.9792,
      "duration": 0.0144,
      "velocity": 101,
      "chip": "ym2612"
    },
    {
      "channel": 4,
      "note": 97,
      "start": 75.9804,
      "duration": 0.0144,
      "velocity": 101,
      "chip": "ym2612"
    },
    {
      "channel": 3,
      "note": 100,
      "start": 75.9816,
      "duration": 0.0144,
      "velocity": 101,
      "chip": "ym2612"
    },
    {
      "channel": 2,
      "note": 66,
      "start": 75.9831,
      "duration": 0.0141,
      "velocity": 100,
      "chip": "ym2612"
    },
    {
      "channel": 1,
      "note": 105,
      "start": 75.9906,
      "duration": 0.016,
      "velocity": 105,
      "chip": "ym2612"
    },
    {
      "channel": 0,
      "note": 42,
      "start": 75.9924,
      "duration": 0.016,
      "velocity": 115,
      "chip": "ym2612"
    },
    {
      "channel": 5,
      "note": 92,
      "start": 75.9936,
      "duration": 0.016,
      "velocity": 101,
      "chip": "ym2612"
    },
    {
      "channel": 4,
      "note": 97,
      "start": 75.9948,
      "duration": 0.016,
      "velocity": 101,
      "chip": "ym2612"
    },
    {
      "channel": 3,
      "note": 100,
      "start": 75.996,
      "duration": 0.016,
      "velocity": 101,
      "chip": "ym2612"
    },
    {
      "channel": 2,
      "note": 66,
      "start": 75.9972,
      "duration": 0.016,
      "velocity": 100,
      "chip": "ym2612"
    },
    {
      "channel": 1,
      "note": 105,
      "start": 76.0067,
      "duration": 0.0161,
      "velocity": 105,
      "chip": "ym2612"
    },
    {
      "channel": 0,
      "note": 43,
      "start": 76.0084,
      "duration": 0.0161,
      "velocity": 115,
      "chip": "ym2612"
    },
    {
      "channel": 5,
      "note": 92,
      "start": 76.0096,
      "duration": 0.0161,
      "velocity": 101,
      "chip": "ym2612"
    },
    {
      "channel": 4,
      "note": 97,
      "start": 76.0108,
      "duration": 0.0161,
      "velocity": 101,
      "chip": "ym2612"
    },
    {
      "channel": 3,
      "note": 100,
      "start": 76.012,
      "duration": 0.0161,
      "velocity": 101,
      "chip": "ym2612"
    },
    {
      "channel": 2,
      "note": 66,
      "start": 76.0132,
      "duration": 0.0161,
      "velocity": 100,
      "chip": "ym2612"
    },
    {
      "channel": 1,
      "note": 105,
      "start": 76.0228,
      "duration": 0.0161,
      "velocity": 105,
      "chip": "ym2612"
    },
    {
      "channel": 0,
      "note": 43,
      "start": 76.0245,
      "duration": 0.0161,
      "velocity": 115,
      "chip": "ym2612"
    },
    {
      "channel": 5,
      "note": 92,
      "start": 76.0257,
      "duration": 0.0161,
      "velocity": 101,
      "chip": "ym2612"
    },
    {
      "channel": 4,
      "note": 97,
      "start": 76.0269,
      "duration": 0.0161,
      "velocity": 101,
      "chip": "ym2612"
    },
    {
      "channel": 3,
      "note": 100,
      "start": 76.0281,
      "duration": 0.0161,
      "velocity": 101,
      "chip": "ym2612"
    },
    {
      "channel": 2,
      "note": 66,
      "start": 76.0293,
      "duration": 0.0161,
      "velocity": 100,
      "chip": "ym2612"
    },
    {
      "channel": 1,
      "note": 105,
      "start": 76.0389,
      "duration": 0.0161,
      "velocity": 105,
      "chip": "ym2612"
    },
    {
      "channel": 0,
      "note": 44,
      "start": 76.0406,
      "duration": 0.0162,
      "velocity": 115,
      "chip": "ym2612"
    },
    {
      "channel": 5,
      "note": 92,
      "start": 76.0418,
      "duration": 0.0161,
      "velocity": 101,
      "chip": "ym2612"
    },
    {
      "channel": 4,
      "note": 97,
      "start": 76.043,
      "duration": 0.0161,
      "velocity": 101,
      "chip": "ym2612"
    },
    {
      "channel": 3,
      "note": 100,
      "start": 76.0442,
      "duration": 0.0161,
      "velocity": 101,
      "chip": "ym2612"
    },
    {
      "channel": 2,
      "note": 66,
      "start": 76.0454,
      "duration": 0.0161,
      "velocity": 100,
      "chip": "ym2612"
    },
    {
      "channel": 1,
      "note": 105,
      "start": 76.055,
      "duration": 0.0161,
      "velocity": 105,
      "chip": "ym2612"
    },
    {
      "channel": 0,
      "note": 44,
      "start": 76.0567,
      "duration": 0.0161,
      "velocity": 115,
      "chip": "ym2612"
    },
    {
      "channel": 5,
      "note": 92,
      "start": 76.0579,
      "duration": 0.0162,
      "velocity": 101,
      "chip": "ym2612"
    },
    {
      "channel": 4,
      "note": 97,
      "start": 76.0591,
      "duration": 0.0162,
      "velocity": 101,
      "chip": "ym2612"
    },
    {
      "channel": 3,
      "note": 100,
      "start": 76.0603,
      "duration": 0.0161,
      "velocity": 101,
      "chip": "ym2612"
    },
    {
      "channel": 2,
      "note": 66,
      "start": 76.0614,
      "duration": 0.0162,
      "velocity": 100,
      "chip": "ym2612"
    },
    {
      "channel": 1,
      "note": 105,
      "start": 76.0711,
      "duration": 0.0161,
      "velocity": 105,
      "chip": "ym2612"
    },
    {
      "channel": 0,
      "note": 44,
      "start": 76.0728,
      "duration": 0.0161,
      "velocity": 115,
      "chip": "ym2612"
    },
    {
      "channel": 5,
      "note": 92,
      "start": 76.074,
      "duration": 0.0161,
      "velocity": 101,
      "chip": "ym2612"
    },
    {
      "channel": 4,
      "note": 97,
      "start": 76.0752,
      "duration": 0.0162,
      "velocity": 101,
      "chip": "ym2612"
    },
    {
      "channel": 3,
      "note": 100,
      "start": 76.0764,
      "duration": 0.0163,
      "velocity": 101,
      "chip": "ym2612"
    },
    {
      "channel": 2,
      "note": 66,
      "start": 76.0777,
      "duration": 0.0163,
      "velocity": 100,
      "chip": "ym2612"
    },
    {
      "channel": 1,
      "note": 105,
      "start": 76.0872,
      "duration": 0.0162,
      "velocity": 105,
      "chip": "ym2612"
    },
    {
      "channel": 0,
      "note": 45,
      "start": 76.0889,
      "duration": 0.0162,
      "velocity": 115,
      "chip": "ym2612"
    },
    {
      "channel": 5,
      "note": 92,
      "start": 76.0902,
      "duration": 0.0162,
      "velocity": 101,
      "chip": "ym2612"
    },
    {
      "channel": 4,
      "note": 97,
      "start": 76.0915,
      "duration": 0.0162,
      "velocity": 101,
      "chip": "ym2612"
    },
    {
      "channel": 3,
      "note": 100,
      "start": 76.0927,
      "duration": 0.0161,
      "velocity": 101,
      "chip": "ym2612"
    },
    {
      "channel": 2,
      "note": 66,
      "start": 76.0939,
      "duration": 0.0161,
      "velocity": 100,
      "chip": "ym2612"
    },
    {
      "channel": 1,
      "note": 105,
      "start": 76.1034,
      "duration": 0.0162,
      "velocity": 105,
      "chip": "ym2612"
    },
    {
      "channel": 0,
      "note": 45,
      "start": 76.1051,
      "duration": 0.0161,
      "velocity": 115,
      "chip": "ym2612"
    },
    {
      "channel": 5,
      "note": 92,
      "start": 76.1063,
      "duration": 0.0161,
      "velocity": 101,
      "chip": "ym2612"
    },
    {
      "channel": 4,
      "note": 97,
      "start": 76.1076,
      "duration": 0.0161,
      "velocity": 101,
      "chip": "ym2612"
    },
    {
      "channel": 3,
      "note": 100,
      "start": 76.1089,
      "duration": 0.0161,
      "velocity": 101,
      "chip": "ym2612"
    },
    {
      "channel": 2,
      "note": 66,
      "start": 76.1101,
      "duration": 0.016,
      "velocity": 100,
      "chip": "ym2612"
    },
    {
      "channel": 1,
      "note": 105,
      "start": 76.1195,
      "duration": 0.0164,
      "velocity": 105,
      "chip": "ym2612"
    },
    {
      "channel": 0,
      "note": 46,
      "start": 76.1212,
      "duration": 0.0164,
      "velocity": 115,
      "chip": "ym2612"
    },
    {
      "channel": 2,
      "note": 66,
      "start": 76.1261,
      "duration": 0.0163,
      "velocity": 100,
      "chip": "ym2612"
    },
    {
      "channel": 1,
      "note": 105,
      "start": 76.1359,
      "duration": 0.0163,
      "velocity": 105,
      "chip": "ym2612"
    },
    {
      "channel": 0,
      "note": 46,
      "start": 76.1376,
      "duration": 0.0163,
      "velocity": 115,
      "chip": "ym2612"
    },
    {
      "channel": 2,
      "note": 66,
      "start": 76.1425,
      "duration": 0.0165,
      "velocity": 100,
      "chip": "ym2612"
    },
    {
      "channel": 1,
      "note": 105,
      "start": 76.1522,
      "duration": 0.016,
      "velocity": 105,
      "chip": "ym2612"
    },
    {
      "channel": 0,
      "note": 47,
      "start": 76.1539,
      "duration": 0.0161,
      "velocity": 115,
      "chip": "ym2612"
    },
    {
      "channel": 2,
      "note": 66,
      "start": 76.159,
      "duration": 0.0158,
      "velocity": 100,
      "chip": "ym2612"
    },
    {
      "channel": 1,
      "note": 105,
      "start": 76.1682,
      "duration": 0.018,
      "velocity": 116,
      "chip": "ym2612"
    },
    {
      "channel": 0,
      "note": 47,
      "start": 76.17,
      "duration": 0.0197,
      "velocity": 115,
      "chip": "ym2612"
    },
    {
      "channel": 2,
      "note": 66,
      "start": 76.1748,
      "duration": 0.021,
      "velocity": 100,
      "chip": "ym2612"
    },
    {
      "channel": 1,
      "note": 68,
      "start": 76.1862,
      "duration": 0.0138,
      "velocity": 116,
      "chip": "ym2612"
    },
    {
      "channel": 0,
      "note": 36,
      "start": 76.1898,
      "duration": 0.0126,
      "velocity": 115,
      "chip": "ym2612"
    },
    {
      "channel": 5,
      "note": 90,
      "start": 76.1913,
      "duration": 0.0123,
      "velocity": 101,
      "chip": "ym2612"
    },
    {
      "channel": 4,
      "note": 95,
      "start": 76.1927,
      "duration": 0.0121,
      "velocity": 101,
      "chip": "ym2612"
    },
    {
      "channel": 3,
      "note": 99,
      "start": 76.1942,
      "duration": 0.0119,
      "velocity": 101,
      "chip": "ym2612"
    },
    {
      "channel": 2,
      "note": 54,
      "start": 76.1958,
      "duration": 0.0115,
      "velocity": 100,
      "chip": "ym2612"
    },
    {
      "channel": 1,
      "note": 68,
      "start": 76.2,
      "duration": 0.016,
      "velocity": 116,
      "chip": "ym2612"
    },
    {
      "channel": 0,
      "note": 36,
      "start": 76.2023,
      "duration": 0.0159,
      "velocity": 115,
      "chip": "ym2612"
    },
    {
      "channel": 5,
      "note": 90,
      "start": 76.2036,
      "duration": 0.0159,
      "velocity": 101,
      "chip": "ym2612"
    },
    {
      "channel": 4,
      "note": 95,
      "start": 76.2048,
      "duration": 0.0159,
      "velocity": 101,
      "chip": "ym2612"
    },
    {
      "channel": 3,
      "note": 99,
      "start": 76.2061,
      "duration": 0.0158,
      "velocity": 101,
      "chip": "ym2612"
    },
    {
      "channel": 2,
      "note": 54,
      "start": 76.2073,
      "duration": 0.0157,
      "velocity": 100,
      "chip": "ym2612"
    },
    {
      "channel": 1,
      "note": 68,
      "start": 76.216,
      "duration": 0.0161,
      "velocity": 116,
      "chip": "ym2612"
    },
    {
      "channel": 0,
      "note": 37,
      "start": 76.2182,
      "duration": 0.0159,
      "velocity": 115,
      "chip": "ym2612"
    },
    {
      "channel": 5,
      "note": 90,
      "start": 76.2195,
      "duration": 0.0161,
      "velocity": 101,
      "chip": "ym2612"
    },
    {
      "channel": 4,
      "note": 95,
      "start": 76.2207,
      "duration": 0.0161,
      "velocity": 101,
      "chip": "ym2612"
    },
    {
      "channel": 3,
      "note": 99,
      "start": 76.2219,
      "duration": 0.0161,
      "velocity": 101,
      "chip": "ym2612"
    },
    {
      "channel": 2,
      "note": 54,
      "start": 76.223,
      "duration": 0.0161,
      "velocity": 100,
      "chip": "ym2612"
    },
    {
      "channel": 1,
      "note": 68,
      "start": 76.2321,
      "duration": 0.0161,
      "velocity": 116,
      "chip": "ym2612"
    },
    {
      "channel": 0,
      "note": 37,
      "start": 76.2341,
      "duration": 0.0159,
      "velocity": 115,
      "chip": "ym2612"
    },
    {
      "channel": 5,
      "note": 90,
      "start": 76.2356,
      "duration": 0.016,
      "velocity": 101,
      "chip": "ym2612"
    },
    {
      "channel": 4,
      "note": 95,
      "start": 76.2368,
      "duration": 0.0161,
      "velocity": 101,
      "chip": "ym2612"
    },
    {
      "channel": 3,
      "note": 99,
      "start": 76.238,
      "duration": 0.0161,
      "velocity": 101,
      "chip": "ym2612"
    },
    {
      "channel": 2,
      "note": 54,
      "start": 76.2392,
      "duration": 0.016,
      "velocity": 100,
      "chip": "ym2612"
    },
    {
      "channel": 1,
      "note": 68,
      "start": 76.2482,
      "duration": 0.0161,
      "velocity": 116,
      "chip": "ym2612"
    },
    {
      "channel": 0,
      "note": 38,
      "start": 76.2499,
      "duration": 0.0161,
      "velocity": 115,
      "chip": "ym2612"
    },
    {
      "channel": 5,
      "note": 90,
      "start": 76.2516,
      "duration": 0.0158,
      "velocity": 101,
      "chip": "ym2612"
    },
    {
      "channel": 4,
      "note": 95,
      "start": 76.2529,
      "duration": 0.0161,
      "velocity": 101,
      "chip": "ym2612"
    },
    {
      "channel": 3,
      "note": 99,
      "start": 76.2541,
      "duration": 0.0161,
      "velocity": 101,
      "chip": "ym2612"
    },
    {
      "channel": 2,
      "note": 54,
      "start": 76.2552,
      "duration": 0.0161,
      "velocity": 100,
      "chip": "ym2612"
    },
    {
      "channel": 1,
      "note": 68,
      "start": 76.2643,
      "duration": 0.0179,
      "velocity": 116,
      "chip": "ym2612"
    },
    {
      "channel": 0,
      "note": 38,
      "start": 76.266,
      "duration": 0.0181,
      "velocity": 115,
      "chip": "ym2612"
    },
    {
      "channel": 5,
      "note": 90,
      "start": 76.2674,
      "duration": 0.0183,
      "velocity": 101,
      "chip": "ym2612"
    },
    {
      "channel": 4,
      "note": 95,
      "start": 76.269,
      "duration": 0.0179,
      "velocity": 101,
      "chip": "ym2612"
    },
    {
      "channel": 3,
      "note": 99,
      "start": 76.2702,
      "duration": 0.0179,
      "velocity": 101,
      "chip": "ym2612"
    },
    {
      "channel": 2,
      "note": 54,
      "start": 76.2713,
      "duration": 0.0179,
      "velocity": 100,
      "chip": "ym2612"
    },
    {
      "channel": 1,
      "note": 68,
      "start": 76.2822,
      "duration": 0.0144,
      "velocity": 116,
      "chip": "ym2612"
    },
    {
      "channel": 0,
      "note": 39,
      "start": 76.2841,
      "duration": 0.0141,
      "velocity": 115,
      "chip": "ym2612"
    },
    {
      "channel": 5,
      "note": 90,
      "start": 76.2857,
      "duration": 0.0138,
      "velocity": 101,
      "chip": "ym2612"
    },
    {
      "channel": 4,
      "note": 95,
      "start": 76.2869,
      "duration": 0.014,
      "velocity": 101,
      "chip": "ym2612"
    },
    {
      "channel": 3,
      "note": 99,
      "start": 76.2881,
      "duration": 0.0144,
      "velocity": 101,
      "chip": "ym2612"
    },
    {
      "channel": 2,
      "note": 54,
      "start": 76.2892,
      "duration": 0.0144,
      "velocity": 100,
      "chip": "ym2612"
    },
    {
      "channel": 1,
      "note": 68,
      "start": 76.2966,
      "duration": 0.016,
      "velocity": 116,
      "chip": "ym2612"
    },
    {
      "channel": 0,
      "note": 39,
      "start": 76.2983,
      "duration": 0.0161,
      "velocity": 115,
      "chip": "ym2612"
    },
    {
      "channel": 5,
      "note": 90,
      "start": 76.2995,
      "duration": 0.016,
      "velocity": 101,
      "chip": "ym2612"
    },
    {
      "channel": 4,
      "note": 95,
      "start": 76.3009,
      "duration": 0.0158,
      "velocity": 101,
      "chip": "ym2612"
    },
    {
      "channel": 3,
      "note": 99,
      "start": 76.3025,
      "duration": 0.016,
      "velocity": 101,
      "chip": "ym2612"
    },
    {
      "channel": 2,
      "note": 54,
      "start": 76.3036,
      "duration": 0.016,
      "velocity": 100,
      "chip": "ym2612"
    },
    {
      "channel": 1,
      "note": 68,
      "start": 76.3127,
      "duration": 0.0161,
      "velocity": 116,
      "chip": "ym2612"
    },
    {
      "channel": 0,
      "note": 40,
      "start": 76.3144,
      "duration": 0.0161,
      "velocity": 115,
      "chip": "ym2612"
    },
    {
      "channel": 5,
      "note": 90,
      "start": 76.3155,
      "duration": 0.0161,
      "velocity": 101,
      "chip": "ym2612"
    },
    {
      "channel": 4,
      "note": 95,
      "start": 76.3167,
      "duration": 0.0161,
      "velocity": 101,
      "chip": "ym2612"
    },
    {
      "channel": 3,
      "note": 99,
      "start": 76.3185,
      "duration": 0.0157,
      "velocity": 101,
      "chip": "ym2612"
    },
    {
      "channel": 2,
      "note": 54,
      "start": 76.3196,
      "duration": 0.0161,
      "velocity": 100,
      "chip": "ym2612"
    },
    {
      "channel": 1,
      "note": 68,
      "start": 76.3287,
      "duration": 0.0161,
      "velocity": 116,
      "chip": "ym2612"
    },
    {
      "channel": 0,
      "note": 40,
      "start": 76.3305,
      "duration": 0.0161,
      "velocity": 115,
      "chip": "ym2612"
    },
    {
      "channel": 5,
      "note": 90,
      "start": 76.3316,
      "duration": 0.0161,
      "velocity": 101,
      "chip": "ym2612"
    },
    {
      "channel": 4,
      "note": 95,
      "start": 76.3328,
      "duration": 0.0161,
      "velocity": 101,
      "chip": "ym2612"
    },
    {
      "channel": 3,
      "note": 99,
      "start": 76.3342,
      "duration": 0.0158,
      "velocity": 101,
      "chip": "ym2612"
    },
    {
      "channel": 2,
      "note": 54,
      "start": 76.3357,
      "duration": 0.0161,
      "velocity": 100,
      "chip": "ym2612"
    },
    {
      "channel": 1,
      "note": 68,
      "start": 76.3448,
      "duration": 0.0161,
      "velocity": 116,
      "chip": "ym2612"
    },
    {
      "channel": 0,
      "note": 40,
      "start": 76.3466,
      "duration": 0.0161,
      "velocity": 115,
      "chip": "ym2612"
    },
    {
      "channel": 5,
      "note": 90,
      "start": 76.3477,
      "duration": 0.0161,
      "velocity": 101,
      "chip": "ym2612"
    },
    {
      "channel": 4,
      "note": 95,
      "start": 76.3489,
      "duration": 0.0161,
      "velocity": 101,
      "chip": "ym2612"
    },
    {
      "channel": 3,
      "note": 99,
      "start": 76.35,
      "duration": 0.0161,
      "velocity": 101,
      "chip": "ym2612"
    },
    {
      "channel": 2,
      "note": 54,
      "start": 76.3518,
      "duration": 0.0157,
      "velocity": 100,
      "chip": "ym2612"
    },
    {
      "channel": 1,
      "note": 68,
      "start": 76.3609,
      "duration": 0.0161,
      "velocity": 116,
      "chip": "ym2612"
    },
    {
      "channel": 0,
      "note": 41,
      "start": 76.3627,
      "duration": 0.0161,
      "velocity": 115,
      "chip": "ym2612"
    },
    {
      "channel": 5,
      "note": 90,
      "start": 76.3638,
      "duration": 0.0162,
      "velocity": 101,
      "chip": "ym2612"
    },
    {
      "channel": 4,
      "note": 95,
      "start": 76.365,
      "duration": 0.0161,
      "velocity": 101,
      "chip": "ym2612"
    },
    {
      "channel": 3,
      "note": 99,
      "start": 76.3661,
      "duration": 0.0161,
      "velocity": 101,
      "chip": "ym2612"
    },
    {
      "channel": 2,
      "note": 54,
      "start": 76.3676,
      "duration": 0.0159,
      "velocity": 100,
      "chip": "ym2612"
    },
    {
      "channel": 1,
      "note": 68,
      "start": 76.377,
      "duration": 0.0178,
      "velocity": 105,
      "chip": "ym2612"
    },
    {
      "channel": 0,
      "note": 41,
      "start": 76.3787,
      "duration": 0.0179,
      "velocity": 115,
      "chip": "ym2612"
    },
    {
      "channel": 5,
      "note": 90,
      "start": 76.38,
      "duration": 0.0179,
      "velocity": 101,
      "chip": "ym2612"
    },
    {
      "channel": 4,
      "note": 95,
      "start": 76.3811,
      "duration": 0.0181,
      "velocity": 101,
      "chip": "ym2612"
    },
    {
      "channel": 3,
      "note": 99,
      "start": 76.3823,
      "duration": 0.0183,
      "velocity": 101,
      "chip": "ym2612"
    },
    {
      "channel": 2,
      "note": 54,
      "start": 76.3834,
      "duration": 0.019,
      "velocity": 100,
      "chip": "ym2612"
    },
    {
      "channel": 1,
      "note": 105,
      "start": 76.3949,
      "duration": 0.0144,
      "velocity": 105,
      "chip": "ym2612"
    },
    {
      "channel": 0,
      "note": 42,
      "start": 76.3966,
      "duration": 0.0144,
      "velocity": 115,
      "chip": "ym2612"
    },
    {
      "channel": 5,
      "note": 90,
      "start": 76.3979,
      "duration": 0.0143,
      "velocity": 101,
      "chip": "ym2612"
    },
    {
      "channel": 4,
      "note": 95,
      "start": 76.3992,
      "duration": 0.0143,
      "velocity": 101,
      "chip": "ym2612"
    },
    {
      "channel": 3,
      "note": 99,
      "start": 76.4006,
      "duration": 0.0141,
      "velocity": 101,
      "chip": "ym2612"
    },
    {
      "channel": 2,
      "note": 66,
      "start": 76.4025,
      "duration": 0.0134,
      "velocity": 100,
      "chip": "ym2612"
    },
    {
      "channel": 1,
      "note": 105,
      "start": 76.4093,
      "duration": 0.016,
      "velocity": 105,
      "chip": "ym2612"
    },
    {
      "channel": 0,
      "note": 42,
      "start": 76.411,
      "duration": 0.016,
      "velocity": 115,
      "chip": "ym2612"
    },
    {
      "channel": 5,
      "note": 90,
      "start": 76.4122,
      "duration": 0.0161,
      "velocity": 101,
      "chip": "ym2612"
    },
    {
      "channel": 4,
      "note": 95,
      "start": 76.4135,
      "duration": 0.0161,
      "velocity": 101,
      "chip": "ym2612"
    },
    {
      "channel": 3,
      "note": 99,
      "start": 76.4147,
      "duration": 0.0161,
      "velocity": 101,
      "chip": "ym2612"
    },
    {
      "channel": 2,
      "note": 66,
      "start": 76.4159,
      "duration": 0.016,
      "velocity": 100,
      "chip": "ym2612"
    },
    {
      "channel": 1,
      "note": 105,
      "start": 76.4253,
      "duration": 0.0161,
      "velocity": 105,
      "chip": "ym2612"
    },
    {
      "channel": 0,
      "note": 43,
      "start": 76.427,
      "duration": 0.0161,
      "velocity": 115,
      "chip": "ym2612"
    },
    {
      "channel": 2,
      "note": 66,
      "start": 76.432,
      "duration": 0.016,
      "velocity": 100,
      "chip": "ym2612"
    },
    {
      "channel": 1,
      "note": 105,
      "start": 76.4414,
      "duration": 0.0161,
      "velocity": 105,
      "chip": "ym2612"
    },
    {
      "channel": 0,
      "note": 43,
      "start": 76.4431,
      "duration": 0.0161,
      "velocity": 115,
      "chip": "ym2612"
    },
    {
      "channel": 2,
      "note": 66,
      "start": 76.448,
      "duration": 0.0162,
      "velocity": 100,
      "chip": "ym2612"
    },
    {
      "channel": 1,
      "note": 105,
      "start": 76.4576,
      "duration": 0.0161,
      "velocity": 105,
      "chip": "ym2612"
    },
    {
      "channel": 0,
      "note": 44,
      "start": 76.4592,
      "duration": 0.0161,
      "velocity": 115,
      "chip": "ym2612"
    },
    {
      "channel": 2,
      "note": 66,
      "start": 76.4642,
      "duration": 0.0159,
      "velocity": 100,
      "chip": "ym2612"
    },
    {
      "channel": 1,
      "note": 105,
      "start": 76.4737,
      "duration": 0.0161,
      "velocity": 105,
      "chip": "ym2612"
    },
    {
      "channel": 0,
      "note": 44,
      "start": 76.4753,
      "duration": 0.0161,
      "velocity": 115,
      "chip": "ym2612"
    },
    {
      "channel": 2,
      "note": 66,
      "start": 76.4801,
      "duration": 0.0171,
      "velocity": 100,
      "chip": "ym2612"
    },
    {
      "channel": 1,
      "note": 105,
      "start": 76.4898,
      "duration": 0.0161,
      "velocity": 105,
      "chip": "ym2612"
    },
    {
      "channel": 0,
      "note": 44,
      "start": 76.4915,
      "duration": 0.0161,
      "velocity": 115,
      "chip": "ym2612"
    },
    {
      "channel": 5,
      "note": 90,
      "start": 76.4929,
      "duration": 0.0158,
      "velocity": 101,
      "chip": "ym2612"
    },
    {
      "channel": 4,
      "note": 95,
      "start": 76.4944,
      "duration": 0.0157,
      "velocity": 101,
      "chip": "ym2612"
    },
    {
      "channel": 3,
      "note": 99,
      "start": 76.4959,
      "duration": 0.0154,
      "velocity": 101,
      "chip": "ym2612"
    },
    {
      "channel": 2,
      "note": 66,
      "start": 76.4971,
      "duration": 0.0153,
      "velocity": 100,
      "chip": "ym2612"
    },
    {
      "channel": 1,
      "note": 105,
      "start": 76.5058,
      "duration": 0.0161,
      "velocity": 105,
      "chip": "ym2612"
    },
    {
      "channel": 0,
      "note": 45,
      "start": 76.5076,
      "duration": 0.0161,
      "velocity": 115,
      "chip": "ym2612"
    },
    {
      "channel": 5,
      "note": 90,
      "start": 76.5088,
      "duration": 0.016,
      "velocity": 101,
      "chip": "ym2612"
    },
    {
      "channel": 4,
      "note": 95,
      "start": 76.51,
      "duration": 0.016,
      "velocity": 101,
      "chip": "ym2612"
    },
    {
      "channel": 3,
      "note": 99,
      "start": 76.5112,
      "duration": 0.0159,
      "velocity": 101,
      "chip": "ym2612"
    },
    {
      "channel": 2,
      "note": 66,
      "start": 76.5124,
      "duration": 0.016,
      "velocity": 100,
      "chip": "ym2612"
    },
    {
      "channel": 1,
      "note": 105,
      "start": 76.5219,
      "duration": 0.0161,
      "velocity": 105,
      "chip": "ym2612"
    },
    {
      "channel": 0,
      "note": 45,
      "start": 76.5237,
      "duration": 0.0161,
      "velocity": 115,
      "chip": "ym2612"
    },
    {
      "channel": 5,
      "note": 90,
      "start": 76.5248,
      "duration": 0.0161,
      "velocity": 101,
      "chip": "ym2612"
    },
    {
      "channel": 4,
      "note": 95,
      "start": 76.526,
      "duration": 0.0161,
      "velocity": 101,
      "chip": "ym2612"
    },
    {
      "channel": 3,
      "note": 99,
      "start": 76.5271,
      "duration": 0.0161,
      "velocity": 101,
      "chip": "ym2612"
    },
    {
      "channel": 2,
      "note": 66,
      "start": 76.5284,
      "duration": 0.016,
      "velocity": 100,
      "chip": "ym2612"
    },
    {
      "channel": 1,
      "note": 105,
      "start": 76.538,
      "duration": 0.0161,
      "velocity": 105,
      "chip": "ym2612"
    },
    {
      "channel": 0,
      "note": 46,
      "start": 76.5398,
      "duration": 0.0161,
      "velocity": 115,
      "chip": "ym2612"
    },
    {
      "channel": 5,
      "note": 90,
      "start": 76.5409,
      "duration": 0.0162,
      "velocity": 101,
      "chip": "ym2612"
    },
    {
      "channel": 4,
      "note": 95,
      "start": 76.5421,
      "duration": 0.0161,
      "velocity": 101,
      "chip": "ym2612"
    },
    {
      "channel": 3,
      "note": 99,
      "start": 76.5432,
      "duration": 0.0162,
      "velocity": 101,
      "chip": "ym2612"
    },
    {
      "channel": 2,
      "note": 66,
      "start": 76.5444,
      "duration": 0.0161,
      "velocity": 100,
      "chip": "ym2612"
    },
    {
      "channel": 1,
      "note": 105,
      "start": 76.5541,
      "duration": 0.0161,
      "velocity": 105,
      "chip": "ym2612"
    },
    {
      "channel": 0,
      "note": 46,
      "start": 76.5558,
      "duration": 0.0161,
      "velocity": 115,
      "chip": "ym2612"
    },
    {
      "channel": 5,
      "note": 90,
      "start": 76.5571,
      "duration": 0.0161,
      "velocity": 101,
      "chip": "ym2612"
    },
    {
      "channel": 4,
      "note": 95,
      "start": 76.5582,
      "duration": 0.0161,
      "velocity": 101,
      "chip": "ym2612"
    },
    {
      "channel": 3,
      "note": 99,
      "start": 76.5594,
      "duration": 0.0161,
      "velocity": 101,
      "chip": "ym2612"
    },
    {
      "channel": 2,
      "note": 66,
      "start": 76.5605,
      "duration": 0.0162,
      "velocity": 100,
      "chip": "ym2612"
    },
    {
      "channel": 1,
      "note": 105,
      "start": 76.5702,
      "duration": 0.0162,
      "velocity": 105,
      "chip": "ym2612"
    },
    {
      "channel": 0,
      "note": 47,
      "start": 76.5719,
      "duration": 0.0162,
      "velocity": 115,
      "chip": "ym2612"
    },
    {
      "channel": 5,
      "note": 90,
      "start": 76.5731,
      "duration": 0.0162,
      "velocity": 101,
      "chip": "ym2612"
    },
    {
      "channel": 4,
      "note": 95,
      "start": 76.5743,
      "duration": 0.0162,
      "velocity": 101,
      "chip": "ym2612"
    },
    {
      "channel": 3,
      "note": 99,
      "start": 76.5755,
      "duration": 0.0162,
      "velocity": 101,
      "chip": "ym2612"
    },
    {
      "channel": 2,
      "note": 66,
      "start": 76.5768,
      "duration": 0.016,
      "velocity": 100,
      "chip": "ym2612"
    },
    {
      "channel": 1,
      "note": 105,
      "start": 76.5864,
      "duration": 0.0181,
      "velocity": 116,
      "chip": "ym2612"
    },
    {
      "channel": 0,
      "note": 47,
      "start": 76.5881,
      "duration": 0.0199,
      "velocity": 115,
      "chip": "ym2612"
    },
    {
      "channel": 5,
      "note": 90,
      "start": 76.5893,
      "duration": 0.02,
      "velocity": 101,
      "chip": "ym2612"
    },
    {
      "channel": 4,
      "note": 95,
      "start": 76.5905,
      "duration": 0.0201,
      "velocity": 101,
      "chip": "ym2612"
    },
    {
      "channel": 3,
      "note": 99,
      "start": 76.5917,
      "duration": 0.0202,
      "velocity": 101,
      "chip": "ym2612"
    },
    {
      "channel": 2,
      "note": 66,
      "start": 76.5928,
      "duration": 0.0206,
      "velocity": 100,
      "chip": "ym2612"
    },
    {
      "channel": 1,
      "note": 68,
      "start": 76.6045,
      "duration": 0.0146,
      "velocity": 116,
      "chip": "ym2612"
    },
    {
      "channel": 0,
      "note": 36,
      "start": 76.6081,
      "duration": 0.0128,
      "velocity": 115,
      "chip": "ym2612"
    },
    {
      "channel": 5,
      "note": 90,
      "start": 76.6093,
      "duration": 0.0127,
      "velocity": 101,
      "chip": "ym2612"
    },
    {
      "channel": 4,
      "note": 95,
      "start": 76.6105,
      "duration": 0.0127,
      "velocity": 101,
      "chip": "ym2612"
    },
    {
      "channel": 3,
      "note": 99,
      "start": 76.6118,
      "duration": 0.0127,
      "velocity": 101,
      "chip": "ym2612"
    },
    {
      "channel": 2,
      "note": 54,
      "start": 76.6134,
      "duration": 0.0123,
      "velocity": 100,
      "chip": "ym2612"
    },
    {
      "channel": 1,
      "note": 68,
      "start": 76.6191,
      "duration": 0.0161,
      "velocity": 116,
      "chip": "ym2612"
    },
    {
      "channel": 0,
      "note": 36,
      "start": 76.6208,
      "duration": 0.0161,
      "velocity": 115,
      "chip": "ym2612"
    },
    {
      "channel": 5,
      "note": 90,
      "start": 76.6221,
      "duration": 0.0161,
      "velocity": 101,
      "chip": "ym2612"
    },
    {
      "channel": 4,
      "note": 95,
      "start": 76.6233,
      "duration": 0.0162,
      "velocity": 101,
      "chip": "ym2612"
    },
    {
      "channel": 3,
      "note": 99,
      "start": 76.6245,
      "duration": 0.0162,
      "velocity": 101,
      "chip": "ym2612"
    },
    {
      "channel": 2,
      "note": 54,
      "start": 76.6257,
      "duration": 0.0161,
      "velocity": 100,
      "chip": "ym2612"
    },
    {
      "channel": 1,
      "note": 68,
      "start": 76.6352,
      "duration": 0.016,
      "velocity": 116,
      "chip": "ym2612"
    },
    {
      "channel": 0,
      "note": 37,
      "start": 76.6369,
      "duration": 0.0161,
      "velocity": 115,
      "chip": "ym2612"
    },
    {
      "channel": 2,
      "note": 54,
      "start": 76.6418,
      "duration": 0.016,
      "velocity": 100,
      "chip": "ym2612"
    },
    {
      "channel": 1,
      "note": 68,
      "start": 76.6512,
      "duration": 0.0156,
      "velocity": 116,
      "chip": "ym2612"
    },
    {
      "channel": 0,
      "note": 37,
      "start": 76.653,
      "duration": 0.0161,
      "velocity": 115,
      "chip": "ym2612"
    },
    {
      "channel": 2,
      "note": 54,
      "start": 76.6579,
      "duration": 0.0162,
      "velocity": 100,
      "chip": "ym2612"
    },
    {
      "channel": 1,
      "note": 68,
      "start": 76.6668,
      "duration": 0.0161,
      "velocity": 116,
      "chip": "ym2612"
    },
    {
      "channel": 0,
      "note": 38,
      "start": 76.6691,
      "duration": 0.0161,
      "velocity": 115,
      "chip": "ym2612"
    },
    {
      "channel": 2,
      "note": 54,
      "start": 76.674,
      "duration": 0.0159,
      "velocity": 100,
      "chip": "ym2612"
    },
    {
      "channel": 1,
      "note": 68,
      "start": 76.6829,
      "duration": 0.0184,
      "velocity": 116,
      "chip": "ym2612"
    },
    {
      "channel": 0,
      "note": 38,
      "start": 76.6852,
      "duration": 0.018,
      "velocity": 115,
      "chip": "ym2612"
    },
    {
      "channel": 2,
      "note": 54,
      "start": 76.6899,
      "duration": 0.0184,
      "velocity": 100,
      "chip": "ym2612"
    },
    {
      "channel": 1,
      "note": 68,
      "start": 76.7014,
      "duration": 0.0138,
      "velocity": 116,
      "chip": "ym2612"
    },
    {
      "channel": 0,
      "note": 39,
      "start": 76.7032,
      "duration": 0.0137,
      "velocity": 115,
      "chip": "ym2612"
    },
    {
      "channel": 2,
      "note": 54,
      "start": 76.7083,
      "duration": 0.0139,
      "velocity": 100,
      "chip": "ym2612"
    },
    {
      "channel": 1,
      "note": 68,
      "start": 76.7152,
      "duration": 0.0161,
      "velocity": 116,
      "chip": "ym2612"
    },
    {
      "channel": 0,
      "note": 39,
      "start": 76.7169,
      "duration": 0.016,
      "velocity": 115,
      "chip": "ym2612"
    },
    {
      "channel": 2,
      "note": 54,
      "start": 76.7222,
      "duration": 0.0161,
      "velocity": 100,
      "chip": "ym2612"
    },
    {
      "channel": 1,
      "note": 68,
      "start": 76.7313,
      "duration": 0.0161,
      "velocity": 116,
      "chip": "ym2612"
    },
    {
      "channel": 0,
      "note": 40,
      "start": 76.7329,
      "duration": 0.0161,
      "velocity": 115,
      "chip": "ym2612"
    },
    {
      "channel": 2,
      "note": 54,
      "start": 76.7383,
      "duration": 0.016,
      "velocity": 100,
      "chip": "ym2612"
    },
    {
      "channel": 1,
      "note": 68,
      "start": 76.7474,
      "duration": 0.0161,
      "velocity": 116,
      "chip": "ym2612"
    },
    {
      "channel": 0,
      "note": 40,
      "start": 76.749,
      "duration": 0.0162,
      "velocity": 115,
      "chip": "ym2612"
    },
    {
      "channel": 2,
      "note": 54,
      "start": 76.7544,
      "duration": 0.0162,
      "velocity": 100,
      "chip": "ym2612"
    },
    {
      "channel": 1,
      "note": 68,
      "start": 76.7635,
      "duration": 0.0161,
      "velocity": 116,
      "chip": "ym2612"
    },
    {
      "channel": 0,
      "note": 40,
      "start": 76.7652,
      "duration": 0.0161,
      "velocity": 115,
      "chip": "ym2612"
    },
    {
      "channel": 2,
      "note": 54,
      "start": 76.7706,
      "duration": 0.016,
      "velocity": 100,
      "chip": "ym2612"
    },
    {
      "channel": 1,
      "note": 68,
      "start": 76.7796,
      "duration": 0.0161,
      "velocity": 116,
      "chip": "ym2612"
    },
    {
      "channel": 0,
      "note": 41,
      "start": 76.7813,
      "duration": 0.0161,
      "velocity": 115,
      "chip": "ym2612"
    },
    {
      "channel": 2,
      "note": 54,
      "start": 76.7866,
      "duration": 0.0163,
      "velocity": 100,
      "chip": "ym2612"
    },
    {
      "channel": 1,
      "note": 68,
      "start": 76.7957,
      "duration": 0.0178,
      "velocity": 105,
      "chip": "ym2612"
    },
    {
      "channel": 0,
      "note": 41,
      "start": 76.7974,
      "duration": 0.0179,
      "velocity": 115,
      "chip": "ym2612"
    },
    {
      "channel": 2,
      "note": 54,
      "start": 76.8029,
      "duration": 0.019,
      "velocity": 100,
      "chip": "ym2612"
    },
    {
      "channel": 1,
      "note": 105,
      "start": 76.8135,
      "duration": 0.0144,
      "velocity": 105,
      "chip": "ym2612"
    },
    {
      "channel": 0,
      "note": 42,
      "start": 76.8153,
      "duration": 0.0144,
      "velocity": 115,
      "chip": "ym2612"
    },
    {
      "channel": 5,
      "note": 92,
      "start": 76.8168,
      "duration": 0.0141,
      "velocity": 101,
      "chip": "ym2612"
    },
    {
      "channel": 4,
      "note": 97,
      "start": 76.8189,
      "duration": 0.0132,
      "velocity": 101,
      "chip": "ym2612"
    },
    {
      "channel": 3,
      "note": 100,
      "start": 76.8204,
      "duration": 0.0129,
      "velocity": 101,
      "chip": "ym2612"
    },
    {
      "channel": 2,
      "note": 66,
      "start": 76.8219,
      "duration": 0.0133,
      "velocity": 100,
      "chip": "ym2612"
    },
    {
      "channel": 1,
      "note": 105,
      "start": 76.8279,
      "duration": 0.016,
      "velocity": 105,
      "chip": "ym2612"
    },
    {
      "channel": 0,
      "note": 42,
      "start": 76.8296,
      "duration": 0.016,
      "velocity": 115,
      "chip": "ym2612"
    },
    {
      "channel": 5,
      "note": 92,
      "start": 76.8308,
      "duration": 0.016,
      "velocity": 101,
      "chip": "ym2612"
    },
    {
      "channel": 4,
      "note": 97,
      "start": 76.8321,
      "duration": 0.0159,
      "velocity": 101,
      "chip": "ym2612"
    },
    {
      "channel": 3,
      "note": 100,
      "start": 76.8333,
      "duration": 0.0159,
      "velocity": 101,
      "chip": "ym2612"
    },
    {
      "channel": 2,
      "note": 66,
      "start": 76.8352,
      "duration": 0.0154,
      "velocity": 100,
      "chip": "ym2612"
    },
    {
      "channel": 1,
      "note": 105,
      "start": 76.8439,
      "duration": 0.0161,
      "velocity": 105,
      "chip": "ym2612"
    },
    {
      "channel": 0,
      "note": 43,
      "start": 76.8457,
      "duration": 0.0161,
      "velocity": 115,
      "chip": "ym2612"
    },
    {
      "channel": 5,
      "note": 92,
      "start": 76.8469,
      "duration": 0.0161,
      "velocity": 101,
      "chip": "ym2612"
    },
    {
      "channel": 4,
      "note": 97,
      "start": 76.848,
      "duration": 0.0161,
      "velocity": 101,
      "chip": "ym2612"
    },
    {
      "channel": 3,
      "note": 100,
      "start": 76.8492,
      "duration": 0.0161,
      "velocity": 101,
      "chip": "ym2612"
    },
    {
      "channel": 2,
      "note": 66,
      "start": 76.8506,
      "duration": 0.0159,
      "velocity": 100,
      "chip": "ym2612"
    },
    {
      "channel": 1,
      "note": 105,
      "start": 76.86,
      "duration": 0.0161,
      "velocity": 105,
      "chip": "ym2612"
    },
    {
      "channel": 0,
      "note": 43,
      "start": 76.8617,
      "duration": 0.0161,
      "velocity": 115,
      "chip": "ym2612"
    },
    {
      "channel": 5,
      "note": 92,
      "start": 76.863,
      "duration": 0.0161,
      "velocity": 101,
      "chip": "ym2612"
    },
    {
      "channel": 4,
      "note": 97,
      "start": 76.8641,
      "duration": 0.0161,
      "velocity": 101,
      "chip": "ym2612"
    },
    {
      "channel": 3,
      "note": 100,
      "start": 76.8653,
      "duration": 0.0161,
      "velocity": 101,
      "chip": "ym2612"
    },
    {
      "channel": 2,
      "note": 66,
      "start": 76.8665,
      "duration": 0.0161,
      "velocity": 100,
      "chip": "ym2612"
    },
    {
      "channel": 1,
      "note": 105,
      "start": 76.8761,
      "duration": 0.0161,
      "velocity": 105,
      "chip": "ym2612"
    },
    {
      "channel": 0,
      "note": 44,
      "start": 76.8778,
      "duration": 0.0161,
      "velocity": 115,
      "chip": "ym2612"
    },
    {
      "channel": 5,
      "note": 92,
      "start": 76.879,
      "duration": 0.0161,
      "velocity": 101,
      "chip": "ym2612"
    },
    {
      "channel": 4,
      "note": 97,
      "start": 76.8802,
      "duration": 0.0161,
      "velocity": 101,
      "chip": "ym2612"
    },
    {
      "channel": 3,
      "note": 100,
      "start": 76.8814,
      "duration": 0.0161,
      "velocity": 101,
      "chip": "ym2612"
    },
    {
      "channel": 2,
      "note": 66,
      "start": 76.8826,
      "duration": 0.0161,
      "velocity": 100,
      "chip": "ym2612"
    },
    {
      "channel": 1,
      "note": 105,
      "start": 76.8922,
      "duration": 0.0162,
      "velocity": 105,
      "chip": "ym2612"
    },
    {
      "channel": 0,
      "note": 44,
      "start": 76.8939,
      "duration": 0.0161,
      "velocity": 115,
      "chip": "ym2612"
    },
    {
      "channel": 5,
      "note": 92,
      "start": 76.8951,
      "duration": 0.0161,
      "velocity": 101,
      "chip": "ym2612"
    },
    {
      "channel": 4,
      "note": 97,
      "start": 76.8963,
      "duration": 0.0161,
      "velocity": 101,
      "chip": "ym2612"
    },
    {
      "channel": 3,
      "note": 100,
      "start": 76.8975,
      "duration": 0.0161,
      "velocity": 101,
      "chip": "ym2612"
    },
    {
      "channel": 2,
      "note": 66,
      "start": 76.8986,
      "duration": 0.0162,
      "velocity": 100,
      "chip": "ym2612"
    },
    {
      "channel": 1,
      "note": 105,
      "start": 76.9084,
      "duration": 0.0161,
      "velocity": 105,
      "chip": "ym2612"
    },
    {
      "channel": 0,
      "note": 44,
      "start": 76.91,
      "duration": 0.0161,
      "velocity": 115,
      "chip": "ym2612"
    },
    {
      "channel": 5,
      "note": 92,
      "start": 76.9112,
      "duration": 0.0161,
      "velocity": 101,
      "chip": "ym2612"
    },
    {
      "channel": 4,
      "note": 97,
      "start": 76.9124,
      "duration": 0.0161,
      "velocity": 101,
      "chip": "ym2612"
    },
    {
      "channel": 3,
      "note": 100,
      "start": 76.9136,
      "duration": 0.0161,
      "velocity": 101,
      "chip": "ym2612"
    },
    {
      "channel": 2,
      "note": 66,
      "start": 76.9149,
      "duration": 0.016,
      "velocity": 100,
      "chip": "ym2612"
    },
    {
      "channel": 1,
      "note": 105,
      "start": 76.9245,
      "duration": 0.0161,
      "velocity": 105,
      "chip": "ym2612"
    },
    {
      "channel": 0,
      "note": 45,
      "start": 76.9261,
      "duration": 0.0162,
      "velocity": 115,
      "chip": "ym2612"
    },
    {
      "channel": 5,
      "note": 92,
      "start": 76.9273,
      "duration": 0.0161,
      "velocity": 101,
      "chip": "ym2612"
    },
    {
      "channel": 4,
      "note": 97,
      "start": 76.9285,
      "duration": 0.0161,
      "velocity": 101,
      "chip": "ym2612"
    },
    {
      "channel": 3,
      "note": 100,
      "start": 76.9297,
      "duration": 0.0161,
      "velocity": 101,
      "chip": "ym2612"
    },
    {
      "channel": 2,
      "note": 66,
      "start": 76.9309,
      "duration": 0.0161,
      "velocity": 100,
      "chip": "ym2612"
    },
    {
      "channel": 1,
      "note": 105,
      "start": 76.9406,
      "duration": 0.0161,
      "velocity": 105,
      "chip": "ym2612"
    },
    {
      "channel": 0,
      "note": 45,
      "start": 76.9423,
      "duration": 0.0161,
      "velocity": 115,
      "chip": "ym2612"
    },
    {
      "channel": 5,
      "note": 92,
      "start": 76.9434,
      "duration": 0.0161,
      "velocity": 101,
      "chip": "ym2612"
    },
    {
      "channel": 4,
      "note": 97,
      "start": 76.9446,
      "duration": 0.0161,
      "velocity": 101,
      "chip": "ym2612"
    },
    {
      "channel": 3,
      "note": 100,
      "start": 76.9458,
      "duration": 0.0161,
      "velocity": 101,
      "chip": "ym2612"
    },
    {
      "channel": 2,
      "note": 66,
      "start": 76.947,
      "duration": 0.0161,
      "velocity": 100,
      "chip": "ym2612"
    },
    {
      "channel": 1,
      "note": 105,
      "start": 76.9567,
      "duration": 0.0161,
      "velocity": 105,
      "chip": "ym2612"
    },
    {
      "channel": 0,
      "note": 46,
      "start": 76.9584,
      "duration": 0.0161,
      "velocity": 115,
      "chip": "ym2612"
    },
    {
      "channel": 5,
      "note": 92,
      "start": 76.9595,
      "duration": 0.0161,
      "velocity": 101,
      "chip": "ym2612"
    },
    {
      "channel": 4,
      "note": 97,
      "start": 76.9607,
      "duration": 0.0161,
      "velocity": 101,
      "chip": "ym2612"
    },
    {
      "channel": 3,
      "note": 100,
      "start": 76.9619,
      "duration": 0.0161,
      "velocity": 101,
      "chip": "ym2612"
    },
    {
      "channel": 2,
      "note": 66,
      "start": 76.9631,
      "duration": 0.0161,
      "velocity": 100,
      "chip": "ym2612"
    },
    {
      "channel": 1,
      "note": 105,
      "start": 76.9728,
      "duration": 0.0161,
      "velocity": 105,
      "chip": "ym2612"
    },
    {
      "channel": 0,
      "note": 46,
      "start": 76.9745,
      "duration": 0.0161,
      "velocity": 115,
      "chip": "ym2612"
    },
    {
      "channel": 5,
      "note": 92,
      "start": 76.9756,
      "duration": 0.0161,
      "velocity": 101,
      "chip": "ym2612"
    },
    {
      "channel": 4,
      "note": 97,
      "start": 76.9768,
      "duration": 0.0161,
      "velocity": 101,
      "chip": "ym2612"
    },
    {
      "channel": 3,
      "note": 100,
      "start": 76.978,
      "duration": 0.0161,
      "velocity": 101,
      "chip": "ym2612"
    },
    {
      "channel": 2,
      "note": 66,
      "start": 76.9792,
      "duration": 0.0162,
      "velocity": 100,
      "chip": "ym2612"
    },
    {
      "channel": 1,
      "note": 105,
      "start": 76.9888,
      "duration": 0.0161,
      "velocity": 105,
      "chip": "ym2612"
    },
    {
      "channel": 0,
      "note": 47,
      "start": 76.9906,
      "duration": 0.0161,
      "velocity": 115,
      "chip": "ym2612"
    },
    {
      "channel": 5,
      "note": 92,
      "start": 76.9917,
      "duration": 0.0161,
      "velocity": 101,
      "chip": "ym2612"
    },
    {
      "channel": 4,
      "note": 97,
      "start": 76.9929,
      "duration": 0.0161,
      "velocity": 101,
      "chip": "ym2612"
    },
    {
      "channel": 3,
      "note": 100,
      "start": 76.9941,
      "duration": 0.0162,
      "velocity": 101,
      "chip": "ym2612"
    },
    {
      "channel": 2,
      "note": 66,
      "start": 76.9954,
      "duration": 0.016,
      "velocity": 100,
      "chip": "ym2612"
    },
    {
      "channel": 1,
      "note": 105,
      "start": 77.0049,
      "duration": 0.0179,
      "velocity": 116,
      "chip": "ym2612"
    },
    {
      "channel": 0,
      "note": 47,
      "start": 77.0067,
      "duration": 0.0197,
      "velocity": 115,
      "chip": "ym2612"
    },
    {
      "channel": 5,
      "note": 92,
      "start": 77.0079,
      "duration": 0.0198,
      "velocity": 101,
      "chip": "ym2612"
    },
    {
      "channel": 4,
      "note": 97,
      "start": 77.009,
      "duration": 0.0198,
      "velocity": 101,
      "chip": "ym2612"
    },
    {
      "channel": 3,
      "note": 100,
      "start": 77.0102,
      "duration": 0.0198,
      "velocity": 101,
      "chip": "ym2612"
    },
    {
      "channel": 2,
      "note": 66,
      "start": 77.0114,
      "duration": 0.0202,
      "velocity": 100,
      "chip": "ym2612"
    },
    {
      "channel": 1,
      "note": 68,
      "start": 77.0229,
      "duration": 0.0144,
      "velocity": 116,
      "chip": "ym2612"
    },
    {
      "channel": 0,
      "note": 36,
      "start": 77.0264,
      "duration": 0.0126,
      "velocity": 115,
      "chip": "ym2612"
    },
    {
      "channel": 5,
      "note": 92,
      "start": 77.0277,
      "duration": 0.0126,
      "velocity": 101,
      "chip": "ym2612"
    },
    {
      "channel": 4,
      "note": 97,
      "start": 77.0289,
      "duration": 0.0126,
      "velocity": 101,
      "chip": "ym2612"
    },
    {
      "channel": 3,
      "note": 100,
      "start": 77.0301,
      "duration": 0.0126,
      "velocity": 101,
      "chip": "ym2612"
    },
    {
      "channel": 2,
      "note": 54,
      "start": 77.0317,
      "duration": 0.0122,
      "velocity": 100,
      "chip": "ym2612"
    },
    {
      "channel": 1,
      "note": 68,
      "start": 77.0373,
      "duration": 0.016,
      "velocity": 116,
      "chip": "ym2612"
    },
    {
      "channel": 0,
      "note": 36,
      "start": 77.039,
      "duration": 0.016,
      "velocity": 115,
      "chip": "ym2612"
    },
    {
      "channel": 5,
      "note": 92,
      "start": 77.0402,
      "duration": 0.0159,
      "velocity": 101,
      "chip": "ym2612"
    },
    {
      "channel": 4,
      "note": 97,
      "start": 77.0415,
      "duration": 0.0159,
      "velocity": 101,
      "chip": "ym2612"
    },
    {
      "channel": 3,
      "note": 100,
      "start": 77.0427,
      "duration": 0.0159,
      "velocity": 101,
      "chip": "ym2612"
    },
    {
      "channel": 2,
      "note": 54,
      "start": 77.0439,
      "duration": 0.0159,
      "velocity": 100,
      "chip": "ym2612"
    },
    {
      "channel": 1,
      "note": 68,
      "start": 77.0533,
      "duration": 0.0162,
      "velocity": 116,
      "chip": "ym2612"
    },
    {
      "channel": 0,
      "note": 37,
      "start": 77.055,
      "duration": 0.0162,
      "velocity": 115,
      "chip": "ym2612"
    },
    {
      "channel": 5,
      "note": 92,
      "start": 77.0561,
      "duration": 0.0162,
      "velocity": 101,
      "chip": "ym2612"
    },
    {
      "channel": 4,
      "note": 97,
      "start": 77.0574,
      "duration": 0.0162,
      "velocity": 101,
      "chip": "ym2612"
    },
    {
      "channel": 3,
      "note": 100,
      "start": 77.0586,
      "duration": 0.0162,
      "velocity": 101,
      "chip": "ym2612"
    },
    {
      "channel": 2,
      "note": 54,
      "start": 77.0597,
      "duration": 0.0162,
      "velocity": 100,
      "chip": "ym2612"
    },
    {
      "channel": 1,
      "note": 68,
      "start": 77.0695,
      "duration": 0.0164,
      "velocity": 116,
      "chip": "ym2612"
    },
    {
      "channel": 0,
      "note": 37,
      "start": 77.0712,
      "duration": 0.0164,
      "velocity": 115,
      "chip": "ym2612"
    },
    {
      "channel": 5,
      "note": 92,
      "start": 77.0724,
      "duration": 0.0164,
      "velocity": 101,
      "chip": "ym2612"
    },
    {
      "channel": 4,
      "note": 97,
      "start": 77.0736,
      "duration": 0.0164,
      "velocity": 101,
      "chip": "ym2612"
    },
    {
      "channel": 3,
      "note": 100,
      "start": 77.0748,
      "duration": 0.0164,
      "velocity": 101,
      "chip": "ym2612"
    },
    {
      "channel": 2,
      "note": 54,
      "start": 77.0759,
      "duration": 0.0164,
      "velocity": 100,
      "chip": "ym2612"
    },
    {
      "channel": 1,
      "note": 68,
      "start": 77.0859,
      "duration": 0.0163,
      "velocity": 116,
      "chip": "ym2612"
    },
    {
      "channel": 0,
      "note": 38,
      "start": 77.0876,
      "duration": 0.0163,
      "velocity": 115,
      "chip": "ym2612"
    },
    {
      "channel": 5,
      "note": 92,
      "start": 77.0888,
      "duration": 0.0163,
      "velocity": 101,
      "chip": "ym2612"
    },
    {
      "channel": 4,
      "note": 97,
      "start": 77.09,
      "duration": 0.0163,
      "velocity": 101,
      "chip": "ym2612"
    },
    {
      "channel": 3,
      "note": 100,
      "start": 77.0912,
      "duration": 0.0163,
      "velocity": 101,
      "chip": "ym2612"
    },
    {
      "channel": 2,
      "note": 54,
      "start": 77.0924,
      "duration": 0.0163,
      "velocity": 100,
      "chip": "ym2612"
    },
    {
      "channel": 1,
      "note": 68,
      "start": 77.1022,
      "duration": 0.0178,
      "velocity": 116,
      "chip": "ym2612"
    },
    {
      "channel": 0,
      "note": 38,
      "start": 77.1039,
      "duration": 0.0179,
      "velocity": 115,
      "chip": "ym2612"
    },
    {
      "channel": 5,
      "note": 92,
      "start": 77.1051,
      "duration": 0.0179,
      "velocity": 101,
      "chip": "ym2612"
    },
    {
      "channel": 4,
      "note": 97,
      "start": 77.1063,
      "duration": 0.0179,
      "velocity": 101,
      "chip": "ym2612"
    },
    {
      "channel": 3,
      "note": 100,
      "start": 77.1075,
      "duration": 0.0179,
      "velocity": 101,
      "chip": "ym2612"
    },
    {
      "channel": 2,
      "note": 54,
      "start": 77.1086,
      "duration": 0.0179,
      "velocity": 100,
      "chip": "ym2612"
    },
    {
      "channel": 1,
      "note": 68,
      "start": 77.1201,
      "duration": 0.014,
      "velocity": 116,
      "chip": "ym2612"
    },
    {
      "channel": 0,
      "note": 39,
      "start": 77.1217,
      "duration": 0.0144,
      "velocity": 115,
      "chip": "ym2612"
    },
    {
      "channel": 5,
      "note": 92,
      "start": 77.1229,
      "duration": 0.0145,
      "velocity": 101,
      "chip": "ym2612"
    },
    {
      "channel": 4,
      "note": 97,
      "start": 77.1241,
      "duration": 0.0146,
      "velocity": 101,
      "chip": "ym2612"
    },
    {
      "channel": 3,
      "note": 100,
      "start": 77.1254,
      "duration": 0.0146,
      "velocity": 101,
      "chip": "ym2612"
    },
    {
      "channel": 2,
      "note": 54,
      "start": 77.1265,
      "duration": 0.0146,
      "velocity": 100,
      "chip": "ym2612"
    },
    {
      "channel": 1,
      "note": 68,
      "start": 77.1341,
      "duration": 0.0158,
      "velocity": 116,
      "chip": "ym2612"
    },
    {
      "channel": 0,
      "note": 39,
      "start": 77.1362,
      "duration": 0.016,
      "velocity": 115,
      "chip": "ym2612"
    },
    {
      "channel": 5,
      "note": 92,
      "start": 77.1375,
      "duration": 0.016,
      "velocity": 101,
      "chip": "ym2612"
    },
    {
      "channel": 4,
      "note": 97,
      "start": 77.1387,
      "duration": 0.016,
      "velocity": 101,
      "chip": "ym2612"
    },
    {
      "channel": 3,
      "note": 100,
      "start": 77.14,
      "duration": 0.016,
      "velocity": 101,
      "chip": "ym2612"
    },
    {
      "channel": 2,
      "note": 54,
      "start": 77.1411,
      "duration": 0.016,
      "velocity": 100,
      "chip": "ym2612"
    },
    {
      "channel": 1,
      "note": 68,
      "start": 77.1499,
      "duration": 0.0161,
      "velocity": 116,
      "chip": "ym2612"
    },
    {
      "channel": 0,
      "note": 40,
      "start": 77.1522,
      "duration": 0.016,
      "velocity": 115,
      "chip": "ym2612"
    },
    {
      "channel": 5,
      "note": 92,
      "start": 77.1534,
      "duration": 0.0161,
      "velocity": 101,
      "chip": "ym2612"
    },
    {
      "channel": 4,
      "note": 97,
      "start": 77.1547,
      "duration": 0.0161,
      "velocity": 101,
      "chip": "ym2612"
    },
    {
      "channel": 3,
      "note": 100,
      "start": 77.156,
      "duration": 0.0161,
      "velocity": 101,
      "chip": "ym2612"
    },
    {
      "channel": 2,
      "note": 54,
      "start": 77.1571,
      "duration": 0.0161,
      "velocity": 100,
      "chip": "ym2612"
    },
    {
      "channel": 1,
      "note": 68,
      "start": 77.1659,
      "duration": 0.0162,
      "velocity": 116,
      "chip": "ym2612"
    },
    {
      "channel": 0,
      "note": 40,
      "start": 77.1682,
      "duration": 0.0158,
      "velocity": 115,
      "chip": "ym2612"
    },
    {
      "channel": 2,
      "note": 54,
      "start": 77.1732,
      "duration": 0.016,
      "velocity": 100,
      "chip": "ym2612"
    },
    {
      "channel": 1,
      "note": 68,
      "start": 77.1821,
      "duration": 0.0161,
      "velocity": 116,
      "chip": "ym2612"
    },
    {
      "channel": 0,
      "note": 40,
      "start": 77.184,
      "duration": 0.0159,
      "velocity": 115,
      "chip": "ym2612"
    },
    {
      "channel": 2,
      "note": 54,
      "start": 77.1892,
      "duration": 0.0162,
      "velocity": 100,
      "chip": "ym2612"
    },
    {
      "channel": 1,
      "note": 68,
      "start": 77.1982,
      "duration": 0.0161,
      "velocity": 116,
      "chip": "ym2612"
    },
    {
      "channel": 0,
      "note": 41,
      "start": 77.1999,
      "duration": 0.0161,
      "velocity": 115,
      "chip": "ym2612"
    },
    {
      "channel": 2,
      "note": 54,
      "start": 77.2055,
      "duration": 0.0159,
      "velocity": 100,
      "chip": "ym2612"
    },
    {
      "channel": 1,
      "note": 68,
      "start": 77.2143,
      "duration": 0.0178,
      "velocity": 105,
      "chip": "ym2612"
    },
    {
      "channel": 0,
      "note": 41,
      "start": 77.216,
      "duration": 0.0181,
      "velocity": 115,
      "chip": "ym2612"
    },
    {
      "channel": 2,
      "note": 54,
      "start": 77.2214,
      "duration": 0.019,
      "velocity": 100,
      "chip": "ym2612"
    },
    {
      "channel": 1,
      "note": 105,
      "start": 77.2322,
      "duration": 0.0144,
      "velocity": 105,
      "chip": "ym2612"
    },
    {
      "channel": 0,
      "note": 42,
      "start": 77.2341,
      "duration": 0.0141,
      "velocity": 115,
      "chip": "ym2612"
    },
    {
      "channel": 5,
      "note": 92,
      "start": 77.2359,
      "duration": 0.0136,
      "velocity": 101,
      "chip": "ym2612"
    },
    {
      "channel": 4,
      "note": 97,
      "start": 77.2375,
      "duration": 0.0138,
      "velocity": 101,
      "chip": "ym2612"
    },
    {
      "channel": 3,
      "note": 100,
      "start": 77.2389,
      "duration": 0.0137,
      "velocity": 101,
      "chip": "ym2612"
    },
    {
      "channel": 2,
      "note": 66,
      "start": 77.2404,
      "duration": 0.0134,
      "velocity": 100,
      "chip": "ym2612"
    },
    {
      "channel": 1,
      "note": 105,
      "start": 77.2466,
      "duration": 0.016,
      "velocity": 105,
      "chip": "ym2612"
    },
    {
      "channel": 0,
      "note": 42,
      "start": 77.2482,
      "duration": 0.0161,
      "velocity": 115,
      "chip": "ym2612"
    },
    {
      "channel": 5,
      "note": 92,
      "start": 77.2495,
      "duration": 0.016,
      "velocity": 101,
      "chip": "ym2612"
    },
    {
      "channel": 4,
      "note": 97,
      "start": 77.2512,
      "duration": 0.0154,
      "velocity": 101,
      "chip": "ym2612"
    },
    {
      "channel": 3,
      "note": 100,
      "start": 77.2526,
      "duration": 0.0158,
      "velocity": 101,
      "chip": "ym2612"
    },
    {
      "channel": 2,
      "note": 66,
      "start": 77.2538,
      "duration": 0.0158,
      "velocity": 100,
      "chip": "ym2612"
    },
    {
      "channel": 1,
      "note": 105,
      "start": 77.2626,
      "duration": 0.0161,
      "velocity": 105,
      "chip": "ym2612"
    },
    {
      "channel": 0,
      "note": 43,
      "start": 77.2643,
      "duration": 0.0161,
      "velocity": 115,
      "chip": "ym2612"
    },
    {
      "channel": 5,
      "note": 92,
      "start": 77.2654,
      "duration": 0.0161,
      "velocity": 101,
      "chip": "ym2612"
    },
    {
      "channel": 4,
      "note": 97,
      "start": 77.2666,
      "duration": 0.0161,
      "velocity": 101,
      "chip": "ym2612"
    },
    {
      "channel": 3,
      "note": 100,
      "start": 77.2684,
      "duration": 0.0158,
      "velocity": 101,
      "chip": "ym2612"
    },
    {
      "channel": 2,
      "note": 66,
      "start": 77.2696,
      "duration": 0.0161,
      "velocity": 100,
      "chip": "ym2612"
    },
    {
      "channel": 1,
      "note": 105,
      "start": 77.2787,
      "duration": 0.0161,
      "velocity": 105,
      "chip": "ym2612"
    },
    {
      "channel": 0,
      "note": 43,
      "start": 77.2804,
      "duration": 0.0161,
      "velocity": 115,
      "chip": "ym2612"
    },
    {
      "channel": 5,
      "note": 92,
      "start": 77.2815,
      "duration": 0.0161,
      "velocity": 101,
      "chip": "ym2612"
    },
    {
      "channel": 4,
      "note": 97,
      "start": 77.2827,
      "duration": 0.0161,
      "velocity": 101,
      "chip": "ym2612"
    },
    {
      "channel": 3,
      "note": 100,
      "start": 77.2841,
      "duration": 0.0159,
      "velocity": 101,
      "chip": "ym2612"
    },
    {
      "channel": 2,
      "note": 66,
      "start": 77.2857,
      "duration": 0.0161,
      "velocity": 100,
      "chip": "ym2612"
    },
    {
      "channel": 1,
      "note": 105,
      "start": 77.2948,
      "duration": 0.0161,
      "velocity": 105,
      "chip": "ym2612"
    },
    {
      "channel": 0,
      "note": 44,
      "start": 77.2965,
      "duration": 0.0161,
      "velocity": 115,
      "chip": "ym2612"
    },
    {
      "channel": 5,
      "note": 92,
      "start": 77.2977,
      "duration": 0.0161,
      "velocity": 101,
      "chip": "ym2612"
    },
    {
      "channel": 4,
      "note": 97,
      "start": 77.2988,
      "duration": 0.0161,
      "velocity": 101,
      "chip": "ym2612"
    },
    {
      "channel": 3,
      "note": 100,
      "start": 77.3,
      "duration": 0.0161,
      "velocity": 101,
      "chip": "ym2612"
    },
    {
      "channel": 2,
      "note": 66,
      "start": 77.3018,
      "duration": 0.0157,
      "velocity": 100,
      "chip": "ym2612"
    },
    {
      "channel": 1,
      "note": 105,
      "start": 77.3109,
      "duration": 0.0161,
      "velocity": 105,
      "chip": "ym2612"
    },
    {
      "channel": 0,
      "note": 44,
      "start": 77.3126,
      "duration": 0.0161,
      "velocity": 115,
      "chip": "ym2612"
    },
    {
      "channel": 5,
      "note": 92,
      "start": 77.3138,
      "duration": 0.0161,
      "velocity": 101,
      "chip": "ym2612"
    },
    {
      "channel": 4,
      "note": 97,
      "start": 77.3149,
      "duration": 0.0161,
      "velocity": 101,
      "chip": "ym2612"
    },
    {
      "channel": 3,
      "note": 100,
      "start": 77.3161,
      "duration": 0.0161,
      "velocity": 101,
      "chip": "ym2612"
    },
    {
      "channel": 2,
      "note": 66,
      "start": 77.3175,
      "duration": 0.016,
      "velocity": 100,
      "chip": "ym2612"
    },
    {
      "channel": 1,
      "note": 105,
      "start": 77.327,
      "duration": 0.0161,
      "velocity": 105,
      "chip": "ym2612"
    },
    {
      "channel": 0,
      "note": 44,
      "start": 77.3287,
      "duration": 0.0161,
      "velocity": 115,
      "chip": "ym2612"
    },
    {
      "channel": 5,
      "note": 92,
      "start": 77.3299,
      "duration": 0.0161,
      "velocity": 101,
      "chip": "ym2612"
    },
    {
      "channel": 4,
      "note": 97,
      "start": 77.331,
      "duration": 0.0163,
      "velocity": 101,
      "chip": "ym2612"
    },
    {
      "channel": 3,
      "note": 100,
      "start": 77.3322,
      "duration": 0.0163,
      "velocity": 101,
      "chip": "ym2612"
    },
    {
      "channel": 2,
      "note": 66,
      "start": 77.3334,
      "duration": 0.0163,
      "velocity": 100,
      "chip": "ym2612"
    },
    {
      "channel": 1,
      "note": 105,
      "start": 77.3431,
      "duration": 0.0161,
      "velocity": 105,
      "chip": "ym2612"
    },
    {
      "channel": 0,
      "note": 45,
      "start": 77.3448,
      "duration": 0.0161,
      "velocity": 115,
      "chip": "ym2612"
    },
    {
      "channel": 5,
      "note": 92,
      "start": 77.346,
      "duration": 0.0161,
      "velocity": 101,
      "chip": "ym2612"
    },
    {
      "channel": 4,
      "note": 97,
      "start": 77.3473,
      "duration": 0.016,
      "velocity": 101,
      "chip": "ym2612"
    },
    {
      "channel": 3,
      "note": 100,
      "start": 77.3486,
      "duration": 0.016,
      "velocity": 101,
      "chip": "ym2612"
    },
    {
      "channel": 2,
      "note": 66,
      "start": 77.3498,
      "duration": 0.016,
      "velocity": 100,
      "chip": "ym2612"
    },
    {
      "channel": 1,
      "note": 105,
      "start": 77.3592,
      "duration": 0.0161,
      "velocity": 105,
      "chip": "ym2612"
    },
    {
      "channel": 0,
      "note": 45,
      "start": 77.3609,
      "duration": 0.0162,
      "velocity": 115,
      "chip": "ym2612"
    },
    {
      "channel": 5,
      "note": 92,
      "start": 77.3621,
      "duration": 0.0161,
      "velocity": 101,
      "chip": "ym2612"
    },
    {
      "channel": 4,
      "note": 97,
      "start": 77.3633,
      "duration": 0.0162,
      "velocity": 101,
      "chip": "ym2612"
    },
    {
      "channel": 3,
      "note": 100,
      "start": 77.3646,
      "duration": 0.0161,
      "velocity": 101,
      "chip": "ym2612"
    },
    {
      "channel": 2,
      "note": 66,
      "start": 77.3658,
      "duration": 0.0161,
      "velocity": 100,
      "chip": "ym2612"
    },
    {
      "channel": 1,
      "note": 105,
      "start": 77.3753,
      "duration": 0.0161,
      "velocity": 105,
      "chip": "ym2612"
    },
    {
      "channel": 0,
      "note": 46,
      "start": 77.377,
      "duration": 0.0161,
      "velocity": 115,
      "chip": "ym2612"
    },
    {
      "channel": 2,
      "note": 66,
      "start": 77.3819,
      "duration": 0.016,
      "velocity": 100,
      "chip": "ym2612"
    },
    {
      "channel": 1,
      "note": 105,
      "start": 77.3914,
      "duration": 0.0161,
      "velocity": 105,
      "chip": "ym2612"
    },
    {
      "channel": 0,
      "note": 46,
      "start": 77.3931,
      "duration": 0.0161,
      "velocity": 115,
      "chip": "ym2612"
    },
    {
      "channel": 2,
      "note": 66,
      "start": 77.3979,
      "duration": 0.0163,
      "velocity": 100,
      "chip": "ym2612"
    },
    {
      "channel": 1,
      "note": 105,
      "start": 77.4075,
      "duration": 0.0161,
      "velocity": 105,
      "chip": "ym2612"
    },
    {
      "channel": 0,
      "note": 47,
      "start": 77.4092,
      "duration": 0.0161,
      "velocity": 115,
      "chip": "ym2612"
    },
    {
      "channel": 2,
      "note": 66,
      "start": 77.4142,
      "duration": 0.0158,
      "velocity": 100,
      "chip": "ym2612"
    },
    {
      "channel": 1,
      "note": 105,
      "start": 77.4236,
      "duration": 0.0179,
      "velocity": 116,
      "chip": "ym2612"
    },
    {
      "channel": 0,
      "note": 47,
      "start": 77.4253,
      "duration": 0.0197,
      "velocity": 115,
      "chip": "ym2612"
    },
    {
      "channel": 2,
      "note": 66,
      "start": 77.43,
      "duration": 0.0216,
      "velocity": 100,
      "chip": "ym2612"
    },
    {
      "channel": 1,
      "note": 68,
      "start": 77.4415,
      "duration": 0.0144,
      "velocity": 116,
      "chip": "ym2612"
    },
    {
      "channel": 0,
      "note": 36,
      "start": 77.445,
      "duration": 0.0126,
      "velocity": 115,
      "chip": "ym2612"
    },
    {
      "channel": 5,
      "note": 92,
      "start": 77.4466,
      "duration": 0.0123,
      "velocity": 101,
      "chip": "ym2612"
    },
    {
      "channel": 4,
      "note": 97,
      "start": 77.448,
      "duration": 0.0122,
      "velocity": 101,
      "chip": "ym2612"
    },
    {
      "channel": 3,
      "note": 100,
      "start": 77.4495,
      "duration": 0.0119,
      "velocity": 101,
      "chip": "ym2612"
    },
    {
      "channel": 2,
      "note": 54,
      "start": 77.4516,
      "duration": 0.011,
      "velocity": 100,
      "chip": "ym2612"
    },
    {
      "channel": 1,
      "note": 68,
      "start": 77.4558,
      "duration": 0.0161,
      "velocity": 116,
      "chip": "ym2612"
    },
    {
      "channel": 0,
      "note": 36,
      "start": 77.4576,
      "duration": 0.016,
      "velocity": 115,
      "chip": "ym2612"
    },
    {
      "channel": 5,
      "note": 92,
      "start": 77.4589,
      "duration": 0.0159,
      "velocity": 101,
      "chip": "ym2612"
    },
    {
      "channel": 4,
      "note": 97,
      "start": 77.4602,
      "duration": 0.0159,
      "velocity": 101,
      "chip": "ym2612"
    },
    {
      "channel": 3,
      "note": 100,
      "start": 77.4614,
      "duration": 0.0158,
      "velocity": 101,
      "chip": "ym2612"
    },
    {
      "channel": 2,
      "note": 54,
      "start": 77.4626,
      "duration": 0.0157,
      "velocity": 100,
      "chip": "ym2612"
    },
    {
      "channel": 1,
      "note": 68,
      "start": 77.4719,
      "duration": 0.0161,
      "velocity": 116,
      "chip": "ym2612"
    },
    {
      "channel": 0,
      "note": 37,
      "start": 77.4736,
      "duration": 0.0162,
      "velocity": 115,
      "chip": "ym2612"
    },
    {
      "channel": 5,
      "note": 92,
      "start": 77.4748,
      "duration": 0.0161,
      "velocity": 101,
      "chip": "ym2612"
    },
    {
      "channel": 4,
      "note": 97,
      "start": 77.476,
      "duration": 0.0161,
      "velocity": 101,
      "chip": "ym2612"
    },
    {
      "channel": 3,
      "note": 100,
      "start": 77.4771,
      "duration": 0.0161,
      "velocity": 101,
      "chip": "ym2612"
    },
    {
      "channel": 2,
      "note": 54,
      "start": 77.4783,
      "duration": 0.0161,
      "velocity": 100,
      "chip": "ym2612"
    },
    {
      "channel": 1,
      "note": 68,
      "start": 77.488,
      "duration": 0.0161,
      "velocity": 116,
      "chip": "ym2612"
    },
    {
      "channel": 0,
      "note": 37,
      "start": 77.4898,
      "duration": 0.0161,
      "velocity": 115,
      "chip": "ym2612"
    },
    {
      "channel": 5,
      "note": 92,
      "start": 77.4909,
      "duration": 0.0161,
      "velocity": 101,
      "chip": "ym2612"
    },
    {
      "channel": 4,
      "note": 97,
      "start": 77.4921,
      "duration": 0.0161,
      "velocity": 101,
      "chip": "ym2612"
    },
    {
      "channel": 3,
      "note": 100,
      "start": 77.4932,
      "duration": 0.0161,
      "velocity": 101,
      "chip": "ym2612"
    },
    {
      "channel": 2,
      "note": 54,
      "start": 77.4944,
      "duration": 0.0162,
      "velocity": 100,
      "chip": "ym2612"
    },
    {
      "channel": 1,
      "note": 68,
      "start": 77.5041,
      "duration": 0.0161,
      "velocity": 116,
      "chip": "ym2612"
    },
    {
      "channel": 0,
      "note": 38,
      "start": 77.5058,
      "duration": 0.0161,
      "velocity": 115,
      "chip": "ym2612"
    },
    {
      "channel": 5,
      "note": 92,
      "start": 77.507,
      "duration": 0.0161,
      "velocity": 101,
      "chip": "ym2612"
    },
    {
      "channel": 4,
      "note": 97,
      "start": 77.5082,
      "duration": 0.0161,
      "velocity": 101,
      "chip": "ym2612"
    },
    {
      "channel": 3,
      "note": 100,
      "start": 77.5093,
      "duration": 0.0161,
      "velocity": 101,
      "chip": "ym2612"
    },
    {
      "channel": 2,
      "note": 54,
      "start": 77.5105,
      "duration": 0.0161,
      "velocity": 100,
      "chip": "ym2612"
    },
    {
      "channel": 1,
      "note": 68,
      "start": 77.5202,
      "duration": 0.018,
      "velocity": 116,
      "chip": "ym2612"
    },
    {
      "channel": 0,
      "note": 38,
      "start": 77.5219,
      "duration": 0.0179,
      "velocity": 115,
      "chip": "ym2612"
    },
    {
      "channel": 5,
      "note": 92,
      "start": 77.5231,
      "duration": 0.018,
      "velocity": 101,
      "chip": "ym2612"
    },
    {
      "channel": 4,
      "note": 97,
      "start": 77.5243,
      "duration": 0.0179,
      "velocity": 101,
      "chip": "ym2612"
    },
    {
      "channel": 3,
      "note": 100,
      "start": 77.5254,
      "duration": 0.018,
      "velocity": 101,
      "chip": "ym2612"
    },
    {
      "channel": 2,
      "note": 54,
      "start": 77.5266,
      "duration": 0.0179,
      "velocity": 100,
      "chip": "ym2612"
    },
    {
      "channel": 1,
      "note": 68,
      "start": 77.5382,
      "duration": 0.0146,
      "velocity": 116,
      "chip": "ym2612"
    },
    {
      "channel": 0,
      "note": 39,
      "start": 77.5399,
      "duration": 0.0146,
      "velocity": 115,
      "chip": "ym2612"
    },
    {
      "channel": 5,
      "note": 92,
      "start": 77.5411,
      "duration": 0.0146,
      "velocity": 101,
      "chip": "ym2612"
    },
    {
      "channel": 4,
      "note": 97,
      "start": 77.5422,
      "duration": 0.0146,
      "velocity": 101,
      "chip": "ym2612"
    },
    {
      "channel": 3,
      "note": 100,
      "start": 77.5434,
      "duration": 0.0146,
      "velocity": 101,
      "chip": "ym2612"
    },
    {
      "channel": 2,
      "note": 54,
      "start": 77.5446,
      "duration": 0.0146,
      "velocity": 100,
      "chip": "ym2612"
    },
    {
      "channel": 1,
      "note": 68,
      "start": 77.5527,
      "duration": 0.0163,
      "velocity": 116,
      "chip": "ym2612"
    },
    {
      "channel": 0,
      "note": 39,
      "start": 77.5544,
      "duration": 0.0163,
      "velocity": 115,
      "chip": "ym2612"
    },
    {
      "channel": 5,
      "note": 92,
      "start": 77.5556,
      "duration": 0.0163,
      "velocity": 101,
      "chip": "ym2612"
    },
    {
      "channel": 4,
      "note": 97,
      "start": 77.5568,
      "duration": 0.0163,
      "velocity": 101,
      "chip": "ym2612"
    },
    {
      "channel": 3,
      "note": 100,
      "start": 77.558,
      "duration": 0.0163,
      "velocity": 101,
      "chip": "ym2612"
    },
    {
      "channel": 2,
      "note": 54,
      "start": 77.5591,
      "duration": 0.0163,
      "velocity": 100,
      "chip": "ym2612"
    },
    {
      "channel": 1,
      "note": 68,
      "start": 77.569,
      "duration": 0.0162,
      "velocity": 116,
      "chip": "ym2612"
    },
    {
      "channel": 0,
      "note": 40,
      "start": 77.5707,
      "duration": 0.0161,
      "velocity": 115,
      "chip": "ym2612"
    },
    {
      "channel": 5,
      "note": 92,
      "start": 77.5719,
      "duration": 0.0162,
      "velocity": 101,
      "chip": "ym2612"
    },
    {
      "channel": 4,
      "note": 97,
      "start": 77.5731,
      "duration": 0.0162,
      "velocity": 101,
      "chip": "ym2612"
    },
    {
      "channel": 3,
      "note": 100,
      "start": 77.5743,
      "duration": 0.0162,
      "velocity": 101,
      "chip": "ym2612"
    },
    {
      "channel": 2,
      "note": 54,
      "start": 77.5754,
      "duration": 0.0162,
      "velocity": 100,
      "chip": "ym2612"
    },
    {
      "channel": 1,
      "note": 68,
      "start": 77.5852,
      "duration": 0.016,
      "velocity": 116,
      "chip": "ym2612"
    },
    {
      "channel": 0,
      "note": 40,
      "start": 77.5869,
      "duration": 0.0161,
      "velocity": 115,
      "chip": "ym2612"
    },
    {
      "channel": 5,
      "note": 92,
      "start": 77.5881,
      "duration": 0.0161,
      "velocity": 101,
      "chip": "ym2612"
    },
    {
      "channel": 4,
      "note": 97,
      "start": 77.5893,
      "duration": 0.0161,
      "velocity": 101,
      "chip": "ym2612"
    },
    {
      "channel": 3,
      "note": 100,
      "start": 77.5905,
      "duration": 0.0161,
      "velocity": 101,
      "chip": "ym2612"
    },
    {
      "channel": 2,
      "note": 54,
      "start": 77.5916,
      "duration": 0.0161,
      "velocity": 100,
      "chip": "ym2612"
    },
    {
      "channel": 1,
      "note": 68,
      "start": 77.6012,
      "duration": 0.0155,
      "velocity": 116,
      "chip": "ym2612"
    },
    {
      "channel": 0,
      "note": 40,
      "start": 77.603,
      "duration": 0.0162,
      "velocity": 115,
      "chip": "ym2612"
    },
    {
      "channel": 5,
      "note": 92,
      "start": 77.6042,
      "duration": 0.0161,
      "velocity": 101,
      "chip": "ym2612"
    },
    {
      "channel": 4,
      "note": 97,
      "start": 77.6054,
      "duration": 0.0161,
      "velocity": 101,
      "chip": "ym2612"
    },
    {
      "channel": 3,
      "note": 100,
      "start": 77.6065,
      "duration": 0.0161,
      "velocity": 101,
      "chip": "ym2612"
    },
    {
      "channel": 2,
      "note": 54,
      "start": 77.6077,
      "duration": 0.0161,
      "velocity": 100,
      "chip": "ym2612"
    },
    {
      "channel": 1,
      "note": 68,
      "start": 77.6168,
      "duration": 0.0162,
      "velocity": 116,
      "chip": "ym2612"
    },
    {
      "channel": 0,
      "note": 41,
      "start": 77.6191,
      "duration": 0.0161,
      "velocity": 115,
      "chip": "ym2612"
    },
    {
      "channel": 5,
      "note": 92,
      "start": 77.6203,
      "duration": 0.0161,
      "velocity": 101,
      "chip": "ym2612"
    },
    {
      "channel": 4,
      "note": 97,
      "start": 77.6215,
      "duration": 0.0161,
      "velocity": 101,
      "chip": "ym2612"
    },
    {
      "channel": 3,
      "note": 100,
      "start": 77.6226,
      "duration": 0.0161,
      "velocity": 101,
      "chip": "ym2612"
    },
    {
      "channel": 2,
      "note": 54,
      "start": 77.6238,
      "duration": 0.0161,
      "velocity": 100,
      "chip": "ym2612"
    },
    {
      "channel": 1,
      "note": 68,
      "start": 77.6329,
      "duration": 0.0183,
      "velocity": 105,
      "chip": "ym2612"
    },
    {
      "channel": 0,
      "note": 41,
      "start": 77.6352,
      "duration": 0.0178,
      "velocity": 115,
      "chip": "ym2612"
    },
    {
      "channel": 5,
      "note": 92,
      "start": 77.6364,
      "duration": 0.0179,
      "velocity": 101,
      "chip": "ym2612"
    },
    {
      "channel": 4,
      "note": 97,
      "start": 77.6376,
      "duration": 0.0179,
      "velocity": 101,
      "chip": "ym2612"
    },
    {
      "channel": 3,
      "note": 100,
      "start": 77.6387,
      "duration": 0.0179,
      "velocity": 101,
      "chip": "ym2612"
    },
    {
      "channel": 2,
      "note": 54,
      "start": 77.6399,
      "duration": 0.0182,
      "velocity": 100,
      "chip": "ym2612"
    },
    {
      "channel": 1,
      "note": 105,
      "start": 77.6513,
      "duration": 0.0139,
      "velocity": 105,
      "chip": "ym2612"
    },
    {
      "channel": 0,
      "note": 42,
      "start": 77.653,
      "duration": 0.0138,
      "velocity": 115,
      "chip": "ym2612"
    },
    {
      "channel": 5,
      "note": 92,
      "start": 77.6542,
      "duration": 0.0144,
      "velocity": 101,
      "chip": "ym2612"
    },
    {
      "channel": 4,
      "note": 97,
      "start": 77.6555,
      "duration": 0.0144,
      "velocity": 101,
      "chip": "ym2612"
    },
    {
      "channel": 3,
      "note": 100,
      "start": 77.6567,
      "duration": 0.0144,
      "velocity": 101,
      "chip": "ym2612"
    },
    {
      "channel": 2,
      "note": 66,
      "start": 77.6582,
      "duration": 0.0141,
      "velocity": 100,
      "chip": "ym2612"
    },
    {
      "channel": 1,
      "note": 105,
      "start": 77.6652,
      "duration": 0.016,
      "velocity": 105,
      "chip": "ym2612"
    },
    {
      "channel": 0,
      "note": 42,
      "start": 77.6668,
      "duration": 0.0161,
      "velocity": 115,
      "chip": "ym2612"
    },
    {
      "channel": 5,
      "note": 92,
      "start": 77.6686,
      "duration": 0.016,
      "velocity": 101,
      "chip": "ym2612"
    },
    {
      "channel": 4,
      "note": 97,
      "start": 77.6699,
      "duration": 0.016,
      "velocity": 101,
      "chip": "ym2612"
    },
    {
      "channel": 3,
      "note": 100,
      "start": 77.6711,
      "duration": 0.016,
      "velocity": 101,
      "chip": "ym2612"
    },
    {
      "channel": 2,
      "note": 66,
      "start": 77.6723,
      "duration": 0.016,
      "velocity": 100,
      "chip": "ym2612"
    },
    {
      "channel": 1,
      "note": 105,
      "start": 77.6812,
      "duration": 0.0161,
      "velocity": 105,
      "chip": "ym2612"
    },
    {
      "channel": 0,
      "note": 43,
      "start": 77.6829,
      "duration": 0.0161,
      "velocity": 115,
      "chip": "ym2612"
    },
    {
      "channel": 5,
      "note": 92,
      "start": 77.6846,
      "duration": 0.0155,
      "velocity": 101,
      "chip": "ym2612"
    },
    {
      "channel": 4,
      "note": 97,
      "start": 77.6859,
      "duration": 0.0161,
      "velocity": 101,
      "chip": "ym2612"
    },
    {
      "channel": 3,
      "note": 100,
      "start": 77.6871,
      "duration": 0.0161,
      "velocity": 101,
      "chip": "ym2612"
    },
    {
      "channel": 2,
      "note": 66,
      "start": 77.6883,
      "duration": 0.0161,
      "velocity": 100,
      "chip": "ym2612"
    },
    {
      "channel": 1,
      "note": 105,
      "start": 77.6973,
      "duration": 0.0161,
      "velocity": 105,
      "chip": "ym2612"
    },
    {
      "channel": 0,
      "note": 43,
      "start": 77.699,
      "duration": 0.0161,
      "velocity": 115,
      "chip": "ym2612"
    },
    {
      "channel": 5,
      "note": 92,
      "start": 77.7002,
      "duration": 0.0161,
      "velocity": 101,
      "chip": "ym2612"
    },
    {
      "channel": 4,
      "note": 97,
      "start": 77.702,
      "duration": 0.016,
      "velocity": 101,
      "chip": "ym2612"
    },
    {
      "channel": 3,
      "note": 100,
      "start": 77.7032,
      "duration": 0.0161,
      "velocity": 101,
      "chip": "ym2612"
    },
    {
      "channel": 2,
      "note": 66,
      "start": 77.7044,
      "duration": 0.0161,
      "velocity": 100,
      "chip": "ym2612"
    },
    {
      "channel": 1,
      "note": 105,
      "start": 77.7134,
      "duration": 0.0161,
      "velocity": 105,
      "chip": "ym2612"
    },
    {
      "channel": 0,
      "note": 44,
      "start": 77.7151,
      "duration": 0.0161,
      "velocity": 115,
      "chip": "ym2612"
    },
    {
      "channel": 5,
      "note": 92,
      "start": 77.7163,
      "duration": 0.0161,
      "velocity": 101,
      "chip": "ym2612"
    },
    {
      "channel": 4,
      "note": 97,
      "start": 77.718,
      "duration": 0.0156,
      "velocity": 101,
      "chip": "ym2612"
    },
    {
      "channel": 3,
      "note": 100,
      "start": 77.7193,
      "duration": 0.0161,
      "velocity": 101,
      "chip": "ym2612"
    },
    {
      "channel": 2,
      "note": 66,
      "start": 77.7205,
      "duration": 0.0161,
      "velocity": 100,
      "chip": "ym2612"
    },
    {
      "channel": 1,
      "note": 105,
      "start": 77.7295,
      "duration": 0.0161,
      "velocity": 105,
      "chip": "ym2612"
    },
    {
      "channel": 0,
      "note": 44,
      "start": 77.7312,
      "duration": 0.0161,
      "velocity": 115,
      "chip": "ym2612"
    },
    {
      "channel": 5,
      "note": 92,
      "start": 77.7324,
      "duration": 0.0161,
      "velocity": 101,
      "chip": "ym2612"
    },
    {
      "channel": 4,
      "note": 97,
      "start": 77.7336,
      "duration": 0.0161,
      "velocity": 101,
      "chip": "ym2612"
    },
    {
      "channel": 3,
      "note": 100,
      "start": 77.7354,
      "duration": 0.016,
      "velocity": 101,
      "chip": "ym2612"
    },
    {
      "channel": 2,
      "note": 66,
      "start": 77.7366,
      "duration": 0.0162,
      "velocity": 100,
      "chip": "ym2612"
    },
    {
      "channel": 1,
      "note": 105,
      "start": 77.7456,
      "duration": 0.0161,
      "velocity": 105,
      "chip": "ym2612"
    },
    {
      "channel": 0,
      "note": 44,
      "start": 77.7473,
      "duration": 0.0161,
      "velocity": 115,
      "chip": "ym2612"
    },
    {
      "channel": 5,
      "note": 92,
      "start": 77.7485,
      "duration": 0.0161,
      "velocity": 101,
      "chip": "ym2612"
    },
    {
      "channel": 4,
      "note": 97,
      "start": 77.7497,
      "duration": 0.0162,
      "velocity": 101,
      "chip": "ym2612"
    },
    {
      "channel": 3,
      "note": 100,
      "start": 77.7515,
      "duration": 0.016,
      "velocity": 101,
      "chip": "ym2612"
    },
    {
      "channel": 2,
      "note": 66,
      "start": 77.7528,
      "duration": 0.0163,
      "velocity": 100,
      "chip": "ym2612"
    },
    {
      "channel": 1,
      "note": 105,
      "start": 77.7617,
      "duration": 0.0161,
      "velocity": 105,
      "chip": "ym2612"
    },
    {
      "channel": 0,
      "note": 45,
      "start": 77.7634,
      "duration": 0.0161,
      "velocity": 115,
      "chip": "ym2612"
    },
    {
      "channel": 5,
      "note": 92,
      "start": 77.7647,
      "duration": 0.0161,
      "velocity": 101,
      "chip": "ym2612"
    },
    {
      "channel": 4,
      "note": 97,
      "start": 77.7659,
      "duration": 0.0161,
      "velocity": 101,
      "chip": "ym2612"
    },
    {
      "channel": 3,
      "note": 100,
      "start": 77.7675,
      "duration": 0.0158,
      "velocity": 101,
      "chip": "ym2612"
    },
    {
      "channel": 2,
      "note": 66,
      "start": 77.7691,
      "duration": 0.016,
      "velocity": 100,
      "chip": "ym2612"
    },
    {
      "channel": 1,
      "note": 105,
      "start": 77.7778,
      "duration": 0.0162,
      "velocity": 105,
      "chip": "ym2612"
    },
    {
      "channel": 0,
      "note": 45,
      "start": 77.7795,
      "duration": 0.0161,
      "velocity": 115,
      "chip": "ym2612"
    },
    {
      "channel": 5,
      "note": 92,
      "start": 77.7808,
      "duration": 0.0161,
      "velocity": 101,
      "chip": "ym2612"
    },
    {
      "channel": 4,
      "note": 97,
      "start": 77.782,
      "duration": 0.0161,
      "velocity": 101,
      "chip": "ym2612"
    },
    {
      "channel": 3,
      "note": 100,
      "start": 77.7833,
      "duration": 0.0161,
      "velocity": 101,
      "chip": "ym2612"
    },
    {
      "channel": 2,
      "note": 66,
      "start": 77.7851,
      "duration": 0.0156,
      "velocity": 100,
      "chip": "ym2612"
    },
    {
      "channel": 1,
      "note": 105,
      "start": 77.7939,
      "duration": 0.0161,
      "velocity": 105,
      "chip": "ym2612"
    },
    {
      "channel": 0,
      "note": 46,
      "start": 77.7956,
      "duration": 0.0161,
      "velocity": 115,
      "chip": "ym2612"
    },
    {
      "channel": 2,
      "note": 66,
      "start": 77.8007,
      "duration": 0.0159,
      "velocity": 100,
      "chip": "ym2612"
    },
    {
      "channel": 1,
      "note": 105,
      "start": 77.81,
      "duration": 0.0161,
      "velocity": 105,
      "chip": "ym2612"
    },
    {
      "channel": 0,
      "note": 46,
      "start": 77.8117,
      "duration": 0.0161,
      "velocity": 115,
      "chip": "ym2612"
    },
    {
      "channel": 2,
      "note": 66,
      "start": 77.8166,
      "duration": 0.0163,
      "velocity": 100,
      "chip": "ym2612"
    },
    {
      "channel": 1,
      "note": 105,
      "start": 77.8261,
      "duration": 0.0161,
      "velocity": 105,
      "chip": "ym2612"
    },
    {
      "channel": 0,
      "note": 47,
      "start": 77.8278,
      "duration": 0.0162,
      "velocity": 115,
      "chip": "ym2612"
    },
    {
      "channel": 2,
      "note": 66,
      "start": 77.8329,
      "duration": 0.0158,
      "velocity": 100,
      "chip": "ym2612"
    },
    {
      "channel": 1,
      "note": 105,
      "start": 77.8422,
      "duration": 0.0179,
      "velocity": 116,
      "chip": "ym2612"
    },
    {
      "channel": 0,
      "note": 47,
      "start": 77.8439,
      "duration": 0.0197,
      "velocity": 115,
      "chip": "ym2612"
    },
    {
      "channel": 2,
      "note": 66,
      "start": 77.8487,
      "duration": 0.0216,
      "velocity": 100,
      "chip": "ym2612"
    },
    {
      "channel": 1,
      "note": 68,
      "start": 77.8601,
      "duration": 0.0144,
      "velocity": 116,
      "chip": "ym2612"
    },
    {
      "channel": 0,
      "note": 36,
      "start": 77.8637,
      "duration": 0.0126,
      "velocity": 115,
      "chip": "ym2612"
    },
    {
      "channel": 5,
      "note": 90,
      "start": 77.8652,
      "duration": 0.0123,
      "velocity": 101,
      "chip": "ym2612"
    },
    {
      "channel": 4,
      "note": 95,
      "start": 77.8666,
      "duration": 0.0121,
      "velocity": 101,
      "chip": "ym2612"
    },
    {
      "channel": 3,
      "note": 99,
      "start": 77.8687,
      "duration": 0.0113,
      "velocity": 101,
      "chip": "ym2612"
    },
    {
      "channel": 2,
      "note": 54,
      "start": 77.8703,
      "duration": 0.0109,
      "velocity": 100,
      "chip": "ym2612"
    },
    {
      "channel": 1,
      "note": 68,
      "start": 77.8745,
      "duration": 0.016,
      "velocity": 116,
      "chip": "ym2612"
    },
    {
      "channel": 0,
      "note": 36,
      "start": 77.8763,
      "duration": 0.016,
      "velocity": 115,
      "chip": "ym2612"
    },
    {
      "channel": 5,
      "note": 90,
      "start": 77.8775,
      "duration": 0.0159,
      "velocity": 101,
      "chip": "ym2612"
    },
    {
      "channel": 4,
      "note": 95,
      "start": 77.8787,
      "duration": 0.0159,
      "velocity": 101,
      "chip": "ym2612"
    },
    {
      "channel": 3,
      "note": 99,
      "start": 77.88,
      "duration": 0.0158,
      "velocity": 101,
      "chip": "ym2612"
    },
    {
      "channel": 2,
      "note": 54,
      "start": 77.8812,
      "duration": 0.0157,
      "velocity": 100,
      "chip": "ym2612"
    },
    {
      "channel": 1,
      "note": 68,
      "start": 77.8905,
      "duration": 0.0161,
      "velocity": 116,
      "chip": "ym2612"
    },
    {
      "channel": 0,
      "note": 37,
      "start": 77.8922,
      "duration": 0.0161,
      "velocity": 115,
      "chip": "ym2612"
    },
    {
      "channel": 5,
      "note": 90,
      "start": 77.8934,
      "duration": 0.0161,
      "velocity": 101,
      "chip": "ym2612"
    },
    {
      "channel": 4,
      "note": 95,
      "start": 77.8946,
      "duration": 0.0161,
      "velocity": 101,
      "chip": "ym2612"
    },
    {
      "channel": 3,
      "note": 99,
      "start": 77.8958,
      "duration": 0.0161,
      "velocity": 101,
      "chip": "ym2612"
    },
    {
      "channel": 2,
      "note": 54,
      "start": 77.8969,
      "duration": 0.0161,
      "velocity": 100,
      "chip": "ym2612"
    },
    {
      "channel": 1,
      "note": 68,
      "start": 77.9066,
      "duration": 0.0162,
      "velocity": 116,
      "chip": "ym2612"
    },
    {
      "channel": 0,
      "note": 37,
      "start": 77.9083,
      "duration": 0.0161,
      "velocity": 115,
      "chip": "ym2612"
    },
    {
      "channel": 5,
      "note": 90,
      "start": 77.9095,
      "duration": 0.0161,
      "velocity": 101,
      "chip": "ym2612"
    },
    {
      "channel": 4,
      "note": 95,
      "start": 77.9107,
      "duration": 0.0161,
      "velocity": 101,
      "chip": "ym2612"
    },
    {
      "channel": 3,
      "note": 99,
      "start": 77.9119,
      "duration": 0.0161,
      "velocity": 101,
      "chip": "ym2612"
    },
    {
      "channel": 2,
      "note": 54,
      "start": 77.913,
      "duration": 0.0161,
      "velocity": 100,
      "chip": "ym2612"
    },
    {
      "channel": 1,
      "note": 68,
      "start": 77.9228,
      "duration": 0.0161,
      "velocity": 116,
      "chip": "ym2612"
    },
    {
      "channel": 0,
      "note": 38,
      "start": 77.9244,
      "duration": 0.0161,
      "velocity": 115,
      "chip": "ym2612"
    },
    {
      "channel": 5,
      "note": 90,
      "start": 77.9256,
      "duration": 0.0161,
      "velocity": 101,
      "chip": "ym2612"
    },
    {
      "channel": 4,
      "note": 95,
      "start": 77.9268,
      "duration": 0.0161,
      "velocity": 101,
      "chip": "ym2612"
    },
    {
      "channel": 3,
      "note": 99,
      "start": 77.928,
      "duration": 0.0161,
      "velocity": 101,
      "chip": "ym2612"
    },
    {
      "channel": 2,
      "note": 54,
      "start": 77.9291,
      "duration": 0.0161,
      "velocity": 100,
      "chip": "ym2612"
    },
    {
      "channel": 1,
      "note": 68,
      "start": 77.9388,
      "duration": 0.0178,
      "velocity": 116,
      "chip": "ym2612"
    },
    {
      "channel": 0,
      "note": 38,
      "start": 77.9406,
      "duration": 0.0179,
      "velocity": 115,
      "chip": "ym2612"
    },
    {
      "channel": 5,
      "note": 90,
      "start": 77.9417,
      "duration": 0.0179,
      "velocity": 101,
      "chip": "ym2612"
    },
    {
      "channel": 4,
      "note": 95,
      "start": 77.9429,
      "duration": 0.0179,
      "velocity": 101,
      "chip": "ym2612"
    },
    {
      "channel": 3,
      "note": 99,
      "start": 77.9441,
      "duration": 0.0179,
      "velocity": 101,
      "chip": "ym2612"
    },
    {
      "channel": 2,
      "note": 54,
      "start": 77.9452,
      "duration": 0.0179,
      "velocity": 100,
      "chip": "ym2612"
    },
    {
      "channel": 1,
      "note": 68,
      "start": 77.9567,
      "duration": 0.0144,
      "velocity": 116,
      "chip": "ym2612"
    },
    {
      "channel": 0,
      "note": 39,
      "start": 77.9584,
      "duration": 0.0144,
      "velocity": 115,
      "chip": "ym2612"
    },
    {
      "channel": 5,
      "note": 90,
      "start": 77.9596,
      "duration": 0.0144,
      "velocity": 101,
      "chip": "ym2612"
    },
    {
      "channel": 4,
      "note": 95,
      "start": 77.9608,
      "duration": 0.0144,
      "velocity": 101,
      "chip": "ym2612"
    },
    {
      "channel": 3,
      "note": 99,
      "start": 77.962,
      "duration": 0.0144,
      "velocity": 101,
      "chip": "ym2612"
    },
    {
      "channel": 2,
      "note": 54,
      "start": 77.9632,
      "duration": 0.0144,
      "velocity": 100,
      "chip": "ym2612"
    },
    {
      "channel": 1,
      "note": 68,
      "start": 77.9711,
      "duration": 0.016,
      "velocity": 116,
      "chip": "ym2612"
    },
    {
      "channel": 0,
      "note": 39,
      "start": 77.9728,
      "duration": 0.016,
      "velocity": 115,
      "chip": "ym2612"
    },
    {
      "channel": 5,
      "note": 90,
      "start": 77.974,
      "duration": 0.0161,
      "velocity": 101,
      "chip": "ym2612"
    },
    {
      "channel": 4,
      "note": 95,
      "start": 77.9752,
      "duration": 0.016,
      "velocity": 101,
      "chip": "ym2612"
    },
    {
      "channel": 3,
      "note": 99,
      "start": 77.9763,
      "duration": 0.0161,
      "velocity": 101,
      "chip": "ym2612"
    },
    {
      "channel": 2,
      "note": 54,
      "start": 77.9775,
      "duration": 0.016,
      "velocity": 100,
      "chip": "ym2612"
    },
    {
      "channel": 1,
      "note": 68,
      "start": 77.9871,
      "duration": 0.0161,
      "velocity": 116,
      "chip": "ym2612"
    },
    {
      "channel": 0,
      "note": 40,
      "start": 77.9888,
      "duration": 0.0161,
      "velocity": 115,
      "chip": "ym2612"
    },
    {
      "channel": 5,
      "note": 90,
      "start": 77.9901,
      "duration": 0.0161,
      "velocity": 101,
      "chip": "ym2612"
    },
    {
      "channel": 4,
      "note": 95,
      "start": 77.9912,
      "duration": 0.0161,
      "velocity": 101,
      "chip": "ym2612"
    },
    {
      "channel": 3,
      "note": 99,
      "start": 77.9924,
      "duration": 0.0161,
      "velocity": 101,
      "chip": "ym2612"
    },
    {
      "channel": 2,
      "note": 54,
      "start": 77.9936,
      "duration": 0.0161,
      "velocity": 100,
      "chip": "ym2612"
    },
    {
      "channel": 1,
      "note": 68,
      "start": 78.0032,
      "duration": 0.0162,
      "velocity": 116,
      "chip": "ym2612"
    },
    {
      "channel": 0,
      "note": 40,
      "start": 78.0049,
      "duration": 0.0162,
      "velocity": 115,
      "chip": "ym2612"
    },
    {
      "channel": 5,
      "note": 90,
      "start": 78.0061,
      "duration": 0.0162,
      "velocity": 101,
      "chip": "ym2612"
    },
    {
      "channel": 4,
      "note": 95,
      "start": 78.0073,
      "duration": 0.0162,
      "velocity": 101,
      "chip": "ym2612"
    },
    {
      "channel": 3,
      "note": 99,
      "start": 78.0085,
      "duration": 0.0162,
      "velocity": 101,
      "chip": "ym2612"
    },
    {
      "channel": 2,
      "note": 54,
      "start": 78.0097,
      "duration": 0.0161,
      "velocity": 100,
      "chip": "ym2612"
    },
    {
      "channel": 1,
      "note": 68,
      "start": 78.0194,
      "duration": 0.0165,
      "velocity": 116,
      "chip": "ym2612"
    },
    {
      "channel": 0,
      "note": 40,
      "start": 78.0211,
      "duration": 0.0164,
      "velocity": 115,
      "chip": "ym2612"
    },
    {
      "channel": 5,
      "note": 90,
      "start": 78.0223,
      "duration": 0.0164,
      "velocity": 101,
      "chip": "ym2612"
    },
    {
      "channel": 4,
      "note": 95,
      "start": 78.0235,
      "duration": 0.0165,
      "velocity": 101,
      "chip": "ym2612"
    },
    {
      "channel": 3,
      "note": 99,
      "start": 78.0247,
      "duration": 0.0164,
      "velocity": 101,
      "chip": "ym2612"
    },
    {
      "channel": 2,
      "note": 54,
      "start": 78.0258,
      "duration": 0.0164,
      "velocity": 100,
      "chip": "ym2612"
    },
    {
      "channel": 1,
      "note": 68,
      "start": 78.0359,
      "duration": 0.0163,
      "velocity": 116,
      "chip": "ym2612"
    },
    {
      "channel": 0,
      "note": 41,
      "start": 78.0375,
      "duration": 0.0163,
      "velocity": 115,
      "chip": "ym2612"
    },
    {
      "channel": 5,
      "note": 90,
      "start": 78.0387,
      "duration": 0.0163,
      "velocity": 101,
      "chip": "ym2612"
    },
    {
      "channel": 4,
      "note": 95,
      "start": 78.0399,
      "duration": 0.0163,
      "velocity": 101,
      "chip": "ym2612"
    },
    {
      "channel": 3,
      "note": 99,
      "start": 78.0411,
      "duration": 0.0163,
      "velocity": 101,
      "chip": "ym2612"
    },
    {
      "channel": 2,
      "note": 54,
      "start": 78.0422,
      "duration": 0.0163,
      "velocity": 100,
      "chip": "ym2612"
    },
    {
      "channel": 1,
      "note": 68,
      "start": 78.0522,
      "duration": 0.0178,
      "velocity": 105,
      "chip": "ym2612"
    },
    {
      "channel": 0,
      "note": 41,
      "start": 78.0539,
      "duration": 0.0179,
      "velocity": 115,
      "chip": "ym2612"
    },
    {
      "channel": 5,
      "note": 90,
      "start": 78.055,
      "duration": 0.018,
      "velocity": 101,
      "chip": "ym2612"
    },
    {
      "channel": 4,
      "note": 95,
      "start": 78.0562,
      "duration": 0.0181,
      "velocity": 101,
      "chip": "ym2612"
    },
    {
      "channel": 3,
      "note": 99,
      "start": 78.0574,
      "duration": 0.0182,
      "velocity": 101,
      "chip": "ym2612"
    },
    {
      "channel": 2,
      "note": 54,
      "start": 78.0586,
      "duration": 0.0184,
      "velocity": 100,
      "chip": "ym2612"
    },
    {
      "channel": 1,
      "note": 105,
      "start": 78.07,
      "duration": 0.014,
      "velocity": 105,
      "chip": "ym2612"
    },
    {
      "channel": 0,
      "note": 42,
      "start": 78.0717,
      "duration": 0.0144,
      "velocity": 115,
      "chip": "ym2612"
    },
    {
      "channel": 5,
      "note": 90,
      "start": 78.073,
      "duration": 0.0144,
      "velocity": 101,
      "chip": "ym2612"
    },
    {
      "channel": 4,
      "note": 95,
      "start": 78.0743,
      "duration": 0.0143,
      "velocity": 101,
      "chip": "ym2612"
    },
    {
      "channel": 3,
      "note": 99,
      "start": 78.0756,
      "duration": 0.0143,
      "velocity": 101,
      "chip": "ym2612"
    },
    {
      "channel": 2,
      "note": 66,
      "start": 78.077,
      "duration": 0.0141,
      "velocity": 100,
      "chip": "ym2612"
    },
    {
      "channel": 1,
      "note": 105,
      "start": 78.084,
      "duration": 0.0159,
      "velocity": 105,
      "chip": "ym2612"
    },
    {
      "channel": 0,
      "note": 42,
      "start": 78.0861,
      "duration": 0.016,
      "velocity": 115,
      "chip": "ym2612"
    },
    {
      "channel": 5,
      "note": 90,
      "start": 78.0874,
      "duration": 0.016,
      "velocity": 101,
      "chip": "ym2612"
    },
    {
      "channel": 4,
      "note": 95,
      "start": 78.0886,
      "duration": 0.0161,
      "velocity": 101,
      "chip": "ym2612"
    },
    {
      "channel": 3,
      "note": 99,
      "start": 78.0899,
      "duration": 0.0161,
      "velocity": 101,
      "chip": "ym2612"
    },
    {
      "channel": 2,
      "note": 66,
      "start": 78.0911,
      "duration": 0.016,
      "velocity": 100,
      "chip": "ym2612"
    },
    {
      "channel": 1,
      "note": 105,
      "start": 78.0999,
      "duration": 0.0161,
      "velocity": 105,
      "chip": "ym2612"
    },
    {
      "channel": 0,
      "note": 43,
      "start": 78.1022,
      "duration": 0.016,
      "velocity": 115,
      "chip": "ym2612"
    },
    {
      "channel": 2,
      "note": 66,
      "start": 78.1071,
      "duration": 0.016,
      "velocity": 100,
      "chip": "ym2612"
    },
    {
      "channel": 1,
      "note": 105,
      "start": 78.1159,
      "duration": 0.0161,
      "velocity": 105,
      "chip": "ym2612"
    },
    {
      "channel": 0,
      "note": 43,
      "start": 78.1182,
      "duration": 0.0156,
      "velocity": 115,
      "chip": "ym2612"
    },
    {
      "channel": 2,
      "note": 66,
      "start": 78.1231,
      "duration": 0.0162,
      "velocity": 100,
      "chip": "ym2612"
    },
    {
      "channel": 1,
      "note": 105,
      "start": 78.132,
      "duration": 0.0161,
      "velocity": 105,
      "chip": "ym2612"
    },
    {
      "channel": 0,
      "note": 44,
      "start": 78.1338,
      "duration": 0.0161,
      "velocity": 115,
      "chip": "ym2612"
    },
    {
      "channel": 2,
      "note": 66,
      "start": 78.1393,
      "duration": 0.0159,
      "velocity": 100,
      "chip": "ym2612"
    },
    {
      "channel": 1,
      "note": 105,
      "start": 78.1481,
      "duration": 0.0161,
      "velocity": 105,
      "chip": "ym2612"
    },
    {
      "channel": 0,
      "note": 44,
      "start": 78.1499,
      "duration": 0.0161,
      "velocity": 115,
      "chip": "ym2612"
    },
    {
      "channel": 2,
      "note": 66,
      "start": 78.1552,
      "duration": 0.017,
      "velocity": 100,
      "chip": "ym2612"
    },
    {
      "channel": 1,
      "note": 105,
      "start": 78.1642,
      "duration": 0.0161,
      "velocity": 105,
      "chip": "ym2612"
    },
    {
      "channel": 0,
      "note": 44,
      "start": 78.1659,
      "duration": 0.0161,
      "velocity": 115,
      "chip": "ym2612"
    },
    {
      "channel": 5,
      "note": 90,
      "start": 78.1676,
      "duration": 0.0157,
      "velocity": 101,
      "chip": "ym2612"
    },
    {
      "channel": 4,
      "note": 95,
      "start": 78.1695,
      "duration": 0.0155,
      "velocity": 101,
      "chip": "ym2612"
    },
    {
      "channel": 3,
      "note": 99,
      "start": 78.171,
      "duration": 0.0154,
      "velocity": 101,
      "chip": "ym2612"
    },
    {
      "channel": 2,
      "note": 66,
      "start": 78.1722,
      "duration": 0.0154,
      "velocity": 100,
      "chip": "ym2612"
    },
    {
      "channel": 1,
      "note": 105,
      "start": 78.1803,
      "duration": 0.0161,
      "velocity": 105,
      "chip": "ym2612"
    },
    {
      "channel": 0,
      "note": 45,
      "start": 78.182,
      "duration": 0.0161,
      "velocity": 115,
      "chip": "ym2612"
    },
    {
      "channel": 5,
      "note": 90,
      "start": 78.1833,
      "duration": 0.0161,
      "velocity": 101,
      "chip": "ym2612"
    },
    {
      "channel": 4,
      "note": 95,
      "start": 78.185,
      "duration": 0.0157,
      "velocity": 101,
      "chip": "ym2612"
    },
    {
      "channel": 3,
      "note": 99,
      "start": 78.1864,
      "duration": 0.0159,
      "velocity": 101,
      "chip": "ym2612"
    },
    {
      "channel": 2,
      "note": 66,
      "start": 78.1876,
      "duration": 0.0159,
      "velocity": 100,
      "chip": "ym2612"
    },
    {
      "channel": 1,
      "note": 105,
      "start": 78.1964,
      "duration": 0.0161,
      "velocity": 105,
      "chip": "ym2612"
    },
    {
      "channel": 0,
      "note": 45,
      "start": 78.1981,
      "duration": 0.0161,
      "velocity": 115,
      "chip": "ym2612"
    },
    {
      "channel": 5,
      "note": 90,
      "start": 78.1993,
      "duration": 0.0161,
      "velocity": 101,
      "chip": "ym2612"
    },
    {
      "channel": 4,
      "note": 95,
      "start": 78.2007,
      "duration": 0.0159,
      "velocity": 101,
      "chip": "ym2612"
    },
    {
      "channel": 3,
      "note": 99,
      "start": 78.2022,
      "duration": 0.0161,
      "velocity": 101,
      "chip": "ym2612"
    },
    {
      "channel": 2,
      "note": 66,
      "start": 78.2035,
      "duration": 0.016,
      "velocity": 100,
      "chip": "ym2612"
    },
    {
      "channel": 1,
      "note": 105,
      "start": 78.2125,
      "duration": 0.0162,
      "velocity": 105,
      "chip": "ym2612"
    },
    {
      "channel": 0,
      "note": 46,
      "start": 78.2142,
      "duration": 0.0161,
      "velocity": 115,
      "chip": "ym2612"
    },
    {
      "channel": 5,
      "note": 90,
      "start": 78.2154,
      "duration": 0.0161,
      "velocity": 101,
      "chip": "ym2612"
    },
    {
      "channel": 4,
      "note": 95,
      "start": 78.2166,
      "duration": 0.0161,
      "velocity": 101,
      "chip": "ym2612"
    },
    {
      "channel": 3,
      "note": 99,
      "start": 78.2183,
      "duration": 0.0159,
      "velocity": 101,
      "chip": "ym2612"
    },
    {
      "channel": 2,
      "note": 66,
      "start": 78.2195,
      "duration": 0.0161,
      "velocity": 100,
      "chip": "ym2612"
    },
    {
      "channel": 1,
      "note": 105,
      "start": 78.2287,
      "duration": 0.0161,
      "velocity": 105,
      "chip": "ym2612"
    },
    {
      "channel": 0,
      "note": 46,
      "start": 78.2303,
      "duration": 0.0161,
      "velocity": 115,
      "chip": "ym2612"
    },
    {
      "channel": 5,
      "note": 90,
      "start": 78.2315,
      "duration": 0.0161,
      "velocity": 101,
      "chip": "ym2612"
    },
    {
      "channel": 4,
      "note": 95,
      "start": 78.2327,
      "duration": 0.0161,
      "velocity": 101,
      "chip": "ym2612"
    },
    {
      "channel": 3,
      "note": 99,
      "start": 78.2341,
      "duration": 0.0158,
      "velocity": 101,
      "chip": "ym2612"
    },
    {
      "channel": 2,
      "note": 66,
      "start": 78.2357,
      "duration": 0.0162,
      "velocity": 100,
      "chip": "ym2612"
    },
    {
      "channel": 1,
      "note": 105,
      "start": 78.2448,
      "duration": 0.0161,
      "velocity": 105,
      "chip": "ym2612"
    },
    {
      "channel": 0,
      "note": 47,
      "start": 78.2464,
      "duration": 0.0161,
      "velocity": 115,
      "chip": "ym2612"
    },
    {
      "channel": 5,
      "note": 90,
      "start": 78.2476,
      "duration": 0.0161,
      "velocity": 101,
      "chip": "ym2612"
    },
    {
      "channel": 4,
      "note": 95,
      "start": 78.2488,
      "duration": 0.0161,
      "velocity": 101,
      "chip": "ym2612"
    },
    {
      "channel": 3,
      "note": 99,
      "start": 78.25,
      "duration": 0.0161,
      "velocity": 101,
      "chip": "ym2612"
    },
    {
      "channel": 2,
      "note": 66,
      "start": 78.2518,
      "duration": 0.0156,
      "velocity": 100,
      "chip": "ym2612"
    },
    {
      "channel": 1,
      "note": 105,
      "start": 78.2609,
      "duration": 0.0179,
      "velocity": 116,
      "chip": "ym2612"
    },
    {
      "channel": 0,
      "note": 47,
      "start": 78.2625,
      "duration": 0.0198,
      "velocity": 115,
      "chip": "ym2612"
    },
    {
      "channel": 5,
      "note": 90,
      "start": 78.2637,
      "duration": 0.0199,
      "velocity": 101,
      "chip": "ym2612"
    },
    {
      "channel": 4,
      "note": 95,
      "start": 78.2649,
      "duration": 0.0205,
      "velocity": 101,
      "chip": "ym2612"
    },
    {
      "channel": 3,
      "note": 99,
      "start": 78.2661,
      "duration": 0.0206,
      "velocity": 101,
      "chip": "ym2612"
    },
    {
      "channel": 2,
      "note": 66,
      "start": 78.2675,
      "duration": 0.0208,
      "velocity": 100,
      "chip": "ym2612"
    },
    {
      "channel": 1,
      "note": 68,
      "start": 78.2787,
      "duration": 0.0144,
      "velocity": 116,
      "chip": "ym2612"
    },
    {
      "channel": 0,
      "note": 36,
      "start": 78.2823,
      "duration": 0.0126,
      "velocity": 115,
      "chip": "ym2612"
    },
    {
      "channel": 5,
      "note": 90,
      "start": 78.2836,
      "duration": 0.0125,
      "velocity": 101,
      "chip": "ym2612"
    },
    {
      "channel": 4,
      "note": 95,
      "start": 78.2854,
      "duration": 0.0119,
      "velocity": 101,
      "chip": "ym2612"
    },
    {
      "channel": 3,
      "note": 99,
      "start": 78.2867,
      "duration": 0.0119,
      "velocity": 101,
      "chip": "ym2612"
    },
    {
      "channel": 2,
      "note": 54,
      "start": 78.2883,
      "duration": 0.0115,
      "velocity": 100,
      "chip": "ym2612"
    },
    {
      "channel": 1,
      "note": 68,
      "start": 78.2931,
      "duration": 0.016,
      "velocity": 116,
      "chip": "ym2612"
    },
    {
      "channel": 0,
      "note": 36,
      "start": 78.2949,
      "duration": 0.016,
      "velocity": 115,
      "chip": "ym2612"
    },
    {
      "channel": 5,
      "note": 90,
      "start": 78.2961,
      "duration": 0.016,
      "velocity": 101,
      "chip": "ym2612"
    },
    {
      "channel": 4,
      "note": 95,
      "start": 78.2973,
      "duration": 0.016,
      "velocity": 101,
      "chip": "ym2612"
    },
    {
      "channel": 3,
      "note": 99,
      "start": 78.2986,
      "duration": 0.016,
      "velocity": 101,
      "chip": "ym2612"
    },
    {
      "channel": 2,
      "note": 54,
      "start": 78.2998,
      "duration": 0.016,
      "velocity": 100,
      "chip": "ym2612"
    },
    {
      "channel": 1,
      "note": 68,
      "start": 78.3091,
      "duration": 0.0161,
      "velocity": 116,
      "chip": "ym2612"
    },
    {
      "channel": 0,
      "note": 37,
      "start": 78.3109,
      "duration": 0.0161,
      "velocity": 115,
      "chip": "ym2612"
    },
    {
      "channel": 2,
      "note": 54,
      "start": 78.3158,
      "duration": 0.016,
      "velocity": 100,
      "chip": "ym2612"
    },
    {
      "channel": 1,
      "note": 68,
      "start": 78.3252,
      "duration": 0.0161,
      "velocity": 116,
      "chip": "ym2612"
    },
    {
      "channel": 0,
      "note": 37,
      "start": 78.327,
      "duration": 0.0161,
      "velocity": 115,
      "chip": "ym2612"
    },
    {
      "channel": 2,
      "note": 54,
      "start": 78.3318,
      "duration": 0.0162,
      "velocity": 100,
      "chip": "ym2612"
    },
    {
      "channel": 1,
      "note": 68,
      "start": 78.3413,
      "duration": 0.0161,
      "velocity": 116,
      "chip": "ym2612"
    },
    {
      "channel": 0,
      "note": 38,
      "start": 78.3431,
      "duration": 0.0161,
      "velocity": 115,
      "chip": "ym2612"
    },
    {
      "channel": 2,
      "note": 54,
      "start": 78.348,
      "duration": 0.0159,
      "velocity": 100,
      "chip": "ym2612"
    },
    {
      "channel": 1,
      "note": 68,
      "start": 78.3575,
      "duration": 0.0178,
      "velocity": 116,
      "chip": "ym2612"
    },
    {
      "channel": 0,
      "note": 38,
      "start": 78.3591,
      "duration": 0.0179,
      "velocity": 115,
      "chip": "ym2612"
    },
    {
      "channel": 2,
      "note": 54,
      "start": 78.3639,
      "duration": 0.0184,
      "velocity": 100,
      "chip": "ym2612"
    },
    {
      "channel": 1,
      "note": 68,
      "start": 78.3754,
      "duration": 0.0144,
      "velocity": 116,
      "chip": "ym2612"
    },
    {
      "channel": 0,
      "note": 39,
      "start": 78.3771,
      "duration": 0.0144,
      "velocity": 115,
      "chip": "ym2612"
    },
    {
      "channel": 2,
      "note": 54,
      "start": 78.3822,
      "duration": 0.014,
      "velocity": 100,
      "chip": "ym2612"
    },
    {
      "channel": 1,
      "note": 68,
      "start": 78.3898,
      "duration": 0.016,
      "velocity": 116,
      "chip": "ym2612"
    },
    {
      "channel": 0,
      "note": 39,
      "start": 78.3915,
      "duration": 0.016,
      "velocity": 115,
      "chip": "ym2612"
    },
    {
      "channel": 2,
      "note": 54,
      "start": 78.3962,
      "duration": 0.016,
      "velocity": 100,
      "chip": "ym2612"
    },
    {
      "channel": 1,
      "note": 68,
      "start": 78.4058,
      "duration": 0.0161,
      "velocity": 116,
      "chip": "ym2612"
    },
    {
      "channel": 0,
      "note": 40,
      "start": 78.4075,
      "duration": 0.0161,
      "velocity": 115,
      "chip": "ym2612"
    },
    {
      "channel": 2,
      "note": 54,
      "start": 78.4123,
      "duration": 0.0161,
      "velocity": 100,
      "chip": "ym2612"
    },
    {
      "channel": 1,
      "note": 68,
      "start": 78.4219,
      "duration": 0.0161,
      "velocity": 116,
      "chip": "ym2612"
    },
    {
      "channel": 0,
      "note": 40,
      "start": 78.4236,
      "duration": 0.0161,
      "velocity": 115,
      "chip": "ym2612"
    },
    {
      "channel": 2,
      "note": 54,
      "start": 78.4284,
      "duration": 0.0161,
      "velocity": 100,
      "chip": "ym2612"
    },
    {
      "channel": 1,
      "note": 68,
      "start": 78.438,
      "duration": 0.0161,
      "velocity": 116,
      "chip": "ym2612"
    },
    {
      "channel": 0,
      "note": 40,
      "start": 78.4397,
      "duration": 0.0161,
      "velocity": 115,
      "chip": "ym2612"
    },
    {
      "channel": 2,
      "note": 54,
      "start": 78.4444,
      "duration": 0.0161,
      "velocity": 100,
      "chip": "ym2612"
    },
    {
      "channel": 1,
      "note": 68,
      "start": 78.4541,
      "duration": 0.0161,
      "velocity": 116,
      "chip": "ym2612"
    },
    {
      "channel": 0,
      "note": 41,
      "start": 78.4558,
      "duration": 0.0161,
      "velocity": 115,
      "chip": "ym2612"
    },
    {
      "channel": 2,
      "note": 54,
      "start": 78.4605,
      "duration": 0.0163,
      "velocity": 100,
      "chip": "ym2612"
    },
    {
      "channel": 1,
      "note": 68,
      "start": 78.4702,
      "duration": 0.0178,
      "velocity": 105,
      "chip": "ym2612"
    },
    {
      "channel": 0,
      "note": 41,
      "start": 78.4719,
      "duration": 0.0179,
      "velocity": 115,
      "chip": "ym2612"
    },
    {
      "channel": 2,
      "note": 54,
      "start": 78.4769,
      "duration": 0.0189,
      "velocity": 100,
      "chip": "ym2612"
    },
    {
      "channel": 1,
      "note": 105,
      "start": 78.4881,
      "duration": 0.0147,
      "velocity": 105,
      "chip": "ym2612"
    },
    {
      "channel": 0,
      "note": 42,
      "start": 78.4898,
      "duration": 0.0147,
      "velocity": 115,
      "chip": "ym2612"
    },
    {
      "channel": 5,
      "note": 94,
      "start": 78.4913,
      "duration": 0.0144,
      "velocity": 101,
      "chip": "ym2612"
    },
    {
      "channel": 4,
      "note": 97,
      "start": 78.4929,
      "duration": 0.0141,
      "velocity": 101,
      "chip": "ym2612"
    },
    {
      "channel": 3,
      "note": 102,
      "start": 78.4944,
      "duration": 0.0139,
      "velocity": 101,
      "chip": "ym2612"
    },
    {
      "channel": 2,
      "note": 66,
      "start": 78.4959,
      "duration": 0.0136,
      "velocity": 100,
      "chip": "ym2612"
    },
    {
      "channel": 1,
      "note": 105,
      "start": 78.5028,
      "duration": 0.0163,
      "velocity": 105,
      "chip": "ym2612"
    },
    {
      "channel": 0,
      "note": 42,
      "start": 78.5045,
      "duration": 0.0162,
      "velocity": 115,
      "chip": "ym2612"
    },
    {
      "channel": 5,
      "note": 94,
      "start": 78.5058,
      "duration": 0.0161,
      "velocity": 101,
      "chip": "ym2612"
    },
    {
      "channel": 4,
      "note": 97,
      "start": 78.507,
      "duration": 0.0161,
      "velocity": 101,
      "chip": "ym2612"
    },
    {
      "channel": 3,
      "note": 102,
      "start": 78.5083,
      "duration": 0.016,
      "velocity": 101,
      "chip": "ym2612"
    },
    {
      "channel": 2,
      "note": 66,
      "start": 78.5095,
      "duration": 0.016,
      "velocity": 100,
      "chip": "ym2612"
    },
    {
      "channel": 1,
      "note": 105,
      "start": 78.5191,
      "duration": 0.016,
      "velocity": 105,
      "chip": "ym2612"
    },
    {
      "channel": 0,
      "note": 43,
      "start": 78.5207,
      "duration": 0.0161,
      "velocity": 115,
      "chip": "ym2612"
    },
    {
      "channel": 5,
      "note": 94,
      "start": 78.5219,
      "duration": 0.0161,
      "velocity": 101,
      "chip": "ym2612"
    },
    {
      "channel": 4,
      "note": 97,
      "start": 78.5231,
      "duration": 0.0161,
      "velocity": 101,
      "chip": "ym2612"
    },
    {
      "channel": 3,
      "note": 102,
      "start": 78.5243,
      "duration": 0.0161,
      "velocity": 101,
      "chip": "ym2612"
    },
    {
      "channel": 2,
      "note": 66,
      "start": 78.5254,
      "duration": 0.0161,
      "velocity": 100,
      "chip": "ym2612"
    },
    {
      "channel": 1,
      "note": 105,
      "start": 78.5351,
      "duration": 0.0158,
      "velocity": 105,
      "chip": "ym2612"
    },
    {
      "channel": 0,
      "note": 43,
      "start": 78.5368,
      "duration": 0.0161,
      "velocity": 115,
      "chip": "ym2612"
    },
    {
      "channel": 5,
      "note": 94,
      "start": 78.538,
      "duration": 0.0161,
      "velocity": 101,
      "chip": "ym2612"
    },
    {
      "channel": 4,
      "note": 97,
      "start": 78.5392,
      "duration": 0.0161,
      "velocity": 101,
      "chip": "ym2612"
    },
    {
      "channel": 3,
      "note": 102,
      "start": 78.5404,
      "duration": 0.0161,
      "velocity": 101,
      "chip": "ym2612"
    },
    {
      "channel": 2,
      "note": 66,
      "start": 78.5415,
      "duration": 0.0162,
      "velocity": 100,
      "chip": "ym2612"
    },
    {
      "channel": 1,
      "note": 105,
      "start": 78.5509,
      "duration": 0.0159,
      "velocity": 105,
      "chip": "ym2612"
    },
    {
      "channel": 0,
      "note": 44,
      "start": 78.553,
      "duration": 0.0161,
      "velocity": 115,
      "chip": "ym2612"
    },
    {
      "channel": 5,
      "note": 94,
      "start": 78.5541,
      "duration": 0.0161,
      "velocity": 101,
      "chip": "ym2612"
    },
    {
      "channel": 4,
      "note": 97,
      "start": 78.5553,
      "duration": 0.0161,
      "velocity": 101,
      "chip": "ym2612"
    },
    {
      "channel": 3,
      "note": 102,
      "start": 78.5565,
      "duration": 0.016,
      "velocity": 101,
      "chip": "ym2612"
    },
    {
      "channel": 2,
      "note": 66,
      "start": 78.5577,
      "duration": 0.0161,
      "velocity": 100,
      "chip": "ym2612"
    },
    {
      "channel": 1,
      "note": 105,
      "start": 78.5668,
      "duration": 0.0161,
      "velocity": 105,
      "chip": "ym2612"
    },
    {
      "channel": 0,
      "note": 44,
      "start": 78.5691,
      "duration": 0.016,
      "velocity": 115,
      "chip": "ym2612"
    },
    {
      "channel": 5,
      "note": 94,
      "start": 78.5702,
      "duration": 0.0161,
      "velocity": 101,
      "chip": "ym2612"
    },
    {
      "channel": 4,
      "note": 97,
      "start": 78.5714,
      "duration": 0.0161,
      "velocity": 101,
      "chip": "ym2612"
    },
    {
      "channel": 3,
      "note": 102,
      "start": 78.5726,
      "duration": 0.0162,
      "velocity": 101,
      "chip": "ym2612"
    },
    {
      "channel": 2,
      "note": 66,
      "start": 78.5738,
      "duration": 0.0161,
      "velocity": 100,
      "chip": "ym2612"
    },
    {
      "channel": 1,
      "note": 105,
      "start": 78.5829,
      "duration": 0.0161,
      "velocity": 105,
      "chip": "ym2612"
    },
    {
      "channel": 0,
      "note": 44,
      "start": 78.5851,
      "duration": 0.0158,
      "velocity": 115,
      "chip": "ym2612"
    },
    {
      "channel": 5,
      "note": 94,
      "start": 78.5863,
      "duration": 0.0162,
      "velocity": 101,
      "chip": "ym2612"
    },
    {
      "channel": 4,
      "note": 97,
      "start": 78.5875,
      "duration": 0.0161,
      "velocity": 101,
      "chip": "ym2612"
    },
    {
      "channel": 3,
      "note": 102,
      "start": 78.5887,
      "duration": 0.0161,
      "velocity": 101,
      "chip": "ym2612"
    },
    {
      "channel": 2,
      "note": 66,
      "start": 78.5899,
      "duration": 0.0161,
      "velocity": 100,
      "chip": "ym2612"
    },
    {
      "channel": 1,
      "note": 105,
      "start": 78.599,
      "duration": 0.0161,
      "velocity": 105,
      "chip": "ym2612"
    },
    {
      "channel": 0,
      "note": 45,
      "start": 78.6009,
      "duration": 0.0159,
      "velocity": 115,
      "chip": "ym2612"
    },
    {
      "channel": 5,
      "note": 94,
      "start": 78.6025,
      "duration": 0.016,
      "velocity": 101,
      "chip": "ym2612"
    },
    {
      "channel": 4,
      "note": 97,
      "start": 78.6036,
      "duration": 0.0162,
      "velocity": 101,
      "chip": "ym2612"
    },
    {
      "channel": 3,
      "note": 102,
      "start": 78.6048,
      "duration": 0.0161,
      "velocity": 101,
      "chip": "ym2612"
    },
    {
      "channel": 2,
      "note": 66,
      "start": 78.606,
      "duration": 0.0161,
      "velocity": 100,
      "chip": "ym2612"
    },
    {
      "channel": 1,
      "note": 105,
      "start": 78.6151,
      "duration": 0.0161,
      "velocity": 105,
      "chip": "ym2612"
    },
    {
      "channel": 0,
      "note": 45,
      "start": 78.6168,
      "duration": 0.0161,
      "velocity": 115,
      "chip": "ym2612"
    },
    {
      "channel": 5,
      "note": 94,
      "start": 78.6185,
      "duration": 0.0158,
      "velocity": 101,
      "chip": "ym2612"
    },
    {
      "channel": 4,
      "note": 97,
      "start": 78.6198,
      "duration": 0.016,
      "velocity": 101,
      "chip": "ym2612"
    },
    {
      "channel": 3,
      "note": 102,
      "start": 78.6209,
      "duration": 0.0161,
      "velocity": 101,
      "chip": "ym2612"
    },
    {
      "channel": 2,
      "note": 66,
      "start": 78.6221,
      "duration": 0.016,
      "velocity": 100,
      "chip": "ym2612"
    },
    {
      "channel": 1,
      "note": 105,
      "start": 78.6312,
      "duration": 0.0161,
      "velocity": 105,
      "chip": "ym2612"
    },
    {
      "channel": 0,
      "note": 46,
      "start": 78.6329,
      "duration": 0.0161,
      "velocity": 115,
      "chip": "ym2612"
    },
    {
      "channel": 5,
      "note": 94,
      "start": 78.6343,
      "duration": 0.0159,
      "velocity": 101,
      "chip": "ym2612"
    },
    {
      "channel": 4,
      "note": 97,
      "start": 78.6358,
      "duration": 0.0161,
      "velocity": 101,
      "chip": "ym2612"
    },
    {
      "channel": 3,
      "note": 102,
      "start": 78.637,
      "duration": 0.0161,
      "velocity": 101,
      "chip": "ym2612"
    },
    {
      "channel": 2,
      "note": 66,
      "start": 78.6382,
      "duration": 0.0161,
      "velocity": 100,
      "chip": "ym2612"
    },
    {
      "channel": 1,
      "note": 105,
      "start": 78.6473,
      "duration": 0.0161,
      "velocity": 105,
      "chip": "ym2612"
    },
    {
      "channel": 0,
      "note": 46,
      "start": 78.649,
      "duration": 0.0161,
      "velocity": 115,
      "chip": "ym2612"
    },
    {
      "channel": 5,
      "note": 94,
      "start": 78.6502,
      "duration": 0.0161,
      "velocity": 101,
      "chip": "ym2612"
    },
    {
      "channel": 4,
      "note": 97,
      "start": 78.6519,
      "duration": 0.0158,
      "velocity": 101,
      "chip": "ym2612"
    },
    {
      "channel": 3,
      "note": 102,
      "start": 78.6531,
      "duration": 0.0161,
      "velocity": 101,
      "chip": "ym2612"
    },
    {
      "channel": 2,
      "note": 66,
      "start": 78.6542,
      "duration": 0.0162,
      "velocity": 100,
      "chip": "ym2612"
    },
    {
      "channel": 1,
      "note": 105,
      "start": 78.6633,
      "duration": 0.0162,
      "velocity": 105,
      "chip": "ym2612"
    },
    {
      "channel": 0,
      "note": 47,
      "start": 78.6651,
      "duration": 0.0161,
      "velocity": 115,
      "chip": "ym2612"
    },
    {
      "channel": 5,
      "note": 94,
      "start": 78.6663,
      "duration": 0.0161,
      "velocity": 101,
      "chip": "ym2612"
    },
    {
      "channel": 4,
      "note": 97,
      "start": 78.6677,
      "duration": 0.0159,
      "velocity": 101,
      "chip": "ym2612"
    },
    {
      "channel": 3,
      "note": 102,
      "start": 78.6692,
      "duration": 0.0161,
      "velocity": 101,
      "chip": "ym2612"
    },
    {
      "channel": 2,
      "note": 66,
      "start": 78.6705,
      "duration": 0.016,
      "velocity": 100,
      "chip": "ym2612"
    },
    {
      "channel": 1,
      "note": 105,
      "start": 78.6795,
      "duration": 0.0178,
      "velocity": 124,
      "chip": "ym2612"
    },
    {
      "channel": 0,
      "note": 47,
      "start": 78.6812,
      "duration": 0.0202,
      "velocity": 115,
      "chip": "ym2612"
    },
    {
      "channel": 5,
      "note": 94,
      "start": 78.6824,
      "duration": 0.0204,
      "velocity": 101,
      "chip": "ym2612"
    },
    {
      "channel": 4,
      "note": 97,
      "start": 78.6836,
      "duration": 0.0203,
      "velocity": 101,
      "chip": "ym2612"
    },
    {
      "channel": 3,
      "note": 102,
      "start": 78.6854,
      "duration": 0.0198,
      "velocity": 101,
      "chip": "ym2612"
    },
    {
      "channel": 2,
      "note": 66,
      "start": 78.6865,
      "duration": 0.0202,
      "velocity": 100,
      "chip": "ym2612"
    },
    {
      "channel": 1,
      "note": 64,
      "start": 78.6974,
      "duration": 0.0144,
      "velocity": 124,
      "chip": "ym2612"
    },
    {
      "channel": 0,
      "note": 36,
      "start": 78.7015,
      "duration": 0.0121,
      "velocity": 115,
      "chip": "ym2612"
    },
    {
      "channel": 5,
      "note": 94,
      "start": 78.7027,
      "duration": 0.012,
      "velocity": 101,
      "chip": "ym2612"
    },
    {
      "channel": 4,
      "note": 97,
      "start": 78.7039,
      "duration": 0.012,
      "velocity": 101,
      "chip": "ym2612"
    },
    {
      "channel": 3,
      "note": 102,
      "start": 78.7051,
      "duration": 0.0122,
      "velocity": 101,
      "chip": "ym2612"
    },
    {
      "channel": 2,
      "note": 54,
      "start": 78.7067,
      "duration": 0.0122,
      "velocity": 100,
      "chip": "ym2612"
    },
    {
      "channel": 1,
      "note": 64,
      "start": 78.7117,
      "duration": 0.016,
      "velocity": 124,
      "chip": "ym2612"
    },
    {
      "channel": 0,
      "note": 36,
      "start": 78.7135,
      "duration": 0.016,
      "velocity": 115,
      "chip": "ym2612"
    },
    {
      "channel": 5,
      "note": 94,
      "start": 78.7147,
      "duration": 0.016,
      "velocity": 101,
      "chip": "ym2612"
    },
    {
      "channel": 4,
      "note": 97,
      "start": 78.7159,
      "duration": 0.016,
      "velocity": 101,
      "chip": "ym2612"
    },
    {
      "channel": 3,
      "note": 102,
      "start": 78.7173,
      "duration": 0.0158,
      "velocity": 101,
      "chip": "ym2612"
    },
    {
      "channel": 2,
      "note": 54,
      "start": 78.7189,
      "duration": 0.0159,
      "velocity": 100,
      "chip": "ym2612"
    },
    {
      "channel": 1,
      "note": 64,
      "start": 78.7278,
      "duration": 0.0161,
      "velocity": 124,
      "chip": "ym2612"
    },
    {
      "channel": 0,
      "note": 37,
      "start": 78.7295,
      "duration": 0.0161,
      "velocity": 115,
      "chip": "ym2612"
    },
    {
      "channel": 5,
      "note": 94,
      "start": 78.7307,
      "duration": 0.0161,
      "velocity": 101,
      "chip": "ym2612"
    },
    {
      "channel": 4,
      "note": 97,
      "start": 78.7319,
      "duration": 0.0161,
      "velocity": 101,
      "chip": "ym2612"
    },
    {
      "channel": 3,
      "note": 102,
      "start": 78.7331,
      "duration": 0.0161,
      "velocity": 101,
      "chip": "ym2612"
    },
    {
      "channel": 2,
      "note": 54,
      "start": 78.7348,
      "duration": 0.0156,
      "velocity": 100,
      "chip": "ym2612"
    },
    {
      "channel": 1,
      "note": 64,
      "start": 78.7439,
      "duration": 0.0161,
      "velocity": 124,
      "chip": "ym2612"
    },
    {
      "channel": 0,
      "note": 37,
      "start": 78.7456,
      "duration": 0.0161,
      "velocity": 115,
      "chip": "ym2612"
    },
    {
      "channel": 5,
      "note": 94,
      "start": 78.7468,
      "duration": 0.0161,
      "velocity": 101,
      "chip": "ym2612"
    },
    {
      "channel": 4,
      "note": 97,
      "start": 78.748,
      "duration": 0.0161,
      "velocity": 101,
      "chip": "ym2612"
    },
    {
      "channel": 3,
      "note": 102,
      "start": 78.7492,
      "duration": 0.0161,
      "velocity": 101,
      "chip": "ym2612"
    },
    {
      "channel": 2,
      "note": 54,
      "start": 78.7504,
      "duration": 0.0161,
      "velocity": 100,
      "chip": "ym2612"
    },
    {
      "channel": 1,
      "note": 64,
      "start": 78.76,
      "duration": 0.0161,
      "velocity": 124,
      "chip": "ym2612"
    },
    {
      "channel": 0,
      "note": 38,
      "start": 78.7617,
      "duration": 0.0161,
      "velocity": 115,
      "chip": "ym2612"
    },
    {
      "channel": 5,
      "note": 94,
      "start": 78.7629,
      "duration": 0.0161,
      "velocity": 101,
      "chip": "ym2612"
    },
    {
      "channel": 4,
      "note": 97,
      "start": 78.7641,
      "duration": 0.0161,
      "velocity": 101,
      "chip": "ym2612"
    },
    {
      "channel": 3,
      "note": 102,
      "start": 78.7653,
      "duration": 0.0161,
      "velocity": 101,
      "chip": "ym2612"
    },
    {
      "channel": 2,
      "note": 54,
      "start": 78.7665,
      "duration": 0.0161,
      "velocity": 100,
      "chip": "ym2612"
    },
    {
      "channel": 1,
      "note": 64,
      "start": 78.7761,
      "duration": 0.0161,
      "velocity": 124,
      "chip": "ym2612"
    },
    {
      "channel": 0,
      "note": 38,
      "start": 78.7778,
      "duration": 0.0161,
      "velocity": 115,
      "chip": "ym2612"
    },
    {
      "channel": 5,
      "note": 94,
      "start": 78.779,
      "duration": 0.0161,
      "velocity": 101,
      "chip": "ym2612"
    },
    {
      "channel": 4,
      "note": 97,
      "start": 78.7802,
      "duration": 0.0161,
      "velocity": 101,
      "chip": "ym2612"
    },
    {
      "channel": 3,
      "note": 102,
      "start": 78.7814,
      "duration": 0.0161,
      "velocity": 101,
      "chip": "ym2612"
    },
    {
      "channel": 2,
      "note": 54,
      "start": 78.7826,
      "duration": 0.0161,
      "velocity": 100,
      "chip": "ym2612"
    },
    {
      "channel": 1,
      "note": 64,
      "start": 78.7922,
      "duration": 0.0162,
      "velocity": 124,
      "chip": "ym2612"
    },
    {
      "channel": 0,
      "note": 39,
      "start": 78.7939,
      "duration": 0.0161,
      "velocity": 115,
      "chip": "ym2612"
    },
    {
      "channel": 5,
      "note": 94,
      "start": 78.7951,
      "duration": 0.0161,
      "velocity": 101,
      "chip": "ym2612"
    },
    {
      "channel": 4,
      "note": 97,
      "start": 78.7963,
      "duration": 0.0161,
      "velocity": 101,
      "chip": "ym2612"
    },
    {
      "channel": 3,
      "note": 102,
      "start": 78.7975,
      "duration": 0.0161,
      "velocity": 101,
      "chip": "ym2612"
    },
    {
      "channel": 2,
      "note": 54,
      "start": 78.7986,
      "duration": 0.0161,
      "velocity": 100,
      "chip": "ym2612"
    },
    {
      "channel": 1,
      "note": 64,
      "start": 78.8083,
      "duration": 0.0161,
      "velocity": 124,
      "chip": "ym2612"
    },
    {
      "channel": 0,
      "note": 39,
      "start": 78.81,
      "duration": 0.0161,
      "velocity": 115,
      "chip": "ym2612"
    },
    {
      "channel": 5,
      "note": 94,
      "start": 78.8112,
      "duration": 0.0162,
      "velocity": 101,
      "chip": "ym2612"
    },
    {
      "channel": 4,
      "note": 97,
      "start": 78.8124,
      "duration": 0.0162,
      "velocity": 101,
      "chip": "ym2612"
    },
    {
      "channel": 3,
      "note": 102,
      "start": 78.8136,
      "duration": 0.0161,
      "velocity": 101,
      "chip": "ym2612"
    },
    {
      "channel": 2,
      "note": 54,
      "start": 78.8147,
      "duration": 0.0162,
      "velocity": 100,
      "chip": "ym2612"
    },
    {
      "channel": 1,
      "note": 64,
      "start": 78.8244,
      "duration": 0.0161,
      "velocity": 124,
      "chip": "ym2612"
    },
    {
      "channel": 0,
      "note": 40,
      "start": 78.8261,
      "duration": 0.0161,
      "velocity": 115,
      "chip": "ym2612"
    },
    {
      "channel": 5,
      "note": 94,
      "start": 78.8273,
      "duration": 0.0161,
      "velocity": 101,
      "chip": "ym2612"
    },
    {
      "channel": 4,
      "note": 97,
      "start": 78.8285,
      "duration": 0.0161,
      "velocity": 101,
      "chip": "ym2612"
    },
    {
      "channel": 3,
      "note": 102,
      "start": 78.8298,
      "duration": 0.0161,
      "velocity": 101,
      "chip": "ym2612"
    },
    {
      "channel": 2,
      "note": 54,
      "start": 78.8309,
      "duration": 0.0161,
      "velocity": 100,
      "chip": "ym2612"
    },
    {
      "channel": 1,
      "note": 64,
      "start": 78.8405,
      "duration": 0.0161,
      "velocity": 124,
      "chip": "ym2612"
    },
    {
      "channel": 0,
      "note": 40,
      "start": 78.8422,
      "duration": 0.0161,
      "velocity": 115,
      "chip": "ym2612"
    },
    {
      "channel": 5,
      "note": 94,
      "start": 78.8434,
      "duration": 0.0161,
      "velocity": 101,
      "chip": "ym2612"
    },
    {
      "channel": 4,
      "note": 97,
      "start": 78.8446,
      "duration": 0.0161,
      "velocity": 101,
      "chip": "ym2612"
    },
    {
      "channel": 3,
      "note": 102,
      "start": 78.8459,
      "duration": 0.0161,
      "velocity": 101,
      "chip": "ym2612"
    },
    {
      "channel": 2,
      "note": 54,
      "start": 78.847,
      "duration": 0.0161,
      "velocity": 100,
      "chip": "ym2612"
    },
    {
      "channel": 1,
      "note": 64,
      "start": 78.8566,
      "duration": 0.0161,
      "velocity": 124,
      "chip": "ym2612"
    },
    {
      "channel": 0,
      "note": 40,
      "start": 78.8583,
      "duration": 0.0161,
      "velocity": 115,
      "chip": "ym2612"
    },
    {
      "channel": 5,
      "note": 94,
      "start": 78.8595,
      "duration": 0.0161,
      "velocity": 101,
      "chip": "ym2612"
    },
    {
      "channel": 4,
      "note": 97,
      "start": 78.8607,
      "duration": 0.0161,
      "velocity": 101,
      "chip": "ym2612"
    },
    {
      "channel": 3,
      "note": 102,
      "start": 78.862,
      "duration": 0.0161,
      "velocity": 101,
      "chip": "ym2612"
    },
    {
      "channel": 2,
      "note": 54,
      "start": 78.8631,
      "duration": 0.0161,
      "velocity": 100,
      "chip": "ym2612"
    },
    {
      "channel": 1,
      "note": 64,
      "start": 78.8727,
      "duration": 0.0161,
      "velocity": 124,
      "chip": "ym2612"
    },
    {
      "channel": 0,
      "note": 41,
      "start": 78.8744,
      "duration": 0.0161,
      "velocity": 115,
      "chip": "ym2612"
    },
    {
      "channel": 5,
      "note": 94,
      "start": 78.8756,
      "duration": 0.0161,
      "velocity": 101,
      "chip": "ym2612"
    },
    {
      "channel": 4,
      "note": 97,
      "start": 78.8768,
      "duration": 0.0161,
      "velocity": 101,
      "chip": "ym2612"
    },
    {
      "channel": 3,
      "note": 102,
      "start": 78.878,
      "duration": 0.0161,
      "velocity": 101,
      "chip": "ym2612"
    },
    {
      "channel": 2,
      "note": 54,
      "start": 78.8792,
      "duration": 0.0161,
      "velocity": 100,
      "chip": "ym2612"
    },
    {
      "channel": 1,
      "note": 64,
      "start": 78.8888,
      "duration": 0.0178,
      "velocity": 105,
      "chip": "ym2612"
    },
    {
      "channel": 0,
      "note": 41,
      "start": 78.8905,
      "duration": 0.0179,
      "velocity": 115,
      "chip": "ym2612"
    },
    {
      "channel": 5,
      "note": 94,
      "start": 78.8917,
      "duration": 0.0179,
      "velocity": 101,
      "chip": "ym2612"
    },
    {
      "channel": 4,
      "note": 97,
      "start": 78.8929,
      "duration": 0.0179,
      "velocity": 101,
      "chip": "ym2612"
    },
    {
      "channel": 3,
      "note": 102,
      "start": 78.8941,
      "duration": 0.0179,
      "velocity": 101,
      "chip": "ym2612"
    },
    {
      "channel": 2,
      "note": 54,
      "start": 78.8953,
      "duration": 0.0181,
      "velocity": 100,
      "chip": "ym2612"
    },
    {
      "channel": 1,
      "note": 105,
      "start": 78.9067,
      "duration": 0.0144,
      "velocity": 105,
      "chip": "ym2612"
    },
    {
      "channel": 0,
      "note": 42,
      "start": 78.9084,
      "duration": 0.0144,
      "velocity": 115,
      "chip": "ym2612"
    },
    {
      "channel": 5,
      "note": 94,
      "start": 78.9096,
      "duration": 0.0144,
      "velocity": 101,
      "chip": "ym2612"
    },
    {
      "channel": 4,
      "note": 97,
      "start": 78.9108,
      "duration": 0.0144,
      "velocity": 101,
      "chip": "ym2612"
    },
    {
      "channel": 3,
      "note": 102,
      "start": 78.912,
      "duration": 0.0144,
      "velocity": 101,
      "chip": "ym2612"
    },
    {
      "channel": 2,
      "note": 66,
      "start": 78.9135,
      "duration": 0.0141,
      "velocity": 100,
      "chip": "ym2612"
    },
    {
      "channel": 1,
      "note": 105,
      "start": 78.921,
      "duration": 0.016,
      "velocity": 105,
      "chip": "ym2612"
    },
    {
      "channel": 0,
      "note": 42,
      "start": 78.9228,
      "duration": 0.016,
      "velocity": 115,
      "chip": "ym2612"
    },
    {
      "channel": 5,
      "note": 94,
      "start": 78.924,
      "duration": 0.016,
      "velocity": 101,
      "chip": "ym2612"
    },
    {
      "channel": 4,
      "note": 97,
      "start": 78.9252,
      "duration": 0.016,
      "velocity": 101,
      "chip": "ym2612"
    },
    {
      "channel": 3,
      "note": 102,
      "start": 78.9264,
      "duration": 0.016,
      "velocity": 101,
      "chip": "ym2612"
    },
    {
      "channel": 2,
      "note": 66,
      "start": 78.9276,
      "duration": 0.016,
      "velocity": 100,
      "chip": "ym2612"
    },
    {
      "channel": 1,
      "note": 105,
      "start": 78.9371,
      "duration": 0.0161,
      "velocity": 105,
      "chip": "ym2612"
    },
    {
      "channel": 0,
      "note": 43,
      "start": 78.9388,
      "duration": 0.0161,
      "velocity": 115,
      "chip": "ym2612"
    },
    {
      "channel": 5,
      "note": 94,
      "start": 78.94,
      "duration": 0.0161,
      "velocity": 101,
      "chip": "ym2612"
    },
    {
      "channel": 4,
      "note": 97,
      "start": 78.9412,
      "duration": 0.0162,
      "velocity": 101,
      "chip": "ym2612"
    },
    {
      "channel": 3,
      "note": 102,
      "start": 78.9424,
      "duration": 0.0162,
      "velocity": 101,
      "chip": "ym2612"
    },
    {
      "channel": 2,
      "note": 66,
      "start": 78.9436,
      "duration": 0.0162,
      "velocity": 100,
      "chip": "ym2612"
    },
    {
      "channel": 1,
      "note": 105,
      "start": 78.9532,
      "duration": 0.0163,
      "velocity": 105,
      "chip": "ym2612"
    },
    {
      "channel": 0,
      "note": 43,
      "start": 78.9549,
      "duration": 0.0162,
      "velocity": 115,
      "chip": "ym2612"
    },
    {
      "channel": 5,
      "note": 94,
      "start": 78.9561,
      "duration": 0.0162,
      "velocity": 101,
      "chip": "ym2612"
    },
    {
      "channel": 4,
      "note": 97,
      "start": 78.9574,
      "duration": 0.0161,
      "velocity": 101,
      "chip": "ym2612"
    },
    {
      "channel": 3,
      "note": 102,
      "start": 78.9586,
      "duration": 0.0161,
      "velocity": 101,
      "chip": "ym2612"
    },
    {
      "channel": 2,
      "note": 66,
      "start": 78.9598,
      "duration": 0.0162,
      "velocity": 100,
      "chip": "ym2612"
    },
    {
      "channel": 1,
      "note": 105,
      "start": 78.9695,
      "duration": 0.0163,
      "velocity": 105,
      "chip": "ym2612"
    },
    {
      "channel": 0,
      "note": 44,
      "start": 78.9712,
      "duration": 0.0163,
      "velocity": 115,
      "chip": "ym2612"
    },
    {
      "channel": 5,
      "note": 94,
      "start": 78.9724,
      "duration": 0.0163,
      "velocity": 101,
      "chip": "ym2612"
    },
    {
      "channel": 4,
      "note": 97,
      "start": 78.9736,
      "duration": 0.0163,
      "velocity": 101,
      "chip": "ym2612"
    },
    {
      "channel": 3,
      "note": 102,
      "start": 78.9748,
      "duration": 0.0163,
      "velocity": 101,
      "chip": "ym2612"
    },
    {
      "channel": 2,
      "note": 66,
      "start": 78.9759,
      "duration": 0.0163,
      "velocity": 100,
      "chip": "ym2612"
    },
    {
      "channel": 1,
      "note": 105,
      "start": 78.9858,
      "duration": 0.0162,
      "velocity": 105,
      "chip": "ym2612"
    },
    {
      "channel": 0,
      "note": 44,
      "start": 78.9875,
      "duration": 0.0163,
      "velocity": 115,
      "chip": "ym2612"
    },
    {
      "channel": 5,
      "note": 94,
      "start": 78.9887,
      "duration": 0.0163,
      "velocity": 101,
      "chip": "ym2612"
    },
    {
      "channel": 4,
      "note": 97,
      "start": 78.9899,
      "duration": 0.0163,
      "velocity": 101,
      "chip": "ym2612"
    },
    {
      "channel": 3,
      "note": 102,
      "start": 78.9911,
      "duration": 0.0163,
      "velocity": 101,
      "chip": "ym2612"
    },
    {
      "channel": 2,
      "note": 66,
      "start": 78.9923,
      "duration": 0.0163,
      "velocity": 100,
      "chip": "ym2612"
    },
    {
      "channel": 1,
      "note": 105,
      "start": 79.002,
      "duration": 0.0161,
      "velocity": 105,
      "chip": "ym2612"
    },
    {
      "channel": 0,
      "note": 44,
      "start": 79.0038,
      "duration": 0.0161,
      "velocity": 115,
      "chip": "ym2612"
    },
    {
      "channel": 5,
      "note": 94,
      "start": 79.005,
      "duration": 0.0161,
      "velocity": 101,
      "chip": "ym2612"
    },
    {
      "channel": 4,
      "note": 97,
      "start": 79.0062,
      "duration": 0.0161,
      "velocity": 101,
      "chip": "ym2612"
    },
    {
      "channel": 3,
      "note": 102,
      "start": 79.0074,
      "duration": 0.0161,
      "velocity": 101,
      "chip": "ym2612"
    },
    {
      "channel": 2,
      "note": 66,
      "start": 79.0086,
      "duration": 0.0161,
      "velocity": 100,
      "chip": "ym2612"
    },
    {
      "channel": 1,
      "note": 105,
      "start": 79.0181,
      "duration": 0.0156,
      "velocity": 105,
      "chip": "ym2612"
    },
    {
      "channel": 0,
      "note": 45,
      "start": 79.0199,
      "duration": 0.0161,
      "velocity": 115,
      "chip": "ym2612"
    },
    {
      "channel": 5,
      "note": 94,
      "start": 79.0211,
      "duration": 0.0161,
      "velocity": 101,
      "chip": "ym2612"
    },
    {
      "channel": 4,
      "note": 97,
      "start": 79.0223,
      "duration": 0.0161,
      "velocity": 101,
      "chip": "ym2612"
    },
    {
      "channel": 3,
      "note": 102,
      "start": 79.0235,
      "duration": 0.0161,
      "velocity": 101,
      "chip": "ym2612"
    },
    {
      "channel": 2,
      "note": 66,
      "start": 79.0247,
      "duration": 0.0161,
      "velocity": 100,
      "chip": "ym2612"
    },
    {
      "channel": 1,
      "note": 105,
      "start": 79.0337,
      "duration": 0.0161,
      "velocity": 105,
      "chip": "ym2612"
    },
    {
      "channel": 0,
      "note": 45,
      "start": 79.036,
      "duration": 0.0161,
      "velocity": 115,
      "chip": "ym2612"
    },
    {
      "channel": 5,
      "note": 94,
      "start": 79.0372,
      "duration": 0.0161,
      "velocity": 101,
      "chip": "ym2612"
    },
    {
      "channel": 4,
      "note": 97,
      "start": 79.0384,
      "duration": 0.0161,
      "velocity": 101,
      "chip": "ym2612"
    },
    {
      "channel": 3,
      "note": 102,
      "start": 79.0396,
      "duration": 0.0161,
      "velocity": 101,
      "chip": "ym2612"
    },
    {
      "channel": 2,
      "note": 66,
      "start": 79.0408,
      "duration": 0.016,
      "velocity": 100,
      "chip": "ym2612"
    },
    {
      "channel": 1,
      "note": 105,
      "start": 79.0498,
      "duration": 0.0161,
      "velocity": 105,
      "chip": "ym2612"
    },
    {
      "channel": 0,
      "note": 46,
      "start": 79.0521,
      "duration": 0.016,
      "velocity": 115,
      "chip": "ym2612"
    },
    {
      "channel": 5,
      "note": 94,
      "start": 79.0533,
      "duration": 0.0161,
      "velocity": 101,
      "chip": "ym2612"
    },
    {
      "channel": 4,
      "note": 97,
      "start": 79.0545,
      "duration": 0.0161,
      "velocity": 101,
      "chip": "ym2612"
    },
    {
      "channel": 3,
      "note": 102,
      "start": 79.0557,
      "duration": 0.0161,
      "velocity": 101,
      "chip": "ym2612"
    },
    {
      "channel": 2,
      "note": 66,
      "start": 79.0568,
      "duration": 0.0161,
      "velocity": 100,
      "chip": "ym2612"
    },
    {
      "channel": 1,
      "note": 105,
      "start": 79.0659,
      "duration": 0.0161,
      "velocity": 105,
      "chip": "ym2612"
    },
    {
      "channel": 0,
      "note": 46,
      "start": 79.0681,
      "duration": 0.0156,
      "velocity": 115,
      "chip": "ym2612"
    },
    {
      "channel": 5,
      "note": 94,
      "start": 79.0694,
      "duration": 0.0161,
      "velocity": 101,
      "chip": "ym2612"
    },
    {
      "channel": 4,
      "note": 97,
      "start": 79.0706,
      "duration": 0.0162,
      "velocity": 101,
      "chip": "ym2612"
    },
    {
      "channel": 3,
      "note": 102,
      "start": 79.0718,
      "duration": 0.0161,
      "velocity": 101,
      "chip": "ym2612"
    },
    {
      "channel": 2,
      "note": 66,
      "start": 79.0729,
      "duration": 0.0163,
      "velocity": 100,
      "chip": "ym2612"
    },
    {
      "channel": 1,
      "note": 105,
      "start": 79.082,
      "duration": 0.0161,
      "velocity": 105,
      "chip": "ym2612"
    },
    {
      "channel": 0,
      "note": 47,
      "start": 79.0837,
      "duration": 0.0161,
      "velocity": 115,
      "chip": "ym2612"
    },
    {
      "channel": 5,
      "note": 94,
      "start": 79.0855,
      "duration": 0.0161,
      "velocity": 101,
      "chip": "ym2612"
    },
    {
      "channel": 4,
      "note": 97,
      "start": 79.0868,
      "duration": 0.0161,
      "velocity": 101,
      "chip": "ym2612"
    },
    {
      "channel": 3,
      "note": 102,
      "start": 79.088,
      "duration": 0.0161,
      "velocity": 101,
      "chip": "ym2612"
    },
    {
      "channel": 2,
      "note": 66,
      "start": 79.0892,
      "duration": 0.016,
      "velocity": 100,
      "chip": "ym2612"
    },
    {
      "channel": 1,
      "note": 105,
      "start": 79.0981,
      "duration": 0.0185,
      "velocity": 124,
      "chip": "ym2612"
    },
    {
      "channel": 0,
      "note": 47,
      "start": 79.0998,
      "duration": 0.0209,
      "velocity": 115,
      "chip": "ym2612"
    },
    {
      "channel": 5,
      "note": 94,
      "start": 79.1016,
      "duration": 0.0204,
      "velocity": 101,
      "chip": "ym2612"
    },
    {
      "channel": 4,
      "note": 97,
      "start": 79.1029,
      "duration": 0.0203,
      "velocity": 101,
      "chip": "ym2612"
    },
    {
      "channel": 3,
      "note": 102,
      "start": 79.1041,
      "duration": 0.0203,
      "velocity": 101,
      "chip": "ym2612"
    },
    {
      "channel": 2,
      "note": 66,
      "start": 79.1052,
      "duration": 0.0207,
      "velocity": 100,
      "chip": "ym2612"
    },
    {
      "channel": 1,
      "note": 84,
      "start": 79.1166,
      "duration": 0.0143,
      "velocity": 124,
      "chip": "ym2612"
    },
    {
      "channel": 0,
      "note": 36,
      "start": 79.1207,
      "duration": 0.012,
      "velocity": 115,
      "chip": "ym2612"
    },
    {
      "channel": 5,
      "note": 94,
      "start": 79.1219,
      "duration": 0.0122,
      "velocity": 101,
      "chip": "ym2612"
    },
    {
      "channel": 4,
      "note": 97,
      "start": 79.1231,
      "duration": 0.0126,
      "velocity": 101,
      "chip": "ym2612"
    },
    {
      "channel": 3,
      "note": 102,
      "start": 79.1244,
      "duration": 0.0126,
      "velocity": 101,
      "chip": "ym2612"
    },
    {
      "channel": 2,
      "note": 54,
      "start": 79.1259,
      "duration": 0.0122,
      "velocity": 100,
      "chip": "ym2612"
    },
    {
      "channel": 1,
      "note": 82,
      "start": 79.1309,
      "duration": 0.0161,
      "velocity": 124,
      "chip": "ym2612"
    },
    {
      "channel": 0,
      "note": 36,
      "start": 79.1327,
      "duration": 0.016,
      "velocity": 115,
      "chip": "ym2612"
    },
    {
      "channel": 5,
      "note": 94,
      "start": 79.1341,
      "duration": 0.0157,
      "velocity": 101,
      "chip": "ym2612"
    },
    {
      "channel": 4,
      "note": 97,
      "start": 79.1357,
      "duration": 0.0159,
      "velocity": 101,
      "chip": "ym2612"
    },
    {
      "channel": 3,
      "note": 102,
      "start": 79.1369,
      "duration": 0.016,
      "velocity": 101,
      "chip": "ym2612"
    },
    {
      "channel": 2,
      "note": 54,
      "start": 79.1382,
      "duration": 0.0159,
      "velocity": 100,
      "chip": "ym2612"
    },
    {
      "channel": 1,
      "note": 80,
      "start": 79.147,
      "duration": 0.0161,
      "velocity": 124,
      "chip": "ym2612"
    },
    {
      "channel": 0,
      "note": 37,
      "start": 79.1486,
      "duration": 0.0162,
      "velocity": 115,
      "chip": "ym2612"
    },
    {
      "channel": 5,
      "note": 94,
      "start": 79.1499,
      "duration": 0.0161,
      "velocity": 101,
      "chip": "ym2612"
    },
    {
      "channel": 4,
      "note": 97,
      "start": 79.1516,
      "duration": 0.0158,
      "velocity": 101,
      "chip": "ym2612"
    },
    {
      "channel": 3,
      "note": 102,
      "start": 79.1529,
      "duration": 0.0161,
      "velocity": 101,
      "chip": "ym2612"
    },
    {
      "channel": 2,
      "note": 54,
      "start": 79.1541,
      "duration": 0.0161,
      "velocity": 100,
      "chip": "ym2612"
    },
    {
      "channel": 1,
      "note": 77,
      "start": 79.1631,
      "duration": 0.0161,
      "velocity": 124,
      "chip": "ym2612"
    },
    {
      "channel": 0,
      "note": 37,
      "start": 79.1648,
      "duration": 0.0161,
      "velocity": 115,
      "chip": "ym2612"
    },
    {
      "channel": 5,
      "note": 94,
      "start": 79.166,
      "duration": 0.0161,
      "velocity": 101,
      "chip": "ym2612"
    },
    {
      "channel": 4,
      "note": 97,
      "start": 79.1674,
      "duration": 0.0159,
      "velocity": 101,
      "chip": "ym2612"
    },
    {
      "channel": 3,
      "note": 102,
      "start": 79.169,
      "duration": 0.016,
      "velocity": 101,
      "chip": "ym2612"
    },
    {
      "channel": 2,
      "note": 54,
      "start": 79.1702,
      "duration": 0.0161,
      "velocity": 100,
      "chip": "ym2612"
    },
    {
      "channel": 1,
      "note": 75,
      "start": 79.1792,
      "duration": 0.0161,
      "velocity": 124,
      "chip": "ym2612"
    },
    {
      "channel": 0,
      "note": 38,
      "start": 79.1809,
      "duration": 0.0161,
      "velocity": 115,
      "chip": "ym2612"
    },
    {
      "channel": 5,
      "note": 94,
      "start": 79.1821,
      "duration": 0.0161,
      "velocity": 101,
      "chip": "ym2612"
    },
    {
      "channel": 4,
      "note": 97,
      "start": 79.1833,
      "duration": 0.0161,
      "velocity": 101,
      "chip": "ym2612"
    },
    {
      "channel": 3,
      "note": 102,
      "start": 79.185,
      "duration": 0.0158,
      "velocity": 101,
      "chip": "ym2612"
    },
    {
      "channel": 2,
      "note": 54,
      "start": 79.1862,
      "duration": 0.0161,
      "velocity": 100,
      "chip": "ym2612"
    },
    {
      "channel": 1,
      "note": 72,
      "start": 79.1953,
      "duration": 0.0161,
      "velocity": 124,
      "chip": "ym2612"
    },
    {
      "channel": 0,
      "note": 38,
      "start": 79.197,
      "duration": 0.0161,
      "velocity": 115,
      "chip": "ym2612"
    },
    {
      "channel": 5,
      "note": 94,
      "start": 79.1982,
      "duration": 0.0161,
      "velocity": 101,
      "chip": "ym2612"
    },
    {
      "channel": 4,
      "note": 97,
      "start": 79.1994,
      "duration": 0.0161,
      "velocity": 101,
      "chip": "ym2612"
    },
    {
      "channel": 3,
      "note": 102,
      "start": 79.2008,
      "duration": 0.0159,
      "velocity": 101,
      "chip": "ym2612"
    },
    {
      "channel": 2,
      "note": 54,
      "start": 79.2023,
      "duration": 0.0161,
      "velocity": 100,
      "chip": "ym2612"
    },
    {
      "channel": 1,
      "note": 70,
      "start": 79.2114,
      "duration": 0.0161,
      "velocity": 124,
      "chip": "ym2612"
    },
    {
      "channel": 0,
      "note": 39,
      "start": 79.2131,
      "duration": 0.0161,
      "velocity": 115,
      "chip": "ym2612"
    },
    {
      "channel": 5,
      "note": 94,
      "start": 79.2143,
      "duration": 0.016,
      "velocity": 101,
      "chip": "ym2612"
    },
    {
      "channel": 4,
      "note": 97,
      "start": 79.2155,
      "duration": 0.016,
      "velocity": 101,
      "chip": "ym2612"
    },
    {
      "channel": 3,
      "note": 102,
      "start": 79.2167,
      "duration": 0.016,
      "velocity": 101,
      "chip": "ym2612"
    },
    {
      "channel": 2,
      "note": 54,
      "start": 79.2184,
      "duration": 0.0157,
      "velocity": 100,
      "chip": "ym2612"
    },
    {
      "channel": 1,
      "note": 68,
      "start": 79.2275,
      "duration": 0.0161,
      "velocity": 124,
      "chip": "ym2612"
    },
    {
      "channel": 0,
      "note": 39,
      "start": 79.2292,
      "duration": 0.0161,
      "velocity": 115,
      "chip": "ym2612"
    },
    {
      "channel": 5,
      "note": 94,
      "start": 79.2303,
      "duration": 0.0162,
      "velocity": 101,
      "chip": "ym2612"
    },
    {
      "channel": 4,
      "note": 97,
      "start": 79.2315,
      "duration": 0.0161,
      "velocity": 101,
      "chip": "ym2612"
    },
    {
      "channel": 3,
      "note": 102,
      "start": 79.2327,
      "duration": 0.0162,
      "velocity": 101,
      "chip": "ym2612"
    },
    {
      "channel": 2,
      "note": 54,
      "start": 79.2341,
      "duration": 0.0159,
      "velocity": 100,
      "chip": "ym2612"
    },
    {
      "channel": 1,
      "note": 65,
      "start": 79.2436,
      "duration": 0.0161,
      "velocity": 124,
      "chip": "ym2612"
    },
    {
      "channel": 0,
      "note": 40,
      "start": 79.2453,
      "duration": 0.0161,
      "velocity": 115,
      "chip": "ym2612"
    },
    {
      "channel": 5,
      "note": 94,
      "start": 79.2465,
      "duration": 0.0161,
      "velocity": 101,
      "chip": "ym2612"
    },
    {
      "channel": 4,
      "note": 97,
      "start": 79.2477,
      "duration": 0.0161,
      "velocity": 101,
      "chip": "ym2612"
    },
    {
      "channel": 3,
      "note": 102,
      "start": 79.2489,
      "duration": 0.0161,
      "velocity": 101,
      "chip": "ym2612"
    },
    {
      "channel": 2,
      "note": 54,
      "start": 79.25,
      "duration": 0.0161,
      "velocity": 100,
      "chip": "ym2612"
    },
    {
      "channel": 1,
      "note": 63,
      "start": 79.2597,
      "duration": 0.0153,
      "velocity": 1,
      "chip": "ym2612"
    },
    {
      "channel": 0,
      "note": 40,
      "start": 79.2614,
      "duration": 0.0153,
      "velocity": 115,
      "chip": "ym2612"
    },
    {
      "channel": 5,
      "note": 94,
      "start": 79.2626,
      "duration": 0.0153,
      "velocity": 101,
      "chip": "ym2612"
    },
    {
      "channel": 4,
      "note": 97,
      "start": 79.2638,
      "duration": 0.0153,
      "velocity": 101,
      "chip": "ym2612"
    },
    {
      "channel": 3,
      "note": 102,
      "start": 79.265,
      "duration": 0.0153,
      "velocity": 101,
      "chip": "ym2612"
    },
    {
      "channel": 2,
      "note": 54,
      "start": 79.2661,
      "duration": 0.0153,
      "velocity": 100,
      "chip": "ym2612"
    },
    {
      "channel": 0,
      "note": 40,
      "start": 79.2766,
      "duration": 0.0153,
      "velocity": 115,
      "chip": "ym2612"
    },
    {
      "channel": 5,
      "note": 94,
      "start": 79.2778,
      "duration": 0.0153,
      "velocity": 101,
      "chip": "ym2612"
    },
    {
      "channel": 4,
      "note": 97,
      "start": 79.279,
      "duration": 0.0153,
      "velocity": 101,
      "chip": "ym2612"
    },
    {
      "channel": 3,
      "note": 102,
      "start": 79.2803,
      "duration": 0.0153,
      "velocity": 101,
      "chip": "ym2612"
    },
    {
      "channel": 2,
      "note": 54,
      "start": 79.2814,
      "duration": 0.0153,
      "velocity": 100,
      "chip": "ym2612"
    },
    {
      "channel": 0,
      "note": 41,
      "start": 79.2919,
      "duration": 0.0161,
      "velocity": 115,
      "chip": "ym2612"
    },
    {
      "channel": 5,
      "note": 94,
      "start": 79.2931,
      "duration": 0.0161,
      "velocity": 101,
      "chip": "ym2612"
    },
    {
      "channel": 4,
      "note": 97,
      "start": 79.2943,
      "duration": 0.0161,
      "velocity": 101,
      "chip": "ym2612"
    },
    {
      "channel": 3,
      "note": 102,
      "start": 79.2955,
      "duration": 0.0161,
      "velocity": 101,
      "chip": "ym2612"
    },
    {
      "channel": 2,
      "note": 54,
      "start": 79.2967,
      "duration": 0.0161,
      "velocity": 100,
      "chip": "ym2612"
    },
    {
      "channel": 0,
      "note": 41,
      "start": 79.308,
      "duration": 0.019,
      "velocity": 115,
      "chip": "ym2612"
    },
    {
      "channel": 5,
      "note": 94,
      "start": 79.3092,
      "duration": 0.019,
      "velocity": 101,
      "chip": "ym2612"
    },
    {
      "channel": 4,
      "note": 97,
      "start": 79.3104,
      "duration": 0.019,
      "velocity": 101,
      "chip": "ym2612"
    },
    {
      "channel": 3,
      "note": 102,
      "start": 79.3116,
      "duration": 0.019,
      "velocity": 101,
      "chip": "ym2612"
    },
    {
      "channel": 2,
      "note": 54,
      "start": 79.3128,
      "duration": 0.0193,
      "velocity": 100,
      "chip": "ym2612"
    },
    {
      "channel": 1,
      "note": 105,
      "start": 79.3253,
      "duration": 0.0144,
      "velocity": 105,
      "chip": "ym2612"
    },
    {
      "channel": 0,
      "note": 42,
      "start": 79.327,
      "duration": 0.0144,
      "velocity": 115,
      "chip": "ym2612"
    },
    {
      "channel": 5,
      "note": 94,
      "start": 79.3282,
      "duration": 0.0144,
      "velocity": 101,
      "chip": "ym2612"
    },
    {
      "channel": 4,
      "note": 97,
      "start": 79.3294,
      "duration": 0.0144,
      "velocity": 101,
      "chip": "ym2612"
    },
    {
      "channel": 3,
      "note": 102,
      "start": 79.3307,
      "duration": 0.0144,
      "velocity": 101,
      "chip": "ym2612"
    },
    {
      "channel": 2,
      "note": 66,
      "start": 79.3321,
      "duration": 0.0141,
      "velocity": 100,
      "chip": "ym2612"
    },
    {
      "channel": 1,
      "note": 105,
      "start": 79.3397,
      "duration": 0.016,
      "velocity": 105,
      "chip": "ym2612"
    },
    {
      "channel": 0,
      "note": 42,
      "start": 79.3414,
      "duration": 0.016,
      "velocity": 115,
      "chip": "ym2612"
    },
    {
      "channel": 5,
      "note": 94,
      "start": 79.3426,
      "duration": 0.016,
      "velocity": 101,
      "chip": "ym2612"
    },
    {
      "channel": 4,
      "note": 97,
      "start": 79.3438,
      "duration": 0.016,
      "velocity": 101,
      "chip": "ym2612"
    },
    {
      "channel": 3,
      "note": 102,
      "start": 79.345,
      "duration": 0.016,
      "velocity": 101,
      "chip": "ym2612"
    },
    {
      "channel": 2,
      "note": 66,
      "start": 79.3462,
      "duration": 0.016,
      "velocity": 100,
      "chip": "ym2612"
    },
    {
      "channel": 1,
      "note": 105,
      "start": 79.3557,
      "duration": 0.0161,
      "velocity": 105,
      "chip": "ym2612"
    },
    {
      "channel": 0,
      "note": 43,
      "start": 79.3574,
      "duration": 0.0161,
      "velocity": 115,
      "chip": "ym2612"
    },
    {
      "channel": 5,
      "note": 94,
      "start": 79.3586,
      "duration": 0.0161,
      "velocity": 101,
      "chip": "ym2612"
    },
    {
      "channel": 4,
      "note": 97,
      "start": 79.3598,
      "duration": 0.0161,
      "velocity": 101,
      "chip": "ym2612"
    },
    {
      "channel": 3,
      "note": 102,
      "start": 79.361,
      "duration": 0.0161,
      "velocity": 101,
      "chip": "ym2612"
    },
    {
      "channel": 2,
      "note": 66,
      "start": 79.3622,
      "duration": 0.0161,
      "velocity": 100,
      "chip": "ym2612"
    },
    {
      "channel": 1,
      "note": 105,
      "start": 79.3718,
      "duration": 0.0161,
      "velocity": 105,
      "chip": "ym2612"
    },
    {
      "channel": 0,
      "note": 43,
      "start": 79.3735,
      "duration": 0.0161,
      "velocity": 115,
      "chip": "ym2612"
    },
    {
      "channel": 5,
      "note": 94,
      "start": 79.3747,
      "duration": 0.0161,
      "velocity": 101,
      "chip": "ym2612"
    },
    {
      "channel": 4,
      "note": 97,
      "start": 79.3759,
      "duration": 0.0161,
      "velocity": 101,
      "chip": "ym2612"
    },
    {
      "channel": 3,
      "note": 102,
      "start": 79.3771,
      "duration": 0.0161,
      "velocity": 101,
      "chip": "ym2612"
    },
    {
      "channel": 2,
      "note": 66,
      "start": 79.3783,
      "duration": 0.0161,
      "velocity": 100,
      "chip": "ym2612"
    },
    {
      "channel": 1,
      "note": 105,
      "start": 79.3879,
      "duration": 0.0162,
      "velocity": 105,
      "chip": "ym2612"
    },
    {
      "channel": 0,
      "note": 44,
      "start": 79.3896,
      "duration": 0.0161,
      "velocity": 115,
      "chip": "ym2612"
    },
    {
      "channel": 5,
      "note": 94,
      "start": 79.3908,
      "duration": 0.0161,
      "velocity": 101,
      "chip": "ym2612"
    },
    {
      "channel": 4,
      "note": 97,
      "start": 79.392,
      "duration": 0.0161,
      "velocity": 101,
      "chip": "ym2612"
    },
    {
      "channel": 3,
      "note": 102,
      "start": 79.3932,
      "duration": 0.0161,
      "velocity": 101,
      "chip": "ym2612"
    },
    {
      "channel": 2,
      "note": 66,
      "start": 79.3944,
      "duration": 0.0161,
      "velocity": 100,
      "chip": "ym2612"
    },
    {
      "channel": 1,
      "note": 105,
      "start": 79.4041,
      "duration": 0.0161,
      "velocity": 105,
      "chip": "ym2612"
    },
    {
      "channel": 0,
      "note": 44,
      "start": 79.4057,
      "duration": 0.0161,
      "velocity": 115,
      "chip": "ym2612"
    },
    {
      "channel": 5,
      "note": 94,
      "start": 79.4069,
      "duration": 0.0161,
      "velocity": 101,
      "chip": "ym2612"
    },
    {
      "channel": 4,
      "note": 97,
      "start": 79.4081,
      "duration": 0.0161,
      "velocity": 101,
      "chip": "ym2612"
    },
    {
      "channel": 3,
      "note": 102,
      "start": 79.4093,
      "duration": 0.0161,
      "velocity": 101,
      "chip": "ym2612"
    },
    {
      "channel": 2,
      "note": 66,
      "start": 79.4105,
      "duration": 0.0162,
      "velocity": 100,
      "chip": "ym2612"
    },
    {
      "channel": 1,
      "note": 105,
      "start": 79.4202,
      "duration": 0.0161,
      "velocity": 105,
      "chip": "ym2612"
    },
    {
      "channel": 0,
      "note": 44,
      "start": 79.4218,
      "duration": 0.0161,
      "velocity": 115,
      "chip": "ym2612"
    },
    {
      "channel": 5,
      "note": 94,
      "start": 79.423,
      "duration": 0.0161,
      "velocity": 101,
      "chip": "ym2612"
    },
    {
      "channel": 4,
      "note": 97,
      "start": 79.4242,
      "duration": 0.0162,
      "velocity": 101,
      "chip": "ym2612"
    },
    {
      "channel": 3,
      "note": 102,
      "start": 79.4254,
      "duration": 0.0162,
      "velocity": 101,
      "chip": "ym2612"
    },
    {
      "channel": 2,
      "note": 66,
      "start": 79.4267,
      "duration": 0.0161,
      "velocity": 100,
      "chip": "ym2612"
    },
    {
      "channel": 1,
      "note": 105,
      "start": 79.4363,
      "duration": 0.0164,
      "velocity": 105,
      "chip": "ym2612"
    },
    {
      "channel": 0,
      "note": 45,
      "start": 79.438,
      "duration": 0.0165,
      "velocity": 115,
      "chip": "ym2612"
    },
    {
      "channel": 5,
      "note": 94,
      "start": 79.4392,
      "duration": 0.0164,
      "velocity": 101,
      "chip": "ym2612"
    },
    {
      "channel": 4,
      "note": 97,
      "start": 79.4404,
      "duration": 0.0164,
      "velocity": 101,
      "chip": "ym2612"
    },
    {
      "channel": 3,
      "note": 102,
      "start": 79.4416,
      "duration": 0.0164,
      "velocity": 101,
      "chip": "ym2612"
    },
    {
      "channel": 2,
      "note": 66,
      "start": 79.4428,
      "duration": 0.0164,
      "velocity": 100,
      "chip": "ym2612"
    },
    {
      "channel": 1,
      "note": 105,
      "start": 79.4527,
      "duration": 0.0163,
      "velocity": 105,
      "chip": "ym2612"
    },
    {
      "channel": 0,
      "note": 45,
      "start": 79.4544,
      "duration": 0.0163,
      "velocity": 115,
      "chip": "ym2612"
    },
    {
      "channel": 5,
      "note": 94,
      "start": 79.4556,
      "duration": 0.0163,
      "velocity": 101,
      "chip": "ym2612"
    },
    {
      "channel": 4,
      "note": 97,
      "start": 79.4568,
      "duration": 0.0163,
      "velocity": 101,
      "chip": "ym2612"
    },
    {
      "channel": 3,
      "note": 102,
      "start": 79.458,
      "duration": 0.0163,
      "velocity": 101,
      "chip": "ym2612"
    },
    {
      "channel": 2,
      "note": 66,
      "start": 79.4592,
      "duration": 0.0163,
      "velocity": 100,
      "chip": "ym2612"
    },
    {
      "channel": 1,
      "note": 105,
      "start": 79.469,
      "duration": 0.016,
      "velocity": 105,
      "chip": "ym2612"
    },
    {
      "channel": 0,
      "note": 46,
      "start": 79.4707,
      "duration": 0.0161,
      "velocity": 115,
      "chip": "ym2612"
    },
    {
      "channel": 5,
      "note": 94,
      "start": 79.4719,
      "duration": 0.0161,
      "velocity": 101,
      "chip": "ym2612"
    },
    {
      "channel": 4,
      "note": 97,
      "start": 79.4731,
      "duration": 0.0161,
      "velocity": 101,
      "chip": "ym2612"
    },
    {
      "channel": 3,
      "note": 102,
      "start": 79.4744,
      "duration": 0.0161,
      "velocity": 101,
      "chip": "ym2612"
    },
    {
      "channel": 2,
      "note": 66,
      "start": 79.4756,
      "duration": 0.016,
      "velocity": 100,
      "chip": "ym2612"
    },
    {
      "channel": 1,
      "note": 105,
      "start": 79.485,
      "duration": 0.0158,
      "velocity": 105,
      "chip": "ym2612"
    },
    {
      "channel": 0,
      "note": 46,
      "start": 79.4868,
      "duration": 0.0161,
      "velocity": 115,
      "chip": "ym2612"
    },
    {
      "channel": 5,
      "note": 94,
      "start": 79.488,
      "duration": 0.0161,
      "velocity": 101,
      "chip": "ym2612"
    },
    {
      "channel": 4,
      "note": 97,
      "start": 79.4892,
      "duration": 0.0161,
      "velocity": 101,
      "chip": "ym2612"
    },
    {
      "channel": 3,
      "note": 102,
      "start": 79.4905,
      "duration": 0.0161,
      "velocity": 101,
      "chip": "ym2612"
    },
    {
      "channel": 2,
      "note": 66,
      "start": 79.4916,
      "duration": 0.0163,
      "velocity": 100,
      "chip": "ym2612"
    },
    {
      "channel": 1,
      "note": 105,
      "start": 79.5008,
      "duration": 0.0159,
      "velocity": 105,
      "chip": "ym2612"
    },
    {
      "channel": 0,
      "note": 47,
      "start": 79.5029,
      "duration": 0.0161,
      "velocity": 115,
      "chip": "ym2612"
    },
    {
      "channel": 5,
      "note": 94,
      "start": 79.5041,
      "duration": 0.0161,
      "velocity": 101,
      "chip": "ym2612"
    },
    {
      "channel": 4,
      "note": 97,
      "start": 79.5053,
      "duration": 0.0161,
      "velocity": 101,
      "chip": "ym2612"
    },
    {
      "channel": 3,
      "note": 102,
      "start": 79.5065,
      "duration": 0.0161,
      "velocity": 101,
      "chip": "ym2612"
    },
    {
      "channel": 2,
      "note": 66,
      "start": 79.5079,
      "duration": 0.0159,
      "velocity": 100,
      "chip": "ym2612"
    },
    {
      "channel": 1,
      "note": 105,
      "start": 79.5167,
      "duration": 0.0184,
      "velocity": 124,
      "chip": "ym2612"
    },
    {
      "channel": 0,
      "note": 47,
      "start": 79.519,
      "duration": 0.0197,
      "velocity": 115,
      "chip": "ym2612"
    },
    {
      "channel": 5,
      "note": 94,
      "start": 79.5202,
      "duration": 0.0198,
      "velocity": 101,
      "chip": "ym2612"
    },
    {
      "channel": 4,
      "note": 97,
      "start": 79.5214,
      "duration": 0.0198,
      "velocity": 101,
      "chip": "ym2612"
    },
    {
      "channel": 3,
      "note": 102,
      "start": 79.5226,
      "duration": 0.0198,
      "velocity": 101,
      "chip": "ym2612"
    },
    {
      "channel": 2,
      "note": 66,
      "start": 79.5238,
      "duration": 0.0201,
      "velocity": 100,
      "chip": "ym2612"
    },
    {
      "channel": 1,
      "note": 64,
      "start": 79.5352,
      "duration": 0.0139,
      "velocity": 124,
      "chip": "ym2612"
    },
    {
      "channel": 0,
      "note": 36,
      "start": 79.5388,
      "duration": 0.0122,
      "velocity": 115,
      "chip": "ym2612"
    },
    {
      "channel": 5,
      "note": 94,
      "start": 79.54,
      "duration": 0.0126,
      "velocity": 101,
      "chip": "ym2612"
    },
    {
      "channel": 4,
      "note": 97,
      "start": 79.5412,
      "duration": 0.0126,
      "velocity": 101,
      "chip": "ym2612"
    },
    {
      "channel": 3,
      "note": 102,
      "start": 79.5424,
      "duration": 0.0126,
      "velocity": 101,
      "chip": "ym2612"
    },
    {
      "channel": 2,
      "note": 54,
      "start": 79.5439,
      "duration": 0.0123,
      "velocity": 100,
      "chip": "ym2612"
    },
    {
      "channel": 1,
      "note": 64,
      "start": 79.549,
      "duration": 0.016,
      "velocity": 124,
      "chip": "ym2612"
    },
    {
      "channel": 0,
      "note": 36,
      "start": 79.551,
      "duration": 0.0158,
      "velocity": 115,
      "chip": "ym2612"
    },
    {
      "channel": 5,
      "note": 94,
      "start": 79.5526,
      "duration": 0.0159,
      "velocity": 101,
      "chip": "ym2612"
    },
    {
      "channel": 4,
      "note": 97,
      "start": 79.5538,
      "duration": 0.0159,
      "velocity": 101,
      "chip": "ym2612"
    },
    {
      "channel": 3,
      "note": 102,
      "start": 79.555,
      "duration": 0.0159,
      "velocity": 101,
      "chip": "ym2612"
    },
    {
      "channel": 2,
      "note": 54,
      "start": 79.5562,
      "duration": 0.0159,
      "velocity": 100,
      "chip": "ym2612"
    },
    {
      "channel": 1,
      "note": 64,
      "start": 79.5651,
      "duration": 0.0185,
      "velocity": 127,
      "chip": "ym2612"
    },
    {
      "channel": 0,
      "note": 37,
      "start": 79.5668,
      "duration": 0.0191,
      "velocity": 115,
      "chip": "ym2612"
    },
    {
      "channel": 5,
      "note": 94,
      "start": 79.5685,
      "duration": 0.0186,
      "velocity": 101,
      "chip": "ym2612"
    },
    {
      "channel": 4,
      "note": 97,
      "start": 79.5697,
      "duration": 0.0186,
      "velocity": 101,
      "chip": "ym2612"
    },
    {
      "channel": 3,
      "note": 102,
      "start": 79.5709,
      "duration": 0.0186,
      "velocity": 101,
      "chip": "ym2612"
    },
    {
      "channel": 2,
      "note": 54,
      "start": 79.5721,
      "duration": 0.0186,
      "velocity": 100,
      "chip": "ym2612"
    },
    {
      "channel": 1,
      "note": 88,
      "start": 79.5836,
      "duration": 0.0142,
      "velocity": 127,
      "chip": "ym2612"
    },
    {
      "channel": 0,
      "note": 37,
      "start": 79.5859,
      "duration": 0.0137,
      "velocity": 115,
      "chip": "ym2612"
    },
    {
      "channel": 5,
      "note": 94,
      "start": 79.5871,
      "duration": 0.0139,
      "velocity": 101,
      "chip": "ym2612"
    },
    {
      "channel": 4,
      "note": 97,
      "start": 79.5883,
      "duration": 0.0143,
      "velocity": 101,
      "chip": "ym2612"
    },
    {
      "channel": 3,
      "note": 102,
      "start": 79.5895,
      "duration": 0.0143,
      "velocity": 101,
      "chip": "ym2612"
    },
    {
      "channel": 2,
      "note": 54,
      "start": 79.5906,
      "duration": 0.0143,
      "velocity": 100,
      "chip": "ym2612"
    },
    {
      "channel": 1,
      "note": 86,
      "start": 79.5978,
      "duration": 0.016,
      "velocity": 127,
      "chip": "ym2612"
    },
    {
      "channel": 0,
      "note": 38,
      "start": 79.5995,
      "duration": 0.016,
      "velocity": 115,
      "chip": "ym2612"
    },
    {
      "channel": 5,
      "note": 94,
      "start": 79.601,
      "duration": 0.0158,
      "velocity": 101,
      "chip": "ym2612"
    },
    {
      "channel": 4,
      "note": 97,
      "start": 79.6026,
      "duration": 0.016,
      "velocity": 101,
      "chip": "ym2612"
    },
    {
      "channel": 3,
      "note": 102,
      "start": 79.6038,
      "duration": 0.016,
      "velocity": 101,
      "chip": "ym2612"
    },
    {
      "channel": 2,
      "note": 54,
      "start": 79.6049,
      "duration": 0.016,
      "velocity": 100,
      "chip": "ym2612"
    },
    {
      "channel": 1,
      "note": 85,
      "start": 79.6139,
      "duration": 0.0179,
      "velocity": 127,
      "chip": "ym2612"
    },
    {
      "channel": 0,
      "note": 38,
      "start": 79.6156,
      "duration": 0.018,
      "velocity": 115,
      "chip": "ym2612"
    },
    {
      "channel": 5,
      "note": 94,
      "start": 79.6168,
      "duration": 0.0186,
      "velocity": 101,
      "chip": "ym2612"
    },
    {
      "channel": 4,
      "note": 97,
      "start": 79.6185,
      "duration": 0.018,
      "velocity": 101,
      "chip": "ym2612"
    },
    {
      "channel": 3,
      "note": 102,
      "start": 79.6198,
      "duration": 0.0179,
      "velocity": 101,
      "chip": "ym2612"
    },
    {
      "channel": 2,
      "note": 54,
      "start": 79.621,
      "duration": 0.0179,
      "velocity": 100,
      "chip": "ym2612"
    },
    {
      "channel": 1,
      "note": 88,
      "start": 79.6319,
      "duration": 0.0143,
      "velocity": 127,
      "chip": "ym2612"
    },
    {
      "channel": 0,
      "note": 39,
      "start": 79.6336,
      "duration": 0.0142,
      "velocity": 115,
      "chip": "ym2612"
    },
    {
      "channel": 5,
      "note": 94,
      "start": 79.6354,
      "duration": 0.0137,
      "velocity": 101,
      "chip": "ym2612"
    },
    {
      "channel": 4,
      "note": 97,
      "start": 79.6366,
      "duration": 0.0137,
      "velocity": 101,
      "chip": "ym2612"
    },
    {
      "channel": 3,
      "note": 102,
      "start": 79.6378,
      "duration": 0.0143,
      "velocity": 101,
      "chip": "ym2612"
    },
    {
      "channel": 2,
      "note": 54,
      "start": 79.6389,
      "duration": 0.0143,
      "velocity": 100,
      "chip": "ym2612"
    },
    {
      "channel": 1,
      "note": 86,
      "start": 79.6462,
      "duration": 0.016,
      "velocity": 127,
      "chip": "ym2612"
    },
    {
      "channel": 0,
      "note": 39,
      "start": 79.6478,
      "duration": 0.0161,
      "velocity": 115,
      "chip": "ym2612"
    },
    {
      "channel": 5,
      "note": 94,
      "start": 79.649,
      "duration": 0.016,
      "velocity": 101,
      "chip": "ym2612"
    },
    {
      "channel": 4,
      "note": 97,
      "start": 79.6502,
      "duration": 0.016,
      "velocity": 101,
      "chip": "ym2612"
    },
    {
      "channel": 3,
      "note": 102,
      "start": 79.6521,
      "duration": 0.016,
      "velocity": 101,
      "chip": "ym2612"
    },
    {
      "channel": 2,
      "note": 54,
      "start": 79.6532,
      "duration": 0.016,
      "velocity": 100,
      "chip": "ym2612"
    },
    {
      "channel": 1,
      "note": 85,
      "start": 79.6622,
      "duration": 0.0179,
      "velocity": 127,
      "chip": "ym2612"
    },
    {
      "channel": 0,
      "note": 40,
      "start": 79.6639,
      "duration": 0.0179,
      "velocity": 115,
      "chip": "ym2612"
    },
    {
      "channel": 5,
      "note": 94,
      "start": 79.6651,
      "duration": 0.018,
      "velocity": 101,
      "chip": "ym2612"
    },
    {
      "channel": 4,
      "note": 97,
      "start": 79.6663,
      "duration": 0.0185,
      "velocity": 101,
      "chip": "ym2612"
    },
    {
      "channel": 3,
      "note": 102,
      "start": 79.668,
      "duration": 0.018,
      "velocity": 101,
      "chip": "ym2612"
    },
    {
      "channel": 2,
      "note": 54,
      "start": 79.6693,
      "duration": 0.0179,
      "velocity": 100,
      "chip": "ym2612"
    },
    {
      "channel": 1,
      "note": 88,
      "start": 79.6801,
      "duration": 0.0143,
      "velocity": 127,
      "chip": "ym2612"
    },
    {
      "channel": 0,
      "note": 40,
      "start": 79.6819,
      "duration": 0.0143,
      "velocity": 115,
      "chip": "ym2612"
    },
    {
      "channel": 5,
      "note": 94,
      "start": 79.6831,
      "duration": 0.0143,
      "velocity": 101,
      "chip": "ym2612"
    },
    {
      "channel": 4,
      "note": 97,
      "start": 79.6848,
      "duration": 0.0138,
      "velocity": 101,
      "chip": "ym2612"
    },
    {
      "channel": 3,
      "note": 102,
      "start": 79.6861,
      "duration": 0.0137,
      "velocity": 101,
      "chip": "ym2612"
    },
    {
      "channel": 2,
      "note": 54,
      "start": 79.6872,
      "duration": 0.0143,
      "velocity": 100,
      "chip": "ym2612"
    },
    {
      "channel": 1,
      "note": 86,
      "start": 79.6944,
      "duration": 0.016,
      "velocity": 127,
      "chip": "ym2612"
    },
    {
      "channel": 0,
      "note": 40,
      "start": 79.6962,
      "duration": 0.016,
      "velocity": 115,
      "chip": "ym2612"
    },
    {
      "channel": 5,
      "note": 94,
      "start": 79.6974,
      "duration": 0.016,
      "velocity": 101,
      "chip": "ym2612"
    },
    {
      "channel": 4,
      "note": 97,
      "start": 79.6986,
      "duration": 0.016,
      "velocity": 101,
      "chip": "ym2612"
    },
    {
      "channel": 3,
      "note": 102,
      "start": 79.6998,
      "duration": 0.016,
      "velocity": 101,
      "chip": "ym2612"
    },
    {
      "channel": 2,
      "note": 54,
      "start": 79.7015,
      "duration": 0.0155,
      "velocity": 100,
      "chip": "ym2612"
    },
    {
      "channel": 1,
      "note": 85,
      "start": 79.7105,
      "duration": 0.0161,
      "velocity": 127,
      "chip": "ym2612"
    },
    {
      "channel": 0,
      "note": 41,
      "start": 79.7122,
      "duration": 0.0161,
      "velocity": 115,
      "chip": "ym2612"
    },
    {
      "channel": 5,
      "note": 94,
      "start": 79.7134,
      "duration": 0.0161,
      "velocity": 101,
      "chip": "ym2612"
    },
    {
      "channel": 4,
      "note": 97,
      "start": 79.7146,
      "duration": 0.0161,
      "velocity": 101,
      "chip": "ym2612"
    },
    {
      "channel": 3,
      "note": 102,
      "start": 79.7158,
      "duration": 0.0161,
      "velocity": 101,
      "chip": "ym2612"
    },
    {
      "channel": 2,
      "note": 54,
      "start": 79.717,
      "duration": 0.0162,
      "velocity": 100,
      "chip": "ym2612"
    },
    {
      "channel": 1,
      "note": 83,
      "start": 79.7266,
      "duration": 0.0179,
      "velocity": 127,
      "chip": "ym2612"
    },
    {
      "channel": 0,
      "note": 41,
      "start": 79.7283,
      "duration": 0.018,
      "velocity": 115,
      "chip": "ym2612"
    },
    {
      "channel": 5,
      "note": 94,
      "start": 79.7295,
      "duration": 0.018,
      "velocity": 101,
      "chip": "ym2612"
    },
    {
      "channel": 4,
      "note": 97,
      "start": 79.7307,
      "duration": 0.018,
      "velocity": 101,
      "chip": "ym2612"
    },
    {
      "channel": 3,
      "note": 102,
      "start": 79.732,
      "duration": 0.018,
      "velocity": 101,
      "chip": "ym2612"
    },
    {
      "channel": 2,
      "note": 54,
      "start": 79.7331,
      "duration": 0.0187,
      "velocity": 100,
      "chip": "ym2612"
    },
    {
      "channel": 1,
      "note": 88,
      "start": 79.7446,
      "duration": 0.0142,
      "velocity": 127,
      "chip": "ym2612"
    },
    {
      "channel": 0,
      "note": 42,
      "start": 79.7463,
      "duration": 0.0142,
      "velocity": 115,
      "chip": "ym2612"
    },
    {
      "channel": 5,
      "note": 94,
      "start": 79.7475,
      "duration": 0.0142,
      "velocity": 101,
      "chip": "ym2612"
    },
    {
      "channel": 4,
      "note": 97,
      "start": 79.7487,
      "duration": 0.0143,
      "velocity": 101,
      "chip": "ym2612"
    },
    {
      "channel": 3,
      "note": 102,
      "start": 79.7499,
      "duration": 0.0142,
      "velocity": 101,
      "chip": "ym2612"
    },
    {
      "channel": 2,
      "note": 61,
      "start": 79.7519,
      "duration": 0.0135,
      "velocity": 100,
      "chip": "ym2612"
    },
    {
      "channel": 1,
      "note": 86,
      "start": 79.7588,
      "duration": 0.0161,
      "velocity": 127,
      "chip": "ym2612"
    },
    {
      "channel": 0,
      "note": 42,
      "start": 79.7605,
      "duration": 0.016,
      "velocity": 115,
      "chip": "ym2612"
    },
    {
      "channel": 5,
      "note": 94,
      "start": 79.7617,
      "duration": 0.016,
      "velocity": 101,
      "chip": "ym2612"
    },
    {
      "channel": 4,
      "note": 97,
      "start": 79.763,
      "duration": 0.016,
      "velocity": 101,
      "chip": "ym2612"
    },
    {
      "channel": 3,
      "note": 102,
      "start": 79.7642,
      "duration": 0.016,
      "velocity": 101,
      "chip": "ym2612"
    },
    {
      "channel": 2,
      "note": 61,
      "start": 79.7654,
      "duration": 0.016,
      "velocity": 100,
      "chip": "ym2612"
    },
    {
      "channel": 1,
      "note": 85,
      "start": 79.7749,
      "duration": 0.0161,
      "velocity": 127,
      "chip": "ym2612"
    },
    {
      "channel": 0,
      "note": 43,
      "start": 79.7766,
      "duration": 0.0161,
      "velocity": 115,
      "chip": "ym2612"
    },
    {
      "channel": 5,
      "note": 94,
      "start": 79.7778,
      "duration": 0.0161,
      "velocity": 101,
      "chip": "ym2612"
    },
    {
      "channel": 4,
      "note": 97,
      "start": 79.779,
      "duration": 0.0161,
      "velocity": 101,
      "chip": "ym2612"
    },
    {
      "channel": 3,
      "note": 102,
      "start": 79.7802,
      "duration": 0.0161,
      "velocity": 101,
      "chip": "ym2612"
    },
    {
      "channel": 2,
      "note": 61,
      "start": 79.7813,
      "duration": 0.0161,
      "velocity": 100,
      "chip": "ym2612"
    },
    {
      "channel": 1,
      "note": 83,
      "start": 79.791,
      "duration": 0.0161,
      "velocity": 127,
      "chip": "ym2612"
    },
    {
      "channel": 0,
      "note": 43,
      "start": 79.7927,
      "duration": 0.0161,
      "velocity": 115,
      "chip": "ym2612"
    },
    {
      "channel": 5,
      "note": 94,
      "start": 79.7939,
      "duration": 0.0161,
      "velocity": 101,
      "chip": "ym2612"
    },
    {
      "channel": 4,
      "note": 97,
      "start": 79.7951,
      "duration": 0.0161,
      "velocity": 101,
      "chip": "ym2612"
    },
    {
      "channel": 3,
      "note": 102,
      "start": 79.7963,
      "duration": 0.0161,
      "velocity": 101,
      "chip": "ym2612"
    },
    {
      "channel": 2,
      "note": 61,
      "start": 79.7974,
      "duration": 0.0161,
      "velocity": 100,
      "chip": "ym2612"
    },
    {
      "channel": 1,
      "note": 81,
      "start": 79.8071,
      "duration": 0.0161,
      "velocity": 127,
      "chip": "ym2612"
    },
    {
      "channel": 0,
      "note": 44,
      "start": 79.8088,
      "duration": 0.0161,
      "velocity": 115,
      "chip": "ym2612"
    },
    {
      "channel": 5,
      "note": 94,
      "start": 79.81,
      "duration": 0.0161,
      "velocity": 101,
      "chip": "ym2612"
    },
    {
      "channel": 4,
      "note": 97,
      "start": 79.8112,
      "duration": 0.0161,
      "velocity": 101,
      "chip": "ym2612"
    },
    {
      "channel": 3,
      "note": 102,
      "start": 79.8124,
      "duration": 0.0161,
      "velocity": 101,
      "chip": "ym2612"
    },
    {
      "channel": 2,
      "note": 61,
      "start": 79.8135,
      "duration": 0.0161,
      "velocity": 100,
      "chip": "ym2612"
    },
    {
      "channel": 1,
      "note": 80,
      "start": 79.8232,
      "duration": 0.0179,
      "velocity": 127,
      "chip": "ym2612"
    },
    {
      "channel": 0,
      "note": 44,
      "start": 79.8249,
      "duration": 0.0179,
      "velocity": 115,
      "chip": "ym2612"
    },
    {
      "channel": 5,
      "note": 94,
      "start": 79.8261,
      "duration": 0.018,
      "velocity": 101,
      "chip": "ym2612"
    },
    {
      "channel": 4,
      "note": 97,
      "start": 79.8273,
      "duration": 0.018,
      "velocity": 101,
      "chip": "ym2612"
    },
    {
      "channel": 3,
      "note": 102,
      "start": 79.8285,
      "duration": 0.018,
      "velocity": 101,
      "chip": "ym2612"
    },
    {
      "channel": 2,
      "note": 61,
      "start": 79.8296,
      "duration": 0.0183,
      "velocity": 100,
      "chip": "ym2612"
    },
    {
      "channel": 1,
      "note": 88,
      "start": 79.8411,
      "duration": 0.0143,
      "velocity": 127,
      "chip": "ym2612"
    },
    {
      "channel": 0,
      "note": 44,
      "start": 79.8429,
      "duration": 0.0143,
      "velocity": 115,
      "chip": "ym2612"
    },
    {
      "channel": 5,
      "note": 94,
      "start": 79.8441,
      "duration": 0.0143,
      "velocity": 101,
      "chip": "ym2612"
    },
    {
      "channel": 4,
      "note": 97,
      "start": 79.8453,
      "duration": 0.0143,
      "velocity": 101,
      "chip": "ym2612"
    },
    {
      "channel": 3,
      "note": 102,
      "start": 79.8465,
      "duration": 0.0143,
      "velocity": 101,
      "chip": "ym2612"
    },
    {
      "channel": 2,
      "note": 66,
      "start": 79.848,
      "duration": 0.0141,
      "velocity": 100,
      "chip": "ym2612"
    },
    {
      "channel": 1,
      "note": 86,
      "start": 79.8555,
      "duration": 0.016,
      "velocity": 127,
      "chip": "ym2612"
    },
    {
      "channel": 0,
      "note": 45,
      "start": 79.8572,
      "duration": 0.016,
      "velocity": 115,
      "chip": "ym2612"
    },
    {
      "channel": 5,
      "note": 94,
      "start": 79.8584,
      "duration": 0.016,
      "velocity": 101,
      "chip": "ym2612"
    },
    {
      "channel": 4,
      "note": 97,
      "start": 79.8596,
      "duration": 0.016,
      "velocity": 101,
      "chip": "ym2612"
    },
    {
      "channel": 3,
      "note": 102,
      "start": 79.8608,
      "duration": 0.016,
      "velocity": 101,
      "chip": "ym2612"
    },
    {
      "channel": 2,
      "note": 66,
      "start": 79.862,
      "duration": 0.016,
      "velocity": 100,
      "chip": "ym2612"
    },
    {
      "channel": 1,
      "note": 85,
      "start": 79.8715,
      "duration": 0.0161,
      "velocity": 127,
      "chip": "ym2612"
    },
    {
      "channel": 0,
      "note": 45,
      "start": 79.8732,
      "duration": 0.0161,
      "velocity": 115,
      "chip": "ym2612"
    },
    {
      "channel": 5,
      "note": 94,
      "start": 79.8744,
      "duration": 0.0161,
      "velocity": 101,
      "chip": "ym2612"
    },
    {
      "channel": 4,
      "note": 97,
      "start": 79.8756,
      "duration": 0.0161,
      "velocity": 101,
      "chip": "ym2612"
    },
    {
      "channel": 3,
      "note": 102,
      "start": 79.8768,
      "duration": 0.0161,
      "velocity": 101,
      "chip": "ym2612"
    },
    {
      "channel": 2,
      "note": 66,
      "start": 79.878,
      "duration": 0.0161,
      "velocity": 100,
      "chip": "ym2612"
    },
    {
      "channel": 1,
      "note": 83,
      "start": 79.8876,
      "duration": 0.0162,
      "velocity": 127,
      "chip": "ym2612"
    },
    {
      "channel": 0,
      "note": 46,
      "start": 79.8893,
      "duration": 0.0162,
      "velocity": 115,
      "chip": "ym2612"
    },
    {
      "channel": 5,
      "note": 94,
      "start": 79.8905,
      "duration": 0.0162,
      "velocity": 101,
      "chip": "ym2612"
    },
    {
      "channel": 4,
      "note": 97,
      "start": 79.8917,
      "duration": 0.0161,
      "velocity": 101,
      "chip": "ym2612"
    },
    {
      "channel": 3,
      "note": 102,
      "start": 79.8929,
      "duration": 0.0161,
      "velocity": 101,
      "chip": "ym2612"
    },
    {
      "channel": 2,
      "note": 66,
      "start": 79.8941,
      "duration": 0.0162,
      "velocity": 100,
      "chip": "ym2612"
    },
    {
      "channel": 1,
      "note": 81,
      "start": 79.9037,
      "duration": 0.0163,
      "velocity": 127,
      "chip": "ym2612"
    },
    {
      "channel": 0,
      "note": 46,
      "start": 79.9055,
      "duration": 0.0163,
      "velocity": 115,
      "chip": "ym2612"
    },
    {
      "channel": 5,
      "note": 94,
      "start": 79.9067,
      "duration": 0.0163,
      "velocity": 101,
      "chip": "ym2612"
    },
    {
      "channel": 4,
      "note": 97,
      "start": 79.9079,
      "duration": 0.0163,
      "velocity": 101,
      "chip": "ym2612"
    },
    {
      "channel": 3,
      "note": 102,
      "start": 79.9091,
      "duration": 0.0163,
      "velocity": 101,
      "chip": "ym2612"
    },
    {
      "channel": 2,
      "note": 66,
      "start": 79.9102,
      "duration": 0.0163,
      "velocity": 100,
      "chip": "ym2612"
    },
    {
      "channel": 1,
      "note": 80,
      "start": 79.92,
      "duration": 0.0163,
      "velocity": 127,
      "chip": "ym2612"
    },
    {
      "channel": 0,
      "note": 47,
      "start": 79.9217,
      "duration": 0.0163,
      "velocity": 115,
      "chip": "ym2612"
    },
    {
      "channel": 5,
      "note": 94,
      "start": 79.9229,
      "duration": 0.0163,
      "velocity": 101,
      "chip": "ym2612"
    },
    {
      "channel": 4,
      "note": 97,
      "start": 79.9241,
      "duration": 0.0163,
      "velocity": 101,
      "chip": "ym2612"
    },
    {
      "channel": 3,
      "note": 102,
      "start": 79.9254,
      "duration": 0.0163,
      "velocity": 101,
      "chip": "ym2612"
    },
    {
      "channel": 2,
      "note": 66,
      "start": 79.9265,
      "duration": 0.0163,
      "velocity": 100,
      "chip": "ym2612"
    },
    {
      "channel": 1,
      "note": 78,
      "start": 79.9364,
      "duration": 0.0181,
      "velocity": 127,
      "chip": "ym2612"
    },
    {
      "channel": 0,
      "note": 47,
      "start": 79.9381,
      "duration": 0.0181,
      "velocity": 115,
      "chip": "ym2612"
    },
    {
      "channel": 5,
      "note": 94,
      "start": 79.9392,
      "duration": 0.0183,
      "velocity": 101,
      "chip": "ym2612"
    },
    {
      "channel": 4,
      "note": 97,
      "start": 79.9405,
      "duration": 0.0183,
      "velocity": 101,
      "chip": "ym2612"
    },
    {
      "channel": 3,
      "note": 102,
      "start": 79.9417,
      "duration": 0.0184,
      "velocity": 101,
      "chip": "ym2612"
    },
    {
      "channel": 2,
      "note": 66,
      "start": 79.9428,
      "duration": 0.0186,
      "velocity": 100,
      "chip": "ym2612"
    },
    {
      "channel": 1,
      "note": 84,
      "start": 79.9545,
      "duration": 0.0142,
      "velocity": 127,
      "chip": "ym2612"
    },
    {
      "channel": 0,
      "note": 47,
      "start": 79.9562,
      "duration": 0.0143,
      "velocity": 115,
      "chip": "ym2612"
    },
    {
      "channel": 5,
      "note": 94,
      "start": 79.9575,
      "duration": 0.0143,
      "velocity": 101,
      "chip": "ym2612"
    },
    {
      "channel": 4,
      "note": 97,
      "start": 79.9588,
      "duration": 0.0142,
      "velocity": 101,
      "chip": "ym2612"
    },
    {
      "channel": 3,
      "note": 102,
      "start": 79.96,
      "duration": 0.0142,
      "velocity": 101,
      "chip": "ym2612"
    },
    {
      "channel": 2,
      "note": 64,
      "start": 79.9615,
      "duration": 0.0139,
      "velocity": 100,
      "chip": "ym2612"
    },
    {
      "channel": 1,
      "note": 82,
      "start": 79.9688,
      "duration": 0.016,
      "velocity": 127,
      "chip": "ym2612"
    },
    {
      "channel": 0,
      "note": 48,
      "start": 79.9705,
      "duration": 0.016,
      "velocity": 115,
      "chip": "ym2612"
    },
    {
      "channel": 5,
      "note": 94,
      "start": 79.9717,
      "duration": 0.016,
      "velocity": 101,
      "chip": "ym2612"
    },
    {
      "channel": 4,
      "note": 97,
      "start": 79.9729,
      "duration": 0.0161,
      "velocity": 101,
      "chip": "ym2612"
    },
    {
      "channel": 3,
      "note": 102,
      "start": 79.9742,
      "duration": 0.0161,
      "velocity": 101,
      "chip": "ym2612"
    },
    {
      "channel": 2,
      "note": 64,
      "start": 79.9754,
      "duration": 0.016,
      "velocity": 100,
      "chip": "ym2612"
    },
    {
      "channel": 1,
      "note": 81,
      "start": 79.9848,
      "duration": 0.0155,
      "velocity": 127,
      "chip": "ym2612"
    },
    {
      "channel": 0,
      "note": 48,
      "start": 79.9865,
      "duration": 0.0161,
      "velocity": 115,
      "chip": "ym2612"
    },
    {
      "channel": 5,
      "note": 94,
      "start": 79.9878,
      "duration": 0.0161,
      "velocity": 101,
      "chip": "ym2612"
    },
    {
      "channel": 4,
      "note": 97,
      "start": 79.989,
      "duration": 0.0161,
      "velocity": 101,
      "chip": "ym2612"
    },
    {
      "channel": 3,
      "note": 102,
      "start": 79.9903,
      "duration": 0.016,
      "velocity": 101,
      "chip": "ym2612"
    },
    {
      "channel": 2,
      "note": 64,
      "start": 79.9915,
      "duration": 0.016,
      "velocity": 100,
      "chip": "ym2612"
    },
    {
      "channel": 1,
      "note": 79,
      "start": 80.0003,
      "duration": 0.0161,
      "velocity": 127,
      "chip": "ym2612"
    },
    {
      "channel": 0,
      "note": 49,
      "start": 80.0026,
      "duration": 0.015,
      "velocity": 1,
      "chip": "ym2612"
    },
    {
      "channel": 5,
      "note": 94,
      "start": 80.0039,
      "duration": 0.0153,
      "velocity": 101,
      "chip": "ym2612"
    },
    {
      "channel": 4,
      "note": 97,
      "start": 80.0051,
      "duration": 0.0153,
      "velocity": 101,
      "chip": "ym2612"
    },
    {
      "channel": 3,
      "note": 102,
      "start": 80.0063,
      "duration": 0.0153,
      "velocity": 101,
      "chip": "ym2612"
    },
    {
      "channel": 2,
      "note": 64,
      "start": 80.0075,
      "duration": 0.0153,
      "velocity": 100,
      "chip": "ym2612"
    },
    {
      "channel": 1,
      "note": 77,
      "start": 80.0164,
      "duration": 0.0161,
      "velocity": 127,
      "chip": "ym2612"
    },
    {
      "channel": 5,
      "note": 94,
      "start": 80.0191,
      "duration": 0.0146,
      "velocity": 101,
      "chip": "ym2612"
    },
    {
      "channel": 4,
      "note": 97,
      "start": 80.0204,
      "duration": 0.0151,
      "velocity": 101,
      "chip": "ym2612"
    },
    {
      "channel": 3,
      "note": 102,
      "start": 80.0217,
      "duration": 0.0151,
      "velocity": 101,
      "chip": "ym2612"
    },
    {
      "channel": 2,
      "note": 64,
      "start": 80.0228,
      "duration": 0.0151,
      "velocity": 100,
      "chip": "ym2612"
    },
    {
      "channel": 1,
      "note": 76,
      "start": 80.0325,
      "duration": 0.018,
      "velocity": 127,
      "chip": "ym2612"
    },
    {
      "channel": 5,
      "note": 94,
      "start": 80.0338,
      "duration": 0.0186,
      "velocity": 101,
      "chip": "ym2612"
    },
    {
      "channel": 4,
      "note": 97,
      "start": 80.0356,
      "duration": 0.018,
      "velocity": 101,
      "chip": "ym2612"
    },
    {
      "channel": 3,
      "note": 102,
      "start": 80.0368,
      "duration": 0.018,
      "velocity": 101,
      "chip": "ym2612"
    },
    {
      "channel": 2,
      "note": 64,
      "start": 80.0379,
      "duration": 0.0183,
      "velocity": 100,
      "chip": "ym2612"
    },
    {
      "channel": 1,
      "note": 84,
      "start": 80.0507,
      "duration": 0.0141,
      "velocity": 127,
      "chip": "ym2612"
    },
    {
      "channel": 5,
      "note": 94,
      "start": 80.0523,
      "duration": 0.0137,
      "velocity": 101,
      "chip": "ym2612"
    },
    {
      "channel": 4,
      "note": 97,
      "start": 80.0535,
      "duration": 0.0139,
      "velocity": 101,
      "chip": "ym2612"
    },
    {
      "channel": 3,
      "note": 102,
      "start": 80.0548,
      "duration": 0.0142,
      "velocity": 101,
      "chip": "ym2612"
    },
    {
      "channel": 2,
      "note": 63,
      "start": 80.0561,
      "duration": 0.0141,
      "velocity": 100,
      "chip": "ym2612"
    },
    {
      "channel": 1,
      "note": 82,
      "start": 80.0648,
      "duration": 0.016,
      "velocity": 127,
      "chip": "ym2612"
    },
    {
      "channel": 5,
      "note": 94,
      "start": 80.066,
      "duration": 0.016,
      "velocity": 101,
      "chip": "ym2612"
    },
    {
      "channel": 4,
      "note": 97,
      "start": 80.0674,
      "duration": 0.0159,
      "velocity": 101,
      "chip": "ym2612"
    },
    {
      "channel": 3,
      "note": 102,
      "start": 80.0689,
      "duration": 0.016,
      "velocity": 101,
      "chip": "ym2612"
    },
    {
      "channel": 2,
      "note": 63,
      "start": 80.0702,
      "duration": 0.016,
      "velocity": 100,
      "chip": "ym2612"
    },
    {
      "channel": 1,
      "note": 81,
      "start": 80.0808,
      "duration": 0.0161,
      "velocity": 127,
      "chip": "ym2612"
    },
    {
      "channel": 5,
      "note": 94,
      "start": 80.082,
      "duration": 0.0161,
      "velocity": 101,
      "chip": "ym2612"
    },
    {
      "channel": 4,
      "note": 97,
      "start": 80.0833,
      "duration": 0.0161,
      "velocity": 101,
      "chip": "ym2612"
    },
    {
      "channel": 3,
      "note": 102,
      "start": 80.085,
      "duration": 0.0158,
      "velocity": 101,
      "chip": "ym2612"
    },
    {
      "channel": 2,
      "note": 63,
      "start": 80.0862,
      "duration": 0.0161,
      "velocity": 100,
      "chip": "ym2612"
    },
    {
      "channel": 1,
      "note": 79,
      "start": 80.0969,
      "duration": 0.0161,
      "velocity": 127,
      "chip": "ym2612"
    },
    {
      "channel": 5,
      "note": 94,
      "start": 80.0981,
      "duration": 0.0161,
      "velocity": 101,
      "chip": "ym2612"
    },
    {
      "channel": 4,
      "note": 97,
      "start": 80.0993,
      "duration": 0.0161,
      "velocity": 101,
      "chip": "ym2612"
    },
    {
      "channel": 3,
      "note": 102,
      "start": 80.1007,
      "duration": 0.016,
      "velocity": 101,
      "chip": "ym2612"
    },
    {
      "channel": 2,
      "note": 63,
      "start": 80.1023,
      "duration": 0.016,
      "velocity": 100,
      "chip": "ym2612"
    },
    {
      "channel": 1,
      "note": 77,
      "start": 80.113,
      "duration": 0.0161,
      "velocity": 127,
      "chip": "ym2612"
    },
    {
      "channel": 5,
      "note": 94,
      "start": 80.1142,
      "duration": 0.0161,
      "velocity": 101,
      "chip": "ym2612"
    },
    {
      "channel": 4,
      "note": 97,
      "start": 80.1154,
      "duration": 0.0162,
      "velocity": 101,
      "chip": "ym2612"
    },
    {
      "channel": 3,
      "note": 102,
      "start": 80.1167,
      "duration": 0.0161,
      "velocity": 101,
      "chip": "ym2612"
    },
    {
      "channel": 2,
      "note": 63,
      "start": 80.1184,
      "duration": 0.0158,
      "velocity": 100,
      "chip": "ym2612"
    },
    {
      "channel": 1,
      "note": 76,
      "start": 80.1291,
      "duration": 0.0161,
      "velocity": 127,
      "chip": "ym2612"
    },
    {
      "channel": 5,
      "note": 94,
      "start": 80.1304,
      "duration": 0.0162,
      "velocity": 101,
      "chip": "ym2612"
    },
    {
      "channel": 4,
      "note": 97,
      "start": 80.1316,
      "duration": 0.0162,
      "velocity": 101,
      "chip": "ym2612"
    },
    {
      "channel": 3,
      "note": 102,
      "start": 80.1328,
      "duration": 0.0163,
      "velocity": 101,
      "chip": "ym2612"
    },
    {
      "channel": 2,
      "note": 63,
      "start": 80.1341,
      "duration": 0.0161,
      "velocity": 100,
      "chip": "ym2612"
    },
    {
      "channel": 1,
      "note": 74,
      "start": 80.1452,
      "duration": 0.018,
      "velocity": 127,
      "chip": "ym2612"
    },
    {
      "channel": 5,
      "note": 94,
      "start": 80.1466,
      "duration": 0.018,
      "velocity": 101,
      "chip": "ym2612"
    },
    {
      "channel": 4,
      "note": 97,
      "start": 80.1478,
      "duration": 0.018,
      "velocity": 101,
      "chip": "ym2612"
    },
    {
      "channel": 3,
      "note": 102,
      "start": 80.1491,
      "duration": 0.018,
      "velocity": 101,
      "chip": "ym2612"
    },
    {
      "channel": 2,
      "note": 63,
      "start": 80.1502,
      "duration": 0.0189,
      "velocity": 100,
      "chip": "ym2612"
    },
    {
      "channel": 1,
      "note": 78,
      "start": 80.1632,
      "duration": 0.0142,
      "velocity": 127,
      "chip": "ym2612"
    },
    {
      "channel": 5,
      "note": 94,
      "start": 80.1646,
      "duration": 0.0142,
      "velocity": 101,
      "chip": "ym2612"
    },
    {
      "channel": 4,
      "note": 97,
      "start": 80.1658,
      "duration": 0.0142,
      "velocity": 101,
      "chip": "ym2612"
    },
    {
      "channel": 3,
      "note": 102,
      "start": 80.1671,
      "duration": 0.0142,
      "velocity": 101,
      "chip": "ym2612"
    },
    {
      "channel": 2,
      "note": 61,
      "start": 80.1691,
      "duration": 0.0135,
      "velocity": 100,
      "chip": "ym2612"
    },
    {
      "channel": 1,
      "note": 76,
      "start": 80.1775,
      "duration": 0.016,
      "velocity": 127,
      "chip": "ym2612"
    },
    {
      "channel": 5,
      "note": 94,
      "start": 80.1788,
      "duration": 0.016,
      "velocity": 101,
      "chip": "ym2612"
    },
    {
      "channel": 4,
      "note": 97,
      "start": 80.1801,
      "duration": 0.016,
      "velocity": 101,
      "chip": "ym2612"
    },
    {
      "channel": 3,
      "note": 102,
      "start": 80.1813,
      "duration": 0.016,
      "velocity": 101,
      "chip": "ym2612"
    },
    {
      "channel": 2,
      "note": 61,
      "start": 80.1826,
      "duration": 0.016,
      "velocity": 100,
      "chip": "ym2612"
    },
    {
      "channel": 1,
      "note": 75,
      "start": 80.1935,
      "duration": 0.0161,
      "velocity": 127,
      "chip": "ym2612"
    },
    {
      "channel": 5,
      "note": 94,
      "start": 80.1948,
      "duration": 0.0161,
      "velocity": 101,
      "chip": "ym2612"
    },
    {
      "channel": 4,
      "note": 97,
      "start": 80.1961,
      "duration": 0.0161,
      "velocity": 101,
      "chip": "ym2612"
    },
    {
      "channel": 3,
      "note": 102,
      "start": 80.1974,
      "duration": 0.0161,
      "velocity": 101,
      "chip": "ym2612"
    },
    {
      "channel": 2,
      "note": 61,
      "start": 80.1986,
      "duration": 0.0161,
      "velocity": 100,
      "chip": "ym2612"
    },
    {
      "channel": 1,
      "note": 73,
      "start": 80.2096,
      "duration": 0.0161,
      "velocity": 127,
      "chip": "ym2612"
    },
    {
      "channel": 5,
      "note": 94,
      "start": 80.2109,
      "duration": 0.0161,
      "velocity": 101,
      "chip": "ym2612"
    },
    {
      "channel": 4,
      "note": 97,
      "start": 80.2122,
      "duration": 0.0161,
      "velocity": 101,
      "chip": "ym2612"
    },
    {
      "channel": 3,
      "note": 102,
      "start": 80.2135,
      "duration": 0.0162,
      "velocity": 101,
      "chip": "ym2612"
    },
    {
      "channel": 2,
      "note": 61,
      "start": 80.2147,
      "duration": 0.0161,
      "velocity": 100,
      "chip": "ym2612"
    },
    {
      "channel": 1,
      "note": 71,
      "start": 80.2257,
      "duration": 0.0161,
      "velocity": 127,
      "chip": "ym2612"
    },
    {
      "channel": 5,
      "note": 94,
      "start": 80.227,
      "duration": 0.0161,
      "velocity": 101,
      "chip": "ym2612"
    },
    {
      "channel": 4,
      "note": 97,
      "start": 80.2283,
      "duration": 0.0161,
      "velocity": 101,
      "chip": "ym2612"
    },
    {
      "channel": 3,
      "note": 102,
      "start": 80.2296,
      "duration": 0.0161,
      "velocity": 101,
      "chip": "ym2612"
    },
    {
      "channel": 2,
      "note": 61,
      "start": 80.2308,
      "duration": 0.0162,
      "velocity": 100,
      "chip": "ym2612"
    },
    {
      "channel": 1,
      "note": 70,
      "start": 80.2418,
      "duration": 0.0179,
      "velocity": 127,
      "chip": "ym2612"
    },
    {
      "channel": 5,
      "note": 94,
      "start": 80.2432,
      "duration": 0.018,
      "velocity": 101,
      "chip": "ym2612"
    },
    {
      "channel": 4,
      "note": 97,
      "start": 80.2444,
      "duration": 0.018,
      "velocity": 101,
      "chip": "ym2612"
    },
    {
      "channel": 3,
      "note": 102,
      "start": 80.2457,
      "duration": 0.018,
      "velocity": 101,
      "chip": "ym2612"
    },
    {
      "channel": 2,
      "note": 61,
      "start": 80.2469,
      "duration": 0.0182,
      "velocity": 100,
      "chip": "ym2612"
    },
    {
      "channel": 1,
      "note": 78,
      "start": 80.2598,
      "duration": 0.0143,
      "velocity": 127,
      "chip": "ym2612"
    },
    {
      "channel": 5,
      "note": 94,
      "start": 80.2612,
      "duration": 0.0142,
      "velocity": 101,
      "chip": "ym2612"
    },
    {
      "channel": 4,
      "note": 97,
      "start": 80.2624,
      "duration": 0.0143,
      "velocity": 101,
      "chip": "ym2612"
    },
    {
      "channel": 3,
      "note": 102,
      "start": 80.2637,
      "duration": 0.0143,
      "velocity": 101,
      "chip": "ym2612"
    },
    {
      "channel": 2,
      "note": 54,
      "start": 80.2652,
      "duration": 0.014,
      "velocity": 100,
      "chip": "ym2612"
    },
    {
      "channel": 1,
      "note": 76,
      "start": 80.2741,
      "duration": 0.016,
      "velocity": 127,
      "chip": "ym2612"
    },
    {
      "channel": 5,
      "note": 94,
      "start": 80.2754,
      "duration": 0.016,
      "velocity": 101,
      "chip": "ym2612"
    },
    {
      "channel": 4,
      "note": 97,
      "start": 80.2767,
      "duration": 0.016,
      "velocity": 101,
      "chip": "ym2612"
    },
    {
      "channel": 3,
      "note": 102,
      "start": 80.278,
      "duration": 0.016,
      "velocity": 101,
      "chip": "ym2612"
    },
    {
      "channel": 2,
      "note": 54,
      "start": 80.2792,
      "duration": 0.016,
      "velocity": 100,
      "chip": "ym2612"
    },
    {
      "channel": 1,
      "note": 75,
      "start": 80.2901,
      "duration": 0.0161,
      "velocity": 127,
      "chip": "ym2612"
    },
    {
      "channel": 5,
      "note": 94,
      "start": 80.2915,
      "duration": 0.0161,
      "velocity": 101,
      "chip": "ym2612"
    },
    {
      "channel": 4,
      "note": 97,
      "start": 80.2927,
      "duration": 0.0161,
      "velocity": 101,
      "chip": "ym2612"
    },
    {
      "channel": 3,
      "note": 102,
      "start": 80.294,
      "duration": 0.0161,
      "velocity": 101,
      "chip": "ym2612"
    },
    {
      "channel": 2,
      "note": 54,
      "start": 80.2951,
      "duration": 0.0162,
      "velocity": 100,
      "chip": "ym2612"
    },
    {
      "channel": 1,
      "note": 73,
      "start": 80.3062,
      "duration": 0.0161,
      "velocity": 127,
      "chip": "ym2612"
    },
    {
      "channel": 2,
      "note": 54,
      "start": 80.3113,
      "duration": 0.016,
      "velocity": 100,
      "chip": "ym2612"
    },
    {
      "channel": 1,
      "note": 71,
      "start": 80.3223,
      "duration": 0.0161,
      "velocity": 127,
      "chip": "ym2612"
    },
    {
      "channel": 2,
      "note": 54,
      "start": 80.3273,
      "duration": 0.0161,
      "velocity": 100,
      "chip": "ym2612"
    },
    {
      "channel": 1,
      "note": 70,
      "start": 80.3384,
      "duration": 0.0161,
      "velocity": 127,
      "chip": "ym2612"
    },
    {
      "channel": 2,
      "note": 54,
      "start": 80.3434,
      "duration": 0.0161,
      "velocity": 100,
      "chip": "ym2612"
    },
    {
      "channel": 1,
      "note": 68,
      "start": 80.3546,
      "duration": 0.0153,
      "velocity": 1,
      "chip": "ym2612"
    },
    {
      "channel": 2,
      "note": 54,
      "start": 80.3595,
      "duration": 0.0139,
      "velocity": 100,
      "chip": "ym2612"
    },
    {
      "channel": 0,
      "note": 36,
      "start": 80.3734,
      "duration": 0.0,
      "velocity": 115,
      "chip": "ym2612"
    }
  ]
}