{
  "track_name": "04 - DammBad",
  "duration_sec": 125.35,
  "sample_rate": 44100,
  "note_count": 2813,
  "unique_pitches": 34,
  "pitch_range": 50,
  "avg_note_duration": 0.1263,
  "reconstruction_stats": {
    "notes_reconstructed": 2813,
    "keyon_events": 2813,
    "keyoff_events": 2813,
    "orphan_keyons": 0,
    "unique_pitches": 34,
    "pitch_range": 50,
    "avg_duration_sec": 0.1263
  },
  "metadata": {
    "source": "R\\Rolling Thunder 3\\04 - DammBad.vgz"
  },
  "notes": [
    {
      "channel": 0,
      "note": 71,
      "start": 0.2967,
      "duration": 0.0779,
      "velocity": 102,
      "chip": "ym2612"
    },
    {
      "channel": 1,
      "note": 68,
      "start": 0.2978,
      "duration": 0.0938,
      "velocity": 102,
      "chip": "ym2612"
    },
    {
      "channel": 2,
      "note": 83,
      "start": 0.299,
      "duration": 0.0761,
      "velocity": 102,
      "chip": "ym2612"
    },
    {
      "channel": 3,
      "note": 80,
      "start": 0.3003,
      "duration": 0.0921,
      "velocity": 102,
      "chip": "ym2612"
    },
    {
      "channel": 4,
      "note": 59,
      "start": 0.3015,
      "duration": 0.0745,
      "velocity": 102,
      "chip": "ym2612"
    },
    {
      "channel": 0,
      "note": 65,
      "start": 0.4092,
      "duration": 0.0821,
      "velocity": 102,
      "chip": "ym2612"
    },
    {
      "channel": 1,
      "note": 49,
      "start": 0.4101,
      "duration": 0.0982,
      "velocity": 102,
      "chip": "ym2612"
    },
    {
      "channel": 2,
      "note": 77,
      "start": 0.4109,
      "duration": 0.081,
      "velocity": 102,
      "chip": "ym2612"
    },
    {
      "channel": 3,
      "note": 61,
      "start": 0.4118,
      "duration": 0.0973,
      "velocity": 102,
      "chip": "ym2612"
    },
    {
      "channel": 4,
      "note": 53,
      "start": 0.4126,
      "duration": 0.08,
      "velocity": 102,
      "chip": "ym2612"
    },
    {
      "channel": 0,
      "note": 68,
      "start": 0.5258,
      "duration": 0.082,
      "velocity": 102,
      "chip": "ym2612"
    },
    {
      "channel": 1,
      "note": 53,
      "start": 0.5266,
      "duration": 0.0983,
      "velocity": 102,
      "chip": "ym2612"
    },
    {
      "channel": 2,
      "note": 80,
      "start": 0.5275,
      "duration": 0.081,
      "velocity": 102,
      "chip": "ym2612"
    },
    {
      "channel": 3,
      "note": 65,
      "start": 0.5283,
      "duration": 0.0974,
      "velocity": 102,
      "chip": "ym2612"
    },
    {
      "channel": 4,
      "note": 56,
      "start": 0.5292,
      "duration": 0.08,
      "velocity": 102,
      "chip": "ym2612"
    },
    {
      "channel": 0,
      "note": 71,
      "start": 0.6424,
      "duration": 0.0822,
      "velocity": 102,
      "chip": "ym2612"
    },
    {
      "channel": 1,
      "note": 56,
      "start": 0.6433,
      "duration": 0.0983,
      "velocity": 102,
      "chip": "ym2612"
    },
    {
      "channel": 2,
      "note": 83,
      "start": 0.6441,
      "duration": 0.0811,
      "velocity": 102,
      "chip": "ym2612"
    },
    {
      "channel": 3,
      "note": 68,
      "start": 0.645,
      "duration": 0.0974,
      "velocity": 102,
      "chip": "ym2612"
    },
    {
      "channel": 4,
      "note": 59,
      "start": 0.6459,
      "duration": 0.0801,
      "velocity": 102,
      "chip": "ym2612"
    },
    {
      "channel": 0,
      "note": 73,
      "start": 0.7591,
      "duration": 0.082,
      "velocity": 102,
      "chip": "ym2612"
    },
    {
      "channel": 1,
      "note": 58,
      "start": 0.7599,
      "duration": 0.0983,
      "velocity": 102,
      "chip": "ym2612"
    },
    {
      "channel": 2,
      "note": 85,
      "start": 0.7608,
      "duration": 0.081,
      "velocity": 102,
      "chip": "ym2612"
    },
    {
      "channel": 3,
      "note": 70,
      "start": 0.7617,
      "duration": 0.0974,
      "velocity": 102,
      "chip": "ym2612"
    },
    {
      "channel": 4,
      "note": 61,
      "start": 0.7625,
      "duration": 0.08,
      "velocity": 102,
      "chip": "ym2612"
    },
    {
      "channel": 0,
      "note": 77,
      "start": 0.8757,
      "duration": 0.0822,
      "velocity": 102,
      "chip": "ym2612"
    },
    {
      "channel": 1,
      "note": 61,
      "start": 0.8766,
      "duration": 0.0983,
      "velocity": 102,
      "chip": "ym2612"
    },
    {
      "channel": 2,
      "note": 89,
      "start": 0.8774,
      "duration": 0.0812,
      "velocity": 102,
      "chip": "ym2612"
    },
    {
      "channel": 3,
      "note": 73,
      "start": 0.8783,
      "duration": 0.0975,
      "velocity": 102,
      "chip": "ym2612"
    },
    {
      "channel": 4,
      "note": 65,
      "start": 0.8792,
      "duration": 0.0801,
      "velocity": 102,
      "chip": "ym2612"
    },
    {
      "channel": 0,
      "note": 73,
      "start": 0.9924,
      "duration": 0.0821,
      "velocity": 102,
      "chip": "ym2612"
    },
    {
      "channel": 1,
      "note": 58,
      "start": 0.9933,
      "duration": 0.0983,
      "velocity": 102,
      "chip": "ym2612"
    },
    {
      "channel": 2,
      "note": 85,
      "start": 0.9941,
      "duration": 0.0811,
      "velocity": 102,
      "chip": "ym2612"
    },
    {
      "channel": 3,
      "note": 70,
      "start": 0.995,
      "duration": 0.0975,
      "velocity": 102,
      "chip": "ym2612"
    },
    {
      "channel": 4,
      "note": 61,
      "start": 0.9959,
      "duration": 0.08,
      "velocity": 102,
      "chip": "ym2612"
    },
    {
      "channel": 0,
      "note": 71,
      "start": 1.1091,
      "duration": 0.0821,
      "velocity": 102,
      "chip": "ym2612"
    },
    {
      "channel": 1,
      "note": 56,
      "start": 1.11,
      "duration": 0.0983,
      "velocity": 102,
      "chip": "ym2612"
    },
    {
      "channel": 2,
      "note": 83,
      "start": 1.1108,
      "duration": 0.0811,
      "velocity": 102,
      "chip": "ym2612"
    },
    {
      "channel": 3,
      "note": 68,
      "start": 1.1117,
      "duration": 0.0973,
      "velocity": 102,
      "chip": "ym2612"
    },
    {
      "channel": 4,
      "note": 59,
      "start": 1.1125,
      "duration": 0.08,
      "velocity": 102,
      "chip": "ym2612"
    },
    {
      "channel": 0,
      "note": 68,
      "start": 1.2258,
      "duration": 0.0821,
      "velocity": 102,
      "chip": "ym2612"
    },
    {
      "channel": 1,
      "note": 53,
      "start": 1.2267,
      "duration": 0.0983,
      "velocity": 102,
      "chip": "ym2612"
    },
    {
      "channel": 2,
      "note": 80,
      "start": 1.2275,
      "duration": 0.081,
      "velocity": 102,
      "chip": "ym2612"
    },
    {
      "channel": 3,
      "note": 65,
      "start": 1.2284,
      "duration": 0.0973,
      "velocity": 102,
      "chip": "ym2612"
    },
    {
      "channel": 4,
      "note": 56,
      "start": 1.2293,
      "duration": 0.08,
      "velocity": 102,
      "chip": "ym2612"
    },
    {
      "channel": 0,
      "note": 71,
      "start": 1.3424,
      "duration": 0.0822,
      "velocity": 102,
      "chip": "ym2612"
    },
    {
      "channel": 1,
      "note": 56,
      "start": 1.3432,
      "duration": 0.0985,
      "velocity": 102,
      "chip": "ym2612"
    },
    {
      "channel": 2,
      "note": 83,
      "start": 1.3441,
      "duration": 0.0811,
      "velocity": 102,
      "chip": "ym2612"
    },
    {
      "channel": 3,
      "note": 68,
      "start": 1.345,
      "duration": 0.0975,
      "velocity": 102,
      "chip": "ym2612"
    },
    {
      "channel": 4,
      "note": 59,
      "start": 1.3458,
      "duration": 0.0801,
      "velocity": 102,
      "chip": "ym2612"
    },
    {
      "channel": 0,
      "note": 73,
      "start": 1.4591,
      "duration": 0.0821,
      "velocity": 102,
      "chip": "ym2612"
    },
    {
      "channel": 1,
      "note": 58,
      "start": 1.46,
      "duration": 0.0983,
      "velocity": 102,
      "chip": "ym2612"
    },
    {
      "channel": 2,
      "note": 85,
      "start": 1.4608,
      "duration": 0.0811,
      "velocity": 102,
      "chip": "ym2612"
    },
    {
      "channel": 3,
      "note": 70,
      "start": 1.4617,
      "duration": 0.0973,
      "velocity": 102,
      "chip": "ym2612"
    },
    {
      "channel": 4,
      "note": 61,
      "start": 1.4626,
      "duration": 0.08,
      "velocity": 102,
      "chip": "ym2612"
    },
    {
      "channel": 0,
      "note": 77,
      "start": 1.5757,
      "duration": 0.0822,
      "velocity": 102,
      "chip": "ym2612"
    },
    {
      "channel": 1,
      "note": 61,
      "start": 1.5765,
      "duration": 0.0983,
      "velocity": 102,
      "chip": "ym2612"
    },
    {
      "channel": 2,
      "note": 89,
      "start": 1.5774,
      "duration": 0.0811,
      "velocity": 102,
      "chip": "ym2612"
    },
    {
      "channel": 3,
      "note": 73,
      "start": 1.5783,
      "duration": 0.0974,
      "velocity": 102,
      "chip": "ym2612"
    },
    {
      "channel": 4,
      "note": 65,
      "start": 1.5791,
      "duration": 0.0801,
      "velocity": 102,
      "chip": "ym2612"
    },
    {
      "channel": 0,
      "note": 80,
      "start": 1.6924,
      "duration": 0.0822,
      "velocity": 102,
      "chip": "ym2612"
    },
    {
      "channel": 1,
      "note": 65,
      "start": 1.6933,
      "duration": 0.0983,
      "velocity": 102,
      "chip": "ym2612"
    },
    {
      "channel": 2,
      "note": 92,
      "start": 1.6941,
      "duration": 0.0811,
      "velocity": 102,
      "chip": "ym2612"
    },
    {
      "channel": 3,
      "note": 77,
      "start": 1.695,
      "duration": 0.0974,
      "velocity": 102,
      "chip": "ym2612"
    },
    {
      "channel": 4,
      "note": 68,
      "start": 1.6958,
      "duration": 0.0801,
      "velocity": 102,
      "chip": "ym2612"
    },
    {
      "channel": 0,
      "note": 77,
      "start": 1.809,
      "duration": 0.0822,
      "velocity": 102,
      "chip": "ym2612"
    },
    {
      "channel": 1,
      "note": 61,
      "start": 1.8099,
      "duration": 0.0984,
      "velocity": 102,
      "chip": "ym2612"
    },
    {
      "channel": 2,
      "note": 89,
      "start": 1.8107,
      "duration": 0.0811,
      "velocity": 102,
      "chip": "ym2612"
    },
    {
      "channel": 3,
      "note": 73,
      "start": 1.8116,
      "duration": 0.0975,
      "velocity": 102,
      "chip": "ym2612"
    },
    {
      "channel": 4,
      "note": 65,
      "start": 1.8125,
      "duration": 0.0801,
      "velocity": 102,
      "chip": "ym2612"
    },
    {
      "channel": 0,
      "note": 83,
      "start": 1.9258,
      "duration": 0.082,
      "velocity": 102,
      "chip": "ym2612"
    },
    {
      "channel": 1,
      "note": 68,
      "start": 1.9266,
      "duration": 0.0983,
      "velocity": 102,
      "chip": "ym2612"
    },
    {
      "channel": 2,
      "note": 95,
      "start": 1.9275,
      "duration": 0.081,
      "velocity": 102,
      "chip": "ym2612"
    },
    {
      "channel": 3,
      "note": 80,
      "start": 1.9284,
      "duration": 0.0973,
      "velocity": 102,
      "chip": "ym2612"
    },
    {
      "channel": 4,
      "note": 71,
      "start": 1.9293,
      "duration": 0.0799,
      "velocity": 102,
      "chip": "ym2612"
    },
    {
      "channel": 0,
      "note": 85,
      "start": 2.0443,
      "duration": 0.0705,
      "velocity": 102,
      "chip": "ym2612"
    },
    {
      "channel": 1,
      "note": 61,
      "start": 2.0457,
      "duration": 0.0697,
      "velocity": 102,
      "chip": "ym2612"
    },
    {
      "channel": 2,
      "note": 97,
      "start": 2.0469,
      "duration": 0.069,
      "velocity": 102,
      "chip": "ym2612"
    },
    {
      "channel": 3,
      "note": 61,
      "start": 2.048,
      "duration": 0.0684,
      "velocity": 102,
      "chip": "ym2612"
    },
    {
      "channel": 4,
      "note": 61,
      "start": 2.0524,
      "duration": 0.0397,
      "velocity": 97,
      "chip": "ym2612"
    },
    {
      "channel": 1,
      "note": 61,
      "start": 2.1328,
      "duration": 0.0897,
      "velocity": 90,
      "chip": "ym2612"
    },
    {
      "channel": 2,
      "note": 85,
      "start": 2.1375,
      "duration": 0.0855,
      "velocity": 89,
      "chip": "ym2612"
    },
    {
      "channel": 3,
      "note": 61,
      "start": 2.1424,
      "duration": 0.0474,
      "velocity": 91,
      "chip": "ym2612"
    },
    {
      "channel": 4,
      "note": 61,
      "start": 2.1433,
      "duration": 0.0469,
      "velocity": 97,
      "chip": "ym2612"
    },
    {
      "channel": 1,
      "note": 61,
      "start": 2.2405,
      "duration": 0.0987,
      "velocity": 90,
      "chip": "ym2612"
    },
    {
      "channel": 2,
      "note": 85,
      "start": 2.2414,
      "duration": 0.0983,
      "velocity": 89,
      "chip": "ym2612"
    },
    {
      "channel": 3,
      "note": 61,
      "start": 2.2423,
      "duration": 0.0642,
      "velocity": 91,
      "chip": "ym2612"
    },
    {
      "channel": 4,
      "note": 61,
      "start": 2.2432,
      "duration": 0.0637,
      "velocity": 97,
      "chip": "ym2612"
    },
    {
      "channel": 1,
      "note": 61,
      "start": 2.3571,
      "duration": 0.0987,
      "velocity": 90,
      "chip": "ym2612"
    },
    {
      "channel": 2,
      "note": 85,
      "start": 2.358,
      "duration": 0.0983,
      "velocity": 89,
      "chip": "ym2612"
    },
    {
      "channel": 3,
      "note": 61,
      "start": 2.3589,
      "duration": 0.0643,
      "velocity": 91,
      "chip": "ym2612"
    },
    {
      "channel": 4,
      "note": 61,
      "start": 2.3597,
      "duration": 0.0639,
      "velocity": 97,
      "chip": "ym2612"
    },
    {
      "channel": 4,
      "note": 61,
      "start": 2.4764,
      "duration": 0.0435,
      "velocity": 97,
      "chip": "ym2612"
    },
    {
      "channel": 1,
      "note": 61,
      "start": 2.5509,
      "duration": 0.0929,
      "velocity": 90,
      "chip": "ym2612"
    },
    {
      "channel": 2,
      "note": 85,
      "start": 2.5521,
      "duration": 0.0922,
      "velocity": 89,
      "chip": "ym2612"
    },
    {
      "channel": 3,
      "note": 61,
      "start": 2.5532,
      "duration": 0.0579,
      "velocity": 91,
      "chip": "ym2612"
    },
    {
      "channel": 4,
      "note": 61,
      "start": 2.5545,
      "duration": 0.057,
      "velocity": 97,
      "chip": "ym2612"
    },
    {
      "channel": 1,
      "note": 61,
      "start": 2.6618,
      "duration": 0.0987,
      "velocity": 90,
      "chip": "ym2612"
    },
    {
      "channel": 2,
      "note": 85,
      "start": 2.6627,
      "duration": 0.0982,
      "velocity": 89,
      "chip": "ym2612"
    },
    {
      "channel": 3,
      "note": 61,
      "start": 2.6637,
      "duration": 0.0641,
      "velocity": 91,
      "chip": "ym2612"
    },
    {
      "channel": 4,
      "note": 61,
      "start": 2.6646,
      "duration": 0.0636,
      "velocity": 97,
      "chip": "ym2612"
    },
    {
      "channel": 1,
      "note": 61,
      "start": 2.7794,
      "duration": 0.0691,
      "velocity": 90,
      "chip": "ym2612"
    },
    {
      "channel": 2,
      "note": 85,
      "start": 2.7808,
      "duration": 0.0682,
      "velocity": 89,
      "chip": "ym2612"
    },
    {
      "channel": 3,
      "note": 61,
      "start": 2.7819,
      "duration": 0.0439,
      "velocity": 91,
      "chip": "ym2612"
    },
    {
      "channel": 4,
      "note": 61,
      "start": 2.7831,
      "duration": 0.0432,
      "velocity": 97,
      "chip": "ym2612"
    },
    {
      "channel": 4,
      "note": 61,
      "start": 2.8631,
      "duration": 0.0599,
      "velocity": 97,
      "chip": "ym2612"
    },
    {
      "channel": 1,
      "note": 61,
      "start": 2.974,
      "duration": 0.0988,
      "velocity": 90,
      "chip": "ym2612"
    },
    {
      "channel": 2,
      "note": 85,
      "start": 2.9749,
      "duration": 0.0983,
      "velocity": 89,
      "chip": "ym2612"
    },
    {
      "channel": 3,
      "note": 61,
      "start": 2.9757,
      "duration": 0.0644,
      "velocity": 91,
      "chip": "ym2612"
    },
    {
      "channel": 4,
      "note": 61,
      "start": 2.9766,
      "duration": 0.0639,
      "velocity": 97,
      "chip": "ym2612"
    },
    {
      "channel": 1,
      "note": 61,
      "start": 3.0907,
      "duration": 0.0988,
      "velocity": 90,
      "chip": "ym2612"
    },
    {
      "channel": 2,
      "note": 85,
      "start": 3.0916,
      "duration": 0.0983,
      "velocity": 89,
      "chip": "ym2612"
    },
    {
      "channel": 3,
      "note": 61,
      "start": 3.0924,
      "duration": 0.0642,
      "velocity": 91,
      "chip": "ym2612"
    },
    {
      "channel": 4,
      "note": 61,
      "start": 3.0933,
      "duration": 0.0637,
      "velocity": 97,
      "chip": "ym2612"
    },
    {
      "channel": 1,
      "note": 61,
      "start": 3.2073,
      "duration": 0.0988,
      "velocity": 90,
      "chip": "ym2612"
    },
    {
      "channel": 2,
      "note": 85,
      "start": 3.2082,
      "duration": 0.0983,
      "velocity": 89,
      "chip": "ym2612"
    },
    {
      "channel": 3,
      "note": 61,
      "start": 3.209,
      "duration": 0.0644,
      "velocity": 91,
      "chip": "ym2612"
    },
    {
      "channel": 4,
      "note": 61,
      "start": 3.2099,
      "duration": 0.0639,
      "velocity": 97,
      "chip": "ym2612"
    },
    {
      "channel": 4,
      "note": 61,
      "start": 3.3254,
      "duration": 0.0642,
      "velocity": 97,
      "chip": "ym2612"
    },
    {
      "channel": 1,
      "note": 61,
      "start": 3.4407,
      "duration": 0.0987,
      "velocity": 90,
      "chip": "ym2612"
    },
    {
      "channel": 2,
      "note": 85,
      "start": 3.4416,
      "duration": 0.0983,
      "velocity": 89,
      "chip": "ym2612"
    },
    {
      "channel": 3,
      "note": 61,
      "start": 3.4424,
      "duration": 0.0642,
      "velocity": 91,
      "chip": "ym2612"
    },
    {
      "channel": 4,
      "note": 61,
      "start": 3.4433,
      "duration": 0.0637,
      "velocity": 97,
      "chip": "ym2612"
    },
    {
      "channel": 1,
      "note": 61,
      "start": 3.5574,
      "duration": 0.0988,
      "velocity": 90,
      "chip": "ym2612"
    },
    {
      "channel": 2,
      "note": 85,
      "start": 3.5583,
      "duration": 0.0983,
      "velocity": 89,
      "chip": "ym2612"
    },
    {
      "channel": 3,
      "note": 61,
      "start": 3.5591,
      "duration": 0.0643,
      "velocity": 91,
      "chip": "ym2612"
    },
    {
      "channel": 4,
      "note": 61,
      "start": 3.56,
      "duration": 0.0638,
      "velocity": 97,
      "chip": "ym2612"
    },
    {
      "channel": 1,
      "note": 61,
      "start": 3.6741,
      "duration": 0.0987,
      "velocity": 90,
      "chip": "ym2612"
    },
    {
      "channel": 2,
      "note": 85,
      "start": 3.6749,
      "duration": 0.0983,
      "velocity": 89,
      "chip": "ym2612"
    },
    {
      "channel": 3,
      "note": 61,
      "start": 3.6758,
      "duration": 0.0643,
      "velocity": 91,
      "chip": "ym2612"
    },
    {
      "channel": 4,
      "note": 61,
      "start": 3.6767,
      "duration": 0.0638,
      "velocity": 97,
      "chip": "ym2612"
    },
    {
      "channel": 4,
      "note": 61,
      "start": 3.8105,
      "duration": 0.0298,
      "velocity": 97,
      "chip": "ym2612"
    },
    {
      "channel": 1,
      "note": 49,
      "start": 3.8756,
      "duration": 0.0944,
      "velocity": 90,
      "chip": "ym2612"
    },
    {
      "channel": 2,
      "note": 85,
      "start": 3.8768,
      "duration": 0.0936,
      "velocity": 89,
      "chip": "ym2612"
    },
    {
      "channel": 3,
      "note": 73,
      "start": 3.878,
      "duration": 0.0593,
      "velocity": 91,
      "chip": "ym2612"
    },
    {
      "channel": 4,
      "note": 61,
      "start": 3.8791,
      "duration": 0.0585,
      "velocity": 97,
      "chip": "ym2612"
    },
    {
      "channel": 1,
      "note": 49,
      "start": 3.988,
      "duration": 0.0987,
      "velocity": 90,
      "chip": "ym2612"
    },
    {
      "channel": 2,
      "note": 85,
      "start": 3.9888,
      "duration": 0.0982,
      "velocity": 89,
      "chip": "ym2612"
    },
    {
      "channel": 3,
      "note": 73,
      "start": 3.9898,
      "duration": 0.0642,
      "velocity": 91,
      "chip": "ym2612"
    },
    {
      "channel": 4,
      "note": 61,
      "start": 3.9906,
      "duration": 0.0638,
      "velocity": 97,
      "chip": "ym2612"
    },
    {
      "channel": 1,
      "note": 49,
      "start": 4.1046,
      "duration": 0.0989,
      "velocity": 90,
      "chip": "ym2612"
    },
    {
      "channel": 2,
      "note": 85,
      "start": 4.1055,
      "duration": 0.0983,
      "velocity": 89,
      "chip": "ym2612"
    },
    {
      "channel": 3,
      "note": 73,
      "start": 4.1063,
      "duration": 0.0644,
      "velocity": 91,
      "chip": "ym2612"
    },
    {
      "channel": 4,
      "note": 61,
      "start": 4.1072,
      "duration": 0.0639,
      "velocity": 97,
      "chip": "ym2612"
    },
    {
      "channel": 4,
      "note": 61,
      "start": 4.2226,
      "duration": 0.0643,
      "velocity": 97,
      "chip": "ym2612"
    },
    {
      "channel": 1,
      "note": 49,
      "start": 4.3379,
      "duration": 0.0988,
      "velocity": 90,
      "chip": "ym2612"
    },
    {
      "channel": 2,
      "note": 85,
      "start": 4.3388,
      "duration": 0.0983,
      "velocity": 89,
      "chip": "ym2612"
    },
    {
      "channel": 3,
      "note": 73,
      "start": 4.3396,
      "duration": 0.0643,
      "velocity": 91,
      "chip": "ym2612"
    },
    {
      "channel": 4,
      "note": 61,
      "start": 4.3405,
      "duration": 0.0638,
      "velocity": 97,
      "chip": "ym2612"
    },
    {
      "channel": 1,
      "note": 49,
      "start": 4.4546,
      "duration": 0.0988,
      "velocity": 90,
      "chip": "ym2612"
    },
    {
      "channel": 2,
      "note": 85,
      "start": 4.4555,
      "duration": 0.0983,
      "velocity": 89,
      "chip": "ym2612"
    },
    {
      "channel": 3,
      "note": 73,
      "start": 4.4563,
      "duration": 0.0642,
      "velocity": 91,
      "chip": "ym2612"
    },
    {
      "channel": 4,
      "note": 61,
      "start": 4.4572,
      "duration": 0.0638,
      "velocity": 97,
      "chip": "ym2612"
    },
    {
      "channel": 1,
      "note": 49,
      "start": 4.5724,
      "duration": 0.071,
      "velocity": 90,
      "chip": "ym2612"
    },
    {
      "channel": 2,
      "note": 85,
      "start": 4.5737,
      "duration": 0.0701,
      "velocity": 89,
      "chip": "ym2612"
    },
    {
      "channel": 3,
      "note": 73,
      "start": 4.5749,
      "duration": 0.0453,
      "velocity": 91,
      "chip": "ym2612"
    },
    {
      "channel": 4,
      "note": 61,
      "start": 4.5762,
      "duration": 0.0446,
      "velocity": 97,
      "chip": "ym2612"
    },
    {
      "channel": 4,
      "note": 61,
      "start": 4.6581,
      "duration": 0.0598,
      "velocity": 97,
      "chip": "ym2612"
    },
    {
      "channel": 1,
      "note": 49,
      "start": 4.769,
      "duration": 0.0987,
      "velocity": 90,
      "chip": "ym2612"
    },
    {
      "channel": 2,
      "note": 85,
      "start": 4.7698,
      "duration": 0.0983,
      "velocity": 89,
      "chip": "ym2612"
    },
    {
      "channel": 3,
      "note": 73,
      "start": 4.7707,
      "duration": 0.0643,
      "velocity": 91,
      "chip": "ym2612"
    },
    {
      "channel": 4,
      "note": 61,
      "start": 4.7715,
      "duration": 0.0639,
      "velocity": 97,
      "chip": "ym2612"
    },
    {
      "channel": 1,
      "note": 49,
      "start": 4.8856,
      "duration": 0.0987,
      "velocity": 90,
      "chip": "ym2612"
    },
    {
      "channel": 2,
      "note": 85,
      "start": 4.8865,
      "duration": 0.0982,
      "velocity": 89,
      "chip": "ym2612"
    },
    {
      "channel": 3,
      "note": 73,
      "start": 4.8873,
      "duration": 0.0643,
      "velocity": 91,
      "chip": "ym2612"
    },
    {
      "channel": 4,
      "note": 61,
      "start": 4.8882,
      "duration": 0.0638,
      "velocity": 97,
      "chip": "ym2612"
    },
    {
      "channel": 1,
      "note": 49,
      "start": 5.0023,
      "duration": 0.0987,
      "velocity": 90,
      "chip": "ym2612"
    },
    {
      "channel": 2,
      "note": 85,
      "start": 5.0031,
      "duration": 0.0983,
      "velocity": 89,
      "chip": "ym2612"
    },
    {
      "channel": 3,
      "note": 73,
      "start": 5.004,
      "duration": 0.0643,
      "velocity": 91,
      "chip": "ym2612"
    },
    {
      "channel": 4,
      "note": 61,
      "start": 5.0049,
      "duration": 0.0638,
      "velocity": 97,
      "chip": "ym2612"
    },
    {
      "channel": 4,
      "note": 61,
      "start": 5.1202,
      "duration": 0.0643,
      "velocity": 97,
      "chip": "ym2612"
    },
    {
      "channel": 1,
      "note": 49,
      "start": 5.2356,
      "duration": 0.0987,
      "velocity": 90,
      "chip": "ym2612"
    },
    {
      "channel": 2,
      "note": 85,
      "start": 5.2365,
      "duration": 0.0983,
      "velocity": 89,
      "chip": "ym2612"
    },
    {
      "channel": 3,
      "note": 73,
      "start": 5.2373,
      "duration": 0.0643,
      "velocity": 91,
      "chip": "ym2612"
    },
    {
      "channel": 4,
      "note": 61,
      "start": 5.2382,
      "duration": 0.0638,
      "velocity": 97,
      "chip": "ym2612"
    },
    {
      "channel": 1,
      "note": 49,
      "start": 5.3523,
      "duration": 0.0988,
      "velocity": 90,
      "chip": "ym2612"
    },
    {
      "channel": 2,
      "note": 85,
      "start": 5.3532,
      "duration": 0.0983,
      "velocity": 89,
      "chip": "ym2612"
    },
    {
      "channel": 3,
      "note": 73,
      "start": 5.354,
      "duration": 0.0643,
      "velocity": 91,
      "chip": "ym2612"
    },
    {
      "channel": 4,
      "note": 61,
      "start": 5.3549,
      "duration": 0.0638,
      "velocity": 97,
      "chip": "ym2612"
    },
    {
      "channel": 1,
      "note": 49,
      "start": 5.469,
      "duration": 0.0987,
      "velocity": 90,
      "chip": "ym2612"
    },
    {
      "channel": 2,
      "note": 85,
      "start": 5.4698,
      "duration": 0.0983,
      "velocity": 89,
      "chip": "ym2612"
    },
    {
      "channel": 3,
      "note": 73,
      "start": 5.4707,
      "duration": 0.0643,
      "velocity": 91,
      "chip": "ym2612"
    },
    {
      "channel": 4,
      "note": 61,
      "start": 5.4716,
      "duration": 0.0638,
      "velocity": 97,
      "chip": "ym2612"
    },
    {
      "channel": 0,
      "note": 71,
      "start": 5.5883,
      "duration": 0.0461,
      "velocity": 102,
      "chip": "ym2612"
    },
    {
      "channel": 1,
      "note": 71,
      "start": 5.593,
      "duration": 0.0418,
      "velocity": 102,
      "chip": "ym2612"
    },
    {
      "channel": 4,
      "note": 59,
      "start": 5.6062,
      "duration": 0.0295,
      "velocity": 102,
      "chip": "ym2612"
    },
    {
      "channel": 1,
      "note": 61,
      "start": 5.6753,
      "duration": 0.0894,
      "velocity": 90,
      "chip": "ym2612"
    },
    {
      "channel": 2,
      "note": 85,
      "start": 5.6765,
      "duration": 0.0885,
      "velocity": 89,
      "chip": "ym2612"
    },
    {
      "channel": 3,
      "note": 73,
      "start": 5.6778,
      "duration": 0.0541,
      "velocity": 91,
      "chip": "ym2612"
    },
    {
      "channel": 4,
      "note": 61,
      "start": 5.6828,
      "duration": 0.083,
      "velocity": 97,
      "chip": "ym2612"
    },
    {
      "channel": 1,
      "note": 61,
      "start": 5.7825,
      "duration": 0.0988,
      "velocity": 90,
      "chip": "ym2612"
    },
    {
      "channel": 2,
      "note": 85,
      "start": 5.7834,
      "duration": 0.0983,
      "velocity": 89,
      "chip": "ym2612"
    },
    {
      "channel": 3,
      "note": 73,
      "start": 5.7843,
      "duration": 0.0642,
      "velocity": 91,
      "chip": "ym2612"
    },
    {
      "channel": 4,
      "note": 61,
      "start": 5.7851,
      "duration": 0.0973,
      "velocity": 97,
      "chip": "ym2612"
    },
    {
      "channel": 0,
      "note": 73,
      "start": 5.9008,
      "duration": 0.0468,
      "velocity": 102,
      "chip": "ym2612"
    },
    {
      "channel": 1,
      "note": 73,
      "start": 5.9055,
      "duration": 0.0427,
      "velocity": 102,
      "chip": "ym2612"
    },
    {
      "channel": 2,
      "note": 85,
      "start": 5.9068,
      "duration": 0.0663,
      "velocity": 89,
      "chip": "ym2612"
    },
    {
      "channel": 3,
      "note": 73,
      "start": 5.9079,
      "duration": 0.0412,
      "velocity": 91,
      "chip": "ym2612"
    },
    {
      "channel": 4,
      "note": 61,
      "start": 5.913,
      "duration": 0.0367,
      "velocity": 102,
      "chip": "ym2612"
    },
    {
      "channel": 4,
      "note": 61,
      "start": 5.9964,
      "duration": 0.0603,
      "velocity": 97,
      "chip": "ym2612"
    },
    {
      "channel": 1,
      "note": 61,
      "start": 6.0694,
      "duration": 0.0912,
      "velocity": 90,
      "chip": "ym2612"
    },
    {
      "channel": 2,
      "note": 85,
      "start": 6.0706,
      "duration": 0.0905,
      "velocity": 89,
      "chip": "ym2612"
    },
    {
      "channel": 3,
      "note": 73,
      "start": 6.0718,
      "duration": 0.0562,
      "velocity": 91,
      "chip": "ym2612"
    },
    {
      "channel": 1,
      "note": 61,
      "start": 6.1787,
      "duration": 0.0987,
      "velocity": 90,
      "chip": "ym2612"
    },
    {
      "channel": 2,
      "note": 85,
      "start": 6.1797,
      "duration": 0.0982,
      "velocity": 89,
      "chip": "ym2612"
    },
    {
      "channel": 3,
      "note": 73,
      "start": 6.1806,
      "duration": 0.0641,
      "velocity": 91,
      "chip": "ym2612"
    },
    {
      "channel": 4,
      "note": 61,
      "start": 6.1816,
      "duration": 0.0971,
      "velocity": 97,
      "chip": "ym2612"
    },
    {
      "channel": 1,
      "note": 61,
      "start": 6.2964,
      "duration": 0.0693,
      "velocity": 90,
      "chip": "ym2612"
    },
    {
      "channel": 2,
      "note": 85,
      "start": 6.2978,
      "duration": 0.0685,
      "velocity": 89,
      "chip": "ym2612"
    },
    {
      "channel": 3,
      "note": 73,
      "start": 6.2989,
      "duration": 0.0451,
      "velocity": 91,
      "chip": "ym2612"
    },
    {
      "channel": 4,
      "note": 61,
      "start": 6.3002,
      "duration": 0.0672,
      "velocity": 97,
      "chip": "ym2612"
    },
    {
      "channel": 4,
      "note": 61,
      "start": 6.381,
      "duration": 0.0932,
      "velocity": 97,
      "chip": "ym2612"
    },
    {
      "channel": 1,
      "note": 61,
      "start": 6.4919,
      "duration": 0.0988,
      "velocity": 90,
      "chip": "ym2612"
    },
    {
      "channel": 2,
      "note": 85,
      "start": 6.4928,
      "duration": 0.0983,
      "velocity": 89,
      "chip": "ym2612"
    },
    {
      "channel": 3,
      "note": 73,
      "start": 6.4936,
      "duration": 0.0643,
      "velocity": 91,
      "chip": "ym2612"
    },
    {
      "channel": 1,
      "note": 61,
      "start": 6.6086,
      "duration": 0.0989,
      "velocity": 90,
      "chip": "ym2612"
    },
    {
      "channel": 2,
      "note": 85,
      "start": 6.6095,
      "duration": 0.0983,
      "velocity": 89,
      "chip": "ym2612"
    },
    {
      "channel": 3,
      "note": 73,
      "start": 6.6104,
      "duration": 0.0642,
      "velocity": 91,
      "chip": "ym2612"
    },
    {
      "channel": 4,
      "note": 61,
      "start": 6.6112,
      "duration": 0.0974,
      "velocity": 97,
      "chip": "ym2612"
    },
    {
      "channel": 1,
      "note": 61,
      "start": 6.7253,
      "duration": 0.0989,
      "velocity": 90,
      "chip": "ym2612"
    },
    {
      "channel": 2,
      "note": 85,
      "start": 6.7262,
      "duration": 0.0983,
      "velocity": 89,
      "chip": "ym2612"
    },
    {
      "channel": 3,
      "note": 73,
      "start": 6.727,
      "duration": 0.0643,
      "velocity": 91,
      "chip": "ym2612"
    },
    {
      "channel": 4,
      "note": 61,
      "start": 6.7279,
      "duration": 0.0973,
      "velocity": 97,
      "chip": "ym2612"
    },
    {
      "channel": 4,
      "note": 61,
      "start": 6.8433,
      "duration": 0.0976,
      "velocity": 97,
      "chip": "ym2612"
    },
    {
      "channel": 1,
      "note": 61,
      "start": 6.9586,
      "duration": 0.0987,
      "velocity": 90,
      "chip": "ym2612"
    },
    {
      "channel": 2,
      "note": 85,
      "start": 6.9595,
      "duration": 0.0982,
      "velocity": 89,
      "chip": "ym2612"
    },
    {
      "channel": 3,
      "note": 73,
      "start": 6.9603,
      "duration": 0.0643,
      "velocity": 91,
      "chip": "ym2612"
    },
    {
      "channel": 1,
      "note": 61,
      "start": 7.0754,
      "duration": 0.0987,
      "velocity": 90,
      "chip": "ym2612"
    },
    {
      "channel": 2,
      "note": 85,
      "start": 7.0762,
      "duration": 0.0983,
      "velocity": 89,
      "chip": "ym2612"
    },
    {
      "channel": 3,
      "note": 73,
      "start": 7.0771,
      "duration": 0.0642,
      "velocity": 91,
      "chip": "ym2612"
    },
    {
      "channel": 4,
      "note": 61,
      "start": 7.078,
      "duration": 0.0972,
      "velocity": 97,
      "chip": "ym2612"
    },
    {
      "channel": 0,
      "note": 65,
      "start": 7.1935,
      "duration": 0.0465,
      "velocity": 102,
      "chip": "ym2612"
    },
    {
      "channel": 1,
      "note": 77,
      "start": 7.1983,
      "duration": 0.0422,
      "velocity": 102,
      "chip": "ym2612"
    },
    {
      "channel": 2,
      "note": 85,
      "start": 7.1995,
      "duration": 0.0654,
      "velocity": 89,
      "chip": "ym2612"
    },
    {
      "channel": 3,
      "note": 73,
      "start": 7.2007,
      "duration": 0.0407,
      "velocity": 91,
      "chip": "ym2612"
    },
    {
      "channel": 4,
      "note": 65,
      "start": 7.2056,
      "duration": 0.0363,
      "velocity": 102,
      "chip": "ym2612"
    },
    {
      "channel": 4,
      "note": 61,
      "start": 7.2954,
      "duration": 0.0305,
      "velocity": 97,
      "chip": "ym2612"
    },
    {
      "channel": 1,
      "note": 49,
      "start": 7.3619,
      "duration": 0.0943,
      "velocity": 90,
      "chip": "ym2612"
    },
    {
      "channel": 2,
      "note": 85,
      "start": 7.3631,
      "duration": 0.0934,
      "velocity": 89,
      "chip": "ym2612"
    },
    {
      "channel": 3,
      "note": 73,
      "start": 7.3643,
      "duration": 0.0592,
      "velocity": 91,
      "chip": "ym2612"
    },
    {
      "channel": 4,
      "note": 61,
      "start": 7.3656,
      "duration": 0.0583,
      "velocity": 97,
      "chip": "ym2612"
    },
    {
      "channel": 1,
      "note": 49,
      "start": 7.4741,
      "duration": 0.0987,
      "velocity": 90,
      "chip": "ym2612"
    },
    {
      "channel": 2,
      "note": 85,
      "start": 7.475,
      "duration": 0.0982,
      "velocity": 89,
      "chip": "ym2612"
    },
    {
      "channel": 3,
      "note": 73,
      "start": 7.4759,
      "duration": 0.0642,
      "velocity": 91,
      "chip": "ym2612"
    },
    {
      "channel": 4,
      "note": 61,
      "start": 7.4767,
      "duration": 0.0637,
      "velocity": 97,
      "chip": "ym2612"
    },
    {
      "channel": 1,
      "note": 49,
      "start": 7.5908,
      "duration": 0.0987,
      "velocity": 90,
      "chip": "ym2612"
    },
    {
      "channel": 2,
      "note": 85,
      "start": 7.5917,
      "duration": 0.0982,
      "velocity": 89,
      "chip": "ym2612"
    },
    {
      "channel": 3,
      "note": 73,
      "start": 7.5925,
      "duration": 0.0643,
      "velocity": 91,
      "chip": "ym2612"
    },
    {
      "channel": 4,
      "note": 61,
      "start": 7.5934,
      "duration": 0.0638,
      "velocity": 97,
      "chip": "ym2612"
    },
    {
      "channel": 4,
      "note": 61,
      "start": 7.7087,
      "duration": 0.0643,
      "velocity": 97,
      "chip": "ym2612"
    },
    {
      "channel": 1,
      "note": 49,
      "start": 7.8241,
      "duration": 0.0987,
      "velocity": 90,
      "chip": "ym2612"
    },
    {
      "channel": 2,
      "note": 85,
      "start": 7.825,
      "duration": 0.0983,
      "velocity": 89,
      "chip": "ym2612"
    },
    {
      "channel": 3,
      "note": 73,
      "start": 7.8259,
      "duration": 0.0643,
      "velocity": 91,
      "chip": "ym2612"
    },
    {
      "channel": 4,
      "note": 61,
      "start": 7.8267,
      "duration": 0.0638,
      "velocity": 97,
      "chip": "ym2612"
    },
    {
      "channel": 1,
      "note": 49,
      "start": 7.9408,
      "duration": 0.0987,
      "velocity": 90,
      "chip": "ym2612"
    },
    {
      "channel": 2,
      "note": 85,
      "start": 7.9417,
      "duration": 0.0982,
      "velocity": 89,
      "chip": "ym2612"
    },
    {
      "channel": 3,
      "note": 73,
      "start": 7.9425,
      "duration": 0.0643,
      "velocity": 91,
      "chip": "ym2612"
    },
    {
      "channel": 4,
      "note": 61,
      "start": 7.9434,
      "duration": 0.0638,
      "velocity": 97,
      "chip": "ym2612"
    },
    {
      "channel": 1,
      "note": 49,
      "start": 8.0584,
      "duration": 0.071,
      "velocity": 90,
      "chip": "ym2612"
    },
    {
      "channel": 2,
      "note": 85,
      "start": 8.0598,
      "duration": 0.0702,
      "velocity": 89,
      "chip": "ym2612"
    },
    {
      "channel": 3,
      "note": 73,
      "start": 8.0611,
      "duration": 0.0452,
      "velocity": 91,
      "chip": "ym2612"
    },
    {
      "channel": 4,
      "note": 61,
      "start": 8.0622,
      "duration": 0.0446,
      "velocity": 97,
      "chip": "ym2612"
    },
    {
      "channel": 4,
      "note": 61,
      "start": 8.145,
      "duration": 0.0598,
      "velocity": 97,
      "chip": "ym2612"
    },
    {
      "channel": 1,
      "note": 49,
      "start": 8.2559,
      "duration": 0.0989,
      "velocity": 90,
      "chip": "ym2612"
    },
    {
      "channel": 2,
      "note": 85,
      "start": 8.2568,
      "duration": 0.0983,
      "velocity": 89,
      "chip": "ym2612"
    },
    {
      "channel": 3,
      "note": 73,
      "start": 8.2576,
      "duration": 0.0643,
      "velocity": 91,
      "chip": "ym2612"
    },
    {
      "channel": 4,
      "note": 61,
      "start": 8.2585,
      "duration": 0.0638,
      "velocity": 97,
      "chip": "ym2612"
    },
    {
      "channel": 1,
      "note": 49,
      "start": 8.3725,
      "duration": 0.0988,
      "velocity": 90,
      "chip": "ym2612"
    },
    {
      "channel": 2,
      "note": 85,
      "start": 8.3734,
      "duration": 0.0983,
      "velocity": 89,
      "chip": "ym2612"
    },
    {
      "channel": 3,
      "note": 73,
      "start": 8.3743,
      "duration": 0.0644,
      "velocity": 91,
      "chip": "ym2612"
    },
    {
      "channel": 4,
      "note": 61,
      "start": 8.3751,
      "duration": 0.0639,
      "velocity": 97,
      "chip": "ym2612"
    },
    {
      "channel": 1,
      "note": 49,
      "start": 8.4892,
      "duration": 0.0988,
      "velocity": 90,
      "chip": "ym2612"
    },
    {
      "channel": 2,
      "note": 85,
      "start": 8.4901,
      "duration": 0.0983,
      "velocity": 89,
      "chip": "ym2612"
    },
    {
      "channel": 3,
      "note": 73,
      "start": 8.4909,
      "duration": 0.0644,
      "velocity": 91,
      "chip": "ym2612"
    },
    {
      "channel": 4,
      "note": 61,
      "start": 8.4918,
      "duration": 0.0639,
      "velocity": 97,
      "chip": "ym2612"
    },
    {
      "channel": 4,
      "note": 61,
      "start": 8.6072,
      "duration": 0.0643,
      "velocity": 97,
      "chip": "ym2612"
    },
    {
      "channel": 1,
      "note": 49,
      "start": 8.7225,
      "duration": 0.0988,
      "velocity": 90,
      "chip": "ym2612"
    },
    {
      "channel": 2,
      "note": 85,
      "start": 8.7234,
      "duration": 0.0983,
      "velocity": 89,
      "chip": "ym2612"
    },
    {
      "channel": 3,
      "note": 73,
      "start": 8.7243,
      "duration": 0.0644,
      "velocity": 91,
      "chip": "ym2612"
    },
    {
      "channel": 4,
      "note": 61,
      "start": 8.7251,
      "duration": 0.0639,
      "velocity": 97,
      "chip": "ym2612"
    },
    {
      "channel": 1,
      "note": 49,
      "start": 8.8393,
      "duration": 0.0987,
      "velocity": 90,
      "chip": "ym2612"
    },
    {
      "channel": 2,
      "note": 85,
      "start": 8.8402,
      "duration": 0.0982,
      "velocity": 89,
      "chip": "ym2612"
    },
    {
      "channel": 3,
      "note": 73,
      "start": 8.8411,
      "duration": 0.0642,
      "velocity": 91,
      "chip": "ym2612"
    },
    {
      "channel": 4,
      "note": 61,
      "start": 8.842,
      "duration": 0.0637,
      "velocity": 97,
      "chip": "ym2612"
    },
    {
      "channel": 1,
      "note": 49,
      "start": 8.9559,
      "duration": 0.0987,
      "velocity": 90,
      "chip": "ym2612"
    },
    {
      "channel": 2,
      "note": 85,
      "start": 8.9568,
      "duration": 0.0983,
      "velocity": 89,
      "chip": "ym2612"
    },
    {
      "channel": 3,
      "note": 73,
      "start": 8.9577,
      "duration": 0.0643,
      "velocity": 91,
      "chip": "ym2612"
    },
    {
      "channel": 4,
      "note": 61,
      "start": 8.9585,
      "duration": 0.0638,
      "velocity": 97,
      "chip": "ym2612"
    },
    {
      "channel": 0,
      "note": 71,
      "start": 9.0754,
      "duration": 0.0464,
      "velocity": 102,
      "chip": "ym2612"
    },
    {
      "channel": 1,
      "note": 71,
      "start": 9.0802,
      "duration": 0.0421,
      "velocity": 102,
      "chip": "ym2612"
    },
    {
      "channel": 4,
      "note": 59,
      "start": 9.0932,
      "duration": 0.0299,
      "velocity": 102,
      "chip": "ym2612"
    },
    {
      "channel": 1,
      "note": 61,
      "start": 9.1635,
      "duration": 0.0894,
      "velocity": 90,
      "chip": "ym2612"
    },
    {
      "channel": 2,
      "note": 85,
      "start": 9.1647,
      "duration": 0.0886,
      "velocity": 89,
      "chip": "ym2612"
    },
    {
      "channel": 3,
      "note": 73,
      "start": 9.166,
      "duration": 0.0543,
      "velocity": 91,
      "chip": "ym2612"
    },
    {
      "channel": 4,
      "note": 61,
      "start": 9.171,
      "duration": 0.0832,
      "velocity": 97,
      "chip": "ym2612"
    },
    {
      "channel": 1,
      "note": 61,
      "start": 9.2709,
      "duration": 0.0988,
      "velocity": 90,
      "chip": "ym2612"
    },
    {
      "channel": 2,
      "note": 85,
      "start": 9.2718,
      "duration": 0.0983,
      "velocity": 89,
      "chip": "ym2612"
    },
    {
      "channel": 3,
      "note": 73,
      "start": 9.2726,
      "duration": 0.0643,
      "velocity": 91,
      "chip": "ym2612"
    },
    {
      "channel": 4,
      "note": 61,
      "start": 9.2735,
      "duration": 0.0973,
      "velocity": 97,
      "chip": "ym2612"
    },
    {
      "channel": 0,
      "note": 73,
      "start": 9.3891,
      "duration": 0.0464,
      "velocity": 102,
      "chip": "ym2612"
    },
    {
      "channel": 1,
      "note": 73,
      "start": 9.3939,
      "duration": 0.0422,
      "velocity": 102,
      "chip": "ym2612"
    },
    {
      "channel": 2,
      "note": 85,
      "start": 9.3951,
      "duration": 0.0655,
      "velocity": 89,
      "chip": "ym2612"
    },
    {
      "channel": 3,
      "note": 73,
      "start": 9.3962,
      "duration": 0.0408,
      "velocity": 91,
      "chip": "ym2612"
    },
    {
      "channel": 4,
      "note": 61,
      "start": 9.4012,
      "duration": 0.0364,
      "velocity": 102,
      "chip": "ym2612"
    },
    {
      "channel": 1,
      "note": 61,
      "start": 9.4784,
      "duration": 0.0651,
      "velocity": 90,
      "chip": "ym2612"
    },
    {
      "channel": 4,
      "note": 61,
      "start": 9.4846,
      "duration": 0.0598,
      "velocity": 97,
      "chip": "ym2612"
    },
    {
      "channel": 1,
      "note": 61,
      "start": 9.5566,
      "duration": 0.0922,
      "velocity": 90,
      "chip": "ym2612"
    },
    {
      "channel": 2,
      "note": 85,
      "start": 9.5578,
      "duration": 0.0915,
      "velocity": 89,
      "chip": "ym2612"
    },
    {
      "channel": 3,
      "note": 73,
      "start": 9.559,
      "duration": 0.0572,
      "velocity": 91,
      "chip": "ym2612"
    },
    {
      "channel": 4,
      "note": 61,
      "start": 9.5601,
      "duration": 0.09,
      "velocity": 97,
      "chip": "ym2612"
    },
    {
      "channel": 1,
      "note": 61,
      "start": 9.6668,
      "duration": 0.0987,
      "velocity": 90,
      "chip": "ym2612"
    },
    {
      "channel": 2,
      "note": 85,
      "start": 9.6677,
      "duration": 0.0982,
      "velocity": 89,
      "chip": "ym2612"
    },
    {
      "channel": 3,
      "note": 73,
      "start": 9.6687,
      "duration": 0.0641,
      "velocity": 91,
      "chip": "ym2612"
    },
    {
      "channel": 4,
      "note": 61,
      "start": 9.6696,
      "duration": 0.0971,
      "velocity": 97,
      "chip": "ym2612"
    },
    {
      "channel": 2,
      "note": 85,
      "start": 9.7852,
      "duration": 0.069,
      "velocity": 89,
      "chip": "ym2612"
    },
    {
      "channel": 3,
      "note": 73,
      "start": 9.7864,
      "duration": 0.0447,
      "velocity": 91,
      "chip": "ym2612"
    },
    {
      "channel": 4,
      "note": 61,
      "start": 9.7876,
      "duration": 0.0678,
      "velocity": 97,
      "chip": "ym2612"
    },
    {
      "channel": 1,
      "note": 61,
      "start": 9.8672,
      "duration": 0.0955,
      "velocity": 90,
      "chip": "ym2612"
    },
    {
      "channel": 1,
      "note": 61,
      "start": 9.9807,
      "duration": 0.0987,
      "velocity": 90,
      "chip": "ym2612"
    },
    {
      "channel": 2,
      "note": 85,
      "start": 9.9816,
      "duration": 0.0983,
      "velocity": 89,
      "chip": "ym2612"
    },
    {
      "channel": 3,
      "note": 73,
      "start": 9.9825,
      "duration": 0.0643,
      "velocity": 91,
      "chip": "ym2612"
    },
    {
      "channel": 4,
      "note": 61,
      "start": 9.9834,
      "duration": 0.0973,
      "velocity": 97,
      "chip": "ym2612"
    },
    {
      "channel": 1,
      "note": 61,
      "start": 10.0974,
      "duration": 0.0987,
      "velocity": 90,
      "chip": "ym2612"
    },
    {
      "channel": 2,
      "note": 85,
      "start": 10.0983,
      "duration": 0.0982,
      "velocity": 89,
      "chip": "ym2612"
    },
    {
      "channel": 3,
      "note": 73,
      "start": 10.0991,
      "duration": 0.0643,
      "velocity": 91,
      "chip": "ym2612"
    },
    {
      "channel": 4,
      "note": 61,
      "start": 10.1,
      "duration": 0.0973,
      "velocity": 97,
      "chip": "ym2612"
    },
    {
      "channel": 2,
      "note": 85,
      "start": 10.2145,
      "duration": 0.0983,
      "velocity": 89,
      "chip": "ym2612"
    },
    {
      "channel": 3,
      "note": 73,
      "start": 10.2154,
      "duration": 0.0645,
      "velocity": 91,
      "chip": "ym2612"
    },
    {
      "channel": 4,
      "note": 61,
      "start": 10.2162,
      "duration": 0.0974,
      "velocity": 97,
      "chip": "ym2612"
    },
    {
      "channel": 1,
      "note": 61,
      "start": 10.3314,
      "duration": 0.0736,
      "velocity": 90,
      "chip": "ym2612"
    },
    {
      "channel": 1,
      "note": 61,
      "start": 10.4164,
      "duration": 0.0908,
      "velocity": 90,
      "chip": "ym2612"
    },
    {
      "channel": 2,
      "note": 85,
      "start": 10.4176,
      "duration": 0.0901,
      "velocity": 89,
      "chip": "ym2612"
    },
    {
      "channel": 3,
      "note": 73,
      "start": 10.4188,
      "duration": 0.0558,
      "velocity": 91,
      "chip": "ym2612"
    },
    {
      "channel": 4,
      "note": 61,
      "start": 10.4201,
      "duration": 0.0884,
      "velocity": 97,
      "chip": "ym2612"
    },
    {
      "channel": 1,
      "note": 61,
      "start": 10.526,
      "duration": 0.0669,
      "velocity": 90,
      "chip": "ym2612"
    },
    {
      "channel": 2,
      "note": 85,
      "start": 10.5271,
      "duration": 0.0662,
      "velocity": 89,
      "chip": "ym2612"
    },
    {
      "channel": 3,
      "note": 73,
      "start": 10.5283,
      "duration": 0.0417,
      "velocity": 91,
      "chip": "ym2612"
    },
    {
      "channel": 4,
      "note": 61,
      "start": 10.5296,
      "duration": 0.0648,
      "velocity": 97,
      "chip": "ym2612"
    },
    {
      "channel": 1,
      "note": 61,
      "start": 10.6039,
      "duration": 0.0702,
      "velocity": 90,
      "chip": "ym2612"
    },
    {
      "channel": 2,
      "note": 85,
      "start": 10.6051,
      "duration": 0.0695,
      "velocity": 89,
      "chip": "ym2612"
    },
    {
      "channel": 3,
      "note": 73,
      "start": 10.6062,
      "duration": 0.0449,
      "velocity": 91,
      "chip": "ym2612"
    },
    {
      "channel": 4,
      "note": 61,
      "start": 10.6076,
      "duration": 0.068,
      "velocity": 97,
      "chip": "ym2612"
    },
    {
      "channel": 4,
      "note": 61,
      "start": 10.7024,
      "duration": 0.0338,
      "velocity": 97,
      "chip": "ym2612"
    },
    {
      "channel": 1,
      "note": 49,
      "start": 10.7731,
      "duration": 0.0701,
      "velocity": 90,
      "chip": "ym2612"
    },
    {
      "channel": 2,
      "note": 85,
      "start": 10.7744,
      "duration": 0.0693,
      "velocity": 89,
      "chip": "ym2612"
    },
    {
      "channel": 3,
      "note": 73,
      "start": 10.7756,
      "duration": 0.0448,
      "velocity": 91,
      "chip": "ym2612"
    },
    {
      "channel": 4,
      "note": 61,
      "start": 10.7767,
      "duration": 0.0442,
      "velocity": 97,
      "chip": "ym2612"
    },
    {
      "channel": 1,
      "note": 49,
      "start": 10.8567,
      "duration": 0.0949,
      "velocity": 90,
      "chip": "ym2612"
    },
    {
      "channel": 2,
      "note": 85,
      "start": 10.858,
      "duration": 0.0939,
      "velocity": 89,
      "chip": "ym2612"
    },
    {
      "channel": 3,
      "note": 73,
      "start": 10.8593,
      "duration": 0.0596,
      "velocity": 91,
      "chip": "ym2612"
    },
    {
      "channel": 4,
      "note": 61,
      "start": 10.8604,
      "duration": 0.0588,
      "velocity": 97,
      "chip": "ym2612"
    },
    {
      "channel": 1,
      "note": 49,
      "start": 10.9694,
      "duration": 0.0988,
      "velocity": 90,
      "chip": "ym2612"
    },
    {
      "channel": 2,
      "note": 85,
      "start": 10.9703,
      "duration": 0.0983,
      "velocity": 89,
      "chip": "ym2612"
    },
    {
      "channel": 3,
      "note": 73,
      "start": 10.9712,
      "duration": 0.0643,
      "velocity": 91,
      "chip": "ym2612"
    },
    {
      "channel": 4,
      "note": 61,
      "start": 10.972,
      "duration": 0.0639,
      "velocity": 97,
      "chip": "ym2612"
    },
    {
      "channel": 4,
      "note": 61,
      "start": 11.0887,
      "duration": 0.0431,
      "velocity": 97,
      "chip": "ym2612"
    },
    {
      "channel": 1,
      "note": 49,
      "start": 11.1637,
      "duration": 0.074,
      "velocity": 90,
      "chip": "ym2612"
    },
    {
      "channel": 2,
      "note": 85,
      "start": 11.1649,
      "duration": 0.0732,
      "velocity": 89,
      "chip": "ym2612"
    },
    {
      "channel": 3,
      "note": 73,
      "start": 11.1662,
      "duration": 0.0446,
      "velocity": 91,
      "chip": "ym2612"
    },
    {
      "channel": 4,
      "note": 61,
      "start": 11.1674,
      "duration": 0.0439,
      "velocity": 97,
      "chip": "ym2612"
    },
    {
      "channel": 1,
      "note": 49,
      "start": 11.2556,
      "duration": 0.0987,
      "velocity": 90,
      "chip": "ym2612"
    },
    {
      "channel": 2,
      "note": 85,
      "start": 11.2566,
      "duration": 0.0982,
      "velocity": 89,
      "chip": "ym2612"
    },
    {
      "channel": 3,
      "note": 73,
      "start": 11.2576,
      "duration": 0.0641,
      "velocity": 91,
      "chip": "ym2612"
    },
    {
      "channel": 4,
      "note": 61,
      "start": 11.2585,
      "duration": 0.0635,
      "velocity": 97,
      "chip": "ym2612"
    },
    {
      "channel": 1,
      "note": 49,
      "start": 11.373,
      "duration": 0.0672,
      "velocity": 90,
      "chip": "ym2612"
    },
    {
      "channel": 2,
      "note": 85,
      "start": 11.3741,
      "duration": 0.0665,
      "velocity": 89,
      "chip": "ym2612"
    },
    {
      "channel": 3,
      "note": 73,
      "start": 11.3753,
      "duration": 0.0435,
      "velocity": 91,
      "chip": "ym2612"
    },
    {
      "channel": 4,
      "note": 61,
      "start": 11.3765,
      "duration": 0.0429,
      "velocity": 97,
      "chip": "ym2612"
    },
    {
      "channel": 4,
      "note": 61,
      "start": 11.4551,
      "duration": 0.0472,
      "velocity": 97,
      "chip": "ym2612"
    },
    {
      "channel": 1,
      "note": 49,
      "start": 11.5527,
      "duration": 0.0988,
      "velocity": 90,
      "chip": "ym2612"
    },
    {
      "channel": 2,
      "note": 85,
      "start": 11.5536,
      "duration": 0.0982,
      "velocity": 89,
      "chip": "ym2612"
    },
    {
      "channel": 3,
      "note": 73,
      "start": 11.5546,
      "duration": 0.0642,
      "velocity": 91,
      "chip": "ym2612"
    },
    {
      "channel": 4,
      "note": 61,
      "start": 11.5556,
      "duration": 0.0636,
      "velocity": 97,
      "chip": "ym2612"
    },
    {
      "channel": 1,
      "note": 49,
      "start": 11.6701,
      "duration": 0.0648,
      "velocity": 90,
      "chip": "ym2612"
    },
    {
      "channel": 2,
      "note": 85,
      "start": 11.6713,
      "duration": 0.0641,
      "velocity": 89,
      "chip": "ym2612"
    },
    {
      "channel": 3,
      "note": 73,
      "start": 11.6724,
      "duration": 0.0407,
      "velocity": 91,
      "chip": "ym2612"
    },
    {
      "channel": 4,
      "note": 61,
      "start": 11.6736,
      "duration": 0.04,
      "velocity": 97,
      "chip": "ym2612"
    },
    {
      "channel": 1,
      "note": 49,
      "start": 11.748,
      "duration": 0.0838,
      "velocity": 90,
      "chip": "ym2612"
    },
    {
      "channel": 2,
      "note": 85,
      "start": 11.7491,
      "duration": 0.0832,
      "velocity": 89,
      "chip": "ym2612"
    },
    {
      "channel": 3,
      "note": 73,
      "start": 11.7503,
      "duration": 0.0492,
      "velocity": 91,
      "chip": "ym2612"
    },
    {
      "channel": 4,
      "note": 61,
      "start": 11.7515,
      "duration": 0.0485,
      "velocity": 97,
      "chip": "ym2612"
    },
    {
      "channel": 4,
      "note": 61,
      "start": 11.8512,
      "duration": 0.0641,
      "velocity": 97,
      "chip": "ym2612"
    },
    {
      "channel": 1,
      "note": 49,
      "start": 11.9671,
      "duration": 0.0718,
      "velocity": 90,
      "chip": "ym2612"
    },
    {
      "channel": 2,
      "note": 85,
      "start": 11.9683,
      "duration": 0.0711,
      "velocity": 89,
      "chip": "ym2612"
    },
    {
      "channel": 3,
      "note": 73,
      "start": 11.9696,
      "duration": 0.0455,
      "velocity": 91,
      "chip": "ym2612"
    },
    {
      "channel": 4,
      "note": 61,
      "start": 11.9707,
      "duration": 0.0449,
      "velocity": 97,
      "chip": "ym2612"
    },
    {
      "channel": 1,
      "note": 49,
      "start": 12.0527,
      "duration": 0.0668,
      "velocity": 90,
      "chip": "ym2612"
    },
    {
      "channel": 2,
      "note": 85,
      "start": 12.0538,
      "duration": 0.0662,
      "velocity": 89,
      "chip": "ym2612"
    },
    {
      "channel": 3,
      "note": 73,
      "start": 12.055,
      "duration": 0.0414,
      "velocity": 91,
      "chip": "ym2612"
    },
    {
      "channel": 4,
      "note": 61,
      "start": 12.0563,
      "duration": 0.0406,
      "velocity": 97,
      "chip": "ym2612"
    },
    {
      "channel": 1,
      "note": 49,
      "start": 12.1312,
      "duration": 0.0718,
      "velocity": 90,
      "chip": "ym2612"
    },
    {
      "channel": 2,
      "note": 85,
      "start": 12.1324,
      "duration": 0.0711,
      "velocity": 89,
      "chip": "ym2612"
    },
    {
      "channel": 3,
      "note": 73,
      "start": 12.1336,
      "duration": 0.0455,
      "velocity": 91,
      "chip": "ym2612"
    },
    {
      "channel": 4,
      "note": 61,
      "start": 12.1348,
      "duration": 0.0449,
      "velocity": 97,
      "chip": "ym2612"
    },
    {
      "channel": 4,
      "note": 61,
      "start": 12.2346,
      "duration": 0.0285,
      "velocity": 97,
      "chip": "ym2612"
    },
    {
      "channel": 1,
      "note": 49,
      "start": 12.3007,
      "duration": 0.0667,
      "velocity": 90,
      "chip": "ym2612"
    },
    {
      "channel": 2,
      "note": 85,
      "start": 12.3018,
      "duration": 0.0661,
      "velocity": 89,
      "chip": "ym2612"
    },
    {
      "channel": 3,
      "note": 73,
      "start": 12.303,
      "duration": 0.046,
      "velocity": 91,
      "chip": "ym2612"
    },
    {
      "channel": 4,
      "note": 61,
      "start": 12.3042,
      "duration": 0.0454,
      "velocity": 97,
      "chip": "ym2612"
    },
    {
      "channel": 1,
      "note": 49,
      "start": 12.3786,
      "duration": 0.0696,
      "velocity": 90,
      "chip": "ym2612"
    },
    {
      "channel": 2,
      "note": 85,
      "start": 12.3798,
      "duration": 0.0689,
      "velocity": 89,
      "chip": "ym2612"
    },
    {
      "channel": 3,
      "note": 73,
      "start": 12.3809,
      "duration": 0.0434,
      "velocity": 91,
      "chip": "ym2612"
    },
    {
      "channel": 4,
      "note": 61,
      "start": 12.3821,
      "duration": 0.0428,
      "velocity": 97,
      "chip": "ym2612"
    },
    {
      "channel": 1,
      "note": 49,
      "start": 12.4619,
      "duration": 0.067,
      "velocity": 90,
      "chip": "ym2612"
    },
    {
      "channel": 2,
      "note": 85,
      "start": 12.4631,
      "duration": 0.0663,
      "velocity": 89,
      "chip": "ym2612"
    },
    {
      "channel": 3,
      "note": 73,
      "start": 12.4643,
      "duration": 0.0415,
      "velocity": 91,
      "chip": "ym2612"
    },
    {
      "channel": 4,
      "note": 61,
      "start": 12.4656,
      "duration": 0.0407,
      "velocity": 97,
      "chip": "ym2612"
    },
    {
      "channel": 4,
      "note": 61,
      "start": 12.5417,
      "duration": 0.0479,
      "velocity": 97,
      "chip": "ym2612"
    },
    {
      "channel": 1,
      "note": 49,
      "start": 12.6418,
      "duration": 0.0648,
      "velocity": 90,
      "chip": "ym2612"
    },
    {
      "channel": 2,
      "note": 85,
      "start": 12.6434,
      "duration": 0.0638,
      "velocity": 89,
      "chip": "ym2612"
    },
    {
      "channel": 3,
      "note": 73,
      "start": 12.6446,
      "duration": 0.0415,
      "velocity": 91,
      "chip": "ym2612"
    },
    {
      "channel": 4,
      "note": 61,
      "start": 12.6457,
      "duration": 0.0409,
      "velocity": 97,
      "chip": "ym2612"
    },
    {
      "channel": 1,
      "note": 49,
      "start": 12.718,
      "duration": 0.0772,
      "velocity": 90,
      "chip": "ym2612"
    },
    {
      "channel": 2,
      "note": 85,
      "start": 12.7192,
      "duration": 0.0766,
      "velocity": 89,
      "chip": "ym2612"
    },
    {
      "channel": 3,
      "note": 73,
      "start": 12.7205,
      "duration": 0.0478,
      "velocity": 91,
      "chip": "ym2612"
    },
    {
      "channel": 4,
      "note": 61,
      "start": 12.7216,
      "duration": 0.0471,
      "velocity": 97,
      "chip": "ym2612"
    },
    {
      "channel": 1,
      "note": 49,
      "start": 12.8105,
      "duration": 0.0667,
      "velocity": 90,
      "chip": "ym2612"
    },
    {
      "channel": 2,
      "note": 85,
      "start": 12.8117,
      "duration": 0.066,
      "velocity": 89,
      "chip": "ym2612"
    },
    {
      "channel": 3,
      "note": 73,
      "start": 12.813,
      "duration": 0.0416,
      "velocity": 91,
      "chip": "ym2612"
    },
    {
      "channel": 4,
      "note": 61,
      "start": 12.8142,
      "duration": 0.041,
      "velocity": 97,
      "chip": "ym2612"
    },
    {
      "channel": 4,
      "note": 61,
      "start": 12.8923,
      "duration": 0.0531,
      "velocity": 97,
      "chip": "ym2612"
    },
    {
      "channel": 1,
      "note": 49,
      "start": 12.9974,
      "duration": 0.0676,
      "velocity": 90,
      "chip": "ym2612"
    },
    {
      "channel": 2,
      "note": 85,
      "start": 12.9988,
      "duration": 0.0667,
      "velocity": 89,
      "chip": "ym2612"
    },
    {
      "channel": 3,
      "note": 73,
      "start": 13.0001,
      "duration": 0.043,
      "velocity": 91,
      "chip": "ym2612"
    },
    {
      "channel": 4,
      "note": 61,
      "start": 13.0013,
      "duration": 0.0423,
      "velocity": 97,
      "chip": "ym2612"
    },
    {
      "channel": 1,
      "note": 49,
      "start": 13.0784,
      "duration": 0.0665,
      "velocity": 90,
      "chip": "ym2612"
    },
    {
      "channel": 2,
      "note": 85,
      "start": 13.0796,
      "duration": 0.0658,
      "velocity": 89,
      "chip": "ym2612"
    },
    {
      "channel": 3,
      "note": 73,
      "start": 13.0808,
      "duration": 0.0448,
      "velocity": 91,
      "chip": "ym2612"
    },
    {
      "channel": 4,
      "note": 61,
      "start": 13.0821,
      "duration": 0.0441,
      "velocity": 97,
      "chip": "ym2612"
    },
    {
      "channel": 1,
      "note": 49,
      "start": 13.1583,
      "duration": 0.0678,
      "velocity": 90,
      "chip": "ym2612"
    },
    {
      "channel": 2,
      "note": 85,
      "start": 13.1595,
      "duration": 0.0672,
      "velocity": 89,
      "chip": "ym2612"
    },
    {
      "channel": 3,
      "note": 73,
      "start": 13.1607,
      "duration": 0.0461,
      "velocity": 91,
      "chip": "ym2612"
    },
    {
      "channel": 4,
      "note": 61,
      "start": 13.1618,
      "duration": 0.0455,
      "velocity": 97,
      "chip": "ym2612"
    },
    {
      "channel": 4,
      "note": 61,
      "start": 13.2398,
      "duration": 0.0412,
      "velocity": 97,
      "chip": "ym2612"
    },
    {
      "channel": 1,
      "note": 49,
      "start": 13.3098,
      "duration": 0.0684,
      "velocity": 90,
      "chip": "ym2612"
    },
    {
      "channel": 2,
      "note": 85,
      "start": 13.3111,
      "duration": 0.0678,
      "velocity": 89,
      "chip": "ym2612"
    },
    {
      "channel": 3,
      "note": 73,
      "start": 13.3122,
      "duration": 0.0432,
      "velocity": 91,
      "chip": "ym2612"
    },
    {
      "channel": 4,
      "note": 61,
      "start": 13.3134,
      "duration": 0.0426,
      "velocity": 97,
      "chip": "ym2612"
    },
    {
      "channel": 1,
      "note": 49,
      "start": 13.3943,
      "duration": 0.0646,
      "velocity": 90,
      "chip": "ym2612"
    },
    {
      "channel": 2,
      "note": 85,
      "start": 13.3955,
      "duration": 0.064,
      "velocity": 89,
      "chip": "ym2612"
    },
    {
      "channel": 3,
      "note": 73,
      "start": 13.3966,
      "duration": 0.0419,
      "velocity": 91,
      "chip": "ym2612"
    },
    {
      "channel": 4,
      "note": 61,
      "start": 13.3978,
      "duration": 0.0413,
      "velocity": 97,
      "chip": "ym2612"
    },
    {
      "channel": 1,
      "note": 49,
      "start": 13.4713,
      "duration": 0.0754,
      "velocity": 90,
      "chip": "ym2612"
    },
    {
      "channel": 2,
      "note": 85,
      "start": 13.4725,
      "duration": 0.0748,
      "velocity": 89,
      "chip": "ym2612"
    },
    {
      "channel": 3,
      "note": 73,
      "start": 13.4737,
      "duration": 0.05,
      "velocity": 91,
      "chip": "ym2612"
    },
    {
      "channel": 4,
      "note": 61,
      "start": 13.4748,
      "duration": 0.0494,
      "velocity": 97,
      "chip": "ym2612"
    },
    {
      "channel": 0,
      "note": 76,
      "start": 13.6437,
      "duration": 0.0432,
      "velocity": 102,
      "chip": "ym2612"
    },
    {
      "channel": 1,
      "note": 61,
      "start": 13.6449,
      "duration": 0.0425,
      "velocity": 102,
      "chip": "ym2612"
    },
    {
      "channel": 2,
      "note": 85,
      "start": 13.6461,
      "duration": 0.0419,
      "velocity": 102,
      "chip": "ym2612"
    },
    {
      "channel": 3,
      "note": 61,
      "start": 13.6474,
      "duration": 0.0411,
      "velocity": 102,
      "chip": "ym2612"
    },
    {
      "channel": 4,
      "note": 61,
      "start": 13.6486,
      "duration": 0.0405,
      "velocity": 127,
      "chip": "ym2612"
    },
    {
      "channel": 0,
      "note": 76,
      "start": 13.7269,
      "duration": 0.0447,
      "velocity": 102,
      "chip": "ym2612"
    },
    {
      "channel": 1,
      "note": 61,
      "start": 13.7281,
      "duration": 0.044,
      "velocity": 102,
      "chip": "ym2612"
    },
    {
      "channel": 2,
      "note": 85,
      "start": 13.7293,
      "duration": 0.0433,
      "velocity": 102,
      "chip": "ym2612"
    },
    {
      "channel": 3,
      "note": 61,
      "start": 13.7306,
      "duration": 0.0425,
      "velocity": 102,
      "chip": "ym2612"
    },
    {
      "channel": 4,
      "note": 61,
      "start": 13.7318,
      "duration": 0.0419,
      "velocity": 127,
      "chip": "ym2612"
    },
    {
      "channel": 0,
      "note": 76,
      "start": 13.8088,
      "duration": 0.0476,
      "velocity": 102,
      "chip": "ym2612"
    },
    {
      "channel": 1,
      "note": 61,
      "start": 13.81,
      "duration": 0.0468,
      "velocity": 102,
      "chip": "ym2612"
    },
    {
      "channel": 2,
      "note": 85,
      "start": 13.8112,
      "duration": 0.0462,
      "velocity": 102,
      "chip": "ym2612"
    },
    {
      "channel": 3,
      "note": 61,
      "start": 13.8124,
      "duration": 0.0455,
      "velocity": 102,
      "chip": "ym2612"
    },
    {
      "channel": 4,
      "note": 61,
      "start": 13.8135,
      "duration": 0.045,
      "velocity": 127,
      "chip": "ym2612"
    },
    {
      "channel": 0,
      "note": 76,
      "start": 13.9719,
      "duration": 0.0498,
      "velocity": 102,
      "chip": "ym2612"
    },
    {
      "channel": 1,
      "note": 61,
      "start": 13.9732,
      "duration": 0.0491,
      "velocity": 102,
      "chip": "ym2612"
    },
    {
      "channel": 2,
      "note": 85,
      "start": 13.9744,
      "duration": 0.0484,
      "velocity": 102,
      "chip": "ym2612"
    },
    {
      "channel": 3,
      "note": 61,
      "start": 13.9756,
      "duration": 0.0478,
      "velocity": 102,
      "chip": "ym2612"
    },
    {
      "channel": 4,
      "note": 61,
      "start": 13.9767,
      "duration": 0.0472,
      "velocity": 127,
      "chip": "ym2612"
    },
    {
      "channel": 0,
      "note": 76,
      "start": 14.0566,
      "duration": 0.0418,
      "velocity": 102,
      "chip": "ym2612"
    },
    {
      "channel": 1,
      "note": 61,
      "start": 14.0578,
      "duration": 0.0411,
      "velocity": 102,
      "chip": "ym2612"
    },
    {
      "channel": 2,
      "note": 85,
      "start": 14.059,
      "duration": 0.0405,
      "velocity": 102,
      "chip": "ym2612"
    },
    {
      "channel": 3,
      "note": 61,
      "start": 14.0602,
      "duration": 0.0399,
      "velocity": 102,
      "chip": "ym2612"
    },
    {
      "channel": 4,
      "note": 61,
      "start": 14.0614,
      "duration": 0.0392,
      "velocity": 127,
      "chip": "ym2612"
    },
    {
      "channel": 0,
      "note": 76,
      "start": 14.138,
      "duration": 0.0397,
      "velocity": 102,
      "chip": "ym2612"
    },
    {
      "channel": 1,
      "note": 61,
      "start": 14.1393,
      "duration": 0.039,
      "velocity": 102,
      "chip": "ym2612"
    },
    {
      "channel": 2,
      "note": 85,
      "start": 14.1405,
      "duration": 0.0384,
      "velocity": 102,
      "chip": "ym2612"
    },
    {
      "channel": 3,
      "note": 61,
      "start": 14.1417,
      "duration": 0.0378,
      "velocity": 102,
      "chip": "ym2612"
    },
    {
      "channel": 4,
      "note": 61,
      "start": 14.143,
      "duration": 0.037,
      "velocity": 127,
      "chip": "ym2612"
    },
    {
      "channel": 0,
      "note": 76,
      "start": 14.2174,
      "duration": 0.0507,
      "velocity": 102,
      "chip": "ym2612"
    },
    {
      "channel": 1,
      "note": 61,
      "start": 14.2186,
      "duration": 0.05,
      "velocity": 102,
      "chip": "ym2612"
    },
    {
      "channel": 2,
      "note": 85,
      "start": 14.2198,
      "duration": 0.0494,
      "velocity": 102,
      "chip": "ym2612"
    },
    {
      "channel": 3,
      "note": 61,
      "start": 14.221,
      "duration": 0.0487,
      "velocity": 102,
      "chip": "ym2612"
    },
    {
      "channel": 4,
      "note": 61,
      "start": 14.3052,
      "duration": 0.0432,
      "velocity": 127,
      "chip": "ym2612"
    },
    {
      "channel": 0,
      "note": 76,
      "start": 14.3859,
      "duration": 0.045,
      "velocity": 102,
      "chip": "ym2612"
    },
    {
      "channel": 1,
      "note": 61,
      "start": 14.3871,
      "duration": 0.0443,
      "velocity": 102,
      "chip": "ym2612"
    },
    {
      "channel": 2,
      "note": 85,
      "start": 14.3884,
      "duration": 0.0435,
      "velocity": 102,
      "chip": "ym2612"
    },
    {
      "channel": 3,
      "note": 61,
      "start": 14.3895,
      "duration": 0.043,
      "velocity": 102,
      "chip": "ym2612"
    },
    {
      "channel": 4,
      "note": 61,
      "start": 14.3909,
      "duration": 0.0422,
      "velocity": 127,
      "chip": "ym2612"
    },
    {
      "channel": 4,
      "note": 61,
      "start": 14.4672,
      "duration": 0.0439,
      "velocity": 127,
      "chip": "ym2612"
    },
    {
      "channel": 0,
      "note": 76,
      "start": 14.5482,
      "duration": 0.0433,
      "velocity": 102,
      "chip": "ym2612"
    },
    {
      "channel": 1,
      "note": 61,
      "start": 14.5494,
      "duration": 0.0427,
      "velocity": 102,
      "chip": "ym2612"
    },
    {
      "channel": 2,
      "note": 85,
      "start": 14.5506,
      "duration": 0.042,
      "velocity": 102,
      "chip": "ym2612"
    },
    {
      "channel": 3,
      "note": 61,
      "start": 14.5517,
      "duration": 0.0414,
      "velocity": 102,
      "chip": "ym2612"
    },
    {
      "channel": 0,
      "note": 76,
      "start": 14.6271,
      "duration": 0.0399,
      "velocity": 102,
      "chip": "ym2612"
    },
    {
      "channel": 1,
      "note": 61,
      "start": 14.6284,
      "duration": 0.0392,
      "velocity": 102,
      "chip": "ym2612"
    },
    {
      "channel": 2,
      "note": 85,
      "start": 14.6296,
      "duration": 0.0386,
      "velocity": 102,
      "chip": "ym2612"
    },
    {
      "channel": 3,
      "note": 61,
      "start": 14.6307,
      "duration": 0.0379,
      "velocity": 102,
      "chip": "ym2612"
    },
    {
      "channel": 4,
      "note": 61,
      "start": 14.632,
      "duration": 0.0372,
      "velocity": 127,
      "chip": "ym2612"
    },
    {
      "channel": 0,
      "note": 76,
      "start": 14.7069,
      "duration": 0.0397,
      "velocity": 102,
      "chip": "ym2612"
    },
    {
      "channel": 1,
      "note": 61,
      "start": 14.7081,
      "duration": 0.039,
      "velocity": 102,
      "chip": "ym2612"
    },
    {
      "channel": 2,
      "note": 85,
      "start": 14.7093,
      "duration": 0.0384,
      "velocity": 102,
      "chip": "ym2612"
    },
    {
      "channel": 3,
      "note": 68,
      "start": 14.7105,
      "duration": 0.0378,
      "velocity": 102,
      "chip": "ym2612"
    },
    {
      "channel": 4,
      "note": 61,
      "start": 14.7118,
      "duration": 0.037,
      "velocity": 127,
      "chip": "ym2612"
    },
    {
      "channel": 0,
      "note": 76,
      "start": 14.7864,
      "duration": 0.0446,
      "velocity": 102,
      "chip": "ym2612"
    },
    {
      "channel": 1,
      "note": 61,
      "start": 14.7876,
      "duration": 0.044,
      "velocity": 102,
      "chip": "ym2612"
    },
    {
      "channel": 2,
      "note": 85,
      "start": 14.7888,
      "duration": 0.0434,
      "velocity": 102,
      "chip": "ym2612"
    },
    {
      "channel": 3,
      "note": 70,
      "start": 14.79,
      "duration": 0.0427,
      "velocity": 102,
      "chip": "ym2612"
    },
    {
      "channel": 4,
      "note": 61,
      "start": 14.7913,
      "duration": 0.0419,
      "velocity": 127,
      "chip": "ym2612"
    },
    {
      "channel": 1,
      "note": 71,
      "start": 14.8753,
      "duration": 0.065,
      "velocity": 104,
      "chip": "ym2612"
    },
    {
      "channel": 3,
      "note": 71,
      "start": 14.8808,
      "duration": 0.0372,
      "velocity": 102,
      "chip": "ym2612"
    },
    {
      "channel": 4,
      "note": 61,
      "start": 14.8852,
      "duration": 0.1752,
      "velocity": 91,
      "chip": "ym2612"
    },
    {
      "channel": 1,
      "note": 71,
      "start": 14.9536,
      "duration": 0.086,
      "velocity": 104,
      "chip": "ym2612"
    },
    {
      "channel": 3,
      "note": 71,
      "start": 14.955,
      "duration": 0.0517,
      "velocity": 102,
      "chip": "ym2612"
    },
    {
      "channel": 1,
      "note": 70,
      "start": 15.058,
      "duration": 0.1907,
      "velocity": 104,
      "chip": "ym2612"
    },
    {
      "channel": 3,
      "note": 70,
      "start": 15.0594,
      "duration": 0.1564,
      "velocity": 102,
      "chip": "ym2612"
    },
    {
      "channel": 4,
      "note": 73,
      "start": 15.0606,
      "duration": 0.209,
      "velocity": 91,
      "chip": "ym2612"
    },
    {
      "channel": 1,
      "note": 71,
      "start": 15.2672,
      "duration": 0.1698,
      "velocity": 104,
      "chip": "ym2612"
    },
    {
      "channel": 3,
      "note": 71,
      "start": 15.2686,
      "duration": 0.1355,
      "velocity": 102,
      "chip": "ym2612"
    },
    {
      "channel": 4,
      "note": 61,
      "start": 15.2698,
      "duration": 0.0817,
      "velocity": 91,
      "chip": "ym2612"
    },
    {
      "channel": 4,
      "note": 73,
      "start": 15.3516,
      "duration": 0.1063,
      "velocity": 91,
      "chip": "ym2612"
    },
    {
      "channel": 1,
      "note": 70,
      "start": 15.4554,
      "duration": 0.1788,
      "velocity": 104,
      "chip": "ym2612"
    },
    {
      "channel": 3,
      "note": 70,
      "start": 15.4567,
      "duration": 0.1545,
      "velocity": 102,
      "chip": "ym2612"
    },
    {
      "channel": 4,
      "note": 56,
      "start": 15.458,
      "duration": 0.1928,
      "velocity": 91,
      "chip": "ym2612"
    },
    {
      "channel": 1,
      "note": 73,
      "start": 15.6485,
      "duration": 0.2781,
      "velocity": 104,
      "chip": "ym2612"
    },
    {
      "channel": 3,
      "note": 73,
      "start": 15.6498,
      "duration": 0.2439,
      "velocity": 102,
      "chip": "ym2612"
    },
    {
      "channel": 4,
      "note": 59,
      "start": 15.651,
      "duration": 0.1033,
      "velocity": 91,
      "chip": "ym2612"
    },
    {
      "channel": 4,
      "note": 71,
      "start": 15.7544,
      "duration": 0.0825,
      "velocity": 91,
      "chip": "ym2612"
    },
    {
      "channel": 4,
      "note": 58,
      "start": 15.8371,
      "duration": 0.1105,
      "velocity": 91,
      "chip": "ym2612"
    },
    {
      "channel": 1,
      "note": 71,
      "start": 15.9452,
      "duration": 0.0859,
      "velocity": 104,
      "chip": "ym2612"
    },
    {
      "channel": 3,
      "note": 71,
      "start": 15.9465,
      "duration": 0.0518,
      "velocity": 102,
      "chip": "ym2612"
    },
    {
      "channel": 4,
      "note": 70,
      "start": 15.9478,
      "duration": 0.103,
      "velocity": 91,
      "chip": "ym2612"
    },
    {
      "channel": 4,
      "note": 59,
      "start": 16.051,
      "duration": 0.0813,
      "velocity": 91,
      "chip": "ym2612"
    },
    {
      "channel": 4,
      "note": 71,
      "start": 16.1324,
      "duration": 0.1091,
      "velocity": 91,
      "chip": "ym2612"
    },
    {
      "channel": 1,
      "note": 68,
      "start": 16.239,
      "duration": 0.0903,
      "velocity": 104,
      "chip": "ym2612"
    },
    {
      "channel": 3,
      "note": 68,
      "start": 16.2405,
      "duration": 0.056,
      "velocity": 102,
      "chip": "ym2612"
    },
    {
      "channel": 4,
      "note": 56,
      "start": 16.2416,
      "duration": 0.2197,
      "velocity": 91,
      "chip": "ym2612"
    },
    {
      "channel": 1,
      "note": 70,
      "start": 16.3479,
      "duration": 0.0863,
      "velocity": 104,
      "chip": "ym2612"
    },
    {
      "channel": 3,
      "note": 70,
      "start": 16.3493,
      "duration": 0.0521,
      "velocity": 102,
      "chip": "ym2612"
    },
    {
      "channel": 1,
      "note": 71,
      "start": 16.4547,
      "duration": 0.068,
      "velocity": 104,
      "chip": "ym2612"
    },
    {
      "channel": 3,
      "note": 71,
      "start": 16.4566,
      "duration": 0.0442,
      "velocity": 102,
      "chip": "ym2612"
    },
    {
      "channel": 4,
      "note": 61,
      "start": 16.4615,
      "duration": 0.1868,
      "velocity": 91,
      "chip": "ym2612"
    },
    {
      "channel": 1,
      "note": 71,
      "start": 16.5368,
      "duration": 0.0903,
      "velocity": 104,
      "chip": "ym2612"
    },
    {
      "channel": 3,
      "note": 71,
      "start": 16.5381,
      "duration": 0.0561,
      "velocity": 102,
      "chip": "ym2612"
    },
    {
      "channel": 1,
      "note": 70,
      "start": 16.6458,
      "duration": 0.1931,
      "velocity": 104,
      "chip": "ym2612"
    },
    {
      "channel": 3,
      "note": 70,
      "start": 16.6471,
      "duration": 0.1588,
      "velocity": 102,
      "chip": "ym2612"
    },
    {
      "channel": 4,
      "note": 73,
      "start": 16.6485,
      "duration": 0.2111,
      "velocity": 91,
      "chip": "ym2612"
    },
    {
      "channel": 1,
      "note": 71,
      "start": 16.8572,
      "duration": 0.174,
      "velocity": 104,
      "chip": "ym2612"
    },
    {
      "channel": 3,
      "note": 71,
      "start": 16.8586,
      "duration": 0.1397,
      "velocity": 102,
      "chip": "ym2612"
    },
    {
      "channel": 4,
      "note": 61,
      "start": 16.8597,
      "duration": 0.0817,
      "velocity": 91,
      "chip": "ym2612"
    },
    {
      "channel": 4,
      "note": 73,
      "start": 16.9416,
      "duration": 0.1105,
      "velocity": 91,
      "chip": "ym2612"
    },
    {
      "channel": 1,
      "note": 70,
      "start": 17.0497,
      "duration": 0.1951,
      "velocity": 104,
      "chip": "ym2612"
    },
    {
      "channel": 3,
      "note": 70,
      "start": 17.051,
      "duration": 0.161,
      "velocity": 102,
      "chip": "ym2612"
    },
    {
      "channel": 4,
      "note": 56,
      "start": 17.0522,
      "duration": 0.1028,
      "velocity": 91,
      "chip": "ym2612"
    },
    {
      "channel": 4,
      "note": 68,
      "start": 17.1551,
      "duration": 0.111,
      "velocity": 91,
      "chip": "ym2612"
    },
    {
      "channel": 1,
      "note": 71,
      "start": 17.2635,
      "duration": 0.2789,
      "velocity": 104,
      "chip": "ym2612"
    },
    {
      "channel": 3,
      "note": 71,
      "start": 17.2649,
      "duration": 0.2447,
      "velocity": 102,
      "chip": "ym2612"
    },
    {
      "channel": 4,
      "note": 59,
      "start": 17.2662,
      "duration": 0.1025,
      "velocity": 91,
      "chip": "ym2612"
    },
    {
      "channel": 4,
      "note": 71,
      "start": 17.3688,
      "duration": 0.0837,
      "velocity": 91,
      "chip": "ym2612"
    },
    {
      "channel": 4,
      "note": 58,
      "start": 17.4527,
      "duration": 0.1112,
      "velocity": 91,
      "chip": "ym2612"
    },
    {
      "channel": 1,
      "note": 73,
      "start": 17.5613,
      "duration": 0.0693,
      "velocity": 104,
      "chip": "ym2612"
    },
    {
      "channel": 3,
      "note": 73,
      "start": 17.5628,
      "duration": 0.0455,
      "velocity": 102,
      "chip": "ym2612"
    },
    {
      "channel": 4,
      "note": 70,
      "start": 17.564,
      "duration": 0.0817,
      "velocity": 91,
      "chip": "ym2612"
    },
    {
      "channel": 4,
      "note": 59,
      "start": 17.6458,
      "duration": 0.0813,
      "velocity": 91,
      "chip": "ym2612"
    },
    {
      "channel": 4,
      "note": 71,
      "start": 17.7272,
      "duration": 0.1141,
      "velocity": 91,
      "chip": "ym2612"
    },
    {
      "channel": 1,
      "note": 68,
      "start": 17.8389,
      "duration": 0.0905,
      "velocity": 104,
      "chip": "ym2612"
    },
    {
      "channel": 3,
      "note": 68,
      "start": 17.8403,
      "duration": 0.0561,
      "velocity": 102,
      "chip": "ym2612"
    },
    {
      "channel": 4,
      "note": 60,
      "start": 17.8415,
      "duration": 0.109,
      "velocity": 91,
      "chip": "ym2612"
    },
    {
      "channel": 1,
      "note": 70,
      "start": 17.948,
      "duration": 0.0905,
      "velocity": 104,
      "chip": "ym2612"
    },
    {
      "channel": 3,
      "note": 70,
      "start": 17.9494,
      "duration": 0.0562,
      "velocity": 102,
      "chip": "ym2612"
    },
    {
      "channel": 4,
      "note": 72,
      "start": 17.9507,
      "duration": 0.1185,
      "velocity": 91,
      "chip": "ym2612"
    },
    {
      "channel": 1,
      "note": 71,
      "start": 18.0625,
      "duration": 0.065,
      "velocity": 104,
      "chip": "ym2612"
    },
    {
      "channel": 3,
      "note": 71,
      "start": 18.0645,
      "duration": 0.0398,
      "velocity": 102,
      "chip": "ym2612"
    },
    {
      "channel": 4,
      "note": 61,
      "start": 18.0694,
      "duration": 0.1818,
      "velocity": 91,
      "chip": "ym2612"
    },
    {
      "channel": 1,
      "note": 71,
      "start": 18.1412,
      "duration": 0.0889,
      "velocity": 104,
      "chip": "ym2612"
    },
    {
      "channel": 3,
      "note": 71,
      "start": 18.1425,
      "duration": 0.0547,
      "velocity": 102,
      "chip": "ym2612"
    },
    {
      "channel": 1,
      "note": 70,
      "start": 18.2487,
      "duration": 0.1955,
      "velocity": 104,
      "chip": "ym2612"
    },
    {
      "channel": 3,
      "note": 70,
      "start": 18.2501,
      "duration": 0.1613,
      "velocity": 102,
      "chip": "ym2612"
    },
    {
      "channel": 4,
      "note": 73,
      "start": 18.2513,
      "duration": 0.2137,
      "velocity": 91,
      "chip": "ym2612"
    },
    {
      "channel": 1,
      "note": 71,
      "start": 18.4625,
      "duration": 0.1699,
      "velocity": 104,
      "chip": "ym2612"
    },
    {
      "channel": 3,
      "note": 71,
      "start": 18.4639,
      "duration": 0.1355,
      "velocity": 102,
      "chip": "ym2612"
    },
    {
      "channel": 4,
      "note": 61,
      "start": 18.4651,
      "duration": 0.0818,
      "velocity": 91,
      "chip": "ym2612"
    },
    {
      "channel": 4,
      "note": 73,
      "start": 18.547,
      "duration": 0.1062,
      "velocity": 91,
      "chip": "ym2612"
    },
    {
      "channel": 1,
      "note": 70,
      "start": 18.6508,
      "duration": 0.1751,
      "velocity": 104,
      "chip": "ym2612"
    },
    {
      "channel": 3,
      "note": 70,
      "start": 18.6522,
      "duration": 0.1504,
      "velocity": 102,
      "chip": "ym2612"
    },
    {
      "channel": 4,
      "note": 56,
      "start": 18.6534,
      "duration": 0.1883,
      "velocity": 91,
      "chip": "ym2612"
    },
    {
      "channel": 1,
      "note": 73,
      "start": 18.8392,
      "duration": 0.3036,
      "velocity": 104,
      "chip": "ym2612"
    },
    {
      "channel": 3,
      "note": 73,
      "start": 18.8405,
      "duration": 0.2693,
      "velocity": 102,
      "chip": "ym2612"
    },
    {
      "channel": 4,
      "note": 59,
      "start": 18.8418,
      "duration": 0.1022,
      "velocity": 91,
      "chip": "ym2612"
    },
    {
      "channel": 4,
      "note": 71,
      "start": 18.9441,
      "duration": 0.1087,
      "velocity": 91,
      "chip": "ym2612"
    },
    {
      "channel": 4,
      "note": 58,
      "start": 19.053,
      "duration": 0.1108,
      "velocity": 91,
      "chip": "ym2612"
    },
    {
      "channel": 1,
      "note": 71,
      "start": 19.1614,
      "duration": 0.0899,
      "velocity": 104,
      "chip": "ym2612"
    },
    {
      "channel": 3,
      "note": 71,
      "start": 19.1628,
      "duration": 0.0557,
      "velocity": 102,
      "chip": "ym2612"
    },
    {
      "channel": 4,
      "note": 70,
      "start": 19.164,
      "duration": 0.107,
      "velocity": 91,
      "chip": "ym2612"
    },
    {
      "channel": 4,
      "note": 59,
      "start": 19.2711,
      "duration": 0.0813,
      "velocity": 91,
      "chip": "ym2612"
    },
    {
      "channel": 4,
      "note": 71,
      "start": 19.3525,
      "duration": 0.1142,
      "velocity": 91,
      "chip": "ym2612"
    },
    {
      "channel": 1,
      "note": 68,
      "start": 19.4643,
      "duration": 0.0904,
      "velocity": 104,
      "chip": "ym2612"
    },
    {
      "channel": 3,
      "note": 68,
      "start": 19.4656,
      "duration": 0.0562,
      "velocity": 102,
      "chip": "ym2612"
    },
    {
      "channel": 4,
      "note": 56,
      "start": 19.4669,
      "duration": 0.2197,
      "velocity": 91,
      "chip": "ym2612"
    },
    {
      "channel": 1,
      "note": 70,
      "start": 19.5732,
      "duration": 0.0863,
      "velocity": 104,
      "chip": "ym2612"
    },
    {
      "channel": 3,
      "note": 70,
      "start": 19.5746,
      "duration": 0.0521,
      "velocity": 102,
      "chip": "ym2612"
    },
    {
      "channel": 1,
      "note": 71,
      "start": 19.68,
      "duration": 0.0688,
      "velocity": 104,
      "chip": "ym2612"
    },
    {
      "channel": 3,
      "note": 71,
      "start": 19.6819,
      "duration": 0.0437,
      "velocity": 102,
      "chip": "ym2612"
    },
    {
      "channel": 4,
      "note": 61,
      "start": 19.6868,
      "duration": 0.1871,
      "velocity": 91,
      "chip": "ym2612"
    },
    {
      "channel": 1,
      "note": 71,
      "start": 19.7624,
      "duration": 0.0903,
      "velocity": 104,
      "chip": "ym2612"
    },
    {
      "channel": 3,
      "note": 71,
      "start": 19.7637,
      "duration": 0.0561,
      "velocity": 102,
      "chip": "ym2612"
    },
    {
      "channel": 1,
      "note": 70,
      "start": 19.8714,
      "duration": 0.1931,
      "velocity": 104,
      "chip": "ym2612"
    },
    {
      "channel": 3,
      "note": 70,
      "start": 19.8727,
      "duration": 0.1588,
      "velocity": 102,
      "chip": "ym2612"
    },
    {
      "channel": 4,
      "note": 73,
      "start": 19.874,
      "duration": 0.2111,
      "velocity": 91,
      "chip": "ym2612"
    },
    {
      "channel": 1,
      "note": 71,
      "start": 20.0828,
      "duration": 0.174,
      "velocity": 104,
      "chip": "ym2612"
    },
    {
      "channel": 3,
      "note": 71,
      "start": 20.0841,
      "duration": 0.1397,
      "velocity": 102,
      "chip": "ym2612"
    },
    {
      "channel": 4,
      "note": 61,
      "start": 20.0853,
      "duration": 0.0817,
      "velocity": 91,
      "chip": "ym2612"
    },
    {
      "channel": 4,
      "note": 73,
      "start": 20.1671,
      "duration": 0.1105,
      "velocity": 91,
      "chip": "ym2612"
    },
    {
      "channel": 1,
      "note": 70,
      "start": 20.2752,
      "duration": 0.1951,
      "velocity": 104,
      "chip": "ym2612"
    },
    {
      "channel": 3,
      "note": 70,
      "start": 20.2766,
      "duration": 0.161,
      "velocity": 102,
      "chip": "ym2612"
    },
    {
      "channel": 4,
      "note": 56,
      "start": 20.2778,
      "duration": 0.1028,
      "velocity": 91,
      "chip": "ym2612"
    },
    {
      "channel": 4,
      "note": 68,
      "start": 20.3807,
      "duration": 0.111,
      "velocity": 91,
      "chip": "ym2612"
    },
    {
      "channel": 1,
      "note": 71,
      "start": 20.4891,
      "duration": 0.2791,
      "velocity": 104,
      "chip": "ym2612"
    },
    {
      "channel": 3,
      "note": 71,
      "start": 20.4905,
      "duration": 0.2448,
      "velocity": 102,
      "chip": "ym2612"
    },
    {
      "channel": 4,
      "note": 59,
      "start": 20.4917,
      "duration": 0.1025,
      "velocity": 91,
      "chip": "ym2612"
    },
    {
      "channel": 4,
      "note": 71,
      "start": 20.5944,
      "duration": 0.0839,
      "velocity": 91,
      "chip": "ym2612"
    },
    {
      "channel": 4,
      "note": 58,
      "start": 20.6785,
      "duration": 0.111,
      "velocity": 91,
      "chip": "ym2612"
    },
    {
      "channel": 1,
      "note": 73,
      "start": 20.7869,
      "duration": 0.0702,
      "velocity": 104,
      "chip": "ym2612"
    },
    {
      "channel": 3,
      "note": 73,
      "start": 20.7884,
      "duration": 0.0456,
      "velocity": 102,
      "chip": "ym2612"
    },
    {
      "channel": 4,
      "note": 70,
      "start": 20.7896,
      "duration": 0.0815,
      "velocity": 91,
      "chip": "ym2612"
    },
    {
      "channel": 4,
      "note": 59,
      "start": 20.8712,
      "duration": 0.0826,
      "velocity": 91,
      "chip": "ym2612"
    },
    {
      "channel": 4,
      "note": 71,
      "start": 20.9539,
      "duration": 0.0839,
      "velocity": 91,
      "chip": "ym2612"
    },
    {
      "channel": 1,
      "note": 68,
      "start": 21.0355,
      "duration": 0.0905,
      "velocity": 104,
      "chip": "ym2612"
    },
    {
      "channel": 3,
      "note": 68,
      "start": 21.0368,
      "duration": 0.0562,
      "velocity": 102,
      "chip": "ym2612"
    },
    {
      "channel": 4,
      "note": 60,
      "start": 21.0381,
      "duration": 0.109,
      "velocity": 91,
      "chip": "ym2612"
    },
    {
      "channel": 1,
      "note": 70,
      "start": 21.1446,
      "duration": 0.0905,
      "velocity": 104,
      "chip": "ym2612"
    },
    {
      "channel": 3,
      "note": 70,
      "start": 21.146,
      "duration": 0.0562,
      "velocity": 102,
      "chip": "ym2612"
    },
    {
      "channel": 4,
      "note": 72,
      "start": 21.1473,
      "duration": 0.1185,
      "velocity": 91,
      "chip": "ym2612"
    },
    {
      "channel": 1,
      "note": 71,
      "start": 21.2591,
      "duration": 0.0648,
      "velocity": 104,
      "chip": "ym2612"
    },
    {
      "channel": 3,
      "note": 71,
      "start": 21.2611,
      "duration": 0.04,
      "velocity": 102,
      "chip": "ym2612"
    },
    {
      "channel": 4,
      "note": 61,
      "start": 21.266,
      "duration": 0.181,
      "velocity": 91,
      "chip": "ym2612"
    },
    {
      "channel": 1,
      "note": 71,
      "start": 21.337,
      "duration": 0.0889,
      "velocity": 104,
      "chip": "ym2612"
    },
    {
      "channel": 3,
      "note": 71,
      "start": 21.3383,
      "duration": 0.0547,
      "velocity": 102,
      "chip": "ym2612"
    },
    {
      "channel": 1,
      "note": 70,
      "start": 21.4445,
      "duration": 0.1955,
      "velocity": 104,
      "chip": "ym2612"
    },
    {
      "channel": 3,
      "note": 70,
      "start": 21.4459,
      "duration": 0.1613,
      "velocity": 102,
      "chip": "ym2612"
    },
    {
      "channel": 4,
      "note": 73,
      "start": 21.4471,
      "duration": 0.2137,
      "velocity": 91,
      "chip": "ym2612"
    },
    {
      "channel": 1,
      "note": 71,
      "start": 21.6583,
      "duration": 0.1699,
      "velocity": 104,
      "chip": "ym2612"
    },
    {
      "channel": 3,
      "note": 71,
      "start": 21.6597,
      "duration": 0.1355,
      "velocity": 102,
      "chip": "ym2612"
    },
    {
      "channel": 4,
      "note": 61,
      "start": 21.6609,
      "duration": 0.0818,
      "velocity": 91,
      "chip": "ym2612"
    },
    {
      "channel": 4,
      "note": 73,
      "start": 21.7428,
      "duration": 0.1062,
      "velocity": 91,
      "chip": "ym2612"
    },
    {
      "channel": 1,
      "note": 70,
      "start": 21.8466,
      "duration": 0.1754,
      "velocity": 104,
      "chip": "ym2612"
    },
    {
      "channel": 3,
      "note": 70,
      "start": 21.848,
      "duration": 0.1505,
      "velocity": 102,
      "chip": "ym2612"
    },
    {
      "channel": 4,
      "note": 56,
      "start": 21.8491,
      "duration": 0.1879,
      "velocity": 91,
      "chip": "ym2612"
    },
    {
      "channel": 1,
      "note": 73,
      "start": 22.0347,
      "duration": 0.2827,
      "velocity": 104,
      "chip": "ym2612"
    },
    {
      "channel": 3,
      "note": 73,
      "start": 22.036,
      "duration": 0.2485,
      "velocity": 102,
      "chip": "ym2612"
    },
    {
      "channel": 4,
      "note": 59,
      "start": 22.0371,
      "duration": 0.1067,
      "velocity": 91,
      "chip": "ym2612"
    },
    {
      "channel": 4,
      "note": 71,
      "start": 22.144,
      "duration": 0.0835,
      "velocity": 91,
      "chip": "ym2612"
    },
    {
      "channel": 4,
      "note": 58,
      "start": 22.2277,
      "duration": 0.1108,
      "velocity": 91,
      "chip": "ym2612"
    },
    {
      "channel": 1,
      "note": 71,
      "start": 22.3361,
      "duration": 0.0898,
      "velocity": 104,
      "chip": "ym2612"
    },
    {
      "channel": 3,
      "note": 71,
      "start": 22.3375,
      "duration": 0.0555,
      "velocity": 102,
      "chip": "ym2612"
    },
    {
      "channel": 4,
      "note": 70,
      "start": 22.3386,
      "duration": 0.1068,
      "velocity": 91,
      "chip": "ym2612"
    },
    {
      "channel": 4,
      "note": 59,
      "start": 22.4456,
      "duration": 0.0827,
      "velocity": 91,
      "chip": "ym2612"
    },
    {
      "channel": 4,
      "note": 71,
      "start": 22.5284,
      "duration": 0.109,
      "velocity": 91,
      "chip": "ym2612"
    },
    {
      "channel": 1,
      "note": 68,
      "start": 22.6349,
      "duration": 0.0857,
      "velocity": 104,
      "chip": "ym2612"
    },
    {
      "channel": 3,
      "note": 68,
      "start": 22.6363,
      "duration": 0.0515,
      "velocity": 102,
      "chip": "ym2612"
    },
    {
      "channel": 4,
      "note": 56,
      "start": 22.6376,
      "duration": 0.2194,
      "velocity": 91,
      "chip": "ym2612"
    },
    {
      "channel": 1,
      "note": 70,
      "start": 22.7392,
      "duration": 0.0907,
      "velocity": 104,
      "chip": "ym2612"
    },
    {
      "channel": 3,
      "note": 70,
      "start": 22.7405,
      "duration": 0.0565,
      "velocity": 102,
      "chip": "ym2612"
    },
    {
      "channel": 1,
      "note": 71,
      "start": 22.8504,
      "duration": 0.0692,
      "velocity": 104,
      "chip": "ym2612"
    },
    {
      "channel": 3,
      "note": 71,
      "start": 22.8522,
      "duration": 0.0448,
      "velocity": 102,
      "chip": "ym2612"
    },
    {
      "channel": 4,
      "note": 61,
      "start": 22.8571,
      "duration": 0.1834,
      "velocity": 91,
      "chip": "ym2612"
    },
    {
      "channel": 1,
      "note": 71,
      "start": 22.9335,
      "duration": 0.086,
      "velocity": 104,
      "chip": "ym2612"
    },
    {
      "channel": 3,
      "note": 71,
      "start": 22.935,
      "duration": 0.0516,
      "velocity": 102,
      "chip": "ym2612"
    },
    {
      "channel": 1,
      "note": 70,
      "start": 23.0382,
      "duration": 0.1955,
      "velocity": 104,
      "chip": "ym2612"
    },
    {
      "channel": 3,
      "note": 70,
      "start": 23.0396,
      "duration": 0.1612,
      "velocity": 102,
      "chip": "ym2612"
    },
    {
      "channel": 4,
      "note": 73,
      "start": 23.0407,
      "duration": 0.2139,
      "velocity": 91,
      "chip": "ym2612"
    },
    {
      "channel": 1,
      "note": 71,
      "start": 23.2522,
      "duration": 0.174,
      "velocity": 104,
      "chip": "ym2612"
    },
    {
      "channel": 3,
      "note": 71,
      "start": 23.2536,
      "duration": 0.1397,
      "velocity": 102,
      "chip": "ym2612"
    },
    {
      "channel": 4,
      "note": 61,
      "start": 23.2547,
      "duration": 0.0817,
      "velocity": 91,
      "chip": "ym2612"
    },
    {
      "channel": 4,
      "note": 73,
      "start": 23.3366,
      "duration": 0.1105,
      "velocity": 91,
      "chip": "ym2612"
    },
    {
      "channel": 1,
      "note": 70,
      "start": 23.4447,
      "duration": 0.1951,
      "velocity": 104,
      "chip": "ym2612"
    },
    {
      "channel": 3,
      "note": 70,
      "start": 23.446,
      "duration": 0.161,
      "velocity": 102,
      "chip": "ym2612"
    },
    {
      "channel": 4,
      "note": 56,
      "start": 23.4472,
      "duration": 0.1028,
      "velocity": 91,
      "chip": "ym2612"
    },
    {
      "channel": 4,
      "note": 68,
      "start": 23.5501,
      "duration": 0.111,
      "velocity": 91,
      "chip": "ym2612"
    },
    {
      "channel": 1,
      "note": 71,
      "start": 23.6585,
      "duration": 0.2786,
      "velocity": 104,
      "chip": "ym2612"
    },
    {
      "channel": 3,
      "note": 71,
      "start": 23.6599,
      "duration": 0.2443,
      "velocity": 102,
      "chip": "ym2612"
    },
    {
      "channel": 4,
      "note": 59,
      "start": 23.6612,
      "duration": 0.1025,
      "velocity": 91,
      "chip": "ym2612"
    },
    {
      "channel": 4,
      "note": 71,
      "start": 23.7638,
      "duration": 0.0834,
      "velocity": 91,
      "chip": "ym2612"
    },
    {
      "channel": 4,
      "note": 58,
      "start": 23.8474,
      "duration": 0.111,
      "velocity": 91,
      "chip": "ym2612"
    },
    {
      "channel": 1,
      "note": 73,
      "start": 23.9559,
      "duration": 0.0699,
      "velocity": 104,
      "chip": "ym2612"
    },
    {
      "channel": 3,
      "note": 73,
      "start": 23.9574,
      "duration": 0.0452,
      "velocity": 102,
      "chip": "ym2612"
    },
    {
      "channel": 4,
      "note": 70,
      "start": 23.9586,
      "duration": 0.0815,
      "velocity": 91,
      "chip": "ym2612"
    },
    {
      "channel": 4,
      "note": 59,
      "start": 24.0402,
      "duration": 0.081,
      "velocity": 91,
      "chip": "ym2612"
    },
    {
      "channel": 4,
      "note": 71,
      "start": 24.1214,
      "duration": 0.1091,
      "velocity": 91,
      "chip": "ym2612"
    },
    {
      "channel": 1,
      "note": 68,
      "start": 24.2279,
      "duration": 0.0857,
      "velocity": 104,
      "chip": "ym2612"
    },
    {
      "channel": 3,
      "note": 68,
      "start": 24.2293,
      "duration": 0.0515,
      "velocity": 102,
      "chip": "ym2612"
    },
    {
      "channel": 4,
      "note": 60,
      "start": 24.2306,
      "duration": 0.1043,
      "velocity": 91,
      "chip": "ym2612"
    },
    {
      "channel": 1,
      "note": 70,
      "start": 24.3324,
      "duration": 0.0858,
      "velocity": 104,
      "chip": "ym2612"
    },
    {
      "channel": 3,
      "note": 70,
      "start": 24.3337,
      "duration": 0.0516,
      "velocity": 102,
      "chip": "ym2612"
    },
    {
      "channel": 4,
      "note": 72,
      "start": 24.335,
      "duration": 0.1099,
      "velocity": 91,
      "chip": "ym2612"
    },
    {
      "channel": 1,
      "note": 71,
      "start": 24.4388,
      "duration": 0.068,
      "velocity": 104,
      "chip": "ym2612"
    },
    {
      "channel": 3,
      "note": 71,
      "start": 24.4407,
      "duration": 0.0433,
      "velocity": 102,
      "chip": "ym2612"
    },
    {
      "channel": 4,
      "note": 61,
      "start": 24.4451,
      "duration": 0.1826,
      "velocity": 91,
      "chip": "ym2612"
    },
    {
      "channel": 1,
      "note": 71,
      "start": 24.5208,
      "duration": 0.086,
      "velocity": 104,
      "chip": "ym2612"
    },
    {
      "channel": 3,
      "note": 71,
      "start": 24.5222,
      "duration": 0.0516,
      "velocity": 102,
      "chip": "ym2612"
    },
    {
      "channel": 1,
      "note": 70,
      "start": 24.6254,
      "duration": 0.1953,
      "velocity": 104,
      "chip": "ym2612"
    },
    {
      "channel": 3,
      "note": 70,
      "start": 24.6266,
      "duration": 0.1612,
      "velocity": 102,
      "chip": "ym2612"
    },
    {
      "channel": 4,
      "note": 73,
      "start": 24.6278,
      "duration": 0.2138,
      "velocity": 91,
      "chip": "ym2612"
    },
    {
      "channel": 1,
      "note": 71,
      "start": 24.8392,
      "duration": 0.167,
      "velocity": 104,
      "chip": "ym2612"
    },
    {
      "channel": 3,
      "note": 71,
      "start": 24.8406,
      "duration": 0.1326,
      "velocity": 102,
      "chip": "ym2612"
    },
    {
      "channel": 4,
      "note": 61,
      "start": 24.8418,
      "duration": 0.0788,
      "velocity": 91,
      "chip": "ym2612"
    },
    {
      "channel": 4,
      "note": 73,
      "start": 24.9207,
      "duration": 0.1063,
      "velocity": 91,
      "chip": "ym2612"
    },
    {
      "channel": 1,
      "note": 70,
      "start": 25.0246,
      "duration": 0.1793,
      "velocity": 104,
      "chip": "ym2612"
    },
    {
      "channel": 3,
      "note": 70,
      "start": 25.0259,
      "duration": 0.1548,
      "velocity": 102,
      "chip": "ym2612"
    },
    {
      "channel": 4,
      "note": 56,
      "start": 25.0272,
      "duration": 0.1917,
      "velocity": 91,
      "chip": "ym2612"
    },
    {
      "channel": 1,
      "note": 73,
      "start": 25.2165,
      "duration": 0.3038,
      "velocity": 104,
      "chip": "ym2612"
    },
    {
      "channel": 3,
      "note": 73,
      "start": 25.2178,
      "duration": 0.2696,
      "velocity": 102,
      "chip": "ym2612"
    },
    {
      "channel": 4,
      "note": 59,
      "start": 25.2191,
      "duration": 0.107,
      "velocity": 91,
      "chip": "ym2612"
    },
    {
      "channel": 4,
      "note": 71,
      "start": 25.3262,
      "duration": 0.1046,
      "velocity": 91,
      "chip": "ym2612"
    },
    {
      "channel": 4,
      "note": 58,
      "start": 25.4309,
      "duration": 0.1105,
      "velocity": 91,
      "chip": "ym2612"
    },
    {
      "channel": 1,
      "note": 71,
      "start": 25.539,
      "duration": 0.0905,
      "velocity": 104,
      "chip": "ym2612"
    },
    {
      "channel": 3,
      "note": 71,
      "start": 25.5403,
      "duration": 0.0562,
      "velocity": 102,
      "chip": "ym2612"
    },
    {
      "channel": 4,
      "note": 70,
      "start": 25.5416,
      "duration": 0.1074,
      "velocity": 91,
      "chip": "ym2612"
    },
    {
      "channel": 4,
      "note": 59,
      "start": 25.6492,
      "duration": 0.0812,
      "velocity": 91,
      "chip": "ym2612"
    },
    {
      "channel": 4,
      "note": 71,
      "start": 25.7305,
      "duration": 0.1139,
      "velocity": 91,
      "chip": "ym2612"
    },
    {
      "channel": 1,
      "note": 68,
      "start": 25.842,
      "duration": 0.0615,
      "velocity": 104,
      "chip": "ym2612"
    },
    {
      "channel": 3,
      "note": 68,
      "start": 25.8434,
      "duration": 0.0408,
      "velocity": 102,
      "chip": "ym2612"
    },
    {
      "channel": 4,
      "note": 56,
      "start": 25.8445,
      "duration": 0.1708,
      "velocity": 127,
      "chip": "ym2612"
    },
    {
      "channel": 1,
      "note": 70,
      "start": 25.9159,
      "duration": 0.0698,
      "velocity": 104,
      "chip": "ym2612"
    },
    {
      "channel": 3,
      "note": 70,
      "start": 25.9173,
      "duration": 0.0453,
      "velocity": 102,
      "chip": "ym2612"
    },
    {
      "channel": 0,
      "note": 76,
      "start": 26.0826,
      "duration": 0.0431,
      "velocity": 102,
      "chip": "ym2612"
    },
    {
      "channel": 1,
      "note": 73,
      "start": 26.0838,
      "duration": 0.0424,
      "velocity": 102,
      "chip": "ym2612"
    },
    {
      "channel": 2,
      "note": 85,
      "start": 26.085,
      "duration": 0.0417,
      "velocity": 102,
      "chip": "ym2612"
    },
    {
      "channel": 3,
      "note": 73,
      "start": 26.0862,
      "duration": 0.0411,
      "velocity": 102,
      "chip": "ym2612"
    },
    {
      "channel": 4,
      "note": 61,
      "start": 26.0874,
      "duration": 0.0405,
      "velocity": 127,
      "chip": "ym2612"
    },
    {
      "channel": 0,
      "note": 76,
      "start": 26.1657,
      "duration": 0.0449,
      "velocity": 102,
      "chip": "ym2612"
    },
    {
      "channel": 1,
      "note": 73,
      "start": 26.167,
      "duration": 0.0441,
      "velocity": 102,
      "chip": "ym2612"
    },
    {
      "channel": 2,
      "note": 85,
      "start": 26.1682,
      "duration": 0.0435,
      "velocity": 102,
      "chip": "ym2612"
    },
    {
      "channel": 3,
      "note": 73,
      "start": 26.1694,
      "duration": 0.0428,
      "velocity": 102,
      "chip": "ym2612"
    },
    {
      "channel": 4,
      "note": 61,
      "start": 26.1707,
      "duration": 0.0421,
      "velocity": 127,
      "chip": "ym2612"
    },
    {
      "channel": 0,
      "note": 76,
      "start": 26.2442,
      "duration": 0.0473,
      "velocity": 102,
      "chip": "ym2612"
    },
    {
      "channel": 1,
      "note": 73,
      "start": 26.2454,
      "duration": 0.0467,
      "velocity": 102,
      "chip": "ym2612"
    },
    {
      "channel": 2,
      "note": 85,
      "start": 26.2466,
      "duration": 0.0461,
      "velocity": 102,
      "chip": "ym2612"
    },
    {
      "channel": 3,
      "note": 73,
      "start": 26.2478,
      "duration": 0.0454,
      "velocity": 102,
      "chip": "ym2612"
    },
    {
      "channel": 4,
      "note": 61,
      "start": 26.249,
      "duration": 0.0448,
      "velocity": 127,
      "chip": "ym2612"
    },
    {
      "channel": 0,
      "note": 76,
      "start": 26.4072,
      "duration": 0.0475,
      "velocity": 102,
      "chip": "ym2612"
    },
    {
      "channel": 1,
      "note": 73,
      "start": 26.4083,
      "duration": 0.0468,
      "velocity": 102,
      "chip": "ym2612"
    },
    {
      "channel": 2,
      "note": 85,
      "start": 26.4095,
      "duration": 0.0462,
      "velocity": 102,
      "chip": "ym2612"
    },
    {
      "channel": 3,
      "note": 73,
      "start": 26.4108,
      "duration": 0.0454,
      "velocity": 102,
      "chip": "ym2612"
    },
    {
      "channel": 4,
      "note": 61,
      "start": 26.412,
      "duration": 0.0448,
      "velocity": 127,
      "chip": "ym2612"
    },
    {
      "channel": 0,
      "note": 76,
      "start": 26.4878,
      "duration": 0.0449,
      "velocity": 102,
      "chip": "ym2612"
    },
    {
      "channel": 1,
      "note": 73,
      "start": 26.489,
      "duration": 0.0443,
      "velocity": 102,
      "chip": "ym2612"
    },
    {
      "channel": 2,
      "note": 85,
      "start": 26.4902,
      "duration": 0.0437,
      "velocity": 102,
      "chip": "ym2612"
    },
    {
      "channel": 3,
      "note": 73,
      "start": 26.4915,
      "duration": 0.0429,
      "velocity": 102,
      "chip": "ym2612"
    },
    {
      "channel": 4,
      "note": 61,
      "start": 26.4927,
      "duration": 0.0424,
      "velocity": 127,
      "chip": "ym2612"
    },
    {
      "channel": 0,
      "note": 76,
      "start": 26.5727,
      "duration": 0.0447,
      "velocity": 102,
      "chip": "ym2612"
    },
    {
      "channel": 1,
      "note": 73,
      "start": 26.5739,
      "duration": 0.044,
      "velocity": 102,
      "chip": "ym2612"
    },
    {
      "channel": 2,
      "note": 85,
      "start": 26.5751,
      "duration": 0.0434,
      "velocity": 102,
      "chip": "ym2612"
    },
    {
      "channel": 3,
      "note": 73,
      "start": 26.5763,
      "duration": 0.0428,
      "velocity": 102,
      "chip": "ym2612"
    },
    {
      "channel": 4,
      "note": 61,
      "start": 26.5776,
      "duration": 0.042,
      "velocity": 127,
      "chip": "ym2612"
    },
    {
      "channel": 0,
      "note": 76,
      "start": 26.6556,
      "duration": 0.0432,
      "velocity": 102,
      "chip": "ym2612"
    },
    {
      "channel": 1,
      "note": 73,
      "start": 26.6568,
      "duration": 0.0425,
      "velocity": 102,
      "chip": "ym2612"
    },
    {
      "channel": 2,
      "note": 85,
      "start": 26.658,
      "duration": 0.0418,
      "velocity": 102,
      "chip": "ym2612"
    },
    {
      "channel": 3,
      "note": 73,
      "start": 26.6592,
      "duration": 0.0412,
      "velocity": 102,
      "chip": "ym2612"
    },
    {
      "channel": 4,
      "note": 61,
      "start": 26.7368,
      "duration": 0.0426,
      "velocity": 127,
      "chip": "ym2612"
    },
    {
      "channel": 0,
      "note": 76,
      "start": 26.817,
      "duration": 0.04,
      "velocity": 102,
      "chip": "ym2612"
    },
    {
      "channel": 1,
      "note": 73,
      "start": 26.8182,
      "duration": 0.0393,
      "velocity": 102,
      "chip": "ym2612"
    },
    {
      "channel": 2,
      "note": 85,
      "start": 26.8194,
      "duration": 0.0385,
      "velocity": 102,
      "chip": "ym2612"
    },
    {
      "channel": 3,
      "note": 73,
      "start": 26.8206,
      "duration": 0.038,
      "velocity": 102,
      "chip": "ym2612"
    },
    {
      "channel": 4,
      "note": 61,
      "start": 26.8219,
      "duration": 0.0372,
      "velocity": 127,
      "chip": "ym2612"
    },
    {
      "channel": 4,
      "note": 61,
      "start": 26.8999,
      "duration": 0.0434,
      "velocity": 127,
      "chip": "ym2612"
    },
    {
      "channel": 0,
      "note": 76,
      "start": 26.9806,
      "duration": 0.0511,
      "velocity": 102,
      "chip": "ym2612"
    },
    {
      "channel": 1,
      "note": 73,
      "start": 26.9818,
      "duration": 0.0504,
      "velocity": 102,
      "chip": "ym2612"
    },
    {
      "channel": 2,
      "note": 85,
      "start": 26.9831,
      "duration": 0.0498,
      "velocity": 102,
      "chip": "ym2612"
    },
    {
      "channel": 3,
      "note": 73,
      "start": 26.9842,
      "duration": 0.0491,
      "velocity": 102,
      "chip": "ym2612"
    },
    {
      "channel": 0,
      "note": 76,
      "start": 27.0692,
      "duration": 0.0474,
      "velocity": 102,
      "chip": "ym2612"
    },
    {
      "channel": 1,
      "note": 73,
      "start": 27.0704,
      "duration": 0.0467,
      "velocity": 102,
      "chip": "ym2612"
    },
    {
      "channel": 2,
      "note": 85,
      "start": 27.0716,
      "duration": 0.0461,
      "velocity": 102,
      "chip": "ym2612"
    },
    {
      "channel": 3,
      "note": 73,
      "start": 27.0728,
      "duration": 0.0454,
      "velocity": 102,
      "chip": "ym2612"
    },
    {
      "channel": 4,
      "note": 61,
      "start": 27.074,
      "duration": 0.0448,
      "velocity": 127,
      "chip": "ym2612"
    },
    {
      "channel": 0,
      "note": 76,
      "start": 27.1498,
      "duration": 0.045,
      "velocity": 102,
      "chip": "ym2612"
    },
    {
      "channel": 1,
      "note": 73,
      "start": 27.151,
      "duration": 0.0444,
      "velocity": 102,
      "chip": "ym2612"
    },
    {
      "channel": 2,
      "note": 80,
      "start": 27.1522,
      "duration": 0.0438,
      "velocity": 102,
      "chip": "ym2612"
    },
    {
      "channel": 3,
      "note": 73,
      "start": 27.1535,
      "duration": 0.043,
      "velocity": 102,
      "chip": "ym2612"
    },
    {
      "channel": 4,
      "note": 61,
      "start": 27.1546,
      "duration": 0.0424,
      "velocity": 127,
      "chip": "ym2612"
    },
    {
      "channel": 0,
      "note": 76,
      "start": 27.2348,
      "duration": 0.0447,
      "velocity": 102,
      "chip": "ym2612"
    },
    {
      "channel": 1,
      "note": 73,
      "start": 27.236,
      "duration": 0.044,
      "velocity": 102,
      "chip": "ym2612"
    },
    {
      "channel": 2,
      "note": 82,
      "start": 27.2372,
      "duration": 0.0434,
      "velocity": 102,
      "chip": "ym2612"
    },
    {
      "channel": 3,
      "note": 73,
      "start": 27.2384,
      "duration": 0.0428,
      "velocity": 102,
      "chip": "ym2612"
    },
    {
      "channel": 4,
      "note": 61,
      "start": 27.2397,
      "duration": 0.042,
      "velocity": 127,
      "chip": "ym2612"
    },
    {
      "channel": 1,
      "note": 71,
      "start": 27.3271,
      "duration": 0.0637,
      "velocity": 91,
      "chip": "ym2612"
    },
    {
      "channel": 2,
      "note": 83,
      "start": 27.3284,
      "duration": 0.077,
      "velocity": 102,
      "chip": "ym2612"
    },
    {
      "channel": 3,
      "note": 71,
      "start": 27.33,
      "duration": 0.0616,
      "velocity": 102,
      "chip": "ym2612"
    },
    {
      "channel": 4,
      "note": 61,
      "start": 27.3349,
      "duration": 0.1821,
      "velocity": 91,
      "chip": "ym2612"
    },
    {
      "channel": 1,
      "note": 71,
      "start": 27.4043,
      "duration": 0.089,
      "velocity": 91,
      "chip": "ym2612"
    },
    {
      "channel": 2,
      "note": 83,
      "start": 27.4055,
      "duration": 0.109,
      "velocity": 102,
      "chip": "ym2612"
    },
    {
      "channel": 3,
      "note": 71,
      "start": 27.4068,
      "duration": 0.0873,
      "velocity": 102,
      "chip": "ym2612"
    },
    {
      "channel": 0,
      "note": 83,
      "start": 27.5122,
      "duration": 0.0893,
      "velocity": 102,
      "chip": "ym2612"
    },
    {
      "channel": 1,
      "note": 70,
      "start": 27.5134,
      "duration": 0.1952,
      "velocity": 91,
      "chip": "ym2612"
    },
    {
      "channel": 2,
      "note": 82,
      "start": 27.5146,
      "duration": 0.2145,
      "velocity": 102,
      "chip": "ym2612"
    },
    {
      "channel": 3,
      "note": 70,
      "start": 27.5159,
      "duration": 0.1934,
      "velocity": 102,
      "chip": "ym2612"
    },
    {
      "channel": 4,
      "note": 73,
      "start": 27.5171,
      "duration": 0.2145,
      "velocity": 91,
      "chip": "ym2612"
    },
    {
      "channel": 0,
      "note": 83,
      "start": 27.6197,
      "duration": 0.0884,
      "velocity": 102,
      "chip": "ym2612"
    },
    {
      "channel": 0,
      "note": 82,
      "start": 27.7268,
      "duration": 0.1629,
      "velocity": 102,
      "chip": "ym2612"
    },
    {
      "channel": 1,
      "note": 71,
      "start": 27.7281,
      "duration": 0.1621,
      "velocity": 91,
      "chip": "ym2612"
    },
    {
      "channel": 2,
      "note": 83,
      "start": 27.7293,
      "duration": 0.1817,
      "velocity": 102,
      "chip": "ym2612"
    },
    {
      "channel": 3,
      "note": 71,
      "start": 27.7305,
      "duration": 0.1605,
      "velocity": 102,
      "chip": "ym2612"
    },
    {
      "channel": 4,
      "note": 61,
      "start": 27.7317,
      "duration": 0.0708,
      "velocity": 91,
      "chip": "ym2612"
    },
    {
      "channel": 4,
      "note": 73,
      "start": 27.8026,
      "duration": 0.1109,
      "velocity": 91,
      "chip": "ym2612"
    },
    {
      "channel": 0,
      "note": 83,
      "start": 27.9087,
      "duration": 0.1742,
      "velocity": 102,
      "chip": "ym2612"
    },
    {
      "channel": 1,
      "note": 70,
      "start": 27.91,
      "duration": 0.1735,
      "velocity": 91,
      "chip": "ym2612"
    },
    {
      "channel": 2,
      "note": 82,
      "start": 27.9112,
      "duration": 0.1882,
      "velocity": 102,
      "chip": "ym2612"
    },
    {
      "channel": 3,
      "note": 70,
      "start": 27.9125,
      "duration": 0.1719,
      "velocity": 102,
      "chip": "ym2612"
    },
    {
      "channel": 4,
      "note": 56,
      "start": 27.9136,
      "duration": 0.1882,
      "velocity": 91,
      "chip": "ym2612"
    },
    {
      "channel": 0,
      "note": 82,
      "start": 28.0971,
      "duration": 0.1747,
      "velocity": 102,
      "chip": "ym2612"
    },
    {
      "channel": 1,
      "note": 71,
      "start": 28.0983,
      "duration": 0.2732,
      "velocity": 91,
      "chip": "ym2612"
    },
    {
      "channel": 2,
      "note": 83,
      "start": 28.0995,
      "duration": 0.292,
      "velocity": 102,
      "chip": "ym2612"
    },
    {
      "channel": 3,
      "note": 71,
      "start": 28.1007,
      "duration": 0.2716,
      "velocity": 102,
      "chip": "ym2612"
    },
    {
      "channel": 4,
      "note": 59,
      "start": 28.102,
      "duration": 0.1012,
      "velocity": 91,
      "chip": "ym2612"
    },
    {
      "channel": 4,
      "note": 71,
      "start": 28.2034,
      "duration": 0.0839,
      "velocity": 91,
      "chip": "ym2612"
    },
    {
      "channel": 0,
      "note": 83,
      "start": 28.285,
      "duration": 0.2809,
      "velocity": 102,
      "chip": "ym2612"
    },
    {
      "channel": 4,
      "note": 58,
      "start": 28.2873,
      "duration": 0.1065,
      "velocity": 91,
      "chip": "ym2612"
    },
    {
      "channel": 1,
      "note": 70,
      "start": 28.3904,
      "duration": 0.0889,
      "velocity": 91,
      "chip": "ym2612"
    },
    {
      "channel": 2,
      "note": 82,
      "start": 28.3917,
      "duration": 0.1061,
      "velocity": 102,
      "chip": "ym2612"
    },
    {
      "channel": 3,
      "note": 70,
      "start": 28.3928,
      "duration": 0.0873,
      "velocity": 102,
      "chip": "ym2612"
    },
    {
      "channel": 4,
      "note": 70,
      "start": 28.394,
      "duration": 0.1055,
      "velocity": 91,
      "chip": "ym2612"
    },
    {
      "channel": 4,
      "note": 59,
      "start": 28.4997,
      "duration": 0.0811,
      "velocity": 91,
      "chip": "ym2612"
    },
    {
      "channel": 0,
      "note": 82,
      "start": 28.5794,
      "duration": 0.0861,
      "velocity": 102,
      "chip": "ym2612"
    },
    {
      "channel": 4,
      "note": 71,
      "start": 28.5809,
      "duration": 0.1064,
      "velocity": 91,
      "chip": "ym2612"
    },
    {
      "channel": 1,
      "note": 68,
      "start": 28.685,
      "duration": 0.0858,
      "velocity": 91,
      "chip": "ym2612"
    },
    {
      "channel": 3,
      "note": 68,
      "start": 28.6862,
      "duration": 0.0851,
      "velocity": 102,
      "chip": "ym2612"
    },
    {
      "channel": 4,
      "note": 56,
      "start": 28.6874,
      "duration": 0.2188,
      "velocity": 91,
      "chip": "ym2612"
    },
    {
      "channel": 1,
      "note": 70,
      "start": 28.7895,
      "duration": 0.086,
      "velocity": 91,
      "chip": "ym2612"
    },
    {
      "channel": 2,
      "note": 82,
      "start": 28.7906,
      "duration": 0.1093,
      "velocity": 102,
      "chip": "ym2612"
    },
    {
      "channel": 3,
      "note": 70,
      "start": 28.7919,
      "duration": 0.0844,
      "velocity": 102,
      "chip": "ym2612"
    },
    {
      "channel": 1,
      "note": 71,
      "start": 28.8952,
      "duration": 0.0706,
      "velocity": 91,
      "chip": "ym2612"
    },
    {
      "channel": 2,
      "note": 83,
      "start": 28.9,
      "duration": 0.0814,
      "velocity": 102,
      "chip": "ym2612"
    },
    {
      "channel": 3,
      "note": 71,
      "start": 28.9013,
      "duration": 0.0653,
      "velocity": 102,
      "chip": "ym2612"
    },
    {
      "channel": 4,
      "note": 61,
      "start": 28.9063,
      "duration": 0.1881,
      "velocity": 91,
      "chip": "ym2612"
    },
    {
      "channel": 0,
      "note": 82,
      "start": 28.9791,
      "duration": 0.0879,
      "velocity": 102,
      "chip": "ym2612"
    },
    {
      "channel": 1,
      "note": 71,
      "start": 28.9803,
      "duration": 0.0872,
      "velocity": 91,
      "chip": "ym2612"
    },
    {
      "channel": 2,
      "note": 83,
      "start": 28.9816,
      "duration": 0.1104,
      "velocity": 102,
      "chip": "ym2612"
    },
    {
      "channel": 3,
      "note": 71,
      "start": 28.9827,
      "duration": 0.0856,
      "velocity": 102,
      "chip": "ym2612"
    },
    {
      "channel": 0,
      "note": 83,
      "start": 29.0896,
      "duration": 0.0818,
      "velocity": 102,
      "chip": "ym2612"
    },
    {
      "channel": 1,
      "note": 70,
      "start": 29.0909,
      "duration": 0.192,
      "velocity": 91,
      "chip": "ym2612"
    },
    {
      "channel": 2,
      "note": 82,
      "start": 29.0921,
      "duration": 0.2112,
      "velocity": 102,
      "chip": "ym2612"
    },
    {
      "channel": 3,
      "note": 70,
      "start": 29.0932,
      "duration": 0.1904,
      "velocity": 102,
      "chip": "ym2612"
    },
    {
      "channel": 4,
      "note": 73,
      "start": 29.0946,
      "duration": 0.2111,
      "velocity": 91,
      "chip": "ym2612"
    },
    {
      "channel": 0,
      "note": 83,
      "start": 29.1897,
      "duration": 0.0928,
      "velocity": 102,
      "chip": "ym2612"
    },
    {
      "channel": 0,
      "note": 82,
      "start": 29.301,
      "duration": 0.171,
      "velocity": 102,
      "chip": "ym2612"
    },
    {
      "channel": 1,
      "note": 71,
      "start": 29.3022,
      "duration": 0.1703,
      "velocity": 91,
      "chip": "ym2612"
    },
    {
      "channel": 2,
      "note": 83,
      "start": 29.3034,
      "duration": 0.1899,
      "velocity": 102,
      "chip": "ym2612"
    },
    {
      "channel": 3,
      "note": 71,
      "start": 29.3046,
      "duration": 0.1686,
      "velocity": 102,
      "chip": "ym2612"
    },
    {
      "channel": 4,
      "note": 61,
      "start": 29.3058,
      "duration": 0.0816,
      "velocity": 91,
      "chip": "ym2612"
    },
    {
      "channel": 4,
      "note": 73,
      "start": 29.3876,
      "duration": 0.1082,
      "velocity": 91,
      "chip": "ym2612"
    },
    {
      "channel": 0,
      "note": 83,
      "start": 29.491,
      "duration": 0.1902,
      "velocity": 102,
      "chip": "ym2612"
    },
    {
      "channel": 1,
      "note": 70,
      "start": 29.4922,
      "duration": 0.1895,
      "velocity": 91,
      "chip": "ym2612"
    },
    {
      "channel": 2,
      "note": 82,
      "start": 29.4935,
      "duration": 0.209,
      "velocity": 102,
      "chip": "ym2612"
    },
    {
      "channel": 3,
      "note": 70,
      "start": 29.4948,
      "duration": 0.1877,
      "velocity": 102,
      "chip": "ym2612"
    },
    {
      "channel": 4,
      "note": 56,
      "start": 29.4959,
      "duration": 0.1006,
      "velocity": 91,
      "chip": "ym2612"
    },
    {
      "channel": 4,
      "note": 68,
      "start": 29.5966,
      "duration": 0.1083,
      "velocity": 91,
      "chip": "ym2612"
    },
    {
      "channel": 0,
      "note": 82,
      "start": 29.7002,
      "duration": 0.1758,
      "velocity": 102,
      "chip": "ym2612"
    },
    {
      "channel": 1,
      "note": 71,
      "start": 29.7014,
      "duration": 0.2784,
      "velocity": 91,
      "chip": "ym2612"
    },
    {
      "channel": 2,
      "note": 83,
      "start": 29.7026,
      "duration": 0.2973,
      "velocity": 102,
      "chip": "ym2612"
    },
    {
      "channel": 3,
      "note": 71,
      "start": 29.7037,
      "duration": 0.2767,
      "velocity": 102,
      "chip": "ym2612"
    },
    {
      "channel": 4,
      "note": 59,
      "start": 29.7051,
      "duration": 0.1012,
      "velocity": 91,
      "chip": "ym2612"
    },
    {
      "channel": 4,
      "note": 71,
      "start": 29.8064,
      "duration": 0.0851,
      "velocity": 91,
      "chip": "ym2612"
    },
    {
      "channel": 0,
      "note": 83,
      "start": 29.8892,
      "duration": 0.2613,
      "velocity": 102,
      "chip": "ym2612"
    },
    {
      "channel": 4,
      "note": 58,
      "start": 29.8917,
      "duration": 0.1107,
      "velocity": 91,
      "chip": "ym2612"
    },
    {
      "channel": 1,
      "note": 73,
      "start": 29.9988,
      "duration": 0.0697,
      "velocity": 91,
      "chip": "ym2612"
    },
    {
      "channel": 2,
      "note": 85,
      "start": 30.0,
      "duration": 0.0823,
      "velocity": 102,
      "chip": "ym2612"
    },
    {
      "channel": 3,
      "note": 73,
      "start": 30.0012,
      "duration": 0.0681,
      "velocity": 102,
      "chip": "ym2612"
    },
    {
      "channel": 4,
      "note": 70,
      "start": 30.0025,
      "duration": 0.0815,
      "velocity": 91,
      "chip": "ym2612"
    },
    {
      "channel": 4,
      "note": 59,
      "start": 30.0842,
      "duration": 0.0811,
      "velocity": 91,
      "chip": "ym2612"
    },
    {
      "channel": 0,
      "note": 85,
      "start": 30.1639,
      "duration": 0.0861,
      "velocity": 102,
      "chip": "ym2612"
    },
    {
      "channel": 4,
      "note": 71,
      "start": 30.1655,
      "duration": 0.1075,
      "velocity": 91,
      "chip": "ym2612"
    },
    {
      "channel": 1,
      "note": 68,
      "start": 30.2694,
      "duration": 0.0668,
      "velocity": 91,
      "chip": "ym2612"
    },
    {
      "channel": 2,
      "note": 80,
      "start": 30.2707,
      "duration": 0.0804,
      "velocity": 102,
      "chip": "ym2612"
    },
    {
      "channel": 3,
      "note": 68,
      "start": 30.2718,
      "duration": 0.0653,
      "velocity": 102,
      "chip": "ym2612"
    },
    {
      "channel": 4,
      "note": 60,
      "start": 30.2731,
      "duration": 0.0803,
      "velocity": 91,
      "chip": "ym2612"
    },
    {
      "channel": 1,
      "note": 70,
      "start": 30.35,
      "duration": 0.0685,
      "velocity": 91,
      "chip": "ym2612"
    },
    {
      "channel": 2,
      "note": 82,
      "start": 30.3512,
      "duration": 0.0863,
      "velocity": 102,
      "chip": "ym2612"
    },
    {
      "channel": 3,
      "note": 70,
      "start": 30.3523,
      "duration": 0.067,
      "velocity": 102,
      "chip": "ym2612"
    },
    {
      "channel": 4,
      "note": 72,
      "start": 30.3535,
      "duration": 0.0903,
      "velocity": 91,
      "chip": "ym2612"
    },
    {
      "channel": 0,
      "note": 80,
      "start": 30.4319,
      "duration": 0.0704,
      "velocity": 102,
      "chip": "ym2612"
    },
    {
      "channel": 1,
      "note": 71,
      "start": 30.4364,
      "duration": 0.0664,
      "velocity": 91,
      "chip": "ym2612"
    },
    {
      "channel": 2,
      "note": 83,
      "start": 30.4376,
      "duration": 0.0814,
      "velocity": 102,
      "chip": "ym2612"
    },
    {
      "channel": 3,
      "note": 71,
      "start": 30.4389,
      "duration": 0.0649,
      "velocity": 102,
      "chip": "ym2612"
    },
    {
      "channel": 4,
      "note": 61,
      "start": 30.4439,
      "duration": 0.1842,
      "velocity": 91,
      "chip": "ym2612"
    },
    {
      "channel": 0,
      "note": 82,
      "start": 30.5167,
      "duration": 0.0878,
      "velocity": 102,
      "chip": "ym2612"
    },
    {
      "channel": 1,
      "note": 71,
      "start": 30.5179,
      "duration": 0.0871,
      "velocity": 91,
      "chip": "ym2612"
    },
    {
      "channel": 2,
      "note": 83,
      "start": 30.5191,
      "duration": 0.1067,
      "velocity": 102,
      "chip": "ym2612"
    },
    {
      "channel": 3,
      "note": 71,
      "start": 30.5203,
      "duration": 0.0854,
      "velocity": 102,
      "chip": "ym2612"
    },
    {
      "channel": 0,
      "note": 83,
      "start": 30.6235,
      "duration": 0.0891,
      "velocity": 102,
      "chip": "ym2612"
    },
    {
      "channel": 1,
      "note": 70,
      "start": 30.6247,
      "duration": 0.1951,
      "velocity": 91,
      "chip": "ym2612"
    },
    {
      "channel": 2,
      "note": 82,
      "start": 30.6259,
      "duration": 0.2144,
      "velocity": 102,
      "chip": "ym2612"
    },
    {
      "channel": 3,
      "note": 70,
      "start": 30.6271,
      "duration": 0.1934,
      "velocity": 102,
      "chip": "ym2612"
    },
    {
      "channel": 4,
      "note": 73,
      "start": 30.6283,
      "duration": 0.2144,
      "velocity": 91,
      "chip": "ym2612"
    },
    {
      "channel": 0,
      "note": 83,
      "start": 30.7309,
      "duration": 0.0884,
      "velocity": 102,
      "chip": "ym2612"
    },
    {
      "channel": 0,
      "note": 82,
      "start": 30.8379,
      "duration": 0.1681,
      "velocity": 102,
      "chip": "ym2612"
    },
    {
      "channel": 1,
      "note": 71,
      "start": 30.8392,
      "duration": 0.1673,
      "velocity": 91,
      "chip": "ym2612"
    },
    {
      "channel": 2,
      "note": 83,
      "start": 30.8404,
      "duration": 0.1869,
      "velocity": 102,
      "chip": "ym2612"
    },
    {
      "channel": 3,
      "note": 71,
      "start": 30.8417,
      "duration": 0.1655,
      "velocity": 102,
      "chip": "ym2612"
    },
    {
      "channel": 4,
      "note": 61,
      "start": 30.8428,
      "duration": 0.0784,
      "velocity": 91,
      "chip": "ym2612"
    },
    {
      "channel": 4,
      "note": 73,
      "start": 30.9213,
      "duration": 0.1083,
      "velocity": 91,
      "chip": "ym2612"
    },
    {
      "channel": 0,
      "note": 83,
      "start": 31.0249,
      "duration": 0.177,
      "velocity": 102,
      "chip": "ym2612"
    },
    {
      "channel": 1,
      "note": 70,
      "start": 31.0262,
      "duration": 0.1762,
      "velocity": 91,
      "chip": "ym2612"
    },
    {
      "channel": 2,
      "note": 82,
      "start": 31.0274,
      "duration": 0.1908,
      "velocity": 102,
      "chip": "ym2612"
    },
    {
      "channel": 3,
      "note": 70,
      "start": 31.0286,
      "duration": 0.1748,
      "velocity": 102,
      "chip": "ym2612"
    },
    {
      "channel": 4,
      "note": 56,
      "start": 31.0297,
      "duration": 0.191,
      "velocity": 91,
      "chip": "ym2612"
    },
    {
      "channel": 0,
      "note": 82,
      "start": 31.216,
      "duration": 0.1921,
      "velocity": 102,
      "chip": "ym2612"
    },
    {
      "channel": 1,
      "note": 71,
      "start": 31.2172,
      "duration": 0.2956,
      "velocity": 91,
      "chip": "ym2612"
    },
    {
      "channel": 2,
      "note": 83,
      "start": 31.2184,
      "duration": 0.2093,
      "velocity": 102,
      "chip": "ym2612"
    },
    {
      "channel": 3,
      "note": 71,
      "start": 31.2196,
      "duration": 0.2938,
      "velocity": 102,
      "chip": "ym2612"
    },
    {
      "channel": 4,
      "note": 59,
      "start": 31.2208,
      "duration": 0.1025,
      "velocity": 91,
      "chip": "ym2612"
    },
    {
      "channel": 4,
      "note": 71,
      "start": 31.3234,
      "duration": 0.1057,
      "velocity": 91,
      "chip": "ym2612"
    },
    {
      "channel": 0,
      "note": 83,
      "start": 31.4266,
      "duration": 0.1942,
      "velocity": 102,
      "chip": "ym2612"
    },
    {
      "channel": 4,
      "note": 58,
      "start": 31.4292,
      "duration": 0.106,
      "velocity": 91,
      "chip": "ym2612"
    },
    {
      "channel": 1,
      "note": 70,
      "start": 31.5318,
      "duration": 0.0895,
      "velocity": 91,
      "chip": "ym2612"
    },
    {
      "channel": 2,
      "note": 82,
      "start": 31.5329,
      "duration": 0.107,
      "velocity": 102,
      "chip": "ym2612"
    },
    {
      "channel": 3,
      "note": 70,
      "start": 31.5342,
      "duration": 0.0878,
      "velocity": 102,
      "chip": "ym2612"
    },
    {
      "channel": 4,
      "note": 70,
      "start": 31.5353,
      "duration": 0.1063,
      "velocity": 91,
      "chip": "ym2612"
    },
    {
      "channel": 4,
      "note": 59,
      "start": 31.6418,
      "duration": 0.0832,
      "velocity": 91,
      "chip": "ym2612"
    },
    {
      "channel": 0,
      "note": 82,
      "start": 31.7236,
      "duration": 0.0862,
      "velocity": 102,
      "chip": "ym2612"
    },
    {
      "channel": 4,
      "note": 71,
      "start": 31.7252,
      "duration": 0.108,
      "velocity": 91,
      "chip": "ym2612"
    },
    {
      "channel": 1,
      "note": 68,
      "start": 31.8296,
      "duration": 0.0853,
      "velocity": 91,
      "chip": "ym2612"
    },
    {
      "channel": 2,
      "note": 80,
      "start": 31.8308,
      "duration": 0.6153,
      "velocity": 102,
      "chip": "ym2612"
    },
    {
      "channel": 3,
      "note": 68,
      "start": 31.832,
      "duration": 0.0836,
      "velocity": 102,
      "chip": "ym2612"
    },
    {
      "channel": 4,
      "note": 56,
      "start": 31.8333,
      "duration": 0.213,
      "velocity": 91,
      "chip": "ym2612"
    },
    {
      "channel": 1,
      "note": 70,
      "start": 31.9334,
      "duration": 0.0862,
      "velocity": 91,
      "chip": "ym2612"
    },
    {
      "channel": 3,
      "note": 70,
      "start": 31.9351,
      "duration": 0.0852,
      "velocity": 102,
      "chip": "ym2612"
    },
    {
      "channel": 0,
      "note": 80,
      "start": 32.0391,
      "duration": 0.5763,
      "velocity": 102,
      "chip": "ym2612"
    },
    {
      "channel": 1,
      "note": 71,
      "start": 32.0405,
      "duration": 0.0687,
      "velocity": 91,
      "chip": "ym2612"
    },
    {
      "channel": 3,
      "note": 71,
      "start": 32.0421,
      "duration": 0.068,
      "velocity": 102,
      "chip": "ym2612"
    },
    {
      "channel": 4,
      "note": 61,
      "start": 32.0465,
      "duration": 0.1869,
      "velocity": 91,
      "chip": "ym2612"
    },
    {
      "channel": 1,
      "note": 71,
      "start": 32.1223,
      "duration": 0.0897,
      "velocity": 91,
      "chip": "ym2612"
    },
    {
      "channel": 3,
      "note": 71,
      "start": 32.1238,
      "duration": 0.0889,
      "velocity": 102,
      "chip": "ym2612"
    },
    {
      "channel": 1,
      "note": 70,
      "start": 32.2307,
      "duration": 0.1957,
      "velocity": 91,
      "chip": "ym2612"
    },
    {
      "channel": 3,
      "note": 70,
      "start": 32.2323,
      "duration": 0.1948,
      "velocity": 102,
      "chip": "ym2612"
    },
    {
      "channel": 4,
      "note": 73,
      "start": 32.2334,
      "duration": 0.2151,
      "velocity": 91,
      "chip": "ym2612"
    },
    {
      "channel": 1,
      "note": 71,
      "start": 32.445,
      "duration": 0.1708,
      "velocity": 91,
      "chip": "ym2612"
    },
    {
      "channel": 2,
      "note": 78,
      "start": 32.4462,
      "duration": 0.293,
      "velocity": 102,
      "chip": "ym2612"
    },
    {
      "channel": 3,
      "note": 71,
      "start": 32.4475,
      "duration": 0.1691,
      "velocity": 102,
      "chip": "ym2612"
    },
    {
      "channel": 4,
      "note": 61,
      "start": 32.4487,
      "duration": 0.0795,
      "velocity": 91,
      "chip": "ym2612"
    },
    {
      "channel": 4,
      "note": 73,
      "start": 32.5283,
      "duration": 0.1099,
      "velocity": 91,
      "chip": "ym2612"
    },
    {
      "channel": 0,
      "note": 78,
      "start": 32.6343,
      "duration": 0.299,
      "velocity": 102,
      "chip": "ym2612"
    },
    {
      "channel": 1,
      "note": 70,
      "start": 32.6354,
      "duration": 0.1895,
      "velocity": 91,
      "chip": "ym2612"
    },
    {
      "channel": 3,
      "note": 70,
      "start": 32.6371,
      "duration": 0.1887,
      "velocity": 102,
      "chip": "ym2612"
    },
    {
      "channel": 4,
      "note": 56,
      "start": 32.6384,
      "duration": 0.1025,
      "velocity": 91,
      "chip": "ym2612"
    },
    {
      "channel": 2,
      "note": 77,
      "start": 32.7393,
      "duration": 0.4835,
      "velocity": 102,
      "chip": "ym2612"
    },
    {
      "channel": 4,
      "note": 68,
      "start": 32.741,
      "duration": 0.1055,
      "velocity": 91,
      "chip": "ym2612"
    },
    {
      "channel": 1,
      "note": 71,
      "start": 32.8439,
      "duration": 0.277,
      "velocity": 91,
      "chip": "ym2612"
    },
    {
      "channel": 3,
      "note": 71,
      "start": 32.8455,
      "duration": 0.2762,
      "velocity": 102,
      "chip": "ym2612"
    },
    {
      "channel": 4,
      "note": 59,
      "start": 32.8466,
      "duration": 0.1075,
      "velocity": 91,
      "chip": "ym2612"
    },
    {
      "channel": 0,
      "note": 77,
      "start": 32.9517,
      "duration": 0.4227,
      "velocity": 102,
      "chip": "ym2612"
    },
    {
      "channel": 4,
      "note": 71,
      "start": 32.9543,
      "duration": 0.0816,
      "velocity": 91,
      "chip": "ym2612"
    },
    {
      "channel": 4,
      "note": 58,
      "start": 33.036,
      "duration": 0.1066,
      "velocity": 91,
      "chip": "ym2612"
    },
    {
      "channel": 1,
      "note": 73,
      "start": 33.1398,
      "duration": 0.0693,
      "velocity": 91,
      "chip": "ym2612"
    },
    {
      "channel": 3,
      "note": 73,
      "start": 33.1414,
      "duration": 0.0685,
      "velocity": 102,
      "chip": "ym2612"
    },
    {
      "channel": 4,
      "note": 70,
      "start": 33.1428,
      "duration": 0.0817,
      "velocity": 91,
      "chip": "ym2612"
    },
    {
      "channel": 4,
      "note": 59,
      "start": 33.2247,
      "duration": 0.0804,
      "velocity": 91,
      "chip": "ym2612"
    },
    {
      "channel": 4,
      "note": 71,
      "start": 33.3052,
      "duration": 0.0874,
      "velocity": 91,
      "chip": "ym2612"
    },
    {
      "channel": 1,
      "note": 68,
      "start": 33.3891,
      "duration": 0.0711,
      "velocity": 91,
      "chip": "ym2612"
    },
    {
      "channel": 2,
      "note": 80,
      "start": 33.3903,
      "duration": 0.0863,
      "velocity": 102,
      "chip": "ym2612"
    },
    {
      "channel": 3,
      "note": 68,
      "start": 33.3915,
      "duration": 0.0697,
      "velocity": 102,
      "chip": "ym2612"
    },
    {
      "channel": 4,
      "note": 60,
      "start": 33.3927,
      "duration": 0.0862,
      "velocity": 91,
      "chip": "ym2612"
    },
    {
      "channel": 1,
      "note": 70,
      "start": 33.4755,
      "duration": 0.0673,
      "velocity": 91,
      "chip": "ym2612"
    },
    {
      "channel": 2,
      "note": 82,
      "start": 33.4767,
      "duration": 0.0859,
      "velocity": 102,
      "chip": "ym2612"
    },
    {
      "channel": 3,
      "note": 70,
      "start": 33.4778,
      "duration": 0.0659,
      "velocity": 102,
      "chip": "ym2612"
    },
    {
      "channel": 4,
      "note": 72,
      "start": 33.4791,
      "duration": 0.0899,
      "velocity": 91,
      "chip": "ym2612"
    },
    {
      "channel": 0,
      "note": 80,
      "start": 33.5569,
      "duration": 0.0697,
      "velocity": 102,
      "chip": "ym2612"
    },
    {
      "channel": 1,
      "note": 71,
      "start": 33.5615,
      "duration": 0.0655,
      "velocity": 91,
      "chip": "ym2612"
    },
    {
      "channel": 2,
      "note": 83,
      "start": 33.5627,
      "duration": 0.0797,
      "velocity": 102,
      "chip": "ym2612"
    },
    {
      "channel": 3,
      "note": 71,
      "start": 33.5639,
      "duration": 0.0641,
      "velocity": 102,
      "chip": "ym2612"
    },
    {
      "channel": 4,
      "note": 61,
      "start": 33.5691,
      "duration": 0.1824,
      "velocity": 91,
      "chip": "ym2612"
    },
    {
      "channel": 0,
      "note": 82,
      "start": 33.6402,
      "duration": 0.0879,
      "velocity": 102,
      "chip": "ym2612"
    },
    {
      "channel": 1,
      "note": 71,
      "start": 33.6414,
      "duration": 0.0872,
      "velocity": 91,
      "chip": "ym2612"
    },
    {
      "channel": 2,
      "note": 83,
      "start": 33.6426,
      "duration": 0.1065,
      "velocity": 102,
      "chip": "ym2612"
    },
    {
      "channel": 3,
      "note": 71,
      "start": 33.6437,
      "duration": 0.0856,
      "velocity": 102,
      "chip": "ym2612"
    },
    {
      "channel": 0,
      "note": 83,
      "start": 33.7469,
      "duration": 0.0891,
      "velocity": 102,
      "chip": "ym2612"
    },
    {
      "channel": 1,
      "note": 70,
      "start": 33.748,
      "duration": 0.1948,
      "velocity": 91,
      "chip": "ym2612"
    },
    {
      "channel": 2,
      "note": 82,
      "start": 33.7493,
      "duration": 0.2141,
      "velocity": 102,
      "chip": "ym2612"
    },
    {
      "channel": 3,
      "note": 70,
      "start": 33.7505,
      "duration": 0.1931,
      "velocity": 102,
      "chip": "ym2612"
    },
    {
      "channel": 4,
      "note": 73,
      "start": 33.7517,
      "duration": 0.2141,
      "velocity": 91,
      "chip": "ym2612"
    },
    {
      "channel": 0,
      "note": 83,
      "start": 33.854,
      "duration": 0.0884,
      "velocity": 102,
      "chip": "ym2612"
    },
    {
      "channel": 0,
      "note": 82,
      "start": 33.961,
      "duration": 0.1681,
      "velocity": 102,
      "chip": "ym2612"
    },
    {
      "channel": 1,
      "note": 71,
      "start": 33.9623,
      "duration": 0.1673,
      "velocity": 91,
      "chip": "ym2612"
    },
    {
      "channel": 2,
      "note": 83,
      "start": 33.9635,
      "duration": 0.1869,
      "velocity": 102,
      "chip": "ym2612"
    },
    {
      "channel": 3,
      "note": 71,
      "start": 33.9648,
      "duration": 0.1655,
      "velocity": 102,
      "chip": "ym2612"
    },
    {
      "channel": 4,
      "note": 61,
      "start": 33.9659,
      "duration": 0.0784,
      "velocity": 91,
      "chip": "ym2612"
    },
    {
      "channel": 4,
      "note": 73,
      "start": 34.0444,
      "duration": 0.1083,
      "velocity": 91,
      "chip": "ym2612"
    },
    {
      "channel": 0,
      "note": 83,
      "start": 34.148,
      "duration": 0.1771,
      "velocity": 102,
      "chip": "ym2612"
    },
    {
      "channel": 1,
      "note": 70,
      "start": 34.1493,
      "duration": 0.1763,
      "velocity": 91,
      "chip": "ym2612"
    },
    {
      "channel": 2,
      "note": 82,
      "start": 34.1505,
      "duration": 0.1909,
      "velocity": 102,
      "chip": "ym2612"
    },
    {
      "channel": 3,
      "note": 70,
      "start": 34.1517,
      "duration": 0.1749,
      "velocity": 102,
      "chip": "ym2612"
    },
    {
      "channel": 4,
      "note": 56,
      "start": 34.1528,
      "duration": 0.1911,
      "velocity": 91,
      "chip": "ym2612"
    },
    {
      "channel": 0,
      "note": 82,
      "start": 34.3391,
      "duration": 0.1761,
      "velocity": 102,
      "chip": "ym2612"
    },
    {
      "channel": 1,
      "note": 71,
      "start": 34.3404,
      "duration": 0.2771,
      "velocity": 91,
      "chip": "ym2612"
    },
    {
      "channel": 2,
      "note": 83,
      "start": 34.3416,
      "duration": 0.2956,
      "velocity": 102,
      "chip": "ym2612"
    },
    {
      "channel": 3,
      "note": 71,
      "start": 34.3427,
      "duration": 0.2755,
      "velocity": 102,
      "chip": "ym2612"
    },
    {
      "channel": 4,
      "note": 59,
      "start": 34.344,
      "duration": 0.1028,
      "velocity": 91,
      "chip": "ym2612"
    },
    {
      "channel": 4,
      "note": 71,
      "start": 34.4469,
      "duration": 0.0835,
      "velocity": 91,
      "chip": "ym2612"
    },
    {
      "channel": 0,
      "note": 83,
      "start": 34.5282,
      "duration": 0.2841,
      "velocity": 102,
      "chip": "ym2612"
    },
    {
      "channel": 4,
      "note": 58,
      "start": 34.5306,
      "duration": 0.1091,
      "velocity": 91,
      "chip": "ym2612"
    },
    {
      "channel": 1,
      "note": 70,
      "start": 34.6361,
      "duration": 0.0895,
      "velocity": 91,
      "chip": "ym2612"
    },
    {
      "channel": 2,
      "note": 82,
      "start": 34.6373,
      "duration": 0.1069,
      "velocity": 102,
      "chip": "ym2612"
    },
    {
      "channel": 3,
      "note": 70,
      "start": 34.6386,
      "duration": 0.0878,
      "velocity": 102,
      "chip": "ym2612"
    },
    {
      "channel": 4,
      "note": 70,
      "start": 34.6398,
      "duration": 0.1061,
      "velocity": 91,
      "chip": "ym2612"
    },
    {
      "channel": 4,
      "note": 59,
      "start": 34.7461,
      "duration": 0.0811,
      "velocity": 91,
      "chip": "ym2612"
    },
    {
      "channel": 0,
      "note": 82,
      "start": 34.8258,
      "duration": 0.0861,
      "velocity": 102,
      "chip": "ym2612"
    },
    {
      "channel": 4,
      "note": 71,
      "start": 34.8273,
      "duration": 0.1078,
      "velocity": 91,
      "chip": "ym2612"
    },
    {
      "channel": 1,
      "note": 68,
      "start": 34.9316,
      "duration": 0.0853,
      "velocity": 91,
      "chip": "ym2612"
    },
    {
      "channel": 2,
      "note": 80,
      "start": 34.9329,
      "duration": 0.1038,
      "velocity": 102,
      "chip": "ym2612"
    },
    {
      "channel": 3,
      "note": 68,
      "start": 34.934,
      "duration": 0.0836,
      "velocity": 102,
      "chip": "ym2612"
    },
    {
      "channel": 4,
      "note": 56,
      "start": 34.9353,
      "duration": 0.2183,
      "velocity": 91,
      "chip": "ym2612"
    },
    {
      "channel": 1,
      "note": 70,
      "start": 35.0356,
      "duration": 0.0859,
      "velocity": 91,
      "chip": "ym2612"
    },
    {
      "channel": 2,
      "note": 82,
      "start": 35.0368,
      "duration": 0.1104,
      "velocity": 102,
      "chip": "ym2612"
    },
    {
      "channel": 3,
      "note": 70,
      "start": 35.038,
      "duration": 0.0843,
      "velocity": 102,
      "chip": "ym2612"
    },
    {
      "channel": 0,
      "note": 80,
      "start": 35.1414,
      "duration": 0.0698,
      "velocity": 102,
      "chip": "ym2612"
    },
    {
      "channel": 1,
      "note": 71,
      "start": 35.1427,
      "duration": 0.069,
      "velocity": 91,
      "chip": "ym2612"
    },
    {
      "channel": 2,
      "note": 83,
      "start": 35.1473,
      "duration": 0.0793,
      "velocity": 102,
      "chip": "ym2612"
    },
    {
      "channel": 3,
      "note": 71,
      "start": 35.1485,
      "duration": 0.0641,
      "velocity": 102,
      "chip": "ym2612"
    },
    {
      "channel": 4,
      "note": 61,
      "start": 35.1537,
      "duration": 0.1859,
      "velocity": 91,
      "chip": "ym2612"
    },
    {
      "channel": 0,
      "note": 82,
      "start": 35.2244,
      "duration": 0.0879,
      "velocity": 102,
      "chip": "ym2612"
    },
    {
      "channel": 1,
      "note": 71,
      "start": 35.2256,
      "duration": 0.0872,
      "velocity": 91,
      "chip": "ym2612"
    },
    {
      "channel": 2,
      "note": 83,
      "start": 35.2268,
      "duration": 0.1104,
      "velocity": 102,
      "chip": "ym2612"
    },
    {
      "channel": 3,
      "note": 71,
      "start": 35.228,
      "duration": 0.0856,
      "velocity": 102,
      "chip": "ym2612"
    },
    {
      "channel": 0,
      "note": 83,
      "start": 35.3348,
      "duration": 0.0818,
      "velocity": 102,
      "chip": "ym2612"
    },
    {
      "channel": 1,
      "note": 70,
      "start": 35.3361,
      "duration": 0.192,
      "velocity": 91,
      "chip": "ym2612"
    },
    {
      "channel": 2,
      "note": 82,
      "start": 35.3373,
      "duration": 0.2112,
      "velocity": 102,
      "chip": "ym2612"
    },
    {
      "channel": 3,
      "note": 70,
      "start": 35.3385,
      "duration": 0.1904,
      "velocity": 102,
      "chip": "ym2612"
    },
    {
      "channel": 4,
      "note": 73,
      "start": 35.3398,
      "duration": 0.2111,
      "velocity": 91,
      "chip": "ym2612"
    },
    {
      "channel": 0,
      "note": 83,
      "start": 35.4349,
      "duration": 0.0928,
      "velocity": 102,
      "chip": "ym2612"
    },
    {
      "channel": 0,
      "note": 82,
      "start": 35.5463,
      "duration": 0.171,
      "velocity": 102,
      "chip": "ym2612"
    },
    {
      "channel": 1,
      "note": 71,
      "start": 35.5474,
      "duration": 0.1703,
      "velocity": 91,
      "chip": "ym2612"
    },
    {
      "channel": 2,
      "note": 83,
      "start": 35.5487,
      "duration": 0.1899,
      "velocity": 102,
      "chip": "ym2612"
    },
    {
      "channel": 3,
      "note": 71,
      "start": 35.5498,
      "duration": 0.1686,
      "velocity": 102,
      "chip": "ym2612"
    },
    {
      "channel": 4,
      "note": 61,
      "start": 35.551,
      "duration": 0.0816,
      "velocity": 91,
      "chip": "ym2612"
    },
    {
      "channel": 4,
      "note": 73,
      "start": 35.6328,
      "duration": 0.1082,
      "velocity": 91,
      "chip": "ym2612"
    },
    {
      "channel": 0,
      "note": 83,
      "start": 35.7363,
      "duration": 0.1902,
      "velocity": 102,
      "chip": "ym2612"
    },
    {
      "channel": 1,
      "note": 70,
      "start": 35.7375,
      "duration": 0.1895,
      "velocity": 91,
      "chip": "ym2612"
    },
    {
      "channel": 2,
      "note": 82,
      "start": 35.7387,
      "duration": 0.209,
      "velocity": 102,
      "chip": "ym2612"
    },
    {
      "channel": 3,
      "note": 70,
      "start": 35.74,
      "duration": 0.1877,
      "velocity": 102,
      "chip": "ym2612"
    },
    {
      "channel": 4,
      "note": 56,
      "start": 35.7412,
      "duration": 0.1006,
      "velocity": 91,
      "chip": "ym2612"
    },
    {
      "channel": 4,
      "note": 68,
      "start": 35.8419,
      "duration": 0.1083,
      "velocity": 91,
      "chip": "ym2612"
    },
    {
      "channel": 0,
      "note": 82,
      "start": 35.9454,
      "duration": 0.175,
      "velocity": 102,
      "chip": "ym2612"
    },
    {
      "channel": 1,
      "note": 71,
      "start": 35.9466,
      "duration": 0.2759,
      "velocity": 91,
      "chip": "ym2612"
    },
    {
      "channel": 2,
      "note": 83,
      "start": 35.9478,
      "duration": 0.2947,
      "velocity": 102,
      "chip": "ym2612"
    },
    {
      "channel": 3,
      "note": 71,
      "start": 35.949,
      "duration": 0.2743,
      "velocity": 102,
      "chip": "ym2612"
    },
    {
      "channel": 4,
      "note": 59,
      "start": 35.9503,
      "duration": 0.1012,
      "velocity": 91,
      "chip": "ym2612"
    },
    {
      "channel": 4,
      "note": 71,
      "start": 36.0516,
      "duration": 0.084,
      "velocity": 91,
      "chip": "ym2612"
    },
    {
      "channel": 0,
      "note": 83,
      "start": 36.1334,
      "duration": 0.2596,
      "velocity": 102,
      "chip": "ym2612"
    },
    {
      "channel": 4,
      "note": 58,
      "start": 36.1358,
      "duration": 0.1093,
      "velocity": 91,
      "chip": "ym2612"
    },
    {
      "channel": 1,
      "note": 73,
      "start": 36.2414,
      "duration": 0.0696,
      "velocity": 91,
      "chip": "ym2612"
    },
    {
      "channel": 2,
      "note": 85,
      "start": 36.2427,
      "duration": 0.0821,
      "velocity": 102,
      "chip": "ym2612"
    },
    {
      "channel": 3,
      "note": 73,
      "start": 36.2439,
      "duration": 0.068,
      "velocity": 102,
      "chip": "ym2612"
    },
    {
      "channel": 4,
      "note": 70,
      "start": 36.2452,
      "duration": 0.0814,
      "velocity": 91,
      "chip": "ym2612"
    },
    {
      "channel": 4,
      "note": 59,
      "start": 36.3268,
      "duration": 0.0811,
      "velocity": 91,
      "chip": "ym2612"
    },
    {
      "channel": 0,
      "note": 85,
      "start": 36.4064,
      "duration": 0.0861,
      "velocity": 102,
      "chip": "ym2612"
    },
    {
      "channel": 4,
      "note": 71,
      "start": 36.408,
      "duration": 0.1075,
      "velocity": 91,
      "chip": "ym2612"
    },
    {
      "channel": 1,
      "note": 68,
      "start": 36.5119,
      "duration": 0.0668,
      "velocity": 91,
      "chip": "ym2612"
    },
    {
      "channel": 2,
      "note": 80,
      "start": 36.5132,
      "duration": 0.0804,
      "velocity": 102,
      "chip": "ym2612"
    },
    {
      "channel": 3,
      "note": 68,
      "start": 36.5143,
      "duration": 0.0653,
      "velocity": 102,
      "chip": "ym2612"
    },
    {
      "channel": 4,
      "note": 60,
      "start": 36.5156,
      "duration": 0.0803,
      "velocity": 91,
      "chip": "ym2612"
    },
    {
      "channel": 1,
      "note": 70,
      "start": 36.5925,
      "duration": 0.0685,
      "velocity": 91,
      "chip": "ym2612"
    },
    {
      "channel": 2,
      "note": 82,
      "start": 36.5937,
      "duration": 0.0866,
      "velocity": 102,
      "chip": "ym2612"
    },
    {
      "channel": 3,
      "note": 70,
      "start": 36.5949,
      "duration": 0.067,
      "velocity": 102,
      "chip": "ym2612"
    },
    {
      "channel": 4,
      "note": 72,
      "start": 36.596,
      "duration": 0.0906,
      "velocity": 91,
      "chip": "ym2612"
    },
    {
      "channel": 0,
      "note": 80,
      "start": 36.6746,
      "duration": 0.0698,
      "velocity": 102,
      "chip": "ym2612"
    },
    {
      "channel": 1,
      "note": 71,
      "start": 36.6793,
      "duration": 0.0657,
      "velocity": 91,
      "chip": "ym2612"
    },
    {
      "channel": 2,
      "note": 83,
      "start": 36.6804,
      "duration": 0.0808,
      "velocity": 102,
      "chip": "ym2612"
    },
    {
      "channel": 3,
      "note": 71,
      "start": 36.6816,
      "duration": 0.0643,
      "velocity": 102,
      "chip": "ym2612"
    },
    {
      "channel": 4,
      "note": 61,
      "start": 36.6868,
      "duration": 0.1806,
      "velocity": 91,
      "chip": "ym2612"
    },
    {
      "channel": 0,
      "note": 82,
      "start": 36.759,
      "duration": 0.0848,
      "velocity": 102,
      "chip": "ym2612"
    },
    {
      "channel": 1,
      "note": 71,
      "start": 36.7602,
      "duration": 0.0839,
      "velocity": 91,
      "chip": "ym2612"
    },
    {
      "channel": 2,
      "note": 83,
      "start": 36.7614,
      "duration": 0.1035,
      "velocity": 102,
      "chip": "ym2612"
    },
    {
      "channel": 3,
      "note": 71,
      "start": 36.7625,
      "duration": 0.0823,
      "velocity": 102,
      "chip": "ym2612"
    },
    {
      "channel": 0,
      "note": 83,
      "start": 36.8626,
      "duration": 0.0857,
      "velocity": 102,
      "chip": "ym2612"
    },
    {
      "channel": 1,
      "note": 70,
      "start": 36.8639,
      "duration": 0.1959,
      "velocity": 91,
      "chip": "ym2612"
    },
    {
      "channel": 2,
      "note": 82,
      "start": 36.8651,
      "duration": 0.2151,
      "velocity": 102,
      "chip": "ym2612"
    },
    {
      "channel": 3,
      "note": 70,
      "start": 36.8663,
      "duration": 0.1943,
      "velocity": 102,
      "chip": "ym2612"
    },
    {
      "channel": 4,
      "note": 73,
      "start": 36.8676,
      "duration": 0.215,
      "velocity": 91,
      "chip": "ym2612"
    },
    {
      "channel": 0,
      "note": 83,
      "start": 36.9666,
      "duration": 0.0928,
      "velocity": 102,
      "chip": "ym2612"
    },
    {
      "channel": 0,
      "note": 82,
      "start": 37.0779,
      "duration": 0.171,
      "velocity": 102,
      "chip": "ym2612"
    },
    {
      "channel": 1,
      "note": 71,
      "start": 37.0791,
      "duration": 0.1703,
      "velocity": 91,
      "chip": "ym2612"
    },
    {
      "channel": 2,
      "note": 83,
      "start": 37.0804,
      "duration": 0.1898,
      "velocity": 102,
      "chip": "ym2612"
    },
    {
      "channel": 3,
      "note": 71,
      "start": 37.0815,
      "duration": 0.1686,
      "velocity": 102,
      "chip": "ym2612"
    },
    {
      "channel": 4,
      "note": 61,
      "start": 37.0827,
      "duration": 0.0816,
      "velocity": 91,
      "chip": "ym2612"
    },
    {
      "channel": 4,
      "note": 73,
      "start": 37.1645,
      "duration": 0.1082,
      "velocity": 91,
      "chip": "ym2612"
    },
    {
      "channel": 0,
      "note": 83,
      "start": 37.2679,
      "duration": 0.1741,
      "velocity": 102,
      "chip": "ym2612"
    },
    {
      "channel": 1,
      "note": 70,
      "start": 37.2691,
      "duration": 0.1734,
      "velocity": 91,
      "chip": "ym2612"
    },
    {
      "channel": 2,
      "note": 82,
      "start": 37.2704,
      "duration": 0.188,
      "velocity": 102,
      "chip": "ym2612"
    },
    {
      "channel": 3,
      "note": 70,
      "start": 37.2717,
      "duration": 0.1719,
      "velocity": 102,
      "chip": "ym2612"
    },
    {
      "channel": 4,
      "note": 56,
      "start": 37.2728,
      "duration": 0.1881,
      "velocity": 91,
      "chip": "ym2612"
    },
    {
      "channel": 0,
      "note": 82,
      "start": 37.4561,
      "duration": 0.1904,
      "velocity": 102,
      "chip": "ym2612"
    },
    {
      "channel": 1,
      "note": 71,
      "start": 37.4573,
      "duration": 0.2943,
      "velocity": 91,
      "chip": "ym2612"
    },
    {
      "channel": 2,
      "note": 83,
      "start": 37.4586,
      "duration": 0.3129,
      "velocity": 102,
      "chip": "ym2612"
    },
    {
      "channel": 3,
      "note": 71,
      "start": 37.4598,
      "duration": 0.2927,
      "velocity": 102,
      "chip": "ym2612"
    },
    {
      "channel": 4,
      "note": 59,
      "start": 37.4611,
      "duration": 0.1006,
      "velocity": 91,
      "chip": "ym2612"
    },
    {
      "channel": 4,
      "note": 71,
      "start": 37.5618,
      "duration": 0.1056,
      "velocity": 91,
      "chip": "ym2612"
    },
    {
      "channel": 0,
      "note": 83,
      "start": 37.6651,
      "duration": 0.2797,
      "velocity": 102,
      "chip": "ym2612"
    },
    {
      "channel": 4,
      "note": 58,
      "start": 37.6676,
      "duration": 0.1063,
      "velocity": 91,
      "chip": "ym2612"
    },
    {
      "channel": 1,
      "note": 70,
      "start": 37.7704,
      "duration": 0.089,
      "velocity": 91,
      "chip": "ym2612"
    },
    {
      "channel": 2,
      "note": 82,
      "start": 37.7717,
      "duration": 0.1062,
      "velocity": 102,
      "chip": "ym2612"
    },
    {
      "channel": 3,
      "note": 70,
      "start": 37.7728,
      "duration": 0.0873,
      "velocity": 102,
      "chip": "ym2612"
    },
    {
      "channel": 4,
      "note": 70,
      "start": 37.774,
      "duration": 0.1057,
      "velocity": 91,
      "chip": "ym2612"
    },
    {
      "channel": 4,
      "note": 59,
      "start": 37.8798,
      "duration": 0.0799,
      "velocity": 91,
      "chip": "ym2612"
    },
    {
      "channel": 0,
      "note": 82,
      "start": 37.9583,
      "duration": 0.0862,
      "velocity": 102,
      "chip": "ym2612"
    },
    {
      "channel": 4,
      "note": 71,
      "start": 37.9599,
      "duration": 0.1079,
      "velocity": 91,
      "chip": "ym2612"
    },
    {
      "channel": 1,
      "note": 68,
      "start": 38.0643,
      "duration": 0.0853,
      "velocity": 91,
      "chip": "ym2612"
    },
    {
      "channel": 2,
      "note": 80,
      "start": 38.0655,
      "duration": 0.1038,
      "velocity": 102,
      "chip": "ym2612"
    },
    {
      "channel": 3,
      "note": 68,
      "start": 38.0667,
      "duration": 0.0836,
      "velocity": 102,
      "chip": "ym2612"
    },
    {
      "channel": 4,
      "note": 56,
      "start": 38.068,
      "duration": 0.2138,
      "velocity": 91,
      "chip": "ym2612"
    },
    {
      "channel": 1,
      "note": 70,
      "start": 38.1683,
      "duration": 0.0859,
      "velocity": 91,
      "chip": "ym2612"
    },
    {
      "channel": 2,
      "note": 82,
      "start": 38.1694,
      "duration": 0.1068,
      "velocity": 102,
      "chip": "ym2612"
    },
    {
      "channel": 3,
      "note": 70,
      "start": 38.1707,
      "duration": 0.0843,
      "velocity": 102,
      "chip": "ym2612"
    },
    {
      "channel": 0,
      "note": 80,
      "start": 38.2738,
      "duration": 0.0693,
      "velocity": 102,
      "chip": "ym2612"
    },
    {
      "channel": 1,
      "note": 71,
      "start": 38.2752,
      "duration": 0.0684,
      "velocity": 91,
      "chip": "ym2612"
    },
    {
      "channel": 2,
      "note": 83,
      "start": 38.2764,
      "duration": 0.0826,
      "velocity": 102,
      "chip": "ym2612"
    },
    {
      "channel": 3,
      "note": 71,
      "start": 38.2776,
      "duration": 0.0669,
      "velocity": 102,
      "chip": "ym2612"
    },
    {
      "channel": 4,
      "note": 61,
      "start": 38.282,
      "duration": 0.1875,
      "velocity": 91,
      "chip": "ym2612"
    },
    {
      "channel": 0,
      "note": 82,
      "start": 38.3566,
      "duration": 0.0891,
      "velocity": 102,
      "chip": "ym2612"
    },
    {
      "channel": 1,
      "note": 71,
      "start": 38.3578,
      "duration": 0.0884,
      "velocity": 91,
      "chip": "ym2612"
    },
    {
      "channel": 2,
      "note": 83,
      "start": 38.3591,
      "duration": 0.1079,
      "velocity": 102,
      "chip": "ym2612"
    },
    {
      "channel": 3,
      "note": 71,
      "start": 38.3602,
      "duration": 0.0868,
      "velocity": 102,
      "chip": "ym2612"
    },
    {
      "channel": 0,
      "note": 83,
      "start": 38.4648,
      "duration": 0.0892,
      "velocity": 102,
      "chip": "ym2612"
    },
    {
      "channel": 1,
      "note": 70,
      "start": 38.466,
      "duration": 0.1951,
      "velocity": 91,
      "chip": "ym2612"
    },
    {
      "channel": 2,
      "note": 82,
      "start": 38.4672,
      "duration": 0.2144,
      "velocity": 102,
      "chip": "ym2612"
    },
    {
      "channel": 3,
      "note": 70,
      "start": 38.4685,
      "duration": 0.1934,
      "velocity": 102,
      "chip": "ym2612"
    },
    {
      "channel": 4,
      "note": 73,
      "start": 38.4696,
      "duration": 0.2143,
      "velocity": 91,
      "chip": "ym2612"
    },
    {
      "channel": 0,
      "note": 83,
      "start": 38.5721,
      "duration": 0.0885,
      "velocity": 102,
      "chip": "ym2612"
    },
    {
      "channel": 0,
      "note": 82,
      "start": 38.6793,
      "duration": 0.17,
      "velocity": 102,
      "chip": "ym2612"
    },
    {
      "channel": 1,
      "note": 71,
      "start": 38.6805,
      "duration": 0.1692,
      "velocity": 91,
      "chip": "ym2612"
    },
    {
      "channel": 2,
      "note": 83,
      "start": 38.6817,
      "duration": 0.1888,
      "velocity": 102,
      "chip": "ym2612"
    },
    {
      "channel": 3,
      "note": 71,
      "start": 38.6829,
      "duration": 0.1675,
      "velocity": 102,
      "chip": "ym2612"
    },
    {
      "channel": 4,
      "note": 61,
      "start": 38.684,
      "duration": 0.078,
      "velocity": 91,
      "chip": "ym2612"
    },
    {
      "channel": 4,
      "note": 73,
      "start": 38.7621,
      "duration": 0.1109,
      "velocity": 91,
      "chip": "ym2612"
    },
    {
      "channel": 0,
      "note": 83,
      "start": 38.8683,
      "duration": 0.1904,
      "velocity": 102,
      "chip": "ym2612"
    },
    {
      "channel": 1,
      "note": 70,
      "start": 38.8695,
      "duration": 0.1896,
      "velocity": 91,
      "chip": "ym2612"
    },
    {
      "channel": 2,
      "note": 82,
      "start": 38.8707,
      "duration": 0.2092,
      "velocity": 102,
      "chip": "ym2612"
    },
    {
      "channel": 3,
      "note": 70,
      "start": 38.872,
      "duration": 0.1878,
      "velocity": 102,
      "chip": "ym2612"
    },
    {
      "channel": 4,
      "note": 56,
      "start": 38.8732,
      "duration": 0.1006,
      "velocity": 91,
      "chip": "ym2612"
    },
    {
      "channel": 4,
      "note": 68,
      "start": 38.9739,
      "duration": 0.1084,
      "velocity": 91,
      "chip": "ym2612"
    },
    {
      "channel": 0,
      "note": 82,
      "start": 39.0776,
      "duration": 0.1788,
      "velocity": 102,
      "chip": "ym2612"
    },
    {
      "channel": 1,
      "note": 71,
      "start": 39.0788,
      "duration": 0.2813,
      "velocity": 91,
      "chip": "ym2612"
    },
    {
      "channel": 2,
      "note": 85,
      "start": 39.08,
      "duration": 0.038,
      "velocity": 102,
      "chip": "ym2612"
    },
    {
      "channel": 3,
      "note": 71,
      "start": 39.0812,
      "duration": 0.2795,
      "velocity": 102,
      "chip": "ym2612"
    },
    {
      "channel": 4,
      "note": 59,
      "start": 39.0824,
      "duration": 0.1055,
      "velocity": 91,
      "chip": "ym2612"
    },
    {
      "channel": 2,
      "note": 83,
      "start": 39.1181,
      "duration": 0.0681,
      "velocity": 102,
      "chip": "ym2612"
    },
    {
      "channel": 2,
      "note": 82,
      "start": 39.1863,
      "duration": 0.0355,
      "velocity": 102,
      "chip": "ym2612"
    },
    {
      "channel": 4,
      "note": 71,
      "start": 39.1881,
      "duration": 0.0849,
      "velocity": 91,
      "chip": "ym2612"
    },
    {
      "channel": 2,
      "note": 80,
      "start": 39.222,
      "duration": 0.0493,
      "velocity": 102,
      "chip": "ym2612"
    },
    {
      "channel": 0,
      "note": 85,
      "start": 39.2698,
      "duration": 0.0244,
      "velocity": 102,
      "chip": "ym2612"
    },
    {
      "channel": 2,
      "note": 78,
      "start": 39.2714,
      "duration": 0.0402,
      "velocity": 102,
      "chip": "ym2612"
    },
    {
      "channel": 4,
      "note": 58,
      "start": 39.2731,
      "duration": 0.1104,
      "velocity": 91,
      "chip": "ym2612"
    },
    {
      "channel": 0,
      "note": 83,
      "start": 39.3104,
      "duration": 0.0492,
      "velocity": 102,
      "chip": "ym2612"
    },
    {
      "channel": 2,
      "note": 77,
      "start": 39.3117,
      "duration": 0.0694,
      "velocity": 102,
      "chip": "ym2612"
    },
    {
      "channel": 0,
      "note": 82,
      "start": 39.3786,
      "duration": 0.0228,
      "velocity": 102,
      "chip": "ym2612"
    },
    {
      "channel": 1,
      "note": 73,
      "start": 39.38,
      "duration": 0.0703,
      "velocity": 91,
      "chip": "ym2612"
    },
    {
      "channel": 2,
      "note": 75,
      "start": 39.3812,
      "duration": 0.0349,
      "velocity": 102,
      "chip": "ym2612"
    },
    {
      "channel": 3,
      "note": 73,
      "start": 39.3825,
      "duration": 0.0688,
      "velocity": 102,
      "chip": "ym2612"
    },
    {
      "channel": 4,
      "note": 70,
      "start": 39.3836,
      "duration": 0.0835,
      "velocity": 91,
      "chip": "ym2612"
    },
    {
      "channel": 0,
      "note": 80,
      "start": 39.4145,
      "duration": 0.0352,
      "velocity": 102,
      "chip": "ym2612"
    },
    {
      "channel": 2,
      "note": 73,
      "start": 39.4162,
      "duration": 0.049,
      "velocity": 102,
      "chip": "ym2612"
    },
    {
      "channel": 0,
      "note": 78,
      "start": 39.4633,
      "duration": 0.0231,
      "velocity": 102,
      "chip": "ym2612"
    },
    {
      "channel": 2,
      "note": 71,
      "start": 39.4653,
      "duration": 0.0375,
      "velocity": 102,
      "chip": "ym2612"
    },
    {
      "channel": 4,
      "note": 59,
      "start": 39.4672,
      "duration": 0.084,
      "velocity": 91,
      "chip": "ym2612"
    },
    {
      "channel": 0,
      "note": 77,
      "start": 39.5015,
      "duration": 0.0364,
      "velocity": 102,
      "chip": "ym2612"
    },
    {
      "channel": 2,
      "note": 70,
      "start": 39.5029,
      "duration": 0.0469,
      "velocity": 102,
      "chip": "ym2612"
    },
    {
      "channel": 0,
      "note": 75,
      "start": 39.5485,
      "duration": 0.0223,
      "velocity": 102,
      "chip": "ym2612"
    },
    {
      "channel": 2,
      "note": 68,
      "start": 39.5499,
      "duration": 0.0342,
      "velocity": 102,
      "chip": "ym2612"
    },
    {
      "channel": 4,
      "note": 71,
      "start": 39.5513,
      "duration": 0.0842,
      "velocity": 91,
      "chip": "ym2612"
    },
    {
      "channel": 0,
      "note": 73,
      "start": 39.5829,
      "duration": 0.0341,
      "velocity": 102,
      "chip": "ym2612"
    },
    {
      "channel": 2,
      "note": 66,
      "start": 39.5843,
      "duration": 0.0488,
      "velocity": 102,
      "chip": "ym2612"
    },
    {
      "channel": 0,
      "note": 71,
      "start": 39.6307,
      "duration": 0.0205,
      "velocity": 102,
      "chip": "ym2612"
    },
    {
      "channel": 1,
      "note": 68,
      "start": 39.632,
      "duration": 0.0693,
      "velocity": 91,
      "chip": "ym2612"
    },
    {
      "channel": 2,
      "note": 65,
      "start": 39.6332,
      "duration": 0.0346,
      "velocity": 102,
      "chip": "ym2612"
    },
    {
      "channel": 3,
      "note": 68,
      "start": 39.6344,
      "duration": 0.0679,
      "velocity": 102,
      "chip": "ym2612"
    },
    {
      "channel": 4,
      "note": 60,
      "start": 39.6357,
      "duration": 0.0813,
      "velocity": 91,
      "chip": "ym2612"
    },
    {
      "channel": 0,
      "note": 70,
      "start": 39.6664,
      "duration": 0.0345,
      "velocity": 102,
      "chip": "ym2612"
    },
    {
      "channel": 2,
      "note": 63,
      "start": 39.668,
      "duration": 0.0465,
      "velocity": 102,
      "chip": "ym2612"
    },
    {
      "channel": 0,
      "note": 68,
      "start": 39.7122,
      "duration": 0.0205,
      "velocity": 102,
      "chip": "ym2612"
    },
    {
      "channel": 1,
      "note": 70,
      "start": 39.7135,
      "duration": 0.069,
      "velocity": 91,
      "chip": "ym2612"
    },
    {
      "channel": 2,
      "note": 61,
      "start": 39.7147,
      "duration": 0.0863,
      "velocity": 102,
      "chip": "ym2612"
    },
    {
      "channel": 3,
      "note": 70,
      "start": 39.7159,
      "duration": 0.0676,
      "velocity": 102,
      "chip": "ym2612"
    },
    {
      "channel": 4,
      "note": 72,
      "start": 39.7172,
      "duration": 0.0937,
      "velocity": 91,
      "chip": "ym2612"
    },
    {
      "channel": 0,
      "note": 66,
      "start": 39.7477,
      "duration": 0.0343,
      "velocity": 102,
      "chip": "ym2612"
    },
    {
      "channel": 0,
      "note": 65,
      "start": 39.7951,
      "duration": 0.0232,
      "velocity": 102,
      "chip": "ym2612"
    },
    {
      "channel": 1,
      "note": 71,
      "start": 39.7999,
      "duration": 0.0668,
      "velocity": 91,
      "chip": "ym2612"
    },
    {
      "channel": 2,
      "note": 90,
      "start": 39.8011,
      "duration": 1.1725,
      "velocity": 102,
      "chip": "ym2612"
    },
    {
      "channel": 3,
      "note": 71,
      "start": 39.8061,
      "duration": 0.0615,
      "velocity": 102,
      "chip": "ym2612"
    },
    {
      "channel": 4,
      "note": 61,
      "start": 39.811,
      "duration": 0.1801,
      "velocity": 91,
      "chip": "ym2612"
    },
    {
      "channel": 0,
      "note": 63,
      "start": 39.831,
      "duration": 0.0351,
      "velocity": 102,
      "chip": "ym2612"
    },
    {
      "channel": 0,
      "note": 61,
      "start": 39.8802,
      "duration": 0.0882,
      "velocity": 102,
      "chip": "ym2612"
    },
    {
      "channel": 1,
      "note": 71,
      "start": 39.8813,
      "duration": 0.0874,
      "velocity": 91,
      "chip": "ym2612"
    },
    {
      "channel": 3,
      "note": 71,
      "start": 39.883,
      "duration": 0.0865,
      "velocity": 102,
      "chip": "ym2612"
    },
    {
      "channel": 0,
      "note": 90,
      "start": 39.9873,
      "duration": 1.1576,
      "velocity": 102,
      "chip": "ym2612"
    },
    {
      "channel": 1,
      "note": 70,
      "start": 39.9885,
      "duration": 0.1928,
      "velocity": 91,
      "chip": "ym2612"
    },
    {
      "channel": 3,
      "note": 70,
      "start": 39.9901,
      "duration": 0.192,
      "velocity": 102,
      "chip": "ym2612"
    },
    {
      "channel": 4,
      "note": 73,
      "start": 39.9913,
      "duration": 0.2111,
      "velocity": 91,
      "chip": "ym2612"
    },
    {
      "channel": 1,
      "note": 71,
      "start": 40.1996,
      "duration": 0.1631,
      "velocity": 91,
      "chip": "ym2612"
    },
    {
      "channel": 3,
      "note": 71,
      "start": 40.2012,
      "duration": 0.1621,
      "velocity": 102,
      "chip": "ym2612"
    },
    {
      "channel": 4,
      "note": 61,
      "start": 40.2025,
      "duration": 0.0727,
      "velocity": 91,
      "chip": "ym2612"
    },
    {
      "channel": 4,
      "note": 73,
      "start": 40.2753,
      "duration": 0.1088,
      "velocity": 91,
      "chip": "ym2612"
    },
    {
      "channel": 1,
      "note": 70,
      "start": 40.3815,
      "duration": 0.1728,
      "velocity": 91,
      "chip": "ym2612"
    },
    {
      "channel": 3,
      "note": 70,
      "start": 40.383,
      "duration": 0.172,
      "velocity": 102,
      "chip": "ym2612"
    },
    {
      "channel": 4,
      "note": 56,
      "start": 40.3842,
      "duration": 0.1861,
      "velocity": 91,
      "chip": "ym2612"
    },
    {
      "channel": 1,
      "note": 73,
      "start": 40.5677,
      "duration": 0.2783,
      "velocity": 91,
      "chip": "ym2612"
    },
    {
      "channel": 3,
      "note": 73,
      "start": 40.5691,
      "duration": 0.2775,
      "velocity": 102,
      "chip": "ym2612"
    },
    {
      "channel": 4,
      "note": 59,
      "start": 40.5705,
      "duration": 0.1047,
      "velocity": 91,
      "chip": "ym2612"
    },
    {
      "channel": 4,
      "note": 71,
      "start": 40.6754,
      "duration": 0.0834,
      "velocity": 91,
      "chip": "ym2612"
    },
    {
      "channel": 4,
      "note": 58,
      "start": 40.7589,
      "duration": 0.1084,
      "velocity": 91,
      "chip": "ym2612"
    },
    {
      "channel": 1,
      "note": 71,
      "start": 40.8647,
      "duration": 0.09,
      "velocity": 91,
      "chip": "ym2612"
    },
    {
      "channel": 3,
      "note": 71,
      "start": 40.8663,
      "duration": 0.0891,
      "velocity": 102,
      "chip": "ym2612"
    },
    {
      "channel": 4,
      "note": 70,
      "start": 40.8674,
      "duration": 0.1082,
      "velocity": 91,
      "chip": "ym2612"
    },
    {
      "channel": 2,
      "note": 89,
      "start": 40.9738,
      "duration": 0.4065,
      "velocity": 102,
      "chip": "ym2612"
    },
    {
      "channel": 4,
      "note": 59,
      "start": 40.9757,
      "duration": 0.0838,
      "velocity": 91,
      "chip": "ym2612"
    },
    {
      "channel": 4,
      "note": 71,
      "start": 41.0596,
      "duration": 0.1082,
      "velocity": 91,
      "chip": "ym2612"
    },
    {
      "channel": 0,
      "note": 89,
      "start": 41.1639,
      "duration": 0.3873,
      "velocity": 102,
      "chip": "ym2612"
    },
    {
      "channel": 1,
      "note": 68,
      "start": 41.1651,
      "duration": 0.0869,
      "velocity": 91,
      "chip": "ym2612"
    },
    {
      "channel": 3,
      "note": 68,
      "start": 41.1667,
      "duration": 0.0861,
      "velocity": 102,
      "chip": "ym2612"
    },
    {
      "channel": 4,
      "note": 56,
      "start": 41.1679,
      "duration": 0.2179,
      "velocity": 91,
      "chip": "ym2612"
    },
    {
      "channel": 1,
      "note": 70,
      "start": 41.2706,
      "duration": 0.0886,
      "velocity": 91,
      "chip": "ym2612"
    },
    {
      "channel": 3,
      "note": 70,
      "start": 41.2722,
      "duration": 0.0877,
      "velocity": 102,
      "chip": "ym2612"
    },
    {
      "channel": 1,
      "note": 71,
      "start": 41.3791,
      "duration": 0.0696,
      "velocity": 91,
      "chip": "ym2612"
    },
    {
      "channel": 2,
      "note": 87,
      "start": 41.3804,
      "duration": 0.2931,
      "velocity": 102,
      "chip": "ym2612"
    },
    {
      "channel": 3,
      "note": 71,
      "start": 41.3816,
      "duration": 0.0679,
      "velocity": 102,
      "chip": "ym2612"
    },
    {
      "channel": 4,
      "note": 61,
      "start": 41.386,
      "duration": 0.1879,
      "velocity": 91,
      "chip": "ym2612"
    },
    {
      "channel": 1,
      "note": 71,
      "start": 41.4618,
      "duration": 0.0897,
      "velocity": 91,
      "chip": "ym2612"
    },
    {
      "channel": 3,
      "note": 71,
      "start": 41.4633,
      "duration": 0.089,
      "velocity": 102,
      "chip": "ym2612"
    },
    {
      "channel": 0,
      "note": 87,
      "start": 41.5699,
      "duration": 0.2829,
      "velocity": 102,
      "chip": "ym2612"
    },
    {
      "channel": 1,
      "note": 70,
      "start": 41.5712,
      "duration": 0.1923,
      "velocity": 91,
      "chip": "ym2612"
    },
    {
      "channel": 3,
      "note": 70,
      "start": 41.5728,
      "duration": 0.1915,
      "velocity": 102,
      "chip": "ym2612"
    },
    {
      "channel": 4,
      "note": 73,
      "start": 41.574,
      "duration": 0.2108,
      "velocity": 91,
      "chip": "ym2612"
    },
    {
      "channel": 2,
      "note": 89,
      "start": 41.6736,
      "duration": 0.5171,
      "velocity": 102,
      "chip": "ym2612"
    },
    {
      "channel": 1,
      "note": 71,
      "start": 41.782,
      "duration": 0.1757,
      "velocity": 91,
      "chip": "ym2612"
    },
    {
      "channel": 3,
      "note": 71,
      "start": 41.7838,
      "duration": 0.1747,
      "velocity": 102,
      "chip": "ym2612"
    },
    {
      "channel": 4,
      "note": 61,
      "start": 41.7849,
      "duration": 0.0859,
      "velocity": 91,
      "chip": "ym2612"
    },
    {
      "channel": 0,
      "note": 89,
      "start": 41.8685,
      "duration": 0.499,
      "velocity": 102,
      "chip": "ym2612"
    },
    {
      "channel": 4,
      "note": 73,
      "start": 41.8709,
      "duration": 0.1084,
      "velocity": 91,
      "chip": "ym2612"
    },
    {
      "channel": 1,
      "note": 70,
      "start": 41.9767,
      "duration": 0.1944,
      "velocity": 91,
      "chip": "ym2612"
    },
    {
      "channel": 3,
      "note": 70,
      "start": 41.9782,
      "duration": 0.1936,
      "velocity": 102,
      "chip": "ym2612"
    },
    {
      "channel": 4,
      "note": 56,
      "start": 41.9795,
      "duration": 0.1023,
      "velocity": 91,
      "chip": "ym2612"
    },
    {
      "channel": 4,
      "note": 68,
      "start": 42.082,
      "duration": 0.111,
      "velocity": 91,
      "chip": "ym2612"
    },
    {
      "channel": 1,
      "note": 71,
      "start": 42.1899,
      "duration": 0.2821,
      "velocity": 91,
      "chip": "ym2612"
    },
    {
      "channel": 3,
      "note": 71,
      "start": 42.1919,
      "duration": 0.2806,
      "velocity": 102,
      "chip": "ym2612"
    },
    {
      "channel": 4,
      "note": 59,
      "start": 42.1931,
      "duration": 0.1053,
      "velocity": 91,
      "chip": "ym2612"
    },
    {
      "channel": 4,
      "note": 71,
      "start": 42.2985,
      "duration": 0.0843,
      "velocity": 91,
      "chip": "ym2612"
    },
    {
      "channel": 4,
      "note": 58,
      "start": 42.3829,
      "duration": 0.1103,
      "velocity": 91,
      "chip": "ym2612"
    },
    {
      "channel": 1,
      "note": 73,
      "start": 42.4907,
      "duration": 0.071,
      "velocity": 91,
      "chip": "ym2612"
    },
    {
      "channel": 3,
      "note": 73,
      "start": 42.4922,
      "duration": 0.0701,
      "velocity": 102,
      "chip": "ym2612"
    },
    {
      "channel": 4,
      "note": 70,
      "start": 42.4934,
      "duration": 0.0823,
      "velocity": 91,
      "chip": "ym2612"
    },
    {
      "channel": 4,
      "note": 59,
      "start": 42.5758,
      "duration": 0.0827,
      "velocity": 91,
      "chip": "ym2612"
    },
    {
      "channel": 4,
      "note": 71,
      "start": 42.6586,
      "duration": 0.1091,
      "velocity": 91,
      "chip": "ym2612"
    },
    {
      "channel": 1,
      "note": 68,
      "start": 42.7651,
      "duration": 0.0857,
      "velocity": 91,
      "chip": "ym2612"
    },
    {
      "channel": 3,
      "note": 68,
      "start": 42.7665,
      "duration": 0.0849,
      "velocity": 102,
      "chip": "ym2612"
    },
    {
      "channel": 4,
      "note": 60,
      "start": 42.7678,
      "duration": 0.1042,
      "velocity": 91,
      "chip": "ym2612"
    },
    {
      "channel": 1,
      "note": 70,
      "start": 42.8696,
      "duration": 0.0899,
      "velocity": 91,
      "chip": "ym2612"
    },
    {
      "channel": 3,
      "note": 70,
      "start": 42.871,
      "duration": 0.089,
      "velocity": 102,
      "chip": "ym2612"
    },
    {
      "channel": 4,
      "note": 72,
      "start": 42.8722,
      "duration": 0.1173,
      "velocity": 91,
      "chip": "ym2612"
    },
    {
      "channel": 1,
      "note": 71,
      "start": 42.9828,
      "duration": 0.0671,
      "velocity": 91,
      "chip": "ym2612"
    },
    {
      "channel": 3,
      "note": 71,
      "start": 42.9846,
      "duration": 0.0659,
      "velocity": 102,
      "chip": "ym2612"
    },
    {
      "channel": 4,
      "note": 61,
      "start": 42.9901,
      "duration": 0.1852,
      "velocity": 91,
      "chip": "ym2612"
    },
    {
      "channel": 1,
      "note": 71,
      "start": 43.0631,
      "duration": 0.0902,
      "velocity": 91,
      "chip": "ym2612"
    },
    {
      "channel": 3,
      "note": 71,
      "start": 43.0644,
      "duration": 0.0895,
      "velocity": 102,
      "chip": "ym2612"
    },
    {
      "channel": 1,
      "note": 70,
      "start": 43.173,
      "duration": 0.1721,
      "velocity": 91,
      "chip": "ym2612"
    },
    {
      "channel": 3,
      "note": 70,
      "start": 43.1743,
      "duration": 0.1714,
      "velocity": 102,
      "chip": "ym2612"
    },
    {
      "channel": 4,
      "note": 73,
      "start": 43.1754,
      "duration": 0.1918,
      "velocity": 91,
      "chip": "ym2612"
    },
    {
      "channel": 1,
      "note": 71,
      "start": 43.3637,
      "duration": 0.1702,
      "velocity": 91,
      "chip": "ym2612"
    },
    {
      "channel": 2,
      "note": 90,
      "start": 43.3649,
      "duration": 0.8084,
      "velocity": 102,
      "chip": "ym2612"
    },
    {
      "channel": 3,
      "note": 71,
      "start": 43.3662,
      "duration": 0.1684,
      "velocity": 102,
      "chip": "ym2612"
    },
    {
      "channel": 4,
      "note": 61,
      "start": 43.3673,
      "duration": 0.0817,
      "velocity": 91,
      "chip": "ym2612"
    },
    {
      "channel": 4,
      "note": 73,
      "start": 43.4492,
      "duration": 0.1074,
      "velocity": 91,
      "chip": "ym2612"
    },
    {
      "channel": 0,
      "note": 90,
      "start": 43.5527,
      "duration": 0.7919,
      "velocity": 102,
      "chip": "ym2612"
    },
    {
      "channel": 1,
      "note": 70,
      "start": 43.5538,
      "duration": 0.1734,
      "velocity": 91,
      "chip": "ym2612"
    },
    {
      "channel": 3,
      "note": 70,
      "start": 43.5554,
      "duration": 0.1727,
      "velocity": 102,
      "chip": "ym2612"
    },
    {
      "channel": 4,
      "note": 56,
      "start": 43.5568,
      "duration": 0.1866,
      "velocity": 91,
      "chip": "ym2612"
    },
    {
      "channel": 1,
      "note": 73,
      "start": 43.7406,
      "duration": 0.3057,
      "velocity": 91,
      "chip": "ym2612"
    },
    {
      "channel": 3,
      "note": 73,
      "start": 43.7422,
      "duration": 0.3047,
      "velocity": 102,
      "chip": "ym2612"
    },
    {
      "channel": 4,
      "note": 59,
      "start": 43.7434,
      "duration": 0.1046,
      "velocity": 91,
      "chip": "ym2612"
    },
    {
      "channel": 4,
      "note": 71,
      "start": 43.8481,
      "duration": 0.1086,
      "velocity": 91,
      "chip": "ym2612"
    },
    {
      "channel": 4,
      "note": 58,
      "start": 43.9569,
      "duration": 0.1104,
      "velocity": 91,
      "chip": "ym2612"
    },
    {
      "channel": 1,
      "note": 71,
      "start": 44.0649,
      "duration": 0.0895,
      "velocity": 91,
      "chip": "ym2612"
    },
    {
      "channel": 3,
      "note": 71,
      "start": 44.0663,
      "duration": 0.0887,
      "velocity": 102,
      "chip": "ym2612"
    },
    {
      "channel": 4,
      "note": 70,
      "start": 44.0674,
      "duration": 0.1078,
      "velocity": 91,
      "chip": "ym2612"
    },
    {
      "channel": 2,
      "note": 89,
      "start": 44.1734,
      "duration": 0.4063,
      "velocity": 102,
      "chip": "ym2612"
    },
    {
      "channel": 4,
      "note": 59,
      "start": 44.1754,
      "duration": 0.0838,
      "velocity": 91,
      "chip": "ym2612"
    },
    {
      "channel": 4,
      "note": 71,
      "start": 44.2593,
      "duration": 0.1082,
      "velocity": 91,
      "chip": "ym2612"
    },
    {
      "channel": 0,
      "note": 89,
      "start": 44.3636,
      "duration": 0.3903,
      "velocity": 102,
      "chip": "ym2612"
    },
    {
      "channel": 1,
      "note": 68,
      "start": 44.3648,
      "duration": 0.0869,
      "velocity": 91,
      "chip": "ym2612"
    },
    {
      "channel": 3,
      "note": 68,
      "start": 44.3663,
      "duration": 0.0861,
      "velocity": 102,
      "chip": "ym2612"
    },
    {
      "channel": 4,
      "note": 56,
      "start": 44.3676,
      "duration": 0.2178,
      "velocity": 91,
      "chip": "ym2612"
    },
    {
      "channel": 1,
      "note": 70,
      "start": 44.4702,
      "duration": 0.0886,
      "velocity": 91,
      "chip": "ym2612"
    },
    {
      "channel": 3,
      "note": 70,
      "start": 44.4719,
      "duration": 0.0877,
      "velocity": 102,
      "chip": "ym2612"
    },
    {
      "channel": 1,
      "note": 71,
      "start": 44.5786,
      "duration": 0.07,
      "velocity": 91,
      "chip": "ym2612"
    },
    {
      "channel": 2,
      "note": 87,
      "start": 44.5799,
      "duration": 0.3007,
      "velocity": 102,
      "chip": "ym2612"
    },
    {
      "channel": 3,
      "note": 71,
      "start": 44.5812,
      "duration": 0.0683,
      "velocity": 102,
      "chip": "ym2612"
    },
    {
      "channel": 4,
      "note": 61,
      "start": 44.5856,
      "duration": 0.1909,
      "velocity": 91,
      "chip": "ym2612"
    },
    {
      "channel": 1,
      "note": 71,
      "start": 44.662,
      "duration": 0.0923,
      "velocity": 91,
      "chip": "ym2612"
    },
    {
      "channel": 3,
      "note": 71,
      "start": 44.6635,
      "duration": 0.0915,
      "velocity": 102,
      "chip": "ym2612"
    },
    {
      "channel": 0,
      "note": 87,
      "start": 44.7727,
      "duration": 0.2826,
      "velocity": 102,
      "chip": "ym2612"
    },
    {
      "channel": 1,
      "note": 70,
      "start": 44.7739,
      "duration": 0.1947,
      "velocity": 91,
      "chip": "ym2612"
    },
    {
      "channel": 3,
      "note": 70,
      "start": 44.7754,
      "duration": 0.194,
      "velocity": 102,
      "chip": "ym2612"
    },
    {
      "channel": 4,
      "note": 73,
      "start": 44.7766,
      "duration": 0.2133,
      "velocity": 91,
      "chip": "ym2612"
    },
    {
      "channel": 2,
      "note": 83,
      "start": 44.8807,
      "duration": 1.2792,
      "velocity": 102,
      "chip": "ym2612"
    },
    {
      "channel": 1,
      "note": 71,
      "start": 44.9872,
      "duration": 0.1722,
      "velocity": 91,
      "chip": "ym2612"
    },
    {
      "channel": 3,
      "note": 71,
      "start": 44.9889,
      "duration": 0.1712,
      "velocity": 102,
      "chip": "ym2612"
    },
    {
      "channel": 4,
      "note": 61,
      "start": 44.9901,
      "duration": 0.081,
      "velocity": 91,
      "chip": "ym2612"
    },
    {
      "channel": 0,
      "note": 83,
      "start": 45.0688,
      "duration": 1.2566,
      "velocity": 102,
      "chip": "ym2612"
    },
    {
      "channel": 4,
      "note": 73,
      "start": 45.0712,
      "duration": 0.1096,
      "velocity": 91,
      "chip": "ym2612"
    },
    {
      "channel": 1,
      "note": 70,
      "start": 45.1782,
      "duration": 0.1965,
      "velocity": 91,
      "chip": "ym2612"
    },
    {
      "channel": 3,
      "note": 70,
      "start": 45.1798,
      "duration": 0.1957,
      "velocity": 102,
      "chip": "ym2612"
    },
    {
      "channel": 4,
      "note": 56,
      "start": 45.181,
      "duration": 0.1062,
      "velocity": 91,
      "chip": "ym2612"
    },
    {
      "channel": 4,
      "note": 68,
      "start": 45.2873,
      "duration": 0.1088,
      "velocity": 91,
      "chip": "ym2612"
    },
    {
      "channel": 1,
      "note": 71,
      "start": 45.3935,
      "duration": 0.2801,
      "velocity": 91,
      "chip": "ym2612"
    },
    {
      "channel": 3,
      "note": 71,
      "start": 45.3951,
      "duration": 0.2792,
      "velocity": 102,
      "chip": "ym2612"
    },
    {
      "channel": 4,
      "note": 59,
      "start": 45.3962,
      "duration": 0.1064,
      "velocity": 91,
      "chip": "ym2612"
    },
    {
      "channel": 4,
      "note": 71,
      "start": 45.5027,
      "duration": 0.083,
      "velocity": 91,
      "chip": "ym2612"
    },
    {
      "channel": 4,
      "note": 58,
      "start": 45.5858,
      "duration": 0.1092,
      "velocity": 91,
      "chip": "ym2612"
    },
    {
      "channel": 1,
      "note": 73,
      "start": 45.6924,
      "duration": 0.0694,
      "velocity": 91,
      "chip": "ym2612"
    },
    {
      "channel": 3,
      "note": 73,
      "start": 45.6939,
      "duration": 0.0687,
      "velocity": 102,
      "chip": "ym2612"
    },
    {
      "channel": 4,
      "note": 70,
      "start": 45.6951,
      "duration": 0.081,
      "velocity": 91,
      "chip": "ym2612"
    },
    {
      "channel": 4,
      "note": 59,
      "start": 45.7763,
      "duration": 0.0801,
      "velocity": 91,
      "chip": "ym2612"
    },
    {
      "channel": 4,
      "note": 71,
      "start": 45.8565,
      "duration": 0.0853,
      "velocity": 91,
      "chip": "ym2612"
    },
    {
      "channel": 1,
      "note": 68,
      "start": 45.9392,
      "duration": 0.0878,
      "velocity": 91,
      "chip": "ym2612"
    },
    {
      "channel": 3,
      "note": 68,
      "start": 45.9407,
      "duration": 0.0869,
      "velocity": 102,
      "chip": "ym2612"
    },
    {
      "channel": 4,
      "note": 60,
      "start": 45.9419,
      "duration": 0.1065,
      "velocity": 91,
      "chip": "ym2612"
    },
    {
      "channel": 1,
      "note": 70,
      "start": 46.0458,
      "duration": 0.0899,
      "velocity": 91,
      "chip": "ym2612"
    },
    {
      "channel": 3,
      "note": 70,
      "start": 46.0473,
      "duration": 0.089,
      "velocity": 102,
      "chip": "ym2612"
    },
    {
      "channel": 4,
      "note": 72,
      "start": 46.0485,
      "duration": 0.1179,
      "velocity": 91,
      "chip": "ym2612"
    },
    {
      "channel": 1,
      "note": 71,
      "start": 46.1592,
      "duration": 0.0666,
      "velocity": 91,
      "chip": "ym2612"
    },
    {
      "channel": 3,
      "note": 71,
      "start": 46.161,
      "duration": 0.0655,
      "velocity": 102,
      "chip": "ym2612"
    },
    {
      "channel": 4,
      "note": 61,
      "start": 46.1665,
      "duration": 0.181,
      "velocity": 91,
      "chip": "ym2612"
    },
    {
      "channel": 1,
      "note": 71,
      "start": 46.2395,
      "duration": 0.0863,
      "velocity": 91,
      "chip": "ym2612"
    },
    {
      "channel": 3,
      "note": 71,
      "start": 46.2408,
      "duration": 0.0856,
      "velocity": 102,
      "chip": "ym2612"
    },
    {
      "channel": 1,
      "note": 70,
      "start": 46.345,
      "duration": 0.1923,
      "velocity": 91,
      "chip": "ym2612"
    },
    {
      "channel": 3,
      "note": 70,
      "start": 46.3463,
      "duration": 0.1915,
      "velocity": 102,
      "chip": "ym2612"
    },
    {
      "channel": 4,
      "note": 73,
      "start": 46.3476,
      "duration": 0.2118,
      "velocity": 91,
      "chip": "ym2612"
    },
    {
      "channel": 1,
      "note": 71,
      "start": 46.5559,
      "duration": 0.1706,
      "velocity": 91,
      "chip": "ym2612"
    },
    {
      "channel": 2,
      "note": 90,
      "start": 46.5572,
      "duration": 0.803,
      "velocity": 102,
      "chip": "ym2612"
    },
    {
      "channel": 3,
      "note": 71,
      "start": 46.5584,
      "duration": 0.1689,
      "velocity": 102,
      "chip": "ym2612"
    },
    {
      "channel": 4,
      "note": 61,
      "start": 46.5595,
      "duration": 0.082,
      "velocity": 91,
      "chip": "ym2612"
    },
    {
      "channel": 4,
      "note": 73,
      "start": 46.6417,
      "duration": 0.1076,
      "velocity": 91,
      "chip": "ym2612"
    },
    {
      "channel": 0,
      "note": 90,
      "start": 46.7454,
      "duration": 0.781,
      "velocity": 102,
      "chip": "ym2612"
    },
    {
      "channel": 1,
      "note": 70,
      "start": 46.7465,
      "duration": 0.1736,
      "velocity": 91,
      "chip": "ym2612"
    },
    {
      "channel": 3,
      "note": 70,
      "start": 46.7481,
      "duration": 0.1729,
      "velocity": 102,
      "chip": "ym2612"
    },
    {
      "channel": 4,
      "note": 56,
      "start": 46.7495,
      "duration": 0.1872,
      "velocity": 91,
      "chip": "ym2612"
    },
    {
      "channel": 1,
      "note": 73,
      "start": 46.9339,
      "duration": 0.304,
      "velocity": 91,
      "chip": "ym2612"
    },
    {
      "channel": 3,
      "note": 73,
      "start": 46.9355,
      "duration": 0.3031,
      "velocity": 102,
      "chip": "ym2612"
    },
    {
      "channel": 4,
      "note": 59,
      "start": 46.9369,
      "duration": 0.1026,
      "velocity": 91,
      "chip": "ym2612"
    },
    {
      "channel": 4,
      "note": 71,
      "start": 47.0396,
      "duration": 0.1088,
      "velocity": 91,
      "chip": "ym2612"
    },
    {
      "channel": 4,
      "note": 58,
      "start": 47.1485,
      "duration": 0.1106,
      "velocity": 91,
      "chip": "ym2612"
    },
    {
      "channel": 1,
      "note": 71,
      "start": 47.2567,
      "duration": 0.0845,
      "velocity": 91,
      "chip": "ym2612"
    },
    {
      "channel": 3,
      "note": 71,
      "start": 47.2581,
      "duration": 0.0838,
      "velocity": 102,
      "chip": "ym2612"
    },
    {
      "channel": 4,
      "note": 70,
      "start": 47.2593,
      "duration": 0.1028,
      "velocity": 91,
      "chip": "ym2612"
    },
    {
      "channel": 2,
      "note": 89,
      "start": 47.3603,
      "duration": 0.4014,
      "velocity": 102,
      "chip": "ym2612"
    },
    {
      "channel": 4,
      "note": 59,
      "start": 47.3622,
      "duration": 0.0766,
      "velocity": 91,
      "chip": "ym2612"
    },
    {
      "channel": 4,
      "note": 71,
      "start": 47.439,
      "duration": 0.1103,
      "velocity": 91,
      "chip": "ym2612"
    },
    {
      "channel": 0,
      "note": 89,
      "start": 47.5454,
      "duration": 0.3823,
      "velocity": 102,
      "chip": "ym2612"
    },
    {
      "channel": 1,
      "note": 68,
      "start": 47.5466,
      "duration": 0.0869,
      "velocity": 91,
      "chip": "ym2612"
    },
    {
      "channel": 3,
      "note": 68,
      "start": 47.5481,
      "duration": 0.0861,
      "velocity": 102,
      "chip": "ym2612"
    },
    {
      "channel": 4,
      "note": 56,
      "start": 47.5494,
      "duration": 0.2179,
      "velocity": 91,
      "chip": "ym2612"
    },
    {
      "channel": 1,
      "note": 70,
      "start": 47.6521,
      "duration": 0.0886,
      "velocity": 91,
      "chip": "ym2612"
    },
    {
      "channel": 3,
      "note": 70,
      "start": 47.6537,
      "duration": 0.0877,
      "velocity": 102,
      "chip": "ym2612"
    },
    {
      "channel": 1,
      "note": 71,
      "start": 47.7605,
      "duration": 0.0697,
      "velocity": 91,
      "chip": "ym2612"
    },
    {
      "channel": 2,
      "note": 87,
      "start": 47.7617,
      "duration": 0.2895,
      "velocity": 102,
      "chip": "ym2612"
    },
    {
      "channel": 3,
      "note": 71,
      "start": 47.7631,
      "duration": 0.068,
      "velocity": 102,
      "chip": "ym2612"
    },
    {
      "channel": 4,
      "note": 61,
      "start": 47.7674,
      "duration": 0.1829,
      "velocity": 91,
      "chip": "ym2612"
    },
    {
      "channel": 1,
      "note": 71,
      "start": 47.8433,
      "duration": 0.0848,
      "velocity": 91,
      "chip": "ym2612"
    },
    {
      "channel": 3,
      "note": 71,
      "start": 47.8449,
      "duration": 0.0839,
      "velocity": 102,
      "chip": "ym2612"
    },
    {
      "channel": 0,
      "note": 87,
      "start": 47.9465,
      "duration": 0.2864,
      "velocity": 102,
      "chip": "ym2612"
    },
    {
      "channel": 1,
      "note": 70,
      "start": 47.9477,
      "duration": 0.1959,
      "velocity": 91,
      "chip": "ym2612"
    },
    {
      "channel": 3,
      "note": 70,
      "start": 47.9493,
      "duration": 0.1951,
      "velocity": 102,
      "chip": "ym2612"
    },
    {
      "channel": 4,
      "note": 73,
      "start": 47.9506,
      "duration": 0.2143,
      "velocity": 91,
      "chip": "ym2612"
    },
    {
      "channel": 2,
      "note": 89,
      "start": 48.0514,
      "duration": 0.5193,
      "velocity": 102,
      "chip": "ym2612"
    },
    {
      "channel": 1,
      "note": 71,
      "start": 48.1621,
      "duration": 0.1757,
      "velocity": 91,
      "chip": "ym2612"
    },
    {
      "channel": 3,
      "note": 71,
      "start": 48.1639,
      "duration": 0.1747,
      "velocity": 102,
      "chip": "ym2612"
    },
    {
      "channel": 4,
      "note": 61,
      "start": 48.165,
      "duration": 0.086,
      "velocity": 91,
      "chip": "ym2612"
    },
    {
      "channel": 0,
      "note": 89,
      "start": 48.2486,
      "duration": 0.4983,
      "velocity": 102,
      "chip": "ym2612"
    },
    {
      "channel": 4,
      "note": 73,
      "start": 48.2511,
      "duration": 0.1083,
      "velocity": 91,
      "chip": "ym2612"
    },
    {
      "channel": 1,
      "note": 70,
      "start": 48.3568,
      "duration": 0.1944,
      "velocity": 91,
      "chip": "ym2612"
    },
    {
      "channel": 3,
      "note": 70,
      "start": 48.3583,
      "duration": 0.1936,
      "velocity": 102,
      "chip": "ym2612"
    },
    {
      "channel": 4,
      "note": 56,
      "start": 48.3596,
      "duration": 0.1023,
      "velocity": 91,
      "chip": "ym2612"
    },
    {
      "channel": 4,
      "note": 68,
      "start": 48.4621,
      "duration": 0.111,
      "velocity": 91,
      "chip": "ym2612"
    },
    {
      "channel": 1,
      "note": 71,
      "start": 48.57,
      "duration": 0.2772,
      "velocity": 91,
      "chip": "ym2612"
    },
    {
      "channel": 3,
      "note": 71,
      "start": 48.572,
      "duration": 0.2757,
      "velocity": 102,
      "chip": "ym2612"
    },
    {
      "channel": 4,
      "note": 59,
      "start": 48.5732,
      "duration": 0.1052,
      "velocity": 91,
      "chip": "ym2612"
    },
    {
      "channel": 4,
      "note": 71,
      "start": 48.6786,
      "duration": 0.0835,
      "velocity": 91,
      "chip": "ym2612"
    },
    {
      "channel": 4,
      "note": 58,
      "start": 48.7622,
      "duration": 0.1062,
      "velocity": 91,
      "chip": "ym2612"
    },
    {
      "channel": 1,
      "note": 73,
      "start": 48.8658,
      "duration": 0.0708,
      "velocity": 91,
      "chip": "ym2612"
    },
    {
      "channel": 3,
      "note": 73,
      "start": 48.8673,
      "duration": 0.07,
      "velocity": 102,
      "chip": "ym2612"
    },
    {
      "channel": 4,
      "note": 70,
      "start": 48.8685,
      "duration": 0.0821,
      "velocity": 91,
      "chip": "ym2612"
    },
    {
      "channel": 4,
      "note": 59,
      "start": 48.9507,
      "duration": 0.0813,
      "velocity": 91,
      "chip": "ym2612"
    },
    {
      "channel": 4,
      "note": 71,
      "start": 49.0322,
      "duration": 0.0847,
      "velocity": 91,
      "chip": "ym2612"
    },
    {
      "channel": 1,
      "note": 68,
      "start": 49.1145,
      "duration": 0.0904,
      "velocity": 91,
      "chip": "ym2612"
    },
    {
      "channel": 3,
      "note": 68,
      "start": 49.1158,
      "duration": 0.0897,
      "velocity": 102,
      "chip": "ym2612"
    },
    {
      "channel": 4,
      "note": 60,
      "start": 49.1171,
      "duration": 0.1088,
      "velocity": 91,
      "chip": "ym2612"
    },
    {
      "channel": 1,
      "note": 70,
      "start": 49.2236,
      "duration": 0.0899,
      "velocity": 91,
      "chip": "ym2612"
    },
    {
      "channel": 3,
      "note": 70,
      "start": 49.2249,
      "duration": 0.0891,
      "velocity": 102,
      "chip": "ym2612"
    },
    {
      "channel": 4,
      "note": 72,
      "start": 49.2261,
      "duration": 0.1133,
      "velocity": 91,
      "chip": "ym2612"
    },
    {
      "channel": 1,
      "note": 71,
      "start": 49.3332,
      "duration": 0.07,
      "velocity": 91,
      "chip": "ym2612"
    },
    {
      "channel": 3,
      "note": 71,
      "start": 49.3351,
      "duration": 0.0688,
      "velocity": 102,
      "chip": "ym2612"
    },
    {
      "channel": 4,
      "note": 61,
      "start": 49.3395,
      "duration": 0.1878,
      "velocity": 91,
      "chip": "ym2612"
    },
    {
      "channel": 1,
      "note": 71,
      "start": 49.4167,
      "duration": 0.0888,
      "velocity": 91,
      "chip": "ym2612"
    },
    {
      "channel": 3,
      "note": 71,
      "start": 49.4179,
      "duration": 0.088,
      "velocity": 102,
      "chip": "ym2612"
    },
    {
      "channel": 1,
      "note": 70,
      "start": 49.5249,
      "duration": 0.1901,
      "velocity": 91,
      "chip": "ym2612"
    },
    {
      "channel": 3,
      "note": 70,
      "start": 49.5261,
      "duration": 0.1894,
      "velocity": 102,
      "chip": "ym2612"
    },
    {
      "channel": 4,
      "note": 73,
      "start": 49.5274,
      "duration": 0.2098,
      "velocity": 91,
      "chip": "ym2612"
    },
    {
      "channel": 1,
      "note": 71,
      "start": 49.7336,
      "duration": 0.1702,
      "velocity": 91,
      "chip": "ym2612"
    },
    {
      "channel": 2,
      "note": 90,
      "start": 49.7348,
      "duration": 0.8088,
      "velocity": 102,
      "chip": "ym2612"
    },
    {
      "channel": 3,
      "note": 71,
      "start": 49.7361,
      "duration": 0.1684,
      "velocity": 102,
      "chip": "ym2612"
    },
    {
      "channel": 4,
      "note": 61,
      "start": 49.7373,
      "duration": 0.0817,
      "velocity": 91,
      "chip": "ym2612"
    },
    {
      "channel": 4,
      "note": 73,
      "start": 49.8191,
      "duration": 0.1074,
      "velocity": 91,
      "chip": "ym2612"
    },
    {
      "channel": 0,
      "note": 90,
      "start": 49.9226,
      "duration": 0.7747,
      "velocity": 102,
      "chip": "ym2612"
    },
    {
      "channel": 1,
      "note": 70,
      "start": 49.9238,
      "duration": 0.1738,
      "velocity": 91,
      "chip": "ym2612"
    },
    {
      "channel": 3,
      "note": 70,
      "start": 49.9254,
      "duration": 0.1731,
      "velocity": 102,
      "chip": "ym2612"
    },
    {
      "channel": 4,
      "note": 56,
      "start": 49.9267,
      "duration": 0.1869,
      "velocity": 91,
      "chip": "ym2612"
    },
    {
      "channel": 1,
      "note": 73,
      "start": 50.1109,
      "duration": 0.3057,
      "velocity": 91,
      "chip": "ym2612"
    },
    {
      "channel": 3,
      "note": 73,
      "start": 50.1125,
      "duration": 0.3047,
      "velocity": 102,
      "chip": "ym2612"
    },
    {
      "channel": 4,
      "note": 59,
      "start": 50.1137,
      "duration": 0.1046,
      "velocity": 91,
      "chip": "ym2612"
    },
    {
      "channel": 4,
      "note": 71,
      "start": 50.2185,
      "duration": 0.1086,
      "velocity": 91,
      "chip": "ym2612"
    },
    {
      "channel": 4,
      "note": 58,
      "start": 50.3272,
      "duration": 0.1104,
      "velocity": 91,
      "chip": "ym2612"
    },
    {
      "channel": 1,
      "note": 71,
      "start": 50.4352,
      "duration": 0.0895,
      "velocity": 91,
      "chip": "ym2612"
    },
    {
      "channel": 3,
      "note": 71,
      "start": 50.4366,
      "duration": 0.0887,
      "velocity": 102,
      "chip": "ym2612"
    },
    {
      "channel": 4,
      "note": 70,
      "start": 50.4378,
      "duration": 0.1078,
      "velocity": 91,
      "chip": "ym2612"
    },
    {
      "channel": 2,
      "note": 89,
      "start": 50.5438,
      "duration": 0.35,
      "velocity": 102,
      "chip": "ym2612"
    },
    {
      "channel": 4,
      "note": 59,
      "start": 50.5457,
      "duration": 0.0833,
      "velocity": 91,
      "chip": "ym2612"
    },
    {
      "channel": 4,
      "note": 71,
      "start": 50.6292,
      "duration": 0.0859,
      "velocity": 91,
      "chip": "ym2612"
    },
    {
      "channel": 0,
      "note": 89,
      "start": 50.7111,
      "duration": 0.1605,
      "velocity": 102,
      "chip": "ym2612"
    },
    {
      "channel": 1,
      "note": 68,
      "start": 50.7124,
      "duration": 0.0722,
      "velocity": 91,
      "chip": "ym2612"
    },
    {
      "channel": 3,
      "note": 68,
      "start": 50.7141,
      "duration": 0.0714,
      "velocity": 102,
      "chip": "ym2612"
    },
    {
      "channel": 4,
      "note": 56,
      "start": 50.7152,
      "duration": 0.1869,
      "velocity": 107,
      "chip": "ym2612"
    },
    {
      "channel": 1,
      "note": 70,
      "start": 50.8002,
      "duration": 0.072,
      "velocity": 91,
      "chip": "ym2612"
    },
    {
      "channel": 3,
      "note": 70,
      "start": 50.8018,
      "duration": 0.0713,
      "velocity": 102,
      "chip": "ym2612"
    },
    {
      "channel": 0,
      "note": 76,
      "start": 51.0575,
      "duration": 0.0467,
      "velocity": 102,
      "chip": "ym2612"
    },
    {
      "channel": 1,
      "note": 73,
      "start": 51.0589,
      "duration": 0.0458,
      "velocity": 102,
      "chip": "ym2612"
    },
    {
      "channel": 2,
      "note": 85,
      "start": 51.0601,
      "duration": 0.0688,
      "velocity": 102,
      "chip": "ym2612"
    },
    {
      "channel": 3,
      "note": 73,
      "start": 51.0612,
      "duration": 0.0682,
      "velocity": 102,
      "chip": "ym2612"
    },
    {
      "channel": 4,
      "note": 61,
      "start": 51.0624,
      "duration": 0.0803,
      "velocity": 107,
      "chip": "ym2612"
    },
    {
      "channel": 0,
      "note": 76,
      "start": 51.2548,
      "duration": 0.0471,
      "velocity": 102,
      "chip": "ym2612"
    },
    {
      "channel": 1,
      "note": 73,
      "start": 51.2562,
      "duration": 0.0462,
      "velocity": 102,
      "chip": "ym2612"
    },
    {
      "channel": 2,
      "note": 85,
      "start": 51.2574,
      "duration": 0.0694,
      "velocity": 102,
      "chip": "ym2612"
    },
    {
      "channel": 3,
      "note": 73,
      "start": 51.2587,
      "duration": 0.0686,
      "velocity": 102,
      "chip": "ym2612"
    },
    {
      "channel": 4,
      "note": 61,
      "start": 51.2598,
      "duration": 0.0811,
      "velocity": 107,
      "chip": "ym2612"
    },
    {
      "channel": 0,
      "note": 76,
      "start": 51.4528,
      "duration": 0.0454,
      "velocity": 102,
      "chip": "ym2612"
    },
    {
      "channel": 1,
      "note": 73,
      "start": 51.4542,
      "duration": 0.0445,
      "velocity": 102,
      "chip": "ym2612"
    },
    {
      "channel": 2,
      "note": 85,
      "start": 51.4554,
      "duration": 0.0681,
      "velocity": 102,
      "chip": "ym2612"
    },
    {
      "channel": 3,
      "note": 73,
      "start": 51.4567,
      "duration": 0.0674,
      "velocity": 102,
      "chip": "ym2612"
    },
    {
      "channel": 4,
      "note": 61,
      "start": 51.4578,
      "duration": 0.0797,
      "velocity": 107,
      "chip": "ym2612"
    },
    {
      "channel": 0,
      "note": 76,
      "start": 51.649,
      "duration": 0.047,
      "velocity": 102,
      "chip": "ym2612"
    },
    {
      "channel": 1,
      "note": 73,
      "start": 51.6504,
      "duration": 0.0461,
      "velocity": 102,
      "chip": "ym2612"
    },
    {
      "channel": 2,
      "note": 85,
      "start": 51.6516,
      "duration": 0.0691,
      "velocity": 102,
      "chip": "ym2612"
    },
    {
      "channel": 3,
      "note": 73,
      "start": 51.6529,
      "duration": 0.0683,
      "velocity": 102,
      "chip": "ym2612"
    },
    {
      "channel": 4,
      "note": 61,
      "start": 51.6541,
      "duration": 0.0844,
      "velocity": 107,
      "chip": "ym2612"
    },
    {
      "channel": 0,
      "note": 76,
      "start": 51.7336,
      "duration": 0.0468,
      "velocity": 102,
      "chip": "ym2612"
    },
    {
      "channel": 1,
      "note": 73,
      "start": 51.735,
      "duration": 0.0459,
      "velocity": 102,
      "chip": "ym2612"
    },
    {
      "channel": 2,
      "note": 85,
      "start": 51.7362,
      "duration": 0.0688,
      "velocity": 102,
      "chip": "ym2612"
    },
    {
      "channel": 3,
      "note": 73,
      "start": 51.7374,
      "duration": 0.0682,
      "velocity": 102,
      "chip": "ym2612"
    },
    {
      "channel": 4,
      "note": 61,
      "start": 51.7386,
      "duration": 0.0803,
      "velocity": 107,
      "chip": "ym2612"
    },
    {
      "channel": 1,
      "note": 71,
      "start": 52.3755,
      "duration": 0.0622,
      "velocity": 91,
      "chip": "ym2612"
    },
    {
      "channel": 2,
      "note": 90,
      "start": 52.3767,
      "duration": 1.1705,
      "velocity": 102,
      "chip": "ym2612"
    },
    {
      "channel": 3,
      "note": 71,
      "start": 52.3816,
      "duration": 0.0571,
      "velocity": 102,
      "chip": "ym2612"
    },
    {
      "channel": 4,
      "note": 61,
      "start": 52.3863,
      "duration": 0.1736,
      "velocity": 91,
      "chip": "ym2612"
    },
    {
      "channel": 1,
      "note": 71,
      "start": 52.451,
      "duration": 0.0861,
      "velocity": 91,
      "chip": "ym2612"
    },
    {
      "channel": 3,
      "note": 71,
      "start": 52.4526,
      "duration": 0.0853,
      "velocity": 102,
      "chip": "ym2612"
    },
    {
      "channel": 0,
      "note": 90,
      "start": 52.5559,
      "duration": 1.1815,
      "velocity": 102,
      "chip": "ym2612"
    },
    {
      "channel": 1,
      "note": 70,
      "start": 52.5571,
      "duration": 0.1916,
      "velocity": 91,
      "chip": "ym2612"
    },
    {
      "channel": 3,
      "note": 70,
      "start": 52.5587,
      "duration": 0.1907,
      "velocity": 102,
      "chip": "ym2612"
    },
    {
      "channel": 4,
      "note": 73,
      "start": 52.56,
      "duration": 0.2097,
      "velocity": 91,
      "chip": "ym2612"
    },
    {
      "channel": 1,
      "note": 71,
      "start": 52.7672,
      "duration": 0.1688,
      "velocity": 91,
      "chip": "ym2612"
    },
    {
      "channel": 3,
      "note": 71,
      "start": 52.7687,
      "duration": 0.1679,
      "velocity": 102,
      "chip": "ym2612"
    },
    {
      "channel": 4,
      "note": 61,
      "start": 52.7699,
      "duration": 0.0784,
      "velocity": 91,
      "chip": "ym2612"
    },
    {
      "channel": 4,
      "note": 73,
      "start": 52.8484,
      "duration": 0.1088,
      "velocity": 91,
      "chip": "ym2612"
    },
    {
      "channel": 1,
      "note": 70,
      "start": 52.9546,
      "duration": 0.1724,
      "velocity": 91,
      "chip": "ym2612"
    },
    {
      "channel": 3,
      "note": 70,
      "start": 52.9562,
      "duration": 0.1716,
      "velocity": 102,
      "chip": "ym2612"
    },
    {
      "channel": 4,
      "note": 56,
      "start": 52.9574,
      "duration": 0.1865,
      "velocity": 91,
      "chip": "ym2612"
    },
    {
      "channel": 1,
      "note": 73,
      "start": 53.1413,
      "duration": 0.2783,
      "velocity": 91,
      "chip": "ym2612"
    },
    {
      "channel": 3,
      "note": 73,
      "start": 53.1427,
      "duration": 0.2775,
      "velocity": 102,
      "chip": "ym2612"
    },
    {
      "channel": 4,
      "note": 59,
      "start": 53.1441,
      "duration": 0.1047,
      "velocity": 91,
      "chip": "ym2612"
    },
    {
      "channel": 4,
      "note": 71,
      "start": 53.249,
      "duration": 0.0834,
      "velocity": 91,
      "chip": "ym2612"
    },
    {
      "channel": 4,
      "note": 58,
      "start": 53.3325,
      "duration": 0.1084,
      "velocity": 91,
      "chip": "ym2612"
    },
    {
      "channel": 1,
      "note": 71,
      "start": 53.4383,
      "duration": 0.09,
      "velocity": 91,
      "chip": "ym2612"
    },
    {
      "channel": 3,
      "note": 71,
      "start": 53.4398,
      "duration": 0.0891,
      "velocity": 102,
      "chip": "ym2612"
    },
    {
      "channel": 4,
      "note": 70,
      "start": 53.441,
      "duration": 0.1082,
      "velocity": 91,
      "chip": "ym2612"
    },
    {
      "channel": 2,
      "note": 89,
      "start": 53.5473,
      "duration": 0.4038,
      "velocity": 102,
      "chip": "ym2612"
    },
    {
      "channel": 4,
      "note": 59,
      "start": 53.5493,
      "duration": 0.0838,
      "velocity": 91,
      "chip": "ym2612"
    },
    {
      "channel": 4,
      "note": 71,
      "start": 53.6332,
      "duration": 0.1082,
      "velocity": 91,
      "chip": "ym2612"
    },
    {
      "channel": 0,
      "note": 89,
      "start": 53.7375,
      "duration": 0.3979,
      "velocity": 102,
      "chip": "ym2612"
    },
    {
      "channel": 1,
      "note": 68,
      "start": 53.7387,
      "duration": 0.0886,
      "velocity": 91,
      "chip": "ym2612"
    },
    {
      "channel": 3,
      "note": 68,
      "start": 53.7404,
      "duration": 0.0877,
      "velocity": 102,
      "chip": "ym2612"
    },
    {
      "channel": 4,
      "note": 56,
      "start": 53.7415,
      "duration": 0.2157,
      "velocity": 91,
      "chip": "ym2612"
    },
    {
      "channel": 1,
      "note": 70,
      "start": 53.846,
      "duration": 0.0842,
      "velocity": 91,
      "chip": "ym2612"
    },
    {
      "channel": 3,
      "note": 70,
      "start": 53.8475,
      "duration": 0.0834,
      "velocity": 102,
      "chip": "ym2612"
    },
    {
      "channel": 1,
      "note": 71,
      "start": 53.95,
      "duration": 0.0694,
      "velocity": 91,
      "chip": "ym2612"
    },
    {
      "channel": 2,
      "note": 87,
      "start": 53.9513,
      "duration": 0.2888,
      "velocity": 102,
      "chip": "ym2612"
    },
    {
      "channel": 3,
      "note": 71,
      "start": 53.9524,
      "duration": 0.068,
      "velocity": 102,
      "chip": "ym2612"
    },
    {
      "channel": 4,
      "note": 61,
      "start": 53.9574,
      "duration": 0.182,
      "velocity": 91,
      "chip": "ym2612"
    },
    {
      "channel": 1,
      "note": 71,
      "start": 54.0327,
      "duration": 0.0842,
      "velocity": 91,
      "chip": "ym2612"
    },
    {
      "channel": 3,
      "note": 71,
      "start": 54.0342,
      "duration": 0.0835,
      "velocity": 102,
      "chip": "ym2612"
    },
    {
      "channel": 0,
      "note": 87,
      "start": 54.1355,
      "duration": 0.2974,
      "velocity": 102,
      "chip": "ym2612"
    },
    {
      "channel": 1,
      "note": 70,
      "start": 54.1367,
      "duration": 0.1958,
      "velocity": 91,
      "chip": "ym2612"
    },
    {
      "channel": 3,
      "note": 70,
      "start": 54.1383,
      "duration": 0.1949,
      "velocity": 102,
      "chip": "ym2612"
    },
    {
      "channel": 4,
      "note": 73,
      "start": 54.1395,
      "duration": 0.2143,
      "velocity": 91,
      "chip": "ym2612"
    },
    {
      "channel": 2,
      "note": 89,
      "start": 54.2403,
      "duration": 0.5142,
      "velocity": 102,
      "chip": "ym2612"
    },
    {
      "channel": 1,
      "note": 71,
      "start": 54.351,
      "duration": 0.1685,
      "velocity": 91,
      "chip": "ym2612"
    },
    {
      "channel": 3,
      "note": 71,
      "start": 54.3528,
      "duration": 0.1675,
      "velocity": 102,
      "chip": "ym2612"
    },
    {
      "channel": 4,
      "note": 61,
      "start": 54.3539,
      "duration": 0.0815,
      "velocity": 91,
      "chip": "ym2612"
    },
    {
      "channel": 0,
      "note": 89,
      "start": 54.433,
      "duration": 0.512,
      "velocity": 102,
      "chip": "ym2612"
    },
    {
      "channel": 4,
      "note": 73,
      "start": 54.4356,
      "duration": 0.1055,
      "velocity": 91,
      "chip": "ym2612"
    },
    {
      "channel": 1,
      "note": 70,
      "start": 54.5383,
      "duration": 0.1966,
      "velocity": 91,
      "chip": "ym2612"
    },
    {
      "channel": 3,
      "note": 70,
      "start": 54.54,
      "duration": 0.1957,
      "velocity": 102,
      "chip": "ym2612"
    },
    {
      "channel": 4,
      "note": 56,
      "start": 54.5412,
      "duration": 0.1062,
      "velocity": 91,
      "chip": "ym2612"
    },
    {
      "channel": 4,
      "note": 68,
      "start": 54.6475,
      "duration": 0.1093,
      "velocity": 91,
      "chip": "ym2612"
    },
    {
      "channel": 1,
      "note": 71,
      "start": 54.7538,
      "duration": 0.2778,
      "velocity": 91,
      "chip": "ym2612"
    },
    {
      "channel": 3,
      "note": 71,
      "start": 54.7558,
      "duration": 0.2763,
      "velocity": 102,
      "chip": "ym2612"
    },
    {
      "channel": 4,
      "note": 59,
      "start": 54.757,
      "duration": 0.1053,
      "velocity": 91,
      "chip": "ym2612"
    },
    {
      "channel": 4,
      "note": 71,
      "start": 54.8624,
      "duration": 0.0846,
      "velocity": 91,
      "chip": "ym2612"
    },
    {
      "channel": 4,
      "note": 58,
      "start": 54.9471,
      "duration": 0.1058,
      "velocity": 91,
      "chip": "ym2612"
    },
    {
      "channel": 1,
      "note": 73,
      "start": 55.0504,
      "duration": 0.0704,
      "velocity": 91,
      "chip": "ym2612"
    },
    {
      "channel": 3,
      "note": 73,
      "start": 55.0519,
      "duration": 0.0696,
      "velocity": 102,
      "chip": "ym2612"
    },
    {
      "channel": 4,
      "note": 70,
      "start": 55.0531,
      "duration": 0.0827,
      "velocity": 91,
      "chip": "ym2612"
    },
    {
      "channel": 4,
      "note": 59,
      "start": 55.1359,
      "duration": 0.0805,
      "velocity": 91,
      "chip": "ym2612"
    },
    {
      "channel": 4,
      "note": 71,
      "start": 55.2165,
      "duration": 0.1091,
      "velocity": 91,
      "chip": "ym2612"
    },
    {
      "channel": 1,
      "note": 68,
      "start": 55.3231,
      "duration": 0.0857,
      "velocity": 91,
      "chip": "ym2612"
    },
    {
      "channel": 3,
      "note": 68,
      "start": 55.3244,
      "duration": 0.0849,
      "velocity": 102,
      "chip": "ym2612"
    },
    {
      "channel": 4,
      "note": 60,
      "start": 55.3257,
      "duration": 0.1042,
      "velocity": 91,
      "chip": "ym2612"
    },
    {
      "channel": 1,
      "note": 70,
      "start": 55.4276,
      "duration": 0.0898,
      "velocity": 91,
      "chip": "ym2612"
    },
    {
      "channel": 3,
      "note": 70,
      "start": 55.4288,
      "duration": 0.089,
      "velocity": 102,
      "chip": "ym2612"
    },
    {
      "channel": 4,
      "note": 72,
      "start": 55.43,
      "duration": 0.1173,
      "velocity": 91,
      "chip": "ym2612"
    },
    {
      "channel": 1,
      "note": 71,
      "start": 55.5407,
      "duration": 0.0673,
      "velocity": 91,
      "chip": "ym2612"
    },
    {
      "channel": 3,
      "note": 71,
      "start": 55.5425,
      "duration": 0.0662,
      "velocity": 102,
      "chip": "ym2612"
    },
    {
      "channel": 4,
      "note": 61,
      "start": 55.548,
      "duration": 0.1855,
      "velocity": 91,
      "chip": "ym2612"
    },
    {
      "channel": 1,
      "note": 71,
      "start": 55.6212,
      "duration": 0.0902,
      "velocity": 91,
      "chip": "ym2612"
    },
    {
      "channel": 3,
      "note": 71,
      "start": 55.6224,
      "duration": 0.0895,
      "velocity": 102,
      "chip": "ym2612"
    },
    {
      "channel": 1,
      "note": 70,
      "start": 55.7311,
      "duration": 0.1683,
      "velocity": 91,
      "chip": "ym2612"
    },
    {
      "channel": 3,
      "note": 70,
      "start": 55.7325,
      "duration": 0.1674,
      "velocity": 102,
      "chip": "ym2612"
    },
    {
      "channel": 4,
      "note": 73,
      "start": 55.7336,
      "duration": 0.1878,
      "velocity": 91,
      "chip": "ym2612"
    },
    {
      "channel": 1,
      "note": 71,
      "start": 55.9179,
      "duration": 0.1704,
      "velocity": 91,
      "chip": "ym2612"
    },
    {
      "channel": 2,
      "note": 90,
      "start": 55.9191,
      "duration": 0.8075,
      "velocity": 102,
      "chip": "ym2612"
    },
    {
      "channel": 3,
      "note": 71,
      "start": 55.9203,
      "duration": 0.1687,
      "velocity": 102,
      "chip": "ym2612"
    },
    {
      "channel": 4,
      "note": 61,
      "start": 55.9216,
      "duration": 0.0771,
      "velocity": 91,
      "chip": "ym2612"
    },
    {
      "channel": 4,
      "note": 73,
      "start": 55.9989,
      "duration": 0.112,
      "velocity": 91,
      "chip": "ym2612"
    },
    {
      "channel": 0,
      "note": 90,
      "start": 56.107,
      "duration": 0.8097,
      "velocity": 102,
      "chip": "ym2612"
    },
    {
      "channel": 1,
      "note": 70,
      "start": 56.1082,
      "duration": 0.174,
      "velocity": 91,
      "chip": "ym2612"
    },
    {
      "channel": 3,
      "note": 70,
      "start": 56.1098,
      "duration": 0.1734,
      "velocity": 102,
      "chip": "ym2612"
    },
    {
      "channel": 4,
      "note": 56,
      "start": 56.1111,
      "duration": 0.1876,
      "velocity": 91,
      "chip": "ym2612"
    },
    {
      "channel": 1,
      "note": 73,
      "start": 56.296,
      "duration": 0.3035,
      "velocity": 91,
      "chip": "ym2612"
    },
    {
      "channel": 3,
      "note": 73,
      "start": 56.2975,
      "duration": 0.3026,
      "velocity": 102,
      "chip": "ym2612"
    },
    {
      "channel": 4,
      "note": 59,
      "start": 56.2988,
      "duration": 0.1024,
      "velocity": 91,
      "chip": "ym2612"
    },
    {
      "channel": 4,
      "note": 71,
      "start": 56.4014,
      "duration": 0.1086,
      "velocity": 91,
      "chip": "ym2612"
    },
    {
      "channel": 4,
      "note": 58,
      "start": 56.5102,
      "duration": 0.1104,
      "velocity": 91,
      "chip": "ym2612"
    },
    {
      "channel": 1,
      "note": 71,
      "start": 56.6182,
      "duration": 0.0895,
      "velocity": 91,
      "chip": "ym2612"
    },
    {
      "channel": 3,
      "note": 71,
      "start": 56.6196,
      "duration": 0.0887,
      "velocity": 102,
      "chip": "ym2612"
    },
    {
      "channel": 4,
      "note": 70,
      "start": 56.6207,
      "duration": 0.1078,
      "velocity": 91,
      "chip": "ym2612"
    },
    {
      "channel": 2,
      "note": 89,
      "start": 56.7267,
      "duration": 0.4042,
      "velocity": 102,
      "chip": "ym2612"
    },
    {
      "channel": 4,
      "note": 59,
      "start": 56.7287,
      "duration": 0.0838,
      "velocity": 91,
      "chip": "ym2612"
    },
    {
      "channel": 4,
      "note": 71,
      "start": 56.8126,
      "duration": 0.1082,
      "velocity": 91,
      "chip": "ym2612"
    },
    {
      "channel": 0,
      "note": 89,
      "start": 56.9169,
      "duration": 0.4041,
      "velocity": 102,
      "chip": "ym2612"
    },
    {
      "channel": 1,
      "note": 68,
      "start": 56.918,
      "duration": 0.0886,
      "velocity": 91,
      "chip": "ym2612"
    },
    {
      "channel": 3,
      "note": 68,
      "start": 56.9197,
      "duration": 0.0877,
      "velocity": 102,
      "chip": "ym2612"
    },
    {
      "channel": 4,
      "note": 56,
      "start": 56.9209,
      "duration": 0.2155,
      "velocity": 91,
      "chip": "ym2612"
    },
    {
      "channel": 1,
      "note": 70,
      "start": 57.0253,
      "duration": 0.0846,
      "velocity": 91,
      "chip": "ym2612"
    },
    {
      "channel": 3,
      "note": 70,
      "start": 57.0269,
      "duration": 0.0838,
      "velocity": 102,
      "chip": "ym2612"
    },
    {
      "channel": 1,
      "note": 71,
      "start": 57.1297,
      "duration": 0.0704,
      "velocity": 91,
      "chip": "ym2612"
    },
    {
      "channel": 2,
      "note": 87,
      "start": 57.131,
      "duration": 0.2947,
      "velocity": 102,
      "chip": "ym2612"
    },
    {
      "channel": 3,
      "note": 71,
      "start": 57.1322,
      "duration": 0.0689,
      "velocity": 102,
      "chip": "ym2612"
    },
    {
      "channel": 4,
      "note": 61,
      "start": 57.1366,
      "duration": 0.1884,
      "velocity": 91,
      "chip": "ym2612"
    },
    {
      "channel": 1,
      "note": 71,
      "start": 57.2136,
      "duration": 0.089,
      "velocity": 91,
      "chip": "ym2612"
    },
    {
      "channel": 3,
      "note": 71,
      "start": 57.2153,
      "duration": 0.0881,
      "velocity": 102,
      "chip": "ym2612"
    },
    {
      "channel": 0,
      "note": 87,
      "start": 57.3211,
      "duration": 0.2974,
      "velocity": 102,
      "chip": "ym2612"
    },
    {
      "channel": 1,
      "note": 70,
      "start": 57.3223,
      "duration": 0.1958,
      "velocity": 91,
      "chip": "ym2612"
    },
    {
      "channel": 3,
      "note": 70,
      "start": 57.324,
      "duration": 0.1949,
      "velocity": 102,
      "chip": "ym2612"
    },
    {
      "channel": 4,
      "note": 73,
      "start": 57.3251,
      "duration": 0.2143,
      "velocity": 91,
      "chip": "ym2612"
    },
    {
      "channel": 2,
      "note": 83,
      "start": 57.4259,
      "duration": 1.2793,
      "velocity": 102,
      "chip": "ym2612"
    },
    {
      "channel": 1,
      "note": 71,
      "start": 57.5367,
      "duration": 0.1685,
      "velocity": 91,
      "chip": "ym2612"
    },
    {
      "channel": 3,
      "note": 71,
      "start": 57.5384,
      "duration": 0.1675,
      "velocity": 102,
      "chip": "ym2612"
    },
    {
      "channel": 4,
      "note": 61,
      "start": 57.5396,
      "duration": 0.0815,
      "velocity": 91,
      "chip": "ym2612"
    },
    {
      "channel": 0,
      "note": 83,
      "start": 57.6187,
      "duration": 1.2675,
      "velocity": 102,
      "chip": "ym2612"
    },
    {
      "channel": 4,
      "note": 73,
      "start": 57.6212,
      "duration": 0.1054,
      "velocity": 91,
      "chip": "ym2612"
    },
    {
      "channel": 1,
      "note": 70,
      "start": 57.724,
      "duration": 0.1965,
      "velocity": 91,
      "chip": "ym2612"
    },
    {
      "channel": 3,
      "note": 70,
      "start": 57.7256,
      "duration": 0.1957,
      "velocity": 102,
      "chip": "ym2612"
    },
    {
      "channel": 4,
      "note": 56,
      "start": 57.7267,
      "duration": 0.1062,
      "velocity": 91,
      "chip": "ym2612"
    },
    {
      "channel": 4,
      "note": 68,
      "start": 57.8331,
      "duration": 0.1088,
      "velocity": 91,
      "chip": "ym2612"
    },
    {
      "channel": 1,
      "note": 71,
      "start": 57.9393,
      "duration": 0.2803,
      "velocity": 91,
      "chip": "ym2612"
    },
    {
      "channel": 3,
      "note": 71,
      "start": 57.9409,
      "duration": 0.2793,
      "velocity": 102,
      "chip": "ym2612"
    },
    {
      "channel": 4,
      "note": 59,
      "start": 57.942,
      "duration": 0.1064,
      "velocity": 91,
      "chip": "ym2612"
    },
    {
      "channel": 4,
      "note": 71,
      "start": 58.0485,
      "duration": 0.0832,
      "velocity": 91,
      "chip": "ym2612"
    },
    {
      "channel": 4,
      "note": 58,
      "start": 58.1317,
      "duration": 0.1092,
      "velocity": 91,
      "chip": "ym2612"
    },
    {
      "channel": 1,
      "note": 73,
      "start": 58.2383,
      "duration": 0.0702,
      "velocity": 91,
      "chip": "ym2612"
    },
    {
      "channel": 3,
      "note": 73,
      "start": 58.2399,
      "duration": 0.0695,
      "velocity": 102,
      "chip": "ym2612"
    },
    {
      "channel": 4,
      "note": 70,
      "start": 58.2411,
      "duration": 0.0816,
      "velocity": 91,
      "chip": "ym2612"
    },
    {
      "channel": 4,
      "note": 59,
      "start": 58.3227,
      "duration": 0.0801,
      "velocity": 91,
      "chip": "ym2612"
    },
    {
      "channel": 4,
      "note": 71,
      "start": 58.4029,
      "duration": 0.0843,
      "velocity": 91,
      "chip": "ym2612"
    },
    {
      "channel": 1,
      "note": 68,
      "start": 58.4847,
      "duration": 0.0878,
      "velocity": 91,
      "chip": "ym2612"
    },
    {
      "channel": 3,
      "note": 68,
      "start": 58.4862,
      "duration": 0.0869,
      "velocity": 102,
      "chip": "ym2612"
    },
    {
      "channel": 4,
      "note": 60,
      "start": 58.4873,
      "duration": 0.1065,
      "velocity": 91,
      "chip": "ym2612"
    },
    {
      "channel": 1,
      "note": 70,
      "start": 58.5913,
      "duration": 0.0899,
      "velocity": 91,
      "chip": "ym2612"
    },
    {
      "channel": 3,
      "note": 70,
      "start": 58.5928,
      "duration": 0.089,
      "velocity": 102,
      "chip": "ym2612"
    },
    {
      "channel": 4,
      "note": 72,
      "start": 58.5939,
      "duration": 0.1176,
      "velocity": 91,
      "chip": "ym2612"
    },
    {
      "channel": 1,
      "note": 71,
      "start": 58.7045,
      "duration": 0.0661,
      "velocity": 91,
      "chip": "ym2612"
    },
    {
      "channel": 3,
      "note": 71,
      "start": 58.7064,
      "duration": 0.065,
      "velocity": 102,
      "chip": "ym2612"
    },
    {
      "channel": 4,
      "note": 61,
      "start": 58.7117,
      "duration": 0.178,
      "velocity": 91,
      "chip": "ym2612"
    },
    {
      "channel": 1,
      "note": 71,
      "start": 58.784,
      "duration": 0.0842,
      "velocity": 91,
      "chip": "ym2612"
    },
    {
      "channel": 3,
      "note": 71,
      "start": 58.7853,
      "duration": 0.0834,
      "velocity": 102,
      "chip": "ym2612"
    },
    {
      "channel": 1,
      "note": 70,
      "start": 58.8873,
      "duration": 0.1905,
      "velocity": 91,
      "chip": "ym2612"
    },
    {
      "channel": 3,
      "note": 70,
      "start": 58.8888,
      "duration": 0.1895,
      "velocity": 102,
      "chip": "ym2612"
    },
    {
      "channel": 4,
      "note": 73,
      "start": 58.8899,
      "duration": 0.21,
      "velocity": 91,
      "chip": "ym2612"
    },
    {
      "channel": 1,
      "note": 71,
      "start": 59.0963,
      "duration": 0.1704,
      "velocity": 91,
      "chip": "ym2612"
    },
    {
      "channel": 2,
      "note": 90,
      "start": 59.0976,
      "duration": 0.8101,
      "velocity": 102,
      "chip": "ym2612"
    },
    {
      "channel": 3,
      "note": 71,
      "start": 59.0987,
      "duration": 0.1687,
      "velocity": 102,
      "chip": "ym2612"
    },
    {
      "channel": 4,
      "note": 61,
      "start": 59.1,
      "duration": 0.0771,
      "velocity": 91,
      "chip": "ym2612"
    },
    {
      "channel": 4,
      "note": 73,
      "start": 59.1773,
      "duration": 0.112,
      "velocity": 91,
      "chip": "ym2612"
    },
    {
      "channel": 0,
      "note": 90,
      "start": 59.2854,
      "duration": 0.8124,
      "velocity": 102,
      "chip": "ym2612"
    },
    {
      "channel": 1,
      "note": 70,
      "start": 59.2866,
      "duration": 0.1745,
      "velocity": 91,
      "chip": "ym2612"
    },
    {
      "channel": 3,
      "note": 70,
      "start": 59.2882,
      "duration": 0.1739,
      "velocity": 102,
      "chip": "ym2612"
    },
    {
      "channel": 4,
      "note": 56,
      "start": 59.2895,
      "duration": 0.1882,
      "velocity": 91,
      "chip": "ym2612"
    },
    {
      "channel": 1,
      "note": 73,
      "start": 59.475,
      "duration": 0.3056,
      "velocity": 91,
      "chip": "ym2612"
    },
    {
      "channel": 3,
      "note": 73,
      "start": 59.4767,
      "duration": 0.3045,
      "velocity": 102,
      "chip": "ym2612"
    },
    {
      "channel": 4,
      "note": 59,
      "start": 59.4778,
      "duration": 0.1063,
      "velocity": 91,
      "chip": "ym2612"
    },
    {
      "channel": 4,
      "note": 71,
      "start": 59.5842,
      "duration": 0.1069,
      "velocity": 91,
      "chip": "ym2612"
    },
    {
      "channel": 4,
      "note": 58,
      "start": 59.6912,
      "duration": 0.1104,
      "velocity": 91,
      "chip": "ym2612"
    },
    {
      "channel": 1,
      "note": 71,
      "start": 59.7992,
      "duration": 0.0895,
      "velocity": 91,
      "chip": "ym2612"
    },
    {
      "channel": 3,
      "note": 71,
      "start": 59.8007,
      "duration": 0.0887,
      "velocity": 102,
      "chip": "ym2612"
    },
    {
      "channel": 4,
      "note": 70,
      "start": 59.8018,
      "duration": 0.1078,
      "velocity": 91,
      "chip": "ym2612"
    },
    {
      "channel": 2,
      "note": 89,
      "start": 59.9078,
      "duration": 0.4042,
      "velocity": 102,
      "chip": "ym2612"
    },
    {
      "channel": 4,
      "note": 59,
      "start": 59.9098,
      "duration": 0.0838,
      "velocity": 91,
      "chip": "ym2612"
    },
    {
      "channel": 4,
      "note": 71,
      "start": 59.9937,
      "duration": 0.1082,
      "velocity": 91,
      "chip": "ym2612"
    },
    {
      "channel": 0,
      "note": 89,
      "start": 60.0979,
      "duration": 0.4023,
      "velocity": 102,
      "chip": "ym2612"
    },
    {
      "channel": 1,
      "note": 68,
      "start": 60.0991,
      "duration": 0.0886,
      "velocity": 91,
      "chip": "ym2612"
    },
    {
      "channel": 3,
      "note": 68,
      "start": 60.1008,
      "duration": 0.0877,
      "velocity": 102,
      "chip": "ym2612"
    },
    {
      "channel": 4,
      "note": 56,
      "start": 60.102,
      "duration": 0.2155,
      "velocity": 91,
      "chip": "ym2612"
    },
    {
      "channel": 1,
      "note": 70,
      "start": 60.2064,
      "duration": 0.0846,
      "velocity": 91,
      "chip": "ym2612"
    },
    {
      "channel": 3,
      "note": 70,
      "start": 60.208,
      "duration": 0.0838,
      "velocity": 102,
      "chip": "ym2612"
    },
    {
      "channel": 1,
      "note": 71,
      "start": 60.3108,
      "duration": 0.0698,
      "velocity": 91,
      "chip": "ym2612"
    },
    {
      "channel": 2,
      "note": 87,
      "start": 60.3121,
      "duration": 0.2961,
      "velocity": 102,
      "chip": "ym2612"
    },
    {
      "channel": 3,
      "note": 71,
      "start": 60.3132,
      "duration": 0.0682,
      "velocity": 102,
      "chip": "ym2612"
    },
    {
      "channel": 4,
      "note": 61,
      "start": 60.3176,
      "duration": 0.1866,
      "velocity": 91,
      "chip": "ym2612"
    },
    {
      "channel": 1,
      "note": 71,
      "start": 60.3935,
      "duration": 0.0884,
      "velocity": 91,
      "chip": "ym2612"
    },
    {
      "channel": 3,
      "note": 71,
      "start": 60.3952,
      "duration": 0.0875,
      "velocity": 102,
      "chip": "ym2612"
    },
    {
      "channel": 0,
      "note": 87,
      "start": 60.5004,
      "duration": 0.2843,
      "velocity": 102,
      "chip": "ym2612"
    },
    {
      "channel": 1,
      "note": 70,
      "start": 60.5017,
      "duration": 0.1947,
      "velocity": 91,
      "chip": "ym2612"
    },
    {
      "channel": 3,
      "note": 70,
      "start": 60.5032,
      "duration": 0.194,
      "velocity": 102,
      "chip": "ym2612"
    },
    {
      "channel": 4,
      "note": 73,
      "start": 60.5044,
      "duration": 0.2133,
      "velocity": 91,
      "chip": "ym2612"
    },
    {
      "channel": 2,
      "note": 89,
      "start": 60.6084,
      "duration": 0.4954,
      "velocity": 102,
      "chip": "ym2612"
    },
    {
      "channel": 1,
      "note": 71,
      "start": 60.715,
      "duration": 0.1564,
      "velocity": 91,
      "chip": "ym2612"
    },
    {
      "channel": 3,
      "note": 71,
      "start": 60.7167,
      "duration": 0.1554,
      "velocity": 102,
      "chip": "ym2612"
    },
    {
      "channel": 4,
      "note": 61,
      "start": 60.7178,
      "duration": 0.0694,
      "velocity": 91,
      "chip": "ym2612"
    },
    {
      "channel": 0,
      "note": 89,
      "start": 60.7849,
      "duration": 0.5088,
      "velocity": 102,
      "chip": "ym2612"
    },
    {
      "channel": 4,
      "note": 73,
      "start": 60.7874,
      "duration": 0.1055,
      "velocity": 91,
      "chip": "ym2612"
    },
    {
      "channel": 1,
      "note": 70,
      "start": 60.8902,
      "duration": 0.1942,
      "velocity": 91,
      "chip": "ym2612"
    },
    {
      "channel": 3,
      "note": 70,
      "start": 60.8919,
      "duration": 0.1932,
      "velocity": 102,
      "chip": "ym2612"
    },
    {
      "channel": 4,
      "note": 56,
      "start": 60.893,
      "duration": 0.1062,
      "velocity": 91,
      "chip": "ym2612"
    },
    {
      "channel": 4,
      "note": 68,
      "start": 60.9993,
      "duration": 0.1068,
      "velocity": 91,
      "chip": "ym2612"
    },
    {
      "channel": 1,
      "note": 71,
      "start": 61.1032,
      "duration": 0.2818,
      "velocity": 91,
      "chip": "ym2612"
    },
    {
      "channel": 3,
      "note": 71,
      "start": 61.105,
      "duration": 0.2805,
      "velocity": 102,
      "chip": "ym2612"
    },
    {
      "channel": 4,
      "note": 59,
      "start": 61.1061,
      "duration": 0.1058,
      "velocity": 91,
      "chip": "ym2612"
    },
    {
      "channel": 4,
      "note": 71,
      "start": 61.212,
      "duration": 0.0837,
      "velocity": 91,
      "chip": "ym2612"
    },
    {
      "channel": 4,
      "note": 58,
      "start": 61.2958,
      "duration": 0.1105,
      "velocity": 91,
      "chip": "ym2612"
    },
    {
      "channel": 1,
      "note": 73,
      "start": 61.4037,
      "duration": 0.0689,
      "velocity": 91,
      "chip": "ym2612"
    },
    {
      "channel": 3,
      "note": 73,
      "start": 61.4051,
      "duration": 0.0681,
      "velocity": 102,
      "chip": "ym2612"
    },
    {
      "channel": 4,
      "note": 70,
      "start": 61.4065,
      "duration": 0.0807,
      "velocity": 91,
      "chip": "ym2612"
    },
    {
      "channel": 4,
      "note": 59,
      "start": 61.4873,
      "duration": 0.082,
      "velocity": 91,
      "chip": "ym2612"
    },
    {
      "channel": 4,
      "note": 71,
      "start": 61.5694,
      "duration": 0.0851,
      "velocity": 91,
      "chip": "ym2612"
    },
    {
      "channel": 1,
      "note": 68,
      "start": 61.6521,
      "duration": 0.0904,
      "velocity": 91,
      "chip": "ym2612"
    },
    {
      "channel": 3,
      "note": 68,
      "start": 61.6534,
      "duration": 0.0896,
      "velocity": 102,
      "chip": "ym2612"
    },
    {
      "channel": 4,
      "note": 60,
      "start": 61.6547,
      "duration": 0.109,
      "velocity": 91,
      "chip": "ym2612"
    },
    {
      "channel": 1,
      "note": 70,
      "start": 61.7612,
      "duration": 0.0859,
      "velocity": 91,
      "chip": "ym2612"
    },
    {
      "channel": 3,
      "note": 70,
      "start": 61.7626,
      "duration": 0.0851,
      "velocity": 102,
      "chip": "ym2612"
    },
    {
      "channel": 4,
      "note": 72,
      "start": 61.7639,
      "duration": 0.1098,
      "velocity": 91,
      "chip": "ym2612"
    },
    {
      "channel": 1,
      "note": 71,
      "start": 61.8669,
      "duration": 0.0693,
      "velocity": 91,
      "chip": "ym2612"
    },
    {
      "channel": 3,
      "note": 71,
      "start": 61.8688,
      "duration": 0.068,
      "velocity": 102,
      "chip": "ym2612"
    },
    {
      "channel": 4,
      "note": 61,
      "start": 61.8738,
      "duration": 0.1878,
      "velocity": 91,
      "chip": "ym2612"
    },
    {
      "channel": 1,
      "note": 71,
      "start": 61.9495,
      "duration": 0.0902,
      "velocity": 91,
      "chip": "ym2612"
    },
    {
      "channel": 3,
      "note": 71,
      "start": 61.9507,
      "duration": 0.0895,
      "velocity": 102,
      "chip": "ym2612"
    },
    {
      "channel": 1,
      "note": 70,
      "start": 62.0591,
      "duration": 0.1968,
      "velocity": 91,
      "chip": "ym2612"
    },
    {
      "channel": 3,
      "note": 70,
      "start": 62.0604,
      "duration": 0.196,
      "velocity": 102,
      "chip": "ym2612"
    },
    {
      "channel": 4,
      "note": 73,
      "start": 62.0617,
      "duration": 0.2163,
      "velocity": 91,
      "chip": "ym2612"
    },
    {
      "channel": 1,
      "note": 71,
      "start": 62.2746,
      "duration": 0.1706,
      "velocity": 91,
      "chip": "ym2612"
    },
    {
      "channel": 2,
      "note": 90,
      "start": 62.2758,
      "duration": 0.8066,
      "velocity": 102,
      "chip": "ym2612"
    },
    {
      "channel": 3,
      "note": 71,
      "start": 62.277,
      "duration": 0.1689,
      "velocity": 102,
      "chip": "ym2612"
    },
    {
      "channel": 4,
      "note": 61,
      "start": 62.2782,
      "duration": 0.082,
      "velocity": 91,
      "chip": "ym2612"
    },
    {
      "channel": 4,
      "note": 73,
      "start": 62.3603,
      "duration": 0.1076,
      "velocity": 91,
      "chip": "ym2612"
    },
    {
      "channel": 0,
      "note": 90,
      "start": 62.464,
      "duration": 0.7868,
      "velocity": 102,
      "chip": "ym2612"
    },
    {
      "channel": 1,
      "note": 70,
      "start": 62.4651,
      "duration": 0.1731,
      "velocity": 91,
      "chip": "ym2612"
    },
    {
      "channel": 3,
      "note": 70,
      "start": 62.4668,
      "duration": 0.1724,
      "velocity": 102,
      "chip": "ym2612"
    },
    {
      "channel": 4,
      "note": 56,
      "start": 62.4681,
      "duration": 0.1867,
      "velocity": 91,
      "chip": "ym2612"
    },
    {
      "channel": 1,
      "note": 73,
      "start": 62.6522,
      "duration": 0.3038,
      "velocity": 91,
      "chip": "ym2612"
    },
    {
      "channel": 3,
      "note": 73,
      "start": 62.6537,
      "duration": 0.3029,
      "velocity": 102,
      "chip": "ym2612"
    },
    {
      "channel": 4,
      "note": 59,
      "start": 62.6549,
      "duration": 0.1062,
      "velocity": 91,
      "chip": "ym2612"
    },
    {
      "channel": 4,
      "note": 71,
      "start": 62.7612,
      "duration": 0.1069,
      "velocity": 91,
      "chip": "ym2612"
    },
    {
      "channel": 4,
      "note": 58,
      "start": 62.8682,
      "duration": 0.109,
      "velocity": 91,
      "chip": "ym2612"
    },
    {
      "channel": 1,
      "note": 71,
      "start": 62.9748,
      "duration": 0.0887,
      "velocity": 91,
      "chip": "ym2612"
    },
    {
      "channel": 3,
      "note": 71,
      "start": 62.9761,
      "duration": 0.0879,
      "velocity": 102,
      "chip": "ym2612"
    },
    {
      "channel": 4,
      "note": 70,
      "start": 62.9773,
      "duration": 0.1069,
      "velocity": 91,
      "chip": "ym2612"
    },
    {
      "channel": 2,
      "note": 89,
      "start": 63.0825,
      "duration": 0.3718,
      "velocity": 102,
      "chip": "ym2612"
    },
    {
      "channel": 4,
      "note": 59,
      "start": 63.0844,
      "duration": 0.0765,
      "velocity": 91,
      "chip": "ym2612"
    },
    {
      "channel": 4,
      "note": 71,
      "start": 63.161,
      "duration": 0.0937,
      "velocity": 91,
      "chip": "ym2612"
    },
    {
      "channel": 0,
      "note": 89,
      "start": 63.2509,
      "duration": 0.195,
      "velocity": 102,
      "chip": "ym2612"
    },
    {
      "channel": 1,
      "note": 68,
      "start": 63.2521,
      "duration": 0.0849,
      "velocity": 91,
      "chip": "ym2612"
    },
    {
      "channel": 3,
      "note": 68,
      "start": 63.2536,
      "duration": 0.0841,
      "velocity": 102,
      "chip": "ym2612"
    },
    {
      "channel": 4,
      "note": 56,
      "start": 63.2549,
      "duration": 0.2043,
      "velocity": 127,
      "chip": "ym2612"
    },
    {
      "channel": 1,
      "note": 70,
      "start": 63.3554,
      "duration": 0.0711,
      "velocity": 91,
      "chip": "ym2612"
    },
    {
      "channel": 3,
      "note": 70,
      "start": 63.3569,
      "duration": 0.0705,
      "velocity": 102,
      "chip": "ym2612"
    },
    {
      "channel": 0,
      "note": 76,
      "start": 63.5259,
      "duration": 0.0449,
      "velocity": 102,
      "chip": "ym2612"
    },
    {
      "channel": 1,
      "note": 73,
      "start": 63.5272,
      "duration": 0.0442,
      "velocity": 102,
      "chip": "ym2612"
    },
    {
      "channel": 2,
      "note": 85,
      "start": 63.5284,
      "duration": 0.0435,
      "velocity": 102,
      "chip": "ym2612"
    },
    {
      "channel": 3,
      "note": 73,
      "start": 63.5296,
      "duration": 0.0429,
      "velocity": 102,
      "chip": "ym2612"
    },
    {
      "channel": 4,
      "note": 61,
      "start": 63.5309,
      "duration": 0.0421,
      "velocity": 127,
      "chip": "ym2612"
    },
    {
      "channel": 0,
      "note": 76,
      "start": 63.608,
      "duration": 0.0498,
      "velocity": 102,
      "chip": "ym2612"
    },
    {
      "channel": 1,
      "note": 73,
      "start": 63.6092,
      "duration": 0.0491,
      "velocity": 102,
      "chip": "ym2612"
    },
    {
      "channel": 2,
      "note": 85,
      "start": 63.6105,
      "duration": 0.0484,
      "velocity": 102,
      "chip": "ym2612"
    },
    {
      "channel": 3,
      "note": 73,
      "start": 63.6116,
      "duration": 0.0479,
      "velocity": 102,
      "chip": "ym2612"
    },
    {
      "channel": 4,
      "note": 61,
      "start": 63.6128,
      "duration": 0.0473,
      "velocity": 127,
      "chip": "ym2612"
    },
    {
      "channel": 0,
      "note": 76,
      "start": 63.6927,
      "duration": 0.0474,
      "velocity": 102,
      "chip": "ym2612"
    },
    {
      "channel": 1,
      "note": 73,
      "start": 63.6939,
      "duration": 0.0467,
      "velocity": 102,
      "chip": "ym2612"
    },
    {
      "channel": 2,
      "note": 85,
      "start": 63.6951,
      "duration": 0.0461,
      "velocity": 102,
      "chip": "ym2612"
    },
    {
      "channel": 3,
      "note": 73,
      "start": 63.6963,
      "duration": 0.0453,
      "velocity": 102,
      "chip": "ym2612"
    },
    {
      "channel": 4,
      "note": 61,
      "start": 63.6975,
      "duration": 0.0447,
      "velocity": 127,
      "chip": "ym2612"
    },
    {
      "channel": 0,
      "note": 76,
      "start": 63.8556,
      "duration": 0.0476,
      "velocity": 102,
      "chip": "ym2612"
    },
    {
      "channel": 1,
      "note": 73,
      "start": 63.8568,
      "duration": 0.0469,
      "velocity": 102,
      "chip": "ym2612"
    },
    {
      "channel": 2,
      "note": 85,
      "start": 63.858,
      "duration": 0.0463,
      "velocity": 102,
      "chip": "ym2612"
    },
    {
      "channel": 3,
      "note": 73,
      "start": 63.8592,
      "duration": 0.0456,
      "velocity": 102,
      "chip": "ym2612"
    },
    {
      "channel": 4,
      "note": 61,
      "start": 63.8604,
      "duration": 0.045,
      "velocity": 127,
      "chip": "ym2612"
    },
    {
      "channel": 0,
      "note": 76,
      "start": 63.9365,
      "duration": 0.0476,
      "velocity": 102,
      "chip": "ym2612"
    },
    {
      "channel": 1,
      "note": 73,
      "start": 63.9378,
      "duration": 0.0468,
      "velocity": 102,
      "chip": "ym2612"
    },
    {
      "channel": 2,
      "note": 85,
      "start": 63.9389,
      "duration": 0.0462,
      "velocity": 102,
      "chip": "ym2612"
    },
    {
      "channel": 3,
      "note": 73,
      "start": 63.9402,
      "duration": 0.0455,
      "velocity": 102,
      "chip": "ym2612"
    },
    {
      "channel": 4,
      "note": 61,
      "start": 63.9414,
      "duration": 0.0449,
      "velocity": 127,
      "chip": "ym2612"
    },
    {
      "channel": 0,
      "note": 76,
      "start": 64.0172,
      "duration": 0.0477,
      "velocity": 102,
      "chip": "ym2612"
    },
    {
      "channel": 1,
      "note": 73,
      "start": 64.0184,
      "duration": 0.047,
      "velocity": 102,
      "chip": "ym2612"
    },
    {
      "channel": 2,
      "note": 85,
      "start": 64.0196,
      "duration": 0.0464,
      "velocity": 102,
      "chip": "ym2612"
    },
    {
      "channel": 3,
      "note": 73,
      "start": 64.021,
      "duration": 0.0456,
      "velocity": 102,
      "chip": "ym2612"
    },
    {
      "channel": 4,
      "note": 61,
      "start": 64.0221,
      "duration": 0.045,
      "velocity": 127,
      "chip": "ym2612"
    },
    {
      "channel": 0,
      "note": 76,
      "start": 64.0982,
      "duration": 0.0451,
      "velocity": 102,
      "chip": "ym2612"
    },
    {
      "channel": 1,
      "note": 73,
      "start": 64.0994,
      "duration": 0.0445,
      "velocity": 102,
      "chip": "ym2612"
    },
    {
      "channel": 2,
      "note": 85,
      "start": 64.1006,
      "duration": 0.0438,
      "velocity": 102,
      "chip": "ym2612"
    },
    {
      "channel": 3,
      "note": 73,
      "start": 64.1019,
      "duration": 0.0431,
      "velocity": 102,
      "chip": "ym2612"
    },
    {
      "channel": 4,
      "note": 61,
      "start": 64.1856,
      "duration": 0.0437,
      "velocity": 127,
      "chip": "ym2612"
    },
    {
      "channel": 0,
      "note": 76,
      "start": 64.2661,
      "duration": 0.0498,
      "velocity": 102,
      "chip": "ym2612"
    },
    {
      "channel": 1,
      "note": 73,
      "start": 64.2673,
      "duration": 0.0491,
      "velocity": 102,
      "chip": "ym2612"
    },
    {
      "channel": 2,
      "note": 85,
      "start": 64.2685,
      "duration": 0.0484,
      "velocity": 102,
      "chip": "ym2612"
    },
    {
      "channel": 3,
      "note": 73,
      "start": 64.2697,
      "duration": 0.0478,
      "velocity": 102,
      "chip": "ym2612"
    },
    {
      "channel": 4,
      "note": 61,
      "start": 64.2709,
      "duration": 0.0472,
      "velocity": 127,
      "chip": "ym2612"
    },
    {
      "channel": 4,
      "note": 61,
      "start": 64.3536,
      "duration": 0.0438,
      "velocity": 127,
      "chip": "ym2612"
    },
    {
      "channel": 0,
      "note": 76,
      "start": 64.4351,
      "duration": 0.045,
      "velocity": 102,
      "chip": "ym2612"
    },
    {
      "channel": 1,
      "note": 73,
      "start": 64.4363,
      "duration": 0.0443,
      "velocity": 102,
      "chip": "ym2612"
    },
    {
      "channel": 2,
      "note": 85,
      "start": 64.4375,
      "duration": 0.0437,
      "velocity": 102,
      "chip": "ym2612"
    },
    {
      "channel": 3,
      "note": 73,
      "start": 64.4386,
      "duration": 0.043,
      "velocity": 102,
      "chip": "ym2612"
    },
    {
      "channel": 0,
      "note": 76,
      "start": 64.5178,
      "duration": 0.0494,
      "velocity": 102,
      "chip": "ym2612"
    },
    {
      "channel": 1,
      "note": 73,
      "start": 64.519,
      "duration": 0.0488,
      "velocity": 102,
      "chip": "ym2612"
    },
    {
      "channel": 2,
      "note": 85,
      "start": 64.5202,
      "duration": 0.0481,
      "velocity": 102,
      "chip": "ym2612"
    },
    {
      "channel": 3,
      "note": 73,
      "start": 64.5213,
      "duration": 0.0476,
      "velocity": 102,
      "chip": "ym2612"
    },
    {
      "channel": 4,
      "note": 61,
      "start": 64.5225,
      "duration": 0.0469,
      "velocity": 127,
      "chip": "ym2612"
    },
    {
      "channel": 0,
      "note": 76,
      "start": 64.6003,
      "duration": 0.0496,
      "velocity": 102,
      "chip": "ym2612"
    },
    {
      "channel": 1,
      "note": 73,
      "start": 64.6015,
      "duration": 0.049,
      "velocity": 102,
      "chip": "ym2612"
    },
    {
      "channel": 2,
      "note": 85,
      "start": 64.6027,
      "duration": 0.0483,
      "velocity": 102,
      "chip": "ym2612"
    },
    {
      "channel": 3,
      "note": 73,
      "start": 64.6039,
      "duration": 0.0478,
      "velocity": 102,
      "chip": "ym2612"
    },
    {
      "channel": 4,
      "note": 61,
      "start": 64.6051,
      "duration": 0.0471,
      "velocity": 127,
      "chip": "ym2612"
    },
    {
      "channel": 0,
      "note": 76,
      "start": 64.6847,
      "duration": 0.0477,
      "velocity": 102,
      "chip": "ym2612"
    },
    {
      "channel": 1,
      "note": 73,
      "start": 64.6859,
      "duration": 0.047,
      "velocity": 102,
      "chip": "ym2612"
    },
    {
      "channel": 2,
      "note": 85,
      "start": 64.6871,
      "duration": 0.0464,
      "velocity": 102,
      "chip": "ym2612"
    },
    {
      "channel": 3,
      "note": 73,
      "start": 64.6885,
      "duration": 0.0456,
      "velocity": 102,
      "chip": "ym2612"
    },
    {
      "channel": 4,
      "note": 61,
      "start": 64.6897,
      "duration": 0.045,
      "velocity": 127,
      "chip": "ym2612"
    },
    {
      "channel": 3,
      "note": 49,
      "start": 64.7794,
      "duration": 0.2812,
      "velocity": 91,
      "chip": "ym2612"
    },
    {
      "channel": 4,
      "note": 49,
      "start": 64.7838,
      "duration": 0.2964,
      "velocity": 97,
      "chip": "ym2612"
    },
    {
      "channel": 0,
      "note": 73,
      "start": 64.849,
      "duration": 0.0941,
      "velocity": 92,
      "chip": "ym2612"
    },
    {
      "channel": 1,
      "note": 61,
      "start": 64.8502,
      "duration": 0.0933,
      "velocity": 90,
      "chip": "ym2612"
    },
    {
      "channel": 0,
      "note": 73,
      "start": 64.9608,
      "duration": 0.099,
      "velocity": 92,
      "chip": "ym2612"
    },
    {
      "channel": 1,
      "note": 61,
      "start": 64.9616,
      "duration": 0.0986,
      "velocity": 90,
      "chip": "ym2612"
    },
    {
      "channel": 0,
      "note": 73,
      "start": 65.0776,
      "duration": 0.0988,
      "velocity": 92,
      "chip": "ym2612"
    },
    {
      "channel": 1,
      "note": 61,
      "start": 65.0785,
      "duration": 0.0983,
      "velocity": 90,
      "chip": "ym2612"
    },
    {
      "channel": 3,
      "note": 61,
      "start": 65.0795,
      "duration": 0.0978,
      "velocity": 91,
      "chip": "ym2612"
    },
    {
      "channel": 4,
      "note": 61,
      "start": 65.0803,
      "duration": 0.1171,
      "velocity": 97,
      "chip": "ym2612"
    },
    {
      "channel": 3,
      "note": 49,
      "start": 65.1963,
      "duration": 0.0618,
      "velocity": 91,
      "chip": "ym2612"
    },
    {
      "channel": 4,
      "note": 49,
      "start": 65.1975,
      "duration": 0.0797,
      "velocity": 97,
      "chip": "ym2612"
    },
    {
      "channel": 0,
      "note": 73,
      "start": 65.2736,
      "duration": 0.0925,
      "velocity": 92,
      "chip": "ym2612"
    },
    {
      "channel": 1,
      "note": 61,
      "start": 65.2748,
      "duration": 0.0918,
      "velocity": 90,
      "chip": "ym2612"
    },
    {
      "channel": 3,
      "note": 59,
      "start": 65.2762,
      "duration": 0.0909,
      "velocity": 91,
      "chip": "ym2612"
    },
    {
      "channel": 4,
      "note": 59,
      "start": 65.2774,
      "duration": 0.1096,
      "velocity": 97,
      "chip": "ym2612"
    },
    {
      "channel": 0,
      "note": 73,
      "start": 65.3841,
      "duration": 0.0987,
      "velocity": 92,
      "chip": "ym2612"
    },
    {
      "channel": 1,
      "note": 61,
      "start": 65.3851,
      "duration": 0.0981,
      "velocity": 90,
      "chip": "ym2612"
    },
    {
      "channel": 3,
      "note": 51,
      "start": 65.3862,
      "duration": 0.186,
      "velocity": 91,
      "chip": "ym2612"
    },
    {
      "channel": 4,
      "note": 51,
      "start": 65.3871,
      "duration": 0.1995,
      "velocity": 97,
      "chip": "ym2612"
    },
    {
      "channel": 0,
      "note": 73,
      "start": 65.5014,
      "duration": 0.0697,
      "velocity": 92,
      "chip": "ym2612"
    },
    {
      "channel": 1,
      "note": 61,
      "start": 65.5028,
      "duration": 0.0688,
      "velocity": 90,
      "chip": "ym2612"
    },
    {
      "channel": 3,
      "note": 59,
      "start": 65.5856,
      "duration": 0.0941,
      "velocity": 91,
      "chip": "ym2612"
    },
    {
      "channel": 4,
      "note": 59,
      "start": 65.5868,
      "duration": 0.1132,
      "velocity": 97,
      "chip": "ym2612"
    },
    {
      "channel": 0,
      "note": 73,
      "start": 65.6974,
      "duration": 0.0988,
      "velocity": 92,
      "chip": "ym2612"
    },
    {
      "channel": 1,
      "note": 61,
      "start": 65.6983,
      "duration": 0.0983,
      "velocity": 90,
      "chip": "ym2612"
    },
    {
      "channel": 3,
      "note": 53,
      "start": 65.6993,
      "duration": 0.0978,
      "velocity": 91,
      "chip": "ym2612"
    },
    {
      "channel": 4,
      "note": 53,
      "start": 65.7002,
      "duration": 0.1188,
      "velocity": 97,
      "chip": "ym2612"
    },
    {
      "channel": 0,
      "note": 73,
      "start": 65.8151,
      "duration": 0.0713,
      "velocity": 92,
      "chip": "ym2612"
    },
    {
      "channel": 1,
      "note": 61,
      "start": 65.8165,
      "duration": 0.0703,
      "velocity": 90,
      "chip": "ym2612"
    },
    {
      "channel": 3,
      "note": 54,
      "start": 65.8179,
      "duration": 0.1776,
      "velocity": 91,
      "chip": "ym2612"
    },
    {
      "channel": 4,
      "note": 54,
      "start": 65.8191,
      "duration": 0.1966,
      "velocity": 97,
      "chip": "ym2612"
    },
    {
      "channel": 0,
      "note": 73,
      "start": 65.8991,
      "duration": 0.0955,
      "velocity": 92,
      "chip": "ym2612"
    },
    {
      "channel": 1,
      "note": 61,
      "start": 65.9004,
      "duration": 0.0946,
      "velocity": 90,
      "chip": "ym2612"
    },
    {
      "channel": 3,
      "note": 56,
      "start": 66.0146,
      "duration": 0.1473,
      "velocity": 91,
      "chip": "ym2612"
    },
    {
      "channel": 4,
      "note": 56,
      "start": 66.0157,
      "duration": 0.162,
      "velocity": 97,
      "chip": "ym2612"
    },
    {
      "channel": 0,
      "note": 73,
      "start": 66.0896,
      "duration": 0.0711,
      "velocity": 92,
      "chip": "ym2612"
    },
    {
      "channel": 1,
      "note": 61,
      "start": 66.091,
      "duration": 0.0702,
      "velocity": 90,
      "chip": "ym2612"
    },
    {
      "channel": 0,
      "note": 73,
      "start": 66.174,
      "duration": 0.0859,
      "velocity": 92,
      "chip": "ym2612"
    },
    {
      "channel": 1,
      "note": 61,
      "start": 66.1753,
      "duration": 0.085,
      "velocity": 90,
      "chip": "ym2612"
    },
    {
      "channel": 3,
      "note": 59,
      "start": 66.1767,
      "duration": 0.2008,
      "velocity": 91,
      "chip": "ym2612"
    },
    {
      "channel": 4,
      "note": 59,
      "start": 66.1779,
      "duration": 0.2287,
      "velocity": 97,
      "chip": "ym2612"
    },
    {
      "channel": 0,
      "note": 73,
      "start": 66.2776,
      "duration": 0.099,
      "velocity": 92,
      "chip": "ym2612"
    },
    {
      "channel": 1,
      "note": 61,
      "start": 66.2785,
      "duration": 0.0985,
      "velocity": 90,
      "chip": "ym2612"
    },
    {
      "channel": 3,
      "note": 49,
      "start": 66.4051,
      "duration": 0.2854,
      "velocity": 91,
      "chip": "ym2612"
    },
    {
      "channel": 4,
      "note": 49,
      "start": 66.4067,
      "duration": 0.3034,
      "velocity": 97,
      "chip": "ym2612"
    },
    {
      "channel": 0,
      "note": 73,
      "start": 66.4777,
      "duration": 0.0952,
      "velocity": 92,
      "chip": "ym2612"
    },
    {
      "channel": 1,
      "note": 61,
      "start": 66.479,
      "duration": 0.0944,
      "velocity": 90,
      "chip": "ym2612"
    },
    {
      "channel": 0,
      "note": 73,
      "start": 66.5905,
      "duration": 0.0991,
      "velocity": 92,
      "chip": "ym2612"
    },
    {
      "channel": 1,
      "note": 61,
      "start": 66.5914,
      "duration": 0.0987,
      "velocity": 90,
      "chip": "ym2612"
    },
    {
      "channel": 0,
      "note": 73,
      "start": 66.7076,
      "duration": 0.0987,
      "velocity": 92,
      "chip": "ym2612"
    },
    {
      "channel": 1,
      "note": 61,
      "start": 66.7084,
      "duration": 0.0983,
      "velocity": 90,
      "chip": "ym2612"
    },
    {
      "channel": 3,
      "note": 61,
      "start": 66.7093,
      "duration": 0.0978,
      "velocity": 91,
      "chip": "ym2612"
    },
    {
      "channel": 4,
      "note": 61,
      "start": 66.7102,
      "duration": 0.1171,
      "velocity": 97,
      "chip": "ym2612"
    },
    {
      "channel": 3,
      "note": 49,
      "start": 66.8263,
      "duration": 0.0668,
      "velocity": 91,
      "chip": "ym2612"
    },
    {
      "channel": 4,
      "note": 49,
      "start": 66.8275,
      "duration": 0.0815,
      "velocity": 97,
      "chip": "ym2612"
    },
    {
      "channel": 0,
      "note": 73,
      "start": 66.9054,
      "duration": 0.0926,
      "velocity": 92,
      "chip": "ym2612"
    },
    {
      "channel": 1,
      "note": 61,
      "start": 66.9067,
      "duration": 0.0917,
      "velocity": 90,
      "chip": "ym2612"
    },
    {
      "channel": 3,
      "note": 59,
      "start": 66.908,
      "duration": 0.091,
      "velocity": 91,
      "chip": "ym2612"
    },
    {
      "channel": 4,
      "note": 59,
      "start": 66.9092,
      "duration": 0.1097,
      "velocity": 97,
      "chip": "ym2612"
    },
    {
      "channel": 0,
      "note": 73,
      "start": 67.016,
      "duration": 0.0987,
      "velocity": 92,
      "chip": "ym2612"
    },
    {
      "channel": 1,
      "note": 61,
      "start": 67.0169,
      "duration": 0.0982,
      "velocity": 90,
      "chip": "ym2612"
    },
    {
      "channel": 3,
      "note": 51,
      "start": 67.018,
      "duration": 0.0976,
      "velocity": 91,
      "chip": "ym2612"
    },
    {
      "channel": 4,
      "note": 51,
      "start": 67.019,
      "duration": 0.1183,
      "velocity": 97,
      "chip": "ym2612"
    },
    {
      "channel": 0,
      "note": 73,
      "start": 67.1336,
      "duration": 0.0697,
      "velocity": 92,
      "chip": "ym2612"
    },
    {
      "channel": 1,
      "note": 61,
      "start": 67.135,
      "duration": 0.0688,
      "velocity": 90,
      "chip": "ym2612"
    },
    {
      "channel": 3,
      "note": 53,
      "start": 67.1362,
      "duration": 0.0683,
      "velocity": 91,
      "chip": "ym2612"
    },
    {
      "channel": 4,
      "note": 53,
      "start": 67.1374,
      "duration": 0.0816,
      "velocity": 97,
      "chip": "ym2612"
    },
    {
      "channel": 3,
      "note": 54,
      "start": 67.218,
      "duration": 0.0937,
      "velocity": 91,
      "chip": "ym2612"
    },
    {
      "channel": 4,
      "note": 54,
      "start": 67.2191,
      "duration": 0.1128,
      "velocity": 97,
      "chip": "ym2612"
    },
    {
      "channel": 0,
      "note": 73,
      "start": 67.3293,
      "duration": 0.0988,
      "velocity": 92,
      "chip": "ym2612"
    },
    {
      "channel": 1,
      "note": 61,
      "start": 67.3302,
      "duration": 0.0983,
      "velocity": 90,
      "chip": "ym2612"
    },
    {
      "channel": 3,
      "note": 56,
      "start": 67.3312,
      "duration": 0.0978,
      "velocity": 91,
      "chip": "ym2612"
    },
    {
      "channel": 4,
      "note": 56,
      "start": 67.3321,
      "duration": 0.1188,
      "velocity": 97,
      "chip": "ym2612"
    },
    {
      "channel": 0,
      "note": 73,
      "start": 67.4471,
      "duration": 0.07,
      "velocity": 92,
      "chip": "ym2612"
    },
    {
      "channel": 1,
      "note": 61,
      "start": 67.4485,
      "duration": 0.0691,
      "velocity": 90,
      "chip": "ym2612"
    },
    {
      "channel": 3,
      "note": 59,
      "start": 67.4499,
      "duration": 0.1767,
      "velocity": 91,
      "chip": "ym2612"
    },
    {
      "channel": 4,
      "note": 59,
      "start": 67.451,
      "duration": 0.1957,
      "velocity": 97,
      "chip": "ym2612"
    },
    {
      "channel": 0,
      "note": 73,
      "start": 67.5301,
      "duration": 0.0957,
      "velocity": 92,
      "chip": "ym2612"
    },
    {
      "channel": 1,
      "note": 61,
      "start": 67.5313,
      "duration": 0.0948,
      "velocity": 90,
      "chip": "ym2612"
    },
    {
      "channel": 3,
      "note": 51,
      "start": 67.6456,
      "duration": 0.0618,
      "velocity": 91,
      "chip": "ym2612"
    },
    {
      "channel": 4,
      "note": 51,
      "start": 67.6468,
      "duration": 0.0804,
      "velocity": 97,
      "chip": "ym2612"
    },
    {
      "channel": 0,
      "note": 73,
      "start": 67.7235,
      "duration": 0.0699,
      "velocity": 92,
      "chip": "ym2612"
    },
    {
      "channel": 1,
      "note": 61,
      "start": 67.7249,
      "duration": 0.0689,
      "velocity": 90,
      "chip": "ym2612"
    },
    {
      "channel": 3,
      "note": 63,
      "start": 67.7262,
      "duration": 0.0683,
      "velocity": 91,
      "chip": "ym2612"
    },
    {
      "channel": 4,
      "note": 63,
      "start": 67.7274,
      "duration": 0.0831,
      "velocity": 97,
      "chip": "ym2612"
    },
    {
      "channel": 0,
      "note": 73,
      "start": 67.8068,
      "duration": 0.078,
      "velocity": 92,
      "chip": "ym2612"
    },
    {
      "channel": 1,
      "note": 61,
      "start": 67.808,
      "duration": 0.0772,
      "velocity": 90,
      "chip": "ym2612"
    },
    {
      "channel": 3,
      "note": 47,
      "start": 67.8093,
      "duration": 0.1932,
      "velocity": 91,
      "chip": "ym2612"
    },
    {
      "channel": 4,
      "note": 47,
      "start": 67.8107,
      "duration": 0.221,
      "velocity": 97,
      "chip": "ym2612"
    },
    {
      "channel": 0,
      "note": 73,
      "start": 67.9026,
      "duration": 0.099,
      "velocity": 92,
      "chip": "ym2612"
    },
    {
      "channel": 1,
      "note": 61,
      "start": 67.9035,
      "duration": 0.0984,
      "velocity": 90,
      "chip": "ym2612"
    },
    {
      "channel": 3,
      "note": 49,
      "start": 68.0301,
      "duration": 0.2861,
      "velocity": 91,
      "chip": "ym2612"
    },
    {
      "channel": 4,
      "note": 49,
      "start": 68.0318,
      "duration": 0.304,
      "velocity": 97,
      "chip": "ym2612"
    },
    {
      "channel": 0,
      "note": 73,
      "start": 68.1036,
      "duration": 0.095,
      "velocity": 92,
      "chip": "ym2612"
    },
    {
      "channel": 1,
      "note": 61,
      "start": 68.1048,
      "duration": 0.0941,
      "velocity": 90,
      "chip": "ym2612"
    },
    {
      "channel": 0,
      "note": 73,
      "start": 68.2162,
      "duration": 0.0991,
      "velocity": 92,
      "chip": "ym2612"
    },
    {
      "channel": 1,
      "note": 61,
      "start": 68.2171,
      "duration": 0.0985,
      "velocity": 90,
      "chip": "ym2612"
    },
    {
      "channel": 0,
      "note": 73,
      "start": 68.3332,
      "duration": 0.0988,
      "velocity": 92,
      "chip": "ym2612"
    },
    {
      "channel": 1,
      "note": 61,
      "start": 68.334,
      "duration": 0.0983,
      "velocity": 90,
      "chip": "ym2612"
    },
    {
      "channel": 3,
      "note": 61,
      "start": 68.335,
      "duration": 0.0978,
      "velocity": 91,
      "chip": "ym2612"
    },
    {
      "channel": 4,
      "note": 61,
      "start": 68.3359,
      "duration": 0.1172,
      "velocity": 97,
      "chip": "ym2612"
    },
    {
      "channel": 3,
      "note": 49,
      "start": 68.4519,
      "duration": 0.0751,
      "velocity": 91,
      "chip": "ym2612"
    },
    {
      "channel": 4,
      "note": 49,
      "start": 68.4532,
      "duration": 0.0877,
      "velocity": 97,
      "chip": "ym2612"
    },
    {
      "channel": 0,
      "note": 73,
      "start": 68.5372,
      "duration": 0.0927,
      "velocity": 92,
      "chip": "ym2612"
    },
    {
      "channel": 1,
      "note": 61,
      "start": 68.5384,
      "duration": 0.092,
      "velocity": 90,
      "chip": "ym2612"
    },
    {
      "channel": 3,
      "note": 59,
      "start": 68.5398,
      "duration": 0.0911,
      "velocity": 91,
      "chip": "ym2612"
    },
    {
      "channel": 4,
      "note": 59,
      "start": 68.541,
      "duration": 0.1098,
      "velocity": 97,
      "chip": "ym2612"
    },
    {
      "channel": 0,
      "note": 73,
      "start": 68.648,
      "duration": 0.0987,
      "velocity": 92,
      "chip": "ym2612"
    },
    {
      "channel": 1,
      "note": 61,
      "start": 68.6489,
      "duration": 0.0981,
      "velocity": 90,
      "chip": "ym2612"
    },
    {
      "channel": 3,
      "note": 51,
      "start": 68.65,
      "duration": 0.1866,
      "velocity": 91,
      "chip": "ym2612"
    },
    {
      "channel": 4,
      "note": 51,
      "start": 68.651,
      "duration": 0.2001,
      "velocity": 97,
      "chip": "ym2612"
    },
    {
      "channel": 0,
      "note": 73,
      "start": 68.7651,
      "duration": 0.0702,
      "velocity": 92,
      "chip": "ym2612"
    },
    {
      "channel": 1,
      "note": 61,
      "start": 68.7666,
      "duration": 0.0693,
      "velocity": 90,
      "chip": "ym2612"
    },
    {
      "channel": 3,
      "note": 59,
      "start": 68.85,
      "duration": 0.0943,
      "velocity": 91,
      "chip": "ym2612"
    },
    {
      "channel": 4,
      "note": 59,
      "start": 68.8512,
      "duration": 0.1134,
      "velocity": 97,
      "chip": "ym2612"
    },
    {
      "channel": 0,
      "note": 73,
      "start": 68.9619,
      "duration": 0.0988,
      "velocity": 92,
      "chip": "ym2612"
    },
    {
      "channel": 1,
      "note": 61,
      "start": 68.9628,
      "duration": 0.0983,
      "velocity": 90,
      "chip": "ym2612"
    },
    {
      "channel": 3,
      "note": 53,
      "start": 68.9637,
      "duration": 0.0978,
      "velocity": 91,
      "chip": "ym2612"
    },
    {
      "channel": 4,
      "note": 53,
      "start": 68.9646,
      "duration": 0.1188,
      "velocity": 97,
      "chip": "ym2612"
    },
    {
      "channel": 0,
      "note": 73,
      "start": 69.0795,
      "duration": 0.0709,
      "velocity": 92,
      "chip": "ym2612"
    },
    {
      "channel": 1,
      "note": 61,
      "start": 69.081,
      "duration": 0.0699,
      "velocity": 90,
      "chip": "ym2612"
    },
    {
      "channel": 3,
      "note": 54,
      "start": 69.0824,
      "duration": 0.1774,
      "velocity": 91,
      "chip": "ym2612"
    },
    {
      "channel": 4,
      "note": 54,
      "start": 69.0835,
      "duration": 0.1963,
      "velocity": 97,
      "chip": "ym2612"
    },
    {
      "channel": 0,
      "note": 73,
      "start": 69.1633,
      "duration": 0.0956,
      "velocity": 92,
      "chip": "ym2612"
    },
    {
      "channel": 1,
      "note": 61,
      "start": 69.1645,
      "duration": 0.0947,
      "velocity": 90,
      "chip": "ym2612"
    },
    {
      "channel": 3,
      "note": 56,
      "start": 69.2788,
      "duration": 0.1464,
      "velocity": 91,
      "chip": "ym2612"
    },
    {
      "channel": 4,
      "note": 56,
      "start": 69.28,
      "duration": 0.1618,
      "velocity": 97,
      "chip": "ym2612"
    },
    {
      "channel": 0,
      "note": 73,
      "start": 69.3538,
      "duration": 0.0701,
      "velocity": 92,
      "chip": "ym2612"
    },
    {
      "channel": 1,
      "note": 61,
      "start": 69.3552,
      "duration": 0.0693,
      "velocity": 90,
      "chip": "ym2612"
    },
    {
      "channel": 0,
      "note": 73,
      "start": 69.4378,
      "duration": 0.0862,
      "velocity": 92,
      "chip": "ym2612"
    },
    {
      "channel": 1,
      "note": 61,
      "start": 69.4394,
      "duration": 0.085,
      "velocity": 90,
      "chip": "ym2612"
    },
    {
      "channel": 3,
      "note": 59,
      "start": 69.4408,
      "duration": 0.2008,
      "velocity": 91,
      "chip": "ym2612"
    },
    {
      "channel": 4,
      "note": 59,
      "start": 69.442,
      "duration": 0.2287,
      "velocity": 97,
      "chip": "ym2612"
    },
    {
      "channel": 0,
      "note": 73,
      "start": 69.5416,
      "duration": 0.099,
      "velocity": 92,
      "chip": "ym2612"
    },
    {
      "channel": 1,
      "note": 61,
      "start": 69.5426,
      "duration": 0.0985,
      "velocity": 90,
      "chip": "ym2612"
    },
    {
      "channel": 3,
      "note": 49,
      "start": 69.6692,
      "duration": 0.2856,
      "velocity": 91,
      "chip": "ym2612"
    },
    {
      "channel": 4,
      "note": 49,
      "start": 69.6708,
      "duration": 0.3037,
      "velocity": 97,
      "chip": "ym2612"
    },
    {
      "channel": 0,
      "note": 73,
      "start": 69.7422,
      "duration": 0.0951,
      "velocity": 92,
      "chip": "ym2612"
    },
    {
      "channel": 1,
      "note": 61,
      "start": 69.7434,
      "duration": 0.0942,
      "velocity": 90,
      "chip": "ym2612"
    },
    {
      "channel": 0,
      "note": 73,
      "start": 69.8549,
      "duration": 0.099,
      "velocity": 92,
      "chip": "ym2612"
    },
    {
      "channel": 1,
      "note": 61,
      "start": 69.8558,
      "duration": 0.0986,
      "velocity": 90,
      "chip": "ym2612"
    },
    {
      "channel": 0,
      "note": 73,
      "start": 69.9719,
      "duration": 0.0987,
      "velocity": 92,
      "chip": "ym2612"
    },
    {
      "channel": 1,
      "note": 61,
      "start": 69.9728,
      "duration": 0.0982,
      "velocity": 90,
      "chip": "ym2612"
    },
    {
      "channel": 3,
      "note": 61,
      "start": 69.9737,
      "duration": 0.0977,
      "velocity": 91,
      "chip": "ym2612"
    },
    {
      "channel": 4,
      "note": 61,
      "start": 69.9746,
      "duration": 0.1171,
      "velocity": 97,
      "chip": "ym2612"
    },
    {
      "channel": 3,
      "note": 49,
      "start": 70.0907,
      "duration": 0.0668,
      "velocity": 91,
      "chip": "ym2612"
    },
    {
      "channel": 4,
      "note": 49,
      "start": 70.0918,
      "duration": 0.0815,
      "velocity": 97,
      "chip": "ym2612"
    },
    {
      "channel": 0,
      "note": 73,
      "start": 70.1698,
      "duration": 0.0926,
      "velocity": 92,
      "chip": "ym2612"
    },
    {
      "channel": 1,
      "note": 61,
      "start": 70.171,
      "duration": 0.0917,
      "velocity": 90,
      "chip": "ym2612"
    },
    {
      "channel": 3,
      "note": 61,
      "start": 70.1723,
      "duration": 0.091,
      "velocity": 91,
      "chip": "ym2612"
    },
    {
      "channel": 4,
      "note": 61,
      "start": 70.1735,
      "duration": 0.1098,
      "velocity": 97,
      "chip": "ym2612"
    },
    {
      "channel": 0,
      "note": 73,
      "start": 70.2804,
      "duration": 0.0987,
      "velocity": 92,
      "chip": "ym2612"
    },
    {
      "channel": 1,
      "note": 61,
      "start": 70.2813,
      "duration": 0.0982,
      "velocity": 90,
      "chip": "ym2612"
    },
    {
      "channel": 3,
      "note": 47,
      "start": 70.2824,
      "duration": 0.1864,
      "velocity": 91,
      "chip": "ym2612"
    },
    {
      "channel": 4,
      "note": 47,
      "start": 70.2833,
      "duration": 0.2,
      "velocity": 97,
      "chip": "ym2612"
    },
    {
      "channel": 0,
      "note": 73,
      "start": 70.3976,
      "duration": 0.0699,
      "velocity": 92,
      "chip": "ym2612"
    },
    {
      "channel": 1,
      "note": 61,
      "start": 70.399,
      "duration": 0.0691,
      "velocity": 90,
      "chip": "ym2612"
    },
    {
      "channel": 3,
      "note": 51,
      "start": 70.4822,
      "duration": 0.0943,
      "velocity": 91,
      "chip": "ym2612"
    },
    {
      "channel": 4,
      "note": 51,
      "start": 70.4835,
      "duration": 0.1133,
      "velocity": 97,
      "chip": "ym2612"
    },
    {
      "channel": 0,
      "note": 73,
      "start": 70.5942,
      "duration": 0.0987,
      "velocity": 92,
      "chip": "ym2612"
    },
    {
      "channel": 1,
      "note": 61,
      "start": 70.5951,
      "duration": 0.0982,
      "velocity": 90,
      "chip": "ym2612"
    },
    {
      "channel": 3,
      "note": 63,
      "start": 70.5961,
      "duration": 0.0978,
      "velocity": 91,
      "chip": "ym2612"
    },
    {
      "channel": 4,
      "note": 63,
      "start": 70.5969,
      "duration": 0.1187,
      "velocity": 97,
      "chip": "ym2612"
    },
    {
      "channel": 0,
      "note": 73,
      "start": 70.7119,
      "duration": 0.0695,
      "velocity": 92,
      "chip": "ym2612"
    },
    {
      "channel": 1,
      "note": 61,
      "start": 70.7133,
      "duration": 0.0686,
      "velocity": 90,
      "chip": "ym2612"
    },
    {
      "channel": 3,
      "note": 53,
      "start": 70.7146,
      "duration": 0.068,
      "velocity": 91,
      "chip": "ym2612"
    },
    {
      "channel": 4,
      "note": 53,
      "start": 70.7158,
      "duration": 0.0824,
      "velocity": 97,
      "chip": "ym2612"
    },
    {
      "channel": 0,
      "note": 73,
      "start": 70.7946,
      "duration": 0.0948,
      "velocity": 92,
      "chip": "ym2612"
    },
    {
      "channel": 1,
      "note": 61,
      "start": 70.7958,
      "duration": 0.094,
      "velocity": 90,
      "chip": "ym2612"
    },
    {
      "channel": 3,
      "note": 49,
      "start": 70.7971,
      "duration": 0.0932,
      "velocity": 91,
      "chip": "ym2612"
    },
    {
      "channel": 4,
      "note": 49,
      "start": 70.7984,
      "duration": 0.112,
      "velocity": 97,
      "chip": "ym2612"
    },
    {
      "channel": 3,
      "note": 47,
      "start": 70.9093,
      "duration": 0.2489,
      "velocity": 91,
      "chip": "ym2612"
    },
    {
      "channel": 4,
      "note": 47,
      "start": 70.9105,
      "duration": 0.2677,
      "velocity": 97,
      "chip": "ym2612"
    },
    {
      "channel": 0,
      "note": 73,
      "start": 70.9916,
      "duration": 0.0693,
      "velocity": 92,
      "chip": "ym2612"
    },
    {
      "channel": 1,
      "note": 61,
      "start": 70.993,
      "duration": 0.0685,
      "velocity": 90,
      "chip": "ym2612"
    },
    {
      "channel": 0,
      "note": 73,
      "start": 71.0738,
      "duration": 0.0835,
      "velocity": 92,
      "chip": "ym2612"
    },
    {
      "channel": 1,
      "note": 61,
      "start": 71.075,
      "duration": 0.0828,
      "velocity": 90,
      "chip": "ym2612"
    },
    {
      "channel": 0,
      "note": 73,
      "start": 71.1753,
      "duration": 0.0987,
      "velocity": 92,
      "chip": "ym2612"
    },
    {
      "channel": 1,
      "note": 61,
      "start": 71.1763,
      "duration": 0.0982,
      "velocity": 90,
      "chip": "ym2612"
    },
    {
      "channel": 3,
      "note": 48,
      "start": 71.1773,
      "duration": 0.0976,
      "velocity": 91,
      "chip": "ym2612"
    },
    {
      "channel": 4,
      "note": 48,
      "start": 71.1783,
      "duration": 0.1256,
      "velocity": 97,
      "chip": "ym2612"
    },
    {
      "channel": 3,
      "note": 49,
      "start": 71.3024,
      "duration": 0.286,
      "velocity": 91,
      "chip": "ym2612"
    },
    {
      "channel": 4,
      "note": 49,
      "start": 71.3041,
      "duration": 0.3038,
      "velocity": 97,
      "chip": "ym2612"
    },
    {
      "channel": 0,
      "note": 73,
      "start": 71.3758,
      "duration": 0.0949,
      "velocity": 92,
      "chip": "ym2612"
    },
    {
      "channel": 1,
      "note": 61,
      "start": 71.377,
      "duration": 0.0941,
      "velocity": 90,
      "chip": "ym2612"
    },
    {
      "channel": 0,
      "note": 73,
      "start": 71.4884,
      "duration": 0.099,
      "velocity": 92,
      "chip": "ym2612"
    },
    {
      "channel": 1,
      "note": 61,
      "start": 71.4893,
      "duration": 0.0986,
      "velocity": 90,
      "chip": "ym2612"
    },
    {
      "channel": 0,
      "note": 73,
      "start": 71.6053,
      "duration": 0.0988,
      "velocity": 92,
      "chip": "ym2612"
    },
    {
      "channel": 1,
      "note": 61,
      "start": 71.6062,
      "duration": 0.0983,
      "velocity": 90,
      "chip": "ym2612"
    },
    {
      "channel": 3,
      "note": 61,
      "start": 71.6071,
      "duration": 0.0978,
      "velocity": 91,
      "chip": "ym2612"
    },
    {
      "channel": 4,
      "note": 61,
      "start": 71.608,
      "duration": 0.1171,
      "velocity": 97,
      "chip": "ym2612"
    },
    {
      "channel": 3,
      "note": 49,
      "start": 71.7242,
      "duration": 0.0668,
      "velocity": 91,
      "chip": "ym2612"
    },
    {
      "channel": 4,
      "note": 49,
      "start": 71.7253,
      "duration": 0.0815,
      "velocity": 97,
      "chip": "ym2612"
    },
    {
      "channel": 0,
      "note": 73,
      "start": 71.8032,
      "duration": 0.0926,
      "velocity": 92,
      "chip": "ym2612"
    },
    {
      "channel": 1,
      "note": 61,
      "start": 71.8045,
      "duration": 0.0918,
      "velocity": 90,
      "chip": "ym2612"
    },
    {
      "channel": 3,
      "note": 59,
      "start": 71.8058,
      "duration": 0.091,
      "velocity": 91,
      "chip": "ym2612"
    },
    {
      "channel": 4,
      "note": 59,
      "start": 71.807,
      "duration": 0.1098,
      "velocity": 97,
      "chip": "ym2612"
    },
    {
      "channel": 0,
      "note": 73,
      "start": 71.9138,
      "duration": 0.0987,
      "velocity": 92,
      "chip": "ym2612"
    },
    {
      "channel": 1,
      "note": 61,
      "start": 71.9148,
      "duration": 0.0982,
      "velocity": 90,
      "chip": "ym2612"
    },
    {
      "channel": 3,
      "note": 51,
      "start": 71.9159,
      "duration": 0.1863,
      "velocity": 91,
      "chip": "ym2612"
    },
    {
      "channel": 4,
      "note": 51,
      "start": 71.9168,
      "duration": 0.1998,
      "velocity": 97,
      "chip": "ym2612"
    },
    {
      "channel": 0,
      "note": 73,
      "start": 72.0311,
      "duration": 0.0698,
      "velocity": 92,
      "chip": "ym2612"
    },
    {
      "channel": 1,
      "note": 61,
      "start": 72.0325,
      "duration": 0.0689,
      "velocity": 90,
      "chip": "ym2612"
    },
    {
      "channel": 3,
      "note": 59,
      "start": 72.1154,
      "duration": 0.0944,
      "velocity": 91,
      "chip": "ym2612"
    },
    {
      "channel": 4,
      "note": 59,
      "start": 72.1168,
      "duration": 0.1134,
      "velocity": 97,
      "chip": "ym2612"
    },
    {
      "channel": 0,
      "note": 73,
      "start": 72.2276,
      "duration": 0.0987,
      "velocity": 92,
      "chip": "ym2612"
    },
    {
      "channel": 1,
      "note": 61,
      "start": 72.2284,
      "duration": 0.0983,
      "velocity": 90,
      "chip": "ym2612"
    },
    {
      "channel": 3,
      "note": 53,
      "start": 72.2293,
      "duration": 0.0978,
      "velocity": 91,
      "chip": "ym2612"
    },
    {
      "channel": 4,
      "note": 53,
      "start": 72.2302,
      "duration": 0.1188,
      "velocity": 97,
      "chip": "ym2612"
    },
    {
      "channel": 0,
      "note": 73,
      "start": 72.3451,
      "duration": 0.0707,
      "velocity": 92,
      "chip": "ym2612"
    },
    {
      "channel": 1,
      "note": 61,
      "start": 72.3466,
      "duration": 0.0697,
      "velocity": 90,
      "chip": "ym2612"
    },
    {
      "channel": 3,
      "note": 54,
      "start": 72.348,
      "duration": 0.177,
      "velocity": 91,
      "chip": "ym2612"
    },
    {
      "channel": 4,
      "note": 54,
      "start": 72.3491,
      "duration": 0.1961,
      "velocity": 97,
      "chip": "ym2612"
    },
    {
      "channel": 0,
      "note": 73,
      "start": 72.4287,
      "duration": 0.0954,
      "velocity": 92,
      "chip": "ym2612"
    },
    {
      "channel": 1,
      "note": 61,
      "start": 72.4299,
      "duration": 0.0946,
      "velocity": 90,
      "chip": "ym2612"
    },
    {
      "channel": 3,
      "note": 56,
      "start": 72.5441,
      "duration": 0.1593,
      "velocity": 91,
      "chip": "ym2612"
    },
    {
      "channel": 4,
      "note": 56,
      "start": 72.5454,
      "duration": 0.174,
      "velocity": 97,
      "chip": "ym2612"
    },
    {
      "channel": 0,
      "note": 73,
      "start": 72.632,
      "duration": 0.0702,
      "velocity": 92,
      "chip": "ym2612"
    },
    {
      "channel": 1,
      "note": 61,
      "start": 72.6335,
      "duration": 0.0692,
      "velocity": 90,
      "chip": "ym2612"
    },
    {
      "channel": 0,
      "note": 73,
      "start": 72.7158,
      "duration": 0.0837,
      "velocity": 92,
      "chip": "ym2612"
    },
    {
      "channel": 1,
      "note": 61,
      "start": 72.717,
      "duration": 0.083,
      "velocity": 90,
      "chip": "ym2612"
    },
    {
      "channel": 3,
      "note": 59,
      "start": 72.7184,
      "duration": 0.1988,
      "velocity": 91,
      "chip": "ym2612"
    },
    {
      "channel": 4,
      "note": 59,
      "start": 72.7196,
      "duration": 0.2267,
      "velocity": 97,
      "chip": "ym2612"
    },
    {
      "channel": 0,
      "note": 73,
      "start": 72.8172,
      "duration": 0.099,
      "velocity": 92,
      "chip": "ym2612"
    },
    {
      "channel": 1,
      "note": 61,
      "start": 72.8182,
      "duration": 0.0984,
      "velocity": 90,
      "chip": "ym2612"
    },
    {
      "channel": 3,
      "note": 49,
      "start": 72.9447,
      "duration": 0.2853,
      "velocity": 91,
      "chip": "ym2612"
    },
    {
      "channel": 4,
      "note": 49,
      "start": 72.9464,
      "duration": 0.3032,
      "velocity": 97,
      "chip": "ym2612"
    },
    {
      "channel": 0,
      "note": 73,
      "start": 73.0174,
      "duration": 0.0951,
      "velocity": 92,
      "chip": "ym2612"
    },
    {
      "channel": 1,
      "note": 61,
      "start": 73.0186,
      "duration": 0.0943,
      "velocity": 90,
      "chip": "ym2612"
    },
    {
      "channel": 0,
      "note": 73,
      "start": 73.1301,
      "duration": 0.099,
      "velocity": 92,
      "chip": "ym2612"
    },
    {
      "channel": 1,
      "note": 61,
      "start": 73.131,
      "duration": 0.0986,
      "velocity": 90,
      "chip": "ym2612"
    },
    {
      "channel": 0,
      "note": 73,
      "start": 73.247,
      "duration": 0.0988,
      "velocity": 92,
      "chip": "ym2612"
    },
    {
      "channel": 1,
      "note": 61,
      "start": 73.2479,
      "duration": 0.0983,
      "velocity": 90,
      "chip": "ym2612"
    },
    {
      "channel": 3,
      "note": 61,
      "start": 73.2488,
      "duration": 0.0978,
      "velocity": 91,
      "chip": "ym2612"
    },
    {
      "channel": 4,
      "note": 61,
      "start": 73.2497,
      "duration": 0.1171,
      "velocity": 97,
      "chip": "ym2612"
    },
    {
      "channel": 3,
      "note": 49,
      "start": 73.3657,
      "duration": 0.0618,
      "velocity": 91,
      "chip": "ym2612"
    },
    {
      "channel": 4,
      "note": 49,
      "start": 73.3669,
      "duration": 0.0797,
      "velocity": 97,
      "chip": "ym2612"
    },
    {
      "channel": 0,
      "note": 73,
      "start": 73.443,
      "duration": 0.0925,
      "velocity": 92,
      "chip": "ym2612"
    },
    {
      "channel": 1,
      "note": 61,
      "start": 73.4442,
      "duration": 0.0917,
      "velocity": 90,
      "chip": "ym2612"
    },
    {
      "channel": 3,
      "note": 59,
      "start": 73.4456,
      "duration": 0.0908,
      "velocity": 91,
      "chip": "ym2612"
    },
    {
      "channel": 4,
      "note": 59,
      "start": 73.4468,
      "duration": 0.1096,
      "velocity": 97,
      "chip": "ym2612"
    },
    {
      "channel": 0,
      "note": 73,
      "start": 73.5534,
      "duration": 0.0987,
      "velocity": 92,
      "chip": "ym2612"
    },
    {
      "channel": 1,
      "note": 61,
      "start": 73.5544,
      "duration": 0.0982,
      "velocity": 90,
      "chip": "ym2612"
    },
    {
      "channel": 3,
      "note": 51,
      "start": 73.5555,
      "duration": 0.0976,
      "velocity": 91,
      "chip": "ym2612"
    },
    {
      "channel": 4,
      "note": 51,
      "start": 73.5564,
      "duration": 0.1183,
      "velocity": 97,
      "chip": "ym2612"
    },
    {
      "channel": 0,
      "note": 73,
      "start": 73.671,
      "duration": 0.0699,
      "velocity": 92,
      "chip": "ym2612"
    },
    {
      "channel": 1,
      "note": 61,
      "start": 73.6724,
      "duration": 0.069,
      "velocity": 90,
      "chip": "ym2612"
    },
    {
      "channel": 3,
      "note": 59,
      "start": 73.6737,
      "duration": 0.0684,
      "velocity": 91,
      "chip": "ym2612"
    },
    {
      "channel": 4,
      "note": 59,
      "start": 73.6748,
      "duration": 0.0819,
      "velocity": 97,
      "chip": "ym2612"
    },
    {
      "channel": 3,
      "note": 53,
      "start": 73.7556,
      "duration": 0.0942,
      "velocity": 91,
      "chip": "ym2612"
    },
    {
      "channel": 4,
      "note": 53,
      "start": 73.7568,
      "duration": 0.1133,
      "velocity": 97,
      "chip": "ym2612"
    },
    {
      "channel": 0,
      "note": 73,
      "start": 73.8675,
      "duration": 0.0987,
      "velocity": 92,
      "chip": "ym2612"
    },
    {
      "channel": 1,
      "note": 61,
      "start": 73.8684,
      "duration": 0.0982,
      "velocity": 90,
      "chip": "ym2612"
    },
    {
      "channel": 3,
      "note": 58,
      "start": 73.8694,
      "duration": 0.0977,
      "velocity": 91,
      "chip": "ym2612"
    },
    {
      "channel": 4,
      "note": 58,
      "start": 73.8702,
      "duration": 0.1186,
      "velocity": 97,
      "chip": "ym2612"
    },
    {
      "channel": 0,
      "note": 73,
      "start": 73.9853,
      "duration": 0.0699,
      "velocity": 92,
      "chip": "ym2612"
    },
    {
      "channel": 1,
      "note": 61,
      "start": 73.9866,
      "duration": 0.0691,
      "velocity": 90,
      "chip": "ym2612"
    },
    {
      "channel": 3,
      "note": 54,
      "start": 73.9879,
      "duration": 0.1767,
      "velocity": 91,
      "chip": "ym2612"
    },
    {
      "channel": 4,
      "note": 54,
      "start": 73.989,
      "duration": 0.1958,
      "velocity": 97,
      "chip": "ym2612"
    },
    {
      "channel": 0,
      "note": 73,
      "start": 74.0681,
      "duration": 0.0956,
      "velocity": 92,
      "chip": "ym2612"
    },
    {
      "channel": 1,
      "note": 61,
      "start": 74.0693,
      "duration": 0.0947,
      "velocity": 90,
      "chip": "ym2612"
    },
    {
      "channel": 3,
      "note": 59,
      "start": 74.1838,
      "duration": 0.0669,
      "velocity": 91,
      "chip": "ym2612"
    },
    {
      "channel": 4,
      "note": 59,
      "start": 74.1849,
      "duration": 0.0828,
      "velocity": 97,
      "chip": "ym2612"
    },
    {
      "channel": 0,
      "note": 73,
      "start": 74.2639,
      "duration": 0.0703,
      "velocity": 92,
      "chip": "ym2612"
    },
    {
      "channel": 1,
      "note": 61,
      "start": 74.2653,
      "duration": 0.0695,
      "velocity": 90,
      "chip": "ym2612"
    },
    {
      "channel": 3,
      "note": 56,
      "start": 74.2666,
      "duration": 0.0689,
      "velocity": 91,
      "chip": "ym2612"
    },
    {
      "channel": 4,
      "note": 56,
      "start": 74.2679,
      "duration": 0.0834,
      "velocity": 97,
      "chip": "ym2612"
    },
    {
      "channel": 0,
      "note": 73,
      "start": 74.3477,
      "duration": 0.0859,
      "velocity": 92,
      "chip": "ym2612"
    },
    {
      "channel": 1,
      "note": 61,
      "start": 74.349,
      "duration": 0.085,
      "velocity": 90,
      "chip": "ym2612"
    },
    {
      "channel": 3,
      "note": 47,
      "start": 74.3503,
      "duration": 0.2009,
      "velocity": 91,
      "chip": "ym2612"
    },
    {
      "channel": 4,
      "note": 47,
      "start": 74.3515,
      "duration": 0.2288,
      "velocity": 97,
      "chip": "ym2612"
    },
    {
      "channel": 0,
      "note": 73,
      "start": 74.4512,
      "duration": 0.099,
      "velocity": 92,
      "chip": "ym2612"
    },
    {
      "channel": 1,
      "note": 61,
      "start": 74.4522,
      "duration": 0.0985,
      "velocity": 90,
      "chip": "ym2612"
    },
    {
      "channel": 3,
      "note": 49,
      "start": 74.5787,
      "duration": 0.2858,
      "velocity": 91,
      "chip": "ym2612"
    },
    {
      "channel": 4,
      "note": 49,
      "start": 74.5804,
      "duration": 0.3037,
      "velocity": 97,
      "chip": "ym2612"
    },
    {
      "channel": 0,
      "note": 73,
      "start": 74.6518,
      "duration": 0.0951,
      "velocity": 92,
      "chip": "ym2612"
    },
    {
      "channel": 1,
      "note": 61,
      "start": 74.653,
      "duration": 0.0942,
      "velocity": 90,
      "chip": "ym2612"
    },
    {
      "channel": 0,
      "note": 73,
      "start": 74.7645,
      "duration": 0.0992,
      "velocity": 92,
      "chip": "ym2612"
    },
    {
      "channel": 1,
      "note": 61,
      "start": 74.7654,
      "duration": 0.0987,
      "velocity": 90,
      "chip": "ym2612"
    },
    {
      "channel": 0,
      "note": 73,
      "start": 74.8815,
      "duration": 0.0988,
      "velocity": 92,
      "chip": "ym2612"
    },
    {
      "channel": 1,
      "note": 61,
      "start": 74.8823,
      "duration": 0.0983,
      "velocity": 90,
      "chip": "ym2612"
    },
    {
      "channel": 3,
      "note": 61,
      "start": 74.8833,
      "duration": 0.0978,
      "velocity": 91,
      "chip": "ym2612"
    },
    {
      "channel": 4,
      "note": 61,
      "start": 74.8841,
      "duration": 0.1171,
      "velocity": 97,
      "chip": "ym2612"
    },
    {
      "channel": 3,
      "note": 49,
      "start": 75.0001,
      "duration": 0.0618,
      "velocity": 91,
      "chip": "ym2612"
    },
    {
      "channel": 4,
      "note": 49,
      "start": 75.0013,
      "duration": 0.0797,
      "velocity": 97,
      "chip": "ym2612"
    },
    {
      "channel": 0,
      "note": 73,
      "start": 75.0774,
      "duration": 0.0925,
      "velocity": 92,
      "chip": "ym2612"
    },
    {
      "channel": 1,
      "note": 61,
      "start": 75.0786,
      "duration": 0.0917,
      "velocity": 90,
      "chip": "ym2612"
    },
    {
      "channel": 3,
      "note": 59,
      "start": 75.08,
      "duration": 0.0908,
      "velocity": 91,
      "chip": "ym2612"
    },
    {
      "channel": 4,
      "note": 59,
      "start": 75.0812,
      "duration": 0.1096,
      "velocity": 97,
      "chip": "ym2612"
    },
    {
      "channel": 0,
      "note": 73,
      "start": 75.188,
      "duration": 0.0986,
      "velocity": 92,
      "chip": "ym2612"
    },
    {
      "channel": 1,
      "note": 61,
      "start": 75.1889,
      "duration": 0.0981,
      "velocity": 90,
      "chip": "ym2612"
    },
    {
      "channel": 3,
      "note": 51,
      "start": 75.1899,
      "duration": 0.1863,
      "velocity": 91,
      "chip": "ym2612"
    },
    {
      "channel": 4,
      "note": 51,
      "start": 75.191,
      "duration": 0.1996,
      "velocity": 97,
      "chip": "ym2612"
    },
    {
      "channel": 0,
      "note": 73,
      "start": 75.3051,
      "duration": 0.0699,
      "velocity": 92,
      "chip": "ym2612"
    },
    {
      "channel": 1,
      "note": 61,
      "start": 75.3066,
      "duration": 0.069,
      "velocity": 90,
      "chip": "ym2612"
    },
    {
      "channel": 3,
      "note": 59,
      "start": 75.3895,
      "duration": 0.0943,
      "velocity": 91,
      "chip": "ym2612"
    },
    {
      "channel": 4,
      "note": 59,
      "start": 75.3907,
      "duration": 0.1133,
      "velocity": 97,
      "chip": "ym2612"
    },
    {
      "channel": 0,
      "note": 73,
      "start": 75.5015,
      "duration": 0.0988,
      "velocity": 92,
      "chip": "ym2612"
    },
    {
      "channel": 1,
      "note": 61,
      "start": 75.5023,
      "duration": 0.0983,
      "velocity": 90,
      "chip": "ym2612"
    },
    {
      "channel": 3,
      "note": 53,
      "start": 75.5033,
      "duration": 0.0978,
      "velocity": 91,
      "chip": "ym2612"
    },
    {
      "channel": 4,
      "note": 53,
      "start": 75.5042,
      "duration": 0.1188,
      "velocity": 97,
      "chip": "ym2612"
    },
    {
      "channel": 0,
      "note": 73,
      "start": 75.6191,
      "duration": 0.07,
      "velocity": 92,
      "chip": "ym2612"
    },
    {
      "channel": 1,
      "note": 61,
      "start": 75.6205,
      "duration": 0.0691,
      "velocity": 90,
      "chip": "ym2612"
    },
    {
      "channel": 3,
      "note": 54,
      "start": 75.622,
      "duration": 0.1764,
      "velocity": 91,
      "chip": "ym2612"
    },
    {
      "channel": 4,
      "note": 54,
      "start": 75.6231,
      "duration": 0.1955,
      "velocity": 97,
      "chip": "ym2612"
    },
    {
      "channel": 0,
      "note": 73,
      "start": 75.702,
      "duration": 0.0955,
      "velocity": 92,
      "chip": "ym2612"
    },
    {
      "channel": 1,
      "note": 61,
      "start": 75.7032,
      "duration": 0.0946,
      "velocity": 90,
      "chip": "ym2612"
    },
    {
      "channel": 3,
      "note": 56,
      "start": 75.8174,
      "duration": 0.1602,
      "velocity": 91,
      "chip": "ym2612"
    },
    {
      "channel": 4,
      "note": 56,
      "start": 75.8188,
      "duration": 0.1749,
      "velocity": 97,
      "chip": "ym2612"
    },
    {
      "channel": 0,
      "note": 73,
      "start": 75.9054,
      "duration": 0.071,
      "velocity": 92,
      "chip": "ym2612"
    },
    {
      "channel": 1,
      "note": 61,
      "start": 75.9068,
      "duration": 0.07,
      "velocity": 90,
      "chip": "ym2612"
    },
    {
      "channel": 0,
      "note": 73,
      "start": 75.9901,
      "duration": 0.0821,
      "velocity": 92,
      "chip": "ym2612"
    },
    {
      "channel": 1,
      "note": 61,
      "start": 75.9913,
      "duration": 0.0813,
      "velocity": 90,
      "chip": "ym2612"
    },
    {
      "channel": 3,
      "note": 59,
      "start": 75.9926,
      "duration": 0.1972,
      "velocity": 91,
      "chip": "ym2612"
    },
    {
      "channel": 4,
      "note": 59,
      "start": 75.9938,
      "duration": 0.2252,
      "velocity": 97,
      "chip": "ym2612"
    },
    {
      "channel": 0,
      "note": 73,
      "start": 76.0899,
      "duration": 0.099,
      "velocity": 92,
      "chip": "ym2612"
    },
    {
      "channel": 1,
      "note": 61,
      "start": 76.0909,
      "duration": 0.0984,
      "velocity": 90,
      "chip": "ym2612"
    },
    {
      "channel": 3,
      "note": 49,
      "start": 76.2174,
      "duration": 0.2863,
      "velocity": 91,
      "chip": "ym2612"
    },
    {
      "channel": 4,
      "note": 49,
      "start": 76.2191,
      "duration": 0.3043,
      "velocity": 97,
      "chip": "ym2612"
    },
    {
      "channel": 0,
      "note": 73,
      "start": 76.291,
      "duration": 0.0951,
      "velocity": 92,
      "chip": "ym2612"
    },
    {
      "channel": 1,
      "note": 61,
      "start": 76.2922,
      "duration": 0.0943,
      "velocity": 90,
      "chip": "ym2612"
    },
    {
      "channel": 0,
      "note": 73,
      "start": 76.4038,
      "duration": 0.099,
      "velocity": 92,
      "chip": "ym2612"
    },
    {
      "channel": 1,
      "note": 61,
      "start": 76.4047,
      "duration": 0.0985,
      "velocity": 90,
      "chip": "ym2612"
    },
    {
      "channel": 0,
      "note": 73,
      "start": 76.5207,
      "duration": 0.0988,
      "velocity": 92,
      "chip": "ym2612"
    },
    {
      "channel": 1,
      "note": 61,
      "start": 76.5216,
      "duration": 0.0983,
      "velocity": 90,
      "chip": "ym2612"
    },
    {
      "channel": 3,
      "note": 61,
      "start": 76.5226,
      "duration": 0.0978,
      "velocity": 91,
      "chip": "ym2612"
    },
    {
      "channel": 4,
      "note": 61,
      "start": 76.5234,
      "duration": 0.1157,
      "velocity": 97,
      "chip": "ym2612"
    },
    {
      "channel": 3,
      "note": 51,
      "start": 76.6384,
      "duration": 0.098,
      "velocity": 91,
      "chip": "ym2612"
    },
    {
      "channel": 4,
      "note": 51,
      "start": 76.6392,
      "duration": 0.1174,
      "velocity": 97,
      "chip": "ym2612"
    },
    {
      "channel": 0,
      "note": 73,
      "start": 76.7541,
      "duration": 0.0988,
      "velocity": 92,
      "chip": "ym2612"
    },
    {
      "channel": 1,
      "note": 61,
      "start": 76.7549,
      "duration": 0.0983,
      "velocity": 90,
      "chip": "ym2612"
    },
    {
      "channel": 3,
      "note": 59,
      "start": 76.7559,
      "duration": 0.0978,
      "velocity": 91,
      "chip": "ym2612"
    },
    {
      "channel": 4,
      "note": 59,
      "start": 76.7568,
      "duration": 0.1166,
      "velocity": 97,
      "chip": "ym2612"
    },
    {
      "channel": 0,
      "note": 73,
      "start": 76.8708,
      "duration": 0.0987,
      "velocity": 92,
      "chip": "ym2612"
    },
    {
      "channel": 1,
      "note": 61,
      "start": 76.8716,
      "duration": 0.0983,
      "velocity": 90,
      "chip": "ym2612"
    },
    {
      "channel": 3,
      "note": 53,
      "start": 76.8726,
      "duration": 0.0978,
      "velocity": 91,
      "chip": "ym2612"
    },
    {
      "channel": 4,
      "note": 53,
      "start": 76.8734,
      "duration": 0.1189,
      "velocity": 97,
      "chip": "ym2612"
    },
    {
      "channel": 0,
      "note": 73,
      "start": 76.9885,
      "duration": 0.0703,
      "velocity": 92,
      "chip": "ym2612"
    },
    {
      "channel": 1,
      "note": 61,
      "start": 76.9899,
      "duration": 0.0694,
      "velocity": 90,
      "chip": "ym2612"
    },
    {
      "channel": 3,
      "note": 58,
      "start": 76.9912,
      "duration": 0.0688,
      "velocity": 91,
      "chip": "ym2612"
    },
    {
      "channel": 4,
      "note": 58,
      "start": 76.9925,
      "duration": 0.0833,
      "velocity": 97,
      "chip": "ym2612"
    },
    {
      "channel": 2,
      "note": 85,
      "start": 77.0735,
      "duration": 0.0275,
      "velocity": 102,
      "chip": "ym2612"
    },
    {
      "channel": 3,
      "note": 54,
      "start": 77.0748,
      "duration": 0.0932,
      "velocity": 91,
      "chip": "ym2612"
    },
    {
      "channel": 4,
      "note": 54,
      "start": 77.0759,
      "duration": 0.113,
      "velocity": 97,
      "chip": "ym2612"
    },
    {
      "channel": 2,
      "note": 83,
      "start": 77.1183,
      "duration": 0.0494,
      "velocity": 102,
      "chip": "ym2612"
    },
    {
      "channel": 0,
      "note": 73,
      "start": 77.1856,
      "duration": 0.0986,
      "velocity": 92,
      "chip": "ym2612"
    },
    {
      "channel": 1,
      "note": 61,
      "start": 77.1865,
      "duration": 0.0981,
      "velocity": 90,
      "chip": "ym2612"
    },
    {
      "channel": 2,
      "note": 82,
      "start": 77.1873,
      "duration": 0.0308,
      "velocity": 102,
      "chip": "ym2612"
    },
    {
      "channel": 3,
      "note": 59,
      "start": 77.1882,
      "duration": 0.0971,
      "velocity": 91,
      "chip": "ym2612"
    },
    {
      "channel": 4,
      "note": 59,
      "start": 77.1891,
      "duration": 0.1191,
      "velocity": 97,
      "chip": "ym2612"
    },
    {
      "channel": 2,
      "note": 80,
      "start": 77.2353,
      "duration": 0.0496,
      "velocity": 102,
      "chip": "ym2612"
    },
    {
      "channel": 0,
      "note": 73,
      "start": 77.3033,
      "duration": 0.0703,
      "velocity": 92,
      "chip": "ym2612"
    },
    {
      "channel": 1,
      "note": 61,
      "start": 77.3046,
      "duration": 0.0694,
      "velocity": 90,
      "chip": "ym2612"
    },
    {
      "channel": 2,
      "note": 78,
      "start": 77.3059,
      "duration": 0.0215,
      "velocity": 102,
      "chip": "ym2612"
    },
    {
      "channel": 3,
      "note": 55,
      "start": 77.3071,
      "duration": 0.068,
      "velocity": 91,
      "chip": "ym2612"
    },
    {
      "channel": 4,
      "note": 55,
      "start": 77.3083,
      "duration": 0.0831,
      "velocity": 97,
      "chip": "ym2612"
    },
    {
      "channel": 2,
      "note": 77,
      "start": 77.3399,
      "duration": 0.0347,
      "velocity": 102,
      "chip": "ym2612"
    },
    {
      "channel": 0,
      "note": 73,
      "start": 77.3868,
      "duration": 0.0947,
      "velocity": 92,
      "chip": "ym2612"
    },
    {
      "channel": 1,
      "note": 61,
      "start": 77.388,
      "duration": 0.0939,
      "velocity": 90,
      "chip": "ym2612"
    },
    {
      "channel": 2,
      "note": 75,
      "start": 77.3892,
      "duration": 0.0262,
      "velocity": 102,
      "chip": "ym2612"
    },
    {
      "channel": 3,
      "note": 56,
      "start": 77.3904,
      "duration": 0.0922,
      "velocity": 91,
      "chip": "ym2612"
    },
    {
      "channel": 4,
      "note": 56,
      "start": 77.3915,
      "duration": 0.1121,
      "velocity": 97,
      "chip": "ym2612"
    },
    {
      "channel": 2,
      "note": 73,
      "start": 77.4326,
      "duration": 0.0496,
      "velocity": 102,
      "chip": "ym2612"
    },
    {
      "channel": 2,
      "note": 71,
      "start": 77.5014,
      "duration": 0.0225,
      "velocity": 102,
      "chip": "ym2612"
    },
    {
      "channel": 3,
      "note": 58,
      "start": 77.5026,
      "duration": 0.1559,
      "velocity": 91,
      "chip": "ym2612"
    },
    {
      "channel": 4,
      "note": 58,
      "start": 77.5038,
      "duration": 0.1734,
      "velocity": 97,
      "chip": "ym2612"
    },
    {
      "channel": 2,
      "note": 70,
      "start": 77.5387,
      "duration": 0.0338,
      "velocity": 102,
      "chip": "ym2612"
    },
    {
      "channel": 0,
      "note": 73,
      "start": 77.5855,
      "duration": 0.0713,
      "velocity": 92,
      "chip": "ym2612"
    },
    {
      "channel": 1,
      "note": 61,
      "start": 77.5867,
      "duration": 0.0706,
      "velocity": 90,
      "chip": "ym2612"
    },
    {
      "channel": 2,
      "note": 68,
      "start": 77.5879,
      "duration": 0.0219,
      "velocity": 102,
      "chip": "ym2612"
    },
    {
      "channel": 2,
      "note": 66,
      "start": 77.6227,
      "duration": 0.0351,
      "velocity": 102,
      "chip": "ym2612"
    },
    {
      "channel": 0,
      "note": 73,
      "start": 77.6724,
      "duration": 0.0642,
      "velocity": 92,
      "chip": "ym2612"
    },
    {
      "channel": 1,
      "note": 61,
      "start": 77.6736,
      "duration": 0.0635,
      "velocity": 90,
      "chip": "ym2612"
    },
    {
      "channel": 2,
      "note": 65,
      "start": 77.6748,
      "duration": 0.0211,
      "velocity": 102,
      "chip": "ym2612"
    },
    {
      "channel": 3,
      "note": 47,
      "start": 77.676,
      "duration": 0.1446,
      "velocity": 91,
      "chip": "ym2612"
    },
    {
      "channel": 4,
      "note": 47,
      "start": 77.6773,
      "duration": 0.1757,
      "velocity": 91,
      "chip": "ym2612"
    },
    {
      "channel": 2,
      "note": 63,
      "start": 77.7062,
      "duration": 0.0313,
      "velocity": 102,
      "chip": "ym2612"
    },
    {
      "channel": 0,
      "note": 73,
      "start": 77.7495,
      "duration": 0.0694,
      "velocity": 92,
      "chip": "ym2612"
    },
    {
      "channel": 1,
      "note": 61,
      "start": 77.7507,
      "duration": 0.0688,
      "velocity": 90,
      "chip": "ym2612"
    },
    {
      "channel": 2,
      "note": 61,
      "start": 77.7519,
      "duration": 0.0682,
      "velocity": 102,
      "chip": "ym2612"
    },
    {
      "channel": 1,
      "note": 71,
      "start": 77.842,
      "duration": 0.0635,
      "velocity": 91,
      "chip": "ym2612"
    },
    {
      "channel": 2,
      "note": 90,
      "start": 77.8432,
      "duration": 1.1632,
      "velocity": 102,
      "chip": "ym2612"
    },
    {
      "channel": 3,
      "note": 71,
      "start": 77.8487,
      "duration": 0.0577,
      "velocity": 102,
      "chip": "ym2612"
    },
    {
      "channel": 4,
      "note": 61,
      "start": 77.8531,
      "duration": 0.1746,
      "velocity": 91,
      "chip": "ym2612"
    },
    {
      "channel": 1,
      "note": 71,
      "start": 77.9189,
      "duration": 0.0861,
      "velocity": 91,
      "chip": "ym2612"
    },
    {
      "channel": 3,
      "note": 71,
      "start": 77.9205,
      "duration": 0.0853,
      "velocity": 102,
      "chip": "ym2612"
    },
    {
      "channel": 0,
      "note": 90,
      "start": 78.0237,
      "duration": 1.1669,
      "velocity": 102,
      "chip": "ym2612"
    },
    {
      "channel": 1,
      "note": 70,
      "start": 78.0249,
      "duration": 0.1959,
      "velocity": 91,
      "chip": "ym2612"
    },
    {
      "channel": 3,
      "note": 70,
      "start": 78.0266,
      "duration": 0.1951,
      "velocity": 102,
      "chip": "ym2612"
    },
    {
      "channel": 4,
      "note": 73,
      "start": 78.0278,
      "duration": 0.2141,
      "velocity": 91,
      "chip": "ym2612"
    },
    {
      "channel": 1,
      "note": 71,
      "start": 78.2394,
      "duration": 0.1682,
      "velocity": 91,
      "chip": "ym2612"
    },
    {
      "channel": 3,
      "note": 71,
      "start": 78.2409,
      "duration": 0.1674,
      "velocity": 102,
      "chip": "ym2612"
    },
    {
      "channel": 4,
      "note": 61,
      "start": 78.2421,
      "duration": 0.0778,
      "velocity": 91,
      "chip": "ym2612"
    },
    {
      "channel": 4,
      "note": 73,
      "start": 78.32,
      "duration": 0.1088,
      "velocity": 91,
      "chip": "ym2612"
    },
    {
      "channel": 1,
      "note": 70,
      "start": 78.4264,
      "duration": 0.1779,
      "velocity": 91,
      "chip": "ym2612"
    },
    {
      "channel": 3,
      "note": 70,
      "start": 78.4278,
      "duration": 0.1774,
      "velocity": 102,
      "chip": "ym2612"
    },
    {
      "channel": 4,
      "note": 56,
      "start": 78.429,
      "duration": 0.1921,
      "velocity": 91,
      "chip": "ym2612"
    },
    {
      "channel": 1,
      "note": 73,
      "start": 78.6185,
      "duration": 0.2789,
      "velocity": 91,
      "chip": "ym2612"
    },
    {
      "channel": 3,
      "note": 73,
      "start": 78.6201,
      "duration": 0.278,
      "velocity": 102,
      "chip": "ym2612"
    },
    {
      "channel": 4,
      "note": 59,
      "start": 78.6212,
      "duration": 0.1048,
      "velocity": 91,
      "chip": "ym2612"
    },
    {
      "channel": 4,
      "note": 71,
      "start": 78.7261,
      "duration": 0.0839,
      "velocity": 91,
      "chip": "ym2612"
    },
    {
      "channel": 4,
      "note": 58,
      "start": 78.8102,
      "duration": 0.1085,
      "velocity": 91,
      "chip": "ym2612"
    },
    {
      "channel": 1,
      "note": 71,
      "start": 78.9161,
      "duration": 0.09,
      "velocity": 91,
      "chip": "ym2612"
    },
    {
      "channel": 3,
      "note": 71,
      "start": 78.9177,
      "duration": 0.0892,
      "velocity": 102,
      "chip": "ym2612"
    },
    {
      "channel": 4,
      "note": 70,
      "start": 78.9188,
      "duration": 0.1081,
      "velocity": 91,
      "chip": "ym2612"
    },
    {
      "channel": 2,
      "note": 89,
      "start": 79.0252,
      "duration": 0.3839,
      "velocity": 102,
      "chip": "ym2612"
    },
    {
      "channel": 4,
      "note": 59,
      "start": 79.0271,
      "duration": 0.0781,
      "velocity": 91,
      "chip": "ym2612"
    },
    {
      "channel": 4,
      "note": 71,
      "start": 79.1053,
      "duration": 0.1083,
      "velocity": 91,
      "chip": "ym2612"
    },
    {
      "channel": 0,
      "note": 89,
      "start": 79.2097,
      "duration": 0.3854,
      "velocity": 102,
      "chip": "ym2612"
    },
    {
      "channel": 1,
      "note": 68,
      "start": 79.2109,
      "duration": 0.0869,
      "velocity": 91,
      "chip": "ym2612"
    },
    {
      "channel": 3,
      "note": 68,
      "start": 79.2125,
      "duration": 0.0861,
      "velocity": 102,
      "chip": "ym2612"
    },
    {
      "channel": 4,
      "note": 56,
      "start": 79.2137,
      "duration": 0.2219,
      "velocity": 91,
      "chip": "ym2612"
    },
    {
      "channel": 1,
      "note": 70,
      "start": 79.3164,
      "duration": 0.0922,
      "velocity": 91,
      "chip": "ym2612"
    },
    {
      "channel": 3,
      "note": 70,
      "start": 79.3179,
      "duration": 0.0915,
      "velocity": 102,
      "chip": "ym2612"
    },
    {
      "channel": 1,
      "note": 71,
      "start": 79.4284,
      "duration": 0.0689,
      "velocity": 91,
      "chip": "ym2612"
    },
    {
      "channel": 2,
      "note": 87,
      "start": 79.4297,
      "duration": 0.2706,
      "velocity": 102,
      "chip": "ym2612"
    },
    {
      "channel": 3,
      "note": 71,
      "start": 79.4308,
      "duration": 0.0675,
      "velocity": 102,
      "chip": "ym2612"
    },
    {
      "channel": 4,
      "note": 61,
      "start": 79.4358,
      "duration": 0.182,
      "velocity": 91,
      "chip": "ym2612"
    },
    {
      "channel": 1,
      "note": 71,
      "start": 79.5107,
      "duration": 0.0848,
      "velocity": 91,
      "chip": "ym2612"
    },
    {
      "channel": 3,
      "note": 71,
      "start": 79.5122,
      "duration": 0.084,
      "velocity": 102,
      "chip": "ym2612"
    },
    {
      "channel": 0,
      "note": 87,
      "start": 79.6139,
      "duration": 0.2815,
      "velocity": 102,
      "chip": "ym2612"
    },
    {
      "channel": 1,
      "note": 70,
      "start": 79.6151,
      "duration": 0.1936,
      "velocity": 91,
      "chip": "ym2612"
    },
    {
      "channel": 3,
      "note": 70,
      "start": 79.6167,
      "duration": 0.1928,
      "velocity": 102,
      "chip": "ym2612"
    },
    {
      "channel": 4,
      "note": 73,
      "start": 79.618,
      "duration": 0.212,
      "velocity": 91,
      "chip": "ym2612"
    },
    {
      "channel": 2,
      "note": 89,
      "start": 79.7188,
      "duration": 0.4932,
      "velocity": 102,
      "chip": "ym2612"
    },
    {
      "channel": 1,
      "note": 71,
      "start": 79.8273,
      "duration": 0.1722,
      "velocity": 91,
      "chip": "ym2612"
    },
    {
      "channel": 3,
      "note": 71,
      "start": 79.8288,
      "duration": 0.1713,
      "velocity": 102,
      "chip": "ym2612"
    },
    {
      "channel": 4,
      "note": 61,
      "start": 79.8301,
      "duration": 0.081,
      "velocity": 91,
      "chip": "ym2612"
    },
    {
      "channel": 0,
      "note": 89,
      "start": 79.9089,
      "duration": 0.4954,
      "velocity": 102,
      "chip": "ym2612"
    },
    {
      "channel": 4,
      "note": 73,
      "start": 79.9113,
      "duration": 0.1098,
      "velocity": 91,
      "chip": "ym2612"
    },
    {
      "channel": 1,
      "note": 70,
      "start": 80.0184,
      "duration": 0.1932,
      "velocity": 91,
      "chip": "ym2612"
    },
    {
      "channel": 3,
      "note": 70,
      "start": 80.02,
      "duration": 0.1924,
      "velocity": 102,
      "chip": "ym2612"
    },
    {
      "channel": 4,
      "note": 56,
      "start": 80.0212,
      "duration": 0.1052,
      "velocity": 91,
      "chip": "ym2612"
    },
    {
      "channel": 4,
      "note": 68,
      "start": 80.1266,
      "duration": 0.1068,
      "velocity": 91,
      "chip": "ym2612"
    },
    {
      "channel": 1,
      "note": 71,
      "start": 80.2303,
      "duration": 0.2741,
      "velocity": 91,
      "chip": "ym2612"
    },
    {
      "channel": 3,
      "note": 71,
      "start": 80.2322,
      "duration": 0.2728,
      "velocity": 102,
      "chip": "ym2612"
    },
    {
      "channel": 4,
      "note": 59,
      "start": 80.2335,
      "duration": 0.1023,
      "velocity": 91,
      "chip": "ym2612"
    },
    {
      "channel": 4,
      "note": 71,
      "start": 80.3359,
      "duration": 0.0833,
      "velocity": 91,
      "chip": "ym2612"
    },
    {
      "channel": 4,
      "note": 58,
      "start": 80.4193,
      "duration": 0.1063,
      "velocity": 91,
      "chip": "ym2612"
    },
    {
      "channel": 1,
      "note": 73,
      "start": 80.5231,
      "duration": 0.0702,
      "velocity": 91,
      "chip": "ym2612"
    },
    {
      "channel": 3,
      "note": 73,
      "start": 80.5246,
      "duration": 0.0693,
      "velocity": 102,
      "chip": "ym2612"
    },
    {
      "channel": 4,
      "note": 70,
      "start": 80.5258,
      "duration": 0.0816,
      "velocity": 91,
      "chip": "ym2612"
    },
    {
      "channel": 4,
      "note": 59,
      "start": 80.6075,
      "duration": 0.0847,
      "velocity": 91,
      "chip": "ym2612"
    },
    {
      "channel": 4,
      "note": 71,
      "start": 80.6924,
      "duration": 0.1045,
      "velocity": 91,
      "chip": "ym2612"
    },
    {
      "channel": 1,
      "note": 68,
      "start": 80.7944,
      "duration": 0.0905,
      "velocity": 91,
      "chip": "ym2612"
    },
    {
      "channel": 3,
      "note": 68,
      "start": 80.7957,
      "duration": 0.0897,
      "velocity": 102,
      "chip": "ym2612"
    },
    {
      "channel": 4,
      "note": 60,
      "start": 80.797,
      "duration": 0.1091,
      "velocity": 91,
      "chip": "ym2612"
    },
    {
      "channel": 1,
      "note": 70,
      "start": 80.9036,
      "duration": 0.0859,
      "velocity": 91,
      "chip": "ym2612"
    },
    {
      "channel": 3,
      "note": 70,
      "start": 80.9049,
      "duration": 0.085,
      "velocity": 102,
      "chip": "ym2612"
    },
    {
      "channel": 4,
      "note": 72,
      "start": 80.9062,
      "duration": 0.1167,
      "velocity": 91,
      "chip": "ym2612"
    },
    {
      "channel": 1,
      "note": 71,
      "start": 81.013,
      "duration": 0.0658,
      "velocity": 91,
      "chip": "ym2612"
    },
    {
      "channel": 3,
      "note": 71,
      "start": 81.0181,
      "duration": 0.0614,
      "velocity": 102,
      "chip": "ym2612"
    },
    {
      "channel": 4,
      "note": 61,
      "start": 81.0229,
      "duration": 0.1771,
      "velocity": 91,
      "chip": "ym2612"
    },
    {
      "channel": 1,
      "note": 71,
      "start": 81.0921,
      "duration": 0.086,
      "velocity": 91,
      "chip": "ym2612"
    },
    {
      "channel": 3,
      "note": 71,
      "start": 81.0935,
      "duration": 0.0851,
      "velocity": 102,
      "chip": "ym2612"
    },
    {
      "channel": 1,
      "note": 70,
      "start": 81.1977,
      "duration": 0.1727,
      "velocity": 91,
      "chip": "ym2612"
    },
    {
      "channel": 3,
      "note": 70,
      "start": 81.199,
      "duration": 0.1719,
      "velocity": 102,
      "chip": "ym2612"
    },
    {
      "channel": 4,
      "note": 73,
      "start": 81.2002,
      "duration": 0.1923,
      "velocity": 91,
      "chip": "ym2612"
    },
    {
      "channel": 1,
      "note": 71,
      "start": 81.389,
      "duration": 0.1706,
      "velocity": 91,
      "chip": "ym2612"
    },
    {
      "channel": 2,
      "note": 90,
      "start": 81.3903,
      "duration": 0.7746,
      "velocity": 102,
      "chip": "ym2612"
    },
    {
      "channel": 3,
      "note": 71,
      "start": 81.3915,
      "duration": 0.1689,
      "velocity": 102,
      "chip": "ym2612"
    },
    {
      "channel": 4,
      "note": 61,
      "start": 81.3926,
      "duration": 0.082,
      "velocity": 91,
      "chip": "ym2612"
    },
    {
      "channel": 4,
      "note": 73,
      "start": 81.4748,
      "duration": 0.1076,
      "velocity": 91,
      "chip": "ym2612"
    },
    {
      "channel": 0,
      "note": 90,
      "start": 81.5784,
      "duration": 0.7692,
      "velocity": 102,
      "chip": "ym2612"
    },
    {
      "channel": 1,
      "note": 70,
      "start": 81.5796,
      "duration": 0.1733,
      "velocity": 91,
      "chip": "ym2612"
    },
    {
      "channel": 3,
      "note": 70,
      "start": 81.5812,
      "duration": 0.1727,
      "velocity": 102,
      "chip": "ym2612"
    },
    {
      "channel": 4,
      "note": 56,
      "start": 81.5825,
      "duration": 0.187,
      "velocity": 91,
      "chip": "ym2612"
    },
    {
      "channel": 1,
      "note": 73,
      "start": 81.7668,
      "duration": 0.2934,
      "velocity": 91,
      "chip": "ym2612"
    },
    {
      "channel": 3,
      "note": 73,
      "start": 81.7683,
      "duration": 0.2925,
      "velocity": 102,
      "chip": "ym2612"
    },
    {
      "channel": 4,
      "note": 59,
      "start": 81.7697,
      "duration": 0.1023,
      "velocity": 91,
      "chip": "ym2612"
    },
    {
      "channel": 4,
      "note": 71,
      "start": 81.8721,
      "duration": 0.1046,
      "velocity": 91,
      "chip": "ym2612"
    },
    {
      "channel": 4,
      "note": 58,
      "start": 81.9768,
      "duration": 0.1046,
      "velocity": 91,
      "chip": "ym2612"
    },
    {
      "channel": 1,
      "note": 71,
      "start": 82.0789,
      "duration": 0.0856,
      "velocity": 91,
      "chip": "ym2612"
    },
    {
      "channel": 3,
      "note": 71,
      "start": 82.0803,
      "duration": 0.085,
      "velocity": 102,
      "chip": "ym2612"
    },
    {
      "channel": 4,
      "note": 70,
      "start": 82.0816,
      "duration": 0.1037,
      "velocity": 91,
      "chip": "ym2612"
    },
    {
      "channel": 2,
      "note": 89,
      "start": 82.1835,
      "duration": 0.377,
      "velocity": 102,
      "chip": "ym2612"
    },
    {
      "channel": 4,
      "note": 59,
      "start": 82.1854,
      "duration": 0.0768,
      "velocity": 91,
      "chip": "ym2612"
    },
    {
      "channel": 4,
      "note": 71,
      "start": 82.2624,
      "duration": 0.1081,
      "velocity": 91,
      "chip": "ym2612"
    },
    {
      "channel": 0,
      "note": 89,
      "start": 82.3666,
      "duration": 0.3863,
      "velocity": 102,
      "chip": "ym2612"
    },
    {
      "channel": 1,
      "note": 68,
      "start": 82.3678,
      "duration": 0.0848,
      "velocity": 91,
      "chip": "ym2612"
    },
    {
      "channel": 3,
      "note": 68,
      "start": 82.3695,
      "duration": 0.0839,
      "velocity": 102,
      "chip": "ym2612"
    },
    {
      "channel": 4,
      "note": 56,
      "start": 82.3706,
      "duration": 0.2161,
      "velocity": 91,
      "chip": "ym2612"
    },
    {
      "channel": 1,
      "note": 70,
      "start": 82.4712,
      "duration": 0.0888,
      "velocity": 91,
      "chip": "ym2612"
    },
    {
      "channel": 3,
      "note": 70,
      "start": 82.4729,
      "duration": 0.088,
      "velocity": 102,
      "chip": "ym2612"
    },
    {
      "channel": 1,
      "note": 71,
      "start": 82.5798,
      "duration": 0.07,
      "velocity": 91,
      "chip": "ym2612"
    },
    {
      "channel": 2,
      "note": 87,
      "start": 82.5811,
      "duration": 0.2801,
      "velocity": 102,
      "chip": "ym2612"
    },
    {
      "channel": 3,
      "note": 71,
      "start": 82.5824,
      "duration": 0.0683,
      "velocity": 102,
      "chip": "ym2612"
    },
    {
      "channel": 4,
      "note": 61,
      "start": 82.5868,
      "duration": 0.1887,
      "velocity": 91,
      "chip": "ym2612"
    },
    {
      "channel": 1,
      "note": 71,
      "start": 82.6632,
      "duration": 0.0901,
      "velocity": 91,
      "chip": "ym2612"
    },
    {
      "channel": 3,
      "note": 71,
      "start": 82.6647,
      "duration": 0.0893,
      "velocity": 102,
      "chip": "ym2612"
    },
    {
      "channel": 0,
      "note": 87,
      "start": 82.7716,
      "duration": 0.2814,
      "velocity": 102,
      "chip": "ym2612"
    },
    {
      "channel": 1,
      "note": 70,
      "start": 82.7729,
      "duration": 0.191,
      "velocity": 91,
      "chip": "ym2612"
    },
    {
      "channel": 3,
      "note": 70,
      "start": 82.7744,
      "duration": 0.1902,
      "velocity": 102,
      "chip": "ym2612"
    },
    {
      "channel": 4,
      "note": 73,
      "start": 82.7756,
      "duration": 0.2094,
      "velocity": 91,
      "chip": "ym2612"
    },
    {
      "channel": 2,
      "note": 83,
      "start": 82.8796,
      "duration": 1.2561,
      "velocity": 102,
      "chip": "ym2612"
    },
    {
      "channel": 1,
      "note": 71,
      "start": 82.9824,
      "duration": 0.1755,
      "velocity": 91,
      "chip": "ym2612"
    },
    {
      "channel": 3,
      "note": 71,
      "start": 82.984,
      "duration": 0.1747,
      "velocity": 102,
      "chip": "ym2612"
    },
    {
      "channel": 4,
      "note": 61,
      "start": 82.9851,
      "duration": 0.0859,
      "velocity": 91,
      "chip": "ym2612"
    },
    {
      "channel": 0,
      "note": 83,
      "start": 83.0687,
      "duration": 1.2556,
      "velocity": 102,
      "chip": "ym2612"
    },
    {
      "channel": 4,
      "note": 73,
      "start": 83.0711,
      "duration": 0.1084,
      "velocity": 91,
      "chip": "ym2612"
    },
    {
      "channel": 1,
      "note": 70,
      "start": 83.1768,
      "duration": 0.1901,
      "velocity": 91,
      "chip": "ym2612"
    },
    {
      "channel": 3,
      "note": 70,
      "start": 83.1784,
      "duration": 0.1893,
      "velocity": 102,
      "chip": "ym2612"
    },
    {
      "channel": 4,
      "note": 56,
      "start": 83.1797,
      "duration": 0.1022,
      "velocity": 91,
      "chip": "ym2612"
    },
    {
      "channel": 4,
      "note": 68,
      "start": 83.282,
      "duration": 0.1064,
      "velocity": 91,
      "chip": "ym2612"
    },
    {
      "channel": 1,
      "note": 71,
      "start": 83.3857,
      "duration": 0.2807,
      "velocity": 91,
      "chip": "ym2612"
    },
    {
      "channel": 3,
      "note": 71,
      "start": 83.3874,
      "duration": 0.2797,
      "velocity": 102,
      "chip": "ym2612"
    },
    {
      "channel": 4,
      "note": 59,
      "start": 83.3885,
      "duration": 0.1055,
      "velocity": 91,
      "chip": "ym2612"
    },
    {
      "channel": 4,
      "note": 71,
      "start": 83.4942,
      "duration": 0.0829,
      "velocity": 91,
      "chip": "ym2612"
    },
    {
      "channel": 4,
      "note": 58,
      "start": 83.5772,
      "duration": 0.1108,
      "velocity": 91,
      "chip": "ym2612"
    },
    {
      "channel": 1,
      "note": 73,
      "start": 83.6852,
      "duration": 0.0703,
      "velocity": 91,
      "chip": "ym2612"
    },
    {
      "channel": 3,
      "note": 73,
      "start": 83.6868,
      "duration": 0.0696,
      "velocity": 102,
      "chip": "ym2612"
    },
    {
      "channel": 4,
      "note": 70,
      "start": 83.688,
      "duration": 0.0829,
      "velocity": 91,
      "chip": "ym2612"
    },
    {
      "channel": 4,
      "note": 59,
      "start": 83.7711,
      "duration": 0.0856,
      "velocity": 91,
      "chip": "ym2612"
    },
    {
      "channel": 4,
      "note": 71,
      "start": 83.8567,
      "duration": 0.1094,
      "velocity": 91,
      "chip": "ym2612"
    },
    {
      "channel": 1,
      "note": 68,
      "start": 83.9634,
      "duration": 0.0687,
      "velocity": 91,
      "chip": "ym2612"
    },
    {
      "channel": 3,
      "note": 68,
      "start": 83.9649,
      "duration": 0.068,
      "velocity": 102,
      "chip": "ym2612"
    },
    {
      "channel": 4,
      "note": 60,
      "start": 83.9662,
      "duration": 0.0817,
      "velocity": 91,
      "chip": "ym2612"
    },
    {
      "channel": 1,
      "note": 70,
      "start": 84.0455,
      "duration": 0.0899,
      "velocity": 91,
      "chip": "ym2612"
    },
    {
      "channel": 3,
      "note": 70,
      "start": 84.0469,
      "duration": 0.0891,
      "velocity": 102,
      "chip": "ym2612"
    },
    {
      "channel": 4,
      "note": 72,
      "start": 84.0481,
      "duration": 0.1212,
      "velocity": 91,
      "chip": "ym2612"
    },
    {
      "channel": 1,
      "note": 71,
      "start": 84.159,
      "duration": 0.0664,
      "velocity": 91,
      "chip": "ym2612"
    },
    {
      "channel": 3,
      "note": 71,
      "start": 84.1641,
      "duration": 0.062,
      "velocity": 102,
      "chip": "ym2612"
    },
    {
      "channel": 4,
      "note": 61,
      "start": 84.1695,
      "duration": 0.1769,
      "velocity": 91,
      "chip": "ym2612"
    },
    {
      "channel": 1,
      "note": 71,
      "start": 84.2385,
      "duration": 0.0863,
      "velocity": 91,
      "chip": "ym2612"
    },
    {
      "channel": 3,
      "note": 71,
      "start": 84.2399,
      "duration": 0.0854,
      "velocity": 102,
      "chip": "ym2612"
    },
    {
      "channel": 1,
      "note": 70,
      "start": 84.3439,
      "duration": 0.1968,
      "velocity": 91,
      "chip": "ym2612"
    },
    {
      "channel": 3,
      "note": 70,
      "start": 84.3452,
      "duration": 0.196,
      "velocity": 102,
      "chip": "ym2612"
    },
    {
      "channel": 4,
      "note": 73,
      "start": 84.3465,
      "duration": 0.2163,
      "velocity": 91,
      "chip": "ym2612"
    },
    {
      "channel": 1,
      "note": 71,
      "start": 84.5593,
      "duration": 0.1706,
      "velocity": 91,
      "chip": "ym2612"
    },
    {
      "channel": 2,
      "note": 90,
      "start": 84.5606,
      "duration": 0.7883,
      "velocity": 102,
      "chip": "ym2612"
    },
    {
      "channel": 3,
      "note": 71,
      "start": 84.5618,
      "duration": 0.1689,
      "velocity": 102,
      "chip": "ym2612"
    },
    {
      "channel": 4,
      "note": 61,
      "start": 84.5629,
      "duration": 0.082,
      "velocity": 91,
      "chip": "ym2612"
    },
    {
      "channel": 4,
      "note": 73,
      "start": 84.6451,
      "duration": 0.1076,
      "velocity": 91,
      "chip": "ym2612"
    },
    {
      "channel": 0,
      "note": 90,
      "start": 84.7488,
      "duration": 0.79,
      "velocity": 102,
      "chip": "ym2612"
    },
    {
      "channel": 1,
      "note": 70,
      "start": 84.7499,
      "duration": 0.1734,
      "velocity": 91,
      "chip": "ym2612"
    },
    {
      "channel": 3,
      "note": 70,
      "start": 84.7515,
      "duration": 0.1727,
      "velocity": 102,
      "chip": "ym2612"
    },
    {
      "channel": 4,
      "note": 56,
      "start": 84.7529,
      "duration": 0.1869,
      "velocity": 91,
      "chip": "ym2612"
    },
    {
      "channel": 1,
      "note": 73,
      "start": 84.9372,
      "duration": 0.3038,
      "velocity": 91,
      "chip": "ym2612"
    },
    {
      "channel": 3,
      "note": 73,
      "start": 84.9388,
      "duration": 0.3028,
      "velocity": 102,
      "chip": "ym2612"
    },
    {
      "channel": 4,
      "note": 59,
      "start": 84.9399,
      "duration": 0.1062,
      "velocity": 91,
      "chip": "ym2612"
    },
    {
      "channel": 4,
      "note": 71,
      "start": 85.0462,
      "duration": 0.1068,
      "velocity": 91,
      "chip": "ym2612"
    },
    {
      "channel": 4,
      "note": 58,
      "start": 85.1532,
      "duration": 0.109,
      "velocity": 91,
      "chip": "ym2612"
    },
    {
      "channel": 1,
      "note": 71,
      "start": 85.2598,
      "duration": 0.0888,
      "velocity": 91,
      "chip": "ym2612"
    },
    {
      "channel": 3,
      "note": 71,
      "start": 85.2611,
      "duration": 0.0882,
      "velocity": 102,
      "chip": "ym2612"
    },
    {
      "channel": 4,
      "note": 70,
      "start": 85.2623,
      "duration": 0.1071,
      "velocity": 91,
      "chip": "ym2612"
    },
    {
      "channel": 2,
      "note": 89,
      "start": 85.3676,
      "duration": 0.3874,
      "velocity": 102,
      "chip": "ym2612"
    },
    {
      "channel": 4,
      "note": 59,
      "start": 85.3696,
      "duration": 0.0838,
      "velocity": 91,
      "chip": "ym2612"
    },
    {
      "channel": 4,
      "note": 71,
      "start": 85.4535,
      "duration": 0.1081,
      "velocity": 91,
      "chip": "ym2612"
    },
    {
      "channel": 0,
      "note": 89,
      "start": 85.5577,
      "duration": 0.3887,
      "velocity": 102,
      "chip": "ym2612"
    },
    {
      "channel": 1,
      "note": 68,
      "start": 85.5589,
      "duration": 0.0848,
      "velocity": 91,
      "chip": "ym2612"
    },
    {
      "channel": 3,
      "note": 68,
      "start": 85.5606,
      "duration": 0.0839,
      "velocity": 102,
      "chip": "ym2612"
    },
    {
      "channel": 4,
      "note": 56,
      "start": 85.5617,
      "duration": 0.2193,
      "velocity": 91,
      "chip": "ym2612"
    },
    {
      "channel": 1,
      "note": 70,
      "start": 85.6624,
      "duration": 0.0922,
      "velocity": 91,
      "chip": "ym2612"
    },
    {
      "channel": 3,
      "note": 70,
      "start": 85.6639,
      "duration": 0.0915,
      "velocity": 102,
      "chip": "ym2612"
    },
    {
      "channel": 1,
      "note": 71,
      "start": 85.7743,
      "duration": 0.0696,
      "velocity": 91,
      "chip": "ym2612"
    },
    {
      "channel": 2,
      "note": 87,
      "start": 85.7755,
      "duration": 0.2792,
      "velocity": 102,
      "chip": "ym2612"
    },
    {
      "channel": 3,
      "note": 71,
      "start": 85.7768,
      "duration": 0.0679,
      "velocity": 102,
      "chip": "ym2612"
    },
    {
      "channel": 4,
      "note": 61,
      "start": 85.7811,
      "duration": 0.1879,
      "velocity": 91,
      "chip": "ym2612"
    },
    {
      "channel": 1,
      "note": 71,
      "start": 85.8568,
      "duration": 0.0901,
      "velocity": 91,
      "chip": "ym2612"
    },
    {
      "channel": 3,
      "note": 71,
      "start": 85.8583,
      "duration": 0.0893,
      "velocity": 102,
      "chip": "ym2612"
    },
    {
      "channel": 0,
      "note": 87,
      "start": 85.9652,
      "duration": 0.2895,
      "velocity": 102,
      "chip": "ym2612"
    },
    {
      "channel": 1,
      "note": 70,
      "start": 85.9665,
      "duration": 0.199,
      "velocity": 91,
      "chip": "ym2612"
    },
    {
      "channel": 3,
      "note": 70,
      "start": 85.968,
      "duration": 0.1982,
      "velocity": 102,
      "chip": "ym2612"
    },
    {
      "channel": 4,
      "note": 73,
      "start": 85.9692,
      "duration": 0.2176,
      "velocity": 91,
      "chip": "ym2612"
    },
    {
      "channel": 2,
      "note": 89,
      "start": 86.0733,
      "duration": 0.5002,
      "velocity": 102,
      "chip": "ym2612"
    },
    {
      "channel": 1,
      "note": 71,
      "start": 86.184,
      "duration": 0.1756,
      "velocity": 91,
      "chip": "ym2612"
    },
    {
      "channel": 3,
      "note": 71,
      "start": 86.1857,
      "duration": 0.1747,
      "velocity": 102,
      "chip": "ym2612"
    },
    {
      "channel": 4,
      "note": 61,
      "start": 86.1869,
      "duration": 0.0859,
      "velocity": 91,
      "chip": "ym2612"
    },
    {
      "channel": 0,
      "note": 89,
      "start": 86.2705,
      "duration": 0.499,
      "velocity": 102,
      "chip": "ym2612"
    },
    {
      "channel": 4,
      "note": 73,
      "start": 86.2729,
      "duration": 0.1084,
      "velocity": 91,
      "chip": "ym2612"
    },
    {
      "channel": 1,
      "note": 70,
      "start": 86.3786,
      "duration": 0.1945,
      "velocity": 91,
      "chip": "ym2612"
    },
    {
      "channel": 3,
      "note": 70,
      "start": 86.3801,
      "duration": 0.1939,
      "velocity": 102,
      "chip": "ym2612"
    },
    {
      "channel": 4,
      "note": 56,
      "start": 86.3815,
      "duration": 0.1023,
      "velocity": 91,
      "chip": "ym2612"
    },
    {
      "channel": 4,
      "note": 68,
      "start": 86.4839,
      "duration": 0.1111,
      "velocity": 91,
      "chip": "ym2612"
    },
    {
      "channel": 1,
      "note": 71,
      "start": 86.592,
      "duration": 0.2776,
      "velocity": 91,
      "chip": "ym2612"
    },
    {
      "channel": 3,
      "note": 71,
      "start": 86.5939,
      "duration": 0.2761,
      "velocity": 102,
      "chip": "ym2612"
    },
    {
      "channel": 4,
      "note": 59,
      "start": 86.5951,
      "duration": 0.1052,
      "velocity": 91,
      "chip": "ym2612"
    },
    {
      "channel": 4,
      "note": 71,
      "start": 86.7004,
      "duration": 0.084,
      "velocity": 91,
      "chip": "ym2612"
    },
    {
      "channel": 4,
      "note": 58,
      "start": 86.7846,
      "duration": 0.1061,
      "velocity": 91,
      "chip": "ym2612"
    },
    {
      "channel": 1,
      "note": 73,
      "start": 86.8882,
      "duration": 0.07,
      "velocity": 91,
      "chip": "ym2612"
    },
    {
      "channel": 3,
      "note": 73,
      "start": 86.8897,
      "duration": 0.0691,
      "velocity": 102,
      "chip": "ym2612"
    },
    {
      "channel": 4,
      "note": 70,
      "start": 86.8908,
      "duration": 0.0814,
      "velocity": 91,
      "chip": "ym2612"
    },
    {
      "channel": 4,
      "note": 59,
      "start": 86.9724,
      "duration": 0.0802,
      "velocity": 91,
      "chip": "ym2612"
    },
    {
      "channel": 4,
      "note": 71,
      "start": 87.0527,
      "duration": 0.0836,
      "velocity": 91,
      "chip": "ym2612"
    },
    {
      "channel": 1,
      "note": 68,
      "start": 87.1339,
      "duration": 0.0863,
      "velocity": 91,
      "chip": "ym2612"
    },
    {
      "channel": 3,
      "note": 68,
      "start": 87.1353,
      "duration": 0.0855,
      "velocity": 102,
      "chip": "ym2612"
    },
    {
      "channel": 4,
      "note": 60,
      "start": 87.1365,
      "duration": 0.105,
      "velocity": 91,
      "chip": "ym2612"
    },
    {
      "channel": 1,
      "note": 70,
      "start": 87.239,
      "duration": 0.0858,
      "velocity": 91,
      "chip": "ym2612"
    },
    {
      "channel": 3,
      "note": 70,
      "start": 87.2403,
      "duration": 0.085,
      "velocity": 102,
      "chip": "ym2612"
    },
    {
      "channel": 4,
      "note": 72,
      "start": 87.2416,
      "duration": 0.1098,
      "velocity": 91,
      "chip": "ym2612"
    },
    {
      "channel": 1,
      "note": 71,
      "start": 87.3446,
      "duration": 0.0702,
      "velocity": 91,
      "chip": "ym2612"
    },
    {
      "channel": 3,
      "note": 71,
      "start": 87.3466,
      "duration": 0.069,
      "velocity": 102,
      "chip": "ym2612"
    },
    {
      "channel": 4,
      "note": 61,
      "start": 87.3515,
      "duration": 0.1853,
      "velocity": 91,
      "chip": "ym2612"
    },
    {
      "channel": 1,
      "note": 71,
      "start": 87.4292,
      "duration": 0.0858,
      "velocity": 91,
      "chip": "ym2612"
    },
    {
      "channel": 3,
      "note": 71,
      "start": 87.4305,
      "duration": 0.0851,
      "velocity": 102,
      "chip": "ym2612"
    },
    {
      "channel": 1,
      "note": 70,
      "start": 87.5344,
      "duration": 0.1905,
      "velocity": 91,
      "chip": "ym2612"
    },
    {
      "channel": 3,
      "note": 70,
      "start": 87.5358,
      "duration": 0.1895,
      "velocity": 102,
      "chip": "ym2612"
    },
    {
      "channel": 4,
      "note": 73,
      "start": 87.5369,
      "duration": 0.21,
      "velocity": 91,
      "chip": "ym2612"
    },
    {
      "channel": 1,
      "note": 71,
      "start": 87.7433,
      "duration": 0.1704,
      "velocity": 91,
      "chip": "ym2612"
    },
    {
      "channel": 2,
      "note": 90,
      "start": 87.7446,
      "duration": 0.7883,
      "velocity": 102,
      "chip": "ym2612"
    },
    {
      "channel": 3,
      "note": 71,
      "start": 87.7457,
      "duration": 0.1687,
      "velocity": 102,
      "chip": "ym2612"
    },
    {
      "channel": 4,
      "note": 61,
      "start": 87.7471,
      "duration": 0.0771,
      "velocity": 91,
      "chip": "ym2612"
    },
    {
      "channel": 4,
      "note": 73,
      "start": 87.8243,
      "duration": 0.112,
      "velocity": 91,
      "chip": "ym2612"
    },
    {
      "channel": 0,
      "note": 90,
      "start": 87.9325,
      "duration": 0.7799,
      "velocity": 102,
      "chip": "ym2612"
    },
    {
      "channel": 1,
      "note": 70,
      "start": 87.9337,
      "duration": 0.1739,
      "velocity": 91,
      "chip": "ym2612"
    },
    {
      "channel": 3,
      "note": 70,
      "start": 87.9352,
      "duration": 0.1733,
      "velocity": 102,
      "chip": "ym2612"
    },
    {
      "channel": 4,
      "note": 56,
      "start": 87.9365,
      "duration": 0.1872,
      "velocity": 91,
      "chip": "ym2612"
    },
    {
      "channel": 1,
      "note": 73,
      "start": 88.1212,
      "duration": 0.3038,
      "velocity": 91,
      "chip": "ym2612"
    },
    {
      "channel": 3,
      "note": 73,
      "start": 88.1228,
      "duration": 0.3028,
      "velocity": 102,
      "chip": "ym2612"
    },
    {
      "channel": 4,
      "note": 59,
      "start": 88.1239,
      "duration": 0.1062,
      "velocity": 91,
      "chip": "ym2612"
    },
    {
      "channel": 4,
      "note": 71,
      "start": 88.2302,
      "duration": 0.1068,
      "velocity": 91,
      "chip": "ym2612"
    },
    {
      "channel": 4,
      "note": 58,
      "start": 88.3371,
      "duration": 0.109,
      "velocity": 91,
      "chip": "ym2612"
    },
    {
      "channel": 1,
      "note": 71,
      "start": 88.4437,
      "duration": 0.0888,
      "velocity": 91,
      "chip": "ym2612"
    },
    {
      "channel": 3,
      "note": 71,
      "start": 88.4451,
      "duration": 0.0882,
      "velocity": 102,
      "chip": "ym2612"
    },
    {
      "channel": 4,
      "note": 70,
      "start": 88.4463,
      "duration": 0.1071,
      "velocity": 91,
      "chip": "ym2612"
    },
    {
      "channel": 2,
      "note": 89,
      "start": 88.5516,
      "duration": 0.3255,
      "velocity": 102,
      "chip": "ym2612"
    },
    {
      "channel": 4,
      "note": 59,
      "start": 88.5536,
      "duration": 0.0834,
      "velocity": 91,
      "chip": "ym2612"
    },
    {
      "channel": 4,
      "note": 71,
      "start": 88.6371,
      "duration": 0.091,
      "velocity": 91,
      "chip": "ym2612"
    },
    {
      "channel": 0,
      "note": 89,
      "start": 88.7242,
      "duration": 0.1518,
      "velocity": 102,
      "chip": "ym2612"
    },
    {
      "channel": 1,
      "note": 68,
      "start": 88.7255,
      "duration": 0.0676,
      "velocity": 91,
      "chip": "ym2612"
    },
    {
      "channel": 3,
      "note": 68,
      "start": 88.727,
      "duration": 0.067,
      "velocity": 102,
      "chip": "ym2612"
    },
    {
      "channel": 4,
      "note": 56,
      "start": 88.7282,
      "duration": 0.1779,
      "velocity": 107,
      "chip": "ym2612"
    },
    {
      "channel": 1,
      "note": 70,
      "start": 88.808,
      "duration": 0.0686,
      "velocity": 91,
      "chip": "ym2612"
    },
    {
      "channel": 3,
      "note": 70,
      "start": 88.8096,
      "duration": 0.0681,
      "velocity": 102,
      "chip": "ym2612"
    },
    {
      "channel": 0,
      "note": 76,
      "start": 89.054,
      "duration": 0.0474,
      "velocity": 102,
      "chip": "ym2612"
    },
    {
      "channel": 1,
      "note": 73,
      "start": 89.0553,
      "duration": 0.0466,
      "velocity": 102,
      "chip": "ym2612"
    },
    {
      "channel": 2,
      "note": 85,
      "start": 89.0565,
      "duration": 0.0698,
      "velocity": 102,
      "chip": "ym2612"
    },
    {
      "channel": 3,
      "note": 73,
      "start": 89.0578,
      "duration": 0.0691,
      "velocity": 102,
      "chip": "ym2612"
    },
    {
      "channel": 4,
      "note": 61,
      "start": 89.059,
      "duration": 0.0816,
      "velocity": 107,
      "chip": "ym2612"
    },
    {
      "channel": 0,
      "note": 76,
      "start": 89.2521,
      "duration": 0.0461,
      "velocity": 102,
      "chip": "ym2612"
    },
    {
      "channel": 1,
      "note": 73,
      "start": 89.2535,
      "duration": 0.0452,
      "velocity": 102,
      "chip": "ym2612"
    },
    {
      "channel": 2,
      "note": 85,
      "start": 89.2547,
      "duration": 0.0684,
      "velocity": 102,
      "chip": "ym2612"
    },
    {
      "channel": 3,
      "note": 73,
      "start": 89.2558,
      "duration": 0.0678,
      "velocity": 102,
      "chip": "ym2612"
    },
    {
      "channel": 4,
      "note": 61,
      "start": 89.2571,
      "duration": 0.0799,
      "velocity": 107,
      "chip": "ym2612"
    },
    {
      "channel": 0,
      "note": 76,
      "start": 89.4486,
      "duration": 0.0468,
      "velocity": 102,
      "chip": "ym2612"
    },
    {
      "channel": 1,
      "note": 73,
      "start": 89.45,
      "duration": 0.0459,
      "velocity": 102,
      "chip": "ym2612"
    },
    {
      "channel": 2,
      "note": 85,
      "start": 89.4512,
      "duration": 0.0685,
      "velocity": 102,
      "chip": "ym2612"
    },
    {
      "channel": 3,
      "note": 73,
      "start": 89.4523,
      "duration": 0.0678,
      "velocity": 102,
      "chip": "ym2612"
    },
    {
      "channel": 4,
      "note": 61,
      "start": 89.4535,
      "duration": 0.08,
      "velocity": 107,
      "chip": "ym2612"
    },
    {
      "channel": 0,
      "note": 76,
      "start": 89.6454,
      "duration": 0.0473,
      "velocity": 102,
      "chip": "ym2612"
    },
    {
      "channel": 1,
      "note": 73,
      "start": 89.6468,
      "duration": 0.0465,
      "velocity": 102,
      "chip": "ym2612"
    },
    {
      "channel": 2,
      "note": 85,
      "start": 89.648,
      "duration": 0.0692,
      "velocity": 102,
      "chip": "ym2612"
    },
    {
      "channel": 3,
      "note": 73,
      "start": 89.6491,
      "duration": 0.0686,
      "velocity": 102,
      "chip": "ym2612"
    },
    {
      "channel": 4,
      "note": 61,
      "start": 89.6504,
      "duration": 0.085,
      "velocity": 107,
      "chip": "ym2612"
    },
    {
      "channel": 0,
      "note": 76,
      "start": 89.7305,
      "duration": 0.0472,
      "velocity": 102,
      "chip": "ym2612"
    },
    {
      "channel": 1,
      "note": 73,
      "start": 89.7319,
      "duration": 0.0464,
      "velocity": 102,
      "chip": "ym2612"
    },
    {
      "channel": 2,
      "note": 85,
      "start": 89.7331,
      "duration": 0.0695,
      "velocity": 102,
      "chip": "ym2612"
    },
    {
      "channel": 3,
      "note": 73,
      "start": 89.7344,
      "duration": 0.0688,
      "velocity": 102,
      "chip": "ym2612"
    },
    {
      "channel": 4,
      "note": 61,
      "start": 89.7356,
      "duration": 0.0813,
      "velocity": 107,
      "chip": "ym2612"
    },
    {
      "channel": 1,
      "note": 71,
      "start": 90.3881,
      "duration": 0.0633,
      "velocity": 91,
      "chip": "ym2612"
    },
    {
      "channel": 2,
      "note": 90,
      "start": 90.3893,
      "duration": 1.1854,
      "velocity": 102,
      "chip": "ym2612"
    },
    {
      "channel": 3,
      "note": 71,
      "start": 90.3911,
      "duration": 0.0613,
      "velocity": 102,
      "chip": "ym2612"
    },
    {
      "channel": 4,
      "note": 61,
      "start": 90.3954,
      "duration": 0.1792,
      "velocity": 91,
      "chip": "ym2612"
    },
    {
      "channel": 1,
      "note": 71,
      "start": 90.4657,
      "duration": 0.0861,
      "velocity": 91,
      "chip": "ym2612"
    },
    {
      "channel": 3,
      "note": 71,
      "start": 90.4673,
      "duration": 0.0853,
      "velocity": 102,
      "chip": "ym2612"
    },
    {
      "channel": 0,
      "note": 90,
      "start": 90.5706,
      "duration": 1.1938,
      "velocity": 102,
      "chip": "ym2612"
    },
    {
      "channel": 1,
      "note": 70,
      "start": 90.5718,
      "duration": 0.1938,
      "velocity": 91,
      "chip": "ym2612"
    },
    {
      "channel": 3,
      "note": 70,
      "start": 90.5734,
      "duration": 0.1929,
      "velocity": 102,
      "chip": "ym2612"
    },
    {
      "channel": 4,
      "note": 73,
      "start": 90.5747,
      "duration": 0.2119,
      "velocity": 91,
      "chip": "ym2612"
    },
    {
      "channel": 1,
      "note": 71,
      "start": 90.7839,
      "duration": 0.171,
      "velocity": 91,
      "chip": "ym2612"
    },
    {
      "channel": 3,
      "note": 71,
      "start": 90.7855,
      "duration": 0.1701,
      "velocity": 102,
      "chip": "ym2612"
    },
    {
      "channel": 4,
      "note": 61,
      "start": 90.7867,
      "duration": 0.0806,
      "velocity": 91,
      "chip": "ym2612"
    },
    {
      "channel": 4,
      "note": 73,
      "start": 90.8674,
      "duration": 0.1088,
      "velocity": 91,
      "chip": "ym2612"
    },
    {
      "channel": 1,
      "note": 70,
      "start": 90.9738,
      "duration": 0.1771,
      "velocity": 91,
      "chip": "ym2612"
    },
    {
      "channel": 3,
      "note": 70,
      "start": 90.9752,
      "duration": 0.1764,
      "velocity": 102,
      "chip": "ym2612"
    },
    {
      "channel": 4,
      "note": 56,
      "start": 90.9763,
      "duration": 0.1905,
      "velocity": 91,
      "chip": "ym2612"
    },
    {
      "channel": 1,
      "note": 73,
      "start": 91.1643,
      "duration": 0.2827,
      "velocity": 91,
      "chip": "ym2612"
    },
    {
      "channel": 3,
      "note": 73,
      "start": 91.1658,
      "duration": 0.2818,
      "velocity": 102,
      "chip": "ym2612"
    },
    {
      "channel": 4,
      "note": 59,
      "start": 91.167,
      "duration": 0.1066,
      "velocity": 91,
      "chip": "ym2612"
    },
    {
      "channel": 4,
      "note": 71,
      "start": 91.2737,
      "duration": 0.0838,
      "velocity": 91,
      "chip": "ym2612"
    },
    {
      "channel": 4,
      "note": 58,
      "start": 91.3576,
      "duration": 0.1106,
      "velocity": 91,
      "chip": "ym2612"
    },
    {
      "channel": 1,
      "note": 71,
      "start": 91.4657,
      "duration": 0.09,
      "velocity": 91,
      "chip": "ym2612"
    },
    {
      "channel": 3,
      "note": 71,
      "start": 91.4672,
      "duration": 0.0891,
      "velocity": 102,
      "chip": "ym2612"
    },
    {
      "channel": 4,
      "note": 70,
      "start": 91.4684,
      "duration": 0.1081,
      "velocity": 91,
      "chip": "ym2612"
    },
    {
      "channel": 2,
      "note": 89,
      "start": 91.5748,
      "duration": 0.4077,
      "velocity": 102,
      "chip": "ym2612"
    },
    {
      "channel": 4,
      "note": 59,
      "start": 91.5767,
      "duration": 0.0835,
      "velocity": 91,
      "chip": "ym2612"
    },
    {
      "channel": 4,
      "note": 71,
      "start": 91.6602,
      "duration": 0.1081,
      "velocity": 91,
      "chip": "ym2612"
    },
    {
      "channel": 0,
      "note": 89,
      "start": 91.7645,
      "duration": 0.4081,
      "velocity": 102,
      "chip": "ym2612"
    },
    {
      "channel": 1,
      "note": 68,
      "start": 91.7657,
      "duration": 0.0851,
      "velocity": 91,
      "chip": "ym2612"
    },
    {
      "channel": 3,
      "note": 68,
      "start": 91.7672,
      "duration": 0.0843,
      "velocity": 102,
      "chip": "ym2612"
    },
    {
      "channel": 4,
      "note": 56,
      "start": 91.7685,
      "duration": 0.2196,
      "velocity": 91,
      "chip": "ym2612"
    },
    {
      "channel": 1,
      "note": 70,
      "start": 91.8694,
      "duration": 0.0921,
      "velocity": 91,
      "chip": "ym2612"
    },
    {
      "channel": 3,
      "note": 70,
      "start": 91.8709,
      "duration": 0.0913,
      "velocity": 102,
      "chip": "ym2612"
    },
    {
      "channel": 1,
      "note": 71,
      "start": 91.9813,
      "duration": 0.0696,
      "velocity": 91,
      "chip": "ym2612"
    },
    {
      "channel": 2,
      "note": 87,
      "start": 91.9826,
      "duration": 0.2938,
      "velocity": 102,
      "chip": "ym2612"
    },
    {
      "channel": 3,
      "note": 71,
      "start": 91.9839,
      "duration": 0.068,
      "velocity": 102,
      "chip": "ym2612"
    },
    {
      "channel": 4,
      "note": 61,
      "start": 91.9883,
      "duration": 0.1884,
      "velocity": 91,
      "chip": "ym2612"
    },
    {
      "channel": 1,
      "note": 71,
      "start": 92.0643,
      "duration": 0.09,
      "velocity": 91,
      "chip": "ym2612"
    },
    {
      "channel": 3,
      "note": 71,
      "start": 92.0659,
      "duration": 0.0892,
      "velocity": 102,
      "chip": "ym2612"
    },
    {
      "channel": 0,
      "note": 87,
      "start": 92.1727,
      "duration": 0.2937,
      "velocity": 102,
      "chip": "ym2612"
    },
    {
      "channel": 1,
      "note": 70,
      "start": 92.174,
      "duration": 0.1924,
      "velocity": 91,
      "chip": "ym2612"
    },
    {
      "channel": 3,
      "note": 70,
      "start": 92.1757,
      "duration": 0.1915,
      "velocity": 102,
      "chip": "ym2612"
    },
    {
      "channel": 4,
      "note": 73,
      "start": 92.1768,
      "duration": 0.2109,
      "velocity": 91,
      "chip": "ym2612"
    },
    {
      "channel": 2,
      "note": 89,
      "start": 92.2765,
      "duration": 0.5123,
      "velocity": 102,
      "chip": "ym2612"
    },
    {
      "channel": 1,
      "note": 71,
      "start": 92.385,
      "duration": 0.1721,
      "velocity": 91,
      "chip": "ym2612"
    },
    {
      "channel": 3,
      "note": 71,
      "start": 92.3867,
      "duration": 0.1711,
      "velocity": 102,
      "chip": "ym2612"
    },
    {
      "channel": 4,
      "note": 61,
      "start": 92.3878,
      "duration": 0.081,
      "velocity": 91,
      "chip": "ym2612"
    },
    {
      "channel": 0,
      "note": 89,
      "start": 92.4666,
      "duration": 0.5118,
      "velocity": 102,
      "chip": "ym2612"
    },
    {
      "channel": 4,
      "note": 73,
      "start": 92.469,
      "duration": 0.1098,
      "velocity": 91,
      "chip": "ym2612"
    },
    {
      "channel": 1,
      "note": 70,
      "start": 92.576,
      "duration": 0.1933,
      "velocity": 91,
      "chip": "ym2612"
    },
    {
      "channel": 3,
      "note": 70,
      "start": 92.5777,
      "duration": 0.1924,
      "velocity": 102,
      "chip": "ym2612"
    },
    {
      "channel": 4,
      "note": 56,
      "start": 92.5789,
      "duration": 0.1052,
      "velocity": 91,
      "chip": "ym2612"
    },
    {
      "channel": 4,
      "note": 68,
      "start": 92.6842,
      "duration": 0.1068,
      "velocity": 91,
      "chip": "ym2612"
    },
    {
      "channel": 1,
      "note": 71,
      "start": 92.7882,
      "duration": 0.2813,
      "velocity": 91,
      "chip": "ym2612"
    },
    {
      "channel": 3,
      "note": 71,
      "start": 92.79,
      "duration": 0.2799,
      "velocity": 102,
      "chip": "ym2612"
    },
    {
      "channel": 4,
      "note": 59,
      "start": 92.7911,
      "duration": 0.1058,
      "velocity": 91,
      "chip": "ym2612"
    },
    {
      "channel": 4,
      "note": 71,
      "start": 92.8971,
      "duration": 0.0834,
      "velocity": 91,
      "chip": "ym2612"
    },
    {
      "channel": 4,
      "note": 58,
      "start": 92.9806,
      "duration": 0.1102,
      "velocity": 91,
      "chip": "ym2612"
    },
    {
      "channel": 1,
      "note": 73,
      "start": 93.0881,
      "duration": 0.07,
      "velocity": 91,
      "chip": "ym2612"
    },
    {
      "channel": 3,
      "note": 73,
      "start": 93.0897,
      "duration": 0.069,
      "velocity": 102,
      "chip": "ym2612"
    },
    {
      "channel": 4,
      "note": 70,
      "start": 93.0908,
      "duration": 0.0813,
      "velocity": 91,
      "chip": "ym2612"
    },
    {
      "channel": 4,
      "note": 59,
      "start": 93.1722,
      "duration": 0.0827,
      "velocity": 91,
      "chip": "ym2612"
    },
    {
      "channel": 4,
      "note": 71,
      "start": 93.255,
      "duration": 0.1091,
      "velocity": 91,
      "chip": "ym2612"
    },
    {
      "channel": 1,
      "note": 68,
      "start": 93.3616,
      "duration": 0.0857,
      "velocity": 91,
      "chip": "ym2612"
    },
    {
      "channel": 3,
      "note": 68,
      "start": 93.363,
      "duration": 0.0849,
      "velocity": 102,
      "chip": "ym2612"
    },
    {
      "channel": 4,
      "note": 60,
      "start": 93.3642,
      "duration": 0.1042,
      "velocity": 91,
      "chip": "ym2612"
    },
    {
      "channel": 1,
      "note": 70,
      "start": 93.4661,
      "duration": 0.0898,
      "velocity": 91,
      "chip": "ym2612"
    },
    {
      "channel": 3,
      "note": 70,
      "start": 93.4674,
      "duration": 0.089,
      "velocity": 102,
      "chip": "ym2612"
    },
    {
      "channel": 4,
      "note": 72,
      "start": 93.4685,
      "duration": 0.1173,
      "velocity": 91,
      "chip": "ym2612"
    },
    {
      "channel": 1,
      "note": 71,
      "start": 93.5792,
      "duration": 0.0672,
      "velocity": 91,
      "chip": "ym2612"
    },
    {
      "channel": 3,
      "note": 71,
      "start": 93.581,
      "duration": 0.0661,
      "velocity": 102,
      "chip": "ym2612"
    },
    {
      "channel": 4,
      "note": 61,
      "start": 93.5865,
      "duration": 0.1853,
      "velocity": 91,
      "chip": "ym2612"
    },
    {
      "channel": 1,
      "note": 71,
      "start": 93.6595,
      "duration": 0.0902,
      "velocity": 91,
      "chip": "ym2612"
    },
    {
      "channel": 3,
      "note": 71,
      "start": 93.6608,
      "duration": 0.0895,
      "velocity": 102,
      "chip": "ym2612"
    },
    {
      "channel": 1,
      "note": 70,
      "start": 93.7694,
      "duration": 0.1677,
      "velocity": 91,
      "chip": "ym2612"
    },
    {
      "channel": 3,
      "note": 70,
      "start": 93.7708,
      "duration": 0.1668,
      "velocity": 102,
      "chip": "ym2612"
    },
    {
      "channel": 4,
      "note": 73,
      "start": 93.772,
      "duration": 0.1872,
      "velocity": 91,
      "chip": "ym2612"
    },
    {
      "channel": 1,
      "note": 71,
      "start": 93.9556,
      "duration": 0.1704,
      "velocity": 91,
      "chip": "ym2612"
    },
    {
      "channel": 2,
      "note": 90,
      "start": 93.9568,
      "duration": 0.8115,
      "velocity": 102,
      "chip": "ym2612"
    },
    {
      "channel": 3,
      "note": 71,
      "start": 93.958,
      "duration": 0.1687,
      "velocity": 102,
      "chip": "ym2612"
    },
    {
      "channel": 4,
      "note": 61,
      "start": 93.9593,
      "duration": 0.0771,
      "velocity": 91,
      "chip": "ym2612"
    },
    {
      "channel": 4,
      "note": 73,
      "start": 94.0366,
      "duration": 0.112,
      "velocity": 91,
      "chip": "ym2612"
    },
    {
      "channel": 0,
      "note": 90,
      "start": 94.1447,
      "duration": 0.8067,
      "velocity": 102,
      "chip": "ym2612"
    },
    {
      "channel": 1,
      "note": 70,
      "start": 94.1459,
      "duration": 0.1741,
      "velocity": 91,
      "chip": "ym2612"
    },
    {
      "channel": 3,
      "note": 70,
      "start": 94.1475,
      "duration": 0.1736,
      "velocity": 102,
      "chip": "ym2612"
    },
    {
      "channel": 4,
      "note": 56,
      "start": 94.1488,
      "duration": 0.1876,
      "velocity": 91,
      "chip": "ym2612"
    },
    {
      "channel": 1,
      "note": 73,
      "start": 94.3338,
      "duration": 0.308,
      "velocity": 91,
      "chip": "ym2612"
    },
    {
      "channel": 3,
      "note": 73,
      "start": 94.3354,
      "duration": 0.3071,
      "velocity": 102,
      "chip": "ym2612"
    },
    {
      "channel": 4,
      "note": 59,
      "start": 94.3365,
      "duration": 0.1063,
      "velocity": 91,
      "chip": "ym2612"
    },
    {
      "channel": 4,
      "note": 71,
      "start": 94.4429,
      "duration": 0.1069,
      "velocity": 91,
      "chip": "ym2612"
    },
    {
      "channel": 4,
      "note": 58,
      "start": 94.55,
      "duration": 0.113,
      "velocity": 91,
      "chip": "ym2612"
    },
    {
      "channel": 1,
      "note": 71,
      "start": 94.6605,
      "duration": 0.0888,
      "velocity": 91,
      "chip": "ym2612"
    },
    {
      "channel": 3,
      "note": 71,
      "start": 94.6619,
      "duration": 0.0881,
      "velocity": 102,
      "chip": "ym2612"
    },
    {
      "channel": 4,
      "note": 70,
      "start": 94.6631,
      "duration": 0.1071,
      "velocity": 91,
      "chip": "ym2612"
    },
    {
      "channel": 2,
      "note": 89,
      "start": 94.7685,
      "duration": 0.4008,
      "velocity": 102,
      "chip": "ym2612"
    },
    {
      "channel": 4,
      "note": 59,
      "start": 94.7704,
      "duration": 0.0768,
      "velocity": 91,
      "chip": "ym2612"
    },
    {
      "channel": 4,
      "note": 71,
      "start": 94.8473,
      "duration": 0.1081,
      "velocity": 91,
      "chip": "ym2612"
    },
    {
      "channel": 0,
      "note": 89,
      "start": 94.9516,
      "duration": 0.408,
      "velocity": 102,
      "chip": "ym2612"
    },
    {
      "channel": 1,
      "note": 68,
      "start": 94.9528,
      "duration": 0.0849,
      "velocity": 91,
      "chip": "ym2612"
    },
    {
      "channel": 3,
      "note": 68,
      "start": 94.9543,
      "duration": 0.0841,
      "velocity": 102,
      "chip": "ym2612"
    },
    {
      "channel": 4,
      "note": 56,
      "start": 94.9556,
      "duration": 0.2192,
      "velocity": 91,
      "chip": "ym2612"
    },
    {
      "channel": 1,
      "note": 70,
      "start": 95.0563,
      "duration": 0.0922,
      "velocity": 91,
      "chip": "ym2612"
    },
    {
      "channel": 3,
      "note": 70,
      "start": 95.0578,
      "duration": 0.0914,
      "velocity": 102,
      "chip": "ym2612"
    },
    {
      "channel": 1,
      "note": 71,
      "start": 95.1681,
      "duration": 0.07,
      "velocity": 91,
      "chip": "ym2612"
    },
    {
      "channel": 2,
      "note": 87,
      "start": 95.1694,
      "duration": 0.2982,
      "velocity": 102,
      "chip": "ym2612"
    },
    {
      "channel": 3,
      "note": 71,
      "start": 95.1707,
      "duration": 0.0685,
      "velocity": 102,
      "chip": "ym2612"
    },
    {
      "channel": 4,
      "note": 61,
      "start": 95.175,
      "duration": 0.1886,
      "velocity": 91,
      "chip": "ym2612"
    },
    {
      "channel": 1,
      "note": 71,
      "start": 95.2513,
      "duration": 0.09,
      "velocity": 91,
      "chip": "ym2612"
    },
    {
      "channel": 3,
      "note": 71,
      "start": 95.2528,
      "duration": 0.0892,
      "velocity": 102,
      "chip": "ym2612"
    },
    {
      "channel": 0,
      "note": 87,
      "start": 95.3597,
      "duration": 0.2898,
      "velocity": 102,
      "chip": "ym2612"
    },
    {
      "channel": 1,
      "note": 70,
      "start": 95.361,
      "duration": 0.1909,
      "velocity": 91,
      "chip": "ym2612"
    },
    {
      "channel": 3,
      "note": 70,
      "start": 95.3625,
      "duration": 0.1901,
      "velocity": 102,
      "chip": "ym2612"
    },
    {
      "channel": 4,
      "note": 73,
      "start": 95.3637,
      "duration": 0.2094,
      "velocity": 91,
      "chip": "ym2612"
    },
    {
      "channel": 2,
      "note": 83,
      "start": 95.4677,
      "duration": 1.268,
      "velocity": 102,
      "chip": "ym2612"
    },
    {
      "channel": 1,
      "note": 71,
      "start": 95.5705,
      "duration": 0.1657,
      "velocity": 91,
      "chip": "ym2612"
    },
    {
      "channel": 3,
      "note": 71,
      "start": 95.572,
      "duration": 0.1649,
      "velocity": 102,
      "chip": "ym2612"
    },
    {
      "channel": 4,
      "note": 61,
      "start": 95.5732,
      "duration": 0.0788,
      "velocity": 91,
      "chip": "ym2612"
    },
    {
      "channel": 0,
      "note": 83,
      "start": 95.6497,
      "duration": 1.2733,
      "velocity": 102,
      "chip": "ym2612"
    },
    {
      "channel": 4,
      "note": 73,
      "start": 95.6522,
      "duration": 0.1056,
      "velocity": 91,
      "chip": "ym2612"
    },
    {
      "channel": 1,
      "note": 70,
      "start": 95.7551,
      "duration": 0.1966,
      "velocity": 91,
      "chip": "ym2612"
    },
    {
      "channel": 3,
      "note": 70,
      "start": 95.7568,
      "duration": 0.1957,
      "velocity": 102,
      "chip": "ym2612"
    },
    {
      "channel": 4,
      "note": 56,
      "start": 95.758,
      "duration": 0.1061,
      "velocity": 91,
      "chip": "ym2612"
    },
    {
      "channel": 4,
      "note": 68,
      "start": 95.8642,
      "duration": 0.1089,
      "velocity": 91,
      "chip": "ym2612"
    },
    {
      "channel": 1,
      "note": 71,
      "start": 95.9705,
      "duration": 0.2805,
      "velocity": 91,
      "chip": "ym2612"
    },
    {
      "channel": 3,
      "note": 71,
      "start": 95.9721,
      "duration": 0.2796,
      "velocity": 102,
      "chip": "ym2612"
    },
    {
      "channel": 4,
      "note": 59,
      "start": 95.9732,
      "duration": 0.1064,
      "velocity": 91,
      "chip": "ym2612"
    },
    {
      "channel": 4,
      "note": 71,
      "start": 96.0797,
      "duration": 0.082,
      "velocity": 91,
      "chip": "ym2612"
    },
    {
      "channel": 4,
      "note": 58,
      "start": 96.1619,
      "duration": 0.1107,
      "velocity": 91,
      "chip": "ym2612"
    },
    {
      "channel": 1,
      "note": 73,
      "start": 96.2699,
      "duration": 0.0694,
      "velocity": 91,
      "chip": "ym2612"
    },
    {
      "channel": 3,
      "note": 73,
      "start": 96.2715,
      "duration": 0.0685,
      "velocity": 102,
      "chip": "ym2612"
    },
    {
      "channel": 4,
      "note": 70,
      "start": 96.2727,
      "duration": 0.0818,
      "velocity": 91,
      "chip": "ym2612"
    },
    {
      "channel": 4,
      "note": 59,
      "start": 96.3546,
      "duration": 0.0778,
      "velocity": 91,
      "chip": "ym2612"
    },
    {
      "channel": 4,
      "note": 71,
      "start": 96.4326,
      "duration": 0.0845,
      "velocity": 91,
      "chip": "ym2612"
    },
    {
      "channel": 1,
      "note": 68,
      "start": 96.5146,
      "duration": 0.0898,
      "velocity": 91,
      "chip": "ym2612"
    },
    {
      "channel": 3,
      "note": 68,
      "start": 96.5161,
      "duration": 0.089,
      "velocity": 102,
      "chip": "ym2612"
    },
    {
      "channel": 4,
      "note": 60,
      "start": 96.5172,
      "duration": 0.1086,
      "velocity": 91,
      "chip": "ym2612"
    },
    {
      "channel": 1,
      "note": 70,
      "start": 96.6232,
      "duration": 0.0883,
      "velocity": 91,
      "chip": "ym2612"
    },
    {
      "channel": 3,
      "note": 70,
      "start": 96.6246,
      "duration": 0.0876,
      "velocity": 102,
      "chip": "ym2612"
    },
    {
      "channel": 4,
      "note": 72,
      "start": 96.6259,
      "duration": 0.1163,
      "velocity": 91,
      "chip": "ym2612"
    },
    {
      "channel": 1,
      "note": 71,
      "start": 96.7349,
      "duration": 0.0664,
      "velocity": 91,
      "chip": "ym2612"
    },
    {
      "channel": 3,
      "note": 71,
      "start": 96.7368,
      "duration": 0.0651,
      "velocity": 102,
      "chip": "ym2612"
    },
    {
      "channel": 4,
      "note": 61,
      "start": 96.7423,
      "duration": 0.1844,
      "velocity": 91,
      "chip": "ym2612"
    },
    {
      "channel": 1,
      "note": 71,
      "start": 96.8149,
      "duration": 0.0901,
      "velocity": 91,
      "chip": "ym2612"
    },
    {
      "channel": 3,
      "note": 71,
      "start": 96.8162,
      "duration": 0.0893,
      "velocity": 102,
      "chip": "ym2612"
    },
    {
      "channel": 1,
      "note": 70,
      "start": 96.9244,
      "duration": 0.1983,
      "velocity": 91,
      "chip": "ym2612"
    },
    {
      "channel": 3,
      "note": 70,
      "start": 96.9257,
      "duration": 0.1975,
      "velocity": 102,
      "chip": "ym2612"
    },
    {
      "channel": 4,
      "note": 73,
      "start": 96.9268,
      "duration": 0.218,
      "velocity": 91,
      "chip": "ym2612"
    },
    {
      "channel": 1,
      "note": 71,
      "start": 97.1413,
      "duration": 0.1704,
      "velocity": 91,
      "chip": "ym2612"
    },
    {
      "channel": 2,
      "note": 90,
      "start": 97.1425,
      "duration": 0.807,
      "velocity": 102,
      "chip": "ym2612"
    },
    {
      "channel": 3,
      "note": 71,
      "start": 97.1437,
      "duration": 0.1687,
      "velocity": 102,
      "chip": "ym2612"
    },
    {
      "channel": 4,
      "note": 61,
      "start": 97.145,
      "duration": 0.0771,
      "velocity": 91,
      "chip": "ym2612"
    },
    {
      "channel": 4,
      "note": 73,
      "start": 97.2223,
      "duration": 0.112,
      "velocity": 91,
      "chip": "ym2612"
    },
    {
      "channel": 0,
      "note": 90,
      "start": 97.3304,
      "duration": 0.8092,
      "velocity": 102,
      "chip": "ym2612"
    },
    {
      "channel": 1,
      "note": 70,
      "start": 97.3316,
      "duration": 0.1737,
      "velocity": 91,
      "chip": "ym2612"
    },
    {
      "channel": 3,
      "note": 70,
      "start": 97.3332,
      "duration": 0.1732,
      "velocity": 102,
      "chip": "ym2612"
    },
    {
      "channel": 4,
      "note": 56,
      "start": 97.3345,
      "duration": 0.1875,
      "velocity": 91,
      "chip": "ym2612"
    },
    {
      "channel": 1,
      "note": 73,
      "start": 97.5193,
      "duration": 0.304,
      "velocity": 91,
      "chip": "ym2612"
    },
    {
      "channel": 3,
      "note": 73,
      "start": 97.521,
      "duration": 0.3029,
      "velocity": 102,
      "chip": "ym2612"
    },
    {
      "channel": 4,
      "note": 59,
      "start": 97.5221,
      "duration": 0.1062,
      "velocity": 91,
      "chip": "ym2612"
    },
    {
      "channel": 4,
      "note": 71,
      "start": 97.6284,
      "duration": 0.1069,
      "velocity": 91,
      "chip": "ym2612"
    },
    {
      "channel": 4,
      "note": 58,
      "start": 97.7354,
      "duration": 0.1091,
      "velocity": 91,
      "chip": "ym2612"
    },
    {
      "channel": 1,
      "note": 71,
      "start": 97.842,
      "duration": 0.0885,
      "velocity": 91,
      "chip": "ym2612"
    },
    {
      "channel": 3,
      "note": 71,
      "start": 97.8434,
      "duration": 0.0878,
      "velocity": 102,
      "chip": "ym2612"
    },
    {
      "channel": 4,
      "note": 70,
      "start": 97.8446,
      "duration": 0.1068,
      "velocity": 91,
      "chip": "ym2612"
    },
    {
      "channel": 2,
      "note": 89,
      "start": 97.9496,
      "duration": 0.4098,
      "velocity": 102,
      "chip": "ym2612"
    },
    {
      "channel": 4,
      "note": 59,
      "start": 97.9516,
      "duration": 0.0838,
      "velocity": 91,
      "chip": "ym2612"
    },
    {
      "channel": 4,
      "note": 71,
      "start": 98.0355,
      "duration": 0.1082,
      "velocity": 91,
      "chip": "ym2612"
    },
    {
      "channel": 0,
      "note": 89,
      "start": 98.1397,
      "duration": 0.4044,
      "velocity": 102,
      "chip": "ym2612"
    },
    {
      "channel": 1,
      "note": 68,
      "start": 98.1409,
      "duration": 0.0869,
      "velocity": 91,
      "chip": "ym2612"
    },
    {
      "channel": 3,
      "note": 68,
      "start": 98.1425,
      "duration": 0.0861,
      "velocity": 102,
      "chip": "ym2612"
    },
    {
      "channel": 4,
      "note": 56,
      "start": 98.1438,
      "duration": 0.2214,
      "velocity": 91,
      "chip": "ym2612"
    },
    {
      "channel": 1,
      "note": 70,
      "start": 98.2464,
      "duration": 0.0922,
      "velocity": 91,
      "chip": "ym2612"
    },
    {
      "channel": 3,
      "note": 70,
      "start": 98.2479,
      "duration": 0.0914,
      "velocity": 102,
      "chip": "ym2612"
    },
    {
      "channel": 1,
      "note": 71,
      "start": 98.3584,
      "duration": 0.0691,
      "velocity": 91,
      "chip": "ym2612"
    },
    {
      "channel": 2,
      "note": 87,
      "start": 98.3596,
      "duration": 0.2893,
      "velocity": 102,
      "chip": "ym2612"
    },
    {
      "channel": 3,
      "note": 71,
      "start": 98.3609,
      "duration": 0.0675,
      "velocity": 102,
      "chip": "ym2612"
    },
    {
      "channel": 4,
      "note": 61,
      "start": 98.3653,
      "duration": 0.1828,
      "velocity": 91,
      "chip": "ym2612"
    },
    {
      "channel": 1,
      "note": 71,
      "start": 98.441,
      "duration": 0.0846,
      "velocity": 91,
      "chip": "ym2612"
    },
    {
      "channel": 3,
      "note": 71,
      "start": 98.4427,
      "duration": 0.0838,
      "velocity": 102,
      "chip": "ym2612"
    },
    {
      "channel": 0,
      "note": 87,
      "start": 98.5442,
      "duration": 0.2974,
      "velocity": 102,
      "chip": "ym2612"
    },
    {
      "channel": 1,
      "note": 70,
      "start": 98.5454,
      "duration": 0.1958,
      "velocity": 91,
      "chip": "ym2612"
    },
    {
      "channel": 3,
      "note": 70,
      "start": 98.5471,
      "duration": 0.1949,
      "velocity": 102,
      "chip": "ym2612"
    },
    {
      "channel": 4,
      "note": 73,
      "start": 98.5482,
      "duration": 0.2143,
      "velocity": 91,
      "chip": "ym2612"
    },
    {
      "channel": 2,
      "note": 89,
      "start": 98.649,
      "duration": 0.5144,
      "velocity": 102,
      "chip": "ym2612"
    },
    {
      "channel": 1,
      "note": 71,
      "start": 98.7598,
      "duration": 0.1685,
      "velocity": 91,
      "chip": "ym2612"
    },
    {
      "channel": 3,
      "note": 71,
      "start": 98.7615,
      "duration": 0.1675,
      "velocity": 102,
      "chip": "ym2612"
    },
    {
      "channel": 4,
      "note": 61,
      "start": 98.7627,
      "duration": 0.0815,
      "velocity": 91,
      "chip": "ym2612"
    },
    {
      "channel": 0,
      "note": 89,
      "start": 98.8418,
      "duration": 0.5111,
      "velocity": 102,
      "chip": "ym2612"
    },
    {
      "channel": 4,
      "note": 73,
      "start": 98.8443,
      "duration": 0.1055,
      "velocity": 91,
      "chip": "ym2612"
    },
    {
      "channel": 1,
      "note": 70,
      "start": 98.9471,
      "duration": 0.1967,
      "velocity": 91,
      "chip": "ym2612"
    },
    {
      "channel": 3,
      "note": 70,
      "start": 98.9488,
      "duration": 0.1958,
      "velocity": 102,
      "chip": "ym2612"
    },
    {
      "channel": 4,
      "note": 56,
      "start": 98.9499,
      "duration": 0.1063,
      "velocity": 91,
      "chip": "ym2612"
    },
    {
      "channel": 4,
      "note": 68,
      "start": 99.0563,
      "duration": 0.1094,
      "velocity": 91,
      "chip": "ym2612"
    },
    {
      "channel": 1,
      "note": 71,
      "start": 99.1627,
      "duration": 0.2814,
      "velocity": 91,
      "chip": "ym2612"
    },
    {
      "channel": 3,
      "note": 71,
      "start": 99.1647,
      "duration": 0.28,
      "velocity": 102,
      "chip": "ym2612"
    },
    {
      "channel": 4,
      "note": 59,
      "start": 99.1659,
      "duration": 0.1052,
      "velocity": 91,
      "chip": "ym2612"
    },
    {
      "channel": 4,
      "note": 71,
      "start": 99.2712,
      "duration": 0.0839,
      "velocity": 91,
      "chip": "ym2612"
    },
    {
      "channel": 4,
      "note": 58,
      "start": 99.3552,
      "duration": 0.1102,
      "velocity": 91,
      "chip": "ym2612"
    },
    {
      "channel": 1,
      "note": 73,
      "start": 99.4629,
      "duration": 0.07,
      "velocity": 91,
      "chip": "ym2612"
    },
    {
      "channel": 3,
      "note": 73,
      "start": 99.4644,
      "duration": 0.0692,
      "velocity": 102,
      "chip": "ym2612"
    },
    {
      "channel": 4,
      "note": 70,
      "start": 99.4656,
      "duration": 0.0823,
      "velocity": 91,
      "chip": "ym2612"
    },
    {
      "channel": 4,
      "note": 59,
      "start": 99.548,
      "duration": 0.0809,
      "velocity": 91,
      "chip": "ym2612"
    },
    {
      "channel": 4,
      "note": 71,
      "start": 99.6291,
      "duration": 0.0839,
      "velocity": 91,
      "chip": "ym2612"
    },
    {
      "channel": 1,
      "note": 68,
      "start": 99.7105,
      "duration": 0.0904,
      "velocity": 91,
      "chip": "ym2612"
    },
    {
      "channel": 3,
      "note": 68,
      "start": 99.7118,
      "duration": 0.0897,
      "velocity": 102,
      "chip": "ym2612"
    },
    {
      "channel": 4,
      "note": 60,
      "start": 99.7131,
      "duration": 0.109,
      "velocity": 91,
      "chip": "ym2612"
    },
    {
      "channel": 1,
      "note": 70,
      "start": 99.8197,
      "duration": 0.0858,
      "velocity": 91,
      "chip": "ym2612"
    },
    {
      "channel": 3,
      "note": 70,
      "start": 99.821,
      "duration": 0.085,
      "velocity": 102,
      "chip": "ym2612"
    },
    {
      "channel": 4,
      "note": 72,
      "start": 99.8223,
      "duration": 0.1098,
      "velocity": 91,
      "chip": "ym2612"
    },
    {
      "channel": 1,
      "note": 71,
      "start": 99.9253,
      "duration": 0.0699,
      "velocity": 91,
      "chip": "ym2612"
    },
    {
      "channel": 3,
      "note": 71,
      "start": 99.9273,
      "duration": 0.0686,
      "velocity": 102,
      "chip": "ym2612"
    },
    {
      "channel": 4,
      "note": 61,
      "start": 99.9322,
      "duration": 0.1901,
      "velocity": 91,
      "chip": "ym2612"
    },
    {
      "channel": 1,
      "note": 71,
      "start": 100.0097,
      "duration": 0.0907,
      "velocity": 91,
      "chip": "ym2612"
    },
    {
      "channel": 3,
      "note": 71,
      "start": 100.0112,
      "duration": 0.0897,
      "velocity": 102,
      "chip": "ym2612"
    },
    {
      "channel": 1,
      "note": 70,
      "start": 100.1198,
      "duration": 0.1984,
      "velocity": 91,
      "chip": "ym2612"
    },
    {
      "channel": 3,
      "note": 70,
      "start": 100.1212,
      "duration": 0.1975,
      "velocity": 102,
      "chip": "ym2612"
    },
    {
      "channel": 4,
      "note": 73,
      "start": 100.1224,
      "duration": 0.218,
      "velocity": 91,
      "chip": "ym2612"
    },
    {
      "channel": 1,
      "note": 71,
      "start": 100.3368,
      "duration": 0.1704,
      "velocity": 91,
      "chip": "ym2612"
    },
    {
      "channel": 2,
      "note": 90,
      "start": 100.3381,
      "duration": 0.8109,
      "velocity": 102,
      "chip": "ym2612"
    },
    {
      "channel": 3,
      "note": 71,
      "start": 100.3393,
      "duration": 0.1687,
      "velocity": 102,
      "chip": "ym2612"
    },
    {
      "channel": 4,
      "note": 61,
      "start": 100.3406,
      "duration": 0.0771,
      "velocity": 91,
      "chip": "ym2612"
    },
    {
      "channel": 4,
      "note": 73,
      "start": 100.4178,
      "duration": 0.112,
      "velocity": 91,
      "chip": "ym2612"
    },
    {
      "channel": 0,
      "note": 90,
      "start": 100.526,
      "duration": 0.7908,
      "velocity": 102,
      "chip": "ym2612"
    },
    {
      "channel": 1,
      "note": 70,
      "start": 100.5272,
      "duration": 0.1734,
      "velocity": 91,
      "chip": "ym2612"
    },
    {
      "channel": 3,
      "note": 70,
      "start": 100.5287,
      "duration": 0.1728,
      "velocity": 102,
      "chip": "ym2612"
    },
    {
      "channel": 4,
      "note": 56,
      "start": 100.53,
      "duration": 0.187,
      "velocity": 91,
      "chip": "ym2612"
    },
    {
      "channel": 1,
      "note": 73,
      "start": 100.7144,
      "duration": 0.308,
      "velocity": 91,
      "chip": "ym2612"
    },
    {
      "channel": 3,
      "note": 73,
      "start": 100.716,
      "duration": 0.3071,
      "velocity": 102,
      "chip": "ym2612"
    },
    {
      "channel": 4,
      "note": 59,
      "start": 100.7171,
      "duration": 0.1063,
      "velocity": 91,
      "chip": "ym2612"
    },
    {
      "channel": 4,
      "note": 71,
      "start": 100.8236,
      "duration": 0.1069,
      "velocity": 91,
      "chip": "ym2612"
    },
    {
      "channel": 4,
      "note": 58,
      "start": 100.9306,
      "duration": 0.113,
      "velocity": 91,
      "chip": "ym2612"
    },
    {
      "channel": 1,
      "note": 71,
      "start": 101.0412,
      "duration": 0.0888,
      "velocity": 91,
      "chip": "ym2612"
    },
    {
      "channel": 3,
      "note": 71,
      "start": 101.0426,
      "duration": 0.0881,
      "velocity": 102,
      "chip": "ym2612"
    },
    {
      "channel": 4,
      "note": 70,
      "start": 101.0438,
      "duration": 0.1071,
      "velocity": 91,
      "chip": "ym2612"
    },
    {
      "channel": 2,
      "note": 89,
      "start": 101.1491,
      "duration": 0.3567,
      "velocity": 102,
      "chip": "ym2612"
    },
    {
      "channel": 4,
      "note": 59,
      "start": 101.1511,
      "duration": 0.0763,
      "velocity": 91,
      "chip": "ym2612"
    },
    {
      "channel": 4,
      "note": 71,
      "start": 101.2275,
      "duration": 0.0934,
      "velocity": 91,
      "chip": "ym2612"
    },
    {
      "channel": 0,
      "note": 89,
      "start": 101.317,
      "duration": 0.1805,
      "velocity": 102,
      "chip": "ym2612"
    },
    {
      "channel": 1,
      "note": 68,
      "start": 101.3181,
      "duration": 0.069,
      "velocity": 91,
      "chip": "ym2612"
    },
    {
      "channel": 3,
      "note": 68,
      "start": 101.3198,
      "duration": 0.0684,
      "velocity": 102,
      "chip": "ym2612"
    },
    {
      "channel": 4,
      "note": 56,
      "start": 101.3211,
      "duration": 0.1897,
      "velocity": 127,
      "chip": "ym2612"
    },
    {
      "channel": 1,
      "note": 70,
      "start": 101.4005,
      "duration": 0.0765,
      "velocity": 91,
      "chip": "ym2612"
    },
    {
      "channel": 3,
      "note": 70,
      "start": 101.4021,
      "duration": 0.0758,
      "velocity": 102,
      "chip": "ym2612"
    },
    {
      "channel": 0,
      "note": 76,
      "start": 101.5772,
      "duration": 0.0499,
      "velocity": 102,
      "chip": "ym2612"
    },
    {
      "channel": 1,
      "note": 73,
      "start": 101.5784,
      "duration": 0.0492,
      "velocity": 102,
      "chip": "ym2612"
    },
    {
      "channel": 2,
      "note": 85,
      "start": 101.5797,
      "duration": 0.0485,
      "velocity": 102,
      "chip": "ym2612"
    },
    {
      "channel": 3,
      "note": 73,
      "start": 101.5808,
      "duration": 0.0479,
      "velocity": 102,
      "chip": "ym2612"
    },
    {
      "channel": 4,
      "note": 61,
      "start": 101.582,
      "duration": 0.0473,
      "velocity": 127,
      "chip": "ym2612"
    },
    {
      "channel": 0,
      "note": 76,
      "start": 101.662,
      "duration": 0.0417,
      "velocity": 102,
      "chip": "ym2612"
    },
    {
      "channel": 1,
      "note": 73,
      "start": 101.6632,
      "duration": 0.0411,
      "velocity": 102,
      "chip": "ym2612"
    },
    {
      "channel": 2,
      "note": 85,
      "start": 101.6644,
      "duration": 0.0405,
      "velocity": 102,
      "chip": "ym2612"
    },
    {
      "channel": 3,
      "note": 73,
      "start": 101.6655,
      "duration": 0.0398,
      "velocity": 102,
      "chip": "ym2612"
    },
    {
      "channel": 4,
      "note": 61,
      "start": 101.6668,
      "duration": 0.0391,
      "velocity": 127,
      "chip": "ym2612"
    },
    {
      "channel": 0,
      "note": 76,
      "start": 101.7436,
      "duration": 0.0446,
      "velocity": 102,
      "chip": "ym2612"
    },
    {
      "channel": 1,
      "note": 73,
      "start": 101.7448,
      "duration": 0.0439,
      "velocity": 102,
      "chip": "ym2612"
    },
    {
      "channel": 2,
      "note": 85,
      "start": 101.746,
      "duration": 0.0433,
      "velocity": 102,
      "chip": "ym2612"
    },
    {
      "channel": 3,
      "note": 73,
      "start": 101.7471,
      "duration": 0.0427,
      "velocity": 102,
      "chip": "ym2612"
    },
    {
      "channel": 4,
      "note": 61,
      "start": 101.7485,
      "duration": 0.0418,
      "velocity": 127,
      "chip": "ym2612"
    },
    {
      "channel": 0,
      "note": 76,
      "start": 101.9084,
      "duration": 0.0475,
      "velocity": 102,
      "chip": "ym2612"
    },
    {
      "channel": 1,
      "note": 73,
      "start": 101.9096,
      "duration": 0.0468,
      "velocity": 102,
      "chip": "ym2612"
    },
    {
      "channel": 2,
      "note": 85,
      "start": 101.9108,
      "duration": 0.0462,
      "velocity": 102,
      "chip": "ym2612"
    },
    {
      "channel": 3,
      "note": 73,
      "start": 101.9121,
      "duration": 0.0454,
      "velocity": 102,
      "chip": "ym2612"
    },
    {
      "channel": 4,
      "note": 61,
      "start": 101.9132,
      "duration": 0.0448,
      "velocity": 127,
      "chip": "ym2612"
    },
    {
      "channel": 0,
      "note": 76,
      "start": 101.9891,
      "duration": 0.045,
      "velocity": 102,
      "chip": "ym2612"
    },
    {
      "channel": 1,
      "note": 73,
      "start": 101.9902,
      "duration": 0.0444,
      "velocity": 102,
      "chip": "ym2612"
    },
    {
      "channel": 2,
      "note": 85,
      "start": 101.9915,
      "duration": 0.0438,
      "velocity": 102,
      "chip": "ym2612"
    },
    {
      "channel": 3,
      "note": 73,
      "start": 101.9927,
      "duration": 0.043,
      "velocity": 102,
      "chip": "ym2612"
    },
    {
      "channel": 4,
      "note": 61,
      "start": 101.9939,
      "duration": 0.0424,
      "velocity": 127,
      "chip": "ym2612"
    },
    {
      "channel": 0,
      "note": 76,
      "start": 102.0741,
      "duration": 0.0447,
      "velocity": 102,
      "chip": "ym2612"
    },
    {
      "channel": 1,
      "note": 73,
      "start": 102.0753,
      "duration": 0.044,
      "velocity": 102,
      "chip": "ym2612"
    },
    {
      "channel": 2,
      "note": 85,
      "start": 102.0765,
      "duration": 0.0434,
      "velocity": 102,
      "chip": "ym2612"
    },
    {
      "channel": 3,
      "note": 73,
      "start": 102.0776,
      "duration": 0.0428,
      "velocity": 102,
      "chip": "ym2612"
    },
    {
      "channel": 4,
      "note": 61,
      "start": 102.079,
      "duration": 0.042,
      "velocity": 127,
      "chip": "ym2612"
    },
    {
      "channel": 0,
      "note": 76,
      "start": 102.1569,
      "duration": 0.0432,
      "velocity": 102,
      "chip": "ym2612"
    },
    {
      "channel": 1,
      "note": 73,
      "start": 102.1581,
      "duration": 0.0425,
      "velocity": 102,
      "chip": "ym2612"
    },
    {
      "channel": 2,
      "note": 85,
      "start": 102.1594,
      "duration": 0.0418,
      "velocity": 102,
      "chip": "ym2612"
    },
    {
      "channel": 3,
      "note": 73,
      "start": 102.1605,
      "duration": 0.0412,
      "velocity": 102,
      "chip": "ym2612"
    },
    {
      "channel": 4,
      "note": 61,
      "start": 102.2382,
      "duration": 0.0434,
      "velocity": 127,
      "chip": "ym2612"
    },
    {
      "channel": 0,
      "note": 76,
      "start": 102.3184,
      "duration": 0.04,
      "velocity": 102,
      "chip": "ym2612"
    },
    {
      "channel": 1,
      "note": 73,
      "start": 102.3197,
      "duration": 0.0393,
      "velocity": 102,
      "chip": "ym2612"
    },
    {
      "channel": 2,
      "note": 85,
      "start": 102.3209,
      "duration": 0.0385,
      "velocity": 102,
      "chip": "ym2612"
    },
    {
      "channel": 3,
      "note": 73,
      "start": 102.3221,
      "duration": 0.038,
      "velocity": 102,
      "chip": "ym2612"
    },
    {
      "channel": 4,
      "note": 61,
      "start": 102.3234,
      "duration": 0.0372,
      "velocity": 127,
      "chip": "ym2612"
    },
    {
      "channel": 4,
      "note": 61,
      "start": 102.4014,
      "duration": 0.0428,
      "velocity": 127,
      "chip": "ym2612"
    },
    {
      "channel": 0,
      "note": 76,
      "start": 102.4813,
      "duration": 0.051,
      "velocity": 102,
      "chip": "ym2612"
    },
    {
      "channel": 1,
      "note": 73,
      "start": 102.4826,
      "duration": 0.0503,
      "velocity": 102,
      "chip": "ym2612"
    },
    {
      "channel": 2,
      "note": 85,
      "start": 102.4838,
      "duration": 0.0497,
      "velocity": 102,
      "chip": "ym2612"
    },
    {
      "channel": 3,
      "note": 73,
      "start": 102.485,
      "duration": 0.049,
      "velocity": 102,
      "chip": "ym2612"
    },
    {
      "channel": 0,
      "note": 76,
      "start": 102.5698,
      "duration": 0.0474,
      "velocity": 102,
      "chip": "ym2612"
    },
    {
      "channel": 1,
      "note": 73,
      "start": 102.571,
      "duration": 0.0467,
      "velocity": 102,
      "chip": "ym2612"
    },
    {
      "channel": 2,
      "note": 85,
      "start": 102.5722,
      "duration": 0.0461,
      "velocity": 102,
      "chip": "ym2612"
    },
    {
      "channel": 3,
      "note": 73,
      "start": 102.5734,
      "duration": 0.0454,
      "velocity": 102,
      "chip": "ym2612"
    },
    {
      "channel": 4,
      "note": 61,
      "start": 102.5746,
      "duration": 0.0448,
      "velocity": 127,
      "chip": "ym2612"
    },
    {
      "channel": 0,
      "note": 76,
      "start": 102.6504,
      "duration": 0.0417,
      "velocity": 102,
      "chip": "ym2612"
    },
    {
      "channel": 1,
      "note": 73,
      "start": 102.6516,
      "duration": 0.0411,
      "velocity": 102,
      "chip": "ym2612"
    },
    {
      "channel": 2,
      "note": 85,
      "start": 102.6528,
      "duration": 0.0405,
      "velocity": 102,
      "chip": "ym2612"
    },
    {
      "channel": 3,
      "note": 73,
      "start": 102.654,
      "duration": 0.0398,
      "velocity": 102,
      "chip": "ym2612"
    },
    {
      "channel": 4,
      "note": 61,
      "start": 102.6552,
      "duration": 0.0391,
      "velocity": 127,
      "chip": "ym2612"
    },
    {
      "channel": 0,
      "note": 76,
      "start": 102.732,
      "duration": 0.0447,
      "velocity": 102,
      "chip": "ym2612"
    },
    {
      "channel": 1,
      "note": 73,
      "start": 102.7332,
      "duration": 0.044,
      "velocity": 102,
      "chip": "ym2612"
    },
    {
      "channel": 2,
      "note": 85,
      "start": 102.7345,
      "duration": 0.0434,
      "velocity": 102,
      "chip": "ym2612"
    },
    {
      "channel": 3,
      "note": 73,
      "start": 102.7356,
      "duration": 0.0428,
      "velocity": 102,
      "chip": "ym2612"
    },
    {
      "channel": 4,
      "note": 61,
      "start": 102.7369,
      "duration": 0.042,
      "velocity": 127,
      "chip": "ym2612"
    },
    {
      "channel": 4,
      "note": 61,
      "start": 102.8327,
      "duration": 0.0293,
      "velocity": 97,
      "chip": "ym2612"
    },
    {
      "channel": 1,
      "note": 61,
      "start": 102.8986,
      "duration": 0.0945,
      "velocity": 90,
      "chip": "ym2612"
    },
    {
      "channel": 2,
      "note": 85,
      "start": 102.8998,
      "duration": 0.0936,
      "velocity": 89,
      "chip": "ym2612"
    },
    {
      "channel": 3,
      "note": 73,
      "start": 102.9009,
      "duration": 0.0929,
      "velocity": 91,
      "chip": "ym2612"
    },
    {
      "channel": 4,
      "note": 61,
      "start": 102.9021,
      "duration": 0.0586,
      "velocity": 97,
      "chip": "ym2612"
    },
    {
      "channel": 1,
      "note": 61,
      "start": 103.011,
      "duration": 0.0987,
      "velocity": 90,
      "chip": "ym2612"
    },
    {
      "channel": 2,
      "note": 85,
      "start": 103.0119,
      "duration": 0.0982,
      "velocity": 89,
      "chip": "ym2612"
    },
    {
      "channel": 3,
      "note": 73,
      "start": 103.0127,
      "duration": 0.0978,
      "velocity": 91,
      "chip": "ym2612"
    },
    {
      "channel": 4,
      "note": 61,
      "start": 103.0136,
      "duration": 0.0637,
      "velocity": 97,
      "chip": "ym2612"
    },
    {
      "channel": 1,
      "note": 61,
      "start": 103.1276,
      "duration": 0.0988,
      "velocity": 90,
      "chip": "ym2612"
    },
    {
      "channel": 2,
      "note": 85,
      "start": 103.1285,
      "duration": 0.0983,
      "velocity": 89,
      "chip": "ym2612"
    },
    {
      "channel": 3,
      "note": 73,
      "start": 103.1294,
      "duration": 0.0978,
      "velocity": 91,
      "chip": "ym2612"
    },
    {
      "channel": 4,
      "note": 61,
      "start": 103.1302,
      "duration": 0.0637,
      "velocity": 97,
      "chip": "ym2612"
    },
    {
      "channel": 4,
      "note": 61,
      "start": 103.247,
      "duration": 0.043,
      "velocity": 97,
      "chip": "ym2612"
    },
    {
      "channel": 1,
      "note": 61,
      "start": 103.3225,
      "duration": 0.0836,
      "velocity": 90,
      "chip": "ym2612"
    },
    {
      "channel": 2,
      "note": 85,
      "start": 103.3238,
      "duration": 0.0827,
      "velocity": 89,
      "chip": "ym2612"
    },
    {
      "channel": 3,
      "note": 73,
      "start": 103.3251,
      "duration": 0.0819,
      "velocity": 91,
      "chip": "ym2612"
    },
    {
      "channel": 4,
      "note": 61,
      "start": 103.3263,
      "duration": 0.0475,
      "velocity": 97,
      "chip": "ym2612"
    },
    {
      "channel": 1,
      "note": 61,
      "start": 103.424,
      "duration": 0.0987,
      "velocity": 90,
      "chip": "ym2612"
    },
    {
      "channel": 2,
      "note": 85,
      "start": 103.425,
      "duration": 0.0982,
      "velocity": 89,
      "chip": "ym2612"
    },
    {
      "channel": 3,
      "note": 73,
      "start": 103.4259,
      "duration": 0.0976,
      "velocity": 91,
      "chip": "ym2612"
    },
    {
      "channel": 4,
      "note": 61,
      "start": 103.4269,
      "duration": 0.0635,
      "velocity": 97,
      "chip": "ym2612"
    },
    {
      "channel": 1,
      "note": 61,
      "start": 103.5417,
      "duration": 0.0698,
      "velocity": 90,
      "chip": "ym2612"
    },
    {
      "channel": 2,
      "note": 85,
      "start": 103.543,
      "duration": 0.0689,
      "velocity": 89,
      "chip": "ym2612"
    },
    {
      "channel": 3,
      "note": 73,
      "start": 103.5443,
      "duration": 0.0681,
      "velocity": 91,
      "chip": "ym2612"
    },
    {
      "channel": 4,
      "note": 61,
      "start": 103.5455,
      "duration": 0.0436,
      "velocity": 97,
      "chip": "ym2612"
    },
    {
      "channel": 4,
      "note": 61,
      "start": 103.6269,
      "duration": 0.0598,
      "velocity": 97,
      "chip": "ym2612"
    },
    {
      "channel": 1,
      "note": 61,
      "start": 103.7377,
      "duration": 0.0987,
      "velocity": 90,
      "chip": "ym2612"
    },
    {
      "channel": 2,
      "note": 85,
      "start": 103.7386,
      "duration": 0.0982,
      "velocity": 89,
      "chip": "ym2612"
    },
    {
      "channel": 3,
      "note": 73,
      "start": 103.7395,
      "duration": 0.0978,
      "velocity": 91,
      "chip": "ym2612"
    },
    {
      "channel": 4,
      "note": 61,
      "start": 103.7403,
      "duration": 0.0637,
      "velocity": 97,
      "chip": "ym2612"
    },
    {
      "channel": 1,
      "note": 61,
      "start": 103.8544,
      "duration": 0.0987,
      "velocity": 90,
      "chip": "ym2612"
    },
    {
      "channel": 2,
      "note": 85,
      "start": 103.8553,
      "duration": 0.0982,
      "velocity": 89,
      "chip": "ym2612"
    },
    {
      "channel": 3,
      "note": 73,
      "start": 103.8561,
      "duration": 0.0978,
      "velocity": 91,
      "chip": "ym2612"
    },
    {
      "channel": 4,
      "note": 61,
      "start": 103.857,
      "duration": 0.0637,
      "velocity": 97,
      "chip": "ym2612"
    },
    {
      "channel": 1,
      "note": 61,
      "start": 103.9711,
      "duration": 0.0987,
      "velocity": 90,
      "chip": "ym2612"
    },
    {
      "channel": 2,
      "note": 85,
      "start": 103.972,
      "duration": 0.0982,
      "velocity": 89,
      "chip": "ym2612"
    },
    {
      "channel": 3,
      "note": 73,
      "start": 103.9728,
      "duration": 0.0978,
      "velocity": 91,
      "chip": "ym2612"
    },
    {
      "channel": 4,
      "note": 61,
      "start": 103.9737,
      "duration": 0.0637,
      "velocity": 97,
      "chip": "ym2612"
    },
    {
      "channel": 4,
      "note": 61,
      "start": 104.0891,
      "duration": 0.0642,
      "velocity": 97,
      "chip": "ym2612"
    },
    {
      "channel": 1,
      "note": 61,
      "start": 104.2043,
      "duration": 0.0988,
      "velocity": 90,
      "chip": "ym2612"
    },
    {
      "channel": 2,
      "note": 85,
      "start": 104.2052,
      "duration": 0.0983,
      "velocity": 89,
      "chip": "ym2612"
    },
    {
      "channel": 3,
      "note": 73,
      "start": 104.2061,
      "duration": 0.0978,
      "velocity": 91,
      "chip": "ym2612"
    },
    {
      "channel": 4,
      "note": 61,
      "start": 104.2069,
      "duration": 0.0637,
      "velocity": 97,
      "chip": "ym2612"
    },
    {
      "channel": 1,
      "note": 61,
      "start": 104.3211,
      "duration": 0.0987,
      "velocity": 90,
      "chip": "ym2612"
    },
    {
      "channel": 2,
      "note": 85,
      "start": 104.322,
      "duration": 0.0982,
      "velocity": 89,
      "chip": "ym2612"
    },
    {
      "channel": 3,
      "note": 73,
      "start": 104.3229,
      "duration": 0.0977,
      "velocity": 91,
      "chip": "ym2612"
    },
    {
      "channel": 4,
      "note": 61,
      "start": 104.3237,
      "duration": 0.0636,
      "velocity": 97,
      "chip": "ym2612"
    },
    {
      "channel": 1,
      "note": 61,
      "start": 104.4378,
      "duration": 0.0987,
      "velocity": 90,
      "chip": "ym2612"
    },
    {
      "channel": 2,
      "note": 85,
      "start": 104.4386,
      "duration": 0.0982,
      "velocity": 89,
      "chip": "ym2612"
    },
    {
      "channel": 3,
      "note": 73,
      "start": 104.4395,
      "duration": 0.0977,
      "velocity": 91,
      "chip": "ym2612"
    },
    {
      "channel": 4,
      "note": 61,
      "start": 104.4404,
      "duration": 0.0636,
      "velocity": 97,
      "chip": "ym2612"
    },
    {
      "channel": 4,
      "note": 61,
      "start": 104.5742,
      "duration": 0.0298,
      "velocity": 97,
      "chip": "ym2612"
    },
    {
      "channel": 1,
      "note": 61,
      "start": 104.6406,
      "duration": 0.0941,
      "velocity": 90,
      "chip": "ym2612"
    },
    {
      "channel": 2,
      "note": 85,
      "start": 104.6418,
      "duration": 0.0933,
      "velocity": 89,
      "chip": "ym2612"
    },
    {
      "channel": 3,
      "note": 73,
      "start": 104.6431,
      "duration": 0.0924,
      "velocity": 91,
      "chip": "ym2612"
    },
    {
      "channel": 4,
      "note": 61,
      "start": 104.6443,
      "duration": 0.058,
      "velocity": 97,
      "chip": "ym2612"
    },
    {
      "channel": 1,
      "note": 61,
      "start": 104.7528,
      "duration": 0.0987,
      "velocity": 90,
      "chip": "ym2612"
    },
    {
      "channel": 2,
      "note": 85,
      "start": 104.7536,
      "duration": 0.0982,
      "velocity": 89,
      "chip": "ym2612"
    },
    {
      "channel": 3,
      "note": 73,
      "start": 104.7545,
      "duration": 0.0977,
      "velocity": 91,
      "chip": "ym2612"
    },
    {
      "channel": 4,
      "note": 61,
      "start": 104.7554,
      "duration": 0.0636,
      "velocity": 97,
      "chip": "ym2612"
    },
    {
      "channel": 1,
      "note": 61,
      "start": 104.8693,
      "duration": 0.0988,
      "velocity": 90,
      "chip": "ym2612"
    },
    {
      "channel": 2,
      "note": 85,
      "start": 104.8702,
      "duration": 0.0983,
      "velocity": 89,
      "chip": "ym2612"
    },
    {
      "channel": 3,
      "note": 73,
      "start": 104.871,
      "duration": 0.0978,
      "velocity": 91,
      "chip": "ym2612"
    },
    {
      "channel": 4,
      "note": 61,
      "start": 104.8719,
      "duration": 0.0637,
      "velocity": 97,
      "chip": "ym2612"
    },
    {
      "channel": 4,
      "note": 61,
      "start": 104.9874,
      "duration": 0.0642,
      "velocity": 97,
      "chip": "ym2612"
    },
    {
      "channel": 1,
      "note": 61,
      "start": 105.1026,
      "duration": 0.0988,
      "velocity": 90,
      "chip": "ym2612"
    },
    {
      "channel": 2,
      "note": 85,
      "start": 105.1035,
      "duration": 0.0983,
      "velocity": 89,
      "chip": "ym2612"
    },
    {
      "channel": 3,
      "note": 73,
      "start": 105.1044,
      "duration": 0.0978,
      "velocity": 91,
      "chip": "ym2612"
    },
    {
      "channel": 4,
      "note": 61,
      "start": 105.1052,
      "duration": 0.0639,
      "velocity": 97,
      "chip": "ym2612"
    },
    {
      "channel": 1,
      "note": 61,
      "start": 105.2194,
      "duration": 0.0987,
      "velocity": 90,
      "chip": "ym2612"
    },
    {
      "channel": 2,
      "note": 85,
      "start": 105.2203,
      "duration": 0.0982,
      "velocity": 89,
      "chip": "ym2612"
    },
    {
      "channel": 3,
      "note": 73,
      "start": 105.2211,
      "duration": 0.0977,
      "velocity": 91,
      "chip": "ym2612"
    },
    {
      "channel": 4,
      "note": 61,
      "start": 105.222,
      "duration": 0.0637,
      "velocity": 97,
      "chip": "ym2612"
    },
    {
      "channel": 1,
      "note": 61,
      "start": 105.3371,
      "duration": 0.0696,
      "velocity": 90,
      "chip": "ym2612"
    },
    {
      "channel": 2,
      "note": 85,
      "start": 105.3384,
      "duration": 0.0688,
      "velocity": 89,
      "chip": "ym2612"
    },
    {
      "channel": 3,
      "note": 73,
      "start": 105.3396,
      "duration": 0.0682,
      "velocity": 91,
      "chip": "ym2612"
    },
    {
      "channel": 4,
      "note": 61,
      "start": 105.3408,
      "duration": 0.0444,
      "velocity": 97,
      "chip": "ym2612"
    },
    {
      "channel": 4,
      "note": 61,
      "start": 105.4219,
      "duration": 0.0601,
      "velocity": 97,
      "chip": "ym2612"
    },
    {
      "channel": 1,
      "note": 61,
      "start": 105.533,
      "duration": 0.0987,
      "velocity": 90,
      "chip": "ym2612"
    },
    {
      "channel": 2,
      "note": 85,
      "start": 105.5339,
      "duration": 0.0983,
      "velocity": 89,
      "chip": "ym2612"
    },
    {
      "channel": 3,
      "note": 73,
      "start": 105.5348,
      "duration": 0.0978,
      "velocity": 91,
      "chip": "ym2612"
    },
    {
      "channel": 4,
      "note": 61,
      "start": 105.5356,
      "duration": 0.0637,
      "velocity": 97,
      "chip": "ym2612"
    },
    {
      "channel": 1,
      "note": 61,
      "start": 105.6497,
      "duration": 0.0987,
      "velocity": 90,
      "chip": "ym2612"
    },
    {
      "channel": 2,
      "note": 85,
      "start": 105.6506,
      "duration": 0.0982,
      "velocity": 89,
      "chip": "ym2612"
    },
    {
      "channel": 3,
      "note": 73,
      "start": 105.6514,
      "duration": 0.0978,
      "velocity": 91,
      "chip": "ym2612"
    },
    {
      "channel": 4,
      "note": 61,
      "start": 105.6523,
      "duration": 0.0637,
      "velocity": 97,
      "chip": "ym2612"
    },
    {
      "channel": 1,
      "note": 61,
      "start": 105.7663,
      "duration": 0.0988,
      "velocity": 90,
      "chip": "ym2612"
    },
    {
      "channel": 2,
      "note": 85,
      "start": 105.7672,
      "duration": 0.0983,
      "velocity": 89,
      "chip": "ym2612"
    },
    {
      "channel": 3,
      "note": 73,
      "start": 105.768,
      "duration": 0.0978,
      "velocity": 91,
      "chip": "ym2612"
    },
    {
      "channel": 4,
      "note": 61,
      "start": 105.7689,
      "duration": 0.0637,
      "velocity": 97,
      "chip": "ym2612"
    },
    {
      "channel": 4,
      "note": 61,
      "start": 105.8844,
      "duration": 0.0642,
      "velocity": 97,
      "chip": "ym2612"
    },
    {
      "channel": 1,
      "note": 61,
      "start": 105.9996,
      "duration": 0.0988,
      "velocity": 90,
      "chip": "ym2612"
    },
    {
      "channel": 2,
      "note": 85,
      "start": 106.0005,
      "duration": 0.0983,
      "velocity": 89,
      "chip": "ym2612"
    },
    {
      "channel": 3,
      "note": 73,
      "start": 106.0014,
      "duration": 0.0978,
      "velocity": 91,
      "chip": "ym2612"
    },
    {
      "channel": 4,
      "note": 61,
      "start": 106.0022,
      "duration": 0.0637,
      "velocity": 97,
      "chip": "ym2612"
    },
    {
      "channel": 1,
      "note": 61,
      "start": 106.1164,
      "duration": 0.0987,
      "velocity": 90,
      "chip": "ym2612"
    },
    {
      "channel": 2,
      "note": 85,
      "start": 106.1172,
      "duration": 0.0983,
      "velocity": 89,
      "chip": "ym2612"
    },
    {
      "channel": 3,
      "note": 73,
      "start": 106.1181,
      "duration": 0.0978,
      "velocity": 91,
      "chip": "ym2612"
    },
    {
      "channel": 4,
      "note": 61,
      "start": 106.119,
      "duration": 0.0637,
      "velocity": 97,
      "chip": "ym2612"
    },
    {
      "channel": 1,
      "note": 61,
      "start": 106.233,
      "duration": 0.0987,
      "velocity": 90,
      "chip": "ym2612"
    },
    {
      "channel": 2,
      "note": 85,
      "start": 106.2339,
      "duration": 0.0982,
      "velocity": 89,
      "chip": "ym2612"
    },
    {
      "channel": 3,
      "note": 73,
      "start": 106.2347,
      "duration": 0.0978,
      "velocity": 91,
      "chip": "ym2612"
    },
    {
      "channel": 4,
      "note": 61,
      "start": 106.2356,
      "duration": 0.0637,
      "velocity": 97,
      "chip": "ym2612"
    }
  ]
}