{
  "track_name": "04 - Cliffs",
  "duration_sec": 101.245,
  "sample_rate": 44100,
  "note_count": 1758,
  "unique_pitches": 23,
  "pitch_range": 44,
  "avg_note_duration": 0.1366,
  "reconstruction_stats": {
    "notes_reconstructed": 1758,
    "keyon_events": 1758,
    "keyoff_events": 1757,
    "orphan_keyons": 1,
    "unique_pitches": 23,
    "pitch_range": 44,
    "avg_duration_sec": 0.1366
  },
  "metadata": {
    "source": "Z\\Zero the Kamikaze Squirrel\\04 - Cliffs.vgm"
  },
  "notes": [
    {
      "channel": 0,
      "note": 50,
      "start": 0.0022,
      "duration": 0.0606,
      "velocity": 88,
      "chip": "ym2612"
    },
    {
      "channel": 1,
      "note": 57,
      "start": 0.0102,
      "duration": 0.0361,
      "velocity": 123,
      "chip": "ym2612"
    },
    {
      "channel": 3,
      "note": 62,
      "start": 0.0134,
      "duration": 0.0105,
      "velocity": 123,
      "chip": "ym2612"
    },
    {
      "channel": 4,
      "note": 33,
      "start": 0.0189,
      "duration": 0.1941,
      "velocity": 113,
      "chip": "ym2612"
    },
    {
      "channel": 5,
      "note": 38,
      "start": 0.0524,
      "duration": 0.0607,
      "velocity": 93,
      "chip": "ym2612"
    },
    {
      "channel": 1,
      "note": 57,
      "start": 0.1334,
      "duration": 0.0962,
      "velocity": 123,
      "chip": "ym2612"
    },
    {
      "channel": 3,
      "note": 62,
      "start": 0.136,
      "duration": 0.0937,
      "velocity": 123,
      "chip": "ym2612"
    },
    {
      "channel": 0,
      "note": 50,
      "start": 0.2829,
      "duration": 0.0467,
      "velocity": 88,
      "chip": "ym2612"
    },
    {
      "channel": 1,
      "note": 55,
      "start": 0.2858,
      "duration": 0.0604,
      "velocity": 123,
      "chip": "ym2612"
    },
    {
      "channel": 3,
      "note": 60,
      "start": 0.2884,
      "duration": 0.058,
      "velocity": 123,
      "chip": "ym2612"
    },
    {
      "channel": 5,
      "note": 38,
      "start": 0.3337,
      "duration": 0.0628,
      "velocity": 93,
      "chip": "ym2612"
    },
    {
      "channel": 0,
      "note": 50,
      "start": 0.4323,
      "duration": 0.1138,
      "velocity": 88,
      "chip": "ym2612"
    },
    {
      "channel": 5,
      "note": 38,
      "start": 0.4832,
      "duration": 0.1133,
      "velocity": 93,
      "chip": "ym2612"
    },
    {
      "channel": 0,
      "note": 62,
      "start": 0.5659,
      "duration": 0.2137,
      "velocity": 88,
      "chip": "ym2612"
    },
    {
      "channel": 1,
      "note": 62,
      "start": 0.5688,
      "duration": 0.0942,
      "velocity": 123,
      "chip": "ym2612"
    },
    {
      "channel": 3,
      "note": 57,
      "start": 0.5715,
      "duration": 0.0748,
      "velocity": 123,
      "chip": "ym2612"
    },
    {
      "channel": 2,
      "note": 70,
      "start": 0.5746,
      "duration": 0.4553,
      "velocity": 127,
      "chip": "ym2612"
    },
    {
      "channel": 5,
      "note": 50,
      "start": 0.6166,
      "duration": 0.2132,
      "velocity": 93,
      "chip": "ym2612"
    },
    {
      "channel": 0,
      "note": 50,
      "start": 0.8659,
      "duration": 0.0303,
      "velocity": 88,
      "chip": "ym2612"
    },
    {
      "channel": 1,
      "note": 55,
      "start": 0.8692,
      "duration": 0.0272,
      "velocity": 123,
      "chip": "ym2612"
    },
    {
      "channel": 3,
      "note": 60,
      "start": 0.872,
      "duration": 0.0077,
      "velocity": 123,
      "chip": "ym2612"
    },
    {
      "channel": 5,
      "note": 38,
      "start": 0.9002,
      "duration": 0.0796,
      "velocity": 93,
      "chip": "ym2612"
    },
    {
      "channel": 0,
      "note": 50,
      "start": 0.9991,
      "duration": 0.0971,
      "velocity": 88,
      "chip": "ym2612"
    },
    {
      "channel": 1,
      "note": 62,
      "start": 1.002,
      "duration": 0.0944,
      "velocity": 123,
      "chip": "ym2612"
    },
    {
      "channel": 3,
      "note": 57,
      "start": 1.0048,
      "duration": 0.0748,
      "velocity": 123,
      "chip": "ym2612"
    },
    {
      "channel": 5,
      "note": 38,
      "start": 1.0499,
      "duration": 0.0966,
      "velocity": 93,
      "chip": "ym2612"
    },
    {
      "channel": 0,
      "note": 53,
      "start": 1.1494,
      "duration": 0.1135,
      "velocity": 88,
      "chip": "ym2612"
    },
    {
      "channel": 4,
      "note": 33,
      "start": 1.1524,
      "duration": 0.094,
      "velocity": 113,
      "chip": "ym2612"
    },
    {
      "channel": 5,
      "note": 41,
      "start": 1.2,
      "duration": 0.1298,
      "velocity": 93,
      "chip": "ym2612"
    },
    {
      "channel": 0,
      "note": 53,
      "start": 1.4328,
      "duration": 0.1134,
      "velocity": 88,
      "chip": "ym2612"
    },
    {
      "channel": 4,
      "note": 33,
      "start": 1.4361,
      "duration": 0.2103,
      "velocity": 113,
      "chip": "ym2612"
    },
    {
      "channel": 5,
      "note": 41,
      "start": 1.4837,
      "duration": 0.1127,
      "velocity": 93,
      "chip": "ym2612"
    },
    {
      "channel": 0,
      "note": 55,
      "start": 1.5824,
      "duration": 0.1139,
      "velocity": 88,
      "chip": "ym2612"
    },
    {
      "channel": 5,
      "note": 43,
      "start": 1.6332,
      "duration": 0.1133,
      "velocity": 93,
      "chip": "ym2612"
    },
    {
      "channel": 2,
      "note": 70,
      "start": 1.7164,
      "duration": 0.4635,
      "velocity": 127,
      "chip": "ym2612"
    },
    {
      "channel": 0,
      "note": 55,
      "start": 1.8658,
      "duration": 0.0971,
      "velocity": 88,
      "chip": "ym2612"
    },
    {
      "channel": 5,
      "note": 43,
      "start": 1.9167,
      "duration": 0.0964,
      "velocity": 93,
      "chip": "ym2612"
    },
    {
      "channel": 0,
      "note": 53,
      "start": 2.0159,
      "duration": 0.1137,
      "velocity": 88,
      "chip": "ym2612"
    },
    {
      "channel": 5,
      "note": 41,
      "start": 2.0665,
      "duration": 0.1133,
      "velocity": 93,
      "chip": "ym2612"
    },
    {
      "channel": 0,
      "note": 55,
      "start": 2.1491,
      "duration": 0.0804,
      "velocity": 88,
      "chip": "ym2612"
    },
    {
      "channel": 1,
      "note": 55,
      "start": 2.1519,
      "duration": 0.0778,
      "velocity": 123,
      "chip": "ym2612"
    },
    {
      "channel": 3,
      "note": 60,
      "start": 2.1546,
      "duration": 0.025,
      "velocity": 123,
      "chip": "ym2612"
    },
    {
      "channel": 5,
      "note": 43,
      "start": 2.1998,
      "duration": 0.0966,
      "velocity": 93,
      "chip": "ym2612"
    },
    {
      "channel": 0,
      "note": 50,
      "start": 2.2993,
      "duration": 0.0969,
      "velocity": 88,
      "chip": "ym2612"
    },
    {
      "channel": 1,
      "note": 62,
      "start": 2.3025,
      "duration": 0.0105,
      "velocity": 123,
      "chip": "ym2612"
    },
    {
      "channel": 3,
      "note": 57,
      "start": 2.3051,
      "duration": 0.008,
      "velocity": 123,
      "chip": "ym2612"
    },
    {
      "channel": 4,
      "note": 33,
      "start": 2.3079,
      "duration": 0.4217,
      "velocity": 113,
      "chip": "ym2612"
    },
    {
      "channel": 5,
      "note": 38,
      "start": 2.35,
      "duration": 0.1131,
      "velocity": 93,
      "chip": "ym2612"
    },
    {
      "channel": 1,
      "note": 57,
      "start": 2.4496,
      "duration": 0.0801,
      "velocity": 123,
      "chip": "ym2612"
    },
    {
      "channel": 3,
      "note": 62,
      "start": 2.4522,
      "duration": 0.0776,
      "velocity": 123,
      "chip": "ym2612"
    },
    {
      "channel": 0,
      "note": 50,
      "start": 2.5825,
      "duration": 0.0471,
      "velocity": 88,
      "chip": "ym2612"
    },
    {
      "channel": 1,
      "note": 55,
      "start": 2.5854,
      "duration": 0.0608,
      "velocity": 123,
      "chip": "ym2612"
    },
    {
      "channel": 3,
      "note": 60,
      "start": 2.5882,
      "duration": 0.0416,
      "velocity": 123,
      "chip": "ym2612"
    },
    {
      "channel": 5,
      "note": 38,
      "start": 2.6335,
      "duration": 0.0629,
      "velocity": 93,
      "chip": "ym2612"
    },
    {
      "channel": 0,
      "note": 50,
      "start": 2.7328,
      "duration": 0.1135,
      "velocity": 88,
      "chip": "ym2612"
    },
    {
      "channel": 5,
      "note": 38,
      "start": 2.7835,
      "duration": 0.1129,
      "velocity": 93,
      "chip": "ym2612"
    },
    {
      "channel": 0,
      "note": 62,
      "start": 2.8659,
      "duration": 0.1637,
      "velocity": 88,
      "chip": "ym2612"
    },
    {
      "channel": 1,
      "note": 57,
      "start": 2.8692,
      "duration": 0.1271,
      "velocity": 123,
      "chip": "ym2612"
    },
    {
      "channel": 3,
      "note": 62,
      "start": 2.872,
      "duration": 0.091,
      "velocity": 123,
      "chip": "ym2612"
    },
    {
      "channel": 2,
      "note": 70,
      "start": 2.8748,
      "duration": 0.4551,
      "velocity": 127,
      "chip": "ym2612"
    },
    {
      "channel": 5,
      "note": 50,
      "start": 2.9166,
      "duration": 0.1631,
      "velocity": 93,
      "chip": "ym2612"
    },
    {
      "channel": 0,
      "note": 50,
      "start": 3.1659,
      "duration": 0.047,
      "velocity": 88,
      "chip": "ym2612"
    },
    {
      "channel": 1,
      "note": 60,
      "start": 3.1688,
      "duration": 0.0442,
      "velocity": 123,
      "chip": "ym2612"
    },
    {
      "channel": 5,
      "note": 38,
      "start": 3.2169,
      "duration": 0.0295,
      "velocity": 93,
      "chip": "ym2612"
    },
    {
      "channel": 0,
      "note": 50,
      "start": 3.2991,
      "duration": 0.0971,
      "velocity": 88,
      "chip": "ym2612"
    },
    {
      "channel": 1,
      "note": 60,
      "start": 3.302,
      "duration": 0.0776,
      "velocity": 123,
      "chip": "ym2612"
    },
    {
      "channel": 3,
      "note": 65,
      "start": 3.3046,
      "duration": 0.0751,
      "velocity": 123,
      "chip": "ym2612"
    },
    {
      "channel": 5,
      "note": 38,
      "start": 3.3498,
      "duration": 0.1133,
      "velocity": 93,
      "chip": "ym2612"
    },
    {
      "channel": 0,
      "note": 53,
      "start": 3.4493,
      "duration": 0.1137,
      "velocity": 88,
      "chip": "ym2612"
    },
    {
      "channel": 4,
      "note": 33,
      "start": 3.4522,
      "duration": 0.1109,
      "velocity": 113,
      "chip": "ym2612"
    },
    {
      "channel": 5,
      "note": 41,
      "start": 3.4998,
      "duration": 0.1134,
      "velocity": 93,
      "chip": "ym2612"
    },
    {
      "channel": 1,
      "note": 57,
      "start": 3.5996,
      "duration": 0.1133,
      "velocity": 123,
      "chip": "ym2612"
    },
    {
      "channel": 3,
      "note": 62,
      "start": 3.6026,
      "duration": 0.1105,
      "velocity": 123,
      "chip": "ym2612"
    },
    {
      "channel": 0,
      "note": 53,
      "start": 3.7324,
      "duration": 0.1139,
      "velocity": 88,
      "chip": "ym2612"
    },
    {
      "channel": 4,
      "note": 33,
      "start": 3.7354,
      "duration": 0.1944,
      "velocity": 113,
      "chip": "ym2612"
    },
    {
      "channel": 5,
      "note": 41,
      "start": 3.7831,
      "duration": 0.1134,
      "velocity": 93,
      "chip": "ym2612"
    },
    {
      "channel": 0,
      "note": 55,
      "start": 3.883,
      "duration": 0.3299,
      "velocity": 88,
      "chip": "ym2612"
    },
    {
      "channel": 5,
      "note": 43,
      "start": 3.9338,
      "duration": 0.3293,
      "velocity": 93,
      "chip": "ym2612"
    },
    {
      "channel": 2,
      "note": 70,
      "start": 4.0169,
      "duration": 0.2629,
      "velocity": 127,
      "chip": "ym2612"
    },
    {
      "channel": 0,
      "note": 53,
      "start": 4.3158,
      "duration": 0.1304,
      "velocity": 88,
      "chip": "ym2612"
    },
    {
      "channel": 2,
      "note": 70,
      "start": 4.3191,
      "duration": 0.1106,
      "velocity": 127,
      "chip": "ym2612"
    },
    {
      "channel": 5,
      "note": 41,
      "start": 4.3666,
      "duration": 0.1631,
      "velocity": 93,
      "chip": "ym2612"
    },
    {
      "channel": 0,
      "note": 50,
      "start": 4.5989,
      "duration": 0.1473,
      "velocity": 88,
      "chip": "ym2612"
    },
    {
      "channel": 1,
      "note": 57,
      "start": 4.6019,
      "duration": 0.0444,
      "velocity": 123,
      "chip": "ym2612"
    },
    {
      "channel": 3,
      "note": 62,
      "start": 4.6044,
      "duration": 0.042,
      "velocity": 123,
      "chip": "ym2612"
    },
    {
      "channel": 4,
      "note": 33,
      "start": 4.6072,
      "duration": 0.2058,
      "velocity": 113,
      "chip": "ym2612"
    },
    {
      "channel": 5,
      "note": 38,
      "start": 4.6498,
      "duration": 0.1633,
      "velocity": 93,
      "chip": "ym2612"
    },
    {
      "channel": 1,
      "note": 57,
      "start": 4.7498,
      "duration": 0.0798,
      "velocity": 123,
      "chip": "ym2612"
    },
    {
      "channel": 3,
      "note": 62,
      "start": 4.7526,
      "duration": 0.1104,
      "velocity": 123,
      "chip": "ym2612"
    },
    {
      "channel": 0,
      "note": 50,
      "start": 4.8825,
      "duration": 0.0803,
      "velocity": 88,
      "chip": "ym2612"
    },
    {
      "channel": 1,
      "note": 60,
      "start": 4.8854,
      "duration": 0.0776,
      "velocity": 123,
      "chip": "ym2612"
    },
    {
      "channel": 3,
      "note": 55,
      "start": 4.8884,
      "duration": 0.0747,
      "velocity": 123,
      "chip": "ym2612"
    },
    {
      "channel": 5,
      "note": 38,
      "start": 4.9334,
      "duration": 0.0964,
      "velocity": 93,
      "chip": "ym2612"
    },
    {
      "channel": 0,
      "note": 50,
      "start": 5.0324,
      "duration": 0.0971,
      "velocity": 88,
      "chip": "ym2612"
    },
    {
      "channel": 5,
      "note": 38,
      "start": 5.0832,
      "duration": 0.1133,
      "velocity": 93,
      "chip": "ym2612"
    },
    {
      "channel": 0,
      "note": 62,
      "start": 5.1659,
      "duration": 0.197,
      "velocity": 88,
      "chip": "ym2612"
    },
    {
      "channel": 1,
      "note": 62,
      "start": 5.1689,
      "duration": 0.0941,
      "velocity": 123,
      "chip": "ym2612"
    },
    {
      "channel": 3,
      "note": 57,
      "start": 5.1715,
      "duration": 0.0917,
      "velocity": 123,
      "chip": "ym2612"
    },
    {
      "channel": 2,
      "note": 70,
      "start": 5.1745,
      "duration": 0.472,
      "velocity": 127,
      "chip": "ym2612"
    },
    {
      "channel": 5,
      "note": 50,
      "start": 5.2167,
      "duration": 0.1964,
      "velocity": 93,
      "chip": "ym2612"
    },
    {
      "channel": 0,
      "note": 50,
      "start": 5.4662,
      "duration": 0.0634,
      "velocity": 88,
      "chip": "ym2612"
    },
    {
      "channel": 1,
      "note": 55,
      "start": 5.4691,
      "duration": 0.0106,
      "velocity": 123,
      "chip": "ym2612"
    },
    {
      "channel": 3,
      "note": 60,
      "start": 5.4719,
      "duration": 0.0579,
      "velocity": 123,
      "chip": "ym2612"
    },
    {
      "channel": 5,
      "note": 38,
      "start": 5.5166,
      "duration": 0.0798,
      "velocity": 93,
      "chip": "ym2612"
    },
    {
      "channel": 0,
      "note": 50,
      "start": 5.5992,
      "duration": 0.0971,
      "velocity": 88,
      "chip": "ym2612"
    },
    {
      "channel": 1,
      "note": 60,
      "start": 5.602,
      "duration": 0.0775,
      "velocity": 123,
      "chip": "ym2612"
    },
    {
      "channel": 3,
      "note": 65,
      "start": 5.6049,
      "duration": 0.0747,
      "velocity": 123,
      "chip": "ym2612"
    },
    {
      "channel": 5,
      "note": 38,
      "start": 5.6501,
      "duration": 0.0963,
      "velocity": 93,
      "chip": "ym2612"
    },
    {
      "channel": 0,
      "note": 53,
      "start": 5.7493,
      "duration": 0.1135,
      "velocity": 88,
      "chip": "ym2612"
    },
    {
      "channel": 4,
      "note": 33,
      "start": 5.7527,
      "duration": 0.0936,
      "velocity": 113,
      "chip": "ym2612"
    },
    {
      "channel": 5,
      "note": 41,
      "start": 5.8,
      "duration": 0.1464,
      "velocity": 93,
      "chip": "ym2612"
    },
    {
      "channel": 1,
      "note": 62,
      "start": 5.8996,
      "duration": 0.1133,
      "velocity": 123,
      "chip": "ym2612"
    },
    {
      "channel": 3,
      "note": 57,
      "start": 5.9022,
      "duration": 0.1109,
      "velocity": 123,
      "chip": "ym2612"
    },
    {
      "channel": 0,
      "note": 53,
      "start": 6.0324,
      "duration": 0.1137,
      "velocity": 88,
      "chip": "ym2612"
    },
    {
      "channel": 4,
      "note": 33,
      "start": 6.0355,
      "duration": 0.111,
      "velocity": 113,
      "chip": "ym2612"
    },
    {
      "channel": 5,
      "note": 41,
      "start": 6.0834,
      "duration": 0.113,
      "velocity": 93,
      "chip": "ym2612"
    },
    {
      "channel": 0,
      "note": 55,
      "start": 6.1823,
      "duration": 0.1139,
      "velocity": 88,
      "chip": "ym2612"
    },
    {
      "channel": 5,
      "note": 43,
      "start": 6.2332,
      "duration": 0.1298,
      "velocity": 93,
      "chip": "ym2612"
    },
    {
      "channel": 1,
      "note": 62,
      "start": 6.333,
      "duration": 0.08,
      "velocity": 123,
      "chip": "ym2612"
    },
    {
      "channel": 3,
      "note": 57,
      "start": 6.3356,
      "duration": 0.0775,
      "velocity": 123,
      "chip": "ym2612"
    },
    {
      "channel": 2,
      "note": 70,
      "start": 6.3385,
      "duration": 0.408,
      "velocity": 127,
      "chip": "ym2612"
    },
    {
      "channel": 0,
      "note": 55,
      "start": 6.4659,
      "duration": 0.0637,
      "velocity": 88,
      "chip": "ym2612"
    },
    {
      "channel": 5,
      "note": 43,
      "start": 6.5167,
      "duration": 0.0631,
      "velocity": 93,
      "chip": "ym2612"
    },
    {
      "channel": 0,
      "note": 53,
      "start": 6.6158,
      "duration": 0.0971,
      "velocity": 88,
      "chip": "ym2612"
    },
    {
      "channel": 1,
      "note": 60,
      "start": 6.6187,
      "duration": 0.0609,
      "velocity": 123,
      "chip": "ym2612"
    },
    {
      "channel": 5,
      "note": 41,
      "start": 6.6666,
      "duration": 0.1132,
      "velocity": 93,
      "chip": "ym2612"
    },
    {
      "channel": 0,
      "note": 55,
      "start": 6.749,
      "duration": 0.0972,
      "velocity": 88,
      "chip": "ym2612"
    },
    {
      "channel": 1,
      "note": 62,
      "start": 6.7523,
      "duration": 0.1273,
      "velocity": 123,
      "chip": "ym2612"
    },
    {
      "channel": 3,
      "note": 57,
      "start": 6.755,
      "duration": 0.1248,
      "velocity": 123,
      "chip": "ym2612"
    },
    {
      "channel": 5,
      "note": 43,
      "start": 6.8002,
      "duration": 0.0962,
      "velocity": 93,
      "chip": "ym2612"
    },
    {
      "channel": 0,
      "note": 50,
      "start": 6.8995,
      "duration": 0.0968,
      "velocity": 88,
      "chip": "ym2612"
    },
    {
      "channel": 4,
      "note": 33,
      "start": 6.9025,
      "duration": 0.3106,
      "velocity": 113,
      "chip": "ym2612"
    },
    {
      "channel": 5,
      "note": 38,
      "start": 6.95,
      "duration": 0.1131,
      "velocity": 93,
      "chip": "ym2612"
    },
    {
      "channel": 0,
      "note": 50,
      "start": 7.1825,
      "duration": 0.0303,
      "velocity": 88,
      "chip": "ym2612"
    },
    {
      "channel": 5,
      "note": 38,
      "start": 7.2334,
      "duration": 0.0464,
      "velocity": 93,
      "chip": "ym2612"
    },
    {
      "channel": 0,
      "note": 50,
      "start": 7.3324,
      "duration": 0.0971,
      "velocity": 88,
      "chip": "ym2612"
    },
    {
      "channel": 5,
      "note": 38,
      "start": 7.3832,
      "duration": 0.1132,
      "velocity": 93,
      "chip": "ym2612"
    },
    {
      "channel": 0,
      "note": 62,
      "start": 7.4824,
      "duration": 0.1305,
      "velocity": 88,
      "chip": "ym2612"
    },
    {
      "channel": 2,
      "note": 70,
      "start": 7.4854,
      "duration": 0.4111,
      "velocity": 127,
      "chip": "ym2612"
    },
    {
      "channel": 5,
      "note": 50,
      "start": 7.5167,
      "duration": 0.1797,
      "velocity": 93,
      "chip": "ym2612"
    },
    {
      "channel": 0,
      "note": 50,
      "start": 7.7657,
      "duration": 0.1139,
      "velocity": 88,
      "chip": "ym2612"
    },
    {
      "channel": 5,
      "note": 38,
      "start": 7.8164,
      "duration": 0.1133,
      "velocity": 93,
      "chip": "ym2612"
    },
    {
      "channel": 0,
      "note": 57,
      "start": 8.0492,
      "duration": 0.3303,
      "velocity": 88,
      "chip": "ym2612"
    },
    {
      "channel": 4,
      "note": 33,
      "start": 8.0522,
      "duration": 0.2109,
      "velocity": 113,
      "chip": "ym2612"
    },
    {
      "channel": 5,
      "note": 45,
      "start": 8.1003,
      "duration": 0.3628,
      "velocity": 93,
      "chip": "ym2612"
    },
    {
      "channel": 0,
      "note": 56,
      "start": 8.4829,
      "duration": 0.1634,
      "velocity": 88,
      "chip": "ym2612"
    },
    {
      "channel": 5,
      "note": 44,
      "start": 8.5333,
      "duration": 0.1632,
      "velocity": 93,
      "chip": "ym2612"
    },
    {
      "channel": 4,
      "note": 33,
      "start": 8.6329,
      "duration": 0.2302,
      "velocity": 113,
      "chip": "ym2612"
    },
    {
      "channel": 2,
      "note": 70,
      "start": 8.6358,
      "duration": 0.2274,
      "velocity": 127,
      "chip": "ym2612"
    },
    {
      "channel": 0,
      "note": 55,
      "start": 8.7659,
      "duration": 0.0969,
      "velocity": 88,
      "chip": "ym2612"
    },
    {
      "channel": 5,
      "note": 43,
      "start": 8.8166,
      "duration": 0.1131,
      "velocity": 93,
      "chip": "ym2612"
    },
    {
      "channel": 0,
      "note": 53,
      "start": 8.9159,
      "duration": 0.1637,
      "velocity": 88,
      "chip": "ym2612"
    },
    {
      "channel": 2,
      "note": 70,
      "start": 8.9195,
      "duration": 0.127,
      "velocity": 127,
      "chip": "ym2612"
    },
    {
      "channel": 5,
      "note": 41,
      "start": 8.9666,
      "duration": 0.1797,
      "velocity": 93,
      "chip": "ym2612"
    },
    {
      "channel": 0,
      "note": 50,
      "start": 9.2003,
      "duration": 0.0626,
      "velocity": 88,
      "chip": "ym2612"
    },
    {
      "channel": 1,
      "note": 38,
      "start": 9.2032,
      "duration": 0.1097,
      "velocity": 98,
      "chip": "ym2612"
    },
    {
      "channel": 4,
      "note": 33,
      "start": 9.2061,
      "duration": 0.2569,
      "velocity": 113,
      "chip": "ym2612"
    },
    {
      "channel": 5,
      "note": 38,
      "start": 9.251,
      "duration": 0.0621,
      "velocity": 93,
      "chip": "ym2612"
    },
    {
      "channel": 0,
      "note": 50,
      "start": 9.4826,
      "duration": 0.047,
      "velocity": 88,
      "chip": "ym2612"
    },
    {
      "channel": 1,
      "note": 38,
      "start": 9.4856,
      "duration": 0.0441,
      "velocity": 98,
      "chip": "ym2612"
    },
    {
      "channel": 5,
      "note": 38,
      "start": 9.5334,
      "duration": 0.0797,
      "velocity": 93,
      "chip": "ym2612"
    },
    {
      "channel": 0,
      "note": 50,
      "start": 9.6324,
      "duration": 0.1137,
      "velocity": 88,
      "chip": "ym2612"
    },
    {
      "channel": 1,
      "note": 38,
      "start": 9.6351,
      "duration": 0.1113,
      "velocity": 98,
      "chip": "ym2612"
    },
    {
      "channel": 5,
      "note": 38,
      "start": 9.6832,
      "duration": 0.1132,
      "velocity": 93,
      "chip": "ym2612"
    },
    {
      "channel": 0,
      "note": 62,
      "start": 9.7826,
      "duration": 0.2137,
      "velocity": 88,
      "chip": "ym2612"
    },
    {
      "channel": 2,
      "note": 70,
      "start": 9.7858,
      "duration": 0.4607,
      "velocity": 127,
      "chip": "ym2612"
    },
    {
      "channel": 5,
      "note": 50,
      "start": 9.8333,
      "duration": 0.1965,
      "velocity": 93,
      "chip": "ym2612"
    },
    {
      "channel": 0,
      "note": 50,
      "start": 10.0659,
      "duration": 0.0469,
      "velocity": 88,
      "chip": "ym2612"
    },
    {
      "channel": 1,
      "note": 38,
      "start": 10.0687,
      "duration": 0.0443,
      "velocity": 98,
      "chip": "ym2612"
    },
    {
      "channel": 5,
      "note": 38,
      "start": 10.1168,
      "duration": 0.063,
      "velocity": 93,
      "chip": "ym2612"
    },
    {
      "channel": 0,
      "note": 50,
      "start": 10.2162,
      "duration": 0.08,
      "velocity": 88,
      "chip": "ym2612"
    },
    {
      "channel": 1,
      "note": 38,
      "start": 10.2187,
      "duration": 0.0776,
      "velocity": 98,
      "chip": "ym2612"
    },
    {
      "channel": 5,
      "note": 38,
      "start": 10.2503,
      "duration": 0.0961,
      "velocity": 93,
      "chip": "ym2612"
    },
    {
      "channel": 0,
      "note": 53,
      "start": 10.3493,
      "duration": 0.1136,
      "velocity": 88,
      "chip": "ym2612"
    },
    {
      "channel": 1,
      "note": 69,
      "start": 10.352,
      "duration": 0.2776,
      "velocity": 98,
      "chip": "ym2612"
    },
    {
      "channel": 3,
      "note": 72,
      "start": 10.3546,
      "duration": 0.2751,
      "velocity": 98,
      "chip": "ym2612"
    },
    {
      "channel": 4,
      "note": 33,
      "start": 10.3579,
      "duration": 0.1052,
      "velocity": 113,
      "chip": "ym2612"
    },
    {
      "channel": 5,
      "note": 41,
      "start": 10.4,
      "duration": 0.1464,
      "velocity": 93,
      "chip": "ym2612"
    },
    {
      "channel": 0,
      "note": 53,
      "start": 10.6325,
      "duration": 0.1303,
      "velocity": 88,
      "chip": "ym2612"
    },
    {
      "channel": 4,
      "note": 33,
      "start": 10.6356,
      "duration": 0.2609,
      "velocity": 113,
      "chip": "ym2612"
    },
    {
      "channel": 5,
      "note": 41,
      "start": 10.6833,
      "duration": 0.1131,
      "velocity": 93,
      "chip": "ym2612"
    },
    {
      "channel": 0,
      "note": 55,
      "start": 10.7823,
      "duration": 0.1139,
      "velocity": 88,
      "chip": "ym2612"
    },
    {
      "channel": 1,
      "note": 72,
      "start": 10.7854,
      "duration": 0.7109,
      "velocity": 98,
      "chip": "ym2612"
    },
    {
      "channel": 3,
      "note": 69,
      "start": 10.7879,
      "duration": 0.7085,
      "velocity": 98,
      "chip": "ym2612"
    },
    {
      "channel": 5,
      "note": 43,
      "start": 10.8332,
      "duration": 0.1132,
      "velocity": 93,
      "chip": "ym2612"
    },
    {
      "channel": 2,
      "note": 70,
      "start": 10.9331,
      "duration": 0.4468,
      "velocity": 127,
      "chip": "ym2612"
    },
    {
      "channel": 0,
      "note": 55,
      "start": 11.066,
      "duration": 0.0969,
      "velocity": 88,
      "chip": "ym2612"
    },
    {
      "channel": 5,
      "note": 43,
      "start": 11.1166,
      "duration": 0.0965,
      "velocity": 93,
      "chip": "ym2612"
    },
    {
      "channel": 0,
      "note": 53,
      "start": 11.2159,
      "duration": 0.1137,
      "velocity": 88,
      "chip": "ym2612"
    },
    {
      "channel": 5,
      "note": 41,
      "start": 11.2666,
      "duration": 0.1132,
      "velocity": 93,
      "chip": "ym2612"
    },
    {
      "channel": 0,
      "note": 55,
      "start": 11.3657,
      "duration": 0.0638,
      "velocity": 88,
      "chip": "ym2612"
    },
    {
      "channel": 5,
      "note": 43,
      "start": 11.3998,
      "duration": 0.0969,
      "velocity": 93,
      "chip": "ym2612"
    },
    {
      "channel": 0,
      "note": 50,
      "start": 11.4999,
      "duration": 0.0964,
      "velocity": 88,
      "chip": "ym2612"
    },
    {
      "channel": 1,
      "note": 38,
      "start": 11.5026,
      "duration": 0.0603,
      "velocity": 98,
      "chip": "ym2612"
    },
    {
      "channel": 4,
      "note": 33,
      "start": 11.5055,
      "duration": 0.4576,
      "velocity": 113,
      "chip": "ym2612"
    },
    {
      "channel": 5,
      "note": 38,
      "start": 11.5503,
      "duration": 0.1127,
      "velocity": 93,
      "chip": "ym2612"
    },
    {
      "channel": 0,
      "note": 50,
      "start": 11.7825,
      "duration": 0.0471,
      "velocity": 88,
      "chip": "ym2612"
    },
    {
      "channel": 1,
      "note": 38,
      "start": 11.7853,
      "duration": 0.0445,
      "velocity": 98,
      "chip": "ym2612"
    },
    {
      "channel": 5,
      "note": 38,
      "start": 11.8335,
      "duration": 0.0797,
      "velocity": 93,
      "chip": "ym2612"
    },
    {
      "channel": 0,
      "note": 50,
      "start": 11.9324,
      "duration": 0.1137,
      "velocity": 88,
      "chip": "ym2612"
    },
    {
      "channel": 5,
      "note": 38,
      "start": 11.9832,
      "duration": 0.1132,
      "velocity": 93,
      "chip": "ym2612"
    },
    {
      "channel": 0,
      "note": 62,
      "start": 12.0824,
      "duration": 0.1637,
      "velocity": 88,
      "chip": "ym2612"
    },
    {
      "channel": 2,
      "note": 70,
      "start": 12.0856,
      "duration": 0.511,
      "velocity": 127,
      "chip": "ym2612"
    },
    {
      "channel": 5,
      "note": 50,
      "start": 12.1334,
      "duration": 0.1631,
      "velocity": 93,
      "chip": "ym2612"
    },
    {
      "channel": 0,
      "note": 50,
      "start": 12.3659,
      "duration": 0.047,
      "velocity": 88,
      "chip": "ym2612"
    },
    {
      "channel": 1,
      "note": 38,
      "start": 12.3687,
      "duration": 0.011,
      "velocity": 98,
      "chip": "ym2612"
    },
    {
      "channel": 5,
      "note": 38,
      "start": 12.4168,
      "duration": 0.0463,
      "velocity": 93,
      "chip": "ym2612"
    },
    {
      "channel": 0,
      "note": 50,
      "start": 12.5157,
      "duration": 0.0806,
      "velocity": 88,
      "chip": "ym2612"
    },
    {
      "channel": 1,
      "note": 38,
      "start": 12.5182,
      "duration": 0.028,
      "velocity": 98,
      "chip": "ym2612"
    },
    {
      "channel": 5,
      "note": 38,
      "start": 12.5499,
      "duration": 0.1298,
      "velocity": 93,
      "chip": "ym2612"
    },
    {
      "channel": 0,
      "note": 53,
      "start": 12.6495,
      "duration": 0.1134,
      "velocity": 88,
      "chip": "ym2612"
    },
    {
      "channel": 1,
      "note": 68,
      "start": 12.6526,
      "duration": 0.2436,
      "velocity": 98,
      "chip": "ym2612"
    },
    {
      "channel": 3,
      "note": 71,
      "start": 12.6551,
      "duration": 0.2414,
      "velocity": 98,
      "chip": "ym2612"
    },
    {
      "channel": 4,
      "note": 33,
      "start": 12.658,
      "duration": 0.1051,
      "velocity": 113,
      "chip": "ym2612"
    },
    {
      "channel": 5,
      "note": 41,
      "start": 12.7002,
      "duration": 0.1129,
      "velocity": 93,
      "chip": "ym2612"
    },
    {
      "channel": 0,
      "note": 53,
      "start": 12.9324,
      "duration": 0.1305,
      "velocity": 88,
      "chip": "ym2612"
    },
    {
      "channel": 1,
      "note": 38,
      "start": 12.9352,
      "duration": 0.0444,
      "velocity": 98,
      "chip": "ym2612"
    },
    {
      "channel": 4,
      "note": 33,
      "start": 12.938,
      "duration": 0.2417,
      "velocity": 113,
      "chip": "ym2612"
    },
    {
      "channel": 5,
      "note": 41,
      "start": 12.9832,
      "duration": 0.1299,
      "velocity": 93,
      "chip": "ym2612"
    },
    {
      "channel": 0,
      "note": 55,
      "start": 13.0826,
      "duration": 0.3303,
      "velocity": 88,
      "chip": "ym2612"
    },
    {
      "channel": 1,
      "note": 68,
      "start": 13.0853,
      "duration": 0.6609,
      "velocity": 98,
      "chip": "ym2612"
    },
    {
      "channel": 3,
      "note": 71,
      "start": 13.0878,
      "duration": 0.6586,
      "velocity": 98,
      "chip": "ym2612"
    },
    {
      "channel": 5,
      "note": 43,
      "start": 13.1334,
      "duration": 0.3297,
      "velocity": 93,
      "chip": "ym2612"
    },
    {
      "channel": 2,
      "note": 70,
      "start": 13.2332,
      "duration": 0.3967,
      "velocity": 127,
      "chip": "ym2612"
    },
    {
      "channel": 0,
      "note": 53,
      "start": 13.5159,
      "duration": 0.147,
      "velocity": 88,
      "chip": "ym2612"
    },
    {
      "channel": 5,
      "note": 41,
      "start": 13.5667,
      "duration": 0.1631,
      "velocity": 93,
      "chip": "ym2612"
    },
    {
      "channel": 0,
      "note": 50,
      "start": 13.7989,
      "duration": 0.1473,
      "velocity": 88,
      "chip": "ym2612"
    },
    {
      "channel": 1,
      "note": 38,
      "start": 13.8016,
      "duration": 0.028,
      "velocity": 98,
      "chip": "ym2612"
    },
    {
      "channel": 4,
      "note": 33,
      "start": 13.8049,
      "duration": 0.1415,
      "velocity": 113,
      "chip": "ym2612"
    },
    {
      "channel": 5,
      "note": 38,
      "start": 13.8498,
      "duration": 0.1634,
      "velocity": 93,
      "chip": "ym2612"
    },
    {
      "channel": 0,
      "note": 50,
      "start": 14.0993,
      "duration": 0.0637,
      "velocity": 88,
      "chip": "ym2612"
    },
    {
      "channel": 1,
      "note": 38,
      "start": 14.1023,
      "duration": 0.1106,
      "velocity": 98,
      "chip": "ym2612"
    },
    {
      "channel": 5,
      "note": 38,
      "start": 14.1333,
      "duration": 0.0965,
      "velocity": 93,
      "chip": "ym2612"
    },
    {
      "channel": 0,
      "note": 50,
      "start": 14.2329,
      "duration": 0.0966,
      "velocity": 88,
      "chip": "ym2612"
    },
    {
      "channel": 5,
      "note": 38,
      "start": 14.2831,
      "duration": 0.1133,
      "velocity": 93,
      "chip": "ym2612"
    },
    {
      "channel": 0,
      "note": 62,
      "start": 14.3826,
      "duration": 0.1803,
      "velocity": 88,
      "chip": "ym2612"
    },
    {
      "channel": 2,
      "note": 70,
      "start": 14.3857,
      "duration": 0.4275,
      "velocity": 127,
      "chip": "ym2612"
    },
    {
      "channel": 5,
      "note": 50,
      "start": 14.4337,
      "duration": 0.1795,
      "velocity": 93,
      "chip": "ym2612"
    },
    {
      "channel": 0,
      "note": 50,
      "start": 14.6659,
      "duration": 0.0637,
      "velocity": 88,
      "chip": "ym2612"
    },
    {
      "channel": 1,
      "note": 38,
      "start": 14.6686,
      "duration": 0.0444,
      "velocity": 98,
      "chip": "ym2612"
    },
    {
      "channel": 5,
      "note": 38,
      "start": 14.7168,
      "duration": 0.0964,
      "velocity": 93,
      "chip": "ym2612"
    },
    {
      "channel": 0,
      "note": 50,
      "start": 14.816,
      "duration": 0.0803,
      "velocity": 88,
      "chip": "ym2612"
    },
    {
      "channel": 1,
      "note": 38,
      "start": 14.8184,
      "duration": 0.0445,
      "velocity": 98,
      "chip": "ym2612"
    },
    {
      "channel": 5,
      "note": 38,
      "start": 14.8664,
      "duration": 0.08,
      "velocity": 93,
      "chip": "ym2612"
    },
    {
      "channel": 0,
      "note": 53,
      "start": 14.9493,
      "duration": 0.1137,
      "velocity": 88,
      "chip": "ym2612"
    },
    {
      "channel": 1,
      "note": 71,
      "start": 14.952,
      "duration": 0.2109,
      "velocity": 98,
      "chip": "ym2612"
    },
    {
      "channel": 3,
      "note": 67,
      "start": 14.9545,
      "duration": 0.2086,
      "velocity": 98,
      "chip": "ym2612"
    },
    {
      "channel": 4,
      "note": 33,
      "start": 14.9574,
      "duration": 0.0723,
      "velocity": 113,
      "chip": "ym2612"
    },
    {
      "channel": 5,
      "note": 41,
      "start": 15.0,
      "duration": 0.1464,
      "velocity": 93,
      "chip": "ym2612"
    },
    {
      "channel": 0,
      "note": 53,
      "start": 15.249,
      "duration": 0.1139,
      "velocity": 88,
      "chip": "ym2612"
    },
    {
      "channel": 1,
      "note": 38,
      "start": 15.2517,
      "duration": 0.0111,
      "velocity": 98,
      "chip": "ym2612"
    },
    {
      "channel": 4,
      "note": 33,
      "start": 15.2546,
      "duration": 0.1919,
      "velocity": 113,
      "chip": "ym2612"
    },
    {
      "channel": 5,
      "note": 41,
      "start": 15.2832,
      "duration": 0.1298,
      "velocity": 93,
      "chip": "ym2612"
    },
    {
      "channel": 0,
      "note": 55,
      "start": 15.3823,
      "duration": 0.1139,
      "velocity": 88,
      "chip": "ym2612"
    },
    {
      "channel": 1,
      "note": 67,
      "start": 15.3851,
      "duration": 0.6945,
      "velocity": 98,
      "chip": "ym2612"
    },
    {
      "channel": 3,
      "note": 71,
      "start": 15.3879,
      "duration": 0.6918,
      "velocity": 98,
      "chip": "ym2612"
    },
    {
      "channel": 5,
      "note": 43,
      "start": 15.4333,
      "duration": 0.1466,
      "velocity": 93,
      "chip": "ym2612"
    },
    {
      "channel": 2,
      "note": 70,
      "start": 15.5332,
      "duration": 0.2634,
      "velocity": 127,
      "chip": "ym2612"
    },
    {
      "channel": 0,
      "note": 55,
      "start": 15.6662,
      "duration": 0.08,
      "velocity": 88,
      "chip": "ym2612"
    },
    {
      "channel": 5,
      "note": 43,
      "start": 15.717,
      "duration": 0.0795,
      "velocity": 93,
      "chip": "ym2612"
    },
    {
      "channel": 0,
      "note": 53,
      "start": 15.8157,
      "duration": 0.0971,
      "velocity": 88,
      "chip": "ym2612"
    },
    {
      "channel": 2,
      "note": 70,
      "start": 15.8194,
      "duration": 0.1104,
      "velocity": 127,
      "chip": "ym2612"
    },
    {
      "channel": 5,
      "note": 41,
      "start": 15.8664,
      "duration": 0.1134,
      "velocity": 93,
      "chip": "ym2612"
    },
    {
      "channel": 0,
      "note": 55,
      "start": 15.9656,
      "duration": 0.0806,
      "velocity": 88,
      "chip": "ym2612"
    },
    {
      "channel": 5,
      "note": 43,
      "start": 16.0166,
      "duration": 0.0799,
      "velocity": 93,
      "chip": "ym2612"
    },
    {
      "channel": 0,
      "note": 50,
      "start": 16.0992,
      "duration": 0.097,
      "velocity": 88,
      "chip": "ym2612"
    },
    {
      "channel": 1,
      "note": 38,
      "start": 16.1019,
      "duration": 0.0443,
      "velocity": 98,
      "chip": "ym2612"
    },
    {
      "channel": 4,
      "note": 33,
      "start": 16.1049,
      "duration": 0.0748,
      "velocity": 113,
      "chip": "ym2612"
    },
    {
      "channel": 5,
      "note": 38,
      "start": 16.15,
      "duration": 0.113,
      "velocity": 93,
      "chip": "ym2612"
    },
    {
      "channel": 0,
      "note": 50,
      "start": 16.3992,
      "duration": 0.0137,
      "velocity": 88,
      "chip": "ym2612"
    },
    {
      "channel": 1,
      "note": 38,
      "start": 16.4018,
      "duration": 0.0612,
      "velocity": 98,
      "chip": "ym2612"
    },
    {
      "channel": 4,
      "note": 33,
      "start": 16.4046,
      "duration": 0.175,
      "velocity": 113,
      "chip": "ym2612"
    },
    {
      "channel": 5,
      "note": 38,
      "start": 16.4333,
      "duration": 0.0464,
      "velocity": 93,
      "chip": "ym2612"
    },
    {
      "channel": 0,
      "note": 50,
      "start": 16.5323,
      "duration": 0.0972,
      "velocity": 88,
      "chip": "ym2612"
    },
    {
      "channel": 5,
      "note": 38,
      "start": 16.5832,
      "duration": 0.1132,
      "velocity": 93,
      "chip": "ym2612"
    },
    {
      "channel": 0,
      "note": 62,
      "start": 16.6826,
      "duration": 0.1303,
      "velocity": 88,
      "chip": "ym2612"
    },
    {
      "channel": 1,
      "note": 65,
      "start": 16.6853,
      "duration": 0.0943,
      "velocity": 98,
      "chip": "ym2612"
    },
    {
      "channel": 3,
      "note": 69,
      "start": 16.6879,
      "duration": 0.0417,
      "velocity": 98,
      "chip": "ym2612"
    },
    {
      "channel": 2,
      "note": 70,
      "start": 16.691,
      "duration": 0.4888,
      "velocity": 127,
      "chip": "ym2612"
    },
    {
      "channel": 5,
      "note": 50,
      "start": 16.7337,
      "duration": 0.1628,
      "velocity": 93,
      "chip": "ym2612"
    },
    {
      "channel": 1,
      "note": 62,
      "start": 16.8161,
      "duration": 0.0969,
      "velocity": 98,
      "chip": "ym2612"
    },
    {
      "channel": 0,
      "note": 50,
      "start": 16.9661,
      "duration": 0.1134,
      "velocity": 88,
      "chip": "ym2612"
    },
    {
      "channel": 5,
      "note": 38,
      "start": 17.0166,
      "duration": 0.1132,
      "velocity": 93,
      "chip": "ym2612"
    },
    {
      "channel": 1,
      "note": 62,
      "start": 17.1165,
      "duration": 0.1297,
      "velocity": 98,
      "chip": "ym2612"
    },
    {
      "channel": 0,
      "note": 57,
      "start": 17.2493,
      "duration": 0.3303,
      "velocity": 88,
      "chip": "ym2612"
    },
    {
      "channel": 4,
      "note": 33,
      "start": 17.2521,
      "duration": 0.1942,
      "velocity": 113,
      "chip": "ym2612"
    },
    {
      "channel": 5,
      "note": 45,
      "start": 17.3,
      "duration": 0.3631,
      "velocity": 93,
      "chip": "ym2612"
    },
    {
      "channel": 0,
      "note": 56,
      "start": 17.6826,
      "duration": 0.1636,
      "velocity": 88,
      "chip": "ym2612"
    },
    {
      "channel": 5,
      "note": 44,
      "start": 17.7334,
      "duration": 0.1631,
      "velocity": 93,
      "chip": "ym2612"
    },
    {
      "channel": 4,
      "note": 33,
      "start": 17.8332,
      "duration": 0.2631,
      "velocity": 113,
      "chip": "ym2612"
    },
    {
      "channel": 2,
      "note": 70,
      "start": 17.8361,
      "duration": 0.2271,
      "velocity": 127,
      "chip": "ym2612"
    },
    {
      "channel": 0,
      "note": 55,
      "start": 17.9659,
      "duration": 0.0969,
      "velocity": 88,
      "chip": "ym2612"
    },
    {
      "channel": 5,
      "note": 43,
      "start": 18.0166,
      "duration": 0.1298,
      "velocity": 93,
      "chip": "ym2612"
    },
    {
      "channel": 0,
      "note": 53,
      "start": 18.1159,
      "duration": 0.1637,
      "velocity": 88,
      "chip": "ym2612"
    },
    {
      "channel": 5,
      "note": 41,
      "start": 18.1666,
      "duration": 0.1965,
      "velocity": 93,
      "chip": "ym2612"
    },
    {
      "channel": 0,
      "note": 50,
      "start": 18.4003,
      "duration": 0.0793,
      "velocity": 88,
      "chip": "ym2612"
    },
    {
      "channel": 1,
      "note": 38,
      "start": 18.403,
      "duration": 0.0933,
      "velocity": 98,
      "chip": "ym2612"
    },
    {
      "channel": 4,
      "note": 33,
      "start": 18.4069,
      "duration": 0.2062,
      "velocity": 113,
      "chip": "ym2612"
    },
    {
      "channel": 5,
      "note": 38,
      "start": 18.4514,
      "duration": 0.0784,
      "velocity": 93,
      "chip": "ym2612"
    },
    {
      "channel": 0,
      "note": 50,
      "start": 18.6991,
      "duration": 0.0471,
      "velocity": 88,
      "chip": "ym2612"
    },
    {
      "channel": 1,
      "note": 38,
      "start": 18.7019,
      "duration": 0.2111,
      "velocity": 98,
      "chip": "ym2612"
    },
    {
      "channel": 5,
      "note": 38,
      "start": 18.7499,
      "duration": 0.0632,
      "velocity": 93,
      "chip": "ym2612"
    },
    {
      "channel": 0,
      "note": 50,
      "start": 18.8324,
      "duration": 0.1137,
      "velocity": 88,
      "chip": "ym2612"
    },
    {
      "channel": 5,
      "note": 38,
      "start": 18.8831,
      "duration": 0.1134,
      "velocity": 93,
      "chip": "ym2612"
    },
    {
      "channel": 0,
      "note": 62,
      "start": 18.9825,
      "duration": 0.2137,
      "velocity": 88,
      "chip": "ym2612"
    },
    {
      "channel": 2,
      "note": 70,
      "start": 18.9858,
      "duration": 0.444,
      "velocity": 127,
      "chip": "ym2612"
    },
    {
      "channel": 5,
      "note": 50,
      "start": 19.0334,
      "duration": 0.213,
      "velocity": 93,
      "chip": "ym2612"
    },
    {
      "channel": 0,
      "note": 50,
      "start": 19.2659,
      "duration": 0.047,
      "velocity": 88,
      "chip": "ym2612"
    },
    {
      "channel": 1,
      "note": 38,
      "start": 19.2687,
      "duration": 0.0276,
      "velocity": 98,
      "chip": "ym2612"
    },
    {
      "channel": 5,
      "note": 38,
      "start": 19.3168,
      "duration": 0.063,
      "velocity": 93,
      "chip": "ym2612"
    },
    {
      "channel": 0,
      "note": 50,
      "start": 19.4161,
      "duration": 0.0969,
      "velocity": 88,
      "chip": "ym2612"
    },
    {
      "channel": 1,
      "note": 38,
      "start": 19.4186,
      "duration": 0.0611,
      "velocity": 98,
      "chip": "ym2612"
    },
    {
      "channel": 5,
      "note": 38,
      "start": 19.4669,
      "duration": 0.0795,
      "velocity": 93,
      "chip": "ym2612"
    },
    {
      "channel": 0,
      "note": 53,
      "start": 19.5493,
      "duration": 0.1302,
      "velocity": 88,
      "chip": "ym2612"
    },
    {
      "channel": 1,
      "note": 69,
      "start": 19.5524,
      "duration": 0.2605,
      "velocity": 98,
      "chip": "ym2612"
    },
    {
      "channel": 3,
      "note": 72,
      "start": 19.555,
      "duration": 0.2414,
      "velocity": 98,
      "chip": "ym2612"
    },
    {
      "channel": 4,
      "note": 33,
      "start": 19.5579,
      "duration": 0.0884,
      "velocity": 113,
      "chip": "ym2612"
    },
    {
      "channel": 5,
      "note": 41,
      "start": 19.5999,
      "duration": 0.1465,
      "velocity": 93,
      "chip": "ym2612"
    },
    {
      "channel": 0,
      "note": 53,
      "start": 19.849,
      "duration": 0.1139,
      "velocity": 88,
      "chip": "ym2612"
    },
    {
      "channel": 1,
      "note": 38,
      "start": 19.8517,
      "duration": 0.0446,
      "velocity": 98,
      "chip": "ym2612"
    },
    {
      "channel": 4,
      "note": 33,
      "start": 19.8546,
      "duration": 0.2084,
      "velocity": 113,
      "chip": "ym2612"
    },
    {
      "channel": 5,
      "note": 41,
      "start": 19.9001,
      "duration": 0.113,
      "velocity": 93,
      "chip": "ym2612"
    },
    {
      "channel": 0,
      "note": 55,
      "start": 19.9823,
      "duration": 0.1139,
      "velocity": 88,
      "chip": "ym2612"
    },
    {
      "channel": 1,
      "note": 72,
      "start": 19.9851,
      "duration": 0.7113,
      "velocity": 98,
      "chip": "ym2612"
    },
    {
      "channel": 3,
      "note": 69,
      "start": 19.9876,
      "duration": 0.7089,
      "velocity": 98,
      "chip": "ym2612"
    },
    {
      "channel": 5,
      "note": 43,
      "start": 20.0332,
      "duration": 0.1132,
      "velocity": 93,
      "chip": "ym2612"
    },
    {
      "channel": 2,
      "note": 70,
      "start": 20.133,
      "duration": 0.4469,
      "velocity": 127,
      "chip": "ym2612"
    },
    {
      "channel": 0,
      "note": 55,
      "start": 20.2825,
      "duration": 0.0803,
      "velocity": 88,
      "chip": "ym2612"
    },
    {
      "channel": 5,
      "note": 43,
      "start": 20.3167,
      "duration": 0.0964,
      "velocity": 93,
      "chip": "ym2612"
    },
    {
      "channel": 0,
      "note": 53,
      "start": 20.4159,
      "duration": 0.1137,
      "velocity": 88,
      "chip": "ym2612"
    },
    {
      "channel": 5,
      "note": 41,
      "start": 20.4664,
      "duration": 0.1133,
      "velocity": 93,
      "chip": "ym2612"
    },
    {
      "channel": 0,
      "note": 55,
      "start": 20.5657,
      "duration": 0.0638,
      "velocity": 88,
      "chip": "ym2612"
    },
    {
      "channel": 5,
      "note": 43,
      "start": 20.6166,
      "duration": 0.08,
      "velocity": 93,
      "chip": "ym2612"
    },
    {
      "channel": 0,
      "note": 50,
      "start": 20.6999,
      "duration": 0.0963,
      "velocity": 88,
      "chip": "ym2612"
    },
    {
      "channel": 1,
      "note": 38,
      "start": 20.7026,
      "duration": 0.077,
      "velocity": 98,
      "chip": "ym2612"
    },
    {
      "channel": 4,
      "note": 33,
      "start": 20.7055,
      "duration": 0.4242,
      "velocity": 113,
      "chip": "ym2612"
    },
    {
      "channel": 5,
      "note": 38,
      "start": 20.7503,
      "duration": 0.1295,
      "velocity": 93,
      "chip": "ym2612"
    },
    {
      "channel": 0,
      "note": 50,
      "start": 20.9993,
      "duration": 0.047,
      "velocity": 88,
      "chip": "ym2612"
    },
    {
      "channel": 1,
      "note": 38,
      "start": 21.0023,
      "duration": 0.1607,
      "velocity": 98,
      "chip": "ym2612"
    },
    {
      "channel": 5,
      "note": 38,
      "start": 21.0501,
      "duration": 0.063,
      "velocity": 93,
      "chip": "ym2612"
    },
    {
      "channel": 0,
      "note": 50,
      "start": 21.1325,
      "duration": 0.1304,
      "velocity": 88,
      "chip": "ym2612"
    },
    {
      "channel": 5,
      "note": 38,
      "start": 21.1831,
      "duration": 0.1132,
      "velocity": 93,
      "chip": "ym2612"
    },
    {
      "channel": 0,
      "note": 62,
      "start": 21.2826,
      "duration": 0.1636,
      "velocity": 88,
      "chip": "ym2612"
    },
    {
      "channel": 2,
      "note": 70,
      "start": 21.2856,
      "duration": 0.4442,
      "velocity": 127,
      "chip": "ym2612"
    },
    {
      "channel": 5,
      "note": 50,
      "start": 21.3333,
      "duration": 0.1631,
      "velocity": 93,
      "chip": "ym2612"
    },
    {
      "channel": 0,
      "note": 50,
      "start": 21.5659,
      "duration": 0.0469,
      "velocity": 88,
      "chip": "ym2612"
    },
    {
      "channel": 1,
      "note": 38,
      "start": 21.5686,
      "duration": 0.0277,
      "velocity": 98,
      "chip": "ym2612"
    },
    {
      "channel": 5,
      "note": 38,
      "start": 21.6168,
      "duration": 0.0463,
      "velocity": 93,
      "chip": "ym2612"
    },
    {
      "channel": 0,
      "note": 50,
      "start": 21.7158,
      "duration": 0.0971,
      "velocity": 88,
      "chip": "ym2612"
    },
    {
      "channel": 1,
      "note": 38,
      "start": 21.7183,
      "duration": 0.0613,
      "velocity": 98,
      "chip": "ym2612"
    },
    {
      "channel": 5,
      "note": 38,
      "start": 21.7665,
      "duration": 0.1133,
      "velocity": 93,
      "chip": "ym2612"
    },
    {
      "channel": 0,
      "note": 53,
      "start": 21.8496,
      "duration": 0.13,
      "velocity": 88,
      "chip": "ym2612"
    },
    {
      "channel": 1,
      "note": 68,
      "start": 21.8523,
      "duration": 0.2607,
      "velocity": 98,
      "chip": "ym2612"
    },
    {
      "channel": 3,
      "note": 71,
      "start": 21.855,
      "duration": 0.2413,
      "velocity": 98,
      "chip": "ym2612"
    },
    {
      "channel": 4,
      "note": 33,
      "start": 21.8582,
      "duration": 0.1216,
      "velocity": 113,
      "chip": "ym2612"
    },
    {
      "channel": 5,
      "note": 41,
      "start": 21.9001,
      "duration": 0.1296,
      "velocity": 93,
      "chip": "ym2612"
    },
    {
      "channel": 0,
      "note": 53,
      "start": 22.1491,
      "duration": 0.1138,
      "velocity": 88,
      "chip": "ym2612"
    },
    {
      "channel": 1,
      "note": 38,
      "start": 22.1518,
      "duration": 0.0445,
      "velocity": 98,
      "chip": "ym2612"
    },
    {
      "channel": 4,
      "note": 33,
      "start": 22.1547,
      "duration": 0.175,
      "velocity": 113,
      "chip": "ym2612"
    },
    {
      "channel": 5,
      "note": 41,
      "start": 22.1999,
      "duration": 0.1133,
      "velocity": 93,
      "chip": "ym2612"
    },
    {
      "channel": 0,
      "note": 55,
      "start": 22.2826,
      "duration": 0.347,
      "velocity": 88,
      "chip": "ym2612"
    },
    {
      "channel": 1,
      "note": 68,
      "start": 22.2857,
      "duration": 0.7272,
      "velocity": 98,
      "chip": "ym2612"
    },
    {
      "channel": 3,
      "note": 71,
      "start": 22.2882,
      "duration": 0.7249,
      "velocity": 98,
      "chip": "ym2612"
    },
    {
      "channel": 5,
      "note": 43,
      "start": 22.3334,
      "duration": 0.3298,
      "velocity": 93,
      "chip": "ym2612"
    },
    {
      "channel": 2,
      "note": 70,
      "start": 22.4332,
      "duration": 0.2632,
      "velocity": 127,
      "chip": "ym2612"
    },
    {
      "channel": 0,
      "note": 53,
      "start": 22.7159,
      "duration": 0.1471,
      "velocity": 88,
      "chip": "ym2612"
    },
    {
      "channel": 2,
      "note": 70,
      "start": 22.7192,
      "duration": 0.1106,
      "velocity": 127,
      "chip": "ym2612"
    },
    {
      "channel": 5,
      "note": 41,
      "start": 22.7666,
      "duration": 0.1631,
      "velocity": 93,
      "chip": "ym2612"
    },
    {
      "channel": 0,
      "note": 50,
      "start": 23.0158,
      "duration": 0.1304,
      "velocity": 88,
      "chip": "ym2612"
    },
    {
      "channel": 1,
      "note": 38,
      "start": 23.0185,
      "duration": 0.0612,
      "velocity": 98,
      "chip": "ym2612"
    },
    {
      "channel": 4,
      "note": 33,
      "start": 23.0214,
      "duration": 0.1916,
      "velocity": 113,
      "chip": "ym2612"
    },
    {
      "channel": 5,
      "note": 38,
      "start": 23.0497,
      "duration": 0.1634,
      "velocity": 93,
      "chip": "ym2612"
    },
    {
      "channel": 0,
      "note": 50,
      "start": 23.2993,
      "duration": 0.0637,
      "velocity": 88,
      "chip": "ym2612"
    },
    {
      "channel": 1,
      "note": 38,
      "start": 23.302,
      "duration": 0.1277,
      "velocity": 98,
      "chip": "ym2612"
    },
    {
      "channel": 5,
      "note": 38,
      "start": 23.3499,
      "duration": 0.08,
      "velocity": 93,
      "chip": "ym2612"
    },
    {
      "channel": 0,
      "note": 50,
      "start": 23.433,
      "duration": 0.0966,
      "velocity": 88,
      "chip": "ym2612"
    },
    {
      "channel": 5,
      "note": 38,
      "start": 23.4831,
      "duration": 0.1133,
      "velocity": 93,
      "chip": "ym2612"
    },
    {
      "channel": 0,
      "note": 62,
      "start": 23.5826,
      "duration": 0.197,
      "velocity": 88,
      "chip": "ym2612"
    },
    {
      "channel": 2,
      "note": 70,
      "start": 23.5858,
      "duration": 0.4773,
      "velocity": 127,
      "chip": "ym2612"
    },
    {
      "channel": 5,
      "note": 50,
      "start": 23.6336,
      "duration": 0.1795,
      "velocity": 93,
      "chip": "ym2612"
    },
    {
      "channel": 0,
      "note": 50,
      "start": 23.8659,
      "duration": 0.0803,
      "velocity": 88,
      "chip": "ym2612"
    },
    {
      "channel": 1,
      "note": 38,
      "start": 23.8687,
      "duration": 0.0443,
      "velocity": 98,
      "chip": "ym2612"
    },
    {
      "channel": 5,
      "note": 38,
      "start": 23.9167,
      "duration": 0.0964,
      "velocity": 93,
      "chip": "ym2612"
    },
    {
      "channel": 0,
      "note": 50,
      "start": 24.0159,
      "duration": 0.0971,
      "velocity": 88,
      "chip": "ym2612"
    },
    {
      "channel": 1,
      "note": 38,
      "start": 24.0184,
      "duration": 0.0612,
      "velocity": 98,
      "chip": "ym2612"
    },
    {
      "channel": 5,
      "note": 38,
      "start": 24.0664,
      "duration": 0.0966,
      "velocity": 93,
      "chip": "ym2612"
    },
    {
      "channel": 0,
      "note": 53,
      "start": 24.1659,
      "duration": 0.1136,
      "velocity": 88,
      "chip": "ym2612"
    },
    {
      "channel": 1,
      "note": 67,
      "start": 24.169,
      "duration": 0.2271,
      "velocity": 98,
      "chip": "ym2612"
    },
    {
      "channel": 3,
      "note": 71,
      "start": 24.1715,
      "duration": 0.2249,
      "velocity": 98,
      "chip": "ym2612"
    },
    {
      "channel": 4,
      "note": 33,
      "start": 24.1744,
      "duration": 0.072,
      "velocity": 113,
      "chip": "ym2612"
    },
    {
      "channel": 5,
      "note": 41,
      "start": 24.1999,
      "duration": 0.1465,
      "velocity": 93,
      "chip": "ym2612"
    },
    {
      "channel": 0,
      "note": 53,
      "start": 24.449,
      "duration": 0.1138,
      "velocity": 88,
      "chip": "ym2612"
    },
    {
      "channel": 1,
      "note": 38,
      "start": 24.4517,
      "duration": 0.0446,
      "velocity": 98,
      "chip": "ym2612"
    },
    {
      "channel": 4,
      "note": 33,
      "start": 24.4546,
      "duration": 0.1085,
      "velocity": 113,
      "chip": "ym2612"
    },
    {
      "channel": 5,
      "note": 41,
      "start": 24.5001,
      "duration": 0.1131,
      "velocity": 93,
      "chip": "ym2612"
    },
    {
      "channel": 0,
      "note": 55,
      "start": 24.5824,
      "duration": 0.1305,
      "velocity": 88,
      "chip": "ym2612"
    },
    {
      "channel": 1,
      "note": 67,
      "start": 24.5851,
      "duration": 0.6779,
      "velocity": 98,
      "chip": "ym2612"
    },
    {
      "channel": 3,
      "note": 71,
      "start": 24.5877,
      "duration": 0.6419,
      "velocity": 98,
      "chip": "ym2612"
    },
    {
      "channel": 5,
      "note": 43,
      "start": 24.6333,
      "duration": 0.1466,
      "velocity": 93,
      "chip": "ym2612"
    },
    {
      "channel": 2,
      "note": 70,
      "start": 24.7335,
      "duration": 0.4297,
      "velocity": 127,
      "chip": "ym2612"
    },
    {
      "channel": 0,
      "note": 55,
      "start": 24.8829,
      "duration": 0.0634,
      "velocity": 88,
      "chip": "ym2612"
    },
    {
      "channel": 5,
      "note": 43,
      "start": 24.9337,
      "duration": 0.0628,
      "velocity": 93,
      "chip": "ym2612"
    },
    {
      "channel": 0,
      "note": 53,
      "start": 25.0158,
      "duration": 0.0971,
      "velocity": 88,
      "chip": "ym2612"
    },
    {
      "channel": 5,
      "note": 41,
      "start": 25.0665,
      "duration": 0.1132,
      "velocity": 93,
      "chip": "ym2612"
    },
    {
      "channel": 0,
      "note": 55,
      "start": 25.1657,
      "duration": 0.0973,
      "velocity": 88,
      "chip": "ym2612"
    },
    {
      "channel": 5,
      "note": 43,
      "start": 25.2164,
      "duration": 0.0966,
      "velocity": 93,
      "chip": "ym2612"
    },
    {
      "channel": 0,
      "note": 50,
      "start": 25.3157,
      "duration": 0.0805,
      "velocity": 88,
      "chip": "ym2612"
    },
    {
      "channel": 1,
      "note": 38,
      "start": 25.3188,
      "duration": 0.0275,
      "velocity": 98,
      "chip": "ym2612"
    },
    {
      "channel": 4,
      "note": 33,
      "start": 25.3217,
      "duration": 0.2914,
      "velocity": 113,
      "chip": "ym2612"
    },
    {
      "channel": 5,
      "note": 38,
      "start": 25.3501,
      "duration": 0.1297,
      "velocity": 93,
      "chip": "ym2612"
    },
    {
      "channel": 0,
      "note": 50,
      "start": 25.5991,
      "duration": 0.0138,
      "velocity": 88,
      "chip": "ym2612"
    },
    {
      "channel": 1,
      "note": 38,
      "start": 25.6017,
      "duration": 0.0613,
      "velocity": 98,
      "chip": "ym2612"
    },
    {
      "channel": 5,
      "note": 38,
      "start": 25.65,
      "duration": 0.0465,
      "velocity": 93,
      "chip": "ym2612"
    },
    {
      "channel": 0,
      "note": 50,
      "start": 25.7324,
      "duration": 0.0972,
      "velocity": 88,
      "chip": "ym2612"
    },
    {
      "channel": 5,
      "note": 38,
      "start": 25.7832,
      "duration": 0.1298,
      "velocity": 93,
      "chip": "ym2612"
    },
    {
      "channel": 0,
      "note": 62,
      "start": 25.8825,
      "duration": 0.1471,
      "velocity": 88,
      "chip": "ym2612"
    },
    {
      "channel": 1,
      "note": 69,
      "start": 25.8853,
      "duration": 0.0943,
      "velocity": 98,
      "chip": "ym2612"
    },
    {
      "channel": 3,
      "note": 65,
      "start": 25.8877,
      "duration": 0.092,
      "velocity": 98,
      "chip": "ym2612"
    },
    {
      "channel": 2,
      "note": 70,
      "start": 25.8905,
      "duration": 0.4226,
      "velocity": 127,
      "chip": "ym2612"
    },
    {
      "channel": 5,
      "note": 50,
      "start": 25.9337,
      "duration": 0.1628,
      "velocity": 93,
      "chip": "ym2612"
    },
    {
      "channel": 1,
      "note": 62,
      "start": 26.0325,
      "duration": 0.0804,
      "velocity": 98,
      "chip": "ym2612"
    },
    {
      "channel": 0,
      "note": 50,
      "start": 26.1662,
      "duration": 0.1302,
      "velocity": 88,
      "chip": "ym2612"
    },
    {
      "channel": 1,
      "note": 60,
      "start": 26.1687,
      "duration": 0.0775,
      "velocity": 98,
      "chip": "ym2612"
    },
    {
      "channel": 5,
      "note": 38,
      "start": 26.2165,
      "duration": 0.1132,
      "velocity": 93,
      "chip": "ym2612"
    },
    {
      "channel": 1,
      "note": 62,
      "start": 26.3161,
      "duration": 0.1468,
      "velocity": 98,
      "chip": "ym2612"
    },
    {
      "channel": 0,
      "note": 57,
      "start": 26.466,
      "duration": 0.3303,
      "velocity": 88,
      "chip": "ym2612"
    },
    {
      "channel": 4,
      "note": 33,
      "start": 26.4694,
      "duration": 0.2102,
      "velocity": 113,
      "chip": "ym2612"
    },
    {
      "channel": 5,
      "note": 45,
      "start": 26.5,
      "duration": 0.3631,
      "velocity": 93,
      "chip": "ym2612"
    },
    {
      "channel": 0,
      "note": 56,
      "start": 26.8993,
      "duration": 0.1637,
      "velocity": 88,
      "chip": "ym2612"
    },
    {
      "channel": 5,
      "note": 44,
      "start": 26.9333,
      "duration": 0.1632,
      "velocity": 93,
      "chip": "ym2612"
    },
    {
      "channel": 4,
      "note": 33,
      "start": 27.0328,
      "duration": 0.247,
      "velocity": 113,
      "chip": "ym2612"
    },
    {
      "channel": 2,
      "note": 70,
      "start": 27.0358,
      "duration": 0.2443,
      "velocity": 127,
      "chip": "ym2612"
    },
    {
      "channel": 0,
      "note": 55,
      "start": 27.1827,
      "duration": 0.0969,
      "velocity": 88,
      "chip": "ym2612"
    },
    {
      "channel": 5,
      "note": 43,
      "start": 27.2333,
      "duration": 0.1131,
      "velocity": 93,
      "chip": "ym2612"
    },
    {
      "channel": 0,
      "note": 53,
      "start": 27.3159,
      "duration": 0.1636,
      "velocity": 88,
      "chip": "ym2612"
    },
    {
      "channel": 2,
      "note": 70,
      "start": 27.3192,
      "duration": 0.1439,
      "velocity": 127,
      "chip": "ym2612"
    },
    {
      "channel": 5,
      "note": 41,
      "start": 27.3666,
      "duration": 0.1964,
      "velocity": 93,
      "chip": "ym2612"
    },
    {
      "channel": 0,
      "note": 50,
      "start": 27.6169,
      "duration": 0.0627,
      "velocity": 88,
      "chip": "ym2612"
    },
    {
      "channel": 1,
      "note": 69,
      "start": 27.6199,
      "duration": 0.2764,
      "velocity": 98,
      "chip": "ym2612"
    },
    {
      "channel": 3,
      "note": 74,
      "start": 27.6224,
      "duration": 0.2741,
      "velocity": 98,
      "chip": "ym2612"
    },
    {
      "channel": 4,
      "note": 33,
      "start": 27.6253,
      "duration": 0.2377,
      "velocity": 113,
      "chip": "ym2612"
    },
    {
      "channel": 5,
      "note": 38,
      "start": 27.668,
      "duration": 0.0617,
      "velocity": 93,
      "chip": "ym2612"
    },
    {
      "channel": 0,
      "note": 50,
      "start": 27.8994,
      "duration": 0.0468,
      "velocity": 88,
      "chip": "ym2612"
    },
    {
      "channel": 1,
      "note": 67,
      "start": 27.9021,
      "duration": 0.0609,
      "velocity": 98,
      "chip": "ym2612"
    },
    {
      "channel": 3,
      "note": 72,
      "start": 27.9047,
      "duration": 0.0416,
      "velocity": 98,
      "chip": "ym2612"
    },
    {
      "channel": 5,
      "note": 38,
      "start": 27.95,
      "duration": 0.0631,
      "velocity": 93,
      "chip": "ym2612"
    },
    {
      "channel": 0,
      "note": 50,
      "start": 28.0491,
      "duration": 0.1138,
      "velocity": 88,
      "chip": "ym2612"
    },
    {
      "channel": 5,
      "note": 38,
      "start": 28.0832,
      "duration": 0.1298,
      "velocity": 93,
      "chip": "ym2612"
    },
    {
      "channel": 0,
      "note": 62,
      "start": 28.1825,
      "duration": 0.2137,
      "velocity": 88,
      "chip": "ym2612"
    },
    {
      "channel": 1,
      "note": 74,
      "start": 28.1853,
      "duration": 0.1444,
      "velocity": 98,
      "chip": "ym2612"
    },
    {
      "channel": 3,
      "note": 69,
      "start": 28.1877,
      "duration": 0.1421,
      "velocity": 98,
      "chip": "ym2612"
    },
    {
      "channel": 2,
      "note": 70,
      "start": 28.1909,
      "duration": 0.4723,
      "velocity": 127,
      "chip": "ym2612"
    },
    {
      "channel": 5,
      "note": 50,
      "start": 28.2333,
      "duration": 0.2132,
      "velocity": 93,
      "chip": "ym2612"
    },
    {
      "channel": 0,
      "note": 50,
      "start": 28.4659,
      "duration": 0.0469,
      "velocity": 88,
      "chip": "ym2612"
    },
    {
      "channel": 1,
      "note": 72,
      "start": 28.469,
      "duration": 0.0273,
      "velocity": 98,
      "chip": "ym2612"
    },
    {
      "channel": 3,
      "note": 67,
      "start": 28.4717,
      "duration": 0.0414,
      "velocity": 98,
      "chip": "ym2612"
    },
    {
      "channel": 5,
      "note": 38,
      "start": 28.5168,
      "duration": 0.0796,
      "velocity": 93,
      "chip": "ym2612"
    },
    {
      "channel": 0,
      "note": 50,
      "start": 28.6161,
      "duration": 0.0969,
      "velocity": 88,
      "chip": "ym2612"
    },
    {
      "channel": 1,
      "note": 77,
      "start": 28.6188,
      "duration": 0.1109,
      "velocity": 98,
      "chip": "ym2612"
    },
    {
      "channel": 3,
      "note": 72,
      "start": 28.6213,
      "duration": 0.1085,
      "velocity": 98,
      "chip": "ym2612"
    },
    {
      "channel": 5,
      "note": 38,
      "start": 28.6669,
      "duration": 0.0962,
      "velocity": 93,
      "chip": "ym2612"
    },
    {
      "channel": 0,
      "note": 53,
      "start": 28.7659,
      "duration": 0.1137,
      "velocity": 88,
      "chip": "ym2612"
    },
    {
      "channel": 4,
      "note": 33,
      "start": 28.769,
      "duration": 0.1108,
      "velocity": 113,
      "chip": "ym2612"
    },
    {
      "channel": 5,
      "note": 41,
      "start": 28.8167,
      "duration": 0.1298,
      "velocity": 93,
      "chip": "ym2612"
    },
    {
      "channel": 1,
      "note": 74,
      "start": 28.8994,
      "duration": 0.1469,
      "velocity": 98,
      "chip": "ym2612"
    },
    {
      "channel": 3,
      "note": 69,
      "start": 28.9019,
      "duration": 0.1445,
      "velocity": 98,
      "chip": "ym2612"
    },
    {
      "channel": 0,
      "note": 53,
      "start": 29.0493,
      "duration": 0.1136,
      "velocity": 88,
      "chip": "ym2612"
    },
    {
      "channel": 4,
      "note": 33,
      "start": 29.0523,
      "duration": 0.2608,
      "velocity": 113,
      "chip": "ym2612"
    },
    {
      "channel": 5,
      "note": 41,
      "start": 29.1,
      "duration": 0.1131,
      "velocity": 93,
      "chip": "ym2612"
    },
    {
      "channel": 0,
      "note": 55,
      "start": 29.199,
      "duration": 0.1139,
      "velocity": 88,
      "chip": "ym2612"
    },
    {
      "channel": 1,
      "note": 67,
      "start": 29.2016,
      "duration": 0.128,
      "velocity": 98,
      "chip": "ym2612"
    },
    {
      "channel": 3,
      "note": 72,
      "start": 29.2046,
      "duration": 0.0751,
      "velocity": 98,
      "chip": "ym2612"
    },
    {
      "channel": 5,
      "note": 43,
      "start": 29.2332,
      "duration": 0.1299,
      "velocity": 93,
      "chip": "ym2612"
    },
    {
      "channel": 2,
      "note": 70,
      "start": 29.3332,
      "duration": 0.4633,
      "velocity": 127,
      "chip": "ym2612"
    },
    {
      "channel": 0,
      "note": 55,
      "start": 29.4825,
      "duration": 0.097,
      "velocity": 88,
      "chip": "ym2612"
    },
    {
      "channel": 1,
      "note": 67,
      "start": 29.4851,
      "duration": 0.0945,
      "velocity": 98,
      "chip": "ym2612"
    },
    {
      "channel": 3,
      "note": 72,
      "start": 29.4877,
      "duration": 0.0585,
      "velocity": 98,
      "chip": "ym2612"
    },
    {
      "channel": 5,
      "note": 43,
      "start": 29.5334,
      "duration": 0.0798,
      "velocity": 93,
      "chip": "ym2612"
    },
    {
      "channel": 0,
      "note": 53,
      "start": 29.6159,
      "duration": 0.1303,
      "velocity": 88,
      "chip": "ym2612"
    },
    {
      "channel": 1,
      "note": 69,
      "start": 29.6186,
      "duration": 0.0944,
      "velocity": 98,
      "chip": "ym2612"
    },
    {
      "channel": 3,
      "note": 74,
      "start": 29.6212,
      "duration": 0.1252,
      "velocity": 98,
      "chip": "ym2612"
    },
    {
      "channel": 5,
      "note": 41,
      "start": 29.6665,
      "duration": 0.1299,
      "velocity": 93,
      "chip": "ym2612"
    },
    {
      "channel": 0,
      "note": 55,
      "start": 29.7657,
      "duration": 0.0638,
      "velocity": 88,
      "chip": "ym2612"
    },
    {
      "channel": 1,
      "note": 67,
      "start": 29.7688,
      "duration": 0.0609,
      "velocity": 98,
      "chip": "ym2612"
    },
    {
      "channel": 3,
      "note": 72,
      "start": 29.7714,
      "duration": 0.0415,
      "velocity": 98,
      "chip": "ym2612"
    },
    {
      "channel": 5,
      "note": 43,
      "start": 29.8165,
      "duration": 0.0966,
      "velocity": 93,
      "chip": "ym2612"
    },
    {
      "channel": 0,
      "note": 50,
      "start": 29.9164,
      "duration": 0.0799,
      "velocity": 88,
      "chip": "ym2612"
    },
    {
      "channel": 1,
      "note": 74,
      "start": 29.9191,
      "duration": 0.1605,
      "velocity": 98,
      "chip": "ym2612"
    },
    {
      "channel": 3,
      "note": 69,
      "start": 29.9216,
      "duration": 0.1582,
      "velocity": 98,
      "chip": "ym2612"
    },
    {
      "channel": 4,
      "note": 33,
      "start": 29.9248,
      "duration": 0.4382,
      "velocity": 113,
      "chip": "ym2612"
    },
    {
      "channel": 5,
      "note": 38,
      "start": 29.9671,
      "duration": 0.1128,
      "velocity": 93,
      "chip": "ym2612"
    },
    {
      "channel": 0,
      "note": 50,
      "start": 30.1992,
      "duration": 0.047,
      "velocity": 88,
      "chip": "ym2612"
    },
    {
      "channel": 1,
      "note": 67,
      "start": 30.2019,
      "duration": 0.061,
      "velocity": 98,
      "chip": "ym2612"
    },
    {
      "channel": 3,
      "note": 72,
      "start": 30.2043,
      "duration": 0.0587,
      "velocity": 98,
      "chip": "ym2612"
    },
    {
      "channel": 5,
      "note": 38,
      "start": 30.25,
      "duration": 0.0631,
      "velocity": 93,
      "chip": "ym2612"
    },
    {
      "channel": 0,
      "note": 50,
      "start": 30.3491,
      "duration": 0.1137,
      "velocity": 88,
      "chip": "ym2612"
    },
    {
      "channel": 5,
      "note": 38,
      "start": 30.3832,
      "duration": 0.1299,
      "velocity": 93,
      "chip": "ym2612"
    },
    {
      "channel": 0,
      "note": 62,
      "start": 30.4825,
      "duration": 0.1637,
      "velocity": 88,
      "chip": "ym2612"
    },
    {
      "channel": 1,
      "note": 74,
      "start": 30.4856,
      "duration": 0.1607,
      "velocity": 98,
      "chip": "ym2612"
    },
    {
      "channel": 3,
      "note": 69,
      "start": 30.4883,
      "duration": 0.1914,
      "velocity": 98,
      "chip": "ym2612"
    },
    {
      "channel": 2,
      "note": 70,
      "start": 30.4912,
      "duration": 0.522,
      "velocity": 127,
      "chip": "ym2612"
    },
    {
      "channel": 5,
      "note": 50,
      "start": 30.5334,
      "duration": 0.1631,
      "velocity": 93,
      "chip": "ym2612"
    },
    {
      "channel": 0,
      "note": 50,
      "start": 30.7659,
      "duration": 0.0469,
      "velocity": 88,
      "chip": "ym2612"
    },
    {
      "channel": 1,
      "note": 72,
      "start": 30.7687,
      "duration": 0.0276,
      "velocity": 98,
      "chip": "ym2612"
    },
    {
      "channel": 3,
      "note": 67,
      "start": 30.7711,
      "duration": 0.0253,
      "velocity": 98,
      "chip": "ym2612"
    },
    {
      "channel": 5,
      "note": 38,
      "start": 30.8168,
      "duration": 0.0463,
      "velocity": 93,
      "chip": "ym2612"
    },
    {
      "channel": 0,
      "note": 50,
      "start": 30.9158,
      "duration": 0.0971,
      "velocity": 88,
      "chip": "ym2612"
    },
    {
      "channel": 1,
      "note": 72,
      "start": 30.9185,
      "duration": 0.1444,
      "velocity": 98,
      "chip": "ym2612"
    },
    {
      "channel": 3,
      "note": 77,
      "start": 30.9211,
      "duration": 0.1087,
      "velocity": 98,
      "chip": "ym2612"
    },
    {
      "channel": 5,
      "note": 38,
      "start": 30.9666,
      "duration": 0.1132,
      "velocity": 93,
      "chip": "ym2612"
    },
    {
      "channel": 0,
      "note": 53,
      "start": 31.0663,
      "duration": 0.1132,
      "velocity": 88,
      "chip": "ym2612"
    },
    {
      "channel": 4,
      "note": 33,
      "start": 31.0693,
      "duration": 0.1105,
      "velocity": 113,
      "chip": "ym2612"
    },
    {
      "channel": 5,
      "note": 41,
      "start": 31.1169,
      "duration": 0.1128,
      "velocity": 93,
      "chip": "ym2612"
    },
    {
      "channel": 1,
      "note": 69,
      "start": 31.1997,
      "duration": 0.1633,
      "velocity": 98,
      "chip": "ym2612"
    },
    {
      "channel": 3,
      "note": 74,
      "start": 31.2022,
      "duration": 0.161,
      "velocity": 98,
      "chip": "ym2612"
    },
    {
      "channel": 0,
      "note": 53,
      "start": 31.3491,
      "duration": 0.1137,
      "velocity": 88,
      "chip": "ym2612"
    },
    {
      "channel": 4,
      "note": 33,
      "start": 31.3521,
      "duration": 0.2276,
      "velocity": 113,
      "chip": "ym2612"
    },
    {
      "channel": 5,
      "note": 41,
      "start": 31.3998,
      "duration": 0.1132,
      "velocity": 93,
      "chip": "ym2612"
    },
    {
      "channel": 0,
      "note": 55,
      "start": 31.4992,
      "duration": 0.3303,
      "velocity": 88,
      "chip": "ym2612"
    },
    {
      "channel": 5,
      "note": 43,
      "start": 31.55,
      "duration": 0.3298,
      "velocity": 93,
      "chip": "ym2612"
    },
    {
      "channel": 2,
      "note": 70,
      "start": 31.6335,
      "duration": 0.413,
      "velocity": 127,
      "chip": "ym2612"
    },
    {
      "channel": 0,
      "note": 53,
      "start": 31.9326,
      "duration": 0.1303,
      "velocity": 88,
      "chip": "ym2612"
    },
    {
      "channel": 5,
      "note": 41,
      "start": 31.9667,
      "duration": 0.1631,
      "velocity": 93,
      "chip": "ym2612"
    },
    {
      "channel": 0,
      "note": 50,
      "start": 32.2156,
      "duration": 0.1307,
      "velocity": 88,
      "chip": "ym2612"
    },
    {
      "channel": 1,
      "note": 69,
      "start": 32.2183,
      "duration": 0.1779,
      "velocity": 98,
      "chip": "ym2612"
    },
    {
      "channel": 3,
      "note": 74,
      "start": 32.221,
      "duration": 0.1587,
      "velocity": 98,
      "chip": "ym2612"
    },
    {
      "channel": 4,
      "note": 33,
      "start": 32.2239,
      "duration": 0.1226,
      "velocity": 113,
      "chip": "ym2612"
    },
    {
      "channel": 5,
      "note": 38,
      "start": 32.2663,
      "duration": 0.1635,
      "velocity": 93,
      "chip": "ym2612"
    },
    {
      "channel": 0,
      "note": 50,
      "start": 32.4992,
      "duration": 0.0637,
      "velocity": 88,
      "chip": "ym2612"
    },
    {
      "channel": 1,
      "note": 72,
      "start": 32.5019,
      "duration": 0.0611,
      "velocity": 98,
      "chip": "ym2612"
    },
    {
      "channel": 3,
      "note": 67,
      "start": 32.5045,
      "duration": 0.0918,
      "velocity": 98,
      "chip": "ym2612"
    },
    {
      "channel": 5,
      "note": 38,
      "start": 32.55,
      "duration": 0.0964,
      "velocity": 93,
      "chip": "ym2612"
    },
    {
      "channel": 0,
      "note": 50,
      "start": 32.6495,
      "duration": 0.08,
      "velocity": 88,
      "chip": "ym2612"
    },
    {
      "channel": 5,
      "note": 38,
      "start": 32.6999,
      "duration": 0.1132,
      "velocity": 93,
      "chip": "ym2612"
    },
    {
      "channel": 0,
      "note": 62,
      "start": 32.7826,
      "duration": 0.1969,
      "velocity": 88,
      "chip": "ym2612"
    },
    {
      "channel": 1,
      "note": 74,
      "start": 32.7856,
      "duration": 0.1439,
      "velocity": 98,
      "chip": "ym2612"
    },
    {
      "channel": 3,
      "note": 69,
      "start": 32.7883,
      "duration": 0.1913,
      "velocity": 98,
      "chip": "ym2612"
    },
    {
      "channel": 2,
      "note": 70,
      "start": 32.7913,
      "duration": 0.422,
      "velocity": 127,
      "chip": "ym2612"
    },
    {
      "channel": 5,
      "note": 50,
      "start": 32.8337,
      "duration": 0.1961,
      "velocity": 93,
      "chip": "ym2612"
    },
    {
      "channel": 0,
      "note": 50,
      "start": 33.0825,
      "duration": 0.0637,
      "velocity": 88,
      "chip": "ym2612"
    },
    {
      "channel": 1,
      "note": 72,
      "start": 33.0852,
      "duration": 0.0277,
      "velocity": 98,
      "chip": "ym2612"
    },
    {
      "channel": 5,
      "note": 38,
      "start": 33.1168,
      "duration": 0.0964,
      "velocity": 93,
      "chip": "ym2612"
    },
    {
      "channel": 0,
      "note": 50,
      "start": 33.2159,
      "duration": 0.097,
      "velocity": 88,
      "chip": "ym2612"
    },
    {
      "channel": 1,
      "note": 72,
      "start": 33.2187,
      "duration": 0.0776,
      "velocity": 98,
      "chip": "ym2612"
    },
    {
      "channel": 3,
      "note": 77,
      "start": 33.2213,
      "duration": 0.0919,
      "velocity": 98,
      "chip": "ym2612"
    },
    {
      "channel": 5,
      "note": 38,
      "start": 33.2663,
      "duration": 0.0968,
      "velocity": 93,
      "chip": "ym2612"
    },
    {
      "channel": 0,
      "note": 53,
      "start": 33.3659,
      "duration": 0.1137,
      "velocity": 88,
      "chip": "ym2612"
    },
    {
      "channel": 4,
      "note": 33,
      "start": 33.369,
      "duration": 0.0607,
      "velocity": 113,
      "chip": "ym2612"
    },
    {
      "channel": 5,
      "note": 41,
      "start": 33.4166,
      "duration": 0.1298,
      "velocity": 93,
      "chip": "ym2612"
    },
    {
      "channel": 1,
      "note": 69,
      "start": 33.4998,
      "duration": 0.1297,
      "velocity": 98,
      "chip": "ym2612"
    },
    {
      "channel": 3,
      "note": 74,
      "start": 33.5023,
      "duration": 0.1273,
      "velocity": 98,
      "chip": "ym2612"
    },
    {
      "channel": 0,
      "note": 53,
      "start": 33.6491,
      "duration": 0.1138,
      "velocity": 88,
      "chip": "ym2612"
    },
    {
      "channel": 4,
      "note": 33,
      "start": 33.6522,
      "duration": 0.2109,
      "velocity": 113,
      "chip": "ym2612"
    },
    {
      "channel": 5,
      "note": 41,
      "start": 33.7,
      "duration": 0.1131,
      "velocity": 93,
      "chip": "ym2612"
    },
    {
      "channel": 0,
      "note": 55,
      "start": 33.7991,
      "duration": 0.1137,
      "velocity": 88,
      "chip": "ym2612"
    },
    {
      "channel": 1,
      "note": 69,
      "start": 33.8018,
      "duration": 0.0111,
      "velocity": 98,
      "chip": "ym2612"
    },
    {
      "channel": 5,
      "note": 43,
      "start": 33.8499,
      "duration": 0.1298,
      "velocity": 93,
      "chip": "ym2612"
    },
    {
      "channel": 1,
      "note": 69,
      "start": 33.9328,
      "duration": 0.1969,
      "velocity": 98,
      "chip": "ym2612"
    },
    {
      "channel": 3,
      "note": 74,
      "start": 33.9354,
      "duration": 0.2111,
      "velocity": 98,
      "chip": "ym2612"
    },
    {
      "channel": 2,
      "note": 70,
      "start": 33.9386,
      "duration": 0.2579,
      "velocity": 127,
      "chip": "ym2612"
    },
    {
      "channel": 0,
      "note": 55,
      "start": 34.0829,
      "duration": 0.0634,
      "velocity": 88,
      "chip": "ym2612"
    },
    {
      "channel": 5,
      "note": 43,
      "start": 34.1339,
      "duration": 0.0625,
      "velocity": 93,
      "chip": "ym2612"
    },
    {
      "channel": 0,
      "note": 53,
      "start": 34.2323,
      "duration": 0.0806,
      "velocity": 88,
      "chip": "ym2612"
    },
    {
      "channel": 1,
      "note": 72,
      "start": 34.2351,
      "duration": 0.0612,
      "velocity": 98,
      "chip": "ym2612"
    },
    {
      "channel": 2,
      "note": 70,
      "start": 34.2383,
      "duration": 0.1081,
      "velocity": 127,
      "chip": "ym2612"
    },
    {
      "channel": 5,
      "note": 41,
      "start": 34.2666,
      "duration": 0.1298,
      "velocity": 93,
      "chip": "ym2612"
    },
    {
      "channel": 0,
      "note": 55,
      "start": 34.3655,
      "duration": 0.0974,
      "velocity": 88,
      "chip": "ym2612"
    },
    {
      "channel": 1,
      "note": 69,
      "start": 34.3687,
      "duration": 0.1443,
      "velocity": 98,
      "chip": "ym2612"
    },
    {
      "channel": 3,
      "note": 74,
      "start": 34.3713,
      "duration": 0.2419,
      "velocity": 98,
      "chip": "ym2612"
    },
    {
      "channel": 5,
      "note": 43,
      "start": 34.4165,
      "duration": 0.0967,
      "velocity": 93,
      "chip": "ym2612"
    },
    {
      "channel": 0,
      "note": 50,
      "start": 34.5159,
      "duration": 0.0971,
      "velocity": 88,
      "chip": "ym2612"
    },
    {
      "channel": 4,
      "note": 33,
      "start": 34.5193,
      "duration": 0.0604,
      "velocity": 113,
      "chip": "ym2612"
    },
    {
      "channel": 5,
      "note": 38,
      "start": 34.5666,
      "duration": 0.1132,
      "velocity": 93,
      "chip": "ym2612"
    },
    {
      "channel": 0,
      "note": 50,
      "start": 34.7992,
      "duration": 0.0304,
      "velocity": 88,
      "chip": "ym2612"
    },
    {
      "channel": 4,
      "note": 33,
      "start": 34.8022,
      "duration": 0.1941,
      "velocity": 113,
      "chip": "ym2612"
    },
    {
      "channel": 5,
      "note": 38,
      "start": 34.85,
      "duration": 0.0464,
      "velocity": 93,
      "chip": "ym2612"
    },
    {
      "channel": 0,
      "note": 50,
      "start": 34.9491,
      "duration": 0.0805,
      "velocity": 88,
      "chip": "ym2612"
    },
    {
      "channel": 5,
      "note": 38,
      "start": 34.9999,
      "duration": 0.1132,
      "velocity": 93,
      "chip": "ym2612"
    },
    {
      "channel": 0,
      "note": 62,
      "start": 35.0826,
      "duration": 0.1469,
      "velocity": 88,
      "chip": "ym2612"
    },
    {
      "channel": 2,
      "note": 70,
      "start": 35.0858,
      "duration": 0.5106,
      "velocity": 127,
      "chip": "ym2612"
    },
    {
      "channel": 5,
      "note": 50,
      "start": 35.1337,
      "duration": 0.1628,
      "velocity": 93,
      "chip": "ym2612"
    },
    {
      "channel": 0,
      "note": 50,
      "start": 35.3828,
      "duration": 0.1135,
      "velocity": 88,
      "chip": "ym2612"
    },
    {
      "channel": 5,
      "note": 38,
      "start": 35.4332,
      "duration": 0.1132,
      "velocity": 93,
      "chip": "ym2612"
    },
    {
      "channel": 1,
      "note": 50,
      "start": 35.5162,
      "duration": 0.0468,
      "velocity": 98,
      "chip": "ym2612"
    },
    {
      "channel": 0,
      "note": 57,
      "start": 35.6658,
      "duration": 0.3305,
      "velocity": 88,
      "chip": "ym2612"
    },
    {
      "channel": 1,
      "note": 71,
      "start": 35.6684,
      "duration": 0.0446,
      "velocity": 98,
      "chip": "ym2612"
    },
    {
      "channel": 3,
      "note": 67,
      "start": 35.6709,
      "duration": 0.0088,
      "velocity": 98,
      "chip": "ym2612"
    },
    {
      "channel": 4,
      "note": 62,
      "start": 35.6737,
      "duration": 0.0395,
      "velocity": 98,
      "chip": "ym2612"
    },
    {
      "channel": 5,
      "note": 33,
      "start": 35.6766,
      "duration": 0.1698,
      "velocity": 113,
      "chip": "ym2612"
    },
    {
      "channel": 2,
      "note": 45,
      "start": 35.717,
      "duration": 0.3462,
      "velocity": 93,
      "chip": "ym2612"
    },
    {
      "channel": 1,
      "note": 71,
      "start": 35.8164,
      "duration": 0.0632,
      "velocity": 98,
      "chip": "ym2612"
    },
    {
      "channel": 3,
      "note": 67,
      "start": 35.8188,
      "duration": 0.061,
      "velocity": 98,
      "chip": "ym2612"
    },
    {
      "channel": 4,
      "note": 62,
      "start": 35.8213,
      "duration": 0.0586,
      "velocity": 98,
      "chip": "ym2612"
    },
    {
      "channel": 1,
      "note": 50,
      "start": 35.9492,
      "duration": 0.0304,
      "velocity": 98,
      "chip": "ym2612"
    },
    {
      "channel": 0,
      "note": 56,
      "start": 36.0993,
      "duration": 0.1637,
      "velocity": 88,
      "chip": "ym2612"
    },
    {
      "channel": 1,
      "note": 71,
      "start": 36.102,
      "duration": 0.1276,
      "velocity": 98,
      "chip": "ym2612"
    },
    {
      "channel": 3,
      "note": 67,
      "start": 36.1045,
      "duration": 0.0918,
      "velocity": 98,
      "chip": "ym2612"
    },
    {
      "channel": 4,
      "note": 62,
      "start": 36.1071,
      "duration": 0.056,
      "velocity": 98,
      "chip": "ym2612"
    },
    {
      "channel": 2,
      "note": 44,
      "start": 36.15,
      "duration": 0.1632,
      "velocity": 93,
      "chip": "ym2612"
    },
    {
      "channel": 5,
      "note": 33,
      "start": 36.233,
      "duration": 0.2634,
      "velocity": 113,
      "chip": "ym2612"
    },
    {
      "channel": 4,
      "note": 70,
      "start": 36.236,
      "duration": 0.2438,
      "velocity": 127,
      "chip": "ym2612"
    },
    {
      "channel": 0,
      "note": 55,
      "start": 36.3825,
      "duration": 0.0971,
      "velocity": 88,
      "chip": "ym2612"
    },
    {
      "channel": 2,
      "note": 43,
      "start": 36.4335,
      "duration": 0.113,
      "velocity": 93,
      "chip": "ym2612"
    },
    {
      "channel": 0,
      "note": 53,
      "start": 36.5326,
      "duration": 0.1636,
      "velocity": 88,
      "chip": "ym2612"
    },
    {
      "channel": 2,
      "note": 41,
      "start": 36.5834,
      "duration": 0.1796,
      "velocity": 93,
      "chip": "ym2612"
    },
    {
      "channel": 0,
      "note": 50,
      "start": 36.8169,
      "duration": 0.0627,
      "velocity": 88,
      "chip": "ym2612"
    },
    {
      "channel": 1,
      "note": 69,
      "start": 36.82,
      "duration": 0.2095,
      "velocity": 98,
      "chip": "ym2612"
    },
    {
      "channel": 3,
      "note": 74,
      "start": 36.8227,
      "duration": 0.1737,
      "velocity": 98,
      "chip": "ym2612"
    },
    {
      "channel": 5,
      "note": 33,
      "start": 36.8267,
      "duration": 0.2031,
      "velocity": 113,
      "chip": "ym2612"
    },
    {
      "channel": 2,
      "note": 38,
      "start": 36.8681,
      "duration": 0.0617,
      "velocity": 93,
      "chip": "ym2612"
    },
    {
      "channel": 0,
      "note": 50,
      "start": 37.0991,
      "duration": 0.0471,
      "velocity": 88,
      "chip": "ym2612"
    },
    {
      "channel": 1,
      "note": 72,
      "start": 37.1019,
      "duration": 0.0611,
      "velocity": 98,
      "chip": "ym2612"
    },
    {
      "channel": 3,
      "note": 67,
      "start": 37.1043,
      "duration": 0.0588,
      "velocity": 98,
      "chip": "ym2612"
    },
    {
      "channel": 2,
      "note": 38,
      "start": 37.15,
      "duration": 0.0631,
      "velocity": 93,
      "chip": "ym2612"
    },
    {
      "channel": 0,
      "note": 50,
      "start": 37.249,
      "duration": 0.1139,
      "velocity": 88,
      "chip": "ym2612"
    },
    {
      "channel": 2,
      "note": 38,
      "start": 37.3,
      "duration": 0.1132,
      "velocity": 93,
      "chip": "ym2612"
    },
    {
      "channel": 0,
      "note": 62,
      "start": 37.3826,
      "duration": 0.2136,
      "velocity": 88,
      "chip": "ym2612"
    },
    {
      "channel": 1,
      "note": 74,
      "start": 37.3853,
      "duration": 0.211,
      "velocity": 98,
      "chip": "ym2612"
    },
    {
      "channel": 3,
      "note": 69,
      "start": 37.3883,
      "duration": 0.2413,
      "velocity": 98,
      "chip": "ym2612"
    },
    {
      "channel": 4,
      "note": 70,
      "start": 37.3913,
      "duration": 0.4551,
      "velocity": 127,
      "chip": "ym2612"
    },
    {
      "channel": 2,
      "note": 50,
      "start": 37.4334,
      "duration": 0.213,
      "velocity": 93,
      "chip": "ym2612"
    },
    {
      "channel": 0,
      "note": 50,
      "start": 37.6826,
      "duration": 0.047,
      "velocity": 88,
      "chip": "ym2612"
    },
    {
      "channel": 1,
      "note": 67,
      "start": 37.6853,
      "duration": 0.0444,
      "velocity": 98,
      "chip": "ym2612"
    },
    {
      "channel": 3,
      "note": 72,
      "start": 37.6878,
      "duration": 0.042,
      "velocity": 98,
      "chip": "ym2612"
    },
    {
      "channel": 2,
      "note": 38,
      "start": 37.7337,
      "duration": 0.0627,
      "velocity": 93,
      "chip": "ym2612"
    },
    {
      "channel": 0,
      "note": 50,
      "start": 37.8161,
      "duration": 0.0969,
      "velocity": 88,
      "chip": "ym2612"
    },
    {
      "channel": 1,
      "note": 72,
      "start": 37.8188,
      "duration": 0.0943,
      "velocity": 98,
      "chip": "ym2612"
    },
    {
      "channel": 3,
      "note": 77,
      "start": 37.8213,
      "duration": 0.0919,
      "velocity": 98,
      "chip": "ym2612"
    },
    {
      "channel": 2,
      "note": 38,
      "start": 37.8669,
      "duration": 0.0962,
      "velocity": 93,
      "chip": "ym2612"
    },
    {
      "channel": 0,
      "note": 53,
      "start": 37.966,
      "duration": 0.1135,
      "velocity": 88,
      "chip": "ym2612"
    },
    {
      "channel": 5,
      "note": 33,
      "start": 37.969,
      "duration": 0.094,
      "velocity": 113,
      "chip": "ym2612"
    },
    {
      "channel": 2,
      "note": 41,
      "start": 38.0168,
      "duration": 0.1298,
      "velocity": 93,
      "chip": "ym2612"
    },
    {
      "channel": 1,
      "note": 74,
      "start": 38.1159,
      "duration": 0.0803,
      "velocity": 98,
      "chip": "ym2612"
    },
    {
      "channel": 3,
      "note": 69,
      "start": 38.1186,
      "duration": 0.1111,
      "velocity": 98,
      "chip": "ym2612"
    },
    {
      "channel": 0,
      "note": 53,
      "start": 38.2491,
      "duration": 0.1138,
      "velocity": 88,
      "chip": "ym2612"
    },
    {
      "channel": 5,
      "note": 33,
      "start": 38.2522,
      "duration": 0.211,
      "velocity": 113,
      "chip": "ym2612"
    },
    {
      "channel": 2,
      "note": 41,
      "start": 38.3001,
      "duration": 0.113,
      "velocity": 93,
      "chip": "ym2612"
    },
    {
      "channel": 0,
      "note": 55,
      "start": 38.399,
      "duration": 0.1139,
      "velocity": 88,
      "chip": "ym2612"
    },
    {
      "channel": 1,
      "note": 74,
      "start": 38.4021,
      "duration": 0.2276,
      "velocity": 98,
      "chip": "ym2612"
    },
    {
      "channel": 3,
      "note": 69,
      "start": 38.4047,
      "duration": 0.2083,
      "velocity": 98,
      "chip": "ym2612"
    },
    {
      "channel": 2,
      "note": 43,
      "start": 38.4499,
      "duration": 0.1133,
      "velocity": 93,
      "chip": "ym2612"
    },
    {
      "channel": 4,
      "note": 70,
      "start": 38.5329,
      "duration": 0.4635,
      "velocity": 127,
      "chip": "ym2612"
    },
    {
      "channel": 0,
      "note": 55,
      "start": 38.6826,
      "duration": 0.097,
      "velocity": 88,
      "chip": "ym2612"
    },
    {
      "channel": 2,
      "note": 43,
      "start": 38.7334,
      "duration": 0.0964,
      "velocity": 93,
      "chip": "ym2612"
    },
    {
      "channel": 0,
      "note": 53,
      "start": 38.8325,
      "duration": 0.1137,
      "velocity": 88,
      "chip": "ym2612"
    },
    {
      "channel": 1,
      "note": 69,
      "start": 38.8352,
      "duration": 0.1111,
      "velocity": 98,
      "chip": "ym2612"
    },
    {
      "channel": 3,
      "note": 74,
      "start": 38.8378,
      "duration": 0.0751,
      "velocity": 98,
      "chip": "ym2612"
    },
    {
      "channel": 2,
      "note": 41,
      "start": 38.8832,
      "duration": 0.1134,
      "velocity": 93,
      "chip": "ym2612"
    },
    {
      "channel": 0,
      "note": 55,
      "start": 38.9657,
      "duration": 0.0804,
      "velocity": 88,
      "chip": "ym2612"
    },
    {
      "channel": 1,
      "note": 67,
      "start": 38.9683,
      "duration": 0.0946,
      "velocity": 98,
      "chip": "ym2612"
    },
    {
      "channel": 3,
      "note": 72,
      "start": 38.9713,
      "duration": 0.0417,
      "velocity": 98,
      "chip": "ym2612"
    },
    {
      "channel": 2,
      "note": 43,
      "start": 39.0167,
      "duration": 0.0965,
      "velocity": 93,
      "chip": "ym2612"
    },
    {
      "channel": 0,
      "note": 50,
      "start": 39.1164,
      "duration": 0.0965,
      "velocity": 88,
      "chip": "ym2612"
    },
    {
      "channel": 1,
      "note": 69,
      "start": 39.1191,
      "duration": 0.1106,
      "velocity": 98,
      "chip": "ym2612"
    },
    {
      "channel": 3,
      "note": 74,
      "start": 39.1216,
      "duration": 0.1082,
      "velocity": 98,
      "chip": "ym2612"
    },
    {
      "channel": 5,
      "note": 33,
      "start": 39.1245,
      "duration": 0.422,
      "velocity": 113,
      "chip": "ym2612"
    },
    {
      "channel": 2,
      "note": 38,
      "start": 39.167,
      "duration": 0.1128,
      "velocity": 93,
      "chip": "ym2612"
    },
    {
      "channel": 0,
      "note": 50,
      "start": 39.3993,
      "duration": 0.047,
      "velocity": 88,
      "chip": "ym2612"
    },
    {
      "channel": 1,
      "note": 67,
      "start": 39.4019,
      "duration": 0.0943,
      "velocity": 98,
      "chip": "ym2612"
    },
    {
      "channel": 3,
      "note": 72,
      "start": 39.4046,
      "duration": 0.075,
      "velocity": 98,
      "chip": "ym2612"
    },
    {
      "channel": 2,
      "note": 38,
      "start": 39.4501,
      "duration": 0.063,
      "velocity": 93,
      "chip": "ym2612"
    },
    {
      "channel": 0,
      "note": 50,
      "start": 39.5492,
      "duration": 0.1137,
      "velocity": 88,
      "chip": "ym2612"
    },
    {
      "channel": 2,
      "note": 38,
      "start": 39.6,
      "duration": 0.1132,
      "velocity": 93,
      "chip": "ym2612"
    },
    {
      "channel": 0,
      "note": 62,
      "start": 39.6993,
      "duration": 0.1637,
      "velocity": 88,
      "chip": "ym2612"
    },
    {
      "channel": 1,
      "note": 74,
      "start": 39.702,
      "duration": 0.1777,
      "velocity": 98,
      "chip": "ym2612"
    },
    {
      "channel": 3,
      "note": 69,
      "start": 39.7048,
      "duration": 0.175,
      "velocity": 98,
      "chip": "ym2612"
    },
    {
      "channel": 4,
      "note": 70,
      "start": 39.7075,
      "duration": 0.4388,
      "velocity": 127,
      "chip": "ym2612"
    },
    {
      "channel": 2,
      "note": 50,
      "start": 39.7334,
      "duration": 0.1632,
      "velocity": 93,
      "chip": "ym2612"
    },
    {
      "channel": 0,
      "note": 50,
      "start": 39.9824,
      "duration": 0.0471,
      "velocity": 88,
      "chip": "ym2612"
    },
    {
      "channel": 1,
      "note": 72,
      "start": 39.9852,
      "duration": 0.0445,
      "velocity": 98,
      "chip": "ym2612"
    },
    {
      "channel": 2,
      "note": 38,
      "start": 40.0335,
      "duration": 0.0462,
      "velocity": 93,
      "chip": "ym2612"
    },
    {
      "channel": 0,
      "note": 50,
      "start": 40.1158,
      "duration": 0.097,
      "velocity": 88,
      "chip": "ym2612"
    },
    {
      "channel": 1,
      "note": 72,
      "start": 40.1185,
      "duration": 0.0945,
      "velocity": 98,
      "chip": "ym2612"
    },
    {
      "channel": 3,
      "note": 77,
      "start": 40.1211,
      "duration": 0.1253,
      "velocity": 98,
      "chip": "ym2612"
    },
    {
      "channel": 2,
      "note": 38,
      "start": 40.1666,
      "duration": 0.1132,
      "velocity": 93,
      "chip": "ym2612"
    },
    {
      "channel": 0,
      "note": 53,
      "start": 40.2662,
      "duration": 0.1134,
      "velocity": 88,
      "chip": "ym2612"
    },
    {
      "channel": 5,
      "note": 33,
      "start": 40.2697,
      "duration": 0.1101,
      "velocity": 113,
      "chip": "ym2612"
    },
    {
      "channel": 2,
      "note": 41,
      "start": 40.3169,
      "duration": 0.1129,
      "velocity": 93,
      "chip": "ym2612"
    },
    {
      "channel": 1,
      "note": 74,
      "start": 40.416,
      "duration": 0.1303,
      "velocity": 98,
      "chip": "ym2612"
    },
    {
      "channel": 3,
      "note": 69,
      "start": 40.4185,
      "duration": 0.128,
      "velocity": 98,
      "chip": "ym2612"
    },
    {
      "channel": 0,
      "note": 53,
      "start": 40.5493,
      "duration": 0.1136,
      "velocity": 88,
      "chip": "ym2612"
    },
    {
      "channel": 5,
      "note": 33,
      "start": 40.5524,
      "duration": 0.1941,
      "velocity": 113,
      "chip": "ym2612"
    },
    {
      "channel": 2,
      "note": 41,
      "start": 40.5999,
      "duration": 0.1132,
      "velocity": 93,
      "chip": "ym2612"
    },
    {
      "channel": 0,
      "note": 55,
      "start": 40.6993,
      "duration": 0.3303,
      "velocity": 88,
      "chip": "ym2612"
    },
    {
      "channel": 2,
      "note": 43,
      "start": 40.7502,
      "duration": 0.3295,
      "velocity": 93,
      "chip": "ym2612"
    },
    {
      "channel": 4,
      "note": 70,
      "start": 40.8498,
      "duration": 0.2465,
      "velocity": 127,
      "chip": "ym2612"
    },
    {
      "channel": 0,
      "note": 53,
      "start": 41.1325,
      "duration": 0.1304,
      "velocity": 88,
      "chip": "ym2612"
    },
    {
      "channel": 4,
      "note": 70,
      "start": 41.1357,
      "duration": 0.1107,
      "velocity": 127,
      "chip": "ym2612"
    },
    {
      "channel": 2,
      "note": 41,
      "start": 41.1834,
      "duration": 0.1632,
      "velocity": 93,
      "chip": "ym2612"
    },
    {
      "channel": 1,
      "note": 67,
      "start": 41.2666,
      "duration": 0.0464,
      "velocity": 98,
      "chip": "ym2612"
    },
    {
      "channel": 0,
      "note": 50,
      "start": 41.4156,
      "duration": 0.1473,
      "velocity": 88,
      "chip": "ym2612"
    },
    {
      "channel": 1,
      "note": 69,
      "start": 41.4183,
      "duration": 0.1612,
      "velocity": 98,
      "chip": "ym2612"
    },
    {
      "channel": 3,
      "note": 74,
      "start": 41.4208,
      "duration": 0.1588,
      "velocity": 98,
      "chip": "ym2612"
    },
    {
      "channel": 5,
      "note": 33,
      "start": 41.4238,
      "duration": 0.2059,
      "velocity": 113,
      "chip": "ym2612"
    },
    {
      "channel": 2,
      "note": 38,
      "start": 41.4664,
      "duration": 0.1634,
      "velocity": 93,
      "chip": "ym2612"
    },
    {
      "channel": 0,
      "note": 50,
      "start": 41.6992,
      "duration": 0.0803,
      "velocity": 88,
      "chip": "ym2612"
    },
    {
      "channel": 1,
      "note": 67,
      "start": 41.7019,
      "duration": 0.0943,
      "velocity": 98,
      "chip": "ym2612"
    },
    {
      "channel": 3,
      "note": 72,
      "start": 41.7045,
      "duration": 0.0752,
      "velocity": 98,
      "chip": "ym2612"
    },
    {
      "channel": 2,
      "note": 38,
      "start": 41.7501,
      "duration": 0.0963,
      "velocity": 93,
      "chip": "ym2612"
    },
    {
      "channel": 0,
      "note": 50,
      "start": 41.8494,
      "duration": 0.0968,
      "velocity": 88,
      "chip": "ym2612"
    },
    {
      "channel": 2,
      "note": 38,
      "start": 41.9,
      "duration": 0.1132,
      "velocity": 93,
      "chip": "ym2612"
    },
    {
      "channel": 0,
      "note": 62,
      "start": 41.9993,
      "duration": 0.1803,
      "velocity": 88,
      "chip": "ym2612"
    },
    {
      "channel": 1,
      "note": 74,
      "start": 42.002,
      "duration": 0.0276,
      "velocity": 98,
      "chip": "ym2612"
    },
    {
      "channel": 3,
      "note": 69,
      "start": 42.005,
      "duration": 0.008,
      "velocity": 98,
      "chip": "ym2612"
    },
    {
      "channel": 4,
      "note": 70,
      "start": 42.008,
      "duration": 0.4551,
      "velocity": 127,
      "chip": "ym2612"
    },
    {
      "channel": 2,
      "note": 50,
      "start": 42.0339,
      "duration": 0.1961,
      "velocity": 93,
      "chip": "ym2612"
    },
    {
      "channel": 1,
      "note": 69,
      "start": 42.1327,
      "duration": 0.0969,
      "velocity": 98,
      "chip": "ym2612"
    },
    {
      "channel": 3,
      "note": 74,
      "start": 42.1352,
      "duration": 0.0945,
      "velocity": 98,
      "chip": "ym2612"
    },
    {
      "channel": 0,
      "note": 50,
      "start": 42.2825,
      "duration": 0.0637,
      "velocity": 88,
      "chip": "ym2612"
    },
    {
      "channel": 1,
      "note": 72,
      "start": 42.2853,
      "duration": 0.0611,
      "velocity": 98,
      "chip": "ym2612"
    },
    {
      "channel": 3,
      "note": 67,
      "start": 42.2879,
      "duration": 0.0418,
      "velocity": 98,
      "chip": "ym2612"
    },
    {
      "channel": 2,
      "note": 38,
      "start": 42.3335,
      "duration": 0.0796,
      "velocity": 93,
      "chip": "ym2612"
    },
    {
      "channel": 0,
      "note": 50,
      "start": 42.4159,
      "duration": 0.097,
      "velocity": 88,
      "chip": "ym2612"
    },
    {
      "channel": 2,
      "note": 38,
      "start": 42.4666,
      "duration": 0.0966,
      "velocity": 93,
      "chip": "ym2612"
    },
    {
      "channel": 0,
      "note": 53,
      "start": 42.566,
      "duration": 0.1137,
      "velocity": 88,
      "chip": "ym2612"
    },
    {
      "channel": 1,
      "note": 72,
      "start": 42.569,
      "duration": 0.1438,
      "velocity": 98,
      "chip": "ym2612"
    },
    {
      "channel": 3,
      "note": 77,
      "start": 42.5715,
      "duration": 0.1415,
      "velocity": 98,
      "chip": "ym2612"
    },
    {
      "channel": 5,
      "note": 33,
      "start": 42.5745,
      "duration": 0.0886,
      "velocity": 113,
      "chip": "ym2612"
    },
    {
      "channel": 2,
      "note": 41,
      "start": 42.6168,
      "duration": 0.1464,
      "velocity": 93,
      "chip": "ym2612"
    },
    {
      "channel": 0,
      "note": 53,
      "start": 42.849,
      "duration": 0.1305,
      "velocity": 88,
      "chip": "ym2612"
    },
    {
      "channel": 1,
      "note": 72,
      "start": 42.8517,
      "duration": 0.0779,
      "velocity": 98,
      "chip": "ym2612"
    },
    {
      "channel": 3,
      "note": 67,
      "start": 42.8543,
      "duration": 0.0919,
      "velocity": 98,
      "chip": "ym2612"
    },
    {
      "channel": 5,
      "note": 33,
      "start": 42.8573,
      "duration": 0.1226,
      "velocity": 113,
      "chip": "ym2612"
    },
    {
      "channel": 2,
      "note": 41,
      "start": 42.9001,
      "duration": 0.113,
      "velocity": 93,
      "chip": "ym2612"
    },
    {
      "channel": 0,
      "note": 55,
      "start": 42.9991,
      "duration": 0.1138,
      "velocity": 88,
      "chip": "ym2612"
    },
    {
      "channel": 2,
      "note": 43,
      "start": 43.05,
      "duration": 0.1298,
      "velocity": 93,
      "chip": "ym2612"
    },
    {
      "channel": 1,
      "note": 74,
      "start": 43.1494,
      "duration": 0.2301,
      "velocity": 98,
      "chip": "ym2612"
    },
    {
      "channel": 3,
      "note": 69,
      "start": 43.1519,
      "duration": 0.2279,
      "velocity": 98,
      "chip": "ym2612"
    },
    {
      "channel": 4,
      "note": 70,
      "start": 43.1551,
      "duration": 0.4079,
      "velocity": 127,
      "chip": "ym2612"
    },
    {
      "channel": 0,
      "note": 55,
      "start": 43.283,
      "duration": 0.08,
      "velocity": 88,
      "chip": "ym2612"
    },
    {
      "channel": 2,
      "note": 43,
      "start": 43.3337,
      "duration": 0.0627,
      "velocity": 93,
      "chip": "ym2612"
    },
    {
      "channel": 0,
      "note": 53,
      "start": 43.4323,
      "duration": 0.0973,
      "velocity": 88,
      "chip": "ym2612"
    },
    {
      "channel": 1,
      "note": 67,
      "start": 43.4354,
      "duration": 0.1109,
      "velocity": 98,
      "chip": "ym2612"
    },
    {
      "channel": 2,
      "note": 41,
      "start": 43.4832,
      "duration": 0.1133,
      "velocity": 93,
      "chip": "ym2612"
    },
    {
      "channel": 0,
      "note": 55,
      "start": 43.5657,
      "duration": 0.0971,
      "velocity": 88,
      "chip": "ym2612"
    },
    {
      "channel": 1,
      "note": 74,
      "start": 43.5683,
      "duration": 0.2945,
      "velocity": 98,
      "chip": "ym2612"
    },
    {
      "channel": 3,
      "note": 69,
      "start": 43.5711,
      "duration": 0.2586,
      "velocity": 98,
      "chip": "ym2612"
    },
    {
      "channel": 2,
      "note": 43,
      "start": 43.6166,
      "duration": 0.0966,
      "velocity": 93,
      "chip": "ym2612"
    },
    {
      "channel": 0,
      "note": 50,
      "start": 43.7159,
      "duration": 0.0971,
      "velocity": 88,
      "chip": "ym2612"
    },
    {
      "channel": 5,
      "note": 33,
      "start": 43.719,
      "duration": 0.3108,
      "velocity": 113,
      "chip": "ym2612"
    },
    {
      "channel": 2,
      "note": 38,
      "start": 43.7668,
      "duration": 0.113,
      "velocity": 93,
      "chip": "ym2612"
    },
    {
      "channel": 0,
      "note": 50,
      "start": 43.9992,
      "duration": 0.0303,
      "velocity": 88,
      "chip": "ym2612"
    },
    {
      "channel": 2,
      "note": 38,
      "start": 44.0501,
      "duration": 0.0463,
      "velocity": 93,
      "chip": "ym2612"
    },
    {
      "channel": 0,
      "note": 50,
      "start": 44.149,
      "duration": 0.0972,
      "velocity": 88,
      "chip": "ym2612"
    },
    {
      "channel": 2,
      "note": 38,
      "start": 44.2,
      "duration": 0.1132,
      "velocity": 93,
      "chip": "ym2612"
    },
    {
      "channel": 0,
      "note": 62,
      "start": 44.2993,
      "duration": 0.1303,
      "velocity": 88,
      "chip": "ym2612"
    },
    {
      "channel": 4,
      "note": 70,
      "start": 44.3021,
      "duration": 0.4276,
      "velocity": 127,
      "chip": "ym2612"
    },
    {
      "channel": 2,
      "note": 50,
      "start": 44.3504,
      "duration": 0.1627,
      "velocity": 93,
      "chip": "ym2612"
    },
    {
      "channel": 0,
      "note": 50,
      "start": 44.5828,
      "duration": 0.1135,
      "velocity": 88,
      "chip": "ym2612"
    },
    {
      "channel": 2,
      "note": 38,
      "start": 44.6332,
      "duration": 0.1132,
      "velocity": 93,
      "chip": "ym2612"
    },
    {
      "channel": 0,
      "note": 57,
      "start": 44.8659,
      "duration": 0.3304,
      "velocity": 88,
      "chip": "ym2612"
    },
    {
      "channel": 5,
      "note": 33,
      "start": 44.8693,
      "duration": 0.2104,
      "velocity": 113,
      "chip": "ym2612"
    },
    {
      "channel": 2,
      "note": 45,
      "start": 44.9167,
      "duration": 0.3632,
      "velocity": 93,
      "chip": "ym2612"
    },
    {
      "channel": 0,
      "note": 56,
      "start": 45.2991,
      "duration": 0.1637,
      "velocity": 88,
      "chip": "ym2612"
    },
    {
      "channel": 2,
      "note": 44,
      "start": 45.35,
      "duration": 0.1632,
      "velocity": 93,
      "chip": "ym2612"
    },
    {
      "channel": 5,
      "note": 33,
      "start": 45.4496,
      "duration": 0.2304,
      "velocity": 113,
      "chip": "ym2612"
    },
    {
      "channel": 4,
      "note": 70,
      "start": 45.4524,
      "duration": 0.2274,
      "velocity": 127,
      "chip": "ym2612"
    },
    {
      "channel": 0,
      "note": 55,
      "start": 45.5825,
      "duration": 0.0971,
      "velocity": 88,
      "chip": "ym2612"
    },
    {
      "channel": 2,
      "note": 43,
      "start": 45.6335,
      "duration": 0.113,
      "velocity": 93,
      "chip": "ym2612"
    },
    {
      "channel": 0,
      "note": 53,
      "start": 45.7326,
      "duration": 0.1637,
      "velocity": 88,
      "chip": "ym2612"
    },
    {
      "channel": 4,
      "note": 70,
      "start": 45.7357,
      "duration": 0.144,
      "velocity": 127,
      "chip": "ym2612"
    },
    {
      "channel": 2,
      "note": 41,
      "start": 45.7834,
      "duration": 0.1798,
      "velocity": 93,
      "chip": "ym2612"
    },
    {
      "channel": 0,
      "note": 50,
      "start": 46.0169,
      "duration": 0.0793,
      "velocity": 88,
      "chip": "ym2612"
    },
    {
      "channel": 1,
      "note": 56,
      "start": 46.0196,
      "duration": 0.5266,
      "velocity": 98,
      "chip": "ym2612"
    },
    {
      "channel": 3,
      "note": 68,
      "start": 46.0222,
      "duration": 0.4574,
      "velocity": 98,
      "chip": "ym2612"
    },
    {
      "channel": 5,
      "note": 33,
      "start": 46.0252,
      "duration": 0.2546,
      "velocity": 113,
      "chip": "ym2612"
    },
    {
      "channel": 2,
      "note": 38,
      "start": 46.0682,
      "duration": 0.0616,
      "velocity": 93,
      "chip": "ym2612"
    },
    {
      "channel": 0,
      "note": 50,
      "start": 46.2993,
      "duration": 0.0469,
      "velocity": 88,
      "chip": "ym2612"
    },
    {
      "channel": 2,
      "note": 38,
      "start": 46.35,
      "duration": 0.0798,
      "velocity": 93,
      "chip": "ym2612"
    },
    {
      "channel": 0,
      "note": 50,
      "start": 46.4491,
      "duration": 0.1138,
      "velocity": 88,
      "chip": "ym2612"
    },
    {
      "channel": 2,
      "note": 38,
      "start": 46.5,
      "duration": 0.1132,
      "velocity": 93,
      "chip": "ym2612"
    },
    {
      "channel": 0,
      "note": 62,
      "start": 46.5992,
      "duration": 0.2138,
      "velocity": 88,
      "chip": "ym2612"
    },
    {
      "channel": 1,
      "note": 67,
      "start": 46.6023,
      "duration": 0.2108,
      "velocity": 98,
      "chip": "ym2612"
    },
    {
      "channel": 3,
      "note": 55,
      "start": 46.6048,
      "duration": 0.2085,
      "velocity": 98,
      "chip": "ym2612"
    },
    {
      "channel": 4,
      "note": 70,
      "start": 46.6078,
      "duration": 0.4553,
      "velocity": 127,
      "chip": "ym2612"
    },
    {
      "channel": 2,
      "note": 50,
      "start": 46.65,
      "duration": 0.213,
      "velocity": 93,
      "chip": "ym2612"
    },
    {
      "channel": 0,
      "note": 50,
      "start": 46.8825,
      "duration": 0.0471,
      "velocity": 88,
      "chip": "ym2612"
    },
    {
      "channel": 1,
      "note": 65,
      "start": 46.8853,
      "duration": 0.0111,
      "velocity": 98,
      "chip": "ym2612"
    },
    {
      "channel": 3,
      "note": 53,
      "start": 46.8879,
      "duration": 0.0585,
      "velocity": 98,
      "chip": "ym2612"
    },
    {
      "channel": 2,
      "note": 38,
      "start": 46.9335,
      "duration": 0.0629,
      "velocity": 93,
      "chip": "ym2612"
    },
    {
      "channel": 0,
      "note": 50,
      "start": 47.0328,
      "duration": 0.0801,
      "velocity": 88,
      "chip": "ym2612"
    },
    {
      "channel": 1,
      "note": 50,
      "start": 47.0355,
      "duration": 0.3441,
      "velocity": 98,
      "chip": "ym2612"
    },
    {
      "channel": 3,
      "note": 62,
      "start": 47.0381,
      "duration": 0.2417,
      "velocity": 98,
      "chip": "ym2612"
    },
    {
      "channel": 2,
      "note": 38,
      "start": 47.0671,
      "duration": 0.0961,
      "velocity": 93,
      "chip": "ym2612"
    },
    {
      "channel": 0,
      "note": 53,
      "start": 47.166,
      "duration": 0.1136,
      "velocity": 88,
      "chip": "ym2612"
    },
    {
      "channel": 5,
      "note": 33,
      "start": 47.169,
      "duration": 0.1109,
      "velocity": 113,
      "chip": "ym2612"
    },
    {
      "channel": 2,
      "note": 41,
      "start": 47.2167,
      "duration": 0.1464,
      "velocity": 93,
      "chip": "ym2612"
    },
    {
      "channel": 0,
      "note": 53,
      "start": 47.4491,
      "duration": 0.1305,
      "velocity": 88,
      "chip": "ym2612"
    },
    {
      "channel": 1,
      "note": 53,
      "start": 47.4521,
      "duration": 0.1775,
      "velocity": 98,
      "chip": "ym2612"
    },
    {
      "channel": 3,
      "note": 65,
      "start": 47.4548,
      "duration": 0.1915,
      "velocity": 98,
      "chip": "ym2612"
    },
    {
      "channel": 5,
      "note": 33,
      "start": 47.4577,
      "duration": 0.2554,
      "velocity": 113,
      "chip": "ym2612"
    },
    {
      "channel": 2,
      "note": 41,
      "start": 47.5001,
      "duration": 0.1298,
      "velocity": 93,
      "chip": "ym2612"
    },
    {
      "channel": 0,
      "note": 55,
      "start": 47.5991,
      "duration": 0.1137,
      "velocity": 88,
      "chip": "ym2612"
    },
    {
      "channel": 2,
      "note": 43,
      "start": 47.65,
      "duration": 0.1131,
      "velocity": 93,
      "chip": "ym2612"
    },
    {
      "channel": 4,
      "note": 70,
      "start": 47.7496,
      "duration": 0.4467,
      "velocity": 127,
      "chip": "ym2612"
    },
    {
      "channel": 0,
      "note": 55,
      "start": 47.8825,
      "duration": 0.097,
      "velocity": 88,
      "chip": "ym2612"
    },
    {
      "channel": 1,
      "note": 67,
      "start": 47.8853,
      "duration": 0.1277,
      "velocity": 98,
      "chip": "ym2612"
    },
    {
      "channel": 3,
      "note": 55,
      "start": 47.8879,
      "duration": 0.0919,
      "velocity": 98,
      "chip": "ym2612"
    },
    {
      "channel": 2,
      "note": 43,
      "start": 47.9334,
      "duration": 0.0964,
      "velocity": 93,
      "chip": "ym2612"
    },
    {
      "channel": 0,
      "note": 53,
      "start": 48.0325,
      "duration": 0.1137,
      "velocity": 88,
      "chip": "ym2612"
    },
    {
      "channel": 2,
      "note": 41,
      "start": 48.0833,
      "duration": 0.1132,
      "velocity": 93,
      "chip": "ym2612"
    },
    {
      "channel": 0,
      "note": 55,
      "start": 48.1823,
      "duration": 0.064,
      "velocity": 88,
      "chip": "ym2612"
    },
    {
      "channel": 2,
      "note": 43,
      "start": 48.2333,
      "duration": 0.0798,
      "velocity": 93,
      "chip": "ym2612"
    },
    {
      "channel": 0,
      "note": 50,
      "start": 48.3163,
      "duration": 0.0966,
      "velocity": 88,
      "chip": "ym2612"
    },
    {
      "channel": 1,
      "note": 56,
      "start": 48.319,
      "duration": 0.494,
      "velocity": 98,
      "chip": "ym2612"
    },
    {
      "channel": 3,
      "note": 68,
      "start": 48.322,
      "duration": 0.4577,
      "velocity": 98,
      "chip": "ym2612"
    },
    {
      "channel": 5,
      "note": 33,
      "start": 48.3253,
      "duration": 0.4546,
      "velocity": 113,
      "chip": "ym2612"
    },
    {
      "channel": 2,
      "note": 38,
      "start": 48.3671,
      "duration": 0.1127,
      "velocity": 93,
      "chip": "ym2612"
    },
    {
      "channel": 0,
      "note": 50,
      "start": 48.6159,
      "duration": 0.0303,
      "velocity": 88,
      "chip": "ym2612"
    },
    {
      "channel": 2,
      "note": 38,
      "start": 48.6501,
      "duration": 0.0798,
      "velocity": 93,
      "chip": "ym2612"
    },
    {
      "channel": 0,
      "note": 50,
      "start": 48.7491,
      "duration": 0.1139,
      "velocity": 88,
      "chip": "ym2612"
    },
    {
      "channel": 2,
      "note": 38,
      "start": 48.8,
      "duration": 0.1132,
      "velocity": 93,
      "chip": "ym2612"
    },
    {
      "channel": 0,
      "note": 62,
      "start": 48.8993,
      "duration": 0.1637,
      "velocity": 88,
      "chip": "ym2612"
    },
    {
      "channel": 1,
      "note": 67,
      "start": 48.902,
      "duration": 0.2276,
      "velocity": 98,
      "chip": "ym2612"
    },
    {
      "channel": 3,
      "note": 55,
      "start": 48.9046,
      "duration": 0.2084,
      "velocity": 98,
      "chip": "ym2612"
    },
    {
      "channel": 4,
      "note": 70,
      "start": 48.9075,
      "duration": 0.5057,
      "velocity": 127,
      "chip": "ym2612"
    },
    {
      "channel": 2,
      "note": 50,
      "start": 48.95,
      "duration": 0.1632,
      "velocity": 93,
      "chip": "ym2612"
    },
    {
      "channel": 0,
      "note": 50,
      "start": 49.1825,
      "duration": 0.047,
      "velocity": 88,
      "chip": "ym2612"
    },
    {
      "channel": 1,
      "note": 65,
      "start": 49.1852,
      "duration": 0.0445,
      "velocity": 98,
      "chip": "ym2612"
    },
    {
      "channel": 3,
      "note": 53,
      "start": 49.1879,
      "duration": 0.0917,
      "velocity": 98,
      "chip": "ym2612"
    },
    {
      "channel": 2,
      "note": 38,
      "start": 49.2335,
      "duration": 0.0463,
      "velocity": 93,
      "chip": "ym2612"
    },
    {
      "channel": 0,
      "note": 50,
      "start": 49.3324,
      "duration": 0.0805,
      "velocity": 88,
      "chip": "ym2612"
    },
    {
      "channel": 1,
      "note": 62,
      "start": 49.3351,
      "duration": 0.1779,
      "velocity": 98,
      "chip": "ym2612"
    },
    {
      "channel": 3,
      "note": 50,
      "start": 49.3381,
      "duration": 0.1249,
      "velocity": 98,
      "chip": "ym2612"
    },
    {
      "channel": 2,
      "note": 38,
      "start": 49.3832,
      "duration": 0.1133,
      "velocity": 93,
      "chip": "ym2612"
    },
    {
      "channel": 0,
      "note": 53,
      "start": 49.4664,
      "duration": 0.1132,
      "velocity": 88,
      "chip": "ym2612"
    },
    {
      "channel": 5,
      "note": 33,
      "start": 49.4694,
      "duration": 0.1104,
      "velocity": 113,
      "chip": "ym2612"
    },
    {
      "channel": 2,
      "note": 41,
      "start": 49.5171,
      "duration": 0.1127,
      "velocity": 93,
      "chip": "ym2612"
    },
    {
      "channel": 0,
      "note": 53,
      "start": 49.7658,
      "duration": 0.1138,
      "velocity": 88,
      "chip": "ym2612"
    },
    {
      "channel": 5,
      "note": 33,
      "start": 49.7689,
      "duration": 0.2276,
      "velocity": 113,
      "chip": "ym2612"
    },
    {
      "channel": 2,
      "note": 41,
      "start": 49.7999,
      "duration": 0.1299,
      "velocity": 93,
      "chip": "ym2612"
    },
    {
      "channel": 0,
      "note": 55,
      "start": 49.8993,
      "duration": 0.3303,
      "velocity": 88,
      "chip": "ym2612"
    },
    {
      "channel": 2,
      "note": 43,
      "start": 49.9501,
      "duration": 0.3297,
      "velocity": 93,
      "chip": "ym2612"
    },
    {
      "channel": 1,
      "note": 65,
      "start": 50.0494,
      "duration": 0.2302,
      "velocity": 98,
      "chip": "ym2612"
    },
    {
      "channel": 3,
      "note": 53,
      "start": 50.052,
      "duration": 0.2777,
      "velocity": 98,
      "chip": "ym2612"
    },
    {
      "channel": 4,
      "note": 70,
      "start": 50.0552,
      "duration": 0.3911,
      "velocity": 127,
      "chip": "ym2612"
    },
    {
      "channel": 0,
      "note": 53,
      "start": 50.3327,
      "duration": 0.1469,
      "velocity": 88,
      "chip": "ym2612"
    },
    {
      "channel": 1,
      "note": 60,
      "start": 50.3354,
      "duration": 0.0942,
      "velocity": 98,
      "chip": "ym2612"
    },
    {
      "channel": 3,
      "note": 48,
      "start": 50.3379,
      "duration": 0.0919,
      "velocity": 98,
      "chip": "ym2612"
    },
    {
      "channel": 2,
      "note": 41,
      "start": 50.3834,
      "duration": 0.1631,
      "velocity": 93,
      "chip": "ym2612"
    },
    {
      "channel": 1,
      "note": 62,
      "start": 50.4832,
      "duration": 0.1631,
      "velocity": 98,
      "chip": "ym2612"
    },
    {
      "channel": 3,
      "note": 50,
      "start": 50.4856,
      "duration": 0.1607,
      "velocity": 98,
      "chip": "ym2612"
    },
    {
      "channel": 0,
      "note": 50,
      "start": 50.6156,
      "duration": 0.1473,
      "velocity": 88,
      "chip": "ym2612"
    },
    {
      "channel": 5,
      "note": 33,
      "start": 50.6187,
      "duration": 0.1445,
      "velocity": 113,
      "chip": "ym2612"
    },
    {
      "channel": 2,
      "note": 38,
      "start": 50.6665,
      "duration": 0.1633,
      "velocity": 93,
      "chip": "ym2612"
    },
    {
      "channel": 0,
      "note": 50,
      "start": 50.9159,
      "duration": 0.0638,
      "velocity": 88,
      "chip": "ym2612"
    },
    {
      "channel": 2,
      "note": 38,
      "start": 50.9501,
      "duration": 0.0963,
      "velocity": 93,
      "chip": "ym2612"
    },
    {
      "channel": 0,
      "note": 50,
      "start": 51.0494,
      "duration": 0.0968,
      "velocity": 88,
      "chip": "ym2612"
    },
    {
      "channel": 1,
      "note": 38,
      "start": 51.0522,
      "duration": 0.0774,
      "velocity": 98,
      "chip": "ym2612"
    },
    {
      "channel": 2,
      "note": 38,
      "start": 51.0999,
      "duration": 0.1132,
      "velocity": 93,
      "chip": "ym2612"
    },
    {
      "channel": 0,
      "note": 62,
      "start": 51.1992,
      "duration": 0.1804,
      "velocity": 88,
      "chip": "ym2612"
    },
    {
      "channel": 1,
      "note": 69,
      "start": 51.2018,
      "duration": 0.0611,
      "velocity": 98,
      "chip": "ym2612"
    },
    {
      "channel": 3,
      "note": 72,
      "start": 51.2044,
      "duration": 0.0419,
      "velocity": 98,
      "chip": "ym2612"
    },
    {
      "channel": 4,
      "note": 70,
      "start": 51.2073,
      "duration": 0.4225,
      "velocity": 127,
      "chip": "ym2612"
    },
    {
      "channel": 2,
      "note": 50,
      "start": 51.2505,
      "duration": 0.1794,
      "velocity": 93,
      "chip": "ym2612"
    },
    {
      "channel": 1,
      "note": 72,
      "start": 51.3328,
      "duration": 0.1302,
      "velocity": 98,
      "chip": "ym2612"
    },
    {
      "channel": 3,
      "note": 69,
      "start": 51.3358,
      "duration": 0.0939,
      "velocity": 98,
      "chip": "ym2612"
    },
    {
      "channel": 0,
      "note": 50,
      "start": 51.4825,
      "duration": 0.0636,
      "velocity": 88,
      "chip": "ym2612"
    },
    {
      "channel": 1,
      "note": 38,
      "start": 51.4853,
      "duration": 0.061,
      "velocity": 98,
      "chip": "ym2612"
    },
    {
      "channel": 2,
      "note": 38,
      "start": 51.5335,
      "duration": 0.0964,
      "velocity": 93,
      "chip": "ym2612"
    },
    {
      "channel": 0,
      "note": 50,
      "start": 51.6327,
      "duration": 0.0802,
      "velocity": 88,
      "chip": "ym2612"
    },
    {
      "channel": 2,
      "note": 38,
      "start": 51.6831,
      "duration": 0.08,
      "velocity": 93,
      "chip": "ym2612"
    },
    {
      "channel": 0,
      "note": 53,
      "start": 51.766,
      "duration": 0.1302,
      "velocity": 88,
      "chip": "ym2612"
    },
    {
      "channel": 1,
      "note": 72,
      "start": 51.7687,
      "duration": 0.1277,
      "velocity": 98,
      "chip": "ym2612"
    },
    {
      "channel": 3,
      "note": 69,
      "start": 51.7713,
      "duration": 0.0916,
      "velocity": 98,
      "chip": "ym2612"
    },
    {
      "channel": 5,
      "note": 33,
      "start": 51.7743,
      "duration": 0.0722,
      "velocity": 113,
      "chip": "ym2612"
    },
    {
      "channel": 2,
      "note": 41,
      "start": 51.8166,
      "duration": 0.1465,
      "velocity": 93,
      "chip": "ym2612"
    },
    {
      "channel": 0,
      "note": 53,
      "start": 52.0658,
      "duration": 0.1137,
      "velocity": 88,
      "chip": "ym2612"
    },
    {
      "channel": 5,
      "note": 33,
      "start": 52.0689,
      "duration": 0.2108,
      "velocity": 113,
      "chip": "ym2612"
    },
    {
      "channel": 2,
      "note": 41,
      "start": 52.1001,
      "duration": 0.1298,
      "velocity": 93,
      "chip": "ym2612"
    },
    {
      "channel": 0,
      "note": 55,
      "start": 52.1991,
      "duration": 0.1138,
      "velocity": 88,
      "chip": "ym2612"
    },
    {
      "channel": 2,
      "note": 43,
      "start": 52.25,
      "duration": 0.1465,
      "velocity": 93,
      "chip": "ym2612"
    },
    {
      "channel": 1,
      "note": 53,
      "start": 52.3494,
      "duration": 0.2136,
      "velocity": 98,
      "chip": "ym2612"
    },
    {
      "channel": 3,
      "note": 65,
      "start": 52.3519,
      "duration": 0.2113,
      "velocity": 98,
      "chip": "ym2612"
    },
    {
      "channel": 4,
      "note": 70,
      "start": 52.3549,
      "duration": 0.2581,
      "velocity": 127,
      "chip": "ym2612"
    },
    {
      "channel": 0,
      "note": 55,
      "start": 52.4996,
      "duration": 0.0633,
      "velocity": 88,
      "chip": "ym2612"
    },
    {
      "channel": 2,
      "note": 43,
      "start": 52.5337,
      "duration": 0.0794,
      "velocity": 93,
      "chip": "ym2612"
    },
    {
      "channel": 0,
      "note": 53,
      "start": 52.6324,
      "duration": 0.097,
      "velocity": 88,
      "chip": "ym2612"
    },
    {
      "channel": 1,
      "note": 60,
      "start": 52.6355,
      "duration": 0.0608,
      "velocity": 98,
      "chip": "ym2612"
    },
    {
      "channel": 3,
      "note": 48,
      "start": 52.6381,
      "duration": 0.0915,
      "velocity": 98,
      "chip": "ym2612"
    },
    {
      "channel": 4,
      "note": 70,
      "start": 52.6412,
      "duration": 0.1053,
      "velocity": 127,
      "chip": "ym2612"
    },
    {
      "channel": 2,
      "note": 41,
      "start": 52.6833,
      "duration": 0.1132,
      "velocity": 93,
      "chip": "ym2612"
    },
    {
      "channel": 0,
      "note": 55,
      "start": 52.7823,
      "duration": 0.0971,
      "velocity": 88,
      "chip": "ym2612"
    },
    {
      "channel": 1,
      "note": 62,
      "start": 52.785,
      "duration": 0.1613,
      "velocity": 98,
      "chip": "ym2612"
    },
    {
      "channel": 3,
      "note": 50,
      "start": 52.7877,
      "duration": 0.1253,
      "velocity": 98,
      "chip": "ym2612"
    },
    {
      "channel": 2,
      "note": 43,
      "start": 52.8332,
      "duration": 0.08,
      "velocity": 93,
      "chip": "ym2612"
    },
    {
      "channel": 0,
      "note": 50,
      "start": 52.9159,
      "duration": 0.097,
      "velocity": 88,
      "chip": "ym2612"
    },
    {
      "channel": 5,
      "note": 33,
      "start": 52.9193,
      "duration": 0.077,
      "velocity": 113,
      "chip": "ym2612"
    },
    {
      "channel": 2,
      "note": 38,
      "start": 52.9668,
      "duration": 0.113,
      "velocity": 93,
      "chip": "ym2612"
    },
    {
      "channel": 0,
      "note": 50,
      "start": 53.2159,
      "duration": 0.0137,
      "velocity": 88,
      "chip": "ym2612"
    },
    {
      "channel": 5,
      "note": 33,
      "start": 53.219,
      "duration": 0.1774,
      "velocity": 113,
      "chip": "ym2612"
    },
    {
      "channel": 2,
      "note": 38,
      "start": 53.2668,
      "duration": 0.0297,
      "velocity": 93,
      "chip": "ym2612"
    },
    {
      "channel": 0,
      "note": 50,
      "start": 53.349,
      "duration": 0.0973,
      "velocity": 88,
      "chip": "ym2612"
    },
    {
      "channel": 2,
      "note": 38,
      "start": 53.4,
      "duration": 0.1131,
      "velocity": 93,
      "chip": "ym2612"
    },
    {
      "channel": 0,
      "note": 62,
      "start": 53.4992,
      "duration": 0.147,
      "velocity": 88,
      "chip": "ym2612"
    },
    {
      "channel": 1,
      "note": 69,
      "start": 53.5019,
      "duration": 0.061,
      "velocity": 98,
      "chip": "ym2612"
    },
    {
      "channel": 3,
      "note": 72,
      "start": 53.5044,
      "duration": 0.0587,
      "velocity": 98,
      "chip": "ym2612"
    },
    {
      "channel": 4,
      "note": 70,
      "start": 53.5074,
      "duration": 0.4889,
      "velocity": 127,
      "chip": "ym2612"
    },
    {
      "channel": 2,
      "note": 50,
      "start": 53.5504,
      "duration": 0.1628,
      "velocity": 93,
      "chip": "ym2612"
    },
    {
      "channel": 1,
      "note": 69,
      "start": 53.6498,
      "duration": 0.1131,
      "velocity": 98,
      "chip": "ym2612"
    },
    {
      "channel": 3,
      "note": 72,
      "start": 53.6523,
      "duration": 0.1108,
      "velocity": 98,
      "chip": "ym2612"
    },
    {
      "channel": 0,
      "note": 50,
      "start": 53.7827,
      "duration": 0.1135,
      "velocity": 88,
      "chip": "ym2612"
    },
    {
      "channel": 2,
      "note": 38,
      "start": 53.8332,
      "duration": 0.1132,
      "velocity": 93,
      "chip": "ym2612"
    },
    {
      "channel": 0,
      "note": 57,
      "start": 54.0658,
      "duration": 0.3471,
      "velocity": 88,
      "chip": "ym2612"
    },
    {
      "channel": 1,
      "note": 69,
      "start": 54.0685,
      "duration": 0.1445,
      "velocity": 98,
      "chip": "ym2612"
    },
    {
      "channel": 3,
      "note": 72,
      "start": 54.0711,
      "duration": 0.1252,
      "velocity": 98,
      "chip": "ym2612"
    },
    {
      "channel": 5,
      "note": 33,
      "start": 54.0739,
      "duration": 0.1892,
      "velocity": 113,
      "chip": "ym2612"
    },
    {
      "channel": 2,
      "note": 45,
      "start": 54.1168,
      "duration": 0.3631,
      "velocity": 93,
      "chip": "ym2612"
    },
    {
      "channel": 0,
      "note": 56,
      "start": 54.4991,
      "duration": 0.1637,
      "velocity": 88,
      "chip": "ym2612"
    },
    {
      "channel": 2,
      "note": 44,
      "start": 54.5501,
      "duration": 0.163,
      "velocity": 93,
      "chip": "ym2612"
    },
    {
      "channel": 5,
      "note": 33,
      "start": 54.6496,
      "duration": 0.2634,
      "velocity": 113,
      "chip": "ym2612"
    },
    {
      "channel": 4,
      "note": 70,
      "start": 54.6524,
      "duration": 0.2274,
      "velocity": 127,
      "chip": "ym2612"
    },
    {
      "channel": 0,
      "note": 55,
      "start": 54.7993,
      "duration": 0.0802,
      "velocity": 88,
      "chip": "ym2612"
    },
    {
      "channel": 2,
      "note": 43,
      "start": 54.8334,
      "duration": 0.1298,
      "velocity": 93,
      "chip": "ym2612"
    },
    {
      "channel": 0,
      "note": 53,
      "start": 54.9325,
      "duration": 0.1637,
      "velocity": 88,
      "chip": "ym2612"
    },
    {
      "channel": 2,
      "note": 41,
      "start": 54.9834,
      "duration": 0.1964,
      "velocity": 93,
      "chip": "ym2612"
    },
    {
      "channel": 0,
      "note": 50,
      "start": 55.2169,
      "duration": 0.0794,
      "velocity": 88,
      "chip": "ym2612"
    },
    {
      "channel": 1,
      "note": 56,
      "start": 55.2196,
      "duration": 0.46,
      "velocity": 98,
      "chip": "ym2612"
    },
    {
      "channel": 3,
      "note": 68,
      "start": 55.2221,
      "duration": 0.4577,
      "velocity": 98,
      "chip": "ym2612"
    },
    {
      "channel": 5,
      "note": 33,
      "start": 55.2261,
      "duration": 0.2036,
      "velocity": 113,
      "chip": "ym2612"
    },
    {
      "channel": 2,
      "note": 38,
      "start": 55.2681,
      "duration": 0.0784,
      "velocity": 93,
      "chip": "ym2612"
    },
    {
      "channel": 0,
      "note": 50,
      "start": 55.5159,
      "duration": 0.0469,
      "velocity": 88,
      "chip": "ym2612"
    },
    {
      "channel": 2,
      "note": 38,
      "start": 55.5667,
      "duration": 0.0631,
      "velocity": 93,
      "chip": "ym2612"
    },
    {
      "channel": 0,
      "note": 50,
      "start": 55.6491,
      "duration": 0.1305,
      "velocity": 88,
      "chip": "ym2612"
    },
    {
      "channel": 2,
      "note": 38,
      "start": 55.7,
      "duration": 0.1132,
      "velocity": 93,
      "chip": "ym2612"
    },
    {
      "channel": 0,
      "note": 62,
      "start": 55.7993,
      "duration": 0.2137,
      "velocity": 88,
      "chip": "ym2612"
    },
    {
      "channel": 1,
      "note": 67,
      "start": 55.8024,
      "duration": 0.2107,
      "velocity": 98,
      "chip": "ym2612"
    },
    {
      "channel": 3,
      "note": 55,
      "start": 55.805,
      "duration": 0.1747,
      "velocity": 98,
      "chip": "ym2612"
    },
    {
      "channel": 4,
      "note": 70,
      "start": 55.808,
      "duration": 0.4384,
      "velocity": 127,
      "chip": "ym2612"
    },
    {
      "channel": 2,
      "note": 50,
      "start": 55.8501,
      "duration": 0.213,
      "velocity": 93,
      "chip": "ym2612"
    },
    {
      "channel": 0,
      "note": 50,
      "start": 56.0825,
      "duration": 0.0471,
      "velocity": 88,
      "chip": "ym2612"
    },
    {
      "channel": 1,
      "note": 65,
      "start": 56.0853,
      "duration": 0.0445,
      "velocity": 98,
      "chip": "ym2612"
    },
    {
      "channel": 3,
      "note": 53,
      "start": 56.0879,
      "duration": 0.0752,
      "velocity": 98,
      "chip": "ym2612"
    },
    {
      "channel": 2,
      "note": 38,
      "start": 56.1336,
      "duration": 0.0629,
      "velocity": 93,
      "chip": "ym2612"
    },
    {
      "channel": 0,
      "note": 50,
      "start": 56.2328,
      "duration": 0.0968,
      "velocity": 88,
      "chip": "ym2612"
    },
    {
      "channel": 1,
      "note": 62,
      "start": 56.2355,
      "duration": 0.2775,
      "velocity": 98,
      "chip": "ym2612"
    },
    {
      "channel": 3,
      "note": 50,
      "start": 56.2385,
      "duration": 0.3245,
      "velocity": 98,
      "chip": "ym2612"
    },
    {
      "channel": 2,
      "note": 38,
      "start": 56.2837,
      "duration": 0.0794,
      "velocity": 93,
      "chip": "ym2612"
    },
    {
      "channel": 0,
      "note": 53,
      "start": 56.3659,
      "duration": 0.1303,
      "velocity": 88,
      "chip": "ym2612"
    },
    {
      "channel": 5,
      "note": 33,
      "start": 56.369,
      "duration": 0.0941,
      "velocity": 113,
      "chip": "ym2612"
    },
    {
      "channel": 2,
      "note": 41,
      "start": 56.4166,
      "duration": 0.1466,
      "velocity": 93,
      "chip": "ym2612"
    },
    {
      "channel": 0,
      "note": 53,
      "start": 56.6658,
      "duration": 0.1138,
      "velocity": 88,
      "chip": "ym2612"
    },
    {
      "channel": 1,
      "note": 53,
      "start": 56.6685,
      "duration": 0.1777,
      "velocity": 98,
      "chip": "ym2612"
    },
    {
      "channel": 3,
      "note": 65,
      "start": 56.6711,
      "duration": 0.2085,
      "velocity": 98,
      "chip": "ym2612"
    },
    {
      "channel": 5,
      "note": 33,
      "start": 56.6741,
      "duration": 0.2057,
      "velocity": 113,
      "chip": "ym2612"
    },
    {
      "channel": 2,
      "note": 41,
      "start": 56.7168,
      "duration": 0.113,
      "velocity": 93,
      "chip": "ym2612"
    },
    {
      "channel": 0,
      "note": 55,
      "start": 56.7991,
      "duration": 0.1305,
      "velocity": 88,
      "chip": "ym2612"
    },
    {
      "channel": 2,
      "note": 43,
      "start": 56.85,
      "duration": 0.1131,
      "velocity": 93,
      "chip": "ym2612"
    },
    {
      "channel": 4,
      "note": 70,
      "start": 56.9495,
      "duration": 0.447,
      "velocity": 127,
      "chip": "ym2612"
    },
    {
      "channel": 0,
      "note": 55,
      "start": 57.0993,
      "duration": 0.0803,
      "velocity": 88,
      "chip": "ym2612"
    },
    {
      "channel": 1,
      "note": 67,
      "start": 57.1019,
      "duration": 0.1111,
      "velocity": 98,
      "chip": "ym2612"
    },
    {
      "channel": 3,
      "note": 55,
      "start": 57.1044,
      "duration": 0.1087,
      "velocity": 98,
      "chip": "ym2612"
    },
    {
      "channel": 2,
      "note": 43,
      "start": 57.1501,
      "duration": 0.0797,
      "velocity": 93,
      "chip": "ym2612"
    },
    {
      "channel": 0,
      "note": 53,
      "start": 57.2325,
      "duration": 0.1137,
      "velocity": 88,
      "chip": "ym2612"
    },
    {
      "channel": 2,
      "note": 41,
      "start": 57.2833,
      "duration": 0.1133,
      "velocity": 93,
      "chip": "ym2612"
    },
    {
      "channel": 0,
      "note": 55,
      "start": 57.3824,
      "duration": 0.0638,
      "velocity": 88,
      "chip": "ym2612"
    },
    {
      "channel": 2,
      "note": 43,
      "start": 57.4333,
      "duration": 0.0966,
      "velocity": 93,
      "chip": "ym2612"
    },
    {
      "channel": 0,
      "note": 50,
      "start": 57.533,
      "duration": 0.0798,
      "velocity": 88,
      "chip": "ym2612"
    },
    {
      "channel": 1,
      "note": 68,
      "start": 57.5358,
      "duration": 0.4106,
      "velocity": 98,
      "chip": "ym2612"
    },
    {
      "channel": 3,
      "note": 56,
      "start": 57.5388,
      "duration": 0.4576,
      "velocity": 98,
      "chip": "ym2612"
    },
    {
      "channel": 5,
      "note": 33,
      "start": 57.5417,
      "duration": 0.4048,
      "velocity": 113,
      "chip": "ym2612"
    },
    {
      "channel": 2,
      "note": 38,
      "start": 57.5671,
      "duration": 0.1294,
      "velocity": 93,
      "chip": "ym2612"
    },
    {
      "channel": 0,
      "note": 50,
      "start": 57.816,
      "duration": 0.0469,
      "velocity": 88,
      "chip": "ym2612"
    },
    {
      "channel": 2,
      "note": 38,
      "start": 57.8668,
      "duration": 0.063,
      "velocity": 93,
      "chip": "ym2612"
    },
    {
      "channel": 0,
      "note": 50,
      "start": 57.9493,
      "duration": 0.1303,
      "velocity": 88,
      "chip": "ym2612"
    },
    {
      "channel": 2,
      "note": 38,
      "start": 58.0,
      "duration": 0.1132,
      "velocity": 93,
      "chip": "ym2612"
    },
    {
      "channel": 0,
      "note": 62,
      "start": 58.0992,
      "duration": 0.1637,
      "velocity": 88,
      "chip": "ym2612"
    },
    {
      "channel": 1,
      "note": 67,
      "start": 58.1019,
      "duration": 0.211,
      "velocity": 98,
      "chip": "ym2612"
    },
    {
      "channel": 3,
      "note": 55,
      "start": 58.1045,
      "duration": 0.1918,
      "velocity": 98,
      "chip": "ym2612"
    },
    {
      "channel": 4,
      "note": 70,
      "start": 58.1072,
      "duration": 0.4392,
      "velocity": 127,
      "chip": "ym2612"
    },
    {
      "channel": 2,
      "note": 50,
      "start": 58.15,
      "duration": 0.1632,
      "velocity": 93,
      "chip": "ym2612"
    },
    {
      "channel": 0,
      "note": 50,
      "start": 58.3826,
      "duration": 0.0469,
      "velocity": 88,
      "chip": "ym2612"
    },
    {
      "channel": 1,
      "note": 65,
      "start": 58.3853,
      "duration": 0.0443,
      "velocity": 98,
      "chip": "ym2612"
    },
    {
      "channel": 3,
      "note": 53,
      "start": 58.3879,
      "duration": 0.0751,
      "velocity": 98,
      "chip": "ym2612"
    },
    {
      "channel": 2,
      "note": 38,
      "start": 58.4335,
      "duration": 0.0463,
      "velocity": 93,
      "chip": "ym2612"
    },
    {
      "channel": 0,
      "note": 50,
      "start": 58.5324,
      "duration": 0.0971,
      "velocity": 88,
      "chip": "ym2612"
    },
    {
      "channel": 1,
      "note": 62,
      "start": 58.5355,
      "duration": 0.2275,
      "velocity": 98,
      "chip": "ym2612"
    },
    {
      "channel": 3,
      "note": 50,
      "start": 58.5381,
      "duration": 0.1582,
      "velocity": 98,
      "chip": "ym2612"
    },
    {
      "channel": 2,
      "note": 38,
      "start": 58.5833,
      "duration": 0.1133,
      "velocity": 93,
      "chip": "ym2612"
    },
    {
      "channel": 0,
      "note": 53,
      "start": 58.6829,
      "duration": 0.1134,
      "velocity": 88,
      "chip": "ym2612"
    },
    {
      "channel": 5,
      "note": 33,
      "start": 58.6863,
      "duration": 0.1102,
      "velocity": 113,
      "chip": "ym2612"
    },
    {
      "channel": 2,
      "note": 41,
      "start": 58.7169,
      "duration": 0.1295,
      "velocity": 93,
      "chip": "ym2612"
    },
    {
      "channel": 0,
      "note": 53,
      "start": 58.9657,
      "duration": 0.1139,
      "velocity": 88,
      "chip": "ym2612"
    },
    {
      "channel": 5,
      "note": 33,
      "start": 58.9688,
      "duration": 0.1776,
      "velocity": 113,
      "chip": "ym2612"
    },
    {
      "channel": 2,
      "note": 41,
      "start": 59.0166,
      "duration": 0.1133,
      "velocity": 93,
      "chip": "ym2612"
    },
    {
      "channel": 0,
      "note": 55,
      "start": 59.0992,
      "duration": 0.3471,
      "velocity": 88,
      "chip": "ym2612"
    },
    {
      "channel": 2,
      "note": 43,
      "start": 59.1501,
      "duration": 0.3297,
      "velocity": 93,
      "chip": "ym2612"
    },
    {
      "channel": 1,
      "note": 53,
      "start": 59.2494,
      "duration": 0.2636,
      "velocity": 98,
      "chip": "ym2612"
    },
    {
      "channel": 3,
      "note": 65,
      "start": 59.252,
      "duration": 0.211,
      "velocity": 98,
      "chip": "ym2612"
    },
    {
      "channel": 4,
      "note": 70,
      "start": 59.255,
      "duration": 0.2581,
      "velocity": 127,
      "chip": "ym2612"
    },
    {
      "channel": 0,
      "note": 53,
      "start": 59.5326,
      "duration": 0.1469,
      "velocity": 88,
      "chip": "ym2612"
    },
    {
      "channel": 1,
      "note": 60,
      "start": 59.5353,
      "duration": 0.0943,
      "velocity": 98,
      "chip": "ym2612"
    },
    {
      "channel": 3,
      "note": 48,
      "start": 59.5383,
      "duration": 0.1247,
      "velocity": 98,
      "chip": "ym2612"
    },
    {
      "channel": 4,
      "note": 70,
      "start": 59.5413,
      "duration": 0.1218,
      "velocity": 127,
      "chip": "ym2612"
    },
    {
      "channel": 2,
      "note": 41,
      "start": 59.5834,
      "duration": 0.1631,
      "velocity": 93,
      "chip": "ym2612"
    },
    {
      "channel": 1,
      "note": 62,
      "start": 59.6828,
      "duration": 0.1802,
      "velocity": 98,
      "chip": "ym2612"
    },
    {
      "channel": 3,
      "note": 50,
      "start": 59.6853,
      "duration": 0.1779,
      "velocity": 98,
      "chip": "ym2612"
    },
    {
      "channel": 0,
      "note": 50,
      "start": 59.8323,
      "duration": 0.1306,
      "velocity": 88,
      "chip": "ym2612"
    },
    {
      "channel": 5,
      "note": 33,
      "start": 59.8353,
      "duration": 0.2111,
      "velocity": 113,
      "chip": "ym2612"
    },
    {
      "channel": 2,
      "note": 38,
      "start": 59.8667,
      "duration": 0.1798,
      "velocity": 93,
      "chip": "ym2612"
    },
    {
      "channel": 0,
      "note": 50,
      "start": 60.1158,
      "duration": 0.0637,
      "velocity": 88,
      "chip": "ym2612"
    },
    {
      "channel": 2,
      "note": 38,
      "start": 60.1667,
      "duration": 0.0798,
      "velocity": 93,
      "chip": "ym2612"
    },
    {
      "channel": 0,
      "note": 50,
      "start": 60.2495,
      "duration": 0.0967,
      "velocity": 88,
      "chip": "ym2612"
    },
    {
      "channel": 1,
      "note": 50,
      "start": 60.2522,
      "duration": 0.044,
      "velocity": 98,
      "chip": "ym2612"
    },
    {
      "channel": 2,
      "note": 38,
      "start": 60.3,
      "duration": 0.1299,
      "velocity": 93,
      "chip": "ym2612"
    },
    {
      "channel": 0,
      "note": 62,
      "start": 60.3993,
      "duration": 0.197,
      "velocity": 88,
      "chip": "ym2612"
    },
    {
      "channel": 1,
      "note": 72,
      "start": 60.402,
      "duration": 0.0943,
      "velocity": 98,
      "chip": "ym2612"
    },
    {
      "channel": 3,
      "note": 69,
      "start": 60.4046,
      "duration": 0.0418,
      "velocity": 98,
      "chip": "ym2612"
    },
    {
      "channel": 4,
      "note": 70,
      "start": 60.4076,
      "duration": 0.4721,
      "velocity": 127,
      "chip": "ym2612"
    },
    {
      "channel": 2,
      "note": 50,
      "start": 60.4506,
      "duration": 0.1794,
      "velocity": 93,
      "chip": "ym2612"
    },
    {
      "channel": 1,
      "note": 72,
      "start": 60.5497,
      "duration": 0.1133,
      "velocity": 98,
      "chip": "ym2612"
    },
    {
      "channel": 3,
      "note": 69,
      "start": 60.5523,
      "duration": 0.0774,
      "velocity": 98,
      "chip": "ym2612"
    },
    {
      "channel": 0,
      "note": 50,
      "start": 60.6826,
      "duration": 0.0803,
      "velocity": 88,
      "chip": "ym2612"
    },
    {
      "channel": 1,
      "note": 50,
      "start": 60.6853,
      "duration": 0.1275,
      "velocity": 98,
      "chip": "ym2612"
    },
    {
      "channel": 2,
      "note": 38,
      "start": 60.7334,
      "duration": 0.0964,
      "velocity": 93,
      "chip": "ym2612"
    },
    {
      "channel": 0,
      "note": 50,
      "start": 60.8324,
      "duration": 0.0971,
      "velocity": 88,
      "chip": "ym2612"
    },
    {
      "channel": 2,
      "note": 38,
      "start": 60.8832,
      "duration": 0.0967,
      "velocity": 93,
      "chip": "ym2612"
    },
    {
      "channel": 0,
      "note": 53,
      "start": 60.9827,
      "duration": 0.1135,
      "velocity": 88,
      "chip": "ym2612"
    },
    {
      "channel": 1,
      "note": 72,
      "start": 60.9854,
      "duration": 0.0776,
      "velocity": 98,
      "chip": "ym2612"
    },
    {
      "channel": 3,
      "note": 69,
      "start": 60.9879,
      "duration": 0.0752,
      "velocity": 98,
      "chip": "ym2612"
    },
    {
      "channel": 5,
      "note": 33,
      "start": 60.9909,
      "duration": 0.0723,
      "velocity": 113,
      "chip": "ym2612"
    },
    {
      "channel": 2,
      "note": 41,
      "start": 61.0334,
      "duration": 0.1298,
      "velocity": 93,
      "chip": "ym2612"
    },
    {
      "channel": 0,
      "note": 53,
      "start": 61.2657,
      "duration": 0.1139,
      "velocity": 88,
      "chip": "ym2612"
    },
    {
      "channel": 5,
      "note": 33,
      "start": 61.2688,
      "duration": 0.111,
      "velocity": 113,
      "chip": "ym2612"
    },
    {
      "channel": 2,
      "note": 41,
      "start": 61.3167,
      "duration": 0.1132,
      "velocity": 93,
      "chip": "ym2612"
    },
    {
      "channel": 0,
      "note": 55,
      "start": 61.4157,
      "duration": 0.1139,
      "velocity": 88,
      "chip": "ym2612"
    },
    {
      "channel": 2,
      "note": 43,
      "start": 61.45,
      "duration": 0.1464,
      "velocity": 93,
      "chip": "ym2612"
    },
    {
      "channel": 1,
      "note": 53,
      "start": 61.5494,
      "duration": 0.1468,
      "velocity": 98,
      "chip": "ym2612"
    },
    {
      "channel": 3,
      "note": 65,
      "start": 61.5522,
      "duration": 0.1441,
      "velocity": 98,
      "chip": "ym2612"
    },
    {
      "channel": 4,
      "note": 70,
      "start": 61.5555,
      "duration": 0.4242,
      "velocity": 127,
      "chip": "ym2612"
    },
    {
      "channel": 0,
      "note": 55,
      "start": 61.6997,
      "duration": 0.0632,
      "velocity": 88,
      "chip": "ym2612"
    },
    {
      "channel": 2,
      "note": 43,
      "start": 61.7504,
      "duration": 0.0628,
      "velocity": 93,
      "chip": "ym2612"
    },
    {
      "channel": 0,
      "note": 53,
      "start": 61.8324,
      "duration": 0.0972,
      "velocity": 88,
      "chip": "ym2612"
    },
    {
      "channel": 1,
      "note": 60,
      "start": 61.8352,
      "duration": 0.0778,
      "velocity": 98,
      "chip": "ym2612"
    },
    {
      "channel": 3,
      "note": 48,
      "start": 61.8378,
      "duration": 0.092,
      "velocity": 98,
      "chip": "ym2612"
    },
    {
      "channel": 2,
      "note": 41,
      "start": 61.8833,
      "duration": 0.1132,
      "velocity": 93,
      "chip": "ym2612"
    },
    {
      "channel": 0,
      "note": 55,
      "start": 61.9823,
      "duration": 0.0972,
      "velocity": 88,
      "chip": "ym2612"
    },
    {
      "channel": 1,
      "note": 62,
      "start": 61.985,
      "duration": 0.1112,
      "velocity": 98,
      "chip": "ym2612"
    },
    {
      "channel": 3,
      "note": 50,
      "start": 61.9877,
      "duration": 0.1586,
      "velocity": 98,
      "chip": "ym2612"
    },
    {
      "channel": 2,
      "note": 43,
      "start": 62.0332,
      "duration": 0.0966,
      "velocity": 93,
      "chip": "ym2612"
    },
    {
      "channel": 0,
      "note": 50,
      "start": 62.1325,
      "duration": 0.0803,
      "velocity": 88,
      "chip": "ym2612"
    },
    {
      "channel": 5,
      "note": 33,
      "start": 62.1356,
      "duration": 0.2943,
      "velocity": 113,
      "chip": "ym2612"
    },
    {
      "channel": 2,
      "note": 38,
      "start": 62.1834,
      "duration": 0.113,
      "velocity": 93,
      "chip": "ym2612"
    },
    {
      "channel": 0,
      "note": 50,
      "start": 62.4158,
      "duration": 0.0138,
      "velocity": 88,
      "chip": "ym2612"
    },
    {
      "channel": 2,
      "note": 38,
      "start": 62.4668,
      "duration": 0.0463,
      "velocity": 93,
      "chip": "ym2612"
    },
    {
      "channel": 0,
      "note": 50,
      "start": 62.5657,
      "duration": 0.0805,
      "velocity": 88,
      "chip": "ym2612"
    },
    {
      "channel": 1,
      "note": 50,
      "start": 62.5688,
      "duration": 0.0608,
      "velocity": 98,
      "chip": "ym2612"
    },
    {
      "channel": 2,
      "note": 38,
      "start": 62.6,
      "duration": 0.13,
      "velocity": 93,
      "chip": "ym2612"
    },
    {
      "channel": 0,
      "note": 62,
      "start": 62.6993,
      "duration": 0.1469,
      "velocity": 88,
      "chip": "ym2612"
    },
    {
      "channel": 1,
      "note": 72,
      "start": 62.7019,
      "duration": 0.0277,
      "velocity": 98,
      "chip": "ym2612"
    },
    {
      "channel": 3,
      "note": 69,
      "start": 62.7044,
      "duration": 0.0253,
      "velocity": 98,
      "chip": "ym2612"
    },
    {
      "channel": 4,
      "note": 70,
      "start": 62.7071,
      "duration": 0.4226,
      "velocity": 127,
      "chip": "ym2612"
    },
    {
      "channel": 2,
      "note": 50,
      "start": 62.7505,
      "duration": 0.1627,
      "velocity": 93,
      "chip": "ym2612"
    },
    {
      "channel": 1,
      "note": 69,
      "start": 62.8494,
      "duration": 0.0969,
      "velocity": 98,
      "chip": "ym2612"
    },
    {
      "channel": 3,
      "note": 72,
      "start": 62.8519,
      "duration": 0.0945,
      "velocity": 98,
      "chip": "ym2612"
    },
    {
      "channel": 0,
      "note": 50,
      "start": 62.9828,
      "duration": 0.1301,
      "velocity": 88,
      "chip": "ym2612"
    },
    {
      "channel": 1,
      "note": 50,
      "start": 62.9854,
      "duration": 0.0776,
      "velocity": 98,
      "chip": "ym2612"
    },
    {
      "channel": 2,
      "note": 38,
      "start": 63.0333,
      "duration": 0.13,
      "velocity": 93,
      "chip": "ym2612"
    },
    {
      "channel": 1,
      "note": 45,
      "start": 63.1327,
      "duration": 0.0303,
      "velocity": 98,
      "chip": "ym2612"
    },
    {
      "channel": 0,
      "note": 57,
      "start": 63.2825,
      "duration": 0.3304,
      "velocity": 88,
      "chip": "ym2612"
    },
    {
      "channel": 1,
      "note": 69,
      "start": 63.2856,
      "duration": 0.1273,
      "velocity": 98,
      "chip": "ym2612"
    },
    {
      "channel": 3,
      "note": 72,
      "start": 63.2884,
      "duration": 0.0746,
      "velocity": 98,
      "chip": "ym2612"
    },
    {
      "channel": 5,
      "note": 33,
      "start": 63.2917,
      "duration": 0.2046,
      "velocity": 113,
      "chip": "ym2612"
    },
    {
      "channel": 2,
      "note": 45,
      "start": 63.3334,
      "duration": 0.3464,
      "velocity": 93,
      "chip": "ym2612"
    },
    {
      "channel": 0,
      "note": 56,
      "start": 63.7159,
      "duration": 0.1636,
      "velocity": 88,
      "chip": "ym2612"
    },
    {
      "channel": 2,
      "note": 44,
      "start": 63.75,
      "duration": 0.1798,
      "velocity": 93,
      "chip": "ym2612"
    },
    {
      "channel": 5,
      "note": 33,
      "start": 63.8496,
      "duration": 0.2469,
      "velocity": 113,
      "chip": "ym2612"
    },
    {
      "channel": 4,
      "note": 70,
      "start": 63.8524,
      "duration": 0.244,
      "velocity": 127,
      "chip": "ym2612"
    },
    {
      "channel": 0,
      "note": 55,
      "start": 63.9993,
      "duration": 0.0969,
      "velocity": 88,
      "chip": "ym2612"
    },
    {
      "channel": 2,
      "note": 43,
      "start": 64.05,
      "duration": 0.1131,
      "velocity": 93,
      "chip": "ym2612"
    },
    {
      "channel": 0,
      "note": 53,
      "start": 64.1324,
      "duration": 0.1804,
      "velocity": 88,
      "chip": "ym2612"
    },
    {
      "channel": 4,
      "note": 70,
      "start": 64.1356,
      "duration": 0.144,
      "velocity": 127,
      "chip": "ym2612"
    },
    {
      "channel": 2,
      "note": 41,
      "start": 64.1835,
      "duration": 0.1963,
      "velocity": 93,
      "chip": "ym2612"
    },
    {
      "channel": 0,
      "note": 50,
      "start": 64.4337,
      "duration": 0.0625,
      "velocity": 88,
      "chip": "ym2612"
    },
    {
      "channel": 3,
      "note": 62,
      "start": 64.4368,
      "duration": 0.0096,
      "velocity": 123,
      "chip": "ym2612"
    },
    {
      "channel": 1,
      "note": 57,
      "start": 64.4396,
      "duration": 0.0067,
      "velocity": 123,
      "chip": "ym2612"
    },
    {
      "channel": 5,
      "note": 33,
      "start": 64.4424,
      "duration": 0.254,
      "velocity": 113,
      "chip": "ym2612"
    },
    {
      "channel": 2,
      "note": 38,
      "start": 64.4847,
      "duration": 0.0617,
      "velocity": 93,
      "chip": "ym2612"
    },
    {
      "channel": 1,
      "note": 62,
      "start": 64.5662,
      "duration": 0.0466,
      "velocity": 123,
      "chip": "ym2612"
    },
    {
      "channel": 3,
      "note": 57,
      "start": 64.5689,
      "duration": 0.0441,
      "velocity": 123,
      "chip": "ym2612"
    },
    {
      "channel": 0,
      "note": 50,
      "start": 64.7158,
      "duration": 0.0471,
      "velocity": 88,
      "chip": "ym2612"
    },
    {
      "channel": 1,
      "note": 55,
      "start": 64.7191,
      "duration": 0.0106,
      "velocity": 123,
      "chip": "ym2612"
    },
    {
      "channel": 3,
      "note": 60,
      "start": 64.7217,
      "duration": 0.0081,
      "velocity": 123,
      "chip": "ym2612"
    },
    {
      "channel": 2,
      "note": 38,
      "start": 64.7667,
      "duration": 0.063,
      "velocity": 93,
      "chip": "ym2612"
    },
    {
      "channel": 0,
      "note": 50,
      "start": 64.8657,
      "duration": 0.1139,
      "velocity": 88,
      "chip": "ym2612"
    },
    {
      "channel": 1,
      "note": 55,
      "start": 64.8685,
      "duration": 0.0111,
      "velocity": 123,
      "chip": "ym2612"
    },
    {
      "channel": 3,
      "note": 60,
      "start": 64.871,
      "duration": 0.0087,
      "velocity": 123,
      "chip": "ym2612"
    },
    {
      "channel": 2,
      "note": 38,
      "start": 64.9,
      "duration": 0.1298,
      "velocity": 93,
      "chip": "ym2612"
    },
    {
      "channel": 0,
      "note": 62,
      "start": 64.9992,
      "duration": 0.2137,
      "velocity": 88,
      "chip": "ym2612"
    },
    {
      "channel": 1,
      "note": 62,
      "start": 65.0021,
      "duration": 0.0441,
      "velocity": 123,
      "chip": "ym2612"
    },
    {
      "channel": 3,
      "note": 57,
      "start": 65.0047,
      "duration": 0.0417,
      "velocity": 123,
      "chip": "ym2612"
    },
    {
      "channel": 4,
      "note": 70,
      "start": 65.0076,
      "duration": 0.4721,
      "velocity": 127,
      "chip": "ym2612"
    },
    {
      "channel": 2,
      "note": 50,
      "start": 65.0502,
      "duration": 0.2129,
      "velocity": 93,
      "chip": "ym2612"
    },
    {
      "channel": 0,
      "note": 50,
      "start": 65.2992,
      "duration": 0.0303,
      "velocity": 88,
      "chip": "ym2612"
    },
    {
      "channel": 1,
      "note": 60,
      "start": 65.3019,
      "duration": 0.0277,
      "velocity": 123,
      "chip": "ym2612"
    },
    {
      "channel": 2,
      "note": 38,
      "start": 65.3335,
      "duration": 0.0796,
      "velocity": 93,
      "chip": "ym2612"
    },
    {
      "channel": 0,
      "note": 50,
      "start": 65.4328,
      "duration": 0.0968,
      "velocity": 88,
      "chip": "ym2612"
    },
    {
      "channel": 1,
      "note": 60,
      "start": 65.4361,
      "duration": 0.0937,
      "velocity": 123,
      "chip": "ym2612"
    },
    {
      "channel": 3,
      "note": 65,
      "start": 65.4387,
      "duration": 0.0912,
      "velocity": 123,
      "chip": "ym2612"
    },
    {
      "channel": 2,
      "note": 38,
      "start": 65.4837,
      "duration": 0.0961,
      "velocity": 93,
      "chip": "ym2612"
    },
    {
      "channel": 0,
      "note": 53,
      "start": 65.5827,
      "duration": 0.1137,
      "velocity": 88,
      "chip": "ym2612"
    },
    {
      "channel": 5,
      "note": 33,
      "start": 65.5857,
      "duration": 0.1109,
      "velocity": 113,
      "chip": "ym2612"
    },
    {
      "channel": 2,
      "note": 41,
      "start": 65.6334,
      "duration": 0.1298,
      "velocity": 93,
      "chip": "ym2612"
    },
    {
      "channel": 1,
      "note": 62,
      "start": 65.7163,
      "duration": 0.08,
      "velocity": 123,
      "chip": "ym2612"
    },
    {
      "channel": 3,
      "note": 57,
      "start": 65.7191,
      "duration": 0.0439,
      "velocity": 123,
      "chip": "ym2612"
    },
    {
      "channel": 0,
      "note": 53,
      "start": 65.8657,
      "duration": 0.1138,
      "velocity": 88,
      "chip": "ym2612"
    },
    {
      "channel": 5,
      "note": 33,
      "start": 65.8688,
      "duration": 0.261,
      "velocity": 113,
      "chip": "ym2612"
    },
    {
      "channel": 2,
      "note": 41,
      "start": 65.9168,
      "duration": 0.113,
      "velocity": 93,
      "chip": "ym2612"
    },
    {
      "channel": 0,
      "note": 55,
      "start": 66.0157,
      "duration": 0.1138,
      "velocity": 88,
      "chip": "ym2612"
    },
    {
      "channel": 1,
      "note": 62,
      "start": 66.0185,
      "duration": 0.0445,
      "velocity": 123,
      "chip": "ym2612"
    },
    {
      "channel": 3,
      "note": 57,
      "start": 66.0211,
      "duration": 0.0421,
      "velocity": 123,
      "chip": "ym2612"
    },
    {
      "channel": 2,
      "note": 43,
      "start": 66.0668,
      "duration": 0.1129,
      "velocity": 93,
      "chip": "ym2612"
    },
    {
      "channel": 4,
      "note": 70,
      "start": 66.1498,
      "duration": 0.4634,
      "velocity": 127,
      "chip": "ym2612"
    },
    {
      "channel": 0,
      "note": 55,
      "start": 66.2992,
      "duration": 0.0971,
      "velocity": 88,
      "chip": "ym2612"
    },
    {
      "channel": 1,
      "note": 60,
      "start": 66.302,
      "duration": 0.0443,
      "velocity": 123,
      "chip": "ym2612"
    },
    {
      "channel": 3,
      "note": 55,
      "start": 66.305,
      "duration": 0.0079,
      "velocity": 123,
      "chip": "ym2612"
    },
    {
      "channel": 2,
      "note": 43,
      "start": 66.3501,
      "duration": 0.0963,
      "velocity": 93,
      "chip": "ym2612"
    },
    {
      "channel": 0,
      "note": 53,
      "start": 66.4492,
      "duration": 0.1137,
      "velocity": 88,
      "chip": "ym2612"
    },
    {
      "channel": 1,
      "note": 62,
      "start": 66.4521,
      "duration": 0.0609,
      "velocity": 123,
      "chip": "ym2612"
    },
    {
      "channel": 3,
      "note": 57,
      "start": 66.4546,
      "duration": 0.0585,
      "velocity": 123,
      "chip": "ym2612"
    },
    {
      "channel": 2,
      "note": 41,
      "start": 66.4832,
      "duration": 0.1302,
      "velocity": 93,
      "chip": "ym2612"
    },
    {
      "channel": 0,
      "note": 55,
      "start": 66.5824,
      "duration": 0.0638,
      "velocity": 88,
      "chip": "ym2612"
    },
    {
      "channel": 1,
      "note": 60,
      "start": 66.5854,
      "duration": 0.0442,
      "velocity": 123,
      "chip": "ym2612"
    },
    {
      "channel": 3,
      "note": 55,
      "start": 66.588,
      "duration": 0.0249,
      "velocity": 123,
      "chip": "ym2612"
    },
    {
      "channel": 2,
      "note": 43,
      "start": 66.6334,
      "duration": 0.0964,
      "velocity": 93,
      "chip": "ym2612"
    },
    {
      "channel": 0,
      "note": 50,
      "start": 66.733,
      "duration": 0.0966,
      "velocity": 88,
      "chip": "ym2612"
    },
    {
      "channel": 1,
      "note": 62,
      "start": 66.7359,
      "duration": 0.0436,
      "velocity": 123,
      "chip": "ym2612"
    },
    {
      "channel": 3,
      "note": 57,
      "start": 66.7388,
      "duration": 0.0408,
      "velocity": 123,
      "chip": "ym2612"
    },
    {
      "channel": 5,
      "note": 33,
      "start": 66.742,
      "duration": 0.438,
      "velocity": 113,
      "chip": "ym2612"
    },
    {
      "channel": 2,
      "note": 38,
      "start": 66.7839,
      "duration": 0.1126,
      "velocity": 93,
      "chip": "ym2612"
    },
    {
      "channel": 1,
      "note": 62,
      "start": 66.8662,
      "duration": 0.08,
      "velocity": 123,
      "chip": "ym2612"
    },
    {
      "channel": 3,
      "note": 57,
      "start": 66.8689,
      "duration": 0.0775,
      "velocity": 123,
      "chip": "ym2612"
    },
    {
      "channel": 0,
      "note": 50,
      "start": 67.0158,
      "duration": 0.0471,
      "velocity": 88,
      "chip": "ym2612"
    },
    {
      "channel": 1,
      "note": 55,
      "start": 67.0187,
      "duration": 0.0109,
      "velocity": 123,
      "chip": "ym2612"
    },
    {
      "channel": 3,
      "note": 60,
      "start": 67.0213,
      "duration": 0.0084,
      "velocity": 123,
      "chip": "ym2612"
    },
    {
      "channel": 2,
      "note": 38,
      "start": 67.0669,
      "duration": 0.063,
      "velocity": 93,
      "chip": "ym2612"
    },
    {
      "channel": 0,
      "note": 50,
      "start": 67.1658,
      "duration": 0.1137,
      "velocity": 88,
      "chip": "ym2612"
    },
    {
      "channel": 1,
      "note": 55,
      "start": 67.1685,
      "duration": 0.0111,
      "velocity": 123,
      "chip": "ym2612"
    },
    {
      "channel": 3,
      "note": 60,
      "start": 67.1711,
      "duration": 0.0087,
      "velocity": 123,
      "chip": "ym2612"
    },
    {
      "channel": 2,
      "note": 38,
      "start": 67.2166,
      "duration": 0.1132,
      "velocity": 93,
      "chip": "ym2612"
    },
    {
      "channel": 0,
      "note": 62,
      "start": 67.2992,
      "duration": 0.1637,
      "velocity": 88,
      "chip": "ym2612"
    },
    {
      "channel": 1,
      "note": 57,
      "start": 67.3025,
      "duration": 0.077,
      "velocity": 123,
      "chip": "ym2612"
    },
    {
      "channel": 3,
      "note": 62,
      "start": 67.3052,
      "duration": 0.0411,
      "velocity": 123,
      "chip": "ym2612"
    },
    {
      "channel": 4,
      "note": 70,
      "start": 67.308,
      "duration": 0.5218,
      "velocity": 127,
      "chip": "ym2612"
    },
    {
      "channel": 2,
      "note": 50,
      "start": 67.3501,
      "duration": 0.1629,
      "velocity": 93,
      "chip": "ym2612"
    },
    {
      "channel": 1,
      "note": 60,
      "start": 67.4495,
      "duration": 0.0136,
      "velocity": 123,
      "chip": "ym2612"
    },
    {
      "channel": 0,
      "note": 50,
      "start": 67.5992,
      "duration": 0.0304,
      "velocity": 88,
      "chip": "ym2612"
    },
    {
      "channel": 1,
      "note": 55,
      "start": 67.6019,
      "duration": 0.011,
      "velocity": 123,
      "chip": "ym2612"
    },
    {
      "channel": 3,
      "note": 60,
      "start": 67.6046,
      "duration": 0.0251,
      "velocity": 123,
      "chip": "ym2612"
    },
    {
      "channel": 2,
      "note": 38,
      "start": 67.6336,
      "duration": 0.0462,
      "velocity": 93,
      "chip": "ym2612"
    },
    {
      "channel": 0,
      "note": 50,
      "start": 67.7323,
      "duration": 0.0972,
      "velocity": 88,
      "chip": "ym2612"
    },
    {
      "channel": 1,
      "note": 62,
      "start": 67.7353,
      "duration": 0.0776,
      "velocity": 123,
      "chip": "ym2612"
    },
    {
      "channel": 3,
      "note": 57,
      "start": 67.7383,
      "duration": 0.0748,
      "velocity": 123,
      "chip": "ym2612"
    },
    {
      "channel": 2,
      "note": 38,
      "start": 67.7832,
      "duration": 0.1133,
      "velocity": 93,
      "chip": "ym2612"
    },
    {
      "channel": 0,
      "note": 53,
      "start": 67.8829,
      "duration": 0.1134,
      "velocity": 88,
      "chip": "ym2612"
    },
    {
      "channel": 5,
      "note": 33,
      "start": 67.886,
      "duration": 0.1105,
      "velocity": 113,
      "chip": "ym2612"
    },
    {
      "channel": 2,
      "note": 41,
      "start": 67.9335,
      "duration": 0.1129,
      "velocity": 93,
      "chip": "ym2612"
    },
    {
      "channel": 0,
      "note": 53,
      "start": 68.1657,
      "duration": 0.1139,
      "velocity": 88,
      "chip": "ym2612"
    },
    {
      "channel": 5,
      "note": 33,
      "start": 68.1688,
      "duration": 0.2276,
      "velocity": 113,
      "chip": "ym2612"
    },
    {
      "channel": 2,
      "note": 41,
      "start": 68.2166,
      "duration": 0.1132,
      "velocity": 93,
      "chip": "ym2612"
    },
    {
      "channel": 0,
      "note": 55,
      "start": 68.3159,
      "duration": 0.3303,
      "velocity": 88,
      "chip": "ym2612"
    },
    {
      "channel": 2,
      "note": 43,
      "start": 68.3668,
      "duration": 0.3296,
      "velocity": 93,
      "chip": "ym2612"
    },
    {
      "channel": 4,
      "note": 70,
      "start": 68.45,
      "duration": 0.4131,
      "velocity": 127,
      "chip": "ym2612"
    },
    {
      "channel": 0,
      "note": 53,
      "start": 68.7493,
      "duration": 0.1303,
      "velocity": 88,
      "chip": "ym2612"
    },
    {
      "channel": 2,
      "note": 41,
      "start": 68.7834,
      "duration": 0.1796,
      "velocity": 93,
      "chip": "ym2612"
    },
    {
      "channel": 1,
      "note": 60,
      "start": 68.883,
      "duration": 0.0467,
      "velocity": 123,
      "chip": "ym2612"
    },
    {
      "channel": 3,
      "note": 55,
      "start": 68.8857,
      "duration": 0.0273,
      "velocity": 123,
      "chip": "ym2612"
    },
    {
      "channel": 0,
      "note": 50,
      "start": 69.0323,
      "duration": 0.1305,
      "velocity": 88,
      "chip": "ym2612"
    },
    {
      "channel": 1,
      "note": 62,
      "start": 69.0353,
      "duration": 0.0443,
      "velocity": 123,
      "chip": "ym2612"
    },
    {
      "channel": 3,
      "note": 57,
      "start": 69.0378,
      "duration": 0.0419,
      "velocity": 123,
      "chip": "ym2612"
    },
    {
      "channel": 5,
      "note": 33,
      "start": 69.0407,
      "duration": 0.1225,
      "velocity": 113,
      "chip": "ym2612"
    },
    {
      "channel": 2,
      "note": 38,
      "start": 69.0832,
      "duration": 0.1633,
      "velocity": 93,
      "chip": "ym2612"
    },
    {
      "channel": 1,
      "note": 57,
      "start": 69.1664,
      "duration": 0.0798,
      "velocity": 123,
      "chip": "ym2612"
    },
    {
      "channel": 3,
      "note": 62,
      "start": 69.1696,
      "duration": 0.0433,
      "velocity": 123,
      "chip": "ym2612"
    },
    {
      "channel": 0,
      "note": 50,
      "start": 69.3158,
      "duration": 0.0637,
      "velocity": 88,
      "chip": "ym2612"
    },
    {
      "channel": 1,
      "note": 60,
      "start": 69.3188,
      "duration": 0.0275,
      "velocity": 123,
      "chip": "ym2612"
    },
    {
      "channel": 3,
      "note": 55,
      "start": 69.3213,
      "duration": 0.0251,
      "velocity": 123,
      "chip": "ym2612"
    },
    {
      "channel": 2,
      "note": 38,
      "start": 69.3668,
      "duration": 0.0963,
      "velocity": 93,
      "chip": "ym2612"
    },
    {
      "channel": 0,
      "note": 50,
      "start": 69.4661,
      "duration": 0.0968,
      "velocity": 88,
      "chip": "ym2612"
    },
    {
      "channel": 1,
      "note": 60,
      "start": 69.4691,
      "duration": 0.0438,
      "velocity": 123,
      "chip": "ym2612"
    },
    {
      "channel": 3,
      "note": 55,
      "start": 69.4717,
      "duration": 0.0413,
      "velocity": 123,
      "chip": "ym2612"
    },
    {
      "channel": 2,
      "note": 38,
      "start": 69.5168,
      "duration": 0.1131,
      "velocity": 93,
      "chip": "ym2612"
    },
    {
      "channel": 0,
      "note": 62,
      "start": 69.5993,
      "duration": 0.1969,
      "velocity": 88,
      "chip": "ym2612"
    },
    {
      "channel": 1,
      "note": 62,
      "start": 69.6022,
      "duration": 0.0775,
      "velocity": 123,
      "chip": "ym2612"
    },
    {
      "channel": 3,
      "note": 57,
      "start": 69.6052,
      "duration": 0.0746,
      "velocity": 123,
      "chip": "ym2612"
    },
    {
      "channel": 4,
      "note": 70,
      "start": 69.6079,
      "duration": 0.4218,
      "velocity": 127,
      "chip": "ym2612"
    },
    {
      "channel": 2,
      "note": 50,
      "start": 69.6503,
      "duration": 0.1961,
      "velocity": 93,
      "chip": "ym2612"
    },
    {
      "channel": 0,
      "note": 50,
      "start": 69.8993,
      "duration": 0.0637,
      "velocity": 88,
      "chip": "ym2612"
    },
    {
      "channel": 1,
      "note": 55,
      "start": 69.9022,
      "duration": 0.0108,
      "velocity": 123,
      "chip": "ym2612"
    },
    {
      "channel": 3,
      "note": 60,
      "start": 69.9048,
      "duration": 0.0083,
      "velocity": 123,
      "chip": "ym2612"
    },
    {
      "channel": 2,
      "note": 38,
      "start": 69.9501,
      "duration": 0.0798,
      "velocity": 93,
      "chip": "ym2612"
    },
    {
      "channel": 0,
      "note": 50,
      "start": 70.0326,
      "duration": 0.0971,
      "velocity": 88,
      "chip": "ym2612"
    },
    {
      "channel": 1,
      "note": 60,
      "start": 70.0356,
      "duration": 0.0774,
      "velocity": 123,
      "chip": "ym2612"
    },
    {
      "channel": 3,
      "note": 65,
      "start": 70.0383,
      "duration": 0.0915,
      "velocity": 123,
      "chip": "ym2612"
    },
    {
      "channel": 2,
      "note": 38,
      "start": 70.0832,
      "duration": 0.0966,
      "velocity": 93,
      "chip": "ym2612"
    },
    {
      "channel": 0,
      "note": 53,
      "start": 70.1827,
      "duration": 0.1135,
      "velocity": 88,
      "chip": "ym2612"
    },
    {
      "channel": 5,
      "note": 33,
      "start": 70.1857,
      "duration": 0.0607,
      "velocity": 113,
      "chip": "ym2612"
    },
    {
      "channel": 2,
      "note": 41,
      "start": 70.2334,
      "duration": 0.1298,
      "velocity": 93,
      "chip": "ym2612"
    },
    {
      "channel": 1,
      "note": 62,
      "start": 70.3329,
      "duration": 0.0634,
      "velocity": 123,
      "chip": "ym2612"
    },
    {
      "channel": 3,
      "note": 57,
      "start": 70.3361,
      "duration": 0.027,
      "velocity": 123,
      "chip": "ym2612"
    },
    {
      "channel": 0,
      "note": 53,
      "start": 70.4657,
      "duration": 0.1139,
      "velocity": 88,
      "chip": "ym2612"
    },
    {
      "channel": 1,
      "note": 60,
      "start": 70.4685,
      "duration": 0.0277,
      "velocity": 123,
      "chip": "ym2612"
    },
    {
      "channel": 5,
      "note": 33,
      "start": 70.4713,
      "duration": 0.2085,
      "velocity": 113,
      "chip": "ym2612"
    },
    {
      "channel": 2,
      "note": 41,
      "start": 70.5168,
      "duration": 0.113,
      "velocity": 93,
      "chip": "ym2612"
    },
    {
      "channel": 0,
      "note": 55,
      "start": 70.6157,
      "duration": 0.1138,
      "velocity": 88,
      "chip": "ym2612"
    },
    {
      "channel": 1,
      "note": 57,
      "start": 70.6187,
      "duration": 0.0609,
      "velocity": 123,
      "chip": "ym2612"
    },
    {
      "channel": 3,
      "note": 60,
      "start": 70.6214,
      "duration": 0.0416,
      "velocity": 123,
      "chip": "ym2612"
    },
    {
      "channel": 2,
      "note": 43,
      "start": 70.6669,
      "duration": 0.1295,
      "velocity": 93,
      "chip": "ym2612"
    },
    {
      "channel": 4,
      "note": 70,
      "start": 70.7498,
      "duration": 0.2632,
      "velocity": 127,
      "chip": "ym2612"
    },
    {
      "channel": 0,
      "note": 55,
      "start": 70.8996,
      "duration": 0.0633,
      "velocity": 88,
      "chip": "ym2612"
    },
    {
      "channel": 1,
      "note": 60,
      "start": 70.9026,
      "duration": 0.0104,
      "velocity": 123,
      "chip": "ym2612"
    },
    {
      "channel": 3,
      "note": 55,
      "start": 70.9051,
      "duration": 0.008,
      "velocity": 123,
      "chip": "ym2612"
    },
    {
      "channel": 2,
      "note": 43,
      "start": 70.9504,
      "duration": 0.0628,
      "velocity": 93,
      "chip": "ym2612"
    },
    {
      "channel": 0,
      "note": 53,
      "start": 71.0491,
      "duration": 0.0805,
      "velocity": 88,
      "chip": "ym2612"
    },
    {
      "channel": 1,
      "note": 62,
      "start": 71.0524,
      "duration": 0.0438,
      "velocity": 123,
      "chip": "ym2612"
    },
    {
      "channel": 3,
      "note": 57,
      "start": 71.0551,
      "duration": 0.058,
      "velocity": 123,
      "chip": "ym2612"
    },
    {
      "channel": 4,
      "note": 70,
      "start": 71.058,
      "duration": 0.105,
      "velocity": 127,
      "chip": "ym2612"
    },
    {
      "channel": 2,
      "note": 41,
      "start": 71.1,
      "duration": 0.1133,
      "velocity": 93,
      "chip": "ym2612"
    },
    {
      "channel": 0,
      "note": 55,
      "start": 71.1822,
      "duration": 0.0973,
      "velocity": 88,
      "chip": "ym2612"
    },
    {
      "channel": 1,
      "note": 60,
      "start": 71.1852,
      "duration": 0.0277,
      "velocity": 123,
      "chip": "ym2612"
    },
    {
      "channel": 3,
      "note": 55,
      "start": 71.1877,
      "duration": 0.0253,
      "velocity": 123,
      "chip": "ym2612"
    },
    {
      "channel": 2,
      "note": 43,
      "start": 71.2333,
      "duration": 0.0964,
      "velocity": 93,
      "chip": "ym2612"
    },
    {
      "channel": 0,
      "note": 50,
      "start": 71.3324,
      "duration": 0.0971,
      "velocity": 88,
      "chip": "ym2612"
    },
    {
      "channel": 1,
      "note": 62,
      "start": 71.3354,
      "duration": 0.0443,
      "velocity": 123,
      "chip": "ym2612"
    },
    {
      "channel": 3,
      "note": 57,
      "start": 71.3379,
      "duration": 0.0419,
      "velocity": 123,
      "chip": "ym2612"
    },
    {
      "channel": 5,
      "note": 33,
      "start": 71.3412,
      "duration": 0.0552,
      "velocity": 113,
      "chip": "ym2612"
    },
    {
      "channel": 2,
      "note": 38,
      "start": 71.3837,
      "duration": 0.1127,
      "velocity": 93,
      "chip": "ym2612"
    },
    {
      "channel": 1,
      "note": 57,
      "start": 71.4833,
      "duration": 0.0629,
      "velocity": 123,
      "chip": "ym2612"
    },
    {
      "channel": 3,
      "note": 62,
      "start": 71.4861,
      "duration": 0.0268,
      "velocity": 123,
      "chip": "ym2612"
    },
    {
      "channel": 0,
      "note": 50,
      "start": 71.6159,
      "duration": 0.0303,
      "velocity": 88,
      "chip": "ym2612"
    },
    {
      "channel": 5,
      "note": 33,
      "start": 71.619,
      "duration": 0.1941,
      "velocity": 113,
      "chip": "ym2612"
    },
    {
      "channel": 2,
      "note": 38,
      "start": 71.6668,
      "duration": 0.0463,
      "velocity": 93,
      "chip": "ym2612"
    },
    {
      "channel": 0,
      "note": 50,
      "start": 71.7658,
      "duration": 0.0971,
      "velocity": 88,
      "chip": "ym2612"
    },
    {
      "channel": 2,
      "note": 38,
      "start": 71.8166,
      "duration": 0.1132,
      "velocity": 93,
      "chip": "ym2612"
    },
    {
      "channel": 0,
      "note": 62,
      "start": 71.8993,
      "duration": 0.1469,
      "velocity": 88,
      "chip": "ym2612"
    },
    {
      "channel": 4,
      "note": 70,
      "start": 71.9024,
      "duration": 0.5106,
      "velocity": 127,
      "chip": "ym2612"
    },
    {
      "channel": 2,
      "note": 50,
      "start": 71.9505,
      "duration": 0.1627,
      "velocity": 93,
      "chip": "ym2612"
    },
    {
      "channel": 0,
      "note": 50,
      "start": 72.1994,
      "duration": 0.1135,
      "velocity": 88,
      "chip": "ym2612"
    },
    {
      "channel": 2,
      "note": 38,
      "start": 72.2499,
      "duration": 0.1132,
      "velocity": 93,
      "chip": "ym2612"
    },
    {
      "channel": 0,
      "note": 57,
      "start": 72.4824,
      "duration": 0.3305,
      "velocity": 88,
      "chip": "ym2612"
    },
    {
      "channel": 5,
      "note": 33,
      "start": 72.4854,
      "duration": 0.1776,
      "velocity": 113,
      "chip": "ym2612"
    },
    {
      "channel": 2,
      "note": 45,
      "start": 72.5334,
      "duration": 0.3464,
      "velocity": 93,
      "chip": "ym2612"
    },
    {
      "channel": 0,
      "note": 56,
      "start": 72.9158,
      "duration": 0.1637,
      "velocity": 88,
      "chip": "ym2612"
    },
    {
      "channel": 2,
      "note": 44,
      "start": 72.9667,
      "duration": 0.1631,
      "velocity": 93,
      "chip": "ym2612"
    },
    {
      "channel": 5,
      "note": 33,
      "start": 73.0496,
      "duration": 0.2636,
      "velocity": 113,
      "chip": "ym2612"
    },
    {
      "channel": 4,
      "note": 70,
      "start": 73.0524,
      "duration": 0.2441,
      "velocity": 127,
      "chip": "ym2612"
    },
    {
      "channel": 0,
      "note": 55,
      "start": 73.1993,
      "duration": 0.0971,
      "velocity": 88,
      "chip": "ym2612"
    },
    {
      "channel": 2,
      "note": 43,
      "start": 73.25,
      "duration": 0.1132,
      "velocity": 93,
      "chip": "ym2612"
    },
    {
      "channel": 0,
      "note": 53,
      "start": 73.3491,
      "duration": 0.1637,
      "velocity": 88,
      "chip": "ym2612"
    },
    {
      "channel": 2,
      "note": 41,
      "start": 73.4,
      "duration": 0.1798,
      "velocity": 93,
      "chip": "ym2612"
    },
    {
      "channel": 1,
      "note": 60,
      "start": 73.4828,
      "duration": 0.0467,
      "velocity": 123,
      "chip": "ym2612"
    },
    {
      "channel": 3,
      "note": 55,
      "start": 73.4855,
      "duration": 0.0276,
      "velocity": 123,
      "chip": "ym2612"
    },
    {
      "channel": 0,
      "note": 50,
      "start": 73.6335,
      "duration": 0.0627,
      "velocity": 88,
      "chip": "ym2612"
    },
    {
      "channel": 1,
      "note": 62,
      "start": 73.6365,
      "duration": 0.0431,
      "velocity": 123,
      "chip": "ym2612"
    },
    {
      "channel": 3,
      "note": 57,
      "start": 73.6395,
      "duration": 0.0403,
      "velocity": 123,
      "chip": "ym2612"
    },
    {
      "channel": 5,
      "note": 33,
      "start": 73.6433,
      "duration": 0.2033,
      "velocity": 113,
      "chip": "ym2612"
    },
    {
      "channel": 2,
      "note": 38,
      "start": 73.6851,
      "duration": 0.0614,
      "velocity": 93,
      "chip": "ym2612"
    },
    {
      "channel": 1,
      "note": 62,
      "start": 73.783,
      "duration": 0.0634,
      "velocity": 123,
      "chip": "ym2612"
    },
    {
      "channel": 3,
      "note": 57,
      "start": 73.7856,
      "duration": 0.0609,
      "velocity": 123,
      "chip": "ym2612"
    },
    {
      "channel": 0,
      "note": 50,
      "start": 73.9159,
      "duration": 0.0471,
      "velocity": 88,
      "chip": "ym2612"
    },
    {
      "channel": 1,
      "note": 60,
      "start": 73.9187,
      "duration": 0.0277,
      "velocity": 123,
      "chip": "ym2612"
    },
    {
      "channel": 2,
      "note": 38,
      "start": 73.9668,
      "duration": 0.063,
      "velocity": 93,
      "chip": "ym2612"
    },
    {
      "channel": 0,
      "note": 50,
      "start": 74.0657,
      "duration": 0.1139,
      "velocity": 88,
      "chip": "ym2612"
    },
    {
      "channel": 1,
      "note": 55,
      "start": 74.0687,
      "duration": 0.0443,
      "velocity": 123,
      "chip": "ym2612"
    },
    {
      "channel": 3,
      "note": 60,
      "start": 74.0715,
      "duration": 0.0083,
      "velocity": 123,
      "chip": "ym2612"
    },
    {
      "channel": 2,
      "note": 38,
      "start": 74.1168,
      "duration": 0.113,
      "velocity": 93,
      "chip": "ym2612"
    },
    {
      "channel": 0,
      "note": 62,
      "start": 74.2159,
      "duration": 0.197,
      "velocity": 88,
      "chip": "ym2612"
    },
    {
      "channel": 1,
      "note": 62,
      "start": 74.2192,
      "duration": 0.0604,
      "velocity": 123,
      "chip": "ym2612"
    },
    {
      "channel": 3,
      "note": 57,
      "start": 74.2218,
      "duration": 0.058,
      "velocity": 123,
      "chip": "ym2612"
    },
    {
      "channel": 4,
      "note": 70,
      "start": 74.2248,
      "duration": 0.4383,
      "velocity": 127,
      "chip": "ym2612"
    },
    {
      "channel": 2,
      "note": 50,
      "start": 74.2501,
      "duration": 0.2131,
      "velocity": 93,
      "chip": "ym2612"
    },
    {
      "channel": 0,
      "note": 50,
      "start": 74.4993,
      "duration": 0.0469,
      "velocity": 88,
      "chip": "ym2612"
    },
    {
      "channel": 1,
      "note": 60,
      "start": 74.5022,
      "duration": 0.0441,
      "velocity": 123,
      "chip": "ym2612"
    },
    {
      "channel": 3,
      "note": 55,
      "start": 74.5049,
      "duration": 0.008,
      "velocity": 123,
      "chip": "ym2612"
    },
    {
      "channel": 2,
      "note": 38,
      "start": 74.5502,
      "duration": 0.063,
      "velocity": 93,
      "chip": "ym2612"
    },
    {
      "channel": 0,
      "note": 50,
      "start": 74.6328,
      "duration": 0.0967,
      "velocity": 88,
      "chip": "ym2612"
    },
    {
      "channel": 1,
      "note": 60,
      "start": 74.6358,
      "duration": 0.0939,
      "velocity": 123,
      "chip": "ym2612"
    },
    {
      "channel": 3,
      "note": 65,
      "start": 74.6383,
      "duration": 0.0915,
      "velocity": 123,
      "chip": "ym2612"
    },
    {
      "channel": 2,
      "note": 38,
      "start": 74.6837,
      "duration": 0.0961,
      "velocity": 93,
      "chip": "ym2612"
    },
    {
      "channel": 0,
      "note": 53,
      "start": 74.7826,
      "duration": 0.1136,
      "velocity": 88,
      "chip": "ym2612"
    },
    {
      "channel": 5,
      "note": 33,
      "start": 74.7856,
      "duration": 0.0941,
      "velocity": 113,
      "chip": "ym2612"
    },
    {
      "channel": 2,
      "note": 41,
      "start": 74.8334,
      "duration": 0.1464,
      "velocity": 93,
      "chip": "ym2612"
    },
    {
      "channel": 1,
      "note": 62,
      "start": 74.9333,
      "duration": 0.063,
      "velocity": 123,
      "chip": "ym2612"
    },
    {
      "channel": 3,
      "note": 57,
      "start": 74.9359,
      "duration": 0.0606,
      "velocity": 123,
      "chip": "ym2612"
    },
    {
      "channel": 0,
      "note": 53,
      "start": 75.0657,
      "duration": 0.1139,
      "velocity": 88,
      "chip": "ym2612"
    },
    {
      "channel": 1,
      "note": 60,
      "start": 75.0685,
      "duration": 0.0278,
      "velocity": 123,
      "chip": "ym2612"
    },
    {
      "channel": 5,
      "note": 33,
      "start": 75.0713,
      "duration": 0.2085,
      "velocity": 113,
      "chip": "ym2612"
    },
    {
      "channel": 2,
      "note": 41,
      "start": 75.1167,
      "duration": 0.1131,
      "velocity": 93,
      "chip": "ym2612"
    },
    {
      "channel": 0,
      "note": 55,
      "start": 75.2158,
      "duration": 0.1138,
      "velocity": 88,
      "chip": "ym2612"
    },
    {
      "channel": 1,
      "note": 60,
      "start": 75.2187,
      "duration": 0.0443,
      "velocity": 123,
      "chip": "ym2612"
    },
    {
      "channel": 3,
      "note": 57,
      "start": 75.2215,
      "duration": 0.0581,
      "velocity": 123,
      "chip": "ym2612"
    },
    {
      "channel": 2,
      "note": 43,
      "start": 75.2667,
      "duration": 0.1132,
      "velocity": 93,
      "chip": "ym2612"
    },
    {
      "channel": 4,
      "note": 70,
      "start": 75.3662,
      "duration": 0.4468,
      "velocity": 127,
      "chip": "ym2612"
    },
    {
      "channel": 0,
      "note": 55,
      "start": 75.4992,
      "duration": 0.097,
      "velocity": 88,
      "chip": "ym2612"
    },
    {
      "channel": 1,
      "note": 60,
      "start": 75.5021,
      "duration": 0.0441,
      "velocity": 123,
      "chip": "ym2612"
    },
    {
      "channel": 2,
      "note": 43,
      "start": 75.5501,
      "duration": 0.0963,
      "velocity": 93,
      "chip": "ym2612"
    },
    {
      "channel": 0,
      "note": 53,
      "start": 75.6491,
      "duration": 0.1138,
      "velocity": 88,
      "chip": "ym2612"
    },
    {
      "channel": 1,
      "note": 60,
      "start": 75.6519,
      "duration": 0.0444,
      "velocity": 123,
      "chip": "ym2612"
    },
    {
      "channel": 3,
      "note": 57,
      "start": 75.655,
      "duration": 0.0581,
      "velocity": 123,
      "chip": "ym2612"
    },
    {
      "channel": 2,
      "note": 41,
      "start": 75.7,
      "duration": 0.1132,
      "velocity": 93,
      "chip": "ym2612"
    },
    {
      "channel": 0,
      "note": 55,
      "start": 75.7823,
      "duration": 0.0805,
      "velocity": 88,
      "chip": "ym2612"
    },
    {
      "channel": 1,
      "note": 60,
      "start": 75.7851,
      "duration": 0.0445,
      "velocity": 123,
      "chip": "ym2612"
    },
    {
      "channel": 2,
      "note": 43,
      "start": 75.8334,
      "duration": 0.0964,
      "velocity": 93,
      "chip": "ym2612"
    },
    {
      "channel": 0,
      "note": 50,
      "start": 75.933,
      "duration": 0.0966,
      "velocity": 88,
      "chip": "ym2612"
    },
    {
      "channel": 1,
      "note": 57,
      "start": 75.936,
      "duration": 0.0604,
      "velocity": 123,
      "chip": "ym2612"
    },
    {
      "channel": 3,
      "note": 62,
      "start": 75.9387,
      "duration": 0.041,
      "velocity": 123,
      "chip": "ym2612"
    },
    {
      "channel": 5,
      "note": 33,
      "start": 75.9415,
      "duration": 0.4216,
      "velocity": 113,
      "chip": "ym2612"
    },
    {
      "channel": 2,
      "note": 38,
      "start": 75.9838,
      "duration": 0.1127,
      "velocity": 93,
      "chip": "ym2612"
    },
    {
      "channel": 1,
      "note": 62,
      "start": 76.083,
      "duration": 0.0633,
      "velocity": 123,
      "chip": "ym2612"
    },
    {
      "channel": 3,
      "note": 57,
      "start": 76.0856,
      "duration": 0.0608,
      "velocity": 123,
      "chip": "ym2612"
    },
    {
      "channel": 0,
      "note": 50,
      "start": 76.2159,
      "duration": 0.0471,
      "velocity": 88,
      "chip": "ym2612"
    },
    {
      "channel": 1,
      "note": 60,
      "start": 76.219,
      "duration": 0.0272,
      "velocity": 123,
      "chip": "ym2612"
    },
    {
      "channel": 2,
      "note": 38,
      "start": 76.2669,
      "duration": 0.0796,
      "velocity": 93,
      "chip": "ym2612"
    },
    {
      "channel": 0,
      "note": 50,
      "start": 76.3659,
      "duration": 0.1137,
      "velocity": 88,
      "chip": "ym2612"
    },
    {
      "channel": 1,
      "note": 55,
      "start": 76.3688,
      "duration": 0.0441,
      "velocity": 123,
      "chip": "ym2612"
    },
    {
      "channel": 3,
      "note": 60,
      "start": 76.3714,
      "duration": 0.0416,
      "velocity": 123,
      "chip": "ym2612"
    },
    {
      "channel": 2,
      "note": 38,
      "start": 76.4168,
      "duration": 0.113,
      "velocity": 93,
      "chip": "ym2612"
    },
    {
      "channel": 0,
      "note": 62,
      "start": 76.5159,
      "duration": 0.1637,
      "velocity": 88,
      "chip": "ym2612"
    },
    {
      "channel": 1,
      "note": 62,
      "start": 76.5187,
      "duration": 0.0276,
      "velocity": 123,
      "chip": "ym2612"
    },
    {
      "channel": 3,
      "note": 57,
      "start": 76.5215,
      "duration": 0.0582,
      "velocity": 123,
      "chip": "ym2612"
    },
    {
      "channel": 4,
      "note": 70,
      "start": 76.5241,
      "duration": 0.4389,
      "velocity": 127,
      "chip": "ym2612"
    },
    {
      "channel": 2,
      "note": 50,
      "start": 76.5502,
      "duration": 0.1796,
      "velocity": 93,
      "chip": "ym2612"
    },
    {
      "channel": 0,
      "note": 50,
      "start": 76.7993,
      "duration": 0.047,
      "velocity": 88,
      "chip": "ym2612"
    },
    {
      "channel": 1,
      "note": 60,
      "start": 76.8022,
      "duration": 0.0443,
      "velocity": 123,
      "chip": "ym2612"
    },
    {
      "channel": 3,
      "note": 55,
      "start": 76.8051,
      "duration": 0.0415,
      "velocity": 123,
      "chip": "ym2612"
    },
    {
      "channel": 2,
      "note": 38,
      "start": 76.8504,
      "duration": 0.0461,
      "velocity": 93,
      "chip": "ym2612"
    },
    {
      "channel": 0,
      "note": 50,
      "start": 76.9323,
      "duration": 0.0972,
      "velocity": 88,
      "chip": "ym2612"
    },
    {
      "channel": 1,
      "note": 62,
      "start": 76.9353,
      "duration": 0.0776,
      "velocity": 123,
      "chip": "ym2612"
    },
    {
      "channel": 3,
      "note": 57,
      "start": 76.9379,
      "duration": 0.0752,
      "velocity": 123,
      "chip": "ym2612"
    },
    {
      "channel": 2,
      "note": 38,
      "start": 76.9832,
      "duration": 0.13,
      "velocity": 93,
      "chip": "ym2612"
    },
    {
      "channel": 0,
      "note": 53,
      "start": 77.0829,
      "duration": 0.1134,
      "velocity": 88,
      "chip": "ym2612"
    },
    {
      "channel": 5,
      "note": 33,
      "start": 77.0864,
      "duration": 0.1102,
      "velocity": 113,
      "chip": "ym2612"
    },
    {
      "channel": 2,
      "note": 41,
      "start": 77.1337,
      "duration": 0.1128,
      "velocity": 93,
      "chip": "ym2612"
    },
    {
      "channel": 0,
      "note": 53,
      "start": 77.3657,
      "duration": 0.1306,
      "velocity": 88,
      "chip": "ym2612"
    },
    {
      "channel": 5,
      "note": 33,
      "start": 77.3688,
      "duration": 0.1943,
      "velocity": 113,
      "chip": "ym2612"
    },
    {
      "channel": 2,
      "note": 41,
      "start": 77.4166,
      "duration": 0.1132,
      "velocity": 93,
      "chip": "ym2612"
    },
    {
      "channel": 0,
      "note": 55,
      "start": 77.5159,
      "duration": 0.3303,
      "velocity": 88,
      "chip": "ym2612"
    },
    {
      "channel": 2,
      "note": 43,
      "start": 77.5668,
      "duration": 0.3296,
      "velocity": 93,
      "chip": "ym2612"
    },
    {
      "channel": 4,
      "note": 70,
      "start": 77.6665,
      "duration": 0.2465,
      "velocity": 127,
      "chip": "ym2612"
    },
    {
      "channel": 0,
      "note": 53,
      "start": 77.9492,
      "duration": 0.147,
      "velocity": 88,
      "chip": "ym2612"
    },
    {
      "channel": 4,
      "note": 70,
      "start": 77.9524,
      "duration": 0.1107,
      "velocity": 127,
      "chip": "ym2612"
    },
    {
      "channel": 2,
      "note": 41,
      "start": 78.0001,
      "duration": 0.163,
      "velocity": 93,
      "chip": "ym2612"
    },
    {
      "channel": 1,
      "note": 60,
      "start": 78.0996,
      "duration": 0.0134,
      "velocity": 123,
      "chip": "ym2612"
    },
    {
      "channel": 0,
      "note": 50,
      "start": 78.2323,
      "duration": 0.1473,
      "velocity": 88,
      "chip": "ym2612"
    },
    {
      "channel": 1,
      "note": 62,
      "start": 78.2352,
      "duration": 0.0443,
      "velocity": 123,
      "chip": "ym2612"
    },
    {
      "channel": 3,
      "note": 57,
      "start": 78.2378,
      "duration": 0.0419,
      "velocity": 123,
      "chip": "ym2612"
    },
    {
      "channel": 5,
      "note": 33,
      "start": 78.2407,
      "duration": 0.206,
      "velocity": 113,
      "chip": "ym2612"
    },
    {
      "channel": 2,
      "note": 38,
      "start": 78.2832,
      "duration": 0.1636,
      "velocity": 93,
      "chip": "ym2612"
    },
    {
      "channel": 1,
      "note": 62,
      "start": 78.3834,
      "duration": 0.063,
      "velocity": 123,
      "chip": "ym2612"
    },
    {
      "channel": 3,
      "note": 57,
      "start": 78.386,
      "duration": 0.0605,
      "velocity": 123,
      "chip": "ym2612"
    },
    {
      "channel": 0,
      "note": 50,
      "start": 78.5158,
      "duration": 0.0804,
      "velocity": 88,
      "chip": "ym2612"
    },
    {
      "channel": 1,
      "note": 60,
      "start": 78.5186,
      "duration": 0.0277,
      "velocity": 123,
      "chip": "ym2612"
    },
    {
      "channel": 2,
      "note": 38,
      "start": 78.5667,
      "duration": 0.0964,
      "velocity": 93,
      "chip": "ym2612"
    },
    {
      "channel": 0,
      "note": 50,
      "start": 78.6662,
      "duration": 0.0967,
      "velocity": 88,
      "chip": "ym2612"
    },
    {
      "channel": 1,
      "note": 60,
      "start": 78.6691,
      "duration": 0.0438,
      "velocity": 123,
      "chip": "ym2612"
    },
    {
      "channel": 3,
      "note": 55,
      "start": 78.6717,
      "duration": 0.0414,
      "velocity": 123,
      "chip": "ym2612"
    },
    {
      "channel": 2,
      "note": 38,
      "start": 78.7168,
      "duration": 0.113,
      "velocity": 93,
      "chip": "ym2612"
    },
    {
      "channel": 0,
      "note": 62,
      "start": 78.8159,
      "duration": 0.1803,
      "velocity": 88,
      "chip": "ym2612"
    },
    {
      "channel": 1,
      "note": 62,
      "start": 78.8187,
      "duration": 0.0443,
      "velocity": 123,
      "chip": "ym2612"
    },
    {
      "channel": 3,
      "note": 57,
      "start": 78.8215,
      "duration": 0.0583,
      "velocity": 123,
      "chip": "ym2612"
    },
    {
      "channel": 4,
      "note": 70,
      "start": 78.8243,
      "duration": 0.4554,
      "velocity": 127,
      "chip": "ym2612"
    },
    {
      "channel": 2,
      "note": 50,
      "start": 78.8672,
      "duration": 0.1793,
      "velocity": 93,
      "chip": "ym2612"
    },
    {
      "channel": 0,
      "note": 50,
      "start": 79.0992,
      "duration": 0.0636,
      "velocity": 88,
      "chip": "ym2612"
    },
    {
      "channel": 1,
      "note": 55,
      "start": 79.1025,
      "duration": 0.0438,
      "velocity": 123,
      "chip": "ym2612"
    },
    {
      "channel": 3,
      "note": 60,
      "start": 79.105,
      "duration": 0.0414,
      "velocity": 123,
      "chip": "ym2612"
    },
    {
      "channel": 2,
      "note": 38,
      "start": 79.1503,
      "duration": 0.0961,
      "velocity": 93,
      "chip": "ym2612"
    },
    {
      "channel": 0,
      "note": 50,
      "start": 79.2491,
      "duration": 0.0804,
      "velocity": 88,
      "chip": "ym2612"
    },
    {
      "channel": 1,
      "note": 65,
      "start": 79.252,
      "duration": 0.0776,
      "velocity": 123,
      "chip": "ym2612"
    },
    {
      "channel": 3,
      "note": 60,
      "start": 79.2548,
      "duration": 0.0581,
      "velocity": 123,
      "chip": "ym2612"
    },
    {
      "channel": 2,
      "note": 38,
      "start": 79.2832,
      "duration": 0.0967,
      "velocity": 93,
      "chip": "ym2612"
    },
    {
      "channel": 0,
      "note": 53,
      "start": 79.3827,
      "duration": 0.1135,
      "velocity": 88,
      "chip": "ym2612"
    },
    {
      "channel": 1,
      "note": 60,
      "start": 79.3854,
      "duration": 0.0275,
      "velocity": 123,
      "chip": "ym2612"
    },
    {
      "channel": 5,
      "note": 33,
      "start": 79.3883,
      "duration": 0.0915,
      "velocity": 113,
      "chip": "ym2612"
    },
    {
      "channel": 2,
      "note": 41,
      "start": 79.4334,
      "duration": 0.1464,
      "velocity": 93,
      "chip": "ym2612"
    },
    {
      "channel": 1,
      "note": 62,
      "start": 79.533,
      "duration": 0.0632,
      "velocity": 123,
      "chip": "ym2612"
    },
    {
      "channel": 3,
      "note": 57,
      "start": 79.536,
      "duration": 0.0604,
      "velocity": 123,
      "chip": "ym2612"
    },
    {
      "channel": 0,
      "note": 53,
      "start": 79.6658,
      "duration": 0.1304,
      "velocity": 88,
      "chip": "ym2612"
    },
    {
      "channel": 5,
      "note": 33,
      "start": 79.6689,
      "duration": 0.1276,
      "velocity": 113,
      "chip": "ym2612"
    },
    {
      "channel": 2,
      "note": 41,
      "start": 79.7167,
      "duration": 0.1132,
      "velocity": 93,
      "chip": "ym2612"
    },
    {
      "channel": 0,
      "note": 55,
      "start": 79.8158,
      "duration": 0.1137,
      "velocity": 88,
      "chip": "ym2612"
    },
    {
      "channel": 1,
      "note": 60,
      "start": 79.8186,
      "duration": 0.061,
      "velocity": 123,
      "chip": "ym2612"
    },
    {
      "channel": 3,
      "note": 57,
      "start": 79.8211,
      "duration": 0.0586,
      "velocity": 123,
      "chip": "ym2612"
    },
    {
      "channel": 2,
      "note": 43,
      "start": 79.8667,
      "duration": 0.1464,
      "velocity": 93,
      "chip": "ym2612"
    },
    {
      "channel": 1,
      "note": 60,
      "start": 79.9662,
      "duration": 0.0135,
      "velocity": 123,
      "chip": "ym2612"
    },
    {
      "channel": 4,
      "note": 70,
      "start": 79.9693,
      "duration": 0.427,
      "velocity": 127,
      "chip": "ym2612"
    },
    {
      "channel": 0,
      "note": 55,
      "start": 80.0996,
      "duration": 0.0798,
      "velocity": 88,
      "chip": "ym2612"
    },
    {
      "channel": 1,
      "note": 60,
      "start": 80.1024,
      "duration": 0.0272,
      "velocity": 123,
      "chip": "ym2612"
    },
    {
      "channel": 3,
      "note": 55,
      "start": 80.105,
      "duration": 0.0247,
      "velocity": 123,
      "chip": "ym2612"
    },
    {
      "channel": 2,
      "note": 43,
      "start": 80.1504,
      "duration": 0.0794,
      "velocity": 93,
      "chip": "ym2612"
    },
    {
      "channel": 0,
      "note": 53,
      "start": 80.2491,
      "duration": 0.0971,
      "velocity": 88,
      "chip": "ym2612"
    },
    {
      "channel": 1,
      "note": 60,
      "start": 80.252,
      "duration": 0.0609,
      "velocity": 123,
      "chip": "ym2612"
    },
    {
      "channel": 3,
      "note": 57,
      "start": 80.2546,
      "duration": 0.0585,
      "velocity": 123,
      "chip": "ym2612"
    },
    {
      "channel": 2,
      "note": 41,
      "start": 80.2999,
      "duration": 0.1134,
      "velocity": 93,
      "chip": "ym2612"
    },
    {
      "channel": 0,
      "note": 55,
      "start": 80.3989,
      "duration": 0.0807,
      "velocity": 88,
      "chip": "ym2612"
    },
    {
      "channel": 1,
      "note": 60,
      "start": 80.4022,
      "duration": 0.0273,
      "velocity": 123,
      "chip": "ym2612"
    },
    {
      "channel": 3,
      "note": 55,
      "start": 80.405,
      "duration": 0.008,
      "velocity": 123,
      "chip": "ym2612"
    },
    {
      "channel": 2,
      "note": 43,
      "start": 80.4334,
      "duration": 0.0964,
      "velocity": 93,
      "chip": "ym2612"
    },
    {
      "channel": 0,
      "note": 50,
      "start": 80.5324,
      "duration": 0.0971,
      "velocity": 88,
      "chip": "ym2612"
    },
    {
      "channel": 1,
      "note": 62,
      "start": 80.5354,
      "duration": 0.0441,
      "velocity": 123,
      "chip": "ym2612"
    },
    {
      "channel": 3,
      "note": 57,
      "start": 80.5382,
      "duration": 0.0249,
      "velocity": 123,
      "chip": "ym2612"
    },
    {
      "channel": 5,
      "note": 33,
      "start": 80.541,
      "duration": 0.3056,
      "velocity": 113,
      "chip": "ym2612"
    },
    {
      "channel": 2,
      "note": 38,
      "start": 80.5835,
      "duration": 0.113,
      "velocity": 93,
      "chip": "ym2612"
    },
    {
      "channel": 1,
      "note": 62,
      "start": 80.683,
      "duration": 0.0633,
      "velocity": 123,
      "chip": "ym2612"
    },
    {
      "channel": 3,
      "note": 57,
      "start": 80.686,
      "duration": 0.0604,
      "velocity": 123,
      "chip": "ym2612"
    },
    {
      "channel": 0,
      "note": 50,
      "start": 80.8159,
      "duration": 0.0303,
      "velocity": 88,
      "chip": "ym2612"
    },
    {
      "channel": 1,
      "note": 60,
      "start": 80.8188,
      "duration": 0.0276,
      "velocity": 123,
      "chip": "ym2612"
    },
    {
      "channel": 3,
      "note": 55,
      "start": 80.8213,
      "duration": 0.0251,
      "velocity": 123,
      "chip": "ym2612"
    },
    {
      "channel": 2,
      "note": 38,
      "start": 80.8667,
      "duration": 0.0464,
      "velocity": 93,
      "chip": "ym2612"
    },
    {
      "channel": 0,
      "note": 50,
      "start": 80.9657,
      "duration": 0.0973,
      "velocity": 88,
      "chip": "ym2612"
    },
    {
      "channel": 1,
      "note": 62,
      "start": 80.9686,
      "duration": 0.0611,
      "velocity": 123,
      "chip": "ym2612"
    },
    {
      "channel": 3,
      "note": 57,
      "start": 80.9713,
      "duration": 0.0585,
      "velocity": 123,
      "chip": "ym2612"
    },
    {
      "channel": 2,
      "note": 38,
      "start": 81.0166,
      "duration": 0.1132,
      "velocity": 93,
      "chip": "ym2612"
    },
    {
      "channel": 0,
      "note": 62,
      "start": 81.1159,
      "duration": 0.1303,
      "velocity": 88,
      "chip": "ym2612"
    },
    {
      "channel": 4,
      "note": 70,
      "start": 81.1187,
      "duration": 0.4277,
      "velocity": 127,
      "chip": "ym2612"
    },
    {
      "channel": 2,
      "note": 50,
      "start": 81.1671,
      "duration": 0.1627,
      "velocity": 93,
      "chip": "ym2612"
    },
    {
      "channel": 0,
      "note": 50,
      "start": 81.3994,
      "duration": 0.1135,
      "velocity": 88,
      "chip": "ym2612"
    },
    {
      "channel": 2,
      "note": 38,
      "start": 81.45,
      "duration": 0.1131,
      "velocity": 93,
      "chip": "ym2612"
    },
    {
      "channel": 0,
      "note": 57,
      "start": 81.6825,
      "duration": 0.3303,
      "velocity": 88,
      "chip": "ym2612"
    },
    {
      "channel": 5,
      "note": 33,
      "start": 81.686,
      "duration": 0.2105,
      "velocity": 113,
      "chip": "ym2612"
    },
    {
      "channel": 2,
      "note": 45,
      "start": 81.7334,
      "duration": 0.363,
      "velocity": 93,
      "chip": "ym2612"
    },
    {
      "channel": 0,
      "note": 56,
      "start": 82.1158,
      "duration": 0.1639,
      "velocity": 88,
      "chip": "ym2612"
    },
    {
      "channel": 2,
      "note": 44,
      "start": 82.1667,
      "duration": 0.1632,
      "velocity": 93,
      "chip": "ym2612"
    },
    {
      "channel": 5,
      "note": 33,
      "start": 82.2662,
      "duration": 0.2303,
      "velocity": 113,
      "chip": "ym2612"
    },
    {
      "channel": 4,
      "note": 70,
      "start": 82.269,
      "duration": 0.2274,
      "velocity": 127,
      "chip": "ym2612"
    },
    {
      "channel": 0,
      "note": 55,
      "start": 82.3992,
      "duration": 0.0971,
      "velocity": 88,
      "chip": "ym2612"
    },
    {
      "channel": 2,
      "note": 43,
      "start": 82.4501,
      "duration": 0.113,
      "velocity": 93,
      "chip": "ym2612"
    },
    {
      "channel": 0,
      "note": 53,
      "start": 82.5493,
      "duration": 0.1637,
      "velocity": 88,
      "chip": "ym2612"
    },
    {
      "channel": 4,
      "note": 70,
      "start": 82.5524,
      "duration": 0.144,
      "velocity": 127,
      "chip": "ym2612"
    },
    {
      "channel": 2,
      "note": 41,
      "start": 82.6001,
      "duration": 0.1798,
      "velocity": 93,
      "chip": "ym2612"
    },
    {
      "channel": 0,
      "note": 50,
      "start": 82.8335,
      "duration": 0.0794,
      "velocity": 88,
      "chip": "ym2612"
    },
    {
      "channel": 1,
      "note": 56,
      "start": 82.8365,
      "duration": 0.4598,
      "velocity": 98,
      "chip": "ym2612"
    },
    {
      "channel": 3,
      "note": 68,
      "start": 82.8393,
      "duration": 0.4237,
      "velocity": 98,
      "chip": "ym2612"
    },
    {
      "channel": 5,
      "note": 33,
      "start": 82.8422,
      "duration": 0.2541,
      "velocity": 113,
      "chip": "ym2612"
    },
    {
      "channel": 2,
      "note": 38,
      "start": 82.8848,
      "duration": 0.0617,
      "velocity": 93,
      "chip": "ym2612"
    },
    {
      "channel": 0,
      "note": 50,
      "start": 83.1325,
      "duration": 0.0303,
      "velocity": 88,
      "chip": "ym2612"
    },
    {
      "channel": 2,
      "note": 38,
      "start": 83.1666,
      "duration": 0.0799,
      "velocity": 93,
      "chip": "ym2612"
    },
    {
      "channel": 0,
      "note": 50,
      "start": 83.2658,
      "duration": 0.1137,
      "velocity": 88,
      "chip": "ym2612"
    },
    {
      "channel": 2,
      "note": 38,
      "start": 83.3167,
      "duration": 0.1132,
      "velocity": 93,
      "chip": "ym2612"
    },
    {
      "channel": 0,
      "note": 62,
      "start": 83.4159,
      "duration": 0.2137,
      "velocity": 88,
      "chip": "ym2612"
    },
    {
      "channel": 1,
      "note": 67,
      "start": 83.4185,
      "duration": 0.1777,
      "velocity": 98,
      "chip": "ym2612"
    },
    {
      "channel": 3,
      "note": 55,
      "start": 83.4215,
      "duration": 0.1581,
      "velocity": 98,
      "chip": "ym2612"
    },
    {
      "channel": 4,
      "note": 70,
      "start": 83.4246,
      "duration": 0.4717,
      "velocity": 127,
      "chip": "ym2612"
    },
    {
      "channel": 2,
      "note": 50,
      "start": 83.4667,
      "duration": 0.2131,
      "velocity": 93,
      "chip": "ym2612"
    },
    {
      "channel": 0,
      "note": 50,
      "start": 83.6993,
      "duration": 0.0471,
      "velocity": 88,
      "chip": "ym2612"
    },
    {
      "channel": 1,
      "note": 65,
      "start": 83.702,
      "duration": 0.0445,
      "velocity": 98,
      "chip": "ym2612"
    },
    {
      "channel": 3,
      "note": 53,
      "start": 83.7046,
      "duration": 0.0917,
      "velocity": 98,
      "chip": "ym2612"
    },
    {
      "channel": 2,
      "note": 38,
      "start": 83.7503,
      "duration": 0.0628,
      "velocity": 93,
      "chip": "ym2612"
    },
    {
      "channel": 0,
      "note": 50,
      "start": 83.8494,
      "duration": 0.0801,
      "velocity": 88,
      "chip": "ym2612"
    },
    {
      "channel": 1,
      "note": 50,
      "start": 83.8521,
      "duration": 0.2941,
      "velocity": 98,
      "chip": "ym2612"
    },
    {
      "channel": 3,
      "note": 62,
      "start": 83.8548,
      "duration": 0.2748,
      "velocity": 98,
      "chip": "ym2612"
    },
    {
      "channel": 2,
      "note": 38,
      "start": 83.9003,
      "duration": 0.0795,
      "velocity": 93,
      "chip": "ym2612"
    },
    {
      "channel": 0,
      "note": 53,
      "start": 83.9826,
      "duration": 0.1136,
      "velocity": 88,
      "chip": "ym2612"
    },
    {
      "channel": 5,
      "note": 33,
      "start": 83.9856,
      "duration": 0.1108,
      "velocity": 113,
      "chip": "ym2612"
    },
    {
      "channel": 2,
      "note": 41,
      "start": 84.0333,
      "duration": 0.1466,
      "velocity": 93,
      "chip": "ym2612"
    },
    {
      "channel": 0,
      "note": 53,
      "start": 84.2823,
      "duration": 0.1138,
      "velocity": 88,
      "chip": "ym2612"
    },
    {
      "channel": 1,
      "note": 65,
      "start": 84.2854,
      "duration": 0.211,
      "velocity": 98,
      "chip": "ym2612"
    },
    {
      "channel": 3,
      "note": 53,
      "start": 84.288,
      "duration": 0.1249,
      "velocity": 98,
      "chip": "ym2612"
    },
    {
      "channel": 5,
      "note": 33,
      "start": 84.291,
      "duration": 0.2388,
      "velocity": 113,
      "chip": "ym2612"
    },
    {
      "channel": 2,
      "note": 41,
      "start": 84.3168,
      "duration": 0.1298,
      "velocity": 93,
      "chip": "ym2612"
    },
    {
      "channel": 0,
      "note": 55,
      "start": 84.4158,
      "duration": 0.1137,
      "velocity": 88,
      "chip": "ym2612"
    },
    {
      "channel": 2,
      "note": 43,
      "start": 84.4665,
      "duration": 0.1134,
      "velocity": 93,
      "chip": "ym2612"
    },
    {
      "channel": 4,
      "note": 70,
      "start": 84.5664,
      "duration": 0.4467,
      "velocity": 127,
      "chip": "ym2612"
    },
    {
      "channel": 0,
      "note": 55,
      "start": 84.6993,
      "duration": 0.0969,
      "velocity": 88,
      "chip": "ym2612"
    },
    {
      "channel": 1,
      "note": 67,
      "start": 84.702,
      "duration": 0.0943,
      "velocity": 98,
      "chip": "ym2612"
    },
    {
      "channel": 3,
      "note": 55,
      "start": 84.7046,
      "duration": 0.1251,
      "velocity": 98,
      "chip": "ym2612"
    },
    {
      "channel": 2,
      "note": 43,
      "start": 84.75,
      "duration": 0.0964,
      "velocity": 93,
      "chip": "ym2612"
    },
    {
      "channel": 0,
      "note": 53,
      "start": 84.8491,
      "duration": 0.1137,
      "velocity": 88,
      "chip": "ym2612"
    },
    {
      "channel": 2,
      "note": 41,
      "start": 84.8998,
      "duration": 0.1134,
      "velocity": 93,
      "chip": "ym2612"
    },
    {
      "channel": 0,
      "note": 55,
      "start": 84.9991,
      "duration": 0.0638,
      "velocity": 88,
      "chip": "ym2612"
    },
    {
      "channel": 2,
      "note": 43,
      "start": 85.0499,
      "duration": 0.0799,
      "velocity": 93,
      "chip": "ym2612"
    },
    {
      "channel": 0,
      "note": 50,
      "start": 85.133,
      "duration": 0.0966,
      "velocity": 88,
      "chip": "ym2612"
    },
    {
      "channel": 1,
      "note": 68,
      "start": 85.1357,
      "duration": 0.4105,
      "velocity": 98,
      "chip": "ym2612"
    },
    {
      "channel": 3,
      "note": 56,
      "start": 85.1383,
      "duration": 0.4247,
      "velocity": 98,
      "chip": "ym2612"
    },
    {
      "channel": 5,
      "note": 33,
      "start": 85.1417,
      "duration": 0.4548,
      "velocity": 113,
      "chip": "ym2612"
    },
    {
      "channel": 2,
      "note": 38,
      "start": 85.1837,
      "duration": 0.1128,
      "velocity": 93,
      "chip": "ym2612"
    },
    {
      "channel": 0,
      "note": 50,
      "start": 85.4327,
      "duration": 0.0303,
      "velocity": 88,
      "chip": "ym2612"
    },
    {
      "channel": 2,
      "note": 38,
      "start": 85.4668,
      "duration": 0.0798,
      "velocity": 93,
      "chip": "ym2612"
    },
    {
      "channel": 0,
      "note": 50,
      "start": 85.5658,
      "duration": 0.1137,
      "velocity": 88,
      "chip": "ym2612"
    },
    {
      "channel": 2,
      "note": 38,
      "start": 85.6167,
      "duration": 0.1132,
      "velocity": 93,
      "chip": "ym2612"
    },
    {
      "channel": 0,
      "note": 62,
      "start": 85.7159,
      "duration": 0.1636,
      "velocity": 88,
      "chip": "ym2612"
    },
    {
      "channel": 1,
      "note": 55,
      "start": 85.7189,
      "duration": 0.1773,
      "velocity": 98,
      "chip": "ym2612"
    },
    {
      "channel": 3,
      "note": 67,
      "start": 85.7215,
      "duration": 0.2249,
      "velocity": 98,
      "chip": "ym2612"
    },
    {
      "channel": 4,
      "note": 70,
      "start": 85.7244,
      "duration": 0.5054,
      "velocity": 127,
      "chip": "ym2612"
    },
    {
      "channel": 2,
      "note": 50,
      "start": 85.7666,
      "duration": 0.1632,
      "velocity": 93,
      "chip": "ym2612"
    },
    {
      "channel": 0,
      "note": 50,
      "start": 85.9993,
      "duration": 0.047,
      "velocity": 88,
      "chip": "ym2612"
    },
    {
      "channel": 1,
      "note": 65,
      "start": 86.0019,
      "duration": 0.0445,
      "velocity": 98,
      "chip": "ym2612"
    },
    {
      "channel": 3,
      "note": 53,
      "start": 86.0046,
      "duration": 0.0917,
      "velocity": 98,
      "chip": "ym2612"
    },
    {
      "channel": 2,
      "note": 38,
      "start": 86.0503,
      "duration": 0.0463,
      "velocity": 93,
      "chip": "ym2612"
    },
    {
      "channel": 0,
      "note": 50,
      "start": 86.1491,
      "duration": 0.0805,
      "velocity": 88,
      "chip": "ym2612"
    },
    {
      "channel": 1,
      "note": 62,
      "start": 86.1519,
      "duration": 0.2111,
      "velocity": 98,
      "chip": "ym2612"
    },
    {
      "channel": 3,
      "note": 50,
      "start": 86.1549,
      "duration": 0.1247,
      "velocity": 98,
      "chip": "ym2612"
    },
    {
      "channel": 2,
      "note": 38,
      "start": 86.2,
      "duration": 0.1132,
      "velocity": 93,
      "chip": "ym2612"
    },
    {
      "channel": 0,
      "note": 53,
      "start": 86.283,
      "duration": 0.1298,
      "velocity": 88,
      "chip": "ym2612"
    },
    {
      "channel": 5,
      "note": 33,
      "start": 86.286,
      "duration": 0.1271,
      "velocity": 113,
      "chip": "ym2612"
    },
    {
      "channel": 2,
      "note": 41,
      "start": 86.3336,
      "duration": 0.1129,
      "velocity": 93,
      "chip": "ym2612"
    },
    {
      "channel": 0,
      "note": 53,
      "start": 86.5824,
      "duration": 0.1138,
      "velocity": 88,
      "chip": "ym2612"
    },
    {
      "channel": 5,
      "note": 33,
      "start": 86.5855,
      "duration": 0.2276,
      "velocity": 113,
      "chip": "ym2612"
    },
    {
      "channel": 2,
      "note": 41,
      "start": 86.6333,
      "duration": 0.1132,
      "velocity": 93,
      "chip": "ym2612"
    },
    {
      "channel": 0,
      "note": 55,
      "start": 86.7159,
      "duration": 0.3303,
      "velocity": 88,
      "chip": "ym2612"
    },
    {
      "channel": 2,
      "note": 43,
      "start": 86.7668,
      "duration": 0.33,
      "velocity": 93,
      "chip": "ym2612"
    },
    {
      "channel": 1,
      "note": 53,
      "start": 86.866,
      "duration": 0.2303,
      "velocity": 98,
      "chip": "ym2612"
    },
    {
      "channel": 3,
      "note": 65,
      "start": 86.8685,
      "duration": 0.228,
      "velocity": 98,
      "chip": "ym2612"
    },
    {
      "channel": 4,
      "note": 70,
      "start": 86.8717,
      "duration": 0.3914,
      "velocity": 127,
      "chip": "ym2612"
    },
    {
      "channel": 0,
      "note": 53,
      "start": 87.1493,
      "duration": 0.147,
      "velocity": 88,
      "chip": "ym2612"
    },
    {
      "channel": 1,
      "note": 48,
      "start": 87.152,
      "duration": 0.0943,
      "velocity": 98,
      "chip": "ym2612"
    },
    {
      "channel": 3,
      "note": 60,
      "start": 87.1546,
      "duration": 0.0583,
      "velocity": 98,
      "chip": "ym2612"
    },
    {
      "channel": 2,
      "note": 41,
      "start": 87.2,
      "duration": 0.1632,
      "velocity": 93,
      "chip": "ym2612"
    },
    {
      "channel": 1,
      "note": 62,
      "start": 87.2996,
      "duration": 0.13,
      "velocity": 98,
      "chip": "ym2612"
    },
    {
      "channel": 3,
      "note": 50,
      "start": 87.3026,
      "duration": 0.1604,
      "velocity": 98,
      "chip": "ym2612"
    },
    {
      "channel": 0,
      "note": 50,
      "start": 87.4323,
      "duration": 0.1473,
      "velocity": 88,
      "chip": "ym2612"
    },
    {
      "channel": 5,
      "note": 33,
      "start": 87.4354,
      "duration": 0.1445,
      "velocity": 113,
      "chip": "ym2612"
    },
    {
      "channel": 2,
      "note": 38,
      "start": 87.4832,
      "duration": 0.1634,
      "velocity": 93,
      "chip": "ym2612"
    },
    {
      "channel": 0,
      "note": 50,
      "start": 87.7326,
      "duration": 0.0636,
      "velocity": 88,
      "chip": "ym2612"
    },
    {
      "channel": 2,
      "note": 38,
      "start": 87.7834,
      "duration": 0.0798,
      "velocity": 93,
      "chip": "ym2612"
    },
    {
      "channel": 0,
      "note": 50,
      "start": 87.8662,
      "duration": 0.0968,
      "velocity": 88,
      "chip": "ym2612"
    },
    {
      "channel": 1,
      "note": 38,
      "start": 87.8689,
      "duration": 0.0941,
      "velocity": 98,
      "chip": "ym2612"
    },
    {
      "channel": 2,
      "note": 38,
      "start": 87.9165,
      "duration": 0.1134,
      "velocity": 93,
      "chip": "ym2612"
    },
    {
      "channel": 0,
      "note": 62,
      "start": 88.0158,
      "duration": 0.1805,
      "velocity": 88,
      "chip": "ym2612"
    },
    {
      "channel": 1,
      "note": 69,
      "start": 88.0185,
      "duration": 0.0445,
      "velocity": 98,
      "chip": "ym2612"
    },
    {
      "channel": 3,
      "note": 72,
      "start": 88.0211,
      "duration": 0.0086,
      "velocity": 98,
      "chip": "ym2612"
    },
    {
      "channel": 4,
      "note": 70,
      "start": 88.024,
      "duration": 0.4224,
      "velocity": 127,
      "chip": "ym2612"
    },
    {
      "channel": 2,
      "note": 50,
      "start": 88.0672,
      "duration": 0.1793,
      "velocity": 93,
      "chip": "ym2612"
    },
    {
      "channel": 1,
      "note": 72,
      "start": 88.1661,
      "duration": 0.0801,
      "velocity": 98,
      "chip": "ym2612"
    },
    {
      "channel": 3,
      "note": 69,
      "start": 88.1691,
      "duration": 0.0606,
      "velocity": 98,
      "chip": "ym2612"
    },
    {
      "channel": 0,
      "note": 50,
      "start": 88.2992,
      "duration": 0.0637,
      "velocity": 88,
      "chip": "ym2612"
    },
    {
      "channel": 1,
      "note": 38,
      "start": 88.3018,
      "duration": 0.0445,
      "velocity": 98,
      "chip": "ym2612"
    },
    {
      "channel": 2,
      "note": 38,
      "start": 88.3501,
      "duration": 0.0964,
      "velocity": 93,
      "chip": "ym2612"
    },
    {
      "channel": 0,
      "note": 50,
      "start": 88.4493,
      "duration": 0.0969,
      "velocity": 88,
      "chip": "ym2612"
    },
    {
      "channel": 1,
      "note": 38,
      "start": 88.4517,
      "duration": 0.0445,
      "velocity": 98,
      "chip": "ym2612"
    },
    {
      "channel": 2,
      "note": 38,
      "start": 88.4998,
      "duration": 0.08,
      "velocity": 93,
      "chip": "ym2612"
    },
    {
      "channel": 0,
      "note": 53,
      "start": 88.5827,
      "duration": 0.1302,
      "velocity": 88,
      "chip": "ym2612"
    },
    {
      "channel": 1,
      "note": 69,
      "start": 88.5854,
      "duration": 0.0943,
      "velocity": 98,
      "chip": "ym2612"
    },
    {
      "channel": 3,
      "note": 72,
      "start": 88.5879,
      "duration": 0.0919,
      "velocity": 98,
      "chip": "ym2612"
    },
    {
      "channel": 5,
      "note": 33,
      "start": 88.5909,
      "duration": 0.0722,
      "velocity": 113,
      "chip": "ym2612"
    },
    {
      "channel": 2,
      "note": 41,
      "start": 88.6334,
      "duration": 0.1464,
      "velocity": 93,
      "chip": "ym2612"
    },
    {
      "channel": 0,
      "note": 53,
      "start": 88.8824,
      "duration": 0.1137,
      "velocity": 88,
      "chip": "ym2612"
    },
    {
      "channel": 5,
      "note": 33,
      "start": 88.8856,
      "duration": 0.2109,
      "velocity": 113,
      "chip": "ym2612"
    },
    {
      "channel": 2,
      "note": 41,
      "start": 88.9334,
      "duration": 0.1131,
      "velocity": 93,
      "chip": "ym2612"
    },
    {
      "channel": 0,
      "note": 55,
      "start": 89.0157,
      "duration": 0.1305,
      "velocity": 88,
      "chip": "ym2612"
    },
    {
      "channel": 2,
      "note": 43,
      "start": 89.0668,
      "duration": 0.1464,
      "velocity": 93,
      "chip": "ym2612"
    },
    {
      "channel": 1,
      "note": 65,
      "start": 89.1661,
      "duration": 0.2302,
      "velocity": 98,
      "chip": "ym2612"
    },
    {
      "channel": 3,
      "note": 53,
      "start": 89.1685,
      "duration": 0.2279,
      "velocity": 98,
      "chip": "ym2612"
    },
    {
      "channel": 4,
      "note": 70,
      "start": 89.1716,
      "duration": 0.2581,
      "velocity": 127,
      "chip": "ym2612"
    },
    {
      "channel": 0,
      "note": 55,
      "start": 89.3162,
      "duration": 0.0633,
      "velocity": 88,
      "chip": "ym2612"
    },
    {
      "channel": 2,
      "note": 43,
      "start": 89.3505,
      "duration": 0.0794,
      "velocity": 93,
      "chip": "ym2612"
    },
    {
      "channel": 0,
      "note": 53,
      "start": 89.4491,
      "duration": 0.0971,
      "velocity": 88,
      "chip": "ym2612"
    },
    {
      "channel": 1,
      "note": 48,
      "start": 89.4521,
      "duration": 0.0943,
      "velocity": 98,
      "chip": "ym2612"
    },
    {
      "channel": 3,
      "note": 60,
      "start": 89.4547,
      "duration": 0.0749,
      "velocity": 98,
      "chip": "ym2612"
    },
    {
      "channel": 4,
      "note": 70,
      "start": 89.4578,
      "duration": 0.1053,
      "velocity": 127,
      "chip": "ym2612"
    },
    {
      "channel": 2,
      "note": 41,
      "start": 89.4999,
      "duration": 0.1132,
      "velocity": 93,
      "chip": "ym2612"
    },
    {
      "channel": 0,
      "note": 55,
      "start": 89.5989,
      "duration": 0.0973,
      "velocity": 88,
      "chip": "ym2612"
    },
    {
      "channel": 1,
      "note": 62,
      "start": 89.6017,
      "duration": 0.1613,
      "velocity": 98,
      "chip": "ym2612"
    },
    {
      "channel": 3,
      "note": 50,
      "start": 89.6043,
      "duration": 0.1588,
      "velocity": 98,
      "chip": "ym2612"
    },
    {
      "channel": 2,
      "note": 43,
      "start": 89.6499,
      "duration": 0.0799,
      "velocity": 93,
      "chip": "ym2612"
    },
    {
      "channel": 0,
      "note": 50,
      "start": 89.7324,
      "duration": 0.0971,
      "velocity": 88,
      "chip": "ym2612"
    },
    {
      "channel": 5,
      "note": 33,
      "start": 89.7359,
      "duration": 0.0772,
      "velocity": 113,
      "chip": "ym2612"
    },
    {
      "channel": 2,
      "note": 38,
      "start": 89.7835,
      "duration": 0.1297,
      "velocity": 93,
      "chip": "ym2612"
    },
    {
      "channel": 0,
      "note": 50,
      "start": 90.0325,
      "duration": 0.0137,
      "velocity": 88,
      "chip": "ym2612"
    },
    {
      "channel": 5,
      "note": 33,
      "start": 90.0356,
      "duration": 0.1774,
      "velocity": 113,
      "chip": "ym2612"
    },
    {
      "channel": 2,
      "note": 38,
      "start": 90.0834,
      "duration": 0.0297,
      "velocity": 93,
      "chip": "ym2612"
    },
    {
      "channel": 0,
      "note": 50,
      "start": 90.1658,
      "duration": 0.0971,
      "velocity": 88,
      "chip": "ym2612"
    },
    {
      "channel": 2,
      "note": 38,
      "start": 90.2166,
      "duration": 0.1132,
      "velocity": 93,
      "chip": "ym2612"
    },
    {
      "channel": 0,
      "note": 62,
      "start": 90.3158,
      "duration": 0.147,
      "velocity": 88,
      "chip": "ym2612"
    },
    {
      "channel": 4,
      "note": 70,
      "start": 90.319,
      "duration": 0.494,
      "velocity": 127,
      "chip": "ym2612"
    },
    {
      "channel": 2,
      "note": 50,
      "start": 90.3671,
      "duration": 0.1626,
      "velocity": 93,
      "chip": "ym2612"
    },
    {
      "channel": 0,
      "note": 50,
      "start": 90.5994,
      "duration": 0.1135,
      "velocity": 88,
      "chip": "ym2612"
    },
    {
      "channel": 2,
      "note": 38,
      "start": 90.6499,
      "duration": 0.1132,
      "velocity": 93,
      "chip": "ym2612"
    },
    {
      "channel": 0,
      "note": 57,
      "start": 90.8991,
      "duration": 0.3305,
      "velocity": 88,
      "chip": "ym2612"
    },
    {
      "channel": 5,
      "note": 33,
      "start": 90.9021,
      "duration": 0.1776,
      "velocity": 113,
      "chip": "ym2612"
    },
    {
      "channel": 2,
      "note": 45,
      "start": 90.9334,
      "duration": 0.3631,
      "velocity": 93,
      "chip": "ym2612"
    },
    {
      "channel": 0,
      "note": 56,
      "start": 91.3159,
      "duration": 0.1637,
      "velocity": 88,
      "chip": "ym2612"
    },
    {
      "channel": 2,
      "note": 44,
      "start": 91.3667,
      "duration": 0.1632,
      "velocity": 93,
      "chip": "ym2612"
    },
    {
      "channel": 5,
      "note": 33,
      "start": 91.4663,
      "duration": 0.2635,
      "velocity": 113,
      "chip": "ym2612"
    },
    {
      "channel": 4,
      "note": 70,
      "start": 91.4692,
      "duration": 0.2273,
      "velocity": 127,
      "chip": "ym2612"
    },
    {
      "channel": 0,
      "note": 55,
      "start": 91.6159,
      "duration": 0.0804,
      "velocity": 88,
      "chip": "ym2612"
    },
    {
      "channel": 2,
      "note": 43,
      "start": 91.6667,
      "duration": 0.1132,
      "velocity": 93,
      "chip": "ym2612"
    },
    {
      "channel": 0,
      "note": 53,
      "start": 91.7493,
      "duration": 0.1637,
      "velocity": 88,
      "chip": "ym2612"
    },
    {
      "channel": 2,
      "note": 41,
      "start": 91.8001,
      "duration": 0.1964,
      "velocity": 93,
      "chip": "ym2612"
    },
    {
      "channel": 0,
      "note": 50,
      "start": 92.0502,
      "duration": 0.0627,
      "velocity": 88,
      "chip": "ym2612"
    },
    {
      "channel": 5,
      "note": 33,
      "start": 92.0543,
      "duration": 0.1921,
      "velocity": 113,
      "chip": "ym2612"
    },
    {
      "channel": 2,
      "note": 38,
      "start": 92.0847,
      "duration": 0.0784,
      "velocity": 93,
      "chip": "ym2612"
    },
    {
      "channel": 0,
      "note": 50,
      "start": 92.3325,
      "duration": 0.0471,
      "velocity": 88,
      "chip": "ym2612"
    },
    {
      "channel": 1,
      "note": 62,
      "start": 92.3357,
      "duration": 0.044,
      "velocity": 123,
      "chip": "ym2612"
    },
    {
      "channel": 3,
      "note": 57,
      "start": 92.339,
      "duration": 0.0073,
      "velocity": 123,
      "chip": "ym2612"
    },
    {
      "channel": 2,
      "note": 38,
      "start": 92.3835,
      "duration": 0.0629,
      "velocity": 93,
      "chip": "ym2612"
    },
    {
      "channel": 0,
      "note": 50,
      "start": 92.4657,
      "duration": 0.1306,
      "velocity": 88,
      "chip": "ym2612"
    },
    {
      "channel": 1,
      "note": 60,
      "start": 92.4685,
      "duration": 0.0445,
      "velocity": 123,
      "chip": "ym2612"
    },
    {
      "channel": 2,
      "note": 38,
      "start": 92.5168,
      "duration": 0.1131,
      "velocity": 93,
      "chip": "ym2612"
    },
    {
      "channel": 0,
      "note": 62,
      "start": 92.6159,
      "duration": 0.2137,
      "velocity": 88,
      "chip": "ym2612"
    },
    {
      "channel": 1,
      "note": 57,
      "start": 92.6188,
      "duration": 0.0608,
      "velocity": 123,
      "chip": "ym2612"
    },
    {
      "channel": 3,
      "note": 62,
      "start": 92.6216,
      "duration": 0.0415,
      "velocity": 123,
      "chip": "ym2612"
    },
    {
      "channel": 4,
      "note": 70,
      "start": 92.6245,
      "duration": 0.4386,
      "velocity": 127,
      "chip": "ym2612"
    },
    {
      "channel": 2,
      "note": 50,
      "start": 92.6669,
      "duration": 0.213,
      "velocity": 93,
      "chip": "ym2612"
    },
    {
      "channel": 1,
      "note": 62,
      "start": 92.7662,
      "duration": 0.0635,
      "velocity": 123,
      "chip": "ym2612"
    },
    {
      "channel": 3,
      "note": 57,
      "start": 92.7688,
      "duration": 0.061,
      "velocity": 123,
      "chip": "ym2612"
    },
    {
      "channel": 0,
      "note": 50,
      "start": 92.8992,
      "duration": 0.047,
      "velocity": 88,
      "chip": "ym2612"
    },
    {
      "channel": 1,
      "note": 60,
      "start": 92.9024,
      "duration": 0.0272,
      "velocity": 123,
      "chip": "ym2612"
    },
    {
      "channel": 2,
      "note": 38,
      "start": 92.9501,
      "duration": 0.0796,
      "velocity": 93,
      "chip": "ym2612"
    },
    {
      "channel": 0,
      "note": 50,
      "start": 93.0494,
      "duration": 0.0969,
      "velocity": 88,
      "chip": "ym2612"
    },
    {
      "channel": 1,
      "note": 60,
      "start": 93.0522,
      "duration": 0.0107,
      "velocity": 123,
      "chip": "ym2612"
    },
    {
      "channel": 3,
      "note": 55,
      "start": 93.0548,
      "duration": 0.0082,
      "velocity": 123,
      "chip": "ym2612"
    },
    {
      "channel": 2,
      "note": 38,
      "start": 93.1003,
      "duration": 0.0961,
      "velocity": 93,
      "chip": "ym2612"
    },
    {
      "channel": 0,
      "note": 53,
      "start": 93.1993,
      "duration": 0.1137,
      "velocity": 88,
      "chip": "ym2612"
    },
    {
      "channel": 1,
      "note": 60,
      "start": 93.2022,
      "duration": 0.0608,
      "velocity": 123,
      "chip": "ym2612"
    },
    {
      "channel": 3,
      "note": 65,
      "start": 93.2049,
      "duration": 0.0748,
      "velocity": 123,
      "chip": "ym2612"
    },
    {
      "channel": 5,
      "note": 33,
      "start": 93.2078,
      "duration": 0.0721,
      "velocity": 113,
      "chip": "ym2612"
    },
    {
      "channel": 2,
      "note": 41,
      "start": 93.2334,
      "duration": 0.1463,
      "velocity": 93,
      "chip": "ym2612"
    },
    {
      "channel": 0,
      "note": 53,
      "start": 93.4824,
      "duration": 0.1138,
      "velocity": 88,
      "chip": "ym2612"
    },
    {
      "channel": 1,
      "note": 55,
      "start": 93.4853,
      "duration": 0.011,
      "velocity": 123,
      "chip": "ym2612"
    },
    {
      "channel": 5,
      "note": 33,
      "start": 93.4882,
      "duration": 0.2084,
      "velocity": 113,
      "chip": "ym2612"
    },
    {
      "channel": 2,
      "note": 41,
      "start": 93.5335,
      "duration": 0.113,
      "velocity": 93,
      "chip": "ym2612"
    },
    {
      "channel": 0,
      "note": 55,
      "start": 93.6158,
      "duration": 0.1305,
      "velocity": 88,
      "chip": "ym2612"
    },
    {
      "channel": 1,
      "note": 62,
      "start": 93.6191,
      "duration": 0.0772,
      "velocity": 123,
      "chip": "ym2612"
    },
    {
      "channel": 3,
      "note": 57,
      "start": 93.6217,
      "duration": 0.0748,
      "velocity": 123,
      "chip": "ym2612"
    },
    {
      "channel": 2,
      "note": 43,
      "start": 93.6666,
      "duration": 0.1299,
      "velocity": 93,
      "chip": "ym2612"
    },
    {
      "channel": 4,
      "note": 70,
      "start": 93.7662,
      "duration": 0.447,
      "velocity": 127,
      "chip": "ym2612"
    },
    {
      "channel": 0,
      "note": 55,
      "start": 93.9158,
      "duration": 0.0805,
      "velocity": 88,
      "chip": "ym2612"
    },
    {
      "channel": 1,
      "note": 57,
      "start": 93.9186,
      "duration": 0.0611,
      "velocity": 123,
      "chip": "ym2612"
    },
    {
      "channel": 3,
      "note": 62,
      "start": 93.9213,
      "duration": 0.0417,
      "velocity": 123,
      "chip": "ym2612"
    },
    {
      "channel": 2,
      "note": 43,
      "start": 93.9669,
      "duration": 0.0796,
      "velocity": 93,
      "chip": "ym2612"
    },
    {
      "channel": 0,
      "note": 53,
      "start": 94.0492,
      "duration": 0.1303,
      "velocity": 88,
      "chip": "ym2612"
    },
    {
      "channel": 1,
      "note": 60,
      "start": 94.052,
      "duration": 0.0276,
      "velocity": 123,
      "chip": "ym2612"
    },
    {
      "channel": 2,
      "note": 41,
      "start": 94.1,
      "duration": 0.1134,
      "velocity": 93,
      "chip": "ym2612"
    },
    {
      "channel": 0,
      "note": 55,
      "start": 94.1991,
      "duration": 0.0639,
      "velocity": 88,
      "chip": "ym2612"
    },
    {
      "channel": 1,
      "note": 60,
      "start": 94.2019,
      "duration": 0.0111,
      "velocity": 123,
      "chip": "ym2612"
    },
    {
      "channel": 3,
      "note": 55,
      "start": 94.2045,
      "duration": 0.0087,
      "velocity": 123,
      "chip": "ym2612"
    },
    {
      "channel": 2,
      "note": 43,
      "start": 94.25,
      "duration": 0.0966,
      "velocity": 93,
      "chip": "ym2612"
    },
    {
      "channel": 0,
      "note": 50,
      "start": 94.3497,
      "duration": 0.0798,
      "velocity": 88,
      "chip": "ym2612"
    },
    {
      "channel": 1,
      "note": 65,
      "start": 94.353,
      "duration": 0.0767,
      "velocity": 123,
      "chip": "ym2612"
    },
    {
      "channel": 3,
      "note": 60,
      "start": 94.3557,
      "duration": 0.0572,
      "velocity": 123,
      "chip": "ym2612"
    },
    {
      "channel": 5,
      "note": 33,
      "start": 94.3586,
      "duration": 0.4045,
      "velocity": 113,
      "chip": "ym2612"
    },
    {
      "channel": 2,
      "note": 38,
      "start": 94.3837,
      "duration": 0.1294,
      "velocity": 93,
      "chip": "ym2612"
    },
    {
      "channel": 1,
      "note": 60,
      "start": 94.4829,
      "duration": 0.03,
      "velocity": 123,
      "chip": "ym2612"
    },
    {
      "channel": 0,
      "note": 50,
      "start": 94.6325,
      "duration": 0.047,
      "velocity": 88,
      "chip": "ym2612"
    },
    {
      "channel": 1,
      "note": 62,
      "start": 94.6354,
      "duration": 0.0609,
      "velocity": 123,
      "chip": "ym2612"
    },
    {
      "channel": 3,
      "note": 57,
      "start": 94.638,
      "duration": 0.0585,
      "velocity": 123,
      "chip": "ym2612"
    },
    {
      "channel": 2,
      "note": 38,
      "start": 94.6834,
      "duration": 0.063,
      "velocity": 93,
      "chip": "ym2612"
    },
    {
      "channel": 0,
      "note": 50,
      "start": 94.7658,
      "duration": 0.1304,
      "velocity": 88,
      "chip": "ym2612"
    },
    {
      "channel": 1,
      "note": 60,
      "start": 94.7686,
      "duration": 0.0277,
      "velocity": 123,
      "chip": "ym2612"
    },
    {
      "channel": 2,
      "note": 38,
      "start": 94.8166,
      "duration": 0.13,
      "velocity": 93,
      "chip": "ym2612"
    },
    {
      "channel": 0,
      "note": 62,
      "start": 94.9159,
      "duration": 0.1637,
      "velocity": 88,
      "chip": "ym2612"
    },
    {
      "channel": 1,
      "note": 57,
      "start": 94.9188,
      "duration": 0.0941,
      "velocity": 123,
      "chip": "ym2612"
    },
    {
      "channel": 3,
      "note": 62,
      "start": 94.9219,
      "duration": 0.0412,
      "velocity": 123,
      "chip": "ym2612"
    },
    {
      "channel": 4,
      "note": 70,
      "start": 94.9245,
      "duration": 0.4385,
      "velocity": 127,
      "chip": "ym2612"
    },
    {
      "channel": 2,
      "note": 50,
      "start": 94.9669,
      "duration": 0.1629,
      "velocity": 93,
      "chip": "ym2612"
    },
    {
      "channel": 1,
      "note": 60,
      "start": 95.0661,
      "duration": 0.0136,
      "velocity": 123,
      "chip": "ym2612"
    },
    {
      "channel": 0,
      "note": 50,
      "start": 95.1992,
      "duration": 0.0471,
      "velocity": 88,
      "chip": "ym2612"
    },
    {
      "channel": 1,
      "note": 55,
      "start": 95.2019,
      "duration": 0.0276,
      "velocity": 123,
      "chip": "ym2612"
    },
    {
      "channel": 3,
      "note": 60,
      "start": 95.2045,
      "duration": 0.0251,
      "velocity": 123,
      "chip": "ym2612"
    },
    {
      "channel": 2,
      "note": 38,
      "start": 95.2502,
      "duration": 0.0462,
      "velocity": 93,
      "chip": "ym2612"
    },
    {
      "channel": 0,
      "note": 50,
      "start": 95.3491,
      "duration": 0.0971,
      "velocity": 88,
      "chip": "ym2612"
    },
    {
      "channel": 1,
      "note": 65,
      "start": 95.352,
      "duration": 0.0944,
      "velocity": 123,
      "chip": "ym2612"
    },
    {
      "channel": 3,
      "note": 60,
      "start": 95.3548,
      "duration": 0.0582,
      "velocity": 123,
      "chip": "ym2612"
    },
    {
      "channel": 2,
      "note": 38,
      "start": 95.3999,
      "duration": 0.1132,
      "velocity": 93,
      "chip": "ym2612"
    },
    {
      "channel": 0,
      "note": 53,
      "start": 95.4996,
      "duration": 0.1132,
      "velocity": 88,
      "chip": "ym2612"
    },
    {
      "channel": 5,
      "note": 33,
      "start": 95.5031,
      "duration": 0.1101,
      "velocity": 113,
      "chip": "ym2612"
    },
    {
      "channel": 2,
      "note": 41,
      "start": 95.5503,
      "duration": 0.1129,
      "velocity": 93,
      "chip": "ym2612"
    },
    {
      "channel": 1,
      "note": 57,
      "start": 95.6334,
      "duration": 0.0962,
      "velocity": 123,
      "chip": "ym2612"
    },
    {
      "channel": 3,
      "note": 62,
      "start": 95.6361,
      "duration": 0.0768,
      "velocity": 123,
      "chip": "ym2612"
    },
    {
      "channel": 0,
      "note": 53,
      "start": 95.7823,
      "duration": 0.1139,
      "velocity": 88,
      "chip": "ym2612"
    },
    {
      "channel": 5,
      "note": 33,
      "start": 95.7854,
      "duration": 0.1777,
      "velocity": 113,
      "chip": "ym2612"
    },
    {
      "channel": 2,
      "note": 41,
      "start": 95.8332,
      "duration": 0.1133,
      "velocity": 93,
      "chip": "ym2612"
    },
    {
      "channel": 0,
      "note": 55,
      "start": 95.9326,
      "duration": 0.3303,
      "velocity": 88,
      "chip": "ym2612"
    },
    {
      "channel": 2,
      "note": 43,
      "start": 95.9669,
      "duration": 0.3463,
      "velocity": 93,
      "chip": "ym2612"
    },
    {
      "channel": 4,
      "note": 70,
      "start": 96.0664,
      "duration": 0.2632,
      "velocity": 127,
      "chip": "ym2612"
    },
    {
      "channel": 0,
      "note": 53,
      "start": 96.3492,
      "duration": 0.147,
      "velocity": 88,
      "chip": "ym2612"
    },
    {
      "channel": 4,
      "note": 70,
      "start": 96.3524,
      "duration": 0.1273,
      "velocity": 127,
      "chip": "ym2612"
    },
    {
      "channel": 2,
      "note": 41,
      "start": 96.4001,
      "duration": 0.163,
      "velocity": 93,
      "chip": "ym2612"
    },
    {
      "channel": 0,
      "note": 50,
      "start": 96.649,
      "duration": 0.1306,
      "velocity": 88,
      "chip": "ym2612"
    },
    {
      "channel": 5,
      "note": 33,
      "start": 96.652,
      "duration": 0.211,
      "velocity": 113,
      "chip": "ym2612"
    },
    {
      "channel": 2,
      "note": 38,
      "start": 96.6997,
      "duration": 0.1635,
      "velocity": 93,
      "chip": "ym2612"
    },
    {
      "channel": 1,
      "note": 60,
      "start": 96.7831,
      "duration": 0.0466,
      "velocity": 123,
      "chip": "ym2612"
    },
    {
      "channel": 3,
      "note": 55,
      "start": 96.7858,
      "duration": 0.0272,
      "velocity": 123,
      "chip": "ym2612"
    },
    {
      "channel": 0,
      "note": 50,
      "start": 96.9326,
      "duration": 0.0637,
      "velocity": 88,
      "chip": "ym2612"
    },
    {
      "channel": 1,
      "note": 57,
      "start": 96.9356,
      "duration": 0.0608,
      "velocity": 123,
      "chip": "ym2612"
    },
    {
      "channel": 3,
      "note": 55,
      "start": 96.9381,
      "duration": 0.0083,
      "velocity": 123,
      "chip": "ym2612"
    },
    {
      "channel": 4,
      "note": 62,
      "start": 96.9414,
      "duration": 0.0551,
      "velocity": 123,
      "chip": "ym2612"
    },
    {
      "channel": 2,
      "note": 38,
      "start": 96.9834,
      "duration": 0.0964,
      "velocity": 93,
      "chip": "ym2612"
    },
    {
      "channel": 0,
      "note": 50,
      "start": 97.0829,
      "duration": 0.08,
      "velocity": 88,
      "chip": "ym2612"
    },
    {
      "channel": 1,
      "note": 57,
      "start": 97.0857,
      "duration": 0.0773,
      "velocity": 123,
      "chip": "ym2612"
    },
    {
      "channel": 2,
      "note": 38,
      "start": 97.1165,
      "duration": 0.13,
      "velocity": 93,
      "chip": "ym2612"
    },
    {
      "channel": 0,
      "note": 62,
      "start": 97.2159,
      "duration": 0.197,
      "velocity": 88,
      "chip": "ym2612"
    },
    {
      "channel": 1,
      "note": 62,
      "start": 97.2189,
      "duration": 0.0439,
      "velocity": 123,
      "chip": "ym2612"
    },
    {
      "channel": 5,
      "note": 70,
      "start": 97.222,
      "duration": 0.4744,
      "velocity": 127,
      "chip": "ym2612"
    },
    {
      "channel": 2,
      "note": 50,
      "start": 97.2671,
      "duration": 0.1959,
      "velocity": 93,
      "chip": "ym2612"
    },
    {
      "channel": 0,
      "note": 50,
      "start": 97.4993,
      "duration": 0.0803,
      "velocity": 88,
      "chip": "ym2612"
    },
    {
      "channel": 1,
      "note": 55,
      "start": 97.5022,
      "duration": 0.0275,
      "velocity": 123,
      "chip": "ym2612"
    },
    {
      "channel": 3,
      "note": 60,
      "start": 97.5048,
      "duration": 0.025,
      "velocity": 123,
      "chip": "ym2612"
    },
    {
      "channel": 2,
      "note": 38,
      "start": 97.5501,
      "duration": 0.0963,
      "velocity": 93,
      "chip": "ym2612"
    },
    {
      "channel": 0,
      "note": 50,
      "start": 97.6491,
      "duration": 0.0971,
      "velocity": 88,
      "chip": "ym2612"
    },
    {
      "channel": 1,
      "note": 65,
      "start": 97.652,
      "duration": 0.0944,
      "velocity": 123,
      "chip": "ym2612"
    },
    {
      "channel": 3,
      "note": 60,
      "start": 97.6551,
      "duration": 0.0579,
      "velocity": 123,
      "chip": "ym2612"
    },
    {
      "channel": 2,
      "note": 38,
      "start": 97.6998,
      "duration": 0.0966,
      "velocity": 93,
      "chip": "ym2612"
    },
    {
      "channel": 0,
      "note": 53,
      "start": 97.7993,
      "duration": 0.1137,
      "velocity": 88,
      "chip": "ym2612"
    },
    {
      "channel": 1,
      "note": 60,
      "start": 97.802,
      "duration": 0.0443,
      "velocity": 123,
      "chip": "ym2612"
    },
    {
      "channel": 4,
      "note": 33,
      "start": 97.805,
      "duration": 0.0747,
      "velocity": 113,
      "chip": "ym2612"
    },
    {
      "channel": 2,
      "note": 41,
      "start": 97.8502,
      "duration": 0.1296,
      "velocity": 93,
      "chip": "ym2612"
    },
    {
      "channel": 1,
      "note": 57,
      "start": 97.933,
      "duration": 0.08,
      "velocity": 123,
      "chip": "ym2612"
    },
    {
      "channel": 3,
      "note": 62,
      "start": 97.9356,
      "duration": 0.0775,
      "velocity": 123,
      "chip": "ym2612"
    },
    {
      "channel": 0,
      "note": 53,
      "start": 98.0823,
      "duration": 0.1139,
      "velocity": 88,
      "chip": "ym2612"
    },
    {
      "channel": 1,
      "note": 60,
      "start": 98.0851,
      "duration": 0.0112,
      "velocity": 123,
      "chip": "ym2612"
    },
    {
      "channel": 4,
      "note": 33,
      "start": 98.0879,
      "duration": 0.1085,
      "velocity": 113,
      "chip": "ym2612"
    },
    {
      "channel": 2,
      "note": 41,
      "start": 98.1334,
      "duration": 0.1131,
      "velocity": 93,
      "chip": "ym2612"
    },
    {
      "channel": 0,
      "note": 55,
      "start": 98.2323,
      "duration": 0.1139,
      "velocity": 88,
      "chip": "ym2612"
    },
    {
      "channel": 1,
      "note": 60,
      "start": 98.2353,
      "duration": 0.0276,
      "velocity": 123,
      "chip": "ym2612"
    },
    {
      "channel": 3,
      "note": 57,
      "start": 98.2384,
      "duration": 0.0579,
      "velocity": 123,
      "chip": "ym2612"
    },
    {
      "channel": 2,
      "note": 43,
      "start": 98.2668,
      "duration": 0.1463,
      "velocity": 93,
      "chip": "ym2612"
    },
    {
      "channel": 1,
      "note": 60,
      "start": 98.3661,
      "duration": 0.0302,
      "velocity": 123,
      "chip": "ym2612"
    },
    {
      "channel": 5,
      "note": 70,
      "start": 98.3693,
      "duration": 0.4271,
      "velocity": 127,
      "chip": "ym2612"
    },
    {
      "channel": 0,
      "note": 55,
      "start": 98.5163,
      "duration": 0.0632,
      "velocity": 88,
      "chip": "ym2612"
    },
    {
      "channel": 1,
      "note": 60,
      "start": 98.5191,
      "duration": 0.0438,
      "velocity": 123,
      "chip": "ym2612"
    },
    {
      "channel": 2,
      "note": 43,
      "start": 98.5671,
      "duration": 0.0627,
      "velocity": 93,
      "chip": "ym2612"
    },
    {
      "channel": 0,
      "note": 53,
      "start": 98.6491,
      "duration": 0.0971,
      "velocity": 88,
      "chip": "ym2612"
    },
    {
      "channel": 1,
      "note": 60,
      "start": 98.652,
      "duration": 0.0776,
      "velocity": 123,
      "chip": "ym2612"
    },
    {
      "channel": 3,
      "note": 57,
      "start": 98.6547,
      "duration": 0.0416,
      "velocity": 123,
      "chip": "ym2612"
    },
    {
      "channel": 2,
      "note": 41,
      "start": 98.7,
      "duration": 0.1298,
      "velocity": 93,
      "chip": "ym2612"
    },
    {
      "channel": 0,
      "note": 55,
      "start": 98.799,
      "duration": 0.0972,
      "velocity": 88,
      "chip": "ym2612"
    },
    {
      "channel": 1,
      "note": 57,
      "start": 98.8019,
      "duration": 0.0944,
      "velocity": 123,
      "chip": "ym2612"
    },
    {
      "channel": 3,
      "note": 62,
      "start": 98.805,
      "duration": 0.058,
      "velocity": 123,
      "chip": "ym2612"
    },
    {
      "channel": 2,
      "note": 43,
      "start": 98.85,
      "duration": 0.0965,
      "velocity": 93,
      "chip": "ym2612"
    },
    {
      "channel": 0,
      "note": 50,
      "start": 98.9491,
      "duration": 0.0804,
      "velocity": 88,
      "chip": "ym2612"
    },
    {
      "channel": 4,
      "note": 33,
      "start": 98.9522,
      "duration": 0.2942,
      "velocity": 113,
      "chip": "ym2612"
    },
    {
      "channel": 2,
      "note": 38,
      "start": 99.0,
      "duration": 0.113,
      "velocity": 93,
      "chip": "ym2612"
    },
    {
      "channel": 0,
      "note": 50,
      "start": 99.2325,
      "duration": 0.0137,
      "velocity": 88,
      "chip": "ym2612"
    },
    {
      "channel": 2,
      "note": 38,
      "start": 99.2835,
      "duration": 0.0463,
      "velocity": 93,
      "chip": "ym2612"
    },
    {
      "channel": 0,
      "note": 50,
      "start": 99.3823,
      "duration": 0.0805,
      "velocity": 88,
      "chip": "ym2612"
    },
    {
      "channel": 2,
      "note": 38,
      "start": 99.4333,
      "duration": 0.1132,
      "velocity": 93,
      "chip": "ym2612"
    },
    {
      "channel": 0,
      "note": 62,
      "start": 99.5158,
      "duration": 0.1471,
      "velocity": 88,
      "chip": "ym2612"
    },
    {
      "channel": 5,
      "note": 70,
      "start": 99.5187,
      "duration": 0.4277,
      "velocity": 127,
      "chip": "ym2612"
    },
    {
      "channel": 2,
      "note": 50,
      "start": 99.5671,
      "duration": 0.1626,
      "velocity": 93,
      "chip": "ym2612"
    },
    {
      "channel": 0,
      "note": 50,
      "start": 99.8161,
      "duration": 0.1135,
      "velocity": 88,
      "chip": "ym2612"
    },
    {
      "channel": 2,
      "note": 38,
      "start": 99.8498,
      "duration": 0.13,
      "velocity": 93,
      "chip": "ym2612"
    },
    {
      "channel": 0,
      "note": 57,
      "start": 100.0992,
      "duration": 0.3304,
      "velocity": 88,
      "chip": "ym2612"
    },
    {
      "channel": 1,
      "note": 44,
      "start": 100.1021,
      "duration": 0.1608,
      "velocity": 123,
      "chip": "ym2612"
    },
    {
      "channel": 3,
      "note": 56,
      "start": 100.1049,
      "duration": 0.0915,
      "velocity": 123,
      "chip": "ym2612"
    },
    {
      "channel": 4,
      "note": 33,
      "start": 100.108,
      "duration": 0.205,
      "velocity": 113,
      "chip": "ym2612"
    },
    {
      "channel": 2,
      "note": 45,
      "start": 100.15,
      "duration": 0.3464,
      "velocity": 93,
      "chip": "ym2612"
    },
    {
      "channel": 3,
      "note": 43,
      "start": 100.233,
      "duration": 0.1468,
      "velocity": 123,
      "chip": "ym2612"
    },
    {
      "channel": 5,
      "note": 55,
      "start": 100.2358,
      "duration": 0.0773,
      "velocity": 123,
      "chip": "ym2612"
    },
    {
      "channel": 1,
      "note": 41,
      "start": 100.3834,
      "duration": 0.0961,
      "velocity": 123,
      "chip": "ym2612"
    },
    {
      "channel": 3,
      "note": 53,
      "start": 100.3861,
      "duration": 0.0602,
      "velocity": 123,
      "chip": "ym2612"
    },
    {
      "channel": 0,
      "note": 56,
      "start": 100.5324,
      "duration": 0.1638,
      "velocity": 88,
      "chip": "ym2612"
    },
    {
      "channel": 1,
      "note": 55,
      "start": 100.5353,
      "duration": 0.061,
      "velocity": 123,
      "chip": "ym2612"
    },
    {
      "channel": 3,
      "note": 43,
      "start": 100.5379,
      "duration": 0.0585,
      "velocity": 123,
      "chip": "ym2612"
    },
    {
      "channel": 2,
      "note": 44,
      "start": 100.5834,
      "duration": 0.1632,
      "velocity": 93,
      "chip": "ym2612"
    },
    {
      "channel": 1,
      "note": 53,
      "start": 100.6662,
      "duration": 0.0801,
      "velocity": 123,
      "chip": "ym2612"
    },
    {
      "channel": 3,
      "note": 41,
      "start": 100.6687,
      "duration": 0.0778,
      "velocity": 123,
      "chip": "ym2612"
    },
    {
      "channel": 4,
      "note": 33,
      "start": 100.6714,
      "duration": 0.2418,
      "velocity": 113,
      "chip": "ym2612"
    },
    {
      "channel": 5,
      "note": 70,
      "start": 100.6743,
      "duration": 0.2391,
      "velocity": 127,
      "chip": "ym2612"
    },
    {
      "channel": 0,
      "note": 55,
      "start": 100.8159,
      "duration": 0.0971,
      "velocity": 88,
      "chip": "ym2612"
    },
    {
      "channel": 1,
      "note": 38,
      "start": 100.8188,
      "duration": 0.0943,
      "velocity": 123,
      "chip": "ym2612"
    },
    {
      "channel": 3,
      "note": 50,
      "start": 100.8219,
      "duration": 0.0577,
      "velocity": 123,
      "chip": "ym2612"
    },
    {
      "channel": 2,
      "note": 43,
      "start": 100.8667,
      "duration": 0.113,
      "velocity": 93,
      "chip": "ym2612"
    },
    {
      "channel": 0,
      "note": 53,
      "start": 100.9659,
      "duration": 0.1637,
      "velocity": 88,
      "chip": "ym2612"
    },
    {
      "channel": 5,
      "note": 70,
      "start": 100.969,
      "duration": 0.1274,
      "velocity": 127,
      "chip": "ym2612"
    },
    {
      "channel": 2,
      "note": 41,
      "start": 101.0001,
      "duration": 0.1965,
      "velocity": 93,
      "chip": "ym2612"
    },
    {
      "channel": 1,
      "note": 50,
      "start": 101.0997,
      "duration": 0.0966,
      "velocity": 123,
      "chip": "ym2612"
    },
    {
      "channel": 3,
      "note": 38,
      "start": 101.1024,
      "duration": 0.1427,
      "velocity": 123,
      "chip": "ym2612"
    }
  ]
}