{
  "track_name": "04 - 52Line",
  "duration_sec": 68.949,
  "sample_rate": 44100,
  "note_count": 3080,
  "unique_pitches": 36,
  "pitch_range": 77,
  "avg_note_duration": 0.084,
  "reconstruction_stats": {
    "notes_reconstructed": 3080,
    "keyon_events": 3080,
    "keyoff_events": 3075,
    "orphan_keyons": 4,
    "unique_pitches": 36,
    "pitch_range": 77,
    "avg_duration_sec": 0.084
  },
  "metadata": {
    "source": "V\\Viper-V8\\04 - 52Line.vgz"
  },
  "notes": [
    {
      "channel": 0,
      "note": 32,
      "start": 0.0018,
      "duration": 0.1125,
      "velocity": 107,
      "chip": "ym2612"
    },
    {
      "channel": 1,
      "note": 48,
      "start": 0.0038,
      "duration": 0.173,
      "velocity": 91,
      "chip": "ym2612"
    },
    {
      "channel": 3,
      "note": 60,
      "start": 0.0056,
      "duration": 0.2166,
      "velocity": 100,
      "chip": "ym2612"
    },
    {
      "channel": 5,
      "note": 75,
      "start": 0.0089,
      "duration": 0.1072,
      "velocity": 91,
      "chip": "ym2612"
    },
    {
      "channel": 0,
      "note": 75,
      "start": 0.116,
      "duration": 0.1054,
      "velocity": 127,
      "chip": "ym2612"
    },
    {
      "channel": 0,
      "note": 75,
      "start": 0.2217,
      "duration": 0.1069,
      "velocity": 127,
      "chip": "ym2612"
    },
    {
      "channel": 1,
      "note": 49,
      "start": 0.222,
      "duration": 0.1693,
      "velocity": 91,
      "chip": "ym2612"
    },
    {
      "channel": 3,
      "note": 60,
      "start": 0.2222,
      "duration": 1.0818,
      "velocity": 100,
      "chip": "ym2612"
    },
    {
      "channel": 0,
      "note": 32,
      "start": 0.3303,
      "duration": 0.1054,
      "velocity": 107,
      "chip": "ym2612"
    },
    {
      "channel": 5,
      "note": 75,
      "start": 0.3307,
      "duration": 0.1072,
      "velocity": 91,
      "chip": "ym2612"
    },
    {
      "channel": 0,
      "note": 67,
      "start": 0.4374,
      "duration": 0.1056,
      "velocity": 112,
      "chip": "ym2612"
    },
    {
      "channel": 1,
      "note": 48,
      "start": 0.4377,
      "duration": 0.2839,
      "velocity": 91,
      "chip": "ym2612"
    },
    {
      "channel": 0,
      "note": 32,
      "start": 0.5448,
      "duration": 0.1053,
      "velocity": 107,
      "chip": "ym2612"
    },
    {
      "channel": 0,
      "note": 32,
      "start": 0.6518,
      "duration": 0.1143,
      "velocity": 107,
      "chip": "ym2612"
    },
    {
      "channel": 5,
      "note": 75,
      "start": 0.652,
      "duration": 0.1163,
      "velocity": 91,
      "chip": "ym2612"
    },
    {
      "channel": 0,
      "note": 67,
      "start": 0.7678,
      "duration": 0.1054,
      "velocity": 112,
      "chip": "ym2612"
    },
    {
      "channel": 1,
      "note": 51,
      "start": 0.7681,
      "duration": 0.275,
      "velocity": 91,
      "chip": "ym2612"
    },
    {
      "channel": 0,
      "note": 32,
      "start": 0.8749,
      "duration": 0.1054,
      "velocity": 127,
      "chip": "ym2612"
    },
    {
      "channel": 0,
      "note": 75,
      "start": 0.9821,
      "duration": 0.1054,
      "velocity": 127,
      "chip": "ym2612"
    },
    {
      "channel": 0,
      "note": 75,
      "start": 1.0892,
      "duration": 0.1054,
      "velocity": 127,
      "chip": "ym2612"
    },
    {
      "channel": 1,
      "note": 48,
      "start": 1.0894,
      "duration": 0.1677,
      "velocity": 91,
      "chip": "ym2612"
    },
    {
      "channel": 0,
      "note": 66,
      "start": 1.1963,
      "duration": 0.1054,
      "velocity": 127,
      "chip": "ym2612"
    },
    {
      "channel": 0,
      "note": 67,
      "start": 1.3037,
      "duration": 0.1052,
      "velocity": 112,
      "chip": "ym2612"
    },
    {
      "channel": 1,
      "note": 49,
      "start": 1.3039,
      "duration": 0.1674,
      "velocity": 91,
      "chip": "ym2612"
    },
    {
      "channel": 3,
      "note": 61,
      "start": 1.3042,
      "duration": 0.4281,
      "velocity": 100,
      "chip": "ym2612"
    },
    {
      "channel": 5,
      "note": 63,
      "start": 1.3045,
      "duration": 0.1062,
      "velocity": 91,
      "chip": "ym2612"
    },
    {
      "channel": 0,
      "note": 75,
      "start": 1.4106,
      "duration": 0.1054,
      "velocity": 127,
      "chip": "ym2612"
    },
    {
      "channel": 0,
      "note": 75,
      "start": 1.5163,
      "duration": 0.1069,
      "velocity": 127,
      "chip": "ym2612"
    },
    {
      "channel": 1,
      "note": 48,
      "start": 1.5165,
      "duration": 0.1692,
      "velocity": 91,
      "chip": "ym2612"
    },
    {
      "channel": 0,
      "note": 66,
      "start": 1.6249,
      "duration": 0.1054,
      "velocity": 127,
      "chip": "ym2612"
    },
    {
      "channel": 0,
      "note": 32,
      "start": 1.732,
      "duration": 0.1054,
      "velocity": 107,
      "chip": "ym2612"
    },
    {
      "channel": 1,
      "note": 48,
      "start": 1.7323,
      "duration": 0.1677,
      "velocity": 91,
      "chip": "ym2612"
    },
    {
      "channel": 3,
      "note": 60,
      "start": 1.7325,
      "duration": 1.2944,
      "velocity": 100,
      "chip": "ym2612"
    },
    {
      "channel": 5,
      "note": 75,
      "start": 1.733,
      "duration": 0.1062,
      "velocity": 91,
      "chip": "ym2612"
    },
    {
      "channel": 0,
      "note": 75,
      "start": 1.8391,
      "duration": 0.1054,
      "velocity": 127,
      "chip": "ym2612"
    },
    {
      "channel": 0,
      "note": 75,
      "start": 1.9448,
      "duration": 0.1069,
      "velocity": 127,
      "chip": "ym2612"
    },
    {
      "channel": 1,
      "note": 49,
      "start": 1.9451,
      "duration": 0.1693,
      "velocity": 91,
      "chip": "ym2612"
    },
    {
      "channel": 0,
      "note": 32,
      "start": 2.0537,
      "duration": 0.1052,
      "velocity": 107,
      "chip": "ym2612"
    },
    {
      "channel": 5,
      "note": 75,
      "start": 2.0541,
      "duration": 0.107,
      "velocity": 91,
      "chip": "ym2612"
    },
    {
      "channel": 0,
      "note": 67,
      "start": 2.1605,
      "duration": 0.1054,
      "velocity": 112,
      "chip": "ym2612"
    },
    {
      "channel": 1,
      "note": 48,
      "start": 2.1608,
      "duration": 0.2749,
      "velocity": 91,
      "chip": "ym2612"
    },
    {
      "channel": 0,
      "note": 32,
      "start": 2.2677,
      "duration": 0.1054,
      "velocity": 107,
      "chip": "ym2612"
    },
    {
      "channel": 0,
      "note": 32,
      "start": 2.3748,
      "duration": 0.1054,
      "velocity": 107,
      "chip": "ym2612"
    },
    {
      "channel": 5,
      "note": 75,
      "start": 2.3751,
      "duration": 0.1074,
      "velocity": 91,
      "chip": "ym2612"
    },
    {
      "channel": 0,
      "note": 67,
      "start": 2.482,
      "duration": 0.1054,
      "velocity": 112,
      "chip": "ym2612"
    },
    {
      "channel": 1,
      "note": 51,
      "start": 2.4822,
      "duration": 0.2748,
      "velocity": 91,
      "chip": "ym2612"
    },
    {
      "channel": 0,
      "note": 32,
      "start": 2.5891,
      "duration": 0.1054,
      "velocity": 127,
      "chip": "ym2612"
    },
    {
      "channel": 0,
      "note": 75,
      "start": 2.6962,
      "duration": 0.1054,
      "velocity": 127,
      "chip": "ym2612"
    },
    {
      "channel": 0,
      "note": 75,
      "start": 2.8036,
      "duration": 0.1052,
      "velocity": 127,
      "chip": "ym2612"
    },
    {
      "channel": 1,
      "note": 48,
      "start": 2.8039,
      "duration": 0.1764,
      "velocity": 91,
      "chip": "ym2612"
    },
    {
      "channel": 0,
      "note": 66,
      "start": 2.9105,
      "duration": 0.1144,
      "velocity": 127,
      "chip": "ym2612"
    },
    {
      "channel": 0,
      "note": 67,
      "start": 3.0266,
      "duration": 0.1054,
      "velocity": 112,
      "chip": "ym2612"
    },
    {
      "channel": 1,
      "note": 49,
      "start": 3.0268,
      "duration": 0.1677,
      "velocity": 91,
      "chip": "ym2612"
    },
    {
      "channel": 3,
      "note": 61,
      "start": 3.0271,
      "duration": 0.4284,
      "velocity": 100,
      "chip": "ym2612"
    },
    {
      "channel": 5,
      "note": 63,
      "start": 3.0273,
      "duration": 0.1067,
      "velocity": 91,
      "chip": "ym2612"
    },
    {
      "channel": 0,
      "note": 75,
      "start": 3.1339,
      "duration": 0.1052,
      "velocity": 127,
      "chip": "ym2612"
    },
    {
      "channel": 0,
      "note": 75,
      "start": 3.2394,
      "duration": 0.1069,
      "velocity": 127,
      "chip": "ym2612"
    },
    {
      "channel": 1,
      "note": 48,
      "start": 3.2396,
      "duration": 0.1692,
      "velocity": 91,
      "chip": "ym2612"
    },
    {
      "channel": 0,
      "note": 66,
      "start": 3.348,
      "duration": 0.1054,
      "velocity": 127,
      "chip": "ym2612"
    },
    {
      "channel": 0,
      "note": 32,
      "start": 3.4551,
      "duration": 0.1054,
      "velocity": 107,
      "chip": "ym2612"
    },
    {
      "channel": 1,
      "note": 48,
      "start": 3.4554,
      "duration": 0.1677,
      "velocity": 91,
      "chip": "ym2612"
    },
    {
      "channel": 3,
      "note": 60,
      "start": 3.4556,
      "duration": 1.2854,
      "velocity": 100,
      "chip": "ym2612"
    },
    {
      "channel": 5,
      "note": 75,
      "start": 3.4559,
      "duration": 0.1064,
      "velocity": 91,
      "chip": "ym2612"
    },
    {
      "channel": 0,
      "note": 75,
      "start": 3.5622,
      "duration": 0.1054,
      "velocity": 127,
      "chip": "ym2612"
    },
    {
      "channel": 0,
      "note": 75,
      "start": 3.6679,
      "duration": 0.1069,
      "velocity": 127,
      "chip": "ym2612"
    },
    {
      "channel": 1,
      "note": 49,
      "start": 3.6682,
      "duration": 0.1693,
      "velocity": 91,
      "chip": "ym2612"
    },
    {
      "channel": 0,
      "note": 32,
      "start": 3.7765,
      "duration": 0.1054,
      "velocity": 107,
      "chip": "ym2612"
    },
    {
      "channel": 5,
      "note": 75,
      "start": 3.777,
      "duration": 0.1075,
      "velocity": 91,
      "chip": "ym2612"
    },
    {
      "channel": 0,
      "note": 67,
      "start": 3.8839,
      "duration": 0.1052,
      "velocity": 112,
      "chip": "ym2612"
    },
    {
      "channel": 1,
      "note": 48,
      "start": 3.8841,
      "duration": 0.2747,
      "velocity": 91,
      "chip": "ym2612"
    },
    {
      "channel": 0,
      "note": 32,
      "start": 3.9908,
      "duration": 0.1054,
      "velocity": 107,
      "chip": "ym2612"
    },
    {
      "channel": 0,
      "note": 32,
      "start": 4.0979,
      "duration": 0.1054,
      "velocity": 107,
      "chip": "ym2612"
    },
    {
      "channel": 5,
      "note": 75,
      "start": 4.0982,
      "duration": 0.1074,
      "velocity": 91,
      "chip": "ym2612"
    },
    {
      "channel": 0,
      "note": 67,
      "start": 4.2051,
      "duration": 0.1054,
      "velocity": 112,
      "chip": "ym2612"
    },
    {
      "channel": 1,
      "note": 51,
      "start": 4.2053,
      "duration": 0.2748,
      "velocity": 91,
      "chip": "ym2612"
    },
    {
      "channel": 0,
      "note": 32,
      "start": 4.3122,
      "duration": 0.1054,
      "velocity": 127,
      "chip": "ym2612"
    },
    {
      "channel": 0,
      "note": 75,
      "start": 4.4193,
      "duration": 0.1054,
      "velocity": 127,
      "chip": "ym2612"
    },
    {
      "channel": 0,
      "note": 75,
      "start": 4.5265,
      "duration": 0.1054,
      "velocity": 127,
      "chip": "ym2612"
    },
    {
      "channel": 1,
      "note": 48,
      "start": 4.5267,
      "duration": 0.1677,
      "velocity": 91,
      "chip": "ym2612"
    },
    {
      "channel": 0,
      "note": 66,
      "start": 4.6339,
      "duration": 0.1051,
      "velocity": 127,
      "chip": "ym2612"
    },
    {
      "channel": 0,
      "note": 67,
      "start": 4.7407,
      "duration": 0.1054,
      "velocity": 112,
      "chip": "ym2612"
    },
    {
      "channel": 1,
      "note": 49,
      "start": 4.741,
      "duration": 0.1677,
      "velocity": 91,
      "chip": "ym2612"
    },
    {
      "channel": 3,
      "note": 61,
      "start": 4.7412,
      "duration": 0.4284,
      "velocity": 100,
      "chip": "ym2612"
    },
    {
      "channel": 5,
      "note": 63,
      "start": 4.7415,
      "duration": 0.1065,
      "velocity": 91,
      "chip": "ym2612"
    },
    {
      "channel": 0,
      "note": 75,
      "start": 4.8479,
      "duration": 0.1054,
      "velocity": 127,
      "chip": "ym2612"
    },
    {
      "channel": 0,
      "note": 75,
      "start": 4.9535,
      "duration": 0.1069,
      "velocity": 127,
      "chip": "ym2612"
    },
    {
      "channel": 1,
      "note": 48,
      "start": 4.9538,
      "duration": 0.1693,
      "velocity": 91,
      "chip": "ym2612"
    },
    {
      "channel": 0,
      "note": 66,
      "start": 5.0622,
      "duration": 0.1054,
      "velocity": 127,
      "chip": "ym2612"
    },
    {
      "channel": 0,
      "note": 32,
      "start": 5.1693,
      "duration": 0.1144,
      "velocity": 107,
      "chip": "ym2612"
    },
    {
      "channel": 1,
      "note": 48,
      "start": 5.1695,
      "duration": 0.1766,
      "velocity": 91,
      "chip": "ym2612"
    },
    {
      "channel": 3,
      "note": 60,
      "start": 5.1698,
      "duration": 1.2946,
      "velocity": 100,
      "chip": "ym2612"
    },
    {
      "channel": 5,
      "note": 75,
      "start": 5.1701,
      "duration": 0.1154,
      "velocity": 91,
      "chip": "ym2612"
    },
    {
      "channel": 0,
      "note": 75,
      "start": 5.2854,
      "duration": 0.1054,
      "velocity": 127,
      "chip": "ym2612"
    },
    {
      "channel": 0,
      "note": 75,
      "start": 5.391,
      "duration": 0.1069,
      "velocity": 127,
      "chip": "ym2612"
    },
    {
      "channel": 1,
      "note": 49,
      "start": 5.3913,
      "duration": 0.1693,
      "velocity": 91,
      "chip": "ym2612"
    },
    {
      "channel": 0,
      "note": 32,
      "start": 5.4996,
      "duration": 0.1054,
      "velocity": 107,
      "chip": "ym2612"
    },
    {
      "channel": 5,
      "note": 75,
      "start": 5.5001,
      "duration": 0.1072,
      "velocity": 91,
      "chip": "ym2612"
    },
    {
      "channel": 0,
      "note": 67,
      "start": 5.6068,
      "duration": 0.1054,
      "velocity": 112,
      "chip": "ym2612"
    },
    {
      "channel": 1,
      "note": 48,
      "start": 5.607,
      "duration": 0.2749,
      "velocity": 91,
      "chip": "ym2612"
    },
    {
      "channel": 0,
      "note": 32,
      "start": 5.7141,
      "duration": 0.1052,
      "velocity": 107,
      "chip": "ym2612"
    },
    {
      "channel": 0,
      "note": 32,
      "start": 5.821,
      "duration": 0.1054,
      "velocity": 107,
      "chip": "ym2612"
    },
    {
      "channel": 5,
      "note": 75,
      "start": 5.8213,
      "duration": 0.1074,
      "velocity": 91,
      "chip": "ym2612"
    },
    {
      "channel": 0,
      "note": 67,
      "start": 5.9282,
      "duration": 0.1054,
      "velocity": 112,
      "chip": "ym2612"
    },
    {
      "channel": 1,
      "note": 51,
      "start": 5.9284,
      "duration": 0.2748,
      "velocity": 91,
      "chip": "ym2612"
    },
    {
      "channel": 0,
      "note": 32,
      "start": 6.0353,
      "duration": 0.1054,
      "velocity": 127,
      "chip": "ym2612"
    },
    {
      "channel": 0,
      "note": 75,
      "start": 6.1424,
      "duration": 0.1054,
      "velocity": 127,
      "chip": "ym2612"
    },
    {
      "channel": 0,
      "note": 75,
      "start": 6.2496,
      "duration": 0.1054,
      "velocity": 127,
      "chip": "ym2612"
    },
    {
      "channel": 1,
      "note": 48,
      "start": 6.2498,
      "duration": 0.1677,
      "velocity": 91,
      "chip": "ym2612"
    },
    {
      "channel": 0,
      "note": 66,
      "start": 6.3567,
      "duration": 0.1054,
      "velocity": 127,
      "chip": "ym2612"
    },
    {
      "channel": 0,
      "note": 67,
      "start": 6.4641,
      "duration": 0.1052,
      "velocity": 112,
      "chip": "ym2612"
    },
    {
      "channel": 1,
      "note": 49,
      "start": 6.4643,
      "duration": 0.1674,
      "velocity": 91,
      "chip": "ym2612"
    },
    {
      "channel": 3,
      "note": 61,
      "start": 6.4646,
      "duration": 0.4281,
      "velocity": 100,
      "chip": "ym2612"
    },
    {
      "channel": 5,
      "note": 63,
      "start": 6.4649,
      "duration": 0.1062,
      "velocity": 91,
      "chip": "ym2612"
    },
    {
      "channel": 0,
      "note": 75,
      "start": 6.571,
      "duration": 0.1054,
      "velocity": 127,
      "chip": "ym2612"
    },
    {
      "channel": 0,
      "note": 75,
      "start": 6.6766,
      "duration": 0.1069,
      "velocity": 127,
      "chip": "ym2612"
    },
    {
      "channel": 1,
      "note": 48,
      "start": 6.6769,
      "duration": 0.1692,
      "velocity": 91,
      "chip": "ym2612"
    },
    {
      "channel": 0,
      "note": 66,
      "start": 6.7853,
      "duration": 0.1054,
      "velocity": 127,
      "chip": "ym2612"
    },
    {
      "channel": 0,
      "note": 32,
      "start": 6.8924,
      "duration": 0.1054,
      "velocity": 107,
      "chip": "ym2612"
    },
    {
      "channel": 1,
      "note": 48,
      "start": 6.8927,
      "duration": 0.1677,
      "velocity": 91,
      "chip": "ym2612"
    },
    {
      "channel": 3,
      "note": 60,
      "start": 6.8932,
      "duration": 1.2941,
      "velocity": 100,
      "chip": "ym2612"
    },
    {
      "channel": 4,
      "note": 67,
      "start": 6.8934,
      "duration": 1.2941,
      "velocity": 100,
      "chip": "ym2612"
    },
    {
      "channel": 5,
      "note": 75,
      "start": 6.8937,
      "duration": 0.1059,
      "velocity": 91,
      "chip": "ym2612"
    },
    {
      "channel": 0,
      "note": 75,
      "start": 6.9995,
      "duration": 0.1054,
      "velocity": 127,
      "chip": "ym2612"
    },
    {
      "channel": 0,
      "note": 75,
      "start": 7.1052,
      "duration": 0.1069,
      "velocity": 127,
      "chip": "ym2612"
    },
    {
      "channel": 1,
      "note": 49,
      "start": 7.1054,
      "duration": 0.1693,
      "velocity": 91,
      "chip": "ym2612"
    },
    {
      "channel": 0,
      "note": 32,
      "start": 7.2141,
      "duration": 0.1052,
      "velocity": 107,
      "chip": "ym2612"
    },
    {
      "channel": 5,
      "note": 75,
      "start": 7.2147,
      "duration": 0.107,
      "velocity": 91,
      "chip": "ym2612"
    },
    {
      "channel": 0,
      "note": 67,
      "start": 7.3209,
      "duration": 0.1144,
      "velocity": 112,
      "chip": "ym2612"
    },
    {
      "channel": 1,
      "note": 48,
      "start": 7.3212,
      "duration": 0.2839,
      "velocity": 91,
      "chip": "ym2612"
    },
    {
      "channel": 0,
      "note": 32,
      "start": 7.437,
      "duration": 0.1054,
      "velocity": 107,
      "chip": "ym2612"
    },
    {
      "channel": 0,
      "note": 32,
      "start": 7.5444,
      "duration": 0.1052,
      "velocity": 107,
      "chip": "ym2612"
    },
    {
      "channel": 5,
      "note": 75,
      "start": 7.5446,
      "duration": 0.1074,
      "velocity": 91,
      "chip": "ym2612"
    },
    {
      "channel": 0,
      "note": 67,
      "start": 7.6513,
      "duration": 0.1054,
      "velocity": 112,
      "chip": "ym2612"
    },
    {
      "channel": 1,
      "note": 51,
      "start": 7.6515,
      "duration": 0.2748,
      "velocity": 91,
      "chip": "ym2612"
    },
    {
      "channel": 0,
      "note": 32,
      "start": 7.7584,
      "duration": 0.1054,
      "velocity": 127,
      "chip": "ym2612"
    },
    {
      "channel": 0,
      "note": 75,
      "start": 7.8655,
      "duration": 0.1054,
      "velocity": 127,
      "chip": "ym2612"
    },
    {
      "channel": 0,
      "note": 75,
      "start": 7.9727,
      "duration": 0.1054,
      "velocity": 127,
      "chip": "ym2612"
    },
    {
      "channel": 1,
      "note": 48,
      "start": 7.9732,
      "duration": 0.1674,
      "velocity": 91,
      "chip": "ym2612"
    },
    {
      "channel": 0,
      "note": 66,
      "start": 8.0798,
      "duration": 0.1054,
      "velocity": 127,
      "chip": "ym2612"
    },
    {
      "channel": 0,
      "note": 67,
      "start": 8.1869,
      "duration": 0.1054,
      "velocity": 112,
      "chip": "ym2612"
    },
    {
      "channel": 1,
      "note": 49,
      "start": 8.1872,
      "duration": 0.1677,
      "velocity": 91,
      "chip": "ym2612"
    },
    {
      "channel": 3,
      "note": 61,
      "start": 8.1874,
      "duration": 0.4284,
      "velocity": 100,
      "chip": "ym2612"
    },
    {
      "channel": 4,
      "note": 68,
      "start": 8.1877,
      "duration": 0.4284,
      "velocity": 100,
      "chip": "ym2612"
    },
    {
      "channel": 5,
      "note": 63,
      "start": 8.1879,
      "duration": 0.1065,
      "velocity": 91,
      "chip": "ym2612"
    },
    {
      "channel": 0,
      "note": 75,
      "start": 8.2943,
      "duration": 0.1052,
      "velocity": 127,
      "chip": "ym2612"
    },
    {
      "channel": 0,
      "note": 75,
      "start": 8.3998,
      "duration": 0.1069,
      "velocity": 127,
      "chip": "ym2612"
    },
    {
      "channel": 1,
      "note": 48,
      "start": 8.4,
      "duration": 0.1691,
      "velocity": 91,
      "chip": "ym2612"
    },
    {
      "channel": 0,
      "note": 66,
      "start": 8.5084,
      "duration": 0.1054,
      "velocity": 127,
      "chip": "ym2612"
    },
    {
      "channel": 0,
      "note": 32,
      "start": 8.6155,
      "duration": 0.1054,
      "velocity": 107,
      "chip": "ym2612"
    },
    {
      "channel": 1,
      "note": 48,
      "start": 8.6158,
      "duration": 0.1677,
      "velocity": 91,
      "chip": "ym2612"
    },
    {
      "channel": 3,
      "note": 60,
      "start": 8.616,
      "duration": 1.2944,
      "velocity": 100,
      "chip": "ym2612"
    },
    {
      "channel": 4,
      "note": 67,
      "start": 8.6163,
      "duration": 1.2943,
      "velocity": 100,
      "chip": "ym2612"
    },
    {
      "channel": 5,
      "note": 75,
      "start": 8.6165,
      "duration": 0.1062,
      "velocity": 91,
      "chip": "ym2612"
    },
    {
      "channel": 0,
      "note": 75,
      "start": 8.7226,
      "duration": 0.1054,
      "velocity": 127,
      "chip": "ym2612"
    },
    {
      "channel": 0,
      "note": 75,
      "start": 8.8283,
      "duration": 0.1069,
      "velocity": 127,
      "chip": "ym2612"
    },
    {
      "channel": 1,
      "note": 49,
      "start": 8.8285,
      "duration": 0.1693,
      "velocity": 91,
      "chip": "ym2612"
    },
    {
      "channel": 0,
      "note": 32,
      "start": 8.9369,
      "duration": 0.1054,
      "velocity": 107,
      "chip": "ym2612"
    },
    {
      "channel": 5,
      "note": 75,
      "start": 8.9375,
      "duration": 0.1075,
      "velocity": 91,
      "chip": "ym2612"
    },
    {
      "channel": 0,
      "note": 67,
      "start": 9.0443,
      "duration": 0.1052,
      "velocity": 112,
      "chip": "ym2612"
    },
    {
      "channel": 1,
      "note": 48,
      "start": 9.0445,
      "duration": 0.2747,
      "velocity": 91,
      "chip": "ym2612"
    },
    {
      "channel": 0,
      "note": 32,
      "start": 9.1512,
      "duration": 0.1054,
      "velocity": 107,
      "chip": "ym2612"
    },
    {
      "channel": 0,
      "note": 32,
      "start": 9.2583,
      "duration": 0.1054,
      "velocity": 107,
      "chip": "ym2612"
    },
    {
      "channel": 5,
      "note": 75,
      "start": 9.2585,
      "duration": 0.1076,
      "velocity": 91,
      "chip": "ym2612"
    },
    {
      "channel": 0,
      "note": 67,
      "start": 9.3654,
      "duration": 0.1054,
      "velocity": 112,
      "chip": "ym2612"
    },
    {
      "channel": 1,
      "note": 51,
      "start": 9.3657,
      "duration": 0.2748,
      "velocity": 91,
      "chip": "ym2612"
    },
    {
      "channel": 0,
      "note": 32,
      "start": 9.4726,
      "duration": 0.1054,
      "velocity": 127,
      "chip": "ym2612"
    },
    {
      "channel": 0,
      "note": 75,
      "start": 9.5797,
      "duration": 0.1144,
      "velocity": 127,
      "chip": "ym2612"
    },
    {
      "channel": 0,
      "note": 75,
      "start": 9.6958,
      "duration": 0.1054,
      "velocity": 127,
      "chip": "ym2612"
    },
    {
      "channel": 1,
      "note": 48,
      "start": 9.696,
      "duration": 0.1677,
      "velocity": 91,
      "chip": "ym2612"
    },
    {
      "channel": 0,
      "note": 66,
      "start": 9.8032,
      "duration": 0.1052,
      "velocity": 127,
      "chip": "ym2612"
    },
    {
      "channel": 0,
      "note": 67,
      "start": 9.91,
      "duration": 0.1054,
      "velocity": 112,
      "chip": "ym2612"
    },
    {
      "channel": 1,
      "note": 49,
      "start": 9.9103,
      "duration": 0.1677,
      "velocity": 91,
      "chip": "ym2612"
    },
    {
      "channel": 3,
      "note": 61,
      "start": 9.9105,
      "duration": 0.4284,
      "velocity": 100,
      "chip": "ym2612"
    },
    {
      "channel": 4,
      "note": 68,
      "start": 9.9108,
      "duration": 0.4284,
      "velocity": 100,
      "chip": "ym2612"
    },
    {
      "channel": 5,
      "note": 63,
      "start": 9.911,
      "duration": 0.1063,
      "velocity": 91,
      "chip": "ym2612"
    },
    {
      "channel": 0,
      "note": 75,
      "start": 10.0172,
      "duration": 0.1054,
      "velocity": 127,
      "chip": "ym2612"
    },
    {
      "channel": 0,
      "note": 75,
      "start": 10.1231,
      "duration": 0.1066,
      "velocity": 127,
      "chip": "ym2612"
    },
    {
      "channel": 1,
      "note": 48,
      "start": 10.1234,
      "duration": 0.1689,
      "velocity": 91,
      "chip": "ym2612"
    },
    {
      "channel": 0,
      "note": 66,
      "start": 10.2315,
      "duration": 0.1054,
      "velocity": 127,
      "chip": "ym2612"
    },
    {
      "channel": 0,
      "note": 32,
      "start": 10.3386,
      "duration": 0.1054,
      "velocity": 107,
      "chip": "ym2612"
    },
    {
      "channel": 1,
      "note": 48,
      "start": 10.3389,
      "duration": 0.1677,
      "velocity": 91,
      "chip": "ym2612"
    },
    {
      "channel": 3,
      "note": 60,
      "start": 10.3391,
      "duration": 1.2856,
      "velocity": 100,
      "chip": "ym2612"
    },
    {
      "channel": 4,
      "note": 67,
      "start": 10.3394,
      "duration": 1.2856,
      "velocity": 100,
      "chip": "ym2612"
    },
    {
      "channel": 5,
      "note": 75,
      "start": 10.3396,
      "duration": 0.1062,
      "velocity": 91,
      "chip": "ym2612"
    },
    {
      "channel": 0,
      "note": 75,
      "start": 10.4457,
      "duration": 0.1054,
      "velocity": 127,
      "chip": "ym2612"
    },
    {
      "channel": 0,
      "note": 75,
      "start": 10.5514,
      "duration": 0.1069,
      "velocity": 127,
      "chip": "ym2612"
    },
    {
      "channel": 1,
      "note": 49,
      "start": 10.5517,
      "duration": 0.1692,
      "velocity": 91,
      "chip": "ym2612"
    },
    {
      "channel": 0,
      "note": 32,
      "start": 10.66,
      "duration": 0.1054,
      "velocity": 107,
      "chip": "ym2612"
    },
    {
      "channel": 5,
      "note": 75,
      "start": 10.6606,
      "duration": 0.1073,
      "velocity": 91,
      "chip": "ym2612"
    },
    {
      "channel": 0,
      "note": 67,
      "start": 10.7672,
      "duration": 0.1054,
      "velocity": 112,
      "chip": "ym2612"
    },
    {
      "channel": 1,
      "note": 48,
      "start": 10.7674,
      "duration": 0.2749,
      "velocity": 91,
      "chip": "ym2612"
    },
    {
      "channel": 0,
      "note": 32,
      "start": 10.8745,
      "duration": 0.1052,
      "velocity": 107,
      "chip": "ym2612"
    },
    {
      "channel": 0,
      "note": 32,
      "start": 10.9814,
      "duration": 0.1054,
      "velocity": 107,
      "chip": "ym2612"
    },
    {
      "channel": 5,
      "note": 75,
      "start": 10.9817,
      "duration": 0.1076,
      "velocity": 91,
      "chip": "ym2612"
    },
    {
      "channel": 0,
      "note": 67,
      "start": 11.0885,
      "duration": 0.1054,
      "velocity": 112,
      "chip": "ym2612"
    },
    {
      "channel": 1,
      "note": 51,
      "start": 11.0888,
      "duration": 0.2748,
      "velocity": 91,
      "chip": "ym2612"
    },
    {
      "channel": 0,
      "note": 32,
      "start": 11.1957,
      "duration": 0.1054,
      "velocity": 127,
      "chip": "ym2612"
    },
    {
      "channel": 0,
      "note": 75,
      "start": 11.3031,
      "duration": 0.1052,
      "velocity": 127,
      "chip": "ym2612"
    },
    {
      "channel": 0,
      "note": 75,
      "start": 11.41,
      "duration": 0.1054,
      "velocity": 127,
      "chip": "ym2612"
    },
    {
      "channel": 1,
      "note": 48,
      "start": 11.4102,
      "duration": 0.1677,
      "velocity": 91,
      "chip": "ym2612"
    },
    {
      "channel": 0,
      "note": 66,
      "start": 11.5171,
      "duration": 0.1054,
      "velocity": 127,
      "chip": "ym2612"
    },
    {
      "channel": 0,
      "note": 67,
      "start": 11.6245,
      "duration": 0.1052,
      "velocity": 112,
      "chip": "ym2612"
    },
    {
      "channel": 1,
      "note": 49,
      "start": 11.6247,
      "duration": 0.1674,
      "velocity": 91,
      "chip": "ym2612"
    },
    {
      "channel": 3,
      "note": 61,
      "start": 11.625,
      "duration": 0.4371,
      "velocity": 100,
      "chip": "ym2612"
    },
    {
      "channel": 4,
      "note": 68,
      "start": 11.6252,
      "duration": 0.4371,
      "velocity": 100,
      "chip": "ym2612"
    },
    {
      "channel": 5,
      "note": 63,
      "start": 11.6255,
      "duration": 0.106,
      "velocity": 91,
      "chip": "ym2612"
    },
    {
      "channel": 0,
      "note": 75,
      "start": 11.7314,
      "duration": 0.1054,
      "velocity": 127,
      "chip": "ym2612"
    },
    {
      "channel": 0,
      "note": 75,
      "start": 11.837,
      "duration": 0.1161,
      "velocity": 127,
      "chip": "ym2612"
    },
    {
      "channel": 1,
      "note": 48,
      "start": 11.8373,
      "duration": 0.1781,
      "velocity": 91,
      "chip": "ym2612"
    },
    {
      "channel": 0,
      "note": 66,
      "start": 11.9548,
      "duration": 0.1052,
      "velocity": 127,
      "chip": "ym2612"
    },
    {
      "channel": 0,
      "note": 32,
      "start": 12.0617,
      "duration": 0.1054,
      "velocity": 107,
      "chip": "ym2612"
    },
    {
      "channel": 1,
      "note": 48,
      "start": 12.062,
      "duration": 0.1677,
      "velocity": 91,
      "chip": "ym2612"
    },
    {
      "channel": 3,
      "note": 60,
      "start": 12.0622,
      "duration": 1.2854,
      "velocity": 100,
      "chip": "ym2612"
    },
    {
      "channel": 4,
      "note": 67,
      "start": 12.0625,
      "duration": 1.2854,
      "velocity": 100,
      "chip": "ym2612"
    },
    {
      "channel": 5,
      "note": 75,
      "start": 12.0627,
      "duration": 0.1062,
      "velocity": 91,
      "chip": "ym2612"
    },
    {
      "channel": 0,
      "note": 75,
      "start": 12.1688,
      "duration": 0.1054,
      "velocity": 127,
      "chip": "ym2612"
    },
    {
      "channel": 0,
      "note": 75,
      "start": 12.2745,
      "duration": 0.1069,
      "velocity": 127,
      "chip": "ym2612"
    },
    {
      "channel": 1,
      "note": 49,
      "start": 12.2747,
      "duration": 0.1693,
      "velocity": 91,
      "chip": "ym2612"
    },
    {
      "channel": 0,
      "note": 32,
      "start": 12.3834,
      "duration": 0.1052,
      "velocity": 107,
      "chip": "ym2612"
    },
    {
      "channel": 5,
      "note": 75,
      "start": 12.384,
      "duration": 0.107,
      "velocity": 91,
      "chip": "ym2612"
    },
    {
      "channel": 0,
      "note": 67,
      "start": 12.4902,
      "duration": 0.1054,
      "velocity": 112,
      "chip": "ym2612"
    },
    {
      "channel": 1,
      "note": 48,
      "start": 12.4905,
      "duration": 0.2749,
      "velocity": 91,
      "chip": "ym2612"
    },
    {
      "channel": 0,
      "note": 32,
      "start": 12.5974,
      "duration": 0.1057,
      "velocity": 107,
      "chip": "ym2612"
    },
    {
      "channel": 0,
      "note": 32,
      "start": 12.7048,
      "duration": 0.1052,
      "velocity": 107,
      "chip": "ym2612"
    },
    {
      "channel": 5,
      "note": 75,
      "start": 12.705,
      "duration": 0.1074,
      "velocity": 91,
      "chip": "ym2612"
    },
    {
      "channel": 0,
      "note": 67,
      "start": 12.8117,
      "duration": 0.1054,
      "velocity": 112,
      "chip": "ym2612"
    },
    {
      "channel": 1,
      "note": 51,
      "start": 12.8119,
      "duration": 0.2748,
      "velocity": 91,
      "chip": "ym2612"
    },
    {
      "channel": 0,
      "note": 32,
      "start": 12.9188,
      "duration": 0.1054,
      "velocity": 127,
      "chip": "ym2612"
    },
    {
      "channel": 0,
      "note": 75,
      "start": 13.0259,
      "duration": 0.1054,
      "velocity": 127,
      "chip": "ym2612"
    },
    {
      "channel": 0,
      "note": 75,
      "start": 13.1333,
      "duration": 0.1052,
      "velocity": 127,
      "chip": "ym2612"
    },
    {
      "channel": 1,
      "note": 48,
      "start": 13.1336,
      "duration": 0.1674,
      "velocity": 91,
      "chip": "ym2612"
    },
    {
      "channel": 0,
      "note": 66,
      "start": 13.2402,
      "duration": 0.1054,
      "velocity": 127,
      "chip": "ym2612"
    },
    {
      "channel": 0,
      "note": 67,
      "start": 13.3473,
      "duration": 0.1057,
      "velocity": 112,
      "chip": "ym2612"
    },
    {
      "channel": 1,
      "note": 49,
      "start": 13.3476,
      "duration": 0.1677,
      "velocity": 91,
      "chip": "ym2612"
    },
    {
      "channel": 3,
      "note": 61,
      "start": 13.3478,
      "duration": 0.43,
      "velocity": 100,
      "chip": "ym2612"
    },
    {
      "channel": 4,
      "note": 68,
      "start": 13.3481,
      "duration": 0.43,
      "velocity": 100,
      "chip": "ym2612"
    },
    {
      "channel": 5,
      "note": 63,
      "start": 13.3483,
      "duration": 0.1065,
      "velocity": 91,
      "chip": "ym2612"
    },
    {
      "channel": 0,
      "note": 75,
      "start": 13.4547,
      "duration": 0.1052,
      "velocity": 127,
      "chip": "ym2612"
    },
    {
      "channel": 0,
      "note": 75,
      "start": 13.5601,
      "duration": 0.1069,
      "velocity": 127,
      "chip": "ym2612"
    },
    {
      "channel": 1,
      "note": 48,
      "start": 13.5604,
      "duration": 0.1692,
      "velocity": 91,
      "chip": "ym2612"
    },
    {
      "channel": 0,
      "note": 66,
      "start": 13.6688,
      "duration": 0.1054,
      "velocity": 127,
      "chip": "ym2612"
    },
    {
      "channel": 0,
      "note": 32,
      "start": 13.7759,
      "duration": 0.1054,
      "velocity": 107,
      "chip": "ym2612"
    },
    {
      "channel": 1,
      "note": 48,
      "start": 13.7761,
      "duration": 0.1677,
      "velocity": 91,
      "chip": "ym2612"
    },
    {
      "channel": 2,
      "note": 48,
      "start": 13.7778,
      "duration": 0.0768,
      "velocity": 127,
      "chip": "ym2612"
    },
    {
      "channel": 3,
      "note": 60,
      "start": 13.7781,
      "duration": 1.2929,
      "velocity": 100,
      "chip": "ym2612"
    },
    {
      "channel": 4,
      "note": 67,
      "start": 13.7783,
      "duration": 1.2929,
      "velocity": 100,
      "chip": "ym2612"
    },
    {
      "channel": 5,
      "note": 75,
      "start": 13.7786,
      "duration": 0.1051,
      "velocity": 91,
      "chip": "ym2612"
    },
    {
      "channel": 0,
      "note": 75,
      "start": 13.8833,
      "duration": 0.1052,
      "velocity": 127,
      "chip": "ym2612"
    },
    {
      "channel": 2,
      "note": 48,
      "start": 13.8836,
      "duration": 0.0781,
      "velocity": 127,
      "chip": "ym2612"
    },
    {
      "channel": 0,
      "note": 75,
      "start": 13.9887,
      "duration": 0.1069,
      "velocity": 127,
      "chip": "ym2612"
    },
    {
      "channel": 1,
      "note": 49,
      "start": 13.9889,
      "duration": 0.1782,
      "velocity": 91,
      "chip": "ym2612"
    },
    {
      "channel": 2,
      "note": 46,
      "start": 13.9892,
      "duration": 0.0796,
      "velocity": 127,
      "chip": "ym2612"
    },
    {
      "channel": 0,
      "note": 32,
      "start": 14.0973,
      "duration": 0.1143,
      "velocity": 107,
      "chip": "ym2612"
    },
    {
      "channel": 2,
      "note": 46,
      "start": 14.0976,
      "duration": 0.0874,
      "velocity": 127,
      "chip": "ym2612"
    },
    {
      "channel": 5,
      "note": 75,
      "start": 14.0982,
      "duration": 0.1164,
      "velocity": 91,
      "chip": "ym2612"
    },
    {
      "channel": 0,
      "note": 67,
      "start": 14.2136,
      "duration": 0.1052,
      "velocity": 112,
      "chip": "ym2612"
    },
    {
      "channel": 1,
      "note": 48,
      "start": 14.2138,
      "duration": 0.2747,
      "velocity": 91,
      "chip": "ym2612"
    },
    {
      "channel": 2,
      "note": 49,
      "start": 14.2141,
      "duration": 0.0779,
      "velocity": 127,
      "chip": "ym2612"
    },
    {
      "channel": 0,
      "note": 32,
      "start": 14.3205,
      "duration": 0.1054,
      "velocity": 107,
      "chip": "ym2612"
    },
    {
      "channel": 2,
      "note": 49,
      "start": 14.3208,
      "duration": 0.0784,
      "velocity": 127,
      "chip": "ym2612"
    },
    {
      "channel": 0,
      "note": 32,
      "start": 14.4276,
      "duration": 0.1055,
      "velocity": 107,
      "chip": "ym2612"
    },
    {
      "channel": 2,
      "note": 46,
      "start": 14.4279,
      "duration": 0.0785,
      "velocity": 127,
      "chip": "ym2612"
    },
    {
      "channel": 5,
      "note": 75,
      "start": 14.4282,
      "duration": 0.1077,
      "velocity": 91,
      "chip": "ym2612"
    },
    {
      "channel": 0,
      "note": 67,
      "start": 14.5348,
      "duration": 0.1054,
      "velocity": 112,
      "chip": "ym2612"
    },
    {
      "channel": 1,
      "note": 51,
      "start": 14.5351,
      "duration": 0.2747,
      "velocity": 91,
      "chip": "ym2612"
    },
    {
      "channel": 2,
      "note": 46,
      "start": 14.5354,
      "duration": 0.078,
      "velocity": 127,
      "chip": "ym2612"
    },
    {
      "channel": 0,
      "note": 32,
      "start": 14.6419,
      "duration": 0.1054,
      "velocity": 127,
      "chip": "ym2612"
    },
    {
      "channel": 2,
      "note": 48,
      "start": 14.6422,
      "duration": 0.0784,
      "velocity": 127,
      "chip": "ym2612"
    },
    {
      "channel": 0,
      "note": 75,
      "start": 14.749,
      "duration": 0.1054,
      "velocity": 127,
      "chip": "ym2612"
    },
    {
      "channel": 2,
      "note": 48,
      "start": 14.7493,
      "duration": 0.0784,
      "velocity": 127,
      "chip": "ym2612"
    },
    {
      "channel": 0,
      "note": 75,
      "start": 14.8562,
      "duration": 0.1054,
      "velocity": 127,
      "chip": "ym2612"
    },
    {
      "channel": 1,
      "note": 48,
      "start": 14.8564,
      "duration": 0.1677,
      "velocity": 91,
      "chip": "ym2612"
    },
    {
      "channel": 2,
      "note": 46,
      "start": 14.8567,
      "duration": 0.0781,
      "velocity": 127,
      "chip": "ym2612"
    },
    {
      "channel": 0,
      "note": 66,
      "start": 14.9636,
      "duration": 0.1052,
      "velocity": 127,
      "chip": "ym2612"
    },
    {
      "channel": 2,
      "note": 46,
      "start": 14.9639,
      "duration": 0.0781,
      "velocity": 127,
      "chip": "ym2612"
    },
    {
      "channel": 0,
      "note": 67,
      "start": 15.0704,
      "duration": 0.1054,
      "velocity": 112,
      "chip": "ym2612"
    },
    {
      "channel": 1,
      "note": 49,
      "start": 15.0707,
      "duration": 0.1677,
      "velocity": 91,
      "chip": "ym2612"
    },
    {
      "channel": 2,
      "note": 42,
      "start": 15.071,
      "duration": 0.0781,
      "velocity": 127,
      "chip": "ym2612"
    },
    {
      "channel": 3,
      "note": 61,
      "start": 15.0712,
      "duration": 0.4284,
      "velocity": 100,
      "chip": "ym2612"
    },
    {
      "channel": 4,
      "note": 68,
      "start": 15.0715,
      "duration": 0.4284,
      "velocity": 100,
      "chip": "ym2612"
    },
    {
      "channel": 5,
      "note": 63,
      "start": 15.0717,
      "duration": 0.1062,
      "velocity": 91,
      "chip": "ym2612"
    },
    {
      "channel": 0,
      "note": 75,
      "start": 15.1776,
      "duration": 0.1055,
      "velocity": 127,
      "chip": "ym2612"
    },
    {
      "channel": 2,
      "note": 42,
      "start": 15.1779,
      "duration": 0.0784,
      "velocity": 127,
      "chip": "ym2612"
    },
    {
      "channel": 0,
      "note": 75,
      "start": 15.2833,
      "duration": 0.1068,
      "velocity": 127,
      "chip": "ym2612"
    },
    {
      "channel": 1,
      "note": 48,
      "start": 15.2836,
      "duration": 0.169,
      "velocity": 91,
      "chip": "ym2612"
    },
    {
      "channel": 2,
      "note": 46,
      "start": 15.2839,
      "duration": 0.0795,
      "velocity": 127,
      "chip": "ym2612"
    },
    {
      "channel": 0,
      "note": 66,
      "start": 15.3918,
      "duration": 0.1054,
      "velocity": 127,
      "chip": "ym2612"
    },
    {
      "channel": 2,
      "note": 46,
      "start": 15.3922,
      "duration": 0.0784,
      "velocity": 127,
      "chip": "ym2612"
    },
    {
      "channel": 0,
      "note": 32,
      "start": 15.499,
      "duration": 0.1054,
      "velocity": 107,
      "chip": "ym2612"
    },
    {
      "channel": 1,
      "note": 48,
      "start": 15.4993,
      "duration": 0.1677,
      "velocity": 91,
      "chip": "ym2612"
    },
    {
      "channel": 2,
      "note": 48,
      "start": 15.4995,
      "duration": 0.0782,
      "velocity": 127,
      "chip": "ym2612"
    },
    {
      "channel": 3,
      "note": 60,
      "start": 15.4998,
      "duration": 1.2946,
      "velocity": 100,
      "chip": "ym2612"
    },
    {
      "channel": 4,
      "note": 67,
      "start": 15.5001,
      "duration": 1.2946,
      "velocity": 100,
      "chip": "ym2612"
    },
    {
      "channel": 5,
      "note": 75,
      "start": 15.5003,
      "duration": 0.1061,
      "velocity": 91,
      "chip": "ym2612"
    },
    {
      "channel": 0,
      "note": 75,
      "start": 15.6061,
      "duration": 0.1054,
      "velocity": 127,
      "chip": "ym2612"
    },
    {
      "channel": 2,
      "note": 48,
      "start": 15.6064,
      "duration": 0.0784,
      "velocity": 127,
      "chip": "ym2612"
    },
    {
      "channel": 0,
      "note": 75,
      "start": 15.7118,
      "duration": 0.1069,
      "velocity": 127,
      "chip": "ym2612"
    },
    {
      "channel": 1,
      "note": 49,
      "start": 15.712,
      "duration": 0.1693,
      "velocity": 91,
      "chip": "ym2612"
    },
    {
      "channel": 2,
      "note": 46,
      "start": 15.7123,
      "duration": 0.0796,
      "velocity": 127,
      "chip": "ym2612"
    },
    {
      "channel": 0,
      "note": 32,
      "start": 15.8204,
      "duration": 0.1054,
      "velocity": 107,
      "chip": "ym2612"
    },
    {
      "channel": 2,
      "note": 46,
      "start": 15.8207,
      "duration": 0.0785,
      "velocity": 127,
      "chip": "ym2612"
    },
    {
      "channel": 5,
      "note": 75,
      "start": 15.8213,
      "duration": 0.1072,
      "velocity": 91,
      "chip": "ym2612"
    },
    {
      "channel": 0,
      "note": 67,
      "start": 15.9275,
      "duration": 0.1056,
      "velocity": 112,
      "chip": "ym2612"
    },
    {
      "channel": 1,
      "note": 48,
      "start": 15.9278,
      "duration": 0.2749,
      "velocity": 91,
      "chip": "ym2612"
    },
    {
      "channel": 2,
      "note": 49,
      "start": 15.9281,
      "duration": 0.0781,
      "velocity": 127,
      "chip": "ym2612"
    },
    {
      "channel": 0,
      "note": 32,
      "start": 16.0348,
      "duration": 0.1053,
      "velocity": 107,
      "chip": "ym2612"
    },
    {
      "channel": 2,
      "note": 49,
      "start": 16.0351,
      "duration": 0.0783,
      "velocity": 127,
      "chip": "ym2612"
    },
    {
      "channel": 0,
      "note": 32,
      "start": 16.1418,
      "duration": 0.1054,
      "velocity": 107,
      "chip": "ym2612"
    },
    {
      "channel": 2,
      "note": 46,
      "start": 16.1421,
      "duration": 0.0785,
      "velocity": 127,
      "chip": "ym2612"
    },
    {
      "channel": 5,
      "note": 75,
      "start": 16.1423,
      "duration": 0.1076,
      "velocity": 91,
      "chip": "ym2612"
    },
    {
      "channel": 0,
      "note": 67,
      "start": 16.2489,
      "duration": 0.1054,
      "velocity": 112,
      "chip": "ym2612"
    },
    {
      "channel": 1,
      "note": 51,
      "start": 16.2492,
      "duration": 0.2839,
      "velocity": 91,
      "chip": "ym2612"
    },
    {
      "channel": 2,
      "note": 46,
      "start": 16.2495,
      "duration": 0.0781,
      "velocity": 127,
      "chip": "ym2612"
    },
    {
      "channel": 0,
      "note": 32,
      "start": 16.3561,
      "duration": 0.1144,
      "velocity": 127,
      "chip": "ym2612"
    },
    {
      "channel": 2,
      "note": 48,
      "start": 16.3564,
      "duration": 0.0874,
      "velocity": 127,
      "chip": "ym2612"
    },
    {
      "channel": 0,
      "note": 75,
      "start": 16.4721,
      "duration": 0.1054,
      "velocity": 127,
      "chip": "ym2612"
    },
    {
      "channel": 2,
      "note": 48,
      "start": 16.4724,
      "duration": 0.0784,
      "velocity": 127,
      "chip": "ym2612"
    },
    {
      "channel": 0,
      "note": 75,
      "start": 16.5793,
      "duration": 0.1054,
      "velocity": 127,
      "chip": "ym2612"
    },
    {
      "channel": 1,
      "note": 48,
      "start": 16.5795,
      "duration": 0.1677,
      "velocity": 91,
      "chip": "ym2612"
    },
    {
      "channel": 2,
      "note": 46,
      "start": 16.5798,
      "duration": 0.0781,
      "velocity": 127,
      "chip": "ym2612"
    },
    {
      "channel": 0,
      "note": 66,
      "start": 16.6864,
      "duration": 0.1054,
      "velocity": 127,
      "chip": "ym2612"
    },
    {
      "channel": 2,
      "note": 46,
      "start": 16.6867,
      "duration": 0.0784,
      "velocity": 127,
      "chip": "ym2612"
    },
    {
      "channel": 0,
      "note": 67,
      "start": 16.7938,
      "duration": 0.1052,
      "velocity": 112,
      "chip": "ym2612"
    },
    {
      "channel": 1,
      "note": 49,
      "start": 16.794,
      "duration": 0.1674,
      "velocity": 91,
      "chip": "ym2612"
    },
    {
      "channel": 2,
      "note": 42,
      "start": 16.7943,
      "duration": 0.0779,
      "velocity": 127,
      "chip": "ym2612"
    },
    {
      "channel": 3,
      "note": 61,
      "start": 16.7946,
      "duration": 0.4281,
      "velocity": 100,
      "chip": "ym2612"
    },
    {
      "channel": 4,
      "note": 68,
      "start": 16.7948,
      "duration": 0.4284,
      "velocity": 100,
      "chip": "ym2612"
    },
    {
      "channel": 5,
      "note": 63,
      "start": 16.7951,
      "duration": 0.106,
      "velocity": 91,
      "chip": "ym2612"
    },
    {
      "channel": 0,
      "note": 75,
      "start": 16.9007,
      "duration": 0.1054,
      "velocity": 127,
      "chip": "ym2612"
    },
    {
      "channel": 2,
      "note": 42,
      "start": 16.901,
      "duration": 0.0784,
      "velocity": 127,
      "chip": "ym2612"
    },
    {
      "channel": 0,
      "note": 75,
      "start": 17.0063,
      "duration": 0.1069,
      "velocity": 127,
      "chip": "ym2612"
    },
    {
      "channel": 1,
      "note": 48,
      "start": 17.0066,
      "duration": 0.1691,
      "velocity": 91,
      "chip": "ym2612"
    },
    {
      "channel": 2,
      "note": 46,
      "start": 17.0069,
      "duration": 0.0796,
      "velocity": 127,
      "chip": "ym2612"
    },
    {
      "channel": 0,
      "note": 66,
      "start": 17.1149,
      "duration": 0.1054,
      "velocity": 127,
      "chip": "ym2612"
    },
    {
      "channel": 2,
      "note": 46,
      "start": 17.1153,
      "duration": 0.0784,
      "velocity": 127,
      "chip": "ym2612"
    },
    {
      "channel": 0,
      "note": 32,
      "start": 17.2221,
      "duration": 0.1054,
      "velocity": 107,
      "chip": "ym2612"
    },
    {
      "channel": 1,
      "note": 48,
      "start": 17.2224,
      "duration": 0.1677,
      "velocity": 91,
      "chip": "ym2612"
    },
    {
      "channel": 2,
      "note": 48,
      "start": 17.2227,
      "duration": 0.0782,
      "velocity": 127,
      "chip": "ym2612"
    },
    {
      "channel": 3,
      "note": 60,
      "start": 17.2232,
      "duration": 1.2851,
      "velocity": 100,
      "chip": "ym2612"
    },
    {
      "channel": 4,
      "note": 67,
      "start": 17.2234,
      "duration": 1.2851,
      "velocity": 100,
      "chip": "ym2612"
    },
    {
      "channel": 5,
      "note": 75,
      "start": 17.2237,
      "duration": 0.1059,
      "velocity": 91,
      "chip": "ym2612"
    },
    {
      "channel": 0,
      "note": 75,
      "start": 17.3292,
      "duration": 0.1054,
      "velocity": 127,
      "chip": "ym2612"
    },
    {
      "channel": 2,
      "note": 48,
      "start": 17.3295,
      "duration": 0.0784,
      "velocity": 127,
      "chip": "ym2612"
    },
    {
      "channel": 0,
      "note": 75,
      "start": 17.4349,
      "duration": 0.1069,
      "velocity": 127,
      "chip": "ym2612"
    },
    {
      "channel": 1,
      "note": 49,
      "start": 17.4351,
      "duration": 0.1693,
      "velocity": 91,
      "chip": "ym2612"
    },
    {
      "channel": 2,
      "note": 46,
      "start": 17.4354,
      "duration": 0.0796,
      "velocity": 127,
      "chip": "ym2612"
    },
    {
      "channel": 0,
      "note": 32,
      "start": 17.5437,
      "duration": 0.1052,
      "velocity": 107,
      "chip": "ym2612"
    },
    {
      "channel": 2,
      "note": 46,
      "start": 17.5441,
      "duration": 0.0782,
      "velocity": 127,
      "chip": "ym2612"
    },
    {
      "channel": 5,
      "note": 75,
      "start": 17.5447,
      "duration": 0.107,
      "velocity": 91,
      "chip": "ym2612"
    },
    {
      "channel": 0,
      "note": 67,
      "start": 17.6507,
      "duration": 0.1054,
      "velocity": 112,
      "chip": "ym2612"
    },
    {
      "channel": 1,
      "note": 48,
      "start": 17.6509,
      "duration": 0.2749,
      "velocity": 91,
      "chip": "ym2612"
    },
    {
      "channel": 2,
      "note": 49,
      "start": 17.6512,
      "duration": 0.0781,
      "velocity": 127,
      "chip": "ym2612"
    },
    {
      "channel": 0,
      "note": 32,
      "start": 17.7578,
      "duration": 0.1054,
      "velocity": 107,
      "chip": "ym2612"
    },
    {
      "channel": 2,
      "note": 49,
      "start": 17.7581,
      "duration": 0.0784,
      "velocity": 127,
      "chip": "ym2612"
    },
    {
      "channel": 0,
      "note": 32,
      "start": 17.8649,
      "duration": 0.1054,
      "velocity": 107,
      "chip": "ym2612"
    },
    {
      "channel": 2,
      "note": 46,
      "start": 17.8652,
      "duration": 0.0785,
      "velocity": 127,
      "chip": "ym2612"
    },
    {
      "channel": 5,
      "note": 75,
      "start": 17.8654,
      "duration": 0.1079,
      "velocity": 91,
      "chip": "ym2612"
    },
    {
      "channel": 0,
      "note": 67,
      "start": 17.972,
      "duration": 0.1054,
      "velocity": 112,
      "chip": "ym2612"
    },
    {
      "channel": 1,
      "note": 51,
      "start": 17.9723,
      "duration": 0.2748,
      "velocity": 91,
      "chip": "ym2612"
    },
    {
      "channel": 2,
      "note": 46,
      "start": 17.9726,
      "duration": 0.0781,
      "velocity": 127,
      "chip": "ym2612"
    },
    {
      "channel": 0,
      "note": 32,
      "start": 18.0792,
      "duration": 0.1054,
      "velocity": 127,
      "chip": "ym2612"
    },
    {
      "channel": 2,
      "note": 48,
      "start": 18.0795,
      "duration": 0.0784,
      "velocity": 127,
      "chip": "ym2612"
    },
    {
      "channel": 0,
      "note": 75,
      "start": 18.1863,
      "duration": 0.1054,
      "velocity": 127,
      "chip": "ym2612"
    },
    {
      "channel": 2,
      "note": 48,
      "start": 18.1866,
      "duration": 0.0784,
      "velocity": 127,
      "chip": "ym2612"
    },
    {
      "channel": 0,
      "note": 75,
      "start": 18.2937,
      "duration": 0.1052,
      "velocity": 127,
      "chip": "ym2612"
    },
    {
      "channel": 1,
      "note": 48,
      "start": 18.2939,
      "duration": 0.1674,
      "velocity": 91,
      "chip": "ym2612"
    },
    {
      "channel": 2,
      "note": 46,
      "start": 18.2942,
      "duration": 0.0779,
      "velocity": 127,
      "chip": "ym2612"
    },
    {
      "channel": 0,
      "note": 66,
      "start": 18.4006,
      "duration": 0.1054,
      "velocity": 127,
      "chip": "ym2612"
    },
    {
      "channel": 2,
      "note": 46,
      "start": 18.4009,
      "duration": 0.0783,
      "velocity": 127,
      "chip": "ym2612"
    },
    {
      "channel": 0,
      "note": 67,
      "start": 18.5077,
      "duration": 0.1054,
      "velocity": 112,
      "chip": "ym2612"
    },
    {
      "channel": 1,
      "note": 49,
      "start": 18.508,
      "duration": 0.1766,
      "velocity": 91,
      "chip": "ym2612"
    },
    {
      "channel": 2,
      "note": 42,
      "start": 18.5083,
      "duration": 0.0781,
      "velocity": 127,
      "chip": "ym2612"
    },
    {
      "channel": 3,
      "note": 61,
      "start": 18.5085,
      "duration": 0.4373,
      "velocity": 100,
      "chip": "ym2612"
    },
    {
      "channel": 4,
      "note": 68,
      "start": 18.5088,
      "duration": 0.4373,
      "velocity": 100,
      "chip": "ym2612"
    },
    {
      "channel": 5,
      "note": 63,
      "start": 18.509,
      "duration": 0.1062,
      "velocity": 91,
      "chip": "ym2612"
    },
    {
      "channel": 0,
      "note": 75,
      "start": 18.6149,
      "duration": 0.1144,
      "velocity": 127,
      "chip": "ym2612"
    },
    {
      "channel": 2,
      "note": 42,
      "start": 18.6151,
      "duration": 0.0873,
      "velocity": 127,
      "chip": "ym2612"
    },
    {
      "channel": 0,
      "note": 75,
      "start": 18.7295,
      "duration": 0.1069,
      "velocity": 127,
      "chip": "ym2612"
    },
    {
      "channel": 1,
      "note": 48,
      "start": 18.7297,
      "duration": 0.1692,
      "velocity": 91,
      "chip": "ym2612"
    },
    {
      "channel": 2,
      "note": 46,
      "start": 18.73,
      "duration": 0.0796,
      "velocity": 127,
      "chip": "ym2612"
    },
    {
      "channel": 0,
      "note": 66,
      "start": 18.838,
      "duration": 0.1054,
      "velocity": 127,
      "chip": "ym2612"
    },
    {
      "channel": 2,
      "note": 46,
      "start": 18.8383,
      "duration": 0.0785,
      "velocity": 127,
      "chip": "ym2612"
    },
    {
      "channel": 0,
      "note": 32,
      "start": 18.9452,
      "duration": 0.1054,
      "velocity": 107,
      "chip": "ym2612"
    },
    {
      "channel": 1,
      "note": 48,
      "start": 18.9454,
      "duration": 0.1677,
      "velocity": 91,
      "chip": "ym2612"
    },
    {
      "channel": 2,
      "note": 48,
      "start": 18.9458,
      "duration": 0.0782,
      "velocity": 127,
      "chip": "ym2612"
    },
    {
      "channel": 3,
      "note": 60,
      "start": 18.946,
      "duration": 1.2854,
      "velocity": 100,
      "chip": "ym2612"
    },
    {
      "channel": 4,
      "note": 67,
      "start": 18.9462,
      "duration": 1.2854,
      "velocity": 100,
      "chip": "ym2612"
    },
    {
      "channel": 5,
      "note": 75,
      "start": 18.9465,
      "duration": 0.1062,
      "velocity": 91,
      "chip": "ym2612"
    },
    {
      "channel": 0,
      "note": 75,
      "start": 19.0523,
      "duration": 0.1054,
      "velocity": 127,
      "chip": "ym2612"
    },
    {
      "channel": 2,
      "note": 48,
      "start": 19.0526,
      "duration": 0.0784,
      "velocity": 127,
      "chip": "ym2612"
    },
    {
      "channel": 0,
      "note": 75,
      "start": 19.158,
      "duration": 0.1069,
      "velocity": 127,
      "chip": "ym2612"
    },
    {
      "channel": 1,
      "note": 49,
      "start": 19.1582,
      "duration": 0.1693,
      "velocity": 91,
      "chip": "ym2612"
    },
    {
      "channel": 2,
      "note": 46,
      "start": 19.1585,
      "duration": 0.0796,
      "velocity": 127,
      "chip": "ym2612"
    },
    {
      "channel": 0,
      "note": 32,
      "start": 19.2666,
      "duration": 0.1054,
      "velocity": 107,
      "chip": "ym2612"
    },
    {
      "channel": 2,
      "note": 46,
      "start": 19.2669,
      "duration": 0.0785,
      "velocity": 127,
      "chip": "ym2612"
    },
    {
      "channel": 5,
      "note": 75,
      "start": 19.2675,
      "duration": 0.1075,
      "velocity": 91,
      "chip": "ym2612"
    },
    {
      "channel": 0,
      "note": 67,
      "start": 19.374,
      "duration": 0.1052,
      "velocity": 112,
      "chip": "ym2612"
    },
    {
      "channel": 1,
      "note": 48,
      "start": 19.3742,
      "duration": 0.2747,
      "velocity": 91,
      "chip": "ym2612"
    },
    {
      "channel": 2,
      "note": 49,
      "start": 19.3745,
      "duration": 0.0779,
      "velocity": 127,
      "chip": "ym2612"
    },
    {
      "channel": 0,
      "note": 32,
      "start": 19.4809,
      "duration": 0.1054,
      "velocity": 107,
      "chip": "ym2612"
    },
    {
      "channel": 2,
      "note": 49,
      "start": 19.4812,
      "duration": 0.0784,
      "velocity": 127,
      "chip": "ym2612"
    },
    {
      "channel": 0,
      "note": 32,
      "start": 19.588,
      "duration": 0.1054,
      "velocity": 107,
      "chip": "ym2612"
    },
    {
      "channel": 2,
      "note": 46,
      "start": 19.5883,
      "duration": 0.0785,
      "velocity": 127,
      "chip": "ym2612"
    },
    {
      "channel": 5,
      "note": 75,
      "start": 19.5885,
      "duration": 0.1076,
      "velocity": 91,
      "chip": "ym2612"
    },
    {
      "channel": 0,
      "note": 67,
      "start": 19.6951,
      "duration": 0.1054,
      "velocity": 112,
      "chip": "ym2612"
    },
    {
      "channel": 1,
      "note": 51,
      "start": 19.6954,
      "duration": 0.2748,
      "velocity": 91,
      "chip": "ym2612"
    },
    {
      "channel": 2,
      "note": 46,
      "start": 19.6957,
      "duration": 0.0781,
      "velocity": 127,
      "chip": "ym2612"
    },
    {
      "channel": 0,
      "note": 32,
      "start": 19.8023,
      "duration": 0.1054,
      "velocity": 127,
      "chip": "ym2612"
    },
    {
      "channel": 2,
      "note": 48,
      "start": 19.8026,
      "duration": 0.0784,
      "velocity": 127,
      "chip": "ym2612"
    },
    {
      "channel": 0,
      "note": 75,
      "start": 19.9094,
      "duration": 0.1054,
      "velocity": 127,
      "chip": "ym2612"
    },
    {
      "channel": 2,
      "note": 48,
      "start": 19.9097,
      "duration": 0.0784,
      "velocity": 127,
      "chip": "ym2612"
    },
    {
      "channel": 0,
      "note": 75,
      "start": 20.0166,
      "duration": 0.1054,
      "velocity": 127,
      "chip": "ym2612"
    },
    {
      "channel": 1,
      "note": 48,
      "start": 20.0168,
      "duration": 0.1677,
      "velocity": 91,
      "chip": "ym2612"
    },
    {
      "channel": 2,
      "note": 46,
      "start": 20.0171,
      "duration": 0.0781,
      "velocity": 127,
      "chip": "ym2612"
    },
    {
      "channel": 0,
      "note": 66,
      "start": 20.1239,
      "duration": 0.1052,
      "velocity": 127,
      "chip": "ym2612"
    },
    {
      "channel": 2,
      "note": 46,
      "start": 20.1242,
      "duration": 0.0781,
      "velocity": 127,
      "chip": "ym2612"
    },
    {
      "channel": 0,
      "note": 67,
      "start": 20.2308,
      "duration": 0.1054,
      "velocity": 112,
      "chip": "ym2612"
    },
    {
      "channel": 1,
      "note": 49,
      "start": 20.2311,
      "duration": 0.1677,
      "velocity": 91,
      "chip": "ym2612"
    },
    {
      "channel": 2,
      "note": 42,
      "start": 20.2314,
      "duration": 0.0781,
      "velocity": 127,
      "chip": "ym2612"
    },
    {
      "channel": 3,
      "note": 61,
      "start": 20.2316,
      "duration": 0.4284,
      "velocity": 100,
      "chip": "ym2612"
    },
    {
      "channel": 4,
      "note": 68,
      "start": 20.2319,
      "duration": 0.4284,
      "velocity": 100,
      "chip": "ym2612"
    },
    {
      "channel": 5,
      "note": 63,
      "start": 20.2321,
      "duration": 0.1062,
      "velocity": 91,
      "chip": "ym2612"
    },
    {
      "channel": 0,
      "note": 75,
      "start": 20.338,
      "duration": 0.1054,
      "velocity": 127,
      "chip": "ym2612"
    },
    {
      "channel": 2,
      "note": 42,
      "start": 20.3383,
      "duration": 0.0784,
      "velocity": 127,
      "chip": "ym2612"
    },
    {
      "channel": 0,
      "note": 75,
      "start": 20.4436,
      "duration": 0.1069,
      "velocity": 127,
      "chip": "ym2612"
    },
    {
      "channel": 1,
      "note": 48,
      "start": 20.4439,
      "duration": 0.1692,
      "velocity": 91,
      "chip": "ym2612"
    },
    {
      "channel": 2,
      "note": 46,
      "start": 20.4442,
      "duration": 0.0796,
      "velocity": 127,
      "chip": "ym2612"
    },
    {
      "channel": 0,
      "note": 66,
      "start": 20.5522,
      "duration": 0.1054,
      "velocity": 127,
      "chip": "ym2612"
    },
    {
      "channel": 2,
      "note": 46,
      "start": 20.5525,
      "duration": 0.0784,
      "velocity": 127,
      "chip": "ym2612"
    },
    {
      "channel": 0,
      "note": 32,
      "start": 20.6594,
      "duration": 0.1054,
      "velocity": 107,
      "chip": "ym2612"
    },
    {
      "channel": 1,
      "note": 48,
      "start": 20.6596,
      "duration": 0.1677,
      "velocity": 91,
      "chip": "ym2612"
    },
    {
      "channel": 2,
      "note": 48,
      "start": 20.6599,
      "duration": 0.0782,
      "velocity": 127,
      "chip": "ym2612"
    },
    {
      "channel": 3,
      "note": 60,
      "start": 20.6602,
      "duration": 1.2854,
      "velocity": 100,
      "chip": "ym2612"
    },
    {
      "channel": 4,
      "note": 67,
      "start": 20.6604,
      "duration": 1.2854,
      "velocity": 100,
      "chip": "ym2612"
    },
    {
      "channel": 5,
      "note": 75,
      "start": 20.6607,
      "duration": 0.1062,
      "velocity": 91,
      "chip": "ym2612"
    },
    {
      "channel": 0,
      "note": 75,
      "start": 20.7665,
      "duration": 0.1054,
      "velocity": 127,
      "chip": "ym2612"
    },
    {
      "channel": 2,
      "note": 48,
      "start": 20.7668,
      "duration": 0.0784,
      "velocity": 127,
      "chip": "ym2612"
    },
    {
      "channel": 0,
      "note": 75,
      "start": 20.8722,
      "duration": 0.1069,
      "velocity": 127,
      "chip": "ym2612"
    },
    {
      "channel": 1,
      "note": 49,
      "start": 20.8724,
      "duration": 0.1693,
      "velocity": 91,
      "chip": "ym2612"
    },
    {
      "channel": 2,
      "note": 46,
      "start": 20.8727,
      "duration": 0.0796,
      "velocity": 127,
      "chip": "ym2612"
    },
    {
      "channel": 0,
      "note": 32,
      "start": 20.9808,
      "duration": 0.1054,
      "velocity": 107,
      "chip": "ym2612"
    },
    {
      "channel": 2,
      "note": 46,
      "start": 20.9811,
      "duration": 0.0785,
      "velocity": 127,
      "chip": "ym2612"
    },
    {
      "channel": 5,
      "note": 75,
      "start": 20.9817,
      "duration": 0.1072,
      "velocity": 91,
      "chip": "ym2612"
    },
    {
      "channel": 0,
      "note": 67,
      "start": 21.0879,
      "duration": 0.1054,
      "velocity": 112,
      "chip": "ym2612"
    },
    {
      "channel": 1,
      "note": 48,
      "start": 21.0882,
      "duration": 0.275,
      "velocity": 91,
      "chip": "ym2612"
    },
    {
      "channel": 2,
      "note": 49,
      "start": 21.0885,
      "duration": 0.0781,
      "velocity": 127,
      "chip": "ym2612"
    },
    {
      "channel": 0,
      "note": 32,
      "start": 21.1951,
      "duration": 0.1054,
      "velocity": 107,
      "chip": "ym2612"
    },
    {
      "channel": 2,
      "note": 49,
      "start": 21.1954,
      "duration": 0.0784,
      "velocity": 127,
      "chip": "ym2612"
    },
    {
      "channel": 0,
      "note": 32,
      "start": 21.3022,
      "duration": 0.1054,
      "velocity": 107,
      "chip": "ym2612"
    },
    {
      "channel": 2,
      "note": 46,
      "start": 21.3025,
      "duration": 0.0785,
      "velocity": 127,
      "chip": "ym2612"
    },
    {
      "channel": 5,
      "note": 75,
      "start": 21.3027,
      "duration": 0.1076,
      "velocity": 91,
      "chip": "ym2612"
    },
    {
      "channel": 0,
      "note": 67,
      "start": 21.4093,
      "duration": 0.1054,
      "velocity": 112,
      "chip": "ym2612"
    },
    {
      "channel": 1,
      "note": 51,
      "start": 21.4096,
      "duration": 0.2748,
      "velocity": 91,
      "chip": "ym2612"
    },
    {
      "channel": 2,
      "note": 46,
      "start": 21.4099,
      "duration": 0.0781,
      "velocity": 127,
      "chip": "ym2612"
    },
    {
      "channel": 0,
      "note": 32,
      "start": 21.5165,
      "duration": 0.1054,
      "velocity": 127,
      "chip": "ym2612"
    },
    {
      "channel": 2,
      "note": 48,
      "start": 21.5168,
      "duration": 0.0784,
      "velocity": 127,
      "chip": "ym2612"
    },
    {
      "channel": 0,
      "note": 75,
      "start": 21.6238,
      "duration": 0.1052,
      "velocity": 127,
      "chip": "ym2612"
    },
    {
      "channel": 2,
      "note": 48,
      "start": 21.6241,
      "duration": 0.0781,
      "velocity": 127,
      "chip": "ym2612"
    },
    {
      "channel": 0,
      "note": 75,
      "start": 21.7307,
      "duration": 0.1054,
      "velocity": 127,
      "chip": "ym2612"
    },
    {
      "channel": 1,
      "note": 48,
      "start": 21.731,
      "duration": 0.1677,
      "velocity": 91,
      "chip": "ym2612"
    },
    {
      "channel": 2,
      "note": 46,
      "start": 21.7313,
      "duration": 0.0781,
      "velocity": 127,
      "chip": "ym2612"
    },
    {
      "channel": 0,
      "note": 66,
      "start": 21.8379,
      "duration": 0.1054,
      "velocity": 127,
      "chip": "ym2612"
    },
    {
      "channel": 2,
      "note": 46,
      "start": 21.8382,
      "duration": 0.0784,
      "velocity": 127,
      "chip": "ym2612"
    },
    {
      "channel": 0,
      "note": 67,
      "start": 21.945,
      "duration": 0.1054,
      "velocity": 112,
      "chip": "ym2612"
    },
    {
      "channel": 1,
      "note": 49,
      "start": 21.9452,
      "duration": 0.1678,
      "velocity": 91,
      "chip": "ym2612"
    },
    {
      "channel": 2,
      "note": 42,
      "start": 21.9455,
      "duration": 0.0781,
      "velocity": 127,
      "chip": "ym2612"
    },
    {
      "channel": 3,
      "note": 61,
      "start": 21.9458,
      "duration": 0.4286,
      "velocity": 100,
      "chip": "ym2612"
    },
    {
      "channel": 4,
      "note": 68,
      "start": 21.946,
      "duration": 0.4286,
      "velocity": 100,
      "chip": "ym2612"
    },
    {
      "channel": 5,
      "note": 63,
      "start": 21.9463,
      "duration": 0.1062,
      "velocity": 91,
      "chip": "ym2612"
    },
    {
      "channel": 0,
      "note": 75,
      "start": 22.0521,
      "duration": 0.1054,
      "velocity": 127,
      "chip": "ym2612"
    },
    {
      "channel": 2,
      "note": 42,
      "start": 22.0524,
      "duration": 0.0784,
      "velocity": 127,
      "chip": "ym2612"
    },
    {
      "channel": 0,
      "note": 75,
      "start": 22.1578,
      "duration": 0.1069,
      "velocity": 127,
      "chip": "ym2612"
    },
    {
      "channel": 1,
      "note": 48,
      "start": 22.158,
      "duration": 0.1692,
      "velocity": 91,
      "chip": "ym2612"
    },
    {
      "channel": 2,
      "note": 46,
      "start": 22.1583,
      "duration": 0.0796,
      "velocity": 127,
      "chip": "ym2612"
    },
    {
      "channel": 0,
      "note": 66,
      "start": 22.2664,
      "duration": 0.1054,
      "velocity": 127,
      "chip": "ym2612"
    },
    {
      "channel": 2,
      "note": 46,
      "start": 22.2667,
      "duration": 0.0784,
      "velocity": 127,
      "chip": "ym2612"
    },
    {
      "channel": 0,
      "note": 32,
      "start": 22.3738,
      "duration": 0.1052,
      "velocity": 107,
      "chip": "ym2612"
    },
    {
      "channel": 1,
      "note": 48,
      "start": 22.3741,
      "duration": 0.1674,
      "velocity": 91,
      "chip": "ym2612"
    },
    {
      "channel": 2,
      "note": 48,
      "start": 22.3744,
      "duration": 0.0779,
      "velocity": 127,
      "chip": "ym2612"
    },
    {
      "channel": 3,
      "note": 60,
      "start": 22.3746,
      "duration": 1.2941,
      "velocity": 100,
      "chip": "ym2612"
    },
    {
      "channel": 4,
      "note": 67,
      "start": 22.3749,
      "duration": 1.2941,
      "velocity": 100,
      "chip": "ym2612"
    },
    {
      "channel": 5,
      "note": 75,
      "start": 22.3751,
      "duration": 0.1059,
      "velocity": 91,
      "chip": "ym2612"
    },
    {
      "channel": 0,
      "note": 75,
      "start": 22.4807,
      "duration": 0.1054,
      "velocity": 127,
      "chip": "ym2612"
    },
    {
      "channel": 2,
      "note": 48,
      "start": 22.481,
      "duration": 0.0784,
      "velocity": 127,
      "chip": "ym2612"
    },
    {
      "channel": 0,
      "note": 75,
      "start": 22.5863,
      "duration": 0.1069,
      "velocity": 127,
      "chip": "ym2612"
    },
    {
      "channel": 1,
      "note": 49,
      "start": 22.5866,
      "duration": 0.1693,
      "velocity": 91,
      "chip": "ym2612"
    },
    {
      "channel": 2,
      "note": 46,
      "start": 22.5869,
      "duration": 0.0796,
      "velocity": 127,
      "chip": "ym2612"
    },
    {
      "channel": 0,
      "note": 32,
      "start": 22.695,
      "duration": 0.1054,
      "velocity": 107,
      "chip": "ym2612"
    },
    {
      "channel": 2,
      "note": 46,
      "start": 22.6953,
      "duration": 0.0785,
      "velocity": 127,
      "chip": "ym2612"
    },
    {
      "channel": 5,
      "note": 75,
      "start": 22.6959,
      "duration": 0.1075,
      "velocity": 91,
      "chip": "ym2612"
    },
    {
      "channel": 0,
      "note": 67,
      "start": 22.8021,
      "duration": 0.1054,
      "velocity": 112,
      "chip": "ym2612"
    },
    {
      "channel": 1,
      "note": 48,
      "start": 22.8023,
      "duration": 0.2749,
      "velocity": 91,
      "chip": "ym2612"
    },
    {
      "channel": 2,
      "note": 49,
      "start": 22.8026,
      "duration": 0.0781,
      "velocity": 127,
      "chip": "ym2612"
    },
    {
      "channel": 0,
      "note": 32,
      "start": 22.9092,
      "duration": 0.1054,
      "velocity": 107,
      "chip": "ym2612"
    },
    {
      "channel": 2,
      "note": 49,
      "start": 22.9095,
      "duration": 0.0785,
      "velocity": 127,
      "chip": "ym2612"
    },
    {
      "channel": 0,
      "note": 32,
      "start": 23.0164,
      "duration": 0.1143,
      "velocity": 107,
      "chip": "ym2612"
    },
    {
      "channel": 2,
      "note": 46,
      "start": 23.0167,
      "duration": 0.0784,
      "velocity": 127,
      "chip": "ym2612"
    },
    {
      "channel": 5,
      "note": 75,
      "start": 23.0169,
      "duration": 0.1168,
      "velocity": 91,
      "chip": "ym2612"
    },
    {
      "channel": 0,
      "note": 67,
      "start": 23.1324,
      "duration": 0.1054,
      "velocity": 112,
      "chip": "ym2612"
    },
    {
      "channel": 1,
      "note": 51,
      "start": 23.1327,
      "duration": 0.2748,
      "velocity": 91,
      "chip": "ym2612"
    },
    {
      "channel": 2,
      "note": 46,
      "start": 23.1332,
      "duration": 0.0779,
      "velocity": 127,
      "chip": "ym2612"
    },
    {
      "channel": 0,
      "note": 32,
      "start": 23.2396,
      "duration": 0.1054,
      "velocity": 127,
      "chip": "ym2612"
    },
    {
      "channel": 2,
      "note": 48,
      "start": 23.2399,
      "duration": 0.0784,
      "velocity": 127,
      "chip": "ym2612"
    },
    {
      "channel": 0,
      "note": 75,
      "start": 23.3467,
      "duration": 0.1054,
      "velocity": 127,
      "chip": "ym2612"
    },
    {
      "channel": 2,
      "note": 48,
      "start": 23.347,
      "duration": 0.0784,
      "velocity": 127,
      "chip": "ym2612"
    },
    {
      "channel": 0,
      "note": 75,
      "start": 23.4541,
      "duration": 0.1052,
      "velocity": 127,
      "chip": "ym2612"
    },
    {
      "channel": 1,
      "note": 48,
      "start": 23.4543,
      "duration": 0.1674,
      "velocity": 91,
      "chip": "ym2612"
    },
    {
      "channel": 2,
      "note": 46,
      "start": 23.4546,
      "duration": 0.0779,
      "velocity": 127,
      "chip": "ym2612"
    },
    {
      "channel": 0,
      "note": 66,
      "start": 23.561,
      "duration": 0.1054,
      "velocity": 127,
      "chip": "ym2612"
    },
    {
      "channel": 2,
      "note": 46,
      "start": 23.5613,
      "duration": 0.0784,
      "velocity": 127,
      "chip": "ym2612"
    },
    {
      "channel": 0,
      "note": 67,
      "start": 23.6681,
      "duration": 0.1054,
      "velocity": 112,
      "chip": "ym2612"
    },
    {
      "channel": 1,
      "note": 49,
      "start": 23.6683,
      "duration": 0.1677,
      "velocity": 91,
      "chip": "ym2612"
    },
    {
      "channel": 2,
      "note": 42,
      "start": 23.6686,
      "duration": 0.0781,
      "velocity": 127,
      "chip": "ym2612"
    },
    {
      "channel": 3,
      "note": 61,
      "start": 23.6689,
      "duration": 0.4284,
      "velocity": 100,
      "chip": "ym2612"
    },
    {
      "channel": 4,
      "note": 68,
      "start": 23.6691,
      "duration": 0.4284,
      "velocity": 100,
      "chip": "ym2612"
    },
    {
      "channel": 5,
      "note": 63,
      "start": 23.6694,
      "duration": 0.1062,
      "velocity": 91,
      "chip": "ym2612"
    },
    {
      "channel": 0,
      "note": 75,
      "start": 23.7752,
      "duration": 0.1054,
      "velocity": 127,
      "chip": "ym2612"
    },
    {
      "channel": 2,
      "note": 42,
      "start": 23.7755,
      "duration": 0.0784,
      "velocity": 127,
      "chip": "ym2612"
    },
    {
      "channel": 0,
      "note": 75,
      "start": 23.8809,
      "duration": 0.1069,
      "velocity": 127,
      "chip": "ym2612"
    },
    {
      "channel": 1,
      "note": 48,
      "start": 23.8812,
      "duration": 0.1691,
      "velocity": 91,
      "chip": "ym2612"
    },
    {
      "channel": 2,
      "note": 46,
      "start": 23.8815,
      "duration": 0.0796,
      "velocity": 127,
      "chip": "ym2612"
    },
    {
      "channel": 0,
      "note": 66,
      "start": 23.9895,
      "duration": 0.1054,
      "velocity": 127,
      "chip": "ym2612"
    },
    {
      "channel": 2,
      "note": 46,
      "start": 23.9898,
      "duration": 0.0784,
      "velocity": 127,
      "chip": "ym2612"
    },
    {
      "channel": 0,
      "note": 32,
      "start": 24.0967,
      "duration": 0.1054,
      "velocity": 107,
      "chip": "ym2612"
    },
    {
      "channel": 1,
      "note": 48,
      "start": 24.0969,
      "duration": 0.1677,
      "velocity": 91,
      "chip": "ym2612"
    },
    {
      "channel": 2,
      "note": 48,
      "start": 24.0972,
      "duration": 0.0782,
      "velocity": 127,
      "chip": "ym2612"
    },
    {
      "channel": 3,
      "note": 60,
      "start": 24.0975,
      "duration": 1.2943,
      "velocity": 100,
      "chip": "ym2612"
    },
    {
      "channel": 4,
      "note": 67,
      "start": 24.0977,
      "duration": 1.2943,
      "velocity": 100,
      "chip": "ym2612"
    },
    {
      "channel": 5,
      "note": 75,
      "start": 24.098,
      "duration": 0.1064,
      "velocity": 91,
      "chip": "ym2612"
    },
    {
      "channel": 0,
      "note": 75,
      "start": 24.204,
      "duration": 0.1052,
      "velocity": 127,
      "chip": "ym2612"
    },
    {
      "channel": 2,
      "note": 48,
      "start": 24.2043,
      "duration": 0.0782,
      "velocity": 127,
      "chip": "ym2612"
    },
    {
      "channel": 0,
      "note": 75,
      "start": 24.3095,
      "duration": 0.1069,
      "velocity": 127,
      "chip": "ym2612"
    },
    {
      "channel": 1,
      "note": 49,
      "start": 24.3097,
      "duration": 0.1693,
      "velocity": 91,
      "chip": "ym2612"
    },
    {
      "channel": 2,
      "note": 46,
      "start": 24.31,
      "duration": 0.0796,
      "velocity": 127,
      "chip": "ym2612"
    },
    {
      "channel": 0,
      "note": 32,
      "start": 24.4181,
      "duration": 0.1054,
      "velocity": 107,
      "chip": "ym2612"
    },
    {
      "channel": 2,
      "note": 46,
      "start": 24.4184,
      "duration": 0.0785,
      "velocity": 127,
      "chip": "ym2612"
    },
    {
      "channel": 5,
      "note": 75,
      "start": 24.419,
      "duration": 0.1072,
      "velocity": 91,
      "chip": "ym2612"
    },
    {
      "channel": 0,
      "note": 67,
      "start": 24.5252,
      "duration": 0.1054,
      "velocity": 112,
      "chip": "ym2612"
    },
    {
      "channel": 1,
      "note": 48,
      "start": 24.5254,
      "duration": 0.2749,
      "velocity": 91,
      "chip": "ym2612"
    },
    {
      "channel": 2,
      "note": 49,
      "start": 24.5257,
      "duration": 0.0781,
      "velocity": 127,
      "chip": "ym2612"
    },
    {
      "channel": 0,
      "note": 32,
      "start": 24.6323,
      "duration": 0.1054,
      "velocity": 107,
      "chip": "ym2612"
    },
    {
      "channel": 2,
      "note": 49,
      "start": 24.6326,
      "duration": 0.0784,
      "velocity": 127,
      "chip": "ym2612"
    },
    {
      "channel": 0,
      "note": 32,
      "start": 24.7395,
      "duration": 0.1054,
      "velocity": 107,
      "chip": "ym2612"
    },
    {
      "channel": 2,
      "note": 46,
      "start": 24.7398,
      "duration": 0.0785,
      "velocity": 127,
      "chip": "ym2612"
    },
    {
      "channel": 5,
      "note": 75,
      "start": 24.74,
      "duration": 0.1076,
      "velocity": 91,
      "chip": "ym2612"
    },
    {
      "channel": 0,
      "note": 67,
      "start": 24.8466,
      "duration": 0.1054,
      "velocity": 112,
      "chip": "ym2612"
    },
    {
      "channel": 1,
      "note": 51,
      "start": 24.8468,
      "duration": 0.2748,
      "velocity": 91,
      "chip": "ym2612"
    },
    {
      "channel": 2,
      "note": 46,
      "start": 24.8471,
      "duration": 0.0781,
      "velocity": 127,
      "chip": "ym2612"
    },
    {
      "channel": 0,
      "note": 32,
      "start": 24.954,
      "duration": 0.1052,
      "velocity": 127,
      "chip": "ym2612"
    },
    {
      "channel": 2,
      "note": 48,
      "start": 24.9543,
      "duration": 0.0782,
      "velocity": 127,
      "chip": "ym2612"
    },
    {
      "channel": 0,
      "note": 75,
      "start": 25.0609,
      "duration": 0.1054,
      "velocity": 127,
      "chip": "ym2612"
    },
    {
      "channel": 2,
      "note": 48,
      "start": 25.0612,
      "duration": 0.0784,
      "velocity": 127,
      "chip": "ym2612"
    },
    {
      "channel": 0,
      "note": 75,
      "start": 25.168,
      "duration": 0.1054,
      "velocity": 127,
      "chip": "ym2612"
    },
    {
      "channel": 1,
      "note": 48,
      "start": 25.1683,
      "duration": 0.1677,
      "velocity": 91,
      "chip": "ym2612"
    },
    {
      "channel": 2,
      "note": 46,
      "start": 25.1685,
      "duration": 0.0781,
      "velocity": 127,
      "chip": "ym2612"
    },
    {
      "channel": 0,
      "note": 66,
      "start": 25.2751,
      "duration": 0.1144,
      "velocity": 127,
      "chip": "ym2612"
    },
    {
      "channel": 2,
      "note": 46,
      "start": 25.2754,
      "duration": 0.0876,
      "velocity": 127,
      "chip": "ym2612"
    },
    {
      "channel": 0,
      "note": 67,
      "start": 25.3912,
      "duration": 0.1054,
      "velocity": 112,
      "chip": "ym2612"
    },
    {
      "channel": 1,
      "note": 49,
      "start": 25.3915,
      "duration": 0.1677,
      "velocity": 91,
      "chip": "ym2612"
    },
    {
      "channel": 2,
      "note": 42,
      "start": 25.3917,
      "duration": 0.0781,
      "velocity": 127,
      "chip": "ym2612"
    },
    {
      "channel": 3,
      "note": 61,
      "start": 25.392,
      "duration": 0.4284,
      "velocity": 100,
      "chip": "ym2612"
    },
    {
      "channel": 4,
      "note": 68,
      "start": 25.3922,
      "duration": 0.4284,
      "velocity": 100,
      "chip": "ym2612"
    },
    {
      "channel": 5,
      "note": 63,
      "start": 25.3925,
      "duration": 0.1062,
      "velocity": 91,
      "chip": "ym2612"
    },
    {
      "channel": 0,
      "note": 75,
      "start": 25.4983,
      "duration": 0.1054,
      "velocity": 127,
      "chip": "ym2612"
    },
    {
      "channel": 2,
      "note": 42,
      "start": 25.4986,
      "duration": 0.0784,
      "velocity": 127,
      "chip": "ym2612"
    },
    {
      "channel": 0,
      "note": 75,
      "start": 25.604,
      "duration": 0.1069,
      "velocity": 127,
      "chip": "ym2612"
    },
    {
      "channel": 1,
      "note": 48,
      "start": 25.6043,
      "duration": 0.1691,
      "velocity": 91,
      "chip": "ym2612"
    },
    {
      "channel": 2,
      "note": 46,
      "start": 25.6046,
      "duration": 0.0796,
      "velocity": 127,
      "chip": "ym2612"
    },
    {
      "channel": 0,
      "note": 66,
      "start": 25.7126,
      "duration": 0.1054,
      "velocity": 127,
      "chip": "ym2612"
    },
    {
      "channel": 2,
      "note": 46,
      "start": 25.7132,
      "duration": 0.0781,
      "velocity": 127,
      "chip": "ym2612"
    },
    {
      "channel": 0,
      "note": 32,
      "start": 25.8198,
      "duration": 0.1054,
      "velocity": 107,
      "chip": "ym2612"
    },
    {
      "channel": 1,
      "note": 48,
      "start": 25.82,
      "duration": 0.1677,
      "velocity": 91,
      "chip": "ym2612"
    },
    {
      "channel": 2,
      "note": 48,
      "start": 25.8203,
      "duration": 0.0782,
      "velocity": 127,
      "chip": "ym2612"
    },
    {
      "channel": 3,
      "note": 60,
      "start": 25.8206,
      "duration": 1.2854,
      "velocity": 100,
      "chip": "ym2612"
    },
    {
      "channel": 4,
      "note": 67,
      "start": 25.8208,
      "duration": 1.2854,
      "velocity": 100,
      "chip": "ym2612"
    },
    {
      "channel": 5,
      "note": 75,
      "start": 25.8211,
      "duration": 0.1062,
      "velocity": 91,
      "chip": "ym2612"
    },
    {
      "channel": 0,
      "note": 75,
      "start": 25.9269,
      "duration": 0.1054,
      "velocity": 127,
      "chip": "ym2612"
    },
    {
      "channel": 2,
      "note": 48,
      "start": 25.9272,
      "duration": 0.0784,
      "velocity": 127,
      "chip": "ym2612"
    },
    {
      "channel": 0,
      "note": 75,
      "start": 26.0326,
      "duration": 0.1069,
      "velocity": 127,
      "chip": "ym2612"
    },
    {
      "channel": 1,
      "note": 49,
      "start": 26.033,
      "duration": 0.169,
      "velocity": 91,
      "chip": "ym2612"
    },
    {
      "channel": 2,
      "note": 46,
      "start": 26.0334,
      "duration": 0.0793,
      "velocity": 127,
      "chip": "ym2612"
    },
    {
      "channel": 0,
      "note": 32,
      "start": 26.1412,
      "duration": 0.1054,
      "velocity": 107,
      "chip": "ym2612"
    },
    {
      "channel": 2,
      "note": 46,
      "start": 26.1415,
      "duration": 0.0785,
      "velocity": 127,
      "chip": "ym2612"
    },
    {
      "channel": 5,
      "note": 75,
      "start": 26.1421,
      "duration": 0.1072,
      "velocity": 91,
      "chip": "ym2612"
    },
    {
      "channel": 0,
      "note": 67,
      "start": 26.2483,
      "duration": 0.1054,
      "velocity": 112,
      "chip": "ym2612"
    },
    {
      "channel": 1,
      "note": 48,
      "start": 26.2485,
      "duration": 0.2749,
      "velocity": 91,
      "chip": "ym2612"
    },
    {
      "channel": 2,
      "note": 49,
      "start": 26.2488,
      "duration": 0.0781,
      "velocity": 127,
      "chip": "ym2612"
    },
    {
      "channel": 0,
      "note": 32,
      "start": 26.3554,
      "duration": 0.1054,
      "velocity": 107,
      "chip": "ym2612"
    },
    {
      "channel": 2,
      "note": 49,
      "start": 26.3557,
      "duration": 0.0784,
      "velocity": 127,
      "chip": "ym2612"
    },
    {
      "channel": 0,
      "note": 32,
      "start": 26.4626,
      "duration": 0.1054,
      "velocity": 107,
      "chip": "ym2612"
    },
    {
      "channel": 2,
      "note": 46,
      "start": 26.4631,
      "duration": 0.0782,
      "velocity": 127,
      "chip": "ym2612"
    },
    {
      "channel": 5,
      "note": 75,
      "start": 26.4634,
      "duration": 0.1074,
      "velocity": 91,
      "chip": "ym2612"
    },
    {
      "channel": 0,
      "note": 67,
      "start": 26.5697,
      "duration": 0.1054,
      "velocity": 112,
      "chip": "ym2612"
    },
    {
      "channel": 1,
      "note": 51,
      "start": 26.57,
      "duration": 0.2748,
      "velocity": 91,
      "chip": "ym2612"
    },
    {
      "channel": 2,
      "note": 46,
      "start": 26.5702,
      "duration": 0.0781,
      "velocity": 127,
      "chip": "ym2612"
    },
    {
      "channel": 0,
      "note": 32,
      "start": 26.6768,
      "duration": 0.1054,
      "velocity": 127,
      "chip": "ym2612"
    },
    {
      "channel": 2,
      "note": 48,
      "start": 26.6771,
      "duration": 0.0784,
      "velocity": 127,
      "chip": "ym2612"
    },
    {
      "channel": 0,
      "note": 75,
      "start": 26.7843,
      "duration": 0.1051,
      "velocity": 127,
      "chip": "ym2612"
    },
    {
      "channel": 2,
      "note": 48,
      "start": 26.7846,
      "duration": 0.0781,
      "velocity": 127,
      "chip": "ym2612"
    },
    {
      "channel": 0,
      "note": 75,
      "start": 26.8911,
      "duration": 0.1054,
      "velocity": 127,
      "chip": "ym2612"
    },
    {
      "channel": 1,
      "note": 48,
      "start": 26.8914,
      "duration": 0.1677,
      "velocity": 91,
      "chip": "ym2612"
    },
    {
      "channel": 2,
      "note": 46,
      "start": 26.8917,
      "duration": 0.0781,
      "velocity": 127,
      "chip": "ym2612"
    },
    {
      "channel": 0,
      "note": 66,
      "start": 26.9983,
      "duration": 0.1054,
      "velocity": 127,
      "chip": "ym2612"
    },
    {
      "channel": 2,
      "note": 46,
      "start": 26.9985,
      "duration": 0.0784,
      "velocity": 127,
      "chip": "ym2612"
    },
    {
      "channel": 0,
      "note": 67,
      "start": 27.1054,
      "duration": 0.1054,
      "velocity": 112,
      "chip": "ym2612"
    },
    {
      "channel": 1,
      "note": 49,
      "start": 27.1056,
      "duration": 0.1677,
      "velocity": 91,
      "chip": "ym2612"
    },
    {
      "channel": 2,
      "note": 42,
      "start": 27.1059,
      "duration": 0.0781,
      "velocity": 127,
      "chip": "ym2612"
    },
    {
      "channel": 3,
      "note": 61,
      "start": 27.1062,
      "duration": 0.4285,
      "velocity": 100,
      "chip": "ym2612"
    },
    {
      "channel": 4,
      "note": 68,
      "start": 27.1064,
      "duration": 0.4283,
      "velocity": 100,
      "chip": "ym2612"
    },
    {
      "channel": 5,
      "note": 63,
      "start": 27.1067,
      "duration": 0.1065,
      "velocity": 91,
      "chip": "ym2612"
    },
    {
      "channel": 0,
      "note": 75,
      "start": 27.2125,
      "duration": 0.1054,
      "velocity": 127,
      "chip": "ym2612"
    },
    {
      "channel": 2,
      "note": 42,
      "start": 27.2131,
      "duration": 0.0782,
      "velocity": 127,
      "chip": "ym2612"
    },
    {
      "channel": 0,
      "note": 75,
      "start": 27.3182,
      "duration": 0.1069,
      "velocity": 127,
      "chip": "ym2612"
    },
    {
      "channel": 1,
      "note": 48,
      "start": 27.3184,
      "duration": 0.1691,
      "velocity": 91,
      "chip": "ym2612"
    },
    {
      "channel": 2,
      "note": 46,
      "start": 27.3187,
      "duration": 0.0796,
      "velocity": 127,
      "chip": "ym2612"
    },
    {
      "channel": 0,
      "note": 66,
      "start": 27.4268,
      "duration": 0.1054,
      "velocity": 127,
      "chip": "ym2612"
    },
    {
      "channel": 2,
      "note": 46,
      "start": 27.4271,
      "duration": 0.0784,
      "velocity": 127,
      "chip": "ym2612"
    },
    {
      "channel": 0,
      "note": 32,
      "start": 27.5342,
      "duration": 0.864,
      "velocity": 127,
      "chip": "ym2612"
    },
    {
      "channel": 2,
      "note": 48,
      "start": 27.5346,
      "duration": 0.087,
      "velocity": 127,
      "chip": "ym2612"
    },
    {
      "channel": 5,
      "note": 75,
      "start": 27.535,
      "duration": 0.1137,
      "velocity": 91,
      "chip": "ym2612"
    },
    {
      "channel": 2,
      "note": 48,
      "start": 27.6486,
      "duration": 0.0801,
      "velocity": 127,
      "chip": "ym2612"
    },
    {
      "channel": 2,
      "note": 46,
      "start": 27.7558,
      "duration": 0.0801,
      "velocity": 127,
      "chip": "ym2612"
    },
    {
      "channel": 2,
      "note": 46,
      "start": 27.8632,
      "duration": 0.08,
      "velocity": 127,
      "chip": "ym2612"
    },
    {
      "channel": 5,
      "note": 75,
      "start": 27.8634,
      "duration": 0.1067,
      "velocity": 91,
      "chip": "ym2612"
    },
    {
      "channel": 2,
      "note": 49,
      "start": 27.97,
      "duration": 0.0801,
      "velocity": 127,
      "chip": "ym2612"
    },
    {
      "channel": 2,
      "note": 49,
      "start": 28.0772,
      "duration": 0.0801,
      "velocity": 127,
      "chip": "ym2612"
    },
    {
      "channel": 2,
      "note": 46,
      "start": 28.1843,
      "duration": 0.0801,
      "velocity": 127,
      "chip": "ym2612"
    },
    {
      "channel": 5,
      "note": 75,
      "start": 28.1845,
      "duration": 0.107,
      "velocity": 91,
      "chip": "ym2612"
    },
    {
      "channel": 2,
      "note": 46,
      "start": 28.2915,
      "duration": 0.0801,
      "velocity": 127,
      "chip": "ym2612"
    },
    {
      "channel": 2,
      "note": 48,
      "start": 28.3985,
      "duration": 0.0801,
      "velocity": 127,
      "chip": "ym2612"
    },
    {
      "channel": 2,
      "note": 48,
      "start": 28.5057,
      "duration": 0.0801,
      "velocity": 127,
      "chip": "ym2612"
    },
    {
      "channel": 2,
      "note": 46,
      "start": 28.6131,
      "duration": 0.0801,
      "velocity": 127,
      "chip": "ym2612"
    },
    {
      "channel": 2,
      "note": 46,
      "start": 28.72,
      "duration": 0.0801,
      "velocity": 127,
      "chip": "ym2612"
    },
    {
      "channel": 2,
      "note": 42,
      "start": 28.8271,
      "duration": 0.0801,
      "velocity": 127,
      "chip": "ym2612"
    },
    {
      "channel": 5,
      "note": 63,
      "start": 28.8273,
      "duration": 0.107,
      "velocity": 91,
      "chip": "ym2612"
    },
    {
      "channel": 2,
      "note": 42,
      "start": 28.9343,
      "duration": 0.0801,
      "velocity": 127,
      "chip": "ym2612"
    },
    {
      "channel": 2,
      "note": 46,
      "start": 29.0414,
      "duration": 0.0801,
      "velocity": 127,
      "chip": "ym2612"
    },
    {
      "channel": 2,
      "note": 46,
      "start": 29.1485,
      "duration": 0.0801,
      "velocity": 127,
      "chip": "ym2612"
    },
    {
      "channel": 2,
      "note": 48,
      "start": 29.2557,
      "duration": 0.0801,
      "velocity": 127,
      "chip": "ym2612"
    },
    {
      "channel": 5,
      "note": 75,
      "start": 29.2559,
      "duration": 0.1072,
      "velocity": 91,
      "chip": "ym2612"
    },
    {
      "channel": 2,
      "note": 48,
      "start": 29.3631,
      "duration": 0.0801,
      "velocity": 127,
      "chip": "ym2612"
    },
    {
      "channel": 2,
      "note": 46,
      "start": 29.4699,
      "duration": 0.0802,
      "velocity": 127,
      "chip": "ym2612"
    },
    {
      "channel": 2,
      "note": 46,
      "start": 29.5771,
      "duration": 0.0801,
      "velocity": 127,
      "chip": "ym2612"
    },
    {
      "channel": 5,
      "note": 75,
      "start": 29.5773,
      "duration": 0.107,
      "velocity": 91,
      "chip": "ym2612"
    },
    {
      "channel": 2,
      "note": 49,
      "start": 29.6842,
      "duration": 0.0801,
      "velocity": 127,
      "chip": "ym2612"
    },
    {
      "channel": 2,
      "note": 49,
      "start": 29.7914,
      "duration": 0.089,
      "velocity": 127,
      "chip": "ym2612"
    },
    {
      "channel": 2,
      "note": 46,
      "start": 29.9074,
      "duration": 0.0801,
      "velocity": 127,
      "chip": "ym2612"
    },
    {
      "channel": 5,
      "note": 75,
      "start": 29.9076,
      "duration": 0.107,
      "velocity": 91,
      "chip": "ym2612"
    },
    {
      "channel": 2,
      "note": 46,
      "start": 30.0146,
      "duration": 0.0801,
      "velocity": 127,
      "chip": "ym2612"
    },
    {
      "channel": 2,
      "note": 48,
      "start": 30.1216,
      "duration": 0.0802,
      "velocity": 127,
      "chip": "ym2612"
    },
    {
      "channel": 2,
      "note": 48,
      "start": 30.2288,
      "duration": 0.0801,
      "velocity": 127,
      "chip": "ym2612"
    },
    {
      "channel": 2,
      "note": 46,
      "start": 30.336,
      "duration": 0.0801,
      "velocity": 127,
      "chip": "ym2612"
    },
    {
      "channel": 2,
      "note": 46,
      "start": 30.4434,
      "duration": 0.0798,
      "velocity": 127,
      "chip": "ym2612"
    },
    {
      "channel": 2,
      "note": 42,
      "start": 30.5503,
      "duration": 0.0801,
      "velocity": 127,
      "chip": "ym2612"
    },
    {
      "channel": 5,
      "note": 63,
      "start": 30.5505,
      "duration": 0.1069,
      "velocity": 91,
      "chip": "ym2612"
    },
    {
      "channel": 2,
      "note": 42,
      "start": 30.6574,
      "duration": 0.0801,
      "velocity": 127,
      "chip": "ym2612"
    },
    {
      "channel": 2,
      "note": 46,
      "start": 30.7645,
      "duration": 0.0801,
      "velocity": 127,
      "chip": "ym2612"
    },
    {
      "channel": 2,
      "note": 46,
      "start": 30.8716,
      "duration": 0.0801,
      "velocity": 127,
      "chip": "ym2612"
    },
    {
      "channel": 1,
      "note": 80,
      "start": 30.9802,
      "duration": 3.4466,
      "velocity": 1,
      "chip": "ym2612"
    },
    {
      "channel": 2,
      "note": 48,
      "start": 30.9805,
      "duration": 0.0785,
      "velocity": 127,
      "chip": "ym2612"
    },
    {
      "channel": 3,
      "note": 27,
      "start": 30.9807,
      "duration": 0.427,
      "velocity": 100,
      "chip": "ym2612"
    },
    {
      "channel": 4,
      "note": 34,
      "start": 30.9809,
      "duration": 0.8555,
      "velocity": 100,
      "chip": "ym2612"
    },
    {
      "channel": 5,
      "note": 75,
      "start": 30.9811,
      "duration": 0.1051,
      "velocity": 91,
      "chip": "ym2612"
    },
    {
      "channel": 2,
      "note": 48,
      "start": 31.0859,
      "duration": 0.0801,
      "velocity": 127,
      "chip": "ym2612"
    },
    {
      "channel": 2,
      "note": 46,
      "start": 31.1933,
      "duration": 0.0799,
      "velocity": 127,
      "chip": "ym2612"
    },
    {
      "channel": 2,
      "note": 46,
      "start": 31.3002,
      "duration": 0.0801,
      "velocity": 127,
      "chip": "ym2612"
    },
    {
      "channel": 5,
      "note": 75,
      "start": 31.3006,
      "duration": 0.1074,
      "velocity": 91,
      "chip": "ym2612"
    },
    {
      "channel": 2,
      "note": 49,
      "start": 31.4077,
      "duration": 0.0799,
      "velocity": 127,
      "chip": "ym2612"
    },
    {
      "channel": 3,
      "note": 34,
      "start": 31.4079,
      "duration": 0.4283,
      "velocity": 100,
      "chip": "ym2612"
    },
    {
      "channel": 2,
      "note": 49,
      "start": 31.5145,
      "duration": 0.0801,
      "velocity": 127,
      "chip": "ym2612"
    },
    {
      "channel": 2,
      "note": 46,
      "start": 31.6216,
      "duration": 0.0801,
      "velocity": 127,
      "chip": "ym2612"
    },
    {
      "channel": 5,
      "note": 75,
      "start": 31.622,
      "duration": 0.107,
      "velocity": 91,
      "chip": "ym2612"
    },
    {
      "channel": 2,
      "note": 46,
      "start": 31.7287,
      "duration": 0.0801,
      "velocity": 127,
      "chip": "ym2612"
    },
    {
      "channel": 2,
      "note": 48,
      "start": 31.8361,
      "duration": 0.08,
      "velocity": 127,
      "chip": "ym2612"
    },
    {
      "channel": 3,
      "note": 39,
      "start": 31.8364,
      "duration": 0.4374,
      "velocity": 100,
      "chip": "ym2612"
    },
    {
      "channel": 4,
      "note": 41,
      "start": 31.8366,
      "duration": 0.8678,
      "velocity": 100,
      "chip": "ym2612"
    },
    {
      "channel": 2,
      "note": 48,
      "start": 31.9433,
      "duration": 0.0799,
      "velocity": 127,
      "chip": "ym2612"
    },
    {
      "channel": 2,
      "note": 46,
      "start": 32.0502,
      "duration": 0.089,
      "velocity": 127,
      "chip": "ym2612"
    },
    {
      "channel": 2,
      "note": 46,
      "start": 32.1662,
      "duration": 0.0801,
      "velocity": 127,
      "chip": "ym2612"
    },
    {
      "channel": 2,
      "note": 42,
      "start": 32.2738,
      "duration": 0.0798,
      "velocity": 127,
      "chip": "ym2612"
    },
    {
      "channel": 3,
      "note": 46,
      "start": 32.274,
      "duration": 0.4301,
      "velocity": 100,
      "chip": "ym2612"
    },
    {
      "channel": 5,
      "note": 63,
      "start": 32.2743,
      "duration": 0.1064,
      "velocity": 91,
      "chip": "ym2612"
    },
    {
      "channel": 2,
      "note": 42,
      "start": 32.3805,
      "duration": 0.0801,
      "velocity": 127,
      "chip": "ym2612"
    },
    {
      "channel": 2,
      "note": 46,
      "start": 32.4876,
      "duration": 0.0801,
      "velocity": 127,
      "chip": "ym2612"
    },
    {
      "channel": 2,
      "note": 46,
      "start": 32.5947,
      "duration": 0.0801,
      "velocity": 127,
      "chip": "ym2612"
    },
    {
      "channel": 0,
      "note": 67,
      "start": 32.7034,
      "duration": 0.1052,
      "velocity": 112,
      "chip": "ym2612"
    },
    {
      "channel": 2,
      "note": 48,
      "start": 32.7041,
      "duration": 0.0779,
      "velocity": 127,
      "chip": "ym2612"
    },
    {
      "channel": 3,
      "note": 51,
      "start": 32.7044,
      "duration": 0.4281,
      "velocity": 100,
      "chip": "ym2612"
    },
    {
      "channel": 4,
      "note": 51,
      "start": 32.7046,
      "duration": 0.8567,
      "velocity": 100,
      "chip": "ym2612"
    },
    {
      "channel": 5,
      "note": 75,
      "start": 32.7048,
      "duration": 0.1061,
      "velocity": 91,
      "chip": "ym2612"
    },
    {
      "channel": 0,
      "note": 67,
      "start": 32.8104,
      "duration": 0.1054,
      "velocity": 112,
      "chip": "ym2612"
    },
    {
      "channel": 2,
      "note": 48,
      "start": 32.8107,
      "duration": 0.0783,
      "velocity": 127,
      "chip": "ym2612"
    },
    {
      "channel": 0,
      "note": 67,
      "start": 32.9176,
      "duration": 0.1055,
      "velocity": 112,
      "chip": "ym2612"
    },
    {
      "channel": 2,
      "note": 46,
      "start": 32.9178,
      "duration": 0.0783,
      "velocity": 127,
      "chip": "ym2612"
    },
    {
      "channel": 0,
      "note": 67,
      "start": 33.0248,
      "duration": 0.1053,
      "velocity": 112,
      "chip": "ym2612"
    },
    {
      "channel": 2,
      "note": 46,
      "start": 33.0251,
      "duration": 0.0782,
      "velocity": 127,
      "chip": "ym2612"
    },
    {
      "channel": 5,
      "note": 75,
      "start": 33.0255,
      "duration": 0.1076,
      "velocity": 91,
      "chip": "ym2612"
    },
    {
      "channel": 0,
      "note": 67,
      "start": 33.1318,
      "duration": 0.1054,
      "velocity": 112,
      "chip": "ym2612"
    },
    {
      "channel": 2,
      "note": 49,
      "start": 33.1324,
      "duration": 0.0781,
      "velocity": 127,
      "chip": "ym2612"
    },
    {
      "channel": 3,
      "note": 58,
      "start": 33.1327,
      "duration": 0.4283,
      "velocity": 100,
      "chip": "ym2612"
    },
    {
      "channel": 0,
      "note": 67,
      "start": 33.2389,
      "duration": 0.1054,
      "velocity": 112,
      "chip": "ym2612"
    },
    {
      "channel": 2,
      "note": 49,
      "start": 33.2392,
      "duration": 0.0783,
      "velocity": 127,
      "chip": "ym2612"
    },
    {
      "channel": 0,
      "note": 67,
      "start": 33.3461,
      "duration": 0.1054,
      "velocity": 112,
      "chip": "ym2612"
    },
    {
      "channel": 2,
      "note": 46,
      "start": 33.3463,
      "duration": 0.0784,
      "velocity": 127,
      "chip": "ym2612"
    },
    {
      "channel": 5,
      "note": 75,
      "start": 33.3468,
      "duration": 0.1072,
      "velocity": 91,
      "chip": "ym2612"
    },
    {
      "channel": 0,
      "note": 67,
      "start": 33.4534,
      "duration": 0.1052,
      "velocity": 112,
      "chip": "ym2612"
    },
    {
      "channel": 2,
      "note": 46,
      "start": 33.4537,
      "duration": 0.0781,
      "velocity": 127,
      "chip": "ym2612"
    },
    {
      "channel": 0,
      "note": 67,
      "start": 33.5603,
      "duration": 0.1054,
      "velocity": 112,
      "chip": "ym2612"
    },
    {
      "channel": 2,
      "note": 48,
      "start": 33.561,
      "duration": 0.0781,
      "velocity": 127,
      "chip": "ym2612"
    },
    {
      "channel": 3,
      "note": 63,
      "start": 33.5612,
      "duration": 0.4283,
      "velocity": 100,
      "chip": "ym2612"
    },
    {
      "channel": 4,
      "note": 58,
      "start": 33.5615,
      "duration": 0.8717,
      "velocity": 100,
      "chip": "ym2612"
    },
    {
      "channel": 0,
      "note": 67,
      "start": 33.6675,
      "duration": 0.1056,
      "velocity": 112,
      "chip": "ym2612"
    },
    {
      "channel": 2,
      "note": 48,
      "start": 33.6678,
      "duration": 0.0783,
      "velocity": 127,
      "chip": "ym2612"
    },
    {
      "channel": 0,
      "note": 67,
      "start": 33.7748,
      "duration": 0.1052,
      "velocity": 112,
      "chip": "ym2612"
    },
    {
      "channel": 2,
      "note": 46,
      "start": 33.7751,
      "duration": 0.0782,
      "velocity": 127,
      "chip": "ym2612"
    },
    {
      "channel": 0,
      "note": 67,
      "start": 33.8817,
      "duration": 0.1054,
      "velocity": 112,
      "chip": "ym2612"
    },
    {
      "channel": 2,
      "note": 46,
      "start": 33.882,
      "duration": 0.0783,
      "velocity": 127,
      "chip": "ym2612"
    },
    {
      "channel": 0,
      "note": 67,
      "start": 33.9889,
      "duration": 0.0519,
      "velocity": 112,
      "chip": "ym2612"
    },
    {
      "channel": 2,
      "note": 42,
      "start": 33.9895,
      "duration": 0.0781,
      "velocity": 127,
      "chip": "ym2612"
    },
    {
      "channel": 3,
      "note": 70,
      "start": 33.9898,
      "duration": 0.4414,
      "velocity": 100,
      "chip": "ym2612"
    },
    {
      "channel": 5,
      "note": 63,
      "start": 33.9901,
      "duration": 0.1065,
      "velocity": 91,
      "chip": "ym2612"
    },
    {
      "channel": 0,
      "note": 67,
      "start": 34.0424,
      "duration": 0.0519,
      "velocity": 112,
      "chip": "ym2612"
    },
    {
      "channel": 0,
      "note": 67,
      "start": 34.096,
      "duration": 0.0519,
      "velocity": 112,
      "chip": "ym2612"
    },
    {
      "channel": 2,
      "note": 42,
      "start": 34.0963,
      "duration": 0.0784,
      "velocity": 127,
      "chip": "ym2612"
    },
    {
      "channel": 0,
      "note": 67,
      "start": 34.1496,
      "duration": 0.0519,
      "velocity": 112,
      "chip": "ym2612"
    },
    {
      "channel": 0,
      "note": 67,
      "start": 34.2034,
      "duration": 0.0516,
      "velocity": 112,
      "chip": "ym2612"
    },
    {
      "channel": 2,
      "note": 46,
      "start": 34.2037,
      "duration": 0.0781,
      "velocity": 127,
      "chip": "ym2612"
    },
    {
      "channel": 0,
      "note": 67,
      "start": 34.2567,
      "duration": 0.0608,
      "velocity": 112,
      "chip": "ym2612"
    },
    {
      "channel": 0,
      "note": 67,
      "start": 34.3192,
      "duration": 0.0519,
      "velocity": 112,
      "chip": "ym2612"
    },
    {
      "channel": 2,
      "note": 46,
      "start": 34.3195,
      "duration": 0.0784,
      "velocity": 127,
      "chip": "ym2612"
    },
    {
      "channel": 0,
      "note": 67,
      "start": 34.373,
      "duration": 0.0516,
      "velocity": 112,
      "chip": "ym2612"
    },
    {
      "channel": 0,
      "note": 32,
      "start": 34.4264,
      "duration": 0.1054,
      "velocity": 107,
      "chip": "ym2612"
    },
    {
      "channel": 1,
      "note": 60,
      "start": 34.4294,
      "duration": 0.2899,
      "velocity": 50,
      "chip": "ym2612"
    },
    {
      "channel": 2,
      "note": 48,
      "start": 34.4311,
      "duration": 0.0741,
      "velocity": 127,
      "chip": "ym2612"
    },
    {
      "channel": 3,
      "note": 84,
      "start": 34.4331,
      "duration": 0.004,
      "velocity": 89,
      "chip": "ym2612"
    },
    {
      "channel": 4,
      "note": 79,
      "start": 34.4349,
      "duration": 0.0024,
      "velocity": 89,
      "chip": "ym2612"
    },
    {
      "channel": 5,
      "note": 80,
      "start": 34.4367,
      "duration": 0.0986,
      "velocity": 1,
      "chip": "ym2612"
    },
    {
      "channel": 3,
      "note": 84,
      "start": 34.452,
      "duration": 0.0087,
      "velocity": 89,
      "chip": "ym2612"
    },
    {
      "channel": 4,
      "note": 79,
      "start": 34.4523,
      "duration": 0.0085,
      "velocity": 89,
      "chip": "ym2612"
    },
    {
      "channel": 3,
      "note": 84,
      "start": 34.4788,
      "duration": 0.0087,
      "velocity": 89,
      "chip": "ym2612"
    },
    {
      "channel": 4,
      "note": 79,
      "start": 34.479,
      "duration": 0.0085,
      "velocity": 89,
      "chip": "ym2612"
    },
    {
      "channel": 3,
      "note": 84,
      "start": 34.5056,
      "duration": 0.0087,
      "velocity": 89,
      "chip": "ym2612"
    },
    {
      "channel": 4,
      "note": 79,
      "start": 34.5059,
      "duration": 0.0085,
      "velocity": 89,
      "chip": "ym2612"
    },
    {
      "channel": 0,
      "note": 75,
      "start": 34.5338,
      "duration": 0.1051,
      "velocity": 127,
      "chip": "ym2612"
    },
    {
      "channel": 2,
      "note": 48,
      "start": 34.5342,
      "duration": 0.078,
      "velocity": 127,
      "chip": "ym2612"
    },
    {
      "channel": 3,
      "note": 84,
      "start": 34.5345,
      "duration": 0.0064,
      "velocity": 89,
      "chip": "ym2612"
    },
    {
      "channel": 4,
      "note": 79,
      "start": 34.5348,
      "duration": 0.0063,
      "velocity": 89,
      "chip": "ym2612"
    },
    {
      "channel": 5,
      "note": 75,
      "start": 34.5366,
      "duration": 0.1029,
      "velocity": 127,
      "chip": "ym2612"
    },
    {
      "channel": 3,
      "note": 84,
      "start": 34.559,
      "duration": 0.0087,
      "velocity": 89,
      "chip": "ym2612"
    },
    {
      "channel": 4,
      "note": 79,
      "start": 34.5593,
      "duration": 0.0085,
      "velocity": 89,
      "chip": "ym2612"
    },
    {
      "channel": 3,
      "note": 84,
      "start": 34.5858,
      "duration": 0.0087,
      "velocity": 89,
      "chip": "ym2612"
    },
    {
      "channel": 4,
      "note": 79,
      "start": 34.5861,
      "duration": 0.0085,
      "velocity": 89,
      "chip": "ym2612"
    },
    {
      "channel": 3,
      "note": 84,
      "start": 34.6126,
      "duration": 0.0087,
      "velocity": 89,
      "chip": "ym2612"
    },
    {
      "channel": 4,
      "note": 79,
      "start": 34.6132,
      "duration": 0.0083,
      "velocity": 89,
      "chip": "ym2612"
    },
    {
      "channel": 0,
      "note": 75,
      "start": 34.6391,
      "duration": 0.1069,
      "velocity": 127,
      "chip": "ym2612"
    },
    {
      "channel": 5,
      "note": 66,
      "start": 34.6412,
      "duration": 0.2147,
      "velocity": 127,
      "chip": "ym2612"
    },
    {
      "channel": 0,
      "note": 32,
      "start": 34.7478,
      "duration": 0.1054,
      "velocity": 107,
      "chip": "ym2612"
    },
    {
      "channel": 1,
      "note": 58,
      "start": 34.7481,
      "duration": 0.2927,
      "velocity": 50,
      "chip": "ym2612"
    },
    {
      "channel": 2,
      "note": 46,
      "start": 34.7484,
      "duration": 0.0782,
      "velocity": 127,
      "chip": "ym2612"
    },
    {
      "channel": 3,
      "note": 82,
      "start": 34.7486,
      "duration": 0.0067,
      "velocity": 89,
      "chip": "ym2612"
    },
    {
      "channel": 4,
      "note": 77,
      "start": 34.7489,
      "duration": 0.0066,
      "velocity": 89,
      "chip": "ym2612"
    },
    {
      "channel": 3,
      "note": 82,
      "start": 34.7736,
      "duration": 0.0084,
      "velocity": 89,
      "chip": "ym2612"
    },
    {
      "channel": 4,
      "note": 77,
      "start": 34.7739,
      "duration": 0.0083,
      "velocity": 89,
      "chip": "ym2612"
    },
    {
      "channel": 3,
      "note": 82,
      "start": 34.8002,
      "duration": 0.0087,
      "velocity": 89,
      "chip": "ym2612"
    },
    {
      "channel": 4,
      "note": 77,
      "start": 34.8005,
      "duration": 0.0085,
      "velocity": 89,
      "chip": "ym2612"
    },
    {
      "channel": 3,
      "note": 82,
      "start": 34.827,
      "duration": 0.0087,
      "velocity": 89,
      "chip": "ym2612"
    },
    {
      "channel": 4,
      "note": 77,
      "start": 34.8273,
      "duration": 0.0085,
      "velocity": 89,
      "chip": "ym2612"
    },
    {
      "channel": 0,
      "note": 67,
      "start": 34.8549,
      "duration": 0.1054,
      "velocity": 112,
      "chip": "ym2612"
    },
    {
      "channel": 2,
      "note": 46,
      "start": 34.8553,
      "duration": 0.0783,
      "velocity": 127,
      "chip": "ym2612"
    },
    {
      "channel": 3,
      "note": 82,
      "start": 34.8556,
      "duration": 0.0067,
      "velocity": 89,
      "chip": "ym2612"
    },
    {
      "channel": 4,
      "note": 77,
      "start": 34.8559,
      "duration": 0.0066,
      "velocity": 89,
      "chip": "ym2612"
    },
    {
      "channel": 5,
      "note": 83,
      "start": 34.8576,
      "duration": 0.1047,
      "velocity": 53,
      "chip": "ym2612"
    },
    {
      "channel": 3,
      "note": 82,
      "start": 34.8804,
      "duration": 0.0087,
      "velocity": 89,
      "chip": "ym2612"
    },
    {
      "channel": 4,
      "note": 77,
      "start": 34.8807,
      "duration": 0.0085,
      "velocity": 89,
      "chip": "ym2612"
    },
    {
      "channel": 3,
      "note": 82,
      "start": 34.9072,
      "duration": 0.0087,
      "velocity": 89,
      "chip": "ym2612"
    },
    {
      "channel": 4,
      "note": 77,
      "start": 34.9075,
      "duration": 0.0085,
      "velocity": 89,
      "chip": "ym2612"
    },
    {
      "channel": 3,
      "note": 82,
      "start": 34.934,
      "duration": 0.0087,
      "velocity": 89,
      "chip": "ym2612"
    },
    {
      "channel": 4,
      "note": 77,
      "start": 34.9343,
      "duration": 0.0088,
      "velocity": 89,
      "chip": "ym2612"
    },
    {
      "channel": 0,
      "note": 32,
      "start": 34.962,
      "duration": 0.1054,
      "velocity": 107,
      "chip": "ym2612"
    },
    {
      "channel": 5,
      "note": 75,
      "start": 34.9644,
      "duration": 0.1059,
      "velocity": 127,
      "chip": "ym2612"
    },
    {
      "channel": 0,
      "note": 32,
      "start": 35.0692,
      "duration": 0.1054,
      "velocity": 107,
      "chip": "ym2612"
    },
    {
      "channel": 1,
      "note": 54,
      "start": 35.0695,
      "duration": 0.1854,
      "velocity": 50,
      "chip": "ym2612"
    },
    {
      "channel": 2,
      "note": 42,
      "start": 35.0698,
      "duration": 0.0782,
      "velocity": 127,
      "chip": "ym2612"
    },
    {
      "channel": 3,
      "note": 78,
      "start": 35.07,
      "duration": 0.0067,
      "velocity": 89,
      "chip": "ym2612"
    },
    {
      "channel": 4,
      "note": 73,
      "start": 35.0703,
      "duration": 0.0066,
      "velocity": 89,
      "chip": "ym2612"
    },
    {
      "channel": 5,
      "note": 66,
      "start": 35.0721,
      "duration": 0.213,
      "velocity": 127,
      "chip": "ym2612"
    },
    {
      "channel": 3,
      "note": 78,
      "start": 35.0948,
      "duration": 0.0087,
      "velocity": 89,
      "chip": "ym2612"
    },
    {
      "channel": 4,
      "note": 73,
      "start": 35.0951,
      "duration": 0.0085,
      "velocity": 89,
      "chip": "ym2612"
    },
    {
      "channel": 3,
      "note": 78,
      "start": 35.1216,
      "duration": 0.0087,
      "velocity": 89,
      "chip": "ym2612"
    },
    {
      "channel": 4,
      "note": 73,
      "start": 35.1219,
      "duration": 0.0085,
      "velocity": 89,
      "chip": "ym2612"
    },
    {
      "channel": 3,
      "note": 78,
      "start": 35.1484,
      "duration": 0.0087,
      "velocity": 89,
      "chip": "ym2612"
    },
    {
      "channel": 4,
      "note": 73,
      "start": 35.1487,
      "duration": 0.0085,
      "velocity": 89,
      "chip": "ym2612"
    },
    {
      "channel": 0,
      "note": 67,
      "start": 35.1763,
      "duration": 0.1054,
      "velocity": 112,
      "chip": "ym2612"
    },
    {
      "channel": 2,
      "note": 42,
      "start": 35.1767,
      "duration": 0.0784,
      "velocity": 127,
      "chip": "ym2612"
    },
    {
      "channel": 3,
      "note": 78,
      "start": 35.177,
      "duration": 0.0067,
      "velocity": 89,
      "chip": "ym2612"
    },
    {
      "channel": 4,
      "note": 73,
      "start": 35.1773,
      "duration": 0.0066,
      "velocity": 89,
      "chip": "ym2612"
    },
    {
      "channel": 3,
      "note": 78,
      "start": 35.2018,
      "duration": 0.0087,
      "velocity": 89,
      "chip": "ym2612"
    },
    {
      "channel": 4,
      "note": 73,
      "start": 35.2021,
      "duration": 0.0085,
      "velocity": 89,
      "chip": "ym2612"
    },
    {
      "channel": 3,
      "note": 78,
      "start": 35.2286,
      "duration": 0.0087,
      "velocity": 89,
      "chip": "ym2612"
    },
    {
      "channel": 4,
      "note": 73,
      "start": 35.2289,
      "duration": 0.0085,
      "velocity": 89,
      "chip": "ym2612"
    },
    {
      "channel": 3,
      "note": 78,
      "start": 35.2555,
      "duration": 0.0087,
      "velocity": 89,
      "chip": "ym2612"
    },
    {
      "channel": 4,
      "note": 73,
      "start": 35.2558,
      "duration": 0.0085,
      "velocity": 89,
      "chip": "ym2612"
    },
    {
      "channel": 0,
      "note": 32,
      "start": 35.2837,
      "duration": 0.1051,
      "velocity": 127,
      "chip": "ym2612"
    },
    {
      "channel": 1,
      "note": 60,
      "start": 35.2841,
      "duration": 0.2922,
      "velocity": 50,
      "chip": "ym2612"
    },
    {
      "channel": 2,
      "note": 48,
      "start": 35.2844,
      "duration": 0.0779,
      "velocity": 127,
      "chip": "ym2612"
    },
    {
      "channel": 3,
      "note": 84,
      "start": 35.2847,
      "duration": 0.0063,
      "velocity": 89,
      "chip": "ym2612"
    },
    {
      "channel": 4,
      "note": 79,
      "start": 35.285,
      "duration": 0.0061,
      "velocity": 89,
      "chip": "ym2612"
    },
    {
      "channel": 5,
      "note": 83,
      "start": 35.2868,
      "duration": 0.1048,
      "velocity": 53,
      "chip": "ym2612"
    },
    {
      "channel": 3,
      "note": 84,
      "start": 35.309,
      "duration": 0.0087,
      "velocity": 89,
      "chip": "ym2612"
    },
    {
      "channel": 4,
      "note": 79,
      "start": 35.3093,
      "duration": 0.0085,
      "velocity": 89,
      "chip": "ym2612"
    },
    {
      "channel": 3,
      "note": 84,
      "start": 35.3359,
      "duration": 0.0087,
      "velocity": 89,
      "chip": "ym2612"
    },
    {
      "channel": 4,
      "note": 79,
      "start": 35.3361,
      "duration": 0.0085,
      "velocity": 89,
      "chip": "ym2612"
    },
    {
      "channel": 3,
      "note": 84,
      "start": 35.3627,
      "duration": 0.0087,
      "velocity": 89,
      "chip": "ym2612"
    },
    {
      "channel": 4,
      "note": 79,
      "start": 35.3632,
      "duration": 0.0083,
      "velocity": 89,
      "chip": "ym2612"
    },
    {
      "channel": 0,
      "note": 75,
      "start": 35.3906,
      "duration": 0.1054,
      "velocity": 127,
      "chip": "ym2612"
    },
    {
      "channel": 2,
      "note": 48,
      "start": 35.391,
      "duration": 0.0784,
      "velocity": 127,
      "chip": "ym2612"
    },
    {
      "channel": 3,
      "note": 84,
      "start": 35.3912,
      "duration": 0.0068,
      "velocity": 89,
      "chip": "ym2612"
    },
    {
      "channel": 4,
      "note": 79,
      "start": 35.3916,
      "duration": 0.0066,
      "velocity": 89,
      "chip": "ym2612"
    },
    {
      "channel": 5,
      "note": 75,
      "start": 35.3937,
      "duration": 0.1044,
      "velocity": 127,
      "chip": "ym2612"
    },
    {
      "channel": 3,
      "note": 84,
      "start": 35.4161,
      "duration": 0.0087,
      "velocity": 89,
      "chip": "ym2612"
    },
    {
      "channel": 4,
      "note": 79,
      "start": 35.4164,
      "duration": 0.0085,
      "velocity": 89,
      "chip": "ym2612"
    },
    {
      "channel": 3,
      "note": 84,
      "start": 35.4431,
      "duration": 0.0084,
      "velocity": 89,
      "chip": "ym2612"
    },
    {
      "channel": 4,
      "note": 79,
      "start": 35.4434,
      "duration": 0.0083,
      "velocity": 89,
      "chip": "ym2612"
    },
    {
      "channel": 3,
      "note": 84,
      "start": 35.4697,
      "duration": 0.0087,
      "velocity": 89,
      "chip": "ym2612"
    },
    {
      "channel": 4,
      "note": 79,
      "start": 35.47,
      "duration": 0.0085,
      "velocity": 89,
      "chip": "ym2612"
    },
    {
      "channel": 0,
      "note": 75,
      "start": 35.4977,
      "duration": 0.1054,
      "velocity": 127,
      "chip": "ym2612"
    },
    {
      "channel": 5,
      "note": 66,
      "start": 35.4998,
      "duration": 0.2135,
      "velocity": 127,
      "chip": "ym2612"
    },
    {
      "channel": 0,
      "note": 66,
      "start": 35.6048,
      "duration": 0.1054,
      "velocity": 127,
      "chip": "ym2612"
    },
    {
      "channel": 1,
      "note": 61,
      "start": 35.6052,
      "duration": 0.2925,
      "velocity": 50,
      "chip": "ym2612"
    },
    {
      "channel": 2,
      "note": 46,
      "start": 35.6055,
      "duration": 0.0781,
      "velocity": 127,
      "chip": "ym2612"
    },
    {
      "channel": 3,
      "note": 82,
      "start": 35.6057,
      "duration": 0.0066,
      "velocity": 89,
      "chip": "ym2612"
    },
    {
      "channel": 4,
      "note": 77,
      "start": 35.6059,
      "duration": 0.0065,
      "velocity": 89,
      "chip": "ym2612"
    },
    {
      "channel": 3,
      "note": 82,
      "start": 35.6304,
      "duration": 0.0087,
      "velocity": 89,
      "chip": "ym2612"
    },
    {
      "channel": 4,
      "note": 77,
      "start": 35.6307,
      "duration": 0.0085,
      "velocity": 89,
      "chip": "ym2612"
    },
    {
      "channel": 3,
      "note": 82,
      "start": 35.6571,
      "duration": 0.0087,
      "velocity": 89,
      "chip": "ym2612"
    },
    {
      "channel": 4,
      "note": 77,
      "start": 35.6574,
      "duration": 0.0085,
      "velocity": 89,
      "chip": "ym2612"
    },
    {
      "channel": 3,
      "note": 82,
      "start": 35.684,
      "duration": 0.0087,
      "velocity": 89,
      "chip": "ym2612"
    },
    {
      "channel": 4,
      "note": 77,
      "start": 35.6843,
      "duration": 0.0088,
      "velocity": 89,
      "chip": "ym2612"
    },
    {
      "channel": 0,
      "note": 67,
      "start": 35.712,
      "duration": 0.1054,
      "velocity": 112,
      "chip": "ym2612"
    },
    {
      "channel": 2,
      "note": 46,
      "start": 35.7124,
      "duration": 0.0784,
      "velocity": 127,
      "chip": "ym2612"
    },
    {
      "channel": 3,
      "note": 82,
      "start": 35.7127,
      "duration": 0.0067,
      "velocity": 89,
      "chip": "ym2612"
    },
    {
      "channel": 4,
      "note": 77,
      "start": 35.7132,
      "duration": 0.0063,
      "velocity": 89,
      "chip": "ym2612"
    },
    {
      "channel": 5,
      "note": 83,
      "start": 35.715,
      "duration": 0.1044,
      "velocity": 53,
      "chip": "ym2612"
    },
    {
      "channel": 3,
      "note": 82,
      "start": 35.7375,
      "duration": 0.0087,
      "velocity": 89,
      "chip": "ym2612"
    },
    {
      "channel": 4,
      "note": 77,
      "start": 35.7378,
      "duration": 0.0085,
      "velocity": 89,
      "chip": "ym2612"
    },
    {
      "channel": 3,
      "note": 82,
      "start": 35.7643,
      "duration": 0.0089,
      "velocity": 89,
      "chip": "ym2612"
    },
    {
      "channel": 4,
      "note": 77,
      "start": 35.7646,
      "duration": 0.0088,
      "velocity": 89,
      "chip": "ym2612"
    },
    {
      "channel": 3,
      "note": 82,
      "start": 35.7911,
      "duration": 0.0087,
      "velocity": 89,
      "chip": "ym2612"
    },
    {
      "channel": 4,
      "note": 77,
      "start": 35.7914,
      "duration": 0.0085,
      "velocity": 89,
      "chip": "ym2612"
    },
    {
      "channel": 0,
      "note": 75,
      "start": 35.8191,
      "duration": 0.1054,
      "velocity": 127,
      "chip": "ym2612"
    },
    {
      "channel": 5,
      "note": 75,
      "start": 35.8212,
      "duration": 0.1047,
      "velocity": 127,
      "chip": "ym2612"
    },
    {
      "channel": 0,
      "note": 75,
      "start": 35.9248,
      "duration": 0.1069,
      "velocity": 127,
      "chip": "ym2612"
    },
    {
      "channel": 1,
      "note": 58,
      "start": 35.9251,
      "duration": 0.1869,
      "velocity": 50,
      "chip": "ym2612"
    },
    {
      "channel": 2,
      "note": 42,
      "start": 35.9254,
      "duration": 0.0796,
      "velocity": 127,
      "chip": "ym2612"
    },
    {
      "channel": 3,
      "note": 78,
      "start": 35.9256,
      "duration": 0.008,
      "velocity": 89,
      "chip": "ym2612"
    },
    {
      "channel": 4,
      "note": 73,
      "start": 35.9259,
      "duration": 0.0079,
      "velocity": 89,
      "chip": "ym2612"
    },
    {
      "channel": 5,
      "note": 66,
      "start": 35.9277,
      "duration": 0.2142,
      "velocity": 127,
      "chip": "ym2612"
    },
    {
      "channel": 3,
      "note": 78,
      "start": 35.9518,
      "duration": 0.0087,
      "velocity": 89,
      "chip": "ym2612"
    },
    {
      "channel": 4,
      "note": 73,
      "start": 35.9521,
      "duration": 0.0085,
      "velocity": 89,
      "chip": "ym2612"
    },
    {
      "channel": 3,
      "note": 78,
      "start": 35.9786,
      "duration": 0.0087,
      "velocity": 89,
      "chip": "ym2612"
    },
    {
      "channel": 4,
      "note": 73,
      "start": 35.9789,
      "duration": 0.0085,
      "velocity": 89,
      "chip": "ym2612"
    },
    {
      "channel": 3,
      "note": 78,
      "start": 36.0054,
      "duration": 0.0087,
      "velocity": 89,
      "chip": "ym2612"
    },
    {
      "channel": 4,
      "note": 73,
      "start": 36.0057,
      "duration": 0.0085,
      "velocity": 89,
      "chip": "ym2612"
    },
    {
      "channel": 0,
      "note": 66,
      "start": 36.0337,
      "duration": 0.1051,
      "velocity": 127,
      "chip": "ym2612"
    },
    {
      "channel": 2,
      "note": 42,
      "start": 36.0341,
      "duration": 0.0781,
      "velocity": 127,
      "chip": "ym2612"
    },
    {
      "channel": 3,
      "note": 78,
      "start": 36.0344,
      "duration": 0.0065,
      "velocity": 89,
      "chip": "ym2612"
    },
    {
      "channel": 4,
      "note": 73,
      "start": 36.0347,
      "duration": 0.0063,
      "velocity": 89,
      "chip": "ym2612"
    },
    {
      "channel": 3,
      "note": 78,
      "start": 36.0589,
      "duration": 0.0087,
      "velocity": 89,
      "chip": "ym2612"
    },
    {
      "channel": 4,
      "note": 73,
      "start": 36.0592,
      "duration": 0.0085,
      "velocity": 89,
      "chip": "ym2612"
    },
    {
      "channel": 3,
      "note": 78,
      "start": 36.0857,
      "duration": 0.0087,
      "velocity": 89,
      "chip": "ym2612"
    },
    {
      "channel": 4,
      "note": 73,
      "start": 36.086,
      "duration": 0.0085,
      "velocity": 89,
      "chip": "ym2612"
    },
    {
      "channel": 3,
      "note": 78,
      "start": 36.1126,
      "duration": 0.0087,
      "velocity": 89,
      "chip": "ym2612"
    },
    {
      "channel": 4,
      "note": 73,
      "start": 36.1131,
      "duration": 0.0083,
      "velocity": 89,
      "chip": "ym2612"
    },
    {
      "channel": 0,
      "note": 32,
      "start": 36.1405,
      "duration": 0.1054,
      "velocity": 107,
      "chip": "ym2612"
    },
    {
      "channel": 1,
      "note": 58,
      "start": 36.1409,
      "duration": 0.2926,
      "velocity": 50,
      "chip": "ym2612"
    },
    {
      "channel": 2,
      "note": 46,
      "start": 36.1412,
      "duration": 0.0782,
      "velocity": 127,
      "chip": "ym2612"
    },
    {
      "channel": 3,
      "note": 82,
      "start": 36.1415,
      "duration": 0.0065,
      "velocity": 89,
      "chip": "ym2612"
    },
    {
      "channel": 4,
      "note": 77,
      "start": 36.1418,
      "duration": 0.0064,
      "velocity": 89,
      "chip": "ym2612"
    },
    {
      "channel": 5,
      "note": 83,
      "start": 36.1438,
      "duration": 0.1049,
      "velocity": 53,
      "chip": "ym2612"
    },
    {
      "channel": 3,
      "note": 82,
      "start": 36.1661,
      "duration": 0.0087,
      "velocity": 89,
      "chip": "ym2612"
    },
    {
      "channel": 4,
      "note": 77,
      "start": 36.1664,
      "duration": 0.0085,
      "velocity": 89,
      "chip": "ym2612"
    },
    {
      "channel": 3,
      "note": 82,
      "start": 36.1932,
      "duration": 0.0084,
      "velocity": 89,
      "chip": "ym2612"
    },
    {
      "channel": 4,
      "note": 77,
      "start": 36.1935,
      "duration": 0.0083,
      "velocity": 89,
      "chip": "ym2612"
    },
    {
      "channel": 3,
      "note": 82,
      "start": 36.2198,
      "duration": 0.0087,
      "velocity": 89,
      "chip": "ym2612"
    },
    {
      "channel": 4,
      "note": 77,
      "start": 36.22,
      "duration": 0.0085,
      "velocity": 89,
      "chip": "ym2612"
    },
    {
      "channel": 0,
      "note": 75,
      "start": 36.2476,
      "duration": 0.1054,
      "velocity": 127,
      "chip": "ym2612"
    },
    {
      "channel": 2,
      "note": 46,
      "start": 36.248,
      "duration": 0.0784,
      "velocity": 127,
      "chip": "ym2612"
    },
    {
      "channel": 3,
      "note": 82,
      "start": 36.2483,
      "duration": 0.0067,
      "velocity": 89,
      "chip": "ym2612"
    },
    {
      "channel": 4,
      "note": 77,
      "start": 36.2486,
      "duration": 0.0066,
      "velocity": 89,
      "chip": "ym2612"
    },
    {
      "channel": 5,
      "note": 75,
      "start": 36.2505,
      "duration": 0.1031,
      "velocity": 127,
      "chip": "ym2612"
    },
    {
      "channel": 3,
      "note": 82,
      "start": 36.2734,
      "duration": 0.0084,
      "velocity": 89,
      "chip": "ym2612"
    },
    {
      "channel": 4,
      "note": 77,
      "start": 36.2737,
      "duration": 0.0083,
      "velocity": 89,
      "chip": "ym2612"
    },
    {
      "channel": 3,
      "note": 82,
      "start": 36.3,
      "duration": 0.0087,
      "velocity": 89,
      "chip": "ym2612"
    },
    {
      "channel": 4,
      "note": 77,
      "start": 36.3003,
      "duration": 0.0085,
      "velocity": 89,
      "chip": "ym2612"
    },
    {
      "channel": 3,
      "note": 82,
      "start": 36.3268,
      "duration": 0.0087,
      "velocity": 89,
      "chip": "ym2612"
    },
    {
      "channel": 4,
      "note": 77,
      "start": 36.3271,
      "duration": 0.0085,
      "velocity": 89,
      "chip": "ym2612"
    },
    {
      "channel": 0,
      "note": 75,
      "start": 36.3533,
      "duration": 0.1069,
      "velocity": 127,
      "chip": "ym2612"
    },
    {
      "channel": 5,
      "note": 66,
      "start": 36.3554,
      "duration": 0.2236,
      "velocity": 127,
      "chip": "ym2612"
    },
    {
      "channel": 0,
      "note": 32,
      "start": 36.4619,
      "duration": 0.1144,
      "velocity": 107,
      "chip": "ym2612"
    },
    {
      "channel": 1,
      "note": 54,
      "start": 36.4623,
      "duration": 0.3016,
      "velocity": 50,
      "chip": "ym2612"
    },
    {
      "channel": 2,
      "note": 42,
      "start": 36.4625,
      "duration": 0.0782,
      "velocity": 127,
      "chip": "ym2612"
    },
    {
      "channel": 3,
      "note": 78,
      "start": 36.463,
      "duration": 0.0064,
      "velocity": 89,
      "chip": "ym2612"
    },
    {
      "channel": 4,
      "note": 73,
      "start": 36.4633,
      "duration": 0.0063,
      "velocity": 89,
      "chip": "ym2612"
    },
    {
      "channel": 3,
      "note": 78,
      "start": 36.4876,
      "duration": 0.0087,
      "velocity": 89,
      "chip": "ym2612"
    },
    {
      "channel": 4,
      "note": 73,
      "start": 36.4878,
      "duration": 0.0085,
      "velocity": 89,
      "chip": "ym2612"
    },
    {
      "channel": 3,
      "note": 78,
      "start": 36.5143,
      "duration": 0.0089,
      "velocity": 89,
      "chip": "ym2612"
    },
    {
      "channel": 4,
      "note": 73,
      "start": 36.5146,
      "duration": 0.0088,
      "velocity": 89,
      "chip": "ym2612"
    },
    {
      "channel": 3,
      "note": 78,
      "start": 36.5412,
      "duration": 0.0176,
      "velocity": 89,
      "chip": "ym2612"
    },
    {
      "channel": 4,
      "note": 73,
      "start": 36.5415,
      "duration": 0.0175,
      "velocity": 89,
      "chip": "ym2612"
    },
    {
      "channel": 0,
      "note": 67,
      "start": 36.578,
      "duration": 0.1055,
      "velocity": 112,
      "chip": "ym2612"
    },
    {
      "channel": 2,
      "note": 42,
      "start": 36.5784,
      "duration": 0.0783,
      "velocity": 127,
      "chip": "ym2612"
    },
    {
      "channel": 3,
      "note": 78,
      "start": 36.5787,
      "duration": 0.0067,
      "velocity": 89,
      "chip": "ym2612"
    },
    {
      "channel": 4,
      "note": 73,
      "start": 36.579,
      "duration": 0.0066,
      "velocity": 89,
      "chip": "ym2612"
    },
    {
      "channel": 5,
      "note": 83,
      "start": 36.5807,
      "duration": 0.1048,
      "velocity": 53,
      "chip": "ym2612"
    },
    {
      "channel": 3,
      "note": 78,
      "start": 36.6035,
      "duration": 0.0087,
      "velocity": 89,
      "chip": "ym2612"
    },
    {
      "channel": 4,
      "note": 73,
      "start": 36.6038,
      "duration": 0.0085,
      "velocity": 89,
      "chip": "ym2612"
    },
    {
      "channel": 3,
      "note": 78,
      "start": 36.6303,
      "duration": 0.0087,
      "velocity": 89,
      "chip": "ym2612"
    },
    {
      "channel": 4,
      "note": 73,
      "start": 36.6306,
      "duration": 0.0085,
      "velocity": 89,
      "chip": "ym2612"
    },
    {
      "channel": 3,
      "note": 78,
      "start": 36.6571,
      "duration": 0.0087,
      "velocity": 89,
      "chip": "ym2612"
    },
    {
      "channel": 4,
      "note": 73,
      "start": 36.6574,
      "duration": 0.0085,
      "velocity": 89,
      "chip": "ym2612"
    },
    {
      "channel": 0,
      "note": 32,
      "start": 36.6852,
      "duration": 0.1054,
      "velocity": 107,
      "chip": "ym2612"
    },
    {
      "channel": 5,
      "note": 75,
      "start": 36.6873,
      "duration": 0.1064,
      "velocity": 127,
      "chip": "ym2612"
    },
    {
      "channel": 0,
      "note": 32,
      "start": 36.7923,
      "duration": 0.1054,
      "velocity": 107,
      "chip": "ym2612"
    },
    {
      "channel": 1,
      "note": 53,
      "start": 36.7926,
      "duration": 0.1854,
      "velocity": 50,
      "chip": "ym2612"
    },
    {
      "channel": 2,
      "note": 41,
      "start": 36.7931,
      "duration": 0.078,
      "velocity": 127,
      "chip": "ym2612"
    },
    {
      "channel": 3,
      "note": 77,
      "start": 36.7934,
      "duration": 0.0064,
      "velocity": 89,
      "chip": "ym2612"
    },
    {
      "channel": 4,
      "note": 72,
      "start": 36.7936,
      "duration": 0.0063,
      "velocity": 89,
      "chip": "ym2612"
    },
    {
      "channel": 5,
      "note": 66,
      "start": 36.7954,
      "duration": 0.2124,
      "velocity": 127,
      "chip": "ym2612"
    },
    {
      "channel": 3,
      "note": 77,
      "start": 36.8179,
      "duration": 0.0087,
      "velocity": 89,
      "chip": "ym2612"
    },
    {
      "channel": 4,
      "note": 72,
      "start": 36.8182,
      "duration": 0.0085,
      "velocity": 89,
      "chip": "ym2612"
    },
    {
      "channel": 3,
      "note": 77,
      "start": 36.8447,
      "duration": 0.0087,
      "velocity": 89,
      "chip": "ym2612"
    },
    {
      "channel": 4,
      "note": 72,
      "start": 36.845,
      "duration": 0.0086,
      "velocity": 89,
      "chip": "ym2612"
    },
    {
      "channel": 3,
      "note": 77,
      "start": 36.8715,
      "duration": 0.0087,
      "velocity": 89,
      "chip": "ym2612"
    },
    {
      "channel": 4,
      "note": 72,
      "start": 36.8718,
      "duration": 0.0085,
      "velocity": 89,
      "chip": "ym2612"
    },
    {
      "channel": 0,
      "note": 67,
      "start": 36.8994,
      "duration": 0.1054,
      "velocity": 112,
      "chip": "ym2612"
    },
    {
      "channel": 2,
      "note": 41,
      "start": 36.8998,
      "duration": 0.0784,
      "velocity": 127,
      "chip": "ym2612"
    },
    {
      "channel": 3,
      "note": 77,
      "start": 36.9001,
      "duration": 0.0067,
      "velocity": 89,
      "chip": "ym2612"
    },
    {
      "channel": 4,
      "note": 72,
      "start": 36.9004,
      "duration": 0.0066,
      "velocity": 89,
      "chip": "ym2612"
    },
    {
      "channel": 3,
      "note": 77,
      "start": 36.9249,
      "duration": 0.0087,
      "velocity": 89,
      "chip": "ym2612"
    },
    {
      "channel": 4,
      "note": 72,
      "start": 36.9252,
      "duration": 0.0086,
      "velocity": 89,
      "chip": "ym2612"
    },
    {
      "channel": 3,
      "note": 77,
      "start": 36.9517,
      "duration": 0.0087,
      "velocity": 89,
      "chip": "ym2612"
    },
    {
      "channel": 4,
      "note": 72,
      "start": 36.952,
      "duration": 0.0085,
      "velocity": 89,
      "chip": "ym2612"
    },
    {
      "channel": 3,
      "note": 77,
      "start": 36.9786,
      "duration": 0.0087,
      "velocity": 89,
      "chip": "ym2612"
    },
    {
      "channel": 4,
      "note": 72,
      "start": 36.9789,
      "duration": 0.0085,
      "velocity": 89,
      "chip": "ym2612"
    },
    {
      "channel": 0,
      "note": 32,
      "start": 37.0065,
      "duration": 0.1054,
      "velocity": 127,
      "chip": "ym2612"
    },
    {
      "channel": 1,
      "note": 58,
      "start": 37.0069,
      "duration": 0.2925,
      "velocity": 50,
      "chip": "ym2612"
    },
    {
      "channel": 2,
      "note": 46,
      "start": 37.0072,
      "duration": 0.0782,
      "velocity": 127,
      "chip": "ym2612"
    },
    {
      "channel": 3,
      "note": 82,
      "start": 37.0075,
      "duration": 0.0066,
      "velocity": 89,
      "chip": "ym2612"
    },
    {
      "channel": 4,
      "note": 77,
      "start": 37.0078,
      "duration": 0.0064,
      "velocity": 89,
      "chip": "ym2612"
    },
    {
      "channel": 5,
      "note": 83,
      "start": 37.0096,
      "duration": 0.1054,
      "velocity": 53,
      "chip": "ym2612"
    },
    {
      "channel": 3,
      "note": 82,
      "start": 37.0322,
      "duration": 0.0087,
      "velocity": 89,
      "chip": "ym2612"
    },
    {
      "channel": 4,
      "note": 77,
      "start": 37.0324,
      "duration": 0.0085,
      "velocity": 89,
      "chip": "ym2612"
    },
    {
      "channel": 3,
      "note": 82,
      "start": 37.0589,
      "duration": 0.0087,
      "velocity": 89,
      "chip": "ym2612"
    },
    {
      "channel": 4,
      "note": 77,
      "start": 37.0592,
      "duration": 0.0085,
      "velocity": 89,
      "chip": "ym2612"
    },
    {
      "channel": 3,
      "note": 82,
      "start": 37.0858,
      "duration": 0.0087,
      "velocity": 89,
      "chip": "ym2612"
    },
    {
      "channel": 4,
      "note": 77,
      "start": 37.0861,
      "duration": 0.0085,
      "velocity": 89,
      "chip": "ym2612"
    },
    {
      "channel": 0,
      "note": 75,
      "start": 37.1139,
      "duration": 0.1052,
      "velocity": 127,
      "chip": "ym2612"
    },
    {
      "channel": 2,
      "note": 46,
      "start": 37.1143,
      "duration": 0.0781,
      "velocity": 127,
      "chip": "ym2612"
    },
    {
      "channel": 3,
      "note": 82,
      "start": 37.1146,
      "duration": 0.0065,
      "velocity": 89,
      "chip": "ym2612"
    },
    {
      "channel": 4,
      "note": 77,
      "start": 37.1149,
      "duration": 0.0063,
      "velocity": 89,
      "chip": "ym2612"
    },
    {
      "channel": 5,
      "note": 75,
      "start": 37.1168,
      "duration": 0.1043,
      "velocity": 127,
      "chip": "ym2612"
    },
    {
      "channel": 3,
      "note": 82,
      "start": 37.1392,
      "duration": 0.0087,
      "velocity": 89,
      "chip": "ym2612"
    },
    {
      "channel": 4,
      "note": 77,
      "start": 37.1395,
      "duration": 0.0085,
      "velocity": 89,
      "chip": "ym2612"
    },
    {
      "channel": 3,
      "note": 82,
      "start": 37.166,
      "duration": 0.0087,
      "velocity": 89,
      "chip": "ym2612"
    },
    {
      "channel": 4,
      "note": 77,
      "start": 37.1663,
      "duration": 0.0085,
      "velocity": 89,
      "chip": "ym2612"
    },
    {
      "channel": 3,
      "note": 82,
      "start": 37.1931,
      "duration": 0.0084,
      "velocity": 89,
      "chip": "ym2612"
    },
    {
      "channel": 4,
      "note": 77,
      "start": 37.1934,
      "duration": 0.0083,
      "velocity": 89,
      "chip": "ym2612"
    },
    {
      "channel": 0,
      "note": 75,
      "start": 37.2208,
      "duration": 0.1054,
      "velocity": 127,
      "chip": "ym2612"
    },
    {
      "channel": 5,
      "note": 66,
      "start": 37.2231,
      "duration": 0.213,
      "velocity": 127,
      "chip": "ym2612"
    },
    {
      "channel": 0,
      "note": 66,
      "start": 37.3279,
      "duration": 0.1054,
      "velocity": 127,
      "chip": "ym2612"
    },
    {
      "channel": 1,
      "note": 58,
      "start": 37.3283,
      "duration": 0.2925,
      "velocity": 50,
      "chip": "ym2612"
    },
    {
      "channel": 2,
      "note": 42,
      "start": 37.3285,
      "duration": 0.0781,
      "velocity": 127,
      "chip": "ym2612"
    },
    {
      "channel": 3,
      "note": 78,
      "start": 37.3288,
      "duration": 0.0066,
      "velocity": 89,
      "chip": "ym2612"
    },
    {
      "channel": 4,
      "note": 73,
      "start": 37.329,
      "duration": 0.0065,
      "velocity": 89,
      "chip": "ym2612"
    },
    {
      "channel": 3,
      "note": 78,
      "start": 37.3535,
      "duration": 0.0086,
      "velocity": 89,
      "chip": "ym2612"
    },
    {
      "channel": 4,
      "note": 73,
      "start": 37.3538,
      "duration": 0.0085,
      "velocity": 89,
      "chip": "ym2612"
    },
    {
      "channel": 3,
      "note": 78,
      "start": 37.3802,
      "duration": 0.0087,
      "velocity": 89,
      "chip": "ym2612"
    },
    {
      "channel": 4,
      "note": 73,
      "start": 37.3805,
      "duration": 0.0085,
      "velocity": 89,
      "chip": "ym2612"
    },
    {
      "channel": 3,
      "note": 78,
      "start": 37.4071,
      "duration": 0.0087,
      "velocity": 89,
      "chip": "ym2612"
    },
    {
      "channel": 4,
      "note": 73,
      "start": 37.4074,
      "duration": 0.0085,
      "velocity": 89,
      "chip": "ym2612"
    },
    {
      "channel": 0,
      "note": 67,
      "start": 37.4351,
      "duration": 0.1054,
      "velocity": 112,
      "chip": "ym2612"
    },
    {
      "channel": 2,
      "note": 42,
      "start": 37.4355,
      "duration": 0.0784,
      "velocity": 127,
      "chip": "ym2612"
    },
    {
      "channel": 3,
      "note": 78,
      "start": 37.4358,
      "duration": 0.0068,
      "velocity": 89,
      "chip": "ym2612"
    },
    {
      "channel": 4,
      "note": 73,
      "start": 37.4361,
      "duration": 0.0066,
      "velocity": 89,
      "chip": "ym2612"
    },
    {
      "channel": 5,
      "note": 83,
      "start": 37.4378,
      "duration": 0.1047,
      "velocity": 53,
      "chip": "ym2612"
    },
    {
      "channel": 3,
      "note": 78,
      "start": 37.4606,
      "duration": 0.0087,
      "velocity": 89,
      "chip": "ym2612"
    },
    {
      "channel": 4,
      "note": 73,
      "start": 37.4609,
      "duration": 0.0085,
      "velocity": 89,
      "chip": "ym2612"
    },
    {
      "channel": 3,
      "note": 78,
      "start": 37.4874,
      "duration": 0.0087,
      "velocity": 89,
      "chip": "ym2612"
    },
    {
      "channel": 4,
      "note": 73,
      "start": 37.4877,
      "duration": 0.0085,
      "velocity": 89,
      "chip": "ym2612"
    },
    {
      "channel": 3,
      "note": 78,
      "start": 37.5142,
      "duration": 0.0089,
      "velocity": 89,
      "chip": "ym2612"
    },
    {
      "channel": 4,
      "note": 73,
      "start": 37.5145,
      "duration": 0.0088,
      "velocity": 89,
      "chip": "ym2612"
    },
    {
      "channel": 0,
      "note": 75,
      "start": 37.5422,
      "duration": 0.1054,
      "velocity": 127,
      "chip": "ym2612"
    },
    {
      "channel": 5,
      "note": 75,
      "start": 37.5446,
      "duration": 0.1045,
      "velocity": 127,
      "chip": "ym2612"
    },
    {
      "channel": 0,
      "note": 75,
      "start": 37.6479,
      "duration": 0.1069,
      "velocity": 127,
      "chip": "ym2612"
    },
    {
      "channel": 1,
      "note": 61,
      "start": 37.6483,
      "duration": 0.1869,
      "velocity": 50,
      "chip": "ym2612"
    },
    {
      "channel": 2,
      "note": 41,
      "start": 37.6485,
      "duration": 0.0796,
      "velocity": 127,
      "chip": "ym2612"
    },
    {
      "channel": 3,
      "note": 77,
      "start": 37.6488,
      "duration": 0.008,
      "velocity": 89,
      "chip": "ym2612"
    },
    {
      "channel": 4,
      "note": 72,
      "start": 37.649,
      "duration": 0.0079,
      "velocity": 89,
      "chip": "ym2612"
    },
    {
      "channel": 5,
      "note": 66,
      "start": 37.6508,
      "duration": 0.2186,
      "velocity": 127,
      "chip": "ym2612"
    },
    {
      "channel": 3,
      "note": 77,
      "start": 37.6749,
      "duration": 0.0087,
      "velocity": 89,
      "chip": "ym2612"
    },
    {
      "channel": 4,
      "note": 72,
      "start": 37.6752,
      "duration": 0.0086,
      "velocity": 89,
      "chip": "ym2612"
    },
    {
      "channel": 3,
      "note": 77,
      "start": 37.7017,
      "duration": 0.0087,
      "velocity": 89,
      "chip": "ym2612"
    },
    {
      "channel": 4,
      "note": 72,
      "start": 37.702,
      "duration": 0.0085,
      "velocity": 89,
      "chip": "ym2612"
    },
    {
      "channel": 3,
      "note": 77,
      "start": 37.7285,
      "duration": 0.0087,
      "velocity": 89,
      "chip": "ym2612"
    },
    {
      "channel": 4,
      "note": 72,
      "start": 37.7288,
      "duration": 0.0085,
      "velocity": 89,
      "chip": "ym2612"
    },
    {
      "channel": 0,
      "note": 66,
      "start": 37.7565,
      "duration": 0.1054,
      "velocity": 127,
      "chip": "ym2612"
    },
    {
      "channel": 2,
      "note": 41,
      "start": 37.7569,
      "duration": 0.0784,
      "velocity": 127,
      "chip": "ym2612"
    },
    {
      "channel": 3,
      "note": 77,
      "start": 37.7572,
      "duration": 0.0067,
      "velocity": 89,
      "chip": "ym2612"
    },
    {
      "channel": 4,
      "note": 72,
      "start": 37.7575,
      "duration": 0.0066,
      "velocity": 89,
      "chip": "ym2612"
    },
    {
      "channel": 3,
      "note": 77,
      "start": 37.782,
      "duration": 0.0087,
      "velocity": 89,
      "chip": "ym2612"
    },
    {
      "channel": 4,
      "note": 72,
      "start": 37.7823,
      "duration": 0.0085,
      "velocity": 89,
      "chip": "ym2612"
    },
    {
      "channel": 3,
      "note": 77,
      "start": 37.8088,
      "duration": 0.0087,
      "velocity": 89,
      "chip": "ym2612"
    },
    {
      "channel": 4,
      "note": 72,
      "start": 37.8091,
      "duration": 0.0085,
      "velocity": 89,
      "chip": "ym2612"
    },
    {
      "channel": 3,
      "note": 77,
      "start": 37.8357,
      "duration": 0.0087,
      "velocity": 89,
      "chip": "ym2612"
    },
    {
      "channel": 4,
      "note": 72,
      "start": 37.836,
      "duration": 0.0085,
      "velocity": 89,
      "chip": "ym2612"
    },
    {
      "channel": 0,
      "note": 32,
      "start": 37.8639,
      "duration": 0.1052,
      "velocity": 107,
      "chip": "ym2612"
    },
    {
      "channel": 1,
      "note": 60,
      "start": 37.8656,
      "duration": 0.291,
      "velocity": 50,
      "chip": "ym2612"
    },
    {
      "channel": 2,
      "note": 99,
      "start": 37.8688,
      "duration": 0.0737,
      "velocity": 105,
      "chip": "ym2612"
    },
    {
      "channel": 3,
      "note": 84,
      "start": 37.869,
      "duration": 0.0026,
      "velocity": 89,
      "chip": "ym2612"
    },
    {
      "channel": 4,
      "note": 79,
      "start": 37.8694,
      "duration": 0.0024,
      "velocity": 89,
      "chip": "ym2612"
    },
    {
      "channel": 5,
      "note": 83,
      "start": 37.8711,
      "duration": 0.1007,
      "velocity": 53,
      "chip": "ym2612"
    },
    {
      "channel": 3,
      "note": 84,
      "start": 37.8893,
      "duration": 0.0087,
      "velocity": 89,
      "chip": "ym2612"
    },
    {
      "channel": 4,
      "note": 79,
      "start": 37.8895,
      "duration": 0.0085,
      "velocity": 89,
      "chip": "ym2612"
    },
    {
      "channel": 3,
      "note": 84,
      "start": 37.916,
      "duration": 0.0087,
      "velocity": 89,
      "chip": "ym2612"
    },
    {
      "channel": 4,
      "note": 79,
      "start": 37.9163,
      "duration": 0.0085,
      "velocity": 89,
      "chip": "ym2612"
    },
    {
      "channel": 3,
      "note": 84,
      "start": 37.9431,
      "duration": 0.0084,
      "velocity": 89,
      "chip": "ym2612"
    },
    {
      "channel": 4,
      "note": 79,
      "start": 37.9434,
      "duration": 0.0083,
      "velocity": 89,
      "chip": "ym2612"
    },
    {
      "channel": 0,
      "note": 75,
      "start": 37.9707,
      "duration": 0.1054,
      "velocity": 127,
      "chip": "ym2612"
    },
    {
      "channel": 2,
      "note": 99,
      "start": 37.9712,
      "duration": 0.0783,
      "velocity": 105,
      "chip": "ym2612"
    },
    {
      "channel": 3,
      "note": 84,
      "start": 37.9715,
      "duration": 0.0067,
      "velocity": 89,
      "chip": "ym2612"
    },
    {
      "channel": 4,
      "note": 79,
      "start": 37.9717,
      "duration": 0.0066,
      "velocity": 89,
      "chip": "ym2612"
    },
    {
      "channel": 5,
      "note": 75,
      "start": 37.9738,
      "duration": 0.1032,
      "velocity": 127,
      "chip": "ym2612"
    },
    {
      "channel": 3,
      "note": 84,
      "start": 37.9963,
      "duration": 0.0087,
      "velocity": 89,
      "chip": "ym2612"
    },
    {
      "channel": 4,
      "note": 79,
      "start": 37.9966,
      "duration": 0.0085,
      "velocity": 89,
      "chip": "ym2612"
    },
    {
      "channel": 3,
      "note": 84,
      "start": 38.0233,
      "duration": 0.0084,
      "velocity": 89,
      "chip": "ym2612"
    },
    {
      "channel": 4,
      "note": 79,
      "start": 38.0236,
      "duration": 0.0083,
      "velocity": 89,
      "chip": "ym2612"
    },
    {
      "channel": 3,
      "note": 84,
      "start": 38.0499,
      "duration": 0.0087,
      "velocity": 89,
      "chip": "ym2612"
    },
    {
      "channel": 4,
      "note": 79,
      "start": 38.0502,
      "duration": 0.0085,
      "velocity": 89,
      "chip": "ym2612"
    },
    {
      "channel": 0,
      "note": 75,
      "start": 38.0764,
      "duration": 0.1069,
      "velocity": 127,
      "chip": "ym2612"
    },
    {
      "channel": 2,
      "note": 82,
      "start": 38.0768,
      "duration": 0.1871,
      "velocity": 105,
      "chip": "ym2612"
    },
    {
      "channel": 5,
      "note": 66,
      "start": 38.0787,
      "duration": 0.2147,
      "velocity": 127,
      "chip": "ym2612"
    },
    {
      "channel": 0,
      "note": 32,
      "start": 38.1851,
      "duration": 0.1054,
      "velocity": 107,
      "chip": "ym2612"
    },
    {
      "channel": 1,
      "note": 58,
      "start": 38.1854,
      "duration": 0.2926,
      "velocity": 50,
      "chip": "ym2612"
    },
    {
      "channel": 3,
      "note": 82,
      "start": 38.1858,
      "duration": 0.0068,
      "velocity": 89,
      "chip": "ym2612"
    },
    {
      "channel": 4,
      "note": 77,
      "start": 38.186,
      "duration": 0.0067,
      "velocity": 89,
      "chip": "ym2612"
    },
    {
      "channel": 3,
      "note": 82,
      "start": 38.2107,
      "duration": 0.0087,
      "velocity": 89,
      "chip": "ym2612"
    },
    {
      "channel": 4,
      "note": 77,
      "start": 38.211,
      "duration": 0.0085,
      "velocity": 89,
      "chip": "ym2612"
    },
    {
      "channel": 3,
      "note": 82,
      "start": 38.2374,
      "duration": 0.0087,
      "velocity": 89,
      "chip": "ym2612"
    },
    {
      "channel": 4,
      "note": 77,
      "start": 38.2377,
      "duration": 0.0085,
      "velocity": 89,
      "chip": "ym2612"
    },
    {
      "channel": 3,
      "note": 82,
      "start": 38.2643,
      "duration": 0.0089,
      "velocity": 89,
      "chip": "ym2612"
    },
    {
      "channel": 4,
      "note": 77,
      "start": 38.2646,
      "duration": 0.0088,
      "velocity": 89,
      "chip": "ym2612"
    },
    {
      "channel": 0,
      "note": 67,
      "start": 38.2922,
      "duration": 0.1054,
      "velocity": 112,
      "chip": "ym2612"
    },
    {
      "channel": 2,
      "note": 96,
      "start": 38.2926,
      "duration": 0.0784,
      "velocity": 105,
      "chip": "ym2612"
    },
    {
      "channel": 3,
      "note": 82,
      "start": 38.2931,
      "duration": 0.0065,
      "velocity": 89,
      "chip": "ym2612"
    },
    {
      "channel": 4,
      "note": 77,
      "start": 38.2934,
      "duration": 0.0063,
      "velocity": 89,
      "chip": "ym2612"
    },
    {
      "channel": 5,
      "note": 83,
      "start": 38.2952,
      "duration": 0.1047,
      "velocity": 53,
      "chip": "ym2612"
    },
    {
      "channel": 3,
      "note": 82,
      "start": 38.3177,
      "duration": 0.0087,
      "velocity": 89,
      "chip": "ym2612"
    },
    {
      "channel": 4,
      "note": 77,
      "start": 38.318,
      "duration": 0.0085,
      "velocity": 89,
      "chip": "ym2612"
    },
    {
      "channel": 3,
      "note": 82,
      "start": 38.3445,
      "duration": 0.0088,
      "velocity": 89,
      "chip": "ym2612"
    },
    {
      "channel": 4,
      "note": 77,
      "start": 38.3448,
      "duration": 0.0087,
      "velocity": 89,
      "chip": "ym2612"
    },
    {
      "channel": 3,
      "note": 82,
      "start": 38.3713,
      "duration": 0.0087,
      "velocity": 89,
      "chip": "ym2612"
    },
    {
      "channel": 4,
      "note": 77,
      "start": 38.3716,
      "duration": 0.0085,
      "velocity": 89,
      "chip": "ym2612"
    },
    {
      "channel": 0,
      "note": 32,
      "start": 38.3993,
      "duration": 0.1054,
      "velocity": 107,
      "chip": "ym2612"
    },
    {
      "channel": 2,
      "note": 96,
      "start": 38.3997,
      "duration": 0.0785,
      "velocity": 105,
      "chip": "ym2612"
    },
    {
      "channel": 5,
      "note": 75,
      "start": 38.4017,
      "duration": 0.1059,
      "velocity": 127,
      "chip": "ym2612"
    },
    {
      "channel": 0,
      "note": 32,
      "start": 38.5064,
      "duration": 0.1054,
      "velocity": 107,
      "chip": "ym2612"
    },
    {
      "channel": 1,
      "note": 54,
      "start": 38.5068,
      "duration": 0.1854,
      "velocity": 50,
      "chip": "ym2612"
    },
    {
      "channel": 2,
      "note": 80,
      "start": 38.5071,
      "duration": 0.1853,
      "velocity": 105,
      "chip": "ym2612"
    },
    {
      "channel": 3,
      "note": 78,
      "start": 38.5073,
      "duration": 0.0066,
      "velocity": 89,
      "chip": "ym2612"
    },
    {
      "channel": 4,
      "note": 73,
      "start": 38.5076,
      "duration": 0.0065,
      "velocity": 89,
      "chip": "ym2612"
    },
    {
      "channel": 5,
      "note": 66,
      "start": 38.5094,
      "duration": 0.2141,
      "velocity": 127,
      "chip": "ym2612"
    },
    {
      "channel": 3,
      "note": 78,
      "start": 38.5321,
      "duration": 0.0087,
      "velocity": 89,
      "chip": "ym2612"
    },
    {
      "channel": 4,
      "note": 73,
      "start": 38.5324,
      "duration": 0.0085,
      "velocity": 89,
      "chip": "ym2612"
    },
    {
      "channel": 3,
      "note": 78,
      "start": 38.5588,
      "duration": 0.0087,
      "velocity": 89,
      "chip": "ym2612"
    },
    {
      "channel": 4,
      "note": 73,
      "start": 38.5591,
      "duration": 0.0085,
      "velocity": 89,
      "chip": "ym2612"
    },
    {
      "channel": 3,
      "note": 78,
      "start": 38.5856,
      "duration": 0.0087,
      "velocity": 89,
      "chip": "ym2612"
    },
    {
      "channel": 4,
      "note": 73,
      "start": 38.5859,
      "duration": 0.0085,
      "velocity": 89,
      "chip": "ym2612"
    },
    {
      "channel": 0,
      "note": 67,
      "start": 38.6138,
      "duration": 0.1052,
      "velocity": 112,
      "chip": "ym2612"
    },
    {
      "channel": 3,
      "note": 78,
      "start": 38.6143,
      "duration": 0.0067,
      "velocity": 89,
      "chip": "ym2612"
    },
    {
      "channel": 4,
      "note": 73,
      "start": 38.6146,
      "duration": 0.0065,
      "velocity": 89,
      "chip": "ym2612"
    },
    {
      "channel": 3,
      "note": 78,
      "start": 38.6391,
      "duration": 0.0087,
      "velocity": 89,
      "chip": "ym2612"
    },
    {
      "channel": 4,
      "note": 73,
      "start": 38.6394,
      "duration": 0.0085,
      "velocity": 89,
      "chip": "ym2612"
    },
    {
      "channel": 3,
      "note": 78,
      "start": 38.6659,
      "duration": 0.0087,
      "velocity": 89,
      "chip": "ym2612"
    },
    {
      "channel": 4,
      "note": 73,
      "start": 38.6662,
      "duration": 0.0085,
      "velocity": 89,
      "chip": "ym2612"
    },
    {
      "channel": 3,
      "note": 78,
      "start": 38.693,
      "duration": 0.0084,
      "velocity": 89,
      "chip": "ym2612"
    },
    {
      "channel": 4,
      "note": 73,
      "start": 38.6933,
      "duration": 0.0083,
      "velocity": 89,
      "chip": "ym2612"
    },
    {
      "channel": 0,
      "note": 32,
      "start": 38.7207,
      "duration": 0.1143,
      "velocity": 127,
      "chip": "ym2612"
    },
    {
      "channel": 1,
      "note": 60,
      "start": 38.7211,
      "duration": 0.3015,
      "velocity": 50,
      "chip": "ym2612"
    },
    {
      "channel": 3,
      "note": 84,
      "start": 38.7232,
      "duration": 0.0051,
      "velocity": 89,
      "chip": "ym2612"
    },
    {
      "channel": 4,
      "note": 79,
      "start": 38.7234,
      "duration": 0.0049,
      "velocity": 89,
      "chip": "ym2612"
    },
    {
      "channel": 5,
      "note": 83,
      "start": 38.7252,
      "duration": 0.1124,
      "velocity": 53,
      "chip": "ym2612"
    },
    {
      "channel": 3,
      "note": 84,
      "start": 38.7463,
      "duration": 0.0087,
      "velocity": 89,
      "chip": "ym2612"
    },
    {
      "channel": 4,
      "note": 79,
      "start": 38.7466,
      "duration": 0.0085,
      "velocity": 89,
      "chip": "ym2612"
    },
    {
      "channel": 3,
      "note": 84,
      "start": 38.7734,
      "duration": 0.0084,
      "velocity": 89,
      "chip": "ym2612"
    },
    {
      "channel": 4,
      "note": 79,
      "start": 38.7737,
      "duration": 0.0083,
      "velocity": 89,
      "chip": "ym2612"
    },
    {
      "channel": 3,
      "note": 84,
      "start": 38.8088,
      "duration": 0.0087,
      "velocity": 89,
      "chip": "ym2612"
    },
    {
      "channel": 4,
      "note": 79,
      "start": 38.8091,
      "duration": 0.0085,
      "velocity": 89,
      "chip": "ym2612"
    },
    {
      "channel": 0,
      "note": 75,
      "start": 38.8368,
      "duration": 0.1054,
      "velocity": 127,
      "chip": "ym2612"
    },
    {
      "channel": 3,
      "note": 84,
      "start": 38.8373,
      "duration": 0.0069,
      "velocity": 89,
      "chip": "ym2612"
    },
    {
      "channel": 4,
      "note": 79,
      "start": 38.8376,
      "duration": 0.0068,
      "velocity": 89,
      "chip": "ym2612"
    },
    {
      "channel": 5,
      "note": 75,
      "start": 38.8394,
      "duration": 0.1051,
      "velocity": 127,
      "chip": "ym2612"
    },
    {
      "channel": 3,
      "note": 84,
      "start": 38.8623,
      "duration": 0.0087,
      "velocity": 89,
      "chip": "ym2612"
    },
    {
      "channel": 4,
      "note": 79,
      "start": 38.8626,
      "duration": 0.0085,
      "velocity": 89,
      "chip": "ym2612"
    },
    {
      "channel": 3,
      "note": 84,
      "start": 38.8891,
      "duration": 0.0087,
      "velocity": 89,
      "chip": "ym2612"
    },
    {
      "channel": 4,
      "note": 79,
      "start": 38.8894,
      "duration": 0.0085,
      "velocity": 89,
      "chip": "ym2612"
    },
    {
      "channel": 3,
      "note": 84,
      "start": 38.9159,
      "duration": 0.0087,
      "velocity": 89,
      "chip": "ym2612"
    },
    {
      "channel": 4,
      "note": 79,
      "start": 38.9162,
      "duration": 0.0085,
      "velocity": 89,
      "chip": "ym2612"
    },
    {
      "channel": 0,
      "note": 75,
      "start": 38.9441,
      "duration": 0.1052,
      "velocity": 127,
      "chip": "ym2612"
    },
    {
      "channel": 5,
      "note": 66,
      "start": 38.9463,
      "duration": 0.2127,
      "velocity": 127,
      "chip": "ym2612"
    },
    {
      "channel": 0,
      "note": 66,
      "start": 39.0511,
      "duration": 0.1054,
      "velocity": 127,
      "chip": "ym2612"
    },
    {
      "channel": 1,
      "note": 61,
      "start": 39.0515,
      "duration": 0.2925,
      "velocity": 50,
      "chip": "ym2612"
    },
    {
      "channel": 3,
      "note": 82,
      "start": 39.0518,
      "duration": 0.0067,
      "velocity": 89,
      "chip": "ym2612"
    },
    {
      "channel": 4,
      "note": 77,
      "start": 39.052,
      "duration": 0.0066,
      "velocity": 89,
      "chip": "ym2612"
    },
    {
      "channel": 3,
      "note": 82,
      "start": 39.0766,
      "duration": 0.0087,
      "velocity": 89,
      "chip": "ym2612"
    },
    {
      "channel": 4,
      "note": 77,
      "start": 39.0769,
      "duration": 0.0085,
      "velocity": 89,
      "chip": "ym2612"
    },
    {
      "channel": 3,
      "note": 82,
      "start": 39.1035,
      "duration": 0.0085,
      "velocity": 89,
      "chip": "ym2612"
    },
    {
      "channel": 4,
      "note": 77,
      "start": 39.1038,
      "duration": 0.0084,
      "velocity": 89,
      "chip": "ym2612"
    },
    {
      "channel": 3,
      "note": 82,
      "start": 39.1301,
      "duration": 0.0087,
      "velocity": 89,
      "chip": "ym2612"
    },
    {
      "channel": 4,
      "note": 77,
      "start": 39.1304,
      "duration": 0.0085,
      "velocity": 89,
      "chip": "ym2612"
    },
    {
      "channel": 0,
      "note": 67,
      "start": 39.1582,
      "duration": 0.1054,
      "velocity": 112,
      "chip": "ym2612"
    },
    {
      "channel": 3,
      "note": 82,
      "start": 39.1587,
      "duration": 0.0069,
      "velocity": 89,
      "chip": "ym2612"
    },
    {
      "channel": 4,
      "note": 77,
      "start": 39.159,
      "duration": 0.0068,
      "velocity": 89,
      "chip": "ym2612"
    },
    {
      "channel": 5,
      "note": 83,
      "start": 39.1607,
      "duration": 0.1049,
      "velocity": 53,
      "chip": "ym2612"
    },
    {
      "channel": 3,
      "note": 82,
      "start": 39.1837,
      "duration": 0.0087,
      "velocity": 89,
      "chip": "ym2612"
    },
    {
      "channel": 4,
      "note": 77,
      "start": 39.184,
      "duration": 0.0085,
      "velocity": 89,
      "chip": "ym2612"
    },
    {
      "channel": 3,
      "note": 82,
      "start": 39.2105,
      "duration": 0.0087,
      "velocity": 89,
      "chip": "ym2612"
    },
    {
      "channel": 4,
      "note": 77,
      "start": 39.2108,
      "duration": 0.0085,
      "velocity": 89,
      "chip": "ym2612"
    },
    {
      "channel": 3,
      "note": 82,
      "start": 39.2373,
      "duration": 0.0087,
      "velocity": 89,
      "chip": "ym2612"
    },
    {
      "channel": 4,
      "note": 77,
      "start": 39.2376,
      "duration": 0.0085,
      "velocity": 89,
      "chip": "ym2612"
    },
    {
      "channel": 0,
      "note": 75,
      "start": 39.2653,
      "duration": 0.1054,
      "velocity": 127,
      "chip": "ym2612"
    },
    {
      "channel": 5,
      "note": 75,
      "start": 39.2675,
      "duration": 0.1045,
      "velocity": 127,
      "chip": "ym2612"
    },
    {
      "channel": 0,
      "note": 75,
      "start": 39.371,
      "duration": 0.1069,
      "velocity": 127,
      "chip": "ym2612"
    },
    {
      "channel": 1,
      "note": 58,
      "start": 39.3714,
      "duration": 0.1869,
      "velocity": 50,
      "chip": "ym2612"
    },
    {
      "channel": 3,
      "note": 78,
      "start": 39.3717,
      "duration": 0.0082,
      "velocity": 89,
      "chip": "ym2612"
    },
    {
      "channel": 4,
      "note": 73,
      "start": 39.372,
      "duration": 0.0081,
      "velocity": 89,
      "chip": "ym2612"
    },
    {
      "channel": 5,
      "note": 66,
      "start": 39.374,
      "duration": 0.2154,
      "velocity": 127,
      "chip": "ym2612"
    },
    {
      "channel": 3,
      "note": 78,
      "start": 39.398,
      "duration": 0.0087,
      "velocity": 89,
      "chip": "ym2612"
    },
    {
      "channel": 4,
      "note": 73,
      "start": 39.3983,
      "duration": 0.0085,
      "velocity": 89,
      "chip": "ym2612"
    },
    {
      "channel": 3,
      "note": 78,
      "start": 39.4248,
      "duration": 0.0087,
      "velocity": 89,
      "chip": "ym2612"
    },
    {
      "channel": 4,
      "note": 73,
      "start": 39.4251,
      "duration": 0.0086,
      "velocity": 89,
      "chip": "ym2612"
    },
    {
      "channel": 3,
      "note": 78,
      "start": 39.4515,
      "duration": 0.0087,
      "velocity": 89,
      "chip": "ym2612"
    },
    {
      "channel": 4,
      "note": 73,
      "start": 39.4518,
      "duration": 0.0085,
      "velocity": 89,
      "chip": "ym2612"
    },
    {
      "channel": 0,
      "note": 66,
      "start": 39.4796,
      "duration": 0.1054,
      "velocity": 127,
      "chip": "ym2612"
    },
    {
      "channel": 3,
      "note": 78,
      "start": 39.4801,
      "duration": 0.0069,
      "velocity": 89,
      "chip": "ym2612"
    },
    {
      "channel": 4,
      "note": 73,
      "start": 39.4804,
      "duration": 0.0068,
      "velocity": 89,
      "chip": "ym2612"
    },
    {
      "channel": 3,
      "note": 78,
      "start": 39.5051,
      "duration": 0.0087,
      "velocity": 89,
      "chip": "ym2612"
    },
    {
      "channel": 4,
      "note": 73,
      "start": 39.5054,
      "duration": 0.0085,
      "velocity": 89,
      "chip": "ym2612"
    },
    {
      "channel": 3,
      "note": 78,
      "start": 39.5319,
      "duration": 0.0087,
      "velocity": 89,
      "chip": "ym2612"
    },
    {
      "channel": 4,
      "note": 73,
      "start": 39.5322,
      "duration": 0.0085,
      "velocity": 89,
      "chip": "ym2612"
    },
    {
      "channel": 3,
      "note": 78,
      "start": 39.5587,
      "duration": 0.0087,
      "velocity": 89,
      "chip": "ym2612"
    },
    {
      "channel": 4,
      "note": 73,
      "start": 39.559,
      "duration": 0.0085,
      "velocity": 89,
      "chip": "ym2612"
    },
    {
      "channel": 0,
      "note": 32,
      "start": 39.5867,
      "duration": 0.1054,
      "velocity": 107,
      "chip": "ym2612"
    },
    {
      "channel": 1,
      "note": 58,
      "start": 39.5871,
      "duration": 0.2926,
      "velocity": 50,
      "chip": "ym2612"
    },
    {
      "channel": 2,
      "note": 92,
      "start": 39.5888,
      "duration": 0.0768,
      "velocity": 105,
      "chip": "ym2612"
    },
    {
      "channel": 3,
      "note": 82,
      "start": 39.5891,
      "duration": 0.0051,
      "velocity": 89,
      "chip": "ym2612"
    },
    {
      "channel": 4,
      "note": 77,
      "start": 39.5894,
      "duration": 0.005,
      "velocity": 89,
      "chip": "ym2612"
    },
    {
      "channel": 5,
      "note": 83,
      "start": 39.5912,
      "duration": 0.104,
      "velocity": 53,
      "chip": "ym2612"
    },
    {
      "channel": 3,
      "note": 82,
      "start": 39.6124,
      "duration": 0.0087,
      "velocity": 89,
      "chip": "ym2612"
    },
    {
      "channel": 4,
      "note": 77,
      "start": 39.6127,
      "duration": 0.0085,
      "velocity": 89,
      "chip": "ym2612"
    },
    {
      "channel": 3,
      "note": 82,
      "start": 39.6391,
      "duration": 0.0087,
      "velocity": 89,
      "chip": "ym2612"
    },
    {
      "channel": 4,
      "note": 77,
      "start": 39.6394,
      "duration": 0.0085,
      "velocity": 89,
      "chip": "ym2612"
    },
    {
      "channel": 3,
      "note": 82,
      "start": 39.666,
      "duration": 0.0087,
      "velocity": 89,
      "chip": "ym2612"
    },
    {
      "channel": 4,
      "note": 77,
      "start": 39.6663,
      "duration": 0.0085,
      "velocity": 89,
      "chip": "ym2612"
    },
    {
      "channel": 0,
      "note": 75,
      "start": 39.6941,
      "duration": 0.1052,
      "velocity": 127,
      "chip": "ym2612"
    },
    {
      "channel": 2,
      "note": 92,
      "start": 39.6945,
      "duration": 0.0781,
      "velocity": 105,
      "chip": "ym2612"
    },
    {
      "channel": 3,
      "note": 82,
      "start": 39.6948,
      "duration": 0.0065,
      "velocity": 89,
      "chip": "ym2612"
    },
    {
      "channel": 4,
      "note": 77,
      "start": 39.6951,
      "duration": 0.0063,
      "velocity": 89,
      "chip": "ym2612"
    },
    {
      "channel": 5,
      "note": 75,
      "start": 39.6969,
      "duration": 0.1032,
      "velocity": 127,
      "chip": "ym2612"
    },
    {
      "channel": 3,
      "note": 82,
      "start": 39.7194,
      "duration": 0.0087,
      "velocity": 89,
      "chip": "ym2612"
    },
    {
      "channel": 4,
      "note": 77,
      "start": 39.7197,
      "duration": 0.0085,
      "velocity": 89,
      "chip": "ym2612"
    },
    {
      "channel": 3,
      "note": 82,
      "start": 39.7462,
      "duration": 0.0087,
      "velocity": 89,
      "chip": "ym2612"
    },
    {
      "channel": 4,
      "note": 77,
      "start": 39.7465,
      "duration": 0.0085,
      "velocity": 89,
      "chip": "ym2612"
    },
    {
      "channel": 3,
      "note": 82,
      "start": 39.7733,
      "duration": 0.0084,
      "velocity": 89,
      "chip": "ym2612"
    },
    {
      "channel": 4,
      "note": 77,
      "start": 39.7736,
      "duration": 0.0083,
      "velocity": 89,
      "chip": "ym2612"
    },
    {
      "channel": 0,
      "note": 75,
      "start": 39.7995,
      "duration": 0.1069,
      "velocity": 127,
      "chip": "ym2612"
    },
    {
      "channel": 2,
      "note": 75,
      "start": 39.7999,
      "duration": 0.1871,
      "velocity": 105,
      "chip": "ym2612"
    },
    {
      "channel": 5,
      "note": 66,
      "start": 39.8019,
      "duration": 0.2144,
      "velocity": 127,
      "chip": "ym2612"
    },
    {
      "channel": 0,
      "note": 32,
      "start": 39.9081,
      "duration": 0.1054,
      "velocity": 107,
      "chip": "ym2612"
    },
    {
      "channel": 1,
      "note": 54,
      "start": 39.9085,
      "duration": 0.2927,
      "velocity": 50,
      "chip": "ym2612"
    },
    {
      "channel": 3,
      "note": 78,
      "start": 39.9089,
      "duration": 0.0068,
      "velocity": 89,
      "chip": "ym2612"
    },
    {
      "channel": 4,
      "note": 73,
      "start": 39.9091,
      "duration": 0.0067,
      "velocity": 89,
      "chip": "ym2612"
    },
    {
      "channel": 3,
      "note": 78,
      "start": 39.9338,
      "duration": 0.0087,
      "velocity": 89,
      "chip": "ym2612"
    },
    {
      "channel": 4,
      "note": 73,
      "start": 39.9341,
      "duration": 0.0085,
      "velocity": 89,
      "chip": "ym2612"
    },
    {
      "channel": 3,
      "note": 78,
      "start": 39.9605,
      "duration": 0.0087,
      "velocity": 89,
      "chip": "ym2612"
    },
    {
      "channel": 4,
      "note": 73,
      "start": 39.9608,
      "duration": 0.0085,
      "velocity": 89,
      "chip": "ym2612"
    },
    {
      "channel": 3,
      "note": 78,
      "start": 39.9874,
      "duration": 0.0087,
      "velocity": 89,
      "chip": "ym2612"
    },
    {
      "channel": 4,
      "note": 73,
      "start": 39.9877,
      "duration": 0.0085,
      "velocity": 89,
      "chip": "ym2612"
    },
    {
      "channel": 0,
      "note": 67,
      "start": 40.0153,
      "duration": 0.1054,
      "velocity": 112,
      "chip": "ym2612"
    },
    {
      "channel": 2,
      "note": 89,
      "start": 40.0156,
      "duration": 0.0784,
      "velocity": 105,
      "chip": "ym2612"
    },
    {
      "channel": 3,
      "note": 78,
      "start": 40.016,
      "duration": 0.0067,
      "velocity": 89,
      "chip": "ym2612"
    },
    {
      "channel": 4,
      "note": 73,
      "start": 40.0163,
      "duration": 0.0068,
      "velocity": 89,
      "chip": "ym2612"
    },
    {
      "channel": 5,
      "note": 83,
      "start": 40.018,
      "duration": 0.1052,
      "velocity": 53,
      "chip": "ym2612"
    },
    {
      "channel": 3,
      "note": 78,
      "start": 40.0408,
      "duration": 0.0087,
      "velocity": 89,
      "chip": "ym2612"
    },
    {
      "channel": 4,
      "note": 73,
      "start": 40.0411,
      "duration": 0.0085,
      "velocity": 89,
      "chip": "ym2612"
    },
    {
      "channel": 3,
      "note": 78,
      "start": 40.0676,
      "duration": 0.0087,
      "velocity": 89,
      "chip": "ym2612"
    },
    {
      "channel": 4,
      "note": 73,
      "start": 40.0679,
      "duration": 0.0085,
      "velocity": 89,
      "chip": "ym2612"
    },
    {
      "channel": 3,
      "note": 78,
      "start": 40.0944,
      "duration": 0.0089,
      "velocity": 89,
      "chip": "ym2612"
    },
    {
      "channel": 4,
      "note": 73,
      "start": 40.0947,
      "duration": 0.0088,
      "velocity": 89,
      "chip": "ym2612"
    },
    {
      "channel": 0,
      "note": 32,
      "start": 40.1224,
      "duration": 0.1054,
      "velocity": 107,
      "chip": "ym2612"
    },
    {
      "channel": 2,
      "note": 89,
      "start": 40.1231,
      "duration": 0.0782,
      "velocity": 105,
      "chip": "ym2612"
    },
    {
      "channel": 5,
      "note": 75,
      "start": 40.125,
      "duration": 0.1057,
      "velocity": 127,
      "chip": "ym2612"
    },
    {
      "channel": 0,
      "note": 32,
      "start": 40.2295,
      "duration": 0.1054,
      "velocity": 107,
      "chip": "ym2612"
    },
    {
      "channel": 1,
      "note": 53,
      "start": 40.2299,
      "duration": 0.1854,
      "velocity": 50,
      "chip": "ym2612"
    },
    {
      "channel": 2,
      "note": 73,
      "start": 40.2302,
      "duration": 0.1853,
      "velocity": 105,
      "chip": "ym2612"
    },
    {
      "channel": 3,
      "note": 77,
      "start": 40.2305,
      "duration": 0.0066,
      "velocity": 89,
      "chip": "ym2612"
    },
    {
      "channel": 4,
      "note": 72,
      "start": 40.2307,
      "duration": 0.0065,
      "velocity": 89,
      "chip": "ym2612"
    },
    {
      "channel": 5,
      "note": 66,
      "start": 40.2325,
      "duration": 0.2141,
      "velocity": 127,
      "chip": "ym2612"
    },
    {
      "channel": 3,
      "note": 77,
      "start": 40.2552,
      "duration": 0.0087,
      "velocity": 89,
      "chip": "ym2612"
    },
    {
      "channel": 4,
      "note": 72,
      "start": 40.2555,
      "duration": 0.0085,
      "velocity": 89,
      "chip": "ym2612"
    },
    {
      "channel": 3,
      "note": 77,
      "start": 40.282,
      "duration": 0.0087,
      "velocity": 89,
      "chip": "ym2612"
    },
    {
      "channel": 4,
      "note": 72,
      "start": 40.2822,
      "duration": 0.0085,
      "velocity": 89,
      "chip": "ym2612"
    },
    {
      "channel": 3,
      "note": 77,
      "start": 40.3087,
      "duration": 0.0087,
      "velocity": 89,
      "chip": "ym2612"
    },
    {
      "channel": 4,
      "note": 72,
      "start": 40.309,
      "duration": 0.0085,
      "velocity": 89,
      "chip": "ym2612"
    },
    {
      "channel": 0,
      "note": 67,
      "start": 40.3367,
      "duration": 0.1054,
      "velocity": 112,
      "chip": "ym2612"
    },
    {
      "channel": 3,
      "note": 77,
      "start": 40.3372,
      "duration": 0.0069,
      "velocity": 89,
      "chip": "ym2612"
    },
    {
      "channel": 4,
      "note": 72,
      "start": 40.3375,
      "duration": 0.0068,
      "velocity": 89,
      "chip": "ym2612"
    },
    {
      "channel": 3,
      "note": 77,
      "start": 40.3622,
      "duration": 0.0087,
      "velocity": 89,
      "chip": "ym2612"
    },
    {
      "channel": 4,
      "note": 72,
      "start": 40.3625,
      "duration": 0.0085,
      "velocity": 89,
      "chip": "ym2612"
    },
    {
      "channel": 3,
      "note": 77,
      "start": 40.389,
      "duration": 0.0087,
      "velocity": 89,
      "chip": "ym2612"
    },
    {
      "channel": 4,
      "note": 72,
      "start": 40.3893,
      "duration": 0.0085,
      "velocity": 89,
      "chip": "ym2612"
    },
    {
      "channel": 3,
      "note": 77,
      "start": 40.4159,
      "duration": 0.0087,
      "velocity": 89,
      "chip": "ym2612"
    },
    {
      "channel": 4,
      "note": 72,
      "start": 40.4162,
      "duration": 0.0085,
      "velocity": 89,
      "chip": "ym2612"
    },
    {
      "channel": 0,
      "note": 32,
      "start": 40.4441,
      "duration": 0.1052,
      "velocity": 127,
      "chip": "ym2612"
    },
    {
      "channel": 1,
      "note": 58,
      "start": 40.4444,
      "duration": 0.2923,
      "velocity": 50,
      "chip": "ym2612"
    },
    {
      "channel": 3,
      "note": 82,
      "start": 40.4463,
      "duration": 0.0051,
      "velocity": 89,
      "chip": "ym2612"
    },
    {
      "channel": 4,
      "note": 77,
      "start": 40.4466,
      "duration": 0.0049,
      "velocity": 89,
      "chip": "ym2612"
    },
    {
      "channel": 5,
      "note": 83,
      "start": 40.4483,
      "duration": 0.1035,
      "velocity": 53,
      "chip": "ym2612"
    },
    {
      "channel": 3,
      "note": 82,
      "start": 40.4694,
      "duration": 0.0087,
      "velocity": 89,
      "chip": "ym2612"
    },
    {
      "channel": 4,
      "note": 77,
      "start": 40.4697,
      "duration": 0.0085,
      "velocity": 89,
      "chip": "ym2612"
    },
    {
      "channel": 3,
      "note": 82,
      "start": 40.4962,
      "duration": 0.0087,
      "velocity": 89,
      "chip": "ym2612"
    },
    {
      "channel": 4,
      "note": 77,
      "start": 40.4965,
      "duration": 0.0085,
      "velocity": 89,
      "chip": "ym2612"
    },
    {
      "channel": 3,
      "note": 82,
      "start": 40.5233,
      "duration": 0.0084,
      "velocity": 89,
      "chip": "ym2612"
    },
    {
      "channel": 4,
      "note": 77,
      "start": 40.5236,
      "duration": 0.0083,
      "velocity": 89,
      "chip": "ym2612"
    },
    {
      "channel": 0,
      "note": 75,
      "start": 40.551,
      "duration": 0.1054,
      "velocity": 127,
      "chip": "ym2612"
    },
    {
      "channel": 3,
      "note": 82,
      "start": 40.5515,
      "duration": 0.0069,
      "velocity": 89,
      "chip": "ym2612"
    },
    {
      "channel": 4,
      "note": 77,
      "start": 40.5518,
      "duration": 0.0067,
      "velocity": 89,
      "chip": "ym2612"
    },
    {
      "channel": 5,
      "note": 75,
      "start": 40.5539,
      "duration": 0.1046,
      "velocity": 127,
      "chip": "ym2612"
    },
    {
      "channel": 3,
      "note": 82,
      "start": 40.5765,
      "duration": 0.0087,
      "velocity": 89,
      "chip": "ym2612"
    },
    {
      "channel": 4,
      "note": 77,
      "start": 40.5768,
      "duration": 0.0085,
      "velocity": 89,
      "chip": "ym2612"
    },
    {
      "channel": 3,
      "note": 82,
      "start": 40.6035,
      "duration": 0.0084,
      "velocity": 89,
      "chip": "ym2612"
    },
    {
      "channel": 4,
      "note": 77,
      "start": 40.6038,
      "duration": 0.0083,
      "velocity": 89,
      "chip": "ym2612"
    },
    {
      "channel": 3,
      "note": 82,
      "start": 40.63,
      "duration": 0.0087,
      "velocity": 89,
      "chip": "ym2612"
    },
    {
      "channel": 4,
      "note": 77,
      "start": 40.6303,
      "duration": 0.0085,
      "velocity": 89,
      "chip": "ym2612"
    },
    {
      "channel": 0,
      "note": 75,
      "start": 40.6581,
      "duration": 0.1054,
      "velocity": 127,
      "chip": "ym2612"
    },
    {
      "channel": 5,
      "note": 66,
      "start": 40.6602,
      "duration": 0.2132,
      "velocity": 127,
      "chip": "ym2612"
    },
    {
      "channel": 0,
      "note": 66,
      "start": 40.7652,
      "duration": 0.1054,
      "velocity": 127,
      "chip": "ym2612"
    },
    {
      "channel": 1,
      "note": 58,
      "start": 40.7656,
      "duration": 0.3015,
      "velocity": 50,
      "chip": "ym2612"
    },
    {
      "channel": 3,
      "note": 78,
      "start": 40.7659,
      "duration": 0.0067,
      "velocity": 89,
      "chip": "ym2612"
    },
    {
      "channel": 4,
      "note": 73,
      "start": 40.7662,
      "duration": 0.0068,
      "velocity": 89,
      "chip": "ym2612"
    },
    {
      "channel": 3,
      "note": 78,
      "start": 40.7907,
      "duration": 0.0087,
      "velocity": 89,
      "chip": "ym2612"
    },
    {
      "channel": 4,
      "note": 73,
      "start": 40.791,
      "duration": 0.0085,
      "velocity": 89,
      "chip": "ym2612"
    },
    {
      "channel": 3,
      "note": 78,
      "start": 40.8175,
      "duration": 0.0087,
      "velocity": 89,
      "chip": "ym2612"
    },
    {
      "channel": 4,
      "note": 73,
      "start": 40.8178,
      "duration": 0.0085,
      "velocity": 89,
      "chip": "ym2612"
    },
    {
      "channel": 3,
      "note": 78,
      "start": 40.8443,
      "duration": 0.0089,
      "velocity": 89,
      "chip": "ym2612"
    },
    {
      "channel": 4,
      "note": 73,
      "start": 40.8446,
      "duration": 0.0088,
      "velocity": 89,
      "chip": "ym2612"
    },
    {
      "channel": 0,
      "note": 67,
      "start": 40.8724,
      "duration": 0.1054,
      "velocity": 112,
      "chip": "ym2612"
    },
    {
      "channel": 3,
      "note": 78,
      "start": 40.8731,
      "duration": 0.0067,
      "velocity": 89,
      "chip": "ym2612"
    },
    {
      "channel": 4,
      "note": 73,
      "start": 40.8734,
      "duration": 0.0065,
      "velocity": 89,
      "chip": "ym2612"
    },
    {
      "channel": 5,
      "note": 83,
      "start": 40.8752,
      "duration": 0.1047,
      "velocity": 53,
      "chip": "ym2612"
    },
    {
      "channel": 3,
      "note": 78,
      "start": 40.8979,
      "duration": 0.0087,
      "velocity": 89,
      "chip": "ym2612"
    },
    {
      "channel": 4,
      "note": 73,
      "start": 40.8982,
      "duration": 0.0085,
      "velocity": 89,
      "chip": "ym2612"
    },
    {
      "channel": 3,
      "note": 78,
      "start": 40.9247,
      "duration": 0.0087,
      "velocity": 89,
      "chip": "ym2612"
    },
    {
      "channel": 4,
      "note": 73,
      "start": 40.925,
      "duration": 0.0086,
      "velocity": 89,
      "chip": "ym2612"
    },
    {
      "channel": 3,
      "note": 78,
      "start": 40.9515,
      "duration": 0.0087,
      "velocity": 89,
      "chip": "ym2612"
    },
    {
      "channel": 4,
      "note": 73,
      "start": 40.9517,
      "duration": 0.0085,
      "velocity": 89,
      "chip": "ym2612"
    },
    {
      "channel": 0,
      "note": 75,
      "start": 40.9795,
      "duration": 0.1144,
      "velocity": 127,
      "chip": "ym2612"
    },
    {
      "channel": 5,
      "note": 75,
      "start": 40.9817,
      "duration": 0.1134,
      "velocity": 127,
      "chip": "ym2612"
    },
    {
      "channel": 0,
      "note": 75,
      "start": 41.0941,
      "duration": 0.1069,
      "velocity": 127,
      "chip": "ym2612"
    },
    {
      "channel": 1,
      "note": 61,
      "start": 41.0945,
      "duration": 0.1869,
      "velocity": 50,
      "chip": "ym2612"
    },
    {
      "channel": 3,
      "note": 77,
      "start": 41.0948,
      "duration": 0.0084,
      "velocity": 89,
      "chip": "ym2612"
    },
    {
      "channel": 4,
      "note": 72,
      "start": 41.0951,
      "duration": 0.0083,
      "velocity": 89,
      "chip": "ym2612"
    },
    {
      "channel": 5,
      "note": 66,
      "start": 41.0968,
      "duration": 0.2216,
      "velocity": 127,
      "chip": "ym2612"
    },
    {
      "channel": 3,
      "note": 77,
      "start": 41.1211,
      "duration": 0.0087,
      "velocity": 89,
      "chip": "ym2612"
    },
    {
      "channel": 4,
      "note": 72,
      "start": 41.1214,
      "duration": 0.0085,
      "velocity": 89,
      "chip": "ym2612"
    },
    {
      "channel": 3,
      "note": 77,
      "start": 41.1479,
      "duration": 0.0087,
      "velocity": 89,
      "chip": "ym2612"
    },
    {
      "channel": 4,
      "note": 72,
      "start": 41.1482,
      "duration": 0.0085,
      "velocity": 89,
      "chip": "ym2612"
    },
    {
      "channel": 3,
      "note": 77,
      "start": 41.1746,
      "duration": 0.0087,
      "velocity": 89,
      "chip": "ym2612"
    },
    {
      "channel": 4,
      "note": 72,
      "start": 41.1749,
      "duration": 0.0086,
      "velocity": 89,
      "chip": "ym2612"
    },
    {
      "channel": 0,
      "note": 66,
      "start": 41.2027,
      "duration": 0.1054,
      "velocity": 127,
      "chip": "ym2612"
    },
    {
      "channel": 3,
      "note": 77,
      "start": 41.2034,
      "duration": 0.0067,
      "velocity": 89,
      "chip": "ym2612"
    },
    {
      "channel": 4,
      "note": 72,
      "start": 41.2037,
      "duration": 0.0065,
      "velocity": 89,
      "chip": "ym2612"
    },
    {
      "channel": 3,
      "note": 77,
      "start": 41.2282,
      "duration": 0.0087,
      "velocity": 89,
      "chip": "ym2612"
    },
    {
      "channel": 4,
      "note": 72,
      "start": 41.2285,
      "duration": 0.0085,
      "velocity": 89,
      "chip": "ym2612"
    },
    {
      "channel": 3,
      "note": 77,
      "start": 41.255,
      "duration": 0.0087,
      "velocity": 89,
      "chip": "ym2612"
    },
    {
      "channel": 4,
      "note": 72,
      "start": 41.2553,
      "duration": 0.0085,
      "velocity": 89,
      "chip": "ym2612"
    },
    {
      "channel": 3,
      "note": 77,
      "start": 41.2818,
      "duration": 0.0087,
      "velocity": 89,
      "chip": "ym2612"
    },
    {
      "channel": 4,
      "note": 72,
      "start": 41.2821,
      "duration": 0.0085,
      "velocity": 89,
      "chip": "ym2612"
    },
    {
      "channel": 0,
      "note": 32,
      "start": 41.3098,
      "duration": 0.1054,
      "velocity": 107,
      "chip": "ym2612"
    },
    {
      "channel": 1,
      "note": 60,
      "start": 41.3132,
      "duration": 0.2898,
      "velocity": 50,
      "chip": "ym2612"
    },
    {
      "channel": 2,
      "note": 48,
      "start": 41.3149,
      "duration": 0.0738,
      "velocity": 127,
      "chip": "ym2612"
    },
    {
      "channel": 3,
      "note": 84,
      "start": 41.3166,
      "duration": 0.0041,
      "velocity": 89,
      "chip": "ym2612"
    },
    {
      "channel": 4,
      "note": 79,
      "start": 41.3184,
      "duration": 0.0024,
      "velocity": 89,
      "chip": "ym2612"
    },
    {
      "channel": 5,
      "note": 83,
      "start": 41.3202,
      "duration": 0.0978,
      "velocity": 53,
      "chip": "ym2612"
    },
    {
      "channel": 3,
      "note": 84,
      "start": 41.3355,
      "duration": 0.0087,
      "velocity": 89,
      "chip": "ym2612"
    },
    {
      "channel": 4,
      "note": 79,
      "start": 41.3358,
      "duration": 0.0085,
      "velocity": 89,
      "chip": "ym2612"
    },
    {
      "channel": 3,
      "note": 84,
      "start": 41.3622,
      "duration": 0.0087,
      "velocity": 89,
      "chip": "ym2612"
    },
    {
      "channel": 4,
      "note": 79,
      "start": 41.3625,
      "duration": 0.0085,
      "velocity": 89,
      "chip": "ym2612"
    },
    {
      "channel": 3,
      "note": 84,
      "start": 41.3891,
      "duration": 0.0087,
      "velocity": 89,
      "chip": "ym2612"
    },
    {
      "channel": 4,
      "note": 79,
      "start": 41.3894,
      "duration": 0.0085,
      "velocity": 89,
      "chip": "ym2612"
    },
    {
      "channel": 0,
      "note": 75,
      "start": 41.417,
      "duration": 0.1054,
      "velocity": 127,
      "chip": "ym2612"
    },
    {
      "channel": 2,
      "note": 48,
      "start": 41.4174,
      "duration": 0.0783,
      "velocity": 127,
      "chip": "ym2612"
    },
    {
      "channel": 3,
      "note": 84,
      "start": 41.4177,
      "duration": 0.0067,
      "velocity": 89,
      "chip": "ym2612"
    },
    {
      "channel": 4,
      "note": 79,
      "start": 41.418,
      "duration": 0.0065,
      "velocity": 89,
      "chip": "ym2612"
    },
    {
      "channel": 5,
      "note": 75,
      "start": 41.4198,
      "duration": 0.1034,
      "velocity": 127,
      "chip": "ym2612"
    },
    {
      "channel": 3,
      "note": 84,
      "start": 41.4425,
      "duration": 0.0087,
      "velocity": 89,
      "chip": "ym2612"
    },
    {
      "channel": 4,
      "note": 79,
      "start": 41.443,
      "duration": 0.0083,
      "velocity": 89,
      "chip": "ym2612"
    },
    {
      "channel": 3,
      "note": 84,
      "start": 41.4693,
      "duration": 0.0087,
      "velocity": 89,
      "chip": "ym2612"
    },
    {
      "channel": 4,
      "note": 79,
      "start": 41.4696,
      "duration": 0.0085,
      "velocity": 89,
      "chip": "ym2612"
    },
    {
      "channel": 3,
      "note": 84,
      "start": 41.4961,
      "duration": 0.0087,
      "velocity": 89,
      "chip": "ym2612"
    },
    {
      "channel": 4,
      "note": 79,
      "start": 41.4964,
      "duration": 0.0085,
      "velocity": 89,
      "chip": "ym2612"
    },
    {
      "channel": 0,
      "note": 75,
      "start": 41.5226,
      "duration": 0.1069,
      "velocity": 127,
      "chip": "ym2612"
    },
    {
      "channel": 5,
      "note": 66,
      "start": 41.525,
      "duration": 0.2144,
      "velocity": 127,
      "chip": "ym2612"
    },
    {
      "channel": 0,
      "note": 32,
      "start": 41.6312,
      "duration": 0.1054,
      "velocity": 107,
      "chip": "ym2612"
    },
    {
      "channel": 1,
      "note": 58,
      "start": 41.6316,
      "duration": 0.2927,
      "velocity": 50,
      "chip": "ym2612"
    },
    {
      "channel": 2,
      "note": 46,
      "start": 41.6319,
      "duration": 0.0782,
      "velocity": 127,
      "chip": "ym2612"
    },
    {
      "channel": 3,
      "note": 82,
      "start": 41.6321,
      "duration": 0.0066,
      "velocity": 89,
      "chip": "ym2612"
    },
    {
      "channel": 4,
      "note": 77,
      "start": 41.6324,
      "duration": 0.0066,
      "velocity": 89,
      "chip": "ym2612"
    },
    {
      "channel": 3,
      "note": 82,
      "start": 41.6569,
      "duration": 0.0087,
      "velocity": 89,
      "chip": "ym2612"
    },
    {
      "channel": 4,
      "note": 77,
      "start": 41.6572,
      "duration": 0.0085,
      "velocity": 89,
      "chip": "ym2612"
    },
    {
      "channel": 3,
      "note": 82,
      "start": 41.6837,
      "duration": 0.0087,
      "velocity": 89,
      "chip": "ym2612"
    },
    {
      "channel": 4,
      "note": 77,
      "start": 41.6839,
      "duration": 0.0085,
      "velocity": 89,
      "chip": "ym2612"
    },
    {
      "channel": 3,
      "note": 82,
      "start": 41.7105,
      "duration": 0.0087,
      "velocity": 89,
      "chip": "ym2612"
    },
    {
      "channel": 4,
      "note": 77,
      "start": 41.7108,
      "duration": 0.0085,
      "velocity": 89,
      "chip": "ym2612"
    },
    {
      "channel": 0,
      "note": 67,
      "start": 41.7384,
      "duration": 0.1054,
      "velocity": 112,
      "chip": "ym2612"
    },
    {
      "channel": 2,
      "note": 46,
      "start": 41.7388,
      "duration": 0.0783,
      "velocity": 127,
      "chip": "ym2612"
    },
    {
      "channel": 3,
      "note": 82,
      "start": 41.7391,
      "duration": 0.0067,
      "velocity": 89,
      "chip": "ym2612"
    },
    {
      "channel": 4,
      "note": 77,
      "start": 41.7394,
      "duration": 0.0066,
      "velocity": 89,
      "chip": "ym2612"
    },
    {
      "channel": 5,
      "note": 83,
      "start": 41.7411,
      "duration": 0.1047,
      "velocity": 53,
      "chip": "ym2612"
    },
    {
      "channel": 3,
      "note": 82,
      "start": 41.7639,
      "duration": 0.0087,
      "velocity": 89,
      "chip": "ym2612"
    },
    {
      "channel": 4,
      "note": 77,
      "start": 41.7642,
      "duration": 0.0088,
      "velocity": 89,
      "chip": "ym2612"
    },
    {
      "channel": 3,
      "note": 82,
      "start": 41.7907,
      "duration": 0.0087,
      "velocity": 89,
      "chip": "ym2612"
    },
    {
      "channel": 4,
      "note": 77,
      "start": 41.791,
      "duration": 0.0085,
      "velocity": 89,
      "chip": "ym2612"
    },
    {
      "channel": 3,
      "note": 82,
      "start": 41.8175,
      "duration": 0.0087,
      "velocity": 89,
      "chip": "ym2612"
    },
    {
      "channel": 4,
      "note": 77,
      "start": 41.8178,
      "duration": 0.0085,
      "velocity": 89,
      "chip": "ym2612"
    },
    {
      "channel": 0,
      "note": 32,
      "start": 41.8455,
      "duration": 0.1054,
      "velocity": 107,
      "chip": "ym2612"
    },
    {
      "channel": 5,
      "note": 75,
      "start": 41.8476,
      "duration": 0.1064,
      "velocity": 127,
      "chip": "ym2612"
    },
    {
      "channel": 0,
      "note": 32,
      "start": 41.9527,
      "duration": 0.1054,
      "velocity": 107,
      "chip": "ym2612"
    },
    {
      "channel": 1,
      "note": 54,
      "start": 41.9533,
      "duration": 0.1852,
      "velocity": 50,
      "chip": "ym2612"
    },
    {
      "channel": 2,
      "note": 42,
      "start": 41.9535,
      "duration": 0.078,
      "velocity": 127,
      "chip": "ym2612"
    },
    {
      "channel": 3,
      "note": 78,
      "start": 41.9538,
      "duration": 0.0064,
      "velocity": 89,
      "chip": "ym2612"
    },
    {
      "channel": 4,
      "note": 73,
      "start": 41.954,
      "duration": 0.0063,
      "velocity": 89,
      "chip": "ym2612"
    },
    {
      "channel": 5,
      "note": 66,
      "start": 41.9558,
      "duration": 0.2125,
      "velocity": 127,
      "chip": "ym2612"
    },
    {
      "channel": 3,
      "note": 78,
      "start": 41.9783,
      "duration": 0.0087,
      "velocity": 89,
      "chip": "ym2612"
    },
    {
      "channel": 4,
      "note": 73,
      "start": 41.9786,
      "duration": 0.0085,
      "velocity": 89,
      "chip": "ym2612"
    },
    {
      "channel": 3,
      "note": 78,
      "start": 42.0051,
      "duration": 0.0087,
      "velocity": 89,
      "chip": "ym2612"
    },
    {
      "channel": 4,
      "note": 73,
      "start": 42.0054,
      "duration": 0.0085,
      "velocity": 89,
      "chip": "ym2612"
    },
    {
      "channel": 3,
      "note": 78,
      "start": 42.0319,
      "duration": 0.0087,
      "velocity": 89,
      "chip": "ym2612"
    },
    {
      "channel": 4,
      "note": 73,
      "start": 42.0322,
      "duration": 0.0085,
      "velocity": 89,
      "chip": "ym2612"
    },
    {
      "channel": 0,
      "note": 67,
      "start": 42.0598,
      "duration": 0.1054,
      "velocity": 112,
      "chip": "ym2612"
    },
    {
      "channel": 2,
      "note": 42,
      "start": 42.0602,
      "duration": 0.0784,
      "velocity": 127,
      "chip": "ym2612"
    },
    {
      "channel": 3,
      "note": 78,
      "start": 42.0605,
      "duration": 0.0067,
      "velocity": 89,
      "chip": "ym2612"
    },
    {
      "channel": 4,
      "note": 73,
      "start": 42.0608,
      "duration": 0.0066,
      "velocity": 89,
      "chip": "ym2612"
    },
    {
      "channel": 3,
      "note": 78,
      "start": 42.0853,
      "duration": 0.0087,
      "velocity": 89,
      "chip": "ym2612"
    },
    {
      "channel": 4,
      "note": 73,
      "start": 42.0856,
      "duration": 0.0085,
      "velocity": 89,
      "chip": "ym2612"
    },
    {
      "channel": 3,
      "note": 78,
      "start": 42.1121,
      "duration": 0.0087,
      "velocity": 89,
      "chip": "ym2612"
    },
    {
      "channel": 4,
      "note": 73,
      "start": 42.1124,
      "duration": 0.0085,
      "velocity": 89,
      "chip": "ym2612"
    },
    {
      "channel": 3,
      "note": 78,
      "start": 42.139,
      "duration": 0.0087,
      "velocity": 89,
      "chip": "ym2612"
    },
    {
      "channel": 4,
      "note": 73,
      "start": 42.1393,
      "duration": 0.0085,
      "velocity": 89,
      "chip": "ym2612"
    },
    {
      "channel": 0,
      "note": 32,
      "start": 42.167,
      "duration": 0.1054,
      "velocity": 127,
      "chip": "ym2612"
    },
    {
      "channel": 1,
      "note": 60,
      "start": 42.1673,
      "duration": 0.2925,
      "velocity": 50,
      "chip": "ym2612"
    },
    {
      "channel": 2,
      "note": 48,
      "start": 42.1676,
      "duration": 0.0781,
      "velocity": 127,
      "chip": "ym2612"
    },
    {
      "channel": 3,
      "note": 84,
      "start": 42.1679,
      "duration": 0.0065,
      "velocity": 89,
      "chip": "ym2612"
    },
    {
      "channel": 4,
      "note": 79,
      "start": 42.1682,
      "duration": 0.0063,
      "velocity": 89,
      "chip": "ym2612"
    },
    {
      "channel": 5,
      "note": 83,
      "start": 42.17,
      "duration": 0.1054,
      "velocity": 53,
      "chip": "ym2612"
    },
    {
      "channel": 3,
      "note": 84,
      "start": 42.1925,
      "duration": 0.0087,
      "velocity": 89,
      "chip": "ym2612"
    },
    {
      "channel": 4,
      "note": 79,
      "start": 42.1931,
      "duration": 0.0083,
      "velocity": 89,
      "chip": "ym2612"
    },
    {
      "channel": 3,
      "note": 84,
      "start": 42.2193,
      "duration": 0.0087,
      "velocity": 89,
      "chip": "ym2612"
    },
    {
      "channel": 4,
      "note": 79,
      "start": 42.2196,
      "duration": 0.0085,
      "velocity": 89,
      "chip": "ym2612"
    },
    {
      "channel": 3,
      "note": 84,
      "start": 42.2461,
      "duration": 0.0087,
      "velocity": 89,
      "chip": "ym2612"
    },
    {
      "channel": 4,
      "note": 79,
      "start": 42.2464,
      "duration": 0.0085,
      "velocity": 89,
      "chip": "ym2612"
    },
    {
      "channel": 0,
      "note": 75,
      "start": 42.2743,
      "duration": 0.1052,
      "velocity": 127,
      "chip": "ym2612"
    },
    {
      "channel": 2,
      "note": 48,
      "start": 42.2747,
      "duration": 0.0784,
      "velocity": 127,
      "chip": "ym2612"
    },
    {
      "channel": 3,
      "note": 84,
      "start": 42.275,
      "duration": 0.0065,
      "velocity": 89,
      "chip": "ym2612"
    },
    {
      "channel": 4,
      "note": 79,
      "start": 42.2753,
      "duration": 0.0063,
      "velocity": 89,
      "chip": "ym2612"
    },
    {
      "channel": 5,
      "note": 75,
      "start": 42.2771,
      "duration": 0.1044,
      "velocity": 127,
      "chip": "ym2612"
    },
    {
      "channel": 3,
      "note": 84,
      "start": 42.2996,
      "duration": 0.0087,
      "velocity": 89,
      "chip": "ym2612"
    },
    {
      "channel": 4,
      "note": 79,
      "start": 42.2999,
      "duration": 0.0085,
      "velocity": 89,
      "chip": "ym2612"
    },
    {
      "channel": 3,
      "note": 84,
      "start": 42.3264,
      "duration": 0.0087,
      "velocity": 89,
      "chip": "ym2612"
    },
    {
      "channel": 4,
      "note": 79,
      "start": 42.3267,
      "duration": 0.0085,
      "velocity": 89,
      "chip": "ym2612"
    },
    {
      "channel": 3,
      "note": 84,
      "start": 42.3534,
      "duration": 0.0084,
      "velocity": 89,
      "chip": "ym2612"
    },
    {
      "channel": 4,
      "note": 79,
      "start": 42.3537,
      "duration": 0.0083,
      "velocity": 89,
      "chip": "ym2612"
    },
    {
      "channel": 0,
      "note": 75,
      "start": 42.3812,
      "duration": 0.1054,
      "velocity": 127,
      "chip": "ym2612"
    },
    {
      "channel": 5,
      "note": 66,
      "start": 42.3836,
      "duration": 0.2129,
      "velocity": 127,
      "chip": "ym2612"
    },
    {
      "channel": 0,
      "note": 66,
      "start": 42.4883,
      "duration": 0.1054,
      "velocity": 127,
      "chip": "ym2612"
    },
    {
      "channel": 1,
      "note": 61,
      "start": 42.4887,
      "duration": 0.2926,
      "velocity": 50,
      "chip": "ym2612"
    },
    {
      "channel": 2,
      "note": 46,
      "start": 42.4889,
      "duration": 0.0781,
      "velocity": 127,
      "chip": "ym2612"
    },
    {
      "channel": 3,
      "note": 82,
      "start": 42.4892,
      "duration": 0.0066,
      "velocity": 89,
      "chip": "ym2612"
    },
    {
      "channel": 4,
      "note": 77,
      "start": 42.4894,
      "duration": 0.0065,
      "velocity": 89,
      "chip": "ym2612"
    },
    {
      "channel": 3,
      "note": 82,
      "start": 42.5139,
      "duration": 0.0087,
      "velocity": 89,
      "chip": "ym2612"
    },
    {
      "channel": 4,
      "note": 77,
      "start": 42.5141,
      "duration": 0.0085,
      "velocity": 89,
      "chip": "ym2612"
    },
    {
      "channel": 3,
      "note": 82,
      "start": 42.5406,
      "duration": 0.0087,
      "velocity": 89,
      "chip": "ym2612"
    },
    {
      "channel": 4,
      "note": 77,
      "start": 42.5409,
      "duration": 0.0085,
      "velocity": 89,
      "chip": "ym2612"
    },
    {
      "channel": 3,
      "note": 82,
      "start": 42.5675,
      "duration": 0.0087,
      "velocity": 89,
      "chip": "ym2612"
    },
    {
      "channel": 4,
      "note": 77,
      "start": 42.5678,
      "duration": 0.0085,
      "velocity": 89,
      "chip": "ym2612"
    },
    {
      "channel": 0,
      "note": 67,
      "start": 42.5955,
      "duration": 0.1054,
      "velocity": 112,
      "chip": "ym2612"
    },
    {
      "channel": 2,
      "note": 46,
      "start": 42.5959,
      "duration": 0.0784,
      "velocity": 127,
      "chip": "ym2612"
    },
    {
      "channel": 3,
      "note": 82,
      "start": 42.5961,
      "duration": 0.007,
      "velocity": 89,
      "chip": "ym2612"
    },
    {
      "channel": 4,
      "note": 77,
      "start": 42.5964,
      "duration": 0.0068,
      "velocity": 89,
      "chip": "ym2612"
    },
    {
      "channel": 5,
      "note": 83,
      "start": 42.5982,
      "duration": 0.105,
      "velocity": 53,
      "chip": "ym2612"
    },
    {
      "channel": 3,
      "note": 82,
      "start": 42.621,
      "duration": 0.0087,
      "velocity": 89,
      "chip": "ym2612"
    },
    {
      "channel": 4,
      "note": 77,
      "start": 42.6213,
      "duration": 0.0085,
      "velocity": 89,
      "chip": "ym2612"
    },
    {
      "channel": 3,
      "note": 82,
      "start": 42.6478,
      "duration": 0.0087,
      "velocity": 89,
      "chip": "ym2612"
    },
    {
      "channel": 4,
      "note": 77,
      "start": 42.6481,
      "duration": 0.0085,
      "velocity": 89,
      "chip": "ym2612"
    },
    {
      "channel": 3,
      "note": 82,
      "start": 42.6746,
      "duration": 0.0088,
      "velocity": 89,
      "chip": "ym2612"
    },
    {
      "channel": 4,
      "note": 77,
      "start": 42.6749,
      "duration": 0.0086,
      "velocity": 89,
      "chip": "ym2612"
    },
    {
      "channel": 0,
      "note": 75,
      "start": 42.7026,
      "duration": 0.1054,
      "velocity": 127,
      "chip": "ym2612"
    },
    {
      "channel": 5,
      "note": 75,
      "start": 42.705,
      "duration": 0.1045,
      "velocity": 127,
      "chip": "ym2612"
    },
    {
      "channel": 0,
      "note": 75,
      "start": 42.8083,
      "duration": 0.1069,
      "velocity": 127,
      "chip": "ym2612"
    },
    {
      "channel": 1,
      "note": 58,
      "start": 42.8086,
      "duration": 0.1869,
      "velocity": 50,
      "chip": "ym2612"
    },
    {
      "channel": 2,
      "note": 42,
      "start": 42.8089,
      "duration": 0.0796,
      "velocity": 127,
      "chip": "ym2612"
    },
    {
      "channel": 3,
      "note": 78,
      "start": 42.8091,
      "duration": 0.008,
      "velocity": 89,
      "chip": "ym2612"
    },
    {
      "channel": 4,
      "note": 73,
      "start": 42.8094,
      "duration": 0.0079,
      "velocity": 89,
      "chip": "ym2612"
    },
    {
      "channel": 5,
      "note": 66,
      "start": 42.8112,
      "duration": 0.2144,
      "velocity": 127,
      "chip": "ym2612"
    },
    {
      "channel": 3,
      "note": 78,
      "start": 42.8353,
      "duration": 0.0087,
      "velocity": 89,
      "chip": "ym2612"
    },
    {
      "channel": 4,
      "note": 73,
      "start": 42.8356,
      "duration": 0.0085,
      "velocity": 89,
      "chip": "ym2612"
    },
    {
      "channel": 3,
      "note": 78,
      "start": 42.862,
      "duration": 0.0087,
      "velocity": 89,
      "chip": "ym2612"
    },
    {
      "channel": 4,
      "note": 73,
      "start": 42.8623,
      "duration": 0.0085,
      "velocity": 89,
      "chip": "ym2612"
    },
    {
      "channel": 3,
      "note": 78,
      "start": 42.8889,
      "duration": 0.0087,
      "velocity": 89,
      "chip": "ym2612"
    },
    {
      "channel": 4,
      "note": 73,
      "start": 42.8892,
      "duration": 0.0085,
      "velocity": 89,
      "chip": "ym2612"
    },
    {
      "channel": 0,
      "note": 66,
      "start": 42.9169,
      "duration": 0.1054,
      "velocity": 127,
      "chip": "ym2612"
    },
    {
      "channel": 2,
      "note": 42,
      "start": 42.9173,
      "duration": 0.0784,
      "velocity": 127,
      "chip": "ym2612"
    },
    {
      "channel": 3,
      "note": 78,
      "start": 42.9176,
      "duration": 0.0067,
      "velocity": 89,
      "chip": "ym2612"
    },
    {
      "channel": 4,
      "note": 73,
      "start": 42.9179,
      "duration": 0.0066,
      "velocity": 89,
      "chip": "ym2612"
    },
    {
      "channel": 3,
      "note": 78,
      "start": 42.9424,
      "duration": 0.0087,
      "velocity": 89,
      "chip": "ym2612"
    },
    {
      "channel": 4,
      "note": 73,
      "start": 42.9427,
      "duration": 0.0085,
      "velocity": 89,
      "chip": "ym2612"
    },
    {
      "channel": 3,
      "note": 78,
      "start": 42.9692,
      "duration": 0.0087,
      "velocity": 89,
      "chip": "ym2612"
    },
    {
      "channel": 4,
      "note": 73,
      "start": 42.9695,
      "duration": 0.0085,
      "velocity": 89,
      "chip": "ym2612"
    },
    {
      "channel": 3,
      "note": 78,
      "start": 42.9961,
      "duration": 0.0087,
      "velocity": 89,
      "chip": "ym2612"
    },
    {
      "channel": 4,
      "note": 73,
      "start": 42.9963,
      "duration": 0.0085,
      "velocity": 89,
      "chip": "ym2612"
    },
    {
      "channel": 0,
      "note": 32,
      "start": 43.0243,
      "duration": 0.1052,
      "velocity": 107,
      "chip": "ym2612"
    },
    {
      "channel": 1,
      "note": 58,
      "start": 43.0246,
      "duration": 0.3012,
      "velocity": 50,
      "chip": "ym2612"
    },
    {
      "channel": 2,
      "note": 46,
      "start": 43.0249,
      "duration": 0.0782,
      "velocity": 127,
      "chip": "ym2612"
    },
    {
      "channel": 3,
      "note": 82,
      "start": 43.0252,
      "duration": 0.0063,
      "velocity": 89,
      "chip": "ym2612"
    },
    {
      "channel": 4,
      "note": 77,
      "start": 43.0256,
      "duration": 0.0061,
      "velocity": 89,
      "chip": "ym2612"
    },
    {
      "channel": 5,
      "note": 83,
      "start": 43.0273,
      "duration": 0.1049,
      "velocity": 53,
      "chip": "ym2612"
    },
    {
      "channel": 3,
      "note": 82,
      "start": 43.0496,
      "duration": 0.0087,
      "velocity": 89,
      "chip": "ym2612"
    },
    {
      "channel": 4,
      "note": 77,
      "start": 43.0499,
      "duration": 0.0085,
      "velocity": 89,
      "chip": "ym2612"
    },
    {
      "channel": 3,
      "note": 82,
      "start": 43.0764,
      "duration": 0.0087,
      "velocity": 89,
      "chip": "ym2612"
    },
    {
      "channel": 4,
      "note": 77,
      "start": 43.0767,
      "duration": 0.0085,
      "velocity": 89,
      "chip": "ym2612"
    },
    {
      "channel": 3,
      "note": 82,
      "start": 43.1035,
      "duration": 0.0084,
      "velocity": 89,
      "chip": "ym2612"
    },
    {
      "channel": 4,
      "note": 77,
      "start": 43.1038,
      "duration": 0.0083,
      "velocity": 89,
      "chip": "ym2612"
    },
    {
      "channel": 0,
      "note": 75,
      "start": 43.1311,
      "duration": 0.1054,
      "velocity": 127,
      "chip": "ym2612"
    },
    {
      "channel": 2,
      "note": 46,
      "start": 43.1315,
      "duration": 0.0783,
      "velocity": 127,
      "chip": "ym2612"
    },
    {
      "channel": 3,
      "note": 82,
      "start": 43.1318,
      "duration": 0.0067,
      "velocity": 89,
      "chip": "ym2612"
    },
    {
      "channel": 4,
      "note": 77,
      "start": 43.1321,
      "duration": 0.0066,
      "velocity": 89,
      "chip": "ym2612"
    },
    {
      "channel": 5,
      "note": 75,
      "start": 43.1343,
      "duration": 0.1029,
      "velocity": 127,
      "chip": "ym2612"
    },
    {
      "channel": 3,
      "note": 82,
      "start": 43.1567,
      "duration": 0.0087,
      "velocity": 89,
      "chip": "ym2612"
    },
    {
      "channel": 4,
      "note": 77,
      "start": 43.157,
      "duration": 0.0085,
      "velocity": 89,
      "chip": "ym2612"
    },
    {
      "channel": 3,
      "note": 82,
      "start": 43.1836,
      "duration": 0.0085,
      "velocity": 89,
      "chip": "ym2612"
    },
    {
      "channel": 4,
      "note": 77,
      "start": 43.1839,
      "duration": 0.0084,
      "velocity": 89,
      "chip": "ym2612"
    },
    {
      "channel": 3,
      "note": 82,
      "start": 43.2103,
      "duration": 0.0087,
      "velocity": 89,
      "chip": "ym2612"
    },
    {
      "channel": 4,
      "note": 77,
      "start": 43.2106,
      "duration": 0.0085,
      "velocity": 89,
      "chip": "ym2612"
    },
    {
      "channel": 0,
      "note": 75,
      "start": 43.2368,
      "duration": 0.1158,
      "velocity": 127,
      "chip": "ym2612"
    },
    {
      "channel": 5,
      "note": 66,
      "start": 43.2389,
      "duration": 0.2236,
      "velocity": 127,
      "chip": "ym2612"
    },
    {
      "channel": 0,
      "note": 32,
      "start": 43.3546,
      "duration": 0.1052,
      "velocity": 107,
      "chip": "ym2612"
    },
    {
      "channel": 1,
      "note": 54,
      "start": 43.355,
      "duration": 0.2924,
      "velocity": 50,
      "chip": "ym2612"
    },
    {
      "channel": 2,
      "note": 42,
      "start": 43.3552,
      "duration": 0.0781,
      "velocity": 127,
      "chip": "ym2612"
    },
    {
      "channel": 3,
      "note": 78,
      "start": 43.3555,
      "duration": 0.0064,
      "velocity": 89,
      "chip": "ym2612"
    },
    {
      "channel": 4,
      "note": 73,
      "start": 43.3557,
      "duration": 0.0063,
      "velocity": 89,
      "chip": "ym2612"
    },
    {
      "channel": 3,
      "note": 78,
      "start": 43.38,
      "duration": 0.0087,
      "velocity": 89,
      "chip": "ym2612"
    },
    {
      "channel": 4,
      "note": 73,
      "start": 43.3803,
      "duration": 0.0085,
      "velocity": 89,
      "chip": "ym2612"
    },
    {
      "channel": 3,
      "note": 78,
      "start": 43.4068,
      "duration": 0.0087,
      "velocity": 89,
      "chip": "ym2612"
    },
    {
      "channel": 4,
      "note": 73,
      "start": 43.4071,
      "duration": 0.0085,
      "velocity": 89,
      "chip": "ym2612"
    },
    {
      "channel": 3,
      "note": 78,
      "start": 43.4337,
      "duration": 0.0085,
      "velocity": 89,
      "chip": "ym2612"
    },
    {
      "channel": 4,
      "note": 73,
      "start": 43.434,
      "duration": 0.0084,
      "velocity": 89,
      "chip": "ym2612"
    },
    {
      "channel": 0,
      "note": 67,
      "start": 43.4615,
      "duration": 0.1054,
      "velocity": 112,
      "chip": "ym2612"
    },
    {
      "channel": 2,
      "note": 42,
      "start": 43.4619,
      "duration": 0.0783,
      "velocity": 127,
      "chip": "ym2612"
    },
    {
      "channel": 3,
      "note": 78,
      "start": 43.4622,
      "duration": 0.0067,
      "velocity": 89,
      "chip": "ym2612"
    },
    {
      "channel": 4,
      "note": 73,
      "start": 43.4625,
      "duration": 0.0066,
      "velocity": 89,
      "chip": "ym2612"
    },
    {
      "channel": 5,
      "note": 83,
      "start": 43.4645,
      "duration": 0.1045,
      "velocity": 53,
      "chip": "ym2612"
    },
    {
      "channel": 3,
      "note": 78,
      "start": 43.487,
      "duration": 0.0087,
      "velocity": 89,
      "chip": "ym2612"
    },
    {
      "channel": 4,
      "note": 73,
      "start": 43.4873,
      "duration": 0.0085,
      "velocity": 89,
      "chip": "ym2612"
    },
    {
      "channel": 3,
      "note": 78,
      "start": 43.5138,
      "duration": 0.0087,
      "velocity": 89,
      "chip": "ym2612"
    },
    {
      "channel": 4,
      "note": 73,
      "start": 43.5141,
      "duration": 0.0085,
      "velocity": 89,
      "chip": "ym2612"
    },
    {
      "channel": 3,
      "note": 78,
      "start": 43.5406,
      "duration": 0.0087,
      "velocity": 89,
      "chip": "ym2612"
    },
    {
      "channel": 4,
      "note": 73,
      "start": 43.5409,
      "duration": 0.0085,
      "velocity": 89,
      "chip": "ym2612"
    },
    {
      "channel": 0,
      "note": 32,
      "start": 43.5686,
      "duration": 0.1054,
      "velocity": 107,
      "chip": "ym2612"
    },
    {
      "channel": 5,
      "note": 75,
      "start": 43.5707,
      "duration": 0.1062,
      "velocity": 127,
      "chip": "ym2612"
    },
    {
      "channel": 0,
      "note": 32,
      "start": 43.6758,
      "duration": 0.1054,
      "velocity": 107,
      "chip": "ym2612"
    },
    {
      "channel": 1,
      "note": 53,
      "start": 43.6761,
      "duration": 0.1854,
      "velocity": 50,
      "chip": "ym2612"
    },
    {
      "channel": 2,
      "note": 41,
      "start": 43.6764,
      "duration": 0.0782,
      "velocity": 127,
      "chip": "ym2612"
    },
    {
      "channel": 3,
      "note": 77,
      "start": 43.6766,
      "duration": 0.0068,
      "velocity": 89,
      "chip": "ym2612"
    },
    {
      "channel": 4,
      "note": 72,
      "start": 43.6769,
      "duration": 0.0067,
      "velocity": 89,
      "chip": "ym2612"
    },
    {
      "channel": 5,
      "note": 66,
      "start": 43.6787,
      "duration": 0.2127,
      "velocity": 127,
      "chip": "ym2612"
    },
    {
      "channel": 3,
      "note": 77,
      "start": 43.7014,
      "duration": 0.0087,
      "velocity": 89,
      "chip": "ym2612"
    },
    {
      "channel": 4,
      "note": 72,
      "start": 43.7017,
      "duration": 0.0085,
      "velocity": 89,
      "chip": "ym2612"
    },
    {
      "channel": 3,
      "note": 77,
      "start": 43.7282,
      "duration": 0.0087,
      "velocity": 89,
      "chip": "ym2612"
    },
    {
      "channel": 4,
      "note": 72,
      "start": 43.7285,
      "duration": 0.0085,
      "velocity": 89,
      "chip": "ym2612"
    },
    {
      "channel": 3,
      "note": 77,
      "start": 43.755,
      "duration": 0.0087,
      "velocity": 89,
      "chip": "ym2612"
    },
    {
      "channel": 4,
      "note": 72,
      "start": 43.7553,
      "duration": 0.0085,
      "velocity": 89,
      "chip": "ym2612"
    },
    {
      "channel": 0,
      "note": 67,
      "start": 43.7831,
      "duration": 0.1052,
      "velocity": 112,
      "chip": "ym2612"
    },
    {
      "channel": 2,
      "note": 41,
      "start": 43.7836,
      "duration": 0.0781,
      "velocity": 127,
      "chip": "ym2612"
    },
    {
      "channel": 3,
      "note": 77,
      "start": 43.7839,
      "duration": 0.0064,
      "velocity": 89,
      "chip": "ym2612"
    },
    {
      "channel": 4,
      "note": 72,
      "start": 43.7842,
      "duration": 0.0063,
      "velocity": 89,
      "chip": "ym2612"
    },
    {
      "channel": 3,
      "note": 77,
      "start": 43.8084,
      "duration": 0.0087,
      "velocity": 89,
      "chip": "ym2612"
    },
    {
      "channel": 4,
      "note": 72,
      "start": 43.8087,
      "duration": 0.0085,
      "velocity": 89,
      "chip": "ym2612"
    },
    {
      "channel": 3,
      "note": 77,
      "start": 43.8352,
      "duration": 0.0087,
      "velocity": 89,
      "chip": "ym2612"
    },
    {
      "channel": 4,
      "note": 72,
      "start": 43.8355,
      "duration": 0.0085,
      "velocity": 89,
      "chip": "ym2612"
    },
    {
      "channel": 3,
      "note": 77,
      "start": 43.8621,
      "duration": 0.0087,
      "velocity": 89,
      "chip": "ym2612"
    },
    {
      "channel": 4,
      "note": 72,
      "start": 43.8624,
      "duration": 0.0085,
      "velocity": 89,
      "chip": "ym2612"
    },
    {
      "channel": 0,
      "note": 32,
      "start": 43.89,
      "duration": 0.1054,
      "velocity": 127,
      "chip": "ym2612"
    },
    {
      "channel": 1,
      "note": 58,
      "start": 43.8904,
      "duration": 0.2927,
      "velocity": 50,
      "chip": "ym2612"
    },
    {
      "channel": 2,
      "note": 46,
      "start": 43.8907,
      "duration": 0.0782,
      "velocity": 127,
      "chip": "ym2612"
    },
    {
      "channel": 3,
      "note": 82,
      "start": 43.891,
      "duration": 0.0066,
      "velocity": 89,
      "chip": "ym2612"
    },
    {
      "channel": 4,
      "note": 77,
      "start": 43.8913,
      "duration": 0.0064,
      "velocity": 89,
      "chip": "ym2612"
    },
    {
      "channel": 5,
      "note": 83,
      "start": 43.8933,
      "duration": 0.1049,
      "velocity": 53,
      "chip": "ym2612"
    },
    {
      "channel": 3,
      "note": 82,
      "start": 43.9156,
      "duration": 0.0087,
      "velocity": 89,
      "chip": "ym2612"
    },
    {
      "channel": 4,
      "note": 77,
      "start": 43.9159,
      "duration": 0.0085,
      "velocity": 89,
      "chip": "ym2612"
    },
    {
      "channel": 3,
      "note": 82,
      "start": 43.9424,
      "duration": 0.0087,
      "velocity": 89,
      "chip": "ym2612"
    },
    {
      "channel": 4,
      "note": 77,
      "start": 43.9427,
      "duration": 0.0085,
      "velocity": 89,
      "chip": "ym2612"
    },
    {
      "channel": 3,
      "note": 82,
      "start": 43.9693,
      "duration": 0.0087,
      "velocity": 89,
      "chip": "ym2612"
    },
    {
      "channel": 4,
      "note": 77,
      "start": 43.9695,
      "duration": 0.0085,
      "velocity": 89,
      "chip": "ym2612"
    },
    {
      "channel": 0,
      "note": 75,
      "start": 43.9972,
      "duration": 0.1054,
      "velocity": 127,
      "chip": "ym2612"
    },
    {
      "channel": 2,
      "note": 46,
      "start": 43.9976,
      "duration": 0.0784,
      "velocity": 127,
      "chip": "ym2612"
    },
    {
      "channel": 3,
      "note": 82,
      "start": 43.9978,
      "duration": 0.0067,
      "velocity": 89,
      "chip": "ym2612"
    },
    {
      "channel": 4,
      "note": 77,
      "start": 43.9981,
      "duration": 0.0066,
      "velocity": 89,
      "chip": "ym2612"
    },
    {
      "channel": 5,
      "note": 75,
      "start": 44.0,
      "duration": 0.1049,
      "velocity": 127,
      "chip": "ym2612"
    },
    {
      "channel": 3,
      "note": 82,
      "start": 44.0227,
      "duration": 0.0087,
      "velocity": 89,
      "chip": "ym2612"
    },
    {
      "channel": 4,
      "note": 77,
      "start": 44.0232,
      "duration": 0.0083,
      "velocity": 89,
      "chip": "ym2612"
    },
    {
      "channel": 3,
      "note": 82,
      "start": 44.0495,
      "duration": 0.0087,
      "velocity": 89,
      "chip": "ym2612"
    },
    {
      "channel": 4,
      "note": 77,
      "start": 44.0498,
      "duration": 0.0085,
      "velocity": 89,
      "chip": "ym2612"
    },
    {
      "channel": 3,
      "note": 82,
      "start": 44.0763,
      "duration": 0.0087,
      "velocity": 89,
      "chip": "ym2612"
    },
    {
      "channel": 4,
      "note": 77,
      "start": 44.0766,
      "duration": 0.0085,
      "velocity": 89,
      "chip": "ym2612"
    },
    {
      "channel": 0,
      "note": 75,
      "start": 44.1045,
      "duration": 0.1052,
      "velocity": 127,
      "chip": "ym2612"
    },
    {
      "channel": 5,
      "note": 66,
      "start": 44.1066,
      "duration": 0.213,
      "velocity": 127,
      "chip": "ym2612"
    },
    {
      "channel": 0,
      "note": 66,
      "start": 44.2114,
      "duration": 0.1054,
      "velocity": 127,
      "chip": "ym2612"
    },
    {
      "channel": 1,
      "note": 58,
      "start": 44.2118,
      "duration": 0.2926,
      "velocity": 50,
      "chip": "ym2612"
    },
    {
      "channel": 2,
      "note": 42,
      "start": 44.212,
      "duration": 0.0781,
      "velocity": 127,
      "chip": "ym2612"
    },
    {
      "channel": 3,
      "note": 78,
      "start": 44.2123,
      "duration": 0.0066,
      "velocity": 89,
      "chip": "ym2612"
    },
    {
      "channel": 4,
      "note": 73,
      "start": 44.2125,
      "duration": 0.0065,
      "velocity": 89,
      "chip": "ym2612"
    },
    {
      "channel": 3,
      "note": 78,
      "start": 44.237,
      "duration": 0.0087,
      "velocity": 89,
      "chip": "ym2612"
    },
    {
      "channel": 4,
      "note": 73,
      "start": 44.2373,
      "duration": 0.0085,
      "velocity": 89,
      "chip": "ym2612"
    },
    {
      "channel": 3,
      "note": 78,
      "start": 44.2637,
      "duration": 0.0087,
      "velocity": 89,
      "chip": "ym2612"
    },
    {
      "channel": 4,
      "note": 73,
      "start": 44.264,
      "duration": 0.0085,
      "velocity": 89,
      "chip": "ym2612"
    },
    {
      "channel": 3,
      "note": 78,
      "start": 44.2906,
      "duration": 0.0087,
      "velocity": 89,
      "chip": "ym2612"
    },
    {
      "channel": 4,
      "note": 73,
      "start": 44.2909,
      "duration": 0.0085,
      "velocity": 89,
      "chip": "ym2612"
    },
    {
      "channel": 0,
      "note": 67,
      "start": 44.3186,
      "duration": 0.1054,
      "velocity": 112,
      "chip": "ym2612"
    },
    {
      "channel": 2,
      "note": 42,
      "start": 44.319,
      "duration": 0.0784,
      "velocity": 127,
      "chip": "ym2612"
    },
    {
      "channel": 3,
      "note": 78,
      "start": 44.3193,
      "duration": 0.0067,
      "velocity": 89,
      "chip": "ym2612"
    },
    {
      "channel": 4,
      "note": 73,
      "start": 44.3195,
      "duration": 0.0066,
      "velocity": 89,
      "chip": "ym2612"
    },
    {
      "channel": 5,
      "note": 83,
      "start": 44.3213,
      "duration": 0.1047,
      "velocity": 53,
      "chip": "ym2612"
    },
    {
      "channel": 3,
      "note": 78,
      "start": 44.3441,
      "duration": 0.0089,
      "velocity": 89,
      "chip": "ym2612"
    },
    {
      "channel": 4,
      "note": 73,
      "start": 44.3444,
      "duration": 0.0088,
      "velocity": 89,
      "chip": "ym2612"
    },
    {
      "channel": 3,
      "note": 78,
      "start": 44.3709,
      "duration": 0.0087,
      "velocity": 89,
      "chip": "ym2612"
    },
    {
      "channel": 4,
      "note": 73,
      "start": 44.3712,
      "duration": 0.0085,
      "velocity": 89,
      "chip": "ym2612"
    },
    {
      "channel": 3,
      "note": 78,
      "start": 44.3977,
      "duration": 0.0087,
      "velocity": 89,
      "chip": "ym2612"
    },
    {
      "channel": 4,
      "note": 73,
      "start": 44.398,
      "duration": 0.0085,
      "velocity": 89,
      "chip": "ym2612"
    },
    {
      "channel": 0,
      "note": 75,
      "start": 44.4257,
      "duration": 0.1054,
      "velocity": 127,
      "chip": "ym2612"
    },
    {
      "channel": 5,
      "note": 75,
      "start": 44.4278,
      "duration": 0.1047,
      "velocity": 127,
      "chip": "ym2612"
    },
    {
      "channel": 0,
      "note": 75,
      "start": 44.5314,
      "duration": 0.1069,
      "velocity": 127,
      "chip": "ym2612"
    },
    {
      "channel": 1,
      "note": 61,
      "start": 44.5317,
      "duration": 0.1869,
      "velocity": 50,
      "chip": "ym2612"
    },
    {
      "channel": 2,
      "note": 41,
      "start": 44.532,
      "duration": 0.0796,
      "velocity": 127,
      "chip": "ym2612"
    },
    {
      "channel": 3,
      "note": 77,
      "start": 44.5322,
      "duration": 0.008,
      "velocity": 89,
      "chip": "ym2612"
    },
    {
      "channel": 4,
      "note": 72,
      "start": 44.5325,
      "duration": 0.0079,
      "velocity": 89,
      "chip": "ym2612"
    },
    {
      "channel": 5,
      "note": 66,
      "start": 44.5346,
      "duration": 0.2181,
      "velocity": 127,
      "chip": "ym2612"
    },
    {
      "channel": 3,
      "note": 77,
      "start": 44.5584,
      "duration": 0.0087,
      "velocity": 89,
      "chip": "ym2612"
    },
    {
      "channel": 4,
      "note": 72,
      "start": 44.5587,
      "duration": 0.0085,
      "velocity": 89,
      "chip": "ym2612"
    },
    {
      "channel": 3,
      "note": 77,
      "start": 44.5851,
      "duration": 0.0087,
      "velocity": 89,
      "chip": "ym2612"
    },
    {
      "channel": 4,
      "note": 72,
      "start": 44.5854,
      "duration": 0.0085,
      "velocity": 89,
      "chip": "ym2612"
    },
    {
      "channel": 3,
      "note": 77,
      "start": 44.612,
      "duration": 0.0087,
      "velocity": 89,
      "chip": "ym2612"
    },
    {
      "channel": 4,
      "note": 72,
      "start": 44.6123,
      "duration": 0.0085,
      "velocity": 89,
      "chip": "ym2612"
    },
    {
      "channel": 0,
      "note": 66,
      "start": 44.64,
      "duration": 0.1054,
      "velocity": 127,
      "chip": "ym2612"
    },
    {
      "channel": 2,
      "note": 41,
      "start": 44.6404,
      "duration": 0.0784,
      "velocity": 127,
      "chip": "ym2612"
    },
    {
      "channel": 3,
      "note": 77,
      "start": 44.6407,
      "duration": 0.0068,
      "velocity": 89,
      "chip": "ym2612"
    },
    {
      "channel": 4,
      "note": 72,
      "start": 44.641,
      "duration": 0.0066,
      "velocity": 89,
      "chip": "ym2612"
    },
    {
      "channel": 3,
      "note": 77,
      "start": 44.6655,
      "duration": 0.0087,
      "velocity": 89,
      "chip": "ym2612"
    },
    {
      "channel": 4,
      "note": 72,
      "start": 44.6658,
      "duration": 0.0085,
      "velocity": 89,
      "chip": "ym2612"
    },
    {
      "channel": 3,
      "note": 77,
      "start": 44.6923,
      "duration": 0.0087,
      "velocity": 89,
      "chip": "ym2612"
    },
    {
      "channel": 4,
      "note": 72,
      "start": 44.6926,
      "duration": 0.0085,
      "velocity": 89,
      "chip": "ym2612"
    },
    {
      "channel": 3,
      "note": 77,
      "start": 44.7192,
      "duration": 0.0087,
      "velocity": 89,
      "chip": "ym2612"
    },
    {
      "channel": 4,
      "note": 72,
      "start": 44.7195,
      "duration": 0.0085,
      "velocity": 89,
      "chip": "ym2612"
    },
    {
      "channel": 0,
      "note": 32,
      "start": 44.7471,
      "duration": 0.1054,
      "velocity": 107,
      "chip": "ym2612"
    },
    {
      "channel": 1,
      "note": 60,
      "start": 44.7488,
      "duration": 0.2912,
      "velocity": 50,
      "chip": "ym2612"
    },
    {
      "channel": 2,
      "note": 99,
      "start": 44.752,
      "duration": 0.0739,
      "velocity": 105,
      "chip": "ym2612"
    },
    {
      "channel": 3,
      "note": 84,
      "start": 44.7523,
      "duration": 0.0028,
      "velocity": 89,
      "chip": "ym2612"
    },
    {
      "channel": 4,
      "note": 79,
      "start": 44.7527,
      "duration": 0.0027,
      "velocity": 89,
      "chip": "ym2612"
    },
    {
      "channel": 5,
      "note": 83,
      "start": 44.7547,
      "duration": 0.1009,
      "velocity": 53,
      "chip": "ym2612"
    },
    {
      "channel": 3,
      "note": 84,
      "start": 44.773,
      "duration": 0.0084,
      "velocity": 89,
      "chip": "ym2612"
    },
    {
      "channel": 4,
      "note": 79,
      "start": 44.7733,
      "duration": 0.0083,
      "velocity": 89,
      "chip": "ym2612"
    },
    {
      "channel": 3,
      "note": 84,
      "start": 44.7995,
      "duration": 0.0087,
      "velocity": 89,
      "chip": "ym2612"
    },
    {
      "channel": 4,
      "note": 79,
      "start": 44.7998,
      "duration": 0.0085,
      "velocity": 89,
      "chip": "ym2612"
    },
    {
      "channel": 3,
      "note": 84,
      "start": 44.8263,
      "duration": 0.0087,
      "velocity": 89,
      "chip": "ym2612"
    },
    {
      "channel": 4,
      "note": 79,
      "start": 44.8266,
      "duration": 0.0085,
      "velocity": 89,
      "chip": "ym2612"
    },
    {
      "channel": 0,
      "note": 75,
      "start": 44.8545,
      "duration": 0.1052,
      "velocity": 127,
      "chip": "ym2612"
    },
    {
      "channel": 2,
      "note": 99,
      "start": 44.8549,
      "duration": 0.0783,
      "velocity": 105,
      "chip": "ym2612"
    },
    {
      "channel": 3,
      "note": 84,
      "start": 44.8552,
      "duration": 0.0065,
      "velocity": 89,
      "chip": "ym2612"
    },
    {
      "channel": 4,
      "note": 79,
      "start": 44.8555,
      "duration": 0.0063,
      "velocity": 89,
      "chip": "ym2612"
    },
    {
      "channel": 5,
      "note": 75,
      "start": 44.8573,
      "duration": 0.1032,
      "velocity": 127,
      "chip": "ym2612"
    },
    {
      "channel": 3,
      "note": 84,
      "start": 44.8798,
      "duration": 0.0087,
      "velocity": 89,
      "chip": "ym2612"
    },
    {
      "channel": 4,
      "note": 79,
      "start": 44.8801,
      "duration": 0.0085,
      "velocity": 89,
      "chip": "ym2612"
    },
    {
      "channel": 3,
      "note": 84,
      "start": 44.9066,
      "duration": 0.0087,
      "velocity": 89,
      "chip": "ym2612"
    },
    {
      "channel": 4,
      "note": 79,
      "start": 44.9068,
      "duration": 0.0085,
      "velocity": 89,
      "chip": "ym2612"
    },
    {
      "channel": 3,
      "note": 84,
      "start": 44.9336,
      "duration": 0.0085,
      "velocity": 89,
      "chip": "ym2612"
    },
    {
      "channel": 4,
      "note": 79,
      "start": 44.9339,
      "duration": 0.0083,
      "velocity": 89,
      "chip": "ym2612"
    },
    {
      "channel": 0,
      "note": 75,
      "start": 44.9599,
      "duration": 0.1069,
      "velocity": 127,
      "chip": "ym2612"
    },
    {
      "channel": 2,
      "note": 82,
      "start": 44.9603,
      "duration": 0.1871,
      "velocity": 105,
      "chip": "ym2612"
    },
    {
      "channel": 5,
      "note": 66,
      "start": 44.9622,
      "duration": 0.2145,
      "velocity": 127,
      "chip": "ym2612"
    },
    {
      "channel": 0,
      "note": 32,
      "start": 45.0685,
      "duration": 0.1054,
      "velocity": 107,
      "chip": "ym2612"
    },
    {
      "channel": 1,
      "note": 58,
      "start": 45.0689,
      "duration": 0.2927,
      "velocity": 50,
      "chip": "ym2612"
    },
    {
      "channel": 3,
      "note": 82,
      "start": 45.0693,
      "duration": 0.0068,
      "velocity": 89,
      "chip": "ym2612"
    },
    {
      "channel": 4,
      "note": 77,
      "start": 45.0695,
      "duration": 0.0067,
      "velocity": 89,
      "chip": "ym2612"
    },
    {
      "channel": 3,
      "note": 82,
      "start": 45.0941,
      "duration": 0.0089,
      "velocity": 89,
      "chip": "ym2612"
    },
    {
      "channel": 4,
      "note": 77,
      "start": 45.0944,
      "duration": 0.0088,
      "velocity": 89,
      "chip": "ym2612"
    },
    {
      "channel": 3,
      "note": 82,
      "start": 45.1209,
      "duration": 0.0087,
      "velocity": 89,
      "chip": "ym2612"
    },
    {
      "channel": 4,
      "note": 77,
      "start": 45.1212,
      "duration": 0.0085,
      "velocity": 89,
      "chip": "ym2612"
    },
    {
      "channel": 3,
      "note": 82,
      "start": 45.1478,
      "duration": 0.0087,
      "velocity": 89,
      "chip": "ym2612"
    },
    {
      "channel": 4,
      "note": 77,
      "start": 45.148,
      "duration": 0.0085,
      "velocity": 89,
      "chip": "ym2612"
    },
    {
      "channel": 0,
      "note": 67,
      "start": 45.1756,
      "duration": 0.1054,
      "velocity": 112,
      "chip": "ym2612"
    },
    {
      "channel": 2,
      "note": 96,
      "start": 45.176,
      "duration": 0.0784,
      "velocity": 105,
      "chip": "ym2612"
    },
    {
      "channel": 3,
      "note": 82,
      "start": 45.1763,
      "duration": 0.007,
      "velocity": 89,
      "chip": "ym2612"
    },
    {
      "channel": 4,
      "note": 77,
      "start": 45.1766,
      "duration": 0.0068,
      "velocity": 89,
      "chip": "ym2612"
    },
    {
      "channel": 5,
      "note": 83,
      "start": 45.1784,
      "duration": 0.1052,
      "velocity": 53,
      "chip": "ym2612"
    },
    {
      "channel": 3,
      "note": 82,
      "start": 45.2012,
      "duration": 0.0087,
      "velocity": 89,
      "chip": "ym2612"
    },
    {
      "channel": 4,
      "note": 77,
      "start": 45.2015,
      "duration": 0.0085,
      "velocity": 89,
      "chip": "ym2612"
    },
    {
      "channel": 3,
      "note": 82,
      "start": 45.228,
      "duration": 0.0087,
      "velocity": 89,
      "chip": "ym2612"
    },
    {
      "channel": 4,
      "note": 77,
      "start": 45.2283,
      "duration": 0.0085,
      "velocity": 89,
      "chip": "ym2612"
    },
    {
      "channel": 3,
      "note": 82,
      "start": 45.2548,
      "duration": 0.0087,
      "velocity": 89,
      "chip": "ym2612"
    },
    {
      "channel": 4,
      "note": 77,
      "start": 45.2551,
      "duration": 0.0085,
      "velocity": 89,
      "chip": "ym2612"
    },
    {
      "channel": 0,
      "note": 32,
      "start": 45.283,
      "duration": 0.1052,
      "velocity": 107,
      "chip": "ym2612"
    },
    {
      "channel": 2,
      "note": 96,
      "start": 45.2835,
      "duration": 0.0782,
      "velocity": 105,
      "chip": "ym2612"
    },
    {
      "channel": 5,
      "note": 75,
      "start": 45.2854,
      "duration": 0.1057,
      "velocity": 127,
      "chip": "ym2612"
    },
    {
      "channel": 0,
      "note": 32,
      "start": 45.3899,
      "duration": 0.1054,
      "velocity": 107,
      "chip": "ym2612"
    },
    {
      "channel": 1,
      "note": 54,
      "start": 45.3903,
      "duration": 0.1944,
      "velocity": 50,
      "chip": "ym2612"
    },
    {
      "channel": 2,
      "note": 80,
      "start": 45.3906,
      "duration": 0.1942,
      "velocity": 105,
      "chip": "ym2612"
    },
    {
      "channel": 3,
      "note": 78,
      "start": 45.3908,
      "duration": 0.0066,
      "velocity": 89,
      "chip": "ym2612"
    },
    {
      "channel": 4,
      "note": 73,
      "start": 45.3911,
      "duration": 0.0065,
      "velocity": 89,
      "chip": "ym2612"
    },
    {
      "channel": 5,
      "note": 66,
      "start": 45.3931,
      "duration": 0.2228,
      "velocity": 127,
      "chip": "ym2612"
    },
    {
      "channel": 3,
      "note": 78,
      "start": 45.4156,
      "duration": 0.0087,
      "velocity": 89,
      "chip": "ym2612"
    },
    {
      "channel": 4,
      "note": 73,
      "start": 45.4159,
      "duration": 0.0085,
      "velocity": 89,
      "chip": "ym2612"
    },
    {
      "channel": 3,
      "note": 78,
      "start": 45.4423,
      "duration": 0.0087,
      "velocity": 89,
      "chip": "ym2612"
    },
    {
      "channel": 4,
      "note": 73,
      "start": 45.4426,
      "duration": 0.0085,
      "velocity": 89,
      "chip": "ym2612"
    },
    {
      "channel": 3,
      "note": 78,
      "start": 45.4691,
      "duration": 0.0087,
      "velocity": 89,
      "chip": "ym2612"
    },
    {
      "channel": 4,
      "note": 73,
      "start": 45.4694,
      "duration": 0.0085,
      "velocity": 89,
      "chip": "ym2612"
    },
    {
      "channel": 0,
      "note": 67,
      "start": 45.4971,
      "duration": 0.1144,
      "velocity": 112,
      "chip": "ym2612"
    },
    {
      "channel": 3,
      "note": 78,
      "start": 45.4976,
      "duration": 0.0069,
      "velocity": 89,
      "chip": "ym2612"
    },
    {
      "channel": 4,
      "note": 73,
      "start": 45.4978,
      "duration": 0.0068,
      "velocity": 89,
      "chip": "ym2612"
    },
    {
      "channel": 3,
      "note": 78,
      "start": 45.5315,
      "duration": 0.0087,
      "velocity": 89,
      "chip": "ym2612"
    },
    {
      "channel": 4,
      "note": 73,
      "start": 45.5318,
      "duration": 0.0085,
      "velocity": 89,
      "chip": "ym2612"
    },
    {
      "channel": 3,
      "note": 78,
      "start": 45.5583,
      "duration": 0.0087,
      "velocity": 89,
      "chip": "ym2612"
    },
    {
      "channel": 4,
      "note": 73,
      "start": 45.5586,
      "duration": 0.0085,
      "velocity": 89,
      "chip": "ym2612"
    },
    {
      "channel": 3,
      "note": 78,
      "start": 45.5852,
      "duration": 0.0087,
      "velocity": 89,
      "chip": "ym2612"
    },
    {
      "channel": 4,
      "note": 73,
      "start": 45.5855,
      "duration": 0.0085,
      "velocity": 89,
      "chip": "ym2612"
    },
    {
      "channel": 0,
      "note": 32,
      "start": 45.6134,
      "duration": 0.1052,
      "velocity": 127,
      "chip": "ym2612"
    },
    {
      "channel": 1,
      "note": 60,
      "start": 45.6138,
      "duration": 0.2923,
      "velocity": 50,
      "chip": "ym2612"
    },
    {
      "channel": 3,
      "note": 84,
      "start": 45.6156,
      "duration": 0.0051,
      "velocity": 89,
      "chip": "ym2612"
    },
    {
      "channel": 4,
      "note": 79,
      "start": 45.6159,
      "duration": 0.0049,
      "velocity": 89,
      "chip": "ym2612"
    },
    {
      "channel": 5,
      "note": 83,
      "start": 45.6177,
      "duration": 0.1034,
      "velocity": 53,
      "chip": "ym2612"
    },
    {
      "channel": 3,
      "note": 84,
      "start": 45.6388,
      "duration": 0.0087,
      "velocity": 89,
      "chip": "ym2612"
    },
    {
      "channel": 4,
      "note": 79,
      "start": 45.639,
      "duration": 0.0085,
      "velocity": 89,
      "chip": "ym2612"
    },
    {
      "channel": 3,
      "note": 84,
      "start": 45.6655,
      "duration": 0.0087,
      "velocity": 89,
      "chip": "ym2612"
    },
    {
      "channel": 4,
      "note": 79,
      "start": 45.6658,
      "duration": 0.0085,
      "velocity": 89,
      "chip": "ym2612"
    },
    {
      "channel": 3,
      "note": 84,
      "start": 45.6923,
      "duration": 0.0087,
      "velocity": 89,
      "chip": "ym2612"
    },
    {
      "channel": 4,
      "note": 79,
      "start": 45.6926,
      "duration": 0.0085,
      "velocity": 89,
      "chip": "ym2612"
    },
    {
      "channel": 0,
      "note": 75,
      "start": 45.7202,
      "duration": 0.1054,
      "velocity": 127,
      "chip": "ym2612"
    },
    {
      "channel": 3,
      "note": 84,
      "start": 45.7208,
      "duration": 0.0069,
      "velocity": 89,
      "chip": "ym2612"
    },
    {
      "channel": 4,
      "note": 79,
      "start": 45.7211,
      "duration": 0.0068,
      "velocity": 89,
      "chip": "ym2612"
    },
    {
      "channel": 5,
      "note": 75,
      "start": 45.7232,
      "duration": 0.1046,
      "velocity": 127,
      "chip": "ym2612"
    },
    {
      "channel": 3,
      "note": 84,
      "start": 45.7458,
      "duration": 0.0087,
      "velocity": 89,
      "chip": "ym2612"
    },
    {
      "channel": 4,
      "note": 79,
      "start": 45.7461,
      "duration": 0.0085,
      "velocity": 89,
      "chip": "ym2612"
    },
    {
      "channel": 3,
      "note": 84,
      "start": 45.7726,
      "duration": 0.0087,
      "velocity": 89,
      "chip": "ym2612"
    },
    {
      "channel": 4,
      "note": 79,
      "start": 45.7731,
      "duration": 0.0083,
      "velocity": 89,
      "chip": "ym2612"
    },
    {
      "channel": 3,
      "note": 84,
      "start": 45.7994,
      "duration": 0.0087,
      "velocity": 89,
      "chip": "ym2612"
    },
    {
      "channel": 4,
      "note": 79,
      "start": 45.7997,
      "duration": 0.0085,
      "velocity": 89,
      "chip": "ym2612"
    },
    {
      "channel": 0,
      "note": 75,
      "start": 45.8274,
      "duration": 0.1057,
      "velocity": 127,
      "chip": "ym2612"
    },
    {
      "channel": 5,
      "note": 66,
      "start": 45.8295,
      "duration": 0.213,
      "velocity": 127,
      "chip": "ym2612"
    },
    {
      "channel": 0,
      "note": 66,
      "start": 45.9348,
      "duration": 0.1051,
      "velocity": 127,
      "chip": "ym2612"
    },
    {
      "channel": 1,
      "note": 61,
      "start": 45.9352,
      "duration": 0.2923,
      "velocity": 50,
      "chip": "ym2612"
    },
    {
      "channel": 3,
      "note": 82,
      "start": 45.9355,
      "duration": 0.0064,
      "velocity": 89,
      "chip": "ym2612"
    },
    {
      "channel": 4,
      "note": 77,
      "start": 45.9358,
      "duration": 0.0063,
      "velocity": 89,
      "chip": "ym2612"
    },
    {
      "channel": 3,
      "note": 82,
      "start": 45.9601,
      "duration": 0.0087,
      "velocity": 89,
      "chip": "ym2612"
    },
    {
      "channel": 4,
      "note": 77,
      "start": 45.9604,
      "duration": 0.0085,
      "velocity": 89,
      "chip": "ym2612"
    },
    {
      "channel": 3,
      "note": 82,
      "start": 45.9868,
      "duration": 0.0087,
      "velocity": 89,
      "chip": "ym2612"
    },
    {
      "channel": 4,
      "note": 77,
      "start": 45.9871,
      "duration": 0.0085,
      "velocity": 89,
      "chip": "ym2612"
    },
    {
      "channel": 3,
      "note": 82,
      "start": 46.0136,
      "duration": 0.0087,
      "velocity": 89,
      "chip": "ym2612"
    },
    {
      "channel": 4,
      "note": 77,
      "start": 46.0139,
      "duration": 0.0085,
      "velocity": 89,
      "chip": "ym2612"
    },
    {
      "channel": 0,
      "note": 67,
      "start": 46.0417,
      "duration": 0.1054,
      "velocity": 112,
      "chip": "ym2612"
    },
    {
      "channel": 3,
      "note": 82,
      "start": 46.0422,
      "duration": 0.0069,
      "velocity": 89,
      "chip": "ym2612"
    },
    {
      "channel": 4,
      "note": 77,
      "start": 46.0425,
      "duration": 0.0068,
      "velocity": 89,
      "chip": "ym2612"
    },
    {
      "channel": 5,
      "note": 83,
      "start": 46.0445,
      "duration": 0.1047,
      "velocity": 53,
      "chip": "ym2612"
    },
    {
      "channel": 3,
      "note": 82,
      "start": 46.0672,
      "duration": 0.0086,
      "velocity": 89,
      "chip": "ym2612"
    },
    {
      "channel": 4,
      "note": 77,
      "start": 46.0675,
      "duration": 0.0085,
      "velocity": 89,
      "chip": "ym2612"
    },
    {
      "channel": 3,
      "note": 82,
      "start": 46.094,
      "duration": 0.0087,
      "velocity": 89,
      "chip": "ym2612"
    },
    {
      "channel": 4,
      "note": 77,
      "start": 46.0943,
      "duration": 0.0088,
      "velocity": 89,
      "chip": "ym2612"
    },
    {
      "channel": 3,
      "note": 82,
      "start": 46.1208,
      "duration": 0.0087,
      "velocity": 89,
      "chip": "ym2612"
    },
    {
      "channel": 4,
      "note": 77,
      "start": 46.1211,
      "duration": 0.0085,
      "velocity": 89,
      "chip": "ym2612"
    },
    {
      "channel": 0,
      "note": 75,
      "start": 46.1488,
      "duration": 0.1054,
      "velocity": 127,
      "chip": "ym2612"
    },
    {
      "channel": 5,
      "note": 75,
      "start": 46.151,
      "duration": 0.1045,
      "velocity": 127,
      "chip": "ym2612"
    },
    {
      "channel": 0,
      "note": 75,
      "start": 46.2545,
      "duration": 0.1069,
      "velocity": 127,
      "chip": "ym2612"
    },
    {
      "channel": 1,
      "note": 58,
      "start": 46.2549,
      "duration": 0.1869,
      "velocity": 50,
      "chip": "ym2612"
    },
    {
      "channel": 3,
      "note": 78,
      "start": 46.2552,
      "duration": 0.0082,
      "velocity": 89,
      "chip": "ym2612"
    },
    {
      "channel": 4,
      "note": 73,
      "start": 46.2554,
      "duration": 0.0081,
      "velocity": 89,
      "chip": "ym2612"
    },
    {
      "channel": 5,
      "note": 66,
      "start": 46.2572,
      "duration": 0.2159,
      "velocity": 127,
      "chip": "ym2612"
    },
    {
      "channel": 3,
      "note": 78,
      "start": 46.2815,
      "duration": 0.0087,
      "velocity": 89,
      "chip": "ym2612"
    },
    {
      "channel": 4,
      "note": 73,
      "start": 46.2818,
      "duration": 0.0085,
      "velocity": 89,
      "chip": "ym2612"
    },
    {
      "channel": 3,
      "note": 78,
      "start": 46.3083,
      "duration": 0.0087,
      "velocity": 89,
      "chip": "ym2612"
    },
    {
      "channel": 4,
      "note": 73,
      "start": 46.3085,
      "duration": 0.0086,
      "velocity": 89,
      "chip": "ym2612"
    },
    {
      "channel": 3,
      "note": 78,
      "start": 46.335,
      "duration": 0.0087,
      "velocity": 89,
      "chip": "ym2612"
    },
    {
      "channel": 4,
      "note": 73,
      "start": 46.3353,
      "duration": 0.0085,
      "velocity": 89,
      "chip": "ym2612"
    },
    {
      "channel": 0,
      "note": 66,
      "start": 46.3633,
      "duration": 0.1052,
      "velocity": 127,
      "chip": "ym2612"
    },
    {
      "channel": 3,
      "note": 78,
      "start": 46.3638,
      "duration": 0.0067,
      "velocity": 89,
      "chip": "ym2612"
    },
    {
      "channel": 4,
      "note": 73,
      "start": 46.3641,
      "duration": 0.0065,
      "velocity": 89,
      "chip": "ym2612"
    },
    {
      "channel": 3,
      "note": 78,
      "start": 46.3886,
      "duration": 0.0087,
      "velocity": 89,
      "chip": "ym2612"
    },
    {
      "channel": 4,
      "note": 73,
      "start": 46.3889,
      "duration": 0.0085,
      "velocity": 89,
      "chip": "ym2612"
    },
    {
      "channel": 3,
      "note": 78,
      "start": 46.4154,
      "duration": 0.0087,
      "velocity": 89,
      "chip": "ym2612"
    },
    {
      "channel": 4,
      "note": 73,
      "start": 46.4157,
      "duration": 0.0085,
      "velocity": 89,
      "chip": "ym2612"
    },
    {
      "channel": 3,
      "note": 78,
      "start": 46.4422,
      "duration": 0.0087,
      "velocity": 89,
      "chip": "ym2612"
    },
    {
      "channel": 4,
      "note": 73,
      "start": 46.4425,
      "duration": 0.0085,
      "velocity": 89,
      "chip": "ym2612"
    },
    {
      "channel": 0,
      "note": 32,
      "start": 46.4702,
      "duration": 0.1054,
      "velocity": 107,
      "chip": "ym2612"
    },
    {
      "channel": 1,
      "note": 58,
      "start": 46.4706,
      "duration": 0.2925,
      "velocity": 50,
      "chip": "ym2612"
    },
    {
      "channel": 2,
      "note": 92,
      "start": 46.4723,
      "duration": 0.0768,
      "velocity": 105,
      "chip": "ym2612"
    },
    {
      "channel": 3,
      "note": 82,
      "start": 46.4726,
      "duration": 0.0052,
      "velocity": 89,
      "chip": "ym2612"
    },
    {
      "channel": 4,
      "note": 77,
      "start": 46.4731,
      "duration": 0.0048,
      "velocity": 89,
      "chip": "ym2612"
    },
    {
      "channel": 5,
      "note": 83,
      "start": 46.4749,
      "duration": 0.1035,
      "velocity": 53,
      "chip": "ym2612"
    },
    {
      "channel": 3,
      "note": 82,
      "start": 46.4958,
      "duration": 0.0087,
      "velocity": 89,
      "chip": "ym2612"
    },
    {
      "channel": 4,
      "note": 77,
      "start": 46.4961,
      "duration": 0.0085,
      "velocity": 89,
      "chip": "ym2612"
    },
    {
      "channel": 3,
      "note": 82,
      "start": 46.5226,
      "duration": 0.0087,
      "velocity": 89,
      "chip": "ym2612"
    },
    {
      "channel": 4,
      "note": 77,
      "start": 46.5232,
      "duration": 0.0083,
      "velocity": 89,
      "chip": "ym2612"
    },
    {
      "channel": 3,
      "note": 82,
      "start": 46.5495,
      "duration": 0.0087,
      "velocity": 89,
      "chip": "ym2612"
    },
    {
      "channel": 4,
      "note": 77,
      "start": 46.5498,
      "duration": 0.0085,
      "velocity": 89,
      "chip": "ym2612"
    },
    {
      "channel": 0,
      "note": 75,
      "start": 46.5773,
      "duration": 0.1057,
      "velocity": 127,
      "chip": "ym2612"
    },
    {
      "channel": 2,
      "note": 92,
      "start": 46.5777,
      "duration": 0.0784,
      "velocity": 105,
      "chip": "ym2612"
    },
    {
      "channel": 3,
      "note": 82,
      "start": 46.578,
      "duration": 0.0068,
      "velocity": 89,
      "chip": "ym2612"
    },
    {
      "channel": 4,
      "note": 77,
      "start": 46.5783,
      "duration": 0.0066,
      "velocity": 89,
      "chip": "ym2612"
    },
    {
      "channel": 5,
      "note": 75,
      "start": 46.5802,
      "duration": 0.1037,
      "velocity": 127,
      "chip": "ym2612"
    },
    {
      "channel": 3,
      "note": 82,
      "start": 46.6031,
      "duration": 0.0084,
      "velocity": 89,
      "chip": "ym2612"
    },
    {
      "channel": 4,
      "note": 77,
      "start": 46.6034,
      "duration": 0.0083,
      "velocity": 89,
      "chip": "ym2612"
    },
    {
      "channel": 3,
      "note": 82,
      "start": 46.6297,
      "duration": 0.0087,
      "velocity": 89,
      "chip": "ym2612"
    },
    {
      "channel": 4,
      "note": 77,
      "start": 46.63,
      "duration": 0.0085,
      "velocity": 89,
      "chip": "ym2612"
    },
    {
      "channel": 3,
      "note": 82,
      "start": 46.6565,
      "duration": 0.0087,
      "velocity": 89,
      "chip": "ym2612"
    },
    {
      "channel": 4,
      "note": 77,
      "start": 46.6568,
      "duration": 0.0085,
      "velocity": 89,
      "chip": "ym2612"
    },
    {
      "channel": 0,
      "note": 75,
      "start": 46.6833,
      "duration": 0.1066,
      "velocity": 127,
      "chip": "ym2612"
    },
    {
      "channel": 2,
      "note": 75,
      "start": 46.6837,
      "duration": 0.1868,
      "velocity": 105,
      "chip": "ym2612"
    },
    {
      "channel": 5,
      "note": 66,
      "start": 46.6856,
      "duration": 0.2142,
      "velocity": 127,
      "chip": "ym2612"
    },
    {
      "channel": 0,
      "note": 32,
      "start": 46.7916,
      "duration": 0.1054,
      "velocity": 107,
      "chip": "ym2612"
    },
    {
      "channel": 1,
      "note": 54,
      "start": 46.792,
      "duration": 0.2927,
      "velocity": 50,
      "chip": "ym2612"
    },
    {
      "channel": 3,
      "note": 78,
      "start": 46.7923,
      "duration": 0.0068,
      "velocity": 89,
      "chip": "ym2612"
    },
    {
      "channel": 4,
      "note": 73,
      "start": 46.7926,
      "duration": 0.0067,
      "velocity": 89,
      "chip": "ym2612"
    },
    {
      "channel": 3,
      "note": 78,
      "start": 46.8173,
      "duration": 0.0087,
      "velocity": 89,
      "chip": "ym2612"
    },
    {
      "channel": 4,
      "note": 73,
      "start": 46.8176,
      "duration": 0.0085,
      "velocity": 89,
      "chip": "ym2612"
    },
    {
      "channel": 3,
      "note": 78,
      "start": 46.844,
      "duration": 0.0087,
      "velocity": 89,
      "chip": "ym2612"
    },
    {
      "channel": 4,
      "note": 73,
      "start": 46.8443,
      "duration": 0.0088,
      "velocity": 89,
      "chip": "ym2612"
    },
    {
      "channel": 3,
      "note": 78,
      "start": 46.8709,
      "duration": 0.0087,
      "velocity": 89,
      "chip": "ym2612"
    },
    {
      "channel": 4,
      "note": 73,
      "start": 46.8712,
      "duration": 0.0085,
      "velocity": 89,
      "chip": "ym2612"
    },
    {
      "channel": 0,
      "note": 67,
      "start": 46.8988,
      "duration": 0.1054,
      "velocity": 112,
      "chip": "ym2612"
    },
    {
      "channel": 2,
      "note": 89,
      "start": 46.8991,
      "duration": 0.0784,
      "velocity": 105,
      "chip": "ym2612"
    },
    {
      "channel": 3,
      "note": 78,
      "start": 46.8994,
      "duration": 0.0068,
      "velocity": 89,
      "chip": "ym2612"
    },
    {
      "channel": 4,
      "note": 73,
      "start": 46.8997,
      "duration": 0.0066,
      "velocity": 89,
      "chip": "ym2612"
    },
    {
      "channel": 5,
      "note": 83,
      "start": 46.9015,
      "duration": 0.1049,
      "velocity": 53,
      "chip": "ym2612"
    },
    {
      "channel": 3,
      "note": 78,
      "start": 46.9243,
      "duration": 0.0089,
      "velocity": 89,
      "chip": "ym2612"
    },
    {
      "channel": 4,
      "note": 73,
      "start": 46.9246,
      "duration": 0.0088,
      "velocity": 89,
      "chip": "ym2612"
    },
    {
      "channel": 3,
      "note": 78,
      "start": 46.9511,
      "duration": 0.0087,
      "velocity": 89,
      "chip": "ym2612"
    },
    {
      "channel": 4,
      "note": 73,
      "start": 46.9514,
      "duration": 0.0085,
      "velocity": 89,
      "chip": "ym2612"
    },
    {
      "channel": 3,
      "note": 78,
      "start": 46.9779,
      "duration": 0.0087,
      "velocity": 89,
      "chip": "ym2612"
    },
    {
      "channel": 4,
      "note": 73,
      "start": 46.9782,
      "duration": 0.0085,
      "velocity": 89,
      "chip": "ym2612"
    },
    {
      "channel": 0,
      "note": 32,
      "start": 47.0059,
      "duration": 0.1054,
      "velocity": 107,
      "chip": "ym2612"
    },
    {
      "channel": 2,
      "note": 89,
      "start": 47.0063,
      "duration": 0.0785,
      "velocity": 105,
      "chip": "ym2612"
    },
    {
      "channel": 5,
      "note": 75,
      "start": 47.0083,
      "duration": 0.1062,
      "velocity": 127,
      "chip": "ym2612"
    },
    {
      "channel": 0,
      "note": 32,
      "start": 47.1133,
      "duration": 0.1052,
      "velocity": 107,
      "chip": "ym2612"
    },
    {
      "channel": 1,
      "note": 53,
      "start": 47.1137,
      "duration": 0.1852,
      "velocity": 50,
      "chip": "ym2612"
    },
    {
      "channel": 2,
      "note": 73,
      "start": 47.1139,
      "duration": 0.185,
      "velocity": 105,
      "chip": "ym2612"
    },
    {
      "channel": 3,
      "note": 77,
      "start": 47.1142,
      "duration": 0.0063,
      "velocity": 89,
      "chip": "ym2612"
    },
    {
      "channel": 4,
      "note": 72,
      "start": 47.1144,
      "duration": 0.0063,
      "velocity": 89,
      "chip": "ym2612"
    },
    {
      "channel": 5,
      "note": 66,
      "start": 47.1162,
      "duration": 0.2136,
      "velocity": 127,
      "chip": "ym2612"
    },
    {
      "channel": 3,
      "note": 77,
      "start": 47.1387,
      "duration": 0.0087,
      "velocity": 89,
      "chip": "ym2612"
    },
    {
      "channel": 4,
      "note": 72,
      "start": 47.139,
      "duration": 0.0085,
      "velocity": 89,
      "chip": "ym2612"
    },
    {
      "channel": 3,
      "note": 77,
      "start": 47.1654,
      "duration": 0.0087,
      "velocity": 89,
      "chip": "ym2612"
    },
    {
      "channel": 4,
      "note": 72,
      "start": 47.1657,
      "duration": 0.0085,
      "velocity": 89,
      "chip": "ym2612"
    },
    {
      "channel": 3,
      "note": 77,
      "start": 47.1922,
      "duration": 0.0087,
      "velocity": 89,
      "chip": "ym2612"
    },
    {
      "channel": 4,
      "note": 72,
      "start": 47.1925,
      "duration": 0.0085,
      "velocity": 89,
      "chip": "ym2612"
    },
    {
      "channel": 0,
      "note": 67,
      "start": 47.2202,
      "duration": 0.1054,
      "velocity": 112,
      "chip": "ym2612"
    },
    {
      "channel": 3,
      "note": 77,
      "start": 47.2207,
      "duration": 0.0069,
      "velocity": 89,
      "chip": "ym2612"
    },
    {
      "channel": 4,
      "note": 72,
      "start": 47.221,
      "duration": 0.0068,
      "velocity": 89,
      "chip": "ym2612"
    },
    {
      "channel": 3,
      "note": 77,
      "start": 47.2457,
      "duration": 0.0087,
      "velocity": 89,
      "chip": "ym2612"
    },
    {
      "channel": 4,
      "note": 72,
      "start": 47.246,
      "duration": 0.0085,
      "velocity": 89,
      "chip": "ym2612"
    },
    {
      "channel": 3,
      "note": 77,
      "start": 47.2725,
      "duration": 0.0087,
      "velocity": 89,
      "chip": "ym2612"
    },
    {
      "channel": 4,
      "note": 72,
      "start": 47.273,
      "duration": 0.0083,
      "velocity": 89,
      "chip": "ym2612"
    },
    {
      "channel": 3,
      "note": 77,
      "start": 47.2993,
      "duration": 0.0087,
      "velocity": 89,
      "chip": "ym2612"
    },
    {
      "channel": 4,
      "note": 72,
      "start": 47.2996,
      "duration": 0.0085,
      "velocity": 89,
      "chip": "ym2612"
    },
    {
      "channel": 0,
      "note": 32,
      "start": 47.3273,
      "duration": 0.1057,
      "velocity": 127,
      "chip": "ym2612"
    },
    {
      "channel": 1,
      "note": 58,
      "start": 47.3277,
      "duration": 0.2925,
      "velocity": 50,
      "chip": "ym2612"
    },
    {
      "channel": 3,
      "note": 82,
      "start": 47.3295,
      "duration": 0.0054,
      "velocity": 89,
      "chip": "ym2612"
    },
    {
      "channel": 4,
      "note": 77,
      "start": 47.3298,
      "duration": 0.0052,
      "velocity": 89,
      "chip": "ym2612"
    },
    {
      "channel": 5,
      "note": 83,
      "start": 47.3316,
      "duration": 0.104,
      "velocity": 53,
      "chip": "ym2612"
    },
    {
      "channel": 3,
      "note": 82,
      "start": 47.3532,
      "duration": 0.0084,
      "velocity": 89,
      "chip": "ym2612"
    },
    {
      "channel": 4,
      "note": 77,
      "start": 47.3535,
      "duration": 0.0083,
      "velocity": 89,
      "chip": "ym2612"
    },
    {
      "channel": 3,
      "note": 82,
      "start": 47.3797,
      "duration": 0.0087,
      "velocity": 89,
      "chip": "ym2612"
    },
    {
      "channel": 4,
      "note": 77,
      "start": 47.38,
      "duration": 0.0085,
      "velocity": 89,
      "chip": "ym2612"
    },
    {
      "channel": 3,
      "note": 82,
      "start": 47.4065,
      "duration": 0.0087,
      "velocity": 89,
      "chip": "ym2612"
    },
    {
      "channel": 4,
      "note": 77,
      "start": 47.4068,
      "duration": 0.0085,
      "velocity": 89,
      "chip": "ym2612"
    },
    {
      "channel": 0,
      "note": 75,
      "start": 47.4347,
      "duration": 0.1052,
      "velocity": 127,
      "chip": "ym2612"
    },
    {
      "channel": 3,
      "note": 82,
      "start": 47.4352,
      "duration": 0.0067,
      "velocity": 89,
      "chip": "ym2612"
    },
    {
      "channel": 4,
      "note": 77,
      "start": 47.4355,
      "duration": 0.0065,
      "velocity": 89,
      "chip": "ym2612"
    },
    {
      "channel": 5,
      "note": 75,
      "start": 47.4373,
      "duration": 0.1046,
      "velocity": 127,
      "chip": "ym2612"
    },
    {
      "channel": 3,
      "note": 82,
      "start": 47.46,
      "duration": 0.0087,
      "velocity": 89,
      "chip": "ym2612"
    },
    {
      "channel": 4,
      "note": 77,
      "start": 47.4603,
      "duration": 0.0085,
      "velocity": 89,
      "chip": "ym2612"
    },
    {
      "channel": 3,
      "note": 82,
      "start": 47.4868,
      "duration": 0.0087,
      "velocity": 89,
      "chip": "ym2612"
    },
    {
      "channel": 4,
      "note": 77,
      "start": 47.4871,
      "duration": 0.0085,
      "velocity": 89,
      "chip": "ym2612"
    },
    {
      "channel": 3,
      "note": 82,
      "start": 47.5135,
      "duration": 0.0087,
      "velocity": 89,
      "chip": "ym2612"
    },
    {
      "channel": 4,
      "note": 77,
      "start": 47.5138,
      "duration": 0.0085,
      "velocity": 89,
      "chip": "ym2612"
    },
    {
      "channel": 0,
      "note": 75,
      "start": 47.5416,
      "duration": 0.1054,
      "velocity": 127,
      "chip": "ym2612"
    },
    {
      "channel": 5,
      "note": 66,
      "start": 47.5439,
      "duration": 0.2217,
      "velocity": 127,
      "chip": "ym2612"
    },
    {
      "channel": 0,
      "note": 66,
      "start": 47.6487,
      "duration": 0.1144,
      "velocity": 127,
      "chip": "ym2612"
    },
    {
      "channel": 1,
      "note": 58,
      "start": 47.6491,
      "duration": 0.3015,
      "velocity": 50,
      "chip": "ym2612"
    },
    {
      "channel": 3,
      "note": 78,
      "start": 47.6494,
      "duration": 0.0067,
      "velocity": 89,
      "chip": "ym2612"
    },
    {
      "channel": 4,
      "note": 73,
      "start": 47.6497,
      "duration": 0.0066,
      "velocity": 89,
      "chip": "ym2612"
    },
    {
      "channel": 3,
      "note": 78,
      "start": 47.6742,
      "duration": 0.0089,
      "velocity": 89,
      "chip": "ym2612"
    },
    {
      "channel": 4,
      "note": 73,
      "start": 47.6745,
      "duration": 0.0088,
      "velocity": 89,
      "chip": "ym2612"
    },
    {
      "channel": 3,
      "note": 78,
      "start": 47.701,
      "duration": 0.0087,
      "velocity": 89,
      "chip": "ym2612"
    },
    {
      "channel": 4,
      "note": 73,
      "start": 47.7013,
      "duration": 0.0085,
      "velocity": 89,
      "chip": "ym2612"
    },
    {
      "channel": 3,
      "note": 78,
      "start": 47.7278,
      "duration": 0.0087,
      "velocity": 89,
      "chip": "ym2612"
    },
    {
      "channel": 4,
      "note": 73,
      "start": 47.7281,
      "duration": 0.0085,
      "velocity": 89,
      "chip": "ym2612"
    },
    {
      "channel": 0,
      "note": 67,
      "start": 47.7648,
      "duration": 0.1054,
      "velocity": 112,
      "chip": "ym2612"
    },
    {
      "channel": 3,
      "note": 78,
      "start": 47.7653,
      "duration": 0.0069,
      "velocity": 89,
      "chip": "ym2612"
    },
    {
      "channel": 4,
      "note": 73,
      "start": 47.7656,
      "duration": 0.0068,
      "velocity": 89,
      "chip": "ym2612"
    },
    {
      "channel": 5,
      "note": 83,
      "start": 47.7674,
      "duration": 0.1049,
      "velocity": 53,
      "chip": "ym2612"
    },
    {
      "channel": 3,
      "note": 78,
      "start": 47.7903,
      "duration": 0.0087,
      "velocity": 89,
      "chip": "ym2612"
    },
    {
      "channel": 4,
      "note": 73,
      "start": 47.7906,
      "duration": 0.0085,
      "velocity": 89,
      "chip": "ym2612"
    },
    {
      "channel": 3,
      "note": 78,
      "start": 47.8171,
      "duration": 0.0086,
      "velocity": 89,
      "chip": "ym2612"
    },
    {
      "channel": 4,
      "note": 73,
      "start": 47.8174,
      "duration": 0.0085,
      "velocity": 89,
      "chip": "ym2612"
    },
    {
      "channel": 3,
      "note": 78,
      "start": 47.8439,
      "duration": 0.0087,
      "velocity": 89,
      "chip": "ym2612"
    },
    {
      "channel": 4,
      "note": 73,
      "start": 47.8442,
      "duration": 0.0085,
      "velocity": 89,
      "chip": "ym2612"
    },
    {
      "channel": 0,
      "note": 75,
      "start": 47.8719,
      "duration": 0.1054,
      "velocity": 127,
      "chip": "ym2612"
    },
    {
      "channel": 5,
      "note": 75,
      "start": 47.8743,
      "duration": 0.1043,
      "velocity": 127,
      "chip": "ym2612"
    },
    {
      "channel": 0,
      "note": 75,
      "start": 47.9776,
      "duration": 0.1069,
      "velocity": 127,
      "chip": "ym2612"
    },
    {
      "channel": 1,
      "note": 61,
      "start": 47.9779,
      "duration": 0.1869,
      "velocity": 50,
      "chip": "ym2612"
    },
    {
      "channel": 3,
      "note": 77,
      "start": 47.9783,
      "duration": 0.0082,
      "velocity": 89,
      "chip": "ym2612"
    },
    {
      "channel": 4,
      "note": 72,
      "start": 47.9785,
      "duration": 0.0081,
      "velocity": 89,
      "chip": "ym2612"
    },
    {
      "channel": 5,
      "note": 66,
      "start": 47.9803,
      "duration": 0.2216,
      "velocity": 127,
      "chip": "ym2612"
    },
    {
      "channel": 3,
      "note": 77,
      "start": 48.0046,
      "duration": 0.0087,
      "velocity": 89,
      "chip": "ym2612"
    },
    {
      "channel": 4,
      "note": 72,
      "start": 48.0049,
      "duration": 0.0086,
      "velocity": 89,
      "chip": "ym2612"
    },
    {
      "channel": 3,
      "note": 77,
      "start": 48.0314,
      "duration": 0.0087,
      "velocity": 89,
      "chip": "ym2612"
    },
    {
      "channel": 4,
      "note": 72,
      "start": 48.0317,
      "duration": 0.0085,
      "velocity": 89,
      "chip": "ym2612"
    },
    {
      "channel": 3,
      "note": 77,
      "start": 48.0581,
      "duration": 0.0087,
      "velocity": 89,
      "chip": "ym2612"
    },
    {
      "channel": 4,
      "note": 72,
      "start": 48.0584,
      "duration": 0.0086,
      "velocity": 89,
      "chip": "ym2612"
    },
    {
      "channel": 0,
      "note": 66,
      "start": 48.0862,
      "duration": 0.1054,
      "velocity": 127,
      "chip": "ym2612"
    },
    {
      "channel": 3,
      "note": 77,
      "start": 48.0867,
      "duration": 0.0069,
      "velocity": 89,
      "chip": "ym2612"
    },
    {
      "channel": 4,
      "note": 72,
      "start": 48.087,
      "duration": 0.0068,
      "velocity": 89,
      "chip": "ym2612"
    },
    {
      "channel": 3,
      "note": 77,
      "start": 48.1117,
      "duration": 0.0087,
      "velocity": 89,
      "chip": "ym2612"
    },
    {
      "channel": 4,
      "note": 72,
      "start": 48.112,
      "duration": 0.0085,
      "velocity": 89,
      "chip": "ym2612"
    },
    {
      "channel": 3,
      "note": 77,
      "start": 48.1385,
      "duration": 0.0087,
      "velocity": 89,
      "chip": "ym2612"
    },
    {
      "channel": 4,
      "note": 72,
      "start": 48.1388,
      "duration": 0.0085,
      "velocity": 89,
      "chip": "ym2612"
    },
    {
      "channel": 3,
      "note": 77,
      "start": 48.1653,
      "duration": 0.0087,
      "velocity": 89,
      "chip": "ym2612"
    },
    {
      "channel": 4,
      "note": 72,
      "start": 48.1656,
      "duration": 0.0085,
      "velocity": 89,
      "chip": "ym2612"
    },
    {
      "channel": 0,
      "note": 32,
      "start": 48.1936,
      "duration": 0.1052,
      "velocity": 107,
      "chip": "ym2612"
    },
    {
      "channel": 1,
      "note": 60,
      "start": 48.1967,
      "duration": 0.2896,
      "velocity": 50,
      "chip": "ym2612"
    },
    {
      "channel": 2,
      "note": 48,
      "start": 48.1984,
      "duration": 0.0738,
      "velocity": 127,
      "chip": "ym2612"
    },
    {
      "channel": 3,
      "note": 84,
      "start": 48.2001,
      "duration": 0.0043,
      "velocity": 89,
      "chip": "ym2612"
    },
    {
      "channel": 4,
      "note": 79,
      "start": 48.2019,
      "duration": 0.0027,
      "velocity": 89,
      "chip": "ym2612"
    },
    {
      "channel": 5,
      "note": 83,
      "start": 48.204,
      "duration": 0.0975,
      "velocity": 53,
      "chip": "ym2612"
    },
    {
      "channel": 3,
      "note": 84,
      "start": 48.2189,
      "duration": 0.0087,
      "velocity": 89,
      "chip": "ym2612"
    },
    {
      "channel": 4,
      "note": 79,
      "start": 48.2192,
      "duration": 0.0085,
      "velocity": 89,
      "chip": "ym2612"
    },
    {
      "channel": 3,
      "note": 84,
      "start": 48.2457,
      "duration": 0.0087,
      "velocity": 89,
      "chip": "ym2612"
    },
    {
      "channel": 4,
      "note": 79,
      "start": 48.246,
      "duration": 0.0085,
      "velocity": 89,
      "chip": "ym2612"
    },
    {
      "channel": 3,
      "note": 84,
      "start": 48.2726,
      "duration": 0.0087,
      "velocity": 89,
      "chip": "ym2612"
    },
    {
      "channel": 4,
      "note": 79,
      "start": 48.2731,
      "duration": 0.0083,
      "velocity": 89,
      "chip": "ym2612"
    },
    {
      "channel": 0,
      "note": 75,
      "start": 48.3005,
      "duration": 0.1054,
      "velocity": 127,
      "chip": "ym2612"
    },
    {
      "channel": 2,
      "note": 48,
      "start": 48.3008,
      "duration": 0.0784,
      "velocity": 127,
      "chip": "ym2612"
    },
    {
      "channel": 3,
      "note": 84,
      "start": 48.3012,
      "duration": 0.0067,
      "velocity": 89,
      "chip": "ym2612"
    },
    {
      "channel": 4,
      "note": 79,
      "start": 48.3015,
      "duration": 0.0066,
      "velocity": 89,
      "chip": "ym2612"
    },
    {
      "channel": 5,
      "note": 75,
      "start": 48.3035,
      "duration": 0.1029,
      "velocity": 127,
      "chip": "ym2612"
    },
    {
      "channel": 3,
      "note": 84,
      "start": 48.326,
      "duration": 0.0087,
      "velocity": 89,
      "chip": "ym2612"
    },
    {
      "channel": 4,
      "note": 79,
      "start": 48.3263,
      "duration": 0.0085,
      "velocity": 89,
      "chip": "ym2612"
    },
    {
      "channel": 3,
      "note": 84,
      "start": 48.353,
      "duration": 0.0084,
      "velocity": 89,
      "chip": "ym2612"
    },
    {
      "channel": 4,
      "note": 79,
      "start": 48.3533,
      "duration": 0.0083,
      "velocity": 89,
      "chip": "ym2612"
    },
    {
      "channel": 3,
      "note": 84,
      "start": 48.3796,
      "duration": 0.0087,
      "velocity": 89,
      "chip": "ym2612"
    },
    {
      "channel": 4,
      "note": 79,
      "start": 48.3799,
      "duration": 0.0085,
      "velocity": 89,
      "chip": "ym2612"
    },
    {
      "channel": 0,
      "note": 75,
      "start": 48.4061,
      "duration": 0.107,
      "velocity": 127,
      "chip": "ym2612"
    },
    {
      "channel": 5,
      "note": 66,
      "start": 48.4082,
      "duration": 0.2149,
      "velocity": 127,
      "chip": "ym2612"
    },
    {
      "channel": 0,
      "note": 32,
      "start": 48.5148,
      "duration": 0.1054,
      "velocity": 107,
      "chip": "ym2612"
    },
    {
      "channel": 1,
      "note": 58,
      "start": 48.5152,
      "duration": 0.2926,
      "velocity": 50,
      "chip": "ym2612"
    },
    {
      "channel": 2,
      "note": 46,
      "start": 48.5154,
      "duration": 0.0781,
      "velocity": 127,
      "chip": "ym2612"
    },
    {
      "channel": 3,
      "note": 82,
      "start": 48.5157,
      "duration": 0.0066,
      "velocity": 89,
      "chip": "ym2612"
    },
    {
      "channel": 4,
      "note": 77,
      "start": 48.5159,
      "duration": 0.0065,
      "velocity": 89,
      "chip": "ym2612"
    },
    {
      "channel": 3,
      "note": 82,
      "start": 48.5403,
      "duration": 0.0087,
      "velocity": 89,
      "chip": "ym2612"
    },
    {
      "channel": 4,
      "note": 77,
      "start": 48.5406,
      "duration": 0.0085,
      "velocity": 89,
      "chip": "ym2612"
    },
    {
      "channel": 3,
      "note": 82,
      "start": 48.5671,
      "duration": 0.0087,
      "velocity": 89,
      "chip": "ym2612"
    },
    {
      "channel": 4,
      "note": 77,
      "start": 48.5674,
      "duration": 0.0085,
      "velocity": 89,
      "chip": "ym2612"
    },
    {
      "channel": 3,
      "note": 82,
      "start": 48.594,
      "duration": 0.0087,
      "velocity": 89,
      "chip": "ym2612"
    },
    {
      "channel": 4,
      "note": 77,
      "start": 48.5943,
      "duration": 0.0088,
      "velocity": 89,
      "chip": "ym2612"
    },
    {
      "channel": 0,
      "note": 67,
      "start": 48.6219,
      "duration": 0.1054,
      "velocity": 112,
      "chip": "ym2612"
    },
    {
      "channel": 2,
      "note": 46,
      "start": 48.6222,
      "duration": 0.0784,
      "velocity": 127,
      "chip": "ym2612"
    },
    {
      "channel": 3,
      "note": 82,
      "start": 48.6226,
      "duration": 0.0067,
      "velocity": 89,
      "chip": "ym2612"
    },
    {
      "channel": 4,
      "note": 77,
      "start": 48.6231,
      "duration": 0.0063,
      "velocity": 89,
      "chip": "ym2612"
    },
    {
      "channel": 5,
      "note": 83,
      "start": 48.6249,
      "duration": 0.1045,
      "velocity": 53,
      "chip": "ym2612"
    },
    {
      "channel": 3,
      "note": 82,
      "start": 48.6474,
      "duration": 0.0087,
      "velocity": 89,
      "chip": "ym2612"
    },
    {
      "channel": 4,
      "note": 77,
      "start": 48.6477,
      "duration": 0.0085,
      "velocity": 89,
      "chip": "ym2612"
    },
    {
      "channel": 3,
      "note": 82,
      "start": 48.6742,
      "duration": 0.0089,
      "velocity": 89,
      "chip": "ym2612"
    },
    {
      "channel": 4,
      "note": 77,
      "start": 48.6745,
      "duration": 0.0088,
      "velocity": 89,
      "chip": "ym2612"
    },
    {
      "channel": 3,
      "note": 82,
      "start": 48.701,
      "duration": 0.0087,
      "velocity": 89,
      "chip": "ym2612"
    },
    {
      "channel": 4,
      "note": 77,
      "start": 48.7013,
      "duration": 0.0085,
      "velocity": 89,
      "chip": "ym2612"
    },
    {
      "channel": 0,
      "note": 32,
      "start": 48.729,
      "duration": 0.1054,
      "velocity": 107,
      "chip": "ym2612"
    },
    {
      "channel": 5,
      "note": 75,
      "start": 48.7311,
      "duration": 0.1062,
      "velocity": 127,
      "chip": "ym2612"
    },
    {
      "channel": 0,
      "note": 32,
      "start": 48.8361,
      "duration": 0.1054,
      "velocity": 107,
      "chip": "ym2612"
    },
    {
      "channel": 1,
      "note": 54,
      "start": 48.8365,
      "duration": 0.1854,
      "velocity": 50,
      "chip": "ym2612"
    },
    {
      "channel": 2,
      "note": 42,
      "start": 48.8368,
      "duration": 0.0782,
      "velocity": 127,
      "chip": "ym2612"
    },
    {
      "channel": 3,
      "note": 78,
      "start": 48.837,
      "duration": 0.0066,
      "velocity": 89,
      "chip": "ym2612"
    },
    {
      "channel": 4,
      "note": 73,
      "start": 48.8373,
      "duration": 0.0066,
      "velocity": 89,
      "chip": "ym2612"
    },
    {
      "channel": 5,
      "note": 66,
      "start": 48.839,
      "duration": 0.2127,
      "velocity": 127,
      "chip": "ym2612"
    },
    {
      "channel": 3,
      "note": 78,
      "start": 48.8618,
      "duration": 0.0087,
      "velocity": 89,
      "chip": "ym2612"
    },
    {
      "channel": 4,
      "note": 73,
      "start": 48.8621,
      "duration": 0.0085,
      "velocity": 89,
      "chip": "ym2612"
    },
    {
      "channel": 3,
      "note": 78,
      "start": 48.8885,
      "duration": 0.0087,
      "velocity": 89,
      "chip": "ym2612"
    },
    {
      "channel": 4,
      "note": 73,
      "start": 48.8888,
      "duration": 0.0085,
      "velocity": 89,
      "chip": "ym2612"
    },
    {
      "channel": 3,
      "note": 78,
      "start": 48.9154,
      "duration": 0.0087,
      "velocity": 89,
      "chip": "ym2612"
    },
    {
      "channel": 4,
      "note": 73,
      "start": 48.9157,
      "duration": 0.0085,
      "velocity": 89,
      "chip": "ym2612"
    },
    {
      "channel": 0,
      "note": 67,
      "start": 48.9435,
      "duration": 0.1052,
      "velocity": 112,
      "chip": "ym2612"
    },
    {
      "channel": 2,
      "note": 42,
      "start": 48.9439,
      "duration": 0.0781,
      "velocity": 127,
      "chip": "ym2612"
    },
    {
      "channel": 3,
      "note": 78,
      "start": 48.9442,
      "duration": 0.0065,
      "velocity": 89,
      "chip": "ym2612"
    },
    {
      "channel": 4,
      "note": 73,
      "start": 48.9445,
      "duration": 0.0063,
      "velocity": 89,
      "chip": "ym2612"
    },
    {
      "channel": 3,
      "note": 78,
      "start": 48.9688,
      "duration": 0.0087,
      "velocity": 89,
      "chip": "ym2612"
    },
    {
      "channel": 4,
      "note": 73,
      "start": 48.9691,
      "duration": 0.0085,
      "velocity": 89,
      "chip": "ym2612"
    },
    {
      "channel": 3,
      "note": 78,
      "start": 48.9956,
      "duration": 0.0087,
      "velocity": 89,
      "chip": "ym2612"
    },
    {
      "channel": 4,
      "note": 73,
      "start": 48.9959,
      "duration": 0.0085,
      "velocity": 89,
      "chip": "ym2612"
    },
    {
      "channel": 3,
      "note": 78,
      "start": 49.0224,
      "duration": 0.0087,
      "velocity": 89,
      "chip": "ym2612"
    },
    {
      "channel": 4,
      "note": 73,
      "start": 49.023,
      "duration": 0.0083,
      "velocity": 89,
      "chip": "ym2612"
    },
    {
      "channel": 0,
      "note": 32,
      "start": 49.0505,
      "duration": 0.1054,
      "velocity": 127,
      "chip": "ym2612"
    },
    {
      "channel": 1,
      "note": 60,
      "start": 49.0508,
      "duration": 0.2925,
      "velocity": 50,
      "chip": "ym2612"
    },
    {
      "channel": 2,
      "note": 48,
      "start": 49.0511,
      "duration": 0.0781,
      "velocity": 127,
      "chip": "ym2612"
    },
    {
      "channel": 3,
      "note": 84,
      "start": 49.0514,
      "duration": 0.0065,
      "velocity": 89,
      "chip": "ym2612"
    },
    {
      "channel": 4,
      "note": 79,
      "start": 49.0517,
      "duration": 0.0063,
      "velocity": 89,
      "chip": "ym2612"
    },
    {
      "channel": 5,
      "note": 83,
      "start": 49.0537,
      "duration": 0.1048,
      "velocity": 53,
      "chip": "ym2612"
    },
    {
      "channel": 3,
      "note": 84,
      "start": 49.076,
      "duration": 0.0087,
      "velocity": 89,
      "chip": "ym2612"
    },
    {
      "channel": 4,
      "note": 79,
      "start": 49.0763,
      "duration": 0.0085,
      "velocity": 89,
      "chip": "ym2612"
    },
    {
      "channel": 3,
      "note": 84,
      "start": 49.1031,
      "duration": 0.0084,
      "velocity": 89,
      "chip": "ym2612"
    },
    {
      "channel": 4,
      "note": 79,
      "start": 49.1034,
      "duration": 0.0083,
      "velocity": 89,
      "chip": "ym2612"
    },
    {
      "channel": 3,
      "note": 84,
      "start": 49.1296,
      "duration": 0.0087,
      "velocity": 89,
      "chip": "ym2612"
    },
    {
      "channel": 4,
      "note": 79,
      "start": 49.1299,
      "duration": 0.0085,
      "velocity": 89,
      "chip": "ym2612"
    },
    {
      "channel": 0,
      "note": 75,
      "start": 49.1576,
      "duration": 0.1055,
      "velocity": 127,
      "chip": "ym2612"
    },
    {
      "channel": 2,
      "note": 48,
      "start": 49.1579,
      "duration": 0.0784,
      "velocity": 127,
      "chip": "ym2612"
    },
    {
      "channel": 3,
      "note": 84,
      "start": 49.1582,
      "duration": 0.0067,
      "velocity": 89,
      "chip": "ym2612"
    },
    {
      "channel": 4,
      "note": 79,
      "start": 49.1585,
      "duration": 0.0066,
      "velocity": 89,
      "chip": "ym2612"
    },
    {
      "channel": 5,
      "note": 75,
      "start": 49.1604,
      "duration": 0.1047,
      "velocity": 127,
      "chip": "ym2612"
    },
    {
      "channel": 3,
      "note": 84,
      "start": 49.1833,
      "duration": 0.0084,
      "velocity": 89,
      "chip": "ym2612"
    },
    {
      "channel": 4,
      "note": 79,
      "start": 49.1837,
      "duration": 0.0083,
      "velocity": 89,
      "chip": "ym2612"
    },
    {
      "channel": 3,
      "note": 84,
      "start": 49.2099,
      "duration": 0.0087,
      "velocity": 89,
      "chip": "ym2612"
    },
    {
      "channel": 4,
      "note": 79,
      "start": 49.2102,
      "duration": 0.0085,
      "velocity": 89,
      "chip": "ym2612"
    },
    {
      "channel": 3,
      "note": 84,
      "start": 49.2367,
      "duration": 0.0087,
      "velocity": 89,
      "chip": "ym2612"
    },
    {
      "channel": 4,
      "note": 79,
      "start": 49.237,
      "duration": 0.0085,
      "velocity": 89,
      "chip": "ym2612"
    },
    {
      "channel": 0,
      "note": 75,
      "start": 49.2648,
      "duration": 0.1053,
      "velocity": 127,
      "chip": "ym2612"
    },
    {
      "channel": 5,
      "note": 66,
      "start": 49.2669,
      "duration": 0.2131,
      "velocity": 127,
      "chip": "ym2612"
    },
    {
      "channel": 0,
      "note": 66,
      "start": 49.3718,
      "duration": 0.1054,
      "velocity": 127,
      "chip": "ym2612"
    },
    {
      "channel": 1,
      "note": 61,
      "start": 49.3722,
      "duration": 0.2926,
      "velocity": 50,
      "chip": "ym2612"
    },
    {
      "channel": 2,
      "note": 46,
      "start": 49.3724,
      "duration": 0.0781,
      "velocity": 127,
      "chip": "ym2612"
    },
    {
      "channel": 3,
      "note": 82,
      "start": 49.3727,
      "duration": 0.0066,
      "velocity": 89,
      "chip": "ym2612"
    },
    {
      "channel": 4,
      "note": 77,
      "start": 49.3732,
      "duration": 0.0062,
      "velocity": 89,
      "chip": "ym2612"
    },
    {
      "channel": 3,
      "note": 82,
      "start": 49.3973,
      "duration": 0.0087,
      "velocity": 89,
      "chip": "ym2612"
    },
    {
      "channel": 4,
      "note": 77,
      "start": 49.3976,
      "duration": 0.0085,
      "velocity": 89,
      "chip": "ym2612"
    },
    {
      "channel": 3,
      "note": 82,
      "start": 49.4241,
      "duration": 0.0089,
      "velocity": 89,
      "chip": "ym2612"
    },
    {
      "channel": 4,
      "note": 77,
      "start": 49.4244,
      "duration": 0.0088,
      "velocity": 89,
      "chip": "ym2612"
    },
    {
      "channel": 3,
      "note": 82,
      "start": 49.451,
      "duration": 0.0087,
      "velocity": 89,
      "chip": "ym2612"
    },
    {
      "channel": 4,
      "note": 77,
      "start": 49.4512,
      "duration": 0.0085,
      "velocity": 89,
      "chip": "ym2612"
    },
    {
      "channel": 0,
      "note": 67,
      "start": 49.479,
      "duration": 0.1054,
      "velocity": 112,
      "chip": "ym2612"
    },
    {
      "channel": 2,
      "note": 46,
      "start": 49.4793,
      "duration": 0.0784,
      "velocity": 127,
      "chip": "ym2612"
    },
    {
      "channel": 3,
      "note": 82,
      "start": 49.4796,
      "duration": 0.0067,
      "velocity": 89,
      "chip": "ym2612"
    },
    {
      "channel": 4,
      "note": 77,
      "start": 49.4799,
      "duration": 0.0066,
      "velocity": 89,
      "chip": "ym2612"
    },
    {
      "channel": 5,
      "note": 83,
      "start": 49.4817,
      "duration": 0.1047,
      "velocity": 53,
      "chip": "ym2612"
    },
    {
      "channel": 3,
      "note": 82,
      "start": 49.5045,
      "duration": 0.0088,
      "velocity": 89,
      "chip": "ym2612"
    },
    {
      "channel": 4,
      "note": 77,
      "start": 49.5048,
      "duration": 0.0087,
      "velocity": 89,
      "chip": "ym2612"
    },
    {
      "channel": 3,
      "note": 82,
      "start": 49.5313,
      "duration": 0.0087,
      "velocity": 89,
      "chip": "ym2612"
    },
    {
      "channel": 4,
      "note": 77,
      "start": 49.5316,
      "duration": 0.0085,
      "velocity": 89,
      "chip": "ym2612"
    },
    {
      "channel": 3,
      "note": 82,
      "start": 49.5581,
      "duration": 0.0087,
      "velocity": 89,
      "chip": "ym2612"
    },
    {
      "channel": 4,
      "note": 77,
      "start": 49.5584,
      "duration": 0.0086,
      "velocity": 89,
      "chip": "ym2612"
    },
    {
      "channel": 0,
      "note": 75,
      "start": 49.5861,
      "duration": 0.1054,
      "velocity": 127,
      "chip": "ym2612"
    },
    {
      "channel": 5,
      "note": 75,
      "start": 49.5882,
      "duration": 0.1049,
      "velocity": 127,
      "chip": "ym2612"
    },
    {
      "channel": 0,
      "note": 75,
      "start": 49.6917,
      "duration": 0.1069,
      "velocity": 127,
      "chip": "ym2612"
    },
    {
      "channel": 1,
      "note": 58,
      "start": 49.6921,
      "duration": 0.1869,
      "velocity": 50,
      "chip": "ym2612"
    },
    {
      "channel": 2,
      "note": 42,
      "start": 49.6924,
      "duration": 0.0796,
      "velocity": 127,
      "chip": "ym2612"
    },
    {
      "channel": 3,
      "note": 78,
      "start": 49.6926,
      "duration": 0.008,
      "velocity": 89,
      "chip": "ym2612"
    },
    {
      "channel": 4,
      "note": 73,
      "start": 49.6931,
      "duration": 0.0077,
      "velocity": 89,
      "chip": "ym2612"
    },
    {
      "channel": 5,
      "note": 66,
      "start": 49.6949,
      "duration": 0.2139,
      "velocity": 127,
      "chip": "ym2612"
    },
    {
      "channel": 3,
      "note": 78,
      "start": 49.7188,
      "duration": 0.0087,
      "velocity": 89,
      "chip": "ym2612"
    },
    {
      "channel": 4,
      "note": 73,
      "start": 49.719,
      "duration": 0.0085,
      "velocity": 89,
      "chip": "ym2612"
    },
    {
      "channel": 3,
      "note": 78,
      "start": 49.7455,
      "duration": 0.0087,
      "velocity": 89,
      "chip": "ym2612"
    },
    {
      "channel": 4,
      "note": 73,
      "start": 49.7458,
      "duration": 0.0085,
      "velocity": 89,
      "chip": "ym2612"
    },
    {
      "channel": 3,
      "note": 78,
      "start": 49.7724,
      "duration": 0.0087,
      "velocity": 89,
      "chip": "ym2612"
    },
    {
      "channel": 4,
      "note": 73,
      "start": 49.7727,
      "duration": 0.0085,
      "velocity": 89,
      "chip": "ym2612"
    },
    {
      "channel": 0,
      "note": 66,
      "start": 49.8004,
      "duration": 0.1054,
      "velocity": 127,
      "chip": "ym2612"
    },
    {
      "channel": 2,
      "note": 42,
      "start": 49.8007,
      "duration": 0.0784,
      "velocity": 127,
      "chip": "ym2612"
    },
    {
      "channel": 3,
      "note": 78,
      "start": 49.801,
      "duration": 0.0067,
      "velocity": 89,
      "chip": "ym2612"
    },
    {
      "channel": 4,
      "note": 73,
      "start": 49.8013,
      "duration": 0.0066,
      "velocity": 89,
      "chip": "ym2612"
    },
    {
      "channel": 3,
      "note": 78,
      "start": 49.8259,
      "duration": 0.0087,
      "velocity": 89,
      "chip": "ym2612"
    },
    {
      "channel": 4,
      "note": 73,
      "start": 49.8262,
      "duration": 0.0085,
      "velocity": 89,
      "chip": "ym2612"
    },
    {
      "channel": 3,
      "note": 78,
      "start": 49.8527,
      "duration": 0.0087,
      "velocity": 89,
      "chip": "ym2612"
    },
    {
      "channel": 4,
      "note": 73,
      "start": 49.8532,
      "duration": 0.0083,
      "velocity": 89,
      "chip": "ym2612"
    },
    {
      "channel": 3,
      "note": 78,
      "start": 49.8795,
      "duration": 0.0087,
      "velocity": 89,
      "chip": "ym2612"
    },
    {
      "channel": 4,
      "note": 73,
      "start": 49.8798,
      "duration": 0.0085,
      "velocity": 89,
      "chip": "ym2612"
    },
    {
      "channel": 0,
      "note": 32,
      "start": 49.9075,
      "duration": 0.1144,
      "velocity": 107,
      "chip": "ym2612"
    },
    {
      "channel": 1,
      "note": 58,
      "start": 49.9079,
      "duration": 0.3015,
      "velocity": 50,
      "chip": "ym2612"
    },
    {
      "channel": 2,
      "note": 46,
      "start": 49.9082,
      "duration": 0.0782,
      "velocity": 127,
      "chip": "ym2612"
    },
    {
      "channel": 3,
      "note": 82,
      "start": 49.9085,
      "duration": 0.0065,
      "velocity": 89,
      "chip": "ym2612"
    },
    {
      "channel": 4,
      "note": 77,
      "start": 49.9088,
      "duration": 0.0064,
      "velocity": 89,
      "chip": "ym2612"
    },
    {
      "channel": 5,
      "note": 83,
      "start": 49.9106,
      "duration": 0.1143,
      "velocity": 53,
      "chip": "ym2612"
    },
    {
      "channel": 3,
      "note": 82,
      "start": 49.9334,
      "duration": 0.0084,
      "velocity": 89,
      "chip": "ym2612"
    },
    {
      "channel": 4,
      "note": 77,
      "start": 49.9337,
      "duration": 0.0083,
      "velocity": 89,
      "chip": "ym2612"
    },
    {
      "channel": 3,
      "note": 82,
      "start": 49.9599,
      "duration": 0.0087,
      "velocity": 89,
      "chip": "ym2612"
    },
    {
      "channel": 4,
      "note": 77,
      "start": 49.9602,
      "duration": 0.0085,
      "velocity": 89,
      "chip": "ym2612"
    },
    {
      "channel": 3,
      "note": 82,
      "start": 49.9867,
      "duration": 0.0176,
      "velocity": 89,
      "chip": "ym2612"
    },
    {
      "channel": 4,
      "note": 77,
      "start": 49.987,
      "duration": 0.0175,
      "velocity": 89,
      "chip": "ym2612"
    },
    {
      "channel": 0,
      "note": 75,
      "start": 50.0238,
      "duration": 0.1052,
      "velocity": 127,
      "chip": "ym2612"
    },
    {
      "channel": 2,
      "note": 46,
      "start": 50.0242,
      "duration": 0.0781,
      "velocity": 127,
      "chip": "ym2612"
    },
    {
      "channel": 3,
      "note": 82,
      "start": 50.0245,
      "duration": 0.0065,
      "velocity": 89,
      "chip": "ym2612"
    },
    {
      "channel": 4,
      "note": 77,
      "start": 50.0248,
      "duration": 0.0063,
      "velocity": 89,
      "chip": "ym2612"
    },
    {
      "channel": 5,
      "note": 75,
      "start": 50.0266,
      "duration": 0.1029,
      "velocity": 127,
      "chip": "ym2612"
    },
    {
      "channel": 3,
      "note": 82,
      "start": 50.0491,
      "duration": 0.0087,
      "velocity": 89,
      "chip": "ym2612"
    },
    {
      "channel": 4,
      "note": 77,
      "start": 50.0494,
      "duration": 0.0085,
      "velocity": 89,
      "chip": "ym2612"
    },
    {
      "channel": 3,
      "note": 82,
      "start": 50.0759,
      "duration": 0.0087,
      "velocity": 89,
      "chip": "ym2612"
    },
    {
      "channel": 4,
      "note": 77,
      "start": 50.0762,
      "duration": 0.0085,
      "velocity": 89,
      "chip": "ym2612"
    },
    {
      "channel": 3,
      "note": 82,
      "start": 50.1027,
      "duration": 0.0087,
      "velocity": 89,
      "chip": "ym2612"
    },
    {
      "channel": 4,
      "note": 77,
      "start": 50.1032,
      "duration": 0.0083,
      "velocity": 89,
      "chip": "ym2612"
    },
    {
      "channel": 0,
      "note": 75,
      "start": 50.1292,
      "duration": 0.1069,
      "velocity": 127,
      "chip": "ym2612"
    },
    {
      "channel": 5,
      "note": 66,
      "start": 50.1313,
      "duration": 0.2147,
      "velocity": 127,
      "chip": "ym2612"
    },
    {
      "channel": 0,
      "note": 32,
      "start": 50.2378,
      "duration": 0.1054,
      "velocity": 107,
      "chip": "ym2612"
    },
    {
      "channel": 1,
      "note": 54,
      "start": 50.2382,
      "duration": 0.2926,
      "velocity": 50,
      "chip": "ym2612"
    },
    {
      "channel": 2,
      "note": 42,
      "start": 50.2385,
      "duration": 0.0783,
      "velocity": 127,
      "chip": "ym2612"
    },
    {
      "channel": 3,
      "note": 78,
      "start": 50.2387,
      "duration": 0.0066,
      "velocity": 89,
      "chip": "ym2612"
    },
    {
      "channel": 4,
      "note": 73,
      "start": 50.2389,
      "duration": 0.0066,
      "velocity": 89,
      "chip": "ym2612"
    },
    {
      "channel": 3,
      "note": 78,
      "start": 50.2636,
      "duration": 0.0085,
      "velocity": 89,
      "chip": "ym2612"
    },
    {
      "channel": 4,
      "note": 73,
      "start": 50.2639,
      "duration": 0.0084,
      "velocity": 89,
      "chip": "ym2612"
    },
    {
      "channel": 3,
      "note": 78,
      "start": 50.2902,
      "duration": 0.0087,
      "velocity": 89,
      "chip": "ym2612"
    },
    {
      "channel": 4,
      "note": 73,
      "start": 50.2905,
      "duration": 0.0085,
      "velocity": 89,
      "chip": "ym2612"
    },
    {
      "channel": 3,
      "note": 78,
      "start": 50.3171,
      "duration": 0.0087,
      "velocity": 89,
      "chip": "ym2612"
    },
    {
      "channel": 4,
      "note": 73,
      "start": 50.3174,
      "duration": 0.0085,
      "velocity": 89,
      "chip": "ym2612"
    },
    {
      "channel": 0,
      "note": 67,
      "start": 50.345,
      "duration": 0.1054,
      "velocity": 112,
      "chip": "ym2612"
    },
    {
      "channel": 2,
      "note": 42,
      "start": 50.3454,
      "duration": 0.0784,
      "velocity": 127,
      "chip": "ym2612"
    },
    {
      "channel": 3,
      "note": 78,
      "start": 50.3456,
      "duration": 0.0068,
      "velocity": 89,
      "chip": "ym2612"
    },
    {
      "channel": 4,
      "note": 73,
      "start": 50.346,
      "duration": 0.0066,
      "velocity": 89,
      "chip": "ym2612"
    },
    {
      "channel": 5,
      "note": 83,
      "start": 50.3477,
      "duration": 0.1047,
      "velocity": 53,
      "chip": "ym2612"
    },
    {
      "channel": 3,
      "note": 78,
      "start": 50.3705,
      "duration": 0.0087,
      "velocity": 89,
      "chip": "ym2612"
    },
    {
      "channel": 4,
      "note": 73,
      "start": 50.3708,
      "duration": 0.0085,
      "velocity": 89,
      "chip": "ym2612"
    },
    {
      "channel": 3,
      "note": 78,
      "start": 50.3973,
      "duration": 0.0087,
      "velocity": 89,
      "chip": "ym2612"
    },
    {
      "channel": 4,
      "note": 73,
      "start": 50.3976,
      "duration": 0.0085,
      "velocity": 89,
      "chip": "ym2612"
    },
    {
      "channel": 3,
      "note": 78,
      "start": 50.4241,
      "duration": 0.0089,
      "velocity": 89,
      "chip": "ym2612"
    },
    {
      "channel": 4,
      "note": 73,
      "start": 50.4244,
      "duration": 0.0088,
      "velocity": 89,
      "chip": "ym2612"
    },
    {
      "channel": 0,
      "note": 32,
      "start": 50.4521,
      "duration": 0.1054,
      "velocity": 107,
      "chip": "ym2612"
    },
    {
      "channel": 5,
      "note": 75,
      "start": 50.4545,
      "duration": 0.1059,
      "velocity": 127,
      "chip": "ym2612"
    },
    {
      "channel": 0,
      "note": 32,
      "start": 50.5593,
      "duration": 0.1054,
      "velocity": 107,
      "chip": "ym2612"
    },
    {
      "channel": 1,
      "note": 53,
      "start": 50.5596,
      "duration": 0.1854,
      "velocity": 50,
      "chip": "ym2612"
    },
    {
      "channel": 2,
      "note": 41,
      "start": 50.5599,
      "duration": 0.0782,
      "velocity": 127,
      "chip": "ym2612"
    },
    {
      "channel": 3,
      "note": 77,
      "start": 50.5601,
      "duration": 0.0067,
      "velocity": 89,
      "chip": "ym2612"
    },
    {
      "channel": 4,
      "note": 72,
      "start": 50.5604,
      "duration": 0.0066,
      "velocity": 89,
      "chip": "ym2612"
    },
    {
      "channel": 5,
      "note": 66,
      "start": 50.5622,
      "duration": 0.2129,
      "velocity": 127,
      "chip": "ym2612"
    },
    {
      "channel": 3,
      "note": 77,
      "start": 50.5849,
      "duration": 0.0087,
      "velocity": 89,
      "chip": "ym2612"
    },
    {
      "channel": 4,
      "note": 72,
      "start": 50.5851,
      "duration": 0.0085,
      "velocity": 89,
      "chip": "ym2612"
    },
    {
      "channel": 3,
      "note": 77,
      "start": 50.6117,
      "duration": 0.0087,
      "velocity": 89,
      "chip": "ym2612"
    },
    {
      "channel": 4,
      "note": 72,
      "start": 50.612,
      "duration": 0.0085,
      "velocity": 89,
      "chip": "ym2612"
    },
    {
      "channel": 3,
      "note": 77,
      "start": 50.6385,
      "duration": 0.0087,
      "velocity": 89,
      "chip": "ym2612"
    },
    {
      "channel": 4,
      "note": 72,
      "start": 50.6388,
      "duration": 0.0085,
      "velocity": 89,
      "chip": "ym2612"
    },
    {
      "channel": 0,
      "note": 67,
      "start": 50.6664,
      "duration": 0.1054,
      "velocity": 112,
      "chip": "ym2612"
    },
    {
      "channel": 2,
      "note": 41,
      "start": 50.6668,
      "duration": 0.0784,
      "velocity": 127,
      "chip": "ym2612"
    },
    {
      "channel": 3,
      "note": 77,
      "start": 50.6671,
      "duration": 0.0067,
      "velocity": 89,
      "chip": "ym2612"
    },
    {
      "channel": 4,
      "note": 72,
      "start": 50.6674,
      "duration": 0.0066,
      "velocity": 89,
      "chip": "ym2612"
    },
    {
      "channel": 3,
      "note": 77,
      "start": 50.6919,
      "duration": 0.0087,
      "velocity": 89,
      "chip": "ym2612"
    },
    {
      "channel": 4,
      "note": 72,
      "start": 50.6922,
      "duration": 0.0085,
      "velocity": 89,
      "chip": "ym2612"
    },
    {
      "channel": 3,
      "note": 77,
      "start": 50.7187,
      "duration": 0.0087,
      "velocity": 89,
      "chip": "ym2612"
    },
    {
      "channel": 4,
      "note": 72,
      "start": 50.719,
      "duration": 0.0085,
      "velocity": 89,
      "chip": "ym2612"
    },
    {
      "channel": 3,
      "note": 77,
      "start": 50.7456,
      "duration": 0.0087,
      "velocity": 89,
      "chip": "ym2612"
    },
    {
      "channel": 4,
      "note": 72,
      "start": 50.7459,
      "duration": 0.0085,
      "velocity": 89,
      "chip": "ym2612"
    },
    {
      "channel": 0,
      "note": 32,
      "start": 50.7738,
      "duration": 0.1052,
      "velocity": 127,
      "chip": "ym2612"
    },
    {
      "channel": 1,
      "note": 58,
      "start": 50.7741,
      "duration": 0.2923,
      "velocity": 50,
      "chip": "ym2612"
    },
    {
      "channel": 2,
      "note": 46,
      "start": 50.7744,
      "duration": 0.0779,
      "velocity": 127,
      "chip": "ym2612"
    },
    {
      "channel": 3,
      "note": 82,
      "start": 50.7747,
      "duration": 0.0063,
      "velocity": 89,
      "chip": "ym2612"
    },
    {
      "channel": 4,
      "note": 77,
      "start": 50.7751,
      "duration": 0.0061,
      "velocity": 89,
      "chip": "ym2612"
    },
    {
      "channel": 5,
      "note": 83,
      "start": 50.7768,
      "duration": 0.1049,
      "velocity": 53,
      "chip": "ym2612"
    },
    {
      "channel": 3,
      "note": 82,
      "start": 50.7991,
      "duration": 0.0087,
      "velocity": 89,
      "chip": "ym2612"
    },
    {
      "channel": 4,
      "note": 77,
      "start": 50.7994,
      "duration": 0.0085,
      "velocity": 89,
      "chip": "ym2612"
    },
    {
      "channel": 3,
      "note": 82,
      "start": 50.8259,
      "duration": 0.0087,
      "velocity": 89,
      "chip": "ym2612"
    },
    {
      "channel": 4,
      "note": 77,
      "start": 50.8262,
      "duration": 0.0085,
      "velocity": 89,
      "chip": "ym2612"
    },
    {
      "channel": 3,
      "note": 82,
      "start": 50.853,
      "duration": 0.0084,
      "velocity": 89,
      "chip": "ym2612"
    },
    {
      "channel": 4,
      "note": 77,
      "start": 50.8533,
      "duration": 0.0083,
      "velocity": 89,
      "chip": "ym2612"
    },
    {
      "channel": 0,
      "note": 75,
      "start": 50.8806,
      "duration": 0.1054,
      "velocity": 127,
      "chip": "ym2612"
    },
    {
      "channel": 2,
      "note": 46,
      "start": 50.881,
      "duration": 0.0783,
      "velocity": 127,
      "chip": "ym2612"
    },
    {
      "channel": 3,
      "note": 82,
      "start": 50.8813,
      "duration": 0.0067,
      "velocity": 89,
      "chip": "ym2612"
    },
    {
      "channel": 4,
      "note": 77,
      "start": 50.8816,
      "duration": 0.0066,
      "velocity": 89,
      "chip": "ym2612"
    },
    {
      "channel": 5,
      "note": 75,
      "start": 50.8837,
      "duration": 0.1044,
      "velocity": 127,
      "chip": "ym2612"
    },
    {
      "channel": 3,
      "note": 82,
      "start": 50.9062,
      "duration": 0.0087,
      "velocity": 89,
      "chip": "ym2612"
    },
    {
      "channel": 4,
      "note": 77,
      "start": 50.9065,
      "duration": 0.0085,
      "velocity": 89,
      "chip": "ym2612"
    },
    {
      "channel": 3,
      "note": 82,
      "start": 50.9332,
      "duration": 0.0084,
      "velocity": 89,
      "chip": "ym2612"
    },
    {
      "channel": 4,
      "note": 77,
      "start": 50.9335,
      "duration": 0.0083,
      "velocity": 89,
      "chip": "ym2612"
    },
    {
      "channel": 3,
      "note": 82,
      "start": 50.9598,
      "duration": 0.0087,
      "velocity": 89,
      "chip": "ym2612"
    },
    {
      "channel": 4,
      "note": 77,
      "start": 50.9601,
      "duration": 0.0085,
      "velocity": 89,
      "chip": "ym2612"
    },
    {
      "channel": 0,
      "note": 75,
      "start": 50.9878,
      "duration": 0.1054,
      "velocity": 127,
      "chip": "ym2612"
    },
    {
      "channel": 5,
      "note": 66,
      "start": 50.9899,
      "duration": 0.2135,
      "velocity": 127,
      "chip": "ym2612"
    },
    {
      "channel": 0,
      "note": 66,
      "start": 51.0949,
      "duration": 0.1054,
      "velocity": 127,
      "chip": "ym2612"
    },
    {
      "channel": 1,
      "note": 58,
      "start": 51.0953,
      "duration": 0.2926,
      "velocity": 50,
      "chip": "ym2612"
    },
    {
      "channel": 2,
      "note": 42,
      "start": 51.0955,
      "duration": 0.0781,
      "velocity": 127,
      "chip": "ym2612"
    },
    {
      "channel": 3,
      "note": 78,
      "start": 51.0958,
      "duration": 0.0066,
      "velocity": 89,
      "chip": "ym2612"
    },
    {
      "channel": 4,
      "note": 73,
      "start": 51.096,
      "duration": 0.0065,
      "velocity": 89,
      "chip": "ym2612"
    },
    {
      "channel": 3,
      "note": 78,
      "start": 51.1205,
      "duration": 0.0087,
      "velocity": 89,
      "chip": "ym2612"
    },
    {
      "channel": 4,
      "note": 73,
      "start": 51.1207,
      "duration": 0.0085,
      "velocity": 89,
      "chip": "ym2612"
    },
    {
      "channel": 3,
      "note": 78,
      "start": 51.1472,
      "duration": 0.0087,
      "velocity": 89,
      "chip": "ym2612"
    },
    {
      "channel": 4,
      "note": 73,
      "start": 51.1475,
      "duration": 0.0085,
      "velocity": 89,
      "chip": "ym2612"
    },
    {
      "channel": 3,
      "note": 78,
      "start": 51.1741,
      "duration": 0.0089,
      "velocity": 89,
      "chip": "ym2612"
    },
    {
      "channel": 4,
      "note": 73,
      "start": 51.1744,
      "duration": 0.0088,
      "velocity": 89,
      "chip": "ym2612"
    },
    {
      "channel": 0,
      "note": 67,
      "start": 51.202,
      "duration": 0.1054,
      "velocity": 112,
      "chip": "ym2612"
    },
    {
      "channel": 2,
      "note": 42,
      "start": 51.2024,
      "duration": 0.0784,
      "velocity": 127,
      "chip": "ym2612"
    },
    {
      "channel": 3,
      "note": 78,
      "start": 51.203,
      "duration": 0.0065,
      "velocity": 89,
      "chip": "ym2612"
    },
    {
      "channel": 4,
      "note": 73,
      "start": 51.2033,
      "duration": 0.0063,
      "velocity": 89,
      "chip": "ym2612"
    },
    {
      "channel": 5,
      "note": 83,
      "start": 51.2051,
      "duration": 0.1045,
      "velocity": 53,
      "chip": "ym2612"
    },
    {
      "channel": 3,
      "note": 78,
      "start": 51.2276,
      "duration": 0.0087,
      "velocity": 89,
      "chip": "ym2612"
    },
    {
      "channel": 4,
      "note": 73,
      "start": 51.2279,
      "duration": 0.0085,
      "velocity": 89,
      "chip": "ym2612"
    },
    {
      "channel": 3,
      "note": 78,
      "start": 51.2544,
      "duration": 0.0089,
      "velocity": 89,
      "chip": "ym2612"
    },
    {
      "channel": 4,
      "note": 73,
      "start": 51.2547,
      "duration": 0.0088,
      "velocity": 89,
      "chip": "ym2612"
    },
    {
      "channel": 3,
      "note": 78,
      "start": 51.2812,
      "duration": 0.0087,
      "velocity": 89,
      "chip": "ym2612"
    },
    {
      "channel": 4,
      "note": 73,
      "start": 51.2815,
      "duration": 0.0085,
      "velocity": 89,
      "chip": "ym2612"
    },
    {
      "channel": 0,
      "note": 75,
      "start": 51.3092,
      "duration": 0.1054,
      "velocity": 127,
      "chip": "ym2612"
    },
    {
      "channel": 5,
      "note": 75,
      "start": 51.3113,
      "duration": 0.1047,
      "velocity": 127,
      "chip": "ym2612"
    },
    {
      "channel": 0,
      "note": 75,
      "start": 51.4149,
      "duration": 0.1069,
      "velocity": 127,
      "chip": "ym2612"
    },
    {
      "channel": 1,
      "note": 61,
      "start": 51.4152,
      "duration": 0.1869,
      "velocity": 50,
      "chip": "ym2612"
    },
    {
      "channel": 2,
      "note": 41,
      "start": 51.4155,
      "duration": 0.0796,
      "velocity": 127,
      "chip": "ym2612"
    },
    {
      "channel": 3,
      "note": 77,
      "start": 51.4157,
      "duration": 0.008,
      "velocity": 89,
      "chip": "ym2612"
    },
    {
      "channel": 4,
      "note": 72,
      "start": 51.416,
      "duration": 0.0079,
      "velocity": 89,
      "chip": "ym2612"
    },
    {
      "channel": 5,
      "note": 66,
      "start": 51.4178,
      "duration": 0.2186,
      "velocity": 127,
      "chip": "ym2612"
    },
    {
      "channel": 3,
      "note": 77,
      "start": 51.4419,
      "duration": 0.0087,
      "velocity": 89,
      "chip": "ym2612"
    },
    {
      "channel": 4,
      "note": 72,
      "start": 51.4422,
      "duration": 0.0085,
      "velocity": 89,
      "chip": "ym2612"
    },
    {
      "channel": 3,
      "note": 77,
      "start": 51.4686,
      "duration": 0.0087,
      "velocity": 89,
      "chip": "ym2612"
    },
    {
      "channel": 4,
      "note": 72,
      "start": 51.4689,
      "duration": 0.0085,
      "velocity": 89,
      "chip": "ym2612"
    },
    {
      "channel": 3,
      "note": 77,
      "start": 51.4955,
      "duration": 0.0087,
      "velocity": 89,
      "chip": "ym2612"
    },
    {
      "channel": 4,
      "note": 72,
      "start": 51.4958,
      "duration": 0.0085,
      "velocity": 89,
      "chip": "ym2612"
    },
    {
      "channel": 0,
      "note": 66,
      "start": 51.5237,
      "duration": 0.1052,
      "velocity": 127,
      "chip": "ym2612"
    },
    {
      "channel": 2,
      "note": 41,
      "start": 51.5241,
      "duration": 0.0782,
      "velocity": 127,
      "chip": "ym2612"
    },
    {
      "channel": 3,
      "note": 77,
      "start": 51.5244,
      "duration": 0.0065,
      "velocity": 89,
      "chip": "ym2612"
    },
    {
      "channel": 4,
      "note": 72,
      "start": 51.5247,
      "duration": 0.0063,
      "velocity": 89,
      "chip": "ym2612"
    },
    {
      "channel": 3,
      "note": 77,
      "start": 51.549,
      "duration": 0.0087,
      "velocity": 89,
      "chip": "ym2612"
    },
    {
      "channel": 4,
      "note": 72,
      "start": 51.5493,
      "duration": 0.0085,
      "velocity": 89,
      "chip": "ym2612"
    },
    {
      "channel": 3,
      "note": 77,
      "start": 51.5758,
      "duration": 0.0087,
      "velocity": 89,
      "chip": "ym2612"
    },
    {
      "channel": 4,
      "note": 72,
      "start": 51.5761,
      "duration": 0.0085,
      "velocity": 89,
      "chip": "ym2612"
    },
    {
      "channel": 3,
      "note": 77,
      "start": 51.6027,
      "duration": 0.0087,
      "velocity": 89,
      "chip": "ym2612"
    },
    {
      "channel": 4,
      "note": 72,
      "start": 51.6032,
      "duration": 0.0083,
      "velocity": 89,
      "chip": "ym2612"
    },
    {
      "channel": 0,
      "note": 32,
      "start": 51.6306,
      "duration": 0.1054,
      "velocity": 107,
      "chip": "ym2612"
    },
    {
      "channel": 1,
      "note": 60,
      "start": 51.6323,
      "duration": 0.2912,
      "velocity": 50,
      "chip": "ym2612"
    },
    {
      "channel": 2,
      "note": 99,
      "start": 51.6358,
      "duration": 0.0737,
      "velocity": 105,
      "chip": "ym2612"
    },
    {
      "channel": 3,
      "note": 84,
      "start": 51.6361,
      "duration": 0.0025,
      "velocity": 89,
      "chip": "ym2612"
    },
    {
      "channel": 4,
      "note": 79,
      "start": 51.6364,
      "duration": 0.0024,
      "velocity": 89,
      "chip": "ym2612"
    },
    {
      "channel": 5,
      "note": 83,
      "start": 51.6382,
      "duration": 0.1006,
      "velocity": 53,
      "chip": "ym2612"
    },
    {
      "channel": 3,
      "note": 84,
      "start": 51.6562,
      "duration": 0.0087,
      "velocity": 89,
      "chip": "ym2612"
    },
    {
      "channel": 4,
      "note": 79,
      "start": 51.6565,
      "duration": 0.0085,
      "velocity": 89,
      "chip": "ym2612"
    },
    {
      "channel": 3,
      "note": 84,
      "start": 51.6833,
      "duration": 0.0084,
      "velocity": 89,
      "chip": "ym2612"
    },
    {
      "channel": 4,
      "note": 79,
      "start": 51.6836,
      "duration": 0.0083,
      "velocity": 89,
      "chip": "ym2612"
    },
    {
      "channel": 3,
      "note": 84,
      "start": 51.7098,
      "duration": 0.0087,
      "velocity": 89,
      "chip": "ym2612"
    },
    {
      "channel": 4,
      "note": 79,
      "start": 51.7101,
      "duration": 0.0085,
      "velocity": 89,
      "chip": "ym2612"
    },
    {
      "channel": 0,
      "note": 75,
      "start": 51.7377,
      "duration": 0.1054,
      "velocity": 127,
      "chip": "ym2612"
    },
    {
      "channel": 2,
      "note": 99,
      "start": 51.7381,
      "duration": 0.0784,
      "velocity": 105,
      "chip": "ym2612"
    },
    {
      "channel": 3,
      "note": 84,
      "start": 51.7384,
      "duration": 0.0068,
      "velocity": 89,
      "chip": "ym2612"
    },
    {
      "channel": 4,
      "note": 79,
      "start": 51.7387,
      "duration": 0.0066,
      "velocity": 89,
      "chip": "ym2612"
    },
    {
      "channel": 5,
      "note": 75,
      "start": 51.7406,
      "duration": 0.1034,
      "velocity": 127,
      "chip": "ym2612"
    },
    {
      "channel": 3,
      "note": 84,
      "start": 51.7635,
      "duration": 0.0084,
      "velocity": 89,
      "chip": "ym2612"
    },
    {
      "channel": 4,
      "note": 79,
      "start": 51.7638,
      "duration": 0.0083,
      "velocity": 89,
      "chip": "ym2612"
    },
    {
      "channel": 3,
      "note": 84,
      "start": 51.79,
      "duration": 0.0087,
      "velocity": 89,
      "chip": "ym2612"
    },
    {
      "channel": 4,
      "note": 79,
      "start": 51.7903,
      "duration": 0.0085,
      "velocity": 89,
      "chip": "ym2612"
    },
    {
      "channel": 3,
      "note": 84,
      "start": 51.8169,
      "duration": 0.0086,
      "velocity": 89,
      "chip": "ym2612"
    },
    {
      "channel": 4,
      "note": 79,
      "start": 51.8172,
      "duration": 0.0085,
      "velocity": 89,
      "chip": "ym2612"
    },
    {
      "channel": 0,
      "note": 75,
      "start": 51.8434,
      "duration": 0.1069,
      "velocity": 127,
      "chip": "ym2612"
    },
    {
      "channel": 2,
      "note": 82,
      "start": 51.8438,
      "duration": 0.1871,
      "velocity": 105,
      "chip": "ym2612"
    },
    {
      "channel": 5,
      "note": 66,
      "start": 51.8457,
      "duration": 0.2145,
      "velocity": 127,
      "chip": "ym2612"
    },
    {
      "channel": 0,
      "note": 32,
      "start": 51.952,
      "duration": 0.1054,
      "velocity": 107,
      "chip": "ym2612"
    },
    {
      "channel": 1,
      "note": 58,
      "start": 51.9524,
      "duration": 0.3016,
      "velocity": 50,
      "chip": "ym2612"
    },
    {
      "channel": 3,
      "note": 82,
      "start": 51.953,
      "duration": 0.0066,
      "velocity": 89,
      "chip": "ym2612"
    },
    {
      "channel": 4,
      "note": 77,
      "start": 51.9532,
      "duration": 0.0065,
      "velocity": 89,
      "chip": "ym2612"
    },
    {
      "channel": 3,
      "note": 82,
      "start": 51.9776,
      "duration": 0.0087,
      "velocity": 89,
      "chip": "ym2612"
    },
    {
      "channel": 4,
      "note": 77,
      "start": 51.9779,
      "duration": 0.0085,
      "velocity": 89,
      "chip": "ym2612"
    },
    {
      "channel": 3,
      "note": 82,
      "start": 52.0044,
      "duration": 0.0089,
      "velocity": 89,
      "chip": "ym2612"
    },
    {
      "channel": 4,
      "note": 77,
      "start": 52.0047,
      "duration": 0.0088,
      "velocity": 89,
      "chip": "ym2612"
    },
    {
      "channel": 3,
      "note": 82,
      "start": 52.0312,
      "duration": 0.0087,
      "velocity": 89,
      "chip": "ym2612"
    },
    {
      "channel": 4,
      "note": 77,
      "start": 52.0315,
      "duration": 0.0085,
      "velocity": 89,
      "chip": "ym2612"
    },
    {
      "channel": 0,
      "note": 67,
      "start": 52.0591,
      "duration": 0.1054,
      "velocity": 112,
      "chip": "ym2612"
    },
    {
      "channel": 2,
      "note": 96,
      "start": 52.0595,
      "duration": 0.0784,
      "velocity": 105,
      "chip": "ym2612"
    },
    {
      "channel": 3,
      "note": 82,
      "start": 52.0598,
      "duration": 0.0068,
      "velocity": 89,
      "chip": "ym2612"
    },
    {
      "channel": 4,
      "note": 77,
      "start": 52.0601,
      "duration": 0.0066,
      "velocity": 89,
      "chip": "ym2612"
    },
    {
      "channel": 5,
      "note": 83,
      "start": 52.0619,
      "duration": 0.105,
      "velocity": 53,
      "chip": "ym2612"
    },
    {
      "channel": 3,
      "note": 82,
      "start": 52.0847,
      "duration": 0.0087,
      "velocity": 89,
      "chip": "ym2612"
    },
    {
      "channel": 4,
      "note": 77,
      "start": 52.085,
      "duration": 0.0085,
      "velocity": 89,
      "chip": "ym2612"
    },
    {
      "channel": 3,
      "note": 82,
      "start": 52.1115,
      "duration": 0.0087,
      "velocity": 89,
      "chip": "ym2612"
    },
    {
      "channel": 4,
      "note": 77,
      "start": 52.1117,
      "duration": 0.0085,
      "velocity": 89,
      "chip": "ym2612"
    },
    {
      "channel": 3,
      "note": 82,
      "start": 52.1383,
      "duration": 0.0087,
      "velocity": 89,
      "chip": "ym2612"
    },
    {
      "channel": 4,
      "note": 77,
      "start": 52.1386,
      "duration": 0.0085,
      "velocity": 89,
      "chip": "ym2612"
    },
    {
      "channel": 0,
      "note": 32,
      "start": 52.1663,
      "duration": 0.1144,
      "velocity": 107,
      "chip": "ym2612"
    },
    {
      "channel": 2,
      "note": 96,
      "start": 52.1667,
      "duration": 0.0874,
      "velocity": 105,
      "chip": "ym2612"
    },
    {
      "channel": 5,
      "note": 75,
      "start": 52.1687,
      "duration": 0.1151,
      "velocity": 127,
      "chip": "ym2612"
    },
    {
      "channel": 0,
      "note": 32,
      "start": 52.2824,
      "duration": 0.1054,
      "velocity": 107,
      "chip": "ym2612"
    },
    {
      "channel": 1,
      "note": 54,
      "start": 52.2827,
      "duration": 0.1854,
      "velocity": 50,
      "chip": "ym2612"
    },
    {
      "channel": 2,
      "note": 80,
      "start": 52.2833,
      "duration": 0.185,
      "velocity": 105,
      "chip": "ym2612"
    },
    {
      "channel": 3,
      "note": 78,
      "start": 52.2835,
      "duration": 0.0063,
      "velocity": 89,
      "chip": "ym2612"
    },
    {
      "channel": 4,
      "note": 73,
      "start": 52.2838,
      "duration": 0.0062,
      "velocity": 89,
      "chip": "ym2612"
    },
    {
      "channel": 5,
      "note": 66,
      "start": 52.2856,
      "duration": 0.2136,
      "velocity": 127,
      "chip": "ym2612"
    },
    {
      "channel": 3,
      "note": 78,
      "start": 52.308,
      "duration": 0.0087,
      "velocity": 89,
      "chip": "ym2612"
    },
    {
      "channel": 4,
      "note": 73,
      "start": 52.3083,
      "duration": 0.0085,
      "velocity": 89,
      "chip": "ym2612"
    },
    {
      "channel": 3,
      "note": 78,
      "start": 52.3348,
      "duration": 0.0087,
      "velocity": 89,
      "chip": "ym2612"
    },
    {
      "channel": 4,
      "note": 73,
      "start": 52.335,
      "duration": 0.0085,
      "velocity": 89,
      "chip": "ym2612"
    },
    {
      "channel": 3,
      "note": 78,
      "start": 52.3615,
      "duration": 0.0087,
      "velocity": 89,
      "chip": "ym2612"
    },
    {
      "channel": 4,
      "note": 73,
      "start": 52.3618,
      "duration": 0.0085,
      "velocity": 89,
      "chip": "ym2612"
    },
    {
      "channel": 0,
      "note": 67,
      "start": 52.3895,
      "duration": 0.1054,
      "velocity": 112,
      "chip": "ym2612"
    },
    {
      "channel": 3,
      "note": 78,
      "start": 52.39,
      "duration": 0.0069,
      "velocity": 89,
      "chip": "ym2612"
    },
    {
      "channel": 4,
      "note": 73,
      "start": 52.3903,
      "duration": 0.0068,
      "velocity": 89,
      "chip": "ym2612"
    },
    {
      "channel": 3,
      "note": 78,
      "start": 52.415,
      "duration": 0.0087,
      "velocity": 89,
      "chip": "ym2612"
    },
    {
      "channel": 4,
      "note": 73,
      "start": 52.4153,
      "duration": 0.0085,
      "velocity": 89,
      "chip": "ym2612"
    },
    {
      "channel": 3,
      "note": 78,
      "start": 52.4418,
      "duration": 0.0087,
      "velocity": 89,
      "chip": "ym2612"
    },
    {
      "channel": 4,
      "note": 73,
      "start": 52.4421,
      "duration": 0.0085,
      "velocity": 89,
      "chip": "ym2612"
    },
    {
      "channel": 3,
      "note": 78,
      "start": 52.4687,
      "duration": 0.0087,
      "velocity": 89,
      "chip": "ym2612"
    },
    {
      "channel": 4,
      "note": 73,
      "start": 52.469,
      "duration": 0.0085,
      "velocity": 89,
      "chip": "ym2612"
    },
    {
      "channel": 0,
      "note": 32,
      "start": 52.4966,
      "duration": 0.1054,
      "velocity": 127,
      "chip": "ym2612"
    },
    {
      "channel": 1,
      "note": 60,
      "start": 52.497,
      "duration": 0.2926,
      "velocity": 50,
      "chip": "ym2612"
    },
    {
      "channel": 3,
      "note": 84,
      "start": 52.4988,
      "duration": 0.0054,
      "velocity": 89,
      "chip": "ym2612"
    },
    {
      "channel": 4,
      "note": 79,
      "start": 52.4991,
      "duration": 0.0052,
      "velocity": 89,
      "chip": "ym2612"
    },
    {
      "channel": 5,
      "note": 83,
      "start": 52.5009,
      "duration": 0.104,
      "velocity": 53,
      "chip": "ym2612"
    },
    {
      "channel": 3,
      "note": 84,
      "start": 52.5222,
      "duration": 0.0087,
      "velocity": 89,
      "chip": "ym2612"
    },
    {
      "channel": 4,
      "note": 79,
      "start": 52.5225,
      "duration": 0.0085,
      "velocity": 89,
      "chip": "ym2612"
    },
    {
      "channel": 3,
      "note": 84,
      "start": 52.549,
      "duration": 0.0087,
      "velocity": 89,
      "chip": "ym2612"
    },
    {
      "channel": 4,
      "note": 79,
      "start": 52.5493,
      "duration": 0.0085,
      "velocity": 89,
      "chip": "ym2612"
    },
    {
      "channel": 3,
      "note": 84,
      "start": 52.5758,
      "duration": 0.0087,
      "velocity": 89,
      "chip": "ym2612"
    },
    {
      "channel": 4,
      "note": 79,
      "start": 52.5761,
      "duration": 0.0085,
      "velocity": 89,
      "chip": "ym2612"
    },
    {
      "channel": 0,
      "note": 75,
      "start": 52.604,
      "duration": 0.1052,
      "velocity": 127,
      "chip": "ym2612"
    },
    {
      "channel": 3,
      "note": 84,
      "start": 52.6045,
      "duration": 0.0067,
      "velocity": 89,
      "chip": "ym2612"
    },
    {
      "channel": 4,
      "note": 79,
      "start": 52.6048,
      "duration": 0.0065,
      "velocity": 89,
      "chip": "ym2612"
    },
    {
      "channel": 5,
      "note": 75,
      "start": 52.6066,
      "duration": 0.1046,
      "velocity": 127,
      "chip": "ym2612"
    },
    {
      "channel": 3,
      "note": 84,
      "start": 52.6293,
      "duration": 0.0087,
      "velocity": 89,
      "chip": "ym2612"
    },
    {
      "channel": 4,
      "note": 79,
      "start": 52.6296,
      "duration": 0.0085,
      "velocity": 89,
      "chip": "ym2612"
    },
    {
      "channel": 3,
      "note": 84,
      "start": 52.6561,
      "duration": 0.0087,
      "velocity": 89,
      "chip": "ym2612"
    },
    {
      "channel": 4,
      "note": 79,
      "start": 52.6563,
      "duration": 0.0085,
      "velocity": 89,
      "chip": "ym2612"
    },
    {
      "channel": 3,
      "note": 84,
      "start": 52.6831,
      "duration": 0.0084,
      "velocity": 89,
      "chip": "ym2612"
    },
    {
      "channel": 4,
      "note": 79,
      "start": 52.6834,
      "duration": 0.0083,
      "velocity": 89,
      "chip": "ym2612"
    },
    {
      "channel": 0,
      "note": 75,
      "start": 52.7109,
      "duration": 0.1054,
      "velocity": 127,
      "chip": "ym2612"
    },
    {
      "channel": 5,
      "note": 66,
      "start": 52.7133,
      "duration": 0.2127,
      "velocity": 127,
      "chip": "ym2612"
    },
    {
      "channel": 0,
      "note": 66,
      "start": 52.818,
      "duration": 0.1054,
      "velocity": 127,
      "chip": "ym2612"
    },
    {
      "channel": 1,
      "note": 61,
      "start": 52.8184,
      "duration": 0.2926,
      "velocity": 50,
      "chip": "ym2612"
    },
    {
      "channel": 3,
      "note": 82,
      "start": 52.8187,
      "duration": 0.0067,
      "velocity": 89,
      "chip": "ym2612"
    },
    {
      "channel": 4,
      "note": 77,
      "start": 52.819,
      "duration": 0.0066,
      "velocity": 89,
      "chip": "ym2612"
    },
    {
      "channel": 3,
      "note": 82,
      "start": 52.8436,
      "duration": 0.0087,
      "velocity": 89,
      "chip": "ym2612"
    },
    {
      "channel": 4,
      "note": 77,
      "start": 52.8439,
      "duration": 0.0085,
      "velocity": 89,
      "chip": "ym2612"
    },
    {
      "channel": 3,
      "note": 82,
      "start": 52.8703,
      "duration": 0.0087,
      "velocity": 89,
      "chip": "ym2612"
    },
    {
      "channel": 4,
      "note": 77,
      "start": 52.8706,
      "duration": 0.0085,
      "velocity": 89,
      "chip": "ym2612"
    },
    {
      "channel": 3,
      "note": 82,
      "start": 52.8971,
      "duration": 0.0087,
      "velocity": 89,
      "chip": "ym2612"
    },
    {
      "channel": 4,
      "note": 77,
      "start": 52.8974,
      "duration": 0.0085,
      "velocity": 89,
      "chip": "ym2612"
    },
    {
      "channel": 0,
      "note": 67,
      "start": 52.9251,
      "duration": 0.1054,
      "velocity": 112,
      "chip": "ym2612"
    },
    {
      "channel": 3,
      "note": 82,
      "start": 52.9256,
      "duration": 0.0069,
      "velocity": 89,
      "chip": "ym2612"
    },
    {
      "channel": 4,
      "note": 77,
      "start": 52.9259,
      "duration": 0.0071,
      "velocity": 89,
      "chip": "ym2612"
    },
    {
      "channel": 5,
      "note": 83,
      "start": 52.9277,
      "duration": 0.1049,
      "velocity": 53,
      "chip": "ym2612"
    },
    {
      "channel": 3,
      "note": 82,
      "start": 52.9507,
      "duration": 0.0087,
      "velocity": 89,
      "chip": "ym2612"
    },
    {
      "channel": 4,
      "note": 77,
      "start": 52.951,
      "duration": 0.0085,
      "velocity": 89,
      "chip": "ym2612"
    },
    {
      "channel": 3,
      "note": 82,
      "start": 52.9775,
      "duration": 0.0087,
      "velocity": 89,
      "chip": "ym2612"
    },
    {
      "channel": 4,
      "note": 77,
      "start": 52.9778,
      "duration": 0.0085,
      "velocity": 89,
      "chip": "ym2612"
    },
    {
      "channel": 3,
      "note": 82,
      "start": 53.0043,
      "duration": 0.0089,
      "velocity": 89,
      "chip": "ym2612"
    },
    {
      "channel": 4,
      "note": 77,
      "start": 53.0046,
      "duration": 0.0088,
      "velocity": 89,
      "chip": "ym2612"
    },
    {
      "channel": 0,
      "note": 75,
      "start": 53.0323,
      "duration": 0.1054,
      "velocity": 127,
      "chip": "ym2612"
    },
    {
      "channel": 5,
      "note": 75,
      "start": 53.0347,
      "duration": 0.1042,
      "velocity": 127,
      "chip": "ym2612"
    },
    {
      "channel": 0,
      "note": 75,
      "start": 53.138,
      "duration": 0.1069,
      "velocity": 127,
      "chip": "ym2612"
    },
    {
      "channel": 1,
      "note": 58,
      "start": 53.1383,
      "duration": 0.1869,
      "velocity": 50,
      "chip": "ym2612"
    },
    {
      "channel": 3,
      "note": 78,
      "start": 53.1387,
      "duration": 0.0082,
      "velocity": 89,
      "chip": "ym2612"
    },
    {
      "channel": 4,
      "note": 73,
      "start": 53.1389,
      "duration": 0.0081,
      "velocity": 89,
      "chip": "ym2612"
    },
    {
      "channel": 5,
      "note": 66,
      "start": 53.1407,
      "duration": 0.2159,
      "velocity": 127,
      "chip": "ym2612"
    },
    {
      "channel": 3,
      "note": 78,
      "start": 53.165,
      "duration": 0.0087,
      "velocity": 89,
      "chip": "ym2612"
    },
    {
      "channel": 4,
      "note": 73,
      "start": 53.1653,
      "duration": 0.0085,
      "velocity": 89,
      "chip": "ym2612"
    },
    {
      "channel": 3,
      "note": 78,
      "start": 53.1917,
      "duration": 0.0087,
      "velocity": 89,
      "chip": "ym2612"
    },
    {
      "channel": 4,
      "note": 73,
      "start": 53.192,
      "duration": 0.0085,
      "velocity": 89,
      "chip": "ym2612"
    },
    {
      "channel": 3,
      "note": 78,
      "start": 53.2185,
      "duration": 0.0087,
      "velocity": 89,
      "chip": "ym2612"
    },
    {
      "channel": 4,
      "note": 73,
      "start": 53.2188,
      "duration": 0.0085,
      "velocity": 89,
      "chip": "ym2612"
    },
    {
      "channel": 0,
      "note": 66,
      "start": 53.2466,
      "duration": 0.1054,
      "velocity": 127,
      "chip": "ym2612"
    },
    {
      "channel": 3,
      "note": 78,
      "start": 53.2471,
      "duration": 0.0069,
      "velocity": 89,
      "chip": "ym2612"
    },
    {
      "channel": 4,
      "note": 73,
      "start": 53.2474,
      "duration": 0.0068,
      "velocity": 89,
      "chip": "ym2612"
    },
    {
      "channel": 3,
      "note": 78,
      "start": 53.2721,
      "duration": 0.0087,
      "velocity": 89,
      "chip": "ym2612"
    },
    {
      "channel": 4,
      "note": 73,
      "start": 53.2724,
      "duration": 0.0085,
      "velocity": 89,
      "chip": "ym2612"
    },
    {
      "channel": 3,
      "note": 78,
      "start": 53.2989,
      "duration": 0.0087,
      "velocity": 89,
      "chip": "ym2612"
    },
    {
      "channel": 4,
      "note": 73,
      "start": 53.2992,
      "duration": 0.0085,
      "velocity": 89,
      "chip": "ym2612"
    },
    {
      "channel": 3,
      "note": 78,
      "start": 53.3257,
      "duration": 0.0087,
      "velocity": 89,
      "chip": "ym2612"
    },
    {
      "channel": 4,
      "note": 73,
      "start": 53.326,
      "duration": 0.0085,
      "velocity": 89,
      "chip": "ym2612"
    },
    {
      "channel": 0,
      "note": 32,
      "start": 53.354,
      "duration": 0.1052,
      "velocity": 107,
      "chip": "ym2612"
    },
    {
      "channel": 1,
      "note": 58,
      "start": 53.3543,
      "duration": 0.2923,
      "velocity": 50,
      "chip": "ym2612"
    },
    {
      "channel": 2,
      "note": 92,
      "start": 53.356,
      "duration": 0.0765,
      "velocity": 105,
      "chip": "ym2612"
    },
    {
      "channel": 3,
      "note": 82,
      "start": 53.3563,
      "duration": 0.0049,
      "velocity": 89,
      "chip": "ym2612"
    },
    {
      "channel": 4,
      "note": 77,
      "start": 53.3566,
      "duration": 0.0048,
      "velocity": 89,
      "chip": "ym2612"
    },
    {
      "channel": 5,
      "note": 83,
      "start": 53.3584,
      "duration": 0.1035,
      "velocity": 53,
      "chip": "ym2612"
    },
    {
      "channel": 3,
      "note": 82,
      "start": 53.3793,
      "duration": 0.0087,
      "velocity": 89,
      "chip": "ym2612"
    },
    {
      "channel": 4,
      "note": 77,
      "start": 53.3796,
      "duration": 0.0085,
      "velocity": 89,
      "chip": "ym2612"
    },
    {
      "channel": 3,
      "note": 82,
      "start": 53.4061,
      "duration": 0.0087,
      "velocity": 89,
      "chip": "ym2612"
    },
    {
      "channel": 4,
      "note": 77,
      "start": 53.4064,
      "duration": 0.0085,
      "velocity": 89,
      "chip": "ym2612"
    },
    {
      "channel": 3,
      "note": 82,
      "start": 53.4332,
      "duration": 0.0084,
      "velocity": 89,
      "chip": "ym2612"
    },
    {
      "channel": 4,
      "note": 77,
      "start": 53.4335,
      "duration": 0.0083,
      "velocity": 89,
      "chip": "ym2612"
    },
    {
      "channel": 0,
      "note": 75,
      "start": 53.4608,
      "duration": 0.1054,
      "velocity": 127,
      "chip": "ym2612"
    },
    {
      "channel": 2,
      "note": 92,
      "start": 53.4612,
      "duration": 0.0784,
      "velocity": 105,
      "chip": "ym2612"
    },
    {
      "channel": 3,
      "note": 82,
      "start": 53.4615,
      "duration": 0.0068,
      "velocity": 89,
      "chip": "ym2612"
    },
    {
      "channel": 4,
      "note": 77,
      "start": 53.4618,
      "duration": 0.0066,
      "velocity": 89,
      "chip": "ym2612"
    },
    {
      "channel": 5,
      "note": 75,
      "start": 53.4639,
      "duration": 0.1032,
      "velocity": 127,
      "chip": "ym2612"
    },
    {
      "channel": 3,
      "note": 82,
      "start": 53.4864,
      "duration": 0.0087,
      "velocity": 89,
      "chip": "ym2612"
    },
    {
      "channel": 4,
      "note": 77,
      "start": 53.4867,
      "duration": 0.0085,
      "velocity": 89,
      "chip": "ym2612"
    },
    {
      "channel": 3,
      "note": 82,
      "start": 53.5134,
      "duration": 0.0084,
      "velocity": 89,
      "chip": "ym2612"
    },
    {
      "channel": 4,
      "note": 77,
      "start": 53.5137,
      "duration": 0.0083,
      "velocity": 89,
      "chip": "ym2612"
    },
    {
      "channel": 3,
      "note": 82,
      "start": 53.54,
      "duration": 0.0087,
      "velocity": 89,
      "chip": "ym2612"
    },
    {
      "channel": 4,
      "note": 77,
      "start": 53.5403,
      "duration": 0.0085,
      "velocity": 89,
      "chip": "ym2612"
    },
    {
      "channel": 0,
      "note": 75,
      "start": 53.5665,
      "duration": 0.1069,
      "velocity": 127,
      "chip": "ym2612"
    },
    {
      "channel": 2,
      "note": 75,
      "start": 53.5669,
      "duration": 0.187,
      "velocity": 105,
      "chip": "ym2612"
    },
    {
      "channel": 5,
      "note": 66,
      "start": 53.5688,
      "duration": 0.2147,
      "velocity": 127,
      "chip": "ym2612"
    },
    {
      "channel": 0,
      "note": 32,
      "start": 53.6751,
      "duration": 0.1054,
      "velocity": 107,
      "chip": "ym2612"
    },
    {
      "channel": 1,
      "note": 54,
      "start": 53.6755,
      "duration": 0.2926,
      "velocity": 50,
      "chip": "ym2612"
    },
    {
      "channel": 3,
      "note": 78,
      "start": 53.6758,
      "duration": 0.0068,
      "velocity": 89,
      "chip": "ym2612"
    },
    {
      "channel": 4,
      "note": 73,
      "start": 53.6761,
      "duration": 0.007,
      "velocity": 89,
      "chip": "ym2612"
    },
    {
      "channel": 3,
      "note": 78,
      "start": 53.7007,
      "duration": 0.0087,
      "velocity": 89,
      "chip": "ym2612"
    },
    {
      "channel": 4,
      "note": 73,
      "start": 53.701,
      "duration": 0.0085,
      "velocity": 89,
      "chip": "ym2612"
    },
    {
      "channel": 3,
      "note": 78,
      "start": 53.7275,
      "duration": 0.0087,
      "velocity": 89,
      "chip": "ym2612"
    },
    {
      "channel": 4,
      "note": 73,
      "start": 53.7278,
      "duration": 0.0085,
      "velocity": 89,
      "chip": "ym2612"
    },
    {
      "channel": 3,
      "note": 78,
      "start": 53.7544,
      "duration": 0.0089,
      "velocity": 89,
      "chip": "ym2612"
    },
    {
      "channel": 4,
      "note": 73,
      "start": 53.7546,
      "duration": 0.0088,
      "velocity": 89,
      "chip": "ym2612"
    },
    {
      "channel": 0,
      "note": 67,
      "start": 53.7822,
      "duration": 0.1054,
      "velocity": 112,
      "chip": "ym2612"
    },
    {
      "channel": 2,
      "note": 89,
      "start": 53.7826,
      "duration": 0.0784,
      "velocity": 105,
      "chip": "ym2612"
    },
    {
      "channel": 3,
      "note": 78,
      "start": 53.7832,
      "duration": 0.0065,
      "velocity": 89,
      "chip": "ym2612"
    },
    {
      "channel": 4,
      "note": 73,
      "start": 53.7835,
      "duration": 0.0063,
      "velocity": 89,
      "chip": "ym2612"
    },
    {
      "channel": 5,
      "note": 83,
      "start": 53.7853,
      "duration": 0.1047,
      "velocity": 53,
      "chip": "ym2612"
    },
    {
      "channel": 3,
      "note": 78,
      "start": 53.8078,
      "duration": 0.0087,
      "velocity": 89,
      "chip": "ym2612"
    },
    {
      "channel": 4,
      "note": 73,
      "start": 53.8081,
      "duration": 0.0085,
      "velocity": 89,
      "chip": "ym2612"
    },
    {
      "channel": 3,
      "note": 78,
      "start": 53.8346,
      "duration": 0.0087,
      "velocity": 89,
      "chip": "ym2612"
    },
    {
      "channel": 4,
      "note": 73,
      "start": 53.8349,
      "duration": 0.0086,
      "velocity": 89,
      "chip": "ym2612"
    },
    {
      "channel": 3,
      "note": 78,
      "start": 53.8614,
      "duration": 0.0087,
      "velocity": 89,
      "chip": "ym2612"
    },
    {
      "channel": 4,
      "note": 73,
      "start": 53.8617,
      "duration": 0.0085,
      "velocity": 89,
      "chip": "ym2612"
    },
    {
      "channel": 0,
      "note": 32,
      "start": 53.8894,
      "duration": 0.1054,
      "velocity": 107,
      "chip": "ym2612"
    },
    {
      "channel": 2,
      "note": 89,
      "start": 53.8898,
      "duration": 0.0785,
      "velocity": 105,
      "chip": "ym2612"
    },
    {
      "channel": 5,
      "note": 75,
      "start": 53.8917,
      "duration": 0.106,
      "velocity": 127,
      "chip": "ym2612"
    },
    {
      "channel": 0,
      "note": 32,
      "start": 53.9965,
      "duration": 0.1054,
      "velocity": 107,
      "chip": "ym2612"
    },
    {
      "channel": 1,
      "note": 53,
      "start": 53.9969,
      "duration": 0.1854,
      "velocity": 50,
      "chip": "ym2612"
    },
    {
      "channel": 2,
      "note": 73,
      "start": 53.9972,
      "duration": 0.1853,
      "velocity": 105,
      "chip": "ym2612"
    },
    {
      "channel": 3,
      "note": 77,
      "start": 53.9974,
      "duration": 0.0066,
      "velocity": 89,
      "chip": "ym2612"
    },
    {
      "channel": 4,
      "note": 72,
      "start": 53.9977,
      "duration": 0.0065,
      "velocity": 89,
      "chip": "ym2612"
    },
    {
      "channel": 5,
      "note": 66,
      "start": 53.9995,
      "duration": 0.2141,
      "velocity": 127,
      "chip": "ym2612"
    },
    {
      "channel": 3,
      "note": 77,
      "start": 54.0221,
      "duration": 0.0087,
      "velocity": 89,
      "chip": "ym2612"
    },
    {
      "channel": 4,
      "note": 72,
      "start": 54.0224,
      "duration": 0.0085,
      "velocity": 89,
      "chip": "ym2612"
    },
    {
      "channel": 3,
      "note": 77,
      "start": 54.0489,
      "duration": 0.0087,
      "velocity": 89,
      "chip": "ym2612"
    },
    {
      "channel": 4,
      "note": 72,
      "start": 54.0492,
      "duration": 0.0085,
      "velocity": 89,
      "chip": "ym2612"
    },
    {
      "channel": 3,
      "note": 77,
      "start": 54.0757,
      "duration": 0.0087,
      "velocity": 89,
      "chip": "ym2612"
    },
    {
      "channel": 4,
      "note": 72,
      "start": 54.076,
      "duration": 0.0085,
      "velocity": 89,
      "chip": "ym2612"
    },
    {
      "channel": 0,
      "note": 67,
      "start": 54.1039,
      "duration": 0.1052,
      "velocity": 112,
      "chip": "ym2612"
    },
    {
      "channel": 3,
      "note": 77,
      "start": 54.1044,
      "duration": 0.0067,
      "velocity": 89,
      "chip": "ym2612"
    },
    {
      "channel": 4,
      "note": 72,
      "start": 54.1047,
      "duration": 0.0065,
      "velocity": 89,
      "chip": "ym2612"
    },
    {
      "channel": 3,
      "note": 77,
      "start": 54.1292,
      "duration": 0.0087,
      "velocity": 89,
      "chip": "ym2612"
    },
    {
      "channel": 4,
      "note": 72,
      "start": 54.1295,
      "duration": 0.0085,
      "velocity": 89,
      "chip": "ym2612"
    },
    {
      "channel": 3,
      "note": 77,
      "start": 54.156,
      "duration": 0.0087,
      "velocity": 89,
      "chip": "ym2612"
    },
    {
      "channel": 4,
      "note": 72,
      "start": 54.1563,
      "duration": 0.0085,
      "velocity": 89,
      "chip": "ym2612"
    },
    {
      "channel": 3,
      "note": 77,
      "start": 54.1831,
      "duration": 0.0084,
      "velocity": 89,
      "chip": "ym2612"
    },
    {
      "channel": 4,
      "note": 72,
      "start": 54.1834,
      "duration": 0.0083,
      "velocity": 89,
      "chip": "ym2612"
    },
    {
      "channel": 0,
      "note": 32,
      "start": 54.2108,
      "duration": 0.1054,
      "velocity": 127,
      "chip": "ym2612"
    },
    {
      "channel": 1,
      "note": 58,
      "start": 54.2112,
      "duration": 0.3015,
      "velocity": 50,
      "chip": "ym2612"
    },
    {
      "channel": 3,
      "note": 82,
      "start": 54.2132,
      "duration": 0.0051,
      "velocity": 89,
      "chip": "ym2612"
    },
    {
      "channel": 4,
      "note": 77,
      "start": 54.2135,
      "duration": 0.0049,
      "velocity": 89,
      "chip": "ym2612"
    },
    {
      "channel": 5,
      "note": 83,
      "start": 54.2153,
      "duration": 0.1035,
      "velocity": 53,
      "chip": "ym2612"
    },
    {
      "channel": 3,
      "note": 82,
      "start": 54.2364,
      "duration": 0.0087,
      "velocity": 89,
      "chip": "ym2612"
    },
    {
      "channel": 4,
      "note": 77,
      "start": 54.2367,
      "duration": 0.0085,
      "velocity": 89,
      "chip": "ym2612"
    },
    {
      "channel": 3,
      "note": 82,
      "start": 54.2634,
      "duration": 0.0084,
      "velocity": 89,
      "chip": "ym2612"
    },
    {
      "channel": 4,
      "note": 77,
      "start": 54.2637,
      "duration": 0.0083,
      "velocity": 89,
      "chip": "ym2612"
    },
    {
      "channel": 3,
      "note": 82,
      "start": 54.29,
      "duration": 0.0087,
      "velocity": 89,
      "chip": "ym2612"
    },
    {
      "channel": 4,
      "note": 77,
      "start": 54.2903,
      "duration": 0.0085,
      "velocity": 89,
      "chip": "ym2612"
    },
    {
      "channel": 0,
      "note": 75,
      "start": 54.318,
      "duration": 0.1054,
      "velocity": 127,
      "chip": "ym2612"
    },
    {
      "channel": 3,
      "note": 82,
      "start": 54.3185,
      "duration": 0.0069,
      "velocity": 89,
      "chip": "ym2612"
    },
    {
      "channel": 4,
      "note": 77,
      "start": 54.3188,
      "duration": 0.0068,
      "velocity": 89,
      "chip": "ym2612"
    },
    {
      "channel": 5,
      "note": 75,
      "start": 54.3206,
      "duration": 0.1048,
      "velocity": 127,
      "chip": "ym2612"
    },
    {
      "channel": 3,
      "note": 82,
      "start": 54.3435,
      "duration": 0.0086,
      "velocity": 89,
      "chip": "ym2612"
    },
    {
      "channel": 4,
      "note": 77,
      "start": 54.3438,
      "duration": 0.0085,
      "velocity": 89,
      "chip": "ym2612"
    },
    {
      "channel": 3,
      "note": 82,
      "start": 54.3702,
      "duration": 0.0087,
      "velocity": 89,
      "chip": "ym2612"
    },
    {
      "channel": 4,
      "note": 77,
      "start": 54.3705,
      "duration": 0.0085,
      "velocity": 89,
      "chip": "ym2612"
    },
    {
      "channel": 3,
      "note": 82,
      "start": 54.397,
      "duration": 0.0087,
      "velocity": 89,
      "chip": "ym2612"
    },
    {
      "channel": 4,
      "note": 77,
      "start": 54.3973,
      "duration": 0.0085,
      "velocity": 89,
      "chip": "ym2612"
    },
    {
      "channel": 0,
      "note": 75,
      "start": 54.4251,
      "duration": 0.1144,
      "velocity": 127,
      "chip": "ym2612"
    },
    {
      "channel": 5,
      "note": 66,
      "start": 54.4272,
      "duration": 0.2219,
      "velocity": 127,
      "chip": "ym2612"
    },
    {
      "channel": 0,
      "note": 66,
      "start": 54.5411,
      "duration": 0.1054,
      "velocity": 127,
      "chip": "ym2612"
    },
    {
      "channel": 1,
      "note": 58,
      "start": 54.5415,
      "duration": 0.2926,
      "velocity": 50,
      "chip": "ym2612"
    },
    {
      "channel": 3,
      "note": 78,
      "start": 54.5418,
      "duration": 0.0067,
      "velocity": 89,
      "chip": "ym2612"
    },
    {
      "channel": 4,
      "note": 73,
      "start": 54.5421,
      "duration": 0.0066,
      "velocity": 89,
      "chip": "ym2612"
    },
    {
      "channel": 3,
      "note": 78,
      "start": 54.5666,
      "duration": 0.0087,
      "velocity": 89,
      "chip": "ym2612"
    },
    {
      "channel": 4,
      "note": 73,
      "start": 54.567,
      "duration": 0.0085,
      "velocity": 89,
      "chip": "ym2612"
    },
    {
      "channel": 3,
      "note": 78,
      "start": 54.5935,
      "duration": 0.0086,
      "velocity": 89,
      "chip": "ym2612"
    },
    {
      "channel": 4,
      "note": 73,
      "start": 54.5938,
      "duration": 0.0084,
      "velocity": 89,
      "chip": "ym2612"
    },
    {
      "channel": 3,
      "note": 78,
      "start": 54.6202,
      "duration": 0.0087,
      "velocity": 89,
      "chip": "ym2612"
    },
    {
      "channel": 4,
      "note": 73,
      "start": 54.6205,
      "duration": 0.0085,
      "velocity": 89,
      "chip": "ym2612"
    },
    {
      "channel": 0,
      "note": 67,
      "start": 54.6483,
      "duration": 0.1054,
      "velocity": 112,
      "chip": "ym2612"
    },
    {
      "channel": 3,
      "note": 78,
      "start": 54.6488,
      "duration": 0.0069,
      "velocity": 89,
      "chip": "ym2612"
    },
    {
      "channel": 4,
      "note": 73,
      "start": 54.649,
      "duration": 0.0068,
      "velocity": 89,
      "chip": "ym2612"
    },
    {
      "channel": 5,
      "note": 83,
      "start": 54.6508,
      "duration": 0.1049,
      "velocity": 53,
      "chip": "ym2612"
    },
    {
      "channel": 3,
      "note": 78,
      "start": 54.6738,
      "duration": 0.0087,
      "velocity": 89,
      "chip": "ym2612"
    },
    {
      "channel": 4,
      "note": 73,
      "start": 54.6741,
      "duration": 0.0085,
      "velocity": 89,
      "chip": "ym2612"
    },
    {
      "channel": 3,
      "note": 78,
      "start": 54.7006,
      "duration": 0.0087,
      "velocity": 89,
      "chip": "ym2612"
    },
    {
      "channel": 4,
      "note": 73,
      "start": 54.7009,
      "duration": 0.0085,
      "velocity": 89,
      "chip": "ym2612"
    },
    {
      "channel": 3,
      "note": 78,
      "start": 54.7274,
      "duration": 0.0087,
      "velocity": 89,
      "chip": "ym2612"
    },
    {
      "channel": 4,
      "note": 73,
      "start": 54.7276,
      "duration": 0.0085,
      "velocity": 89,
      "chip": "ym2612"
    },
    {
      "channel": 0,
      "note": 75,
      "start": 54.7554,
      "duration": 0.1054,
      "velocity": 127,
      "chip": "ym2612"
    },
    {
      "channel": 5,
      "note": 75,
      "start": 54.7576,
      "duration": 0.1045,
      "velocity": 127,
      "chip": "ym2612"
    },
    {
      "channel": 0,
      "note": 75,
      "start": 54.8611,
      "duration": 0.1069,
      "velocity": 127,
      "chip": "ym2612"
    },
    {
      "channel": 1,
      "note": 61,
      "start": 54.8614,
      "duration": 0.1869,
      "velocity": 50,
      "chip": "ym2612"
    },
    {
      "channel": 3,
      "note": 77,
      "start": 54.8618,
      "duration": 0.0082,
      "velocity": 89,
      "chip": "ym2612"
    },
    {
      "channel": 4,
      "note": 72,
      "start": 54.862,
      "duration": 0.0081,
      "velocity": 89,
      "chip": "ym2612"
    },
    {
      "channel": 5,
      "note": 66,
      "start": 54.8641,
      "duration": 0.2214,
      "velocity": 127,
      "chip": "ym2612"
    },
    {
      "channel": 3,
      "note": 77,
      "start": 54.8881,
      "duration": 0.0087,
      "velocity": 89,
      "chip": "ym2612"
    },
    {
      "channel": 4,
      "note": 72,
      "start": 54.8884,
      "duration": 0.0085,
      "velocity": 89,
      "chip": "ym2612"
    },
    {
      "channel": 3,
      "note": 77,
      "start": 54.9149,
      "duration": 0.0087,
      "velocity": 89,
      "chip": "ym2612"
    },
    {
      "channel": 4,
      "note": 72,
      "start": 54.9151,
      "duration": 0.0085,
      "velocity": 89,
      "chip": "ym2612"
    },
    {
      "channel": 3,
      "note": 77,
      "start": 54.9416,
      "duration": 0.0087,
      "velocity": 89,
      "chip": "ym2612"
    },
    {
      "channel": 4,
      "note": 72,
      "start": 54.9419,
      "duration": 0.0085,
      "velocity": 89,
      "chip": "ym2612"
    },
    {
      "channel": 0,
      "note": 66,
      "start": 54.9697,
      "duration": 0.1054,
      "velocity": 127,
      "chip": "ym2612"
    },
    {
      "channel": 3,
      "note": 77,
      "start": 54.9702,
      "duration": 0.0069,
      "velocity": 89,
      "chip": "ym2612"
    },
    {
      "channel": 4,
      "note": 72,
      "start": 54.9705,
      "duration": 0.0068,
      "velocity": 89,
      "chip": "ym2612"
    },
    {
      "channel": 3,
      "note": 77,
      "start": 54.9952,
      "duration": 0.0087,
      "velocity": 89,
      "chip": "ym2612"
    },
    {
      "channel": 4,
      "note": 72,
      "start": 54.9955,
      "duration": 0.0085,
      "velocity": 89,
      "chip": "ym2612"
    },
    {
      "channel": 3,
      "note": 77,
      "start": 55.022,
      "duration": 0.0087,
      "velocity": 89,
      "chip": "ym2612"
    },
    {
      "channel": 4,
      "note": 72,
      "start": 55.0223,
      "duration": 0.0085,
      "velocity": 89,
      "chip": "ym2612"
    },
    {
      "channel": 3,
      "note": 77,
      "start": 55.0488,
      "duration": 0.0087,
      "velocity": 89,
      "chip": "ym2612"
    },
    {
      "channel": 4,
      "note": 72,
      "start": 55.0491,
      "duration": 0.0085,
      "velocity": 89,
      "chip": "ym2612"
    },
    {
      "channel": 0,
      "note": 32,
      "start": 55.0768,
      "duration": 0.1054,
      "velocity": 107,
      "chip": "ym2612"
    },
    {
      "channel": 1,
      "note": 60,
      "start": 55.0799,
      "duration": 0.2898,
      "velocity": 50,
      "chip": "ym2612"
    },
    {
      "channel": 2,
      "note": 48,
      "start": 55.0816,
      "duration": 0.074,
      "velocity": 127,
      "chip": "ym2612"
    },
    {
      "channel": 3,
      "note": 84,
      "start": 55.0837,
      "duration": 0.004,
      "velocity": 89,
      "chip": "ym2612"
    },
    {
      "channel": 4,
      "note": 79,
      "start": 55.0854,
      "duration": 0.0024,
      "velocity": 89,
      "chip": "ym2612"
    },
    {
      "channel": 5,
      "note": 83,
      "start": 55.0872,
      "duration": 0.098,
      "velocity": 53,
      "chip": "ym2612"
    },
    {
      "channel": 3,
      "note": 84,
      "start": 55.1024,
      "duration": 0.0087,
      "velocity": 89,
      "chip": "ym2612"
    },
    {
      "channel": 4,
      "note": 79,
      "start": 55.1027,
      "duration": 0.0085,
      "velocity": 89,
      "chip": "ym2612"
    },
    {
      "channel": 3,
      "note": 84,
      "start": 55.1292,
      "duration": 0.0087,
      "velocity": 89,
      "chip": "ym2612"
    },
    {
      "channel": 4,
      "note": 79,
      "start": 55.1295,
      "duration": 0.0085,
      "velocity": 89,
      "chip": "ym2612"
    },
    {
      "channel": 3,
      "note": 84,
      "start": 55.156,
      "duration": 0.0087,
      "velocity": 89,
      "chip": "ym2612"
    },
    {
      "channel": 4,
      "note": 79,
      "start": 55.1563,
      "duration": 0.0085,
      "velocity": 89,
      "chip": "ym2612"
    },
    {
      "channel": 0,
      "note": 75,
      "start": 55.1842,
      "duration": 0.1052,
      "velocity": 127,
      "chip": "ym2612"
    },
    {
      "channel": 2,
      "note": 48,
      "start": 55.1846,
      "duration": 0.0781,
      "velocity": 127,
      "chip": "ym2612"
    },
    {
      "channel": 3,
      "note": 84,
      "start": 55.1849,
      "duration": 0.0065,
      "velocity": 89,
      "chip": "ym2612"
    },
    {
      "channel": 4,
      "note": 79,
      "start": 55.1852,
      "duration": 0.0063,
      "velocity": 89,
      "chip": "ym2612"
    },
    {
      "channel": 5,
      "note": 75,
      "start": 55.187,
      "duration": 0.1029,
      "velocity": 127,
      "chip": "ym2612"
    },
    {
      "channel": 3,
      "note": 84,
      "start": 55.2095,
      "duration": 0.0087,
      "velocity": 89,
      "chip": "ym2612"
    },
    {
      "channel": 4,
      "note": 79,
      "start": 55.2098,
      "duration": 0.0085,
      "velocity": 89,
      "chip": "ym2612"
    },
    {
      "channel": 3,
      "note": 84,
      "start": 55.2363,
      "duration": 0.0087,
      "velocity": 89,
      "chip": "ym2612"
    },
    {
      "channel": 4,
      "note": 79,
      "start": 55.2366,
      "duration": 0.0085,
      "velocity": 89,
      "chip": "ym2612"
    },
    {
      "channel": 3,
      "note": 84,
      "start": 55.2633,
      "duration": 0.0084,
      "velocity": 89,
      "chip": "ym2612"
    },
    {
      "channel": 4,
      "note": 79,
      "start": 55.2636,
      "duration": 0.0083,
      "velocity": 89,
      "chip": "ym2612"
    },
    {
      "channel": 0,
      "note": 75,
      "start": 55.2896,
      "duration": 0.1069,
      "velocity": 127,
      "chip": "ym2612"
    },
    {
      "channel": 5,
      "note": 66,
      "start": 55.2917,
      "duration": 0.2147,
      "velocity": 127,
      "chip": "ym2612"
    },
    {
      "channel": 0,
      "note": 32,
      "start": 55.3982,
      "duration": 0.1054,
      "velocity": 107,
      "chip": "ym2612"
    },
    {
      "channel": 1,
      "note": 58,
      "start": 55.3986,
      "duration": 0.2926,
      "velocity": 50,
      "chip": "ym2612"
    },
    {
      "channel": 2,
      "note": 46,
      "start": 55.3988,
      "duration": 0.0782,
      "velocity": 127,
      "chip": "ym2612"
    },
    {
      "channel": 3,
      "note": 82,
      "start": 55.3991,
      "duration": 0.0066,
      "velocity": 89,
      "chip": "ym2612"
    },
    {
      "channel": 4,
      "note": 77,
      "start": 55.3993,
      "duration": 0.0066,
      "velocity": 89,
      "chip": "ym2612"
    },
    {
      "channel": 3,
      "note": 82,
      "start": 55.4238,
      "duration": 0.0087,
      "velocity": 89,
      "chip": "ym2612"
    },
    {
      "channel": 4,
      "note": 77,
      "start": 55.4241,
      "duration": 0.0085,
      "velocity": 89,
      "chip": "ym2612"
    },
    {
      "channel": 3,
      "note": 82,
      "start": 55.4507,
      "duration": 0.0086,
      "velocity": 89,
      "chip": "ym2612"
    },
    {
      "channel": 4,
      "note": 77,
      "start": 55.451,
      "duration": 0.0085,
      "velocity": 89,
      "chip": "ym2612"
    },
    {
      "channel": 3,
      "note": 82,
      "start": 55.4775,
      "duration": 0.0087,
      "velocity": 89,
      "chip": "ym2612"
    },
    {
      "channel": 4,
      "note": 77,
      "start": 55.4777,
      "duration": 0.0085,
      "velocity": 89,
      "chip": "ym2612"
    },
    {
      "channel": 0,
      "note": 67,
      "start": 55.5054,
      "duration": 0.1054,
      "velocity": 112,
      "chip": "ym2612"
    },
    {
      "channel": 2,
      "note": 46,
      "start": 55.5057,
      "duration": 0.0784,
      "velocity": 127,
      "chip": "ym2612"
    },
    {
      "channel": 3,
      "note": 82,
      "start": 55.506,
      "duration": 0.007,
      "velocity": 89,
      "chip": "ym2612"
    },
    {
      "channel": 4,
      "note": 77,
      "start": 55.5063,
      "duration": 0.0068,
      "velocity": 89,
      "chip": "ym2612"
    },
    {
      "channel": 5,
      "note": 83,
      "start": 55.5081,
      "duration": 0.105,
      "velocity": 53,
      "chip": "ym2612"
    },
    {
      "channel": 3,
      "note": 82,
      "start": 55.5309,
      "duration": 0.0087,
      "velocity": 89,
      "chip": "ym2612"
    },
    {
      "channel": 4,
      "note": 77,
      "start": 55.5312,
      "duration": 0.0085,
      "velocity": 89,
      "chip": "ym2612"
    },
    {
      "channel": 3,
      "note": 82,
      "start": 55.5577,
      "duration": 0.0087,
      "velocity": 89,
      "chip": "ym2612"
    },
    {
      "channel": 4,
      "note": 77,
      "start": 55.558,
      "duration": 0.0085,
      "velocity": 89,
      "chip": "ym2612"
    },
    {
      "channel": 3,
      "note": 82,
      "start": 55.5845,
      "duration": 0.0088,
      "velocity": 89,
      "chip": "ym2612"
    },
    {
      "channel": 4,
      "note": 77,
      "start": 55.5848,
      "duration": 0.0087,
      "velocity": 89,
      "chip": "ym2612"
    },
    {
      "channel": 0,
      "note": 32,
      "start": 55.6125,
      "duration": 0.1054,
      "velocity": 107,
      "chip": "ym2612"
    },
    {
      "channel": 5,
      "note": 75,
      "start": 55.6149,
      "duration": 0.1059,
      "velocity": 127,
      "chip": "ym2612"
    },
    {
      "channel": 0,
      "note": 32,
      "start": 55.7196,
      "duration": 0.1054,
      "velocity": 107,
      "chip": "ym2612"
    },
    {
      "channel": 1,
      "note": 54,
      "start": 55.72,
      "duration": 0.1854,
      "velocity": 50,
      "chip": "ym2612"
    },
    {
      "channel": 2,
      "note": 42,
      "start": 55.7202,
      "duration": 0.0782,
      "velocity": 127,
      "chip": "ym2612"
    },
    {
      "channel": 3,
      "note": 78,
      "start": 55.7205,
      "duration": 0.0066,
      "velocity": 89,
      "chip": "ym2612"
    },
    {
      "channel": 4,
      "note": 73,
      "start": 55.7207,
      "duration": 0.0066,
      "velocity": 89,
      "chip": "ym2612"
    },
    {
      "channel": 5,
      "note": 66,
      "start": 55.7225,
      "duration": 0.213,
      "velocity": 127,
      "chip": "ym2612"
    },
    {
      "channel": 3,
      "note": 78,
      "start": 55.7452,
      "duration": 0.0087,
      "velocity": 89,
      "chip": "ym2612"
    },
    {
      "channel": 4,
      "note": 73,
      "start": 55.7455,
      "duration": 0.0085,
      "velocity": 89,
      "chip": "ym2612"
    },
    {
      "channel": 3,
      "note": 78,
      "start": 55.772,
      "duration": 0.0087,
      "velocity": 89,
      "chip": "ym2612"
    },
    {
      "channel": 4,
      "note": 73,
      "start": 55.7723,
      "duration": 0.0085,
      "velocity": 89,
      "chip": "ym2612"
    },
    {
      "channel": 3,
      "note": 78,
      "start": 55.7989,
      "duration": 0.0087,
      "velocity": 89,
      "chip": "ym2612"
    },
    {
      "channel": 4,
      "note": 73,
      "start": 55.7992,
      "duration": 0.0085,
      "velocity": 89,
      "chip": "ym2612"
    },
    {
      "channel": 0,
      "note": 67,
      "start": 55.8268,
      "duration": 0.1054,
      "velocity": 112,
      "chip": "ym2612"
    },
    {
      "channel": 2,
      "note": 42,
      "start": 55.8271,
      "duration": 0.0784,
      "velocity": 127,
      "chip": "ym2612"
    },
    {
      "channel": 3,
      "note": 78,
      "start": 55.8274,
      "duration": 0.0068,
      "velocity": 89,
      "chip": "ym2612"
    },
    {
      "channel": 4,
      "note": 73,
      "start": 55.8278,
      "duration": 0.0066,
      "velocity": 89,
      "chip": "ym2612"
    },
    {
      "channel": 3,
      "note": 78,
      "start": 55.8523,
      "duration": 0.0087,
      "velocity": 89,
      "chip": "ym2612"
    },
    {
      "channel": 4,
      "note": 73,
      "start": 55.8526,
      "duration": 0.0085,
      "velocity": 89,
      "chip": "ym2612"
    },
    {
      "channel": 3,
      "note": 78,
      "start": 55.8791,
      "duration": 0.0087,
      "velocity": 89,
      "chip": "ym2612"
    },
    {
      "channel": 4,
      "note": 73,
      "start": 55.8794,
      "duration": 0.0085,
      "velocity": 89,
      "chip": "ym2612"
    },
    {
      "channel": 3,
      "note": 78,
      "start": 55.9059,
      "duration": 0.0087,
      "velocity": 89,
      "chip": "ym2612"
    },
    {
      "channel": 4,
      "note": 73,
      "start": 55.9062,
      "duration": 0.0085,
      "velocity": 89,
      "chip": "ym2612"
    },
    {
      "channel": 0,
      "note": 32,
      "start": 55.9342,
      "duration": 0.1051,
      "velocity": 127,
      "chip": "ym2612"
    },
    {
      "channel": 1,
      "note": 60,
      "start": 55.9346,
      "duration": 0.2923,
      "velocity": 50,
      "chip": "ym2612"
    },
    {
      "channel": 2,
      "note": 48,
      "start": 55.9349,
      "duration": 0.0781,
      "velocity": 127,
      "chip": "ym2612"
    },
    {
      "channel": 3,
      "note": 84,
      "start": 55.9352,
      "duration": 0.0063,
      "velocity": 89,
      "chip": "ym2612"
    },
    {
      "channel": 4,
      "note": 79,
      "start": 55.9355,
      "duration": 0.0061,
      "velocity": 89,
      "chip": "ym2612"
    },
    {
      "channel": 5,
      "note": 83,
      "start": 55.9372,
      "duration": 0.1048,
      "velocity": 53,
      "chip": "ym2612"
    },
    {
      "channel": 3,
      "note": 84,
      "start": 55.9595,
      "duration": 0.0087,
      "velocity": 89,
      "chip": "ym2612"
    },
    {
      "channel": 4,
      "note": 79,
      "start": 55.9598,
      "duration": 0.0085,
      "velocity": 89,
      "chip": "ym2612"
    },
    {
      "channel": 3,
      "note": 84,
      "start": 55.9863,
      "duration": 0.0087,
      "velocity": 89,
      "chip": "ym2612"
    },
    {
      "channel": 4,
      "note": 79,
      "start": 55.9866,
      "duration": 0.0085,
      "velocity": 89,
      "chip": "ym2612"
    },
    {
      "channel": 3,
      "note": 84,
      "start": 56.0134,
      "duration": 0.0084,
      "velocity": 89,
      "chip": "ym2612"
    },
    {
      "channel": 4,
      "note": 79,
      "start": 56.0137,
      "duration": 0.0083,
      "velocity": 89,
      "chip": "ym2612"
    },
    {
      "channel": 0,
      "note": 75,
      "start": 56.041,
      "duration": 0.1054,
      "velocity": 127,
      "chip": "ym2612"
    },
    {
      "channel": 2,
      "note": 48,
      "start": 56.0414,
      "duration": 0.0783,
      "velocity": 127,
      "chip": "ym2612"
    },
    {
      "channel": 3,
      "note": 84,
      "start": 56.0417,
      "duration": 0.0067,
      "velocity": 89,
      "chip": "ym2612"
    },
    {
      "channel": 4,
      "note": 79,
      "start": 56.042,
      "duration": 0.0066,
      "velocity": 89,
      "chip": "ym2612"
    },
    {
      "channel": 5,
      "note": 75,
      "start": 56.0441,
      "duration": 0.1044,
      "velocity": 127,
      "chip": "ym2612"
    },
    {
      "channel": 3,
      "note": 84,
      "start": 56.0666,
      "duration": 0.0087,
      "velocity": 89,
      "chip": "ym2612"
    },
    {
      "channel": 4,
      "note": 79,
      "start": 56.0669,
      "duration": 0.0085,
      "velocity": 89,
      "chip": "ym2612"
    },
    {
      "channel": 3,
      "note": 84,
      "start": 56.0935,
      "duration": 0.0085,
      "velocity": 89,
      "chip": "ym2612"
    },
    {
      "channel": 4,
      "note": 79,
      "start": 56.0938,
      "duration": 0.0083,
      "velocity": 89,
      "chip": "ym2612"
    },
    {
      "channel": 3,
      "note": 84,
      "start": 56.1202,
      "duration": 0.0087,
      "velocity": 89,
      "chip": "ym2612"
    },
    {
      "channel": 4,
      "note": 79,
      "start": 56.1205,
      "duration": 0.0085,
      "velocity": 89,
      "chip": "ym2612"
    },
    {
      "channel": 0,
      "note": 75,
      "start": 56.1482,
      "duration": 0.1054,
      "velocity": 127,
      "chip": "ym2612"
    },
    {
      "channel": 5,
      "note": 66,
      "start": 56.1503,
      "duration": 0.2134,
      "velocity": 127,
      "chip": "ym2612"
    },
    {
      "channel": 0,
      "note": 66,
      "start": 56.2553,
      "duration": 0.1054,
      "velocity": 127,
      "chip": "ym2612"
    },
    {
      "channel": 1,
      "note": 61,
      "start": 56.2557,
      "duration": 0.2926,
      "velocity": 50,
      "chip": "ym2612"
    },
    {
      "channel": 2,
      "note": 46,
      "start": 56.2559,
      "duration": 0.0781,
      "velocity": 127,
      "chip": "ym2612"
    },
    {
      "channel": 3,
      "note": 82,
      "start": 56.2562,
      "duration": 0.0068,
      "velocity": 89,
      "chip": "ym2612"
    },
    {
      "channel": 4,
      "note": 77,
      "start": 56.2564,
      "duration": 0.0067,
      "velocity": 89,
      "chip": "ym2612"
    },
    {
      "channel": 3,
      "note": 82,
      "start": 56.2808,
      "duration": 0.0087,
      "velocity": 89,
      "chip": "ym2612"
    },
    {
      "channel": 4,
      "note": 77,
      "start": 56.2811,
      "duration": 0.0085,
      "velocity": 89,
      "chip": "ym2612"
    },
    {
      "channel": 3,
      "note": 82,
      "start": 56.3076,
      "duration": 0.0087,
      "velocity": 89,
      "chip": "ym2612"
    },
    {
      "channel": 4,
      "note": 77,
      "start": 56.3079,
      "duration": 0.0085,
      "velocity": 89,
      "chip": "ym2612"
    },
    {
      "channel": 3,
      "note": 82,
      "start": 56.3344,
      "duration": 0.0089,
      "velocity": 89,
      "chip": "ym2612"
    },
    {
      "channel": 4,
      "note": 77,
      "start": 56.3347,
      "duration": 0.0087,
      "velocity": 89,
      "chip": "ym2612"
    },
    {
      "channel": 0,
      "note": 67,
      "start": 56.3624,
      "duration": 0.1054,
      "velocity": 112,
      "chip": "ym2612"
    },
    {
      "channel": 2,
      "note": 46,
      "start": 56.3631,
      "duration": 0.0781,
      "velocity": 127,
      "chip": "ym2612"
    },
    {
      "channel": 3,
      "note": 82,
      "start": 56.3634,
      "duration": 0.0065,
      "velocity": 89,
      "chip": "ym2612"
    },
    {
      "channel": 4,
      "note": 77,
      "start": 56.3637,
      "duration": 0.0063,
      "velocity": 89,
      "chip": "ym2612"
    },
    {
      "channel": 5,
      "note": 83,
      "start": 56.3654,
      "duration": 0.1045,
      "velocity": 53,
      "chip": "ym2612"
    },
    {
      "channel": 3,
      "note": 82,
      "start": 56.388,
      "duration": 0.0087,
      "velocity": 89,
      "chip": "ym2612"
    },
    {
      "channel": 4,
      "note": 77,
      "start": 56.3883,
      "duration": 0.0085,
      "velocity": 89,
      "chip": "ym2612"
    },
    {
      "channel": 3,
      "note": 82,
      "start": 56.4148,
      "duration": 0.0087,
      "velocity": 89,
      "chip": "ym2612"
    },
    {
      "channel": 4,
      "note": 77,
      "start": 56.4151,
      "duration": 0.0085,
      "velocity": 89,
      "chip": "ym2612"
    },
    {
      "channel": 3,
      "note": 82,
      "start": 56.4416,
      "duration": 0.0087,
      "velocity": 89,
      "chip": "ym2612"
    },
    {
      "channel": 4,
      "note": 77,
      "start": 56.4419,
      "duration": 0.0086,
      "velocity": 89,
      "chip": "ym2612"
    },
    {
      "channel": 0,
      "note": 75,
      "start": 56.4696,
      "duration": 0.1054,
      "velocity": 127,
      "chip": "ym2612"
    },
    {
      "channel": 5,
      "note": 75,
      "start": 56.4717,
      "duration": 0.1047,
      "velocity": 127,
      "chip": "ym2612"
    },
    {
      "channel": 0,
      "note": 75,
      "start": 56.5752,
      "duration": 0.1069,
      "velocity": 127,
      "chip": "ym2612"
    },
    {
      "channel": 1,
      "note": 58,
      "start": 56.5756,
      "duration": 0.1958,
      "velocity": 50,
      "chip": "ym2612"
    },
    {
      "channel": 2,
      "note": 42,
      "start": 56.5759,
      "duration": 0.0796,
      "velocity": 127,
      "chip": "ym2612"
    },
    {
      "channel": 3,
      "note": 78,
      "start": 56.5761,
      "duration": 0.008,
      "velocity": 89,
      "chip": "ym2612"
    },
    {
      "channel": 4,
      "note": 73,
      "start": 56.5763,
      "duration": 0.0079,
      "velocity": 89,
      "chip": "ym2612"
    },
    {
      "channel": 5,
      "note": 66,
      "start": 56.5782,
      "duration": 0.2231,
      "velocity": 127,
      "chip": "ym2612"
    },
    {
      "channel": 3,
      "note": 78,
      "start": 56.6022,
      "duration": 0.0087,
      "velocity": 89,
      "chip": "ym2612"
    },
    {
      "channel": 4,
      "note": 73,
      "start": 56.6025,
      "duration": 0.0085,
      "velocity": 89,
      "chip": "ym2612"
    },
    {
      "channel": 3,
      "note": 78,
      "start": 56.629,
      "duration": 0.0087,
      "velocity": 89,
      "chip": "ym2612"
    },
    {
      "channel": 4,
      "note": 73,
      "start": 56.6293,
      "duration": 0.0085,
      "velocity": 89,
      "chip": "ym2612"
    },
    {
      "channel": 3,
      "note": 78,
      "start": 56.6559,
      "duration": 0.0087,
      "velocity": 89,
      "chip": "ym2612"
    },
    {
      "channel": 4,
      "note": 73,
      "start": 56.6561,
      "duration": 0.0085,
      "velocity": 89,
      "chip": "ym2612"
    },
    {
      "channel": 0,
      "note": 66,
      "start": 56.6841,
      "duration": 0.1141,
      "velocity": 127,
      "chip": "ym2612"
    },
    {
      "channel": 2,
      "note": 42,
      "start": 56.6845,
      "duration": 0.087,
      "velocity": 127,
      "chip": "ym2612"
    },
    {
      "channel": 3,
      "note": 78,
      "start": 56.6848,
      "duration": 0.0064,
      "velocity": 89,
      "chip": "ym2612"
    },
    {
      "channel": 4,
      "note": 73,
      "start": 56.6851,
      "duration": 0.0063,
      "velocity": 89,
      "chip": "ym2612"
    },
    {
      "channel": 3,
      "note": 78,
      "start": 56.7094,
      "duration": 0.0176,
      "velocity": 89,
      "chip": "ym2612"
    },
    {
      "channel": 4,
      "note": 73,
      "start": 56.7097,
      "duration": 0.0175,
      "velocity": 89,
      "chip": "ym2612"
    },
    {
      "channel": 3,
      "note": 78,
      "start": 56.7451,
      "duration": 0.0087,
      "velocity": 89,
      "chip": "ym2612"
    },
    {
      "channel": 4,
      "note": 73,
      "start": 56.7454,
      "duration": 0.0085,
      "velocity": 89,
      "chip": "ym2612"
    },
    {
      "channel": 3,
      "note": 78,
      "start": 56.772,
      "duration": 0.0087,
      "velocity": 89,
      "chip": "ym2612"
    },
    {
      "channel": 4,
      "note": 73,
      "start": 56.7722,
      "duration": 0.0085,
      "velocity": 89,
      "chip": "ym2612"
    },
    {
      "channel": 0,
      "note": 32,
      "start": 56.7999,
      "duration": 0.1054,
      "velocity": 107,
      "chip": "ym2612"
    },
    {
      "channel": 1,
      "note": 58,
      "start": 56.8003,
      "duration": 0.2927,
      "velocity": 50,
      "chip": "ym2612"
    },
    {
      "channel": 2,
      "note": 46,
      "start": 56.8006,
      "duration": 0.0781,
      "velocity": 127,
      "chip": "ym2612"
    },
    {
      "channel": 3,
      "note": 82,
      "start": 56.8009,
      "duration": 0.0065,
      "velocity": 89,
      "chip": "ym2612"
    },
    {
      "channel": 4,
      "note": 77,
      "start": 56.8012,
      "duration": 0.0063,
      "velocity": 89,
      "chip": "ym2612"
    },
    {
      "channel": 5,
      "note": 83,
      "start": 56.8033,
      "duration": 0.1048,
      "velocity": 53,
      "chip": "ym2612"
    },
    {
      "channel": 3,
      "note": 82,
      "start": 56.8255,
      "duration": 0.0087,
      "velocity": 89,
      "chip": "ym2612"
    },
    {
      "channel": 4,
      "note": 77,
      "start": 56.8258,
      "duration": 0.0085,
      "velocity": 89,
      "chip": "ym2612"
    },
    {
      "channel": 3,
      "note": 82,
      "start": 56.8523,
      "duration": 0.0087,
      "velocity": 89,
      "chip": "ym2612"
    },
    {
      "channel": 4,
      "note": 77,
      "start": 56.8526,
      "duration": 0.0085,
      "velocity": 89,
      "chip": "ym2612"
    },
    {
      "channel": 3,
      "note": 82,
      "start": 56.8791,
      "duration": 0.0087,
      "velocity": 89,
      "chip": "ym2612"
    },
    {
      "channel": 4,
      "note": 77,
      "start": 56.8794,
      "duration": 0.0085,
      "velocity": 89,
      "chip": "ym2612"
    },
    {
      "channel": 0,
      "note": 75,
      "start": 56.9071,
      "duration": 0.1054,
      "velocity": 127,
      "chip": "ym2612"
    },
    {
      "channel": 2,
      "note": 46,
      "start": 56.9074,
      "duration": 0.0784,
      "velocity": 127,
      "chip": "ym2612"
    },
    {
      "channel": 3,
      "note": 82,
      "start": 56.9077,
      "duration": 0.0067,
      "velocity": 89,
      "chip": "ym2612"
    },
    {
      "channel": 4,
      "note": 77,
      "start": 56.908,
      "duration": 0.0066,
      "velocity": 89,
      "chip": "ym2612"
    },
    {
      "channel": 5,
      "note": 75,
      "start": 56.9099,
      "duration": 0.1034,
      "velocity": 127,
      "chip": "ym2612"
    },
    {
      "channel": 3,
      "note": 82,
      "start": 56.9326,
      "duration": 0.0087,
      "velocity": 89,
      "chip": "ym2612"
    },
    {
      "channel": 4,
      "note": 77,
      "start": 56.9331,
      "duration": 0.0083,
      "velocity": 89,
      "chip": "ym2612"
    },
    {
      "channel": 3,
      "note": 82,
      "start": 56.9594,
      "duration": 0.0087,
      "velocity": 89,
      "chip": "ym2612"
    },
    {
      "channel": 4,
      "note": 77,
      "start": 56.9597,
      "duration": 0.0085,
      "velocity": 89,
      "chip": "ym2612"
    },
    {
      "channel": 3,
      "note": 82,
      "start": 56.9862,
      "duration": 0.0087,
      "velocity": 89,
      "chip": "ym2612"
    },
    {
      "channel": 4,
      "note": 77,
      "start": 56.9865,
      "duration": 0.0085,
      "velocity": 89,
      "chip": "ym2612"
    },
    {
      "channel": 0,
      "note": 75,
      "start": 57.0127,
      "duration": 0.1069,
      "velocity": 127,
      "chip": "ym2612"
    },
    {
      "channel": 5,
      "note": 66,
      "start": 57.0151,
      "duration": 0.2144,
      "velocity": 127,
      "chip": "ym2612"
    },
    {
      "channel": 0,
      "note": 32,
      "start": 57.1213,
      "duration": 0.1054,
      "velocity": 107,
      "chip": "ym2612"
    },
    {
      "channel": 1,
      "note": 54,
      "start": 57.1217,
      "duration": 0.2926,
      "velocity": 50,
      "chip": "ym2612"
    },
    {
      "channel": 2,
      "note": 42,
      "start": 57.122,
      "duration": 0.0783,
      "velocity": 127,
      "chip": "ym2612"
    },
    {
      "channel": 3,
      "note": 78,
      "start": 57.1222,
      "duration": 0.0067,
      "velocity": 89,
      "chip": "ym2612"
    },
    {
      "channel": 4,
      "note": 73,
      "start": 57.1224,
      "duration": 0.0066,
      "velocity": 89,
      "chip": "ym2612"
    },
    {
      "channel": 3,
      "note": 78,
      "start": 57.1469,
      "duration": 0.0087,
      "velocity": 89,
      "chip": "ym2612"
    },
    {
      "channel": 4,
      "note": 73,
      "start": 57.1472,
      "duration": 0.0085,
      "velocity": 89,
      "chip": "ym2612"
    },
    {
      "channel": 3,
      "note": 78,
      "start": 57.1737,
      "duration": 0.0087,
      "velocity": 89,
      "chip": "ym2612"
    },
    {
      "channel": 4,
      "note": 73,
      "start": 57.174,
      "duration": 0.0085,
      "velocity": 89,
      "chip": "ym2612"
    },
    {
      "channel": 3,
      "note": 78,
      "start": 57.2006,
      "duration": 0.0086,
      "velocity": 89,
      "chip": "ym2612"
    },
    {
      "channel": 4,
      "note": 73,
      "start": 57.2009,
      "duration": 0.0085,
      "velocity": 89,
      "chip": "ym2612"
    },
    {
      "channel": 0,
      "note": 67,
      "start": 57.2285,
      "duration": 0.1054,
      "velocity": 112,
      "chip": "ym2612"
    },
    {
      "channel": 2,
      "note": 42,
      "start": 57.2288,
      "duration": 0.0784,
      "velocity": 127,
      "chip": "ym2612"
    },
    {
      "channel": 3,
      "note": 78,
      "start": 57.2291,
      "duration": 0.0068,
      "velocity": 89,
      "chip": "ym2612"
    },
    {
      "channel": 4,
      "note": 73,
      "start": 57.2294,
      "duration": 0.0066,
      "velocity": 89,
      "chip": "ym2612"
    },
    {
      "channel": 5,
      "note": 83,
      "start": 57.2312,
      "duration": 0.1047,
      "velocity": 53,
      "chip": "ym2612"
    },
    {
      "channel": 3,
      "note": 78,
      "start": 57.254,
      "duration": 0.0087,
      "velocity": 89,
      "chip": "ym2612"
    },
    {
      "channel": 4,
      "note": 73,
      "start": 57.2543,
      "duration": 0.0088,
      "velocity": 89,
      "chip": "ym2612"
    },
    {
      "channel": 3,
      "note": 78,
      "start": 57.2808,
      "duration": 0.0087,
      "velocity": 89,
      "chip": "ym2612"
    },
    {
      "channel": 4,
      "note": 73,
      "start": 57.2811,
      "duration": 0.0085,
      "velocity": 89,
      "chip": "ym2612"
    },
    {
      "channel": 3,
      "note": 78,
      "start": 57.3076,
      "duration": 0.0087,
      "velocity": 89,
      "chip": "ym2612"
    },
    {
      "channel": 4,
      "note": 73,
      "start": 57.3079,
      "duration": 0.0085,
      "velocity": 89,
      "chip": "ym2612"
    },
    {
      "channel": 0,
      "note": 32,
      "start": 57.3356,
      "duration": 0.1054,
      "velocity": 107,
      "chip": "ym2612"
    },
    {
      "channel": 5,
      "note": 75,
      "start": 57.3377,
      "duration": 0.1064,
      "velocity": 127,
      "chip": "ym2612"
    },
    {
      "channel": 0,
      "note": 32,
      "start": 57.443,
      "duration": 0.1052,
      "velocity": 107,
      "chip": "ym2612"
    },
    {
      "channel": 1,
      "note": 53,
      "start": 57.4434,
      "duration": 0.1851,
      "velocity": 50,
      "chip": "ym2612"
    },
    {
      "channel": 2,
      "note": 41,
      "start": 57.4436,
      "duration": 0.078,
      "velocity": 127,
      "chip": "ym2612"
    },
    {
      "channel": 3,
      "note": 77,
      "start": 57.4439,
      "duration": 0.0064,
      "velocity": 89,
      "chip": "ym2612"
    },
    {
      "channel": 4,
      "note": 72,
      "start": 57.4441,
      "duration": 0.0063,
      "velocity": 89,
      "chip": "ym2612"
    },
    {
      "channel": 5,
      "note": 66,
      "start": 57.4459,
      "duration": 0.2124,
      "velocity": 127,
      "chip": "ym2612"
    },
    {
      "channel": 3,
      "note": 77,
      "start": 57.4683,
      "duration": 0.0087,
      "velocity": 89,
      "chip": "ym2612"
    },
    {
      "channel": 4,
      "note": 72,
      "start": 57.4686,
      "duration": 0.0085,
      "velocity": 89,
      "chip": "ym2612"
    },
    {
      "channel": 3,
      "note": 77,
      "start": 57.4951,
      "duration": 0.0087,
      "velocity": 89,
      "chip": "ym2612"
    },
    {
      "channel": 4,
      "note": 72,
      "start": 57.4954,
      "duration": 0.0085,
      "velocity": 89,
      "chip": "ym2612"
    },
    {
      "channel": 3,
      "note": 77,
      "start": 57.522,
      "duration": 0.0087,
      "velocity": 89,
      "chip": "ym2612"
    },
    {
      "channel": 4,
      "note": 72,
      "start": 57.5222,
      "duration": 0.0085,
      "velocity": 89,
      "chip": "ym2612"
    },
    {
      "channel": 0,
      "note": 67,
      "start": 57.5499,
      "duration": 0.1054,
      "velocity": 112,
      "chip": "ym2612"
    },
    {
      "channel": 2,
      "note": 41,
      "start": 57.5503,
      "duration": 0.0784,
      "velocity": 127,
      "chip": "ym2612"
    },
    {
      "channel": 3,
      "note": 77,
      "start": 57.5506,
      "duration": 0.0067,
      "velocity": 89,
      "chip": "ym2612"
    },
    {
      "channel": 4,
      "note": 72,
      "start": 57.5509,
      "duration": 0.0066,
      "velocity": 89,
      "chip": "ym2612"
    },
    {
      "channel": 3,
      "note": 77,
      "start": 57.5754,
      "duration": 0.0087,
      "velocity": 89,
      "chip": "ym2612"
    },
    {
      "channel": 4,
      "note": 72,
      "start": 57.5757,
      "duration": 0.0085,
      "velocity": 89,
      "chip": "ym2612"
    },
    {
      "channel": 3,
      "note": 77,
      "start": 57.6022,
      "duration": 0.0087,
      "velocity": 89,
      "chip": "ym2612"
    },
    {
      "channel": 4,
      "note": 72,
      "start": 57.6025,
      "duration": 0.0085,
      "velocity": 89,
      "chip": "ym2612"
    },
    {
      "channel": 3,
      "note": 77,
      "start": 57.629,
      "duration": 0.0087,
      "velocity": 89,
      "chip": "ym2612"
    },
    {
      "channel": 4,
      "note": 72,
      "start": 57.6293,
      "duration": 0.0085,
      "velocity": 89,
      "chip": "ym2612"
    },
    {
      "channel": 0,
      "note": 32,
      "start": 57.657,
      "duration": 0.1054,
      "velocity": 127,
      "chip": "ym2612"
    },
    {
      "channel": 1,
      "note": 58,
      "start": 57.6574,
      "duration": 0.2926,
      "velocity": 50,
      "chip": "ym2612"
    },
    {
      "channel": 2,
      "note": 46,
      "start": 57.6577,
      "duration": 0.0782,
      "velocity": 127,
      "chip": "ym2612"
    },
    {
      "channel": 3,
      "note": 82,
      "start": 57.658,
      "duration": 0.0065,
      "velocity": 89,
      "chip": "ym2612"
    },
    {
      "channel": 4,
      "note": 77,
      "start": 57.6583,
      "duration": 0.0064,
      "velocity": 89,
      "chip": "ym2612"
    },
    {
      "channel": 5,
      "note": 83,
      "start": 57.66,
      "duration": 0.1054,
      "velocity": 53,
      "chip": "ym2612"
    },
    {
      "channel": 3,
      "note": 82,
      "start": 57.6826,
      "duration": 0.0087,
      "velocity": 89,
      "chip": "ym2612"
    },
    {
      "channel": 4,
      "note": 77,
      "start": 57.6832,
      "duration": 0.0083,
      "velocity": 89,
      "chip": "ym2612"
    },
    {
      "channel": 3,
      "note": 82,
      "start": 57.7094,
      "duration": 0.0087,
      "velocity": 89,
      "chip": "ym2612"
    },
    {
      "channel": 4,
      "note": 77,
      "start": 57.7097,
      "duration": 0.0085,
      "velocity": 89,
      "chip": "ym2612"
    },
    {
      "channel": 3,
      "note": 82,
      "start": 57.7362,
      "duration": 0.0087,
      "velocity": 89,
      "chip": "ym2612"
    },
    {
      "channel": 4,
      "note": 77,
      "start": 57.7365,
      "duration": 0.0085,
      "velocity": 89,
      "chip": "ym2612"
    },
    {
      "channel": 0,
      "note": 75,
      "start": 57.7644,
      "duration": 0.1052,
      "velocity": 127,
      "chip": "ym2612"
    },
    {
      "channel": 2,
      "note": 46,
      "start": 57.7648,
      "duration": 0.0783,
      "velocity": 127,
      "chip": "ym2612"
    },
    {
      "channel": 3,
      "note": 82,
      "start": 57.7651,
      "duration": 0.0065,
      "velocity": 89,
      "chip": "ym2612"
    },
    {
      "channel": 4,
      "note": 77,
      "start": 57.7654,
      "duration": 0.0063,
      "velocity": 89,
      "chip": "ym2612"
    },
    {
      "channel": 5,
      "note": 75,
      "start": 57.7673,
      "duration": 0.1044,
      "velocity": 127,
      "chip": "ym2612"
    },
    {
      "channel": 3,
      "note": 82,
      "start": 57.7897,
      "duration": 0.0087,
      "velocity": 89,
      "chip": "ym2612"
    },
    {
      "channel": 4,
      "note": 77,
      "start": 57.79,
      "duration": 0.0085,
      "velocity": 89,
      "chip": "ym2612"
    },
    {
      "channel": 3,
      "note": 82,
      "start": 57.8164,
      "duration": 0.0087,
      "velocity": 89,
      "chip": "ym2612"
    },
    {
      "channel": 4,
      "note": 77,
      "start": 57.8168,
      "duration": 0.0085,
      "velocity": 89,
      "chip": "ym2612"
    },
    {
      "channel": 3,
      "note": 82,
      "start": 57.8435,
      "duration": 0.0084,
      "velocity": 89,
      "chip": "ym2612"
    },
    {
      "channel": 4,
      "note": 77,
      "start": 57.8438,
      "duration": 0.0083,
      "velocity": 89,
      "chip": "ym2612"
    },
    {
      "channel": 0,
      "note": 75,
      "start": 57.8713,
      "duration": 0.1054,
      "velocity": 127,
      "chip": "ym2612"
    },
    {
      "channel": 5,
      "note": 66,
      "start": 57.8736,
      "duration": 0.213,
      "velocity": 127,
      "chip": "ym2612"
    },
    {
      "channel": 0,
      "note": 66,
      "start": 57.9784,
      "duration": 0.1054,
      "velocity": 127,
      "chip": "ym2612"
    },
    {
      "channel": 1,
      "note": 58,
      "start": 57.9788,
      "duration": 0.2926,
      "velocity": 50,
      "chip": "ym2612"
    },
    {
      "channel": 2,
      "note": 42,
      "start": 57.979,
      "duration": 0.0781,
      "velocity": 127,
      "chip": "ym2612"
    },
    {
      "channel": 3,
      "note": 78,
      "start": 57.9793,
      "duration": 0.0066,
      "velocity": 89,
      "chip": "ym2612"
    },
    {
      "channel": 4,
      "note": 73,
      "start": 57.9795,
      "duration": 0.0065,
      "velocity": 89,
      "chip": "ym2612"
    },
    {
      "channel": 3,
      "note": 78,
      "start": 58.0039,
      "duration": 0.0087,
      "velocity": 89,
      "chip": "ym2612"
    },
    {
      "channel": 4,
      "note": 73,
      "start": 58.0042,
      "duration": 0.0088,
      "velocity": 89,
      "chip": "ym2612"
    },
    {
      "channel": 3,
      "note": 78,
      "start": 58.0307,
      "duration": 0.0087,
      "velocity": 89,
      "chip": "ym2612"
    },
    {
      "channel": 4,
      "note": 73,
      "start": 58.031,
      "duration": 0.0085,
      "velocity": 89,
      "chip": "ym2612"
    },
    {
      "channel": 3,
      "note": 78,
      "start": 58.0576,
      "duration": 0.0087,
      "velocity": 89,
      "chip": "ym2612"
    },
    {
      "channel": 4,
      "note": 73,
      "start": 58.0578,
      "duration": 0.0085,
      "velocity": 89,
      "chip": "ym2612"
    },
    {
      "channel": 0,
      "note": 67,
      "start": 58.0855,
      "duration": 0.1054,
      "velocity": 112,
      "chip": "ym2612"
    },
    {
      "channel": 2,
      "note": 42,
      "start": 58.0859,
      "duration": 0.0783,
      "velocity": 127,
      "chip": "ym2612"
    },
    {
      "channel": 3,
      "note": 78,
      "start": 58.0862,
      "duration": 0.007,
      "velocity": 89,
      "chip": "ym2612"
    },
    {
      "channel": 4,
      "note": 73,
      "start": 58.0865,
      "duration": 0.0068,
      "velocity": 89,
      "chip": "ym2612"
    },
    {
      "channel": 5,
      "note": 83,
      "start": 58.0883,
      "duration": 0.105,
      "velocity": 53,
      "chip": "ym2612"
    },
    {
      "channel": 3,
      "note": 78,
      "start": 58.1111,
      "duration": 0.0087,
      "velocity": 89,
      "chip": "ym2612"
    },
    {
      "channel": 4,
      "note": 73,
      "start": 58.1114,
      "duration": 0.0085,
      "velocity": 89,
      "chip": "ym2612"
    },
    {
      "channel": 3,
      "note": 78,
      "start": 58.1378,
      "duration": 0.0087,
      "velocity": 89,
      "chip": "ym2612"
    },
    {
      "channel": 4,
      "note": 73,
      "start": 58.1381,
      "duration": 0.0085,
      "velocity": 89,
      "chip": "ym2612"
    },
    {
      "channel": 3,
      "note": 78,
      "start": 58.1647,
      "duration": 0.0087,
      "velocity": 89,
      "chip": "ym2612"
    },
    {
      "channel": 4,
      "note": 73,
      "start": 58.165,
      "duration": 0.0085,
      "velocity": 89,
      "chip": "ym2612"
    },
    {
      "channel": 0,
      "note": 75,
      "start": 58.1927,
      "duration": 0.1054,
      "velocity": 127,
      "chip": "ym2612"
    },
    {
      "channel": 5,
      "note": 75,
      "start": 58.1951,
      "duration": 0.1044,
      "velocity": 127,
      "chip": "ym2612"
    },
    {
      "channel": 0,
      "note": 75,
      "start": 58.2983,
      "duration": 0.1069,
      "velocity": 127,
      "chip": "ym2612"
    },
    {
      "channel": 1,
      "note": 61,
      "start": 58.2987,
      "duration": 0.1869,
      "velocity": 50,
      "chip": "ym2612"
    },
    {
      "channel": 2,
      "note": 41,
      "start": 58.299,
      "duration": 0.0796,
      "velocity": 127,
      "chip": "ym2612"
    },
    {
      "channel": 3,
      "note": 77,
      "start": 58.2992,
      "duration": 0.008,
      "velocity": 89,
      "chip": "ym2612"
    },
    {
      "channel": 4,
      "note": 72,
      "start": 58.2995,
      "duration": 0.0079,
      "velocity": 89,
      "chip": "ym2612"
    },
    {
      "channel": 5,
      "note": 66,
      "start": 58.3013,
      "duration": 0.2186,
      "velocity": 127,
      "chip": "ym2612"
    },
    {
      "channel": 3,
      "note": 77,
      "start": 58.3254,
      "duration": 0.0087,
      "velocity": 89,
      "chip": "ym2612"
    },
    {
      "channel": 4,
      "note": 72,
      "start": 58.3256,
      "duration": 0.0085,
      "velocity": 89,
      "chip": "ym2612"
    },
    {
      "channel": 3,
      "note": 77,
      "start": 58.3521,
      "duration": 0.0087,
      "velocity": 89,
      "chip": "ym2612"
    },
    {
      "channel": 4,
      "note": 72,
      "start": 58.3524,
      "duration": 0.0085,
      "velocity": 89,
      "chip": "ym2612"
    },
    {
      "channel": 3,
      "note": 77,
      "start": 58.379,
      "duration": 0.0087,
      "velocity": 89,
      "chip": "ym2612"
    },
    {
      "channel": 4,
      "note": 72,
      "start": 58.3793,
      "duration": 0.0085,
      "velocity": 89,
      "chip": "ym2612"
    },
    {
      "channel": 0,
      "note": 66,
      "start": 58.4069,
      "duration": 0.1054,
      "velocity": 127,
      "chip": "ym2612"
    },
    {
      "channel": 2,
      "note": 41,
      "start": 58.4073,
      "duration": 0.0784,
      "velocity": 127,
      "chip": "ym2612"
    },
    {
      "channel": 3,
      "note": 77,
      "start": 58.4076,
      "duration": 0.0067,
      "velocity": 89,
      "chip": "ym2612"
    },
    {
      "channel": 4,
      "note": 72,
      "start": 58.4079,
      "duration": 0.0066,
      "velocity": 89,
      "chip": "ym2612"
    },
    {
      "channel": 3,
      "note": 77,
      "start": 58.4325,
      "duration": 0.0087,
      "velocity": 89,
      "chip": "ym2612"
    },
    {
      "channel": 4,
      "note": 72,
      "start": 58.433,
      "duration": 0.0083,
      "velocity": 89,
      "chip": "ym2612"
    },
    {
      "channel": 3,
      "note": 77,
      "start": 58.4593,
      "duration": 0.0087,
      "velocity": 89,
      "chip": "ym2612"
    },
    {
      "channel": 4,
      "note": 72,
      "start": 58.4596,
      "duration": 0.0085,
      "velocity": 89,
      "chip": "ym2612"
    },
    {
      "channel": 3,
      "note": 77,
      "start": 58.4861,
      "duration": 0.0087,
      "velocity": 89,
      "chip": "ym2612"
    },
    {
      "channel": 4,
      "note": 72,
      "start": 58.4864,
      "duration": 0.0085,
      "velocity": 89,
      "chip": "ym2612"
    },
    {
      "channel": 0,
      "note": 32,
      "start": 58.5144,
      "duration": 0.1052,
      "velocity": 107,
      "chip": "ym2612"
    },
    {
      "channel": 1,
      "note": 60,
      "start": 58.5161,
      "duration": 0.291,
      "velocity": 50,
      "chip": "ym2612"
    },
    {
      "channel": 2,
      "note": 99,
      "start": 58.5193,
      "duration": 0.0739,
      "velocity": 105,
      "chip": "ym2612"
    },
    {
      "channel": 3,
      "note": 84,
      "start": 58.5196,
      "duration": 0.0025,
      "velocity": 89,
      "chip": "ym2612"
    },
    {
      "channel": 4,
      "note": 79,
      "start": 58.5199,
      "duration": 0.0024,
      "velocity": 89,
      "chip": "ym2612"
    },
    {
      "channel": 5,
      "note": 83,
      "start": 58.5216,
      "duration": 0.1006,
      "velocity": 53,
      "chip": "ym2612"
    },
    {
      "channel": 3,
      "note": 84,
      "start": 58.5397,
      "duration": 0.0087,
      "velocity": 89,
      "chip": "ym2612"
    },
    {
      "channel": 4,
      "note": 79,
      "start": 58.54,
      "duration": 0.0085,
      "velocity": 89,
      "chip": "ym2612"
    },
    {
      "channel": 3,
      "note": 84,
      "start": 58.5665,
      "duration": 0.0087,
      "velocity": 89,
      "chip": "ym2612"
    },
    {
      "channel": 4,
      "note": 79,
      "start": 58.5668,
      "duration": 0.0085,
      "velocity": 89,
      "chip": "ym2612"
    },
    {
      "channel": 3,
      "note": 84,
      "start": 58.5936,
      "duration": 0.0084,
      "velocity": 89,
      "chip": "ym2612"
    },
    {
      "channel": 4,
      "note": 79,
      "start": 58.5939,
      "duration": 0.0083,
      "velocity": 89,
      "chip": "ym2612"
    },
    {
      "channel": 0,
      "note": 75,
      "start": 58.6212,
      "duration": 0.1054,
      "velocity": 127,
      "chip": "ym2612"
    },
    {
      "channel": 2,
      "note": 99,
      "start": 58.6216,
      "duration": 0.0784,
      "velocity": 105,
      "chip": "ym2612"
    },
    {
      "channel": 3,
      "note": 84,
      "start": 58.6219,
      "duration": 0.0068,
      "velocity": 89,
      "chip": "ym2612"
    },
    {
      "channel": 4,
      "note": 79,
      "start": 58.6222,
      "duration": 0.0066,
      "velocity": 89,
      "chip": "ym2612"
    },
    {
      "channel": 5,
      "note": 75,
      "start": 58.6243,
      "duration": 0.1031,
      "velocity": 127,
      "chip": "ym2612"
    },
    {
      "channel": 3,
      "note": 84,
      "start": 58.6468,
      "duration": 0.0087,
      "velocity": 89,
      "chip": "ym2612"
    },
    {
      "channel": 4,
      "note": 79,
      "start": 58.6471,
      "duration": 0.0085,
      "velocity": 89,
      "chip": "ym2612"
    },
    {
      "channel": 3,
      "note": 84,
      "start": 58.6735,
      "duration": 0.0087,
      "velocity": 89,
      "chip": "ym2612"
    },
    {
      "channel": 4,
      "note": 79,
      "start": 58.6738,
      "duration": 0.0085,
      "velocity": 89,
      "chip": "ym2612"
    },
    {
      "channel": 3,
      "note": 84,
      "start": 58.7004,
      "duration": 0.0087,
      "velocity": 89,
      "chip": "ym2612"
    },
    {
      "channel": 4,
      "note": 79,
      "start": 58.7007,
      "duration": 0.0085,
      "velocity": 89,
      "chip": "ym2612"
    },
    {
      "channel": 0,
      "note": 75,
      "start": 58.7269,
      "duration": 0.1069,
      "velocity": 127,
      "chip": "ym2612"
    },
    {
      "channel": 2,
      "note": 82,
      "start": 58.7273,
      "duration": 0.1871,
      "velocity": 105,
      "chip": "ym2612"
    },
    {
      "channel": 5,
      "note": 66,
      "start": 58.7292,
      "duration": 0.2147,
      "velocity": 127,
      "chip": "ym2612"
    },
    {
      "channel": 0,
      "note": 32,
      "start": 58.8355,
      "duration": 0.1054,
      "velocity": 107,
      "chip": "ym2612"
    },
    {
      "channel": 1,
      "note": 58,
      "start": 58.8359,
      "duration": 0.3016,
      "velocity": 50,
      "chip": "ym2612"
    },
    {
      "channel": 3,
      "note": 82,
      "start": 58.8362,
      "duration": 0.0071,
      "velocity": 89,
      "chip": "ym2612"
    },
    {
      "channel": 4,
      "note": 77,
      "start": 58.8365,
      "duration": 0.007,
      "velocity": 89,
      "chip": "ym2612"
    },
    {
      "channel": 3,
      "note": 82,
      "start": 58.8611,
      "duration": 0.0087,
      "velocity": 89,
      "chip": "ym2612"
    },
    {
      "channel": 4,
      "note": 77,
      "start": 58.8614,
      "duration": 0.0085,
      "velocity": 89,
      "chip": "ym2612"
    },
    {
      "channel": 3,
      "note": 82,
      "start": 58.8879,
      "duration": 0.0087,
      "velocity": 89,
      "chip": "ym2612"
    },
    {
      "channel": 4,
      "note": 77,
      "start": 58.8882,
      "duration": 0.0085,
      "velocity": 89,
      "chip": "ym2612"
    },
    {
      "channel": 3,
      "note": 82,
      "start": 58.9147,
      "duration": 0.0087,
      "velocity": 89,
      "chip": "ym2612"
    },
    {
      "channel": 4,
      "note": 77,
      "start": 58.915,
      "duration": 0.0085,
      "velocity": 89,
      "chip": "ym2612"
    },
    {
      "channel": 0,
      "note": 67,
      "start": 58.9426,
      "duration": 0.1144,
      "velocity": 112,
      "chip": "ym2612"
    },
    {
      "channel": 2,
      "note": 96,
      "start": 58.9433,
      "duration": 0.0871,
      "velocity": 105,
      "chip": "ym2612"
    },
    {
      "channel": 3,
      "note": 82,
      "start": 58.9436,
      "duration": 0.0065,
      "velocity": 89,
      "chip": "ym2612"
    },
    {
      "channel": 4,
      "note": 77,
      "start": 58.9439,
      "duration": 0.0064,
      "velocity": 89,
      "chip": "ym2612"
    },
    {
      "channel": 5,
      "note": 83,
      "start": 58.9456,
      "duration": 0.1136,
      "velocity": 53,
      "chip": "ym2612"
    },
    {
      "channel": 3,
      "note": 82,
      "start": 58.9771,
      "duration": 0.0087,
      "velocity": 89,
      "chip": "ym2612"
    },
    {
      "channel": 4,
      "note": 77,
      "start": 58.9774,
      "duration": 0.0085,
      "velocity": 89,
      "chip": "ym2612"
    },
    {
      "channel": 3,
      "note": 82,
      "start": 59.0039,
      "duration": 0.0087,
      "velocity": 89,
      "chip": "ym2612"
    },
    {
      "channel": 4,
      "note": 77,
      "start": 59.0042,
      "duration": 0.0085,
      "velocity": 89,
      "chip": "ym2612"
    },
    {
      "channel": 3,
      "note": 82,
      "start": 59.0307,
      "duration": 0.0087,
      "velocity": 89,
      "chip": "ym2612"
    },
    {
      "channel": 4,
      "note": 77,
      "start": 59.031,
      "duration": 0.0085,
      "velocity": 89,
      "chip": "ym2612"
    },
    {
      "channel": 0,
      "note": 32,
      "start": 59.0587,
      "duration": 0.1054,
      "velocity": 107,
      "chip": "ym2612"
    },
    {
      "channel": 2,
      "note": 96,
      "start": 59.0591,
      "duration": 0.0785,
      "velocity": 105,
      "chip": "ym2612"
    },
    {
      "channel": 5,
      "note": 75,
      "start": 59.0611,
      "duration": 0.106,
      "velocity": 127,
      "chip": "ym2612"
    },
    {
      "channel": 0,
      "note": 32,
      "start": 59.1658,
      "duration": 0.1054,
      "velocity": 107,
      "chip": "ym2612"
    },
    {
      "channel": 1,
      "note": 54,
      "start": 59.1662,
      "duration": 0.1854,
      "velocity": 50,
      "chip": "ym2612"
    },
    {
      "channel": 2,
      "note": 80,
      "start": 59.1665,
      "duration": 0.1853,
      "velocity": 105,
      "chip": "ym2612"
    },
    {
      "channel": 3,
      "note": 78,
      "start": 59.1667,
      "duration": 0.0066,
      "velocity": 89,
      "chip": "ym2612"
    },
    {
      "channel": 4,
      "note": 73,
      "start": 59.167,
      "duration": 0.0066,
      "velocity": 89,
      "chip": "ym2612"
    },
    {
      "channel": 5,
      "note": 66,
      "start": 59.1688,
      "duration": 0.2138,
      "velocity": 127,
      "chip": "ym2612"
    },
    {
      "channel": 3,
      "note": 78,
      "start": 59.1915,
      "duration": 0.0087,
      "velocity": 89,
      "chip": "ym2612"
    },
    {
      "channel": 4,
      "note": 73,
      "start": 59.1917,
      "duration": 0.0086,
      "velocity": 89,
      "chip": "ym2612"
    },
    {
      "channel": 3,
      "note": 78,
      "start": 59.2182,
      "duration": 0.0087,
      "velocity": 89,
      "chip": "ym2612"
    },
    {
      "channel": 4,
      "note": 73,
      "start": 59.2185,
      "duration": 0.0085,
      "velocity": 89,
      "chip": "ym2612"
    },
    {
      "channel": 3,
      "note": 78,
      "start": 59.245,
      "duration": 0.0087,
      "velocity": 89,
      "chip": "ym2612"
    },
    {
      "channel": 4,
      "note": 73,
      "start": 59.2453,
      "duration": 0.0085,
      "velocity": 89,
      "chip": "ym2612"
    },
    {
      "channel": 0,
      "note": 67,
      "start": 59.2732,
      "duration": 0.1052,
      "velocity": 112,
      "chip": "ym2612"
    },
    {
      "channel": 3,
      "note": 78,
      "start": 59.2737,
      "duration": 0.0067,
      "velocity": 89,
      "chip": "ym2612"
    },
    {
      "channel": 4,
      "note": 73,
      "start": 59.274,
      "duration": 0.0065,
      "velocity": 89,
      "chip": "ym2612"
    },
    {
      "channel": 3,
      "note": 78,
      "start": 59.2985,
      "duration": 0.0087,
      "velocity": 89,
      "chip": "ym2612"
    },
    {
      "channel": 4,
      "note": 73,
      "start": 59.2988,
      "duration": 0.0085,
      "velocity": 89,
      "chip": "ym2612"
    },
    {
      "channel": 3,
      "note": 78,
      "start": 59.3253,
      "duration": 0.0087,
      "velocity": 89,
      "chip": "ym2612"
    },
    {
      "channel": 4,
      "note": 73,
      "start": 59.3256,
      "duration": 0.0085,
      "velocity": 89,
      "chip": "ym2612"
    },
    {
      "channel": 3,
      "note": 78,
      "start": 59.3522,
      "duration": 0.0087,
      "velocity": 89,
      "chip": "ym2612"
    },
    {
      "channel": 4,
      "note": 73,
      "start": 59.3524,
      "duration": 0.0085,
      "velocity": 89,
      "chip": "ym2612"
    },
    {
      "channel": 0,
      "note": 32,
      "start": 59.3801,
      "duration": 0.1054,
      "velocity": 127,
      "chip": "ym2612"
    },
    {
      "channel": 1,
      "note": 60,
      "start": 59.3805,
      "duration": 0.2926,
      "velocity": 50,
      "chip": "ym2612"
    },
    {
      "channel": 3,
      "note": 84,
      "start": 59.3823,
      "duration": 0.0053,
      "velocity": 89,
      "chip": "ym2612"
    },
    {
      "channel": 4,
      "note": 79,
      "start": 59.3826,
      "duration": 0.0052,
      "velocity": 89,
      "chip": "ym2612"
    },
    {
      "channel": 5,
      "note": 83,
      "start": 59.3846,
      "duration": 0.1034,
      "velocity": 53,
      "chip": "ym2612"
    },
    {
      "channel": 3,
      "note": 84,
      "start": 59.4057,
      "duration": 0.0087,
      "velocity": 89,
      "chip": "ym2612"
    },
    {
      "channel": 4,
      "note": 79,
      "start": 59.406,
      "duration": 0.0085,
      "velocity": 89,
      "chip": "ym2612"
    },
    {
      "channel": 3,
      "note": 84,
      "start": 59.4325,
      "duration": 0.0087,
      "velocity": 89,
      "chip": "ym2612"
    },
    {
      "channel": 4,
      "note": 79,
      "start": 59.4331,
      "duration": 0.0083,
      "velocity": 89,
      "chip": "ym2612"
    },
    {
      "channel": 3,
      "note": 84,
      "start": 59.4593,
      "duration": 0.0087,
      "velocity": 89,
      "chip": "ym2612"
    },
    {
      "channel": 4,
      "note": 79,
      "start": 59.4596,
      "duration": 0.0085,
      "velocity": 89,
      "chip": "ym2612"
    },
    {
      "channel": 0,
      "note": 75,
      "start": 59.4872,
      "duration": 0.1054,
      "velocity": 127,
      "chip": "ym2612"
    },
    {
      "channel": 3,
      "note": 84,
      "start": 59.4877,
      "duration": 0.0069,
      "velocity": 89,
      "chip": "ym2612"
    },
    {
      "channel": 4,
      "note": 79,
      "start": 59.488,
      "duration": 0.0068,
      "velocity": 89,
      "chip": "ym2612"
    },
    {
      "channel": 5,
      "note": 75,
      "start": 59.4899,
      "duration": 0.1051,
      "velocity": 127,
      "chip": "ym2612"
    },
    {
      "channel": 3,
      "note": 84,
      "start": 59.513,
      "duration": 0.0084,
      "velocity": 89,
      "chip": "ym2612"
    },
    {
      "channel": 4,
      "note": 79,
      "start": 59.5133,
      "duration": 0.0083,
      "velocity": 89,
      "chip": "ym2612"
    },
    {
      "channel": 3,
      "note": 84,
      "start": 59.5395,
      "duration": 0.0087,
      "velocity": 89,
      "chip": "ym2612"
    },
    {
      "channel": 4,
      "note": 79,
      "start": 59.5398,
      "duration": 0.0085,
      "velocity": 89,
      "chip": "ym2612"
    },
    {
      "channel": 3,
      "note": 84,
      "start": 59.5663,
      "duration": 0.0087,
      "velocity": 89,
      "chip": "ym2612"
    },
    {
      "channel": 4,
      "note": 79,
      "start": 59.5666,
      "duration": 0.0085,
      "velocity": 89,
      "chip": "ym2612"
    },
    {
      "channel": 0,
      "note": 75,
      "start": 59.5946,
      "duration": 0.1052,
      "velocity": 127,
      "chip": "ym2612"
    },
    {
      "channel": 5,
      "note": 66,
      "start": 59.5968,
      "duration": 0.2127,
      "velocity": 127,
      "chip": "ym2612"
    },
    {
      "channel": 0,
      "note": 66,
      "start": 59.7015,
      "duration": 0.1054,
      "velocity": 127,
      "chip": "ym2612"
    },
    {
      "channel": 1,
      "note": 61,
      "start": 59.7019,
      "duration": 0.2925,
      "velocity": 50,
      "chip": "ym2612"
    },
    {
      "channel": 3,
      "note": 82,
      "start": 59.7023,
      "duration": 0.0067,
      "velocity": 89,
      "chip": "ym2612"
    },
    {
      "channel": 4,
      "note": 77,
      "start": 59.7025,
      "duration": 0.0066,
      "velocity": 89,
      "chip": "ym2612"
    },
    {
      "channel": 3,
      "note": 82,
      "start": 59.727,
      "duration": 0.0087,
      "velocity": 89,
      "chip": "ym2612"
    },
    {
      "channel": 4,
      "note": 77,
      "start": 59.7273,
      "duration": 0.0085,
      "velocity": 89,
      "chip": "ym2612"
    },
    {
      "channel": 3,
      "note": 82,
      "start": 59.7538,
      "duration": 0.0087,
      "velocity": 89,
      "chip": "ym2612"
    },
    {
      "channel": 4,
      "note": 77,
      "start": 59.7541,
      "duration": 0.0085,
      "velocity": 89,
      "chip": "ym2612"
    },
    {
      "channel": 3,
      "note": 82,
      "start": 59.7806,
      "duration": 0.0087,
      "velocity": 89,
      "chip": "ym2612"
    },
    {
      "channel": 4,
      "note": 77,
      "start": 59.7809,
      "duration": 0.0085,
      "velocity": 89,
      "chip": "ym2612"
    },
    {
      "channel": 0,
      "note": 67,
      "start": 59.8086,
      "duration": 0.1054,
      "velocity": 112,
      "chip": "ym2612"
    },
    {
      "channel": 3,
      "note": 82,
      "start": 59.8091,
      "duration": 0.0069,
      "velocity": 89,
      "chip": "ym2612"
    },
    {
      "channel": 4,
      "note": 77,
      "start": 59.8094,
      "duration": 0.0068,
      "velocity": 89,
      "chip": "ym2612"
    },
    {
      "channel": 5,
      "note": 83,
      "start": 59.8112,
      "duration": 0.1049,
      "velocity": 53,
      "chip": "ym2612"
    },
    {
      "channel": 3,
      "note": 82,
      "start": 59.8342,
      "duration": 0.0089,
      "velocity": 89,
      "chip": "ym2612"
    },
    {
      "channel": 4,
      "note": 77,
      "start": 59.8345,
      "duration": 0.0088,
      "velocity": 89,
      "chip": "ym2612"
    },
    {
      "channel": 3,
      "note": 82,
      "start": 59.861,
      "duration": 0.0087,
      "velocity": 89,
      "chip": "ym2612"
    },
    {
      "channel": 4,
      "note": 77,
      "start": 59.8612,
      "duration": 0.0085,
      "velocity": 89,
      "chip": "ym2612"
    },
    {
      "channel": 3,
      "note": 82,
      "start": 59.8877,
      "duration": 0.0087,
      "velocity": 89,
      "chip": "ym2612"
    },
    {
      "channel": 4,
      "note": 77,
      "start": 59.888,
      "duration": 0.0085,
      "velocity": 89,
      "chip": "ym2612"
    },
    {
      "channel": 0,
      "note": 75,
      "start": 59.9158,
      "duration": 0.1054,
      "velocity": 127,
      "chip": "ym2612"
    },
    {
      "channel": 5,
      "note": 75,
      "start": 59.918,
      "duration": 0.1045,
      "velocity": 127,
      "chip": "ym2612"
    },
    {
      "channel": 0,
      "note": 75,
      "start": 60.0215,
      "duration": 0.1069,
      "velocity": 127,
      "chip": "ym2612"
    },
    {
      "channel": 1,
      "note": 58,
      "start": 60.0218,
      "duration": 0.1869,
      "velocity": 50,
      "chip": "ym2612"
    },
    {
      "channel": 3,
      "note": 78,
      "start": 60.0222,
      "duration": 0.0082,
      "velocity": 89,
      "chip": "ym2612"
    },
    {
      "channel": 4,
      "note": 73,
      "start": 60.0224,
      "duration": 0.0081,
      "velocity": 89,
      "chip": "ym2612"
    },
    {
      "channel": 5,
      "note": 66,
      "start": 60.0245,
      "duration": 0.2154,
      "velocity": 127,
      "chip": "ym2612"
    },
    {
      "channel": 3,
      "note": 78,
      "start": 60.0484,
      "duration": 0.0087,
      "velocity": 89,
      "chip": "ym2612"
    },
    {
      "channel": 4,
      "note": 73,
      "start": 60.0487,
      "duration": 0.0085,
      "velocity": 89,
      "chip": "ym2612"
    },
    {
      "channel": 3,
      "note": 78,
      "start": 60.0752,
      "duration": 0.0087,
      "velocity": 89,
      "chip": "ym2612"
    },
    {
      "channel": 4,
      "note": 73,
      "start": 60.0755,
      "duration": 0.0085,
      "velocity": 89,
      "chip": "ym2612"
    },
    {
      "channel": 3,
      "note": 78,
      "start": 60.102,
      "duration": 0.0087,
      "velocity": 89,
      "chip": "ym2612"
    },
    {
      "channel": 4,
      "note": 73,
      "start": 60.1023,
      "duration": 0.0085,
      "velocity": 89,
      "chip": "ym2612"
    },
    {
      "channel": 0,
      "note": 66,
      "start": 60.13,
      "duration": 0.1054,
      "velocity": 127,
      "chip": "ym2612"
    },
    {
      "channel": 3,
      "note": 78,
      "start": 60.1305,
      "duration": 0.0069,
      "velocity": 89,
      "chip": "ym2612"
    },
    {
      "channel": 4,
      "note": 73,
      "start": 60.1308,
      "duration": 0.0068,
      "velocity": 89,
      "chip": "ym2612"
    },
    {
      "channel": 3,
      "note": 78,
      "start": 60.1556,
      "duration": 0.0087,
      "velocity": 89,
      "chip": "ym2612"
    },
    {
      "channel": 4,
      "note": 73,
      "start": 60.1559,
      "duration": 0.0085,
      "velocity": 89,
      "chip": "ym2612"
    },
    {
      "channel": 3,
      "note": 78,
      "start": 60.1824,
      "duration": 0.0087,
      "velocity": 89,
      "chip": "ym2612"
    },
    {
      "channel": 4,
      "note": 73,
      "start": 60.1827,
      "duration": 0.0085,
      "velocity": 89,
      "chip": "ym2612"
    },
    {
      "channel": 3,
      "note": 78,
      "start": 60.2092,
      "duration": 0.0087,
      "velocity": 89,
      "chip": "ym2612"
    },
    {
      "channel": 4,
      "note": 73,
      "start": 60.2095,
      "duration": 0.0085,
      "velocity": 89,
      "chip": "ym2612"
    },
    {
      "channel": 0,
      "note": 32,
      "start": 60.2372,
      "duration": 0.1054,
      "velocity": 107,
      "chip": "ym2612"
    },
    {
      "channel": 1,
      "note": 58,
      "start": 60.2376,
      "duration": 0.2925,
      "velocity": 50,
      "chip": "ym2612"
    },
    {
      "channel": 2,
      "note": 92,
      "start": 60.2393,
      "duration": 0.0768,
      "velocity": 105,
      "chip": "ym2612"
    },
    {
      "channel": 3,
      "note": 82,
      "start": 60.2395,
      "duration": 0.0052,
      "velocity": 89,
      "chip": "ym2612"
    },
    {
      "channel": 4,
      "note": 77,
      "start": 60.2399,
      "duration": 0.005,
      "velocity": 89,
      "chip": "ym2612"
    },
    {
      "channel": 5,
      "note": 83,
      "start": 60.2416,
      "duration": 0.104,
      "velocity": 53,
      "chip": "ym2612"
    },
    {
      "channel": 3,
      "note": 82,
      "start": 60.2631,
      "duration": 0.0084,
      "velocity": 89,
      "chip": "ym2612"
    },
    {
      "channel": 4,
      "note": 77,
      "start": 60.2634,
      "duration": 0.0083,
      "velocity": 89,
      "chip": "ym2612"
    },
    {
      "channel": 3,
      "note": 82,
      "start": 60.2896,
      "duration": 0.0087,
      "velocity": 89,
      "chip": "ym2612"
    },
    {
      "channel": 4,
      "note": 77,
      "start": 60.2899,
      "duration": 0.0085,
      "velocity": 89,
      "chip": "ym2612"
    },
    {
      "channel": 3,
      "note": 82,
      "start": 60.3164,
      "duration": 0.0087,
      "velocity": 89,
      "chip": "ym2612"
    },
    {
      "channel": 4,
      "note": 77,
      "start": 60.3168,
      "duration": 0.0085,
      "velocity": 89,
      "chip": "ym2612"
    },
    {
      "channel": 0,
      "note": 75,
      "start": 60.3446,
      "duration": 0.1052,
      "velocity": 127,
      "chip": "ym2612"
    },
    {
      "channel": 2,
      "note": 92,
      "start": 60.345,
      "duration": 0.0782,
      "velocity": 105,
      "chip": "ym2612"
    },
    {
      "channel": 3,
      "note": 82,
      "start": 60.3453,
      "duration": 0.0065,
      "velocity": 89,
      "chip": "ym2612"
    },
    {
      "channel": 4,
      "note": 77,
      "start": 60.3456,
      "duration": 0.0063,
      "velocity": 89,
      "chip": "ym2612"
    },
    {
      "channel": 5,
      "note": 75,
      "start": 60.3474,
      "duration": 0.1032,
      "velocity": 127,
      "chip": "ym2612"
    },
    {
      "channel": 3,
      "note": 82,
      "start": 60.3699,
      "duration": 0.0087,
      "velocity": 89,
      "chip": "ym2612"
    },
    {
      "channel": 4,
      "note": 77,
      "start": 60.3702,
      "duration": 0.0085,
      "velocity": 89,
      "chip": "ym2612"
    },
    {
      "channel": 3,
      "note": 82,
      "start": 60.3966,
      "duration": 0.0087,
      "velocity": 89,
      "chip": "ym2612"
    },
    {
      "channel": 4,
      "note": 77,
      "start": 60.3969,
      "duration": 0.0085,
      "velocity": 89,
      "chip": "ym2612"
    },
    {
      "channel": 3,
      "note": 82,
      "start": 60.4236,
      "duration": 0.0086,
      "velocity": 89,
      "chip": "ym2612"
    },
    {
      "channel": 4,
      "note": 77,
      "start": 60.4239,
      "duration": 0.0084,
      "velocity": 89,
      "chip": "ym2612"
    },
    {
      "channel": 0,
      "note": 75,
      "start": 60.45,
      "duration": 0.1069,
      "velocity": 127,
      "chip": "ym2612"
    },
    {
      "channel": 2,
      "note": 75,
      "start": 60.4504,
      "duration": 0.187,
      "velocity": 105,
      "chip": "ym2612"
    },
    {
      "channel": 5,
      "note": 66,
      "start": 60.4523,
      "duration": 0.2145,
      "velocity": 127,
      "chip": "ym2612"
    },
    {
      "channel": 0,
      "note": 32,
      "start": 60.5586,
      "duration": 0.1054,
      "velocity": 107,
      "chip": "ym2612"
    },
    {
      "channel": 1,
      "note": 54,
      "start": 60.559,
      "duration": 0.2926,
      "velocity": 50,
      "chip": "ym2612"
    },
    {
      "channel": 3,
      "note": 78,
      "start": 60.5593,
      "duration": 0.0068,
      "velocity": 89,
      "chip": "ym2612"
    },
    {
      "channel": 4,
      "note": 73,
      "start": 60.5596,
      "duration": 0.0067,
      "velocity": 89,
      "chip": "ym2612"
    },
    {
      "channel": 3,
      "note": 78,
      "start": 60.5842,
      "duration": 0.0089,
      "velocity": 89,
      "chip": "ym2612"
    },
    {
      "channel": 4,
      "note": 73,
      "start": 60.5845,
      "duration": 0.0088,
      "velocity": 89,
      "chip": "ym2612"
    },
    {
      "channel": 3,
      "note": 78,
      "start": 60.611,
      "duration": 0.0087,
      "velocity": 89,
      "chip": "ym2612"
    },
    {
      "channel": 4,
      "note": 73,
      "start": 60.6113,
      "duration": 0.0085,
      "velocity": 89,
      "chip": "ym2612"
    },
    {
      "channel": 3,
      "note": 78,
      "start": 60.6378,
      "duration": 0.0087,
      "velocity": 89,
      "chip": "ym2612"
    },
    {
      "channel": 4,
      "note": 73,
      "start": 60.6381,
      "duration": 0.0085,
      "velocity": 89,
      "chip": "ym2612"
    },
    {
      "channel": 0,
      "note": 67,
      "start": 60.6657,
      "duration": 0.1054,
      "velocity": 112,
      "chip": "ym2612"
    },
    {
      "channel": 2,
      "note": 89,
      "start": 60.6661,
      "duration": 0.0784,
      "velocity": 105,
      "chip": "ym2612"
    },
    {
      "channel": 3,
      "note": 78,
      "start": 60.6664,
      "duration": 0.0069,
      "velocity": 89,
      "chip": "ym2612"
    },
    {
      "channel": 4,
      "note": 73,
      "start": 60.6668,
      "duration": 0.0067,
      "velocity": 89,
      "chip": "ym2612"
    },
    {
      "channel": 5,
      "note": 83,
      "start": 60.6685,
      "duration": 0.1051,
      "velocity": 53,
      "chip": "ym2612"
    },
    {
      "channel": 3,
      "note": 78,
      "start": 60.6913,
      "duration": 0.0087,
      "velocity": 89,
      "chip": "ym2612"
    },
    {
      "channel": 4,
      "note": 73,
      "start": 60.6916,
      "duration": 0.0086,
      "velocity": 89,
      "chip": "ym2612"
    },
    {
      "channel": 3,
      "note": 78,
      "start": 60.718,
      "duration": 0.0087,
      "velocity": 89,
      "chip": "ym2612"
    },
    {
      "channel": 4,
      "note": 73,
      "start": 60.7183,
      "duration": 0.0085,
      "velocity": 89,
      "chip": "ym2612"
    },
    {
      "channel": 3,
      "note": 78,
      "start": 60.7449,
      "duration": 0.0087,
      "velocity": 89,
      "chip": "ym2612"
    },
    {
      "channel": 4,
      "note": 73,
      "start": 60.7452,
      "duration": 0.0085,
      "velocity": 89,
      "chip": "ym2612"
    },
    {
      "channel": 0,
      "note": 32,
      "start": 60.7731,
      "duration": 0.1052,
      "velocity": 107,
      "chip": "ym2612"
    },
    {
      "channel": 2,
      "note": 89,
      "start": 60.7735,
      "duration": 0.0783,
      "velocity": 105,
      "chip": "ym2612"
    },
    {
      "channel": 5,
      "note": 75,
      "start": 60.7755,
      "duration": 0.1057,
      "velocity": 127,
      "chip": "ym2612"
    },
    {
      "channel": 0,
      "note": 32,
      "start": 60.88,
      "duration": 0.1054,
      "velocity": 107,
      "chip": "ym2612"
    },
    {
      "channel": 1,
      "note": 53,
      "start": 60.8804,
      "duration": 0.1854,
      "velocity": 50,
      "chip": "ym2612"
    },
    {
      "channel": 2,
      "note": 73,
      "start": 60.8807,
      "duration": 0.1853,
      "velocity": 105,
      "chip": "ym2612"
    },
    {
      "channel": 3,
      "note": 77,
      "start": 60.8809,
      "duration": 0.0066,
      "velocity": 89,
      "chip": "ym2612"
    },
    {
      "channel": 4,
      "note": 72,
      "start": 60.8812,
      "duration": 0.0065,
      "velocity": 89,
      "chip": "ym2612"
    },
    {
      "channel": 5,
      "note": 66,
      "start": 60.8832,
      "duration": 0.2139,
      "velocity": 127,
      "chip": "ym2612"
    },
    {
      "channel": 3,
      "note": 77,
      "start": 60.9056,
      "duration": 0.0087,
      "velocity": 89,
      "chip": "ym2612"
    },
    {
      "channel": 4,
      "note": 72,
      "start": 60.9059,
      "duration": 0.0085,
      "velocity": 89,
      "chip": "ym2612"
    },
    {
      "channel": 3,
      "note": 77,
      "start": 60.9324,
      "duration": 0.0087,
      "velocity": 89,
      "chip": "ym2612"
    },
    {
      "channel": 4,
      "note": 72,
      "start": 60.9327,
      "duration": 0.0085,
      "velocity": 89,
      "chip": "ym2612"
    },
    {
      "channel": 3,
      "note": 77,
      "start": 60.9592,
      "duration": 0.0087,
      "velocity": 89,
      "chip": "ym2612"
    },
    {
      "channel": 4,
      "note": 72,
      "start": 60.9595,
      "duration": 0.0085,
      "velocity": 89,
      "chip": "ym2612"
    },
    {
      "channel": 0,
      "note": 67,
      "start": 60.9871,
      "duration": 0.1054,
      "velocity": 112,
      "chip": "ym2612"
    },
    {
      "channel": 3,
      "note": 77,
      "start": 60.9876,
      "duration": 0.0069,
      "velocity": 89,
      "chip": "ym2612"
    },
    {
      "channel": 4,
      "note": 72,
      "start": 60.9879,
      "duration": 0.0068,
      "velocity": 89,
      "chip": "ym2612"
    },
    {
      "channel": 3,
      "note": 77,
      "start": 61.0127,
      "duration": 0.0087,
      "velocity": 89,
      "chip": "ym2612"
    },
    {
      "channel": 4,
      "note": 72,
      "start": 61.0132,
      "duration": 0.0083,
      "velocity": 89,
      "chip": "ym2612"
    },
    {
      "channel": 3,
      "note": 77,
      "start": 61.0395,
      "duration": 0.0087,
      "velocity": 89,
      "chip": "ym2612"
    },
    {
      "channel": 4,
      "note": 72,
      "start": 61.0398,
      "duration": 0.0085,
      "velocity": 89,
      "chip": "ym2612"
    },
    {
      "channel": 3,
      "note": 77,
      "start": 61.0663,
      "duration": 0.0087,
      "velocity": 89,
      "chip": "ym2612"
    },
    {
      "channel": 4,
      "note": 72,
      "start": 61.0666,
      "duration": 0.0085,
      "velocity": 89,
      "chip": "ym2612"
    },
    {
      "channel": 0,
      "note": 32,
      "start": 61.0945,
      "duration": 0.1141,
      "velocity": 127,
      "chip": "ym2612"
    },
    {
      "channel": 1,
      "note": 58,
      "start": 61.0949,
      "duration": 0.3012,
      "velocity": 50,
      "chip": "ym2612"
    },
    {
      "channel": 3,
      "note": 82,
      "start": 61.0967,
      "duration": 0.0051,
      "velocity": 89,
      "chip": "ym2612"
    },
    {
      "channel": 4,
      "note": 77,
      "start": 61.097,
      "duration": 0.0049,
      "velocity": 89,
      "chip": "ym2612"
    },
    {
      "channel": 5,
      "note": 83,
      "start": 61.0988,
      "duration": 0.1124,
      "velocity": 53,
      "chip": "ym2612"
    },
    {
      "channel": 3,
      "note": 82,
      "start": 61.1199,
      "duration": 0.0087,
      "velocity": 89,
      "chip": "ym2612"
    },
    {
      "channel": 4,
      "note": 77,
      "start": 61.1202,
      "duration": 0.0085,
      "velocity": 89,
      "chip": "ym2612"
    },
    {
      "channel": 3,
      "note": 82,
      "start": 61.1467,
      "duration": 0.0087,
      "velocity": 89,
      "chip": "ym2612"
    },
    {
      "channel": 4,
      "note": 77,
      "start": 61.147,
      "duration": 0.0085,
      "velocity": 89,
      "chip": "ym2612"
    },
    {
      "channel": 3,
      "note": 82,
      "start": 61.1736,
      "duration": 0.0085,
      "velocity": 89,
      "chip": "ym2612"
    },
    {
      "channel": 4,
      "note": 77,
      "start": 61.1739,
      "duration": 0.0084,
      "velocity": 89,
      "chip": "ym2612"
    },
    {
      "channel": 0,
      "note": 75,
      "start": 61.2103,
      "duration": 0.1054,
      "velocity": 127,
      "chip": "ym2612"
    },
    {
      "channel": 3,
      "note": 82,
      "start": 61.2108,
      "duration": 0.0069,
      "velocity": 89,
      "chip": "ym2612"
    },
    {
      "channel": 4,
      "note": 77,
      "start": 61.2111,
      "duration": 0.0068,
      "velocity": 89,
      "chip": "ym2612"
    },
    {
      "channel": 5,
      "note": 75,
      "start": 61.2132,
      "duration": 0.1046,
      "velocity": 127,
      "chip": "ym2612"
    },
    {
      "channel": 3,
      "note": 82,
      "start": 61.2359,
      "duration": 0.0087,
      "velocity": 89,
      "chip": "ym2612"
    },
    {
      "channel": 4,
      "note": 77,
      "start": 61.2362,
      "duration": 0.0085,
      "velocity": 89,
      "chip": "ym2612"
    },
    {
      "channel": 3,
      "note": 82,
      "start": 61.2627,
      "duration": 0.0087,
      "velocity": 89,
      "chip": "ym2612"
    },
    {
      "channel": 4,
      "note": 77,
      "start": 61.2632,
      "duration": 0.0083,
      "velocity": 89,
      "chip": "ym2612"
    },
    {
      "channel": 3,
      "note": 82,
      "start": 61.2894,
      "duration": 0.0087,
      "velocity": 89,
      "chip": "ym2612"
    },
    {
      "channel": 4,
      "note": 77,
      "start": 61.2897,
      "duration": 0.0085,
      "velocity": 89,
      "chip": "ym2612"
    },
    {
      "channel": 0,
      "note": 75,
      "start": 61.3175,
      "duration": 0.1056,
      "velocity": 127,
      "chip": "ym2612"
    },
    {
      "channel": 5,
      "note": 66,
      "start": 61.3196,
      "duration": 0.2129,
      "velocity": 127,
      "chip": "ym2612"
    },
    {
      "channel": 0,
      "note": 66,
      "start": 61.4248,
      "duration": 0.1053,
      "velocity": 127,
      "chip": "ym2612"
    },
    {
      "channel": 1,
      "note": 58,
      "start": 61.4251,
      "duration": 0.2924,
      "velocity": 50,
      "chip": "ym2612"
    },
    {
      "channel": 3,
      "note": 78,
      "start": 61.4255,
      "duration": 0.0065,
      "velocity": 89,
      "chip": "ym2612"
    },
    {
      "channel": 4,
      "note": 73,
      "start": 61.4258,
      "duration": 0.0064,
      "velocity": 89,
      "chip": "ym2612"
    },
    {
      "channel": 3,
      "note": 78,
      "start": 61.4502,
      "duration": 0.0086,
      "velocity": 89,
      "chip": "ym2612"
    },
    {
      "channel": 4,
      "note": 73,
      "start": 61.4505,
      "duration": 0.0085,
      "velocity": 89,
      "chip": "ym2612"
    },
    {
      "channel": 3,
      "note": 78,
      "start": 61.4769,
      "duration": 0.0087,
      "velocity": 89,
      "chip": "ym2612"
    },
    {
      "channel": 4,
      "note": 73,
      "start": 61.4772,
      "duration": 0.0085,
      "velocity": 89,
      "chip": "ym2612"
    },
    {
      "channel": 3,
      "note": 78,
      "start": 61.5037,
      "duration": 0.0087,
      "velocity": 89,
      "chip": "ym2612"
    },
    {
      "channel": 4,
      "note": 73,
      "start": 61.504,
      "duration": 0.0085,
      "velocity": 89,
      "chip": "ym2612"
    },
    {
      "channel": 0,
      "note": 67,
      "start": 61.5317,
      "duration": 0.1054,
      "velocity": 112,
      "chip": "ym2612"
    },
    {
      "channel": 3,
      "note": 78,
      "start": 61.5322,
      "duration": 0.0069,
      "velocity": 89,
      "chip": "ym2612"
    },
    {
      "channel": 4,
      "note": 73,
      "start": 61.5325,
      "duration": 0.0068,
      "velocity": 89,
      "chip": "ym2612"
    },
    {
      "channel": 5,
      "note": 83,
      "start": 61.5346,
      "duration": 0.1046,
      "velocity": 53,
      "chip": "ym2612"
    },
    {
      "channel": 3,
      "note": 78,
      "start": 61.5573,
      "duration": 0.0087,
      "velocity": 89,
      "chip": "ym2612"
    },
    {
      "channel": 4,
      "note": 73,
      "start": 61.5576,
      "duration": 0.0085,
      "velocity": 89,
      "chip": "ym2612"
    },
    {
      "channel": 3,
      "note": 78,
      "start": 61.5841,
      "duration": 0.0089,
      "velocity": 89,
      "chip": "ym2612"
    },
    {
      "channel": 4,
      "note": 73,
      "start": 61.5844,
      "duration": 0.0088,
      "velocity": 89,
      "chip": "ym2612"
    },
    {
      "channel": 3,
      "note": 78,
      "start": 61.6108,
      "duration": 0.0087,
      "velocity": 89,
      "chip": "ym2612"
    },
    {
      "channel": 4,
      "note": 73,
      "start": 61.6111,
      "duration": 0.0085,
      "velocity": 89,
      "chip": "ym2612"
    },
    {
      "channel": 0,
      "note": 75,
      "start": 61.6389,
      "duration": 0.1054,
      "velocity": 127,
      "chip": "ym2612"
    },
    {
      "channel": 5,
      "note": 75,
      "start": 61.641,
      "duration": 0.1045,
      "velocity": 127,
      "chip": "ym2612"
    },
    {
      "channel": 0,
      "note": 75,
      "start": 61.7446,
      "duration": 0.1069,
      "velocity": 127,
      "chip": "ym2612"
    },
    {
      "channel": 1,
      "note": 61,
      "start": 61.7449,
      "duration": 0.1869,
      "velocity": 50,
      "chip": "ym2612"
    },
    {
      "channel": 3,
      "note": 77,
      "start": 61.7453,
      "duration": 0.0082,
      "velocity": 89,
      "chip": "ym2612"
    },
    {
      "channel": 4,
      "note": 72,
      "start": 61.7455,
      "duration": 0.0081,
      "velocity": 89,
      "chip": "ym2612"
    },
    {
      "channel": 5,
      "note": 66,
      "start": 61.7473,
      "duration": 0.2149,
      "velocity": 127,
      "chip": "ym2612"
    },
    {
      "channel": 3,
      "note": 77,
      "start": 61.7715,
      "duration": 0.0087,
      "velocity": 89,
      "chip": "ym2612"
    },
    {
      "channel": 4,
      "note": 72,
      "start": 61.7718,
      "duration": 0.0085,
      "velocity": 89,
      "chip": "ym2612"
    },
    {
      "channel": 3,
      "note": 77,
      "start": 61.7983,
      "duration": 0.0087,
      "velocity": 89,
      "chip": "ym2612"
    },
    {
      "channel": 4,
      "note": 72,
      "start": 61.7986,
      "duration": 0.0085,
      "velocity": 89,
      "chip": "ym2612"
    },
    {
      "channel": 3,
      "note": 77,
      "start": 61.8251,
      "duration": 0.0087,
      "velocity": 89,
      "chip": "ym2612"
    },
    {
      "channel": 4,
      "note": 72,
      "start": 61.8254,
      "duration": 0.0085,
      "velocity": 89,
      "chip": "ym2612"
    },
    {
      "channel": 0,
      "note": 66,
      "start": 61.8534,
      "duration": 0.1052,
      "velocity": 127,
      "chip": "ym2612"
    },
    {
      "channel": 3,
      "note": 77,
      "start": 61.8539,
      "duration": 0.0067,
      "velocity": 89,
      "chip": "ym2612"
    },
    {
      "channel": 4,
      "note": 72,
      "start": 61.8542,
      "duration": 0.0065,
      "velocity": 89,
      "chip": "ym2612"
    },
    {
      "channel": 3,
      "note": 77,
      "start": 61.8787,
      "duration": 0.0087,
      "velocity": 89,
      "chip": "ym2612"
    },
    {
      "channel": 4,
      "note": 72,
      "start": 61.879,
      "duration": 0.0085,
      "velocity": 89,
      "chip": "ym2612"
    },
    {
      "channel": 3,
      "note": 77,
      "start": 61.9055,
      "duration": 0.0087,
      "velocity": 89,
      "chip": "ym2612"
    },
    {
      "channel": 4,
      "note": 72,
      "start": 61.9058,
      "duration": 0.0085,
      "velocity": 89,
      "chip": "ym2612"
    },
    {
      "channel": 3,
      "note": 77,
      "start": 61.9323,
      "duration": 0.0087,
      "velocity": 89,
      "chip": "ym2612"
    },
    {
      "channel": 4,
      "note": 72,
      "start": 61.9326,
      "duration": 0.0085,
      "velocity": 89,
      "chip": "ym2612"
    },
    {
      "channel": 0,
      "note": 32,
      "start": 61.9603,
      "duration": 0.8554,
      "velocity": 127,
      "chip": "ym2612"
    },
    {
      "channel": 2,
      "note": 48,
      "start": 61.9621,
      "duration": 0.0771,
      "velocity": 127,
      "chip": "ym2612"
    },
    {
      "channel": 5,
      "note": 78,
      "start": 61.9642,
      "duration": 0.1022,
      "velocity": 127,
      "chip": "ym2612"
    },
    {
      "channel": 2,
      "note": 48,
      "start": 62.0662,
      "duration": 0.0801,
      "velocity": 127,
      "chip": "ym2612"
    },
    {
      "channel": 2,
      "note": 46,
      "start": 62.1735,
      "duration": 0.0799,
      "velocity": 127,
      "chip": "ym2612"
    },
    {
      "channel": 2,
      "note": 46,
      "start": 62.2804,
      "duration": 0.0801,
      "velocity": 127,
      "chip": "ym2612"
    },
    {
      "channel": 5,
      "note": 78,
      "start": 62.2808,
      "duration": 0.107,
      "velocity": 127,
      "chip": "ym2612"
    },
    {
      "channel": 2,
      "note": 49,
      "start": 62.3876,
      "duration": 0.0801,
      "velocity": 127,
      "chip": "ym2612"
    },
    {
      "channel": 2,
      "note": 49,
      "start": 62.4947,
      "duration": 0.0801,
      "velocity": 127,
      "chip": "ym2612"
    },
    {
      "channel": 2,
      "note": 46,
      "start": 62.6019,
      "duration": 0.0801,
      "velocity": 127,
      "chip": "ym2612"
    },
    {
      "channel": 5,
      "note": 78,
      "start": 62.6023,
      "duration": 0.107,
      "velocity": 127,
      "chip": "ym2612"
    },
    {
      "channel": 2,
      "note": 46,
      "start": 62.709,
      "duration": 0.0801,
      "velocity": 127,
      "chip": "ym2612"
    },
    {
      "channel": 2,
      "note": 48,
      "start": 62.8161,
      "duration": 0.0802,
      "velocity": 127,
      "chip": "ym2612"
    },
    {
      "channel": 2,
      "note": 48,
      "start": 62.9235,
      "duration": 0.0798,
      "velocity": 127,
      "chip": "ym2612"
    },
    {
      "channel": 2,
      "note": 46,
      "start": 63.0304,
      "duration": 0.0801,
      "velocity": 127,
      "chip": "ym2612"
    },
    {
      "channel": 2,
      "note": 46,
      "start": 63.1375,
      "duration": 0.0801,
      "velocity": 127,
      "chip": "ym2612"
    },
    {
      "channel": 2,
      "note": 42,
      "start": 63.2447,
      "duration": 0.0801,
      "velocity": 127,
      "chip": "ym2612"
    },
    {
      "channel": 5,
      "note": 66,
      "start": 63.2451,
      "duration": 0.107,
      "velocity": 127,
      "chip": "ym2612"
    },
    {
      "channel": 2,
      "note": 42,
      "start": 63.3518,
      "duration": 0.0801,
      "velocity": 127,
      "chip": "ym2612"
    },
    {
      "channel": 2,
      "note": 46,
      "start": 63.4679,
      "duration": 0.0801,
      "velocity": 127,
      "chip": "ym2612"
    },
    {
      "channel": 2,
      "note": 46,
      "start": 63.575,
      "duration": 0.0801,
      "velocity": 127,
      "chip": "ym2612"
    },
    {
      "channel": 2,
      "note": 48,
      "start": 63.682,
      "duration": 0.0802,
      "velocity": 127,
      "chip": "ym2612"
    },
    {
      "channel": 5,
      "note": 78,
      "start": 63.6823,
      "duration": 0.1072,
      "velocity": 127,
      "chip": "ym2612"
    },
    {
      "channel": 2,
      "note": 48,
      "start": 63.7893,
      "duration": 0.0801,
      "velocity": 127,
      "chip": "ym2612"
    },
    {
      "channel": 2,
      "note": 46,
      "start": 63.8964,
      "duration": 0.0801,
      "velocity": 127,
      "chip": "ym2612"
    },
    {
      "channel": 2,
      "note": 46,
      "start": 64.0035,
      "duration": 0.0801,
      "velocity": 127,
      "chip": "ym2612"
    },
    {
      "channel": 5,
      "note": 78,
      "start": 64.0039,
      "duration": 0.107,
      "velocity": 127,
      "chip": "ym2612"
    },
    {
      "channel": 2,
      "note": 49,
      "start": 64.1107,
      "duration": 0.0801,
      "velocity": 127,
      "chip": "ym2612"
    },
    {
      "channel": 2,
      "note": 49,
      "start": 64.2178,
      "duration": 0.0801,
      "velocity": 127,
      "chip": "ym2612"
    },
    {
      "channel": 2,
      "note": 46,
      "start": 64.3249,
      "duration": 0.0801,
      "velocity": 127,
      "chip": "ym2612"
    },
    {
      "channel": 5,
      "note": 78,
      "start": 64.3254,
      "duration": 0.107,
      "velocity": 127,
      "chip": "ym2612"
    },
    {
      "channel": 2,
      "note": 46,
      "start": 64.4321,
      "duration": 0.0801,
      "velocity": 127,
      "chip": "ym2612"
    },
    {
      "channel": 2,
      "note": 48,
      "start": 64.5391,
      "duration": 0.0802,
      "velocity": 127,
      "chip": "ym2612"
    },
    {
      "channel": 2,
      "note": 48,
      "start": 64.6464,
      "duration": 0.0801,
      "velocity": 127,
      "chip": "ym2612"
    },
    {
      "channel": 2,
      "note": 46,
      "start": 64.7535,
      "duration": 0.0801,
      "velocity": 127,
      "chip": "ym2612"
    },
    {
      "channel": 2,
      "note": 46,
      "start": 64.8606,
      "duration": 0.0801,
      "velocity": 127,
      "chip": "ym2612"
    },
    {
      "channel": 2,
      "note": 42,
      "start": 64.9678,
      "duration": 0.0801,
      "velocity": 127,
      "chip": "ym2612"
    },
    {
      "channel": 5,
      "note": 66,
      "start": 64.9682,
      "duration": 0.107,
      "velocity": 127,
      "chip": "ym2612"
    },
    {
      "channel": 2,
      "note": 42,
      "start": 65.0749,
      "duration": 0.0801,
      "velocity": 127,
      "chip": "ym2612"
    },
    {
      "channel": 2,
      "note": 46,
      "start": 65.182,
      "duration": 0.0801,
      "velocity": 127,
      "chip": "ym2612"
    },
    {
      "channel": 2,
      "note": 46,
      "start": 65.2892,
      "duration": 0.0801,
      "velocity": 127,
      "chip": "ym2612"
    },
    {
      "channel": 1,
      "note": 32,
      "start": 65.3976,
      "duration": 0.409,
      "velocity": 127,
      "chip": "ym2612"
    },
    {
      "channel": 2,
      "note": 48,
      "start": 65.3979,
      "duration": 0.0785,
      "velocity": 127,
      "chip": "ym2612"
    },
    {
      "channel": 3,
      "note": 27,
      "start": 65.3996,
      "duration": 0.4344,
      "velocity": 100,
      "chip": "ym2612"
    },
    {
      "channel": 4,
      "note": 22,
      "start": 65.4013,
      "duration": 0.8614,
      "velocity": 100,
      "chip": "ym2612"
    },
    {
      "channel": 5,
      "note": 78,
      "start": 65.4016,
      "duration": 0.1022,
      "velocity": 127,
      "chip": "ym2612"
    },
    {
      "channel": 2,
      "note": 48,
      "start": 65.5035,
      "duration": 0.0801,
      "velocity": 127,
      "chip": "ym2612"
    },
    {
      "channel": 2,
      "note": 46,
      "start": 65.6106,
      "duration": 0.089,
      "velocity": 127,
      "chip": "ym2612"
    },
    {
      "channel": 2,
      "note": 46,
      "start": 65.7266,
      "duration": 0.0802,
      "velocity": 127,
      "chip": "ym2612"
    },
    {
      "channel": 5,
      "note": 78,
      "start": 65.7271,
      "duration": 0.1073,
      "velocity": 127,
      "chip": "ym2612"
    },
    {
      "channel": 1,
      "note": 32,
      "start": 65.8337,
      "duration": 0.4015,
      "velocity": 127,
      "chip": "ym2612"
    },
    {
      "channel": 2,
      "note": 49,
      "start": 65.834,
      "duration": 0.0799,
      "velocity": 127,
      "chip": "ym2612"
    },
    {
      "channel": 3,
      "note": 34,
      "start": 65.8343,
      "duration": 0.4282,
      "velocity": 100,
      "chip": "ym2612"
    },
    {
      "channel": 2,
      "note": 49,
      "start": 65.9409,
      "duration": 0.0801,
      "velocity": 127,
      "chip": "ym2612"
    },
    {
      "channel": 2,
      "note": 46,
      "start": 66.048,
      "duration": 0.0801,
      "velocity": 127,
      "chip": "ym2612"
    },
    {
      "channel": 5,
      "note": 78,
      "start": 66.0485,
      "duration": 0.107,
      "velocity": 127,
      "chip": "ym2612"
    },
    {
      "channel": 2,
      "note": 46,
      "start": 66.1552,
      "duration": 0.0802,
      "velocity": 127,
      "chip": "ym2612"
    },
    {
      "channel": 1,
      "note": 32,
      "start": 66.2621,
      "duration": 0.4016,
      "velocity": 127,
      "chip": "ym2612"
    },
    {
      "channel": 2,
      "note": 48,
      "start": 66.2624,
      "duration": 0.08,
      "velocity": 127,
      "chip": "ym2612"
    },
    {
      "channel": 3,
      "note": 39,
      "start": 66.2627,
      "duration": 0.4284,
      "velocity": 100,
      "chip": "ym2612"
    },
    {
      "channel": 4,
      "note": 29,
      "start": 66.2632,
      "duration": 0.8584,
      "velocity": 100,
      "chip": "ym2612"
    },
    {
      "channel": 2,
      "note": 48,
      "start": 66.3695,
      "duration": 0.0801,
      "velocity": 127,
      "chip": "ym2612"
    },
    {
      "channel": 2,
      "note": 46,
      "start": 66.4766,
      "duration": 0.0801,
      "velocity": 127,
      "chip": "ym2612"
    },
    {
      "channel": 2,
      "note": 46,
      "start": 66.5838,
      "duration": 0.0801,
      "velocity": 127,
      "chip": "ym2612"
    },
    {
      "channel": 1,
      "note": 32,
      "start": 66.6908,
      "duration": 0.4015,
      "velocity": 127,
      "chip": "ym2612"
    },
    {
      "channel": 2,
      "note": 42,
      "start": 66.6911,
      "duration": 0.0799,
      "velocity": 127,
      "chip": "ym2612"
    },
    {
      "channel": 3,
      "note": 46,
      "start": 66.6913,
      "duration": 0.43,
      "velocity": 100,
      "chip": "ym2612"
    },
    {
      "channel": 5,
      "note": 66,
      "start": 66.6916,
      "duration": 0.1066,
      "velocity": 127,
      "chip": "ym2612"
    },
    {
      "channel": 2,
      "note": 42,
      "start": 66.798,
      "duration": 0.0801,
      "velocity": 127,
      "chip": "ym2612"
    },
    {
      "channel": 2,
      "note": 46,
      "start": 66.9051,
      "duration": 0.0801,
      "velocity": 127,
      "chip": "ym2612"
    },
    {
      "channel": 2,
      "note": 46,
      "start": 67.0123,
      "duration": 0.0801,
      "velocity": 127,
      "chip": "ym2612"
    },
    {
      "channel": 0,
      "note": 67,
      "start": 67.1206,
      "duration": 0.1055,
      "velocity": 112,
      "chip": "ym2612"
    },
    {
      "channel": 1,
      "note": 32,
      "start": 67.1209,
      "duration": 0.3998,
      "velocity": 127,
      "chip": "ym2612"
    },
    {
      "channel": 2,
      "note": 48,
      "start": 67.1212,
      "duration": 0.0782,
      "velocity": 127,
      "chip": "ym2612"
    },
    {
      "channel": 3,
      "note": 51,
      "start": 67.1215,
      "duration": 0.4284,
      "velocity": 100,
      "chip": "ym2612"
    },
    {
      "channel": 4,
      "note": 51,
      "start": 67.1217,
      "duration": 0.8658,
      "velocity": 100,
      "chip": "ym2612"
    },
    {
      "channel": 5,
      "note": 78,
      "start": 67.122,
      "duration": 0.1065,
      "velocity": 127,
      "chip": "ym2612"
    },
    {
      "channel": 0,
      "note": 67,
      "start": 67.2278,
      "duration": 0.1054,
      "velocity": 112,
      "chip": "ym2612"
    },
    {
      "channel": 2,
      "note": 48,
      "start": 67.2282,
      "duration": 0.0783,
      "velocity": 127,
      "chip": "ym2612"
    },
    {
      "channel": 0,
      "note": 67,
      "start": 67.335,
      "duration": 0.1054,
      "velocity": 112,
      "chip": "ym2612"
    },
    {
      "channel": 2,
      "note": 46,
      "start": 67.3354,
      "duration": 0.0783,
      "velocity": 127,
      "chip": "ym2612"
    },
    {
      "channel": 0,
      "note": 67,
      "start": 67.4421,
      "duration": 0.1054,
      "velocity": 112,
      "chip": "ym2612"
    },
    {
      "channel": 2,
      "note": 46,
      "start": 67.4425,
      "duration": 0.0784,
      "velocity": 127,
      "chip": "ym2612"
    },
    {
      "channel": 5,
      "note": 78,
      "start": 67.4431,
      "duration": 0.1071,
      "velocity": 127,
      "chip": "ym2612"
    },
    {
      "channel": 0,
      "note": 67,
      "start": 67.5492,
      "duration": 0.1054,
      "velocity": 112,
      "chip": "ym2612"
    },
    {
      "channel": 1,
      "note": 32,
      "start": 67.5495,
      "duration": 0.4087,
      "velocity": 127,
      "chip": "ym2612"
    },
    {
      "channel": 2,
      "note": 49,
      "start": 67.5498,
      "duration": 0.0782,
      "velocity": 127,
      "chip": "ym2612"
    },
    {
      "channel": 3,
      "note": 58,
      "start": 67.5501,
      "duration": 0.4372,
      "velocity": 100,
      "chip": "ym2612"
    },
    {
      "channel": 0,
      "note": 67,
      "start": 67.6564,
      "duration": 0.1054,
      "velocity": 112,
      "chip": "ym2612"
    },
    {
      "channel": 2,
      "note": 49,
      "start": 67.6568,
      "duration": 0.0783,
      "velocity": 127,
      "chip": "ym2612"
    },
    {
      "channel": 0,
      "note": 67,
      "start": 67.7637,
      "duration": 0.1052,
      "velocity": 112,
      "chip": "ym2612"
    },
    {
      "channel": 2,
      "note": 46,
      "start": 67.7641,
      "duration": 0.0781,
      "velocity": 127,
      "chip": "ym2612"
    },
    {
      "channel": 5,
      "note": 78,
      "start": 67.7646,
      "duration": 0.1067,
      "velocity": 127,
      "chip": "ym2612"
    },
    {
      "channel": 0,
      "note": 67,
      "start": 67.8706,
      "duration": 0.1144,
      "velocity": 112,
      "chip": "ym2612"
    },
    {
      "channel": 2,
      "note": 46,
      "start": 67.871,
      "duration": 0.0873,
      "velocity": 127,
      "chip": "ym2612"
    },
    {
      "channel": 0,
      "note": 67,
      "start": 67.9867,
      "duration": 0.1054,
      "velocity": 112,
      "chip": "ym2612"
    },
    {
      "channel": 1,
      "note": 32,
      "start": 67.987,
      "duration": 0.3998,
      "velocity": 127,
      "chip": "ym2612"
    },
    {
      "channel": 2,
      "note": 48,
      "start": 67.9873,
      "duration": 0.0782,
      "velocity": 127,
      "chip": "ym2612"
    },
    {
      "channel": 3,
      "note": 63,
      "start": 67.9875,
      "duration": 0.4283,
      "velocity": 100,
      "chip": "ym2612"
    },
    {
      "channel": 4,
      "note": 58,
      "start": 67.9878,
      "duration": 0.8599,
      "velocity": 100,
      "chip": "ym2612"
    },
    {
      "channel": 0,
      "note": 67,
      "start": 68.0941,
      "duration": 0.1052,
      "velocity": 112,
      "chip": "ym2612"
    },
    {
      "channel": 2,
      "note": 48,
      "start": 68.0945,
      "duration": 0.0781,
      "velocity": 127,
      "chip": "ym2612"
    },
    {
      "channel": 0,
      "note": 67,
      "start": 68.201,
      "duration": 0.1054,
      "velocity": 112,
      "chip": "ym2612"
    },
    {
      "channel": 2,
      "note": 46,
      "start": 68.2014,
      "duration": 0.0783,
      "velocity": 127,
      "chip": "ym2612"
    },
    {
      "channel": 0,
      "note": 67,
      "start": 68.3081,
      "duration": 0.1054,
      "velocity": 112,
      "chip": "ym2612"
    },
    {
      "channel": 2,
      "note": 46,
      "start": 68.3085,
      "duration": 0.0784,
      "velocity": 127,
      "chip": "ym2612"
    },
    {
      "channel": 0,
      "note": 67,
      "start": 68.4152,
      "duration": 0.0519,
      "velocity": 112,
      "chip": "ym2612"
    },
    {
      "channel": 1,
      "note": 32,
      "start": 68.4155,
      "duration": 0.3998,
      "velocity": 127,
      "chip": "ym2612"
    },
    {
      "channel": 2,
      "note": 42,
      "start": 68.4158,
      "duration": 0.0782,
      "velocity": 127,
      "chip": "ym2612"
    },
    {
      "channel": 3,
      "note": 70,
      "start": 68.4161,
      "duration": 0.4299,
      "velocity": 100,
      "chip": "ym2612"
    },
    {
      "channel": 5,
      "note": 66,
      "start": 68.4164,
      "duration": 0.1069,
      "velocity": 127,
      "chip": "ym2612"
    },
    {
      "channel": 0,
      "note": 67,
      "start": 68.4688,
      "duration": 0.0518,
      "velocity": 112,
      "chip": "ym2612"
    },
    {
      "channel": 0,
      "note": 67,
      "start": 68.5224,
      "duration": 0.0519,
      "velocity": 112,
      "chip": "ym2612"
    },
    {
      "channel": 2,
      "note": 42,
      "start": 68.523,
      "duration": 0.0781,
      "velocity": 127,
      "chip": "ym2612"
    },
    {
      "channel": 0,
      "note": 67,
      "start": 68.5759,
      "duration": 0.0519,
      "velocity": 112,
      "chip": "ym2612"
    },
    {
      "channel": 0,
      "note": 67,
      "start": 68.6295,
      "duration": 0.0518,
      "velocity": 112,
      "chip": "ym2612"
    },
    {
      "channel": 2,
      "note": 46,
      "start": 68.6299,
      "duration": 0.0783,
      "velocity": 127,
      "chip": "ym2612"
    },
    {
      "channel": 0,
      "note": 67,
      "start": 68.6834,
      "duration": 0.0516,
      "velocity": 112,
      "chip": "ym2612"
    },
    {
      "channel": 0,
      "note": 67,
      "start": 68.7366,
      "duration": 0.0519,
      "velocity": 112,
      "chip": "ym2612"
    },
    {
      "channel": 2,
      "note": 46,
      "start": 68.7371,
      "duration": 0.0784,
      "velocity": 127,
      "chip": "ym2612"
    },
    {
      "channel": 0,
      "note": 67,
      "start": 68.7902,
      "duration": 0.0518,
      "velocity": 112,
      "chip": "ym2612"
    },
    {
      "channel": 0,
      "note": 32,
      "start": 68.8441,
      "duration": 0.1051,
      "velocity": 107,
      "chip": "ym2612"
    },
    {
      "channel": 1,
      "note": 48,
      "start": 68.8458,
      "duration": 0.1034,
      "velocity": 91,
      "chip": "ym2612"
    },
    {
      "channel": 3,
      "note": 60,
      "start": 68.8476,
      "duration": 0.1016,
      "velocity": 100,
      "chip": "ym2612"
    },
    {
      "channel": 5,
      "note": 75,
      "start": 68.8509,
      "duration": 0.0983,
      "velocity": 91,
      "chip": "ym2612"
    }
  ]
}