{
  "track_name": "04 - Crystal Space II",
  "duration_sec": 215.117,
  "sample_rate": 44100,
  "note_count": 4699,
  "unique_pitches": 59,
  "pitch_range": 92,
  "avg_note_duration": 0.2447,
  "reconstruction_stats": {
    "notes_reconstructed": 4699,
    "keyon_events": 4699,
    "keyoff_events": 4693,
    "orphan_keyons": 6,
    "unique_pitches": 59,
    "pitch_range": 92,
    "avg_duration_sec": 0.2447
  },
  "metadata": {
    "source": "S\\Sub-Terrania\\04 - Crystal Space II.vgz"
  },
  "notes": [
    {
      "channel": 0,
      "note": -1,
      "start": 0.0,
      "duration": 0.0,
      "velocity": 1,
      "chip": "ym2612"
    },
    {
      "channel": 0,
      "note": 33,
      "start": 0.0,
      "duration": 2.3823,
      "velocity": 108,
      "chip": "ym2612"
    },
    {
      "channel": 1,
      "note": -1,
      "start": 0.0,
      "duration": 0.0,
      "velocity": 1,
      "chip": "ym2612"
    },
    {
      "channel": 2,
      "note": -1,
      "start": 0.0,
      "duration": 0.0,
      "velocity": 1,
      "chip": "ym2612"
    },
    {
      "channel": 3,
      "note": -1,
      "start": 0.0,
      "duration": 0.0,
      "velocity": 1,
      "chip": "ym2612"
    },
    {
      "channel": 4,
      "note": -1,
      "start": 0.0,
      "duration": 0.0,
      "velocity": 1,
      "chip": "ym2612"
    },
    {
      "channel": 5,
      "note": -1,
      "start": 0.0,
      "duration": 0.0,
      "velocity": 1,
      "chip": "ym2612"
    },
    {
      "channel": 1,
      "note": 33,
      "start": 0.0012,
      "duration": 0.0812,
      "velocity": 117,
      "chip": "ym2612"
    },
    {
      "channel": 2,
      "note": 69,
      "start": 0.0024,
      "duration": 0.1466,
      "velocity": 59,
      "chip": "ym2612"
    },
    {
      "channel": 3,
      "note": 21,
      "start": 0.0036,
      "duration": 3.5062,
      "velocity": 124,
      "chip": "ym2612"
    },
    {
      "channel": 4,
      "note": 7,
      "start": 0.0049,
      "duration": 2.3136,
      "velocity": 1,
      "chip": "ym2612"
    },
    {
      "channel": 5,
      "note": 7,
      "start": 0.0061,
      "duration": 2.3128,
      "velocity": 1,
      "chip": "ym2612"
    },
    {
      "channel": 1,
      "note": 33,
      "start": 0.1488,
      "duration": 0.0826,
      "velocity": 117,
      "chip": "ym2612"
    },
    {
      "channel": 2,
      "note": 69,
      "start": 0.15,
      "duration": 0.1478,
      "velocity": 63,
      "chip": "ym2612"
    },
    {
      "channel": 1,
      "note": 33,
      "start": 0.2977,
      "duration": 0.0826,
      "velocity": 117,
      "chip": "ym2612"
    },
    {
      "channel": 2,
      "note": 69,
      "start": 0.299,
      "duration": 0.148,
      "velocity": 59,
      "chip": "ym2612"
    },
    {
      "channel": 1,
      "note": 45,
      "start": 0.4467,
      "duration": 0.0826,
      "velocity": 117,
      "chip": "ym2612"
    },
    {
      "channel": 2,
      "note": 69,
      "start": 0.4473,
      "duration": 0.1485,
      "velocity": 59,
      "chip": "ym2612"
    },
    {
      "channel": 1,
      "note": 33,
      "start": 0.5957,
      "duration": 0.0827,
      "velocity": 117,
      "chip": "ym2612"
    },
    {
      "channel": 2,
      "note": 69,
      "start": 0.5969,
      "duration": 0.1479,
      "velocity": 63,
      "chip": "ym2612"
    },
    {
      "channel": 1,
      "note": 45,
      "start": 0.7447,
      "duration": 0.0826,
      "velocity": 117,
      "chip": "ym2612"
    },
    {
      "channel": 2,
      "note": 69,
      "start": 0.7459,
      "duration": 0.1479,
      "velocity": 59,
      "chip": "ym2612"
    },
    {
      "channel": 1,
      "note": 33,
      "start": 0.8937,
      "duration": 0.0826,
      "velocity": 117,
      "chip": "ym2612"
    },
    {
      "channel": 2,
      "note": 69,
      "start": 0.8943,
      "duration": 0.1485,
      "velocity": 59,
      "chip": "ym2612"
    },
    {
      "channel": 1,
      "note": 45,
      "start": 1.0427,
      "duration": 0.0826,
      "velocity": 117,
      "chip": "ym2612"
    },
    {
      "channel": 2,
      "note": 69,
      "start": 1.0439,
      "duration": 0.0649,
      "velocity": 63,
      "chip": "ym2612"
    },
    {
      "channel": 2,
      "note": 81,
      "start": 1.1099,
      "duration": 0.0819,
      "velocity": 59,
      "chip": "ym2612"
    },
    {
      "channel": 1,
      "note": 33,
      "start": 1.1916,
      "duration": 0.0826,
      "velocity": 117,
      "chip": "ym2612"
    },
    {
      "channel": 2,
      "note": 74,
      "start": 1.1922,
      "duration": 0.1485,
      "velocity": 59,
      "chip": "ym2612"
    },
    {
      "channel": 1,
      "note": 33,
      "start": 1.3406,
      "duration": 0.0826,
      "velocity": 117,
      "chip": "ym2612"
    },
    {
      "channel": 2,
      "note": 69,
      "start": 1.3418,
      "duration": 0.1479,
      "velocity": 63,
      "chip": "ym2612"
    },
    {
      "channel": 1,
      "note": 33,
      "start": 1.4896,
      "duration": 0.1484,
      "velocity": 117,
      "chip": "ym2612"
    },
    {
      "channel": 2,
      "note": 69,
      "start": 1.4908,
      "duration": 0.1478,
      "velocity": 59,
      "chip": "ym2612"
    },
    {
      "channel": 1,
      "note": 45,
      "start": 1.6385,
      "duration": 0.0827,
      "velocity": 117,
      "chip": "ym2612"
    },
    {
      "channel": 2,
      "note": 69,
      "start": 1.6392,
      "duration": 0.1485,
      "velocity": 59,
      "chip": "ym2612"
    },
    {
      "channel": 1,
      "note": 33,
      "start": 1.7875,
      "duration": 0.0826,
      "velocity": 117,
      "chip": "ym2612"
    },
    {
      "channel": 2,
      "note": 69,
      "start": 1.7887,
      "duration": 0.1479,
      "velocity": 63,
      "chip": "ym2612"
    },
    {
      "channel": 1,
      "note": 33,
      "start": 1.9365,
      "duration": 0.0826,
      "velocity": 117,
      "chip": "ym2612"
    },
    {
      "channel": 2,
      "note": 69,
      "start": 1.9377,
      "duration": 0.1479,
      "velocity": 59,
      "chip": "ym2612"
    },
    {
      "channel": 1,
      "note": 33,
      "start": 2.0855,
      "duration": 0.0826,
      "velocity": 117,
      "chip": "ym2612"
    },
    {
      "channel": 2,
      "note": 69,
      "start": 2.0861,
      "duration": 0.1485,
      "velocity": 59,
      "chip": "ym2612"
    },
    {
      "channel": 1,
      "note": 33,
      "start": 2.2344,
      "duration": 0.0826,
      "velocity": 117,
      "chip": "ym2612"
    },
    {
      "channel": 2,
      "note": 69,
      "start": 2.2356,
      "duration": 0.148,
      "velocity": 63,
      "chip": "ym2612"
    },
    {
      "channel": 0,
      "note": 33,
      "start": 2.3829,
      "duration": 2.383,
      "velocity": 108,
      "chip": "ym2612"
    },
    {
      "channel": 1,
      "note": 33,
      "start": 2.3836,
      "duration": 0.0824,
      "velocity": 117,
      "chip": "ym2612"
    },
    {
      "channel": 2,
      "note": 69,
      "start": 2.3848,
      "duration": 0.1477,
      "velocity": 59,
      "chip": "ym2612"
    },
    {
      "channel": 4,
      "note": 7,
      "start": 2.3859,
      "duration": 2.3162,
      "velocity": 1,
      "chip": "ym2612"
    },
    {
      "channel": 5,
      "note": 7,
      "start": 2.3865,
      "duration": 2.316,
      "velocity": 1,
      "chip": "ym2612"
    },
    {
      "channel": 1,
      "note": 33,
      "start": 2.5323,
      "duration": 0.0826,
      "velocity": 117,
      "chip": "ym2612"
    },
    {
      "channel": 2,
      "note": 69,
      "start": 2.5336,
      "duration": 0.1479,
      "velocity": 63,
      "chip": "ym2612"
    },
    {
      "channel": 1,
      "note": 33,
      "start": 2.6813,
      "duration": 0.0826,
      "velocity": 117,
      "chip": "ym2612"
    },
    {
      "channel": 2,
      "note": 69,
      "start": 2.6825,
      "duration": 0.1479,
      "velocity": 59,
      "chip": "ym2612"
    },
    {
      "channel": 1,
      "note": 45,
      "start": 2.8303,
      "duration": 0.0826,
      "velocity": 117,
      "chip": "ym2612"
    },
    {
      "channel": 2,
      "note": 69,
      "start": 2.831,
      "duration": 0.1485,
      "velocity": 59,
      "chip": "ym2612"
    },
    {
      "channel": 1,
      "note": 33,
      "start": 2.9793,
      "duration": 0.0826,
      "velocity": 117,
      "chip": "ym2612"
    },
    {
      "channel": 2,
      "note": 69,
      "start": 2.9805,
      "duration": 0.1479,
      "velocity": 63,
      "chip": "ym2612"
    },
    {
      "channel": 1,
      "note": 45,
      "start": 3.1283,
      "duration": 0.0826,
      "velocity": 117,
      "chip": "ym2612"
    },
    {
      "channel": 2,
      "note": 69,
      "start": 3.1295,
      "duration": 0.1479,
      "velocity": 59,
      "chip": "ym2612"
    },
    {
      "channel": 1,
      "note": 33,
      "start": 3.2772,
      "duration": 0.0826,
      "velocity": 117,
      "chip": "ym2612"
    },
    {
      "channel": 2,
      "note": 69,
      "start": 3.2778,
      "duration": 0.1485,
      "velocity": 59,
      "chip": "ym2612"
    },
    {
      "channel": 1,
      "note": 45,
      "start": 3.4262,
      "duration": 0.0826,
      "velocity": 117,
      "chip": "ym2612"
    },
    {
      "channel": 2,
      "note": 69,
      "start": 3.4274,
      "duration": 0.1479,
      "velocity": 63,
      "chip": "ym2612"
    },
    {
      "channel": 1,
      "note": 33,
      "start": 3.5751,
      "duration": 0.0826,
      "velocity": 117,
      "chip": "ym2612"
    },
    {
      "channel": 2,
      "note": 69,
      "start": 3.5764,
      "duration": 0.1479,
      "velocity": 59,
      "chip": "ym2612"
    },
    {
      "channel": 3,
      "note": 19,
      "start": 3.577,
      "duration": 1.1246,
      "velocity": 124,
      "chip": "ym2612"
    },
    {
      "channel": 1,
      "note": 33,
      "start": 3.7241,
      "duration": 0.0827,
      "velocity": 117,
      "chip": "ym2612"
    },
    {
      "channel": 2,
      "note": 69,
      "start": 3.7254,
      "duration": 0.1479,
      "velocity": 63,
      "chip": "ym2612"
    },
    {
      "channel": 1,
      "note": 33,
      "start": 3.8731,
      "duration": 0.1485,
      "velocity": 117,
      "chip": "ym2612"
    },
    {
      "channel": 2,
      "note": 69,
      "start": 3.8743,
      "duration": 0.1479,
      "velocity": 59,
      "chip": "ym2612"
    },
    {
      "channel": 1,
      "note": 45,
      "start": 4.0221,
      "duration": 0.0826,
      "velocity": 117,
      "chip": "ym2612"
    },
    {
      "channel": 2,
      "note": 69,
      "start": 4.0227,
      "duration": 0.1484,
      "velocity": 59,
      "chip": "ym2612"
    },
    {
      "channel": 1,
      "note": 33,
      "start": 4.171,
      "duration": 0.0826,
      "velocity": 117,
      "chip": "ym2612"
    },
    {
      "channel": 2,
      "note": 69,
      "start": 4.1722,
      "duration": 0.1479,
      "velocity": 63,
      "chip": "ym2612"
    },
    {
      "channel": 1,
      "note": 33,
      "start": 4.32,
      "duration": 0.0826,
      "velocity": 117,
      "chip": "ym2612"
    },
    {
      "channel": 2,
      "note": 69,
      "start": 4.3212,
      "duration": 0.148,
      "velocity": 59,
      "chip": "ym2612"
    },
    {
      "channel": 1,
      "note": 33,
      "start": 4.469,
      "duration": 0.0826,
      "velocity": 117,
      "chip": "ym2612"
    },
    {
      "channel": 2,
      "note": 69,
      "start": 4.4696,
      "duration": 0.1485,
      "velocity": 59,
      "chip": "ym2612"
    },
    {
      "channel": 1,
      "note": 33,
      "start": 4.618,
      "duration": 0.0826,
      "velocity": 117,
      "chip": "ym2612"
    },
    {
      "channel": 2,
      "note": 69,
      "start": 4.6186,
      "duration": 0.1487,
      "velocity": 59,
      "chip": "ym2612"
    },
    {
      "channel": 0,
      "note": 33,
      "start": 4.7665,
      "duration": 2.383,
      "velocity": 108,
      "chip": "ym2612"
    },
    {
      "channel": 1,
      "note": 33,
      "start": 4.7671,
      "duration": 0.0824,
      "velocity": 117,
      "chip": "ym2612"
    },
    {
      "channel": 2,
      "note": 69,
      "start": 4.7678,
      "duration": 0.1483,
      "velocity": 59,
      "chip": "ym2612"
    },
    {
      "channel": 3,
      "note": 21,
      "start": 4.7684,
      "duration": 3.5085,
      "velocity": 124,
      "chip": "ym2612"
    },
    {
      "channel": 4,
      "note": 7,
      "start": 4.769,
      "duration": 2.3165,
      "velocity": 1,
      "chip": "ym2612"
    },
    {
      "channel": 5,
      "note": 7,
      "start": 4.7697,
      "duration": 2.3164,
      "velocity": 1,
      "chip": "ym2612"
    },
    {
      "channel": 1,
      "note": 33,
      "start": 4.9159,
      "duration": 0.0826,
      "velocity": 117,
      "chip": "ym2612"
    },
    {
      "channel": 2,
      "note": 69,
      "start": 4.9171,
      "duration": 0.1479,
      "velocity": 63,
      "chip": "ym2612"
    },
    {
      "channel": 1,
      "note": 33,
      "start": 5.0649,
      "duration": 0.0826,
      "velocity": 117,
      "chip": "ym2612"
    },
    {
      "channel": 2,
      "note": 69,
      "start": 5.0661,
      "duration": 0.1479,
      "velocity": 59,
      "chip": "ym2612"
    },
    {
      "channel": 1,
      "note": 45,
      "start": 5.2138,
      "duration": 0.0826,
      "velocity": 117,
      "chip": "ym2612"
    },
    {
      "channel": 2,
      "note": 69,
      "start": 5.2145,
      "duration": 0.1485,
      "velocity": 59,
      "chip": "ym2612"
    },
    {
      "channel": 1,
      "note": 33,
      "start": 5.3628,
      "duration": 0.0826,
      "velocity": 117,
      "chip": "ym2612"
    },
    {
      "channel": 2,
      "note": 69,
      "start": 5.364,
      "duration": 0.1479,
      "velocity": 63,
      "chip": "ym2612"
    },
    {
      "channel": 1,
      "note": 45,
      "start": 5.5118,
      "duration": 0.0826,
      "velocity": 117,
      "chip": "ym2612"
    },
    {
      "channel": 2,
      "note": 69,
      "start": 5.513,
      "duration": 0.1479,
      "velocity": 59,
      "chip": "ym2612"
    },
    {
      "channel": 1,
      "note": 33,
      "start": 5.6608,
      "duration": 0.0826,
      "velocity": 117,
      "chip": "ym2612"
    },
    {
      "channel": 2,
      "note": 69,
      "start": 5.6614,
      "duration": 0.1485,
      "velocity": 59,
      "chip": "ym2612"
    },
    {
      "channel": 1,
      "note": 45,
      "start": 5.8098,
      "duration": 0.0826,
      "velocity": 117,
      "chip": "ym2612"
    },
    {
      "channel": 2,
      "note": 69,
      "start": 5.811,
      "duration": 0.0649,
      "velocity": 63,
      "chip": "ym2612"
    },
    {
      "channel": 2,
      "note": 81,
      "start": 5.877,
      "duration": 0.0819,
      "velocity": 59,
      "chip": "ym2612"
    },
    {
      "channel": 1,
      "note": 33,
      "start": 5.9588,
      "duration": 0.0826,
      "velocity": 117,
      "chip": "ym2612"
    },
    {
      "channel": 2,
      "note": 74,
      "start": 5.9594,
      "duration": 0.1485,
      "velocity": 59,
      "chip": "ym2612"
    },
    {
      "channel": 1,
      "note": 33,
      "start": 6.1077,
      "duration": 0.0826,
      "velocity": 117,
      "chip": "ym2612"
    },
    {
      "channel": 2,
      "note": 69,
      "start": 6.1089,
      "duration": 0.1479,
      "velocity": 63,
      "chip": "ym2612"
    },
    {
      "channel": 1,
      "note": 33,
      "start": 6.2567,
      "duration": 0.1485,
      "velocity": 117,
      "chip": "ym2612"
    },
    {
      "channel": 2,
      "note": 69,
      "start": 6.2579,
      "duration": 0.1479,
      "velocity": 59,
      "chip": "ym2612"
    },
    {
      "channel": 1,
      "note": 45,
      "start": 6.4056,
      "duration": 0.0826,
      "velocity": 117,
      "chip": "ym2612"
    },
    {
      "channel": 2,
      "note": 69,
      "start": 6.4063,
      "duration": 0.1484,
      "velocity": 59,
      "chip": "ym2612"
    },
    {
      "channel": 1,
      "note": 33,
      "start": 6.5546,
      "duration": 0.0826,
      "velocity": 117,
      "chip": "ym2612"
    },
    {
      "channel": 2,
      "note": 69,
      "start": 6.5558,
      "duration": 0.1479,
      "velocity": 63,
      "chip": "ym2612"
    },
    {
      "channel": 1,
      "note": 33,
      "start": 6.7036,
      "duration": 0.0826,
      "velocity": 117,
      "chip": "ym2612"
    },
    {
      "channel": 2,
      "note": 69,
      "start": 6.7048,
      "duration": 0.1479,
      "velocity": 59,
      "chip": "ym2612"
    },
    {
      "channel": 1,
      "note": 33,
      "start": 6.8526,
      "duration": 0.0826,
      "velocity": 117,
      "chip": "ym2612"
    },
    {
      "channel": 2,
      "note": 69,
      "start": 6.8532,
      "duration": 0.1485,
      "velocity": 59,
      "chip": "ym2612"
    },
    {
      "channel": 1,
      "note": 33,
      "start": 7.0016,
      "duration": 0.0826,
      "velocity": 117,
      "chip": "ym2612"
    },
    {
      "channel": 2,
      "note": 69,
      "start": 7.0028,
      "duration": 0.148,
      "velocity": 63,
      "chip": "ym2612"
    },
    {
      "channel": 0,
      "note": 33,
      "start": 7.15,
      "duration": 2.383,
      "velocity": 108,
      "chip": "ym2612"
    },
    {
      "channel": 1,
      "note": 33,
      "start": 7.1507,
      "duration": 0.0824,
      "velocity": 117,
      "chip": "ym2612"
    },
    {
      "channel": 2,
      "note": 69,
      "start": 7.1519,
      "duration": 0.1478,
      "velocity": 59,
      "chip": "ym2612"
    },
    {
      "channel": 4,
      "note": 7,
      "start": 7.153,
      "duration": 2.3162,
      "velocity": 1,
      "chip": "ym2612"
    },
    {
      "channel": 5,
      "note": 7,
      "start": 7.1537,
      "duration": 2.316,
      "velocity": 1,
      "chip": "ym2612"
    },
    {
      "channel": 1,
      "note": 33,
      "start": 7.2995,
      "duration": 0.0826,
      "velocity": 117,
      "chip": "ym2612"
    },
    {
      "channel": 2,
      "note": 69,
      "start": 7.3007,
      "duration": 0.1478,
      "velocity": 63,
      "chip": "ym2612"
    },
    {
      "channel": 1,
      "note": 33,
      "start": 7.4484,
      "duration": 0.0826,
      "velocity": 117,
      "chip": "ym2612"
    },
    {
      "channel": 2,
      "note": 69,
      "start": 7.4496,
      "duration": 0.1479,
      "velocity": 59,
      "chip": "ym2612"
    },
    {
      "channel": 1,
      "note": 45,
      "start": 7.5974,
      "duration": 0.0826,
      "velocity": 117,
      "chip": "ym2612"
    },
    {
      "channel": 2,
      "note": 69,
      "start": 7.598,
      "duration": 0.1485,
      "velocity": 59,
      "chip": "ym2612"
    },
    {
      "channel": 1,
      "note": 33,
      "start": 7.7464,
      "duration": 0.0826,
      "velocity": 117,
      "chip": "ym2612"
    },
    {
      "channel": 2,
      "note": 69,
      "start": 7.7476,
      "duration": 0.1479,
      "velocity": 63,
      "chip": "ym2612"
    },
    {
      "channel": 1,
      "note": 45,
      "start": 7.8954,
      "duration": 0.0826,
      "velocity": 117,
      "chip": "ym2612"
    },
    {
      "channel": 2,
      "note": 69,
      "start": 7.8966,
      "duration": 0.1479,
      "velocity": 59,
      "chip": "ym2612"
    },
    {
      "channel": 1,
      "note": 33,
      "start": 8.0444,
      "duration": 0.0826,
      "velocity": 117,
      "chip": "ym2612"
    },
    {
      "channel": 2,
      "note": 69,
      "start": 8.045,
      "duration": 0.1484,
      "velocity": 59,
      "chip": "ym2612"
    },
    {
      "channel": 1,
      "note": 45,
      "start": 8.1933,
      "duration": 0.0826,
      "velocity": 117,
      "chip": "ym2612"
    },
    {
      "channel": 2,
      "note": 69,
      "start": 8.1945,
      "duration": 0.1479,
      "velocity": 63,
      "chip": "ym2612"
    },
    {
      "channel": 1,
      "note": 33,
      "start": 8.3423,
      "duration": 0.0826,
      "velocity": 117,
      "chip": "ym2612"
    },
    {
      "channel": 2,
      "note": 69,
      "start": 8.3435,
      "duration": 0.1479,
      "velocity": 59,
      "chip": "ym2612"
    },
    {
      "channel": 3,
      "note": 19,
      "start": 8.3441,
      "duration": 1.1246,
      "velocity": 124,
      "chip": "ym2612"
    },
    {
      "channel": 1,
      "note": 33,
      "start": 8.4912,
      "duration": 0.0826,
      "velocity": 117,
      "chip": "ym2612"
    },
    {
      "channel": 2,
      "note": 69,
      "start": 8.4924,
      "duration": 0.148,
      "velocity": 63,
      "chip": "ym2612"
    },
    {
      "channel": 1,
      "note": 33,
      "start": 8.6403,
      "duration": 0.1484,
      "velocity": 117,
      "chip": "ym2612"
    },
    {
      "channel": 2,
      "note": 69,
      "start": 8.6415,
      "duration": 0.1479,
      "velocity": 59,
      "chip": "ym2612"
    },
    {
      "channel": 1,
      "note": 45,
      "start": 8.7892,
      "duration": 0.0826,
      "velocity": 117,
      "chip": "ym2612"
    },
    {
      "channel": 2,
      "note": 69,
      "start": 8.7899,
      "duration": 0.1484,
      "velocity": 59,
      "chip": "ym2612"
    },
    {
      "channel": 1,
      "note": 33,
      "start": 8.9382,
      "duration": 0.0826,
      "velocity": 117,
      "chip": "ym2612"
    },
    {
      "channel": 2,
      "note": 69,
      "start": 8.9394,
      "duration": 0.1478,
      "velocity": 63,
      "chip": "ym2612"
    },
    {
      "channel": 1,
      "note": 33,
      "start": 9.0871,
      "duration": 0.0826,
      "velocity": 117,
      "chip": "ym2612"
    },
    {
      "channel": 2,
      "note": 69,
      "start": 9.0883,
      "duration": 0.148,
      "velocity": 59,
      "chip": "ym2612"
    },
    {
      "channel": 1,
      "note": 33,
      "start": 9.2361,
      "duration": 0.0826,
      "velocity": 117,
      "chip": "ym2612"
    },
    {
      "channel": 2,
      "note": 69,
      "start": 9.2367,
      "duration": 0.1485,
      "velocity": 59,
      "chip": "ym2612"
    },
    {
      "channel": 1,
      "note": 33,
      "start": 9.3851,
      "duration": 0.0826,
      "velocity": 117,
      "chip": "ym2612"
    },
    {
      "channel": 2,
      "note": 69,
      "start": 9.3857,
      "duration": 0.1487,
      "velocity": 59,
      "chip": "ym2612"
    },
    {
      "channel": 0,
      "note": 33,
      "start": 9.5336,
      "duration": 2.383,
      "velocity": 108,
      "chip": "ym2612"
    },
    {
      "channel": 1,
      "note": 33,
      "start": 9.5342,
      "duration": 0.0824,
      "velocity": 117,
      "chip": "ym2612"
    },
    {
      "channel": 2,
      "note": 45,
      "start": 9.5356,
      "duration": 0.1476,
      "velocity": 95,
      "chip": "ym2612"
    },
    {
      "channel": 3,
      "note": 21,
      "start": 9.5362,
      "duration": 3.508,
      "velocity": 124,
      "chip": "ym2612"
    },
    {
      "channel": 4,
      "note": 69,
      "start": 9.5374,
      "duration": 0.1469,
      "velocity": 59,
      "chip": "ym2612"
    },
    {
      "channel": 5,
      "note": 41,
      "start": 9.5386,
      "duration": 0.0632,
      "velocity": 120,
      "chip": "ym2612"
    },
    {
      "channel": 5,
      "note": 43,
      "start": 9.6023,
      "duration": 0.0833,
      "velocity": 120,
      "chip": "ym2612"
    },
    {
      "channel": 1,
      "note": 33,
      "start": 9.683,
      "duration": 0.0826,
      "velocity": 117,
      "chip": "ym2612"
    },
    {
      "channel": 2,
      "note": 40,
      "start": 9.6838,
      "duration": 0.1483,
      "velocity": 95,
      "chip": "ym2612"
    },
    {
      "channel": 4,
      "note": 69,
      "start": 9.6855,
      "duration": 0.1479,
      "velocity": 63,
      "chip": "ym2612"
    },
    {
      "channel": 5,
      "note": 45,
      "start": 9.6861,
      "duration": 0.0647,
      "velocity": 119,
      "chip": "ym2612"
    },
    {
      "channel": 5,
      "note": 46,
      "start": 9.7512,
      "duration": 0.0834,
      "velocity": 119,
      "chip": "ym2612"
    },
    {
      "channel": 1,
      "note": 33,
      "start": 9.832,
      "duration": 0.0826,
      "velocity": 117,
      "chip": "ym2612"
    },
    {
      "channel": 2,
      "note": 43,
      "start": 9.8327,
      "duration": 0.1484,
      "velocity": 94,
      "chip": "ym2612"
    },
    {
      "channel": 4,
      "note": 69,
      "start": 9.8344,
      "duration": 0.148,
      "velocity": 59,
      "chip": "ym2612"
    },
    {
      "channel": 5,
      "note": 48,
      "start": 9.8351,
      "duration": 0.0647,
      "velocity": 118,
      "chip": "ym2612"
    },
    {
      "channel": 5,
      "note": 50,
      "start": 9.9002,
      "duration": 0.0828,
      "velocity": 118,
      "chip": "ym2612"
    },
    {
      "channel": 1,
      "note": 45,
      "start": 9.981,
      "duration": 0.0826,
      "velocity": 117,
      "chip": "ym2612"
    },
    {
      "channel": 2,
      "note": 45,
      "start": 9.9817,
      "duration": 0.1484,
      "velocity": 94,
      "chip": "ym2612"
    },
    {
      "channel": 4,
      "note": 69,
      "start": 9.9829,
      "duration": 0.1485,
      "velocity": 59,
      "chip": "ym2612"
    },
    {
      "channel": 5,
      "note": 52,
      "start": 9.9835,
      "duration": 0.0653,
      "velocity": 117,
      "chip": "ym2612"
    },
    {
      "channel": 5,
      "note": 53,
      "start": 10.0492,
      "duration": 0.0834,
      "velocity": 117,
      "chip": "ym2612"
    },
    {
      "channel": 1,
      "note": 33,
      "start": 10.1299,
      "duration": 0.0826,
      "velocity": 117,
      "chip": "ym2612"
    },
    {
      "channel": 2,
      "note": 40,
      "start": 10.1307,
      "duration": 0.1484,
      "velocity": 93,
      "chip": "ym2612"
    },
    {
      "channel": 4,
      "note": 69,
      "start": 10.1324,
      "duration": 0.1478,
      "velocity": 63,
      "chip": "ym2612"
    },
    {
      "channel": 5,
      "note": 55,
      "start": 10.133,
      "duration": 0.0647,
      "velocity": 116,
      "chip": "ym2612"
    },
    {
      "channel": 5,
      "note": 57,
      "start": 10.1982,
      "duration": 0.0833,
      "velocity": 116,
      "chip": "ym2612"
    },
    {
      "channel": 1,
      "note": 45,
      "start": 10.2789,
      "duration": 0.0826,
      "velocity": 117,
      "chip": "ym2612"
    },
    {
      "channel": 2,
      "note": 43,
      "start": 10.2797,
      "duration": 0.1484,
      "velocity": 93,
      "chip": "ym2612"
    },
    {
      "channel": 4,
      "note": 69,
      "start": 10.2814,
      "duration": 0.1479,
      "velocity": 59,
      "chip": "ym2612"
    },
    {
      "channel": 5,
      "note": 58,
      "start": 10.282,
      "duration": 0.0648,
      "velocity": 115,
      "chip": "ym2612"
    },
    {
      "channel": 5,
      "note": 60,
      "start": 10.3472,
      "duration": 0.0828,
      "velocity": 115,
      "chip": "ym2612"
    },
    {
      "channel": 1,
      "note": 33,
      "start": 10.4279,
      "duration": 0.0826,
      "velocity": 117,
      "chip": "ym2612"
    },
    {
      "channel": 2,
      "note": 45,
      "start": 10.4287,
      "duration": 0.1483,
      "velocity": 92,
      "chip": "ym2612"
    },
    {
      "channel": 4,
      "note": 69,
      "start": 10.4297,
      "duration": 0.1485,
      "velocity": 59,
      "chip": "ym2612"
    },
    {
      "channel": 5,
      "note": 62,
      "start": 10.4304,
      "duration": 0.0653,
      "velocity": 114,
      "chip": "ym2612"
    },
    {
      "channel": 5,
      "note": 64,
      "start": 10.4961,
      "duration": 0.0833,
      "velocity": 114,
      "chip": "ym2612"
    },
    {
      "channel": 1,
      "note": 45,
      "start": 10.5769,
      "duration": 0.0826,
      "velocity": 117,
      "chip": "ym2612"
    },
    {
      "channel": 2,
      "note": 40,
      "start": 10.5776,
      "duration": 0.1483,
      "velocity": 92,
      "chip": "ym2612"
    },
    {
      "channel": 4,
      "note": 69,
      "start": 10.5793,
      "duration": 0.0648,
      "velocity": 63,
      "chip": "ym2612"
    },
    {
      "channel": 5,
      "note": 65,
      "start": 10.5799,
      "duration": 0.0654,
      "velocity": 113,
      "chip": "ym2612"
    },
    {
      "channel": 4,
      "note": 81,
      "start": 10.6453,
      "duration": 0.082,
      "velocity": 59,
      "chip": "ym2612"
    },
    {
      "channel": 5,
      "note": 67,
      "start": 10.6459,
      "duration": 0.082,
      "velocity": 113,
      "chip": "ym2612"
    },
    {
      "channel": 1,
      "note": 33,
      "start": 10.7259,
      "duration": 0.0826,
      "velocity": 117,
      "chip": "ym2612"
    },
    {
      "channel": 2,
      "note": 45,
      "start": 10.7266,
      "duration": 0.1483,
      "velocity": 91,
      "chip": "ym2612"
    },
    {
      "channel": 4,
      "note": 74,
      "start": 10.7277,
      "duration": 0.1485,
      "velocity": 59,
      "chip": "ym2612"
    },
    {
      "channel": 5,
      "note": 69,
      "start": 10.7283,
      "duration": 0.0653,
      "velocity": 112,
      "chip": "ym2612"
    },
    {
      "channel": 5,
      "note": 70,
      "start": 10.7941,
      "duration": 0.0834,
      "velocity": 112,
      "chip": "ym2612"
    },
    {
      "channel": 1,
      "note": 33,
      "start": 10.8748,
      "duration": 0.0826,
      "velocity": 117,
      "chip": "ym2612"
    },
    {
      "channel": 2,
      "note": 40,
      "start": 10.8755,
      "duration": 0.1485,
      "velocity": 91,
      "chip": "ym2612"
    },
    {
      "channel": 4,
      "note": 69,
      "start": 10.8773,
      "duration": 0.1479,
      "velocity": 63,
      "chip": "ym2612"
    },
    {
      "channel": 5,
      "note": 72,
      "start": 10.8779,
      "duration": 0.0647,
      "velocity": 113,
      "chip": "ym2612"
    },
    {
      "channel": 5,
      "note": 74,
      "start": 10.943,
      "duration": 0.0834,
      "velocity": 113,
      "chip": "ym2612"
    },
    {
      "channel": 1,
      "note": 33,
      "start": 11.0238,
      "duration": 0.1485,
      "velocity": 117,
      "chip": "ym2612"
    },
    {
      "channel": 2,
      "note": 43,
      "start": 11.0246,
      "duration": 0.1483,
      "velocity": 90,
      "chip": "ym2612"
    },
    {
      "channel": 4,
      "note": 69,
      "start": 11.0263,
      "duration": 0.1479,
      "velocity": 59,
      "chip": "ym2612"
    },
    {
      "channel": 5,
      "note": 76,
      "start": 11.0269,
      "duration": 0.0647,
      "velocity": 114,
      "chip": "ym2612"
    },
    {
      "channel": 5,
      "note": 77,
      "start": 11.0921,
      "duration": 0.0827,
      "velocity": 114,
      "chip": "ym2612"
    },
    {
      "channel": 1,
      "note": 45,
      "start": 11.1728,
      "duration": 0.0826,
      "velocity": 117,
      "chip": "ym2612"
    },
    {
      "channel": 2,
      "note": 45,
      "start": 11.1736,
      "duration": 0.1483,
      "velocity": 90,
      "chip": "ym2612"
    },
    {
      "channel": 4,
      "note": 69,
      "start": 11.1746,
      "duration": 0.1485,
      "velocity": 59,
      "chip": "ym2612"
    },
    {
      "channel": 5,
      "note": 79,
      "start": 11.1753,
      "duration": 0.0653,
      "velocity": 115,
      "chip": "ym2612"
    },
    {
      "channel": 5,
      "note": 81,
      "start": 11.2411,
      "duration": 0.0833,
      "velocity": 115,
      "chip": "ym2612"
    },
    {
      "channel": 1,
      "note": 33,
      "start": 11.3217,
      "duration": 0.0826,
      "velocity": 117,
      "chip": "ym2612"
    },
    {
      "channel": 2,
      "note": 40,
      "start": 11.3225,
      "duration": 0.1483,
      "velocity": 89,
      "chip": "ym2612"
    },
    {
      "channel": 4,
      "note": 69,
      "start": 11.3242,
      "duration": 0.1478,
      "velocity": 63,
      "chip": "ym2612"
    },
    {
      "channel": 5,
      "note": 82,
      "start": 11.3248,
      "duration": 0.0647,
      "velocity": 116,
      "chip": "ym2612"
    },
    {
      "channel": 5,
      "note": 84,
      "start": 11.39,
      "duration": 0.0834,
      "velocity": 116,
      "chip": "ym2612"
    },
    {
      "channel": 1,
      "note": 33,
      "start": 11.4707,
      "duration": 0.0826,
      "velocity": 117,
      "chip": "ym2612"
    },
    {
      "channel": 2,
      "note": 47,
      "start": 11.4715,
      "duration": 0.1483,
      "velocity": 89,
      "chip": "ym2612"
    },
    {
      "channel": 4,
      "note": 69,
      "start": 11.4732,
      "duration": 0.1479,
      "velocity": 59,
      "chip": "ym2612"
    },
    {
      "channel": 5,
      "note": 86,
      "start": 11.4738,
      "duration": 0.0647,
      "velocity": 117,
      "chip": "ym2612"
    },
    {
      "channel": 5,
      "note": 88,
      "start": 11.539,
      "duration": 0.0828,
      "velocity": 117,
      "chip": "ym2612"
    },
    {
      "channel": 1,
      "note": 33,
      "start": 11.6197,
      "duration": 0.0826,
      "velocity": 117,
      "chip": "ym2612"
    },
    {
      "channel": 2,
      "note": 48,
      "start": 11.6205,
      "duration": 0.1483,
      "velocity": 88,
      "chip": "ym2612"
    },
    {
      "channel": 4,
      "note": 69,
      "start": 11.6215,
      "duration": 0.1485,
      "velocity": 59,
      "chip": "ym2612"
    },
    {
      "channel": 5,
      "note": 89,
      "start": 11.6222,
      "duration": 0.0653,
      "velocity": 118,
      "chip": "ym2612"
    },
    {
      "channel": 5,
      "note": 91,
      "start": 11.6879,
      "duration": 0.0834,
      "velocity": 118,
      "chip": "ym2612"
    },
    {
      "channel": 1,
      "note": 33,
      "start": 11.7687,
      "duration": 0.0826,
      "velocity": 117,
      "chip": "ym2612"
    },
    {
      "channel": 2,
      "note": 47,
      "start": 11.7694,
      "duration": 0.1486,
      "velocity": 88,
      "chip": "ym2612"
    },
    {
      "channel": 4,
      "note": 69,
      "start": 11.7711,
      "duration": 0.1481,
      "velocity": 63,
      "chip": "ym2612"
    },
    {
      "channel": 5,
      "note": 93,
      "start": 11.7717,
      "duration": 0.0647,
      "velocity": 119,
      "chip": "ym2612"
    },
    {
      "channel": 5,
      "note": 94,
      "start": 11.8369,
      "duration": 0.0836,
      "velocity": 119,
      "chip": "ym2612"
    },
    {
      "channel": 0,
      "note": 33,
      "start": 11.9171,
      "duration": 2.383,
      "velocity": 108,
      "chip": "ym2612"
    },
    {
      "channel": 1,
      "note": 33,
      "start": 11.9178,
      "duration": 0.0824,
      "velocity": 117,
      "chip": "ym2612"
    },
    {
      "channel": 2,
      "note": 45,
      "start": 11.9185,
      "duration": 0.1482,
      "velocity": 87,
      "chip": "ym2612"
    },
    {
      "channel": 4,
      "note": 69,
      "start": 11.9202,
      "duration": 0.1477,
      "velocity": 59,
      "chip": "ym2612"
    },
    {
      "channel": 5,
      "note": 93,
      "start": 11.9209,
      "duration": 0.0645,
      "velocity": 120,
      "chip": "ym2612"
    },
    {
      "channel": 5,
      "note": 91,
      "start": 11.9859,
      "duration": 0.0834,
      "velocity": 120,
      "chip": "ym2612"
    },
    {
      "channel": 1,
      "note": 33,
      "start": 12.0666,
      "duration": 0.0826,
      "velocity": 117,
      "chip": "ym2612"
    },
    {
      "channel": 2,
      "note": 40,
      "start": 12.0673,
      "duration": 0.1484,
      "velocity": 87,
      "chip": "ym2612"
    },
    {
      "channel": 4,
      "note": 69,
      "start": 12.069,
      "duration": 0.1478,
      "velocity": 63,
      "chip": "ym2612"
    },
    {
      "channel": 5,
      "note": 89,
      "start": 12.0697,
      "duration": 0.0647,
      "velocity": 119,
      "chip": "ym2612"
    },
    {
      "channel": 5,
      "note": 88,
      "start": 12.1348,
      "duration": 0.0833,
      "velocity": 119,
      "chip": "ym2612"
    },
    {
      "channel": 1,
      "note": 33,
      "start": 12.2156,
      "duration": 0.0826,
      "velocity": 117,
      "chip": "ym2612"
    },
    {
      "channel": 2,
      "note": 43,
      "start": 12.2163,
      "duration": 0.1483,
      "velocity": 88,
      "chip": "ym2612"
    },
    {
      "channel": 4,
      "note": 69,
      "start": 12.218,
      "duration": 0.1479,
      "velocity": 59,
      "chip": "ym2612"
    },
    {
      "channel": 5,
      "note": 86,
      "start": 12.2186,
      "duration": 0.0648,
      "velocity": 118,
      "chip": "ym2612"
    },
    {
      "channel": 5,
      "note": 84,
      "start": 12.2838,
      "duration": 0.0828,
      "velocity": 118,
      "chip": "ym2612"
    },
    {
      "channel": 1,
      "note": 45,
      "start": 12.3645,
      "duration": 0.0826,
      "velocity": 117,
      "chip": "ym2612"
    },
    {
      "channel": 2,
      "note": 45,
      "start": 12.3653,
      "duration": 0.1484,
      "velocity": 88,
      "chip": "ym2612"
    },
    {
      "channel": 4,
      "note": 69,
      "start": 12.3664,
      "duration": 0.1485,
      "velocity": 59,
      "chip": "ym2612"
    },
    {
      "channel": 5,
      "note": 82,
      "start": 12.367,
      "duration": 0.0653,
      "velocity": 117,
      "chip": "ym2612"
    },
    {
      "channel": 5,
      "note": 81,
      "start": 12.4328,
      "duration": 0.0833,
      "velocity": 117,
      "chip": "ym2612"
    },
    {
      "channel": 1,
      "note": 33,
      "start": 12.5135,
      "duration": 0.0826,
      "velocity": 117,
      "chip": "ym2612"
    },
    {
      "channel": 2,
      "note": 40,
      "start": 12.5143,
      "duration": 0.1483,
      "velocity": 89,
      "chip": "ym2612"
    },
    {
      "channel": 4,
      "note": 69,
      "start": 12.5159,
      "duration": 0.1479,
      "velocity": 63,
      "chip": "ym2612"
    },
    {
      "channel": 5,
      "note": 79,
      "start": 12.5166,
      "duration": 0.0647,
      "velocity": 116,
      "chip": "ym2612"
    },
    {
      "channel": 5,
      "note": 77,
      "start": 12.5817,
      "duration": 0.0834,
      "velocity": 116,
      "chip": "ym2612"
    },
    {
      "channel": 1,
      "note": 45,
      "start": 12.6625,
      "duration": 0.0826,
      "velocity": 117,
      "chip": "ym2612"
    },
    {
      "channel": 2,
      "note": 43,
      "start": 12.6632,
      "duration": 0.1484,
      "velocity": 89,
      "chip": "ym2612"
    },
    {
      "channel": 4,
      "note": 69,
      "start": 12.6649,
      "duration": 0.148,
      "velocity": 59,
      "chip": "ym2612"
    },
    {
      "channel": 5,
      "note": 76,
      "start": 12.6656,
      "duration": 0.0647,
      "velocity": 115,
      "chip": "ym2612"
    },
    {
      "channel": 5,
      "note": 74,
      "start": 12.7307,
      "duration": 0.0828,
      "velocity": 115,
      "chip": "ym2612"
    },
    {
      "channel": 1,
      "note": 33,
      "start": 12.8115,
      "duration": 0.0826,
      "velocity": 117,
      "chip": "ym2612"
    },
    {
      "channel": 2,
      "note": 45,
      "start": 12.8122,
      "duration": 0.1484,
      "velocity": 90,
      "chip": "ym2612"
    },
    {
      "channel": 4,
      "note": 69,
      "start": 12.8133,
      "duration": 0.1485,
      "velocity": 59,
      "chip": "ym2612"
    },
    {
      "channel": 5,
      "note": 72,
      "start": 12.814,
      "duration": 0.0653,
      "velocity": 114,
      "chip": "ym2612"
    },
    {
      "channel": 5,
      "note": 70,
      "start": 12.8797,
      "duration": 0.0834,
      "velocity": 114,
      "chip": "ym2612"
    },
    {
      "channel": 1,
      "note": 45,
      "start": 12.9604,
      "duration": 0.0827,
      "velocity": 117,
      "chip": "ym2612"
    },
    {
      "channel": 2,
      "note": 40,
      "start": 12.9612,
      "duration": 0.1484,
      "velocity": 90,
      "chip": "ym2612"
    },
    {
      "channel": 4,
      "note": 69,
      "start": 12.9629,
      "duration": 0.148,
      "velocity": 63,
      "chip": "ym2612"
    },
    {
      "channel": 5,
      "note": 69,
      "start": 12.9635,
      "duration": 0.0647,
      "velocity": 113,
      "chip": "ym2612"
    },
    {
      "channel": 5,
      "note": 67,
      "start": 13.0287,
      "duration": 0.0835,
      "velocity": 113,
      "chip": "ym2612"
    },
    {
      "channel": 1,
      "note": 33,
      "start": 13.1094,
      "duration": 0.0826,
      "velocity": 117,
      "chip": "ym2612"
    },
    {
      "channel": 2,
      "note": 43,
      "start": 13.1101,
      "duration": 0.1484,
      "velocity": 91,
      "chip": "ym2612"
    },
    {
      "channel": 3,
      "note": 19,
      "start": 13.1108,
      "duration": 1.1251,
      "velocity": 124,
      "chip": "ym2612"
    },
    {
      "channel": 4,
      "note": 69,
      "start": 13.112,
      "duration": 0.1477,
      "velocity": 59,
      "chip": "ym2612"
    },
    {
      "channel": 5,
      "note": 65,
      "start": 13.1126,
      "duration": 0.0646,
      "velocity": 112,
      "chip": "ym2612"
    },
    {
      "channel": 5,
      "note": 64,
      "start": 13.1776,
      "duration": 0.0833,
      "velocity": 112,
      "chip": "ym2612"
    },
    {
      "channel": 1,
      "note": 33,
      "start": 13.2584,
      "duration": 0.0826,
      "velocity": 117,
      "chip": "ym2612"
    },
    {
      "channel": 2,
      "note": 45,
      "start": 13.2591,
      "duration": 0.1484,
      "velocity": 91,
      "chip": "ym2612"
    },
    {
      "channel": 4,
      "note": 69,
      "start": 13.2608,
      "duration": 0.1479,
      "velocity": 63,
      "chip": "ym2612"
    },
    {
      "channel": 5,
      "note": 62,
      "start": 13.2614,
      "duration": 0.0648,
      "velocity": 113,
      "chip": "ym2612"
    },
    {
      "channel": 5,
      "note": 60,
      "start": 13.3266,
      "duration": 0.0834,
      "velocity": 113,
      "chip": "ym2612"
    },
    {
      "channel": 1,
      "note": 33,
      "start": 13.4074,
      "duration": 0.1484,
      "velocity": 117,
      "chip": "ym2612"
    },
    {
      "channel": 2,
      "note": 47,
      "start": 13.4082,
      "duration": 0.1483,
      "velocity": 92,
      "chip": "ym2612"
    },
    {
      "channel": 4,
      "note": 69,
      "start": 13.4098,
      "duration": 0.1479,
      "velocity": 59,
      "chip": "ym2612"
    },
    {
      "channel": 5,
      "note": 58,
      "start": 13.4105,
      "duration": 0.0647,
      "velocity": 114,
      "chip": "ym2612"
    },
    {
      "channel": 5,
      "note": 57,
      "start": 13.4756,
      "duration": 0.0828,
      "velocity": 114,
      "chip": "ym2612"
    },
    {
      "channel": 1,
      "note": 45,
      "start": 13.5563,
      "duration": 0.0826,
      "velocity": 117,
      "chip": "ym2612"
    },
    {
      "channel": 2,
      "note": 48,
      "start": 13.5571,
      "duration": 0.1483,
      "velocity": 92,
      "chip": "ym2612"
    },
    {
      "channel": 4,
      "note": 69,
      "start": 13.5582,
      "duration": 0.1485,
      "velocity": 59,
      "chip": "ym2612"
    },
    {
      "channel": 5,
      "note": 55,
      "start": 13.5589,
      "duration": 0.0653,
      "velocity": 115,
      "chip": "ym2612"
    },
    {
      "channel": 5,
      "note": 53,
      "start": 13.6246,
      "duration": 0.0834,
      "velocity": 115,
      "chip": "ym2612"
    },
    {
      "channel": 1,
      "note": 33,
      "start": 13.7053,
      "duration": 0.0826,
      "velocity": 117,
      "chip": "ym2612"
    },
    {
      "channel": 2,
      "note": 50,
      "start": 13.7061,
      "duration": 0.1483,
      "velocity": 93,
      "chip": "ym2612"
    },
    {
      "channel": 4,
      "note": 69,
      "start": 13.7078,
      "duration": 0.1478,
      "velocity": 63,
      "chip": "ym2612"
    },
    {
      "channel": 5,
      "note": 52,
      "start": 13.7084,
      "duration": 0.0647,
      "velocity": 116,
      "chip": "ym2612"
    },
    {
      "channel": 5,
      "note": 50,
      "start": 13.7736,
      "duration": 0.0834,
      "velocity": 116,
      "chip": "ym2612"
    },
    {
      "channel": 1,
      "note": 33,
      "start": 13.8543,
      "duration": 0.0826,
      "velocity": 117,
      "chip": "ym2612"
    },
    {
      "channel": 2,
      "note": 48,
      "start": 13.855,
      "duration": 0.1484,
      "velocity": 93,
      "chip": "ym2612"
    },
    {
      "channel": 4,
      "note": 69,
      "start": 13.8568,
      "duration": 0.1479,
      "velocity": 59,
      "chip": "ym2612"
    },
    {
      "channel": 5,
      "note": 48,
      "start": 13.8574,
      "duration": 0.0646,
      "velocity": 117,
      "chip": "ym2612"
    },
    {
      "channel": 5,
      "note": 46,
      "start": 13.9225,
      "duration": 0.0828,
      "velocity": 117,
      "chip": "ym2612"
    },
    {
      "channel": 1,
      "note": 33,
      "start": 14.0033,
      "duration": 0.0826,
      "velocity": 117,
      "chip": "ym2612"
    },
    {
      "channel": 2,
      "note": 47,
      "start": 14.004,
      "duration": 0.1484,
      "velocity": 94,
      "chip": "ym2612"
    },
    {
      "channel": 4,
      "note": 69,
      "start": 14.0051,
      "duration": 0.1485,
      "velocity": 59,
      "chip": "ym2612"
    },
    {
      "channel": 5,
      "note": 45,
      "start": 14.0058,
      "duration": 0.0653,
      "velocity": 118,
      "chip": "ym2612"
    },
    {
      "channel": 5,
      "note": 43,
      "start": 14.0715,
      "duration": 0.0827,
      "velocity": 118,
      "chip": "ym2612"
    },
    {
      "channel": 1,
      "note": 33,
      "start": 14.1522,
      "duration": 0.0826,
      "velocity": 117,
      "chip": "ym2612"
    },
    {
      "channel": 2,
      "note": 40,
      "start": 14.1529,
      "duration": 0.1485,
      "velocity": 94,
      "chip": "ym2612"
    },
    {
      "channel": 4,
      "note": 69,
      "start": 14.154,
      "duration": 0.1488,
      "velocity": 59,
      "chip": "ym2612"
    },
    {
      "channel": 5,
      "note": 41,
      "start": 14.1547,
      "duration": 0.0653,
      "velocity": 119,
      "chip": "ym2612"
    },
    {
      "channel": 5,
      "note": 40,
      "start": 14.2205,
      "duration": 0.0831,
      "velocity": 119,
      "chip": "ym2612"
    },
    {
      "channel": 0,
      "note": 33,
      "start": 14.3007,
      "duration": 2.383,
      "velocity": 108,
      "chip": "ym2612"
    },
    {
      "channel": 1,
      "note": 33,
      "start": 14.3014,
      "duration": 0.0824,
      "velocity": 117,
      "chip": "ym2612"
    },
    {
      "channel": 2,
      "note": 45,
      "start": 14.3021,
      "duration": 0.1482,
      "velocity": 95,
      "chip": "ym2612"
    },
    {
      "channel": 3,
      "note": 21,
      "start": 14.3028,
      "duration": 3.5085,
      "velocity": 124,
      "chip": "ym2612"
    },
    {
      "channel": 4,
      "note": 69,
      "start": 14.3034,
      "duration": 0.1482,
      "velocity": 59,
      "chip": "ym2612"
    },
    {
      "channel": 5,
      "note": 41,
      "start": 14.304,
      "duration": 0.0649,
      "velocity": 120,
      "chip": "ym2612"
    },
    {
      "channel": 5,
      "note": 43,
      "start": 14.3694,
      "duration": 0.0834,
      "velocity": 120,
      "chip": "ym2612"
    },
    {
      "channel": 1,
      "note": 33,
      "start": 14.4502,
      "duration": 0.0826,
      "velocity": 117,
      "chip": "ym2612"
    },
    {
      "channel": 2,
      "note": 40,
      "start": 14.4509,
      "duration": 0.1484,
      "velocity": 95,
      "chip": "ym2612"
    },
    {
      "channel": 4,
      "note": 69,
      "start": 14.4526,
      "duration": 0.1478,
      "velocity": 63,
      "chip": "ym2612"
    },
    {
      "channel": 5,
      "note": 45,
      "start": 14.4533,
      "duration": 0.0647,
      "velocity": 119,
      "chip": "ym2612"
    },
    {
      "channel": 5,
      "note": 46,
      "start": 14.5184,
      "duration": 0.0833,
      "velocity": 119,
      "chip": "ym2612"
    },
    {
      "channel": 1,
      "note": 33,
      "start": 14.5991,
      "duration": 0.0826,
      "velocity": 117,
      "chip": "ym2612"
    },
    {
      "channel": 2,
      "note": 43,
      "start": 14.5998,
      "duration": 0.1484,
      "velocity": 94,
      "chip": "ym2612"
    },
    {
      "channel": 4,
      "note": 69,
      "start": 14.6016,
      "duration": 0.148,
      "velocity": 59,
      "chip": "ym2612"
    },
    {
      "channel": 5,
      "note": 48,
      "start": 14.6022,
      "duration": 0.0647,
      "velocity": 118,
      "chip": "ym2612"
    },
    {
      "channel": 5,
      "note": 50,
      "start": 14.6673,
      "duration": 0.0828,
      "velocity": 118,
      "chip": "ym2612"
    },
    {
      "channel": 1,
      "note": 45,
      "start": 14.7481,
      "duration": 0.0826,
      "velocity": 117,
      "chip": "ym2612"
    },
    {
      "channel": 2,
      "note": 45,
      "start": 14.7488,
      "duration": 0.1484,
      "velocity": 94,
      "chip": "ym2612"
    },
    {
      "channel": 4,
      "note": 69,
      "start": 14.75,
      "duration": 0.1485,
      "velocity": 59,
      "chip": "ym2612"
    },
    {
      "channel": 5,
      "note": 52,
      "start": 14.7506,
      "duration": 0.0653,
      "velocity": 117,
      "chip": "ym2612"
    },
    {
      "channel": 5,
      "note": 53,
      "start": 14.8163,
      "duration": 0.0834,
      "velocity": 117,
      "chip": "ym2612"
    },
    {
      "channel": 1,
      "note": 33,
      "start": 14.897,
      "duration": 0.0827,
      "velocity": 117,
      "chip": "ym2612"
    },
    {
      "channel": 2,
      "note": 40,
      "start": 14.8978,
      "duration": 0.1484,
      "velocity": 93,
      "chip": "ym2612"
    },
    {
      "channel": 4,
      "note": 69,
      "start": 14.8995,
      "duration": 0.1478,
      "velocity": 63,
      "chip": "ym2612"
    },
    {
      "channel": 5,
      "note": 55,
      "start": 14.9002,
      "duration": 0.0647,
      "velocity": 116,
      "chip": "ym2612"
    },
    {
      "channel": 5,
      "note": 57,
      "start": 14.9653,
      "duration": 0.0833,
      "velocity": 116,
      "chip": "ym2612"
    },
    {
      "channel": 1,
      "note": 45,
      "start": 15.046,
      "duration": 0.0827,
      "velocity": 117,
      "chip": "ym2612"
    },
    {
      "channel": 2,
      "note": 43,
      "start": 15.0468,
      "duration": 0.1484,
      "velocity": 93,
      "chip": "ym2612"
    },
    {
      "channel": 4,
      "note": 69,
      "start": 15.0485,
      "duration": 0.1479,
      "velocity": 59,
      "chip": "ym2612"
    },
    {
      "channel": 5,
      "note": 58,
      "start": 15.0491,
      "duration": 0.0648,
      "velocity": 115,
      "chip": "ym2612"
    },
    {
      "channel": 5,
      "note": 60,
      "start": 15.1143,
      "duration": 0.0827,
      "velocity": 115,
      "chip": "ym2612"
    },
    {
      "channel": 1,
      "note": 33,
      "start": 15.195,
      "duration": 0.0826,
      "velocity": 117,
      "chip": "ym2612"
    },
    {
      "channel": 2,
      "note": 45,
      "start": 15.1958,
      "duration": 0.1484,
      "velocity": 92,
      "chip": "ym2612"
    },
    {
      "channel": 4,
      "note": 69,
      "start": 15.1968,
      "duration": 0.1485,
      "velocity": 59,
      "chip": "ym2612"
    },
    {
      "channel": 5,
      "note": 62,
      "start": 15.1975,
      "duration": 0.0653,
      "velocity": 114,
      "chip": "ym2612"
    },
    {
      "channel": 5,
      "note": 64,
      "start": 15.2633,
      "duration": 0.0833,
      "velocity": 114,
      "chip": "ym2612"
    },
    {
      "channel": 1,
      "note": 45,
      "start": 15.344,
      "duration": 0.0826,
      "velocity": 117,
      "chip": "ym2612"
    },
    {
      "channel": 2,
      "note": 40,
      "start": 15.3447,
      "duration": 0.1483,
      "velocity": 92,
      "chip": "ym2612"
    },
    {
      "channel": 4,
      "note": 69,
      "start": 15.3465,
      "duration": 0.0648,
      "velocity": 63,
      "chip": "ym2612"
    },
    {
      "channel": 5,
      "note": 65,
      "start": 15.347,
      "duration": 0.0655,
      "velocity": 113,
      "chip": "ym2612"
    },
    {
      "channel": 4,
      "note": 81,
      "start": 15.4124,
      "duration": 0.082,
      "velocity": 59,
      "chip": "ym2612"
    },
    {
      "channel": 5,
      "note": 67,
      "start": 15.413,
      "duration": 0.082,
      "velocity": 113,
      "chip": "ym2612"
    },
    {
      "channel": 1,
      "note": 33,
      "start": 15.493,
      "duration": 0.0826,
      "velocity": 117,
      "chip": "ym2612"
    },
    {
      "channel": 2,
      "note": 45,
      "start": 15.4937,
      "duration": 0.1484,
      "velocity": 91,
      "chip": "ym2612"
    },
    {
      "channel": 4,
      "note": 74,
      "start": 15.4948,
      "duration": 0.1485,
      "velocity": 59,
      "chip": "ym2612"
    },
    {
      "channel": 5,
      "note": 69,
      "start": 15.4954,
      "duration": 0.0653,
      "velocity": 112,
      "chip": "ym2612"
    },
    {
      "channel": 5,
      "note": 70,
      "start": 15.5612,
      "duration": 0.0834,
      "velocity": 112,
      "chip": "ym2612"
    },
    {
      "channel": 1,
      "note": 33,
      "start": 15.642,
      "duration": 0.0826,
      "velocity": 117,
      "chip": "ym2612"
    },
    {
      "channel": 2,
      "note": 40,
      "start": 15.6427,
      "duration": 0.1483,
      "velocity": 91,
      "chip": "ym2612"
    },
    {
      "channel": 4,
      "note": 69,
      "start": 15.6444,
      "duration": 0.1479,
      "velocity": 63,
      "chip": "ym2612"
    },
    {
      "channel": 5,
      "note": 72,
      "start": 15.645,
      "duration": 0.0647,
      "velocity": 113,
      "chip": "ym2612"
    },
    {
      "channel": 5,
      "note": 74,
      "start": 15.7101,
      "duration": 0.0834,
      "velocity": 113,
      "chip": "ym2612"
    },
    {
      "channel": 1,
      "note": 33,
      "start": 15.7909,
      "duration": 0.1485,
      "velocity": 117,
      "chip": "ym2612"
    },
    {
      "channel": 2,
      "note": 43,
      "start": 15.7916,
      "duration": 0.1485,
      "velocity": 90,
      "chip": "ym2612"
    },
    {
      "channel": 4,
      "note": 69,
      "start": 15.7934,
      "duration": 0.148,
      "velocity": 59,
      "chip": "ym2612"
    },
    {
      "channel": 5,
      "note": 76,
      "start": 15.794,
      "duration": 0.0648,
      "velocity": 114,
      "chip": "ym2612"
    },
    {
      "channel": 5,
      "note": 77,
      "start": 15.8592,
      "duration": 0.0828,
      "velocity": 114,
      "chip": "ym2612"
    },
    {
      "channel": 1,
      "note": 45,
      "start": 15.9399,
      "duration": 0.0826,
      "velocity": 117,
      "chip": "ym2612"
    },
    {
      "channel": 2,
      "note": 45,
      "start": 15.9407,
      "duration": 0.1483,
      "velocity": 90,
      "chip": "ym2612"
    },
    {
      "channel": 4,
      "note": 69,
      "start": 15.9418,
      "duration": 0.1484,
      "velocity": 59,
      "chip": "ym2612"
    },
    {
      "channel": 5,
      "note": 79,
      "start": 15.9424,
      "duration": 0.0653,
      "velocity": 115,
      "chip": "ym2612"
    },
    {
      "channel": 5,
      "note": 81,
      "start": 16.0082,
      "duration": 0.0833,
      "velocity": 115,
      "chip": "ym2612"
    },
    {
      "channel": 1,
      "note": 33,
      "start": 16.0888,
      "duration": 0.0827,
      "velocity": 117,
      "chip": "ym2612"
    },
    {
      "channel": 2,
      "note": 40,
      "start": 16.0896,
      "duration": 0.1484,
      "velocity": 89,
      "chip": "ym2612"
    },
    {
      "channel": 4,
      "note": 69,
      "start": 16.0913,
      "duration": 0.1478,
      "velocity": 63,
      "chip": "ym2612"
    },
    {
      "channel": 5,
      "note": 82,
      "start": 16.092,
      "duration": 0.0647,
      "velocity": 116,
      "chip": "ym2612"
    },
    {
      "channel": 5,
      "note": 84,
      "start": 16.1571,
      "duration": 0.0833,
      "velocity": 116,
      "chip": "ym2612"
    },
    {
      "channel": 1,
      "note": 33,
      "start": 16.2378,
      "duration": 0.0826,
      "velocity": 117,
      "chip": "ym2612"
    },
    {
      "channel": 2,
      "note": 47,
      "start": 16.2386,
      "duration": 0.1483,
      "velocity": 89,
      "chip": "ym2612"
    },
    {
      "channel": 4,
      "note": 69,
      "start": 16.2403,
      "duration": 0.1479,
      "velocity": 59,
      "chip": "ym2612"
    },
    {
      "channel": 5,
      "note": 86,
      "start": 16.2409,
      "duration": 0.0647,
      "velocity": 117,
      "chip": "ym2612"
    },
    {
      "channel": 5,
      "note": 88,
      "start": 16.3061,
      "duration": 0.0827,
      "velocity": 117,
      "chip": "ym2612"
    },
    {
      "channel": 1,
      "note": 33,
      "start": 16.3868,
      "duration": 0.0826,
      "velocity": 117,
      "chip": "ym2612"
    },
    {
      "channel": 2,
      "note": 48,
      "start": 16.3876,
      "duration": 0.1483,
      "velocity": 88,
      "chip": "ym2612"
    },
    {
      "channel": 4,
      "note": 69,
      "start": 16.3886,
      "duration": 0.1485,
      "velocity": 59,
      "chip": "ym2612"
    },
    {
      "channel": 5,
      "note": 89,
      "start": 16.3893,
      "duration": 0.0653,
      "velocity": 118,
      "chip": "ym2612"
    },
    {
      "channel": 5,
      "note": 91,
      "start": 16.4551,
      "duration": 0.0833,
      "velocity": 118,
      "chip": "ym2612"
    },
    {
      "channel": 1,
      "note": 33,
      "start": 16.5358,
      "duration": 0.0826,
      "velocity": 117,
      "chip": "ym2612"
    },
    {
      "channel": 2,
      "note": 47,
      "start": 16.5365,
      "duration": 0.1485,
      "velocity": 88,
      "chip": "ym2612"
    },
    {
      "channel": 4,
      "note": 69,
      "start": 16.5382,
      "duration": 0.1481,
      "velocity": 63,
      "chip": "ym2612"
    },
    {
      "channel": 5,
      "note": 93,
      "start": 16.5388,
      "duration": 0.0647,
      "velocity": 119,
      "chip": "ym2612"
    },
    {
      "channel": 5,
      "note": 94,
      "start": 16.604,
      "duration": 0.0836,
      "velocity": 119,
      "chip": "ym2612"
    },
    {
      "channel": 0,
      "note": 33,
      "start": 16.6842,
      "duration": 2.383,
      "velocity": 108,
      "chip": "ym2612"
    },
    {
      "channel": 1,
      "note": 33,
      "start": 16.6849,
      "duration": 0.0824,
      "velocity": 117,
      "chip": "ym2612"
    },
    {
      "channel": 2,
      "note": 45,
      "start": 16.6856,
      "duration": 0.1482,
      "velocity": 87,
      "chip": "ym2612"
    },
    {
      "channel": 4,
      "note": 69,
      "start": 16.6874,
      "duration": 0.1477,
      "velocity": 59,
      "chip": "ym2612"
    },
    {
      "channel": 5,
      "note": 93,
      "start": 16.688,
      "duration": 0.0646,
      "velocity": 120,
      "chip": "ym2612"
    },
    {
      "channel": 5,
      "note": 91,
      "start": 16.753,
      "duration": 0.0833,
      "velocity": 120,
      "chip": "ym2612"
    },
    {
      "channel": 1,
      "note": 33,
      "start": 16.8337,
      "duration": 0.0826,
      "velocity": 117,
      "chip": "ym2612"
    },
    {
      "channel": 2,
      "note": 40,
      "start": 16.8345,
      "duration": 0.1483,
      "velocity": 87,
      "chip": "ym2612"
    },
    {
      "channel": 4,
      "note": 69,
      "start": 16.8362,
      "duration": 0.1479,
      "velocity": 63,
      "chip": "ym2612"
    },
    {
      "channel": 5,
      "note": 89,
      "start": 16.8368,
      "duration": 0.0647,
      "velocity": 119,
      "chip": "ym2612"
    },
    {
      "channel": 5,
      "note": 88,
      "start": 16.9019,
      "duration": 0.0834,
      "velocity": 119,
      "chip": "ym2612"
    },
    {
      "channel": 1,
      "note": 33,
      "start": 16.9827,
      "duration": 0.0826,
      "velocity": 117,
      "chip": "ym2612"
    },
    {
      "channel": 2,
      "note": 43,
      "start": 16.9834,
      "duration": 0.1484,
      "velocity": 88,
      "chip": "ym2612"
    },
    {
      "channel": 4,
      "note": 69,
      "start": 16.9851,
      "duration": 0.1479,
      "velocity": 59,
      "chip": "ym2612"
    },
    {
      "channel": 5,
      "note": 86,
      "start": 16.9858,
      "duration": 0.0647,
      "velocity": 118,
      "chip": "ym2612"
    },
    {
      "channel": 5,
      "note": 84,
      "start": 17.0509,
      "duration": 0.0828,
      "velocity": 118,
      "chip": "ym2612"
    },
    {
      "channel": 1,
      "note": 45,
      "start": 17.1316,
      "duration": 0.0827,
      "velocity": 117,
      "chip": "ym2612"
    },
    {
      "channel": 2,
      "note": 45,
      "start": 17.1324,
      "duration": 0.1484,
      "velocity": 88,
      "chip": "ym2612"
    },
    {
      "channel": 4,
      "note": 69,
      "start": 17.1335,
      "duration": 0.1485,
      "velocity": 59,
      "chip": "ym2612"
    },
    {
      "channel": 5,
      "note": 82,
      "start": 17.1341,
      "duration": 0.0653,
      "velocity": 117,
      "chip": "ym2612"
    },
    {
      "channel": 5,
      "note": 81,
      "start": 17.1999,
      "duration": 0.0833,
      "velocity": 117,
      "chip": "ym2612"
    },
    {
      "channel": 1,
      "note": 33,
      "start": 17.2806,
      "duration": 0.0826,
      "velocity": 117,
      "chip": "ym2612"
    },
    {
      "channel": 2,
      "note": 40,
      "start": 17.2814,
      "duration": 0.1483,
      "velocity": 89,
      "chip": "ym2612"
    },
    {
      "channel": 4,
      "note": 69,
      "start": 17.2831,
      "duration": 0.1478,
      "velocity": 63,
      "chip": "ym2612"
    },
    {
      "channel": 5,
      "note": 79,
      "start": 17.2837,
      "duration": 0.0648,
      "velocity": 116,
      "chip": "ym2612"
    },
    {
      "channel": 5,
      "note": 77,
      "start": 17.3489,
      "duration": 0.0833,
      "velocity": 116,
      "chip": "ym2612"
    },
    {
      "channel": 1,
      "note": 45,
      "start": 17.4296,
      "duration": 0.0826,
      "velocity": 117,
      "chip": "ym2612"
    },
    {
      "channel": 2,
      "note": 43,
      "start": 17.4304,
      "duration": 0.1483,
      "velocity": 89,
      "chip": "ym2612"
    },
    {
      "channel": 4,
      "note": 69,
      "start": 17.432,
      "duration": 0.148,
      "velocity": 59,
      "chip": "ym2612"
    },
    {
      "channel": 5,
      "note": 76,
      "start": 17.4327,
      "duration": 0.0647,
      "velocity": 115,
      "chip": "ym2612"
    },
    {
      "channel": 5,
      "note": 74,
      "start": 17.4978,
      "duration": 0.0828,
      "velocity": 115,
      "chip": "ym2612"
    },
    {
      "channel": 1,
      "note": 33,
      "start": 17.5786,
      "duration": 0.0826,
      "velocity": 117,
      "chip": "ym2612"
    },
    {
      "channel": 2,
      "note": 45,
      "start": 17.5793,
      "duration": 0.1484,
      "velocity": 90,
      "chip": "ym2612"
    },
    {
      "channel": 4,
      "note": 69,
      "start": 17.5804,
      "duration": 0.1485,
      "velocity": 59,
      "chip": "ym2612"
    },
    {
      "channel": 5,
      "note": 72,
      "start": 17.5811,
      "duration": 0.0653,
      "velocity": 114,
      "chip": "ym2612"
    },
    {
      "channel": 5,
      "note": 70,
      "start": 17.6468,
      "duration": 0.0834,
      "velocity": 114,
      "chip": "ym2612"
    },
    {
      "channel": 1,
      "note": 45,
      "start": 17.7276,
      "duration": 0.0826,
      "velocity": 117,
      "chip": "ym2612"
    },
    {
      "channel": 2,
      "note": 40,
      "start": 17.7283,
      "duration": 0.1484,
      "velocity": 90,
      "chip": "ym2612"
    },
    {
      "channel": 4,
      "note": 69,
      "start": 17.73,
      "duration": 0.148,
      "velocity": 63,
      "chip": "ym2612"
    },
    {
      "channel": 5,
      "note": 69,
      "start": 17.7306,
      "duration": 0.0647,
      "velocity": 113,
      "chip": "ym2612"
    },
    {
      "channel": 5,
      "note": 67,
      "start": 17.7958,
      "duration": 0.0835,
      "velocity": 113,
      "chip": "ym2612"
    },
    {
      "channel": 1,
      "note": 33,
      "start": 17.8765,
      "duration": 0.0826,
      "velocity": 117,
      "chip": "ym2612"
    },
    {
      "channel": 2,
      "note": 43,
      "start": 17.8773,
      "duration": 0.1484,
      "velocity": 91,
      "chip": "ym2612"
    },
    {
      "channel": 3,
      "note": 19,
      "start": 17.8779,
      "duration": 1.1252,
      "velocity": 124,
      "chip": "ym2612"
    },
    {
      "channel": 4,
      "note": 69,
      "start": 17.8791,
      "duration": 0.1477,
      "velocity": 59,
      "chip": "ym2612"
    },
    {
      "channel": 5,
      "note": 65,
      "start": 17.8797,
      "duration": 0.0646,
      "velocity": 112,
      "chip": "ym2612"
    },
    {
      "channel": 5,
      "note": 64,
      "start": 17.9447,
      "duration": 0.0833,
      "velocity": 112,
      "chip": "ym2612"
    },
    {
      "channel": 1,
      "note": 33,
      "start": 18.0255,
      "duration": 0.0826,
      "velocity": 117,
      "chip": "ym2612"
    },
    {
      "channel": 2,
      "note": 45,
      "start": 18.0262,
      "duration": 0.1484,
      "velocity": 91,
      "chip": "ym2612"
    },
    {
      "channel": 4,
      "note": 69,
      "start": 18.028,
      "duration": 0.1478,
      "velocity": 63,
      "chip": "ym2612"
    },
    {
      "channel": 5,
      "note": 62,
      "start": 18.0285,
      "duration": 0.0648,
      "velocity": 113,
      "chip": "ym2612"
    },
    {
      "channel": 5,
      "note": 60,
      "start": 18.0937,
      "duration": 0.0833,
      "velocity": 113,
      "chip": "ym2612"
    },
    {
      "channel": 1,
      "note": 33,
      "start": 18.1744,
      "duration": 0.1485,
      "velocity": 117,
      "chip": "ym2612"
    },
    {
      "channel": 2,
      "note": 47,
      "start": 18.1752,
      "duration": 0.1484,
      "velocity": 92,
      "chip": "ym2612"
    },
    {
      "channel": 4,
      "note": 69,
      "start": 18.1769,
      "duration": 0.148,
      "velocity": 59,
      "chip": "ym2612"
    },
    {
      "channel": 5,
      "note": 58,
      "start": 18.1775,
      "duration": 0.0648,
      "velocity": 114,
      "chip": "ym2612"
    },
    {
      "channel": 5,
      "note": 57,
      "start": 18.2428,
      "duration": 0.0828,
      "velocity": 114,
      "chip": "ym2612"
    },
    {
      "channel": 1,
      "note": 45,
      "start": 18.3235,
      "duration": 0.0826,
      "velocity": 117,
      "chip": "ym2612"
    },
    {
      "channel": 2,
      "note": 48,
      "start": 18.3243,
      "duration": 0.1483,
      "velocity": 92,
      "chip": "ym2612"
    },
    {
      "channel": 4,
      "note": 69,
      "start": 18.3254,
      "duration": 0.1485,
      "velocity": 59,
      "chip": "ym2612"
    },
    {
      "channel": 5,
      "note": 55,
      "start": 18.326,
      "duration": 0.0653,
      "velocity": 115,
      "chip": "ym2612"
    },
    {
      "channel": 5,
      "note": 53,
      "start": 18.3917,
      "duration": 0.0834,
      "velocity": 115,
      "chip": "ym2612"
    },
    {
      "channel": 1,
      "note": 33,
      "start": 18.4724,
      "duration": 0.0826,
      "velocity": 117,
      "chip": "ym2612"
    },
    {
      "channel": 2,
      "note": 50,
      "start": 18.4732,
      "duration": 0.1483,
      "velocity": 93,
      "chip": "ym2612"
    },
    {
      "channel": 4,
      "note": 69,
      "start": 18.4749,
      "duration": 0.1479,
      "velocity": 63,
      "chip": "ym2612"
    },
    {
      "channel": 5,
      "note": 52,
      "start": 18.4755,
      "duration": 0.0647,
      "velocity": 116,
      "chip": "ym2612"
    },
    {
      "channel": 5,
      "note": 50,
      "start": 18.5407,
      "duration": 0.0834,
      "velocity": 116,
      "chip": "ym2612"
    },
    {
      "channel": 1,
      "note": 33,
      "start": 18.6214,
      "duration": 0.0826,
      "velocity": 117,
      "chip": "ym2612"
    },
    {
      "channel": 2,
      "note": 48,
      "start": 18.6221,
      "duration": 0.1484,
      "velocity": 93,
      "chip": "ym2612"
    },
    {
      "channel": 4,
      "note": 69,
      "start": 18.6239,
      "duration": 0.1479,
      "velocity": 59,
      "chip": "ym2612"
    },
    {
      "channel": 5,
      "note": 48,
      "start": 18.6245,
      "duration": 0.0646,
      "velocity": 117,
      "chip": "ym2612"
    },
    {
      "channel": 5,
      "note": 46,
      "start": 18.6897,
      "duration": 0.0828,
      "velocity": 117,
      "chip": "ym2612"
    },
    {
      "channel": 1,
      "note": 33,
      "start": 18.7704,
      "duration": 0.0826,
      "velocity": 117,
      "chip": "ym2612"
    },
    {
      "channel": 2,
      "note": 47,
      "start": 18.7711,
      "duration": 0.1484,
      "velocity": 94,
      "chip": "ym2612"
    },
    {
      "channel": 4,
      "note": 69,
      "start": 18.7722,
      "duration": 0.1485,
      "velocity": 59,
      "chip": "ym2612"
    },
    {
      "channel": 5,
      "note": 45,
      "start": 18.7729,
      "duration": 0.0652,
      "velocity": 118,
      "chip": "ym2612"
    },
    {
      "channel": 5,
      "note": 43,
      "start": 18.8386,
      "duration": 0.0828,
      "velocity": 118,
      "chip": "ym2612"
    },
    {
      "channel": 1,
      "note": 33,
      "start": 18.9193,
      "duration": 0.0826,
      "velocity": 117,
      "chip": "ym2612"
    },
    {
      "channel": 2,
      "note": 40,
      "start": 18.9201,
      "duration": 0.1491,
      "velocity": 94,
      "chip": "ym2612"
    },
    {
      "channel": 4,
      "note": 69,
      "start": 18.9212,
      "duration": 0.1493,
      "velocity": 59,
      "chip": "ym2612"
    },
    {
      "channel": 5,
      "note": 41,
      "start": 18.9218,
      "duration": 0.0653,
      "velocity": 119,
      "chip": "ym2612"
    },
    {
      "channel": 5,
      "note": 40,
      "start": 18.9876,
      "duration": 0.0842,
      "velocity": 119,
      "chip": "ym2612"
    },
    {
      "channel": 0,
      "note": 45,
      "start": 19.0683,
      "duration": 0.2969,
      "velocity": 122,
      "chip": "ym2612"
    },
    {
      "channel": 1,
      "note": 33,
      "start": 19.069,
      "duration": 0.0819,
      "velocity": 117,
      "chip": "ym2612"
    },
    {
      "channel": 2,
      "note": 45,
      "start": 19.0698,
      "duration": 0.1476,
      "velocity": 95,
      "chip": "ym2612"
    },
    {
      "channel": 3,
      "note": 21,
      "start": 19.0704,
      "duration": 3.508,
      "velocity": 124,
      "chip": "ym2612"
    },
    {
      "channel": 4,
      "note": 41,
      "start": 19.0716,
      "duration": 0.0639,
      "velocity": 120,
      "chip": "ym2612"
    },
    {
      "channel": 5,
      "note": 7,
      "start": 19.0729,
      "duration": 2.3146,
      "velocity": 1,
      "chip": "ym2612"
    },
    {
      "channel": 4,
      "note": 43,
      "start": 19.136,
      "duration": 0.0826,
      "velocity": 120,
      "chip": "ym2612"
    },
    {
      "channel": 1,
      "note": 33,
      "start": 19.2172,
      "duration": 0.0826,
      "velocity": 117,
      "chip": "ym2612"
    },
    {
      "channel": 2,
      "note": 40,
      "start": 19.218,
      "duration": 0.1491,
      "velocity": 95,
      "chip": "ym2612"
    },
    {
      "channel": 4,
      "note": 45,
      "start": 19.219,
      "duration": 0.0655,
      "velocity": 119,
      "chip": "ym2612"
    },
    {
      "channel": 4,
      "note": 46,
      "start": 19.2849,
      "duration": 0.0834,
      "velocity": 119,
      "chip": "ym2612"
    },
    {
      "channel": 0,
      "note": 72,
      "start": 19.3663,
      "duration": 0.2968,
      "velocity": 113,
      "chip": "ym2612"
    },
    {
      "channel": 1,
      "note": 33,
      "start": 19.3669,
      "duration": 0.0819,
      "velocity": 117,
      "chip": "ym2612"
    },
    {
      "channel": 2,
      "note": 43,
      "start": 19.3677,
      "duration": 0.1476,
      "velocity": 94,
      "chip": "ym2612"
    },
    {
      "channel": 4,
      "note": 48,
      "start": 19.3688,
      "duration": 0.0647,
      "velocity": 118,
      "chip": "ym2612"
    },
    {
      "channel": 4,
      "note": 50,
      "start": 19.4339,
      "duration": 0.0827,
      "velocity": 118,
      "chip": "ym2612"
    },
    {
      "channel": 1,
      "note": 45,
      "start": 19.5152,
      "duration": 0.0826,
      "velocity": 117,
      "chip": "ym2612"
    },
    {
      "channel": 2,
      "note": 45,
      "start": 19.5159,
      "duration": 0.1491,
      "velocity": 94,
      "chip": "ym2612"
    },
    {
      "channel": 4,
      "note": 52,
      "start": 19.517,
      "duration": 0.0655,
      "velocity": 117,
      "chip": "ym2612"
    },
    {
      "channel": 4,
      "note": 53,
      "start": 19.5829,
      "duration": 0.0833,
      "velocity": 117,
      "chip": "ym2612"
    },
    {
      "channel": 0,
      "note": 24,
      "start": 19.6642,
      "duration": 0.2969,
      "velocity": 126,
      "chip": "ym2612"
    },
    {
      "channel": 1,
      "note": 33,
      "start": 19.6649,
      "duration": 0.0819,
      "velocity": 117,
      "chip": "ym2612"
    },
    {
      "channel": 2,
      "note": 40,
      "start": 19.6656,
      "duration": 0.1476,
      "velocity": 93,
      "chip": "ym2612"
    },
    {
      "channel": 4,
      "note": 55,
      "start": 19.6668,
      "duration": 0.0647,
      "velocity": 116,
      "chip": "ym2612"
    },
    {
      "channel": 4,
      "note": 57,
      "start": 19.7319,
      "duration": 0.0826,
      "velocity": 116,
      "chip": "ym2612"
    },
    {
      "channel": 1,
      "note": 45,
      "start": 19.8131,
      "duration": 0.0826,
      "velocity": 117,
      "chip": "ym2612"
    },
    {
      "channel": 2,
      "note": 43,
      "start": 19.8138,
      "duration": 0.1492,
      "velocity": 93,
      "chip": "ym2612"
    },
    {
      "channel": 4,
      "note": 58,
      "start": 19.815,
      "duration": 0.0655,
      "velocity": 115,
      "chip": "ym2612"
    },
    {
      "channel": 4,
      "note": 60,
      "start": 19.8809,
      "duration": 0.0833,
      "velocity": 115,
      "chip": "ym2612"
    },
    {
      "channel": 0,
      "note": 45,
      "start": 19.9622,
      "duration": 0.2969,
      "velocity": 122,
      "chip": "ym2612"
    },
    {
      "channel": 1,
      "note": 33,
      "start": 19.9628,
      "duration": 0.0819,
      "velocity": 117,
      "chip": "ym2612"
    },
    {
      "channel": 2,
      "note": 45,
      "start": 19.9636,
      "duration": 0.1476,
      "velocity": 92,
      "chip": "ym2612"
    },
    {
      "channel": 4,
      "note": 62,
      "start": 19.9646,
      "duration": 0.0648,
      "velocity": 114,
      "chip": "ym2612"
    },
    {
      "channel": 4,
      "note": 64,
      "start": 20.0299,
      "duration": 0.0826,
      "velocity": 114,
      "chip": "ym2612"
    },
    {
      "channel": 1,
      "note": 45,
      "start": 20.111,
      "duration": 0.0826,
      "velocity": 117,
      "chip": "ym2612"
    },
    {
      "channel": 2,
      "note": 40,
      "start": 20.1118,
      "duration": 0.1485,
      "velocity": 92,
      "chip": "ym2612"
    },
    {
      "channel": 4,
      "note": 65,
      "start": 20.1129,
      "duration": 0.0655,
      "velocity": 113,
      "chip": "ym2612"
    },
    {
      "channel": 4,
      "note": 67,
      "start": 20.1788,
      "duration": 0.0828,
      "velocity": 113,
      "chip": "ym2612"
    },
    {
      "channel": 0,
      "note": 45,
      "start": 20.2596,
      "duration": 0.5954,
      "velocity": 122,
      "chip": "ym2612"
    },
    {
      "channel": 1,
      "note": 33,
      "start": 20.2602,
      "duration": 0.0824,
      "velocity": 117,
      "chip": "ym2612"
    },
    {
      "channel": 2,
      "note": 45,
      "start": 20.261,
      "duration": 0.1481,
      "velocity": 91,
      "chip": "ym2612"
    },
    {
      "channel": 4,
      "note": 69,
      "start": 20.262,
      "duration": 0.0653,
      "velocity": 112,
      "chip": "ym2612"
    },
    {
      "channel": 4,
      "note": 70,
      "start": 20.3278,
      "duration": 0.0826,
      "velocity": 112,
      "chip": "ym2612"
    },
    {
      "channel": 1,
      "note": 33,
      "start": 20.409,
      "duration": 0.0826,
      "velocity": 117,
      "chip": "ym2612"
    },
    {
      "channel": 2,
      "note": 40,
      "start": 20.4098,
      "duration": 0.1483,
      "velocity": 91,
      "chip": "ym2612"
    },
    {
      "channel": 4,
      "note": 72,
      "start": 20.4108,
      "duration": 0.0655,
      "velocity": 113,
      "chip": "ym2612"
    },
    {
      "channel": 4,
      "note": 74,
      "start": 20.4767,
      "duration": 0.0827,
      "velocity": 113,
      "chip": "ym2612"
    },
    {
      "channel": 1,
      "note": 33,
      "start": 20.558,
      "duration": 0.1485,
      "velocity": 117,
      "chip": "ym2612"
    },
    {
      "channel": 2,
      "note": 43,
      "start": 20.5588,
      "duration": 0.1484,
      "velocity": 90,
      "chip": "ym2612"
    },
    {
      "channel": 4,
      "note": 76,
      "start": 20.5598,
      "duration": 0.0655,
      "velocity": 114,
      "chip": "ym2612"
    },
    {
      "channel": 4,
      "note": 77,
      "start": 20.6257,
      "duration": 0.0826,
      "velocity": 114,
      "chip": "ym2612"
    },
    {
      "channel": 1,
      "note": 45,
      "start": 20.707,
      "duration": 0.0826,
      "velocity": 117,
      "chip": "ym2612"
    },
    {
      "channel": 2,
      "note": 45,
      "start": 20.7077,
      "duration": 0.1491,
      "velocity": 90,
      "chip": "ym2612"
    },
    {
      "channel": 4,
      "note": 79,
      "start": 20.7088,
      "duration": 0.0655,
      "velocity": 115,
      "chip": "ym2612"
    },
    {
      "channel": 4,
      "note": 81,
      "start": 20.7748,
      "duration": 0.0833,
      "velocity": 115,
      "chip": "ym2612"
    },
    {
      "channel": 0,
      "note": 24,
      "start": 20.8561,
      "duration": 0.5947,
      "velocity": 126,
      "chip": "ym2612"
    },
    {
      "channel": 1,
      "note": 33,
      "start": 20.8567,
      "duration": 0.0818,
      "velocity": 117,
      "chip": "ym2612"
    },
    {
      "channel": 2,
      "note": 40,
      "start": 20.8575,
      "duration": 0.1476,
      "velocity": 89,
      "chip": "ym2612"
    },
    {
      "channel": 4,
      "note": 82,
      "start": 20.8585,
      "duration": 0.0647,
      "velocity": 116,
      "chip": "ym2612"
    },
    {
      "channel": 4,
      "note": 84,
      "start": 20.9237,
      "duration": 0.0826,
      "velocity": 116,
      "chip": "ym2612"
    },
    {
      "channel": 1,
      "note": 33,
      "start": 21.0049,
      "duration": 0.0827,
      "velocity": 117,
      "chip": "ym2612"
    },
    {
      "channel": 2,
      "note": 47,
      "start": 21.0056,
      "duration": 0.1484,
      "velocity": 89,
      "chip": "ym2612"
    },
    {
      "channel": 4,
      "note": 86,
      "start": 21.0068,
      "duration": 0.0654,
      "velocity": 117,
      "chip": "ym2612"
    },
    {
      "channel": 4,
      "note": 88,
      "start": 21.0727,
      "duration": 0.0826,
      "velocity": 117,
      "chip": "ym2612"
    },
    {
      "channel": 1,
      "note": 33,
      "start": 21.1539,
      "duration": 0.0826,
      "velocity": 117,
      "chip": "ym2612"
    },
    {
      "channel": 2,
      "note": 48,
      "start": 21.1546,
      "duration": 0.1484,
      "velocity": 88,
      "chip": "ym2612"
    },
    {
      "channel": 4,
      "note": 89,
      "start": 21.1557,
      "duration": 0.0655,
      "velocity": 118,
      "chip": "ym2612"
    },
    {
      "channel": 4,
      "note": 91,
      "start": 21.2216,
      "duration": 0.0826,
      "velocity": 118,
      "chip": "ym2612"
    },
    {
      "channel": 1,
      "note": 33,
      "start": 21.3028,
      "duration": 0.0826,
      "velocity": 117,
      "chip": "ym2612"
    },
    {
      "channel": 2,
      "note": 47,
      "start": 21.3036,
      "duration": 0.1491,
      "velocity": 88,
      "chip": "ym2612"
    },
    {
      "channel": 4,
      "note": 93,
      "start": 21.3047,
      "duration": 0.0655,
      "velocity": 119,
      "chip": "ym2612"
    },
    {
      "channel": 4,
      "note": 94,
      "start": 21.3706,
      "duration": 0.0833,
      "velocity": 119,
      "chip": "ym2612"
    },
    {
      "channel": 0,
      "note": 45,
      "start": 21.4519,
      "duration": 0.2969,
      "velocity": 122,
      "chip": "ym2612"
    },
    {
      "channel": 1,
      "note": 33,
      "start": 21.4525,
      "duration": 0.0819,
      "velocity": 117,
      "chip": "ym2612"
    },
    {
      "channel": 2,
      "note": 45,
      "start": 21.4533,
      "duration": 0.1476,
      "velocity": 87,
      "chip": "ym2612"
    },
    {
      "channel": 4,
      "note": 93,
      "start": 21.4544,
      "duration": 0.0647,
      "velocity": 120,
      "chip": "ym2612"
    },
    {
      "channel": 5,
      "note": 7,
      "start": 21.4551,
      "duration": 2.3161,
      "velocity": 1,
      "chip": "ym2612"
    },
    {
      "channel": 4,
      "note": 91,
      "start": 21.5195,
      "duration": 0.0827,
      "velocity": 120,
      "chip": "ym2612"
    },
    {
      "channel": 1,
      "note": 33,
      "start": 21.6008,
      "duration": 0.0826,
      "velocity": 117,
      "chip": "ym2612"
    },
    {
      "channel": 2,
      "note": 40,
      "start": 21.6016,
      "duration": 0.1491,
      "velocity": 87,
      "chip": "ym2612"
    },
    {
      "channel": 4,
      "note": 89,
      "start": 21.6026,
      "duration": 0.0655,
      "velocity": 119,
      "chip": "ym2612"
    },
    {
      "channel": 4,
      "note": 88,
      "start": 21.6685,
      "duration": 0.0833,
      "velocity": 119,
      "chip": "ym2612"
    },
    {
      "channel": 0,
      "note": 84,
      "start": 21.7498,
      "duration": 0.2969,
      "velocity": 113,
      "chip": "ym2612"
    },
    {
      "channel": 1,
      "note": 33,
      "start": 21.7505,
      "duration": 0.0819,
      "velocity": 117,
      "chip": "ym2612"
    },
    {
      "channel": 2,
      "note": 43,
      "start": 21.7512,
      "duration": 0.1476,
      "velocity": 88,
      "chip": "ym2612"
    },
    {
      "channel": 4,
      "note": 86,
      "start": 21.7523,
      "duration": 0.0648,
      "velocity": 118,
      "chip": "ym2612"
    },
    {
      "channel": 4,
      "note": 84,
      "start": 21.8175,
      "duration": 0.0826,
      "velocity": 118,
      "chip": "ym2612"
    },
    {
      "channel": 1,
      "note": 45,
      "start": 21.8987,
      "duration": 0.0826,
      "velocity": 117,
      "chip": "ym2612"
    },
    {
      "channel": 2,
      "note": 45,
      "start": 21.8995,
      "duration": 0.1492,
      "velocity": 88,
      "chip": "ym2612"
    },
    {
      "channel": 4,
      "note": 82,
      "start": 21.9005,
      "duration": 0.0655,
      "velocity": 117,
      "chip": "ym2612"
    },
    {
      "channel": 4,
      "note": 81,
      "start": 21.9665,
      "duration": 0.0833,
      "velocity": 117,
      "chip": "ym2612"
    },
    {
      "channel": 0,
      "note": 24,
      "start": 22.0478,
      "duration": 0.2968,
      "velocity": 126,
      "chip": "ym2612"
    },
    {
      "channel": 1,
      "note": 33,
      "start": 22.0484,
      "duration": 0.0819,
      "velocity": 117,
      "chip": "ym2612"
    },
    {
      "channel": 2,
      "note": 40,
      "start": 22.0492,
      "duration": 0.1476,
      "velocity": 89,
      "chip": "ym2612"
    },
    {
      "channel": 4,
      "note": 79,
      "start": 22.0503,
      "duration": 0.0647,
      "velocity": 116,
      "chip": "ym2612"
    },
    {
      "channel": 4,
      "note": 77,
      "start": 22.1154,
      "duration": 0.0826,
      "velocity": 116,
      "chip": "ym2612"
    },
    {
      "channel": 1,
      "note": 45,
      "start": 22.1967,
      "duration": 0.0826,
      "velocity": 117,
      "chip": "ym2612"
    },
    {
      "channel": 2,
      "note": 43,
      "start": 22.1974,
      "duration": 0.1491,
      "velocity": 89,
      "chip": "ym2612"
    },
    {
      "channel": 4,
      "note": 76,
      "start": 22.1985,
      "duration": 0.0655,
      "velocity": 115,
      "chip": "ym2612"
    },
    {
      "channel": 4,
      "note": 74,
      "start": 22.2644,
      "duration": 0.0834,
      "velocity": 115,
      "chip": "ym2612"
    },
    {
      "channel": 0,
      "note": 45,
      "start": 22.3458,
      "duration": 0.2969,
      "velocity": 122,
      "chip": "ym2612"
    },
    {
      "channel": 1,
      "note": 33,
      "start": 22.3464,
      "duration": 0.0818,
      "velocity": 117,
      "chip": "ym2612"
    },
    {
      "channel": 2,
      "note": 45,
      "start": 22.3472,
      "duration": 0.1476,
      "velocity": 90,
      "chip": "ym2612"
    },
    {
      "channel": 4,
      "note": 72,
      "start": 22.3483,
      "duration": 0.0647,
      "velocity": 114,
      "chip": "ym2612"
    },
    {
      "channel": 4,
      "note": 70,
      "start": 22.4134,
      "duration": 0.0826,
      "velocity": 114,
      "chip": "ym2612"
    },
    {
      "channel": 1,
      "note": 45,
      "start": 22.4946,
      "duration": 0.0826,
      "velocity": 117,
      "chip": "ym2612"
    },
    {
      "channel": 2,
      "note": 40,
      "start": 22.4954,
      "duration": 0.1485,
      "velocity": 90,
      "chip": "ym2612"
    },
    {
      "channel": 4,
      "note": 69,
      "start": 22.4965,
      "duration": 0.0655,
      "velocity": 113,
      "chip": "ym2612"
    },
    {
      "channel": 4,
      "note": 67,
      "start": 22.5624,
      "duration": 0.083,
      "velocity": 113,
      "chip": "ym2612"
    },
    {
      "channel": 0,
      "note": 45,
      "start": 22.6431,
      "duration": 0.5954,
      "velocity": 122,
      "chip": "ym2612"
    },
    {
      "channel": 1,
      "note": 33,
      "start": 22.6437,
      "duration": 0.0824,
      "velocity": 117,
      "chip": "ym2612"
    },
    {
      "channel": 2,
      "note": 43,
      "start": 22.6445,
      "duration": 0.1482,
      "velocity": 91,
      "chip": "ym2612"
    },
    {
      "channel": 3,
      "note": 19,
      "start": 22.6451,
      "duration": 1.125,
      "velocity": 124,
      "chip": "ym2612"
    },
    {
      "channel": 4,
      "note": 65,
      "start": 22.6458,
      "duration": 0.0651,
      "velocity": 112,
      "chip": "ym2612"
    },
    {
      "channel": 4,
      "note": 64,
      "start": 22.7114,
      "duration": 0.0826,
      "velocity": 112,
      "chip": "ym2612"
    },
    {
      "channel": 1,
      "note": 33,
      "start": 22.7925,
      "duration": 0.0826,
      "velocity": 117,
      "chip": "ym2612"
    },
    {
      "channel": 2,
      "note": 45,
      "start": 22.7933,
      "duration": 0.1484,
      "velocity": 91,
      "chip": "ym2612"
    },
    {
      "channel": 4,
      "note": 62,
      "start": 22.7944,
      "duration": 0.0655,
      "velocity": 113,
      "chip": "ym2612"
    },
    {
      "channel": 4,
      "note": 60,
      "start": 22.8603,
      "duration": 0.0826,
      "velocity": 113,
      "chip": "ym2612"
    },
    {
      "channel": 1,
      "note": 33,
      "start": 22.9415,
      "duration": 0.1485,
      "velocity": 117,
      "chip": "ym2612"
    },
    {
      "channel": 2,
      "note": 47,
      "start": 22.9423,
      "duration": 0.1484,
      "velocity": 92,
      "chip": "ym2612"
    },
    {
      "channel": 4,
      "note": 58,
      "start": 22.9434,
      "duration": 0.0654,
      "velocity": 114,
      "chip": "ym2612"
    },
    {
      "channel": 4,
      "note": 57,
      "start": 23.0093,
      "duration": 0.0826,
      "velocity": 114,
      "chip": "ym2612"
    },
    {
      "channel": 1,
      "note": 45,
      "start": 23.0905,
      "duration": 0.0826,
      "velocity": 117,
      "chip": "ym2612"
    },
    {
      "channel": 2,
      "note": 48,
      "start": 23.0913,
      "duration": 0.1491,
      "velocity": 92,
      "chip": "ym2612"
    },
    {
      "channel": 4,
      "note": 55,
      "start": 23.0924,
      "duration": 0.0654,
      "velocity": 115,
      "chip": "ym2612"
    },
    {
      "channel": 4,
      "note": 53,
      "start": 23.1583,
      "duration": 0.0834,
      "velocity": 115,
      "chip": "ym2612"
    },
    {
      "channel": 0,
      "note": 21,
      "start": 23.2397,
      "duration": 0.5947,
      "velocity": 126,
      "chip": "ym2612"
    },
    {
      "channel": 1,
      "note": 33,
      "start": 23.2403,
      "duration": 0.0818,
      "velocity": 117,
      "chip": "ym2612"
    },
    {
      "channel": 2,
      "note": 50,
      "start": 23.2411,
      "duration": 0.1475,
      "velocity": 93,
      "chip": "ym2612"
    },
    {
      "channel": 4,
      "note": 52,
      "start": 23.2421,
      "duration": 0.0647,
      "velocity": 116,
      "chip": "ym2612"
    },
    {
      "channel": 4,
      "note": 50,
      "start": 23.3073,
      "duration": 0.0826,
      "velocity": 116,
      "chip": "ym2612"
    },
    {
      "channel": 1,
      "note": 33,
      "start": 23.3885,
      "duration": 0.0826,
      "velocity": 117,
      "chip": "ym2612"
    },
    {
      "channel": 2,
      "note": 48,
      "start": 23.3892,
      "duration": 0.1483,
      "velocity": 93,
      "chip": "ym2612"
    },
    {
      "channel": 4,
      "note": 48,
      "start": 23.3904,
      "duration": 0.0654,
      "velocity": 117,
      "chip": "ym2612"
    },
    {
      "channel": 4,
      "note": 46,
      "start": 23.4563,
      "duration": 0.0826,
      "velocity": 117,
      "chip": "ym2612"
    },
    {
      "channel": 1,
      "note": 33,
      "start": 23.5374,
      "duration": 0.0826,
      "velocity": 117,
      "chip": "ym2612"
    },
    {
      "channel": 2,
      "note": 47,
      "start": 23.5382,
      "duration": 0.1483,
      "velocity": 94,
      "chip": "ym2612"
    },
    {
      "channel": 4,
      "note": 45,
      "start": 23.5393,
      "duration": 0.0655,
      "velocity": 118,
      "chip": "ym2612"
    },
    {
      "channel": 4,
      "note": 43,
      "start": 23.6052,
      "duration": 0.0827,
      "velocity": 118,
      "chip": "ym2612"
    },
    {
      "channel": 1,
      "note": 33,
      "start": 23.6864,
      "duration": 0.0826,
      "velocity": 117,
      "chip": "ym2612"
    },
    {
      "channel": 2,
      "note": 40,
      "start": 23.6872,
      "duration": 0.1491,
      "velocity": 94,
      "chip": "ym2612"
    },
    {
      "channel": 4,
      "note": 41,
      "start": 23.6883,
      "duration": 0.0655,
      "velocity": 119,
      "chip": "ym2612"
    },
    {
      "channel": 4,
      "note": 40,
      "start": 23.7542,
      "duration": 0.0835,
      "velocity": 119,
      "chip": "ym2612"
    },
    {
      "channel": 0,
      "note": 45,
      "start": 23.8355,
      "duration": 0.2969,
      "velocity": 122,
      "chip": "ym2612"
    },
    {
      "channel": 1,
      "note": 33,
      "start": 23.8361,
      "duration": 0.0819,
      "velocity": 117,
      "chip": "ym2612"
    },
    {
      "channel": 2,
      "note": 45,
      "start": 23.8369,
      "duration": 0.1476,
      "velocity": 95,
      "chip": "ym2612"
    },
    {
      "channel": 3,
      "note": 21,
      "start": 23.8375,
      "duration": 3.5079,
      "velocity": 124,
      "chip": "ym2612"
    },
    {
      "channel": 4,
      "note": 41,
      "start": 23.8381,
      "duration": 0.0646,
      "velocity": 120,
      "chip": "ym2612"
    },
    {
      "channel": 5,
      "note": 7,
      "start": 23.8388,
      "duration": 2.3159,
      "velocity": 1,
      "chip": "ym2612"
    },
    {
      "channel": 4,
      "note": 43,
      "start": 23.9032,
      "duration": 0.0826,
      "velocity": 120,
      "chip": "ym2612"
    },
    {
      "channel": 1,
      "note": 33,
      "start": 23.9843,
      "duration": 0.0826,
      "velocity": 117,
      "chip": "ym2612"
    },
    {
      "channel": 2,
      "note": 40,
      "start": 23.9851,
      "duration": 0.1491,
      "velocity": 95,
      "chip": "ym2612"
    },
    {
      "channel": 4,
      "note": 45,
      "start": 23.9862,
      "duration": 0.0655,
      "velocity": 119,
      "chip": "ym2612"
    },
    {
      "channel": 4,
      "note": 46,
      "start": 24.0521,
      "duration": 0.0833,
      "velocity": 119,
      "chip": "ym2612"
    },
    {
      "channel": 0,
      "note": 72,
      "start": 24.1334,
      "duration": 0.2968,
      "velocity": 113,
      "chip": "ym2612"
    },
    {
      "channel": 1,
      "note": 33,
      "start": 24.1341,
      "duration": 0.0819,
      "velocity": 117,
      "chip": "ym2612"
    },
    {
      "channel": 2,
      "note": 43,
      "start": 24.1348,
      "duration": 0.1476,
      "velocity": 94,
      "chip": "ym2612"
    },
    {
      "channel": 4,
      "note": 48,
      "start": 24.1359,
      "duration": 0.0647,
      "velocity": 118,
      "chip": "ym2612"
    },
    {
      "channel": 4,
      "note": 50,
      "start": 24.201,
      "duration": 0.0826,
      "velocity": 118,
      "chip": "ym2612"
    },
    {
      "channel": 1,
      "note": 45,
      "start": 24.2823,
      "duration": 0.0826,
      "velocity": 117,
      "chip": "ym2612"
    },
    {
      "channel": 2,
      "note": 45,
      "start": 24.283,
      "duration": 0.1491,
      "velocity": 94,
      "chip": "ym2612"
    },
    {
      "channel": 4,
      "note": 52,
      "start": 24.2841,
      "duration": 0.0655,
      "velocity": 117,
      "chip": "ym2612"
    },
    {
      "channel": 4,
      "note": 53,
      "start": 24.35,
      "duration": 0.0833,
      "velocity": 117,
      "chip": "ym2612"
    },
    {
      "channel": 0,
      "note": 24,
      "start": 24.4313,
      "duration": 0.2969,
      "velocity": 126,
      "chip": "ym2612"
    },
    {
      "channel": 1,
      "note": 33,
      "start": 24.432,
      "duration": 0.0819,
      "velocity": 117,
      "chip": "ym2612"
    },
    {
      "channel": 2,
      "note": 40,
      "start": 24.4327,
      "duration": 0.1476,
      "velocity": 93,
      "chip": "ym2612"
    },
    {
      "channel": 4,
      "note": 55,
      "start": 24.4339,
      "duration": 0.0647,
      "velocity": 116,
      "chip": "ym2612"
    },
    {
      "channel": 4,
      "note": 57,
      "start": 24.499,
      "duration": 0.0826,
      "velocity": 116,
      "chip": "ym2612"
    },
    {
      "channel": 1,
      "note": 45,
      "start": 24.5802,
      "duration": 0.0826,
      "velocity": 117,
      "chip": "ym2612"
    },
    {
      "channel": 2,
      "note": 43,
      "start": 24.581,
      "duration": 0.1491,
      "velocity": 93,
      "chip": "ym2612"
    },
    {
      "channel": 4,
      "note": 58,
      "start": 24.5821,
      "duration": 0.0655,
      "velocity": 115,
      "chip": "ym2612"
    },
    {
      "channel": 4,
      "note": 60,
      "start": 24.648,
      "duration": 0.0833,
      "velocity": 115,
      "chip": "ym2612"
    },
    {
      "channel": 0,
      "note": 45,
      "start": 24.7293,
      "duration": 0.2969,
      "velocity": 122,
      "chip": "ym2612"
    },
    {
      "channel": 1,
      "note": 33,
      "start": 24.7299,
      "duration": 0.0819,
      "velocity": 117,
      "chip": "ym2612"
    },
    {
      "channel": 2,
      "note": 45,
      "start": 24.7307,
      "duration": 0.1477,
      "velocity": 92,
      "chip": "ym2612"
    },
    {
      "channel": 4,
      "note": 62,
      "start": 24.7318,
      "duration": 0.0648,
      "velocity": 114,
      "chip": "ym2612"
    },
    {
      "channel": 4,
      "note": 64,
      "start": 24.797,
      "duration": 0.0826,
      "velocity": 114,
      "chip": "ym2612"
    },
    {
      "channel": 1,
      "note": 45,
      "start": 24.8781,
      "duration": 0.0826,
      "velocity": 117,
      "chip": "ym2612"
    },
    {
      "channel": 2,
      "note": 40,
      "start": 24.8789,
      "duration": 0.1485,
      "velocity": 92,
      "chip": "ym2612"
    },
    {
      "channel": 4,
      "note": 65,
      "start": 24.88,
      "duration": 0.0655,
      "velocity": 113,
      "chip": "ym2612"
    },
    {
      "channel": 4,
      "note": 67,
      "start": 24.946,
      "duration": 0.0827,
      "velocity": 113,
      "chip": "ym2612"
    },
    {
      "channel": 0,
      "note": 45,
      "start": 25.0267,
      "duration": 0.5954,
      "velocity": 122,
      "chip": "ym2612"
    },
    {
      "channel": 1,
      "note": 33,
      "start": 25.0273,
      "duration": 0.0824,
      "velocity": 117,
      "chip": "ym2612"
    },
    {
      "channel": 2,
      "note": 45,
      "start": 25.0281,
      "duration": 0.1482,
      "velocity": 91,
      "chip": "ym2612"
    },
    {
      "channel": 4,
      "note": 69,
      "start": 25.0292,
      "duration": 0.0653,
      "velocity": 112,
      "chip": "ym2612"
    },
    {
      "channel": 4,
      "note": 70,
      "start": 25.0949,
      "duration": 0.0826,
      "velocity": 112,
      "chip": "ym2612"
    },
    {
      "channel": 1,
      "note": 33,
      "start": 25.1761,
      "duration": 0.0827,
      "velocity": 117,
      "chip": "ym2612"
    },
    {
      "channel": 2,
      "note": 40,
      "start": 25.1769,
      "duration": 0.1483,
      "velocity": 91,
      "chip": "ym2612"
    },
    {
      "channel": 4,
      "note": 72,
      "start": 25.178,
      "duration": 0.0654,
      "velocity": 113,
      "chip": "ym2612"
    },
    {
      "channel": 4,
      "note": 74,
      "start": 25.2439,
      "duration": 0.0826,
      "velocity": 113,
      "chip": "ym2612"
    },
    {
      "channel": 1,
      "note": 33,
      "start": 25.3251,
      "duration": 0.1485,
      "velocity": 117,
      "chip": "ym2612"
    },
    {
      "channel": 2,
      "note": 43,
      "start": 25.3259,
      "duration": 0.1483,
      "velocity": 90,
      "chip": "ym2612"
    },
    {
      "channel": 4,
      "note": 76,
      "start": 25.3269,
      "duration": 0.0655,
      "velocity": 114,
      "chip": "ym2612"
    },
    {
      "channel": 4,
      "note": 77,
      "start": 25.3928,
      "duration": 0.0826,
      "velocity": 114,
      "chip": "ym2612"
    },
    {
      "channel": 1,
      "note": 45,
      "start": 25.4741,
      "duration": 0.0826,
      "velocity": 117,
      "chip": "ym2612"
    },
    {
      "channel": 2,
      "note": 45,
      "start": 25.4748,
      "duration": 0.1492,
      "velocity": 90,
      "chip": "ym2612"
    },
    {
      "channel": 4,
      "note": 79,
      "start": 25.4759,
      "duration": 0.0655,
      "velocity": 115,
      "chip": "ym2612"
    },
    {
      "channel": 4,
      "note": 81,
      "start": 25.5419,
      "duration": 0.0833,
      "velocity": 115,
      "chip": "ym2612"
    },
    {
      "channel": 0,
      "note": 24,
      "start": 25.6232,
      "duration": 0.5948,
      "velocity": 126,
      "chip": "ym2612"
    },
    {
      "channel": 1,
      "note": 33,
      "start": 25.6238,
      "duration": 0.0818,
      "velocity": 117,
      "chip": "ym2612"
    },
    {
      "channel": 2,
      "note": 40,
      "start": 25.6246,
      "duration": 0.1476,
      "velocity": 89,
      "chip": "ym2612"
    },
    {
      "channel": 4,
      "note": 82,
      "start": 25.6257,
      "duration": 0.0647,
      "velocity": 116,
      "chip": "ym2612"
    },
    {
      "channel": 4,
      "note": 84,
      "start": 25.6909,
      "duration": 0.0826,
      "velocity": 116,
      "chip": "ym2612"
    },
    {
      "channel": 1,
      "note": 33,
      "start": 25.772,
      "duration": 0.0826,
      "velocity": 117,
      "chip": "ym2612"
    },
    {
      "channel": 2,
      "note": 47,
      "start": 25.7728,
      "duration": 0.1483,
      "velocity": 89,
      "chip": "ym2612"
    },
    {
      "channel": 4,
      "note": 86,
      "start": 25.7739,
      "duration": 0.0655,
      "velocity": 117,
      "chip": "ym2612"
    },
    {
      "channel": 4,
      "note": 88,
      "start": 25.8398,
      "duration": 0.0825,
      "velocity": 117,
      "chip": "ym2612"
    },
    {
      "channel": 1,
      "note": 33,
      "start": 25.921,
      "duration": 0.0826,
      "velocity": 117,
      "chip": "ym2612"
    },
    {
      "channel": 2,
      "note": 48,
      "start": 25.9217,
      "duration": 0.1484,
      "velocity": 88,
      "chip": "ym2612"
    },
    {
      "channel": 4,
      "note": 89,
      "start": 25.9229,
      "duration": 0.0655,
      "velocity": 118,
      "chip": "ym2612"
    },
    {
      "channel": 4,
      "note": 91,
      "start": 25.9888,
      "duration": 0.0826,
      "velocity": 118,
      "chip": "ym2612"
    },
    {
      "channel": 1,
      "note": 33,
      "start": 26.0699,
      "duration": 0.0826,
      "velocity": 117,
      "chip": "ym2612"
    },
    {
      "channel": 2,
      "note": 47,
      "start": 26.0707,
      "duration": 0.1491,
      "velocity": 88,
      "chip": "ym2612"
    },
    {
      "channel": 4,
      "note": 93,
      "start": 26.0718,
      "duration": 0.0654,
      "velocity": 119,
      "chip": "ym2612"
    },
    {
      "channel": 4,
      "note": 94,
      "start": 26.1377,
      "duration": 0.0834,
      "velocity": 119,
      "chip": "ym2612"
    },
    {
      "channel": 0,
      "note": 45,
      "start": 26.219,
      "duration": 0.2968,
      "velocity": 122,
      "chip": "ym2612"
    },
    {
      "channel": 1,
      "note": 33,
      "start": 26.2197,
      "duration": 0.0819,
      "velocity": 117,
      "chip": "ym2612"
    },
    {
      "channel": 2,
      "note": 45,
      "start": 26.2205,
      "duration": 0.1476,
      "velocity": 87,
      "chip": "ym2612"
    },
    {
      "channel": 4,
      "note": 93,
      "start": 26.2215,
      "duration": 0.0647,
      "velocity": 120,
      "chip": "ym2612"
    },
    {
      "channel": 5,
      "note": 7,
      "start": 26.2222,
      "duration": 2.316,
      "velocity": 1,
      "chip": "ym2612"
    },
    {
      "channel": 4,
      "note": 91,
      "start": 26.2867,
      "duration": 0.0826,
      "velocity": 120,
      "chip": "ym2612"
    },
    {
      "channel": 1,
      "note": 33,
      "start": 26.3679,
      "duration": 0.0826,
      "velocity": 117,
      "chip": "ym2612"
    },
    {
      "channel": 2,
      "note": 40,
      "start": 26.3687,
      "duration": 0.1491,
      "velocity": 87,
      "chip": "ym2612"
    },
    {
      "channel": 4,
      "note": 89,
      "start": 26.3698,
      "duration": 0.0655,
      "velocity": 119,
      "chip": "ym2612"
    },
    {
      "channel": 4,
      "note": 88,
      "start": 26.4356,
      "duration": 0.0833,
      "velocity": 119,
      "chip": "ym2612"
    },
    {
      "channel": 0,
      "note": 84,
      "start": 26.5169,
      "duration": 0.2969,
      "velocity": 113,
      "chip": "ym2612"
    },
    {
      "channel": 1,
      "note": 33,
      "start": 26.5176,
      "duration": 0.0819,
      "velocity": 117,
      "chip": "ym2612"
    },
    {
      "channel": 2,
      "note": 43,
      "start": 26.5183,
      "duration": 0.1476,
      "velocity": 88,
      "chip": "ym2612"
    },
    {
      "channel": 4,
      "note": 86,
      "start": 26.5195,
      "duration": 0.0647,
      "velocity": 118,
      "chip": "ym2612"
    },
    {
      "channel": 4,
      "note": 84,
      "start": 26.5846,
      "duration": 0.0826,
      "velocity": 118,
      "chip": "ym2612"
    },
    {
      "channel": 1,
      "note": 45,
      "start": 26.6658,
      "duration": 0.0826,
      "velocity": 117,
      "chip": "ym2612"
    },
    {
      "channel": 2,
      "note": 45,
      "start": 26.6666,
      "duration": 0.1492,
      "velocity": 88,
      "chip": "ym2612"
    },
    {
      "channel": 4,
      "note": 82,
      "start": 26.6676,
      "duration": 0.0655,
      "velocity": 117,
      "chip": "ym2612"
    },
    {
      "channel": 4,
      "note": 81,
      "start": 26.7336,
      "duration": 0.0833,
      "velocity": 117,
      "chip": "ym2612"
    },
    {
      "channel": 0,
      "note": 24,
      "start": 26.8149,
      "duration": 0.2969,
      "velocity": 126,
      "chip": "ym2612"
    },
    {
      "channel": 1,
      "note": 33,
      "start": 26.8156,
      "duration": 0.0819,
      "velocity": 117,
      "chip": "ym2612"
    },
    {
      "channel": 2,
      "note": 40,
      "start": 26.8163,
      "duration": 0.1477,
      "velocity": 89,
      "chip": "ym2612"
    },
    {
      "channel": 4,
      "note": 79,
      "start": 26.8174,
      "duration": 0.0648,
      "velocity": 116,
      "chip": "ym2612"
    },
    {
      "channel": 4,
      "note": 77,
      "start": 26.8826,
      "duration": 0.0826,
      "velocity": 116,
      "chip": "ym2612"
    },
    {
      "channel": 1,
      "note": 45,
      "start": 26.9638,
      "duration": 0.0826,
      "velocity": 117,
      "chip": "ym2612"
    },
    {
      "channel": 2,
      "note": 43,
      "start": 26.9645,
      "duration": 0.1491,
      "velocity": 89,
      "chip": "ym2612"
    },
    {
      "channel": 4,
      "note": 76,
      "start": 26.9656,
      "duration": 0.0654,
      "velocity": 115,
      "chip": "ym2612"
    },
    {
      "channel": 4,
      "note": 74,
      "start": 27.0315,
      "duration": 0.0834,
      "velocity": 115,
      "chip": "ym2612"
    },
    {
      "channel": 0,
      "note": 45,
      "start": 27.1129,
      "duration": 0.2969,
      "velocity": 122,
      "chip": "ym2612"
    },
    {
      "channel": 1,
      "note": 33,
      "start": 27.1135,
      "duration": 0.0819,
      "velocity": 117,
      "chip": "ym2612"
    },
    {
      "channel": 2,
      "note": 45,
      "start": 27.1143,
      "duration": 0.1476,
      "velocity": 90,
      "chip": "ym2612"
    },
    {
      "channel": 4,
      "note": 72,
      "start": 27.1154,
      "duration": 0.0647,
      "velocity": 114,
      "chip": "ym2612"
    },
    {
      "channel": 4,
      "note": 70,
      "start": 27.1805,
      "duration": 0.0826,
      "velocity": 114,
      "chip": "ym2612"
    },
    {
      "channel": 1,
      "note": 45,
      "start": 27.2617,
      "duration": 0.0826,
      "velocity": 117,
      "chip": "ym2612"
    },
    {
      "channel": 2,
      "note": 40,
      "start": 27.2625,
      "duration": 0.1485,
      "velocity": 90,
      "chip": "ym2612"
    },
    {
      "channel": 4,
      "note": 69,
      "start": 27.2636,
      "duration": 0.0654,
      "velocity": 113,
      "chip": "ym2612"
    },
    {
      "channel": 4,
      "note": 67,
      "start": 27.3295,
      "duration": 0.0829,
      "velocity": 113,
      "chip": "ym2612"
    },
    {
      "channel": 0,
      "note": 45,
      "start": 27.4102,
      "duration": 0.5954,
      "velocity": 122,
      "chip": "ym2612"
    },
    {
      "channel": 1,
      "note": 33,
      "start": 27.4108,
      "duration": 0.0824,
      "velocity": 117,
      "chip": "ym2612"
    },
    {
      "channel": 2,
      "note": 43,
      "start": 27.4116,
      "duration": 0.1482,
      "velocity": 91,
      "chip": "ym2612"
    },
    {
      "channel": 3,
      "note": 19,
      "start": 27.4122,
      "duration": 1.125,
      "velocity": 124,
      "chip": "ym2612"
    },
    {
      "channel": 4,
      "note": 65,
      "start": 27.4129,
      "duration": 0.0651,
      "velocity": 112,
      "chip": "ym2612"
    },
    {
      "channel": 4,
      "note": 64,
      "start": 27.4785,
      "duration": 0.0826,
      "velocity": 112,
      "chip": "ym2612"
    },
    {
      "channel": 1,
      "note": 33,
      "start": 27.5597,
      "duration": 0.0826,
      "velocity": 117,
      "chip": "ym2612"
    },
    {
      "channel": 2,
      "note": 45,
      "start": 27.5605,
      "duration": 0.1483,
      "velocity": 91,
      "chip": "ym2612"
    },
    {
      "channel": 4,
      "note": 62,
      "start": 27.5615,
      "duration": 0.0655,
      "velocity": 113,
      "chip": "ym2612"
    },
    {
      "channel": 4,
      "note": 60,
      "start": 27.6274,
      "duration": 0.0826,
      "velocity": 113,
      "chip": "ym2612"
    },
    {
      "channel": 1,
      "note": 33,
      "start": 27.7086,
      "duration": 0.1485,
      "velocity": 117,
      "chip": "ym2612"
    },
    {
      "channel": 2,
      "note": 47,
      "start": 27.7094,
      "duration": 0.1484,
      "velocity": 92,
      "chip": "ym2612"
    },
    {
      "channel": 4,
      "note": 58,
      "start": 27.7105,
      "duration": 0.0654,
      "velocity": 114,
      "chip": "ym2612"
    },
    {
      "channel": 4,
      "note": 57,
      "start": 27.7764,
      "duration": 0.0826,
      "velocity": 114,
      "chip": "ym2612"
    },
    {
      "channel": 1,
      "note": 45,
      "start": 27.8576,
      "duration": 0.0827,
      "velocity": 117,
      "chip": "ym2612"
    },
    {
      "channel": 2,
      "note": 48,
      "start": 27.8584,
      "duration": 0.1492,
      "velocity": 92,
      "chip": "ym2612"
    },
    {
      "channel": 4,
      "note": 55,
      "start": 27.8594,
      "duration": 0.0655,
      "velocity": 115,
      "chip": "ym2612"
    },
    {
      "channel": 4,
      "note": 53,
      "start": 27.9254,
      "duration": 0.0834,
      "velocity": 115,
      "chip": "ym2612"
    },
    {
      "channel": 0,
      "note": 21,
      "start": 28.0068,
      "duration": 0.5947,
      "velocity": 126,
      "chip": "ym2612"
    },
    {
      "channel": 1,
      "note": 33,
      "start": 28.0074,
      "duration": 0.0818,
      "velocity": 117,
      "chip": "ym2612"
    },
    {
      "channel": 2,
      "note": 50,
      "start": 28.0082,
      "duration": 0.1476,
      "velocity": 93,
      "chip": "ym2612"
    },
    {
      "channel": 4,
      "note": 52,
      "start": 28.0093,
      "duration": 0.0647,
      "velocity": 116,
      "chip": "ym2612"
    },
    {
      "channel": 4,
      "note": 50,
      "start": 28.0744,
      "duration": 0.0826,
      "velocity": 116,
      "chip": "ym2612"
    },
    {
      "channel": 1,
      "note": 33,
      "start": 28.1556,
      "duration": 0.0826,
      "velocity": 117,
      "chip": "ym2612"
    },
    {
      "channel": 2,
      "note": 48,
      "start": 28.1563,
      "duration": 0.1483,
      "velocity": 93,
      "chip": "ym2612"
    },
    {
      "channel": 4,
      "note": 48,
      "start": 28.1575,
      "duration": 0.0655,
      "velocity": 117,
      "chip": "ym2612"
    },
    {
      "channel": 4,
      "note": 46,
      "start": 28.2234,
      "duration": 0.0826,
      "velocity": 117,
      "chip": "ym2612"
    },
    {
      "channel": 1,
      "note": 33,
      "start": 28.3045,
      "duration": 0.0826,
      "velocity": 117,
      "chip": "ym2612"
    },
    {
      "channel": 2,
      "note": 47,
      "start": 28.3053,
      "duration": 0.1483,
      "velocity": 94,
      "chip": "ym2612"
    },
    {
      "channel": 4,
      "note": 45,
      "start": 28.3065,
      "duration": 0.0654,
      "velocity": 118,
      "chip": "ym2612"
    },
    {
      "channel": 4,
      "note": 43,
      "start": 28.3723,
      "duration": 0.0826,
      "velocity": 118,
      "chip": "ym2612"
    },
    {
      "channel": 1,
      "note": 33,
      "start": 28.4535,
      "duration": 0.0826,
      "velocity": 117,
      "chip": "ym2612"
    },
    {
      "channel": 2,
      "note": 40,
      "start": 28.4543,
      "duration": 0.1491,
      "velocity": 94,
      "chip": "ym2612"
    },
    {
      "channel": 4,
      "note": 41,
      "start": 28.4554,
      "duration": 0.0655,
      "velocity": 119,
      "chip": "ym2612"
    },
    {
      "channel": 4,
      "note": 40,
      "start": 28.5213,
      "duration": 0.0847,
      "velocity": 119,
      "chip": "ym2612"
    },
    {
      "channel": 0,
      "note": 33,
      "start": 28.6026,
      "duration": 0.0159,
      "velocity": 102,
      "chip": "ym2612"
    },
    {
      "channel": 1,
      "note": 33,
      "start": 28.6033,
      "duration": 0.0819,
      "velocity": 117,
      "chip": "ym2612"
    },
    {
      "channel": 2,
      "note": 69,
      "start": 28.6045,
      "duration": 0.1473,
      "velocity": 59,
      "chip": "ym2612"
    },
    {
      "channel": 3,
      "note": 7,
      "start": 28.6058,
      "duration": 2.3149,
      "velocity": 1,
      "chip": "ym2612"
    },
    {
      "channel": 4,
      "note": 7,
      "start": 28.607,
      "duration": 2.3142,
      "velocity": 1,
      "chip": "ym2612"
    },
    {
      "channel": 5,
      "note": 7,
      "start": 28.6077,
      "duration": 2.3141,
      "velocity": 1,
      "chip": "ym2612"
    },
    {
      "channel": 0,
      "note": 36,
      "start": 28.751,
      "duration": 0.0164,
      "velocity": 102,
      "chip": "ym2612"
    },
    {
      "channel": 1,
      "note": 33,
      "start": 28.7517,
      "duration": 0.0824,
      "velocity": 117,
      "chip": "ym2612"
    },
    {
      "channel": 2,
      "note": 69,
      "start": 28.7529,
      "duration": 0.1479,
      "velocity": 63,
      "chip": "ym2612"
    },
    {
      "channel": 0,
      "note": 40,
      "start": 28.9,
      "duration": 0.0164,
      "velocity": 102,
      "chip": "ym2612"
    },
    {
      "channel": 1,
      "note": 33,
      "start": 28.9007,
      "duration": 0.0824,
      "velocity": 117,
      "chip": "ym2612"
    },
    {
      "channel": 2,
      "note": 69,
      "start": 28.9019,
      "duration": 0.1479,
      "velocity": 59,
      "chip": "ym2612"
    },
    {
      "channel": 0,
      "note": 43,
      "start": 29.049,
      "duration": 0.0164,
      "velocity": 102,
      "chip": "ym2612"
    },
    {
      "channel": 1,
      "note": 45,
      "start": 29.0496,
      "duration": 0.0824,
      "velocity": 117,
      "chip": "ym2612"
    },
    {
      "channel": 2,
      "note": 69,
      "start": 29.0503,
      "duration": 0.1485,
      "velocity": 59,
      "chip": "ym2612"
    },
    {
      "channel": 0,
      "note": 47,
      "start": 29.198,
      "duration": 0.0163,
      "velocity": 102,
      "chip": "ym2612"
    },
    {
      "channel": 1,
      "note": 33,
      "start": 29.1986,
      "duration": 0.0824,
      "velocity": 117,
      "chip": "ym2612"
    },
    {
      "channel": 2,
      "note": 69,
      "start": 29.1998,
      "duration": 0.1478,
      "velocity": 63,
      "chip": "ym2612"
    },
    {
      "channel": 0,
      "note": 48,
      "start": 29.3469,
      "duration": 0.0164,
      "velocity": 102,
      "chip": "ym2612"
    },
    {
      "channel": 1,
      "note": 45,
      "start": 29.3476,
      "duration": 0.0824,
      "velocity": 117,
      "chip": "ym2612"
    },
    {
      "channel": 2,
      "note": 69,
      "start": 29.3488,
      "duration": 0.148,
      "velocity": 59,
      "chip": "ym2612"
    },
    {
      "channel": 0,
      "note": 47,
      "start": 29.4959,
      "duration": 0.0164,
      "velocity": 102,
      "chip": "ym2612"
    },
    {
      "channel": 1,
      "note": 33,
      "start": 29.4965,
      "duration": 0.0824,
      "velocity": 117,
      "chip": "ym2612"
    },
    {
      "channel": 2,
      "note": 69,
      "start": 29.4972,
      "duration": 0.1485,
      "velocity": 59,
      "chip": "ym2612"
    },
    {
      "channel": 0,
      "note": 45,
      "start": 29.6449,
      "duration": 0.0164,
      "velocity": 102,
      "chip": "ym2612"
    },
    {
      "channel": 1,
      "note": 45,
      "start": 29.6455,
      "duration": 0.0824,
      "velocity": 117,
      "chip": "ym2612"
    },
    {
      "channel": 2,
      "note": 69,
      "start": 29.6467,
      "duration": 0.0648,
      "velocity": 63,
      "chip": "ym2612"
    },
    {
      "channel": 2,
      "note": 81,
      "start": 29.7126,
      "duration": 0.082,
      "velocity": 59,
      "chip": "ym2612"
    },
    {
      "channel": 0,
      "note": 43,
      "start": 29.7939,
      "duration": 0.0164,
      "velocity": 102,
      "chip": "ym2612"
    },
    {
      "channel": 1,
      "note": 33,
      "start": 29.7945,
      "duration": 0.0824,
      "velocity": 117,
      "chip": "ym2612"
    },
    {
      "channel": 2,
      "note": 74,
      "start": 29.7951,
      "duration": 0.1485,
      "velocity": 59,
      "chip": "ym2612"
    },
    {
      "channel": 0,
      "note": 45,
      "start": 29.9428,
      "duration": 0.0164,
      "velocity": 102,
      "chip": "ym2612"
    },
    {
      "channel": 1,
      "note": 33,
      "start": 29.9435,
      "duration": 0.0824,
      "velocity": 117,
      "chip": "ym2612"
    },
    {
      "channel": 2,
      "note": 69,
      "start": 29.9447,
      "duration": 0.1479,
      "velocity": 63,
      "chip": "ym2612"
    },
    {
      "channel": 0,
      "note": 43,
      "start": 30.0918,
      "duration": 0.0163,
      "velocity": 102,
      "chip": "ym2612"
    },
    {
      "channel": 1,
      "note": 33,
      "start": 30.0924,
      "duration": 0.1485,
      "velocity": 117,
      "chip": "ym2612"
    },
    {
      "channel": 2,
      "note": 69,
      "start": 30.0937,
      "duration": 0.1479,
      "velocity": 59,
      "chip": "ym2612"
    },
    {
      "channel": 0,
      "note": 40,
      "start": 30.2407,
      "duration": 0.0164,
      "velocity": 102,
      "chip": "ym2612"
    },
    {
      "channel": 1,
      "note": 45,
      "start": 30.2414,
      "duration": 0.0825,
      "velocity": 117,
      "chip": "ym2612"
    },
    {
      "channel": 2,
      "note": 69,
      "start": 30.2421,
      "duration": 0.1485,
      "velocity": 59,
      "chip": "ym2612"
    },
    {
      "channel": 0,
      "note": 36,
      "start": 30.3898,
      "duration": 0.0164,
      "velocity": 102,
      "chip": "ym2612"
    },
    {
      "channel": 1,
      "note": 33,
      "start": 30.3904,
      "duration": 0.0824,
      "velocity": 117,
      "chip": "ym2612"
    },
    {
      "channel": 2,
      "note": 69,
      "start": 30.3916,
      "duration": 0.1479,
      "velocity": 63,
      "chip": "ym2612"
    },
    {
      "channel": 0,
      "note": 40,
      "start": 30.5387,
      "duration": 0.0164,
      "velocity": 102,
      "chip": "ym2612"
    },
    {
      "channel": 1,
      "note": 33,
      "start": 30.5394,
      "duration": 0.0824,
      "velocity": 117,
      "chip": "ym2612"
    },
    {
      "channel": 2,
      "note": 69,
      "start": 30.5406,
      "duration": 0.1478,
      "velocity": 59,
      "chip": "ym2612"
    },
    {
      "channel": 0,
      "note": 36,
      "start": 30.6877,
      "duration": 0.0164,
      "velocity": 102,
      "chip": "ym2612"
    },
    {
      "channel": 1,
      "note": 33,
      "start": 30.6883,
      "duration": 0.0824,
      "velocity": 117,
      "chip": "ym2612"
    },
    {
      "channel": 2,
      "note": 69,
      "start": 30.689,
      "duration": 0.1485,
      "velocity": 59,
      "chip": "ym2612"
    },
    {
      "channel": 0,
      "note": 35,
      "start": 30.8367,
      "duration": 0.0164,
      "velocity": 102,
      "chip": "ym2612"
    },
    {
      "channel": 1,
      "note": 33,
      "start": 30.8373,
      "duration": 0.0824,
      "velocity": 117,
      "chip": "ym2612"
    },
    {
      "channel": 2,
      "note": 69,
      "start": 30.8385,
      "duration": 0.1479,
      "velocity": 63,
      "chip": "ym2612"
    },
    {
      "channel": 0,
      "note": 33,
      "start": 30.9856,
      "duration": 0.0164,
      "velocity": 102,
      "chip": "ym2612"
    },
    {
      "channel": 1,
      "note": 33,
      "start": 30.9863,
      "duration": 0.0824,
      "velocity": 117,
      "chip": "ym2612"
    },
    {
      "channel": 2,
      "note": 69,
      "start": 30.9875,
      "duration": 0.1479,
      "velocity": 59,
      "chip": "ym2612"
    },
    {
      "channel": 3,
      "note": 7,
      "start": 30.9882,
      "duration": 2.3161,
      "velocity": 1,
      "chip": "ym2612"
    },
    {
      "channel": 4,
      "note": 7,
      "start": 30.9888,
      "duration": 2.316,
      "velocity": 1,
      "chip": "ym2612"
    },
    {
      "channel": 5,
      "note": 7,
      "start": 30.9895,
      "duration": 2.3158,
      "velocity": 1,
      "chip": "ym2612"
    },
    {
      "channel": 0,
      "note": 36,
      "start": 31.1346,
      "duration": 0.0163,
      "velocity": 102,
      "chip": "ym2612"
    },
    {
      "channel": 1,
      "note": 33,
      "start": 31.1353,
      "duration": 0.0824,
      "velocity": 117,
      "chip": "ym2612"
    },
    {
      "channel": 2,
      "note": 69,
      "start": 31.1365,
      "duration": 0.1478,
      "velocity": 63,
      "chip": "ym2612"
    },
    {
      "channel": 0,
      "note": 40,
      "start": 31.2836,
      "duration": 0.0164,
      "velocity": 102,
      "chip": "ym2612"
    },
    {
      "channel": 1,
      "note": 33,
      "start": 31.2842,
      "duration": 0.0824,
      "velocity": 117,
      "chip": "ym2612"
    },
    {
      "channel": 2,
      "note": 69,
      "start": 31.2854,
      "duration": 0.148,
      "velocity": 59,
      "chip": "ym2612"
    },
    {
      "channel": 0,
      "note": 43,
      "start": 31.4325,
      "duration": 0.0164,
      "velocity": 102,
      "chip": "ym2612"
    },
    {
      "channel": 1,
      "note": 45,
      "start": 31.4332,
      "duration": 0.0824,
      "velocity": 117,
      "chip": "ym2612"
    },
    {
      "channel": 2,
      "note": 69,
      "start": 31.4338,
      "duration": 0.1485,
      "velocity": 59,
      "chip": "ym2612"
    },
    {
      "channel": 0,
      "note": 47,
      "start": 31.5815,
      "duration": 0.0164,
      "velocity": 102,
      "chip": "ym2612"
    },
    {
      "channel": 1,
      "note": 33,
      "start": 31.5822,
      "duration": 0.0824,
      "velocity": 117,
      "chip": "ym2612"
    },
    {
      "channel": 2,
      "note": 69,
      "start": 31.5834,
      "duration": 0.1479,
      "velocity": 63,
      "chip": "ym2612"
    },
    {
      "channel": 0,
      "note": 48,
      "start": 31.7305,
      "duration": 0.0164,
      "velocity": 102,
      "chip": "ym2612"
    },
    {
      "channel": 1,
      "note": 45,
      "start": 31.7311,
      "duration": 0.0824,
      "velocity": 117,
      "chip": "ym2612"
    },
    {
      "channel": 2,
      "note": 69,
      "start": 31.7323,
      "duration": 0.1479,
      "velocity": 59,
      "chip": "ym2612"
    },
    {
      "channel": 0,
      "note": 47,
      "start": 31.8795,
      "duration": 0.0164,
      "velocity": 102,
      "chip": "ym2612"
    },
    {
      "channel": 1,
      "note": 33,
      "start": 31.8801,
      "duration": 0.0824,
      "velocity": 117,
      "chip": "ym2612"
    },
    {
      "channel": 2,
      "note": 69,
      "start": 31.8807,
      "duration": 0.1485,
      "velocity": 59,
      "chip": "ym2612"
    },
    {
      "channel": 0,
      "note": 45,
      "start": 32.0285,
      "duration": 0.0163,
      "velocity": 102,
      "chip": "ym2612"
    },
    {
      "channel": 1,
      "note": 45,
      "start": 32.0291,
      "duration": 0.0824,
      "velocity": 117,
      "chip": "ym2612"
    },
    {
      "channel": 2,
      "note": 69,
      "start": 32.0303,
      "duration": 0.1478,
      "velocity": 63,
      "chip": "ym2612"
    },
    {
      "channel": 0,
      "note": 43,
      "start": 32.1774,
      "duration": 0.0164,
      "velocity": 102,
      "chip": "ym2612"
    },
    {
      "channel": 1,
      "note": 33,
      "start": 32.178,
      "duration": 0.0825,
      "velocity": 117,
      "chip": "ym2612"
    },
    {
      "channel": 2,
      "note": 69,
      "start": 32.1793,
      "duration": 0.1478,
      "velocity": 59,
      "chip": "ym2612"
    },
    {
      "channel": 0,
      "note": 45,
      "start": 32.3264,
      "duration": 0.0164,
      "velocity": 102,
      "chip": "ym2612"
    },
    {
      "channel": 1,
      "note": 33,
      "start": 32.327,
      "duration": 0.0824,
      "velocity": 117,
      "chip": "ym2612"
    },
    {
      "channel": 2,
      "note": 69,
      "start": 32.3282,
      "duration": 0.1479,
      "velocity": 63,
      "chip": "ym2612"
    },
    {
      "channel": 0,
      "note": 43,
      "start": 32.4754,
      "duration": 0.0164,
      "velocity": 102,
      "chip": "ym2612"
    },
    {
      "channel": 1,
      "note": 33,
      "start": 32.476,
      "duration": 0.1485,
      "velocity": 117,
      "chip": "ym2612"
    },
    {
      "channel": 2,
      "note": 69,
      "start": 32.4772,
      "duration": 0.1479,
      "velocity": 59,
      "chip": "ym2612"
    },
    {
      "channel": 0,
      "note": 40,
      "start": 32.6243,
      "duration": 0.0164,
      "velocity": 102,
      "chip": "ym2612"
    },
    {
      "channel": 1,
      "note": 45,
      "start": 32.625,
      "duration": 0.0824,
      "velocity": 117,
      "chip": "ym2612"
    },
    {
      "channel": 2,
      "note": 69,
      "start": 32.6256,
      "duration": 0.1485,
      "velocity": 59,
      "chip": "ym2612"
    },
    {
      "channel": 0,
      "note": 36,
      "start": 32.7734,
      "duration": 0.0164,
      "velocity": 102,
      "chip": "ym2612"
    },
    {
      "channel": 1,
      "note": 33,
      "start": 32.774,
      "duration": 0.0824,
      "velocity": 117,
      "chip": "ym2612"
    },
    {
      "channel": 2,
      "note": 69,
      "start": 32.7752,
      "duration": 0.1478,
      "velocity": 63,
      "chip": "ym2612"
    },
    {
      "channel": 0,
      "note": 40,
      "start": 32.9223,
      "duration": 0.0164,
      "velocity": 102,
      "chip": "ym2612"
    },
    {
      "channel": 1,
      "note": 33,
      "start": 32.9229,
      "duration": 0.0824,
      "velocity": 117,
      "chip": "ym2612"
    },
    {
      "channel": 2,
      "note": 69,
      "start": 32.9242,
      "duration": 0.1478,
      "velocity": 59,
      "chip": "ym2612"
    },
    {
      "channel": 0,
      "note": 36,
      "start": 33.0713,
      "duration": 0.0163,
      "velocity": 102,
      "chip": "ym2612"
    },
    {
      "channel": 1,
      "note": 33,
      "start": 33.0719,
      "duration": 0.0824,
      "velocity": 117,
      "chip": "ym2612"
    },
    {
      "channel": 2,
      "note": 69,
      "start": 33.0725,
      "duration": 0.1485,
      "velocity": 59,
      "chip": "ym2612"
    },
    {
      "channel": 0,
      "note": 35,
      "start": 33.2202,
      "duration": 0.0164,
      "velocity": 102,
      "chip": "ym2612"
    },
    {
      "channel": 1,
      "note": 33,
      "start": 33.2208,
      "duration": 0.0824,
      "velocity": 117,
      "chip": "ym2612"
    },
    {
      "channel": 2,
      "note": 69,
      "start": 33.2215,
      "duration": 0.1485,
      "velocity": 59,
      "chip": "ym2612"
    },
    {
      "channel": 0,
      "note": 33,
      "start": 33.3692,
      "duration": 0.0164,
      "velocity": 102,
      "chip": "ym2612"
    },
    {
      "channel": 1,
      "note": 33,
      "start": 33.3698,
      "duration": 0.0824,
      "velocity": 117,
      "chip": "ym2612"
    },
    {
      "channel": 2,
      "note": 45,
      "start": 33.371,
      "duration": 0.2969,
      "velocity": 122,
      "chip": "ym2612"
    },
    {
      "channel": 3,
      "note": 21,
      "start": 33.3723,
      "duration": 3.5073,
      "velocity": 124,
      "chip": "ym2612"
    },
    {
      "channel": 5,
      "note": 7,
      "start": 33.3734,
      "duration": 2.3154,
      "velocity": 1,
      "chip": "ym2612"
    },
    {
      "channel": 4,
      "note": 35,
      "start": 33.4379,
      "duration": 0.0159,
      "velocity": 102,
      "chip": "ym2612"
    },
    {
      "channel": 0,
      "note": 36,
      "start": 33.5182,
      "duration": 0.0164,
      "velocity": 102,
      "chip": "ym2612"
    },
    {
      "channel": 1,
      "note": 33,
      "start": 33.5188,
      "duration": 0.0824,
      "velocity": 117,
      "chip": "ym2612"
    },
    {
      "channel": 4,
      "note": 33,
      "start": 33.5863,
      "duration": 0.0164,
      "velocity": 102,
      "chip": "ym2612"
    },
    {
      "channel": 0,
      "note": 40,
      "start": 33.6671,
      "duration": 0.0164,
      "velocity": 102,
      "chip": "ym2612"
    },
    {
      "channel": 1,
      "note": 33,
      "start": 33.6678,
      "duration": 0.0824,
      "velocity": 117,
      "chip": "ym2612"
    },
    {
      "channel": 2,
      "note": 72,
      "start": 33.669,
      "duration": 0.2969,
      "velocity": 113,
      "chip": "ym2612"
    },
    {
      "channel": 4,
      "note": 36,
      "start": 33.7353,
      "duration": 0.0164,
      "velocity": 102,
      "chip": "ym2612"
    },
    {
      "channel": 0,
      "note": 43,
      "start": 33.8161,
      "duration": 0.0164,
      "velocity": 102,
      "chip": "ym2612"
    },
    {
      "channel": 1,
      "note": 45,
      "start": 33.8168,
      "duration": 0.0824,
      "velocity": 117,
      "chip": "ym2612"
    },
    {
      "channel": 4,
      "note": 40,
      "start": 33.8842,
      "duration": 0.0165,
      "velocity": 102,
      "chip": "ym2612"
    },
    {
      "channel": 0,
      "note": 47,
      "start": 33.9651,
      "duration": 0.0164,
      "velocity": 102,
      "chip": "ym2612"
    },
    {
      "channel": 1,
      "note": 33,
      "start": 33.9657,
      "duration": 0.0824,
      "velocity": 117,
      "chip": "ym2612"
    },
    {
      "channel": 2,
      "note": 24,
      "start": 33.9669,
      "duration": 0.2968,
      "velocity": 126,
      "chip": "ym2612"
    },
    {
      "channel": 4,
      "note": 43,
      "start": 34.0332,
      "duration": 0.0165,
      "velocity": 102,
      "chip": "ym2612"
    },
    {
      "channel": 0,
      "note": 48,
      "start": 34.114,
      "duration": 0.0164,
      "velocity": 102,
      "chip": "ym2612"
    },
    {
      "channel": 1,
      "note": 45,
      "start": 34.1146,
      "duration": 0.0825,
      "velocity": 117,
      "chip": "ym2612"
    },
    {
      "channel": 4,
      "note": 47,
      "start": 34.1822,
      "duration": 0.0165,
      "velocity": 102,
      "chip": "ym2612"
    },
    {
      "channel": 0,
      "note": 47,
      "start": 34.263,
      "duration": 0.0164,
      "velocity": 102,
      "chip": "ym2612"
    },
    {
      "channel": 1,
      "note": 33,
      "start": 34.2637,
      "duration": 0.0824,
      "velocity": 117,
      "chip": "ym2612"
    },
    {
      "channel": 2,
      "note": 45,
      "start": 34.2649,
      "duration": 0.2969,
      "velocity": 122,
      "chip": "ym2612"
    },
    {
      "channel": 4,
      "note": 48,
      "start": 34.3312,
      "duration": 0.0164,
      "velocity": 102,
      "chip": "ym2612"
    },
    {
      "channel": 0,
      "note": 45,
      "start": 34.412,
      "duration": 0.0164,
      "velocity": 102,
      "chip": "ym2612"
    },
    {
      "channel": 1,
      "note": 45,
      "start": 34.4126,
      "duration": 0.0824,
      "velocity": 117,
      "chip": "ym2612"
    },
    {
      "channel": 4,
      "note": 47,
      "start": 34.4802,
      "duration": 0.0164,
      "velocity": 102,
      "chip": "ym2612"
    },
    {
      "channel": 0,
      "note": 43,
      "start": 34.561,
      "duration": 0.0164,
      "velocity": 102,
      "chip": "ym2612"
    },
    {
      "channel": 1,
      "note": 33,
      "start": 34.5616,
      "duration": 0.0824,
      "velocity": 117,
      "chip": "ym2612"
    },
    {
      "channel": 2,
      "note": 45,
      "start": 34.5622,
      "duration": 0.5954,
      "velocity": 122,
      "chip": "ym2612"
    },
    {
      "channel": 4,
      "note": 45,
      "start": 34.6292,
      "duration": 0.0164,
      "velocity": 102,
      "chip": "ym2612"
    },
    {
      "channel": 0,
      "note": 45,
      "start": 34.71,
      "duration": 0.0164,
      "velocity": 102,
      "chip": "ym2612"
    },
    {
      "channel": 1,
      "note": 33,
      "start": 34.7106,
      "duration": 0.0824,
      "velocity": 117,
      "chip": "ym2612"
    },
    {
      "channel": 4,
      "note": 43,
      "start": 34.7781,
      "duration": 0.0164,
      "velocity": 102,
      "chip": "ym2612"
    },
    {
      "channel": 0,
      "note": 43,
      "start": 34.8589,
      "duration": 0.0164,
      "velocity": 102,
      "chip": "ym2612"
    },
    {
      "channel": 1,
      "note": 33,
      "start": 34.8596,
      "duration": 0.1485,
      "velocity": 117,
      "chip": "ym2612"
    },
    {
      "channel": 4,
      "note": 45,
      "start": 34.9271,
      "duration": 0.0164,
      "velocity": 102,
      "chip": "ym2612"
    },
    {
      "channel": 0,
      "note": 40,
      "start": 35.0079,
      "duration": 0.0163,
      "velocity": 102,
      "chip": "ym2612"
    },
    {
      "channel": 1,
      "note": 45,
      "start": 35.0085,
      "duration": 0.0824,
      "velocity": 117,
      "chip": "ym2612"
    },
    {
      "channel": 4,
      "note": 43,
      "start": 35.0761,
      "duration": 0.0165,
      "velocity": 102,
      "chip": "ym2612"
    },
    {
      "channel": 0,
      "note": 36,
      "start": 35.1569,
      "duration": 0.0164,
      "velocity": 102,
      "chip": "ym2612"
    },
    {
      "channel": 1,
      "note": 33,
      "start": 35.1575,
      "duration": 0.0824,
      "velocity": 117,
      "chip": "ym2612"
    },
    {
      "channel": 2,
      "note": 24,
      "start": 35.1588,
      "duration": 0.5948,
      "velocity": 126,
      "chip": "ym2612"
    },
    {
      "channel": 4,
      "note": 40,
      "start": 35.2251,
      "duration": 0.0164,
      "velocity": 102,
      "chip": "ym2612"
    },
    {
      "channel": 0,
      "note": 40,
      "start": 35.3058,
      "duration": 0.0164,
      "velocity": 102,
      "chip": "ym2612"
    },
    {
      "channel": 1,
      "note": 33,
      "start": 35.3065,
      "duration": 0.0824,
      "velocity": 117,
      "chip": "ym2612"
    },
    {
      "channel": 4,
      "note": 36,
      "start": 35.3741,
      "duration": 0.0164,
      "velocity": 102,
      "chip": "ym2612"
    },
    {
      "channel": 0,
      "note": 36,
      "start": 35.4548,
      "duration": 0.0164,
      "velocity": 102,
      "chip": "ym2612"
    },
    {
      "channel": 1,
      "note": 33,
      "start": 35.4554,
      "duration": 0.0824,
      "velocity": 117,
      "chip": "ym2612"
    },
    {
      "channel": 4,
      "note": 40,
      "start": 35.523,
      "duration": 0.0165,
      "velocity": 102,
      "chip": "ym2612"
    },
    {
      "channel": 0,
      "note": 35,
      "start": 35.6038,
      "duration": 0.0164,
      "velocity": 102,
      "chip": "ym2612"
    },
    {
      "channel": 1,
      "note": 33,
      "start": 35.6044,
      "duration": 0.0824,
      "velocity": 117,
      "chip": "ym2612"
    },
    {
      "channel": 4,
      "note": 36,
      "start": 35.672,
      "duration": 0.0164,
      "velocity": 102,
      "chip": "ym2612"
    },
    {
      "channel": 0,
      "note": 33,
      "start": 35.7528,
      "duration": 0.0164,
      "velocity": 102,
      "chip": "ym2612"
    },
    {
      "channel": 1,
      "note": 33,
      "start": 35.7534,
      "duration": 0.0824,
      "velocity": 117,
      "chip": "ym2612"
    },
    {
      "channel": 2,
      "note": 45,
      "start": 35.7546,
      "duration": 0.2968,
      "velocity": 122,
      "chip": "ym2612"
    },
    {
      "channel": 5,
      "note": 7,
      "start": 35.7563,
      "duration": 2.3162,
      "velocity": 1,
      "chip": "ym2612"
    },
    {
      "channel": 4,
      "note": 35,
      "start": 35.8209,
      "duration": 0.0165,
      "velocity": 102,
      "chip": "ym2612"
    },
    {
      "channel": 0,
      "note": 36,
      "start": 35.9017,
      "duration": 0.0164,
      "velocity": 102,
      "chip": "ym2612"
    },
    {
      "channel": 1,
      "note": 33,
      "start": 35.9024,
      "duration": 0.0824,
      "velocity": 117,
      "chip": "ym2612"
    },
    {
      "channel": 4,
      "note": 33,
      "start": 35.9699,
      "duration": 0.0165,
      "velocity": 102,
      "chip": "ym2612"
    },
    {
      "channel": 0,
      "note": 40,
      "start": 36.0507,
      "duration": 0.0164,
      "velocity": 102,
      "chip": "ym2612"
    },
    {
      "channel": 1,
      "note": 33,
      "start": 36.0513,
      "duration": 0.0825,
      "velocity": 117,
      "chip": "ym2612"
    },
    {
      "channel": 2,
      "note": 84,
      "start": 36.0526,
      "duration": 0.2968,
      "velocity": 113,
      "chip": "ym2612"
    },
    {
      "channel": 4,
      "note": 36,
      "start": 36.1189,
      "duration": 0.0165,
      "velocity": 102,
      "chip": "ym2612"
    },
    {
      "channel": 0,
      "note": 43,
      "start": 36.1996,
      "duration": 0.0164,
      "velocity": 102,
      "chip": "ym2612"
    },
    {
      "channel": 1,
      "note": 45,
      "start": 36.2003,
      "duration": 0.0824,
      "velocity": 117,
      "chip": "ym2612"
    },
    {
      "channel": 4,
      "note": 40,
      "start": 36.2678,
      "duration": 0.0164,
      "velocity": 102,
      "chip": "ym2612"
    },
    {
      "channel": 0,
      "note": 47,
      "start": 36.3486,
      "duration": 0.0164,
      "velocity": 102,
      "chip": "ym2612"
    },
    {
      "channel": 1,
      "note": 33,
      "start": 36.3493,
      "duration": 0.0824,
      "velocity": 117,
      "chip": "ym2612"
    },
    {
      "channel": 2,
      "note": 24,
      "start": 36.3505,
      "duration": 0.2969,
      "velocity": 126,
      "chip": "ym2612"
    },
    {
      "channel": 4,
      "note": 43,
      "start": 36.4168,
      "duration": 0.0164,
      "velocity": 102,
      "chip": "ym2612"
    },
    {
      "channel": 0,
      "note": 48,
      "start": 36.4976,
      "duration": 0.0164,
      "velocity": 102,
      "chip": "ym2612"
    },
    {
      "channel": 1,
      "note": 45,
      "start": 36.4983,
      "duration": 0.0824,
      "velocity": 117,
      "chip": "ym2612"
    },
    {
      "channel": 4,
      "note": 47,
      "start": 36.5658,
      "duration": 0.0164,
      "velocity": 102,
      "chip": "ym2612"
    },
    {
      "channel": 0,
      "note": 47,
      "start": 36.6466,
      "duration": 0.0164,
      "velocity": 102,
      "chip": "ym2612"
    },
    {
      "channel": 1,
      "note": 33,
      "start": 36.6472,
      "duration": 0.0824,
      "velocity": 117,
      "chip": "ym2612"
    },
    {
      "channel": 2,
      "note": 45,
      "start": 36.6484,
      "duration": 0.2969,
      "velocity": 122,
      "chip": "ym2612"
    },
    {
      "channel": 4,
      "note": 48,
      "start": 36.7148,
      "duration": 0.0164,
      "velocity": 102,
      "chip": "ym2612"
    },
    {
      "channel": 0,
      "note": 45,
      "start": 36.7956,
      "duration": 0.0164,
      "velocity": 102,
      "chip": "ym2612"
    },
    {
      "channel": 1,
      "note": 45,
      "start": 36.7962,
      "duration": 0.0824,
      "velocity": 117,
      "chip": "ym2612"
    },
    {
      "channel": 4,
      "note": 47,
      "start": 36.8638,
      "duration": 0.0164,
      "velocity": 102,
      "chip": "ym2612"
    },
    {
      "channel": 0,
      "note": 43,
      "start": 36.9446,
      "duration": 0.0164,
      "velocity": 102,
      "chip": "ym2612"
    },
    {
      "channel": 1,
      "note": 33,
      "start": 36.9452,
      "duration": 0.0824,
      "velocity": 117,
      "chip": "ym2612"
    },
    {
      "channel": 2,
      "note": 45,
      "start": 36.9458,
      "duration": 0.5954,
      "velocity": 122,
      "chip": "ym2612"
    },
    {
      "channel": 3,
      "note": 19,
      "start": 36.9465,
      "duration": 1.1249,
      "velocity": 124,
      "chip": "ym2612"
    },
    {
      "channel": 4,
      "note": 45,
      "start": 37.0127,
      "duration": 0.0165,
      "velocity": 102,
      "chip": "ym2612"
    },
    {
      "channel": 0,
      "note": 45,
      "start": 37.0935,
      "duration": 0.0164,
      "velocity": 102,
      "chip": "ym2612"
    },
    {
      "channel": 1,
      "note": 33,
      "start": 37.0941,
      "duration": 0.0825,
      "velocity": 117,
      "chip": "ym2612"
    },
    {
      "channel": 4,
      "note": 43,
      "start": 37.1617,
      "duration": 0.0165,
      "velocity": 102,
      "chip": "ym2612"
    },
    {
      "channel": 0,
      "note": 43,
      "start": 37.2424,
      "duration": 0.0164,
      "velocity": 102,
      "chip": "ym2612"
    },
    {
      "channel": 1,
      "note": 33,
      "start": 37.2431,
      "duration": 0.1485,
      "velocity": 117,
      "chip": "ym2612"
    },
    {
      "channel": 4,
      "note": 45,
      "start": 37.3107,
      "duration": 0.0164,
      "velocity": 102,
      "chip": "ym2612"
    },
    {
      "channel": 0,
      "note": 40,
      "start": 37.3914,
      "duration": 0.0164,
      "velocity": 102,
      "chip": "ym2612"
    },
    {
      "channel": 1,
      "note": 45,
      "start": 37.3921,
      "duration": 0.0824,
      "velocity": 117,
      "chip": "ym2612"
    },
    {
      "channel": 4,
      "note": 43,
      "start": 37.4596,
      "duration": 0.0164,
      "velocity": 102,
      "chip": "ym2612"
    },
    {
      "channel": 0,
      "note": 36,
      "start": 37.5404,
      "duration": 0.0164,
      "velocity": 102,
      "chip": "ym2612"
    },
    {
      "channel": 1,
      "note": 33,
      "start": 37.5411,
      "duration": 0.0825,
      "velocity": 117,
      "chip": "ym2612"
    },
    {
      "channel": 2,
      "note": 21,
      "start": 37.5423,
      "duration": 0.5948,
      "velocity": 126,
      "chip": "ym2612"
    },
    {
      "channel": 4,
      "note": 40,
      "start": 37.6086,
      "duration": 0.0165,
      "velocity": 102,
      "chip": "ym2612"
    },
    {
      "channel": 0,
      "note": 40,
      "start": 37.6894,
      "duration": 0.0164,
      "velocity": 102,
      "chip": "ym2612"
    },
    {
      "channel": 1,
      "note": 33,
      "start": 37.6901,
      "duration": 0.0824,
      "velocity": 117,
      "chip": "ym2612"
    },
    {
      "channel": 4,
      "note": 36,
      "start": 37.7576,
      "duration": 0.0165,
      "velocity": 102,
      "chip": "ym2612"
    },
    {
      "channel": 0,
      "note": 36,
      "start": 37.8384,
      "duration": 0.0164,
      "velocity": 102,
      "chip": "ym2612"
    },
    {
      "channel": 1,
      "note": 33,
      "start": 37.839,
      "duration": 0.0824,
      "velocity": 117,
      "chip": "ym2612"
    },
    {
      "channel": 4,
      "note": 40,
      "start": 37.9066,
      "duration": 0.0165,
      "velocity": 102,
      "chip": "ym2612"
    },
    {
      "channel": 0,
      "note": 35,
      "start": 37.9874,
      "duration": 0.0163,
      "velocity": 102,
      "chip": "ym2612"
    },
    {
      "channel": 1,
      "note": 33,
      "start": 37.988,
      "duration": 0.0824,
      "velocity": 117,
      "chip": "ym2612"
    },
    {
      "channel": 4,
      "note": 36,
      "start": 38.0556,
      "duration": 0.0164,
      "velocity": 102,
      "chip": "ym2612"
    },
    {
      "channel": 0,
      "note": 33,
      "start": 38.1363,
      "duration": 0.0164,
      "velocity": 102,
      "chip": "ym2612"
    },
    {
      "channel": 1,
      "note": 33,
      "start": 38.1369,
      "duration": 0.0824,
      "velocity": 117,
      "chip": "ym2612"
    },
    {
      "channel": 2,
      "note": 45,
      "start": 38.1381,
      "duration": 0.2969,
      "velocity": 122,
      "chip": "ym2612"
    },
    {
      "channel": 3,
      "note": 21,
      "start": 38.1388,
      "duration": 3.5079,
      "velocity": 124,
      "chip": "ym2612"
    },
    {
      "channel": 5,
      "note": 7,
      "start": 38.1401,
      "duration": 2.316,
      "velocity": 1,
      "chip": "ym2612"
    },
    {
      "channel": 4,
      "note": 35,
      "start": 38.2045,
      "duration": 0.0164,
      "velocity": 102,
      "chip": "ym2612"
    },
    {
      "channel": 0,
      "note": 36,
      "start": 38.2853,
      "duration": 0.0164,
      "velocity": 102,
      "chip": "ym2612"
    },
    {
      "channel": 1,
      "note": 33,
      "start": 38.2859,
      "duration": 0.0824,
      "velocity": 117,
      "chip": "ym2612"
    },
    {
      "channel": 4,
      "note": 33,
      "start": 38.3535,
      "duration": 0.0164,
      "velocity": 102,
      "chip": "ym2612"
    },
    {
      "channel": 0,
      "note": 40,
      "start": 38.4342,
      "duration": 0.0164,
      "velocity": 102,
      "chip": "ym2612"
    },
    {
      "channel": 1,
      "note": 33,
      "start": 38.4349,
      "duration": 0.0824,
      "velocity": 117,
      "chip": "ym2612"
    },
    {
      "channel": 2,
      "note": 72,
      "start": 38.4361,
      "duration": 0.2969,
      "velocity": 113,
      "chip": "ym2612"
    },
    {
      "channel": 4,
      "note": 36,
      "start": 38.5024,
      "duration": 0.0164,
      "velocity": 102,
      "chip": "ym2612"
    },
    {
      "channel": 0,
      "note": 43,
      "start": 38.5832,
      "duration": 0.0164,
      "velocity": 102,
      "chip": "ym2612"
    },
    {
      "channel": 1,
      "note": 45,
      "start": 38.5839,
      "duration": 0.0824,
      "velocity": 117,
      "chip": "ym2612"
    },
    {
      "channel": 4,
      "note": 40,
      "start": 38.6514,
      "duration": 0.0164,
      "velocity": 102,
      "chip": "ym2612"
    },
    {
      "channel": 0,
      "note": 47,
      "start": 38.7322,
      "duration": 0.0164,
      "velocity": 102,
      "chip": "ym2612"
    },
    {
      "channel": 1,
      "note": 33,
      "start": 38.7329,
      "duration": 0.0824,
      "velocity": 117,
      "chip": "ym2612"
    },
    {
      "channel": 2,
      "note": 24,
      "start": 38.7341,
      "duration": 0.2968,
      "velocity": 126,
      "chip": "ym2612"
    },
    {
      "channel": 4,
      "note": 43,
      "start": 38.8003,
      "duration": 0.0165,
      "velocity": 102,
      "chip": "ym2612"
    },
    {
      "channel": 0,
      "note": 48,
      "start": 38.8812,
      "duration": 0.0164,
      "velocity": 102,
      "chip": "ym2612"
    },
    {
      "channel": 1,
      "note": 45,
      "start": 38.8818,
      "duration": 0.0824,
      "velocity": 117,
      "chip": "ym2612"
    },
    {
      "channel": 4,
      "note": 47,
      "start": 38.9493,
      "duration": 0.0165,
      "velocity": 102,
      "chip": "ym2612"
    },
    {
      "channel": 0,
      "note": 47,
      "start": 39.0301,
      "duration": 0.0164,
      "velocity": 102,
      "chip": "ym2612"
    },
    {
      "channel": 1,
      "note": 33,
      "start": 39.0307,
      "duration": 0.0825,
      "velocity": 117,
      "chip": "ym2612"
    },
    {
      "channel": 2,
      "note": 45,
      "start": 39.032,
      "duration": 0.2969,
      "velocity": 122,
      "chip": "ym2612"
    },
    {
      "channel": 4,
      "note": 48,
      "start": 39.0983,
      "duration": 0.0165,
      "velocity": 102,
      "chip": "ym2612"
    },
    {
      "channel": 0,
      "note": 45,
      "start": 39.1791,
      "duration": 0.0164,
      "velocity": 102,
      "chip": "ym2612"
    },
    {
      "channel": 1,
      "note": 45,
      "start": 39.1797,
      "duration": 0.0824,
      "velocity": 117,
      "chip": "ym2612"
    },
    {
      "channel": 4,
      "note": 47,
      "start": 39.2473,
      "duration": 0.0164,
      "velocity": 102,
      "chip": "ym2612"
    },
    {
      "channel": 0,
      "note": 43,
      "start": 39.3281,
      "duration": 0.0164,
      "velocity": 102,
      "chip": "ym2612"
    },
    {
      "channel": 1,
      "note": 33,
      "start": 39.3287,
      "duration": 0.0824,
      "velocity": 117,
      "chip": "ym2612"
    },
    {
      "channel": 2,
      "note": 45,
      "start": 39.3293,
      "duration": 0.5954,
      "velocity": 122,
      "chip": "ym2612"
    },
    {
      "channel": 4,
      "note": 45,
      "start": 39.3963,
      "duration": 0.0164,
      "velocity": 102,
      "chip": "ym2612"
    },
    {
      "channel": 0,
      "note": 45,
      "start": 39.4771,
      "duration": 0.0164,
      "velocity": 102,
      "chip": "ym2612"
    },
    {
      "channel": 1,
      "note": 33,
      "start": 39.4777,
      "duration": 0.0824,
      "velocity": 117,
      "chip": "ym2612"
    },
    {
      "channel": 4,
      "note": 43,
      "start": 39.5453,
      "duration": 0.0164,
      "velocity": 102,
      "chip": "ym2612"
    },
    {
      "channel": 0,
      "note": 43,
      "start": 39.6261,
      "duration": 0.0164,
      "velocity": 102,
      "chip": "ym2612"
    },
    {
      "channel": 1,
      "note": 33,
      "start": 39.6267,
      "duration": 0.1485,
      "velocity": 117,
      "chip": "ym2612"
    },
    {
      "channel": 4,
      "note": 45,
      "start": 39.6942,
      "duration": 0.0165,
      "velocity": 102,
      "chip": "ym2612"
    },
    {
      "channel": 0,
      "note": 40,
      "start": 39.775,
      "duration": 0.0164,
      "velocity": 102,
      "chip": "ym2612"
    },
    {
      "channel": 1,
      "note": 45,
      "start": 39.7757,
      "duration": 0.0824,
      "velocity": 117,
      "chip": "ym2612"
    },
    {
      "channel": 4,
      "note": 43,
      "start": 39.8432,
      "duration": 0.0165,
      "velocity": 102,
      "chip": "ym2612"
    },
    {
      "channel": 0,
      "note": 36,
      "start": 39.924,
      "duration": 0.0163,
      "velocity": 102,
      "chip": "ym2612"
    },
    {
      "channel": 1,
      "note": 33,
      "start": 39.9246,
      "duration": 0.0824,
      "velocity": 117,
      "chip": "ym2612"
    },
    {
      "channel": 2,
      "note": 24,
      "start": 39.9259,
      "duration": 0.5948,
      "velocity": 126,
      "chip": "ym2612"
    },
    {
      "channel": 4,
      "note": 40,
      "start": 39.9922,
      "duration": 0.0164,
      "velocity": 102,
      "chip": "ym2612"
    },
    {
      "channel": 0,
      "note": 40,
      "start": 40.073,
      "duration": 0.0164,
      "velocity": 102,
      "chip": "ym2612"
    },
    {
      "channel": 1,
      "note": 33,
      "start": 40.0736,
      "duration": 0.0824,
      "velocity": 117,
      "chip": "ym2612"
    },
    {
      "channel": 4,
      "note": 36,
      "start": 40.1412,
      "duration": 0.0164,
      "velocity": 102,
      "chip": "ym2612"
    },
    {
      "channel": 0,
      "note": 36,
      "start": 40.2219,
      "duration": 0.0164,
      "velocity": 102,
      "chip": "ym2612"
    },
    {
      "channel": 1,
      "note": 33,
      "start": 40.2226,
      "duration": 0.0824,
      "velocity": 117,
      "chip": "ym2612"
    },
    {
      "channel": 4,
      "note": 40,
      "start": 40.2902,
      "duration": 0.0164,
      "velocity": 102,
      "chip": "ym2612"
    },
    {
      "channel": 0,
      "note": 35,
      "start": 40.3709,
      "duration": 0.0164,
      "velocity": 102,
      "chip": "ym2612"
    },
    {
      "channel": 1,
      "note": 33,
      "start": 40.3715,
      "duration": 0.0824,
      "velocity": 117,
      "chip": "ym2612"
    },
    {
      "channel": 4,
      "note": 36,
      "start": 40.4391,
      "duration": 0.0164,
      "velocity": 102,
      "chip": "ym2612"
    },
    {
      "channel": 0,
      "note": 33,
      "start": 40.5199,
      "duration": 0.0164,
      "velocity": 102,
      "chip": "ym2612"
    },
    {
      "channel": 1,
      "note": 33,
      "start": 40.5205,
      "duration": 0.0824,
      "velocity": 117,
      "chip": "ym2612"
    },
    {
      "channel": 2,
      "note": 45,
      "start": 40.5217,
      "duration": 0.2969,
      "velocity": 122,
      "chip": "ym2612"
    },
    {
      "channel": 5,
      "note": 7,
      "start": 40.5234,
      "duration": 2.3162,
      "velocity": 1,
      "chip": "ym2612"
    },
    {
      "channel": 4,
      "note": 35,
      "start": 40.5881,
      "duration": 0.0164,
      "velocity": 102,
      "chip": "ym2612"
    },
    {
      "channel": 0,
      "note": 36,
      "start": 40.6689,
      "duration": 0.0164,
      "velocity": 102,
      "chip": "ym2612"
    },
    {
      "channel": 1,
      "note": 33,
      "start": 40.6695,
      "duration": 0.0824,
      "velocity": 117,
      "chip": "ym2612"
    },
    {
      "channel": 4,
      "note": 33,
      "start": 40.737,
      "duration": 0.0165,
      "velocity": 102,
      "chip": "ym2612"
    },
    {
      "channel": 0,
      "note": 40,
      "start": 40.8178,
      "duration": 0.0164,
      "velocity": 102,
      "chip": "ym2612"
    },
    {
      "channel": 1,
      "note": 33,
      "start": 40.8185,
      "duration": 0.0824,
      "velocity": 117,
      "chip": "ym2612"
    },
    {
      "channel": 2,
      "note": 84,
      "start": 40.8197,
      "duration": 0.2968,
      "velocity": 113,
      "chip": "ym2612"
    },
    {
      "channel": 4,
      "note": 36,
      "start": 40.886,
      "duration": 0.0165,
      "velocity": 102,
      "chip": "ym2612"
    },
    {
      "channel": 0,
      "note": 43,
      "start": 40.9668,
      "duration": 0.0163,
      "velocity": 102,
      "chip": "ym2612"
    },
    {
      "channel": 1,
      "note": 45,
      "start": 40.9675,
      "duration": 0.0824,
      "velocity": 117,
      "chip": "ym2612"
    },
    {
      "channel": 4,
      "note": 40,
      "start": 41.0349,
      "duration": 0.0165,
      "velocity": 102,
      "chip": "ym2612"
    },
    {
      "channel": 0,
      "note": 47,
      "start": 41.1157,
      "duration": 0.0164,
      "velocity": 102,
      "chip": "ym2612"
    },
    {
      "channel": 1,
      "note": 33,
      "start": 41.1164,
      "duration": 0.0824,
      "velocity": 117,
      "chip": "ym2612"
    },
    {
      "channel": 2,
      "note": 24,
      "start": 41.1176,
      "duration": 0.2969,
      "velocity": 126,
      "chip": "ym2612"
    },
    {
      "channel": 4,
      "note": 43,
      "start": 41.1839,
      "duration": 0.0164,
      "velocity": 102,
      "chip": "ym2612"
    },
    {
      "channel": 0,
      "note": 48,
      "start": 41.2647,
      "duration": 0.0164,
      "velocity": 102,
      "chip": "ym2612"
    },
    {
      "channel": 1,
      "note": 45,
      "start": 41.2654,
      "duration": 0.0824,
      "velocity": 117,
      "chip": "ym2612"
    },
    {
      "channel": 4,
      "note": 47,
      "start": 41.3329,
      "duration": 0.0164,
      "velocity": 102,
      "chip": "ym2612"
    },
    {
      "channel": 0,
      "note": 47,
      "start": 41.4137,
      "duration": 0.0164,
      "velocity": 102,
      "chip": "ym2612"
    },
    {
      "channel": 1,
      "note": 33,
      "start": 41.4143,
      "duration": 0.0824,
      "velocity": 117,
      "chip": "ym2612"
    },
    {
      "channel": 2,
      "note": 45,
      "start": 41.4156,
      "duration": 0.2969,
      "velocity": 122,
      "chip": "ym2612"
    },
    {
      "channel": 4,
      "note": 48,
      "start": 41.4819,
      "duration": 0.0164,
      "velocity": 102,
      "chip": "ym2612"
    },
    {
      "channel": 0,
      "note": 45,
      "start": 41.5627,
      "duration": 0.0164,
      "velocity": 102,
      "chip": "ym2612"
    },
    {
      "channel": 1,
      "note": 45,
      "start": 41.5633,
      "duration": 0.0824,
      "velocity": 117,
      "chip": "ym2612"
    },
    {
      "channel": 4,
      "note": 47,
      "start": 41.6309,
      "duration": 0.0164,
      "velocity": 102,
      "chip": "ym2612"
    },
    {
      "channel": 0,
      "note": 43,
      "start": 41.7117,
      "duration": 0.0164,
      "velocity": 102,
      "chip": "ym2612"
    },
    {
      "channel": 1,
      "note": 33,
      "start": 41.7123,
      "duration": 0.0824,
      "velocity": 117,
      "chip": "ym2612"
    },
    {
      "channel": 2,
      "note": 45,
      "start": 41.7129,
      "duration": 0.5954,
      "velocity": 122,
      "chip": "ym2612"
    },
    {
      "channel": 3,
      "note": 19,
      "start": 41.7136,
      "duration": 1.1249,
      "velocity": 124,
      "chip": "ym2612"
    },
    {
      "channel": 4,
      "note": 45,
      "start": 41.7798,
      "duration": 0.0165,
      "velocity": 102,
      "chip": "ym2612"
    },
    {
      "channel": 0,
      "note": 45,
      "start": 41.8607,
      "duration": 0.0164,
      "velocity": 102,
      "chip": "ym2612"
    },
    {
      "channel": 1,
      "note": 33,
      "start": 41.8613,
      "duration": 0.0824,
      "velocity": 117,
      "chip": "ym2612"
    },
    {
      "channel": 4,
      "note": 43,
      "start": 41.9288,
      "duration": 0.0165,
      "velocity": 102,
      "chip": "ym2612"
    },
    {
      "channel": 0,
      "note": 43,
      "start": 42.0096,
      "duration": 0.0164,
      "velocity": 102,
      "chip": "ym2612"
    },
    {
      "channel": 1,
      "note": 33,
      "start": 42.0102,
      "duration": 0.1485,
      "velocity": 117,
      "chip": "ym2612"
    },
    {
      "channel": 4,
      "note": 45,
      "start": 42.0778,
      "duration": 0.0164,
      "velocity": 102,
      "chip": "ym2612"
    },
    {
      "channel": 0,
      "note": 40,
      "start": 42.1585,
      "duration": 0.0164,
      "velocity": 102,
      "chip": "ym2612"
    },
    {
      "channel": 1,
      "note": 45,
      "start": 42.1592,
      "duration": 0.0824,
      "velocity": 117,
      "chip": "ym2612"
    },
    {
      "channel": 4,
      "note": 43,
      "start": 42.2267,
      "duration": 0.0164,
      "velocity": 102,
      "chip": "ym2612"
    },
    {
      "channel": 0,
      "note": 36,
      "start": 42.3075,
      "duration": 0.0164,
      "velocity": 102,
      "chip": "ym2612"
    },
    {
      "channel": 1,
      "note": 33,
      "start": 42.3082,
      "duration": 0.0824,
      "velocity": 117,
      "chip": "ym2612"
    },
    {
      "channel": 2,
      "note": 21,
      "start": 42.3094,
      "duration": 0.5954,
      "velocity": 126,
      "chip": "ym2612"
    },
    {
      "channel": 4,
      "note": 40,
      "start": 42.3757,
      "duration": 0.0164,
      "velocity": 102,
      "chip": "ym2612"
    },
    {
      "channel": 0,
      "note": 40,
      "start": 42.4566,
      "duration": 0.0164,
      "velocity": 102,
      "chip": "ym2612"
    },
    {
      "channel": 1,
      "note": 33,
      "start": 42.4572,
      "duration": 0.0824,
      "velocity": 117,
      "chip": "ym2612"
    },
    {
      "channel": 4,
      "note": 36,
      "start": 42.5247,
      "duration": 0.0165,
      "velocity": 102,
      "chip": "ym2612"
    },
    {
      "channel": 0,
      "note": 36,
      "start": 42.6055,
      "duration": 0.0164,
      "velocity": 102,
      "chip": "ym2612"
    },
    {
      "channel": 1,
      "note": 33,
      "start": 42.6061,
      "duration": 0.0824,
      "velocity": 117,
      "chip": "ym2612"
    },
    {
      "channel": 4,
      "note": 40,
      "start": 42.6737,
      "duration": 0.0165,
      "velocity": 102,
      "chip": "ym2612"
    },
    {
      "channel": 0,
      "note": 35,
      "start": 42.7545,
      "duration": 0.0164,
      "velocity": 102,
      "chip": "ym2612"
    },
    {
      "channel": 1,
      "note": 33,
      "start": 42.7551,
      "duration": 0.0824,
      "velocity": 117,
      "chip": "ym2612"
    },
    {
      "channel": 4,
      "note": 36,
      "start": 42.8227,
      "duration": 0.0164,
      "velocity": 102,
      "chip": "ym2612"
    },
    {
      "channel": 0,
      "note": 57,
      "start": 42.904,
      "duration": 0.1648,
      "velocity": 1,
      "chip": "ym2612"
    },
    {
      "channel": 1,
      "note": 33,
      "start": 42.9047,
      "duration": 0.0819,
      "velocity": 117,
      "chip": "ym2612"
    },
    {
      "channel": 2,
      "note": 45,
      "start": 42.9059,
      "duration": 0.2961,
      "velocity": 122,
      "chip": "ym2612"
    },
    {
      "channel": 3,
      "note": 7,
      "start": 42.9071,
      "duration": 2.3149,
      "velocity": 1,
      "chip": "ym2612"
    },
    {
      "channel": 4,
      "note": 7,
      "start": 42.9084,
      "duration": 2.3142,
      "velocity": 1,
      "chip": "ym2612"
    },
    {
      "channel": 5,
      "note": 7,
      "start": 42.909,
      "duration": 2.3141,
      "velocity": 1,
      "chip": "ym2612"
    },
    {
      "channel": 1,
      "note": 33,
      "start": 43.0529,
      "duration": 0.0826,
      "velocity": 117,
      "chip": "ym2612"
    },
    {
      "channel": 1,
      "note": 33,
      "start": 43.2019,
      "duration": 0.0826,
      "velocity": 117,
      "chip": "ym2612"
    },
    {
      "channel": 2,
      "note": 72,
      "start": 43.2031,
      "duration": 0.297,
      "velocity": 113,
      "chip": "ym2612"
    },
    {
      "channel": 1,
      "note": 45,
      "start": 43.3509,
      "duration": 0.0826,
      "velocity": 117,
      "chip": "ym2612"
    },
    {
      "channel": 0,
      "note": 57,
      "start": 43.4993,
      "duration": 0.1654,
      "velocity": 1,
      "chip": "ym2612"
    },
    {
      "channel": 1,
      "note": 33,
      "start": 43.5,
      "duration": 0.0824,
      "velocity": 117,
      "chip": "ym2612"
    },
    {
      "channel": 2,
      "note": 24,
      "start": 43.5012,
      "duration": 0.2967,
      "velocity": 126,
      "chip": "ym2612"
    },
    {
      "channel": 1,
      "note": 45,
      "start": 43.6488,
      "duration": 0.0826,
      "velocity": 117,
      "chip": "ym2612"
    },
    {
      "channel": 1,
      "note": 33,
      "start": 43.7977,
      "duration": 0.0826,
      "velocity": 117,
      "chip": "ym2612"
    },
    {
      "channel": 2,
      "note": 45,
      "start": 43.799,
      "duration": 0.2969,
      "velocity": 122,
      "chip": "ym2612"
    },
    {
      "channel": 0,
      "note": 57,
      "start": 43.9462,
      "duration": 0.1654,
      "velocity": 1,
      "chip": "ym2612"
    },
    {
      "channel": 1,
      "note": 45,
      "start": 43.9468,
      "duration": 0.0825,
      "velocity": 117,
      "chip": "ym2612"
    },
    {
      "channel": 1,
      "note": 33,
      "start": 44.0957,
      "duration": 0.0826,
      "velocity": 117,
      "chip": "ym2612"
    },
    {
      "channel": 2,
      "note": 45,
      "start": 44.0963,
      "duration": 0.5955,
      "velocity": 122,
      "chip": "ym2612"
    },
    {
      "channel": 0,
      "note": 57,
      "start": 44.2442,
      "duration": 0.1654,
      "velocity": 1,
      "chip": "ym2612"
    },
    {
      "channel": 1,
      "note": 33,
      "start": 44.2448,
      "duration": 0.0824,
      "velocity": 117,
      "chip": "ym2612"
    },
    {
      "channel": 1,
      "note": 33,
      "start": 44.3937,
      "duration": 0.1485,
      "velocity": 117,
      "chip": "ym2612"
    },
    {
      "channel": 1,
      "note": 45,
      "start": 44.5426,
      "duration": 0.0826,
      "velocity": 117,
      "chip": "ym2612"
    },
    {
      "channel": 0,
      "note": 57,
      "start": 44.6911,
      "duration": 0.1654,
      "velocity": 1,
      "chip": "ym2612"
    },
    {
      "channel": 1,
      "note": 33,
      "start": 44.6918,
      "duration": 0.0824,
      "velocity": 117,
      "chip": "ym2612"
    },
    {
      "channel": 2,
      "note": 24,
      "start": 44.693,
      "duration": 0.5948,
      "velocity": 126,
      "chip": "ym2612"
    },
    {
      "channel": 1,
      "note": 33,
      "start": 44.8406,
      "duration": 0.0826,
      "velocity": 117,
      "chip": "ym2612"
    },
    {
      "channel": 1,
      "note": 33,
      "start": 44.9895,
      "duration": 0.0826,
      "velocity": 117,
      "chip": "ym2612"
    },
    {
      "channel": 1,
      "note": 33,
      "start": 45.1385,
      "duration": 0.0826,
      "velocity": 117,
      "chip": "ym2612"
    },
    {
      "channel": 0,
      "note": 57,
      "start": 45.287,
      "duration": 0.1654,
      "velocity": 1,
      "chip": "ym2612"
    },
    {
      "channel": 1,
      "note": 33,
      "start": 45.2876,
      "duration": 0.0824,
      "velocity": 117,
      "chip": "ym2612"
    },
    {
      "channel": 2,
      "note": 45,
      "start": 45.2888,
      "duration": 0.2967,
      "velocity": 122,
      "chip": "ym2612"
    },
    {
      "channel": 3,
      "note": 7,
      "start": 45.2895,
      "duration": 2.3161,
      "velocity": 1,
      "chip": "ym2612"
    },
    {
      "channel": 4,
      "note": 7,
      "start": 45.2902,
      "duration": 2.316,
      "velocity": 1,
      "chip": "ym2612"
    },
    {
      "channel": 5,
      "note": 7,
      "start": 45.2908,
      "duration": 2.3159,
      "velocity": 1,
      "chip": "ym2612"
    },
    {
      "channel": 1,
      "note": 33,
      "start": 45.4365,
      "duration": 0.0826,
      "velocity": 117,
      "chip": "ym2612"
    },
    {
      "channel": 1,
      "note": 33,
      "start": 45.5854,
      "duration": 0.0826,
      "velocity": 117,
      "chip": "ym2612"
    },
    {
      "channel": 2,
      "note": 84,
      "start": 45.5866,
      "duration": 0.297,
      "velocity": 113,
      "chip": "ym2612"
    },
    {
      "channel": 1,
      "note": 45,
      "start": 45.7344,
      "duration": 0.0826,
      "velocity": 117,
      "chip": "ym2612"
    },
    {
      "channel": 0,
      "note": 57,
      "start": 45.8829,
      "duration": 0.1654,
      "velocity": 1,
      "chip": "ym2612"
    },
    {
      "channel": 1,
      "note": 33,
      "start": 45.8835,
      "duration": 0.0825,
      "velocity": 117,
      "chip": "ym2612"
    },
    {
      "channel": 2,
      "note": 24,
      "start": 45.8847,
      "duration": 0.2968,
      "velocity": 126,
      "chip": "ym2612"
    },
    {
      "channel": 1,
      "note": 45,
      "start": 46.0323,
      "duration": 0.0826,
      "velocity": 117,
      "chip": "ym2612"
    },
    {
      "channel": 1,
      "note": 33,
      "start": 46.1813,
      "duration": 0.0826,
      "velocity": 117,
      "chip": "ym2612"
    },
    {
      "channel": 2,
      "note": 45,
      "start": 46.1825,
      "duration": 0.297,
      "velocity": 122,
      "chip": "ym2612"
    },
    {
      "channel": 0,
      "note": 57,
      "start": 46.3298,
      "duration": 0.1484,
      "velocity": 1,
      "chip": "ym2612"
    },
    {
      "channel": 1,
      "note": 45,
      "start": 46.3304,
      "duration": 0.0824,
      "velocity": 117,
      "chip": "ym2612"
    },
    {
      "channel": 0,
      "note": 57,
      "start": 46.4788,
      "duration": 0.1654,
      "velocity": 1,
      "chip": "ym2612"
    },
    {
      "channel": 1,
      "note": 33,
      "start": 46.4794,
      "duration": 0.0824,
      "velocity": 117,
      "chip": "ym2612"
    },
    {
      "channel": 2,
      "note": 45,
      "start": 46.48,
      "duration": 0.5952,
      "velocity": 122,
      "chip": "ym2612"
    },
    {
      "channel": 1,
      "note": 33,
      "start": 46.6283,
      "duration": 0.0826,
      "velocity": 117,
      "chip": "ym2612"
    },
    {
      "channel": 1,
      "note": 33,
      "start": 46.7772,
      "duration": 0.1487,
      "velocity": 117,
      "chip": "ym2612"
    },
    {
      "channel": 0,
      "note": 57,
      "start": 46.9257,
      "duration": 0.1654,
      "velocity": 1,
      "chip": "ym2612"
    },
    {
      "channel": 1,
      "note": 45,
      "start": 46.9263,
      "duration": 0.0825,
      "velocity": 117,
      "chip": "ym2612"
    },
    {
      "channel": 1,
      "note": 33,
      "start": 47.0751,
      "duration": 0.0826,
      "velocity": 117,
      "chip": "ym2612"
    },
    {
      "channel": 2,
      "note": 21,
      "start": 47.0764,
      "duration": 0.595,
      "velocity": 126,
      "chip": "ym2612"
    },
    {
      "channel": 0,
      "note": 57,
      "start": 47.2236,
      "duration": 0.1654,
      "velocity": 1,
      "chip": "ym2612"
    },
    {
      "channel": 1,
      "note": 33,
      "start": 47.2243,
      "duration": 0.0825,
      "velocity": 117,
      "chip": "ym2612"
    },
    {
      "channel": 1,
      "note": 33,
      "start": 47.3731,
      "duration": 0.0826,
      "velocity": 117,
      "chip": "ym2612"
    },
    {
      "channel": 0,
      "note": 57,
      "start": 47.5216,
      "duration": 0.1484,
      "velocity": 1,
      "chip": "ym2612"
    },
    {
      "channel": 1,
      "note": 33,
      "start": 47.5222,
      "duration": 0.0824,
      "velocity": 117,
      "chip": "ym2612"
    },
    {
      "channel": 0,
      "note": 57,
      "start": 47.6706,
      "duration": 0.1654,
      "velocity": 1,
      "chip": "ym2612"
    },
    {
      "channel": 1,
      "note": 33,
      "start": 47.6712,
      "duration": 0.0824,
      "velocity": 117,
      "chip": "ym2612"
    },
    {
      "channel": 2,
      "note": 45,
      "start": 47.6724,
      "duration": 0.2967,
      "velocity": 122,
      "chip": "ym2612"
    },
    {
      "channel": 3,
      "note": 7,
      "start": 47.6731,
      "duration": 2.3161,
      "velocity": 1,
      "chip": "ym2612"
    },
    {
      "channel": 4,
      "note": 7,
      "start": 47.6738,
      "duration": 2.316,
      "velocity": 1,
      "chip": "ym2612"
    },
    {
      "channel": 5,
      "note": 7,
      "start": 47.6744,
      "duration": 2.3158,
      "velocity": 1,
      "chip": "ym2612"
    },
    {
      "channel": 1,
      "note": 33,
      "start": 47.82,
      "duration": 0.0826,
      "velocity": 117,
      "chip": "ym2612"
    },
    {
      "channel": 1,
      "note": 33,
      "start": 47.969,
      "duration": 0.0826,
      "velocity": 117,
      "chip": "ym2612"
    },
    {
      "channel": 2,
      "note": 72,
      "start": 47.9702,
      "duration": 0.297,
      "velocity": 113,
      "chip": "ym2612"
    },
    {
      "channel": 1,
      "note": 45,
      "start": 48.118,
      "duration": 0.0826,
      "velocity": 117,
      "chip": "ym2612"
    },
    {
      "channel": 0,
      "note": 57,
      "start": 48.2664,
      "duration": 0.1654,
      "velocity": 1,
      "chip": "ym2612"
    },
    {
      "channel": 1,
      "note": 33,
      "start": 48.2671,
      "duration": 0.0824,
      "velocity": 117,
      "chip": "ym2612"
    },
    {
      "channel": 2,
      "note": 24,
      "start": 48.2683,
      "duration": 0.2967,
      "velocity": 126,
      "chip": "ym2612"
    },
    {
      "channel": 1,
      "note": 45,
      "start": 48.4159,
      "duration": 0.0826,
      "velocity": 117,
      "chip": "ym2612"
    },
    {
      "channel": 1,
      "note": 33,
      "start": 48.5649,
      "duration": 0.0826,
      "velocity": 117,
      "chip": "ym2612"
    },
    {
      "channel": 2,
      "note": 45,
      "start": 48.5661,
      "duration": 0.297,
      "velocity": 122,
      "chip": "ym2612"
    },
    {
      "channel": 0,
      "note": 57,
      "start": 48.7134,
      "duration": 0.1654,
      "velocity": 1,
      "chip": "ym2612"
    },
    {
      "channel": 1,
      "note": 45,
      "start": 48.714,
      "duration": 0.0824,
      "velocity": 117,
      "chip": "ym2612"
    },
    {
      "channel": 1,
      "note": 33,
      "start": 48.8628,
      "duration": 0.0826,
      "velocity": 117,
      "chip": "ym2612"
    },
    {
      "channel": 2,
      "note": 45,
      "start": 48.8634,
      "duration": 0.5956,
      "velocity": 122,
      "chip": "ym2612"
    },
    {
      "channel": 0,
      "note": 57,
      "start": 49.0113,
      "duration": 0.1654,
      "velocity": 1,
      "chip": "ym2612"
    },
    {
      "channel": 1,
      "note": 33,
      "start": 49.0119,
      "duration": 0.0824,
      "velocity": 117,
      "chip": "ym2612"
    },
    {
      "channel": 1,
      "note": 33,
      "start": 49.1608,
      "duration": 0.1485,
      "velocity": 117,
      "chip": "ym2612"
    },
    {
      "channel": 1,
      "note": 45,
      "start": 49.3097,
      "duration": 0.0826,
      "velocity": 117,
      "chip": "ym2612"
    },
    {
      "channel": 0,
      "note": 57,
      "start": 49.4582,
      "duration": 0.1654,
      "velocity": 1,
      "chip": "ym2612"
    },
    {
      "channel": 1,
      "note": 33,
      "start": 49.4589,
      "duration": 0.0824,
      "velocity": 117,
      "chip": "ym2612"
    },
    {
      "channel": 2,
      "note": 24,
      "start": 49.4601,
      "duration": 0.5948,
      "velocity": 126,
      "chip": "ym2612"
    },
    {
      "channel": 1,
      "note": 33,
      "start": 49.6077,
      "duration": 0.0826,
      "velocity": 117,
      "chip": "ym2612"
    },
    {
      "channel": 1,
      "note": 33,
      "start": 49.7567,
      "duration": 0.0826,
      "velocity": 117,
      "chip": "ym2612"
    },
    {
      "channel": 1,
      "note": 33,
      "start": 49.9056,
      "duration": 0.0826,
      "velocity": 117,
      "chip": "ym2612"
    },
    {
      "channel": 0,
      "note": 57,
      "start": 50.0541,
      "duration": 0.1654,
      "velocity": 1,
      "chip": "ym2612"
    },
    {
      "channel": 1,
      "note": 33,
      "start": 50.0547,
      "duration": 0.0824,
      "velocity": 117,
      "chip": "ym2612"
    },
    {
      "channel": 2,
      "note": 45,
      "start": 50.056,
      "duration": 0.2966,
      "velocity": 122,
      "chip": "ym2612"
    },
    {
      "channel": 3,
      "note": 7,
      "start": 50.0566,
      "duration": 2.3162,
      "velocity": 1,
      "chip": "ym2612"
    },
    {
      "channel": 4,
      "note": 7,
      "start": 50.0573,
      "duration": 2.316,
      "velocity": 1,
      "chip": "ym2612"
    },
    {
      "channel": 5,
      "note": 7,
      "start": 50.0579,
      "duration": 2.3159,
      "velocity": 1,
      "chip": "ym2612"
    },
    {
      "channel": 1,
      "note": 33,
      "start": 50.2036,
      "duration": 0.0826,
      "velocity": 117,
      "chip": "ym2612"
    },
    {
      "channel": 1,
      "note": 33,
      "start": 50.3525,
      "duration": 0.0826,
      "velocity": 117,
      "chip": "ym2612"
    },
    {
      "channel": 2,
      "note": 84,
      "start": 50.3537,
      "duration": 0.2971,
      "velocity": 113,
      "chip": "ym2612"
    },
    {
      "channel": 1,
      "note": 45,
      "start": 50.5015,
      "duration": 0.0826,
      "velocity": 117,
      "chip": "ym2612"
    },
    {
      "channel": 0,
      "note": 57,
      "start": 50.65,
      "duration": 0.1654,
      "velocity": 1,
      "chip": "ym2612"
    },
    {
      "channel": 1,
      "note": 33,
      "start": 50.6507,
      "duration": 0.0824,
      "velocity": 117,
      "chip": "ym2612"
    },
    {
      "channel": 2,
      "note": 24,
      "start": 50.6519,
      "duration": 0.2967,
      "velocity": 126,
      "chip": "ym2612"
    },
    {
      "channel": 1,
      "note": 45,
      "start": 50.7995,
      "duration": 0.0826,
      "velocity": 117,
      "chip": "ym2612"
    },
    {
      "channel": 1,
      "note": 33,
      "start": 50.9484,
      "duration": 0.0826,
      "velocity": 117,
      "chip": "ym2612"
    },
    {
      "channel": 2,
      "note": 45,
      "start": 50.9496,
      "duration": 0.297,
      "velocity": 122,
      "chip": "ym2612"
    },
    {
      "channel": 0,
      "note": 57,
      "start": 51.0969,
      "duration": 0.1485,
      "velocity": 1,
      "chip": "ym2612"
    },
    {
      "channel": 1,
      "note": 45,
      "start": 51.0976,
      "duration": 0.0824,
      "velocity": 117,
      "chip": "ym2612"
    },
    {
      "channel": 0,
      "note": 57,
      "start": 51.2459,
      "duration": 0.1654,
      "velocity": 1,
      "chip": "ym2612"
    },
    {
      "channel": 1,
      "note": 33,
      "start": 51.2465,
      "duration": 0.0824,
      "velocity": 117,
      "chip": "ym2612"
    },
    {
      "channel": 2,
      "note": 45,
      "start": 51.2472,
      "duration": 0.5952,
      "velocity": 122,
      "chip": "ym2612"
    },
    {
      "channel": 1,
      "note": 33,
      "start": 51.3954,
      "duration": 0.0826,
      "velocity": 117,
      "chip": "ym2612"
    },
    {
      "channel": 1,
      "note": 33,
      "start": 51.5443,
      "duration": 0.1487,
      "velocity": 117,
      "chip": "ym2612"
    },
    {
      "channel": 0,
      "note": 57,
      "start": 51.6928,
      "duration": 0.1653,
      "velocity": 1,
      "chip": "ym2612"
    },
    {
      "channel": 1,
      "note": 45,
      "start": 51.6935,
      "duration": 0.0824,
      "velocity": 117,
      "chip": "ym2612"
    },
    {
      "channel": 1,
      "note": 33,
      "start": 51.8423,
      "duration": 0.0826,
      "velocity": 117,
      "chip": "ym2612"
    },
    {
      "channel": 2,
      "note": 21,
      "start": 51.8435,
      "duration": 0.5956,
      "velocity": 126,
      "chip": "ym2612"
    },
    {
      "channel": 0,
      "note": 57,
      "start": 51.9907,
      "duration": 0.1654,
      "velocity": 1,
      "chip": "ym2612"
    },
    {
      "channel": 1,
      "note": 33,
      "start": 51.9914,
      "duration": 0.0825,
      "velocity": 117,
      "chip": "ym2612"
    },
    {
      "channel": 1,
      "note": 33,
      "start": 52.1403,
      "duration": 0.0826,
      "velocity": 117,
      "chip": "ym2612"
    },
    {
      "channel": 0,
      "note": 57,
      "start": 52.2887,
      "duration": 0.1484,
      "velocity": 1,
      "chip": "ym2612"
    },
    {
      "channel": 1,
      "note": 33,
      "start": 52.2894,
      "duration": 0.0824,
      "velocity": 117,
      "chip": "ym2612"
    },
    {
      "channel": 0,
      "note": 33,
      "start": 52.4383,
      "duration": 2.3824,
      "velocity": 108,
      "chip": "ym2612"
    },
    {
      "channel": 1,
      "note": 33,
      "start": 52.4389,
      "duration": 0.0819,
      "velocity": 117,
      "chip": "ym2612"
    },
    {
      "channel": 2,
      "note": 69,
      "start": 52.4402,
      "duration": 0.1471,
      "velocity": 59,
      "chip": "ym2612"
    },
    {
      "channel": 3,
      "note": 21,
      "start": 52.4414,
      "duration": 3.5067,
      "velocity": 124,
      "chip": "ym2612"
    },
    {
      "channel": 4,
      "note": 7,
      "start": 52.4421,
      "duration": 2.3147,
      "velocity": 1,
      "chip": "ym2612"
    },
    {
      "channel": 5,
      "note": 7,
      "start": 52.4427,
      "duration": 2.3146,
      "velocity": 1,
      "chip": "ym2612"
    },
    {
      "channel": 1,
      "note": 33,
      "start": 52.5871,
      "duration": 0.0826,
      "velocity": 117,
      "chip": "ym2612"
    },
    {
      "channel": 2,
      "note": 69,
      "start": 52.5883,
      "duration": 0.1479,
      "velocity": 63,
      "chip": "ym2612"
    },
    {
      "channel": 1,
      "note": 33,
      "start": 52.7361,
      "duration": 0.0826,
      "velocity": 117,
      "chip": "ym2612"
    },
    {
      "channel": 2,
      "note": 69,
      "start": 52.7373,
      "duration": 0.1479,
      "velocity": 59,
      "chip": "ym2612"
    },
    {
      "channel": 1,
      "note": 45,
      "start": 52.8851,
      "duration": 0.0826,
      "velocity": 117,
      "chip": "ym2612"
    },
    {
      "channel": 2,
      "note": 69,
      "start": 52.8857,
      "duration": 0.1485,
      "velocity": 59,
      "chip": "ym2612"
    },
    {
      "channel": 1,
      "note": 33,
      "start": 53.0341,
      "duration": 0.0826,
      "velocity": 117,
      "chip": "ym2612"
    },
    {
      "channel": 2,
      "note": 69,
      "start": 53.0353,
      "duration": 0.1479,
      "velocity": 63,
      "chip": "ym2612"
    },
    {
      "channel": 1,
      "note": 45,
      "start": 53.183,
      "duration": 0.0826,
      "velocity": 117,
      "chip": "ym2612"
    },
    {
      "channel": 2,
      "note": 69,
      "start": 53.1842,
      "duration": 0.1479,
      "velocity": 59,
      "chip": "ym2612"
    },
    {
      "channel": 1,
      "note": 33,
      "start": 53.332,
      "duration": 0.0827,
      "velocity": 117,
      "chip": "ym2612"
    },
    {
      "channel": 2,
      "note": 69,
      "start": 53.3326,
      "duration": 0.1485,
      "velocity": 59,
      "chip": "ym2612"
    },
    {
      "channel": 1,
      "note": 45,
      "start": 53.481,
      "duration": 0.0826,
      "velocity": 117,
      "chip": "ym2612"
    },
    {
      "channel": 2,
      "note": 69,
      "start": 53.4822,
      "duration": 0.0649,
      "velocity": 63,
      "chip": "ym2612"
    },
    {
      "channel": 2,
      "note": 81,
      "start": 53.5483,
      "duration": 0.0818,
      "velocity": 59,
      "chip": "ym2612"
    },
    {
      "channel": 1,
      "note": 33,
      "start": 53.6299,
      "duration": 0.0826,
      "velocity": 117,
      "chip": "ym2612"
    },
    {
      "channel": 2,
      "note": 74,
      "start": 53.6306,
      "duration": 0.1485,
      "velocity": 59,
      "chip": "ym2612"
    },
    {
      "channel": 1,
      "note": 33,
      "start": 53.7789,
      "duration": 0.0826,
      "velocity": 117,
      "chip": "ym2612"
    },
    {
      "channel": 2,
      "note": 69,
      "start": 53.7801,
      "duration": 0.1479,
      "velocity": 63,
      "chip": "ym2612"
    },
    {
      "channel": 1,
      "note": 33,
      "start": 53.9279,
      "duration": 0.1485,
      "velocity": 117,
      "chip": "ym2612"
    },
    {
      "channel": 2,
      "note": 69,
      "start": 53.9291,
      "duration": 0.1479,
      "velocity": 59,
      "chip": "ym2612"
    },
    {
      "channel": 1,
      "note": 45,
      "start": 54.0769,
      "duration": 0.0826,
      "velocity": 117,
      "chip": "ym2612"
    },
    {
      "channel": 2,
      "note": 69,
      "start": 54.0775,
      "duration": 0.1484,
      "velocity": 59,
      "chip": "ym2612"
    },
    {
      "channel": 1,
      "note": 33,
      "start": 54.2258,
      "duration": 0.0827,
      "velocity": 117,
      "chip": "ym2612"
    },
    {
      "channel": 2,
      "note": 69,
      "start": 54.227,
      "duration": 0.1479,
      "velocity": 63,
      "chip": "ym2612"
    },
    {
      "channel": 1,
      "note": 33,
      "start": 54.3748,
      "duration": 0.0827,
      "velocity": 117,
      "chip": "ym2612"
    },
    {
      "channel": 2,
      "note": 69,
      "start": 54.376,
      "duration": 0.148,
      "velocity": 59,
      "chip": "ym2612"
    },
    {
      "channel": 1,
      "note": 33,
      "start": 54.5238,
      "duration": 0.0826,
      "velocity": 117,
      "chip": "ym2612"
    },
    {
      "channel": 2,
      "note": 69,
      "start": 54.5244,
      "duration": 0.1485,
      "velocity": 59,
      "chip": "ym2612"
    },
    {
      "channel": 1,
      "note": 33,
      "start": 54.6728,
      "duration": 0.0825,
      "velocity": 117,
      "chip": "ym2612"
    },
    {
      "channel": 2,
      "note": 69,
      "start": 54.674,
      "duration": 0.148,
      "velocity": 63,
      "chip": "ym2612"
    },
    {
      "channel": 0,
      "note": 33,
      "start": 54.8213,
      "duration": 2.3829,
      "velocity": 108,
      "chip": "ym2612"
    },
    {
      "channel": 1,
      "note": 33,
      "start": 54.8219,
      "duration": 0.0824,
      "velocity": 117,
      "chip": "ym2612"
    },
    {
      "channel": 2,
      "note": 69,
      "start": 54.8232,
      "duration": 0.1477,
      "velocity": 59,
      "chip": "ym2612"
    },
    {
      "channel": 4,
      "note": 7,
      "start": 54.8243,
      "duration": 2.3161,
      "velocity": 1,
      "chip": "ym2612"
    },
    {
      "channel": 5,
      "note": 7,
      "start": 54.825,
      "duration": 2.316,
      "velocity": 1,
      "chip": "ym2612"
    },
    {
      "channel": 1,
      "note": 33,
      "start": 54.9707,
      "duration": 0.0826,
      "velocity": 117,
      "chip": "ym2612"
    },
    {
      "channel": 2,
      "note": 69,
      "start": 54.9719,
      "duration": 0.1478,
      "velocity": 63,
      "chip": "ym2612"
    },
    {
      "channel": 1,
      "note": 33,
      "start": 55.1196,
      "duration": 0.0826,
      "velocity": 117,
      "chip": "ym2612"
    },
    {
      "channel": 2,
      "note": 69,
      "start": 55.1208,
      "duration": 0.148,
      "velocity": 59,
      "chip": "ym2612"
    },
    {
      "channel": 1,
      "note": 45,
      "start": 55.2686,
      "duration": 0.0827,
      "velocity": 117,
      "chip": "ym2612"
    },
    {
      "channel": 2,
      "note": 69,
      "start": 55.2692,
      "duration": 0.1485,
      "velocity": 59,
      "chip": "ym2612"
    },
    {
      "channel": 1,
      "note": 33,
      "start": 55.4176,
      "duration": 0.0827,
      "velocity": 117,
      "chip": "ym2612"
    },
    {
      "channel": 2,
      "note": 69,
      "start": 55.4188,
      "duration": 0.1479,
      "velocity": 63,
      "chip": "ym2612"
    },
    {
      "channel": 1,
      "note": 45,
      "start": 55.5666,
      "duration": 0.0826,
      "velocity": 117,
      "chip": "ym2612"
    },
    {
      "channel": 2,
      "note": 69,
      "start": 55.5678,
      "duration": 0.1479,
      "velocity": 59,
      "chip": "ym2612"
    },
    {
      "channel": 1,
      "note": 33,
      "start": 55.7156,
      "duration": 0.0826,
      "velocity": 117,
      "chip": "ym2612"
    },
    {
      "channel": 2,
      "note": 69,
      "start": 55.7162,
      "duration": 0.1485,
      "velocity": 59,
      "chip": "ym2612"
    },
    {
      "channel": 1,
      "note": 45,
      "start": 55.8645,
      "duration": 0.0826,
      "velocity": 117,
      "chip": "ym2612"
    },
    {
      "channel": 2,
      "note": 69,
      "start": 55.8657,
      "duration": 0.1479,
      "velocity": 63,
      "chip": "ym2612"
    },
    {
      "channel": 1,
      "note": 33,
      "start": 56.0135,
      "duration": 0.0826,
      "velocity": 117,
      "chip": "ym2612"
    },
    {
      "channel": 2,
      "note": 69,
      "start": 56.0147,
      "duration": 0.1478,
      "velocity": 59,
      "chip": "ym2612"
    },
    {
      "channel": 3,
      "note": 19,
      "start": 56.0154,
      "duration": 1.1246,
      "velocity": 124,
      "chip": "ym2612"
    },
    {
      "channel": 1,
      "note": 33,
      "start": 56.1624,
      "duration": 0.0826,
      "velocity": 117,
      "chip": "ym2612"
    },
    {
      "channel": 2,
      "note": 69,
      "start": 56.1637,
      "duration": 0.1479,
      "velocity": 63,
      "chip": "ym2612"
    },
    {
      "channel": 1,
      "note": 33,
      "start": 56.3114,
      "duration": 0.1485,
      "velocity": 117,
      "chip": "ym2612"
    },
    {
      "channel": 2,
      "note": 69,
      "start": 56.3126,
      "duration": 0.148,
      "velocity": 59,
      "chip": "ym2612"
    },
    {
      "channel": 1,
      "note": 45,
      "start": 56.4604,
      "duration": 0.0827,
      "velocity": 117,
      "chip": "ym2612"
    },
    {
      "channel": 2,
      "note": 69,
      "start": 56.461,
      "duration": 0.1485,
      "velocity": 59,
      "chip": "ym2612"
    },
    {
      "channel": 1,
      "note": 33,
      "start": 56.6094,
      "duration": 0.0826,
      "velocity": 117,
      "chip": "ym2612"
    },
    {
      "channel": 2,
      "note": 69,
      "start": 56.6106,
      "duration": 0.1479,
      "velocity": 63,
      "chip": "ym2612"
    },
    {
      "channel": 1,
      "note": 33,
      "start": 56.7584,
      "duration": 0.0826,
      "velocity": 117,
      "chip": "ym2612"
    },
    {
      "channel": 2,
      "note": 69,
      "start": 56.7596,
      "duration": 0.148,
      "velocity": 59,
      "chip": "ym2612"
    },
    {
      "channel": 1,
      "note": 33,
      "start": 56.9073,
      "duration": 0.0826,
      "velocity": 117,
      "chip": "ym2612"
    },
    {
      "channel": 2,
      "note": 69,
      "start": 56.908,
      "duration": 0.1485,
      "velocity": 59,
      "chip": "ym2612"
    },
    {
      "channel": 1,
      "note": 33,
      "start": 57.0563,
      "duration": 0.0826,
      "velocity": 117,
      "chip": "ym2612"
    },
    {
      "channel": 2,
      "note": 69,
      "start": 57.057,
      "duration": 0.1487,
      "velocity": 59,
      "chip": "ym2612"
    },
    {
      "channel": 0,
      "note": 33,
      "start": 57.2048,
      "duration": 2.383,
      "velocity": 108,
      "chip": "ym2612"
    },
    {
      "channel": 1,
      "note": 33,
      "start": 57.2054,
      "duration": 0.0824,
      "velocity": 117,
      "chip": "ym2612"
    },
    {
      "channel": 2,
      "note": 69,
      "start": 57.2061,
      "duration": 0.1482,
      "velocity": 59,
      "chip": "ym2612"
    },
    {
      "channel": 3,
      "note": 21,
      "start": 57.2068,
      "duration": 3.5085,
      "velocity": 124,
      "chip": "ym2612"
    },
    {
      "channel": 4,
      "note": 7,
      "start": 57.2074,
      "duration": 2.3165,
      "velocity": 1,
      "chip": "ym2612"
    },
    {
      "channel": 5,
      "note": 7,
      "start": 57.208,
      "duration": 2.3164,
      "velocity": 1,
      "chip": "ym2612"
    },
    {
      "channel": 1,
      "note": 33,
      "start": 57.3542,
      "duration": 0.0827,
      "velocity": 117,
      "chip": "ym2612"
    },
    {
      "channel": 2,
      "note": 69,
      "start": 57.3554,
      "duration": 0.1479,
      "velocity": 63,
      "chip": "ym2612"
    },
    {
      "channel": 1,
      "note": 33,
      "start": 57.5032,
      "duration": 0.0826,
      "velocity": 117,
      "chip": "ym2612"
    },
    {
      "channel": 2,
      "note": 69,
      "start": 57.5044,
      "duration": 0.1479,
      "velocity": 59,
      "chip": "ym2612"
    },
    {
      "channel": 1,
      "note": 45,
      "start": 57.6522,
      "duration": 0.0826,
      "velocity": 117,
      "chip": "ym2612"
    },
    {
      "channel": 2,
      "note": 69,
      "start": 57.6528,
      "duration": 0.1485,
      "velocity": 59,
      "chip": "ym2612"
    },
    {
      "channel": 1,
      "note": 33,
      "start": 57.8012,
      "duration": 0.0826,
      "velocity": 117,
      "chip": "ym2612"
    },
    {
      "channel": 2,
      "note": 69,
      "start": 57.8024,
      "duration": 0.1479,
      "velocity": 63,
      "chip": "ym2612"
    },
    {
      "channel": 1,
      "note": 45,
      "start": 57.9502,
      "duration": 0.0826,
      "velocity": 117,
      "chip": "ym2612"
    },
    {
      "channel": 2,
      "note": 69,
      "start": 57.9514,
      "duration": 0.1479,
      "velocity": 59,
      "chip": "ym2612"
    },
    {
      "channel": 1,
      "note": 33,
      "start": 58.0991,
      "duration": 0.0826,
      "velocity": 117,
      "chip": "ym2612"
    },
    {
      "channel": 2,
      "note": 69,
      "start": 58.0997,
      "duration": 0.1485,
      "velocity": 59,
      "chip": "ym2612"
    },
    {
      "channel": 1,
      "note": 45,
      "start": 58.248,
      "duration": 0.0826,
      "velocity": 117,
      "chip": "ym2612"
    },
    {
      "channel": 2,
      "note": 69,
      "start": 58.2493,
      "duration": 0.0649,
      "velocity": 63,
      "chip": "ym2612"
    },
    {
      "channel": 2,
      "note": 81,
      "start": 58.3154,
      "duration": 0.0819,
      "velocity": 59,
      "chip": "ym2612"
    },
    {
      "channel": 1,
      "note": 33,
      "start": 58.397,
      "duration": 0.0827,
      "velocity": 117,
      "chip": "ym2612"
    },
    {
      "channel": 2,
      "note": 74,
      "start": 58.3977,
      "duration": 0.1485,
      "velocity": 59,
      "chip": "ym2612"
    },
    {
      "channel": 1,
      "note": 33,
      "start": 58.546,
      "duration": 0.0826,
      "velocity": 117,
      "chip": "ym2612"
    },
    {
      "channel": 2,
      "note": 69,
      "start": 58.5472,
      "duration": 0.1479,
      "velocity": 63,
      "chip": "ym2612"
    },
    {
      "channel": 1,
      "note": 33,
      "start": 58.695,
      "duration": 0.1485,
      "velocity": 117,
      "chip": "ym2612"
    },
    {
      "channel": 2,
      "note": 69,
      "start": 58.6962,
      "duration": 0.1479,
      "velocity": 59,
      "chip": "ym2612"
    },
    {
      "channel": 1,
      "note": 45,
      "start": 58.844,
      "duration": 0.0826,
      "velocity": 117,
      "chip": "ym2612"
    },
    {
      "channel": 2,
      "note": 69,
      "start": 58.8446,
      "duration": 0.1485,
      "velocity": 59,
      "chip": "ym2612"
    },
    {
      "channel": 1,
      "note": 33,
      "start": 58.993,
      "duration": 0.0826,
      "velocity": 117,
      "chip": "ym2612"
    },
    {
      "channel": 2,
      "note": 69,
      "start": 58.9942,
      "duration": 0.1478,
      "velocity": 63,
      "chip": "ym2612"
    },
    {
      "channel": 1,
      "note": 33,
      "start": 59.1419,
      "duration": 0.0826,
      "velocity": 117,
      "chip": "ym2612"
    },
    {
      "channel": 2,
      "note": 69,
      "start": 59.1431,
      "duration": 0.148,
      "velocity": 59,
      "chip": "ym2612"
    },
    {
      "channel": 1,
      "note": 33,
      "start": 59.2909,
      "duration": 0.0826,
      "velocity": 117,
      "chip": "ym2612"
    },
    {
      "channel": 2,
      "note": 69,
      "start": 59.2915,
      "duration": 0.1485,
      "velocity": 59,
      "chip": "ym2612"
    },
    {
      "channel": 1,
      "note": 33,
      "start": 59.4399,
      "duration": 0.0825,
      "velocity": 117,
      "chip": "ym2612"
    },
    {
      "channel": 2,
      "note": 69,
      "start": 59.4411,
      "duration": 0.148,
      "velocity": 63,
      "chip": "ym2612"
    },
    {
      "channel": 0,
      "note": 33,
      "start": 59.5884,
      "duration": 2.383,
      "velocity": 108,
      "chip": "ym2612"
    },
    {
      "channel": 1,
      "note": 33,
      "start": 59.589,
      "duration": 0.0824,
      "velocity": 117,
      "chip": "ym2612"
    },
    {
      "channel": 2,
      "note": 69,
      "start": 59.5903,
      "duration": 0.1476,
      "velocity": 59,
      "chip": "ym2612"
    },
    {
      "channel": 4,
      "note": 7,
      "start": 59.5914,
      "duration": 2.3161,
      "velocity": 1,
      "chip": "ym2612"
    },
    {
      "channel": 5,
      "note": 7,
      "start": 59.5921,
      "duration": 2.316,
      "velocity": 1,
      "chip": "ym2612"
    },
    {
      "channel": 1,
      "note": 33,
      "start": 59.7378,
      "duration": 0.0826,
      "velocity": 117,
      "chip": "ym2612"
    },
    {
      "channel": 2,
      "note": 69,
      "start": 59.739,
      "duration": 0.1479,
      "velocity": 63,
      "chip": "ym2612"
    },
    {
      "channel": 1,
      "note": 33,
      "start": 59.8868,
      "duration": 0.0826,
      "velocity": 117,
      "chip": "ym2612"
    },
    {
      "channel": 2,
      "note": 69,
      "start": 59.888,
      "duration": 0.1479,
      "velocity": 59,
      "chip": "ym2612"
    },
    {
      "channel": 1,
      "note": 45,
      "start": 60.0357,
      "duration": 0.0826,
      "velocity": 117,
      "chip": "ym2612"
    },
    {
      "channel": 2,
      "note": 69,
      "start": 60.0363,
      "duration": 0.1485,
      "velocity": 59,
      "chip": "ym2612"
    },
    {
      "channel": 1,
      "note": 33,
      "start": 60.1847,
      "duration": 0.0826,
      "velocity": 117,
      "chip": "ym2612"
    },
    {
      "channel": 2,
      "note": 69,
      "start": 60.1859,
      "duration": 0.1479,
      "velocity": 63,
      "chip": "ym2612"
    },
    {
      "channel": 1,
      "note": 45,
      "start": 60.3337,
      "duration": 0.0826,
      "velocity": 117,
      "chip": "ym2612"
    },
    {
      "channel": 2,
      "note": 69,
      "start": 60.3349,
      "duration": 0.1479,
      "velocity": 59,
      "chip": "ym2612"
    },
    {
      "channel": 1,
      "note": 33,
      "start": 60.4827,
      "duration": 0.0826,
      "velocity": 117,
      "chip": "ym2612"
    },
    {
      "channel": 2,
      "note": 69,
      "start": 60.4833,
      "duration": 0.1485,
      "velocity": 59,
      "chip": "ym2612"
    },
    {
      "channel": 1,
      "note": 45,
      "start": 60.6316,
      "duration": 0.0826,
      "velocity": 117,
      "chip": "ym2612"
    },
    {
      "channel": 2,
      "note": 69,
      "start": 60.6329,
      "duration": 0.1479,
      "velocity": 63,
      "chip": "ym2612"
    },
    {
      "channel": 1,
      "note": 33,
      "start": 60.7806,
      "duration": 0.0826,
      "velocity": 117,
      "chip": "ym2612"
    },
    {
      "channel": 2,
      "note": 69,
      "start": 60.7818,
      "duration": 0.1479,
      "velocity": 59,
      "chip": "ym2612"
    },
    {
      "channel": 3,
      "note": 19,
      "start": 60.7825,
      "duration": 1.1246,
      "velocity": 124,
      "chip": "ym2612"
    },
    {
      "channel": 1,
      "note": 33,
      "start": 60.9296,
      "duration": 0.0826,
      "velocity": 117,
      "chip": "ym2612"
    },
    {
      "channel": 2,
      "note": 69,
      "start": 60.9308,
      "duration": 0.1478,
      "velocity": 63,
      "chip": "ym2612"
    },
    {
      "channel": 1,
      "note": 33,
      "start": 61.0785,
      "duration": 0.1485,
      "velocity": 117,
      "chip": "ym2612"
    },
    {
      "channel": 2,
      "note": 69,
      "start": 61.0797,
      "duration": 0.148,
      "velocity": 59,
      "chip": "ym2612"
    },
    {
      "channel": 1,
      "note": 45,
      "start": 61.2275,
      "duration": 0.0826,
      "velocity": 117,
      "chip": "ym2612"
    },
    {
      "channel": 2,
      "note": 69,
      "start": 61.2281,
      "duration": 0.1485,
      "velocity": 59,
      "chip": "ym2612"
    },
    {
      "channel": 1,
      "note": 33,
      "start": 61.3765,
      "duration": 0.0826,
      "velocity": 117,
      "chip": "ym2612"
    },
    {
      "channel": 2,
      "note": 69,
      "start": 61.3777,
      "duration": 0.1479,
      "velocity": 63,
      "chip": "ym2612"
    },
    {
      "channel": 1,
      "note": 33,
      "start": 61.5255,
      "duration": 0.0826,
      "velocity": 117,
      "chip": "ym2612"
    },
    {
      "channel": 2,
      "note": 69,
      "start": 61.5267,
      "duration": 0.1479,
      "velocity": 59,
      "chip": "ym2612"
    },
    {
      "channel": 1,
      "note": 33,
      "start": 61.6744,
      "duration": 0.0827,
      "velocity": 117,
      "chip": "ym2612"
    },
    {
      "channel": 2,
      "note": 69,
      "start": 61.6751,
      "duration": 0.1485,
      "velocity": 59,
      "chip": "ym2612"
    },
    {
      "channel": 1,
      "note": 33,
      "start": 61.8234,
      "duration": 0.0826,
      "velocity": 117,
      "chip": "ym2612"
    },
    {
      "channel": 2,
      "note": 69,
      "start": 61.8241,
      "duration": 0.1487,
      "velocity": 59,
      "chip": "ym2612"
    },
    {
      "channel": 0,
      "note": 33,
      "start": 61.9719,
      "duration": 2.383,
      "velocity": 108,
      "chip": "ym2612"
    },
    {
      "channel": 1,
      "note": 33,
      "start": 61.9726,
      "duration": 0.0824,
      "velocity": 117,
      "chip": "ym2612"
    },
    {
      "channel": 2,
      "note": 45,
      "start": 61.9739,
      "duration": 4.766,
      "velocity": 108,
      "chip": "ym2612"
    },
    {
      "channel": 3,
      "note": 33,
      "start": 61.9751,
      "duration": 0.0148,
      "velocity": 102,
      "chip": "ym2612"
    },
    {
      "channel": 4,
      "note": 36,
      "start": 61.9765,
      "duration": 2.381,
      "velocity": 108,
      "chip": "ym2612"
    },
    {
      "channel": 5,
      "note": 69,
      "start": 61.9777,
      "duration": 0.1457,
      "velocity": 59,
      "chip": "ym2612"
    },
    {
      "channel": 1,
      "note": 33,
      "start": 62.1214,
      "duration": 0.0826,
      "velocity": 117,
      "chip": "ym2612"
    },
    {
      "channel": 3,
      "note": 36,
      "start": 62.1227,
      "duration": 0.0161,
      "velocity": 102,
      "chip": "ym2612"
    },
    {
      "channel": 5,
      "note": 69,
      "start": 62.1244,
      "duration": 0.1478,
      "velocity": 63,
      "chip": "ym2612"
    },
    {
      "channel": 1,
      "note": 33,
      "start": 62.2703,
      "duration": 0.0826,
      "velocity": 117,
      "chip": "ym2612"
    },
    {
      "channel": 3,
      "note": 40,
      "start": 62.2715,
      "duration": 0.0163,
      "velocity": 102,
      "chip": "ym2612"
    },
    {
      "channel": 5,
      "note": 69,
      "start": 62.2734,
      "duration": 0.1478,
      "velocity": 59,
      "chip": "ym2612"
    },
    {
      "channel": 1,
      "note": 45,
      "start": 62.4193,
      "duration": 0.0826,
      "velocity": 117,
      "chip": "ym2612"
    },
    {
      "channel": 3,
      "note": 43,
      "start": 62.4205,
      "duration": 0.0163,
      "velocity": 102,
      "chip": "ym2612"
    },
    {
      "channel": 5,
      "note": 69,
      "start": 62.4217,
      "duration": 0.1485,
      "velocity": 59,
      "chip": "ym2612"
    },
    {
      "channel": 1,
      "note": 33,
      "start": 62.5683,
      "duration": 0.0826,
      "velocity": 117,
      "chip": "ym2612"
    },
    {
      "channel": 3,
      "note": 47,
      "start": 62.5695,
      "duration": 0.0163,
      "velocity": 102,
      "chip": "ym2612"
    },
    {
      "channel": 5,
      "note": 69,
      "start": 62.5713,
      "duration": 0.1478,
      "velocity": 63,
      "chip": "ym2612"
    },
    {
      "channel": 1,
      "note": 45,
      "start": 62.7173,
      "duration": 0.0826,
      "velocity": 117,
      "chip": "ym2612"
    },
    {
      "channel": 3,
      "note": 48,
      "start": 62.7185,
      "duration": 0.0162,
      "velocity": 102,
      "chip": "ym2612"
    },
    {
      "channel": 5,
      "note": 69,
      "start": 62.7202,
      "duration": 0.1479,
      "velocity": 59,
      "chip": "ym2612"
    },
    {
      "channel": 1,
      "note": 33,
      "start": 62.8663,
      "duration": 0.0826,
      "velocity": 117,
      "chip": "ym2612"
    },
    {
      "channel": 3,
      "note": 47,
      "start": 62.8675,
      "duration": 0.0162,
      "velocity": 102,
      "chip": "ym2612"
    },
    {
      "channel": 5,
      "note": 69,
      "start": 62.8687,
      "duration": 0.1484,
      "velocity": 59,
      "chip": "ym2612"
    },
    {
      "channel": 1,
      "note": 45,
      "start": 63.0152,
      "duration": 0.0826,
      "velocity": 117,
      "chip": "ym2612"
    },
    {
      "channel": 3,
      "note": 45,
      "start": 63.0164,
      "duration": 0.0162,
      "velocity": 102,
      "chip": "ym2612"
    },
    {
      "channel": 5,
      "note": 69,
      "start": 63.0182,
      "duration": 0.0647,
      "velocity": 63,
      "chip": "ym2612"
    },
    {
      "channel": 5,
      "note": 81,
      "start": 63.0841,
      "duration": 0.082,
      "velocity": 59,
      "chip": "ym2612"
    },
    {
      "channel": 1,
      "note": 33,
      "start": 63.1641,
      "duration": 0.0826,
      "velocity": 117,
      "chip": "ym2612"
    },
    {
      "channel": 3,
      "note": 43,
      "start": 63.1654,
      "duration": 0.0163,
      "velocity": 102,
      "chip": "ym2612"
    },
    {
      "channel": 5,
      "note": 74,
      "start": 63.1666,
      "duration": 0.1485,
      "velocity": 59,
      "chip": "ym2612"
    },
    {
      "channel": 1,
      "note": 33,
      "start": 63.3131,
      "duration": 0.0826,
      "velocity": 117,
      "chip": "ym2612"
    },
    {
      "channel": 3,
      "note": 45,
      "start": 63.3143,
      "duration": 0.0163,
      "velocity": 102,
      "chip": "ym2612"
    },
    {
      "channel": 5,
      "note": 69,
      "start": 63.3161,
      "duration": 0.1479,
      "velocity": 63,
      "chip": "ym2612"
    },
    {
      "channel": 1,
      "note": 33,
      "start": 63.4621,
      "duration": 0.1485,
      "velocity": 117,
      "chip": "ym2612"
    },
    {
      "channel": 3,
      "note": 43,
      "start": 63.4633,
      "duration": 0.0163,
      "velocity": 102,
      "chip": "ym2612"
    },
    {
      "channel": 5,
      "note": 69,
      "start": 63.4651,
      "duration": 0.1479,
      "velocity": 59,
      "chip": "ym2612"
    },
    {
      "channel": 1,
      "note": 45,
      "start": 63.6111,
      "duration": 0.0826,
      "velocity": 117,
      "chip": "ym2612"
    },
    {
      "channel": 3,
      "note": 40,
      "start": 63.6123,
      "duration": 0.0162,
      "velocity": 102,
      "chip": "ym2612"
    },
    {
      "channel": 5,
      "note": 69,
      "start": 63.6135,
      "duration": 0.1484,
      "velocity": 59,
      "chip": "ym2612"
    },
    {
      "channel": 1,
      "note": 33,
      "start": 63.7601,
      "duration": 0.0826,
      "velocity": 117,
      "chip": "ym2612"
    },
    {
      "channel": 3,
      "note": 36,
      "start": 63.7613,
      "duration": 0.0162,
      "velocity": 102,
      "chip": "ym2612"
    },
    {
      "channel": 5,
      "note": 69,
      "start": 63.7631,
      "duration": 0.1478,
      "velocity": 63,
      "chip": "ym2612"
    },
    {
      "channel": 1,
      "note": 33,
      "start": 63.909,
      "duration": 0.0826,
      "velocity": 117,
      "chip": "ym2612"
    },
    {
      "channel": 3,
      "note": 40,
      "start": 63.9103,
      "duration": 0.0162,
      "velocity": 102,
      "chip": "ym2612"
    },
    {
      "channel": 5,
      "note": 69,
      "start": 63.912,
      "duration": 0.1479,
      "velocity": 59,
      "chip": "ym2612"
    },
    {
      "channel": 1,
      "note": 33,
      "start": 64.058,
      "duration": 0.0826,
      "velocity": 117,
      "chip": "ym2612"
    },
    {
      "channel": 3,
      "note": 36,
      "start": 64.0592,
      "duration": 0.0163,
      "velocity": 102,
      "chip": "ym2612"
    },
    {
      "channel": 5,
      "note": 69,
      "start": 64.0604,
      "duration": 0.1485,
      "velocity": 59,
      "chip": "ym2612"
    },
    {
      "channel": 1,
      "note": 33,
      "start": 64.207,
      "duration": 0.0826,
      "velocity": 117,
      "chip": "ym2612"
    },
    {
      "channel": 3,
      "note": 35,
      "start": 64.2082,
      "duration": 0.0163,
      "velocity": 102,
      "chip": "ym2612"
    },
    {
      "channel": 5,
      "note": 69,
      "start": 64.21,
      "duration": 0.1482,
      "velocity": 63,
      "chip": "ym2612"
    },
    {
      "channel": 0,
      "note": 33,
      "start": 64.3555,
      "duration": 2.383,
      "velocity": 108,
      "chip": "ym2612"
    },
    {
      "channel": 1,
      "note": 33,
      "start": 64.3561,
      "duration": 0.0824,
      "velocity": 117,
      "chip": "ym2612"
    },
    {
      "channel": 3,
      "note": 33,
      "start": 64.3574,
      "duration": 0.0161,
      "velocity": 102,
      "chip": "ym2612"
    },
    {
      "channel": 4,
      "note": 35,
      "start": 64.3581,
      "duration": 2.3832,
      "velocity": 108,
      "chip": "ym2612"
    },
    {
      "channel": 5,
      "note": 69,
      "start": 64.3593,
      "duration": 0.1476,
      "velocity": 59,
      "chip": "ym2612"
    },
    {
      "channel": 1,
      "note": 33,
      "start": 64.5049,
      "duration": 0.0826,
      "velocity": 117,
      "chip": "ym2612"
    },
    {
      "channel": 3,
      "note": 36,
      "start": 64.5062,
      "duration": 0.0162,
      "velocity": 102,
      "chip": "ym2612"
    },
    {
      "channel": 5,
      "note": 69,
      "start": 64.508,
      "duration": 0.1478,
      "velocity": 63,
      "chip": "ym2612"
    },
    {
      "channel": 1,
      "note": 33,
      "start": 64.6539,
      "duration": 0.0826,
      "velocity": 117,
      "chip": "ym2612"
    },
    {
      "channel": 3,
      "note": 40,
      "start": 64.6551,
      "duration": 0.0162,
      "velocity": 102,
      "chip": "ym2612"
    },
    {
      "channel": 5,
      "note": 69,
      "start": 64.657,
      "duration": 0.1478,
      "velocity": 59,
      "chip": "ym2612"
    },
    {
      "channel": 1,
      "note": 45,
      "start": 64.8029,
      "duration": 0.0826,
      "velocity": 117,
      "chip": "ym2612"
    },
    {
      "channel": 3,
      "note": 43,
      "start": 64.8041,
      "duration": 0.0162,
      "velocity": 102,
      "chip": "ym2612"
    },
    {
      "channel": 5,
      "note": 69,
      "start": 64.8053,
      "duration": 0.1484,
      "velocity": 59,
      "chip": "ym2612"
    },
    {
      "channel": 1,
      "note": 33,
      "start": 64.9519,
      "duration": 0.0826,
      "velocity": 117,
      "chip": "ym2612"
    },
    {
      "channel": 3,
      "note": 47,
      "start": 64.9531,
      "duration": 0.0162,
      "velocity": 102,
      "chip": "ym2612"
    },
    {
      "channel": 5,
      "note": 69,
      "start": 64.9549,
      "duration": 0.1478,
      "velocity": 63,
      "chip": "ym2612"
    },
    {
      "channel": 1,
      "note": 45,
      "start": 65.1008,
      "duration": 0.0826,
      "velocity": 117,
      "chip": "ym2612"
    },
    {
      "channel": 3,
      "note": 48,
      "start": 65.102,
      "duration": 0.0163,
      "velocity": 102,
      "chip": "ym2612"
    },
    {
      "channel": 5,
      "note": 69,
      "start": 65.1038,
      "duration": 0.1479,
      "velocity": 59,
      "chip": "ym2612"
    },
    {
      "channel": 1,
      "note": 33,
      "start": 65.2498,
      "duration": 0.0826,
      "velocity": 117,
      "chip": "ym2612"
    },
    {
      "channel": 3,
      "note": 47,
      "start": 65.251,
      "duration": 0.0163,
      "velocity": 102,
      "chip": "ym2612"
    },
    {
      "channel": 5,
      "note": 69,
      "start": 65.2522,
      "duration": 0.1485,
      "velocity": 59,
      "chip": "ym2612"
    },
    {
      "channel": 1,
      "note": 45,
      "start": 65.3988,
      "duration": 0.0826,
      "velocity": 117,
      "chip": "ym2612"
    },
    {
      "channel": 3,
      "note": 45,
      "start": 65.4,
      "duration": 0.0163,
      "velocity": 102,
      "chip": "ym2612"
    },
    {
      "channel": 5,
      "note": 69,
      "start": 65.4017,
      "duration": 0.1479,
      "velocity": 63,
      "chip": "ym2612"
    },
    {
      "channel": 1,
      "note": 33,
      "start": 65.5477,
      "duration": 0.0826,
      "velocity": 117,
      "chip": "ym2612"
    },
    {
      "channel": 3,
      "note": 43,
      "start": 65.549,
      "duration": 0.0162,
      "velocity": 102,
      "chip": "ym2612"
    },
    {
      "channel": 5,
      "note": 69,
      "start": 65.5507,
      "duration": 0.1478,
      "velocity": 59,
      "chip": "ym2612"
    },
    {
      "channel": 1,
      "note": 33,
      "start": 65.6967,
      "duration": 0.0826,
      "velocity": 117,
      "chip": "ym2612"
    },
    {
      "channel": 3,
      "note": 45,
      "start": 65.6979,
      "duration": 0.0162,
      "velocity": 102,
      "chip": "ym2612"
    },
    {
      "channel": 5,
      "note": 69,
      "start": 65.6997,
      "duration": 0.1478,
      "velocity": 63,
      "chip": "ym2612"
    },
    {
      "channel": 1,
      "note": 33,
      "start": 65.8457,
      "duration": 0.1485,
      "velocity": 117,
      "chip": "ym2612"
    },
    {
      "channel": 3,
      "note": 43,
      "start": 65.8469,
      "duration": 0.0162,
      "velocity": 102,
      "chip": "ym2612"
    },
    {
      "channel": 5,
      "note": 69,
      "start": 65.8487,
      "duration": 0.1479,
      "velocity": 59,
      "chip": "ym2612"
    },
    {
      "channel": 1,
      "note": 45,
      "start": 65.9946,
      "duration": 0.0826,
      "velocity": 117,
      "chip": "ym2612"
    },
    {
      "channel": 3,
      "note": 40,
      "start": 65.9959,
      "duration": 0.0162,
      "velocity": 102,
      "chip": "ym2612"
    },
    {
      "channel": 5,
      "note": 69,
      "start": 65.997,
      "duration": 0.1485,
      "velocity": 59,
      "chip": "ym2612"
    },
    {
      "channel": 1,
      "note": 33,
      "start": 66.1436,
      "duration": 0.0826,
      "velocity": 117,
      "chip": "ym2612"
    },
    {
      "channel": 3,
      "note": 36,
      "start": 66.1448,
      "duration": 0.0163,
      "velocity": 102,
      "chip": "ym2612"
    },
    {
      "channel": 5,
      "note": 69,
      "start": 66.1466,
      "duration": 0.1479,
      "velocity": 63,
      "chip": "ym2612"
    },
    {
      "channel": 1,
      "note": 33,
      "start": 66.2926,
      "duration": 0.0826,
      "velocity": 117,
      "chip": "ym2612"
    },
    {
      "channel": 3,
      "note": 40,
      "start": 66.2938,
      "duration": 0.0163,
      "velocity": 102,
      "chip": "ym2612"
    },
    {
      "channel": 5,
      "note": 69,
      "start": 66.2956,
      "duration": 0.1479,
      "velocity": 59,
      "chip": "ym2612"
    },
    {
      "channel": 1,
      "note": 33,
      "start": 66.4416,
      "duration": 0.0826,
      "velocity": 117,
      "chip": "ym2612"
    },
    {
      "channel": 3,
      "note": 36,
      "start": 66.4428,
      "duration": 0.0163,
      "velocity": 102,
      "chip": "ym2612"
    },
    {
      "channel": 5,
      "note": 69,
      "start": 66.444,
      "duration": 0.1485,
      "velocity": 59,
      "chip": "ym2612"
    },
    {
      "channel": 1,
      "note": 33,
      "start": 66.5906,
      "duration": 0.0826,
      "velocity": 117,
      "chip": "ym2612"
    },
    {
      "channel": 3,
      "note": 35,
      "start": 66.5918,
      "duration": 0.0162,
      "velocity": 102,
      "chip": "ym2612"
    },
    {
      "channel": 5,
      "note": 69,
      "start": 66.593,
      "duration": 0.149,
      "velocity": 59,
      "chip": "ym2612"
    },
    {
      "channel": 0,
      "note": 31,
      "start": 66.739,
      "duration": 2.383,
      "velocity": 108,
      "chip": "ym2612"
    },
    {
      "channel": 1,
      "note": 33,
      "start": 66.7397,
      "duration": 0.0824,
      "velocity": 117,
      "chip": "ym2612"
    },
    {
      "channel": 2,
      "note": 40,
      "start": 66.7404,
      "duration": 3.5745,
      "velocity": 108,
      "chip": "ym2612"
    },
    {
      "channel": 3,
      "note": 33,
      "start": 66.7411,
      "duration": 0.0159,
      "velocity": 102,
      "chip": "ym2612"
    },
    {
      "channel": 4,
      "note": 35,
      "start": 66.7419,
      "duration": 2.3828,
      "velocity": 108,
      "chip": "ym2612"
    },
    {
      "channel": 5,
      "note": 69,
      "start": 66.7425,
      "duration": 0.148,
      "velocity": 59,
      "chip": "ym2612"
    },
    {
      "channel": 1,
      "note": 33,
      "start": 66.8885,
      "duration": 0.0826,
      "velocity": 117,
      "chip": "ym2612"
    },
    {
      "channel": 3,
      "note": 36,
      "start": 66.8898,
      "duration": 0.0162,
      "velocity": 102,
      "chip": "ym2612"
    },
    {
      "channel": 5,
      "note": 69,
      "start": 66.8916,
      "duration": 0.1478,
      "velocity": 63,
      "chip": "ym2612"
    },
    {
      "channel": 1,
      "note": 33,
      "start": 67.0374,
      "duration": 0.0826,
      "velocity": 117,
      "chip": "ym2612"
    },
    {
      "channel": 3,
      "note": 40,
      "start": 67.0386,
      "duration": 0.0163,
      "velocity": 102,
      "chip": "ym2612"
    },
    {
      "channel": 5,
      "note": 69,
      "start": 67.0405,
      "duration": 0.1478,
      "velocity": 59,
      "chip": "ym2612"
    },
    {
      "channel": 1,
      "note": 45,
      "start": 67.1864,
      "duration": 0.0826,
      "velocity": 117,
      "chip": "ym2612"
    },
    {
      "channel": 3,
      "note": 43,
      "start": 67.1876,
      "duration": 0.0163,
      "velocity": 102,
      "chip": "ym2612"
    },
    {
      "channel": 5,
      "note": 69,
      "start": 67.1888,
      "duration": 0.1485,
      "velocity": 59,
      "chip": "ym2612"
    },
    {
      "channel": 1,
      "note": 33,
      "start": 67.3354,
      "duration": 0.0826,
      "velocity": 117,
      "chip": "ym2612"
    },
    {
      "channel": 3,
      "note": 47,
      "start": 67.3366,
      "duration": 0.0163,
      "velocity": 102,
      "chip": "ym2612"
    },
    {
      "channel": 5,
      "note": 69,
      "start": 67.3384,
      "duration": 0.1479,
      "velocity": 63,
      "chip": "ym2612"
    },
    {
      "channel": 1,
      "note": 45,
      "start": 67.4844,
      "duration": 0.0826,
      "velocity": 117,
      "chip": "ym2612"
    },
    {
      "channel": 3,
      "note": 48,
      "start": 67.4856,
      "duration": 0.0162,
      "velocity": 102,
      "chip": "ym2612"
    },
    {
      "channel": 5,
      "note": 69,
      "start": 67.4874,
      "duration": 0.1479,
      "velocity": 59,
      "chip": "ym2612"
    },
    {
      "channel": 1,
      "note": 33,
      "start": 67.6334,
      "duration": 0.0826,
      "velocity": 117,
      "chip": "ym2612"
    },
    {
      "channel": 3,
      "note": 47,
      "start": 67.6346,
      "duration": 0.0162,
      "velocity": 102,
      "chip": "ym2612"
    },
    {
      "channel": 5,
      "note": 69,
      "start": 67.6358,
      "duration": 0.1484,
      "velocity": 59,
      "chip": "ym2612"
    },
    {
      "channel": 1,
      "note": 45,
      "start": 67.7823,
      "duration": 0.0826,
      "velocity": 117,
      "chip": "ym2612"
    },
    {
      "channel": 3,
      "note": 45,
      "start": 67.7836,
      "duration": 0.0162,
      "velocity": 102,
      "chip": "ym2612"
    },
    {
      "channel": 5,
      "note": 69,
      "start": 67.7853,
      "duration": 0.0648,
      "velocity": 63,
      "chip": "ym2612"
    },
    {
      "channel": 5,
      "note": 81,
      "start": 67.8512,
      "duration": 0.0821,
      "velocity": 59,
      "chip": "ym2612"
    },
    {
      "channel": 1,
      "note": 33,
      "start": 67.9313,
      "duration": 0.0826,
      "velocity": 117,
      "chip": "ym2612"
    },
    {
      "channel": 3,
      "note": 43,
      "start": 67.9325,
      "duration": 0.0162,
      "velocity": 102,
      "chip": "ym2612"
    },
    {
      "channel": 5,
      "note": 74,
      "start": 67.9337,
      "duration": 0.1485,
      "velocity": 59,
      "chip": "ym2612"
    },
    {
      "channel": 1,
      "note": 33,
      "start": 68.0802,
      "duration": 0.0826,
      "velocity": 117,
      "chip": "ym2612"
    },
    {
      "channel": 3,
      "note": 45,
      "start": 68.0815,
      "duration": 0.0163,
      "velocity": 102,
      "chip": "ym2612"
    },
    {
      "channel": 5,
      "note": 69,
      "start": 68.0832,
      "duration": 0.1479,
      "velocity": 63,
      "chip": "ym2612"
    },
    {
      "channel": 1,
      "note": 33,
      "start": 68.2292,
      "duration": 0.1485,
      "velocity": 117,
      "chip": "ym2612"
    },
    {
      "channel": 3,
      "note": 43,
      "start": 68.2304,
      "duration": 0.0163,
      "velocity": 102,
      "chip": "ym2612"
    },
    {
      "channel": 5,
      "note": 69,
      "start": 68.2322,
      "duration": 0.1479,
      "velocity": 59,
      "chip": "ym2612"
    },
    {
      "channel": 1,
      "note": 45,
      "start": 68.3782,
      "duration": 0.0826,
      "velocity": 117,
      "chip": "ym2612"
    },
    {
      "channel": 3,
      "note": 40,
      "start": 68.3794,
      "duration": 0.0163,
      "velocity": 102,
      "chip": "ym2612"
    },
    {
      "channel": 5,
      "note": 69,
      "start": 68.3806,
      "duration": 0.1485,
      "velocity": 59,
      "chip": "ym2612"
    },
    {
      "channel": 1,
      "note": 33,
      "start": 68.5272,
      "duration": 0.0826,
      "velocity": 117,
      "chip": "ym2612"
    },
    {
      "channel": 3,
      "note": 36,
      "start": 68.5284,
      "duration": 0.0162,
      "velocity": 102,
      "chip": "ym2612"
    },
    {
      "channel": 5,
      "note": 69,
      "start": 68.5302,
      "duration": 0.1478,
      "velocity": 63,
      "chip": "ym2612"
    },
    {
      "channel": 1,
      "note": 33,
      "start": 68.6762,
      "duration": 0.0826,
      "velocity": 117,
      "chip": "ym2612"
    },
    {
      "channel": 3,
      "note": 40,
      "start": 68.6774,
      "duration": 0.0162,
      "velocity": 102,
      "chip": "ym2612"
    },
    {
      "channel": 5,
      "note": 69,
      "start": 68.6792,
      "duration": 0.1479,
      "velocity": 59,
      "chip": "ym2612"
    },
    {
      "channel": 1,
      "note": 33,
      "start": 68.8251,
      "duration": 0.0826,
      "velocity": 117,
      "chip": "ym2612"
    },
    {
      "channel": 3,
      "note": 36,
      "start": 68.8264,
      "duration": 0.0162,
      "velocity": 102,
      "chip": "ym2612"
    },
    {
      "channel": 5,
      "note": 69,
      "start": 68.8275,
      "duration": 0.1485,
      "velocity": 59,
      "chip": "ym2612"
    },
    {
      "channel": 1,
      "note": 33,
      "start": 68.9741,
      "duration": 0.0827,
      "velocity": 117,
      "chip": "ym2612"
    },
    {
      "channel": 3,
      "note": 35,
      "start": 68.9754,
      "duration": 0.0163,
      "velocity": 102,
      "chip": "ym2612"
    },
    {
      "channel": 5,
      "note": 69,
      "start": 68.9771,
      "duration": 0.1483,
      "velocity": 63,
      "chip": "ym2612"
    },
    {
      "channel": 0,
      "note": 33,
      "start": 69.1226,
      "duration": 2.3172,
      "velocity": 108,
      "chip": "ym2612"
    },
    {
      "channel": 1,
      "note": 33,
      "start": 69.1233,
      "duration": 0.0824,
      "velocity": 117,
      "chip": "ym2612"
    },
    {
      "channel": 3,
      "note": 33,
      "start": 69.1245,
      "duration": 0.0161,
      "velocity": 102,
      "chip": "ym2612"
    },
    {
      "channel": 4,
      "note": 36,
      "start": 69.1252,
      "duration": 2.3168,
      "velocity": 108,
      "chip": "ym2612"
    },
    {
      "channel": 5,
      "note": 69,
      "start": 69.1264,
      "duration": 0.1476,
      "velocity": 59,
      "chip": "ym2612"
    },
    {
      "channel": 1,
      "note": 33,
      "start": 69.272,
      "duration": 0.0826,
      "velocity": 117,
      "chip": "ym2612"
    },
    {
      "channel": 3,
      "note": 36,
      "start": 69.2733,
      "duration": 0.0162,
      "velocity": 102,
      "chip": "ym2612"
    },
    {
      "channel": 5,
      "note": 69,
      "start": 69.2751,
      "duration": 0.1478,
      "velocity": 63,
      "chip": "ym2612"
    },
    {
      "channel": 1,
      "note": 33,
      "start": 69.421,
      "duration": 0.0826,
      "velocity": 117,
      "chip": "ym2612"
    },
    {
      "channel": 3,
      "note": 40,
      "start": 69.4222,
      "duration": 0.0163,
      "velocity": 102,
      "chip": "ym2612"
    },
    {
      "channel": 5,
      "note": 69,
      "start": 69.4241,
      "duration": 0.1478,
      "velocity": 59,
      "chip": "ym2612"
    },
    {
      "channel": 1,
      "note": 45,
      "start": 69.57,
      "duration": 0.0826,
      "velocity": 117,
      "chip": "ym2612"
    },
    {
      "channel": 3,
      "note": 43,
      "start": 69.5712,
      "duration": 0.0162,
      "velocity": 102,
      "chip": "ym2612"
    },
    {
      "channel": 5,
      "note": 69,
      "start": 69.5724,
      "duration": 0.1484,
      "velocity": 59,
      "chip": "ym2612"
    },
    {
      "channel": 1,
      "note": 33,
      "start": 69.719,
      "duration": 0.0826,
      "velocity": 117,
      "chip": "ym2612"
    },
    {
      "channel": 3,
      "note": 47,
      "start": 69.7202,
      "duration": 0.0162,
      "velocity": 102,
      "chip": "ym2612"
    },
    {
      "channel": 5,
      "note": 69,
      "start": 69.722,
      "duration": 0.1478,
      "velocity": 63,
      "chip": "ym2612"
    },
    {
      "channel": 1,
      "note": 45,
      "start": 69.8679,
      "duration": 0.0826,
      "velocity": 117,
      "chip": "ym2612"
    },
    {
      "channel": 3,
      "note": 48,
      "start": 69.8692,
      "duration": 0.0162,
      "velocity": 102,
      "chip": "ym2612"
    },
    {
      "channel": 5,
      "note": 69,
      "start": 69.8709,
      "duration": 0.1479,
      "velocity": 59,
      "chip": "ym2612"
    },
    {
      "channel": 1,
      "note": 33,
      "start": 70.0169,
      "duration": 0.0826,
      "velocity": 117,
      "chip": "ym2612"
    },
    {
      "channel": 3,
      "note": 47,
      "start": 70.0181,
      "duration": 0.0163,
      "velocity": 102,
      "chip": "ym2612"
    },
    {
      "channel": 5,
      "note": 69,
      "start": 70.0193,
      "duration": 0.1485,
      "velocity": 59,
      "chip": "ym2612"
    },
    {
      "channel": 1,
      "note": 45,
      "start": 70.1659,
      "duration": 0.0826,
      "velocity": 117,
      "chip": "ym2612"
    },
    {
      "channel": 3,
      "note": 45,
      "start": 70.1671,
      "duration": 0.0163,
      "velocity": 102,
      "chip": "ym2612"
    },
    {
      "channel": 5,
      "note": 69,
      "start": 70.1689,
      "duration": 0.148,
      "velocity": 63,
      "chip": "ym2612"
    },
    {
      "channel": 1,
      "note": 33,
      "start": 70.3149,
      "duration": 0.0826,
      "velocity": 117,
      "chip": "ym2612"
    },
    {
      "channel": 2,
      "note": 33,
      "start": 70.3156,
      "duration": 0.0655,
      "velocity": 108,
      "chip": "ym2612"
    },
    {
      "channel": 3,
      "note": 43,
      "start": 70.3163,
      "duration": 0.0161,
      "velocity": 102,
      "chip": "ym2612"
    },
    {
      "channel": 5,
      "note": 69,
      "start": 70.318,
      "duration": 0.1478,
      "velocity": 59,
      "chip": "ym2612"
    },
    {
      "channel": 2,
      "note": 35,
      "start": 70.3816,
      "duration": 0.0823,
      "velocity": 108,
      "chip": "ym2612"
    },
    {
      "channel": 1,
      "note": 33,
      "start": 70.4638,
      "duration": 0.0826,
      "velocity": 117,
      "chip": "ym2612"
    },
    {
      "channel": 2,
      "note": 36,
      "start": 70.4645,
      "duration": 0.0655,
      "velocity": 108,
      "chip": "ym2612"
    },
    {
      "channel": 3,
      "note": 45,
      "start": 70.4652,
      "duration": 0.0161,
      "velocity": 102,
      "chip": "ym2612"
    },
    {
      "channel": 5,
      "note": 69,
      "start": 70.467,
      "duration": 0.1478,
      "velocity": 63,
      "chip": "ym2612"
    },
    {
      "channel": 2,
      "note": 35,
      "start": 70.5306,
      "duration": 0.0824,
      "velocity": 108,
      "chip": "ym2612"
    },
    {
      "channel": 1,
      "note": 33,
      "start": 70.6128,
      "duration": 0.1485,
      "velocity": 117,
      "chip": "ym2612"
    },
    {
      "channel": 2,
      "note": 36,
      "start": 70.6135,
      "duration": 0.0655,
      "velocity": 107,
      "chip": "ym2612"
    },
    {
      "channel": 3,
      "note": 43,
      "start": 70.6142,
      "duration": 0.0161,
      "velocity": 102,
      "chip": "ym2612"
    },
    {
      "channel": 5,
      "note": 69,
      "start": 70.6159,
      "duration": 0.148,
      "velocity": 59,
      "chip": "ym2612"
    },
    {
      "channel": 2,
      "note": 38,
      "start": 70.6795,
      "duration": 0.0824,
      "velocity": 107,
      "chip": "ym2612"
    },
    {
      "channel": 1,
      "note": 45,
      "start": 70.7618,
      "duration": 0.0826,
      "velocity": 117,
      "chip": "ym2612"
    },
    {
      "channel": 2,
      "note": 36,
      "start": 70.7625,
      "duration": 0.0655,
      "velocity": 107,
      "chip": "ym2612"
    },
    {
      "channel": 3,
      "note": 40,
      "start": 70.7632,
      "duration": 0.016,
      "velocity": 102,
      "chip": "ym2612"
    },
    {
      "channel": 5,
      "note": 69,
      "start": 70.7643,
      "duration": 0.1484,
      "velocity": 59,
      "chip": "ym2612"
    },
    {
      "channel": 2,
      "note": 38,
      "start": 70.8285,
      "duration": 0.0824,
      "velocity": 107,
      "chip": "ym2612"
    },
    {
      "channel": 1,
      "note": 33,
      "start": 70.9107,
      "duration": 0.0826,
      "velocity": 117,
      "chip": "ym2612"
    },
    {
      "channel": 2,
      "note": 40,
      "start": 70.9114,
      "duration": 0.0655,
      "velocity": 106,
      "chip": "ym2612"
    },
    {
      "channel": 3,
      "note": 36,
      "start": 70.9121,
      "duration": 0.0161,
      "velocity": 102,
      "chip": "ym2612"
    },
    {
      "channel": 5,
      "note": 69,
      "start": 70.9139,
      "duration": 0.1478,
      "velocity": 63,
      "chip": "ym2612"
    },
    {
      "channel": 2,
      "note": 38,
      "start": 70.9775,
      "duration": 0.0824,
      "velocity": 106,
      "chip": "ym2612"
    },
    {
      "channel": 1,
      "note": 33,
      "start": 71.0597,
      "duration": 0.0826,
      "velocity": 117,
      "chip": "ym2612"
    },
    {
      "channel": 2,
      "note": 40,
      "start": 71.0604,
      "duration": 0.0655,
      "velocity": 106,
      "chip": "ym2612"
    },
    {
      "channel": 3,
      "note": 40,
      "start": 71.0611,
      "duration": 0.0161,
      "velocity": 102,
      "chip": "ym2612"
    },
    {
      "channel": 5,
      "note": 69,
      "start": 71.0629,
      "duration": 0.1479,
      "velocity": 59,
      "chip": "ym2612"
    },
    {
      "channel": 2,
      "note": 41,
      "start": 71.1265,
      "duration": 0.0823,
      "velocity": 106,
      "chip": "ym2612"
    },
    {
      "channel": 1,
      "note": 33,
      "start": 71.2087,
      "duration": 0.0826,
      "velocity": 117,
      "chip": "ym2612"
    },
    {
      "channel": 2,
      "note": 40,
      "start": 71.2094,
      "duration": 0.0655,
      "velocity": 107,
      "chip": "ym2612"
    },
    {
      "channel": 3,
      "note": 36,
      "start": 71.2101,
      "duration": 0.0161,
      "velocity": 102,
      "chip": "ym2612"
    },
    {
      "channel": 5,
      "note": 69,
      "start": 71.2113,
      "duration": 0.1485,
      "velocity": 59,
      "chip": "ym2612"
    },
    {
      "channel": 2,
      "note": 41,
      "start": 71.2755,
      "duration": 0.0823,
      "velocity": 107,
      "chip": "ym2612"
    },
    {
      "channel": 1,
      "note": 33,
      "start": 71.3577,
      "duration": 0.0827,
      "velocity": 117,
      "chip": "ym2612"
    },
    {
      "channel": 2,
      "note": 43,
      "start": 71.3584,
      "duration": 0.0656,
      "velocity": 107,
      "chip": "ym2612"
    },
    {
      "channel": 3,
      "note": 35,
      "start": 71.3591,
      "duration": 0.0161,
      "velocity": 102,
      "chip": "ym2612"
    },
    {
      "channel": 5,
      "note": 69,
      "start": 71.3603,
      "duration": 0.1506,
      "velocity": 59,
      "chip": "ym2612"
    },
    {
      "channel": 2,
      "note": 40,
      "start": 71.4245,
      "duration": 0.0832,
      "velocity": 107,
      "chip": "ym2612"
    },
    {
      "channel": 0,
      "note": 45,
      "start": 71.5068,
      "duration": 0.1478,
      "velocity": 95,
      "chip": "ym2612"
    },
    {
      "channel": 1,
      "note": 33,
      "start": 71.5075,
      "duration": 0.1479,
      "velocity": 117,
      "chip": "ym2612"
    },
    {
      "channel": 2,
      "note": 33,
      "start": 71.5082,
      "duration": 2.3824,
      "velocity": 108,
      "chip": "ym2612"
    },
    {
      "channel": 3,
      "note": 53,
      "start": 71.5094,
      "duration": 0.1637,
      "velocity": 1,
      "chip": "ym2612"
    },
    {
      "channel": 4,
      "note": 7,
      "start": 71.5107,
      "duration": 2.3147,
      "velocity": 1,
      "chip": "ym2612"
    },
    {
      "channel": 5,
      "note": 7,
      "start": 71.5119,
      "duration": 2.3141,
      "velocity": 1,
      "chip": "ym2612"
    },
    {
      "channel": 0,
      "note": 40,
      "start": 71.6552,
      "duration": 0.1484,
      "velocity": 95,
      "chip": "ym2612"
    },
    {
      "channel": 1,
      "note": 45,
      "start": 71.6558,
      "duration": 0.1485,
      "velocity": 117,
      "chip": "ym2612"
    },
    {
      "channel": 0,
      "note": 43,
      "start": 71.8042,
      "duration": 0.1483,
      "velocity": 94,
      "chip": "ym2612"
    },
    {
      "channel": 1,
      "note": 33,
      "start": 71.8048,
      "duration": 0.1485,
      "velocity": 117,
      "chip": "ym2612"
    },
    {
      "channel": 0,
      "note": 45,
      "start": 71.9532,
      "duration": 0.1483,
      "velocity": 94,
      "chip": "ym2612"
    },
    {
      "channel": 1,
      "note": 33,
      "start": 71.9538,
      "duration": 0.1485,
      "velocity": 117,
      "chip": "ym2612"
    },
    {
      "channel": 3,
      "note": 62,
      "start": 71.9555,
      "duration": 0.1479,
      "velocity": 59,
      "chip": "ym2612"
    },
    {
      "channel": 0,
      "note": 40,
      "start": 72.1021,
      "duration": 0.1483,
      "velocity": 93,
      "chip": "ym2612"
    },
    {
      "channel": 1,
      "note": 45,
      "start": 72.1028,
      "duration": 0.1485,
      "velocity": 117,
      "chip": "ym2612"
    },
    {
      "channel": 3,
      "note": 53,
      "start": 72.1045,
      "duration": 0.1645,
      "velocity": 1,
      "chip": "ym2612"
    },
    {
      "channel": 0,
      "note": 43,
      "start": 72.251,
      "duration": 0.1484,
      "velocity": 93,
      "chip": "ym2612"
    },
    {
      "channel": 1,
      "note": 33,
      "start": 72.2517,
      "duration": 0.1485,
      "velocity": 117,
      "chip": "ym2612"
    },
    {
      "channel": 0,
      "note": 45,
      "start": 72.4,
      "duration": 0.1484,
      "velocity": 92,
      "chip": "ym2612"
    },
    {
      "channel": 1,
      "note": 33,
      "start": 72.4007,
      "duration": 0.1485,
      "velocity": 117,
      "chip": "ym2612"
    },
    {
      "channel": 3,
      "note": 22,
      "start": 72.4024,
      "duration": 0.1479,
      "velocity": 127,
      "chip": "ym2612"
    },
    {
      "channel": 0,
      "note": 40,
      "start": 72.549,
      "duration": 0.1484,
      "velocity": 92,
      "chip": "ym2612"
    },
    {
      "channel": 1,
      "note": 45,
      "start": 72.5496,
      "duration": 0.1485,
      "velocity": 117,
      "chip": "ym2612"
    },
    {
      "channel": 3,
      "note": 22,
      "start": 72.5508,
      "duration": 0.1485,
      "velocity": 127,
      "chip": "ym2612"
    },
    {
      "channel": 0,
      "note": 45,
      "start": 72.698,
      "duration": 0.1484,
      "velocity": 91,
      "chip": "ym2612"
    },
    {
      "channel": 1,
      "note": 33,
      "start": 72.6986,
      "duration": 0.1485,
      "velocity": 117,
      "chip": "ym2612"
    },
    {
      "channel": 3,
      "note": 53,
      "start": 72.7004,
      "duration": 0.1646,
      "velocity": 1,
      "chip": "ym2612"
    },
    {
      "channel": 0,
      "note": 40,
      "start": 72.847,
      "duration": 0.1483,
      "velocity": 91,
      "chip": "ym2612"
    },
    {
      "channel": 1,
      "note": 45,
      "start": 72.8476,
      "duration": 0.1485,
      "velocity": 117,
      "chip": "ym2612"
    },
    {
      "channel": 0,
      "note": 43,
      "start": 72.996,
      "duration": 0.1483,
      "velocity": 90,
      "chip": "ym2612"
    },
    {
      "channel": 1,
      "note": 33,
      "start": 72.9966,
      "duration": 0.1485,
      "velocity": 117,
      "chip": "ym2612"
    },
    {
      "channel": 0,
      "note": 45,
      "start": 73.1449,
      "duration": 0.1484,
      "velocity": 90,
      "chip": "ym2612"
    },
    {
      "channel": 1,
      "note": 33,
      "start": 73.1456,
      "duration": 0.1485,
      "velocity": 117,
      "chip": "ym2612"
    },
    {
      "channel": 0,
      "note": 40,
      "start": 73.2939,
      "duration": 0.1484,
      "velocity": 89,
      "chip": "ym2612"
    },
    {
      "channel": 1,
      "note": 45,
      "start": 73.2945,
      "duration": 0.1485,
      "velocity": 117,
      "chip": "ym2612"
    },
    {
      "channel": 3,
      "note": 53,
      "start": 73.2958,
      "duration": 0.1651,
      "velocity": 1,
      "chip": "ym2612"
    },
    {
      "channel": 0,
      "note": 47,
      "start": 73.4428,
      "duration": 0.1484,
      "velocity": 89,
      "chip": "ym2612"
    },
    {
      "channel": 1,
      "note": 33,
      "start": 73.4435,
      "duration": 0.1485,
      "velocity": 117,
      "chip": "ym2612"
    },
    {
      "channel": 0,
      "note": 48,
      "start": 73.5918,
      "duration": 0.1484,
      "velocity": 88,
      "chip": "ym2612"
    },
    {
      "channel": 1,
      "note": 45,
      "start": 73.5924,
      "duration": 0.1485,
      "velocity": 117,
      "chip": "ym2612"
    },
    {
      "channel": 0,
      "note": 47,
      "start": 73.7408,
      "duration": 0.1484,
      "velocity": 88,
      "chip": "ym2612"
    },
    {
      "channel": 1,
      "note": 45,
      "start": 73.7414,
      "duration": 0.1485,
      "velocity": 117,
      "chip": "ym2612"
    },
    {
      "channel": 0,
      "note": 45,
      "start": 73.8898,
      "duration": 0.1483,
      "velocity": 87,
      "chip": "ym2612"
    },
    {
      "channel": 1,
      "note": 33,
      "start": 73.8905,
      "duration": 0.1484,
      "velocity": 117,
      "chip": "ym2612"
    },
    {
      "channel": 2,
      "note": 33,
      "start": 73.8912,
      "duration": 2.383,
      "velocity": 108,
      "chip": "ym2612"
    },
    {
      "channel": 3,
      "note": 53,
      "start": 73.8919,
      "duration": 0.1649,
      "velocity": 1,
      "chip": "ym2612"
    },
    {
      "channel": 4,
      "note": 7,
      "start": 73.8925,
      "duration": 2.3164,
      "velocity": 1,
      "chip": "ym2612"
    },
    {
      "channel": 5,
      "note": 7,
      "start": 73.8932,
      "duration": 2.3163,
      "velocity": 1,
      "chip": "ym2612"
    },
    {
      "channel": 0,
      "note": 40,
      "start": 74.0388,
      "duration": 0.1483,
      "velocity": 87,
      "chip": "ym2612"
    },
    {
      "channel": 1,
      "note": 45,
      "start": 74.0394,
      "duration": 0.1485,
      "velocity": 117,
      "chip": "ym2612"
    },
    {
      "channel": 0,
      "note": 43,
      "start": 74.1877,
      "duration": 0.1484,
      "velocity": 88,
      "chip": "ym2612"
    },
    {
      "channel": 1,
      "note": 33,
      "start": 74.1884,
      "duration": 0.1485,
      "velocity": 117,
      "chip": "ym2612"
    },
    {
      "channel": 3,
      "note": 62,
      "start": 74.1902,
      "duration": 0.1478,
      "velocity": 59,
      "chip": "ym2612"
    },
    {
      "channel": 0,
      "note": 45,
      "start": 74.3367,
      "duration": 0.1484,
      "velocity": 88,
      "chip": "ym2612"
    },
    {
      "channel": 1,
      "note": 33,
      "start": 74.3373,
      "duration": 0.1485,
      "velocity": 117,
      "chip": "ym2612"
    },
    {
      "channel": 3,
      "note": 62,
      "start": 74.3385,
      "duration": 0.1485,
      "velocity": 59,
      "chip": "ym2612"
    },
    {
      "channel": 0,
      "note": 40,
      "start": 74.4856,
      "duration": 0.1484,
      "velocity": 89,
      "chip": "ym2612"
    },
    {
      "channel": 1,
      "note": 45,
      "start": 74.4863,
      "duration": 0.1485,
      "velocity": 117,
      "chip": "ym2612"
    },
    {
      "channel": 3,
      "note": 53,
      "start": 74.4881,
      "duration": 0.1645,
      "velocity": 1,
      "chip": "ym2612"
    },
    {
      "channel": 0,
      "note": 43,
      "start": 74.6346,
      "duration": 0.1484,
      "velocity": 89,
      "chip": "ym2612"
    },
    {
      "channel": 1,
      "note": 33,
      "start": 74.6353,
      "duration": 0.1485,
      "velocity": 117,
      "chip": "ym2612"
    },
    {
      "channel": 0,
      "note": 45,
      "start": 74.7836,
      "duration": 0.1483,
      "velocity": 90,
      "chip": "ym2612"
    },
    {
      "channel": 1,
      "note": 45,
      "start": 74.7842,
      "duration": 0.1485,
      "velocity": 117,
      "chip": "ym2612"
    },
    {
      "channel": 3,
      "note": 22,
      "start": 74.786,
      "duration": 0.148,
      "velocity": 127,
      "chip": "ym2612"
    },
    {
      "channel": 0,
      "note": 40,
      "start": 74.9326,
      "duration": 0.1483,
      "velocity": 90,
      "chip": "ym2612"
    },
    {
      "channel": 1,
      "note": 33,
      "start": 74.9332,
      "duration": 0.1485,
      "velocity": 117,
      "chip": "ym2612"
    },
    {
      "channel": 3,
      "note": 22,
      "start": 74.9344,
      "duration": 0.1485,
      "velocity": 127,
      "chip": "ym2612"
    },
    {
      "channel": 0,
      "note": 43,
      "start": 75.0816,
      "duration": 0.1483,
      "velocity": 91,
      "chip": "ym2612"
    },
    {
      "channel": 1,
      "note": 33,
      "start": 75.0822,
      "duration": 0.1485,
      "velocity": 117,
      "chip": "ym2612"
    },
    {
      "channel": 3,
      "note": 53,
      "start": 75.084,
      "duration": 0.1645,
      "velocity": 1,
      "chip": "ym2612"
    },
    {
      "channel": 0,
      "note": 45,
      "start": 75.2305,
      "duration": 0.1484,
      "velocity": 91,
      "chip": "ym2612"
    },
    {
      "channel": 1,
      "note": 45,
      "start": 75.2312,
      "duration": 0.1485,
      "velocity": 117,
      "chip": "ym2612"
    },
    {
      "channel": 0,
      "note": 47,
      "start": 75.3795,
      "duration": 0.1484,
      "velocity": 92,
      "chip": "ym2612"
    },
    {
      "channel": 1,
      "note": 33,
      "start": 75.3801,
      "duration": 0.1485,
      "velocity": 117,
      "chip": "ym2612"
    },
    {
      "channel": 0,
      "note": 48,
      "start": 75.5285,
      "duration": 0.1484,
      "velocity": 92,
      "chip": "ym2612"
    },
    {
      "channel": 1,
      "note": 45,
      "start": 75.5291,
      "duration": 0.1485,
      "velocity": 117,
      "chip": "ym2612"
    },
    {
      "channel": 0,
      "note": 50,
      "start": 75.6774,
      "duration": 0.1483,
      "velocity": 93,
      "chip": "ym2612"
    },
    {
      "channel": 1,
      "note": 33,
      "start": 75.6781,
      "duration": 0.1485,
      "velocity": 117,
      "chip": "ym2612"
    },
    {
      "channel": 3,
      "note": 53,
      "start": 75.6793,
      "duration": 0.1651,
      "velocity": 1,
      "chip": "ym2612"
    },
    {
      "channel": 0,
      "note": 48,
      "start": 75.8264,
      "duration": 0.1483,
      "velocity": 93,
      "chip": "ym2612"
    },
    {
      "channel": 1,
      "note": 33,
      "start": 75.8271,
      "duration": 0.1485,
      "velocity": 117,
      "chip": "ym2612"
    },
    {
      "channel": 0,
      "note": 47,
      "start": 75.9754,
      "duration": 0.1483,
      "velocity": 94,
      "chip": "ym2612"
    },
    {
      "channel": 1,
      "note": 45,
      "start": 75.9761,
      "duration": 0.1485,
      "velocity": 117,
      "chip": "ym2612"
    },
    {
      "channel": 3,
      "note": 22,
      "start": 75.9778,
      "duration": 0.1479,
      "velocity": 127,
      "chip": "ym2612"
    },
    {
      "channel": 0,
      "note": 40,
      "start": 76.1243,
      "duration": 0.1485,
      "velocity": 94,
      "chip": "ym2612"
    },
    {
      "channel": 1,
      "note": 33,
      "start": 76.125,
      "duration": 0.1485,
      "velocity": 117,
      "chip": "ym2612"
    },
    {
      "channel": 3,
      "note": 22,
      "start": 76.1262,
      "duration": 0.1487,
      "velocity": 127,
      "chip": "ym2612"
    },
    {
      "channel": 0,
      "note": 45,
      "start": 76.2734,
      "duration": 0.1483,
      "velocity": 95,
      "chip": "ym2612"
    },
    {
      "channel": 1,
      "note": 33,
      "start": 76.274,
      "duration": 0.1485,
      "velocity": 117,
      "chip": "ym2612"
    },
    {
      "channel": 2,
      "note": 33,
      "start": 76.2748,
      "duration": 2.383,
      "velocity": 108,
      "chip": "ym2612"
    },
    {
      "channel": 3,
      "note": 53,
      "start": 76.2761,
      "duration": 0.1643,
      "velocity": 1,
      "chip": "ym2612"
    },
    {
      "channel": 4,
      "note": 7,
      "start": 76.2767,
      "duration": 2.3159,
      "velocity": 1,
      "chip": "ym2612"
    },
    {
      "channel": 5,
      "note": 7,
      "start": 76.2773,
      "duration": 2.3158,
      "velocity": 1,
      "chip": "ym2612"
    },
    {
      "channel": 0,
      "note": 40,
      "start": 76.4223,
      "duration": 0.1484,
      "velocity": 95,
      "chip": "ym2612"
    },
    {
      "channel": 1,
      "note": 45,
      "start": 76.423,
      "duration": 0.1485,
      "velocity": 117,
      "chip": "ym2612"
    },
    {
      "channel": 0,
      "note": 43,
      "start": 76.5713,
      "duration": 0.1484,
      "velocity": 94,
      "chip": "ym2612"
    },
    {
      "channel": 1,
      "note": 33,
      "start": 76.5719,
      "duration": 0.1485,
      "velocity": 117,
      "chip": "ym2612"
    },
    {
      "channel": 0,
      "note": 45,
      "start": 76.7202,
      "duration": 0.1483,
      "velocity": 94,
      "chip": "ym2612"
    },
    {
      "channel": 1,
      "note": 33,
      "start": 76.7209,
      "duration": 0.1485,
      "velocity": 117,
      "chip": "ym2612"
    },
    {
      "channel": 3,
      "note": 62,
      "start": 76.7227,
      "duration": 0.1478,
      "velocity": 59,
      "chip": "ym2612"
    },
    {
      "channel": 0,
      "note": 40,
      "start": 76.8692,
      "duration": 0.1483,
      "velocity": 93,
      "chip": "ym2612"
    },
    {
      "channel": 1,
      "note": 45,
      "start": 76.8699,
      "duration": 0.1485,
      "velocity": 117,
      "chip": "ym2612"
    },
    {
      "channel": 3,
      "note": 53,
      "start": 76.8717,
      "duration": 0.1645,
      "velocity": 1,
      "chip": "ym2612"
    },
    {
      "channel": 0,
      "note": 43,
      "start": 77.0182,
      "duration": 0.1483,
      "velocity": 93,
      "chip": "ym2612"
    },
    {
      "channel": 1,
      "note": 33,
      "start": 77.0189,
      "duration": 0.1485,
      "velocity": 117,
      "chip": "ym2612"
    },
    {
      "channel": 0,
      "note": 45,
      "start": 77.1671,
      "duration": 0.1484,
      "velocity": 92,
      "chip": "ym2612"
    },
    {
      "channel": 1,
      "note": 33,
      "start": 77.1678,
      "duration": 0.1485,
      "velocity": 117,
      "chip": "ym2612"
    },
    {
      "channel": 3,
      "note": 22,
      "start": 77.1695,
      "duration": 0.1479,
      "velocity": 127,
      "chip": "ym2612"
    },
    {
      "channel": 0,
      "note": 40,
      "start": 77.3161,
      "duration": 0.1484,
      "velocity": 92,
      "chip": "ym2612"
    },
    {
      "channel": 1,
      "note": 45,
      "start": 77.3168,
      "duration": 0.1485,
      "velocity": 117,
      "chip": "ym2612"
    },
    {
      "channel": 3,
      "note": 22,
      "start": 77.3179,
      "duration": 0.1485,
      "velocity": 127,
      "chip": "ym2612"
    },
    {
      "channel": 0,
      "note": 45,
      "start": 77.4651,
      "duration": 0.1484,
      "velocity": 91,
      "chip": "ym2612"
    },
    {
      "channel": 1,
      "note": 33,
      "start": 77.4657,
      "duration": 0.1485,
      "velocity": 117,
      "chip": "ym2612"
    },
    {
      "channel": 3,
      "note": 53,
      "start": 77.4676,
      "duration": 0.1645,
      "velocity": 1,
      "chip": "ym2612"
    },
    {
      "channel": 0,
      "note": 40,
      "start": 77.6141,
      "duration": 0.1484,
      "velocity": 91,
      "chip": "ym2612"
    },
    {
      "channel": 1,
      "note": 45,
      "start": 77.6147,
      "duration": 0.1485,
      "velocity": 117,
      "chip": "ym2612"
    },
    {
      "channel": 0,
      "note": 43,
      "start": 77.7631,
      "duration": 0.1483,
      "velocity": 90,
      "chip": "ym2612"
    },
    {
      "channel": 1,
      "note": 33,
      "start": 77.7637,
      "duration": 0.1485,
      "velocity": 117,
      "chip": "ym2612"
    },
    {
      "channel": 0,
      "note": 45,
      "start": 77.912,
      "duration": 0.1483,
      "velocity": 90,
      "chip": "ym2612"
    },
    {
      "channel": 1,
      "note": 33,
      "start": 77.9127,
      "duration": 0.1485,
      "velocity": 117,
      "chip": "ym2612"
    },
    {
      "channel": 0,
      "note": 40,
      "start": 78.061,
      "duration": 0.1484,
      "velocity": 89,
      "chip": "ym2612"
    },
    {
      "channel": 1,
      "note": 45,
      "start": 78.0617,
      "duration": 0.1485,
      "velocity": 117,
      "chip": "ym2612"
    },
    {
      "channel": 3,
      "note": 53,
      "start": 78.0629,
      "duration": 0.1651,
      "velocity": 1,
      "chip": "ym2612"
    },
    {
      "channel": 0,
      "note": 47,
      "start": 78.21,
      "duration": 0.1484,
      "velocity": 89,
      "chip": "ym2612"
    },
    {
      "channel": 1,
      "note": 33,
      "start": 78.2107,
      "duration": 0.1485,
      "velocity": 117,
      "chip": "ym2612"
    },
    {
      "channel": 0,
      "note": 48,
      "start": 78.3589,
      "duration": 0.1484,
      "velocity": 88,
      "chip": "ym2612"
    },
    {
      "channel": 1,
      "note": 45,
      "start": 78.3596,
      "duration": 0.1485,
      "velocity": 117,
      "chip": "ym2612"
    },
    {
      "channel": 0,
      "note": 47,
      "start": 78.5079,
      "duration": 0.1484,
      "velocity": 88,
      "chip": "ym2612"
    },
    {
      "channel": 1,
      "note": 45,
      "start": 78.5085,
      "duration": 0.1485,
      "velocity": 117,
      "chip": "ym2612"
    },
    {
      "channel": 0,
      "note": 45,
      "start": 78.657,
      "duration": 0.1483,
      "velocity": 87,
      "chip": "ym2612"
    },
    {
      "channel": 1,
      "note": 33,
      "start": 78.6576,
      "duration": 0.1485,
      "velocity": 117,
      "chip": "ym2612"
    },
    {
      "channel": 2,
      "note": 36,
      "start": 78.6583,
      "duration": 2.3829,
      "velocity": 108,
      "chip": "ym2612"
    },
    {
      "channel": 3,
      "note": 53,
      "start": 78.659,
      "duration": 0.1649,
      "velocity": 1,
      "chip": "ym2612"
    },
    {
      "channel": 4,
      "note": 7,
      "start": 78.6596,
      "duration": 2.3165,
      "velocity": 1,
      "chip": "ym2612"
    },
    {
      "channel": 5,
      "note": 7,
      "start": 78.6603,
      "duration": 2.3163,
      "velocity": 1,
      "chip": "ym2612"
    },
    {
      "channel": 0,
      "note": 40,
      "start": 78.8059,
      "duration": 0.1483,
      "velocity": 87,
      "chip": "ym2612"
    },
    {
      "channel": 1,
      "note": 45,
      "start": 78.8066,
      "duration": 0.1484,
      "velocity": 117,
      "chip": "ym2612"
    },
    {
      "channel": 0,
      "note": 43,
      "start": 78.9548,
      "duration": 0.1484,
      "velocity": 88,
      "chip": "ym2612"
    },
    {
      "channel": 1,
      "note": 33,
      "start": 78.9555,
      "duration": 0.1485,
      "velocity": 117,
      "chip": "ym2612"
    },
    {
      "channel": 3,
      "note": 62,
      "start": 78.9573,
      "duration": 0.1478,
      "velocity": 59,
      "chip": "ym2612"
    },
    {
      "channel": 0,
      "note": 45,
      "start": 79.1038,
      "duration": 0.1484,
      "velocity": 88,
      "chip": "ym2612"
    },
    {
      "channel": 1,
      "note": 33,
      "start": 79.1045,
      "duration": 0.1485,
      "velocity": 117,
      "chip": "ym2612"
    },
    {
      "channel": 3,
      "note": 62,
      "start": 79.1056,
      "duration": 0.1485,
      "velocity": 59,
      "chip": "ym2612"
    },
    {
      "channel": 0,
      "note": 40,
      "start": 79.2528,
      "duration": 0.1484,
      "velocity": 89,
      "chip": "ym2612"
    },
    {
      "channel": 1,
      "note": 45,
      "start": 79.2534,
      "duration": 0.1485,
      "velocity": 117,
      "chip": "ym2612"
    },
    {
      "channel": 3,
      "note": 53,
      "start": 79.2552,
      "duration": 0.1645,
      "velocity": 1,
      "chip": "ym2612"
    },
    {
      "channel": 0,
      "note": 43,
      "start": 79.4017,
      "duration": 0.1484,
      "velocity": 89,
      "chip": "ym2612"
    },
    {
      "channel": 1,
      "note": 33,
      "start": 79.4024,
      "duration": 0.1485,
      "velocity": 117,
      "chip": "ym2612"
    },
    {
      "channel": 0,
      "note": 45,
      "start": 79.5507,
      "duration": 0.1484,
      "velocity": 90,
      "chip": "ym2612"
    },
    {
      "channel": 1,
      "note": 45,
      "start": 79.5514,
      "duration": 0.1485,
      "velocity": 117,
      "chip": "ym2612"
    },
    {
      "channel": 3,
      "note": 22,
      "start": 79.5531,
      "duration": 0.148,
      "velocity": 127,
      "chip": "ym2612"
    },
    {
      "channel": 0,
      "note": 40,
      "start": 79.6997,
      "duration": 0.1483,
      "velocity": 90,
      "chip": "ym2612"
    },
    {
      "channel": 1,
      "note": 33,
      "start": 79.7003,
      "duration": 0.1485,
      "velocity": 117,
      "chip": "ym2612"
    },
    {
      "channel": 3,
      "note": 22,
      "start": 79.7015,
      "duration": 0.1485,
      "velocity": 127,
      "chip": "ym2612"
    },
    {
      "channel": 0,
      "note": 43,
      "start": 79.8487,
      "duration": 0.1483,
      "velocity": 91,
      "chip": "ym2612"
    },
    {
      "channel": 1,
      "note": 33,
      "start": 79.8493,
      "duration": 0.1485,
      "velocity": 117,
      "chip": "ym2612"
    },
    {
      "channel": 3,
      "note": 53,
      "start": 79.8511,
      "duration": 0.1645,
      "velocity": 1,
      "chip": "ym2612"
    },
    {
      "channel": 0,
      "note": 45,
      "start": 79.9976,
      "duration": 0.1484,
      "velocity": 91,
      "chip": "ym2612"
    },
    {
      "channel": 1,
      "note": 45,
      "start": 79.9983,
      "duration": 0.1485,
      "velocity": 117,
      "chip": "ym2612"
    },
    {
      "channel": 0,
      "note": 47,
      "start": 80.1466,
      "duration": 0.1484,
      "velocity": 92,
      "chip": "ym2612"
    },
    {
      "channel": 1,
      "note": 33,
      "start": 80.1473,
      "duration": 0.1485,
      "velocity": 117,
      "chip": "ym2612"
    },
    {
      "channel": 0,
      "note": 48,
      "start": 80.2956,
      "duration": 0.1484,
      "velocity": 92,
      "chip": "ym2612"
    },
    {
      "channel": 1,
      "note": 45,
      "start": 80.2962,
      "duration": 0.1485,
      "velocity": 117,
      "chip": "ym2612"
    },
    {
      "channel": 0,
      "note": 50,
      "start": 80.4446,
      "duration": 0.1484,
      "velocity": 93,
      "chip": "ym2612"
    },
    {
      "channel": 1,
      "note": 33,
      "start": 80.4452,
      "duration": 0.1485,
      "velocity": 117,
      "chip": "ym2612"
    },
    {
      "channel": 3,
      "note": 53,
      "start": 80.4465,
      "duration": 0.1651,
      "velocity": 1,
      "chip": "ym2612"
    },
    {
      "channel": 0,
      "note": 48,
      "start": 80.5935,
      "duration": 0.1483,
      "velocity": 93,
      "chip": "ym2612"
    },
    {
      "channel": 1,
      "note": 33,
      "start": 80.5942,
      "duration": 0.1485,
      "velocity": 117,
      "chip": "ym2612"
    },
    {
      "channel": 0,
      "note": 47,
      "start": 80.7425,
      "duration": 0.1483,
      "velocity": 94,
      "chip": "ym2612"
    },
    {
      "channel": 1,
      "note": 45,
      "start": 80.7432,
      "duration": 0.1485,
      "velocity": 117,
      "chip": "ym2612"
    },
    {
      "channel": 3,
      "note": 22,
      "start": 80.7449,
      "duration": 0.148,
      "velocity": 127,
      "chip": "ym2612"
    },
    {
      "channel": 0,
      "note": 40,
      "start": 80.8915,
      "duration": 0.1483,
      "velocity": 94,
      "chip": "ym2612"
    },
    {
      "channel": 1,
      "note": 33,
      "start": 80.8921,
      "duration": 0.1485,
      "velocity": 117,
      "chip": "ym2612"
    },
    {
      "channel": 3,
      "note": 22,
      "start": 80.8933,
      "duration": 0.1487,
      "velocity": 127,
      "chip": "ym2612"
    },
    {
      "channel": 0,
      "note": 45,
      "start": 81.0404,
      "duration": 0.1484,
      "velocity": 95,
      "chip": "ym2612"
    },
    {
      "channel": 1,
      "note": 33,
      "start": 81.0411,
      "duration": 0.1485,
      "velocity": 117,
      "chip": "ym2612"
    },
    {
      "channel": 2,
      "note": 36,
      "start": 81.0418,
      "duration": 2.383,
      "velocity": 108,
      "chip": "ym2612"
    },
    {
      "channel": 3,
      "note": 53,
      "start": 81.0431,
      "duration": 0.1644,
      "velocity": 1,
      "chip": "ym2612"
    },
    {
      "channel": 4,
      "note": 7,
      "start": 81.0438,
      "duration": 2.3159,
      "velocity": 1,
      "chip": "ym2612"
    },
    {
      "channel": 5,
      "note": 7,
      "start": 81.0444,
      "duration": 2.3158,
      "velocity": 1,
      "chip": "ym2612"
    },
    {
      "channel": 0,
      "note": 40,
      "start": 81.1895,
      "duration": 0.1483,
      "velocity": 95,
      "chip": "ym2612"
    },
    {
      "channel": 1,
      "note": 45,
      "start": 81.1901,
      "duration": 0.1485,
      "velocity": 117,
      "chip": "ym2612"
    },
    {
      "channel": 0,
      "note": 43,
      "start": 81.3384,
      "duration": 0.1484,
      "velocity": 94,
      "chip": "ym2612"
    },
    {
      "channel": 1,
      "note": 33,
      "start": 81.339,
      "duration": 0.1485,
      "velocity": 117,
      "chip": "ym2612"
    },
    {
      "channel": 0,
      "note": 45,
      "start": 81.4874,
      "duration": 0.1484,
      "velocity": 94,
      "chip": "ym2612"
    },
    {
      "channel": 1,
      "note": 33,
      "start": 81.488,
      "duration": 0.1485,
      "velocity": 117,
      "chip": "ym2612"
    },
    {
      "channel": 3,
      "note": 62,
      "start": 81.4898,
      "duration": 0.1478,
      "velocity": 59,
      "chip": "ym2612"
    },
    {
      "channel": 0,
      "note": 40,
      "start": 81.6363,
      "duration": 0.1483,
      "velocity": 93,
      "chip": "ym2612"
    },
    {
      "channel": 1,
      "note": 45,
      "start": 81.637,
      "duration": 0.1485,
      "velocity": 117,
      "chip": "ym2612"
    },
    {
      "channel": 3,
      "note": 53,
      "start": 81.6388,
      "duration": 0.1645,
      "velocity": 1,
      "chip": "ym2612"
    },
    {
      "channel": 0,
      "note": 43,
      "start": 81.7853,
      "duration": 0.1483,
      "velocity": 93,
      "chip": "ym2612"
    },
    {
      "channel": 1,
      "note": 33,
      "start": 81.786,
      "duration": 0.1485,
      "velocity": 117,
      "chip": "ym2612"
    },
    {
      "channel": 0,
      "note": 45,
      "start": 81.9342,
      "duration": 0.1484,
      "velocity": 92,
      "chip": "ym2612"
    },
    {
      "channel": 1,
      "note": 33,
      "start": 81.9349,
      "duration": 0.1485,
      "velocity": 117,
      "chip": "ym2612"
    },
    {
      "channel": 3,
      "note": 22,
      "start": 81.9367,
      "duration": 0.1479,
      "velocity": 127,
      "chip": "ym2612"
    },
    {
      "channel": 0,
      "note": 40,
      "start": 82.0832,
      "duration": 0.1484,
      "velocity": 92,
      "chip": "ym2612"
    },
    {
      "channel": 1,
      "note": 45,
      "start": 82.0839,
      "duration": 0.1485,
      "velocity": 117,
      "chip": "ym2612"
    },
    {
      "channel": 3,
      "note": 22,
      "start": 82.0851,
      "duration": 0.1485,
      "velocity": 127,
      "chip": "ym2612"
    },
    {
      "channel": 0,
      "note": 45,
      "start": 82.2322,
      "duration": 0.1484,
      "velocity": 91,
      "chip": "ym2612"
    },
    {
      "channel": 1,
      "note": 33,
      "start": 82.2329,
      "duration": 0.1485,
      "velocity": 117,
      "chip": "ym2612"
    },
    {
      "channel": 3,
      "note": 53,
      "start": 82.2347,
      "duration": 0.1645,
      "velocity": 1,
      "chip": "ym2612"
    },
    {
      "channel": 0,
      "note": 40,
      "start": 82.3812,
      "duration": 0.1484,
      "velocity": 91,
      "chip": "ym2612"
    },
    {
      "channel": 1,
      "note": 45,
      "start": 82.3818,
      "duration": 0.1485,
      "velocity": 117,
      "chip": "ym2612"
    },
    {
      "channel": 0,
      "note": 43,
      "start": 82.5302,
      "duration": 0.1484,
      "velocity": 90,
      "chip": "ym2612"
    },
    {
      "channel": 1,
      "note": 33,
      "start": 82.5308,
      "duration": 0.1485,
      "velocity": 117,
      "chip": "ym2612"
    },
    {
      "channel": 0,
      "note": 45,
      "start": 82.6792,
      "duration": 0.1483,
      "velocity": 90,
      "chip": "ym2612"
    },
    {
      "channel": 1,
      "note": 33,
      "start": 82.6798,
      "duration": 0.1485,
      "velocity": 117,
      "chip": "ym2612"
    },
    {
      "channel": 0,
      "note": 40,
      "start": 82.8281,
      "duration": 0.1483,
      "velocity": 89,
      "chip": "ym2612"
    },
    {
      "channel": 1,
      "note": 45,
      "start": 82.8288,
      "duration": 0.1485,
      "velocity": 117,
      "chip": "ym2612"
    },
    {
      "channel": 3,
      "note": 53,
      "start": 82.83,
      "duration": 0.1651,
      "velocity": 1,
      "chip": "ym2612"
    },
    {
      "channel": 0,
      "note": 47,
      "start": 82.9771,
      "duration": 0.1484,
      "velocity": 89,
      "chip": "ym2612"
    },
    {
      "channel": 1,
      "note": 33,
      "start": 82.9778,
      "duration": 0.1485,
      "velocity": 117,
      "chip": "ym2612"
    },
    {
      "channel": 0,
      "note": 48,
      "start": 83.1261,
      "duration": 0.1484,
      "velocity": 88,
      "chip": "ym2612"
    },
    {
      "channel": 1,
      "note": 45,
      "start": 83.1267,
      "duration": 0.1485,
      "velocity": 117,
      "chip": "ym2612"
    },
    {
      "channel": 0,
      "note": 47,
      "start": 83.275,
      "duration": 0.1484,
      "velocity": 88,
      "chip": "ym2612"
    },
    {
      "channel": 1,
      "note": 45,
      "start": 83.2757,
      "duration": 0.1485,
      "velocity": 117,
      "chip": "ym2612"
    },
    {
      "channel": 0,
      "note": 45,
      "start": 83.424,
      "duration": 0.1484,
      "velocity": 87,
      "chip": "ym2612"
    },
    {
      "channel": 1,
      "note": 33,
      "start": 83.4246,
      "duration": 0.1485,
      "velocity": 117,
      "chip": "ym2612"
    },
    {
      "channel": 2,
      "note": 38,
      "start": 83.4254,
      "duration": 2.3835,
      "velocity": 108,
      "chip": "ym2612"
    },
    {
      "channel": 3,
      "note": 53,
      "start": 83.4261,
      "duration": 0.1649,
      "velocity": 1,
      "chip": "ym2612"
    },
    {
      "channel": 4,
      "note": 7,
      "start": 83.4267,
      "duration": 2.3165,
      "velocity": 1,
      "chip": "ym2612"
    },
    {
      "channel": 5,
      "note": 7,
      "start": 83.4274,
      "duration": 2.3163,
      "velocity": 1,
      "chip": "ym2612"
    },
    {
      "channel": 0,
      "note": 40,
      "start": 83.5731,
      "duration": 0.1483,
      "velocity": 87,
      "chip": "ym2612"
    },
    {
      "channel": 1,
      "note": 45,
      "start": 83.5737,
      "duration": 0.1484,
      "velocity": 117,
      "chip": "ym2612"
    },
    {
      "channel": 0,
      "note": 43,
      "start": 83.722,
      "duration": 0.1483,
      "velocity": 88,
      "chip": "ym2612"
    },
    {
      "channel": 1,
      "note": 33,
      "start": 83.7227,
      "duration": 0.1484,
      "velocity": 117,
      "chip": "ym2612"
    },
    {
      "channel": 3,
      "note": 62,
      "start": 83.7244,
      "duration": 0.1478,
      "velocity": 59,
      "chip": "ym2612"
    },
    {
      "channel": 0,
      "note": 45,
      "start": 83.8709,
      "duration": 0.1484,
      "velocity": 88,
      "chip": "ym2612"
    },
    {
      "channel": 1,
      "note": 33,
      "start": 83.8716,
      "duration": 0.1485,
      "velocity": 117,
      "chip": "ym2612"
    },
    {
      "channel": 3,
      "note": 62,
      "start": 83.8728,
      "duration": 0.1484,
      "velocity": 59,
      "chip": "ym2612"
    },
    {
      "channel": 0,
      "note": 40,
      "start": 84.0199,
      "duration": 0.1484,
      "velocity": 89,
      "chip": "ym2612"
    },
    {
      "channel": 1,
      "note": 45,
      "start": 84.0206,
      "duration": 0.1485,
      "velocity": 117,
      "chip": "ym2612"
    },
    {
      "channel": 3,
      "note": 53,
      "start": 84.0224,
      "duration": 0.1645,
      "velocity": 1,
      "chip": "ym2612"
    },
    {
      "channel": 0,
      "note": 43,
      "start": 84.1689,
      "duration": 0.1484,
      "velocity": 89,
      "chip": "ym2612"
    },
    {
      "channel": 1,
      "note": 33,
      "start": 84.1695,
      "duration": 0.1485,
      "velocity": 117,
      "chip": "ym2612"
    },
    {
      "channel": 0,
      "note": 45,
      "start": 84.3178,
      "duration": 0.1484,
      "velocity": 90,
      "chip": "ym2612"
    },
    {
      "channel": 1,
      "note": 45,
      "start": 84.3185,
      "duration": 0.1485,
      "velocity": 117,
      "chip": "ym2612"
    },
    {
      "channel": 3,
      "note": 22,
      "start": 84.3202,
      "duration": 0.148,
      "velocity": 127,
      "chip": "ym2612"
    },
    {
      "channel": 0,
      "note": 40,
      "start": 84.4668,
      "duration": 0.1483,
      "velocity": 90,
      "chip": "ym2612"
    },
    {
      "channel": 1,
      "note": 33,
      "start": 84.4675,
      "duration": 0.1485,
      "velocity": 117,
      "chip": "ym2612"
    },
    {
      "channel": 3,
      "note": 22,
      "start": 84.4686,
      "duration": 0.1485,
      "velocity": 127,
      "chip": "ym2612"
    },
    {
      "channel": 0,
      "note": 43,
      "start": 84.6158,
      "duration": 0.1483,
      "velocity": 91,
      "chip": "ym2612"
    },
    {
      "channel": 1,
      "note": 33,
      "start": 84.6164,
      "duration": 0.1485,
      "velocity": 117,
      "chip": "ym2612"
    },
    {
      "channel": 3,
      "note": 53,
      "start": 84.6182,
      "duration": 0.1645,
      "velocity": 1,
      "chip": "ym2612"
    },
    {
      "channel": 0,
      "note": 45,
      "start": 84.7648,
      "duration": 0.1483,
      "velocity": 91,
      "chip": "ym2612"
    },
    {
      "channel": 1,
      "note": 45,
      "start": 84.7654,
      "duration": 0.1485,
      "velocity": 117,
      "chip": "ym2612"
    },
    {
      "channel": 0,
      "note": 47,
      "start": 84.9137,
      "duration": 0.1484,
      "velocity": 92,
      "chip": "ym2612"
    },
    {
      "channel": 1,
      "note": 33,
      "start": 84.9144,
      "duration": 0.1485,
      "velocity": 117,
      "chip": "ym2612"
    },
    {
      "channel": 0,
      "note": 48,
      "start": 85.0627,
      "duration": 0.1484,
      "velocity": 92,
      "chip": "ym2612"
    },
    {
      "channel": 1,
      "note": 45,
      "start": 85.0633,
      "duration": 0.1485,
      "velocity": 117,
      "chip": "ym2612"
    },
    {
      "channel": 0,
      "note": 50,
      "start": 85.2117,
      "duration": 0.1484,
      "velocity": 93,
      "chip": "ym2612"
    },
    {
      "channel": 1,
      "note": 33,
      "start": 85.2123,
      "duration": 0.1485,
      "velocity": 117,
      "chip": "ym2612"
    },
    {
      "channel": 3,
      "note": 53,
      "start": 85.2136,
      "duration": 0.1651,
      "velocity": 1,
      "chip": "ym2612"
    },
    {
      "channel": 0,
      "note": 48,
      "start": 85.3607,
      "duration": 0.1484,
      "velocity": 93,
      "chip": "ym2612"
    },
    {
      "channel": 1,
      "note": 33,
      "start": 85.3613,
      "duration": 0.1485,
      "velocity": 117,
      "chip": "ym2612"
    },
    {
      "channel": 0,
      "note": 47,
      "start": 85.5096,
      "duration": 0.1483,
      "velocity": 94,
      "chip": "ym2612"
    },
    {
      "channel": 1,
      "note": 45,
      "start": 85.5103,
      "duration": 0.1485,
      "velocity": 117,
      "chip": "ym2612"
    },
    {
      "channel": 3,
      "note": 22,
      "start": 85.512,
      "duration": 0.148,
      "velocity": 127,
      "chip": "ym2612"
    },
    {
      "channel": 0,
      "note": 40,
      "start": 85.6586,
      "duration": 0.1483,
      "velocity": 94,
      "chip": "ym2612"
    },
    {
      "channel": 1,
      "note": 33,
      "start": 85.6593,
      "duration": 0.149,
      "velocity": 117,
      "chip": "ym2612"
    },
    {
      "channel": 3,
      "note": 22,
      "start": 85.6604,
      "duration": 0.1492,
      "velocity": 127,
      "chip": "ym2612"
    },
    {
      "channel": 0,
      "note": 33,
      "start": 85.8081,
      "duration": 2.3824,
      "velocity": 108,
      "chip": "ym2612"
    },
    {
      "channel": 1,
      "note": 33,
      "start": 85.8088,
      "duration": 0.1478,
      "velocity": 117,
      "chip": "ym2612"
    },
    {
      "channel": 2,
      "note": 38,
      "start": 85.8094,
      "duration": 2.3824,
      "velocity": 108,
      "chip": "ym2612"
    },
    {
      "channel": 3,
      "note": 21,
      "start": 85.8107,
      "duration": 3.5733,
      "velocity": 124,
      "chip": "ym2612"
    },
    {
      "channel": 4,
      "note": 7,
      "start": 85.8114,
      "duration": 2.3153,
      "velocity": 1,
      "chip": "ym2612"
    },
    {
      "channel": 5,
      "note": 7,
      "start": 85.812,
      "duration": 2.3151,
      "velocity": 1,
      "chip": "ym2612"
    },
    {
      "channel": 1,
      "note": 45,
      "start": 85.957,
      "duration": 0.1484,
      "velocity": 117,
      "chip": "ym2612"
    },
    {
      "channel": 1,
      "note": 33,
      "start": 86.1059,
      "duration": 0.1485,
      "velocity": 117,
      "chip": "ym2612"
    },
    {
      "channel": 1,
      "note": 33,
      "start": 86.2549,
      "duration": 0.1485,
      "velocity": 117,
      "chip": "ym2612"
    },
    {
      "channel": 1,
      "note": 45,
      "start": 86.4039,
      "duration": 0.1485,
      "velocity": 117,
      "chip": "ym2612"
    },
    {
      "channel": 1,
      "note": 33,
      "start": 86.5529,
      "duration": 0.1485,
      "velocity": 117,
      "chip": "ym2612"
    },
    {
      "channel": 1,
      "note": 33,
      "start": 86.7018,
      "duration": 0.1485,
      "velocity": 117,
      "chip": "ym2612"
    },
    {
      "channel": 1,
      "note": 45,
      "start": 86.8508,
      "duration": 0.1485,
      "velocity": 117,
      "chip": "ym2612"
    },
    {
      "channel": 1,
      "note": 33,
      "start": 86.9998,
      "duration": 0.1485,
      "velocity": 117,
      "chip": "ym2612"
    },
    {
      "channel": 1,
      "note": 45,
      "start": 87.1488,
      "duration": 0.1485,
      "velocity": 117,
      "chip": "ym2612"
    },
    {
      "channel": 1,
      "note": 33,
      "start": 87.2977,
      "duration": 0.1485,
      "velocity": 117,
      "chip": "ym2612"
    },
    {
      "channel": 1,
      "note": 33,
      "start": 87.4467,
      "duration": 0.1485,
      "velocity": 117,
      "chip": "ym2612"
    },
    {
      "channel": 1,
      "note": 45,
      "start": 87.5956,
      "duration": 0.1485,
      "velocity": 117,
      "chip": "ym2612"
    },
    {
      "channel": 1,
      "note": 33,
      "start": 87.7446,
      "duration": 0.1485,
      "velocity": 117,
      "chip": "ym2612"
    },
    {
      "channel": 1,
      "note": 45,
      "start": 87.8936,
      "duration": 0.1485,
      "velocity": 117,
      "chip": "ym2612"
    },
    {
      "channel": 1,
      "note": 45,
      "start": 88.0426,
      "duration": 0.1487,
      "velocity": 117,
      "chip": "ym2612"
    },
    {
      "channel": 0,
      "note": 33,
      "start": 88.1911,
      "duration": 2.383,
      "velocity": 108,
      "chip": "ym2612"
    },
    {
      "channel": 1,
      "note": 33,
      "start": 88.1918,
      "duration": 0.1483,
      "velocity": 117,
      "chip": "ym2612"
    },
    {
      "channel": 2,
      "note": 37,
      "start": 88.1924,
      "duration": 2.383,
      "velocity": 108,
      "chip": "ym2612"
    },
    {
      "channel": 4,
      "note": 7,
      "start": 88.1936,
      "duration": 2.3168,
      "velocity": 1,
      "chip": "ym2612"
    },
    {
      "channel": 5,
      "note": 7,
      "start": 88.1942,
      "duration": 2.3167,
      "velocity": 1,
      "chip": "ym2612"
    },
    {
      "channel": 1,
      "note": 45,
      "start": 88.3406,
      "duration": 0.1484,
      "velocity": 117,
      "chip": "ym2612"
    },
    {
      "channel": 1,
      "note": 33,
      "start": 88.4895,
      "duration": 0.1485,
      "velocity": 117,
      "chip": "ym2612"
    },
    {
      "channel": 1,
      "note": 33,
      "start": 88.6385,
      "duration": 0.1485,
      "velocity": 117,
      "chip": "ym2612"
    },
    {
      "channel": 1,
      "note": 45,
      "start": 88.7874,
      "duration": 0.1485,
      "velocity": 117,
      "chip": "ym2612"
    },
    {
      "channel": 1,
      "note": 33,
      "start": 88.9364,
      "duration": 0.1485,
      "velocity": 117,
      "chip": "ym2612"
    },
    {
      "channel": 1,
      "note": 45,
      "start": 89.0854,
      "duration": 0.1485,
      "velocity": 117,
      "chip": "ym2612"
    },
    {
      "channel": 1,
      "note": 33,
      "start": 89.2344,
      "duration": 0.1485,
      "velocity": 117,
      "chip": "ym2612"
    },
    {
      "channel": 1,
      "note": 33,
      "start": 89.3834,
      "duration": 0.1485,
      "velocity": 117,
      "chip": "ym2612"
    },
    {
      "channel": 3,
      "note": 45,
      "start": 89.3853,
      "duration": 0.1477,
      "velocity": 107,
      "chip": "ym2612"
    },
    {
      "channel": 1,
      "note": 45,
      "start": 89.5323,
      "duration": 0.1485,
      "velocity": 117,
      "chip": "ym2612"
    },
    {
      "channel": 3,
      "note": 45,
      "start": 89.5337,
      "duration": 0.1483,
      "velocity": 106,
      "chip": "ym2612"
    },
    {
      "channel": 1,
      "note": 33,
      "start": 89.6813,
      "duration": 0.1485,
      "velocity": 117,
      "chip": "ym2612"
    },
    {
      "channel": 3,
      "note": 45,
      "start": 89.6827,
      "duration": 0.1483,
      "velocity": 105,
      "chip": "ym2612"
    },
    {
      "channel": 1,
      "note": 45,
      "start": 89.8302,
      "duration": 0.1485,
      "velocity": 117,
      "chip": "ym2612"
    },
    {
      "channel": 3,
      "note": 45,
      "start": 89.8316,
      "duration": 0.1483,
      "velocity": 104,
      "chip": "ym2612"
    },
    {
      "channel": 1,
      "note": 33,
      "start": 89.9792,
      "duration": 0.1485,
      "velocity": 117,
      "chip": "ym2612"
    },
    {
      "channel": 3,
      "note": 45,
      "start": 89.9806,
      "duration": 0.1483,
      "velocity": 103,
      "chip": "ym2612"
    },
    {
      "channel": 1,
      "note": 33,
      "start": 90.1282,
      "duration": 0.1485,
      "velocity": 117,
      "chip": "ym2612"
    },
    {
      "channel": 3,
      "note": 45,
      "start": 90.1296,
      "duration": 0.1482,
      "velocity": 102,
      "chip": "ym2612"
    },
    {
      "channel": 1,
      "note": 45,
      "start": 90.2772,
      "duration": 0.1485,
      "velocity": 117,
      "chip": "ym2612"
    },
    {
      "channel": 3,
      "note": 45,
      "start": 90.2786,
      "duration": 0.1482,
      "velocity": 101,
      "chip": "ym2612"
    },
    {
      "channel": 1,
      "note": 33,
      "start": 90.4261,
      "duration": 0.1487,
      "velocity": 117,
      "chip": "ym2612"
    },
    {
      "channel": 3,
      "note": 45,
      "start": 90.4275,
      "duration": 0.1487,
      "velocity": 100,
      "chip": "ym2612"
    },
    {
      "channel": 0,
      "note": 33,
      "start": 90.5746,
      "duration": 2.383,
      "velocity": 108,
      "chip": "ym2612"
    },
    {
      "channel": 1,
      "note": 33,
      "start": 90.5753,
      "duration": 0.1483,
      "velocity": 117,
      "chip": "ym2612"
    },
    {
      "channel": 2,
      "note": 38,
      "start": 90.576,
      "duration": 2.383,
      "velocity": 108,
      "chip": "ym2612"
    },
    {
      "channel": 3,
      "note": 7,
      "start": 90.5773,
      "duration": 2.316,
      "velocity": 1,
      "chip": "ym2612"
    },
    {
      "channel": 4,
      "note": 7,
      "start": 90.5779,
      "duration": 2.3159,
      "velocity": 1,
      "chip": "ym2612"
    },
    {
      "channel": 5,
      "note": 7,
      "start": 90.5785,
      "duration": 2.3158,
      "velocity": 1,
      "chip": "ym2612"
    },
    {
      "channel": 1,
      "note": 45,
      "start": 90.7241,
      "duration": 0.1485,
      "velocity": 117,
      "chip": "ym2612"
    },
    {
      "channel": 1,
      "note": 33,
      "start": 90.8731,
      "duration": 0.1484,
      "velocity": 117,
      "chip": "ym2612"
    },
    {
      "channel": 1,
      "note": 33,
      "start": 91.022,
      "duration": 0.1485,
      "velocity": 117,
      "chip": "ym2612"
    },
    {
      "channel": 1,
      "note": 45,
      "start": 91.171,
      "duration": 0.1485,
      "velocity": 117,
      "chip": "ym2612"
    },
    {
      "channel": 1,
      "note": 33,
      "start": 91.32,
      "duration": 0.1485,
      "velocity": 117,
      "chip": "ym2612"
    },
    {
      "channel": 1,
      "note": 33,
      "start": 91.4689,
      "duration": 0.1485,
      "velocity": 117,
      "chip": "ym2612"
    },
    {
      "channel": 1,
      "note": 45,
      "start": 91.6179,
      "duration": 0.1485,
      "velocity": 117,
      "chip": "ym2612"
    },
    {
      "channel": 1,
      "note": 33,
      "start": 91.7669,
      "duration": 0.1485,
      "velocity": 117,
      "chip": "ym2612"
    },
    {
      "channel": 1,
      "note": 45,
      "start": 91.9159,
      "duration": 0.1485,
      "velocity": 117,
      "chip": "ym2612"
    },
    {
      "channel": 1,
      "note": 33,
      "start": 92.0649,
      "duration": 0.1485,
      "velocity": 117,
      "chip": "ym2612"
    },
    {
      "channel": 1,
      "note": 33,
      "start": 92.2138,
      "duration": 0.1485,
      "velocity": 117,
      "chip": "ym2612"
    },
    {
      "channel": 1,
      "note": 45,
      "start": 92.3628,
      "duration": 0.1485,
      "velocity": 117,
      "chip": "ym2612"
    },
    {
      "channel": 1,
      "note": 33,
      "start": 92.5117,
      "duration": 0.1485,
      "velocity": 117,
      "chip": "ym2612"
    },
    {
      "channel": 1,
      "note": 45,
      "start": 92.6607,
      "duration": 0.1485,
      "velocity": 117,
      "chip": "ym2612"
    },
    {
      "channel": 1,
      "note": 45,
      "start": 92.8097,
      "duration": 0.1487,
      "velocity": 117,
      "chip": "ym2612"
    },
    {
      "channel": 0,
      "note": 33,
      "start": 92.9582,
      "duration": 2.3829,
      "velocity": 108,
      "chip": "ym2612"
    },
    {
      "channel": 1,
      "note": 33,
      "start": 92.9589,
      "duration": 0.1483,
      "velocity": 117,
      "chip": "ym2612"
    },
    {
      "channel": 2,
      "note": 35,
      "start": 92.9596,
      "duration": 2.3844,
      "velocity": 108,
      "chip": "ym2612"
    },
    {
      "channel": 3,
      "note": 7,
      "start": 92.9602,
      "duration": 2.3167,
      "velocity": 1,
      "chip": "ym2612"
    },
    {
      "channel": 4,
      "note": 7,
      "start": 92.9608,
      "duration": 2.3165,
      "velocity": 1,
      "chip": "ym2612"
    },
    {
      "channel": 5,
      "note": 7,
      "start": 92.9615,
      "duration": 2.3163,
      "velocity": 1,
      "chip": "ym2612"
    },
    {
      "channel": 1,
      "note": 45,
      "start": 93.1077,
      "duration": 0.1485,
      "velocity": 117,
      "chip": "ym2612"
    },
    {
      "channel": 1,
      "note": 33,
      "start": 93.2566,
      "duration": 0.1485,
      "velocity": 117,
      "chip": "ym2612"
    },
    {
      "channel": 1,
      "note": 33,
      "start": 93.4056,
      "duration": 0.1485,
      "velocity": 117,
      "chip": "ym2612"
    },
    {
      "channel": 1,
      "note": 45,
      "start": 93.5545,
      "duration": 0.1485,
      "velocity": 117,
      "chip": "ym2612"
    },
    {
      "channel": 1,
      "note": 33,
      "start": 93.7035,
      "duration": 0.1485,
      "velocity": 117,
      "chip": "ym2612"
    },
    {
      "channel": 1,
      "note": 45,
      "start": 93.8525,
      "duration": 0.1485,
      "velocity": 117,
      "chip": "ym2612"
    },
    {
      "channel": 1,
      "note": 33,
      "start": 94.0015,
      "duration": 0.1485,
      "velocity": 117,
      "chip": "ym2612"
    },
    {
      "channel": 1,
      "note": 33,
      "start": 94.1505,
      "duration": 0.1485,
      "velocity": 117,
      "chip": "ym2612"
    },
    {
      "channel": 1,
      "note": 45,
      "start": 94.2995,
      "duration": 0.1485,
      "velocity": 117,
      "chip": "ym2612"
    },
    {
      "channel": 1,
      "note": 33,
      "start": 94.4484,
      "duration": 0.1485,
      "velocity": 117,
      "chip": "ym2612"
    },
    {
      "channel": 1,
      "note": 45,
      "start": 94.5973,
      "duration": 0.1485,
      "velocity": 117,
      "chip": "ym2612"
    },
    {
      "channel": 1,
      "note": 33,
      "start": 94.7463,
      "duration": 0.1485,
      "velocity": 117,
      "chip": "ym2612"
    },
    {
      "channel": 1,
      "note": 33,
      "start": 94.8953,
      "duration": 0.1485,
      "velocity": 117,
      "chip": "ym2612"
    },
    {
      "channel": 1,
      "note": 45,
      "start": 95.0443,
      "duration": 0.1485,
      "velocity": 117,
      "chip": "ym2612"
    },
    {
      "channel": 1,
      "note": 33,
      "start": 95.1933,
      "duration": 0.1492,
      "velocity": 117,
      "chip": "ym2612"
    },
    {
      "channel": 0,
      "note": 21,
      "start": 95.3424,
      "duration": 0.2311,
      "velocity": 87,
      "chip": "ym2612"
    },
    {
      "channel": 1,
      "note": 45,
      "start": 95.3439,
      "duration": 0.1469,
      "velocity": 107,
      "chip": "ym2612"
    },
    {
      "channel": 2,
      "note": 49,
      "start": 95.3451,
      "duration": 0.0143,
      "velocity": 102,
      "chip": "ym2612"
    },
    {
      "channel": 3,
      "note": 33,
      "start": 95.3463,
      "duration": 0.146,
      "velocity": 117,
      "chip": "ym2612"
    },
    {
      "channel": 4,
      "note": 7,
      "start": 95.347,
      "duration": 2.3142,
      "velocity": 1,
      "chip": "ym2612"
    },
    {
      "channel": 5,
      "note": 7,
      "start": 95.3477,
      "duration": 2.314,
      "velocity": 1,
      "chip": "ym2612"
    },
    {
      "channel": 1,
      "note": 45,
      "start": 95.4915,
      "duration": 0.1485,
      "velocity": 106,
      "chip": "ym2612"
    },
    {
      "channel": 2,
      "note": 45,
      "start": 95.4922,
      "duration": 0.0162,
      "velocity": 102,
      "chip": "ym2612"
    },
    {
      "channel": 3,
      "note": 45,
      "start": 95.4928,
      "duration": 0.1487,
      "velocity": 117,
      "chip": "ym2612"
    },
    {
      "channel": 0,
      "note": 33,
      "start": 95.6398,
      "duration": 0.1483,
      "velocity": 87,
      "chip": "ym2612"
    },
    {
      "channel": 1,
      "note": 45,
      "start": 95.6407,
      "duration": 0.1482,
      "velocity": 105,
      "chip": "ym2612"
    },
    {
      "channel": 2,
      "note": 47,
      "start": 95.6414,
      "duration": 0.0161,
      "velocity": 102,
      "chip": "ym2612"
    },
    {
      "channel": 3,
      "note": 33,
      "start": 95.642,
      "duration": 0.1485,
      "velocity": 117,
      "chip": "ym2612"
    },
    {
      "channel": 0,
      "note": 21,
      "start": 95.7888,
      "duration": 0.1483,
      "velocity": 87,
      "chip": "ym2612"
    },
    {
      "channel": 1,
      "note": 45,
      "start": 95.7897,
      "duration": 0.1482,
      "velocity": 104,
      "chip": "ym2612"
    },
    {
      "channel": 2,
      "note": 45,
      "start": 95.7904,
      "duration": 0.0161,
      "velocity": 102,
      "chip": "ym2612"
    },
    {
      "channel": 3,
      "note": 33,
      "start": 95.791,
      "duration": 0.1485,
      "velocity": 117,
      "chip": "ym2612"
    },
    {
      "channel": 0,
      "note": 33,
      "start": 95.9377,
      "duration": 0.2316,
      "velocity": 87,
      "chip": "ym2612"
    },
    {
      "channel": 1,
      "note": 45,
      "start": 95.9386,
      "duration": 0.1481,
      "velocity": 103,
      "chip": "ym2612"
    },
    {
      "channel": 2,
      "note": 48,
      "start": 95.9393,
      "duration": 0.0161,
      "velocity": 102,
      "chip": "ym2612"
    },
    {
      "channel": 3,
      "note": 45,
      "start": 95.94,
      "duration": 0.1483,
      "velocity": 117,
      "chip": "ym2612"
    },
    {
      "channel": 1,
      "note": 45,
      "start": 96.0874,
      "duration": 0.1485,
      "velocity": 102,
      "chip": "ym2612"
    },
    {
      "channel": 2,
      "note": 45,
      "start": 96.0881,
      "duration": 0.0162,
      "velocity": 102,
      "chip": "ym2612"
    },
    {
      "channel": 3,
      "note": 33,
      "start": 96.0887,
      "duration": 0.1487,
      "velocity": 117,
      "chip": "ym2612"
    },
    {
      "channel": 0,
      "note": 21,
      "start": 96.2356,
      "duration": 0.1484,
      "velocity": 87,
      "chip": "ym2612"
    },
    {
      "channel": 1,
      "note": 45,
      "start": 96.2365,
      "duration": 0.1482,
      "velocity": 101,
      "chip": "ym2612"
    },
    {
      "channel": 2,
      "note": 47,
      "start": 96.2372,
      "duration": 0.016,
      "velocity": 102,
      "chip": "ym2612"
    },
    {
      "channel": 3,
      "note": 33,
      "start": 96.2379,
      "duration": 0.1485,
      "velocity": 117,
      "chip": "ym2612"
    },
    {
      "channel": 0,
      "note": 33,
      "start": 96.3846,
      "duration": 0.1483,
      "velocity": 87,
      "chip": "ym2612"
    },
    {
      "channel": 1,
      "note": 45,
      "start": 96.3855,
      "duration": 0.1483,
      "velocity": 100,
      "chip": "ym2612"
    },
    {
      "channel": 2,
      "note": 45,
      "start": 96.3862,
      "duration": 0.0161,
      "velocity": 102,
      "chip": "ym2612"
    },
    {
      "channel": 3,
      "note": 45,
      "start": 96.3868,
      "duration": 0.1485,
      "velocity": 117,
      "chip": "ym2612"
    },
    {
      "channel": 0,
      "note": 21,
      "start": 96.5336,
      "duration": 0.1483,
      "velocity": 87,
      "chip": "ym2612"
    },
    {
      "channel": 1,
      "note": 45,
      "start": 96.5344,
      "duration": 0.1483,
      "velocity": 99,
      "chip": "ym2612"
    },
    {
      "channel": 2,
      "note": 48,
      "start": 96.5351,
      "duration": 0.0161,
      "velocity": 102,
      "chip": "ym2612"
    },
    {
      "channel": 3,
      "note": 33,
      "start": 96.5358,
      "duration": 0.1485,
      "velocity": 117,
      "chip": "ym2612"
    },
    {
      "channel": 0,
      "note": 21,
      "start": 96.6826,
      "duration": 0.1483,
      "velocity": 87,
      "chip": "ym2612"
    },
    {
      "channel": 1,
      "note": 45,
      "start": 96.6834,
      "duration": 0.1483,
      "velocity": 100,
      "chip": "ym2612"
    },
    {
      "channel": 2,
      "note": 45,
      "start": 96.6841,
      "duration": 0.0161,
      "velocity": 102,
      "chip": "ym2612"
    },
    {
      "channel": 3,
      "note": 45,
      "start": 96.6848,
      "duration": 0.1485,
      "velocity": 117,
      "chip": "ym2612"
    },
    {
      "channel": 0,
      "note": 33,
      "start": 96.8315,
      "duration": 0.1484,
      "velocity": 87,
      "chip": "ym2612"
    },
    {
      "channel": 1,
      "note": 45,
      "start": 96.8324,
      "duration": 0.1483,
      "velocity": 101,
      "chip": "ym2612"
    },
    {
      "channel": 2,
      "note": 47,
      "start": 96.8331,
      "duration": 0.0161,
      "velocity": 102,
      "chip": "ym2612"
    },
    {
      "channel": 3,
      "note": 33,
      "start": 96.8337,
      "duration": 0.1485,
      "velocity": 117,
      "chip": "ym2612"
    },
    {
      "channel": 0,
      "note": 21,
      "start": 96.9805,
      "duration": 0.1484,
      "velocity": 87,
      "chip": "ym2612"
    },
    {
      "channel": 1,
      "note": 45,
      "start": 96.9814,
      "duration": 0.1483,
      "velocity": 102,
      "chip": "ym2612"
    },
    {
      "channel": 2,
      "note": 48,
      "start": 96.9821,
      "duration": 0.0161,
      "velocity": 102,
      "chip": "ym2612"
    },
    {
      "channel": 3,
      "note": 33,
      "start": 96.9827,
      "duration": 0.1485,
      "velocity": 117,
      "chip": "ym2612"
    },
    {
      "channel": 0,
      "note": 33,
      "start": 97.1295,
      "duration": 0.1484,
      "velocity": 87,
      "chip": "ym2612"
    },
    {
      "channel": 1,
      "note": 45,
      "start": 97.1304,
      "duration": 0.1482,
      "velocity": 103,
      "chip": "ym2612"
    },
    {
      "channel": 2,
      "note": 45,
      "start": 97.1311,
      "duration": 0.016,
      "velocity": 102,
      "chip": "ym2612"
    },
    {
      "channel": 3,
      "note": 45,
      "start": 97.1317,
      "duration": 0.1485,
      "velocity": 117,
      "chip": "ym2612"
    },
    {
      "channel": 0,
      "note": 21,
      "start": 97.2785,
      "duration": 0.1483,
      "velocity": 87,
      "chip": "ym2612"
    },
    {
      "channel": 1,
      "note": 45,
      "start": 97.2793,
      "duration": 0.1483,
      "velocity": 104,
      "chip": "ym2612"
    },
    {
      "channel": 2,
      "note": 47,
      "start": 97.28,
      "duration": 0.0161,
      "velocity": 102,
      "chip": "ym2612"
    },
    {
      "channel": 3,
      "note": 33,
      "start": 97.2806,
      "duration": 0.1485,
      "velocity": 117,
      "chip": "ym2612"
    },
    {
      "channel": 0,
      "note": 21,
      "start": 97.4274,
      "duration": 0.1483,
      "velocity": 87,
      "chip": "ym2612"
    },
    {
      "channel": 1,
      "note": 45,
      "start": 97.4283,
      "duration": 0.1483,
      "velocity": 105,
      "chip": "ym2612"
    },
    {
      "channel": 2,
      "note": 50,
      "start": 97.429,
      "duration": 0.0161,
      "velocity": 102,
      "chip": "ym2612"
    },
    {
      "channel": 3,
      "note": 45,
      "start": 97.4296,
      "duration": 0.1485,
      "velocity": 117,
      "chip": "ym2612"
    },
    {
      "channel": 0,
      "note": 33,
      "start": 97.5764,
      "duration": 0.1483,
      "velocity": 87,
      "chip": "ym2612"
    },
    {
      "channel": 1,
      "note": 45,
      "start": 97.5773,
      "duration": 0.1483,
      "velocity": 106,
      "chip": "ym2612"
    },
    {
      "channel": 2,
      "note": 45,
      "start": 97.578,
      "duration": 0.0161,
      "velocity": 102,
      "chip": "ym2612"
    },
    {
      "channel": 3,
      "note": 45,
      "start": 97.5786,
      "duration": 0.1485,
      "velocity": 117,
      "chip": "ym2612"
    },
    {
      "channel": 0,
      "note": 21,
      "start": 97.7254,
      "duration": 0.2315,
      "velocity": 87,
      "chip": "ym2612"
    },
    {
      "channel": 1,
      "note": 45,
      "start": 97.7262,
      "duration": 0.1482,
      "velocity": 107,
      "chip": "ym2612"
    },
    {
      "channel": 2,
      "note": 48,
      "start": 97.7269,
      "duration": 0.0161,
      "velocity": 102,
      "chip": "ym2612"
    },
    {
      "channel": 3,
      "note": 33,
      "start": 97.7276,
      "duration": 0.1483,
      "velocity": 117,
      "chip": "ym2612"
    },
    {
      "channel": 4,
      "note": 7,
      "start": 97.7283,
      "duration": 2.3165,
      "velocity": 1,
      "chip": "ym2612"
    },
    {
      "channel": 5,
      "note": 7,
      "start": 97.7289,
      "duration": 2.3163,
      "velocity": 1,
      "chip": "ym2612"
    },
    {
      "channel": 1,
      "note": 45,
      "start": 97.8751,
      "duration": 0.1484,
      "velocity": 106,
      "chip": "ym2612"
    },
    {
      "channel": 2,
      "note": 45,
      "start": 97.8758,
      "duration": 0.0162,
      "velocity": 102,
      "chip": "ym2612"
    },
    {
      "channel": 3,
      "note": 45,
      "start": 97.8764,
      "duration": 0.1487,
      "velocity": 117,
      "chip": "ym2612"
    },
    {
      "channel": 0,
      "note": 33,
      "start": 98.0234,
      "duration": 0.2315,
      "velocity": 87,
      "chip": "ym2612"
    },
    {
      "channel": 1,
      "note": 45,
      "start": 98.0242,
      "duration": 0.1481,
      "velocity": 105,
      "chip": "ym2612"
    },
    {
      "channel": 2,
      "note": 47,
      "start": 98.0249,
      "duration": 0.0161,
      "velocity": 102,
      "chip": "ym2612"
    },
    {
      "channel": 3,
      "note": 33,
      "start": 98.0255,
      "duration": 0.1483,
      "velocity": 117,
      "chip": "ym2612"
    },
    {
      "channel": 1,
      "note": 45,
      "start": 98.1731,
      "duration": 0.1483,
      "velocity": 104,
      "chip": "ym2612"
    },
    {
      "channel": 2,
      "note": 45,
      "start": 98.1738,
      "duration": 0.0162,
      "velocity": 102,
      "chip": "ym2612"
    },
    {
      "channel": 3,
      "note": 33,
      "start": 98.1744,
      "duration": 0.1486,
      "velocity": 117,
      "chip": "ym2612"
    },
    {
      "channel": 0,
      "note": 21,
      "start": 98.3213,
      "duration": 0.2316,
      "velocity": 87,
      "chip": "ym2612"
    },
    {
      "channel": 1,
      "note": 45,
      "start": 98.3221,
      "duration": 0.1481,
      "velocity": 103,
      "chip": "ym2612"
    },
    {
      "channel": 2,
      "note": 48,
      "start": 98.3229,
      "duration": 0.016,
      "velocity": 102,
      "chip": "ym2612"
    },
    {
      "channel": 3,
      "note": 45,
      "start": 98.3235,
      "duration": 0.1483,
      "velocity": 117,
      "chip": "ym2612"
    },
    {
      "channel": 1,
      "note": 45,
      "start": 98.471,
      "duration": 0.1484,
      "velocity": 102,
      "chip": "ym2612"
    },
    {
      "channel": 2,
      "note": 45,
      "start": 98.4717,
      "duration": 0.0162,
      "velocity": 102,
      "chip": "ym2612"
    },
    {
      "channel": 3,
      "note": 33,
      "start": 98.4723,
      "duration": 0.1487,
      "velocity": 117,
      "chip": "ym2612"
    },
    {
      "channel": 0,
      "note": 21,
      "start": 98.6192,
      "duration": 0.1483,
      "velocity": 87,
      "chip": "ym2612"
    },
    {
      "channel": 1,
      "note": 45,
      "start": 98.6201,
      "duration": 0.1483,
      "velocity": 101,
      "chip": "ym2612"
    },
    {
      "channel": 2,
      "note": 47,
      "start": 98.6208,
      "duration": 0.0161,
      "velocity": 102,
      "chip": "ym2612"
    },
    {
      "channel": 3,
      "note": 45,
      "start": 98.6214,
      "duration": 0.1485,
      "velocity": 117,
      "chip": "ym2612"
    },
    {
      "channel": 0,
      "note": 33,
      "start": 98.7682,
      "duration": 0.1483,
      "velocity": 87,
      "chip": "ym2612"
    },
    {
      "channel": 1,
      "note": 45,
      "start": 98.769,
      "duration": 0.1483,
      "velocity": 100,
      "chip": "ym2612"
    },
    {
      "channel": 2,
      "note": 45,
      "start": 98.7698,
      "duration": 0.0161,
      "velocity": 102,
      "chip": "ym2612"
    },
    {
      "channel": 3,
      "note": 33,
      "start": 98.7704,
      "duration": 0.1485,
      "velocity": 117,
      "chip": "ym2612"
    },
    {
      "channel": 0,
      "note": 21,
      "start": 98.9171,
      "duration": 0.1484,
      "velocity": 87,
      "chip": "ym2612"
    },
    {
      "channel": 1,
      "note": 45,
      "start": 98.918,
      "duration": 0.1483,
      "velocity": 99,
      "chip": "ym2612"
    },
    {
      "channel": 2,
      "note": 48,
      "start": 98.9187,
      "duration": 0.0161,
      "velocity": 102,
      "chip": "ym2612"
    },
    {
      "channel": 3,
      "note": 33,
      "start": 98.9194,
      "duration": 0.1485,
      "velocity": 117,
      "chip": "ym2612"
    },
    {
      "channel": 0,
      "note": 33,
      "start": 99.0661,
      "duration": 0.2316,
      "velocity": 87,
      "chip": "ym2612"
    },
    {
      "channel": 1,
      "note": 45,
      "start": 99.067,
      "duration": 0.1481,
      "velocity": 100,
      "chip": "ym2612"
    },
    {
      "channel": 2,
      "note": 45,
      "start": 99.0677,
      "duration": 0.0161,
      "velocity": 102,
      "chip": "ym2612"
    },
    {
      "channel": 3,
      "note": 45,
      "start": 99.0683,
      "duration": 0.1483,
      "velocity": 117,
      "chip": "ym2612"
    },
    {
      "channel": 1,
      "note": 45,
      "start": 99.2158,
      "duration": 0.1484,
      "velocity": 101,
      "chip": "ym2612"
    },
    {
      "channel": 2,
      "note": 47,
      "start": 99.2165,
      "duration": 0.0162,
      "velocity": 102,
      "chip": "ym2612"
    },
    {
      "channel": 3,
      "note": 33,
      "start": 99.2171,
      "duration": 0.1487,
      "velocity": 117,
      "chip": "ym2612"
    },
    {
      "channel": 0,
      "note": 21,
      "start": 99.3641,
      "duration": 0.1483,
      "velocity": 87,
      "chip": "ym2612"
    },
    {
      "channel": 1,
      "note": 45,
      "start": 99.3649,
      "duration": 0.1483,
      "velocity": 102,
      "chip": "ym2612"
    },
    {
      "channel": 2,
      "note": 45,
      "start": 99.3656,
      "duration": 0.0161,
      "velocity": 102,
      "chip": "ym2612"
    },
    {
      "channel": 3,
      "note": 45,
      "start": 99.3663,
      "duration": 0.1485,
      "velocity": 117,
      "chip": "ym2612"
    },
    {
      "channel": 0,
      "note": 33,
      "start": 99.5131,
      "duration": 0.1483,
      "velocity": 87,
      "chip": "ym2612"
    },
    {
      "channel": 1,
      "note": 45,
      "start": 99.5139,
      "duration": 0.1483,
      "velocity": 103,
      "chip": "ym2612"
    },
    {
      "channel": 2,
      "note": 45,
      "start": 99.5146,
      "duration": 0.0161,
      "velocity": 102,
      "chip": "ym2612"
    },
    {
      "channel": 3,
      "note": 33,
      "start": 99.5152,
      "duration": 0.1485,
      "velocity": 117,
      "chip": "ym2612"
    },
    {
      "channel": 0,
      "note": 21,
      "start": 99.662,
      "duration": 0.1483,
      "velocity": 87,
      "chip": "ym2612"
    },
    {
      "channel": 1,
      "note": 45,
      "start": 99.6629,
      "duration": 0.1483,
      "velocity": 104,
      "chip": "ym2612"
    },
    {
      "channel": 2,
      "note": 45,
      "start": 99.6636,
      "duration": 0.0161,
      "velocity": 102,
      "chip": "ym2612"
    },
    {
      "channel": 3,
      "note": 33,
      "start": 99.6642,
      "duration": 0.1485,
      "velocity": 117,
      "chip": "ym2612"
    },
    {
      "channel": 0,
      "note": 33,
      "start": 99.811,
      "duration": 0.1483,
      "velocity": 87,
      "chip": "ym2612"
    },
    {
      "channel": 1,
      "note": 45,
      "start": 99.8119,
      "duration": 0.1483,
      "velocity": 105,
      "chip": "ym2612"
    },
    {
      "channel": 2,
      "note": 47,
      "start": 99.8126,
      "duration": 0.0161,
      "velocity": 102,
      "chip": "ym2612"
    },
    {
      "channel": 3,
      "note": 45,
      "start": 99.8132,
      "duration": 0.1485,
      "velocity": 117,
      "chip": "ym2612"
    },
    {
      "channel": 0,
      "note": 21,
      "start": 99.96,
      "duration": 0.0826,
      "velocity": 87,
      "chip": "ym2612"
    },
    {
      "channel": 1,
      "note": 45,
      "start": 99.9608,
      "duration": 0.1488,
      "velocity": 106,
      "chip": "ym2612"
    },
    {
      "channel": 2,
      "note": 45,
      "start": 99.9615,
      "duration": 0.0161,
      "velocity": 102,
      "chip": "ym2612"
    },
    {
      "channel": 3,
      "note": 33,
      "start": 99.9622,
      "duration": 0.149,
      "velocity": 117,
      "chip": "ym2612"
    },
    {
      "channel": 0,
      "note": 33,
      "start": 100.1094,
      "duration": 2.3824,
      "velocity": 108,
      "chip": "ym2612"
    },
    {
      "channel": 1,
      "note": 45,
      "start": 100.1103,
      "duration": 0.1475,
      "velocity": 107,
      "chip": "ym2612"
    },
    {
      "channel": 2,
      "note": 48,
      "start": 100.111,
      "duration": 0.0154,
      "velocity": 102,
      "chip": "ym2612"
    },
    {
      "channel": 3,
      "note": 33,
      "start": 100.1117,
      "duration": 0.1478,
      "velocity": 117,
      "chip": "ym2612"
    },
    {
      "channel": 4,
      "note": 21,
      "start": 100.113,
      "duration": 0.2298,
      "velocity": 87,
      "chip": "ym2612"
    },
    {
      "channel": 5,
      "note": 7,
      "start": 100.1137,
      "duration": 2.3151,
      "velocity": 1,
      "chip": "ym2612"
    },
    {
      "channel": 1,
      "note": 45,
      "start": 100.2585,
      "duration": 0.1483,
      "velocity": 106,
      "chip": "ym2612"
    },
    {
      "channel": 2,
      "note": 42,
      "start": 100.2593,
      "duration": 0.0162,
      "velocity": 102,
      "chip": "ym2612"
    },
    {
      "channel": 3,
      "note": 42,
      "start": 100.2599,
      "duration": 0.1485,
      "velocity": 117,
      "chip": "ym2612"
    },
    {
      "channel": 1,
      "note": 45,
      "start": 100.4075,
      "duration": 0.1483,
      "velocity": 105,
      "chip": "ym2612"
    },
    {
      "channel": 2,
      "note": 44,
      "start": 100.4082,
      "duration": 0.0162,
      "velocity": 102,
      "chip": "ym2612"
    },
    {
      "channel": 3,
      "note": 30,
      "start": 100.4089,
      "duration": 0.1485,
      "velocity": 117,
      "chip": "ym2612"
    },
    {
      "channel": 4,
      "note": 30,
      "start": 100.4096,
      "duration": 0.1484,
      "velocity": 87,
      "chip": "ym2612"
    },
    {
      "channel": 1,
      "note": 45,
      "start": 100.5565,
      "duration": 0.1482,
      "velocity": 104,
      "chip": "ym2612"
    },
    {
      "channel": 2,
      "note": 42,
      "start": 100.5572,
      "duration": 0.0162,
      "velocity": 102,
      "chip": "ym2612"
    },
    {
      "channel": 3,
      "note": 30,
      "start": 100.5578,
      "duration": 0.1485,
      "velocity": 117,
      "chip": "ym2612"
    },
    {
      "channel": 4,
      "note": 18,
      "start": 100.5586,
      "duration": 0.1484,
      "velocity": 87,
      "chip": "ym2612"
    },
    {
      "channel": 1,
      "note": 45,
      "start": 100.7054,
      "duration": 0.1483,
      "velocity": 103,
      "chip": "ym2612"
    },
    {
      "channel": 2,
      "note": 45,
      "start": 100.7062,
      "duration": 0.0162,
      "velocity": 102,
      "chip": "ym2612"
    },
    {
      "channel": 3,
      "note": 42,
      "start": 100.7068,
      "duration": 0.1484,
      "velocity": 117,
      "chip": "ym2612"
    },
    {
      "channel": 4,
      "note": 30,
      "start": 100.7076,
      "duration": 0.231,
      "velocity": 87,
      "chip": "ym2612"
    },
    {
      "channel": 1,
      "note": 45,
      "start": 100.8544,
      "duration": 0.1483,
      "velocity": 102,
      "chip": "ym2612"
    },
    {
      "channel": 2,
      "note": 42,
      "start": 100.8551,
      "duration": 0.0162,
      "velocity": 102,
      "chip": "ym2612"
    },
    {
      "channel": 3,
      "note": 30,
      "start": 100.8558,
      "duration": 0.1485,
      "velocity": 117,
      "chip": "ym2612"
    },
    {
      "channel": 1,
      "note": 45,
      "start": 101.0034,
      "duration": 0.1483,
      "velocity": 101,
      "chip": "ym2612"
    },
    {
      "channel": 2,
      "note": 44,
      "start": 101.0041,
      "duration": 0.0162,
      "velocity": 102,
      "chip": "ym2612"
    },
    {
      "channel": 3,
      "note": 30,
      "start": 101.0047,
      "duration": 0.1485,
      "velocity": 117,
      "chip": "ym2612"
    },
    {
      "channel": 4,
      "note": 18,
      "start": 101.0055,
      "duration": 0.1484,
      "velocity": 87,
      "chip": "ym2612"
    },
    {
      "channel": 1,
      "note": 45,
      "start": 101.1524,
      "duration": 0.1483,
      "velocity": 100,
      "chip": "ym2612"
    },
    {
      "channel": 2,
      "note": 42,
      "start": 101.1531,
      "duration": 0.0162,
      "velocity": 102,
      "chip": "ym2612"
    },
    {
      "channel": 3,
      "note": 42,
      "start": 101.1537,
      "duration": 0.1485,
      "velocity": 117,
      "chip": "ym2612"
    },
    {
      "channel": 4,
      "note": 30,
      "start": 101.1545,
      "duration": 0.1483,
      "velocity": 87,
      "chip": "ym2612"
    },
    {
      "channel": 1,
      "note": 45,
      "start": 101.3014,
      "duration": 0.1483,
      "velocity": 99,
      "chip": "ym2612"
    },
    {
      "channel": 2,
      "note": 45,
      "start": 101.3021,
      "duration": 0.0162,
      "velocity": 102,
      "chip": "ym2612"
    },
    {
      "channel": 3,
      "note": 30,
      "start": 101.3027,
      "duration": 0.1485,
      "velocity": 117,
      "chip": "ym2612"
    },
    {
      "channel": 4,
      "note": 18,
      "start": 101.3035,
      "duration": 0.1483,
      "velocity": 87,
      "chip": "ym2612"
    },
    {
      "channel": 1,
      "note": 45,
      "start": 101.4503,
      "duration": 0.1483,
      "velocity": 100,
      "chip": "ym2612"
    },
    {
      "channel": 2,
      "note": 42,
      "start": 101.451,
      "duration": 0.0162,
      "velocity": 102,
      "chip": "ym2612"
    },
    {
      "channel": 3,
      "note": 42,
      "start": 101.4517,
      "duration": 0.1485,
      "velocity": 117,
      "chip": "ym2612"
    },
    {
      "channel": 4,
      "note": 18,
      "start": 101.4524,
      "duration": 0.1483,
      "velocity": 87,
      "chip": "ym2612"
    },
    {
      "channel": 1,
      "note": 45,
      "start": 101.5993,
      "duration": 0.1482,
      "velocity": 101,
      "chip": "ym2612"
    },
    {
      "channel": 2,
      "note": 44,
      "start": 101.6,
      "duration": 0.0162,
      "velocity": 102,
      "chip": "ym2612"
    },
    {
      "channel": 3,
      "note": 30,
      "start": 101.6007,
      "duration": 0.1485,
      "velocity": 117,
      "chip": "ym2612"
    },
    {
      "channel": 4,
      "note": 30,
      "start": 101.6014,
      "duration": 0.1483,
      "velocity": 87,
      "chip": "ym2612"
    },
    {
      "channel": 1,
      "note": 45,
      "start": 101.7483,
      "duration": 0.1483,
      "velocity": 102,
      "chip": "ym2612"
    },
    {
      "channel": 2,
      "note": 45,
      "start": 101.749,
      "duration": 0.0162,
      "velocity": 102,
      "chip": "ym2612"
    },
    {
      "channel": 3,
      "note": 30,
      "start": 101.7496,
      "duration": 0.1485,
      "velocity": 117,
      "chip": "ym2612"
    },
    {
      "channel": 4,
      "note": 18,
      "start": 101.7503,
      "duration": 0.1484,
      "velocity": 87,
      "chip": "ym2612"
    },
    {
      "channel": 1,
      "note": 45,
      "start": 101.8972,
      "duration": 0.1483,
      "velocity": 103,
      "chip": "ym2612"
    },
    {
      "channel": 2,
      "note": 42,
      "start": 101.8979,
      "duration": 0.0162,
      "velocity": 102,
      "chip": "ym2612"
    },
    {
      "channel": 3,
      "note": 42,
      "start": 101.8986,
      "duration": 0.1485,
      "velocity": 117,
      "chip": "ym2612"
    },
    {
      "channel": 4,
      "note": 30,
      "start": 101.8993,
      "duration": 0.1483,
      "velocity": 87,
      "chip": "ym2612"
    },
    {
      "channel": 1,
      "note": 45,
      "start": 102.0462,
      "duration": 0.1483,
      "velocity": 104,
      "chip": "ym2612"
    },
    {
      "channel": 2,
      "note": 44,
      "start": 102.0469,
      "duration": 0.0162,
      "velocity": 102,
      "chip": "ym2612"
    },
    {
      "channel": 3,
      "note": 30,
      "start": 102.0476,
      "duration": 0.1485,
      "velocity": 117,
      "chip": "ym2612"
    },
    {
      "channel": 4,
      "note": 18,
      "start": 102.0483,
      "duration": 0.1484,
      "velocity": 87,
      "chip": "ym2612"
    },
    {
      "channel": 1,
      "note": 45,
      "start": 102.1952,
      "duration": 0.1483,
      "velocity": 105,
      "chip": "ym2612"
    },
    {
      "channel": 2,
      "note": 47,
      "start": 102.1959,
      "duration": 0.0162,
      "velocity": 102,
      "chip": "ym2612"
    },
    {
      "channel": 3,
      "note": 42,
      "start": 102.1965,
      "duration": 0.1485,
      "velocity": 117,
      "chip": "ym2612"
    },
    {
      "channel": 4,
      "note": 18,
      "start": 102.1973,
      "duration": 0.1483,
      "velocity": 87,
      "chip": "ym2612"
    },
    {
      "channel": 1,
      "note": 45,
      "start": 102.3442,
      "duration": 0.1484,
      "velocity": 106,
      "chip": "ym2612"
    },
    {
      "channel": 2,
      "note": 42,
      "start": 102.3449,
      "duration": 0.0162,
      "velocity": 102,
      "chip": "ym2612"
    },
    {
      "channel": 3,
      "note": 42,
      "start": 102.3455,
      "duration": 0.1487,
      "velocity": 117,
      "chip": "ym2612"
    },
    {
      "channel": 4,
      "note": 30,
      "start": 102.3463,
      "duration": 0.1485,
      "velocity": 87,
      "chip": "ym2612"
    },
    {
      "channel": 0,
      "note": 33,
      "start": 102.4924,
      "duration": 2.383,
      "velocity": 108,
      "chip": "ym2612"
    },
    {
      "channel": 1,
      "note": 45,
      "start": 102.4933,
      "duration": 0.1481,
      "velocity": 107,
      "chip": "ym2612"
    },
    {
      "channel": 2,
      "note": 45,
      "start": 102.494,
      "duration": 0.016,
      "velocity": 102,
      "chip": "ym2612"
    },
    {
      "channel": 3,
      "note": 30,
      "start": 102.4946,
      "duration": 0.1483,
      "velocity": 117,
      "chip": "ym2612"
    },
    {
      "channel": 4,
      "note": 18,
      "start": 102.4954,
      "duration": 0.2309,
      "velocity": 87,
      "chip": "ym2612"
    },
    {
      "channel": 5,
      "note": 7,
      "start": 102.4961,
      "duration": 2.3163,
      "velocity": 1,
      "chip": "ym2612"
    },
    {
      "channel": 1,
      "note": 45,
      "start": 102.6421,
      "duration": 0.1482,
      "velocity": 106,
      "chip": "ym2612"
    },
    {
      "channel": 2,
      "note": 42,
      "start": 102.6428,
      "duration": 0.0162,
      "velocity": 102,
      "chip": "ym2612"
    },
    {
      "channel": 3,
      "note": 42,
      "start": 102.6435,
      "duration": 0.1485,
      "velocity": 117,
      "chip": "ym2612"
    },
    {
      "channel": 1,
      "note": 45,
      "start": 102.7911,
      "duration": 0.1483,
      "velocity": 105,
      "chip": "ym2612"
    },
    {
      "channel": 2,
      "note": 44,
      "start": 102.7918,
      "duration": 0.0162,
      "velocity": 102,
      "chip": "ym2612"
    },
    {
      "channel": 3,
      "note": 30,
      "start": 102.7924,
      "duration": 0.1485,
      "velocity": 117,
      "chip": "ym2612"
    },
    {
      "channel": 4,
      "note": 30,
      "start": 102.7932,
      "duration": 0.2312,
      "velocity": 87,
      "chip": "ym2612"
    },
    {
      "channel": 1,
      "note": 45,
      "start": 102.9401,
      "duration": 0.1482,
      "velocity": 104,
      "chip": "ym2612"
    },
    {
      "channel": 2,
      "note": 42,
      "start": 102.9408,
      "duration": 0.0162,
      "velocity": 102,
      "chip": "ym2612"
    },
    {
      "channel": 3,
      "note": 30,
      "start": 102.9414,
      "duration": 0.1485,
      "velocity": 117,
      "chip": "ym2612"
    },
    {
      "channel": 1,
      "note": 45,
      "start": 103.089,
      "duration": 0.1483,
      "velocity": 103,
      "chip": "ym2612"
    },
    {
      "channel": 2,
      "note": 45,
      "start": 103.0898,
      "duration": 0.0162,
      "velocity": 102,
      "chip": "ym2612"
    },
    {
      "channel": 3,
      "note": 42,
      "start": 103.0904,
      "duration": 0.1484,
      "velocity": 117,
      "chip": "ym2612"
    },
    {
      "channel": 4,
      "note": 18,
      "start": 103.0912,
      "duration": 0.231,
      "velocity": 87,
      "chip": "ym2612"
    },
    {
      "channel": 1,
      "note": 45,
      "start": 103.238,
      "duration": 0.1483,
      "velocity": 102,
      "chip": "ym2612"
    },
    {
      "channel": 2,
      "note": 42,
      "start": 103.2387,
      "duration": 0.0162,
      "velocity": 102,
      "chip": "ym2612"
    },
    {
      "channel": 3,
      "note": 30,
      "start": 103.2393,
      "duration": 0.1485,
      "velocity": 117,
      "chip": "ym2612"
    },
    {
      "channel": 1,
      "note": 45,
      "start": 103.387,
      "duration": 0.1482,
      "velocity": 101,
      "chip": "ym2612"
    },
    {
      "channel": 2,
      "note": 44,
      "start": 103.3877,
      "duration": 0.0162,
      "velocity": 102,
      "chip": "ym2612"
    },
    {
      "channel": 3,
      "note": 42,
      "start": 103.3883,
      "duration": 0.1485,
      "velocity": 117,
      "chip": "ym2612"
    },
    {
      "channel": 4,
      "note": 18,
      "start": 103.3891,
      "duration": 0.1483,
      "velocity": 87,
      "chip": "ym2612"
    },
    {
      "channel": 1,
      "note": 45,
      "start": 103.5359,
      "duration": 0.1483,
      "velocity": 100,
      "chip": "ym2612"
    },
    {
      "channel": 2,
      "note": 42,
      "start": 103.5366,
      "duration": 0.0162,
      "velocity": 102,
      "chip": "ym2612"
    },
    {
      "channel": 3,
      "note": 30,
      "start": 103.5372,
      "duration": 0.1485,
      "velocity": 117,
      "chip": "ym2612"
    },
    {
      "channel": 4,
      "note": 30,
      "start": 103.538,
      "duration": 0.1484,
      "velocity": 87,
      "chip": "ym2612"
    },
    {
      "channel": 1,
      "note": 45,
      "start": 103.6849,
      "duration": 0.1483,
      "velocity": 99,
      "chip": "ym2612"
    },
    {
      "channel": 2,
      "note": 45,
      "start": 103.6856,
      "duration": 0.0162,
      "velocity": 102,
      "chip": "ym2612"
    },
    {
      "channel": 3,
      "note": 30,
      "start": 103.6862,
      "duration": 0.1485,
      "velocity": 117,
      "chip": "ym2612"
    },
    {
      "channel": 4,
      "note": 18,
      "start": 103.687,
      "duration": 0.1484,
      "velocity": 87,
      "chip": "ym2612"
    },
    {
      "channel": 1,
      "note": 45,
      "start": 103.8339,
      "duration": 0.1483,
      "velocity": 100,
      "chip": "ym2612"
    },
    {
      "channel": 2,
      "note": 42,
      "start": 103.8346,
      "duration": 0.0162,
      "velocity": 102,
      "chip": "ym2612"
    },
    {
      "channel": 3,
      "note": 42,
      "start": 103.8352,
      "duration": 0.1485,
      "velocity": 117,
      "chip": "ym2612"
    },
    {
      "channel": 4,
      "note": 30,
      "start": 103.836,
      "duration": 0.2311,
      "velocity": 87,
      "chip": "ym2612"
    },
    {
      "channel": 1,
      "note": 45,
      "start": 103.9829,
      "duration": 0.1483,
      "velocity": 101,
      "chip": "ym2612"
    },
    {
      "channel": 2,
      "note": 44,
      "start": 103.9836,
      "duration": 0.0162,
      "velocity": 102,
      "chip": "ym2612"
    },
    {
      "channel": 3,
      "note": 30,
      "start": 103.9842,
      "duration": 0.1485,
      "velocity": 117,
      "chip": "ym2612"
    },
    {
      "channel": 1,
      "note": 45,
      "start": 104.1318,
      "duration": 0.1483,
      "velocity": 102,
      "chip": "ym2612"
    },
    {
      "channel": 2,
      "note": 42,
      "start": 104.1325,
      "duration": 0.0162,
      "velocity": 102,
      "chip": "ym2612"
    },
    {
      "channel": 3,
      "note": 42,
      "start": 104.1332,
      "duration": 0.1485,
      "velocity": 117,
      "chip": "ym2612"
    },
    {
      "channel": 4,
      "note": 18,
      "start": 104.1339,
      "duration": 0.1484,
      "velocity": 87,
      "chip": "ym2612"
    },
    {
      "channel": 1,
      "note": 45,
      "start": 104.2808,
      "duration": 0.1483,
      "velocity": 103,
      "chip": "ym2612"
    },
    {
      "channel": 2,
      "note": 42,
      "start": 104.2815,
      "duration": 0.0162,
      "velocity": 102,
      "chip": "ym2612"
    },
    {
      "channel": 3,
      "note": 30,
      "start": 104.2822,
      "duration": 0.1485,
      "velocity": 117,
      "chip": "ym2612"
    },
    {
      "channel": 4,
      "note": 30,
      "start": 104.2829,
      "duration": 0.1483,
      "velocity": 87,
      "chip": "ym2612"
    },
    {
      "channel": 1,
      "note": 45,
      "start": 104.4298,
      "duration": 0.1482,
      "velocity": 104,
      "chip": "ym2612"
    },
    {
      "channel": 2,
      "note": 42,
      "start": 104.4305,
      "duration": 0.0162,
      "velocity": 102,
      "chip": "ym2612"
    },
    {
      "channel": 3,
      "note": 30,
      "start": 104.4311,
      "duration": 0.1485,
      "velocity": 117,
      "chip": "ym2612"
    },
    {
      "channel": 4,
      "note": 18,
      "start": 104.4319,
      "duration": 0.1483,
      "velocity": 87,
      "chip": "ym2612"
    },
    {
      "channel": 1,
      "note": 45,
      "start": 104.5787,
      "duration": 0.1483,
      "velocity": 105,
      "chip": "ym2612"
    },
    {
      "channel": 2,
      "note": 44,
      "start": 104.5794,
      "duration": 0.0162,
      "velocity": 102,
      "chip": "ym2612"
    },
    {
      "channel": 3,
      "note": 42,
      "start": 104.58,
      "duration": 0.1485,
      "velocity": 117,
      "chip": "ym2612"
    },
    {
      "channel": 4,
      "note": 30,
      "start": 104.5808,
      "duration": 0.1484,
      "velocity": 87,
      "chip": "ym2612"
    },
    {
      "channel": 1,
      "note": 45,
      "start": 104.7277,
      "duration": 0.1485,
      "velocity": 106,
      "chip": "ym2612"
    },
    {
      "channel": 2,
      "note": 42,
      "start": 104.7284,
      "duration": 0.0162,
      "velocity": 102,
      "chip": "ym2612"
    },
    {
      "channel": 3,
      "note": 30,
      "start": 104.729,
      "duration": 0.1487,
      "velocity": 117,
      "chip": "ym2612"
    },
    {
      "channel": 4,
      "note": 18,
      "start": 104.7298,
      "duration": 0.0821,
      "velocity": 87,
      "chip": "ym2612"
    },
    {
      "channel": 0,
      "note": 33,
      "start": 104.876,
      "duration": 2.383,
      "velocity": 108,
      "chip": "ym2612"
    },
    {
      "channel": 1,
      "note": 45,
      "start": 104.8769,
      "duration": 0.1481,
      "velocity": 107,
      "chip": "ym2612"
    },
    {
      "channel": 2,
      "note": 45,
      "start": 104.8776,
      "duration": 0.016,
      "velocity": 102,
      "chip": "ym2612"
    },
    {
      "channel": 3,
      "note": 30,
      "start": 104.8782,
      "duration": 0.1483,
      "velocity": 117,
      "chip": "ym2612"
    },
    {
      "channel": 4,
      "note": 18,
      "start": 104.879,
      "duration": 0.2309,
      "velocity": 87,
      "chip": "ym2612"
    },
    {
      "channel": 5,
      "note": 7,
      "start": 104.8796,
      "duration": 2.3163,
      "velocity": 1,
      "chip": "ym2612"
    },
    {
      "channel": 1,
      "note": 45,
      "start": 105.0257,
      "duration": 0.1483,
      "velocity": 106,
      "chip": "ym2612"
    },
    {
      "channel": 2,
      "note": 43,
      "start": 105.0264,
      "duration": 0.0162,
      "velocity": 102,
      "chip": "ym2612"
    },
    {
      "channel": 3,
      "note": 43,
      "start": 105.027,
      "duration": 0.1485,
      "velocity": 117,
      "chip": "ym2612"
    },
    {
      "channel": 1,
      "note": 45,
      "start": 105.1746,
      "duration": 0.1483,
      "velocity": 105,
      "chip": "ym2612"
    },
    {
      "channel": 2,
      "note": 45,
      "start": 105.1754,
      "duration": 0.0162,
      "velocity": 102,
      "chip": "ym2612"
    },
    {
      "channel": 3,
      "note": 31,
      "start": 105.176,
      "duration": 0.1485,
      "velocity": 117,
      "chip": "ym2612"
    },
    {
      "channel": 4,
      "note": 31,
      "start": 105.1767,
      "duration": 0.1484,
      "velocity": 87,
      "chip": "ym2612"
    },
    {
      "channel": 1,
      "note": 45,
      "start": 105.3236,
      "duration": 0.1483,
      "velocity": 104,
      "chip": "ym2612"
    },
    {
      "channel": 2,
      "note": 43,
      "start": 105.3243,
      "duration": 0.0162,
      "velocity": 102,
      "chip": "ym2612"
    },
    {
      "channel": 3,
      "note": 31,
      "start": 105.325,
      "duration": 0.1485,
      "velocity": 117,
      "chip": "ym2612"
    },
    {
      "channel": 4,
      "note": 19,
      "start": 105.3257,
      "duration": 0.1484,
      "velocity": 87,
      "chip": "ym2612"
    },
    {
      "channel": 1,
      "note": 45,
      "start": 105.4726,
      "duration": 0.1482,
      "velocity": 103,
      "chip": "ym2612"
    },
    {
      "channel": 2,
      "note": 46,
      "start": 105.4733,
      "duration": 0.0162,
      "velocity": 102,
      "chip": "ym2612"
    },
    {
      "channel": 3,
      "note": 43,
      "start": 105.4739,
      "duration": 0.1485,
      "velocity": 117,
      "chip": "ym2612"
    },
    {
      "channel": 4,
      "note": 31,
      "start": 105.4748,
      "duration": 0.231,
      "velocity": 87,
      "chip": "ym2612"
    },
    {
      "channel": 1,
      "note": 45,
      "start": 105.6215,
      "duration": 0.1483,
      "velocity": 102,
      "chip": "ym2612"
    },
    {
      "channel": 2,
      "note": 43,
      "start": 105.6222,
      "duration": 0.0162,
      "velocity": 102,
      "chip": "ym2612"
    },
    {
      "channel": 3,
      "note": 31,
      "start": 105.6229,
      "duration": 0.1484,
      "velocity": 117,
      "chip": "ym2612"
    },
    {
      "channel": 1,
      "note": 45,
      "start": 105.7705,
      "duration": 0.1483,
      "velocity": 101,
      "chip": "ym2612"
    },
    {
      "channel": 2,
      "note": 45,
      "start": 105.7712,
      "duration": 0.0162,
      "velocity": 102,
      "chip": "ym2612"
    },
    {
      "channel": 3,
      "note": 31,
      "start": 105.7718,
      "duration": 0.1485,
      "velocity": 117,
      "chip": "ym2612"
    },
    {
      "channel": 4,
      "note": 19,
      "start": 105.7727,
      "duration": 0.1483,
      "velocity": 87,
      "chip": "ym2612"
    },
    {
      "channel": 1,
      "note": 45,
      "start": 105.9195,
      "duration": 0.1483,
      "velocity": 100,
      "chip": "ym2612"
    },
    {
      "channel": 2,
      "note": 43,
      "start": 105.9202,
      "duration": 0.0162,
      "velocity": 102,
      "chip": "ym2612"
    },
    {
      "channel": 3,
      "note": 43,
      "start": 105.9208,
      "duration": 0.1485,
      "velocity": 117,
      "chip": "ym2612"
    },
    {
      "channel": 4,
      "note": 31,
      "start": 105.9216,
      "duration": 0.1483,
      "velocity": 87,
      "chip": "ym2612"
    },
    {
      "channel": 1,
      "note": 45,
      "start": 106.0685,
      "duration": 0.1483,
      "velocity": 99,
      "chip": "ym2612"
    },
    {
      "channel": 2,
      "note": 46,
      "start": 106.0692,
      "duration": 0.0162,
      "velocity": 102,
      "chip": "ym2612"
    },
    {
      "channel": 3,
      "note": 31,
      "start": 106.0698,
      "duration": 0.1485,
      "velocity": 117,
      "chip": "ym2612"
    },
    {
      "channel": 4,
      "note": 19,
      "start": 106.0706,
      "duration": 0.1483,
      "velocity": 87,
      "chip": "ym2612"
    },
    {
      "channel": 1,
      "note": 45,
      "start": 106.2175,
      "duration": 0.1483,
      "velocity": 100,
      "chip": "ym2612"
    },
    {
      "channel": 2,
      "note": 43,
      "start": 106.2182,
      "duration": 0.0162,
      "velocity": 102,
      "chip": "ym2612"
    },
    {
      "channel": 3,
      "note": 43,
      "start": 106.2188,
      "duration": 0.1485,
      "velocity": 117,
      "chip": "ym2612"
    },
    {
      "channel": 4,
      "note": 19,
      "start": 106.2195,
      "duration": 0.1484,
      "velocity": 87,
      "chip": "ym2612"
    },
    {
      "channel": 1,
      "note": 45,
      "start": 106.3664,
      "duration": 0.1482,
      "velocity": 101,
      "chip": "ym2612"
    },
    {
      "channel": 2,
      "note": 45,
      "start": 106.3671,
      "duration": 0.0161,
      "velocity": 102,
      "chip": "ym2612"
    },
    {
      "channel": 3,
      "note": 31,
      "start": 106.3678,
      "duration": 0.1485,
      "velocity": 117,
      "chip": "ym2612"
    },
    {
      "channel": 4,
      "note": 31,
      "start": 106.3685,
      "duration": 0.1483,
      "velocity": 87,
      "chip": "ym2612"
    },
    {
      "channel": 1,
      "note": 45,
      "start": 106.5154,
      "duration": 0.1483,
      "velocity": 102,
      "chip": "ym2612"
    },
    {
      "channel": 2,
      "note": 46,
      "start": 106.5161,
      "duration": 0.0162,
      "velocity": 102,
      "chip": "ym2612"
    },
    {
      "channel": 3,
      "note": 31,
      "start": 106.5167,
      "duration": 0.1485,
      "velocity": 117,
      "chip": "ym2612"
    },
    {
      "channel": 4,
      "note": 19,
      "start": 106.5175,
      "duration": 0.1484,
      "velocity": 87,
      "chip": "ym2612"
    },
    {
      "channel": 1,
      "note": 45,
      "start": 106.6643,
      "duration": 0.1483,
      "velocity": 103,
      "chip": "ym2612"
    },
    {
      "channel": 2,
      "note": 43,
      "start": 106.665,
      "duration": 0.0162,
      "velocity": 102,
      "chip": "ym2612"
    },
    {
      "channel": 3,
      "note": 43,
      "start": 106.6657,
      "duration": 0.1485,
      "velocity": 117,
      "chip": "ym2612"
    },
    {
      "channel": 4,
      "note": 31,
      "start": 106.6664,
      "duration": 0.1483,
      "velocity": 87,
      "chip": "ym2612"
    },
    {
      "channel": 1,
      "note": 45,
      "start": 106.8133,
      "duration": 0.1483,
      "velocity": 104,
      "chip": "ym2612"
    },
    {
      "channel": 2,
      "note": 45,
      "start": 106.814,
      "duration": 0.0162,
      "velocity": 102,
      "chip": "ym2612"
    },
    {
      "channel": 3,
      "note": 31,
      "start": 106.8146,
      "duration": 0.1485,
      "velocity": 117,
      "chip": "ym2612"
    },
    {
      "channel": 4,
      "note": 19,
      "start": 106.8154,
      "duration": 0.1483,
      "velocity": 87,
      "chip": "ym2612"
    },
    {
      "channel": 1,
      "note": 45,
      "start": 106.9623,
      "duration": 0.1483,
      "velocity": 105,
      "chip": "ym2612"
    },
    {
      "channel": 2,
      "note": 48,
      "start": 106.963,
      "duration": 0.0162,
      "velocity": 102,
      "chip": "ym2612"
    },
    {
      "channel": 3,
      "note": 43,
      "start": 106.9637,
      "duration": 0.1485,
      "velocity": 117,
      "chip": "ym2612"
    },
    {
      "channel": 4,
      "note": 19,
      "start": 106.9644,
      "duration": 0.1483,
      "velocity": 87,
      "chip": "ym2612"
    },
    {
      "channel": 1,
      "note": 45,
      "start": 107.1113,
      "duration": 0.1485,
      "velocity": 106,
      "chip": "ym2612"
    },
    {
      "channel": 2,
      "note": 43,
      "start": 107.112,
      "duration": 0.0162,
      "velocity": 102,
      "chip": "ym2612"
    },
    {
      "channel": 3,
      "note": 43,
      "start": 107.1126,
      "duration": 0.1487,
      "velocity": 117,
      "chip": "ym2612"
    },
    {
      "channel": 4,
      "note": 31,
      "start": 107.1134,
      "duration": 0.1485,
      "velocity": 87,
      "chip": "ym2612"
    },
    {
      "channel": 0,
      "note": 31,
      "start": 107.2596,
      "duration": 2.383,
      "velocity": 108,
      "chip": "ym2612"
    },
    {
      "channel": 1,
      "note": 45,
      "start": 107.2604,
      "duration": 0.1482,
      "velocity": 107,
      "chip": "ym2612"
    },
    {
      "channel": 2,
      "note": 46,
      "start": 107.2611,
      "duration": 0.0161,
      "velocity": 102,
      "chip": "ym2612"
    },
    {
      "channel": 3,
      "note": 31,
      "start": 107.2617,
      "duration": 0.1483,
      "velocity": 117,
      "chip": "ym2612"
    },
    {
      "channel": 4,
      "note": 19,
      "start": 107.2625,
      "duration": 0.2309,
      "velocity": 87,
      "chip": "ym2612"
    },
    {
      "channel": 5,
      "note": 7,
      "start": 107.2632,
      "duration": 2.3163,
      "velocity": 1,
      "chip": "ym2612"
    },
    {
      "channel": 1,
      "note": 45,
      "start": 107.4093,
      "duration": 0.1482,
      "velocity": 106,
      "chip": "ym2612"
    },
    {
      "channel": 2,
      "note": 43,
      "start": 107.41,
      "duration": 0.0161,
      "velocity": 102,
      "chip": "ym2612"
    },
    {
      "channel": 3,
      "note": 43,
      "start": 107.4106,
      "duration": 0.1485,
      "velocity": 117,
      "chip": "ym2612"
    },
    {
      "channel": 1,
      "note": 45,
      "start": 107.5582,
      "duration": 0.1483,
      "velocity": 105,
      "chip": "ym2612"
    },
    {
      "channel": 2,
      "note": 45,
      "start": 107.5589,
      "duration": 0.0162,
      "velocity": 102,
      "chip": "ym2612"
    },
    {
      "channel": 3,
      "note": 31,
      "start": 107.5595,
      "duration": 0.1485,
      "velocity": 117,
      "chip": "ym2612"
    },
    {
      "channel": 4,
      "note": 31,
      "start": 107.5603,
      "duration": 0.2312,
      "velocity": 87,
      "chip": "ym2612"
    },
    {
      "channel": 1,
      "note": 45,
      "start": 107.7072,
      "duration": 0.1482,
      "velocity": 104,
      "chip": "ym2612"
    },
    {
      "channel": 2,
      "note": 43,
      "start": 107.7079,
      "duration": 0.0162,
      "velocity": 102,
      "chip": "ym2612"
    },
    {
      "channel": 3,
      "note": 31,
      "start": 107.7085,
      "duration": 0.1485,
      "velocity": 117,
      "chip": "ym2612"
    },
    {
      "channel": 1,
      "note": 45,
      "start": 107.8562,
      "duration": 0.1482,
      "velocity": 103,
      "chip": "ym2612"
    },
    {
      "channel": 2,
      "note": 46,
      "start": 107.8569,
      "duration": 0.0162,
      "velocity": 102,
      "chip": "ym2612"
    },
    {
      "channel": 3,
      "note": 43,
      "start": 107.8575,
      "duration": 0.1485,
      "velocity": 117,
      "chip": "ym2612"
    },
    {
      "channel": 4,
      "note": 19,
      "start": 107.8583,
      "duration": 0.2311,
      "velocity": 87,
      "chip": "ym2612"
    },
    {
      "channel": 1,
      "note": 45,
      "start": 108.0051,
      "duration": 0.1483,
      "velocity": 102,
      "chip": "ym2612"
    },
    {
      "channel": 2,
      "note": 43,
      "start": 108.0058,
      "duration": 0.0162,
      "velocity": 102,
      "chip": "ym2612"
    },
    {
      "channel": 3,
      "note": 31,
      "start": 108.0065,
      "duration": 0.1484,
      "velocity": 117,
      "chip": "ym2612"
    },
    {
      "channel": 1,
      "note": 45,
      "start": 108.1541,
      "duration": 0.1483,
      "velocity": 101,
      "chip": "ym2612"
    },
    {
      "channel": 2,
      "note": 45,
      "start": 108.1548,
      "duration": 0.0162,
      "velocity": 102,
      "chip": "ym2612"
    },
    {
      "channel": 3,
      "note": 43,
      "start": 108.1554,
      "duration": 0.1485,
      "velocity": 117,
      "chip": "ym2612"
    },
    {
      "channel": 4,
      "note": 19,
      "start": 108.1562,
      "duration": 0.1483,
      "velocity": 87,
      "chip": "ym2612"
    },
    {
      "channel": 1,
      "note": 45,
      "start": 108.3031,
      "duration": 0.1482,
      "velocity": 100,
      "chip": "ym2612"
    },
    {
      "channel": 2,
      "note": 43,
      "start": 108.3038,
      "duration": 0.0162,
      "velocity": 102,
      "chip": "ym2612"
    },
    {
      "channel": 3,
      "note": 31,
      "start": 108.3044,
      "duration": 0.1485,
      "velocity": 117,
      "chip": "ym2612"
    },
    {
      "channel": 4,
      "note": 31,
      "start": 108.3052,
      "duration": 0.1484,
      "velocity": 87,
      "chip": "ym2612"
    },
    {
      "channel": 1,
      "note": 45,
      "start": 108.452,
      "duration": 0.1483,
      "velocity": 99,
      "chip": "ym2612"
    },
    {
      "channel": 2,
      "note": 46,
      "start": 108.4527,
      "duration": 0.0162,
      "velocity": 102,
      "chip": "ym2612"
    },
    {
      "channel": 3,
      "note": 31,
      "start": 108.4533,
      "duration": 0.1485,
      "velocity": 117,
      "chip": "ym2612"
    },
    {
      "channel": 4,
      "note": 19,
      "start": 108.4541,
      "duration": 0.1484,
      "velocity": 87,
      "chip": "ym2612"
    },
    {
      "channel": 1,
      "note": 45,
      "start": 108.601,
      "duration": 0.1483,
      "velocity": 100,
      "chip": "ym2612"
    },
    {
      "channel": 2,
      "note": 43,
      "start": 108.6017,
      "duration": 0.0162,
      "velocity": 102,
      "chip": "ym2612"
    },
    {
      "channel": 3,
      "note": 43,
      "start": 108.6023,
      "duration": 0.1485,
      "velocity": 117,
      "chip": "ym2612"
    },
    {
      "channel": 4,
      "note": 31,
      "start": 108.6031,
      "duration": 0.2311,
      "velocity": 87,
      "chip": "ym2612"
    },
    {
      "channel": 1,
      "note": 45,
      "start": 108.75,
      "duration": 0.1483,
      "velocity": 101,
      "chip": "ym2612"
    },
    {
      "channel": 2,
      "note": 45,
      "start": 108.7507,
      "duration": 0.0162,
      "velocity": 102,
      "chip": "ym2612"
    },
    {
      "channel": 3,
      "note": 31,
      "start": 108.7513,
      "duration": 0.1485,
      "velocity": 117,
      "chip": "ym2612"
    },
    {
      "channel": 1,
      "note": 45,
      "start": 108.899,
      "duration": 0.1483,
      "velocity": 102,
      "chip": "ym2612"
    },
    {
      "channel": 2,
      "note": 43,
      "start": 108.8996,
      "duration": 0.0162,
      "velocity": 102,
      "chip": "ym2612"
    },
    {
      "channel": 3,
      "note": 43,
      "start": 108.9003,
      "duration": 0.1485,
      "velocity": 117,
      "chip": "ym2612"
    },
    {
      "channel": 4,
      "note": 19,
      "start": 108.901,
      "duration": 0.1483,
      "velocity": 87,
      "chip": "ym2612"
    },
    {
      "channel": 1,
      "note": 45,
      "start": 109.0479,
      "duration": 0.1483,
      "velocity": 103,
      "chip": "ym2612"
    },
    {
      "channel": 2,
      "note": 43,
      "start": 109.0486,
      "duration": 0.0162,
      "velocity": 102,
      "chip": "ym2612"
    },
    {
      "channel": 3,
      "note": 31,
      "start": 109.0493,
      "duration": 0.1485,
      "velocity": 117,
      "chip": "ym2612"
    },
    {
      "channel": 4,
      "note": 31,
      "start": 109.05,
      "duration": 0.1483,
      "velocity": 87,
      "chip": "ym2612"
    },
    {
      "channel": 1,
      "note": 45,
      "start": 109.1969,
      "duration": 0.1483,
      "velocity": 104,
      "chip": "ym2612"
    },
    {
      "channel": 2,
      "note": 43,
      "start": 109.1976,
      "duration": 0.0162,
      "velocity": 102,
      "chip": "ym2612"
    },
    {
      "channel": 3,
      "note": 31,
      "start": 109.1983,
      "duration": 0.1485,
      "velocity": 117,
      "chip": "ym2612"
    },
    {
      "channel": 4,
      "note": 19,
      "start": 109.199,
      "duration": 0.1483,
      "velocity": 87,
      "chip": "ym2612"
    },
    {
      "channel": 1,
      "note": 45,
      "start": 109.3459,
      "duration": 0.1482,
      "velocity": 105,
      "chip": "ym2612"
    },
    {
      "channel": 2,
      "note": 45,
      "start": 109.3466,
      "duration": 0.0161,
      "velocity": 102,
      "chip": "ym2612"
    },
    {
      "channel": 3,
      "note": 43,
      "start": 109.3472,
      "duration": 0.1485,
      "velocity": 117,
      "chip": "ym2612"
    },
    {
      "channel": 4,
      "note": 31,
      "start": 109.348,
      "duration": 0.1484,
      "velocity": 87,
      "chip": "ym2612"
    },
    {
      "channel": 1,
      "note": 45,
      "start": 109.4948,
      "duration": 0.1485,
      "velocity": 106,
      "chip": "ym2612"
    },
    {
      "channel": 2,
      "note": 43,
      "start": 109.4955,
      "duration": 0.0162,
      "velocity": 102,
      "chip": "ym2612"
    },
    {
      "channel": 3,
      "note": 31,
      "start": 109.4961,
      "duration": 0.1496,
      "velocity": 117,
      "chip": "ym2612"
    },
    {
      "channel": 4,
      "note": 19,
      "start": 109.4969,
      "duration": 0.0821,
      "velocity": 87,
      "chip": "ym2612"
    },
    {
      "channel": 0,
      "note": 26,
      "start": 109.6432,
      "duration": 2.383,
      "velocity": 108,
      "chip": "ym2612"
    },
    {
      "channel": 1,
      "note": 33,
      "start": 109.6444,
      "duration": 0.0818,
      "velocity": 117,
      "chip": "ym2612"
    },
    {
      "channel": 2,
      "note": 31,
      "start": 109.6456,
      "duration": 2.3819,
      "velocity": 108,
      "chip": "ym2612"
    },
    {
      "channel": 3,
      "note": 19,
      "start": 109.6468,
      "duration": 3.5067,
      "velocity": 124,
      "chip": "ym2612"
    },
    {
      "channel": 4,
      "note": 51,
      "start": 109.6482,
      "duration": 0.1623,
      "velocity": 1,
      "chip": "ym2612"
    },
    {
      "channel": 5,
      "note": 69,
      "start": 109.6494,
      "duration": 0.1449,
      "velocity": 59,
      "chip": "ym2612"
    },
    {
      "channel": 1,
      "note": 33,
      "start": 109.7926,
      "duration": 0.0826,
      "velocity": 117,
      "chip": "ym2612"
    },
    {
      "channel": 5,
      "note": 69,
      "start": 109.7954,
      "duration": 0.1478,
      "velocity": 63,
      "chip": "ym2612"
    },
    {
      "channel": 1,
      "note": 33,
      "start": 109.9416,
      "duration": 0.0826,
      "velocity": 117,
      "chip": "ym2612"
    },
    {
      "channel": 5,
      "note": 69,
      "start": 109.9443,
      "duration": 0.1487,
      "velocity": 59,
      "chip": "ym2612"
    },
    {
      "channel": 1,
      "note": 45,
      "start": 110.0905,
      "duration": 0.0826,
      "velocity": 117,
      "chip": "ym2612"
    },
    {
      "channel": 4,
      "note": 62,
      "start": 110.0928,
      "duration": 0.1478,
      "velocity": 59,
      "chip": "ym2612"
    },
    {
      "channel": 5,
      "note": 69,
      "start": 110.0934,
      "duration": 0.1485,
      "velocity": 59,
      "chip": "ym2612"
    },
    {
      "channel": 1,
      "note": 33,
      "start": 110.2395,
      "duration": 0.0826,
      "velocity": 117,
      "chip": "ym2612"
    },
    {
      "channel": 4,
      "note": 53,
      "start": 110.2418,
      "duration": 0.1646,
      "velocity": 1,
      "chip": "ym2612"
    },
    {
      "channel": 5,
      "note": 69,
      "start": 110.243,
      "duration": 0.1471,
      "velocity": 63,
      "chip": "ym2612"
    },
    {
      "channel": 1,
      "note": 45,
      "start": 110.3885,
      "duration": 0.0826,
      "velocity": 117,
      "chip": "ym2612"
    },
    {
      "channel": 5,
      "note": 69,
      "start": 110.3913,
      "duration": 0.1485,
      "velocity": 59,
      "chip": "ym2612"
    },
    {
      "channel": 1,
      "note": 33,
      "start": 110.5374,
      "duration": 0.0826,
      "velocity": 117,
      "chip": "ym2612"
    },
    {
      "channel": 4,
      "note": 22,
      "start": 110.5397,
      "duration": 0.1479,
      "velocity": 127,
      "chip": "ym2612"
    },
    {
      "channel": 5,
      "note": 69,
      "start": 110.5403,
      "duration": 0.1478,
      "velocity": 59,
      "chip": "ym2612"
    },
    {
      "channel": 1,
      "note": 45,
      "start": 110.6864,
      "duration": 0.0826,
      "velocity": 117,
      "chip": "ym2612"
    },
    {
      "channel": 4,
      "note": 22,
      "start": 110.688,
      "duration": 0.1485,
      "velocity": 127,
      "chip": "ym2612"
    },
    {
      "channel": 5,
      "note": 69,
      "start": 110.6893,
      "duration": 0.0648,
      "velocity": 63,
      "chip": "ym2612"
    },
    {
      "channel": 5,
      "note": 81,
      "start": 110.7552,
      "duration": 0.0827,
      "velocity": 59,
      "chip": "ym2612"
    },
    {
      "channel": 1,
      "note": 33,
      "start": 110.8354,
      "duration": 0.0826,
      "velocity": 117,
      "chip": "ym2612"
    },
    {
      "channel": 4,
      "note": 53,
      "start": 110.8376,
      "duration": 0.1646,
      "velocity": 1,
      "chip": "ym2612"
    },
    {
      "channel": 5,
      "note": 74,
      "start": 110.8383,
      "duration": 0.1477,
      "velocity": 59,
      "chip": "ym2612"
    },
    {
      "channel": 1,
      "note": 33,
      "start": 110.9843,
      "duration": 0.0826,
      "velocity": 117,
      "chip": "ym2612"
    },
    {
      "channel": 5,
      "note": 69,
      "start": 110.9871,
      "duration": 0.1478,
      "velocity": 63,
      "chip": "ym2612"
    },
    {
      "channel": 1,
      "note": 33,
      "start": 111.1333,
      "duration": 0.1485,
      "velocity": 117,
      "chip": "ym2612"
    },
    {
      "channel": 5,
      "note": 69,
      "start": 111.1361,
      "duration": 0.1479,
      "velocity": 59,
      "chip": "ym2612"
    },
    {
      "channel": 1,
      "note": 45,
      "start": 111.2823,
      "duration": 0.0826,
      "velocity": 117,
      "chip": "ym2612"
    },
    {
      "channel": 5,
      "note": 69,
      "start": 111.2845,
      "duration": 0.1486,
      "velocity": 59,
      "chip": "ym2612"
    },
    {
      "channel": 1,
      "note": 33,
      "start": 111.4313,
      "duration": 0.0826,
      "velocity": 117,
      "chip": "ym2612"
    },
    {
      "channel": 4,
      "note": 53,
      "start": 111.433,
      "duration": 0.1652,
      "velocity": 1,
      "chip": "ym2612"
    },
    {
      "channel": 5,
      "note": 69,
      "start": 111.4342,
      "duration": 0.1477,
      "velocity": 63,
      "chip": "ym2612"
    },
    {
      "channel": 1,
      "note": 33,
      "start": 111.5802,
      "duration": 0.0826,
      "velocity": 117,
      "chip": "ym2612"
    },
    {
      "channel": 5,
      "note": 69,
      "start": 111.583,
      "duration": 0.148,
      "velocity": 59,
      "chip": "ym2612"
    },
    {
      "channel": 1,
      "note": 33,
      "start": 111.7292,
      "duration": 0.0826,
      "velocity": 117,
      "chip": "ym2612"
    },
    {
      "channel": 5,
      "note": 69,
      "start": 111.7314,
      "duration": 0.1485,
      "velocity": 59,
      "chip": "ym2612"
    },
    {
      "channel": 1,
      "note": 33,
      "start": 111.8782,
      "duration": 0.0826,
      "velocity": 117,
      "chip": "ym2612"
    },
    {
      "channel": 5,
      "note": 69,
      "start": 111.881,
      "duration": 0.1484,
      "velocity": 63,
      "chip": "ym2612"
    },
    {
      "channel": 0,
      "note": 28,
      "start": 112.0267,
      "duration": 2.383,
      "velocity": 108,
      "chip": "ym2612"
    },
    {
      "channel": 1,
      "note": 33,
      "start": 112.0273,
      "duration": 0.0824,
      "velocity": 117,
      "chip": "ym2612"
    },
    {
      "channel": 2,
      "note": 24,
      "start": 112.028,
      "duration": 2.383,
      "velocity": 108,
      "chip": "ym2612"
    },
    {
      "channel": 4,
      "note": 53,
      "start": 112.0292,
      "duration": 0.1648,
      "velocity": 1,
      "chip": "ym2612"
    },
    {
      "channel": 5,
      "note": 69,
      "start": 112.0304,
      "duration": 0.1475,
      "velocity": 59,
      "chip": "ym2612"
    },
    {
      "channel": 1,
      "note": 33,
      "start": 112.1762,
      "duration": 0.0826,
      "velocity": 117,
      "chip": "ym2612"
    },
    {
      "channel": 5,
      "note": 69,
      "start": 112.179,
      "duration": 0.1485,
      "velocity": 63,
      "chip": "ym2612"
    },
    {
      "channel": 1,
      "note": 33,
      "start": 112.3251,
      "duration": 0.0826,
      "velocity": 117,
      "chip": "ym2612"
    },
    {
      "channel": 4,
      "note": 62,
      "start": 112.3273,
      "duration": 0.1479,
      "velocity": 59,
      "chip": "ym2612"
    },
    {
      "channel": 5,
      "note": 69,
      "start": 112.3285,
      "duration": 0.1474,
      "velocity": 59,
      "chip": "ym2612"
    },
    {
      "channel": 1,
      "note": 45,
      "start": 112.4741,
      "duration": 0.0826,
      "velocity": 117,
      "chip": "ym2612"
    },
    {
      "channel": 4,
      "note": 62,
      "start": 112.4757,
      "duration": 0.1485,
      "velocity": 59,
      "chip": "ym2612"
    },
    {
      "channel": 5,
      "note": 69,
      "start": 112.4764,
      "duration": 0.1491,
      "velocity": 59,
      "chip": "ym2612"
    },
    {
      "channel": 1,
      "note": 33,
      "start": 112.6231,
      "duration": 0.0826,
      "velocity": 117,
      "chip": "ym2612"
    },
    {
      "channel": 4,
      "note": 53,
      "start": 112.6254,
      "duration": 0.1647,
      "velocity": 1,
      "chip": "ym2612"
    },
    {
      "channel": 5,
      "note": 69,
      "start": 112.6266,
      "duration": 0.1471,
      "velocity": 63,
      "chip": "ym2612"
    },
    {
      "channel": 1,
      "note": 45,
      "start": 112.772,
      "duration": 0.0826,
      "velocity": 117,
      "chip": "ym2612"
    },
    {
      "channel": 5,
      "note": 69,
      "start": 112.7748,
      "duration": 0.1486,
      "velocity": 59,
      "chip": "ym2612"
    },
    {
      "channel": 1,
      "note": 33,
      "start": 112.921,
      "duration": 0.0826,
      "velocity": 117,
      "chip": "ym2612"
    },
    {
      "channel": 4,
      "note": 22,
      "start": 112.9232,
      "duration": 0.1479,
      "velocity": 127,
      "chip": "ym2612"
    },
    {
      "channel": 5,
      "note": 69,
      "start": 112.9239,
      "duration": 0.1478,
      "velocity": 59,
      "chip": "ym2612"
    },
    {
      "channel": 1,
      "note": 45,
      "start": 113.0699,
      "duration": 0.0826,
      "velocity": 117,
      "chip": "ym2612"
    },
    {
      "channel": 4,
      "note": 22,
      "start": 113.0716,
      "duration": 0.1486,
      "velocity": 127,
      "chip": "ym2612"
    },
    {
      "channel": 5,
      "note": 69,
      "start": 113.0729,
      "duration": 0.1487,
      "velocity": 63,
      "chip": "ym2612"
    },
    {
      "channel": 1,
      "note": 33,
      "start": 113.2189,
      "duration": 0.0827,
      "velocity": 117,
      "chip": "ym2612"
    },
    {
      "channel": 3,
      "note": 19,
      "start": 113.2201,
      "duration": 1.1253,
      "velocity": 124,
      "chip": "ym2612"
    },
    {
      "channel": 4,
      "note": 53,
      "start": 113.2214,
      "duration": 0.1644,
      "velocity": 1,
      "chip": "ym2612"
    },
    {
      "channel": 5,
      "note": 69,
      "start": 113.2227,
      "duration": 0.1469,
      "velocity": 59,
      "chip": "ym2612"
    },
    {
      "channel": 1,
      "note": 33,
      "start": 113.3679,
      "duration": 0.0826,
      "velocity": 117,
      "chip": "ym2612"
    },
    {
      "channel": 5,
      "note": 69,
      "start": 113.3707,
      "duration": 0.1478,
      "velocity": 63,
      "chip": "ym2612"
    },
    {
      "channel": 1,
      "note": 33,
      "start": 113.5169,
      "duration": 0.1485,
      "velocity": 117,
      "chip": "ym2612"
    },
    {
      "channel": 5,
      "note": 69,
      "start": 113.5196,
      "duration": 0.148,
      "velocity": 59,
      "chip": "ym2612"
    },
    {
      "channel": 1,
      "note": 45,
      "start": 113.6659,
      "duration": 0.0826,
      "velocity": 117,
      "chip": "ym2612"
    },
    {
      "channel": 5,
      "note": 69,
      "start": 113.668,
      "duration": 0.1486,
      "velocity": 59,
      "chip": "ym2612"
    },
    {
      "channel": 1,
      "note": 33,
      "start": 113.8149,
      "duration": 0.0826,
      "velocity": 117,
      "chip": "ym2612"
    },
    {
      "channel": 4,
      "note": 53,
      "start": 113.8165,
      "duration": 0.1652,
      "velocity": 1,
      "chip": "ym2612"
    },
    {
      "channel": 5,
      "note": 69,
      "start": 113.8177,
      "duration": 0.1478,
      "velocity": 63,
      "chip": "ym2612"
    },
    {
      "channel": 1,
      "note": 33,
      "start": 113.9638,
      "duration": 0.0826,
      "velocity": 117,
      "chip": "ym2612"
    },
    {
      "channel": 5,
      "note": 69,
      "start": 113.9666,
      "duration": 0.1485,
      "velocity": 59,
      "chip": "ym2612"
    },
    {
      "channel": 1,
      "note": 33,
      "start": 114.1127,
      "duration": 0.0826,
      "velocity": 117,
      "chip": "ym2612"
    },
    {
      "channel": 4,
      "note": 22,
      "start": 114.115,
      "duration": 0.1479,
      "velocity": 127,
      "chip": "ym2612"
    },
    {
      "channel": 5,
      "note": 69,
      "start": 114.1156,
      "duration": 0.1479,
      "velocity": 59,
      "chip": "ym2612"
    },
    {
      "channel": 1,
      "note": 33,
      "start": 114.2617,
      "duration": 0.0827,
      "velocity": 117,
      "chip": "ym2612"
    },
    {
      "channel": 4,
      "note": 22,
      "start": 114.2634,
      "duration": 0.1495,
      "velocity": 127,
      "chip": "ym2612"
    },
    {
      "channel": 5,
      "note": 69,
      "start": 114.264,
      "duration": 0.1502,
      "velocity": 59,
      "chip": "ym2612"
    },
    {
      "channel": 0,
      "note": 28,
      "start": 114.4103,
      "duration": 2.383,
      "velocity": 108,
      "chip": "ym2612"
    },
    {
      "channel": 1,
      "note": 33,
      "start": 114.4109,
      "duration": 0.0824,
      "velocity": 117,
      "chip": "ym2612"
    },
    {
      "channel": 2,
      "note": 60,
      "start": 114.4121,
      "duration": 0.1477,
      "velocity": 59,
      "chip": "ym2612"
    },
    {
      "channel": 3,
      "note": 21,
      "start": 114.4127,
      "duration": 3.5746,
      "velocity": 124,
      "chip": "ym2612"
    },
    {
      "channel": 4,
      "note": 53,
      "start": 114.414,
      "duration": 0.1636,
      "velocity": 1,
      "chip": "ym2612"
    },
    {
      "channel": 5,
      "note": 7,
      "start": 114.4153,
      "duration": 2.3146,
      "velocity": 1,
      "chip": "ym2612"
    },
    {
      "channel": 1,
      "note": 33,
      "start": 114.5597,
      "duration": 0.0826,
      "velocity": 117,
      "chip": "ym2612"
    },
    {
      "channel": 2,
      "note": 69,
      "start": 114.5609,
      "duration": 0.1479,
      "velocity": 63,
      "chip": "ym2612"
    },
    {
      "channel": 1,
      "note": 33,
      "start": 114.7087,
      "duration": 0.0826,
      "velocity": 117,
      "chip": "ym2612"
    },
    {
      "channel": 2,
      "note": 69,
      "start": 114.7099,
      "duration": 0.1479,
      "velocity": 59,
      "chip": "ym2612"
    },
    {
      "channel": 1,
      "note": 45,
      "start": 114.8577,
      "duration": 0.0826,
      "velocity": 117,
      "chip": "ym2612"
    },
    {
      "channel": 2,
      "note": 69,
      "start": 114.8583,
      "duration": 0.1485,
      "velocity": 59,
      "chip": "ym2612"
    },
    {
      "channel": 4,
      "note": 62,
      "start": 114.86,
      "duration": 0.1485,
      "velocity": 59,
      "chip": "ym2612"
    },
    {
      "channel": 1,
      "note": 33,
      "start": 115.0066,
      "duration": 0.0826,
      "velocity": 117,
      "chip": "ym2612"
    },
    {
      "channel": 2,
      "note": 69,
      "start": 115.0078,
      "duration": 0.1478,
      "velocity": 63,
      "chip": "ym2612"
    },
    {
      "channel": 4,
      "note": 53,
      "start": 115.0096,
      "duration": 0.1639,
      "velocity": 1,
      "chip": "ym2612"
    },
    {
      "channel": 1,
      "note": 45,
      "start": 115.1556,
      "duration": 0.0826,
      "velocity": 117,
      "chip": "ym2612"
    },
    {
      "channel": 2,
      "note": 69,
      "start": 115.1568,
      "duration": 0.1478,
      "velocity": 59,
      "chip": "ym2612"
    },
    {
      "channel": 1,
      "note": 33,
      "start": 115.3045,
      "duration": 0.0827,
      "velocity": 117,
      "chip": "ym2612"
    },
    {
      "channel": 2,
      "note": 69,
      "start": 115.3052,
      "duration": 0.1485,
      "velocity": 59,
      "chip": "ym2612"
    },
    {
      "channel": 4,
      "note": 22,
      "start": 115.3069,
      "duration": 0.1485,
      "velocity": 127,
      "chip": "ym2612"
    },
    {
      "channel": 1,
      "note": 45,
      "start": 115.4535,
      "duration": 0.0826,
      "velocity": 117,
      "chip": "ym2612"
    },
    {
      "channel": 2,
      "note": 69,
      "start": 115.4547,
      "duration": 0.0649,
      "velocity": 63,
      "chip": "ym2612"
    },
    {
      "channel": 4,
      "note": 22,
      "start": 115.4558,
      "duration": 0.1479,
      "velocity": 127,
      "chip": "ym2612"
    },
    {
      "channel": 2,
      "note": 81,
      "start": 115.5208,
      "duration": 0.0818,
      "velocity": 59,
      "chip": "ym2612"
    },
    {
      "channel": 1,
      "note": 33,
      "start": 115.6025,
      "duration": 0.0826,
      "velocity": 117,
      "chip": "ym2612"
    },
    {
      "channel": 2,
      "note": 74,
      "start": 115.6032,
      "duration": 0.1485,
      "velocity": 59,
      "chip": "ym2612"
    },
    {
      "channel": 4,
      "note": 53,
      "start": 115.6049,
      "duration": 0.1645,
      "velocity": 1,
      "chip": "ym2612"
    },
    {
      "channel": 1,
      "note": 33,
      "start": 115.7515,
      "duration": 0.0826,
      "velocity": 117,
      "chip": "ym2612"
    },
    {
      "channel": 2,
      "note": 69,
      "start": 115.7527,
      "duration": 0.1479,
      "velocity": 63,
      "chip": "ym2612"
    },
    {
      "channel": 1,
      "note": 33,
      "start": 115.9005,
      "duration": 0.1485,
      "velocity": 117,
      "chip": "ym2612"
    },
    {
      "channel": 2,
      "note": 69,
      "start": 115.9017,
      "duration": 0.1479,
      "velocity": 59,
      "chip": "ym2612"
    },
    {
      "channel": 1,
      "note": 45,
      "start": 116.0494,
      "duration": 0.0826,
      "velocity": 117,
      "chip": "ym2612"
    },
    {
      "channel": 2,
      "note": 69,
      "start": 116.05,
      "duration": 0.1485,
      "velocity": 59,
      "chip": "ym2612"
    },
    {
      "channel": 1,
      "note": 33,
      "start": 116.1984,
      "duration": 0.0826,
      "velocity": 117,
      "chip": "ym2612"
    },
    {
      "channel": 2,
      "note": 69,
      "start": 116.1996,
      "duration": 0.1479,
      "velocity": 63,
      "chip": "ym2612"
    },
    {
      "channel": 4,
      "note": 53,
      "start": 116.2008,
      "duration": 0.1644,
      "velocity": 1,
      "chip": "ym2612"
    },
    {
      "channel": 1,
      "note": 33,
      "start": 116.3473,
      "duration": 0.0826,
      "velocity": 117,
      "chip": "ym2612"
    },
    {
      "channel": 2,
      "note": 69,
      "start": 116.3486,
      "duration": 0.1479,
      "velocity": 59,
      "chip": "ym2612"
    },
    {
      "channel": 1,
      "note": 33,
      "start": 116.4963,
      "duration": 0.0826,
      "velocity": 117,
      "chip": "ym2612"
    },
    {
      "channel": 2,
      "note": 69,
      "start": 116.497,
      "duration": 0.1485,
      "velocity": 59,
      "chip": "ym2612"
    },
    {
      "channel": 1,
      "note": 33,
      "start": 116.6453,
      "duration": 0.0826,
      "velocity": 117,
      "chip": "ym2612"
    },
    {
      "channel": 2,
      "note": 69,
      "start": 116.6465,
      "duration": 0.148,
      "velocity": 63,
      "chip": "ym2612"
    },
    {
      "channel": 0,
      "note": 33,
      "start": 116.7938,
      "duration": 2.383,
      "velocity": 108,
      "chip": "ym2612"
    },
    {
      "channel": 1,
      "note": 33,
      "start": 116.7944,
      "duration": 0.0824,
      "velocity": 117,
      "chip": "ym2612"
    },
    {
      "channel": 2,
      "note": 69,
      "start": 116.7957,
      "duration": 0.1477,
      "velocity": 59,
      "chip": "ym2612"
    },
    {
      "channel": 4,
      "note": 53,
      "start": 116.7968,
      "duration": 0.1643,
      "velocity": 1,
      "chip": "ym2612"
    },
    {
      "channel": 5,
      "note": 7,
      "start": 116.7976,
      "duration": 2.316,
      "velocity": 1,
      "chip": "ym2612"
    },
    {
      "channel": 1,
      "note": 33,
      "start": 116.9433,
      "duration": 0.0826,
      "velocity": 117,
      "chip": "ym2612"
    },
    {
      "channel": 2,
      "note": 69,
      "start": 116.9445,
      "duration": 0.1478,
      "velocity": 63,
      "chip": "ym2612"
    },
    {
      "channel": 1,
      "note": 33,
      "start": 117.0922,
      "duration": 0.0826,
      "velocity": 117,
      "chip": "ym2612"
    },
    {
      "channel": 2,
      "note": 69,
      "start": 117.0934,
      "duration": 0.148,
      "velocity": 59,
      "chip": "ym2612"
    },
    {
      "channel": 4,
      "note": 62,
      "start": 117.0951,
      "duration": 0.1473,
      "velocity": 59,
      "chip": "ym2612"
    },
    {
      "channel": 1,
      "note": 45,
      "start": 117.2412,
      "duration": 0.0826,
      "velocity": 117,
      "chip": "ym2612"
    },
    {
      "channel": 2,
      "note": 69,
      "start": 117.2418,
      "duration": 0.1485,
      "velocity": 59,
      "chip": "ym2612"
    },
    {
      "channel": 4,
      "note": 62,
      "start": 117.2429,
      "duration": 0.1492,
      "velocity": 59,
      "chip": "ym2612"
    },
    {
      "channel": 1,
      "note": 33,
      "start": 117.3902,
      "duration": 0.0826,
      "velocity": 117,
      "chip": "ym2612"
    },
    {
      "channel": 2,
      "note": 69,
      "start": 117.3914,
      "duration": 0.1478,
      "velocity": 63,
      "chip": "ym2612"
    },
    {
      "channel": 4,
      "note": 53,
      "start": 117.3932,
      "duration": 0.1639,
      "velocity": 1,
      "chip": "ym2612"
    },
    {
      "channel": 1,
      "note": 45,
      "start": 117.5392,
      "duration": 0.0826,
      "velocity": 117,
      "chip": "ym2612"
    },
    {
      "channel": 2,
      "note": 69,
      "start": 117.5404,
      "duration": 0.1478,
      "velocity": 59,
      "chip": "ym2612"
    },
    {
      "channel": 1,
      "note": 33,
      "start": 117.6881,
      "duration": 0.0826,
      "velocity": 117,
      "chip": "ym2612"
    },
    {
      "channel": 2,
      "note": 69,
      "start": 117.6888,
      "duration": 0.1484,
      "velocity": 59,
      "chip": "ym2612"
    },
    {
      "channel": 4,
      "note": 22,
      "start": 117.6905,
      "duration": 0.1485,
      "velocity": 127,
      "chip": "ym2612"
    },
    {
      "channel": 1,
      "note": 45,
      "start": 117.8371,
      "duration": 0.0826,
      "velocity": 117,
      "chip": "ym2612"
    },
    {
      "channel": 2,
      "note": 69,
      "start": 117.8383,
      "duration": 0.1479,
      "velocity": 63,
      "chip": "ym2612"
    },
    {
      "channel": 4,
      "note": 22,
      "start": 117.8395,
      "duration": 0.1493,
      "velocity": 127,
      "chip": "ym2612"
    },
    {
      "channel": 1,
      "note": 33,
      "start": 117.986,
      "duration": 0.0826,
      "velocity": 117,
      "chip": "ym2612"
    },
    {
      "channel": 2,
      "note": 69,
      "start": 117.9872,
      "duration": 0.1479,
      "velocity": 59,
      "chip": "ym2612"
    },
    {
      "channel": 3,
      "note": 45,
      "start": 117.9887,
      "duration": 0.1477,
      "velocity": 107,
      "chip": "ym2612"
    },
    {
      "channel": 4,
      "note": 53,
      "start": 117.99,
      "duration": 0.1631,
      "velocity": 1,
      "chip": "ym2612"
    },
    {
      "channel": 1,
      "note": 33,
      "start": 118.135,
      "duration": 0.0826,
      "velocity": 117,
      "chip": "ym2612"
    },
    {
      "channel": 2,
      "note": 69,
      "start": 118.1362,
      "duration": 0.1479,
      "velocity": 63,
      "chip": "ym2612"
    },
    {
      "channel": 3,
      "note": 45,
      "start": 118.1371,
      "duration": 0.1483,
      "velocity": 106,
      "chip": "ym2612"
    },
    {
      "channel": 1,
      "note": 33,
      "start": 118.284,
      "duration": 0.1485,
      "velocity": 117,
      "chip": "ym2612"
    },
    {
      "channel": 2,
      "note": 69,
      "start": 118.2852,
      "duration": 0.1479,
      "velocity": 59,
      "chip": "ym2612"
    },
    {
      "channel": 3,
      "note": 45,
      "start": 118.2861,
      "duration": 0.1476,
      "velocity": 105,
      "chip": "ym2612"
    },
    {
      "channel": 1,
      "note": 45,
      "start": 118.433,
      "duration": 0.0826,
      "velocity": 117,
      "chip": "ym2612"
    },
    {
      "channel": 2,
      "note": 69,
      "start": 118.4336,
      "duration": 0.1485,
      "velocity": 59,
      "chip": "ym2612"
    },
    {
      "channel": 3,
      "note": 45,
      "start": 118.4345,
      "duration": 0.1488,
      "velocity": 104,
      "chip": "ym2612"
    },
    {
      "channel": 1,
      "note": 33,
      "start": 118.582,
      "duration": 0.0826,
      "velocity": 117,
      "chip": "ym2612"
    },
    {
      "channel": 2,
      "note": 69,
      "start": 118.5832,
      "duration": 0.1479,
      "velocity": 63,
      "chip": "ym2612"
    },
    {
      "channel": 3,
      "note": 45,
      "start": 118.5841,
      "duration": 0.1482,
      "velocity": 103,
      "chip": "ym2612"
    },
    {
      "channel": 4,
      "note": 53,
      "start": 118.5848,
      "duration": 0.1642,
      "velocity": 1,
      "chip": "ym2612"
    },
    {
      "channel": 1,
      "note": 33,
      "start": 118.731,
      "duration": 0.0826,
      "velocity": 117,
      "chip": "ym2612"
    },
    {
      "channel": 2,
      "note": 69,
      "start": 118.7322,
      "duration": 0.1479,
      "velocity": 59,
      "chip": "ym2612"
    },
    {
      "channel": 3,
      "note": 45,
      "start": 118.733,
      "duration": 0.1476,
      "velocity": 102,
      "chip": "ym2612"
    },
    {
      "channel": 1,
      "note": 33,
      "start": 118.8799,
      "duration": 0.0826,
      "velocity": 117,
      "chip": "ym2612"
    },
    {
      "channel": 2,
      "note": 69,
      "start": 118.8806,
      "duration": 0.1485,
      "velocity": 59,
      "chip": "ym2612"
    },
    {
      "channel": 3,
      "note": 45,
      "start": 118.8814,
      "duration": 0.1482,
      "velocity": 101,
      "chip": "ym2612"
    },
    {
      "channel": 4,
      "note": 22,
      "start": 118.8826,
      "duration": 0.1479,
      "velocity": 127,
      "chip": "ym2612"
    },
    {
      "channel": 1,
      "note": 33,
      "start": 119.0288,
      "duration": 0.0826,
      "velocity": 117,
      "chip": "ym2612"
    },
    {
      "channel": 2,
      "note": 69,
      "start": 119.0295,
      "duration": 0.1487,
      "velocity": 59,
      "chip": "ym2612"
    },
    {
      "channel": 3,
      "note": 45,
      "start": 119.0304,
      "duration": 0.149,
      "velocity": 100,
      "chip": "ym2612"
    },
    {
      "channel": 4,
      "note": 22,
      "start": 119.031,
      "duration": 0.1497,
      "velocity": 127,
      "chip": "ym2612"
    },
    {
      "channel": 0,
      "note": 33,
      "start": 119.1774,
      "duration": 2.383,
      "velocity": 108,
      "chip": "ym2612"
    },
    {
      "channel": 1,
      "note": 33,
      "start": 119.178,
      "duration": 0.0824,
      "velocity": 117,
      "chip": "ym2612"
    },
    {
      "channel": 2,
      "note": 33,
      "start": 119.1793,
      "duration": 2.3824,
      "velocity": 108,
      "chip": "ym2612"
    },
    {
      "channel": 3,
      "note": 21,
      "start": 119.1805,
      "duration": 3.5734,
      "velocity": 124,
      "chip": "ym2612"
    },
    {
      "channel": 4,
      "note": 53,
      "start": 119.1818,
      "duration": 0.1629,
      "velocity": 1,
      "chip": "ym2612"
    },
    {
      "channel": 5,
      "note": 69,
      "start": 119.183,
      "duration": 0.1455,
      "velocity": 59,
      "chip": "ym2612"
    },
    {
      "channel": 1,
      "note": 33,
      "start": 119.3268,
      "duration": 0.0826,
      "velocity": 117,
      "chip": "ym2612"
    },
    {
      "channel": 5,
      "note": 69,
      "start": 119.3296,
      "duration": 0.1478,
      "velocity": 63,
      "chip": "ym2612"
    },
    {
      "channel": 1,
      "note": 33,
      "start": 119.4758,
      "duration": 0.0826,
      "velocity": 117,
      "chip": "ym2612"
    },
    {
      "channel": 5,
      "note": 69,
      "start": 119.4785,
      "duration": 0.1486,
      "velocity": 59,
      "chip": "ym2612"
    },
    {
      "channel": 1,
      "note": 45,
      "start": 119.6248,
      "duration": 0.0826,
      "velocity": 117,
      "chip": "ym2612"
    },
    {
      "channel": 4,
      "note": 62,
      "start": 119.627,
      "duration": 0.1479,
      "velocity": 59,
      "chip": "ym2612"
    },
    {
      "channel": 5,
      "note": 69,
      "start": 119.6276,
      "duration": 0.1485,
      "velocity": 59,
      "chip": "ym2612"
    },
    {
      "channel": 1,
      "note": 33,
      "start": 119.7738,
      "duration": 0.0826,
      "velocity": 117,
      "chip": "ym2612"
    },
    {
      "channel": 4,
      "note": 53,
      "start": 119.7761,
      "duration": 0.1646,
      "velocity": 1,
      "chip": "ym2612"
    },
    {
      "channel": 5,
      "note": 69,
      "start": 119.7773,
      "duration": 0.1471,
      "velocity": 63,
      "chip": "ym2612"
    },
    {
      "channel": 1,
      "note": 45,
      "start": 119.9227,
      "duration": 0.0826,
      "velocity": 117,
      "chip": "ym2612"
    },
    {
      "channel": 5,
      "note": 69,
      "start": 119.9255,
      "duration": 0.1485,
      "velocity": 59,
      "chip": "ym2612"
    },
    {
      "channel": 1,
      "note": 33,
      "start": 120.0717,
      "duration": 0.0826,
      "velocity": 117,
      "chip": "ym2612"
    },
    {
      "channel": 4,
      "note": 22,
      "start": 120.0739,
      "duration": 0.1479,
      "velocity": 127,
      "chip": "ym2612"
    },
    {
      "channel": 5,
      "note": 69,
      "start": 120.0746,
      "duration": 0.1478,
      "velocity": 59,
      "chip": "ym2612"
    },
    {
      "channel": 1,
      "note": 45,
      "start": 120.2206,
      "duration": 0.0826,
      "velocity": 117,
      "chip": "ym2612"
    },
    {
      "channel": 4,
      "note": 22,
      "start": 120.2223,
      "duration": 0.1484,
      "velocity": 127,
      "chip": "ym2612"
    },
    {
      "channel": 5,
      "note": 69,
      "start": 120.2236,
      "duration": 0.0648,
      "velocity": 63,
      "chip": "ym2612"
    },
    {
      "channel": 5,
      "note": 81,
      "start": 120.2895,
      "duration": 0.0826,
      "velocity": 59,
      "chip": "ym2612"
    },
    {
      "channel": 1,
      "note": 33,
      "start": 120.3696,
      "duration": 0.0826,
      "velocity": 117,
      "chip": "ym2612"
    },
    {
      "channel": 4,
      "note": 53,
      "start": 120.3719,
      "duration": 0.1646,
      "velocity": 1,
      "chip": "ym2612"
    },
    {
      "channel": 5,
      "note": 74,
      "start": 120.3725,
      "duration": 0.1477,
      "velocity": 59,
      "chip": "ym2612"
    },
    {
      "channel": 1,
      "note": 33,
      "start": 120.5186,
      "duration": 0.0826,
      "velocity": 117,
      "chip": "ym2612"
    },
    {
      "channel": 5,
      "note": 69,
      "start": 120.5213,
      "duration": 0.1479,
      "velocity": 63,
      "chip": "ym2612"
    },
    {
      "channel": 1,
      "note": 33,
      "start": 120.6676,
      "duration": 0.1485,
      "velocity": 117,
      "chip": "ym2612"
    },
    {
      "channel": 5,
      "note": 69,
      "start": 120.6703,
      "duration": 0.1479,
      "velocity": 59,
      "chip": "ym2612"
    },
    {
      "channel": 1,
      "note": 45,
      "start": 120.8165,
      "duration": 0.0826,
      "velocity": 117,
      "chip": "ym2612"
    },
    {
      "channel": 5,
      "note": 69,
      "start": 120.8187,
      "duration": 0.1486,
      "velocity": 59,
      "chip": "ym2612"
    },
    {
      "channel": 1,
      "note": 33,
      "start": 120.9655,
      "duration": 0.0826,
      "velocity": 117,
      "chip": "ym2612"
    },
    {
      "channel": 4,
      "note": 53,
      "start": 120.9672,
      "duration": 0.1652,
      "velocity": 1,
      "chip": "ym2612"
    },
    {
      "channel": 5,
      "note": 69,
      "start": 120.9684,
      "duration": 0.1478,
      "velocity": 63,
      "chip": "ym2612"
    },
    {
      "channel": 1,
      "note": 33,
      "start": 121.1145,
      "duration": 0.0826,
      "velocity": 117,
      "chip": "ym2612"
    },
    {
      "channel": 5,
      "note": 69,
      "start": 121.1173,
      "duration": 0.1479,
      "velocity": 59,
      "chip": "ym2612"
    },
    {
      "channel": 1,
      "note": 33,
      "start": 121.2634,
      "duration": 0.0826,
      "velocity": 117,
      "chip": "ym2612"
    },
    {
      "channel": 5,
      "note": 69,
      "start": 121.2656,
      "duration": 0.1485,
      "velocity": 59,
      "chip": "ym2612"
    },
    {
      "channel": 1,
      "note": 33,
      "start": 121.4124,
      "duration": 0.0826,
      "velocity": 117,
      "chip": "ym2612"
    },
    {
      "channel": 5,
      "note": 69,
      "start": 121.4152,
      "duration": 0.1484,
      "velocity": 63,
      "chip": "ym2612"
    },
    {
      "channel": 0,
      "note": 28,
      "start": 121.5609,
      "duration": 2.383,
      "velocity": 108,
      "chip": "ym2612"
    },
    {
      "channel": 1,
      "note": 33,
      "start": 121.5615,
      "duration": 0.0824,
      "velocity": 117,
      "chip": "ym2612"
    },
    {
      "channel": 2,
      "note": 24,
      "start": 121.5623,
      "duration": 2.3841,
      "velocity": 108,
      "chip": "ym2612"
    },
    {
      "channel": 4,
      "note": 53,
      "start": 121.5634,
      "duration": 0.1649,
      "velocity": 1,
      "chip": "ym2612"
    },
    {
      "channel": 5,
      "note": 69,
      "start": 121.5646,
      "duration": 0.1475,
      "velocity": 59,
      "chip": "ym2612"
    },
    {
      "channel": 1,
      "note": 33,
      "start": 121.7104,
      "duration": 0.0826,
      "velocity": 117,
      "chip": "ym2612"
    },
    {
      "channel": 5,
      "note": 69,
      "start": 121.7132,
      "duration": 0.1485,
      "velocity": 63,
      "chip": "ym2612"
    },
    {
      "channel": 1,
      "note": 33,
      "start": 121.8593,
      "duration": 0.0826,
      "velocity": 117,
      "chip": "ym2612"
    },
    {
      "channel": 4,
      "note": 62,
      "start": 121.8615,
      "duration": 0.1479,
      "velocity": 59,
      "chip": "ym2612"
    },
    {
      "channel": 5,
      "note": 69,
      "start": 121.8627,
      "duration": 0.1474,
      "velocity": 59,
      "chip": "ym2612"
    },
    {
      "channel": 1,
      "note": 45,
      "start": 122.0083,
      "duration": 0.0826,
      "velocity": 117,
      "chip": "ym2612"
    },
    {
      "channel": 4,
      "note": 62,
      "start": 122.01,
      "duration": 0.1485,
      "velocity": 59,
      "chip": "ym2612"
    },
    {
      "channel": 5,
      "note": 69,
      "start": 122.0106,
      "duration": 0.1492,
      "velocity": 59,
      "chip": "ym2612"
    },
    {
      "channel": 1,
      "note": 33,
      "start": 122.1573,
      "duration": 0.0826,
      "velocity": 117,
      "chip": "ym2612"
    },
    {
      "channel": 4,
      "note": 53,
      "start": 122.1596,
      "duration": 0.1646,
      "velocity": 1,
      "chip": "ym2612"
    },
    {
      "channel": 5,
      "note": 69,
      "start": 122.1608,
      "duration": 0.1471,
      "velocity": 63,
      "chip": "ym2612"
    },
    {
      "channel": 1,
      "note": 45,
      "start": 122.3063,
      "duration": 0.0825,
      "velocity": 117,
      "chip": "ym2612"
    },
    {
      "channel": 5,
      "note": 69,
      "start": 122.3091,
      "duration": 0.1486,
      "velocity": 59,
      "chip": "ym2612"
    },
    {
      "channel": 1,
      "note": 33,
      "start": 122.4552,
      "duration": 0.0826,
      "velocity": 117,
      "chip": "ym2612"
    },
    {
      "channel": 4,
      "note": 22,
      "start": 122.4575,
      "duration": 0.1479,
      "velocity": 127,
      "chip": "ym2612"
    },
    {
      "channel": 5,
      "note": 69,
      "start": 122.4581,
      "duration": 0.1479,
      "velocity": 59,
      "chip": "ym2612"
    },
    {
      "channel": 1,
      "note": 45,
      "start": 122.6042,
      "duration": 0.0826,
      "velocity": 117,
      "chip": "ym2612"
    },
    {
      "channel": 4,
      "note": 22,
      "start": 122.6058,
      "duration": 0.1495,
      "velocity": 127,
      "chip": "ym2612"
    },
    {
      "channel": 5,
      "note": 69,
      "start": 122.6071,
      "duration": 0.1495,
      "velocity": 63,
      "chip": "ym2612"
    },
    {
      "channel": 1,
      "note": 33,
      "start": 122.7532,
      "duration": 0.0826,
      "velocity": 117,
      "chip": "ym2612"
    },
    {
      "channel": 3,
      "note": 45,
      "start": 122.7551,
      "duration": 0.1477,
      "velocity": 107,
      "chip": "ym2612"
    },
    {
      "channel": 4,
      "note": 53,
      "start": 122.7565,
      "duration": 0.1639,
      "velocity": 1,
      "chip": "ym2612"
    },
    {
      "channel": 5,
      "note": 69,
      "start": 122.7577,
      "duration": 0.1465,
      "velocity": 59,
      "chip": "ym2612"
    },
    {
      "channel": 1,
      "note": 33,
      "start": 122.9021,
      "duration": 0.0826,
      "velocity": 117,
      "chip": "ym2612"
    },
    {
      "channel": 3,
      "note": 45,
      "start": 122.9035,
      "duration": 0.1483,
      "velocity": 106,
      "chip": "ym2612"
    },
    {
      "channel": 5,
      "note": 69,
      "start": 122.9053,
      "duration": 0.1479,
      "velocity": 63,
      "chip": "ym2612"
    },
    {
      "channel": 1,
      "note": 33,
      "start": 123.0511,
      "duration": 0.1485,
      "velocity": 117,
      "chip": "ym2612"
    },
    {
      "channel": 3,
      "note": 45,
      "start": 123.0525,
      "duration": 0.1483,
      "velocity": 105,
      "chip": "ym2612"
    },
    {
      "channel": 5,
      "note": 69,
      "start": 123.0543,
      "duration": 0.1479,
      "velocity": 59,
      "chip": "ym2612"
    },
    {
      "channel": 1,
      "note": 45,
      "start": 123.2001,
      "duration": 0.0826,
      "velocity": 117,
      "chip": "ym2612"
    },
    {
      "channel": 3,
      "note": 45,
      "start": 123.2015,
      "duration": 0.1483,
      "velocity": 104,
      "chip": "ym2612"
    },
    {
      "channel": 5,
      "note": 69,
      "start": 123.2027,
      "duration": 0.1486,
      "velocity": 59,
      "chip": "ym2612"
    },
    {
      "channel": 1,
      "note": 33,
      "start": 123.3491,
      "duration": 0.0826,
      "velocity": 117,
      "chip": "ym2612"
    },
    {
      "channel": 3,
      "note": 45,
      "start": 123.3505,
      "duration": 0.1483,
      "velocity": 103,
      "chip": "ym2612"
    },
    {
      "channel": 4,
      "note": 53,
      "start": 123.3512,
      "duration": 0.165,
      "velocity": 1,
      "chip": "ym2612"
    },
    {
      "channel": 5,
      "note": 69,
      "start": 123.3524,
      "duration": 0.1477,
      "velocity": 63,
      "chip": "ym2612"
    },
    {
      "channel": 1,
      "note": 33,
      "start": 123.498,
      "duration": 0.0826,
      "velocity": 117,
      "chip": "ym2612"
    },
    {
      "channel": 3,
      "note": 45,
      "start": 123.4995,
      "duration": 0.1482,
      "velocity": 102,
      "chip": "ym2612"
    },
    {
      "channel": 5,
      "note": 69,
      "start": 123.5012,
      "duration": 0.1485,
      "velocity": 59,
      "chip": "ym2612"
    },
    {
      "channel": 1,
      "note": 33,
      "start": 123.647,
      "duration": 0.0826,
      "velocity": 117,
      "chip": "ym2612"
    },
    {
      "channel": 3,
      "note": 45,
      "start": 123.6484,
      "duration": 0.1482,
      "velocity": 101,
      "chip": "ym2612"
    },
    {
      "channel": 4,
      "note": 22,
      "start": 123.6496,
      "duration": 0.148,
      "velocity": 127,
      "chip": "ym2612"
    },
    {
      "channel": 5,
      "note": 69,
      "start": 123.6503,
      "duration": 0.1479,
      "velocity": 59,
      "chip": "ym2612"
    },
    {
      "channel": 1,
      "note": 33,
      "start": 123.796,
      "duration": 0.0826,
      "velocity": 117,
      "chip": "ym2612"
    },
    {
      "channel": 3,
      "note": 45,
      "start": 123.7974,
      "duration": 0.1503,
      "velocity": 100,
      "chip": "ym2612"
    },
    {
      "channel": 4,
      "note": 22,
      "start": 123.798,
      "duration": 0.151,
      "velocity": 127,
      "chip": "ym2612"
    },
    {
      "channel": 5,
      "note": 69,
      "start": 123.7987,
      "duration": 0.1515,
      "velocity": 59,
      "chip": "ym2612"
    },
    {
      "channel": 0,
      "note": 2,
      "start": 123.945,
      "duration": 2.3166,
      "velocity": 1,
      "chip": "ym2612"
    },
    {
      "channel": 1,
      "note": 7,
      "start": 123.9463,
      "duration": 2.3158,
      "velocity": 1,
      "chip": "ym2612"
    },
    {
      "channel": 2,
      "note": 44,
      "start": 123.9476,
      "duration": 0.1632,
      "velocity": 1,
      "chip": "ym2612"
    },
    {
      "channel": 3,
      "note": 21,
      "start": 123.9488,
      "duration": 3.5727,
      "velocity": 124,
      "chip": "ym2612"
    },
    {
      "channel": 4,
      "note": 7,
      "start": 123.9501,
      "duration": 2.3135,
      "velocity": 1,
      "chip": "ym2612"
    },
    {
      "channel": 5,
      "note": 7,
      "start": 123.9513,
      "duration": 2.3128,
      "velocity": 1,
      "chip": "ym2612"
    },
    {
      "channel": 2,
      "note": 62,
      "start": 124.3928,
      "duration": 0.1479,
      "velocity": 59,
      "chip": "ym2612"
    },
    {
      "channel": 2,
      "note": 53,
      "start": 124.5419,
      "duration": 0.1648,
      "velocity": 1,
      "chip": "ym2612"
    },
    {
      "channel": 2,
      "note": 22,
      "start": 124.8398,
      "duration": 0.1479,
      "velocity": 127,
      "chip": "ym2612"
    },
    {
      "channel": 2,
      "note": 22,
      "start": 124.9881,
      "duration": 0.1485,
      "velocity": 127,
      "chip": "ym2612"
    },
    {
      "channel": 2,
      "note": 53,
      "start": 125.1378,
      "duration": 0.1648,
      "velocity": 1,
      "chip": "ym2612"
    },
    {
      "channel": 2,
      "note": 53,
      "start": 125.733,
      "duration": 0.1654,
      "velocity": 1,
      "chip": "ym2612"
    },
    {
      "channel": 0,
      "note": 7,
      "start": 126.328,
      "duration": 2.3172,
      "velocity": 1,
      "chip": "ym2612"
    },
    {
      "channel": 1,
      "note": 7,
      "start": 126.3287,
      "duration": 2.317,
      "velocity": 1,
      "chip": "ym2612"
    },
    {
      "channel": 2,
      "note": 53,
      "start": 126.3293,
      "duration": 0.165,
      "velocity": 1,
      "chip": "ym2612"
    },
    {
      "channel": 4,
      "note": 7,
      "start": 126.3305,
      "duration": 2.3168,
      "velocity": 1,
      "chip": "ym2612"
    },
    {
      "channel": 5,
      "note": 7,
      "start": 126.3311,
      "duration": 2.3167,
      "velocity": 1,
      "chip": "ym2612"
    },
    {
      "channel": 2,
      "note": 62,
      "start": 126.6274,
      "duration": 0.1479,
      "velocity": 59,
      "chip": "ym2612"
    },
    {
      "channel": 2,
      "note": 62,
      "start": 126.7758,
      "duration": 0.1485,
      "velocity": 59,
      "chip": "ym2612"
    },
    {
      "channel": 2,
      "note": 53,
      "start": 126.9254,
      "duration": 0.1649,
      "velocity": 1,
      "chip": "ym2612"
    },
    {
      "channel": 2,
      "note": 22,
      "start": 127.2234,
      "duration": 0.1478,
      "velocity": 127,
      "chip": "ym2612"
    },
    {
      "channel": 2,
      "note": 22,
      "start": 127.3717,
      "duration": 0.1485,
      "velocity": 127,
      "chip": "ym2612"
    },
    {
      "channel": 2,
      "note": 53,
      "start": 127.5213,
      "duration": 0.1648,
      "velocity": 1,
      "chip": "ym2612"
    },
    {
      "channel": 3,
      "note": 45,
      "start": 127.5228,
      "duration": 0.1469,
      "velocity": 107,
      "chip": "ym2612"
    },
    {
      "channel": 3,
      "note": 45,
      "start": 127.6705,
      "duration": 0.1482,
      "velocity": 106,
      "chip": "ym2612"
    },
    {
      "channel": 3,
      "note": 45,
      "start": 127.8194,
      "duration": 0.1483,
      "velocity": 105,
      "chip": "ym2612"
    },
    {
      "channel": 3,
      "note": 45,
      "start": 127.9683,
      "duration": 0.1484,
      "velocity": 104,
      "chip": "ym2612"
    },
    {
      "channel": 2,
      "note": 53,
      "start": 128.1166,
      "duration": 0.1654,
      "velocity": 1,
      "chip": "ym2612"
    },
    {
      "channel": 3,
      "note": 45,
      "start": 128.1175,
      "duration": 0.1481,
      "velocity": 103,
      "chip": "ym2612"
    },
    {
      "channel": 3,
      "note": 45,
      "start": 128.2663,
      "duration": 0.1489,
      "velocity": 102,
      "chip": "ym2612"
    },
    {
      "channel": 2,
      "note": 22,
      "start": 128.415,
      "duration": 0.148,
      "velocity": 127,
      "chip": "ym2612"
    },
    {
      "channel": 3,
      "note": 45,
      "start": 128.4159,
      "duration": 0.1477,
      "velocity": 101,
      "chip": "ym2612"
    },
    {
      "channel": 2,
      "note": 22,
      "start": 128.5634,
      "duration": 0.1501,
      "velocity": 127,
      "chip": "ym2612"
    },
    {
      "channel": 3,
      "note": 45,
      "start": 128.5643,
      "duration": 0.1505,
      "velocity": 100,
      "chip": "ym2612"
    },
    {
      "channel": 0,
      "note": 33,
      "start": 128.7122,
      "duration": 2.3824,
      "velocity": 108,
      "chip": "ym2612"
    },
    {
      "channel": 1,
      "note": 33,
      "start": 128.7134,
      "duration": 0.0813,
      "velocity": 117,
      "chip": "ym2612"
    },
    {
      "channel": 2,
      "note": 69,
      "start": 128.7146,
      "duration": 0.1466,
      "velocity": 59,
      "chip": "ym2612"
    },
    {
      "channel": 3,
      "note": 21,
      "start": 128.7159,
      "duration": 3.5062,
      "velocity": 124,
      "chip": "ym2612"
    },
    {
      "channel": 4,
      "note": 7,
      "start": 128.7166,
      "duration": 2.3141,
      "velocity": 1,
      "chip": "ym2612"
    },
    {
      "channel": 5,
      "note": 7,
      "start": 128.7172,
      "duration": 2.314,
      "velocity": 1,
      "chip": "ym2612"
    },
    {
      "channel": 1,
      "note": 33,
      "start": 128.8611,
      "duration": 0.0826,
      "velocity": 117,
      "chip": "ym2612"
    },
    {
      "channel": 2,
      "note": 69,
      "start": 128.8623,
      "duration": 0.1478,
      "velocity": 63,
      "chip": "ym2612"
    },
    {
      "channel": 1,
      "note": 33,
      "start": 129.01,
      "duration": 0.0826,
      "velocity": 117,
      "chip": "ym2612"
    },
    {
      "channel": 2,
      "note": 69,
      "start": 129.0112,
      "duration": 0.1479,
      "velocity": 59,
      "chip": "ym2612"
    },
    {
      "channel": 1,
      "note": 45,
      "start": 129.159,
      "duration": 0.0826,
      "velocity": 117,
      "chip": "ym2612"
    },
    {
      "channel": 2,
      "note": 69,
      "start": 129.1596,
      "duration": 0.1485,
      "velocity": 59,
      "chip": "ym2612"
    },
    {
      "channel": 1,
      "note": 33,
      "start": 129.308,
      "duration": 0.0826,
      "velocity": 117,
      "chip": "ym2612"
    },
    {
      "channel": 2,
      "note": 69,
      "start": 129.3092,
      "duration": 0.1479,
      "velocity": 63,
      "chip": "ym2612"
    },
    {
      "channel": 1,
      "note": 45,
      "start": 129.457,
      "duration": 0.0826,
      "velocity": 117,
      "chip": "ym2612"
    },
    {
      "channel": 2,
      "note": 69,
      "start": 129.4582,
      "duration": 0.148,
      "velocity": 59,
      "chip": "ym2612"
    },
    {
      "channel": 1,
      "note": 33,
      "start": 129.6059,
      "duration": 0.0826,
      "velocity": 117,
      "chip": "ym2612"
    },
    {
      "channel": 2,
      "note": 69,
      "start": 129.6066,
      "duration": 0.1484,
      "velocity": 59,
      "chip": "ym2612"
    },
    {
      "channel": 1,
      "note": 45,
      "start": 129.7549,
      "duration": 0.0827,
      "velocity": 117,
      "chip": "ym2612"
    },
    {
      "channel": 2,
      "note": 69,
      "start": 129.7561,
      "duration": 0.0649,
      "velocity": 63,
      "chip": "ym2612"
    },
    {
      "channel": 2,
      "note": 81,
      "start": 129.8222,
      "duration": 0.0819,
      "velocity": 59,
      "chip": "ym2612"
    },
    {
      "channel": 1,
      "note": 33,
      "start": 129.9039,
      "duration": 0.0826,
      "velocity": 117,
      "chip": "ym2612"
    },
    {
      "channel": 2,
      "note": 74,
      "start": 129.9045,
      "duration": 0.1485,
      "velocity": 59,
      "chip": "ym2612"
    },
    {
      "channel": 1,
      "note": 33,
      "start": 130.0528,
      "duration": 0.0826,
      "velocity": 117,
      "chip": "ym2612"
    },
    {
      "channel": 2,
      "note": 69,
      "start": 130.054,
      "duration": 0.1479,
      "velocity": 63,
      "chip": "ym2612"
    },
    {
      "channel": 1,
      "note": 33,
      "start": 130.2018,
      "duration": 0.1485,
      "velocity": 117,
      "chip": "ym2612"
    },
    {
      "channel": 2,
      "note": 69,
      "start": 130.203,
      "duration": 0.1479,
      "velocity": 59,
      "chip": "ym2612"
    },
    {
      "channel": 1,
      "note": 45,
      "start": 130.3508,
      "duration": 0.0826,
      "velocity": 117,
      "chip": "ym2612"
    },
    {
      "channel": 2,
      "note": 69,
      "start": 130.3514,
      "duration": 0.1485,
      "velocity": 59,
      "chip": "ym2612"
    },
    {
      "channel": 1,
      "note": 33,
      "start": 130.4998,
      "duration": 0.0826,
      "velocity": 117,
      "chip": "ym2612"
    },
    {
      "channel": 2,
      "note": 69,
      "start": 130.501,
      "duration": 0.1478,
      "velocity": 63,
      "chip": "ym2612"
    },
    {
      "channel": 1,
      "note": 33,
      "start": 130.6487,
      "duration": 0.0826,
      "velocity": 117,
      "chip": "ym2612"
    },
    {
      "channel": 2,
      "note": 69,
      "start": 130.6499,
      "duration": 0.148,
      "velocity": 59,
      "chip": "ym2612"
    },
    {
      "channel": 1,
      "note": 33,
      "start": 130.7977,
      "duration": 0.0827,
      "velocity": 117,
      "chip": "ym2612"
    },
    {
      "channel": 2,
      "note": 69,
      "start": 130.7983,
      "duration": 0.1485,
      "velocity": 59,
      "chip": "ym2612"
    },
    {
      "channel": 1,
      "note": 33,
      "start": 130.9467,
      "duration": 0.0826,
      "velocity": 117,
      "chip": "ym2612"
    },
    {
      "channel": 2,
      "note": 69,
      "start": 130.9479,
      "duration": 0.1481,
      "velocity": 63,
      "chip": "ym2612"
    },
    {
      "channel": 0,
      "note": 33,
      "start": 131.0952,
      "duration": 2.3829,
      "velocity": 108,
      "chip": "ym2612"
    },
    {
      "channel": 1,
      "note": 33,
      "start": 131.0958,
      "duration": 0.0824,
      "velocity": 117,
      "chip": "ym2612"
    },
    {
      "channel": 2,
      "note": 69,
      "start": 131.097,
      "duration": 0.1477,
      "velocity": 59,
      "chip": "ym2612"
    },
    {
      "channel": 4,
      "note": 7,
      "start": 131.0982,
      "duration": 2.3161,
      "velocity": 1,
      "chip": "ym2612"
    },
    {
      "channel": 5,
      "note": 7,
      "start": 131.0988,
      "duration": 2.316,
      "velocity": 1,
      "chip": "ym2612"
    },
    {
      "channel": 1,
      "note": 33,
      "start": 131.2446,
      "duration": 0.0826,
      "velocity": 117,
      "chip": "ym2612"
    },
    {
      "channel": 2,
      "note": 69,
      "start": 131.2458,
      "duration": 0.1479,
      "velocity": 63,
      "chip": "ym2612"
    },
    {
      "channel": 1,
      "note": 33,
      "start": 131.3936,
      "duration": 0.0826,
      "velocity": 117,
      "chip": "ym2612"
    },
    {
      "channel": 2,
      "note": 69,
      "start": 131.3948,
      "duration": 0.1479,
      "velocity": 59,
      "chip": "ym2612"
    },
    {
      "channel": 1,
      "note": 45,
      "start": 131.5426,
      "duration": 0.0826,
      "velocity": 117,
      "chip": "ym2612"
    },
    {
      "channel": 2,
      "note": 69,
      "start": 131.5432,
      "duration": 0.1484,
      "velocity": 59,
      "chip": "ym2612"
    },
    {
      "channel": 1,
      "note": 33,
      "start": 131.6915,
      "duration": 0.0826,
      "velocity": 117,
      "chip": "ym2612"
    },
    {
      "channel": 2,
      "note": 69,
      "start": 131.6927,
      "duration": 0.148,
      "velocity": 63,
      "chip": "ym2612"
    },
    {
      "channel": 1,
      "note": 45,
      "start": 131.8405,
      "duration": 0.0826,
      "velocity": 117,
      "chip": "ym2612"
    },
    {
      "channel": 2,
      "note": 69,
      "start": 131.8418,
      "duration": 0.1479,
      "velocity": 59,
      "chip": "ym2612"
    },
    {
      "channel": 1,
      "note": 33,
      "start": 131.9895,
      "duration": 0.0826,
      "velocity": 117,
      "chip": "ym2612"
    },
    {
      "channel": 2,
      "note": 69,
      "start": 131.9902,
      "duration": 0.1484,
      "velocity": 59,
      "chip": "ym2612"
    },
    {
      "channel": 1,
      "note": 45,
      "start": 132.1385,
      "duration": 0.0826,
      "velocity": 117,
      "chip": "ym2612"
    },
    {
      "channel": 2,
      "note": 69,
      "start": 132.1397,
      "duration": 0.1478,
      "velocity": 63,
      "chip": "ym2612"
    },
    {
      "channel": 1,
      "note": 33,
      "start": 132.2874,
      "duration": 0.0826,
      "velocity": 117,
      "chip": "ym2612"
    },
    {
      "channel": 2,
      "note": 69,
      "start": 132.2886,
      "duration": 0.1479,
      "velocity": 59,
      "chip": "ym2612"
    },
    {
      "channel": 3,
      "note": 19,
      "start": 132.2893,
      "duration": 1.1245,
      "velocity": 124,
      "chip": "ym2612"
    },
    {
      "channel": 1,
      "note": 33,
      "start": 132.4364,
      "duration": 0.0826,
      "velocity": 117,
      "chip": "ym2612"
    },
    {
      "channel": 2,
      "note": 69,
      "start": 132.4376,
      "duration": 0.1479,
      "velocity": 63,
      "chip": "ym2612"
    },
    {
      "channel": 1,
      "note": 33,
      "start": 132.5854,
      "duration": 0.1485,
      "velocity": 117,
      "chip": "ym2612"
    },
    {
      "channel": 2,
      "note": 69,
      "start": 132.5866,
      "duration": 0.1479,
      "velocity": 59,
      "chip": "ym2612"
    },
    {
      "channel": 1,
      "note": 45,
      "start": 132.7343,
      "duration": 0.0826,
      "velocity": 117,
      "chip": "ym2612"
    },
    {
      "channel": 2,
      "note": 69,
      "start": 132.7349,
      "duration": 0.1485,
      "velocity": 59,
      "chip": "ym2612"
    },
    {
      "channel": 1,
      "note": 33,
      "start": 132.8833,
      "duration": 0.0827,
      "velocity": 117,
      "chip": "ym2612"
    },
    {
      "channel": 2,
      "note": 69,
      "start": 132.8845,
      "duration": 0.1479,
      "velocity": 63,
      "chip": "ym2612"
    },
    {
      "channel": 1,
      "note": 33,
      "start": 133.0323,
      "duration": 0.0826,
      "velocity": 117,
      "chip": "ym2612"
    },
    {
      "channel": 2,
      "note": 69,
      "start": 133.0335,
      "duration": 0.1479,
      "velocity": 59,
      "chip": "ym2612"
    },
    {
      "channel": 1,
      "note": 33,
      "start": 133.1813,
      "duration": 0.0826,
      "velocity": 117,
      "chip": "ym2612"
    },
    {
      "channel": 2,
      "note": 69,
      "start": 133.1819,
      "duration": 0.1485,
      "velocity": 59,
      "chip": "ym2612"
    },
    {
      "channel": 1,
      "note": 33,
      "start": 133.3302,
      "duration": 0.0826,
      "velocity": 117,
      "chip": "ym2612"
    },
    {
      "channel": 2,
      "note": 69,
      "start": 133.3309,
      "duration": 0.1491,
      "velocity": 59,
      "chip": "ym2612"
    },
    {
      "channel": 0,
      "note": 45,
      "start": 133.4792,
      "duration": 0.2969,
      "velocity": 122,
      "chip": "ym2612"
    },
    {
      "channel": 1,
      "note": 33,
      "start": 133.4799,
      "duration": 0.1478,
      "velocity": 117,
      "chip": "ym2612"
    },
    {
      "channel": 2,
      "note": 45,
      "start": 133.4811,
      "duration": 3.8714,
      "velocity": 108,
      "chip": "ym2612"
    },
    {
      "channel": 3,
      "note": 21,
      "start": 133.4818,
      "duration": 4.699,
      "velocity": 124,
      "chip": "ym2612"
    },
    {
      "channel": 4,
      "note": 41,
      "start": 133.483,
      "duration": 0.0633,
      "velocity": 120,
      "chip": "ym2612"
    },
    {
      "channel": 5,
      "note": 45,
      "start": 133.4844,
      "duration": 0.1456,
      "velocity": 95,
      "chip": "ym2612"
    },
    {
      "channel": 4,
      "note": 43,
      "start": 133.5468,
      "duration": 0.0825,
      "velocity": 120,
      "chip": "ym2612"
    },
    {
      "channel": 1,
      "note": 45,
      "start": 133.6281,
      "duration": 0.1493,
      "velocity": 117,
      "chip": "ym2612"
    },
    {
      "channel": 4,
      "note": 45,
      "start": 133.6297,
      "duration": 0.0656,
      "velocity": 119,
      "chip": "ym2612"
    },
    {
      "channel": 5,
      "note": 40,
      "start": 133.6305,
      "duration": 0.1491,
      "velocity": 95,
      "chip": "ym2612"
    },
    {
      "channel": 4,
      "note": 46,
      "start": 133.6958,
      "duration": 0.0832,
      "velocity": 119,
      "chip": "ym2612"
    },
    {
      "channel": 0,
      "note": 72,
      "start": 133.7772,
      "duration": 0.2969,
      "velocity": 113,
      "chip": "ym2612"
    },
    {
      "channel": 1,
      "note": 33,
      "start": 133.7778,
      "duration": 0.1478,
      "velocity": 117,
      "chip": "ym2612"
    },
    {
      "channel": 4,
      "note": 48,
      "start": 133.7795,
      "duration": 0.0648,
      "velocity": 118,
      "chip": "ym2612"
    },
    {
      "channel": 5,
      "note": 43,
      "start": 133.7802,
      "duration": 0.1476,
      "velocity": 94,
      "chip": "ym2612"
    },
    {
      "channel": 4,
      "note": 50,
      "start": 133.8447,
      "duration": 0.0825,
      "velocity": 118,
      "chip": "ym2612"
    },
    {
      "channel": 1,
      "note": 33,
      "start": 133.9261,
      "duration": 0.1492,
      "velocity": 117,
      "chip": "ym2612"
    },
    {
      "channel": 4,
      "note": 52,
      "start": 133.9277,
      "duration": 0.0656,
      "velocity": 117,
      "chip": "ym2612"
    },
    {
      "channel": 5,
      "note": 45,
      "start": 133.9285,
      "duration": 0.1491,
      "velocity": 94,
      "chip": "ym2612"
    },
    {
      "channel": 4,
      "note": 53,
      "start": 133.9937,
      "duration": 0.0832,
      "velocity": 117,
      "chip": "ym2612"
    },
    {
      "channel": 0,
      "note": 24,
      "start": 134.0751,
      "duration": 0.2968,
      "velocity": 126,
      "chip": "ym2612"
    },
    {
      "channel": 1,
      "note": 45,
      "start": 134.0758,
      "duration": 0.1478,
      "velocity": 117,
      "chip": "ym2612"
    },
    {
      "channel": 4,
      "note": 55,
      "start": 134.0774,
      "duration": 0.0649,
      "velocity": 116,
      "chip": "ym2612"
    },
    {
      "channel": 5,
      "note": 40,
      "start": 134.0781,
      "duration": 0.1476,
      "velocity": 93,
      "chip": "ym2612"
    },
    {
      "channel": 4,
      "note": 57,
      "start": 134.1427,
      "duration": 0.0825,
      "velocity": 116,
      "chip": "ym2612"
    },
    {
      "channel": 1,
      "note": 33,
      "start": 134.224,
      "duration": 0.1493,
      "velocity": 117,
      "chip": "ym2612"
    },
    {
      "channel": 4,
      "note": 58,
      "start": 134.2257,
      "duration": 0.0656,
      "velocity": 115,
      "chip": "ym2612"
    },
    {
      "channel": 5,
      "note": 43,
      "start": 134.2264,
      "duration": 0.1491,
      "velocity": 93,
      "chip": "ym2612"
    },
    {
      "channel": 4,
      "note": 60,
      "start": 134.2917,
      "duration": 0.0833,
      "velocity": 115,
      "chip": "ym2612"
    },
    {
      "channel": 0,
      "note": 45,
      "start": 134.3731,
      "duration": 0.2968,
      "velocity": 122,
      "chip": "ym2612"
    },
    {
      "channel": 1,
      "note": 33,
      "start": 134.3738,
      "duration": 0.1477,
      "velocity": 117,
      "chip": "ym2612"
    },
    {
      "channel": 4,
      "note": 62,
      "start": 134.3754,
      "duration": 0.0648,
      "velocity": 114,
      "chip": "ym2612"
    },
    {
      "channel": 5,
      "note": 45,
      "start": 134.3762,
      "duration": 0.1476,
      "velocity": 92,
      "chip": "ym2612"
    },
    {
      "channel": 4,
      "note": 64,
      "start": 134.4407,
      "duration": 0.0825,
      "velocity": 114,
      "chip": "ym2612"
    },
    {
      "channel": 1,
      "note": 45,
      "start": 134.5219,
      "duration": 0.1487,
      "velocity": 117,
      "chip": "ym2612"
    },
    {
      "channel": 4,
      "note": 65,
      "start": 134.5236,
      "duration": 0.0655,
      "velocity": 113,
      "chip": "ym2612"
    },
    {
      "channel": 5,
      "note": 40,
      "start": 134.5244,
      "duration": 0.1485,
      "velocity": 92,
      "chip": "ym2612"
    },
    {
      "channel": 4,
      "note": 67,
      "start": 134.5897,
      "duration": 0.0826,
      "velocity": 113,
      "chip": "ym2612"
    },
    {
      "channel": 0,
      "note": 45,
      "start": 134.6705,
      "duration": 0.5954,
      "velocity": 122,
      "chip": "ym2612"
    },
    {
      "channel": 1,
      "note": 33,
      "start": 134.6711,
      "duration": 0.1483,
      "velocity": 117,
      "chip": "ym2612"
    },
    {
      "channel": 4,
      "note": 69,
      "start": 134.6727,
      "duration": 0.0654,
      "velocity": 112,
      "chip": "ym2612"
    },
    {
      "channel": 5,
      "note": 45,
      "start": 134.6735,
      "duration": 0.1482,
      "velocity": 91,
      "chip": "ym2612"
    },
    {
      "channel": 4,
      "note": 70,
      "start": 134.7386,
      "duration": 0.0825,
      "velocity": 112,
      "chip": "ym2612"
    },
    {
      "channel": 1,
      "note": 45,
      "start": 134.8199,
      "duration": 0.1485,
      "velocity": 117,
      "chip": "ym2612"
    },
    {
      "channel": 4,
      "note": 72,
      "start": 134.8215,
      "duration": 0.0656,
      "velocity": 113,
      "chip": "ym2612"
    },
    {
      "channel": 5,
      "note": 40,
      "start": 134.8223,
      "duration": 0.1483,
      "velocity": 91,
      "chip": "ym2612"
    },
    {
      "channel": 4,
      "note": 74,
      "start": 134.8876,
      "duration": 0.0824,
      "velocity": 113,
      "chip": "ym2612"
    },
    {
      "channel": 1,
      "note": 33,
      "start": 134.9689,
      "duration": 0.1485,
      "velocity": 117,
      "chip": "ym2612"
    },
    {
      "channel": 4,
      "note": 76,
      "start": 134.9705,
      "duration": 0.0656,
      "velocity": 114,
      "chip": "ym2612"
    },
    {
      "channel": 5,
      "note": 43,
      "start": 134.9713,
      "duration": 0.1483,
      "velocity": 90,
      "chip": "ym2612"
    },
    {
      "channel": 4,
      "note": 77,
      "start": 135.0365,
      "duration": 0.0824,
      "velocity": 114,
      "chip": "ym2612"
    },
    {
      "channel": 1,
      "note": 33,
      "start": 135.1178,
      "duration": 0.1492,
      "velocity": 117,
      "chip": "ym2612"
    },
    {
      "channel": 4,
      "note": 79,
      "start": 135.1194,
      "duration": 0.0656,
      "velocity": 115,
      "chip": "ym2612"
    },
    {
      "channel": 5,
      "note": 45,
      "start": 135.1202,
      "duration": 0.1491,
      "velocity": 90,
      "chip": "ym2612"
    },
    {
      "channel": 4,
      "note": 81,
      "start": 135.1855,
      "duration": 0.0832,
      "velocity": 115,
      "chip": "ym2612"
    },
    {
      "channel": 0,
      "note": 24,
      "start": 135.2669,
      "duration": 0.5948,
      "velocity": 126,
      "chip": "ym2612"
    },
    {
      "channel": 1,
      "note": 45,
      "start": 135.2675,
      "duration": 0.1478,
      "velocity": 117,
      "chip": "ym2612"
    },
    {
      "channel": 4,
      "note": 82,
      "start": 135.2692,
      "duration": 0.0648,
      "velocity": 116,
      "chip": "ym2612"
    },
    {
      "channel": 5,
      "note": 40,
      "start": 135.2699,
      "duration": 0.1476,
      "velocity": 89,
      "chip": "ym2612"
    },
    {
      "channel": 4,
      "note": 84,
      "start": 135.3344,
      "duration": 0.0825,
      "velocity": 116,
      "chip": "ym2612"
    },
    {
      "channel": 1,
      "note": 33,
      "start": 135.4158,
      "duration": 0.1485,
      "velocity": 117,
      "chip": "ym2612"
    },
    {
      "channel": 4,
      "note": 86,
      "start": 135.4174,
      "duration": 0.0656,
      "velocity": 117,
      "chip": "ym2612"
    },
    {
      "channel": 5,
      "note": 47,
      "start": 135.4182,
      "duration": 0.1483,
      "velocity": 89,
      "chip": "ym2612"
    },
    {
      "channel": 4,
      "note": 88,
      "start": 135.4834,
      "duration": 0.0825,
      "velocity": 117,
      "chip": "ym2612"
    },
    {
      "channel": 1,
      "note": 45,
      "start": 135.5647,
      "duration": 0.1485,
      "velocity": 117,
      "chip": "ym2612"
    },
    {
      "channel": 4,
      "note": 89,
      "start": 135.5664,
      "duration": 0.0656,
      "velocity": 118,
      "chip": "ym2612"
    },
    {
      "channel": 5,
      "note": 48,
      "start": 135.5671,
      "duration": 0.1483,
      "velocity": 88,
      "chip": "ym2612"
    },
    {
      "channel": 4,
      "note": 91,
      "start": 135.6324,
      "duration": 0.0825,
      "velocity": 118,
      "chip": "ym2612"
    },
    {
      "channel": 1,
      "note": 45,
      "start": 135.7137,
      "duration": 0.1493,
      "velocity": 117,
      "chip": "ym2612"
    },
    {
      "channel": 4,
      "note": 93,
      "start": 135.7154,
      "duration": 0.0656,
      "velocity": 119,
      "chip": "ym2612"
    },
    {
      "channel": 5,
      "note": 47,
      "start": 135.7161,
      "duration": 0.1491,
      "velocity": 88,
      "chip": "ym2612"
    },
    {
      "channel": 4,
      "note": 94,
      "start": 135.7814,
      "duration": 0.0832,
      "velocity": 119,
      "chip": "ym2612"
    },
    {
      "channel": 0,
      "note": 45,
      "start": 135.8628,
      "duration": 0.2968,
      "velocity": 122,
      "chip": "ym2612"
    },
    {
      "channel": 1,
      "note": 33,
      "start": 135.8634,
      "duration": 0.1478,
      "velocity": 117,
      "chip": "ym2612"
    },
    {
      "channel": 4,
      "note": 93,
      "start": 135.8651,
      "duration": 0.0648,
      "velocity": 120,
      "chip": "ym2612"
    },
    {
      "channel": 5,
      "note": 45,
      "start": 135.8659,
      "duration": 0.1476,
      "velocity": 87,
      "chip": "ym2612"
    },
    {
      "channel": 4,
      "note": 91,
      "start": 135.9304,
      "duration": 0.0824,
      "velocity": 120,
      "chip": "ym2612"
    },
    {
      "channel": 1,
      "note": 45,
      "start": 136.0117,
      "duration": 0.1492,
      "velocity": 117,
      "chip": "ym2612"
    },
    {
      "channel": 4,
      "note": 89,
      "start": 136.0133,
      "duration": 0.0656,
      "velocity": 119,
      "chip": "ym2612"
    },
    {
      "channel": 5,
      "note": 40,
      "start": 136.0141,
      "duration": 0.149,
      "velocity": 87,
      "chip": "ym2612"
    },
    {
      "channel": 4,
      "note": 88,
      "start": 136.0793,
      "duration": 0.0832,
      "velocity": 119,
      "chip": "ym2612"
    },
    {
      "channel": 0,
      "note": 84,
      "start": 136.1607,
      "duration": 0.2969,
      "velocity": 113,
      "chip": "ym2612"
    },
    {
      "channel": 1,
      "note": 33,
      "start": 136.1614,
      "duration": 0.1478,
      "velocity": 117,
      "chip": "ym2612"
    },
    {
      "channel": 4,
      "note": 86,
      "start": 136.163,
      "duration": 0.0648,
      "velocity": 118,
      "chip": "ym2612"
    },
    {
      "channel": 5,
      "note": 43,
      "start": 136.1638,
      "duration": 0.1476,
      "velocity": 88,
      "chip": "ym2612"
    },
    {
      "channel": 4,
      "note": 84,
      "start": 136.2283,
      "duration": 0.0824,
      "velocity": 118,
      "chip": "ym2612"
    },
    {
      "channel": 1,
      "note": 33,
      "start": 136.3096,
      "duration": 0.1492,
      "velocity": 117,
      "chip": "ym2612"
    },
    {
      "channel": 4,
      "note": 82,
      "start": 136.3112,
      "duration": 0.0656,
      "velocity": 117,
      "chip": "ym2612"
    },
    {
      "channel": 5,
      "note": 45,
      "start": 136.312,
      "duration": 0.1491,
      "velocity": 88,
      "chip": "ym2612"
    },
    {
      "channel": 4,
      "note": 81,
      "start": 136.3773,
      "duration": 0.0832,
      "velocity": 117,
      "chip": "ym2612"
    },
    {
      "channel": 0,
      "note": 24,
      "start": 136.4587,
      "duration": 0.2969,
      "velocity": 126,
      "chip": "ym2612"
    },
    {
      "channel": 1,
      "note": 45,
      "start": 136.4593,
      "duration": 0.1478,
      "velocity": 117,
      "chip": "ym2612"
    },
    {
      "channel": 4,
      "note": 79,
      "start": 136.461,
      "duration": 0.0648,
      "velocity": 116,
      "chip": "ym2612"
    },
    {
      "channel": 5,
      "note": 40,
      "start": 136.4617,
      "duration": 0.1476,
      "velocity": 89,
      "chip": "ym2612"
    },
    {
      "channel": 4,
      "note": 77,
      "start": 136.5262,
      "duration": 0.0825,
      "velocity": 116,
      "chip": "ym2612"
    },
    {
      "channel": 1,
      "note": 33,
      "start": 136.6075,
      "duration": 0.1493,
      "velocity": 117,
      "chip": "ym2612"
    },
    {
      "channel": 4,
      "note": 76,
      "start": 136.6092,
      "duration": 0.0656,
      "velocity": 115,
      "chip": "ym2612"
    },
    {
      "channel": 5,
      "note": 43,
      "start": 136.61,
      "duration": 0.1492,
      "velocity": 89,
      "chip": "ym2612"
    },
    {
      "channel": 4,
      "note": 74,
      "start": 136.6753,
      "duration": 0.0832,
      "velocity": 115,
      "chip": "ym2612"
    },
    {
      "channel": 0,
      "note": 45,
      "start": 136.7567,
      "duration": 0.2968,
      "velocity": 122,
      "chip": "ym2612"
    },
    {
      "channel": 1,
      "note": 45,
      "start": 136.7573,
      "duration": 0.1477,
      "velocity": 117,
      "chip": "ym2612"
    },
    {
      "channel": 4,
      "note": 72,
      "start": 136.7589,
      "duration": 0.0648,
      "velocity": 114,
      "chip": "ym2612"
    },
    {
      "channel": 5,
      "note": 45,
      "start": 136.7597,
      "duration": 0.1476,
      "velocity": 90,
      "chip": "ym2612"
    },
    {
      "channel": 4,
      "note": 70,
      "start": 136.8243,
      "duration": 0.0824,
      "velocity": 114,
      "chip": "ym2612"
    },
    {
      "channel": 1,
      "note": 33,
      "start": 136.9055,
      "duration": 0.1487,
      "velocity": 117,
      "chip": "ym2612"
    },
    {
      "channel": 4,
      "note": 69,
      "start": 136.9071,
      "duration": 0.0656,
      "velocity": 113,
      "chip": "ym2612"
    },
    {
      "channel": 5,
      "note": 40,
      "start": 136.9079,
      "duration": 0.1486,
      "velocity": 90,
      "chip": "ym2612"
    },
    {
      "channel": 4,
      "note": 67,
      "start": 136.9732,
      "duration": 0.0827,
      "velocity": 113,
      "chip": "ym2612"
    },
    {
      "channel": 0,
      "note": 45,
      "start": 137.054,
      "duration": 0.5954,
      "velocity": 122,
      "chip": "ym2612"
    },
    {
      "channel": 1,
      "note": 33,
      "start": 137.0547,
      "duration": 0.1483,
      "velocity": 117,
      "chip": "ym2612"
    },
    {
      "channel": 4,
      "note": 65,
      "start": 137.0563,
      "duration": 0.0653,
      "velocity": 112,
      "chip": "ym2612"
    },
    {
      "channel": 5,
      "note": 43,
      "start": 137.0571,
      "duration": 0.1481,
      "velocity": 91,
      "chip": "ym2612"
    },
    {
      "channel": 4,
      "note": 64,
      "start": 137.1222,
      "duration": 0.0824,
      "velocity": 112,
      "chip": "ym2612"
    },
    {
      "channel": 1,
      "note": 45,
      "start": 137.2035,
      "duration": 0.1485,
      "velocity": 117,
      "chip": "ym2612"
    },
    {
      "channel": 4,
      "note": 62,
      "start": 137.2051,
      "duration": 0.0656,
      "velocity": 113,
      "chip": "ym2612"
    },
    {
      "channel": 5,
      "note": 45,
      "start": 137.2058,
      "duration": 0.1486,
      "velocity": 91,
      "chip": "ym2612"
    },
    {
      "channel": 4,
      "note": 60,
      "start": 137.2712,
      "duration": 0.0826,
      "velocity": 113,
      "chip": "ym2612"
    },
    {
      "channel": 1,
      "note": 33,
      "start": 137.3524,
      "duration": 0.1485,
      "velocity": 117,
      "chip": "ym2612"
    },
    {
      "channel": 2,
      "note": 33,
      "start": 137.3532,
      "duration": 0.2981,
      "velocity": 108,
      "chip": "ym2612"
    },
    {
      "channel": 4,
      "note": 58,
      "start": 137.3542,
      "duration": 0.0654,
      "velocity": 114,
      "chip": "ym2612"
    },
    {
      "channel": 5,
      "note": 47,
      "start": 137.355,
      "duration": 0.1482,
      "velocity": 92,
      "chip": "ym2612"
    },
    {
      "channel": 4,
      "note": 57,
      "start": 137.4201,
      "duration": 0.0825,
      "velocity": 114,
      "chip": "ym2612"
    },
    {
      "channel": 1,
      "note": 45,
      "start": 137.5014,
      "duration": 0.1493,
      "velocity": 117,
      "chip": "ym2612"
    },
    {
      "channel": 4,
      "note": 55,
      "start": 137.503,
      "duration": 0.0656,
      "velocity": 115,
      "chip": "ym2612"
    },
    {
      "channel": 5,
      "note": 48,
      "start": 137.5038,
      "duration": 0.1493,
      "velocity": 92,
      "chip": "ym2612"
    },
    {
      "channel": 4,
      "note": 53,
      "start": 137.569,
      "duration": 0.0834,
      "velocity": 115,
      "chip": "ym2612"
    },
    {
      "channel": 0,
      "note": 21,
      "start": 137.6505,
      "duration": 0.5948,
      "velocity": 126,
      "chip": "ym2612"
    },
    {
      "channel": 1,
      "note": 33,
      "start": 137.6511,
      "duration": 0.1478,
      "velocity": 117,
      "chip": "ym2612"
    },
    {
      "channel": 2,
      "note": 36,
      "start": 137.6518,
      "duration": 0.2967,
      "velocity": 108,
      "chip": "ym2612"
    },
    {
      "channel": 4,
      "note": 52,
      "start": 137.6529,
      "duration": 0.0647,
      "velocity": 116,
      "chip": "ym2612"
    },
    {
      "channel": 5,
      "note": 50,
      "start": 137.6537,
      "duration": 0.1475,
      "velocity": 93,
      "chip": "ym2612"
    },
    {
      "channel": 4,
      "note": 50,
      "start": 137.718,
      "duration": 0.0825,
      "velocity": 116,
      "chip": "ym2612"
    },
    {
      "channel": 1,
      "note": 33,
      "start": 137.7993,
      "duration": 0.1485,
      "velocity": 117,
      "chip": "ym2612"
    },
    {
      "channel": 4,
      "note": 48,
      "start": 137.801,
      "duration": 0.0656,
      "velocity": 117,
      "chip": "ym2612"
    },
    {
      "channel": 5,
      "note": 48,
      "start": 137.8017,
      "duration": 0.1485,
      "velocity": 93,
      "chip": "ym2612"
    },
    {
      "channel": 4,
      "note": 46,
      "start": 137.867,
      "duration": 0.0826,
      "velocity": 117,
      "chip": "ym2612"
    },
    {
      "channel": 1,
      "note": 45,
      "start": 137.9483,
      "duration": 0.1485,
      "velocity": 117,
      "chip": "ym2612"
    },
    {
      "channel": 2,
      "note": 33,
      "start": 137.949,
      "duration": 0.2982,
      "velocity": 108,
      "chip": "ym2612"
    },
    {
      "channel": 4,
      "note": 45,
      "start": 137.9501,
      "duration": 0.0655,
      "velocity": 118,
      "chip": "ym2612"
    },
    {
      "channel": 5,
      "note": 47,
      "start": 137.9509,
      "duration": 0.1482,
      "velocity": 94,
      "chip": "ym2612"
    },
    {
      "channel": 4,
      "note": 43,
      "start": 138.016,
      "duration": 0.0825,
      "velocity": 118,
      "chip": "ym2612"
    },
    {
      "channel": 1,
      "note": 33,
      "start": 138.0973,
      "duration": 0.1492,
      "velocity": 117,
      "chip": "ym2612"
    },
    {
      "channel": 4,
      "note": 41,
      "start": 138.099,
      "duration": 0.0656,
      "velocity": 119,
      "chip": "ym2612"
    },
    {
      "channel": 5,
      "note": 40,
      "start": 138.0997,
      "duration": 0.1494,
      "velocity": 94,
      "chip": "ym2612"
    },
    {
      "channel": 4,
      "note": 40,
      "start": 138.165,
      "duration": 0.0835,
      "velocity": 119,
      "chip": "ym2612"
    },
    {
      "channel": 0,
      "note": 45,
      "start": 138.2463,
      "duration": 0.2969,
      "velocity": 122,
      "chip": "ym2612"
    },
    {
      "channel": 1,
      "note": 33,
      "start": 138.247,
      "duration": 0.1478,
      "velocity": 117,
      "chip": "ym2612"
    },
    {
      "channel": 2,
      "note": 38,
      "start": 138.2477,
      "duration": 4.7666,
      "velocity": 108,
      "chip": "ym2612"
    },
    {
      "channel": 3,
      "note": 21,
      "start": 138.2484,
      "duration": 3.5741,
      "velocity": 124,
      "chip": "ym2612"
    },
    {
      "channel": 4,
      "note": 41,
      "start": 138.249,
      "duration": 0.0645,
      "velocity": 120,
      "chip": "ym2612"
    },
    {
      "channel": 5,
      "note": 45,
      "start": 138.2497,
      "duration": 0.1473,
      "velocity": 95,
      "chip": "ym2612"
    },
    {
      "channel": 4,
      "note": 43,
      "start": 138.314,
      "duration": 0.0824,
      "velocity": 120,
      "chip": "ym2612"
    },
    {
      "channel": 1,
      "note": 45,
      "start": 138.3953,
      "duration": 0.1492,
      "velocity": 117,
      "chip": "ym2612"
    },
    {
      "channel": 4,
      "note": 45,
      "start": 138.3969,
      "duration": 0.0655,
      "velocity": 119,
      "chip": "ym2612"
    },
    {
      "channel": 5,
      "note": 40,
      "start": 138.3977,
      "duration": 0.149,
      "velocity": 95,
      "chip": "ym2612"
    },
    {
      "channel": 4,
      "note": 46,
      "start": 138.4629,
      "duration": 0.0832,
      "velocity": 119,
      "chip": "ym2612"
    },
    {
      "channel": 0,
      "note": 72,
      "start": 138.5443,
      "duration": 0.2969,
      "velocity": 113,
      "chip": "ym2612"
    },
    {
      "channel": 1,
      "note": 33,
      "start": 138.5449,
      "duration": 0.1478,
      "velocity": 117,
      "chip": "ym2612"
    },
    {
      "channel": 4,
      "note": 48,
      "start": 138.5466,
      "duration": 0.0648,
      "velocity": 118,
      "chip": "ym2612"
    },
    {
      "channel": 5,
      "note": 43,
      "start": 138.5473,
      "duration": 0.1476,
      "velocity": 94,
      "chip": "ym2612"
    },
    {
      "channel": 4,
      "note": 50,
      "start": 138.6119,
      "duration": 0.0825,
      "velocity": 118,
      "chip": "ym2612"
    },
    {
      "channel": 1,
      "note": 33,
      "start": 138.6932,
      "duration": 0.1493,
      "velocity": 117,
      "chip": "ym2612"
    },
    {
      "channel": 4,
      "note": 52,
      "start": 138.6948,
      "duration": 0.0656,
      "velocity": 117,
      "chip": "ym2612"
    },
    {
      "channel": 5,
      "note": 45,
      "start": 138.6956,
      "duration": 0.1491,
      "velocity": 94,
      "chip": "ym2612"
    },
    {
      "channel": 4,
      "note": 53,
      "start": 138.7608,
      "duration": 0.0832,
      "velocity": 117,
      "chip": "ym2612"
    },
    {
      "channel": 0,
      "note": 24,
      "start": 138.8423,
      "duration": 0.2968,
      "velocity": 126,
      "chip": "ym2612"
    },
    {
      "channel": 1,
      "note": 45,
      "start": 138.8429,
      "duration": 0.1478,
      "velocity": 117,
      "chip": "ym2612"
    },
    {
      "channel": 4,
      "note": 55,
      "start": 138.8445,
      "duration": 0.0649,
      "velocity": 116,
      "chip": "ym2612"
    },
    {
      "channel": 5,
      "note": 40,
      "start": 138.8453,
      "duration": 0.1476,
      "velocity": 93,
      "chip": "ym2612"
    },
    {
      "channel": 4,
      "note": 57,
      "start": 138.9098,
      "duration": 0.0824,
      "velocity": 116,
      "chip": "ym2612"
    },
    {
      "channel": 1,
      "note": 33,
      "start": 138.9911,
      "duration": 0.1493,
      "velocity": 117,
      "chip": "ym2612"
    },
    {
      "channel": 4,
      "note": 58,
      "start": 138.9928,
      "duration": 0.0656,
      "velocity": 115,
      "chip": "ym2612"
    },
    {
      "channel": 5,
      "note": 43,
      "start": 138.9935,
      "duration": 0.1491,
      "velocity": 93,
      "chip": "ym2612"
    },
    {
      "channel": 4,
      "note": 60,
      "start": 139.0588,
      "duration": 0.0833,
      "velocity": 115,
      "chip": "ym2612"
    },
    {
      "channel": 0,
      "note": 45,
      "start": 139.1402,
      "duration": 0.2969,
      "velocity": 122,
      "chip": "ym2612"
    },
    {
      "channel": 1,
      "note": 33,
      "start": 139.1409,
      "duration": 0.1477,
      "velocity": 117,
      "chip": "ym2612"
    },
    {
      "channel": 4,
      "note": 62,
      "start": 139.1425,
      "duration": 0.0648,
      "velocity": 114,
      "chip": "ym2612"
    },
    {
      "channel": 5,
      "note": 45,
      "start": 139.1433,
      "duration": 0.1476,
      "velocity": 92,
      "chip": "ym2612"
    },
    {
      "channel": 4,
      "note": 64,
      "start": 139.2078,
      "duration": 0.0825,
      "velocity": 114,
      "chip": "ym2612"
    },
    {
      "channel": 1,
      "note": 45,
      "start": 139.2891,
      "duration": 0.1487,
      "velocity": 117,
      "chip": "ym2612"
    },
    {
      "channel": 4,
      "note": 65,
      "start": 139.2907,
      "duration": 0.0656,
      "velocity": 113,
      "chip": "ym2612"
    },
    {
      "channel": 5,
      "note": 40,
      "start": 139.2915,
      "duration": 0.1485,
      "velocity": 92,
      "chip": "ym2612"
    },
    {
      "channel": 4,
      "note": 67,
      "start": 139.3568,
      "duration": 0.0826,
      "velocity": 113,
      "chip": "ym2612"
    },
    {
      "channel": 0,
      "note": 45,
      "start": 139.4376,
      "duration": 0.5954,
      "velocity": 122,
      "chip": "ym2612"
    },
    {
      "channel": 1,
      "note": 33,
      "start": 139.4382,
      "duration": 0.1483,
      "velocity": 117,
      "chip": "ym2612"
    },
    {
      "channel": 4,
      "note": 69,
      "start": 139.4398,
      "duration": 0.0654,
      "velocity": 112,
      "chip": "ym2612"
    },
    {
      "channel": 5,
      "note": 45,
      "start": 139.4406,
      "duration": 0.1482,
      "velocity": 91,
      "chip": "ym2612"
    },
    {
      "channel": 4,
      "note": 70,
      "start": 139.5057,
      "duration": 0.0825,
      "velocity": 112,
      "chip": "ym2612"
    },
    {
      "channel": 1,
      "note": 45,
      "start": 139.587,
      "duration": 0.1485,
      "velocity": 117,
      "chip": "ym2612"
    },
    {
      "channel": 4,
      "note": 72,
      "start": 139.5886,
      "duration": 0.0656,
      "velocity": 113,
      "chip": "ym2612"
    },
    {
      "channel": 5,
      "note": 40,
      "start": 139.5895,
      "duration": 0.1483,
      "velocity": 91,
      "chip": "ym2612"
    },
    {
      "channel": 4,
      "note": 74,
      "start": 139.6547,
      "duration": 0.0825,
      "velocity": 113,
      "chip": "ym2612"
    },
    {
      "channel": 1,
      "note": 33,
      "start": 139.736,
      "duration": 0.1485,
      "velocity": 117,
      "chip": "ym2612"
    },
    {
      "channel": 4,
      "note": 76,
      "start": 139.7376,
      "duration": 0.0656,
      "velocity": 114,
      "chip": "ym2612"
    },
    {
      "channel": 5,
      "note": 43,
      "start": 139.7384,
      "duration": 0.1483,
      "velocity": 90,
      "chip": "ym2612"
    },
    {
      "channel": 4,
      "note": 77,
      "start": 139.8037,
      "duration": 0.0824,
      "velocity": 114,
      "chip": "ym2612"
    },
    {
      "channel": 1,
      "note": 33,
      "start": 139.8849,
      "duration": 0.1493,
      "velocity": 117,
      "chip": "ym2612"
    },
    {
      "channel": 4,
      "note": 79,
      "start": 139.8866,
      "duration": 0.0656,
      "velocity": 115,
      "chip": "ym2612"
    },
    {
      "channel": 5,
      "note": 45,
      "start": 139.8874,
      "duration": 0.1491,
      "velocity": 90,
      "chip": "ym2612"
    },
    {
      "channel": 4,
      "note": 81,
      "start": 139.9526,
      "duration": 0.0832,
      "velocity": 115,
      "chip": "ym2612"
    },
    {
      "channel": 0,
      "note": 24,
      "start": 140.0341,
      "duration": 0.5948,
      "velocity": 126,
      "chip": "ym2612"
    },
    {
      "channel": 1,
      "note": 45,
      "start": 140.0347,
      "duration": 0.1477,
      "velocity": 117,
      "chip": "ym2612"
    },
    {
      "channel": 4,
      "note": 82,
      "start": 140.0363,
      "duration": 0.0648,
      "velocity": 116,
      "chip": "ym2612"
    },
    {
      "channel": 5,
      "note": 40,
      "start": 140.0371,
      "duration": 0.1476,
      "velocity": 89,
      "chip": "ym2612"
    },
    {
      "channel": 4,
      "note": 84,
      "start": 140.1016,
      "duration": 0.0824,
      "velocity": 116,
      "chip": "ym2612"
    },
    {
      "channel": 1,
      "note": 33,
      "start": 140.1829,
      "duration": 0.1485,
      "velocity": 117,
      "chip": "ym2612"
    },
    {
      "channel": 4,
      "note": 86,
      "start": 140.1845,
      "duration": 0.0656,
      "velocity": 117,
      "chip": "ym2612"
    },
    {
      "channel": 5,
      "note": 47,
      "start": 140.1853,
      "duration": 0.1484,
      "velocity": 89,
      "chip": "ym2612"
    },
    {
      "channel": 4,
      "note": 88,
      "start": 140.2505,
      "duration": 0.0825,
      "velocity": 117,
      "chip": "ym2612"
    },
    {
      "channel": 1,
      "note": 45,
      "start": 140.3319,
      "duration": 0.1485,
      "velocity": 117,
      "chip": "ym2612"
    },
    {
      "channel": 4,
      "note": 89,
      "start": 140.3335,
      "duration": 0.0656,
      "velocity": 118,
      "chip": "ym2612"
    },
    {
      "channel": 5,
      "note": 48,
      "start": 140.3342,
      "duration": 0.1484,
      "velocity": 88,
      "chip": "ym2612"
    },
    {
      "channel": 4,
      "note": 91,
      "start": 140.3995,
      "duration": 0.0825,
      "velocity": 118,
      "chip": "ym2612"
    },
    {
      "channel": 1,
      "note": 45,
      "start": 140.4808,
      "duration": 0.1493,
      "velocity": 117,
      "chip": "ym2612"
    },
    {
      "channel": 4,
      "note": 93,
      "start": 140.4825,
      "duration": 0.0656,
      "velocity": 119,
      "chip": "ym2612"
    },
    {
      "channel": 5,
      "note": 47,
      "start": 140.4832,
      "duration": 0.1491,
      "velocity": 88,
      "chip": "ym2612"
    },
    {
      "channel": 4,
      "note": 94,
      "start": 140.5485,
      "duration": 0.0832,
      "velocity": 119,
      "chip": "ym2612"
    },
    {
      "channel": 0,
      "note": 45,
      "start": 140.6299,
      "duration": 0.2969,
      "velocity": 122,
      "chip": "ym2612"
    },
    {
      "channel": 1,
      "note": 33,
      "start": 140.6306,
      "duration": 0.1478,
      "velocity": 117,
      "chip": "ym2612"
    },
    {
      "channel": 4,
      "note": 93,
      "start": 140.6322,
      "duration": 0.0648,
      "velocity": 120,
      "chip": "ym2612"
    },
    {
      "channel": 5,
      "note": 45,
      "start": 140.633,
      "duration": 0.1476,
      "velocity": 87,
      "chip": "ym2612"
    },
    {
      "channel": 4,
      "note": 91,
      "start": 140.6975,
      "duration": 0.0825,
      "velocity": 120,
      "chip": "ym2612"
    },
    {
      "channel": 1,
      "note": 45,
      "start": 140.7788,
      "duration": 0.1493,
      "velocity": 117,
      "chip": "ym2612"
    },
    {
      "channel": 4,
      "note": 89,
      "start": 140.7804,
      "duration": 0.0656,
      "velocity": 119,
      "chip": "ym2612"
    },
    {
      "channel": 5,
      "note": 40,
      "start": 140.7812,
      "duration": 0.1491,
      "velocity": 87,
      "chip": "ym2612"
    },
    {
      "channel": 4,
      "note": 88,
      "start": 140.8465,
      "duration": 0.0832,
      "velocity": 119,
      "chip": "ym2612"
    },
    {
      "channel": 0,
      "note": 84,
      "start": 140.9279,
      "duration": 0.2968,
      "velocity": 113,
      "chip": "ym2612"
    },
    {
      "channel": 1,
      "note": 33,
      "start": 140.9285,
      "duration": 0.1477,
      "velocity": 117,
      "chip": "ym2612"
    },
    {
      "channel": 4,
      "note": 86,
      "start": 140.9301,
      "duration": 0.0648,
      "velocity": 118,
      "chip": "ym2612"
    },
    {
      "channel": 5,
      "note": 43,
      "start": 140.9309,
      "duration": 0.1476,
      "velocity": 88,
      "chip": "ym2612"
    },
    {
      "channel": 4,
      "note": 84,
      "start": 140.9954,
      "duration": 0.0824,
      "velocity": 118,
      "chip": "ym2612"
    },
    {
      "channel": 1,
      "note": 33,
      "start": 141.0767,
      "duration": 0.1493,
      "velocity": 117,
      "chip": "ym2612"
    },
    {
      "channel": 4,
      "note": 82,
      "start": 141.0783,
      "duration": 0.0656,
      "velocity": 117,
      "chip": "ym2612"
    },
    {
      "channel": 5,
      "note": 45,
      "start": 141.0791,
      "duration": 0.1491,
      "velocity": 88,
      "chip": "ym2612"
    },
    {
      "channel": 4,
      "note": 81,
      "start": 141.1444,
      "duration": 0.0832,
      "velocity": 117,
      "chip": "ym2612"
    },
    {
      "channel": 0,
      "note": 24,
      "start": 141.2258,
      "duration": 0.297,
      "velocity": 126,
      "chip": "ym2612"
    },
    {
      "channel": 1,
      "note": 45,
      "start": 141.2264,
      "duration": 0.1478,
      "velocity": 117,
      "chip": "ym2612"
    },
    {
      "channel": 4,
      "note": 79,
      "start": 141.2281,
      "duration": 0.0648,
      "velocity": 116,
      "chip": "ym2612"
    },
    {
      "channel": 5,
      "note": 40,
      "start": 141.2288,
      "duration": 0.1476,
      "velocity": 89,
      "chip": "ym2612"
    },
    {
      "channel": 4,
      "note": 77,
      "start": 141.2934,
      "duration": 0.0825,
      "velocity": 116,
      "chip": "ym2612"
    },
    {
      "channel": 1,
      "note": 33,
      "start": 141.3746,
      "duration": 0.1493,
      "velocity": 117,
      "chip": "ym2612"
    },
    {
      "channel": 4,
      "note": 76,
      "start": 141.3763,
      "duration": 0.0656,
      "velocity": 115,
      "chip": "ym2612"
    },
    {
      "channel": 5,
      "note": 43,
      "start": 141.3771,
      "duration": 0.1492,
      "velocity": 89,
      "chip": "ym2612"
    },
    {
      "channel": 4,
      "note": 74,
      "start": 141.4423,
      "duration": 0.0833,
      "velocity": 115,
      "chip": "ym2612"
    },
    {
      "channel": 0,
      "note": 45,
      "start": 141.5238,
      "duration": 0.2968,
      "velocity": 122,
      "chip": "ym2612"
    },
    {
      "channel": 1,
      "note": 45,
      "start": 141.5244,
      "duration": 0.1477,
      "velocity": 117,
      "chip": "ym2612"
    },
    {
      "channel": 4,
      "note": 72,
      "start": 141.5261,
      "duration": 0.0649,
      "velocity": 114,
      "chip": "ym2612"
    },
    {
      "channel": 5,
      "note": 45,
      "start": 141.5268,
      "duration": 0.1476,
      "velocity": 90,
      "chip": "ym2612"
    },
    {
      "channel": 4,
      "note": 70,
      "start": 141.5914,
      "duration": 0.0824,
      "velocity": 114,
      "chip": "ym2612"
    },
    {
      "channel": 1,
      "note": 33,
      "start": 141.6727,
      "duration": 0.1486,
      "velocity": 117,
      "chip": "ym2612"
    },
    {
      "channel": 4,
      "note": 69,
      "start": 141.6743,
      "duration": 0.0656,
      "velocity": 113,
      "chip": "ym2612"
    },
    {
      "channel": 5,
      "note": 40,
      "start": 141.675,
      "duration": 0.1495,
      "velocity": 90,
      "chip": "ym2612"
    },
    {
      "channel": 4,
      "note": 67,
      "start": 141.7404,
      "duration": 0.0836,
      "velocity": 113,
      "chip": "ym2612"
    },
    {
      "channel": 0,
      "note": 45,
      "start": 141.8212,
      "duration": 0.5954,
      "velocity": 122,
      "chip": "ym2612"
    },
    {
      "channel": 1,
      "note": 33,
      "start": 141.8218,
      "duration": 0.1483,
      "velocity": 117,
      "chip": "ym2612"
    },
    {
      "channel": 3,
      "note": 45,
      "start": 141.8238,
      "duration": 0.1475,
      "velocity": 107,
      "chip": "ym2612"
    },
    {
      "channel": 4,
      "note": 65,
      "start": 141.8244,
      "duration": 0.0646,
      "velocity": 112,
      "chip": "ym2612"
    },
    {
      "channel": 5,
      "note": 43,
      "start": 141.8251,
      "duration": 0.1477,
      "velocity": 91,
      "chip": "ym2612"
    },
    {
      "channel": 4,
      "note": 64,
      "start": 141.8895,
      "duration": 0.0826,
      "velocity": 112,
      "chip": "ym2612"
    },
    {
      "channel": 1,
      "note": 45,
      "start": 141.9706,
      "duration": 0.1485,
      "velocity": 117,
      "chip": "ym2612"
    },
    {
      "channel": 3,
      "note": 45,
      "start": 141.972,
      "duration": 0.1483,
      "velocity": 106,
      "chip": "ym2612"
    },
    {
      "channel": 4,
      "note": 62,
      "start": 141.9726,
      "duration": 0.0654,
      "velocity": 113,
      "chip": "ym2612"
    },
    {
      "channel": 5,
      "note": 45,
      "start": 141.9734,
      "duration": 0.1483,
      "velocity": 91,
      "chip": "ym2612"
    },
    {
      "channel": 4,
      "note": 60,
      "start": 142.0385,
      "duration": 0.0826,
      "velocity": 113,
      "chip": "ym2612"
    },
    {
      "channel": 1,
      "note": 33,
      "start": 142.1195,
      "duration": 0.1485,
      "velocity": 117,
      "chip": "ym2612"
    },
    {
      "channel": 3,
      "note": 45,
      "start": 142.121,
      "duration": 0.1483,
      "velocity": 105,
      "chip": "ym2612"
    },
    {
      "channel": 4,
      "note": 58,
      "start": 142.1215,
      "duration": 0.0655,
      "velocity": 114,
      "chip": "ym2612"
    },
    {
      "channel": 5,
      "note": 47,
      "start": 142.1223,
      "duration": 0.1484,
      "velocity": 92,
      "chip": "ym2612"
    },
    {
      "channel": 4,
      "note": 57,
      "start": 142.1874,
      "duration": 0.0826,
      "velocity": 114,
      "chip": "ym2612"
    },
    {
      "channel": 1,
      "note": 45,
      "start": 142.2685,
      "duration": 0.1492,
      "velocity": 117,
      "chip": "ym2612"
    },
    {
      "channel": 3,
      "note": 45,
      "start": 142.2699,
      "duration": 0.149,
      "velocity": 104,
      "chip": "ym2612"
    },
    {
      "channel": 4,
      "note": 55,
      "start": 142.2705,
      "duration": 0.0654,
      "velocity": 115,
      "chip": "ym2612"
    },
    {
      "channel": 5,
      "note": 48,
      "start": 142.2713,
      "duration": 0.1491,
      "velocity": 92,
      "chip": "ym2612"
    },
    {
      "channel": 4,
      "note": 53,
      "start": 142.3363,
      "duration": 0.0835,
      "velocity": 115,
      "chip": "ym2612"
    },
    {
      "channel": 0,
      "note": 21,
      "start": 142.4176,
      "duration": 0.5948,
      "velocity": 126,
      "chip": "ym2612"
    },
    {
      "channel": 1,
      "note": 33,
      "start": 142.4182,
      "duration": 0.1478,
      "velocity": 117,
      "chip": "ym2612"
    },
    {
      "channel": 3,
      "note": 45,
      "start": 142.4196,
      "duration": 0.1475,
      "velocity": 103,
      "chip": "ym2612"
    },
    {
      "channel": 4,
      "note": 52,
      "start": 142.4202,
      "duration": 0.0646,
      "velocity": 116,
      "chip": "ym2612"
    },
    {
      "channel": 5,
      "note": 50,
      "start": 142.421,
      "duration": 0.1476,
      "velocity": 93,
      "chip": "ym2612"
    },
    {
      "channel": 4,
      "note": 50,
      "start": 142.4853,
      "duration": 0.0827,
      "velocity": 116,
      "chip": "ym2612"
    },
    {
      "channel": 1,
      "note": 33,
      "start": 142.5664,
      "duration": 0.1485,
      "velocity": 117,
      "chip": "ym2612"
    },
    {
      "channel": 3,
      "note": 45,
      "start": 142.5678,
      "duration": 0.1483,
      "velocity": 102,
      "chip": "ym2612"
    },
    {
      "channel": 4,
      "note": 48,
      "start": 142.5685,
      "duration": 0.0654,
      "velocity": 117,
      "chip": "ym2612"
    },
    {
      "channel": 5,
      "note": 48,
      "start": 142.5692,
      "duration": 0.1483,
      "velocity": 93,
      "chip": "ym2612"
    },
    {
      "channel": 4,
      "note": 46,
      "start": 142.6343,
      "duration": 0.0827,
      "velocity": 117,
      "chip": "ym2612"
    },
    {
      "channel": 1,
      "note": 45,
      "start": 142.7154,
      "duration": 0.1485,
      "velocity": 117,
      "chip": "ym2612"
    },
    {
      "channel": 3,
      "note": 45,
      "start": 142.7168,
      "duration": 0.1483,
      "velocity": 101,
      "chip": "ym2612"
    },
    {
      "channel": 4,
      "note": 45,
      "start": 142.7175,
      "duration": 0.0654,
      "velocity": 118,
      "chip": "ym2612"
    },
    {
      "channel": 5,
      "note": 47,
      "start": 142.7182,
      "duration": 0.1483,
      "velocity": 94,
      "chip": "ym2612"
    },
    {
      "channel": 4,
      "note": 43,
      "start": 142.7833,
      "duration": 0.0827,
      "velocity": 118,
      "chip": "ym2612"
    },
    {
      "channel": 1,
      "note": 33,
      "start": 142.8644,
      "duration": 0.1493,
      "velocity": 117,
      "chip": "ym2612"
    },
    {
      "channel": 3,
      "note": 45,
      "start": 142.8658,
      "duration": 0.1492,
      "velocity": 100,
      "chip": "ym2612"
    },
    {
      "channel": 4,
      "note": 41,
      "start": 142.8664,
      "duration": 0.0654,
      "velocity": 119,
      "chip": "ym2612"
    },
    {
      "channel": 5,
      "note": 40,
      "start": 142.8672,
      "duration": 0.1496,
      "velocity": 94,
      "chip": "ym2612"
    },
    {
      "channel": 4,
      "note": 40,
      "start": 142.9323,
      "duration": 0.084,
      "velocity": 119,
      "chip": "ym2612"
    },
    {
      "channel": 0,
      "note": 9,
      "start": 143.0135,
      "duration": 4.7001,
      "velocity": 124,
      "chip": "ym2612"
    },
    {
      "channel": 1,
      "note": 33,
      "start": 143.0141,
      "duration": 0.1477,
      "velocity": 117,
      "chip": "ym2612"
    },
    {
      "channel": 2,
      "note": 40,
      "start": 143.0149,
      "duration": 3.4912,
      "velocity": 108,
      "chip": "ym2612"
    },
    {
      "channel": 3,
      "note": 45,
      "start": 143.0161,
      "duration": 0.2959,
      "velocity": 122,
      "chip": "ym2612"
    },
    {
      "channel": 4,
      "note": 41,
      "start": 143.0167,
      "duration": 0.0639,
      "velocity": 120,
      "chip": "ym2612"
    },
    {
      "channel": 5,
      "note": 45,
      "start": 143.0175,
      "duration": 0.1467,
      "velocity": 95,
      "chip": "ym2612"
    },
    {
      "channel": 4,
      "note": 43,
      "start": 143.0811,
      "duration": 0.0824,
      "velocity": 120,
      "chip": "ym2612"
    },
    {
      "channel": 1,
      "note": 41,
      "start": 143.1624,
      "duration": 0.1485,
      "velocity": 117,
      "chip": "ym2612"
    },
    {
      "channel": 4,
      "note": 45,
      "start": 143.164,
      "duration": 0.0655,
      "velocity": 119,
      "chip": "ym2612"
    },
    {
      "channel": 5,
      "note": 36,
      "start": 143.1648,
      "duration": 0.149,
      "velocity": 95,
      "chip": "ym2612"
    },
    {
      "channel": 4,
      "note": 46,
      "start": 143.23,
      "duration": 0.0833,
      "velocity": 119,
      "chip": "ym2612"
    },
    {
      "channel": 1,
      "note": 29,
      "start": 143.3113,
      "duration": 0.1485,
      "velocity": 117,
      "chip": "ym2612"
    },
    {
      "channel": 3,
      "note": 72,
      "start": 143.3131,
      "duration": 0.2968,
      "velocity": 113,
      "chip": "ym2612"
    },
    {
      "channel": 4,
      "note": 48,
      "start": 143.3137,
      "duration": 0.0648,
      "velocity": 118,
      "chip": "ym2612"
    },
    {
      "channel": 5,
      "note": 39,
      "start": 143.3145,
      "duration": 0.1476,
      "velocity": 94,
      "chip": "ym2612"
    },
    {
      "channel": 4,
      "note": 50,
      "start": 143.379,
      "duration": 0.0825,
      "velocity": 118,
      "chip": "ym2612"
    },
    {
      "channel": 1,
      "note": 29,
      "start": 143.4603,
      "duration": 0.1485,
      "velocity": 117,
      "chip": "ym2612"
    },
    {
      "channel": 4,
      "note": 52,
      "start": 143.4619,
      "duration": 0.0656,
      "velocity": 117,
      "chip": "ym2612"
    },
    {
      "channel": 5,
      "note": 41,
      "start": 143.4627,
      "duration": 0.1491,
      "velocity": 94,
      "chip": "ym2612"
    },
    {
      "channel": 4,
      "note": 53,
      "start": 143.528,
      "duration": 0.0832,
      "velocity": 117,
      "chip": "ym2612"
    },
    {
      "channel": 1,
      "note": 41,
      "start": 143.6093,
      "duration": 0.1485,
      "velocity": 117,
      "chip": "ym2612"
    },
    {
      "channel": 3,
      "note": 24,
      "start": 143.611,
      "duration": 0.2969,
      "velocity": 126,
      "chip": "ym2612"
    },
    {
      "channel": 4,
      "note": 55,
      "start": 143.6116,
      "duration": 0.0649,
      "velocity": 116,
      "chip": "ym2612"
    },
    {
      "channel": 5,
      "note": 36,
      "start": 143.6124,
      "duration": 0.1477,
      "velocity": 93,
      "chip": "ym2612"
    },
    {
      "channel": 4,
      "note": 57,
      "start": 143.6769,
      "duration": 0.0824,
      "velocity": 116,
      "chip": "ym2612"
    },
    {
      "channel": 1,
      "note": 29,
      "start": 143.7582,
      "duration": 0.1485,
      "velocity": 117,
      "chip": "ym2612"
    },
    {
      "channel": 4,
      "note": 58,
      "start": 143.7599,
      "duration": 0.0656,
      "velocity": 115,
      "chip": "ym2612"
    },
    {
      "channel": 5,
      "note": 39,
      "start": 143.7607,
      "duration": 0.1492,
      "velocity": 93,
      "chip": "ym2612"
    },
    {
      "channel": 4,
      "note": 60,
      "start": 143.8259,
      "duration": 0.0833,
      "velocity": 115,
      "chip": "ym2612"
    },
    {
      "channel": 1,
      "note": 29,
      "start": 143.9073,
      "duration": 0.1484,
      "velocity": 117,
      "chip": "ym2612"
    },
    {
      "channel": 3,
      "note": 45,
      "start": 143.909,
      "duration": 0.2969,
      "velocity": 122,
      "chip": "ym2612"
    },
    {
      "channel": 4,
      "note": 62,
      "start": 143.9096,
      "duration": 0.0648,
      "velocity": 114,
      "chip": "ym2612"
    },
    {
      "channel": 5,
      "note": 41,
      "start": 143.9104,
      "duration": 0.1477,
      "velocity": 92,
      "chip": "ym2612"
    },
    {
      "channel": 4,
      "note": 64,
      "start": 143.9749,
      "duration": 0.0825,
      "velocity": 114,
      "chip": "ym2612"
    },
    {
      "channel": 1,
      "note": 41,
      "start": 144.0562,
      "duration": 0.1485,
      "velocity": 117,
      "chip": "ym2612"
    },
    {
      "channel": 4,
      "note": 65,
      "start": 144.0578,
      "duration": 0.0656,
      "velocity": 113,
      "chip": "ym2612"
    },
    {
      "channel": 5,
      "note": 36,
      "start": 144.0586,
      "duration": 0.1485,
      "velocity": 92,
      "chip": "ym2612"
    },
    {
      "channel": 4,
      "note": 67,
      "start": 144.1239,
      "duration": 0.0826,
      "velocity": 113,
      "chip": "ym2612"
    },
    {
      "channel": 1,
      "note": 29,
      "start": 144.2052,
      "duration": 0.1485,
      "velocity": 117,
      "chip": "ym2612"
    },
    {
      "channel": 3,
      "note": 45,
      "start": 144.2064,
      "duration": 0.5953,
      "velocity": 122,
      "chip": "ym2612"
    },
    {
      "channel": 4,
      "note": 69,
      "start": 144.207,
      "duration": 0.0653,
      "velocity": 112,
      "chip": "ym2612"
    },
    {
      "channel": 5,
      "note": 41,
      "start": 144.2078,
      "duration": 0.1482,
      "velocity": 91,
      "chip": "ym2612"
    },
    {
      "channel": 4,
      "note": 70,
      "start": 144.2729,
      "duration": 0.0824,
      "velocity": 112,
      "chip": "ym2612"
    },
    {
      "channel": 1,
      "note": 41,
      "start": 144.3541,
      "duration": 0.1485,
      "velocity": 117,
      "chip": "ym2612"
    },
    {
      "channel": 4,
      "note": 72,
      "start": 144.3558,
      "duration": 0.0656,
      "velocity": 113,
      "chip": "ym2612"
    },
    {
      "channel": 5,
      "note": 36,
      "start": 144.3566,
      "duration": 0.1483,
      "velocity": 91,
      "chip": "ym2612"
    },
    {
      "channel": 4,
      "note": 74,
      "start": 144.4218,
      "duration": 0.0824,
      "velocity": 113,
      "chip": "ym2612"
    },
    {
      "channel": 1,
      "note": 29,
      "start": 144.5031,
      "duration": 0.1485,
      "velocity": 117,
      "chip": "ym2612"
    },
    {
      "channel": 4,
      "note": 76,
      "start": 144.5047,
      "duration": 0.0656,
      "velocity": 114,
      "chip": "ym2612"
    },
    {
      "channel": 5,
      "note": 39,
      "start": 144.5055,
      "duration": 0.1484,
      "velocity": 90,
      "chip": "ym2612"
    },
    {
      "channel": 4,
      "note": 77,
      "start": 144.5708,
      "duration": 0.0824,
      "velocity": 114,
      "chip": "ym2612"
    },
    {
      "channel": 1,
      "note": 29,
      "start": 144.6521,
      "duration": 0.1485,
      "velocity": 117,
      "chip": "ym2612"
    },
    {
      "channel": 4,
      "note": 79,
      "start": 144.6537,
      "duration": 0.0656,
      "velocity": 115,
      "chip": "ym2612"
    },
    {
      "channel": 5,
      "note": 41,
      "start": 144.6545,
      "duration": 0.1491,
      "velocity": 90,
      "chip": "ym2612"
    },
    {
      "channel": 4,
      "note": 81,
      "start": 144.7198,
      "duration": 0.0832,
      "velocity": 115,
      "chip": "ym2612"
    },
    {
      "channel": 1,
      "note": 41,
      "start": 144.801,
      "duration": 0.1485,
      "velocity": 117,
      "chip": "ym2612"
    },
    {
      "channel": 3,
      "note": 24,
      "start": 144.8028,
      "duration": 0.5948,
      "velocity": 126,
      "chip": "ym2612"
    },
    {
      "channel": 4,
      "note": 82,
      "start": 144.8034,
      "duration": 0.0648,
      "velocity": 116,
      "chip": "ym2612"
    },
    {
      "channel": 5,
      "note": 36,
      "start": 144.8042,
      "duration": 0.1476,
      "velocity": 89,
      "chip": "ym2612"
    },
    {
      "channel": 4,
      "note": 84,
      "start": 144.8687,
      "duration": 0.0824,
      "velocity": 116,
      "chip": "ym2612"
    },
    {
      "channel": 1,
      "note": 29,
      "start": 144.95,
      "duration": 0.1485,
      "velocity": 117,
      "chip": "ym2612"
    },
    {
      "channel": 4,
      "note": 86,
      "start": 144.9516,
      "duration": 0.0656,
      "velocity": 117,
      "chip": "ym2612"
    },
    {
      "channel": 5,
      "note": 43,
      "start": 144.9524,
      "duration": 0.1484,
      "velocity": 89,
      "chip": "ym2612"
    },
    {
      "channel": 4,
      "note": 88,
      "start": 145.0177,
      "duration": 0.0824,
      "velocity": 117,
      "chip": "ym2612"
    },
    {
      "channel": 1,
      "note": 41,
      "start": 145.099,
      "duration": 0.1485,
      "velocity": 117,
      "chip": "ym2612"
    },
    {
      "channel": 4,
      "note": 89,
      "start": 145.1006,
      "duration": 0.0656,
      "velocity": 118,
      "chip": "ym2612"
    },
    {
      "channel": 5,
      "note": 44,
      "start": 145.1014,
      "duration": 0.1484,
      "velocity": 88,
      "chip": "ym2612"
    },
    {
      "channel": 4,
      "note": 91,
      "start": 145.1667,
      "duration": 0.0824,
      "velocity": 118,
      "chip": "ym2612"
    },
    {
      "channel": 1,
      "note": 41,
      "start": 145.2479,
      "duration": 0.1485,
      "velocity": 117,
      "chip": "ym2612"
    },
    {
      "channel": 4,
      "note": 93,
      "start": 145.2496,
      "duration": 0.0656,
      "velocity": 119,
      "chip": "ym2612"
    },
    {
      "channel": 5,
      "note": 43,
      "start": 145.2503,
      "duration": 0.1491,
      "velocity": 88,
      "chip": "ym2612"
    },
    {
      "channel": 4,
      "note": 94,
      "start": 145.3156,
      "duration": 0.0832,
      "velocity": 119,
      "chip": "ym2612"
    },
    {
      "channel": 1,
      "note": 29,
      "start": 145.3969,
      "duration": 0.1485,
      "velocity": 117,
      "chip": "ym2612"
    },
    {
      "channel": 3,
      "note": 45,
      "start": 145.3987,
      "duration": 0.2968,
      "velocity": 122,
      "chip": "ym2612"
    },
    {
      "channel": 4,
      "note": 93,
      "start": 145.3993,
      "duration": 0.0648,
      "velocity": 120,
      "chip": "ym2612"
    },
    {
      "channel": 5,
      "note": 41,
      "start": 145.4001,
      "duration": 0.1476,
      "velocity": 87,
      "chip": "ym2612"
    },
    {
      "channel": 4,
      "note": 91,
      "start": 145.4646,
      "duration": 0.0824,
      "velocity": 120,
      "chip": "ym2612"
    },
    {
      "channel": 1,
      "note": 41,
      "start": 145.5459,
      "duration": 0.1485,
      "velocity": 117,
      "chip": "ym2612"
    },
    {
      "channel": 4,
      "note": 89,
      "start": 145.5476,
      "duration": 0.0656,
      "velocity": 119,
      "chip": "ym2612"
    },
    {
      "channel": 5,
      "note": 36,
      "start": 145.5483,
      "duration": 0.1491,
      "velocity": 87,
      "chip": "ym2612"
    },
    {
      "channel": 4,
      "note": 88,
      "start": 145.6136,
      "duration": 0.0832,
      "velocity": 119,
      "chip": "ym2612"
    },
    {
      "channel": 1,
      "note": 29,
      "start": 145.6949,
      "duration": 0.1485,
      "velocity": 117,
      "chip": "ym2612"
    },
    {
      "channel": 3,
      "note": 84,
      "start": 145.6967,
      "duration": 0.2968,
      "velocity": 113,
      "chip": "ym2612"
    },
    {
      "channel": 4,
      "note": 86,
      "start": 145.6972,
      "duration": 0.0649,
      "velocity": 118,
      "chip": "ym2612"
    },
    {
      "channel": 5,
      "note": 39,
      "start": 145.698,
      "duration": 0.1477,
      "velocity": 88,
      "chip": "ym2612"
    },
    {
      "channel": 4,
      "note": 84,
      "start": 145.7626,
      "duration": 0.0824,
      "velocity": 118,
      "chip": "ym2612"
    },
    {
      "channel": 1,
      "note": 29,
      "start": 145.8439,
      "duration": 0.1485,
      "velocity": 117,
      "chip": "ym2612"
    },
    {
      "channel": 4,
      "note": 82,
      "start": 145.8454,
      "duration": 0.0656,
      "velocity": 117,
      "chip": "ym2612"
    },
    {
      "channel": 5,
      "note": 41,
      "start": 145.8462,
      "duration": 0.1492,
      "velocity": 88,
      "chip": "ym2612"
    },
    {
      "channel": 4,
      "note": 81,
      "start": 145.9115,
      "duration": 0.0832,
      "velocity": 117,
      "chip": "ym2612"
    },
    {
      "channel": 1,
      "note": 41,
      "start": 145.9928,
      "duration": 0.1485,
      "velocity": 117,
      "chip": "ym2612"
    },
    {
      "channel": 3,
      "note": 24,
      "start": 145.9946,
      "duration": 0.2969,
      "velocity": 126,
      "chip": "ym2612"
    },
    {
      "channel": 4,
      "note": 79,
      "start": 145.9952,
      "duration": 0.0648,
      "velocity": 116,
      "chip": "ym2612"
    },
    {
      "channel": 5,
      "note": 36,
      "start": 145.996,
      "duration": 0.1476,
      "velocity": 89,
      "chip": "ym2612"
    },
    {
      "channel": 4,
      "note": 77,
      "start": 146.0605,
      "duration": 0.0824,
      "velocity": 116,
      "chip": "ym2612"
    },
    {
      "channel": 1,
      "note": 29,
      "start": 146.1418,
      "duration": 0.1485,
      "velocity": 117,
      "chip": "ym2612"
    },
    {
      "channel": 4,
      "note": 76,
      "start": 146.1434,
      "duration": 0.0656,
      "velocity": 115,
      "chip": "ym2612"
    },
    {
      "channel": 5,
      "note": 39,
      "start": 146.1442,
      "duration": 0.1491,
      "velocity": 89,
      "chip": "ym2612"
    },
    {
      "channel": 4,
      "note": 74,
      "start": 146.2094,
      "duration": 0.0833,
      "velocity": 115,
      "chip": "ym2612"
    },
    {
      "channel": 1,
      "note": 41,
      "start": 146.2907,
      "duration": 0.1485,
      "velocity": 117,
      "chip": "ym2612"
    },
    {
      "channel": 3,
      "note": 45,
      "start": 146.2925,
      "duration": 0.297,
      "velocity": 122,
      "chip": "ym2612"
    },
    {
      "channel": 4,
      "note": 72,
      "start": 146.2932,
      "duration": 0.0649,
      "velocity": 114,
      "chip": "ym2612"
    },
    {
      "channel": 5,
      "note": 41,
      "start": 146.2939,
      "duration": 0.1476,
      "velocity": 90,
      "chip": "ym2612"
    },
    {
      "channel": 4,
      "note": 70,
      "start": 146.3585,
      "duration": 0.0824,
      "velocity": 114,
      "chip": "ym2612"
    },
    {
      "channel": 1,
      "note": 29,
      "start": 146.4398,
      "duration": 0.1485,
      "velocity": 117,
      "chip": "ym2612"
    },
    {
      "channel": 4,
      "note": 69,
      "start": 146.4414,
      "duration": 0.0658,
      "velocity": 113,
      "chip": "ym2612"
    },
    {
      "channel": 5,
      "note": 36,
      "start": 146.4421,
      "duration": 0.1486,
      "velocity": 90,
      "chip": "ym2612"
    },
    {
      "channel": 2,
      "note": 41,
      "start": 146.5065,
      "duration": 0.6783,
      "velocity": 108,
      "chip": "ym2612"
    },
    {
      "channel": 4,
      "note": 67,
      "start": 146.5077,
      "duration": 0.0824,
      "velocity": 113,
      "chip": "ym2612"
    },
    {
      "channel": 1,
      "note": 29,
      "start": 146.5887,
      "duration": 0.1485,
      "velocity": 117,
      "chip": "ym2612"
    },
    {
      "channel": 3,
      "note": 45,
      "start": 146.5899,
      "duration": 0.5956,
      "velocity": 122,
      "chip": "ym2612"
    },
    {
      "channel": 4,
      "note": 65,
      "start": 146.5905,
      "duration": 0.0655,
      "velocity": 112,
      "chip": "ym2612"
    },
    {
      "channel": 5,
      "note": 39,
      "start": 146.5913,
      "duration": 0.1482,
      "velocity": 91,
      "chip": "ym2612"
    },
    {
      "channel": 4,
      "note": 64,
      "start": 146.6565,
      "duration": 0.0824,
      "velocity": 112,
      "chip": "ym2612"
    },
    {
      "channel": 1,
      "note": 41,
      "start": 146.7377,
      "duration": 0.1485,
      "velocity": 117,
      "chip": "ym2612"
    },
    {
      "channel": 4,
      "note": 62,
      "start": 146.7393,
      "duration": 0.0656,
      "velocity": 113,
      "chip": "ym2612"
    },
    {
      "channel": 5,
      "note": 41,
      "start": 146.7401,
      "duration": 0.1483,
      "velocity": 91,
      "chip": "ym2612"
    },
    {
      "channel": 4,
      "note": 60,
      "start": 146.8054,
      "duration": 0.0824,
      "velocity": 113,
      "chip": "ym2612"
    },
    {
      "channel": 1,
      "note": 29,
      "start": 146.8867,
      "duration": 0.1485,
      "velocity": 117,
      "chip": "ym2612"
    },
    {
      "channel": 4,
      "note": 58,
      "start": 146.8883,
      "duration": 0.0656,
      "velocity": 114,
      "chip": "ym2612"
    },
    {
      "channel": 5,
      "note": 43,
      "start": 146.889,
      "duration": 0.1484,
      "velocity": 92,
      "chip": "ym2612"
    },
    {
      "channel": 4,
      "note": 57,
      "start": 146.9544,
      "duration": 0.0824,
      "velocity": 114,
      "chip": "ym2612"
    },
    {
      "channel": 1,
      "note": 41,
      "start": 147.0356,
      "duration": 0.1485,
      "velocity": 117,
      "chip": "ym2612"
    },
    {
      "channel": 4,
      "note": 55,
      "start": 147.0372,
      "duration": 0.0656,
      "velocity": 115,
      "chip": "ym2612"
    },
    {
      "channel": 5,
      "note": 44,
      "start": 147.038,
      "duration": 0.1493,
      "velocity": 92,
      "chip": "ym2612"
    },
    {
      "channel": 4,
      "note": 53,
      "start": 147.1033,
      "duration": 0.0834,
      "velocity": 115,
      "chip": "ym2612"
    },
    {
      "channel": 1,
      "note": 29,
      "start": 147.1846,
      "duration": 0.1485,
      "velocity": 117,
      "chip": "ym2612"
    },
    {
      "channel": 2,
      "note": 41,
      "start": 147.1853,
      "duration": 0.5955,
      "velocity": 108,
      "chip": "ym2612"
    },
    {
      "channel": 3,
      "note": 21,
      "start": 147.1865,
      "duration": 0.595,
      "velocity": 126,
      "chip": "ym2612"
    },
    {
      "channel": 4,
      "note": 52,
      "start": 147.1872,
      "duration": 0.0646,
      "velocity": 116,
      "chip": "ym2612"
    },
    {
      "channel": 5,
      "note": 46,
      "start": 147.1879,
      "duration": 0.1475,
      "velocity": 93,
      "chip": "ym2612"
    },
    {
      "channel": 4,
      "note": 50,
      "start": 147.2522,
      "duration": 0.0825,
      "velocity": 116,
      "chip": "ym2612"
    },
    {
      "channel": 1,
      "note": 29,
      "start": 147.3336,
      "duration": 0.1485,
      "velocity": 117,
      "chip": "ym2612"
    },
    {
      "channel": 4,
      "note": 48,
      "start": 147.3352,
      "duration": 0.0656,
      "velocity": 117,
      "chip": "ym2612"
    },
    {
      "channel": 5,
      "note": 44,
      "start": 147.336,
      "duration": 0.1483,
      "velocity": 93,
      "chip": "ym2612"
    },
    {
      "channel": 4,
      "note": 46,
      "start": 147.4012,
      "duration": 0.0824,
      "velocity": 117,
      "chip": "ym2612"
    },
    {
      "channel": 1,
      "note": 41,
      "start": 147.4825,
      "duration": 0.1485,
      "velocity": 117,
      "chip": "ym2612"
    },
    {
      "channel": 4,
      "note": 45,
      "start": 147.4842,
      "duration": 0.0656,
      "velocity": 118,
      "chip": "ym2612"
    },
    {
      "channel": 5,
      "note": 43,
      "start": 147.4849,
      "duration": 0.1483,
      "velocity": 94,
      "chip": "ym2612"
    },
    {
      "channel": 4,
      "note": 43,
      "start": 147.5502,
      "duration": 0.0824,
      "velocity": 118,
      "chip": "ym2612"
    },
    {
      "channel": 1,
      "note": 29,
      "start": 147.6315,
      "duration": 0.1487,
      "velocity": 117,
      "chip": "ym2612"
    },
    {
      "channel": 4,
      "note": 41,
      "start": 147.6332,
      "duration": 0.0656,
      "velocity": 119,
      "chip": "ym2612"
    },
    {
      "channel": 5,
      "note": 36,
      "start": 147.6339,
      "duration": 0.1503,
      "velocity": 94,
      "chip": "ym2612"
    },
    {
      "channel": 4,
      "note": 40,
      "start": 147.6992,
      "duration": 0.0836,
      "velocity": 119,
      "chip": "ym2612"
    },
    {
      "channel": 0,
      "note": 29,
      "start": 147.78,
      "duration": 3.5748,
      "velocity": 124,
      "chip": "ym2612"
    },
    {
      "channel": 1,
      "note": 29,
      "start": 147.7807,
      "duration": 0.1483,
      "velocity": 117,
      "chip": "ym2612"
    },
    {
      "channel": 2,
      "note": 40,
      "start": 147.7814,
      "duration": 0.2972,
      "velocity": 108,
      "chip": "ym2612"
    },
    {
      "channel": 3,
      "note": 53,
      "start": 147.7827,
      "duration": 0.1643,
      "velocity": 1,
      "chip": "ym2612"
    },
    {
      "channel": 4,
      "note": 45,
      "start": 147.784,
      "duration": 0.1468,
      "velocity": 95,
      "chip": "ym2612"
    },
    {
      "channel": 5,
      "note": 3,
      "start": 147.7853,
      "duration": 2.3146,
      "velocity": 1,
      "chip": "ym2612"
    },
    {
      "channel": 1,
      "note": 45,
      "start": 147.9295,
      "duration": 0.1485,
      "velocity": 117,
      "chip": "ym2612"
    },
    {
      "channel": 4,
      "note": 40,
      "start": 147.9313,
      "duration": 0.1485,
      "velocity": 95,
      "chip": "ym2612"
    },
    {
      "channel": 1,
      "note": 33,
      "start": 148.0785,
      "duration": 0.1485,
      "velocity": 117,
      "chip": "ym2612"
    },
    {
      "channel": 2,
      "note": 40,
      "start": 148.0792,
      "duration": 0.1484,
      "velocity": 108,
      "chip": "ym2612"
    },
    {
      "channel": 4,
      "note": 43,
      "start": 148.0804,
      "duration": 0.149,
      "velocity": 94,
      "chip": "ym2612"
    },
    {
      "channel": 1,
      "note": 33,
      "start": 148.2274,
      "duration": 0.1485,
      "velocity": 117,
      "chip": "ym2612"
    },
    {
      "channel": 2,
      "note": 38,
      "start": 148.2281,
      "duration": 0.1484,
      "velocity": 108,
      "chip": "ym2612"
    },
    {
      "channel": 3,
      "note": 62,
      "start": 148.2293,
      "duration": 0.1478,
      "velocity": 59,
      "chip": "ym2612"
    },
    {
      "channel": 4,
      "note": 45,
      "start": 148.2301,
      "duration": 0.1484,
      "velocity": 94,
      "chip": "ym2612"
    },
    {
      "channel": 1,
      "note": 45,
      "start": 148.3764,
      "duration": 0.1485,
      "velocity": 117,
      "chip": "ym2612"
    },
    {
      "channel": 2,
      "note": 40,
      "start": 148.3771,
      "duration": 4.1715,
      "velocity": 108,
      "chip": "ym2612"
    },
    {
      "channel": 3,
      "note": 53,
      "start": 148.3783,
      "duration": 0.1645,
      "velocity": 1,
      "chip": "ym2612"
    },
    {
      "channel": 4,
      "note": 40,
      "start": 148.3791,
      "duration": 0.1475,
      "velocity": 93,
      "chip": "ym2612"
    },
    {
      "channel": 1,
      "note": 33,
      "start": 148.5254,
      "duration": 0.1485,
      "velocity": 117,
      "chip": "ym2612"
    },
    {
      "channel": 4,
      "note": 43,
      "start": 148.5272,
      "duration": 0.149,
      "velocity": 93,
      "chip": "ym2612"
    },
    {
      "channel": 1,
      "note": 33,
      "start": 148.6743,
      "duration": 0.1485,
      "velocity": 117,
      "chip": "ym2612"
    },
    {
      "channel": 3,
      "note": 22,
      "start": 148.6761,
      "duration": 0.148,
      "velocity": 127,
      "chip": "ym2612"
    },
    {
      "channel": 4,
      "note": 45,
      "start": 148.6768,
      "duration": 0.1478,
      "velocity": 92,
      "chip": "ym2612"
    },
    {
      "channel": 1,
      "note": 45,
      "start": 148.8234,
      "duration": 0.1484,
      "velocity": 117,
      "chip": "ym2612"
    },
    {
      "channel": 3,
      "note": 22,
      "start": 148.8245,
      "duration": 0.1485,
      "velocity": 127,
      "chip": "ym2612"
    },
    {
      "channel": 4,
      "note": 40,
      "start": 148.8253,
      "duration": 0.149,
      "velocity": 92,
      "chip": "ym2612"
    },
    {
      "channel": 1,
      "note": 33,
      "start": 148.9723,
      "duration": 0.1485,
      "velocity": 117,
      "chip": "ym2612"
    },
    {
      "channel": 3,
      "note": 53,
      "start": 148.9741,
      "duration": 0.1646,
      "velocity": 1,
      "chip": "ym2612"
    },
    {
      "channel": 4,
      "note": 45,
      "start": 148.9749,
      "duration": 0.1476,
      "velocity": 91,
      "chip": "ym2612"
    },
    {
      "channel": 1,
      "note": 45,
      "start": 149.1213,
      "duration": 0.1485,
      "velocity": 117,
      "chip": "ym2612"
    },
    {
      "channel": 4,
      "note": 40,
      "start": 149.1231,
      "duration": 0.1483,
      "velocity": 91,
      "chip": "ym2612"
    },
    {
      "channel": 1,
      "note": 33,
      "start": 149.2702,
      "duration": 0.1485,
      "velocity": 117,
      "chip": "ym2612"
    },
    {
      "channel": 4,
      "note": 43,
      "start": 149.272,
      "duration": 0.1484,
      "velocity": 90,
      "chip": "ym2612"
    },
    {
      "channel": 1,
      "note": 33,
      "start": 149.4192,
      "duration": 0.1485,
      "velocity": 117,
      "chip": "ym2612"
    },
    {
      "channel": 4,
      "note": 45,
      "start": 149.421,
      "duration": 0.1485,
      "velocity": 90,
      "chip": "ym2612"
    },
    {
      "channel": 1,
      "note": 45,
      "start": 149.5682,
      "duration": 0.1485,
      "velocity": 117,
      "chip": "ym2612"
    },
    {
      "channel": 3,
      "note": 53,
      "start": 149.5694,
      "duration": 0.1653,
      "velocity": 1,
      "chip": "ym2612"
    },
    {
      "channel": 4,
      "note": 40,
      "start": 149.5701,
      "duration": 0.1483,
      "velocity": 89,
      "chip": "ym2612"
    },
    {
      "channel": 1,
      "note": 33,
      "start": 149.7171,
      "duration": 0.1485,
      "velocity": 117,
      "chip": "ym2612"
    },
    {
      "channel": 4,
      "note": 47,
      "start": 149.719,
      "duration": 0.1483,
      "velocity": 89,
      "chip": "ym2612"
    },
    {
      "channel": 1,
      "note": 45,
      "start": 149.8661,
      "duration": 0.1485,
      "velocity": 117,
      "chip": "ym2612"
    },
    {
      "channel": 4,
      "note": 48,
      "start": 149.868,
      "duration": 0.1483,
      "velocity": 88,
      "chip": "ym2612"
    },
    {
      "channel": 1,
      "note": 45,
      "start": 150.0151,
      "duration": 0.1485,
      "velocity": 117,
      "chip": "ym2612"
    },
    {
      "channel": 4,
      "note": 47,
      "start": 150.0169,
      "duration": 0.1486,
      "velocity": 88,
      "chip": "ym2612"
    },
    {
      "channel": 1,
      "note": 33,
      "start": 150.1641,
      "duration": 0.1485,
      "velocity": 117,
      "chip": "ym2612"
    },
    {
      "channel": 3,
      "note": 53,
      "start": 150.1653,
      "duration": 0.1652,
      "velocity": 1,
      "chip": "ym2612"
    },
    {
      "channel": 4,
      "note": 45,
      "start": 150.1661,
      "duration": 0.1482,
      "velocity": 87,
      "chip": "ym2612"
    },
    {
      "channel": 5,
      "note": 41,
      "start": 150.1673,
      "duration": 0.0647,
      "velocity": 120,
      "chip": "ym2612"
    },
    {
      "channel": 5,
      "note": 43,
      "start": 150.2324,
      "duration": 0.0826,
      "velocity": 120,
      "chip": "ym2612"
    },
    {
      "channel": 1,
      "note": 45,
      "start": 150.313,
      "duration": 0.1485,
      "velocity": 117,
      "chip": "ym2612"
    },
    {
      "channel": 4,
      "note": 40,
      "start": 150.3149,
      "duration": 0.149,
      "velocity": 87,
      "chip": "ym2612"
    },
    {
      "channel": 5,
      "note": 45,
      "start": 150.3155,
      "duration": 0.0655,
      "velocity": 119,
      "chip": "ym2612"
    },
    {
      "channel": 5,
      "note": 46,
      "start": 150.3814,
      "duration": 0.0833,
      "velocity": 119,
      "chip": "ym2612"
    },
    {
      "channel": 1,
      "note": 33,
      "start": 150.462,
      "duration": 0.1485,
      "velocity": 117,
      "chip": "ym2612"
    },
    {
      "channel": 3,
      "note": 62,
      "start": 150.4638,
      "duration": 0.1479,
      "velocity": 59,
      "chip": "ym2612"
    },
    {
      "channel": 4,
      "note": 43,
      "start": 150.4645,
      "duration": 0.1478,
      "velocity": 88,
      "chip": "ym2612"
    },
    {
      "channel": 5,
      "note": 48,
      "start": 150.4651,
      "duration": 0.0648,
      "velocity": 118,
      "chip": "ym2612"
    },
    {
      "channel": 5,
      "note": 50,
      "start": 150.5303,
      "duration": 0.0827,
      "velocity": 118,
      "chip": "ym2612"
    },
    {
      "channel": 1,
      "note": 33,
      "start": 150.611,
      "duration": 0.1485,
      "velocity": 117,
      "chip": "ym2612"
    },
    {
      "channel": 3,
      "note": 62,
      "start": 150.6122,
      "duration": 0.1484,
      "velocity": 59,
      "chip": "ym2612"
    },
    {
      "channel": 4,
      "note": 45,
      "start": 150.6129,
      "duration": 0.149,
      "velocity": 88,
      "chip": "ym2612"
    },
    {
      "channel": 5,
      "note": 52,
      "start": 150.6135,
      "duration": 0.0653,
      "velocity": 117,
      "chip": "ym2612"
    },
    {
      "channel": 5,
      "note": 53,
      "start": 150.6793,
      "duration": 0.0834,
      "velocity": 117,
      "chip": "ym2612"
    },
    {
      "channel": 1,
      "note": 45,
      "start": 150.76,
      "duration": 0.1485,
      "velocity": 117,
      "chip": "ym2612"
    },
    {
      "channel": 3,
      "note": 53,
      "start": 150.7617,
      "duration": 0.1647,
      "velocity": 1,
      "chip": "ym2612"
    },
    {
      "channel": 4,
      "note": 40,
      "start": 150.7625,
      "duration": 0.1476,
      "velocity": 89,
      "chip": "ym2612"
    },
    {
      "channel": 5,
      "note": 55,
      "start": 150.7631,
      "duration": 0.0648,
      "velocity": 116,
      "chip": "ym2612"
    },
    {
      "channel": 5,
      "note": 57,
      "start": 150.8283,
      "duration": 0.0826,
      "velocity": 116,
      "chip": "ym2612"
    },
    {
      "channel": 1,
      "note": 33,
      "start": 150.9089,
      "duration": 0.1485,
      "velocity": 117,
      "chip": "ym2612"
    },
    {
      "channel": 4,
      "note": 43,
      "start": 150.9108,
      "duration": 0.149,
      "velocity": 89,
      "chip": "ym2612"
    },
    {
      "channel": 5,
      "note": 58,
      "start": 150.9114,
      "duration": 0.0654,
      "velocity": 115,
      "chip": "ym2612"
    },
    {
      "channel": 5,
      "note": 60,
      "start": 150.9773,
      "duration": 0.0833,
      "velocity": 115,
      "chip": "ym2612"
    },
    {
      "channel": 1,
      "note": 45,
      "start": 151.0579,
      "duration": 0.1485,
      "velocity": 117,
      "chip": "ym2612"
    },
    {
      "channel": 3,
      "note": 22,
      "start": 151.0596,
      "duration": 0.148,
      "velocity": 127,
      "chip": "ym2612"
    },
    {
      "channel": 4,
      "note": 45,
      "start": 151.0604,
      "duration": 0.1478,
      "velocity": 90,
      "chip": "ym2612"
    },
    {
      "channel": 5,
      "note": 62,
      "start": 151.061,
      "duration": 0.0647,
      "velocity": 114,
      "chip": "ym2612"
    },
    {
      "channel": 5,
      "note": 64,
      "start": 151.1262,
      "duration": 0.0828,
      "velocity": 114,
      "chip": "ym2612"
    },
    {
      "channel": 1,
      "note": 33,
      "start": 151.2069,
      "duration": 0.1495,
      "velocity": 117,
      "chip": "ym2612"
    },
    {
      "channel": 3,
      "note": 22,
      "start": 151.208,
      "duration": 0.1495,
      "velocity": 127,
      "chip": "ym2612"
    },
    {
      "channel": 4,
      "note": 40,
      "start": 151.2088,
      "duration": 0.15,
      "velocity": 90,
      "chip": "ym2612"
    },
    {
      "channel": 5,
      "note": 65,
      "start": 151.2094,
      "duration": 0.0653,
      "velocity": 113,
      "chip": "ym2612"
    },
    {
      "channel": 5,
      "note": 67,
      "start": 151.2752,
      "duration": 0.0844,
      "velocity": 113,
      "chip": "ym2612"
    },
    {
      "channel": 0,
      "note": 45,
      "start": 151.3562,
      "duration": 0.1477,
      "velocity": 107,
      "chip": "ym2612"
    },
    {
      "channel": 1,
      "note": 33,
      "start": 151.3568,
      "duration": 0.1479,
      "velocity": 117,
      "chip": "ym2612"
    },
    {
      "channel": 3,
      "note": 53,
      "start": 151.3587,
      "duration": 0.1638,
      "velocity": 1,
      "chip": "ym2612"
    },
    {
      "channel": 4,
      "note": 43,
      "start": 151.3594,
      "duration": 0.1471,
      "velocity": 91,
      "chip": "ym2612"
    },
    {
      "channel": 5,
      "note": 69,
      "start": 151.36,
      "duration": 0.064,
      "velocity": 112,
      "chip": "ym2612"
    },
    {
      "channel": 5,
      "note": 70,
      "start": 151.4244,
      "duration": 0.0828,
      "velocity": 112,
      "chip": "ym2612"
    },
    {
      "channel": 0,
      "note": 45,
      "start": 151.5045,
      "duration": 0.1483,
      "velocity": 106,
      "chip": "ym2612"
    },
    {
      "channel": 1,
      "note": 45,
      "start": 151.5052,
      "duration": 0.1485,
      "velocity": 117,
      "chip": "ym2612"
    },
    {
      "channel": 4,
      "note": 45,
      "start": 151.5071,
      "duration": 0.1483,
      "velocity": 91,
      "chip": "ym2612"
    },
    {
      "channel": 5,
      "note": 72,
      "start": 151.5077,
      "duration": 0.0653,
      "velocity": 113,
      "chip": "ym2612"
    },
    {
      "channel": 5,
      "note": 74,
      "start": 151.5734,
      "duration": 0.0827,
      "velocity": 113,
      "chip": "ym2612"
    },
    {
      "channel": 0,
      "note": 45,
      "start": 151.6535,
      "duration": 0.1483,
      "velocity": 105,
      "chip": "ym2612"
    },
    {
      "channel": 1,
      "note": 33,
      "start": 151.6542,
      "duration": 0.1485,
      "velocity": 117,
      "chip": "ym2612"
    },
    {
      "channel": 4,
      "note": 47,
      "start": 151.6561,
      "duration": 0.1483,
      "velocity": 92,
      "chip": "ym2612"
    },
    {
      "channel": 5,
      "note": 76,
      "start": 151.6567,
      "duration": 0.0652,
      "velocity": 114,
      "chip": "ym2612"
    },
    {
      "channel": 5,
      "note": 77,
      "start": 151.7224,
      "duration": 0.0828,
      "velocity": 114,
      "chip": "ym2612"
    },
    {
      "channel": 0,
      "note": 45,
      "start": 151.8025,
      "duration": 0.1483,
      "velocity": 104,
      "chip": "ym2612"
    },
    {
      "channel": 1,
      "note": 45,
      "start": 151.8032,
      "duration": 0.1485,
      "velocity": 117,
      "chip": "ym2612"
    },
    {
      "channel": 4,
      "note": 48,
      "start": 151.805,
      "duration": 0.1485,
      "velocity": 92,
      "chip": "ym2612"
    },
    {
      "channel": 5,
      "note": 79,
      "start": 151.8056,
      "duration": 0.0653,
      "velocity": 115,
      "chip": "ym2612"
    },
    {
      "channel": 5,
      "note": 81,
      "start": 151.8713,
      "duration": 0.0829,
      "velocity": 115,
      "chip": "ym2612"
    },
    {
      "channel": 0,
      "note": 45,
      "start": 151.9515,
      "duration": 0.1483,
      "velocity": 103,
      "chip": "ym2612"
    },
    {
      "channel": 1,
      "note": 33,
      "start": 151.9521,
      "duration": 0.1485,
      "velocity": 117,
      "chip": "ym2612"
    },
    {
      "channel": 3,
      "note": 53,
      "start": 151.9533,
      "duration": 0.165,
      "velocity": 1,
      "chip": "ym2612"
    },
    {
      "channel": 4,
      "note": 50,
      "start": 151.9541,
      "duration": 0.1482,
      "velocity": 93,
      "chip": "ym2612"
    },
    {
      "channel": 5,
      "note": 82,
      "start": 151.9547,
      "duration": 0.0651,
      "velocity": 116,
      "chip": "ym2612"
    },
    {
      "channel": 5,
      "note": 84,
      "start": 152.0203,
      "duration": 0.0828,
      "velocity": 116,
      "chip": "ym2612"
    },
    {
      "channel": 0,
      "note": 45,
      "start": 152.1005,
      "duration": 0.1483,
      "velocity": 102,
      "chip": "ym2612"
    },
    {
      "channel": 1,
      "note": 33,
      "start": 152.1011,
      "duration": 0.1485,
      "velocity": 117,
      "chip": "ym2612"
    },
    {
      "channel": 4,
      "note": 48,
      "start": 152.1029,
      "duration": 0.149,
      "velocity": 93,
      "chip": "ym2612"
    },
    {
      "channel": 5,
      "note": 86,
      "start": 152.1035,
      "duration": 0.0653,
      "velocity": 117,
      "chip": "ym2612"
    },
    {
      "channel": 5,
      "note": 88,
      "start": 152.1692,
      "duration": 0.0835,
      "velocity": 117,
      "chip": "ym2612"
    },
    {
      "channel": 0,
      "note": 45,
      "start": 152.2494,
      "duration": 0.1483,
      "velocity": 101,
      "chip": "ym2612"
    },
    {
      "channel": 1,
      "note": 45,
      "start": 152.25,
      "duration": 0.1485,
      "velocity": 117,
      "chip": "ym2612"
    },
    {
      "channel": 3,
      "note": 22,
      "start": 152.2518,
      "duration": 0.1479,
      "velocity": 127,
      "chip": "ym2612"
    },
    {
      "channel": 4,
      "note": 47,
      "start": 152.2526,
      "duration": 0.1478,
      "velocity": 94,
      "chip": "ym2612"
    },
    {
      "channel": 5,
      "note": 89,
      "start": 152.2532,
      "duration": 0.0645,
      "velocity": 118,
      "chip": "ym2612"
    },
    {
      "channel": 5,
      "note": 91,
      "start": 152.3182,
      "duration": 0.0829,
      "velocity": 118,
      "chip": "ym2612"
    },
    {
      "channel": 0,
      "note": 45,
      "start": 152.3984,
      "duration": 0.1483,
      "velocity": 100,
      "chip": "ym2612"
    },
    {
      "channel": 1,
      "note": 33,
      "start": 152.399,
      "duration": 0.1489,
      "velocity": 117,
      "chip": "ym2612"
    },
    {
      "channel": 3,
      "note": 22,
      "start": 152.4002,
      "duration": 0.1497,
      "velocity": 127,
      "chip": "ym2612"
    },
    {
      "channel": 4,
      "note": 40,
      "start": 152.4009,
      "duration": 0.1502,
      "velocity": 94,
      "chip": "ym2612"
    },
    {
      "channel": 5,
      "note": 93,
      "start": 152.4016,
      "duration": 0.0651,
      "velocity": 119,
      "chip": "ym2612"
    },
    {
      "channel": 5,
      "note": 94,
      "start": 152.4671,
      "duration": 0.0847,
      "velocity": 119,
      "chip": "ym2612"
    },
    {
      "channel": 0,
      "note": 21,
      "start": 152.5477,
      "duration": 4.7002,
      "velocity": 124,
      "chip": "ym2612"
    },
    {
      "channel": 1,
      "note": 33,
      "start": 152.5484,
      "duration": 0.1478,
      "velocity": 117,
      "chip": "ym2612"
    },
    {
      "channel": 2,
      "note": 21,
      "start": 152.5497,
      "duration": 0.2301,
      "velocity": 87,
      "chip": "ym2612"
    },
    {
      "channel": 3,
      "note": 45,
      "start": 152.5509,
      "duration": 0.2956,
      "velocity": 122,
      "chip": "ym2612"
    },
    {
      "channel": 4,
      "note": 45,
      "start": 152.5517,
      "duration": 0.1462,
      "velocity": 95,
      "chip": "ym2612"
    },
    {
      "channel": 5,
      "note": 93,
      "start": 152.5523,
      "duration": 0.0632,
      "velocity": 120,
      "chip": "ym2612"
    },
    {
      "channel": 5,
      "note": 91,
      "start": 152.616,
      "duration": 0.0826,
      "velocity": 120,
      "chip": "ym2612"
    },
    {
      "channel": 1,
      "note": 45,
      "start": 152.6966,
      "duration": 0.1485,
      "velocity": 117,
      "chip": "ym2612"
    },
    {
      "channel": 4,
      "note": 40,
      "start": 152.6984,
      "duration": 0.1493,
      "velocity": 95,
      "chip": "ym2612"
    },
    {
      "channel": 5,
      "note": 89,
      "start": 152.6991,
      "duration": 0.0655,
      "velocity": 119,
      "chip": "ym2612"
    },
    {
      "channel": 5,
      "note": 88,
      "start": 152.765,
      "duration": 0.0835,
      "velocity": 119,
      "chip": "ym2612"
    },
    {
      "channel": 1,
      "note": 33,
      "start": 152.8456,
      "duration": 0.1485,
      "velocity": 117,
      "chip": "ym2612"
    },
    {
      "channel": 2,
      "note": 33,
      "start": 152.8463,
      "duration": 0.1483,
      "velocity": 87,
      "chip": "ym2612"
    },
    {
      "channel": 3,
      "note": 72,
      "start": 152.8476,
      "duration": 0.2969,
      "velocity": 113,
      "chip": "ym2612"
    },
    {
      "channel": 4,
      "note": 43,
      "start": 152.8483,
      "duration": 0.1477,
      "velocity": 94,
      "chip": "ym2612"
    },
    {
      "channel": 5,
      "note": 86,
      "start": 152.849,
      "duration": 0.0646,
      "velocity": 118,
      "chip": "ym2612"
    },
    {
      "channel": 5,
      "note": 84,
      "start": 152.914,
      "duration": 0.0827,
      "velocity": 118,
      "chip": "ym2612"
    },
    {
      "channel": 1,
      "note": 33,
      "start": 152.9946,
      "duration": 0.1485,
      "velocity": 117,
      "chip": "ym2612"
    },
    {
      "channel": 2,
      "note": 21,
      "start": 152.9953,
      "duration": 0.1483,
      "velocity": 87,
      "chip": "ym2612"
    },
    {
      "channel": 4,
      "note": 45,
      "start": 152.9965,
      "duration": 0.1491,
      "velocity": 94,
      "chip": "ym2612"
    },
    {
      "channel": 5,
      "note": 82,
      "start": 152.9972,
      "duration": 0.0653,
      "velocity": 117,
      "chip": "ym2612"
    },
    {
      "channel": 5,
      "note": 81,
      "start": 153.0629,
      "duration": 0.0834,
      "velocity": 117,
      "chip": "ym2612"
    },
    {
      "channel": 1,
      "note": 45,
      "start": 153.1435,
      "duration": 0.1485,
      "velocity": 117,
      "chip": "ym2612"
    },
    {
      "channel": 2,
      "note": 33,
      "start": 153.1442,
      "duration": 0.2315,
      "velocity": 87,
      "chip": "ym2612"
    },
    {
      "channel": 3,
      "note": 24,
      "start": 153.1455,
      "duration": 0.2968,
      "velocity": 126,
      "chip": "ym2612"
    },
    {
      "channel": 4,
      "note": 40,
      "start": 153.1463,
      "duration": 0.1474,
      "velocity": 93,
      "chip": "ym2612"
    },
    {
      "channel": 5,
      "note": 79,
      "start": 153.1469,
      "duration": 0.0645,
      "velocity": 116,
      "chip": "ym2612"
    },
    {
      "channel": 5,
      "note": 77,
      "start": 153.2119,
      "duration": 0.0826,
      "velocity": 116,
      "chip": "ym2612"
    },
    {
      "channel": 1,
      "note": 33,
      "start": 153.2924,
      "duration": 0.1485,
      "velocity": 117,
      "chip": "ym2612"
    },
    {
      "channel": 4,
      "note": 43,
      "start": 153.2943,
      "duration": 0.1493,
      "velocity": 93,
      "chip": "ym2612"
    },
    {
      "channel": 5,
      "note": 76,
      "start": 153.2949,
      "duration": 0.0654,
      "velocity": 115,
      "chip": "ym2612"
    },
    {
      "channel": 5,
      "note": 74,
      "start": 153.3608,
      "duration": 0.0835,
      "velocity": 115,
      "chip": "ym2612"
    },
    {
      "channel": 1,
      "note": 33,
      "start": 153.4414,
      "duration": 0.1485,
      "velocity": 117,
      "chip": "ym2612"
    },
    {
      "channel": 2,
      "note": 21,
      "start": 153.4422,
      "duration": 0.1484,
      "velocity": 87,
      "chip": "ym2612"
    },
    {
      "channel": 3,
      "note": 45,
      "start": 153.4434,
      "duration": 0.297,
      "velocity": 122,
      "chip": "ym2612"
    },
    {
      "channel": 4,
      "note": 45,
      "start": 153.4442,
      "duration": 0.1477,
      "velocity": 92,
      "chip": "ym2612"
    },
    {
      "channel": 5,
      "note": 72,
      "start": 153.4448,
      "duration": 0.0646,
      "velocity": 114,
      "chip": "ym2612"
    },
    {
      "channel": 5,
      "note": 70,
      "start": 153.5098,
      "duration": 0.0828,
      "velocity": 114,
      "chip": "ym2612"
    },
    {
      "channel": 1,
      "note": 45,
      "start": 153.5905,
      "duration": 0.1484,
      "velocity": 117,
      "chip": "ym2612"
    },
    {
      "channel": 2,
      "note": 33,
      "start": 153.5912,
      "duration": 0.1483,
      "velocity": 87,
      "chip": "ym2612"
    },
    {
      "channel": 4,
      "note": 40,
      "start": 153.5924,
      "duration": 0.1485,
      "velocity": 92,
      "chip": "ym2612"
    },
    {
      "channel": 5,
      "note": 69,
      "start": 153.5931,
      "duration": 0.0654,
      "velocity": 113,
      "chip": "ym2612"
    },
    {
      "channel": 5,
      "note": 67,
      "start": 153.6589,
      "duration": 0.0829,
      "velocity": 113,
      "chip": "ym2612"
    },
    {
      "channel": 1,
      "note": 33,
      "start": 153.7394,
      "duration": 0.1485,
      "velocity": 117,
      "chip": "ym2612"
    },
    {
      "channel": 2,
      "note": 21,
      "start": 153.7402,
      "duration": 0.1483,
      "velocity": 87,
      "chip": "ym2612"
    },
    {
      "channel": 3,
      "note": 45,
      "start": 153.7409,
      "duration": 0.5953,
      "velocity": 122,
      "chip": "ym2612"
    },
    {
      "channel": 4,
      "note": 45,
      "start": 153.7416,
      "duration": 0.1482,
      "velocity": 91,
      "chip": "ym2612"
    },
    {
      "channel": 5,
      "note": 65,
      "start": 153.7422,
      "duration": 0.0651,
      "velocity": 112,
      "chip": "ym2612"
    },
    {
      "channel": 5,
      "note": 64,
      "start": 153.8078,
      "duration": 0.0828,
      "velocity": 112,
      "chip": "ym2612"
    },
    {
      "channel": 1,
      "note": 45,
      "start": 153.8884,
      "duration": 0.1485,
      "velocity": 117,
      "chip": "ym2612"
    },
    {
      "channel": 2,
      "note": 21,
      "start": 153.8892,
      "duration": 0.1483,
      "velocity": 87,
      "chip": "ym2612"
    },
    {
      "channel": 4,
      "note": 40,
      "start": 153.8904,
      "duration": 0.1483,
      "velocity": 91,
      "chip": "ym2612"
    },
    {
      "channel": 5,
      "note": 62,
      "start": 153.8911,
      "duration": 0.0653,
      "velocity": 113,
      "chip": "ym2612"
    },
    {
      "channel": 5,
      "note": 60,
      "start": 153.9568,
      "duration": 0.0828,
      "velocity": 113,
      "chip": "ym2612"
    },
    {
      "channel": 1,
      "note": 33,
      "start": 154.0374,
      "duration": 0.1485,
      "velocity": 117,
      "chip": "ym2612"
    },
    {
      "channel": 2,
      "note": 33,
      "start": 154.0381,
      "duration": 0.1483,
      "velocity": 87,
      "chip": "ym2612"
    },
    {
      "channel": 4,
      "note": 43,
      "start": 154.0394,
      "duration": 0.1483,
      "velocity": 90,
      "chip": "ym2612"
    },
    {
      "channel": 5,
      "note": 58,
      "start": 154.04,
      "duration": 0.0652,
      "velocity": 114,
      "chip": "ym2612"
    },
    {
      "channel": 5,
      "note": 57,
      "start": 154.1058,
      "duration": 0.0827,
      "velocity": 114,
      "chip": "ym2612"
    },
    {
      "channel": 1,
      "note": 33,
      "start": 154.1863,
      "duration": 0.1485,
      "velocity": 117,
      "chip": "ym2612"
    },
    {
      "channel": 2,
      "note": 21,
      "start": 154.1871,
      "duration": 0.1484,
      "velocity": 87,
      "chip": "ym2612"
    },
    {
      "channel": 4,
      "note": 45,
      "start": 154.1883,
      "duration": 0.1491,
      "velocity": 90,
      "chip": "ym2612"
    },
    {
      "channel": 5,
      "note": 55,
      "start": 154.189,
      "duration": 0.0653,
      "velocity": 115,
      "chip": "ym2612"
    },
    {
      "channel": 5,
      "note": 53,
      "start": 154.2547,
      "duration": 0.0835,
      "velocity": 115,
      "chip": "ym2612"
    },
    {
      "channel": 1,
      "note": 45,
      "start": 154.3353,
      "duration": 0.1485,
      "velocity": 117,
      "chip": "ym2612"
    },
    {
      "channel": 2,
      "note": 33,
      "start": 154.336,
      "duration": 0.1484,
      "velocity": 87,
      "chip": "ym2612"
    },
    {
      "channel": 3,
      "note": 24,
      "start": 154.3373,
      "duration": 0.5948,
      "velocity": 126,
      "chip": "ym2612"
    },
    {
      "channel": 4,
      "note": 40,
      "start": 154.3381,
      "duration": 0.1476,
      "velocity": 89,
      "chip": "ym2612"
    },
    {
      "channel": 5,
      "note": 52,
      "start": 154.3386,
      "duration": 0.0646,
      "velocity": 116,
      "chip": "ym2612"
    },
    {
      "channel": 5,
      "note": 50,
      "start": 154.4037,
      "duration": 0.0828,
      "velocity": 116,
      "chip": "ym2612"
    },
    {
      "channel": 1,
      "note": 33,
      "start": 154.4842,
      "duration": 0.1485,
      "velocity": 117,
      "chip": "ym2612"
    },
    {
      "channel": 2,
      "note": 21,
      "start": 154.485,
      "duration": 0.1484,
      "velocity": 87,
      "chip": "ym2612"
    },
    {
      "channel": 4,
      "note": 47,
      "start": 154.4862,
      "duration": 0.1484,
      "velocity": 89,
      "chip": "ym2612"
    },
    {
      "channel": 5,
      "note": 48,
      "start": 154.4869,
      "duration": 0.0653,
      "velocity": 117,
      "chip": "ym2612"
    },
    {
      "channel": 5,
      "note": 46,
      "start": 154.5526,
      "duration": 0.0828,
      "velocity": 117,
      "chip": "ym2612"
    },
    {
      "channel": 1,
      "note": 45,
      "start": 154.6332,
      "duration": 0.1485,
      "velocity": 117,
      "chip": "ym2612"
    },
    {
      "channel": 2,
      "note": 21,
      "start": 154.634,
      "duration": 0.1483,
      "velocity": 87,
      "chip": "ym2612"
    },
    {
      "channel": 4,
      "note": 48,
      "start": 154.6352,
      "duration": 0.1484,
      "velocity": 88,
      "chip": "ym2612"
    },
    {
      "channel": 5,
      "note": 45,
      "start": 154.6359,
      "duration": 0.0653,
      "velocity": 118,
      "chip": "ym2612"
    },
    {
      "channel": 5,
      "note": 43,
      "start": 154.7016,
      "duration": 0.0828,
      "velocity": 118,
      "chip": "ym2612"
    },
    {
      "channel": 1,
      "note": 45,
      "start": 154.7822,
      "duration": 0.1485,
      "velocity": 117,
      "chip": "ym2612"
    },
    {
      "channel": 2,
      "note": 33,
      "start": 154.783,
      "duration": 0.1483,
      "velocity": 87,
      "chip": "ym2612"
    },
    {
      "channel": 4,
      "note": 47,
      "start": 154.7842,
      "duration": 0.1492,
      "velocity": 88,
      "chip": "ym2612"
    },
    {
      "channel": 5,
      "note": 41,
      "start": 154.7848,
      "duration": 0.0653,
      "velocity": 119,
      "chip": "ym2612"
    },
    {
      "channel": 5,
      "note": 40,
      "start": 154.8506,
      "duration": 0.0835,
      "velocity": 119,
      "chip": "ym2612"
    },
    {
      "channel": 1,
      "note": 33,
      "start": 154.9312,
      "duration": 0.1485,
      "velocity": 117,
      "chip": "ym2612"
    },
    {
      "channel": 2,
      "note": 21,
      "start": 154.932,
      "duration": 0.2314,
      "velocity": 87,
      "chip": "ym2612"
    },
    {
      "channel": 3,
      "note": 45,
      "start": 154.9332,
      "duration": 0.2968,
      "velocity": 122,
      "chip": "ym2612"
    },
    {
      "channel": 4,
      "note": 45,
      "start": 154.9339,
      "duration": 0.1475,
      "velocity": 87,
      "chip": "ym2612"
    },
    {
      "channel": 5,
      "note": 41,
      "start": 154.9346,
      "duration": 0.0645,
      "velocity": 120,
      "chip": "ym2612"
    },
    {
      "channel": 5,
      "note": 43,
      "start": 154.9996,
      "duration": 0.0826,
      "velocity": 120,
      "chip": "ym2612"
    },
    {
      "channel": 1,
      "note": 45,
      "start": 155.0801,
      "duration": 0.1485,
      "velocity": 117,
      "chip": "ym2612"
    },
    {
      "channel": 4,
      "note": 40,
      "start": 155.082,
      "duration": 0.1493,
      "velocity": 87,
      "chip": "ym2612"
    },
    {
      "channel": 5,
      "note": 45,
      "start": 155.0826,
      "duration": 0.0654,
      "velocity": 119,
      "chip": "ym2612"
    },
    {
      "channel": 5,
      "note": 46,
      "start": 155.1485,
      "duration": 0.0835,
      "velocity": 119,
      "chip": "ym2612"
    },
    {
      "channel": 1,
      "note": 33,
      "start": 155.2291,
      "duration": 0.1485,
      "velocity": 117,
      "chip": "ym2612"
    },
    {
      "channel": 2,
      "note": 33,
      "start": 155.2299,
      "duration": 0.2314,
      "velocity": 87,
      "chip": "ym2612"
    },
    {
      "channel": 3,
      "note": 84,
      "start": 155.2311,
      "duration": 0.2968,
      "velocity": 113,
      "chip": "ym2612"
    },
    {
      "channel": 4,
      "note": 43,
      "start": 155.2319,
      "duration": 0.1474,
      "velocity": 88,
      "chip": "ym2612"
    },
    {
      "channel": 5,
      "note": 48,
      "start": 155.2325,
      "duration": 0.0646,
      "velocity": 118,
      "chip": "ym2612"
    },
    {
      "channel": 5,
      "note": 50,
      "start": 155.2975,
      "duration": 0.0826,
      "velocity": 118,
      "chip": "ym2612"
    },
    {
      "channel": 1,
      "note": 33,
      "start": 155.3781,
      "duration": 0.1485,
      "velocity": 117,
      "chip": "ym2612"
    },
    {
      "channel": 4,
      "note": 45,
      "start": 155.3799,
      "duration": 0.1493,
      "velocity": 88,
      "chip": "ym2612"
    },
    {
      "channel": 5,
      "note": 52,
      "start": 155.3806,
      "duration": 0.0654,
      "velocity": 117,
      "chip": "ym2612"
    },
    {
      "channel": 5,
      "note": 53,
      "start": 155.4465,
      "duration": 0.0835,
      "velocity": 117,
      "chip": "ym2612"
    },
    {
      "channel": 1,
      "note": 45,
      "start": 155.5271,
      "duration": 0.1485,
      "velocity": 117,
      "chip": "ym2612"
    },
    {
      "channel": 2,
      "note": 21,
      "start": 155.5278,
      "duration": 0.2314,
      "velocity": 87,
      "chip": "ym2612"
    },
    {
      "channel": 3,
      "note": 24,
      "start": 155.529,
      "duration": 0.2969,
      "velocity": 126,
      "chip": "ym2612"
    },
    {
      "channel": 4,
      "note": 40,
      "start": 155.5298,
      "duration": 0.1475,
      "velocity": 89,
      "chip": "ym2612"
    },
    {
      "channel": 5,
      "note": 55,
      "start": 155.5304,
      "duration": 0.0646,
      "velocity": 116,
      "chip": "ym2612"
    },
    {
      "channel": 5,
      "note": 57,
      "start": 155.5954,
      "duration": 0.0826,
      "velocity": 116,
      "chip": "ym2612"
    },
    {
      "channel": 1,
      "note": 33,
      "start": 155.6761,
      "duration": 0.1485,
      "velocity": 117,
      "chip": "ym2612"
    },
    {
      "channel": 4,
      "note": 43,
      "start": 155.6779,
      "duration": 0.1493,
      "velocity": 89,
      "chip": "ym2612"
    },
    {
      "channel": 5,
      "note": 58,
      "start": 155.6785,
      "duration": 0.0655,
      "velocity": 115,
      "chip": "ym2612"
    },
    {
      "channel": 5,
      "note": 60,
      "start": 155.7444,
      "duration": 0.0835,
      "velocity": 115,
      "chip": "ym2612"
    },
    {
      "channel": 1,
      "note": 45,
      "start": 155.825,
      "duration": 0.1485,
      "velocity": 117,
      "chip": "ym2612"
    },
    {
      "channel": 2,
      "note": 21,
      "start": 155.8258,
      "duration": 0.1484,
      "velocity": 87,
      "chip": "ym2612"
    },
    {
      "channel": 3,
      "note": 45,
      "start": 155.827,
      "duration": 0.2969,
      "velocity": 122,
      "chip": "ym2612"
    },
    {
      "channel": 4,
      "note": 45,
      "start": 155.8278,
      "duration": 0.1477,
      "velocity": 90,
      "chip": "ym2612"
    },
    {
      "channel": 5,
      "note": 62,
      "start": 155.8284,
      "duration": 0.0646,
      "velocity": 114,
      "chip": "ym2612"
    },
    {
      "channel": 5,
      "note": 64,
      "start": 155.8934,
      "duration": 0.0828,
      "velocity": 114,
      "chip": "ym2612"
    },
    {
      "channel": 1,
      "note": 33,
      "start": 155.974,
      "duration": 0.1485,
      "velocity": 117,
      "chip": "ym2612"
    },
    {
      "channel": 2,
      "note": 33,
      "start": 155.9748,
      "duration": 0.1484,
      "velocity": 87,
      "chip": "ym2612"
    },
    {
      "channel": 4,
      "note": 40,
      "start": 155.976,
      "duration": 0.1486,
      "velocity": 90,
      "chip": "ym2612"
    },
    {
      "channel": 5,
      "note": 65,
      "start": 155.9766,
      "duration": 0.0653,
      "velocity": 113,
      "chip": "ym2612"
    },
    {
      "channel": 5,
      "note": 67,
      "start": 156.0424,
      "duration": 0.0829,
      "velocity": 113,
      "chip": "ym2612"
    },
    {
      "channel": 1,
      "note": 33,
      "start": 156.123,
      "duration": 0.1485,
      "velocity": 117,
      "chip": "ym2612"
    },
    {
      "channel": 2,
      "note": 21,
      "start": 156.1238,
      "duration": 0.1483,
      "velocity": 87,
      "chip": "ym2612"
    },
    {
      "channel": 3,
      "note": 45,
      "start": 156.1244,
      "duration": 0.5954,
      "velocity": 122,
      "chip": "ym2612"
    },
    {
      "channel": 4,
      "note": 43,
      "start": 156.1251,
      "duration": 0.1482,
      "velocity": 91,
      "chip": "ym2612"
    },
    {
      "channel": 5,
      "note": 69,
      "start": 156.1258,
      "duration": 0.0651,
      "velocity": 112,
      "chip": "ym2612"
    },
    {
      "channel": 5,
      "note": 70,
      "start": 156.1914,
      "duration": 0.0827,
      "velocity": 112,
      "chip": "ym2612"
    },
    {
      "channel": 1,
      "note": 45,
      "start": 156.2719,
      "duration": 0.1485,
      "velocity": 117,
      "chip": "ym2612"
    },
    {
      "channel": 2,
      "note": 33,
      "start": 156.2727,
      "duration": 0.2314,
      "velocity": 87,
      "chip": "ym2612"
    },
    {
      "channel": 4,
      "note": 45,
      "start": 156.274,
      "duration": 0.1481,
      "velocity": 91,
      "chip": "ym2612"
    },
    {
      "channel": 5,
      "note": 72,
      "start": 156.2746,
      "duration": 0.0653,
      "velocity": 113,
      "chip": "ym2612"
    },
    {
      "channel": 5,
      "note": 74,
      "start": 156.3404,
      "duration": 0.0826,
      "velocity": 113,
      "chip": "ym2612"
    },
    {
      "channel": 1,
      "note": 33,
      "start": 156.4209,
      "duration": 0.1485,
      "velocity": 117,
      "chip": "ym2612"
    },
    {
      "channel": 4,
      "note": 47,
      "start": 156.4228,
      "duration": 0.1485,
      "velocity": 92,
      "chip": "ym2612"
    },
    {
      "channel": 5,
      "note": 76,
      "start": 156.4234,
      "duration": 0.0654,
      "velocity": 114,
      "chip": "ym2612"
    },
    {
      "channel": 5,
      "note": 77,
      "start": 156.4893,
      "duration": 0.0827,
      "velocity": 114,
      "chip": "ym2612"
    },
    {
      "channel": 1,
      "note": 45,
      "start": 156.5699,
      "duration": 0.1485,
      "velocity": 117,
      "chip": "ym2612"
    },
    {
      "channel": 2,
      "note": 21,
      "start": 156.5706,
      "duration": 0.1483,
      "velocity": 87,
      "chip": "ym2612"
    },
    {
      "channel": 4,
      "note": 48,
      "start": 156.5718,
      "duration": 0.1492,
      "velocity": 92,
      "chip": "ym2612"
    },
    {
      "channel": 5,
      "note": 79,
      "start": 156.5725,
      "duration": 0.0653,
      "velocity": 115,
      "chip": "ym2612"
    },
    {
      "channel": 5,
      "note": 81,
      "start": 156.6383,
      "duration": 0.0835,
      "velocity": 115,
      "chip": "ym2612"
    },
    {
      "channel": 1,
      "note": 33,
      "start": 156.7189,
      "duration": 0.1485,
      "velocity": 117,
      "chip": "ym2612"
    },
    {
      "channel": 2,
      "note": 33,
      "start": 156.7196,
      "duration": 0.1483,
      "velocity": 87,
      "chip": "ym2612"
    },
    {
      "channel": 3,
      "note": 21,
      "start": 156.7208,
      "duration": 0.595,
      "velocity": 126,
      "chip": "ym2612"
    },
    {
      "channel": 4,
      "note": 50,
      "start": 156.7216,
      "duration": 0.1476,
      "velocity": 93,
      "chip": "ym2612"
    },
    {
      "channel": 5,
      "note": 82,
      "start": 156.7222,
      "duration": 0.0646,
      "velocity": 116,
      "chip": "ym2612"
    },
    {
      "channel": 5,
      "note": 84,
      "start": 156.7872,
      "duration": 0.0828,
      "velocity": 116,
      "chip": "ym2612"
    },
    {
      "channel": 1,
      "note": 33,
      "start": 156.8678,
      "duration": 0.1485,
      "velocity": 117,
      "chip": "ym2612"
    },
    {
      "channel": 2,
      "note": 21,
      "start": 156.8686,
      "duration": 0.1483,
      "velocity": 87,
      "chip": "ym2612"
    },
    {
      "channel": 4,
      "note": 48,
      "start": 156.8698,
      "duration": 0.1484,
      "velocity": 93,
      "chip": "ym2612"
    },
    {
      "channel": 5,
      "note": 86,
      "start": 156.8705,
      "duration": 0.0653,
      "velocity": 117,
      "chip": "ym2612"
    },
    {
      "channel": 5,
      "note": 88,
      "start": 156.9362,
      "duration": 0.0828,
      "velocity": 117,
      "chip": "ym2612"
    },
    {
      "channel": 1,
      "note": 45,
      "start": 157.0168,
      "duration": 0.1485,
      "velocity": 117,
      "chip": "ym2612"
    },
    {
      "channel": 2,
      "note": 33,
      "start": 157.0175,
      "duration": 0.1484,
      "velocity": 87,
      "chip": "ym2612"
    },
    {
      "channel": 4,
      "note": 47,
      "start": 157.0188,
      "duration": 0.1483,
      "velocity": 94,
      "chip": "ym2612"
    },
    {
      "channel": 5,
      "note": 89,
      "start": 157.0194,
      "duration": 0.0653,
      "velocity": 118,
      "chip": "ym2612"
    },
    {
      "channel": 5,
      "note": 91,
      "start": 157.0851,
      "duration": 0.0828,
      "velocity": 118,
      "chip": "ym2612"
    },
    {
      "channel": 1,
      "note": 33,
      "start": 157.1657,
      "duration": 0.1487,
      "velocity": 117,
      "chip": "ym2612"
    },
    {
      "channel": 2,
      "note": 21,
      "start": 157.1665,
      "duration": 0.0825,
      "velocity": 87,
      "chip": "ym2612"
    },
    {
      "channel": 4,
      "note": 40,
      "start": 157.1678,
      "duration": 0.1493,
      "velocity": 94,
      "chip": "ym2612"
    },
    {
      "channel": 5,
      "note": 93,
      "start": 157.1684,
      "duration": 0.0653,
      "velocity": 119,
      "chip": "ym2612"
    },
    {
      "channel": 5,
      "note": 94,
      "start": 157.2342,
      "duration": 0.0837,
      "velocity": 119,
      "chip": "ym2612"
    },
    {
      "channel": 0,
      "note": 21,
      "start": 157.3143,
      "duration": 4.7007,
      "velocity": 124,
      "chip": "ym2612"
    },
    {
      "channel": 1,
      "note": 33,
      "start": 157.3149,
      "duration": 0.1483,
      "velocity": 117,
      "chip": "ym2612"
    },
    {
      "channel": 2,
      "note": 21,
      "start": 157.3157,
      "duration": 0.2312,
      "velocity": 87,
      "chip": "ym2612"
    },
    {
      "channel": 3,
      "note": 45,
      "start": 157.3169,
      "duration": 0.2967,
      "velocity": 122,
      "chip": "ym2612"
    },
    {
      "channel": 4,
      "note": 45,
      "start": 157.3176,
      "duration": 0.1473,
      "velocity": 95,
      "chip": "ym2612"
    },
    {
      "channel": 5,
      "note": 93,
      "start": 157.3183,
      "duration": 0.0644,
      "velocity": 120,
      "chip": "ym2612"
    },
    {
      "channel": 5,
      "note": 91,
      "start": 157.3831,
      "duration": 0.0826,
      "velocity": 120,
      "chip": "ym2612"
    },
    {
      "channel": 1,
      "note": 45,
      "start": 157.4637,
      "duration": 0.1485,
      "velocity": 117,
      "chip": "ym2612"
    },
    {
      "channel": 4,
      "note": 40,
      "start": 157.4656,
      "duration": 0.1493,
      "velocity": 95,
      "chip": "ym2612"
    },
    {
      "channel": 5,
      "note": 89,
      "start": 157.4662,
      "duration": 0.0654,
      "velocity": 119,
      "chip": "ym2612"
    },
    {
      "channel": 5,
      "note": 88,
      "start": 157.5321,
      "duration": 0.0835,
      "velocity": 119,
      "chip": "ym2612"
    },
    {
      "channel": 1,
      "note": 33,
      "start": 157.6127,
      "duration": 0.1485,
      "velocity": 117,
      "chip": "ym2612"
    },
    {
      "channel": 2,
      "note": 33,
      "start": 157.6134,
      "duration": 0.1483,
      "velocity": 87,
      "chip": "ym2612"
    },
    {
      "channel": 3,
      "note": 72,
      "start": 157.6146,
      "duration": 0.2969,
      "velocity": 113,
      "chip": "ym2612"
    },
    {
      "channel": 4,
      "note": 43,
      "start": 157.6154,
      "duration": 0.1476,
      "velocity": 94,
      "chip": "ym2612"
    },
    {
      "channel": 5,
      "note": 86,
      "start": 157.6161,
      "duration": 0.0646,
      "velocity": 118,
      "chip": "ym2612"
    },
    {
      "channel": 5,
      "note": 84,
      "start": 157.6811,
      "duration": 0.0828,
      "velocity": 118,
      "chip": "ym2612"
    },
    {
      "channel": 1,
      "note": 33,
      "start": 157.7617,
      "duration": 0.1485,
      "velocity": 117,
      "chip": "ym2612"
    },
    {
      "channel": 2,
      "note": 21,
      "start": 157.7624,
      "duration": 0.1483,
      "velocity": 87,
      "chip": "ym2612"
    },
    {
      "channel": 4,
      "note": 45,
      "start": 157.7637,
      "duration": 0.1492,
      "velocity": 94,
      "chip": "ym2612"
    },
    {
      "channel": 5,
      "note": 82,
      "start": 157.7643,
      "duration": 0.0653,
      "velocity": 117,
      "chip": "ym2612"
    },
    {
      "channel": 5,
      "note": 81,
      "start": 157.83,
      "duration": 0.0835,
      "velocity": 117,
      "chip": "ym2612"
    },
    {
      "channel": 1,
      "note": 45,
      "start": 157.9107,
      "duration": 0.1485,
      "velocity": 117,
      "chip": "ym2612"
    },
    {
      "channel": 2,
      "note": 33,
      "start": 157.9114,
      "duration": 0.2314,
      "velocity": 87,
      "chip": "ym2612"
    },
    {
      "channel": 3,
      "note": 24,
      "start": 157.9126,
      "duration": 0.2968,
      "velocity": 126,
      "chip": "ym2612"
    },
    {
      "channel": 4,
      "note": 40,
      "start": 157.9134,
      "duration": 0.1475,
      "velocity": 93,
      "chip": "ym2612"
    },
    {
      "channel": 5,
      "note": 79,
      "start": 157.914,
      "duration": 0.0645,
      "velocity": 116,
      "chip": "ym2612"
    },
    {
      "channel": 5,
      "note": 77,
      "start": 157.979,
      "duration": 0.0826,
      "velocity": 116,
      "chip": "ym2612"
    },
    {
      "channel": 1,
      "note": 33,
      "start": 158.0596,
      "duration": 0.1485,
      "velocity": 117,
      "chip": "ym2612"
    },
    {
      "channel": 4,
      "note": 43,
      "start": 158.0614,
      "duration": 0.1493,
      "velocity": 93,
      "chip": "ym2612"
    },
    {
      "channel": 5,
      "note": 76,
      "start": 158.062,
      "duration": 0.0655,
      "velocity": 115,
      "chip": "ym2612"
    },
    {
      "channel": 5,
      "note": 74,
      "start": 158.128,
      "duration": 0.0835,
      "velocity": 115,
      "chip": "ym2612"
    },
    {
      "channel": 1,
      "note": 33,
      "start": 158.2085,
      "duration": 0.1485,
      "velocity": 117,
      "chip": "ym2612"
    },
    {
      "channel": 2,
      "note": 21,
      "start": 158.2093,
      "duration": 0.1484,
      "velocity": 87,
      "chip": "ym2612"
    },
    {
      "channel": 3,
      "note": 45,
      "start": 158.2105,
      "duration": 0.2969,
      "velocity": 122,
      "chip": "ym2612"
    },
    {
      "channel": 4,
      "note": 45,
      "start": 158.2113,
      "duration": 0.1476,
      "velocity": 92,
      "chip": "ym2612"
    },
    {
      "channel": 5,
      "note": 72,
      "start": 158.2119,
      "duration": 0.0646,
      "velocity": 114,
      "chip": "ym2612"
    },
    {
      "channel": 5,
      "note": 70,
      "start": 158.2769,
      "duration": 0.0828,
      "velocity": 114,
      "chip": "ym2612"
    },
    {
      "channel": 1,
      "note": 45,
      "start": 158.3575,
      "duration": 0.1485,
      "velocity": 117,
      "chip": "ym2612"
    },
    {
      "channel": 2,
      "note": 33,
      "start": 158.3583,
      "duration": 0.1484,
      "velocity": 87,
      "chip": "ym2612"
    },
    {
      "channel": 4,
      "note": 40,
      "start": 158.3595,
      "duration": 0.1486,
      "velocity": 92,
      "chip": "ym2612"
    },
    {
      "channel": 5,
      "note": 69,
      "start": 158.3601,
      "duration": 0.0654,
      "velocity": 113,
      "chip": "ym2612"
    },
    {
      "channel": 5,
      "note": 67,
      "start": 158.426,
      "duration": 0.0829,
      "velocity": 113,
      "chip": "ym2612"
    },
    {
      "channel": 1,
      "note": 33,
      "start": 158.5066,
      "duration": 0.1484,
      "velocity": 117,
      "chip": "ym2612"
    },
    {
      "channel": 2,
      "note": 21,
      "start": 158.5073,
      "duration": 0.1483,
      "velocity": 87,
      "chip": "ym2612"
    },
    {
      "channel": 3,
      "note": 45,
      "start": 158.508,
      "duration": 0.5954,
      "velocity": 122,
      "chip": "ym2612"
    },
    {
      "channel": 4,
      "note": 45,
      "start": 158.5088,
      "duration": 0.1482,
      "velocity": 91,
      "chip": "ym2612"
    },
    {
      "channel": 5,
      "note": 65,
      "start": 158.5094,
      "duration": 0.0651,
      "velocity": 112,
      "chip": "ym2612"
    },
    {
      "channel": 5,
      "note": 64,
      "start": 158.575,
      "duration": 0.0828,
      "velocity": 112,
      "chip": "ym2612"
    },
    {
      "channel": 1,
      "note": 45,
      "start": 158.6555,
      "duration": 0.1485,
      "velocity": 117,
      "chip": "ym2612"
    },
    {
      "channel": 2,
      "note": 21,
      "start": 158.6563,
      "duration": 0.1483,
      "velocity": 87,
      "chip": "ym2612"
    },
    {
      "channel": 4,
      "note": 40,
      "start": 158.6575,
      "duration": 0.1484,
      "velocity": 91,
      "chip": "ym2612"
    },
    {
      "channel": 5,
      "note": 62,
      "start": 158.6582,
      "duration": 0.0653,
      "velocity": 113,
      "chip": "ym2612"
    },
    {
      "channel": 5,
      "note": 60,
      "start": 158.7239,
      "duration": 0.0828,
      "velocity": 113,
      "chip": "ym2612"
    },
    {
      "channel": 1,
      "note": 33,
      "start": 158.8045,
      "duration": 0.1485,
      "velocity": 117,
      "chip": "ym2612"
    },
    {
      "channel": 2,
      "note": 33,
      "start": 158.8052,
      "duration": 0.1483,
      "velocity": 87,
      "chip": "ym2612"
    },
    {
      "channel": 4,
      "note": 43,
      "start": 158.8065,
      "duration": 0.1483,
      "velocity": 90,
      "chip": "ym2612"
    },
    {
      "channel": 5,
      "note": 58,
      "start": 158.8071,
      "duration": 0.0652,
      "velocity": 114,
      "chip": "ym2612"
    },
    {
      "channel": 5,
      "note": 57,
      "start": 158.8729,
      "duration": 0.0828,
      "velocity": 114,
      "chip": "ym2612"
    },
    {
      "channel": 1,
      "note": 33,
      "start": 158.9535,
      "duration": 0.1485,
      "velocity": 117,
      "chip": "ym2612"
    },
    {
      "channel": 2,
      "note": 21,
      "start": 158.9542,
      "duration": 0.1483,
      "velocity": 87,
      "chip": "ym2612"
    },
    {
      "channel": 4,
      "note": 45,
      "start": 158.9554,
      "duration": 0.1491,
      "velocity": 90,
      "chip": "ym2612"
    },
    {
      "channel": 5,
      "note": 55,
      "start": 158.9561,
      "duration": 0.0652,
      "velocity": 115,
      "chip": "ym2612"
    },
    {
      "channel": 5,
      "note": 53,
      "start": 159.0218,
      "duration": 0.0835,
      "velocity": 115,
      "chip": "ym2612"
    },
    {
      "channel": 1,
      "note": 45,
      "start": 159.1024,
      "duration": 0.1485,
      "velocity": 117,
      "chip": "ym2612"
    },
    {
      "channel": 2,
      "note": 33,
      "start": 159.1032,
      "duration": 0.1484,
      "velocity": 87,
      "chip": "ym2612"
    },
    {
      "channel": 3,
      "note": 24,
      "start": 159.1044,
      "duration": 0.5948,
      "velocity": 126,
      "chip": "ym2612"
    },
    {
      "channel": 4,
      "note": 40,
      "start": 159.1052,
      "duration": 0.1476,
      "velocity": 89,
      "chip": "ym2612"
    },
    {
      "channel": 5,
      "note": 52,
      "start": 159.1058,
      "duration": 0.0645,
      "velocity": 116,
      "chip": "ym2612"
    },
    {
      "channel": 5,
      "note": 50,
      "start": 159.1708,
      "duration": 0.0828,
      "velocity": 116,
      "chip": "ym2612"
    },
    {
      "channel": 1,
      "note": 33,
      "start": 159.2514,
      "duration": 0.1485,
      "velocity": 117,
      "chip": "ym2612"
    },
    {
      "channel": 2,
      "note": 21,
      "start": 159.2521,
      "duration": 0.1484,
      "velocity": 87,
      "chip": "ym2612"
    },
    {
      "channel": 4,
      "note": 47,
      "start": 159.2534,
      "duration": 0.1483,
      "velocity": 89,
      "chip": "ym2612"
    },
    {
      "channel": 5,
      "note": 48,
      "start": 159.254,
      "duration": 0.0653,
      "velocity": 117,
      "chip": "ym2612"
    },
    {
      "channel": 5,
      "note": 46,
      "start": 159.3198,
      "duration": 0.0828,
      "velocity": 117,
      "chip": "ym2612"
    },
    {
      "channel": 1,
      "note": 45,
      "start": 159.4003,
      "duration": 0.1485,
      "velocity": 117,
      "chip": "ym2612"
    },
    {
      "channel": 2,
      "note": 21,
      "start": 159.4011,
      "duration": 0.1484,
      "velocity": 87,
      "chip": "ym2612"
    },
    {
      "channel": 4,
      "note": 48,
      "start": 159.4023,
      "duration": 0.1484,
      "velocity": 88,
      "chip": "ym2612"
    },
    {
      "channel": 5,
      "note": 45,
      "start": 159.4029,
      "duration": 0.0653,
      "velocity": 118,
      "chip": "ym2612"
    },
    {
      "channel": 5,
      "note": 43,
      "start": 159.4687,
      "duration": 0.0828,
      "velocity": 118,
      "chip": "ym2612"
    },
    {
      "channel": 1,
      "note": 45,
      "start": 159.5493,
      "duration": 0.1485,
      "velocity": 117,
      "chip": "ym2612"
    },
    {
      "channel": 2,
      "note": 33,
      "start": 159.5501,
      "duration": 0.1483,
      "velocity": 87,
      "chip": "ym2612"
    },
    {
      "channel": 4,
      "note": 47,
      "start": 159.5513,
      "duration": 0.1492,
      "velocity": 88,
      "chip": "ym2612"
    },
    {
      "channel": 5,
      "note": 41,
      "start": 159.5519,
      "duration": 0.0653,
      "velocity": 119,
      "chip": "ym2612"
    },
    {
      "channel": 5,
      "note": 40,
      "start": 159.6177,
      "duration": 0.0835,
      "velocity": 119,
      "chip": "ym2612"
    },
    {
      "channel": 1,
      "note": 33,
      "start": 159.6983,
      "duration": 0.1485,
      "velocity": 117,
      "chip": "ym2612"
    },
    {
      "channel": 2,
      "note": 21,
      "start": 159.6991,
      "duration": 0.2314,
      "velocity": 87,
      "chip": "ym2612"
    },
    {
      "channel": 3,
      "note": 45,
      "start": 159.7003,
      "duration": 0.2968,
      "velocity": 122,
      "chip": "ym2612"
    },
    {
      "channel": 4,
      "note": 45,
      "start": 159.701,
      "duration": 0.1475,
      "velocity": 87,
      "chip": "ym2612"
    },
    {
      "channel": 5,
      "note": 41,
      "start": 159.7017,
      "duration": 0.0646,
      "velocity": 120,
      "chip": "ym2612"
    },
    {
      "channel": 5,
      "note": 43,
      "start": 159.7667,
      "duration": 0.0826,
      "velocity": 120,
      "chip": "ym2612"
    },
    {
      "channel": 1,
      "note": 45,
      "start": 159.8473,
      "duration": 0.1485,
      "velocity": 117,
      "chip": "ym2612"
    },
    {
      "channel": 4,
      "note": 40,
      "start": 159.8491,
      "duration": 0.1492,
      "velocity": 87,
      "chip": "ym2612"
    },
    {
      "channel": 5,
      "note": 45,
      "start": 159.8498,
      "duration": 0.0654,
      "velocity": 119,
      "chip": "ym2612"
    },
    {
      "channel": 5,
      "note": 46,
      "start": 159.9157,
      "duration": 0.0835,
      "velocity": 119,
      "chip": "ym2612"
    },
    {
      "channel": 1,
      "note": 33,
      "start": 159.9962,
      "duration": 0.1485,
      "velocity": 117,
      "chip": "ym2612"
    },
    {
      "channel": 2,
      "note": 33,
      "start": 159.997,
      "duration": 0.2315,
      "velocity": 87,
      "chip": "ym2612"
    },
    {
      "channel": 3,
      "note": 84,
      "start": 159.9983,
      "duration": 0.2968,
      "velocity": 113,
      "chip": "ym2612"
    },
    {
      "channel": 4,
      "note": 43,
      "start": 159.999,
      "duration": 0.1475,
      "velocity": 88,
      "chip": "ym2612"
    },
    {
      "channel": 5,
      "note": 48,
      "start": 159.9996,
      "duration": 0.0646,
      "velocity": 118,
      "chip": "ym2612"
    },
    {
      "channel": 5,
      "note": 50,
      "start": 160.0646,
      "duration": 0.0826,
      "velocity": 118,
      "chip": "ym2612"
    },
    {
      "channel": 1,
      "note": 33,
      "start": 160.1452,
      "duration": 0.1485,
      "velocity": 117,
      "chip": "ym2612"
    },
    {
      "channel": 4,
      "note": 45,
      "start": 160.147,
      "duration": 0.1493,
      "velocity": 88,
      "chip": "ym2612"
    },
    {
      "channel": 5,
      "note": 52,
      "start": 160.1477,
      "duration": 0.0655,
      "velocity": 117,
      "chip": "ym2612"
    },
    {
      "channel": 5,
      "note": 53,
      "start": 160.2136,
      "duration": 0.0835,
      "velocity": 117,
      "chip": "ym2612"
    },
    {
      "channel": 1,
      "note": 45,
      "start": 160.2942,
      "duration": 0.1485,
      "velocity": 117,
      "chip": "ym2612"
    },
    {
      "channel": 2,
      "note": 21,
      "start": 160.2949,
      "duration": 0.2314,
      "velocity": 87,
      "chip": "ym2612"
    },
    {
      "channel": 3,
      "note": 24,
      "start": 160.2961,
      "duration": 0.2969,
      "velocity": 126,
      "chip": "ym2612"
    },
    {
      "channel": 4,
      "note": 40,
      "start": 160.2969,
      "duration": 0.1475,
      "velocity": 89,
      "chip": "ym2612"
    },
    {
      "channel": 5,
      "note": 55,
      "start": 160.2976,
      "duration": 0.0646,
      "velocity": 116,
      "chip": "ym2612"
    },
    {
      "channel": 5,
      "note": 57,
      "start": 160.3626,
      "duration": 0.0826,
      "velocity": 116,
      "chip": "ym2612"
    },
    {
      "channel": 1,
      "note": 33,
      "start": 160.4432,
      "duration": 0.1485,
      "velocity": 117,
      "chip": "ym2612"
    },
    {
      "channel": 4,
      "note": 43,
      "start": 160.445,
      "duration": 0.1493,
      "velocity": 89,
      "chip": "ym2612"
    },
    {
      "channel": 5,
      "note": 58,
      "start": 160.4456,
      "duration": 0.0654,
      "velocity": 115,
      "chip": "ym2612"
    },
    {
      "channel": 5,
      "note": 60,
      "start": 160.5115,
      "duration": 0.0835,
      "velocity": 115,
      "chip": "ym2612"
    },
    {
      "channel": 1,
      "note": 45,
      "start": 160.5921,
      "duration": 0.1485,
      "velocity": 117,
      "chip": "ym2612"
    },
    {
      "channel": 2,
      "note": 21,
      "start": 160.5929,
      "duration": 0.1483,
      "velocity": 87,
      "chip": "ym2612"
    },
    {
      "channel": 3,
      "note": 45,
      "start": 160.5941,
      "duration": 0.297,
      "velocity": 122,
      "chip": "ym2612"
    },
    {
      "channel": 4,
      "note": 45,
      "start": 160.5949,
      "duration": 0.1476,
      "velocity": 90,
      "chip": "ym2612"
    },
    {
      "channel": 5,
      "note": 62,
      "start": 160.5955,
      "duration": 0.0646,
      "velocity": 114,
      "chip": "ym2612"
    },
    {
      "channel": 5,
      "note": 64,
      "start": 160.6605,
      "duration": 0.0828,
      "velocity": 114,
      "chip": "ym2612"
    },
    {
      "channel": 1,
      "note": 33,
      "start": 160.7411,
      "duration": 0.1485,
      "velocity": 117,
      "chip": "ym2612"
    },
    {
      "channel": 2,
      "note": 33,
      "start": 160.7419,
      "duration": 0.1484,
      "velocity": 87,
      "chip": "ym2612"
    },
    {
      "channel": 4,
      "note": 40,
      "start": 160.7431,
      "duration": 0.1486,
      "velocity": 90,
      "chip": "ym2612"
    },
    {
      "channel": 5,
      "note": 65,
      "start": 160.7437,
      "duration": 0.0654,
      "velocity": 113,
      "chip": "ym2612"
    },
    {
      "channel": 5,
      "note": 67,
      "start": 160.8095,
      "duration": 0.0829,
      "velocity": 113,
      "chip": "ym2612"
    },
    {
      "channel": 1,
      "note": 33,
      "start": 160.8901,
      "duration": 0.1485,
      "velocity": 117,
      "chip": "ym2612"
    },
    {
      "channel": 2,
      "note": 21,
      "start": 160.8909,
      "duration": 0.1484,
      "velocity": 87,
      "chip": "ym2612"
    },
    {
      "channel": 3,
      "note": 45,
      "start": 160.8915,
      "duration": 0.5954,
      "velocity": 122,
      "chip": "ym2612"
    },
    {
      "channel": 4,
      "note": 43,
      "start": 160.8923,
      "duration": 0.1482,
      "velocity": 91,
      "chip": "ym2612"
    },
    {
      "channel": 5,
      "note": 69,
      "start": 160.8929,
      "duration": 0.0651,
      "velocity": 112,
      "chip": "ym2612"
    },
    {
      "channel": 5,
      "note": 70,
      "start": 160.9585,
      "duration": 0.0828,
      "velocity": 112,
      "chip": "ym2612"
    },
    {
      "channel": 1,
      "note": 45,
      "start": 161.039,
      "duration": 0.1485,
      "velocity": 117,
      "chip": "ym2612"
    },
    {
      "channel": 2,
      "note": 33,
      "start": 161.0398,
      "duration": 0.2314,
      "velocity": 87,
      "chip": "ym2612"
    },
    {
      "channel": 4,
      "note": 45,
      "start": 161.0411,
      "duration": 0.1482,
      "velocity": 91,
      "chip": "ym2612"
    },
    {
      "channel": 5,
      "note": 72,
      "start": 161.0418,
      "duration": 0.0653,
      "velocity": 113,
      "chip": "ym2612"
    },
    {
      "channel": 5,
      "note": 74,
      "start": 161.1075,
      "duration": 0.0826,
      "velocity": 113,
      "chip": "ym2612"
    },
    {
      "channel": 1,
      "note": 33,
      "start": 161.188,
      "duration": 0.1485,
      "velocity": 117,
      "chip": "ym2612"
    },
    {
      "channel": 4,
      "note": 47,
      "start": 161.1899,
      "duration": 0.1485,
      "velocity": 92,
      "chip": "ym2612"
    },
    {
      "channel": 5,
      "note": 76,
      "start": 161.1905,
      "duration": 0.0655,
      "velocity": 114,
      "chip": "ym2612"
    },
    {
      "channel": 5,
      "note": 77,
      "start": 161.2565,
      "duration": 0.0827,
      "velocity": 114,
      "chip": "ym2612"
    },
    {
      "channel": 1,
      "note": 45,
      "start": 161.337,
      "duration": 0.1485,
      "velocity": 117,
      "chip": "ym2612"
    },
    {
      "channel": 2,
      "note": 21,
      "start": 161.3378,
      "duration": 0.1484,
      "velocity": 87,
      "chip": "ym2612"
    },
    {
      "channel": 4,
      "note": 48,
      "start": 161.339,
      "duration": 0.1492,
      "velocity": 92,
      "chip": "ym2612"
    },
    {
      "channel": 5,
      "note": 79,
      "start": 161.3397,
      "duration": 0.0653,
      "velocity": 115,
      "chip": "ym2612"
    },
    {
      "channel": 5,
      "note": 81,
      "start": 161.4054,
      "duration": 0.0835,
      "velocity": 115,
      "chip": "ym2612"
    },
    {
      "channel": 1,
      "note": 33,
      "start": 161.486,
      "duration": 0.1485,
      "velocity": 117,
      "chip": "ym2612"
    },
    {
      "channel": 2,
      "note": 33,
      "start": 161.4867,
      "duration": 0.1483,
      "velocity": 87,
      "chip": "ym2612"
    },
    {
      "channel": 3,
      "note": 21,
      "start": 161.4879,
      "duration": 0.2969,
      "velocity": 126,
      "chip": "ym2612"
    },
    {
      "channel": 4,
      "note": 50,
      "start": 161.4887,
      "duration": 0.1476,
      "velocity": 93,
      "chip": "ym2612"
    },
    {
      "channel": 5,
      "note": 82,
      "start": 161.4894,
      "duration": 0.0645,
      "velocity": 116,
      "chip": "ym2612"
    },
    {
      "channel": 5,
      "note": 84,
      "start": 161.5544,
      "duration": 0.0828,
      "velocity": 116,
      "chip": "ym2612"
    },
    {
      "channel": 1,
      "note": 33,
      "start": 161.6349,
      "duration": 0.1485,
      "velocity": 117,
      "chip": "ym2612"
    },
    {
      "channel": 2,
      "note": 21,
      "start": 161.6357,
      "duration": 0.1483,
      "velocity": 87,
      "chip": "ym2612"
    },
    {
      "channel": 4,
      "note": 48,
      "start": 161.6369,
      "duration": 0.1485,
      "velocity": 93,
      "chip": "ym2612"
    },
    {
      "channel": 5,
      "note": 86,
      "start": 161.6376,
      "duration": 0.0653,
      "velocity": 117,
      "chip": "ym2612"
    },
    {
      "channel": 5,
      "note": 88,
      "start": 161.7033,
      "duration": 0.0829,
      "velocity": 117,
      "chip": "ym2612"
    },
    {
      "channel": 1,
      "note": 45,
      "start": 161.7839,
      "duration": 0.1485,
      "velocity": 117,
      "chip": "ym2612"
    },
    {
      "channel": 2,
      "note": 33,
      "start": 161.7847,
      "duration": 0.1483,
      "velocity": 87,
      "chip": "ym2612"
    },
    {
      "channel": 3,
      "note": 21,
      "start": 161.7853,
      "duration": 0.2976,
      "velocity": 126,
      "chip": "ym2612"
    },
    {
      "channel": 4,
      "note": 47,
      "start": 161.7861,
      "duration": 0.1482,
      "velocity": 94,
      "chip": "ym2612"
    },
    {
      "channel": 5,
      "note": 89,
      "start": 161.7867,
      "duration": 0.0651,
      "velocity": 118,
      "chip": "ym2612"
    },
    {
      "channel": 5,
      "note": 91,
      "start": 161.8523,
      "duration": 0.0828,
      "velocity": 118,
      "chip": "ym2612"
    },
    {
      "channel": 1,
      "note": 33,
      "start": 161.9329,
      "duration": 0.1487,
      "velocity": 117,
      "chip": "ym2612"
    },
    {
      "channel": 2,
      "note": 21,
      "start": 161.9336,
      "duration": 0.0825,
      "velocity": 87,
      "chip": "ym2612"
    },
    {
      "channel": 4,
      "note": 40,
      "start": 161.9349,
      "duration": 0.1493,
      "velocity": 94,
      "chip": "ym2612"
    },
    {
      "channel": 5,
      "note": 93,
      "start": 161.9355,
      "duration": 0.0653,
      "velocity": 119,
      "chip": "ym2612"
    },
    {
      "channel": 5,
      "note": 94,
      "start": 162.0013,
      "duration": 0.0837,
      "velocity": 119,
      "chip": "ym2612"
    },
    {
      "channel": 0,
      "note": 21,
      "start": 162.0814,
      "duration": 4.7008,
      "velocity": 124,
      "chip": "ym2612"
    },
    {
      "channel": 1,
      "note": 33,
      "start": 162.082,
      "duration": 0.1483,
      "velocity": 117,
      "chip": "ym2612"
    },
    {
      "channel": 2,
      "note": 21,
      "start": 162.0828,
      "duration": 0.2312,
      "velocity": 87,
      "chip": "ym2612"
    },
    {
      "channel": 3,
      "note": 45,
      "start": 162.084,
      "duration": 0.2967,
      "velocity": 122,
      "chip": "ym2612"
    },
    {
      "channel": 4,
      "note": 45,
      "start": 162.0848,
      "duration": 0.1473,
      "velocity": 95,
      "chip": "ym2612"
    },
    {
      "channel": 5,
      "note": 41,
      "start": 162.0854,
      "duration": 0.0644,
      "velocity": 120,
      "chip": "ym2612"
    },
    {
      "channel": 5,
      "note": 43,
      "start": 162.1502,
      "duration": 0.0826,
      "velocity": 120,
      "chip": "ym2612"
    },
    {
      "channel": 1,
      "note": 45,
      "start": 162.2308,
      "duration": 0.1485,
      "velocity": 117,
      "chip": "ym2612"
    },
    {
      "channel": 4,
      "note": 40,
      "start": 162.2327,
      "duration": 0.1493,
      "velocity": 95,
      "chip": "ym2612"
    },
    {
      "channel": 5,
      "note": 45,
      "start": 162.2333,
      "duration": 0.0655,
      "velocity": 119,
      "chip": "ym2612"
    },
    {
      "channel": 5,
      "note": 46,
      "start": 162.2992,
      "duration": 0.0835,
      "velocity": 119,
      "chip": "ym2612"
    },
    {
      "channel": 1,
      "note": 33,
      "start": 162.3798,
      "duration": 0.1485,
      "velocity": 117,
      "chip": "ym2612"
    },
    {
      "channel": 2,
      "note": 33,
      "start": 162.3806,
      "duration": 0.1484,
      "velocity": 87,
      "chip": "ym2612"
    },
    {
      "channel": 3,
      "note": 72,
      "start": 162.3818,
      "duration": 0.2969,
      "velocity": 113,
      "chip": "ym2612"
    },
    {
      "channel": 4,
      "note": 43,
      "start": 162.3825,
      "duration": 0.1476,
      "velocity": 94,
      "chip": "ym2612"
    },
    {
      "channel": 5,
      "note": 48,
      "start": 162.3832,
      "duration": 0.0646,
      "velocity": 118,
      "chip": "ym2612"
    },
    {
      "channel": 5,
      "note": 50,
      "start": 162.4482,
      "duration": 0.0828,
      "velocity": 118,
      "chip": "ym2612"
    },
    {
      "channel": 1,
      "note": 33,
      "start": 162.5288,
      "duration": 0.1485,
      "velocity": 117,
      "chip": "ym2612"
    },
    {
      "channel": 2,
      "note": 21,
      "start": 162.5295,
      "duration": 0.1483,
      "velocity": 87,
      "chip": "ym2612"
    },
    {
      "channel": 4,
      "note": 45,
      "start": 162.5307,
      "duration": 0.1492,
      "velocity": 94,
      "chip": "ym2612"
    },
    {
      "channel": 5,
      "note": 52,
      "start": 162.5314,
      "duration": 0.0653,
      "velocity": 117,
      "chip": "ym2612"
    },
    {
      "channel": 5,
      "note": 53,
      "start": 162.5972,
      "duration": 0.0835,
      "velocity": 117,
      "chip": "ym2612"
    },
    {
      "channel": 1,
      "note": 45,
      "start": 162.6778,
      "duration": 0.1485,
      "velocity": 117,
      "chip": "ym2612"
    },
    {
      "channel": 2,
      "note": 33,
      "start": 162.6785,
      "duration": 0.2314,
      "velocity": 87,
      "chip": "ym2612"
    },
    {
      "channel": 3,
      "note": 24,
      "start": 162.6797,
      "duration": 0.2969,
      "velocity": 126,
      "chip": "ym2612"
    },
    {
      "channel": 4,
      "note": 40,
      "start": 162.6805,
      "duration": 0.1475,
      "velocity": 93,
      "chip": "ym2612"
    },
    {
      "channel": 5,
      "note": 55,
      "start": 162.6811,
      "duration": 0.0646,
      "velocity": 116,
      "chip": "ym2612"
    },
    {
      "channel": 5,
      "note": 57,
      "start": 162.7461,
      "duration": 0.0826,
      "velocity": 116,
      "chip": "ym2612"
    },
    {
      "channel": 1,
      "note": 33,
      "start": 162.8267,
      "duration": 0.1485,
      "velocity": 117,
      "chip": "ym2612"
    },
    {
      "channel": 4,
      "note": 43,
      "start": 162.8286,
      "duration": 0.1492,
      "velocity": 93,
      "chip": "ym2612"
    },
    {
      "channel": 5,
      "note": 58,
      "start": 162.8292,
      "duration": 0.0654,
      "velocity": 115,
      "chip": "ym2612"
    },
    {
      "channel": 5,
      "note": 60,
      "start": 162.8951,
      "duration": 0.0835,
      "velocity": 115,
      "chip": "ym2612"
    },
    {
      "channel": 1,
      "note": 33,
      "start": 162.9757,
      "duration": 0.1485,
      "velocity": 117,
      "chip": "ym2612"
    },
    {
      "channel": 2,
      "note": 21,
      "start": 162.9764,
      "duration": 0.1484,
      "velocity": 87,
      "chip": "ym2612"
    },
    {
      "channel": 3,
      "note": 45,
      "start": 162.9777,
      "duration": 0.2969,
      "velocity": 122,
      "chip": "ym2612"
    },
    {
      "channel": 4,
      "note": 45,
      "start": 162.9785,
      "duration": 0.1476,
      "velocity": 92,
      "chip": "ym2612"
    },
    {
      "channel": 5,
      "note": 62,
      "start": 162.9791,
      "duration": 0.0645,
      "velocity": 114,
      "chip": "ym2612"
    },
    {
      "channel": 5,
      "note": 64,
      "start": 163.0441,
      "duration": 0.0827,
      "velocity": 114,
      "chip": "ym2612"
    },
    {
      "channel": 1,
      "note": 45,
      "start": 163.1246,
      "duration": 0.1485,
      "velocity": 117,
      "chip": "ym2612"
    },
    {
      "channel": 2,
      "note": 33,
      "start": 163.1254,
      "duration": 0.1484,
      "velocity": 87,
      "chip": "ym2612"
    },
    {
      "channel": 4,
      "note": 40,
      "start": 163.1267,
      "duration": 0.1486,
      "velocity": 92,
      "chip": "ym2612"
    },
    {
      "channel": 5,
      "note": 65,
      "start": 163.1273,
      "duration": 0.0653,
      "velocity": 113,
      "chip": "ym2612"
    },
    {
      "channel": 5,
      "note": 67,
      "start": 163.193,
      "duration": 0.083,
      "velocity": 113,
      "chip": "ym2612"
    },
    {
      "channel": 1,
      "note": 33,
      "start": 163.2737,
      "duration": 0.1485,
      "velocity": 117,
      "chip": "ym2612"
    },
    {
      "channel": 2,
      "note": 21,
      "start": 163.2744,
      "duration": 0.1484,
      "velocity": 87,
      "chip": "ym2612"
    },
    {
      "channel": 3,
      "note": 45,
      "start": 163.2751,
      "duration": 0.5954,
      "velocity": 122,
      "chip": "ym2612"
    },
    {
      "channel": 4,
      "note": 45,
      "start": 163.2759,
      "duration": 0.1482,
      "velocity": 91,
      "chip": "ym2612"
    },
    {
      "channel": 5,
      "note": 69,
      "start": 163.2765,
      "duration": 0.0651,
      "velocity": 112,
      "chip": "ym2612"
    },
    {
      "channel": 5,
      "note": 70,
      "start": 163.3421,
      "duration": 0.0827,
      "velocity": 112,
      "chip": "ym2612"
    },
    {
      "channel": 1,
      "note": 45,
      "start": 163.4227,
      "duration": 0.1484,
      "velocity": 117,
      "chip": "ym2612"
    },
    {
      "channel": 2,
      "note": 21,
      "start": 163.4234,
      "duration": 0.1483,
      "velocity": 87,
      "chip": "ym2612"
    },
    {
      "channel": 4,
      "note": 40,
      "start": 163.4246,
      "duration": 0.1484,
      "velocity": 91,
      "chip": "ym2612"
    },
    {
      "channel": 5,
      "note": 72,
      "start": 163.4253,
      "duration": 0.0653,
      "velocity": 113,
      "chip": "ym2612"
    },
    {
      "channel": 5,
      "note": 74,
      "start": 163.4911,
      "duration": 0.0827,
      "velocity": 113,
      "chip": "ym2612"
    },
    {
      "channel": 1,
      "note": 33,
      "start": 163.5716,
      "duration": 0.1485,
      "velocity": 117,
      "chip": "ym2612"
    },
    {
      "channel": 2,
      "note": 33,
      "start": 163.5724,
      "duration": 0.1483,
      "velocity": 87,
      "chip": "ym2612"
    },
    {
      "channel": 4,
      "note": 43,
      "start": 163.5736,
      "duration": 0.1483,
      "velocity": 90,
      "chip": "ym2612"
    },
    {
      "channel": 5,
      "note": 76,
      "start": 163.5743,
      "duration": 0.0653,
      "velocity": 114,
      "chip": "ym2612"
    },
    {
      "channel": 5,
      "note": 77,
      "start": 163.64,
      "duration": 0.0828,
      "velocity": 114,
      "chip": "ym2612"
    },
    {
      "channel": 1,
      "note": 33,
      "start": 163.7206,
      "duration": 0.1485,
      "velocity": 117,
      "chip": "ym2612"
    },
    {
      "channel": 2,
      "note": 21,
      "start": 163.7213,
      "duration": 0.1483,
      "velocity": 87,
      "chip": "ym2612"
    },
    {
      "channel": 4,
      "note": 45,
      "start": 163.7226,
      "duration": 0.149,
      "velocity": 90,
      "chip": "ym2612"
    },
    {
      "channel": 5,
      "note": 79,
      "start": 163.7232,
      "duration": 0.0653,
      "velocity": 115,
      "chip": "ym2612"
    },
    {
      "channel": 5,
      "note": 81,
      "start": 163.789,
      "duration": 0.0835,
      "velocity": 115,
      "chip": "ym2612"
    },
    {
      "channel": 1,
      "note": 45,
      "start": 163.8695,
      "duration": 0.1485,
      "velocity": 117,
      "chip": "ym2612"
    },
    {
      "channel": 2,
      "note": 33,
      "start": 163.8702,
      "duration": 0.1484,
      "velocity": 87,
      "chip": "ym2612"
    },
    {
      "channel": 3,
      "note": 24,
      "start": 163.8715,
      "duration": 0.5948,
      "velocity": 126,
      "chip": "ym2612"
    },
    {
      "channel": 4,
      "note": 40,
      "start": 163.8723,
      "duration": 0.1476,
      "velocity": 89,
      "chip": "ym2612"
    },
    {
      "channel": 5,
      "note": 82,
      "start": 163.8729,
      "duration": 0.0645,
      "velocity": 116,
      "chip": "ym2612"
    },
    {
      "channel": 5,
      "note": 84,
      "start": 163.9379,
      "duration": 0.0828,
      "velocity": 116,
      "chip": "ym2612"
    },
    {
      "channel": 1,
      "note": 33,
      "start": 164.0185,
      "duration": 0.1485,
      "velocity": 117,
      "chip": "ym2612"
    },
    {
      "channel": 2,
      "note": 21,
      "start": 164.0192,
      "duration": 0.1484,
      "velocity": 87,
      "chip": "ym2612"
    },
    {
      "channel": 4,
      "note": 47,
      "start": 164.0205,
      "duration": 0.1483,
      "velocity": 89,
      "chip": "ym2612"
    },
    {
      "channel": 5,
      "note": 86,
      "start": 164.0212,
      "duration": 0.0653,
      "velocity": 117,
      "chip": "ym2612"
    },
    {
      "channel": 5,
      "note": 88,
      "start": 164.0869,
      "duration": 0.0827,
      "velocity": 117,
      "chip": "ym2612"
    },
    {
      "channel": 1,
      "note": 45,
      "start": 164.1675,
      "duration": 0.1485,
      "velocity": 117,
      "chip": "ym2612"
    },
    {
      "channel": 2,
      "note": 21,
      "start": 164.1682,
      "duration": 0.1484,
      "velocity": 87,
      "chip": "ym2612"
    },
    {
      "channel": 4,
      "note": 48,
      "start": 164.1694,
      "duration": 0.1484,
      "velocity": 88,
      "chip": "ym2612"
    },
    {
      "channel": 5,
      "note": 89,
      "start": 164.1701,
      "duration": 0.0653,
      "velocity": 118,
      "chip": "ym2612"
    },
    {
      "channel": 5,
      "note": 91,
      "start": 164.2359,
      "duration": 0.0827,
      "velocity": 118,
      "chip": "ym2612"
    },
    {
      "channel": 1,
      "note": 45,
      "start": 164.3164,
      "duration": 0.1485,
      "velocity": 117,
      "chip": "ym2612"
    },
    {
      "channel": 2,
      "note": 33,
      "start": 164.3172,
      "duration": 0.1484,
      "velocity": 87,
      "chip": "ym2612"
    },
    {
      "channel": 4,
      "note": 47,
      "start": 164.3184,
      "duration": 0.1492,
      "velocity": 88,
      "chip": "ym2612"
    },
    {
      "channel": 5,
      "note": 93,
      "start": 164.319,
      "duration": 0.0653,
      "velocity": 119,
      "chip": "ym2612"
    },
    {
      "channel": 5,
      "note": 94,
      "start": 164.3848,
      "duration": 0.0835,
      "velocity": 119,
      "chip": "ym2612"
    },
    {
      "channel": 1,
      "note": 33,
      "start": 164.4654,
      "duration": 0.1485,
      "velocity": 117,
      "chip": "ym2612"
    },
    {
      "channel": 2,
      "note": 21,
      "start": 164.4662,
      "duration": 0.2314,
      "velocity": 87,
      "chip": "ym2612"
    },
    {
      "channel": 3,
      "note": 45,
      "start": 164.4674,
      "duration": 0.2969,
      "velocity": 122,
      "chip": "ym2612"
    },
    {
      "channel": 4,
      "note": 45,
      "start": 164.4682,
      "duration": 0.1475,
      "velocity": 87,
      "chip": "ym2612"
    },
    {
      "channel": 5,
      "note": 93,
      "start": 164.4688,
      "duration": 0.0646,
      "velocity": 120,
      "chip": "ym2612"
    },
    {
      "channel": 5,
      "note": 91,
      "start": 164.5338,
      "duration": 0.0826,
      "velocity": 120,
      "chip": "ym2612"
    },
    {
      "channel": 1,
      "note": 45,
      "start": 164.6144,
      "duration": 0.1485,
      "velocity": 117,
      "chip": "ym2612"
    },
    {
      "channel": 4,
      "note": 40,
      "start": 164.6163,
      "duration": 0.1493,
      "velocity": 87,
      "chip": "ym2612"
    },
    {
      "channel": 5,
      "note": 89,
      "start": 164.6169,
      "duration": 0.0654,
      "velocity": 119,
      "chip": "ym2612"
    },
    {
      "channel": 5,
      "note": 88,
      "start": 164.6828,
      "duration": 0.0835,
      "velocity": 119,
      "chip": "ym2612"
    },
    {
      "channel": 1,
      "note": 33,
      "start": 164.7634,
      "duration": 0.1485,
      "velocity": 117,
      "chip": "ym2612"
    },
    {
      "channel": 2,
      "note": 33,
      "start": 164.7641,
      "duration": 0.2314,
      "velocity": 87,
      "chip": "ym2612"
    },
    {
      "channel": 3,
      "note": 84,
      "start": 164.7654,
      "duration": 0.2968,
      "velocity": 113,
      "chip": "ym2612"
    },
    {
      "channel": 4,
      "note": 43,
      "start": 164.7661,
      "duration": 0.1475,
      "velocity": 88,
      "chip": "ym2612"
    },
    {
      "channel": 5,
      "note": 86,
      "start": 164.7668,
      "duration": 0.0645,
      "velocity": 118,
      "chip": "ym2612"
    },
    {
      "channel": 5,
      "note": 84,
      "start": 164.8318,
      "duration": 0.0826,
      "velocity": 118,
      "chip": "ym2612"
    },
    {
      "channel": 1,
      "note": 33,
      "start": 164.9123,
      "duration": 0.1485,
      "velocity": 117,
      "chip": "ym2612"
    },
    {
      "channel": 4,
      "note": 45,
      "start": 164.9142,
      "duration": 0.1492,
      "velocity": 88,
      "chip": "ym2612"
    },
    {
      "channel": 5,
      "note": 82,
      "start": 164.9148,
      "duration": 0.0655,
      "velocity": 117,
      "chip": "ym2612"
    },
    {
      "channel": 5,
      "note": 81,
      "start": 164.9807,
      "duration": 0.0835,
      "velocity": 117,
      "chip": "ym2612"
    },
    {
      "channel": 1,
      "note": 45,
      "start": 165.0613,
      "duration": 0.1485,
      "velocity": 117,
      "chip": "ym2612"
    },
    {
      "channel": 2,
      "note": 21,
      "start": 165.062,
      "duration": 0.2314,
      "velocity": 87,
      "chip": "ym2612"
    },
    {
      "channel": 3,
      "note": 24,
      "start": 165.0633,
      "duration": 0.2968,
      "velocity": 126,
      "chip": "ym2612"
    },
    {
      "channel": 4,
      "note": 40,
      "start": 165.0641,
      "duration": 0.1475,
      "velocity": 89,
      "chip": "ym2612"
    },
    {
      "channel": 5,
      "note": 79,
      "start": 165.0646,
      "duration": 0.0646,
      "velocity": 116,
      "chip": "ym2612"
    },
    {
      "channel": 5,
      "note": 77,
      "start": 165.1297,
      "duration": 0.0826,
      "velocity": 116,
      "chip": "ym2612"
    },
    {
      "channel": 1,
      "note": 33,
      "start": 165.2103,
      "duration": 0.1485,
      "velocity": 117,
      "chip": "ym2612"
    },
    {
      "channel": 4,
      "note": 43,
      "start": 165.2121,
      "duration": 0.1493,
      "velocity": 89,
      "chip": "ym2612"
    },
    {
      "channel": 5,
      "note": 76,
      "start": 165.2127,
      "duration": 0.0655,
      "velocity": 115,
      "chip": "ym2612"
    },
    {
      "channel": 5,
      "note": 74,
      "start": 165.2787,
      "duration": 0.0835,
      "velocity": 115,
      "chip": "ym2612"
    },
    {
      "channel": 1,
      "note": 45,
      "start": 165.3593,
      "duration": 0.1485,
      "velocity": 117,
      "chip": "ym2612"
    },
    {
      "channel": 2,
      "note": 21,
      "start": 165.36,
      "duration": 0.1483,
      "velocity": 87,
      "chip": "ym2612"
    },
    {
      "channel": 3,
      "note": 45,
      "start": 165.3612,
      "duration": 0.2969,
      "velocity": 122,
      "chip": "ym2612"
    },
    {
      "channel": 4,
      "note": 45,
      "start": 165.362,
      "duration": 0.1476,
      "velocity": 90,
      "chip": "ym2612"
    },
    {
      "channel": 5,
      "note": 72,
      "start": 165.3626,
      "duration": 0.0646,
      "velocity": 114,
      "chip": "ym2612"
    },
    {
      "channel": 5,
      "note": 70,
      "start": 165.4276,
      "duration": 0.0827,
      "velocity": 114,
      "chip": "ym2612"
    },
    {
      "channel": 1,
      "note": 33,
      "start": 165.5082,
      "duration": 0.1485,
      "velocity": 117,
      "chip": "ym2612"
    },
    {
      "channel": 2,
      "note": 33,
      "start": 165.509,
      "duration": 0.1484,
      "velocity": 87,
      "chip": "ym2612"
    },
    {
      "channel": 4,
      "note": 40,
      "start": 165.5102,
      "duration": 0.1486,
      "velocity": 90,
      "chip": "ym2612"
    },
    {
      "channel": 5,
      "note": 69,
      "start": 165.5108,
      "duration": 0.0653,
      "velocity": 113,
      "chip": "ym2612"
    },
    {
      "channel": 5,
      "note": 67,
      "start": 165.5766,
      "duration": 0.0829,
      "velocity": 113,
      "chip": "ym2612"
    },
    {
      "channel": 1,
      "note": 33,
      "start": 165.6572,
      "duration": 0.1485,
      "velocity": 117,
      "chip": "ym2612"
    },
    {
      "channel": 2,
      "note": 21,
      "start": 165.658,
      "duration": 0.1484,
      "velocity": 87,
      "chip": "ym2612"
    },
    {
      "channel": 3,
      "note": 45,
      "start": 165.6586,
      "duration": 0.5954,
      "velocity": 122,
      "chip": "ym2612"
    },
    {
      "channel": 4,
      "note": 43,
      "start": 165.6594,
      "duration": 0.1483,
      "velocity": 91,
      "chip": "ym2612"
    },
    {
      "channel": 5,
      "note": 65,
      "start": 165.66,
      "duration": 0.0651,
      "velocity": 112,
      "chip": "ym2612"
    },
    {
      "channel": 5,
      "note": 64,
      "start": 165.7257,
      "duration": 0.0828,
      "velocity": 112,
      "chip": "ym2612"
    },
    {
      "channel": 1,
      "note": 45,
      "start": 165.8062,
      "duration": 0.1485,
      "velocity": 117,
      "chip": "ym2612"
    },
    {
      "channel": 2,
      "note": 33,
      "start": 165.807,
      "duration": 0.2314,
      "velocity": 87,
      "chip": "ym2612"
    },
    {
      "channel": 4,
      "note": 45,
      "start": 165.8082,
      "duration": 0.1482,
      "velocity": 91,
      "chip": "ym2612"
    },
    {
      "channel": 5,
      "note": 62,
      "start": 165.8089,
      "duration": 0.0653,
      "velocity": 113,
      "chip": "ym2612"
    },
    {
      "channel": 5,
      "note": 60,
      "start": 165.8746,
      "duration": 0.0826,
      "velocity": 113,
      "chip": "ym2612"
    },
    {
      "channel": 1,
      "note": 33,
      "start": 165.9551,
      "duration": 0.1485,
      "velocity": 117,
      "chip": "ym2612"
    },
    {
      "channel": 4,
      "note": 47,
      "start": 165.957,
      "duration": 0.1485,
      "velocity": 92,
      "chip": "ym2612"
    },
    {
      "channel": 5,
      "note": 58,
      "start": 165.9577,
      "duration": 0.0655,
      "velocity": 114,
      "chip": "ym2612"
    },
    {
      "channel": 5,
      "note": 57,
      "start": 166.0236,
      "duration": 0.0828,
      "velocity": 114,
      "chip": "ym2612"
    },
    {
      "channel": 1,
      "note": 45,
      "start": 166.1041,
      "duration": 0.1485,
      "velocity": 117,
      "chip": "ym2612"
    },
    {
      "channel": 2,
      "note": 21,
      "start": 166.1049,
      "duration": 0.1484,
      "velocity": 87,
      "chip": "ym2612"
    },
    {
      "channel": 4,
      "note": 48,
      "start": 166.1061,
      "duration": 0.1491,
      "velocity": 92,
      "chip": "ym2612"
    },
    {
      "channel": 5,
      "note": 55,
      "start": 166.1068,
      "duration": 0.0653,
      "velocity": 115,
      "chip": "ym2612"
    },
    {
      "channel": 5,
      "note": 53,
      "start": 166.1725,
      "duration": 0.0836,
      "velocity": 115,
      "chip": "ym2612"
    },
    {
      "channel": 1,
      "note": 33,
      "start": 166.2531,
      "duration": 0.1485,
      "velocity": 117,
      "chip": "ym2612"
    },
    {
      "channel": 2,
      "note": 33,
      "start": 166.2539,
      "duration": 0.1484,
      "velocity": 87,
      "chip": "ym2612"
    },
    {
      "channel": 3,
      "note": 21,
      "start": 166.2551,
      "duration": 0.595,
      "velocity": 126,
      "chip": "ym2612"
    },
    {
      "channel": 4,
      "note": 50,
      "start": 166.2558,
      "duration": 0.1476,
      "velocity": 93,
      "chip": "ym2612"
    },
    {
      "channel": 5,
      "note": 52,
      "start": 166.2565,
      "duration": 0.0645,
      "velocity": 116,
      "chip": "ym2612"
    },
    {
      "channel": 5,
      "note": 50,
      "start": 166.3215,
      "duration": 0.0827,
      "velocity": 116,
      "chip": "ym2612"
    },
    {
      "channel": 1,
      "note": 33,
      "start": 166.4021,
      "duration": 0.1485,
      "velocity": 117,
      "chip": "ym2612"
    },
    {
      "channel": 2,
      "note": 21,
      "start": 166.4028,
      "duration": 0.1483,
      "velocity": 87,
      "chip": "ym2612"
    },
    {
      "channel": 4,
      "note": 48,
      "start": 166.404,
      "duration": 0.1484,
      "velocity": 93,
      "chip": "ym2612"
    },
    {
      "channel": 5,
      "note": 48,
      "start": 166.4047,
      "duration": 0.0653,
      "velocity": 117,
      "chip": "ym2612"
    },
    {
      "channel": 5,
      "note": 46,
      "start": 166.4705,
      "duration": 0.0827,
      "velocity": 117,
      "chip": "ym2612"
    },
    {
      "channel": 1,
      "note": 45,
      "start": 166.551,
      "duration": 0.1485,
      "velocity": 117,
      "chip": "ym2612"
    },
    {
      "channel": 2,
      "note": 33,
      "start": 166.5518,
      "duration": 0.1483,
      "velocity": 87,
      "chip": "ym2612"
    },
    {
      "channel": 4,
      "note": 47,
      "start": 166.553,
      "duration": 0.1484,
      "velocity": 94,
      "chip": "ym2612"
    },
    {
      "channel": 5,
      "note": 45,
      "start": 166.5537,
      "duration": 0.0653,
      "velocity": 118,
      "chip": "ym2612"
    },
    {
      "channel": 5,
      "note": 43,
      "start": 166.6194,
      "duration": 0.0828,
      "velocity": 118,
      "chip": "ym2612"
    },
    {
      "channel": 1,
      "note": 33,
      "start": 166.7,
      "duration": 0.1487,
      "velocity": 117,
      "chip": "ym2612"
    },
    {
      "channel": 2,
      "note": 21,
      "start": 166.7008,
      "duration": 0.0824,
      "velocity": 87,
      "chip": "ym2612"
    },
    {
      "channel": 4,
      "note": 40,
      "start": 166.702,
      "duration": 0.1493,
      "velocity": 94,
      "chip": "ym2612"
    },
    {
      "channel": 5,
      "note": 41,
      "start": 166.7026,
      "duration": 0.0653,
      "velocity": 119,
      "chip": "ym2612"
    },
    {
      "channel": 5,
      "note": 40,
      "start": 166.7684,
      "duration": 0.0837,
      "velocity": 119,
      "chip": "ym2612"
    },
    {
      "channel": 0,
      "note": 21,
      "start": 166.8485,
      "duration": 4.7008,
      "velocity": 124,
      "chip": "ym2612"
    },
    {
      "channel": 1,
      "note": 33,
      "start": 166.8491,
      "duration": 0.1483,
      "velocity": 117,
      "chip": "ym2612"
    },
    {
      "channel": 2,
      "note": 21,
      "start": 166.8499,
      "duration": 0.2313,
      "velocity": 87,
      "chip": "ym2612"
    },
    {
      "channel": 3,
      "note": 45,
      "start": 166.8511,
      "duration": 0.2967,
      "velocity": 122,
      "chip": "ym2612"
    },
    {
      "channel": 4,
      "note": 45,
      "start": 166.8519,
      "duration": 0.1473,
      "velocity": 95,
      "chip": "ym2612"
    },
    {
      "channel": 5,
      "note": 41,
      "start": 166.8525,
      "duration": 0.0644,
      "velocity": 120,
      "chip": "ym2612"
    },
    {
      "channel": 5,
      "note": 43,
      "start": 166.9173,
      "duration": 0.0826,
      "velocity": 120,
      "chip": "ym2612"
    },
    {
      "channel": 1,
      "note": 45,
      "start": 166.9979,
      "duration": 0.1485,
      "velocity": 117,
      "chip": "ym2612"
    },
    {
      "channel": 4,
      "note": 40,
      "start": 166.9998,
      "duration": 0.1493,
      "velocity": 95,
      "chip": "ym2612"
    },
    {
      "channel": 5,
      "note": 45,
      "start": 167.0004,
      "duration": 0.0655,
      "velocity": 119,
      "chip": "ym2612"
    },
    {
      "channel": 5,
      "note": 46,
      "start": 167.0663,
      "duration": 0.0835,
      "velocity": 119,
      "chip": "ym2612"
    },
    {
      "channel": 1,
      "note": 33,
      "start": 167.1469,
      "duration": 0.1485,
      "velocity": 117,
      "chip": "ym2612"
    },
    {
      "channel": 2,
      "note": 33,
      "start": 167.1477,
      "duration": 0.1484,
      "velocity": 87,
      "chip": "ym2612"
    },
    {
      "channel": 3,
      "note": 72,
      "start": 167.1489,
      "duration": 0.2969,
      "velocity": 113,
      "chip": "ym2612"
    },
    {
      "channel": 4,
      "note": 43,
      "start": 167.1496,
      "duration": 0.1477,
      "velocity": 94,
      "chip": "ym2612"
    },
    {
      "channel": 5,
      "note": 48,
      "start": 167.1503,
      "duration": 0.0646,
      "velocity": 118,
      "chip": "ym2612"
    },
    {
      "channel": 5,
      "note": 50,
      "start": 167.2153,
      "duration": 0.0828,
      "velocity": 118,
      "chip": "ym2612"
    },
    {
      "channel": 1,
      "note": 33,
      "start": 167.2959,
      "duration": 0.1485,
      "velocity": 117,
      "chip": "ym2612"
    },
    {
      "channel": 2,
      "note": 21,
      "start": 167.2967,
      "duration": 0.1483,
      "velocity": 87,
      "chip": "ym2612"
    },
    {
      "channel": 4,
      "note": 45,
      "start": 167.2979,
      "duration": 0.1492,
      "velocity": 94,
      "chip": "ym2612"
    },
    {
      "channel": 5,
      "note": 52,
      "start": 167.2985,
      "duration": 0.0653,
      "velocity": 117,
      "chip": "ym2612"
    },
    {
      "channel": 5,
      "note": 53,
      "start": 167.3643,
      "duration": 0.0835,
      "velocity": 117,
      "chip": "ym2612"
    },
    {
      "channel": 1,
      "note": 45,
      "start": 167.4449,
      "duration": 0.1485,
      "velocity": 117,
      "chip": "ym2612"
    },
    {
      "channel": 2,
      "note": 33,
      "start": 167.4456,
      "duration": 0.2314,
      "velocity": 87,
      "chip": "ym2612"
    },
    {
      "channel": 3,
      "note": 24,
      "start": 167.4468,
      "duration": 0.2969,
      "velocity": 126,
      "chip": "ym2612"
    },
    {
      "channel": 4,
      "note": 40,
      "start": 167.4476,
      "duration": 0.1475,
      "velocity": 93,
      "chip": "ym2612"
    },
    {
      "channel": 5,
      "note": 55,
      "start": 167.4483,
      "duration": 0.0646,
      "velocity": 116,
      "chip": "ym2612"
    },
    {
      "channel": 5,
      "note": 57,
      "start": 167.5133,
      "duration": 0.0826,
      "velocity": 116,
      "chip": "ym2612"
    },
    {
      "channel": 1,
      "note": 33,
      "start": 167.5939,
      "duration": 0.1485,
      "velocity": 117,
      "chip": "ym2612"
    },
    {
      "channel": 4,
      "note": 43,
      "start": 167.5957,
      "duration": 0.1493,
      "velocity": 93,
      "chip": "ym2612"
    },
    {
      "channel": 5,
      "note": 58,
      "start": 167.5963,
      "duration": 0.0654,
      "velocity": 115,
      "chip": "ym2612"
    },
    {
      "channel": 5,
      "note": 60,
      "start": 167.6622,
      "duration": 0.0835,
      "velocity": 115,
      "chip": "ym2612"
    },
    {
      "channel": 1,
      "note": 33,
      "start": 167.7428,
      "duration": 0.1485,
      "velocity": 117,
      "chip": "ym2612"
    },
    {
      "channel": 2,
      "note": 21,
      "start": 167.7436,
      "duration": 0.1483,
      "velocity": 87,
      "chip": "ym2612"
    },
    {
      "channel": 3,
      "note": 45,
      "start": 167.7448,
      "duration": 0.2968,
      "velocity": 122,
      "chip": "ym2612"
    },
    {
      "channel": 4,
      "note": 45,
      "start": 167.7456,
      "duration": 0.1476,
      "velocity": 92,
      "chip": "ym2612"
    },
    {
      "channel": 5,
      "note": 62,
      "start": 167.7462,
      "duration": 0.0645,
      "velocity": 114,
      "chip": "ym2612"
    },
    {
      "channel": 5,
      "note": 64,
      "start": 167.8112,
      "duration": 0.0827,
      "velocity": 114,
      "chip": "ym2612"
    },
    {
      "channel": 1,
      "note": 45,
      "start": 167.8918,
      "duration": 0.1485,
      "velocity": 117,
      "chip": "ym2612"
    },
    {
      "channel": 2,
      "note": 33,
      "start": 167.8925,
      "duration": 0.1484,
      "velocity": 87,
      "chip": "ym2612"
    },
    {
      "channel": 4,
      "note": 40,
      "start": 167.8938,
      "duration": 0.1485,
      "velocity": 92,
      "chip": "ym2612"
    },
    {
      "channel": 5,
      "note": 65,
      "start": 167.8944,
      "duration": 0.0653,
      "velocity": 113,
      "chip": "ym2612"
    },
    {
      "channel": 5,
      "note": 67,
      "start": 167.9601,
      "duration": 0.0829,
      "velocity": 113,
      "chip": "ym2612"
    },
    {
      "channel": 1,
      "note": 33,
      "start": 168.0407,
      "duration": 0.1485,
      "velocity": 117,
      "chip": "ym2612"
    },
    {
      "channel": 2,
      "note": 21,
      "start": 168.0415,
      "duration": 0.1484,
      "velocity": 87,
      "chip": "ym2612"
    },
    {
      "channel": 3,
      "note": 45,
      "start": 168.0421,
      "duration": 0.5954,
      "velocity": 122,
      "chip": "ym2612"
    },
    {
      "channel": 4,
      "note": 45,
      "start": 168.0429,
      "duration": 0.1483,
      "velocity": 91,
      "chip": "ym2612"
    },
    {
      "channel": 5,
      "note": 69,
      "start": 168.0435,
      "duration": 0.0652,
      "velocity": 112,
      "chip": "ym2612"
    },
    {
      "channel": 5,
      "note": 70,
      "start": 168.1092,
      "duration": 0.0828,
      "velocity": 112,
      "chip": "ym2612"
    },
    {
      "channel": 1,
      "note": 45,
      "start": 168.1898,
      "duration": 0.1485,
      "velocity": 117,
      "chip": "ym2612"
    },
    {
      "channel": 2,
      "note": 21,
      "start": 168.1905,
      "duration": 0.1483,
      "velocity": 87,
      "chip": "ym2612"
    },
    {
      "channel": 4,
      "note": 40,
      "start": 168.1918,
      "duration": 0.1484,
      "velocity": 91,
      "chip": "ym2612"
    },
    {
      "channel": 5,
      "note": 72,
      "start": 168.1924,
      "duration": 0.0653,
      "velocity": 113,
      "chip": "ym2612"
    },
    {
      "channel": 5,
      "note": 74,
      "start": 168.2582,
      "duration": 0.0828,
      "velocity": 113,
      "chip": "ym2612"
    },
    {
      "channel": 1,
      "note": 33,
      "start": 168.3387,
      "duration": 0.1485,
      "velocity": 117,
      "chip": "ym2612"
    },
    {
      "channel": 2,
      "note": 33,
      "start": 168.3395,
      "duration": 0.1483,
      "velocity": 87,
      "chip": "ym2612"
    },
    {
      "channel": 4,
      "note": 43,
      "start": 168.3407,
      "duration": 0.1483,
      "velocity": 90,
      "chip": "ym2612"
    },
    {
      "channel": 5,
      "note": 76,
      "start": 168.3414,
      "duration": 0.0653,
      "velocity": 114,
      "chip": "ym2612"
    },
    {
      "channel": 5,
      "note": 77,
      "start": 168.4071,
      "duration": 0.0828,
      "velocity": 114,
      "chip": "ym2612"
    },
    {
      "channel": 1,
      "note": 33,
      "start": 168.4877,
      "duration": 0.1485,
      "velocity": 117,
      "chip": "ym2612"
    },
    {
      "channel": 2,
      "note": 21,
      "start": 168.4885,
      "duration": 0.1483,
      "velocity": 87,
      "chip": "ym2612"
    },
    {
      "channel": 4,
      "note": 45,
      "start": 168.4897,
      "duration": 0.1491,
      "velocity": 90,
      "chip": "ym2612"
    },
    {
      "channel": 5,
      "note": 79,
      "start": 168.4904,
      "duration": 0.0653,
      "velocity": 115,
      "chip": "ym2612"
    },
    {
      "channel": 5,
      "note": 81,
      "start": 168.5561,
      "duration": 0.0835,
      "velocity": 115,
      "chip": "ym2612"
    },
    {
      "channel": 1,
      "note": 45,
      "start": 168.6367,
      "duration": 0.1485,
      "velocity": 117,
      "chip": "ym2612"
    },
    {
      "channel": 2,
      "note": 33,
      "start": 168.6374,
      "duration": 0.1483,
      "velocity": 87,
      "chip": "ym2612"
    },
    {
      "channel": 3,
      "note": 24,
      "start": 168.6386,
      "duration": 0.5948,
      "velocity": 126,
      "chip": "ym2612"
    },
    {
      "channel": 4,
      "note": 40,
      "start": 168.6395,
      "duration": 0.1476,
      "velocity": 89,
      "chip": "ym2612"
    },
    {
      "channel": 5,
      "note": 82,
      "start": 168.6401,
      "duration": 0.0644,
      "velocity": 116,
      "chip": "ym2612"
    },
    {
      "channel": 5,
      "note": 84,
      "start": 168.7051,
      "duration": 0.0828,
      "velocity": 116,
      "chip": "ym2612"
    },
    {
      "channel": 1,
      "note": 33,
      "start": 168.7856,
      "duration": 0.1485,
      "velocity": 117,
      "chip": "ym2612"
    },
    {
      "channel": 2,
      "note": 21,
      "start": 168.7863,
      "duration": 0.1484,
      "velocity": 87,
      "chip": "ym2612"
    },
    {
      "channel": 4,
      "note": 47,
      "start": 168.7876,
      "duration": 0.1483,
      "velocity": 89,
      "chip": "ym2612"
    },
    {
      "channel": 5,
      "note": 86,
      "start": 168.7883,
      "duration": 0.0653,
      "velocity": 117,
      "chip": "ym2612"
    },
    {
      "channel": 5,
      "note": 88,
      "start": 168.854,
      "duration": 0.0828,
      "velocity": 117,
      "chip": "ym2612"
    },
    {
      "channel": 1,
      "note": 45,
      "start": 168.9346,
      "duration": 0.1485,
      "velocity": 117,
      "chip": "ym2612"
    },
    {
      "channel": 2,
      "note": 21,
      "start": 168.9353,
      "duration": 0.1484,
      "velocity": 87,
      "chip": "ym2612"
    },
    {
      "channel": 4,
      "note": 48,
      "start": 168.9366,
      "duration": 0.1483,
      "velocity": 88,
      "chip": "ym2612"
    },
    {
      "channel": 5,
      "note": 89,
      "start": 168.9372,
      "duration": 0.0653,
      "velocity": 118,
      "chip": "ym2612"
    },
    {
      "channel": 5,
      "note": 91,
      "start": 169.0029,
      "duration": 0.0828,
      "velocity": 118,
      "chip": "ym2612"
    },
    {
      "channel": 1,
      "note": 45,
      "start": 169.0836,
      "duration": 0.1485,
      "velocity": 117,
      "chip": "ym2612"
    },
    {
      "channel": 2,
      "note": 33,
      "start": 169.0843,
      "duration": 0.1484,
      "velocity": 87,
      "chip": "ym2612"
    },
    {
      "channel": 4,
      "note": 47,
      "start": 169.0855,
      "duration": 0.1492,
      "velocity": 88,
      "chip": "ym2612"
    },
    {
      "channel": 5,
      "note": 93,
      "start": 169.0862,
      "duration": 0.0653,
      "velocity": 119,
      "chip": "ym2612"
    },
    {
      "channel": 5,
      "note": 94,
      "start": 169.1519,
      "duration": 0.0835,
      "velocity": 119,
      "chip": "ym2612"
    },
    {
      "channel": 1,
      "note": 33,
      "start": 169.2325,
      "duration": 0.1485,
      "velocity": 117,
      "chip": "ym2612"
    },
    {
      "channel": 2,
      "note": 21,
      "start": 169.2333,
      "duration": 0.2314,
      "velocity": 87,
      "chip": "ym2612"
    },
    {
      "channel": 3,
      "note": 45,
      "start": 169.2345,
      "duration": 0.2969,
      "velocity": 122,
      "chip": "ym2612"
    },
    {
      "channel": 4,
      "note": 45,
      "start": 169.2353,
      "duration": 0.1475,
      "velocity": 87,
      "chip": "ym2612"
    },
    {
      "channel": 5,
      "note": 93,
      "start": 169.2359,
      "duration": 0.0646,
      "velocity": 120,
      "chip": "ym2612"
    },
    {
      "channel": 5,
      "note": 91,
      "start": 169.3009,
      "duration": 0.0827,
      "velocity": 120,
      "chip": "ym2612"
    },
    {
      "channel": 1,
      "note": 45,
      "start": 169.3815,
      "duration": 0.1485,
      "velocity": 117,
      "chip": "ym2612"
    },
    {
      "channel": 4,
      "note": 40,
      "start": 169.3834,
      "duration": 0.1493,
      "velocity": 87,
      "chip": "ym2612"
    },
    {
      "channel": 5,
      "note": 89,
      "start": 169.384,
      "duration": 0.0655,
      "velocity": 119,
      "chip": "ym2612"
    },
    {
      "channel": 5,
      "note": 88,
      "start": 169.4499,
      "duration": 0.0835,
      "velocity": 119,
      "chip": "ym2612"
    },
    {
      "channel": 1,
      "note": 33,
      "start": 169.5305,
      "duration": 0.1485,
      "velocity": 117,
      "chip": "ym2612"
    },
    {
      "channel": 2,
      "note": 33,
      "start": 169.5313,
      "duration": 0.2314,
      "velocity": 87,
      "chip": "ym2612"
    },
    {
      "channel": 3,
      "note": 84,
      "start": 169.5325,
      "duration": 0.2969,
      "velocity": 113,
      "chip": "ym2612"
    },
    {
      "channel": 4,
      "note": 43,
      "start": 169.5332,
      "duration": 0.1475,
      "velocity": 88,
      "chip": "ym2612"
    },
    {
      "channel": 5,
      "note": 86,
      "start": 169.5339,
      "duration": 0.0646,
      "velocity": 118,
      "chip": "ym2612"
    },
    {
      "channel": 5,
      "note": 84,
      "start": 169.5989,
      "duration": 0.0826,
      "velocity": 118,
      "chip": "ym2612"
    },
    {
      "channel": 1,
      "note": 33,
      "start": 169.6795,
      "duration": 0.1485,
      "velocity": 117,
      "chip": "ym2612"
    },
    {
      "channel": 4,
      "note": 45,
      "start": 169.6813,
      "duration": 0.1493,
      "velocity": 88,
      "chip": "ym2612"
    },
    {
      "channel": 5,
      "note": 82,
      "start": 169.682,
      "duration": 0.0654,
      "velocity": 117,
      "chip": "ym2612"
    },
    {
      "channel": 5,
      "note": 81,
      "start": 169.7479,
      "duration": 0.0834,
      "velocity": 117,
      "chip": "ym2612"
    },
    {
      "channel": 1,
      "note": 45,
      "start": 169.8284,
      "duration": 0.1485,
      "velocity": 117,
      "chip": "ym2612"
    },
    {
      "channel": 2,
      "note": 21,
      "start": 169.8292,
      "duration": 0.2314,
      "velocity": 87,
      "chip": "ym2612"
    },
    {
      "channel": 3,
      "note": 24,
      "start": 169.8304,
      "duration": 0.2968,
      "velocity": 126,
      "chip": "ym2612"
    },
    {
      "channel": 4,
      "note": 40,
      "start": 169.8312,
      "duration": 0.1475,
      "velocity": 89,
      "chip": "ym2612"
    },
    {
      "channel": 5,
      "note": 79,
      "start": 169.8318,
      "duration": 0.0645,
      "velocity": 116,
      "chip": "ym2612"
    },
    {
      "channel": 5,
      "note": 77,
      "start": 169.8968,
      "duration": 0.0826,
      "velocity": 116,
      "chip": "ym2612"
    },
    {
      "channel": 1,
      "note": 33,
      "start": 169.9774,
      "duration": 0.1485,
      "velocity": 117,
      "chip": "ym2612"
    },
    {
      "channel": 4,
      "note": 43,
      "start": 169.9792,
      "duration": 0.1493,
      "velocity": 89,
      "chip": "ym2612"
    },
    {
      "channel": 5,
      "note": 76,
      "start": 169.9799,
      "duration": 0.0655,
      "velocity": 115,
      "chip": "ym2612"
    },
    {
      "channel": 5,
      "note": 74,
      "start": 170.0458,
      "duration": 0.0835,
      "velocity": 115,
      "chip": "ym2612"
    },
    {
      "channel": 1,
      "note": 45,
      "start": 170.1264,
      "duration": 0.1485,
      "velocity": 117,
      "chip": "ym2612"
    },
    {
      "channel": 2,
      "note": 21,
      "start": 170.1271,
      "duration": 0.1484,
      "velocity": 87,
      "chip": "ym2612"
    },
    {
      "channel": 3,
      "note": 45,
      "start": 170.1283,
      "duration": 0.2969,
      "velocity": 122,
      "chip": "ym2612"
    },
    {
      "channel": 4,
      "note": 45,
      "start": 170.1291,
      "duration": 0.1476,
      "velocity": 90,
      "chip": "ym2612"
    },
    {
      "channel": 5,
      "note": 72,
      "start": 170.1297,
      "duration": 0.0646,
      "velocity": 114,
      "chip": "ym2612"
    },
    {
      "channel": 5,
      "note": 70,
      "start": 170.1947,
      "duration": 0.0828,
      "velocity": 114,
      "chip": "ym2612"
    },
    {
      "channel": 1,
      "note": 33,
      "start": 170.2754,
      "duration": 0.1485,
      "velocity": 117,
      "chip": "ym2612"
    },
    {
      "channel": 2,
      "note": 33,
      "start": 170.2761,
      "duration": 0.1483,
      "velocity": 87,
      "chip": "ym2612"
    },
    {
      "channel": 4,
      "note": 40,
      "start": 170.2773,
      "duration": 0.1486,
      "velocity": 90,
      "chip": "ym2612"
    },
    {
      "channel": 5,
      "note": 69,
      "start": 170.278,
      "duration": 0.0653,
      "velocity": 113,
      "chip": "ym2612"
    },
    {
      "channel": 5,
      "note": 67,
      "start": 170.3437,
      "duration": 0.083,
      "velocity": 113,
      "chip": "ym2612"
    },
    {
      "channel": 1,
      "note": 33,
      "start": 170.4243,
      "duration": 0.1485,
      "velocity": 117,
      "chip": "ym2612"
    },
    {
      "channel": 2,
      "note": 21,
      "start": 170.4251,
      "duration": 0.1484,
      "velocity": 87,
      "chip": "ym2612"
    },
    {
      "channel": 3,
      "note": 45,
      "start": 170.4257,
      "duration": 0.5954,
      "velocity": 122,
      "chip": "ym2612"
    },
    {
      "channel": 4,
      "note": 43,
      "start": 170.4265,
      "duration": 0.1482,
      "velocity": 91,
      "chip": "ym2612"
    },
    {
      "channel": 5,
      "note": 65,
      "start": 170.4271,
      "duration": 0.0651,
      "velocity": 112,
      "chip": "ym2612"
    },
    {
      "channel": 5,
      "note": 64,
      "start": 170.4928,
      "duration": 0.0827,
      "velocity": 112,
      "chip": "ym2612"
    },
    {
      "channel": 1,
      "note": 45,
      "start": 170.5733,
      "duration": 0.1485,
      "velocity": 117,
      "chip": "ym2612"
    },
    {
      "channel": 2,
      "note": 33,
      "start": 170.5741,
      "duration": 0.2314,
      "velocity": 87,
      "chip": "ym2612"
    },
    {
      "channel": 4,
      "note": 45,
      "start": 170.5754,
      "duration": 0.1482,
      "velocity": 91,
      "chip": "ym2612"
    },
    {
      "channel": 5,
      "note": 62,
      "start": 170.576,
      "duration": 0.0653,
      "velocity": 113,
      "chip": "ym2612"
    },
    {
      "channel": 5,
      "note": 60,
      "start": 170.6418,
      "duration": 0.0826,
      "velocity": 113,
      "chip": "ym2612"
    },
    {
      "channel": 1,
      "note": 33,
      "start": 170.7223,
      "duration": 0.1485,
      "velocity": 117,
      "chip": "ym2612"
    },
    {
      "channel": 4,
      "note": 47,
      "start": 170.7242,
      "duration": 0.1485,
      "velocity": 92,
      "chip": "ym2612"
    },
    {
      "channel": 5,
      "note": 58,
      "start": 170.7248,
      "duration": 0.0655,
      "velocity": 114,
      "chip": "ym2612"
    },
    {
      "channel": 5,
      "note": 57,
      "start": 170.7907,
      "duration": 0.0828,
      "velocity": 114,
      "chip": "ym2612"
    },
    {
      "channel": 1,
      "note": 45,
      "start": 170.8712,
      "duration": 0.1485,
      "velocity": 117,
      "chip": "ym2612"
    },
    {
      "channel": 2,
      "note": 21,
      "start": 170.872,
      "duration": 0.1484,
      "velocity": 87,
      "chip": "ym2612"
    },
    {
      "channel": 4,
      "note": 48,
      "start": 170.8732,
      "duration": 0.1491,
      "velocity": 92,
      "chip": "ym2612"
    },
    {
      "channel": 5,
      "note": 55,
      "start": 170.8739,
      "duration": 0.0653,
      "velocity": 115,
      "chip": "ym2612"
    },
    {
      "channel": 5,
      "note": 53,
      "start": 170.9397,
      "duration": 0.0835,
      "velocity": 115,
      "chip": "ym2612"
    },
    {
      "channel": 1,
      "note": 33,
      "start": 171.0202,
      "duration": 0.1485,
      "velocity": 117,
      "chip": "ym2612"
    },
    {
      "channel": 2,
      "note": 33,
      "start": 171.021,
      "duration": 0.1484,
      "velocity": 87,
      "chip": "ym2612"
    },
    {
      "channel": 3,
      "note": 21,
      "start": 171.0222,
      "duration": 0.5968,
      "velocity": 126,
      "chip": "ym2612"
    },
    {
      "channel": 4,
      "note": 50,
      "start": 171.023,
      "duration": 0.1476,
      "velocity": 93,
      "chip": "ym2612"
    },
    {
      "channel": 5,
      "note": 52,
      "start": 171.0236,
      "duration": 0.0645,
      "velocity": 116,
      "chip": "ym2612"
    },
    {
      "channel": 5,
      "note": 50,
      "start": 171.0886,
      "duration": 0.0828,
      "velocity": 116,
      "chip": "ym2612"
    },
    {
      "channel": 1,
      "note": 33,
      "start": 171.1692,
      "duration": 0.1485,
      "velocity": 117,
      "chip": "ym2612"
    },
    {
      "channel": 2,
      "note": 21,
      "start": 171.1699,
      "duration": 0.1484,
      "velocity": 87,
      "chip": "ym2612"
    },
    {
      "channel": 4,
      "note": 48,
      "start": 171.1712,
      "duration": 0.1484,
      "velocity": 93,
      "chip": "ym2612"
    },
    {
      "channel": 5,
      "note": 48,
      "start": 171.1718,
      "duration": 0.0653,
      "velocity": 117,
      "chip": "ym2612"
    },
    {
      "channel": 5,
      "note": 46,
      "start": 171.2376,
      "duration": 0.0828,
      "velocity": 117,
      "chip": "ym2612"
    },
    {
      "channel": 1,
      "note": 45,
      "start": 171.3182,
      "duration": 0.1485,
      "velocity": 117,
      "chip": "ym2612"
    },
    {
      "channel": 2,
      "note": 33,
      "start": 171.3189,
      "duration": 0.1483,
      "velocity": 87,
      "chip": "ym2612"
    },
    {
      "channel": 4,
      "note": 47,
      "start": 171.3201,
      "duration": 0.1484,
      "velocity": 94,
      "chip": "ym2612"
    },
    {
      "channel": 5,
      "note": 45,
      "start": 171.3208,
      "duration": 0.0653,
      "velocity": 118,
      "chip": "ym2612"
    },
    {
      "channel": 5,
      "note": 43,
      "start": 171.3865,
      "duration": 0.0828,
      "velocity": 118,
      "chip": "ym2612"
    },
    {
      "channel": 1,
      "note": 33,
      "start": 171.4671,
      "duration": 0.1493,
      "velocity": 117,
      "chip": "ym2612"
    },
    {
      "channel": 2,
      "note": 21,
      "start": 171.4679,
      "duration": 0.0824,
      "velocity": 87,
      "chip": "ym2612"
    },
    {
      "channel": 4,
      "note": 40,
      "start": 171.4691,
      "duration": 0.1511,
      "velocity": 94,
      "chip": "ym2612"
    },
    {
      "channel": 5,
      "note": 41,
      "start": 171.4698,
      "duration": 0.0653,
      "velocity": 119,
      "chip": "ym2612"
    },
    {
      "channel": 5,
      "note": 40,
      "start": 171.5355,
      "duration": 0.0861,
      "velocity": 119,
      "chip": "ym2612"
    },
    {
      "channel": 0,
      "note": 33,
      "start": 171.6163,
      "duration": 2.3824,
      "velocity": 108,
      "chip": "ym2612"
    },
    {
      "channel": 1,
      "note": 21,
      "start": 171.6176,
      "duration": 0.2302,
      "velocity": 87,
      "chip": "ym2612"
    },
    {
      "channel": 2,
      "note": 45,
      "start": 171.6189,
      "duration": 4.7648,
      "velocity": 108,
      "chip": "ym2612"
    },
    {
      "channel": 3,
      "note": 45,
      "start": 171.6201,
      "duration": 0.2948,
      "velocity": 122,
      "chip": "ym2612"
    },
    {
      "channel": 4,
      "note": 36,
      "start": 171.6215,
      "duration": 2.3805,
      "velocity": 108,
      "chip": "ym2612"
    },
    {
      "channel": 5,
      "note": 69,
      "start": 171.6227,
      "duration": 0.1441,
      "velocity": 59,
      "chip": "ym2612"
    },
    {
      "channel": 5,
      "note": 69,
      "start": 171.7679,
      "duration": 0.1487,
      "velocity": 63,
      "chip": "ym2612"
    },
    {
      "channel": 1,
      "note": 33,
      "start": 171.9142,
      "duration": 0.1484,
      "velocity": 87,
      "chip": "ym2612"
    },
    {
      "channel": 3,
      "note": 72,
      "start": 171.916,
      "duration": 0.2968,
      "velocity": 113,
      "chip": "ym2612"
    },
    {
      "channel": 5,
      "note": 69,
      "start": 171.9178,
      "duration": 0.1471,
      "velocity": 59,
      "chip": "ym2612"
    },
    {
      "channel": 1,
      "note": 21,
      "start": 172.0632,
      "duration": 0.1483,
      "velocity": 87,
      "chip": "ym2612"
    },
    {
      "channel": 5,
      "note": 69,
      "start": 172.0654,
      "duration": 0.1492,
      "velocity": 59,
      "chip": "ym2612"
    },
    {
      "channel": 1,
      "note": 33,
      "start": 172.2122,
      "duration": 0.2316,
      "velocity": 87,
      "chip": "ym2612"
    },
    {
      "channel": 3,
      "note": 24,
      "start": 172.2139,
      "duration": 0.2969,
      "velocity": 126,
      "chip": "ym2612"
    },
    {
      "channel": 5,
      "note": 69,
      "start": 172.2157,
      "duration": 0.147,
      "velocity": 63,
      "chip": "ym2612"
    },
    {
      "channel": 5,
      "note": 69,
      "start": 172.3638,
      "duration": 0.1488,
      "velocity": 59,
      "chip": "ym2612"
    },
    {
      "channel": 1,
      "note": 21,
      "start": 172.5101,
      "duration": 0.1483,
      "velocity": 87,
      "chip": "ym2612"
    },
    {
      "channel": 3,
      "note": 45,
      "start": 172.5119,
      "duration": 0.2969,
      "velocity": 122,
      "chip": "ym2612"
    },
    {
      "channel": 5,
      "note": 69,
      "start": 172.5131,
      "duration": 0.1477,
      "velocity": 59,
      "chip": "ym2612"
    },
    {
      "channel": 1,
      "note": 33,
      "start": 172.6591,
      "duration": 0.1483,
      "velocity": 87,
      "chip": "ym2612"
    },
    {
      "channel": 5,
      "note": 69,
      "start": 172.6619,
      "duration": 0.0649,
      "velocity": 63,
      "chip": "ym2612"
    },
    {
      "channel": 5,
      "note": 81,
      "start": 172.7279,
      "duration": 0.0821,
      "velocity": 59,
      "chip": "ym2612"
    },
    {
      "channel": 1,
      "note": 21,
      "start": 172.8081,
      "duration": 0.1484,
      "velocity": 87,
      "chip": "ym2612"
    },
    {
      "channel": 3,
      "note": 45,
      "start": 172.8093,
      "duration": 0.5954,
      "velocity": 122,
      "chip": "ym2612"
    },
    {
      "channel": 5,
      "note": 74,
      "start": 172.8105,
      "duration": 0.1483,
      "velocity": 59,
      "chip": "ym2612"
    },
    {
      "channel": 1,
      "note": 21,
      "start": 172.9571,
      "duration": 0.1483,
      "velocity": 87,
      "chip": "ym2612"
    },
    {
      "channel": 5,
      "note": 69,
      "start": 172.9598,
      "duration": 0.1479,
      "velocity": 63,
      "chip": "ym2612"
    },
    {
      "channel": 1,
      "note": 33,
      "start": 173.1061,
      "duration": 0.1483,
      "velocity": 87,
      "chip": "ym2612"
    },
    {
      "channel": 5,
      "note": 69,
      "start": 173.1088,
      "duration": 0.1479,
      "velocity": 59,
      "chip": "ym2612"
    },
    {
      "channel": 1,
      "note": 21,
      "start": 173.255,
      "duration": 0.1483,
      "velocity": 87,
      "chip": "ym2612"
    },
    {
      "channel": 5,
      "note": 69,
      "start": 173.2572,
      "duration": 0.1493,
      "velocity": 59,
      "chip": "ym2612"
    },
    {
      "channel": 1,
      "note": 33,
      "start": 173.404,
      "duration": 0.1483,
      "velocity": 87,
      "chip": "ym2612"
    },
    {
      "channel": 3,
      "note": 24,
      "start": 173.4057,
      "duration": 0.595,
      "velocity": 126,
      "chip": "ym2612"
    },
    {
      "channel": 5,
      "note": 69,
      "start": 173.4075,
      "duration": 0.1471,
      "velocity": 63,
      "chip": "ym2612"
    },
    {
      "channel": 1,
      "note": 21,
      "start": 173.5529,
      "duration": 0.1483,
      "velocity": 87,
      "chip": "ym2612"
    },
    {
      "channel": 5,
      "note": 69,
      "start": 173.5557,
      "duration": 0.1479,
      "velocity": 59,
      "chip": "ym2612"
    },
    {
      "channel": 1,
      "note": 21,
      "start": 173.7019,
      "duration": 0.1483,
      "velocity": 87,
      "chip": "ym2612"
    },
    {
      "channel": 5,
      "note": 69,
      "start": 173.7041,
      "duration": 0.1485,
      "velocity": 59,
      "chip": "ym2612"
    },
    {
      "channel": 1,
      "note": 33,
      "start": 173.8509,
      "duration": 0.1486,
      "velocity": 87,
      "chip": "ym2612"
    },
    {
      "channel": 5,
      "note": 69,
      "start": 173.8537,
      "duration": 0.149,
      "velocity": 63,
      "chip": "ym2612"
    },
    {
      "channel": 0,
      "note": 33,
      "start": 173.9993,
      "duration": 2.383,
      "velocity": 108,
      "chip": "ym2612"
    },
    {
      "channel": 1,
      "note": 21,
      "start": 174.0,
      "duration": 0.2314,
      "velocity": 87,
      "chip": "ym2612"
    },
    {
      "channel": 3,
      "note": 45,
      "start": 174.0017,
      "duration": 0.2967,
      "velocity": 122,
      "chip": "ym2612"
    },
    {
      "channel": 4,
      "note": 35,
      "start": 174.0025,
      "duration": 2.3832,
      "velocity": 108,
      "chip": "ym2612"
    },
    {
      "channel": 5,
      "note": 69,
      "start": 174.0037,
      "duration": 0.1467,
      "velocity": 59,
      "chip": "ym2612"
    },
    {
      "channel": 5,
      "note": 69,
      "start": 174.1515,
      "duration": 0.1487,
      "velocity": 63,
      "chip": "ym2612"
    },
    {
      "channel": 1,
      "note": 33,
      "start": 174.2978,
      "duration": 0.2315,
      "velocity": 87,
      "chip": "ym2612"
    },
    {
      "channel": 3,
      "note": 84,
      "start": 174.2995,
      "duration": 0.2969,
      "velocity": 113,
      "chip": "ym2612"
    },
    {
      "channel": 5,
      "note": 69,
      "start": 174.3013,
      "duration": 0.147,
      "velocity": 59,
      "chip": "ym2612"
    },
    {
      "channel": 5,
      "note": 69,
      "start": 174.4488,
      "duration": 0.1494,
      "velocity": 59,
      "chip": "ym2612"
    },
    {
      "channel": 1,
      "note": 21,
      "start": 174.5958,
      "duration": 0.2316,
      "velocity": 87,
      "chip": "ym2612"
    },
    {
      "channel": 3,
      "note": 24,
      "start": 174.5975,
      "duration": 0.2969,
      "velocity": 126,
      "chip": "ym2612"
    },
    {
      "channel": 5,
      "note": 69,
      "start": 174.5993,
      "duration": 0.147,
      "velocity": 63,
      "chip": "ym2612"
    },
    {
      "channel": 5,
      "note": 69,
      "start": 174.7473,
      "duration": 0.1488,
      "velocity": 59,
      "chip": "ym2612"
    },
    {
      "channel": 1,
      "note": 21,
      "start": 174.8937,
      "duration": 0.1484,
      "velocity": 87,
      "chip": "ym2612"
    },
    {
      "channel": 3,
      "note": 45,
      "start": 174.8954,
      "duration": 0.2969,
      "velocity": 122,
      "chip": "ym2612"
    },
    {
      "channel": 5,
      "note": 69,
      "start": 174.8967,
      "duration": 0.1477,
      "velocity": 59,
      "chip": "ym2612"
    },
    {
      "channel": 1,
      "note": 33,
      "start": 175.0427,
      "duration": 0.1483,
      "velocity": 87,
      "chip": "ym2612"
    },
    {
      "channel": 5,
      "note": 69,
      "start": 175.0454,
      "duration": 0.148,
      "velocity": 63,
      "chip": "ym2612"
    },
    {
      "channel": 1,
      "note": 21,
      "start": 175.1916,
      "duration": 0.1484,
      "velocity": 87,
      "chip": "ym2612"
    },
    {
      "channel": 3,
      "note": 45,
      "start": 175.1928,
      "duration": 0.5954,
      "velocity": 122,
      "chip": "ym2612"
    },
    {
      "channel": 5,
      "note": 69,
      "start": 175.1946,
      "duration": 0.1478,
      "velocity": 59,
      "chip": "ym2612"
    },
    {
      "channel": 1,
      "note": 33,
      "start": 175.3407,
      "duration": 0.2315,
      "velocity": 87,
      "chip": "ym2612"
    },
    {
      "channel": 5,
      "note": 69,
      "start": 175.3434,
      "duration": 0.1477,
      "velocity": 63,
      "chip": "ym2612"
    },
    {
      "channel": 5,
      "note": 69,
      "start": 175.4923,
      "duration": 0.148,
      "velocity": 59,
      "chip": "ym2612"
    },
    {
      "channel": 1,
      "note": 21,
      "start": 175.6386,
      "duration": 0.1483,
      "velocity": 87,
      "chip": "ym2612"
    },
    {
      "channel": 5,
      "note": 69,
      "start": 175.6408,
      "duration": 0.1492,
      "velocity": 59,
      "chip": "ym2612"
    },
    {
      "channel": 1,
      "note": 33,
      "start": 175.7875,
      "duration": 0.1484,
      "velocity": 87,
      "chip": "ym2612"
    },
    {
      "channel": 3,
      "note": 21,
      "start": 175.7893,
      "duration": 0.5951,
      "velocity": 126,
      "chip": "ym2612"
    },
    {
      "channel": 5,
      "note": 69,
      "start": 175.7911,
      "duration": 0.1471,
      "velocity": 63,
      "chip": "ym2612"
    },
    {
      "channel": 1,
      "note": 21,
      "start": 175.9365,
      "duration": 0.1483,
      "velocity": 87,
      "chip": "ym2612"
    },
    {
      "channel": 5,
      "note": 69,
      "start": 175.9393,
      "duration": 0.1478,
      "velocity": 59,
      "chip": "ym2612"
    },
    {
      "channel": 1,
      "note": 33,
      "start": 176.0855,
      "duration": 0.1483,
      "velocity": 87,
      "chip": "ym2612"
    },
    {
      "channel": 5,
      "note": 69,
      "start": 176.0876,
      "duration": 0.1485,
      "velocity": 59,
      "chip": "ym2612"
    },
    {
      "channel": 1,
      "note": 21,
      "start": 176.2344,
      "duration": 0.0826,
      "velocity": 87,
      "chip": "ym2612"
    },
    {
      "channel": 5,
      "note": 69,
      "start": 176.2366,
      "duration": 0.1498,
      "velocity": 59,
      "chip": "ym2612"
    },
    {
      "channel": 0,
      "note": 31,
      "start": 176.3828,
      "duration": 2.383,
      "velocity": 108,
      "chip": "ym2612"
    },
    {
      "channel": 1,
      "note": 21,
      "start": 176.3836,
      "duration": 0.2314,
      "velocity": 87,
      "chip": "ym2612"
    },
    {
      "channel": 2,
      "note": 40,
      "start": 176.3843,
      "duration": 3.5746,
      "velocity": 108,
      "chip": "ym2612"
    },
    {
      "channel": 3,
      "note": 45,
      "start": 176.3855,
      "duration": 0.2965,
      "velocity": 122,
      "chip": "ym2612"
    },
    {
      "channel": 4,
      "note": 35,
      "start": 176.3862,
      "duration": 2.3828,
      "velocity": 108,
      "chip": "ym2612"
    },
    {
      "channel": 5,
      "note": 69,
      "start": 176.3869,
      "duration": 0.147,
      "velocity": 59,
      "chip": "ym2612"
    },
    {
      "channel": 5,
      "note": 69,
      "start": 176.535,
      "duration": 0.1488,
      "velocity": 63,
      "chip": "ym2612"
    },
    {
      "channel": 1,
      "note": 33,
      "start": 176.6813,
      "duration": 0.1484,
      "velocity": 87,
      "chip": "ym2612"
    },
    {
      "channel": 3,
      "note": 72,
      "start": 176.6831,
      "duration": 0.2969,
      "velocity": 113,
      "chip": "ym2612"
    },
    {
      "channel": 5,
      "note": 69,
      "start": 176.6849,
      "duration": 0.1471,
      "velocity": 59,
      "chip": "ym2612"
    },
    {
      "channel": 1,
      "note": 21,
      "start": 176.8303,
      "duration": 0.1484,
      "velocity": 87,
      "chip": "ym2612"
    },
    {
      "channel": 5,
      "note": 69,
      "start": 176.8325,
      "duration": 0.1492,
      "velocity": 59,
      "chip": "ym2612"
    },
    {
      "channel": 1,
      "note": 33,
      "start": 176.9793,
      "duration": 0.2316,
      "velocity": 87,
      "chip": "ym2612"
    },
    {
      "channel": 3,
      "note": 24,
      "start": 176.9811,
      "duration": 0.2968,
      "velocity": 126,
      "chip": "ym2612"
    },
    {
      "channel": 5,
      "note": 69,
      "start": 176.9829,
      "duration": 0.1469,
      "velocity": 63,
      "chip": "ym2612"
    },
    {
      "channel": 5,
      "note": 69,
      "start": 177.1309,
      "duration": 0.1488,
      "velocity": 59,
      "chip": "ym2612"
    },
    {
      "channel": 1,
      "note": 21,
      "start": 177.2773,
      "duration": 0.1483,
      "velocity": 87,
      "chip": "ym2612"
    },
    {
      "channel": 3,
      "note": 45,
      "start": 177.279,
      "duration": 0.2969,
      "velocity": 122,
      "chip": "ym2612"
    },
    {
      "channel": 5,
      "note": 69,
      "start": 177.2802,
      "duration": 0.1477,
      "velocity": 59,
      "chip": "ym2612"
    },
    {
      "channel": 1,
      "note": 33,
      "start": 177.4262,
      "duration": 0.1483,
      "velocity": 87,
      "chip": "ym2612"
    },
    {
      "channel": 5,
      "note": 69,
      "start": 177.429,
      "duration": 0.065,
      "velocity": 63,
      "chip": "ym2612"
    },
    {
      "channel": 5,
      "note": 81,
      "start": 177.4951,
      "duration": 0.082,
      "velocity": 59,
      "chip": "ym2612"
    },
    {
      "channel": 1,
      "note": 21,
      "start": 177.5752,
      "duration": 0.1484,
      "velocity": 87,
      "chip": "ym2612"
    },
    {
      "channel": 3,
      "note": 45,
      "start": 177.5764,
      "duration": 0.5954,
      "velocity": 122,
      "chip": "ym2612"
    },
    {
      "channel": 5,
      "note": 74,
      "start": 177.5776,
      "duration": 0.1483,
      "velocity": 59,
      "chip": "ym2612"
    },
    {
      "channel": 1,
      "note": 21,
      "start": 177.7242,
      "duration": 0.1483,
      "velocity": 87,
      "chip": "ym2612"
    },
    {
      "channel": 5,
      "note": 69,
      "start": 177.727,
      "duration": 0.1478,
      "velocity": 63,
      "chip": "ym2612"
    },
    {
      "channel": 1,
      "note": 33,
      "start": 177.8732,
      "duration": 0.1483,
      "velocity": 87,
      "chip": "ym2612"
    },
    {
      "channel": 5,
      "note": 69,
      "start": 177.8759,
      "duration": 0.148,
      "velocity": 59,
      "chip": "ym2612"
    },
    {
      "channel": 1,
      "note": 21,
      "start": 178.0221,
      "duration": 0.1483,
      "velocity": 87,
      "chip": "ym2612"
    },
    {
      "channel": 5,
      "note": 69,
      "start": 178.0244,
      "duration": 0.1492,
      "velocity": 59,
      "chip": "ym2612"
    },
    {
      "channel": 1,
      "note": 33,
      "start": 178.1711,
      "duration": 0.1483,
      "velocity": 87,
      "chip": "ym2612"
    },
    {
      "channel": 3,
      "note": 24,
      "start": 178.1729,
      "duration": 0.5949,
      "velocity": 126,
      "chip": "ym2612"
    },
    {
      "channel": 5,
      "note": 69,
      "start": 178.1746,
      "duration": 0.1471,
      "velocity": 63,
      "chip": "ym2612"
    },
    {
      "channel": 1,
      "note": 21,
      "start": 178.3201,
      "duration": 0.1483,
      "velocity": 87,
      "chip": "ym2612"
    },
    {
      "channel": 5,
      "note": 69,
      "start": 178.3229,
      "duration": 0.1478,
      "velocity": 59,
      "chip": "ym2612"
    },
    {
      "channel": 1,
      "note": 21,
      "start": 178.469,
      "duration": 0.1483,
      "velocity": 87,
      "chip": "ym2612"
    },
    {
      "channel": 5,
      "note": 69,
      "start": 178.4712,
      "duration": 0.1485,
      "velocity": 59,
      "chip": "ym2612"
    },
    {
      "channel": 1,
      "note": 33,
      "start": 178.618,
      "duration": 0.1485,
      "velocity": 87,
      "chip": "ym2612"
    },
    {
      "channel": 5,
      "note": 69,
      "start": 178.6208,
      "duration": 0.149,
      "velocity": 63,
      "chip": "ym2612"
    },
    {
      "channel": 0,
      "note": 33,
      "start": 178.7664,
      "duration": 2.3172,
      "velocity": 108,
      "chip": "ym2612"
    },
    {
      "channel": 1,
      "note": 21,
      "start": 178.7671,
      "duration": 0.2314,
      "velocity": 87,
      "chip": "ym2612"
    },
    {
      "channel": 3,
      "note": 45,
      "start": 178.7689,
      "duration": 0.2967,
      "velocity": 122,
      "chip": "ym2612"
    },
    {
      "channel": 4,
      "note": 36,
      "start": 178.7696,
      "duration": 2.3162,
      "velocity": 108,
      "chip": "ym2612"
    },
    {
      "channel": 5,
      "note": 69,
      "start": 178.7708,
      "duration": 0.1467,
      "velocity": 59,
      "chip": "ym2612"
    },
    {
      "channel": 5,
      "note": 69,
      "start": 178.9186,
      "duration": 0.1487,
      "velocity": 63,
      "chip": "ym2612"
    },
    {
      "channel": 1,
      "note": 33,
      "start": 179.0649,
      "duration": 0.2316,
      "velocity": 87,
      "chip": "ym2612"
    },
    {
      "channel": 3,
      "note": 84,
      "start": 179.0666,
      "duration": 0.2969,
      "velocity": 113,
      "chip": "ym2612"
    },
    {
      "channel": 5,
      "note": 69,
      "start": 179.0684,
      "duration": 0.147,
      "velocity": 59,
      "chip": "ym2612"
    },
    {
      "channel": 5,
      "note": 69,
      "start": 179.2159,
      "duration": 0.1493,
      "velocity": 59,
      "chip": "ym2612"
    },
    {
      "channel": 1,
      "note": 21,
      "start": 179.3629,
      "duration": 0.2315,
      "velocity": 87,
      "chip": "ym2612"
    },
    {
      "channel": 3,
      "note": 24,
      "start": 179.3646,
      "duration": 0.2969,
      "velocity": 126,
      "chip": "ym2612"
    },
    {
      "channel": 5,
      "note": 69,
      "start": 179.3664,
      "duration": 0.147,
      "velocity": 63,
      "chip": "ym2612"
    },
    {
      "channel": 5,
      "note": 69,
      "start": 179.5145,
      "duration": 0.1488,
      "velocity": 59,
      "chip": "ym2612"
    },
    {
      "channel": 1,
      "note": 21,
      "start": 179.6608,
      "duration": 0.1484,
      "velocity": 87,
      "chip": "ym2612"
    },
    {
      "channel": 3,
      "note": 45,
      "start": 179.6626,
      "duration": 0.2971,
      "velocity": 122,
      "chip": "ym2612"
    },
    {
      "channel": 5,
      "note": 69,
      "start": 179.6638,
      "duration": 0.1477,
      "velocity": 59,
      "chip": "ym2612"
    },
    {
      "channel": 1,
      "note": 33,
      "start": 179.8098,
      "duration": 0.1484,
      "velocity": 87,
      "chip": "ym2612"
    },
    {
      "channel": 5,
      "note": 69,
      "start": 179.8126,
      "duration": 0.1482,
      "velocity": 63,
      "chip": "ym2612"
    },
    {
      "channel": 1,
      "note": 21,
      "start": 179.9588,
      "duration": 0.1483,
      "velocity": 87,
      "chip": "ym2612"
    },
    {
      "channel": 2,
      "note": 33,
      "start": 179.9594,
      "duration": 0.0655,
      "velocity": 108,
      "chip": "ym2612"
    },
    {
      "channel": 3,
      "note": 45,
      "start": 179.9601,
      "duration": 0.5954,
      "velocity": 122,
      "chip": "ym2612"
    },
    {
      "channel": 5,
      "note": 69,
      "start": 179.9619,
      "duration": 0.1477,
      "velocity": 59,
      "chip": "ym2612"
    },
    {
      "channel": 2,
      "note": 35,
      "start": 180.0255,
      "duration": 0.0823,
      "velocity": 108,
      "chip": "ym2612"
    },
    {
      "channel": 1,
      "note": 33,
      "start": 180.1077,
      "duration": 0.2316,
      "velocity": 87,
      "chip": "ym2612"
    },
    {
      "channel": 2,
      "note": 36,
      "start": 180.1084,
      "duration": 0.0656,
      "velocity": 108,
      "chip": "ym2612"
    },
    {
      "channel": 5,
      "note": 69,
      "start": 180.1107,
      "duration": 0.1478,
      "velocity": 63,
      "chip": "ym2612"
    },
    {
      "channel": 2,
      "note": 35,
      "start": 180.1745,
      "duration": 0.0823,
      "velocity": 108,
      "chip": "ym2612"
    },
    {
      "channel": 2,
      "note": 36,
      "start": 180.2573,
      "duration": 0.0657,
      "velocity": 107,
      "chip": "ym2612"
    },
    {
      "channel": 5,
      "note": 69,
      "start": 180.2596,
      "duration": 0.148,
      "velocity": 59,
      "chip": "ym2612"
    },
    {
      "channel": 2,
      "note": 38,
      "start": 180.3235,
      "duration": 0.0823,
      "velocity": 107,
      "chip": "ym2612"
    },
    {
      "channel": 1,
      "note": 21,
      "start": 180.4057,
      "duration": 0.1483,
      "velocity": 87,
      "chip": "ym2612"
    },
    {
      "channel": 2,
      "note": 36,
      "start": 180.4065,
      "duration": 0.0654,
      "velocity": 107,
      "chip": "ym2612"
    },
    {
      "channel": 5,
      "note": 69,
      "start": 180.4081,
      "duration": 0.1492,
      "velocity": 59,
      "chip": "ym2612"
    },
    {
      "channel": 2,
      "note": 38,
      "start": 180.4724,
      "duration": 0.0824,
      "velocity": 107,
      "chip": "ym2612"
    },
    {
      "channel": 1,
      "note": 33,
      "start": 180.5547,
      "duration": 0.1483,
      "velocity": 87,
      "chip": "ym2612"
    },
    {
      "channel": 2,
      "note": 40,
      "start": 180.5554,
      "duration": 0.0655,
      "velocity": 106,
      "chip": "ym2612"
    },
    {
      "channel": 3,
      "note": 21,
      "start": 180.5566,
      "duration": 0.596,
      "velocity": 126,
      "chip": "ym2612"
    },
    {
      "channel": 5,
      "note": 69,
      "start": 180.5584,
      "duration": 0.147,
      "velocity": 63,
      "chip": "ym2612"
    },
    {
      "channel": 2,
      "note": 38,
      "start": 180.6214,
      "duration": 0.0824,
      "velocity": 106,
      "chip": "ym2612"
    },
    {
      "channel": 1,
      "note": 21,
      "start": 180.7036,
      "duration": 0.1484,
      "velocity": 87,
      "chip": "ym2612"
    },
    {
      "channel": 2,
      "note": 40,
      "start": 180.7043,
      "duration": 0.0655,
      "velocity": 106,
      "chip": "ym2612"
    },
    {
      "channel": 5,
      "note": 69,
      "start": 180.7066,
      "duration": 0.1479,
      "velocity": 59,
      "chip": "ym2612"
    },
    {
      "channel": 2,
      "note": 41,
      "start": 180.7704,
      "duration": 0.0824,
      "velocity": 106,
      "chip": "ym2612"
    },
    {
      "channel": 1,
      "note": 33,
      "start": 180.8526,
      "duration": 0.1483,
      "velocity": 87,
      "chip": "ym2612"
    },
    {
      "channel": 2,
      "note": 40,
      "start": 180.8533,
      "duration": 0.0655,
      "velocity": 107,
      "chip": "ym2612"
    },
    {
      "channel": 5,
      "note": 69,
      "start": 180.855,
      "duration": 0.1484,
      "velocity": 59,
      "chip": "ym2612"
    },
    {
      "channel": 2,
      "note": 41,
      "start": 180.9194,
      "duration": 0.0823,
      "velocity": 107,
      "chip": "ym2612"
    },
    {
      "channel": 1,
      "note": 21,
      "start": 181.0016,
      "duration": 0.0826,
      "velocity": 87,
      "chip": "ym2612"
    },
    {
      "channel": 2,
      "note": 43,
      "start": 181.0022,
      "duration": 0.0655,
      "velocity": 107,
      "chip": "ym2612"
    },
    {
      "channel": 5,
      "note": 69,
      "start": 181.0039,
      "duration": 0.1512,
      "velocity": 59,
      "chip": "ym2612"
    },
    {
      "channel": 2,
      "note": 40,
      "start": 181.0683,
      "duration": 0.083,
      "velocity": 107,
      "chip": "ym2612"
    },
    {
      "channel": 0,
      "note": 33,
      "start": 181.1505,
      "duration": 0.082,
      "velocity": 117,
      "chip": "ym2612"
    },
    {
      "channel": 1,
      "note": 21,
      "start": 181.1512,
      "duration": 0.2308,
      "velocity": 87,
      "chip": "ym2612"
    },
    {
      "channel": 2,
      "note": 7,
      "start": 181.1524,
      "duration": 2.3157,
      "velocity": 1,
      "chip": "ym2612"
    },
    {
      "channel": 3,
      "note": 45,
      "start": 181.1537,
      "duration": 0.2955,
      "velocity": 122,
      "chip": "ym2612"
    },
    {
      "channel": 4,
      "note": 7,
      "start": 181.155,
      "duration": 2.3142,
      "velocity": 1,
      "chip": "ym2612"
    },
    {
      "channel": 5,
      "note": 7,
      "start": 181.1563,
      "duration": 2.3134,
      "velocity": 1,
      "chip": "ym2612"
    },
    {
      "channel": 0,
      "note": 33,
      "start": 181.2988,
      "duration": 0.0826,
      "velocity": 117,
      "chip": "ym2612"
    },
    {
      "channel": 0,
      "note": 33,
      "start": 181.4478,
      "duration": 0.0826,
      "velocity": 117,
      "chip": "ym2612"
    },
    {
      "channel": 1,
      "note": 33,
      "start": 181.4486,
      "duration": 0.1484,
      "velocity": 87,
      "chip": "ym2612"
    },
    {
      "channel": 3,
      "note": 72,
      "start": 181.4503,
      "duration": 0.2968,
      "velocity": 113,
      "chip": "ym2612"
    },
    {
      "channel": 0,
      "note": 45,
      "start": 181.5968,
      "duration": 0.0826,
      "velocity": 117,
      "chip": "ym2612"
    },
    {
      "channel": 1,
      "note": 21,
      "start": 181.5976,
      "duration": 0.1483,
      "velocity": 87,
      "chip": "ym2612"
    },
    {
      "channel": 0,
      "note": 33,
      "start": 181.7458,
      "duration": 0.0826,
      "velocity": 117,
      "chip": "ym2612"
    },
    {
      "channel": 1,
      "note": 33,
      "start": 181.7465,
      "duration": 0.2314,
      "velocity": 87,
      "chip": "ym2612"
    },
    {
      "channel": 3,
      "note": 24,
      "start": 181.7482,
      "duration": 0.2969,
      "velocity": 126,
      "chip": "ym2612"
    },
    {
      "channel": 0,
      "note": 45,
      "start": 181.8947,
      "duration": 0.0826,
      "velocity": 117,
      "chip": "ym2612"
    },
    {
      "channel": 0,
      "note": 33,
      "start": 182.0437,
      "duration": 0.0826,
      "velocity": 117,
      "chip": "ym2612"
    },
    {
      "channel": 1,
      "note": 21,
      "start": 182.0445,
      "duration": 0.1483,
      "velocity": 87,
      "chip": "ym2612"
    },
    {
      "channel": 3,
      "note": 45,
      "start": 182.0461,
      "duration": 0.2969,
      "velocity": 122,
      "chip": "ym2612"
    },
    {
      "channel": 0,
      "note": 45,
      "start": 182.1927,
      "duration": 0.0826,
      "velocity": 117,
      "chip": "ym2612"
    },
    {
      "channel": 1,
      "note": 33,
      "start": 182.1934,
      "duration": 0.1484,
      "velocity": 87,
      "chip": "ym2612"
    },
    {
      "channel": 0,
      "note": 33,
      "start": 182.3416,
      "duration": 0.0826,
      "velocity": 117,
      "chip": "ym2612"
    },
    {
      "channel": 1,
      "note": 21,
      "start": 182.3424,
      "duration": 0.1484,
      "velocity": 87,
      "chip": "ym2612"
    },
    {
      "channel": 3,
      "note": 45,
      "start": 182.3435,
      "duration": 0.5954,
      "velocity": 122,
      "chip": "ym2612"
    },
    {
      "channel": 0,
      "note": 33,
      "start": 182.4906,
      "duration": 0.0827,
      "velocity": 117,
      "chip": "ym2612"
    },
    {
      "channel": 1,
      "note": 21,
      "start": 182.4914,
      "duration": 0.1484,
      "velocity": 87,
      "chip": "ym2612"
    },
    {
      "channel": 0,
      "note": 33,
      "start": 182.6397,
      "duration": 0.1484,
      "velocity": 117,
      "chip": "ym2612"
    },
    {
      "channel": 1,
      "note": 33,
      "start": 182.6404,
      "duration": 0.1483,
      "velocity": 87,
      "chip": "ym2612"
    },
    {
      "channel": 0,
      "note": 45,
      "start": 182.7886,
      "duration": 0.0826,
      "velocity": 117,
      "chip": "ym2612"
    },
    {
      "channel": 1,
      "note": 21,
      "start": 182.7894,
      "duration": 0.1483,
      "velocity": 87,
      "chip": "ym2612"
    },
    {
      "channel": 0,
      "note": 33,
      "start": 182.9376,
      "duration": 0.0826,
      "velocity": 117,
      "chip": "ym2612"
    },
    {
      "channel": 1,
      "note": 33,
      "start": 182.9383,
      "duration": 0.1483,
      "velocity": 87,
      "chip": "ym2612"
    },
    {
      "channel": 3,
      "note": 24,
      "start": 182.94,
      "duration": 0.595,
      "velocity": 126,
      "chip": "ym2612"
    },
    {
      "channel": 0,
      "note": 33,
      "start": 183.0865,
      "duration": 0.0826,
      "velocity": 117,
      "chip": "ym2612"
    },
    {
      "channel": 1,
      "note": 21,
      "start": 183.0873,
      "duration": 0.1483,
      "velocity": 87,
      "chip": "ym2612"
    },
    {
      "channel": 0,
      "note": 33,
      "start": 183.2355,
      "duration": 0.0826,
      "velocity": 117,
      "chip": "ym2612"
    },
    {
      "channel": 1,
      "note": 21,
      "start": 183.2362,
      "duration": 0.1484,
      "velocity": 87,
      "chip": "ym2612"
    },
    {
      "channel": 0,
      "note": 33,
      "start": 183.3844,
      "duration": 0.0826,
      "velocity": 117,
      "chip": "ym2612"
    },
    {
      "channel": 1,
      "note": 33,
      "start": 183.3852,
      "duration": 0.1484,
      "velocity": 87,
      "chip": "ym2612"
    },
    {
      "channel": 0,
      "note": 33,
      "start": 183.5334,
      "duration": 0.0826,
      "velocity": 117,
      "chip": "ym2612"
    },
    {
      "channel": 1,
      "note": 21,
      "start": 183.5342,
      "duration": 0.2314,
      "velocity": 87,
      "chip": "ym2612"
    },
    {
      "channel": 2,
      "note": 7,
      "start": 183.5348,
      "duration": 2.3169,
      "velocity": 1,
      "chip": "ym2612"
    },
    {
      "channel": 3,
      "note": 45,
      "start": 183.5361,
      "duration": 0.2966,
      "velocity": 122,
      "chip": "ym2612"
    },
    {
      "channel": 4,
      "note": 7,
      "start": 183.5368,
      "duration": 2.3159,
      "velocity": 1,
      "chip": "ym2612"
    },
    {
      "channel": 5,
      "note": 7,
      "start": 183.5374,
      "duration": 2.3158,
      "velocity": 1,
      "chip": "ym2612"
    },
    {
      "channel": 0,
      "note": 33,
      "start": 183.6824,
      "duration": 0.0826,
      "velocity": 117,
      "chip": "ym2612"
    },
    {
      "channel": 0,
      "note": 33,
      "start": 183.8314,
      "duration": 0.0826,
      "velocity": 117,
      "chip": "ym2612"
    },
    {
      "channel": 1,
      "note": 33,
      "start": 183.8322,
      "duration": 0.2314,
      "velocity": 87,
      "chip": "ym2612"
    },
    {
      "channel": 3,
      "note": 84,
      "start": 183.8338,
      "duration": 0.2969,
      "velocity": 113,
      "chip": "ym2612"
    },
    {
      "channel": 0,
      "note": 45,
      "start": 183.9804,
      "duration": 0.0826,
      "velocity": 117,
      "chip": "ym2612"
    },
    {
      "channel": 0,
      "note": 33,
      "start": 184.1293,
      "duration": 0.0826,
      "velocity": 117,
      "chip": "ym2612"
    },
    {
      "channel": 1,
      "note": 21,
      "start": 184.1301,
      "duration": 0.2314,
      "velocity": 87,
      "chip": "ym2612"
    },
    {
      "channel": 3,
      "note": 24,
      "start": 184.1318,
      "duration": 0.2969,
      "velocity": 126,
      "chip": "ym2612"
    },
    {
      "channel": 0,
      "note": 45,
      "start": 184.2783,
      "duration": 0.0826,
      "velocity": 117,
      "chip": "ym2612"
    },
    {
      "channel": 0,
      "note": 33,
      "start": 184.4273,
      "duration": 0.0826,
      "velocity": 117,
      "chip": "ym2612"
    },
    {
      "channel": 1,
      "note": 21,
      "start": 184.428,
      "duration": 0.1484,
      "velocity": 87,
      "chip": "ym2612"
    },
    {
      "channel": 3,
      "note": 45,
      "start": 184.4297,
      "duration": 0.2969,
      "velocity": 122,
      "chip": "ym2612"
    },
    {
      "channel": 0,
      "note": 45,
      "start": 184.5762,
      "duration": 0.0826,
      "velocity": 117,
      "chip": "ym2612"
    },
    {
      "channel": 1,
      "note": 33,
      "start": 184.577,
      "duration": 0.1483,
      "velocity": 87,
      "chip": "ym2612"
    },
    {
      "channel": 0,
      "note": 33,
      "start": 184.7252,
      "duration": 0.0826,
      "velocity": 117,
      "chip": "ym2612"
    },
    {
      "channel": 1,
      "note": 21,
      "start": 184.726,
      "duration": 0.1483,
      "velocity": 87,
      "chip": "ym2612"
    },
    {
      "channel": 3,
      "note": 45,
      "start": 184.7271,
      "duration": 0.5954,
      "velocity": 122,
      "chip": "ym2612"
    },
    {
      "channel": 0,
      "note": 33,
      "start": 184.8742,
      "duration": 0.0826,
      "velocity": 117,
      "chip": "ym2612"
    },
    {
      "channel": 1,
      "note": 33,
      "start": 184.875,
      "duration": 0.2315,
      "velocity": 87,
      "chip": "ym2612"
    },
    {
      "channel": 0,
      "note": 33,
      "start": 185.0232,
      "duration": 0.1485,
      "velocity": 117,
      "chip": "ym2612"
    },
    {
      "channel": 0,
      "note": 45,
      "start": 185.1721,
      "duration": 0.0826,
      "velocity": 117,
      "chip": "ym2612"
    },
    {
      "channel": 1,
      "note": 21,
      "start": 185.1729,
      "duration": 0.1483,
      "velocity": 87,
      "chip": "ym2612"
    },
    {
      "channel": 0,
      "note": 33,
      "start": 185.3211,
      "duration": 0.0826,
      "velocity": 117,
      "chip": "ym2612"
    },
    {
      "channel": 1,
      "note": 33,
      "start": 185.3218,
      "duration": 0.1484,
      "velocity": 87,
      "chip": "ym2612"
    },
    {
      "channel": 3,
      "note": 21,
      "start": 185.3236,
      "duration": 0.595,
      "velocity": 126,
      "chip": "ym2612"
    },
    {
      "channel": 0,
      "note": 33,
      "start": 185.4701,
      "duration": 0.0826,
      "velocity": 117,
      "chip": "ym2612"
    },
    {
      "channel": 1,
      "note": 21,
      "start": 185.4708,
      "duration": 0.1484,
      "velocity": 87,
      "chip": "ym2612"
    },
    {
      "channel": 0,
      "note": 33,
      "start": 185.619,
      "duration": 0.0826,
      "velocity": 117,
      "chip": "ym2612"
    },
    {
      "channel": 1,
      "note": 33,
      "start": 185.6198,
      "duration": 0.1483,
      "velocity": 87,
      "chip": "ym2612"
    },
    {
      "channel": 0,
      "note": 33,
      "start": 185.768,
      "duration": 0.0826,
      "velocity": 117,
      "chip": "ym2612"
    },
    {
      "channel": 1,
      "note": 21,
      "start": 185.7688,
      "duration": 0.0824,
      "velocity": 87,
      "chip": "ym2612"
    },
    {
      "channel": 0,
      "note": 33,
      "start": 185.917,
      "duration": 0.0826,
      "velocity": 117,
      "chip": "ym2612"
    },
    {
      "channel": 1,
      "note": 21,
      "start": 185.9178,
      "duration": 0.2314,
      "velocity": 87,
      "chip": "ym2612"
    },
    {
      "channel": 2,
      "note": 7,
      "start": 185.9184,
      "duration": 2.3168,
      "velocity": 1,
      "chip": "ym2612"
    },
    {
      "channel": 3,
      "note": 45,
      "start": 185.9197,
      "duration": 0.2966,
      "velocity": 122,
      "chip": "ym2612"
    },
    {
      "channel": 4,
      "note": 7,
      "start": 185.9204,
      "duration": 2.3159,
      "velocity": 1,
      "chip": "ym2612"
    },
    {
      "channel": 5,
      "note": 7,
      "start": 185.921,
      "duration": 2.3157,
      "velocity": 1,
      "chip": "ym2612"
    },
    {
      "channel": 0,
      "note": 33,
      "start": 186.066,
      "duration": 0.0826,
      "velocity": 117,
      "chip": "ym2612"
    },
    {
      "channel": 0,
      "note": 33,
      "start": 186.2149,
      "duration": 0.0826,
      "velocity": 117,
      "chip": "ym2612"
    },
    {
      "channel": 1,
      "note": 33,
      "start": 186.2157,
      "duration": 0.1484,
      "velocity": 87,
      "chip": "ym2612"
    },
    {
      "channel": 3,
      "note": 72,
      "start": 186.2174,
      "duration": 0.2968,
      "velocity": 113,
      "chip": "ym2612"
    },
    {
      "channel": 0,
      "note": 45,
      "start": 186.3639,
      "duration": 0.0826,
      "velocity": 117,
      "chip": "ym2612"
    },
    {
      "channel": 1,
      "note": 21,
      "start": 186.3646,
      "duration": 0.1484,
      "velocity": 87,
      "chip": "ym2612"
    },
    {
      "channel": 0,
      "note": 33,
      "start": 186.5129,
      "duration": 0.0826,
      "velocity": 117,
      "chip": "ym2612"
    },
    {
      "channel": 1,
      "note": 33,
      "start": 186.5137,
      "duration": 0.2314,
      "velocity": 87,
      "chip": "ym2612"
    },
    {
      "channel": 3,
      "note": 24,
      "start": 186.5153,
      "duration": 0.2969,
      "velocity": 126,
      "chip": "ym2612"
    },
    {
      "channel": 0,
      "note": 45,
      "start": 186.6619,
      "duration": 0.0826,
      "velocity": 117,
      "chip": "ym2612"
    },
    {
      "channel": 0,
      "note": 33,
      "start": 186.8108,
      "duration": 0.0826,
      "velocity": 117,
      "chip": "ym2612"
    },
    {
      "channel": 1,
      "note": 21,
      "start": 186.8116,
      "duration": 0.1483,
      "velocity": 87,
      "chip": "ym2612"
    },
    {
      "channel": 3,
      "note": 45,
      "start": 186.8133,
      "duration": 0.2969,
      "velocity": 122,
      "chip": "ym2612"
    },
    {
      "channel": 0,
      "note": 45,
      "start": 186.9598,
      "duration": 0.0826,
      "velocity": 117,
      "chip": "ym2612"
    },
    {
      "channel": 1,
      "note": 33,
      "start": 186.9606,
      "duration": 0.1483,
      "velocity": 87,
      "chip": "ym2612"
    },
    {
      "channel": 0,
      "note": 33,
      "start": 187.1088,
      "duration": 0.0826,
      "velocity": 117,
      "chip": "ym2612"
    },
    {
      "channel": 1,
      "note": 21,
      "start": 187.1095,
      "duration": 0.1484,
      "velocity": 87,
      "chip": "ym2612"
    },
    {
      "channel": 3,
      "note": 45,
      "start": 187.1107,
      "duration": 0.5954,
      "velocity": 122,
      "chip": "ym2612"
    },
    {
      "channel": 0,
      "note": 33,
      "start": 187.2577,
      "duration": 0.0826,
      "velocity": 117,
      "chip": "ym2612"
    },
    {
      "channel": 1,
      "note": 21,
      "start": 187.2585,
      "duration": 0.1484,
      "velocity": 87,
      "chip": "ym2612"
    },
    {
      "channel": 0,
      "note": 33,
      "start": 187.4068,
      "duration": 0.1485,
      "velocity": 117,
      "chip": "ym2612"
    },
    {
      "channel": 1,
      "note": 33,
      "start": 187.4075,
      "duration": 0.1483,
      "velocity": 87,
      "chip": "ym2612"
    },
    {
      "channel": 0,
      "note": 45,
      "start": 187.5557,
      "duration": 0.0826,
      "velocity": 117,
      "chip": "ym2612"
    },
    {
      "channel": 1,
      "note": 21,
      "start": 187.5565,
      "duration": 0.1483,
      "velocity": 87,
      "chip": "ym2612"
    },
    {
      "channel": 0,
      "note": 33,
      "start": 187.7047,
      "duration": 0.0826,
      "velocity": 117,
      "chip": "ym2612"
    },
    {
      "channel": 1,
      "note": 33,
      "start": 187.7054,
      "duration": 0.1483,
      "velocity": 87,
      "chip": "ym2612"
    },
    {
      "channel": 3,
      "note": 24,
      "start": 187.7071,
      "duration": 0.595,
      "velocity": 126,
      "chip": "ym2612"
    },
    {
      "channel": 0,
      "note": 33,
      "start": 187.8537,
      "duration": 0.0826,
      "velocity": 117,
      "chip": "ym2612"
    },
    {
      "channel": 1,
      "note": 21,
      "start": 187.8544,
      "duration": 0.1483,
      "velocity": 87,
      "chip": "ym2612"
    },
    {
      "channel": 0,
      "note": 33,
      "start": 188.0026,
      "duration": 0.0826,
      "velocity": 117,
      "chip": "ym2612"
    },
    {
      "channel": 1,
      "note": 21,
      "start": 188.0034,
      "duration": 0.1483,
      "velocity": 87,
      "chip": "ym2612"
    },
    {
      "channel": 0,
      "note": 33,
      "start": 188.1516,
      "duration": 0.0826,
      "velocity": 117,
      "chip": "ym2612"
    },
    {
      "channel": 1,
      "note": 33,
      "start": 188.1523,
      "duration": 0.1484,
      "velocity": 87,
      "chip": "ym2612"
    },
    {
      "channel": 0,
      "note": 33,
      "start": 188.3005,
      "duration": 0.0826,
      "velocity": 117,
      "chip": "ym2612"
    },
    {
      "channel": 1,
      "note": 21,
      "start": 188.3013,
      "duration": 0.2315,
      "velocity": 87,
      "chip": "ym2612"
    },
    {
      "channel": 2,
      "note": 7,
      "start": 188.302,
      "duration": 2.3169,
      "velocity": 1,
      "chip": "ym2612"
    },
    {
      "channel": 3,
      "note": 45,
      "start": 188.3033,
      "duration": 0.2966,
      "velocity": 122,
      "chip": "ym2612"
    },
    {
      "channel": 4,
      "note": 7,
      "start": 188.3039,
      "duration": 2.316,
      "velocity": 1,
      "chip": "ym2612"
    },
    {
      "channel": 5,
      "note": 7,
      "start": 188.3045,
      "duration": 2.3158,
      "velocity": 1,
      "chip": "ym2612"
    },
    {
      "channel": 0,
      "note": 33,
      "start": 188.4495,
      "duration": 0.0826,
      "velocity": 117,
      "chip": "ym2612"
    },
    {
      "channel": 0,
      "note": 33,
      "start": 188.5985,
      "duration": 0.0826,
      "velocity": 117,
      "chip": "ym2612"
    },
    {
      "channel": 1,
      "note": 33,
      "start": 188.5993,
      "duration": 0.2314,
      "velocity": 87,
      "chip": "ym2612"
    },
    {
      "channel": 3,
      "note": 84,
      "start": 188.6009,
      "duration": 0.2969,
      "velocity": 113,
      "chip": "ym2612"
    },
    {
      "channel": 0,
      "note": 45,
      "start": 188.7475,
      "duration": 0.0826,
      "velocity": 117,
      "chip": "ym2612"
    },
    {
      "channel": 0,
      "note": 33,
      "start": 188.8965,
      "duration": 0.0826,
      "velocity": 117,
      "chip": "ym2612"
    },
    {
      "channel": 1,
      "note": 21,
      "start": 188.8972,
      "duration": 0.2314,
      "velocity": 87,
      "chip": "ym2612"
    },
    {
      "channel": 3,
      "note": 24,
      "start": 188.8989,
      "duration": 0.2969,
      "velocity": 126,
      "chip": "ym2612"
    },
    {
      "channel": 0,
      "note": 45,
      "start": 189.0454,
      "duration": 0.0827,
      "velocity": 117,
      "chip": "ym2612"
    },
    {
      "channel": 0,
      "note": 33,
      "start": 189.1944,
      "duration": 0.0826,
      "velocity": 117,
      "chip": "ym2612"
    },
    {
      "channel": 1,
      "note": 21,
      "start": 189.1951,
      "duration": 0.1484,
      "velocity": 87,
      "chip": "ym2612"
    },
    {
      "channel": 3,
      "note": 45,
      "start": 189.1968,
      "duration": 0.2969,
      "velocity": 122,
      "chip": "ym2612"
    },
    {
      "channel": 0,
      "note": 45,
      "start": 189.3434,
      "duration": 0.0826,
      "velocity": 117,
      "chip": "ym2612"
    },
    {
      "channel": 1,
      "note": 33,
      "start": 189.3441,
      "duration": 0.1484,
      "velocity": 87,
      "chip": "ym2612"
    },
    {
      "channel": 0,
      "note": 33,
      "start": 189.4923,
      "duration": 0.0826,
      "velocity": 117,
      "chip": "ym2612"
    },
    {
      "channel": 1,
      "note": 21,
      "start": 189.4931,
      "duration": 0.1483,
      "velocity": 87,
      "chip": "ym2612"
    },
    {
      "channel": 3,
      "note": 45,
      "start": 189.4942,
      "duration": 0.5954,
      "velocity": 122,
      "chip": "ym2612"
    },
    {
      "channel": 0,
      "note": 33,
      "start": 189.6413,
      "duration": 0.0826,
      "velocity": 117,
      "chip": "ym2612"
    },
    {
      "channel": 1,
      "note": 33,
      "start": 189.6421,
      "duration": 0.2315,
      "velocity": 87,
      "chip": "ym2612"
    },
    {
      "channel": 0,
      "note": 33,
      "start": 189.7903,
      "duration": 0.1485,
      "velocity": 117,
      "chip": "ym2612"
    },
    {
      "channel": 0,
      "note": 45,
      "start": 189.9393,
      "duration": 0.0826,
      "velocity": 117,
      "chip": "ym2612"
    },
    {
      "channel": 1,
      "note": 21,
      "start": 189.9401,
      "duration": 0.1483,
      "velocity": 87,
      "chip": "ym2612"
    },
    {
      "channel": 0,
      "note": 33,
      "start": 190.0882,
      "duration": 0.0827,
      "velocity": 117,
      "chip": "ym2612"
    },
    {
      "channel": 1,
      "note": 33,
      "start": 190.089,
      "duration": 0.1484,
      "velocity": 87,
      "chip": "ym2612"
    },
    {
      "channel": 3,
      "note": 21,
      "start": 190.0907,
      "duration": 0.595,
      "velocity": 126,
      "chip": "ym2612"
    },
    {
      "channel": 0,
      "note": 33,
      "start": 190.2372,
      "duration": 0.0826,
      "velocity": 117,
      "chip": "ym2612"
    },
    {
      "channel": 1,
      "note": 21,
      "start": 190.2379,
      "duration": 0.1484,
      "velocity": 87,
      "chip": "ym2612"
    },
    {
      "channel": 0,
      "note": 33,
      "start": 190.3862,
      "duration": 0.0826,
      "velocity": 117,
      "chip": "ym2612"
    },
    {
      "channel": 1,
      "note": 33,
      "start": 190.3869,
      "duration": 0.1483,
      "velocity": 87,
      "chip": "ym2612"
    },
    {
      "channel": 0,
      "note": 33,
      "start": 190.5351,
      "duration": 0.0826,
      "velocity": 117,
      "chip": "ym2612"
    },
    {
      "channel": 1,
      "note": 21,
      "start": 190.5359,
      "duration": 0.0825,
      "velocity": 87,
      "chip": "ym2612"
    },
    {
      "channel": 0,
      "note": 35,
      "start": 190.6841,
      "duration": 0.0826,
      "velocity": 117,
      "chip": "ym2612"
    },
    {
      "channel": 1,
      "note": 21,
      "start": 190.6849,
      "duration": 0.2314,
      "velocity": 87,
      "chip": "ym2612"
    },
    {
      "channel": 2,
      "note": 7,
      "start": 190.6855,
      "duration": 2.3169,
      "velocity": 1,
      "chip": "ym2612"
    },
    {
      "channel": 3,
      "note": 45,
      "start": 190.6868,
      "duration": 0.2966,
      "velocity": 122,
      "chip": "ym2612"
    },
    {
      "channel": 4,
      "note": 7,
      "start": 190.6875,
      "duration": 2.3159,
      "velocity": 1,
      "chip": "ym2612"
    },
    {
      "channel": 5,
      "note": 7,
      "start": 190.6881,
      "duration": 2.3158,
      "velocity": 1,
      "chip": "ym2612"
    },
    {
      "channel": 0,
      "note": 35,
      "start": 190.8331,
      "duration": 0.0826,
      "velocity": 117,
      "chip": "ym2612"
    },
    {
      "channel": 0,
      "note": 35,
      "start": 190.9821,
      "duration": 0.0826,
      "velocity": 117,
      "chip": "ym2612"
    },
    {
      "channel": 1,
      "note": 33,
      "start": 190.9829,
      "duration": 0.1483,
      "velocity": 87,
      "chip": "ym2612"
    },
    {
      "channel": 3,
      "note": 72,
      "start": 190.9845,
      "duration": 0.2969,
      "velocity": 113,
      "chip": "ym2612"
    },
    {
      "channel": 0,
      "note": 47,
      "start": 191.131,
      "duration": 0.0827,
      "velocity": 117,
      "chip": "ym2612"
    },
    {
      "channel": 1,
      "note": 21,
      "start": 191.1318,
      "duration": 0.1484,
      "velocity": 87,
      "chip": "ym2612"
    },
    {
      "channel": 0,
      "note": 35,
      "start": 191.28,
      "duration": 0.0826,
      "velocity": 117,
      "chip": "ym2612"
    },
    {
      "channel": 1,
      "note": 33,
      "start": 191.2807,
      "duration": 0.2315,
      "velocity": 87,
      "chip": "ym2612"
    },
    {
      "channel": 3,
      "note": 24,
      "start": 191.2825,
      "duration": 0.2968,
      "velocity": 126,
      "chip": "ym2612"
    },
    {
      "channel": 0,
      "note": 35,
      "start": 191.429,
      "duration": 0.0826,
      "velocity": 117,
      "chip": "ym2612"
    },
    {
      "channel": 0,
      "note": 47,
      "start": 191.578,
      "duration": 0.0826,
      "velocity": 117,
      "chip": "ym2612"
    },
    {
      "channel": 1,
      "note": 21,
      "start": 191.5787,
      "duration": 0.1483,
      "velocity": 87,
      "chip": "ym2612"
    },
    {
      "channel": 3,
      "note": 45,
      "start": 191.5804,
      "duration": 0.297,
      "velocity": 122,
      "chip": "ym2612"
    },
    {
      "channel": 0,
      "note": 35,
      "start": 191.7269,
      "duration": 0.0826,
      "velocity": 117,
      "chip": "ym2612"
    },
    {
      "channel": 1,
      "note": 33,
      "start": 191.7277,
      "duration": 0.1483,
      "velocity": 87,
      "chip": "ym2612"
    },
    {
      "channel": 0,
      "note": 35,
      "start": 191.8759,
      "duration": 0.0826,
      "velocity": 117,
      "chip": "ym2612"
    },
    {
      "channel": 1,
      "note": 21,
      "start": 191.8767,
      "duration": 0.1483,
      "velocity": 87,
      "chip": "ym2612"
    },
    {
      "channel": 3,
      "note": 45,
      "start": 191.8778,
      "duration": 0.5954,
      "velocity": 122,
      "chip": "ym2612"
    },
    {
      "channel": 0,
      "note": 35,
      "start": 192.0248,
      "duration": 0.0826,
      "velocity": 117,
      "chip": "ym2612"
    },
    {
      "channel": 1,
      "note": 21,
      "start": 192.0256,
      "duration": 0.1484,
      "velocity": 87,
      "chip": "ym2612"
    },
    {
      "channel": 0,
      "note": 35,
      "start": 192.1738,
      "duration": 0.1485,
      "velocity": 117,
      "chip": "ym2612"
    },
    {
      "channel": 1,
      "note": 33,
      "start": 192.1746,
      "duration": 0.1484,
      "velocity": 87,
      "chip": "ym2612"
    },
    {
      "channel": 0,
      "note": 47,
      "start": 192.3229,
      "duration": 0.0826,
      "velocity": 117,
      "chip": "ym2612"
    },
    {
      "channel": 1,
      "note": 21,
      "start": 192.3236,
      "duration": 0.1483,
      "velocity": 87,
      "chip": "ym2612"
    },
    {
      "channel": 0,
      "note": 35,
      "start": 192.4718,
      "duration": 0.0826,
      "velocity": 117,
      "chip": "ym2612"
    },
    {
      "channel": 1,
      "note": 33,
      "start": 192.4725,
      "duration": 0.1483,
      "velocity": 87,
      "chip": "ym2612"
    },
    {
      "channel": 3,
      "note": 24,
      "start": 192.4743,
      "duration": 0.595,
      "velocity": 126,
      "chip": "ym2612"
    },
    {
      "channel": 0,
      "note": 35,
      "start": 192.6208,
      "duration": 0.0826,
      "velocity": 117,
      "chip": "ym2612"
    },
    {
      "channel": 1,
      "note": 21,
      "start": 192.6215,
      "duration": 0.1483,
      "velocity": 87,
      "chip": "ym2612"
    },
    {
      "channel": 0,
      "note": 47,
      "start": 192.7698,
      "duration": 0.0826,
      "velocity": 117,
      "chip": "ym2612"
    },
    {
      "channel": 1,
      "note": 21,
      "start": 192.7705,
      "duration": 0.1483,
      "velocity": 87,
      "chip": "ym2612"
    },
    {
      "channel": 0,
      "note": 35,
      "start": 192.9187,
      "duration": 0.0826,
      "velocity": 117,
      "chip": "ym2612"
    },
    {
      "channel": 1,
      "note": 33,
      "start": 192.9194,
      "duration": 0.1484,
      "velocity": 87,
      "chip": "ym2612"
    },
    {
      "channel": 0,
      "note": 34,
      "start": 193.0676,
      "duration": 0.1485,
      "velocity": 117,
      "chip": "ym2612"
    },
    {
      "channel": 1,
      "note": 21,
      "start": 193.0684,
      "duration": 0.2314,
      "velocity": 87,
      "chip": "ym2612"
    },
    {
      "channel": 2,
      "note": 7,
      "start": 193.0691,
      "duration": 2.3168,
      "velocity": 1,
      "chip": "ym2612"
    },
    {
      "channel": 3,
      "note": 45,
      "start": 193.0704,
      "duration": 0.2966,
      "velocity": 122,
      "chip": "ym2612"
    },
    {
      "channel": 4,
      "note": 7,
      "start": 193.071,
      "duration": 2.3159,
      "velocity": 1,
      "chip": "ym2612"
    },
    {
      "channel": 5,
      "note": 7,
      "start": 193.0717,
      "duration": 2.3158,
      "velocity": 1,
      "chip": "ym2612"
    },
    {
      "channel": 0,
      "note": 34,
      "start": 193.2166,
      "duration": 0.1485,
      "velocity": 117,
      "chip": "ym2612"
    },
    {
      "channel": 0,
      "note": 34,
      "start": 193.3656,
      "duration": 0.1485,
      "velocity": 117,
      "chip": "ym2612"
    },
    {
      "channel": 1,
      "note": 33,
      "start": 193.3664,
      "duration": 0.2314,
      "velocity": 87,
      "chip": "ym2612"
    },
    {
      "channel": 3,
      "note": 84,
      "start": 193.368,
      "duration": 0.2969,
      "velocity": 113,
      "chip": "ym2612"
    },
    {
      "channel": 0,
      "note": 46,
      "start": 193.5146,
      "duration": 0.1485,
      "velocity": 117,
      "chip": "ym2612"
    },
    {
      "channel": 0,
      "note": 34,
      "start": 193.6636,
      "duration": 0.1485,
      "velocity": 117,
      "chip": "ym2612"
    },
    {
      "channel": 1,
      "note": 21,
      "start": 193.6643,
      "duration": 0.2314,
      "velocity": 87,
      "chip": "ym2612"
    },
    {
      "channel": 3,
      "note": 24,
      "start": 193.666,
      "duration": 0.2969,
      "velocity": 126,
      "chip": "ym2612"
    },
    {
      "channel": 0,
      "note": 34,
      "start": 193.8126,
      "duration": 0.1485,
      "velocity": 117,
      "chip": "ym2612"
    },
    {
      "channel": 0,
      "note": 46,
      "start": 193.9615,
      "duration": 0.1485,
      "velocity": 117,
      "chip": "ym2612"
    },
    {
      "channel": 1,
      "note": 21,
      "start": 193.9622,
      "duration": 0.1484,
      "velocity": 87,
      "chip": "ym2612"
    },
    {
      "channel": 3,
      "note": 45,
      "start": 193.964,
      "duration": 0.2969,
      "velocity": 122,
      "chip": "ym2612"
    },
    {
      "channel": 0,
      "note": 34,
      "start": 194.1105,
      "duration": 0.1485,
      "velocity": 117,
      "chip": "ym2612"
    },
    {
      "channel": 1,
      "note": 33,
      "start": 194.1112,
      "duration": 0.1484,
      "velocity": 87,
      "chip": "ym2612"
    },
    {
      "channel": 0,
      "note": 34,
      "start": 194.2594,
      "duration": 0.1485,
      "velocity": 117,
      "chip": "ym2612"
    },
    {
      "channel": 1,
      "note": 21,
      "start": 194.2602,
      "duration": 0.1483,
      "velocity": 87,
      "chip": "ym2612"
    },
    {
      "channel": 3,
      "note": 45,
      "start": 194.2613,
      "duration": 0.5955,
      "velocity": 122,
      "chip": "ym2612"
    },
    {
      "channel": 0,
      "note": 34,
      "start": 194.4084,
      "duration": 0.1485,
      "velocity": 117,
      "chip": "ym2612"
    },
    {
      "channel": 1,
      "note": 33,
      "start": 194.4092,
      "duration": 0.2315,
      "velocity": 87,
      "chip": "ym2612"
    },
    {
      "channel": 0,
      "note": 34,
      "start": 194.5574,
      "duration": 0.1485,
      "velocity": 117,
      "chip": "ym2612"
    },
    {
      "channel": 0,
      "note": 46,
      "start": 194.7065,
      "duration": 0.1484,
      "velocity": 117,
      "chip": "ym2612"
    },
    {
      "channel": 1,
      "note": 21,
      "start": 194.7072,
      "duration": 0.1483,
      "velocity": 87,
      "chip": "ym2612"
    },
    {
      "channel": 0,
      "note": 34,
      "start": 194.8554,
      "duration": 0.1485,
      "velocity": 117,
      "chip": "ym2612"
    },
    {
      "channel": 1,
      "note": 33,
      "start": 194.8561,
      "duration": 0.1483,
      "velocity": 87,
      "chip": "ym2612"
    },
    {
      "channel": 3,
      "note": 21,
      "start": 194.8578,
      "duration": 0.5967,
      "velocity": 126,
      "chip": "ym2612"
    },
    {
      "channel": 0,
      "note": 34,
      "start": 195.0043,
      "duration": 0.1485,
      "velocity": 117,
      "chip": "ym2612"
    },
    {
      "channel": 1,
      "note": 21,
      "start": 195.0051,
      "duration": 0.1484,
      "velocity": 87,
      "chip": "ym2612"
    },
    {
      "channel": 0,
      "note": 46,
      "start": 195.1533,
      "duration": 0.1485,
      "velocity": 117,
      "chip": "ym2612"
    },
    {
      "channel": 1,
      "note": 33,
      "start": 195.154,
      "duration": 0.1484,
      "velocity": 87,
      "chip": "ym2612"
    },
    {
      "channel": 0,
      "note": 34,
      "start": 195.3022,
      "duration": 0.1485,
      "velocity": 117,
      "chip": "ym2612"
    },
    {
      "channel": 1,
      "note": 21,
      "start": 195.303,
      "duration": 0.0824,
      "velocity": 87,
      "chip": "ym2612"
    },
    {
      "channel": 0,
      "note": 33,
      "start": 195.4519,
      "duration": 2.3824,
      "velocity": 108,
      "chip": "ym2612"
    },
    {
      "channel": 1,
      "note": 33,
      "start": 195.4531,
      "duration": 0.0813,
      "velocity": 117,
      "chip": "ym2612"
    },
    {
      "channel": 2,
      "note": 33,
      "start": 195.4544,
      "duration": 2.3812,
      "velocity": 108,
      "chip": "ym2612"
    },
    {
      "channel": 3,
      "note": 21,
      "start": 195.4556,
      "duration": 3.5061,
      "velocity": 124,
      "chip": "ym2612"
    },
    {
      "channel": 4,
      "note": 53,
      "start": 195.457,
      "duration": 0.1617,
      "velocity": 1,
      "chip": "ym2612"
    },
    {
      "channel": 5,
      "note": 69,
      "start": 195.4582,
      "duration": 0.1443,
      "velocity": 59,
      "chip": "ym2612"
    },
    {
      "channel": 1,
      "note": 33,
      "start": 195.6007,
      "duration": 0.0826,
      "velocity": 117,
      "chip": "ym2612"
    },
    {
      "channel": 5,
      "note": 69,
      "start": 195.6035,
      "duration": 0.1478,
      "velocity": 63,
      "chip": "ym2612"
    },
    {
      "channel": 1,
      "note": 33,
      "start": 195.7497,
      "duration": 0.0826,
      "velocity": 117,
      "chip": "ym2612"
    },
    {
      "channel": 5,
      "note": 69,
      "start": 195.7524,
      "duration": 0.1486,
      "velocity": 59,
      "chip": "ym2612"
    },
    {
      "channel": 1,
      "note": 45,
      "start": 195.8987,
      "duration": 0.0826,
      "velocity": 117,
      "chip": "ym2612"
    },
    {
      "channel": 4,
      "note": 62,
      "start": 195.9009,
      "duration": 0.1478,
      "velocity": 59,
      "chip": "ym2612"
    },
    {
      "channel": 5,
      "note": 69,
      "start": 195.9016,
      "duration": 0.1485,
      "velocity": 59,
      "chip": "ym2612"
    },
    {
      "channel": 1,
      "note": 33,
      "start": 196.0477,
      "duration": 0.0826,
      "velocity": 117,
      "chip": "ym2612"
    },
    {
      "channel": 4,
      "note": 53,
      "start": 196.05,
      "duration": 0.1646,
      "velocity": 1,
      "chip": "ym2612"
    },
    {
      "channel": 5,
      "note": 69,
      "start": 196.0512,
      "duration": 0.1471,
      "velocity": 63,
      "chip": "ym2612"
    },
    {
      "channel": 1,
      "note": 45,
      "start": 196.1967,
      "duration": 0.0826,
      "velocity": 117,
      "chip": "ym2612"
    },
    {
      "channel": 5,
      "note": 69,
      "start": 196.1994,
      "duration": 0.1486,
      "velocity": 59,
      "chip": "ym2612"
    },
    {
      "channel": 1,
      "note": 33,
      "start": 196.3456,
      "duration": 0.0826,
      "velocity": 117,
      "chip": "ym2612"
    },
    {
      "channel": 4,
      "note": 22,
      "start": 196.3478,
      "duration": 0.1479,
      "velocity": 127,
      "chip": "ym2612"
    },
    {
      "channel": 5,
      "note": 69,
      "start": 196.3485,
      "duration": 0.1478,
      "velocity": 59,
      "chip": "ym2612"
    },
    {
      "channel": 1,
      "note": 45,
      "start": 196.4946,
      "duration": 0.0826,
      "velocity": 117,
      "chip": "ym2612"
    },
    {
      "channel": 4,
      "note": 22,
      "start": 196.4962,
      "duration": 0.1485,
      "velocity": 127,
      "chip": "ym2612"
    },
    {
      "channel": 5,
      "note": 69,
      "start": 196.4974,
      "duration": 0.0648,
      "velocity": 63,
      "chip": "ym2612"
    },
    {
      "channel": 5,
      "note": 81,
      "start": 196.5633,
      "duration": 0.0827,
      "velocity": 59,
      "chip": "ym2612"
    },
    {
      "channel": 1,
      "note": 33,
      "start": 196.6435,
      "duration": 0.0826,
      "velocity": 117,
      "chip": "ym2612"
    },
    {
      "channel": 4,
      "note": 53,
      "start": 196.6458,
      "duration": 0.1646,
      "velocity": 1,
      "chip": "ym2612"
    },
    {
      "channel": 5,
      "note": 74,
      "start": 196.6465,
      "duration": 0.1477,
      "velocity": 59,
      "chip": "ym2612"
    },
    {
      "channel": 1,
      "note": 33,
      "start": 196.7925,
      "duration": 0.0826,
      "velocity": 117,
      "chip": "ym2612"
    },
    {
      "channel": 5,
      "note": 69,
      "start": 196.7953,
      "duration": 0.1478,
      "velocity": 63,
      "chip": "ym2612"
    },
    {
      "channel": 1,
      "note": 33,
      "start": 196.9415,
      "duration": 0.1485,
      "velocity": 117,
      "chip": "ym2612"
    },
    {
      "channel": 5,
      "note": 69,
      "start": 196.9442,
      "duration": 0.148,
      "velocity": 59,
      "chip": "ym2612"
    },
    {
      "channel": 1,
      "note": 45,
      "start": 197.0905,
      "duration": 0.0827,
      "velocity": 117,
      "chip": "ym2612"
    },
    {
      "channel": 5,
      "note": 69,
      "start": 197.0927,
      "duration": 0.1486,
      "velocity": 59,
      "chip": "ym2612"
    },
    {
      "channel": 1,
      "note": 33,
      "start": 197.2395,
      "duration": 0.0826,
      "velocity": 117,
      "chip": "ym2612"
    },
    {
      "channel": 4,
      "note": 53,
      "start": 197.2412,
      "duration": 0.1652,
      "velocity": 1,
      "chip": "ym2612"
    },
    {
      "channel": 5,
      "note": 69,
      "start": 197.2424,
      "duration": 0.1478,
      "velocity": 63,
      "chip": "ym2612"
    },
    {
      "channel": 1,
      "note": 33,
      "start": 197.3884,
      "duration": 0.0826,
      "velocity": 117,
      "chip": "ym2612"
    },
    {
      "channel": 5,
      "note": 69,
      "start": 197.3912,
      "duration": 0.1478,
      "velocity": 59,
      "chip": "ym2612"
    },
    {
      "channel": 1,
      "note": 33,
      "start": 197.5374,
      "duration": 0.0826,
      "velocity": 117,
      "chip": "ym2612"
    },
    {
      "channel": 5,
      "note": 69,
      "start": 197.5396,
      "duration": 0.1484,
      "velocity": 59,
      "chip": "ym2612"
    },
    {
      "channel": 1,
      "note": 33,
      "start": 197.6863,
      "duration": 0.0826,
      "velocity": 117,
      "chip": "ym2612"
    },
    {
      "channel": 5,
      "note": 69,
      "start": 197.6892,
      "duration": 0.1483,
      "velocity": 63,
      "chip": "ym2612"
    },
    {
      "channel": 0,
      "note": 28,
      "start": 197.8349,
      "duration": 2.383,
      "velocity": 108,
      "chip": "ym2612"
    },
    {
      "channel": 1,
      "note": 33,
      "start": 197.8355,
      "duration": 0.0824,
      "velocity": 117,
      "chip": "ym2612"
    },
    {
      "channel": 2,
      "note": 33,
      "start": 197.8362,
      "duration": 2.383,
      "velocity": 108,
      "chip": "ym2612"
    },
    {
      "channel": 4,
      "note": 53,
      "start": 197.8374,
      "duration": 0.1649,
      "velocity": 1,
      "chip": "ym2612"
    },
    {
      "channel": 5,
      "note": 69,
      "start": 197.8386,
      "duration": 0.1475,
      "velocity": 59,
      "chip": "ym2612"
    },
    {
      "channel": 1,
      "note": 33,
      "start": 197.9843,
      "duration": 0.0826,
      "velocity": 117,
      "chip": "ym2612"
    },
    {
      "channel": 5,
      "note": 69,
      "start": 197.9871,
      "duration": 0.1485,
      "velocity": 63,
      "chip": "ym2612"
    },
    {
      "channel": 1,
      "note": 33,
      "start": 198.1333,
      "duration": 0.0826,
      "velocity": 117,
      "chip": "ym2612"
    },
    {
      "channel": 4,
      "note": 62,
      "start": 198.1355,
      "duration": 0.1479,
      "velocity": 59,
      "chip": "ym2612"
    },
    {
      "channel": 5,
      "note": 69,
      "start": 198.1367,
      "duration": 0.1473,
      "velocity": 59,
      "chip": "ym2612"
    },
    {
      "channel": 1,
      "note": 45,
      "start": 198.2822,
      "duration": 0.0826,
      "velocity": 117,
      "chip": "ym2612"
    },
    {
      "channel": 4,
      "note": 62,
      "start": 198.2839,
      "duration": 0.1485,
      "velocity": 59,
      "chip": "ym2612"
    },
    {
      "channel": 5,
      "note": 69,
      "start": 198.2845,
      "duration": 0.1491,
      "velocity": 59,
      "chip": "ym2612"
    },
    {
      "channel": 1,
      "note": 33,
      "start": 198.4312,
      "duration": 0.0826,
      "velocity": 117,
      "chip": "ym2612"
    },
    {
      "channel": 4,
      "note": 53,
      "start": 198.4335,
      "duration": 0.1646,
      "velocity": 1,
      "chip": "ym2612"
    },
    {
      "channel": 5,
      "note": 69,
      "start": 198.4347,
      "duration": 0.1472,
      "velocity": 63,
      "chip": "ym2612"
    },
    {
      "channel": 1,
      "note": 45,
      "start": 198.5802,
      "duration": 0.0826,
      "velocity": 117,
      "chip": "ym2612"
    },
    {
      "channel": 5,
      "note": 69,
      "start": 198.583,
      "duration": 0.1485,
      "velocity": 59,
      "chip": "ym2612"
    },
    {
      "channel": 1,
      "note": 33,
      "start": 198.7292,
      "duration": 0.0826,
      "velocity": 117,
      "chip": "ym2612"
    },
    {
      "channel": 4,
      "note": 22,
      "start": 198.7313,
      "duration": 0.148,
      "velocity": 127,
      "chip": "ym2612"
    },
    {
      "channel": 5,
      "note": 69,
      "start": 198.732,
      "duration": 0.1478,
      "velocity": 59,
      "chip": "ym2612"
    },
    {
      "channel": 1,
      "note": 45,
      "start": 198.8781,
      "duration": 0.0826,
      "velocity": 117,
      "chip": "ym2612"
    },
    {
      "channel": 4,
      "note": 22,
      "start": 198.8797,
      "duration": 0.1487,
      "velocity": 127,
      "chip": "ym2612"
    },
    {
      "channel": 5,
      "note": 69,
      "start": 198.881,
      "duration": 0.1487,
      "velocity": 63,
      "chip": "ym2612"
    },
    {
      "channel": 1,
      "note": 33,
      "start": 199.0271,
      "duration": 0.0826,
      "velocity": 117,
      "chip": "ym2612"
    },
    {
      "channel": 3,
      "note": 19,
      "start": 199.0283,
      "duration": 1.1253,
      "velocity": 124,
      "chip": "ym2612"
    },
    {
      "channel": 4,
      "note": 53,
      "start": 199.0295,
      "duration": 0.1644,
      "velocity": 1,
      "chip": "ym2612"
    },
    {
      "channel": 5,
      "note": 69,
      "start": 199.0307,
      "duration": 0.147,
      "velocity": 59,
      "chip": "ym2612"
    },
    {
      "channel": 1,
      "note": 33,
      "start": 199.1761,
      "duration": 0.0826,
      "velocity": 117,
      "chip": "ym2612"
    },
    {
      "channel": 5,
      "note": 69,
      "start": 199.1788,
      "duration": 0.1478,
      "velocity": 63,
      "chip": "ym2612"
    },
    {
      "channel": 1,
      "note": 33,
      "start": 199.325,
      "duration": 0.1485,
      "velocity": 117,
      "chip": "ym2612"
    },
    {
      "channel": 5,
      "note": 69,
      "start": 199.3278,
      "duration": 0.148,
      "velocity": 59,
      "chip": "ym2612"
    },
    {
      "channel": 1,
      "note": 45,
      "start": 199.4741,
      "duration": 0.0826,
      "velocity": 117,
      "chip": "ym2612"
    },
    {
      "channel": 5,
      "note": 69,
      "start": 199.4762,
      "duration": 0.1487,
      "velocity": 59,
      "chip": "ym2612"
    },
    {
      "channel": 1,
      "note": 33,
      "start": 199.6231,
      "duration": 0.0826,
      "velocity": 117,
      "chip": "ym2612"
    },
    {
      "channel": 4,
      "note": 53,
      "start": 199.6248,
      "duration": 0.1652,
      "velocity": 1,
      "chip": "ym2612"
    },
    {
      "channel": 5,
      "note": 69,
      "start": 199.626,
      "duration": 0.1477,
      "velocity": 63,
      "chip": "ym2612"
    },
    {
      "channel": 1,
      "note": 33,
      "start": 199.772,
      "duration": 0.0826,
      "velocity": 117,
      "chip": "ym2612"
    },
    {
      "channel": 5,
      "note": 69,
      "start": 199.7748,
      "duration": 0.1486,
      "velocity": 59,
      "chip": "ym2612"
    },
    {
      "channel": 1,
      "note": 33,
      "start": 199.921,
      "duration": 0.0826,
      "velocity": 117,
      "chip": "ym2612"
    },
    {
      "channel": 4,
      "note": 22,
      "start": 199.9232,
      "duration": 0.1479,
      "velocity": 127,
      "chip": "ym2612"
    },
    {
      "channel": 5,
      "note": 69,
      "start": 199.9239,
      "duration": 0.1478,
      "velocity": 59,
      "chip": "ym2612"
    },
    {
      "channel": 1,
      "note": 33,
      "start": 200.0699,
      "duration": 0.0826,
      "velocity": 117,
      "chip": "ym2612"
    },
    {
      "channel": 4,
      "note": 22,
      "start": 200.0715,
      "duration": 0.149,
      "velocity": 127,
      "chip": "ym2612"
    },
    {
      "channel": 5,
      "note": 69,
      "start": 200.0722,
      "duration": 0.1497,
      "velocity": 59,
      "chip": "ym2612"
    },
    {
      "channel": 0,
      "note": 28,
      "start": 200.2184,
      "duration": 2.383,
      "velocity": 108,
      "chip": "ym2612"
    },
    {
      "channel": 1,
      "note": 33,
      "start": 200.219,
      "duration": 0.0824,
      "velocity": 117,
      "chip": "ym2612"
    },
    {
      "channel": 2,
      "note": 33,
      "start": 200.2198,
      "duration": 2.383,
      "velocity": 108,
      "chip": "ym2612"
    },
    {
      "channel": 3,
      "note": 21,
      "start": 200.2205,
      "duration": 3.5085,
      "velocity": 124,
      "chip": "ym2612"
    },
    {
      "channel": 4,
      "note": 53,
      "start": 200.2217,
      "duration": 0.1641,
      "velocity": 1,
      "chip": "ym2612"
    },
    {
      "channel": 5,
      "note": 69,
      "start": 200.2224,
      "duration": 0.1473,
      "velocity": 59,
      "chip": "ym2612"
    },
    {
      "channel": 1,
      "note": 33,
      "start": 200.3679,
      "duration": 0.0826,
      "velocity": 117,
      "chip": "ym2612"
    },
    {
      "channel": 5,
      "note": 69,
      "start": 200.3707,
      "duration": 0.1478,
      "velocity": 63,
      "chip": "ym2612"
    },
    {
      "channel": 1,
      "note": 33,
      "start": 200.5168,
      "duration": 0.0826,
      "velocity": 117,
      "chip": "ym2612"
    },
    {
      "channel": 5,
      "note": 69,
      "start": 200.5196,
      "duration": 0.1485,
      "velocity": 59,
      "chip": "ym2612"
    },
    {
      "channel": 1,
      "note": 45,
      "start": 200.6658,
      "duration": 0.0826,
      "velocity": 117,
      "chip": "ym2612"
    },
    {
      "channel": 4,
      "note": 62,
      "start": 200.668,
      "duration": 0.1478,
      "velocity": 59,
      "chip": "ym2612"
    },
    {
      "channel": 5,
      "note": 69,
      "start": 200.6687,
      "duration": 0.1485,
      "velocity": 59,
      "chip": "ym2612"
    },
    {
      "channel": 1,
      "note": 33,
      "start": 200.8148,
      "duration": 0.0826,
      "velocity": 117,
      "chip": "ym2612"
    },
    {
      "channel": 4,
      "note": 53,
      "start": 200.8171,
      "duration": 0.1646,
      "velocity": 1,
      "chip": "ym2612"
    },
    {
      "channel": 5,
      "note": 69,
      "start": 200.8183,
      "duration": 0.1471,
      "velocity": 63,
      "chip": "ym2612"
    },
    {
      "channel": 1,
      "note": 45,
      "start": 200.9638,
      "duration": 0.0826,
      "velocity": 117,
      "chip": "ym2612"
    },
    {
      "channel": 5,
      "note": 69,
      "start": 200.9665,
      "duration": 0.1486,
      "velocity": 59,
      "chip": "ym2612"
    },
    {
      "channel": 1,
      "note": 33,
      "start": 201.1127,
      "duration": 0.0826,
      "velocity": 117,
      "chip": "ym2612"
    },
    {
      "channel": 4,
      "note": 22,
      "start": 201.1149,
      "duration": 0.148,
      "velocity": 127,
      "chip": "ym2612"
    },
    {
      "channel": 5,
      "note": 69,
      "start": 201.1156,
      "duration": 0.1478,
      "velocity": 59,
      "chip": "ym2612"
    },
    {
      "channel": 1,
      "note": 45,
      "start": 201.2617,
      "duration": 0.0826,
      "velocity": 117,
      "chip": "ym2612"
    },
    {
      "channel": 4,
      "note": 22,
      "start": 201.2633,
      "duration": 0.1485,
      "velocity": 127,
      "chip": "ym2612"
    },
    {
      "channel": 5,
      "note": 69,
      "start": 201.2645,
      "duration": 0.0648,
      "velocity": 63,
      "chip": "ym2612"
    },
    {
      "channel": 5,
      "note": 81,
      "start": 201.3304,
      "duration": 0.0827,
      "velocity": 59,
      "chip": "ym2612"
    },
    {
      "channel": 1,
      "note": 33,
      "start": 201.4107,
      "duration": 0.0826,
      "velocity": 117,
      "chip": "ym2612"
    },
    {
      "channel": 4,
      "note": 53,
      "start": 201.4129,
      "duration": 0.1646,
      "velocity": 1,
      "chip": "ym2612"
    },
    {
      "channel": 5,
      "note": 74,
      "start": 201.4136,
      "duration": 0.1478,
      "velocity": 59,
      "chip": "ym2612"
    },
    {
      "channel": 1,
      "note": 33,
      "start": 201.5596,
      "duration": 0.0826,
      "velocity": 117,
      "chip": "ym2612"
    },
    {
      "channel": 5,
      "note": 69,
      "start": 201.5624,
      "duration": 0.1478,
      "velocity": 63,
      "chip": "ym2612"
    },
    {
      "channel": 1,
      "note": 33,
      "start": 201.7086,
      "duration": 0.1485,
      "velocity": 117,
      "chip": "ym2612"
    },
    {
      "channel": 5,
      "note": 69,
      "start": 201.7114,
      "duration": 0.148,
      "velocity": 59,
      "chip": "ym2612"
    },
    {
      "channel": 1,
      "note": 45,
      "start": 201.8576,
      "duration": 0.0826,
      "velocity": 117,
      "chip": "ym2612"
    },
    {
      "channel": 5,
      "note": 69,
      "start": 201.8598,
      "duration": 0.1487,
      "velocity": 59,
      "chip": "ym2612"
    },
    {
      "channel": 1,
      "note": 33,
      "start": 202.0066,
      "duration": 0.0826,
      "velocity": 117,
      "chip": "ym2612"
    },
    {
      "channel": 4,
      "note": 53,
      "start": 202.0083,
      "duration": 0.1652,
      "velocity": 1,
      "chip": "ym2612"
    },
    {
      "channel": 5,
      "note": 69,
      "start": 202.0095,
      "duration": 0.1478,
      "velocity": 63,
      "chip": "ym2612"
    },
    {
      "channel": 1,
      "note": 33,
      "start": 202.1555,
      "duration": 0.0827,
      "velocity": 117,
      "chip": "ym2612"
    },
    {
      "channel": 5,
      "note": 69,
      "start": 202.1584,
      "duration": 0.1479,
      "velocity": 59,
      "chip": "ym2612"
    },
    {
      "channel": 1,
      "note": 33,
      "start": 202.3045,
      "duration": 0.0826,
      "velocity": 117,
      "chip": "ym2612"
    },
    {
      "channel": 5,
      "note": 69,
      "start": 202.3067,
      "duration": 0.1484,
      "velocity": 59,
      "chip": "ym2612"
    },
    {
      "channel": 1,
      "note": 33,
      "start": 202.4535,
      "duration": 0.0826,
      "velocity": 117,
      "chip": "ym2612"
    },
    {
      "channel": 5,
      "note": 69,
      "start": 202.4563,
      "duration": 0.1483,
      "velocity": 63,
      "chip": "ym2612"
    },
    {
      "channel": 0,
      "note": 28,
      "start": 202.602,
      "duration": 2.383,
      "velocity": 108,
      "chip": "ym2612"
    },
    {
      "channel": 1,
      "note": 33,
      "start": 202.6026,
      "duration": 0.0824,
      "velocity": 117,
      "chip": "ym2612"
    },
    {
      "channel": 2,
      "note": 33,
      "start": 202.6033,
      "duration": 2.383,
      "velocity": 108,
      "chip": "ym2612"
    },
    {
      "channel": 4,
      "note": 53,
      "start": 202.6045,
      "duration": 0.1649,
      "velocity": 1,
      "chip": "ym2612"
    },
    {
      "channel": 5,
      "note": 69,
      "start": 202.6057,
      "duration": 0.1475,
      "velocity": 59,
      "chip": "ym2612"
    },
    {
      "channel": 1,
      "note": 33,
      "start": 202.7514,
      "duration": 0.0826,
      "velocity": 117,
      "chip": "ym2612"
    },
    {
      "channel": 5,
      "note": 69,
      "start": 202.7542,
      "duration": 0.1485,
      "velocity": 63,
      "chip": "ym2612"
    },
    {
      "channel": 1,
      "note": 33,
      "start": 202.9004,
      "duration": 0.0826,
      "velocity": 117,
      "chip": "ym2612"
    },
    {
      "channel": 4,
      "note": 62,
      "start": 202.9026,
      "duration": 0.1479,
      "velocity": 59,
      "chip": "ym2612"
    },
    {
      "channel": 5,
      "note": 69,
      "start": 202.9039,
      "duration": 0.1473,
      "velocity": 59,
      "chip": "ym2612"
    },
    {
      "channel": 1,
      "note": 45,
      "start": 203.0494,
      "duration": 0.0826,
      "velocity": 117,
      "chip": "ym2612"
    },
    {
      "channel": 4,
      "note": 62,
      "start": 203.051,
      "duration": 0.1485,
      "velocity": 59,
      "chip": "ym2612"
    },
    {
      "channel": 5,
      "note": 69,
      "start": 203.0517,
      "duration": 0.149,
      "velocity": 59,
      "chip": "ym2612"
    },
    {
      "channel": 1,
      "note": 33,
      "start": 203.1983,
      "duration": 0.0827,
      "velocity": 117,
      "chip": "ym2612"
    },
    {
      "channel": 4,
      "note": 53,
      "start": 203.2006,
      "duration": 0.1646,
      "velocity": 1,
      "chip": "ym2612"
    },
    {
      "channel": 5,
      "note": 69,
      "start": 203.2019,
      "duration": 0.1471,
      "velocity": 63,
      "chip": "ym2612"
    },
    {
      "channel": 1,
      "note": 45,
      "start": 203.3473,
      "duration": 0.0826,
      "velocity": 117,
      "chip": "ym2612"
    },
    {
      "channel": 5,
      "note": 69,
      "start": 203.3501,
      "duration": 0.1485,
      "velocity": 59,
      "chip": "ym2612"
    },
    {
      "channel": 1,
      "note": 33,
      "start": 203.4963,
      "duration": 0.0826,
      "velocity": 117,
      "chip": "ym2612"
    },
    {
      "channel": 4,
      "note": 22,
      "start": 203.4985,
      "duration": 0.1479,
      "velocity": 127,
      "chip": "ym2612"
    },
    {
      "channel": 5,
      "note": 69,
      "start": 203.4991,
      "duration": 0.1479,
      "velocity": 59,
      "chip": "ym2612"
    },
    {
      "channel": 1,
      "note": 45,
      "start": 203.6453,
      "duration": 0.0826,
      "velocity": 117,
      "chip": "ym2612"
    },
    {
      "channel": 4,
      "note": 22,
      "start": 203.6468,
      "duration": 0.1487,
      "velocity": 127,
      "chip": "ym2612"
    },
    {
      "channel": 5,
      "note": 69,
      "start": 203.6481,
      "duration": 0.1487,
      "velocity": 63,
      "chip": "ym2612"
    },
    {
      "channel": 1,
      "note": 33,
      "start": 203.7942,
      "duration": 0.0826,
      "velocity": 117,
      "chip": "ym2612"
    },
    {
      "channel": 3,
      "note": 19,
      "start": 203.7954,
      "duration": 1.1253,
      "velocity": 124,
      "chip": "ym2612"
    },
    {
      "channel": 4,
      "note": 53,
      "start": 203.7967,
      "duration": 0.1645,
      "velocity": 1,
      "chip": "ym2612"
    },
    {
      "channel": 5,
      "note": 69,
      "start": 203.7979,
      "duration": 0.1469,
      "velocity": 59,
      "chip": "ym2612"
    },
    {
      "channel": 1,
      "note": 33,
      "start": 203.9432,
      "duration": 0.0826,
      "velocity": 117,
      "chip": "ym2612"
    },
    {
      "channel": 5,
      "note": 69,
      "start": 203.946,
      "duration": 0.1479,
      "velocity": 63,
      "chip": "ym2612"
    },
    {
      "channel": 1,
      "note": 33,
      "start": 204.0922,
      "duration": 0.1485,
      "velocity": 117,
      "chip": "ym2612"
    },
    {
      "channel": 5,
      "note": 69,
      "start": 204.0949,
      "duration": 0.1479,
      "velocity": 59,
      "chip": "ym2612"
    },
    {
      "channel": 1,
      "note": 45,
      "start": 204.2411,
      "duration": 0.0827,
      "velocity": 117,
      "chip": "ym2612"
    },
    {
      "channel": 5,
      "note": 69,
      "start": 204.2434,
      "duration": 0.1487,
      "velocity": 59,
      "chip": "ym2612"
    },
    {
      "channel": 1,
      "note": 33,
      "start": 204.3902,
      "duration": 0.0826,
      "velocity": 117,
      "chip": "ym2612"
    },
    {
      "channel": 4,
      "note": 53,
      "start": 204.3919,
      "duration": 0.1652,
      "velocity": 1,
      "chip": "ym2612"
    },
    {
      "channel": 5,
      "note": 69,
      "start": 204.3931,
      "duration": 0.1477,
      "velocity": 63,
      "chip": "ym2612"
    },
    {
      "channel": 1,
      "note": 33,
      "start": 204.5391,
      "duration": 0.0826,
      "velocity": 117,
      "chip": "ym2612"
    },
    {
      "channel": 5,
      "note": 69,
      "start": 204.5419,
      "duration": 0.1486,
      "velocity": 59,
      "chip": "ym2612"
    },
    {
      "channel": 1,
      "note": 33,
      "start": 204.6881,
      "duration": 0.0826,
      "velocity": 117,
      "chip": "ym2612"
    },
    {
      "channel": 4,
      "note": 22,
      "start": 204.6903,
      "duration": 0.1479,
      "velocity": 127,
      "chip": "ym2612"
    },
    {
      "channel": 5,
      "note": 69,
      "start": 204.691,
      "duration": 0.1478,
      "velocity": 59,
      "chip": "ym2612"
    },
    {
      "channel": 1,
      "note": 33,
      "start": 204.8371,
      "duration": 0.0826,
      "velocity": 117,
      "chip": "ym2612"
    },
    {
      "channel": 4,
      "note": 22,
      "start": 204.8386,
      "duration": 0.149,
      "velocity": 127,
      "chip": "ym2612"
    },
    {
      "channel": 5,
      "note": 69,
      "start": 204.8393,
      "duration": 0.1497,
      "velocity": 59,
      "chip": "ym2612"
    },
    {
      "channel": 0,
      "note": 28,
      "start": 204.9855,
      "duration": 2.383,
      "velocity": 108,
      "chip": "ym2612"
    },
    {
      "channel": 1,
      "note": 33,
      "start": 204.9862,
      "duration": 0.0824,
      "velocity": 117,
      "chip": "ym2612"
    },
    {
      "channel": 2,
      "note": 33,
      "start": 204.9869,
      "duration": 2.3829,
      "velocity": 108,
      "chip": "ym2612"
    },
    {
      "channel": 3,
      "note": 21,
      "start": 204.9876,
      "duration": 3.5085,
      "velocity": 124,
      "chip": "ym2612"
    },
    {
      "channel": 4,
      "note": 53,
      "start": 204.9888,
      "duration": 0.1641,
      "velocity": 1,
      "chip": "ym2612"
    },
    {
      "channel": 5,
      "note": 69,
      "start": 204.9895,
      "duration": 0.1472,
      "velocity": 59,
      "chip": "ym2612"
    },
    {
      "channel": 1,
      "note": 33,
      "start": 205.135,
      "duration": 0.0826,
      "velocity": 117,
      "chip": "ym2612"
    },
    {
      "channel": 5,
      "note": 69,
      "start": 205.1378,
      "duration": 0.1478,
      "velocity": 63,
      "chip": "ym2612"
    },
    {
      "channel": 1,
      "note": 33,
      "start": 205.2839,
      "duration": 0.0827,
      "velocity": 117,
      "chip": "ym2612"
    },
    {
      "channel": 5,
      "note": 69,
      "start": 205.2867,
      "duration": 0.1486,
      "velocity": 59,
      "chip": "ym2612"
    },
    {
      "channel": 1,
      "note": 45,
      "start": 205.4329,
      "duration": 0.0826,
      "velocity": 117,
      "chip": "ym2612"
    },
    {
      "channel": 4,
      "note": 62,
      "start": 205.4351,
      "duration": 0.1479,
      "velocity": 59,
      "chip": "ym2612"
    },
    {
      "channel": 5,
      "note": 69,
      "start": 205.4358,
      "duration": 0.1485,
      "velocity": 59,
      "chip": "ym2612"
    },
    {
      "channel": 1,
      "note": 33,
      "start": 205.5819,
      "duration": 0.0826,
      "velocity": 117,
      "chip": "ym2612"
    },
    {
      "channel": 4,
      "note": 53,
      "start": 205.5842,
      "duration": 0.1646,
      "velocity": 1,
      "chip": "ym2612"
    },
    {
      "channel": 5,
      "note": 69,
      "start": 205.5854,
      "duration": 0.1471,
      "velocity": 63,
      "chip": "ym2612"
    },
    {
      "channel": 1,
      "note": 45,
      "start": 205.7309,
      "duration": 0.0826,
      "velocity": 117,
      "chip": "ym2612"
    },
    {
      "channel": 5,
      "note": 69,
      "start": 205.7336,
      "duration": 0.1486,
      "velocity": 59,
      "chip": "ym2612"
    },
    {
      "channel": 1,
      "note": 33,
      "start": 205.8799,
      "duration": 0.0826,
      "velocity": 117,
      "chip": "ym2612"
    },
    {
      "channel": 4,
      "note": 22,
      "start": 205.882,
      "duration": 0.148,
      "velocity": 127,
      "chip": "ym2612"
    },
    {
      "channel": 5,
      "note": 69,
      "start": 205.8827,
      "duration": 0.1478,
      "velocity": 59,
      "chip": "ym2612"
    },
    {
      "channel": 1,
      "note": 45,
      "start": 206.0288,
      "duration": 0.0826,
      "velocity": 117,
      "chip": "ym2612"
    },
    {
      "channel": 4,
      "note": 22,
      "start": 206.0304,
      "duration": 0.1485,
      "velocity": 127,
      "chip": "ym2612"
    },
    {
      "channel": 5,
      "note": 69,
      "start": 206.0316,
      "duration": 0.0648,
      "velocity": 63,
      "chip": "ym2612"
    },
    {
      "channel": 5,
      "note": 81,
      "start": 206.0976,
      "duration": 0.0827,
      "velocity": 59,
      "chip": "ym2612"
    },
    {
      "channel": 1,
      "note": 33,
      "start": 206.1778,
      "duration": 0.0826,
      "velocity": 117,
      "chip": "ym2612"
    },
    {
      "channel": 4,
      "note": 53,
      "start": 206.18,
      "duration": 0.1646,
      "velocity": 1,
      "chip": "ym2612"
    },
    {
      "channel": 5,
      "note": 74,
      "start": 206.1807,
      "duration": 0.1478,
      "velocity": 59,
      "chip": "ym2612"
    },
    {
      "channel": 1,
      "note": 33,
      "start": 206.3267,
      "duration": 0.0827,
      "velocity": 117,
      "chip": "ym2612"
    },
    {
      "channel": 5,
      "note": 69,
      "start": 206.3295,
      "duration": 0.1478,
      "velocity": 63,
      "chip": "ym2612"
    },
    {
      "channel": 1,
      "note": 33,
      "start": 206.4757,
      "duration": 0.1485,
      "velocity": 117,
      "chip": "ym2612"
    },
    {
      "channel": 5,
      "note": 69,
      "start": 206.4785,
      "duration": 0.148,
      "velocity": 59,
      "chip": "ym2612"
    },
    {
      "channel": 1,
      "note": 45,
      "start": 206.6247,
      "duration": 0.0826,
      "velocity": 117,
      "chip": "ym2612"
    },
    {
      "channel": 5,
      "note": 69,
      "start": 206.6269,
      "duration": 0.1487,
      "velocity": 59,
      "chip": "ym2612"
    },
    {
      "channel": 1,
      "note": 33,
      "start": 206.7738,
      "duration": 0.0826,
      "velocity": 117,
      "chip": "ym2612"
    },
    {
      "channel": 4,
      "note": 53,
      "start": 206.7754,
      "duration": 0.1653,
      "velocity": 1,
      "chip": "ym2612"
    },
    {
      "channel": 5,
      "note": 69,
      "start": 206.7766,
      "duration": 0.1478,
      "velocity": 63,
      "chip": "ym2612"
    },
    {
      "channel": 1,
      "note": 33,
      "start": 206.9227,
      "duration": 0.0826,
      "velocity": 117,
      "chip": "ym2612"
    },
    {
      "channel": 5,
      "note": 69,
      "start": 206.9255,
      "duration": 0.1479,
      "velocity": 59,
      "chip": "ym2612"
    },
    {
      "channel": 1,
      "note": 33,
      "start": 207.0716,
      "duration": 0.0826,
      "velocity": 117,
      "chip": "ym2612"
    },
    {
      "channel": 5,
      "note": 69,
      "start": 207.0739,
      "duration": 0.1483,
      "velocity": 59,
      "chip": "ym2612"
    },
    {
      "channel": 1,
      "note": 33,
      "start": 207.2206,
      "duration": 0.0826,
      "velocity": 117,
      "chip": "ym2612"
    },
    {
      "channel": 5,
      "note": 69,
      "start": 207.2234,
      "duration": 0.1483,
      "velocity": 63,
      "chip": "ym2612"
    },
    {
      "channel": 0,
      "note": 28,
      "start": 207.3691,
      "duration": 2.383,
      "velocity": 108,
      "chip": "ym2612"
    },
    {
      "channel": 1,
      "note": 33,
      "start": 207.3698,
      "duration": 0.0824,
      "velocity": 117,
      "chip": "ym2612"
    },
    {
      "channel": 2,
      "note": 33,
      "start": 207.3705,
      "duration": 2.383,
      "velocity": 108,
      "chip": "ym2612"
    },
    {
      "channel": 4,
      "note": 53,
      "start": 207.3716,
      "duration": 0.1649,
      "velocity": 1,
      "chip": "ym2612"
    },
    {
      "channel": 5,
      "note": 69,
      "start": 207.3729,
      "duration": 0.1474,
      "velocity": 59,
      "chip": "ym2612"
    },
    {
      "channel": 1,
      "note": 33,
      "start": 207.5185,
      "duration": 0.0826,
      "velocity": 117,
      "chip": "ym2612"
    },
    {
      "channel": 5,
      "note": 69,
      "start": 207.5213,
      "duration": 0.1485,
      "velocity": 63,
      "chip": "ym2612"
    },
    {
      "channel": 1,
      "note": 33,
      "start": 207.6675,
      "duration": 0.0826,
      "velocity": 117,
      "chip": "ym2612"
    },
    {
      "channel": 4,
      "note": 62,
      "start": 207.6698,
      "duration": 0.1479,
      "velocity": 59,
      "chip": "ym2612"
    },
    {
      "channel": 5,
      "note": 69,
      "start": 207.671,
      "duration": 0.1473,
      "velocity": 59,
      "chip": "ym2612"
    },
    {
      "channel": 1,
      "note": 45,
      "start": 207.8165,
      "duration": 0.0826,
      "velocity": 117,
      "chip": "ym2612"
    },
    {
      "channel": 4,
      "note": 62,
      "start": 207.8181,
      "duration": 0.1485,
      "velocity": 59,
      "chip": "ym2612"
    },
    {
      "channel": 5,
      "note": 69,
      "start": 207.8188,
      "duration": 0.1491,
      "velocity": 59,
      "chip": "ym2612"
    },
    {
      "channel": 1,
      "note": 33,
      "start": 207.9655,
      "duration": 0.0826,
      "velocity": 117,
      "chip": "ym2612"
    },
    {
      "channel": 4,
      "note": 53,
      "start": 207.9677,
      "duration": 0.1646,
      "velocity": 1,
      "chip": "ym2612"
    },
    {
      "channel": 5,
      "note": 69,
      "start": 207.969,
      "duration": 0.1471,
      "velocity": 63,
      "chip": "ym2612"
    },
    {
      "channel": 1,
      "note": 45,
      "start": 208.1145,
      "duration": 0.0826,
      "velocity": 117,
      "chip": "ym2612"
    },
    {
      "channel": 5,
      "note": 69,
      "start": 208.1172,
      "duration": 0.1485,
      "velocity": 59,
      "chip": "ym2612"
    },
    {
      "channel": 1,
      "note": 33,
      "start": 208.2634,
      "duration": 0.0826,
      "velocity": 117,
      "chip": "ym2612"
    },
    {
      "channel": 4,
      "note": 22,
      "start": 208.2656,
      "duration": 0.1479,
      "velocity": 127,
      "chip": "ym2612"
    },
    {
      "channel": 5,
      "note": 69,
      "start": 208.2663,
      "duration": 0.1479,
      "velocity": 59,
      "chip": "ym2612"
    },
    {
      "channel": 1,
      "note": 45,
      "start": 208.4124,
      "duration": 0.0827,
      "velocity": 117,
      "chip": "ym2612"
    },
    {
      "channel": 4,
      "note": 22,
      "start": 208.414,
      "duration": 0.1486,
      "velocity": 127,
      "chip": "ym2612"
    },
    {
      "channel": 5,
      "note": 69,
      "start": 208.4152,
      "duration": 0.1487,
      "velocity": 63,
      "chip": "ym2612"
    },
    {
      "channel": 1,
      "note": 33,
      "start": 208.5614,
      "duration": 0.0826,
      "velocity": 117,
      "chip": "ym2612"
    },
    {
      "channel": 3,
      "note": 19,
      "start": 208.5625,
      "duration": 1.1253,
      "velocity": 124,
      "chip": "ym2612"
    },
    {
      "channel": 4,
      "note": 53,
      "start": 208.5638,
      "duration": 0.1645,
      "velocity": 1,
      "chip": "ym2612"
    },
    {
      "channel": 5,
      "note": 69,
      "start": 208.565,
      "duration": 0.147,
      "velocity": 59,
      "chip": "ym2612"
    },
    {
      "channel": 1,
      "note": 33,
      "start": 208.7103,
      "duration": 0.0826,
      "velocity": 117,
      "chip": "ym2612"
    },
    {
      "channel": 5,
      "note": 69,
      "start": 208.7131,
      "duration": 0.1479,
      "velocity": 63,
      "chip": "ym2612"
    },
    {
      "channel": 1,
      "note": 33,
      "start": 208.8593,
      "duration": 0.1485,
      "velocity": 117,
      "chip": "ym2612"
    },
    {
      "channel": 5,
      "note": 69,
      "start": 208.862,
      "duration": 0.1479,
      "velocity": 59,
      "chip": "ym2612"
    },
    {
      "channel": 1,
      "note": 45,
      "start": 209.0082,
      "duration": 0.0826,
      "velocity": 117,
      "chip": "ym2612"
    },
    {
      "channel": 5,
      "note": 69,
      "start": 209.0105,
      "duration": 0.1487,
      "velocity": 59,
      "chip": "ym2612"
    },
    {
      "channel": 1,
      "note": 33,
      "start": 209.1573,
      "duration": 0.0826,
      "velocity": 117,
      "chip": "ym2612"
    },
    {
      "channel": 4,
      "note": 53,
      "start": 209.159,
      "duration": 0.1652,
      "velocity": 1,
      "chip": "ym2612"
    },
    {
      "channel": 5,
      "note": 69,
      "start": 209.1602,
      "duration": 0.1477,
      "velocity": 63,
      "chip": "ym2612"
    },
    {
      "channel": 1,
      "note": 33,
      "start": 209.3063,
      "duration": 0.0826,
      "velocity": 117,
      "chip": "ym2612"
    },
    {
      "channel": 5,
      "note": 69,
      "start": 209.309,
      "duration": 0.1486,
      "velocity": 59,
      "chip": "ym2612"
    },
    {
      "channel": 1,
      "note": 33,
      "start": 209.4552,
      "duration": 0.0827,
      "velocity": 117,
      "chip": "ym2612"
    },
    {
      "channel": 4,
      "note": 22,
      "start": 209.4574,
      "duration": 0.1479,
      "velocity": 127,
      "chip": "ym2612"
    },
    {
      "channel": 5,
      "note": 69,
      "start": 209.4581,
      "duration": 0.1479,
      "velocity": 59,
      "chip": "ym2612"
    },
    {
      "channel": 1,
      "note": 33,
      "start": 209.6042,
      "duration": 0.0826,
      "velocity": 117,
      "chip": "ym2612"
    },
    {
      "channel": 4,
      "note": 22,
      "start": 209.6058,
      "duration": 0.149,
      "velocity": 127,
      "chip": "ym2612"
    },
    {
      "channel": 5,
      "note": 69,
      "start": 209.6065,
      "duration": 0.1497,
      "velocity": 59,
      "chip": "ym2612"
    },
    {
      "channel": 0,
      "note": 28,
      "start": 209.7526,
      "duration": 2.383,
      "velocity": 108,
      "chip": "ym2612"
    },
    {
      "channel": 1,
      "note": 33,
      "start": 209.7533,
      "duration": 0.0824,
      "velocity": 117,
      "chip": "ym2612"
    },
    {
      "channel": 2,
      "note": 33,
      "start": 209.754,
      "duration": 2.383,
      "velocity": 108,
      "chip": "ym2612"
    },
    {
      "channel": 3,
      "note": 21,
      "start": 209.7547,
      "duration": 3.5085,
      "velocity": 124,
      "chip": "ym2612"
    },
    {
      "channel": 4,
      "note": 53,
      "start": 209.756,
      "duration": 0.1641,
      "velocity": 1,
      "chip": "ym2612"
    },
    {
      "channel": 5,
      "note": 69,
      "start": 209.7566,
      "duration": 0.1472,
      "velocity": 59,
      "chip": "ym2612"
    },
    {
      "channel": 1,
      "note": 33,
      "start": 209.9021,
      "duration": 0.0826,
      "velocity": 117,
      "chip": "ym2612"
    },
    {
      "channel": 5,
      "note": 69,
      "start": 209.9049,
      "duration": 0.1478,
      "velocity": 63,
      "chip": "ym2612"
    },
    {
      "channel": 1,
      "note": 33,
      "start": 210.0511,
      "duration": 0.0826,
      "velocity": 117,
      "chip": "ym2612"
    },
    {
      "channel": 5,
      "note": 69,
      "start": 210.0539,
      "duration": 0.1486,
      "velocity": 59,
      "chip": "ym2612"
    },
    {
      "channel": 1,
      "note": 45,
      "start": 210.2,
      "duration": 0.0826,
      "velocity": 117,
      "chip": "ym2612"
    },
    {
      "channel": 4,
      "note": 62,
      "start": 210.2022,
      "duration": 0.1479,
      "velocity": 59,
      "chip": "ym2612"
    },
    {
      "channel": 5,
      "note": 69,
      "start": 210.2029,
      "duration": 0.1485,
      "velocity": 59,
      "chip": "ym2612"
    },
    {
      "channel": 1,
      "note": 33,
      "start": 210.349,
      "duration": 0.0826,
      "velocity": 117,
      "chip": "ym2612"
    },
    {
      "channel": 4,
      "note": 53,
      "start": 210.3513,
      "duration": 0.1646,
      "velocity": 1,
      "chip": "ym2612"
    },
    {
      "channel": 5,
      "note": 69,
      "start": 210.3525,
      "duration": 0.1471,
      "velocity": 63,
      "chip": "ym2612"
    },
    {
      "channel": 1,
      "note": 45,
      "start": 210.498,
      "duration": 0.0826,
      "velocity": 117,
      "chip": "ym2612"
    },
    {
      "channel": 5,
      "note": 69,
      "start": 210.5008,
      "duration": 0.1485,
      "velocity": 59,
      "chip": "ym2612"
    },
    {
      "channel": 1,
      "note": 33,
      "start": 210.647,
      "duration": 0.0826,
      "velocity": 117,
      "chip": "ym2612"
    },
    {
      "channel": 4,
      "note": 22,
      "start": 210.6491,
      "duration": 0.148,
      "velocity": 127,
      "chip": "ym2612"
    },
    {
      "channel": 5,
      "note": 69,
      "start": 210.6498,
      "duration": 0.1478,
      "velocity": 59,
      "chip": "ym2612"
    },
    {
      "channel": 1,
      "note": 45,
      "start": 210.796,
      "duration": 0.0826,
      "velocity": 117,
      "chip": "ym2612"
    },
    {
      "channel": 4,
      "note": 22,
      "start": 210.7976,
      "duration": 0.1485,
      "velocity": 127,
      "chip": "ym2612"
    },
    {
      "channel": 5,
      "note": 69,
      "start": 210.7988,
      "duration": 0.0648,
      "velocity": 63,
      "chip": "ym2612"
    },
    {
      "channel": 5,
      "note": 81,
      "start": 210.8647,
      "duration": 0.0826,
      "velocity": 59,
      "chip": "ym2612"
    },
    {
      "channel": 1,
      "note": 33,
      "start": 210.9449,
      "duration": 0.0826,
      "velocity": 117,
      "chip": "ym2612"
    },
    {
      "channel": 4,
      "note": 53,
      "start": 210.9472,
      "duration": 0.1646,
      "velocity": 1,
      "chip": "ym2612"
    },
    {
      "channel": 5,
      "note": 74,
      "start": 210.9479,
      "duration": 0.1477,
      "velocity": 59,
      "chip": "ym2612"
    },
    {
      "channel": 1,
      "note": 33,
      "start": 211.0939,
      "duration": 0.0826,
      "velocity": 117,
      "chip": "ym2612"
    },
    {
      "channel": 5,
      "note": 69,
      "start": 211.0967,
      "duration": 0.1478,
      "velocity": 63,
      "chip": "ym2612"
    },
    {
      "channel": 1,
      "note": 33,
      "start": 211.2428,
      "duration": 0.1485,
      "velocity": 117,
      "chip": "ym2612"
    },
    {
      "channel": 5,
      "note": 69,
      "start": 211.2456,
      "duration": 0.1479,
      "velocity": 59,
      "chip": "ym2612"
    },
    {
      "channel": 1,
      "note": 45,
      "start": 211.3918,
      "duration": 0.0826,
      "velocity": 117,
      "chip": "ym2612"
    },
    {
      "channel": 5,
      "note": 69,
      "start": 211.3941,
      "duration": 0.1486,
      "velocity": 59,
      "chip": "ym2612"
    },
    {
      "channel": 1,
      "note": 33,
      "start": 211.5408,
      "duration": 0.0827,
      "velocity": 117,
      "chip": "ym2612"
    },
    {
      "channel": 4,
      "note": 53,
      "start": 211.5425,
      "duration": 0.1652,
      "velocity": 1,
      "chip": "ym2612"
    },
    {
      "channel": 5,
      "note": 69,
      "start": 211.5437,
      "duration": 0.1478,
      "velocity": 63,
      "chip": "ym2612"
    },
    {
      "channel": 1,
      "note": 33,
      "start": 211.6898,
      "duration": 0.0826,
      "velocity": 117,
      "chip": "ym2612"
    },
    {
      "channel": 5,
      "note": 69,
      "start": 211.6926,
      "duration": 0.1479,
      "velocity": 59,
      "chip": "ym2612"
    },
    {
      "channel": 1,
      "note": 33,
      "start": 211.8388,
      "duration": 0.0826,
      "velocity": 117,
      "chip": "ym2612"
    },
    {
      "channel": 5,
      "note": 69,
      "start": 211.841,
      "duration": 0.1484,
      "velocity": 59,
      "chip": "ym2612"
    },
    {
      "channel": 1,
      "note": 33,
      "start": 211.9877,
      "duration": 0.0826,
      "velocity": 117,
      "chip": "ym2612"
    },
    {
      "channel": 5,
      "note": 69,
      "start": 211.9905,
      "duration": 0.1483,
      "velocity": 63,
      "chip": "ym2612"
    },
    {
      "channel": 0,
      "note": 28,
      "start": 212.1362,
      "duration": 2.383,
      "velocity": 108,
      "chip": "ym2612"
    },
    {
      "channel": 1,
      "note": 33,
      "start": 212.1369,
      "duration": 0.0824,
      "velocity": 117,
      "chip": "ym2612"
    },
    {
      "channel": 2,
      "note": 33,
      "start": 212.1376,
      "duration": 2.383,
      "velocity": 108,
      "chip": "ym2612"
    },
    {
      "channel": 4,
      "note": 53,
      "start": 212.1387,
      "duration": 0.1649,
      "velocity": 1,
      "chip": "ym2612"
    },
    {
      "channel": 5,
      "note": 69,
      "start": 212.14,
      "duration": 0.1473,
      "velocity": 59,
      "chip": "ym2612"
    },
    {
      "channel": 1,
      "note": 33,
      "start": 212.2856,
      "duration": 0.0826,
      "velocity": 117,
      "chip": "ym2612"
    },
    {
      "channel": 5,
      "note": 69,
      "start": 212.2885,
      "duration": 0.1485,
      "velocity": 63,
      "chip": "ym2612"
    },
    {
      "channel": 1,
      "note": 33,
      "start": 212.4346,
      "duration": 0.0826,
      "velocity": 117,
      "chip": "ym2612"
    },
    {
      "channel": 4,
      "note": 62,
      "start": 212.4369,
      "duration": 0.1479,
      "velocity": 59,
      "chip": "ym2612"
    },
    {
      "channel": 5,
      "note": 69,
      "start": 212.4381,
      "duration": 0.1473,
      "velocity": 59,
      "chip": "ym2612"
    },
    {
      "channel": 1,
      "note": 45,
      "start": 212.5836,
      "duration": 0.0826,
      "velocity": 117,
      "chip": "ym2612"
    },
    {
      "channel": 4,
      "note": 62,
      "start": 212.5853,
      "duration": 0.1484,
      "velocity": 59,
      "chip": "ym2612"
    },
    {
      "channel": 5,
      "note": 69,
      "start": 212.5859,
      "duration": 0.1491,
      "velocity": 59,
      "chip": "ym2612"
    },
    {
      "channel": 1,
      "note": 33,
      "start": 212.7326,
      "duration": 0.0826,
      "velocity": 117,
      "chip": "ym2612"
    },
    {
      "channel": 4,
      "note": 53,
      "start": 212.7348,
      "duration": 0.1646,
      "velocity": 1,
      "chip": "ym2612"
    },
    {
      "channel": 5,
      "note": 69,
      "start": 212.7361,
      "duration": 0.1471,
      "velocity": 63,
      "chip": "ym2612"
    },
    {
      "channel": 1,
      "note": 45,
      "start": 212.8816,
      "duration": 0.0826,
      "velocity": 117,
      "chip": "ym2612"
    },
    {
      "channel": 5,
      "note": 69,
      "start": 212.8843,
      "duration": 0.1486,
      "velocity": 59,
      "chip": "ym2612"
    },
    {
      "channel": 1,
      "note": 33,
      "start": 213.0305,
      "duration": 0.0826,
      "velocity": 117,
      "chip": "ym2612"
    },
    {
      "channel": 4,
      "note": 22,
      "start": 213.0327,
      "duration": 0.1479,
      "velocity": 127,
      "chip": "ym2612"
    },
    {
      "channel": 5,
      "note": 69,
      "start": 213.0334,
      "duration": 0.1479,
      "velocity": 59,
      "chip": "ym2612"
    },
    {
      "channel": 1,
      "note": 45,
      "start": 213.1795,
      "duration": 0.0826,
      "velocity": 117,
      "chip": "ym2612"
    },
    {
      "channel": 4,
      "note": 22,
      "start": 213.1811,
      "duration": 0.1486,
      "velocity": 127,
      "chip": "ym2612"
    },
    {
      "channel": 5,
      "note": 69,
      "start": 213.1823,
      "duration": 0.1487,
      "velocity": 63,
      "chip": "ym2612"
    },
    {
      "channel": 1,
      "note": 33,
      "start": 213.3285,
      "duration": 0.0826,
      "velocity": 117,
      "chip": "ym2612"
    },
    {
      "channel": 3,
      "note": 19,
      "start": 213.3296,
      "duration": 1.1253,
      "velocity": 124,
      "chip": "ym2612"
    },
    {
      "channel": 4,
      "note": 53,
      "start": 213.331,
      "duration": 0.1644,
      "velocity": 1,
      "chip": "ym2612"
    },
    {
      "channel": 5,
      "note": 69,
      "start": 213.3322,
      "duration": 0.1469,
      "velocity": 59,
      "chip": "ym2612"
    },
    {
      "channel": 1,
      "note": 33,
      "start": 213.4774,
      "duration": 0.0826,
      "velocity": 117,
      "chip": "ym2612"
    },
    {
      "channel": 5,
      "note": 69,
      "start": 213.4802,
      "duration": 0.1478,
      "velocity": 63,
      "chip": "ym2612"
    },
    {
      "channel": 1,
      "note": 33,
      "start": 213.6264,
      "duration": 0.1485,
      "velocity": 117,
      "chip": "ym2612"
    },
    {
      "channel": 5,
      "note": 69,
      "start": 213.6292,
      "duration": 0.1479,
      "velocity": 59,
      "chip": "ym2612"
    },
    {
      "channel": 1,
      "note": 45,
      "start": 213.7754,
      "duration": 0.0826,
      "velocity": 117,
      "chip": "ym2612"
    },
    {
      "channel": 5,
      "note": 69,
      "start": 213.7776,
      "duration": 0.1486,
      "velocity": 59,
      "chip": "ym2612"
    },
    {
      "channel": 1,
      "note": 33,
      "start": 213.9243,
      "duration": 0.0827,
      "velocity": 117,
      "chip": "ym2612"
    },
    {
      "channel": 4,
      "note": 53,
      "start": 213.9261,
      "duration": 0.1653,
      "velocity": 1,
      "chip": "ym2612"
    },
    {
      "channel": 5,
      "note": 69,
      "start": 213.9273,
      "duration": 0.1478,
      "velocity": 63,
      "chip": "ym2612"
    },
    {
      "channel": 1,
      "note": 33,
      "start": 214.0734,
      "duration": 0.0826,
      "velocity": 117,
      "chip": "ym2612"
    },
    {
      "channel": 5,
      "note": 69,
      "start": 214.0762,
      "duration": 0.1485,
      "velocity": 59,
      "chip": "ym2612"
    },
    {
      "channel": 1,
      "note": 33,
      "start": 214.2223,
      "duration": 0.0826,
      "velocity": 117,
      "chip": "ym2612"
    },
    {
      "channel": 4,
      "note": 22,
      "start": 214.2245,
      "duration": 0.1479,
      "velocity": 127,
      "chip": "ym2612"
    },
    {
      "channel": 5,
      "note": 69,
      "start": 214.2252,
      "duration": 0.1479,
      "velocity": 59,
      "chip": "ym2612"
    },
    {
      "channel": 1,
      "note": 33,
      "start": 214.3713,
      "duration": 0.0826,
      "velocity": 117,
      "chip": "ym2612"
    },
    {
      "channel": 4,
      "note": 22,
      "start": 214.3729,
      "duration": 0.1496,
      "velocity": 127,
      "chip": "ym2612"
    },
    {
      "channel": 5,
      "note": 69,
      "start": 214.3736,
      "duration": 0.1502,
      "velocity": 59,
      "chip": "ym2612"
    },
    {
      "channel": 0,
      "note": 28,
      "start": 214.5198,
      "duration": 0.5975,
      "velocity": 108,
      "chip": "ym2612"
    },
    {
      "channel": 1,
      "note": 33,
      "start": 214.5205,
      "duration": 0.0824,
      "velocity": 117,
      "chip": "ym2612"
    },
    {
      "channel": 2,
      "note": 69,
      "start": 214.5217,
      "duration": 0.1477,
      "velocity": 59,
      "chip": "ym2612"
    },
    {
      "channel": 3,
      "note": 21,
      "start": 214.5223,
      "duration": 0.5951,
      "velocity": 124,
      "chip": "ym2612"
    },
    {
      "channel": 4,
      "note": 7,
      "start": 214.5236,
      "duration": 0.5937,
      "velocity": 1,
      "chip": "ym2612"
    },
    {
      "channel": 5,
      "note": 7,
      "start": 214.5248,
      "duration": 0.5925,
      "velocity": 1,
      "chip": "ym2612"
    },
    {
      "channel": 1,
      "note": 33,
      "start": 214.6692,
      "duration": 0.0826,
      "velocity": 117,
      "chip": "ym2612"
    },
    {
      "channel": 2,
      "note": 69,
      "start": 214.6705,
      "duration": 0.1479,
      "velocity": 63,
      "chip": "ym2612"
    },
    {
      "channel": 1,
      "note": 33,
      "start": 214.8182,
      "duration": 0.0826,
      "velocity": 117,
      "chip": "ym2612"
    },
    {
      "channel": 2,
      "note": 69,
      "start": 214.8194,
      "duration": 0.1479,
      "velocity": 59,
      "chip": "ym2612"
    },
    {
      "channel": 1,
      "note": 45,
      "start": 214.9671,
      "duration": 0.0826,
      "velocity": 117,
      "chip": "ym2612"
    },
    {
      "channel": 2,
      "note": 69,
      "start": 214.9678,
      "duration": 0.1485,
      "velocity": 59,
      "chip": "ym2612"
    },
    {
      "channel": 1,
      "note": 33,
      "start": 215.1161,
      "duration": 0.0012,
      "velocity": 117,
      "chip": "ym2612"
    },
    {
      "channel": 2,
      "note": 69,
      "start": 215.1173,
      "duration": 0.0,
      "velocity": 63,
      "chip": "ym2612"
    }
  ]
}