{
  "track_name": "04 - Treasure Castle",
  "duration_sec": 39.999,
  "sample_rate": 44100,
  "note_count": 588,
  "unique_pitches": 41,
  "pitch_range": 63,
  "avg_note_duration": 0.3367,
  "reconstruction_stats": {
    "notes_reconstructed": 588,
    "keyon_events": 588,
    "keyoff_events": 548,
    "orphan_keyons": 5,
    "unique_pitches": 41,
    "pitch_range": 63,
    "avg_duration_sec": 0.3367
  },
  "metadata": {
    "source": "S\\Socket\\04 - Treasure Castle.vgz"
  },
  "notes": [
    {
      "channel": 1,
      "note": 73,
      "start": 0.0,
      "duration": 0.0,
      "velocity": 1,
      "chip": "ym2612"
    },
    {
      "channel": 4,
      "note": 50,
      "start": 0.0,
      "duration": 0.0,
      "velocity": 1,
      "chip": "ym2612"
    },
    {
      "channel": 4,
      "note": 62,
      "start": 0.0383,
      "duration": 0.005,
      "velocity": 94,
      "chip": "ym2612"
    },
    {
      "channel": 4,
      "note": 64,
      "start": 0.0433,
      "duration": 0.0044,
      "velocity": 94,
      "chip": "ym2612"
    },
    {
      "channel": 4,
      "note": 63,
      "start": 0.0477,
      "duration": 0.0046,
      "velocity": 94,
      "chip": "ym2612"
    },
    {
      "channel": 4,
      "note": 62,
      "start": 0.0523,
      "duration": 0.0043,
      "velocity": 94,
      "chip": "ym2612"
    },
    {
      "channel": 4,
      "note": 61,
      "start": 0.0566,
      "duration": 0.0047,
      "velocity": 94,
      "chip": "ym2612"
    },
    {
      "channel": 4,
      "note": 60,
      "start": 0.0613,
      "duration": 0.0048,
      "velocity": 94,
      "chip": "ym2612"
    },
    {
      "channel": 4,
      "note": 59,
      "start": 0.0661,
      "duration": 0.0047,
      "velocity": 94,
      "chip": "ym2612"
    },
    {
      "channel": 4,
      "note": 58,
      "start": 0.0707,
      "duration": 0.0118,
      "velocity": 94,
      "chip": "ym2612"
    },
    {
      "channel": 0,
      "note": 76,
      "start": 0.0783,
      "duration": 0.0782,
      "velocity": 96,
      "chip": "ym2612"
    },
    {
      "channel": 2,
      "note": 42,
      "start": 0.0808,
      "duration": 0.2021,
      "velocity": 105,
      "chip": "ym2612"
    },
    {
      "channel": 3,
      "note": 73,
      "start": 0.0824,
      "duration": 0.2011,
      "velocity": 105,
      "chip": "ym2612"
    },
    {
      "channel": 4,
      "note": 58,
      "start": 0.0829,
      "duration": 0.013,
      "velocity": 94,
      "chip": "ym2612"
    },
    {
      "channel": 4,
      "note": 52,
      "start": 0.0961,
      "duration": 0.0105,
      "velocity": 94,
      "chip": "ym2612"
    },
    {
      "channel": 4,
      "note": 64,
      "start": 0.107,
      "duration": 0.0127,
      "velocity": 94,
      "chip": "ym2612"
    },
    {
      "channel": 1,
      "note": 76,
      "start": 0.1192,
      "duration": 0.0752,
      "velocity": 96,
      "chip": "ym2612"
    },
    {
      "channel": 4,
      "note": 52,
      "start": 0.1341,
      "duration": 0.0124,
      "velocity": 94,
      "chip": "ym2612"
    },
    {
      "channel": 0,
      "note": 80,
      "start": 0.1568,
      "duration": 0.0244,
      "velocity": 96,
      "chip": "ym2612"
    },
    {
      "channel": 4,
      "note": 52,
      "start": 0.1577,
      "duration": 0.0117,
      "velocity": 94,
      "chip": "ym2612"
    },
    {
      "channel": 4,
      "note": 52,
      "start": 0.1697,
      "duration": 0.0124,
      "velocity": 94,
      "chip": "ym2612"
    },
    {
      "channel": 0,
      "note": 71,
      "start": 0.1814,
      "duration": 0.0257,
      "velocity": 96,
      "chip": "ym2612"
    },
    {
      "channel": 4,
      "note": 64,
      "start": 0.1823,
      "duration": 0.0129,
      "velocity": 94,
      "chip": "ym2612"
    },
    {
      "channel": 1,
      "note": 80,
      "start": 0.1946,
      "duration": 0.0254,
      "velocity": 96,
      "chip": "ym2612"
    },
    {
      "channel": 0,
      "note": 80,
      "start": 0.2073,
      "duration": 0.0243,
      "velocity": 96,
      "chip": "ym2612"
    },
    {
      "channel": 4,
      "note": 52,
      "start": 0.2082,
      "duration": 0.0126,
      "velocity": 94,
      "chip": "ym2612"
    },
    {
      "channel": 1,
      "note": 71,
      "start": 0.2203,
      "duration": 0.0242,
      "velocity": 96,
      "chip": "ym2612"
    },
    {
      "channel": 0,
      "note": 81,
      "start": 0.2319,
      "duration": 0.0503,
      "velocity": 96,
      "chip": "ym2612"
    },
    {
      "channel": 4,
      "note": 52,
      "start": 0.2328,
      "duration": 0.0126,
      "velocity": 94,
      "chip": "ym2612"
    },
    {
      "channel": 1,
      "note": 80,
      "start": 0.2448,
      "duration": 0.0242,
      "velocity": 96,
      "chip": "ym2612"
    },
    {
      "channel": 4,
      "note": 52,
      "start": 0.2456,
      "duration": 0.0115,
      "velocity": 94,
      "chip": "ym2612"
    },
    {
      "channel": 4,
      "note": 64,
      "start": 0.2573,
      "duration": 0.0125,
      "velocity": 94,
      "chip": "ym2612"
    },
    {
      "channel": 1,
      "note": 81,
      "start": 0.2693,
      "duration": 0.0506,
      "velocity": 96,
      "chip": "ym2612"
    },
    {
      "channel": 0,
      "note": 83,
      "start": 0.2825,
      "duration": 0.0741,
      "velocity": 96,
      "chip": "ym2612"
    },
    {
      "channel": 2,
      "note": 80,
      "start": 0.2832,
      "duration": 0.074,
      "velocity": 105,
      "chip": "ym2612"
    },
    {
      "channel": 3,
      "note": 71,
      "start": 0.2837,
      "duration": 0.074,
      "velocity": 105,
      "chip": "ym2612"
    },
    {
      "channel": 4,
      "note": 52,
      "start": 0.2843,
      "duration": 0.0125,
      "velocity": 94,
      "chip": "ym2612"
    },
    {
      "channel": 4,
      "note": 51,
      "start": 0.2971,
      "duration": 0.0114,
      "velocity": 94,
      "chip": "ym2612"
    },
    {
      "channel": 4,
      "note": 63,
      "start": 0.3087,
      "duration": 0.012,
      "velocity": 94,
      "chip": "ym2612"
    },
    {
      "channel": 1,
      "note": 83,
      "start": 0.3201,
      "duration": 0.0777,
      "velocity": 96,
      "chip": "ym2612"
    },
    {
      "channel": 4,
      "note": 51,
      "start": 0.3343,
      "duration": 0.0123,
      "velocity": 94,
      "chip": "ym2612"
    },
    {
      "channel": 0,
      "note": 78,
      "start": 0.3568,
      "duration": 0.1298,
      "velocity": 96,
      "chip": "ym2612"
    },
    {
      "channel": 2,
      "note": 81,
      "start": 0.3575,
      "duration": 0.0779,
      "velocity": 105,
      "chip": "ym2612"
    },
    {
      "channel": 3,
      "note": 73,
      "start": 0.358,
      "duration": 0.0779,
      "velocity": 105,
      "chip": "ym2612"
    },
    {
      "channel": 4,
      "note": 51,
      "start": 0.3584,
      "duration": 0.0118,
      "velocity": 94,
      "chip": "ym2612"
    },
    {
      "channel": 4,
      "note": 51,
      "start": 0.3705,
      "duration": 0.0149,
      "velocity": 94,
      "chip": "ym2612"
    },
    {
      "channel": 4,
      "note": 63,
      "start": 0.3856,
      "duration": 0.0129,
      "velocity": 94,
      "chip": "ym2612"
    },
    {
      "channel": 1,
      "note": 78,
      "start": 0.3981,
      "duration": 0.1267,
      "velocity": 96,
      "chip": "ym2612"
    },
    {
      "channel": 4,
      "note": 56,
      "start": 0.4113,
      "duration": 0.0124,
      "velocity": 94,
      "chip": "ym2612"
    },
    {
      "channel": 2,
      "note": 78,
      "start": 0.4357,
      "duration": 0.0516,
      "velocity": 105,
      "chip": "ym2612"
    },
    {
      "channel": 3,
      "note": 71,
      "start": 0.4361,
      "duration": 0.0517,
      "velocity": 105,
      "chip": "ym2612"
    },
    {
      "channel": 4,
      "note": 56,
      "start": 0.4366,
      "duration": 0.0122,
      "velocity": 94,
      "chip": "ym2612"
    },
    {
      "channel": 4,
      "note": 56,
      "start": 0.4491,
      "duration": 0.0113,
      "velocity": 94,
      "chip": "ym2612"
    },
    {
      "channel": 4,
      "note": 68,
      "start": 0.4607,
      "duration": 0.0119,
      "velocity": 94,
      "chip": "ym2612"
    },
    {
      "channel": 0,
      "note": 71,
      "start": 0.4869,
      "duration": 0.0746,
      "velocity": 96,
      "chip": "ym2612"
    },
    {
      "channel": 2,
      "note": 83,
      "start": 0.4876,
      "duration": 0.2003,
      "velocity": 105,
      "chip": "ym2612"
    },
    {
      "channel": 3,
      "note": 78,
      "start": 0.4882,
      "duration": 0.2003,
      "velocity": 105,
      "chip": "ym2612"
    },
    {
      "channel": 4,
      "note": 56,
      "start": 0.4887,
      "duration": 0.0126,
      "velocity": 94,
      "chip": "ym2612"
    },
    {
      "channel": 4,
      "note": 49,
      "start": 0.5016,
      "duration": 0.0114,
      "velocity": 94,
      "chip": "ym2612"
    },
    {
      "channel": 4,
      "note": 61,
      "start": 0.5132,
      "duration": 0.0123,
      "velocity": 94,
      "chip": "ym2612"
    },
    {
      "channel": 1,
      "note": 71,
      "start": 0.525,
      "duration": 0.0745,
      "velocity": 96,
      "chip": "ym2612"
    },
    {
      "channel": 4,
      "note": 49,
      "start": 0.5391,
      "duration": 0.0122,
      "velocity": 94,
      "chip": "ym2612"
    },
    {
      "channel": 0,
      "note": 76,
      "start": 0.5618,
      "duration": 0.0245,
      "velocity": 96,
      "chip": "ym2612"
    },
    {
      "channel": 4,
      "note": 49,
      "start": 0.5627,
      "duration": 0.0117,
      "velocity": 94,
      "chip": "ym2612"
    },
    {
      "channel": 4,
      "note": 49,
      "start": 0.5747,
      "duration": 0.0126,
      "velocity": 94,
      "chip": "ym2612"
    },
    {
      "channel": 0,
      "note": 68,
      "start": 0.5866,
      "duration": 0.0256,
      "velocity": 96,
      "chip": "ym2612"
    },
    {
      "channel": 4,
      "note": 61,
      "start": 0.5875,
      "duration": 0.0128,
      "velocity": 94,
      "chip": "ym2612"
    },
    {
      "channel": 1,
      "note": 76,
      "start": 0.5998,
      "duration": 0.0253,
      "velocity": 96,
      "chip": "ym2612"
    },
    {
      "channel": 0,
      "note": 73,
      "start": 0.6124,
      "duration": 0.0245,
      "velocity": 96,
      "chip": "ym2612"
    },
    {
      "channel": 4,
      "note": 49,
      "start": 0.6133,
      "duration": 0.0245,
      "velocity": 94,
      "chip": "ym2612"
    },
    {
      "channel": 1,
      "note": 68,
      "start": 0.6253,
      "duration": 0.0246,
      "velocity": 96,
      "chip": "ym2612"
    },
    {
      "channel": 0,
      "note": 75,
      "start": 0.6372,
      "duration": 0.0243,
      "velocity": 96,
      "chip": "ym2612"
    },
    {
      "channel": 4,
      "note": 51,
      "start": 0.638,
      "duration": 0.0243,
      "velocity": 94,
      "chip": "ym2612"
    },
    {
      "channel": 1,
      "note": 73,
      "start": 0.6502,
      "duration": 0.0243,
      "velocity": 96,
      "chip": "ym2612"
    },
    {
      "channel": 0,
      "note": 76,
      "start": 0.6617,
      "duration": 0.0256,
      "velocity": 96,
      "chip": "ym2612"
    },
    {
      "channel": 4,
      "note": 52,
      "start": 0.6626,
      "duration": 0.0264,
      "velocity": 94,
      "chip": "ym2612"
    },
    {
      "channel": 1,
      "note": 75,
      "start": 0.6747,
      "duration": 0.0266,
      "velocity": 96,
      "chip": "ym2612"
    },
    {
      "channel": 0,
      "note": 80,
      "start": 0.6876,
      "duration": 0.0743,
      "velocity": 96,
      "chip": "ym2612"
    },
    {
      "channel": 2,
      "note": 76,
      "start": 0.6883,
      "duration": 0.0742,
      "velocity": 105,
      "chip": "ym2612"
    },
    {
      "channel": 3,
      "note": 73,
      "start": 0.6888,
      "duration": 0.0741,
      "velocity": 105,
      "chip": "ym2612"
    },
    {
      "channel": 4,
      "note": 56,
      "start": 0.6893,
      "duration": 0.0128,
      "velocity": 94,
      "chip": "ym2612"
    },
    {
      "channel": 1,
      "note": 76,
      "start": 0.7016,
      "duration": 0.0234,
      "velocity": 96,
      "chip": "ym2612"
    },
    {
      "channel": 4,
      "note": 59,
      "start": 0.7024,
      "duration": 0.0112,
      "velocity": 94,
      "chip": "ym2612"
    },
    {
      "channel": 4,
      "note": 59,
      "start": 0.7139,
      "duration": 0.012,
      "velocity": 94,
      "chip": "ym2612"
    },
    {
      "channel": 1,
      "note": 80,
      "start": 0.7253,
      "duration": 0.0777,
      "velocity": 96,
      "chip": "ym2612"
    },
    {
      "channel": 4,
      "note": 47,
      "start": 0.7394,
      "duration": 0.0123,
      "velocity": 94,
      "chip": "ym2612"
    },
    {
      "channel": 0,
      "note": 85,
      "start": 0.7621,
      "duration": 0.1261,
      "velocity": 96,
      "chip": "ym2612"
    },
    {
      "channel": 2,
      "note": 74,
      "start": 0.7627,
      "duration": 0.0534,
      "velocity": 105,
      "chip": "ym2612"
    },
    {
      "channel": 3,
      "note": 69,
      "start": 0.7633,
      "duration": 0.1261,
      "velocity": 105,
      "chip": "ym2612"
    },
    {
      "channel": 4,
      "note": 47,
      "start": 0.7637,
      "duration": 0.0116,
      "velocity": 94,
      "chip": "ym2612"
    },
    {
      "channel": 4,
      "note": 47,
      "start": 0.7756,
      "duration": 0.0151,
      "velocity": 94,
      "chip": "ym2612"
    },
    {
      "channel": 4,
      "note": 59,
      "start": 0.791,
      "duration": 0.0128,
      "velocity": 94,
      "chip": "ym2612"
    },
    {
      "channel": 1,
      "note": 85,
      "start": 0.8032,
      "duration": 0.1229,
      "velocity": 96,
      "chip": "ym2612"
    },
    {
      "channel": 2,
      "note": 78,
      "start": 0.8164,
      "duration": 0.024,
      "velocity": 105,
      "chip": "ym2612"
    },
    {
      "channel": 4,
      "note": 52,
      "start": 0.817,
      "duration": 0.0121,
      "velocity": 94,
      "chip": "ym2612"
    },
    {
      "channel": 2,
      "note": 76,
      "start": 0.8407,
      "duration": 0.0481,
      "velocity": 105,
      "chip": "ym2612"
    },
    {
      "channel": 4,
      "note": 52,
      "start": 0.8412,
      "duration": 0.0124,
      "velocity": 94,
      "chip": "ym2612"
    },
    {
      "channel": 4,
      "note": 52,
      "start": 0.8539,
      "duration": 0.0114,
      "velocity": 94,
      "chip": "ym2612"
    },
    {
      "channel": 4,
      "note": 64,
      "start": 0.8656,
      "duration": 0.0119,
      "velocity": 94,
      "chip": "ym2612"
    },
    {
      "channel": 0,
      "note": 83,
      "start": 0.8884,
      "duration": 0.0745,
      "velocity": 96,
      "chip": "ym2612"
    },
    {
      "channel": 2,
      "note": 74,
      "start": 0.8891,
      "duration": 0.1244,
      "velocity": 105,
      "chip": "ym2612"
    },
    {
      "channel": 3,
      "note": 68,
      "start": 0.8896,
      "duration": 0.1243,
      "velocity": 105,
      "chip": "ym2612"
    },
    {
      "channel": 4,
      "note": 52,
      "start": 0.8902,
      "duration": 0.0127,
      "velocity": 94,
      "chip": "ym2612"
    },
    {
      "channel": 4,
      "note": 57,
      "start": 0.9031,
      "duration": 0.0112,
      "velocity": 94,
      "chip": "ym2612"
    },
    {
      "channel": 4,
      "note": 69,
      "start": 0.9146,
      "duration": 0.0123,
      "velocity": 94,
      "chip": "ym2612"
    },
    {
      "channel": 1,
      "note": 83,
      "start": 0.9263,
      "duration": 0.074,
      "velocity": 96,
      "chip": "ym2612"
    },
    {
      "channel": 4,
      "note": 57,
      "start": 0.9405,
      "duration": 0.0122,
      "velocity": 94,
      "chip": "ym2612"
    },
    {
      "channel": 0,
      "note": 87,
      "start": 0.9632,
      "duration": 0.1254,
      "velocity": 96,
      "chip": "ym2612"
    },
    {
      "channel": 4,
      "note": 57,
      "start": 0.9641,
      "duration": 0.0118,
      "velocity": 94,
      "chip": "ym2612"
    },
    {
      "channel": 4,
      "note": 57,
      "start": 0.9761,
      "duration": 0.0123,
      "velocity": 94,
      "chip": "ym2612"
    },
    {
      "channel": 4,
      "note": 69,
      "start": 0.9886,
      "duration": 0.0125,
      "velocity": 94,
      "chip": "ym2612"
    },
    {
      "channel": 1,
      "note": 87,
      "start": 1.0006,
      "duration": 0.1251,
      "velocity": 96,
      "chip": "ym2612"
    },
    {
      "channel": 2,
      "note": 73,
      "start": 1.0137,
      "duration": 0.0246,
      "velocity": 105,
      "chip": "ym2612"
    },
    {
      "channel": 3,
      "note": 68,
      "start": 1.0143,
      "duration": 0.0246,
      "velocity": 105,
      "chip": "ym2612"
    },
    {
      "channel": 4,
      "note": 57,
      "start": 1.0147,
      "duration": 0.0123,
      "velocity": 94,
      "chip": "ym2612"
    },
    {
      "channel": 2,
      "note": 76,
      "start": 1.0384,
      "duration": 0.0249,
      "velocity": 105,
      "chip": "ym2612"
    },
    {
      "channel": 3,
      "note": 73,
      "start": 1.0388,
      "duration": 0.0249,
      "velocity": 105,
      "chip": "ym2612"
    },
    {
      "channel": 4,
      "note": 57,
      "start": 1.0393,
      "duration": 0.0125,
      "velocity": 94,
      "chip": "ym2612"
    },
    {
      "channel": 4,
      "note": 57,
      "start": 1.0521,
      "duration": 0.0118,
      "velocity": 94,
      "chip": "ym2612"
    },
    {
      "channel": 2,
      "note": 75,
      "start": 1.0633,
      "duration": 0.0262,
      "velocity": 105,
      "chip": "ym2612"
    },
    {
      "channel": 3,
      "note": 71,
      "start": 1.0637,
      "duration": 0.0263,
      "velocity": 105,
      "chip": "ym2612"
    },
    {
      "channel": 4,
      "note": 69,
      "start": 1.0642,
      "duration": 0.0123,
      "velocity": 94,
      "chip": "ym2612"
    },
    {
      "channel": 0,
      "note": 88,
      "start": 1.0889,
      "duration": 0.0506,
      "velocity": 96,
      "chip": "ym2612"
    },
    {
      "channel": 2,
      "note": 73,
      "start": 1.0895,
      "duration": 0.0506,
      "velocity": 105,
      "chip": "ym2612"
    },
    {
      "channel": 3,
      "note": 69,
      "start": 1.09,
      "duration": 0.0506,
      "velocity": 105,
      "chip": "ym2612"
    },
    {
      "channel": 4,
      "note": 57,
      "start": 1.0905,
      "duration": 0.0122,
      "velocity": 94,
      "chip": "ym2612"
    },
    {
      "channel": 4,
      "note": 56,
      "start": 1.1029,
      "duration": 0.0113,
      "velocity": 94,
      "chip": "ym2612"
    },
    {
      "channel": 4,
      "note": 68,
      "start": 1.1145,
      "duration": 0.012,
      "velocity": 94,
      "chip": "ym2612"
    },
    {
      "channel": 1,
      "note": 88,
      "start": 1.1259,
      "duration": 0.0509,
      "velocity": 96,
      "chip": "ym2612"
    },
    {
      "channel": 0,
      "note": 90,
      "start": 1.1397,
      "duration": 0.024,
      "velocity": 96,
      "chip": "ym2612"
    },
    {
      "channel": 2,
      "note": 71,
      "start": 1.1404,
      "duration": 0.0238,
      "velocity": 105,
      "chip": "ym2612"
    },
    {
      "channel": 3,
      "note": 68,
      "start": 1.1409,
      "duration": 0.0237,
      "velocity": 105,
      "chip": "ym2612"
    },
    {
      "channel": 4,
      "note": 56,
      "start": 1.1414,
      "duration": 0.0123,
      "velocity": 94,
      "chip": "ym2612"
    },
    {
      "channel": 0,
      "note": 95,
      "start": 1.1637,
      "duration": 0.1295,
      "velocity": 96,
      "chip": "ym2612"
    },
    {
      "channel": 2,
      "note": 78,
      "start": 1.1644,
      "duration": 0.0529,
      "velocity": 105,
      "chip": "ym2612"
    },
    {
      "channel": 3,
      "note": 75,
      "start": 1.1649,
      "duration": 0.0528,
      "velocity": 105,
      "chip": "ym2612"
    },
    {
      "channel": 4,
      "note": 56,
      "start": 1.1653,
      "duration": 0.0123,
      "velocity": 94,
      "chip": "ym2612"
    },
    {
      "channel": 1,
      "note": 90,
      "start": 1.1771,
      "duration": 0.027,
      "velocity": 96,
      "chip": "ym2612"
    },
    {
      "channel": 4,
      "note": 56,
      "start": 1.1778,
      "duration": 0.0137,
      "velocity": 94,
      "chip": "ym2612"
    },
    {
      "channel": 4,
      "note": 68,
      "start": 1.1918,
      "duration": 0.0128,
      "velocity": 94,
      "chip": "ym2612"
    },
    {
      "channel": 1,
      "note": 95,
      "start": 1.2041,
      "duration": 0.1278,
      "velocity": 96,
      "chip": "ym2612"
    },
    {
      "channel": 2,
      "note": 76,
      "start": 1.2172,
      "duration": 0.0249,
      "velocity": 105,
      "chip": "ym2612"
    },
    {
      "channel": 3,
      "note": 73,
      "start": 1.2177,
      "duration": 0.0249,
      "velocity": 105,
      "chip": "ym2612"
    },
    {
      "channel": 4,
      "note": 49,
      "start": 1.2181,
      "duration": 0.0246,
      "velocity": 94,
      "chip": "ym2612"
    },
    {
      "channel": 2,
      "note": 71,
      "start": 1.2421,
      "duration": 0.0242,
      "velocity": 105,
      "chip": "ym2612"
    },
    {
      "channel": 3,
      "note": 68,
      "start": 1.2426,
      "duration": 0.0246,
      "velocity": 105,
      "chip": "ym2612"
    },
    {
      "channel": 4,
      "note": 51,
      "start": 1.2429,
      "duration": 0.0244,
      "velocity": 94,
      "chip": "ym2612"
    },
    {
      "channel": 2,
      "note": 69,
      "start": 1.2667,
      "duration": 0.0284,
      "velocity": 105,
      "chip": "ym2612"
    },
    {
      "channel": 3,
      "note": 66,
      "start": 1.2671,
      "duration": 0.0281,
      "velocity": 105,
      "chip": "ym2612"
    },
    {
      "channel": 4,
      "note": 52,
      "start": 1.2675,
      "duration": 0.0283,
      "velocity": 94,
      "chip": "ym2612"
    },
    {
      "channel": 0,
      "note": 88,
      "start": 1.2944,
      "duration": 0.0503,
      "velocity": 104,
      "chip": "ym2612"
    },
    {
      "channel": 2,
      "note": 68,
      "start": 1.295,
      "duration": 0.0982,
      "velocity": 105,
      "chip": "ym2612"
    },
    {
      "channel": 3,
      "note": 64,
      "start": 1.2956,
      "duration": 0.0981,
      "velocity": 105,
      "chip": "ym2612"
    },
    {
      "channel": 4,
      "note": 49,
      "start": 1.2961,
      "duration": 0.0125,
      "velocity": 94,
      "chip": "ym2612"
    },
    {
      "channel": 4,
      "note": 50,
      "start": 1.3089,
      "duration": 0.0112,
      "velocity": 94,
      "chip": "ym2612"
    },
    {
      "channel": 4,
      "note": 62,
      "start": 1.3204,
      "duration": 0.0132,
      "velocity": 94,
      "chip": "ym2612"
    },
    {
      "channel": 1,
      "note": 88,
      "start": 1.3332,
      "duration": 0.0471,
      "velocity": 104,
      "chip": "ym2612"
    },
    {
      "channel": 0,
      "note": 80,
      "start": 1.3449,
      "duration": 0.0476,
      "velocity": 104,
      "chip": "ym2612"
    },
    {
      "channel": 4,
      "note": 50,
      "start": 1.3458,
      "duration": 0.0122,
      "velocity": 94,
      "chip": "ym2612"
    },
    {
      "channel": 4,
      "note": 50,
      "start": 1.369,
      "duration": 0.012,
      "velocity": 94,
      "chip": "ym2612"
    },
    {
      "channel": 1,
      "note": 80,
      "start": 1.3805,
      "duration": 0.0502,
      "velocity": 104,
      "chip": "ym2612"
    },
    {
      "channel": 4,
      "note": 50,
      "start": 1.3813,
      "duration": 0.0129,
      "velocity": 94,
      "chip": "ym2612"
    },
    {
      "channel": 0,
      "note": 78,
      "start": 1.3929,
      "duration": 0.05,
      "velocity": 104,
      "chip": "ym2612"
    },
    {
      "channel": 2,
      "note": 66,
      "start": 1.3935,
      "duration": 0.1003,
      "velocity": 105,
      "chip": "ym2612"
    },
    {
      "channel": 3,
      "note": 61,
      "start": 1.394,
      "duration": 0.1003,
      "velocity": 105,
      "chip": "ym2612"
    },
    {
      "channel": 4,
      "note": 62,
      "start": 1.3945,
      "duration": 0.0122,
      "velocity": 94,
      "chip": "ym2612"
    },
    {
      "channel": 4,
      "note": 55,
      "start": 1.419,
      "duration": 0.0126,
      "velocity": 94,
      "chip": "ym2612"
    },
    {
      "channel": 1,
      "note": 78,
      "start": 1.4311,
      "duration": 0.0489,
      "velocity": 104,
      "chip": "ym2612"
    },
    {
      "channel": 0,
      "note": 83,
      "start": 1.4432,
      "duration": 0.05,
      "velocity": 104,
      "chip": "ym2612"
    },
    {
      "channel": 4,
      "note": 55,
      "start": 1.444,
      "duration": 0.0123,
      "velocity": 94,
      "chip": "ym2612"
    },
    {
      "channel": 4,
      "note": 55,
      "start": 1.4566,
      "duration": 0.0115,
      "velocity": 94,
      "chip": "ym2612"
    },
    {
      "channel": 4,
      "note": 67,
      "start": 1.4683,
      "duration": 0.0125,
      "velocity": 94,
      "chip": "ym2612"
    },
    {
      "channel": 1,
      "note": 83,
      "start": 1.4803,
      "duration": 0.0503,
      "velocity": 104,
      "chip": "ym2612"
    },
    {
      "channel": 0,
      "note": 71,
      "start": 1.4934,
      "duration": 0.0512,
      "velocity": 104,
      "chip": "ym2612"
    },
    {
      "channel": 2,
      "note": 71,
      "start": 1.4941,
      "duration": 0.1016,
      "velocity": 105,
      "chip": "ym2612"
    },
    {
      "channel": 3,
      "note": 66,
      "start": 1.4947,
      "duration": 0.1015,
      "velocity": 105,
      "chip": "ym2612"
    },
    {
      "channel": 4,
      "note": 55,
      "start": 1.4952,
      "duration": 0.0123,
      "velocity": 94,
      "chip": "ym2612"
    },
    {
      "channel": 4,
      "note": 60,
      "start": 1.5077,
      "duration": 0.0113,
      "velocity": 94,
      "chip": "ym2612"
    },
    {
      "channel": 4,
      "note": 72,
      "start": 1.5192,
      "duration": 0.0121,
      "velocity": 94,
      "chip": "ym2612"
    },
    {
      "channel": 1,
      "note": 71,
      "start": 1.5308,
      "duration": 0.0494,
      "velocity": 104,
      "chip": "ym2612"
    },
    {
      "channel": 0,
      "note": 76,
      "start": 1.545,
      "duration": 0.0501,
      "velocity": 104,
      "chip": "ym2612"
    },
    {
      "channel": 4,
      "note": 60,
      "start": 1.5459,
      "duration": 0.0122,
      "velocity": 94,
      "chip": "ym2612"
    },
    {
      "channel": 4,
      "note": 60,
      "start": 1.5688,
      "duration": 0.0122,
      "velocity": 94,
      "chip": "ym2612"
    },
    {
      "channel": 1,
      "note": 76,
      "start": 1.5805,
      "duration": 0.0515,
      "velocity": 104,
      "chip": "ym2612"
    },
    {
      "channel": 4,
      "note": 55,
      "start": 1.5812,
      "duration": 0.0154,
      "velocity": 94,
      "chip": "ym2612"
    },
    {
      "channel": 0,
      "note": 83,
      "start": 1.5953,
      "duration": 0.0983,
      "velocity": 104,
      "chip": "ym2612"
    },
    {
      "channel": 2,
      "note": 76,
      "start": 1.5959,
      "duration": 0.0992,
      "velocity": 105,
      "chip": "ym2612"
    },
    {
      "channel": 3,
      "note": 71,
      "start": 1.5965,
      "duration": 0.1002,
      "velocity": 105,
      "chip": "ym2612"
    },
    {
      "channel": 4,
      "note": 60,
      "start": 1.5969,
      "duration": 0.0123,
      "velocity": 94,
      "chip": "ym2612"
    },
    {
      "channel": 4,
      "note": 59,
      "start": 1.6204,
      "duration": 0.0123,
      "velocity": 94,
      "chip": "ym2612"
    },
    {
      "channel": 1,
      "note": 83,
      "start": 1.6322,
      "duration": 0.1022,
      "velocity": 104,
      "chip": "ym2612"
    },
    {
      "channel": 4,
      "note": 59,
      "start": 1.645,
      "duration": 0.0118,
      "velocity": 94,
      "chip": "ym2612"
    },
    {
      "channel": 4,
      "note": 59,
      "start": 1.657,
      "duration": 0.0124,
      "velocity": 94,
      "chip": "ym2612"
    },
    {
      "channel": 4,
      "note": 71,
      "start": 1.6697,
      "duration": 0.0137,
      "velocity": 94,
      "chip": "ym2612"
    },
    {
      "channel": 0,
      "note": 81,
      "start": 1.6948,
      "duration": 0.0773,
      "velocity": 96,
      "chip": "ym2612"
    },
    {
      "channel": 2,
      "note": 78,
      "start": 1.6964,
      "duration": 0.2021,
      "velocity": 105,
      "chip": "ym2612"
    },
    {
      "channel": 3,
      "note": 69,
      "start": 1.698,
      "duration": 0.2011,
      "velocity": 105,
      "chip": "ym2612"
    },
    {
      "channel": 4,
      "note": 59,
      "start": 1.6986,
      "duration": 0.0125,
      "velocity": 94,
      "chip": "ym2612"
    },
    {
      "channel": 4,
      "note": 52,
      "start": 1.7113,
      "duration": 0.0115,
      "velocity": 94,
      "chip": "ym2612"
    },
    {
      "channel": 4,
      "note": 64,
      "start": 1.7231,
      "duration": 0.0131,
      "velocity": 94,
      "chip": "ym2612"
    },
    {
      "channel": 1,
      "note": 81,
      "start": 1.7356,
      "duration": 0.0743,
      "velocity": 96,
      "chip": "ym2612"
    },
    {
      "channel": 4,
      "note": 52,
      "start": 1.7496,
      "duration": 0.0124,
      "velocity": 94,
      "chip": "ym2612"
    },
    {
      "channel": 0,
      "note": 80,
      "start": 1.7723,
      "duration": 0.0244,
      "velocity": 96,
      "chip": "ym2612"
    },
    {
      "channel": 4,
      "note": 52,
      "start": 1.7732,
      "duration": 0.012,
      "velocity": 94,
      "chip": "ym2612"
    },
    {
      "channel": 4,
      "note": 52,
      "start": 1.7854,
      "duration": 0.0122,
      "velocity": 94,
      "chip": "ym2612"
    },
    {
      "channel": 0,
      "note": 71,
      "start": 1.797,
      "duration": 0.0256,
      "velocity": 96,
      "chip": "ym2612"
    },
    {
      "channel": 4,
      "note": 64,
      "start": 1.7979,
      "duration": 0.0128,
      "velocity": 94,
      "chip": "ym2612"
    },
    {
      "channel": 1,
      "note": 80,
      "start": 1.8102,
      "duration": 0.0254,
      "velocity": 96,
      "chip": "ym2612"
    },
    {
      "channel": 0,
      "note": 80,
      "start": 1.8229,
      "duration": 0.0245,
      "velocity": 96,
      "chip": "ym2612"
    },
    {
      "channel": 4,
      "note": 52,
      "start": 1.8237,
      "duration": 0.0126,
      "velocity": 94,
      "chip": "ym2612"
    },
    {
      "channel": 1,
      "note": 71,
      "start": 1.8358,
      "duration": 0.0246,
      "velocity": 96,
      "chip": "ym2612"
    },
    {
      "channel": 0,
      "note": 81,
      "start": 1.8476,
      "duration": 0.0502,
      "velocity": 96,
      "chip": "ym2612"
    },
    {
      "channel": 4,
      "note": 52,
      "start": 1.8485,
      "duration": 0.0127,
      "velocity": 94,
      "chip": "ym2612"
    },
    {
      "channel": 1,
      "note": 80,
      "start": 1.8606,
      "duration": 0.0242,
      "velocity": 96,
      "chip": "ym2612"
    },
    {
      "channel": 4,
      "note": 52,
      "start": 1.8615,
      "duration": 0.0113,
      "velocity": 94,
      "chip": "ym2612"
    },
    {
      "channel": 4,
      "note": 64,
      "start": 1.873,
      "duration": 0.0127,
      "velocity": 94,
      "chip": "ym2612"
    },
    {
      "channel": 1,
      "note": 81,
      "start": 1.8851,
      "duration": 0.0505,
      "velocity": 96,
      "chip": "ym2612"
    },
    {
      "channel": 0,
      "note": 83,
      "start": 1.8981,
      "duration": 0.0746,
      "velocity": 96,
      "chip": "ym2612"
    },
    {
      "channel": 2,
      "note": 80,
      "start": 1.8989,
      "duration": 0.0744,
      "velocity": 105,
      "chip": "ym2612"
    },
    {
      "channel": 3,
      "note": 71,
      "start": 1.8995,
      "duration": 0.0744,
      "velocity": 105,
      "chip": "ym2612"
    },
    {
      "channel": 4,
      "note": 52,
      "start": 1.9,
      "duration": 0.0125,
      "velocity": 94,
      "chip": "ym2612"
    },
    {
      "channel": 4,
      "note": 51,
      "start": 1.9127,
      "duration": 0.0112,
      "velocity": 94,
      "chip": "ym2612"
    },
    {
      "channel": 4,
      "note": 63,
      "start": 1.9242,
      "duration": 0.0122,
      "velocity": 94,
      "chip": "ym2612"
    },
    {
      "channel": 1,
      "note": 83,
      "start": 1.9359,
      "duration": 0.0778,
      "velocity": 96,
      "chip": "ym2612"
    },
    {
      "channel": 4,
      "note": 51,
      "start": 1.9503,
      "duration": 0.0124,
      "velocity": 94,
      "chip": "ym2612"
    },
    {
      "channel": 0,
      "note": 78,
      "start": 1.9729,
      "duration": 0.1297,
      "velocity": 96,
      "chip": "ym2612"
    },
    {
      "channel": 2,
      "note": 81,
      "start": 1.9736,
      "duration": 0.078,
      "velocity": 105,
      "chip": "ym2612"
    },
    {
      "channel": 3,
      "note": 73,
      "start": 1.9741,
      "duration": 0.078,
      "velocity": 105,
      "chip": "ym2612"
    },
    {
      "channel": 4,
      "note": 51,
      "start": 1.9745,
      "duration": 0.0118,
      "velocity": 94,
      "chip": "ym2612"
    },
    {
      "channel": 4,
      "note": 51,
      "start": 1.9866,
      "duration": 0.0151,
      "velocity": 94,
      "chip": "ym2612"
    },
    {
      "channel": 4,
      "note": 63,
      "start": 2.002,
      "duration": 0.0125,
      "velocity": 94,
      "chip": "ym2612"
    },
    {
      "channel": 1,
      "note": 78,
      "start": 2.014,
      "duration": 0.1262,
      "velocity": 96,
      "chip": "ym2612"
    },
    {
      "channel": 4,
      "note": 56,
      "start": 2.0274,
      "duration": 0.0122,
      "velocity": 94,
      "chip": "ym2612"
    },
    {
      "channel": 2,
      "note": 78,
      "start": 2.0518,
      "duration": 0.0514,
      "velocity": 105,
      "chip": "ym2612"
    },
    {
      "channel": 3,
      "note": 71,
      "start": 2.0524,
      "duration": 0.0515,
      "velocity": 105,
      "chip": "ym2612"
    },
    {
      "channel": 4,
      "note": 56,
      "start": 2.0528,
      "duration": 0.0124,
      "velocity": 94,
      "chip": "ym2612"
    },
    {
      "channel": 4,
      "note": 56,
      "start": 2.0654,
      "duration": 0.0113,
      "velocity": 94,
      "chip": "ym2612"
    },
    {
      "channel": 4,
      "note": 68,
      "start": 2.077,
      "duration": 0.0119,
      "velocity": 94,
      "chip": "ym2612"
    },
    {
      "channel": 0,
      "note": 71,
      "start": 2.1029,
      "duration": 0.0741,
      "velocity": 96,
      "chip": "ym2612"
    },
    {
      "channel": 2,
      "note": 83,
      "start": 2.1036,
      "duration": 0.1999,
      "velocity": 105,
      "chip": "ym2612"
    },
    {
      "channel": 3,
      "note": 78,
      "start": 2.1041,
      "duration": 0.1999,
      "velocity": 105,
      "chip": "ym2612"
    },
    {
      "channel": 4,
      "note": 56,
      "start": 2.1046,
      "duration": 0.0125,
      "velocity": 94,
      "chip": "ym2612"
    },
    {
      "channel": 4,
      "note": 49,
      "start": 2.1174,
      "duration": 0.0114,
      "velocity": 94,
      "chip": "ym2612"
    },
    {
      "channel": 4,
      "note": 61,
      "start": 2.129,
      "duration": 0.0119,
      "velocity": 94,
      "chip": "ym2612"
    },
    {
      "channel": 1,
      "note": 71,
      "start": 2.1404,
      "duration": 0.0744,
      "velocity": 96,
      "chip": "ym2612"
    },
    {
      "channel": 4,
      "note": 49,
      "start": 2.1547,
      "duration": 0.0123,
      "velocity": 94,
      "chip": "ym2612"
    },
    {
      "channel": 0,
      "note": 76,
      "start": 2.1772,
      "duration": 0.0244,
      "velocity": 96,
      "chip": "ym2612"
    },
    {
      "channel": 4,
      "note": 49,
      "start": 2.1781,
      "duration": 0.0119,
      "velocity": 94,
      "chip": "ym2612"
    },
    {
      "channel": 4,
      "note": 49,
      "start": 2.1902,
      "duration": 0.0123,
      "velocity": 94,
      "chip": "ym2612"
    },
    {
      "channel": 0,
      "note": 68,
      "start": 2.2019,
      "duration": 0.0256,
      "velocity": 96,
      "chip": "ym2612"
    },
    {
      "channel": 4,
      "note": 61,
      "start": 2.2028,
      "duration": 0.0128,
      "velocity": 94,
      "chip": "ym2612"
    },
    {
      "channel": 1,
      "note": 76,
      "start": 2.2151,
      "duration": 0.0255,
      "velocity": 96,
      "chip": "ym2612"
    },
    {
      "channel": 0,
      "note": 73,
      "start": 2.2277,
      "duration": 0.0247,
      "velocity": 96,
      "chip": "ym2612"
    },
    {
      "channel": 4,
      "note": 49,
      "start": 2.2286,
      "duration": 0.0247,
      "velocity": 94,
      "chip": "ym2612"
    },
    {
      "channel": 1,
      "note": 68,
      "start": 2.2408,
      "duration": 0.0246,
      "velocity": 96,
      "chip": "ym2612"
    },
    {
      "channel": 0,
      "note": 75,
      "start": 2.2527,
      "duration": 0.0243,
      "velocity": 96,
      "chip": "ym2612"
    },
    {
      "channel": 4,
      "note": 51,
      "start": 2.2536,
      "duration": 0.0243,
      "velocity": 94,
      "chip": "ym2612"
    },
    {
      "channel": 1,
      "note": 73,
      "start": 2.2657,
      "duration": 0.0243,
      "velocity": 96,
      "chip": "ym2612"
    },
    {
      "channel": 0,
      "note": 76,
      "start": 2.2773,
      "duration": 0.0256,
      "velocity": 96,
      "chip": "ym2612"
    },
    {
      "channel": 4,
      "note": 52,
      "start": 2.2781,
      "duration": 0.0264,
      "velocity": 94,
      "chip": "ym2612"
    },
    {
      "channel": 1,
      "note": 75,
      "start": 2.2902,
      "duration": 0.0267,
      "velocity": 96,
      "chip": "ym2612"
    },
    {
      "channel": 0,
      "note": 80,
      "start": 2.3031,
      "duration": 0.0744,
      "velocity": 96,
      "chip": "ym2612"
    },
    {
      "channel": 2,
      "note": 76,
      "start": 2.3038,
      "duration": 0.0744,
      "velocity": 105,
      "chip": "ym2612"
    },
    {
      "channel": 3,
      "note": 73,
      "start": 2.3044,
      "duration": 0.0743,
      "velocity": 105,
      "chip": "ym2612"
    },
    {
      "channel": 4,
      "note": 56,
      "start": 2.3049,
      "duration": 0.0128,
      "velocity": 94,
      "chip": "ym2612"
    },
    {
      "channel": 1,
      "note": 76,
      "start": 2.3172,
      "duration": 0.0234,
      "velocity": 96,
      "chip": "ym2612"
    },
    {
      "channel": 4,
      "note": 59,
      "start": 2.3179,
      "duration": 0.0112,
      "velocity": 94,
      "chip": "ym2612"
    },
    {
      "channel": 4,
      "note": 59,
      "start": 2.3294,
      "duration": 0.012,
      "velocity": 94,
      "chip": "ym2612"
    },
    {
      "channel": 1,
      "note": 80,
      "start": 2.3408,
      "duration": 0.0772,
      "velocity": 96,
      "chip": "ym2612"
    },
    {
      "channel": 4,
      "note": 47,
      "start": 2.355,
      "duration": 0.0123,
      "velocity": 94,
      "chip": "ym2612"
    },
    {
      "channel": 0,
      "note": 85,
      "start": 2.3778,
      "duration": 0.1255,
      "velocity": 96,
      "chip": "ym2612"
    },
    {
      "channel": 2,
      "note": 74,
      "start": 2.3784,
      "duration": 0.0529,
      "velocity": 105,
      "chip": "ym2612"
    },
    {
      "channel": 3,
      "note": 69,
      "start": 2.3789,
      "duration": 0.1255,
      "velocity": 105,
      "chip": "ym2612"
    },
    {
      "channel": 4,
      "note": 47,
      "start": 2.3794,
      "duration": 0.0118,
      "velocity": 94,
      "chip": "ym2612"
    },
    {
      "channel": 4,
      "note": 47,
      "start": 2.3914,
      "duration": 0.0147,
      "velocity": 94,
      "chip": "ym2612"
    },
    {
      "channel": 4,
      "note": 59,
      "start": 2.4064,
      "duration": 0.0124,
      "velocity": 94,
      "chip": "ym2612"
    },
    {
      "channel": 1,
      "note": 85,
      "start": 2.4183,
      "duration": 0.1224,
      "velocity": 96,
      "chip": "ym2612"
    },
    {
      "channel": 2,
      "note": 78,
      "start": 2.4316,
      "duration": 0.024,
      "velocity": 105,
      "chip": "ym2612"
    },
    {
      "channel": 4,
      "note": 52,
      "start": 2.4321,
      "duration": 0.0121,
      "velocity": 94,
      "chip": "ym2612"
    },
    {
      "channel": 2,
      "note": 76,
      "start": 2.4558,
      "duration": 0.0481,
      "velocity": 105,
      "chip": "ym2612"
    },
    {
      "channel": 4,
      "note": 52,
      "start": 2.4565,
      "duration": 0.0123,
      "velocity": 94,
      "chip": "ym2612"
    },
    {
      "channel": 4,
      "note": 52,
      "start": 2.469,
      "duration": 0.0114,
      "velocity": 94,
      "chip": "ym2612"
    },
    {
      "channel": 4,
      "note": 64,
      "start": 2.4807,
      "duration": 0.0119,
      "velocity": 94,
      "chip": "ym2612"
    },
    {
      "channel": 0,
      "note": 83,
      "start": 2.5035,
      "duration": 0.0742,
      "velocity": 96,
      "chip": "ym2612"
    },
    {
      "channel": 2,
      "note": 74,
      "start": 2.5042,
      "duration": 0.1239,
      "velocity": 105,
      "chip": "ym2612"
    },
    {
      "channel": 3,
      "note": 68,
      "start": 2.5047,
      "duration": 0.1238,
      "velocity": 105,
      "chip": "ym2612"
    },
    {
      "channel": 4,
      "note": 52,
      "start": 2.5053,
      "duration": 0.0122,
      "velocity": 94,
      "chip": "ym2612"
    },
    {
      "channel": 4,
      "note": 57,
      "start": 2.5178,
      "duration": 0.0113,
      "velocity": 94,
      "chip": "ym2612"
    },
    {
      "channel": 4,
      "note": 69,
      "start": 2.5293,
      "duration": 0.0121,
      "velocity": 94,
      "chip": "ym2612"
    },
    {
      "channel": 1,
      "note": 83,
      "start": 2.5409,
      "duration": 0.0739,
      "velocity": 96,
      "chip": "ym2612"
    },
    {
      "channel": 4,
      "note": 57,
      "start": 2.5553,
      "duration": 0.0125,
      "velocity": 94,
      "chip": "ym2612"
    },
    {
      "channel": 0,
      "note": 87,
      "start": 2.5779,
      "duration": 0.125,
      "velocity": 96,
      "chip": "ym2612"
    },
    {
      "channel": 4,
      "note": 57,
      "start": 2.5788,
      "duration": 0.0119,
      "velocity": 94,
      "chip": "ym2612"
    },
    {
      "channel": 4,
      "note": 57,
      "start": 2.591,
      "duration": 0.012,
      "velocity": 94,
      "chip": "ym2612"
    },
    {
      "channel": 4,
      "note": 69,
      "start": 2.6032,
      "duration": 0.0124,
      "velocity": 94,
      "chip": "ym2612"
    },
    {
      "channel": 1,
      "note": 87,
      "start": 2.615,
      "duration": 0.1249,
      "velocity": 96,
      "chip": "ym2612"
    },
    {
      "channel": 2,
      "note": 73,
      "start": 2.6283,
      "duration": 0.0244,
      "velocity": 105,
      "chip": "ym2612"
    },
    {
      "channel": 3,
      "note": 68,
      "start": 2.6288,
      "duration": 0.0243,
      "velocity": 105,
      "chip": "ym2612"
    },
    {
      "channel": 4,
      "note": 57,
      "start": 2.6293,
      "duration": 0.012,
      "velocity": 94,
      "chip": "ym2612"
    },
    {
      "channel": 2,
      "note": 76,
      "start": 2.6527,
      "duration": 0.0249,
      "velocity": 105,
      "chip": "ym2612"
    },
    {
      "channel": 3,
      "note": 73,
      "start": 2.6531,
      "duration": 0.0249,
      "velocity": 105,
      "chip": "ym2612"
    },
    {
      "channel": 4,
      "note": 57,
      "start": 2.6536,
      "duration": 0.0125,
      "velocity": 94,
      "chip": "ym2612"
    },
    {
      "channel": 4,
      "note": 57,
      "start": 2.6664,
      "duration": 0.0118,
      "velocity": 94,
      "chip": "ym2612"
    },
    {
      "channel": 2,
      "note": 75,
      "start": 2.6776,
      "duration": 0.0262,
      "velocity": 105,
      "chip": "ym2612"
    },
    {
      "channel": 3,
      "note": 71,
      "start": 2.678,
      "duration": 0.0263,
      "velocity": 105,
      "chip": "ym2612"
    },
    {
      "channel": 4,
      "note": 69,
      "start": 2.6785,
      "duration": 0.0123,
      "velocity": 94,
      "chip": "ym2612"
    },
    {
      "channel": 0,
      "note": 88,
      "start": 2.7032,
      "duration": 0.0506,
      "velocity": 96,
      "chip": "ym2612"
    },
    {
      "channel": 2,
      "note": 73,
      "start": 2.7038,
      "duration": 0.0506,
      "velocity": 105,
      "chip": "ym2612"
    },
    {
      "channel": 3,
      "note": 69,
      "start": 2.7043,
      "duration": 0.0506,
      "velocity": 105,
      "chip": "ym2612"
    },
    {
      "channel": 4,
      "note": 57,
      "start": 2.7048,
      "duration": 0.0122,
      "velocity": 94,
      "chip": "ym2612"
    },
    {
      "channel": 4,
      "note": 56,
      "start": 2.7172,
      "duration": 0.0113,
      "velocity": 94,
      "chip": "ym2612"
    },
    {
      "channel": 4,
      "note": 68,
      "start": 2.7288,
      "duration": 0.012,
      "velocity": 94,
      "chip": "ym2612"
    },
    {
      "channel": 1,
      "note": 88,
      "start": 2.7402,
      "duration": 0.0509,
      "velocity": 96,
      "chip": "ym2612"
    },
    {
      "channel": 0,
      "note": 90,
      "start": 2.754,
      "duration": 0.024,
      "velocity": 96,
      "chip": "ym2612"
    },
    {
      "channel": 2,
      "note": 71,
      "start": 2.7546,
      "duration": 0.0238,
      "velocity": 105,
      "chip": "ym2612"
    },
    {
      "channel": 3,
      "note": 68,
      "start": 2.7552,
      "duration": 0.0237,
      "velocity": 105,
      "chip": "ym2612"
    },
    {
      "channel": 4,
      "note": 56,
      "start": 2.7557,
      "duration": 0.0123,
      "velocity": 94,
      "chip": "ym2612"
    },
    {
      "channel": 0,
      "note": 95,
      "start": 2.778,
      "duration": 0.1295,
      "velocity": 96,
      "chip": "ym2612"
    },
    {
      "channel": 2,
      "note": 78,
      "start": 2.7787,
      "duration": 0.0529,
      "velocity": 105,
      "chip": "ym2612"
    },
    {
      "channel": 3,
      "note": 75,
      "start": 2.7792,
      "duration": 0.0528,
      "velocity": 105,
      "chip": "ym2612"
    },
    {
      "channel": 4,
      "note": 56,
      "start": 2.7796,
      "duration": 0.0123,
      "velocity": 94,
      "chip": "ym2612"
    },
    {
      "channel": 1,
      "note": 90,
      "start": 2.7914,
      "duration": 0.027,
      "velocity": 96,
      "chip": "ym2612"
    },
    {
      "channel": 4,
      "note": 56,
      "start": 2.7921,
      "duration": 0.0137,
      "velocity": 94,
      "chip": "ym2612"
    },
    {
      "channel": 4,
      "note": 68,
      "start": 2.8061,
      "duration": 0.0128,
      "velocity": 94,
      "chip": "ym2612"
    },
    {
      "channel": 1,
      "note": 95,
      "start": 2.8184,
      "duration": 0.1278,
      "velocity": 96,
      "chip": "ym2612"
    },
    {
      "channel": 2,
      "note": 76,
      "start": 2.8315,
      "duration": 0.0249,
      "velocity": 105,
      "chip": "ym2612"
    },
    {
      "channel": 3,
      "note": 73,
      "start": 2.832,
      "duration": 0.0249,
      "velocity": 105,
      "chip": "ym2612"
    },
    {
      "channel": 4,
      "note": 49,
      "start": 2.8324,
      "duration": 0.0246,
      "velocity": 94,
      "chip": "ym2612"
    },
    {
      "channel": 2,
      "note": 71,
      "start": 2.8564,
      "duration": 0.0242,
      "velocity": 105,
      "chip": "ym2612"
    },
    {
      "channel": 3,
      "note": 68,
      "start": 2.8568,
      "duration": 0.0246,
      "velocity": 105,
      "chip": "ym2612"
    },
    {
      "channel": 4,
      "note": 51,
      "start": 2.8572,
      "duration": 0.0244,
      "velocity": 94,
      "chip": "ym2612"
    },
    {
      "channel": 2,
      "note": 69,
      "start": 2.881,
      "duration": 0.0284,
      "velocity": 105,
      "chip": "ym2612"
    },
    {
      "channel": 3,
      "note": 66,
      "start": 2.8814,
      "duration": 0.0281,
      "velocity": 105,
      "chip": "ym2612"
    },
    {
      "channel": 4,
      "note": 52,
      "start": 2.8818,
      "duration": 0.0283,
      "velocity": 94,
      "chip": "ym2612"
    },
    {
      "channel": 0,
      "note": 88,
      "start": 2.9087,
      "duration": 0.0503,
      "velocity": 104,
      "chip": "ym2612"
    },
    {
      "channel": 2,
      "note": 68,
      "start": 2.9093,
      "duration": 0.0982,
      "velocity": 105,
      "chip": "ym2612"
    },
    {
      "channel": 3,
      "note": 64,
      "start": 2.9098,
      "duration": 0.0981,
      "velocity": 105,
      "chip": "ym2612"
    },
    {
      "channel": 4,
      "note": 49,
      "start": 2.9104,
      "duration": 0.0125,
      "velocity": 94,
      "chip": "ym2612"
    },
    {
      "channel": 4,
      "note": 50,
      "start": 2.9232,
      "duration": 0.0112,
      "velocity": 94,
      "chip": "ym2612"
    },
    {
      "channel": 4,
      "note": 62,
      "start": 2.9347,
      "duration": 0.0132,
      "velocity": 94,
      "chip": "ym2612"
    },
    {
      "channel": 1,
      "note": 88,
      "start": 2.9474,
      "duration": 0.0471,
      "velocity": 104,
      "chip": "ym2612"
    },
    {
      "channel": 0,
      "note": 80,
      "start": 2.9592,
      "duration": 0.0476,
      "velocity": 104,
      "chip": "ym2612"
    },
    {
      "channel": 4,
      "note": 50,
      "start": 2.9601,
      "duration": 0.0122,
      "velocity": 94,
      "chip": "ym2612"
    },
    {
      "channel": 4,
      "note": 50,
      "start": 2.9833,
      "duration": 0.012,
      "velocity": 94,
      "chip": "ym2612"
    },
    {
      "channel": 1,
      "note": 80,
      "start": 2.9948,
      "duration": 0.0502,
      "velocity": 104,
      "chip": "ym2612"
    },
    {
      "channel": 4,
      "note": 50,
      "start": 2.9956,
      "duration": 0.0129,
      "velocity": 94,
      "chip": "ym2612"
    },
    {
      "channel": 0,
      "note": 78,
      "start": 3.0072,
      "duration": 0.05,
      "velocity": 104,
      "chip": "ym2612"
    },
    {
      "channel": 2,
      "note": 66,
      "start": 3.0078,
      "duration": 0.1003,
      "velocity": 105,
      "chip": "ym2612"
    },
    {
      "channel": 3,
      "note": 61,
      "start": 3.0083,
      "duration": 0.1004,
      "velocity": 105,
      "chip": "ym2612"
    },
    {
      "channel": 4,
      "note": 62,
      "start": 3.0088,
      "duration": 0.0122,
      "velocity": 94,
      "chip": "ym2612"
    },
    {
      "channel": 4,
      "note": 55,
      "start": 3.0333,
      "duration": 0.0126,
      "velocity": 94,
      "chip": "ym2612"
    },
    {
      "channel": 1,
      "note": 78,
      "start": 3.0454,
      "duration": 0.0489,
      "velocity": 104,
      "chip": "ym2612"
    },
    {
      "channel": 0,
      "note": 83,
      "start": 3.0575,
      "duration": 0.05,
      "velocity": 104,
      "chip": "ym2612"
    },
    {
      "channel": 4,
      "note": 55,
      "start": 3.0583,
      "duration": 0.0123,
      "velocity": 94,
      "chip": "ym2612"
    },
    {
      "channel": 4,
      "note": 55,
      "start": 3.0709,
      "duration": 0.0115,
      "velocity": 94,
      "chip": "ym2612"
    },
    {
      "channel": 4,
      "note": 67,
      "start": 3.0826,
      "duration": 0.0125,
      "velocity": 94,
      "chip": "ym2612"
    },
    {
      "channel": 1,
      "note": 83,
      "start": 3.0946,
      "duration": 0.0503,
      "velocity": 104,
      "chip": "ym2612"
    },
    {
      "channel": 0,
      "note": 71,
      "start": 3.1078,
      "duration": 0.0509,
      "velocity": 104,
      "chip": "ym2612"
    },
    {
      "channel": 2,
      "note": 71,
      "start": 3.1085,
      "duration": 0.0988,
      "velocity": 105,
      "chip": "ym2612"
    },
    {
      "channel": 3,
      "note": 66,
      "start": 3.109,
      "duration": 0.0987,
      "velocity": 105,
      "chip": "ym2612"
    },
    {
      "channel": 4,
      "note": 55,
      "start": 3.1096,
      "duration": 0.0124,
      "velocity": 94,
      "chip": "ym2612"
    },
    {
      "channel": 4,
      "note": 60,
      "start": 3.1223,
      "duration": 0.0111,
      "velocity": 94,
      "chip": "ym2612"
    },
    {
      "channel": 4,
      "note": 72,
      "start": 3.1336,
      "duration": 0.012,
      "velocity": 94,
      "chip": "ym2612"
    },
    {
      "channel": 1,
      "note": 71,
      "start": 3.1451,
      "duration": 0.0492,
      "velocity": 104,
      "chip": "ym2612"
    },
    {
      "channel": 0,
      "note": 76,
      "start": 3.159,
      "duration": 0.0477,
      "velocity": 104,
      "chip": "ym2612"
    },
    {
      "channel": 4,
      "note": 60,
      "start": 3.1599,
      "duration": 0.0123,
      "velocity": 94,
      "chip": "ym2612"
    },
    {
      "channel": 4,
      "note": 60,
      "start": 3.1831,
      "duration": 0.0121,
      "velocity": 94,
      "chip": "ym2612"
    },
    {
      "channel": 1,
      "note": 76,
      "start": 3.1946,
      "duration": 0.0514,
      "velocity": 104,
      "chip": "ym2612"
    },
    {
      "channel": 4,
      "note": 55,
      "start": 3.1954,
      "duration": 0.0129,
      "velocity": 94,
      "chip": "ym2612"
    },
    {
      "channel": 0,
      "note": 83,
      "start": 3.2069,
      "duration": 0.1018,
      "velocity": 104,
      "chip": "ym2612"
    },
    {
      "channel": 2,
      "note": 76,
      "start": 3.2076,
      "duration": 0.1027,
      "velocity": 105,
      "chip": "ym2612"
    },
    {
      "channel": 3,
      "note": 71,
      "start": 3.2081,
      "duration": 0.1034,
      "velocity": 105,
      "chip": "ym2612"
    },
    {
      "channel": 4,
      "note": 60,
      "start": 3.2085,
      "duration": 0.0138,
      "velocity": 94,
      "chip": "ym2612"
    },
    {
      "channel": 4,
      "note": 59,
      "start": 3.2343,
      "duration": 0.0125,
      "velocity": 94,
      "chip": "ym2612"
    },
    {
      "channel": 1,
      "note": 83,
      "start": 3.2463,
      "duration": 0.103,
      "velocity": 104,
      "chip": "ym2612"
    },
    {
      "channel": 4,
      "note": 59,
      "start": 3.2589,
      "duration": 0.0117,
      "velocity": 94,
      "chip": "ym2612"
    },
    {
      "channel": 4,
      "note": 59,
      "start": 3.2709,
      "duration": 0.0124,
      "velocity": 94,
      "chip": "ym2612"
    },
    {
      "channel": 4,
      "note": 71,
      "start": 3.2836,
      "duration": 0.0145,
      "velocity": 94,
      "chip": "ym2612"
    },
    {
      "channel": 0,
      "note": 81,
      "start": 3.3099,
      "duration": 0.0536,
      "velocity": 103,
      "chip": "ym2612"
    },
    {
      "channel": 3,
      "note": 69,
      "start": 3.3128,
      "duration": 0.103,
      "velocity": 105,
      "chip": "ym2612"
    },
    {
      "channel": 4,
      "note": 59,
      "start": 3.3133,
      "duration": 0.0121,
      "velocity": 94,
      "chip": "ym2612"
    },
    {
      "channel": 4,
      "note": 61,
      "start": 3.3374,
      "duration": 0.0136,
      "velocity": 94,
      "chip": "ym2612"
    },
    {
      "channel": 1,
      "note": 81,
      "start": 3.3506,
      "duration": 0.0512,
      "velocity": 103,
      "chip": "ym2612"
    },
    {
      "channel": 0,
      "note": 80,
      "start": 3.3637,
      "duration": 0.0249,
      "velocity": 103,
      "chip": "ym2612"
    },
    {
      "channel": 4,
      "note": 61,
      "start": 3.3646,
      "duration": 0.0129,
      "velocity": 94,
      "chip": "ym2612"
    },
    {
      "channel": 0,
      "note": 83,
      "start": 3.3888,
      "duration": 0.0543,
      "velocity": 103,
      "chip": "ym2612"
    },
    {
      "channel": 4,
      "note": 61,
      "start": 3.3897,
      "duration": 0.0128,
      "velocity": 94,
      "chip": "ym2612"
    },
    {
      "channel": 1,
      "note": 80,
      "start": 3.4021,
      "duration": 0.0275,
      "velocity": 103,
      "chip": "ym2612"
    },
    {
      "channel": 4,
      "note": 56,
      "start": 3.4028,
      "duration": 0.0135,
      "velocity": 94,
      "chip": "ym2612"
    },
    {
      "channel": 2,
      "note": 78,
      "start": 3.4156,
      "duration": 0.0145,
      "velocity": 127,
      "chip": "ym2612"
    },
    {
      "channel": 3,
      "note": 76,
      "start": 3.4161,
      "duration": 0.1105,
      "velocity": 105,
      "chip": "ym2612"
    },
    {
      "channel": 4,
      "note": 55,
      "start": 3.4165,
      "duration": 0.0141,
      "velocity": 94,
      "chip": "ym2612"
    },
    {
      "channel": 1,
      "note": 83,
      "start": 3.4298,
      "duration": 0.0547,
      "velocity": 103,
      "chip": "ym2612"
    },
    {
      "channel": 2,
      "note": 105,
      "start": 3.4303,
      "duration": 0.0135,
      "velocity": 127,
      "chip": "ym2612"
    },
    {
      "channel": 4,
      "note": 54,
      "start": 3.4309,
      "duration": 0.0135,
      "velocity": 94,
      "chip": "ym2612"
    },
    {
      "channel": 0,
      "note": 87,
      "start": 3.4434,
      "duration": 0.0559,
      "velocity": 103,
      "chip": "ym2612"
    },
    {
      "channel": 2,
      "note": 105,
      "start": 3.444,
      "duration": 0.0273,
      "velocity": 127,
      "chip": "ym2612"
    },
    {
      "channel": 4,
      "note": 54,
      "start": 3.4446,
      "duration": 0.0131,
      "velocity": 94,
      "chip": "ym2612"
    },
    {
      "channel": 4,
      "note": 54,
      "start": 3.4718,
      "duration": 0.0283,
      "velocity": 94,
      "chip": "ym2612"
    },
    {
      "channel": 1,
      "note": 87,
      "start": 3.4847,
      "duration": 0.0557,
      "velocity": 103,
      "chip": "ym2612"
    },
    {
      "channel": 0,
      "note": 88,
      "start": 3.4995,
      "duration": 0.0525,
      "velocity": 103,
      "chip": "ym2612"
    },
    {
      "channel": 4,
      "note": 61,
      "start": 3.5003,
      "duration": 0.0269,
      "velocity": 94,
      "chip": "ym2612"
    },
    {
      "channel": 3,
      "note": 69,
      "start": 3.5269,
      "duration": 0.0772,
      "velocity": 105,
      "chip": "ym2612"
    },
    {
      "channel": 4,
      "note": 60,
      "start": 3.5274,
      "duration": 0.0137,
      "velocity": 94,
      "chip": "ym2612"
    },
    {
      "channel": 1,
      "note": 88,
      "start": 3.5407,
      "duration": 0.0503,
      "velocity": 103,
      "chip": "ym2612"
    },
    {
      "channel": 0,
      "note": 87,
      "start": 3.5523,
      "duration": 0.051,
      "velocity": 103,
      "chip": "ym2612"
    },
    {
      "channel": 4,
      "note": 59,
      "start": 3.5532,
      "duration": 0.0122,
      "velocity": 94,
      "chip": "ym2612"
    },
    {
      "channel": 2,
      "note": 105,
      "start": 3.5771,
      "duration": 0.055,
      "velocity": 127,
      "chip": "ym2612"
    },
    {
      "channel": 4,
      "note": 59,
      "start": 3.5778,
      "duration": 0.014,
      "velocity": 94,
      "chip": "ym2612"
    },
    {
      "channel": 1,
      "note": 87,
      "start": 3.5912,
      "duration": 0.0551,
      "velocity": 103,
      "chip": "ym2612"
    },
    {
      "channel": 0,
      "note": 83,
      "start": 3.6036,
      "duration": 0.1361,
      "velocity": 103,
      "chip": "ym2612"
    },
    {
      "channel": 3,
      "note": 75,
      "start": 3.6044,
      "duration": 0.0282,
      "velocity": 105,
      "chip": "ym2612"
    },
    {
      "channel": 4,
      "note": 59,
      "start": 3.6049,
      "duration": 0.0133,
      "velocity": 94,
      "chip": "ym2612"
    },
    {
      "channel": 4,
      "note": 54,
      "start": 3.6184,
      "duration": 0.0147,
      "velocity": 94,
      "chip": "ym2612"
    },
    {
      "channel": 2,
      "note": 105,
      "start": 3.6324,
      "duration": 0.0145,
      "velocity": 127,
      "chip": "ym2612"
    },
    {
      "channel": 3,
      "note": 66,
      "start": 3.6329,
      "duration": 0.1086,
      "velocity": 105,
      "chip": "ym2612"
    },
    {
      "channel": 4,
      "note": 53,
      "start": 3.6333,
      "duration": 0.0141,
      "velocity": 94,
      "chip": "ym2612"
    },
    {
      "channel": 1,
      "note": 83,
      "start": 3.6466,
      "duration": 0.1328,
      "velocity": 103,
      "chip": "ym2612"
    },
    {
      "channel": 2,
      "note": 105,
      "start": 3.6471,
      "duration": 0.0131,
      "velocity": 127,
      "chip": "ym2612"
    },
    {
      "channel": 4,
      "note": 52,
      "start": 3.6477,
      "duration": 0.0131,
      "velocity": 94,
      "chip": "ym2612"
    },
    {
      "channel": 2,
      "note": 105,
      "start": 3.6605,
      "duration": 0.028,
      "velocity": 127,
      "chip": "ym2612"
    },
    {
      "channel": 4,
      "note": 52,
      "start": 3.6611,
      "duration": 0.0137,
      "velocity": 94,
      "chip": "ym2612"
    },
    {
      "channel": 4,
      "note": 52,
      "start": 3.689,
      "duration": 0.013,
      "velocity": 94,
      "chip": "ym2612"
    },
    {
      "channel": 4,
      "note": 52,
      "start": 3.7023,
      "duration": 0.0122,
      "velocity": 94,
      "chip": "ym2612"
    },
    {
      "channel": 4,
      "note": 64,
      "start": 3.7147,
      "duration": 0.0273,
      "velocity": 94,
      "chip": "ym2612"
    },
    {
      "channel": 0,
      "note": 80,
      "start": 3.74,
      "duration": 0.0513,
      "velocity": 103,
      "chip": "ym2612"
    },
    {
      "channel": 3,
      "note": 68,
      "start": 3.7419,
      "duration": 0.0752,
      "velocity": 105,
      "chip": "ym2612"
    },
    {
      "channel": 4,
      "note": 52,
      "start": 3.7424,
      "duration": 0.0132,
      "velocity": 94,
      "chip": "ym2612"
    },
    {
      "channel": 4,
      "note": 57,
      "start": 3.7673,
      "duration": 0.0128,
      "velocity": 94,
      "chip": "ym2612"
    },
    {
      "channel": 1,
      "note": 80,
      "start": 3.7796,
      "duration": 0.05,
      "velocity": 103,
      "chip": "ym2612"
    },
    {
      "channel": 0,
      "note": 85,
      "start": 3.7915,
      "duration": 0.0249,
      "velocity": 103,
      "chip": "ym2612"
    },
    {
      "channel": 4,
      "note": 57,
      "start": 3.7924,
      "duration": 0.0129,
      "velocity": 94,
      "chip": "ym2612"
    },
    {
      "channel": 0,
      "note": 76,
      "start": 3.8167,
      "duration": 0.0259,
      "velocity": 103,
      "chip": "ym2612"
    },
    {
      "channel": 3,
      "note": 73,
      "start": 3.8174,
      "duration": 0.0264,
      "velocity": 105,
      "chip": "ym2612"
    },
    {
      "channel": 4,
      "note": 57,
      "start": 3.8179,
      "duration": 0.0125,
      "velocity": 94,
      "chip": "ym2612"
    },
    {
      "channel": 1,
      "note": 85,
      "start": 3.8299,
      "duration": 0.0278,
      "velocity": 103,
      "chip": "ym2612"
    },
    {
      "channel": 4,
      "note": 57,
      "start": 3.8306,
      "duration": 0.0136,
      "velocity": 94,
      "chip": "ym2612"
    },
    {
      "channel": 0,
      "note": 75,
      "start": 3.8429,
      "duration": 0.0284,
      "velocity": 103,
      "chip": "ym2612"
    },
    {
      "channel": 2,
      "note": 105,
      "start": 3.8435,
      "duration": 0.0147,
      "velocity": 127,
      "chip": "ym2612"
    },
    {
      "channel": 3,
      "note": 64,
      "start": 3.8441,
      "duration": 0.0575,
      "velocity": 105,
      "chip": "ym2612"
    },
    {
      "channel": 4,
      "note": 57,
      "start": 3.8445,
      "duration": 0.0144,
      "velocity": 94,
      "chip": "ym2612"
    },
    {
      "channel": 1,
      "note": 76,
      "start": 3.858,
      "duration": 0.0273,
      "velocity": 103,
      "chip": "ym2612"
    },
    {
      "channel": 2,
      "note": 105,
      "start": 3.8585,
      "duration": 0.0134,
      "velocity": 127,
      "chip": "ym2612"
    },
    {
      "channel": 4,
      "note": 57,
      "start": 3.8592,
      "duration": 0.0134,
      "velocity": 94,
      "chip": "ym2612"
    },
    {
      "channel": 0,
      "note": 78,
      "start": 3.8715,
      "duration": 0.0556,
      "velocity": 103,
      "chip": "ym2612"
    },
    {
      "channel": 2,
      "note": 105,
      "start": 3.8722,
      "duration": 0.0293,
      "velocity": 127,
      "chip": "ym2612"
    },
    {
      "channel": 4,
      "note": 57,
      "start": 3.8728,
      "duration": 0.0293,
      "velocity": 94,
      "chip": "ym2612"
    },
    {
      "channel": 1,
      "note": 75,
      "start": 3.8856,
      "duration": 0.0293,
      "velocity": 103,
      "chip": "ym2612"
    },
    {
      "channel": 3,
      "note": 66,
      "start": 3.9018,
      "duration": 0.0523,
      "velocity": 105,
      "chip": "ym2612"
    },
    {
      "channel": 4,
      "note": 52,
      "start": 3.9023,
      "duration": 0.0257,
      "velocity": 94,
      "chip": "ym2612"
    },
    {
      "channel": 1,
      "note": 78,
      "start": 3.9151,
      "duration": 0.0528,
      "velocity": 103,
      "chip": "ym2612"
    },
    {
      "channel": 0,
      "note": 85,
      "start": 3.9274,
      "duration": 0.0521,
      "velocity": 103,
      "chip": "ym2612"
    },
    {
      "channel": 4,
      "note": 59,
      "start": 3.9282,
      "duration": 0.0265,
      "velocity": 94,
      "chip": "ym2612"
    },
    {
      "channel": 3,
      "note": 73,
      "start": 3.9544,
      "duration": 0.1044,
      "velocity": 105,
      "chip": "ym2612"
    },
    {
      "channel": 4,
      "note": 57,
      "start": 3.955,
      "duration": 0.0136,
      "velocity": 94,
      "chip": "ym2612"
    },
    {
      "channel": 1,
      "note": 85,
      "start": 3.9681,
      "duration": 0.0502,
      "velocity": 103,
      "chip": "ym2612"
    },
    {
      "channel": 0,
      "note": 83,
      "start": 3.9798,
      "duration": 0.0511,
      "velocity": 103,
      "chip": "ym2612"
    },
    {
      "channel": 4,
      "note": 56,
      "start": 3.9806,
      "duration": 0.0124,
      "velocity": 94,
      "chip": "ym2612"
    },
    {
      "channel": 2,
      "note": 105,
      "start": 4.0046,
      "duration": 0.0537,
      "velocity": 127,
      "chip": "ym2612"
    },
    {
      "channel": 4,
      "note": 56,
      "start": 4.0052,
      "duration": 0.0139,
      "velocity": 94,
      "chip": "ym2612"
    },
    {
      "channel": 1,
      "note": 83,
      "start": 4.0186,
      "duration": 0.0542,
      "velocity": 103,
      "chip": "ym2612"
    },
    {
      "channel": 0,
      "note": 85,
      "start": 4.0311,
      "duration": 0.1388,
      "velocity": 103,
      "chip": "ym2612"
    },
    {
      "channel": 4,
      "note": 56,
      "start": 4.032,
      "duration": 0.0132,
      "velocity": 94,
      "chip": "ym2612"
    },
    {
      "channel": 4,
      "note": 51,
      "start": 4.0455,
      "duration": 0.0138,
      "velocity": 94,
      "chip": "ym2612"
    },
    {
      "channel": 2,
      "note": 105,
      "start": 4.0585,
      "duration": 0.0148,
      "velocity": 127,
      "chip": "ym2612"
    },
    {
      "channel": 3,
      "note": 75,
      "start": 4.059,
      "duration": 0.1126,
      "velocity": 105,
      "chip": "ym2612"
    },
    {
      "channel": 4,
      "note": 50,
      "start": 4.0595,
      "duration": 0.0144,
      "velocity": 94,
      "chip": "ym2612"
    },
    {
      "channel": 1,
      "note": 85,
      "start": 4.073,
      "duration": 0.1371,
      "velocity": 103,
      "chip": "ym2612"
    },
    {
      "channel": 2,
      "note": 105,
      "start": 4.0736,
      "duration": 0.0132,
      "velocity": 127,
      "chip": "ym2612"
    },
    {
      "channel": 4,
      "note": 49,
      "start": 4.0742,
      "duration": 0.0133,
      "velocity": 94,
      "chip": "ym2612"
    },
    {
      "channel": 2,
      "note": 105,
      "start": 4.0871,
      "duration": 0.0279,
      "velocity": 127,
      "chip": "ym2612"
    },
    {
      "channel": 4,
      "note": 49,
      "start": 4.0877,
      "duration": 0.0136,
      "velocity": 94,
      "chip": "ym2612"
    },
    {
      "channel": 2,
      "note": 105,
      "start": 4.1152,
      "duration": 0.014,
      "velocity": 127,
      "chip": "ym2612"
    },
    {
      "channel": 4,
      "note": 49,
      "start": 4.1159,
      "duration": 0.014,
      "velocity": 94,
      "chip": "ym2612"
    },
    {
      "channel": 2,
      "note": 105,
      "start": 4.1295,
      "duration": 0.0133,
      "velocity": 127,
      "chip": "ym2612"
    },
    {
      "channel": 4,
      "note": 49,
      "start": 4.1302,
      "duration": 0.0133,
      "velocity": 94,
      "chip": "ym2612"
    },
    {
      "channel": 2,
      "note": 105,
      "start": 4.1431,
      "duration": 0.0275,
      "velocity": 127,
      "chip": "ym2612"
    },
    {
      "channel": 4,
      "note": 61,
      "start": 4.1437,
      "duration": 0.0285,
      "velocity": 94,
      "chip": "ym2612"
    },
    {
      "channel": 0,
      "note": 76,
      "start": 4.1702,
      "duration": 0.0546,
      "velocity": 103,
      "chip": "ym2612"
    },
    {
      "channel": 3,
      "note": 68,
      "start": 4.172,
      "duration": 0.109,
      "velocity": 105,
      "chip": "ym2612"
    },
    {
      "channel": 4,
      "note": 49,
      "start": 4.1725,
      "duration": 0.013,
      "velocity": 94,
      "chip": "ym2612"
    },
    {
      "channel": 4,
      "note": 50,
      "start": 4.1857,
      "duration": 0.0122,
      "velocity": 94,
      "chip": "ym2612"
    },
    {
      "channel": 4,
      "note": 50,
      "start": 4.1981,
      "duration": 0.0128,
      "velocity": 94,
      "chip": "ym2612"
    },
    {
      "channel": 1,
      "note": 76,
      "start": 4.2104,
      "duration": 0.0551,
      "velocity": 103,
      "chip": "ym2612"
    },
    {
      "channel": 0,
      "note": 78,
      "start": 4.225,
      "duration": 0.0264,
      "velocity": 103,
      "chip": "ym2612"
    },
    {
      "channel": 2,
      "note": 105,
      "start": 4.2256,
      "duration": 0.0549,
      "velocity": 127,
      "chip": "ym2612"
    },
    {
      "channel": 4,
      "note": 50,
      "start": 4.2263,
      "duration": 0.0136,
      "velocity": 94,
      "chip": "ym2612"
    },
    {
      "channel": 0,
      "note": 79,
      "start": 4.2517,
      "duration": 0.0282,
      "velocity": 103,
      "chip": "ym2612"
    },
    {
      "channel": 4,
      "note": 50,
      "start": 4.2527,
      "duration": 0.0136,
      "velocity": 94,
      "chip": "ym2612"
    },
    {
      "channel": 1,
      "note": 78,
      "start": 4.2657,
      "duration": 0.0293,
      "velocity": 103,
      "chip": "ym2612"
    },
    {
      "channel": 4,
      "note": 57,
      "start": 4.2665,
      "duration": 0.0151,
      "velocity": 94,
      "chip": "ym2612"
    },
    {
      "channel": 0,
      "note": 81,
      "start": 4.2802,
      "duration": 0.0277,
      "velocity": 103,
      "chip": "ym2612"
    },
    {
      "channel": 2,
      "note": 105,
      "start": 4.2809,
      "duration": 0.0147,
      "velocity": 127,
      "chip": "ym2612"
    },
    {
      "channel": 3,
      "note": 73,
      "start": 4.2813,
      "duration": 0.1065,
      "velocity": 105,
      "chip": "ym2612"
    },
    {
      "channel": 4,
      "note": 56,
      "start": 4.2817,
      "duration": 0.0144,
      "velocity": 94,
      "chip": "ym2612"
    },
    {
      "channel": 1,
      "note": 79,
      "start": 4.2953,
      "duration": 0.0266,
      "velocity": 103,
      "chip": "ym2612"
    },
    {
      "channel": 2,
      "note": 105,
      "start": 4.2959,
      "duration": 0.0126,
      "velocity": 127,
      "chip": "ym2612"
    },
    {
      "channel": 0,
      "note": 79,
      "start": 4.3081,
      "duration": 0.052,
      "velocity": 103,
      "chip": "ym2612"
    },
    {
      "channel": 2,
      "note": 105,
      "start": 4.3088,
      "duration": 0.0265,
      "velocity": 127,
      "chip": "ym2612"
    },
    {
      "channel": 4,
      "note": 55,
      "start": 4.3094,
      "duration": 0.0133,
      "velocity": 94,
      "chip": "ym2612"
    },
    {
      "channel": 1,
      "note": 81,
      "start": 4.3222,
      "duration": 0.0261,
      "velocity": 103,
      "chip": "ym2612"
    },
    {
      "channel": 4,
      "note": 55,
      "start": 4.3357,
      "duration": 0.0133,
      "velocity": 94,
      "chip": "ym2612"
    },
    {
      "channel": 1,
      "note": 79,
      "start": 4.3485,
      "duration": 0.0528,
      "velocity": 103,
      "chip": "ym2612"
    },
    {
      "channel": 0,
      "note": 78,
      "start": 4.3604,
      "duration": 0.0537,
      "velocity": 103,
      "chip": "ym2612"
    },
    {
      "channel": 4,
      "note": 55,
      "start": 4.3612,
      "duration": 0.0123,
      "velocity": 94,
      "chip": "ym2612"
    },
    {
      "channel": 4,
      "note": 57,
      "start": 4.3737,
      "duration": 0.0146,
      "velocity": 94,
      "chip": "ym2612"
    },
    {
      "channel": 3,
      "note": 71,
      "start": 4.3881,
      "duration": 0.109,
      "velocity": 105,
      "chip": "ym2612"
    },
    {
      "channel": 4,
      "note": 59,
      "start": 4.3886,
      "duration": 0.0134,
      "velocity": 94,
      "chip": "ym2612"
    },
    {
      "channel": 1,
      "note": 78,
      "start": 4.4016,
      "duration": 0.0543,
      "velocity": 103,
      "chip": "ym2612"
    },
    {
      "channel": 4,
      "note": 60,
      "start": 4.4022,
      "duration": 0.0127,
      "velocity": 94,
      "chip": "ym2612"
    },
    {
      "channel": 0,
      "note": 76,
      "start": 4.4143,
      "duration": 0.027,
      "velocity": 103,
      "chip": "ym2612"
    },
    {
      "channel": 4,
      "note": 60,
      "start": 4.4151,
      "duration": 0.0122,
      "velocity": 94,
      "chip": "ym2612"
    },
    {
      "channel": 0,
      "note": 77,
      "start": 4.4416,
      "duration": 0.0267,
      "velocity": 103,
      "chip": "ym2612"
    },
    {
      "channel": 2,
      "note": 105,
      "start": 4.4422,
      "duration": 0.0544,
      "velocity": 127,
      "chip": "ym2612"
    },
    {
      "channel": 4,
      "note": 60,
      "start": 4.4428,
      "duration": 0.0139,
      "velocity": 94,
      "chip": "ym2612"
    },
    {
      "channel": 1,
      "note": 76,
      "start": 4.4562,
      "duration": 0.0258,
      "velocity": 103,
      "chip": "ym2612"
    },
    {
      "channel": 0,
      "note": 79,
      "start": 4.4685,
      "duration": 0.0558,
      "velocity": 103,
      "chip": "ym2612"
    },
    {
      "channel": 4,
      "note": 60,
      "start": 4.4694,
      "duration": 0.0134,
      "velocity": 94,
      "chip": "ym2612"
    },
    {
      "channel": 1,
      "note": 77,
      "start": 4.4822,
      "duration": 0.0289,
      "velocity": 103,
      "chip": "ym2612"
    },
    {
      "channel": 4,
      "note": 55,
      "start": 4.483,
      "duration": 0.0146,
      "velocity": 94,
      "chip": "ym2612"
    },
    {
      "channel": 2,
      "note": 105,
      "start": 4.4968,
      "duration": 0.0148,
      "velocity": 127,
      "chip": "ym2612"
    },
    {
      "channel": 3,
      "note": 71,
      "start": 4.4973,
      "duration": 0.1114,
      "velocity": 105,
      "chip": "ym2612"
    },
    {
      "channel": 4,
      "note": 54,
      "start": 4.4978,
      "duration": 0.0144,
      "velocity": 94,
      "chip": "ym2612"
    },
    {
      "channel": 1,
      "note": 79,
      "start": 4.5113,
      "duration": 0.0556,
      "velocity": 103,
      "chip": "ym2612"
    },
    {
      "channel": 2,
      "note": 105,
      "start": 4.5118,
      "duration": 0.0131,
      "velocity": 127,
      "chip": "ym2612"
    },
    {
      "channel": 0,
      "note": 77,
      "start": 4.5245,
      "duration": 0.056,
      "velocity": 103,
      "chip": "ym2612"
    },
    {
      "channel": 2,
      "note": 105,
      "start": 4.5251,
      "duration": 0.0276,
      "velocity": 127,
      "chip": "ym2612"
    },
    {
      "channel": 4,
      "note": 53,
      "start": 4.5258,
      "duration": 0.0136,
      "velocity": 94,
      "chip": "ym2612"
    },
    {
      "channel": 2,
      "note": 105,
      "start": 4.553,
      "duration": 0.0144,
      "velocity": 127,
      "chip": "ym2612"
    },
    {
      "channel": 4,
      "note": 53,
      "start": 4.5537,
      "duration": 0.0144,
      "velocity": 94,
      "chip": "ym2612"
    },
    {
      "channel": 1,
      "note": 77,
      "start": 4.5671,
      "duration": 0.0551,
      "velocity": 103,
      "chip": "ym2612"
    },
    {
      "channel": 2,
      "note": 105,
      "start": 4.5676,
      "duration": 0.0135,
      "velocity": 127,
      "chip": "ym2612"
    },
    {
      "channel": 4,
      "note": 53,
      "start": 4.5683,
      "duration": 0.0135,
      "velocity": 94,
      "chip": "ym2612"
    },
    {
      "channel": 0,
      "note": 76,
      "start": 4.5808,
      "duration": 0.2495,
      "velocity": 103,
      "chip": "ym2612"
    },
    {
      "channel": 2,
      "note": 105,
      "start": 4.5814,
      "duration": 0.0262,
      "velocity": 127,
      "chip": "ym2612"
    },
    {
      "channel": 4,
      "note": 65,
      "start": 4.5821,
      "duration": 0.0272,
      "velocity": 94,
      "chip": "ym2612"
    },
    {
      "channel": 3,
      "note": 69,
      "start": 4.609,
      "duration": 0.223,
      "velocity": 105,
      "chip": "ym2612"
    },
    {
      "channel": 4,
      "note": 53,
      "start": 4.6095,
      "duration": 0.0134,
      "velocity": 94,
      "chip": "ym2612"
    },
    {
      "channel": 1,
      "note": 76,
      "start": 4.6225,
      "duration": 0.2484,
      "velocity": 103,
      "chip": "ym2612"
    },
    {
      "channel": 4,
      "note": 54,
      "start": 4.6232,
      "duration": 0.0122,
      "velocity": 94,
      "chip": "ym2612"
    },
    {
      "channel": 4,
      "note": 54,
      "start": 4.6356,
      "duration": 0.0125,
      "velocity": 94,
      "chip": "ym2612"
    },
    {
      "channel": 2,
      "note": 105,
      "start": 4.6629,
      "duration": 0.0547,
      "velocity": 127,
      "chip": "ym2612"
    },
    {
      "channel": 4,
      "note": 54,
      "start": 4.6635,
      "duration": 0.0136,
      "velocity": 94,
      "chip": "ym2612"
    },
    {
      "channel": 4,
      "note": 54,
      "start": 4.6894,
      "duration": 0.0131,
      "velocity": 94,
      "chip": "ym2612"
    },
    {
      "channel": 4,
      "note": 54,
      "start": 4.7028,
      "duration": 0.0155,
      "velocity": 94,
      "chip": "ym2612"
    },
    {
      "channel": 2,
      "note": 105,
      "start": 4.7178,
      "duration": 0.0144,
      "velocity": 127,
      "chip": "ym2612"
    },
    {
      "channel": 4,
      "note": 54,
      "start": 4.7185,
      "duration": 0.0144,
      "velocity": 94,
      "chip": "ym2612"
    },
    {
      "channel": 2,
      "note": 105,
      "start": 4.7325,
      "duration": 0.0134,
      "velocity": 127,
      "chip": "ym2612"
    },
    {
      "channel": 2,
      "note": 105,
      "start": 4.7461,
      "duration": 0.028,
      "velocity": 127,
      "chip": "ym2612"
    },
    {
      "channel": 4,
      "note": 54,
      "start": 4.7468,
      "duration": 0.0134,
      "velocity": 94,
      "chip": "ym2612"
    },
    {
      "channel": 4,
      "note": 54,
      "start": 4.7746,
      "duration": 0.028,
      "velocity": 94,
      "chip": "ym2612"
    },
    {
      "channel": 4,
      "note": 57,
      "start": 4.8029,
      "duration": 0.0297,
      "velocity": 94,
      "chip": "ym2612"
    },
    {
      "channel": 0,
      "note": 74,
      "start": 4.8306,
      "duration": 0.1055,
      "velocity": 103,
      "chip": "ym2612"
    },
    {
      "channel": 3,
      "note": 69,
      "start": 4.8324,
      "duration": 0.1049,
      "velocity": 105,
      "chip": "ym2612"
    },
    {
      "channel": 4,
      "note": 58,
      "start": 4.8329,
      "duration": 0.0133,
      "velocity": 94,
      "chip": "ym2612"
    },
    {
      "channel": 4,
      "note": 59,
      "start": 4.8464,
      "duration": 0.0121,
      "velocity": 94,
      "chip": "ym2612"
    },
    {
      "channel": 4,
      "note": 71,
      "start": 4.8588,
      "duration": 0.0128,
      "velocity": 94,
      "chip": "ym2612"
    },
    {
      "channel": 1,
      "note": 74,
      "start": 4.8712,
      "duration": 0.1101,
      "velocity": 103,
      "chip": "ym2612"
    },
    {
      "channel": 2,
      "note": 105,
      "start": 4.8833,
      "duration": 0.0534,
      "velocity": 127,
      "chip": "ym2612"
    },
    {
      "channel": 4,
      "note": 59,
      "start": 4.884,
      "duration": 0.0137,
      "velocity": 94,
      "chip": "ym2612"
    },
    {
      "channel": 4,
      "note": 59,
      "start": 4.9102,
      "duration": 0.0132,
      "velocity": 94,
      "chip": "ym2612"
    },
    {
      "channel": 4,
      "note": 59,
      "start": 4.9238,
      "duration": 0.0139,
      "velocity": 94,
      "chip": "ym2612"
    },
    {
      "channel": 0,
      "note": 76,
      "start": 4.9363,
      "duration": 0.1157,
      "velocity": 103,
      "chip": "ym2612"
    },
    {
      "channel": 2,
      "note": 105,
      "start": 4.937,
      "duration": 0.0147,
      "velocity": 127,
      "chip": "ym2612"
    },
    {
      "channel": 3,
      "note": 73,
      "start": 4.9375,
      "duration": 0.1176,
      "velocity": 105,
      "chip": "ym2612"
    },
    {
      "channel": 4,
      "note": 71,
      "start": 4.9379,
      "duration": 0.0144,
      "velocity": 94,
      "chip": "ym2612"
    },
    {
      "channel": 2,
      "note": 105,
      "start": 4.9519,
      "duration": 0.0153,
      "velocity": 127,
      "chip": "ym2612"
    },
    {
      "channel": 2,
      "note": 105,
      "start": 4.9675,
      "duration": 0.0279,
      "velocity": 127,
      "chip": "ym2612"
    },
    {
      "channel": 4,
      "note": 59,
      "start": 4.9681,
      "duration": 0.0139,
      "velocity": 94,
      "chip": "ym2612"
    },
    {
      "channel": 1,
      "note": 76,
      "start": 4.9815,
      "duration": 0.1145,
      "velocity": 103,
      "chip": "ym2612"
    },
    {
      "channel": 2,
      "note": 105,
      "start": 4.9957,
      "duration": 0.0279,
      "velocity": 127,
      "chip": "ym2612"
    },
    {
      "channel": 4,
      "note": 59,
      "start": 4.9963,
      "duration": 0.0134,
      "velocity": 94,
      "chip": "ym2612"
    },
    {
      "channel": 4,
      "note": 59,
      "start": 5.01,
      "duration": 0.0141,
      "velocity": 94,
      "chip": "ym2612"
    },
    {
      "channel": 2,
      "note": 105,
      "start": 5.0238,
      "duration": 0.0298,
      "velocity": 127,
      "chip": "ym2612"
    },
    {
      "channel": 4,
      "note": 71,
      "start": 5.0244,
      "duration": 0.0158,
      "velocity": 94,
      "chip": "ym2612"
    },
    {
      "channel": 0,
      "note": 78,
      "start": 5.0532,
      "duration": 0.0785,
      "velocity": 96,
      "chip": "ym2612"
    },
    {
      "channel": 2,
      "note": 105,
      "start": 5.0549,
      "duration": 34.9445,
      "velocity": 105,
      "chip": "ym2612"
    },
    {
      "channel": 3,
      "note": 75,
      "start": 5.0565,
      "duration": 34.943,
      "velocity": 105,
      "chip": "ym2612"
    },
    {
      "channel": 4,
      "note": 59,
      "start": 5.0571,
      "duration": 0.0143,
      "velocity": 94,
      "chip": "ym2612"
    },
    {
      "channel": 4,
      "note": 52,
      "start": 5.0716,
      "duration": 0.0121,
      "velocity": 94,
      "chip": "ym2612"
    },
    {
      "channel": 4,
      "note": 64,
      "start": 5.084,
      "duration": 0.0138,
      "velocity": 94,
      "chip": "ym2612"
    },
    {
      "channel": 1,
      "note": 78,
      "start": 5.0973,
      "duration": 34.9022,
      "velocity": 96,
      "chip": "ym2612"
    },
    {
      "channel": 4,
      "note": 52,
      "start": 5.1093,
      "duration": 0.0124,
      "velocity": 94,
      "chip": "ym2612"
    },
    {
      "channel": 0,
      "note": 80,
      "start": 5.132,
      "duration": 0.0267,
      "velocity": 96,
      "chip": "ym2612"
    },
    {
      "channel": 4,
      "note": 52,
      "start": 5.1329,
      "duration": 0.0117,
      "velocity": 94,
      "chip": "ym2612"
    },
    {
      "channel": 4,
      "note": 52,
      "start": 5.1449,
      "duration": 0.0147,
      "velocity": 94,
      "chip": "ym2612"
    },
    {
      "channel": 0,
      "note": 71,
      "start": 5.1589,
      "duration": 34.8405,
      "velocity": 96,
      "chip": "ym2612"
    },
    {
      "channel": 4,
      "note": 64,
      "start": 5.1598,
      "duration": 34.8396,
      "velocity": 94,
      "chip": "ym2612"
    }
  ]
}