{
  "track_name": "04 - Dame 2",
  "duration_sec": 19.392,
  "sample_rate": 44100,
  "note_count": 756,
  "unique_pitches": 21,
  "pitch_range": 24,
  "avg_note_duration": 0.1022,
  "reconstruction_stats": {
    "notes_reconstructed": 756,
    "keyon_events": 756,
    "keyoff_events": 752,
    "orphan_keyons": 4,
    "unique_pitches": 21,
    "pitch_range": 24,
    "avg_duration_sec": 0.1022
  },
  "metadata": {
    "source": "P\\Psy-O-Blade\\04 - Dame 2.vgm"
  },
  "notes": [
    {
      "channel": 0,
      "note": 60,
      "start": 0.0,
      "duration": 0.0949,
      "velocity": 97,
      "chip": "ym2612"
    },
    {
      "channel": 1,
      "note": 60,
      "start": 0.0,
      "duration": 0.0953,
      "velocity": 88,
      "chip": "ym2612"
    },
    {
      "channel": 2,
      "note": 60,
      "start": 0.0026,
      "duration": 0.0933,
      "velocity": 102,
      "chip": "ym2612"
    },
    {
      "channel": 3,
      "note": 60,
      "start": 0.0052,
      "duration": 0.091,
      "velocity": 102,
      "chip": "ym2612"
    },
    {
      "channel": 0,
      "note": 60,
      "start": 0.0953,
      "duration": 0.0969,
      "velocity": 97,
      "chip": "ym2612"
    },
    {
      "channel": 1,
      "note": 60,
      "start": 0.0957,
      "duration": 0.0997,
      "velocity": 88,
      "chip": "ym2612"
    },
    {
      "channel": 2,
      "note": 60,
      "start": 0.0961,
      "duration": 0.0998,
      "velocity": 102,
      "chip": "ym2612"
    },
    {
      "channel": 3,
      "note": 60,
      "start": 0.0966,
      "duration": 0.0998,
      "velocity": 102,
      "chip": "ym2612"
    },
    {
      "channel": 0,
      "note": 72,
      "start": 0.1953,
      "duration": 0.0995,
      "velocity": 97,
      "chip": "ym2612"
    },
    {
      "channel": 1,
      "note": 72,
      "start": 0.1958,
      "duration": 0.0995,
      "velocity": 88,
      "chip": "ym2612"
    },
    {
      "channel": 2,
      "note": 60,
      "start": 0.1963,
      "duration": 0.0996,
      "velocity": 102,
      "chip": "ym2612"
    },
    {
      "channel": 3,
      "note": 60,
      "start": 0.1967,
      "duration": 0.0997,
      "velocity": 102,
      "chip": "ym2612"
    },
    {
      "channel": 0,
      "note": 60,
      "start": 0.2953,
      "duration": 0.0995,
      "velocity": 97,
      "chip": "ym2612"
    },
    {
      "channel": 1,
      "note": 60,
      "start": 0.2958,
      "duration": 0.0995,
      "velocity": 88,
      "chip": "ym2612"
    },
    {
      "channel": 2,
      "note": 60,
      "start": 0.2963,
      "duration": 0.0995,
      "velocity": 102,
      "chip": "ym2612"
    },
    {
      "channel": 3,
      "note": 60,
      "start": 0.2967,
      "duration": 0.0996,
      "velocity": 102,
      "chip": "ym2612"
    },
    {
      "channel": 0,
      "note": 60,
      "start": 0.3953,
      "duration": 0.0996,
      "velocity": 97,
      "chip": "ym2612"
    },
    {
      "channel": 1,
      "note": 60,
      "start": 0.3957,
      "duration": 0.0997,
      "velocity": 88,
      "chip": "ym2612"
    },
    {
      "channel": 2,
      "note": 60,
      "start": 0.3961,
      "duration": 0.0998,
      "velocity": 102,
      "chip": "ym2612"
    },
    {
      "channel": 3,
      "note": 60,
      "start": 0.3966,
      "duration": 0.0998,
      "velocity": 102,
      "chip": "ym2612"
    },
    {
      "channel": 0,
      "note": 70,
      "start": 0.4953,
      "duration": 0.0995,
      "velocity": 97,
      "chip": "ym2612"
    },
    {
      "channel": 1,
      "note": 70,
      "start": 0.4958,
      "duration": 0.0995,
      "velocity": 88,
      "chip": "ym2612"
    },
    {
      "channel": 2,
      "note": 60,
      "start": 0.4963,
      "duration": 0.0996,
      "velocity": 102,
      "chip": "ym2612"
    },
    {
      "channel": 3,
      "note": 60,
      "start": 0.4967,
      "duration": 0.0997,
      "velocity": 102,
      "chip": "ym2612"
    },
    {
      "channel": 0,
      "note": 60,
      "start": 0.5953,
      "duration": 0.0995,
      "velocity": 97,
      "chip": "ym2612"
    },
    {
      "channel": 1,
      "note": 60,
      "start": 0.5958,
      "duration": 0.0995,
      "velocity": 88,
      "chip": "ym2612"
    },
    {
      "channel": 2,
      "note": 60,
      "start": 0.5963,
      "duration": 0.0995,
      "velocity": 102,
      "chip": "ym2612"
    },
    {
      "channel": 3,
      "note": 60,
      "start": 0.5967,
      "duration": 0.0996,
      "velocity": 102,
      "chip": "ym2612"
    },
    {
      "channel": 0,
      "note": 60,
      "start": 0.6953,
      "duration": 0.0996,
      "velocity": 97,
      "chip": "ym2612"
    },
    {
      "channel": 1,
      "note": 60,
      "start": 0.6957,
      "duration": 0.0998,
      "velocity": 88,
      "chip": "ym2612"
    },
    {
      "channel": 2,
      "note": 60,
      "start": 0.6961,
      "duration": 0.0999,
      "velocity": 102,
      "chip": "ym2612"
    },
    {
      "channel": 3,
      "note": 60,
      "start": 0.6966,
      "duration": 0.0998,
      "velocity": 102,
      "chip": "ym2612"
    },
    {
      "channel": 0,
      "note": 75,
      "start": 0.7953,
      "duration": 0.0995,
      "velocity": 97,
      "chip": "ym2612"
    },
    {
      "channel": 1,
      "note": 75,
      "start": 0.7959,
      "duration": 0.0995,
      "velocity": 88,
      "chip": "ym2612"
    },
    {
      "channel": 2,
      "note": 60,
      "start": 0.7963,
      "duration": 0.0996,
      "velocity": 102,
      "chip": "ym2612"
    },
    {
      "channel": 3,
      "note": 60,
      "start": 0.7968,
      "duration": 0.0995,
      "velocity": 102,
      "chip": "ym2612"
    },
    {
      "channel": 0,
      "note": 60,
      "start": 0.8953,
      "duration": 0.0995,
      "velocity": 97,
      "chip": "ym2612"
    },
    {
      "channel": 1,
      "note": 60,
      "start": 0.8958,
      "duration": 0.0995,
      "velocity": 88,
      "chip": "ym2612"
    },
    {
      "channel": 2,
      "note": 60,
      "start": 0.8963,
      "duration": 0.0995,
      "velocity": 102,
      "chip": "ym2612"
    },
    {
      "channel": 3,
      "note": 60,
      "start": 0.8967,
      "duration": 0.0996,
      "velocity": 102,
      "chip": "ym2612"
    },
    {
      "channel": 0,
      "note": 60,
      "start": 0.9953,
      "duration": 0.0996,
      "velocity": 97,
      "chip": "ym2612"
    },
    {
      "channel": 1,
      "note": 60,
      "start": 0.9957,
      "duration": 0.0997,
      "velocity": 88,
      "chip": "ym2612"
    },
    {
      "channel": 2,
      "note": 60,
      "start": 0.9961,
      "duration": 0.0998,
      "velocity": 102,
      "chip": "ym2612"
    },
    {
      "channel": 3,
      "note": 60,
      "start": 0.9966,
      "duration": 0.0998,
      "velocity": 102,
      "chip": "ym2612"
    },
    {
      "channel": 0,
      "note": 77,
      "start": 1.0953,
      "duration": 0.0995,
      "velocity": 97,
      "chip": "ym2612"
    },
    {
      "channel": 1,
      "note": 77,
      "start": 1.0958,
      "duration": 0.0995,
      "velocity": 88,
      "chip": "ym2612"
    },
    {
      "channel": 2,
      "note": 60,
      "start": 1.0963,
      "duration": 0.0996,
      "velocity": 102,
      "chip": "ym2612"
    },
    {
      "channel": 3,
      "note": 60,
      "start": 1.0967,
      "duration": 0.0997,
      "velocity": 102,
      "chip": "ym2612"
    },
    {
      "channel": 0,
      "note": 60,
      "start": 1.1953,
      "duration": 0.0995,
      "velocity": 97,
      "chip": "ym2612"
    },
    {
      "channel": 1,
      "note": 60,
      "start": 1.1958,
      "duration": 0.0995,
      "velocity": 88,
      "chip": "ym2612"
    },
    {
      "channel": 2,
      "note": 63,
      "start": 1.1963,
      "duration": 0.0995,
      "velocity": 102,
      "chip": "ym2612"
    },
    {
      "channel": 3,
      "note": 63,
      "start": 1.1968,
      "duration": 0.0994,
      "velocity": 102,
      "chip": "ym2612"
    },
    {
      "channel": 0,
      "note": 60,
      "start": 1.2953,
      "duration": 0.0996,
      "velocity": 97,
      "chip": "ym2612"
    },
    {
      "channel": 1,
      "note": 60,
      "start": 1.2957,
      "duration": 0.0997,
      "velocity": 88,
      "chip": "ym2612"
    },
    {
      "channel": 2,
      "note": 63,
      "start": 1.2961,
      "duration": 0.0998,
      "velocity": 102,
      "chip": "ym2612"
    },
    {
      "channel": 3,
      "note": 63,
      "start": 1.2966,
      "duration": 0.0998,
      "velocity": 102,
      "chip": "ym2612"
    },
    {
      "channel": 0,
      "note": 75,
      "start": 1.3953,
      "duration": 0.0995,
      "velocity": 97,
      "chip": "ym2612"
    },
    {
      "channel": 1,
      "note": 75,
      "start": 1.3958,
      "duration": 0.0995,
      "velocity": 88,
      "chip": "ym2612"
    },
    {
      "channel": 2,
      "note": 63,
      "start": 1.3963,
      "duration": 0.0996,
      "velocity": 102,
      "chip": "ym2612"
    },
    {
      "channel": 3,
      "note": 63,
      "start": 1.3967,
      "duration": 0.0997,
      "velocity": 102,
      "chip": "ym2612"
    },
    {
      "channel": 0,
      "note": 60,
      "start": 1.4953,
      "duration": 0.0995,
      "velocity": 97,
      "chip": "ym2612"
    },
    {
      "channel": 1,
      "note": 60,
      "start": 1.4958,
      "duration": 0.0997,
      "velocity": 88,
      "chip": "ym2612"
    },
    {
      "channel": 2,
      "note": 63,
      "start": 1.4963,
      "duration": 0.0999,
      "velocity": 102,
      "chip": "ym2612"
    },
    {
      "channel": 3,
      "note": 63,
      "start": 1.4967,
      "duration": 0.1001,
      "velocity": 102,
      "chip": "ym2612"
    },
    {
      "channel": 0,
      "note": 60,
      "start": 1.5954,
      "duration": 0.0994,
      "velocity": 97,
      "chip": "ym2612"
    },
    {
      "channel": 1,
      "note": 60,
      "start": 1.5961,
      "duration": 0.0993,
      "velocity": 88,
      "chip": "ym2612"
    },
    {
      "channel": 2,
      "note": 60,
      "start": 1.5967,
      "duration": 0.0991,
      "velocity": 102,
      "chip": "ym2612"
    },
    {
      "channel": 3,
      "note": 60,
      "start": 1.5973,
      "duration": 0.0989,
      "velocity": 102,
      "chip": "ym2612"
    },
    {
      "channel": 0,
      "note": 60,
      "start": 1.6953,
      "duration": 0.0996,
      "velocity": 97,
      "chip": "ym2612"
    },
    {
      "channel": 1,
      "note": 60,
      "start": 1.6957,
      "duration": 0.0997,
      "velocity": 88,
      "chip": "ym2612"
    },
    {
      "channel": 2,
      "note": 60,
      "start": 1.6961,
      "duration": 0.0998,
      "velocity": 102,
      "chip": "ym2612"
    },
    {
      "channel": 3,
      "note": 60,
      "start": 1.6966,
      "duration": 0.0998,
      "velocity": 102,
      "chip": "ym2612"
    },
    {
      "channel": 0,
      "note": 72,
      "start": 1.7953,
      "duration": 0.0995,
      "velocity": 97,
      "chip": "ym2612"
    },
    {
      "channel": 1,
      "note": 72,
      "start": 1.7958,
      "duration": 0.0995,
      "velocity": 88,
      "chip": "ym2612"
    },
    {
      "channel": 2,
      "note": 60,
      "start": 1.7963,
      "duration": 0.0996,
      "velocity": 102,
      "chip": "ym2612"
    },
    {
      "channel": 3,
      "note": 60,
      "start": 1.7967,
      "duration": 0.0997,
      "velocity": 102,
      "chip": "ym2612"
    },
    {
      "channel": 0,
      "note": 60,
      "start": 1.8953,
      "duration": 0.0995,
      "velocity": 97,
      "chip": "ym2612"
    },
    {
      "channel": 1,
      "note": 60,
      "start": 1.8958,
      "duration": 0.0995,
      "velocity": 88,
      "chip": "ym2612"
    },
    {
      "channel": 2,
      "note": 60,
      "start": 1.8963,
      "duration": 0.0995,
      "velocity": 102,
      "chip": "ym2612"
    },
    {
      "channel": 3,
      "note": 60,
      "start": 1.8967,
      "duration": 0.0996,
      "velocity": 102,
      "chip": "ym2612"
    },
    {
      "channel": 0,
      "note": 60,
      "start": 1.9953,
      "duration": 0.0996,
      "velocity": 97,
      "chip": "ym2612"
    },
    {
      "channel": 1,
      "note": 60,
      "start": 1.9957,
      "duration": 0.0997,
      "velocity": 88,
      "chip": "ym2612"
    },
    {
      "channel": 2,
      "note": 60,
      "start": 1.9961,
      "duration": 0.0998,
      "velocity": 102,
      "chip": "ym2612"
    },
    {
      "channel": 3,
      "note": 60,
      "start": 1.9966,
      "duration": 0.0998,
      "velocity": 102,
      "chip": "ym2612"
    },
    {
      "channel": 0,
      "note": 70,
      "start": 2.0953,
      "duration": 0.0995,
      "velocity": 97,
      "chip": "ym2612"
    },
    {
      "channel": 1,
      "note": 70,
      "start": 2.0958,
      "duration": 0.0995,
      "velocity": 88,
      "chip": "ym2612"
    },
    {
      "channel": 2,
      "note": 60,
      "start": 2.0963,
      "duration": 0.0996,
      "velocity": 102,
      "chip": "ym2612"
    },
    {
      "channel": 3,
      "note": 60,
      "start": 2.0967,
      "duration": 0.0997,
      "velocity": 102,
      "chip": "ym2612"
    },
    {
      "channel": 0,
      "note": 60,
      "start": 2.1953,
      "duration": 0.0995,
      "velocity": 97,
      "chip": "ym2612"
    },
    {
      "channel": 1,
      "note": 60,
      "start": 2.1958,
      "duration": 0.0995,
      "velocity": 88,
      "chip": "ym2612"
    },
    {
      "channel": 2,
      "note": 60,
      "start": 2.1963,
      "duration": 0.0995,
      "velocity": 102,
      "chip": "ym2612"
    },
    {
      "channel": 3,
      "note": 60,
      "start": 2.1967,
      "duration": 0.0996,
      "velocity": 102,
      "chip": "ym2612"
    },
    {
      "channel": 0,
      "note": 60,
      "start": 2.2953,
      "duration": 0.0996,
      "velocity": 97,
      "chip": "ym2612"
    },
    {
      "channel": 1,
      "note": 60,
      "start": 2.2957,
      "duration": 0.0998,
      "velocity": 88,
      "chip": "ym2612"
    },
    {
      "channel": 2,
      "note": 60,
      "start": 2.2961,
      "duration": 0.0999,
      "velocity": 102,
      "chip": "ym2612"
    },
    {
      "channel": 3,
      "note": 60,
      "start": 2.2966,
      "duration": 0.0999,
      "velocity": 102,
      "chip": "ym2612"
    },
    {
      "channel": 0,
      "note": 68,
      "start": 2.3954,
      "duration": 0.0995,
      "velocity": 97,
      "chip": "ym2612"
    },
    {
      "channel": 1,
      "note": 68,
      "start": 2.396,
      "duration": 0.0994,
      "velocity": 88,
      "chip": "ym2612"
    },
    {
      "channel": 2,
      "note": 60,
      "start": 2.3965,
      "duration": 0.0994,
      "velocity": 102,
      "chip": "ym2612"
    },
    {
      "channel": 3,
      "note": 60,
      "start": 2.3969,
      "duration": 0.0995,
      "velocity": 102,
      "chip": "ym2612"
    },
    {
      "channel": 0,
      "note": 60,
      "start": 2.4953,
      "duration": 0.0995,
      "velocity": 97,
      "chip": "ym2612"
    },
    {
      "channel": 1,
      "note": 60,
      "start": 2.4958,
      "duration": 0.0995,
      "velocity": 88,
      "chip": "ym2612"
    },
    {
      "channel": 2,
      "note": 60,
      "start": 2.4963,
      "duration": 0.0995,
      "velocity": 102,
      "chip": "ym2612"
    },
    {
      "channel": 3,
      "note": 60,
      "start": 2.4967,
      "duration": 0.0996,
      "velocity": 102,
      "chip": "ym2612"
    },
    {
      "channel": 0,
      "note": 60,
      "start": 2.5953,
      "duration": 0.0996,
      "velocity": 97,
      "chip": "ym2612"
    },
    {
      "channel": 1,
      "note": 60,
      "start": 2.5957,
      "duration": 0.0997,
      "velocity": 88,
      "chip": "ym2612"
    },
    {
      "channel": 2,
      "note": 60,
      "start": 2.5961,
      "duration": 0.0998,
      "velocity": 102,
      "chip": "ym2612"
    },
    {
      "channel": 3,
      "note": 60,
      "start": 2.5966,
      "duration": 0.0998,
      "velocity": 102,
      "chip": "ym2612"
    },
    {
      "channel": 0,
      "note": 70,
      "start": 2.6953,
      "duration": 0.0995,
      "velocity": 97,
      "chip": "ym2612"
    },
    {
      "channel": 1,
      "note": 70,
      "start": 2.6958,
      "duration": 0.0995,
      "velocity": 88,
      "chip": "ym2612"
    },
    {
      "channel": 2,
      "note": 60,
      "start": 2.6963,
      "duration": 0.0996,
      "velocity": 102,
      "chip": "ym2612"
    },
    {
      "channel": 3,
      "note": 60,
      "start": 2.6967,
      "duration": 0.0997,
      "velocity": 102,
      "chip": "ym2612"
    },
    {
      "channel": 0,
      "note": 60,
      "start": 2.7953,
      "duration": 0.0995,
      "velocity": 97,
      "chip": "ym2612"
    },
    {
      "channel": 1,
      "note": 60,
      "start": 2.7958,
      "duration": 0.0995,
      "velocity": 88,
      "chip": "ym2612"
    },
    {
      "channel": 2,
      "note": 58,
      "start": 2.7963,
      "duration": 0.0995,
      "velocity": 102,
      "chip": "ym2612"
    },
    {
      "channel": 3,
      "note": 58,
      "start": 2.7968,
      "duration": 0.0994,
      "velocity": 102,
      "chip": "ym2612"
    },
    {
      "channel": 0,
      "note": 60,
      "start": 2.8953,
      "duration": 0.0996,
      "velocity": 97,
      "chip": "ym2612"
    },
    {
      "channel": 1,
      "note": 60,
      "start": 2.8957,
      "duration": 0.0997,
      "velocity": 88,
      "chip": "ym2612"
    },
    {
      "channel": 2,
      "note": 58,
      "start": 2.8961,
      "duration": 0.0998,
      "velocity": 102,
      "chip": "ym2612"
    },
    {
      "channel": 3,
      "note": 58,
      "start": 2.8966,
      "duration": 0.0998,
      "velocity": 102,
      "chip": "ym2612"
    },
    {
      "channel": 0,
      "note": 72,
      "start": 2.9953,
      "duration": 0.0995,
      "velocity": 97,
      "chip": "ym2612"
    },
    {
      "channel": 1,
      "note": 72,
      "start": 2.9958,
      "duration": 0.0996,
      "velocity": 88,
      "chip": "ym2612"
    },
    {
      "channel": 2,
      "note": 59,
      "start": 2.9963,
      "duration": 0.0997,
      "velocity": 102,
      "chip": "ym2612"
    },
    {
      "channel": 3,
      "note": 59,
      "start": 2.9967,
      "duration": 0.0998,
      "velocity": 102,
      "chip": "ym2612"
    },
    {
      "channel": 0,
      "note": 60,
      "start": 3.0953,
      "duration": 0.0995,
      "velocity": 97,
      "chip": "ym2612"
    },
    {
      "channel": 1,
      "note": 60,
      "start": 3.0959,
      "duration": 0.0996,
      "velocity": 88,
      "chip": "ym2612"
    },
    {
      "channel": 2,
      "note": 59,
      "start": 3.0963,
      "duration": 0.0998,
      "velocity": 102,
      "chip": "ym2612"
    },
    {
      "channel": 3,
      "note": 59,
      "start": 3.0968,
      "duration": 0.1,
      "velocity": 102,
      "chip": "ym2612"
    },
    {
      "channel": 0,
      "note": 60,
      "start": 3.1954,
      "duration": 0.0994,
      "velocity": 97,
      "chip": "ym2612"
    },
    {
      "channel": 1,
      "note": 60,
      "start": 3.1961,
      "duration": 0.0993,
      "velocity": 88,
      "chip": "ym2612"
    },
    {
      "channel": 2,
      "note": 60,
      "start": 3.1967,
      "duration": 0.0991,
      "velocity": 102,
      "chip": "ym2612"
    },
    {
      "channel": 3,
      "note": 60,
      "start": 3.1973,
      "duration": 0.0989,
      "velocity": 102,
      "chip": "ym2612"
    },
    {
      "channel": 0,
      "note": 60,
      "start": 3.2953,
      "duration": 0.0996,
      "velocity": 97,
      "chip": "ym2612"
    },
    {
      "channel": 1,
      "note": 60,
      "start": 3.2957,
      "duration": 0.0997,
      "velocity": 88,
      "chip": "ym2612"
    },
    {
      "channel": 2,
      "note": 60,
      "start": 3.2961,
      "duration": 0.0998,
      "velocity": 102,
      "chip": "ym2612"
    },
    {
      "channel": 3,
      "note": 60,
      "start": 3.2966,
      "duration": 0.0998,
      "velocity": 102,
      "chip": "ym2612"
    },
    {
      "channel": 0,
      "note": 72,
      "start": 3.3953,
      "duration": 0.0995,
      "velocity": 97,
      "chip": "ym2612"
    },
    {
      "channel": 1,
      "note": 72,
      "start": 3.3958,
      "duration": 0.0995,
      "velocity": 88,
      "chip": "ym2612"
    },
    {
      "channel": 2,
      "note": 60,
      "start": 3.3963,
      "duration": 0.0996,
      "velocity": 102,
      "chip": "ym2612"
    },
    {
      "channel": 3,
      "note": 60,
      "start": 3.3967,
      "duration": 0.0997,
      "velocity": 102,
      "chip": "ym2612"
    },
    {
      "channel": 0,
      "note": 60,
      "start": 3.4953,
      "duration": 0.0995,
      "velocity": 97,
      "chip": "ym2612"
    },
    {
      "channel": 1,
      "note": 60,
      "start": 3.4958,
      "duration": 0.0995,
      "velocity": 88,
      "chip": "ym2612"
    },
    {
      "channel": 2,
      "note": 60,
      "start": 3.4963,
      "duration": 0.0995,
      "velocity": 102,
      "chip": "ym2612"
    },
    {
      "channel": 3,
      "note": 60,
      "start": 3.4967,
      "duration": 0.0996,
      "velocity": 102,
      "chip": "ym2612"
    },
    {
      "channel": 0,
      "note": 60,
      "start": 3.5953,
      "duration": 0.0996,
      "velocity": 97,
      "chip": "ym2612"
    },
    {
      "channel": 1,
      "note": 60,
      "start": 3.5957,
      "duration": 0.0997,
      "velocity": 88,
      "chip": "ym2612"
    },
    {
      "channel": 2,
      "note": 60,
      "start": 3.5961,
      "duration": 0.0998,
      "velocity": 102,
      "chip": "ym2612"
    },
    {
      "channel": 3,
      "note": 60,
      "start": 3.5966,
      "duration": 0.0998,
      "velocity": 102,
      "chip": "ym2612"
    },
    {
      "channel": 0,
      "note": 70,
      "start": 3.6953,
      "duration": 0.0995,
      "velocity": 97,
      "chip": "ym2612"
    },
    {
      "channel": 1,
      "note": 70,
      "start": 3.6958,
      "duration": 0.0995,
      "velocity": 88,
      "chip": "ym2612"
    },
    {
      "channel": 2,
      "note": 60,
      "start": 3.6963,
      "duration": 0.0996,
      "velocity": 102,
      "chip": "ym2612"
    },
    {
      "channel": 3,
      "note": 60,
      "start": 3.6967,
      "duration": 0.0997,
      "velocity": 102,
      "chip": "ym2612"
    },
    {
      "channel": 0,
      "note": 60,
      "start": 3.7953,
      "duration": 0.0995,
      "velocity": 97,
      "chip": "ym2612"
    },
    {
      "channel": 1,
      "note": 60,
      "start": 3.7958,
      "duration": 0.0995,
      "velocity": 88,
      "chip": "ym2612"
    },
    {
      "channel": 2,
      "note": 60,
      "start": 3.7963,
      "duration": 0.0995,
      "velocity": 102,
      "chip": "ym2612"
    },
    {
      "channel": 3,
      "note": 60,
      "start": 3.7967,
      "duration": 0.0996,
      "velocity": 102,
      "chip": "ym2612"
    },
    {
      "channel": 0,
      "note": 60,
      "start": 3.8953,
      "duration": 0.0996,
      "velocity": 97,
      "chip": "ym2612"
    },
    {
      "channel": 1,
      "note": 60,
      "start": 3.8957,
      "duration": 0.0998,
      "velocity": 88,
      "chip": "ym2612"
    },
    {
      "channel": 2,
      "note": 60,
      "start": 3.8961,
      "duration": 0.0999,
      "velocity": 102,
      "chip": "ym2612"
    },
    {
      "channel": 3,
      "note": 60,
      "start": 3.8966,
      "duration": 0.0998,
      "velocity": 102,
      "chip": "ym2612"
    },
    {
      "channel": 0,
      "note": 75,
      "start": 3.9953,
      "duration": 0.0995,
      "velocity": 97,
      "chip": "ym2612"
    },
    {
      "channel": 1,
      "note": 75,
      "start": 3.9959,
      "duration": 0.0995,
      "velocity": 88,
      "chip": "ym2612"
    },
    {
      "channel": 2,
      "note": 60,
      "start": 3.9963,
      "duration": 0.0996,
      "velocity": 102,
      "chip": "ym2612"
    },
    {
      "channel": 3,
      "note": 60,
      "start": 3.9968,
      "duration": 0.0995,
      "velocity": 102,
      "chip": "ym2612"
    },
    {
      "channel": 0,
      "note": 60,
      "start": 4.0953,
      "duration": 0.0995,
      "velocity": 97,
      "chip": "ym2612"
    },
    {
      "channel": 1,
      "note": 60,
      "start": 4.0958,
      "duration": 0.0995,
      "velocity": 88,
      "chip": "ym2612"
    },
    {
      "channel": 2,
      "note": 60,
      "start": 4.0963,
      "duration": 0.0995,
      "velocity": 102,
      "chip": "ym2612"
    },
    {
      "channel": 3,
      "note": 60,
      "start": 4.0967,
      "duration": 0.0996,
      "velocity": 102,
      "chip": "ym2612"
    },
    {
      "channel": 0,
      "note": 60,
      "start": 4.1953,
      "duration": 0.0996,
      "velocity": 97,
      "chip": "ym2612"
    },
    {
      "channel": 1,
      "note": 60,
      "start": 4.1957,
      "duration": 0.0997,
      "velocity": 88,
      "chip": "ym2612"
    },
    {
      "channel": 2,
      "note": 60,
      "start": 4.1961,
      "duration": 0.0998,
      "velocity": 102,
      "chip": "ym2612"
    },
    {
      "channel": 3,
      "note": 60,
      "start": 4.1966,
      "duration": 0.0998,
      "velocity": 102,
      "chip": "ym2612"
    },
    {
      "channel": 0,
      "note": 77,
      "start": 4.2953,
      "duration": 0.0995,
      "velocity": 97,
      "chip": "ym2612"
    },
    {
      "channel": 1,
      "note": 77,
      "start": 4.2958,
      "duration": 0.0995,
      "velocity": 88,
      "chip": "ym2612"
    },
    {
      "channel": 2,
      "note": 60,
      "start": 4.2963,
      "duration": 0.0996,
      "velocity": 102,
      "chip": "ym2612"
    },
    {
      "channel": 3,
      "note": 60,
      "start": 4.2967,
      "duration": 0.0997,
      "velocity": 102,
      "chip": "ym2612"
    },
    {
      "channel": 0,
      "note": 60,
      "start": 4.3953,
      "duration": 0.0995,
      "velocity": 97,
      "chip": "ym2612"
    },
    {
      "channel": 1,
      "note": 60,
      "start": 4.3958,
      "duration": 0.0995,
      "velocity": 88,
      "chip": "ym2612"
    },
    {
      "channel": 2,
      "note": 63,
      "start": 4.3963,
      "duration": 0.0995,
      "velocity": 102,
      "chip": "ym2612"
    },
    {
      "channel": 3,
      "note": 63,
      "start": 4.3968,
      "duration": 0.0994,
      "velocity": 102,
      "chip": "ym2612"
    },
    {
      "channel": 0,
      "note": 60,
      "start": 4.4953,
      "duration": 0.0996,
      "velocity": 97,
      "chip": "ym2612"
    },
    {
      "channel": 1,
      "note": 60,
      "start": 4.4957,
      "duration": 0.0997,
      "velocity": 88,
      "chip": "ym2612"
    },
    {
      "channel": 2,
      "note": 63,
      "start": 4.4961,
      "duration": 0.0998,
      "velocity": 102,
      "chip": "ym2612"
    },
    {
      "channel": 3,
      "note": 63,
      "start": 4.4966,
      "duration": 0.0998,
      "velocity": 102,
      "chip": "ym2612"
    },
    {
      "channel": 0,
      "note": 75,
      "start": 4.5953,
      "duration": 0.0995,
      "velocity": 97,
      "chip": "ym2612"
    },
    {
      "channel": 1,
      "note": 75,
      "start": 4.5958,
      "duration": 0.0995,
      "velocity": 88,
      "chip": "ym2612"
    },
    {
      "channel": 2,
      "note": 63,
      "start": 4.5963,
      "duration": 0.0996,
      "velocity": 102,
      "chip": "ym2612"
    },
    {
      "channel": 3,
      "note": 63,
      "start": 4.5967,
      "duration": 0.0997,
      "velocity": 102,
      "chip": "ym2612"
    },
    {
      "channel": 0,
      "note": 60,
      "start": 4.6953,
      "duration": 0.0995,
      "velocity": 97,
      "chip": "ym2612"
    },
    {
      "channel": 1,
      "note": 60,
      "start": 4.6958,
      "duration": 0.0997,
      "velocity": 88,
      "chip": "ym2612"
    },
    {
      "channel": 2,
      "note": 63,
      "start": 4.6963,
      "duration": 0.0999,
      "velocity": 102,
      "chip": "ym2612"
    },
    {
      "channel": 3,
      "note": 63,
      "start": 4.6967,
      "duration": 0.1001,
      "velocity": 102,
      "chip": "ym2612"
    },
    {
      "channel": 0,
      "note": 60,
      "start": 4.7954,
      "duration": 0.0994,
      "velocity": 97,
      "chip": "ym2612"
    },
    {
      "channel": 1,
      "note": 60,
      "start": 4.7961,
      "duration": 0.0993,
      "velocity": 88,
      "chip": "ym2612"
    },
    {
      "channel": 2,
      "note": 60,
      "start": 4.7967,
      "duration": 0.0991,
      "velocity": 102,
      "chip": "ym2612"
    },
    {
      "channel": 3,
      "note": 60,
      "start": 4.7973,
      "duration": 0.0989,
      "velocity": 102,
      "chip": "ym2612"
    },
    {
      "channel": 0,
      "note": 60,
      "start": 4.8953,
      "duration": 0.0996,
      "velocity": 97,
      "chip": "ym2612"
    },
    {
      "channel": 1,
      "note": 60,
      "start": 4.8957,
      "duration": 0.0997,
      "velocity": 88,
      "chip": "ym2612"
    },
    {
      "channel": 2,
      "note": 60,
      "start": 4.8961,
      "duration": 0.0998,
      "velocity": 102,
      "chip": "ym2612"
    },
    {
      "channel": 3,
      "note": 60,
      "start": 4.8966,
      "duration": 0.0998,
      "velocity": 102,
      "chip": "ym2612"
    },
    {
      "channel": 0,
      "note": 72,
      "start": 4.9953,
      "duration": 0.0995,
      "velocity": 97,
      "chip": "ym2612"
    },
    {
      "channel": 1,
      "note": 72,
      "start": 4.9958,
      "duration": 0.0995,
      "velocity": 88,
      "chip": "ym2612"
    },
    {
      "channel": 2,
      "note": 60,
      "start": 4.9963,
      "duration": 0.0996,
      "velocity": 102,
      "chip": "ym2612"
    },
    {
      "channel": 3,
      "note": 60,
      "start": 4.9967,
      "duration": 0.0997,
      "velocity": 102,
      "chip": "ym2612"
    },
    {
      "channel": 0,
      "note": 60,
      "start": 5.0953,
      "duration": 0.0995,
      "velocity": 97,
      "chip": "ym2612"
    },
    {
      "channel": 1,
      "note": 60,
      "start": 5.0958,
      "duration": 0.0995,
      "velocity": 88,
      "chip": "ym2612"
    },
    {
      "channel": 2,
      "note": 60,
      "start": 5.0963,
      "duration": 0.0995,
      "velocity": 102,
      "chip": "ym2612"
    },
    {
      "channel": 3,
      "note": 60,
      "start": 5.0967,
      "duration": 0.0996,
      "velocity": 102,
      "chip": "ym2612"
    },
    {
      "channel": 0,
      "note": 60,
      "start": 5.1953,
      "duration": 0.0996,
      "velocity": 97,
      "chip": "ym2612"
    },
    {
      "channel": 1,
      "note": 60,
      "start": 5.1957,
      "duration": 0.0997,
      "velocity": 88,
      "chip": "ym2612"
    },
    {
      "channel": 2,
      "note": 60,
      "start": 5.1961,
      "duration": 0.0998,
      "velocity": 102,
      "chip": "ym2612"
    },
    {
      "channel": 3,
      "note": 60,
      "start": 5.1966,
      "duration": 0.0998,
      "velocity": 102,
      "chip": "ym2612"
    },
    {
      "channel": 0,
      "note": 70,
      "start": 5.2953,
      "duration": 0.0995,
      "velocity": 97,
      "chip": "ym2612"
    },
    {
      "channel": 1,
      "note": 70,
      "start": 5.2958,
      "duration": 0.0995,
      "velocity": 88,
      "chip": "ym2612"
    },
    {
      "channel": 2,
      "note": 60,
      "start": 5.2963,
      "duration": 0.0996,
      "velocity": 102,
      "chip": "ym2612"
    },
    {
      "channel": 3,
      "note": 60,
      "start": 5.2967,
      "duration": 0.0997,
      "velocity": 102,
      "chip": "ym2612"
    },
    {
      "channel": 0,
      "note": 60,
      "start": 5.3953,
      "duration": 0.0995,
      "velocity": 97,
      "chip": "ym2612"
    },
    {
      "channel": 1,
      "note": 60,
      "start": 5.3958,
      "duration": 0.0995,
      "velocity": 88,
      "chip": "ym2612"
    },
    {
      "channel": 2,
      "note": 60,
      "start": 5.3963,
      "duration": 0.0995,
      "velocity": 102,
      "chip": "ym2612"
    },
    {
      "channel": 3,
      "note": 60,
      "start": 5.3967,
      "duration": 0.0996,
      "velocity": 102,
      "chip": "ym2612"
    },
    {
      "channel": 0,
      "note": 60,
      "start": 5.4953,
      "duration": 0.0996,
      "velocity": 97,
      "chip": "ym2612"
    },
    {
      "channel": 1,
      "note": 60,
      "start": 5.4957,
      "duration": 0.0998,
      "velocity": 88,
      "chip": "ym2612"
    },
    {
      "channel": 2,
      "note": 60,
      "start": 5.4961,
      "duration": 0.0999,
      "velocity": 102,
      "chip": "ym2612"
    },
    {
      "channel": 3,
      "note": 60,
      "start": 5.4966,
      "duration": 0.0999,
      "velocity": 102,
      "chip": "ym2612"
    },
    {
      "channel": 0,
      "note": 68,
      "start": 5.5954,
      "duration": 0.0995,
      "velocity": 97,
      "chip": "ym2612"
    },
    {
      "channel": 1,
      "note": 68,
      "start": 5.596,
      "duration": 0.0994,
      "velocity": 88,
      "chip": "ym2612"
    },
    {
      "channel": 2,
      "note": 60,
      "start": 5.5965,
      "duration": 0.0994,
      "velocity": 102,
      "chip": "ym2612"
    },
    {
      "channel": 3,
      "note": 60,
      "start": 5.5969,
      "duration": 0.0995,
      "velocity": 102,
      "chip": "ym2612"
    },
    {
      "channel": 0,
      "note": 60,
      "start": 5.6953,
      "duration": 0.0995,
      "velocity": 97,
      "chip": "ym2612"
    },
    {
      "channel": 1,
      "note": 60,
      "start": 5.6958,
      "duration": 0.0995,
      "velocity": 88,
      "chip": "ym2612"
    },
    {
      "channel": 2,
      "note": 60,
      "start": 5.6963,
      "duration": 0.0995,
      "velocity": 102,
      "chip": "ym2612"
    },
    {
      "channel": 3,
      "note": 60,
      "start": 5.6967,
      "duration": 0.0996,
      "velocity": 102,
      "chip": "ym2612"
    },
    {
      "channel": 0,
      "note": 60,
      "start": 5.7953,
      "duration": 0.0996,
      "velocity": 97,
      "chip": "ym2612"
    },
    {
      "channel": 1,
      "note": 60,
      "start": 5.7957,
      "duration": 0.0997,
      "velocity": 88,
      "chip": "ym2612"
    },
    {
      "channel": 2,
      "note": 60,
      "start": 5.7961,
      "duration": 0.0998,
      "velocity": 102,
      "chip": "ym2612"
    },
    {
      "channel": 3,
      "note": 60,
      "start": 5.7966,
      "duration": 0.0998,
      "velocity": 102,
      "chip": "ym2612"
    },
    {
      "channel": 0,
      "note": 70,
      "start": 5.8953,
      "duration": 0.0995,
      "velocity": 97,
      "chip": "ym2612"
    },
    {
      "channel": 1,
      "note": 70,
      "start": 5.8958,
      "duration": 0.0995,
      "velocity": 88,
      "chip": "ym2612"
    },
    {
      "channel": 2,
      "note": 60,
      "start": 5.8963,
      "duration": 0.0996,
      "velocity": 102,
      "chip": "ym2612"
    },
    {
      "channel": 3,
      "note": 60,
      "start": 5.8967,
      "duration": 0.0998,
      "velocity": 102,
      "chip": "ym2612"
    },
    {
      "channel": 0,
      "note": 60,
      "start": 5.9953,
      "duration": 0.0995,
      "velocity": 97,
      "chip": "ym2612"
    },
    {
      "channel": 1,
      "note": 60,
      "start": 5.9958,
      "duration": 0.0995,
      "velocity": 88,
      "chip": "ym2612"
    },
    {
      "channel": 2,
      "note": 58,
      "start": 5.9963,
      "duration": 0.0995,
      "velocity": 102,
      "chip": "ym2612"
    },
    {
      "channel": 3,
      "note": 58,
      "start": 5.9969,
      "duration": 0.0994,
      "velocity": 102,
      "chip": "ym2612"
    },
    {
      "channel": 0,
      "note": 60,
      "start": 6.0953,
      "duration": 0.0996,
      "velocity": 97,
      "chip": "ym2612"
    },
    {
      "channel": 1,
      "note": 60,
      "start": 6.0957,
      "duration": 0.0997,
      "velocity": 88,
      "chip": "ym2612"
    },
    {
      "channel": 2,
      "note": 58,
      "start": 6.0961,
      "duration": 0.0998,
      "velocity": 102,
      "chip": "ym2612"
    },
    {
      "channel": 3,
      "note": 58,
      "start": 6.0966,
      "duration": 0.0998,
      "velocity": 102,
      "chip": "ym2612"
    },
    {
      "channel": 0,
      "note": 72,
      "start": 6.1953,
      "duration": 0.0995,
      "velocity": 97,
      "chip": "ym2612"
    },
    {
      "channel": 1,
      "note": 72,
      "start": 6.1958,
      "duration": 0.0995,
      "velocity": 88,
      "chip": "ym2612"
    },
    {
      "channel": 2,
      "note": 58,
      "start": 6.1963,
      "duration": 0.0996,
      "velocity": 102,
      "chip": "ym2612"
    },
    {
      "channel": 3,
      "note": 58,
      "start": 6.1967,
      "duration": 0.0996,
      "velocity": 102,
      "chip": "ym2612"
    },
    {
      "channel": 0,
      "note": 70,
      "start": 6.2953,
      "duration": 0.0996,
      "velocity": 97,
      "chip": "ym2612"
    },
    {
      "channel": 1,
      "note": 70,
      "start": 6.2958,
      "duration": 0.0998,
      "velocity": 88,
      "chip": "ym2612"
    },
    {
      "channel": 2,
      "note": 58,
      "start": 6.2962,
      "duration": 0.0999,
      "velocity": 102,
      "chip": "ym2612"
    },
    {
      "channel": 3,
      "note": 58,
      "start": 6.2967,
      "duration": 0.1001,
      "velocity": 102,
      "chip": "ym2612"
    },
    {
      "channel": 0,
      "note": 56,
      "start": 6.3954,
      "duration": 0.0994,
      "velocity": 97,
      "chip": "ym2612"
    },
    {
      "channel": 1,
      "note": 56,
      "start": 6.3961,
      "duration": 0.0993,
      "velocity": 88,
      "chip": "ym2612"
    },
    {
      "channel": 2,
      "note": 56,
      "start": 6.3967,
      "duration": 0.0991,
      "velocity": 102,
      "chip": "ym2612"
    },
    {
      "channel": 3,
      "note": 56,
      "start": 6.3974,
      "duration": 0.0989,
      "velocity": 102,
      "chip": "ym2612"
    },
    {
      "channel": 0,
      "note": 56,
      "start": 6.4953,
      "duration": 0.0996,
      "velocity": 97,
      "chip": "ym2612"
    },
    {
      "channel": 1,
      "note": 56,
      "start": 6.4957,
      "duration": 0.0997,
      "velocity": 88,
      "chip": "ym2612"
    },
    {
      "channel": 2,
      "note": 56,
      "start": 6.4961,
      "duration": 0.0998,
      "velocity": 102,
      "chip": "ym2612"
    },
    {
      "channel": 3,
      "note": 56,
      "start": 6.4966,
      "duration": 0.0998,
      "velocity": 102,
      "chip": "ym2612"
    },
    {
      "channel": 0,
      "note": 68,
      "start": 6.5953,
      "duration": 0.0995,
      "velocity": 97,
      "chip": "ym2612"
    },
    {
      "channel": 1,
      "note": 68,
      "start": 6.5958,
      "duration": 0.0995,
      "velocity": 88,
      "chip": "ym2612"
    },
    {
      "channel": 2,
      "note": 56,
      "start": 6.5963,
      "duration": 0.0996,
      "velocity": 102,
      "chip": "ym2612"
    },
    {
      "channel": 3,
      "note": 56,
      "start": 6.5967,
      "duration": 0.0997,
      "velocity": 102,
      "chip": "ym2612"
    },
    {
      "channel": 0,
      "note": 56,
      "start": 6.6953,
      "duration": 0.0995,
      "velocity": 97,
      "chip": "ym2612"
    },
    {
      "channel": 1,
      "note": 56,
      "start": 6.6958,
      "duration": 0.0995,
      "velocity": 88,
      "chip": "ym2612"
    },
    {
      "channel": 2,
      "note": 56,
      "start": 6.6963,
      "duration": 0.0995,
      "velocity": 102,
      "chip": "ym2612"
    },
    {
      "channel": 3,
      "note": 56,
      "start": 6.6967,
      "duration": 0.0996,
      "velocity": 102,
      "chip": "ym2612"
    },
    {
      "channel": 0,
      "note": 56,
      "start": 6.7953,
      "duration": 0.0996,
      "velocity": 97,
      "chip": "ym2612"
    },
    {
      "channel": 1,
      "note": 56,
      "start": 6.7957,
      "duration": 0.0996,
      "velocity": 88,
      "chip": "ym2612"
    },
    {
      "channel": 2,
      "note": 56,
      "start": 6.7961,
      "duration": 0.0997,
      "velocity": 102,
      "chip": "ym2612"
    },
    {
      "channel": 3,
      "note": 56,
      "start": 6.7966,
      "duration": 0.0996,
      "velocity": 102,
      "chip": "ym2612"
    },
    {
      "channel": 0,
      "note": 66,
      "start": 6.8953,
      "duration": 0.0996,
      "velocity": 97,
      "chip": "ym2612"
    },
    {
      "channel": 1,
      "note": 66,
      "start": 6.8957,
      "duration": 0.0996,
      "velocity": 88,
      "chip": "ym2612"
    },
    {
      "channel": 2,
      "note": 56,
      "start": 6.8961,
      "duration": 0.0997,
      "velocity": 102,
      "chip": "ym2612"
    },
    {
      "channel": 3,
      "note": 56,
      "start": 6.8966,
      "duration": 0.0996,
      "velocity": 102,
      "chip": "ym2612"
    },
    {
      "channel": 0,
      "note": 56,
      "start": 6.9953,
      "duration": 0.0996,
      "velocity": 97,
      "chip": "ym2612"
    },
    {
      "channel": 1,
      "note": 56,
      "start": 6.9957,
      "duration": 0.0996,
      "velocity": 88,
      "chip": "ym2612"
    },
    {
      "channel": 2,
      "note": 56,
      "start": 6.9961,
      "duration": 0.0997,
      "velocity": 102,
      "chip": "ym2612"
    },
    {
      "channel": 3,
      "note": 56,
      "start": 6.9966,
      "duration": 0.0996,
      "velocity": 102,
      "chip": "ym2612"
    },
    {
      "channel": 0,
      "note": 56,
      "start": 7.0953,
      "duration": 0.0996,
      "velocity": 97,
      "chip": "ym2612"
    },
    {
      "channel": 1,
      "note": 56,
      "start": 7.0957,
      "duration": 0.0998,
      "velocity": 88,
      "chip": "ym2612"
    },
    {
      "channel": 2,
      "note": 56,
      "start": 7.0961,
      "duration": 0.0999,
      "velocity": 102,
      "chip": "ym2612"
    },
    {
      "channel": 3,
      "note": 56,
      "start": 7.0966,
      "duration": 0.0998,
      "velocity": 102,
      "chip": "ym2612"
    },
    {
      "channel": 0,
      "note": 70,
      "start": 7.1953,
      "duration": 0.0995,
      "velocity": 97,
      "chip": "ym2612"
    },
    {
      "channel": 1,
      "note": 70,
      "start": 7.1959,
      "duration": 0.0995,
      "velocity": 88,
      "chip": "ym2612"
    },
    {
      "channel": 2,
      "note": 56,
      "start": 7.1963,
      "duration": 0.0996,
      "velocity": 102,
      "chip": "ym2612"
    },
    {
      "channel": 3,
      "note": 56,
      "start": 7.1968,
      "duration": 0.0995,
      "velocity": 102,
      "chip": "ym2612"
    },
    {
      "channel": 0,
      "note": 56,
      "start": 7.2953,
      "duration": 0.0995,
      "velocity": 97,
      "chip": "ym2612"
    },
    {
      "channel": 1,
      "note": 56,
      "start": 7.2958,
      "duration": 0.0995,
      "velocity": 88,
      "chip": "ym2612"
    },
    {
      "channel": 2,
      "note": 56,
      "start": 7.2963,
      "duration": 0.0995,
      "velocity": 102,
      "chip": "ym2612"
    },
    {
      "channel": 3,
      "note": 56,
      "start": 7.2967,
      "duration": 0.0996,
      "velocity": 102,
      "chip": "ym2612"
    },
    {
      "channel": 0,
      "note": 56,
      "start": 7.3953,
      "duration": 0.0996,
      "velocity": 97,
      "chip": "ym2612"
    },
    {
      "channel": 1,
      "note": 56,
      "start": 7.3957,
      "duration": 0.0997,
      "velocity": 88,
      "chip": "ym2612"
    },
    {
      "channel": 2,
      "note": 56,
      "start": 7.3961,
      "duration": 0.0998,
      "velocity": 102,
      "chip": "ym2612"
    },
    {
      "channel": 3,
      "note": 56,
      "start": 7.3966,
      "duration": 0.0998,
      "velocity": 102,
      "chip": "ym2612"
    },
    {
      "channel": 0,
      "note": 71,
      "start": 7.4953,
      "duration": 0.0995,
      "velocity": 97,
      "chip": "ym2612"
    },
    {
      "channel": 1,
      "note": 71,
      "start": 7.4958,
      "duration": 0.0995,
      "velocity": 88,
      "chip": "ym2612"
    },
    {
      "channel": 2,
      "note": 56,
      "start": 7.4963,
      "duration": 0.0996,
      "velocity": 102,
      "chip": "ym2612"
    },
    {
      "channel": 3,
      "note": 56,
      "start": 7.4967,
      "duration": 0.0997,
      "velocity": 102,
      "chip": "ym2612"
    },
    {
      "channel": 0,
      "note": 56,
      "start": 7.5953,
      "duration": 0.0995,
      "velocity": 97,
      "chip": "ym2612"
    },
    {
      "channel": 1,
      "note": 56,
      "start": 7.5958,
      "duration": 0.0995,
      "velocity": 88,
      "chip": "ym2612"
    },
    {
      "channel": 2,
      "note": 59,
      "start": 7.5963,
      "duration": 0.0995,
      "velocity": 102,
      "chip": "ym2612"
    },
    {
      "channel": 3,
      "note": 59,
      "start": 7.5968,
      "duration": 0.0994,
      "velocity": 102,
      "chip": "ym2612"
    },
    {
      "channel": 0,
      "note": 56,
      "start": 7.6953,
      "duration": 0.0996,
      "velocity": 97,
      "chip": "ym2612"
    },
    {
      "channel": 1,
      "note": 56,
      "start": 7.6957,
      "duration": 0.0997,
      "velocity": 88,
      "chip": "ym2612"
    },
    {
      "channel": 2,
      "note": 59,
      "start": 7.6961,
      "duration": 0.0998,
      "velocity": 102,
      "chip": "ym2612"
    },
    {
      "channel": 3,
      "note": 59,
      "start": 7.6966,
      "duration": 0.0998,
      "velocity": 102,
      "chip": "ym2612"
    },
    {
      "channel": 0,
      "note": 70,
      "start": 7.7953,
      "duration": 0.0995,
      "velocity": 97,
      "chip": "ym2612"
    },
    {
      "channel": 1,
      "note": 70,
      "start": 7.7958,
      "duration": 0.0995,
      "velocity": 88,
      "chip": "ym2612"
    },
    {
      "channel": 2,
      "note": 59,
      "start": 7.7963,
      "duration": 0.0996,
      "velocity": 102,
      "chip": "ym2612"
    },
    {
      "channel": 3,
      "note": 59,
      "start": 7.7967,
      "duration": 0.0997,
      "velocity": 102,
      "chip": "ym2612"
    },
    {
      "channel": 0,
      "note": 56,
      "start": 7.8953,
      "duration": 0.0995,
      "velocity": 97,
      "chip": "ym2612"
    },
    {
      "channel": 1,
      "note": 56,
      "start": 7.8958,
      "duration": 0.0997,
      "velocity": 88,
      "chip": "ym2612"
    },
    {
      "channel": 2,
      "note": 59,
      "start": 7.8963,
      "duration": 0.0999,
      "velocity": 102,
      "chip": "ym2612"
    },
    {
      "channel": 3,
      "note": 59,
      "start": 7.8967,
      "duration": 0.1001,
      "velocity": 102,
      "chip": "ym2612"
    },
    {
      "channel": 0,
      "note": 56,
      "start": 7.9954,
      "duration": 0.0994,
      "velocity": 97,
      "chip": "ym2612"
    },
    {
      "channel": 1,
      "note": 56,
      "start": 7.9961,
      "duration": 0.0993,
      "velocity": 88,
      "chip": "ym2612"
    },
    {
      "channel": 2,
      "note": 56,
      "start": 7.9967,
      "duration": 0.0991,
      "velocity": 102,
      "chip": "ym2612"
    },
    {
      "channel": 3,
      "note": 56,
      "start": 7.9973,
      "duration": 0.0989,
      "velocity": 102,
      "chip": "ym2612"
    },
    {
      "channel": 0,
      "note": 56,
      "start": 8.0953,
      "duration": 0.0996,
      "velocity": 97,
      "chip": "ym2612"
    },
    {
      "channel": 1,
      "note": 56,
      "start": 8.0957,
      "duration": 0.0997,
      "velocity": 88,
      "chip": "ym2612"
    },
    {
      "channel": 2,
      "note": 56,
      "start": 8.0961,
      "duration": 0.0998,
      "velocity": 102,
      "chip": "ym2612"
    },
    {
      "channel": 3,
      "note": 56,
      "start": 8.0966,
      "duration": 0.0998,
      "velocity": 102,
      "chip": "ym2612"
    },
    {
      "channel": 0,
      "note": 68,
      "start": 8.1953,
      "duration": 0.0995,
      "velocity": 97,
      "chip": "ym2612"
    },
    {
      "channel": 1,
      "note": 68,
      "start": 8.1958,
      "duration": 0.0995,
      "velocity": 88,
      "chip": "ym2612"
    },
    {
      "channel": 2,
      "note": 56,
      "start": 8.1963,
      "duration": 0.0996,
      "velocity": 102,
      "chip": "ym2612"
    },
    {
      "channel": 3,
      "note": 56,
      "start": 8.1967,
      "duration": 0.0997,
      "velocity": 102,
      "chip": "ym2612"
    },
    {
      "channel": 0,
      "note": 56,
      "start": 8.2953,
      "duration": 0.0995,
      "velocity": 97,
      "chip": "ym2612"
    },
    {
      "channel": 1,
      "note": 56,
      "start": 8.2958,
      "duration": 0.0995,
      "velocity": 88,
      "chip": "ym2612"
    },
    {
      "channel": 2,
      "note": 56,
      "start": 8.2963,
      "duration": 0.0995,
      "velocity": 102,
      "chip": "ym2612"
    },
    {
      "channel": 3,
      "note": 56,
      "start": 8.2967,
      "duration": 0.0996,
      "velocity": 102,
      "chip": "ym2612"
    },
    {
      "channel": 0,
      "note": 56,
      "start": 8.3953,
      "duration": 0.0996,
      "velocity": 97,
      "chip": "ym2612"
    },
    {
      "channel": 1,
      "note": 56,
      "start": 8.3957,
      "duration": 0.0996,
      "velocity": 88,
      "chip": "ym2612"
    },
    {
      "channel": 2,
      "note": 56,
      "start": 8.3961,
      "duration": 0.0997,
      "velocity": 102,
      "chip": "ym2612"
    },
    {
      "channel": 3,
      "note": 56,
      "start": 8.3966,
      "duration": 0.0996,
      "velocity": 102,
      "chip": "ym2612"
    },
    {
      "channel": 0,
      "note": 66,
      "start": 8.4953,
      "duration": 0.0996,
      "velocity": 97,
      "chip": "ym2612"
    },
    {
      "channel": 1,
      "note": 66,
      "start": 8.4957,
      "duration": 0.0996,
      "velocity": 88,
      "chip": "ym2612"
    },
    {
      "channel": 2,
      "note": 56,
      "start": 8.4961,
      "duration": 0.0997,
      "velocity": 102,
      "chip": "ym2612"
    },
    {
      "channel": 3,
      "note": 56,
      "start": 8.4966,
      "duration": 0.0996,
      "velocity": 102,
      "chip": "ym2612"
    },
    {
      "channel": 0,
      "note": 56,
      "start": 8.5953,
      "duration": 0.0996,
      "velocity": 97,
      "chip": "ym2612"
    },
    {
      "channel": 1,
      "note": 56,
      "start": 8.5957,
      "duration": 0.0996,
      "velocity": 88,
      "chip": "ym2612"
    },
    {
      "channel": 2,
      "note": 56,
      "start": 8.5961,
      "duration": 0.0997,
      "velocity": 102,
      "chip": "ym2612"
    },
    {
      "channel": 3,
      "note": 56,
      "start": 8.5966,
      "duration": 0.0996,
      "velocity": 102,
      "chip": "ym2612"
    },
    {
      "channel": 0,
      "note": 56,
      "start": 8.6953,
      "duration": 0.0996,
      "velocity": 97,
      "chip": "ym2612"
    },
    {
      "channel": 1,
      "note": 56,
      "start": 8.6957,
      "duration": 0.0998,
      "velocity": 88,
      "chip": "ym2612"
    },
    {
      "channel": 2,
      "note": 56,
      "start": 8.6961,
      "duration": 0.0998,
      "velocity": 102,
      "chip": "ym2612"
    },
    {
      "channel": 3,
      "note": 56,
      "start": 8.6966,
      "duration": 0.0998,
      "velocity": 102,
      "chip": "ym2612"
    },
    {
      "channel": 0,
      "note": 64,
      "start": 8.7953,
      "duration": 0.0995,
      "velocity": 97,
      "chip": "ym2612"
    },
    {
      "channel": 1,
      "note": 64,
      "start": 8.7959,
      "duration": 0.0994,
      "velocity": 88,
      "chip": "ym2612"
    },
    {
      "channel": 2,
      "note": 56,
      "start": 8.7963,
      "duration": 0.0995,
      "velocity": 102,
      "chip": "ym2612"
    },
    {
      "channel": 3,
      "note": 56,
      "start": 8.7968,
      "duration": 0.0995,
      "velocity": 102,
      "chip": "ym2612"
    },
    {
      "channel": 0,
      "note": 56,
      "start": 8.8953,
      "duration": 0.0996,
      "velocity": 97,
      "chip": "ym2612"
    },
    {
      "channel": 1,
      "note": 56,
      "start": 8.8957,
      "duration": 0.0996,
      "velocity": 88,
      "chip": "ym2612"
    },
    {
      "channel": 2,
      "note": 56,
      "start": 8.8961,
      "duration": 0.0997,
      "velocity": 102,
      "chip": "ym2612"
    },
    {
      "channel": 3,
      "note": 56,
      "start": 8.8966,
      "duration": 0.0996,
      "velocity": 102,
      "chip": "ym2612"
    },
    {
      "channel": 0,
      "note": 56,
      "start": 8.9953,
      "duration": 0.0996,
      "velocity": 97,
      "chip": "ym2612"
    },
    {
      "channel": 1,
      "note": 56,
      "start": 8.9957,
      "duration": 0.0996,
      "velocity": 88,
      "chip": "ym2612"
    },
    {
      "channel": 2,
      "note": 56,
      "start": 8.9961,
      "duration": 0.0997,
      "velocity": 102,
      "chip": "ym2612"
    },
    {
      "channel": 3,
      "note": 56,
      "start": 8.9966,
      "duration": 0.0996,
      "velocity": 102,
      "chip": "ym2612"
    },
    {
      "channel": 0,
      "note": 66,
      "start": 9.0953,
      "duration": 0.0996,
      "velocity": 97,
      "chip": "ym2612"
    },
    {
      "channel": 1,
      "note": 66,
      "start": 9.0957,
      "duration": 0.0996,
      "velocity": 88,
      "chip": "ym2612"
    },
    {
      "channel": 2,
      "note": 56,
      "start": 9.0961,
      "duration": 0.0997,
      "velocity": 102,
      "chip": "ym2612"
    },
    {
      "channel": 3,
      "note": 56,
      "start": 9.0966,
      "duration": 0.0997,
      "velocity": 102,
      "chip": "ym2612"
    },
    {
      "channel": 0,
      "note": 56,
      "start": 9.1953,
      "duration": 0.0996,
      "velocity": 97,
      "chip": "ym2612"
    },
    {
      "channel": 1,
      "note": 56,
      "start": 9.1957,
      "duration": 0.0996,
      "velocity": 88,
      "chip": "ym2612"
    },
    {
      "channel": 2,
      "note": 54,
      "start": 9.1963,
      "duration": 0.0995,
      "velocity": 102,
      "chip": "ym2612"
    },
    {
      "channel": 3,
      "note": 54,
      "start": 9.1968,
      "duration": 0.0994,
      "velocity": 102,
      "chip": "ym2612"
    },
    {
      "channel": 0,
      "note": 56,
      "start": 9.2953,
      "duration": 0.0996,
      "velocity": 97,
      "chip": "ym2612"
    },
    {
      "channel": 1,
      "note": 56,
      "start": 9.2957,
      "duration": 0.0997,
      "velocity": 88,
      "chip": "ym2612"
    },
    {
      "channel": 2,
      "note": 54,
      "start": 9.2961,
      "duration": 0.0998,
      "velocity": 102,
      "chip": "ym2612"
    },
    {
      "channel": 3,
      "note": 54,
      "start": 9.2966,
      "duration": 0.0998,
      "velocity": 102,
      "chip": "ym2612"
    },
    {
      "channel": 0,
      "note": 68,
      "start": 9.3953,
      "duration": 0.0995,
      "velocity": 97,
      "chip": "ym2612"
    },
    {
      "channel": 1,
      "note": 68,
      "start": 9.3958,
      "duration": 0.0996,
      "velocity": 88,
      "chip": "ym2612"
    },
    {
      "channel": 2,
      "note": 54,
      "start": 9.3963,
      "duration": 0.0997,
      "velocity": 102,
      "chip": "ym2612"
    },
    {
      "channel": 3,
      "note": 54,
      "start": 9.3967,
      "duration": 0.0998,
      "velocity": 102,
      "chip": "ym2612"
    },
    {
      "channel": 0,
      "note": 56,
      "start": 9.4953,
      "duration": 0.0995,
      "velocity": 97,
      "chip": "ym2612"
    },
    {
      "channel": 1,
      "note": 56,
      "start": 9.4959,
      "duration": 0.0996,
      "velocity": 88,
      "chip": "ym2612"
    },
    {
      "channel": 2,
      "note": 54,
      "start": 9.4963,
      "duration": 0.0998,
      "velocity": 102,
      "chip": "ym2612"
    },
    {
      "channel": 3,
      "note": 54,
      "start": 9.4968,
      "duration": 0.1,
      "velocity": 102,
      "chip": "ym2612"
    },
    {
      "channel": 0,
      "note": 56,
      "start": 9.5954,
      "duration": 0.0994,
      "velocity": 97,
      "chip": "ym2612"
    },
    {
      "channel": 1,
      "note": 56,
      "start": 9.5961,
      "duration": 0.0993,
      "velocity": 88,
      "chip": "ym2612"
    },
    {
      "channel": 2,
      "note": 56,
      "start": 9.5967,
      "duration": 0.0991,
      "velocity": 102,
      "chip": "ym2612"
    },
    {
      "channel": 3,
      "note": 56,
      "start": 9.5973,
      "duration": 0.0989,
      "velocity": 102,
      "chip": "ym2612"
    },
    {
      "channel": 0,
      "note": 56,
      "start": 9.6953,
      "duration": 0.0996,
      "velocity": 97,
      "chip": "ym2612"
    },
    {
      "channel": 1,
      "note": 56,
      "start": 9.6957,
      "duration": 0.0997,
      "velocity": 88,
      "chip": "ym2612"
    },
    {
      "channel": 2,
      "note": 56,
      "start": 9.6961,
      "duration": 0.0998,
      "velocity": 102,
      "chip": "ym2612"
    },
    {
      "channel": 3,
      "note": 56,
      "start": 9.6966,
      "duration": 0.0998,
      "velocity": 102,
      "chip": "ym2612"
    },
    {
      "channel": 0,
      "note": 68,
      "start": 9.7953,
      "duration": 0.0995,
      "velocity": 97,
      "chip": "ym2612"
    },
    {
      "channel": 1,
      "note": 68,
      "start": 9.7958,
      "duration": 0.0995,
      "velocity": 88,
      "chip": "ym2612"
    },
    {
      "channel": 2,
      "note": 56,
      "start": 9.7963,
      "duration": 0.0996,
      "velocity": 102,
      "chip": "ym2612"
    },
    {
      "channel": 3,
      "note": 56,
      "start": 9.7967,
      "duration": 0.0997,
      "velocity": 102,
      "chip": "ym2612"
    },
    {
      "channel": 0,
      "note": 56,
      "start": 9.8953,
      "duration": 0.0995,
      "velocity": 97,
      "chip": "ym2612"
    },
    {
      "channel": 1,
      "note": 56,
      "start": 9.8958,
      "duration": 0.0995,
      "velocity": 88,
      "chip": "ym2612"
    },
    {
      "channel": 2,
      "note": 56,
      "start": 9.8963,
      "duration": 0.0995,
      "velocity": 102,
      "chip": "ym2612"
    },
    {
      "channel": 3,
      "note": 56,
      "start": 9.8967,
      "duration": 0.0996,
      "velocity": 102,
      "chip": "ym2612"
    },
    {
      "channel": 0,
      "note": 56,
      "start": 9.9953,
      "duration": 0.0996,
      "velocity": 97,
      "chip": "ym2612"
    },
    {
      "channel": 1,
      "note": 56,
      "start": 9.9957,
      "duration": 0.0996,
      "velocity": 88,
      "chip": "ym2612"
    },
    {
      "channel": 2,
      "note": 56,
      "start": 9.9961,
      "duration": 0.0997,
      "velocity": 102,
      "chip": "ym2612"
    },
    {
      "channel": 3,
      "note": 56,
      "start": 9.9966,
      "duration": 0.0996,
      "velocity": 102,
      "chip": "ym2612"
    },
    {
      "channel": 0,
      "note": 66,
      "start": 10.0953,
      "duration": 0.0996,
      "velocity": 97,
      "chip": "ym2612"
    },
    {
      "channel": 1,
      "note": 66,
      "start": 10.0957,
      "duration": 0.0996,
      "velocity": 88,
      "chip": "ym2612"
    },
    {
      "channel": 2,
      "note": 56,
      "start": 10.0961,
      "duration": 0.0997,
      "velocity": 102,
      "chip": "ym2612"
    },
    {
      "channel": 3,
      "note": 56,
      "start": 10.0966,
      "duration": 0.0996,
      "velocity": 102,
      "chip": "ym2612"
    },
    {
      "channel": 0,
      "note": 56,
      "start": 10.1953,
      "duration": 0.0996,
      "velocity": 97,
      "chip": "ym2612"
    },
    {
      "channel": 1,
      "note": 56,
      "start": 10.1957,
      "duration": 0.0996,
      "velocity": 88,
      "chip": "ym2612"
    },
    {
      "channel": 2,
      "note": 56,
      "start": 10.1961,
      "duration": 0.0997,
      "velocity": 102,
      "chip": "ym2612"
    },
    {
      "channel": 3,
      "note": 56,
      "start": 10.1966,
      "duration": 0.0996,
      "velocity": 102,
      "chip": "ym2612"
    },
    {
      "channel": 0,
      "note": 56,
      "start": 10.2953,
      "duration": 0.0996,
      "velocity": 97,
      "chip": "ym2612"
    },
    {
      "channel": 1,
      "note": 56,
      "start": 10.2957,
      "duration": 0.0998,
      "velocity": 88,
      "chip": "ym2612"
    },
    {
      "channel": 2,
      "note": 56,
      "start": 10.2961,
      "duration": 0.0999,
      "velocity": 102,
      "chip": "ym2612"
    },
    {
      "channel": 3,
      "note": 56,
      "start": 10.2966,
      "duration": 0.0998,
      "velocity": 102,
      "chip": "ym2612"
    },
    {
      "channel": 0,
      "note": 70,
      "start": 10.3953,
      "duration": 0.0995,
      "velocity": 97,
      "chip": "ym2612"
    },
    {
      "channel": 1,
      "note": 70,
      "start": 10.3959,
      "duration": 0.0995,
      "velocity": 88,
      "chip": "ym2612"
    },
    {
      "channel": 2,
      "note": 56,
      "start": 10.3963,
      "duration": 0.0996,
      "velocity": 102,
      "chip": "ym2612"
    },
    {
      "channel": 3,
      "note": 56,
      "start": 10.3968,
      "duration": 0.0995,
      "velocity": 102,
      "chip": "ym2612"
    },
    {
      "channel": 0,
      "note": 56,
      "start": 10.4953,
      "duration": 0.0995,
      "velocity": 97,
      "chip": "ym2612"
    },
    {
      "channel": 1,
      "note": 56,
      "start": 10.4958,
      "duration": 0.0995,
      "velocity": 88,
      "chip": "ym2612"
    },
    {
      "channel": 2,
      "note": 56,
      "start": 10.4963,
      "duration": 0.0995,
      "velocity": 102,
      "chip": "ym2612"
    },
    {
      "channel": 3,
      "note": 56,
      "start": 10.4967,
      "duration": 0.0996,
      "velocity": 102,
      "chip": "ym2612"
    },
    {
      "channel": 0,
      "note": 56,
      "start": 10.5953,
      "duration": 0.0996,
      "velocity": 97,
      "chip": "ym2612"
    },
    {
      "channel": 1,
      "note": 56,
      "start": 10.5957,
      "duration": 0.0997,
      "velocity": 88,
      "chip": "ym2612"
    },
    {
      "channel": 2,
      "note": 56,
      "start": 10.5961,
      "duration": 0.0998,
      "velocity": 102,
      "chip": "ym2612"
    },
    {
      "channel": 3,
      "note": 56,
      "start": 10.5966,
      "duration": 0.0998,
      "velocity": 102,
      "chip": "ym2612"
    },
    {
      "channel": 0,
      "note": 71,
      "start": 10.6953,
      "duration": 0.0995,
      "velocity": 97,
      "chip": "ym2612"
    },
    {
      "channel": 1,
      "note": 71,
      "start": 10.6958,
      "duration": 0.0995,
      "velocity": 88,
      "chip": "ym2612"
    },
    {
      "channel": 2,
      "note": 56,
      "start": 10.6963,
      "duration": 0.0996,
      "velocity": 102,
      "chip": "ym2612"
    },
    {
      "channel": 3,
      "note": 56,
      "start": 10.6967,
      "duration": 0.0997,
      "velocity": 102,
      "chip": "ym2612"
    },
    {
      "channel": 0,
      "note": 56,
      "start": 10.7953,
      "duration": 0.0995,
      "velocity": 97,
      "chip": "ym2612"
    },
    {
      "channel": 1,
      "note": 56,
      "start": 10.7958,
      "duration": 0.0995,
      "velocity": 88,
      "chip": "ym2612"
    },
    {
      "channel": 2,
      "note": 59,
      "start": 10.7963,
      "duration": 0.0995,
      "velocity": 102,
      "chip": "ym2612"
    },
    {
      "channel": 3,
      "note": 59,
      "start": 10.7968,
      "duration": 0.0994,
      "velocity": 102,
      "chip": "ym2612"
    },
    {
      "channel": 0,
      "note": 56,
      "start": 10.8953,
      "duration": 0.0996,
      "velocity": 97,
      "chip": "ym2612"
    },
    {
      "channel": 1,
      "note": 56,
      "start": 10.8957,
      "duration": 0.0997,
      "velocity": 88,
      "chip": "ym2612"
    },
    {
      "channel": 2,
      "note": 59,
      "start": 10.8961,
      "duration": 0.0998,
      "velocity": 102,
      "chip": "ym2612"
    },
    {
      "channel": 3,
      "note": 59,
      "start": 10.8966,
      "duration": 0.0998,
      "velocity": 102,
      "chip": "ym2612"
    },
    {
      "channel": 0,
      "note": 70,
      "start": 10.9953,
      "duration": 0.0995,
      "velocity": 97,
      "chip": "ym2612"
    },
    {
      "channel": 1,
      "note": 70,
      "start": 10.9958,
      "duration": 0.0995,
      "velocity": 88,
      "chip": "ym2612"
    },
    {
      "channel": 2,
      "note": 59,
      "start": 10.9963,
      "duration": 0.0996,
      "velocity": 102,
      "chip": "ym2612"
    },
    {
      "channel": 3,
      "note": 59,
      "start": 10.9967,
      "duration": 0.0997,
      "velocity": 102,
      "chip": "ym2612"
    },
    {
      "channel": 0,
      "note": 56,
      "start": 11.0953,
      "duration": 0.0995,
      "velocity": 97,
      "chip": "ym2612"
    },
    {
      "channel": 1,
      "note": 56,
      "start": 11.0958,
      "duration": 0.0997,
      "velocity": 88,
      "chip": "ym2612"
    },
    {
      "channel": 2,
      "note": 59,
      "start": 11.0963,
      "duration": 0.0999,
      "velocity": 102,
      "chip": "ym2612"
    },
    {
      "channel": 3,
      "note": 59,
      "start": 11.0967,
      "duration": 0.1001,
      "velocity": 102,
      "chip": "ym2612"
    },
    {
      "channel": 0,
      "note": 56,
      "start": 11.1954,
      "duration": 0.0994,
      "velocity": 97,
      "chip": "ym2612"
    },
    {
      "channel": 1,
      "note": 56,
      "start": 11.1961,
      "duration": 0.0993,
      "velocity": 88,
      "chip": "ym2612"
    },
    {
      "channel": 2,
      "note": 56,
      "start": 11.1967,
      "duration": 0.0991,
      "velocity": 102,
      "chip": "ym2612"
    },
    {
      "channel": 3,
      "note": 56,
      "start": 11.1973,
      "duration": 0.0989,
      "velocity": 102,
      "chip": "ym2612"
    },
    {
      "channel": 0,
      "note": 56,
      "start": 11.2953,
      "duration": 0.0996,
      "velocity": 97,
      "chip": "ym2612"
    },
    {
      "channel": 1,
      "note": 56,
      "start": 11.2957,
      "duration": 0.0997,
      "velocity": 88,
      "chip": "ym2612"
    },
    {
      "channel": 2,
      "note": 56,
      "start": 11.2961,
      "duration": 0.0998,
      "velocity": 102,
      "chip": "ym2612"
    },
    {
      "channel": 3,
      "note": 56,
      "start": 11.2966,
      "duration": 0.0998,
      "velocity": 102,
      "chip": "ym2612"
    },
    {
      "channel": 0,
      "note": 68,
      "start": 11.3953,
      "duration": 0.0995,
      "velocity": 97,
      "chip": "ym2612"
    },
    {
      "channel": 1,
      "note": 68,
      "start": 11.3958,
      "duration": 0.0995,
      "velocity": 88,
      "chip": "ym2612"
    },
    {
      "channel": 2,
      "note": 56,
      "start": 11.3963,
      "duration": 0.0996,
      "velocity": 102,
      "chip": "ym2612"
    },
    {
      "channel": 3,
      "note": 56,
      "start": 11.3967,
      "duration": 0.0997,
      "velocity": 102,
      "chip": "ym2612"
    },
    {
      "channel": 0,
      "note": 56,
      "start": 11.4953,
      "duration": 0.0995,
      "velocity": 97,
      "chip": "ym2612"
    },
    {
      "channel": 1,
      "note": 56,
      "start": 11.4958,
      "duration": 0.0995,
      "velocity": 88,
      "chip": "ym2612"
    },
    {
      "channel": 2,
      "note": 56,
      "start": 11.4963,
      "duration": 0.0995,
      "velocity": 102,
      "chip": "ym2612"
    },
    {
      "channel": 3,
      "note": 56,
      "start": 11.4967,
      "duration": 0.0996,
      "velocity": 102,
      "chip": "ym2612"
    },
    {
      "channel": 0,
      "note": 56,
      "start": 11.5953,
      "duration": 0.0996,
      "velocity": 97,
      "chip": "ym2612"
    },
    {
      "channel": 1,
      "note": 56,
      "start": 11.5957,
      "duration": 0.0996,
      "velocity": 88,
      "chip": "ym2612"
    },
    {
      "channel": 2,
      "note": 56,
      "start": 11.5961,
      "duration": 0.0997,
      "velocity": 102,
      "chip": "ym2612"
    },
    {
      "channel": 3,
      "note": 56,
      "start": 11.5966,
      "duration": 0.0996,
      "velocity": 102,
      "chip": "ym2612"
    },
    {
      "channel": 0,
      "note": 66,
      "start": 11.6953,
      "duration": 0.0996,
      "velocity": 97,
      "chip": "ym2612"
    },
    {
      "channel": 1,
      "note": 66,
      "start": 11.6957,
      "duration": 0.0996,
      "velocity": 88,
      "chip": "ym2612"
    },
    {
      "channel": 2,
      "note": 56,
      "start": 11.6961,
      "duration": 0.0997,
      "velocity": 102,
      "chip": "ym2612"
    },
    {
      "channel": 3,
      "note": 56,
      "start": 11.6966,
      "duration": 0.0996,
      "velocity": 102,
      "chip": "ym2612"
    },
    {
      "channel": 0,
      "note": 56,
      "start": 11.7953,
      "duration": 0.0996,
      "velocity": 97,
      "chip": "ym2612"
    },
    {
      "channel": 1,
      "note": 56,
      "start": 11.7957,
      "duration": 0.0996,
      "velocity": 88,
      "chip": "ym2612"
    },
    {
      "channel": 2,
      "note": 56,
      "start": 11.7961,
      "duration": 0.0997,
      "velocity": 102,
      "chip": "ym2612"
    },
    {
      "channel": 3,
      "note": 56,
      "start": 11.7966,
      "duration": 0.0996,
      "velocity": 102,
      "chip": "ym2612"
    },
    {
      "channel": 0,
      "note": 56,
      "start": 11.8953,
      "duration": 0.0996,
      "velocity": 97,
      "chip": "ym2612"
    },
    {
      "channel": 1,
      "note": 56,
      "start": 11.8957,
      "duration": 0.0998,
      "velocity": 88,
      "chip": "ym2612"
    },
    {
      "channel": 2,
      "note": 56,
      "start": 11.8961,
      "duration": 0.0998,
      "velocity": 102,
      "chip": "ym2612"
    },
    {
      "channel": 3,
      "note": 56,
      "start": 11.8966,
      "duration": 0.0998,
      "velocity": 102,
      "chip": "ym2612"
    },
    {
      "channel": 0,
      "note": 64,
      "start": 11.9953,
      "duration": 0.0995,
      "velocity": 97,
      "chip": "ym2612"
    },
    {
      "channel": 1,
      "note": 64,
      "start": 11.9959,
      "duration": 0.0994,
      "velocity": 88,
      "chip": "ym2612"
    },
    {
      "channel": 2,
      "note": 56,
      "start": 11.9963,
      "duration": 0.0995,
      "velocity": 102,
      "chip": "ym2612"
    },
    {
      "channel": 3,
      "note": 56,
      "start": 11.9968,
      "duration": 0.0995,
      "velocity": 102,
      "chip": "ym2612"
    },
    {
      "channel": 0,
      "note": 56,
      "start": 12.0953,
      "duration": 0.0996,
      "velocity": 97,
      "chip": "ym2612"
    },
    {
      "channel": 1,
      "note": 56,
      "start": 12.0957,
      "duration": 0.0996,
      "velocity": 88,
      "chip": "ym2612"
    },
    {
      "channel": 2,
      "note": 56,
      "start": 12.0961,
      "duration": 0.0997,
      "velocity": 102,
      "chip": "ym2612"
    },
    {
      "channel": 3,
      "note": 56,
      "start": 12.0966,
      "duration": 0.0996,
      "velocity": 102,
      "chip": "ym2612"
    },
    {
      "channel": 0,
      "note": 56,
      "start": 12.1953,
      "duration": 0.0997,
      "velocity": 97,
      "chip": "ym2612"
    },
    {
      "channel": 1,
      "note": 56,
      "start": 12.1957,
      "duration": 0.0997,
      "velocity": 88,
      "chip": "ym2612"
    },
    {
      "channel": 2,
      "note": 56,
      "start": 12.1961,
      "duration": 0.0997,
      "velocity": 102,
      "chip": "ym2612"
    },
    {
      "channel": 3,
      "note": 56,
      "start": 12.1966,
      "duration": 0.0996,
      "velocity": 102,
      "chip": "ym2612"
    },
    {
      "channel": 0,
      "note": 66,
      "start": 12.2953,
      "duration": 0.0996,
      "velocity": 97,
      "chip": "ym2612"
    },
    {
      "channel": 1,
      "note": 66,
      "start": 12.2957,
      "duration": 0.0996,
      "velocity": 88,
      "chip": "ym2612"
    },
    {
      "channel": 2,
      "note": 56,
      "start": 12.2962,
      "duration": 0.0996,
      "velocity": 102,
      "chip": "ym2612"
    },
    {
      "channel": 3,
      "note": 56,
      "start": 12.2966,
      "duration": 0.0997,
      "velocity": 102,
      "chip": "ym2612"
    },
    {
      "channel": 0,
      "note": 56,
      "start": 12.3953,
      "duration": 0.0996,
      "velocity": 97,
      "chip": "ym2612"
    },
    {
      "channel": 1,
      "note": 56,
      "start": 12.3957,
      "duration": 0.0996,
      "velocity": 88,
      "chip": "ym2612"
    },
    {
      "channel": 2,
      "note": 58,
      "start": 12.3963,
      "duration": 0.0995,
      "velocity": 102,
      "chip": "ym2612"
    },
    {
      "channel": 3,
      "note": 58,
      "start": 12.3968,
      "duration": 0.0995,
      "velocity": 102,
      "chip": "ym2612"
    },
    {
      "channel": 0,
      "note": 56,
      "start": 12.4953,
      "duration": 0.0996,
      "velocity": 97,
      "chip": "ym2612"
    },
    {
      "channel": 1,
      "note": 56,
      "start": 12.4957,
      "duration": 0.0997,
      "velocity": 88,
      "chip": "ym2612"
    },
    {
      "channel": 2,
      "note": 58,
      "start": 12.4961,
      "duration": 0.0998,
      "velocity": 102,
      "chip": "ym2612"
    },
    {
      "channel": 3,
      "note": 58,
      "start": 12.4966,
      "duration": 0.0998,
      "velocity": 102,
      "chip": "ym2612"
    },
    {
      "channel": 0,
      "note": 68,
      "start": 12.5953,
      "duration": 0.0995,
      "velocity": 97,
      "chip": "ym2612"
    },
    {
      "channel": 1,
      "note": 68,
      "start": 12.5958,
      "duration": 0.0995,
      "velocity": 88,
      "chip": "ym2612"
    },
    {
      "channel": 2,
      "note": 58,
      "start": 12.5963,
      "duration": 0.0996,
      "velocity": 102,
      "chip": "ym2612"
    },
    {
      "channel": 3,
      "note": 58,
      "start": 12.5967,
      "duration": 0.0996,
      "velocity": 102,
      "chip": "ym2612"
    },
    {
      "channel": 0,
      "note": 70,
      "start": 12.6953,
      "duration": 0.0996,
      "velocity": 97,
      "chip": "ym2612"
    },
    {
      "channel": 1,
      "note": 70,
      "start": 12.6958,
      "duration": 0.0998,
      "velocity": 88,
      "chip": "ym2612"
    },
    {
      "channel": 2,
      "note": 58,
      "start": 12.6962,
      "duration": 0.0999,
      "velocity": 102,
      "chip": "ym2612"
    },
    {
      "channel": 3,
      "note": 58,
      "start": 12.6967,
      "duration": 0.1001,
      "velocity": 102,
      "chip": "ym2612"
    },
    {
      "channel": 0,
      "note": 60,
      "start": 12.7954,
      "duration": 0.0994,
      "velocity": 97,
      "chip": "ym2612"
    },
    {
      "channel": 1,
      "note": 60,
      "start": 12.7961,
      "duration": 0.0993,
      "velocity": 88,
      "chip": "ym2612"
    },
    {
      "channel": 2,
      "note": 60,
      "start": 12.7967,
      "duration": 0.0991,
      "velocity": 102,
      "chip": "ym2612"
    },
    {
      "channel": 3,
      "note": 60,
      "start": 12.7974,
      "duration": 0.0989,
      "velocity": 102,
      "chip": "ym2612"
    },
    {
      "channel": 0,
      "note": 60,
      "start": 12.8953,
      "duration": 0.0996,
      "velocity": 97,
      "chip": "ym2612"
    },
    {
      "channel": 1,
      "note": 60,
      "start": 12.8957,
      "duration": 0.0997,
      "velocity": 88,
      "chip": "ym2612"
    },
    {
      "channel": 2,
      "note": 60,
      "start": 12.8961,
      "duration": 0.0998,
      "velocity": 102,
      "chip": "ym2612"
    },
    {
      "channel": 3,
      "note": 60,
      "start": 12.8966,
      "duration": 0.0998,
      "velocity": 102,
      "chip": "ym2612"
    },
    {
      "channel": 0,
      "note": 72,
      "start": 12.9953,
      "duration": 0.0995,
      "velocity": 97,
      "chip": "ym2612"
    },
    {
      "channel": 1,
      "note": 72,
      "start": 12.9958,
      "duration": 0.0995,
      "velocity": 88,
      "chip": "ym2612"
    },
    {
      "channel": 2,
      "note": 60,
      "start": 12.9963,
      "duration": 0.0996,
      "velocity": 102,
      "chip": "ym2612"
    },
    {
      "channel": 3,
      "note": 60,
      "start": 12.9967,
      "duration": 0.0997,
      "velocity": 102,
      "chip": "ym2612"
    },
    {
      "channel": 0,
      "note": 60,
      "start": 13.0953,
      "duration": 0.0995,
      "velocity": 97,
      "chip": "ym2612"
    },
    {
      "channel": 1,
      "note": 60,
      "start": 13.0958,
      "duration": 0.0995,
      "velocity": 88,
      "chip": "ym2612"
    },
    {
      "channel": 2,
      "note": 60,
      "start": 13.0963,
      "duration": 0.0995,
      "velocity": 102,
      "chip": "ym2612"
    },
    {
      "channel": 3,
      "note": 60,
      "start": 13.0967,
      "duration": 0.0996,
      "velocity": 102,
      "chip": "ym2612"
    },
    {
      "channel": 0,
      "note": 60,
      "start": 13.1953,
      "duration": 0.0996,
      "velocity": 97,
      "chip": "ym2612"
    },
    {
      "channel": 1,
      "note": 60,
      "start": 13.1957,
      "duration": 0.0997,
      "velocity": 88,
      "chip": "ym2612"
    },
    {
      "channel": 2,
      "note": 60,
      "start": 13.1961,
      "duration": 0.0998,
      "velocity": 102,
      "chip": "ym2612"
    },
    {
      "channel": 3,
      "note": 60,
      "start": 13.1966,
      "duration": 0.0998,
      "velocity": 102,
      "chip": "ym2612"
    },
    {
      "channel": 0,
      "note": 70,
      "start": 13.2953,
      "duration": 0.0995,
      "velocity": 97,
      "chip": "ym2612"
    },
    {
      "channel": 1,
      "note": 70,
      "start": 13.2958,
      "duration": 0.0995,
      "velocity": 88,
      "chip": "ym2612"
    },
    {
      "channel": 2,
      "note": 60,
      "start": 13.2963,
      "duration": 0.0996,
      "velocity": 102,
      "chip": "ym2612"
    },
    {
      "channel": 3,
      "note": 60,
      "start": 13.2967,
      "duration": 0.0997,
      "velocity": 102,
      "chip": "ym2612"
    },
    {
      "channel": 0,
      "note": 60,
      "start": 13.3953,
      "duration": 0.0995,
      "velocity": 97,
      "chip": "ym2612"
    },
    {
      "channel": 1,
      "note": 60,
      "start": 13.3958,
      "duration": 0.0995,
      "velocity": 88,
      "chip": "ym2612"
    },
    {
      "channel": 2,
      "note": 60,
      "start": 13.3963,
      "duration": 0.0995,
      "velocity": 102,
      "chip": "ym2612"
    },
    {
      "channel": 3,
      "note": 60,
      "start": 13.3967,
      "duration": 0.0996,
      "velocity": 102,
      "chip": "ym2612"
    },
    {
      "channel": 0,
      "note": 60,
      "start": 13.4953,
      "duration": 0.0996,
      "velocity": 97,
      "chip": "ym2612"
    },
    {
      "channel": 1,
      "note": 60,
      "start": 13.4957,
      "duration": 0.0998,
      "velocity": 88,
      "chip": "ym2612"
    },
    {
      "channel": 2,
      "note": 60,
      "start": 13.4961,
      "duration": 0.0999,
      "velocity": 102,
      "chip": "ym2612"
    },
    {
      "channel": 3,
      "note": 60,
      "start": 13.4966,
      "duration": 0.0998,
      "velocity": 102,
      "chip": "ym2612"
    },
    {
      "channel": 0,
      "note": 75,
      "start": 13.5953,
      "duration": 0.0995,
      "velocity": 97,
      "chip": "ym2612"
    },
    {
      "channel": 1,
      "note": 75,
      "start": 13.5959,
      "duration": 0.0995,
      "velocity": 88,
      "chip": "ym2612"
    },
    {
      "channel": 2,
      "note": 60,
      "start": 13.5963,
      "duration": 0.0996,
      "velocity": 102,
      "chip": "ym2612"
    },
    {
      "channel": 3,
      "note": 60,
      "start": 13.5968,
      "duration": 0.0995,
      "velocity": 102,
      "chip": "ym2612"
    },
    {
      "channel": 0,
      "note": 60,
      "start": 13.6953,
      "duration": 0.0995,
      "velocity": 97,
      "chip": "ym2612"
    },
    {
      "channel": 1,
      "note": 60,
      "start": 13.6958,
      "duration": 0.0995,
      "velocity": 88,
      "chip": "ym2612"
    },
    {
      "channel": 2,
      "note": 60,
      "start": 13.6963,
      "duration": 0.0995,
      "velocity": 102,
      "chip": "ym2612"
    },
    {
      "channel": 3,
      "note": 60,
      "start": 13.6967,
      "duration": 0.0996,
      "velocity": 102,
      "chip": "ym2612"
    },
    {
      "channel": 0,
      "note": 60,
      "start": 13.7953,
      "duration": 0.0996,
      "velocity": 97,
      "chip": "ym2612"
    },
    {
      "channel": 1,
      "note": 60,
      "start": 13.7957,
      "duration": 0.0997,
      "velocity": 88,
      "chip": "ym2612"
    },
    {
      "channel": 2,
      "note": 60,
      "start": 13.7961,
      "duration": 0.0998,
      "velocity": 102,
      "chip": "ym2612"
    },
    {
      "channel": 3,
      "note": 60,
      "start": 13.7966,
      "duration": 0.0998,
      "velocity": 102,
      "chip": "ym2612"
    },
    {
      "channel": 0,
      "note": 77,
      "start": 13.8953,
      "duration": 0.0995,
      "velocity": 97,
      "chip": "ym2612"
    },
    {
      "channel": 1,
      "note": 77,
      "start": 13.8958,
      "duration": 0.0995,
      "velocity": 88,
      "chip": "ym2612"
    },
    {
      "channel": 2,
      "note": 60,
      "start": 13.8963,
      "duration": 0.0996,
      "velocity": 102,
      "chip": "ym2612"
    },
    {
      "channel": 3,
      "note": 60,
      "start": 13.8967,
      "duration": 0.0997,
      "velocity": 102,
      "chip": "ym2612"
    },
    {
      "channel": 0,
      "note": 60,
      "start": 13.9953,
      "duration": 0.0995,
      "velocity": 97,
      "chip": "ym2612"
    },
    {
      "channel": 1,
      "note": 60,
      "start": 13.9958,
      "duration": 0.0995,
      "velocity": 88,
      "chip": "ym2612"
    },
    {
      "channel": 2,
      "note": 63,
      "start": 13.9963,
      "duration": 0.0995,
      "velocity": 102,
      "chip": "ym2612"
    },
    {
      "channel": 3,
      "note": 63,
      "start": 13.9968,
      "duration": 0.0994,
      "velocity": 102,
      "chip": "ym2612"
    },
    {
      "channel": 0,
      "note": 60,
      "start": 14.0953,
      "duration": 0.0996,
      "velocity": 97,
      "chip": "ym2612"
    },
    {
      "channel": 1,
      "note": 60,
      "start": 14.0957,
      "duration": 0.0997,
      "velocity": 88,
      "chip": "ym2612"
    },
    {
      "channel": 2,
      "note": 63,
      "start": 14.0961,
      "duration": 0.0998,
      "velocity": 102,
      "chip": "ym2612"
    },
    {
      "channel": 3,
      "note": 63,
      "start": 14.0966,
      "duration": 0.0998,
      "velocity": 102,
      "chip": "ym2612"
    },
    {
      "channel": 0,
      "note": 75,
      "start": 14.1953,
      "duration": 0.0995,
      "velocity": 97,
      "chip": "ym2612"
    },
    {
      "channel": 1,
      "note": 75,
      "start": 14.1958,
      "duration": 0.0995,
      "velocity": 88,
      "chip": "ym2612"
    },
    {
      "channel": 2,
      "note": 63,
      "start": 14.1963,
      "duration": 0.0996,
      "velocity": 102,
      "chip": "ym2612"
    },
    {
      "channel": 3,
      "note": 63,
      "start": 14.1967,
      "duration": 0.0997,
      "velocity": 102,
      "chip": "ym2612"
    },
    {
      "channel": 0,
      "note": 60,
      "start": 14.2953,
      "duration": 0.0995,
      "velocity": 97,
      "chip": "ym2612"
    },
    {
      "channel": 1,
      "note": 60,
      "start": 14.2958,
      "duration": 0.0997,
      "velocity": 88,
      "chip": "ym2612"
    },
    {
      "channel": 2,
      "note": 63,
      "start": 14.2963,
      "duration": 0.0999,
      "velocity": 102,
      "chip": "ym2612"
    },
    {
      "channel": 3,
      "note": 63,
      "start": 14.2967,
      "duration": 0.1001,
      "velocity": 102,
      "chip": "ym2612"
    },
    {
      "channel": 0,
      "note": 60,
      "start": 14.3954,
      "duration": 0.0994,
      "velocity": 97,
      "chip": "ym2612"
    },
    {
      "channel": 1,
      "note": 60,
      "start": 14.3961,
      "duration": 0.0993,
      "velocity": 88,
      "chip": "ym2612"
    },
    {
      "channel": 2,
      "note": 60,
      "start": 14.3967,
      "duration": 0.0991,
      "velocity": 102,
      "chip": "ym2612"
    },
    {
      "channel": 3,
      "note": 60,
      "start": 14.3973,
      "duration": 0.0989,
      "velocity": 102,
      "chip": "ym2612"
    },
    {
      "channel": 0,
      "note": 60,
      "start": 14.4953,
      "duration": 0.0996,
      "velocity": 97,
      "chip": "ym2612"
    },
    {
      "channel": 1,
      "note": 60,
      "start": 14.4957,
      "duration": 0.0997,
      "velocity": 88,
      "chip": "ym2612"
    },
    {
      "channel": 2,
      "note": 60,
      "start": 14.4961,
      "duration": 0.0998,
      "velocity": 102,
      "chip": "ym2612"
    },
    {
      "channel": 3,
      "note": 60,
      "start": 14.4966,
      "duration": 0.0998,
      "velocity": 102,
      "chip": "ym2612"
    },
    {
      "channel": 0,
      "note": 72,
      "start": 14.5953,
      "duration": 0.0995,
      "velocity": 97,
      "chip": "ym2612"
    },
    {
      "channel": 1,
      "note": 72,
      "start": 14.5958,
      "duration": 0.0995,
      "velocity": 88,
      "chip": "ym2612"
    },
    {
      "channel": 2,
      "note": 60,
      "start": 14.5963,
      "duration": 0.0996,
      "velocity": 102,
      "chip": "ym2612"
    },
    {
      "channel": 3,
      "note": 60,
      "start": 14.5967,
      "duration": 0.0997,
      "velocity": 102,
      "chip": "ym2612"
    },
    {
      "channel": 0,
      "note": 60,
      "start": 14.6953,
      "duration": 0.0995,
      "velocity": 97,
      "chip": "ym2612"
    },
    {
      "channel": 1,
      "note": 60,
      "start": 14.6958,
      "duration": 0.0995,
      "velocity": 88,
      "chip": "ym2612"
    },
    {
      "channel": 2,
      "note": 60,
      "start": 14.6963,
      "duration": 0.0995,
      "velocity": 102,
      "chip": "ym2612"
    },
    {
      "channel": 3,
      "note": 60,
      "start": 14.6967,
      "duration": 0.0996,
      "velocity": 102,
      "chip": "ym2612"
    },
    {
      "channel": 0,
      "note": 60,
      "start": 14.7953,
      "duration": 0.0996,
      "velocity": 97,
      "chip": "ym2612"
    },
    {
      "channel": 1,
      "note": 60,
      "start": 14.7957,
      "duration": 0.0997,
      "velocity": 88,
      "chip": "ym2612"
    },
    {
      "channel": 2,
      "note": 60,
      "start": 14.7961,
      "duration": 0.0998,
      "velocity": 102,
      "chip": "ym2612"
    },
    {
      "channel": 3,
      "note": 60,
      "start": 14.7966,
      "duration": 0.0998,
      "velocity": 102,
      "chip": "ym2612"
    },
    {
      "channel": 0,
      "note": 70,
      "start": 14.8953,
      "duration": 0.0995,
      "velocity": 97,
      "chip": "ym2612"
    },
    {
      "channel": 1,
      "note": 70,
      "start": 14.8958,
      "duration": 0.0995,
      "velocity": 88,
      "chip": "ym2612"
    },
    {
      "channel": 2,
      "note": 60,
      "start": 14.8963,
      "duration": 0.0996,
      "velocity": 102,
      "chip": "ym2612"
    },
    {
      "channel": 3,
      "note": 60,
      "start": 14.8967,
      "duration": 0.0997,
      "velocity": 102,
      "chip": "ym2612"
    },
    {
      "channel": 0,
      "note": 60,
      "start": 14.9953,
      "duration": 0.0995,
      "velocity": 97,
      "chip": "ym2612"
    },
    {
      "channel": 1,
      "note": 60,
      "start": 14.9958,
      "duration": 0.0995,
      "velocity": 88,
      "chip": "ym2612"
    },
    {
      "channel": 2,
      "note": 60,
      "start": 14.9963,
      "duration": 0.0995,
      "velocity": 102,
      "chip": "ym2612"
    },
    {
      "channel": 3,
      "note": 60,
      "start": 14.9967,
      "duration": 0.0996,
      "velocity": 102,
      "chip": "ym2612"
    },
    {
      "channel": 0,
      "note": 60,
      "start": 15.0953,
      "duration": 0.0996,
      "velocity": 97,
      "chip": "ym2612"
    },
    {
      "channel": 1,
      "note": 60,
      "start": 15.0957,
      "duration": 0.0998,
      "velocity": 88,
      "chip": "ym2612"
    },
    {
      "channel": 2,
      "note": 60,
      "start": 15.0961,
      "duration": 0.0999,
      "velocity": 102,
      "chip": "ym2612"
    },
    {
      "channel": 3,
      "note": 60,
      "start": 15.0966,
      "duration": 0.0999,
      "velocity": 102,
      "chip": "ym2612"
    },
    {
      "channel": 0,
      "note": 68,
      "start": 15.1954,
      "duration": 0.0995,
      "velocity": 97,
      "chip": "ym2612"
    },
    {
      "channel": 1,
      "note": 68,
      "start": 15.196,
      "duration": 0.0994,
      "velocity": 88,
      "chip": "ym2612"
    },
    {
      "channel": 2,
      "note": 60,
      "start": 15.1965,
      "duration": 0.0994,
      "velocity": 102,
      "chip": "ym2612"
    },
    {
      "channel": 3,
      "note": 60,
      "start": 15.1969,
      "duration": 0.0995,
      "velocity": 102,
      "chip": "ym2612"
    },
    {
      "channel": 0,
      "note": 60,
      "start": 15.2953,
      "duration": 0.0995,
      "velocity": 97,
      "chip": "ym2612"
    },
    {
      "channel": 1,
      "note": 60,
      "start": 15.2958,
      "duration": 0.0995,
      "velocity": 88,
      "chip": "ym2612"
    },
    {
      "channel": 2,
      "note": 60,
      "start": 15.2963,
      "duration": 0.0995,
      "velocity": 102,
      "chip": "ym2612"
    },
    {
      "channel": 3,
      "note": 60,
      "start": 15.2967,
      "duration": 0.0996,
      "velocity": 102,
      "chip": "ym2612"
    },
    {
      "channel": 0,
      "note": 60,
      "start": 15.3953,
      "duration": 0.0996,
      "velocity": 97,
      "chip": "ym2612"
    },
    {
      "channel": 1,
      "note": 60,
      "start": 15.3957,
      "duration": 0.0997,
      "velocity": 88,
      "chip": "ym2612"
    },
    {
      "channel": 2,
      "note": 60,
      "start": 15.3961,
      "duration": 0.0998,
      "velocity": 102,
      "chip": "ym2612"
    },
    {
      "channel": 3,
      "note": 60,
      "start": 15.3966,
      "duration": 0.0998,
      "velocity": 102,
      "chip": "ym2612"
    },
    {
      "channel": 0,
      "note": 70,
      "start": 15.4953,
      "duration": 0.0995,
      "velocity": 97,
      "chip": "ym2612"
    },
    {
      "channel": 1,
      "note": 70,
      "start": 15.4958,
      "duration": 0.0995,
      "velocity": 88,
      "chip": "ym2612"
    },
    {
      "channel": 2,
      "note": 60,
      "start": 15.4963,
      "duration": 0.0996,
      "velocity": 102,
      "chip": "ym2612"
    },
    {
      "channel": 3,
      "note": 60,
      "start": 15.4967,
      "duration": 0.0997,
      "velocity": 102,
      "chip": "ym2612"
    },
    {
      "channel": 0,
      "note": 60,
      "start": 15.5953,
      "duration": 0.0995,
      "velocity": 97,
      "chip": "ym2612"
    },
    {
      "channel": 1,
      "note": 60,
      "start": 15.5958,
      "duration": 0.0995,
      "velocity": 88,
      "chip": "ym2612"
    },
    {
      "channel": 2,
      "note": 58,
      "start": 15.5963,
      "duration": 0.0995,
      "velocity": 102,
      "chip": "ym2612"
    },
    {
      "channel": 3,
      "note": 58,
      "start": 15.5968,
      "duration": 0.0994,
      "velocity": 102,
      "chip": "ym2612"
    },
    {
      "channel": 0,
      "note": 60,
      "start": 15.6953,
      "duration": 0.0996,
      "velocity": 97,
      "chip": "ym2612"
    },
    {
      "channel": 1,
      "note": 60,
      "start": 15.6957,
      "duration": 0.0997,
      "velocity": 88,
      "chip": "ym2612"
    },
    {
      "channel": 2,
      "note": 58,
      "start": 15.6961,
      "duration": 0.0998,
      "velocity": 102,
      "chip": "ym2612"
    },
    {
      "channel": 3,
      "note": 58,
      "start": 15.6966,
      "duration": 0.0998,
      "velocity": 102,
      "chip": "ym2612"
    },
    {
      "channel": 0,
      "note": 72,
      "start": 15.7953,
      "duration": 0.0995,
      "velocity": 97,
      "chip": "ym2612"
    },
    {
      "channel": 1,
      "note": 72,
      "start": 15.7958,
      "duration": 0.0996,
      "velocity": 88,
      "chip": "ym2612"
    },
    {
      "channel": 2,
      "note": 59,
      "start": 15.7963,
      "duration": 0.0997,
      "velocity": 102,
      "chip": "ym2612"
    },
    {
      "channel": 3,
      "note": 59,
      "start": 15.7967,
      "duration": 0.0998,
      "velocity": 102,
      "chip": "ym2612"
    },
    {
      "channel": 0,
      "note": 60,
      "start": 15.8953,
      "duration": 0.0995,
      "velocity": 97,
      "chip": "ym2612"
    },
    {
      "channel": 1,
      "note": 60,
      "start": 15.8959,
      "duration": 0.0996,
      "velocity": 88,
      "chip": "ym2612"
    },
    {
      "channel": 2,
      "note": 59,
      "start": 15.8963,
      "duration": 0.0998,
      "velocity": 102,
      "chip": "ym2612"
    },
    {
      "channel": 3,
      "note": 59,
      "start": 15.8968,
      "duration": 0.1,
      "velocity": 102,
      "chip": "ym2612"
    },
    {
      "channel": 0,
      "note": 60,
      "start": 15.9954,
      "duration": 0.0994,
      "velocity": 97,
      "chip": "ym2612"
    },
    {
      "channel": 1,
      "note": 60,
      "start": 15.9961,
      "duration": 0.0993,
      "velocity": 88,
      "chip": "ym2612"
    },
    {
      "channel": 2,
      "note": 60,
      "start": 15.9967,
      "duration": 0.0991,
      "velocity": 102,
      "chip": "ym2612"
    },
    {
      "channel": 3,
      "note": 60,
      "start": 15.9973,
      "duration": 0.0989,
      "velocity": 102,
      "chip": "ym2612"
    },
    {
      "channel": 0,
      "note": 60,
      "start": 16.0953,
      "duration": 0.0996,
      "velocity": 97,
      "chip": "ym2612"
    },
    {
      "channel": 1,
      "note": 60,
      "start": 16.0957,
      "duration": 0.0997,
      "velocity": 88,
      "chip": "ym2612"
    },
    {
      "channel": 2,
      "note": 60,
      "start": 16.0961,
      "duration": 0.0998,
      "velocity": 102,
      "chip": "ym2612"
    },
    {
      "channel": 3,
      "note": 60,
      "start": 16.0966,
      "duration": 0.0998,
      "velocity": 102,
      "chip": "ym2612"
    },
    {
      "channel": 0,
      "note": 72,
      "start": 16.1953,
      "duration": 0.0995,
      "velocity": 97,
      "chip": "ym2612"
    },
    {
      "channel": 1,
      "note": 72,
      "start": 16.1958,
      "duration": 0.0995,
      "velocity": 88,
      "chip": "ym2612"
    },
    {
      "channel": 2,
      "note": 60,
      "start": 16.1963,
      "duration": 0.0996,
      "velocity": 102,
      "chip": "ym2612"
    },
    {
      "channel": 3,
      "note": 60,
      "start": 16.1967,
      "duration": 0.0997,
      "velocity": 102,
      "chip": "ym2612"
    },
    {
      "channel": 0,
      "note": 60,
      "start": 16.2953,
      "duration": 0.0995,
      "velocity": 97,
      "chip": "ym2612"
    },
    {
      "channel": 1,
      "note": 60,
      "start": 16.2958,
      "duration": 0.0995,
      "velocity": 88,
      "chip": "ym2612"
    },
    {
      "channel": 2,
      "note": 60,
      "start": 16.2963,
      "duration": 0.0995,
      "velocity": 102,
      "chip": "ym2612"
    },
    {
      "channel": 3,
      "note": 60,
      "start": 16.2967,
      "duration": 0.0996,
      "velocity": 102,
      "chip": "ym2612"
    },
    {
      "channel": 0,
      "note": 60,
      "start": 16.3953,
      "duration": 0.0996,
      "velocity": 97,
      "chip": "ym2612"
    },
    {
      "channel": 1,
      "note": 60,
      "start": 16.3957,
      "duration": 0.0997,
      "velocity": 88,
      "chip": "ym2612"
    },
    {
      "channel": 2,
      "note": 60,
      "start": 16.3961,
      "duration": 0.0998,
      "velocity": 102,
      "chip": "ym2612"
    },
    {
      "channel": 3,
      "note": 60,
      "start": 16.3966,
      "duration": 0.0998,
      "velocity": 102,
      "chip": "ym2612"
    },
    {
      "channel": 0,
      "note": 70,
      "start": 16.4953,
      "duration": 0.0996,
      "velocity": 97,
      "chip": "ym2612"
    },
    {
      "channel": 1,
      "note": 70,
      "start": 16.4958,
      "duration": 0.0996,
      "velocity": 88,
      "chip": "ym2612"
    },
    {
      "channel": 2,
      "note": 60,
      "start": 16.4963,
      "duration": 0.0997,
      "velocity": 102,
      "chip": "ym2612"
    },
    {
      "channel": 3,
      "note": 60,
      "start": 16.4967,
      "duration": 0.0997,
      "velocity": 102,
      "chip": "ym2612"
    },
    {
      "channel": 0,
      "note": 60,
      "start": 16.5953,
      "duration": 0.0995,
      "velocity": 97,
      "chip": "ym2612"
    },
    {
      "channel": 1,
      "note": 60,
      "start": 16.5958,
      "duration": 0.0995,
      "velocity": 88,
      "chip": "ym2612"
    },
    {
      "channel": 2,
      "note": 60,
      "start": 16.5963,
      "duration": 0.0995,
      "velocity": 102,
      "chip": "ym2612"
    },
    {
      "channel": 3,
      "note": 60,
      "start": 16.5968,
      "duration": 0.0995,
      "velocity": 102,
      "chip": "ym2612"
    },
    {
      "channel": 0,
      "note": 60,
      "start": 16.6953,
      "duration": 0.0996,
      "velocity": 97,
      "chip": "ym2612"
    },
    {
      "channel": 1,
      "note": 60,
      "start": 16.6957,
      "duration": 0.0998,
      "velocity": 88,
      "chip": "ym2612"
    },
    {
      "channel": 2,
      "note": 60,
      "start": 16.6961,
      "duration": 0.0999,
      "velocity": 102,
      "chip": "ym2612"
    },
    {
      "channel": 3,
      "note": 60,
      "start": 16.6966,
      "duration": 0.0998,
      "velocity": 102,
      "chip": "ym2612"
    },
    {
      "channel": 0,
      "note": 75,
      "start": 16.7953,
      "duration": 0.0995,
      "velocity": 97,
      "chip": "ym2612"
    },
    {
      "channel": 1,
      "note": 75,
      "start": 16.7959,
      "duration": 0.0995,
      "velocity": 88,
      "chip": "ym2612"
    },
    {
      "channel": 2,
      "note": 60,
      "start": 16.7963,
      "duration": 0.0996,
      "velocity": 102,
      "chip": "ym2612"
    },
    {
      "channel": 3,
      "note": 60,
      "start": 16.7968,
      "duration": 0.0995,
      "velocity": 102,
      "chip": "ym2612"
    },
    {
      "channel": 0,
      "note": 60,
      "start": 16.8953,
      "duration": 0.0995,
      "velocity": 97,
      "chip": "ym2612"
    },
    {
      "channel": 1,
      "note": 60,
      "start": 16.8958,
      "duration": 0.0995,
      "velocity": 88,
      "chip": "ym2612"
    },
    {
      "channel": 2,
      "note": 60,
      "start": 16.8963,
      "duration": 0.0995,
      "velocity": 102,
      "chip": "ym2612"
    },
    {
      "channel": 3,
      "note": 60,
      "start": 16.8967,
      "duration": 0.0996,
      "velocity": 102,
      "chip": "ym2612"
    },
    {
      "channel": 0,
      "note": 60,
      "start": 16.9953,
      "duration": 0.0996,
      "velocity": 97,
      "chip": "ym2612"
    },
    {
      "channel": 1,
      "note": 60,
      "start": 16.9957,
      "duration": 0.0997,
      "velocity": 88,
      "chip": "ym2612"
    },
    {
      "channel": 2,
      "note": 60,
      "start": 16.9961,
      "duration": 0.0998,
      "velocity": 102,
      "chip": "ym2612"
    },
    {
      "channel": 3,
      "note": 60,
      "start": 16.9966,
      "duration": 0.0998,
      "velocity": 102,
      "chip": "ym2612"
    },
    {
      "channel": 0,
      "note": 77,
      "start": 17.0953,
      "duration": 0.0995,
      "velocity": 97,
      "chip": "ym2612"
    },
    {
      "channel": 1,
      "note": 77,
      "start": 17.0958,
      "duration": 0.0995,
      "velocity": 88,
      "chip": "ym2612"
    },
    {
      "channel": 2,
      "note": 60,
      "start": 17.0963,
      "duration": 0.0996,
      "velocity": 102,
      "chip": "ym2612"
    },
    {
      "channel": 3,
      "note": 60,
      "start": 17.0967,
      "duration": 0.0997,
      "velocity": 102,
      "chip": "ym2612"
    },
    {
      "channel": 0,
      "note": 60,
      "start": 17.1953,
      "duration": 0.0995,
      "velocity": 97,
      "chip": "ym2612"
    },
    {
      "channel": 1,
      "note": 60,
      "start": 17.1958,
      "duration": 0.0995,
      "velocity": 88,
      "chip": "ym2612"
    },
    {
      "channel": 2,
      "note": 63,
      "start": 17.1963,
      "duration": 0.0995,
      "velocity": 102,
      "chip": "ym2612"
    },
    {
      "channel": 3,
      "note": 63,
      "start": 17.1968,
      "duration": 0.0994,
      "velocity": 102,
      "chip": "ym2612"
    },
    {
      "channel": 0,
      "note": 60,
      "start": 17.2953,
      "duration": 0.0996,
      "velocity": 97,
      "chip": "ym2612"
    },
    {
      "channel": 1,
      "note": 60,
      "start": 17.2957,
      "duration": 0.0997,
      "velocity": 88,
      "chip": "ym2612"
    },
    {
      "channel": 2,
      "note": 63,
      "start": 17.2961,
      "duration": 0.0998,
      "velocity": 102,
      "chip": "ym2612"
    },
    {
      "channel": 3,
      "note": 63,
      "start": 17.2966,
      "duration": 0.0998,
      "velocity": 102,
      "chip": "ym2612"
    },
    {
      "channel": 0,
      "note": 75,
      "start": 17.3953,
      "duration": 0.0995,
      "velocity": 97,
      "chip": "ym2612"
    },
    {
      "channel": 1,
      "note": 75,
      "start": 17.3958,
      "duration": 0.0995,
      "velocity": 88,
      "chip": "ym2612"
    },
    {
      "channel": 2,
      "note": 63,
      "start": 17.3963,
      "duration": 0.0996,
      "velocity": 102,
      "chip": "ym2612"
    },
    {
      "channel": 3,
      "note": 63,
      "start": 17.3967,
      "duration": 0.0997,
      "velocity": 102,
      "chip": "ym2612"
    },
    {
      "channel": 0,
      "note": 60,
      "start": 17.4953,
      "duration": 0.0995,
      "velocity": 97,
      "chip": "ym2612"
    },
    {
      "channel": 1,
      "note": 60,
      "start": 17.4958,
      "duration": 0.0997,
      "velocity": 88,
      "chip": "ym2612"
    },
    {
      "channel": 2,
      "note": 63,
      "start": 17.4963,
      "duration": 0.0998,
      "velocity": 102,
      "chip": "ym2612"
    },
    {
      "channel": 3,
      "note": 63,
      "start": 17.4967,
      "duration": 0.0999,
      "velocity": 102,
      "chip": "ym2612"
    },
    {
      "channel": 0,
      "note": 66,
      "start": 17.5954,
      "duration": 0.0995,
      "velocity": 97,
      "chip": "ym2612"
    },
    {
      "channel": 1,
      "note": 66,
      "start": 17.596,
      "duration": 0.0994,
      "velocity": 88,
      "chip": "ym2612"
    },
    {
      "channel": 2,
      "note": 66,
      "start": 17.5966,
      "duration": 0.2993,
      "velocity": 102,
      "chip": "ym2612"
    },
    {
      "channel": 3,
      "note": 66,
      "start": 17.5972,
      "duration": 0.2992,
      "velocity": 102,
      "chip": "ym2612"
    },
    {
      "channel": 0,
      "note": 78,
      "start": 17.6953,
      "duration": 0.0995,
      "velocity": 97,
      "chip": "ym2612"
    },
    {
      "channel": 1,
      "note": 78,
      "start": 17.6958,
      "duration": 0.0995,
      "velocity": 88,
      "chip": "ym2612"
    },
    {
      "channel": 0,
      "note": 78,
      "start": 17.7953,
      "duration": 0.0996,
      "velocity": 97,
      "chip": "ym2612"
    },
    {
      "channel": 1,
      "note": 78,
      "start": 17.7957,
      "duration": 0.0997,
      "velocity": 88,
      "chip": "ym2612"
    },
    {
      "channel": 0,
      "note": 65,
      "start": 17.8953,
      "duration": 0.0995,
      "velocity": 97,
      "chip": "ym2612"
    },
    {
      "channel": 1,
      "note": 65,
      "start": 17.8958,
      "duration": 0.0995,
      "velocity": 88,
      "chip": "ym2612"
    },
    {
      "channel": 2,
      "note": 65,
      "start": 17.8963,
      "duration": 0.2996,
      "velocity": 102,
      "chip": "ym2612"
    },
    {
      "channel": 3,
      "note": 65,
      "start": 17.8967,
      "duration": 0.2997,
      "velocity": 102,
      "chip": "ym2612"
    },
    {
      "channel": 0,
      "note": 77,
      "start": 17.9953,
      "duration": 0.0995,
      "velocity": 97,
      "chip": "ym2612"
    },
    {
      "channel": 1,
      "note": 77,
      "start": 17.9958,
      "duration": 0.0995,
      "velocity": 88,
      "chip": "ym2612"
    },
    {
      "channel": 0,
      "note": 77,
      "start": 18.0953,
      "duration": 0.0996,
      "velocity": 97,
      "chip": "ym2612"
    },
    {
      "channel": 1,
      "note": 77,
      "start": 18.0957,
      "duration": 0.0997,
      "velocity": 88,
      "chip": "ym2612"
    },
    {
      "channel": 0,
      "note": 64,
      "start": 18.1953,
      "duration": 0.0995,
      "velocity": 97,
      "chip": "ym2612"
    },
    {
      "channel": 1,
      "note": 64,
      "start": 18.1958,
      "duration": 0.0995,
      "velocity": 88,
      "chip": "ym2612"
    },
    {
      "channel": 2,
      "note": 64,
      "start": 18.1963,
      "duration": 0.2996,
      "velocity": 102,
      "chip": "ym2612"
    },
    {
      "channel": 3,
      "note": 64,
      "start": 18.1967,
      "duration": 0.2997,
      "velocity": 102,
      "chip": "ym2612"
    },
    {
      "channel": 0,
      "note": 76,
      "start": 18.2953,
      "duration": 0.0995,
      "velocity": 97,
      "chip": "ym2612"
    },
    {
      "channel": 1,
      "note": 76,
      "start": 18.2958,
      "duration": 0.0995,
      "velocity": 88,
      "chip": "ym2612"
    },
    {
      "channel": 0,
      "note": 76,
      "start": 18.3953,
      "duration": 0.0996,
      "velocity": 97,
      "chip": "ym2612"
    },
    {
      "channel": 1,
      "note": 76,
      "start": 18.3957,
      "duration": 0.0997,
      "velocity": 88,
      "chip": "ym2612"
    },
    {
      "channel": 0,
      "note": 63,
      "start": 18.4953,
      "duration": 0.0995,
      "velocity": 97,
      "chip": "ym2612"
    },
    {
      "channel": 1,
      "note": 63,
      "start": 18.4958,
      "duration": 0.0995,
      "velocity": 88,
      "chip": "ym2612"
    },
    {
      "channel": 2,
      "note": 63,
      "start": 18.4963,
      "duration": 0.2996,
      "velocity": 102,
      "chip": "ym2612"
    },
    {
      "channel": 3,
      "note": 63,
      "start": 18.4967,
      "duration": 0.2997,
      "velocity": 102,
      "chip": "ym2612"
    },
    {
      "channel": 0,
      "note": 75,
      "start": 18.5953,
      "duration": 0.0995,
      "velocity": 97,
      "chip": "ym2612"
    },
    {
      "channel": 1,
      "note": 75,
      "start": 18.5958,
      "duration": 0.0995,
      "velocity": 88,
      "chip": "ym2612"
    },
    {
      "channel": 0,
      "note": 75,
      "start": 18.6953,
      "duration": 0.0996,
      "velocity": 97,
      "chip": "ym2612"
    },
    {
      "channel": 1,
      "note": 75,
      "start": 18.6957,
      "duration": 0.0997,
      "velocity": 88,
      "chip": "ym2612"
    },
    {
      "channel": 0,
      "note": 62,
      "start": 18.7953,
      "duration": 0.0995,
      "velocity": 97,
      "chip": "ym2612"
    },
    {
      "channel": 1,
      "note": 62,
      "start": 18.7958,
      "duration": 0.0995,
      "velocity": 88,
      "chip": "ym2612"
    },
    {
      "channel": 2,
      "note": 62,
      "start": 18.7963,
      "duration": 0.1996,
      "velocity": 102,
      "chip": "ym2612"
    },
    {
      "channel": 3,
      "note": 62,
      "start": 18.7967,
      "duration": 0.1997,
      "velocity": 102,
      "chip": "ym2612"
    },
    {
      "channel": 0,
      "note": 74,
      "start": 18.8953,
      "duration": 0.0995,
      "velocity": 97,
      "chip": "ym2612"
    },
    {
      "channel": 1,
      "note": 74,
      "start": 18.8958,
      "duration": 0.0995,
      "velocity": 88,
      "chip": "ym2612"
    },
    {
      "channel": 0,
      "note": 61,
      "start": 18.9953,
      "duration": 0.0995,
      "velocity": 97,
      "chip": "ym2612"
    },
    {
      "channel": 1,
      "note": 61,
      "start": 18.9958,
      "duration": 0.0995,
      "velocity": 88,
      "chip": "ym2612"
    },
    {
      "channel": 2,
      "note": 61,
      "start": 18.9963,
      "duration": 0.1999,
      "velocity": 102,
      "chip": "ym2612"
    },
    {
      "channel": 3,
      "note": 61,
      "start": 18.9967,
      "duration": 0.2001,
      "velocity": 102,
      "chip": "ym2612"
    },
    {
      "channel": 0,
      "note": 73,
      "start": 19.0953,
      "duration": 0.0995,
      "velocity": 97,
      "chip": "ym2612"
    },
    {
      "channel": 1,
      "note": 73,
      "start": 19.0958,
      "duration": 0.0997,
      "velocity": 88,
      "chip": "ym2612"
    },
    {
      "channel": 0,
      "note": 60,
      "start": 19.1954,
      "duration": 0.0994,
      "velocity": 97,
      "chip": "ym2612"
    },
    {
      "channel": 1,
      "note": 60,
      "start": 19.1961,
      "duration": 0.0993,
      "velocity": 88,
      "chip": "ym2612"
    },
    {
      "channel": 2,
      "note": 60,
      "start": 19.1967,
      "duration": 0.0991,
      "velocity": 102,
      "chip": "ym2612"
    },
    {
      "channel": 3,
      "note": 60,
      "start": 19.1973,
      "duration": 0.0989,
      "velocity": 102,
      "chip": "ym2612"
    },
    {
      "channel": 0,
      "note": 60,
      "start": 19.2953,
      "duration": 0.0969,
      "velocity": 97,
      "chip": "ym2612"
    },
    {
      "channel": 1,
      "note": 60,
      "start": 19.2957,
      "duration": 0.0965,
      "velocity": 88,
      "chip": "ym2612"
    },
    {
      "channel": 2,
      "note": 60,
      "start": 19.2961,
      "duration": 0.096,
      "velocity": 102,
      "chip": "ym2612"
    },
    {
      "channel": 3,
      "note": 60,
      "start": 19.2966,
      "duration": 0.0955,
      "velocity": 102,
      "chip": "ym2612"
    }
  ]
}