{
  "track_name": "04 - Theme of Jeffry",
  "duration_sec": 98.917,
  "sample_rate": 44100,
  "note_count": 72,
  "unique_pitches": 19,
  "pitch_range": 34,
  "avg_note_duration": 8.2342,
  "reconstruction_stats": {
    "notes_reconstructed": 72,
    "keyon_events": 72,
    "keyoff_events": 66,
    "orphan_keyons": 6,
    "unique_pitches": 19,
    "pitch_range": 34,
    "avg_duration_sec": 8.2342
  },
  "metadata": {
    "source": "V\\Virtua Fighter\\04 - Theme of Jeffry.vgz"
  },
  "notes": [
    {
      "channel": 0,
      "note": 42,
      "start": 0.0009,
      "duration": 0.3991,
      "velocity": 95,
      "chip": "ym2612"
    },
    {
      "channel": 1,
      "note": 66,
      "start": 0.0019,
      "duration": 0.4316,
      "velocity": 121,
      "chip": "ym2612"
    },
    {
      "channel": 2,
      "note": 54,
      "start": 0.003,
      "duration": 0.4307,
      "velocity": 121,
      "chip": "ym2612"
    },
    {
      "channel": 3,
      "note": 66,
      "start": 0.0042,
      "duration": 0.4128,
      "velocity": 107,
      "chip": "ym2612"
    },
    {
      "channel": 4,
      "note": 69,
      "start": 0.0054,
      "duration": 0.4117,
      "velocity": 107,
      "chip": "ym2612"
    },
    {
      "channel": 5,
      "note": 54,
      "start": 0.0066,
      "duration": 0.4107,
      "velocity": 121,
      "chip": "ym2612"
    },
    {
      "channel": 0,
      "note": 45,
      "start": 0.4334,
      "duration": 1.1165,
      "velocity": 95,
      "chip": "ym2612"
    },
    {
      "channel": 1,
      "note": 69,
      "start": 0.4337,
      "duration": 1.1165,
      "velocity": 121,
      "chip": "ym2612"
    },
    {
      "channel": 2,
      "note": 57,
      "start": 0.4339,
      "duration": 1.1165,
      "velocity": 121,
      "chip": "ym2612"
    },
    {
      "channel": 3,
      "note": 69,
      "start": 0.4341,
      "duration": 1.1165,
      "velocity": 107,
      "chip": "ym2612"
    },
    {
      "channel": 4,
      "note": 73,
      "start": 0.4344,
      "duration": 1.1165,
      "velocity": 107,
      "chip": "ym2612"
    },
    {
      "channel": 5,
      "note": 57,
      "start": 0.4346,
      "duration": 1.1165,
      "velocity": 121,
      "chip": "ym2612"
    },
    {
      "channel": 0,
      "note": 44,
      "start": 1.5501,
      "duration": 0.6665,
      "velocity": 95,
      "chip": "ym2612"
    },
    {
      "channel": 1,
      "note": 68,
      "start": 1.5503,
      "duration": 0.6665,
      "velocity": 121,
      "chip": "ym2612"
    },
    {
      "channel": 2,
      "note": 56,
      "start": 1.5506,
      "duration": 0.6664,
      "velocity": 121,
      "chip": "ym2612"
    },
    {
      "channel": 3,
      "note": 68,
      "start": 1.5508,
      "duration": 0.6664,
      "velocity": 107,
      "chip": "ym2612"
    },
    {
      "channel": 4,
      "note": 71,
      "start": 1.551,
      "duration": 0.6664,
      "velocity": 107,
      "chip": "ym2612"
    },
    {
      "channel": 5,
      "note": 56,
      "start": 1.5513,
      "duration": 0.6664,
      "velocity": 121,
      "chip": "ym2612"
    },
    {
      "channel": 0,
      "note": 40,
      "start": 2.2167,
      "duration": 1.0499,
      "velocity": 95,
      "chip": "ym2612"
    },
    {
      "channel": 1,
      "note": 64,
      "start": 2.2169,
      "duration": 1.1165,
      "velocity": 121,
      "chip": "ym2612"
    },
    {
      "channel": 2,
      "note": 52,
      "start": 2.2172,
      "duration": 1.1165,
      "velocity": 121,
      "chip": "ym2612"
    },
    {
      "channel": 3,
      "note": 64,
      "start": 2.2174,
      "duration": 0.983,
      "velocity": 107,
      "chip": "ym2612"
    },
    {
      "channel": 4,
      "note": 68,
      "start": 2.2176,
      "duration": 0.9663,
      "velocity": 107,
      "chip": "ym2612"
    },
    {
      "channel": 5,
      "note": 52,
      "start": 2.2178,
      "duration": 1.1165,
      "velocity": 121,
      "chip": "ym2612"
    },
    {
      "channel": 0,
      "note": 42,
      "start": 3.3334,
      "duration": 0.0832,
      "velocity": 95,
      "chip": "ym2612"
    },
    {
      "channel": 1,
      "note": 66,
      "start": 3.3336,
      "duration": 0.6666,
      "velocity": 121,
      "chip": "ym2612"
    },
    {
      "channel": 2,
      "note": 54,
      "start": 3.3338,
      "duration": 0.6666,
      "velocity": 121,
      "chip": "ym2612"
    },
    {
      "channel": 3,
      "note": 66,
      "start": 3.334,
      "duration": 0.1164,
      "velocity": 107,
      "chip": "ym2612"
    },
    {
      "channel": 4,
      "note": 69,
      "start": 3.3343,
      "duration": 0.0997,
      "velocity": 107,
      "chip": "ym2612"
    },
    {
      "channel": 5,
      "note": 54,
      "start": 3.3345,
      "duration": 0.6666,
      "velocity": 121,
      "chip": "ym2612"
    },
    {
      "channel": 0,
      "note": 40,
      "start": 3.4501,
      "duration": 0.0665,
      "velocity": 95,
      "chip": "ym2612"
    },
    {
      "channel": 3,
      "note": 64,
      "start": 3.4506,
      "duration": 0.1,
      "velocity": 107,
      "chip": "ym2612"
    },
    {
      "channel": 4,
      "note": 68,
      "start": 3.4508,
      "duration": 0.1,
      "velocity": 107,
      "chip": "ym2612"
    },
    {
      "channel": 0,
      "note": 42,
      "start": 3.5501,
      "duration": 0.4499,
      "velocity": 95,
      "chip": "ym2612"
    },
    {
      "channel": 3,
      "note": 66,
      "start": 3.5507,
      "duration": 0.45,
      "velocity": 107,
      "chip": "ym2612"
    },
    {
      "channel": 4,
      "note": 69,
      "start": 3.551,
      "duration": 0.4499,
      "velocity": 107,
      "chip": "ym2612"
    },
    {
      "channel": 0,
      "note": 45,
      "start": 4.0001,
      "duration": 1.1165,
      "velocity": 95,
      "chip": "ym2612"
    },
    {
      "channel": 1,
      "note": 69,
      "start": 4.0003,
      "duration": 1.1165,
      "velocity": 121,
      "chip": "ym2612"
    },
    {
      "channel": 2,
      "note": 57,
      "start": 4.0006,
      "duration": 1.1165,
      "velocity": 121,
      "chip": "ym2612"
    },
    {
      "channel": 3,
      "note": 69,
      "start": 4.0008,
      "duration": 1.1165,
      "velocity": 107,
      "chip": "ym2612"
    },
    {
      "channel": 4,
      "note": 73,
      "start": 4.001,
      "duration": 1.0995,
      "velocity": 107,
      "chip": "ym2612"
    },
    {
      "channel": 5,
      "note": 57,
      "start": 4.0013,
      "duration": 1.1165,
      "velocity": 121,
      "chip": "ym2612"
    },
    {
      "channel": 0,
      "note": 44,
      "start": 5.1168,
      "duration": 0.6665,
      "velocity": 95,
      "chip": "ym2612"
    },
    {
      "channel": 1,
      "note": 68,
      "start": 5.117,
      "duration": 0.6665,
      "velocity": 121,
      "chip": "ym2612"
    },
    {
      "channel": 2,
      "note": 56,
      "start": 5.1172,
      "duration": 0.6665,
      "velocity": 121,
      "chip": "ym2612"
    },
    {
      "channel": 3,
      "note": 68,
      "start": 5.1175,
      "duration": 0.6665,
      "velocity": 107,
      "chip": "ym2612"
    },
    {
      "channel": 4,
      "note": 71,
      "start": 5.1177,
      "duration": 0.6495,
      "velocity": 107,
      "chip": "ym2612"
    },
    {
      "channel": 5,
      "note": 56,
      "start": 5.1179,
      "duration": 0.6665,
      "velocity": 121,
      "chip": "ym2612"
    },
    {
      "channel": 0,
      "note": 47,
      "start": 5.7834,
      "duration": 1.1165,
      "velocity": 95,
      "chip": "ym2612"
    },
    {
      "channel": 1,
      "note": 71,
      "start": 5.7837,
      "duration": 1.0997,
      "velocity": 121,
      "chip": "ym2612"
    },
    {
      "channel": 2,
      "note": 59,
      "start": 5.7839,
      "duration": 1.0996,
      "velocity": 121,
      "chip": "ym2612"
    },
    {
      "channel": 3,
      "note": 71,
      "start": 5.7841,
      "duration": 1.1164,
      "velocity": 107,
      "chip": "ym2612"
    },
    {
      "channel": 4,
      "note": 74,
      "start": 5.7844,
      "duration": 1.1164,
      "velocity": 107,
      "chip": "ym2612"
    },
    {
      "channel": 5,
      "note": 59,
      "start": 5.7846,
      "duration": 1.0995,
      "velocity": 121,
      "chip": "ym2612"
    },
    {
      "channel": 0,
      "note": 45,
      "start": 6.9001,
      "duration": 0.6665,
      "velocity": 95,
      "chip": "ym2612"
    },
    {
      "channel": 1,
      "note": 69,
      "start": 6.9003,
      "duration": 0.6665,
      "velocity": 121,
      "chip": "ym2612"
    },
    {
      "channel": 2,
      "note": 57,
      "start": 6.9005,
      "duration": 0.6665,
      "velocity": 121,
      "chip": "ym2612"
    },
    {
      "channel": 3,
      "note": 69,
      "start": 6.9007,
      "duration": 0.6665,
      "velocity": 107,
      "chip": "ym2612"
    },
    {
      "channel": 4,
      "note": 73,
      "start": 6.9009,
      "duration": 0.6665,
      "velocity": 107,
      "chip": "ym2612"
    },
    {
      "channel": 5,
      "note": 57,
      "start": 6.9011,
      "duration": 0.6665,
      "velocity": 121,
      "chip": "ym2612"
    },
    {
      "channel": 0,
      "note": 49,
      "start": 7.5667,
      "duration": 1.3332,
      "velocity": 95,
      "chip": "ym2612"
    },
    {
      "channel": 1,
      "note": 73,
      "start": 7.5669,
      "duration": 1.3332,
      "velocity": 121,
      "chip": "ym2612"
    },
    {
      "channel": 2,
      "note": 61,
      "start": 7.5672,
      "duration": 1.3333,
      "velocity": 121,
      "chip": "ym2612"
    },
    {
      "channel": 3,
      "note": 73,
      "start": 7.5674,
      "duration": 1.3333,
      "velocity": 107,
      "chip": "ym2612"
    },
    {
      "channel": 4,
      "note": 73,
      "start": 7.5676,
      "duration": 1.3333,
      "velocity": 107,
      "chip": "ym2612"
    },
    {
      "channel": 5,
      "note": 61,
      "start": 7.5678,
      "duration": 1.3334,
      "velocity": 121,
      "chip": "ym2612"
    },
    {
      "channel": 0,
      "note": 42,
      "start": 8.9001,
      "duration": 90.0165,
      "velocity": 95,
      "chip": "ym2612"
    },
    {
      "channel": 1,
      "note": 66,
      "start": 8.9003,
      "duration": 90.0163,
      "velocity": 121,
      "chip": "ym2612"
    },
    {
      "channel": 2,
      "note": 54,
      "start": 8.9006,
      "duration": 90.016,
      "velocity": 121,
      "chip": "ym2612"
    },
    {
      "channel": 3,
      "note": 66,
      "start": 8.9008,
      "duration": 90.0158,
      "velocity": 107,
      "chip": "ym2612"
    },
    {
      "channel": 4,
      "note": 66,
      "start": 8.9011,
      "duration": 90.0155,
      "velocity": 107,
      "chip": "ym2612"
    },
    {
      "channel": 5,
      "note": 54,
      "start": 8.9013,
      "duration": 90.0153,
      "velocity": 121,
      "chip": "ym2612"
    }
  ]
}