{
  "track_name": "04 - Section 4",
  "duration_sec": 24.884,
  "sample_rate": 44100,
  "note_count": 490,
  "unique_pitches": 31,
  "pitch_range": 41,
  "avg_note_duration": 0.1088,
  "reconstruction_stats": {
    "notes_reconstructed": 490,
    "keyon_events": 490,
    "keyoff_events": 487,
    "orphan_keyons": 2,
    "unique_pitches": 31,
    "pitch_range": 41,
    "avg_duration_sec": 0.1088
  },
  "metadata": {
    "source": "S\\Slap Fight MD\\04 - Section 4.vgz"
  },
  "notes": [
    {
      "channel": 0,
      "note": 58,
      "start": 0.0,
      "duration": 0.0073,
      "velocity": 91,
      "chip": "ym2612"
    },
    {
      "channel": 2,
      "note": 57,
      "start": 0.0026,
      "duration": 0.0057,
      "velocity": 113,
      "chip": "ym2612"
    },
    {
      "channel": 0,
      "note": 70,
      "start": 0.0082,
      "duration": 0.0918,
      "velocity": 91,
      "chip": "ym2612"
    },
    {
      "channel": 0,
      "note": 58,
      "start": 0.1327,
      "duration": 0.0043,
      "velocity": 91,
      "chip": "ym2612"
    },
    {
      "channel": 2,
      "note": 57,
      "start": 0.1341,
      "duration": 0.0042,
      "velocity": 127,
      "chip": "ym2612"
    },
    {
      "channel": 0,
      "note": 70,
      "start": 0.1381,
      "duration": 0.0052,
      "velocity": 91,
      "chip": "ym2612"
    },
    {
      "channel": 2,
      "note": 78,
      "start": 0.1399,
      "duration": 0.0045,
      "velocity": 127,
      "chip": "ym2612"
    },
    {
      "channel": 0,
      "note": 58,
      "start": 0.1443,
      "duration": 0.0035,
      "velocity": 91,
      "chip": "ym2612"
    },
    {
      "channel": 2,
      "note": 78,
      "start": 0.1446,
      "duration": 0.0043,
      "velocity": 127,
      "chip": "ym2612"
    },
    {
      "channel": 0,
      "note": 70,
      "start": 0.1488,
      "duration": 0.0037,
      "velocity": 91,
      "chip": "ym2612"
    },
    {
      "channel": 2,
      "note": 78,
      "start": 0.149,
      "duration": 0.0044,
      "velocity": 127,
      "chip": "ym2612"
    },
    {
      "channel": 0,
      "note": 58,
      "start": 0.1533,
      "duration": 0.0032,
      "velocity": 91,
      "chip": "ym2612"
    },
    {
      "channel": 2,
      "note": 74,
      "start": 0.1538,
      "duration": 0.0036,
      "velocity": 127,
      "chip": "ym2612"
    },
    {
      "channel": 0,
      "note": 70,
      "start": 0.1573,
      "duration": 0.0033,
      "velocity": 91,
      "chip": "ym2612"
    },
    {
      "channel": 2,
      "note": 74,
      "start": 0.1576,
      "duration": 0.0042,
      "velocity": 127,
      "chip": "ym2612"
    },
    {
      "channel": 0,
      "note": 58,
      "start": 0.1615,
      "duration": 0.0054,
      "velocity": 91,
      "chip": "ym2612"
    },
    {
      "channel": 1,
      "note": 76,
      "start": 0.1617,
      "duration": 0.0061,
      "velocity": 119,
      "chip": "ym2612"
    },
    {
      "channel": 2,
      "note": 57,
      "start": 0.1633,
      "duration": 0.0048,
      "velocity": 113,
      "chip": "ym2612"
    },
    {
      "channel": 4,
      "note": 76,
      "start": 0.1636,
      "duration": 0.0047,
      "velocity": 119,
      "chip": "ym2612"
    },
    {
      "channel": 0,
      "note": 70,
      "start": 0.1678,
      "duration": 0.1091,
      "velocity": 91,
      "chip": "ym2612"
    },
    {
      "channel": 1,
      "note": 79,
      "start": 0.168,
      "duration": 0.1258,
      "velocity": 119,
      "chip": "ym2612"
    },
    {
      "channel": 4,
      "note": 79,
      "start": 0.1685,
      "duration": 0.1269,
      "velocity": 119,
      "chip": "ym2612"
    },
    {
      "channel": 0,
      "note": 58,
      "start": 0.2938,
      "duration": 0.005,
      "velocity": 91,
      "chip": "ym2612"
    },
    {
      "channel": 1,
      "note": 84,
      "start": 0.2941,
      "duration": 0.0055,
      "velocity": 119,
      "chip": "ym2612"
    },
    {
      "channel": 2,
      "note": 57,
      "start": 0.2954,
      "duration": 0.0045,
      "velocity": 127,
      "chip": "ym2612"
    },
    {
      "channel": 4,
      "note": 84,
      "start": 0.2957,
      "duration": 0.0043,
      "velocity": 119,
      "chip": "ym2612"
    },
    {
      "channel": 0,
      "note": 70,
      "start": 0.2995,
      "duration": 0.0031,
      "velocity": 91,
      "chip": "ym2612"
    },
    {
      "channel": 1,
      "note": 76,
      "start": 0.2998,
      "duration": 0.0038,
      "velocity": 119,
      "chip": "ym2612"
    },
    {
      "channel": 4,
      "note": 76,
      "start": 0.3002,
      "duration": 0.0052,
      "velocity": 119,
      "chip": "ym2612"
    },
    {
      "channel": 0,
      "note": 58,
      "start": 0.3035,
      "duration": 0.0057,
      "velocity": 91,
      "chip": "ym2612"
    },
    {
      "channel": 1,
      "note": 79,
      "start": 0.3037,
      "duration": 0.0064,
      "velocity": 119,
      "chip": "ym2612"
    },
    {
      "channel": 2,
      "note": 57,
      "start": 0.3053,
      "duration": 0.005,
      "velocity": 113,
      "chip": "ym2612"
    },
    {
      "channel": 4,
      "note": 79,
      "start": 0.3056,
      "duration": 0.005,
      "velocity": 119,
      "chip": "ym2612"
    },
    {
      "channel": 0,
      "note": 70,
      "start": 0.31,
      "duration": 0.0939,
      "velocity": 91,
      "chip": "ym2612"
    },
    {
      "channel": 1,
      "note": 84,
      "start": 0.3103,
      "duration": 0.1273,
      "velocity": 119,
      "chip": "ym2612"
    },
    {
      "channel": 4,
      "note": 84,
      "start": 0.3108,
      "duration": 0.1283,
      "velocity": 119,
      "chip": "ym2612"
    },
    {
      "channel": 0,
      "note": 58,
      "start": 0.4375,
      "duration": 0.0051,
      "velocity": 91,
      "chip": "ym2612"
    },
    {
      "channel": 1,
      "note": 76,
      "start": 0.4378,
      "duration": 0.0055,
      "velocity": 119,
      "chip": "ym2612"
    },
    {
      "channel": 2,
      "note": 57,
      "start": 0.4391,
      "duration": 0.0045,
      "velocity": 127,
      "chip": "ym2612"
    },
    {
      "channel": 4,
      "note": 76,
      "start": 0.4394,
      "duration": 0.0044,
      "velocity": 119,
      "chip": "ym2612"
    },
    {
      "channel": 0,
      "note": 70,
      "start": 0.4433,
      "duration": 0.0031,
      "velocity": 91,
      "chip": "ym2612"
    },
    {
      "channel": 1,
      "note": 79,
      "start": 0.4435,
      "duration": 0.0038,
      "velocity": 119,
      "chip": "ym2612"
    },
    {
      "channel": 4,
      "note": 79,
      "start": 0.4439,
      "duration": 0.0053,
      "velocity": 119,
      "chip": "ym2612"
    },
    {
      "channel": 0,
      "note": 57,
      "start": 0.4472,
      "duration": 0.006,
      "velocity": 91,
      "chip": "ym2612"
    },
    {
      "channel": 1,
      "note": 78,
      "start": 0.4474,
      "duration": 0.0066,
      "velocity": 119,
      "chip": "ym2612"
    },
    {
      "channel": 2,
      "note": 57,
      "start": 0.4491,
      "duration": 0.0052,
      "velocity": 113,
      "chip": "ym2612"
    },
    {
      "channel": 4,
      "note": 78,
      "start": 0.4495,
      "duration": 0.0049,
      "velocity": 119,
      "chip": "ym2612"
    },
    {
      "channel": 0,
      "note": 69,
      "start": 0.454,
      "duration": 0.0936,
      "velocity": 91,
      "chip": "ym2612"
    },
    {
      "channel": 1,
      "note": 81,
      "start": 0.4542,
      "duration": 0.1104,
      "velocity": 119,
      "chip": "ym2612"
    },
    {
      "channel": 4,
      "note": 81,
      "start": 0.4545,
      "duration": 0.1116,
      "velocity": 119,
      "chip": "ym2612"
    },
    {
      "channel": 0,
      "note": 57,
      "start": 0.5645,
      "duration": 0.0049,
      "velocity": 91,
      "chip": "ym2612"
    },
    {
      "channel": 1,
      "note": 86,
      "start": 0.5648,
      "duration": 0.0055,
      "velocity": 119,
      "chip": "ym2612"
    },
    {
      "channel": 2,
      "note": 57,
      "start": 0.5661,
      "duration": 0.0045,
      "velocity": 127,
      "chip": "ym2612"
    },
    {
      "channel": 4,
      "note": 86,
      "start": 0.5664,
      "duration": 0.0046,
      "velocity": 119,
      "chip": "ym2612"
    },
    {
      "channel": 0,
      "note": 69,
      "start": 0.5702,
      "duration": 0.0047,
      "velocity": 91,
      "chip": "ym2612"
    },
    {
      "channel": 1,
      "note": 78,
      "start": 0.5705,
      "duration": 0.0056,
      "velocity": 119,
      "chip": "ym2612"
    },
    {
      "channel": 4,
      "note": 78,
      "start": 0.5712,
      "duration": 0.0066,
      "velocity": 119,
      "chip": "ym2612"
    },
    {
      "channel": 0,
      "note": 57,
      "start": 0.576,
      "duration": 0.0057,
      "velocity": 91,
      "chip": "ym2612"
    },
    {
      "channel": 1,
      "note": 81,
      "start": 0.5763,
      "duration": 0.0064,
      "velocity": 119,
      "chip": "ym2612"
    },
    {
      "channel": 2,
      "note": 57,
      "start": 0.5777,
      "duration": 0.0053,
      "velocity": 113,
      "chip": "ym2612"
    },
    {
      "channel": 4,
      "note": 81,
      "start": 0.5781,
      "duration": 0.0052,
      "velocity": 119,
      "chip": "ym2612"
    },
    {
      "channel": 0,
      "note": 69,
      "start": 0.5826,
      "duration": 0.0044,
      "velocity": 91,
      "chip": "ym2612"
    },
    {
      "channel": 1,
      "note": 86,
      "start": 0.583,
      "duration": 0.005,
      "velocity": 119,
      "chip": "ym2612"
    },
    {
      "channel": 4,
      "note": 86,
      "start": 0.5836,
      "duration": 0.0061,
      "velocity": 119,
      "chip": "ym2612"
    },
    {
      "channel": 0,
      "note": 57,
      "start": 0.588,
      "duration": 0.0049,
      "velocity": 91,
      "chip": "ym2612"
    },
    {
      "channel": 1,
      "note": 78,
      "start": 0.5882,
      "duration": 0.0056,
      "velocity": 119,
      "chip": "ym2612"
    },
    {
      "channel": 2,
      "note": 57,
      "start": 0.5896,
      "duration": 0.0044,
      "velocity": 127,
      "chip": "ym2612"
    },
    {
      "channel": 4,
      "note": 78,
      "start": 0.5898,
      "duration": 0.0044,
      "velocity": 119,
      "chip": "ym2612"
    },
    {
      "channel": 0,
      "note": 69,
      "start": 0.5937,
      "duration": 0.0039,
      "velocity": 91,
      "chip": "ym2612"
    },
    {
      "channel": 1,
      "note": 81,
      "start": 0.5939,
      "duration": 0.0047,
      "velocity": 119,
      "chip": "ym2612"
    },
    {
      "channel": 4,
      "note": 81,
      "start": 0.5943,
      "duration": 0.0065,
      "velocity": 119,
      "chip": "ym2612"
    },
    {
      "channel": 0,
      "note": 56,
      "start": 0.5985,
      "duration": 0.0063,
      "velocity": 91,
      "chip": "ym2612"
    },
    {
      "channel": 1,
      "note": 80,
      "start": 0.5989,
      "duration": 0.0069,
      "velocity": 119,
      "chip": "ym2612"
    },
    {
      "channel": 2,
      "note": 57,
      "start": 0.6008,
      "duration": 0.0054,
      "velocity": 113,
      "chip": "ym2612"
    },
    {
      "channel": 4,
      "note": 80,
      "start": 0.6012,
      "duration": 0.0052,
      "velocity": 119,
      "chip": "ym2612"
    },
    {
      "channel": 0,
      "note": 68,
      "start": 0.6058,
      "duration": 0.0936,
      "velocity": 91,
      "chip": "ym2612"
    },
    {
      "channel": 1,
      "note": 83,
      "start": 0.606,
      "duration": 0.1112,
      "velocity": 119,
      "chip": "ym2612"
    },
    {
      "channel": 4,
      "note": 83,
      "start": 0.6065,
      "duration": 0.1123,
      "velocity": 119,
      "chip": "ym2612"
    },
    {
      "channel": 0,
      "note": 56,
      "start": 0.7172,
      "duration": 0.0046,
      "velocity": 91,
      "chip": "ym2612"
    },
    {
      "channel": 1,
      "note": 88,
      "start": 0.7174,
      "duration": 0.0052,
      "velocity": 119,
      "chip": "ym2612"
    },
    {
      "channel": 2,
      "note": 57,
      "start": 0.7187,
      "duration": 0.0042,
      "velocity": 127,
      "chip": "ym2612"
    },
    {
      "channel": 4,
      "note": 88,
      "start": 0.719,
      "duration": 0.004,
      "velocity": 119,
      "chip": "ym2612"
    },
    {
      "channel": 0,
      "note": 68,
      "start": 0.7226,
      "duration": 0.0034,
      "velocity": 91,
      "chip": "ym2612"
    },
    {
      "channel": 1,
      "note": 80,
      "start": 0.7228,
      "duration": 0.0039,
      "velocity": 119,
      "chip": "ym2612"
    },
    {
      "channel": 4,
      "note": 80,
      "start": 0.7233,
      "duration": 0.005,
      "velocity": 119,
      "chip": "ym2612"
    },
    {
      "channel": 0,
      "note": 56,
      "start": 0.7267,
      "duration": 0.0049,
      "velocity": 91,
      "chip": "ym2612"
    },
    {
      "channel": 1,
      "note": 83,
      "start": 0.7269,
      "duration": 0.0056,
      "velocity": 119,
      "chip": "ym2612"
    },
    {
      "channel": 2,
      "note": 57,
      "start": 0.7282,
      "duration": 0.0045,
      "velocity": 113,
      "chip": "ym2612"
    },
    {
      "channel": 4,
      "note": 83,
      "start": 0.7285,
      "duration": 0.0044,
      "velocity": 119,
      "chip": "ym2612"
    },
    {
      "channel": 0,
      "note": 68,
      "start": 0.7325,
      "duration": 0.0939,
      "velocity": 91,
      "chip": "ym2612"
    },
    {
      "channel": 1,
      "note": 88,
      "start": 0.7326,
      "duration": 0.1274,
      "velocity": 119,
      "chip": "ym2612"
    },
    {
      "channel": 4,
      "note": 88,
      "start": 0.7329,
      "duration": 0.1286,
      "velocity": 119,
      "chip": "ym2612"
    },
    {
      "channel": 0,
      "note": 56,
      "start": 0.8599,
      "duration": 0.0049,
      "velocity": 91,
      "chip": "ym2612"
    },
    {
      "channel": 1,
      "note": 80,
      "start": 0.8602,
      "duration": 0.0056,
      "velocity": 119,
      "chip": "ym2612"
    },
    {
      "channel": 2,
      "note": 57,
      "start": 0.8615,
      "duration": 0.0046,
      "velocity": 127,
      "chip": "ym2612"
    },
    {
      "channel": 4,
      "note": 80,
      "start": 0.8618,
      "duration": 0.0044,
      "velocity": 119,
      "chip": "ym2612"
    },
    {
      "channel": 0,
      "note": 68,
      "start": 0.8657,
      "duration": 0.0033,
      "velocity": 91,
      "chip": "ym2612"
    },
    {
      "channel": 1,
      "note": 83,
      "start": 0.866,
      "duration": 0.004,
      "velocity": 119,
      "chip": "ym2612"
    },
    {
      "channel": 4,
      "note": 83,
      "start": 0.8663,
      "duration": 0.0057,
      "velocity": 119,
      "chip": "ym2612"
    },
    {
      "channel": 0,
      "note": 54,
      "start": 0.8699,
      "duration": 0.006,
      "velocity": 91,
      "chip": "ym2612"
    },
    {
      "channel": 1,
      "note": 81,
      "start": 0.8702,
      "duration": 0.0068,
      "velocity": 119,
      "chip": "ym2612"
    },
    {
      "channel": 2,
      "note": 57,
      "start": 0.872,
      "duration": 0.0053,
      "velocity": 113,
      "chip": "ym2612"
    },
    {
      "channel": 4,
      "note": 81,
      "start": 0.8722,
      "duration": 0.0052,
      "velocity": 119,
      "chip": "ym2612"
    },
    {
      "channel": 0,
      "note": 66,
      "start": 0.8769,
      "duration": 0.0938,
      "velocity": 91,
      "chip": "ym2612"
    },
    {
      "channel": 1,
      "note": 85,
      "start": 0.8772,
      "duration": 0.1113,
      "velocity": 119,
      "chip": "ym2612"
    },
    {
      "channel": 4,
      "note": 85,
      "start": 0.8775,
      "duration": 0.1126,
      "velocity": 119,
      "chip": "ym2612"
    },
    {
      "channel": 0,
      "note": 54,
      "start": 0.9884,
      "duration": 0.005,
      "velocity": 91,
      "chip": "ym2612"
    },
    {
      "channel": 1,
      "note": 90,
      "start": 0.9887,
      "duration": 0.0057,
      "velocity": 119,
      "chip": "ym2612"
    },
    {
      "channel": 2,
      "note": 57,
      "start": 0.99,
      "duration": 0.0046,
      "velocity": 127,
      "chip": "ym2612"
    },
    {
      "channel": 4,
      "note": 90,
      "start": 0.9903,
      "duration": 0.0057,
      "velocity": 119,
      "chip": "ym2612"
    },
    {
      "channel": 0,
      "note": 66,
      "start": 0.9943,
      "duration": 0.0057,
      "velocity": 91,
      "chip": "ym2612"
    },
    {
      "channel": 1,
      "note": 81,
      "start": 0.9945,
      "duration": 0.0065,
      "velocity": 119,
      "chip": "ym2612"
    },
    {
      "channel": 2,
      "note": 78,
      "start": 0.9959,
      "duration": 0.0053,
      "velocity": 127,
      "chip": "ym2612"
    },
    {
      "channel": 4,
      "note": 81,
      "start": 0.9962,
      "duration": 0.0053,
      "velocity": 119,
      "chip": "ym2612"
    },
    {
      "channel": 0,
      "note": 54,
      "start": 1.001,
      "duration": 0.0041,
      "velocity": 91,
      "chip": "ym2612"
    },
    {
      "channel": 1,
      "note": 85,
      "start": 1.0012,
      "duration": 0.005,
      "velocity": 119,
      "chip": "ym2612"
    },
    {
      "channel": 2,
      "note": 78,
      "start": 1.0015,
      "duration": 0.0049,
      "velocity": 127,
      "chip": "ym2612"
    },
    {
      "channel": 4,
      "note": 85,
      "start": 1.0017,
      "duration": 0.0049,
      "velocity": 119,
      "chip": "ym2612"
    },
    {
      "channel": 0,
      "note": 66,
      "start": 1.0061,
      "duration": 0.0044,
      "velocity": 91,
      "chip": "ym2612"
    },
    {
      "channel": 1,
      "note": 90,
      "start": 1.0063,
      "duration": 0.0053,
      "velocity": 119,
      "chip": "ym2612"
    },
    {
      "channel": 2,
      "note": 78,
      "start": 1.0066,
      "duration": 0.0053,
      "velocity": 127,
      "chip": "ym2612"
    },
    {
      "channel": 4,
      "note": 90,
      "start": 1.0069,
      "duration": 0.0054,
      "velocity": 119,
      "chip": "ym2612"
    },
    {
      "channel": 0,
      "note": 54,
      "start": 1.0116,
      "duration": 0.0039,
      "velocity": 91,
      "chip": "ym2612"
    },
    {
      "channel": 1,
      "note": 81,
      "start": 1.0118,
      "duration": 0.0049,
      "velocity": 119,
      "chip": "ym2612"
    },
    {
      "channel": 2,
      "note": 74,
      "start": 1.0121,
      "duration": 0.0049,
      "velocity": 127,
      "chip": "ym2612"
    },
    {
      "channel": 4,
      "note": 81,
      "start": 1.0124,
      "duration": 0.005,
      "velocity": 119,
      "chip": "ym2612"
    },
    {
      "channel": 0,
      "note": 66,
      "start": 1.0166,
      "duration": 0.0047,
      "velocity": 91,
      "chip": "ym2612"
    },
    {
      "channel": 1,
      "note": 85,
      "start": 1.0169,
      "duration": 0.0055,
      "velocity": 119,
      "chip": "ym2612"
    },
    {
      "channel": 2,
      "note": 74,
      "start": 1.0173,
      "duration": 0.0055,
      "velocity": 127,
      "chip": "ym2612"
    },
    {
      "channel": 4,
      "note": 85,
      "start": 1.0176,
      "duration": 0.0067,
      "velocity": 119,
      "chip": "ym2612"
    },
    {
      "channel": 0,
      "note": 59,
      "start": 1.0223,
      "duration": 0.0056,
      "velocity": 91,
      "chip": "ym2612"
    },
    {
      "channel": 1,
      "note": 71,
      "start": 1.0227,
      "duration": 0.0062,
      "velocity": 119,
      "chip": "ym2612"
    },
    {
      "channel": 2,
      "note": 57,
      "start": 1.0242,
      "duration": 0.0049,
      "velocity": 113,
      "chip": "ym2612"
    },
    {
      "channel": 4,
      "note": 71,
      "start": 1.0245,
      "duration": 0.0048,
      "velocity": 119,
      "chip": "ym2612"
    },
    {
      "channel": 0,
      "note": 71,
      "start": 1.0289,
      "duration": 0.0934,
      "velocity": 91,
      "chip": "ym2612"
    },
    {
      "channel": 1,
      "note": 74,
      "start": 1.0291,
      "duration": 0.1267,
      "velocity": 119,
      "chip": "ym2612"
    },
    {
      "channel": 4,
      "note": 74,
      "start": 1.0295,
      "duration": 0.1279,
      "velocity": 119,
      "chip": "ym2612"
    },
    {
      "channel": 0,
      "note": 59,
      "start": 1.1558,
      "duration": 0.0045,
      "velocity": 91,
      "chip": "ym2612"
    },
    {
      "channel": 1,
      "note": 78,
      "start": 1.156,
      "duration": 0.0052,
      "velocity": 119,
      "chip": "ym2612"
    },
    {
      "channel": 2,
      "note": 57,
      "start": 1.1573,
      "duration": 0.0041,
      "velocity": 127,
      "chip": "ym2612"
    },
    {
      "channel": 4,
      "note": 78,
      "start": 1.1576,
      "duration": 0.004,
      "velocity": 119,
      "chip": "ym2612"
    },
    {
      "channel": 0,
      "note": 71,
      "start": 1.1611,
      "duration": 0.0034,
      "velocity": 91,
      "chip": "ym2612"
    },
    {
      "channel": 1,
      "note": 81,
      "start": 1.1613,
      "duration": 0.0041,
      "velocity": 119,
      "chip": "ym2612"
    },
    {
      "channel": 4,
      "note": 81,
      "start": 1.1618,
      "duration": 0.0055,
      "velocity": 119,
      "chip": "ym2612"
    },
    {
      "channel": 0,
      "note": 52,
      "start": 1.1654,
      "duration": 0.0056,
      "velocity": 91,
      "chip": "ym2612"
    },
    {
      "channel": 1,
      "note": 80,
      "start": 1.1656,
      "duration": 0.1417,
      "velocity": 119,
      "chip": "ym2612"
    },
    {
      "channel": 2,
      "note": 57,
      "start": 1.1672,
      "duration": 0.0049,
      "velocity": 113,
      "chip": "ym2612"
    },
    {
      "channel": 4,
      "note": 71,
      "start": 1.1676,
      "duration": 0.0047,
      "velocity": 119,
      "chip": "ym2612"
    },
    {
      "channel": 0,
      "note": 64,
      "start": 1.172,
      "duration": 0.0936,
      "velocity": 91,
      "chip": "ym2612"
    },
    {
      "channel": 4,
      "note": 74,
      "start": 1.1724,
      "duration": 0.1273,
      "velocity": 119,
      "chip": "ym2612"
    },
    {
      "channel": 0,
      "note": 52,
      "start": 1.2982,
      "duration": 0.0044,
      "velocity": 91,
      "chip": "ym2612"
    },
    {
      "channel": 2,
      "note": 57,
      "start": 1.2995,
      "duration": 0.0039,
      "velocity": 127,
      "chip": "ym2612"
    },
    {
      "channel": 4,
      "note": 78,
      "start": 1.2999,
      "duration": 0.0038,
      "velocity": 119,
      "chip": "ym2612"
    },
    {
      "channel": 0,
      "note": 64,
      "start": 1.3034,
      "duration": 0.003,
      "velocity": 91,
      "chip": "ym2612"
    },
    {
      "channel": 4,
      "note": 81,
      "start": 1.3038,
      "duration": 0.0051,
      "velocity": 119,
      "chip": "ym2612"
    },
    {
      "channel": 0,
      "note": 59,
      "start": 1.3072,
      "duration": 0.0054,
      "velocity": 91,
      "chip": "ym2612"
    },
    {
      "channel": 1,
      "note": 71,
      "start": 1.3074,
      "duration": 0.0062,
      "velocity": 119,
      "chip": "ym2612"
    },
    {
      "channel": 2,
      "note": 57,
      "start": 1.3089,
      "duration": 0.005,
      "velocity": 113,
      "chip": "ym2612"
    },
    {
      "channel": 4,
      "note": 71,
      "start": 1.3091,
      "duration": 0.0049,
      "velocity": 119,
      "chip": "ym2612"
    },
    {
      "channel": 0,
      "note": 71,
      "start": 1.3136,
      "duration": 0.0936,
      "velocity": 91,
      "chip": "ym2612"
    },
    {
      "channel": 1,
      "note": 74,
      "start": 1.3138,
      "duration": 0.127,
      "velocity": 119,
      "chip": "ym2612"
    },
    {
      "channel": 4,
      "note": 74,
      "start": 1.3142,
      "duration": 0.1282,
      "velocity": 119,
      "chip": "ym2612"
    },
    {
      "channel": 0,
      "note": 59,
      "start": 1.4407,
      "duration": 0.0049,
      "velocity": 91,
      "chip": "ym2612"
    },
    {
      "channel": 1,
      "note": 78,
      "start": 1.441,
      "duration": 0.0055,
      "velocity": 119,
      "chip": "ym2612"
    },
    {
      "channel": 2,
      "note": 57,
      "start": 1.4423,
      "duration": 0.0045,
      "velocity": 127,
      "chip": "ym2612"
    },
    {
      "channel": 4,
      "note": 78,
      "start": 1.4426,
      "duration": 0.0043,
      "velocity": 119,
      "chip": "ym2612"
    },
    {
      "channel": 0,
      "note": 71,
      "start": 1.4465,
      "duration": 0.0042,
      "velocity": 91,
      "chip": "ym2612"
    },
    {
      "channel": 1,
      "note": 81,
      "start": 1.4467,
      "duration": 0.0051,
      "velocity": 119,
      "chip": "ym2612"
    },
    {
      "channel": 4,
      "note": 81,
      "start": 1.4472,
      "duration": 0.0069,
      "velocity": 119,
      "chip": "ym2612"
    },
    {
      "channel": 0,
      "note": 52,
      "start": 1.4518,
      "duration": 0.006,
      "velocity": 91,
      "chip": "ym2612"
    },
    {
      "channel": 1,
      "note": 80,
      "start": 1.4521,
      "duration": 0.0227,
      "velocity": 119,
      "chip": "ym2612"
    },
    {
      "channel": 2,
      "note": 57,
      "start": 1.454,
      "duration": 0.0048,
      "velocity": 113,
      "chip": "ym2612"
    },
    {
      "channel": 4,
      "note": 71,
      "start": 1.4543,
      "duration": 0.0047,
      "velocity": 119,
      "chip": "ym2612"
    },
    {
      "channel": 0,
      "note": 64,
      "start": 1.4587,
      "duration": 0.0037,
      "velocity": 91,
      "chip": "ym2612"
    },
    {
      "channel": 4,
      "note": 74,
      "start": 1.4591,
      "duration": 0.0063,
      "velocity": 119,
      "chip": "ym2612"
    },
    {
      "channel": 0,
      "note": 52,
      "start": 1.4635,
      "duration": 0.0049,
      "velocity": 91,
      "chip": "ym2612"
    },
    {
      "channel": 2,
      "note": 57,
      "start": 1.4653,
      "duration": 0.005,
      "velocity": 127,
      "chip": "ym2612"
    },
    {
      "channel": 4,
      "note": 78,
      "start": 1.4657,
      "duration": 0.0048,
      "velocity": 119,
      "chip": "ym2612"
    },
    {
      "channel": 0,
      "note": 64,
      "start": 1.4702,
      "duration": 0.0034,
      "velocity": 91,
      "chip": "ym2612"
    },
    {
      "channel": 4,
      "note": 81,
      "start": 1.4705,
      "duration": 0.0064,
      "velocity": 119,
      "chip": "ym2612"
    },
    {
      "channel": 0,
      "note": 59,
      "start": 1.4747,
      "duration": 0.0059,
      "velocity": 91,
      "chip": "ym2612"
    },
    {
      "channel": 1,
      "note": 71,
      "start": 1.475,
      "duration": 0.0065,
      "velocity": 119,
      "chip": "ym2612"
    },
    {
      "channel": 2,
      "note": 57,
      "start": 1.4769,
      "duration": 0.005,
      "velocity": 113,
      "chip": "ym2612"
    },
    {
      "channel": 4,
      "note": 71,
      "start": 1.4772,
      "duration": 0.0049,
      "velocity": 119,
      "chip": "ym2612"
    },
    {
      "channel": 0,
      "note": 71,
      "start": 1.4814,
      "duration": 0.0936,
      "velocity": 91,
      "chip": "ym2612"
    },
    {
      "channel": 1,
      "note": 74,
      "start": 1.4818,
      "duration": 0.1268,
      "velocity": 119,
      "chip": "ym2612"
    },
    {
      "channel": 4,
      "note": 74,
      "start": 1.4822,
      "duration": 0.1279,
      "velocity": 119,
      "chip": "ym2612"
    },
    {
      "channel": 0,
      "note": 59,
      "start": 1.6086,
      "duration": 0.0051,
      "velocity": 91,
      "chip": "ym2612"
    },
    {
      "channel": 1,
      "note": 81,
      "start": 1.6088,
      "duration": 0.0056,
      "velocity": 119,
      "chip": "ym2612"
    },
    {
      "channel": 2,
      "note": 57,
      "start": 1.6101,
      "duration": 0.0046,
      "velocity": 127,
      "chip": "ym2612"
    },
    {
      "channel": 4,
      "note": 81,
      "start": 1.6104,
      "duration": 0.0044,
      "velocity": 119,
      "chip": "ym2612"
    },
    {
      "channel": 0,
      "note": 71,
      "start": 1.6144,
      "duration": 0.0031,
      "velocity": 91,
      "chip": "ym2612"
    },
    {
      "channel": 1,
      "note": 71,
      "start": 1.6146,
      "duration": 0.0038,
      "velocity": 119,
      "chip": "ym2612"
    },
    {
      "channel": 4,
      "note": 71,
      "start": 1.6151,
      "duration": 0.0051,
      "velocity": 119,
      "chip": "ym2612"
    },
    {
      "channel": 0,
      "note": 59,
      "start": 1.6184,
      "duration": 0.0057,
      "velocity": 91,
      "chip": "ym2612"
    },
    {
      "channel": 1,
      "note": 68,
      "start": 1.6186,
      "duration": 0.0066,
      "velocity": 119,
      "chip": "ym2612"
    },
    {
      "channel": 2,
      "note": 57,
      "start": 1.6201,
      "duration": 0.0053,
      "velocity": 113,
      "chip": "ym2612"
    },
    {
      "channel": 4,
      "note": 68,
      "start": 1.6204,
      "duration": 0.0051,
      "velocity": 119,
      "chip": "ym2612"
    },
    {
      "channel": 0,
      "note": 71,
      "start": 1.6251,
      "duration": 0.0944,
      "velocity": 91,
      "chip": "ym2612"
    },
    {
      "channel": 1,
      "note": 74,
      "start": 1.6253,
      "duration": 0.1111,
      "velocity": 119,
      "chip": "ym2612"
    },
    {
      "channel": 4,
      "note": 74,
      "start": 1.6257,
      "duration": 0.1122,
      "velocity": 119,
      "chip": "ym2612"
    },
    {
      "channel": 0,
      "note": 59,
      "start": 1.7363,
      "duration": 0.005,
      "velocity": 91,
      "chip": "ym2612"
    },
    {
      "channel": 1,
      "note": 81,
      "start": 1.7366,
      "duration": 0.0056,
      "velocity": 119,
      "chip": "ym2612"
    },
    {
      "channel": 2,
      "note": 57,
      "start": 1.7378,
      "duration": 0.0046,
      "velocity": 127,
      "chip": "ym2612"
    },
    {
      "channel": 4,
      "note": 81,
      "start": 1.7382,
      "duration": 0.0045,
      "velocity": 119,
      "chip": "ym2612"
    },
    {
      "channel": 0,
      "note": 71,
      "start": 1.7421,
      "duration": 0.0034,
      "velocity": 91,
      "chip": "ym2612"
    },
    {
      "channel": 1,
      "note": 71,
      "start": 1.7424,
      "duration": 0.004,
      "velocity": 119,
      "chip": "ym2612"
    },
    {
      "channel": 4,
      "note": 71,
      "start": 1.7427,
      "duration": 0.0056,
      "velocity": 119,
      "chip": "ym2612"
    },
    {
      "channel": 0,
      "note": 59,
      "start": 1.7462,
      "duration": 0.0056,
      "velocity": 91,
      "chip": "ym2612"
    },
    {
      "channel": 1,
      "note": 74,
      "start": 1.7465,
      "duration": 0.0063,
      "velocity": 119,
      "chip": "ym2612"
    },
    {
      "channel": 2,
      "note": 57,
      "start": 1.7482,
      "duration": 0.0049,
      "velocity": 113,
      "chip": "ym2612"
    },
    {
      "channel": 4,
      "note": 74,
      "start": 1.7485,
      "duration": 0.0047,
      "velocity": 119,
      "chip": "ym2612"
    },
    {
      "channel": 0,
      "note": 71,
      "start": 1.7528,
      "duration": 0.0937,
      "velocity": 91,
      "chip": "ym2612"
    },
    {
      "channel": 1,
      "note": 81,
      "start": 1.753,
      "duration": 0.1271,
      "velocity": 119,
      "chip": "ym2612"
    },
    {
      "channel": 4,
      "note": 81,
      "start": 1.7533,
      "duration": 0.1283,
      "velocity": 119,
      "chip": "ym2612"
    },
    {
      "channel": 0,
      "note": 59,
      "start": 1.88,
      "duration": 0.0049,
      "velocity": 91,
      "chip": "ym2612"
    },
    {
      "channel": 1,
      "note": 71,
      "start": 1.8803,
      "duration": 0.0056,
      "velocity": 119,
      "chip": "ym2612"
    },
    {
      "channel": 2,
      "note": 57,
      "start": 1.8815,
      "duration": 0.0046,
      "velocity": 127,
      "chip": "ym2612"
    },
    {
      "channel": 4,
      "note": 71,
      "start": 1.8819,
      "duration": 0.0057,
      "velocity": 119,
      "chip": "ym2612"
    },
    {
      "channel": 0,
      "note": 71,
      "start": 1.8858,
      "duration": 0.0055,
      "velocity": 91,
      "chip": "ym2612"
    },
    {
      "channel": 1,
      "note": 81,
      "start": 1.8861,
      "duration": 0.0068,
      "velocity": 119,
      "chip": "ym2612"
    },
    {
      "channel": 2,
      "note": 78,
      "start": 1.8874,
      "duration": 0.0058,
      "velocity": 127,
      "chip": "ym2612"
    },
    {
      "channel": 4,
      "note": 81,
      "start": 1.8878,
      "duration": 0.0058,
      "velocity": 119,
      "chip": "ym2612"
    },
    {
      "channel": 0,
      "note": 52,
      "start": 1.8927,
      "duration": 0.0046,
      "velocity": 91,
      "chip": "ym2612"
    },
    {
      "channel": 1,
      "note": 80,
      "start": 1.8931,
      "duration": 0.0213,
      "velocity": 119,
      "chip": "ym2612"
    },
    {
      "channel": 2,
      "note": 78,
      "start": 1.8935,
      "duration": 0.0053,
      "velocity": 127,
      "chip": "ym2612"
    },
    {
      "channel": 4,
      "note": 71,
      "start": 1.8938,
      "duration": 0.0054,
      "velocity": 119,
      "chip": "ym2612"
    },
    {
      "channel": 0,
      "note": 64,
      "start": 1.8987,
      "duration": 0.0042,
      "velocity": 91,
      "chip": "ym2612"
    },
    {
      "channel": 2,
      "note": 78,
      "start": 1.8992,
      "duration": 0.0054,
      "velocity": 127,
      "chip": "ym2612"
    },
    {
      "channel": 4,
      "note": 74,
      "start": 1.8995,
      "duration": 0.0056,
      "velocity": 119,
      "chip": "ym2612"
    },
    {
      "channel": 0,
      "note": 52,
      "start": 1.9043,
      "duration": 0.0038,
      "velocity": 91,
      "chip": "ym2612"
    },
    {
      "channel": 2,
      "note": 74,
      "start": 1.9049,
      "duration": 0.005,
      "velocity": 127,
      "chip": "ym2612"
    },
    {
      "channel": 4,
      "note": 78,
      "start": 1.9053,
      "duration": 0.0048,
      "velocity": 119,
      "chip": "ym2612"
    },
    {
      "channel": 0,
      "note": 64,
      "start": 1.9098,
      "duration": 0.0038,
      "velocity": 91,
      "chip": "ym2612"
    },
    {
      "channel": 2,
      "note": 74,
      "start": 1.91,
      "duration": 0.0047,
      "velocity": 127,
      "chip": "ym2612"
    },
    {
      "channel": 4,
      "note": 80,
      "start": 1.9103,
      "duration": 0.0061,
      "velocity": 119,
      "chip": "ym2612"
    },
    {
      "channel": 0,
      "note": 58,
      "start": 1.9144,
      "duration": 0.0059,
      "velocity": 91,
      "chip": "ym2612"
    },
    {
      "channel": 1,
      "note": 89,
      "start": 1.9147,
      "duration": 0.0066,
      "velocity": 119,
      "chip": "ym2612"
    },
    {
      "channel": 2,
      "note": 57,
      "start": 1.9164,
      "duration": 0.0052,
      "velocity": 113,
      "chip": "ym2612"
    },
    {
      "channel": 4,
      "note": 89,
      "start": 1.9168,
      "duration": 0.005,
      "velocity": 119,
      "chip": "ym2612"
    },
    {
      "channel": 0,
      "note": 70,
      "start": 1.9212,
      "duration": 0.0936,
      "velocity": 91,
      "chip": "ym2612"
    },
    {
      "channel": 1,
      "note": 86,
      "start": 1.9215,
      "duration": 0.1269,
      "velocity": 119,
      "chip": "ym2612"
    },
    {
      "channel": 4,
      "note": 86,
      "start": 1.9218,
      "duration": 0.1281,
      "velocity": 119,
      "chip": "ym2612"
    },
    {
      "channel": 0,
      "note": 58,
      "start": 2.0484,
      "duration": 0.0049,
      "velocity": 91,
      "chip": "ym2612"
    },
    {
      "channel": 1,
      "note": 82,
      "start": 2.0486,
      "duration": 0.0056,
      "velocity": 119,
      "chip": "ym2612"
    },
    {
      "channel": 2,
      "note": 57,
      "start": 2.0499,
      "duration": 0.0046,
      "velocity": 127,
      "chip": "ym2612"
    },
    {
      "channel": 4,
      "note": 82,
      "start": 2.0502,
      "duration": 0.0044,
      "velocity": 119,
      "chip": "ym2612"
    },
    {
      "channel": 0,
      "note": 70,
      "start": 2.0542,
      "duration": 0.003,
      "velocity": 91,
      "chip": "ym2612"
    },
    {
      "channel": 1,
      "note": 89,
      "start": 2.0544,
      "duration": 0.0037,
      "velocity": 119,
      "chip": "ym2612"
    },
    {
      "channel": 4,
      "note": 89,
      "start": 2.0549,
      "duration": 0.0052,
      "velocity": 119,
      "chip": "ym2612"
    },
    {
      "channel": 0,
      "note": 58,
      "start": 2.0581,
      "duration": 0.0057,
      "velocity": 91,
      "chip": "ym2612"
    },
    {
      "channel": 1,
      "note": 86,
      "start": 2.0583,
      "duration": 0.0066,
      "velocity": 119,
      "chip": "ym2612"
    },
    {
      "channel": 2,
      "note": 57,
      "start": 2.06,
      "duration": 0.0052,
      "velocity": 113,
      "chip": "ym2612"
    },
    {
      "channel": 4,
      "note": 86,
      "start": 2.0603,
      "duration": 0.005,
      "velocity": 119,
      "chip": "ym2612"
    },
    {
      "channel": 0,
      "note": 70,
      "start": 2.0648,
      "duration": 0.094,
      "velocity": 91,
      "chip": "ym2612"
    },
    {
      "channel": 1,
      "note": 82,
      "start": 2.0651,
      "duration": 0.1274,
      "velocity": 119,
      "chip": "ym2612"
    },
    {
      "channel": 4,
      "note": 82,
      "start": 2.0655,
      "duration": 0.1285,
      "velocity": 119,
      "chip": "ym2612"
    },
    {
      "channel": 0,
      "note": 58,
      "start": 2.1924,
      "duration": 0.0048,
      "velocity": 91,
      "chip": "ym2612"
    },
    {
      "channel": 1,
      "note": 89,
      "start": 2.1927,
      "duration": 0.0055,
      "velocity": 119,
      "chip": "ym2612"
    },
    {
      "channel": 2,
      "note": 57,
      "start": 2.1939,
      "duration": 0.0044,
      "velocity": 127,
      "chip": "ym2612"
    },
    {
      "channel": 4,
      "note": 89,
      "start": 2.1942,
      "duration": 0.0042,
      "velocity": 119,
      "chip": "ym2612"
    },
    {
      "channel": 0,
      "note": 70,
      "start": 2.1981,
      "duration": 0.0034,
      "velocity": 91,
      "chip": "ym2612"
    },
    {
      "channel": 1,
      "note": 86,
      "start": 2.1983,
      "duration": 0.004,
      "velocity": 119,
      "chip": "ym2612"
    },
    {
      "channel": 4,
      "note": 86,
      "start": 2.1987,
      "duration": 0.0053,
      "velocity": 119,
      "chip": "ym2612"
    },
    {
      "channel": 0,
      "note": 57,
      "start": 2.2023,
      "duration": 0.0048,
      "velocity": 91,
      "chip": "ym2612"
    },
    {
      "channel": 1,
      "note": 90,
      "start": 2.2024,
      "duration": 0.0057,
      "velocity": 119,
      "chip": "ym2612"
    },
    {
      "channel": 2,
      "note": 57,
      "start": 2.2039,
      "duration": 0.0045,
      "velocity": 113,
      "chip": "ym2612"
    },
    {
      "channel": 4,
      "note": 90,
      "start": 2.2041,
      "duration": 0.0044,
      "velocity": 119,
      "chip": "ym2612"
    },
    {
      "channel": 0,
      "note": 69,
      "start": 2.2081,
      "duration": 0.0937,
      "velocity": 91,
      "chip": "ym2612"
    },
    {
      "channel": 1,
      "note": 86,
      "start": 2.2083,
      "duration": 0.1272,
      "velocity": 119,
      "chip": "ym2612"
    },
    {
      "channel": 4,
      "note": 86,
      "start": 2.2086,
      "duration": 0.1283,
      "velocity": 119,
      "chip": "ym2612"
    },
    {
      "channel": 0,
      "note": 57,
      "start": 2.3354,
      "duration": 0.005,
      "velocity": 91,
      "chip": "ym2612"
    },
    {
      "channel": 1,
      "note": 81,
      "start": 2.3356,
      "duration": 0.0057,
      "velocity": 119,
      "chip": "ym2612"
    },
    {
      "channel": 2,
      "note": 57,
      "start": 2.3369,
      "duration": 0.0047,
      "velocity": 127,
      "chip": "ym2612"
    },
    {
      "channel": 4,
      "note": 81,
      "start": 2.3372,
      "duration": 0.0046,
      "velocity": 119,
      "chip": "ym2612"
    },
    {
      "channel": 0,
      "note": 69,
      "start": 2.3412,
      "duration": 0.0042,
      "velocity": 91,
      "chip": "ym2612"
    },
    {
      "channel": 1,
      "note": 90,
      "start": 2.3415,
      "duration": 0.005,
      "velocity": 119,
      "chip": "ym2612"
    },
    {
      "channel": 4,
      "note": 90,
      "start": 2.3421,
      "duration": 0.0061,
      "velocity": 119,
      "chip": "ym2612"
    },
    {
      "channel": 0,
      "note": 57,
      "start": 2.3465,
      "duration": 0.0055,
      "velocity": 91,
      "chip": "ym2612"
    },
    {
      "channel": 1,
      "note": 86,
      "start": 2.3468,
      "duration": 0.0062,
      "velocity": 119,
      "chip": "ym2612"
    },
    {
      "channel": 2,
      "note": 57,
      "start": 2.3482,
      "duration": 0.0051,
      "velocity": 113,
      "chip": "ym2612"
    },
    {
      "channel": 4,
      "note": 86,
      "start": 2.3484,
      "duration": 0.005,
      "velocity": 119,
      "chip": "ym2612"
    },
    {
      "channel": 0,
      "note": 69,
      "start": 2.3529,
      "duration": 0.0039,
      "velocity": 91,
      "chip": "ym2612"
    },
    {
      "channel": 1,
      "note": 81,
      "start": 2.3532,
      "duration": 0.0046,
      "velocity": 119,
      "chip": "ym2612"
    },
    {
      "channel": 4,
      "note": 81,
      "start": 2.3536,
      "duration": 0.0061,
      "velocity": 119,
      "chip": "ym2612"
    },
    {
      "channel": 0,
      "note": 57,
      "start": 2.3577,
      "duration": 0.0055,
      "velocity": 91,
      "chip": "ym2612"
    },
    {
      "channel": 1,
      "note": 90,
      "start": 2.358,
      "duration": 0.0061,
      "velocity": 119,
      "chip": "ym2612"
    },
    {
      "channel": 2,
      "note": 57,
      "start": 2.3596,
      "duration": 0.0047,
      "velocity": 127,
      "chip": "ym2612"
    },
    {
      "channel": 4,
      "note": 90,
      "start": 2.36,
      "duration": 0.0044,
      "velocity": 119,
      "chip": "ym2612"
    },
    {
      "channel": 0,
      "note": 69,
      "start": 2.3641,
      "duration": 0.0041,
      "velocity": 91,
      "chip": "ym2612"
    },
    {
      "channel": 1,
      "note": 86,
      "start": 2.3643,
      "duration": 0.0049,
      "velocity": 119,
      "chip": "ym2612"
    },
    {
      "channel": 4,
      "note": 86,
      "start": 2.3647,
      "duration": 0.0062,
      "velocity": 119,
      "chip": "ym2612"
    },
    {
      "channel": 0,
      "note": 56,
      "start": 2.3692,
      "duration": 0.0052,
      "velocity": 91,
      "chip": "ym2612"
    },
    {
      "channel": 1,
      "note": 88,
      "start": 2.3694,
      "duration": 0.006,
      "velocity": 119,
      "chip": "ym2612"
    },
    {
      "channel": 2,
      "note": 57,
      "start": 2.3708,
      "duration": 0.0048,
      "velocity": 113,
      "chip": "ym2612"
    },
    {
      "channel": 4,
      "note": 88,
      "start": 2.371,
      "duration": 0.0049,
      "velocity": 119,
      "chip": "ym2612"
    },
    {
      "channel": 0,
      "note": 68,
      "start": 2.3754,
      "duration": 0.0938,
      "velocity": 91,
      "chip": "ym2612"
    },
    {
      "channel": 1,
      "note": 83,
      "start": 2.3756,
      "duration": 0.1262,
      "velocity": 119,
      "chip": "ym2612"
    },
    {
      "channel": 4,
      "note": 83,
      "start": 2.3759,
      "duration": 0.1274,
      "velocity": 119,
      "chip": "ym2612"
    },
    {
      "channel": 0,
      "note": 56,
      "start": 2.5017,
      "duration": 0.005,
      "velocity": 91,
      "chip": "ym2612"
    },
    {
      "channel": 1,
      "note": 80,
      "start": 2.502,
      "duration": 0.0056,
      "velocity": 119,
      "chip": "ym2612"
    },
    {
      "channel": 2,
      "note": 57,
      "start": 2.5033,
      "duration": 0.0046,
      "velocity": 127,
      "chip": "ym2612"
    },
    {
      "channel": 4,
      "note": 80,
      "start": 2.5036,
      "duration": 0.0044,
      "velocity": 119,
      "chip": "ym2612"
    },
    {
      "channel": 0,
      "note": 68,
      "start": 2.5076,
      "duration": 0.0035,
      "velocity": 91,
      "chip": "ym2612"
    },
    {
      "channel": 1,
      "note": 88,
      "start": 2.5078,
      "duration": 0.0041,
      "velocity": 119,
      "chip": "ym2612"
    },
    {
      "channel": 4,
      "note": 88,
      "start": 2.5081,
      "duration": 0.0056,
      "velocity": 119,
      "chip": "ym2612"
    },
    {
      "channel": 0,
      "note": 56,
      "start": 2.5119,
      "duration": 0.0055,
      "velocity": 91,
      "chip": "ym2612"
    },
    {
      "channel": 1,
      "note": 83,
      "start": 2.512,
      "duration": 0.0064,
      "velocity": 119,
      "chip": "ym2612"
    },
    {
      "channel": 2,
      "note": 57,
      "start": 2.5137,
      "duration": 0.0051,
      "velocity": 113,
      "chip": "ym2612"
    },
    {
      "channel": 4,
      "note": 83,
      "start": 2.514,
      "duration": 0.0049,
      "velocity": 119,
      "chip": "ym2612"
    },
    {
      "channel": 0,
      "note": 68,
      "start": 2.5184,
      "duration": 0.0938,
      "velocity": 91,
      "chip": "ym2612"
    },
    {
      "channel": 1,
      "note": 80,
      "start": 2.5187,
      "duration": 0.1271,
      "velocity": 119,
      "chip": "ym2612"
    },
    {
      "channel": 4,
      "note": 80,
      "start": 2.519,
      "duration": 0.1283,
      "velocity": 119,
      "chip": "ym2612"
    },
    {
      "channel": 0,
      "note": 56,
      "start": 2.6457,
      "duration": 0.0051,
      "velocity": 91,
      "chip": "ym2612"
    },
    {
      "channel": 1,
      "note": 88,
      "start": 2.646,
      "duration": 0.0056,
      "velocity": 119,
      "chip": "ym2612"
    },
    {
      "channel": 2,
      "note": 57,
      "start": 2.6473,
      "duration": 0.0046,
      "velocity": 127,
      "chip": "ym2612"
    },
    {
      "channel": 4,
      "note": 88,
      "start": 2.6476,
      "duration": 0.0044,
      "velocity": 119,
      "chip": "ym2612"
    },
    {
      "channel": 0,
      "note": 68,
      "start": 2.6516,
      "duration": 0.0032,
      "velocity": 91,
      "chip": "ym2612"
    },
    {
      "channel": 1,
      "note": 83,
      "start": 2.6518,
      "duration": 0.0039,
      "velocity": 119,
      "chip": "ym2612"
    },
    {
      "channel": 4,
      "note": 83,
      "start": 2.6521,
      "duration": 0.0053,
      "velocity": 119,
      "chip": "ym2612"
    },
    {
      "channel": 0,
      "note": 54,
      "start": 2.6556,
      "duration": 0.0052,
      "velocity": 91,
      "chip": "ym2612"
    },
    {
      "channel": 1,
      "note": 86,
      "start": 2.6558,
      "duration": 0.0061,
      "velocity": 119,
      "chip": "ym2612"
    },
    {
      "channel": 2,
      "note": 57,
      "start": 2.6573,
      "duration": 0.0048,
      "velocity": 113,
      "chip": "ym2612"
    },
    {
      "channel": 4,
      "note": 86,
      "start": 2.6576,
      "duration": 0.0047,
      "velocity": 119,
      "chip": "ym2612"
    },
    {
      "channel": 0,
      "note": 66,
      "start": 2.6618,
      "duration": 0.1095,
      "velocity": 91,
      "chip": "ym2612"
    },
    {
      "channel": 1,
      "note": 81,
      "start": 2.662,
      "duration": 0.1262,
      "velocity": 119,
      "chip": "ym2612"
    },
    {
      "channel": 4,
      "note": 81,
      "start": 2.6625,
      "duration": 0.1272,
      "velocity": 119,
      "chip": "ym2612"
    },
    {
      "channel": 0,
      "note": 54,
      "start": 2.7881,
      "duration": 0.005,
      "velocity": 91,
      "chip": "ym2612"
    },
    {
      "channel": 1,
      "note": 78,
      "start": 2.7884,
      "duration": 0.0048,
      "velocity": 119,
      "chip": "ym2612"
    },
    {
      "channel": 2,
      "note": 57,
      "start": 2.7897,
      "duration": 0.0046,
      "velocity": 127,
      "chip": "ym2612"
    },
    {
      "channel": 4,
      "note": 78,
      "start": 2.79,
      "duration": 0.0035,
      "velocity": 119,
      "chip": "ym2612"
    },
    {
      "channel": 0,
      "note": 52,
      "start": 2.7941,
      "duration": 0.0066,
      "velocity": 91,
      "chip": "ym2612"
    },
    {
      "channel": 1,
      "note": 85,
      "start": 2.7942,
      "duration": 0.0067,
      "velocity": 119,
      "chip": "ym2612"
    },
    {
      "channel": 2,
      "note": 78,
      "start": 2.796,
      "duration": 0.0052,
      "velocity": 127,
      "chip": "ym2612"
    },
    {
      "channel": 4,
      "note": 85,
      "start": 2.7963,
      "duration": 0.0051,
      "velocity": 119,
      "chip": "ym2612"
    },
    {
      "channel": 0,
      "note": 64,
      "start": 2.8009,
      "duration": 0.005,
      "velocity": 91,
      "chip": "ym2612"
    },
    {
      "channel": 1,
      "note": 80,
      "start": 2.8012,
      "duration": 0.0051,
      "velocity": 119,
      "chip": "ym2612"
    },
    {
      "channel": 2,
      "note": 78,
      "start": 2.8014,
      "duration": 0.0052,
      "velocity": 127,
      "chip": "ym2612"
    },
    {
      "channel": 4,
      "note": 80,
      "start": 2.8015,
      "duration": 0.0055,
      "velocity": 119,
      "chip": "ym2612"
    },
    {
      "channel": 0,
      "note": 52,
      "start": 2.8062,
      "duration": 0.0048,
      "velocity": 91,
      "chip": "ym2612"
    },
    {
      "channel": 1,
      "note": 76,
      "start": 2.8066,
      "duration": 0.0046,
      "velocity": 119,
      "chip": "ym2612"
    },
    {
      "channel": 2,
      "note": 78,
      "start": 2.8069,
      "duration": 0.0063,
      "velocity": 127,
      "chip": "ym2612"
    },
    {
      "channel": 4,
      "note": 76,
      "start": 2.8073,
      "duration": 0.0042,
      "velocity": 119,
      "chip": "ym2612"
    },
    {
      "channel": 0,
      "note": 50,
      "start": 2.8128,
      "duration": 0.005,
      "velocity": 91,
      "chip": "ym2612"
    },
    {
      "channel": 1,
      "note": 83,
      "start": 2.8131,
      "duration": 0.0049,
      "velocity": 119,
      "chip": "ym2612"
    },
    {
      "channel": 2,
      "note": 74,
      "start": 2.8136,
      "duration": 0.0046,
      "velocity": 127,
      "chip": "ym2612"
    },
    {
      "channel": 4,
      "note": 83,
      "start": 2.8139,
      "duration": 0.0045,
      "velocity": 119,
      "chip": "ym2612"
    },
    {
      "channel": 0,
      "note": 62,
      "start": 2.8179,
      "duration": 0.0051,
      "velocity": 91,
      "chip": "ym2612"
    },
    {
      "channel": 1,
      "note": 78,
      "start": 2.8181,
      "duration": 0.0051,
      "velocity": 119,
      "chip": "ym2612"
    },
    {
      "channel": 2,
      "note": 74,
      "start": 2.8183,
      "duration": 0.0051,
      "velocity": 127,
      "chip": "ym2612"
    },
    {
      "channel": 4,
      "note": 78,
      "start": 2.8186,
      "duration": 0.0067,
      "velocity": 119,
      "chip": "ym2612"
    },
    {
      "channel": 0,
      "note": 50,
      "start": 2.8232,
      "duration": 0.0057,
      "velocity": 91,
      "chip": "ym2612"
    },
    {
      "channel": 1,
      "note": 74,
      "start": 2.8234,
      "duration": 0.0057,
      "velocity": 119,
      "chip": "ym2612"
    },
    {
      "channel": 2,
      "note": 57,
      "start": 2.8252,
      "duration": 0.005,
      "velocity": 113,
      "chip": "ym2612"
    },
    {
      "channel": 4,
      "note": 74,
      "start": 2.8256,
      "duration": 0.0038,
      "velocity": 119,
      "chip": "ym2612"
    },
    {
      "channel": 0,
      "note": 49,
      "start": 2.83,
      "duration": 0.11,
      "velocity": 91,
      "chip": "ym2612"
    },
    {
      "channel": 1,
      "note": 81,
      "start": 2.8302,
      "duration": 0.1101,
      "velocity": 119,
      "chip": "ym2612"
    },
    {
      "channel": 4,
      "note": 81,
      "start": 2.8306,
      "duration": 0.1112,
      "velocity": 119,
      "chip": "ym2612"
    },
    {
      "channel": 0,
      "note": 61,
      "start": 2.9402,
      "duration": 0.0056,
      "velocity": 91,
      "chip": "ym2612"
    },
    {
      "channel": 1,
      "note": 76,
      "start": 2.9405,
      "duration": 0.0056,
      "velocity": 119,
      "chip": "ym2612"
    },
    {
      "channel": 2,
      "note": 57,
      "start": 2.9417,
      "duration": 0.0045,
      "velocity": 127,
      "chip": "ym2612"
    },
    {
      "channel": 4,
      "note": 76,
      "start": 2.942,
      "duration": 0.0044,
      "velocity": 119,
      "chip": "ym2612"
    },
    {
      "channel": 0,
      "note": 49,
      "start": 2.946,
      "duration": 0.0033,
      "velocity": 91,
      "chip": "ym2612"
    },
    {
      "channel": 1,
      "note": 73,
      "start": 2.9462,
      "duration": 0.0032,
      "velocity": 119,
      "chip": "ym2612"
    },
    {
      "channel": 4,
      "note": 73,
      "start": 2.9466,
      "duration": 0.0031,
      "velocity": 119,
      "chip": "ym2612"
    },
    {
      "channel": 0,
      "note": 50,
      "start": 2.9502,
      "duration": 0.0065,
      "velocity": 91,
      "chip": "ym2612"
    },
    {
      "channel": 1,
      "note": 71,
      "start": 2.9504,
      "duration": 0.1387,
      "velocity": 119,
      "chip": "ym2612"
    },
    {
      "channel": 2,
      "note": 57,
      "start": 2.9521,
      "duration": 0.0049,
      "velocity": 113,
      "chip": "ym2612"
    },
    {
      "channel": 4,
      "note": 62,
      "start": 2.9525,
      "duration": 0.2693,
      "velocity": 119,
      "chip": "ym2612"
    },
    {
      "channel": 0,
      "note": 62,
      "start": 2.9569,
      "duration": 0.1269,
      "velocity": 91,
      "chip": "ym2612"
    },
    {
      "channel": 0,
      "note": 50,
      "start": 3.084,
      "duration": 0.0049,
      "velocity": 91,
      "chip": "ym2612"
    },
    {
      "channel": 2,
      "note": 57,
      "start": 3.0854,
      "duration": 0.0039,
      "velocity": 127,
      "chip": "ym2612"
    },
    {
      "channel": 0,
      "note": 62,
      "start": 3.089,
      "duration": 0.0035,
      "velocity": 91,
      "chip": "ym2612"
    },
    {
      "channel": 1,
      "note": 69,
      "start": 3.0893,
      "duration": 0.01,
      "velocity": 119,
      "chip": "ym2612"
    },
    {
      "channel": 0,
      "note": 50,
      "start": 3.0929,
      "duration": 0.0061,
      "velocity": 91,
      "chip": "ym2612"
    },
    {
      "channel": 2,
      "note": 57,
      "start": 3.0948,
      "duration": 0.0047,
      "velocity": 113,
      "chip": "ym2612"
    },
    {
      "channel": 0,
      "note": 62,
      "start": 3.0993,
      "duration": 0.1115,
      "velocity": 91,
      "chip": "ym2612"
    },
    {
      "channel": 1,
      "note": 68,
      "start": 3.0995,
      "duration": 0.1115,
      "velocity": 119,
      "chip": "ym2612"
    },
    {
      "channel": 0,
      "note": 50,
      "start": 3.211,
      "duration": 0.0052,
      "velocity": 91,
      "chip": "ym2612"
    },
    {
      "channel": 1,
      "note": 69,
      "start": 3.2112,
      "duration": 0.0088,
      "velocity": 119,
      "chip": "ym2612"
    },
    {
      "channel": 2,
      "note": 57,
      "start": 3.2125,
      "duration": 0.0039,
      "velocity": 127,
      "chip": "ym2612"
    },
    {
      "channel": 0,
      "note": 62,
      "start": 3.2163,
      "duration": 0.0034,
      "velocity": 91,
      "chip": "ym2612"
    },
    {
      "channel": 0,
      "note": 52,
      "start": 3.2199,
      "duration": 0.0063,
      "velocity": 91,
      "chip": "ym2612"
    },
    {
      "channel": 1,
      "note": 69,
      "start": 3.22,
      "duration": 0.1389,
      "velocity": 119,
      "chip": "ym2612"
    },
    {
      "channel": 2,
      "note": 57,
      "start": 3.2216,
      "duration": 0.005,
      "velocity": 113,
      "chip": "ym2612"
    },
    {
      "channel": 4,
      "note": 62,
      "start": 3.2218,
      "duration": 0.1652,
      "velocity": 119,
      "chip": "ym2612"
    },
    {
      "channel": 0,
      "note": 64,
      "start": 3.2264,
      "duration": 0.1269,
      "velocity": 91,
      "chip": "ym2612"
    },
    {
      "channel": 0,
      "note": 52,
      "start": 3.3536,
      "duration": 0.005,
      "velocity": 91,
      "chip": "ym2612"
    },
    {
      "channel": 2,
      "note": 57,
      "start": 3.355,
      "duration": 0.0043,
      "velocity": 127,
      "chip": "ym2612"
    },
    {
      "channel": 0,
      "note": 64,
      "start": 3.3589,
      "duration": 0.0049,
      "velocity": 91,
      "chip": "ym2612"
    },
    {
      "channel": 1,
      "note": 68,
      "start": 3.3592,
      "duration": 0.0109,
      "velocity": 119,
      "chip": "ym2612"
    },
    {
      "channel": 0,
      "note": 52,
      "start": 3.3639,
      "duration": 0.0059,
      "velocity": 91,
      "chip": "ym2612"
    },
    {
      "channel": 2,
      "note": 57,
      "start": 3.3655,
      "duration": 0.0048,
      "velocity": 113,
      "chip": "ym2612"
    },
    {
      "channel": 0,
      "note": 64,
      "start": 3.37,
      "duration": 0.0043,
      "velocity": 91,
      "chip": "ym2612"
    },
    {
      "channel": 1,
      "note": 66,
      "start": 3.3702,
      "duration": 0.0043,
      "velocity": 119,
      "chip": "ym2612"
    },
    {
      "channel": 0,
      "note": 52,
      "start": 3.3745,
      "duration": 0.0058,
      "velocity": 91,
      "chip": "ym2612"
    },
    {
      "channel": 1,
      "note": 64,
      "start": 3.3748,
      "duration": 0.0101,
      "velocity": 119,
      "chip": "ym2612"
    },
    {
      "channel": 2,
      "note": 57,
      "start": 3.3766,
      "duration": 0.0039,
      "velocity": 127,
      "chip": "ym2612"
    },
    {
      "channel": 0,
      "note": 64,
      "start": 3.3805,
      "duration": 0.0042,
      "velocity": 91,
      "chip": "ym2612"
    },
    {
      "channel": 0,
      "note": 52,
      "start": 3.3849,
      "duration": 0.0065,
      "velocity": 91,
      "chip": "ym2612"
    },
    {
      "channel": 1,
      "note": 62,
      "start": 3.3851,
      "duration": 0.1334,
      "velocity": 119,
      "chip": "ym2612"
    },
    {
      "channel": 2,
      "note": 57,
      "start": 3.3869,
      "duration": 0.0047,
      "velocity": 113,
      "chip": "ym2612"
    },
    {
      "channel": 4,
      "note": 59,
      "start": 3.3873,
      "duration": 0.1327,
      "velocity": 119,
      "chip": "ym2612"
    },
    {
      "channel": 0,
      "note": 64,
      "start": 3.3915,
      "duration": 0.1266,
      "velocity": 91,
      "chip": "ym2612"
    },
    {
      "channel": 0,
      "note": 52,
      "start": 3.5184,
      "duration": 0.0055,
      "velocity": 91,
      "chip": "ym2612"
    },
    {
      "channel": 1,
      "note": 69,
      "start": 3.5187,
      "duration": 0.009,
      "velocity": 119,
      "chip": "ym2612"
    },
    {
      "channel": 2,
      "note": 57,
      "start": 3.52,
      "duration": 0.0042,
      "velocity": 127,
      "chip": "ym2612"
    },
    {
      "channel": 4,
      "note": 64,
      "start": 3.5202,
      "duration": 0.0095,
      "velocity": 119,
      "chip": "ym2612"
    },
    {
      "channel": 0,
      "note": 64,
      "start": 3.5241,
      "duration": 0.0034,
      "velocity": 91,
      "chip": "ym2612"
    },
    {
      "channel": 0,
      "note": 52,
      "start": 3.5277,
      "duration": 0.0067,
      "velocity": 91,
      "chip": "ym2612"
    },
    {
      "channel": 1,
      "note": 62,
      "start": 3.528,
      "duration": 0.0067,
      "velocity": 119,
      "chip": "ym2612"
    },
    {
      "channel": 2,
      "note": 57,
      "start": 3.5297,
      "duration": 0.0052,
      "velocity": 113,
      "chip": "ym2612"
    },
    {
      "channel": 4,
      "note": 59,
      "start": 3.53,
      "duration": 0.005,
      "velocity": 119,
      "chip": "ym2612"
    },
    {
      "channel": 0,
      "note": 64,
      "start": 3.5346,
      "duration": 0.127,
      "velocity": 91,
      "chip": "ym2612"
    },
    {
      "channel": 1,
      "note": 69,
      "start": 3.5348,
      "duration": 0.1319,
      "velocity": 119,
      "chip": "ym2612"
    },
    {
      "channel": 4,
      "note": 64,
      "start": 3.5351,
      "duration": 0.132,
      "velocity": 119,
      "chip": "ym2612"
    },
    {
      "channel": 0,
      "note": 52,
      "start": 3.6618,
      "duration": 0.0047,
      "velocity": 91,
      "chip": "ym2612"
    },
    {
      "channel": 2,
      "note": 57,
      "start": 3.6632,
      "duration": 0.0037,
      "velocity": 127,
      "chip": "ym2612"
    },
    {
      "channel": 0,
      "note": 64,
      "start": 3.6666,
      "duration": 0.0042,
      "velocity": 91,
      "chip": "ym2612"
    },
    {
      "channel": 1,
      "note": 62,
      "start": 3.6669,
      "duration": 0.0104,
      "velocity": 119,
      "chip": "ym2612"
    },
    {
      "channel": 4,
      "note": 59,
      "start": 3.6673,
      "duration": 0.0105,
      "velocity": 119,
      "chip": "ym2612"
    },
    {
      "channel": 0,
      "note": 52,
      "start": 3.6711,
      "duration": 0.006,
      "velocity": 91,
      "chip": "ym2612"
    },
    {
      "channel": 2,
      "note": 57,
      "start": 3.6729,
      "duration": 0.0047,
      "velocity": 113,
      "chip": "ym2612"
    },
    {
      "channel": 0,
      "note": 64,
      "start": 3.6773,
      "duration": 0.1267,
      "velocity": 91,
      "chip": "ym2612"
    },
    {
      "channel": 1,
      "note": 69,
      "start": 3.6776,
      "duration": 0.1267,
      "velocity": 119,
      "chip": "ym2612"
    },
    {
      "channel": 4,
      "note": 64,
      "start": 3.678,
      "duration": 0.1279,
      "velocity": 119,
      "chip": "ym2612"
    },
    {
      "channel": 0,
      "note": 52,
      "start": 3.8042,
      "duration": 0.0054,
      "velocity": 91,
      "chip": "ym2612"
    },
    {
      "channel": 1,
      "note": 62,
      "start": 3.8045,
      "duration": 0.0097,
      "velocity": 119,
      "chip": "ym2612"
    },
    {
      "channel": 2,
      "note": 57,
      "start": 3.8058,
      "duration": 0.0042,
      "velocity": 127,
      "chip": "ym2612"
    },
    {
      "channel": 4,
      "note": 59,
      "start": 3.8061,
      "duration": 0.0103,
      "velocity": 119,
      "chip": "ym2612"
    },
    {
      "channel": 0,
      "note": 64,
      "start": 3.8098,
      "duration": 0.0042,
      "velocity": 91,
      "chip": "ym2612"
    },
    {
      "channel": 0,
      "note": 52,
      "start": 3.8142,
      "duration": 0.0068,
      "velocity": 91,
      "chip": "ym2612"
    },
    {
      "channel": 1,
      "note": 69,
      "start": 3.8144,
      "duration": 0.0067,
      "velocity": 119,
      "chip": "ym2612"
    },
    {
      "channel": 2,
      "note": 57,
      "start": 3.8163,
      "duration": 0.0051,
      "velocity": 113,
      "chip": "ym2612"
    },
    {
      "channel": 4,
      "note": 64,
      "start": 3.8166,
      "duration": 0.0048,
      "velocity": 119,
      "chip": "ym2612"
    },
    {
      "channel": 0,
      "note": 64,
      "start": 3.8211,
      "duration": 0.0045,
      "velocity": 91,
      "chip": "ym2612"
    },
    {
      "channel": 1,
      "note": 62,
      "start": 3.8212,
      "duration": 0.0139,
      "velocity": 119,
      "chip": "ym2612"
    },
    {
      "channel": 4,
      "note": 59,
      "start": 3.8217,
      "duration": 0.0152,
      "velocity": 119,
      "chip": "ym2612"
    },
    {
      "channel": 0,
      "note": 52,
      "start": 3.8257,
      "duration": 0.005,
      "velocity": 91,
      "chip": "ym2612"
    },
    {
      "channel": 2,
      "note": 57,
      "start": 3.8273,
      "duration": 0.0038,
      "velocity": 127,
      "chip": "ym2612"
    },
    {
      "channel": 0,
      "note": 64,
      "start": 3.831,
      "duration": 0.004,
      "velocity": 91,
      "chip": "ym2612"
    },
    {
      "channel": 0,
      "note": 52,
      "start": 3.8351,
      "duration": 0.0062,
      "velocity": 91,
      "chip": "ym2612"
    },
    {
      "channel": 1,
      "note": 62,
      "start": 3.8352,
      "duration": 0.1323,
      "velocity": 119,
      "chip": "ym2612"
    },
    {
      "channel": 2,
      "note": 57,
      "start": 3.8368,
      "duration": 0.0048,
      "velocity": 113,
      "chip": "ym2612"
    },
    {
      "channel": 4,
      "note": 59,
      "start": 3.837,
      "duration": 0.1322,
      "velocity": 119,
      "chip": "ym2612"
    },
    {
      "channel": 0,
      "note": 64,
      "start": 3.8415,
      "duration": 0.1257,
      "velocity": 91,
      "chip": "ym2612"
    },
    {
      "channel": 0,
      "note": 52,
      "start": 3.9675,
      "duration": 0.0058,
      "velocity": 91,
      "chip": "ym2612"
    },
    {
      "channel": 1,
      "note": 69,
      "start": 3.9678,
      "duration": 0.0096,
      "velocity": 119,
      "chip": "ym2612"
    },
    {
      "channel": 2,
      "note": 57,
      "start": 3.969,
      "duration": 0.0044,
      "velocity": 127,
      "chip": "ym2612"
    },
    {
      "channel": 4,
      "note": 64,
      "start": 3.9693,
      "duration": 0.0102,
      "velocity": 119,
      "chip": "ym2612"
    },
    {
      "channel": 0,
      "note": 64,
      "start": 3.9734,
      "duration": 0.0037,
      "velocity": 91,
      "chip": "ym2612"
    },
    {
      "channel": 0,
      "note": 52,
      "start": 3.9773,
      "duration": 0.0063,
      "velocity": 91,
      "chip": "ym2612"
    },
    {
      "channel": 1,
      "note": 62,
      "start": 3.9777,
      "duration": 0.0062,
      "velocity": 119,
      "chip": "ym2612"
    },
    {
      "channel": 2,
      "note": 57,
      "start": 3.9794,
      "duration": 0.0047,
      "velocity": 113,
      "chip": "ym2612"
    },
    {
      "channel": 4,
      "note": 59,
      "start": 3.9797,
      "duration": 0.0046,
      "velocity": 119,
      "chip": "ym2612"
    },
    {
      "channel": 0,
      "note": 64,
      "start": 3.9838,
      "duration": 0.1271,
      "velocity": 91,
      "chip": "ym2612"
    },
    {
      "channel": 1,
      "note": 69,
      "start": 3.9841,
      "duration": 0.1322,
      "velocity": 119,
      "chip": "ym2612"
    },
    {
      "channel": 4,
      "note": 64,
      "start": 3.9846,
      "duration": 0.1321,
      "velocity": 119,
      "chip": "ym2612"
    },
    {
      "channel": 0,
      "note": 52,
      "start": 4.1111,
      "duration": 0.0049,
      "velocity": 91,
      "chip": "ym2612"
    },
    {
      "channel": 2,
      "note": 57,
      "start": 4.1125,
      "duration": 0.004,
      "velocity": 127,
      "chip": "ym2612"
    },
    {
      "channel": 0,
      "note": 64,
      "start": 4.1162,
      "duration": 0.0037,
      "velocity": 91,
      "chip": "ym2612"
    },
    {
      "channel": 1,
      "note": 62,
      "start": 4.1165,
      "duration": 0.0101,
      "velocity": 119,
      "chip": "ym2612"
    },
    {
      "channel": 4,
      "note": 59,
      "start": 4.1168,
      "duration": 0.0102,
      "velocity": 119,
      "chip": "ym2612"
    },
    {
      "channel": 0,
      "note": 52,
      "start": 4.1202,
      "duration": 0.0061,
      "velocity": 91,
      "chip": "ym2612"
    },
    {
      "channel": 2,
      "note": 57,
      "start": 4.1221,
      "duration": 0.0048,
      "velocity": 113,
      "chip": "ym2612"
    },
    {
      "channel": 0,
      "note": 64,
      "start": 4.1265,
      "duration": 0.111,
      "velocity": 91,
      "chip": "ym2612"
    },
    {
      "channel": 1,
      "note": 69,
      "start": 4.1268,
      "duration": 0.111,
      "velocity": 119,
      "chip": "ym2612"
    },
    {
      "channel": 4,
      "note": 64,
      "start": 4.1273,
      "duration": 0.1121,
      "velocity": 119,
      "chip": "ym2612"
    },
    {
      "channel": 0,
      "note": 52,
      "start": 4.2377,
      "duration": 0.0055,
      "velocity": 91,
      "chip": "ym2612"
    },
    {
      "channel": 1,
      "note": 62,
      "start": 4.238,
      "duration": 0.0099,
      "velocity": 119,
      "chip": "ym2612"
    },
    {
      "channel": 2,
      "note": 57,
      "start": 4.2393,
      "duration": 0.0041,
      "velocity": 127,
      "chip": "ym2612"
    },
    {
      "channel": 4,
      "note": 59,
      "start": 4.2395,
      "duration": 0.0105,
      "velocity": 119,
      "chip": "ym2612"
    },
    {
      "channel": 0,
      "note": 64,
      "start": 4.2434,
      "duration": 0.0044,
      "velocity": 91,
      "chip": "ym2612"
    },
    {
      "channel": 0,
      "note": 52,
      "start": 4.2479,
      "duration": 0.0068,
      "velocity": 91,
      "chip": "ym2612"
    },
    {
      "channel": 1,
      "note": 69,
      "start": 4.2481,
      "duration": 0.007,
      "velocity": 119,
      "chip": "ym2612"
    },
    {
      "channel": 2,
      "note": 57,
      "start": 4.25,
      "duration": 0.0055,
      "velocity": 113,
      "chip": "ym2612"
    },
    {
      "channel": 4,
      "note": 64,
      "start": 4.2503,
      "duration": 0.0056,
      "velocity": 119,
      "chip": "ym2612"
    },
    {
      "channel": 0,
      "note": 64,
      "start": 4.255,
      "duration": 0.0052,
      "velocity": 91,
      "chip": "ym2612"
    },
    {
      "channel": 1,
      "note": 62,
      "start": 4.2554,
      "duration": 0.0159,
      "velocity": 119,
      "chip": "ym2612"
    },
    {
      "channel": 4,
      "note": 59,
      "start": 4.2561,
      "duration": 0.0181,
      "velocity": 119,
      "chip": "ym2612"
    },
    {
      "channel": 0,
      "note": 52,
      "start": 4.2604,
      "duration": 0.0053,
      "velocity": 91,
      "chip": "ym2612"
    },
    {
      "channel": 2,
      "note": 57,
      "start": 4.2619,
      "duration": 0.0041,
      "velocity": 127,
      "chip": "ym2612"
    },
    {
      "channel": 0,
      "note": 64,
      "start": 4.2659,
      "duration": 0.0043,
      "velocity": 91,
      "chip": "ym2612"
    },
    {
      "channel": 0,
      "note": 58,
      "start": 4.2713,
      "duration": 0.0073,
      "velocity": 91,
      "chip": "ym2612"
    },
    {
      "channel": 2,
      "note": 57,
      "start": 4.2741,
      "duration": 0.0055,
      "velocity": 113,
      "chip": "ym2612"
    },
    {
      "channel": 0,
      "note": 70,
      "start": 4.2795,
      "duration": 0.0885,
      "velocity": 91,
      "chip": "ym2612"
    },
    {
      "channel": 0,
      "note": 58,
      "start": 4.3858,
      "duration": 0.0041,
      "velocity": 91,
      "chip": "ym2612"
    },
    {
      "channel": 2,
      "note": 57,
      "start": 4.3871,
      "duration": 0.0037,
      "velocity": 127,
      "chip": "ym2612"
    },
    {
      "channel": 0,
      "note": 70,
      "start": 4.3907,
      "duration": 20.4933,
      "velocity": 91,
      "chip": "ym2612"
    },
    {
      "channel": 2,
      "note": 78,
      "start": 4.3921,
      "duration": 20.4919,
      "velocity": 127,
      "chip": "ym2612"
    }
  ]
}