{
  "track_name": "04 - Touchdown",
  "duration_sec": 37.15,
  "sample_rate": 44100,
  "note_count": 908,
  "unique_pitches": 11,
  "pitch_range": 44,
  "avg_note_duration": 0.1136,
  "reconstruction_stats": {
    "notes_reconstructed": 908,
    "keyon_events": 908,
    "keyoff_events": 908,
    "orphan_keyons": 0,
    "unique_pitches": 11,
    "pitch_range": 44,
    "avg_duration_sec": 0.1136
  },
  "metadata": {
    "source": "T\\Task Force Harrier EX\\04 - Touchdown.vgz"
  },
  "notes": [
    {
      "channel": 0,
      "note": 57,
      "start": 0.0021,
      "duration": 0.1366,
      "velocity": 100,
      "chip": "ym2612"
    },
    {
      "channel": 1,
      "note": 57,
      "start": 0.0048,
      "duration": 0.1343,
      "velocity": 94,
      "chip": "ym2612"
    },
    {
      "channel": 2,
      "note": 76,
      "start": 0.0073,
      "duration": 0.0733,
      "velocity": 94,
      "chip": "ym2612"
    },
    {
      "channel": 5,
      "note": 32,
      "start": 0.0126,
      "duration": 0.0217,
      "velocity": 127,
      "chip": "ym2612"
    },
    {
      "channel": 5,
      "note": 68,
      "start": 0.0367,
      "duration": 0.1034,
      "velocity": 117,
      "chip": "ym2612"
    },
    {
      "channel": 0,
      "note": 64,
      "start": 0.151,
      "duration": 0.1286,
      "velocity": 100,
      "chip": "ym2612"
    },
    {
      "channel": 1,
      "note": 57,
      "start": 0.1517,
      "duration": 0.1282,
      "velocity": 94,
      "chip": "ym2612"
    },
    {
      "channel": 5,
      "note": 32,
      "start": 0.1549,
      "duration": 0.4204,
      "velocity": 127,
      "chip": "ym2612"
    },
    {
      "channel": 0,
      "note": 69,
      "start": 0.2919,
      "duration": 0.1286,
      "velocity": 100,
      "chip": "ym2612"
    },
    {
      "channel": 2,
      "note": 76,
      "start": 0.293,
      "duration": 0.0695,
      "velocity": 94,
      "chip": "ym2612"
    },
    {
      "channel": 3,
      "note": 76,
      "start": 0.2937,
      "duration": 0.0691,
      "velocity": 94,
      "chip": "ym2612"
    },
    {
      "channel": 1,
      "note": 57,
      "start": 0.4331,
      "duration": 0.1286,
      "velocity": 94,
      "chip": "ym2612"
    },
    {
      "channel": 2,
      "note": 71,
      "start": 0.4338,
      "duration": 0.0577,
      "velocity": 94,
      "chip": "ym2612"
    },
    {
      "channel": 2,
      "note": 74,
      "start": 0.5743,
      "duration": 0.0698,
      "velocity": 94,
      "chip": "ym2612"
    },
    {
      "channel": 3,
      "note": 76,
      "start": 0.5751,
      "duration": 0.0695,
      "velocity": 94,
      "chip": "ym2612"
    },
    {
      "channel": 5,
      "note": 32,
      "start": 0.5778,
      "duration": 0.1384,
      "velocity": 127,
      "chip": "ym2612"
    },
    {
      "channel": 2,
      "note": 76,
      "start": 0.7152,
      "duration": 0.0698,
      "velocity": 94,
      "chip": "ym2612"
    },
    {
      "channel": 3,
      "note": 71,
      "start": 0.7159,
      "duration": 0.0577,
      "velocity": 94,
      "chip": "ym2612"
    },
    {
      "channel": 5,
      "note": 32,
      "start": 0.7187,
      "duration": 0.1388,
      "velocity": 127,
      "chip": "ym2612"
    },
    {
      "channel": 0,
      "note": 57,
      "start": 0.8552,
      "duration": 0.1286,
      "velocity": 100,
      "chip": "ym2612"
    },
    {
      "channel": 1,
      "note": 57,
      "start": 0.856,
      "duration": 0.1282,
      "velocity": 94,
      "chip": "ym2612"
    },
    {
      "channel": 3,
      "note": 74,
      "start": 0.8571,
      "duration": 0.069,
      "velocity": 94,
      "chip": "ym2612"
    },
    {
      "channel": 5,
      "note": 32,
      "start": 0.8599,
      "duration": 0.1385,
      "velocity": 127,
      "chip": "ym2612"
    },
    {
      "channel": 0,
      "note": 64,
      "start": 0.9961,
      "duration": 0.1286,
      "velocity": 100,
      "chip": "ym2612"
    },
    {
      "channel": 1,
      "note": 57,
      "start": 0.9967,
      "duration": 0.1283,
      "velocity": 94,
      "chip": "ym2612"
    },
    {
      "channel": 2,
      "note": 71,
      "start": 0.9974,
      "duration": 0.0692,
      "velocity": 94,
      "chip": "ym2612"
    },
    {
      "channel": 3,
      "note": 76,
      "start": 0.9982,
      "duration": 0.0688,
      "velocity": 94,
      "chip": "ym2612"
    },
    {
      "channel": 5,
      "note": 32,
      "start": 1.0009,
      "duration": 0.1379,
      "velocity": 127,
      "chip": "ym2612"
    },
    {
      "channel": 0,
      "note": 69,
      "start": 1.1371,
      "duration": 0.1284,
      "velocity": 100,
      "chip": "ym2612"
    },
    {
      "channel": 1,
      "note": 57,
      "start": 1.1378,
      "duration": 0.1281,
      "velocity": 94,
      "chip": "ym2612"
    },
    {
      "channel": 5,
      "note": 32,
      "start": 1.1412,
      "duration": 0.2788,
      "velocity": 127,
      "chip": "ym2612"
    },
    {
      "channel": 2,
      "note": 71,
      "start": 1.2785,
      "duration": 0.0698,
      "velocity": 94,
      "chip": "ym2612"
    },
    {
      "channel": 3,
      "note": 71,
      "start": 1.2792,
      "duration": 0.0695,
      "velocity": 94,
      "chip": "ym2612"
    },
    {
      "channel": 2,
      "note": 69,
      "start": 1.4194,
      "duration": 0.0699,
      "velocity": 94,
      "chip": "ym2612"
    },
    {
      "channel": 5,
      "note": 32,
      "start": 1.4226,
      "duration": 0.2798,
      "velocity": 127,
      "chip": "ym2612"
    },
    {
      "channel": 1,
      "note": 57,
      "start": 1.5481,
      "duration": 0.1403,
      "velocity": 94,
      "chip": "ym2612"
    },
    {
      "channel": 2,
      "note": 71,
      "start": 1.5601,
      "duration": 0.0699,
      "velocity": 94,
      "chip": "ym2612"
    },
    {
      "channel": 3,
      "note": 71,
      "start": 1.5609,
      "duration": 0.0695,
      "velocity": 94,
      "chip": "ym2612"
    },
    {
      "channel": 0,
      "note": 57,
      "start": 1.7003,
      "duration": 0.1286,
      "velocity": 100,
      "chip": "ym2612"
    },
    {
      "channel": 2,
      "note": 74,
      "start": 1.7014,
      "duration": 0.0695,
      "velocity": 94,
      "chip": "ym2612"
    },
    {
      "channel": 3,
      "note": 69,
      "start": 1.7021,
      "duration": 0.0692,
      "velocity": 94,
      "chip": "ym2612"
    },
    {
      "channel": 5,
      "note": 32,
      "start": 1.7049,
      "duration": 0.2795,
      "velocity": 127,
      "chip": "ym2612"
    },
    {
      "channel": 0,
      "note": 64,
      "start": 1.8411,
      "duration": 0.1286,
      "velocity": 100,
      "chip": "ym2612"
    },
    {
      "channel": 2,
      "note": 69,
      "start": 1.8422,
      "duration": 0.0695,
      "velocity": 94,
      "chip": "ym2612"
    },
    {
      "channel": 3,
      "note": 71,
      "start": 1.8429,
      "duration": 0.0692,
      "velocity": 94,
      "chip": "ym2612"
    },
    {
      "channel": 0,
      "note": 69,
      "start": 1.982,
      "duration": 0.1286,
      "velocity": 100,
      "chip": "ym2612"
    },
    {
      "channel": 1,
      "note": 57,
      "start": 1.9828,
      "duration": 0.1282,
      "velocity": 94,
      "chip": "ym2612"
    },
    {
      "channel": 2,
      "note": 71,
      "start": 1.9834,
      "duration": 0.0691,
      "velocity": 94,
      "chip": "ym2612"
    },
    {
      "channel": 3,
      "note": 74,
      "start": 1.9841,
      "duration": 0.0688,
      "velocity": 94,
      "chip": "ym2612"
    },
    {
      "channel": 5,
      "note": 32,
      "start": 1.9869,
      "duration": 0.138,
      "velocity": 127,
      "chip": "ym2612"
    },
    {
      "channel": 1,
      "note": 57,
      "start": 2.1232,
      "duration": 0.1286,
      "velocity": 94,
      "chip": "ym2612"
    },
    {
      "channel": 2,
      "note": 74,
      "start": 2.1239,
      "duration": 0.0695,
      "velocity": 94,
      "chip": "ym2612"
    },
    {
      "channel": 3,
      "note": 69,
      "start": 2.1246,
      "duration": 0.0692,
      "velocity": 94,
      "chip": "ym2612"
    },
    {
      "channel": 5,
      "note": 32,
      "start": 2.1273,
      "duration": 0.1388,
      "velocity": 127,
      "chip": "ym2612"
    },
    {
      "channel": 0,
      "note": 57,
      "start": 2.2638,
      "duration": 0.1285,
      "velocity": 100,
      "chip": "ym2612"
    },
    {
      "channel": 1,
      "note": 57,
      "start": 2.2644,
      "duration": 0.1283,
      "velocity": 94,
      "chip": "ym2612"
    },
    {
      "channel": 2,
      "note": 76,
      "start": 2.2652,
      "duration": 0.069,
      "velocity": 94,
      "chip": "ym2612"
    },
    {
      "channel": 3,
      "note": 71,
      "start": 2.2659,
      "duration": 0.0687,
      "velocity": 94,
      "chip": "ym2612"
    },
    {
      "channel": 5,
      "note": 32,
      "start": 2.2686,
      "duration": 0.1381,
      "velocity": 127,
      "chip": "ym2612"
    },
    {
      "channel": 0,
      "note": 64,
      "start": 2.4046,
      "duration": 0.1285,
      "velocity": 100,
      "chip": "ym2612"
    },
    {
      "channel": 1,
      "note": 57,
      "start": 2.4053,
      "duration": 0.1282,
      "velocity": 94,
      "chip": "ym2612"
    },
    {
      "channel": 3,
      "note": 74,
      "start": 2.4064,
      "duration": 0.0691,
      "velocity": 94,
      "chip": "ym2612"
    },
    {
      "channel": 5,
      "note": 32,
      "start": 2.4092,
      "duration": 0.4197,
      "velocity": 127,
      "chip": "ym2612"
    },
    {
      "channel": 0,
      "note": 69,
      "start": 2.5454,
      "duration": 0.1286,
      "velocity": 100,
      "chip": "ym2612"
    },
    {
      "channel": 2,
      "note": 76,
      "start": 2.5465,
      "duration": 0.0694,
      "velocity": 94,
      "chip": "ym2612"
    },
    {
      "channel": 3,
      "note": 76,
      "start": 2.5473,
      "duration": 0.069,
      "velocity": 94,
      "chip": "ym2612"
    },
    {
      "channel": 1,
      "note": 57,
      "start": 2.6867,
      "duration": 0.1285,
      "velocity": 94,
      "chip": "ym2612"
    },
    {
      "channel": 2,
      "note": 71,
      "start": 2.6874,
      "duration": 0.0693,
      "velocity": 94,
      "chip": "ym2612"
    },
    {
      "channel": 2,
      "note": 74,
      "start": 2.8278,
      "duration": 0.0699,
      "velocity": 94,
      "chip": "ym2612"
    },
    {
      "channel": 3,
      "note": 76,
      "start": 2.8286,
      "duration": 0.0695,
      "velocity": 94,
      "chip": "ym2612"
    },
    {
      "channel": 5,
      "note": 32,
      "start": 2.8313,
      "duration": 0.1383,
      "velocity": 127,
      "chip": "ym2612"
    },
    {
      "channel": 2,
      "note": 76,
      "start": 2.9687,
      "duration": 0.0698,
      "velocity": 94,
      "chip": "ym2612"
    },
    {
      "channel": 3,
      "note": 71,
      "start": 2.9694,
      "duration": 0.0695,
      "velocity": 94,
      "chip": "ym2612"
    },
    {
      "channel": 5,
      "note": 32,
      "start": 2.9722,
      "duration": 0.1387,
      "velocity": 127,
      "chip": "ym2612"
    },
    {
      "channel": 0,
      "note": 57,
      "start": 3.1088,
      "duration": 0.1286,
      "velocity": 100,
      "chip": "ym2612"
    },
    {
      "channel": 1,
      "note": 57,
      "start": 3.1096,
      "duration": 0.1283,
      "velocity": 94,
      "chip": "ym2612"
    },
    {
      "channel": 3,
      "note": 74,
      "start": 3.1106,
      "duration": 0.0691,
      "velocity": 94,
      "chip": "ym2612"
    },
    {
      "channel": 5,
      "note": 32,
      "start": 3.1134,
      "duration": 0.1386,
      "velocity": 127,
      "chip": "ym2612"
    },
    {
      "channel": 0,
      "note": 64,
      "start": 3.2497,
      "duration": 0.1285,
      "velocity": 100,
      "chip": "ym2612"
    },
    {
      "channel": 1,
      "note": 57,
      "start": 3.2503,
      "duration": 0.1283,
      "velocity": 94,
      "chip": "ym2612"
    },
    {
      "channel": 2,
      "note": 71,
      "start": 3.251,
      "duration": 0.0692,
      "velocity": 94,
      "chip": "ym2612"
    },
    {
      "channel": 3,
      "note": 76,
      "start": 3.2517,
      "duration": 0.0689,
      "velocity": 94,
      "chip": "ym2612"
    },
    {
      "channel": 5,
      "note": 32,
      "start": 3.2546,
      "duration": 0.1377,
      "velocity": 127,
      "chip": "ym2612"
    },
    {
      "channel": 0,
      "note": 69,
      "start": 3.3905,
      "duration": 0.1285,
      "velocity": 100,
      "chip": "ym2612"
    },
    {
      "channel": 1,
      "note": 57,
      "start": 3.3912,
      "duration": 0.1282,
      "velocity": 94,
      "chip": "ym2612"
    },
    {
      "channel": 5,
      "note": 32,
      "start": 3.3948,
      "duration": 0.2788,
      "velocity": 127,
      "chip": "ym2612"
    },
    {
      "channel": 2,
      "note": 71,
      "start": 3.5321,
      "duration": 0.0699,
      "velocity": 94,
      "chip": "ym2612"
    },
    {
      "channel": 3,
      "note": 71,
      "start": 3.5328,
      "duration": 0.0696,
      "velocity": 94,
      "chip": "ym2612"
    },
    {
      "channel": 2,
      "note": 69,
      "start": 3.6729,
      "duration": 0.0699,
      "velocity": 94,
      "chip": "ym2612"
    },
    {
      "channel": 5,
      "note": 32,
      "start": 3.6761,
      "duration": 0.2799,
      "velocity": 127,
      "chip": "ym2612"
    },
    {
      "channel": 1,
      "note": 57,
      "start": 3.8017,
      "duration": 0.1403,
      "velocity": 94,
      "chip": "ym2612"
    },
    {
      "channel": 2,
      "note": 71,
      "start": 3.8137,
      "duration": 0.07,
      "velocity": 94,
      "chip": "ym2612"
    },
    {
      "channel": 3,
      "note": 71,
      "start": 3.8144,
      "duration": 0.0696,
      "velocity": 94,
      "chip": "ym2612"
    },
    {
      "channel": 0,
      "note": 57,
      "start": 3.954,
      "duration": 0.1285,
      "velocity": 100,
      "chip": "ym2612"
    },
    {
      "channel": 2,
      "note": 74,
      "start": 3.955,
      "duration": 0.0694,
      "velocity": 94,
      "chip": "ym2612"
    },
    {
      "channel": 3,
      "note": 69,
      "start": 3.9557,
      "duration": 0.0691,
      "velocity": 94,
      "chip": "ym2612"
    },
    {
      "channel": 5,
      "note": 32,
      "start": 3.9585,
      "duration": 0.2796,
      "velocity": 127,
      "chip": "ym2612"
    },
    {
      "channel": 0,
      "note": 64,
      "start": 4.083,
      "duration": 0.1403,
      "velocity": 100,
      "chip": "ym2612"
    },
    {
      "channel": 2,
      "note": 71,
      "start": 4.0954,
      "duration": 0.0699,
      "velocity": 94,
      "chip": "ym2612"
    },
    {
      "channel": 3,
      "note": 71,
      "start": 4.0961,
      "duration": 0.0696,
      "velocity": 94,
      "chip": "ym2612"
    },
    {
      "channel": 0,
      "note": 69,
      "start": 4.2356,
      "duration": 0.1285,
      "velocity": 100,
      "chip": "ym2612"
    },
    {
      "channel": 1,
      "note": 57,
      "start": 4.2363,
      "duration": 0.1281,
      "velocity": 94,
      "chip": "ym2612"
    },
    {
      "channel": 2,
      "note": 74,
      "start": 4.2371,
      "duration": 0.069,
      "velocity": 94,
      "chip": "ym2612"
    },
    {
      "channel": 3,
      "note": 74,
      "start": 4.2378,
      "duration": 0.0686,
      "velocity": 94,
      "chip": "ym2612"
    },
    {
      "channel": 5,
      "note": 32,
      "start": 4.2405,
      "duration": 0.1379,
      "velocity": 127,
      "chip": "ym2612"
    },
    {
      "channel": 1,
      "note": 57,
      "start": 4.3768,
      "duration": 0.1286,
      "velocity": 94,
      "chip": "ym2612"
    },
    {
      "channel": 2,
      "note": 76,
      "start": 4.3775,
      "duration": 0.0695,
      "velocity": 94,
      "chip": "ym2612"
    },
    {
      "channel": 3,
      "note": 71,
      "start": 4.3781,
      "duration": 0.0692,
      "velocity": 94,
      "chip": "ym2612"
    },
    {
      "channel": 5,
      "note": 32,
      "start": 4.3809,
      "duration": 0.1388,
      "velocity": 127,
      "chip": "ym2612"
    },
    {
      "channel": 0,
      "note": 55,
      "start": 4.5173,
      "duration": 0.1285,
      "velocity": 100,
      "chip": "ym2612"
    },
    {
      "channel": 1,
      "note": 55,
      "start": 4.518,
      "duration": 0.1282,
      "velocity": 94,
      "chip": "ym2612"
    },
    {
      "channel": 2,
      "note": 74,
      "start": 4.5187,
      "duration": 0.0692,
      "velocity": 94,
      "chip": "ym2612"
    },
    {
      "channel": 3,
      "note": 74,
      "start": 4.5194,
      "duration": 0.0688,
      "velocity": 94,
      "chip": "ym2612"
    },
    {
      "channel": 5,
      "note": 32,
      "start": 4.5222,
      "duration": 0.138,
      "velocity": 127,
      "chip": "ym2612"
    },
    {
      "channel": 0,
      "note": 62,
      "start": 4.6581,
      "duration": 0.1285,
      "velocity": 100,
      "chip": "ym2612"
    },
    {
      "channel": 1,
      "note": 55,
      "start": 4.6589,
      "duration": 0.1286,
      "velocity": 94,
      "chip": "ym2612"
    },
    {
      "channel": 3,
      "note": 76,
      "start": 4.6599,
      "duration": 0.0691,
      "velocity": 94,
      "chip": "ym2612"
    },
    {
      "channel": 5,
      "note": 32,
      "start": 4.6627,
      "duration": 0.4197,
      "velocity": 127,
      "chip": "ym2612"
    },
    {
      "channel": 0,
      "note": 67,
      "start": 4.7874,
      "duration": 0.1401,
      "velocity": 100,
      "chip": "ym2612"
    },
    {
      "channel": 2,
      "note": 74,
      "start": 4.7997,
      "duration": 0.0698,
      "velocity": 94,
      "chip": "ym2612"
    },
    {
      "channel": 3,
      "note": 74,
      "start": 4.8004,
      "duration": 0.0695,
      "velocity": 94,
      "chip": "ym2612"
    },
    {
      "channel": 1,
      "note": 55,
      "start": 4.9402,
      "duration": 0.1285,
      "velocity": 94,
      "chip": "ym2612"
    },
    {
      "channel": 2,
      "note": 71,
      "start": 4.9409,
      "duration": 0.0695,
      "velocity": 94,
      "chip": "ym2612"
    },
    {
      "channel": 2,
      "note": 74,
      "start": 5.0814,
      "duration": 0.0699,
      "velocity": 94,
      "chip": "ym2612"
    },
    {
      "channel": 3,
      "note": 74,
      "start": 5.0821,
      "duration": 0.0696,
      "velocity": 94,
      "chip": "ym2612"
    },
    {
      "channel": 5,
      "note": 32,
      "start": 5.0849,
      "duration": 0.1384,
      "velocity": 127,
      "chip": "ym2612"
    },
    {
      "channel": 2,
      "note": 69,
      "start": 5.2224,
      "duration": 0.0698,
      "velocity": 94,
      "chip": "ym2612"
    },
    {
      "channel": 3,
      "note": 71,
      "start": 5.2231,
      "duration": 0.0695,
      "velocity": 94,
      "chip": "ym2612"
    },
    {
      "channel": 5,
      "note": 32,
      "start": 5.2258,
      "duration": 0.1387,
      "velocity": 127,
      "chip": "ym2612"
    },
    {
      "channel": 0,
      "note": 55,
      "start": 5.3624,
      "duration": 0.1285,
      "velocity": 100,
      "chip": "ym2612"
    },
    {
      "channel": 1,
      "note": 55,
      "start": 5.3631,
      "duration": 0.1282,
      "velocity": 94,
      "chip": "ym2612"
    },
    {
      "channel": 3,
      "note": 74,
      "start": 5.3641,
      "duration": 0.0691,
      "velocity": 94,
      "chip": "ym2612"
    },
    {
      "channel": 5,
      "note": 32,
      "start": 5.367,
      "duration": 0.1387,
      "velocity": 127,
      "chip": "ym2612"
    },
    {
      "channel": 0,
      "note": 62,
      "start": 5.5032,
      "duration": 0.1286,
      "velocity": 100,
      "chip": "ym2612"
    },
    {
      "channel": 1,
      "note": 55,
      "start": 5.5039,
      "duration": 0.1282,
      "velocity": 94,
      "chip": "ym2612"
    },
    {
      "channel": 2,
      "note": 71,
      "start": 5.5046,
      "duration": 0.0691,
      "velocity": 94,
      "chip": "ym2612"
    },
    {
      "channel": 3,
      "note": 69,
      "start": 5.5053,
      "duration": 0.0688,
      "velocity": 94,
      "chip": "ym2612"
    },
    {
      "channel": 5,
      "note": 32,
      "start": 5.5081,
      "duration": 0.1377,
      "velocity": 127,
      "chip": "ym2612"
    },
    {
      "channel": 0,
      "note": 67,
      "start": 5.6441,
      "duration": 0.1285,
      "velocity": 100,
      "chip": "ym2612"
    },
    {
      "channel": 1,
      "note": 55,
      "start": 5.6448,
      "duration": 0.1282,
      "velocity": 94,
      "chip": "ym2612"
    },
    {
      "channel": 5,
      "note": 32,
      "start": 5.6483,
      "duration": 0.2788,
      "velocity": 127,
      "chip": "ym2612"
    },
    {
      "channel": 2,
      "note": 71,
      "start": 5.7856,
      "duration": 0.0699,
      "velocity": 94,
      "chip": "ym2612"
    },
    {
      "channel": 3,
      "note": 71,
      "start": 5.7863,
      "duration": 0.0695,
      "velocity": 94,
      "chip": "ym2612"
    },
    {
      "channel": 2,
      "note": 69,
      "start": 5.9264,
      "duration": 0.0699,
      "velocity": 94,
      "chip": "ym2612"
    },
    {
      "channel": 5,
      "note": 32,
      "start": 5.9297,
      "duration": 0.2798,
      "velocity": 127,
      "chip": "ym2612"
    },
    {
      "channel": 1,
      "note": 55,
      "start": 6.0553,
      "duration": 0.1402,
      "velocity": 94,
      "chip": "ym2612"
    },
    {
      "channel": 2,
      "note": 71,
      "start": 6.0672,
      "duration": 0.07,
      "velocity": 94,
      "chip": "ym2612"
    },
    {
      "channel": 3,
      "note": 71,
      "start": 6.068,
      "duration": 0.0696,
      "velocity": 94,
      "chip": "ym2612"
    },
    {
      "channel": 0,
      "note": 55,
      "start": 6.2075,
      "duration": 0.1285,
      "velocity": 100,
      "chip": "ym2612"
    },
    {
      "channel": 2,
      "note": 74,
      "start": 6.2085,
      "duration": 0.0695,
      "velocity": 94,
      "chip": "ym2612"
    },
    {
      "channel": 3,
      "note": 69,
      "start": 6.2092,
      "duration": 0.0692,
      "velocity": 94,
      "chip": "ym2612"
    },
    {
      "channel": 5,
      "note": 32,
      "start": 6.212,
      "duration": 0.2796,
      "velocity": 127,
      "chip": "ym2612"
    },
    {
      "channel": 0,
      "note": 62,
      "start": 6.3483,
      "duration": 0.1285,
      "velocity": 100,
      "chip": "ym2612"
    },
    {
      "channel": 2,
      "note": 69,
      "start": 6.3493,
      "duration": 0.0696,
      "velocity": 94,
      "chip": "ym2612"
    },
    {
      "channel": 3,
      "note": 71,
      "start": 6.35,
      "duration": 0.0693,
      "velocity": 94,
      "chip": "ym2612"
    },
    {
      "channel": 0,
      "note": 67,
      "start": 6.4892,
      "duration": 0.1285,
      "velocity": 100,
      "chip": "ym2612"
    },
    {
      "channel": 1,
      "note": 55,
      "start": 6.4899,
      "duration": 0.1282,
      "velocity": 94,
      "chip": "ym2612"
    },
    {
      "channel": 2,
      "note": 71,
      "start": 6.4905,
      "duration": 0.0691,
      "velocity": 94,
      "chip": "ym2612"
    },
    {
      "channel": 3,
      "note": 74,
      "start": 6.4912,
      "duration": 0.0688,
      "velocity": 94,
      "chip": "ym2612"
    },
    {
      "channel": 5,
      "note": 32,
      "start": 6.494,
      "duration": 0.138,
      "velocity": 127,
      "chip": "ym2612"
    },
    {
      "channel": 1,
      "note": 55,
      "start": 6.6303,
      "duration": 0.1286,
      "velocity": 94,
      "chip": "ym2612"
    },
    {
      "channel": 2,
      "note": 74,
      "start": 6.631,
      "duration": 0.0695,
      "velocity": 94,
      "chip": "ym2612"
    },
    {
      "channel": 3,
      "note": 69,
      "start": 6.6317,
      "duration": 0.0692,
      "velocity": 94,
      "chip": "ym2612"
    },
    {
      "channel": 5,
      "note": 32,
      "start": 6.6344,
      "duration": 0.1389,
      "velocity": 127,
      "chip": "ym2612"
    },
    {
      "channel": 0,
      "note": 55,
      "start": 6.771,
      "duration": 0.1284,
      "velocity": 100,
      "chip": "ym2612"
    },
    {
      "channel": 1,
      "note": 55,
      "start": 6.7716,
      "duration": 0.1282,
      "velocity": 94,
      "chip": "ym2612"
    },
    {
      "channel": 2,
      "note": 74,
      "start": 6.7724,
      "duration": 0.069,
      "velocity": 94,
      "chip": "ym2612"
    },
    {
      "channel": 3,
      "note": 71,
      "start": 6.7731,
      "duration": 0.0686,
      "velocity": 94,
      "chip": "ym2612"
    },
    {
      "channel": 5,
      "note": 32,
      "start": 6.7758,
      "duration": 0.1379,
      "velocity": 127,
      "chip": "ym2612"
    },
    {
      "channel": 0,
      "note": 62,
      "start": 6.9116,
      "duration": 0.1286,
      "velocity": 100,
      "chip": "ym2612"
    },
    {
      "channel": 1,
      "note": 55,
      "start": 6.9124,
      "duration": 0.1282,
      "velocity": 94,
      "chip": "ym2612"
    },
    {
      "channel": 3,
      "note": 74,
      "start": 6.9134,
      "duration": 0.0691,
      "velocity": 94,
      "chip": "ym2612"
    },
    {
      "channel": 5,
      "note": 32,
      "start": 6.9162,
      "duration": 0.4198,
      "velocity": 127,
      "chip": "ym2612"
    },
    {
      "channel": 0,
      "note": 67,
      "start": 7.0525,
      "duration": 0.1285,
      "velocity": 100,
      "chip": "ym2612"
    },
    {
      "channel": 2,
      "note": 74,
      "start": 7.0537,
      "duration": 0.0693,
      "velocity": 94,
      "chip": "ym2612"
    },
    {
      "channel": 3,
      "note": 74,
      "start": 7.0544,
      "duration": 0.069,
      "velocity": 94,
      "chip": "ym2612"
    },
    {
      "channel": 1,
      "note": 55,
      "start": 7.1937,
      "duration": 0.1285,
      "velocity": 94,
      "chip": "ym2612"
    },
    {
      "channel": 2,
      "note": 71,
      "start": 7.1944,
      "duration": 0.0695,
      "velocity": 94,
      "chip": "ym2612"
    },
    {
      "channel": 2,
      "note": 74,
      "start": 7.3349,
      "duration": 0.07,
      "velocity": 94,
      "chip": "ym2612"
    },
    {
      "channel": 3,
      "note": 74,
      "start": 7.3356,
      "duration": 0.0697,
      "velocity": 94,
      "chip": "ym2612"
    },
    {
      "channel": 5,
      "note": 32,
      "start": 7.3385,
      "duration": 0.1383,
      "velocity": 127,
      "chip": "ym2612"
    },
    {
      "channel": 2,
      "note": 69,
      "start": 7.4758,
      "duration": 0.0698,
      "velocity": 94,
      "chip": "ym2612"
    },
    {
      "channel": 3,
      "note": 71,
      "start": 7.4765,
      "duration": 0.0695,
      "velocity": 94,
      "chip": "ym2612"
    },
    {
      "channel": 5,
      "note": 32,
      "start": 7.4793,
      "duration": 0.1387,
      "velocity": 127,
      "chip": "ym2612"
    },
    {
      "channel": 0,
      "note": 55,
      "start": 7.6159,
      "duration": 0.1285,
      "velocity": 100,
      "chip": "ym2612"
    },
    {
      "channel": 1,
      "note": 55,
      "start": 7.6166,
      "duration": 0.1282,
      "velocity": 94,
      "chip": "ym2612"
    },
    {
      "channel": 3,
      "note": 74,
      "start": 7.6177,
      "duration": 0.069,
      "velocity": 94,
      "chip": "ym2612"
    },
    {
      "channel": 5,
      "note": 32,
      "start": 7.6206,
      "duration": 0.1385,
      "velocity": 127,
      "chip": "ym2612"
    },
    {
      "channel": 0,
      "note": 62,
      "start": 7.7567,
      "duration": 0.1286,
      "velocity": 100,
      "chip": "ym2612"
    },
    {
      "channel": 1,
      "note": 55,
      "start": 7.7574,
      "duration": 0.1283,
      "velocity": 94,
      "chip": "ym2612"
    },
    {
      "channel": 2,
      "note": 71,
      "start": 7.758,
      "duration": 0.0692,
      "velocity": 94,
      "chip": "ym2612"
    },
    {
      "channel": 3,
      "note": 69,
      "start": 7.7588,
      "duration": 0.0688,
      "velocity": 94,
      "chip": "ym2612"
    },
    {
      "channel": 5,
      "note": 32,
      "start": 7.7616,
      "duration": 0.1378,
      "velocity": 127,
      "chip": "ym2612"
    },
    {
      "channel": 0,
      "note": 67,
      "start": 7.8976,
      "duration": 0.1285,
      "velocity": 100,
      "chip": "ym2612"
    },
    {
      "channel": 1,
      "note": 55,
      "start": 7.8984,
      "duration": 0.1282,
      "velocity": 94,
      "chip": "ym2612"
    },
    {
      "channel": 5,
      "note": 32,
      "start": 7.9019,
      "duration": 0.2788,
      "velocity": 127,
      "chip": "ym2612"
    },
    {
      "channel": 2,
      "note": 71,
      "start": 8.0392,
      "duration": 0.0699,
      "velocity": 94,
      "chip": "ym2612"
    },
    {
      "channel": 3,
      "note": 71,
      "start": 8.0399,
      "duration": 0.0695,
      "velocity": 94,
      "chip": "ym2612"
    },
    {
      "channel": 2,
      "note": 69,
      "start": 8.18,
      "duration": 0.0699,
      "velocity": 94,
      "chip": "ym2612"
    },
    {
      "channel": 5,
      "note": 32,
      "start": 8.1832,
      "duration": 0.2798,
      "velocity": 127,
      "chip": "ym2612"
    },
    {
      "channel": 1,
      "note": 55,
      "start": 8.3088,
      "duration": 0.1402,
      "velocity": 94,
      "chip": "ym2612"
    },
    {
      "channel": 2,
      "note": 71,
      "start": 8.3208,
      "duration": 0.0698,
      "velocity": 94,
      "chip": "ym2612"
    },
    {
      "channel": 3,
      "note": 71,
      "start": 8.3216,
      "duration": 0.0695,
      "velocity": 94,
      "chip": "ym2612"
    },
    {
      "channel": 0,
      "note": 55,
      "start": 8.461,
      "duration": 0.1285,
      "velocity": 100,
      "chip": "ym2612"
    },
    {
      "channel": 2,
      "note": 74,
      "start": 8.4621,
      "duration": 0.0695,
      "velocity": 94,
      "chip": "ym2612"
    },
    {
      "channel": 3,
      "note": 69,
      "start": 8.4627,
      "duration": 0.0692,
      "velocity": 94,
      "chip": "ym2612"
    },
    {
      "channel": 5,
      "note": 32,
      "start": 8.4655,
      "duration": 0.2796,
      "velocity": 127,
      "chip": "ym2612"
    },
    {
      "channel": 0,
      "note": 62,
      "start": 8.5901,
      "duration": 0.1403,
      "velocity": 100,
      "chip": "ym2612"
    },
    {
      "channel": 2,
      "note": 69,
      "start": 8.6024,
      "duration": 0.0699,
      "velocity": 94,
      "chip": "ym2612"
    },
    {
      "channel": 3,
      "note": 71,
      "start": 8.6032,
      "duration": 0.0696,
      "velocity": 94,
      "chip": "ym2612"
    },
    {
      "channel": 0,
      "note": 67,
      "start": 8.7427,
      "duration": 0.1285,
      "velocity": 100,
      "chip": "ym2612"
    },
    {
      "channel": 1,
      "note": 55,
      "start": 8.7434,
      "duration": 0.1282,
      "velocity": 94,
      "chip": "ym2612"
    },
    {
      "channel": 2,
      "note": 71,
      "start": 8.7441,
      "duration": 0.069,
      "velocity": 94,
      "chip": "ym2612"
    },
    {
      "channel": 3,
      "note": 74,
      "start": 8.7448,
      "duration": 0.0687,
      "velocity": 94,
      "chip": "ym2612"
    },
    {
      "channel": 5,
      "note": 32,
      "start": 8.7476,
      "duration": 0.138,
      "velocity": 127,
      "chip": "ym2612"
    },
    {
      "channel": 1,
      "note": 55,
      "start": 8.8839,
      "duration": 0.1285,
      "velocity": 94,
      "chip": "ym2612"
    },
    {
      "channel": 2,
      "note": 74,
      "start": 8.8846,
      "duration": 0.0695,
      "velocity": 94,
      "chip": "ym2612"
    },
    {
      "channel": 3,
      "note": 69,
      "start": 8.8853,
      "duration": 0.0693,
      "velocity": 94,
      "chip": "ym2612"
    },
    {
      "channel": 5,
      "note": 32,
      "start": 8.8881,
      "duration": 0.139,
      "velocity": 127,
      "chip": "ym2612"
    },
    {
      "channel": 0,
      "note": 57,
      "start": 9.0246,
      "duration": 0.1284,
      "velocity": 100,
      "chip": "ym2612"
    },
    {
      "channel": 1,
      "note": 57,
      "start": 9.0253,
      "duration": 0.128,
      "velocity": 94,
      "chip": "ym2612"
    },
    {
      "channel": 2,
      "note": 76,
      "start": 9.026,
      "duration": 0.0571,
      "velocity": 94,
      "chip": "ym2612"
    },
    {
      "channel": 3,
      "note": 71,
      "start": 9.0267,
      "duration": 0.0685,
      "velocity": 94,
      "chip": "ym2612"
    },
    {
      "channel": 5,
      "note": 32,
      "start": 9.0295,
      "duration": 0.0192,
      "velocity": 127,
      "chip": "ym2612"
    },
    {
      "channel": 5,
      "note": 68,
      "start": 9.0511,
      "duration": 0.1036,
      "velocity": 117,
      "chip": "ym2612"
    },
    {
      "channel": 0,
      "note": 64,
      "start": 9.1652,
      "duration": 0.1285,
      "velocity": 100,
      "chip": "ym2612"
    },
    {
      "channel": 1,
      "note": 57,
      "start": 9.166,
      "duration": 0.1285,
      "velocity": 94,
      "chip": "ym2612"
    },
    {
      "channel": 3,
      "note": 74,
      "start": 9.167,
      "duration": 0.0691,
      "velocity": 94,
      "chip": "ym2612"
    },
    {
      "channel": 5,
      "note": 32,
      "start": 9.1696,
      "duration": 0.42,
      "velocity": 127,
      "chip": "ym2612"
    },
    {
      "channel": 0,
      "note": 69,
      "start": 9.2944,
      "duration": 0.1403,
      "velocity": 100,
      "chip": "ym2612"
    },
    {
      "channel": 2,
      "note": 76,
      "start": 9.3068,
      "duration": 0.0698,
      "velocity": 94,
      "chip": "ym2612"
    },
    {
      "channel": 3,
      "note": 76,
      "start": 9.3075,
      "duration": 0.0576,
      "velocity": 94,
      "chip": "ym2612"
    },
    {
      "channel": 1,
      "note": 57,
      "start": 9.4473,
      "duration": 0.1285,
      "velocity": 94,
      "chip": "ym2612"
    },
    {
      "channel": 2,
      "note": 71,
      "start": 9.4479,
      "duration": 0.0695,
      "velocity": 94,
      "chip": "ym2612"
    },
    {
      "channel": 2,
      "note": 74,
      "start": 9.5885,
      "duration": 0.0698,
      "velocity": 94,
      "chip": "ym2612"
    },
    {
      "channel": 3,
      "note": 76,
      "start": 9.5893,
      "duration": 0.0695,
      "velocity": 94,
      "chip": "ym2612"
    },
    {
      "channel": 5,
      "note": 32,
      "start": 9.5921,
      "duration": 0.1382,
      "velocity": 127,
      "chip": "ym2612"
    },
    {
      "channel": 2,
      "note": 76,
      "start": 9.7294,
      "duration": 0.0698,
      "velocity": 94,
      "chip": "ym2612"
    },
    {
      "channel": 3,
      "note": 71,
      "start": 9.7301,
      "duration": 0.0695,
      "velocity": 94,
      "chip": "ym2612"
    },
    {
      "channel": 5,
      "note": 32,
      "start": 9.7328,
      "duration": 0.1389,
      "velocity": 127,
      "chip": "ym2612"
    },
    {
      "channel": 0,
      "note": 57,
      "start": 9.8695,
      "duration": 0.1285,
      "velocity": 100,
      "chip": "ym2612"
    },
    {
      "channel": 1,
      "note": 57,
      "start": 9.8702,
      "duration": 0.1282,
      "velocity": 94,
      "chip": "ym2612"
    },
    {
      "channel": 3,
      "note": 74,
      "start": 9.8713,
      "duration": 0.069,
      "velocity": 94,
      "chip": "ym2612"
    },
    {
      "channel": 5,
      "note": 32,
      "start": 9.8741,
      "duration": 0.1385,
      "velocity": 127,
      "chip": "ym2612"
    },
    {
      "channel": 0,
      "note": 64,
      "start": 10.0103,
      "duration": 0.1286,
      "velocity": 100,
      "chip": "ym2612"
    },
    {
      "channel": 1,
      "note": 57,
      "start": 10.0109,
      "duration": 0.1283,
      "velocity": 94,
      "chip": "ym2612"
    },
    {
      "channel": 2,
      "note": 71,
      "start": 10.0116,
      "duration": 0.0691,
      "velocity": 94,
      "chip": "ym2612"
    },
    {
      "channel": 3,
      "note": 76,
      "start": 10.0124,
      "duration": 0.0688,
      "velocity": 94,
      "chip": "ym2612"
    },
    {
      "channel": 5,
      "note": 32,
      "start": 10.0151,
      "duration": 0.1378,
      "velocity": 127,
      "chip": "ym2612"
    },
    {
      "channel": 0,
      "note": 69,
      "start": 10.1512,
      "duration": 0.1285,
      "velocity": 100,
      "chip": "ym2612"
    },
    {
      "channel": 1,
      "note": 57,
      "start": 10.152,
      "duration": 0.1281,
      "velocity": 94,
      "chip": "ym2612"
    },
    {
      "channel": 5,
      "note": 32,
      "start": 10.1555,
      "duration": 0.2788,
      "velocity": 127,
      "chip": "ym2612"
    },
    {
      "channel": 2,
      "note": 71,
      "start": 10.2928,
      "duration": 0.0698,
      "velocity": 94,
      "chip": "ym2612"
    },
    {
      "channel": 3,
      "note": 71,
      "start": 10.2935,
      "duration": 0.0695,
      "velocity": 94,
      "chip": "ym2612"
    },
    {
      "channel": 2,
      "note": 69,
      "start": 10.4336,
      "duration": 0.0699,
      "velocity": 94,
      "chip": "ym2612"
    },
    {
      "channel": 5,
      "note": 32,
      "start": 10.4368,
      "duration": 0.2798,
      "velocity": 127,
      "chip": "ym2612"
    },
    {
      "channel": 1,
      "note": 57,
      "start": 10.5623,
      "duration": 0.1403,
      "velocity": 94,
      "chip": "ym2612"
    },
    {
      "channel": 2,
      "note": 71,
      "start": 10.5743,
      "duration": 0.0699,
      "velocity": 94,
      "chip": "ym2612"
    },
    {
      "channel": 3,
      "note": 71,
      "start": 10.5751,
      "duration": 0.0695,
      "velocity": 94,
      "chip": "ym2612"
    },
    {
      "channel": 0,
      "note": 57,
      "start": 10.7145,
      "duration": 0.1286,
      "velocity": 100,
      "chip": "ym2612"
    },
    {
      "channel": 2,
      "note": 74,
      "start": 10.7156,
      "duration": 0.0695,
      "velocity": 94,
      "chip": "ym2612"
    },
    {
      "channel": 3,
      "note": 69,
      "start": 10.7163,
      "duration": 0.0691,
      "velocity": 94,
      "chip": "ym2612"
    },
    {
      "channel": 5,
      "note": 32,
      "start": 10.719,
      "duration": 0.2796,
      "velocity": 127,
      "chip": "ym2612"
    },
    {
      "channel": 0,
      "note": 64,
      "start": 10.8554,
      "duration": 0.1286,
      "velocity": 100,
      "chip": "ym2612"
    },
    {
      "channel": 2,
      "note": 69,
      "start": 10.8564,
      "duration": 0.0695,
      "velocity": 94,
      "chip": "ym2612"
    },
    {
      "channel": 3,
      "note": 71,
      "start": 10.8571,
      "duration": 0.0692,
      "velocity": 94,
      "chip": "ym2612"
    },
    {
      "channel": 0,
      "note": 69,
      "start": 10.9962,
      "duration": 0.1286,
      "velocity": 100,
      "chip": "ym2612"
    },
    {
      "channel": 1,
      "note": 57,
      "start": 10.997,
      "duration": 0.1282,
      "velocity": 94,
      "chip": "ym2612"
    },
    {
      "channel": 2,
      "note": 71,
      "start": 10.9976,
      "duration": 0.0691,
      "velocity": 94,
      "chip": "ym2612"
    },
    {
      "channel": 3,
      "note": 74,
      "start": 10.9983,
      "duration": 0.0688,
      "velocity": 94,
      "chip": "ym2612"
    },
    {
      "channel": 5,
      "note": 32,
      "start": 11.001,
      "duration": 0.1381,
      "velocity": 127,
      "chip": "ym2612"
    },
    {
      "channel": 1,
      "note": 57,
      "start": 11.1375,
      "duration": 0.1285,
      "velocity": 94,
      "chip": "ym2612"
    },
    {
      "channel": 2,
      "note": 74,
      "start": 11.1381,
      "duration": 0.0695,
      "velocity": 94,
      "chip": "ym2612"
    },
    {
      "channel": 3,
      "note": 69,
      "start": 11.1388,
      "duration": 0.0691,
      "velocity": 94,
      "chip": "ym2612"
    },
    {
      "channel": 5,
      "note": 32,
      "start": 11.1416,
      "duration": 0.1387,
      "velocity": 127,
      "chip": "ym2612"
    },
    {
      "channel": 0,
      "note": 57,
      "start": 11.278,
      "duration": 0.1285,
      "velocity": 100,
      "chip": "ym2612"
    },
    {
      "channel": 1,
      "note": 57,
      "start": 11.2786,
      "duration": 0.1283,
      "velocity": 94,
      "chip": "ym2612"
    },
    {
      "channel": 2,
      "note": 76,
      "start": 11.2794,
      "duration": 0.069,
      "velocity": 94,
      "chip": "ym2612"
    },
    {
      "channel": 3,
      "note": 71,
      "start": 11.2801,
      "duration": 0.0687,
      "velocity": 94,
      "chip": "ym2612"
    },
    {
      "channel": 5,
      "note": 32,
      "start": 11.2828,
      "duration": 0.1381,
      "velocity": 127,
      "chip": "ym2612"
    },
    {
      "channel": 0,
      "note": 64,
      "start": 11.4187,
      "duration": 0.1286,
      "velocity": 100,
      "chip": "ym2612"
    },
    {
      "channel": 1,
      "note": 57,
      "start": 11.4195,
      "duration": 0.1282,
      "velocity": 94,
      "chip": "ym2612"
    },
    {
      "channel": 3,
      "note": 74,
      "start": 11.4206,
      "duration": 0.069,
      "velocity": 94,
      "chip": "ym2612"
    },
    {
      "channel": 5,
      "note": 32,
      "start": 11.4234,
      "duration": 0.4196,
      "velocity": 127,
      "chip": "ym2612"
    },
    {
      "channel": 0,
      "note": 69,
      "start": 11.5596,
      "duration": 0.1286,
      "velocity": 100,
      "chip": "ym2612"
    },
    {
      "channel": 2,
      "note": 76,
      "start": 11.5607,
      "duration": 0.0342,
      "velocity": 94,
      "chip": "ym2612"
    },
    {
      "channel": 3,
      "note": 76,
      "start": 11.5615,
      "duration": 0.0691,
      "velocity": 94,
      "chip": "ym2612"
    },
    {
      "channel": 1,
      "note": 57,
      "start": 11.7009,
      "duration": 0.1285,
      "velocity": 94,
      "chip": "ym2612"
    },
    {
      "channel": 2,
      "note": 71,
      "start": 11.7016,
      "duration": 0.0695,
      "velocity": 94,
      "chip": "ym2612"
    },
    {
      "channel": 2,
      "note": 74,
      "start": 11.842,
      "duration": 0.0699,
      "velocity": 94,
      "chip": "ym2612"
    },
    {
      "channel": 3,
      "note": 76,
      "start": 11.8428,
      "duration": 0.0342,
      "velocity": 94,
      "chip": "ym2612"
    },
    {
      "channel": 5,
      "note": 32,
      "start": 11.8455,
      "duration": 0.1384,
      "velocity": 127,
      "chip": "ym2612"
    },
    {
      "channel": 2,
      "note": 76,
      "start": 11.9829,
      "duration": 0.0698,
      "velocity": 94,
      "chip": "ym2612"
    },
    {
      "channel": 3,
      "note": 71,
      "start": 11.9837,
      "duration": 0.0695,
      "velocity": 94,
      "chip": "ym2612"
    },
    {
      "channel": 5,
      "note": 32,
      "start": 11.9864,
      "duration": 0.1387,
      "velocity": 127,
      "chip": "ym2612"
    },
    {
      "channel": 0,
      "note": 57,
      "start": 12.123,
      "duration": 0.1286,
      "velocity": 100,
      "chip": "ym2612"
    },
    {
      "channel": 1,
      "note": 57,
      "start": 12.1238,
      "duration": 0.1282,
      "velocity": 94,
      "chip": "ym2612"
    },
    {
      "channel": 3,
      "note": 74,
      "start": 12.1248,
      "duration": 0.0691,
      "velocity": 94,
      "chip": "ym2612"
    },
    {
      "channel": 5,
      "note": 32,
      "start": 12.1276,
      "duration": 0.1386,
      "velocity": 127,
      "chip": "ym2612"
    },
    {
      "channel": 0,
      "note": 64,
      "start": 12.2638,
      "duration": 0.1286,
      "velocity": 100,
      "chip": "ym2612"
    },
    {
      "channel": 1,
      "note": 57,
      "start": 12.2645,
      "duration": 0.1283,
      "velocity": 94,
      "chip": "ym2612"
    },
    {
      "channel": 2,
      "note": 71,
      "start": 12.2652,
      "duration": 0.0691,
      "velocity": 94,
      "chip": "ym2612"
    },
    {
      "channel": 3,
      "note": 76,
      "start": 12.2659,
      "duration": 0.0688,
      "velocity": 94,
      "chip": "ym2612"
    },
    {
      "channel": 5,
      "note": 32,
      "start": 12.2687,
      "duration": 0.1379,
      "velocity": 127,
      "chip": "ym2612"
    },
    {
      "channel": 0,
      "note": 69,
      "start": 12.4048,
      "duration": 0.1284,
      "velocity": 100,
      "chip": "ym2612"
    },
    {
      "channel": 1,
      "note": 57,
      "start": 12.4056,
      "duration": 0.1281,
      "velocity": 94,
      "chip": "ym2612"
    },
    {
      "channel": 5,
      "note": 32,
      "start": 12.4091,
      "duration": 0.2788,
      "velocity": 127,
      "chip": "ym2612"
    },
    {
      "channel": 2,
      "note": 71,
      "start": 12.5463,
      "duration": 0.0698,
      "velocity": 94,
      "chip": "ym2612"
    },
    {
      "channel": 3,
      "note": 71,
      "start": 12.547,
      "duration": 0.0695,
      "velocity": 94,
      "chip": "ym2612"
    },
    {
      "channel": 2,
      "note": 69,
      "start": 12.6872,
      "duration": 0.0698,
      "velocity": 94,
      "chip": "ym2612"
    },
    {
      "channel": 5,
      "note": 32,
      "start": 12.6904,
      "duration": 0.2798,
      "velocity": 127,
      "chip": "ym2612"
    },
    {
      "channel": 1,
      "note": 57,
      "start": 12.8159,
      "duration": 0.1403,
      "velocity": 94,
      "chip": "ym2612"
    },
    {
      "channel": 2,
      "note": 71,
      "start": 12.8279,
      "duration": 0.0699,
      "velocity": 94,
      "chip": "ym2612"
    },
    {
      "channel": 3,
      "note": 71,
      "start": 12.8287,
      "duration": 0.0695,
      "velocity": 94,
      "chip": "ym2612"
    },
    {
      "channel": 0,
      "note": 57,
      "start": 12.9681,
      "duration": 0.1286,
      "velocity": 100,
      "chip": "ym2612"
    },
    {
      "channel": 2,
      "note": 74,
      "start": 12.9692,
      "duration": 0.0695,
      "velocity": 94,
      "chip": "ym2612"
    },
    {
      "channel": 3,
      "note": 69,
      "start": 12.9699,
      "duration": 0.0691,
      "velocity": 94,
      "chip": "ym2612"
    },
    {
      "channel": 5,
      "note": 32,
      "start": 12.9727,
      "duration": 0.2795,
      "velocity": 127,
      "chip": "ym2612"
    },
    {
      "channel": 0,
      "note": 64,
      "start": 13.1089,
      "duration": 0.1287,
      "velocity": 100,
      "chip": "ym2612"
    },
    {
      "channel": 2,
      "note": 71,
      "start": 13.11,
      "duration": 0.0695,
      "velocity": 94,
      "chip": "ym2612"
    },
    {
      "channel": 3,
      "note": 71,
      "start": 13.1107,
      "duration": 0.0692,
      "velocity": 94,
      "chip": "ym2612"
    },
    {
      "channel": 0,
      "note": 69,
      "start": 13.2498,
      "duration": 0.1286,
      "velocity": 100,
      "chip": "ym2612"
    },
    {
      "channel": 1,
      "note": 57,
      "start": 13.2505,
      "duration": 0.1282,
      "velocity": 94,
      "chip": "ym2612"
    },
    {
      "channel": 2,
      "note": 74,
      "start": 13.2512,
      "duration": 0.0691,
      "velocity": 94,
      "chip": "ym2612"
    },
    {
      "channel": 3,
      "note": 74,
      "start": 13.2519,
      "duration": 0.0688,
      "velocity": 94,
      "chip": "ym2612"
    },
    {
      "channel": 5,
      "note": 32,
      "start": 13.2547,
      "duration": 0.1378,
      "velocity": 127,
      "chip": "ym2612"
    },
    {
      "channel": 1,
      "note": 57,
      "start": 13.3909,
      "duration": 0.1286,
      "velocity": 94,
      "chip": "ym2612"
    },
    {
      "channel": 2,
      "note": 76,
      "start": 13.3916,
      "duration": 0.0695,
      "velocity": 94,
      "chip": "ym2612"
    },
    {
      "channel": 3,
      "note": 71,
      "start": 13.3923,
      "duration": 0.0692,
      "velocity": 94,
      "chip": "ym2612"
    },
    {
      "channel": 5,
      "note": 32,
      "start": 13.3951,
      "duration": 0.1388,
      "velocity": 127,
      "chip": "ym2612"
    },
    {
      "channel": 0,
      "note": 55,
      "start": 13.5315,
      "duration": 0.1285,
      "velocity": 100,
      "chip": "ym2612"
    },
    {
      "channel": 1,
      "note": 55,
      "start": 13.5322,
      "duration": 0.1283,
      "velocity": 94,
      "chip": "ym2612"
    },
    {
      "channel": 2,
      "note": 74,
      "start": 13.5329,
      "duration": 0.069,
      "velocity": 94,
      "chip": "ym2612"
    },
    {
      "channel": 3,
      "note": 74,
      "start": 13.5336,
      "duration": 0.0687,
      "velocity": 94,
      "chip": "ym2612"
    },
    {
      "channel": 5,
      "note": 32,
      "start": 13.5363,
      "duration": 0.138,
      "velocity": 127,
      "chip": "ym2612"
    },
    {
      "channel": 0,
      "note": 62,
      "start": 13.6723,
      "duration": 0.1286,
      "velocity": 100,
      "chip": "ym2612"
    },
    {
      "channel": 1,
      "note": 55,
      "start": 13.673,
      "duration": 0.1283,
      "velocity": 94,
      "chip": "ym2612"
    },
    {
      "channel": 3,
      "note": 76,
      "start": 13.6741,
      "duration": 0.0691,
      "velocity": 94,
      "chip": "ym2612"
    },
    {
      "channel": 5,
      "note": 32,
      "start": 13.6769,
      "duration": 0.4197,
      "velocity": 127,
      "chip": "ym2612"
    },
    {
      "channel": 0,
      "note": 67,
      "start": 13.8132,
      "duration": 0.1285,
      "velocity": 100,
      "chip": "ym2612"
    },
    {
      "channel": 2,
      "note": 74,
      "start": 13.8143,
      "duration": 0.0694,
      "velocity": 94,
      "chip": "ym2612"
    },
    {
      "channel": 3,
      "note": 74,
      "start": 13.815,
      "duration": 0.069,
      "velocity": 94,
      "chip": "ym2612"
    },
    {
      "channel": 1,
      "note": 55,
      "start": 13.9545,
      "duration": 0.1284,
      "velocity": 94,
      "chip": "ym2612"
    },
    {
      "channel": 2,
      "note": 71,
      "start": 13.9551,
      "duration": 0.0695,
      "velocity": 94,
      "chip": "ym2612"
    },
    {
      "channel": 2,
      "note": 74,
      "start": 14.0956,
      "duration": 0.0698,
      "velocity": 94,
      "chip": "ym2612"
    },
    {
      "channel": 3,
      "note": 74,
      "start": 14.0963,
      "duration": 0.0696,
      "velocity": 94,
      "chip": "ym2612"
    },
    {
      "channel": 5,
      "note": 32,
      "start": 14.0991,
      "duration": 0.1385,
      "velocity": 127,
      "chip": "ym2612"
    },
    {
      "channel": 2,
      "note": 69,
      "start": 14.2365,
      "duration": 0.0698,
      "velocity": 94,
      "chip": "ym2612"
    },
    {
      "channel": 3,
      "note": 71,
      "start": 14.2373,
      "duration": 0.0695,
      "velocity": 94,
      "chip": "ym2612"
    },
    {
      "channel": 5,
      "note": 32,
      "start": 14.24,
      "duration": 0.1387,
      "velocity": 127,
      "chip": "ym2612"
    },
    {
      "channel": 0,
      "note": 55,
      "start": 14.3766,
      "duration": 0.1286,
      "velocity": 100,
      "chip": "ym2612"
    },
    {
      "channel": 1,
      "note": 55,
      "start": 14.3773,
      "duration": 0.1281,
      "velocity": 94,
      "chip": "ym2612"
    },
    {
      "channel": 3,
      "note": 74,
      "start": 14.3783,
      "duration": 0.0691,
      "velocity": 94,
      "chip": "ym2612"
    },
    {
      "channel": 5,
      "note": 32,
      "start": 14.3811,
      "duration": 0.1386,
      "velocity": 127,
      "chip": "ym2612"
    },
    {
      "channel": 0,
      "note": 62,
      "start": 14.5173,
      "duration": 0.1286,
      "velocity": 100,
      "chip": "ym2612"
    },
    {
      "channel": 1,
      "note": 55,
      "start": 14.518,
      "duration": 0.1283,
      "velocity": 94,
      "chip": "ym2612"
    },
    {
      "channel": 2,
      "note": 71,
      "start": 14.5187,
      "duration": 0.0693,
      "velocity": 94,
      "chip": "ym2612"
    },
    {
      "channel": 3,
      "note": 69,
      "start": 14.5194,
      "duration": 0.0689,
      "velocity": 94,
      "chip": "ym2612"
    },
    {
      "channel": 5,
      "note": 32,
      "start": 14.5223,
      "duration": 0.1377,
      "velocity": 127,
      "chip": "ym2612"
    },
    {
      "channel": 0,
      "note": 67,
      "start": 14.6582,
      "duration": 0.1286,
      "velocity": 100,
      "chip": "ym2612"
    },
    {
      "channel": 1,
      "note": 55,
      "start": 14.659,
      "duration": 0.1283,
      "velocity": 94,
      "chip": "ym2612"
    },
    {
      "channel": 5,
      "note": 32,
      "start": 14.6625,
      "duration": 0.2788,
      "velocity": 127,
      "chip": "ym2612"
    },
    {
      "channel": 2,
      "note": 71,
      "start": 14.7998,
      "duration": 0.0698,
      "velocity": 94,
      "chip": "ym2612"
    },
    {
      "channel": 3,
      "note": 71,
      "start": 14.8005,
      "duration": 0.0695,
      "velocity": 94,
      "chip": "ym2612"
    },
    {
      "channel": 2,
      "note": 69,
      "start": 14.9406,
      "duration": 0.0699,
      "velocity": 94,
      "chip": "ym2612"
    },
    {
      "channel": 5,
      "note": 32,
      "start": 14.9439,
      "duration": 0.2798,
      "velocity": 127,
      "chip": "ym2612"
    },
    {
      "channel": 1,
      "note": 55,
      "start": 15.0694,
      "duration": 0.1403,
      "velocity": 94,
      "chip": "ym2612"
    },
    {
      "channel": 2,
      "note": 71,
      "start": 15.0814,
      "duration": 0.0699,
      "velocity": 94,
      "chip": "ym2612"
    },
    {
      "channel": 3,
      "note": 71,
      "start": 15.0822,
      "duration": 0.0695,
      "velocity": 94,
      "chip": "ym2612"
    },
    {
      "channel": 0,
      "note": 55,
      "start": 15.2217,
      "duration": 0.1285,
      "velocity": 100,
      "chip": "ym2612"
    },
    {
      "channel": 2,
      "note": 74,
      "start": 15.2227,
      "duration": 0.0695,
      "velocity": 94,
      "chip": "ym2612"
    },
    {
      "channel": 3,
      "note": 69,
      "start": 15.2234,
      "duration": 0.0691,
      "velocity": 94,
      "chip": "ym2612"
    },
    {
      "channel": 5,
      "note": 32,
      "start": 15.2262,
      "duration": 0.2797,
      "velocity": 127,
      "chip": "ym2612"
    },
    {
      "channel": 0,
      "note": 62,
      "start": 15.3624,
      "duration": 0.1286,
      "velocity": 100,
      "chip": "ym2612"
    },
    {
      "channel": 2,
      "note": 69,
      "start": 15.3635,
      "duration": 0.0695,
      "velocity": 94,
      "chip": "ym2612"
    },
    {
      "channel": 3,
      "note": 71,
      "start": 15.3642,
      "duration": 0.0691,
      "velocity": 94,
      "chip": "ym2612"
    },
    {
      "channel": 0,
      "note": 67,
      "start": 15.5033,
      "duration": 0.1286,
      "velocity": 100,
      "chip": "ym2612"
    },
    {
      "channel": 1,
      "note": 55,
      "start": 15.5042,
      "duration": 0.128,
      "velocity": 94,
      "chip": "ym2612"
    },
    {
      "channel": 2,
      "note": 71,
      "start": 15.5048,
      "duration": 0.069,
      "velocity": 94,
      "chip": "ym2612"
    },
    {
      "channel": 3,
      "note": 74,
      "start": 15.5055,
      "duration": 0.0687,
      "velocity": 94,
      "chip": "ym2612"
    },
    {
      "channel": 5,
      "note": 32,
      "start": 15.5083,
      "duration": 0.1378,
      "velocity": 127,
      "chip": "ym2612"
    },
    {
      "channel": 1,
      "note": 55,
      "start": 15.6445,
      "duration": 0.1286,
      "velocity": 94,
      "chip": "ym2612"
    },
    {
      "channel": 2,
      "note": 74,
      "start": 15.6452,
      "duration": 0.0695,
      "velocity": 94,
      "chip": "ym2612"
    },
    {
      "channel": 3,
      "note": 69,
      "start": 15.6459,
      "duration": 0.0692,
      "velocity": 94,
      "chip": "ym2612"
    },
    {
      "channel": 5,
      "note": 32,
      "start": 15.6486,
      "duration": 0.1389,
      "velocity": 127,
      "chip": "ym2612"
    },
    {
      "channel": 0,
      "note": 55,
      "start": 15.785,
      "duration": 0.1286,
      "velocity": 100,
      "chip": "ym2612"
    },
    {
      "channel": 1,
      "note": 55,
      "start": 15.7857,
      "duration": 0.1283,
      "velocity": 94,
      "chip": "ym2612"
    },
    {
      "channel": 2,
      "note": 74,
      "start": 15.7864,
      "duration": 0.0691,
      "velocity": 94,
      "chip": "ym2612"
    },
    {
      "channel": 3,
      "note": 71,
      "start": 15.7873,
      "duration": 0.0686,
      "velocity": 94,
      "chip": "ym2612"
    },
    {
      "channel": 5,
      "note": 32,
      "start": 15.79,
      "duration": 0.1379,
      "velocity": 127,
      "chip": "ym2612"
    },
    {
      "channel": 0,
      "note": 62,
      "start": 15.9259,
      "duration": 0.1286,
      "velocity": 100,
      "chip": "ym2612"
    },
    {
      "channel": 1,
      "note": 55,
      "start": 15.9266,
      "duration": 0.1283,
      "velocity": 94,
      "chip": "ym2612"
    },
    {
      "channel": 3,
      "note": 74,
      "start": 15.9276,
      "duration": 0.0691,
      "velocity": 94,
      "chip": "ym2612"
    },
    {
      "channel": 5,
      "note": 32,
      "start": 15.9304,
      "duration": 0.4197,
      "velocity": 127,
      "chip": "ym2612"
    },
    {
      "channel": 0,
      "note": 67,
      "start": 16.0667,
      "duration": 0.1286,
      "velocity": 100,
      "chip": "ym2612"
    },
    {
      "channel": 2,
      "note": 74,
      "start": 16.0678,
      "duration": 0.0695,
      "velocity": 94,
      "chip": "ym2612"
    },
    {
      "channel": 3,
      "note": 74,
      "start": 16.0685,
      "duration": 0.0692,
      "velocity": 94,
      "chip": "ym2612"
    },
    {
      "channel": 1,
      "note": 55,
      "start": 16.2079,
      "duration": 0.1286,
      "velocity": 94,
      "chip": "ym2612"
    },
    {
      "channel": 2,
      "note": 71,
      "start": 16.2086,
      "duration": 0.0695,
      "velocity": 94,
      "chip": "ym2612"
    },
    {
      "channel": 2,
      "note": 74,
      "start": 16.3491,
      "duration": 0.0699,
      "velocity": 94,
      "chip": "ym2612"
    },
    {
      "channel": 3,
      "note": 74,
      "start": 16.3498,
      "duration": 0.0695,
      "velocity": 94,
      "chip": "ym2612"
    },
    {
      "channel": 5,
      "note": 32,
      "start": 16.3526,
      "duration": 0.1384,
      "velocity": 127,
      "chip": "ym2612"
    },
    {
      "channel": 2,
      "note": 69,
      "start": 16.49,
      "duration": 0.0698,
      "velocity": 94,
      "chip": "ym2612"
    },
    {
      "channel": 3,
      "note": 71,
      "start": 16.4907,
      "duration": 0.0695,
      "velocity": 94,
      "chip": "ym2612"
    },
    {
      "channel": 5,
      "note": 32,
      "start": 16.4935,
      "duration": 0.1388,
      "velocity": 127,
      "chip": "ym2612"
    },
    {
      "channel": 0,
      "note": 55,
      "start": 16.6301,
      "duration": 0.1285,
      "velocity": 100,
      "chip": "ym2612"
    },
    {
      "channel": 1,
      "note": 55,
      "start": 16.6309,
      "duration": 0.1281,
      "velocity": 94,
      "chip": "ym2612"
    },
    {
      "channel": 3,
      "note": 74,
      "start": 16.6319,
      "duration": 0.0691,
      "velocity": 94,
      "chip": "ym2612"
    },
    {
      "channel": 5,
      "note": 32,
      "start": 16.6347,
      "duration": 0.1387,
      "velocity": 127,
      "chip": "ym2612"
    },
    {
      "channel": 0,
      "note": 62,
      "start": 16.771,
      "duration": 0.1284,
      "velocity": 100,
      "chip": "ym2612"
    },
    {
      "channel": 1,
      "note": 55,
      "start": 16.7717,
      "duration": 0.1282,
      "velocity": 94,
      "chip": "ym2612"
    },
    {
      "channel": 2,
      "note": 71,
      "start": 16.7724,
      "duration": 0.0691,
      "velocity": 94,
      "chip": "ym2612"
    },
    {
      "channel": 3,
      "note": 69,
      "start": 16.7731,
      "duration": 0.0688,
      "velocity": 94,
      "chip": "ym2612"
    },
    {
      "channel": 5,
      "note": 32,
      "start": 16.7759,
      "duration": 0.1377,
      "velocity": 127,
      "chip": "ym2612"
    },
    {
      "channel": 0,
      "note": 67,
      "start": 16.9118,
      "duration": 0.1286,
      "velocity": 100,
      "chip": "ym2612"
    },
    {
      "channel": 1,
      "note": 55,
      "start": 16.9126,
      "duration": 0.1281,
      "velocity": 94,
      "chip": "ym2612"
    },
    {
      "channel": 5,
      "note": 32,
      "start": 16.9161,
      "duration": 0.2788,
      "velocity": 127,
      "chip": "ym2612"
    },
    {
      "channel": 2,
      "note": 71,
      "start": 17.0534,
      "duration": 0.0698,
      "velocity": 94,
      "chip": "ym2612"
    },
    {
      "channel": 3,
      "note": 71,
      "start": 17.0542,
      "duration": 0.0695,
      "velocity": 94,
      "chip": "ym2612"
    },
    {
      "channel": 2,
      "note": 69,
      "start": 17.1942,
      "duration": 0.0699,
      "velocity": 94,
      "chip": "ym2612"
    },
    {
      "channel": 5,
      "note": 32,
      "start": 17.1974,
      "duration": 0.2798,
      "velocity": 127,
      "chip": "ym2612"
    },
    {
      "channel": 1,
      "note": 55,
      "start": 17.323,
      "duration": 0.1403,
      "velocity": 94,
      "chip": "ym2612"
    },
    {
      "channel": 2,
      "note": 71,
      "start": 17.335,
      "duration": 0.07,
      "velocity": 94,
      "chip": "ym2612"
    },
    {
      "channel": 3,
      "note": 71,
      "start": 17.3357,
      "duration": 0.0696,
      "velocity": 94,
      "chip": "ym2612"
    },
    {
      "channel": 0,
      "note": 55,
      "start": 17.4752,
      "duration": 0.1286,
      "velocity": 100,
      "chip": "ym2612"
    },
    {
      "channel": 2,
      "note": 74,
      "start": 17.4762,
      "duration": 0.0695,
      "velocity": 94,
      "chip": "ym2612"
    },
    {
      "channel": 3,
      "note": 69,
      "start": 17.4769,
      "duration": 0.0691,
      "velocity": 94,
      "chip": "ym2612"
    },
    {
      "channel": 5,
      "note": 32,
      "start": 17.4797,
      "duration": 0.2796,
      "velocity": 127,
      "chip": "ym2612"
    },
    {
      "channel": 0,
      "note": 62,
      "start": 17.616,
      "duration": 0.1285,
      "velocity": 100,
      "chip": "ym2612"
    },
    {
      "channel": 2,
      "note": 69,
      "start": 17.617,
      "duration": 0.0695,
      "velocity": 94,
      "chip": "ym2612"
    },
    {
      "channel": 3,
      "note": 71,
      "start": 17.6177,
      "duration": 0.0693,
      "velocity": 94,
      "chip": "ym2612"
    },
    {
      "channel": 0,
      "note": 67,
      "start": 17.7569,
      "duration": 0.1285,
      "velocity": 100,
      "chip": "ym2612"
    },
    {
      "channel": 1,
      "note": 55,
      "start": 17.7577,
      "duration": 0.1281,
      "velocity": 94,
      "chip": "ym2612"
    },
    {
      "channel": 2,
      "note": 71,
      "start": 17.7583,
      "duration": 0.069,
      "velocity": 94,
      "chip": "ym2612"
    },
    {
      "channel": 3,
      "note": 74,
      "start": 17.759,
      "duration": 0.0688,
      "velocity": 94,
      "chip": "ym2612"
    },
    {
      "channel": 5,
      "note": 32,
      "start": 17.7617,
      "duration": 0.138,
      "velocity": 127,
      "chip": "ym2612"
    },
    {
      "channel": 1,
      "note": 55,
      "start": 17.898,
      "duration": 0.1286,
      "velocity": 94,
      "chip": "ym2612"
    },
    {
      "channel": 2,
      "note": 74,
      "start": 17.8988,
      "duration": 0.0695,
      "velocity": 94,
      "chip": "ym2612"
    },
    {
      "channel": 3,
      "note": 69,
      "start": 17.8995,
      "duration": 0.0692,
      "velocity": 94,
      "chip": "ym2612"
    },
    {
      "channel": 5,
      "note": 32,
      "start": 17.9022,
      "duration": 0.139,
      "velocity": 127,
      "chip": "ym2612"
    },
    {
      "channel": 0,
      "note": 57,
      "start": 18.0388,
      "duration": 0.1283,
      "velocity": 100,
      "chip": "ym2612"
    },
    {
      "channel": 1,
      "note": 57,
      "start": 18.0395,
      "duration": 0.128,
      "velocity": 94,
      "chip": "ym2612"
    },
    {
      "channel": 2,
      "note": 76,
      "start": 18.0402,
      "duration": 0.0689,
      "velocity": 94,
      "chip": "ym2612"
    },
    {
      "channel": 3,
      "note": 71,
      "start": 18.0409,
      "duration": 0.0686,
      "velocity": 94,
      "chip": "ym2612"
    },
    {
      "channel": 5,
      "note": 32,
      "start": 18.0437,
      "duration": 0.0192,
      "velocity": 127,
      "chip": "ym2612"
    },
    {
      "channel": 5,
      "note": 68,
      "start": 18.0653,
      "duration": 0.1036,
      "velocity": 117,
      "chip": "ym2612"
    },
    {
      "channel": 0,
      "note": 64,
      "start": 18.1794,
      "duration": 0.1286,
      "velocity": 100,
      "chip": "ym2612"
    },
    {
      "channel": 1,
      "note": 57,
      "start": 18.1802,
      "duration": 0.1285,
      "velocity": 94,
      "chip": "ym2612"
    },
    {
      "channel": 2,
      "note": 71,
      "start": 18.1808,
      "duration": 0.0691,
      "velocity": 94,
      "chip": "ym2612"
    },
    {
      "channel": 3,
      "note": 74,
      "start": 18.1815,
      "duration": 0.0688,
      "velocity": 94,
      "chip": "ym2612"
    },
    {
      "channel": 5,
      "note": 32,
      "start": 18.1841,
      "duration": 0.4192,
      "velocity": 127,
      "chip": "ym2612"
    },
    {
      "channel": 0,
      "note": 69,
      "start": 18.3085,
      "duration": 0.1403,
      "velocity": 100,
      "chip": "ym2612"
    },
    {
      "channel": 2,
      "note": 74,
      "start": 18.321,
      "duration": 0.0699,
      "velocity": 94,
      "chip": "ym2612"
    },
    {
      "channel": 3,
      "note": 76,
      "start": 18.3217,
      "duration": 0.0695,
      "velocity": 94,
      "chip": "ym2612"
    },
    {
      "channel": 1,
      "note": 57,
      "start": 18.4615,
      "duration": 0.1286,
      "velocity": 94,
      "chip": "ym2612"
    },
    {
      "channel": 2,
      "note": 76,
      "start": 18.4622,
      "duration": 0.0695,
      "velocity": 94,
      "chip": "ym2612"
    },
    {
      "channel": 3,
      "note": 71,
      "start": 18.4629,
      "duration": 0.0691,
      "velocity": 94,
      "chip": "ym2612"
    },
    {
      "channel": 3,
      "note": 74,
      "start": 18.603,
      "duration": 0.0699,
      "velocity": 94,
      "chip": "ym2612"
    },
    {
      "channel": 5,
      "note": 32,
      "start": 18.6059,
      "duration": 0.1388,
      "velocity": 127,
      "chip": "ym2612"
    },
    {
      "channel": 2,
      "note": 71,
      "start": 18.7435,
      "duration": 0.0699,
      "velocity": 94,
      "chip": "ym2612"
    },
    {
      "channel": 3,
      "note": 76,
      "start": 18.7443,
      "duration": 0.0695,
      "velocity": 94,
      "chip": "ym2612"
    },
    {
      "channel": 5,
      "note": 32,
      "start": 18.7471,
      "duration": 0.1387,
      "velocity": 127,
      "chip": "ym2612"
    },
    {
      "channel": 0,
      "note": 57,
      "start": 18.8837,
      "duration": 0.1285,
      "velocity": 100,
      "chip": "ym2612"
    },
    {
      "channel": 1,
      "note": 57,
      "start": 18.8844,
      "duration": 0.1282,
      "velocity": 94,
      "chip": "ym2612"
    },
    {
      "channel": 2,
      "note": 74,
      "start": 18.885,
      "duration": 0.0692,
      "velocity": 94,
      "chip": "ym2612"
    },
    {
      "channel": 5,
      "note": 32,
      "start": 18.8883,
      "duration": 0.1385,
      "velocity": 127,
      "chip": "ym2612"
    },
    {
      "channel": 0,
      "note": 64,
      "start": 19.0245,
      "duration": 0.1285,
      "velocity": 100,
      "chip": "ym2612"
    },
    {
      "channel": 1,
      "note": 57,
      "start": 19.0251,
      "duration": 0.1283,
      "velocity": 94,
      "chip": "ym2612"
    },
    {
      "channel": 2,
      "note": 76,
      "start": 19.0258,
      "duration": 0.0691,
      "velocity": 94,
      "chip": "ym2612"
    },
    {
      "channel": 3,
      "note": 71,
      "start": 19.0266,
      "duration": 0.0688,
      "velocity": 94,
      "chip": "ym2612"
    },
    {
      "channel": 5,
      "note": 32,
      "start": 19.0293,
      "duration": 0.1384,
      "velocity": 127,
      "chip": "ym2612"
    },
    {
      "channel": 0,
      "note": 69,
      "start": 19.1654,
      "duration": 0.1286,
      "velocity": 100,
      "chip": "ym2612"
    },
    {
      "channel": 1,
      "note": 57,
      "start": 19.1661,
      "duration": 0.1282,
      "velocity": 94,
      "chip": "ym2612"
    },
    {
      "channel": 2,
      "note": 71,
      "start": 19.1668,
      "duration": 0.069,
      "velocity": 94,
      "chip": "ym2612"
    },
    {
      "channel": 3,
      "note": 74,
      "start": 19.1675,
      "duration": 0.0687,
      "velocity": 94,
      "chip": "ym2612"
    },
    {
      "channel": 5,
      "note": 32,
      "start": 19.1702,
      "duration": 0.2785,
      "velocity": 127,
      "chip": "ym2612"
    },
    {
      "channel": 2,
      "note": 74,
      "start": 19.3069,
      "duration": 0.0699,
      "velocity": 94,
      "chip": "ym2612"
    },
    {
      "channel": 3,
      "note": 76,
      "start": 19.3076,
      "duration": 0.0696,
      "velocity": 94,
      "chip": "ym2612"
    },
    {
      "channel": 2,
      "note": 69,
      "start": 19.4477,
      "duration": 0.0699,
      "velocity": 94,
      "chip": "ym2612"
    },
    {
      "channel": 3,
      "note": 71,
      "start": 19.4484,
      "duration": 0.0696,
      "velocity": 94,
      "chip": "ym2612"
    },
    {
      "channel": 5,
      "note": 32,
      "start": 19.4512,
      "duration": 0.2795,
      "velocity": 127,
      "chip": "ym2612"
    },
    {
      "channel": 1,
      "note": 57,
      "start": 19.5765,
      "duration": 0.1403,
      "velocity": 94,
      "chip": "ym2612"
    },
    {
      "channel": 2,
      "note": 71,
      "start": 19.5886,
      "duration": 0.0699,
      "velocity": 94,
      "chip": "ym2612"
    },
    {
      "channel": 3,
      "note": 74,
      "start": 19.5893,
      "duration": 0.0695,
      "velocity": 94,
      "chip": "ym2612"
    },
    {
      "channel": 0,
      "note": 57,
      "start": 19.7287,
      "duration": 0.1285,
      "velocity": 100,
      "chip": "ym2612"
    },
    {
      "channel": 2,
      "note": 74,
      "start": 19.7298,
      "duration": 0.0695,
      "velocity": 94,
      "chip": "ym2612"
    },
    {
      "channel": 3,
      "note": 69,
      "start": 19.7305,
      "duration": 0.0692,
      "velocity": 94,
      "chip": "ym2612"
    },
    {
      "channel": 5,
      "note": 32,
      "start": 19.7332,
      "duration": 0.2796,
      "velocity": 127,
      "chip": "ym2612"
    },
    {
      "channel": 0,
      "note": 64,
      "start": 19.8696,
      "duration": 0.1285,
      "velocity": 100,
      "chip": "ym2612"
    },
    {
      "channel": 2,
      "note": 69,
      "start": 19.8706,
      "duration": 0.0695,
      "velocity": 94,
      "chip": "ym2612"
    },
    {
      "channel": 3,
      "note": 71,
      "start": 19.8713,
      "duration": 0.0692,
      "velocity": 94,
      "chip": "ym2612"
    },
    {
      "channel": 0,
      "note": 69,
      "start": 20.0105,
      "duration": 0.1285,
      "velocity": 100,
      "chip": "ym2612"
    },
    {
      "channel": 1,
      "note": 57,
      "start": 20.0112,
      "duration": 0.1282,
      "velocity": 94,
      "chip": "ym2612"
    },
    {
      "channel": 2,
      "note": 71,
      "start": 20.0119,
      "duration": 0.069,
      "velocity": 94,
      "chip": "ym2612"
    },
    {
      "channel": 3,
      "note": 74,
      "start": 20.0126,
      "duration": 0.0687,
      "velocity": 94,
      "chip": "ym2612"
    },
    {
      "channel": 5,
      "note": 32,
      "start": 20.0153,
      "duration": 0.138,
      "velocity": 127,
      "chip": "ym2612"
    },
    {
      "channel": 1,
      "note": 57,
      "start": 20.1516,
      "duration": 0.1285,
      "velocity": 94,
      "chip": "ym2612"
    },
    {
      "channel": 2,
      "note": 74,
      "start": 20.1523,
      "duration": 0.0695,
      "velocity": 94,
      "chip": "ym2612"
    },
    {
      "channel": 3,
      "note": 69,
      "start": 20.1529,
      "duration": 0.0692,
      "velocity": 94,
      "chip": "ym2612"
    },
    {
      "channel": 5,
      "note": 32,
      "start": 20.1558,
      "duration": 0.1386,
      "velocity": 127,
      "chip": "ym2612"
    },
    {
      "channel": 0,
      "note": 57,
      "start": 20.2922,
      "duration": 0.1286,
      "velocity": 100,
      "chip": "ym2612"
    },
    {
      "channel": 1,
      "note": 57,
      "start": 20.2928,
      "duration": 0.1283,
      "velocity": 94,
      "chip": "ym2612"
    },
    {
      "channel": 2,
      "note": 69,
      "start": 20.2935,
      "duration": 0.0691,
      "velocity": 94,
      "chip": "ym2612"
    },
    {
      "channel": 3,
      "note": 71,
      "start": 20.2942,
      "duration": 0.0688,
      "velocity": 94,
      "chip": "ym2612"
    },
    {
      "channel": 5,
      "note": 32,
      "start": 20.2969,
      "duration": 0.1384,
      "velocity": 127,
      "chip": "ym2612"
    },
    {
      "channel": 0,
      "note": 64,
      "start": 20.4329,
      "duration": 0.1285,
      "velocity": 100,
      "chip": "ym2612"
    },
    {
      "channel": 1,
      "note": 57,
      "start": 20.4337,
      "duration": 0.1282,
      "velocity": 94,
      "chip": "ym2612"
    },
    {
      "channel": 2,
      "note": 71,
      "start": 20.4343,
      "duration": 0.0691,
      "velocity": 94,
      "chip": "ym2612"
    },
    {
      "channel": 3,
      "note": 74,
      "start": 20.435,
      "duration": 0.0689,
      "velocity": 94,
      "chip": "ym2612"
    },
    {
      "channel": 5,
      "note": 32,
      "start": 20.4379,
      "duration": 0.4193,
      "velocity": 127,
      "chip": "ym2612"
    },
    {
      "channel": 0,
      "note": 69,
      "start": 20.5738,
      "duration": 0.1285,
      "velocity": 100,
      "chip": "ym2612"
    },
    {
      "channel": 2,
      "note": 74,
      "start": 20.5748,
      "duration": 0.0695,
      "velocity": 94,
      "chip": "ym2612"
    },
    {
      "channel": 3,
      "note": 69,
      "start": 20.5755,
      "duration": 0.0692,
      "velocity": 94,
      "chip": "ym2612"
    },
    {
      "channel": 1,
      "note": 57,
      "start": 20.715,
      "duration": 0.1285,
      "velocity": 94,
      "chip": "ym2612"
    },
    {
      "channel": 2,
      "note": 69,
      "start": 20.7157,
      "duration": 0.0695,
      "velocity": 94,
      "chip": "ym2612"
    },
    {
      "channel": 3,
      "note": 71,
      "start": 20.7164,
      "duration": 0.0692,
      "velocity": 94,
      "chip": "ym2612"
    },
    {
      "channel": 2,
      "note": 71,
      "start": 20.8562,
      "duration": 0.0699,
      "velocity": 94,
      "chip": "ym2612"
    },
    {
      "channel": 3,
      "note": 74,
      "start": 20.8569,
      "duration": 0.0696,
      "velocity": 94,
      "chip": "ym2612"
    },
    {
      "channel": 5,
      "note": 32,
      "start": 20.8597,
      "duration": 0.1383,
      "velocity": 127,
      "chip": "ym2612"
    },
    {
      "channel": 2,
      "note": 76,
      "start": 20.9971,
      "duration": 0.0699,
      "velocity": 94,
      "chip": "ym2612"
    },
    {
      "channel": 3,
      "note": 69,
      "start": 20.9978,
      "duration": 0.0695,
      "velocity": 94,
      "chip": "ym2612"
    },
    {
      "channel": 5,
      "note": 32,
      "start": 21.0005,
      "duration": 0.1388,
      "velocity": 127,
      "chip": "ym2612"
    },
    {
      "channel": 0,
      "note": 57,
      "start": 21.1373,
      "duration": 0.1284,
      "velocity": 100,
      "chip": "ym2612"
    },
    {
      "channel": 1,
      "note": 57,
      "start": 21.138,
      "duration": 0.1281,
      "velocity": 94,
      "chip": "ym2612"
    },
    {
      "channel": 3,
      "note": 71,
      "start": 21.1391,
      "duration": 0.069,
      "velocity": 94,
      "chip": "ym2612"
    },
    {
      "channel": 5,
      "note": 32,
      "start": 21.1419,
      "duration": 0.1385,
      "velocity": 127,
      "chip": "ym2612"
    },
    {
      "channel": 0,
      "note": 64,
      "start": 21.278,
      "duration": 0.1285,
      "velocity": 100,
      "chip": "ym2612"
    },
    {
      "channel": 1,
      "note": 57,
      "start": 21.2787,
      "duration": 0.1283,
      "velocity": 94,
      "chip": "ym2612"
    },
    {
      "channel": 2,
      "note": 76,
      "start": 21.2794,
      "duration": 0.0691,
      "velocity": 94,
      "chip": "ym2612"
    },
    {
      "channel": 3,
      "note": 76,
      "start": 21.2802,
      "duration": 0.0687,
      "velocity": 94,
      "chip": "ym2612"
    },
    {
      "channel": 5,
      "note": 32,
      "start": 21.2829,
      "duration": 0.1381,
      "velocity": 127,
      "chip": "ym2612"
    },
    {
      "channel": 0,
      "note": 69,
      "start": 21.4189,
      "duration": 0.1285,
      "velocity": 100,
      "chip": "ym2612"
    },
    {
      "channel": 1,
      "note": 57,
      "start": 21.4196,
      "duration": 0.1282,
      "velocity": 94,
      "chip": "ym2612"
    },
    {
      "channel": 2,
      "note": 71,
      "start": 21.4204,
      "duration": 0.069,
      "velocity": 94,
      "chip": "ym2612"
    },
    {
      "channel": 5,
      "note": 32,
      "start": 21.4235,
      "duration": 0.2788,
      "velocity": 127,
      "chip": "ym2612"
    },
    {
      "channel": 2,
      "note": 74,
      "start": 21.5604,
      "duration": 0.07,
      "velocity": 94,
      "chip": "ym2612"
    },
    {
      "channel": 3,
      "note": 76,
      "start": 21.5612,
      "duration": 0.0696,
      "velocity": 94,
      "chip": "ym2612"
    },
    {
      "channel": 2,
      "note": 76,
      "start": 21.7013,
      "duration": 0.07,
      "velocity": 94,
      "chip": "ym2612"
    },
    {
      "channel": 3,
      "note": 71,
      "start": 21.702,
      "duration": 0.0697,
      "velocity": 94,
      "chip": "ym2612"
    },
    {
      "channel": 5,
      "note": 32,
      "start": 21.7049,
      "duration": 0.2794,
      "velocity": 127,
      "chip": "ym2612"
    },
    {
      "channel": 1,
      "note": 57,
      "start": 21.8418,
      "duration": 0.1286,
      "velocity": 94,
      "chip": "ym2612"
    },
    {
      "channel": 2,
      "note": 71,
      "start": 21.8425,
      "duration": 0.0695,
      "velocity": 94,
      "chip": "ym2612"
    },
    {
      "channel": 3,
      "note": 74,
      "start": 21.8432,
      "duration": 0.0692,
      "velocity": 94,
      "chip": "ym2612"
    },
    {
      "channel": 0,
      "note": 57,
      "start": 21.9823,
      "duration": 0.1285,
      "velocity": 100,
      "chip": "ym2612"
    },
    {
      "channel": 2,
      "note": 74,
      "start": 21.9834,
      "duration": 0.0695,
      "velocity": 94,
      "chip": "ym2612"
    },
    {
      "channel": 3,
      "note": 76,
      "start": 21.9841,
      "duration": 0.0692,
      "velocity": 94,
      "chip": "ym2612"
    },
    {
      "channel": 5,
      "note": 32,
      "start": 21.9868,
      "duration": 0.2796,
      "velocity": 127,
      "chip": "ym2612"
    },
    {
      "channel": 0,
      "note": 64,
      "start": 22.1231,
      "duration": 0.1285,
      "velocity": 100,
      "chip": "ym2612"
    },
    {
      "channel": 2,
      "note": 76,
      "start": 22.1241,
      "duration": 0.0695,
      "velocity": 94,
      "chip": "ym2612"
    },
    {
      "channel": 3,
      "note": 71,
      "start": 22.1248,
      "duration": 0.0692,
      "velocity": 94,
      "chip": "ym2612"
    },
    {
      "channel": 0,
      "note": 69,
      "start": 22.264,
      "duration": 0.1285,
      "velocity": 100,
      "chip": "ym2612"
    },
    {
      "channel": 1,
      "note": 57,
      "start": 22.2647,
      "duration": 0.1282,
      "velocity": 94,
      "chip": "ym2612"
    },
    {
      "channel": 2,
      "note": 74,
      "start": 22.2654,
      "duration": 0.0691,
      "velocity": 94,
      "chip": "ym2612"
    },
    {
      "channel": 3,
      "note": 74,
      "start": 22.2661,
      "duration": 0.0688,
      "velocity": 94,
      "chip": "ym2612"
    },
    {
      "channel": 5,
      "note": 32,
      "start": 22.2688,
      "duration": 0.1381,
      "velocity": 127,
      "chip": "ym2612"
    },
    {
      "channel": 1,
      "note": 57,
      "start": 22.4052,
      "duration": 0.1285,
      "velocity": 94,
      "chip": "ym2612"
    },
    {
      "channel": 2,
      "note": 71,
      "start": 22.4059,
      "duration": 0.0695,
      "velocity": 94,
      "chip": "ym2612"
    },
    {
      "channel": 3,
      "note": 76,
      "start": 22.4066,
      "duration": 0.0692,
      "velocity": 94,
      "chip": "ym2612"
    },
    {
      "channel": 5,
      "note": 32,
      "start": 22.4094,
      "duration": 0.1386,
      "velocity": 127,
      "chip": "ym2612"
    },
    {
      "channel": 0,
      "note": 55,
      "start": 22.5457,
      "duration": 0.1285,
      "velocity": 100,
      "chip": "ym2612"
    },
    {
      "channel": 1,
      "note": 55,
      "start": 22.5463,
      "duration": 0.1282,
      "velocity": 94,
      "chip": "ym2612"
    },
    {
      "channel": 2,
      "note": 69,
      "start": 22.5471,
      "duration": 0.0691,
      "velocity": 94,
      "chip": "ym2612"
    },
    {
      "channel": 3,
      "note": 74,
      "start": 22.5477,
      "duration": 0.0688,
      "velocity": 94,
      "chip": "ym2612"
    },
    {
      "channel": 5,
      "note": 32,
      "start": 22.5505,
      "duration": 0.1384,
      "velocity": 127,
      "chip": "ym2612"
    },
    {
      "channel": 0,
      "note": 62,
      "start": 22.6865,
      "duration": 0.1285,
      "velocity": 100,
      "chip": "ym2612"
    },
    {
      "channel": 1,
      "note": 55,
      "start": 22.6873,
      "duration": 0.1282,
      "velocity": 94,
      "chip": "ym2612"
    },
    {
      "channel": 2,
      "note": 71,
      "start": 22.6879,
      "duration": 0.069,
      "velocity": 94,
      "chip": "ym2612"
    },
    {
      "channel": 3,
      "note": 71,
      "start": 22.6886,
      "duration": 0.0687,
      "velocity": 94,
      "chip": "ym2612"
    },
    {
      "channel": 5,
      "note": 32,
      "start": 22.6915,
      "duration": 0.4193,
      "velocity": 127,
      "chip": "ym2612"
    },
    {
      "channel": 0,
      "note": 67,
      "start": 22.8274,
      "duration": 0.1285,
      "velocity": 100,
      "chip": "ym2612"
    },
    {
      "channel": 2,
      "note": 74,
      "start": 22.8284,
      "duration": 0.0695,
      "velocity": 94,
      "chip": "ym2612"
    },
    {
      "channel": 3,
      "note": 69,
      "start": 22.8291,
      "duration": 0.0692,
      "velocity": 94,
      "chip": "ym2612"
    },
    {
      "channel": 1,
      "note": 55,
      "start": 22.9686,
      "duration": 0.1285,
      "velocity": 94,
      "chip": "ym2612"
    },
    {
      "channel": 2,
      "note": 69,
      "start": 22.9693,
      "duration": 0.0695,
      "velocity": 94,
      "chip": "ym2612"
    },
    {
      "channel": 3,
      "note": 71,
      "start": 22.9699,
      "duration": 0.0692,
      "velocity": 94,
      "chip": "ym2612"
    },
    {
      "channel": 2,
      "note": 71,
      "start": 23.1098,
      "duration": 0.0699,
      "velocity": 94,
      "chip": "ym2612"
    },
    {
      "channel": 3,
      "note": 74,
      "start": 23.1105,
      "duration": 0.0696,
      "velocity": 94,
      "chip": "ym2612"
    },
    {
      "channel": 5,
      "note": 32,
      "start": 23.1132,
      "duration": 0.1384,
      "velocity": 127,
      "chip": "ym2612"
    },
    {
      "channel": 2,
      "note": 74,
      "start": 23.2507,
      "duration": 0.0699,
      "velocity": 94,
      "chip": "ym2612"
    },
    {
      "channel": 3,
      "note": 69,
      "start": 23.2514,
      "duration": 0.0696,
      "velocity": 94,
      "chip": "ym2612"
    },
    {
      "channel": 5,
      "note": 32,
      "start": 23.2542,
      "duration": 0.1387,
      "velocity": 127,
      "chip": "ym2612"
    },
    {
      "channel": 0,
      "note": 55,
      "start": 23.3907,
      "duration": 0.1285,
      "velocity": 100,
      "chip": "ym2612"
    },
    {
      "channel": 1,
      "note": 55,
      "start": 23.3915,
      "duration": 0.1282,
      "velocity": 94,
      "chip": "ym2612"
    },
    {
      "channel": 3,
      "note": 71,
      "start": 23.3925,
      "duration": 0.0691,
      "velocity": 94,
      "chip": "ym2612"
    },
    {
      "channel": 5,
      "note": 32,
      "start": 23.3953,
      "duration": 0.1386,
      "velocity": 127,
      "chip": "ym2612"
    },
    {
      "channel": 0,
      "note": 62,
      "start": 23.5316,
      "duration": 0.1285,
      "velocity": 100,
      "chip": "ym2612"
    },
    {
      "channel": 1,
      "note": 55,
      "start": 23.5322,
      "duration": 0.1283,
      "velocity": 94,
      "chip": "ym2612"
    },
    {
      "channel": 2,
      "note": 71,
      "start": 23.5329,
      "duration": 0.0691,
      "velocity": 94,
      "chip": "ym2612"
    },
    {
      "channel": 3,
      "note": 74,
      "start": 23.5336,
      "duration": 0.0688,
      "velocity": 94,
      "chip": "ym2612"
    },
    {
      "channel": 5,
      "note": 32,
      "start": 23.5364,
      "duration": 0.1378,
      "velocity": 127,
      "chip": "ym2612"
    },
    {
      "channel": 0,
      "note": 67,
      "start": 23.6724,
      "duration": 0.1285,
      "velocity": 100,
      "chip": "ym2612"
    },
    {
      "channel": 1,
      "note": 55,
      "start": 23.6732,
      "duration": 0.1282,
      "velocity": 94,
      "chip": "ym2612"
    },
    {
      "channel": 5,
      "note": 32,
      "start": 23.6767,
      "duration": 0.2789,
      "velocity": 127,
      "chip": "ym2612"
    },
    {
      "channel": 2,
      "note": 71,
      "start": 23.814,
      "duration": 0.0698,
      "velocity": 94,
      "chip": "ym2612"
    },
    {
      "channel": 3,
      "note": 71,
      "start": 23.8147,
      "duration": 0.0695,
      "velocity": 94,
      "chip": "ym2612"
    },
    {
      "channel": 2,
      "note": 69,
      "start": 23.9549,
      "duration": 0.0698,
      "velocity": 94,
      "chip": "ym2612"
    },
    {
      "channel": 5,
      "note": 32,
      "start": 23.9581,
      "duration": 0.2798,
      "velocity": 127,
      "chip": "ym2612"
    },
    {
      "channel": 1,
      "note": 55,
      "start": 24.0953,
      "duration": 0.1285,
      "velocity": 94,
      "chip": "ym2612"
    },
    {
      "channel": 2,
      "note": 71,
      "start": 24.096,
      "duration": 0.0696,
      "velocity": 94,
      "chip": "ym2612"
    },
    {
      "channel": 3,
      "note": 71,
      "start": 24.0967,
      "duration": 0.0692,
      "velocity": 94,
      "chip": "ym2612"
    },
    {
      "channel": 0,
      "note": 55,
      "start": 24.2359,
      "duration": 0.1285,
      "velocity": 100,
      "chip": "ym2612"
    },
    {
      "channel": 2,
      "note": 74,
      "start": 24.2369,
      "duration": 0.0695,
      "velocity": 94,
      "chip": "ym2612"
    },
    {
      "channel": 3,
      "note": 69,
      "start": 24.2376,
      "duration": 0.0692,
      "velocity": 94,
      "chip": "ym2612"
    },
    {
      "channel": 5,
      "note": 32,
      "start": 24.2404,
      "duration": 0.2795,
      "velocity": 127,
      "chip": "ym2612"
    },
    {
      "channel": 0,
      "note": 62,
      "start": 24.3766,
      "duration": 0.1286,
      "velocity": 100,
      "chip": "ym2612"
    },
    {
      "channel": 2,
      "note": 76,
      "start": 24.3777,
      "duration": 0.0695,
      "velocity": 94,
      "chip": "ym2612"
    },
    {
      "channel": 3,
      "note": 71,
      "start": 24.3784,
      "duration": 0.0692,
      "velocity": 94,
      "chip": "ym2612"
    },
    {
      "channel": 0,
      "note": 67,
      "start": 24.5175,
      "duration": 0.1285,
      "velocity": 100,
      "chip": "ym2612"
    },
    {
      "channel": 1,
      "note": 55,
      "start": 24.5183,
      "duration": 0.1281,
      "velocity": 94,
      "chip": "ym2612"
    },
    {
      "channel": 2,
      "note": 74,
      "start": 24.5189,
      "duration": 0.0691,
      "velocity": 94,
      "chip": "ym2612"
    },
    {
      "channel": 3,
      "note": 74,
      "start": 24.5196,
      "duration": 0.0688,
      "velocity": 94,
      "chip": "ym2612"
    },
    {
      "channel": 5,
      "note": 32,
      "start": 24.5225,
      "duration": 0.1378,
      "velocity": 127,
      "chip": "ym2612"
    },
    {
      "channel": 1,
      "note": 55,
      "start": 24.6587,
      "duration": 0.1287,
      "velocity": 94,
      "chip": "ym2612"
    },
    {
      "channel": 2,
      "note": 69,
      "start": 24.6594,
      "duration": 0.0695,
      "velocity": 94,
      "chip": "ym2612"
    },
    {
      "channel": 3,
      "note": 76,
      "start": 24.6601,
      "duration": 0.0692,
      "velocity": 94,
      "chip": "ym2612"
    },
    {
      "channel": 5,
      "note": 32,
      "start": 24.6628,
      "duration": 0.1388,
      "velocity": 127,
      "chip": "ym2612"
    },
    {
      "channel": 0,
      "note": 55,
      "start": 24.7992,
      "duration": 0.1286,
      "velocity": 100,
      "chip": "ym2612"
    },
    {
      "channel": 1,
      "note": 55,
      "start": 24.7999,
      "duration": 0.1282,
      "velocity": 94,
      "chip": "ym2612"
    },
    {
      "channel": 2,
      "note": 71,
      "start": 24.8005,
      "duration": 0.0691,
      "velocity": 94,
      "chip": "ym2612"
    },
    {
      "channel": 3,
      "note": 74,
      "start": 24.8012,
      "duration": 0.0688,
      "velocity": 94,
      "chip": "ym2612"
    },
    {
      "channel": 5,
      "note": 32,
      "start": 24.8041,
      "duration": 0.1383,
      "velocity": 127,
      "chip": "ym2612"
    },
    {
      "channel": 0,
      "note": 62,
      "start": 24.94,
      "duration": 0.1286,
      "velocity": 100,
      "chip": "ym2612"
    },
    {
      "channel": 1,
      "note": 55,
      "start": 24.9407,
      "duration": 0.1282,
      "velocity": 94,
      "chip": "ym2612"
    },
    {
      "channel": 2,
      "note": 74,
      "start": 24.9414,
      "duration": 0.0691,
      "velocity": 94,
      "chip": "ym2612"
    },
    {
      "channel": 3,
      "note": 69,
      "start": 24.9421,
      "duration": 0.0688,
      "velocity": 94,
      "chip": "ym2612"
    },
    {
      "channel": 5,
      "note": 32,
      "start": 24.9449,
      "duration": 0.4194,
      "velocity": 127,
      "chip": "ym2612"
    },
    {
      "channel": 0,
      "note": 67,
      "start": 25.0809,
      "duration": 0.1286,
      "velocity": 100,
      "chip": "ym2612"
    },
    {
      "channel": 2,
      "note": 69,
      "start": 25.082,
      "duration": 0.0695,
      "velocity": 94,
      "chip": "ym2612"
    },
    {
      "channel": 3,
      "note": 71,
      "start": 25.0827,
      "duration": 0.0691,
      "velocity": 94,
      "chip": "ym2612"
    },
    {
      "channel": 1,
      "note": 55,
      "start": 25.2221,
      "duration": 0.1285,
      "velocity": 94,
      "chip": "ym2612"
    },
    {
      "channel": 2,
      "note": 71,
      "start": 25.2228,
      "duration": 0.0695,
      "velocity": 94,
      "chip": "ym2612"
    },
    {
      "channel": 3,
      "note": 74,
      "start": 25.2235,
      "duration": 0.0691,
      "velocity": 94,
      "chip": "ym2612"
    },
    {
      "channel": 2,
      "note": 74,
      "start": 25.3633,
      "duration": 0.0698,
      "velocity": 94,
      "chip": "ym2612"
    },
    {
      "channel": 3,
      "note": 69,
      "start": 25.364,
      "duration": 0.0696,
      "velocity": 94,
      "chip": "ym2612"
    },
    {
      "channel": 5,
      "note": 32,
      "start": 25.3668,
      "duration": 0.1385,
      "velocity": 127,
      "chip": "ym2612"
    },
    {
      "channel": 2,
      "note": 69,
      "start": 25.5042,
      "duration": 0.0698,
      "velocity": 94,
      "chip": "ym2612"
    },
    {
      "channel": 3,
      "note": 71,
      "start": 25.5049,
      "duration": 0.0695,
      "velocity": 94,
      "chip": "ym2612"
    },
    {
      "channel": 5,
      "note": 32,
      "start": 25.5077,
      "duration": 0.139,
      "velocity": 127,
      "chip": "ym2612"
    },
    {
      "channel": 0,
      "note": 55,
      "start": 25.6443,
      "duration": 0.1285,
      "velocity": 100,
      "chip": "ym2612"
    },
    {
      "channel": 1,
      "note": 55,
      "start": 25.645,
      "duration": 0.1282,
      "velocity": 94,
      "chip": "ym2612"
    },
    {
      "channel": 2,
      "note": 71,
      "start": 25.6457,
      "duration": 0.0691,
      "velocity": 94,
      "chip": "ym2612"
    },
    {
      "channel": 3,
      "note": 74,
      "start": 25.6464,
      "duration": 0.0688,
      "velocity": 94,
      "chip": "ym2612"
    },
    {
      "channel": 5,
      "note": 32,
      "start": 25.6492,
      "duration": 0.1384,
      "velocity": 127,
      "chip": "ym2612"
    },
    {
      "channel": 0,
      "note": 62,
      "start": 25.7851,
      "duration": 0.1286,
      "velocity": 100,
      "chip": "ym2612"
    },
    {
      "channel": 1,
      "note": 55,
      "start": 25.7858,
      "duration": 0.1283,
      "velocity": 94,
      "chip": "ym2612"
    },
    {
      "channel": 2,
      "note": 76,
      "start": 25.7865,
      "duration": 0.0691,
      "velocity": 94,
      "chip": "ym2612"
    },
    {
      "channel": 3,
      "note": 69,
      "start": 25.7873,
      "duration": 0.0687,
      "velocity": 94,
      "chip": "ym2612"
    },
    {
      "channel": 5,
      "note": 32,
      "start": 25.79,
      "duration": 0.138,
      "velocity": 127,
      "chip": "ym2612"
    },
    {
      "channel": 0,
      "note": 67,
      "start": 25.926,
      "duration": 0.1286,
      "velocity": 100,
      "chip": "ym2612"
    },
    {
      "channel": 1,
      "note": 55,
      "start": 25.9268,
      "duration": 0.1282,
      "velocity": 94,
      "chip": "ym2612"
    },
    {
      "channel": 3,
      "note": 71,
      "start": 25.9278,
      "duration": 0.0691,
      "velocity": 94,
      "chip": "ym2612"
    },
    {
      "channel": 5,
      "note": 32,
      "start": 25.9306,
      "duration": 0.2785,
      "velocity": 127,
      "chip": "ym2612"
    },
    {
      "channel": 2,
      "note": 76,
      "start": 26.0676,
      "duration": 0.0699,
      "velocity": 94,
      "chip": "ym2612"
    },
    {
      "channel": 3,
      "note": 76,
      "start": 26.0683,
      "duration": 0.0695,
      "velocity": 94,
      "chip": "ym2612"
    },
    {
      "channel": 2,
      "note": 69,
      "start": 26.2084,
      "duration": 0.0699,
      "velocity": 94,
      "chip": "ym2612"
    },
    {
      "channel": 5,
      "note": 32,
      "start": 26.2116,
      "duration": 0.2798,
      "velocity": 127,
      "chip": "ym2612"
    },
    {
      "channel": 1,
      "note": 55,
      "start": 26.3489,
      "duration": 0.1286,
      "velocity": 94,
      "chip": "ym2612"
    },
    {
      "channel": 2,
      "note": 71,
      "start": 26.3495,
      "duration": 0.0695,
      "velocity": 94,
      "chip": "ym2612"
    },
    {
      "channel": 3,
      "note": 76,
      "start": 26.3503,
      "duration": 0.0691,
      "velocity": 94,
      "chip": "ym2612"
    },
    {
      "channel": 0,
      "note": 55,
      "start": 26.4894,
      "duration": 0.1285,
      "velocity": 100,
      "chip": "ym2612"
    },
    {
      "channel": 2,
      "note": 74,
      "start": 26.4905,
      "duration": 0.0694,
      "velocity": 94,
      "chip": "ym2612"
    },
    {
      "channel": 3,
      "note": 69,
      "start": 26.4912,
      "duration": 0.0691,
      "velocity": 94,
      "chip": "ym2612"
    },
    {
      "channel": 5,
      "note": 32,
      "start": 26.4939,
      "duration": 0.2797,
      "velocity": 127,
      "chip": "ym2612"
    },
    {
      "channel": 0,
      "note": 62,
      "start": 26.6302,
      "duration": 0.1286,
      "velocity": 100,
      "chip": "ym2612"
    },
    {
      "channel": 3,
      "note": 71,
      "start": 26.6316,
      "duration": 0.0696,
      "velocity": 94,
      "chip": "ym2612"
    },
    {
      "channel": 0,
      "note": 67,
      "start": 26.7712,
      "duration": 0.1284,
      "velocity": 100,
      "chip": "ym2612"
    },
    {
      "channel": 1,
      "note": 55,
      "start": 26.7719,
      "duration": 0.1281,
      "velocity": 94,
      "chip": "ym2612"
    },
    {
      "channel": 2,
      "note": 71,
      "start": 26.7726,
      "duration": 0.069,
      "velocity": 94,
      "chip": "ym2612"
    },
    {
      "channel": 3,
      "note": 74,
      "start": 26.7734,
      "duration": 0.0686,
      "velocity": 94,
      "chip": "ym2612"
    },
    {
      "channel": 5,
      "note": 32,
      "start": 26.7761,
      "duration": 0.1375,
      "velocity": 127,
      "chip": "ym2612"
    },
    {
      "channel": 1,
      "note": 55,
      "start": 26.9122,
      "duration": 0.1286,
      "velocity": 94,
      "chip": "ym2612"
    },
    {
      "channel": 2,
      "note": 74,
      "start": 26.9129,
      "duration": 0.0696,
      "velocity": 94,
      "chip": "ym2612"
    },
    {
      "channel": 5,
      "note": 32,
      "start": 26.9161,
      "duration": 0.1395,
      "velocity": 127,
      "chip": "ym2612"
    },
    {
      "channel": 0,
      "note": 57,
      "start": 27.053,
      "duration": 0.1166,
      "velocity": 100,
      "chip": "ym2612"
    },
    {
      "channel": 1,
      "note": 57,
      "start": 27.0538,
      "duration": 0.1279,
      "velocity": 94,
      "chip": "ym2612"
    },
    {
      "channel": 2,
      "note": 76,
      "start": 27.0544,
      "duration": 0.0688,
      "velocity": 94,
      "chip": "ym2612"
    },
    {
      "channel": 3,
      "note": 71,
      "start": 27.0552,
      "duration": 0.0684,
      "velocity": 94,
      "chip": "ym2612"
    },
    {
      "channel": 5,
      "note": 32,
      "start": 27.058,
      "duration": 0.0191,
      "velocity": 127,
      "chip": "ym2612"
    },
    {
      "channel": 5,
      "note": 68,
      "start": 27.0795,
      "duration": 0.1036,
      "velocity": 117,
      "chip": "ym2612"
    },
    {
      "channel": 0,
      "note": 64,
      "start": 27.1936,
      "duration": 0.1286,
      "velocity": 100,
      "chip": "ym2612"
    },
    {
      "channel": 1,
      "note": 57,
      "start": 27.1944,
      "duration": 0.1282,
      "velocity": 94,
      "chip": "ym2612"
    },
    {
      "channel": 2,
      "note": 71,
      "start": 27.195,
      "duration": 0.0691,
      "velocity": 94,
      "chip": "ym2612"
    },
    {
      "channel": 3,
      "note": 74,
      "start": 27.1957,
      "duration": 0.0688,
      "velocity": 94,
      "chip": "ym2612"
    },
    {
      "channel": 5,
      "note": 32,
      "start": 27.1983,
      "duration": 0.4192,
      "velocity": 127,
      "chip": "ym2612"
    },
    {
      "channel": 0,
      "note": 69,
      "start": 27.3344,
      "duration": 0.1286,
      "velocity": 100,
      "chip": "ym2612"
    },
    {
      "channel": 2,
      "note": 74,
      "start": 27.3355,
      "duration": 0.0695,
      "velocity": 94,
      "chip": "ym2612"
    },
    {
      "channel": 3,
      "note": 76,
      "start": 27.3362,
      "duration": 0.0692,
      "velocity": 94,
      "chip": "ym2612"
    },
    {
      "channel": 1,
      "note": 57,
      "start": 27.4757,
      "duration": 0.1286,
      "velocity": 94,
      "chip": "ym2612"
    },
    {
      "channel": 2,
      "note": 76,
      "start": 27.4764,
      "duration": 0.0694,
      "velocity": 94,
      "chip": "ym2612"
    },
    {
      "channel": 3,
      "note": 71,
      "start": 27.4771,
      "duration": 0.0691,
      "velocity": 94,
      "chip": "ym2612"
    },
    {
      "channel": 3,
      "note": 74,
      "start": 27.6173,
      "duration": 0.07,
      "velocity": 94,
      "chip": "ym2612"
    },
    {
      "channel": 5,
      "note": 32,
      "start": 27.62,
      "duration": 0.1388,
      "velocity": 127,
      "chip": "ym2612"
    },
    {
      "channel": 2,
      "note": 71,
      "start": 27.7577,
      "duration": 0.0698,
      "velocity": 94,
      "chip": "ym2612"
    },
    {
      "channel": 3,
      "note": 76,
      "start": 27.7585,
      "duration": 0.0695,
      "velocity": 94,
      "chip": "ym2612"
    },
    {
      "channel": 5,
      "note": 32,
      "start": 27.7612,
      "duration": 0.1388,
      "velocity": 127,
      "chip": "ym2612"
    },
    {
      "channel": 0,
      "note": 57,
      "start": 27.8979,
      "duration": 0.1285,
      "velocity": 100,
      "chip": "ym2612"
    },
    {
      "channel": 1,
      "note": 57,
      "start": 27.8986,
      "duration": 0.1282,
      "velocity": 94,
      "chip": "ym2612"
    },
    {
      "channel": 2,
      "note": 74,
      "start": 27.8993,
      "duration": 0.069,
      "velocity": 94,
      "chip": "ym2612"
    },
    {
      "channel": 5,
      "note": 32,
      "start": 27.9024,
      "duration": 0.1385,
      "velocity": 127,
      "chip": "ym2612"
    },
    {
      "channel": 0,
      "note": 64,
      "start": 28.0386,
      "duration": 0.1286,
      "velocity": 100,
      "chip": "ym2612"
    },
    {
      "channel": 1,
      "note": 57,
      "start": 28.0393,
      "duration": 0.1283,
      "velocity": 94,
      "chip": "ym2612"
    },
    {
      "channel": 2,
      "note": 76,
      "start": 28.04,
      "duration": 0.0692,
      "velocity": 94,
      "chip": "ym2612"
    },
    {
      "channel": 3,
      "note": 71,
      "start": 28.0407,
      "duration": 0.0688,
      "velocity": 94,
      "chip": "ym2612"
    },
    {
      "channel": 5,
      "note": 32,
      "start": 28.0435,
      "duration": 0.1384,
      "velocity": 127,
      "chip": "ym2612"
    },
    {
      "channel": 0,
      "note": 69,
      "start": 28.1795,
      "duration": 0.1285,
      "velocity": 100,
      "chip": "ym2612"
    },
    {
      "channel": 1,
      "note": 57,
      "start": 28.1802,
      "duration": 0.1282,
      "velocity": 94,
      "chip": "ym2612"
    },
    {
      "channel": 2,
      "note": 71,
      "start": 28.181,
      "duration": 0.0691,
      "velocity": 94,
      "chip": "ym2612"
    },
    {
      "channel": 3,
      "note": 74,
      "start": 28.1817,
      "duration": 0.0688,
      "velocity": 94,
      "chip": "ym2612"
    },
    {
      "channel": 5,
      "note": 32,
      "start": 28.1844,
      "duration": 0.2786,
      "velocity": 127,
      "chip": "ym2612"
    },
    {
      "channel": 2,
      "note": 74,
      "start": 28.3212,
      "duration": 0.0698,
      "velocity": 94,
      "chip": "ym2612"
    },
    {
      "channel": 3,
      "note": 76,
      "start": 28.3219,
      "duration": 0.0695,
      "velocity": 94,
      "chip": "ym2612"
    },
    {
      "channel": 2,
      "note": 69,
      "start": 28.4619,
      "duration": 0.0699,
      "velocity": 94,
      "chip": "ym2612"
    },
    {
      "channel": 3,
      "note": 71,
      "start": 28.4626,
      "duration": 0.0696,
      "velocity": 94,
      "chip": "ym2612"
    },
    {
      "channel": 5,
      "note": 32,
      "start": 28.4654,
      "duration": 0.2795,
      "velocity": 127,
      "chip": "ym2612"
    },
    {
      "channel": 1,
      "note": 57,
      "start": 28.6024,
      "duration": 0.1286,
      "velocity": 94,
      "chip": "ym2612"
    },
    {
      "channel": 2,
      "note": 71,
      "start": 28.6031,
      "duration": 0.0695,
      "velocity": 94,
      "chip": "ym2612"
    },
    {
      "channel": 3,
      "note": 74,
      "start": 28.6039,
      "duration": 0.0691,
      "velocity": 94,
      "chip": "ym2612"
    },
    {
      "channel": 0,
      "note": 57,
      "start": 28.7429,
      "duration": 0.1286,
      "velocity": 100,
      "chip": "ym2612"
    },
    {
      "channel": 2,
      "note": 74,
      "start": 28.744,
      "duration": 0.0695,
      "velocity": 94,
      "chip": "ym2612"
    },
    {
      "channel": 3,
      "note": 69,
      "start": 28.7447,
      "duration": 0.0691,
      "velocity": 94,
      "chip": "ym2612"
    },
    {
      "channel": 5,
      "note": 32,
      "start": 28.7474,
      "duration": 0.2796,
      "velocity": 127,
      "chip": "ym2612"
    },
    {
      "channel": 0,
      "note": 64,
      "start": 28.8837,
      "duration": 0.1286,
      "velocity": 100,
      "chip": "ym2612"
    },
    {
      "channel": 2,
      "note": 69,
      "start": 28.8848,
      "duration": 0.0696,
      "velocity": 94,
      "chip": "ym2612"
    },
    {
      "channel": 3,
      "note": 71,
      "start": 28.8855,
      "duration": 0.0693,
      "velocity": 94,
      "chip": "ym2612"
    },
    {
      "channel": 0,
      "note": 69,
      "start": 29.0246,
      "duration": 0.1285,
      "velocity": 100,
      "chip": "ym2612"
    },
    {
      "channel": 1,
      "note": 57,
      "start": 29.0254,
      "duration": 0.1282,
      "velocity": 94,
      "chip": "ym2612"
    },
    {
      "channel": 2,
      "note": 71,
      "start": 29.026,
      "duration": 0.0691,
      "velocity": 94,
      "chip": "ym2612"
    },
    {
      "channel": 3,
      "note": 74,
      "start": 29.0267,
      "duration": 0.0688,
      "velocity": 94,
      "chip": "ym2612"
    },
    {
      "channel": 5,
      "note": 32,
      "start": 29.0295,
      "duration": 0.138,
      "velocity": 127,
      "chip": "ym2612"
    },
    {
      "channel": 1,
      "note": 57,
      "start": 29.1658,
      "duration": 0.1286,
      "velocity": 94,
      "chip": "ym2612"
    },
    {
      "channel": 2,
      "note": 74,
      "start": 29.1664,
      "duration": 0.0695,
      "velocity": 94,
      "chip": "ym2612"
    },
    {
      "channel": 3,
      "note": 69,
      "start": 29.1671,
      "duration": 0.0692,
      "velocity": 94,
      "chip": "ym2612"
    },
    {
      "channel": 5,
      "note": 32,
      "start": 29.1699,
      "duration": 0.1387,
      "velocity": 127,
      "chip": "ym2612"
    },
    {
      "channel": 0,
      "note": 57,
      "start": 29.3063,
      "duration": 0.1285,
      "velocity": 100,
      "chip": "ym2612"
    },
    {
      "channel": 1,
      "note": 57,
      "start": 29.307,
      "duration": 0.1283,
      "velocity": 94,
      "chip": "ym2612"
    },
    {
      "channel": 2,
      "note": 69,
      "start": 29.3077,
      "duration": 0.0691,
      "velocity": 94,
      "chip": "ym2612"
    },
    {
      "channel": 3,
      "note": 71,
      "start": 29.3084,
      "duration": 0.0688,
      "velocity": 94,
      "chip": "ym2612"
    },
    {
      "channel": 5,
      "note": 32,
      "start": 29.3111,
      "duration": 0.1383,
      "velocity": 127,
      "chip": "ym2612"
    },
    {
      "channel": 0,
      "note": 64,
      "start": 29.4471,
      "duration": 0.1286,
      "velocity": 100,
      "chip": "ym2612"
    },
    {
      "channel": 1,
      "note": 57,
      "start": 29.4478,
      "duration": 0.1283,
      "velocity": 94,
      "chip": "ym2612"
    },
    {
      "channel": 2,
      "note": 71,
      "start": 29.4485,
      "duration": 0.0691,
      "velocity": 94,
      "chip": "ym2612"
    },
    {
      "channel": 3,
      "note": 74,
      "start": 29.4492,
      "duration": 0.0688,
      "velocity": 94,
      "chip": "ym2612"
    },
    {
      "channel": 5,
      "note": 32,
      "start": 29.452,
      "duration": 0.4195,
      "velocity": 127,
      "chip": "ym2612"
    },
    {
      "channel": 0,
      "note": 69,
      "start": 29.5881,
      "duration": 0.1285,
      "velocity": 100,
      "chip": "ym2612"
    },
    {
      "channel": 2,
      "note": 74,
      "start": 29.5892,
      "duration": 0.0694,
      "velocity": 94,
      "chip": "ym2612"
    },
    {
      "channel": 3,
      "note": 69,
      "start": 29.5899,
      "duration": 0.0691,
      "velocity": 94,
      "chip": "ym2612"
    },
    {
      "channel": 1,
      "note": 57,
      "start": 29.7292,
      "duration": 0.1286,
      "velocity": 94,
      "chip": "ym2612"
    },
    {
      "channel": 2,
      "note": 69,
      "start": 29.7299,
      "duration": 0.0695,
      "velocity": 94,
      "chip": "ym2612"
    },
    {
      "channel": 3,
      "note": 71,
      "start": 29.7306,
      "duration": 0.0692,
      "velocity": 94,
      "chip": "ym2612"
    },
    {
      "channel": 2,
      "note": 71,
      "start": 29.8705,
      "duration": 0.0698,
      "velocity": 94,
      "chip": "ym2612"
    },
    {
      "channel": 3,
      "note": 74,
      "start": 29.8712,
      "duration": 0.0695,
      "velocity": 94,
      "chip": "ym2612"
    },
    {
      "channel": 5,
      "note": 32,
      "start": 29.8739,
      "duration": 0.1383,
      "velocity": 127,
      "chip": "ym2612"
    },
    {
      "channel": 2,
      "note": 76,
      "start": 30.0113,
      "duration": 0.0698,
      "velocity": 94,
      "chip": "ym2612"
    },
    {
      "channel": 3,
      "note": 69,
      "start": 30.012,
      "duration": 0.0695,
      "velocity": 94,
      "chip": "ym2612"
    },
    {
      "channel": 5,
      "note": 32,
      "start": 30.0147,
      "duration": 0.1388,
      "velocity": 127,
      "chip": "ym2612"
    },
    {
      "channel": 0,
      "note": 57,
      "start": 30.1514,
      "duration": 0.1285,
      "velocity": 100,
      "chip": "ym2612"
    },
    {
      "channel": 1,
      "note": 57,
      "start": 30.1521,
      "duration": 0.1282,
      "velocity": 94,
      "chip": "ym2612"
    },
    {
      "channel": 3,
      "note": 71,
      "start": 30.1532,
      "duration": 0.069,
      "velocity": 94,
      "chip": "ym2612"
    },
    {
      "channel": 5,
      "note": 32,
      "start": 30.1561,
      "duration": 0.1385,
      "velocity": 127,
      "chip": "ym2612"
    },
    {
      "channel": 0,
      "note": 64,
      "start": 30.2922,
      "duration": 0.1286,
      "velocity": 100,
      "chip": "ym2612"
    },
    {
      "channel": 1,
      "note": 57,
      "start": 30.2928,
      "duration": 0.1284,
      "velocity": 94,
      "chip": "ym2612"
    },
    {
      "channel": 2,
      "note": 76,
      "start": 30.2936,
      "duration": 0.0691,
      "velocity": 94,
      "chip": "ym2612"
    },
    {
      "channel": 3,
      "note": 76,
      "start": 30.2944,
      "duration": 0.0687,
      "velocity": 94,
      "chip": "ym2612"
    },
    {
      "channel": 5,
      "note": 32,
      "start": 30.2971,
      "duration": 0.1381,
      "velocity": 127,
      "chip": "ym2612"
    },
    {
      "channel": 0,
      "note": 69,
      "start": 30.4331,
      "duration": 0.1285,
      "velocity": 100,
      "chip": "ym2612"
    },
    {
      "channel": 1,
      "note": 57,
      "start": 30.4338,
      "duration": 0.1282,
      "velocity": 94,
      "chip": "ym2612"
    },
    {
      "channel": 2,
      "note": 71,
      "start": 30.4345,
      "duration": 0.069,
      "velocity": 94,
      "chip": "ym2612"
    },
    {
      "channel": 5,
      "note": 32,
      "start": 30.4378,
      "duration": 0.2788,
      "velocity": 127,
      "chip": "ym2612"
    },
    {
      "channel": 2,
      "note": 74,
      "start": 30.5746,
      "duration": 0.07,
      "velocity": 94,
      "chip": "ym2612"
    },
    {
      "channel": 3,
      "note": 76,
      "start": 30.5754,
      "duration": 0.0696,
      "velocity": 94,
      "chip": "ym2612"
    },
    {
      "channel": 2,
      "note": 76,
      "start": 30.7155,
      "duration": 0.0699,
      "velocity": 94,
      "chip": "ym2612"
    },
    {
      "channel": 3,
      "note": 71,
      "start": 30.7162,
      "duration": 0.0696,
      "velocity": 94,
      "chip": "ym2612"
    },
    {
      "channel": 5,
      "note": 32,
      "start": 30.719,
      "duration": 0.2795,
      "velocity": 127,
      "chip": "ym2612"
    },
    {
      "channel": 1,
      "note": 57,
      "start": 30.8559,
      "duration": 0.1286,
      "velocity": 94,
      "chip": "ym2612"
    },
    {
      "channel": 2,
      "note": 71,
      "start": 30.8566,
      "duration": 0.0695,
      "velocity": 94,
      "chip": "ym2612"
    },
    {
      "channel": 3,
      "note": 74,
      "start": 30.8573,
      "duration": 0.0692,
      "velocity": 94,
      "chip": "ym2612"
    },
    {
      "channel": 0,
      "note": 57,
      "start": 30.9965,
      "duration": 0.1286,
      "velocity": 100,
      "chip": "ym2612"
    },
    {
      "channel": 2,
      "note": 74,
      "start": 30.9976,
      "duration": 0.0695,
      "velocity": 94,
      "chip": "ym2612"
    },
    {
      "channel": 3,
      "note": 76,
      "start": 30.9983,
      "duration": 0.0691,
      "velocity": 94,
      "chip": "ym2612"
    },
    {
      "channel": 5,
      "note": 32,
      "start": 31.001,
      "duration": 0.2796,
      "velocity": 127,
      "chip": "ym2612"
    },
    {
      "channel": 0,
      "note": 64,
      "start": 31.1374,
      "duration": 0.1285,
      "velocity": 100,
      "chip": "ym2612"
    },
    {
      "channel": 2,
      "note": 76,
      "start": 31.1384,
      "duration": 0.0695,
      "velocity": 94,
      "chip": "ym2612"
    },
    {
      "channel": 3,
      "note": 71,
      "start": 31.1391,
      "duration": 0.0691,
      "velocity": 94,
      "chip": "ym2612"
    },
    {
      "channel": 0,
      "note": 69,
      "start": 31.2782,
      "duration": 0.1285,
      "velocity": 100,
      "chip": "ym2612"
    },
    {
      "channel": 1,
      "note": 57,
      "start": 31.2789,
      "duration": 0.1282,
      "velocity": 94,
      "chip": "ym2612"
    },
    {
      "channel": 2,
      "note": 74,
      "start": 31.2795,
      "duration": 0.0691,
      "velocity": 94,
      "chip": "ym2612"
    },
    {
      "channel": 3,
      "note": 74,
      "start": 31.2802,
      "duration": 0.0688,
      "velocity": 94,
      "chip": "ym2612"
    },
    {
      "channel": 5,
      "note": 32,
      "start": 31.283,
      "duration": 0.138,
      "velocity": 127,
      "chip": "ym2612"
    },
    {
      "channel": 1,
      "note": 57,
      "start": 31.4194,
      "duration": 0.1286,
      "velocity": 94,
      "chip": "ym2612"
    },
    {
      "channel": 2,
      "note": 71,
      "start": 31.42,
      "duration": 0.0695,
      "velocity": 94,
      "chip": "ym2612"
    },
    {
      "channel": 3,
      "note": 76,
      "start": 31.4208,
      "duration": 0.0691,
      "velocity": 94,
      "chip": "ym2612"
    },
    {
      "channel": 5,
      "note": 32,
      "start": 31.4236,
      "duration": 0.1386,
      "velocity": 127,
      "chip": "ym2612"
    },
    {
      "channel": 0,
      "note": 55,
      "start": 31.5599,
      "duration": 0.1285,
      "velocity": 100,
      "chip": "ym2612"
    },
    {
      "channel": 1,
      "note": 55,
      "start": 31.5605,
      "duration": 0.1283,
      "velocity": 94,
      "chip": "ym2612"
    },
    {
      "channel": 2,
      "note": 69,
      "start": 31.5612,
      "duration": 0.0691,
      "velocity": 94,
      "chip": "ym2612"
    },
    {
      "channel": 3,
      "note": 74,
      "start": 31.5619,
      "duration": 0.0688,
      "velocity": 94,
      "chip": "ym2612"
    },
    {
      "channel": 5,
      "note": 32,
      "start": 31.5647,
      "duration": 0.1384,
      "velocity": 127,
      "chip": "ym2612"
    },
    {
      "channel": 0,
      "note": 62,
      "start": 31.7007,
      "duration": 0.1286,
      "velocity": 100,
      "chip": "ym2612"
    },
    {
      "channel": 1,
      "note": 55,
      "start": 31.7014,
      "duration": 0.1282,
      "velocity": 94,
      "chip": "ym2612"
    },
    {
      "channel": 2,
      "note": 71,
      "start": 31.7021,
      "duration": 0.0692,
      "velocity": 94,
      "chip": "ym2612"
    },
    {
      "channel": 3,
      "note": 71,
      "start": 31.7028,
      "duration": 0.0689,
      "velocity": 94,
      "chip": "ym2612"
    },
    {
      "channel": 5,
      "note": 32,
      "start": 31.7057,
      "duration": 0.4193,
      "velocity": 127,
      "chip": "ym2612"
    },
    {
      "channel": 0,
      "note": 67,
      "start": 31.8416,
      "duration": 0.1285,
      "velocity": 100,
      "chip": "ym2612"
    },
    {
      "channel": 2,
      "note": 74,
      "start": 31.8426,
      "duration": 0.0695,
      "velocity": 94,
      "chip": "ym2612"
    },
    {
      "channel": 3,
      "note": 69,
      "start": 31.8433,
      "duration": 0.0692,
      "velocity": 94,
      "chip": "ym2612"
    },
    {
      "channel": 1,
      "note": 55,
      "start": 31.9828,
      "duration": 0.1285,
      "velocity": 94,
      "chip": "ym2612"
    },
    {
      "channel": 2,
      "note": 69,
      "start": 31.9834,
      "duration": 0.0695,
      "velocity": 94,
      "chip": "ym2612"
    },
    {
      "channel": 3,
      "note": 71,
      "start": 31.9841,
      "duration": 0.0692,
      "velocity": 94,
      "chip": "ym2612"
    },
    {
      "channel": 2,
      "note": 71,
      "start": 32.1239,
      "duration": 0.0699,
      "velocity": 94,
      "chip": "ym2612"
    },
    {
      "channel": 3,
      "note": 74,
      "start": 32.1246,
      "duration": 0.0696,
      "velocity": 94,
      "chip": "ym2612"
    },
    {
      "channel": 5,
      "note": 32,
      "start": 32.1275,
      "duration": 0.1383,
      "velocity": 127,
      "chip": "ym2612"
    },
    {
      "channel": 2,
      "note": 74,
      "start": 32.2649,
      "duration": 0.0698,
      "velocity": 94,
      "chip": "ym2612"
    },
    {
      "channel": 3,
      "note": 69,
      "start": 32.2656,
      "duration": 0.0695,
      "velocity": 94,
      "chip": "ym2612"
    },
    {
      "channel": 5,
      "note": 32,
      "start": 32.2683,
      "duration": 0.1388,
      "velocity": 127,
      "chip": "ym2612"
    },
    {
      "channel": 0,
      "note": 55,
      "start": 32.405,
      "duration": 0.1285,
      "velocity": 100,
      "chip": "ym2612"
    },
    {
      "channel": 1,
      "note": 55,
      "start": 32.4057,
      "duration": 0.1282,
      "velocity": 94,
      "chip": "ym2612"
    },
    {
      "channel": 3,
      "note": 71,
      "start": 32.4068,
      "duration": 0.069,
      "velocity": 94,
      "chip": "ym2612"
    },
    {
      "channel": 5,
      "note": 32,
      "start": 32.4096,
      "duration": 0.1385,
      "velocity": 127,
      "chip": "ym2612"
    },
    {
      "channel": 0,
      "note": 62,
      "start": 32.5458,
      "duration": 0.1286,
      "velocity": 100,
      "chip": "ym2612"
    },
    {
      "channel": 1,
      "note": 55,
      "start": 32.5464,
      "duration": 0.1283,
      "velocity": 94,
      "chip": "ym2612"
    },
    {
      "channel": 2,
      "note": 71,
      "start": 32.5471,
      "duration": 0.0692,
      "velocity": 94,
      "chip": "ym2612"
    },
    {
      "channel": 3,
      "note": 74,
      "start": 32.5478,
      "duration": 0.0688,
      "velocity": 94,
      "chip": "ym2612"
    },
    {
      "channel": 5,
      "note": 32,
      "start": 32.5506,
      "duration": 0.1379,
      "velocity": 127,
      "chip": "ym2612"
    },
    {
      "channel": 0,
      "note": 67,
      "start": 32.6867,
      "duration": 0.1285,
      "velocity": 100,
      "chip": "ym2612"
    },
    {
      "channel": 1,
      "note": 55,
      "start": 32.6874,
      "duration": 0.1281,
      "velocity": 94,
      "chip": "ym2612"
    },
    {
      "channel": 5,
      "note": 32,
      "start": 32.6909,
      "duration": 0.2788,
      "velocity": 127,
      "chip": "ym2612"
    },
    {
      "channel": 2,
      "note": 71,
      "start": 32.8282,
      "duration": 0.0698,
      "velocity": 94,
      "chip": "ym2612"
    },
    {
      "channel": 3,
      "note": 71,
      "start": 32.8289,
      "duration": 0.0695,
      "velocity": 94,
      "chip": "ym2612"
    },
    {
      "channel": 2,
      "note": 69,
      "start": 32.969,
      "duration": 0.0698,
      "velocity": 94,
      "chip": "ym2612"
    },
    {
      "channel": 5,
      "note": 32,
      "start": 32.9723,
      "duration": 0.2798,
      "velocity": 127,
      "chip": "ym2612"
    },
    {
      "channel": 1,
      "note": 55,
      "start": 33.1095,
      "duration": 0.1286,
      "velocity": 94,
      "chip": "ym2612"
    },
    {
      "channel": 2,
      "note": 71,
      "start": 33.1101,
      "duration": 0.0696,
      "velocity": 94,
      "chip": "ym2612"
    },
    {
      "channel": 3,
      "note": 71,
      "start": 33.1109,
      "duration": 0.0692,
      "velocity": 94,
      "chip": "ym2612"
    },
    {
      "channel": 0,
      "note": 55,
      "start": 33.25,
      "duration": 0.1285,
      "velocity": 100,
      "chip": "ym2612"
    },
    {
      "channel": 2,
      "note": 74,
      "start": 33.251,
      "duration": 0.0696,
      "velocity": 94,
      "chip": "ym2612"
    },
    {
      "channel": 3,
      "note": 69,
      "start": 33.2517,
      "duration": 0.0693,
      "velocity": 94,
      "chip": "ym2612"
    },
    {
      "channel": 5,
      "note": 32,
      "start": 33.2546,
      "duration": 0.2795,
      "velocity": 127,
      "chip": "ym2612"
    },
    {
      "channel": 0,
      "note": 62,
      "start": 33.3908,
      "duration": 0.1286,
      "velocity": 100,
      "chip": "ym2612"
    },
    {
      "channel": 2,
      "note": 76,
      "start": 33.3919,
      "duration": 0.0695,
      "velocity": 94,
      "chip": "ym2612"
    },
    {
      "channel": 3,
      "note": 71,
      "start": 33.3926,
      "duration": 0.0692,
      "velocity": 94,
      "chip": "ym2612"
    },
    {
      "channel": 0,
      "note": 67,
      "start": 33.5317,
      "duration": 0.1286,
      "velocity": 100,
      "chip": "ym2612"
    },
    {
      "channel": 1,
      "note": 55,
      "start": 33.5325,
      "duration": 0.1282,
      "velocity": 94,
      "chip": "ym2612"
    },
    {
      "channel": 2,
      "note": 74,
      "start": 33.5331,
      "duration": 0.0691,
      "velocity": 94,
      "chip": "ym2612"
    },
    {
      "channel": 3,
      "note": 74,
      "start": 33.5338,
      "duration": 0.0688,
      "velocity": 94,
      "chip": "ym2612"
    },
    {
      "channel": 5,
      "note": 32,
      "start": 33.5366,
      "duration": 0.138,
      "velocity": 127,
      "chip": "ym2612"
    },
    {
      "channel": 1,
      "note": 55,
      "start": 33.6729,
      "duration": 0.1286,
      "velocity": 94,
      "chip": "ym2612"
    },
    {
      "channel": 2,
      "note": 69,
      "start": 33.6736,
      "duration": 0.0695,
      "velocity": 94,
      "chip": "ym2612"
    },
    {
      "channel": 3,
      "note": 76,
      "start": 33.6743,
      "duration": 0.0692,
      "velocity": 94,
      "chip": "ym2612"
    },
    {
      "channel": 5,
      "note": 32,
      "start": 33.677,
      "duration": 0.1387,
      "velocity": 127,
      "chip": "ym2612"
    },
    {
      "channel": 0,
      "note": 55,
      "start": 33.8134,
      "duration": 0.1285,
      "velocity": 100,
      "chip": "ym2612"
    },
    {
      "channel": 1,
      "note": 55,
      "start": 33.8141,
      "duration": 0.1283,
      "velocity": 94,
      "chip": "ym2612"
    },
    {
      "channel": 2,
      "note": 71,
      "start": 33.8147,
      "duration": 0.0692,
      "velocity": 94,
      "chip": "ym2612"
    },
    {
      "channel": 3,
      "note": 74,
      "start": 33.8154,
      "duration": 0.0688,
      "velocity": 94,
      "chip": "ym2612"
    },
    {
      "channel": 5,
      "note": 32,
      "start": 33.8182,
      "duration": 0.1384,
      "velocity": 127,
      "chip": "ym2612"
    },
    {
      "channel": 0,
      "note": 62,
      "start": 33.9543,
      "duration": 0.1285,
      "velocity": 100,
      "chip": "ym2612"
    },
    {
      "channel": 1,
      "note": 55,
      "start": 33.955,
      "duration": 0.1282,
      "velocity": 94,
      "chip": "ym2612"
    },
    {
      "channel": 2,
      "note": 74,
      "start": 33.9557,
      "duration": 0.069,
      "velocity": 94,
      "chip": "ym2612"
    },
    {
      "channel": 3,
      "note": 69,
      "start": 33.9564,
      "duration": 0.0687,
      "velocity": 94,
      "chip": "ym2612"
    },
    {
      "channel": 5,
      "note": 32,
      "start": 33.9592,
      "duration": 0.4193,
      "velocity": 127,
      "chip": "ym2612"
    },
    {
      "channel": 0,
      "note": 67,
      "start": 34.0951,
      "duration": 0.1285,
      "velocity": 100,
      "chip": "ym2612"
    },
    {
      "channel": 2,
      "note": 69,
      "start": 34.0961,
      "duration": 0.0695,
      "velocity": 94,
      "chip": "ym2612"
    },
    {
      "channel": 3,
      "note": 71,
      "start": 34.0968,
      "duration": 0.0692,
      "velocity": 94,
      "chip": "ym2612"
    },
    {
      "channel": 1,
      "note": 55,
      "start": 34.2363,
      "duration": 0.1285,
      "velocity": 94,
      "chip": "ym2612"
    },
    {
      "channel": 2,
      "note": 71,
      "start": 34.2371,
      "duration": 0.0694,
      "velocity": 94,
      "chip": "ym2612"
    },
    {
      "channel": 3,
      "note": 74,
      "start": 34.2378,
      "duration": 0.0691,
      "velocity": 94,
      "chip": "ym2612"
    },
    {
      "channel": 2,
      "note": 74,
      "start": 34.3775,
      "duration": 0.0699,
      "velocity": 94,
      "chip": "ym2612"
    },
    {
      "channel": 3,
      "note": 69,
      "start": 34.3782,
      "duration": 0.0696,
      "velocity": 94,
      "chip": "ym2612"
    },
    {
      "channel": 5,
      "note": 32,
      "start": 34.381,
      "duration": 0.1383,
      "velocity": 127,
      "chip": "ym2612"
    },
    {
      "channel": 2,
      "note": 69,
      "start": 34.5183,
      "duration": 0.07,
      "velocity": 94,
      "chip": "ym2612"
    },
    {
      "channel": 3,
      "note": 71,
      "start": 34.519,
      "duration": 0.0697,
      "velocity": 94,
      "chip": "ym2612"
    },
    {
      "channel": 5,
      "note": 32,
      "start": 34.5219,
      "duration": 0.139,
      "velocity": 127,
      "chip": "ym2612"
    },
    {
      "channel": 0,
      "note": 55,
      "start": 34.6585,
      "duration": 0.1286,
      "velocity": 100,
      "chip": "ym2612"
    },
    {
      "channel": 1,
      "note": 55,
      "start": 34.6593,
      "duration": 0.1283,
      "velocity": 94,
      "chip": "ym2612"
    },
    {
      "channel": 2,
      "note": 71,
      "start": 34.6599,
      "duration": 0.0691,
      "velocity": 94,
      "chip": "ym2612"
    },
    {
      "channel": 3,
      "note": 74,
      "start": 34.6606,
      "duration": 0.0688,
      "velocity": 94,
      "chip": "ym2612"
    },
    {
      "channel": 5,
      "note": 32,
      "start": 34.6634,
      "duration": 0.1383,
      "velocity": 127,
      "chip": "ym2612"
    },
    {
      "channel": 0,
      "note": 62,
      "start": 34.7993,
      "duration": 0.1286,
      "velocity": 100,
      "chip": "ym2612"
    },
    {
      "channel": 1,
      "note": 55,
      "start": 34.8,
      "duration": 0.1283,
      "velocity": 94,
      "chip": "ym2612"
    },
    {
      "channel": 2,
      "note": 76,
      "start": 34.8007,
      "duration": 0.0692,
      "velocity": 94,
      "chip": "ym2612"
    },
    {
      "channel": 3,
      "note": 69,
      "start": 34.8014,
      "duration": 0.0688,
      "velocity": 94,
      "chip": "ym2612"
    },
    {
      "channel": 5,
      "note": 32,
      "start": 34.8042,
      "duration": 0.138,
      "velocity": 127,
      "chip": "ym2612"
    },
    {
      "channel": 0,
      "note": 67,
      "start": 34.9402,
      "duration": 0.1285,
      "velocity": 100,
      "chip": "ym2612"
    },
    {
      "channel": 1,
      "note": 55,
      "start": 34.9409,
      "duration": 0.1282,
      "velocity": 94,
      "chip": "ym2612"
    },
    {
      "channel": 3,
      "note": 71,
      "start": 34.942,
      "duration": 0.0691,
      "velocity": 94,
      "chip": "ym2612"
    },
    {
      "channel": 5,
      "note": 32,
      "start": 34.9448,
      "duration": 0.2785,
      "velocity": 127,
      "chip": "ym2612"
    },
    {
      "channel": 2,
      "note": 76,
      "start": 35.0818,
      "duration": 0.0699,
      "velocity": 94,
      "chip": "ym2612"
    },
    {
      "channel": 3,
      "note": 76,
      "start": 35.0825,
      "duration": 0.0695,
      "velocity": 94,
      "chip": "ym2612"
    },
    {
      "channel": 2,
      "note": 69,
      "start": 35.2225,
      "duration": 0.0699,
      "velocity": 94,
      "chip": "ym2612"
    },
    {
      "channel": 5,
      "note": 32,
      "start": 35.2258,
      "duration": 0.28,
      "velocity": 127,
      "chip": "ym2612"
    },
    {
      "channel": 1,
      "note": 55,
      "start": 35.3631,
      "duration": 0.1286,
      "velocity": 94,
      "chip": "ym2612"
    },
    {
      "channel": 2,
      "note": 71,
      "start": 35.3637,
      "duration": 0.0695,
      "velocity": 94,
      "chip": "ym2612"
    },
    {
      "channel": 3,
      "note": 76,
      "start": 35.3645,
      "duration": 0.0692,
      "velocity": 94,
      "chip": "ym2612"
    },
    {
      "channel": 0,
      "note": 55,
      "start": 35.5037,
      "duration": 0.1284,
      "velocity": 100,
      "chip": "ym2612"
    },
    {
      "channel": 2,
      "note": 74,
      "start": 35.5047,
      "duration": 0.0693,
      "velocity": 94,
      "chip": "ym2612"
    },
    {
      "channel": 3,
      "note": 69,
      "start": 35.5054,
      "duration": 0.069,
      "velocity": 94,
      "chip": "ym2612"
    },
    {
      "channel": 5,
      "note": 32,
      "start": 35.5082,
      "duration": 0.2796,
      "velocity": 127,
      "chip": "ym2612"
    },
    {
      "channel": 0,
      "note": 62,
      "start": 35.6444,
      "duration": 0.1285,
      "velocity": 100,
      "chip": "ym2612"
    },
    {
      "channel": 3,
      "note": 71,
      "start": 35.6458,
      "duration": 0.0696,
      "velocity": 94,
      "chip": "ym2612"
    },
    {
      "channel": 0,
      "note": 67,
      "start": 35.7853,
      "duration": 0.1285,
      "velocity": 100,
      "chip": "ym2612"
    },
    {
      "channel": 1,
      "note": 55,
      "start": 35.786,
      "duration": 0.1282,
      "velocity": 94,
      "chip": "ym2612"
    },
    {
      "channel": 2,
      "note": 71,
      "start": 35.7867,
      "duration": 0.069,
      "velocity": 94,
      "chip": "ym2612"
    },
    {
      "channel": 3,
      "note": 74,
      "start": 35.7876,
      "duration": 0.0686,
      "velocity": 94,
      "chip": "ym2612"
    },
    {
      "channel": 5,
      "note": 32,
      "start": 35.7903,
      "duration": 0.1375,
      "velocity": 127,
      "chip": "ym2612"
    },
    {
      "channel": 1,
      "note": 55,
      "start": 35.9264,
      "duration": 0.1286,
      "velocity": 94,
      "chip": "ym2612"
    },
    {
      "channel": 2,
      "note": 74,
      "start": 35.9271,
      "duration": 0.0695,
      "velocity": 94,
      "chip": "ym2612"
    },
    {
      "channel": 5,
      "note": 32,
      "start": 35.9303,
      "duration": 0.1385,
      "velocity": 127,
      "chip": "ym2612"
    },
    {
      "channel": 3,
      "note": 71,
      "start": 36.0684,
      "duration": 0.0694,
      "velocity": 94,
      "chip": "ym2612"
    },
    {
      "channel": 3,
      "note": 74,
      "start": 36.2087,
      "duration": 0.0699,
      "velocity": 94,
      "chip": "ym2612"
    }
  ]
}