{
  "track_name": "04 - Bonus Round 1",
  "duration_sec": 92.342,
  "sample_rate": 44100,
  "note_count": 2167,
  "unique_pitches": 27,
  "pitch_range": 60,
  "avg_note_duration": 0.0968,
  "reconstruction_stats": {
    "notes_reconstructed": 2167,
    "keyon_events": 2167,
    "keyoff_events": 2165,
    "orphan_keyons": 2,
    "unique_pitches": 27,
    "pitch_range": 60,
    "avg_duration_sec": 0.0968
  },
  "metadata": {
    "source": "D\\Dragon's Revenge\\04 - Bonus Round 1.vgz"
  },
  "notes": [
    {
      "channel": 0,
      "note": 89,
      "start": 0.0,
      "duration": 0.0358,
      "velocity": 1,
      "chip": "ym2612"
    },
    {
      "channel": 1,
      "note": 63,
      "start": 0.0395,
      "duration": 2.427,
      "velocity": 122,
      "chip": "ym2612"
    },
    {
      "channel": 0,
      "note": 94,
      "start": 0.045,
      "duration": 0.0072,
      "velocity": 1,
      "chip": "ym2612"
    },
    {
      "channel": 0,
      "note": 99,
      "start": 0.0624,
      "duration": 0.0196,
      "velocity": 1,
      "chip": "ym2612"
    },
    {
      "channel": 0,
      "note": 106,
      "start": 0.0912,
      "duration": 0.0139,
      "velocity": 1,
      "chip": "ym2612"
    },
    {
      "channel": 0,
      "note": 111,
      "start": 0.1137,
      "duration": 0.02,
      "velocity": 1,
      "chip": "ym2612"
    },
    {
      "channel": 0,
      "note": 108,
      "start": 0.15,
      "duration": 0.0306,
      "velocity": 1,
      "chip": "ym2612"
    },
    {
      "channel": 0,
      "note": 106,
      "start": 0.2168,
      "duration": 0.0305,
      "velocity": 1,
      "chip": "ym2612"
    },
    {
      "channel": 0,
      "note": 103,
      "start": 0.2668,
      "duration": 0.0472,
      "velocity": 1,
      "chip": "ym2612"
    },
    {
      "channel": 0,
      "note": 99,
      "start": 0.3334,
      "duration": 0.0161,
      "velocity": 1,
      "chip": "ym2612"
    },
    {
      "channel": 0,
      "note": 94,
      "start": 0.3602,
      "duration": 0.0194,
      "velocity": 1,
      "chip": "ym2612"
    },
    {
      "channel": 0,
      "note": 89,
      "start": 0.3895,
      "duration": 0.0122,
      "velocity": 1,
      "chip": "ym2612"
    },
    {
      "channel": 0,
      "note": 87,
      "start": 0.4117,
      "duration": 0.019,
      "velocity": 1,
      "chip": "ym2612"
    },
    {
      "channel": 0,
      "note": 84,
      "start": 0.44,
      "duration": 0.0129,
      "velocity": 1,
      "chip": "ym2612"
    },
    {
      "channel": 0,
      "note": 82,
      "start": 0.4833,
      "duration": 0.0306,
      "velocity": 1,
      "chip": "ym2612"
    },
    {
      "channel": 0,
      "note": 84,
      "start": 0.5333,
      "duration": 0.0473,
      "velocity": 1,
      "chip": "ym2612"
    },
    {
      "channel": 0,
      "note": 87,
      "start": 0.6,
      "duration": 0.0305,
      "velocity": 1,
      "chip": "ym2612"
    },
    {
      "channel": 0,
      "note": 89,
      "start": 0.6503,
      "duration": 0.0224,
      "velocity": 1,
      "chip": "ym2612"
    },
    {
      "channel": 0,
      "note": 91,
      "start": 0.6838,
      "duration": 0.012,
      "velocity": 1,
      "chip": "ym2612"
    },
    {
      "channel": 0,
      "note": 94,
      "start": 0.7129,
      "duration": 0.0136,
      "velocity": 1,
      "chip": "ym2612"
    },
    {
      "channel": 0,
      "note": 99,
      "start": 0.7361,
      "duration": 0.0193,
      "velocity": 1,
      "chip": "ym2612"
    },
    {
      "channel": 0,
      "note": 103,
      "start": 0.7661,
      "duration": 0.0159,
      "velocity": 1,
      "chip": "ym2612"
    },
    {
      "channel": 0,
      "note": 106,
      "start": 0.8015,
      "duration": 0.0472,
      "velocity": 1,
      "chip": "ym2612"
    },
    {
      "channel": 0,
      "note": 108,
      "start": 0.8681,
      "duration": 0.0306,
      "velocity": 1,
      "chip": "ym2612"
    },
    {
      "channel": 0,
      "note": 111,
      "start": 0.9347,
      "duration": 0.0306,
      "velocity": 1,
      "chip": "ym2612"
    },
    {
      "channel": 0,
      "note": 108,
      "start": 0.9848,
      "duration": 0.023,
      "velocity": 1,
      "chip": "ym2612"
    },
    {
      "channel": 0,
      "note": 106,
      "start": 1.019,
      "duration": 0.0118,
      "velocity": 1,
      "chip": "ym2612"
    },
    {
      "channel": 0,
      "note": 103,
      "start": 1.0412,
      "duration": 0.0196,
      "velocity": 1,
      "chip": "ym2612"
    },
    {
      "channel": 0,
      "note": 99,
      "start": 1.0698,
      "duration": 0.0128,
      "velocity": 1,
      "chip": "ym2612"
    },
    {
      "channel": 0,
      "note": 94,
      "start": 1.0919,
      "duration": 0.024,
      "velocity": 1,
      "chip": "ym2612"
    },
    {
      "channel": 0,
      "note": 89,
      "start": 1.1354,
      "duration": 0.0306,
      "velocity": 1,
      "chip": "ym2612"
    },
    {
      "channel": 0,
      "note": 87,
      "start": 1.202,
      "duration": 0.0306,
      "velocity": 1,
      "chip": "ym2612"
    },
    {
      "channel": 0,
      "note": 84,
      "start": 1.252,
      "duration": 0.0472,
      "velocity": 1,
      "chip": "ym2612"
    },
    {
      "channel": 0,
      "note": 82,
      "start": 1.3191,
      "duration": 0.0166,
      "velocity": 1,
      "chip": "ym2612"
    },
    {
      "channel": 0,
      "note": 89,
      "start": 1.3445,
      "duration": 0.0207,
      "velocity": 1,
      "chip": "ym2612"
    },
    {
      "channel": 0,
      "note": 94,
      "start": 1.3762,
      "duration": 0.012,
      "velocity": 1,
      "chip": "ym2612"
    },
    {
      "channel": 0,
      "note": 111,
      "start": 1.4051,
      "duration": 0.0144,
      "velocity": 1,
      "chip": "ym2612"
    },
    {
      "channel": 0,
      "note": 108,
      "start": 1.4277,
      "duration": 0.0223,
      "velocity": 1,
      "chip": "ym2612"
    },
    {
      "channel": 0,
      "note": 106,
      "start": 1.4695,
      "duration": 0.0306,
      "velocity": 1,
      "chip": "ym2612"
    },
    {
      "channel": 0,
      "note": 103,
      "start": 1.5195,
      "duration": 0.0473,
      "velocity": 1,
      "chip": "ym2612"
    },
    {
      "channel": 0,
      "note": 99,
      "start": 1.5861,
      "duration": 0.0306,
      "velocity": 1,
      "chip": "ym2612"
    },
    {
      "channel": 0,
      "note": 111,
      "start": 1.6527,
      "duration": 0.0159,
      "velocity": 1,
      "chip": "ym2612"
    },
    {
      "channel": 0,
      "note": 108,
      "start": 1.6793,
      "duration": 0.0191,
      "velocity": 1,
      "chip": "ym2612"
    },
    {
      "channel": 0,
      "note": 106,
      "start": 1.7083,
      "duration": 0.0122,
      "velocity": 1,
      "chip": "ym2612"
    },
    {
      "channel": 0,
      "note": 103,
      "start": 1.7306,
      "duration": 0.0197,
      "velocity": 1,
      "chip": "ym2612"
    },
    {
      "channel": 0,
      "note": 99,
      "start": 1.7596,
      "duration": 0.0127,
      "velocity": 1,
      "chip": "ym2612"
    },
    {
      "channel": 0,
      "note": 94,
      "start": 1.8026,
      "duration": 0.0306,
      "velocity": 1,
      "chip": "ym2612"
    },
    {
      "channel": 0,
      "note": 89,
      "start": 1.8525,
      "duration": 0.0307,
      "velocity": 1,
      "chip": "ym2612"
    },
    {
      "channel": 0,
      "note": 82,
      "start": 1.9192,
      "duration": 0.0306,
      "velocity": 1,
      "chip": "ym2612"
    },
    {
      "channel": 0,
      "note": 111,
      "start": 1.9697,
      "duration": 0.0229,
      "velocity": 1,
      "chip": "ym2612"
    },
    {
      "channel": 0,
      "note": 106,
      "start": 2.0032,
      "duration": 0.0113,
      "velocity": 1,
      "chip": "ym2612"
    },
    {
      "channel": 0,
      "note": 103,
      "start": 2.0253,
      "duration": 0.0193,
      "velocity": 1,
      "chip": "ym2612"
    },
    {
      "channel": 0,
      "note": 94,
      "start": 2.0536,
      "duration": 0.0134,
      "velocity": 1,
      "chip": "ym2612"
    },
    {
      "channel": 0,
      "note": 89,
      "start": 2.0841,
      "duration": 0.0156,
      "velocity": 1,
      "chip": "ym2612"
    },
    {
      "channel": 0,
      "note": 87,
      "start": 2.1191,
      "duration": 0.0472,
      "velocity": 1,
      "chip": "ym2612"
    },
    {
      "channel": 0,
      "note": 84,
      "start": 2.1859,
      "duration": 0.0305,
      "velocity": 1,
      "chip": "ym2612"
    },
    {
      "channel": 0,
      "note": 82,
      "start": 2.2359,
      "duration": 0.0472,
      "velocity": 1,
      "chip": "ym2612"
    },
    {
      "channel": 0,
      "note": 111,
      "start": 2.3025,
      "duration": 0.0154,
      "velocity": 1,
      "chip": "ym2612"
    },
    {
      "channel": 0,
      "note": 108,
      "start": 2.3353,
      "duration": 0.0121,
      "velocity": 1,
      "chip": "ym2612"
    },
    {
      "channel": 0,
      "note": 106,
      "start": 2.3578,
      "duration": 0.0197,
      "velocity": 1,
      "chip": "ym2612"
    },
    {
      "channel": 0,
      "note": 103,
      "start": 2.387,
      "duration": 0.0133,
      "velocity": 1,
      "chip": "ym2612"
    },
    {
      "channel": 0,
      "note": 99,
      "start": 2.4093,
      "duration": 0.0239,
      "velocity": 1,
      "chip": "ym2612"
    },
    {
      "channel": 0,
      "note": 94,
      "start": 2.4525,
      "duration": 0.0307,
      "velocity": 1,
      "chip": "ym2612"
    },
    {
      "channel": 0,
      "note": 89,
      "start": 2.5192,
      "duration": 0.0306,
      "velocity": 1,
      "chip": "ym2612"
    },
    {
      "channel": 0,
      "note": 82,
      "start": 2.5692,
      "duration": 0.0306,
      "velocity": 1,
      "chip": "ym2612"
    },
    {
      "channel": 0,
      "note": 84,
      "start": 2.6363,
      "duration": 0.018,
      "velocity": 1,
      "chip": "ym2612"
    },
    {
      "channel": 1,
      "note": 65,
      "start": 2.6393,
      "duration": 2.5137,
      "velocity": 122,
      "chip": "ym2612"
    },
    {
      "channel": 0,
      "note": 89,
      "start": 2.664,
      "duration": 0.0191,
      "velocity": 1,
      "chip": "ym2612"
    },
    {
      "channel": 0,
      "note": 94,
      "start": 2.6942,
      "duration": 0.0115,
      "velocity": 1,
      "chip": "ym2612"
    },
    {
      "channel": 0,
      "note": 111,
      "start": 2.7164,
      "duration": 0.0193,
      "velocity": 1,
      "chip": "ym2612"
    },
    {
      "channel": 0,
      "note": 108,
      "start": 2.7463,
      "duration": 0.0123,
      "velocity": 1,
      "chip": "ym2612"
    },
    {
      "channel": 0,
      "note": 106,
      "start": 2.7867,
      "duration": 0.0306,
      "velocity": 1,
      "chip": "ym2612"
    },
    {
      "channel": 0,
      "note": 103,
      "start": 2.8367,
      "duration": 0.0473,
      "velocity": 1,
      "chip": "ym2612"
    },
    {
      "channel": 0,
      "note": 99,
      "start": 2.9033,
      "duration": 0.0306,
      "velocity": 1,
      "chip": "ym2612"
    },
    {
      "channel": 0,
      "note": 111,
      "start": 2.9533,
      "duration": 0.0224,
      "velocity": 1,
      "chip": "ym2612"
    },
    {
      "channel": 0,
      "note": 108,
      "start": 2.9865,
      "duration": 0.0122,
      "velocity": 1,
      "chip": "ym2612"
    },
    {
      "channel": 0,
      "note": 106,
      "start": 3.0155,
      "duration": 0.0134,
      "velocity": 1,
      "chip": "ym2612"
    },
    {
      "channel": 0,
      "note": 103,
      "start": 3.0387,
      "duration": 0.0193,
      "velocity": 1,
      "chip": "ym2612"
    },
    {
      "channel": 0,
      "note": 99,
      "start": 3.069,
      "duration": 0.0156,
      "velocity": 1,
      "chip": "ym2612"
    },
    {
      "channel": 0,
      "note": 94,
      "start": 3.104,
      "duration": 0.0472,
      "velocity": 1,
      "chip": "ym2612"
    },
    {
      "channel": 0,
      "note": 89,
      "start": 3.1707,
      "duration": 0.0305,
      "velocity": 1,
      "chip": "ym2612"
    },
    {
      "channel": 0,
      "note": 82,
      "start": 3.2373,
      "duration": 0.0306,
      "velocity": 1,
      "chip": "ym2612"
    },
    {
      "channel": 0,
      "note": 111,
      "start": 3.2876,
      "duration": 0.0227,
      "velocity": 1,
      "chip": "ym2612"
    },
    {
      "channel": 0,
      "note": 106,
      "start": 3.3214,
      "duration": 0.0118,
      "velocity": 1,
      "chip": "ym2612"
    },
    {
      "channel": 0,
      "note": 103,
      "start": 3.3436,
      "duration": 0.0198,
      "velocity": 1,
      "chip": "ym2612"
    },
    {
      "channel": 0,
      "note": 99,
      "start": 3.3731,
      "duration": 0.0131,
      "velocity": 1,
      "chip": "ym2612"
    },
    {
      "channel": 0,
      "note": 94,
      "start": 3.3949,
      "duration": 0.0239,
      "velocity": 1,
      "chip": "ym2612"
    },
    {
      "channel": 0,
      "note": 89,
      "start": 3.4383,
      "duration": 0.0306,
      "velocity": 1,
      "chip": "ym2612"
    },
    {
      "channel": 0,
      "note": 87,
      "start": 3.5049,
      "duration": 0.0306,
      "velocity": 1,
      "chip": "ym2612"
    },
    {
      "channel": 0,
      "note": 84,
      "start": 3.5549,
      "duration": 0.0473,
      "velocity": 1,
      "chip": "ym2612"
    },
    {
      "channel": 0,
      "note": 82,
      "start": 3.6216,
      "duration": 0.0154,
      "velocity": 1,
      "chip": "ym2612"
    },
    {
      "channel": 0,
      "note": 111,
      "start": 3.6464,
      "duration": 0.02,
      "velocity": 1,
      "chip": "ym2612"
    },
    {
      "channel": 0,
      "note": 108,
      "start": 3.6768,
      "duration": 0.0122,
      "velocity": 1,
      "chip": "ym2612"
    },
    {
      "channel": 0,
      "note": 106,
      "start": 3.7056,
      "duration": 0.0134,
      "velocity": 1,
      "chip": "ym2612"
    },
    {
      "channel": 0,
      "note": 103,
      "start": 3.7284,
      "duration": 0.0238,
      "velocity": 1,
      "chip": "ym2612"
    },
    {
      "channel": 0,
      "note": 99,
      "start": 3.7716,
      "duration": 0.0305,
      "velocity": 1,
      "chip": "ym2612"
    },
    {
      "channel": 0,
      "note": 94,
      "start": 3.8216,
      "duration": 0.0473,
      "velocity": 1,
      "chip": "ym2612"
    },
    {
      "channel": 0,
      "note": 89,
      "start": 3.8883,
      "duration": 0.0305,
      "velocity": 1,
      "chip": "ym2612"
    },
    {
      "channel": 0,
      "note": 82,
      "start": 3.9552,
      "duration": 0.0164,
      "velocity": 1,
      "chip": "ym2612"
    },
    {
      "channel": 0,
      "note": 89,
      "start": 3.9806,
      "duration": 0.0202,
      "velocity": 1,
      "chip": "ym2612"
    },
    {
      "channel": 0,
      "note": 94,
      "start": 4.0119,
      "duration": 0.0117,
      "velocity": 1,
      "chip": "ym2612"
    },
    {
      "channel": 0,
      "note": 111,
      "start": 4.0345,
      "duration": 0.0195,
      "velocity": 1,
      "chip": "ym2612"
    },
    {
      "channel": 0,
      "note": 108,
      "start": 4.0622,
      "duration": 0.0134,
      "velocity": 1,
      "chip": "ym2612"
    },
    {
      "channel": 0,
      "note": 106,
      "start": 4.0876,
      "duration": 0.0472,
      "velocity": 1,
      "chip": "ym2612"
    },
    {
      "channel": 0,
      "note": 103,
      "start": 4.1542,
      "duration": 0.0306,
      "velocity": 1,
      "chip": "ym2612"
    },
    {
      "channel": 0,
      "note": 99,
      "start": 4.2208,
      "duration": 0.0306,
      "velocity": 1,
      "chip": "ym2612"
    },
    {
      "channel": 0,
      "note": 111,
      "start": 4.2709,
      "duration": 0.0225,
      "velocity": 1,
      "chip": "ym2612"
    },
    {
      "channel": 0,
      "note": 108,
      "start": 4.304,
      "duration": 0.0121,
      "velocity": 1,
      "chip": "ym2612"
    },
    {
      "channel": 0,
      "note": 106,
      "start": 4.3266,
      "duration": 0.0201,
      "velocity": 1,
      "chip": "ym2612"
    },
    {
      "channel": 0,
      "note": 103,
      "start": 4.3562,
      "duration": 0.0133,
      "velocity": 1,
      "chip": "ym2612"
    },
    {
      "channel": 0,
      "note": 99,
      "start": 4.3865,
      "duration": 0.0156,
      "velocity": 1,
      "chip": "ym2612"
    },
    {
      "channel": 0,
      "note": 94,
      "start": 4.4215,
      "duration": 0.0472,
      "velocity": 1,
      "chip": "ym2612"
    },
    {
      "channel": 0,
      "note": 89,
      "start": 4.4882,
      "duration": 0.0305,
      "velocity": 1,
      "chip": "ym2612"
    },
    {
      "channel": 0,
      "note": 82,
      "start": 4.5382,
      "duration": 0.0472,
      "velocity": 1,
      "chip": "ym2612"
    },
    {
      "channel": 0,
      "note": 111,
      "start": 4.6051,
      "duration": 0.0156,
      "velocity": 1,
      "chip": "ym2612"
    },
    {
      "channel": 0,
      "note": 106,
      "start": 4.6381,
      "duration": 0.0113,
      "velocity": 1,
      "chip": "ym2612"
    },
    {
      "channel": 0,
      "note": 103,
      "start": 4.6602,
      "duration": 0.0195,
      "velocity": 1,
      "chip": "ym2612"
    },
    {
      "channel": 0,
      "note": 94,
      "start": 4.6886,
      "duration": 0.0131,
      "velocity": 1,
      "chip": "ym2612"
    },
    {
      "channel": 0,
      "note": 89,
      "start": 4.7112,
      "duration": 0.0241,
      "velocity": 1,
      "chip": "ym2612"
    },
    {
      "channel": 0,
      "note": 87,
      "start": 4.7549,
      "duration": 0.0305,
      "velocity": 1,
      "chip": "ym2612"
    },
    {
      "channel": 0,
      "note": 84,
      "start": 4.8048,
      "duration": 0.0473,
      "velocity": 1,
      "chip": "ym2612"
    },
    {
      "channel": 0,
      "note": 82,
      "start": 4.8715,
      "duration": 0.0306,
      "velocity": 1,
      "chip": "ym2612"
    },
    {
      "channel": 0,
      "note": 111,
      "start": 4.9381,
      "duration": 0.016,
      "velocity": 1,
      "chip": "ym2612"
    },
    {
      "channel": 0,
      "note": 108,
      "start": 4.9634,
      "duration": 0.02,
      "velocity": 1,
      "chip": "ym2612"
    },
    {
      "channel": 0,
      "note": 106,
      "start": 4.9939,
      "duration": 0.0122,
      "velocity": 1,
      "chip": "ym2612"
    },
    {
      "channel": 0,
      "note": 103,
      "start": 5.0161,
      "duration": 0.0198,
      "velocity": 1,
      "chip": "ym2612"
    },
    {
      "channel": 0,
      "note": 99,
      "start": 5.0452,
      "duration": 0.0129,
      "velocity": 1,
      "chip": "ym2612"
    },
    {
      "channel": 0,
      "note": 94,
      "start": 5.089,
      "duration": 0.0305,
      "velocity": 1,
      "chip": "ym2612"
    },
    {
      "channel": 0,
      "note": 89,
      "start": 5.1389,
      "duration": 0.0473,
      "velocity": 1,
      "chip": "ym2612"
    },
    {
      "channel": 0,
      "note": 82,
      "start": 5.2055,
      "duration": 0.0306,
      "velocity": 1,
      "chip": "ym2612"
    },
    {
      "channel": 0,
      "note": 82,
      "start": 5.256,
      "duration": 0.0249,
      "velocity": 1,
      "chip": "ym2612"
    },
    {
      "channel": 1,
      "note": 70,
      "start": 5.259,
      "duration": 2.0388,
      "velocity": 122,
      "chip": "ym2612"
    },
    {
      "channel": 0,
      "note": 89,
      "start": 5.291,
      "duration": 0.0131,
      "velocity": 1,
      "chip": "ym2612"
    },
    {
      "channel": 0,
      "note": 94,
      "start": 5.322,
      "duration": 0.0124,
      "velocity": 1,
      "chip": "ym2612"
    },
    {
      "channel": 0,
      "note": 101,
      "start": 5.3449,
      "duration": 0.02,
      "velocity": 1,
      "chip": "ym2612"
    },
    {
      "channel": 0,
      "note": 106,
      "start": 5.3746,
      "duration": 0.0147,
      "velocity": 1,
      "chip": "ym2612"
    },
    {
      "channel": 0,
      "note": 103,
      "start": 5.4088,
      "duration": 0.0473,
      "velocity": 1,
      "chip": "ym2612"
    },
    {
      "channel": 0,
      "note": 101,
      "start": 5.4755,
      "duration": 0.0305,
      "velocity": 1,
      "chip": "ym2612"
    },
    {
      "channel": 0,
      "note": 98,
      "start": 5.5256,
      "duration": 0.0472,
      "velocity": 1,
      "chip": "ym2612"
    },
    {
      "channel": 0,
      "note": 94,
      "start": 5.5922,
      "duration": 0.0154,
      "velocity": 1,
      "chip": "ym2612"
    },
    {
      "channel": 0,
      "note": 89,
      "start": 5.625,
      "duration": 0.012,
      "velocity": 1,
      "chip": "ym2612"
    },
    {
      "channel": 0,
      "note": 84,
      "start": 5.6476,
      "duration": 0.0196,
      "velocity": 1,
      "chip": "ym2612"
    },
    {
      "channel": 0,
      "note": 82,
      "start": 5.6769,
      "duration": 0.0132,
      "velocity": 1,
      "chip": "ym2612"
    },
    {
      "channel": 0,
      "note": 79,
      "start": 5.699,
      "duration": 0.0236,
      "velocity": 1,
      "chip": "ym2612"
    },
    {
      "channel": 0,
      "note": 77,
      "start": 5.742,
      "duration": 0.0305,
      "velocity": 1,
      "chip": "ym2612"
    },
    {
      "channel": 0,
      "note": 79,
      "start": 5.8086,
      "duration": 0.0306,
      "velocity": 1,
      "chip": "ym2612"
    },
    {
      "channel": 0,
      "note": 82,
      "start": 5.8587,
      "duration": 0.0473,
      "velocity": 1,
      "chip": "ym2612"
    },
    {
      "channel": 0,
      "note": 84,
      "start": 5.9256,
      "duration": 0.0156,
      "velocity": 1,
      "chip": "ym2612"
    },
    {
      "channel": 0,
      "note": 86,
      "start": 5.9502,
      "duration": 0.0201,
      "velocity": 1,
      "chip": "ym2612"
    },
    {
      "channel": 0,
      "note": 89,
      "start": 5.9813,
      "duration": 0.0122,
      "velocity": 1,
      "chip": "ym2612"
    },
    {
      "channel": 0,
      "note": 94,
      "start": 6.0107,
      "duration": 0.0135,
      "velocity": 1,
      "chip": "ym2612"
    },
    {
      "channel": 0,
      "note": 98,
      "start": 6.0333,
      "duration": 0.0235,
      "velocity": 1,
      "chip": "ym2612"
    },
    {
      "channel": 0,
      "note": 101,
      "start": 6.0762,
      "duration": 0.0306,
      "velocity": 1,
      "chip": "ym2612"
    },
    {
      "channel": 0,
      "note": 103,
      "start": 6.1262,
      "duration": 0.0473,
      "velocity": 1,
      "chip": "ym2612"
    },
    {
      "channel": 0,
      "note": 106,
      "start": 6.1928,
      "duration": 0.0306,
      "velocity": 1,
      "chip": "ym2612"
    },
    {
      "channel": 0,
      "note": 103,
      "start": 6.2595,
      "duration": 0.0158,
      "velocity": 1,
      "chip": "ym2612"
    },
    {
      "channel": 0,
      "note": 101,
      "start": 6.286,
      "duration": 0.0121,
      "velocity": 1,
      "chip": "ym2612"
    },
    {
      "channel": 0,
      "note": 98,
      "start": 6.3156,
      "duration": 0.0122,
      "velocity": 1,
      "chip": "ym2612"
    },
    {
      "channel": 0,
      "note": 94,
      "start": 6.3377,
      "duration": 0.0194,
      "velocity": 1,
      "chip": "ym2612"
    },
    {
      "channel": 0,
      "note": 89,
      "start": 6.3661,
      "duration": 0.0127,
      "velocity": 1,
      "chip": "ym2612"
    },
    {
      "channel": 0,
      "note": 84,
      "start": 6.3926,
      "duration": 0.0472,
      "velocity": 1,
      "chip": "ym2612"
    },
    {
      "channel": 0,
      "note": 82,
      "start": 6.4593,
      "duration": 0.0305,
      "velocity": 1,
      "chip": "ym2612"
    },
    {
      "channel": 0,
      "note": 79,
      "start": 6.5259,
      "duration": 0.0306,
      "velocity": 1,
      "chip": "ym2612"
    },
    {
      "channel": 0,
      "note": 77,
      "start": 6.5762,
      "duration": 0.0234,
      "velocity": 1,
      "chip": "ym2612"
    },
    {
      "channel": 0,
      "note": 84,
      "start": 6.6105,
      "duration": 0.0115,
      "velocity": 1,
      "chip": "ym2612"
    },
    {
      "channel": 0,
      "note": 89,
      "start": 6.6331,
      "duration": 0.0199,
      "velocity": 1,
      "chip": "ym2612"
    },
    {
      "channel": 0,
      "note": 106,
      "start": 6.662,
      "duration": 0.0144,
      "velocity": 1,
      "chip": "ym2612"
    },
    {
      "channel": 0,
      "note": 103,
      "start": 6.6923,
      "duration": 0.0153,
      "velocity": 1,
      "chip": "ym2612"
    },
    {
      "channel": 0,
      "note": 101,
      "start": 6.727,
      "duration": 0.0472,
      "velocity": 1,
      "chip": "ym2612"
    },
    {
      "channel": 0,
      "note": 98,
      "start": 6.7938,
      "duration": 0.0305,
      "velocity": 1,
      "chip": "ym2612"
    },
    {
      "channel": 0,
      "note": 94,
      "start": 6.8437,
      "duration": 0.0473,
      "velocity": 1,
      "chip": "ym2612"
    },
    {
      "channel": 0,
      "note": 106,
      "start": 6.9104,
      "duration": 0.0154,
      "velocity": 1,
      "chip": "ym2612"
    },
    {
      "channel": 0,
      "note": 103,
      "start": 6.9432,
      "duration": 0.0121,
      "velocity": 1,
      "chip": "ym2612"
    },
    {
      "channel": 0,
      "note": 101,
      "start": 6.9658,
      "duration": 0.0124,
      "velocity": 1,
      "chip": "ym2612"
    },
    {
      "channel": 0,
      "note": 98,
      "start": 6.9954,
      "duration": 0.0133,
      "velocity": 1,
      "chip": "ym2612"
    },
    {
      "channel": 0,
      "note": 94,
      "start": 7.0183,
      "duration": 0.0239,
      "velocity": 1,
      "chip": "ym2612"
    },
    {
      "channel": 0,
      "note": 89,
      "start": 7.0617,
      "duration": 0.0305,
      "velocity": 1,
      "chip": "ym2612"
    },
    {
      "channel": 0,
      "note": 84,
      "start": 7.1116,
      "duration": 0.0473,
      "velocity": 1,
      "chip": "ym2612"
    },
    {
      "channel": 0,
      "note": 77,
      "start": 7.1783,
      "duration": 0.0305,
      "velocity": 1,
      "chip": "ym2612"
    },
    {
      "channel": 0,
      "note": 106,
      "start": 7.2453,
      "duration": 0.0153,
      "velocity": 1,
      "chip": "ym2612"
    },
    {
      "channel": 0,
      "note": 101,
      "start": 7.2698,
      "duration": 0.0202,
      "velocity": 1,
      "chip": "ym2612"
    },
    {
      "channel": 0,
      "note": 98,
      "start": 7.3004,
      "duration": 0.012,
      "velocity": 1,
      "chip": "ym2612"
    },
    {
      "channel": 0,
      "note": 89,
      "start": 7.3225,
      "duration": 0.0203,
      "velocity": 1,
      "chip": "ym2612"
    },
    {
      "channel": 0,
      "note": 84,
      "start": 7.3521,
      "duration": 0.0152,
      "velocity": 1,
      "chip": "ym2612"
    },
    {
      "channel": 1,
      "note": 77,
      "start": 7.3557,
      "duration": 0.5202,
      "velocity": 122,
      "chip": "ym2612"
    },
    {
      "channel": 0,
      "note": 82,
      "start": 7.3955,
      "duration": 0.0305,
      "velocity": 1,
      "chip": "ym2612"
    },
    {
      "channel": 0,
      "note": 79,
      "start": 7.4454,
      "duration": 0.0473,
      "velocity": 1,
      "chip": "ym2612"
    },
    {
      "channel": 0,
      "note": 77,
      "start": 7.5121,
      "duration": 0.0306,
      "velocity": 1,
      "chip": "ym2612"
    },
    {
      "channel": 0,
      "note": 106,
      "start": 7.5621,
      "duration": 0.0224,
      "velocity": 1,
      "chip": "ym2612"
    },
    {
      "channel": 0,
      "note": 103,
      "start": 7.595,
      "duration": 0.012,
      "velocity": 1,
      "chip": "ym2612"
    },
    {
      "channel": 0,
      "note": 101,
      "start": 7.6239,
      "duration": 0.0132,
      "velocity": 1,
      "chip": "ym2612"
    },
    {
      "channel": 0,
      "note": 98,
      "start": 7.6468,
      "duration": 0.0193,
      "velocity": 1,
      "chip": "ym2612"
    },
    {
      "channel": 0,
      "note": 94,
      "start": 7.6772,
      "duration": 0.0152,
      "velocity": 1,
      "chip": "ym2612"
    },
    {
      "channel": 0,
      "note": 89,
      "start": 7.7118,
      "duration": 0.0473,
      "velocity": 1,
      "chip": "ym2612"
    },
    {
      "channel": 0,
      "note": 84,
      "start": 7.7786,
      "duration": 0.0305,
      "velocity": 1,
      "chip": "ym2612"
    },
    {
      "channel": 0,
      "note": 77,
      "start": 7.8285,
      "duration": 0.0473,
      "velocity": 1,
      "chip": "ym2612"
    },
    {
      "channel": 0,
      "note": 79,
      "start": 7.8955,
      "duration": 0.0177,
      "velocity": 1,
      "chip": "ym2612"
    },
    {
      "channel": 1,
      "note": 72,
      "start": 7.8988,
      "duration": 1.897,
      "velocity": 122,
      "chip": "ym2612"
    },
    {
      "channel": 0,
      "note": 84,
      "start": 7.93,
      "duration": 0.013,
      "velocity": 1,
      "chip": "ym2612"
    },
    {
      "channel": 0,
      "note": 89,
      "start": 7.9531,
      "duration": 0.0204,
      "velocity": 1,
      "chip": "ym2612"
    },
    {
      "channel": 0,
      "note": 106,
      "start": 7.984,
      "duration": 0.0122,
      "velocity": 1,
      "chip": "ym2612"
    },
    {
      "channel": 0,
      "note": 103,
      "start": 8.0067,
      "duration": 0.021,
      "velocity": 1,
      "chip": "ym2612"
    },
    {
      "channel": 0,
      "note": 101,
      "start": 8.0471,
      "duration": 0.0305,
      "velocity": 1,
      "chip": "ym2612"
    },
    {
      "channel": 0,
      "note": 98,
      "start": 8.1137,
      "duration": 0.0306,
      "velocity": 1,
      "chip": "ym2612"
    },
    {
      "channel": 0,
      "note": 94,
      "start": 8.1638,
      "duration": 0.0472,
      "velocity": 1,
      "chip": "ym2612"
    },
    {
      "channel": 0,
      "note": 106,
      "start": 8.2304,
      "duration": 0.0154,
      "velocity": 1,
      "chip": "ym2612"
    },
    {
      "channel": 0,
      "note": 103,
      "start": 8.2552,
      "duration": 0.02,
      "velocity": 1,
      "chip": "ym2612"
    },
    {
      "channel": 0,
      "note": 101,
      "start": 8.2856,
      "duration": 0.0122,
      "velocity": 1,
      "chip": "ym2612"
    },
    {
      "channel": 0,
      "note": 98,
      "start": 8.3143,
      "duration": 0.0128,
      "velocity": 1,
      "chip": "ym2612"
    },
    {
      "channel": 0,
      "note": 94,
      "start": 8.3364,
      "duration": 0.0239,
      "velocity": 1,
      "chip": "ym2612"
    },
    {
      "channel": 0,
      "note": 89,
      "start": 8.3797,
      "duration": 0.0306,
      "velocity": 1,
      "chip": "ym2612"
    },
    {
      "channel": 0,
      "note": 84,
      "start": 8.4297,
      "duration": 0.0473,
      "velocity": 1,
      "chip": "ym2612"
    },
    {
      "channel": 0,
      "note": 77,
      "start": 8.4964,
      "duration": 0.0306,
      "velocity": 1,
      "chip": "ym2612"
    },
    {
      "channel": 0,
      "note": 106,
      "start": 8.5468,
      "duration": 0.0227,
      "velocity": 1,
      "chip": "ym2612"
    },
    {
      "channel": 0,
      "note": 101,
      "start": 8.5806,
      "duration": 0.0113,
      "velocity": 1,
      "chip": "ym2612"
    },
    {
      "channel": 0,
      "note": 98,
      "start": 8.6089,
      "duration": 0.0133,
      "velocity": 1,
      "chip": "ym2612"
    },
    {
      "channel": 0,
      "note": 94,
      "start": 8.631,
      "duration": 0.0193,
      "velocity": 1,
      "chip": "ym2612"
    },
    {
      "channel": 0,
      "note": 89,
      "start": 8.6611,
      "duration": 0.0159,
      "velocity": 1,
      "chip": "ym2612"
    },
    {
      "channel": 0,
      "note": 84,
      "start": 8.6965,
      "duration": 0.0472,
      "velocity": 1,
      "chip": "ym2612"
    },
    {
      "channel": 0,
      "note": 82,
      "start": 8.7631,
      "duration": 0.0306,
      "velocity": 1,
      "chip": "ym2612"
    },
    {
      "channel": 0,
      "note": 79,
      "start": 8.8297,
      "duration": 0.0306,
      "velocity": 1,
      "chip": "ym2612"
    },
    {
      "channel": 0,
      "note": 77,
      "start": 8.8798,
      "duration": 0.0224,
      "velocity": 1,
      "chip": "ym2612"
    },
    {
      "channel": 0,
      "note": 106,
      "start": 8.9128,
      "duration": 0.012,
      "velocity": 1,
      "chip": "ym2612"
    },
    {
      "channel": 0,
      "note": 103,
      "start": 8.9354,
      "duration": 0.0202,
      "velocity": 1,
      "chip": "ym2612"
    },
    {
      "channel": 0,
      "note": 101,
      "start": 8.9652,
      "duration": 0.0133,
      "velocity": 1,
      "chip": "ym2612"
    },
    {
      "channel": 0,
      "note": 98,
      "start": 8.9961,
      "duration": 0.0156,
      "velocity": 1,
      "chip": "ym2612"
    },
    {
      "channel": 0,
      "note": 94,
      "start": 9.0311,
      "duration": 0.0472,
      "velocity": 1,
      "chip": "ym2612"
    },
    {
      "channel": 0,
      "note": 89,
      "start": 9.0978,
      "duration": 0.0305,
      "velocity": 1,
      "chip": "ym2612"
    },
    {
      "channel": 0,
      "note": 84,
      "start": 9.1478,
      "duration": 0.0472,
      "velocity": 1,
      "chip": "ym2612"
    },
    {
      "channel": 0,
      "note": 77,
      "start": 9.2147,
      "duration": 0.0163,
      "velocity": 1,
      "chip": "ym2612"
    },
    {
      "channel": 0,
      "note": 84,
      "start": 9.241,
      "duration": 0.0202,
      "velocity": 1,
      "chip": "ym2612"
    },
    {
      "channel": 0,
      "note": 89,
      "start": 9.2722,
      "duration": 0.012,
      "velocity": 1,
      "chip": "ym2612"
    },
    {
      "channel": 0,
      "note": 106,
      "start": 9.3009,
      "duration": 0.014,
      "velocity": 1,
      "chip": "ym2612"
    },
    {
      "channel": 0,
      "note": 103,
      "start": 9.3238,
      "duration": 0.0225,
      "velocity": 1,
      "chip": "ym2612"
    },
    {
      "channel": 0,
      "note": 101,
      "start": 9.3658,
      "duration": 0.0307,
      "velocity": 1,
      "chip": "ym2612"
    },
    {
      "channel": 0,
      "note": 98,
      "start": 9.4158,
      "duration": 0.0473,
      "velocity": 1,
      "chip": "ym2612"
    },
    {
      "channel": 0,
      "note": 94,
      "start": 9.4824,
      "duration": 0.0306,
      "velocity": 1,
      "chip": "ym2612"
    },
    {
      "channel": 0,
      "note": 106,
      "start": 9.5491,
      "duration": 0.0159,
      "velocity": 1,
      "chip": "ym2612"
    },
    {
      "channel": 0,
      "note": 103,
      "start": 9.5757,
      "duration": 0.0191,
      "velocity": 1,
      "chip": "ym2612"
    },
    {
      "channel": 0,
      "note": 101,
      "start": 9.6047,
      "duration": 0.0122,
      "velocity": 1,
      "chip": "ym2612"
    },
    {
      "channel": 0,
      "note": 98,
      "start": 9.6268,
      "duration": 0.0189,
      "velocity": 1,
      "chip": "ym2612"
    },
    {
      "channel": 0,
      "note": 94,
      "start": 9.6551,
      "duration": 0.0129,
      "velocity": 1,
      "chip": "ym2612"
    },
    {
      "channel": 0,
      "note": 89,
      "start": 9.6984,
      "duration": 0.0306,
      "velocity": 1,
      "chip": "ym2612"
    },
    {
      "channel": 0,
      "note": 84,
      "start": 9.7484,
      "duration": 0.0473,
      "velocity": 1,
      "chip": "ym2612"
    },
    {
      "channel": 0,
      "note": 77,
      "start": 9.815,
      "duration": 0.0306,
      "velocity": 1,
      "chip": "ym2612"
    },
    {
      "channel": 0,
      "note": 106,
      "start": 9.8655,
      "duration": 0.0237,
      "velocity": 1,
      "chip": "ym2612"
    },
    {
      "channel": 1,
      "note": 79,
      "start": 9.8682,
      "duration": 0.1463,
      "velocity": 122,
      "chip": "ym2612"
    },
    {
      "channel": 0,
      "note": 101,
      "start": 9.9005,
      "duration": 0.0118,
      "velocity": 1,
      "chip": "ym2612"
    },
    {
      "channel": 0,
      "note": 98,
      "start": 9.9232,
      "duration": 0.0194,
      "velocity": 1,
      "chip": "ym2612"
    },
    {
      "channel": 0,
      "note": 89,
      "start": 9.9528,
      "duration": 0.013,
      "velocity": 1,
      "chip": "ym2612"
    },
    {
      "channel": 0,
      "note": 84,
      "start": 9.9826,
      "duration": 0.0152,
      "velocity": 1,
      "chip": "ym2612"
    },
    {
      "channel": 0,
      "note": 82,
      "start": 10.0172,
      "duration": 0.0473,
      "velocity": 1,
      "chip": "ym2612"
    },
    {
      "channel": 0,
      "note": 79,
      "start": 10.0838,
      "duration": 0.0307,
      "velocity": 1,
      "chip": "ym2612"
    },
    {
      "channel": 1,
      "note": 82,
      "start": 10.1177,
      "duration": 0.3304,
      "velocity": 122,
      "chip": "ym2612"
    },
    {
      "channel": 0,
      "note": 77,
      "start": 10.1339,
      "duration": 0.0472,
      "velocity": 1,
      "chip": "ym2612"
    },
    {
      "channel": 0,
      "note": 106,
      "start": 10.2005,
      "duration": 0.0155,
      "velocity": 1,
      "chip": "ym2612"
    },
    {
      "channel": 0,
      "note": 103,
      "start": 10.2336,
      "duration": 0.0122,
      "velocity": 1,
      "chip": "ym2612"
    },
    {
      "channel": 0,
      "note": 101,
      "start": 10.2561,
      "duration": 0.0196,
      "velocity": 1,
      "chip": "ym2612"
    },
    {
      "channel": 0,
      "note": 98,
      "start": 10.2854,
      "duration": 0.0131,
      "velocity": 1,
      "chip": "ym2612"
    },
    {
      "channel": 0,
      "note": 94,
      "start": 10.3075,
      "duration": 0.0239,
      "velocity": 1,
      "chip": "ym2612"
    },
    {
      "channel": 0,
      "note": 89,
      "start": 10.3507,
      "duration": 0.0306,
      "velocity": 1,
      "chip": "ym2612"
    },
    {
      "channel": 0,
      "note": 84,
      "start": 10.4174,
      "duration": 0.0306,
      "velocity": 1,
      "chip": "ym2612"
    },
    {
      "channel": 0,
      "note": 77,
      "start": 10.4674,
      "duration": 0.0474,
      "velocity": 1,
      "chip": "ym2612"
    },
    {
      "channel": 0,
      "note": 89,
      "start": 10.5363,
      "duration": 0.0186,
      "velocity": 1,
      "chip": "ym2612"
    },
    {
      "channel": 1,
      "note": 63,
      "start": 10.5392,
      "duration": 1.8778,
      "velocity": 122,
      "chip": "ym2612"
    },
    {
      "channel": 3,
      "note": 51,
      "start": 10.5426,
      "duration": 2.0824,
      "velocity": 88,
      "chip": "ym2612"
    },
    {
      "channel": 0,
      "note": 94,
      "start": 10.5656,
      "duration": 0.0189,
      "velocity": 1,
      "chip": "ym2612"
    },
    {
      "channel": 0,
      "note": 99,
      "start": 10.5942,
      "duration": 0.0132,
      "velocity": 1,
      "chip": "ym2612"
    },
    {
      "channel": 0,
      "note": 106,
      "start": 10.6246,
      "duration": 0.0128,
      "velocity": 1,
      "chip": "ym2612"
    },
    {
      "channel": 0,
      "note": 111,
      "start": 10.6466,
      "duration": 0.0138,
      "velocity": 1,
      "chip": "ym2612"
    },
    {
      "channel": 4,
      "note": 75,
      "start": 10.6509,
      "duration": 1.7494,
      "velocity": 122,
      "chip": "ym2612"
    },
    {
      "channel": 0,
      "note": 108,
      "start": 10.6837,
      "duration": 0.0307,
      "velocity": 1,
      "chip": "ym2612"
    },
    {
      "channel": 0,
      "note": 106,
      "start": 10.7338,
      "duration": 0.0471,
      "velocity": 1,
      "chip": "ym2612"
    },
    {
      "channel": 0,
      "note": 103,
      "start": 10.8004,
      "duration": 0.0306,
      "velocity": 1,
      "chip": "ym2612"
    },
    {
      "channel": 0,
      "note": 99,
      "start": 10.8504,
      "duration": 0.0222,
      "velocity": 1,
      "chip": "ym2612"
    },
    {
      "channel": 0,
      "note": 94,
      "start": 10.8835,
      "duration": 0.0116,
      "velocity": 1,
      "chip": "ym2612"
    },
    {
      "channel": 0,
      "note": 89,
      "start": 10.912,
      "duration": 0.0134,
      "velocity": 1,
      "chip": "ym2612"
    },
    {
      "channel": 0,
      "note": 87,
      "start": 10.935,
      "duration": 0.0193,
      "velocity": 1,
      "chip": "ym2612"
    },
    {
      "channel": 0,
      "note": 84,
      "start": 10.9652,
      "duration": 0.0156,
      "velocity": 1,
      "chip": "ym2612"
    },
    {
      "channel": 0,
      "note": 82,
      "start": 11.0002,
      "duration": 0.0473,
      "velocity": 1,
      "chip": "ym2612"
    },
    {
      "channel": 0,
      "note": 84,
      "start": 11.0669,
      "duration": 0.0305,
      "velocity": 1,
      "chip": "ym2612"
    },
    {
      "channel": 0,
      "note": 87,
      "start": 11.1334,
      "duration": 0.0307,
      "velocity": 1,
      "chip": "ym2612"
    },
    {
      "channel": 0,
      "note": 89,
      "start": 11.1835,
      "duration": 0.0227,
      "velocity": 1,
      "chip": "ym2612"
    },
    {
      "channel": 0,
      "note": 91,
      "start": 11.2168,
      "duration": 0.012,
      "velocity": 1,
      "chip": "ym2612"
    },
    {
      "channel": 0,
      "note": 94,
      "start": 11.2393,
      "duration": 0.0201,
      "velocity": 1,
      "chip": "ym2612"
    },
    {
      "channel": 0,
      "note": 99,
      "start": 11.269,
      "duration": 0.0132,
      "velocity": 1,
      "chip": "ym2612"
    },
    {
      "channel": 0,
      "note": 103,
      "start": 11.2992,
      "duration": 0.0156,
      "velocity": 1,
      "chip": "ym2612"
    },
    {
      "channel": 0,
      "note": 106,
      "start": 11.3343,
      "duration": 0.0305,
      "velocity": 1,
      "chip": "ym2612"
    },
    {
      "channel": 0,
      "note": 108,
      "start": 11.4008,
      "duration": 0.0307,
      "velocity": 1,
      "chip": "ym2612"
    },
    {
      "channel": 0,
      "note": 111,
      "start": 11.4509,
      "duration": 0.0471,
      "velocity": 1,
      "chip": "ym2612"
    },
    {
      "channel": 0,
      "note": 108,
      "start": 11.5176,
      "duration": 0.0159,
      "velocity": 1,
      "chip": "ym2612"
    },
    {
      "channel": 0,
      "note": 106,
      "start": 11.544,
      "duration": 0.019,
      "velocity": 1,
      "chip": "ym2612"
    },
    {
      "channel": 0,
      "note": 103,
      "start": 11.5733,
      "duration": 0.0121,
      "velocity": 1,
      "chip": "ym2612"
    },
    {
      "channel": 0,
      "note": 99,
      "start": 11.602,
      "duration": 0.0132,
      "velocity": 1,
      "chip": "ym2612"
    },
    {
      "channel": 0,
      "note": 94,
      "start": 11.6247,
      "duration": 0.0241,
      "velocity": 1,
      "chip": "ym2612"
    },
    {
      "channel": 0,
      "note": 89,
      "start": 11.6683,
      "duration": 0.0305,
      "velocity": 1,
      "chip": "ym2612"
    },
    {
      "channel": 0,
      "note": 87,
      "start": 11.7183,
      "duration": 0.0473,
      "velocity": 1,
      "chip": "ym2612"
    },
    {
      "channel": 0,
      "note": 84,
      "start": 11.7849,
      "duration": 0.0306,
      "velocity": 1,
      "chip": "ym2612"
    },
    {
      "channel": 0,
      "note": 82,
      "start": 11.8516,
      "duration": 0.0163,
      "velocity": 1,
      "chip": "ym2612"
    },
    {
      "channel": 0,
      "note": 89,
      "start": 11.8772,
      "duration": 0.0199,
      "velocity": 1,
      "chip": "ym2612"
    },
    {
      "channel": 0,
      "note": 94,
      "start": 11.9078,
      "duration": 0.0116,
      "velocity": 1,
      "chip": "ym2612"
    },
    {
      "channel": 0,
      "note": 111,
      "start": 11.9299,
      "duration": 0.0195,
      "velocity": 1,
      "chip": "ym2612"
    },
    {
      "channel": 0,
      "note": 108,
      "start": 11.9585,
      "duration": 0.0136,
      "velocity": 1,
      "chip": "ym2612"
    },
    {
      "channel": 0,
      "note": 106,
      "start": 12.0016,
      "duration": 0.0305,
      "velocity": 1,
      "chip": "ym2612"
    },
    {
      "channel": 0,
      "note": 103,
      "start": 12.0515,
      "duration": 0.0473,
      "velocity": 1,
      "chip": "ym2612"
    },
    {
      "channel": 0,
      "note": 99,
      "start": 12.1182,
      "duration": 0.0307,
      "velocity": 1,
      "chip": "ym2612"
    },
    {
      "channel": 0,
      "note": 111,
      "start": 12.1683,
      "duration": 0.0227,
      "velocity": 1,
      "chip": "ym2612"
    },
    {
      "channel": 0,
      "note": 108,
      "start": 12.2022,
      "duration": 0.0112,
      "velocity": 1,
      "chip": "ym2612"
    },
    {
      "channel": 0,
      "note": 106,
      "start": 12.2239,
      "duration": 0.0202,
      "velocity": 1,
      "chip": "ym2612"
    },
    {
      "channel": 0,
      "note": 103,
      "start": 12.2537,
      "duration": 0.0134,
      "velocity": 1,
      "chip": "ym2612"
    },
    {
      "channel": 0,
      "note": 99,
      "start": 12.2845,
      "duration": 0.0156,
      "velocity": 1,
      "chip": "ym2612"
    },
    {
      "channel": 0,
      "note": 94,
      "start": 12.3196,
      "duration": 0.0471,
      "velocity": 1,
      "chip": "ym2612"
    },
    {
      "channel": 0,
      "note": 89,
      "start": 12.3863,
      "duration": 0.0305,
      "velocity": 1,
      "chip": "ym2612"
    },
    {
      "channel": 0,
      "note": 82,
      "start": 12.4361,
      "duration": 0.0473,
      "velocity": 1,
      "chip": "ym2612"
    },
    {
      "channel": 0,
      "note": 111,
      "start": 12.5029,
      "duration": 0.0181,
      "velocity": 1,
      "chip": "ym2612"
    },
    {
      "channel": 1,
      "note": 84,
      "start": 12.5056,
      "duration": 0.1796,
      "velocity": 122,
      "chip": "ym2612"
    },
    {
      "channel": 0,
      "note": 106,
      "start": 12.5384,
      "duration": 0.0118,
      "velocity": 1,
      "chip": "ym2612"
    },
    {
      "channel": 0,
      "note": 103,
      "start": 12.5612,
      "duration": 0.0189,
      "velocity": 1,
      "chip": "ym2612"
    },
    {
      "channel": 0,
      "note": 94,
      "start": 12.5898,
      "duration": 0.0131,
      "velocity": 1,
      "chip": "ym2612"
    },
    {
      "channel": 0,
      "note": 89,
      "start": 12.6122,
      "duration": 0.0227,
      "velocity": 1,
      "chip": "ym2612"
    },
    {
      "channel": 0,
      "note": 87,
      "start": 12.6544,
      "duration": 0.0307,
      "velocity": 1,
      "chip": "ym2612"
    },
    {
      "channel": 0,
      "note": 84,
      "start": 12.721,
      "duration": 0.0307,
      "velocity": 1,
      "chip": "ym2612"
    },
    {
      "channel": 3,
      "note": 63,
      "start": 12.7239,
      "duration": 0.0946,
      "velocity": 88,
      "chip": "ym2612"
    },
    {
      "channel": 1,
      "note": 82,
      "start": 12.755,
      "duration": 0.4802,
      "velocity": 122,
      "chip": "ym2612"
    },
    {
      "channel": 0,
      "note": 82,
      "start": 12.771,
      "duration": 0.0473,
      "velocity": 1,
      "chip": "ym2612"
    },
    {
      "channel": 0,
      "note": 111,
      "start": 12.8378,
      "duration": 0.018,
      "velocity": 1,
      "chip": "ym2612"
    },
    {
      "channel": 3,
      "note": 58,
      "start": 12.8405,
      "duration": 0.0437,
      "velocity": 88,
      "chip": "ym2612"
    },
    {
      "channel": 0,
      "note": 108,
      "start": 12.8652,
      "duration": 0.019,
      "velocity": 1,
      "chip": "ym2612"
    },
    {
      "channel": 0,
      "note": 106,
      "start": 12.8955,
      "duration": 0.0122,
      "velocity": 1,
      "chip": "ym2612"
    },
    {
      "channel": 0,
      "note": 103,
      "start": 12.9189,
      "duration": 0.0195,
      "velocity": 1,
      "chip": "ym2612"
    },
    {
      "channel": 3,
      "note": 63,
      "start": 12.9215,
      "duration": 0.1986,
      "velocity": 88,
      "chip": "ym2612"
    },
    {
      "channel": 0,
      "note": 99,
      "start": 12.9488,
      "duration": 0.0124,
      "velocity": 1,
      "chip": "ym2612"
    },
    {
      "channel": 0,
      "note": 94,
      "start": 12.9895,
      "duration": 0.0305,
      "velocity": 1,
      "chip": "ym2612"
    },
    {
      "channel": 0,
      "note": 89,
      "start": 13.0394,
      "duration": 0.0473,
      "velocity": 1,
      "chip": "ym2612"
    },
    {
      "channel": 0,
      "note": 82,
      "start": 13.1062,
      "duration": 0.0305,
      "velocity": 1,
      "chip": "ym2612"
    },
    {
      "channel": 0,
      "note": 84,
      "start": 13.1561,
      "duration": 0.027,
      "velocity": 1,
      "chip": "ym2612"
    },
    {
      "channel": 4,
      "note": 65,
      "start": 13.159,
      "duration": 1.8975,
      "velocity": 122,
      "chip": "ym2612"
    },
    {
      "channel": 3,
      "note": 53,
      "start": 13.1622,
      "duration": 2.1956,
      "velocity": 88,
      "chip": "ym2612"
    },
    {
      "channel": 0,
      "note": 89,
      "start": 13.192,
      "duration": 0.0139,
      "velocity": 1,
      "chip": "ym2612"
    },
    {
      "channel": 0,
      "note": 94,
      "start": 13.2232,
      "duration": 0.012,
      "velocity": 1,
      "chip": "ym2612"
    },
    {
      "channel": 0,
      "note": 111,
      "start": 13.246,
      "duration": 0.0189,
      "velocity": 1,
      "chip": "ym2612"
    },
    {
      "channel": 0,
      "note": 108,
      "start": 13.2749,
      "duration": 0.0133,
      "velocity": 1,
      "chip": "ym2612"
    },
    {
      "channel": 1,
      "note": 77,
      "start": 13.2779,
      "duration": 1.7618,
      "velocity": 122,
      "chip": "ym2612"
    },
    {
      "channel": 0,
      "note": 106,
      "start": 13.3064,
      "duration": 0.0473,
      "velocity": 1,
      "chip": "ym2612"
    },
    {
      "channel": 0,
      "note": 103,
      "start": 13.3731,
      "duration": 0.0305,
      "velocity": 1,
      "chip": "ym2612"
    },
    {
      "channel": 0,
      "note": 99,
      "start": 13.4399,
      "duration": 0.0306,
      "velocity": 1,
      "chip": "ym2612"
    },
    {
      "channel": 0,
      "note": 111,
      "start": 13.4899,
      "duration": 0.0227,
      "velocity": 1,
      "chip": "ym2612"
    },
    {
      "channel": 0,
      "note": 108,
      "start": 13.524,
      "duration": 0.0118,
      "velocity": 1,
      "chip": "ym2612"
    },
    {
      "channel": 0,
      "note": 106,
      "start": 13.5462,
      "duration": 0.0195,
      "velocity": 1,
      "chip": "ym2612"
    },
    {
      "channel": 0,
      "note": 103,
      "start": 13.5748,
      "duration": 0.0128,
      "velocity": 1,
      "chip": "ym2612"
    },
    {
      "channel": 0,
      "note": 99,
      "start": 13.597,
      "duration": 0.0235,
      "velocity": 1,
      "chip": "ym2612"
    },
    {
      "channel": 0,
      "note": 94,
      "start": 13.64,
      "duration": 0.0305,
      "velocity": 1,
      "chip": "ym2612"
    },
    {
      "channel": 0,
      "note": 89,
      "start": 13.7066,
      "duration": 0.0307,
      "velocity": 1,
      "chip": "ym2612"
    },
    {
      "channel": 0,
      "note": 82,
      "start": 13.7567,
      "duration": 0.0471,
      "velocity": 1,
      "chip": "ym2612"
    },
    {
      "channel": 0,
      "note": 111,
      "start": 13.8234,
      "duration": 0.0159,
      "velocity": 1,
      "chip": "ym2612"
    },
    {
      "channel": 0,
      "note": 106,
      "start": 13.8483,
      "duration": 0.0203,
      "velocity": 1,
      "chip": "ym2612"
    },
    {
      "channel": 0,
      "note": 103,
      "start": 13.8791,
      "duration": 0.0123,
      "velocity": 1,
      "chip": "ym2612"
    },
    {
      "channel": 0,
      "note": 99,
      "start": 13.908,
      "duration": 0.0134,
      "velocity": 1,
      "chip": "ym2612"
    },
    {
      "channel": 0,
      "note": 94,
      "start": 13.9308,
      "duration": 0.0237,
      "velocity": 1,
      "chip": "ym2612"
    },
    {
      "channel": 0,
      "note": 89,
      "start": 13.9739,
      "duration": 0.0306,
      "velocity": 1,
      "chip": "ym2612"
    },
    {
      "channel": 0,
      "note": 87,
      "start": 14.024,
      "duration": 0.0473,
      "velocity": 1,
      "chip": "ym2612"
    },
    {
      "channel": 0,
      "note": 84,
      "start": 14.0907,
      "duration": 0.0306,
      "velocity": 1,
      "chip": "ym2612"
    },
    {
      "channel": 0,
      "note": 82,
      "start": 14.1573,
      "duration": 0.0155,
      "velocity": 1,
      "chip": "ym2612"
    },
    {
      "channel": 0,
      "note": 111,
      "start": 14.1836,
      "duration": 0.019,
      "velocity": 1,
      "chip": "ym2612"
    },
    {
      "channel": 0,
      "note": 108,
      "start": 14.2131,
      "duration": 0.0124,
      "velocity": 1,
      "chip": "ym2612"
    },
    {
      "channel": 0,
      "note": 106,
      "start": 14.2355,
      "duration": 0.0204,
      "velocity": 1,
      "chip": "ym2612"
    },
    {
      "channel": 0,
      "note": 103,
      "start": 14.2655,
      "duration": 0.0127,
      "velocity": 1,
      "chip": "ym2612"
    },
    {
      "channel": 0,
      "note": 99,
      "start": 14.2919,
      "duration": 0.0472,
      "velocity": 1,
      "chip": "ym2612"
    },
    {
      "channel": 0,
      "note": 94,
      "start": 14.3586,
      "duration": 0.0305,
      "velocity": 1,
      "chip": "ym2612"
    },
    {
      "channel": 0,
      "note": 89,
      "start": 14.4251,
      "duration": 0.0307,
      "velocity": 1,
      "chip": "ym2612"
    },
    {
      "channel": 0,
      "note": 82,
      "start": 14.4752,
      "duration": 0.023,
      "velocity": 1,
      "chip": "ym2612"
    },
    {
      "channel": 0,
      "note": 89,
      "start": 14.5095,
      "duration": 0.0115,
      "velocity": 1,
      "chip": "ym2612"
    },
    {
      "channel": 0,
      "note": 94,
      "start": 14.5316,
      "duration": 0.0198,
      "velocity": 1,
      "chip": "ym2612"
    },
    {
      "channel": 0,
      "note": 111,
      "start": 14.5595,
      "duration": 0.0135,
      "velocity": 1,
      "chip": "ym2612"
    },
    {
      "channel": 0,
      "note": 108,
      "start": 14.5896,
      "duration": 0.0154,
      "velocity": 1,
      "chip": "ym2612"
    },
    {
      "channel": 0,
      "note": 106,
      "start": 14.6245,
      "duration": 0.0472,
      "velocity": 1,
      "chip": "ym2612"
    },
    {
      "channel": 0,
      "note": 103,
      "start": 14.6912,
      "duration": 0.0307,
      "velocity": 1,
      "chip": "ym2612"
    },
    {
      "channel": 0,
      "note": 99,
      "start": 14.7413,
      "duration": 0.0473,
      "velocity": 1,
      "chip": "ym2612"
    },
    {
      "channel": 0,
      "note": 111,
      "start": 14.8079,
      "duration": 0.0159,
      "velocity": 1,
      "chip": "ym2612"
    },
    {
      "channel": 0,
      "note": 108,
      "start": 14.8417,
      "duration": 0.0117,
      "velocity": 1,
      "chip": "ym2612"
    },
    {
      "channel": 0,
      "note": 106,
      "start": 14.8639,
      "duration": 0.0197,
      "velocity": 1,
      "chip": "ym2612"
    },
    {
      "channel": 0,
      "note": 103,
      "start": 14.8932,
      "duration": 0.0134,
      "velocity": 1,
      "chip": "ym2612"
    },
    {
      "channel": 0,
      "note": 99,
      "start": 14.916,
      "duration": 0.0236,
      "velocity": 1,
      "chip": "ym2612"
    },
    {
      "channel": 0,
      "note": 94,
      "start": 14.9592,
      "duration": 0.0305,
      "velocity": 1,
      "chip": "ym2612"
    },
    {
      "channel": 0,
      "note": 89,
      "start": 15.0257,
      "duration": 0.0306,
      "velocity": 1,
      "chip": "ym2612"
    },
    {
      "channel": 0,
      "note": 82,
      "start": 15.0758,
      "duration": 0.0306,
      "velocity": 1,
      "chip": "ym2612"
    },
    {
      "channel": 0,
      "note": 111,
      "start": 15.1424,
      "duration": 0.018,
      "velocity": 1,
      "chip": "ym2612"
    },
    {
      "channel": 1,
      "note": 82,
      "start": 15.1452,
      "duration": 0.1792,
      "velocity": 122,
      "chip": "ym2612"
    },
    {
      "channel": 0,
      "note": 106,
      "start": 15.1692,
      "duration": 0.0198,
      "velocity": 1,
      "chip": "ym2612"
    },
    {
      "channel": 0,
      "note": 103,
      "start": 15.2001,
      "duration": 0.0121,
      "velocity": 1,
      "chip": "ym2612"
    },
    {
      "channel": 0,
      "note": 94,
      "start": 15.223,
      "duration": 0.0191,
      "velocity": 1,
      "chip": "ym2612"
    },
    {
      "channel": 0,
      "note": 89,
      "start": 15.2515,
      "duration": 0.0128,
      "velocity": 1,
      "chip": "ym2612"
    },
    {
      "channel": 0,
      "note": 87,
      "start": 15.2937,
      "duration": 0.0305,
      "velocity": 1,
      "chip": "ym2612"
    },
    {
      "channel": 0,
      "note": 84,
      "start": 15.3437,
      "duration": 0.0473,
      "velocity": 1,
      "chip": "ym2612"
    },
    {
      "channel": 1,
      "note": 84,
      "start": 15.3942,
      "duration": 0.3478,
      "velocity": 122,
      "chip": "ym2612"
    },
    {
      "channel": 0,
      "note": 82,
      "start": 15.4103,
      "duration": 0.0306,
      "velocity": 1,
      "chip": "ym2612"
    },
    {
      "channel": 0,
      "note": 111,
      "start": 15.4603,
      "duration": 0.0247,
      "velocity": 1,
      "chip": "ym2612"
    },
    {
      "channel": 3,
      "note": 63,
      "start": 15.4636,
      "duration": 0.0444,
      "velocity": 88,
      "chip": "ym2612"
    },
    {
      "channel": 0,
      "note": 108,
      "start": 15.4961,
      "duration": 0.0117,
      "velocity": 1,
      "chip": "ym2612"
    },
    {
      "channel": 0,
      "note": 106,
      "start": 15.5251,
      "duration": 0.0139,
      "velocity": 1,
      "chip": "ym2612"
    },
    {
      "channel": 3,
      "note": 58,
      "start": 15.5276,
      "duration": 0.0415,
      "velocity": 88,
      "chip": "ym2612"
    },
    {
      "channel": 0,
      "note": 103,
      "start": 15.5493,
      "duration": 0.0196,
      "velocity": 1,
      "chip": "ym2612"
    },
    {
      "channel": 0,
      "note": 99,
      "start": 15.5781,
      "duration": 0.0139,
      "velocity": 1,
      "chip": "ym2612"
    },
    {
      "channel": 0,
      "note": 94,
      "start": 15.6115,
      "duration": 0.0471,
      "velocity": 1,
      "chip": "ym2612"
    },
    {
      "channel": 3,
      "note": 63,
      "start": 15.6143,
      "duration": 0.1445,
      "velocity": 88,
      "chip": "ym2612"
    },
    {
      "channel": 0,
      "note": 89,
      "start": 15.6782,
      "duration": 0.0305,
      "velocity": 1,
      "chip": "ym2612"
    },
    {
      "channel": 0,
      "note": 82,
      "start": 15.7448,
      "duration": 0.0306,
      "velocity": 1,
      "chip": "ym2612"
    },
    {
      "channel": 0,
      "note": 82,
      "start": 15.7947,
      "duration": 0.0195,
      "velocity": 1,
      "chip": "ym2612"
    },
    {
      "channel": 1,
      "note": 67,
      "start": 15.7977,
      "duration": 1.861,
      "velocity": 122,
      "chip": "ym2612"
    },
    {
      "channel": 3,
      "note": 55,
      "start": 15.8007,
      "duration": 2.2599,
      "velocity": 88,
      "chip": "ym2612"
    },
    {
      "channel": 0,
      "note": 89,
      "start": 15.831,
      "duration": 0.0137,
      "velocity": 1,
      "chip": "ym2612"
    },
    {
      "channel": 0,
      "note": 94,
      "start": 15.8542,
      "duration": 0.0201,
      "velocity": 1,
      "chip": "ym2612"
    },
    {
      "channel": 0,
      "note": 101,
      "start": 15.8851,
      "duration": 0.0118,
      "velocity": 1,
      "chip": "ym2612"
    },
    {
      "channel": 0,
      "note": 106,
      "start": 15.9075,
      "duration": 0.0198,
      "velocity": 1,
      "chip": "ym2612"
    },
    {
      "channel": 4,
      "note": 79,
      "start": 15.9103,
      "duration": 1.7316,
      "velocity": 122,
      "chip": "ym2612"
    },
    {
      "channel": 0,
      "note": 103,
      "start": 15.9455,
      "duration": 0.0306,
      "velocity": 1,
      "chip": "ym2612"
    },
    {
      "channel": 0,
      "note": 101,
      "start": 16.0122,
      "duration": 0.0307,
      "velocity": 1,
      "chip": "ym2612"
    },
    {
      "channel": 0,
      "note": 98,
      "start": 16.0622,
      "duration": 0.0471,
      "velocity": 1,
      "chip": "ym2612"
    },
    {
      "channel": 0,
      "note": 94,
      "start": 16.1289,
      "duration": 0.0155,
      "velocity": 1,
      "chip": "ym2612"
    },
    {
      "channel": 0,
      "note": 89,
      "start": 16.1549,
      "duration": 0.019,
      "velocity": 1,
      "chip": "ym2612"
    },
    {
      "channel": 0,
      "note": 84,
      "start": 16.1843,
      "duration": 0.0121,
      "velocity": 1,
      "chip": "ym2612"
    },
    {
      "channel": 0,
      "note": 82,
      "start": 16.213,
      "duration": 0.0132,
      "velocity": 1,
      "chip": "ym2612"
    },
    {
      "channel": 0,
      "note": 79,
      "start": 16.2352,
      "duration": 0.0236,
      "velocity": 1,
      "chip": "ym2612"
    },
    {
      "channel": 0,
      "note": 77,
      "start": 16.2782,
      "duration": 0.0305,
      "velocity": 1,
      "chip": "ym2612"
    },
    {
      "channel": 0,
      "note": 79,
      "start": 16.3282,
      "duration": 0.0473,
      "velocity": 1,
      "chip": "ym2612"
    },
    {
      "channel": 0,
      "note": 82,
      "start": 16.3948,
      "duration": 0.0307,
      "velocity": 1,
      "chip": "ym2612"
    },
    {
      "channel": 0,
      "note": 84,
      "start": 16.4615,
      "duration": 0.0154,
      "velocity": 1,
      "chip": "ym2612"
    },
    {
      "channel": 0,
      "note": 86,
      "start": 16.4863,
      "duration": 0.02,
      "velocity": 1,
      "chip": "ym2612"
    },
    {
      "channel": 0,
      "note": 89,
      "start": 16.5167,
      "duration": 0.0122,
      "velocity": 1,
      "chip": "ym2612"
    },
    {
      "channel": 0,
      "note": 94,
      "start": 16.5388,
      "duration": 0.0198,
      "velocity": 1,
      "chip": "ym2612"
    },
    {
      "channel": 0,
      "note": 98,
      "start": 16.5681,
      "duration": 0.0126,
      "velocity": 1,
      "chip": "ym2612"
    },
    {
      "channel": 0,
      "note": 101,
      "start": 16.5948,
      "duration": 0.0473,
      "velocity": 1,
      "chip": "ym2612"
    },
    {
      "channel": 0,
      "note": 103,
      "start": 16.6616,
      "duration": 0.0306,
      "velocity": 1,
      "chip": "ym2612"
    },
    {
      "channel": 0,
      "note": 106,
      "start": 16.7282,
      "duration": 0.0307,
      "velocity": 1,
      "chip": "ym2612"
    },
    {
      "channel": 0,
      "note": 103,
      "start": 16.7783,
      "duration": 0.023,
      "velocity": 1,
      "chip": "ym2612"
    },
    {
      "channel": 0,
      "note": 101,
      "start": 16.8121,
      "duration": 0.0112,
      "velocity": 1,
      "chip": "ym2612"
    },
    {
      "channel": 0,
      "note": 98,
      "start": 16.8337,
      "duration": 0.0201,
      "velocity": 1,
      "chip": "ym2612"
    },
    {
      "channel": 0,
      "note": 94,
      "start": 16.8629,
      "duration": 0.0132,
      "velocity": 1,
      "chip": "ym2612"
    },
    {
      "channel": 0,
      "note": 89,
      "start": 16.8931,
      "duration": 0.0154,
      "velocity": 1,
      "chip": "ym2612"
    },
    {
      "channel": 0,
      "note": 84,
      "start": 16.928,
      "duration": 0.0471,
      "velocity": 1,
      "chip": "ym2612"
    },
    {
      "channel": 0,
      "note": 82,
      "start": 16.9947,
      "duration": 0.0305,
      "velocity": 1,
      "chip": "ym2612"
    },
    {
      "channel": 0,
      "note": 79,
      "start": 17.0446,
      "duration": 0.0473,
      "velocity": 1,
      "chip": "ym2612"
    },
    {
      "channel": 0,
      "note": 77,
      "start": 17.1113,
      "duration": 0.0161,
      "velocity": 1,
      "chip": "ym2612"
    },
    {
      "channel": 0,
      "note": 84,
      "start": 17.1451,
      "duration": 0.0115,
      "velocity": 1,
      "chip": "ym2612"
    },
    {
      "channel": 0,
      "note": 89,
      "start": 17.1672,
      "duration": 0.0198,
      "velocity": 1,
      "chip": "ym2612"
    },
    {
      "channel": 0,
      "note": 106,
      "start": 17.1952,
      "duration": 0.0137,
      "velocity": 1,
      "chip": "ym2612"
    },
    {
      "channel": 0,
      "note": 103,
      "start": 17.2176,
      "duration": 0.0229,
      "velocity": 1,
      "chip": "ym2612"
    },
    {
      "channel": 0,
      "note": 101,
      "start": 17.2598,
      "duration": 0.0305,
      "velocity": 1,
      "chip": "ym2612"
    },
    {
      "channel": 0,
      "note": 98,
      "start": 17.3098,
      "duration": 0.0473,
      "velocity": 1,
      "chip": "ym2612"
    },
    {
      "channel": 0,
      "note": 94,
      "start": 17.3764,
      "duration": 0.0306,
      "velocity": 1,
      "chip": "ym2612"
    },
    {
      "channel": 0,
      "note": 106,
      "start": 17.4431,
      "duration": 0.0155,
      "velocity": 1,
      "chip": "ym2612"
    },
    {
      "channel": 0,
      "note": 103,
      "start": 17.4694,
      "duration": 0.0189,
      "velocity": 1,
      "chip": "ym2612"
    },
    {
      "channel": 0,
      "note": 101,
      "start": 17.4988,
      "duration": 0.0124,
      "velocity": 1,
      "chip": "ym2612"
    },
    {
      "channel": 0,
      "note": 98,
      "start": 17.5212,
      "duration": 0.0205,
      "velocity": 1,
      "chip": "ym2612"
    },
    {
      "channel": 0,
      "note": 94,
      "start": 17.5512,
      "duration": 0.0126,
      "velocity": 1,
      "chip": "ym2612"
    },
    {
      "channel": 0,
      "note": 89,
      "start": 17.5947,
      "duration": 0.0305,
      "velocity": 1,
      "chip": "ym2612"
    },
    {
      "channel": 0,
      "note": 84,
      "start": 17.6447,
      "duration": 0.0472,
      "velocity": 1,
      "chip": "ym2612"
    },
    {
      "channel": 0,
      "note": 77,
      "start": 17.7113,
      "duration": 0.0306,
      "velocity": 1,
      "chip": "ym2612"
    },
    {
      "channel": 0,
      "note": 106,
      "start": 17.7613,
      "duration": 0.0241,
      "velocity": 1,
      "chip": "ym2612"
    },
    {
      "channel": 1,
      "note": 82,
      "start": 17.7644,
      "duration": 0.1795,
      "velocity": 122,
      "chip": "ym2612"
    },
    {
      "channel": 0,
      "note": 101,
      "start": 17.7967,
      "duration": 0.012,
      "velocity": 1,
      "chip": "ym2612"
    },
    {
      "channel": 0,
      "note": 98,
      "start": 17.8259,
      "duration": 0.0129,
      "velocity": 1,
      "chip": "ym2612"
    },
    {
      "channel": 0,
      "note": 89,
      "start": 17.8485,
      "duration": 0.0198,
      "velocity": 1,
      "chip": "ym2612"
    },
    {
      "channel": 0,
      "note": 84,
      "start": 17.8784,
      "duration": 0.0154,
      "velocity": 1,
      "chip": "ym2612"
    },
    {
      "channel": 0,
      "note": 82,
      "start": 17.9132,
      "duration": 0.0473,
      "velocity": 1,
      "chip": "ym2612"
    },
    {
      "channel": 0,
      "note": 79,
      "start": 17.9799,
      "duration": 0.0306,
      "velocity": 1,
      "chip": "ym2612"
    },
    {
      "channel": 1,
      "note": 84,
      "start": 18.0137,
      "duration": 0.3474,
      "velocity": 122,
      "chip": "ym2612"
    },
    {
      "channel": 0,
      "note": 77,
      "start": 18.03,
      "duration": 0.0472,
      "velocity": 1,
      "chip": "ym2612"
    },
    {
      "channel": 0,
      "note": 106,
      "start": 18.0966,
      "duration": 0.0181,
      "velocity": 1,
      "chip": "ym2612"
    },
    {
      "channel": 3,
      "note": 67,
      "start": 18.0994,
      "duration": 0.0434,
      "velocity": 88,
      "chip": "ym2612"
    },
    {
      "channel": 0,
      "note": 103,
      "start": 18.1314,
      "duration": 0.0113,
      "velocity": 1,
      "chip": "ym2612"
    },
    {
      "channel": 0,
      "note": 101,
      "start": 18.1535,
      "duration": 0.0197,
      "velocity": 1,
      "chip": "ym2612"
    },
    {
      "channel": 3,
      "note": 63,
      "start": 18.1563,
      "duration": 0.0627,
      "velocity": 88,
      "chip": "ym2612"
    },
    {
      "channel": 0,
      "note": 98,
      "start": 18.1835,
      "duration": 0.0128,
      "velocity": 1,
      "chip": "ym2612"
    },
    {
      "channel": 0,
      "note": 94,
      "start": 18.2063,
      "duration": 0.0213,
      "velocity": 1,
      "chip": "ym2612"
    },
    {
      "channel": 0,
      "note": 89,
      "start": 18.2472,
      "duration": 0.0305,
      "velocity": 1,
      "chip": "ym2612"
    },
    {
      "channel": 3,
      "note": 67,
      "start": 18.2498,
      "duration": 0.128,
      "velocity": 88,
      "chip": "ym2612"
    },
    {
      "channel": 0,
      "note": 84,
      "start": 18.3138,
      "duration": 0.0305,
      "velocity": 1,
      "chip": "ym2612"
    },
    {
      "channel": 0,
      "note": 77,
      "start": 18.364,
      "duration": 0.0471,
      "velocity": 1,
      "chip": "ym2612"
    },
    {
      "channel": 0,
      "note": 79,
      "start": 18.4306,
      "duration": 0.0208,
      "velocity": 1,
      "chip": "ym2612"
    },
    {
      "channel": 1,
      "note": 82,
      "start": 18.4334,
      "duration": 1.2784,
      "velocity": 122,
      "chip": "ym2612"
    },
    {
      "channel": 4,
      "note": 70,
      "start": 18.4361,
      "duration": 1.2759,
      "velocity": 122,
      "chip": "ym2612"
    },
    {
      "channel": 3,
      "note": 58,
      "start": 18.4392,
      "duration": 2.5727,
      "velocity": 88,
      "chip": "ym2612"
    },
    {
      "channel": 0,
      "note": 84,
      "start": 18.4622,
      "duration": 0.0188,
      "velocity": 1,
      "chip": "ym2612"
    },
    {
      "channel": 0,
      "note": 89,
      "start": 18.4908,
      "duration": 0.013,
      "velocity": 1,
      "chip": "ym2612"
    },
    {
      "channel": 0,
      "note": 106,
      "start": 18.5209,
      "duration": 0.0129,
      "velocity": 1,
      "chip": "ym2612"
    },
    {
      "channel": 0,
      "note": 103,
      "start": 18.5431,
      "duration": 0.02,
      "velocity": 1,
      "chip": "ym2612"
    },
    {
      "channel": 0,
      "note": 101,
      "start": 18.5805,
      "duration": 0.0307,
      "velocity": 1,
      "chip": "ym2612"
    },
    {
      "channel": 0,
      "note": 98,
      "start": 18.6306,
      "duration": 0.0471,
      "velocity": 1,
      "chip": "ym2612"
    },
    {
      "channel": 0,
      "note": 94,
      "start": 18.6973,
      "duration": 0.0305,
      "velocity": 1,
      "chip": "ym2612"
    },
    {
      "channel": 0,
      "note": 106,
      "start": 18.7472,
      "duration": 0.0223,
      "velocity": 1,
      "chip": "ym2612"
    },
    {
      "channel": 0,
      "note": 103,
      "start": 18.7804,
      "duration": 0.0116,
      "velocity": 1,
      "chip": "ym2612"
    },
    {
      "channel": 0,
      "note": 101,
      "start": 18.8088,
      "duration": 0.0133,
      "velocity": 1,
      "chip": "ym2612"
    },
    {
      "channel": 0,
      "note": 98,
      "start": 18.8312,
      "duration": 0.0196,
      "velocity": 1,
      "chip": "ym2612"
    },
    {
      "channel": 0,
      "note": 94,
      "start": 18.8617,
      "duration": 0.0157,
      "velocity": 1,
      "chip": "ym2612"
    },
    {
      "channel": 0,
      "note": 89,
      "start": 18.8968,
      "duration": 0.0473,
      "velocity": 1,
      "chip": "ym2612"
    },
    {
      "channel": 0,
      "note": 84,
      "start": 18.9635,
      "duration": 0.0307,
      "velocity": 1,
      "chip": "ym2612"
    },
    {
      "channel": 0,
      "note": 77,
      "start": 19.0301,
      "duration": 0.0307,
      "velocity": 1,
      "chip": "ym2612"
    },
    {
      "channel": 0,
      "note": 106,
      "start": 19.0802,
      "duration": 0.0227,
      "velocity": 1,
      "chip": "ym2612"
    },
    {
      "channel": 0,
      "note": 101,
      "start": 19.114,
      "duration": 0.0122,
      "velocity": 1,
      "chip": "ym2612"
    },
    {
      "channel": 0,
      "note": 98,
      "start": 19.1365,
      "duration": 0.0192,
      "velocity": 1,
      "chip": "ym2612"
    },
    {
      "channel": 0,
      "note": 94,
      "start": 19.1653,
      "duration": 0.0132,
      "velocity": 1,
      "chip": "ym2612"
    },
    {
      "channel": 0,
      "note": 89,
      "start": 19.1961,
      "duration": 0.0157,
      "velocity": 1,
      "chip": "ym2612"
    },
    {
      "channel": 0,
      "note": 84,
      "start": 19.2312,
      "duration": 0.0472,
      "velocity": 1,
      "chip": "ym2612"
    },
    {
      "channel": 0,
      "note": 82,
      "start": 19.2979,
      "duration": 0.0307,
      "velocity": 1,
      "chip": "ym2612"
    },
    {
      "channel": 0,
      "note": 79,
      "start": 19.348,
      "duration": 0.0473,
      "velocity": 1,
      "chip": "ym2612"
    },
    {
      "channel": 0,
      "note": 77,
      "start": 19.4146,
      "duration": 0.0157,
      "velocity": 1,
      "chip": "ym2612"
    },
    {
      "channel": 0,
      "note": 106,
      "start": 19.4486,
      "duration": 0.0117,
      "velocity": 1,
      "chip": "ym2612"
    },
    {
      "channel": 0,
      "note": 103,
      "start": 19.4706,
      "duration": 0.012,
      "velocity": 1,
      "chip": "ym2612"
    },
    {
      "channel": 0,
      "note": 101,
      "start": 19.4993,
      "duration": 0.0132,
      "velocity": 1,
      "chip": "ym2612"
    },
    {
      "channel": 0,
      "note": 98,
      "start": 19.5214,
      "duration": 0.0236,
      "velocity": 1,
      "chip": "ym2612"
    },
    {
      "channel": 0,
      "note": 94,
      "start": 19.5645,
      "duration": 0.0305,
      "velocity": 1,
      "chip": "ym2612"
    },
    {
      "channel": 0,
      "note": 89,
      "start": 19.6144,
      "duration": 0.0473,
      "velocity": 1,
      "chip": "ym2612"
    },
    {
      "channel": 0,
      "note": 84,
      "start": 19.6811,
      "duration": 0.0306,
      "velocity": 1,
      "chip": "ym2612"
    },
    {
      "channel": 0,
      "note": 77,
      "start": 19.7478,
      "duration": 0.0195,
      "velocity": 1,
      "chip": "ym2612"
    },
    {
      "channel": 1,
      "note": 82,
      "start": 19.751,
      "duration": 1.0625,
      "velocity": 122,
      "chip": "ym2612"
    },
    {
      "channel": 4,
      "note": 87,
      "start": 19.7539,
      "duration": 1.2581,
      "velocity": 122,
      "chip": "ym2612"
    },
    {
      "channel": 0,
      "note": 84,
      "start": 19.778,
      "duration": 0.0196,
      "velocity": 1,
      "chip": "ym2612"
    },
    {
      "channel": 0,
      "note": 89,
      "start": 19.8069,
      "duration": 0.0141,
      "velocity": 1,
      "chip": "ym2612"
    },
    {
      "channel": 0,
      "note": 106,
      "start": 19.8299,
      "duration": 0.0199,
      "velocity": 1,
      "chip": "ym2612"
    },
    {
      "channel": 0,
      "note": 103,
      "start": 19.8602,
      "duration": 0.0115,
      "velocity": 1,
      "chip": "ym2612"
    },
    {
      "channel": 0,
      "note": 101,
      "start": 19.8966,
      "duration": 0.0306,
      "velocity": 1,
      "chip": "ym2612"
    },
    {
      "channel": 0,
      "note": 98,
      "start": 19.9465,
      "duration": 0.0473,
      "velocity": 1,
      "chip": "ym2612"
    },
    {
      "channel": 0,
      "note": 94,
      "start": 20.0132,
      "duration": 0.0306,
      "velocity": 1,
      "chip": "ym2612"
    },
    {
      "channel": 0,
      "note": 106,
      "start": 20.0632,
      "duration": 0.0228,
      "velocity": 1,
      "chip": "ym2612"
    },
    {
      "channel": 0,
      "note": 103,
      "start": 20.0969,
      "duration": 0.0116,
      "velocity": 1,
      "chip": "ym2612"
    },
    {
      "channel": 0,
      "note": 101,
      "start": 20.1254,
      "duration": 0.0134,
      "velocity": 1,
      "chip": "ym2612"
    },
    {
      "channel": 0,
      "note": 98,
      "start": 20.1484,
      "duration": 0.0131,
      "velocity": 1,
      "chip": "ym2612"
    },
    {
      "channel": 0,
      "note": 94,
      "start": 20.1786,
      "duration": 0.0156,
      "velocity": 1,
      "chip": "ym2612"
    },
    {
      "channel": 0,
      "note": 89,
      "start": 20.2137,
      "duration": 0.0471,
      "velocity": 1,
      "chip": "ym2612"
    },
    {
      "channel": 0,
      "note": 84,
      "start": 20.2803,
      "duration": 0.0305,
      "velocity": 1,
      "chip": "ym2612"
    },
    {
      "channel": 0,
      "note": 77,
      "start": 20.3302,
      "duration": 0.0473,
      "velocity": 1,
      "chip": "ym2612"
    },
    {
      "channel": 0,
      "note": 106,
      "start": 20.3969,
      "duration": 0.0161,
      "velocity": 1,
      "chip": "ym2612"
    },
    {
      "channel": 0,
      "note": 101,
      "start": 20.4304,
      "duration": 0.012,
      "velocity": 1,
      "chip": "ym2612"
    },
    {
      "channel": 0,
      "note": 98,
      "start": 20.4529,
      "duration": 0.0196,
      "velocity": 1,
      "chip": "ym2612"
    },
    {
      "channel": 0,
      "note": 89,
      "start": 20.4822,
      "duration": 0.0132,
      "velocity": 1,
      "chip": "ym2612"
    },
    {
      "channel": 0,
      "note": 84,
      "start": 20.5043,
      "duration": 0.0236,
      "velocity": 1,
      "chip": "ym2612"
    },
    {
      "channel": 0,
      "note": 82,
      "start": 20.5474,
      "duration": 0.0305,
      "velocity": 1,
      "chip": "ym2612"
    },
    {
      "channel": 0,
      "note": 79,
      "start": 20.6139,
      "duration": 0.0307,
      "velocity": 1,
      "chip": "ym2612"
    },
    {
      "channel": 0,
      "note": 77,
      "start": 20.664,
      "duration": 0.0471,
      "velocity": 1,
      "chip": "ym2612"
    },
    {
      "channel": 0,
      "note": 106,
      "start": 20.7307,
      "duration": 0.0159,
      "velocity": 1,
      "chip": "ym2612"
    },
    {
      "channel": 0,
      "note": 103,
      "start": 20.7579,
      "duration": 0.019,
      "velocity": 1,
      "chip": "ym2612"
    },
    {
      "channel": 0,
      "note": 101,
      "start": 20.7873,
      "duration": 0.0121,
      "velocity": 1,
      "chip": "ym2612"
    },
    {
      "channel": 0,
      "note": 98,
      "start": 20.8159,
      "duration": 0.0128,
      "velocity": 1,
      "chip": "ym2612"
    },
    {
      "channel": 0,
      "note": 94,
      "start": 20.8381,
      "duration": 0.0238,
      "velocity": 1,
      "chip": "ym2612"
    },
    {
      "channel": 0,
      "note": 89,
      "start": 20.8814,
      "duration": 0.0305,
      "velocity": 1,
      "chip": "ym2612"
    },
    {
      "channel": 0,
      "note": 84,
      "start": 20.9314,
      "duration": 0.0471,
      "velocity": 1,
      "chip": "ym2612"
    },
    {
      "channel": 0,
      "note": 77,
      "start": 20.998,
      "duration": 0.0305,
      "velocity": 1,
      "chip": "ym2612"
    },
    {
      "channel": 0,
      "note": 89,
      "start": 21.0498,
      "duration": 0.0263,
      "velocity": 1,
      "chip": "ym2612"
    },
    {
      "channel": 1,
      "note": 63,
      "start": 21.0713,
      "duration": 2.2635,
      "velocity": 122,
      "chip": "ym2612"
    },
    {
      "channel": 0,
      "note": 94,
      "start": 21.0849,
      "duration": 0.0132,
      "velocity": 1,
      "chip": "ym2612"
    },
    {
      "channel": 2,
      "note": 51,
      "start": 21.1012,
      "duration": 0.0266,
      "velocity": 88,
      "chip": "ym2612"
    },
    {
      "channel": 0,
      "note": 99,
      "start": 21.1146,
      "duration": 0.013,
      "velocity": 1,
      "chip": "ym2612"
    },
    {
      "channel": 0,
      "note": 106,
      "start": 21.1373,
      "duration": 0.0196,
      "velocity": 1,
      "chip": "ym2612"
    },
    {
      "channel": 2,
      "note": 51,
      "start": 21.1615,
      "duration": 0.0185,
      "velocity": 88,
      "chip": "ym2612"
    },
    {
      "channel": 0,
      "note": 111,
      "start": 21.1686,
      "duration": 0.0112,
      "velocity": 1,
      "chip": "ym2612"
    },
    {
      "channel": 0,
      "note": 108,
      "start": 21.1961,
      "duration": 0.0474,
      "velocity": 1,
      "chip": "ym2612"
    },
    {
      "channel": 2,
      "note": 51,
      "start": 21.2473,
      "duration": 0.0465,
      "velocity": 88,
      "chip": "ym2612"
    },
    {
      "channel": 0,
      "note": 106,
      "start": 21.2629,
      "duration": 0.0306,
      "velocity": 1,
      "chip": "ym2612"
    },
    {
      "channel": 0,
      "note": 103,
      "start": 21.3295,
      "duration": 0.0307,
      "velocity": 1,
      "chip": "ym2612"
    },
    {
      "channel": 2,
      "note": 51,
      "start": 21.364,
      "duration": 0.0388,
      "velocity": 88,
      "chip": "ym2612"
    },
    {
      "channel": 0,
      "note": 99,
      "start": 21.3795,
      "duration": 0.0231,
      "velocity": 1,
      "chip": "ym2612"
    },
    {
      "channel": 0,
      "note": 94,
      "start": 21.4141,
      "duration": 0.0114,
      "velocity": 1,
      "chip": "ym2612"
    },
    {
      "channel": 2,
      "note": 51,
      "start": 21.4301,
      "duration": 0.028,
      "velocity": 88,
      "chip": "ym2612"
    },
    {
      "channel": 0,
      "note": 89,
      "start": 21.438,
      "duration": 0.02,
      "velocity": 1,
      "chip": "ym2612"
    },
    {
      "channel": 0,
      "note": 87,
      "start": 21.4665,
      "duration": 0.0141,
      "velocity": 1,
      "chip": "ym2612"
    },
    {
      "channel": 2,
      "note": 51,
      "start": 21.4841,
      "duration": 0.0269,
      "velocity": 88,
      "chip": "ym2612"
    },
    {
      "channel": 0,
      "note": 84,
      "start": 21.4973,
      "duration": 0.0134,
      "velocity": 1,
      "chip": "ym2612"
    },
    {
      "channel": 0,
      "note": 82,
      "start": 21.5209,
      "duration": 0.02,
      "velocity": 1,
      "chip": "ym2612"
    },
    {
      "channel": 2,
      "note": 51,
      "start": 21.5453,
      "duration": 0.0305,
      "velocity": 88,
      "chip": "ym2612"
    },
    {
      "channel": 0,
      "note": 84,
      "start": 21.5527,
      "duration": 0.0227,
      "velocity": 1,
      "chip": "ym2612"
    },
    {
      "channel": 0,
      "note": 87,
      "start": 21.595,
      "duration": 0.0471,
      "velocity": 1,
      "chip": "ym2612"
    },
    {
      "channel": 2,
      "note": 51,
      "start": 21.646,
      "duration": 0.0315,
      "velocity": 88,
      "chip": "ym2612"
    },
    {
      "channel": 0,
      "note": 89,
      "start": 21.6617,
      "duration": 0.0156,
      "velocity": 1,
      "chip": "ym2612"
    },
    {
      "channel": 0,
      "note": 91,
      "start": 21.6873,
      "duration": 0.0203,
      "velocity": 1,
      "chip": "ym2612"
    },
    {
      "channel": 2,
      "note": 51,
      "start": 21.7121,
      "duration": 0.0199,
      "velocity": 88,
      "chip": "ym2612"
    },
    {
      "channel": 0,
      "note": 94,
      "start": 21.7198,
      "duration": 0.0118,
      "velocity": 1,
      "chip": "ym2612"
    },
    {
      "channel": 0,
      "note": 99,
      "start": 21.7489,
      "duration": 0.0144,
      "velocity": 1,
      "chip": "ym2612"
    },
    {
      "channel": 2,
      "note": 51,
      "start": 21.7664,
      "duration": 0.0278,
      "velocity": 88,
      "chip": "ym2612"
    },
    {
      "channel": 0,
      "note": 103,
      "start": 21.7725,
      "duration": 0.0213,
      "velocity": 1,
      "chip": "ym2612"
    },
    {
      "channel": 0,
      "note": 106,
      "start": 21.8132,
      "duration": 0.0306,
      "velocity": 1,
      "chip": "ym2612"
    },
    {
      "channel": 2,
      "note": 51,
      "start": 21.8476,
      "duration": 0.0632,
      "velocity": 88,
      "chip": "ym2612"
    },
    {
      "channel": 0,
      "note": 108,
      "start": 21.8632,
      "duration": 0.0473,
      "velocity": 1,
      "chip": "ym2612"
    },
    {
      "channel": 0,
      "note": 111,
      "start": 21.9299,
      "duration": 0.0307,
      "velocity": 1,
      "chip": "ym2612"
    },
    {
      "channel": 2,
      "note": 51,
      "start": 21.9643,
      "duration": 0.0482,
      "velocity": 88,
      "chip": "ym2612"
    },
    {
      "channel": 0,
      "note": 108,
      "start": 21.9965,
      "duration": 0.0158,
      "velocity": 1,
      "chip": "ym2612"
    },
    {
      "channel": 0,
      "note": 106,
      "start": 22.0232,
      "duration": 0.0186,
      "velocity": 1,
      "chip": "ym2612"
    },
    {
      "channel": 2,
      "note": 51,
      "start": 22.0461,
      "duration": 0.0199,
      "velocity": 88,
      "chip": "ym2612"
    },
    {
      "channel": 0,
      "note": 103,
      "start": 22.0539,
      "duration": 0.0118,
      "velocity": 1,
      "chip": "ym2612"
    },
    {
      "channel": 0,
      "note": 99,
      "start": 22.0771,
      "duration": 0.0207,
      "velocity": 1,
      "chip": "ym2612"
    },
    {
      "channel": 2,
      "note": 51,
      "start": 22.1009,
      "duration": 0.0185,
      "velocity": 88,
      "chip": "ym2612"
    },
    {
      "channel": 0,
      "note": 94,
      "start": 22.1069,
      "duration": 0.0123,
      "velocity": 1,
      "chip": "ym2612"
    },
    {
      "channel": 0,
      "note": 89,
      "start": 22.1372,
      "duration": 0.0127,
      "velocity": 1,
      "chip": "ym2612"
    },
    {
      "channel": 2,
      "note": 51,
      "start": 22.1533,
      "duration": 0.0386,
      "velocity": 88,
      "chip": "ym2612"
    },
    {
      "channel": 0,
      "note": 87,
      "start": 22.1605,
      "duration": 0.0311,
      "velocity": 1,
      "chip": "ym2612"
    },
    {
      "channel": 0,
      "note": 84,
      "start": 22.2112,
      "duration": 0.0306,
      "velocity": 1,
      "chip": "ym2612"
    },
    {
      "channel": 2,
      "note": 51,
      "start": 22.2454,
      "duration": 0.0398,
      "velocity": 88,
      "chip": "ym2612"
    },
    {
      "channel": 0,
      "note": 82,
      "start": 22.2611,
      "duration": 0.0239,
      "velocity": 1,
      "chip": "ym2612"
    },
    {
      "channel": 0,
      "note": 89,
      "start": 22.2958,
      "duration": 0.0116,
      "velocity": 1,
      "chip": "ym2612"
    },
    {
      "channel": 2,
      "note": 51,
      "start": 22.3108,
      "duration": 0.0277,
      "velocity": 88,
      "chip": "ym2612"
    },
    {
      "channel": 0,
      "note": 94,
      "start": 22.3194,
      "duration": 0.0188,
      "velocity": 1,
      "chip": "ym2612"
    },
    {
      "channel": 0,
      "note": 111,
      "start": 22.3486,
      "duration": 0.0129,
      "velocity": 1,
      "chip": "ym2612"
    },
    {
      "channel": 2,
      "note": 51,
      "start": 22.366,
      "duration": 0.0273,
      "velocity": 88,
      "chip": "ym2612"
    },
    {
      "channel": 0,
      "note": 108,
      "start": 22.3791,
      "duration": 0.0138,
      "velocity": 1,
      "chip": "ym2612"
    },
    {
      "channel": 0,
      "note": 106,
      "start": 22.4123,
      "duration": 0.0473,
      "velocity": 1,
      "chip": "ym2612"
    },
    {
      "channel": 2,
      "note": 51,
      "start": 22.4633,
      "duration": 0.0466,
      "velocity": 88,
      "chip": "ym2612"
    },
    {
      "channel": 0,
      "note": 103,
      "start": 22.479,
      "duration": 0.0305,
      "velocity": 1,
      "chip": "ym2612"
    },
    {
      "channel": 0,
      "note": 99,
      "start": 22.5291,
      "duration": 0.0472,
      "velocity": 1,
      "chip": "ym2612"
    },
    {
      "channel": 2,
      "note": 51,
      "start": 22.5799,
      "duration": 0.0317,
      "velocity": 88,
      "chip": "ym2612"
    },
    {
      "channel": 0,
      "note": 111,
      "start": 22.5956,
      "duration": 0.0158,
      "velocity": 1,
      "chip": "ym2612"
    },
    {
      "channel": 0,
      "note": 108,
      "start": 22.6296,
      "duration": 0.0114,
      "velocity": 1,
      "chip": "ym2612"
    },
    {
      "channel": 2,
      "note": 51,
      "start": 22.6454,
      "duration": 0.0275,
      "velocity": 88,
      "chip": "ym2612"
    },
    {
      "channel": 0,
      "note": 106,
      "start": 22.6529,
      "duration": 0.0197,
      "velocity": 1,
      "chip": "ym2612"
    },
    {
      "channel": 0,
      "note": 103,
      "start": 22.6812,
      "duration": 0.0141,
      "velocity": 1,
      "chip": "ym2612"
    },
    {
      "channel": 2,
      "note": 51,
      "start": 22.6984,
      "duration": 0.0272,
      "velocity": 88,
      "chip": "ym2612"
    },
    {
      "channel": 0,
      "note": 99,
      "start": 22.7047,
      "duration": 0.0207,
      "velocity": 1,
      "chip": "ym2612"
    },
    {
      "channel": 0,
      "note": 94,
      "start": 22.7355,
      "duration": 0.0131,
      "velocity": 1,
      "chip": "ym2612"
    },
    {
      "channel": 2,
      "note": 51,
      "start": 22.7521,
      "duration": 0.0389,
      "velocity": 88,
      "chip": "ym2612"
    },
    {
      "channel": 0,
      "note": 89,
      "start": 22.7679,
      "duration": 0.0227,
      "velocity": 1,
      "chip": "ym2612"
    },
    {
      "channel": 0,
      "note": 82,
      "start": 22.8102,
      "duration": 0.0472,
      "velocity": 1,
      "chip": "ym2612"
    },
    {
      "channel": 2,
      "note": 51,
      "start": 22.861,
      "duration": 0.0317,
      "velocity": 88,
      "chip": "ym2612"
    },
    {
      "channel": 0,
      "note": 111,
      "start": 22.8767,
      "duration": 0.0158,
      "velocity": 1,
      "chip": "ym2612"
    },
    {
      "channel": 0,
      "note": 106,
      "start": 22.902,
      "duration": 0.0202,
      "velocity": 1,
      "chip": "ym2612"
    },
    {
      "channel": 2,
      "note": 51,
      "start": 22.9267,
      "duration": 0.02,
      "velocity": 88,
      "chip": "ym2612"
    },
    {
      "channel": 0,
      "note": 103,
      "start": 22.9343,
      "duration": 0.0122,
      "velocity": 1,
      "chip": "ym2612"
    },
    {
      "channel": 0,
      "note": 94,
      "start": 22.9573,
      "duration": 0.0204,
      "velocity": 1,
      "chip": "ym2612"
    },
    {
      "channel": 2,
      "note": 51,
      "start": 22.9812,
      "duration": 0.0198,
      "velocity": 88,
      "chip": "ym2612"
    },
    {
      "channel": 0,
      "note": 89,
      "start": 22.9873,
      "duration": 0.0135,
      "velocity": 1,
      "chip": "ym2612"
    },
    {
      "channel": 0,
      "note": 87,
      "start": 23.0295,
      "duration": 0.0307,
      "velocity": 1,
      "chip": "ym2612"
    },
    {
      "channel": 2,
      "note": 51,
      "start": 23.0638,
      "duration": 0.0632,
      "velocity": 88,
      "chip": "ym2612"
    },
    {
      "channel": 0,
      "note": 84,
      "start": 23.0794,
      "duration": 0.0473,
      "velocity": 1,
      "chip": "ym2612"
    },
    {
      "channel": 0,
      "note": 82,
      "start": 23.1462,
      "duration": 0.0307,
      "velocity": 1,
      "chip": "ym2612"
    },
    {
      "channel": 2,
      "note": 51,
      "start": 23.1805,
      "duration": 0.0391,
      "velocity": 88,
      "chip": "ym2612"
    },
    {
      "channel": 0,
      "note": 111,
      "start": 23.1962,
      "duration": 0.0232,
      "velocity": 1,
      "chip": "ym2612"
    },
    {
      "channel": 0,
      "note": 108,
      "start": 23.2309,
      "duration": 0.0114,
      "velocity": 1,
      "chip": "ym2612"
    },
    {
      "channel": 2,
      "note": 51,
      "start": 23.2468,
      "duration": 0.0282,
      "velocity": 88,
      "chip": "ym2612"
    },
    {
      "channel": 0,
      "note": 106,
      "start": 23.2605,
      "duration": 0.0143,
      "velocity": 1,
      "chip": "ym2612"
    },
    {
      "channel": 0,
      "note": 103,
      "start": 23.2833,
      "duration": 0.0198,
      "velocity": 1,
      "chip": "ym2612"
    },
    {
      "channel": 2,
      "note": 51,
      "start": 23.3065,
      "duration": 0.0205,
      "velocity": 88,
      "chip": "ym2612"
    },
    {
      "channel": 0,
      "note": 99,
      "start": 23.3143,
      "duration": 0.0125,
      "velocity": 1,
      "chip": "ym2612"
    },
    {
      "channel": 0,
      "note": 94,
      "start": 23.3373,
      "duration": 0.0197,
      "velocity": 1,
      "chip": "ym2612"
    },
    {
      "channel": 2,
      "note": 51,
      "start": 23.3611,
      "duration": 0.0302,
      "velocity": 88,
      "chip": "ym2612"
    },
    {
      "channel": 0,
      "note": 89,
      "start": 23.3685,
      "duration": 0.0225,
      "velocity": 1,
      "chip": "ym2612"
    },
    {
      "channel": 0,
      "note": 82,
      "start": 23.427,
      "duration": 0.0307,
      "velocity": 1,
      "chip": "ym2612"
    },
    {
      "channel": 1,
      "note": 65,
      "start": 23.4612,
      "duration": 2.3316,
      "velocity": 122,
      "chip": "ym2612"
    },
    {
      "channel": 2,
      "note": 53,
      "start": 23.4643,
      "duration": 0.0372,
      "velocity": 88,
      "chip": "ym2612"
    },
    {
      "channel": 0,
      "note": 84,
      "start": 23.4771,
      "duration": 0.0242,
      "velocity": 1,
      "chip": "ym2612"
    },
    {
      "channel": 0,
      "note": 89,
      "start": 23.5121,
      "duration": 0.0117,
      "velocity": 1,
      "chip": "ym2612"
    },
    {
      "channel": 2,
      "note": 53,
      "start": 23.5271,
      "duration": 0.0277,
      "velocity": 88,
      "chip": "ym2612"
    },
    {
      "channel": 0,
      "note": 94,
      "start": 23.5358,
      "duration": 0.0188,
      "velocity": 1,
      "chip": "ym2612"
    },
    {
      "channel": 0,
      "note": 111,
      "start": 23.565,
      "duration": 0.0129,
      "velocity": 1,
      "chip": "ym2612"
    },
    {
      "channel": 2,
      "note": 53,
      "start": 23.5823,
      "duration": 0.0277,
      "velocity": 88,
      "chip": "ym2612"
    },
    {
      "channel": 0,
      "note": 108,
      "start": 23.5961,
      "duration": 0.0136,
      "velocity": 1,
      "chip": "ym2612"
    },
    {
      "channel": 0,
      "note": 106,
      "start": 23.629,
      "duration": 0.0306,
      "velocity": 1,
      "chip": "ym2612"
    },
    {
      "channel": 2,
      "note": 53,
      "start": 23.6633,
      "duration": 0.0634,
      "velocity": 88,
      "chip": "ym2612"
    },
    {
      "channel": 0,
      "note": 103,
      "start": 23.6957,
      "duration": 0.0307,
      "velocity": 1,
      "chip": "ym2612"
    },
    {
      "channel": 0,
      "note": 99,
      "start": 23.7457,
      "duration": 0.0472,
      "velocity": 1,
      "chip": "ym2612"
    },
    {
      "channel": 2,
      "note": 53,
      "start": 23.7965,
      "duration": 0.0318,
      "velocity": 88,
      "chip": "ym2612"
    },
    {
      "channel": 0,
      "note": 111,
      "start": 23.8124,
      "duration": 0.0158,
      "velocity": 1,
      "chip": "ym2612"
    },
    {
      "channel": 0,
      "note": 108,
      "start": 23.839,
      "duration": 0.0189,
      "velocity": 1,
      "chip": "ym2612"
    },
    {
      "channel": 2,
      "note": 53,
      "start": 23.8622,
      "duration": 0.0196,
      "velocity": 88,
      "chip": "ym2612"
    },
    {
      "channel": 0,
      "note": 106,
      "start": 23.87,
      "duration": 0.0115,
      "velocity": 1,
      "chip": "ym2612"
    },
    {
      "channel": 0,
      "note": 103,
      "start": 23.8988,
      "duration": 0.0145,
      "velocity": 1,
      "chip": "ym2612"
    },
    {
      "channel": 2,
      "note": 53,
      "start": 23.9164,
      "duration": 0.0257,
      "velocity": 88,
      "chip": "ym2612"
    },
    {
      "channel": 0,
      "note": 99,
      "start": 23.9224,
      "duration": 0.0193,
      "velocity": 1,
      "chip": "ym2612"
    },
    {
      "channel": 0,
      "note": 94,
      "start": 23.9522,
      "duration": 0.0127,
      "velocity": 1,
      "chip": "ym2612"
    },
    {
      "channel": 2,
      "note": 53,
      "start": 23.9683,
      "duration": 0.0384,
      "velocity": 88,
      "chip": "ym2612"
    },
    {
      "channel": 0,
      "note": 89,
      "start": 23.9756,
      "duration": 0.0309,
      "velocity": 1,
      "chip": "ym2612"
    },
    {
      "channel": 0,
      "note": 82,
      "start": 24.0258,
      "duration": 0.0306,
      "velocity": 1,
      "chip": "ym2612"
    },
    {
      "channel": 2,
      "note": 53,
      "start": 24.0601,
      "duration": 0.0484,
      "velocity": 88,
      "chip": "ym2612"
    },
    {
      "channel": 0,
      "note": 111,
      "start": 24.0925,
      "duration": 0.0158,
      "velocity": 1,
      "chip": "ym2612"
    },
    {
      "channel": 0,
      "note": 106,
      "start": 24.1177,
      "duration": 0.0203,
      "velocity": 1,
      "chip": "ym2612"
    },
    {
      "channel": 2,
      "note": 53,
      "start": 24.1426,
      "duration": 0.02,
      "velocity": 88,
      "chip": "ym2612"
    },
    {
      "channel": 0,
      "note": 103,
      "start": 24.1501,
      "duration": 0.0122,
      "velocity": 1,
      "chip": "ym2612"
    },
    {
      "channel": 0,
      "note": 99,
      "start": 24.1731,
      "duration": 0.0205,
      "velocity": 1,
      "chip": "ym2612"
    },
    {
      "channel": 2,
      "note": 53,
      "start": 24.1968,
      "duration": 0.0182,
      "velocity": 88,
      "chip": "ym2612"
    },
    {
      "channel": 0,
      "note": 94,
      "start": 24.2025,
      "duration": 0.0123,
      "velocity": 1,
      "chip": "ym2612"
    },
    {
      "channel": 0,
      "note": 89,
      "start": 24.2437,
      "duration": 0.0306,
      "velocity": 1,
      "chip": "ym2612"
    },
    {
      "channel": 2,
      "note": 53,
      "start": 24.2779,
      "duration": 0.0467,
      "velocity": 88,
      "chip": "ym2612"
    },
    {
      "channel": 0,
      "note": 87,
      "start": 24.2937,
      "duration": 0.0306,
      "velocity": 1,
      "chip": "ym2612"
    },
    {
      "channel": 0,
      "note": 84,
      "start": 24.3603,
      "duration": 0.0307,
      "velocity": 1,
      "chip": "ym2612"
    },
    {
      "channel": 2,
      "note": 53,
      "start": 24.3946,
      "duration": 0.0389,
      "velocity": 88,
      "chip": "ym2612"
    },
    {
      "channel": 0,
      "note": 82,
      "start": 24.4103,
      "duration": 0.0231,
      "velocity": 1,
      "chip": "ym2612"
    },
    {
      "channel": 0,
      "note": 111,
      "start": 24.4448,
      "duration": 0.0113,
      "velocity": 1,
      "chip": "ym2612"
    },
    {
      "channel": 2,
      "note": 53,
      "start": 24.4605,
      "duration": 0.0285,
      "velocity": 88,
      "chip": "ym2612"
    },
    {
      "channel": 0,
      "note": 108,
      "start": 24.4681,
      "duration": 0.0207,
      "velocity": 1,
      "chip": "ym2612"
    },
    {
      "channel": 0,
      "note": 106,
      "start": 24.4973,
      "duration": 0.0141,
      "velocity": 1,
      "chip": "ym2612"
    },
    {
      "channel": 2,
      "note": 53,
      "start": 24.5148,
      "duration": 0.027,
      "velocity": 88,
      "chip": "ym2612"
    },
    {
      "channel": 0,
      "note": 103,
      "start": 24.5283,
      "duration": 0.0134,
      "velocity": 1,
      "chip": "ym2612"
    },
    {
      "channel": 0,
      "note": 99,
      "start": 24.5516,
      "duration": 0.02,
      "velocity": 1,
      "chip": "ym2612"
    },
    {
      "channel": 2,
      "note": 53,
      "start": 24.5758,
      "duration": 0.0308,
      "velocity": 88,
      "chip": "ym2612"
    },
    {
      "channel": 0,
      "note": 94,
      "start": 24.5835,
      "duration": 0.0227,
      "velocity": 1,
      "chip": "ym2612"
    },
    {
      "channel": 0,
      "note": 89,
      "start": 24.6257,
      "duration": 0.0473,
      "velocity": 1,
      "chip": "ym2612"
    },
    {
      "channel": 2,
      "note": 53,
      "start": 24.6766,
      "duration": 0.0332,
      "velocity": 88,
      "chip": "ym2612"
    },
    {
      "channel": 0,
      "note": 82,
      "start": 24.6923,
      "duration": 0.0172,
      "velocity": 1,
      "chip": "ym2612"
    },
    {
      "channel": 0,
      "note": 89,
      "start": 24.7263,
      "duration": 0.012,
      "velocity": 1,
      "chip": "ym2612"
    },
    {
      "channel": 2,
      "note": 53,
      "start": 24.7417,
      "duration": 0.0277,
      "velocity": 88,
      "chip": "ym2612"
    },
    {
      "channel": 0,
      "note": 94,
      "start": 24.7505,
      "duration": 0.0187,
      "velocity": 1,
      "chip": "ym2612"
    },
    {
      "channel": 0,
      "note": 111,
      "start": 24.7793,
      "duration": 0.0132,
      "velocity": 1,
      "chip": "ym2612"
    },
    {
      "channel": 2,
      "note": 53,
      "start": 24.7967,
      "duration": 0.027,
      "velocity": 88,
      "chip": "ym2612"
    },
    {
      "channel": 0,
      "note": 108,
      "start": 24.8039,
      "duration": 0.0195,
      "velocity": 1,
      "chip": "ym2612"
    },
    {
      "channel": 0,
      "note": 106,
      "start": 24.8428,
      "duration": 0.0306,
      "velocity": 1,
      "chip": "ym2612"
    },
    {
      "channel": 2,
      "note": 53,
      "start": 24.8771,
      "duration": 0.0634,
      "velocity": 88,
      "chip": "ym2612"
    },
    {
      "channel": 0,
      "note": 103,
      "start": 24.9095,
      "duration": 0.0307,
      "velocity": 1,
      "chip": "ym2612"
    },
    {
      "channel": 0,
      "note": 99,
      "start": 24.9594,
      "duration": 0.0473,
      "velocity": 1,
      "chip": "ym2612"
    },
    {
      "channel": 2,
      "note": 53,
      "start": 25.0103,
      "duration": 0.0318,
      "velocity": 88,
      "chip": "ym2612"
    },
    {
      "channel": 0,
      "note": 111,
      "start": 25.0262,
      "duration": 0.0158,
      "velocity": 1,
      "chip": "ym2612"
    },
    {
      "channel": 0,
      "note": 108,
      "start": 25.0527,
      "duration": 0.0185,
      "velocity": 1,
      "chip": "ym2612"
    },
    {
      "channel": 2,
      "note": 53,
      "start": 25.0755,
      "duration": 0.0196,
      "velocity": 88,
      "chip": "ym2612"
    },
    {
      "channel": 0,
      "note": 106,
      "start": 25.0833,
      "duration": 0.0115,
      "velocity": 1,
      "chip": "ym2612"
    },
    {
      "channel": 0,
      "note": 103,
      "start": 25.1061,
      "duration": 0.0206,
      "velocity": 1,
      "chip": "ym2612"
    },
    {
      "channel": 2,
      "note": 53,
      "start": 25.1297,
      "duration": 0.0185,
      "velocity": 88,
      "chip": "ym2612"
    },
    {
      "channel": 0,
      "note": 99,
      "start": 25.1358,
      "duration": 0.0123,
      "velocity": 1,
      "chip": "ym2612"
    },
    {
      "channel": 0,
      "note": 94,
      "start": 25.166,
      "duration": 0.0127,
      "velocity": 1,
      "chip": "ym2612"
    },
    {
      "channel": 2,
      "note": 53,
      "start": 25.1821,
      "duration": 0.0386,
      "velocity": 88,
      "chip": "ym2612"
    },
    {
      "channel": 0,
      "note": 89,
      "start": 25.1893,
      "duration": 0.0311,
      "velocity": 1,
      "chip": "ym2612"
    },
    {
      "channel": 0,
      "note": 82,
      "start": 25.2399,
      "duration": 0.0305,
      "velocity": 1,
      "chip": "ym2612"
    },
    {
      "channel": 2,
      "note": 53,
      "start": 25.2741,
      "duration": 0.0388,
      "velocity": 88,
      "chip": "ym2612"
    },
    {
      "channel": 0,
      "note": 111,
      "start": 25.2898,
      "duration": 0.023,
      "velocity": 1,
      "chip": "ym2612"
    },
    {
      "channel": 0,
      "note": 106,
      "start": 25.3241,
      "duration": 0.0116,
      "velocity": 1,
      "chip": "ym2612"
    },
    {
      "channel": 2,
      "note": 53,
      "start": 25.3399,
      "duration": 0.0268,
      "velocity": 88,
      "chip": "ym2612"
    },
    {
      "channel": 0,
      "note": 103,
      "start": 25.3538,
      "duration": 0.0127,
      "velocity": 1,
      "chip": "ym2612"
    },
    {
      "channel": 0,
      "note": 94,
      "start": 25.3765,
      "duration": 0.0202,
      "velocity": 1,
      "chip": "ym2612"
    },
    {
      "channel": 2,
      "note": 53,
      "start": 25.4004,
      "duration": 0.0227,
      "velocity": 88,
      "chip": "ym2612"
    },
    {
      "channel": 0,
      "note": 89,
      "start": 25.4075,
      "duration": 0.0153,
      "velocity": 1,
      "chip": "ym2612"
    },
    {
      "channel": 0,
      "note": 87,
      "start": 25.4422,
      "duration": 0.0473,
      "velocity": 1,
      "chip": "ym2612"
    },
    {
      "channel": 2,
      "note": 53,
      "start": 25.4931,
      "duration": 0.0466,
      "velocity": 88,
      "chip": "ym2612"
    },
    {
      "channel": 0,
      "note": 84,
      "start": 25.5088,
      "duration": 0.0306,
      "velocity": 1,
      "chip": "ym2612"
    },
    {
      "channel": 0,
      "note": 82,
      "start": 25.5755,
      "duration": 0.0306,
      "velocity": 1,
      "chip": "ym2612"
    },
    {
      "channel": 2,
      "note": 53,
      "start": 25.6098,
      "duration": 0.039,
      "velocity": 88,
      "chip": "ym2612"
    },
    {
      "channel": 0,
      "note": 111,
      "start": 25.6256,
      "duration": 0.0229,
      "velocity": 1,
      "chip": "ym2612"
    },
    {
      "channel": 0,
      "note": 108,
      "start": 25.6597,
      "duration": 0.0114,
      "velocity": 1,
      "chip": "ym2612"
    },
    {
      "channel": 2,
      "note": 53,
      "start": 25.6756,
      "duration": 0.028,
      "velocity": 88,
      "chip": "ym2612"
    },
    {
      "channel": 0,
      "note": 106,
      "start": 25.6831,
      "duration": 0.0203,
      "velocity": 1,
      "chip": "ym2612"
    },
    {
      "channel": 0,
      "note": 103,
      "start": 25.7119,
      "duration": 0.0141,
      "velocity": 1,
      "chip": "ym2612"
    },
    {
      "channel": 2,
      "note": 53,
      "start": 25.729,
      "duration": 0.026,
      "velocity": 88,
      "chip": "ym2612"
    },
    {
      "channel": 0,
      "note": 99,
      "start": 25.735,
      "duration": 0.0198,
      "velocity": 1,
      "chip": "ym2612"
    },
    {
      "channel": 0,
      "note": 94,
      "start": 25.7649,
      "duration": 0.0128,
      "velocity": 1,
      "chip": "ym2612"
    },
    {
      "channel": 2,
      "note": 53,
      "start": 25.781,
      "duration": 0.038,
      "velocity": 88,
      "chip": "ym2612"
    },
    {
      "channel": 0,
      "note": 89,
      "start": 25.7963,
      "duration": 0.0224,
      "velocity": 1,
      "chip": "ym2612"
    },
    {
      "channel": 0,
      "note": 82,
      "start": 25.8381,
      "duration": 0.0474,
      "velocity": 1,
      "chip": "ym2612"
    },
    {
      "channel": 1,
      "note": 70,
      "start": 25.8893,
      "duration": 1.8714,
      "velocity": 122,
      "chip": "ym2612"
    },
    {
      "channel": 2,
      "note": 58,
      "start": 25.8924,
      "duration": 0.0305,
      "velocity": 88,
      "chip": "ym2612"
    },
    {
      "channel": 0,
      "note": 82,
      "start": 25.9047,
      "duration": 0.018,
      "velocity": 1,
      "chip": "ym2612"
    },
    {
      "channel": 0,
      "note": 89,
      "start": 25.9319,
      "duration": 0.0202,
      "velocity": 1,
      "chip": "ym2612"
    },
    {
      "channel": 2,
      "note": 58,
      "start": 25.9555,
      "duration": 0.0212,
      "velocity": 88,
      "chip": "ym2612"
    },
    {
      "channel": 0,
      "note": 94,
      "start": 25.9642,
      "duration": 0.0123,
      "velocity": 1,
      "chip": "ym2612"
    },
    {
      "channel": 0,
      "note": 101,
      "start": 25.9938,
      "duration": 0.0128,
      "velocity": 1,
      "chip": "ym2612"
    },
    {
      "channel": 2,
      "note": 58,
      "start": 26.0109,
      "duration": 0.027,
      "velocity": 88,
      "chip": "ym2612"
    },
    {
      "channel": 0,
      "note": 106,
      "start": 26.0181,
      "duration": 0.0195,
      "velocity": 1,
      "chip": "ym2612"
    },
    {
      "channel": 0,
      "note": 103,
      "start": 26.0571,
      "duration": 0.0306,
      "velocity": 1,
      "chip": "ym2612"
    },
    {
      "channel": 2,
      "note": 58,
      "start": 26.0914,
      "duration": 0.0632,
      "velocity": 88,
      "chip": "ym2612"
    },
    {
      "channel": 0,
      "note": 101,
      "start": 26.107,
      "duration": 0.0473,
      "velocity": 1,
      "chip": "ym2612"
    },
    {
      "channel": 0,
      "note": 98,
      "start": 26.1738,
      "duration": 0.0305,
      "velocity": 1,
      "chip": "ym2612"
    },
    {
      "channel": 2,
      "note": 58,
      "start": 26.208,
      "duration": 0.0483,
      "velocity": 88,
      "chip": "ym2612"
    },
    {
      "channel": 0,
      "note": 94,
      "start": 26.2404,
      "duration": 0.0159,
      "velocity": 1,
      "chip": "ym2612"
    },
    {
      "channel": 0,
      "note": 89,
      "start": 26.267,
      "duration": 0.0185,
      "velocity": 1,
      "chip": "ym2612"
    },
    {
      "channel": 2,
      "note": 58,
      "start": 26.2898,
      "duration": 0.0196,
      "velocity": 88,
      "chip": "ym2612"
    },
    {
      "channel": 0,
      "note": 84,
      "start": 26.2976,
      "duration": 0.0115,
      "velocity": 1,
      "chip": "ym2612"
    },
    {
      "channel": 0,
      "note": 82,
      "start": 26.3205,
      "duration": 0.0206,
      "velocity": 1,
      "chip": "ym2612"
    },
    {
      "channel": 2,
      "note": 58,
      "start": 26.3441,
      "duration": 0.0185,
      "velocity": 88,
      "chip": "ym2612"
    },
    {
      "channel": 0,
      "note": 79,
      "start": 26.3501,
      "duration": 0.0123,
      "velocity": 1,
      "chip": "ym2612"
    },
    {
      "channel": 0,
      "note": 77,
      "start": 26.3726,
      "duration": 0.0199,
      "velocity": 1,
      "chip": "ym2612"
    },
    {
      "channel": 2,
      "note": 58,
      "start": 26.3959,
      "duration": 0.022,
      "velocity": 88,
      "chip": "ym2612"
    },
    {
      "channel": 0,
      "note": 79,
      "start": 26.4031,
      "duration": 0.0145,
      "velocity": 1,
      "chip": "ym2612"
    },
    {
      "channel": 0,
      "note": 82,
      "start": 26.4536,
      "duration": 0.0306,
      "velocity": 1,
      "chip": "ym2612"
    },
    {
      "channel": 2,
      "note": 58,
      "start": 26.4879,
      "duration": 0.0389,
      "velocity": 88,
      "chip": "ym2612"
    },
    {
      "channel": 0,
      "note": 84,
      "start": 26.5036,
      "duration": 0.0231,
      "velocity": 1,
      "chip": "ym2612"
    },
    {
      "channel": 0,
      "note": 86,
      "start": 26.5381,
      "duration": 0.0114,
      "velocity": 1,
      "chip": "ym2612"
    },
    {
      "channel": 2,
      "note": 58,
      "start": 26.5538,
      "duration": 0.0286,
      "velocity": 88,
      "chip": "ym2612"
    },
    {
      "channel": 0,
      "note": 89,
      "start": 26.5615,
      "duration": 0.0207,
      "velocity": 1,
      "chip": "ym2612"
    },
    {
      "channel": 0,
      "note": 94,
      "start": 26.5907,
      "duration": 0.0141,
      "velocity": 1,
      "chip": "ym2612"
    },
    {
      "channel": 2,
      "note": 58,
      "start": 26.6083,
      "duration": 0.0289,
      "velocity": 88,
      "chip": "ym2612"
    },
    {
      "channel": 0,
      "note": 98,
      "start": 26.6215,
      "duration": 0.0153,
      "velocity": 1,
      "chip": "ym2612"
    },
    {
      "channel": 0,
      "note": 101,
      "start": 26.6563,
      "duration": 0.0473,
      "velocity": 1,
      "chip": "ym2612"
    },
    {
      "channel": 2,
      "note": 58,
      "start": 26.7072,
      "duration": 0.0466,
      "velocity": 88,
      "chip": "ym2612"
    },
    {
      "channel": 0,
      "note": 103,
      "start": 26.7229,
      "duration": 0.0306,
      "velocity": 1,
      "chip": "ym2612"
    },
    {
      "channel": 0,
      "note": 106,
      "start": 26.773,
      "duration": 0.0472,
      "velocity": 1,
      "chip": "ym2612"
    },
    {
      "channel": 2,
      "note": 58,
      "start": 26.8239,
      "duration": 0.0316,
      "velocity": 88,
      "chip": "ym2612"
    },
    {
      "channel": 0,
      "note": 103,
      "start": 26.8395,
      "duration": 0.0158,
      "velocity": 1,
      "chip": "ym2612"
    },
    {
      "channel": 0,
      "note": 101,
      "start": 26.8736,
      "duration": 0.0114,
      "velocity": 1,
      "chip": "ym2612"
    },
    {
      "channel": 2,
      "note": 58,
      "start": 26.8893,
      "duration": 0.0276,
      "velocity": 88,
      "chip": "ym2612"
    },
    {
      "channel": 0,
      "note": 98,
      "start": 26.897,
      "duration": 0.0197,
      "velocity": 1,
      "chip": "ym2612"
    },
    {
      "channel": 0,
      "note": 94,
      "start": 26.9252,
      "duration": 0.0141,
      "velocity": 1,
      "chip": "ym2612"
    },
    {
      "channel": 2,
      "note": 58,
      "start": 26.9423,
      "duration": 0.026,
      "velocity": 88,
      "chip": "ym2612"
    },
    {
      "channel": 0,
      "note": 89,
      "start": 26.9483,
      "duration": 0.0198,
      "velocity": 1,
      "chip": "ym2612"
    },
    {
      "channel": 0,
      "note": 84,
      "start": 26.9785,
      "duration": 0.0127,
      "velocity": 1,
      "chip": "ym2612"
    },
    {
      "channel": 2,
      "note": 58,
      "start": 26.9946,
      "duration": 0.0384,
      "velocity": 88,
      "chip": "ym2612"
    },
    {
      "channel": 0,
      "note": 82,
      "start": 27.0018,
      "duration": 0.0309,
      "velocity": 1,
      "chip": "ym2612"
    },
    {
      "channel": 0,
      "note": 79,
      "start": 27.052,
      "duration": 0.0306,
      "velocity": 1,
      "chip": "ym2612"
    },
    {
      "channel": 2,
      "note": 58,
      "start": 27.0863,
      "duration": 0.0503,
      "velocity": 88,
      "chip": "ym2612"
    },
    {
      "channel": 0,
      "note": 77,
      "start": 27.1188,
      "duration": 0.0176,
      "velocity": 1,
      "chip": "ym2612"
    },
    {
      "channel": 0,
      "note": 84,
      "start": 27.1449,
      "duration": 0.0199,
      "velocity": 1,
      "chip": "ym2612"
    },
    {
      "channel": 2,
      "note": 58,
      "start": 27.1681,
      "duration": 0.0205,
      "velocity": 88,
      "chip": "ym2612"
    },
    {
      "channel": 0,
      "note": 89,
      "start": 27.1766,
      "duration": 0.0117,
      "velocity": 1,
      "chip": "ym2612"
    },
    {
      "channel": 0,
      "note": 106,
      "start": 27.1995,
      "duration": 0.0187,
      "velocity": 1,
      "chip": "ym2612"
    },
    {
      "channel": 2,
      "note": 58,
      "start": 27.2227,
      "duration": 0.019,
      "velocity": 88,
      "chip": "ym2612"
    },
    {
      "channel": 0,
      "note": 103,
      "start": 27.2297,
      "duration": 0.0118,
      "velocity": 1,
      "chip": "ym2612"
    },
    {
      "channel": 0,
      "note": 101,
      "start": 27.2687,
      "duration": 0.0306,
      "velocity": 1,
      "chip": "ym2612"
    },
    {
      "channel": 2,
      "note": 58,
      "start": 27.303,
      "duration": 0.0634,
      "velocity": 88,
      "chip": "ym2612"
    },
    {
      "channel": 0,
      "note": 98,
      "start": 27.3188,
      "duration": 0.0472,
      "velocity": 1,
      "chip": "ym2612"
    },
    {
      "channel": 0,
      "note": 94,
      "start": 27.3854,
      "duration": 0.0306,
      "velocity": 1,
      "chip": "ym2612"
    },
    {
      "channel": 2,
      "note": 58,
      "start": 27.4197,
      "duration": 0.0394,
      "velocity": 88,
      "chip": "ym2612"
    },
    {
      "channel": 0,
      "note": 106,
      "start": 27.4355,
      "duration": 0.0233,
      "velocity": 1,
      "chip": "ym2612"
    },
    {
      "channel": 0,
      "note": 103,
      "start": 27.47,
      "duration": 0.0114,
      "velocity": 1,
      "chip": "ym2612"
    },
    {
      "channel": 2,
      "note": 58,
      "start": 27.4859,
      "duration": 0.0279,
      "velocity": 88,
      "chip": "ym2612"
    },
    {
      "channel": 0,
      "note": 101,
      "start": 27.4995,
      "duration": 0.0141,
      "velocity": 1,
      "chip": "ym2612"
    },
    {
      "channel": 0,
      "note": 98,
      "start": 27.5222,
      "duration": 0.0198,
      "velocity": 1,
      "chip": "ym2612"
    },
    {
      "channel": 2,
      "note": 58,
      "start": 27.5453,
      "duration": 0.0205,
      "velocity": 88,
      "chip": "ym2612"
    },
    {
      "channel": 0,
      "note": 94,
      "start": 27.5531,
      "duration": 0.0125,
      "velocity": 1,
      "chip": "ym2612"
    },
    {
      "channel": 0,
      "note": 89,
      "start": 27.5757,
      "duration": 0.0198,
      "velocity": 1,
      "chip": "ym2612"
    },
    {
      "channel": 2,
      "note": 58,
      "start": 27.5996,
      "duration": 0.0301,
      "velocity": 88,
      "chip": "ym2612"
    },
    {
      "channel": 0,
      "note": 84,
      "start": 27.607,
      "duration": 0.0224,
      "velocity": 1,
      "chip": "ym2612"
    },
    {
      "channel": 0,
      "note": 77,
      "start": 27.6654,
      "duration": 0.0307,
      "velocity": 1,
      "chip": "ym2612"
    },
    {
      "channel": 2,
      "note": 58,
      "start": 27.6998,
      "duration": 0.0316,
      "velocity": 88,
      "chip": "ym2612"
    },
    {
      "channel": 0,
      "note": 106,
      "start": 27.7154,
      "duration": 0.0158,
      "velocity": 1,
      "chip": "ym2612"
    },
    {
      "channel": 0,
      "note": 101,
      "start": 27.7491,
      "duration": 0.0116,
      "velocity": 1,
      "chip": "ym2612"
    },
    {
      "channel": 2,
      "note": 58,
      "start": 27.7651,
      "duration": 0.0261,
      "velocity": 88,
      "chip": "ym2612"
    },
    {
      "channel": 0,
      "note": 98,
      "start": 27.7724,
      "duration": 0.0186,
      "velocity": 1,
      "chip": "ym2612"
    },
    {
      "channel": 0,
      "note": 89,
      "start": 27.8013,
      "duration": 0.0144,
      "velocity": 1,
      "chip": "ym2612"
    },
    {
      "channel": 1,
      "note": 77,
      "start": 27.8187,
      "duration": 0.4594,
      "velocity": 122,
      "chip": "ym2612"
    },
    {
      "channel": 2,
      "note": 58,
      "start": 27.8216,
      "duration": 0.0266,
      "velocity": 88,
      "chip": "ym2612"
    },
    {
      "channel": 0,
      "note": 84,
      "start": 27.8274,
      "duration": 0.0205,
      "velocity": 1,
      "chip": "ym2612"
    },
    {
      "channel": 0,
      "note": 82,
      "start": 27.8674,
      "duration": 0.0305,
      "velocity": 1,
      "chip": "ym2612"
    },
    {
      "channel": 2,
      "note": 58,
      "start": 27.9016,
      "duration": 0.0632,
      "velocity": 88,
      "chip": "ym2612"
    },
    {
      "channel": 0,
      "note": 79,
      "start": 27.9339,
      "duration": 0.0306,
      "velocity": 1,
      "chip": "ym2612"
    },
    {
      "channel": 0,
      "note": 77,
      "start": 27.984,
      "duration": 0.0473,
      "velocity": 1,
      "chip": "ym2612"
    },
    {
      "channel": 2,
      "note": 58,
      "start": 28.0349,
      "duration": 0.0318,
      "velocity": 88,
      "chip": "ym2612"
    },
    {
      "channel": 0,
      "note": 106,
      "start": 28.0506,
      "duration": 0.0159,
      "velocity": 1,
      "chip": "ym2612"
    },
    {
      "channel": 0,
      "note": 103,
      "start": 28.0773,
      "duration": 0.0189,
      "velocity": 1,
      "chip": "ym2612"
    },
    {
      "channel": 2,
      "note": 58,
      "start": 28.1004,
      "duration": 0.0199,
      "velocity": 88,
      "chip": "ym2612"
    },
    {
      "channel": 0,
      "note": 101,
      "start": 28.1083,
      "duration": 0.0118,
      "velocity": 1,
      "chip": "ym2612"
    },
    {
      "channel": 0,
      "note": 98,
      "start": 28.1373,
      "duration": 0.0144,
      "velocity": 1,
      "chip": "ym2612"
    },
    {
      "channel": 2,
      "note": 58,
      "start": 28.1547,
      "duration": 0.0256,
      "velocity": 88,
      "chip": "ym2612"
    },
    {
      "channel": 0,
      "note": 94,
      "start": 28.1608,
      "duration": 0.0194,
      "velocity": 1,
      "chip": "ym2612"
    },
    {
      "channel": 0,
      "note": 89,
      "start": 28.1905,
      "duration": 0.0127,
      "velocity": 1,
      "chip": "ym2612"
    },
    {
      "channel": 2,
      "note": 58,
      "start": 28.2066,
      "duration": 0.0385,
      "velocity": 88,
      "chip": "ym2612"
    },
    {
      "channel": 0,
      "note": 84,
      "start": 28.2138,
      "duration": 0.0309,
      "velocity": 1,
      "chip": "ym2612"
    },
    {
      "channel": 0,
      "note": 77,
      "start": 28.2641,
      "duration": 0.0307,
      "velocity": 1,
      "chip": "ym2612"
    },
    {
      "channel": 1,
      "note": 72,
      "start": 28.2983,
      "duration": 1.7439,
      "velocity": 122,
      "chip": "ym2612"
    },
    {
      "channel": 2,
      "note": 60,
      "start": 28.3014,
      "duration": 0.0473,
      "velocity": 88,
      "chip": "ym2612"
    },
    {
      "channel": 0,
      "note": 79,
      "start": 28.3308,
      "duration": 0.0176,
      "velocity": 1,
      "chip": "ym2612"
    },
    {
      "channel": 0,
      "note": 84,
      "start": 28.3569,
      "duration": 0.0133,
      "velocity": 1,
      "chip": "ym2612"
    },
    {
      "channel": 2,
      "note": 60,
      "start": 28.3736,
      "duration": 0.027,
      "velocity": 88,
      "chip": "ym2612"
    },
    {
      "channel": 0,
      "note": 89,
      "start": 28.3886,
      "duration": 0.0117,
      "velocity": 1,
      "chip": "ym2612"
    },
    {
      "channel": 0,
      "note": 106,
      "start": 28.4115,
      "duration": 0.0187,
      "velocity": 1,
      "chip": "ym2612"
    },
    {
      "channel": 2,
      "note": 60,
      "start": 28.4347,
      "duration": 0.0194,
      "velocity": 88,
      "chip": "ym2612"
    },
    {
      "channel": 0,
      "note": 103,
      "start": 28.4419,
      "duration": 0.012,
      "velocity": 1,
      "chip": "ym2612"
    },
    {
      "channel": 0,
      "note": 101,
      "start": 28.4645,
      "duration": 0.0472,
      "velocity": 1,
      "chip": "ym2612"
    },
    {
      "channel": 2,
      "note": 60,
      "start": 28.5154,
      "duration": 0.0467,
      "velocity": 88,
      "chip": "ym2612"
    },
    {
      "channel": 0,
      "note": 98,
      "start": 28.5312,
      "duration": 0.0305,
      "velocity": 1,
      "chip": "ym2612"
    },
    {
      "channel": 0,
      "note": 94,
      "start": 28.5979,
      "duration": 0.0306,
      "velocity": 1,
      "chip": "ym2612"
    },
    {
      "channel": 2,
      "note": 60,
      "start": 28.6321,
      "duration": 0.039,
      "velocity": 88,
      "chip": "ym2612"
    },
    {
      "channel": 0,
      "note": 106,
      "start": 28.6478,
      "duration": 0.0231,
      "velocity": 1,
      "chip": "ym2612"
    },
    {
      "channel": 0,
      "note": 103,
      "start": 28.6824,
      "duration": 0.0114,
      "velocity": 1,
      "chip": "ym2612"
    },
    {
      "channel": 2,
      "note": 60,
      "start": 28.698,
      "duration": 0.0286,
      "velocity": 88,
      "chip": "ym2612"
    },
    {
      "channel": 0,
      "note": 101,
      "start": 28.7058,
      "duration": 0.0207,
      "velocity": 1,
      "chip": "ym2612"
    },
    {
      "channel": 0,
      "note": 98,
      "start": 28.735,
      "duration": 0.0141,
      "velocity": 1,
      "chip": "ym2612"
    },
    {
      "channel": 2,
      "note": 60,
      "start": 28.7521,
      "duration": 0.0262,
      "velocity": 88,
      "chip": "ym2612"
    },
    {
      "channel": 0,
      "note": 94,
      "start": 28.7657,
      "duration": 0.0125,
      "velocity": 1,
      "chip": "ym2612"
    },
    {
      "channel": 0,
      "note": 89,
      "start": 28.7885,
      "duration": 0.02,
      "velocity": 1,
      "chip": "ym2612"
    },
    {
      "channel": 2,
      "note": 60,
      "start": 28.8127,
      "duration": 0.0302,
      "velocity": 88,
      "chip": "ym2612"
    },
    {
      "channel": 0,
      "note": 84,
      "start": 28.82,
      "duration": 0.0225,
      "velocity": 1,
      "chip": "ym2612"
    },
    {
      "channel": 0,
      "note": 77,
      "start": 28.8619,
      "duration": 0.0473,
      "velocity": 1,
      "chip": "ym2612"
    },
    {
      "channel": 2,
      "note": 60,
      "start": 28.9127,
      "duration": 0.032,
      "velocity": 88,
      "chip": "ym2612"
    },
    {
      "channel": 0,
      "note": 106,
      "start": 28.9286,
      "duration": 0.016,
      "velocity": 1,
      "chip": "ym2612"
    },
    {
      "channel": 0,
      "note": 101,
      "start": 28.9624,
      "duration": 0.0116,
      "velocity": 1,
      "chip": "ym2612"
    },
    {
      "channel": 2,
      "note": 60,
      "start": 28.9783,
      "duration": 0.0268,
      "velocity": 88,
      "chip": "ym2612"
    },
    {
      "channel": 0,
      "note": 98,
      "start": 28.9861,
      "duration": 0.0188,
      "velocity": 1,
      "chip": "ym2612"
    },
    {
      "channel": 0,
      "note": 94,
      "start": 29.0149,
      "duration": 0.0145,
      "velocity": 1,
      "chip": "ym2612"
    },
    {
      "channel": 2,
      "note": 60,
      "start": 29.0328,
      "duration": 0.0292,
      "velocity": 88,
      "chip": "ym2612"
    },
    {
      "channel": 0,
      "note": 89,
      "start": 29.0389,
      "duration": 0.0228,
      "velocity": 1,
      "chip": "ym2612"
    },
    {
      "channel": 0,
      "note": 84,
      "start": 29.0811,
      "duration": 0.0306,
      "velocity": 1,
      "chip": "ym2612"
    },
    {
      "channel": 2,
      "note": 60,
      "start": 29.1154,
      "duration": 0.0632,
      "velocity": 88,
      "chip": "ym2612"
    },
    {
      "channel": 0,
      "note": 82,
      "start": 29.131,
      "duration": 0.0473,
      "velocity": 1,
      "chip": "ym2612"
    },
    {
      "channel": 0,
      "note": 79,
      "start": 29.1978,
      "duration": 0.0305,
      "velocity": 1,
      "chip": "ym2612"
    },
    {
      "channel": 2,
      "note": 60,
      "start": 29.2321,
      "duration": 0.0484,
      "velocity": 88,
      "chip": "ym2612"
    },
    {
      "channel": 0,
      "note": 77,
      "start": 29.2644,
      "duration": 0.0159,
      "velocity": 1,
      "chip": "ym2612"
    },
    {
      "channel": 0,
      "note": 106,
      "start": 29.291,
      "duration": 0.0186,
      "velocity": 1,
      "chip": "ym2612"
    },
    {
      "channel": 2,
      "note": 60,
      "start": 29.3139,
      "duration": 0.0199,
      "velocity": 88,
      "chip": "ym2612"
    },
    {
      "channel": 0,
      "note": 103,
      "start": 29.3217,
      "duration": 0.0118,
      "velocity": 1,
      "chip": "ym2612"
    },
    {
      "channel": 0,
      "note": 101,
      "start": 29.3449,
      "duration": 0.0206,
      "velocity": 1,
      "chip": "ym2612"
    },
    {
      "channel": 2,
      "note": 60,
      "start": 29.3688,
      "duration": 0.02,
      "velocity": 88,
      "chip": "ym2612"
    },
    {
      "channel": 0,
      "note": 98,
      "start": 29.3751,
      "duration": 0.0135,
      "velocity": 1,
      "chip": "ym2612"
    },
    {
      "channel": 0,
      "note": 94,
      "start": 29.4064,
      "duration": 0.0127,
      "velocity": 1,
      "chip": "ym2612"
    },
    {
      "channel": 2,
      "note": 60,
      "start": 29.4225,
      "duration": 0.0387,
      "velocity": 88,
      "chip": "ym2612"
    },
    {
      "channel": 0,
      "note": 89,
      "start": 29.4297,
      "duration": 0.0312,
      "velocity": 1,
      "chip": "ym2612"
    },
    {
      "channel": 0,
      "note": 84,
      "start": 29.4803,
      "duration": 0.0306,
      "velocity": 1,
      "chip": "ym2612"
    },
    {
      "channel": 2,
      "note": 60,
      "start": 29.5146,
      "duration": 0.0402,
      "velocity": 88,
      "chip": "ym2612"
    },
    {
      "channel": 0,
      "note": 77,
      "start": 29.5302,
      "duration": 0.0243,
      "velocity": 1,
      "chip": "ym2612"
    },
    {
      "channel": 0,
      "note": 84,
      "start": 29.5655,
      "duration": 0.0116,
      "velocity": 1,
      "chip": "ym2612"
    },
    {
      "channel": 2,
      "note": 60,
      "start": 29.5804,
      "duration": 0.0278,
      "velocity": 88,
      "chip": "ym2612"
    },
    {
      "channel": 0,
      "note": 89,
      "start": 29.5957,
      "duration": 0.0123,
      "velocity": 1,
      "chip": "ym2612"
    },
    {
      "channel": 0,
      "note": 106,
      "start": 29.618,
      "duration": 0.0201,
      "velocity": 1,
      "chip": "ym2612"
    },
    {
      "channel": 2,
      "note": 60,
      "start": 29.6416,
      "duration": 0.0212,
      "velocity": 88,
      "chip": "ym2612"
    },
    {
      "channel": 0,
      "note": 103,
      "start": 29.6488,
      "duration": 0.0137,
      "velocity": 1,
      "chip": "ym2612"
    },
    {
      "channel": 0,
      "note": 101,
      "start": 29.682,
      "duration": 0.0472,
      "velocity": 1,
      "chip": "ym2612"
    },
    {
      "channel": 2,
      "note": 60,
      "start": 29.7328,
      "duration": 0.0466,
      "velocity": 88,
      "chip": "ym2612"
    },
    {
      "channel": 0,
      "note": 98,
      "start": 29.7485,
      "duration": 0.0306,
      "velocity": 1,
      "chip": "ym2612"
    },
    {
      "channel": 0,
      "note": 94,
      "start": 29.7986,
      "duration": 0.0473,
      "velocity": 1,
      "chip": "ym2612"
    },
    {
      "channel": 2,
      "note": 60,
      "start": 29.8495,
      "duration": 0.0318,
      "velocity": 88,
      "chip": "ym2612"
    },
    {
      "channel": 0,
      "note": 106,
      "start": 29.8652,
      "duration": 0.0159,
      "velocity": 1,
      "chip": "ym2612"
    },
    {
      "channel": 0,
      "note": 103,
      "start": 29.8993,
      "duration": 0.0114,
      "velocity": 1,
      "chip": "ym2612"
    },
    {
      "channel": 2,
      "note": 60,
      "start": 29.9152,
      "duration": 0.0281,
      "velocity": 88,
      "chip": "ym2612"
    },
    {
      "channel": 0,
      "note": 101,
      "start": 29.9228,
      "duration": 0.0204,
      "velocity": 1,
      "chip": "ym2612"
    },
    {
      "channel": 0,
      "note": 98,
      "start": 29.9517,
      "duration": 0.0141,
      "velocity": 1,
      "chip": "ym2612"
    },
    {
      "channel": 2,
      "note": 60,
      "start": 29.9688,
      "duration": 0.0261,
      "velocity": 88,
      "chip": "ym2612"
    },
    {
      "channel": 0,
      "note": 94,
      "start": 29.9748,
      "duration": 0.0198,
      "velocity": 1,
      "chip": "ym2612"
    },
    {
      "channel": 0,
      "note": 89,
      "start": 30.005,
      "duration": 0.0127,
      "velocity": 1,
      "chip": "ym2612"
    },
    {
      "channel": 2,
      "note": 60,
      "start": 30.0211,
      "duration": 0.0381,
      "velocity": 88,
      "chip": "ym2612"
    },
    {
      "channel": 0,
      "note": 84,
      "start": 30.0364,
      "duration": 0.0224,
      "velocity": 1,
      "chip": "ym2612"
    },
    {
      "channel": 0,
      "note": 77,
      "start": 30.0783,
      "duration": 0.0473,
      "velocity": 1,
      "chip": "ym2612"
    },
    {
      "channel": 1,
      "note": 79,
      "start": 30.1288,
      "duration": 0.1491,
      "velocity": 122,
      "chip": "ym2612"
    },
    {
      "channel": 2,
      "note": 60,
      "start": 30.1319,
      "duration": 0.0291,
      "velocity": 88,
      "chip": "ym2612"
    },
    {
      "channel": 0,
      "note": 106,
      "start": 30.1449,
      "duration": 0.0159,
      "velocity": 1,
      "chip": "ym2612"
    },
    {
      "channel": 0,
      "note": 101,
      "start": 30.1702,
      "duration": 0.0202,
      "velocity": 1,
      "chip": "ym2612"
    },
    {
      "channel": 2,
      "note": 60,
      "start": 30.1949,
      "duration": 0.02,
      "velocity": 88,
      "chip": "ym2612"
    },
    {
      "channel": 0,
      "note": 98,
      "start": 30.2024,
      "duration": 0.0122,
      "velocity": 1,
      "chip": "ym2612"
    },
    {
      "channel": 0,
      "note": 89,
      "start": 30.2315,
      "duration": 0.0141,
      "velocity": 1,
      "chip": "ym2612"
    },
    {
      "channel": 2,
      "note": 72,
      "start": 30.249,
      "duration": 0.0292,
      "velocity": 88,
      "chip": "ym2612"
    },
    {
      "channel": 0,
      "note": 84,
      "start": 30.2551,
      "duration": 0.0227,
      "velocity": 1,
      "chip": "ym2612"
    },
    {
      "channel": 0,
      "note": 82,
      "start": 30.2972,
      "duration": 0.0306,
      "velocity": 1,
      "chip": "ym2612"
    },
    {
      "channel": 2,
      "note": 72,
      "start": 30.3314,
      "duration": 0.0634,
      "velocity": 88,
      "chip": "ym2612"
    },
    {
      "channel": 0,
      "note": 79,
      "start": 30.3473,
      "duration": 0.0472,
      "velocity": 1,
      "chip": "ym2612"
    },
    {
      "channel": 1,
      "note": 82,
      "start": 30.3813,
      "duration": 0.2606,
      "velocity": 122,
      "chip": "ym2612"
    },
    {
      "channel": 0,
      "note": 77,
      "start": 30.4139,
      "duration": 0.0306,
      "velocity": 1,
      "chip": "ym2612"
    },
    {
      "channel": 2,
      "note": 60,
      "start": 30.4482,
      "duration": 0.0388,
      "velocity": 88,
      "chip": "ym2612"
    },
    {
      "channel": 0,
      "note": 106,
      "start": 30.4639,
      "duration": 0.023,
      "velocity": 1,
      "chip": "ym2612"
    },
    {
      "channel": 0,
      "note": 103,
      "start": 30.4984,
      "duration": 0.0114,
      "velocity": 1,
      "chip": "ym2612"
    },
    {
      "channel": 2,
      "note": 60,
      "start": 30.514,
      "duration": 0.0287,
      "velocity": 88,
      "chip": "ym2612"
    },
    {
      "channel": 0,
      "note": 101,
      "start": 30.5281,
      "duration": 0.0144,
      "velocity": 1,
      "chip": "ym2612"
    },
    {
      "channel": 0,
      "note": 98,
      "start": 30.5511,
      "duration": 0.0198,
      "velocity": 1,
      "chip": "ym2612"
    },
    {
      "channel": 2,
      "note": 72,
      "start": 30.5743,
      "duration": 0.0205,
      "velocity": 88,
      "chip": "ym2612"
    },
    {
      "channel": 0,
      "note": 94,
      "start": 30.5821,
      "duration": 0.0125,
      "velocity": 1,
      "chip": "ym2612"
    },
    {
      "channel": 0,
      "note": 89,
      "start": 30.6049,
      "duration": 0.0197,
      "velocity": 1,
      "chip": "ym2612"
    },
    {
      "channel": 2,
      "note": 72,
      "start": 30.6288,
      "duration": 0.0301,
      "velocity": 88,
      "chip": "ym2612"
    },
    {
      "channel": 0,
      "note": 84,
      "start": 30.6361,
      "duration": 0.0224,
      "velocity": 1,
      "chip": "ym2612"
    },
    {
      "channel": 0,
      "note": 77,
      "start": 30.6947,
      "duration": 0.0306,
      "velocity": 1,
      "chip": "ym2612"
    },
    {
      "channel": 1,
      "note": 63,
      "start": 30.7286,
      "duration": 1.7385,
      "velocity": 122,
      "chip": "ym2612"
    },
    {
      "channel": 2,
      "note": 51,
      "start": 30.7317,
      "duration": 0.0384,
      "velocity": 88,
      "chip": "ym2612"
    },
    {
      "channel": 0,
      "note": 89,
      "start": 30.7464,
      "duration": 0.0235,
      "velocity": 1,
      "chip": "ym2612"
    },
    {
      "channel": 0,
      "note": 94,
      "start": 30.7798,
      "duration": 0.0131,
      "velocity": 1,
      "chip": "ym2612"
    },
    {
      "channel": 2,
      "note": 51,
      "start": 30.7964,
      "duration": 0.0284,
      "velocity": 88,
      "chip": "ym2612"
    },
    {
      "channel": 0,
      "note": 99,
      "start": 30.8039,
      "duration": 0.0206,
      "velocity": 1,
      "chip": "ym2612"
    },
    {
      "channel": 0,
      "note": 106,
      "start": 30.8355,
      "duration": 0.012,
      "velocity": 1,
      "chip": "ym2612"
    },
    {
      "channel": 4,
      "note": 75,
      "start": 30.8507,
      "duration": 1.6087,
      "velocity": 122,
      "chip": "ym2612"
    },
    {
      "channel": 2,
      "note": 51,
      "start": 30.8545,
      "duration": 0.0251,
      "velocity": 88,
      "chip": "ym2612"
    },
    {
      "channel": 0,
      "note": 111,
      "start": 30.8671,
      "duration": 0.0123,
      "velocity": 1,
      "chip": "ym2612"
    },
    {
      "channel": 0,
      "note": 108,
      "start": 30.8969,
      "duration": 0.0473,
      "velocity": 1,
      "chip": "ym2612"
    },
    {
      "channel": 2,
      "note": 51,
      "start": 30.9478,
      "duration": 0.0468,
      "velocity": 88,
      "chip": "ym2612"
    },
    {
      "channel": 0,
      "note": 106,
      "start": 30.9635,
      "duration": 0.0306,
      "velocity": 1,
      "chip": "ym2612"
    },
    {
      "channel": 0,
      "note": 103,
      "start": 31.0135,
      "duration": 0.0473,
      "velocity": 1,
      "chip": "ym2612"
    },
    {
      "channel": 2,
      "note": 51,
      "start": 31.0645,
      "duration": 0.0317,
      "velocity": 88,
      "chip": "ym2612"
    },
    {
      "channel": 0,
      "note": 99,
      "start": 31.0802,
      "duration": 0.0158,
      "velocity": 1,
      "chip": "ym2612"
    },
    {
      "channel": 0,
      "note": 94,
      "start": 31.1068,
      "duration": 0.0189,
      "velocity": 1,
      "chip": "ym2612"
    },
    {
      "channel": 2,
      "note": 51,
      "start": 31.1299,
      "duration": 0.0196,
      "velocity": 88,
      "chip": "ym2612"
    },
    {
      "channel": 0,
      "note": 89,
      "start": 31.1377,
      "duration": 0.0115,
      "velocity": 1,
      "chip": "ym2612"
    },
    {
      "channel": 0,
      "note": 87,
      "start": 31.1665,
      "duration": 0.0144,
      "velocity": 1,
      "chip": "ym2612"
    },
    {
      "channel": 2,
      "note": 51,
      "start": 31.1841,
      "duration": 0.0273,
      "velocity": 88,
      "chip": "ym2612"
    },
    {
      "channel": 0,
      "note": 84,
      "start": 31.1904,
      "duration": 0.0208,
      "velocity": 1,
      "chip": "ym2612"
    },
    {
      "channel": 0,
      "note": 82,
      "start": 31.2212,
      "duration": 0.0131,
      "velocity": 1,
      "chip": "ym2612"
    },
    {
      "channel": 2,
      "note": 51,
      "start": 31.2379,
      "duration": 0.039,
      "velocity": 88,
      "chip": "ym2612"
    },
    {
      "channel": 0,
      "note": 84,
      "start": 31.2455,
      "duration": 0.0311,
      "velocity": 1,
      "chip": "ym2612"
    },
    {
      "channel": 0,
      "note": 87,
      "start": 31.2959,
      "duration": 0.0307,
      "velocity": 1,
      "chip": "ym2612"
    },
    {
      "channel": 2,
      "note": 51,
      "start": 31.3302,
      "duration": 0.0483,
      "velocity": 88,
      "chip": "ym2612"
    },
    {
      "channel": 0,
      "note": 89,
      "start": 31.3626,
      "duration": 0.0158,
      "velocity": 1,
      "chip": "ym2612"
    },
    {
      "channel": 0,
      "note": 91,
      "start": 31.3878,
      "duration": 0.0203,
      "velocity": 1,
      "chip": "ym2612"
    },
    {
      "channel": 2,
      "note": 51,
      "start": 31.4126,
      "duration": 0.02,
      "velocity": 88,
      "chip": "ym2612"
    },
    {
      "channel": 0,
      "note": 94,
      "start": 31.4202,
      "duration": 0.0122,
      "velocity": 1,
      "chip": "ym2612"
    },
    {
      "channel": 0,
      "note": 99,
      "start": 31.4431,
      "duration": 0.0204,
      "velocity": 1,
      "chip": "ym2612"
    },
    {
      "channel": 2,
      "note": 51,
      "start": 31.4671,
      "duration": 0.0198,
      "velocity": 88,
      "chip": "ym2612"
    },
    {
      "channel": 0,
      "note": 103,
      "start": 31.4732,
      "duration": 0.0135,
      "velocity": 1,
      "chip": "ym2612"
    },
    {
      "channel": 0,
      "note": 106,
      "start": 31.5155,
      "duration": 0.0307,
      "velocity": 1,
      "chip": "ym2612"
    },
    {
      "channel": 2,
      "note": 51,
      "start": 31.5498,
      "duration": 0.0633,
      "velocity": 88,
      "chip": "ym2612"
    },
    {
      "channel": 0,
      "note": 108,
      "start": 31.5655,
      "duration": 0.0472,
      "velocity": 1,
      "chip": "ym2612"
    },
    {
      "channel": 0,
      "note": 111,
      "start": 31.6321,
      "duration": 0.0306,
      "velocity": 1,
      "chip": "ym2612"
    },
    {
      "channel": 2,
      "note": 51,
      "start": 31.6663,
      "duration": 0.0395,
      "velocity": 88,
      "chip": "ym2612"
    },
    {
      "channel": 0,
      "note": 108,
      "start": 31.6822,
      "duration": 0.0234,
      "velocity": 1,
      "chip": "ym2612"
    },
    {
      "channel": 0,
      "note": 106,
      "start": 31.717,
      "duration": 0.0115,
      "velocity": 1,
      "chip": "ym2612"
    },
    {
      "channel": 2,
      "note": 51,
      "start": 31.7329,
      "duration": 0.0268,
      "velocity": 88,
      "chip": "ym2612"
    },
    {
      "channel": 0,
      "note": 103,
      "start": 31.7468,
      "duration": 0.0127,
      "velocity": 1,
      "chip": "ym2612"
    },
    {
      "channel": 0,
      "note": 99,
      "start": 31.7693,
      "duration": 0.0143,
      "velocity": 1,
      "chip": "ym2612"
    },
    {
      "channel": 2,
      "note": 63,
      "start": 31.7867,
      "duration": 0.0263,
      "velocity": 88,
      "chip": "ym2612"
    },
    {
      "channel": 0,
      "note": 94,
      "start": 31.8002,
      "duration": 0.0125,
      "velocity": 1,
      "chip": "ym2612"
    },
    {
      "channel": 0,
      "note": 89,
      "start": 31.8229,
      "duration": 0.0201,
      "velocity": 1,
      "chip": "ym2612"
    },
    {
      "channel": 2,
      "note": 63,
      "start": 31.847,
      "duration": 0.0301,
      "velocity": 88,
      "chip": "ym2612"
    },
    {
      "channel": 0,
      "note": 87,
      "start": 31.8544,
      "duration": 0.0224,
      "velocity": 1,
      "chip": "ym2612"
    },
    {
      "channel": 0,
      "note": 84,
      "start": 31.8961,
      "duration": 0.0473,
      "velocity": 1,
      "chip": "ym2612"
    },
    {
      "channel": 2,
      "note": 51,
      "start": 31.947,
      "duration": 0.0337,
      "velocity": 88,
      "chip": "ym2612"
    },
    {
      "channel": 0,
      "note": 82,
      "start": 31.9629,
      "duration": 0.0177,
      "velocity": 1,
      "chip": "ym2612"
    },
    {
      "channel": 0,
      "note": 89,
      "start": 31.9979,
      "duration": 0.0117,
      "velocity": 1,
      "chip": "ym2612"
    },
    {
      "channel": 2,
      "note": 51,
      "start": 32.0129,
      "duration": 0.0275,
      "velocity": 88,
      "chip": "ym2612"
    },
    {
      "channel": 0,
      "note": 94,
      "start": 32.0215,
      "duration": 0.0187,
      "velocity": 1,
      "chip": "ym2612"
    },
    {
      "channel": 0,
      "note": 111,
      "start": 32.0505,
      "duration": 0.0129,
      "velocity": 1,
      "chip": "ym2612"
    },
    {
      "channel": 2,
      "note": 51,
      "start": 32.0678,
      "duration": 0.0277,
      "velocity": 88,
      "chip": "ym2612"
    },
    {
      "channel": 0,
      "note": 108,
      "start": 32.075,
      "duration": 0.0201,
      "velocity": 1,
      "chip": "ym2612"
    },
    {
      "channel": 0,
      "note": 106,
      "start": 32.1145,
      "duration": 0.0306,
      "velocity": 1,
      "chip": "ym2612"
    },
    {
      "channel": 2,
      "note": 51,
      "start": 32.1488,
      "duration": 0.0633,
      "velocity": 88,
      "chip": "ym2612"
    },
    {
      "channel": 0,
      "note": 103,
      "start": 32.1812,
      "duration": 0.0305,
      "velocity": 1,
      "chip": "ym2612"
    },
    {
      "channel": 0,
      "note": 99,
      "start": 32.2312,
      "duration": 0.0472,
      "velocity": 1,
      "chip": "ym2612"
    },
    {
      "channel": 2,
      "note": 51,
      "start": 32.2821,
      "duration": 0.0321,
      "velocity": 88,
      "chip": "ym2612"
    },
    {
      "channel": 0,
      "note": 111,
      "start": 32.298,
      "duration": 0.0161,
      "velocity": 1,
      "chip": "ym2612"
    },
    {
      "channel": 0,
      "note": 108,
      "start": 32.3254,
      "duration": 0.0186,
      "velocity": 1,
      "chip": "ym2612"
    },
    {
      "channel": 2,
      "note": 51,
      "start": 32.3485,
      "duration": 0.0197,
      "velocity": 88,
      "chip": "ym2612"
    },
    {
      "channel": 0,
      "note": 106,
      "start": 32.356,
      "duration": 0.0118,
      "velocity": 1,
      "chip": "ym2612"
    },
    {
      "channel": 0,
      "note": 103,
      "start": 32.3848,
      "duration": 0.0144,
      "velocity": 1,
      "chip": "ym2612"
    },
    {
      "channel": 2,
      "note": 51,
      "start": 32.4023,
      "duration": 0.0187,
      "velocity": 88,
      "chip": "ym2612"
    },
    {
      "channel": 0,
      "note": 99,
      "start": 32.4084,
      "duration": 0.0123,
      "velocity": 1,
      "chip": "ym2612"
    },
    {
      "channel": 0,
      "note": 94,
      "start": 32.4381,
      "duration": 0.0129,
      "velocity": 1,
      "chip": "ym2612"
    },
    {
      "channel": 2,
      "note": 51,
      "start": 32.4543,
      "duration": 0.0377,
      "velocity": 88,
      "chip": "ym2612"
    },
    {
      "channel": 0,
      "note": 89,
      "start": 32.4617,
      "duration": 0.0301,
      "velocity": 1,
      "chip": "ym2612"
    },
    {
      "channel": 0,
      "note": 82,
      "start": 32.5111,
      "duration": 0.0306,
      "velocity": 1,
      "chip": "ym2612"
    },
    {
      "channel": 1,
      "note": 84,
      "start": 32.545,
      "duration": 0.1992,
      "velocity": 122,
      "chip": "ym2612"
    },
    {
      "channel": 2,
      "note": 51,
      "start": 32.548,
      "duration": 0.0364,
      "velocity": 88,
      "chip": "ym2612"
    },
    {
      "channel": 0,
      "note": 111,
      "start": 32.5611,
      "duration": 0.023,
      "velocity": 1,
      "chip": "ym2612"
    },
    {
      "channel": 0,
      "note": 106,
      "start": 32.5954,
      "duration": 0.0116,
      "velocity": 1,
      "chip": "ym2612"
    },
    {
      "channel": 2,
      "note": 51,
      "start": 32.6113,
      "duration": 0.0268,
      "velocity": 88,
      "chip": "ym2612"
    },
    {
      "channel": 0,
      "note": 103,
      "start": 32.6252,
      "duration": 0.0127,
      "velocity": 1,
      "chip": "ym2612"
    },
    {
      "channel": 0,
      "note": 94,
      "start": 32.6479,
      "duration": 0.0202,
      "velocity": 1,
      "chip": "ym2612"
    },
    {
      "channel": 2,
      "note": 63,
      "start": 32.6717,
      "duration": 0.0227,
      "velocity": 88,
      "chip": "ym2612"
    },
    {
      "channel": 0,
      "note": 89,
      "start": 32.6788,
      "duration": 0.0153,
      "velocity": 1,
      "chip": "ym2612"
    },
    {
      "channel": 0,
      "note": 87,
      "start": 32.7136,
      "duration": 0.0472,
      "velocity": 1,
      "chip": "ym2612"
    },
    {
      "channel": 2,
      "note": 63,
      "start": 32.7644,
      "duration": 0.0467,
      "velocity": 88,
      "chip": "ym2612"
    },
    {
      "channel": 0,
      "note": 84,
      "start": 32.7802,
      "duration": 0.0306,
      "velocity": 1,
      "chip": "ym2612"
    },
    {
      "channel": 1,
      "note": 82,
      "start": 32.7977,
      "duration": 0.444,
      "velocity": 122,
      "chip": "ym2612"
    },
    {
      "channel": 0,
      "note": 82,
      "start": 32.847,
      "duration": 0.0306,
      "velocity": 1,
      "chip": "ym2612"
    },
    {
      "channel": 2,
      "note": 58,
      "start": 32.8812,
      "duration": 0.0395,
      "velocity": 88,
      "chip": "ym2612"
    },
    {
      "channel": 0,
      "note": 111,
      "start": 32.8968,
      "duration": 0.0237,
      "velocity": 1,
      "chip": "ym2612"
    },
    {
      "channel": 0,
      "note": 108,
      "start": 32.9319,
      "duration": 0.0114,
      "velocity": 1,
      "chip": "ym2612"
    },
    {
      "channel": 2,
      "note": 58,
      "start": 32.9468,
      "duration": 0.0276,
      "velocity": 88,
      "chip": "ym2612"
    },
    {
      "channel": 0,
      "note": 106,
      "start": 32.9556,
      "duration": 0.0186,
      "velocity": 1,
      "chip": "ym2612"
    },
    {
      "channel": 0,
      "note": 103,
      "start": 32.9842,
      "duration": 0.0127,
      "velocity": 1,
      "chip": "ym2612"
    },
    {
      "channel": 2,
      "note": 63,
      "start": 33.0013,
      "duration": 0.0267,
      "velocity": 88,
      "chip": "ym2612"
    },
    {
      "channel": 0,
      "note": 99,
      "start": 33.0148,
      "duration": 0.013,
      "velocity": 1,
      "chip": "ym2612"
    },
    {
      "channel": 0,
      "note": 94,
      "start": 33.0375,
      "duration": 0.02,
      "velocity": 1,
      "chip": "ym2612"
    },
    {
      "channel": 2,
      "note": 63,
      "start": 33.0606,
      "duration": 0.0307,
      "velocity": 88,
      "chip": "ym2612"
    },
    {
      "channel": 0,
      "note": 89,
      "start": 33.069,
      "duration": 0.022,
      "velocity": 1,
      "chip": "ym2612"
    },
    {
      "channel": 0,
      "note": 82,
      "start": 33.1105,
      "duration": 0.0472,
      "velocity": 1,
      "chip": "ym2612"
    },
    {
      "channel": 4,
      "note": 65,
      "start": 33.1613,
      "duration": 1.7291,
      "velocity": 122,
      "chip": "ym2612"
    },
    {
      "channel": 2,
      "note": 53,
      "start": 33.1643,
      "duration": 0.0322,
      "velocity": 88,
      "chip": "ym2612"
    },
    {
      "channel": 0,
      "note": 84,
      "start": 33.1771,
      "duration": 0.019,
      "velocity": 1,
      "chip": "ym2612"
    },
    {
      "channel": 0,
      "note": 89,
      "start": 33.2051,
      "duration": 0.0202,
      "velocity": 1,
      "chip": "ym2612"
    },
    {
      "channel": 2,
      "note": 53,
      "start": 33.2286,
      "duration": 0.0209,
      "velocity": 88,
      "chip": "ym2612"
    },
    {
      "channel": 0,
      "note": 94,
      "start": 33.2362,
      "duration": 0.013,
      "velocity": 1,
      "chip": "ym2612"
    },
    {
      "channel": 0,
      "note": 111,
      "start": 33.2671,
      "duration": 0.0123,
      "velocity": 1,
      "chip": "ym2612"
    },
    {
      "channel": 1,
      "note": 77,
      "start": 33.2839,
      "duration": 1.5968,
      "velocity": 122,
      "chip": "ym2612"
    },
    {
      "channel": 2,
      "note": 53,
      "start": 33.2867,
      "duration": 0.0263,
      "velocity": 88,
      "chip": "ym2612"
    },
    {
      "channel": 0,
      "note": 108,
      "start": 33.2925,
      "duration": 0.0199,
      "velocity": 1,
      "chip": "ym2612"
    },
    {
      "channel": 0,
      "note": 106,
      "start": 33.3305,
      "duration": 0.0306,
      "velocity": 1,
      "chip": "ym2612"
    },
    {
      "channel": 2,
      "note": 53,
      "start": 33.3647,
      "duration": 0.0634,
      "velocity": 88,
      "chip": "ym2612"
    },
    {
      "channel": 0,
      "note": 103,
      "start": 33.3805,
      "duration": 0.0473,
      "velocity": 1,
      "chip": "ym2612"
    },
    {
      "channel": 0,
      "note": 99,
      "start": 33.4471,
      "duration": 0.0306,
      "velocity": 1,
      "chip": "ym2612"
    },
    {
      "channel": 2,
      "note": 53,
      "start": 33.4814,
      "duration": 0.0484,
      "velocity": 88,
      "chip": "ym2612"
    },
    {
      "channel": 0,
      "note": 111,
      "start": 33.5138,
      "duration": 0.0158,
      "velocity": 1,
      "chip": "ym2612"
    },
    {
      "channel": 0,
      "note": 108,
      "start": 33.5404,
      "duration": 0.0185,
      "velocity": 1,
      "chip": "ym2612"
    },
    {
      "channel": 2,
      "note": 53,
      "start": 33.5632,
      "duration": 0.0196,
      "velocity": 88,
      "chip": "ym2612"
    },
    {
      "channel": 0,
      "note": 106,
      "start": 33.571,
      "duration": 0.0115,
      "velocity": 1,
      "chip": "ym2612"
    },
    {
      "channel": 0,
      "note": 103,
      "start": 33.5939,
      "duration": 0.0206,
      "velocity": 1,
      "chip": "ym2612"
    },
    {
      "channel": 2,
      "note": 53,
      "start": 33.6176,
      "duration": 0.0185,
      "velocity": 88,
      "chip": "ym2612"
    },
    {
      "channel": 0,
      "note": 99,
      "start": 33.6237,
      "duration": 0.0123,
      "velocity": 1,
      "chip": "ym2612"
    },
    {
      "channel": 0,
      "note": 94,
      "start": 33.654,
      "duration": 0.0127,
      "velocity": 1,
      "chip": "ym2612"
    },
    {
      "channel": 2,
      "note": 53,
      "start": 33.6701,
      "duration": 0.0388,
      "velocity": 88,
      "chip": "ym2612"
    },
    {
      "channel": 0,
      "note": 89,
      "start": 33.6775,
      "duration": 0.0311,
      "velocity": 1,
      "chip": "ym2612"
    },
    {
      "channel": 0,
      "note": 82,
      "start": 33.7281,
      "duration": 0.0306,
      "velocity": 1,
      "chip": "ym2612"
    },
    {
      "channel": 2,
      "note": 53,
      "start": 33.7623,
      "duration": 0.039,
      "velocity": 88,
      "chip": "ym2612"
    },
    {
      "channel": 0,
      "note": 111,
      "start": 33.778,
      "duration": 0.0231,
      "velocity": 1,
      "chip": "ym2612"
    },
    {
      "channel": 0,
      "note": 106,
      "start": 33.8124,
      "duration": 0.0115,
      "velocity": 1,
      "chip": "ym2612"
    },
    {
      "channel": 2,
      "note": 53,
      "start": 33.8282,
      "duration": 0.027,
      "velocity": 88,
      "chip": "ym2612"
    },
    {
      "channel": 0,
      "note": 103,
      "start": 33.836,
      "duration": 0.019,
      "velocity": 1,
      "chip": "ym2612"
    },
    {
      "channel": 0,
      "note": 99,
      "start": 33.8649,
      "duration": 0.0145,
      "velocity": 1,
      "chip": "ym2612"
    },
    {
      "channel": 2,
      "note": 53,
      "start": 33.8829,
      "duration": 0.0289,
      "velocity": 88,
      "chip": "ym2612"
    },
    {
      "channel": 0,
      "note": 94,
      "start": 33.8962,
      "duration": 0.0154,
      "velocity": 1,
      "chip": "ym2612"
    },
    {
      "channel": 0,
      "note": 89,
      "start": 33.931,
      "duration": 0.0473,
      "velocity": 1,
      "chip": "ym2612"
    },
    {
      "channel": 2,
      "note": 53,
      "start": 33.982,
      "duration": 0.0466,
      "velocity": 88,
      "chip": "ym2612"
    },
    {
      "channel": 0,
      "note": 87,
      "start": 33.9977,
      "duration": 0.0306,
      "velocity": 1,
      "chip": "ym2612"
    },
    {
      "channel": 0,
      "note": 84,
      "start": 34.0476,
      "duration": 0.0473,
      "velocity": 1,
      "chip": "ym2612"
    },
    {
      "channel": 2,
      "note": 53,
      "start": 34.0985,
      "duration": 0.0317,
      "velocity": 88,
      "chip": "ym2612"
    },
    {
      "channel": 0,
      "note": 82,
      "start": 34.1143,
      "duration": 0.0158,
      "velocity": 1,
      "chip": "ym2612"
    },
    {
      "channel": 0,
      "note": 111,
      "start": 34.1483,
      "duration": 0.0113,
      "velocity": 1,
      "chip": "ym2612"
    },
    {
      "channel": 2,
      "note": 53,
      "start": 34.1639,
      "duration": 0.0274,
      "velocity": 88,
      "chip": "ym2612"
    },
    {
      "channel": 0,
      "note": 108,
      "start": 34.1715,
      "duration": 0.0196,
      "velocity": 1,
      "chip": "ym2612"
    },
    {
      "channel": 0,
      "note": 106,
      "start": 34.1997,
      "duration": 0.0141,
      "velocity": 1,
      "chip": "ym2612"
    },
    {
      "channel": 2,
      "note": 53,
      "start": 34.2169,
      "duration": 0.026,
      "velocity": 88,
      "chip": "ym2612"
    },
    {
      "channel": 0,
      "note": 103,
      "start": 34.2229,
      "duration": 0.0198,
      "velocity": 1,
      "chip": "ym2612"
    },
    {
      "channel": 0,
      "note": 99,
      "start": 34.2531,
      "duration": 0.0127,
      "velocity": 1,
      "chip": "ym2612"
    },
    {
      "channel": 2,
      "note": 53,
      "start": 34.2692,
      "duration": 0.0382,
      "velocity": 88,
      "chip": "ym2612"
    },
    {
      "channel": 0,
      "note": 94,
      "start": 34.2845,
      "duration": 0.0225,
      "velocity": 1,
      "chip": "ym2612"
    },
    {
      "channel": 0,
      "note": 89,
      "start": 34.3264,
      "duration": 0.0472,
      "velocity": 1,
      "chip": "ym2612"
    },
    {
      "channel": 2,
      "note": 53,
      "start": 34.3772,
      "duration": 0.0336,
      "velocity": 88,
      "chip": "ym2612"
    },
    {
      "channel": 0,
      "note": 82,
      "start": 34.3932,
      "duration": 0.0175,
      "velocity": 1,
      "chip": "ym2612"
    },
    {
      "channel": 0,
      "note": 89,
      "start": 34.4191,
      "duration": 0.02,
      "velocity": 1,
      "chip": "ym2612"
    },
    {
      "channel": 2,
      "note": 53,
      "start": 34.4427,
      "duration": 0.0206,
      "velocity": 88,
      "chip": "ym2612"
    },
    {
      "channel": 0,
      "note": 94,
      "start": 34.4515,
      "duration": 0.0116,
      "velocity": 1,
      "chip": "ym2612"
    },
    {
      "channel": 0,
      "note": 111,
      "start": 34.4744,
      "duration": 0.0186,
      "velocity": 1,
      "chip": "ym2612"
    },
    {
      "channel": 2,
      "note": 53,
      "start": 34.4974,
      "duration": 0.0196,
      "velocity": 88,
      "chip": "ym2612"
    },
    {
      "channel": 0,
      "note": 108,
      "start": 34.5046,
      "duration": 0.0121,
      "velocity": 1,
      "chip": "ym2612"
    },
    {
      "channel": 0,
      "note": 106,
      "start": 34.5441,
      "duration": 0.0306,
      "velocity": 1,
      "chip": "ym2612"
    },
    {
      "channel": 2,
      "note": 53,
      "start": 34.5784,
      "duration": 0.0633,
      "velocity": 88,
      "chip": "ym2612"
    },
    {
      "channel": 0,
      "note": 103,
      "start": 34.5942,
      "duration": 0.0471,
      "velocity": 1,
      "chip": "ym2612"
    },
    {
      "channel": 0,
      "note": 99,
      "start": 34.6608,
      "duration": 0.0306,
      "velocity": 1,
      "chip": "ym2612"
    },
    {
      "channel": 2,
      "note": 53,
      "start": 34.6951,
      "duration": 0.039,
      "velocity": 88,
      "chip": "ym2612"
    },
    {
      "channel": 0,
      "note": 111,
      "start": 34.7108,
      "duration": 0.023,
      "velocity": 1,
      "chip": "ym2612"
    },
    {
      "channel": 0,
      "note": 108,
      "start": 34.7454,
      "duration": 0.0113,
      "velocity": 1,
      "chip": "ym2612"
    },
    {
      "channel": 2,
      "note": 53,
      "start": 34.761,
      "duration": 0.0286,
      "velocity": 88,
      "chip": "ym2612"
    },
    {
      "channel": 0,
      "note": 106,
      "start": 34.775,
      "duration": 0.0144,
      "velocity": 1,
      "chip": "ym2612"
    },
    {
      "channel": 0,
      "note": 103,
      "start": 34.798,
      "duration": 0.02,
      "velocity": 1,
      "chip": "ym2612"
    },
    {
      "channel": 2,
      "note": 53,
      "start": 34.8214,
      "duration": 0.021,
      "velocity": 88,
      "chip": "ym2612"
    },
    {
      "channel": 0,
      "note": 99,
      "start": 34.8287,
      "duration": 0.0134,
      "velocity": 1,
      "chip": "ym2612"
    },
    {
      "channel": 0,
      "note": 94,
      "start": 34.8522,
      "duration": 0.0202,
      "velocity": 1,
      "chip": "ym2612"
    },
    {
      "channel": 2,
      "note": 53,
      "start": 34.8765,
      "duration": 0.0308,
      "velocity": 88,
      "chip": "ym2612"
    },
    {
      "channel": 0,
      "note": 89,
      "start": 34.8842,
      "duration": 0.0229,
      "velocity": 1,
      "chip": "ym2612"
    },
    {
      "channel": 0,
      "note": 82,
      "start": 34.943,
      "duration": 0.0307,
      "velocity": 1,
      "chip": "ym2612"
    },
    {
      "channel": 1,
      "note": 82,
      "start": 34.9769,
      "duration": 0.1823,
      "velocity": 122,
      "chip": "ym2612"
    },
    {
      "channel": 2,
      "note": 53,
      "start": 34.9799,
      "duration": 0.0363,
      "velocity": 88,
      "chip": "ym2612"
    },
    {
      "channel": 0,
      "note": 111,
      "start": 34.993,
      "duration": 0.023,
      "velocity": 1,
      "chip": "ym2612"
    },
    {
      "channel": 0,
      "note": 106,
      "start": 35.0275,
      "duration": 0.0114,
      "velocity": 1,
      "chip": "ym2612"
    },
    {
      "channel": 2,
      "note": 53,
      "start": 35.0433,
      "duration": 0.0285,
      "velocity": 88,
      "chip": "ym2612"
    },
    {
      "channel": 0,
      "note": 103,
      "start": 35.0509,
      "duration": 0.0207,
      "velocity": 1,
      "chip": "ym2612"
    },
    {
      "channel": 0,
      "note": 94,
      "start": 35.0801,
      "duration": 0.0141,
      "velocity": 1,
      "chip": "ym2612"
    },
    {
      "channel": 2,
      "note": 65,
      "start": 35.0978,
      "duration": 0.019,
      "velocity": 88,
      "chip": "ym2612"
    },
    {
      "channel": 0,
      "note": 89,
      "start": 35.1035,
      "duration": 0.0224,
      "velocity": 1,
      "chip": "ym2612"
    },
    {
      "channel": 0,
      "note": 87,
      "start": 35.1453,
      "duration": 0.0305,
      "velocity": 1,
      "chip": "ym2612"
    },
    {
      "channel": 2,
      "note": 65,
      "start": 35.1796,
      "duration": 0.0632,
      "velocity": 88,
      "chip": "ym2612"
    },
    {
      "channel": 0,
      "note": 84,
      "start": 35.2119,
      "duration": 0.0306,
      "velocity": 1,
      "chip": "ym2612"
    },
    {
      "channel": 1,
      "note": 84,
      "start": 35.2291,
      "duration": 0.2944,
      "velocity": 122,
      "chip": "ym2612"
    },
    {
      "channel": 0,
      "note": 82,
      "start": 35.262,
      "duration": 0.0472,
      "velocity": 1,
      "chip": "ym2612"
    },
    {
      "channel": 2,
      "note": 60,
      "start": 35.3128,
      "duration": 0.0322,
      "velocity": 88,
      "chip": "ym2612"
    },
    {
      "channel": 0,
      "note": 111,
      "start": 35.3287,
      "duration": 0.0162,
      "velocity": 1,
      "chip": "ym2612"
    },
    {
      "channel": 0,
      "note": 108,
      "start": 35.3548,
      "duration": 0.02,
      "velocity": 1,
      "chip": "ym2612"
    },
    {
      "channel": 2,
      "note": 60,
      "start": 35.3791,
      "duration": 0.0198,
      "velocity": 88,
      "chip": "ym2612"
    },
    {
      "channel": 0,
      "note": 106,
      "start": 35.3869,
      "duration": 0.0118,
      "velocity": 1,
      "chip": "ym2612"
    },
    {
      "channel": 0,
      "note": 103,
      "start": 35.4154,
      "duration": 0.0141,
      "velocity": 1,
      "chip": "ym2612"
    },
    {
      "channel": 2,
      "note": 53,
      "start": 35.4326,
      "duration": 0.0257,
      "velocity": 88,
      "chip": "ym2612"
    },
    {
      "channel": 0,
      "note": 99,
      "start": 35.4387,
      "duration": 0.0194,
      "velocity": 1,
      "chip": "ym2612"
    },
    {
      "channel": 0,
      "note": 94,
      "start": 35.4684,
      "duration": 0.013,
      "velocity": 1,
      "chip": "ym2612"
    },
    {
      "channel": 2,
      "note": 53,
      "start": 35.4849,
      "duration": 0.0388,
      "velocity": 88,
      "chip": "ym2612"
    },
    {
      "channel": 0,
      "note": 89,
      "start": 35.4925,
      "duration": 0.0308,
      "velocity": 1,
      "chip": "ym2612"
    },
    {
      "channel": 0,
      "note": 82,
      "start": 35.5428,
      "duration": 0.0305,
      "velocity": 1,
      "chip": "ym2612"
    },
    {
      "channel": 1,
      "note": 67,
      "start": 35.5771,
      "duration": 1.7327,
      "velocity": 122,
      "chip": "ym2612"
    },
    {
      "channel": 2,
      "note": 55,
      "start": 35.58,
      "duration": 0.0482,
      "velocity": 88,
      "chip": "ym2612"
    },
    {
      "channel": 0,
      "note": 82,
      "start": 35.6094,
      "duration": 0.0187,
      "velocity": 1,
      "chip": "ym2612"
    },
    {
      "channel": 0,
      "note": 89,
      "start": 35.6364,
      "duration": 0.0195,
      "velocity": 1,
      "chip": "ym2612"
    },
    {
      "channel": 2,
      "note": 55,
      "start": 35.6593,
      "duration": 0.0212,
      "velocity": 88,
      "chip": "ym2612"
    },
    {
      "channel": 0,
      "note": 94,
      "start": 35.667,
      "duration": 0.0134,
      "velocity": 1,
      "chip": "ym2612"
    },
    {
      "channel": 0,
      "note": 101,
      "start": 35.6899,
      "duration": 0.0202,
      "velocity": 1,
      "chip": "ym2612"
    },
    {
      "channel": 4,
      "note": 79,
      "start": 35.7145,
      "duration": 1.5797,
      "velocity": 122,
      "chip": "ym2612"
    },
    {
      "channel": 2,
      "note": 55,
      "start": 35.7171,
      "duration": 0.0183,
      "velocity": 88,
      "chip": "ym2612"
    },
    {
      "channel": 0,
      "note": 106,
      "start": 35.7229,
      "duration": 0.0123,
      "velocity": 1,
      "chip": "ym2612"
    },
    {
      "channel": 0,
      "note": 103,
      "start": 35.7593,
      "duration": 0.0305,
      "velocity": 1,
      "chip": "ym2612"
    },
    {
      "channel": 2,
      "note": 55,
      "start": 35.7935,
      "duration": 0.0467,
      "velocity": 88,
      "chip": "ym2612"
    },
    {
      "channel": 0,
      "note": 101,
      "start": 35.8092,
      "duration": 0.0307,
      "velocity": 1,
      "chip": "ym2612"
    },
    {
      "channel": 0,
      "note": 98,
      "start": 35.876,
      "duration": 0.0306,
      "velocity": 1,
      "chip": "ym2612"
    },
    {
      "channel": 2,
      "note": 55,
      "start": 35.9102,
      "duration": 0.0389,
      "velocity": 88,
      "chip": "ym2612"
    },
    {
      "channel": 0,
      "note": 94,
      "start": 35.9259,
      "duration": 0.023,
      "velocity": 1,
      "chip": "ym2612"
    },
    {
      "channel": 0,
      "note": 89,
      "start": 35.9605,
      "duration": 0.0114,
      "velocity": 1,
      "chip": "ym2612"
    },
    {
      "channel": 2,
      "note": 55,
      "start": 35.9762,
      "duration": 0.0284,
      "velocity": 88,
      "chip": "ym2612"
    },
    {
      "channel": 0,
      "note": 84,
      "start": 35.9838,
      "duration": 0.0206,
      "velocity": 1,
      "chip": "ym2612"
    },
    {
      "channel": 0,
      "note": 82,
      "start": 36.0129,
      "duration": 0.0141,
      "velocity": 1,
      "chip": "ym2612"
    },
    {
      "channel": 2,
      "note": 55,
      "start": 36.0301,
      "duration": 0.0263,
      "velocity": 88,
      "chip": "ym2612"
    },
    {
      "channel": 0,
      "note": 79,
      "start": 36.0437,
      "duration": 0.0125,
      "velocity": 1,
      "chip": "ym2612"
    },
    {
      "channel": 0,
      "note": 77,
      "start": 36.0666,
      "duration": 0.02,
      "velocity": 1,
      "chip": "ym2612"
    },
    {
      "channel": 2,
      "note": 55,
      "start": 36.0906,
      "duration": 0.0302,
      "velocity": 88,
      "chip": "ym2612"
    },
    {
      "channel": 0,
      "note": 79,
      "start": 36.098,
      "duration": 0.0225,
      "velocity": 1,
      "chip": "ym2612"
    },
    {
      "channel": 0,
      "note": 82,
      "start": 36.1399,
      "duration": 0.0472,
      "velocity": 1,
      "chip": "ym2612"
    },
    {
      "channel": 2,
      "note": 55,
      "start": 36.1911,
      "duration": 0.0314,
      "velocity": 88,
      "chip": "ym2612"
    },
    {
      "channel": 0,
      "note": 84,
      "start": 36.2065,
      "duration": 0.0158,
      "velocity": 1,
      "chip": "ym2612"
    },
    {
      "channel": 0,
      "note": 86,
      "start": 36.2402,
      "duration": 0.0116,
      "velocity": 1,
      "chip": "ym2612"
    },
    {
      "channel": 2,
      "note": 55,
      "start": 36.2561,
      "duration": 0.0264,
      "velocity": 88,
      "chip": "ym2612"
    },
    {
      "channel": 0,
      "note": 89,
      "start": 36.2639,
      "duration": 0.0184,
      "velocity": 1,
      "chip": "ym2612"
    },
    {
      "channel": 0,
      "note": 94,
      "start": 36.2921,
      "duration": 0.0144,
      "velocity": 1,
      "chip": "ym2612"
    },
    {
      "channel": 2,
      "note": 55,
      "start": 36.3097,
      "duration": 0.0293,
      "velocity": 88,
      "chip": "ym2612"
    },
    {
      "channel": 0,
      "note": 98,
      "start": 36.316,
      "duration": 0.0227,
      "velocity": 1,
      "chip": "ym2612"
    },
    {
      "channel": 0,
      "note": 101,
      "start": 36.3581,
      "duration": 0.0307,
      "velocity": 1,
      "chip": "ym2612"
    },
    {
      "channel": 2,
      "note": 55,
      "start": 36.3924,
      "duration": 0.0633,
      "velocity": 88,
      "chip": "ym2612"
    },
    {
      "channel": 0,
      "note": 103,
      "start": 36.4247,
      "duration": 0.0306,
      "velocity": 1,
      "chip": "ym2612"
    },
    {
      "channel": 0,
      "note": 106,
      "start": 36.4747,
      "duration": 0.0306,
      "velocity": 1,
      "chip": "ym2612"
    },
    {
      "channel": 2,
      "note": 55,
      "start": 36.5089,
      "duration": 0.0485,
      "velocity": 88,
      "chip": "ym2612"
    },
    {
      "channel": 0,
      "note": 103,
      "start": 36.5414,
      "duration": 0.0157,
      "velocity": 1,
      "chip": "ym2612"
    },
    {
      "channel": 0,
      "note": 101,
      "start": 36.568,
      "duration": 0.0186,
      "velocity": 1,
      "chip": "ym2612"
    },
    {
      "channel": 2,
      "note": 55,
      "start": 36.5908,
      "duration": 0.0199,
      "velocity": 88,
      "chip": "ym2612"
    },
    {
      "channel": 0,
      "note": 98,
      "start": 36.5987,
      "duration": 0.0118,
      "velocity": 1,
      "chip": "ym2612"
    },
    {
      "channel": 0,
      "note": 94,
      "start": 36.6219,
      "duration": 0.0206,
      "velocity": 1,
      "chip": "ym2612"
    },
    {
      "channel": 2,
      "note": 55,
      "start": 36.6455,
      "duration": 0.0186,
      "velocity": 88,
      "chip": "ym2612"
    },
    {
      "channel": 0,
      "note": 89,
      "start": 36.6516,
      "duration": 0.0124,
      "velocity": 1,
      "chip": "ym2612"
    },
    {
      "channel": 0,
      "note": 84,
      "start": 36.682,
      "duration": 0.0127,
      "velocity": 1,
      "chip": "ym2612"
    },
    {
      "channel": 2,
      "note": 55,
      "start": 36.6981,
      "duration": 0.0388,
      "velocity": 88,
      "chip": "ym2612"
    },
    {
      "channel": 0,
      "note": 82,
      "start": 36.7055,
      "duration": 0.0311,
      "velocity": 1,
      "chip": "ym2612"
    },
    {
      "channel": 0,
      "note": 79,
      "start": 36.7561,
      "duration": 0.0306,
      "velocity": 1,
      "chip": "ym2612"
    },
    {
      "channel": 2,
      "note": 55,
      "start": 36.7903,
      "duration": 0.0402,
      "velocity": 88,
      "chip": "ym2612"
    },
    {
      "channel": 0,
      "note": 77,
      "start": 36.806,
      "duration": 0.0243,
      "velocity": 1,
      "chip": "ym2612"
    },
    {
      "channel": 0,
      "note": 84,
      "start": 36.8412,
      "duration": 0.0117,
      "velocity": 1,
      "chip": "ym2612"
    },
    {
      "channel": 2,
      "note": 55,
      "start": 36.8562,
      "duration": 0.0277,
      "velocity": 88,
      "chip": "ym2612"
    },
    {
      "channel": 0,
      "note": 89,
      "start": 36.8715,
      "duration": 0.0122,
      "velocity": 1,
      "chip": "ym2612"
    },
    {
      "channel": 0,
      "note": 106,
      "start": 36.8941,
      "duration": 0.0201,
      "velocity": 1,
      "chip": "ym2612"
    },
    {
      "channel": 2,
      "note": 55,
      "start": 36.9177,
      "duration": 0.0216,
      "velocity": 88,
      "chip": "ym2612"
    },
    {
      "channel": 0,
      "note": 103,
      "start": 36.9253,
      "duration": 0.0136,
      "velocity": 1,
      "chip": "ym2612"
    },
    {
      "channel": 0,
      "note": 101,
      "start": 36.9583,
      "duration": 0.0472,
      "velocity": 1,
      "chip": "ym2612"
    },
    {
      "channel": 2,
      "note": 55,
      "start": 37.0091,
      "duration": 0.0468,
      "velocity": 88,
      "chip": "ym2612"
    },
    {
      "channel": 0,
      "note": 98,
      "start": 37.025,
      "duration": 0.0306,
      "velocity": 1,
      "chip": "ym2612"
    },
    {
      "channel": 0,
      "note": 94,
      "start": 37.0917,
      "duration": 0.0305,
      "velocity": 1,
      "chip": "ym2612"
    },
    {
      "channel": 2,
      "note": 55,
      "start": 37.1258,
      "duration": 0.0392,
      "velocity": 88,
      "chip": "ym2612"
    },
    {
      "channel": 0,
      "note": 106,
      "start": 37.1416,
      "duration": 0.0231,
      "velocity": 1,
      "chip": "ym2612"
    },
    {
      "channel": 0,
      "note": 103,
      "start": 37.1763,
      "duration": 0.0114,
      "velocity": 1,
      "chip": "ym2612"
    },
    {
      "channel": 2,
      "note": 55,
      "start": 37.192,
      "duration": 0.0275,
      "velocity": 88,
      "chip": "ym2612"
    },
    {
      "channel": 0,
      "note": 101,
      "start": 37.1996,
      "duration": 0.0198,
      "velocity": 1,
      "chip": "ym2612"
    },
    {
      "channel": 0,
      "note": 98,
      "start": 37.2279,
      "duration": 0.0141,
      "velocity": 1,
      "chip": "ym2612"
    },
    {
      "channel": 2,
      "note": 55,
      "start": 37.2451,
      "duration": 0.026,
      "velocity": 88,
      "chip": "ym2612"
    },
    {
      "channel": 0,
      "note": 94,
      "start": 37.2511,
      "duration": 0.0198,
      "velocity": 1,
      "chip": "ym2612"
    },
    {
      "channel": 0,
      "note": 89,
      "start": 37.2813,
      "duration": 0.0127,
      "velocity": 1,
      "chip": "ym2612"
    },
    {
      "channel": 2,
      "note": 55,
      "start": 37.2974,
      "duration": 0.0389,
      "velocity": 88,
      "chip": "ym2612"
    },
    {
      "channel": 0,
      "note": 84,
      "start": 37.3133,
      "duration": 0.0227,
      "velocity": 1,
      "chip": "ym2612"
    },
    {
      "channel": 0,
      "note": 77,
      "start": 37.3554,
      "duration": 0.0473,
      "velocity": 1,
      "chip": "ym2612"
    },
    {
      "channel": 1,
      "note": 82,
      "start": 37.4059,
      "duration": 0.1637,
      "velocity": 122,
      "chip": "ym2612"
    },
    {
      "channel": 2,
      "note": 55,
      "start": 37.4093,
      "duration": 0.0287,
      "velocity": 88,
      "chip": "ym2612"
    },
    {
      "channel": 0,
      "note": 106,
      "start": 37.4221,
      "duration": 0.0158,
      "velocity": 1,
      "chip": "ym2612"
    },
    {
      "channel": 0,
      "note": 101,
      "start": 37.4472,
      "duration": 0.0202,
      "velocity": 1,
      "chip": "ym2612"
    },
    {
      "channel": 2,
      "note": 55,
      "start": 37.472,
      "duration": 0.02,
      "velocity": 88,
      "chip": "ym2612"
    },
    {
      "channel": 0,
      "note": 98,
      "start": 37.4795,
      "duration": 0.0122,
      "velocity": 1,
      "chip": "ym2612"
    },
    {
      "channel": 0,
      "note": 89,
      "start": 37.5085,
      "duration": 0.0141,
      "velocity": 1,
      "chip": "ym2612"
    },
    {
      "channel": 2,
      "note": 67,
      "start": 37.5257,
      "duration": 0.0276,
      "velocity": 88,
      "chip": "ym2612"
    },
    {
      "channel": 0,
      "note": 84,
      "start": 37.5317,
      "duration": 0.0213,
      "velocity": 1,
      "chip": "ym2612"
    },
    {
      "channel": 0,
      "note": 82,
      "start": 37.5724,
      "duration": 0.0306,
      "velocity": 1,
      "chip": "ym2612"
    },
    {
      "channel": 2,
      "note": 67,
      "start": 37.6066,
      "duration": 0.0633,
      "velocity": 88,
      "chip": "ym2612"
    },
    {
      "channel": 0,
      "note": 79,
      "start": 37.6223,
      "duration": 0.0473,
      "velocity": 1,
      "chip": "ym2612"
    },
    {
      "channel": 1,
      "note": 84,
      "start": 37.6561,
      "duration": 0.2776,
      "velocity": 122,
      "chip": "ym2612"
    },
    {
      "channel": 0,
      "note": 77,
      "start": 37.689,
      "duration": 0.0305,
      "velocity": 1,
      "chip": "ym2612"
    },
    {
      "channel": 2,
      "note": 63,
      "start": 37.7233,
      "duration": 0.0489,
      "velocity": 88,
      "chip": "ym2612"
    },
    {
      "channel": 0,
      "note": 106,
      "start": 37.7558,
      "duration": 0.0162,
      "velocity": 1,
      "chip": "ym2612"
    },
    {
      "channel": 0,
      "note": 103,
      "start": 37.7818,
      "duration": 0.0197,
      "velocity": 1,
      "chip": "ym2612"
    },
    {
      "channel": 2,
      "note": 63,
      "start": 37.8059,
      "duration": 0.0202,
      "velocity": 88,
      "chip": "ym2612"
    },
    {
      "channel": 0,
      "note": 101,
      "start": 37.8137,
      "duration": 0.0122,
      "velocity": 1,
      "chip": "ym2612"
    },
    {
      "channel": 0,
      "note": 98,
      "start": 37.8365,
      "duration": 0.0201,
      "velocity": 1,
      "chip": "ym2612"
    },
    {
      "channel": 2,
      "note": 55,
      "start": 37.8597,
      "duration": 0.0186,
      "velocity": 88,
      "chip": "ym2612"
    },
    {
      "channel": 0,
      "note": 94,
      "start": 37.8658,
      "duration": 0.0123,
      "velocity": 1,
      "chip": "ym2612"
    },
    {
      "channel": 0,
      "note": 89,
      "start": 37.888,
      "duration": 0.0203,
      "velocity": 1,
      "chip": "ym2612"
    },
    {
      "channel": 2,
      "note": 55,
      "start": 37.9119,
      "duration": 0.0221,
      "velocity": 88,
      "chip": "ym2612"
    },
    {
      "channel": 0,
      "note": 84,
      "start": 37.9194,
      "duration": 0.0141,
      "velocity": 1,
      "chip": "ym2612"
    },
    {
      "channel": 0,
      "note": 77,
      "start": 37.9698,
      "duration": 0.0305,
      "velocity": 1,
      "chip": "ym2612"
    },
    {
      "channel": 1,
      "note": 82,
      "start": 38.0041,
      "duration": 1.1926,
      "velocity": 122,
      "chip": "ym2612"
    },
    {
      "channel": 4,
      "note": 70,
      "start": 38.0068,
      "duration": 1.1901,
      "velocity": 122,
      "chip": "ym2612"
    },
    {
      "channel": 2,
      "note": 58,
      "start": 38.0098,
      "duration": 0.0348,
      "velocity": 88,
      "chip": "ym2612"
    },
    {
      "channel": 0,
      "note": 79,
      "start": 38.0197,
      "duration": 0.0247,
      "velocity": 1,
      "chip": "ym2612"
    },
    {
      "channel": 0,
      "note": 84,
      "start": 38.0558,
      "duration": 0.0114,
      "velocity": 1,
      "chip": "ym2612"
    },
    {
      "channel": 2,
      "note": 58,
      "start": 38.0705,
      "duration": 0.0275,
      "velocity": 88,
      "chip": "ym2612"
    },
    {
      "channel": 0,
      "note": 89,
      "start": 38.0781,
      "duration": 0.0196,
      "velocity": 1,
      "chip": "ym2612"
    },
    {
      "channel": 0,
      "note": 106,
      "start": 38.1083,
      "duration": 0.0119,
      "velocity": 1,
      "chip": "ym2612"
    },
    {
      "channel": 2,
      "note": 58,
      "start": 38.1245,
      "duration": 0.0265,
      "velocity": 88,
      "chip": "ym2612"
    },
    {
      "channel": 0,
      "note": 103,
      "start": 38.1379,
      "duration": 0.0127,
      "velocity": 1,
      "chip": "ym2612"
    },
    {
      "channel": 0,
      "note": 101,
      "start": 38.1694,
      "duration": 0.0473,
      "velocity": 1,
      "chip": "ym2612"
    },
    {
      "channel": 2,
      "note": 58,
      "start": 38.2205,
      "duration": 0.0466,
      "velocity": 88,
      "chip": "ym2612"
    },
    {
      "channel": 0,
      "note": 98,
      "start": 38.2362,
      "duration": 0.0305,
      "velocity": 1,
      "chip": "ym2612"
    },
    {
      "channel": 0,
      "note": 94,
      "start": 38.2862,
      "duration": 0.0472,
      "velocity": 1,
      "chip": "ym2612"
    },
    {
      "channel": 2,
      "note": 58,
      "start": 38.3371,
      "duration": 0.0322,
      "velocity": 88,
      "chip": "ym2612"
    },
    {
      "channel": 0,
      "note": 106,
      "start": 38.3529,
      "duration": 0.0161,
      "velocity": 1,
      "chip": "ym2612"
    },
    {
      "channel": 0,
      "note": 103,
      "start": 38.3874,
      "duration": 0.0115,
      "velocity": 1,
      "chip": "ym2612"
    },
    {
      "channel": 2,
      "note": 58,
      "start": 38.4033,
      "duration": 0.0268,
      "velocity": 88,
      "chip": "ym2612"
    },
    {
      "channel": 0,
      "note": 101,
      "start": 38.4111,
      "duration": 0.0187,
      "velocity": 1,
      "chip": "ym2612"
    },
    {
      "channel": 0,
      "note": 98,
      "start": 38.4397,
      "duration": 0.0143,
      "velocity": 1,
      "chip": "ym2612"
    },
    {
      "channel": 2,
      "note": 58,
      "start": 38.4571,
      "duration": 0.0261,
      "velocity": 88,
      "chip": "ym2612"
    },
    {
      "channel": 0,
      "note": 94,
      "start": 38.4632,
      "duration": 0.0198,
      "velocity": 1,
      "chip": "ym2612"
    },
    {
      "channel": 0,
      "note": 89,
      "start": 38.4932,
      "duration": 0.0128,
      "velocity": 1,
      "chip": "ym2612"
    },
    {
      "channel": 2,
      "note": 58,
      "start": 38.5094,
      "duration": 0.0386,
      "velocity": 88,
      "chip": "ym2612"
    },
    {
      "channel": 0,
      "note": 84,
      "start": 38.5168,
      "duration": 0.0309,
      "velocity": 1,
      "chip": "ym2612"
    },
    {
      "channel": 0,
      "note": 77,
      "start": 38.567,
      "duration": 0.0306,
      "velocity": 1,
      "chip": "ym2612"
    },
    {
      "channel": 2,
      "note": 58,
      "start": 38.6016,
      "duration": 0.0482,
      "velocity": 88,
      "chip": "ym2612"
    },
    {
      "channel": 0,
      "note": 106,
      "start": 38.6337,
      "duration": 0.0159,
      "velocity": 1,
      "chip": "ym2612"
    },
    {
      "channel": 0,
      "note": 101,
      "start": 38.659,
      "duration": 0.0203,
      "velocity": 1,
      "chip": "ym2612"
    },
    {
      "channel": 2,
      "note": 58,
      "start": 38.6838,
      "duration": 0.02,
      "velocity": 88,
      "chip": "ym2612"
    },
    {
      "channel": 0,
      "note": 98,
      "start": 38.6914,
      "duration": 0.0122,
      "velocity": 1,
      "chip": "ym2612"
    },
    {
      "channel": 0,
      "note": 94,
      "start": 38.7144,
      "duration": 0.0204,
      "velocity": 1,
      "chip": "ym2612"
    },
    {
      "channel": 2,
      "note": 58,
      "start": 38.7379,
      "duration": 0.0185,
      "velocity": 88,
      "chip": "ym2612"
    },
    {
      "channel": 0,
      "note": 89,
      "start": 38.7439,
      "duration": 0.0123,
      "velocity": 1,
      "chip": "ym2612"
    },
    {
      "channel": 0,
      "note": 84,
      "start": 38.7854,
      "duration": 0.0305,
      "velocity": 1,
      "chip": "ym2612"
    },
    {
      "channel": 2,
      "note": 58,
      "start": 38.8194,
      "duration": 0.0634,
      "velocity": 88,
      "chip": "ym2612"
    },
    {
      "channel": 0,
      "note": 82,
      "start": 38.8353,
      "duration": 0.0472,
      "velocity": 1,
      "chip": "ym2612"
    },
    {
      "channel": 0,
      "note": 79,
      "start": 38.9019,
      "duration": 0.0307,
      "velocity": 1,
      "chip": "ym2612"
    },
    {
      "channel": 2,
      "note": 58,
      "start": 38.9362,
      "duration": 0.0388,
      "velocity": 88,
      "chip": "ym2612"
    },
    {
      "channel": 0,
      "note": 77,
      "start": 38.952,
      "duration": 0.0229,
      "velocity": 1,
      "chip": "ym2612"
    },
    {
      "channel": 0,
      "note": 106,
      "start": 38.9864,
      "duration": 0.0113,
      "velocity": 1,
      "chip": "ym2612"
    },
    {
      "channel": 2,
      "note": 58,
      "start": 39.002,
      "duration": 0.0288,
      "velocity": 88,
      "chip": "ym2612"
    },
    {
      "channel": 0,
      "note": 103,
      "start": 39.0161,
      "duration": 0.0144,
      "velocity": 1,
      "chip": "ym2612"
    },
    {
      "channel": 0,
      "note": 101,
      "start": 39.0391,
      "duration": 0.0198,
      "velocity": 1,
      "chip": "ym2612"
    },
    {
      "channel": 2,
      "note": 58,
      "start": 39.0623,
      "duration": 0.0205,
      "velocity": 88,
      "chip": "ym2612"
    },
    {
      "channel": 0,
      "note": 98,
      "start": 39.0701,
      "duration": 0.0125,
      "velocity": 1,
      "chip": "ym2612"
    },
    {
      "channel": 0,
      "note": 94,
      "start": 39.093,
      "duration": 0.0197,
      "velocity": 1,
      "chip": "ym2612"
    },
    {
      "channel": 2,
      "note": 58,
      "start": 39.1168,
      "duration": 0.0302,
      "velocity": 88,
      "chip": "ym2612"
    },
    {
      "channel": 0,
      "note": 89,
      "start": 39.1241,
      "duration": 0.0225,
      "velocity": 1,
      "chip": "ym2612"
    },
    {
      "channel": 0,
      "note": 84,
      "start": 39.166,
      "duration": 0.0473,
      "velocity": 1,
      "chip": "ym2612"
    },
    {
      "channel": 1,
      "note": 82,
      "start": 39.2167,
      "duration": 1.0302,
      "velocity": 122,
      "chip": "ym2612"
    },
    {
      "channel": 4,
      "note": 87,
      "start": 39.2197,
      "duration": 1.1604,
      "velocity": 122,
      "chip": "ym2612"
    },
    {
      "channel": 2,
      "note": 58,
      "start": 39.2227,
      "duration": 0.0278,
      "velocity": 88,
      "chip": "ym2612"
    },
    {
      "channel": 0,
      "note": 77,
      "start": 39.2328,
      "duration": 0.0175,
      "velocity": 1,
      "chip": "ym2612"
    },
    {
      "channel": 0,
      "note": 84,
      "start": 39.2676,
      "duration": 0.0117,
      "velocity": 1,
      "chip": "ym2612"
    },
    {
      "channel": 2,
      "note": 58,
      "start": 39.2827,
      "duration": 0.0275,
      "velocity": 88,
      "chip": "ym2612"
    },
    {
      "channel": 0,
      "note": 89,
      "start": 39.2912,
      "duration": 0.0188,
      "velocity": 1,
      "chip": "ym2612"
    },
    {
      "channel": 0,
      "note": 106,
      "start": 39.3203,
      "duration": 0.0128,
      "velocity": 1,
      "chip": "ym2612"
    },
    {
      "channel": 2,
      "note": 58,
      "start": 39.3375,
      "duration": 0.0268,
      "velocity": 88,
      "chip": "ym2612"
    },
    {
      "channel": 0,
      "note": 103,
      "start": 39.3445,
      "duration": 0.0194,
      "velocity": 1,
      "chip": "ym2612"
    },
    {
      "channel": 0,
      "note": 101,
      "start": 39.3833,
      "duration": 0.0306,
      "velocity": 1,
      "chip": "ym2612"
    },
    {
      "channel": 2,
      "note": 58,
      "start": 39.4175,
      "duration": 0.0634,
      "velocity": 88,
      "chip": "ym2612"
    },
    {
      "channel": 0,
      "note": 98,
      "start": 39.4501,
      "duration": 0.0305,
      "velocity": 1,
      "chip": "ym2612"
    },
    {
      "channel": 0,
      "note": 94,
      "start": 39.5001,
      "duration": 0.0472,
      "velocity": 1,
      "chip": "ym2612"
    },
    {
      "channel": 2,
      "note": 58,
      "start": 39.551,
      "duration": 0.0318,
      "velocity": 88,
      "chip": "ym2612"
    },
    {
      "channel": 0,
      "note": 106,
      "start": 39.5667,
      "duration": 0.0159,
      "velocity": 1,
      "chip": "ym2612"
    },
    {
      "channel": 0,
      "note": 103,
      "start": 39.5934,
      "duration": 0.0188,
      "velocity": 1,
      "chip": "ym2612"
    },
    {
      "channel": 2,
      "note": 58,
      "start": 39.6165,
      "duration": 0.0199,
      "velocity": 88,
      "chip": "ym2612"
    },
    {
      "channel": 0,
      "note": 101,
      "start": 39.6244,
      "duration": 0.0118,
      "velocity": 1,
      "chip": "ym2612"
    },
    {
      "channel": 0,
      "note": 98,
      "start": 39.6534,
      "duration": 0.0144,
      "velocity": 1,
      "chip": "ym2612"
    },
    {
      "channel": 2,
      "note": 58,
      "start": 39.6709,
      "duration": 0.0274,
      "velocity": 88,
      "chip": "ym2612"
    },
    {
      "channel": 0,
      "note": 94,
      "start": 39.6772,
      "duration": 0.0208,
      "velocity": 1,
      "chip": "ym2612"
    },
    {
      "channel": 0,
      "note": 89,
      "start": 39.7081,
      "duration": 0.0131,
      "velocity": 1,
      "chip": "ym2612"
    },
    {
      "channel": 2,
      "note": 58,
      "start": 39.7248,
      "duration": 0.039,
      "velocity": 88,
      "chip": "ym2612"
    },
    {
      "channel": 0,
      "note": 84,
      "start": 39.7324,
      "duration": 0.0311,
      "velocity": 1,
      "chip": "ym2612"
    },
    {
      "channel": 0,
      "note": 77,
      "start": 39.7828,
      "duration": 0.0306,
      "velocity": 1,
      "chip": "ym2612"
    },
    {
      "channel": 2,
      "note": 58,
      "start": 39.8174,
      "duration": 0.0485,
      "velocity": 88,
      "chip": "ym2612"
    },
    {
      "channel": 0,
      "note": 106,
      "start": 39.8496,
      "duration": 0.0161,
      "velocity": 1,
      "chip": "ym2612"
    },
    {
      "channel": 0,
      "note": 101,
      "start": 39.8757,
      "duration": 0.0131,
      "velocity": 1,
      "chip": "ym2612"
    },
    {
      "channel": 2,
      "note": 58,
      "start": 39.892,
      "duration": 0.0282,
      "velocity": 88,
      "chip": "ym2612"
    },
    {
      "channel": 0,
      "note": 98,
      "start": 39.9081,
      "duration": 0.0119,
      "velocity": 1,
      "chip": "ym2612"
    },
    {
      "channel": 0,
      "note": 89,
      "start": 39.9313,
      "duration": 0.0204,
      "velocity": 1,
      "chip": "ym2612"
    },
    {
      "channel": 2,
      "note": 70,
      "start": 39.9548,
      "duration": 0.0187,
      "velocity": 88,
      "chip": "ym2612"
    },
    {
      "channel": 0,
      "note": 84,
      "start": 39.9609,
      "duration": 0.0124,
      "velocity": 1,
      "chip": "ym2612"
    },
    {
      "channel": 0,
      "note": 82,
      "start": 39.9853,
      "duration": 0.0473,
      "velocity": 1,
      "chip": "ym2612"
    },
    {
      "channel": 2,
      "note": 70,
      "start": 40.0362,
      "duration": 0.0468,
      "velocity": 88,
      "chip": "ym2612"
    },
    {
      "channel": 0,
      "note": 79,
      "start": 40.0521,
      "duration": 0.0306,
      "velocity": 1,
      "chip": "ym2612"
    },
    {
      "channel": 0,
      "note": 77,
      "start": 40.1188,
      "duration": 0.0305,
      "velocity": 1,
      "chip": "ym2612"
    },
    {
      "channel": 2,
      "note": 58,
      "start": 40.1529,
      "duration": 0.0392,
      "velocity": 88,
      "chip": "ym2612"
    },
    {
      "channel": 0,
      "note": 106,
      "start": 40.1687,
      "duration": 0.0231,
      "velocity": 1,
      "chip": "ym2612"
    },
    {
      "channel": 0,
      "note": 103,
      "start": 40.2034,
      "duration": 0.0114,
      "velocity": 1,
      "chip": "ym2612"
    },
    {
      "channel": 2,
      "note": 58,
      "start": 40.2193,
      "duration": 0.0277,
      "velocity": 88,
      "chip": "ym2612"
    },
    {
      "channel": 0,
      "note": 101,
      "start": 40.2269,
      "duration": 0.0199,
      "velocity": 1,
      "chip": "ym2612"
    },
    {
      "channel": 0,
      "note": 98,
      "start": 40.2554,
      "duration": 0.0143,
      "velocity": 1,
      "chip": "ym2612"
    },
    {
      "channel": 2,
      "note": 70,
      "start": 40.2729,
      "duration": 0.0262,
      "velocity": 88,
      "chip": "ym2612"
    },
    {
      "channel": 0,
      "note": 94,
      "start": 40.2864,
      "duration": 0.0125,
      "velocity": 1,
      "chip": "ym2612"
    },
    {
      "channel": 0,
      "note": 89,
      "start": 40.3091,
      "duration": 0.0202,
      "velocity": 1,
      "chip": "ym2612"
    },
    {
      "channel": 2,
      "note": 70,
      "start": 40.3335,
      "duration": 0.0301,
      "velocity": 88,
      "chip": "ym2612"
    },
    {
      "channel": 0,
      "note": 84,
      "start": 40.341,
      "duration": 0.0224,
      "velocity": 1,
      "chip": "ym2612"
    },
    {
      "channel": 0,
      "note": 77,
      "start": 40.3828,
      "duration": 0.0472,
      "velocity": 1,
      "chip": "ym2612"
    },
    {
      "channel": 2,
      "note": 51,
      "start": 40.4197,
      "duration": 0.0444,
      "velocity": 88,
      "chip": "ym2612"
    },
    {
      "channel": 0,
      "note": 89,
      "start": 40.4512,
      "duration": 0.0187,
      "velocity": 1,
      "chip": "ym2612"
    },
    {
      "channel": 1,
      "note": 63,
      "start": 40.4542,
      "duration": 2.2666,
      "velocity": 122,
      "chip": "ym2612"
    },
    {
      "channel": 0,
      "note": 94,
      "start": 40.4869,
      "duration": 0.0134,
      "velocity": 1,
      "chip": "ym2612"
    },
    {
      "channel": 2,
      "note": 51,
      "start": 40.4953,
      "duration": 0.0202,
      "velocity": 88,
      "chip": "ym2612"
    },
    {
      "channel": 0,
      "note": 99,
      "start": 40.5103,
      "duration": 0.0124,
      "velocity": 1,
      "chip": "ym2612"
    },
    {
      "channel": 0,
      "note": 106,
      "start": 40.5393,
      "duration": 0.0146,
      "velocity": 1,
      "chip": "ym2612"
    },
    {
      "channel": 2,
      "note": 51,
      "start": 40.5493,
      "duration": 0.0188,
      "velocity": 88,
      "chip": "ym2612"
    },
    {
      "channel": 0,
      "note": 111,
      "start": 40.5623,
      "duration": 0.0201,
      "velocity": 1,
      "chip": "ym2612"
    },
    {
      "channel": 0,
      "note": 108,
      "start": 40.5988,
      "duration": 0.0305,
      "velocity": 1,
      "chip": "ym2612"
    },
    {
      "channel": 2,
      "note": 51,
      "start": 40.6164,
      "duration": 0.0631,
      "velocity": 88,
      "chip": "ym2612"
    },
    {
      "channel": 0,
      "note": 106,
      "start": 40.6488,
      "duration": 0.0472,
      "velocity": 1,
      "chip": "ym2612"
    },
    {
      "channel": 0,
      "note": 103,
      "start": 40.7154,
      "duration": 0.0307,
      "velocity": 1,
      "chip": "ym2612"
    },
    {
      "channel": 2,
      "note": 51,
      "start": 40.733,
      "duration": 0.058,
      "velocity": 88,
      "chip": "ym2612"
    },
    {
      "channel": 0,
      "note": 99,
      "start": 40.7822,
      "duration": 0.0157,
      "velocity": 1,
      "chip": "ym2612"
    },
    {
      "channel": 0,
      "note": 94,
      "start": 40.8091,
      "duration": 0.0203,
      "velocity": 1,
      "chip": "ym2612"
    },
    {
      "channel": 2,
      "note": 51,
      "start": 40.8181,
      "duration": 0.0271,
      "velocity": 88,
      "chip": "ym2612"
    },
    {
      "channel": 0,
      "note": 89,
      "start": 40.8405,
      "duration": 0.0114,
      "velocity": 1,
      "chip": "ym2612"
    },
    {
      "channel": 0,
      "note": 87,
      "start": 40.8626,
      "duration": 0.02,
      "velocity": 1,
      "chip": "ym2612"
    },
    {
      "channel": 2,
      "note": 51,
      "start": 40.8792,
      "duration": 0.0186,
      "velocity": 88,
      "chip": "ym2612"
    },
    {
      "channel": 0,
      "note": 84,
      "start": 40.8919,
      "duration": 0.0131,
      "velocity": 1,
      "chip": "ym2612"
    },
    {
      "channel": 0,
      "note": 82,
      "start": 40.9221,
      "duration": 0.0139,
      "velocity": 1,
      "chip": "ym2612"
    },
    {
      "channel": 2,
      "note": 51,
      "start": 40.9321,
      "duration": 0.0193,
      "velocity": 88,
      "chip": "ym2612"
    },
    {
      "channel": 0,
      "note": 84,
      "start": 40.9454,
      "duration": 0.0308,
      "velocity": 1,
      "chip": "ym2612"
    },
    {
      "channel": 0,
      "note": 87,
      "start": 40.9956,
      "duration": 0.0307,
      "velocity": 1,
      "chip": "ym2612"
    },
    {
      "channel": 2,
      "note": 51,
      "start": 41.0132,
      "duration": 0.0483,
      "velocity": 88,
      "chip": "ym2612"
    },
    {
      "channel": 0,
      "note": 89,
      "start": 41.0456,
      "duration": 0.0225,
      "velocity": 1,
      "chip": "ym2612"
    },
    {
      "channel": 0,
      "note": 91,
      "start": 41.0792,
      "duration": 0.0128,
      "velocity": 1,
      "chip": "ym2612"
    },
    {
      "channel": 2,
      "note": 51,
      "start": 41.0869,
      "duration": 0.0285,
      "velocity": 88,
      "chip": "ym2612"
    },
    {
      "channel": 0,
      "note": 94,
      "start": 41.1093,
      "duration": 0.0144,
      "velocity": 1,
      "chip": "ym2612"
    },
    {
      "channel": 0,
      "note": 99,
      "start": 41.1325,
      "duration": 0.0216,
      "velocity": 1,
      "chip": "ym2612"
    },
    {
      "channel": 2,
      "note": 51,
      "start": 41.1417,
      "duration": 0.0276,
      "velocity": 88,
      "chip": "ym2612"
    },
    {
      "channel": 0,
      "note": 103,
      "start": 41.1635,
      "duration": 0.015,
      "velocity": 1,
      "chip": "ym2612"
    },
    {
      "channel": 0,
      "note": 106,
      "start": 41.1979,
      "duration": 0.0472,
      "velocity": 1,
      "chip": "ym2612"
    },
    {
      "channel": 2,
      "note": 51,
      "start": 41.2156,
      "duration": 0.0631,
      "velocity": 88,
      "chip": "ym2612"
    },
    {
      "channel": 0,
      "note": 108,
      "start": 41.2646,
      "duration": 0.0305,
      "velocity": 1,
      "chip": "ym2612"
    },
    {
      "channel": 0,
      "note": 111,
      "start": 41.3146,
      "duration": 0.0472,
      "velocity": 1,
      "chip": "ym2612"
    },
    {
      "channel": 2,
      "note": 51,
      "start": 41.3489,
      "duration": 0.0412,
      "velocity": 88,
      "chip": "ym2612"
    },
    {
      "channel": 0,
      "note": 108,
      "start": 41.3813,
      "duration": 0.0157,
      "velocity": 1,
      "chip": "ym2612"
    },
    {
      "channel": 0,
      "note": 106,
      "start": 41.4152,
      "duration": 0.0127,
      "velocity": 1,
      "chip": "ym2612"
    },
    {
      "channel": 2,
      "note": 51,
      "start": 41.4229,
      "duration": 0.021,
      "velocity": 88,
      "chip": "ym2612"
    },
    {
      "channel": 0,
      "note": 103,
      "start": 41.4392,
      "duration": 0.0185,
      "velocity": 1,
      "chip": "ym2612"
    },
    {
      "channel": 0,
      "note": 99,
      "start": 41.4679,
      "duration": 0.0137,
      "velocity": 1,
      "chip": "ym2612"
    },
    {
      "channel": 2,
      "note": 51,
      "start": 41.4768,
      "duration": 0.027,
      "velocity": 88,
      "chip": "ym2612"
    },
    {
      "channel": 0,
      "note": 94,
      "start": 41.4909,
      "duration": 0.0203,
      "velocity": 1,
      "chip": "ym2612"
    },
    {
      "channel": 0,
      "note": 89,
      "start": 41.5211,
      "duration": 0.0144,
      "velocity": 1,
      "chip": "ym2612"
    },
    {
      "channel": 2,
      "note": 51,
      "start": 41.531,
      "duration": 0.0277,
      "velocity": 88,
      "chip": "ym2612"
    },
    {
      "channel": 0,
      "note": 87,
      "start": 41.5527,
      "duration": 0.0224,
      "velocity": 1,
      "chip": "ym2612"
    },
    {
      "channel": 0,
      "note": 84,
      "start": 41.5946,
      "duration": 0.0472,
      "velocity": 1,
      "chip": "ym2612"
    },
    {
      "channel": 2,
      "note": 51,
      "start": 41.612,
      "duration": 0.059,
      "velocity": 88,
      "chip": "ym2612"
    },
    {
      "channel": 0,
      "note": 82,
      "start": 41.6611,
      "duration": 0.0173,
      "velocity": 1,
      "chip": "ym2612"
    },
    {
      "channel": 0,
      "note": 89,
      "start": 41.6875,
      "duration": 0.0208,
      "velocity": 1,
      "chip": "ym2612"
    },
    {
      "channel": 2,
      "note": 51,
      "start": 41.7043,
      "duration": 0.0211,
      "velocity": 88,
      "chip": "ym2612"
    },
    {
      "channel": 0,
      "note": 94,
      "start": 41.7194,
      "duration": 0.0118,
      "velocity": 1,
      "chip": "ym2612"
    },
    {
      "channel": 0,
      "note": 111,
      "start": 41.7485,
      "duration": 0.0143,
      "velocity": 1,
      "chip": "ym2612"
    },
    {
      "channel": 2,
      "note": 51,
      "start": 41.7578,
      "duration": 0.0203,
      "velocity": 88,
      "chip": "ym2612"
    },
    {
      "channel": 0,
      "note": 108,
      "start": 41.773,
      "duration": 0.0195,
      "velocity": 1,
      "chip": "ym2612"
    },
    {
      "channel": 0,
      "note": 106,
      "start": 41.8119,
      "duration": 0.0305,
      "velocity": 1,
      "chip": "ym2612"
    },
    {
      "channel": 2,
      "note": 51,
      "start": 41.8294,
      "duration": 0.0466,
      "velocity": 88,
      "chip": "ym2612"
    },
    {
      "channel": 0,
      "note": 103,
      "start": 41.862,
      "duration": 0.0472,
      "velocity": 1,
      "chip": "ym2612"
    },
    {
      "channel": 0,
      "note": 99,
      "start": 41.9285,
      "duration": 0.0306,
      "velocity": 1,
      "chip": "ym2612"
    },
    {
      "channel": 2,
      "note": 51,
      "start": 41.9461,
      "duration": 0.0483,
      "velocity": 88,
      "chip": "ym2612"
    },
    {
      "channel": 0,
      "note": 111,
      "start": 41.9786,
      "duration": 0.0226,
      "velocity": 1,
      "chip": "ym2612"
    },
    {
      "channel": 0,
      "note": 108,
      "start": 42.0127,
      "duration": 0.0118,
      "velocity": 1,
      "chip": "ym2612"
    },
    {
      "channel": 2,
      "note": 51,
      "start": 42.02,
      "duration": 0.0274,
      "velocity": 88,
      "chip": "ym2612"
    },
    {
      "channel": 0,
      "note": 106,
      "start": 42.0417,
      "duration": 0.0126,
      "velocity": 1,
      "chip": "ym2612"
    },
    {
      "channel": 0,
      "note": 103,
      "start": 42.0637,
      "duration": 0.0211,
      "velocity": 1,
      "chip": "ym2612"
    },
    {
      "channel": 2,
      "note": 51,
      "start": 42.0728,
      "duration": 0.0278,
      "velocity": 88,
      "chip": "ym2612"
    },
    {
      "channel": 0,
      "note": 99,
      "start": 42.0951,
      "duration": 0.0125,
      "velocity": 1,
      "chip": "ym2612"
    },
    {
      "channel": 0,
      "note": 94,
      "start": 42.118,
      "duration": 0.0209,
      "velocity": 1,
      "chip": "ym2612"
    },
    {
      "channel": 2,
      "note": 51,
      "start": 42.1338,
      "duration": 0.0219,
      "velocity": 88,
      "chip": "ym2612"
    },
    {
      "channel": 0,
      "note": 89,
      "start": 42.1496,
      "duration": 0.0224,
      "velocity": 1,
      "chip": "ym2612"
    },
    {
      "channel": 0,
      "note": 82,
      "start": 42.2081,
      "duration": 0.0305,
      "velocity": 1,
      "chip": "ym2612"
    },
    {
      "channel": 2,
      "note": 51,
      "start": 42.2255,
      "duration": 0.0415,
      "velocity": 88,
      "chip": "ym2612"
    },
    {
      "channel": 0,
      "note": 111,
      "start": 42.2582,
      "duration": 0.0226,
      "velocity": 1,
      "chip": "ym2612"
    },
    {
      "channel": 0,
      "note": 106,
      "start": 42.2919,
      "duration": 0.0121,
      "velocity": 1,
      "chip": "ym2612"
    },
    {
      "channel": 2,
      "note": 51,
      "start": 42.2991,
      "duration": 0.0274,
      "velocity": 88,
      "chip": "ym2612"
    },
    {
      "channel": 0,
      "note": 103,
      "start": 42.3151,
      "duration": 0.0196,
      "velocity": 1,
      "chip": "ym2612"
    },
    {
      "channel": 0,
      "note": 94,
      "start": 42.3432,
      "duration": 0.0142,
      "velocity": 1,
      "chip": "ym2612"
    },
    {
      "channel": 2,
      "note": 51,
      "start": 42.3537,
      "duration": 0.0263,
      "velocity": 88,
      "chip": "ym2612"
    },
    {
      "channel": 0,
      "note": 89,
      "start": 42.3742,
      "duration": 0.0152,
      "velocity": 1,
      "chip": "ym2612"
    },
    {
      "channel": 0,
      "note": 87,
      "start": 42.4089,
      "duration": 0.0472,
      "velocity": 1,
      "chip": "ym2612"
    },
    {
      "channel": 2,
      "note": 51,
      "start": 42.4263,
      "duration": 0.0634,
      "velocity": 88,
      "chip": "ym2612"
    },
    {
      "channel": 0,
      "note": 84,
      "start": 42.4755,
      "duration": 0.0306,
      "velocity": 1,
      "chip": "ym2612"
    },
    {
      "channel": 0,
      "note": 82,
      "start": 42.5256,
      "duration": 0.0471,
      "velocity": 1,
      "chip": "ym2612"
    },
    {
      "channel": 2,
      "note": 51,
      "start": 42.5597,
      "duration": 0.0414,
      "velocity": 88,
      "chip": "ym2612"
    },
    {
      "channel": 0,
      "note": 111,
      "start": 42.5923,
      "duration": 0.0157,
      "velocity": 1,
      "chip": "ym2612"
    },
    {
      "channel": 0,
      "note": 108,
      "start": 42.6192,
      "duration": 0.0195,
      "velocity": 1,
      "chip": "ym2612"
    },
    {
      "channel": 2,
      "note": 51,
      "start": 42.634,
      "duration": 0.0206,
      "velocity": 88,
      "chip": "ym2612"
    },
    {
      "channel": 0,
      "note": 106,
      "start": 42.6499,
      "duration": 0.0114,
      "velocity": 1,
      "chip": "ym2612"
    },
    {
      "channel": 0,
      "note": 103,
      "start": 42.6781,
      "duration": 0.0137,
      "velocity": 1,
      "chip": "ym2612"
    },
    {
      "channel": 2,
      "note": 51,
      "start": 42.687,
      "duration": 0.02,
      "velocity": 88,
      "chip": "ym2612"
    },
    {
      "channel": 0,
      "note": 99,
      "start": 42.7011,
      "duration": 0.0196,
      "velocity": 1,
      "chip": "ym2612"
    },
    {
      "channel": 0,
      "note": 94,
      "start": 42.7304,
      "duration": 0.0144,
      "velocity": 1,
      "chip": "ym2612"
    },
    {
      "channel": 2,
      "note": 51,
      "start": 42.7403,
      "duration": 0.0284,
      "velocity": 88,
      "chip": "ym2612"
    },
    {
      "channel": 0,
      "note": 89,
      "start": 42.7542,
      "duration": 0.0308,
      "velocity": 1,
      "chip": "ym2612"
    },
    {
      "channel": 0,
      "note": 82,
      "start": 42.8045,
      "duration": 0.0306,
      "velocity": 1,
      "chip": "ym2612"
    },
    {
      "channel": 1,
      "note": 65,
      "start": 42.8218,
      "duration": 2.3504,
      "velocity": 122,
      "chip": "ym2612"
    },
    {
      "channel": 2,
      "note": 53,
      "start": 42.8248,
      "duration": 0.0561,
      "velocity": 88,
      "chip": "ym2612"
    },
    {
      "channel": 3,
      "note": 77,
      "start": 42.8277,
      "duration": 0.1142,
      "velocity": 97,
      "chip": "ym2612"
    },
    {
      "channel": 0,
      "note": 84,
      "start": 42.8711,
      "duration": 0.0173,
      "velocity": 1,
      "chip": "ym2612"
    },
    {
      "channel": 0,
      "note": 89,
      "start": 42.8973,
      "duration": 0.0207,
      "velocity": 1,
      "chip": "ym2612"
    },
    {
      "channel": 2,
      "note": 53,
      "start": 42.9073,
      "duration": 0.028,
      "velocity": 88,
      "chip": "ym2612"
    },
    {
      "channel": 0,
      "note": 94,
      "start": 42.9294,
      "duration": 0.0124,
      "velocity": 1,
      "chip": "ym2612"
    },
    {
      "channel": 0,
      "note": 111,
      "start": 42.953,
      "duration": 0.0197,
      "velocity": 1,
      "chip": "ym2612"
    },
    {
      "channel": 2,
      "note": 53,
      "start": 42.9678,
      "duration": 0.0204,
      "velocity": 88,
      "chip": "ym2612"
    },
    {
      "channel": 0,
      "note": 108,
      "start": 42.983,
      "duration": 0.0127,
      "velocity": 1,
      "chip": "ym2612"
    },
    {
      "channel": 0,
      "note": 106,
      "start": 43.023,
      "duration": 0.0306,
      "velocity": 1,
      "chip": "ym2612"
    },
    {
      "channel": 2,
      "note": 53,
      "start": 43.0405,
      "duration": 0.0468,
      "velocity": 88,
      "chip": "ym2612"
    },
    {
      "channel": 0,
      "note": 103,
      "start": 43.073,
      "duration": 0.0472,
      "velocity": 1,
      "chip": "ym2612"
    },
    {
      "channel": 0,
      "note": 99,
      "start": 43.1398,
      "duration": 0.0305,
      "velocity": 1,
      "chip": "ym2612"
    },
    {
      "channel": 2,
      "note": 53,
      "start": 43.1571,
      "duration": 0.0483,
      "velocity": 88,
      "chip": "ym2612"
    },
    {
      "channel": 0,
      "note": 111,
      "start": 43.1897,
      "duration": 0.0229,
      "velocity": 1,
      "chip": "ym2612"
    },
    {
      "channel": 0,
      "note": 108,
      "start": 43.2239,
      "duration": 0.0118,
      "velocity": 1,
      "chip": "ym2612"
    },
    {
      "channel": 2,
      "note": 53,
      "start": 43.2309,
      "duration": 0.0273,
      "velocity": 88,
      "chip": "ym2612"
    },
    {
      "channel": 0,
      "note": 106,
      "start": 43.2468,
      "duration": 0.0195,
      "velocity": 1,
      "chip": "ym2612"
    },
    {
      "channel": 0,
      "note": 103,
      "start": 43.2749,
      "duration": 0.0144,
      "velocity": 1,
      "chip": "ym2612"
    },
    {
      "channel": 2,
      "note": 53,
      "start": 43.2842,
      "duration": 0.0278,
      "velocity": 88,
      "chip": "ym2612"
    },
    {
      "channel": 0,
      "note": 99,
      "start": 43.3062,
      "duration": 0.0129,
      "velocity": 1,
      "chip": "ym2612"
    },
    {
      "channel": 0,
      "note": 94,
      "start": 43.3293,
      "duration": 0.0205,
      "velocity": 1,
      "chip": "ym2612"
    },
    {
      "channel": 2,
      "note": 53,
      "start": 43.339,
      "duration": 0.0278,
      "velocity": 88,
      "chip": "ym2612"
    },
    {
      "channel": 0,
      "note": 89,
      "start": 43.3606,
      "duration": 0.0225,
      "velocity": 1,
      "chip": "ym2612"
    },
    {
      "channel": 0,
      "note": 82,
      "start": 43.4027,
      "duration": 0.0472,
      "velocity": 1,
      "chip": "ym2612"
    },
    {
      "channel": 2,
      "note": 53,
      "start": 43.4368,
      "duration": 0.0412,
      "velocity": 88,
      "chip": "ym2612"
    },
    {
      "channel": 0,
      "note": 111,
      "start": 43.4692,
      "duration": 0.0161,
      "velocity": 1,
      "chip": "ym2612"
    },
    {
      "channel": 0,
      "note": 106,
      "start": 43.5037,
      "duration": 0.012,
      "velocity": 1,
      "chip": "ym2612"
    },
    {
      "channel": 2,
      "note": 53,
      "start": 43.5112,
      "duration": 0.0206,
      "velocity": 88,
      "chip": "ym2612"
    },
    {
      "channel": 0,
      "note": 103,
      "start": 43.5268,
      "duration": 0.0203,
      "velocity": 1,
      "chip": "ym2612"
    },
    {
      "channel": 0,
      "note": 99,
      "start": 43.5557,
      "duration": 0.0141,
      "velocity": 1,
      "chip": "ym2612"
    },
    {
      "channel": 2,
      "note": 53,
      "start": 43.566,
      "duration": 0.0261,
      "velocity": 88,
      "chip": "ym2612"
    },
    {
      "channel": 0,
      "note": 94,
      "start": 43.5793,
      "duration": 0.0222,
      "velocity": 1,
      "chip": "ym2612"
    },
    {
      "channel": 0,
      "note": 89,
      "start": 43.621,
      "duration": 0.0305,
      "velocity": 1,
      "chip": "ym2612"
    },
    {
      "channel": 2,
      "note": 53,
      "start": 43.6384,
      "duration": 0.0634,
      "velocity": 88,
      "chip": "ym2612"
    },
    {
      "channel": 0,
      "note": 87,
      "start": 43.6876,
      "duration": 0.0305,
      "velocity": 1,
      "chip": "ym2612"
    },
    {
      "channel": 0,
      "note": 84,
      "start": 43.7377,
      "duration": 0.0472,
      "velocity": 1,
      "chip": "ym2612"
    },
    {
      "channel": 2,
      "note": 53,
      "start": 43.755,
      "duration": 0.058,
      "velocity": 88,
      "chip": "ym2612"
    },
    {
      "channel": 0,
      "note": 82,
      "start": 43.8042,
      "duration": 0.0161,
      "velocity": 1,
      "chip": "ym2612"
    },
    {
      "channel": 0,
      "note": 111,
      "start": 43.8317,
      "duration": 0.0202,
      "velocity": 1,
      "chip": "ym2612"
    },
    {
      "channel": 2,
      "note": 53,
      "start": 43.8468,
      "duration": 0.0211,
      "velocity": 88,
      "chip": "ym2612"
    },
    {
      "channel": 0,
      "note": 108,
      "start": 43.8632,
      "duration": 0.0117,
      "velocity": 1,
      "chip": "ym2612"
    },
    {
      "channel": 0,
      "note": 106,
      "start": 43.8918,
      "duration": 0.0144,
      "velocity": 1,
      "chip": "ym2612"
    },
    {
      "channel": 2,
      "note": 53,
      "start": 43.9022,
      "duration": 0.0191,
      "velocity": 88,
      "chip": "ym2612"
    },
    {
      "channel": 0,
      "note": 103,
      "start": 43.9156,
      "duration": 0.0125,
      "velocity": 1,
      "chip": "ym2612"
    },
    {
      "channel": 0,
      "note": 99,
      "start": 43.9448,
      "duration": 0.0132,
      "velocity": 1,
      "chip": "ym2612"
    },
    {
      "channel": 2,
      "note": 53,
      "start": 43.9543,
      "duration": 0.0195,
      "velocity": 88,
      "chip": "ym2612"
    },
    {
      "channel": 0,
      "note": 94,
      "start": 43.968,
      "duration": 0.0311,
      "velocity": 1,
      "chip": "ym2612"
    },
    {
      "channel": 0,
      "note": 89,
      "start": 44.0186,
      "duration": 0.0305,
      "velocity": 1,
      "chip": "ym2612"
    },
    {
      "channel": 2,
      "note": 53,
      "start": 44.0359,
      "duration": 0.0501,
      "velocity": 88,
      "chip": "ym2612"
    },
    {
      "channel": 0,
      "note": 82,
      "start": 44.0685,
      "duration": 0.0239,
      "velocity": 1,
      "chip": "ym2612"
    },
    {
      "channel": 0,
      "note": 89,
      "start": 44.1033,
      "duration": 0.0126,
      "velocity": 1,
      "chip": "ym2612"
    },
    {
      "channel": 2,
      "note": 53,
      "start": 44.112,
      "duration": 0.027,
      "velocity": 88,
      "chip": "ym2612"
    },
    {
      "channel": 0,
      "note": 94,
      "start": 44.1336,
      "duration": 0.0121,
      "velocity": 1,
      "chip": "ym2612"
    },
    {
      "channel": 0,
      "note": 111,
      "start": 44.1557,
      "duration": 0.0223,
      "velocity": 1,
      "chip": "ym2612"
    },
    {
      "channel": 2,
      "note": 53,
      "start": 44.1651,
      "duration": 0.028,
      "velocity": 88,
      "chip": "ym2612"
    },
    {
      "channel": 0,
      "note": 108,
      "start": 44.1871,
      "duration": 0.0138,
      "velocity": 1,
      "chip": "ym2612"
    },
    {
      "channel": 0,
      "note": 106,
      "start": 44.2204,
      "duration": 0.0472,
      "velocity": 1,
      "chip": "ym2612"
    },
    {
      "channel": 2,
      "note": 53,
      "start": 44.2545,
      "duration": 0.0468,
      "velocity": 88,
      "chip": "ym2612"
    },
    {
      "channel": 0,
      "note": 103,
      "start": 44.287,
      "duration": 0.0305,
      "velocity": 1,
      "chip": "ym2612"
    },
    {
      "channel": 0,
      "note": 99,
      "start": 44.3537,
      "duration": 0.0306,
      "velocity": 1,
      "chip": "ym2612"
    },
    {
      "channel": 2,
      "note": 53,
      "start": 44.3711,
      "duration": 0.0414,
      "velocity": 88,
      "chip": "ym2612"
    },
    {
      "channel": 0,
      "note": 111,
      "start": 44.4036,
      "duration": 0.0227,
      "velocity": 1,
      "chip": "ym2612"
    },
    {
      "channel": 0,
      "note": 108,
      "start": 44.4374,
      "duration": 0.0116,
      "velocity": 1,
      "chip": "ym2612"
    },
    {
      "channel": 2,
      "note": 53,
      "start": 44.4445,
      "duration": 0.0276,
      "velocity": 88,
      "chip": "ym2612"
    },
    {
      "channel": 0,
      "note": 106,
      "start": 44.4601,
      "duration": 0.02,
      "velocity": 1,
      "chip": "ym2612"
    },
    {
      "channel": 0,
      "note": 103,
      "start": 44.4889,
      "duration": 0.0143,
      "velocity": 1,
      "chip": "ym2612"
    },
    {
      "channel": 2,
      "note": 53,
      "start": 44.4981,
      "duration": 0.0279,
      "velocity": 88,
      "chip": "ym2612"
    },
    {
      "channel": 0,
      "note": 99,
      "start": 44.5202,
      "duration": 0.013,
      "velocity": 1,
      "chip": "ym2612"
    },
    {
      "channel": 0,
      "note": 94,
      "start": 44.5433,
      "duration": 0.0131,
      "velocity": 1,
      "chip": "ym2612"
    },
    {
      "channel": 2,
      "note": 53,
      "start": 44.5528,
      "duration": 0.0281,
      "velocity": 88,
      "chip": "ym2612"
    },
    {
      "channel": 0,
      "note": 89,
      "start": 44.5745,
      "duration": 0.0228,
      "velocity": 1,
      "chip": "ym2612"
    },
    {
      "channel": 0,
      "note": 82,
      "start": 44.6168,
      "duration": 0.0472,
      "velocity": 1,
      "chip": "ym2612"
    },
    {
      "channel": 2,
      "note": 53,
      "start": 44.6343,
      "duration": 0.0581,
      "velocity": 88,
      "chip": "ym2612"
    },
    {
      "channel": 0,
      "note": 111,
      "start": 44.6835,
      "duration": 0.0157,
      "velocity": 1,
      "chip": "ym2612"
    },
    {
      "channel": 0,
      "note": 106,
      "start": 44.7092,
      "duration": 0.0201,
      "velocity": 1,
      "chip": "ym2612"
    },
    {
      "channel": 2,
      "note": 53,
      "start": 44.7247,
      "duration": 0.0207,
      "velocity": 88,
      "chip": "ym2612"
    },
    {
      "channel": 0,
      "note": 103,
      "start": 44.7404,
      "duration": 0.0125,
      "velocity": 1,
      "chip": "ym2612"
    },
    {
      "channel": 0,
      "note": 94,
      "start": 44.7698,
      "duration": 0.0138,
      "velocity": 1,
      "chip": "ym2612"
    },
    {
      "channel": 2,
      "note": 53,
      "start": 44.78,
      "duration": 0.0194,
      "velocity": 88,
      "chip": "ym2612"
    },
    {
      "channel": 0,
      "note": 89,
      "start": 44.7934,
      "duration": 0.0222,
      "velocity": 1,
      "chip": "ym2612"
    },
    {
      "channel": 0,
      "note": 87,
      "start": 44.8351,
      "duration": 0.0305,
      "velocity": 1,
      "chip": "ym2612"
    },
    {
      "channel": 2,
      "note": 53,
      "start": 44.8526,
      "duration": 0.0634,
      "velocity": 88,
      "chip": "ym2612"
    },
    {
      "channel": 0,
      "note": 84,
      "start": 44.8852,
      "duration": 0.0472,
      "velocity": 1,
      "chip": "ym2612"
    },
    {
      "channel": 0,
      "note": 82,
      "start": 44.9518,
      "duration": 0.0305,
      "velocity": 1,
      "chip": "ym2612"
    },
    {
      "channel": 2,
      "note": 53,
      "start": 44.9692,
      "duration": 0.058,
      "velocity": 88,
      "chip": "ym2612"
    },
    {
      "channel": 0,
      "note": 111,
      "start": 45.0184,
      "duration": 0.0162,
      "velocity": 1,
      "chip": "ym2612"
    },
    {
      "channel": 0,
      "note": 108,
      "start": 45.0459,
      "duration": 0.0201,
      "velocity": 1,
      "chip": "ym2612"
    },
    {
      "channel": 2,
      "note": 53,
      "start": 45.0546,
      "duration": 0.0275,
      "velocity": 88,
      "chip": "ym2612"
    },
    {
      "channel": 0,
      "note": 106,
      "start": 45.0773,
      "duration": 0.0118,
      "velocity": 1,
      "chip": "ym2612"
    },
    {
      "channel": 0,
      "note": 103,
      "start": 45.0998,
      "duration": 0.0204,
      "velocity": 1,
      "chip": "ym2612"
    },
    {
      "channel": 2,
      "note": 53,
      "start": 45.1163,
      "duration": 0.0191,
      "velocity": 88,
      "chip": "ym2612"
    },
    {
      "channel": 0,
      "note": 99,
      "start": 45.1297,
      "duration": 0.0125,
      "velocity": 1,
      "chip": "ym2612"
    },
    {
      "channel": 0,
      "note": 94,
      "start": 45.159,
      "duration": 0.0132,
      "velocity": 1,
      "chip": "ym2612"
    },
    {
      "channel": 2,
      "note": 53,
      "start": 45.1685,
      "duration": 0.0192,
      "velocity": 88,
      "chip": "ym2612"
    },
    {
      "channel": 0,
      "note": 89,
      "start": 45.1821,
      "duration": 0.0307,
      "velocity": 1,
      "chip": "ym2612"
    },
    {
      "channel": 0,
      "note": 82,
      "start": 45.2322,
      "duration": 0.0307,
      "velocity": 1,
      "chip": "ym2612"
    },
    {
      "channel": 1,
      "note": 70,
      "start": 45.25,
      "duration": 1.8949,
      "velocity": 122,
      "chip": "ym2612"
    },
    {
      "channel": 2,
      "note": 58,
      "start": 45.253,
      "duration": 0.0393,
      "velocity": 88,
      "chip": "ym2612"
    },
    {
      "channel": 3,
      "note": 82,
      "start": 45.2556,
      "duration": 0.1049,
      "velocity": 97,
      "chip": "ym2612"
    },
    {
      "channel": 0,
      "note": 82,
      "start": 45.2822,
      "duration": 0.024,
      "velocity": 1,
      "chip": "ym2612"
    },
    {
      "channel": 0,
      "note": 89,
      "start": 45.3172,
      "duration": 0.0126,
      "velocity": 1,
      "chip": "ym2612"
    },
    {
      "channel": 2,
      "note": 58,
      "start": 45.3253,
      "duration": 0.0281,
      "velocity": 88,
      "chip": "ym2612"
    },
    {
      "channel": 0,
      "note": 94,
      "start": 45.3412,
      "duration": 0.0191,
      "velocity": 1,
      "chip": "ym2612"
    },
    {
      "channel": 0,
      "note": 101,
      "start": 45.3704,
      "duration": 0.0143,
      "velocity": 1,
      "chip": "ym2612"
    },
    {
      "channel": 2,
      "note": 58,
      "start": 45.3798,
      "duration": 0.0276,
      "velocity": 88,
      "chip": "ym2612"
    },
    {
      "channel": 0,
      "note": 106,
      "start": 45.4014,
      "duration": 0.0138,
      "velocity": 1,
      "chip": "ym2612"
    },
    {
      "channel": 0,
      "note": 103,
      "start": 45.4347,
      "duration": 0.0472,
      "velocity": 1,
      "chip": "ym2612"
    },
    {
      "channel": 2,
      "note": 58,
      "start": 45.452,
      "duration": 0.0634,
      "velocity": 88,
      "chip": "ym2612"
    },
    {
      "channel": 0,
      "note": 101,
      "start": 45.5012,
      "duration": 0.0306,
      "velocity": 1,
      "chip": "ym2612"
    },
    {
      "channel": 0,
      "note": 98,
      "start": 45.5513,
      "duration": 0.0472,
      "velocity": 1,
      "chip": "ym2612"
    },
    {
      "channel": 2,
      "note": 58,
      "start": 45.5855,
      "duration": 0.0412,
      "velocity": 88,
      "chip": "ym2612"
    },
    {
      "channel": 0,
      "note": 94,
      "start": 45.6179,
      "duration": 0.0161,
      "velocity": 1,
      "chip": "ym2612"
    },
    {
      "channel": 0,
      "note": 89,
      "start": 45.6523,
      "duration": 0.0116,
      "velocity": 1,
      "chip": "ym2612"
    },
    {
      "channel": 2,
      "note": 58,
      "start": 45.6594,
      "duration": 0.0204,
      "velocity": 88,
      "chip": "ym2612"
    },
    {
      "channel": 0,
      "note": 84,
      "start": 45.675,
      "duration": 0.0201,
      "velocity": 1,
      "chip": "ym2612"
    },
    {
      "channel": 0,
      "note": 82,
      "start": 45.7039,
      "duration": 0.0143,
      "velocity": 1,
      "chip": "ym2612"
    },
    {
      "channel": 2,
      "note": 58,
      "start": 45.7131,
      "duration": 0.0281,
      "velocity": 88,
      "chip": "ym2612"
    },
    {
      "channel": 0,
      "note": 79,
      "start": 45.7281,
      "duration": 0.0203,
      "velocity": 1,
      "chip": "ym2612"
    },
    {
      "channel": 0,
      "note": 77,
      "start": 45.7586,
      "duration": 0.0131,
      "velocity": 1,
      "chip": "ym2612"
    },
    {
      "channel": 2,
      "note": 58,
      "start": 45.7681,
      "duration": 0.0281,
      "velocity": 88,
      "chip": "ym2612"
    },
    {
      "channel": 0,
      "note": 79,
      "start": 45.7898,
      "duration": 0.0229,
      "velocity": 1,
      "chip": "ym2612"
    },
    {
      "channel": 0,
      "note": 82,
      "start": 45.8321,
      "duration": 0.0472,
      "velocity": 1,
      "chip": "ym2612"
    },
    {
      "channel": 2,
      "note": 58,
      "start": 45.8496,
      "duration": 0.0581,
      "velocity": 88,
      "chip": "ym2612"
    },
    {
      "channel": 0,
      "note": 84,
      "start": 45.8988,
      "duration": 0.0157,
      "velocity": 1,
      "chip": "ym2612"
    },
    {
      "channel": 0,
      "note": 86,
      "start": 45.9245,
      "duration": 0.0207,
      "velocity": 1,
      "chip": "ym2612"
    },
    {
      "channel": 2,
      "note": 58,
      "start": 45.9345,
      "duration": 0.0267,
      "velocity": 88,
      "chip": "ym2612"
    },
    {
      "channel": 0,
      "note": 89,
      "start": 45.9563,
      "duration": 0.0123,
      "velocity": 1,
      "chip": "ym2612"
    },
    {
      "channel": 0,
      "note": 94,
      "start": 45.9793,
      "duration": 0.0201,
      "velocity": 1,
      "chip": "ym2612"
    },
    {
      "channel": 2,
      "note": 58,
      "start": 45.9958,
      "duration": 0.0194,
      "velocity": 88,
      "chip": "ym2612"
    },
    {
      "channel": 0,
      "note": 98,
      "start": 46.0093,
      "duration": 0.0131,
      "velocity": 1,
      "chip": "ym2612"
    },
    {
      "channel": 0,
      "note": 101,
      "start": 46.0516,
      "duration": 0.0305,
      "velocity": 1,
      "chip": "ym2612"
    },
    {
      "channel": 2,
      "note": 58,
      "start": 46.0689,
      "duration": 0.0468,
      "velocity": 88,
      "chip": "ym2612"
    },
    {
      "channel": 0,
      "note": 103,
      "start": 46.1015,
      "duration": 0.0472,
      "velocity": 1,
      "chip": "ym2612"
    },
    {
      "channel": 0,
      "note": 106,
      "start": 46.1682,
      "duration": 0.0306,
      "velocity": 1,
      "chip": "ym2612"
    },
    {
      "channel": 2,
      "note": 58,
      "start": 46.1856,
      "duration": 0.0482,
      "velocity": 88,
      "chip": "ym2612"
    },
    {
      "channel": 0,
      "note": 103,
      "start": 46.2182,
      "duration": 0.0229,
      "velocity": 1,
      "chip": "ym2612"
    },
    {
      "channel": 0,
      "note": 101,
      "start": 46.2524,
      "duration": 0.0121,
      "velocity": 1,
      "chip": "ym2612"
    },
    {
      "channel": 2,
      "note": 58,
      "start": 46.2597,
      "duration": 0.0281,
      "velocity": 88,
      "chip": "ym2612"
    },
    {
      "channel": 0,
      "note": 98,
      "start": 46.2818,
      "duration": 0.0141,
      "velocity": 1,
      "chip": "ym2612"
    },
    {
      "channel": 0,
      "note": 94,
      "start": 46.3048,
      "duration": 0.0217,
      "velocity": 1,
      "chip": "ym2612"
    },
    {
      "channel": 2,
      "note": 58,
      "start": 46.3141,
      "duration": 0.0276,
      "velocity": 88,
      "chip": "ym2612"
    },
    {
      "channel": 0,
      "note": 89,
      "start": 46.3359,
      "duration": 0.013,
      "velocity": 1,
      "chip": "ym2612"
    },
    {
      "channel": 0,
      "note": 84,
      "start": 46.3588,
      "duration": 0.0208,
      "velocity": 1,
      "chip": "ym2612"
    },
    {
      "channel": 2,
      "note": 58,
      "start": 46.3743,
      "duration": 0.0225,
      "velocity": 88,
      "chip": "ym2612"
    },
    {
      "channel": 0,
      "note": 82,
      "start": 46.3905,
      "duration": 0.0228,
      "velocity": 1,
      "chip": "ym2612"
    },
    {
      "channel": 0,
      "note": 79,
      "start": 46.4493,
      "duration": 0.0306,
      "velocity": 1,
      "chip": "ym2612"
    },
    {
      "channel": 2,
      "note": 58,
      "start": 46.4668,
      "duration": 0.0425,
      "velocity": 88,
      "chip": "ym2612"
    },
    {
      "channel": 0,
      "note": 77,
      "start": 46.4994,
      "duration": 0.0239,
      "velocity": 1,
      "chip": "ym2612"
    },
    {
      "channel": 0,
      "note": 84,
      "start": 46.5342,
      "duration": 0.013,
      "velocity": 1,
      "chip": "ym2612"
    },
    {
      "channel": 2,
      "note": 58,
      "start": 46.5429,
      "duration": 0.0265,
      "velocity": 88,
      "chip": "ym2612"
    },
    {
      "channel": 0,
      "note": 89,
      "start": 46.5583,
      "duration": 0.018,
      "velocity": 1,
      "chip": "ym2612"
    },
    {
      "channel": 0,
      "note": 106,
      "start": 46.5863,
      "duration": 0.0143,
      "velocity": 1,
      "chip": "ym2612"
    },
    {
      "channel": 2,
      "note": 58,
      "start": 46.5957,
      "duration": 0.0273,
      "velocity": 88,
      "chip": "ym2612"
    },
    {
      "channel": 0,
      "note": 103,
      "start": 46.6108,
      "duration": 0.02,
      "velocity": 1,
      "chip": "ym2612"
    },
    {
      "channel": 0,
      "note": 101,
      "start": 46.6502,
      "duration": 0.0305,
      "velocity": 1,
      "chip": "ym2612"
    },
    {
      "channel": 2,
      "note": 58,
      "start": 46.6676,
      "duration": 0.0634,
      "velocity": 88,
      "chip": "ym2612"
    },
    {
      "channel": 0,
      "note": 98,
      "start": 46.7168,
      "duration": 0.0306,
      "velocity": 1,
      "chip": "ym2612"
    },
    {
      "channel": 0,
      "note": 94,
      "start": 46.7669,
      "duration": 0.0472,
      "velocity": 1,
      "chip": "ym2612"
    },
    {
      "channel": 2,
      "note": 58,
      "start": 46.7843,
      "duration": 0.058,
      "velocity": 88,
      "chip": "ym2612"
    },
    {
      "channel": 0,
      "note": 106,
      "start": 46.8334,
      "duration": 0.0161,
      "velocity": 1,
      "chip": "ym2612"
    },
    {
      "channel": 0,
      "note": 103,
      "start": 46.8609,
      "duration": 0.0202,
      "velocity": 1,
      "chip": "ym2612"
    },
    {
      "channel": 2,
      "note": 58,
      "start": 46.876,
      "duration": 0.0211,
      "velocity": 88,
      "chip": "ym2612"
    },
    {
      "channel": 0,
      "note": 101,
      "start": 46.8924,
      "duration": 0.0117,
      "velocity": 1,
      "chip": "ym2612"
    },
    {
      "channel": 0,
      "note": 98,
      "start": 46.9209,
      "duration": 0.014,
      "velocity": 1,
      "chip": "ym2612"
    },
    {
      "channel": 2,
      "note": 58,
      "start": 46.931,
      "duration": 0.0191,
      "velocity": 88,
      "chip": "ym2612"
    },
    {
      "channel": 0,
      "note": 94,
      "start": 46.9444,
      "duration": 0.0195,
      "velocity": 1,
      "chip": "ym2612"
    },
    {
      "channel": 0,
      "note": 89,
      "start": 46.974,
      "duration": 0.0132,
      "velocity": 1,
      "chip": "ym2612"
    },
    {
      "channel": 2,
      "note": 58,
      "start": 46.9835,
      "duration": 0.0283,
      "velocity": 88,
      "chip": "ym2612"
    },
    {
      "channel": 0,
      "note": 84,
      "start": 46.9972,
      "duration": 0.0311,
      "velocity": 1,
      "chip": "ym2612"
    },
    {
      "channel": 0,
      "note": 77,
      "start": 47.0477,
      "duration": 0.0305,
      "velocity": 1,
      "chip": "ym2612"
    },
    {
      "channel": 2,
      "note": 58,
      "start": 47.0652,
      "duration": 0.0581,
      "velocity": 88,
      "chip": "ym2612"
    },
    {
      "channel": 0,
      "note": 106,
      "start": 47.1144,
      "duration": 0.0155,
      "velocity": 1,
      "chip": "ym2612"
    },
    {
      "channel": 0,
      "note": 101,
      "start": 47.139,
      "duration": 0.0208,
      "velocity": 1,
      "chip": "ym2612"
    },
    {
      "channel": 2,
      "note": 58,
      "start": 47.1489,
      "duration": 0.0269,
      "velocity": 88,
      "chip": "ym2612"
    },
    {
      "channel": 0,
      "note": 98,
      "start": 47.1711,
      "duration": 0.0117,
      "velocity": 1,
      "chip": "ym2612"
    },
    {
      "channel": 0,
      "note": 89,
      "start": 47.1934,
      "duration": 0.0232,
      "velocity": 1,
      "chip": "ym2612"
    },
    {
      "channel": 1,
      "note": 77,
      "start": 47.2082,
      "duration": 0.4332,
      "velocity": 122,
      "chip": "ym2612"
    },
    {
      "channel": 2,
      "note": 58,
      "start": 47.2124,
      "duration": 0.0188,
      "velocity": 88,
      "chip": "ym2612"
    },
    {
      "channel": 4,
      "note": 77,
      "start": 47.2153,
      "duration": 0.3837,
      "velocity": 97,
      "chip": "ym2612"
    },
    {
      "channel": 0,
      "note": 84,
      "start": 47.2263,
      "duration": 0.0121,
      "velocity": 1,
      "chip": "ym2612"
    },
    {
      "channel": 0,
      "note": 82,
      "start": 47.2486,
      "duration": 0.0466,
      "velocity": 1,
      "chip": "ym2612"
    },
    {
      "channel": 2,
      "note": 58,
      "start": 47.2822,
      "duration": 0.0466,
      "velocity": 88,
      "chip": "ym2612"
    },
    {
      "channel": 0,
      "note": 79,
      "start": 47.3148,
      "duration": 0.0305,
      "velocity": 1,
      "chip": "ym2612"
    },
    {
      "channel": 0,
      "note": 77,
      "start": 47.3813,
      "duration": 0.0306,
      "velocity": 1,
      "chip": "ym2612"
    },
    {
      "channel": 2,
      "note": 58,
      "start": 47.3989,
      "duration": 0.0414,
      "velocity": 88,
      "chip": "ym2612"
    },
    {
      "channel": 0,
      "note": 106,
      "start": 47.4315,
      "duration": 0.0227,
      "velocity": 1,
      "chip": "ym2612"
    },
    {
      "channel": 0,
      "note": 103,
      "start": 47.4654,
      "duration": 0.0126,
      "velocity": 1,
      "chip": "ym2612"
    },
    {
      "channel": 2,
      "note": 58,
      "start": 47.4731,
      "duration": 0.0283,
      "velocity": 88,
      "chip": "ym2612"
    },
    {
      "channel": 0,
      "note": 101,
      "start": 47.4894,
      "duration": 0.0191,
      "velocity": 1,
      "chip": "ym2612"
    },
    {
      "channel": 0,
      "note": 98,
      "start": 47.518,
      "duration": 0.0141,
      "velocity": 1,
      "chip": "ym2612"
    },
    {
      "channel": 2,
      "note": 58,
      "start": 47.5273,
      "duration": 0.0273,
      "velocity": 88,
      "chip": "ym2612"
    },
    {
      "channel": 0,
      "note": 94,
      "start": 47.549,
      "duration": 0.0125,
      "velocity": 1,
      "chip": "ym2612"
    },
    {
      "channel": 0,
      "note": 89,
      "start": 47.5715,
      "duration": 0.0201,
      "velocity": 1,
      "chip": "ym2612"
    },
    {
      "channel": 2,
      "note": 58,
      "start": 47.5812,
      "duration": 0.0273,
      "velocity": 88,
      "chip": "ym2612"
    },
    {
      "channel": 0,
      "note": 84,
      "start": 47.6024,
      "duration": 0.0224,
      "velocity": 1,
      "chip": "ym2612"
    },
    {
      "channel": 0,
      "note": 77,
      "start": 47.6443,
      "duration": 0.0472,
      "velocity": 1,
      "chip": "ym2612"
    },
    {
      "channel": 1,
      "note": 72,
      "start": 47.6783,
      "duration": 1.7407,
      "velocity": 122,
      "chip": "ym2612"
    },
    {
      "channel": 2,
      "note": 60,
      "start": 47.6814,
      "duration": 0.0394,
      "velocity": 88,
      "chip": "ym2612"
    },
    {
      "channel": 4,
      "note": 72,
      "start": 47.6844,
      "duration": 0.1024,
      "velocity": 97,
      "chip": "ym2612"
    },
    {
      "channel": 3,
      "note": 84,
      "start": 47.687,
      "duration": 0.0997,
      "velocity": 97,
      "chip": "ym2612"
    },
    {
      "channel": 0,
      "note": 79,
      "start": 47.7109,
      "duration": 0.0174,
      "velocity": 1,
      "chip": "ym2612"
    },
    {
      "channel": 0,
      "note": 84,
      "start": 47.7449,
      "duration": 0.0126,
      "velocity": 1,
      "chip": "ym2612"
    },
    {
      "channel": 2,
      "note": 60,
      "start": 47.7534,
      "duration": 0.0206,
      "velocity": 88,
      "chip": "ym2612"
    },
    {
      "channel": 0,
      "note": 89,
      "start": 47.7682,
      "duration": 0.0184,
      "velocity": 1,
      "chip": "ym2612"
    },
    {
      "channel": 0,
      "note": 106,
      "start": 47.7966,
      "duration": 0.0135,
      "velocity": 1,
      "chip": "ym2612"
    },
    {
      "channel": 2,
      "note": 60,
      "start": 47.8052,
      "duration": 0.0278,
      "velocity": 88,
      "chip": "ym2612"
    },
    {
      "channel": 0,
      "note": 103,
      "start": 47.8207,
      "duration": 0.0202,
      "velocity": 1,
      "chip": "ym2612"
    },
    {
      "channel": 0,
      "note": 101,
      "start": 47.8603,
      "duration": 0.0305,
      "velocity": 1,
      "chip": "ym2612"
    },
    {
      "channel": 2,
      "note": 60,
      "start": 47.8777,
      "duration": 0.0634,
      "velocity": 88,
      "chip": "ym2612"
    },
    {
      "channel": 0,
      "note": 98,
      "start": 47.9269,
      "duration": 0.0306,
      "velocity": 1,
      "chip": "ym2612"
    },
    {
      "channel": 0,
      "note": 94,
      "start": 47.977,
      "duration": 0.0306,
      "velocity": 1,
      "chip": "ym2612"
    },
    {
      "channel": 2,
      "note": 60,
      "start": 47.9944,
      "duration": 0.058,
      "velocity": 88,
      "chip": "ym2612"
    },
    {
      "channel": 0,
      "note": 106,
      "start": 48.0435,
      "duration": 0.0161,
      "velocity": 1,
      "chip": "ym2612"
    },
    {
      "channel": 0,
      "note": 103,
      "start": 48.071,
      "duration": 0.0201,
      "velocity": 1,
      "chip": "ym2612"
    },
    {
      "channel": 2,
      "note": 60,
      "start": 48.0797,
      "duration": 0.0275,
      "velocity": 88,
      "chip": "ym2612"
    },
    {
      "channel": 0,
      "note": 101,
      "start": 48.1024,
      "duration": 0.0117,
      "velocity": 1,
      "chip": "ym2612"
    },
    {
      "channel": 0,
      "note": 98,
      "start": 48.1249,
      "duration": 0.0204,
      "velocity": 1,
      "chip": "ym2612"
    },
    {
      "channel": 2,
      "note": 60,
      "start": 48.1414,
      "duration": 0.0191,
      "velocity": 88,
      "chip": "ym2612"
    },
    {
      "channel": 0,
      "note": 94,
      "start": 48.1548,
      "duration": 0.0125,
      "velocity": 1,
      "chip": "ym2612"
    },
    {
      "channel": 0,
      "note": 89,
      "start": 48.1842,
      "duration": 0.0132,
      "velocity": 1,
      "chip": "ym2612"
    },
    {
      "channel": 2,
      "note": 60,
      "start": 48.1938,
      "duration": 0.0196,
      "velocity": 88,
      "chip": "ym2612"
    },
    {
      "channel": 0,
      "note": 84,
      "start": 48.2075,
      "duration": 0.0311,
      "velocity": 1,
      "chip": "ym2612"
    },
    {
      "channel": 0,
      "note": 77,
      "start": 48.2581,
      "duration": 0.0305,
      "velocity": 1,
      "chip": "ym2612"
    },
    {
      "channel": 2,
      "note": 60,
      "start": 48.2755,
      "duration": 0.0483,
      "velocity": 88,
      "chip": "ym2612"
    },
    {
      "channel": 0,
      "note": 106,
      "start": 48.3081,
      "duration": 0.0229,
      "velocity": 1,
      "chip": "ym2612"
    },
    {
      "channel": 0,
      "note": 101,
      "start": 48.3421,
      "duration": 0.012,
      "velocity": 1,
      "chip": "ym2612"
    },
    {
      "channel": 2,
      "note": 60,
      "start": 48.3495,
      "duration": 0.0274,
      "velocity": 88,
      "chip": "ym2612"
    },
    {
      "channel": 0,
      "note": 98,
      "start": 48.3712,
      "duration": 0.0137,
      "velocity": 1,
      "chip": "ym2612"
    },
    {
      "channel": 0,
      "note": 94,
      "start": 48.3935,
      "duration": 0.0211,
      "velocity": 1,
      "chip": "ym2612"
    },
    {
      "channel": 2,
      "note": 60,
      "start": 48.4039,
      "duration": 0.0263,
      "velocity": 88,
      "chip": "ym2612"
    },
    {
      "channel": 0,
      "note": 89,
      "start": 48.4244,
      "duration": 0.0152,
      "velocity": 1,
      "chip": "ym2612"
    },
    {
      "channel": 0,
      "note": 84,
      "start": 48.4591,
      "duration": 0.0472,
      "velocity": 1,
      "chip": "ym2612"
    },
    {
      "channel": 2,
      "note": 60,
      "start": 48.4933,
      "duration": 0.0466,
      "velocity": 88,
      "chip": "ym2612"
    },
    {
      "channel": 0,
      "note": 82,
      "start": 48.5256,
      "duration": 0.0306,
      "velocity": 1,
      "chip": "ym2612"
    },
    {
      "channel": 0,
      "note": 79,
      "start": 48.5923,
      "duration": 0.0306,
      "velocity": 1,
      "chip": "ym2612"
    },
    {
      "channel": 2,
      "note": 60,
      "start": 48.6099,
      "duration": 0.0414,
      "velocity": 88,
      "chip": "ym2612"
    },
    {
      "channel": 0,
      "note": 77,
      "start": 48.6424,
      "duration": 0.0157,
      "velocity": 1,
      "chip": "ym2612"
    },
    {
      "channel": 0,
      "note": 106,
      "start": 48.6765,
      "duration": 0.0118,
      "velocity": 1,
      "chip": "ym2612"
    },
    {
      "channel": 2,
      "note": 60,
      "start": 48.6837,
      "duration": 0.0207,
      "velocity": 88,
      "chip": "ym2612"
    },
    {
      "channel": 0,
      "note": 103,
      "start": 48.6994,
      "duration": 0.0194,
      "velocity": 1,
      "chip": "ym2612"
    },
    {
      "channel": 0,
      "note": 101,
      "start": 48.7282,
      "duration": 0.0139,
      "velocity": 1,
      "chip": "ym2612"
    },
    {
      "channel": 2,
      "note": 60,
      "start": 48.7372,
      "duration": 0.0272,
      "velocity": 88,
      "chip": "ym2612"
    },
    {
      "channel": 0,
      "note": 98,
      "start": 48.7515,
      "duration": 0.0205,
      "velocity": 1,
      "chip": "ym2612"
    },
    {
      "channel": 0,
      "note": 94,
      "start": 48.782,
      "duration": 0.0136,
      "velocity": 1,
      "chip": "ym2612"
    },
    {
      "channel": 2,
      "note": 60,
      "start": 48.7918,
      "duration": 0.0278,
      "velocity": 88,
      "chip": "ym2612"
    },
    {
      "channel": 0,
      "note": 89,
      "start": 48.8138,
      "duration": 0.0224,
      "velocity": 1,
      "chip": "ym2612"
    },
    {
      "channel": 0,
      "note": 84,
      "start": 48.8555,
      "duration": 0.0473,
      "velocity": 1,
      "chip": "ym2612"
    },
    {
      "channel": 2,
      "note": 60,
      "start": 48.8731,
      "duration": 0.0591,
      "velocity": 88,
      "chip": "ym2612"
    },
    {
      "channel": 0,
      "note": 77,
      "start": 48.9223,
      "duration": 0.0177,
      "velocity": 1,
      "chip": "ym2612"
    },
    {
      "channel": 0,
      "note": 84,
      "start": 48.949,
      "duration": 0.0213,
      "velocity": 1,
      "chip": "ym2612"
    },
    {
      "channel": 2,
      "note": 60,
      "start": 48.966,
      "duration": 0.0208,
      "velocity": 88,
      "chip": "ym2612"
    },
    {
      "channel": 0,
      "note": 89,
      "start": 48.9814,
      "duration": 0.0112,
      "velocity": 1,
      "chip": "ym2612"
    },
    {
      "channel": 0,
      "note": 106,
      "start": 49.01,
      "duration": 0.0139,
      "velocity": 1,
      "chip": "ym2612"
    },
    {
      "channel": 2,
      "note": 60,
      "start": 49.019,
      "duration": 0.0205,
      "velocity": 88,
      "chip": "ym2612"
    },
    {
      "channel": 0,
      "note": 103,
      "start": 49.0342,
      "duration": 0.0204,
      "velocity": 1,
      "chip": "ym2612"
    },
    {
      "channel": 0,
      "note": 101,
      "start": 49.074,
      "duration": 0.0307,
      "velocity": 1,
      "chip": "ym2612"
    },
    {
      "channel": 2,
      "note": 60,
      "start": 49.0915,
      "duration": 0.0634,
      "velocity": 88,
      "chip": "ym2612"
    },
    {
      "channel": 0,
      "note": 98,
      "start": 49.1241,
      "duration": 0.0472,
      "velocity": 1,
      "chip": "ym2612"
    },
    {
      "channel": 0,
      "note": 94,
      "start": 49.1908,
      "duration": 0.0305,
      "velocity": 1,
      "chip": "ym2612"
    },
    {
      "channel": 2,
      "note": 60,
      "start": 49.2082,
      "duration": 0.058,
      "velocity": 88,
      "chip": "ym2612"
    },
    {
      "channel": 0,
      "note": 106,
      "start": 49.2573,
      "duration": 0.0161,
      "velocity": 1,
      "chip": "ym2612"
    },
    {
      "channel": 0,
      "note": 103,
      "start": 49.2848,
      "duration": 0.0201,
      "velocity": 1,
      "chip": "ym2612"
    },
    {
      "channel": 2,
      "note": 60,
      "start": 49.2935,
      "duration": 0.0275,
      "velocity": 88,
      "chip": "ym2612"
    },
    {
      "channel": 0,
      "note": 101,
      "start": 49.3163,
      "duration": 0.0118,
      "velocity": 1,
      "chip": "ym2612"
    },
    {
      "channel": 0,
      "note": 98,
      "start": 49.3388,
      "duration": 0.0208,
      "velocity": 1,
      "chip": "ym2612"
    },
    {
      "channel": 2,
      "note": 60,
      "start": 49.3471,
      "duration": 0.0277,
      "velocity": 88,
      "chip": "ym2612"
    },
    {
      "channel": 0,
      "note": 94,
      "start": 49.3691,
      "duration": 0.0125,
      "velocity": 1,
      "chip": "ym2612"
    },
    {
      "channel": 0,
      "note": 89,
      "start": 49.3912,
      "duration": 0.0202,
      "velocity": 1,
      "chip": "ym2612"
    },
    {
      "channel": 2,
      "note": 60,
      "start": 49.4078,
      "duration": 0.0195,
      "velocity": 88,
      "chip": "ym2612"
    },
    {
      "channel": 0,
      "note": 84,
      "start": 49.4215,
      "duration": 0.0144,
      "velocity": 1,
      "chip": "ym2612"
    },
    {
      "channel": 0,
      "note": 77,
      "start": 49.4721,
      "duration": 0.0305,
      "velocity": 1,
      "chip": "ym2612"
    },
    {
      "channel": 1,
      "note": 79,
      "start": 49.489,
      "duration": 0.1557,
      "velocity": 122,
      "chip": "ym2612"
    },
    {
      "channel": 2,
      "note": 60,
      "start": 49.4921,
      "duration": 0.0388,
      "velocity": 88,
      "chip": "ym2612"
    },
    {
      "channel": 4,
      "note": 79,
      "start": 49.4954,
      "duration": 0.1411,
      "velocity": 97,
      "chip": "ym2612"
    },
    {
      "channel": 0,
      "note": 106,
      "start": 49.522,
      "duration": 0.0228,
      "velocity": 1,
      "chip": "ym2612"
    },
    {
      "channel": 0,
      "note": 101,
      "start": 49.556,
      "duration": 0.012,
      "velocity": 1,
      "chip": "ym2612"
    },
    {
      "channel": 2,
      "note": 60,
      "start": 49.5634,
      "duration": 0.0278,
      "velocity": 88,
      "chip": "ym2612"
    },
    {
      "channel": 0,
      "note": 98,
      "start": 49.579,
      "duration": 0.0202,
      "velocity": 1,
      "chip": "ym2612"
    },
    {
      "channel": 0,
      "note": 89,
      "start": 49.6078,
      "duration": 0.0142,
      "velocity": 1,
      "chip": "ym2612"
    },
    {
      "channel": 2,
      "note": 72,
      "start": 49.6183,
      "duration": 0.0266,
      "velocity": 88,
      "chip": "ym2612"
    },
    {
      "channel": 0,
      "note": 84,
      "start": 49.6391,
      "duration": 0.0152,
      "velocity": 1,
      "chip": "ym2612"
    },
    {
      "channel": 0,
      "note": 82,
      "start": 49.6738,
      "duration": 0.0472,
      "velocity": 1,
      "chip": "ym2612"
    },
    {
      "channel": 2,
      "note": 72,
      "start": 49.6913,
      "duration": 0.0633,
      "velocity": 88,
      "chip": "ym2612"
    },
    {
      "channel": 0,
      "note": 79,
      "start": 49.7405,
      "duration": 0.0305,
      "velocity": 1,
      "chip": "ym2612"
    },
    {
      "channel": 1,
      "note": 82,
      "start": 49.7435,
      "duration": 0.2746,
      "velocity": 122,
      "chip": "ym2612"
    },
    {
      "channel": 4,
      "note": 82,
      "start": 49.747,
      "duration": 0.2713,
      "velocity": 97,
      "chip": "ym2612"
    },
    {
      "channel": 0,
      "note": 77,
      "start": 49.7905,
      "duration": 0.0471,
      "velocity": 1,
      "chip": "ym2612"
    },
    {
      "channel": 2,
      "note": 60,
      "start": 49.8246,
      "duration": 0.0412,
      "velocity": 88,
      "chip": "ym2612"
    },
    {
      "channel": 0,
      "note": 106,
      "start": 49.857,
      "duration": 0.0161,
      "velocity": 1,
      "chip": "ym2612"
    },
    {
      "channel": 0,
      "note": 103,
      "start": 49.8915,
      "duration": 0.0116,
      "velocity": 1,
      "chip": "ym2612"
    },
    {
      "channel": 2,
      "note": 60,
      "start": 49.8986,
      "duration": 0.0206,
      "velocity": 88,
      "chip": "ym2612"
    },
    {
      "channel": 0,
      "note": 101,
      "start": 49.9141,
      "duration": 0.0203,
      "velocity": 1,
      "chip": "ym2612"
    },
    {
      "channel": 0,
      "note": 98,
      "start": 49.943,
      "duration": 0.0142,
      "velocity": 1,
      "chip": "ym2612"
    },
    {
      "channel": 2,
      "note": 72,
      "start": 49.9522,
      "duration": 0.021,
      "velocity": 88,
      "chip": "ym2612"
    },
    {
      "channel": 0,
      "note": 94,
      "start": 49.9671,
      "duration": 0.02,
      "velocity": 1,
      "chip": "ym2612"
    },
    {
      "channel": 0,
      "note": 89,
      "start": 49.9974,
      "duration": 0.0132,
      "velocity": 1,
      "chip": "ym2612"
    },
    {
      "channel": 2,
      "note": 72,
      "start": 50.007,
      "duration": 0.0279,
      "velocity": 88,
      "chip": "ym2612"
    },
    {
      "channel": 0,
      "note": 84,
      "start": 50.0206,
      "duration": 0.0308,
      "velocity": 1,
      "chip": "ym2612"
    },
    {
      "channel": 0,
      "note": 77,
      "start": 50.0708,
      "duration": 0.0307,
      "velocity": 1,
      "chip": "ym2612"
    },
    {
      "channel": 1,
      "note": 63,
      "start": 50.0881,
      "duration": 1.7424,
      "velocity": 122,
      "chip": "ym2612"
    },
    {
      "channel": 2,
      "note": 51,
      "start": 50.0911,
      "duration": 0.0576,
      "velocity": 88,
      "chip": "ym2612"
    },
    {
      "channel": 3,
      "note": 75,
      "start": 50.0938,
      "duration": 0.1155,
      "velocity": 97,
      "chip": "ym2612"
    },
    {
      "channel": 0,
      "note": 89,
      "start": 50.1393,
      "duration": 0.0162,
      "velocity": 1,
      "chip": "ym2612"
    },
    {
      "channel": 0,
      "note": 94,
      "start": 50.165,
      "duration": 0.0215,
      "velocity": 1,
      "chip": "ym2612"
    },
    {
      "channel": 2,
      "note": 51,
      "start": 50.1737,
      "duration": 0.0278,
      "velocity": 88,
      "chip": "ym2612"
    },
    {
      "channel": 0,
      "note": 99,
      "start": 50.1957,
      "duration": 0.0135,
      "velocity": 1,
      "chip": "ym2612"
    },
    {
      "channel": 0,
      "note": 106,
      "start": 50.2185,
      "duration": 0.0219,
      "velocity": 1,
      "chip": "ym2612"
    },
    {
      "channel": 4,
      "note": 75,
      "start": 50.2349,
      "duration": 1.5875,
      "velocity": 122,
      "chip": "ym2612"
    },
    {
      "channel": 2,
      "note": 51,
      "start": 50.2378,
      "duration": 0.0186,
      "velocity": 88,
      "chip": "ym2612"
    },
    {
      "channel": 0,
      "note": 111,
      "start": 50.2494,
      "duration": 0.0126,
      "velocity": 1,
      "chip": "ym2612"
    },
    {
      "channel": 0,
      "note": 108,
      "start": 50.2864,
      "duration": 0.0306,
      "velocity": 1,
      "chip": "ym2612"
    },
    {
      "channel": 2,
      "note": 51,
      "start": 50.3039,
      "duration": 0.0466,
      "velocity": 88,
      "chip": "ym2612"
    },
    {
      "channel": 3,
      "note": 75,
      "start": 50.3072,
      "duration": 0.2061,
      "velocity": 97,
      "chip": "ym2612"
    },
    {
      "channel": 0,
      "note": 106,
      "start": 50.3364,
      "duration": 0.0473,
      "velocity": 1,
      "chip": "ym2612"
    },
    {
      "channel": 0,
      "note": 103,
      "start": 50.403,
      "duration": 0.0306,
      "velocity": 1,
      "chip": "ym2612"
    },
    {
      "channel": 2,
      "note": 51,
      "start": 50.4206,
      "duration": 0.0483,
      "velocity": 88,
      "chip": "ym2612"
    },
    {
      "channel": 0,
      "note": 99,
      "start": 50.4532,
      "duration": 0.0226,
      "velocity": 1,
      "chip": "ym2612"
    },
    {
      "channel": 0,
      "note": 94,
      "start": 50.4872,
      "duration": 0.0117,
      "velocity": 1,
      "chip": "ym2612"
    },
    {
      "channel": 2,
      "note": 51,
      "start": 50.4943,
      "duration": 0.0269,
      "velocity": 88,
      "chip": "ym2612"
    },
    {
      "channel": 0,
      "note": 89,
      "start": 50.5155,
      "duration": 0.0127,
      "velocity": 1,
      "chip": "ym2612"
    },
    {
      "channel": 0,
      "note": 87,
      "start": 50.5377,
      "duration": 0.0212,
      "velocity": 1,
      "chip": "ym2612"
    },
    {
      "channel": 2,
      "note": 51,
      "start": 50.5468,
      "duration": 0.028,
      "velocity": 88,
      "chip": "ym2612"
    },
    {
      "channel": 0,
      "note": 84,
      "start": 50.5693,
      "duration": 0.0125,
      "velocity": 1,
      "chip": "ym2612"
    },
    {
      "channel": 0,
      "note": 82,
      "start": 50.592,
      "duration": 0.0208,
      "velocity": 1,
      "chip": "ym2612"
    },
    {
      "channel": 2,
      "note": 51,
      "start": 50.6077,
      "duration": 0.022,
      "velocity": 88,
      "chip": "ym2612"
    },
    {
      "channel": 0,
      "note": 84,
      "start": 50.6237,
      "duration": 0.0224,
      "velocity": 1,
      "chip": "ym2612"
    },
    {
      "channel": 0,
      "note": 87,
      "start": 50.6654,
      "duration": 0.0473,
      "velocity": 1,
      "chip": "ym2612"
    },
    {
      "channel": 2,
      "note": 51,
      "start": 50.6996,
      "duration": 0.0415,
      "velocity": 88,
      "chip": "ym2612"
    },
    {
      "channel": 0,
      "note": 89,
      "start": 50.7322,
      "duration": 0.0155,
      "velocity": 1,
      "chip": "ym2612"
    },
    {
      "channel": 0,
      "note": 91,
      "start": 50.7652,
      "duration": 0.012,
      "velocity": 1,
      "chip": "ym2612"
    },
    {
      "channel": 2,
      "note": 51,
      "start": 50.7727,
      "duration": 0.0206,
      "velocity": 88,
      "chip": "ym2612"
    },
    {
      "channel": 0,
      "note": 94,
      "start": 50.7882,
      "duration": 0.0203,
      "velocity": 1,
      "chip": "ym2612"
    },
    {
      "channel": 0,
      "note": 99,
      "start": 50.8171,
      "duration": 0.0142,
      "velocity": 1,
      "chip": "ym2612"
    },
    {
      "channel": 2,
      "note": 51,
      "start": 50.8276,
      "duration": 0.0261,
      "velocity": 88,
      "chip": "ym2612"
    },
    {
      "channel": 0,
      "note": 103,
      "start": 50.8408,
      "duration": 0.0222,
      "velocity": 1,
      "chip": "ym2612"
    },
    {
      "channel": 0,
      "note": 106,
      "start": 50.8826,
      "duration": 0.0306,
      "velocity": 1,
      "chip": "ym2612"
    },
    {
      "channel": 2,
      "note": 51,
      "start": 50.9,
      "duration": 0.0634,
      "velocity": 88,
      "chip": "ym2612"
    },
    {
      "channel": 0,
      "note": 108,
      "start": 50.9492,
      "duration": 0.0306,
      "velocity": 1,
      "chip": "ym2612"
    },
    {
      "channel": 0,
      "note": 111,
      "start": 50.9991,
      "duration": 0.0473,
      "velocity": 1,
      "chip": "ym2612"
    },
    {
      "channel": 2,
      "note": 51,
      "start": 51.0167,
      "duration": 0.0579,
      "velocity": 88,
      "chip": "ym2612"
    },
    {
      "channel": 0,
      "note": 108,
      "start": 51.0659,
      "duration": 0.0153,
      "velocity": 1,
      "chip": "ym2612"
    },
    {
      "channel": 0,
      "note": 106,
      "start": 51.0917,
      "duration": 0.0186,
      "velocity": 1,
      "chip": "ym2612"
    },
    {
      "channel": 2,
      "note": 51,
      "start": 51.1058,
      "duration": 0.0206,
      "velocity": 88,
      "chip": "ym2612"
    },
    {
      "channel": 0,
      "note": 103,
      "start": 51.1214,
      "duration": 0.0126,
      "velocity": 1,
      "chip": "ym2612"
    },
    {
      "channel": 0,
      "note": 99,
      "start": 51.1508,
      "duration": 0.0139,
      "velocity": 1,
      "chip": "ym2612"
    },
    {
      "channel": 2,
      "note": 63,
      "start": 51.1598,
      "duration": 0.0202,
      "velocity": 88,
      "chip": "ym2612"
    },
    {
      "channel": 0,
      "note": 94,
      "start": 51.1741,
      "duration": 0.0205,
      "velocity": 1,
      "chip": "ym2612"
    },
    {
      "channel": 0,
      "note": 89,
      "start": 51.2045,
      "duration": 0.0137,
      "velocity": 1,
      "chip": "ym2612"
    },
    {
      "channel": 2,
      "note": 63,
      "start": 51.2144,
      "duration": 0.0281,
      "velocity": 88,
      "chip": "ym2612"
    },
    {
      "channel": 0,
      "note": 87,
      "start": 51.2283,
      "duration": 0.0307,
      "velocity": 1,
      "chip": "ym2612"
    },
    {
      "channel": 0,
      "note": 84,
      "start": 51.2784,
      "duration": 0.0305,
      "velocity": 1,
      "chip": "ym2612"
    },
    {
      "channel": 2,
      "note": 51,
      "start": 51.2959,
      "duration": 0.0503,
      "velocity": 88,
      "chip": "ym2612"
    },
    {
      "channel": 0,
      "note": 82,
      "start": 51.3285,
      "duration": 0.0235,
      "velocity": 1,
      "chip": "ym2612"
    },
    {
      "channel": 0,
      "note": 89,
      "start": 51.3631,
      "duration": 0.0126,
      "velocity": 1,
      "chip": "ym2612"
    },
    {
      "channel": 2,
      "note": 51,
      "start": 51.3714,
      "duration": 0.0271,
      "velocity": 88,
      "chip": "ym2612"
    },
    {
      "channel": 0,
      "note": 94,
      "start": 51.3934,
      "duration": 0.0123,
      "velocity": 1,
      "chip": "ym2612"
    },
    {
      "channel": 0,
      "note": 111,
      "start": 51.4156,
      "duration": 0.0218,
      "velocity": 1,
      "chip": "ym2612"
    },
    {
      "channel": 2,
      "note": 51,
      "start": 51.4242,
      "duration": 0.0278,
      "velocity": 88,
      "chip": "ym2612"
    },
    {
      "channel": 0,
      "note": 108,
      "start": 51.4464,
      "duration": 0.0132,
      "velocity": 1,
      "chip": "ym2612"
    },
    {
      "channel": 0,
      "note": 106,
      "start": 51.4792,
      "duration": 0.0472,
      "velocity": 1,
      "chip": "ym2612"
    },
    {
      "channel": 2,
      "note": 51,
      "start": 51.5132,
      "duration": 0.0468,
      "velocity": 88,
      "chip": "ym2612"
    },
    {
      "channel": 0,
      "note": 103,
      "start": 51.5458,
      "duration": 0.0306,
      "velocity": 1,
      "chip": "ym2612"
    },
    {
      "channel": 0,
      "note": 99,
      "start": 51.6124,
      "duration": 0.0306,
      "velocity": 1,
      "chip": "ym2612"
    },
    {
      "channel": 2,
      "note": 51,
      "start": 51.6299,
      "duration": 0.0413,
      "velocity": 88,
      "chip": "ym2612"
    },
    {
      "channel": 0,
      "note": 111,
      "start": 51.6624,
      "duration": 0.0227,
      "velocity": 1,
      "chip": "ym2612"
    },
    {
      "channel": 0,
      "note": 108,
      "start": 51.6966,
      "duration": 0.0118,
      "velocity": 1,
      "chip": "ym2612"
    },
    {
      "channel": 2,
      "note": 51,
      "start": 51.7036,
      "duration": 0.0273,
      "velocity": 88,
      "chip": "ym2612"
    },
    {
      "channel": 0,
      "note": 106,
      "start": 51.7195,
      "duration": 0.0195,
      "velocity": 1,
      "chip": "ym2612"
    },
    {
      "channel": 0,
      "note": 103,
      "start": 51.7475,
      "duration": 0.0144,
      "velocity": 1,
      "chip": "ym2612"
    },
    {
      "channel": 2,
      "note": 51,
      "start": 51.7568,
      "duration": 0.0278,
      "velocity": 88,
      "chip": "ym2612"
    },
    {
      "channel": 0,
      "note": 99,
      "start": 51.7788,
      "duration": 0.0129,
      "velocity": 1,
      "chip": "ym2612"
    },
    {
      "channel": 0,
      "note": 94,
      "start": 51.8018,
      "duration": 0.0205,
      "velocity": 1,
      "chip": "ym2612"
    },
    {
      "channel": 2,
      "note": 51,
      "start": 51.8115,
      "duration": 0.0279,
      "velocity": 88,
      "chip": "ym2612"
    },
    {
      "channel": 0,
      "note": 89,
      "start": 51.8331,
      "duration": 0.0228,
      "velocity": 1,
      "chip": "ym2612"
    },
    {
      "channel": 0,
      "note": 82,
      "start": 51.8753,
      "duration": 0.0472,
      "velocity": 1,
      "chip": "ym2612"
    },
    {
      "channel": 1,
      "note": 84,
      "start": 51.9091,
      "duration": 0.1805,
      "velocity": 122,
      "chip": "ym2612"
    },
    {
      "channel": 2,
      "note": 51,
      "start": 51.9122,
      "duration": 0.0386,
      "velocity": 88,
      "chip": "ym2612"
    },
    {
      "channel": 3,
      "note": 84,
      "start": 51.915,
      "duration": 0.0736,
      "velocity": 97,
      "chip": "ym2612"
    },
    {
      "channel": 0,
      "note": 111,
      "start": 51.9419,
      "duration": 0.0162,
      "velocity": 1,
      "chip": "ym2612"
    },
    {
      "channel": 0,
      "note": 106,
      "start": 51.9766,
      "duration": 0.012,
      "velocity": 1,
      "chip": "ym2612"
    },
    {
      "channel": 2,
      "note": 51,
      "start": 51.9841,
      "duration": 0.0201,
      "velocity": 88,
      "chip": "ym2612"
    },
    {
      "channel": 0,
      "note": 103,
      "start": 51.9995,
      "duration": 0.0113,
      "velocity": 1,
      "chip": "ym2612"
    },
    {
      "channel": 0,
      "note": 94,
      "start": 52.0276,
      "duration": 0.0135,
      "velocity": 1,
      "chip": "ym2612"
    },
    {
      "channel": 2,
      "note": 63,
      "start": 52.0377,
      "duration": 0.0187,
      "velocity": 88,
      "chip": "ym2612"
    },
    {
      "channel": 0,
      "note": 89,
      "start": 52.0505,
      "duration": 0.0223,
      "velocity": 1,
      "chip": "ym2612"
    },
    {
      "channel": 0,
      "note": 87,
      "start": 52.0924,
      "duration": 0.0304,
      "velocity": 1,
      "chip": "ym2612"
    },
    {
      "channel": 2,
      "note": 63,
      "start": 52.1098,
      "duration": 0.0634,
      "velocity": 88,
      "chip": "ym2612"
    },
    {
      "channel": 0,
      "note": 84,
      "start": 52.1424,
      "duration": 0.0471,
      "velocity": 1,
      "chip": "ym2612"
    },
    {
      "channel": 1,
      "note": 82,
      "start": 52.1454,
      "duration": 0.458,
      "velocity": 122,
      "chip": "ym2612"
    },
    {
      "channel": 3,
      "note": 82,
      "start": 52.1496,
      "duration": 0.1891,
      "velocity": 97,
      "chip": "ym2612"
    },
    {
      "channel": 0,
      "note": 82,
      "start": 52.209,
      "duration": 0.0305,
      "velocity": 1,
      "chip": "ym2612"
    },
    {
      "channel": 2,
      "note": 58,
      "start": 52.2264,
      "duration": 0.0584,
      "velocity": 88,
      "chip": "ym2612"
    },
    {
      "channel": 0,
      "note": 111,
      "start": 52.2756,
      "duration": 0.0161,
      "velocity": 1,
      "chip": "ym2612"
    },
    {
      "channel": 0,
      "note": 108,
      "start": 52.3019,
      "duration": 0.0211,
      "velocity": 1,
      "chip": "ym2612"
    },
    {
      "channel": 2,
      "note": 58,
      "start": 52.3118,
      "duration": 0.0271,
      "velocity": 88,
      "chip": "ym2612"
    },
    {
      "channel": 0,
      "note": 106,
      "start": 52.3338,
      "duration": 0.0119,
      "velocity": 1,
      "chip": "ym2612"
    },
    {
      "channel": 0,
      "note": 103,
      "start": 52.3564,
      "duration": 0.02,
      "velocity": 1,
      "chip": "ym2612"
    },
    {
      "channel": 2,
      "note": 63,
      "start": 52.3713,
      "duration": 0.0211,
      "velocity": 88,
      "chip": "ym2612"
    },
    {
      "channel": 0,
      "note": 99,
      "start": 52.3864,
      "duration": 0.0132,
      "velocity": 1,
      "chip": "ym2612"
    },
    {
      "channel": 0,
      "note": 94,
      "start": 52.4174,
      "duration": 0.014,
      "velocity": 1,
      "chip": "ym2612"
    },
    {
      "channel": 2,
      "note": 63,
      "start": 52.4271,
      "duration": 0.0193,
      "velocity": 88,
      "chip": "ym2612"
    },
    {
      "channel": 0,
      "note": 89,
      "start": 52.4404,
      "duration": 0.0306,
      "velocity": 1,
      "chip": "ym2612"
    },
    {
      "channel": 0,
      "note": 82,
      "start": 52.4904,
      "duration": 0.0305,
      "velocity": 1,
      "chip": "ym2612"
    },
    {
      "channel": 4,
      "note": 65,
      "start": 52.5078,
      "duration": 1.7369,
      "velocity": 122,
      "chip": "ym2612"
    },
    {
      "channel": 2,
      "note": 53,
      "start": 52.5107,
      "duration": 0.0482,
      "velocity": 88,
      "chip": "ym2612"
    },
    {
      "channel": 3,
      "note": 77,
      "start": 52.5138,
      "duration": 0.1121,
      "velocity": 97,
      "chip": "ym2612"
    },
    {
      "channel": 0,
      "note": 84,
      "start": 52.5405,
      "duration": 0.0242,
      "velocity": 1,
      "chip": "ym2612"
    },
    {
      "channel": 0,
      "note": 89,
      "start": 52.5758,
      "duration": 0.0122,
      "velocity": 1,
      "chip": "ym2612"
    },
    {
      "channel": 2,
      "note": 53,
      "start": 52.5843,
      "duration": 0.0264,
      "velocity": 88,
      "chip": "ym2612"
    },
    {
      "channel": 0,
      "note": 94,
      "start": 52.6058,
      "duration": 0.0121,
      "velocity": 1,
      "chip": "ym2612"
    },
    {
      "channel": 0,
      "note": 111,
      "start": 52.6281,
      "duration": 0.0141,
      "velocity": 1,
      "chip": "ym2612"
    },
    {
      "channel": 1,
      "note": 77,
      "start": 52.6363,
      "duration": 1.6008,
      "velocity": 122,
      "chip": "ym2612"
    },
    {
      "channel": 2,
      "note": 53,
      "start": 52.639,
      "duration": 0.0259,
      "velocity": 88,
      "chip": "ym2612"
    },
    {
      "channel": 0,
      "note": 108,
      "start": 52.6594,
      "duration": 0.0129,
      "velocity": 1,
      "chip": "ym2612"
    },
    {
      "channel": 0,
      "note": 106,
      "start": 52.6901,
      "duration": 0.0474,
      "velocity": 1,
      "chip": "ym2612"
    },
    {
      "channel": 2,
      "note": 53,
      "start": 52.7077,
      "duration": 0.0633,
      "velocity": 88,
      "chip": "ym2612"
    },
    {
      "channel": 3,
      "note": 77,
      "start": 52.7109,
      "duration": 0.193,
      "velocity": 97,
      "chip": "ym2612"
    },
    {
      "channel": 0,
      "note": 103,
      "start": 52.7569,
      "duration": 0.0305,
      "velocity": 1,
      "chip": "ym2612"
    },
    {
      "channel": 0,
      "note": 99,
      "start": 52.8069,
      "duration": 0.0473,
      "velocity": 1,
      "chip": "ym2612"
    },
    {
      "channel": 2,
      "note": 53,
      "start": 52.8411,
      "duration": 0.0412,
      "velocity": 88,
      "chip": "ym2612"
    },
    {
      "channel": 0,
      "note": 111,
      "start": 52.8735,
      "duration": 0.0153,
      "velocity": 1,
      "chip": "ym2612"
    },
    {
      "channel": 0,
      "note": 108,
      "start": 52.9066,
      "duration": 0.0119,
      "velocity": 1,
      "chip": "ym2612"
    },
    {
      "channel": 2,
      "note": 53,
      "start": 52.9136,
      "duration": 0.0205,
      "velocity": 88,
      "chip": "ym2612"
    },
    {
      "channel": 0,
      "note": 106,
      "start": 52.9295,
      "duration": 0.0183,
      "velocity": 1,
      "chip": "ym2612"
    },
    {
      "channel": 0,
      "note": 103,
      "start": 52.9579,
      "duration": 0.0138,
      "velocity": 1,
      "chip": "ym2612"
    },
    {
      "channel": 2,
      "note": 53,
      "start": 52.9669,
      "duration": 0.0271,
      "velocity": 88,
      "chip": "ym2612"
    },
    {
      "channel": 0,
      "note": 99,
      "start": 52.9811,
      "duration": 0.0204,
      "velocity": 1,
      "chip": "ym2612"
    },
    {
      "channel": 0,
      "note": 94,
      "start": 53.0115,
      "duration": 0.0144,
      "velocity": 1,
      "chip": "ym2612"
    },
    {
      "channel": 2,
      "note": 53,
      "start": 53.0214,
      "duration": 0.0279,
      "velocity": 88,
      "chip": "ym2612"
    },
    {
      "channel": 0,
      "note": 89,
      "start": 53.0433,
      "duration": 0.0224,
      "velocity": 1,
      "chip": "ym2612"
    },
    {
      "channel": 0,
      "note": 82,
      "start": 53.085,
      "duration": 0.0473,
      "velocity": 1,
      "chip": "ym2612"
    },
    {
      "channel": 2,
      "note": 53,
      "start": 53.1025,
      "duration": 0.058,
      "velocity": 88,
      "chip": "ym2612"
    },
    {
      "channel": 0,
      "note": 111,
      "start": 53.1518,
      "duration": 0.0154,
      "velocity": 1,
      "chip": "ym2612"
    },
    {
      "channel": 0,
      "note": 106,
      "start": 53.1762,
      "duration": 0.0214,
      "velocity": 1,
      "chip": "ym2612"
    },
    {
      "channel": 2,
      "note": 53,
      "start": 53.1925,
      "duration": 0.0212,
      "velocity": 88,
      "chip": "ym2612"
    },
    {
      "channel": 0,
      "note": 103,
      "start": 53.209,
      "duration": 0.0117,
      "velocity": 1,
      "chip": "ym2612"
    },
    {
      "channel": 0,
      "note": 99,
      "start": 53.2374,
      "duration": 0.0136,
      "velocity": 1,
      "chip": "ym2612"
    },
    {
      "channel": 2,
      "note": 53,
      "start": 53.2476,
      "duration": 0.0188,
      "velocity": 88,
      "chip": "ym2612"
    },
    {
      "channel": 0,
      "note": 94,
      "start": 53.2605,
      "duration": 0.0224,
      "velocity": 1,
      "chip": "ym2612"
    },
    {
      "channel": 0,
      "note": 89,
      "start": 53.3024,
      "duration": 0.0305,
      "velocity": 1,
      "chip": "ym2612"
    },
    {
      "channel": 2,
      "note": 53,
      "start": 53.3198,
      "duration": 0.0468,
      "velocity": 88,
      "chip": "ym2612"
    },
    {
      "channel": 0,
      "note": 87,
      "start": 53.3523,
      "duration": 0.0472,
      "velocity": 1,
      "chip": "ym2612"
    },
    {
      "channel": 0,
      "note": 84,
      "start": 53.419,
      "duration": 0.0305,
      "velocity": 1,
      "chip": "ym2612"
    },
    {
      "channel": 2,
      "note": 53,
      "start": 53.4364,
      "duration": 0.0483,
      "velocity": 88,
      "chip": "ym2612"
    },
    {
      "channel": 0,
      "note": 82,
      "start": 53.469,
      "duration": 0.0229,
      "velocity": 1,
      "chip": "ym2612"
    },
    {
      "channel": 0,
      "note": 111,
      "start": 53.5034,
      "duration": 0.0118,
      "velocity": 1,
      "chip": "ym2612"
    },
    {
      "channel": 2,
      "note": 53,
      "start": 53.5103,
      "duration": 0.0281,
      "velocity": 88,
      "chip": "ym2612"
    },
    {
      "channel": 0,
      "note": 108,
      "start": 53.5324,
      "duration": 0.014,
      "velocity": 1,
      "chip": "ym2612"
    },
    {
      "channel": 0,
      "note": 106,
      "start": 53.5551,
      "duration": 0.0216,
      "velocity": 1,
      "chip": "ym2612"
    },
    {
      "channel": 2,
      "note": 53,
      "start": 53.5643,
      "duration": 0.0277,
      "velocity": 88,
      "chip": "ym2612"
    },
    {
      "channel": 0,
      "note": 103,
      "start": 53.5862,
      "duration": 0.0129,
      "velocity": 1,
      "chip": "ym2612"
    },
    {
      "channel": 0,
      "note": 99,
      "start": 53.6092,
      "duration": 0.021,
      "velocity": 1,
      "chip": "ym2612"
    },
    {
      "channel": 2,
      "note": 53,
      "start": 53.6251,
      "duration": 0.0221,
      "velocity": 88,
      "chip": "ym2612"
    },
    {
      "channel": 0,
      "note": 94,
      "start": 53.641,
      "duration": 0.0226,
      "velocity": 1,
      "chip": "ym2612"
    },
    {
      "channel": 0,
      "note": 89,
      "start": 53.6998,
      "duration": 0.0305,
      "velocity": 1,
      "chip": "ym2612"
    },
    {
      "channel": 2,
      "note": 53,
      "start": 53.7171,
      "duration": 0.0426,
      "velocity": 88,
      "chip": "ym2612"
    },
    {
      "channel": 0,
      "note": 82,
      "start": 53.7497,
      "duration": 0.024,
      "velocity": 1,
      "chip": "ym2612"
    },
    {
      "channel": 0,
      "note": 89,
      "start": 53.7846,
      "duration": 0.0127,
      "velocity": 1,
      "chip": "ym2612"
    },
    {
      "channel": 2,
      "note": 53,
      "start": 53.7933,
      "duration": 0.0268,
      "velocity": 88,
      "chip": "ym2612"
    },
    {
      "channel": 0,
      "note": 94,
      "start": 53.8084,
      "duration": 0.0187,
      "velocity": 1,
      "chip": "ym2612"
    },
    {
      "channel": 0,
      "note": 111,
      "start": 53.8371,
      "duration": 0.0143,
      "velocity": 1,
      "chip": "ym2612"
    },
    {
      "channel": 2,
      "note": 53,
      "start": 53.8463,
      "duration": 0.0276,
      "velocity": 88,
      "chip": "ym2612"
    },
    {
      "channel": 0,
      "note": 108,
      "start": 53.868,
      "duration": 0.0138,
      "velocity": 1,
      "chip": "ym2612"
    },
    {
      "channel": 0,
      "note": 106,
      "start": 53.9011,
      "duration": 0.0473,
      "velocity": 1,
      "chip": "ym2612"
    },
    {
      "channel": 2,
      "note": 53,
      "start": 53.9187,
      "duration": 0.0634,
      "velocity": 88,
      "chip": "ym2612"
    },
    {
      "channel": 0,
      "note": 103,
      "start": 53.9678,
      "duration": 0.0306,
      "velocity": 1,
      "chip": "ym2612"
    },
    {
      "channel": 0,
      "note": 99,
      "start": 54.0178,
      "duration": 0.0473,
      "velocity": 1,
      "chip": "ym2612"
    },
    {
      "channel": 2,
      "note": 53,
      "start": 54.0353,
      "duration": 0.058,
      "velocity": 88,
      "chip": "ym2612"
    },
    {
      "channel": 0,
      "note": 111,
      "start": 54.0845,
      "duration": 0.0154,
      "velocity": 1,
      "chip": "ym2612"
    },
    {
      "channel": 0,
      "note": 108,
      "start": 54.1104,
      "duration": 0.0186,
      "velocity": 1,
      "chip": "ym2612"
    },
    {
      "channel": 2,
      "note": 53,
      "start": 54.1245,
      "duration": 0.0204,
      "velocity": 88,
      "chip": "ym2612"
    },
    {
      "channel": 0,
      "note": 106,
      "start": 54.14,
      "duration": 0.0124,
      "velocity": 1,
      "chip": "ym2612"
    },
    {
      "channel": 0,
      "note": 103,
      "start": 54.1692,
      "duration": 0.0139,
      "velocity": 1,
      "chip": "ym2612"
    },
    {
      "channel": 2,
      "note": 53,
      "start": 54.1783,
      "duration": 0.0202,
      "velocity": 88,
      "chip": "ym2612"
    },
    {
      "channel": 0,
      "note": 99,
      "start": 54.1926,
      "duration": 0.0205,
      "velocity": 1,
      "chip": "ym2612"
    },
    {
      "channel": 0,
      "note": 94,
      "start": 54.2231,
      "duration": 0.014,
      "velocity": 1,
      "chip": "ym2612"
    },
    {
      "channel": 2,
      "note": 53,
      "start": 54.233,
      "duration": 0.0284,
      "velocity": 88,
      "chip": "ym2612"
    },
    {
      "channel": 0,
      "note": 89,
      "start": 54.2472,
      "duration": 0.0306,
      "velocity": 1,
      "chip": "ym2612"
    },
    {
      "channel": 0,
      "note": 82,
      "start": 54.2973,
      "duration": 0.0305,
      "velocity": 1,
      "chip": "ym2612"
    },
    {
      "channel": 1,
      "note": 82,
      "start": 54.3143,
      "duration": 0.1969,
      "velocity": 122,
      "chip": "ym2612"
    },
    {
      "channel": 2,
      "note": 53,
      "start": 54.3174,
      "duration": 0.0553,
      "velocity": 88,
      "chip": "ym2612"
    },
    {
      "channel": 3,
      "note": 82,
      "start": 54.3202,
      "duration": 0.1912,
      "velocity": 97,
      "chip": "ym2612"
    },
    {
      "channel": 0,
      "note": 111,
      "start": 54.3639,
      "duration": 0.0153,
      "velocity": 1,
      "chip": "ym2612"
    },
    {
      "channel": 0,
      "note": 106,
      "start": 54.3882,
      "duration": 0.0208,
      "velocity": 1,
      "chip": "ym2612"
    },
    {
      "channel": 2,
      "note": 53,
      "start": 54.3981,
      "duration": 0.027,
      "velocity": 88,
      "chip": "ym2612"
    },
    {
      "channel": 0,
      "note": 103,
      "start": 54.4203,
      "duration": 0.0117,
      "velocity": 1,
      "chip": "ym2612"
    },
    {
      "channel": 0,
      "note": 94,
      "start": 54.4428,
      "duration": 0.02,
      "velocity": 1,
      "chip": "ym2612"
    },
    {
      "channel": 2,
      "note": 65,
      "start": 54.4594,
      "duration": 0.0106,
      "velocity": 88,
      "chip": "ym2612"
    },
    {
      "channel": 0,
      "note": 89,
      "start": 54.4722,
      "duration": 0.0131,
      "velocity": 1,
      "chip": "ym2612"
    },
    {
      "channel": 0,
      "note": 87,
      "start": 54.5141,
      "duration": 0.0305,
      "velocity": 1,
      "chip": "ym2612"
    },
    {
      "channel": 2,
      "note": 65,
      "start": 54.5316,
      "duration": 0.0466,
      "velocity": 88,
      "chip": "ym2612"
    },
    {
      "channel": 3,
      "note": 84,
      "start": 54.5345,
      "duration": 0.3059,
      "velocity": 97,
      "chip": "ym2612"
    },
    {
      "channel": 0,
      "note": 84,
      "start": 54.5639,
      "duration": 0.0473,
      "velocity": 1,
      "chip": "ym2612"
    },
    {
      "channel": 1,
      "note": 84,
      "start": 54.5667,
      "duration": 0.29,
      "velocity": 122,
      "chip": "ym2612"
    },
    {
      "channel": 0,
      "note": 82,
      "start": 54.6307,
      "duration": 0.0305,
      "velocity": 1,
      "chip": "ym2612"
    },
    {
      "channel": 2,
      "note": 60,
      "start": 54.6481,
      "duration": 0.0486,
      "velocity": 88,
      "chip": "ym2612"
    },
    {
      "channel": 0,
      "note": 111,
      "start": 54.6807,
      "duration": 0.0226,
      "velocity": 1,
      "chip": "ym2612"
    },
    {
      "channel": 0,
      "note": 108,
      "start": 54.7147,
      "duration": 0.0117,
      "velocity": 1,
      "chip": "ym2612"
    },
    {
      "channel": 2,
      "note": 60,
      "start": 54.722,
      "duration": 0.0275,
      "velocity": 88,
      "chip": "ym2612"
    },
    {
      "channel": 0,
      "note": 106,
      "start": 54.7376,
      "duration": 0.0191,
      "velocity": 1,
      "chip": "ym2612"
    },
    {
      "channel": 0,
      "note": 103,
      "start": 54.7661,
      "duration": 0.014,
      "velocity": 1,
      "chip": "ym2612"
    },
    {
      "channel": 2,
      "note": 53,
      "start": 54.7752,
      "duration": 0.0274,
      "velocity": 88,
      "chip": "ym2612"
    },
    {
      "channel": 0,
      "note": 99,
      "start": 54.7971,
      "duration": 0.0126,
      "velocity": 1,
      "chip": "ym2612"
    },
    {
      "channel": 0,
      "note": 94,
      "start": 54.8198,
      "duration": 0.0205,
      "velocity": 1,
      "chip": "ym2612"
    },
    {
      "channel": 2,
      "note": 53,
      "start": 54.8294,
      "duration": 0.0275,
      "velocity": 88,
      "chip": "ym2612"
    },
    {
      "channel": 0,
      "note": 89,
      "start": 54.851,
      "duration": 0.0223,
      "velocity": 1,
      "chip": "ym2612"
    },
    {
      "channel": 0,
      "note": 82,
      "start": 54.8927,
      "duration": 0.0473,
      "velocity": 1,
      "chip": "ym2612"
    },
    {
      "channel": 1,
      "note": 67,
      "start": 54.927,
      "duration": 1.7308,
      "velocity": 122,
      "chip": "ym2612"
    },
    {
      "channel": 2,
      "note": 55,
      "start": 54.93,
      "duration": 0.0399,
      "velocity": 88,
      "chip": "ym2612"
    },
    {
      "channel": 4,
      "note": 79,
      "start": 54.9329,
      "duration": 0.1122,
      "velocity": 97,
      "chip": "ym2612"
    },
    {
      "channel": 0,
      "note": 82,
      "start": 54.9594,
      "duration": 0.0187,
      "velocity": 1,
      "chip": "ym2612"
    },
    {
      "channel": 0,
      "note": 89,
      "start": 54.9947,
      "duration": 0.0125,
      "velocity": 1,
      "chip": "ym2612"
    },
    {
      "channel": 2,
      "note": 55,
      "start": 55.0036,
      "duration": 0.0191,
      "velocity": 88,
      "chip": "ym2612"
    },
    {
      "channel": 0,
      "note": 94,
      "start": 55.0171,
      "duration": 0.0199,
      "velocity": 1,
      "chip": "ym2612"
    },
    {
      "channel": 0,
      "note": 101,
      "start": 55.0475,
      "duration": 0.0135,
      "velocity": 1,
      "chip": "ym2612"
    },
    {
      "channel": 3,
      "note": 79,
      "start": 55.0553,
      "duration": 1.5946,
      "velocity": 122,
      "chip": "ym2612"
    },
    {
      "channel": 2,
      "note": 55,
      "start": 55.0581,
      "duration": 0.026,
      "velocity": 88,
      "chip": "ym2612"
    },
    {
      "channel": 0,
      "note": 106,
      "start": 55.0718,
      "duration": 0.0195,
      "velocity": 1,
      "chip": "ym2612"
    },
    {
      "channel": 0,
      "note": 103,
      "start": 55.1092,
      "duration": 0.0306,
      "velocity": 1,
      "chip": "ym2612"
    },
    {
      "channel": 2,
      "note": 55,
      "start": 55.1267,
      "duration": 0.0634,
      "velocity": 88,
      "chip": "ym2612"
    },
    {
      "channel": 4,
      "note": 79,
      "start": 55.1299,
      "duration": 0.1849,
      "velocity": 97,
      "chip": "ym2612"
    },
    {
      "channel": 0,
      "note": 101,
      "start": 55.176,
      "duration": 0.0305,
      "velocity": 1,
      "chip": "ym2612"
    },
    {
      "channel": 0,
      "note": 98,
      "start": 55.2259,
      "duration": 0.0473,
      "velocity": 1,
      "chip": "ym2612"
    },
    {
      "channel": 2,
      "note": 55,
      "start": 55.2434,
      "duration": 0.0581,
      "velocity": 88,
      "chip": "ym2612"
    },
    {
      "channel": 0,
      "note": 94,
      "start": 55.2926,
      "duration": 0.0155,
      "velocity": 1,
      "chip": "ym2612"
    },
    {
      "channel": 0,
      "note": 89,
      "start": 55.3184,
      "duration": 0.0186,
      "velocity": 1,
      "chip": "ym2612"
    },
    {
      "channel": 2,
      "note": 55,
      "start": 55.3325,
      "duration": 0.0205,
      "velocity": 88,
      "chip": "ym2612"
    },
    {
      "channel": 0,
      "note": 84,
      "start": 55.3481,
      "duration": 0.0124,
      "velocity": 1,
      "chip": "ym2612"
    },
    {
      "channel": 0,
      "note": 82,
      "start": 55.3712,
      "duration": 0.0202,
      "velocity": 1,
      "chip": "ym2612"
    },
    {
      "channel": 2,
      "note": 55,
      "start": 55.3864,
      "duration": 0.0201,
      "velocity": 88,
      "chip": "ym2612"
    },
    {
      "channel": 0,
      "note": 79,
      "start": 55.4006,
      "duration": 0.0132,
      "velocity": 1,
      "chip": "ym2612"
    },
    {
      "channel": 0,
      "note": 77,
      "start": 55.4307,
      "duration": 0.0139,
      "velocity": 1,
      "chip": "ym2612"
    },
    {
      "channel": 2,
      "note": 55,
      "start": 55.4406,
      "duration": 0.0197,
      "velocity": 88,
      "chip": "ym2612"
    },
    {
      "channel": 0,
      "note": 79,
      "start": 55.4547,
      "duration": 0.0307,
      "velocity": 1,
      "chip": "ym2612"
    },
    {
      "channel": 0,
      "note": 82,
      "start": 55.5048,
      "duration": 0.0305,
      "velocity": 1,
      "chip": "ym2612"
    },
    {
      "channel": 2,
      "note": 55,
      "start": 55.5227,
      "duration": 0.048,
      "velocity": 88,
      "chip": "ym2612"
    },
    {
      "channel": 0,
      "note": 84,
      "start": 55.5548,
      "duration": 0.0231,
      "velocity": 1,
      "chip": "ym2612"
    },
    {
      "channel": 0,
      "note": 86,
      "start": 55.5892,
      "duration": 0.012,
      "velocity": 1,
      "chip": "ym2612"
    },
    {
      "channel": 2,
      "note": 55,
      "start": 55.5964,
      "duration": 0.028,
      "velocity": 88,
      "chip": "ym2612"
    },
    {
      "channel": 0,
      "note": 89,
      "start": 55.6184,
      "duration": 0.0141,
      "velocity": 1,
      "chip": "ym2612"
    },
    {
      "channel": 0,
      "note": 94,
      "start": 55.6411,
      "duration": 0.0216,
      "velocity": 1,
      "chip": "ym2612"
    },
    {
      "channel": 2,
      "note": 55,
      "start": 55.6504,
      "duration": 0.0276,
      "velocity": 88,
      "chip": "ym2612"
    },
    {
      "channel": 0,
      "note": 98,
      "start": 55.6722,
      "duration": 0.0151,
      "velocity": 1,
      "chip": "ym2612"
    },
    {
      "channel": 0,
      "note": 101,
      "start": 55.7066,
      "duration": 0.0472,
      "velocity": 1,
      "chip": "ym2612"
    },
    {
      "channel": 2,
      "note": 55,
      "start": 55.7407,
      "duration": 0.0466,
      "velocity": 88,
      "chip": "ym2612"
    },
    {
      "channel": 0,
      "note": 103,
      "start": 55.7732,
      "duration": 0.0306,
      "velocity": 1,
      "chip": "ym2612"
    },
    {
      "channel": 0,
      "note": 106,
      "start": 55.8398,
      "duration": 0.0306,
      "velocity": 1,
      "chip": "ym2612"
    },
    {
      "channel": 2,
      "note": 55,
      "start": 55.8574,
      "duration": 0.0415,
      "velocity": 88,
      "chip": "ym2612"
    },
    {
      "channel": 0,
      "note": 103,
      "start": 55.89,
      "duration": 0.0226,
      "velocity": 1,
      "chip": "ym2612"
    },
    {
      "channel": 0,
      "note": 101,
      "start": 55.9239,
      "duration": 0.0126,
      "velocity": 1,
      "chip": "ym2612"
    },
    {
      "channel": 2,
      "note": 55,
      "start": 55.9315,
      "duration": 0.0283,
      "velocity": 88,
      "chip": "ym2612"
    },
    {
      "channel": 0,
      "note": 98,
      "start": 55.9479,
      "duration": 0.0191,
      "velocity": 1,
      "chip": "ym2612"
    },
    {
      "channel": 0,
      "note": 94,
      "start": 55.9765,
      "duration": 0.0141,
      "velocity": 1,
      "chip": "ym2612"
    },
    {
      "channel": 2,
      "note": 55,
      "start": 55.9857,
      "duration": 0.0272,
      "velocity": 88,
      "chip": "ym2612"
    },
    {
      "channel": 0,
      "note": 89,
      "start": 56.0074,
      "duration": 0.0125,
      "velocity": 1,
      "chip": "ym2612"
    },
    {
      "channel": 0,
      "note": 84,
      "start": 56.0298,
      "duration": 0.0138,
      "velocity": 1,
      "chip": "ym2612"
    },
    {
      "channel": 2,
      "note": 55,
      "start": 56.0396,
      "duration": 0.0273,
      "velocity": 88,
      "chip": "ym2612"
    },
    {
      "channel": 0,
      "note": 82,
      "start": 56.0609,
      "duration": 0.0224,
      "velocity": 1,
      "chip": "ym2612"
    },
    {
      "channel": 0,
      "note": 79,
      "start": 56.1026,
      "duration": 0.0473,
      "velocity": 1,
      "chip": "ym2612"
    },
    {
      "channel": 2,
      "note": 55,
      "start": 56.1201,
      "duration": 0.059,
      "velocity": 88,
      "chip": "ym2612"
    },
    {
      "channel": 0,
      "note": 77,
      "start": 56.1693,
      "duration": 0.0174,
      "velocity": 1,
      "chip": "ym2612"
    },
    {
      "channel": 0,
      "note": 84,
      "start": 56.1956,
      "duration": 0.0207,
      "velocity": 1,
      "chip": "ym2612"
    },
    {
      "channel": 2,
      "note": 55,
      "start": 56.2123,
      "duration": 0.0209,
      "velocity": 88,
      "chip": "ym2612"
    },
    {
      "channel": 0,
      "note": 89,
      "start": 56.2274,
      "duration": 0.0117,
      "velocity": 1,
      "chip": "ym2612"
    },
    {
      "channel": 0,
      "note": 106,
      "start": 56.2562,
      "duration": 0.0143,
      "velocity": 1,
      "chip": "ym2612"
    },
    {
      "channel": 2,
      "note": 55,
      "start": 56.2656,
      "duration": 0.0206,
      "velocity": 88,
      "chip": "ym2612"
    },
    {
      "channel": 0,
      "note": 103,
      "start": 56.281,
      "duration": 0.0203,
      "velocity": 1,
      "chip": "ym2612"
    },
    {
      "channel": 0,
      "note": 101,
      "start": 56.3206,
      "duration": 0.0307,
      "velocity": 1,
      "chip": "ym2612"
    },
    {
      "channel": 2,
      "note": 55,
      "start": 56.3381,
      "duration": 0.0634,
      "velocity": 88,
      "chip": "ym2612"
    },
    {
      "channel": 0,
      "note": 98,
      "start": 56.3707,
      "duration": 0.0473,
      "velocity": 1,
      "chip": "ym2612"
    },
    {
      "channel": 0,
      "note": 94,
      "start": 56.4373,
      "duration": 0.0307,
      "velocity": 1,
      "chip": "ym2612"
    },
    {
      "channel": 2,
      "note": 55,
      "start": 56.4548,
      "duration": 0.058,
      "velocity": 88,
      "chip": "ym2612"
    },
    {
      "channel": 0,
      "note": 106,
      "start": 56.5039,
      "duration": 0.0161,
      "velocity": 1,
      "chip": "ym2612"
    },
    {
      "channel": 0,
      "note": 103,
      "start": 56.5314,
      "duration": 0.0201,
      "velocity": 1,
      "chip": "ym2612"
    },
    {
      "channel": 2,
      "note": 55,
      "start": 56.5401,
      "duration": 0.0275,
      "velocity": 88,
      "chip": "ym2612"
    },
    {
      "channel": 0,
      "note": 101,
      "start": 56.5629,
      "duration": 0.0117,
      "velocity": 1,
      "chip": "ym2612"
    },
    {
      "channel": 0,
      "note": 98,
      "start": 56.5853,
      "duration": 0.0204,
      "velocity": 1,
      "chip": "ym2612"
    },
    {
      "channel": 2,
      "note": 55,
      "start": 56.6017,
      "duration": 0.0192,
      "velocity": 88,
      "chip": "ym2612"
    },
    {
      "channel": 0,
      "note": 94,
      "start": 56.6151,
      "duration": 0.0125,
      "velocity": 1,
      "chip": "ym2612"
    },
    {
      "channel": 0,
      "note": 89,
      "start": 56.6446,
      "duration": 0.0132,
      "velocity": 1,
      "chip": "ym2612"
    },
    {
      "channel": 2,
      "note": 55,
      "start": 56.6541,
      "duration": 0.0191,
      "velocity": 88,
      "chip": "ym2612"
    },
    {
      "channel": 0,
      "note": 84,
      "start": 56.6676,
      "duration": 0.014,
      "velocity": 1,
      "chip": "ym2612"
    },
    {
      "channel": 0,
      "note": 77,
      "start": 56.7176,
      "duration": 0.0306,
      "velocity": 1,
      "chip": "ym2612"
    },
    {
      "channel": 1,
      "note": 82,
      "start": 56.7348,
      "duration": 0.165,
      "velocity": 122,
      "chip": "ym2612"
    },
    {
      "channel": 2,
      "note": 55,
      "start": 56.7382,
      "duration": 0.0384,
      "velocity": 88,
      "chip": "ym2612"
    },
    {
      "channel": 4,
      "note": 82,
      "start": 56.7415,
      "duration": 0.1491,
      "velocity": 97,
      "chip": "ym2612"
    },
    {
      "channel": 0,
      "note": 106,
      "start": 56.7677,
      "duration": 0.0229,
      "velocity": 1,
      "chip": "ym2612"
    },
    {
      "channel": 0,
      "note": 101,
      "start": 56.8017,
      "duration": 0.012,
      "velocity": 1,
      "chip": "ym2612"
    },
    {
      "channel": 2,
      "note": 55,
      "start": 56.8092,
      "duration": 0.0278,
      "velocity": 88,
      "chip": "ym2612"
    },
    {
      "channel": 0,
      "note": 98,
      "start": 56.8248,
      "duration": 0.0202,
      "velocity": 1,
      "chip": "ym2612"
    },
    {
      "channel": 0,
      "note": 89,
      "start": 56.8536,
      "duration": 0.0144,
      "velocity": 1,
      "chip": "ym2612"
    },
    {
      "channel": 2,
      "note": 67,
      "start": 56.8628,
      "duration": 0.0278,
      "velocity": 88,
      "chip": "ym2612"
    },
    {
      "channel": 0,
      "note": 84,
      "start": 56.8849,
      "duration": 0.0148,
      "velocity": 1,
      "chip": "ym2612"
    },
    {
      "channel": 0,
      "note": 82,
      "start": 56.919,
      "duration": 0.0472,
      "velocity": 1,
      "chip": "ym2612"
    },
    {
      "channel": 2,
      "note": 67,
      "start": 56.9366,
      "duration": 0.0633,
      "velocity": 88,
      "chip": "ym2612"
    },
    {
      "channel": 0,
      "note": 79,
      "start": 56.9858,
      "duration": 0.0305,
      "velocity": 1,
      "chip": "ym2612"
    },
    {
      "channel": 1,
      "note": 84,
      "start": 56.9885,
      "duration": 0.2905,
      "velocity": 122,
      "chip": "ym2612"
    },
    {
      "channel": 4,
      "note": 84,
      "start": 56.9919,
      "duration": 0.2172,
      "velocity": 97,
      "chip": "ym2612"
    },
    {
      "channel": 0,
      "note": 77,
      "start": 57.0358,
      "duration": 0.0472,
      "velocity": 1,
      "chip": "ym2612"
    },
    {
      "channel": 2,
      "note": 63,
      "start": 57.0699,
      "duration": 0.0414,
      "velocity": 88,
      "chip": "ym2612"
    },
    {
      "channel": 0,
      "note": 106,
      "start": 57.1023,
      "duration": 0.0158,
      "velocity": 1,
      "chip": "ym2612"
    },
    {
      "channel": 0,
      "note": 103,
      "start": 57.1367,
      "duration": 0.0117,
      "velocity": 1,
      "chip": "ym2612"
    },
    {
      "channel": 2,
      "note": 63,
      "start": 57.1439,
      "duration": 0.0207,
      "velocity": 88,
      "chip": "ym2612"
    },
    {
      "channel": 0,
      "note": 101,
      "start": 57.1595,
      "duration": 0.0189,
      "velocity": 1,
      "chip": "ym2612"
    },
    {
      "channel": 0,
      "note": 98,
      "start": 57.1879,
      "duration": 0.0139,
      "velocity": 1,
      "chip": "ym2612"
    },
    {
      "channel": 2,
      "note": 55,
      "start": 57.1969,
      "duration": 0.0273,
      "velocity": 88,
      "chip": "ym2612"
    },
    {
      "channel": 0,
      "note": 94,
      "start": 57.2113,
      "duration": 0.0203,
      "velocity": 1,
      "chip": "ym2612"
    },
    {
      "channel": 0,
      "note": 89,
      "start": 57.2415,
      "duration": 0.0144,
      "velocity": 1,
      "chip": "ym2612"
    },
    {
      "channel": 2,
      "note": 55,
      "start": 57.2515,
      "duration": 0.0277,
      "velocity": 88,
      "chip": "ym2612"
    },
    {
      "channel": 0,
      "note": 84,
      "start": 57.273,
      "duration": 0.0226,
      "velocity": 1,
      "chip": "ym2612"
    },
    {
      "channel": 0,
      "note": 77,
      "start": 57.3149,
      "duration": 0.0473,
      "velocity": 1,
      "chip": "ym2612"
    },
    {
      "channel": 1,
      "note": 82,
      "start": 57.3326,
      "duration": 1.3939,
      "velocity": 122,
      "chip": "ym2612"
    },
    {
      "channel": 3,
      "note": 70,
      "start": 57.3352,
      "duration": 1.3914,
      "velocity": 122,
      "chip": "ym2612"
    },
    {
      "channel": 2,
      "note": 58,
      "start": 57.3382,
      "duration": 0.054,
      "velocity": 88,
      "chip": "ym2612"
    },
    {
      "channel": 4,
      "note": 82,
      "start": 57.3419,
      "duration": 0.1873,
      "velocity": 97,
      "chip": "ym2612"
    },
    {
      "channel": 0,
      "note": 79,
      "start": 57.3817,
      "duration": 0.0186,
      "velocity": 1,
      "chip": "ym2612"
    },
    {
      "channel": 0,
      "note": 84,
      "start": 57.4085,
      "duration": 0.0212,
      "velocity": 1,
      "chip": "ym2612"
    },
    {
      "channel": 2,
      "note": 58,
      "start": 57.4173,
      "duration": 0.0283,
      "velocity": 88,
      "chip": "ym2612"
    },
    {
      "channel": 0,
      "note": 89,
      "start": 57.4398,
      "duration": 0.0131,
      "velocity": 1,
      "chip": "ym2612"
    },
    {
      "channel": 0,
      "note": 106,
      "start": 57.4627,
      "duration": 0.0207,
      "velocity": 1,
      "chip": "ym2612"
    },
    {
      "channel": 2,
      "note": 58,
      "start": 57.4787,
      "duration": 0.0201,
      "velocity": 88,
      "chip": "ym2612"
    },
    {
      "channel": 0,
      "note": 103,
      "start": 57.4939,
      "duration": 0.0116,
      "velocity": 1,
      "chip": "ym2612"
    },
    {
      "channel": 0,
      "note": 101,
      "start": 57.5319,
      "duration": 0.0304,
      "velocity": 1,
      "chip": "ym2612"
    },
    {
      "channel": 2,
      "note": 58,
      "start": 57.5492,
      "duration": 0.0467,
      "velocity": 88,
      "chip": "ym2612"
    },
    {
      "channel": 5,
      "note": 82,
      "start": 57.5524,
      "duration": 0.3267,
      "velocity": 97,
      "chip": "ym2612"
    },
    {
      "channel": 0,
      "note": 98,
      "start": 57.5818,
      "duration": 0.0472,
      "velocity": 1,
      "chip": "ym2612"
    },
    {
      "channel": 0,
      "note": 94,
      "start": 57.6484,
      "duration": 0.0306,
      "velocity": 1,
      "chip": "ym2612"
    },
    {
      "channel": 2,
      "note": 58,
      "start": 57.6659,
      "duration": 0.0634,
      "velocity": 88,
      "chip": "ym2612"
    },
    {
      "channel": 0,
      "note": 106,
      "start": 57.6984,
      "duration": 0.0473,
      "velocity": 1,
      "chip": "ym2612"
    },
    {
      "channel": 0,
      "note": 103,
      "start": 57.7655,
      "duration": 0.0302,
      "velocity": 1,
      "chip": "ym2612"
    },
    {
      "channel": 2,
      "note": 58,
      "start": 57.7826,
      "duration": 0.0634,
      "velocity": 88,
      "chip": "ym2612"
    },
    {
      "channel": 0,
      "note": 101,
      "start": 57.8317,
      "duration": 0.0306,
      "velocity": 1,
      "chip": "ym2612"
    },
    {
      "channel": 0,
      "note": 98,
      "start": 57.8817,
      "duration": 0.0473,
      "velocity": 1,
      "chip": "ym2612"
    },
    {
      "channel": 2,
      "note": 58,
      "start": 57.8992,
      "duration": 0.0634,
      "velocity": 88,
      "chip": "ym2612"
    },
    {
      "channel": 0,
      "note": 94,
      "start": 57.9483,
      "duration": 0.0306,
      "velocity": 1,
      "chip": "ym2612"
    },
    {
      "channel": 0,
      "note": 89,
      "start": 57.9985,
      "duration": 0.0472,
      "velocity": 1,
      "chip": "ym2612"
    },
    {
      "channel": 2,
      "note": 58,
      "start": 58.0325,
      "duration": 0.0467,
      "velocity": 88,
      "chip": "ym2612"
    },
    {
      "channel": 0,
      "note": 84,
      "start": 58.0651,
      "duration": 0.0306,
      "velocity": 1,
      "chip": "ym2612"
    },
    {
      "channel": 0,
      "note": 77,
      "start": 58.1317,
      "duration": 0.0306,
      "velocity": 1,
      "chip": "ym2612"
    },
    {
      "channel": 2,
      "note": 58,
      "start": 58.1496,
      "duration": 0.041,
      "velocity": 88,
      "chip": "ym2612"
    },
    {
      "channel": 0,
      "note": 106,
      "start": 58.1817,
      "duration": 0.0228,
      "velocity": 1,
      "chip": "ym2612"
    },
    {
      "channel": 0,
      "note": 101,
      "start": 58.2157,
      "duration": 0.012,
      "velocity": 1,
      "chip": "ym2612"
    },
    {
      "channel": 2,
      "note": 58,
      "start": 58.2232,
      "duration": 0.0206,
      "velocity": 88,
      "chip": "ym2612"
    },
    {
      "channel": 0,
      "note": 98,
      "start": 58.2388,
      "duration": 0.0203,
      "velocity": 1,
      "chip": "ym2612"
    },
    {
      "channel": 0,
      "note": 94,
      "start": 58.2677,
      "duration": 0.0144,
      "velocity": 1,
      "chip": "ym2612"
    },
    {
      "channel": 2,
      "note": 58,
      "start": 58.277,
      "duration": 0.0281,
      "velocity": 88,
      "chip": "ym2612"
    },
    {
      "channel": 0,
      "note": 89,
      "start": 58.292,
      "duration": 0.0223,
      "velocity": 1,
      "chip": "ym2612"
    },
    {
      "channel": 0,
      "note": 84,
      "start": 58.3337,
      "duration": 0.0305,
      "velocity": 1,
      "chip": "ym2612"
    },
    {
      "channel": 2,
      "note": 58,
      "start": 58.3512,
      "duration": 0.0633,
      "velocity": 88,
      "chip": "ym2612"
    },
    {
      "channel": 0,
      "note": 82,
      "start": 58.4003,
      "duration": 0.0306,
      "velocity": 1,
      "chip": "ym2612"
    },
    {
      "channel": 0,
      "note": 79,
      "start": 58.4503,
      "duration": 0.0473,
      "velocity": 1,
      "chip": "ym2612"
    },
    {
      "channel": 2,
      "note": 58,
      "start": 58.4678,
      "duration": 0.0579,
      "velocity": 88,
      "chip": "ym2612"
    },
    {
      "channel": 0,
      "note": 77,
      "start": 58.517,
      "duration": 0.0154,
      "velocity": 1,
      "chip": "ym2612"
    },
    {
      "channel": 0,
      "note": 106,
      "start": 58.5428,
      "duration": 0.0186,
      "velocity": 1,
      "chip": "ym2612"
    },
    {
      "channel": 2,
      "note": 58,
      "start": 58.5569,
      "duration": 0.0206,
      "velocity": 88,
      "chip": "ym2612"
    },
    {
      "channel": 0,
      "note": 103,
      "start": 58.5725,
      "duration": 0.0126,
      "velocity": 1,
      "chip": "ym2612"
    },
    {
      "channel": 0,
      "note": 101,
      "start": 58.6018,
      "duration": 0.0139,
      "velocity": 1,
      "chip": "ym2612"
    },
    {
      "channel": 2,
      "note": 58,
      "start": 58.6109,
      "duration": 0.0201,
      "velocity": 88,
      "chip": "ym2612"
    },
    {
      "channel": 0,
      "note": 98,
      "start": 58.6251,
      "duration": 0.0204,
      "velocity": 1,
      "chip": "ym2612"
    },
    {
      "channel": 0,
      "note": 94,
      "start": 58.6554,
      "duration": 0.0136,
      "velocity": 1,
      "chip": "ym2612"
    },
    {
      "channel": 2,
      "note": 58,
      "start": 58.6652,
      "duration": 0.0281,
      "velocity": 88,
      "chip": "ym2612"
    },
    {
      "channel": 0,
      "note": 89,
      "start": 58.679,
      "duration": 0.0307,
      "velocity": 1,
      "chip": "ym2612"
    },
    {
      "channel": 0,
      "note": 84,
      "start": 58.7293,
      "duration": 0.0304,
      "velocity": 1,
      "chip": "ym2612"
    },
    {
      "channel": 1,
      "note": 82,
      "start": 58.7463,
      "duration": 1.0436,
      "velocity": 122,
      "chip": "ym2612"
    },
    {
      "channel": 3,
      "note": 87,
      "start": 58.7493,
      "duration": 1.1728,
      "velocity": 122,
      "chip": "ym2612"
    },
    {
      "channel": 2,
      "note": 58,
      "start": 58.7523,
      "duration": 0.0534,
      "velocity": 88,
      "chip": "ym2612"
    },
    {
      "channel": 4,
      "note": 82,
      "start": 58.7554,
      "duration": 0.1569,
      "velocity": 97,
      "chip": "ym2612"
    },
    {
      "channel": 0,
      "note": 77,
      "start": 58.7959,
      "duration": 0.0176,
      "velocity": 1,
      "chip": "ym2612"
    },
    {
      "channel": 0,
      "note": 84,
      "start": 58.8225,
      "duration": 0.0209,
      "velocity": 1,
      "chip": "ym2612"
    },
    {
      "channel": 2,
      "note": 58,
      "start": 58.8327,
      "duration": 0.0273,
      "velocity": 88,
      "chip": "ym2612"
    },
    {
      "channel": 0,
      "note": 89,
      "start": 58.8541,
      "duration": 0.0116,
      "velocity": 1,
      "chip": "ym2612"
    },
    {
      "channel": 0,
      "note": 106,
      "start": 58.8769,
      "duration": 0.0197,
      "velocity": 1,
      "chip": "ym2612"
    },
    {
      "channel": 2,
      "note": 58,
      "start": 58.8917,
      "duration": 0.0207,
      "velocity": 88,
      "chip": "ym2612"
    },
    {
      "channel": 0,
      "note": 103,
      "start": 58.9071,
      "duration": 0.0122,
      "velocity": 1,
      "chip": "ym2612"
    },
    {
      "channel": 0,
      "note": 101,
      "start": 58.93,
      "duration": 0.0472,
      "velocity": 1,
      "chip": "ym2612"
    },
    {
      "channel": 2,
      "note": 58,
      "start": 58.9641,
      "duration": 0.0466,
      "velocity": 88,
      "chip": "ym2612"
    },
    {
      "channel": 4,
      "note": 87,
      "start": 58.967,
      "duration": 0.2145,
      "velocity": 97,
      "chip": "ym2612"
    },
    {
      "channel": 0,
      "note": 98,
      "start": 58.9967,
      "duration": 0.0305,
      "velocity": 1,
      "chip": "ym2612"
    },
    {
      "channel": 0,
      "note": 94,
      "start": 59.0633,
      "duration": 0.0305,
      "velocity": 1,
      "chip": "ym2612"
    },
    {
      "channel": 2,
      "note": 58,
      "start": 59.0808,
      "duration": 0.0413,
      "velocity": 88,
      "chip": "ym2612"
    },
    {
      "channel": 0,
      "note": 106,
      "start": 59.1133,
      "duration": 0.0228,
      "velocity": 1,
      "chip": "ym2612"
    },
    {
      "channel": 0,
      "note": 103,
      "start": 59.1472,
      "duration": 0.0121,
      "velocity": 1,
      "chip": "ym2612"
    },
    {
      "channel": 2,
      "note": 58,
      "start": 59.1545,
      "duration": 0.0271,
      "velocity": 88,
      "chip": "ym2612"
    },
    {
      "channel": 0,
      "note": 101,
      "start": 59.1703,
      "duration": 0.0181,
      "velocity": 1,
      "chip": "ym2612"
    },
    {
      "channel": 0,
      "note": 98,
      "start": 59.1985,
      "duration": 0.0139,
      "velocity": 1,
      "chip": "ym2612"
    },
    {
      "channel": 2,
      "note": 58,
      "start": 59.2076,
      "duration": 0.0273,
      "velocity": 88,
      "chip": "ym2612"
    },
    {
      "channel": 0,
      "note": 94,
      "start": 59.2292,
      "duration": 0.0133,
      "velocity": 1,
      "chip": "ym2612"
    },
    {
      "channel": 0,
      "note": 89,
      "start": 59.2524,
      "duration": 0.0209,
      "velocity": 1,
      "chip": "ym2612"
    },
    {
      "channel": 2,
      "note": 58,
      "start": 59.2622,
      "duration": 0.0275,
      "velocity": 88,
      "chip": "ym2612"
    },
    {
      "channel": 0,
      "note": 84,
      "start": 59.2838,
      "duration": 0.0224,
      "velocity": 1,
      "chip": "ym2612"
    },
    {
      "channel": 0,
      "note": 77,
      "start": 59.3256,
      "duration": 0.0473,
      "velocity": 1,
      "chip": "ym2612"
    },
    {
      "channel": 2,
      "note": 58,
      "start": 59.3601,
      "duration": 0.041,
      "velocity": 88,
      "chip": "ym2612"
    },
    {
      "channel": 0,
      "note": 106,
      "start": 59.3922,
      "duration": 0.0155,
      "velocity": 1,
      "chip": "ym2612"
    },
    {
      "channel": 0,
      "note": 101,
      "start": 59.4252,
      "duration": 0.012,
      "velocity": 1,
      "chip": "ym2612"
    },
    {
      "channel": 2,
      "note": 58,
      "start": 59.4327,
      "duration": 0.0207,
      "velocity": 88,
      "chip": "ym2612"
    },
    {
      "channel": 0,
      "note": 98,
      "start": 59.4483,
      "duration": 0.0203,
      "velocity": 1,
      "chip": "ym2612"
    },
    {
      "channel": 0,
      "note": 89,
      "start": 59.4772,
      "duration": 0.0144,
      "velocity": 1,
      "chip": "ym2612"
    },
    {
      "channel": 2,
      "note": 70,
      "start": 59.4865,
      "duration": 0.0281,
      "velocity": 88,
      "chip": "ym2612"
    },
    {
      "channel": 0,
      "note": 84,
      "start": 59.5015,
      "duration": 0.0223,
      "velocity": 1,
      "chip": "ym2612"
    },
    {
      "channel": 0,
      "note": 82,
      "start": 59.5432,
      "duration": 0.0305,
      "velocity": 1,
      "chip": "ym2612"
    },
    {
      "channel": 2,
      "note": 70,
      "start": 59.5606,
      "duration": 0.0634,
      "velocity": 88,
      "chip": "ym2612"
    },
    {
      "channel": 0,
      "note": 79,
      "start": 59.5932,
      "duration": 0.0472,
      "velocity": 1,
      "chip": "ym2612"
    },
    {
      "channel": 0,
      "note": 77,
      "start": 59.6598,
      "duration": 0.0307,
      "velocity": 1,
      "chip": "ym2612"
    },
    {
      "channel": 2,
      "note": 58,
      "start": 59.6773,
      "duration": 0.058,
      "velocity": 88,
      "chip": "ym2612"
    },
    {
      "channel": 0,
      "note": 106,
      "start": 59.7264,
      "duration": 0.0161,
      "velocity": 1,
      "chip": "ym2612"
    },
    {
      "channel": 0,
      "note": 103,
      "start": 59.754,
      "duration": 0.0201,
      "velocity": 1,
      "chip": "ym2612"
    },
    {
      "channel": 2,
      "note": 58,
      "start": 59.7626,
      "duration": 0.0275,
      "velocity": 88,
      "chip": "ym2612"
    },
    {
      "channel": 0,
      "note": 101,
      "start": 59.7854,
      "duration": 0.012,
      "velocity": 1,
      "chip": "ym2612"
    },
    {
      "channel": 0,
      "note": 98,
      "start": 59.8081,
      "duration": 0.0202,
      "velocity": 1,
      "chip": "ym2612"
    },
    {
      "channel": 2,
      "note": 70,
      "start": 59.8234,
      "duration": 0.02,
      "velocity": 88,
      "chip": "ym2612"
    },
    {
      "channel": 0,
      "note": 94,
      "start": 59.8376,
      "duration": 0.0132,
      "velocity": 1,
      "chip": "ym2612"
    },
    {
      "channel": 0,
      "note": 89,
      "start": 59.8676,
      "duration": 0.0135,
      "velocity": 1,
      "chip": "ym2612"
    },
    {
      "channel": 2,
      "note": 70,
      "start": 59.8776,
      "duration": 0.0193,
      "velocity": 88,
      "chip": "ym2612"
    },
    {
      "channel": 0,
      "note": 84,
      "start": 59.8913,
      "duration": 0.0307,
      "velocity": 1,
      "chip": "ym2612"
    },
    {
      "channel": 0,
      "note": 77,
      "start": 59.9414,
      "duration": 0.0305,
      "velocity": 1,
      "chip": "ym2612"
    },
    {
      "channel": 2,
      "note": 51,
      "start": 59.9473,
      "duration": 0.0415,
      "velocity": 88,
      "chip": "ym2612"
    },
    {
      "channel": 4,
      "note": 75,
      "start": 59.9539,
      "duration": 0.111,
      "velocity": 97,
      "chip": "ym2612"
    },
    {
      "channel": 1,
      "note": 63,
      "start": 59.9755,
      "duration": 32.3667,
      "velocity": 122,
      "chip": "ym2612"
    },
    {
      "channel": 0,
      "note": 89,
      "start": 59.9932,
      "duration": 0.0248,
      "velocity": 1,
      "chip": "ym2612"
    },
    {
      "channel": 0,
      "note": 94,
      "start": 60.0273,
      "duration": 0.0149,
      "velocity": 1,
      "chip": "ym2612"
    },
    {
      "channel": 2,
      "note": 51,
      "start": 60.0311,
      "duration": 0.0245,
      "velocity": 88,
      "chip": "ym2612"
    },
    {
      "channel": 0,
      "note": 99,
      "start": 60.0589,
      "duration": 0.0123,
      "velocity": 1,
      "chip": "ym2612"
    },
    {
      "channel": 0,
      "note": 106,
      "start": 60.0821,
      "duration": 0.0194,
      "velocity": 1,
      "chip": "ym2612"
    },
    {
      "channel": 2,
      "note": 51,
      "start": 60.0848,
      "duration": 0.0244,
      "velocity": 88,
      "chip": "ym2612"
    },
    {
      "channel": 0,
      "note": 111,
      "start": 60.1114,
      "duration": 0.0122,
      "velocity": 1,
      "chip": "ym2612"
    },
    {
      "channel": 0,
      "note": 108,
      "start": 60.1413,
      "duration": 0.0473,
      "velocity": 1,
      "chip": "ym2612"
    },
    {
      "channel": 2,
      "note": 51,
      "start": 60.1446,
      "duration": 0.061,
      "velocity": 88,
      "chip": "ym2612"
    },
    {
      "channel": 0,
      "note": 106,
      "start": 60.2081,
      "duration": 0.0305,
      "velocity": 1,
      "chip": "ym2612"
    },
    {
      "channel": 0,
      "note": 103,
      "start": 60.2746,
      "duration": 0.0306,
      "velocity": 1,
      "chip": "ym2612"
    },
    {
      "channel": 2,
      "note": 51,
      "start": 60.278,
      "duration": 32.0643,
      "velocity": 88,
      "chip": "ym2612"
    }
  ]
}