{
  "track_name": "04 - Dementia",
  "duration_sec": 123.481,
  "sample_rate": 44100,
  "note_count": 3005,
  "unique_pitches": 74,
  "pitch_range": 73,
  "avg_note_duration": 0.1046,
  "reconstruction_stats": {
    "notes_reconstructed": 3005,
    "keyon_events": 3005,
    "keyoff_events": 3004,
    "orphan_keyons": 1,
    "unique_pitches": 74,
    "pitch_range": 73,
    "avg_duration_sec": 0.1046
  },
  "metadata": {
    "source": "V\\Virtual Pinball\\04 - Dementia.vgm"
  },
  "notes": [
    {
      "channel": 0,
      "note": 43,
      "start": 0.0,
      "duration": 0.0,
      "velocity": 1,
      "chip": "ym2612"
    },
    {
      "channel": 1,
      "note": 73,
      "start": 0.0,
      "duration": 0.0,
      "velocity": 118,
      "chip": "ym2612"
    },
    {
      "channel": 1,
      "note": 72,
      "start": 0.0,
      "duration": 0.0,
      "velocity": 118,
      "chip": "ym2612"
    },
    {
      "channel": 1,
      "note": 71,
      "start": 0.0,
      "duration": 0.0,
      "velocity": 118,
      "chip": "ym2612"
    },
    {
      "channel": 1,
      "note": 70,
      "start": 0.0,
      "duration": 0.0,
      "velocity": 118,
      "chip": "ym2612"
    },
    {
      "channel": 1,
      "note": 69,
      "start": 0.0,
      "duration": 0.0,
      "velocity": 118,
      "chip": "ym2612"
    },
    {
      "channel": 1,
      "note": 68,
      "start": 0.0,
      "duration": 0.0,
      "velocity": 118,
      "chip": "ym2612"
    },
    {
      "channel": 1,
      "note": 67,
      "start": 0.0,
      "duration": 0.0,
      "velocity": 118,
      "chip": "ym2612"
    },
    {
      "channel": 5,
      "note": 45,
      "start": 0.0,
      "duration": 0.0739,
      "velocity": 122,
      "chip": "ym2612"
    },
    {
      "channel": 2,
      "note": 81,
      "start": 0.0055,
      "duration": 0.0156,
      "velocity": 121,
      "chip": "ym2612"
    },
    {
      "channel": 5,
      "note": 45,
      "start": 0.1132,
      "duration": 0.1107,
      "velocity": 122,
      "chip": "ym2612"
    },
    {
      "channel": 2,
      "note": 81,
      "start": 0.1157,
      "duration": 0.0083,
      "velocity": 121,
      "chip": "ym2612"
    },
    {
      "channel": 2,
      "note": 81,
      "start": 0.2455,
      "duration": 0.0118,
      "velocity": 121,
      "chip": "ym2612"
    },
    {
      "channel": 5,
      "note": 45,
      "start": 0.3771,
      "duration": 0.1135,
      "velocity": 122,
      "chip": "ym2612"
    },
    {
      "channel": 2,
      "note": 81,
      "start": 0.3795,
      "duration": 0.0112,
      "velocity": 121,
      "chip": "ym2612"
    },
    {
      "channel": 5,
      "note": 55,
      "start": 0.4971,
      "duration": 0.1768,
      "velocity": 125,
      "chip": "ym2612"
    },
    {
      "channel": 2,
      "note": 81,
      "start": 0.4994,
      "duration": 0.0245,
      "velocity": 121,
      "chip": "ym2612"
    },
    {
      "channel": 2,
      "note": 81,
      "start": 0.6267,
      "duration": 0.014,
      "velocity": 121,
      "chip": "ym2612"
    },
    {
      "channel": 2,
      "note": 81,
      "start": 0.7599,
      "duration": 0.0141,
      "velocity": 121,
      "chip": "ym2612"
    },
    {
      "channel": 2,
      "note": 81,
      "start": 0.8797,
      "duration": 0.2109,
      "velocity": 104,
      "chip": "ym2612"
    },
    {
      "channel": 5,
      "note": 45,
      "start": 1.0133,
      "duration": 0.0606,
      "velocity": 122,
      "chip": "ym2612"
    },
    {
      "channel": 5,
      "note": 45,
      "start": 1.1437,
      "duration": 0.0968,
      "velocity": 122,
      "chip": "ym2612"
    },
    {
      "channel": 2,
      "note": 81,
      "start": 1.1479,
      "duration": 0.0094,
      "velocity": 121,
      "chip": "ym2612"
    },
    {
      "channel": 2,
      "note": 81,
      "start": 1.2767,
      "duration": 0.0139,
      "velocity": 121,
      "chip": "ym2612"
    },
    {
      "channel": 5,
      "note": 45,
      "start": 1.3937,
      "duration": 0.1136,
      "velocity": 122,
      "chip": "ym2612"
    },
    {
      "channel": 2,
      "note": 81,
      "start": 1.396,
      "duration": 0.028,
      "velocity": 121,
      "chip": "ym2612"
    },
    {
      "channel": 5,
      "note": 55,
      "start": 1.5302,
      "duration": 0.0937,
      "velocity": 125,
      "chip": "ym2612"
    },
    {
      "channel": 2,
      "note": 81,
      "start": 1.5326,
      "duration": 0.008,
      "velocity": 121,
      "chip": "ym2612"
    },
    {
      "channel": 2,
      "note": 81,
      "start": 1.6599,
      "duration": 0.0141,
      "velocity": 121,
      "chip": "ym2612"
    },
    {
      "channel": 2,
      "note": 81,
      "start": 1.7767,
      "duration": 0.0306,
      "velocity": 121,
      "chip": "ym2612"
    },
    {
      "channel": 2,
      "note": 81,
      "start": 1.8766,
      "duration": 0.0141,
      "velocity": 121,
      "chip": "ym2612"
    },
    {
      "channel": 2,
      "note": 81,
      "start": 1.96,
      "duration": 0.0139,
      "velocity": 121,
      "chip": "ym2612"
    },
    {
      "channel": 5,
      "note": 45,
      "start": 2.0466,
      "duration": 0.0606,
      "velocity": 122,
      "chip": "ym2612"
    },
    {
      "channel": 2,
      "note": 81,
      "start": 2.0505,
      "duration": 0.1235,
      "velocity": 104,
      "chip": "ym2612"
    },
    {
      "channel": 5,
      "note": 45,
      "start": 2.1772,
      "duration": 0.0968,
      "velocity": 122,
      "chip": "ym2612"
    },
    {
      "channel": 2,
      "note": 81,
      "start": 2.1814,
      "duration": 0.0092,
      "velocity": 121,
      "chip": "ym2612"
    },
    {
      "channel": 2,
      "note": 81,
      "start": 2.2933,
      "duration": 0.0307,
      "velocity": 121,
      "chip": "ym2612"
    },
    {
      "channel": 5,
      "note": 45,
      "start": 2.4269,
      "duration": 0.097,
      "velocity": 122,
      "chip": "ym2612"
    },
    {
      "channel": 2,
      "note": 81,
      "start": 2.4307,
      "duration": 0.0933,
      "velocity": 104,
      "chip": "ym2612"
    },
    {
      "channel": 5,
      "note": 55,
      "start": 2.5638,
      "duration": 0.1435,
      "velocity": 125,
      "chip": "ym2612"
    },
    {
      "channel": 2,
      "note": 81,
      "start": 2.568,
      "duration": 0.006,
      "velocity": 121,
      "chip": "ym2612"
    },
    {
      "channel": 2,
      "note": 81,
      "start": 2.6796,
      "duration": 0.111,
      "velocity": 104,
      "chip": "ym2612"
    },
    {
      "channel": 2,
      "note": 81,
      "start": 2.813,
      "duration": 0.0111,
      "velocity": 121,
      "chip": "ym2612"
    },
    {
      "channel": 2,
      "note": 81,
      "start": 2.9432,
      "duration": 0.0141,
      "velocity": 121,
      "chip": "ym2612"
    },
    {
      "channel": 5,
      "note": 45,
      "start": 3.08,
      "duration": 0.0439,
      "velocity": 122,
      "chip": "ym2612"
    },
    {
      "channel": 2,
      "note": 81,
      "start": 3.0823,
      "duration": 0.0083,
      "velocity": 121,
      "chip": "ym2612"
    },
    {
      "channel": 5,
      "note": 45,
      "start": 3.1938,
      "duration": 0.1135,
      "velocity": 122,
      "chip": "ym2612"
    },
    {
      "channel": 2,
      "note": 81,
      "start": 3.1965,
      "duration": 0.0274,
      "velocity": 121,
      "chip": "ym2612"
    },
    {
      "channel": 2,
      "note": 81,
      "start": 3.3296,
      "duration": 0.461,
      "velocity": 104,
      "chip": "ym2612"
    },
    {
      "channel": 5,
      "note": 45,
      "start": 3.4602,
      "duration": 0.0971,
      "velocity": 122,
      "chip": "ym2612"
    },
    {
      "channel": 5,
      "note": 55,
      "start": 3.5972,
      "duration": 0.16,
      "velocity": 125,
      "chip": "ym2612"
    },
    {
      "channel": 2,
      "note": 81,
      "start": 3.8463,
      "duration": 0.0111,
      "velocity": 121,
      "chip": "ym2612"
    },
    {
      "channel": 2,
      "note": 81,
      "start": 3.9265,
      "duration": 0.0141,
      "velocity": 121,
      "chip": "ym2612"
    },
    {
      "channel": 2,
      "note": 81,
      "start": 4.0099,
      "duration": 0.0307,
      "velocity": 121,
      "chip": "ym2612"
    },
    {
      "channel": 5,
      "note": 45,
      "start": 4.0966,
      "duration": 0.0607,
      "velocity": 122,
      "chip": "ym2612"
    },
    {
      "channel": 2,
      "note": 81,
      "start": 4.1008,
      "duration": 0.0899,
      "velocity": 104,
      "chip": "ym2612"
    },
    {
      "channel": 5,
      "note": 45,
      "start": 4.2271,
      "duration": 0.0801,
      "velocity": 122,
      "chip": "ym2612"
    },
    {
      "channel": 2,
      "note": 81,
      "start": 4.2309,
      "duration": 0.0097,
      "velocity": 121,
      "chip": "ym2612"
    },
    {
      "channel": 2,
      "note": 81,
      "start": 4.3599,
      "duration": 0.0141,
      "velocity": 121,
      "chip": "ym2612"
    },
    {
      "channel": 5,
      "note": 45,
      "start": 4.4958,
      "duration": 0.0947,
      "velocity": 122,
      "chip": "ym2612"
    },
    {
      "channel": 2,
      "note": 81,
      "start": 4.4982,
      "duration": 0.0091,
      "velocity": 121,
      "chip": "ym2612"
    },
    {
      "channel": 5,
      "note": 55,
      "start": 4.6134,
      "duration": 0.1772,
      "velocity": 125,
      "chip": "ym2612"
    },
    {
      "channel": 2,
      "note": 81,
      "start": 4.6157,
      "duration": 0.0249,
      "velocity": 121,
      "chip": "ym2612"
    },
    {
      "channel": 2,
      "note": 81,
      "start": 4.7433,
      "duration": 0.014,
      "velocity": 121,
      "chip": "ym2612"
    },
    {
      "channel": 2,
      "note": 81,
      "start": 4.8802,
      "duration": 0.0938,
      "velocity": 104,
      "chip": "ym2612"
    },
    {
      "channel": 2,
      "note": 81,
      "start": 4.9963,
      "duration": 0.0277,
      "velocity": 121,
      "chip": "ym2612"
    },
    {
      "channel": 5,
      "note": 45,
      "start": 5.13,
      "duration": 0.0606,
      "velocity": 122,
      "chip": "ym2612"
    },
    {
      "channel": 2,
      "note": 81,
      "start": 5.1323,
      "duration": 0.0083,
      "velocity": 121,
      "chip": "ym2612"
    },
    {
      "channel": 5,
      "note": 45,
      "start": 5.2604,
      "duration": 0.0969,
      "velocity": 122,
      "chip": "ym2612"
    },
    {
      "channel": 2,
      "note": 81,
      "start": 5.2627,
      "duration": 0.0112,
      "velocity": 121,
      "chip": "ym2612"
    },
    {
      "channel": 2,
      "note": 81,
      "start": 5.3933,
      "duration": 0.0141,
      "velocity": 121,
      "chip": "ym2612"
    },
    {
      "channel": 5,
      "note": 45,
      "start": 5.5126,
      "duration": 0.1113,
      "velocity": 122,
      "chip": "ym2612"
    },
    {
      "channel": 2,
      "note": 81,
      "start": 5.515,
      "duration": 0.0256,
      "velocity": 121,
      "chip": "ym2612"
    },
    {
      "channel": 5,
      "note": 55,
      "start": 5.6467,
      "duration": 0.1439,
      "velocity": 125,
      "chip": "ym2612"
    },
    {
      "channel": 2,
      "note": 81,
      "start": 5.649,
      "duration": 0.0083,
      "velocity": 121,
      "chip": "ym2612"
    },
    {
      "channel": 2,
      "note": 81,
      "start": 5.7803,
      "duration": 0.1103,
      "velocity": 104,
      "chip": "ym2612"
    },
    {
      "channel": 2,
      "note": 81,
      "start": 5.8963,
      "duration": 0.0277,
      "velocity": 121,
      "chip": "ym2612"
    },
    {
      "channel": 2,
      "note": 81,
      "start": 5.9933,
      "duration": 0.0139,
      "velocity": 121,
      "chip": "ym2612"
    },
    {
      "channel": 2,
      "note": 81,
      "start": 6.0767,
      "duration": 0.0139,
      "velocity": 121,
      "chip": "ym2612"
    },
    {
      "channel": 2,
      "note": 81,
      "start": 6.1457,
      "duration": 0.0284,
      "velocity": 121,
      "chip": "ym2612"
    },
    {
      "channel": 5,
      "note": 45,
      "start": 6.1633,
      "duration": 0.0606,
      "velocity": 122,
      "chip": "ym2612"
    },
    {
      "channel": 5,
      "note": 45,
      "start": 6.2959,
      "duration": 0.078,
      "velocity": 122,
      "chip": "ym2612"
    },
    {
      "channel": 2,
      "note": 81,
      "start": 6.2985,
      "duration": 0.0087,
      "velocity": 121,
      "chip": "ym2612"
    },
    {
      "channel": 2,
      "note": 81,
      "start": 6.4099,
      "duration": 0.0308,
      "velocity": 121,
      "chip": "ym2612"
    },
    {
      "channel": 5,
      "note": 45,
      "start": 6.5436,
      "duration": 0.0803,
      "velocity": 122,
      "chip": "ym2612"
    },
    {
      "channel": 2,
      "note": 81,
      "start": 6.5474,
      "duration": 0.0932,
      "velocity": 104,
      "chip": "ym2612"
    },
    {
      "channel": 5,
      "note": 55,
      "start": 6.68,
      "duration": 0.1773,
      "velocity": 125,
      "chip": "ym2612"
    },
    {
      "channel": 2,
      "note": 81,
      "start": 6.6842,
      "duration": 0.0065,
      "velocity": 121,
      "chip": "ym2612"
    },
    {
      "channel": 2,
      "note": 81,
      "start": 6.7933,
      "duration": 0.0308,
      "velocity": 121,
      "chip": "ym2612"
    },
    {
      "channel": 2,
      "note": 81,
      "start": 6.9297,
      "duration": 0.111,
      "velocity": 104,
      "chip": "ym2612"
    },
    {
      "channel": 2,
      "note": 81,
      "start": 7.063,
      "duration": 0.0111,
      "velocity": 121,
      "chip": "ym2612"
    },
    {
      "channel": 5,
      "note": 45,
      "start": 7.1966,
      "duration": 0.0439,
      "velocity": 122,
      "chip": "ym2612"
    },
    {
      "channel": 2,
      "note": 81,
      "start": 7.199,
      "duration": 0.0083,
      "velocity": 121,
      "chip": "ym2612"
    },
    {
      "channel": 5,
      "note": 45,
      "start": 7.3125,
      "duration": 0.078,
      "velocity": 122,
      "chip": "ym2612"
    },
    {
      "channel": 2,
      "note": 81,
      "start": 7.3167,
      "duration": 0.4406,
      "velocity": 104,
      "chip": "ym2612"
    },
    {
      "channel": 5,
      "note": 55,
      "start": 7.4467,
      "duration": 0.1105,
      "velocity": 125,
      "chip": "ym2612"
    },
    {
      "channel": 5,
      "note": 45,
      "start": 7.58,
      "duration": 0.0773,
      "velocity": 122,
      "chip": "ym2612"
    },
    {
      "channel": 5,
      "note": 55,
      "start": 7.7138,
      "duration": 0.1102,
      "velocity": 125,
      "chip": "ym2612"
    },
    {
      "channel": 2,
      "note": 81,
      "start": 7.8296,
      "duration": 0.0277,
      "velocity": 121,
      "chip": "ym2612"
    },
    {
      "channel": 2,
      "note": 81,
      "start": 7.9601,
      "duration": 0.0139,
      "velocity": 121,
      "chip": "ym2612"
    },
    {
      "channel": 2,
      "note": 81,
      "start": 8.0433,
      "duration": 0.0139,
      "velocity": 121,
      "chip": "ym2612"
    },
    {
      "channel": 2,
      "note": 81,
      "start": 8.1266,
      "duration": 0.0307,
      "velocity": 121,
      "chip": "ym2612"
    },
    {
      "channel": 5,
      "note": 45,
      "start": 8.2141,
      "duration": 0.0932,
      "velocity": 122,
      "chip": "ym2612"
    },
    {
      "channel": 2,
      "note": 81,
      "start": 8.2183,
      "duration": 0.0223,
      "velocity": 121,
      "chip": "ym2612"
    },
    {
      "channel": 1,
      "note": 67,
      "start": 8.2239,
      "duration": 0.0999,
      "velocity": 94,
      "chip": "ym2612"
    },
    {
      "channel": 5,
      "note": 45,
      "start": 8.3466,
      "duration": 0.1106,
      "velocity": 122,
      "chip": "ym2612"
    },
    {
      "channel": 2,
      "note": 81,
      "start": 8.349,
      "duration": 0.0083,
      "velocity": 121,
      "chip": "ym2612"
    },
    {
      "channel": 1,
      "note": 67,
      "start": 8.3517,
      "duration": 0.0721,
      "velocity": 94,
      "chip": "ym2612"
    },
    {
      "channel": 2,
      "note": 81,
      "start": 8.4767,
      "duration": 0.014,
      "velocity": 121,
      "chip": "ym2612"
    },
    {
      "channel": 1,
      "note": 62,
      "start": 8.4793,
      "duration": 0.0779,
      "velocity": 94,
      "chip": "ym2612"
    },
    {
      "channel": 5,
      "note": 45,
      "start": 8.6105,
      "duration": 0.1135,
      "velocity": 122,
      "chip": "ym2612"
    },
    {
      "channel": 2,
      "note": 81,
      "start": 8.6129,
      "duration": 0.0111,
      "velocity": 121,
      "chip": "ym2612"
    },
    {
      "channel": 1,
      "note": 58,
      "start": 8.627,
      "duration": 0.0802,
      "velocity": 94,
      "chip": "ym2612"
    },
    {
      "channel": 5,
      "note": 55,
      "start": 8.7307,
      "duration": 0.1765,
      "velocity": 125,
      "chip": "ym2612"
    },
    {
      "channel": 2,
      "note": 81,
      "start": 8.733,
      "duration": 0.0244,
      "velocity": 121,
      "chip": "ym2612"
    },
    {
      "channel": 1,
      "note": 65,
      "start": 8.7359,
      "duration": 0.1045,
      "velocity": 94,
      "chip": "ym2612"
    },
    {
      "channel": 2,
      "note": 81,
      "start": 8.8599,
      "duration": 0.0141,
      "velocity": 121,
      "chip": "ym2612"
    },
    {
      "channel": 1,
      "note": 60,
      "start": 8.8629,
      "duration": 0.1444,
      "velocity": 94,
      "chip": "ym2612"
    },
    {
      "channel": 2,
      "note": 81,
      "start": 8.9933,
      "duration": 0.0142,
      "velocity": 121,
      "chip": "ym2612"
    },
    {
      "channel": 2,
      "note": 81,
      "start": 9.1133,
      "duration": 0.2106,
      "velocity": 104,
      "chip": "ym2612"
    },
    {
      "channel": 5,
      "note": 45,
      "start": 9.2466,
      "duration": 0.0606,
      "velocity": 122,
      "chip": "ym2612"
    },
    {
      "channel": 5,
      "note": 45,
      "start": 9.3771,
      "duration": 0.0968,
      "velocity": 122,
      "chip": "ym2612"
    },
    {
      "channel": 2,
      "note": 81,
      "start": 9.3809,
      "duration": 0.0099,
      "velocity": 121,
      "chip": "ym2612"
    },
    {
      "channel": 2,
      "note": 81,
      "start": 9.51,
      "duration": 0.014,
      "velocity": 121,
      "chip": "ym2612"
    },
    {
      "channel": 5,
      "note": 45,
      "start": 9.6292,
      "duration": 0.1113,
      "velocity": 122,
      "chip": "ym2612"
    },
    {
      "channel": 2,
      "note": 81,
      "start": 9.6316,
      "duration": 0.0258,
      "velocity": 121,
      "chip": "ym2612"
    },
    {
      "channel": 5,
      "note": 55,
      "start": 9.7632,
      "duration": 0.0941,
      "velocity": 125,
      "chip": "ym2612"
    },
    {
      "channel": 2,
      "note": 81,
      "start": 9.7655,
      "duration": 0.0085,
      "velocity": 121,
      "chip": "ym2612"
    },
    {
      "channel": 2,
      "note": 81,
      "start": 9.8933,
      "duration": 0.014,
      "velocity": 121,
      "chip": "ym2612"
    },
    {
      "channel": 2,
      "note": 81,
      "start": 10.0101,
      "duration": 0.0305,
      "velocity": 121,
      "chip": "ym2612"
    },
    {
      "channel": 2,
      "note": 81,
      "start": 10.1099,
      "duration": 0.0141,
      "velocity": 121,
      "chip": "ym2612"
    },
    {
      "channel": 2,
      "note": 81,
      "start": 10.1932,
      "duration": 0.0141,
      "velocity": 121,
      "chip": "ym2612"
    },
    {
      "channel": 1,
      "note": 67,
      "start": 10.2624,
      "duration": 0.078,
      "velocity": 94,
      "chip": "ym2612"
    },
    {
      "channel": 5,
      "note": 45,
      "start": 10.28,
      "duration": 0.0606,
      "velocity": 122,
      "chip": "ym2612"
    },
    {
      "channel": 2,
      "note": 81,
      "start": 10.2842,
      "duration": 0.1231,
      "velocity": 104,
      "chip": "ym2612"
    },
    {
      "channel": 5,
      "note": 45,
      "start": 10.4105,
      "duration": 0.0968,
      "velocity": 122,
      "chip": "ym2612"
    },
    {
      "channel": 2,
      "note": 81,
      "start": 10.4143,
      "duration": 0.0098,
      "velocity": 121,
      "chip": "ym2612"
    },
    {
      "channel": 1,
      "note": 67,
      "start": 10.4171,
      "duration": 0.1067,
      "velocity": 94,
      "chip": "ym2612"
    },
    {
      "channel": 0,
      "note": 62,
      "start": 10.5108,
      "duration": 0.0964,
      "velocity": 94,
      "chip": "ym2612"
    },
    {
      "channel": 2,
      "note": 81,
      "start": 10.5267,
      "duration": 0.0306,
      "velocity": 121,
      "chip": "ym2612"
    },
    {
      "channel": 5,
      "note": 45,
      "start": 10.6625,
      "duration": 0.0949,
      "velocity": 122,
      "chip": "ym2612"
    },
    {
      "channel": 2,
      "note": 81,
      "start": 10.6667,
      "duration": 0.0908,
      "velocity": 104,
      "chip": "ym2612"
    },
    {
      "channel": 0,
      "note": 58,
      "start": 10.6693,
      "duration": 0.0878,
      "velocity": 94,
      "chip": "ym2612"
    },
    {
      "channel": 0,
      "note": 65,
      "start": 10.7607,
      "duration": 0.1297,
      "velocity": 94,
      "chip": "ym2612"
    },
    {
      "channel": 5,
      "note": 55,
      "start": 10.7967,
      "duration": 0.1439,
      "velocity": 125,
      "chip": "ym2612"
    },
    {
      "channel": 2,
      "note": 81,
      "start": 10.8005,
      "duration": 0.0068,
      "velocity": 121,
      "chip": "ym2612"
    },
    {
      "channel": 2,
      "note": 81,
      "start": 10.913,
      "duration": 0.1111,
      "velocity": 104,
      "chip": "ym2612"
    },
    {
      "channel": 0,
      "note": 60,
      "start": 10.9156,
      "duration": 0.1249,
      "velocity": 94,
      "chip": "ym2612"
    },
    {
      "channel": 1,
      "note": 63,
      "start": 11.0271,
      "duration": 0.13,
      "velocity": 94,
      "chip": "ym2612"
    },
    {
      "channel": 2,
      "note": 81,
      "start": 11.0467,
      "duration": 0.0106,
      "velocity": 121,
      "chip": "ym2612"
    },
    {
      "channel": 2,
      "note": 81,
      "start": 11.1767,
      "duration": 0.0139,
      "velocity": 121,
      "chip": "ym2612"
    },
    {
      "channel": 0,
      "note": 55,
      "start": 11.1796,
      "duration": 0.1275,
      "velocity": 94,
      "chip": "ym2612"
    },
    {
      "channel": 5,
      "note": 45,
      "start": 11.3133,
      "duration": 0.0439,
      "velocity": 122,
      "chip": "ym2612"
    },
    {
      "channel": 2,
      "note": 81,
      "start": 11.3157,
      "duration": 0.0083,
      "velocity": 121,
      "chip": "ym2612"
    },
    {
      "channel": 0,
      "note": 55,
      "start": 11.4105,
      "duration": 0.1634,
      "velocity": 94,
      "chip": "ym2612"
    },
    {
      "channel": 5,
      "note": 45,
      "start": 11.4272,
      "duration": 0.1135,
      "velocity": 122,
      "chip": "ym2612"
    },
    {
      "channel": 2,
      "note": 81,
      "start": 11.4295,
      "duration": 0.0279,
      "velocity": 121,
      "chip": "ym2612"
    },
    {
      "channel": 2,
      "note": 81,
      "start": 11.563,
      "duration": 0.461,
      "velocity": 104,
      "chip": "ym2612"
    },
    {
      "channel": 5,
      "note": 45,
      "start": 11.696,
      "duration": 0.0946,
      "velocity": 122,
      "chip": "ym2612"
    },
    {
      "channel": 5,
      "note": 55,
      "start": 11.83,
      "duration": 0.1605,
      "velocity": 125,
      "chip": "ym2612"
    },
    {
      "channel": 2,
      "note": 81,
      "start": 12.08,
      "duration": 0.0107,
      "velocity": 121,
      "chip": "ym2612"
    },
    {
      "channel": 2,
      "note": 81,
      "start": 12.1599,
      "duration": 0.014,
      "velocity": 121,
      "chip": "ym2612"
    },
    {
      "channel": 2,
      "note": 81,
      "start": 12.2433,
      "duration": 0.0308,
      "velocity": 121,
      "chip": "ym2612"
    },
    {
      "channel": 5,
      "note": 45,
      "start": 12.33,
      "duration": 0.0607,
      "velocity": 122,
      "chip": "ym2612"
    },
    {
      "channel": 2,
      "note": 81,
      "start": 12.3338,
      "duration": 0.0901,
      "velocity": 104,
      "chip": "ym2612"
    },
    {
      "channel": 0,
      "note": 67,
      "start": 12.3605,
      "duration": 0.03,
      "velocity": 94,
      "chip": "ym2612"
    },
    {
      "channel": 5,
      "note": 45,
      "start": 12.4625,
      "duration": 0.0781,
      "velocity": 122,
      "chip": "ym2612"
    },
    {
      "channel": 2,
      "note": 81,
      "start": 12.4667,
      "duration": 0.0072,
      "velocity": 121,
      "chip": "ym2612"
    },
    {
      "channel": 0,
      "note": 67,
      "start": 12.4771,
      "duration": 0.13,
      "velocity": 94,
      "chip": "ym2612"
    },
    {
      "channel": 2,
      "note": 81,
      "start": 12.5933,
      "duration": 0.0141,
      "velocity": 121,
      "chip": "ym2612"
    },
    {
      "channel": 1,
      "note": 62,
      "start": 12.5959,
      "duration": 0.0945,
      "velocity": 94,
      "chip": "ym2612"
    },
    {
      "channel": 0,
      "note": 58,
      "start": 12.6937,
      "duration": 0.1135,
      "velocity": 94,
      "chip": "ym2612"
    },
    {
      "channel": 5,
      "note": 45,
      "start": 12.7272,
      "duration": 0.0968,
      "velocity": 122,
      "chip": "ym2612"
    },
    {
      "channel": 2,
      "note": 81,
      "start": 12.7295,
      "duration": 0.0111,
      "velocity": 121,
      "chip": "ym2612"
    },
    {
      "channel": 0,
      "note": 65,
      "start": 12.8291,
      "duration": 0.128,
      "velocity": 94,
      "chip": "ym2612"
    },
    {
      "channel": 5,
      "note": 55,
      "start": 12.8467,
      "duration": 0.1773,
      "velocity": 125,
      "chip": "ym2612"
    },
    {
      "channel": 2,
      "note": 81,
      "start": 12.849,
      "duration": 0.0249,
      "velocity": 121,
      "chip": "ym2612"
    },
    {
      "channel": 2,
      "note": 81,
      "start": 12.9766,
      "duration": 0.0141,
      "velocity": 121,
      "chip": "ym2612"
    },
    {
      "channel": 0,
      "note": 60,
      "start": 12.9795,
      "duration": 0.1444,
      "velocity": 94,
      "chip": "ym2612"
    },
    {
      "channel": 2,
      "note": 81,
      "start": 13.113,
      "duration": 0.0943,
      "velocity": 104,
      "chip": "ym2612"
    },
    {
      "channel": 2,
      "note": 81,
      "start": 13.23,
      "duration": 0.0273,
      "velocity": 121,
      "chip": "ym2612"
    },
    {
      "channel": 5,
      "note": 45,
      "start": 13.3633,
      "duration": 0.0606,
      "velocity": 122,
      "chip": "ym2612"
    },
    {
      "channel": 2,
      "note": 81,
      "start": 13.3657,
      "duration": 0.0083,
      "velocity": 121,
      "chip": "ym2612"
    },
    {
      "channel": 5,
      "note": 45,
      "start": 13.4961,
      "duration": 0.0944,
      "velocity": 122,
      "chip": "ym2612"
    },
    {
      "channel": 2,
      "note": 81,
      "start": 13.4985,
      "duration": 0.0088,
      "velocity": 121,
      "chip": "ym2612"
    },
    {
      "channel": 2,
      "note": 81,
      "start": 13.6265,
      "duration": 0.0141,
      "velocity": 121,
      "chip": "ym2612"
    },
    {
      "channel": 5,
      "note": 45,
      "start": 13.7436,
      "duration": 0.1136,
      "velocity": 122,
      "chip": "ym2612"
    },
    {
      "channel": 2,
      "note": 81,
      "start": 13.746,
      "duration": 0.028,
      "velocity": 121,
      "chip": "ym2612"
    },
    {
      "channel": 5,
      "note": 55,
      "start": 13.88,
      "duration": 0.1439,
      "velocity": 125,
      "chip": "ym2612"
    },
    {
      "channel": 2,
      "note": 81,
      "start": 13.8824,
      "duration": 0.0083,
      "velocity": 121,
      "chip": "ym2612"
    },
    {
      "channel": 2,
      "note": 81,
      "start": 14.0129,
      "duration": 0.1111,
      "velocity": 104,
      "chip": "ym2612"
    },
    {
      "channel": 2,
      "note": 81,
      "start": 14.13,
      "duration": 0.0273,
      "velocity": 121,
      "chip": "ym2612"
    },
    {
      "channel": 2,
      "note": 81,
      "start": 14.2266,
      "duration": 0.014,
      "velocity": 121,
      "chip": "ym2612"
    },
    {
      "channel": 2,
      "note": 81,
      "start": 14.3101,
      "duration": 0.0139,
      "velocity": 121,
      "chip": "ym2612"
    },
    {
      "channel": 2,
      "note": 81,
      "start": 14.3768,
      "duration": 0.0305,
      "velocity": 121,
      "chip": "ym2612"
    },
    {
      "channel": 5,
      "note": 45,
      "start": 14.397,
      "duration": 0.0602,
      "velocity": 122,
      "chip": "ym2612"
    },
    {
      "channel": 0,
      "note": 67,
      "start": 14.3999,
      "duration": 0.0571,
      "velocity": 94,
      "chip": "ym2612"
    },
    {
      "channel": 5,
      "note": 45,
      "start": 14.5272,
      "duration": 0.0802,
      "velocity": 122,
      "chip": "ym2612"
    },
    {
      "channel": 2,
      "note": 81,
      "start": 14.5298,
      "duration": 0.0108,
      "velocity": 121,
      "chip": "ym2612"
    },
    {
      "channel": 0,
      "note": 67,
      "start": 14.5438,
      "duration": 0.0965,
      "velocity": 94,
      "chip": "ym2612"
    },
    {
      "channel": 2,
      "note": 81,
      "start": 14.6433,
      "duration": 0.0308,
      "velocity": 121,
      "chip": "ym2612"
    },
    {
      "channel": 0,
      "note": 62,
      "start": 14.6459,
      "duration": 0.1112,
      "velocity": 94,
      "chip": "ym2612"
    },
    {
      "channel": 5,
      "note": 45,
      "start": 14.7769,
      "duration": 0.0805,
      "velocity": 122,
      "chip": "ym2612"
    },
    {
      "channel": 2,
      "note": 81,
      "start": 14.7811,
      "duration": 0.0928,
      "velocity": 104,
      "chip": "ym2612"
    },
    {
      "channel": 0,
      "note": 58,
      "start": 14.7843,
      "duration": 0.0728,
      "velocity": 94,
      "chip": "ym2612"
    },
    {
      "channel": 0,
      "note": 65,
      "start": 14.8772,
      "duration": 0.1299,
      "velocity": 94,
      "chip": "ym2612"
    },
    {
      "channel": 5,
      "note": 55,
      "start": 14.9134,
      "duration": 0.1772,
      "velocity": 125,
      "chip": "ym2612"
    },
    {
      "channel": 2,
      "note": 81,
      "start": 14.9172,
      "duration": 0.0067,
      "velocity": 121,
      "chip": "ym2612"
    },
    {
      "channel": 2,
      "note": 81,
      "start": 15.0265,
      "duration": 0.0308,
      "velocity": 121,
      "chip": "ym2612"
    },
    {
      "channel": 0,
      "note": 60,
      "start": 15.0293,
      "duration": 0.111,
      "velocity": 94,
      "chip": "ym2612"
    },
    {
      "channel": 0,
      "note": 63,
      "start": 15.1438,
      "duration": 0.13,
      "velocity": 94,
      "chip": "ym2612"
    },
    {
      "channel": 2,
      "note": 81,
      "start": 15.163,
      "duration": 0.1111,
      "velocity": 104,
      "chip": "ym2612"
    },
    {
      "channel": 2,
      "note": 81,
      "start": 15.2968,
      "duration": 0.0106,
      "velocity": 121,
      "chip": "ym2612"
    },
    {
      "channel": 0,
      "note": 55,
      "start": 15.2996,
      "duration": 0.0908,
      "velocity": 94,
      "chip": "ym2612"
    },
    {
      "channel": 5,
      "note": 45,
      "start": 15.4303,
      "duration": 0.0436,
      "velocity": 122,
      "chip": "ym2612"
    },
    {
      "channel": 2,
      "note": 81,
      "start": 15.4327,
      "duration": 0.008,
      "velocity": 121,
      "chip": "ym2612"
    },
    {
      "channel": 0,
      "note": 55,
      "start": 15.5105,
      "duration": 0.1133,
      "velocity": 94,
      "chip": "ym2612"
    },
    {
      "channel": 5,
      "note": 45,
      "start": 15.5436,
      "duration": 0.0804,
      "velocity": 122,
      "chip": "ym2612"
    },
    {
      "channel": 2,
      "note": 81,
      "start": 15.5474,
      "duration": 0.4432,
      "velocity": 104,
      "chip": "ym2612"
    },
    {
      "channel": 5,
      "note": 55,
      "start": 15.68,
      "duration": 0.0939,
      "velocity": 125,
      "chip": "ym2612"
    },
    {
      "channel": 5,
      "note": 45,
      "start": 15.8133,
      "duration": 0.0773,
      "velocity": 122,
      "chip": "ym2612"
    },
    {
      "channel": 5,
      "note": 55,
      "start": 15.9307,
      "duration": 0.1266,
      "velocity": 125,
      "chip": "ym2612"
    },
    {
      "channel": 2,
      "note": 81,
      "start": 16.0633,
      "duration": 0.0273,
      "velocity": 121,
      "chip": "ym2612"
    },
    {
      "channel": 2,
      "note": 81,
      "start": 16.1934,
      "duration": 0.014,
      "velocity": 121,
      "chip": "ym2612"
    },
    {
      "channel": 2,
      "note": 81,
      "start": 16.2765,
      "duration": 0.0141,
      "velocity": 121,
      "chip": "ym2612"
    },
    {
      "channel": 2,
      "note": 81,
      "start": 16.36,
      "duration": 0.0306,
      "velocity": 121,
      "chip": "ym2612"
    },
    {
      "channel": 5,
      "note": 45,
      "start": 16.4475,
      "duration": 0.0931,
      "velocity": 122,
      "chip": "ym2612"
    },
    {
      "channel": 2,
      "note": 81,
      "start": 16.4512,
      "duration": 0.0228,
      "velocity": 121,
      "chip": "ym2612"
    },
    {
      "channel": 0,
      "note": 55,
      "start": 16.4543,
      "duration": 0.1694,
      "velocity": 94,
      "chip": "ym2612"
    },
    {
      "channel": 5,
      "note": 45,
      "start": 16.58,
      "duration": 0.1106,
      "velocity": 122,
      "chip": "ym2612"
    },
    {
      "channel": 2,
      "note": 81,
      "start": 16.5823,
      "duration": 0.0083,
      "velocity": 121,
      "chip": "ym2612"
    },
    {
      "channel": 1,
      "note": 56,
      "start": 16.5938,
      "duration": 0.1134,
      "velocity": 94,
      "chip": "ym2612"
    },
    {
      "channel": 2,
      "note": 81,
      "start": 16.7101,
      "duration": 0.014,
      "velocity": 121,
      "chip": "ym2612"
    },
    {
      "channel": 0,
      "note": 60,
      "start": 16.7127,
      "duration": 0.0944,
      "velocity": 94,
      "chip": "ym2612"
    },
    {
      "channel": 5,
      "note": 45,
      "start": 16.8438,
      "duration": 0.1135,
      "velocity": 122,
      "chip": "ym2612"
    },
    {
      "channel": 2,
      "note": 81,
      "start": 16.8461,
      "duration": 0.0112,
      "velocity": 121,
      "chip": "ym2612"
    },
    {
      "channel": 0,
      "note": 55,
      "start": 16.8606,
      "duration": 0.1298,
      "velocity": 94,
      "chip": "ym2612"
    },
    {
      "channel": 5,
      "note": 55,
      "start": 16.964,
      "duration": 0.1766,
      "velocity": 125,
      "chip": "ym2612"
    },
    {
      "channel": 2,
      "note": 81,
      "start": 16.9664,
      "duration": 0.0244,
      "velocity": 121,
      "chip": "ym2612"
    },
    {
      "channel": 1,
      "note": 56,
      "start": 16.969,
      "duration": 0.0715,
      "velocity": 94,
      "chip": "ym2612"
    },
    {
      "channel": 0,
      "note": 62,
      "start": 17.079,
      "duration": 0.1615,
      "velocity": 94,
      "chip": "ym2612"
    },
    {
      "channel": 2,
      "note": 81,
      "start": 17.0932,
      "duration": 0.0142,
      "velocity": 121,
      "chip": "ym2612"
    },
    {
      "channel": 2,
      "note": 81,
      "start": 17.2265,
      "duration": 0.0143,
      "velocity": 121,
      "chip": "ym2612"
    },
    {
      "channel": 2,
      "note": 81,
      "start": 17.3466,
      "duration": 0.2106,
      "velocity": 104,
      "chip": "ym2612"
    },
    {
      "channel": 5,
      "note": 45,
      "start": 17.48,
      "duration": 0.0606,
      "velocity": 122,
      "chip": "ym2612"
    },
    {
      "channel": 5,
      "note": 45,
      "start": 17.6105,
      "duration": 0.0968,
      "velocity": 122,
      "chip": "ym2612"
    },
    {
      "channel": 2,
      "note": 81,
      "start": 17.6143,
      "duration": 0.0097,
      "velocity": 121,
      "chip": "ym2612"
    },
    {
      "channel": 2,
      "note": 81,
      "start": 17.7433,
      "duration": 0.0141,
      "velocity": 121,
      "chip": "ym2612"
    },
    {
      "channel": 5,
      "note": 45,
      "start": 17.8625,
      "duration": 0.1113,
      "velocity": 122,
      "chip": "ym2612"
    },
    {
      "channel": 2,
      "note": 81,
      "start": 17.8649,
      "duration": 0.0258,
      "velocity": 121,
      "chip": "ym2612"
    },
    {
      "channel": 5,
      "note": 55,
      "start": 17.9965,
      "duration": 0.0941,
      "velocity": 125,
      "chip": "ym2612"
    },
    {
      "channel": 2,
      "note": 81,
      "start": 17.9989,
      "duration": 0.0085,
      "velocity": 121,
      "chip": "ym2612"
    },
    {
      "channel": 2,
      "note": 81,
      "start": 18.1266,
      "duration": 0.014,
      "velocity": 121,
      "chip": "ym2612"
    },
    {
      "channel": 2,
      "note": 81,
      "start": 18.2435,
      "duration": 0.0305,
      "velocity": 121,
      "chip": "ym2612"
    },
    {
      "channel": 2,
      "note": 81,
      "start": 18.3433,
      "duration": 0.014,
      "velocity": 121,
      "chip": "ym2612"
    },
    {
      "channel": 2,
      "note": 81,
      "start": 18.4266,
      "duration": 0.0141,
      "velocity": 121,
      "chip": "ym2612"
    },
    {
      "channel": 5,
      "note": 45,
      "start": 18.5133,
      "duration": 0.0606,
      "velocity": 122,
      "chip": "ym2612"
    },
    {
      "channel": 2,
      "note": 81,
      "start": 18.5175,
      "duration": 0.1232,
      "velocity": 104,
      "chip": "ym2612"
    },
    {
      "channel": 0,
      "note": 55,
      "start": 18.5202,
      "duration": 0.1202,
      "velocity": 94,
      "chip": "ym2612"
    },
    {
      "channel": 1,
      "note": 56,
      "start": 18.6105,
      "duration": 0.1133,
      "velocity": 94,
      "chip": "ym2612"
    },
    {
      "channel": 5,
      "note": 45,
      "start": 18.644,
      "duration": 0.0966,
      "velocity": 122,
      "chip": "ym2612"
    },
    {
      "channel": 2,
      "note": 81,
      "start": 18.6478,
      "duration": 0.0096,
      "velocity": 121,
      "chip": "ym2612"
    },
    {
      "channel": 0,
      "note": 60,
      "start": 18.7438,
      "duration": 0.1299,
      "velocity": 94,
      "chip": "ym2612"
    },
    {
      "channel": 2,
      "note": 81,
      "start": 18.7599,
      "duration": 0.0308,
      "velocity": 121,
      "chip": "ym2612"
    },
    {
      "channel": 5,
      "note": 45,
      "start": 18.8959,
      "duration": 0.0947,
      "velocity": 122,
      "chip": "ym2612"
    },
    {
      "channel": 2,
      "note": 81,
      "start": 18.9001,
      "duration": 0.0907,
      "velocity": 104,
      "chip": "ym2612"
    },
    {
      "channel": 0,
      "note": 55,
      "start": 18.9025,
      "duration": 0.1213,
      "velocity": 94,
      "chip": "ym2612"
    },
    {
      "channel": 5,
      "note": 55,
      "start": 19.03,
      "duration": 0.1439,
      "velocity": 125,
      "chip": "ym2612"
    },
    {
      "channel": 2,
      "note": 81,
      "start": 19.0339,
      "duration": 0.0068,
      "velocity": 121,
      "chip": "ym2612"
    },
    {
      "channel": 0,
      "note": 56,
      "start": 19.0438,
      "duration": 0.0966,
      "velocity": 94,
      "chip": "ym2612"
    },
    {
      "channel": 2,
      "note": 81,
      "start": 19.1463,
      "duration": 0.111,
      "velocity": 104,
      "chip": "ym2612"
    },
    {
      "channel": 0,
      "note": 62,
      "start": 19.1494,
      "duration": 0.141,
      "velocity": 94,
      "chip": "ym2612"
    },
    {
      "channel": 2,
      "note": 81,
      "start": 19.28,
      "duration": 0.0107,
      "velocity": 121,
      "chip": "ym2612"
    },
    {
      "channel": 0,
      "note": 55,
      "start": 19.294,
      "duration": 0.1132,
      "velocity": 94,
      "chip": "ym2612"
    },
    {
      "channel": 2,
      "note": 81,
      "start": 19.4101,
      "duration": 0.0139,
      "velocity": 121,
      "chip": "ym2612"
    },
    {
      "channel": 0,
      "note": 56,
      "start": 19.4128,
      "duration": 0.1276,
      "velocity": 94,
      "chip": "ym2612"
    },
    {
      "channel": 5,
      "note": 45,
      "start": 19.5466,
      "duration": 0.044,
      "velocity": 122,
      "chip": "ym2612"
    },
    {
      "channel": 2,
      "note": 81,
      "start": 19.549,
      "duration": 0.0083,
      "velocity": 121,
      "chip": "ym2612"
    },
    {
      "channel": 0,
      "note": 63,
      "start": 19.5605,
      "duration": 0.9466,
      "velocity": 94,
      "chip": "ym2612"
    },
    {
      "channel": 5,
      "note": 45,
      "start": 19.6605,
      "duration": 0.1134,
      "velocity": 122,
      "chip": "ym2612"
    },
    {
      "channel": 2,
      "note": 81,
      "start": 19.6629,
      "duration": 0.0277,
      "velocity": 121,
      "chip": "ym2612"
    },
    {
      "channel": 2,
      "note": 81,
      "start": 19.7963,
      "duration": 0.4609,
      "velocity": 104,
      "chip": "ym2612"
    },
    {
      "channel": 5,
      "note": 45,
      "start": 19.9293,
      "duration": 0.0947,
      "velocity": 122,
      "chip": "ym2612"
    },
    {
      "channel": 5,
      "note": 55,
      "start": 20.0467,
      "duration": 0.1772,
      "velocity": 125,
      "chip": "ym2612"
    },
    {
      "channel": 2,
      "note": 81,
      "start": 20.3133,
      "duration": 0.0107,
      "velocity": 121,
      "chip": "ym2612"
    },
    {
      "channel": 2,
      "note": 81,
      "start": 20.3933,
      "duration": 0.014,
      "velocity": 121,
      "chip": "ym2612"
    },
    {
      "channel": 2,
      "note": 81,
      "start": 20.4766,
      "duration": 0.0309,
      "velocity": 121,
      "chip": "ym2612"
    },
    {
      "channel": 0,
      "note": 55,
      "start": 20.5438,
      "duration": 0.13,
      "velocity": 94,
      "chip": "ym2612"
    },
    {
      "channel": 5,
      "note": 45,
      "start": 20.5633,
      "duration": 0.0607,
      "velocity": 122,
      "chip": "ym2612"
    },
    {
      "channel": 2,
      "note": 81,
      "start": 20.5671,
      "duration": 0.0902,
      "velocity": 104,
      "chip": "ym2612"
    },
    {
      "channel": 1,
      "note": 56,
      "start": 20.6606,
      "duration": 0.0965,
      "velocity": 94,
      "chip": "ym2612"
    },
    {
      "channel": 5,
      "note": 45,
      "start": 20.6959,
      "duration": 0.078,
      "velocity": 122,
      "chip": "ym2612"
    },
    {
      "channel": 2,
      "note": 81,
      "start": 20.7001,
      "duration": 0.0072,
      "velocity": 121,
      "chip": "ym2612"
    },
    {
      "channel": 0,
      "note": 60,
      "start": 20.8125,
      "duration": 0.1113,
      "velocity": 94,
      "chip": "ym2612"
    },
    {
      "channel": 2,
      "note": 81,
      "start": 20.8267,
      "duration": 0.014,
      "velocity": 121,
      "chip": "ym2612"
    },
    {
      "channel": 0,
      "note": 55,
      "start": 20.9269,
      "duration": 0.1302,
      "velocity": 94,
      "chip": "ym2612"
    },
    {
      "channel": 5,
      "note": 45,
      "start": 20.9604,
      "duration": 0.0969,
      "velocity": 122,
      "chip": "ym2612"
    },
    {
      "channel": 2,
      "note": 81,
      "start": 20.9628,
      "duration": 0.0112,
      "velocity": 121,
      "chip": "ym2612"
    },
    {
      "channel": 0,
      "note": 56,
      "start": 21.0605,
      "duration": 0.0966,
      "velocity": 94,
      "chip": "ym2612"
    },
    {
      "channel": 5,
      "note": 55,
      "start": 21.08,
      "duration": 0.1773,
      "velocity": 125,
      "chip": "ym2612"
    },
    {
      "channel": 2,
      "note": 81,
      "start": 21.0824,
      "duration": 0.0249,
      "velocity": 121,
      "chip": "ym2612"
    },
    {
      "channel": 0,
      "note": 62,
      "start": 21.1937,
      "duration": 0.1467,
      "velocity": 94,
      "chip": "ym2612"
    },
    {
      "channel": 2,
      "note": 81,
      "start": 21.2099,
      "duration": 0.0141,
      "velocity": 121,
      "chip": "ym2612"
    },
    {
      "channel": 2,
      "note": 81,
      "start": 21.3463,
      "duration": 0.0943,
      "velocity": 104,
      "chip": "ym2612"
    },
    {
      "channel": 2,
      "note": 81,
      "start": 21.4633,
      "duration": 0.0273,
      "velocity": 121,
      "chip": "ym2612"
    },
    {
      "channel": 5,
      "note": 45,
      "start": 21.5966,
      "duration": 0.0606,
      "velocity": 122,
      "chip": "ym2612"
    },
    {
      "channel": 2,
      "note": 81,
      "start": 21.599,
      "duration": 0.0083,
      "velocity": 121,
      "chip": "ym2612"
    },
    {
      "channel": 5,
      "note": 45,
      "start": 21.7295,
      "duration": 0.0944,
      "velocity": 122,
      "chip": "ym2612"
    },
    {
      "channel": 2,
      "note": 81,
      "start": 21.7318,
      "duration": 0.0088,
      "velocity": 121,
      "chip": "ym2612"
    },
    {
      "channel": 2,
      "note": 81,
      "start": 21.8599,
      "duration": 0.0141,
      "velocity": 121,
      "chip": "ym2612"
    },
    {
      "channel": 5,
      "note": 45,
      "start": 21.9769,
      "duration": 0.1137,
      "velocity": 122,
      "chip": "ym2612"
    },
    {
      "channel": 2,
      "note": 81,
      "start": 21.9793,
      "duration": 0.028,
      "velocity": 121,
      "chip": "ym2612"
    },
    {
      "channel": 5,
      "note": 55,
      "start": 22.1134,
      "duration": 0.1439,
      "velocity": 125,
      "chip": "ym2612"
    },
    {
      "channel": 2,
      "note": 81,
      "start": 22.1157,
      "duration": 0.0083,
      "velocity": 121,
      "chip": "ym2612"
    },
    {
      "channel": 2,
      "note": 81,
      "start": 22.2463,
      "duration": 0.1111,
      "velocity": 104,
      "chip": "ym2612"
    },
    {
      "channel": 2,
      "note": 81,
      "start": 22.3633,
      "duration": 0.0273,
      "velocity": 121,
      "chip": "ym2612"
    },
    {
      "channel": 0,
      "note": 55,
      "start": 22.3661,
      "duration": 0.1244,
      "velocity": 94,
      "chip": "ym2612"
    },
    {
      "channel": 2,
      "note": 81,
      "start": 22.46,
      "duration": 0.014,
      "velocity": 121,
      "chip": "ym2612"
    },
    {
      "channel": 1,
      "note": 56,
      "start": 22.4772,
      "duration": 0.0966,
      "velocity": 94,
      "chip": "ym2612"
    },
    {
      "channel": 2,
      "note": 81,
      "start": 22.5435,
      "duration": 0.0139,
      "velocity": 121,
      "chip": "ym2612"
    },
    {
      "channel": 2,
      "note": 81,
      "start": 22.6102,
      "duration": 0.0304,
      "velocity": 121,
      "chip": "ym2612"
    },
    {
      "channel": 0,
      "note": 60,
      "start": 22.6132,
      "duration": 0.1106,
      "velocity": 94,
      "chip": "ym2612"
    },
    {
      "channel": 5,
      "note": 45,
      "start": 22.6303,
      "duration": 0.0603,
      "velocity": 122,
      "chip": "ym2612"
    },
    {
      "channel": 0,
      "note": 55,
      "start": 22.7272,
      "duration": 0.1466,
      "velocity": 94,
      "chip": "ym2612"
    },
    {
      "channel": 5,
      "note": 45,
      "start": 22.7605,
      "duration": 0.0801,
      "velocity": 122,
      "chip": "ym2612"
    },
    {
      "channel": 2,
      "note": 81,
      "start": 22.7631,
      "duration": 0.011,
      "velocity": 121,
      "chip": "ym2612"
    },
    {
      "channel": 2,
      "note": 81,
      "start": 22.8767,
      "duration": 0.0306,
      "velocity": 121,
      "chip": "ym2612"
    },
    {
      "channel": 0,
      "note": 56,
      "start": 22.8795,
      "duration": 0.111,
      "velocity": 94,
      "chip": "ym2612"
    },
    {
      "channel": 5,
      "note": 45,
      "start": 23.0102,
      "duration": 0.0804,
      "velocity": 122,
      "chip": "ym2612"
    },
    {
      "channel": 2,
      "note": 81,
      "start": 23.0144,
      "duration": 0.0929,
      "velocity": 104,
      "chip": "ym2612"
    },
    {
      "channel": 0,
      "note": 62,
      "start": 23.0171,
      "duration": 0.1401,
      "velocity": 94,
      "chip": "ym2612"
    },
    {
      "channel": 5,
      "note": 55,
      "start": 23.1467,
      "duration": 0.1772,
      "velocity": 125,
      "chip": "ym2612"
    },
    {
      "channel": 2,
      "note": 81,
      "start": 23.1505,
      "duration": 0.0069,
      "velocity": 121,
      "chip": "ym2612"
    },
    {
      "channel": 1,
      "note": 55,
      "start": 23.1532,
      "duration": 0.1372,
      "velocity": 94,
      "chip": "ym2612"
    },
    {
      "channel": 2,
      "note": 81,
      "start": 23.26,
      "duration": 0.0307,
      "velocity": 121,
      "chip": "ym2612"
    },
    {
      "channel": 0,
      "note": 56,
      "start": 23.2939,
      "duration": 0.0965,
      "velocity": 94,
      "chip": "ym2612"
    },
    {
      "channel": 2,
      "note": 81,
      "start": 23.3963,
      "duration": 0.1111,
      "velocity": 104,
      "chip": "ym2612"
    },
    {
      "channel": 0,
      "note": 63,
      "start": 23.3994,
      "duration": 0.141,
      "velocity": 94,
      "chip": "ym2612"
    },
    {
      "channel": 2,
      "note": 81,
      "start": 23.5302,
      "duration": 0.0106,
      "velocity": 121,
      "chip": "ym2612"
    },
    {
      "channel": 0,
      "note": 56,
      "start": 23.544,
      "duration": 0.0798,
      "velocity": 94,
      "chip": "ym2612"
    },
    {
      "channel": 5,
      "note": 45,
      "start": 23.6636,
      "duration": 0.0436,
      "velocity": 122,
      "chip": "ym2612"
    },
    {
      "channel": 2,
      "note": 81,
      "start": 23.6661,
      "duration": 0.008,
      "velocity": 121,
      "chip": "ym2612"
    },
    {
      "channel": 0,
      "note": 58,
      "start": 23.6687,
      "duration": 0.0717,
      "velocity": 94,
      "chip": "ym2612"
    },
    {
      "channel": 5,
      "note": 45,
      "start": 23.7769,
      "duration": 0.0803,
      "velocity": 122,
      "chip": "ym2612"
    },
    {
      "channel": 2,
      "note": 81,
      "start": 23.7807,
      "duration": 0.4433,
      "velocity": 104,
      "chip": "ym2612"
    },
    {
      "channel": 0,
      "note": 65,
      "start": 23.7834,
      "duration": 0.107,
      "velocity": 94,
      "chip": "ym2612"
    },
    {
      "channel": 5,
      "note": 55,
      "start": 23.9134,
      "duration": 0.0939,
      "velocity": 125,
      "chip": "ym2612"
    },
    {
      "channel": 0,
      "note": 60,
      "start": 23.9161,
      "duration": 0.0744,
      "velocity": 94,
      "chip": "ym2612"
    },
    {
      "channel": 5,
      "note": 45,
      "start": 24.0466,
      "duration": 0.0774,
      "velocity": 122,
      "chip": "ym2612"
    },
    {
      "channel": 0,
      "note": 61,
      "start": 24.0492,
      "duration": 0.0746,
      "velocity": 94,
      "chip": "ym2612"
    },
    {
      "channel": 5,
      "note": 55,
      "start": 24.164,
      "duration": 0.1266,
      "velocity": 125,
      "chip": "ym2612"
    },
    {
      "channel": 0,
      "note": 67,
      "start": 24.1667,
      "duration": 0.1737,
      "velocity": 94,
      "chip": "ym2612"
    },
    {
      "channel": 2,
      "note": 81,
      "start": 24.2966,
      "duration": 0.0107,
      "velocity": 121,
      "chip": "ym2612"
    },
    {
      "channel": 1,
      "note": 63,
      "start": 24.2993,
      "duration": 0.1078,
      "velocity": 94,
      "chip": "ym2612"
    },
    {
      "channel": 2,
      "note": 81,
      "start": 24.4268,
      "duration": 0.0139,
      "velocity": 121,
      "chip": "ym2612"
    },
    {
      "channel": 0,
      "note": 65,
      "start": 24.4297,
      "duration": 0.0773,
      "velocity": 94,
      "chip": "ym2612"
    },
    {
      "channel": 2,
      "note": 81,
      "start": 24.5099,
      "duration": 0.014,
      "velocity": 121,
      "chip": "ym2612"
    },
    {
      "channel": 0,
      "note": 60,
      "start": 24.5602,
      "duration": 0.0968,
      "velocity": 94,
      "chip": "ym2612"
    },
    {
      "channel": 2,
      "note": 81,
      "start": 24.5933,
      "duration": 0.0308,
      "velocity": 121,
      "chip": "ym2612"
    },
    {
      "channel": 5,
      "note": 45,
      "start": 24.6808,
      "duration": 0.0931,
      "velocity": 122,
      "chip": "ym2612"
    },
    {
      "channel": 2,
      "note": 81,
      "start": 24.6846,
      "duration": 0.0228,
      "velocity": 121,
      "chip": "ym2612"
    },
    {
      "channel": 0,
      "note": 50,
      "start": 24.6873,
      "duration": 0.7365,
      "velocity": 94,
      "chip": "ym2612"
    },
    {
      "channel": 3,
      "note": 50,
      "start": 24.6971,
      "duration": 8.1934,
      "velocity": 121,
      "chip": "ym2612"
    },
    {
      "channel": 5,
      "note": 45,
      "start": 24.8132,
      "duration": 0.1107,
      "velocity": 122,
      "chip": "ym2612"
    },
    {
      "channel": 2,
      "note": 81,
      "start": 24.8157,
      "duration": 0.0083,
      "velocity": 121,
      "chip": "ym2612"
    },
    {
      "channel": 2,
      "note": 81,
      "start": 24.9433,
      "duration": 0.0141,
      "velocity": 121,
      "chip": "ym2612"
    },
    {
      "channel": 4,
      "note": 91,
      "start": 24.947,
      "duration": 0.0602,
      "velocity": 99,
      "chip": "ym2612"
    },
    {
      "channel": 1,
      "note": 84,
      "start": 24.9776,
      "duration": 0.0628,
      "velocity": 99,
      "chip": "ym2612"
    },
    {
      "channel": 1,
      "note": 79,
      "start": 25.044,
      "duration": 0.063,
      "velocity": 99,
      "chip": "ym2612"
    },
    {
      "channel": 5,
      "note": 98,
      "start": 25.0477,
      "duration": 0.043,
      "velocity": 99,
      "chip": "ym2612"
    },
    {
      "channel": 2,
      "note": 45,
      "start": 25.0772,
      "duration": 0.0005,
      "velocity": 122,
      "chip": "ym2612"
    },
    {
      "channel": 2,
      "note": 81,
      "start": 25.0797,
      "duration": 0.0112,
      "velocity": 121,
      "chip": "ym2612"
    },
    {
      "channel": 4,
      "note": 64,
      "start": 25.0945,
      "duration": 0.0961,
      "velocity": 99,
      "chip": "ym2612"
    },
    {
      "channel": 5,
      "note": 91,
      "start": 25.0973,
      "duration": 0.0266,
      "velocity": 99,
      "chip": "ym2612"
    },
    {
      "channel": 5,
      "note": 86,
      "start": 25.1277,
      "duration": 0.063,
      "velocity": 99,
      "chip": "ym2612"
    },
    {
      "channel": 2,
      "note": 71,
      "start": 25.1779,
      "duration": 0.02,
      "velocity": 99,
      "chip": "ym2612"
    },
    {
      "channel": 1,
      "note": 55,
      "start": 25.1974,
      "duration": 0.1763,
      "velocity": 125,
      "chip": "ym2612"
    },
    {
      "channel": 2,
      "note": 81,
      "start": 25.1998,
      "duration": 0.0242,
      "velocity": 121,
      "chip": "ym2612"
    },
    {
      "channel": 4,
      "note": 76,
      "start": 25.2276,
      "duration": 0.0796,
      "velocity": 99,
      "chip": "ym2612"
    },
    {
      "channel": 5,
      "note": 83,
      "start": 25.3112,
      "duration": 0.0794,
      "velocity": 99,
      "chip": "ym2612"
    },
    {
      "channel": 2,
      "note": 81,
      "start": 25.3266,
      "duration": 0.0141,
      "velocity": 121,
      "chip": "ym2612"
    },
    {
      "channel": 4,
      "note": 80,
      "start": 25.4278,
      "duration": 0.0628,
      "velocity": 99,
      "chip": "ym2612"
    },
    {
      "channel": 2,
      "note": 81,
      "start": 25.4599,
      "duration": 0.0141,
      "velocity": 121,
      "chip": "ym2612"
    },
    {
      "channel": 0,
      "note": 60,
      "start": 25.4627,
      "duration": 0.8277,
      "velocity": 94,
      "chip": "ym2612"
    },
    {
      "channel": 5,
      "note": 87,
      "start": 25.5276,
      "duration": 0.0797,
      "velocity": 99,
      "chip": "ym2612"
    },
    {
      "channel": 2,
      "note": 81,
      "start": 25.58,
      "duration": 0.2106,
      "velocity": 104,
      "chip": "ym2612"
    },
    {
      "channel": 4,
      "note": 79,
      "start": 25.6127,
      "duration": 0.0612,
      "velocity": 99,
      "chip": "ym2612"
    },
    {
      "channel": 1,
      "note": 45,
      "start": 25.7131,
      "duration": 0.0608,
      "velocity": 122,
      "chip": "ym2612"
    },
    {
      "channel": 4,
      "note": 91,
      "start": 25.7164,
      "duration": 0.1075,
      "velocity": 99,
      "chip": "ym2612"
    },
    {
      "channel": 5,
      "note": 86,
      "start": 25.7196,
      "duration": 0.0377,
      "velocity": 99,
      "chip": "ym2612"
    },
    {
      "channel": 5,
      "note": 98,
      "start": 25.7963,
      "duration": 0.111,
      "velocity": 99,
      "chip": "ym2612"
    },
    {
      "channel": 1,
      "note": 45,
      "start": 25.8437,
      "duration": 0.0969,
      "velocity": 122,
      "chip": "ym2612"
    },
    {
      "channel": 2,
      "note": 81,
      "start": 25.8475,
      "duration": 0.0099,
      "velocity": 121,
      "chip": "ym2612"
    },
    {
      "channel": 4,
      "note": 84,
      "start": 25.8775,
      "duration": 0.0464,
      "velocity": 99,
      "chip": "ym2612"
    },
    {
      "channel": 2,
      "note": 81,
      "start": 25.9767,
      "duration": 0.0141,
      "velocity": 121,
      "chip": "ym2612"
    },
    {
      "channel": 5,
      "note": 91,
      "start": 25.9799,
      "duration": 0.0274,
      "velocity": 99,
      "chip": "ym2612"
    },
    {
      "channel": 4,
      "note": 82,
      "start": 26.0609,
      "duration": 0.063,
      "velocity": 99,
      "chip": "ym2612"
    },
    {
      "channel": 1,
      "note": 45,
      "start": 26.0957,
      "duration": 0.1115,
      "velocity": 122,
      "chip": "ym2612"
    },
    {
      "channel": 2,
      "note": 81,
      "start": 26.098,
      "duration": 0.026,
      "velocity": 121,
      "chip": "ym2612"
    },
    {
      "channel": 5,
      "note": 89,
      "start": 26.1445,
      "duration": 0.0629,
      "velocity": 99,
      "chip": "ym2612"
    },
    {
      "channel": 4,
      "note": 101,
      "start": 26.1777,
      "duration": 0.1296,
      "velocity": 99,
      "chip": "ym2612"
    },
    {
      "channel": 1,
      "note": 55,
      "start": 26.2297,
      "duration": 0.0941,
      "velocity": 125,
      "chip": "ym2612"
    },
    {
      "channel": 2,
      "note": 81,
      "start": 26.232,
      "duration": 0.0086,
      "velocity": 121,
      "chip": "ym2612"
    },
    {
      "channel": 5,
      "note": 108,
      "start": 26.2778,
      "duration": 0.1128,
      "velocity": 99,
      "chip": "ym2612"
    },
    {
      "channel": 2,
      "note": 81,
      "start": 26.36,
      "duration": 0.0141,
      "velocity": 121,
      "chip": "ym2612"
    },
    {
      "channel": 4,
      "note": 94,
      "start": 26.3776,
      "duration": 0.0797,
      "velocity": 99,
      "chip": "ym2612"
    },
    {
      "channel": 2,
      "note": 81,
      "start": 26.4767,
      "duration": 0.0306,
      "velocity": 121,
      "chip": "ym2612"
    },
    {
      "channel": 0,
      "note": 60,
      "start": 26.4795,
      "duration": 0.0941,
      "velocity": 94,
      "chip": "ym2612"
    },
    {
      "channel": 5,
      "note": 101,
      "start": 26.4828,
      "duration": 0.0912,
      "velocity": 99,
      "chip": "ym2612"
    },
    {
      "channel": 2,
      "note": 81,
      "start": 26.5767,
      "duration": 0.014,
      "velocity": 121,
      "chip": "ym2612"
    },
    {
      "channel": 4,
      "note": 85,
      "start": 26.5804,
      "duration": 0.0435,
      "velocity": 99,
      "chip": "ym2612"
    },
    {
      "channel": 2,
      "note": 81,
      "start": 26.6599,
      "duration": 0.0142,
      "velocity": 121,
      "chip": "ym2612"
    },
    {
      "channel": 5,
      "note": 92,
      "start": 26.6637,
      "duration": 0.0602,
      "velocity": 99,
      "chip": "ym2612"
    },
    {
      "channel": 1,
      "note": 45,
      "start": 26.7464,
      "duration": 0.0608,
      "velocity": 122,
      "chip": "ym2612"
    },
    {
      "channel": 2,
      "note": 81,
      "start": 26.7507,
      "duration": 0.1233,
      "velocity": 104,
      "chip": "ym2612"
    },
    {
      "channel": 0,
      "note": 60,
      "start": 26.7534,
      "duration": 0.0538,
      "velocity": 94,
      "chip": "ym2612"
    },
    {
      "channel": 4,
      "note": 92,
      "start": 26.7566,
      "duration": 0.084,
      "velocity": 99,
      "chip": "ym2612"
    },
    {
      "channel": 5,
      "note": 99,
      "start": 26.8445,
      "duration": 0.0795,
      "velocity": 99,
      "chip": "ym2612"
    },
    {
      "channel": 1,
      "note": 45,
      "start": 26.8771,
      "duration": 0.0968,
      "velocity": 122,
      "chip": "ym2612"
    },
    {
      "channel": 2,
      "note": 81,
      "start": 26.8809,
      "duration": 0.0098,
      "velocity": 121,
      "chip": "ym2612"
    },
    {
      "channel": 0,
      "note": 60,
      "start": 26.8839,
      "duration": 0.0399,
      "velocity": 94,
      "chip": "ym2612"
    },
    {
      "channel": 4,
      "note": 100,
      "start": 26.9278,
      "duration": 0.0962,
      "velocity": 99,
      "chip": "ym2612"
    },
    {
      "channel": 2,
      "note": 81,
      "start": 26.9933,
      "duration": 0.0308,
      "velocity": 121,
      "chip": "ym2612"
    },
    {
      "channel": 5,
      "note": 107,
      "start": 27.0279,
      "duration": 0.0961,
      "velocity": 99,
      "chip": "ym2612"
    },
    {
      "channel": 4,
      "note": 89,
      "start": 27.0776,
      "duration": 0.063,
      "velocity": 99,
      "chip": "ym2612"
    },
    {
      "channel": 1,
      "note": 45,
      "start": 27.129,
      "duration": 0.0948,
      "velocity": 122,
      "chip": "ym2612"
    },
    {
      "channel": 2,
      "note": 81,
      "start": 27.1332,
      "duration": 0.091,
      "velocity": 104,
      "chip": "ym2612"
    },
    {
      "channel": 0,
      "note": 60,
      "start": 27.1358,
      "duration": 0.038,
      "velocity": 94,
      "chip": "ym2612"
    },
    {
      "channel": 5,
      "note": 96,
      "start": 27.1779,
      "duration": 0.0461,
      "velocity": 99,
      "chip": "ym2612"
    },
    {
      "channel": 4,
      "note": 89,
      "start": 27.194,
      "duration": 0.0632,
      "velocity": 99,
      "chip": "ym2612"
    },
    {
      "channel": 1,
      "note": 55,
      "start": 27.2632,
      "duration": 0.144,
      "velocity": 125,
      "chip": "ym2612"
    },
    {
      "channel": 2,
      "note": 81,
      "start": 27.267,
      "duration": 0.0069,
      "velocity": 121,
      "chip": "ym2612"
    },
    {
      "channel": 5,
      "note": 96,
      "start": 27.2942,
      "duration": 0.0464,
      "velocity": 99,
      "chip": "ym2612"
    },
    {
      "channel": 4,
      "note": 99,
      "start": 27.3442,
      "duration": 0.0632,
      "velocity": 99,
      "chip": "ym2612"
    },
    {
      "channel": 2,
      "note": 81,
      "start": 27.3797,
      "duration": 0.1111,
      "velocity": 104,
      "chip": "ym2612"
    },
    {
      "channel": 0,
      "note": 60,
      "start": 27.3823,
      "duration": 0.0415,
      "velocity": 94,
      "chip": "ym2612"
    },
    {
      "channel": 4,
      "note": 96,
      "start": 27.4127,
      "duration": 0.0612,
      "velocity": 99,
      "chip": "ym2612"
    },
    {
      "channel": 5,
      "note": 94,
      "start": 27.4278,
      "duration": 0.0629,
      "velocity": 99,
      "chip": "ym2612"
    },
    {
      "channel": 1,
      "note": 106,
      "start": 27.431,
      "duration": 0.0594,
      "velocity": 99,
      "chip": "ym2612"
    },
    {
      "channel": 1,
      "note": 103,
      "start": 27.4959,
      "duration": 0.0613,
      "velocity": 99,
      "chip": "ym2612"
    },
    {
      "channel": 2,
      "note": 81,
      "start": 27.5134,
      "duration": 0.0106,
      "velocity": 121,
      "chip": "ym2612"
    },
    {
      "channel": 0,
      "note": 60,
      "start": 27.5161,
      "duration": 0.0577,
      "velocity": 94,
      "chip": "ym2612"
    },
    {
      "channel": 4,
      "note": 101,
      "start": 27.5195,
      "duration": 0.0711,
      "velocity": 99,
      "chip": "ym2612"
    },
    {
      "channel": 5,
      "note": 88,
      "start": 27.5943,
      "duration": 0.0463,
      "velocity": 99,
      "chip": "ym2612"
    },
    {
      "channel": 2,
      "note": 81,
      "start": 27.6433,
      "duration": 0.014,
      "velocity": 121,
      "chip": "ym2612"
    },
    {
      "channel": 1,
      "note": 95,
      "start": 27.6774,
      "duration": 0.0463,
      "velocity": 99,
      "chip": "ym2612"
    },
    {
      "channel": 0,
      "note": 45,
      "start": 27.78,
      "duration": 0.0437,
      "velocity": 122,
      "chip": "ym2612"
    },
    {
      "channel": 2,
      "note": 81,
      "start": 27.7824,
      "duration": 0.0083,
      "velocity": 121,
      "chip": "ym2612"
    },
    {
      "channel": 4,
      "note": 60,
      "start": 27.7853,
      "duration": 0.0387,
      "velocity": 94,
      "chip": "ym2612"
    },
    {
      "channel": 5,
      "note": 97,
      "start": 27.7886,
      "duration": 0.0687,
      "velocity": 99,
      "chip": "ym2612"
    },
    {
      "channel": 1,
      "note": 104,
      "start": 27.8612,
      "duration": 0.0792,
      "velocity": 99,
      "chip": "ym2612"
    },
    {
      "channel": 0,
      "note": 45,
      "start": 27.8936,
      "duration": 0.1135,
      "velocity": 122,
      "chip": "ym2612"
    },
    {
      "channel": 2,
      "note": 81,
      "start": 27.8959,
      "duration": 0.0281,
      "velocity": 121,
      "chip": "ym2612"
    },
    {
      "channel": 4,
      "note": 60,
      "start": 27.8985,
      "duration": 0.0587,
      "velocity": 94,
      "chip": "ym2612"
    },
    {
      "channel": 2,
      "note": 81,
      "start": 28.0297,
      "duration": 0.4611,
      "velocity": 104,
      "chip": "ym2612"
    },
    {
      "channel": 4,
      "note": 48,
      "start": 28.0324,
      "duration": 0.0915,
      "velocity": 94,
      "chip": "ym2612"
    },
    {
      "channel": 0,
      "note": 45,
      "start": 28.1624,
      "duration": 0.0946,
      "velocity": 122,
      "chip": "ym2612"
    },
    {
      "channel": 4,
      "note": 60,
      "start": 28.1653,
      "duration": 0.0753,
      "velocity": 94,
      "chip": "ym2612"
    },
    {
      "channel": 0,
      "note": 55,
      "start": 28.2798,
      "duration": 0.1773,
      "velocity": 125,
      "chip": "ym2612"
    },
    {
      "channel": 4,
      "note": 48,
      "start": 28.2824,
      "duration": 0.0915,
      "velocity": 94,
      "chip": "ym2612"
    },
    {
      "channel": 4,
      "note": 72,
      "start": 28.4127,
      "duration": 0.0612,
      "velocity": 94,
      "chip": "ym2612"
    },
    {
      "channel": 4,
      "note": 72,
      "start": 28.5273,
      "duration": 0.1133,
      "velocity": 94,
      "chip": "ym2612"
    },
    {
      "channel": 2,
      "note": 81,
      "start": 28.5466,
      "duration": 0.0107,
      "velocity": 121,
      "chip": "ym2612"
    },
    {
      "channel": 2,
      "note": 81,
      "start": 28.6266,
      "duration": 0.0142,
      "velocity": 121,
      "chip": "ym2612"
    },
    {
      "channel": 4,
      "note": 60,
      "start": 28.6772,
      "duration": 0.08,
      "velocity": 94,
      "chip": "ym2612"
    },
    {
      "channel": 2,
      "note": 81,
      "start": 28.7099,
      "duration": 0.0141,
      "velocity": 121,
      "chip": "ym2612"
    },
    {
      "channel": 0,
      "note": 45,
      "start": 28.7964,
      "duration": 0.0607,
      "velocity": 122,
      "chip": "ym2612"
    },
    {
      "channel": 2,
      "note": 81,
      "start": 28.8002,
      "duration": 0.0904,
      "velocity": 104,
      "chip": "ym2612"
    },
    {
      "channel": 4,
      "note": 70,
      "start": 28.8033,
      "duration": 0.7707,
      "velocity": 94,
      "chip": "ym2612"
    },
    {
      "channel": 5,
      "note": 63,
      "start": 28.8061,
      "duration": 0.7179,
      "velocity": 94,
      "chip": "ym2612"
    },
    {
      "channel": 0,
      "note": 45,
      "start": 28.929,
      "duration": 0.0782,
      "velocity": 122,
      "chip": "ym2612"
    },
    {
      "channel": 2,
      "note": 81,
      "start": 28.9332,
      "duration": 0.0076,
      "velocity": 121,
      "chip": "ym2612"
    },
    {
      "channel": 2,
      "note": 81,
      "start": 29.0599,
      "duration": 0.0141,
      "velocity": 121,
      "chip": "ym2612"
    },
    {
      "channel": 0,
      "note": 45,
      "start": 29.1936,
      "duration": 0.0968,
      "velocity": 122,
      "chip": "ym2612"
    },
    {
      "channel": 2,
      "note": 81,
      "start": 29.1959,
      "duration": 0.0114,
      "velocity": 121,
      "chip": "ym2612"
    },
    {
      "channel": 0,
      "note": 55,
      "start": 29.3131,
      "duration": 0.1773,
      "velocity": 125,
      "chip": "ym2612"
    },
    {
      "channel": 2,
      "note": 81,
      "start": 29.3155,
      "duration": 0.0253,
      "velocity": 121,
      "chip": "ym2612"
    },
    {
      "channel": 2,
      "note": 81,
      "start": 29.4433,
      "duration": 0.014,
      "velocity": 121,
      "chip": "ym2612"
    },
    {
      "channel": 2,
      "note": 81,
      "start": 29.5797,
      "duration": 0.0943,
      "velocity": 104,
      "chip": "ym2612"
    },
    {
      "channel": 4,
      "note": 60,
      "start": 29.5828,
      "duration": 1.7911,
      "velocity": 94,
      "chip": "ym2612"
    },
    {
      "channel": 5,
      "note": 68,
      "start": 29.587,
      "duration": 1.8036,
      "velocity": 94,
      "chip": "ym2612"
    },
    {
      "channel": 2,
      "note": 81,
      "start": 29.6966,
      "duration": 0.0273,
      "velocity": 121,
      "chip": "ym2612"
    },
    {
      "channel": 0,
      "note": 45,
      "start": 29.8297,
      "duration": 0.0607,
      "velocity": 122,
      "chip": "ym2612"
    },
    {
      "channel": 2,
      "note": 81,
      "start": 29.8321,
      "duration": 0.0086,
      "velocity": 121,
      "chip": "ym2612"
    },
    {
      "channel": 0,
      "note": 45,
      "start": 29.9625,
      "duration": 0.0945,
      "velocity": 122,
      "chip": "ym2612"
    },
    {
      "channel": 2,
      "note": 81,
      "start": 29.9649,
      "duration": 0.0092,
      "velocity": 121,
      "chip": "ym2612"
    },
    {
      "channel": 2,
      "note": 81,
      "start": 30.0933,
      "duration": 0.0141,
      "velocity": 121,
      "chip": "ym2612"
    },
    {
      "channel": 0,
      "note": 45,
      "start": 30.2101,
      "duration": 0.1135,
      "velocity": 122,
      "chip": "ym2612"
    },
    {
      "channel": 2,
      "note": 81,
      "start": 30.2125,
      "duration": 0.0282,
      "velocity": 121,
      "chip": "ym2612"
    },
    {
      "channel": 0,
      "note": 55,
      "start": 30.3464,
      "duration": 0.144,
      "velocity": 125,
      "chip": "ym2612"
    },
    {
      "channel": 2,
      "note": 81,
      "start": 30.3488,
      "duration": 0.0085,
      "velocity": 121,
      "chip": "ym2612"
    },
    {
      "channel": 2,
      "note": 81,
      "start": 30.4797,
      "duration": 0.1111,
      "velocity": 104,
      "chip": "ym2612"
    },
    {
      "channel": 1,
      "note": 78,
      "start": 30.4945,
      "duration": 0.0626,
      "velocity": 99,
      "chip": "ym2612"
    },
    {
      "channel": 0,
      "note": 85,
      "start": 30.5779,
      "duration": 0.0625,
      "velocity": 99,
      "chip": "ym2612"
    },
    {
      "channel": 2,
      "note": 81,
      "start": 30.5966,
      "duration": 0.0273,
      "velocity": 121,
      "chip": "ym2612"
    },
    {
      "channel": 1,
      "note": 96,
      "start": 30.5998,
      "duration": 0.124,
      "velocity": 99,
      "chip": "ym2612"
    },
    {
      "channel": 2,
      "note": 81,
      "start": 30.6933,
      "duration": 0.0141,
      "velocity": 121,
      "chip": "ym2612"
    },
    {
      "channel": 0,
      "note": 103,
      "start": 30.7109,
      "duration": 0.0963,
      "velocity": 99,
      "chip": "ym2612"
    },
    {
      "channel": 1,
      "note": 84,
      "start": 30.7292,
      "duration": 0.1113,
      "velocity": 99,
      "chip": "ym2612"
    },
    {
      "channel": 2,
      "note": 81,
      "start": 30.7768,
      "duration": 0.0139,
      "velocity": 121,
      "chip": "ym2612"
    },
    {
      "channel": 2,
      "note": 81,
      "start": 30.8438,
      "duration": 0.0302,
      "velocity": 121,
      "chip": "ym2612"
    },
    {
      "channel": 0,
      "note": 91,
      "start": 30.8471,
      "duration": 0.0176,
      "velocity": 99,
      "chip": "ym2612"
    },
    {
      "channel": 1,
      "note": 45,
      "start": 30.8637,
      "duration": 0.0602,
      "velocity": 122,
      "chip": "ym2612"
    },
    {
      "channel": 0,
      "note": 79,
      "start": 30.867,
      "duration": 0.0567,
      "velocity": 99,
      "chip": "ym2612"
    },
    {
      "channel": 2,
      "note": 86,
      "start": 30.9445,
      "duration": 0.05,
      "velocity": 99,
      "chip": "ym2612"
    },
    {
      "channel": 1,
      "note": 45,
      "start": 30.9937,
      "duration": 0.0801,
      "velocity": 122,
      "chip": "ym2612"
    },
    {
      "channel": 2,
      "note": 81,
      "start": 30.9964,
      "duration": 0.0109,
      "velocity": 121,
      "chip": "ym2612"
    },
    {
      "channel": 0,
      "note": 60,
      "start": 30.9994,
      "duration": 0.1077,
      "velocity": 99,
      "chip": "ym2612"
    },
    {
      "channel": 2,
      "note": 67,
      "start": 31.078,
      "duration": 0.0302,
      "velocity": 99,
      "chip": "ym2612"
    },
    {
      "channel": 2,
      "note": 81,
      "start": 31.1101,
      "duration": 0.0306,
      "velocity": 121,
      "chip": "ym2612"
    },
    {
      "channel": 0,
      "note": 67,
      "start": 31.1132,
      "duration": 0.0773,
      "velocity": 99,
      "chip": "ym2612"
    },
    {
      "channel": 1,
      "note": 74,
      "start": 31.2279,
      "duration": 0.0793,
      "velocity": 99,
      "chip": "ym2612"
    },
    {
      "channel": 2,
      "note": 45,
      "start": 31.2437,
      "duration": 0.0023,
      "velocity": 122,
      "chip": "ym2612"
    },
    {
      "channel": 2,
      "note": 81,
      "start": 31.248,
      "duration": 0.0927,
      "velocity": 104,
      "chip": "ym2612"
    },
    {
      "channel": 0,
      "note": 83,
      "start": 31.2609,
      "duration": 0.1295,
      "velocity": 99,
      "chip": "ym2612"
    },
    {
      "channel": 1,
      "note": 90,
      "start": 31.3444,
      "duration": 0.1293,
      "velocity": 99,
      "chip": "ym2612"
    },
    {
      "channel": 2,
      "note": 55,
      "start": 31.3801,
      "duration": 0.002,
      "velocity": 125,
      "chip": "ym2612"
    },
    {
      "channel": 2,
      "note": 81,
      "start": 31.384,
      "duration": 0.0068,
      "velocity": 121,
      "chip": "ym2612"
    },
    {
      "channel": 0,
      "note": 91,
      "start": 31.444,
      "duration": 0.0798,
      "velocity": 99,
      "chip": "ym2612"
    },
    {
      "channel": 2,
      "note": 81,
      "start": 31.4933,
      "duration": 0.0309,
      "velocity": 121,
      "chip": "ym2612"
    },
    {
      "channel": 1,
      "note": 98,
      "start": 31.5279,
      "duration": 0.096,
      "velocity": 99,
      "chip": "ym2612"
    },
    {
      "channel": 0,
      "note": 82,
      "start": 31.6107,
      "duration": 0.0298,
      "velocity": 99,
      "chip": "ym2612"
    },
    {
      "channel": 2,
      "note": 81,
      "start": 31.6297,
      "duration": 0.1111,
      "velocity": 104,
      "chip": "ym2612"
    },
    {
      "channel": 1,
      "note": 89,
      "start": 31.7129,
      "duration": 0.0276,
      "velocity": 99,
      "chip": "ym2612"
    },
    {
      "channel": 2,
      "note": 81,
      "start": 31.7635,
      "duration": 0.0106,
      "velocity": 121,
      "chip": "ym2612"
    },
    {
      "channel": 0,
      "note": 89,
      "start": 31.7793,
      "duration": 0.1111,
      "velocity": 99,
      "chip": "ym2612"
    },
    {
      "channel": 4,
      "note": 45,
      "start": 31.8971,
      "duration": 0.0436,
      "velocity": 122,
      "chip": "ym2612"
    },
    {
      "channel": 2,
      "note": 81,
      "start": 31.8994,
      "duration": 0.0081,
      "velocity": 121,
      "chip": "ym2612"
    },
    {
      "channel": 5,
      "note": 69,
      "start": 31.9024,
      "duration": 0.0384,
      "velocity": 94,
      "chip": "ym2612"
    },
    {
      "channel": 1,
      "note": 96,
      "start": 31.9056,
      "duration": 0.0683,
      "velocity": 99,
      "chip": "ym2612"
    },
    {
      "channel": 5,
      "note": 65,
      "start": 31.9771,
      "duration": 0.0635,
      "velocity": 94,
      "chip": "ym2612"
    },
    {
      "channel": 0,
      "note": 84,
      "start": 31.9941,
      "duration": 0.013,
      "velocity": 99,
      "chip": "ym2612"
    },
    {
      "channel": 4,
      "note": 45,
      "start": 32.0104,
      "duration": 0.0802,
      "velocity": 122,
      "chip": "ym2612"
    },
    {
      "channel": 2,
      "note": 81,
      "start": 32.0142,
      "duration": 0.4431,
      "velocity": 104,
      "chip": "ym2612"
    },
    {
      "channel": 5,
      "note": 60,
      "start": 32.0604,
      "duration": 0.0636,
      "velocity": 94,
      "chip": "ym2612"
    },
    {
      "channel": 1,
      "note": 91,
      "start": 32.0776,
      "duration": 0.0128,
      "velocity": 99,
      "chip": "ym2612"
    },
    {
      "channel": 4,
      "note": 55,
      "start": 32.1466,
      "duration": 0.0939,
      "velocity": 125,
      "chip": "ym2612"
    },
    {
      "channel": 5,
      "note": 48,
      "start": 32.1497,
      "duration": 0.0744,
      "velocity": 94,
      "chip": "ym2612"
    },
    {
      "channel": 0,
      "note": 99,
      "start": 32.1527,
      "duration": 0.0711,
      "velocity": 99,
      "chip": "ym2612"
    },
    {
      "channel": 0,
      "note": 89,
      "start": 32.2277,
      "duration": 0.0627,
      "velocity": 99,
      "chip": "ym2612"
    },
    {
      "channel": 1,
      "note": 106,
      "start": 32.2444,
      "duration": 0.0628,
      "velocity": 99,
      "chip": "ym2612"
    },
    {
      "channel": 4,
      "note": 45,
      "start": 32.2798,
      "duration": 0.0774,
      "velocity": 122,
      "chip": "ym2612"
    },
    {
      "channel": 5,
      "note": 50,
      "start": 32.2829,
      "duration": 0.2243,
      "velocity": 94,
      "chip": "ym2612"
    },
    {
      "channel": 1,
      "note": 96,
      "start": 32.3441,
      "duration": 0.0464,
      "velocity": 99,
      "chip": "ym2612"
    },
    {
      "channel": 0,
      "note": 83,
      "start": 32.3609,
      "duration": 0.0296,
      "velocity": 99,
      "chip": "ym2612"
    },
    {
      "channel": 4,
      "note": 55,
      "start": 32.3973,
      "duration": 0.1266,
      "velocity": 125,
      "chip": "ym2612"
    },
    {
      "channel": 0,
      "note": 73,
      "start": 32.444,
      "duration": 0.0464,
      "velocity": 99,
      "chip": "ym2612"
    },
    {
      "channel": 1,
      "note": 90,
      "start": 32.4473,
      "duration": 0.0432,
      "velocity": 99,
      "chip": "ym2612"
    },
    {
      "channel": 2,
      "note": 81,
      "start": 32.53,
      "duration": 0.0107,
      "velocity": 121,
      "chip": "ym2612"
    },
    {
      "channel": 5,
      "note": 52,
      "start": 32.5332,
      "duration": 0.0741,
      "velocity": 94,
      "chip": "ym2612"
    },
    {
      "channel": 1,
      "note": 80,
      "start": 32.5362,
      "duration": 0.0376,
      "velocity": 99,
      "chip": "ym2612"
    },
    {
      "channel": 2,
      "note": 81,
      "start": 32.6601,
      "duration": 0.0139,
      "velocity": 121,
      "chip": "ym2612"
    },
    {
      "channel": 0,
      "note": 94,
      "start": 32.6959,
      "duration": 0.0445,
      "velocity": 99,
      "chip": "ym2612"
    },
    {
      "channel": 2,
      "note": 81,
      "start": 32.7433,
      "duration": 0.014,
      "velocity": 121,
      "chip": "ym2612"
    },
    {
      "channel": 5,
      "note": 53,
      "start": 32.794,
      "duration": 0.0968,
      "velocity": 94,
      "chip": "ym2612"
    },
    {
      "channel": 1,
      "note": 101,
      "start": 32.7973,
      "duration": 0.0432,
      "velocity": 99,
      "chip": "ym2612"
    },
    {
      "channel": 2,
      "note": 81,
      "start": 32.8267,
      "duration": 0.0141,
      "velocity": 121,
      "chip": "ym2612"
    },
    {
      "channel": 4,
      "note": 45,
      "start": 32.9141,
      "duration": 0.0766,
      "velocity": 122,
      "chip": "ym2612"
    },
    {
      "channel": 2,
      "note": 81,
      "start": 32.9178,
      "duration": 0.0229,
      "velocity": 121,
      "chip": "ym2612"
    },
    {
      "channel": 5,
      "note": 55,
      "start": 32.9208,
      "duration": 1.0198,
      "velocity": 94,
      "chip": "ym2612"
    },
    {
      "channel": 0,
      "note": 91,
      "start": 32.9256,
      "duration": 8.2149,
      "velocity": 94,
      "chip": "ym2612"
    },
    {
      "channel": 1,
      "note": 89,
      "start": 32.9282,
      "duration": 8.2124,
      "velocity": 94,
      "chip": "ym2612"
    },
    {
      "channel": 3,
      "note": 96,
      "start": 32.9314,
      "duration": 8.2093,
      "velocity": 94,
      "chip": "ym2612"
    },
    {
      "channel": 4,
      "note": 45,
      "start": 33.0465,
      "duration": 0.1107,
      "velocity": 122,
      "chip": "ym2612"
    },
    {
      "channel": 2,
      "note": 81,
      "start": 33.0489,
      "duration": 0.0085,
      "velocity": 121,
      "chip": "ym2612"
    },
    {
      "channel": 2,
      "note": 81,
      "start": 33.1766,
      "duration": 0.0141,
      "velocity": 121,
      "chip": "ym2612"
    },
    {
      "channel": 4,
      "note": 45,
      "start": 33.3104,
      "duration": 0.1135,
      "velocity": 122,
      "chip": "ym2612"
    },
    {
      "channel": 2,
      "note": 81,
      "start": 33.3127,
      "duration": 0.0112,
      "velocity": 121,
      "chip": "ym2612"
    },
    {
      "channel": 4,
      "note": 55,
      "start": 33.4306,
      "duration": 0.1766,
      "velocity": 125,
      "chip": "ym2612"
    },
    {
      "channel": 2,
      "note": 81,
      "start": 33.433,
      "duration": 0.0244,
      "velocity": 121,
      "chip": "ym2612"
    },
    {
      "channel": 2,
      "note": 81,
      "start": 33.5599,
      "duration": 0.0141,
      "velocity": 121,
      "chip": "ym2612"
    },
    {
      "channel": 2,
      "note": 81,
      "start": 33.6933,
      "duration": 0.0141,
      "velocity": 121,
      "chip": "ym2612"
    },
    {
      "channel": 2,
      "note": 81,
      "start": 33.8133,
      "duration": 0.2107,
      "velocity": 104,
      "chip": "ym2612"
    },
    {
      "channel": 4,
      "note": 45,
      "start": 33.9465,
      "duration": 0.0607,
      "velocity": 122,
      "chip": "ym2612"
    },
    {
      "channel": 4,
      "note": 45,
      "start": 34.0771,
      "duration": 0.0969,
      "velocity": 122,
      "chip": "ym2612"
    },
    {
      "channel": 2,
      "note": 81,
      "start": 34.0809,
      "duration": 0.0098,
      "velocity": 121,
      "chip": "ym2612"
    },
    {
      "channel": 2,
      "note": 81,
      "start": 34.21,
      "duration": 0.0141,
      "velocity": 121,
      "chip": "ym2612"
    },
    {
      "channel": 5,
      "note": 63,
      "start": 34.2129,
      "duration": 0.2277,
      "velocity": 94,
      "chip": "ym2612"
    },
    {
      "channel": 4,
      "note": 70,
      "start": 34.2276,
      "duration": 0.1798,
      "velocity": 94,
      "chip": "ym2612"
    },
    {
      "channel": 2,
      "note": 45,
      "start": 34.3293,
      "duration": 0.0005,
      "velocity": 122,
      "chip": "ym2612"
    },
    {
      "channel": 2,
      "note": 81,
      "start": 34.3317,
      "duration": 0.0257,
      "velocity": 121,
      "chip": "ym2612"
    },
    {
      "channel": 2,
      "note": 55,
      "start": 34.4633,
      "duration": 0.0005,
      "velocity": 125,
      "chip": "ym2612"
    },
    {
      "channel": 2,
      "note": 81,
      "start": 34.4657,
      "duration": 0.0083,
      "velocity": 121,
      "chip": "ym2612"
    },
    {
      "channel": 4,
      "note": 74,
      "start": 34.4691,
      "duration": 0.0548,
      "velocity": 94,
      "chip": "ym2612"
    },
    {
      "channel": 5,
      "note": 67,
      "start": 34.4718,
      "duration": 0.0522,
      "velocity": 94,
      "chip": "ym2612"
    },
    {
      "channel": 2,
      "note": 81,
      "start": 34.5932,
      "duration": 0.0141,
      "velocity": 121,
      "chip": "ym2612"
    },
    {
      "channel": 4,
      "note": 67,
      "start": 34.5962,
      "duration": 0.0277,
      "velocity": 94,
      "chip": "ym2612"
    },
    {
      "channel": 5,
      "note": 74,
      "start": 34.6105,
      "duration": 0.0468,
      "velocity": 94,
      "chip": "ym2612"
    },
    {
      "channel": 2,
      "note": 81,
      "start": 34.7101,
      "duration": 0.0305,
      "velocity": 121,
      "chip": "ym2612"
    },
    {
      "channel": 2,
      "note": 81,
      "start": 34.8099,
      "duration": 0.0141,
      "velocity": 121,
      "chip": "ym2612"
    },
    {
      "channel": 4,
      "note": 67,
      "start": 34.8624,
      "duration": 0.0448,
      "velocity": 94,
      "chip": "ym2612"
    },
    {
      "channel": 5,
      "note": 74,
      "start": 34.865,
      "duration": 0.0424,
      "velocity": 94,
      "chip": "ym2612"
    },
    {
      "channel": 2,
      "note": 81,
      "start": 34.8933,
      "duration": 0.0142,
      "velocity": 121,
      "chip": "ym2612"
    },
    {
      "channel": 4,
      "note": 45,
      "start": 34.98,
      "duration": 0.0606,
      "velocity": 122,
      "chip": "ym2612"
    },
    {
      "channel": 2,
      "note": 81,
      "start": 34.9842,
      "duration": 0.1232,
      "velocity": 104,
      "chip": "ym2612"
    },
    {
      "channel": 4,
      "note": 45,
      "start": 35.1105,
      "duration": 0.0969,
      "velocity": 122,
      "chip": "ym2612"
    },
    {
      "channel": 2,
      "note": 81,
      "start": 35.1143,
      "duration": 0.0097,
      "velocity": 121,
      "chip": "ym2612"
    },
    {
      "channel": 5,
      "note": 67,
      "start": 35.1273,
      "duration": 0.03,
      "velocity": 94,
      "chip": "ym2612"
    },
    {
      "channel": 2,
      "note": 74,
      "start": 35.13,
      "duration": 0.0274,
      "velocity": 94,
      "chip": "ym2612"
    },
    {
      "channel": 2,
      "note": 81,
      "start": 35.2265,
      "duration": 0.0308,
      "velocity": 121,
      "chip": "ym2612"
    },
    {
      "channel": 5,
      "note": 74,
      "start": 35.2293,
      "duration": 0.0447,
      "velocity": 94,
      "chip": "ym2612"
    },
    {
      "channel": 4,
      "note": 67,
      "start": 35.2321,
      "duration": 0.0419,
      "velocity": 94,
      "chip": "ym2612"
    },
    {
      "channel": 2,
      "note": 45,
      "start": 35.3626,
      "duration": 0.0023,
      "velocity": 122,
      "chip": "ym2612"
    },
    {
      "channel": 2,
      "note": 81,
      "start": 35.3669,
      "duration": 0.0905,
      "velocity": 104,
      "chip": "ym2612"
    },
    {
      "channel": 4,
      "note": 55,
      "start": 35.4967,
      "duration": 0.0076,
      "velocity": 125,
      "chip": "ym2612"
    },
    {
      "channel": 2,
      "note": 81,
      "start": 35.5005,
      "duration": 0.014,
      "velocity": 121,
      "chip": "ym2612"
    },
    {
      "channel": 5,
      "note": 65,
      "start": 35.5036,
      "duration": 0.0703,
      "velocity": 94,
      "chip": "ym2612"
    },
    {
      "channel": 4,
      "note": 72,
      "start": 35.5064,
      "duration": 0.1008,
      "velocity": 94,
      "chip": "ym2612"
    },
    {
      "channel": 2,
      "note": 81,
      "start": 35.613,
      "duration": 0.111,
      "velocity": 104,
      "chip": "ym2612"
    },
    {
      "channel": 2,
      "note": 81,
      "start": 35.7467,
      "duration": 0.0107,
      "velocity": 121,
      "chip": "ym2612"
    },
    {
      "channel": 2,
      "note": 81,
      "start": 35.8766,
      "duration": 0.0141,
      "velocity": 121,
      "chip": "ym2612"
    },
    {
      "channel": 4,
      "note": 65,
      "start": 35.8804,
      "duration": 0.077,
      "velocity": 94,
      "chip": "ym2612"
    },
    {
      "channel": 5,
      "note": 72,
      "start": 35.8833,
      "duration": 0.0907,
      "velocity": 94,
      "chip": "ym2612"
    },
    {
      "channel": 2,
      "note": 45,
      "start": 36.0134,
      "duration": 0.0005,
      "velocity": 122,
      "chip": "ym2612"
    },
    {
      "channel": 2,
      "note": 81,
      "start": 36.0158,
      "duration": 0.0082,
      "velocity": 121,
      "chip": "ym2612"
    },
    {
      "channel": 4,
      "note": 45,
      "start": 36.1272,
      "duration": 0.1133,
      "velocity": 122,
      "chip": "ym2612"
    },
    {
      "channel": 2,
      "note": 81,
      "start": 36.1296,
      "duration": 0.0278,
      "velocity": 121,
      "chip": "ym2612"
    },
    {
      "channel": 2,
      "note": 81,
      "start": 36.2629,
      "duration": 0.4611,
      "velocity": 104,
      "chip": "ym2612"
    },
    {
      "channel": 5,
      "note": 72,
      "start": 36.2794,
      "duration": 0.0612,
      "velocity": 94,
      "chip": "ym2612"
    },
    {
      "channel": 4,
      "note": 66,
      "start": 36.2828,
      "duration": 0.041,
      "velocity": 94,
      "chip": "ym2612"
    },
    {
      "channel": 4,
      "note": 45,
      "start": 36.396,
      "duration": 0.0946,
      "velocity": 122,
      "chip": "ym2612"
    },
    {
      "channel": 4,
      "note": 55,
      "start": 36.5132,
      "duration": 0.1317,
      "velocity": 125,
      "chip": "ym2612"
    },
    {
      "channel": 5,
      "note": 65,
      "start": 36.6441,
      "duration": 0.4965,
      "velocity": 94,
      "chip": "ym2612"
    },
    {
      "channel": 4,
      "note": 72,
      "start": 36.647,
      "duration": 0.5103,
      "velocity": 94,
      "chip": "ym2612"
    },
    {
      "channel": 2,
      "note": 81,
      "start": 36.78,
      "duration": 0.0107,
      "velocity": 121,
      "chip": "ym2612"
    },
    {
      "channel": 2,
      "note": 81,
      "start": 36.86,
      "duration": 0.0141,
      "velocity": 121,
      "chip": "ym2612"
    },
    {
      "channel": 2,
      "note": 81,
      "start": 36.9433,
      "duration": 0.0141,
      "velocity": 121,
      "chip": "ym2612"
    },
    {
      "channel": 2,
      "note": 45,
      "start": 37.03,
      "duration": 0.0019,
      "velocity": 122,
      "chip": "ym2612"
    },
    {
      "channel": 2,
      "note": 81,
      "start": 37.0339,
      "duration": 0.0735,
      "velocity": 104,
      "chip": "ym2612"
    },
    {
      "channel": 2,
      "note": 45,
      "start": 37.1626,
      "duration": 0.0024,
      "velocity": 122,
      "chip": "ym2612"
    },
    {
      "channel": 2,
      "note": 81,
      "start": 37.1669,
      "duration": 0.0072,
      "velocity": 121,
      "chip": "ym2612"
    },
    {
      "channel": 2,
      "note": 81,
      "start": 37.2933,
      "duration": 0.0141,
      "velocity": 121,
      "chip": "ym2612"
    },
    {
      "channel": 4,
      "note": 74,
      "start": 37.2965,
      "duration": 0.0274,
      "velocity": 94,
      "chip": "ym2612"
    },
    {
      "channel": 4,
      "note": 67,
      "start": 37.3771,
      "duration": 0.0635,
      "velocity": 94,
      "chip": "ym2612"
    },
    {
      "channel": 5,
      "note": 45,
      "start": 37.4271,
      "duration": 0.0969,
      "velocity": 122,
      "chip": "ym2612"
    },
    {
      "channel": 2,
      "note": 81,
      "start": 37.4295,
      "duration": 0.0113,
      "velocity": 121,
      "chip": "ym2612"
    },
    {
      "channel": 4,
      "note": 62,
      "start": 37.4602,
      "duration": 0.0637,
      "velocity": 94,
      "chip": "ym2612"
    },
    {
      "channel": 5,
      "note": 55,
      "start": 37.5466,
      "duration": 0.1773,
      "velocity": 125,
      "chip": "ym2612"
    },
    {
      "channel": 2,
      "note": 81,
      "start": 37.549,
      "duration": 0.025,
      "velocity": 121,
      "chip": "ym2612"
    },
    {
      "channel": 4,
      "note": 49,
      "start": 37.5519,
      "duration": 0.3553,
      "velocity": 94,
      "chip": "ym2612"
    },
    {
      "channel": 2,
      "note": 81,
      "start": 37.6767,
      "duration": 0.0141,
      "velocity": 121,
      "chip": "ym2612"
    },
    {
      "channel": 2,
      "note": 81,
      "start": 37.813,
      "duration": 0.0944,
      "velocity": 104,
      "chip": "ym2612"
    },
    {
      "channel": 2,
      "note": 81,
      "start": 37.93,
      "duration": 0.0273,
      "velocity": 121,
      "chip": "ym2612"
    },
    {
      "channel": 4,
      "note": 50,
      "start": 37.9329,
      "duration": 0.3244,
      "velocity": 94,
      "chip": "ym2612"
    },
    {
      "channel": 5,
      "note": 45,
      "start": 38.0632,
      "duration": 0.0607,
      "velocity": 122,
      "chip": "ym2612"
    },
    {
      "channel": 2,
      "note": 81,
      "start": 38.0656,
      "duration": 0.0085,
      "velocity": 121,
      "chip": "ym2612"
    },
    {
      "channel": 5,
      "note": 45,
      "start": 38.1961,
      "duration": 0.0945,
      "velocity": 122,
      "chip": "ym2612"
    },
    {
      "channel": 2,
      "note": 81,
      "start": 38.1984,
      "duration": 0.0089,
      "velocity": 121,
      "chip": "ym2612"
    },
    {
      "channel": 4,
      "note": 51,
      "start": 38.2773,
      "duration": 0.5132,
      "velocity": 94,
      "chip": "ym2612"
    },
    {
      "channel": 2,
      "note": 81,
      "start": 38.3266,
      "duration": 0.0141,
      "velocity": 121,
      "chip": "ym2612"
    },
    {
      "channel": 5,
      "note": 45,
      "start": 38.4437,
      "duration": 0.1137,
      "velocity": 122,
      "chip": "ym2612"
    },
    {
      "channel": 2,
      "note": 81,
      "start": 38.446,
      "duration": 0.028,
      "velocity": 121,
      "chip": "ym2612"
    },
    {
      "channel": 5,
      "note": 55,
      "start": 38.58,
      "duration": 0.1441,
      "velocity": 125,
      "chip": "ym2612"
    },
    {
      "channel": 2,
      "note": 81,
      "start": 38.5823,
      "duration": 0.0083,
      "velocity": 121,
      "chip": "ym2612"
    },
    {
      "channel": 2,
      "note": 81,
      "start": 38.713,
      "duration": 0.1111,
      "velocity": 104,
      "chip": "ym2612"
    },
    {
      "channel": 2,
      "note": 81,
      "start": 38.83,
      "duration": 0.0273,
      "velocity": 121,
      "chip": "ym2612"
    },
    {
      "channel": 4,
      "note": 53,
      "start": 38.8333,
      "duration": 0.1073,
      "velocity": 94,
      "chip": "ym2612"
    },
    {
      "channel": 2,
      "note": 81,
      "start": 38.9265,
      "duration": 0.0143,
      "velocity": 121,
      "chip": "ym2612"
    },
    {
      "channel": 4,
      "note": 51,
      "start": 38.9602,
      "duration": 0.1136,
      "velocity": 94,
      "chip": "ym2612"
    },
    {
      "channel": 2,
      "note": 81,
      "start": 39.0101,
      "duration": 0.014,
      "velocity": 121,
      "chip": "ym2612"
    },
    {
      "channel": 2,
      "note": 81,
      "start": 39.077,
      "duration": 0.0303,
      "velocity": 121,
      "chip": "ym2612"
    },
    {
      "channel": 5,
      "note": 45,
      "start": 39.097,
      "duration": 0.0604,
      "velocity": 122,
      "chip": "ym2612"
    },
    {
      "channel": 4,
      "note": 55,
      "start": 39.1,
      "duration": 0.3239,
      "velocity": 94,
      "chip": "ym2612"
    },
    {
      "channel": 5,
      "note": 45,
      "start": 39.2271,
      "duration": 0.0801,
      "velocity": 122,
      "chip": "ym2612"
    },
    {
      "channel": 2,
      "note": 81,
      "start": 39.2298,
      "duration": 0.011,
      "velocity": 121,
      "chip": "ym2612"
    },
    {
      "channel": 2,
      "note": 81,
      "start": 39.3433,
      "duration": 0.0307,
      "velocity": 121,
      "chip": "ym2612"
    },
    {
      "channel": 4,
      "note": 48,
      "start": 39.4606,
      "duration": 0.3634,
      "velocity": 94,
      "chip": "ym2612"
    },
    {
      "channel": 5,
      "note": 45,
      "start": 39.477,
      "duration": 0.0804,
      "velocity": 122,
      "chip": "ym2612"
    },
    {
      "channel": 2,
      "note": 81,
      "start": 39.4812,
      "duration": 0.0927,
      "velocity": 104,
      "chip": "ym2612"
    },
    {
      "channel": 5,
      "note": 55,
      "start": 39.6133,
      "duration": 0.1773,
      "velocity": 125,
      "chip": "ym2612"
    },
    {
      "channel": 2,
      "note": 81,
      "start": 39.6171,
      "duration": 0.0069,
      "velocity": 121,
      "chip": "ym2612"
    },
    {
      "channel": 2,
      "note": 81,
      "start": 39.7266,
      "duration": 0.0307,
      "velocity": 121,
      "chip": "ym2612"
    },
    {
      "channel": 2,
      "note": 81,
      "start": 39.8629,
      "duration": 0.1111,
      "velocity": 104,
      "chip": "ym2612"
    },
    {
      "channel": 4,
      "note": 63,
      "start": 39.8659,
      "duration": 1.1913,
      "velocity": 94,
      "chip": "ym2612"
    },
    {
      "channel": 5,
      "note": 69,
      "start": 39.8778,
      "duration": 1.1961,
      "velocity": 94,
      "chip": "ym2612"
    },
    {
      "channel": 2,
      "note": 81,
      "start": 39.9968,
      "duration": 0.0106,
      "velocity": 121,
      "chip": "ym2612"
    },
    {
      "channel": 2,
      "note": 45,
      "start": 40.1304,
      "duration": 0.0005,
      "velocity": 122,
      "chip": "ym2612"
    },
    {
      "channel": 2,
      "note": 81,
      "start": 40.1328,
      "duration": 0.008,
      "velocity": 121,
      "chip": "ym2612"
    },
    {
      "channel": 2,
      "note": 45,
      "start": 40.2438,
      "duration": 0.002,
      "velocity": 122,
      "chip": "ym2612"
    },
    {
      "channel": 2,
      "note": 81,
      "start": 40.2477,
      "duration": 0.1303,
      "velocity": 104,
      "chip": "ym2612"
    },
    {
      "channel": 2,
      "note": 55,
      "start": 40.3801,
      "duration": 0.0939,
      "velocity": 125,
      "chip": "ym2612"
    },
    {
      "channel": 2,
      "note": 45,
      "start": 40.5133,
      "duration": 0.0774,
      "velocity": 122,
      "chip": "ym2612"
    },
    {
      "channel": 2,
      "note": 55,
      "start": 40.6307,
      "duration": 0.1266,
      "velocity": 125,
      "chip": "ym2612"
    },
    {
      "channel": 2,
      "note": 81,
      "start": 40.7633,
      "duration": 0.0107,
      "velocity": 121,
      "chip": "ym2612"
    },
    {
      "channel": 2,
      "note": 81,
      "start": 40.8935,
      "duration": 0.0139,
      "velocity": 121,
      "chip": "ym2612"
    },
    {
      "channel": 2,
      "note": 81,
      "start": 40.9767,
      "duration": 0.0141,
      "velocity": 121,
      "chip": "ym2612"
    },
    {
      "channel": 2,
      "note": 81,
      "start": 41.0601,
      "duration": 0.014,
      "velocity": 121,
      "chip": "ym2612"
    },
    {
      "channel": 4,
      "note": 45,
      "start": 41.1475,
      "duration": 0.0763,
      "velocity": 122,
      "chip": "ym2612"
    },
    {
      "channel": 2,
      "note": 81,
      "start": 41.1513,
      "duration": 0.0227,
      "velocity": 121,
      "chip": "ym2612"
    },
    {
      "channel": 5,
      "note": 74,
      "start": 41.1653,
      "duration": 0.1087,
      "velocity": 107,
      "chip": "ym2612"
    },
    {
      "channel": 0,
      "note": 69,
      "start": 41.168,
      "duration": 0.1057,
      "velocity": 107,
      "chip": "ym2612"
    },
    {
      "channel": 4,
      "note": 45,
      "start": 41.2799,
      "duration": 0.094,
      "velocity": 122,
      "chip": "ym2612"
    },
    {
      "channel": 2,
      "note": 81,
      "start": 41.2823,
      "duration": 0.0105,
      "velocity": 121,
      "chip": "ym2612"
    },
    {
      "channel": 1,
      "note": 50,
      "start": 41.2852,
      "duration": 0.072,
      "velocity": 97,
      "chip": "ym2612"
    },
    {
      "channel": 0,
      "note": 50,
      "start": 41.2883,
      "duration": 0.0688,
      "velocity": 107,
      "chip": "ym2612"
    },
    {
      "channel": 5,
      "note": 57,
      "start": 41.291,
      "duration": 0.0665,
      "velocity": 107,
      "chip": "ym2612"
    },
    {
      "channel": 2,
      "note": 81,
      "start": 41.4099,
      "duration": 0.0141,
      "velocity": 121,
      "chip": "ym2612"
    },
    {
      "channel": 1,
      "note": 51,
      "start": 41.4126,
      "duration": 0.0945,
      "velocity": 97,
      "chip": "ym2612"
    },
    {
      "channel": 4,
      "note": 45,
      "start": 41.5271,
      "duration": 0.1302,
      "velocity": 122,
      "chip": "ym2612"
    },
    {
      "channel": 2,
      "note": 81,
      "start": 41.5294,
      "duration": 0.028,
      "velocity": 121,
      "chip": "ym2612"
    },
    {
      "channel": 1,
      "note": 53,
      "start": 41.532,
      "duration": 0.1085,
      "velocity": 97,
      "chip": "ym2612"
    },
    {
      "channel": 0,
      "note": 50,
      "start": 41.5351,
      "duration": 0.1053,
      "velocity": 107,
      "chip": "ym2612"
    },
    {
      "channel": 5,
      "note": 57,
      "start": 41.5381,
      "duration": 0.1026,
      "velocity": 107,
      "chip": "ym2612"
    },
    {
      "channel": 4,
      "note": 55,
      "start": 41.664,
      "duration": 0.1766,
      "velocity": 125,
      "chip": "ym2612"
    },
    {
      "channel": 2,
      "note": 81,
      "start": 41.6664,
      "duration": 0.0243,
      "velocity": 121,
      "chip": "ym2612"
    },
    {
      "channel": 1,
      "note": 55,
      "start": 41.6689,
      "duration": 0.1049,
      "velocity": 97,
      "chip": "ym2612"
    },
    {
      "channel": 2,
      "note": 81,
      "start": 41.7933,
      "duration": 0.0141,
      "velocity": 121,
      "chip": "ym2612"
    },
    {
      "channel": 1,
      "note": 48,
      "start": 41.7958,
      "duration": 0.0947,
      "velocity": 97,
      "chip": "ym2612"
    },
    {
      "channel": 0,
      "note": 50,
      "start": 41.7989,
      "duration": 0.0749,
      "velocity": 107,
      "chip": "ym2612"
    },
    {
      "channel": 5,
      "note": 57,
      "start": 41.8015,
      "duration": 0.0724,
      "velocity": 107,
      "chip": "ym2612"
    },
    {
      "channel": 2,
      "note": 81,
      "start": 41.9266,
      "duration": 0.0141,
      "velocity": 121,
      "chip": "ym2612"
    },
    {
      "channel": 1,
      "note": 51,
      "start": 41.9293,
      "duration": 0.0779,
      "velocity": 97,
      "chip": "ym2612"
    },
    {
      "channel": 0,
      "note": 65,
      "start": 41.9324,
      "duration": 0.3581,
      "velocity": 107,
      "chip": "ym2612"
    },
    {
      "channel": 5,
      "note": 72,
      "start": 41.9352,
      "duration": 0.3721,
      "velocity": 107,
      "chip": "ym2612"
    },
    {
      "channel": 2,
      "note": 81,
      "start": 42.0466,
      "duration": 0.2107,
      "velocity": 104,
      "chip": "ym2612"
    },
    {
      "channel": 1,
      "note": 46,
      "start": 42.0492,
      "duration": 0.0912,
      "velocity": 97,
      "chip": "ym2612"
    },
    {
      "channel": 4,
      "note": 45,
      "start": 42.1799,
      "duration": 0.0607,
      "velocity": 122,
      "chip": "ym2612"
    },
    {
      "channel": 1,
      "note": 53,
      "start": 42.1827,
      "duration": 0.1079,
      "velocity": 97,
      "chip": "ym2612"
    },
    {
      "channel": 4,
      "note": 45,
      "start": 42.3105,
      "duration": 0.0968,
      "velocity": 122,
      "chip": "ym2612"
    },
    {
      "channel": 2,
      "note": 81,
      "start": 42.3143,
      "duration": 0.0098,
      "velocity": 121,
      "chip": "ym2612"
    },
    {
      "channel": 1,
      "note": 50,
      "start": 42.3175,
      "duration": 0.9562,
      "velocity": 97,
      "chip": "ym2612"
    },
    {
      "channel": 0,
      "note": 57,
      "start": 42.3206,
      "duration": 0.0698,
      "velocity": 107,
      "chip": "ym2612"
    },
    {
      "channel": 2,
      "note": 81,
      "start": 42.4432,
      "duration": 0.0141,
      "velocity": 121,
      "chip": "ym2612"
    },
    {
      "channel": 0,
      "note": 58,
      "start": 42.4466,
      "duration": 0.0938,
      "velocity": 107,
      "chip": "ym2612"
    },
    {
      "channel": 4,
      "note": 45,
      "start": 42.5625,
      "duration": 0.1115,
      "velocity": 122,
      "chip": "ym2612"
    },
    {
      "channel": 2,
      "note": 81,
      "start": 42.5648,
      "duration": 0.0258,
      "velocity": 121,
      "chip": "ym2612"
    },
    {
      "channel": 0,
      "note": 60,
      "start": 42.5679,
      "duration": 0.1226,
      "velocity": 107,
      "chip": "ym2612"
    },
    {
      "channel": 4,
      "note": 55,
      "start": 42.6964,
      "duration": 0.0941,
      "velocity": 125,
      "chip": "ym2612"
    },
    {
      "channel": 2,
      "note": 81,
      "start": 42.6988,
      "duration": 0.0086,
      "velocity": 121,
      "chip": "ym2612"
    },
    {
      "channel": 0,
      "note": 62,
      "start": 42.7019,
      "duration": 0.0885,
      "velocity": 107,
      "chip": "ym2612"
    },
    {
      "channel": 2,
      "note": 81,
      "start": 42.8266,
      "duration": 0.0141,
      "velocity": 121,
      "chip": "ym2612"
    },
    {
      "channel": 0,
      "note": 69,
      "start": 42.8297,
      "duration": 0.0941,
      "velocity": 107,
      "chip": "ym2612"
    },
    {
      "channel": 5,
      "note": 65,
      "start": 42.8323,
      "duration": 0.0917,
      "velocity": 107,
      "chip": "ym2612"
    },
    {
      "channel": 2,
      "note": 81,
      "start": 42.9434,
      "duration": 0.0307,
      "velocity": 121,
      "chip": "ym2612"
    },
    {
      "channel": 0,
      "note": 64,
      "start": 42.9464,
      "duration": 0.1106,
      "velocity": 107,
      "chip": "ym2612"
    },
    {
      "channel": 2,
      "note": 81,
      "start": 43.0433,
      "duration": 0.0141,
      "velocity": 121,
      "chip": "ym2612"
    },
    {
      "channel": 0,
      "note": 62,
      "start": 43.0609,
      "duration": 0.0962,
      "velocity": 107,
      "chip": "ym2612"
    },
    {
      "channel": 2,
      "note": 81,
      "start": 43.1266,
      "duration": 0.0141,
      "velocity": 121,
      "chip": "ym2612"
    },
    {
      "channel": 4,
      "note": 45,
      "start": 43.2132,
      "duration": 0.0607,
      "velocity": 122,
      "chip": "ym2612"
    },
    {
      "channel": 2,
      "note": 81,
      "start": 43.2174,
      "duration": 0.1232,
      "velocity": 104,
      "chip": "ym2612"
    },
    {
      "channel": 0,
      "note": 67,
      "start": 43.2205,
      "duration": 0.0866,
      "velocity": 107,
      "chip": "ym2612"
    },
    {
      "channel": 5,
      "note": 72,
      "start": 43.2237,
      "duration": 0.067,
      "velocity": 107,
      "chip": "ym2612"
    },
    {
      "channel": 4,
      "note": 45,
      "start": 43.3438,
      "duration": 0.0968,
      "velocity": 122,
      "chip": "ym2612"
    },
    {
      "channel": 2,
      "note": 81,
      "start": 43.3477,
      "duration": 0.0097,
      "velocity": 121,
      "chip": "ym2612"
    },
    {
      "channel": 1,
      "note": 50,
      "start": 43.3505,
      "duration": 0.1067,
      "velocity": 97,
      "chip": "ym2612"
    },
    {
      "channel": 0,
      "note": 58,
      "start": 43.3536,
      "duration": 0.1036,
      "velocity": 107,
      "chip": "ym2612"
    },
    {
      "channel": 2,
      "note": 81,
      "start": 43.4601,
      "duration": 0.0305,
      "velocity": 121,
      "chip": "ym2612"
    },
    {
      "channel": 1,
      "note": 51,
      "start": 43.4629,
      "duration": 0.0776,
      "velocity": 97,
      "chip": "ym2612"
    },
    {
      "channel": 4,
      "note": 45,
      "start": 43.5958,
      "duration": 0.0948,
      "velocity": 122,
      "chip": "ym2612"
    },
    {
      "channel": 2,
      "note": 81,
      "start": 43.6,
      "duration": 0.0908,
      "velocity": 104,
      "chip": "ym2612"
    },
    {
      "channel": 1,
      "note": 53,
      "start": 43.6027,
      "duration": 0.1212,
      "velocity": 97,
      "chip": "ym2612"
    },
    {
      "channel": 0,
      "note": 58,
      "start": 43.6055,
      "duration": 0.1183,
      "velocity": 107,
      "chip": "ym2612"
    },
    {
      "channel": 4,
      "note": 55,
      "start": 43.73,
      "duration": 0.1439,
      "velocity": 125,
      "chip": "ym2612"
    },
    {
      "channel": 2,
      "note": 81,
      "start": 43.7338,
      "duration": 0.0069,
      "velocity": 121,
      "chip": "ym2612"
    },
    {
      "channel": 1,
      "note": 55,
      "start": 43.7365,
      "duration": 0.0873,
      "velocity": 97,
      "chip": "ym2612"
    },
    {
      "channel": 2,
      "note": 81,
      "start": 43.8463,
      "duration": 0.1111,
      "velocity": 104,
      "chip": "ym2612"
    },
    {
      "channel": 1,
      "note": 46,
      "start": 43.849,
      "duration": 0.0915,
      "velocity": 97,
      "chip": "ym2612"
    },
    {
      "channel": 0,
      "note": 58,
      "start": 43.8521,
      "duration": 0.105,
      "velocity": 107,
      "chip": "ym2612"
    },
    {
      "channel": 2,
      "note": 81,
      "start": 43.98,
      "duration": 0.0106,
      "velocity": 121,
      "chip": "ym2612"
    },
    {
      "channel": 1,
      "note": 51,
      "start": 43.9827,
      "duration": 0.0578,
      "velocity": 97,
      "chip": "ym2612"
    },
    {
      "channel": 0,
      "note": 63,
      "start": 43.9856,
      "duration": 0.1047,
      "velocity": 107,
      "chip": "ym2612"
    },
    {
      "channel": 5,
      "note": 70,
      "start": 43.9883,
      "duration": 0.1024,
      "velocity": 107,
      "chip": "ym2612"
    },
    {
      "channel": 2,
      "note": 81,
      "start": 44.1099,
      "duration": 0.0141,
      "velocity": 121,
      "chip": "ym2612"
    },
    {
      "channel": 1,
      "note": 50,
      "start": 44.1129,
      "duration": 0.0609,
      "velocity": 97,
      "chip": "ym2612"
    },
    {
      "channel": 0,
      "note": 58,
      "start": 44.1156,
      "duration": 0.0915,
      "velocity": 107,
      "chip": "ym2612"
    },
    {
      "channel": 4,
      "note": 45,
      "start": 44.2466,
      "duration": 0.044,
      "velocity": 122,
      "chip": "ym2612"
    },
    {
      "channel": 2,
      "note": 81,
      "start": 44.2489,
      "duration": 0.0084,
      "velocity": 121,
      "chip": "ym2612"
    },
    {
      "channel": 1,
      "note": 53,
      "start": 44.2516,
      "duration": 0.1055,
      "velocity": 97,
      "chip": "ym2612"
    },
    {
      "channel": 0,
      "note": 62,
      "start": 44.2544,
      "duration": 0.086,
      "velocity": 107,
      "chip": "ym2612"
    },
    {
      "channel": 4,
      "note": 45,
      "start": 44.3605,
      "duration": 0.1135,
      "velocity": 122,
      "chip": "ym2612"
    },
    {
      "channel": 2,
      "note": 81,
      "start": 44.3628,
      "duration": 0.0279,
      "velocity": 121,
      "chip": "ym2612"
    },
    {
      "channel": 1,
      "note": 46,
      "start": 44.3657,
      "duration": 0.1916,
      "velocity": 97,
      "chip": "ym2612"
    },
    {
      "channel": 0,
      "note": 55,
      "start": 44.3691,
      "duration": 0.188,
      "velocity": 107,
      "chip": "ym2612"
    },
    {
      "channel": 2,
      "note": 81,
      "start": 44.4963,
      "duration": 0.4611,
      "velocity": 104,
      "chip": "ym2612"
    },
    {
      "channel": 4,
      "note": 45,
      "start": 44.6293,
      "duration": 0.0947,
      "velocity": 122,
      "chip": "ym2612"
    },
    {
      "channel": 1,
      "note": 51,
      "start": 44.6322,
      "duration": 0.1416,
      "velocity": 97,
      "chip": "ym2612"
    },
    {
      "channel": 0,
      "note": 60,
      "start": 44.6353,
      "duration": 0.0884,
      "velocity": 107,
      "chip": "ym2612"
    },
    {
      "channel": 4,
      "note": 55,
      "start": 44.7466,
      "duration": 0.1772,
      "velocity": 125,
      "chip": "ym2612"
    },
    {
      "channel": 3,
      "note": 45,
      "start": 44.7498,
      "duration": 0.2574,
      "velocity": 97,
      "chip": "ym2612"
    },
    {
      "channel": 0,
      "note": 51,
      "start": 44.7529,
      "duration": 0.2043,
      "velocity": 107,
      "chip": "ym2612"
    },
    {
      "channel": 0,
      "note": 58,
      "start": 44.9611,
      "duration": 0.1127,
      "velocity": 107,
      "chip": "ym2612"
    },
    {
      "channel": 2,
      "note": 81,
      "start": 45.0133,
      "duration": 0.0107,
      "velocity": 121,
      "chip": "ym2612"
    },
    {
      "channel": 1,
      "note": 51,
      "start": 45.0162,
      "duration": 0.1243,
      "velocity": 97,
      "chip": "ym2612"
    },
    {
      "channel": 2,
      "note": 81,
      "start": 45.0932,
      "duration": 0.0142,
      "velocity": 121,
      "chip": "ym2612"
    },
    {
      "channel": 1,
      "note": 50,
      "start": 45.1457,
      "duration": 0.1114,
      "velocity": 97,
      "chip": "ym2612"
    },
    {
      "channel": 0,
      "note": 57,
      "start": 45.1488,
      "duration": 0.2249,
      "velocity": 107,
      "chip": "ym2612"
    },
    {
      "channel": 5,
      "note": 50,
      "start": 45.1515,
      "duration": 0.2225,
      "velocity": 107,
      "chip": "ym2612"
    },
    {
      "channel": 2,
      "note": 81,
      "start": 45.1766,
      "duration": 0.0141,
      "velocity": 121,
      "chip": "ym2612"
    },
    {
      "channel": 4,
      "note": 45,
      "start": 45.2632,
      "duration": 0.0606,
      "velocity": 122,
      "chip": "ym2612"
    },
    {
      "channel": 2,
      "note": 81,
      "start": 45.2671,
      "duration": 0.0736,
      "velocity": 104,
      "chip": "ym2612"
    },
    {
      "channel": 4,
      "note": 45,
      "start": 45.3958,
      "duration": 0.0782,
      "velocity": 122,
      "chip": "ym2612"
    },
    {
      "channel": 2,
      "note": 81,
      "start": 45.4,
      "duration": 0.0106,
      "velocity": 121,
      "chip": "ym2612"
    },
    {
      "channel": 1,
      "note": 50,
      "start": 45.4027,
      "duration": 0.1211,
      "velocity": 97,
      "chip": "ym2612"
    },
    {
      "channel": 0,
      "note": 62,
      "start": 45.4061,
      "duration": 0.0844,
      "velocity": 107,
      "chip": "ym2612"
    },
    {
      "channel": 5,
      "note": 57,
      "start": 45.4089,
      "duration": 0.0819,
      "velocity": 107,
      "chip": "ym2612"
    },
    {
      "channel": 2,
      "note": 81,
      "start": 45.5267,
      "duration": 0.0139,
      "velocity": 121,
      "chip": "ym2612"
    },
    {
      "channel": 1,
      "note": 51,
      "start": 45.5292,
      "duration": 0.1113,
      "velocity": 97,
      "chip": "ym2612"
    },
    {
      "channel": 4,
      "note": 45,
      "start": 45.6438,
      "duration": 0.1134,
      "velocity": 122,
      "chip": "ym2612"
    },
    {
      "channel": 2,
      "note": 81,
      "start": 45.6462,
      "duration": 0.0279,
      "velocity": 121,
      "chip": "ym2612"
    },
    {
      "channel": 1,
      "note": 53,
      "start": 45.6489,
      "duration": 0.1415,
      "velocity": 97,
      "chip": "ym2612"
    },
    {
      "channel": 0,
      "note": 62,
      "start": 45.6519,
      "duration": 0.1052,
      "velocity": 107,
      "chip": "ym2612"
    },
    {
      "channel": 5,
      "note": 57,
      "start": 45.6545,
      "duration": 0.1029,
      "velocity": 107,
      "chip": "ym2612"
    },
    {
      "channel": 4,
      "note": 55,
      "start": 45.78,
      "duration": 0.1772,
      "velocity": 125,
      "chip": "ym2612"
    },
    {
      "channel": 2,
      "note": 81,
      "start": 45.7823,
      "duration": 0.0084,
      "velocity": 121,
      "chip": "ym2612"
    },
    {
      "channel": 3,
      "note": 55,
      "start": 45.7851,
      "duration": 0.1054,
      "velocity": 97,
      "chip": "ym2612"
    },
    {
      "channel": 2,
      "note": 81,
      "start": 45.91,
      "duration": 0.014,
      "velocity": 121,
      "chip": "ym2612"
    },
    {
      "channel": 1,
      "note": 48,
      "start": 45.9127,
      "duration": 0.1445,
      "velocity": 97,
      "chip": "ym2612"
    },
    {
      "channel": 0,
      "note": 63,
      "start": 45.9158,
      "duration": 0.0747,
      "velocity": 107,
      "chip": "ym2612"
    },
    {
      "channel": 5,
      "note": 55,
      "start": 45.9185,
      "duration": 0.0723,
      "velocity": 107,
      "chip": "ym2612"
    },
    {
      "channel": 2,
      "note": 81,
      "start": 46.0463,
      "duration": 0.0943,
      "velocity": 104,
      "chip": "ym2612"
    },
    {
      "channel": 3,
      "note": 51,
      "start": 46.049,
      "duration": 0.0748,
      "velocity": 97,
      "chip": "ym2612"
    },
    {
      "channel": 2,
      "note": 81,
      "start": 46.1633,
      "duration": 0.0274,
      "velocity": 121,
      "chip": "ym2612"
    },
    {
      "channel": 1,
      "note": 46,
      "start": 46.1659,
      "duration": 0.0914,
      "velocity": 97,
      "chip": "ym2612"
    },
    {
      "channel": 0,
      "note": 63,
      "start": 46.1688,
      "duration": 0.0883,
      "velocity": 107,
      "chip": "ym2612"
    },
    {
      "channel": 5,
      "note": 55,
      "start": 46.1718,
      "duration": 0.0856,
      "velocity": 107,
      "chip": "ym2612"
    },
    {
      "channel": 4,
      "note": 45,
      "start": 46.2966,
      "duration": 0.0607,
      "velocity": 122,
      "chip": "ym2612"
    },
    {
      "channel": 2,
      "note": 81,
      "start": 46.2989,
      "duration": 0.0084,
      "velocity": 121,
      "chip": "ym2612"
    },
    {
      "channel": 1,
      "note": 53,
      "start": 46.3016,
      "duration": 0.1055,
      "velocity": 97,
      "chip": "ym2612"
    },
    {
      "channel": 4,
      "note": 45,
      "start": 46.4294,
      "duration": 0.0945,
      "velocity": 122,
      "chip": "ym2612"
    },
    {
      "channel": 2,
      "note": 81,
      "start": 46.4317,
      "duration": 0.0108,
      "velocity": 121,
      "chip": "ym2612"
    },
    {
      "channel": 1,
      "note": 48,
      "start": 46.435,
      "duration": 0.9554,
      "velocity": 97,
      "chip": "ym2612"
    },
    {
      "channel": 0,
      "note": 63,
      "start": 46.438,
      "duration": 0.0524,
      "velocity": 107,
      "chip": "ym2612"
    },
    {
      "channel": 5,
      "note": 55,
      "start": 46.4407,
      "duration": 0.0499,
      "velocity": 107,
      "chip": "ym2612"
    },
    {
      "channel": 2,
      "note": 81,
      "start": 46.5599,
      "duration": 0.0141,
      "velocity": 121,
      "chip": "ym2612"
    },
    {
      "channel": 0,
      "note": 67,
      "start": 46.5631,
      "duration": 0.0772,
      "velocity": 107,
      "chip": "ym2612"
    },
    {
      "channel": 5,
      "note": 72,
      "start": 46.5659,
      "duration": 0.0913,
      "velocity": 107,
      "chip": "ym2612"
    },
    {
      "channel": 4,
      "note": 45,
      "start": 46.6768,
      "duration": 0.1137,
      "velocity": 122,
      "chip": "ym2612"
    },
    {
      "channel": 2,
      "note": 81,
      "start": 46.6792,
      "duration": 0.0282,
      "velocity": 121,
      "chip": "ym2612"
    },
    {
      "channel": 0,
      "note": 63,
      "start": 46.6823,
      "duration": 0.1081,
      "velocity": 107,
      "chip": "ym2612"
    },
    {
      "channel": 4,
      "note": 55,
      "start": 46.8133,
      "duration": 0.1439,
      "velocity": 125,
      "chip": "ym2612"
    },
    {
      "channel": 2,
      "note": 81,
      "start": 46.8157,
      "duration": 0.0083,
      "velocity": 121,
      "chip": "ym2612"
    },
    {
      "channel": 2,
      "note": 81,
      "start": 46.9463,
      "duration": 0.111,
      "velocity": 104,
      "chip": "ym2612"
    },
    {
      "channel": 0,
      "note": 63,
      "start": 46.9499,
      "duration": 0.0571,
      "velocity": 107,
      "chip": "ym2612"
    },
    {
      "channel": 2,
      "note": 81,
      "start": 47.0633,
      "duration": 0.0274,
      "velocity": 121,
      "chip": "ym2612"
    },
    {
      "channel": 0,
      "note": 67,
      "start": 47.0666,
      "duration": 0.1073,
      "velocity": 107,
      "chip": "ym2612"
    },
    {
      "channel": 5,
      "note": 72,
      "start": 47.0693,
      "duration": 0.0879,
      "velocity": 107,
      "chip": "ym2612"
    },
    {
      "channel": 2,
      "note": 81,
      "start": 47.1601,
      "duration": 0.0141,
      "velocity": 121,
      "chip": "ym2612"
    },
    {
      "channel": 0,
      "note": 63,
      "start": 47.194,
      "duration": 0.0631,
      "velocity": 107,
      "chip": "ym2612"
    },
    {
      "channel": 2,
      "note": 81,
      "start": 47.2434,
      "duration": 0.0141,
      "velocity": 121,
      "chip": "ym2612"
    },
    {
      "channel": 2,
      "note": 81,
      "start": 47.3102,
      "duration": 0.0305,
      "velocity": 121,
      "chip": "ym2612"
    },
    {
      "channel": 4,
      "note": 45,
      "start": 47.3303,
      "duration": 0.0603,
      "velocity": 122,
      "chip": "ym2612"
    },
    {
      "channel": 0,
      "note": 75,
      "start": 47.3336,
      "duration": 0.0901,
      "velocity": 107,
      "chip": "ym2612"
    },
    {
      "channel": 5,
      "note": 67,
      "start": 47.3363,
      "duration": 0.0877,
      "velocity": 107,
      "chip": "ym2612"
    },
    {
      "channel": 4,
      "note": 45,
      "start": 47.4605,
      "duration": 0.0801,
      "velocity": 122,
      "chip": "ym2612"
    },
    {
      "channel": 2,
      "note": 81,
      "start": 47.4631,
      "duration": 0.0109,
      "velocity": 121,
      "chip": "ym2612"
    },
    {
      "channel": 1,
      "note": 50,
      "start": 47.466,
      "duration": 0.1079,
      "velocity": 97,
      "chip": "ym2612"
    },
    {
      "channel": 0,
      "note": 60,
      "start": 47.4694,
      "duration": 0.0709,
      "velocity": 107,
      "chip": "ym2612"
    },
    {
      "channel": 2,
      "note": 81,
      "start": 47.5767,
      "duration": 0.0306,
      "velocity": 121,
      "chip": "ym2612"
    },
    {
      "channel": 1,
      "note": 51,
      "start": 47.5795,
      "duration": 0.0778,
      "velocity": 97,
      "chip": "ym2612"
    },
    {
      "channel": 4,
      "note": 45,
      "start": 47.7103,
      "duration": 0.0803,
      "velocity": 122,
      "chip": "ym2612"
    },
    {
      "channel": 2,
      "note": 81,
      "start": 47.7145,
      "duration": 0.0927,
      "velocity": 104,
      "chip": "ym2612"
    },
    {
      "channel": 1,
      "note": 53,
      "start": 47.7172,
      "duration": 0.1232,
      "velocity": 97,
      "chip": "ym2612"
    },
    {
      "channel": 0,
      "note": 60,
      "start": 47.72,
      "duration": 0.0705,
      "velocity": 107,
      "chip": "ym2612"
    },
    {
      "channel": 4,
      "note": 55,
      "start": 47.8466,
      "duration": 0.1774,
      "velocity": 125,
      "chip": "ym2612"
    },
    {
      "channel": 2,
      "note": 81,
      "start": 47.8505,
      "duration": 0.0069,
      "velocity": 121,
      "chip": "ym2612"
    },
    {
      "channel": 1,
      "note": 55,
      "start": 47.8531,
      "duration": 0.0873,
      "velocity": 97,
      "chip": "ym2612"
    },
    {
      "channel": 2,
      "note": 81,
      "start": 47.9599,
      "duration": 0.0307,
      "velocity": 121,
      "chip": "ym2612"
    },
    {
      "channel": 1,
      "note": 46,
      "start": 47.9626,
      "duration": 0.0945,
      "velocity": 97,
      "chip": "ym2612"
    },
    {
      "channel": 0,
      "note": 60,
      "start": 47.9655,
      "duration": 0.0583,
      "velocity": 107,
      "chip": "ym2612"
    },
    {
      "channel": 2,
      "note": 81,
      "start": 48.0963,
      "duration": 0.111,
      "velocity": 104,
      "chip": "ym2612"
    },
    {
      "channel": 1,
      "note": 51,
      "start": 48.099,
      "duration": 0.0581,
      "velocity": 97,
      "chip": "ym2612"
    },
    {
      "channel": 2,
      "note": 81,
      "start": 48.2302,
      "duration": 0.0105,
      "velocity": 121,
      "chip": "ym2612"
    },
    {
      "channel": 1,
      "note": 50,
      "start": 48.2327,
      "duration": 0.0577,
      "velocity": 97,
      "chip": "ym2612"
    },
    {
      "channel": 0,
      "note": 60,
      "start": 48.2358,
      "duration": 0.0212,
      "velocity": 107,
      "chip": "ym2612"
    },
    {
      "channel": 4,
      "note": 45,
      "start": 48.3636,
      "duration": 0.0438,
      "velocity": 122,
      "chip": "ym2612"
    },
    {
      "channel": 2,
      "note": 81,
      "start": 48.366,
      "duration": 0.0108,
      "velocity": 121,
      "chip": "ym2612"
    },
    {
      "channel": 1,
      "note": 53,
      "start": 48.369,
      "duration": 0.1049,
      "velocity": 97,
      "chip": "ym2612"
    },
    {
      "channel": 0,
      "note": 75,
      "start": 48.3721,
      "duration": 0.1017,
      "velocity": 107,
      "chip": "ym2612"
    },
    {
      "channel": 5,
      "note": 67,
      "start": 48.3749,
      "duration": 0.0823,
      "velocity": 107,
      "chip": "ym2612"
    },
    {
      "channel": 4,
      "note": 45,
      "start": 48.4771,
      "duration": 0.0803,
      "velocity": 122,
      "chip": "ym2612"
    },
    {
      "channel": 2,
      "note": 81,
      "start": 48.4809,
      "duration": 0.4431,
      "velocity": 104,
      "chip": "ym2612"
    },
    {
      "channel": 1,
      "note": 46,
      "start": 48.4838,
      "duration": 0.19,
      "velocity": 97,
      "chip": "ym2612"
    },
    {
      "channel": 0,
      "note": 60,
      "start": 48.4872,
      "duration": 0.2198,
      "velocity": 107,
      "chip": "ym2612"
    },
    {
      "channel": 4,
      "note": 55,
      "start": 48.6133,
      "duration": 0.0939,
      "velocity": 125,
      "chip": "ym2612"
    },
    {
      "channel": 4,
      "note": 45,
      "start": 48.7466,
      "duration": 0.0773,
      "velocity": 122,
      "chip": "ym2612"
    },
    {
      "channel": 1,
      "note": 51,
      "start": 48.7495,
      "duration": 0.141,
      "velocity": 97,
      "chip": "ym2612"
    },
    {
      "channel": 0,
      "note": 75,
      "start": 48.7526,
      "duration": 0.0877,
      "velocity": 107,
      "chip": "ym2612"
    },
    {
      "channel": 5,
      "note": 67,
      "start": 48.7554,
      "duration": 0.0686,
      "velocity": 107,
      "chip": "ym2612"
    },
    {
      "channel": 4,
      "note": 55,
      "start": 48.8639,
      "duration": 0.1266,
      "velocity": 125,
      "chip": "ym2612"
    },
    {
      "channel": 3,
      "note": 45,
      "start": 48.8669,
      "duration": 0.2569,
      "velocity": 97,
      "chip": "ym2612"
    },
    {
      "channel": 0,
      "note": 58,
      "start": 48.87,
      "duration": 0.2037,
      "velocity": 107,
      "chip": "ym2612"
    },
    {
      "channel": 2,
      "note": 81,
      "start": 48.9966,
      "duration": 0.0107,
      "velocity": 121,
      "chip": "ym2612"
    },
    {
      "channel": 2,
      "note": 81,
      "start": 49.1268,
      "duration": 0.0138,
      "velocity": 121,
      "chip": "ym2612"
    },
    {
      "channel": 1,
      "note": 51,
      "start": 49.1297,
      "duration": 0.1274,
      "velocity": 97,
      "chip": "ym2612"
    },
    {
      "channel": 0,
      "note": 75,
      "start": 49.1328,
      "duration": 0.0909,
      "velocity": 107,
      "chip": "ym2612"
    },
    {
      "channel": 5,
      "note": 67,
      "start": 49.1357,
      "duration": 0.055,
      "velocity": 107,
      "chip": "ym2612"
    },
    {
      "channel": 2,
      "note": 81,
      "start": 49.21,
      "duration": 0.0141,
      "velocity": 121,
      "chip": "ym2612"
    },
    {
      "channel": 1,
      "note": 50,
      "start": 49.2605,
      "duration": 0.1135,
      "velocity": 97,
      "chip": "ym2612"
    },
    {
      "channel": 0,
      "note": 57,
      "start": 49.2638,
      "duration": 0.11,
      "velocity": 107,
      "chip": "ym2612"
    },
    {
      "channel": 2,
      "note": 81,
      "start": 49.2933,
      "duration": 0.0141,
      "velocity": 121,
      "chip": "ym2612"
    },
    {
      "channel": 4,
      "note": 45,
      "start": 49.3807,
      "duration": 0.0766,
      "velocity": 122,
      "chip": "ym2612"
    },
    {
      "channel": 2,
      "note": 81,
      "start": 49.3845,
      "duration": 0.0229,
      "velocity": 121,
      "chip": "ym2612"
    },
    {
      "channel": 3,
      "note": 74,
      "start": 49.39,
      "duration": 1.1506,
      "velocity": 106,
      "chip": "ym2612"
    },
    {
      "channel": 0,
      "note": 74,
      "start": 49.3926,
      "duration": 0.1145,
      "velocity": 107,
      "chip": "ym2612"
    },
    {
      "channel": 5,
      "note": 69,
      "start": 49.3953,
      "duration": 0.112,
      "velocity": 107,
      "chip": "ym2612"
    },
    {
      "channel": 4,
      "note": 45,
      "start": 49.5132,
      "duration": 0.094,
      "velocity": 122,
      "chip": "ym2612"
    },
    {
      "channel": 2,
      "note": 81,
      "start": 49.5156,
      "duration": 0.0107,
      "velocity": 121,
      "chip": "ym2612"
    },
    {
      "channel": 1,
      "note": 50,
      "start": 49.5188,
      "duration": 0.0717,
      "velocity": 97,
      "chip": "ym2612"
    },
    {
      "channel": 0,
      "note": 50,
      "start": 49.5219,
      "duration": 0.0686,
      "velocity": 107,
      "chip": "ym2612"
    },
    {
      "channel": 5,
      "note": 57,
      "start": 49.5246,
      "duration": 0.0663,
      "velocity": 107,
      "chip": "ym2612"
    },
    {
      "channel": 2,
      "note": 81,
      "start": 49.6433,
      "duration": 0.0141,
      "velocity": 121,
      "chip": "ym2612"
    },
    {
      "channel": 1,
      "note": 51,
      "start": 49.646,
      "duration": 0.0944,
      "velocity": 97,
      "chip": "ym2612"
    },
    {
      "channel": 4,
      "note": 45,
      "start": 49.7605,
      "duration": 0.1301,
      "velocity": 122,
      "chip": "ym2612"
    },
    {
      "channel": 2,
      "note": 81,
      "start": 49.7628,
      "duration": 0.0279,
      "velocity": 121,
      "chip": "ym2612"
    },
    {
      "channel": 1,
      "note": 53,
      "start": 49.7654,
      "duration": 0.1085,
      "velocity": 97,
      "chip": "ym2612"
    },
    {
      "channel": 0,
      "note": 50,
      "start": 49.7685,
      "duration": 0.1052,
      "velocity": 107,
      "chip": "ym2612"
    },
    {
      "channel": 5,
      "note": 57,
      "start": 49.7711,
      "duration": 0.103,
      "velocity": 107,
      "chip": "ym2612"
    },
    {
      "channel": 4,
      "note": 55,
      "start": 49.8973,
      "duration": 0.16,
      "velocity": 125,
      "chip": "ym2612"
    },
    {
      "channel": 2,
      "note": 81,
      "start": 49.8996,
      "duration": 0.0077,
      "velocity": 121,
      "chip": "ym2612"
    },
    {
      "channel": 1,
      "note": 55,
      "start": 49.9022,
      "duration": 0.105,
      "velocity": 97,
      "chip": "ym2612"
    },
    {
      "channel": 2,
      "note": 81,
      "start": 50.0267,
      "duration": 0.014,
      "velocity": 121,
      "chip": "ym2612"
    },
    {
      "channel": 1,
      "note": 48,
      "start": 50.0291,
      "duration": 0.0947,
      "velocity": 97,
      "chip": "ym2612"
    },
    {
      "channel": 0,
      "note": 50,
      "start": 50.0327,
      "duration": 0.0744,
      "velocity": 107,
      "chip": "ym2612"
    },
    {
      "channel": 5,
      "note": 57,
      "start": 50.0353,
      "duration": 0.0721,
      "velocity": 107,
      "chip": "ym2612"
    },
    {
      "channel": 2,
      "note": 81,
      "start": 50.1599,
      "duration": 0.0141,
      "velocity": 121,
      "chip": "ym2612"
    },
    {
      "channel": 1,
      "note": 51,
      "start": 50.1626,
      "duration": 0.0779,
      "velocity": 97,
      "chip": "ym2612"
    },
    {
      "channel": 0,
      "note": 65,
      "start": 50.1657,
      "duration": 0.358,
      "velocity": 107,
      "chip": "ym2612"
    },
    {
      "channel": 5,
      "note": 72,
      "start": 50.1685,
      "duration": 0.3722,
      "velocity": 107,
      "chip": "ym2612"
    },
    {
      "channel": 2,
      "note": 81,
      "start": 50.28,
      "duration": 0.2106,
      "velocity": 104,
      "chip": "ym2612"
    },
    {
      "channel": 1,
      "note": 46,
      "start": 50.2825,
      "duration": 0.0912,
      "velocity": 97,
      "chip": "ym2612"
    },
    {
      "channel": 4,
      "note": 45,
      "start": 50.4132,
      "duration": 0.0608,
      "velocity": 122,
      "chip": "ym2612"
    },
    {
      "channel": 1,
      "note": 53,
      "start": 50.416,
      "duration": 0.1078,
      "velocity": 97,
      "chip": "ym2612"
    },
    {
      "channel": 4,
      "note": 45,
      "start": 50.544,
      "duration": 0.0967,
      "velocity": 122,
      "chip": "ym2612"
    },
    {
      "channel": 2,
      "note": 81,
      "start": 50.5478,
      "duration": 0.0111,
      "velocity": 121,
      "chip": "ym2612"
    },
    {
      "channel": 1,
      "note": 50,
      "start": 50.5507,
      "duration": 0.9565,
      "velocity": 97,
      "chip": "ym2612"
    },
    {
      "channel": 3,
      "note": 69,
      "start": 50.5543,
      "duration": 0.0862,
      "velocity": 106,
      "chip": "ym2612"
    },
    {
      "channel": 0,
      "note": 57,
      "start": 50.5571,
      "duration": 0.0667,
      "velocity": 107,
      "chip": "ym2612"
    },
    {
      "channel": 2,
      "note": 81,
      "start": 50.6765,
      "duration": 0.0141,
      "velocity": 121,
      "chip": "ym2612"
    },
    {
      "channel": 3,
      "note": 70,
      "start": 50.6795,
      "duration": 0.0945,
      "velocity": 106,
      "chip": "ym2612"
    },
    {
      "channel": 0,
      "note": 58,
      "start": 50.6821,
      "duration": 0.0917,
      "velocity": 107,
      "chip": "ym2612"
    },
    {
      "channel": 4,
      "note": 45,
      "start": 50.7958,
      "duration": 0.1115,
      "velocity": 122,
      "chip": "ym2612"
    },
    {
      "channel": 2,
      "note": 81,
      "start": 50.7982,
      "duration": 0.0258,
      "velocity": 121,
      "chip": "ym2612"
    },
    {
      "channel": 3,
      "note": 72,
      "start": 50.8012,
      "duration": 0.0727,
      "velocity": 106,
      "chip": "ym2612"
    },
    {
      "channel": 0,
      "note": 60,
      "start": 50.8042,
      "duration": 0.1196,
      "velocity": 107,
      "chip": "ym2612"
    },
    {
      "channel": 4,
      "note": 55,
      "start": 50.9298,
      "duration": 0.0943,
      "velocity": 125,
      "chip": "ym2612"
    },
    {
      "channel": 2,
      "note": 81,
      "start": 50.9321,
      "duration": 0.0086,
      "velocity": 121,
      "chip": "ym2612"
    },
    {
      "channel": 3,
      "note": 74,
      "start": 50.9351,
      "duration": 0.0722,
      "velocity": 106,
      "chip": "ym2612"
    },
    {
      "channel": 0,
      "note": 62,
      "start": 50.9377,
      "duration": 0.0861,
      "velocity": 107,
      "chip": "ym2612"
    },
    {
      "channel": 2,
      "note": 81,
      "start": 51.0599,
      "duration": 0.0141,
      "velocity": 121,
      "chip": "ym2612"
    },
    {
      "channel": 3,
      "note": 75,
      "start": 51.0635,
      "duration": 0.0604,
      "velocity": 106,
      "chip": "ym2612"
    },
    {
      "channel": 0,
      "note": 64,
      "start": 51.0659,
      "duration": 0.0912,
      "velocity": 107,
      "chip": "ym2612"
    },
    {
      "channel": 3,
      "note": 77,
      "start": 51.161,
      "duration": 0.0795,
      "velocity": 106,
      "chip": "ym2612"
    },
    {
      "channel": 2,
      "note": 81,
      "start": 51.1768,
      "duration": 0.0305,
      "velocity": 121,
      "chip": "ym2612"
    },
    {
      "channel": 0,
      "note": 65,
      "start": 51.1798,
      "duration": 0.1106,
      "velocity": 107,
      "chip": "ym2612"
    },
    {
      "channel": 2,
      "note": 81,
      "start": 51.2766,
      "duration": 0.0141,
      "velocity": 121,
      "chip": "ym2612"
    },
    {
      "channel": 3,
      "note": 79,
      "start": 51.2942,
      "duration": 0.0797,
      "velocity": 106,
      "chip": "ym2612"
    },
    {
      "channel": 0,
      "note": 67,
      "start": 51.2968,
      "duration": 0.0936,
      "velocity": 107,
      "chip": "ym2612"
    },
    {
      "channel": 2,
      "note": 81,
      "start": 51.3599,
      "duration": 0.0143,
      "velocity": 121,
      "chip": "ym2612"
    },
    {
      "channel": 4,
      "note": 45,
      "start": 51.4466,
      "duration": 0.0608,
      "velocity": 122,
      "chip": "ym2612"
    },
    {
      "channel": 2,
      "note": 81,
      "start": 51.4508,
      "duration": 0.1232,
      "velocity": 104,
      "chip": "ym2612"
    },
    {
      "channel": 3,
      "note": 81,
      "start": 51.454,
      "duration": 0.0532,
      "velocity": 106,
      "chip": "ym2612"
    },
    {
      "channel": 0,
      "note": 67,
      "start": 51.4566,
      "duration": 0.0839,
      "velocity": 107,
      "chip": "ym2612"
    },
    {
      "channel": 5,
      "note": 72,
      "start": 51.4595,
      "duration": 0.0645,
      "velocity": 107,
      "chip": "ym2612"
    },
    {
      "channel": 4,
      "note": 45,
      "start": 51.5772,
      "duration": 0.0968,
      "velocity": 122,
      "chip": "ym2612"
    },
    {
      "channel": 2,
      "note": 81,
      "start": 51.581,
      "duration": 0.0109,
      "velocity": 121,
      "chip": "ym2612"
    },
    {
      "channel": 1,
      "note": 50,
      "start": 51.5842,
      "duration": 0.1063,
      "velocity": 97,
      "chip": "ym2612"
    },
    {
      "channel": 3,
      "note": 77,
      "start": 51.587,
      "duration": 0.0368,
      "velocity": 106,
      "chip": "ym2612"
    },
    {
      "channel": 0,
      "note": 58,
      "start": 51.5902,
      "duration": 0.1003,
      "velocity": 107,
      "chip": "ym2612"
    },
    {
      "channel": 2,
      "note": 81,
      "start": 51.6935,
      "duration": 0.0306,
      "velocity": 121,
      "chip": "ym2612"
    },
    {
      "channel": 1,
      "note": 51,
      "start": 51.6962,
      "duration": 0.0776,
      "velocity": 97,
      "chip": "ym2612"
    },
    {
      "channel": 3,
      "note": 74,
      "start": 51.6991,
      "duration": 0.0748,
      "velocity": 106,
      "chip": "ym2612"
    },
    {
      "channel": 4,
      "note": 45,
      "start": 51.8291,
      "duration": 0.0947,
      "velocity": 122,
      "chip": "ym2612"
    },
    {
      "channel": 2,
      "note": 81,
      "start": 51.8334,
      "duration": 0.0907,
      "velocity": 104,
      "chip": "ym2612"
    },
    {
      "channel": 1,
      "note": 53,
      "start": 51.836,
      "duration": 0.1212,
      "velocity": 97,
      "chip": "ym2612"
    },
    {
      "channel": 3,
      "note": 79,
      "start": 51.8388,
      "duration": 0.0683,
      "velocity": 106,
      "chip": "ym2612"
    },
    {
      "channel": 0,
      "note": 58,
      "start": 51.8413,
      "duration": 0.1159,
      "velocity": 107,
      "chip": "ym2612"
    },
    {
      "channel": 4,
      "note": 55,
      "start": 51.9633,
      "duration": 0.1439,
      "velocity": 125,
      "chip": "ym2612"
    },
    {
      "channel": 2,
      "note": 81,
      "start": 51.9671,
      "duration": 0.0076,
      "velocity": 121,
      "chip": "ym2612"
    },
    {
      "channel": 1,
      "note": 55,
      "start": 51.9698,
      "duration": 0.0873,
      "velocity": 97,
      "chip": "ym2612"
    },
    {
      "channel": 3,
      "note": 75,
      "start": 51.9728,
      "duration": 0.0845,
      "velocity": 106,
      "chip": "ym2612"
    },
    {
      "channel": 2,
      "note": 81,
      "start": 52.0797,
      "duration": 0.111,
      "velocity": 104,
      "chip": "ym2612"
    },
    {
      "channel": 1,
      "note": 46,
      "start": 52.0823,
      "duration": 0.0915,
      "velocity": 97,
      "chip": "ym2612"
    },
    {
      "channel": 3,
      "note": 70,
      "start": 52.0856,
      "duration": 0.0883,
      "velocity": 106,
      "chip": "ym2612"
    },
    {
      "channel": 0,
      "note": 58,
      "start": 52.0884,
      "duration": 0.102,
      "velocity": 107,
      "chip": "ym2612"
    },
    {
      "channel": 2,
      "note": 81,
      "start": 52.2134,
      "duration": 0.0125,
      "velocity": 121,
      "chip": "ym2612"
    },
    {
      "channel": 1,
      "note": 51,
      "start": 52.2161,
      "duration": 0.0578,
      "velocity": 97,
      "chip": "ym2612"
    },
    {
      "channel": 3,
      "note": 77,
      "start": 52.2188,
      "duration": 0.0717,
      "velocity": 106,
      "chip": "ym2612"
    },
    {
      "channel": 0,
      "note": 63,
      "start": 52.2215,
      "duration": 0.1023,
      "velocity": 107,
      "chip": "ym2612"
    },
    {
      "channel": 5,
      "note": 70,
      "start": 52.2241,
      "duration": 0.0999,
      "velocity": 107,
      "chip": "ym2612"
    },
    {
      "channel": 2,
      "note": 81,
      "start": 52.3432,
      "duration": 0.0141,
      "velocity": 121,
      "chip": "ym2612"
    },
    {
      "channel": 1,
      "note": 50,
      "start": 52.3457,
      "duration": 0.0615,
      "velocity": 97,
      "chip": "ym2612"
    },
    {
      "channel": 3,
      "note": 67,
      "start": 52.3485,
      "duration": 0.0754,
      "velocity": 106,
      "chip": "ym2612"
    },
    {
      "channel": 0,
      "note": 58,
      "start": 52.3509,
      "duration": 0.0895,
      "velocity": 107,
      "chip": "ym2612"
    },
    {
      "channel": 4,
      "note": 45,
      "start": 52.4799,
      "duration": 0.044,
      "velocity": 122,
      "chip": "ym2612"
    },
    {
      "channel": 2,
      "note": 81,
      "start": 52.4823,
      "duration": 0.0099,
      "velocity": 121,
      "chip": "ym2612"
    },
    {
      "channel": 1,
      "note": 53,
      "start": 52.4849,
      "duration": 0.1055,
      "velocity": 97,
      "chip": "ym2612"
    },
    {
      "channel": 3,
      "note": 63,
      "start": 52.4879,
      "duration": 0.086,
      "velocity": 106,
      "chip": "ym2612"
    },
    {
      "channel": 0,
      "note": 62,
      "start": 52.4903,
      "duration": 0.0834,
      "velocity": 107,
      "chip": "ym2612"
    },
    {
      "channel": 4,
      "note": 45,
      "start": 52.5938,
      "duration": 0.1134,
      "velocity": 122,
      "chip": "ym2612"
    },
    {
      "channel": 2,
      "note": 81,
      "start": 52.5962,
      "duration": 0.0278,
      "velocity": 121,
      "chip": "ym2612"
    },
    {
      "channel": 1,
      "note": 46,
      "start": 52.5994,
      "duration": 0.1911,
      "velocity": 97,
      "chip": "ym2612"
    },
    {
      "channel": 3,
      "note": 72,
      "start": 52.6026,
      "duration": 0.3547,
      "velocity": 106,
      "chip": "ym2612"
    },
    {
      "channel": 0,
      "note": 55,
      "start": 52.6053,
      "duration": 0.1851,
      "velocity": 107,
      "chip": "ym2612"
    },
    {
      "channel": 2,
      "note": 81,
      "start": 52.7296,
      "duration": 0.4612,
      "velocity": 104,
      "chip": "ym2612"
    },
    {
      "channel": 4,
      "note": 45,
      "start": 52.8625,
      "duration": 0.0949,
      "velocity": 122,
      "chip": "ym2612"
    },
    {
      "channel": 1,
      "note": 51,
      "start": 52.8655,
      "duration": 0.1416,
      "velocity": 97,
      "chip": "ym2612"
    },
    {
      "channel": 0,
      "note": 60,
      "start": 52.869,
      "duration": 0.0881,
      "velocity": 107,
      "chip": "ym2612"
    },
    {
      "channel": 4,
      "note": 55,
      "start": 52.98,
      "duration": 0.1772,
      "velocity": 125,
      "chip": "ym2612"
    },
    {
      "channel": 5,
      "note": 45,
      "start": 52.9832,
      "duration": 0.2575,
      "velocity": 97,
      "chip": "ym2612"
    },
    {
      "channel": 3,
      "note": 70,
      "start": 52.9861,
      "duration": 0.3545,
      "velocity": 106,
      "chip": "ym2612"
    },
    {
      "channel": 0,
      "note": 51,
      "start": 52.9895,
      "duration": 0.201,
      "velocity": 107,
      "chip": "ym2612"
    },
    {
      "channel": 0,
      "note": 58,
      "start": 53.1944,
      "duration": 0.1127,
      "velocity": 107,
      "chip": "ym2612"
    },
    {
      "channel": 2,
      "note": 81,
      "start": 53.2466,
      "duration": 0.0106,
      "velocity": 121,
      "chip": "ym2612"
    },
    {
      "channel": 1,
      "note": 51,
      "start": 53.2495,
      "duration": 0.1243,
      "velocity": 97,
      "chip": "ym2612"
    },
    {
      "channel": 2,
      "note": 81,
      "start": 53.3267,
      "duration": 0.0141,
      "velocity": 121,
      "chip": "ym2612"
    },
    {
      "channel": 3,
      "note": 72,
      "start": 53.3458,
      "duration": 0.1281,
      "velocity": 106,
      "chip": "ym2612"
    },
    {
      "channel": 1,
      "note": 50,
      "start": 53.3771,
      "duration": 0.1134,
      "velocity": 97,
      "chip": "ym2612"
    },
    {
      "channel": 0,
      "note": 57,
      "start": 53.3802,
      "duration": 0.2269,
      "velocity": 107,
      "chip": "ym2612"
    },
    {
      "channel": 4,
      "note": 50,
      "start": 53.383,
      "duration": 0.2244,
      "velocity": 107,
      "chip": "ym2612"
    },
    {
      "channel": 2,
      "note": 81,
      "start": 53.4099,
      "duration": 0.0141,
      "velocity": 121,
      "chip": "ym2612"
    },
    {
      "channel": 5,
      "note": 70,
      "start": 53.4133,
      "duration": 0.1107,
      "velocity": 106,
      "chip": "ym2612"
    },
    {
      "channel": 2,
      "note": 45,
      "start": 53.4967,
      "duration": 0.002,
      "velocity": 122,
      "chip": "ym2612"
    },
    {
      "channel": 2,
      "note": 81,
      "start": 53.5006,
      "duration": 0.0735,
      "velocity": 104,
      "chip": "ym2612"
    },
    {
      "channel": 3,
      "note": 69,
      "start": 53.5061,
      "duration": 0.5845,
      "velocity": 106,
      "chip": "ym2612"
    },
    {
      "channel": 1,
      "note": 45,
      "start": 53.6293,
      "duration": 0.0778,
      "velocity": 122,
      "chip": "ym2612"
    },
    {
      "channel": 2,
      "note": 81,
      "start": 53.6335,
      "duration": 0.014,
      "velocity": 121,
      "chip": "ym2612"
    },
    {
      "channel": 5,
      "note": 50,
      "start": 53.6364,
      "duration": 0.1209,
      "velocity": 97,
      "chip": "ym2612"
    },
    {
      "channel": 0,
      "note": 62,
      "start": 53.6395,
      "duration": 0.0843,
      "velocity": 107,
      "chip": "ym2612"
    },
    {
      "channel": 4,
      "note": 57,
      "start": 53.6458,
      "duration": 0.0782,
      "velocity": 107,
      "chip": "ym2612"
    },
    {
      "channel": 2,
      "note": 81,
      "start": 53.7601,
      "duration": 0.0139,
      "velocity": 121,
      "chip": "ym2612"
    },
    {
      "channel": 5,
      "note": 51,
      "start": 53.7631,
      "duration": 0.1109,
      "velocity": 97,
      "chip": "ym2612"
    },
    {
      "channel": 1,
      "note": 45,
      "start": 53.8771,
      "duration": 0.1135,
      "velocity": 122,
      "chip": "ym2612"
    },
    {
      "channel": 2,
      "note": 81,
      "start": 53.8795,
      "duration": 0.0279,
      "velocity": 121,
      "chip": "ym2612"
    },
    {
      "channel": 5,
      "note": 53,
      "start": 53.8823,
      "duration": 0.1417,
      "velocity": 97,
      "chip": "ym2612"
    },
    {
      "channel": 0,
      "note": 62,
      "start": 53.8852,
      "duration": 0.1052,
      "velocity": 107,
      "chip": "ym2612"
    },
    {
      "channel": 4,
      "note": 57,
      "start": 53.8878,
      "duration": 0.1029,
      "velocity": 107,
      "chip": "ym2612"
    },
    {
      "channel": 1,
      "note": 55,
      "start": 54.0132,
      "duration": 0.1606,
      "velocity": 125,
      "chip": "ym2612"
    },
    {
      "channel": 2,
      "note": 81,
      "start": 54.0155,
      "duration": 0.0086,
      "velocity": 121,
      "chip": "ym2612"
    },
    {
      "channel": 0,
      "note": 55,
      "start": 54.0185,
      "duration": 0.1054,
      "velocity": 97,
      "chip": "ym2612"
    },
    {
      "channel": 2,
      "note": 81,
      "start": 54.1433,
      "duration": 0.0141,
      "velocity": 121,
      "chip": "ym2612"
    },
    {
      "channel": 0,
      "note": 48,
      "start": 54.1459,
      "duration": 0.1445,
      "velocity": 97,
      "chip": "ym2612"
    },
    {
      "channel": 3,
      "note": 70,
      "start": 54.1489,
      "duration": 0.5417,
      "velocity": 106,
      "chip": "ym2612"
    },
    {
      "channel": 4,
      "note": 63,
      "start": 54.1518,
      "duration": 0.0721,
      "velocity": 107,
      "chip": "ym2612"
    },
    {
      "channel": 5,
      "note": 55,
      "start": 54.1545,
      "duration": 0.0695,
      "velocity": 107,
      "chip": "ym2612"
    },
    {
      "channel": 2,
      "note": 81,
      "start": 54.2797,
      "duration": 0.0944,
      "velocity": 104,
      "chip": "ym2612"
    },
    {
      "channel": 1,
      "note": 51,
      "start": 54.2825,
      "duration": 0.0746,
      "velocity": 97,
      "chip": "ym2612"
    },
    {
      "channel": 2,
      "note": 81,
      "start": 54.3966,
      "duration": 0.0274,
      "velocity": 121,
      "chip": "ym2612"
    },
    {
      "channel": 0,
      "note": 46,
      "start": 54.3991,
      "duration": 0.0913,
      "velocity": 97,
      "chip": "ym2612"
    },
    {
      "channel": 4,
      "note": 63,
      "start": 54.4022,
      "duration": 0.0884,
      "velocity": 107,
      "chip": "ym2612"
    },
    {
      "channel": 5,
      "note": 55,
      "start": 54.4049,
      "duration": 0.0859,
      "velocity": 107,
      "chip": "ym2612"
    },
    {
      "channel": 1,
      "note": 45,
      "start": 54.53,
      "duration": 0.0604,
      "velocity": 122,
      "chip": "ym2612"
    },
    {
      "channel": 2,
      "note": 81,
      "start": 54.5324,
      "duration": 0.0083,
      "velocity": 121,
      "chip": "ym2612"
    },
    {
      "channel": 0,
      "note": 53,
      "start": 54.535,
      "duration": 0.1054,
      "velocity": 97,
      "chip": "ym2612"
    },
    {
      "channel": 1,
      "note": 45,
      "start": 54.6626,
      "duration": 0.0945,
      "velocity": 122,
      "chip": "ym2612"
    },
    {
      "channel": 2,
      "note": 81,
      "start": 54.665,
      "duration": 0.0109,
      "velocity": 121,
      "chip": "ym2612"
    },
    {
      "channel": 0,
      "note": 48,
      "start": 54.6678,
      "duration": 0.9559,
      "velocity": 97,
      "chip": "ym2612"
    },
    {
      "channel": 4,
      "note": 63,
      "start": 54.6714,
      "duration": 0.0525,
      "velocity": 107,
      "chip": "ym2612"
    },
    {
      "channel": 5,
      "note": 55,
      "start": 54.6741,
      "duration": 0.05,
      "velocity": 107,
      "chip": "ym2612"
    },
    {
      "channel": 2,
      "note": 81,
      "start": 54.7933,
      "duration": 0.0141,
      "velocity": 121,
      "chip": "ym2612"
    },
    {
      "channel": 3,
      "note": 72,
      "start": 54.7965,
      "duration": 0.7107,
      "velocity": 106,
      "chip": "ym2612"
    },
    {
      "channel": 4,
      "note": 67,
      "start": 54.7993,
      "duration": 0.0746,
      "velocity": 107,
      "chip": "ym2612"
    },
    {
      "channel": 1,
      "note": 45,
      "start": 54.9101,
      "duration": 0.1136,
      "velocity": 122,
      "chip": "ym2612"
    },
    {
      "channel": 2,
      "note": 81,
      "start": 54.9125,
      "duration": 0.0282,
      "velocity": 121,
      "chip": "ym2612"
    },
    {
      "channel": 4,
      "note": 63,
      "start": 54.9159,
      "duration": 0.1081,
      "velocity": 107,
      "chip": "ym2612"
    },
    {
      "channel": 1,
      "note": 55,
      "start": 55.0465,
      "duration": 0.144,
      "velocity": 125,
      "chip": "ym2612"
    },
    {
      "channel": 2,
      "note": 81,
      "start": 55.0489,
      "duration": 0.0085,
      "velocity": 121,
      "chip": "ym2612"
    },
    {
      "channel": 2,
      "note": 81,
      "start": 55.1797,
      "duration": 0.111,
      "velocity": 104,
      "chip": "ym2612"
    },
    {
      "channel": 4,
      "note": 63,
      "start": 55.183,
      "duration": 0.0576,
      "velocity": 107,
      "chip": "ym2612"
    },
    {
      "channel": 2,
      "note": 81,
      "start": 55.2966,
      "duration": 0.0273,
      "velocity": 121,
      "chip": "ym2612"
    },
    {
      "channel": 4,
      "note": 67,
      "start": 55.2999,
      "duration": 0.1074,
      "velocity": 107,
      "chip": "ym2612"
    },
    {
      "channel": 2,
      "note": 81,
      "start": 55.3933,
      "duration": 0.0142,
      "velocity": 121,
      "chip": "ym2612"
    },
    {
      "channel": 5,
      "note": 96,
      "start": 55.397,
      "duration": 0.0436,
      "velocity": 99,
      "chip": "ym2612"
    },
    {
      "channel": 4,
      "note": 63,
      "start": 55.4276,
      "duration": 0.063,
      "velocity": 107,
      "chip": "ym2612"
    },
    {
      "channel": 5,
      "note": 92,
      "start": 55.4443,
      "duration": 0.0631,
      "velocity": 99,
      "chip": "ym2612"
    },
    {
      "channel": 2,
      "note": 81,
      "start": 55.4768,
      "duration": 0.0139,
      "velocity": 121,
      "chip": "ym2612"
    },
    {
      "channel": 1,
      "note": 103,
      "start": 55.4963,
      "duration": 0.0609,
      "velocity": 99,
      "chip": "ym2612"
    },
    {
      "channel": 2,
      "note": 81,
      "start": 55.5437,
      "duration": 0.0373,
      "velocity": 121,
      "chip": "ym2612"
    },
    {
      "channel": 4,
      "note": 45,
      "start": 55.5638,
      "duration": 0.0602,
      "velocity": 122,
      "chip": "ym2612"
    },
    {
      "channel": 5,
      "note": 77,
      "start": 55.5671,
      "duration": 0.1402,
      "velocity": 99,
      "chip": "ym2612"
    },
    {
      "channel": 1,
      "note": 99,
      "start": 55.5702,
      "duration": 0.0071,
      "velocity": 99,
      "chip": "ym2612"
    },
    {
      "channel": 3,
      "note": 77,
      "start": 55.5732,
      "duration": 1.9506,
      "velocity": 106,
      "chip": "ym2612"
    },
    {
      "channel": 1,
      "note": 67,
      "start": 55.5792,
      "duration": 0.0779,
      "velocity": 107,
      "chip": "ym2612"
    },
    {
      "channel": 2,
      "note": 84,
      "start": 55.6446,
      "duration": 0.0499,
      "velocity": 99,
      "chip": "ym2612"
    },
    {
      "channel": 4,
      "note": 45,
      "start": 55.6937,
      "duration": 0.0803,
      "velocity": 122,
      "chip": "ym2612"
    },
    {
      "channel": 2,
      "note": 81,
      "start": 55.6964,
      "duration": 0.011,
      "velocity": 121,
      "chip": "ym2612"
    },
    {
      "channel": 0,
      "note": 50,
      "start": 55.6996,
      "duration": 0.1076,
      "velocity": 97,
      "chip": "ym2612"
    },
    {
      "channel": 1,
      "note": 60,
      "start": 55.7034,
      "duration": 0.0704,
      "velocity": 107,
      "chip": "ym2612"
    },
    {
      "channel": 5,
      "note": 103,
      "start": 55.7112,
      "duration": 0.1294,
      "velocity": 99,
      "chip": "ym2612"
    },
    {
      "channel": 2,
      "note": 110,
      "start": 55.7946,
      "duration": 0.0136,
      "velocity": 99,
      "chip": "ym2612"
    },
    {
      "channel": 2,
      "note": 81,
      "start": 55.8101,
      "duration": 0.0305,
      "velocity": 121,
      "chip": "ym2612"
    },
    {
      "channel": 0,
      "note": 51,
      "start": 55.8127,
      "duration": 0.0777,
      "velocity": 97,
      "chip": "ym2612"
    },
    {
      "channel": 5,
      "note": 95,
      "start": 55.8776,
      "duration": 0.0797,
      "velocity": 99,
      "chip": "ym2612"
    },
    {
      "channel": 4,
      "note": 45,
      "start": 55.9436,
      "duration": 0.0804,
      "velocity": 122,
      "chip": "ym2612"
    },
    {
      "channel": 2,
      "note": 81,
      "start": 55.9478,
      "duration": 0.0929,
      "velocity": 104,
      "chip": "ym2612"
    },
    {
      "channel": 0,
      "note": 53,
      "start": 55.9504,
      "duration": 0.1234,
      "velocity": 97,
      "chip": "ym2612"
    },
    {
      "channel": 1,
      "note": 60,
      "start": 55.9533,
      "duration": 0.0705,
      "velocity": 107,
      "chip": "ym2612"
    },
    {
      "channel": 5,
      "note": 102,
      "start": 55.9613,
      "duration": 0.0326,
      "velocity": 99,
      "chip": "ym2612"
    },
    {
      "channel": 5,
      "note": 99,
      "start": 55.9961,
      "duration": 0.0945,
      "velocity": 99,
      "chip": "ym2612"
    },
    {
      "channel": 4,
      "note": 55,
      "start": 56.08,
      "duration": 0.1774,
      "velocity": 125,
      "chip": "ym2612"
    },
    {
      "channel": 2,
      "note": 81,
      "start": 56.0838,
      "duration": 0.0069,
      "velocity": 121,
      "chip": "ym2612"
    },
    {
      "channel": 0,
      "note": 55,
      "start": 56.0865,
      "duration": 0.0873,
      "velocity": 97,
      "chip": "ym2612"
    },
    {
      "channel": 1,
      "note": 106,
      "start": 56.0961,
      "duration": 0.0944,
      "velocity": 99,
      "chip": "ym2612"
    },
    {
      "channel": 5,
      "note": 99,
      "start": 56.1106,
      "duration": 0.1134,
      "velocity": 99,
      "chip": "ym2612"
    },
    {
      "channel": 2,
      "note": 81,
      "start": 56.1933,
      "duration": 0.0308,
      "velocity": 121,
      "chip": "ym2612"
    },
    {
      "channel": 0,
      "note": 46,
      "start": 56.196,
      "duration": 0.0944,
      "velocity": 97,
      "chip": "ym2612"
    },
    {
      "channel": 1,
      "note": 106,
      "start": 56.199,
      "duration": 0.001,
      "velocity": 99,
      "chip": "ym2612"
    },
    {
      "channel": 1,
      "note": 60,
      "start": 56.202,
      "duration": 0.0552,
      "velocity": 107,
      "chip": "ym2612"
    },
    {
      "channel": 5,
      "note": 99,
      "start": 56.2441,
      "duration": 0.0965,
      "velocity": 99,
      "chip": "ym2612"
    },
    {
      "channel": 2,
      "note": 81,
      "start": 56.3297,
      "duration": 0.111,
      "velocity": 104,
      "chip": "ym2612"
    },
    {
      "channel": 0,
      "note": 51,
      "start": 56.3323,
      "duration": 0.0581,
      "velocity": 97,
      "chip": "ym2612"
    },
    {
      "channel": 1,
      "note": 106,
      "start": 56.3355,
      "duration": 0.1049,
      "velocity": 99,
      "chip": "ym2612"
    },
    {
      "channel": 5,
      "note": 106,
      "start": 56.3944,
      "duration": 0.0798,
      "velocity": 99,
      "chip": "ym2612"
    },
    {
      "channel": 2,
      "note": 81,
      "start": 56.4635,
      "duration": 0.0109,
      "velocity": 121,
      "chip": "ym2612"
    },
    {
      "channel": 0,
      "note": 50,
      "start": 56.466,
      "duration": 0.0578,
      "velocity": 97,
      "chip": "ym2612"
    },
    {
      "channel": 4,
      "note": 96,
      "start": 56.4692,
      "duration": 0.088,
      "velocity": 99,
      "chip": "ym2612"
    },
    {
      "channel": 1,
      "note": 60,
      "start": 56.4725,
      "duration": 0.018,
      "velocity": 107,
      "chip": "ym2612"
    },
    {
      "channel": 5,
      "note": 113,
      "start": 56.4781,
      "duration": 0.1124,
      "velocity": 99,
      "chip": "ym2612"
    },
    {
      "channel": 2,
      "note": 95,
      "start": 56.5444,
      "duration": 0.0532,
      "velocity": 99,
      "chip": "ym2612"
    },
    {
      "channel": 1,
      "note": 103,
      "start": 56.5475,
      "duration": 0.0931,
      "velocity": 99,
      "chip": "ym2612"
    },
    {
      "channel": 0,
      "note": 45,
      "start": 56.597,
      "duration": 0.0434,
      "velocity": 122,
      "chip": "ym2612"
    },
    {
      "channel": 2,
      "note": 81,
      "start": 56.5994,
      "duration": 0.0116,
      "velocity": 121,
      "chip": "ym2612"
    },
    {
      "channel": 4,
      "note": 53,
      "start": 56.6023,
      "duration": 0.1049,
      "velocity": 97,
      "chip": "ym2612"
    },
    {
      "channel": 5,
      "note": 67,
      "start": 56.608,
      "duration": 0.0826,
      "velocity": 107,
      "chip": "ym2612"
    },
    {
      "channel": 2,
      "note": 102,
      "start": 56.6278,
      "duration": 0.0843,
      "velocity": 99,
      "chip": "ym2612"
    },
    {
      "channel": 0,
      "note": 45,
      "start": 56.7102,
      "duration": 0.0802,
      "velocity": 122,
      "chip": "ym2612"
    },
    {
      "channel": 2,
      "note": 81,
      "start": 56.7141,
      "duration": 0.4432,
      "velocity": 104,
      "chip": "ym2612"
    },
    {
      "channel": 4,
      "note": 46,
      "start": 56.7174,
      "duration": 0.1899,
      "velocity": 97,
      "chip": "ym2612"
    },
    {
      "channel": 1,
      "note": 104,
      "start": 56.7206,
      "duration": 0.1199,
      "velocity": 99,
      "chip": "ym2612"
    },
    {
      "channel": 5,
      "note": 60,
      "start": 56.7246,
      "duration": 0.216,
      "velocity": 107,
      "chip": "ym2612"
    },
    {
      "channel": 0,
      "note": 111,
      "start": 56.7946,
      "duration": 0.0328,
      "velocity": 99,
      "chip": "ym2612"
    },
    {
      "channel": 0,
      "note": 91,
      "start": 56.8296,
      "duration": 0.1442,
      "velocity": 99,
      "chip": "ym2612"
    },
    {
      "channel": 1,
      "note": 55,
      "start": 56.8467,
      "duration": 0.0937,
      "velocity": 125,
      "chip": "ym2612"
    },
    {
      "channel": 4,
      "note": 98,
      "start": 56.9294,
      "duration": 0.058,
      "velocity": 99,
      "chip": "ym2612"
    },
    {
      "channel": 1,
      "note": 45,
      "start": 56.9798,
      "duration": 0.0774,
      "velocity": 122,
      "chip": "ym2612"
    },
    {
      "channel": 5,
      "note": 51,
      "start": 56.983,
      "duration": 0.141,
      "velocity": 97,
      "chip": "ym2612"
    },
    {
      "channel": 0,
      "note": 93,
      "start": 56.9858,
      "duration": 0.1162,
      "velocity": 99,
      "chip": "ym2612"
    },
    {
      "channel": 4,
      "note": 67,
      "start": 56.9894,
      "duration": 0.068,
      "velocity": 107,
      "chip": "ym2612"
    },
    {
      "channel": 1,
      "note": 100,
      "start": 57.0778,
      "duration": 0.0208,
      "velocity": 99,
      "chip": "ym2612"
    },
    {
      "channel": 4,
      "note": 55,
      "start": 57.0974,
      "duration": 0.1265,
      "velocity": 125,
      "chip": "ym2612"
    },
    {
      "channel": 1,
      "note": 45,
      "start": 57.1006,
      "duration": 0.2565,
      "velocity": 97,
      "chip": "ym2612"
    },
    {
      "channel": 0,
      "note": 58,
      "start": 57.1039,
      "duration": 0.2032,
      "velocity": 107,
      "chip": "ym2612"
    },
    {
      "channel": 5,
      "note": 102,
      "start": 57.1612,
      "duration": 0.1295,
      "velocity": 99,
      "chip": "ym2612"
    },
    {
      "channel": 2,
      "note": 81,
      "start": 57.23,
      "duration": 0.0107,
      "velocity": 121,
      "chip": "ym2612"
    },
    {
      "channel": 4,
      "note": 109,
      "start": 57.2448,
      "duration": 0.2624,
      "velocity": 99,
      "chip": "ym2612"
    },
    {
      "channel": 5,
      "note": 87,
      "start": 57.3108,
      "duration": 0.1298,
      "velocity": 99,
      "chip": "ym2612"
    },
    {
      "channel": 2,
      "note": 81,
      "start": 57.3601,
      "duration": 0.0139,
      "velocity": 121,
      "chip": "ym2612"
    },
    {
      "channel": 1,
      "note": 51,
      "start": 57.363,
      "duration": 0.1275,
      "velocity": 97,
      "chip": "ym2612"
    },
    {
      "channel": 0,
      "note": 67,
      "start": 57.3661,
      "duration": 0.0576,
      "velocity": 107,
      "chip": "ym2612"
    },
    {
      "channel": 2,
      "note": 81,
      "start": 57.4433,
      "duration": 0.0141,
      "velocity": 121,
      "chip": "ym2612"
    },
    {
      "channel": 5,
      "note": 97,
      "start": 57.461,
      "duration": 0.113,
      "velocity": 99,
      "chip": "ym2612"
    },
    {
      "channel": 1,
      "note": 50,
      "start": 57.4938,
      "duration": 0.1134,
      "velocity": 97,
      "chip": "ym2612"
    },
    {
      "channel": 0,
      "note": 57,
      "start": 57.4967,
      "duration": 0.1104,
      "velocity": 107,
      "chip": "ym2612"
    },
    {
      "channel": 2,
      "note": 81,
      "start": 57.5267,
      "duration": 0.0141,
      "velocity": 121,
      "chip": "ym2612"
    },
    {
      "channel": 4,
      "note": 45,
      "start": 57.6142,
      "duration": 0.0763,
      "velocity": 122,
      "chip": "ym2612"
    },
    {
      "channel": 2,
      "note": 81,
      "start": 57.618,
      "duration": 0.0227,
      "velocity": 121,
      "chip": "ym2612"
    },
    {
      "channel": 5,
      "note": 81,
      "start": 57.6215,
      "duration": 0.0526,
      "velocity": 99,
      "chip": "ym2612"
    },
    {
      "channel": 3,
      "note": 74,
      "start": 57.6261,
      "duration": 1.9978,
      "velocity": 106,
      "chip": "ym2612"
    },
    {
      "channel": 0,
      "note": 74,
      "start": 57.6287,
      "duration": 0.1117,
      "velocity": 107,
      "chip": "ym2612"
    },
    {
      "channel": 1,
      "note": 69,
      "start": 57.6314,
      "duration": 0.1091,
      "velocity": 107,
      "chip": "ym2612"
    },
    {
      "channel": 4,
      "note": 45,
      "start": 57.7465,
      "duration": 0.094,
      "velocity": 122,
      "chip": "ym2612"
    },
    {
      "channel": 2,
      "note": 81,
      "start": 57.7489,
      "duration": 0.0109,
      "velocity": 121,
      "chip": "ym2612"
    },
    {
      "channel": 5,
      "note": 50,
      "start": 57.752,
      "duration": 0.0721,
      "velocity": 97,
      "chip": "ym2612"
    },
    {
      "channel": 0,
      "note": 50,
      "start": 57.7555,
      "duration": 0.0683,
      "velocity": 107,
      "chip": "ym2612"
    },
    {
      "channel": 1,
      "note": 57,
      "start": 57.758,
      "duration": 0.0659,
      "velocity": 107,
      "chip": "ym2612"
    },
    {
      "channel": 2,
      "note": 81,
      "start": 57.8766,
      "duration": 0.0141,
      "velocity": 121,
      "chip": "ym2612"
    },
    {
      "channel": 5,
      "note": 51,
      "start": 57.8798,
      "duration": 0.0942,
      "velocity": 97,
      "chip": "ym2612"
    },
    {
      "channel": 4,
      "note": 45,
      "start": 57.9938,
      "duration": 0.1301,
      "velocity": 122,
      "chip": "ym2612"
    },
    {
      "channel": 2,
      "note": 81,
      "start": 57.9961,
      "duration": 0.0279,
      "velocity": 121,
      "chip": "ym2612"
    },
    {
      "channel": 5,
      "note": 53,
      "start": 57.9988,
      "duration": 0.1086,
      "velocity": 97,
      "chip": "ym2612"
    },
    {
      "channel": 0,
      "note": 50,
      "start": 58.0019,
      "duration": 0.1051,
      "velocity": 107,
      "chip": "ym2612"
    },
    {
      "channel": 1,
      "note": 57,
      "start": 58.0044,
      "duration": 0.1027,
      "velocity": 107,
      "chip": "ym2612"
    },
    {
      "channel": 4,
      "note": 55,
      "start": 58.1306,
      "duration": 0.16,
      "velocity": 125,
      "chip": "ym2612"
    },
    {
      "channel": 2,
      "note": 81,
      "start": 58.133,
      "duration": 0.0078,
      "velocity": 121,
      "chip": "ym2612"
    },
    {
      "channel": 5,
      "note": 55,
      "start": 58.1357,
      "duration": 0.1049,
      "velocity": 97,
      "chip": "ym2612"
    },
    {
      "channel": 2,
      "note": 81,
      "start": 58.2599,
      "duration": 0.0141,
      "velocity": 121,
      "chip": "ym2612"
    },
    {
      "channel": 5,
      "note": 48,
      "start": 58.2625,
      "duration": 0.0948,
      "velocity": 97,
      "chip": "ym2612"
    },
    {
      "channel": 0,
      "note": 50,
      "start": 58.2657,
      "duration": 0.0747,
      "velocity": 107,
      "chip": "ym2612"
    },
    {
      "channel": 1,
      "note": 57,
      "start": 58.2682,
      "duration": 0.0723,
      "velocity": 107,
      "chip": "ym2612"
    },
    {
      "channel": 2,
      "note": 81,
      "start": 58.3933,
      "duration": 0.014,
      "velocity": 121,
      "chip": "ym2612"
    },
    {
      "channel": 5,
      "note": 51,
      "start": 58.3962,
      "duration": 0.0777,
      "velocity": 97,
      "chip": "ym2612"
    },
    {
      "channel": 0,
      "note": 65,
      "start": 58.3993,
      "duration": 0.3579,
      "velocity": 107,
      "chip": "ym2612"
    },
    {
      "channel": 1,
      "note": 72,
      "start": 58.4023,
      "duration": 0.3715,
      "velocity": 107,
      "chip": "ym2612"
    },
    {
      "channel": 2,
      "note": 81,
      "start": 58.5133,
      "duration": 0.2107,
      "velocity": 104,
      "chip": "ym2612"
    },
    {
      "channel": 5,
      "note": 46,
      "start": 58.516,
      "duration": 0.0746,
      "velocity": 97,
      "chip": "ym2612"
    },
    {
      "channel": 4,
      "note": 45,
      "start": 58.6465,
      "duration": 0.0607,
      "velocity": 122,
      "chip": "ym2612"
    },
    {
      "channel": 5,
      "note": 53,
      "start": 58.6494,
      "duration": 0.108,
      "velocity": 97,
      "chip": "ym2612"
    },
    {
      "channel": 4,
      "note": 45,
      "start": 58.7771,
      "duration": 0.0968,
      "velocity": 122,
      "chip": "ym2612"
    },
    {
      "channel": 2,
      "note": 81,
      "start": 58.781,
      "duration": 0.0097,
      "velocity": 121,
      "chip": "ym2612"
    },
    {
      "channel": 5,
      "note": 50,
      "start": 58.784,
      "duration": 0.9567,
      "velocity": 97,
      "chip": "ym2612"
    },
    {
      "channel": 0,
      "note": 57,
      "start": 58.7871,
      "duration": 0.07,
      "velocity": 107,
      "chip": "ym2612"
    },
    {
      "channel": 2,
      "note": 81,
      "start": 58.91,
      "duration": 0.014,
      "velocity": 121,
      "chip": "ym2612"
    },
    {
      "channel": 0,
      "note": 58,
      "start": 58.9131,
      "duration": 0.0941,
      "velocity": 107,
      "chip": "ym2612"
    },
    {
      "channel": 4,
      "note": 45,
      "start": 59.0291,
      "duration": 0.1115,
      "velocity": 122,
      "chip": "ym2612"
    },
    {
      "channel": 2,
      "note": 81,
      "start": 59.0315,
      "duration": 0.0258,
      "velocity": 121,
      "chip": "ym2612"
    },
    {
      "channel": 0,
      "note": 60,
      "start": 59.0346,
      "duration": 0.1226,
      "velocity": 107,
      "chip": "ym2612"
    },
    {
      "channel": 4,
      "note": 55,
      "start": 59.1631,
      "duration": 0.0941,
      "velocity": 125,
      "chip": "ym2612"
    },
    {
      "channel": 2,
      "note": 81,
      "start": 59.1655,
      "duration": 0.0086,
      "velocity": 121,
      "chip": "ym2612"
    },
    {
      "channel": 0,
      "note": 62,
      "start": 59.1685,
      "duration": 0.0885,
      "velocity": 107,
      "chip": "ym2612"
    },
    {
      "channel": 2,
      "note": 81,
      "start": 59.2933,
      "duration": 0.014,
      "velocity": 121,
      "chip": "ym2612"
    },
    {
      "channel": 0,
      "note": 69,
      "start": 59.2964,
      "duration": 0.0941,
      "velocity": 107,
      "chip": "ym2612"
    },
    {
      "channel": 1,
      "note": 65,
      "start": 59.2989,
      "duration": 0.0917,
      "velocity": 107,
      "chip": "ym2612"
    },
    {
      "channel": 2,
      "note": 81,
      "start": 59.4101,
      "duration": 0.0306,
      "velocity": 121,
      "chip": "ym2612"
    },
    {
      "channel": 0,
      "note": 64,
      "start": 59.4135,
      "duration": 0.1102,
      "velocity": 107,
      "chip": "ym2612"
    },
    {
      "channel": 2,
      "note": 81,
      "start": 59.51,
      "duration": 0.0141,
      "velocity": 121,
      "chip": "ym2612"
    },
    {
      "channel": 0,
      "note": 62,
      "start": 59.5276,
      "duration": 0.0962,
      "velocity": 107,
      "chip": "ym2612"
    },
    {
      "channel": 2,
      "note": 81,
      "start": 59.5933,
      "duration": 0.0141,
      "velocity": 121,
      "chip": "ym2612"
    },
    {
      "channel": 4,
      "note": 45,
      "start": 59.6799,
      "duration": 0.0606,
      "velocity": 122,
      "chip": "ym2612"
    },
    {
      "channel": 2,
      "note": 81,
      "start": 59.6841,
      "duration": 0.1232,
      "velocity": 104,
      "chip": "ym2612"
    },
    {
      "channel": 0,
      "note": 67,
      "start": 59.6872,
      "duration": 0.0866,
      "velocity": 107,
      "chip": "ym2612"
    },
    {
      "channel": 1,
      "note": 72,
      "start": 59.6898,
      "duration": 0.0672,
      "velocity": 107,
      "chip": "ym2612"
    },
    {
      "channel": 4,
      "note": 45,
      "start": 59.8105,
      "duration": 0.0968,
      "velocity": 122,
      "chip": "ym2612"
    },
    {
      "channel": 2,
      "note": 81,
      "start": 59.8143,
      "duration": 0.0097,
      "velocity": 121,
      "chip": "ym2612"
    },
    {
      "channel": 5,
      "note": 50,
      "start": 59.8174,
      "duration": 0.1067,
      "velocity": 97,
      "chip": "ym2612"
    },
    {
      "channel": 0,
      "note": 58,
      "start": 59.8204,
      "duration": 0.1034,
      "velocity": 107,
      "chip": "ym2612"
    },
    {
      "channel": 2,
      "note": 81,
      "start": 59.9268,
      "duration": 0.0306,
      "velocity": 121,
      "chip": "ym2612"
    },
    {
      "channel": 5,
      "note": 51,
      "start": 59.93,
      "duration": 0.0773,
      "velocity": 97,
      "chip": "ym2612"
    },
    {
      "channel": 4,
      "note": 45,
      "start": 60.0625,
      "duration": 0.0947,
      "velocity": 122,
      "chip": "ym2612"
    },
    {
      "channel": 2,
      "note": 81,
      "start": 60.0667,
      "duration": 0.0907,
      "velocity": 104,
      "chip": "ym2612"
    },
    {
      "channel": 5,
      "note": 53,
      "start": 60.0695,
      "duration": 0.1212,
      "velocity": 97,
      "chip": "ym2612"
    },
    {
      "channel": 0,
      "note": 58,
      "start": 60.0723,
      "duration": 0.1181,
      "velocity": 107,
      "chip": "ym2612"
    },
    {
      "channel": 4,
      "note": 55,
      "start": 60.1966,
      "duration": 0.1439,
      "velocity": 125,
      "chip": "ym2612"
    },
    {
      "channel": 2,
      "note": 81,
      "start": 60.2005,
      "duration": 0.0069,
      "velocity": 121,
      "chip": "ym2612"
    },
    {
      "channel": 5,
      "note": 55,
      "start": 60.2033,
      "duration": 0.0873,
      "velocity": 97,
      "chip": "ym2612"
    },
    {
      "channel": 2,
      "note": 81,
      "start": 60.313,
      "duration": 0.1111,
      "velocity": 104,
      "chip": "ym2612"
    },
    {
      "channel": 5,
      "note": 46,
      "start": 60.3159,
      "duration": 0.0914,
      "velocity": 97,
      "chip": "ym2612"
    },
    {
      "channel": 0,
      "note": 58,
      "start": 60.3189,
      "duration": 0.1048,
      "velocity": 107,
      "chip": "ym2612"
    },
    {
      "channel": 2,
      "note": 81,
      "start": 60.4467,
      "duration": 0.0106,
      "velocity": 121,
      "chip": "ym2612"
    },
    {
      "channel": 5,
      "note": 51,
      "start": 60.4496,
      "duration": 0.0578,
      "velocity": 97,
      "chip": "ym2612"
    },
    {
      "channel": 0,
      "note": 63,
      "start": 60.4529,
      "duration": 0.1041,
      "velocity": 107,
      "chip": "ym2612"
    },
    {
      "channel": 1,
      "note": 70,
      "start": 60.4554,
      "duration": 0.1017,
      "velocity": 107,
      "chip": "ym2612"
    },
    {
      "channel": 2,
      "note": 81,
      "start": 60.5766,
      "duration": 0.0141,
      "velocity": 121,
      "chip": "ym2612"
    },
    {
      "channel": 5,
      "note": 50,
      "start": 60.5793,
      "duration": 0.0613,
      "velocity": 97,
      "chip": "ym2612"
    },
    {
      "channel": 0,
      "note": 58,
      "start": 60.5821,
      "duration": 0.0917,
      "velocity": 107,
      "chip": "ym2612"
    },
    {
      "channel": 4,
      "note": 45,
      "start": 60.7132,
      "duration": 0.044,
      "velocity": 122,
      "chip": "ym2612"
    },
    {
      "channel": 2,
      "note": 81,
      "start": 60.7156,
      "duration": 0.0084,
      "velocity": 121,
      "chip": "ym2612"
    },
    {
      "channel": 5,
      "note": 53,
      "start": 60.7185,
      "duration": 0.1055,
      "velocity": 97,
      "chip": "ym2612"
    },
    {
      "channel": 0,
      "note": 62,
      "start": 60.7213,
      "duration": 0.0858,
      "velocity": 107,
      "chip": "ym2612"
    },
    {
      "channel": 4,
      "note": 45,
      "start": 60.8272,
      "duration": 0.1134,
      "velocity": 122,
      "chip": "ym2612"
    },
    {
      "channel": 2,
      "note": 81,
      "start": 60.8295,
      "duration": 0.0279,
      "velocity": 121,
      "chip": "ym2612"
    },
    {
      "channel": 5,
      "note": 46,
      "start": 60.8325,
      "duration": 0.1915,
      "velocity": 97,
      "chip": "ym2612"
    },
    {
      "channel": 0,
      "note": 55,
      "start": 60.8356,
      "duration": 0.1881,
      "velocity": 107,
      "chip": "ym2612"
    },
    {
      "channel": 2,
      "note": 81,
      "start": 60.9629,
      "duration": 0.4612,
      "velocity": 104,
      "chip": "ym2612"
    },
    {
      "channel": 4,
      "note": 45,
      "start": 61.0959,
      "duration": 0.0946,
      "velocity": 122,
      "chip": "ym2612"
    },
    {
      "channel": 5,
      "note": 51,
      "start": 61.0994,
      "duration": 0.1412,
      "velocity": 97,
      "chip": "ym2612"
    },
    {
      "channel": 0,
      "note": 60,
      "start": 61.1025,
      "duration": 0.0879,
      "velocity": 107,
      "chip": "ym2612"
    },
    {
      "channel": 4,
      "note": 55,
      "start": 61.2133,
      "duration": 0.1772,
      "velocity": 125,
      "chip": "ym2612"
    },
    {
      "channel": 3,
      "note": 45,
      "start": 61.2165,
      "duration": 0.2574,
      "velocity": 97,
      "chip": "ym2612"
    },
    {
      "channel": 0,
      "note": 51,
      "start": 61.2195,
      "duration": 0.2043,
      "velocity": 107,
      "chip": "ym2612"
    },
    {
      "channel": 0,
      "note": 58,
      "start": 61.4291,
      "duration": 0.1114,
      "velocity": 107,
      "chip": "ym2612"
    },
    {
      "channel": 2,
      "note": 81,
      "start": 61.48,
      "duration": 0.0107,
      "velocity": 121,
      "chip": "ym2612"
    },
    {
      "channel": 3,
      "note": 51,
      "start": 61.4829,
      "duration": 0.1242,
      "velocity": 97,
      "chip": "ym2612"
    },
    {
      "channel": 2,
      "note": 81,
      "start": 61.56,
      "duration": 0.014,
      "velocity": 121,
      "chip": "ym2612"
    },
    {
      "channel": 3,
      "note": 50,
      "start": 61.6105,
      "duration": 0.1134,
      "velocity": 97,
      "chip": "ym2612"
    },
    {
      "channel": 0,
      "note": 57,
      "start": 61.6136,
      "duration": 0.2269,
      "velocity": 107,
      "chip": "ym2612"
    },
    {
      "channel": 1,
      "note": 50,
      "start": 61.6161,
      "duration": 0.2245,
      "velocity": 107,
      "chip": "ym2612"
    },
    {
      "channel": 2,
      "note": 81,
      "start": 61.6433,
      "duration": 0.014,
      "velocity": 121,
      "chip": "ym2612"
    },
    {
      "channel": 4,
      "note": 45,
      "start": 61.7298,
      "duration": 0.0608,
      "velocity": 122,
      "chip": "ym2612"
    },
    {
      "channel": 2,
      "note": 81,
      "start": 61.7337,
      "duration": 0.0737,
      "velocity": 104,
      "chip": "ym2612"
    },
    {
      "channel": 5,
      "note": 69,
      "start": 61.7369,
      "duration": 0.0539,
      "velocity": 99,
      "chip": "ym2612"
    },
    {
      "channel": 5,
      "note": 80,
      "start": 61.7961,
      "duration": 0.0612,
      "velocity": 99,
      "chip": "ym2612"
    },
    {
      "channel": 3,
      "note": 75,
      "start": 61.7994,
      "duration": 0.0577,
      "velocity": 99,
      "chip": "ym2612"
    },
    {
      "channel": 4,
      "note": 84,
      "start": 61.8446,
      "duration": 0.1128,
      "velocity": 99,
      "chip": "ym2612"
    },
    {
      "channel": 2,
      "note": 45,
      "start": 61.8626,
      "duration": 0.0024,
      "velocity": 122,
      "chip": "ym2612"
    },
    {
      "channel": 2,
      "note": 81,
      "start": 61.8669,
      "duration": 0.0106,
      "velocity": 121,
      "chip": "ym2612"
    },
    {
      "channel": 0,
      "note": 50,
      "start": 61.8698,
      "duration": 0.1205,
      "velocity": 97,
      "chip": "ym2612"
    },
    {
      "channel": 1,
      "note": 62,
      "start": 61.8729,
      "duration": 0.0842,
      "velocity": 107,
      "chip": "ym2612"
    },
    {
      "channel": 3,
      "note": 57,
      "start": 61.8757,
      "duration": 0.0815,
      "velocity": 107,
      "chip": "ym2612"
    },
    {
      "channel": 5,
      "note": 87,
      "start": 61.911,
      "duration": 0.0465,
      "velocity": 99,
      "chip": "ym2612"
    },
    {
      "channel": 2,
      "note": 91,
      "start": 61.9279,
      "duration": 0.0636,
      "velocity": 99,
      "chip": "ym2612"
    },
    {
      "channel": 4,
      "note": 91,
      "start": 61.9613,
      "duration": 0.096,
      "velocity": 99,
      "chip": "ym2612"
    },
    {
      "channel": 2,
      "note": 81,
      "start": 61.9934,
      "duration": 0.014,
      "velocity": 121,
      "chip": "ym2612"
    },
    {
      "channel": 0,
      "note": 51,
      "start": 61.9958,
      "duration": 0.1113,
      "velocity": 97,
      "chip": "ym2612"
    },
    {
      "channel": 1,
      "note": 96,
      "start": 62.0278,
      "duration": 0.1295,
      "velocity": 99,
      "chip": "ym2612"
    },
    {
      "channel": 5,
      "note": 98,
      "start": 62.0795,
      "duration": 0.04,
      "velocity": 99,
      "chip": "ym2612"
    },
    {
      "channel": 3,
      "note": 45,
      "start": 62.1106,
      "duration": 0.1132,
      "velocity": 122,
      "chip": "ym2612"
    },
    {
      "channel": 2,
      "note": 81,
      "start": 62.113,
      "duration": 0.0277,
      "velocity": 121,
      "chip": "ym2612"
    },
    {
      "channel": 0,
      "note": 53,
      "start": 62.1156,
      "duration": 0.1415,
      "velocity": 97,
      "chip": "ym2612"
    },
    {
      "channel": 4,
      "note": 62,
      "start": 62.1188,
      "duration": 0.1051,
      "velocity": 107,
      "chip": "ym2612"
    },
    {
      "channel": 5,
      "note": 57,
      "start": 62.1216,
      "duration": 0.1025,
      "velocity": 107,
      "chip": "ym2612"
    },
    {
      "channel": 2,
      "note": 103,
      "start": 62.1447,
      "duration": 0.1024,
      "velocity": 99,
      "chip": "ym2612"
    },
    {
      "channel": 1,
      "note": 84,
      "start": 62.2277,
      "duration": 0.0128,
      "velocity": 99,
      "chip": "ym2612"
    },
    {
      "channel": 3,
      "note": 55,
      "start": 62.2466,
      "duration": 0.1607,
      "velocity": 125,
      "chip": "ym2612"
    },
    {
      "channel": 2,
      "note": 81,
      "start": 62.249,
      "duration": 0.0084,
      "velocity": 121,
      "chip": "ym2612"
    },
    {
      "channel": 4,
      "note": 55,
      "start": 62.2523,
      "duration": 0.1049,
      "velocity": 97,
      "chip": "ym2612"
    },
    {
      "channel": 5,
      "note": 91,
      "start": 62.3279,
      "duration": 0.0295,
      "velocity": 99,
      "chip": "ym2612"
    },
    {
      "channel": 2,
      "note": 81,
      "start": 62.3766,
      "duration": 0.0141,
      "velocity": 121,
      "chip": "ym2612"
    },
    {
      "channel": 0,
      "note": 48,
      "start": 62.3793,
      "duration": 0.1445,
      "velocity": 97,
      "chip": "ym2612"
    },
    {
      "channel": 1,
      "note": 63,
      "start": 62.383,
      "duration": 0.0742,
      "velocity": 107,
      "chip": "ym2612"
    },
    {
      "channel": 4,
      "note": 55,
      "start": 62.3858,
      "duration": 0.0716,
      "velocity": 107,
      "chip": "ym2612"
    },
    {
      "channel": 5,
      "note": 92,
      "start": 62.3961,
      "duration": 0.0445,
      "velocity": 99,
      "chip": "ym2612"
    },
    {
      "channel": 2,
      "note": 99,
      "start": 62.4777,
      "duration": 0.0334,
      "velocity": 99,
      "chip": "ym2612"
    },
    {
      "channel": 2,
      "note": 81,
      "start": 62.513,
      "duration": 0.0945,
      "velocity": 104,
      "chip": "ym2612"
    },
    {
      "channel": 3,
      "note": 51,
      "start": 62.516,
      "duration": 0.0746,
      "velocity": 97,
      "chip": "ym2612"
    },
    {
      "channel": 5,
      "note": 87,
      "start": 62.5444,
      "duration": 0.063,
      "velocity": 99,
      "chip": "ym2612"
    },
    {
      "channel": 2,
      "note": 81,
      "start": 62.63,
      "duration": 0.0273,
      "velocity": 121,
      "chip": "ym2612"
    },
    {
      "channel": 0,
      "note": 46,
      "start": 62.6324,
      "duration": 0.0747,
      "velocity": 97,
      "chip": "ym2612"
    },
    {
      "channel": 1,
      "note": 94,
      "start": 62.6358,
      "duration": 0.0546,
      "velocity": 99,
      "chip": "ym2612"
    },
    {
      "channel": 4,
      "note": 63,
      "start": 62.6388,
      "duration": 0.0687,
      "velocity": 107,
      "chip": "ym2612"
    },
    {
      "channel": 3,
      "note": 55,
      "start": 62.6415,
      "duration": 0.0658,
      "velocity": 107,
      "chip": "ym2612"
    },
    {
      "channel": 5,
      "note": 45,
      "start": 62.7634,
      "duration": 0.0605,
      "velocity": 122,
      "chip": "ym2612"
    },
    {
      "channel": 2,
      "note": 81,
      "start": 62.7657,
      "duration": 0.0083,
      "velocity": 121,
      "chip": "ym2612"
    },
    {
      "channel": 0,
      "note": 53,
      "start": 62.7683,
      "duration": 0.0887,
      "velocity": 97,
      "chip": "ym2612"
    },
    {
      "channel": 5,
      "note": 45,
      "start": 62.8961,
      "duration": 0.0945,
      "velocity": 122,
      "chip": "ym2612"
    },
    {
      "channel": 2,
      "note": 81,
      "start": 62.8985,
      "duration": 0.0104,
      "velocity": 121,
      "chip": "ym2612"
    },
    {
      "channel": 0,
      "note": 48,
      "start": 62.9013,
      "duration": 0.9559,
      "velocity": 97,
      "chip": "ym2612"
    },
    {
      "channel": 3,
      "note": 63,
      "start": 62.9045,
      "duration": 0.0528,
      "velocity": 107,
      "chip": "ym2612"
    },
    {
      "channel": 4,
      "note": 55,
      "start": 62.9071,
      "duration": 0.0503,
      "velocity": 107,
      "chip": "ym2612"
    },
    {
      "channel": 1,
      "note": 90,
      "start": 62.9276,
      "duration": 0.0628,
      "velocity": 99,
      "chip": "ym2612"
    },
    {
      "channel": 2,
      "note": 81,
      "start": 63.0266,
      "duration": 0.0141,
      "velocity": 121,
      "chip": "ym2612"
    },
    {
      "channel": 3,
      "note": 97,
      "start": 63.0301,
      "duration": 0.0771,
      "velocity": 99,
      "chip": "ym2612"
    },
    {
      "channel": 4,
      "note": 67,
      "start": 63.0335,
      "duration": 0.0739,
      "velocity": 107,
      "chip": "ym2612"
    },
    {
      "channel": 1,
      "note": 72,
      "start": 63.0364,
      "duration": 0.0873,
      "velocity": 107,
      "chip": "ym2612"
    },
    {
      "channel": 5,
      "note": 101,
      "start": 63.1112,
      "duration": 0.0628,
      "velocity": 99,
      "chip": "ym2612"
    },
    {
      "channel": 2,
      "note": 45,
      "start": 63.1437,
      "duration": 0.0005,
      "velocity": 122,
      "chip": "ym2612"
    },
    {
      "channel": 2,
      "note": 81,
      "start": 63.1461,
      "duration": 0.028,
      "velocity": 121,
      "chip": "ym2612"
    },
    {
      "channel": 1,
      "note": 63,
      "start": 63.1493,
      "duration": 0.108,
      "velocity": 107,
      "chip": "ym2612"
    },
    {
      "channel": 5,
      "note": 111,
      "start": 63.1779,
      "duration": 0.0797,
      "velocity": 99,
      "chip": "ym2612"
    },
    {
      "channel": 3,
      "note": 108,
      "start": 63.1962,
      "duration": 0.0611,
      "velocity": 99,
      "chip": "ym2612"
    },
    {
      "channel": 4,
      "note": 55,
      "start": 63.2801,
      "duration": 0.1438,
      "velocity": 125,
      "chip": "ym2612"
    },
    {
      "channel": 2,
      "note": 81,
      "start": 63.2824,
      "duration": 0.0083,
      "velocity": 121,
      "chip": "ym2612"
    },
    {
      "channel": 5,
      "note": 101,
      "start": 63.2858,
      "duration": 0.1216,
      "velocity": 99,
      "chip": "ym2612"
    },
    {
      "channel": 3,
      "note": 106,
      "start": 63.2886,
      "duration": 0.0519,
      "velocity": 99,
      "chip": "ym2612"
    },
    {
      "channel": 1,
      "note": 106,
      "start": 63.3461,
      "duration": 0.0278,
      "velocity": 99,
      "chip": "ym2612"
    },
    {
      "channel": 3,
      "note": 108,
      "start": 63.3611,
      "duration": 0.1294,
      "velocity": 99,
      "chip": "ym2612"
    },
    {
      "channel": 2,
      "note": 81,
      "start": 63.413,
      "duration": 0.111,
      "velocity": 104,
      "chip": "ym2612"
    },
    {
      "channel": 1,
      "note": 63,
      "start": 63.4164,
      "duration": 0.0574,
      "velocity": 107,
      "chip": "ym2612"
    },
    {
      "channel": 5,
      "note": 113,
      "start": 63.4279,
      "duration": 0.0461,
      "velocity": 99,
      "chip": "ym2612"
    },
    {
      "channel": 2,
      "note": 81,
      "start": 63.53,
      "duration": 0.0274,
      "velocity": 121,
      "chip": "ym2612"
    },
    {
      "channel": 1,
      "note": 67,
      "start": 63.5333,
      "duration": 0.1071,
      "velocity": 107,
      "chip": "ym2612"
    },
    {
      "channel": 4,
      "note": 72,
      "start": 63.5362,
      "duration": 0.0877,
      "velocity": 107,
      "chip": "ym2612"
    },
    {
      "channel": 2,
      "note": 81,
      "start": 63.6267,
      "duration": 0.014,
      "velocity": 121,
      "chip": "ym2612"
    },
    {
      "channel": 1,
      "note": 63,
      "start": 63.6624,
      "duration": 0.0614,
      "velocity": 107,
      "chip": "ym2612"
    },
    {
      "channel": 2,
      "note": 81,
      "start": 63.7101,
      "duration": 0.0139,
      "velocity": 121,
      "chip": "ym2612"
    },
    {
      "channel": 5,
      "note": 98,
      "start": 63.7279,
      "duration": 0.0628,
      "velocity": 99,
      "chip": "ym2612"
    },
    {
      "channel": 3,
      "note": 109,
      "start": 63.7445,
      "duration": 0.1462,
      "velocity": 99,
      "chip": "ym2612"
    },
    {
      "channel": 2,
      "note": 81,
      "start": 63.777,
      "duration": 0.0303,
      "velocity": 121,
      "chip": "ym2612"
    },
    {
      "channel": 4,
      "note": 45,
      "start": 63.7971,
      "duration": 0.0603,
      "velocity": 122,
      "chip": "ym2612"
    },
    {
      "channel": 1,
      "note": 75,
      "start": 63.8005,
      "duration": 0.09,
      "velocity": 107,
      "chip": "ym2612"
    },
    {
      "channel": 5,
      "note": 67,
      "start": 63.8032,
      "duration": 0.0877,
      "velocity": 107,
      "chip": "ym2612"
    },
    {
      "channel": 2,
      "note": 105,
      "start": 63.8279,
      "duration": 0.001,
      "velocity": 99,
      "chip": "ym2612"
    },
    {
      "channel": 2,
      "note": 104,
      "start": 63.8311,
      "duration": 0.0968,
      "velocity": 99,
      "chip": "ym2612"
    },
    {
      "channel": 0,
      "note": 103,
      "start": 63.8612,
      "duration": 0.0959,
      "velocity": 99,
      "chip": "ym2612"
    },
    {
      "channel": 4,
      "note": 45,
      "start": 63.9271,
      "duration": 0.0803,
      "velocity": 122,
      "chip": "ym2612"
    },
    {
      "channel": 2,
      "note": 81,
      "start": 63.9298,
      "duration": 0.0108,
      "velocity": 121,
      "chip": "ym2612"
    },
    {
      "channel": 1,
      "note": 50,
      "start": 63.9329,
      "duration": 0.1076,
      "velocity": 97,
      "chip": "ym2612"
    },
    {
      "channel": 5,
      "note": 60,
      "start": 63.9362,
      "duration": 0.0713,
      "velocity": 107,
      "chip": "ym2612"
    },
    {
      "channel": 0,
      "note": 98,
      "start": 63.9608,
      "duration": 0.0463,
      "velocity": 99,
      "chip": "ym2612"
    },
    {
      "channel": 3,
      "note": 110,
      "start": 63.9644,
      "duration": 0.0761,
      "velocity": 99,
      "chip": "ym2612"
    },
    {
      "channel": 2,
      "note": 81,
      "start": 64.0435,
      "duration": 0.0305,
      "velocity": 121,
      "chip": "ym2612"
    },
    {
      "channel": 1,
      "note": 51,
      "start": 64.0465,
      "duration": 0.0774,
      "velocity": 97,
      "chip": "ym2612"
    },
    {
      "channel": 3,
      "note": 105,
      "start": 64.0778,
      "duration": 0.0127,
      "velocity": 99,
      "chip": "ym2612"
    },
    {
      "channel": 0,
      "note": 95,
      "start": 64.094,
      "duration": 0.0298,
      "velocity": 99,
      "chip": "ym2612"
    },
    {
      "channel": 4,
      "note": 97,
      "start": 64.097,
      "duration": 0.0272,
      "velocity": 99,
      "chip": "ym2612"
    },
    {
      "channel": 5,
      "note": 45,
      "start": 64.1771,
      "duration": 0.0803,
      "velocity": 122,
      "chip": "ym2612"
    },
    {
      "channel": 2,
      "note": 81,
      "start": 64.1813,
      "duration": 0.0926,
      "velocity": 104,
      "chip": "ym2612"
    },
    {
      "channel": 1,
      "note": 53,
      "start": 64.184,
      "duration": 0.1232,
      "velocity": 97,
      "chip": "ym2612"
    },
    {
      "channel": 3,
      "note": 60,
      "start": 64.1871,
      "duration": 0.0702,
      "velocity": 107,
      "chip": "ym2612"
    },
    {
      "channel": 0,
      "note": 102,
      "start": 64.1944,
      "duration": 0.0295,
      "velocity": 99,
      "chip": "ym2612"
    },
    {
      "channel": 4,
      "note": 104,
      "start": 64.1973,
      "duration": 0.0267,
      "velocity": 99,
      "chip": "ym2612"
    },
    {
      "channel": 0,
      "note": 113,
      "start": 64.2631,
      "duration": 0.1274,
      "velocity": 99,
      "chip": "ym2612"
    },
    {
      "channel": 4,
      "note": 95,
      "start": 64.2778,
      "duration": 0.0462,
      "velocity": 99,
      "chip": "ym2612"
    },
    {
      "channel": 5,
      "note": 55,
      "start": 64.3134,
      "duration": 0.1773,
      "velocity": 125,
      "chip": "ym2612"
    },
    {
      "channel": 2,
      "note": 81,
      "start": 64.3172,
      "duration": 0.0069,
      "velocity": 121,
      "chip": "ym2612"
    },
    {
      "channel": 1,
      "note": 55,
      "start": 64.3199,
      "duration": 0.0873,
      "velocity": 97,
      "chip": "ym2612"
    },
    {
      "channel": 3,
      "note": 108,
      "start": 64.3445,
      "duration": 0.1293,
      "velocity": 99,
      "chip": "ym2612"
    },
    {
      "channel": 4,
      "note": 102,
      "start": 64.3779,
      "duration": 0.046,
      "velocity": 99,
      "chip": "ym2612"
    },
    {
      "channel": 0,
      "note": 103,
      "start": 64.4109,
      "duration": 0.1296,
      "velocity": 99,
      "chip": "ym2612"
    },
    {
      "channel": 2,
      "note": 81,
      "start": 64.4267,
      "duration": 0.0307,
      "velocity": 121,
      "chip": "ym2612"
    },
    {
      "channel": 1,
      "note": 46,
      "start": 64.4293,
      "duration": 0.0945,
      "velocity": 97,
      "chip": "ym2612"
    },
    {
      "channel": 4,
      "note": 60,
      "start": 64.4326,
      "duration": 0.058,
      "velocity": 107,
      "chip": "ym2612"
    },
    {
      "channel": 3,
      "note": 110,
      "start": 64.4962,
      "duration": 0.1279,
      "velocity": 99,
      "chip": "ym2612"
    },
    {
      "channel": 2,
      "note": 81,
      "start": 64.563,
      "duration": 0.1109,
      "velocity": 104,
      "chip": "ym2612"
    },
    {
      "channel": 1,
      "note": 51,
      "start": 64.5657,
      "duration": 0.0583,
      "velocity": 97,
      "chip": "ym2612"
    },
    {
      "channel": 0,
      "note": 95,
      "start": 64.6108,
      "duration": 0.013,
      "velocity": 99,
      "chip": "ym2612"
    },
    {
      "channel": 2,
      "note": 81,
      "start": 64.6968,
      "duration": 0.0106,
      "velocity": 121,
      "chip": "ym2612"
    },
    {
      "channel": 1,
      "note": 50,
      "start": 64.6994,
      "duration": 0.0577,
      "velocity": 97,
      "chip": "ym2612"
    },
    {
      "channel": 3,
      "note": 102,
      "start": 64.7026,
      "duration": 0.0212,
      "velocity": 99,
      "chip": "ym2612"
    },
    {
      "channel": 4,
      "note": 60,
      "start": 64.7056,
      "duration": 0.0183,
      "velocity": 107,
      "chip": "ym2612"
    },
    {
      "channel": 0,
      "note": 108,
      "start": 64.7277,
      "duration": 0.0627,
      "velocity": 99,
      "chip": "ym2612"
    },
    {
      "channel": 5,
      "note": 45,
      "start": 64.8303,
      "duration": 0.0436,
      "velocity": 122,
      "chip": "ym2612"
    },
    {
      "channel": 2,
      "note": 81,
      "start": 64.8327,
      "duration": 0.0111,
      "velocity": 121,
      "chip": "ym2612"
    },
    {
      "channel": 1,
      "note": 53,
      "start": 64.8354,
      "duration": 0.105,
      "velocity": 97,
      "chip": "ym2612"
    },
    {
      "channel": 4,
      "note": 75,
      "start": 64.839,
      "duration": 0.1016,
      "velocity": 107,
      "chip": "ym2612"
    },
    {
      "channel": 3,
      "note": 67,
      "start": 64.8419,
      "duration": 0.0819,
      "velocity": 107,
      "chip": "ym2612"
    },
    {
      "channel": 0,
      "note": 103,
      "start": 64.8478,
      "duration": 0.0592,
      "velocity": 99,
      "chip": "ym2612"
    },
    {
      "channel": 5,
      "note": 45,
      "start": 64.9438,
      "duration": 0.0801,
      "velocity": 122,
      "chip": "ym2612"
    },
    {
      "channel": 2,
      "note": 81,
      "start": 64.9476,
      "duration": 0.4431,
      "velocity": 104,
      "chip": "ym2612"
    },
    {
      "channel": 1,
      "note": 46,
      "start": 64.9505,
      "duration": 0.19,
      "velocity": 97,
      "chip": "ym2612"
    },
    {
      "channel": 3,
      "note": 60,
      "start": 64.9536,
      "duration": 0.2202,
      "velocity": 107,
      "chip": "ym2612"
    },
    {
      "channel": 5,
      "note": 55,
      "start": 65.08,
      "duration": 0.094,
      "velocity": 125,
      "chip": "ym2612"
    },
    {
      "channel": 5,
      "note": 45,
      "start": 65.2132,
      "duration": 0.0775,
      "velocity": 122,
      "chip": "ym2612"
    },
    {
      "channel": 1,
      "note": 51,
      "start": 65.2166,
      "duration": 0.1405,
      "velocity": 97,
      "chip": "ym2612"
    },
    {
      "channel": 3,
      "note": 75,
      "start": 65.2198,
      "duration": 0.0874,
      "velocity": 107,
      "chip": "ym2612"
    },
    {
      "channel": 4,
      "note": 67,
      "start": 65.2226,
      "duration": 0.068,
      "velocity": 107,
      "chip": "ym2612"
    },
    {
      "channel": 5,
      "note": 55,
      "start": 65.3307,
      "duration": 0.1266,
      "velocity": 125,
      "chip": "ym2612"
    },
    {
      "channel": 0,
      "note": 45,
      "start": 65.3339,
      "duration": 0.2566,
      "velocity": 97,
      "chip": "ym2612"
    },
    {
      "channel": 3,
      "note": 58,
      "start": 65.3374,
      "duration": 0.2031,
      "velocity": 107,
      "chip": "ym2612"
    },
    {
      "channel": 2,
      "note": 81,
      "start": 65.4633,
      "duration": 0.0107,
      "velocity": 121,
      "chip": "ym2612"
    },
    {
      "channel": 2,
      "note": 81,
      "start": 65.5935,
      "duration": 0.0139,
      "velocity": 121,
      "chip": "ym2612"
    },
    {
      "channel": 0,
      "note": 51,
      "start": 65.5963,
      "duration": 0.1275,
      "velocity": 97,
      "chip": "ym2612"
    },
    {
      "channel": 3,
      "note": 75,
      "start": 65.5995,
      "duration": 0.0911,
      "velocity": 107,
      "chip": "ym2612"
    },
    {
      "channel": 4,
      "note": 67,
      "start": 65.6023,
      "duration": 0.0549,
      "velocity": 107,
      "chip": "ym2612"
    },
    {
      "channel": 2,
      "note": 81,
      "start": 65.6766,
      "duration": 0.0142,
      "velocity": 121,
      "chip": "ym2612"
    },
    {
      "channel": 0,
      "note": 50,
      "start": 65.7268,
      "duration": 0.1136,
      "velocity": 97,
      "chip": "ym2612"
    },
    {
      "channel": 3,
      "note": 57,
      "start": 65.73,
      "duration": 0.1106,
      "velocity": 107,
      "chip": "ym2612"
    },
    {
      "channel": 2,
      "note": 81,
      "start": 65.76,
      "duration": 0.014,
      "velocity": 121,
      "chip": "ym2612"
    },
    {
      "channel": 5,
      "note": 45,
      "start": 65.8475,
      "duration": 0.0766,
      "velocity": 122,
      "chip": "ym2612"
    },
    {
      "channel": 2,
      "note": 81,
      "start": 65.8512,
      "duration": 0.0228,
      "velocity": 121,
      "chip": "ym2612"
    },
    {
      "channel": 0,
      "note": 53,
      "start": 65.8539,
      "duration": 0.1031,
      "velocity": 97,
      "chip": "ym2612"
    },
    {
      "channel": 3,
      "note": 60,
      "start": 65.8583,
      "duration": 0.0656,
      "velocity": 107,
      "chip": "ym2612"
    },
    {
      "channel": 5,
      "note": 45,
      "start": 65.98,
      "duration": 0.0939,
      "velocity": 122,
      "chip": "ym2612"
    },
    {
      "channel": 2,
      "note": 81,
      "start": 65.9823,
      "duration": 0.0084,
      "velocity": 121,
      "chip": "ym2612"
    },
    {
      "channel": 0,
      "note": 55,
      "start": 65.9849,
      "duration": 0.0722,
      "velocity": 97,
      "chip": "ym2612"
    },
    {
      "channel": 3,
      "note": 62,
      "start": 65.9879,
      "duration": 0.0695,
      "velocity": 107,
      "chip": "ym2612"
    },
    {
      "channel": 2,
      "note": 81,
      "start": 66.1099,
      "duration": 0.0141,
      "velocity": 121,
      "chip": "ym2612"
    },
    {
      "channel": 0,
      "note": 56,
      "start": 66.1125,
      "duration": 0.0947,
      "velocity": 97,
      "chip": "ym2612"
    },
    {
      "channel": 3,
      "note": 63,
      "start": 66.1154,
      "duration": 0.0752,
      "velocity": 107,
      "chip": "ym2612"
    },
    {
      "channel": 5,
      "note": 45,
      "start": 66.2271,
      "duration": 0.1301,
      "velocity": 122,
      "chip": "ym2612"
    },
    {
      "channel": 2,
      "note": 81,
      "start": 66.2295,
      "duration": 0.0279,
      "velocity": 121,
      "chip": "ym2612"
    },
    {
      "channel": 0,
      "note": 58,
      "start": 66.232,
      "duration": 0.1085,
      "velocity": 97,
      "chip": "ym2612"
    },
    {
      "channel": 3,
      "note": 65,
      "start": 66.2351,
      "duration": 0.1056,
      "velocity": 107,
      "chip": "ym2612"
    },
    {
      "channel": 5,
      "note": 55,
      "start": 66.364,
      "duration": 0.16,
      "velocity": 125,
      "chip": "ym2612"
    },
    {
      "channel": 2,
      "note": 81,
      "start": 66.3664,
      "duration": 0.0077,
      "velocity": 121,
      "chip": "ym2612"
    },
    {
      "channel": 0,
      "note": 60,
      "start": 66.3692,
      "duration": 0.1044,
      "velocity": 97,
      "chip": "ym2612"
    },
    {
      "channel": 3,
      "note": 67,
      "start": 66.3721,
      "duration": 0.1018,
      "velocity": 107,
      "chip": "ym2612"
    },
    {
      "channel": 2,
      "note": 81,
      "start": 66.4933,
      "duration": 0.0141,
      "velocity": 121,
      "chip": "ym2612"
    },
    {
      "channel": 0,
      "note": 53,
      "start": 66.4958,
      "duration": 0.0947,
      "velocity": 97,
      "chip": "ym2612"
    },
    {
      "channel": 3,
      "note": 56,
      "start": 66.4992,
      "duration": 0.0746,
      "velocity": 107,
      "chip": "ym2612"
    },
    {
      "channel": 2,
      "note": 81,
      "start": 66.6266,
      "duration": 0.0141,
      "velocity": 121,
      "chip": "ym2612"
    },
    {
      "channel": 0,
      "note": 56,
      "start": 66.6293,
      "duration": 0.0778,
      "velocity": 97,
      "chip": "ym2612"
    },
    {
      "channel": 3,
      "note": 63,
      "start": 66.6321,
      "duration": 0.0751,
      "velocity": 107,
      "chip": "ym2612"
    },
    {
      "channel": 2,
      "note": 81,
      "start": 66.7466,
      "duration": 0.2108,
      "velocity": 104,
      "chip": "ym2612"
    },
    {
      "channel": 0,
      "note": 51,
      "start": 66.7491,
      "duration": 0.0746,
      "velocity": 97,
      "chip": "ym2612"
    },
    {
      "channel": 3,
      "note": 51,
      "start": 66.752,
      "duration": 0.0719,
      "velocity": 107,
      "chip": "ym2612"
    },
    {
      "channel": 5,
      "note": 45,
      "start": 66.88,
      "duration": 0.0606,
      "velocity": 122,
      "chip": "ym2612"
    },
    {
      "channel": 0,
      "note": 58,
      "start": 66.8827,
      "duration": 0.091,
      "velocity": 97,
      "chip": "ym2612"
    },
    {
      "channel": 3,
      "note": 60,
      "start": 66.8856,
      "duration": 0.0716,
      "velocity": 107,
      "chip": "ym2612"
    },
    {
      "channel": 5,
      "note": 45,
      "start": 67.0104,
      "duration": 0.0971,
      "velocity": 122,
      "chip": "ym2612"
    },
    {
      "channel": 2,
      "note": 81,
      "start": 67.0142,
      "duration": 0.0099,
      "velocity": 121,
      "chip": "ym2612"
    },
    {
      "channel": 0,
      "note": 53,
      "start": 67.017,
      "duration": 0.0901,
      "velocity": 97,
      "chip": "ym2612"
    },
    {
      "channel": 3,
      "note": 56,
      "start": 67.0203,
      "duration": 0.087,
      "velocity": 107,
      "chip": "ym2612"
    },
    {
      "channel": 2,
      "note": 81,
      "start": 67.1265,
      "duration": 0.0308,
      "velocity": 121,
      "chip": "ym2612"
    },
    {
      "channel": 5,
      "note": 45,
      "start": 67.2625,
      "duration": 0.1114,
      "velocity": 122,
      "chip": "ym2612"
    },
    {
      "channel": 2,
      "note": 81,
      "start": 67.2649,
      "duration": 0.0258,
      "velocity": 121,
      "chip": "ym2612"
    },
    {
      "channel": 5,
      "note": 55,
      "start": 67.3965,
      "duration": 0.0941,
      "velocity": 125,
      "chip": "ym2612"
    },
    {
      "channel": 2,
      "note": 81,
      "start": 67.3989,
      "duration": 0.0085,
      "velocity": 121,
      "chip": "ym2612"
    },
    {
      "channel": 2,
      "note": 81,
      "start": 67.5267,
      "duration": 0.0142,
      "velocity": 121,
      "chip": "ym2612"
    },
    {
      "channel": 1,
      "note": 60,
      "start": 67.5302,
      "duration": 0.0602,
      "velocity": 116,
      "chip": "ym2612"
    },
    {
      "channel": 4,
      "note": 58,
      "start": 67.5332,
      "duration": 0.0075,
      "velocity": 116,
      "chip": "ym2612"
    },
    {
      "channel": 2,
      "note": 81,
      "start": 67.6435,
      "duration": 0.0305,
      "velocity": 121,
      "chip": "ym2612"
    },
    {
      "channel": 1,
      "note": 60,
      "start": 67.6468,
      "duration": 0.0937,
      "velocity": 116,
      "chip": "ym2612"
    },
    {
      "channel": 4,
      "note": 58,
      "start": 67.6496,
      "duration": 0.0577,
      "velocity": 116,
      "chip": "ym2612"
    },
    {
      "channel": 2,
      "note": 81,
      "start": 67.7434,
      "duration": 0.0139,
      "velocity": 121,
      "chip": "ym2612"
    },
    {
      "channel": 2,
      "note": 81,
      "start": 67.8266,
      "duration": 0.0141,
      "velocity": 121,
      "chip": "ym2612"
    },
    {
      "channel": 5,
      "note": 45,
      "start": 67.9132,
      "duration": 0.0609,
      "velocity": 122,
      "chip": "ym2612"
    },
    {
      "channel": 2,
      "note": 81,
      "start": 67.9174,
      "duration": 0.1233,
      "velocity": 104,
      "chip": "ym2612"
    },
    {
      "channel": 1,
      "note": 60,
      "start": 67.921,
      "duration": 0.0528,
      "velocity": 116,
      "chip": "ym2612"
    },
    {
      "channel": 4,
      "note": 58,
      "start": 67.9237,
      "duration": 0.0503,
      "velocity": 116,
      "chip": "ym2612"
    },
    {
      "channel": 5,
      "note": 45,
      "start": 68.044,
      "duration": 0.0968,
      "velocity": 122,
      "chip": "ym2612"
    },
    {
      "channel": 2,
      "note": 81,
      "start": 68.0478,
      "duration": 0.0097,
      "velocity": 121,
      "chip": "ym2612"
    },
    {
      "channel": 2,
      "note": 81,
      "start": 68.16,
      "duration": 0.0308,
      "velocity": 121,
      "chip": "ym2612"
    },
    {
      "channel": 1,
      "note": 60,
      "start": 68.1633,
      "duration": 0.1272,
      "velocity": 116,
      "chip": "ym2612"
    },
    {
      "channel": 4,
      "note": 58,
      "start": 68.1659,
      "duration": 0.1247,
      "velocity": 116,
      "chip": "ym2612"
    },
    {
      "channel": 5,
      "note": 45,
      "start": 68.2958,
      "duration": 0.0949,
      "velocity": 122,
      "chip": "ym2612"
    },
    {
      "channel": 2,
      "note": 81,
      "start": 68.3,
      "duration": 0.0908,
      "velocity": 104,
      "chip": "ym2612"
    },
    {
      "channel": 1,
      "note": 60,
      "start": 68.3045,
      "duration": 0.2361,
      "velocity": 116,
      "chip": "ym2612"
    },
    {
      "channel": 4,
      "note": 58,
      "start": 68.3071,
      "duration": 0.2336,
      "velocity": 116,
      "chip": "ym2612"
    },
    {
      "channel": 5,
      "note": 55,
      "start": 68.43,
      "duration": 0.1439,
      "velocity": 125,
      "chip": "ym2612"
    },
    {
      "channel": 2,
      "note": 81,
      "start": 68.4338,
      "duration": 0.007,
      "velocity": 121,
      "chip": "ym2612"
    },
    {
      "channel": 2,
      "note": 81,
      "start": 68.5463,
      "duration": 0.1112,
      "velocity": 104,
      "chip": "ym2612"
    },
    {
      "channel": 2,
      "note": 81,
      "start": 68.68,
      "duration": 0.0107,
      "velocity": 121,
      "chip": "ym2612"
    },
    {
      "channel": 2,
      "note": 81,
      "start": 68.8101,
      "duration": 0.014,
      "velocity": 121,
      "chip": "ym2612"
    },
    {
      "channel": 5,
      "note": 45,
      "start": 68.9466,
      "duration": 0.044,
      "velocity": 122,
      "chip": "ym2612"
    },
    {
      "channel": 2,
      "note": 81,
      "start": 68.949,
      "duration": 0.0085,
      "velocity": 121,
      "chip": "ym2612"
    },
    {
      "channel": 5,
      "note": 45,
      "start": 69.0606,
      "duration": 0.1135,
      "velocity": 122,
      "chip": "ym2612"
    },
    {
      "channel": 2,
      "note": 81,
      "start": 69.0629,
      "duration": 0.0277,
      "velocity": 121,
      "chip": "ym2612"
    },
    {
      "channel": 1,
      "note": 58,
      "start": 69.0667,
      "duration": 0.0405,
      "velocity": 116,
      "chip": "ym2612"
    },
    {
      "channel": 2,
      "note": 81,
      "start": 69.1963,
      "duration": 0.4611,
      "velocity": 104,
      "chip": "ym2612"
    },
    {
      "channel": 1,
      "note": 60,
      "start": 69.1995,
      "duration": 0.041,
      "velocity": 116,
      "chip": "ym2612"
    },
    {
      "channel": 4,
      "note": 58,
      "start": 69.2021,
      "duration": 0.0554,
      "velocity": 116,
      "chip": "ym2612"
    },
    {
      "channel": 0,
      "note": 60,
      "start": 69.2048,
      "duration": 0.0524,
      "velocity": 116,
      "chip": "ym2612"
    },
    {
      "channel": 5,
      "note": 45,
      "start": 69.3293,
      "duration": 0.0947,
      "velocity": 122,
      "chip": "ym2612"
    },
    {
      "channel": 5,
      "note": 55,
      "start": 69.4467,
      "duration": 0.1774,
      "velocity": 125,
      "chip": "ym2612"
    },
    {
      "channel": 0,
      "note": 60,
      "start": 69.5804,
      "duration": 0.0601,
      "velocity": 116,
      "chip": "ym2612"
    },
    {
      "channel": 1,
      "note": 58,
      "start": 69.5832,
      "duration": 0.0407,
      "velocity": 116,
      "chip": "ym2612"
    },
    {
      "channel": 2,
      "note": 81,
      "start": 69.7133,
      "duration": 0.0107,
      "velocity": 121,
      "chip": "ym2612"
    },
    {
      "channel": 2,
      "note": 81,
      "start": 69.7933,
      "duration": 0.0141,
      "velocity": 121,
      "chip": "ym2612"
    },
    {
      "channel": 2,
      "note": 81,
      "start": 69.8767,
      "duration": 0.0141,
      "velocity": 121,
      "chip": "ym2612"
    },
    {
      "channel": 5,
      "note": 45,
      "start": 69.9633,
      "duration": 0.0607,
      "velocity": 122,
      "chip": "ym2612"
    },
    {
      "channel": 2,
      "note": 81,
      "start": 69.9671,
      "duration": 0.0736,
      "velocity": 104,
      "chip": "ym2612"
    },
    {
      "channel": 3,
      "note": 53,
      "start": 69.97,
      "duration": 0.1038,
      "velocity": 97,
      "chip": "ym2612"
    },
    {
      "channel": 4,
      "note": 60,
      "start": 69.9735,
      "duration": 0.0671,
      "velocity": 107,
      "chip": "ym2612"
    },
    {
      "channel": 5,
      "note": 45,
      "start": 70.0959,
      "duration": 0.0783,
      "velocity": 122,
      "chip": "ym2612"
    },
    {
      "channel": 2,
      "note": 81,
      "start": 70.1001,
      "duration": 0.0075,
      "velocity": 121,
      "chip": "ym2612"
    },
    {
      "channel": 3,
      "note": 55,
      "start": 70.1028,
      "duration": 0.0711,
      "velocity": 97,
      "chip": "ym2612"
    },
    {
      "channel": 4,
      "note": 62,
      "start": 70.1057,
      "duration": 0.0683,
      "velocity": 107,
      "chip": "ym2612"
    },
    {
      "channel": 2,
      "note": 81,
      "start": 70.2265,
      "duration": 0.0142,
      "velocity": 121,
      "chip": "ym2612"
    },
    {
      "channel": 3,
      "note": 56,
      "start": 70.2293,
      "duration": 0.0945,
      "velocity": 97,
      "chip": "ym2612"
    },
    {
      "channel": 4,
      "note": 63,
      "start": 70.2323,
      "duration": 0.0749,
      "velocity": 107,
      "chip": "ym2612"
    },
    {
      "channel": 5,
      "note": 45,
      "start": 70.3438,
      "duration": 0.1137,
      "velocity": 122,
      "chip": "ym2612"
    },
    {
      "channel": 2,
      "note": 81,
      "start": 70.3461,
      "duration": 0.0279,
      "velocity": 121,
      "chip": "ym2612"
    },
    {
      "channel": 3,
      "note": 58,
      "start": 70.3491,
      "duration": 0.1081,
      "velocity": 97,
      "chip": "ym2612"
    },
    {
      "channel": 4,
      "note": 65,
      "start": 70.3522,
      "duration": 0.1051,
      "velocity": 107,
      "chip": "ym2612"
    },
    {
      "channel": 5,
      "note": 55,
      "start": 70.48,
      "duration": 0.1605,
      "velocity": 125,
      "chip": "ym2612"
    },
    {
      "channel": 2,
      "note": 81,
      "start": 70.4824,
      "duration": 0.0083,
      "velocity": 121,
      "chip": "ym2612"
    },
    {
      "channel": 3,
      "note": 60,
      "start": 70.485,
      "duration": 0.1055,
      "velocity": 97,
      "chip": "ym2612"
    },
    {
      "channel": 4,
      "note": 67,
      "start": 70.4883,
      "duration": 0.1024,
      "velocity": 107,
      "chip": "ym2612"
    },
    {
      "channel": 2,
      "note": 81,
      "start": 70.6099,
      "duration": 0.0141,
      "velocity": 121,
      "chip": "ym2612"
    },
    {
      "channel": 3,
      "note": 53,
      "start": 70.6125,
      "duration": 0.0947,
      "velocity": 97,
      "chip": "ym2612"
    },
    {
      "channel": 4,
      "note": 56,
      "start": 70.6157,
      "duration": 0.0749,
      "velocity": 107,
      "chip": "ym2612"
    },
    {
      "channel": 2,
      "note": 81,
      "start": 70.7463,
      "duration": 0.0944,
      "velocity": 104,
      "chip": "ym2612"
    },
    {
      "channel": 3,
      "note": 56,
      "start": 70.749,
      "duration": 0.0748,
      "velocity": 97,
      "chip": "ym2612"
    },
    {
      "channel": 4,
      "note": 63,
      "start": 70.752,
      "duration": 0.0719,
      "velocity": 107,
      "chip": "ym2612"
    },
    {
      "channel": 2,
      "note": 81,
      "start": 70.8633,
      "duration": 0.0273,
      "velocity": 121,
      "chip": "ym2612"
    },
    {
      "channel": 3,
      "note": 51,
      "start": 70.8659,
      "duration": 0.0746,
      "velocity": 97,
      "chip": "ym2612"
    },
    {
      "channel": 4,
      "note": 51,
      "start": 70.8689,
      "duration": 0.0717,
      "velocity": 107,
      "chip": "ym2612"
    },
    {
      "channel": 5,
      "note": 45,
      "start": 70.9966,
      "duration": 0.0606,
      "velocity": 122,
      "chip": "ym2612"
    },
    {
      "channel": 2,
      "note": 81,
      "start": 70.999,
      "duration": 0.0087,
      "velocity": 121,
      "chip": "ym2612"
    },
    {
      "channel": 3,
      "note": 58,
      "start": 71.0017,
      "duration": 0.0888,
      "velocity": 97,
      "chip": "ym2612"
    },
    {
      "channel": 4,
      "note": 60,
      "start": 71.0059,
      "duration": 0.0681,
      "velocity": 107,
      "chip": "ym2612"
    },
    {
      "channel": 5,
      "note": 45,
      "start": 71.1295,
      "duration": 0.0947,
      "velocity": 122,
      "chip": "ym2612"
    },
    {
      "channel": 2,
      "note": 81,
      "start": 71.1318,
      "duration": 0.0159,
      "velocity": 121,
      "chip": "ym2612"
    },
    {
      "channel": 3,
      "note": 53,
      "start": 71.1347,
      "duration": 0.0892,
      "velocity": 97,
      "chip": "ym2612"
    },
    {
      "channel": 4,
      "note": 56,
      "start": 71.1381,
      "duration": 0.0859,
      "velocity": 107,
      "chip": "ym2612"
    },
    {
      "channel": 0,
      "note": 60,
      "start": 71.1409,
      "duration": 0.0497,
      "velocity": 116,
      "chip": "ym2612"
    },
    {
      "channel": 1,
      "note": 58,
      "start": 71.1459,
      "duration": 0.0015,
      "velocity": 116,
      "chip": "ym2612"
    },
    {
      "channel": 2,
      "note": 81,
      "start": 71.2433,
      "duration": 0.0308,
      "velocity": 121,
      "chip": "ym2612"
    },
    {
      "channel": 0,
      "note": 60,
      "start": 71.2466,
      "duration": 0.0939,
      "velocity": 116,
      "chip": "ym2612"
    },
    {
      "channel": 1,
      "note": 58,
      "start": 71.2493,
      "duration": 0.058,
      "velocity": 116,
      "chip": "ym2612"
    },
    {
      "channel": 5,
      "note": 45,
      "start": 71.3771,
      "duration": 0.1135,
      "velocity": 122,
      "chip": "ym2612"
    },
    {
      "channel": 2,
      "note": 81,
      "start": 71.3794,
      "duration": 0.0114,
      "velocity": 121,
      "chip": "ym2612"
    },
    {
      "channel": 5,
      "note": 55,
      "start": 71.5134,
      "duration": 0.144,
      "velocity": 125,
      "chip": "ym2612"
    },
    {
      "channel": 2,
      "note": 81,
      "start": 71.5157,
      "duration": 0.0083,
      "velocity": 121,
      "chip": "ym2612"
    },
    {
      "channel": 0,
      "note": 60,
      "start": 71.5188,
      "duration": 0.055,
      "velocity": 116,
      "chip": "ym2612"
    },
    {
      "channel": 1,
      "note": 58,
      "start": 71.5213,
      "duration": 0.0526,
      "velocity": 116,
      "chip": "ym2612"
    },
    {
      "channel": 2,
      "note": 81,
      "start": 71.6463,
      "duration": 0.1112,
      "velocity": 104,
      "chip": "ym2612"
    },
    {
      "channel": 2,
      "note": 81,
      "start": 71.7633,
      "duration": 0.0274,
      "velocity": 121,
      "chip": "ym2612"
    },
    {
      "channel": 0,
      "note": 60,
      "start": 71.7666,
      "duration": 0.1239,
      "velocity": 116,
      "chip": "ym2612"
    },
    {
      "channel": 1,
      "note": 58,
      "start": 71.7695,
      "duration": 0.1212,
      "velocity": 116,
      "chip": "ym2612"
    },
    {
      "channel": 2,
      "note": 81,
      "start": 71.8601,
      "duration": 0.014,
      "velocity": 121,
      "chip": "ym2612"
    },
    {
      "channel": 2,
      "note": 81,
      "start": 71.9435,
      "duration": 0.0139,
      "velocity": 121,
      "chip": "ym2612"
    },
    {
      "channel": 2,
      "note": 81,
      "start": 72.0103,
      "duration": 0.0304,
      "velocity": 121,
      "chip": "ym2612"
    },
    {
      "channel": 5,
      "note": 45,
      "start": 72.0303,
      "duration": 0.0604,
      "velocity": 122,
      "chip": "ym2612"
    },
    {
      "channel": 5,
      "note": 45,
      "start": 72.1605,
      "duration": 0.0802,
      "velocity": 122,
      "chip": "ym2612"
    },
    {
      "channel": 2,
      "note": 81,
      "start": 72.1632,
      "duration": 0.0109,
      "velocity": 121,
      "chip": "ym2612"
    },
    {
      "channel": 0,
      "note": 60,
      "start": 72.1664,
      "duration": 0.2408,
      "velocity": 116,
      "chip": "ym2612"
    },
    {
      "channel": 1,
      "note": 58,
      "start": 72.169,
      "duration": 0.2383,
      "velocity": 116,
      "chip": "ym2612"
    },
    {
      "channel": 2,
      "note": 81,
      "start": 72.2767,
      "duration": 0.0307,
      "velocity": 121,
      "chip": "ym2612"
    },
    {
      "channel": 5,
      "note": 45,
      "start": 72.4107,
      "duration": 0.08,
      "velocity": 122,
      "chip": "ym2612"
    },
    {
      "channel": 2,
      "note": 81,
      "start": 72.4149,
      "duration": 0.0924,
      "velocity": 104,
      "chip": "ym2612"
    },
    {
      "channel": 5,
      "note": 55,
      "start": 72.5467,
      "duration": 0.1773,
      "velocity": 125,
      "chip": "ym2612"
    },
    {
      "channel": 2,
      "note": 81,
      "start": 72.5505,
      "duration": 0.0069,
      "velocity": 121,
      "chip": "ym2612"
    },
    {
      "channel": 2,
      "note": 81,
      "start": 72.6601,
      "duration": 0.0306,
      "velocity": 121,
      "chip": "ym2612"
    },
    {
      "channel": 0,
      "note": 58,
      "start": 72.6633,
      "duration": 0.0439,
      "velocity": 116,
      "chip": "ym2612"
    },
    {
      "channel": 0,
      "note": 60,
      "start": 72.7778,
      "duration": 0.0627,
      "velocity": 116,
      "chip": "ym2612"
    },
    {
      "channel": 2,
      "note": 81,
      "start": 72.7963,
      "duration": 0.111,
      "velocity": 104,
      "chip": "ym2612"
    },
    {
      "channel": 1,
      "note": 58,
      "start": 72.7995,
      "duration": 0.0578,
      "velocity": 116,
      "chip": "ym2612"
    },
    {
      "channel": 3,
      "note": 60,
      "start": 72.8026,
      "duration": 0.0548,
      "velocity": 116,
      "chip": "ym2612"
    },
    {
      "channel": 2,
      "note": 81,
      "start": 72.9302,
      "duration": 0.0106,
      "velocity": 121,
      "chip": "ym2612"
    },
    {
      "channel": 5,
      "note": 45,
      "start": 73.0636,
      "duration": 0.0437,
      "velocity": 122,
      "chip": "ym2612"
    },
    {
      "channel": 2,
      "note": 81,
      "start": 73.066,
      "duration": 0.0081,
      "velocity": 121,
      "chip": "ym2612"
    },
    {
      "channel": 5,
      "note": 45,
      "start": 73.177,
      "duration": 0.0803,
      "velocity": 122,
      "chip": "ym2612"
    },
    {
      "channel": 2,
      "note": 81,
      "start": 73.1808,
      "duration": 0.4433,
      "velocity": 104,
      "chip": "ym2612"
    },
    {
      "channel": 0,
      "note": 60,
      "start": 73.1849,
      "duration": 0.0556,
      "velocity": 116,
      "chip": "ym2612"
    },
    {
      "channel": 1,
      "note": 58,
      "start": 73.1877,
      "duration": 0.0362,
      "velocity": 116,
      "chip": "ym2612"
    },
    {
      "channel": 5,
      "note": 55,
      "start": 73.3134,
      "duration": 0.0939,
      "velocity": 125,
      "chip": "ym2612"
    },
    {
      "channel": 5,
      "note": 45,
      "start": 73.4466,
      "duration": 0.0774,
      "velocity": 122,
      "chip": "ym2612"
    },
    {
      "channel": 5,
      "note": 55,
      "start": 73.5641,
      "duration": 0.1266,
      "velocity": 125,
      "chip": "ym2612"
    },
    {
      "channel": 2,
      "note": 81,
      "start": 73.6966,
      "duration": 0.0107,
      "velocity": 121,
      "chip": "ym2612"
    },
    {
      "channel": 2,
      "note": 81,
      "start": 73.8268,
      "duration": 0.0139,
      "velocity": 121,
      "chip": "ym2612"
    },
    {
      "channel": 2,
      "note": 81,
      "start": 73.9101,
      "duration": 0.014,
      "velocity": 121,
      "chip": "ym2612"
    },
    {
      "channel": 2,
      "note": 81,
      "start": 73.9932,
      "duration": 0.0141,
      "velocity": 121,
      "chip": "ym2612"
    },
    {
      "channel": 5,
      "note": 45,
      "start": 74.0808,
      "duration": 0.0767,
      "velocity": 122,
      "chip": "ym2612"
    },
    {
      "channel": 2,
      "note": 81,
      "start": 74.0846,
      "duration": 0.0228,
      "velocity": 121,
      "chip": "ym2612"
    },
    {
      "channel": 4,
      "note": 56,
      "start": 74.0876,
      "duration": 0.103,
      "velocity": 97,
      "chip": "ym2612"
    },
    {
      "channel": 3,
      "note": 63,
      "start": 74.0909,
      "duration": 0.0663,
      "velocity": 107,
      "chip": "ym2612"
    },
    {
      "channel": 5,
      "note": 45,
      "start": 74.2133,
      "duration": 0.094,
      "velocity": 122,
      "chip": "ym2612"
    },
    {
      "channel": 2,
      "note": 81,
      "start": 74.2157,
      "duration": 0.0083,
      "velocity": 121,
      "chip": "ym2612"
    },
    {
      "channel": 4,
      "note": 58,
      "start": 74.2185,
      "duration": 0.0721,
      "velocity": 97,
      "chip": "ym2612"
    },
    {
      "channel": 3,
      "note": 65,
      "start": 74.2214,
      "duration": 0.0691,
      "velocity": 107,
      "chip": "ym2612"
    },
    {
      "channel": 2,
      "note": 81,
      "start": 74.3433,
      "duration": 0.0141,
      "velocity": 121,
      "chip": "ym2612"
    },
    {
      "channel": 4,
      "note": 59,
      "start": 74.3464,
      "duration": 0.0941,
      "velocity": 97,
      "chip": "ym2612"
    },
    {
      "channel": 3,
      "note": 66,
      "start": 74.3494,
      "duration": 0.0745,
      "velocity": 107,
      "chip": "ym2612"
    },
    {
      "channel": 5,
      "note": 45,
      "start": 74.4605,
      "duration": 0.1302,
      "velocity": 122,
      "chip": "ym2612"
    },
    {
      "channel": 2,
      "note": 81,
      "start": 74.4629,
      "duration": 0.0279,
      "velocity": 121,
      "chip": "ym2612"
    },
    {
      "channel": 4,
      "note": 61,
      "start": 74.4655,
      "duration": 0.1084,
      "velocity": 97,
      "chip": "ym2612"
    },
    {
      "channel": 3,
      "note": 68,
      "start": 74.469,
      "duration": 0.1048,
      "velocity": 107,
      "chip": "ym2612"
    },
    {
      "channel": 5,
      "note": 55,
      "start": 74.5973,
      "duration": 0.1599,
      "velocity": 125,
      "chip": "ym2612"
    },
    {
      "channel": 2,
      "note": 81,
      "start": 74.5997,
      "duration": 0.0076,
      "velocity": 121,
      "chip": "ym2612"
    },
    {
      "channel": 4,
      "note": 66,
      "start": 74.6024,
      "duration": 0.105,
      "velocity": 97,
      "chip": "ym2612"
    },
    {
      "channel": 3,
      "note": 70,
      "start": 74.6052,
      "duration": 0.102,
      "velocity": 107,
      "chip": "ym2612"
    },
    {
      "channel": 2,
      "note": 81,
      "start": 74.7266,
      "duration": 0.0141,
      "velocity": 121,
      "chip": "ym2612"
    },
    {
      "channel": 4,
      "note": 56,
      "start": 74.7292,
      "duration": 0.0947,
      "velocity": 97,
      "chip": "ym2612"
    },
    {
      "channel": 3,
      "note": 59,
      "start": 74.7323,
      "duration": 0.0749,
      "velocity": 107,
      "chip": "ym2612"
    },
    {
      "channel": 2,
      "note": 81,
      "start": 74.8599,
      "duration": 0.0142,
      "velocity": 121,
      "chip": "ym2612"
    },
    {
      "channel": 4,
      "note": 59,
      "start": 74.8627,
      "duration": 0.078,
      "velocity": 97,
      "chip": "ym2612"
    },
    {
      "channel": 3,
      "note": 66,
      "start": 74.8656,
      "duration": 0.0749,
      "velocity": 107,
      "chip": "ym2612"
    },
    {
      "channel": 2,
      "note": 81,
      "start": 74.98,
      "duration": 0.2108,
      "velocity": 104,
      "chip": "ym2612"
    },
    {
      "channel": 4,
      "note": 54,
      "start": 74.9827,
      "duration": 0.0747,
      "velocity": 97,
      "chip": "ym2612"
    },
    {
      "channel": 3,
      "note": 54,
      "start": 74.9855,
      "duration": 0.0717,
      "velocity": 107,
      "chip": "ym2612"
    },
    {
      "channel": 5,
      "note": 45,
      "start": 75.1133,
      "duration": 0.0607,
      "velocity": 122,
      "chip": "ym2612"
    },
    {
      "channel": 4,
      "note": 61,
      "start": 75.1162,
      "duration": 0.091,
      "velocity": 97,
      "chip": "ym2612"
    },
    {
      "channel": 3,
      "note": 63,
      "start": 75.1191,
      "duration": 0.0715,
      "velocity": 107,
      "chip": "ym2612"
    },
    {
      "channel": 5,
      "note": 45,
      "start": 75.2437,
      "duration": 0.0971,
      "velocity": 122,
      "chip": "ym2612"
    },
    {
      "channel": 2,
      "note": 81,
      "start": 75.2476,
      "duration": 0.0098,
      "velocity": 121,
      "chip": "ym2612"
    },
    {
      "channel": 4,
      "note": 56,
      "start": 75.2505,
      "duration": 0.0902,
      "velocity": 97,
      "chip": "ym2612"
    },
    {
      "channel": 3,
      "note": 59,
      "start": 75.2539,
      "duration": 0.0867,
      "velocity": 107,
      "chip": "ym2612"
    },
    {
      "channel": 2,
      "note": 81,
      "start": 75.3599,
      "duration": 0.0308,
      "velocity": 121,
      "chip": "ym2612"
    },
    {
      "channel": 5,
      "note": 45,
      "start": 75.4959,
      "duration": 0.1114,
      "velocity": 122,
      "chip": "ym2612"
    },
    {
      "channel": 2,
      "note": 81,
      "start": 75.4982,
      "duration": 0.0092,
      "velocity": 121,
      "chip": "ym2612"
    },
    {
      "channel": 5,
      "note": 55,
      "start": 75.6298,
      "duration": 0.0942,
      "velocity": 125,
      "chip": "ym2612"
    },
    {
      "channel": 2,
      "note": 81,
      "start": 75.6322,
      "duration": 0.0086,
      "velocity": 121,
      "chip": "ym2612"
    },
    {
      "channel": 2,
      "note": 81,
      "start": 75.7601,
      "duration": 0.0141,
      "velocity": 121,
      "chip": "ym2612"
    },
    {
      "channel": 0,
      "note": 60,
      "start": 75.7633,
      "duration": 0.0605,
      "velocity": 116,
      "chip": "ym2612"
    },
    {
      "channel": 1,
      "note": 58,
      "start": 75.766,
      "duration": 0.0079,
      "velocity": 116,
      "chip": "ym2612"
    },
    {
      "channel": 2,
      "note": 81,
      "start": 75.8768,
      "duration": 0.0306,
      "velocity": 121,
      "chip": "ym2612"
    },
    {
      "channel": 0,
      "note": 60,
      "start": 75.8801,
      "duration": 0.0937,
      "velocity": 116,
      "chip": "ym2612"
    },
    {
      "channel": 1,
      "note": 58,
      "start": 75.8832,
      "duration": 0.0574,
      "velocity": 116,
      "chip": "ym2612"
    },
    {
      "channel": 2,
      "note": 81,
      "start": 75.9767,
      "duration": 0.0139,
      "velocity": 121,
      "chip": "ym2612"
    },
    {
      "channel": 2,
      "note": 81,
      "start": 76.0599,
      "duration": 0.0141,
      "velocity": 121,
      "chip": "ym2612"
    },
    {
      "channel": 5,
      "note": 45,
      "start": 76.1466,
      "duration": 0.0609,
      "velocity": 122,
      "chip": "ym2612"
    },
    {
      "channel": 2,
      "note": 81,
      "start": 76.1508,
      "duration": 0.1233,
      "velocity": 104,
      "chip": "ym2612"
    },
    {
      "channel": 3,
      "note": 94,
      "start": 76.1546,
      "duration": 0.0194,
      "velocity": 99,
      "chip": "ym2612"
    },
    {
      "channel": 0,
      "note": 60,
      "start": 76.1575,
      "duration": 0.0496,
      "velocity": 116,
      "chip": "ym2612"
    },
    {
      "channel": 1,
      "note": 58,
      "start": 76.1601,
      "duration": 0.0472,
      "velocity": 116,
      "chip": "ym2612"
    },
    {
      "channel": 4,
      "note": 101,
      "start": 76.2279,
      "duration": 0.046,
      "velocity": 99,
      "chip": "ym2612"
    },
    {
      "channel": 5,
      "note": 45,
      "start": 76.2773,
      "duration": 0.0966,
      "velocity": 122,
      "chip": "ym2612"
    },
    {
      "channel": 2,
      "note": 81,
      "start": 76.2812,
      "duration": 0.0096,
      "velocity": 121,
      "chip": "ym2612"
    },
    {
      "channel": 3,
      "note": 94,
      "start": 76.361,
      "duration": 0.0629,
      "velocity": 99,
      "chip": "ym2612"
    },
    {
      "channel": 2,
      "note": 81,
      "start": 76.3934,
      "duration": 0.0307,
      "velocity": 121,
      "chip": "ym2612"
    },
    {
      "channel": 0,
      "note": 60,
      "start": 76.3966,
      "duration": 0.1272,
      "velocity": 116,
      "chip": "ym2612"
    },
    {
      "channel": 1,
      "note": 58,
      "start": 76.3992,
      "duration": 0.1247,
      "velocity": 116,
      "chip": "ym2612"
    },
    {
      "channel": 3,
      "note": 87,
      "start": 76.4276,
      "duration": 0.0297,
      "velocity": 99,
      "chip": "ym2612"
    },
    {
      "channel": 4,
      "note": 101,
      "start": 76.4612,
      "duration": 0.0631,
      "velocity": 99,
      "chip": "ym2612"
    },
    {
      "channel": 3,
      "note": 82,
      "start": 76.4774,
      "duration": 0.0466,
      "velocity": 99,
      "chip": "ym2612"
    },
    {
      "channel": 5,
      "note": 66,
      "start": 76.5112,
      "duration": 0.0962,
      "velocity": 99,
      "chip": "ym2612"
    },
    {
      "channel": 2,
      "note": 45,
      "start": 76.5293,
      "duration": 0.0024,
      "velocity": 122,
      "chip": "ym2612"
    },
    {
      "channel": 2,
      "note": 81,
      "start": 76.5335,
      "duration": 0.0907,
      "velocity": 104,
      "chip": "ym2612"
    },
    {
      "channel": 4,
      "note": 94,
      "start": 76.5373,
      "duration": 0.01,
      "velocity": 99,
      "chip": "ym2612"
    },
    {
      "channel": 0,
      "note": 60,
      "start": 76.5414,
      "duration": 0.2325,
      "velocity": 116,
      "chip": "ym2612"
    },
    {
      "channel": 1,
      "note": 58,
      "start": 76.5456,
      "duration": 0.2284,
      "velocity": 116,
      "chip": "ym2612"
    },
    {
      "channel": 4,
      "note": 89,
      "start": 76.5776,
      "duration": 0.0464,
      "velocity": 99,
      "chip": "ym2612"
    },
    {
      "channel": 3,
      "note": 78,
      "start": 76.611,
      "duration": 0.113,
      "velocity": 99,
      "chip": "ym2612"
    },
    {
      "channel": 5,
      "note": 73,
      "start": 76.6142,
      "duration": 0.0765,
      "velocity": 99,
      "chip": "ym2612"
    },
    {
      "channel": 4,
      "note": 55,
      "start": 76.6634,
      "duration": 0.1438,
      "velocity": 125,
      "chip": "ym2612"
    },
    {
      "channel": 2,
      "note": 81,
      "start": 76.6673,
      "duration": 0.0069,
      "velocity": 121,
      "chip": "ym2612"
    },
    {
      "channel": 5,
      "note": 85,
      "start": 76.6947,
      "duration": 0.1293,
      "velocity": 99,
      "chip": "ym2612"
    },
    {
      "channel": 2,
      "note": 81,
      "start": 76.7797,
      "duration": 0.1111,
      "velocity": 104,
      "chip": "ym2612"
    },
    {
      "channel": 3,
      "note": 83,
      "start": 76.7831,
      "duration": 0.1242,
      "velocity": 99,
      "chip": "ym2612"
    },
    {
      "channel": 5,
      "note": 90,
      "start": 76.8945,
      "duration": 0.1295,
      "velocity": 99,
      "chip": "ym2612"
    },
    {
      "channel": 2,
      "note": 81,
      "start": 76.9134,
      "duration": 0.0107,
      "velocity": 121,
      "chip": "ym2612"
    },
    {
      "channel": 3,
      "note": 89,
      "start": 76.9608,
      "duration": 0.0798,
      "velocity": 99,
      "chip": "ym2612"
    },
    {
      "channel": 2,
      "note": 81,
      "start": 77.0435,
      "duration": 0.014,
      "velocity": 121,
      "chip": "ym2612"
    },
    {
      "channel": 5,
      "note": 96,
      "start": 77.0469,
      "duration": 0.0771,
      "velocity": 99,
      "chip": "ym2612"
    },
    {
      "channel": 3,
      "note": 79,
      "start": 77.1275,
      "duration": 0.0798,
      "velocity": 99,
      "chip": "ym2612"
    },
    {
      "channel": 4,
      "note": 45,
      "start": 77.1798,
      "duration": 0.0441,
      "velocity": 122,
      "chip": "ym2612"
    },
    {
      "channel": 2,
      "note": 81,
      "start": 77.1823,
      "duration": 0.0085,
      "velocity": 121,
      "chip": "ym2612"
    },
    {
      "channel": 5,
      "note": 86,
      "start": 77.2129,
      "duration": 0.0778,
      "velocity": 99,
      "chip": "ym2612"
    },
    {
      "channel": 4,
      "note": 45,
      "start": 77.2939,
      "duration": 0.1134,
      "velocity": 122,
      "chip": "ym2612"
    },
    {
      "channel": 2,
      "note": 81,
      "start": 77.2963,
      "duration": 0.0279,
      "velocity": 121,
      "chip": "ym2612"
    },
    {
      "channel": 0,
      "note": 58,
      "start": 77.2996,
      "duration": 0.0409,
      "velocity": 116,
      "chip": "ym2612"
    },
    {
      "channel": 0,
      "note": 60,
      "start": 77.4111,
      "duration": 0.0627,
      "velocity": 116,
      "chip": "ym2612"
    },
    {
      "channel": 2,
      "note": 81,
      "start": 77.4297,
      "duration": 0.4612,
      "velocity": 104,
      "chip": "ym2612"
    },
    {
      "channel": 1,
      "note": 58,
      "start": 77.4328,
      "duration": 0.0577,
      "velocity": 116,
      "chip": "ym2612"
    },
    {
      "channel": 3,
      "note": 60,
      "start": 77.4356,
      "duration": 0.0551,
      "velocity": 116,
      "chip": "ym2612"
    },
    {
      "channel": 5,
      "note": 96,
      "start": 77.4779,
      "duration": 0.0962,
      "velocity": 99,
      "chip": "ym2612"
    },
    {
      "channel": 4,
      "note": 45,
      "start": 77.5626,
      "duration": 0.0946,
      "velocity": 122,
      "chip": "ym2612"
    },
    {
      "channel": 0,
      "note": 103,
      "start": 77.5662,
      "duration": 0.1076,
      "velocity": 99,
      "chip": "ym2612"
    },
    {
      "channel": 4,
      "note": 55,
      "start": 77.68,
      "duration": 0.1774,
      "velocity": 125,
      "chip": "ym2612"
    },
    {
      "channel": 5,
      "note": 80,
      "start": 77.6834,
      "duration": 0.0406,
      "velocity": 99,
      "chip": "ym2612"
    },
    {
      "channel": 0,
      "note": 87,
      "start": 77.7777,
      "duration": 0.0461,
      "velocity": 99,
      "chip": "ym2612"
    },
    {
      "channel": 5,
      "note": 89,
      "start": 77.811,
      "duration": 0.0797,
      "velocity": 99,
      "chip": "ym2612"
    },
    {
      "channel": 1,
      "note": 60,
      "start": 77.8153,
      "duration": 0.0586,
      "velocity": 116,
      "chip": "ym2612"
    },
    {
      "channel": 3,
      "note": 58,
      "start": 77.8185,
      "duration": 0.0387,
      "velocity": 116,
      "chip": "ym2612"
    },
    {
      "channel": 0,
      "note": 96,
      "start": 77.8945,
      "duration": 0.0792,
      "velocity": 99,
      "chip": "ym2612"
    },
    {
      "channel": 2,
      "note": 81,
      "start": 77.9466,
      "duration": 0.0107,
      "velocity": 121,
      "chip": "ym2612"
    },
    {
      "channel": 5,
      "note": 89,
      "start": 77.9794,
      "duration": 0.0945,
      "velocity": 99,
      "chip": "ym2612"
    },
    {
      "channel": 2,
      "note": 81,
      "start": 78.0267,
      "duration": 0.014,
      "velocity": 121,
      "chip": "ym2612"
    },
    {
      "channel": 0,
      "note": 96,
      "start": 78.0777,
      "duration": 0.0795,
      "velocity": 99,
      "chip": "ym2612"
    },
    {
      "channel": 2,
      "note": 81,
      "start": 78.11,
      "duration": 0.0141,
      "velocity": 121,
      "chip": "ym2612"
    },
    {
      "channel": 4,
      "note": 45,
      "start": 78.1966,
      "duration": 0.0607,
      "velocity": 122,
      "chip": "ym2612"
    },
    {
      "channel": 2,
      "note": 81,
      "start": 78.2004,
      "duration": 0.0736,
      "velocity": 104,
      "chip": "ym2612"
    },
    {
      "channel": 3,
      "note": 56,
      "start": 78.2033,
      "duration": 0.1039,
      "velocity": 97,
      "chip": "ym2612"
    },
    {
      "channel": 1,
      "note": 63,
      "start": 78.2068,
      "duration": 0.067,
      "velocity": 107,
      "chip": "ym2612"
    },
    {
      "channel": 4,
      "note": 45,
      "start": 78.3291,
      "duration": 0.0783,
      "velocity": 122,
      "chip": "ym2612"
    },
    {
      "channel": 2,
      "note": 81,
      "start": 78.3334,
      "duration": 0.0074,
      "velocity": 121,
      "chip": "ym2612"
    },
    {
      "channel": 3,
      "note": 58,
      "start": 78.3361,
      "duration": 0.0712,
      "velocity": 97,
      "chip": "ym2612"
    },
    {
      "channel": 1,
      "note": 65,
      "start": 78.3389,
      "duration": 0.0682,
      "velocity": 107,
      "chip": "ym2612"
    },
    {
      "channel": 2,
      "note": 81,
      "start": 78.4599,
      "duration": 0.0142,
      "velocity": 121,
      "chip": "ym2612"
    },
    {
      "channel": 3,
      "note": 59,
      "start": 78.463,
      "duration": 0.0941,
      "velocity": 97,
      "chip": "ym2612"
    },
    {
      "channel": 1,
      "note": 66,
      "start": 78.4659,
      "duration": 0.0746,
      "velocity": 107,
      "chip": "ym2612"
    },
    {
      "channel": 4,
      "note": 45,
      "start": 78.5771,
      "duration": 0.1137,
      "velocity": 122,
      "chip": "ym2612"
    },
    {
      "channel": 2,
      "note": 81,
      "start": 78.5794,
      "duration": 0.0278,
      "velocity": 121,
      "chip": "ym2612"
    },
    {
      "channel": 3,
      "note": 61,
      "start": 78.582,
      "duration": 0.1086,
      "velocity": 97,
      "chip": "ym2612"
    },
    {
      "channel": 1,
      "note": 68,
      "start": 78.5854,
      "duration": 0.1051,
      "velocity": 107,
      "chip": "ym2612"
    },
    {
      "channel": 4,
      "note": 55,
      "start": 78.7133,
      "duration": 0.1606,
      "velocity": 125,
      "chip": "ym2612"
    },
    {
      "channel": 2,
      "note": 81,
      "start": 78.7157,
      "duration": 0.0083,
      "velocity": 121,
      "chip": "ym2612"
    },
    {
      "channel": 3,
      "note": 66,
      "start": 78.7183,
      "duration": 0.1057,
      "velocity": 97,
      "chip": "ym2612"
    },
    {
      "channel": 1,
      "note": 70,
      "start": 78.7211,
      "duration": 0.1027,
      "velocity": 107,
      "chip": "ym2612"
    },
    {
      "channel": 2,
      "note": 81,
      "start": 78.8433,
      "duration": 0.0141,
      "velocity": 121,
      "chip": "ym2612"
    },
    {
      "channel": 3,
      "note": 59,
      "start": 78.8458,
      "duration": 0.0947,
      "velocity": 97,
      "chip": "ym2612"
    },
    {
      "channel": 1,
      "note": 59,
      "start": 78.8488,
      "duration": 0.075,
      "velocity": 107,
      "chip": "ym2612"
    },
    {
      "channel": 2,
      "note": 81,
      "start": 78.9796,
      "duration": 0.0944,
      "velocity": 104,
      "chip": "ym2612"
    },
    {
      "channel": 3,
      "note": 63,
      "start": 78.9824,
      "duration": 0.0748,
      "velocity": 97,
      "chip": "ym2612"
    },
    {
      "channel": 1,
      "note": 66,
      "start": 78.9852,
      "duration": 0.0719,
      "velocity": 107,
      "chip": "ym2612"
    },
    {
      "channel": 2,
      "note": 81,
      "start": 79.0966,
      "duration": 0.0273,
      "velocity": 121,
      "chip": "ym2612"
    },
    {
      "channel": 3,
      "note": 56,
      "start": 79.0993,
      "duration": 0.0747,
      "velocity": 97,
      "chip": "ym2612"
    },
    {
      "channel": 1,
      "note": 54,
      "start": 79.102,
      "duration": 0.0718,
      "velocity": 107,
      "chip": "ym2612"
    },
    {
      "channel": 4,
      "note": 45,
      "start": 79.2299,
      "duration": 0.0607,
      "velocity": 122,
      "chip": "ym2612"
    },
    {
      "channel": 2,
      "note": 81,
      "start": 79.2323,
      "duration": 0.0084,
      "velocity": 121,
      "chip": "ym2612"
    },
    {
      "channel": 3,
      "note": 61,
      "start": 79.235,
      "duration": 0.0889,
      "velocity": 97,
      "chip": "ym2612"
    },
    {
      "channel": 1,
      "note": 63,
      "start": 79.2379,
      "duration": 0.0693,
      "velocity": 107,
      "chip": "ym2612"
    },
    {
      "channel": 4,
      "note": 45,
      "start": 79.3627,
      "duration": 0.0947,
      "velocity": 122,
      "chip": "ym2612"
    },
    {
      "channel": 2,
      "note": 81,
      "start": 79.3651,
      "duration": 0.0089,
      "velocity": 121,
      "chip": "ym2612"
    },
    {
      "channel": 3,
      "note": 54,
      "start": 79.3677,
      "duration": 0.0896,
      "velocity": 97,
      "chip": "ym2612"
    },
    {
      "channel": 1,
      "note": 59,
      "start": 79.3707,
      "duration": 0.0865,
      "velocity": 107,
      "chip": "ym2612"
    },
    {
      "channel": 2,
      "note": 81,
      "start": 79.4765,
      "duration": 0.0307,
      "velocity": 121,
      "chip": "ym2612"
    },
    {
      "channel": 3,
      "note": 59,
      "start": 79.4793,
      "duration": 0.128,
      "velocity": 97,
      "chip": "ym2612"
    },
    {
      "channel": 1,
      "note": 61,
      "start": 79.4823,
      "duration": 0.1249,
      "velocity": 107,
      "chip": "ym2612"
    },
    {
      "channel": 4,
      "note": 45,
      "start": 79.6105,
      "duration": 0.1134,
      "velocity": 122,
      "chip": "ym2612"
    },
    {
      "channel": 2,
      "note": 81,
      "start": 79.6129,
      "duration": 0.0111,
      "velocity": 121,
      "chip": "ym2612"
    },
    {
      "channel": 3,
      "note": 51,
      "start": 79.6155,
      "duration": 0.1251,
      "velocity": 97,
      "chip": "ym2612"
    },
    {
      "channel": 1,
      "note": 66,
      "start": 79.6183,
      "duration": 0.1222,
      "velocity": 107,
      "chip": "ym2612"
    },
    {
      "channel": 4,
      "note": 55,
      "start": 79.7466,
      "duration": 0.1439,
      "velocity": 125,
      "chip": "ym2612"
    },
    {
      "channel": 2,
      "note": 81,
      "start": 79.749,
      "duration": 0.0083,
      "velocity": 121,
      "chip": "ym2612"
    },
    {
      "channel": 3,
      "note": 58,
      "start": 79.7516,
      "duration": 0.1223,
      "velocity": 97,
      "chip": "ym2612"
    },
    {
      "channel": 1,
      "note": 68,
      "start": 79.7544,
      "duration": 0.1193,
      "velocity": 107,
      "chip": "ym2612"
    },
    {
      "channel": 2,
      "note": 81,
      "start": 79.8797,
      "duration": 0.1112,
      "velocity": 104,
      "chip": "ym2612"
    },
    {
      "channel": 3,
      "note": 54,
      "start": 79.8823,
      "duration": 0.1084,
      "velocity": 97,
      "chip": "ym2612"
    },
    {
      "channel": 1,
      "note": 63,
      "start": 79.8851,
      "duration": 0.1055,
      "velocity": 107,
      "chip": "ym2612"
    },
    {
      "channel": 2,
      "note": 81,
      "start": 79.9966,
      "duration": 0.0274,
      "velocity": 121,
      "chip": "ym2612"
    },
    {
      "channel": 3,
      "note": 56,
      "start": 79.9996,
      "duration": 0.1243,
      "velocity": 97,
      "chip": "ym2612"
    },
    {
      "channel": 1,
      "note": 73,
      "start": 80.0024,
      "duration": 0.1214,
      "velocity": 107,
      "chip": "ym2612"
    },
    {
      "channel": 2,
      "note": 81,
      "start": 80.0933,
      "duration": 0.014,
      "velocity": 121,
      "chip": "ym2612"
    },
    {
      "channel": 3,
      "note": 59,
      "start": 80.1271,
      "duration": 0.1301,
      "velocity": 97,
      "chip": "ym2612"
    },
    {
      "channel": 1,
      "note": 78,
      "start": 80.1304,
      "duration": 0.1268,
      "velocity": 107,
      "chip": "ym2612"
    },
    {
      "channel": 2,
      "note": 81,
      "start": 80.1767,
      "duration": 0.0139,
      "velocity": 121,
      "chip": "ym2612"
    },
    {
      "channel": 2,
      "note": 81,
      "start": 80.2436,
      "duration": 0.0304,
      "velocity": 121,
      "chip": "ym2612"
    },
    {
      "channel": 4,
      "note": 45,
      "start": 80.2636,
      "duration": 0.0602,
      "velocity": 122,
      "chip": "ym2612"
    },
    {
      "channel": 3,
      "note": 58,
      "start": 80.2663,
      "duration": 0.1242,
      "velocity": 97,
      "chip": "ym2612"
    },
    {
      "channel": 1,
      "note": 75,
      "start": 80.2692,
      "duration": 0.1212,
      "velocity": 107,
      "chip": "ym2612"
    },
    {
      "channel": 4,
      "note": 45,
      "start": 80.3938,
      "duration": 0.0801,
      "velocity": 122,
      "chip": "ym2612"
    },
    {
      "channel": 2,
      "note": 81,
      "start": 80.3965,
      "duration": 0.0109,
      "velocity": 121,
      "chip": "ym2612"
    },
    {
      "channel": 3,
      "note": 49,
      "start": 80.3991,
      "duration": 0.1081,
      "velocity": 97,
      "chip": "ym2612"
    },
    {
      "channel": 1,
      "note": 71,
      "start": 80.4019,
      "duration": 0.1051,
      "velocity": 107,
      "chip": "ym2612"
    },
    {
      "channel": 2,
      "note": 81,
      "start": 80.5101,
      "duration": 0.0305,
      "velocity": 121,
      "chip": "ym2612"
    },
    {
      "channel": 3,
      "note": 51,
      "start": 80.5127,
      "duration": 0.128,
      "velocity": 97,
      "chip": "ym2612"
    },
    {
      "channel": 1,
      "note": 70,
      "start": 80.5155,
      "duration": 0.1251,
      "velocity": 107,
      "chip": "ym2612"
    },
    {
      "channel": 4,
      "note": 45,
      "start": 80.6438,
      "duration": 0.0802,
      "velocity": 122,
      "chip": "ym2612"
    },
    {
      "channel": 2,
      "note": 81,
      "start": 80.648,
      "duration": 0.0925,
      "velocity": 104,
      "chip": "ym2612"
    },
    {
      "channel": 3,
      "note": 54,
      "start": 80.6507,
      "duration": 0.1232,
      "velocity": 97,
      "chip": "ym2612"
    },
    {
      "channel": 1,
      "note": 66,
      "start": 80.6534,
      "duration": 0.1203,
      "velocity": 107,
      "chip": "ym2612"
    },
    {
      "channel": 4,
      "note": 55,
      "start": 80.78,
      "duration": 0.1772,
      "velocity": 125,
      "chip": "ym2612"
    },
    {
      "channel": 2,
      "note": 81,
      "start": 80.7838,
      "duration": 0.0073,
      "velocity": 121,
      "chip": "ym2612"
    },
    {
      "channel": 3,
      "note": 56,
      "start": 80.7864,
      "duration": 0.1042,
      "velocity": 97,
      "chip": "ym2612"
    },
    {
      "channel": 1,
      "note": 68,
      "start": 80.7892,
      "duration": 0.1013,
      "velocity": 107,
      "chip": "ym2612"
    },
    {
      "channel": 2,
      "note": 81,
      "start": 80.8935,
      "duration": 0.0305,
      "velocity": 121,
      "chip": "ym2612"
    },
    {
      "channel": 3,
      "note": 59,
      "start": 80.8961,
      "duration": 0.1278,
      "velocity": 97,
      "chip": "ym2612"
    },
    {
      "channel": 1,
      "note": 70,
      "start": 80.8989,
      "duration": 0.1248,
      "velocity": 107,
      "chip": "ym2612"
    },
    {
      "channel": 2,
      "note": 81,
      "start": 81.0297,
      "duration": 0.111,
      "velocity": 104,
      "chip": "ym2612"
    },
    {
      "channel": 3,
      "note": 61,
      "start": 81.0323,
      "duration": 0.125,
      "velocity": 97,
      "chip": "ym2612"
    },
    {
      "channel": 1,
      "note": 71,
      "start": 81.0351,
      "duration": 0.1221,
      "velocity": 107,
      "chip": "ym2612"
    },
    {
      "channel": 2,
      "note": 81,
      "start": 81.1635,
      "duration": 0.0106,
      "velocity": 121,
      "chip": "ym2612"
    },
    {
      "channel": 3,
      "note": 66,
      "start": 81.1661,
      "duration": 0.1245,
      "velocity": 97,
      "chip": "ym2612"
    },
    {
      "channel": 1,
      "note": 73,
      "start": 81.1689,
      "duration": 0.1216,
      "velocity": 107,
      "chip": "ym2612"
    },
    {
      "channel": 4,
      "note": 45,
      "start": 81.2969,
      "duration": 0.0437,
      "velocity": 122,
      "chip": "ym2612"
    },
    {
      "channel": 2,
      "note": 81,
      "start": 81.2993,
      "duration": 0.0081,
      "velocity": 121,
      "chip": "ym2612"
    },
    {
      "channel": 3,
      "note": 49,
      "start": 81.3022,
      "duration": 0.3717,
      "velocity": 97,
      "chip": "ym2612"
    },
    {
      "channel": 1,
      "note": 70,
      "start": 81.3053,
      "duration": 0.3685,
      "velocity": 107,
      "chip": "ym2612"
    },
    {
      "channel": 4,
      "note": 45,
      "start": 81.4102,
      "duration": 0.0803,
      "velocity": 122,
      "chip": "ym2612"
    },
    {
      "channel": 2,
      "note": 81,
      "start": 81.4141,
      "duration": 0.4432,
      "velocity": 104,
      "chip": "ym2612"
    },
    {
      "channel": 4,
      "note": 55,
      "start": 81.5466,
      "duration": 0.0939,
      "velocity": 125,
      "chip": "ym2612"
    },
    {
      "channel": 4,
      "note": 45,
      "start": 81.6799,
      "duration": 0.0773,
      "velocity": 122,
      "chip": "ym2612"
    },
    {
      "channel": 3,
      "note": 51,
      "start": 81.6826,
      "duration": 0.3747,
      "velocity": 97,
      "chip": "ym2612"
    },
    {
      "channel": 1,
      "note": 73,
      "start": 81.6854,
      "duration": 0.3718,
      "velocity": 107,
      "chip": "ym2612"
    },
    {
      "channel": 4,
      "note": 55,
      "start": 81.7973,
      "duration": 0.1266,
      "velocity": 125,
      "chip": "ym2612"
    },
    {
      "channel": 2,
      "note": 81,
      "start": 81.93,
      "duration": 0.0107,
      "velocity": 121,
      "chip": "ym2612"
    },
    {
      "channel": 2,
      "note": 81,
      "start": 82.0603,
      "duration": 0.0137,
      "velocity": 121,
      "chip": "ym2612"
    },
    {
      "channel": 3,
      "note": 58,
      "start": 82.0636,
      "duration": 0.2436,
      "velocity": 97,
      "chip": "ym2612"
    },
    {
      "channel": 1,
      "note": 77,
      "start": 82.0667,
      "duration": 0.2404,
      "velocity": 107,
      "chip": "ym2612"
    },
    {
      "channel": 2,
      "note": 81,
      "start": 82.1433,
      "duration": 0.0141,
      "velocity": 121,
      "chip": "ym2612"
    },
    {
      "channel": 2,
      "note": 81,
      "start": 82.2267,
      "duration": 0.014,
      "velocity": 121,
      "chip": "ym2612"
    },
    {
      "channel": 4,
      "note": 45,
      "start": 82.3141,
      "duration": 0.0765,
      "velocity": 122,
      "chip": "ym2612"
    },
    {
      "channel": 2,
      "note": 81,
      "start": 82.3178,
      "duration": 0.0229,
      "velocity": 121,
      "chip": "ym2612"
    },
    {
      "channel": 3,
      "note": 63,
      "start": 82.3211,
      "duration": 2.053,
      "velocity": 97,
      "chip": "ym2612"
    },
    {
      "channel": 5,
      "note": 99,
      "start": 82.3244,
      "duration": 2.0499,
      "velocity": 99,
      "chip": "ym2612"
    },
    {
      "channel": 0,
      "note": 97,
      "start": 82.3291,
      "duration": 0.1113,
      "velocity": 99,
      "chip": "ym2612"
    },
    {
      "channel": 1,
      "note": 82,
      "start": 82.3328,
      "duration": 2.0412,
      "velocity": 107,
      "chip": "ym2612"
    },
    {
      "channel": 2,
      "note": 98,
      "start": 82.3945,
      "duration": 0.0464,
      "velocity": 99,
      "chip": "ym2612"
    },
    {
      "channel": 4,
      "note": 102,
      "start": 82.4277,
      "duration": 0.013,
      "velocity": 99,
      "chip": "ym2612"
    },
    {
      "channel": 0,
      "note": 45,
      "start": 82.4466,
      "duration": 0.0937,
      "velocity": 122,
      "chip": "ym2612"
    },
    {
      "channel": 2,
      "note": 81,
      "start": 82.449,
      "duration": 0.0083,
      "velocity": 121,
      "chip": "ym2612"
    },
    {
      "channel": 4,
      "note": 88,
      "start": 82.5112,
      "duration": 0.0127,
      "velocity": 99,
      "chip": "ym2612"
    },
    {
      "channel": 2,
      "note": 90,
      "start": 82.5141,
      "duration": 0.0099,
      "velocity": 99,
      "chip": "ym2612"
    },
    {
      "channel": 2,
      "note": 81,
      "start": 82.5765,
      "duration": 0.0142,
      "velocity": 121,
      "chip": "ym2612"
    },
    {
      "channel": 4,
      "note": 90,
      "start": 82.5945,
      "duration": 0.0795,
      "velocity": 99,
      "chip": "ym2612"
    },
    {
      "channel": 0,
      "note": 45,
      "start": 82.6935,
      "duration": 0.1303,
      "velocity": 122,
      "chip": "ym2612"
    },
    {
      "channel": 2,
      "note": 81,
      "start": 82.6959,
      "duration": 0.0282,
      "velocity": 121,
      "chip": "ym2612"
    },
    {
      "channel": 4,
      "note": 94,
      "start": 82.7279,
      "duration": 0.0293,
      "velocity": 99,
      "chip": "ym2612"
    },
    {
      "channel": 4,
      "note": 91,
      "start": 82.8126,
      "duration": 0.078,
      "velocity": 99,
      "chip": "ym2612"
    },
    {
      "channel": 0,
      "note": 55,
      "start": 82.8305,
      "duration": 0.16,
      "velocity": 125,
      "chip": "ym2612"
    },
    {
      "channel": 2,
      "note": 81,
      "start": 82.8328,
      "duration": 0.0079,
      "velocity": 121,
      "chip": "ym2612"
    },
    {
      "channel": 2,
      "note": 100,
      "start": 82.8948,
      "duration": 0.0634,
      "velocity": 99,
      "chip": "ym2612"
    },
    {
      "channel": 4,
      "note": 102,
      "start": 82.9443,
      "duration": 0.0171,
      "velocity": 99,
      "chip": "ym2612"
    },
    {
      "channel": 2,
      "note": 81,
      "start": 82.9602,
      "duration": 0.0139,
      "velocity": 121,
      "chip": "ym2612"
    },
    {
      "channel": 4,
      "note": 98,
      "start": 82.9636,
      "duration": 0.0604,
      "velocity": 99,
      "chip": "ym2612"
    },
    {
      "channel": 2,
      "note": 109,
      "start": 83.0463,
      "duration": 0.0451,
      "velocity": 99,
      "chip": "ym2612"
    },
    {
      "channel": 0,
      "note": 107,
      "start": 83.0494,
      "duration": 0.0578,
      "velocity": 99,
      "chip": "ym2612"
    },
    {
      "channel": 2,
      "note": 81,
      "start": 83.0934,
      "duration": 0.0142,
      "velocity": 121,
      "chip": "ym2612"
    },
    {
      "channel": 4,
      "note": 91,
      "start": 83.1944,
      "duration": 0.0464,
      "velocity": 99,
      "chip": "ym2612"
    },
    {
      "channel": 2,
      "note": 81,
      "start": 83.2133,
      "duration": 0.2107,
      "velocity": 104,
      "chip": "ym2612"
    },
    {
      "channel": 0,
      "note": 102,
      "start": 83.2776,
      "duration": 0.0148,
      "velocity": 99,
      "chip": "ym2612"
    },
    {
      "channel": 4,
      "note": 100,
      "start": 83.2807,
      "duration": 0.0434,
      "velocity": 99,
      "chip": "ym2612"
    },
    {
      "channel": 0,
      "note": 93,
      "start": 83.2945,
      "duration": 0.0501,
      "velocity": 99,
      "chip": "ym2612"
    },
    {
      "channel": 4,
      "note": 103,
      "start": 83.3278,
      "duration": 0.0629,
      "velocity": 99,
      "chip": "ym2612"
    },
    {
      "channel": 0,
      "note": 45,
      "start": 83.3466,
      "duration": 0.0605,
      "velocity": 122,
      "chip": "ym2612"
    },
    {
      "channel": 4,
      "note": 91,
      "start": 83.4279,
      "duration": 0.0461,
      "velocity": 99,
      "chip": "ym2612"
    },
    {
      "channel": 0,
      "note": 45,
      "start": 83.4771,
      "duration": 0.0967,
      "velocity": 122,
      "chip": "ym2612"
    },
    {
      "channel": 2,
      "note": 81,
      "start": 83.4809,
      "duration": 0.0099,
      "velocity": 121,
      "chip": "ym2612"
    },
    {
      "channel": 4,
      "note": 85,
      "start": 83.5463,
      "duration": 0.0777,
      "velocity": 99,
      "chip": "ym2612"
    },
    {
      "channel": 2,
      "note": 81,
      "start": 83.5935,
      "duration": 0.0307,
      "velocity": 121,
      "chip": "ym2612"
    },
    {
      "channel": 0,
      "note": 92,
      "start": 83.6447,
      "duration": 0.0625,
      "velocity": 99,
      "chip": "ym2612"
    },
    {
      "channel": 4,
      "note": 87,
      "start": 83.6611,
      "duration": 0.1128,
      "velocity": 99,
      "chip": "ym2612"
    },
    {
      "channel": 2,
      "note": 45,
      "start": 83.7293,
      "duration": 0.0005,
      "velocity": 122,
      "chip": "ym2612"
    },
    {
      "channel": 2,
      "note": 81,
      "start": 83.7317,
      "duration": 0.009,
      "velocity": 121,
      "chip": "ym2612"
    },
    {
      "channel": 0,
      "note": 94,
      "start": 83.7793,
      "duration": 0.0777,
      "velocity": 99,
      "chip": "ym2612"
    },
    {
      "channel": 4,
      "note": 97,
      "start": 83.8108,
      "duration": 0.1132,
      "velocity": 99,
      "chip": "ym2612"
    },
    {
      "channel": 2,
      "note": 55,
      "start": 83.8633,
      "duration": 0.0005,
      "velocity": 125,
      "chip": "ym2612"
    },
    {
      "channel": 2,
      "note": 81,
      "start": 83.8657,
      "duration": 0.0083,
      "velocity": 121,
      "chip": "ym2612"
    },
    {
      "channel": 0,
      "note": 103,
      "start": 83.9276,
      "duration": 0.0796,
      "velocity": 99,
      "chip": "ym2612"
    },
    {
      "channel": 2,
      "note": 81,
      "start": 83.9933,
      "duration": 0.0142,
      "velocity": 121,
      "chip": "ym2612"
    },
    {
      "channel": 4,
      "note": 93,
      "start": 83.9966,
      "duration": 0.0773,
      "velocity": 99,
      "chip": "ym2612"
    },
    {
      "channel": 2,
      "note": 81,
      "start": 84.1102,
      "duration": 0.0305,
      "velocity": 121,
      "chip": "ym2612"
    },
    {
      "channel": 2,
      "note": 81,
      "start": 84.1934,
      "duration": 0.0306,
      "velocity": 121,
      "chip": "ym2612"
    },
    {
      "channel": 4,
      "note": 89,
      "start": 84.2611,
      "duration": 0.1131,
      "velocity": 99,
      "chip": "ym2612"
    },
    {
      "channel": 2,
      "note": 81,
      "start": 84.2935,
      "duration": 0.0139,
      "velocity": 121,
      "chip": "ym2612"
    },
    {
      "channel": 0,
      "note": 83,
      "start": 84.3278,
      "duration": 0.1295,
      "velocity": 99,
      "chip": "ym2612"
    },
    {
      "channel": 2,
      "note": 45,
      "start": 84.3801,
      "duration": 0.0023,
      "velocity": 122,
      "chip": "ym2612"
    },
    {
      "channel": 2,
      "note": 81,
      "start": 84.3843,
      "duration": 0.1232,
      "velocity": 104,
      "chip": "ym2612"
    },
    {
      "channel": 1,
      "note": 45,
      "start": 84.5108,
      "duration": 0.0964,
      "velocity": 122,
      "chip": "ym2612"
    },
    {
      "channel": 2,
      "note": 81,
      "start": 84.5146,
      "duration": 0.0095,
      "velocity": 121,
      "chip": "ym2612"
    },
    {
      "channel": 0,
      "note": 80,
      "start": 84.5181,
      "duration": 0.0725,
      "velocity": 99,
      "chip": "ym2612"
    },
    {
      "channel": 3,
      "note": 87,
      "start": 84.5947,
      "duration": 0.0958,
      "velocity": 99,
      "chip": "ym2612"
    },
    {
      "channel": 0,
      "note": 92,
      "start": 84.611,
      "duration": 0.0629,
      "velocity": 99,
      "chip": "ym2612"
    },
    {
      "channel": 2,
      "note": 81,
      "start": 84.6267,
      "duration": 0.0307,
      "velocity": 121,
      "chip": "ym2612"
    },
    {
      "channel": 4,
      "note": 67,
      "start": 84.6303,
      "duration": 0.077,
      "velocity": 116,
      "chip": "ym2612"
    },
    {
      "channel": 5,
      "note": 65,
      "start": 84.633,
      "duration": 0.0744,
      "velocity": 116,
      "chip": "ym2612"
    },
    {
      "channel": 0,
      "note": 95,
      "start": 84.6777,
      "duration": 0.0961,
      "velocity": 99,
      "chip": "ym2612"
    },
    {
      "channel": 3,
      "note": 99,
      "start": 84.6945,
      "duration": 0.0627,
      "velocity": 99,
      "chip": "ym2612"
    },
    {
      "channel": 1,
      "note": 45,
      "start": 84.7624,
      "duration": 0.0948,
      "velocity": 122,
      "chip": "ym2612"
    },
    {
      "channel": 2,
      "note": 81,
      "start": 84.7666,
      "duration": 0.091,
      "velocity": 104,
      "chip": "ym2612"
    },
    {
      "channel": 3,
      "note": 102,
      "start": 84.7778,
      "duration": 0.0794,
      "velocity": 99,
      "chip": "ym2612"
    },
    {
      "channel": 0,
      "note": 100,
      "start": 84.8108,
      "duration": 0.0462,
      "velocity": 99,
      "chip": "ym2612"
    },
    {
      "channel": 4,
      "note": 107,
      "start": 84.8444,
      "duration": 0.1129,
      "velocity": 99,
      "chip": "ym2612"
    },
    {
      "channel": 5,
      "note": 65,
      "start": 84.8477,
      "duration": 0.0597,
      "velocity": 116,
      "chip": "ym2612"
    },
    {
      "channel": 0,
      "note": 67,
      "start": 84.8615,
      "duration": 0.0455,
      "velocity": 116,
      "chip": "ym2612"
    },
    {
      "channel": 1,
      "note": 55,
      "start": 84.8965,
      "duration": 0.1441,
      "velocity": 125,
      "chip": "ym2612"
    },
    {
      "channel": 2,
      "note": 81,
      "start": 84.9003,
      "duration": 0.0071,
      "velocity": 121,
      "chip": "ym2612"
    },
    {
      "channel": 3,
      "note": 107,
      "start": 84.9113,
      "duration": 0.0627,
      "velocity": 99,
      "chip": "ym2612"
    },
    {
      "channel": 0,
      "note": 114,
      "start": 84.9631,
      "duration": 0.0775,
      "velocity": 99,
      "chip": "ym2612"
    },
    {
      "channel": 4,
      "note": 97,
      "start": 84.9961,
      "duration": 0.0447,
      "velocity": 99,
      "chip": "ym2612"
    },
    {
      "channel": 2,
      "note": 81,
      "start": 85.013,
      "duration": 0.1112,
      "velocity": 104,
      "chip": "ym2612"
    },
    {
      "channel": 5,
      "note": 67,
      "start": 85.0164,
      "duration": 0.1077,
      "velocity": 116,
      "chip": "ym2612"
    },
    {
      "channel": 3,
      "note": 65,
      "start": 85.0195,
      "duration": 0.1044,
      "velocity": 116,
      "chip": "ym2612"
    },
    {
      "channel": 4,
      "note": 93,
      "start": 85.0611,
      "duration": 0.0129,
      "velocity": 99,
      "chip": "ym2612"
    },
    {
      "channel": 0,
      "note": 104,
      "start": 85.0778,
      "duration": 0.0627,
      "velocity": 99,
      "chip": "ym2612"
    },
    {
      "channel": 2,
      "note": 81,
      "start": 85.1467,
      "duration": 0.0107,
      "velocity": 121,
      "chip": "ym2612"
    },
    {
      "channel": 4,
      "note": 93,
      "start": 85.15,
      "duration": 0.0574,
      "velocity": 99,
      "chip": "ym2612"
    },
    {
      "channel": 0,
      "note": 100,
      "start": 85.1529,
      "duration": 0.0042,
      "velocity": 99,
      "chip": "ym2612"
    },
    {
      "channel": 0,
      "note": 100,
      "start": 85.2276,
      "duration": 0.0629,
      "velocity": 99,
      "chip": "ym2612"
    },
    {
      "channel": 2,
      "note": 81,
      "start": 85.2767,
      "duration": 0.0141,
      "velocity": 121,
      "chip": "ym2612"
    },
    {
      "channel": 4,
      "note": 107,
      "start": 85.28,
      "duration": 0.0939,
      "velocity": 99,
      "chip": "ym2612"
    },
    {
      "channel": 3,
      "note": 60,
      "start": 85.2831,
      "duration": 0.0741,
      "velocity": 116,
      "chip": "ym2612"
    },
    {
      "channel": 5,
      "note": 58,
      "start": 85.2858,
      "duration": 0.0716,
      "velocity": 116,
      "chip": "ym2612"
    },
    {
      "channel": 0,
      "note": 114,
      "start": 85.3777,
      "duration": 0.1127,
      "velocity": 99,
      "chip": "ym2612"
    },
    {
      "channel": 1,
      "note": 45,
      "start": 85.4131,
      "duration": 0.0441,
      "velocity": 122,
      "chip": "ym2612"
    },
    {
      "channel": 2,
      "note": 81,
      "start": 85.4155,
      "duration": 0.0087,
      "velocity": 121,
      "chip": "ym2612"
    },
    {
      "channel": 4,
      "note": 97,
      "start": 85.4444,
      "duration": 0.063,
      "velocity": 99,
      "chip": "ym2612"
    },
    {
      "channel": 1,
      "note": 45,
      "start": 85.527,
      "duration": 0.1135,
      "velocity": 122,
      "chip": "ym2612"
    },
    {
      "channel": 2,
      "note": 81,
      "start": 85.5293,
      "duration": 0.028,
      "velocity": 121,
      "chip": "ym2612"
    },
    {
      "channel": 4,
      "note": 105,
      "start": 85.5627,
      "duration": 0.0946,
      "velocity": 99,
      "chip": "ym2612"
    },
    {
      "channel": 0,
      "note": 104,
      "start": 85.5661,
      "duration": 0.0244,
      "velocity": 99,
      "chip": "ym2612"
    },
    {
      "channel": 3,
      "note": 60,
      "start": 85.5689,
      "duration": 0.0717,
      "velocity": 116,
      "chip": "ym2612"
    },
    {
      "channel": 5,
      "note": 58,
      "start": 85.5717,
      "duration": 0.0356,
      "velocity": 116,
      "chip": "ym2612"
    },
    {
      "channel": 2,
      "note": 81,
      "start": 85.663,
      "duration": 0.4612,
      "velocity": 104,
      "chip": "ym2612"
    },
    {
      "channel": 0,
      "note": 112,
      "start": 85.6662,
      "duration": 0.0744,
      "velocity": 99,
      "chip": "ym2612"
    },
    {
      "channel": 4,
      "note": 115,
      "start": 85.7278,
      "duration": 0.1295,
      "velocity": 99,
      "chip": "ym2612"
    },
    {
      "channel": 1,
      "note": 45,
      "start": 85.7958,
      "duration": 0.0946,
      "velocity": 122,
      "chip": "ym2612"
    },
    {
      "channel": 3,
      "note": 51,
      "start": 85.8112,
      "duration": 0.0794,
      "velocity": 116,
      "chip": "ym2612"
    },
    {
      "channel": 5,
      "note": 53,
      "start": 85.8143,
      "duration": 0.093,
      "velocity": 116,
      "chip": "ym2612"
    },
    {
      "channel": 0,
      "note": 116,
      "start": 85.8276,
      "duration": 0.1129,
      "velocity": 99,
      "chip": "ym2612"
    },
    {
      "channel": 4,
      "note": 107,
      "start": 85.8777,
      "duration": 0.0631,
      "velocity": 99,
      "chip": "ym2612"
    },
    {
      "channel": 1,
      "note": 55,
      "start": 85.9132,
      "duration": 0.1773,
      "velocity": 125,
      "chip": "ym2612"
    },
    {
      "channel": 3,
      "note": 106,
      "start": 85.9166,
      "duration": 0.024,
      "velocity": 99,
      "chip": "ym2612"
    },
    {
      "channel": 0,
      "note": 114,
      "start": 85.961,
      "duration": 0.0629,
      "velocity": 99,
      "chip": "ym2612"
    },
    {
      "channel": 3,
      "note": 100,
      "start": 86.011,
      "duration": 0.0463,
      "velocity": 99,
      "chip": "ym2612"
    },
    {
      "channel": 5,
      "note": 113,
      "start": 86.0143,
      "duration": 0.0099,
      "velocity": 99,
      "chip": "ym2612"
    },
    {
      "channel": 4,
      "note": 53,
      "start": 86.0614,
      "duration": 0.0627,
      "velocity": 116,
      "chip": "ym2612"
    },
    {
      "channel": 0,
      "note": 51,
      "start": 86.0947,
      "duration": 0.0291,
      "velocity": 116,
      "chip": "ym2612"
    },
    {
      "channel": 5,
      "note": 107,
      "start": 86.1127,
      "duration": 0.0446,
      "velocity": 99,
      "chip": "ym2612"
    },
    {
      "channel": 2,
      "note": 81,
      "start": 86.18,
      "duration": 0.0108,
      "velocity": 121,
      "chip": "ym2612"
    },
    {
      "channel": 3,
      "note": 112,
      "start": 86.1829,
      "duration": 0.0578,
      "velocity": 99,
      "chip": "ym2612"
    },
    {
      "channel": 0,
      "note": 53,
      "start": 86.1945,
      "duration": 0.1293,
      "velocity": 116,
      "chip": "ym2612"
    },
    {
      "channel": 4,
      "note": 51,
      "start": 86.1974,
      "duration": 0.11,
      "velocity": 116,
      "chip": "ym2612"
    },
    {
      "channel": 2,
      "note": 81,
      "start": 86.26,
      "duration": 0.0141,
      "velocity": 121,
      "chip": "ym2612"
    },
    {
      "channel": 5,
      "note": 103,
      "start": 86.2778,
      "duration": 0.0463,
      "velocity": 99,
      "chip": "ym2612"
    },
    {
      "channel": 2,
      "note": 81,
      "start": 86.3434,
      "duration": 0.014,
      "velocity": 121,
      "chip": "ym2612"
    },
    {
      "channel": 3,
      "note": 96,
      "start": 86.3464,
      "duration": 0.0608,
      "velocity": 99,
      "chip": "ym2612"
    },
    {
      "channel": 1,
      "note": 45,
      "start": 86.4298,
      "duration": 0.0607,
      "velocity": 122,
      "chip": "ym2612"
    },
    {
      "channel": 2,
      "note": 81,
      "start": 86.4336,
      "duration": 0.0739,
      "velocity": 104,
      "chip": "ym2612"
    },
    {
      "channel": 5,
      "note": 103,
      "start": 86.4369,
      "duration": 0.0705,
      "velocity": 99,
      "chip": "ym2612"
    },
    {
      "channel": 4,
      "note": 72,
      "start": 86.4401,
      "duration": 0.1173,
      "velocity": 107,
      "chip": "ym2612"
    },
    {
      "channel": 0,
      "note": 67,
      "start": 86.4429,
      "duration": 0.1143,
      "velocity": 107,
      "chip": "ym2612"
    },
    {
      "channel": 3,
      "note": 96,
      "start": 86.4962,
      "duration": 0.0809,
      "velocity": 99,
      "chip": "ym2612"
    },
    {
      "channel": 1,
      "note": 45,
      "start": 86.5624,
      "duration": 0.0783,
      "velocity": 122,
      "chip": "ym2612"
    },
    {
      "channel": 2,
      "note": 81,
      "start": 86.5666,
      "duration": 0.0107,
      "velocity": 121,
      "chip": "ym2612"
    },
    {
      "channel": 5,
      "note": 48,
      "start": 86.5696,
      "duration": 0.0714,
      "velocity": 97,
      "chip": "ym2612"
    },
    {
      "channel": 0,
      "note": 48,
      "start": 86.5727,
      "duration": 0.0678,
      "velocity": 107,
      "chip": "ym2612"
    },
    {
      "channel": 4,
      "note": 55,
      "start": 86.5754,
      "duration": 0.0655,
      "velocity": 107,
      "chip": "ym2612"
    },
    {
      "channel": 3,
      "note": 103,
      "start": 86.5811,
      "duration": 0.0762,
      "velocity": 99,
      "chip": "ym2612"
    },
    {
      "channel": 2,
      "note": 96,
      "start": 86.6613,
      "duration": 0.0302,
      "velocity": 99,
      "chip": "ym2612"
    },
    {
      "channel": 2,
      "note": 81,
      "start": 86.6935,
      "duration": 0.0139,
      "velocity": 121,
      "chip": "ym2612"
    },
    {
      "channel": 5,
      "note": 49,
      "start": 86.6963,
      "duration": 0.0943,
      "velocity": 97,
      "chip": "ym2612"
    },
    {
      "channel": 3,
      "note": 103,
      "start": 86.761,
      "duration": 0.0463,
      "velocity": 99,
      "chip": "ym2612"
    },
    {
      "channel": 0,
      "note": 96,
      "start": 86.7778,
      "duration": 0.0793,
      "velocity": 99,
      "chip": "ym2612"
    },
    {
      "channel": 1,
      "note": 45,
      "start": 86.8105,
      "duration": 0.1134,
      "velocity": 122,
      "chip": "ym2612"
    },
    {
      "channel": 2,
      "note": 81,
      "start": 86.8129,
      "duration": 0.0279,
      "velocity": 121,
      "chip": "ym2612"
    },
    {
      "channel": 5,
      "note": 51,
      "start": 86.8155,
      "duration": 0.1088,
      "velocity": 97,
      "chip": "ym2612"
    },
    {
      "channel": 4,
      "note": 48,
      "start": 86.8192,
      "duration": 0.105,
      "velocity": 107,
      "chip": "ym2612"
    },
    {
      "channel": 3,
      "note": 55,
      "start": 86.8219,
      "duration": 0.1022,
      "velocity": 107,
      "chip": "ym2612"
    },
    {
      "channel": 2,
      "note": 103,
      "start": 86.8779,
      "duration": 0.0629,
      "velocity": 99,
      "chip": "ym2612"
    },
    {
      "channel": 0,
      "note": 96,
      "start": 86.911,
      "duration": 0.0295,
      "velocity": 99,
      "chip": "ym2612"
    },
    {
      "channel": 1,
      "note": 55,
      "start": 86.9465,
      "duration": 0.1607,
      "velocity": 125,
      "chip": "ym2612"
    },
    {
      "channel": 2,
      "note": 81,
      "start": 86.9489,
      "duration": 0.0085,
      "velocity": 121,
      "chip": "ym2612"
    },
    {
      "channel": 5,
      "note": 53,
      "start": 86.9516,
      "duration": 0.1056,
      "velocity": 97,
      "chip": "ym2612"
    },
    {
      "channel": 0,
      "note": 96,
      "start": 86.961,
      "duration": 0.0629,
      "velocity": 99,
      "chip": "ym2612"
    },
    {
      "channel": 2,
      "note": 81,
      "start": 87.0767,
      "duration": 0.014,
      "velocity": 121,
      "chip": "ym2612"
    },
    {
      "channel": 5,
      "note": 46,
      "start": 87.0794,
      "duration": 0.0946,
      "velocity": 97,
      "chip": "ym2612"
    },
    {
      "channel": 0,
      "note": 96,
      "start": 87.0828,
      "duration": 0.0243,
      "velocity": 99,
      "chip": "ym2612"
    },
    {
      "channel": 3,
      "note": 48,
      "start": 87.0858,
      "duration": 0.0714,
      "velocity": 107,
      "chip": "ym2612"
    },
    {
      "channel": 4,
      "note": 55,
      "start": 87.0884,
      "duration": 0.069,
      "velocity": 107,
      "chip": "ym2612"
    },
    {
      "channel": 0,
      "note": 96,
      "start": 87.1609,
      "duration": 0.063,
      "velocity": 99,
      "chip": "ym2612"
    },
    {
      "channel": 2,
      "note": 81,
      "start": 87.213,
      "duration": 0.0945,
      "velocity": 104,
      "chip": "ym2612"
    },
    {
      "channel": 5,
      "note": 49,
      "start": 87.2159,
      "duration": 0.075,
      "velocity": 97,
      "chip": "ym2612"
    },
    {
      "channel": 3,
      "note": 63,
      "start": 87.219,
      "duration": 0.3381,
      "velocity": 107,
      "chip": "ym2612"
    },
    {
      "channel": 4,
      "note": 70,
      "start": 87.2218,
      "duration": 0.3688,
      "velocity": 107,
      "chip": "ym2612"
    },
    {
      "channel": 0,
      "note": 96,
      "start": 87.2442,
      "duration": 0.0463,
      "velocity": 99,
      "chip": "ym2612"
    },
    {
      "channel": 0,
      "note": 96,
      "start": 87.3108,
      "duration": 0.0463,
      "velocity": 99,
      "chip": "ym2612"
    },
    {
      "channel": 2,
      "note": 81,
      "start": 87.33,
      "duration": 0.0274,
      "velocity": 121,
      "chip": "ym2612"
    },
    {
      "channel": 5,
      "note": 44,
      "start": 87.333,
      "duration": 0.0742,
      "velocity": 97,
      "chip": "ym2612"
    },
    {
      "channel": 0,
      "note": 96,
      "start": 87.394,
      "duration": 0.0464,
      "velocity": 99,
      "chip": "ym2612"
    },
    {
      "channel": 1,
      "note": 45,
      "start": 87.4631,
      "duration": 0.0608,
      "velocity": 122,
      "chip": "ym2612"
    },
    {
      "channel": 2,
      "note": 81,
      "start": 87.4655,
      "duration": 0.0086,
      "velocity": 121,
      "chip": "ym2612"
    },
    {
      "channel": 5,
      "note": 51,
      "start": 87.4683,
      "duration": 0.089,
      "velocity": 97,
      "chip": "ym2612"
    },
    {
      "channel": 0,
      "note": 96,
      "start": 87.471,
      "duration": 0.0362,
      "velocity": 99,
      "chip": "ym2612"
    },
    {
      "channel": 0,
      "note": 96,
      "start": 87.5276,
      "duration": 0.0629,
      "velocity": 99,
      "chip": "ym2612"
    },
    {
      "channel": 1,
      "note": 45,
      "start": 87.5959,
      "duration": 0.0945,
      "velocity": 122,
      "chip": "ym2612"
    },
    {
      "channel": 2,
      "note": 81,
      "start": 87.5984,
      "duration": 0.009,
      "velocity": 121,
      "chip": "ym2612"
    },
    {
      "channel": 5,
      "note": 48,
      "start": 87.6013,
      "duration": 0.956,
      "velocity": 97,
      "chip": "ym2612"
    },
    {
      "channel": 3,
      "note": 55,
      "start": 87.6049,
      "duration": 0.0691,
      "velocity": 107,
      "chip": "ym2612"
    },
    {
      "channel": 0,
      "note": 96,
      "start": 87.6125,
      "duration": 0.0613,
      "velocity": 99,
      "chip": "ym2612"
    },
    {
      "channel": 2,
      "note": 81,
      "start": 87.7099,
      "duration": 0.0307,
      "velocity": 121,
      "chip": "ym2612"
    },
    {
      "channel": 0,
      "note": 96,
      "start": 87.7129,
      "duration": 0.061,
      "velocity": 99,
      "chip": "ym2612"
    },
    {
      "channel": 3,
      "note": 56,
      "start": 87.7158,
      "duration": 0.1081,
      "velocity": 107,
      "chip": "ym2612"
    },
    {
      "channel": 0,
      "note": 96,
      "start": 87.8108,
      "duration": 0.0297,
      "velocity": 99,
      "chip": "ym2612"
    },
    {
      "channel": 1,
      "note": 45,
      "start": 87.8436,
      "duration": 0.1136,
      "velocity": 122,
      "chip": "ym2612"
    },
    {
      "channel": 2,
      "note": 81,
      "start": 87.8459,
      "duration": 0.0114,
      "velocity": 121,
      "chip": "ym2612"
    },
    {
      "channel": 3,
      "note": 58,
      "start": 87.8491,
      "duration": 0.1247,
      "velocity": 107,
      "chip": "ym2612"
    },
    {
      "channel": 0,
      "note": 96,
      "start": 87.8607,
      "duration": 0.0464,
      "velocity": 99,
      "chip": "ym2612"
    },
    {
      "channel": 0,
      "note": 96,
      "start": 87.9608,
      "duration": 0.0296,
      "velocity": 99,
      "chip": "ym2612"
    },
    {
      "channel": 1,
      "note": 55,
      "start": 87.9798,
      "duration": 0.144,
      "velocity": 125,
      "chip": "ym2612"
    },
    {
      "channel": 2,
      "note": 81,
      "start": 87.9822,
      "duration": 0.0085,
      "velocity": 121,
      "chip": "ym2612"
    },
    {
      "channel": 3,
      "note": 60,
      "start": 87.9854,
      "duration": 0.0884,
      "velocity": 107,
      "chip": "ym2612"
    },
    {
      "channel": 0,
      "note": 96,
      "start": 88.0108,
      "duration": 0.0463,
      "velocity": 99,
      "chip": "ym2612"
    },
    {
      "channel": 2,
      "note": 81,
      "start": 88.113,
      "duration": 0.1109,
      "velocity": 104,
      "chip": "ym2612"
    },
    {
      "channel": 3,
      "note": 67,
      "start": 88.1162,
      "duration": 0.091,
      "velocity": 107,
      "chip": "ym2612"
    },
    {
      "channel": 4,
      "note": 63,
      "start": 88.1188,
      "duration": 0.0885,
      "velocity": 107,
      "chip": "ym2612"
    },
    {
      "channel": 2,
      "note": 81,
      "start": 88.23,
      "duration": 0.0273,
      "velocity": 121,
      "chip": "ym2612"
    },
    {
      "channel": 3,
      "note": 62,
      "start": 88.2332,
      "duration": 0.1074,
      "velocity": 107,
      "chip": "ym2612"
    },
    {
      "channel": 2,
      "note": 81,
      "start": 88.31,
      "duration": 0.0307,
      "velocity": 121,
      "chip": "ym2612"
    },
    {
      "channel": 3,
      "note": 60,
      "start": 88.3444,
      "duration": 0.0961,
      "velocity": 107,
      "chip": "ym2612"
    },
    {
      "channel": 2,
      "note": 81,
      "start": 88.4101,
      "duration": 0.0139,
      "velocity": 121,
      "chip": "ym2612"
    },
    {
      "channel": 2,
      "note": 81,
      "start": 88.4602,
      "duration": 0.0471,
      "velocity": 121,
      "chip": "ym2612"
    },
    {
      "channel": 1,
      "note": 45,
      "start": 88.4968,
      "duration": 0.0602,
      "velocity": 122,
      "chip": "ym2612"
    },
    {
      "channel": 3,
      "note": 65,
      "start": 88.5005,
      "duration": 0.0901,
      "velocity": 107,
      "chip": "ym2612"
    },
    {
      "channel": 4,
      "note": 70,
      "start": 88.5033,
      "duration": 0.0707,
      "velocity": 107,
      "chip": "ym2612"
    },
    {
      "channel": 1,
      "note": 45,
      "start": 88.627,
      "duration": 0.0802,
      "velocity": 122,
      "chip": "ym2612"
    },
    {
      "channel": 2,
      "note": 81,
      "start": 88.6297,
      "duration": 0.0111,
      "velocity": 121,
      "chip": "ym2612"
    },
    {
      "channel": 5,
      "note": 48,
      "start": 88.6327,
      "duration": 0.108,
      "velocity": 97,
      "chip": "ym2612"
    },
    {
      "channel": 3,
      "note": 56,
      "start": 88.6359,
      "duration": 0.1046,
      "velocity": 107,
      "chip": "ym2612"
    },
    {
      "channel": 2,
      "note": 81,
      "start": 88.7434,
      "duration": 0.0306,
      "velocity": 121,
      "chip": "ym2612"
    },
    {
      "channel": 5,
      "note": 49,
      "start": 88.7463,
      "duration": 0.0777,
      "velocity": 97,
      "chip": "ym2612"
    },
    {
      "channel": 1,
      "note": 45,
      "start": 88.8768,
      "duration": 0.0803,
      "velocity": 122,
      "chip": "ym2612"
    },
    {
      "channel": 2,
      "note": 81,
      "start": 88.881,
      "duration": 0.093,
      "velocity": 104,
      "chip": "ym2612"
    },
    {
      "channel": 5,
      "note": 51,
      "start": 88.8839,
      "duration": 0.1235,
      "velocity": 97,
      "chip": "ym2612"
    },
    {
      "channel": 3,
      "note": 56,
      "start": 88.8867,
      "duration": 0.1204,
      "velocity": 107,
      "chip": "ym2612"
    },
    {
      "channel": 1,
      "note": 55,
      "start": 89.0132,
      "duration": 0.1772,
      "velocity": 125,
      "chip": "ym2612"
    },
    {
      "channel": 2,
      "note": 81,
      "start": 89.017,
      "duration": 0.0071,
      "velocity": 121,
      "chip": "ym2612"
    },
    {
      "channel": 5,
      "note": 53,
      "start": 89.0199,
      "duration": 0.0875,
      "velocity": 97,
      "chip": "ym2612"
    },
    {
      "channel": 2,
      "note": 81,
      "start": 89.1267,
      "duration": 0.0307,
      "velocity": 121,
      "chip": "ym2612"
    },
    {
      "channel": 5,
      "note": 44,
      "start": 89.1298,
      "duration": 0.0941,
      "velocity": 97,
      "chip": "ym2612"
    },
    {
      "channel": 3,
      "note": 56,
      "start": 89.1331,
      "duration": 0.1074,
      "velocity": 107,
      "chip": "ym2612"
    },
    {
      "channel": 2,
      "note": 81,
      "start": 89.263,
      "duration": 0.1112,
      "velocity": 104,
      "chip": "ym2612"
    },
    {
      "channel": 5,
      "note": 49,
      "start": 89.2659,
      "duration": 0.0581,
      "velocity": 97,
      "chip": "ym2612"
    },
    {
      "channel": 3,
      "note": 61,
      "start": 89.2689,
      "duration": 0.105,
      "velocity": 107,
      "chip": "ym2612"
    },
    {
      "channel": 4,
      "note": 68,
      "start": 89.2715,
      "duration": 0.1025,
      "velocity": 107,
      "chip": "ym2612"
    },
    {
      "channel": 2,
      "note": 81,
      "start": 89.3968,
      "duration": 0.0106,
      "velocity": 121,
      "chip": "ym2612"
    },
    {
      "channel": 5,
      "note": 48,
      "start": 89.3996,
      "duration": 0.0576,
      "velocity": 97,
      "chip": "ym2612"
    },
    {
      "channel": 3,
      "note": 56,
      "start": 89.4028,
      "duration": 0.0877,
      "velocity": 107,
      "chip": "ym2612"
    },
    {
      "channel": 1,
      "note": 45,
      "start": 89.5302,
      "duration": 0.0437,
      "velocity": 122,
      "chip": "ym2612"
    },
    {
      "channel": 2,
      "note": 81,
      "start": 89.5325,
      "duration": 0.0082,
      "velocity": 121,
      "chip": "ym2612"
    },
    {
      "channel": 5,
      "note": 51,
      "start": 89.5354,
      "duration": 0.1053,
      "velocity": 97,
      "chip": "ym2612"
    },
    {
      "channel": 3,
      "note": 60,
      "start": 89.5383,
      "duration": 0.0857,
      "velocity": 107,
      "chip": "ym2612"
    },
    {
      "channel": 1,
      "note": 45,
      "start": 89.6436,
      "duration": 0.0803,
      "velocity": 122,
      "chip": "ym2612"
    },
    {
      "channel": 2,
      "note": 81,
      "start": 89.6474,
      "duration": 0.4433,
      "velocity": 104,
      "chip": "ym2612"
    },
    {
      "channel": 5,
      "note": 44,
      "start": 89.6504,
      "duration": 0.1903,
      "velocity": 97,
      "chip": "ym2612"
    },
    {
      "channel": 3,
      "note": 53,
      "start": 89.6536,
      "duration": 0.1868,
      "velocity": 107,
      "chip": "ym2612"
    },
    {
      "channel": 1,
      "note": 55,
      "start": 89.7798,
      "duration": 0.0939,
      "velocity": 125,
      "chip": "ym2612"
    },
    {
      "channel": 1,
      "note": 45,
      "start": 89.9131,
      "duration": 0.0774,
      "velocity": 122,
      "chip": "ym2612"
    },
    {
      "channel": 5,
      "note": 49,
      "start": 89.9162,
      "duration": 0.141,
      "velocity": 97,
      "chip": "ym2612"
    },
    {
      "channel": 3,
      "note": 58,
      "start": 89.9194,
      "duration": 0.0878,
      "velocity": 107,
      "chip": "ym2612"
    },
    {
      "channel": 1,
      "note": 55,
      "start": 90.0305,
      "duration": 0.1266,
      "velocity": 125,
      "chip": "ym2612"
    },
    {
      "channel": 0,
      "note": 43,
      "start": 90.0337,
      "duration": 0.2568,
      "velocity": 97,
      "chip": "ym2612"
    },
    {
      "channel": 3,
      "note": 49,
      "start": 90.0369,
      "duration": 0.2036,
      "velocity": 107,
      "chip": "ym2612"
    },
    {
      "channel": 2,
      "note": 81,
      "start": 90.1633,
      "duration": 0.0107,
      "velocity": 121,
      "chip": "ym2612"
    },
    {
      "channel": 3,
      "note": 56,
      "start": 90.2444,
      "duration": 0.1128,
      "velocity": 107,
      "chip": "ym2612"
    },
    {
      "channel": 2,
      "note": 81,
      "start": 90.2936,
      "duration": 0.0137,
      "velocity": 121,
      "chip": "ym2612"
    },
    {
      "channel": 0,
      "note": 49,
      "start": 90.2967,
      "duration": 0.127,
      "velocity": 97,
      "chip": "ym2612"
    },
    {
      "channel": 2,
      "note": 81,
      "start": 90.3766,
      "duration": 0.014,
      "velocity": 121,
      "chip": "ym2612"
    },
    {
      "channel": 0,
      "note": 48,
      "start": 90.427,
      "duration": 0.1135,
      "velocity": 97,
      "chip": "ym2612"
    },
    {
      "channel": 3,
      "note": 55,
      "start": 90.4306,
      "duration": 0.2265,
      "velocity": 107,
      "chip": "ym2612"
    },
    {
      "channel": 4,
      "note": 48,
      "start": 90.4332,
      "duration": 0.224,
      "velocity": 107,
      "chip": "ym2612"
    },
    {
      "channel": 2,
      "note": 81,
      "start": 90.4599,
      "duration": 0.0141,
      "velocity": 121,
      "chip": "ym2612"
    },
    {
      "channel": 1,
      "note": 45,
      "start": 90.5473,
      "duration": 0.0765,
      "velocity": 122,
      "chip": "ym2612"
    },
    {
      "channel": 2,
      "note": 81,
      "start": 90.551,
      "duration": 0.0229,
      "velocity": 121,
      "chip": "ym2612"
    },
    {
      "channel": 1,
      "note": 45,
      "start": 90.6798,
      "duration": 0.094,
      "velocity": 122,
      "chip": "ym2612"
    },
    {
      "channel": 2,
      "note": 81,
      "start": 90.6821,
      "duration": 0.0102,
      "velocity": 121,
      "chip": "ym2612"
    },
    {
      "channel": 0,
      "note": 48,
      "start": 90.6847,
      "duration": 0.1223,
      "velocity": 97,
      "chip": "ym2612"
    },
    {
      "channel": 3,
      "note": 60,
      "start": 90.6879,
      "duration": 0.086,
      "velocity": 107,
      "chip": "ym2612"
    },
    {
      "channel": 4,
      "note": 55,
      "start": 90.6906,
      "duration": 0.0835,
      "velocity": 107,
      "chip": "ym2612"
    },
    {
      "channel": 2,
      "note": 81,
      "start": 90.81,
      "duration": 0.014,
      "velocity": 121,
      "chip": "ym2612"
    },
    {
      "channel": 0,
      "note": 49,
      "start": 90.8125,
      "duration": 0.1113,
      "velocity": 97,
      "chip": "ym2612"
    },
    {
      "channel": 1,
      "note": 45,
      "start": 90.9271,
      "duration": 0.13,
      "velocity": 122,
      "chip": "ym2612"
    },
    {
      "channel": 2,
      "note": 81,
      "start": 90.9295,
      "duration": 0.0279,
      "velocity": 121,
      "chip": "ym2612"
    },
    {
      "channel": 0,
      "note": 51,
      "start": 90.9321,
      "duration": 0.1416,
      "velocity": 97,
      "chip": "ym2612"
    },
    {
      "channel": 3,
      "note": 60,
      "start": 90.9351,
      "duration": 0.1055,
      "velocity": 107,
      "chip": "ym2612"
    },
    {
      "channel": 4,
      "note": 55,
      "start": 90.9377,
      "duration": 0.103,
      "velocity": 107,
      "chip": "ym2612"
    },
    {
      "channel": 1,
      "note": 55,
      "start": 91.0639,
      "duration": 0.1599,
      "velocity": 125,
      "chip": "ym2612"
    },
    {
      "channel": 2,
      "note": 81,
      "start": 91.0662,
      "duration": 0.0078,
      "velocity": 121,
      "chip": "ym2612"
    },
    {
      "channel": 5,
      "note": 53,
      "start": 91.0691,
      "duration": 0.1048,
      "velocity": 97,
      "chip": "ym2612"
    },
    {
      "channel": 2,
      "note": 81,
      "start": 91.1933,
      "duration": 0.0139,
      "velocity": 121,
      "chip": "ym2612"
    },
    {
      "channel": 0,
      "note": 46,
      "start": 91.196,
      "duration": 0.1444,
      "velocity": 97,
      "chip": "ym2612"
    },
    {
      "channel": 3,
      "note": 61,
      "start": 91.1992,
      "duration": 0.0747,
      "velocity": 107,
      "chip": "ym2612"
    },
    {
      "channel": 4,
      "note": 53,
      "start": 91.2022,
      "duration": 0.0718,
      "velocity": 107,
      "chip": "ym2612"
    },
    {
      "channel": 2,
      "note": 81,
      "start": 91.3265,
      "duration": 0.0142,
      "velocity": 121,
      "chip": "ym2612"
    },
    {
      "channel": 5,
      "note": 49,
      "start": 91.3294,
      "duration": 0.0778,
      "velocity": 97,
      "chip": "ym2612"
    },
    {
      "channel": 2,
      "note": 81,
      "start": 91.4466,
      "duration": 0.2107,
      "velocity": 104,
      "chip": "ym2612"
    },
    {
      "channel": 0,
      "note": 44,
      "start": 91.4491,
      "duration": 0.0746,
      "velocity": 97,
      "chip": "ym2612"
    },
    {
      "channel": 3,
      "note": 61,
      "start": 91.4522,
      "duration": 0.0717,
      "velocity": 107,
      "chip": "ym2612"
    },
    {
      "channel": 4,
      "note": 53,
      "start": 91.4548,
      "duration": 0.0693,
      "velocity": 107,
      "chip": "ym2612"
    },
    {
      "channel": 1,
      "note": 45,
      "start": 91.5798,
      "duration": 0.0608,
      "velocity": 122,
      "chip": "ym2612"
    },
    {
      "channel": 0,
      "note": 51,
      "start": 91.5828,
      "duration": 0.091,
      "velocity": 97,
      "chip": "ym2612"
    },
    {
      "channel": 1,
      "note": 45,
      "start": 91.7103,
      "duration": 0.0968,
      "velocity": 122,
      "chip": "ym2612"
    },
    {
      "channel": 2,
      "note": 81,
      "start": 91.7141,
      "duration": 0.0104,
      "velocity": 121,
      "chip": "ym2612"
    },
    {
      "channel": 0,
      "note": 46,
      "start": 91.7169,
      "duration": 0.9568,
      "velocity": 97,
      "chip": "ym2612"
    },
    {
      "channel": 3,
      "note": 61,
      "start": 91.7201,
      "duration": 0.0538,
      "velocity": 107,
      "chip": "ym2612"
    },
    {
      "channel": 4,
      "note": 53,
      "start": 91.7227,
      "duration": 0.0513,
      "velocity": 107,
      "chip": "ym2612"
    },
    {
      "channel": 2,
      "note": 81,
      "start": 91.8266,
      "duration": 0.0307,
      "velocity": 121,
      "chip": "ym2612"
    },
    {
      "channel": 3,
      "note": 65,
      "start": 91.83,
      "duration": 0.0938,
      "velocity": 107,
      "chip": "ym2612"
    },
    {
      "channel": 4,
      "note": 70,
      "start": 91.8328,
      "duration": 0.1078,
      "velocity": 107,
      "chip": "ym2612"
    },
    {
      "channel": 1,
      "note": 45,
      "start": 91.9624,
      "duration": 0.1114,
      "velocity": 122,
      "chip": "ym2612"
    },
    {
      "channel": 2,
      "note": 81,
      "start": 91.9647,
      "duration": 0.0093,
      "velocity": 121,
      "chip": "ym2612"
    },
    {
      "channel": 3,
      "note": 61,
      "start": 91.9682,
      "duration": 0.1057,
      "velocity": 107,
      "chip": "ym2612"
    },
    {
      "channel": 1,
      "note": 55,
      "start": 92.0964,
      "duration": 0.0941,
      "velocity": 125,
      "chip": "ym2612"
    },
    {
      "channel": 2,
      "note": 81,
      "start": 92.0987,
      "duration": 0.0086,
      "velocity": 121,
      "chip": "ym2612"
    },
    {
      "channel": 2,
      "note": 81,
      "start": 92.2265,
      "duration": 0.0142,
      "velocity": 121,
      "chip": "ym2612"
    },
    {
      "channel": 3,
      "note": 61,
      "start": 92.2299,
      "duration": 0.0439,
      "velocity": 107,
      "chip": "ym2612"
    },
    {
      "channel": 2,
      "note": 81,
      "start": 92.3435,
      "duration": 0.0305,
      "velocity": 121,
      "chip": "ym2612"
    },
    {
      "channel": 3,
      "note": 65,
      "start": 92.3468,
      "duration": 0.1104,
      "velocity": 107,
      "chip": "ym2612"
    },
    {
      "channel": 4,
      "note": 70,
      "start": 92.3496,
      "duration": 0.0743,
      "velocity": 107,
      "chip": "ym2612"
    },
    {
      "channel": 2,
      "note": 81,
      "start": 92.4267,
      "duration": 0.0307,
      "velocity": 121,
      "chip": "ym2612"
    },
    {
      "channel": 3,
      "note": 61,
      "start": 92.4774,
      "duration": 0.0632,
      "velocity": 107,
      "chip": "ym2612"
    },
    {
      "channel": 2,
      "note": 81,
      "start": 92.5266,
      "duration": 0.0142,
      "velocity": 121,
      "chip": "ym2612"
    },
    {
      "channel": 1,
      "note": 45,
      "start": 92.6131,
      "duration": 0.0608,
      "velocity": 122,
      "chip": "ym2612"
    },
    {
      "channel": 2,
      "note": 81,
      "start": 92.6173,
      "duration": 0.1066,
      "velocity": 104,
      "chip": "ym2612"
    },
    {
      "channel": 3,
      "note": 73,
      "start": 92.6206,
      "duration": 0.0866,
      "velocity": 107,
      "chip": "ym2612"
    },
    {
      "channel": 4,
      "note": 65,
      "start": 92.6236,
      "duration": 0.0837,
      "velocity": 107,
      "chip": "ym2612"
    },
    {
      "channel": 1,
      "note": 45,
      "start": 92.7271,
      "duration": 0.1134,
      "velocity": 122,
      "chip": "ym2612"
    },
    {
      "channel": 2,
      "note": 81,
      "start": 92.7309,
      "duration": 0.0265,
      "velocity": 121,
      "chip": "ym2612"
    },
    {
      "channel": 0,
      "note": 48,
      "start": 92.7337,
      "duration": 0.1234,
      "velocity": 97,
      "chip": "ym2612"
    },
    {
      "channel": 3,
      "note": 58,
      "start": 92.7368,
      "duration": 0.087,
      "velocity": 107,
      "chip": "ym2612"
    },
    {
      "channel": 2,
      "note": 81,
      "start": 92.86,
      "duration": 0.0307,
      "velocity": 121,
      "chip": "ym2612"
    },
    {
      "channel": 0,
      "note": 49,
      "start": 92.8627,
      "duration": 0.0777,
      "velocity": 97,
      "chip": "ym2612"
    },
    {
      "channel": 1,
      "note": 45,
      "start": 92.9957,
      "duration": 0.0949,
      "velocity": 122,
      "chip": "ym2612"
    },
    {
      "channel": 2,
      "note": 81,
      "start": 92.9999,
      "duration": 0.0909,
      "velocity": 104,
      "chip": "ym2612"
    },
    {
      "channel": 0,
      "note": 51,
      "start": 93.0025,
      "duration": 0.1212,
      "velocity": 97,
      "chip": "ym2612"
    },
    {
      "channel": 3,
      "note": 58,
      "start": 93.0054,
      "duration": 0.0685,
      "velocity": 107,
      "chip": "ym2612"
    },
    {
      "channel": 1,
      "note": 55,
      "start": 93.1298,
      "duration": 0.144,
      "velocity": 125,
      "chip": "ym2612"
    },
    {
      "channel": 2,
      "note": 81,
      "start": 93.1337,
      "duration": 0.007,
      "velocity": 121,
      "chip": "ym2612"
    },
    {
      "channel": 0,
      "note": 53,
      "start": 93.1363,
      "duration": 0.0874,
      "velocity": 97,
      "chip": "ym2612"
    },
    {
      "channel": 2,
      "note": 81,
      "start": 93.2463,
      "duration": 0.1111,
      "velocity": 104,
      "chip": "ym2612"
    },
    {
      "channel": 0,
      "note": 44,
      "start": 93.2489,
      "duration": 0.0914,
      "velocity": 97,
      "chip": "ym2612"
    },
    {
      "channel": 3,
      "note": 58,
      "start": 93.252,
      "duration": 0.0551,
      "velocity": 107,
      "chip": "ym2612"
    },
    {
      "channel": 2,
      "note": 81,
      "start": 93.38,
      "duration": 0.0106,
      "velocity": 121,
      "chip": "ym2612"
    },
    {
      "channel": 0,
      "note": 49,
      "start": 93.383,
      "duration": 0.0574,
      "velocity": 97,
      "chip": "ym2612"
    },
    {
      "channel": 2,
      "note": 81,
      "start": 93.5099,
      "duration": 0.0141,
      "velocity": 121,
      "chip": "ym2612"
    },
    {
      "channel": 0,
      "note": 48,
      "start": 93.5124,
      "duration": 0.0613,
      "velocity": 97,
      "chip": "ym2612"
    },
    {
      "channel": 3,
      "note": 58,
      "start": 93.5156,
      "duration": 0.0249,
      "velocity": 107,
      "chip": "ym2612"
    },
    {
      "channel": 1,
      "note": 45,
      "start": 93.6464,
      "duration": 0.044,
      "velocity": 122,
      "chip": "ym2612"
    },
    {
      "channel": 2,
      "note": 81,
      "start": 93.6488,
      "duration": 0.0107,
      "velocity": 121,
      "chip": "ym2612"
    },
    {
      "channel": 0,
      "note": 51,
      "start": 93.6514,
      "duration": 0.1057,
      "velocity": 97,
      "chip": "ym2612"
    },
    {
      "channel": 3,
      "note": 73,
      "start": 93.6546,
      "duration": 0.1027,
      "velocity": 107,
      "chip": "ym2612"
    },
    {
      "channel": 4,
      "note": 65,
      "start": 93.6578,
      "duration": 0.0828,
      "velocity": 107,
      "chip": "ym2612"
    },
    {
      "channel": 1,
      "note": 45,
      "start": 93.7605,
      "duration": 0.1132,
      "velocity": 122,
      "chip": "ym2612"
    },
    {
      "channel": 2,
      "note": 81,
      "start": 93.7629,
      "duration": 0.0279,
      "velocity": 121,
      "chip": "ym2612"
    },
    {
      "channel": 0,
      "note": 44,
      "start": 93.7657,
      "duration": 0.1915,
      "velocity": 97,
      "chip": "ym2612"
    },
    {
      "channel": 3,
      "note": 58,
      "start": 93.7688,
      "duration": 0.2216,
      "velocity": 107,
      "chip": "ym2612"
    },
    {
      "channel": 2,
      "note": 81,
      "start": 93.8963,
      "duration": 0.4611,
      "velocity": 104,
      "chip": "ym2612"
    },
    {
      "channel": 1,
      "note": 45,
      "start": 94.0291,
      "duration": 0.0947,
      "velocity": 122,
      "chip": "ym2612"
    },
    {
      "channel": 0,
      "note": 49,
      "start": 94.032,
      "duration": 0.1417,
      "velocity": 97,
      "chip": "ym2612"
    },
    {
      "channel": 3,
      "note": 73,
      "start": 94.0352,
      "duration": 0.0888,
      "velocity": 107,
      "chip": "ym2612"
    },
    {
      "channel": 4,
      "note": 65,
      "start": 94.038,
      "duration": 0.0693,
      "velocity": 107,
      "chip": "ym2612"
    },
    {
      "channel": 1,
      "note": 55,
      "start": 94.1465,
      "duration": 0.1772,
      "velocity": 125,
      "chip": "ym2612"
    },
    {
      "channel": 5,
      "note": 43,
      "start": 94.1496,
      "duration": 0.2576,
      "velocity": 97,
      "chip": "ym2612"
    },
    {
      "channel": 3,
      "note": 56,
      "start": 94.1528,
      "duration": 0.2044,
      "velocity": 107,
      "chip": "ym2612"
    },
    {
      "channel": 2,
      "note": 81,
      "start": 94.4133,
      "duration": 0.0113,
      "velocity": 121,
      "chip": "ym2612"
    },
    {
      "channel": 0,
      "note": 49,
      "start": 94.4165,
      "duration": 0.124,
      "velocity": 97,
      "chip": "ym2612"
    },
    {
      "channel": 3,
      "note": 73,
      "start": 94.4197,
      "duration": 0.0876,
      "velocity": 107,
      "chip": "ym2612"
    },
    {
      "channel": 4,
      "note": 65,
      "start": 94.4229,
      "duration": 0.0511,
      "velocity": 107,
      "chip": "ym2612"
    },
    {
      "channel": 2,
      "note": 81,
      "start": 94.4933,
      "duration": 0.0141,
      "velocity": 121,
      "chip": "ym2612"
    },
    {
      "channel": 0,
      "note": 48,
      "start": 94.5437,
      "duration": 0.1134,
      "velocity": 97,
      "chip": "ym2612"
    },
    {
      "channel": 3,
      "note": 55,
      "start": 94.5468,
      "duration": 0.1104,
      "velocity": 107,
      "chip": "ym2612"
    },
    {
      "channel": 2,
      "note": 81,
      "start": 94.5767,
      "duration": 0.0141,
      "velocity": 121,
      "chip": "ym2612"
    },
    {
      "channel": 1,
      "note": 45,
      "start": 94.6631,
      "duration": 0.0606,
      "velocity": 122,
      "chip": "ym2612"
    },
    {
      "channel": 2,
      "note": 81,
      "start": 94.6669,
      "duration": 0.0737,
      "velocity": 104,
      "chip": "ym2612"
    },
    {
      "channel": 5,
      "note": 72,
      "start": 94.6723,
      "duration": 1.1517,
      "velocity": 106,
      "chip": "ym2612"
    },
    {
      "channel": 3,
      "note": 72,
      "start": 94.6751,
      "duration": 0.1155,
      "velocity": 107,
      "chip": "ym2612"
    },
    {
      "channel": 4,
      "note": 67,
      "start": 94.6778,
      "duration": 0.1128,
      "velocity": 107,
      "chip": "ym2612"
    },
    {
      "channel": 1,
      "note": 45,
      "start": 94.7957,
      "duration": 0.0782,
      "velocity": 122,
      "chip": "ym2612"
    },
    {
      "channel": 2,
      "note": 81,
      "start": 94.7999,
      "duration": 0.0104,
      "velocity": 121,
      "chip": "ym2612"
    },
    {
      "channel": 0,
      "note": 48,
      "start": 94.8027,
      "duration": 0.0711,
      "velocity": 97,
      "chip": "ym2612"
    },
    {
      "channel": 3,
      "note": 48,
      "start": 94.8059,
      "duration": 0.0682,
      "velocity": 107,
      "chip": "ym2612"
    },
    {
      "channel": 4,
      "note": 55,
      "start": 94.8085,
      "duration": 0.0657,
      "velocity": 107,
      "chip": "ym2612"
    },
    {
      "channel": 2,
      "note": 81,
      "start": 94.9267,
      "duration": 0.0141,
      "velocity": 121,
      "chip": "ym2612"
    },
    {
      "channel": 0,
      "note": 49,
      "start": 94.9293,
      "duration": 0.0945,
      "velocity": 97,
      "chip": "ym2612"
    },
    {
      "channel": 1,
      "note": 45,
      "start": 95.0437,
      "duration": 0.1136,
      "velocity": 122,
      "chip": "ym2612"
    },
    {
      "channel": 2,
      "note": 81,
      "start": 95.046,
      "duration": 0.0279,
      "velocity": 121,
      "chip": "ym2612"
    },
    {
      "channel": 0,
      "note": 51,
      "start": 95.0485,
      "duration": 0.1087,
      "velocity": 97,
      "chip": "ym2612"
    },
    {
      "channel": 3,
      "note": 48,
      "start": 95.052,
      "duration": 0.1054,
      "velocity": 107,
      "chip": "ym2612"
    },
    {
      "channel": 4,
      "note": 55,
      "start": 95.0546,
      "duration": 0.1029,
      "velocity": 107,
      "chip": "ym2612"
    },
    {
      "channel": 1,
      "note": 55,
      "start": 95.1798,
      "duration": 0.1606,
      "velocity": 125,
      "chip": "ym2612"
    },
    {
      "channel": 2,
      "note": 81,
      "start": 95.1822,
      "duration": 0.0085,
      "velocity": 121,
      "chip": "ym2612"
    },
    {
      "channel": 0,
      "note": 53,
      "start": 95.1847,
      "duration": 0.1057,
      "velocity": 97,
      "chip": "ym2612"
    },
    {
      "channel": 2,
      "note": 81,
      "start": 95.31,
      "duration": 0.0141,
      "velocity": 121,
      "chip": "ym2612"
    },
    {
      "channel": 0,
      "note": 46,
      "start": 95.3125,
      "duration": 0.0945,
      "velocity": 97,
      "chip": "ym2612"
    },
    {
      "channel": 3,
      "note": 48,
      "start": 95.3157,
      "duration": 0.0749,
      "velocity": 107,
      "chip": "ym2612"
    },
    {
      "channel": 4,
      "note": 55,
      "start": 95.3183,
      "duration": 0.0724,
      "velocity": 107,
      "chip": "ym2612"
    },
    {
      "channel": 2,
      "note": 81,
      "start": 95.4463,
      "duration": 0.0944,
      "velocity": 104,
      "chip": "ym2612"
    },
    {
      "channel": 0,
      "note": 49,
      "start": 95.4489,
      "duration": 0.0748,
      "velocity": 97,
      "chip": "ym2612"
    },
    {
      "channel": 3,
      "note": 63,
      "start": 95.4522,
      "duration": 0.3384,
      "velocity": 107,
      "chip": "ym2612"
    },
    {
      "channel": 4,
      "note": 70,
      "start": 95.455,
      "duration": 0.369,
      "velocity": 107,
      "chip": "ym2612"
    },
    {
      "channel": 2,
      "note": 81,
      "start": 95.5633,
      "duration": 0.0273,
      "velocity": 121,
      "chip": "ym2612"
    },
    {
      "channel": 0,
      "note": 44,
      "start": 95.5658,
      "duration": 0.0746,
      "velocity": 97,
      "chip": "ym2612"
    },
    {
      "channel": 1,
      "note": 45,
      "start": 95.6964,
      "duration": 0.0607,
      "velocity": 122,
      "chip": "ym2612"
    },
    {
      "channel": 2,
      "note": 81,
      "start": 95.6988,
      "duration": 0.0086,
      "velocity": 121,
      "chip": "ym2612"
    },
    {
      "channel": 0,
      "note": 51,
      "start": 95.7014,
      "duration": 0.089,
      "velocity": 97,
      "chip": "ym2612"
    },
    {
      "channel": 1,
      "note": 45,
      "start": 95.8293,
      "duration": 0.0945,
      "velocity": 122,
      "chip": "ym2612"
    },
    {
      "channel": 2,
      "note": 81,
      "start": 95.8317,
      "duration": 0.012,
      "velocity": 121,
      "chip": "ym2612"
    },
    {
      "channel": 0,
      "note": 48,
      "start": 95.8348,
      "duration": 0.9557,
      "velocity": 97,
      "chip": "ym2612"
    },
    {
      "channel": 5,
      "note": 67,
      "start": 95.8387,
      "duration": 0.0853,
      "velocity": 106,
      "chip": "ym2612"
    },
    {
      "channel": 3,
      "note": 55,
      "start": 95.842,
      "duration": 0.0651,
      "velocity": 107,
      "chip": "ym2612"
    },
    {
      "channel": 2,
      "note": 81,
      "start": 95.9433,
      "duration": 0.0307,
      "velocity": 121,
      "chip": "ym2612"
    },
    {
      "channel": 5,
      "note": 68,
      "start": 95.9464,
      "duration": 0.1111,
      "velocity": 106,
      "chip": "ym2612"
    },
    {
      "channel": 3,
      "note": 56,
      "start": 95.9491,
      "duration": 0.1081,
      "velocity": 107,
      "chip": "ym2612"
    },
    {
      "channel": 1,
      "note": 45,
      "start": 96.0768,
      "duration": 0.1137,
      "velocity": 122,
      "chip": "ym2612"
    },
    {
      "channel": 2,
      "note": 81,
      "start": 96.0791,
      "duration": 0.0116,
      "velocity": 121,
      "chip": "ym2612"
    },
    {
      "channel": 5,
      "note": 70,
      "start": 96.0823,
      "duration": 0.075,
      "velocity": 106,
      "chip": "ym2612"
    },
    {
      "channel": 3,
      "note": 58,
      "start": 96.085,
      "duration": 0.1222,
      "velocity": 107,
      "chip": "ym2612"
    },
    {
      "channel": 1,
      "note": 55,
      "start": 96.2132,
      "duration": 0.1439,
      "velocity": 125,
      "chip": "ym2612"
    },
    {
      "channel": 2,
      "note": 81,
      "start": 96.2155,
      "duration": 0.0085,
      "velocity": 121,
      "chip": "ym2612"
    },
    {
      "channel": 5,
      "note": 72,
      "start": 96.2186,
      "duration": 0.072,
      "velocity": 106,
      "chip": "ym2612"
    },
    {
      "channel": 3,
      "note": 60,
      "start": 96.2213,
      "duration": 0.0859,
      "velocity": 107,
      "chip": "ym2612"
    },
    {
      "channel": 2,
      "note": 81,
      "start": 96.3463,
      "duration": 0.1111,
      "velocity": 104,
      "chip": "ym2612"
    },
    {
      "channel": 5,
      "note": 73,
      "start": 96.3496,
      "duration": 0.041,
      "velocity": 106,
      "chip": "ym2612"
    },
    {
      "channel": 3,
      "note": 62,
      "start": 96.3522,
      "duration": 0.0883,
      "velocity": 107,
      "chip": "ym2612"
    },
    {
      "channel": 5,
      "note": 75,
      "start": 96.446,
      "duration": 0.078,
      "velocity": 106,
      "chip": "ym2612"
    },
    {
      "channel": 2,
      "note": 81,
      "start": 96.4633,
      "duration": 0.0273,
      "velocity": 121,
      "chip": "ym2612"
    },
    {
      "channel": 3,
      "note": 63,
      "start": 96.4665,
      "duration": 0.1073,
      "velocity": 107,
      "chip": "ym2612"
    },
    {
      "channel": 2,
      "note": 81,
      "start": 96.5433,
      "duration": 0.0307,
      "velocity": 121,
      "chip": "ym2612"
    },
    {
      "channel": 5,
      "note": 77,
      "start": 96.5777,
      "duration": 0.0796,
      "velocity": 106,
      "chip": "ym2612"
    },
    {
      "channel": 3,
      "note": 65,
      "start": 96.5804,
      "duration": 0.0934,
      "velocity": 107,
      "chip": "ym2612"
    },
    {
      "channel": 2,
      "note": 81,
      "start": 96.6434,
      "duration": 0.0141,
      "velocity": 121,
      "chip": "ym2612"
    },
    {
      "channel": 2,
      "note": 81,
      "start": 96.6936,
      "duration": 0.0476,
      "velocity": 121,
      "chip": "ym2612"
    },
    {
      "channel": 1,
      "note": 45,
      "start": 96.7302,
      "duration": 0.0604,
      "velocity": 122,
      "chip": "ym2612"
    },
    {
      "channel": 5,
      "note": 79,
      "start": 96.7336,
      "duration": 0.0573,
      "velocity": 106,
      "chip": "ym2612"
    },
    {
      "channel": 3,
      "note": 65,
      "start": 96.7363,
      "duration": 0.0875,
      "velocity": 107,
      "chip": "ym2612"
    },
    {
      "channel": 4,
      "note": 70,
      "start": 96.7394,
      "duration": 0.0678,
      "velocity": 107,
      "chip": "ym2612"
    },
    {
      "channel": 1,
      "note": 45,
      "start": 96.8436,
      "duration": 0.0968,
      "velocity": 122,
      "chip": "ym2612"
    },
    {
      "channel": 2,
      "note": 81,
      "start": 96.8463,
      "duration": 0.0278,
      "velocity": 121,
      "chip": "ym2612"
    },
    {
      "channel": 0,
      "note": 48,
      "start": 96.849,
      "duration": 0.1248,
      "velocity": 97,
      "chip": "ym2612"
    },
    {
      "channel": 5,
      "note": 75,
      "start": 96.8519,
      "duration": 0.0553,
      "velocity": 106,
      "chip": "ym2612"
    },
    {
      "channel": 3,
      "note": 56,
      "start": 96.8548,
      "duration": 0.1192,
      "velocity": 107,
      "chip": "ym2612"
    },
    {
      "channel": 2,
      "note": 81,
      "start": 96.9768,
      "duration": 0.0139,
      "velocity": 121,
      "chip": "ym2612"
    },
    {
      "channel": 0,
      "note": 49,
      "start": 96.9795,
      "duration": 0.0776,
      "velocity": 97,
      "chip": "ym2612"
    },
    {
      "channel": 5,
      "note": 72,
      "start": 96.9825,
      "duration": 0.0748,
      "velocity": 106,
      "chip": "ym2612"
    },
    {
      "channel": 1,
      "note": 45,
      "start": 97.1102,
      "duration": 0.0803,
      "velocity": 122,
      "chip": "ym2612"
    },
    {
      "channel": 2,
      "note": 81,
      "start": 97.1144,
      "duration": 0.0929,
      "velocity": 104,
      "chip": "ym2612"
    },
    {
      "channel": 0,
      "note": 51,
      "start": 97.117,
      "duration": 0.1234,
      "velocity": 97,
      "chip": "ym2612"
    },
    {
      "channel": 5,
      "note": 77,
      "start": 97.1199,
      "duration": 0.0708,
      "velocity": 106,
      "chip": "ym2612"
    },
    {
      "channel": 3,
      "note": 56,
      "start": 97.1225,
      "duration": 0.1181,
      "velocity": 107,
      "chip": "ym2612"
    },
    {
      "channel": 1,
      "note": 55,
      "start": 97.2465,
      "duration": 0.1772,
      "velocity": 125,
      "chip": "ym2612"
    },
    {
      "channel": 2,
      "note": 81,
      "start": 97.2503,
      "duration": 0.0076,
      "velocity": 121,
      "chip": "ym2612"
    },
    {
      "channel": 0,
      "note": 53,
      "start": 97.253,
      "duration": 0.0874,
      "velocity": 97,
      "chip": "ym2612"
    },
    {
      "channel": 5,
      "note": 73,
      "start": 97.2561,
      "duration": 0.0846,
      "velocity": 106,
      "chip": "ym2612"
    },
    {
      "channel": 2,
      "note": 81,
      "start": 97.36,
      "duration": 0.0307,
      "velocity": 121,
      "chip": "ym2612"
    },
    {
      "channel": 0,
      "note": 44,
      "start": 97.3626,
      "duration": 0.0945,
      "velocity": 97,
      "chip": "ym2612"
    },
    {
      "channel": 5,
      "note": 68,
      "start": 97.3657,
      "duration": 0.0917,
      "velocity": 106,
      "chip": "ym2612"
    },
    {
      "channel": 3,
      "note": 56,
      "start": 97.3685,
      "duration": 0.1054,
      "velocity": 107,
      "chip": "ym2612"
    },
    {
      "channel": 2,
      "note": 81,
      "start": 97.4963,
      "duration": 0.1111,
      "velocity": 104,
      "chip": "ym2612"
    },
    {
      "channel": 0,
      "note": 49,
      "start": 97.4989,
      "duration": 0.0581,
      "velocity": 97,
      "chip": "ym2612"
    },
    {
      "channel": 5,
      "note": 75,
      "start": 97.5019,
      "duration": 0.0721,
      "velocity": 106,
      "chip": "ym2612"
    },
    {
      "channel": 3,
      "note": 61,
      "start": 97.5045,
      "duration": 0.1026,
      "velocity": 107,
      "chip": "ym2612"
    },
    {
      "channel": 4,
      "note": 68,
      "start": 97.5072,
      "duration": 0.1,
      "velocity": 107,
      "chip": "ym2612"
    },
    {
      "channel": 2,
      "note": 81,
      "start": 97.6302,
      "duration": 0.0104,
      "velocity": 121,
      "chip": "ym2612"
    },
    {
      "channel": 0,
      "note": 48,
      "start": 97.633,
      "duration": 0.0574,
      "velocity": 97,
      "chip": "ym2612"
    },
    {
      "channel": 5,
      "note": 65,
      "start": 97.6363,
      "duration": 0.071,
      "velocity": 106,
      "chip": "ym2612"
    },
    {
      "channel": 3,
      "note": 56,
      "start": 97.6388,
      "duration": 0.0851,
      "velocity": 107,
      "chip": "ym2612"
    },
    {
      "channel": 1,
      "note": 45,
      "start": 97.7635,
      "duration": 0.0437,
      "velocity": 122,
      "chip": "ym2612"
    },
    {
      "channel": 2,
      "note": 81,
      "start": 97.7659,
      "duration": 0.01,
      "velocity": 121,
      "chip": "ym2612"
    },
    {
      "channel": 0,
      "note": 51,
      "start": 97.7685,
      "duration": 0.1054,
      "velocity": 97,
      "chip": "ym2612"
    },
    {
      "channel": 5,
      "note": 59,
      "start": 97.7715,
      "duration": 0.0858,
      "velocity": 106,
      "chip": "ym2612"
    },
    {
      "channel": 3,
      "note": 60,
      "start": 97.7741,
      "duration": 0.083,
      "velocity": 107,
      "chip": "ym2612"
    },
    {
      "channel": 1,
      "note": 45,
      "start": 97.8769,
      "duration": 0.0803,
      "velocity": 122,
      "chip": "ym2612"
    },
    {
      "channel": 2,
      "note": 81,
      "start": 97.8807,
      "duration": 0.4433,
      "velocity": 104,
      "chip": "ym2612"
    },
    {
      "channel": 0,
      "note": 44,
      "start": 97.8835,
      "duration": 0.1901,
      "velocity": 97,
      "chip": "ym2612"
    },
    {
      "channel": 5,
      "note": 70,
      "start": 97.8867,
      "duration": 0.354,
      "velocity": 106,
      "chip": "ym2612"
    },
    {
      "channel": 3,
      "note": 53,
      "start": 97.89,
      "duration": 0.1839,
      "velocity": 107,
      "chip": "ym2612"
    },
    {
      "channel": 1,
      "note": 55,
      "start": 98.0132,
      "duration": 0.0939,
      "velocity": 125,
      "chip": "ym2612"
    },
    {
      "channel": 1,
      "note": 45,
      "start": 98.1464,
      "duration": 0.0774,
      "velocity": 122,
      "chip": "ym2612"
    },
    {
      "channel": 0,
      "note": 49,
      "start": 98.1493,
      "duration": 0.1411,
      "velocity": 97,
      "chip": "ym2612"
    },
    {
      "channel": 3,
      "note": 58,
      "start": 98.1525,
      "duration": 0.088,
      "velocity": 107,
      "chip": "ym2612"
    },
    {
      "channel": 1,
      "note": 55,
      "start": 98.2639,
      "duration": 0.1266,
      "velocity": 125,
      "chip": "ym2612"
    },
    {
      "channel": 4,
      "note": 43,
      "start": 98.2671,
      "duration": 0.2569,
      "velocity": 97,
      "chip": "ym2612"
    },
    {
      "channel": 5,
      "note": 68,
      "start": 98.27,
      "duration": 0.3539,
      "velocity": 106,
      "chip": "ym2612"
    },
    {
      "channel": 3,
      "note": 49,
      "start": 98.2736,
      "duration": 0.2002,
      "velocity": 107,
      "chip": "ym2612"
    },
    {
      "channel": 2,
      "note": 81,
      "start": 98.3966,
      "duration": 0.0107,
      "velocity": 121,
      "chip": "ym2612"
    },
    {
      "channel": 3,
      "note": 56,
      "start": 98.4778,
      "duration": 0.1128,
      "velocity": 107,
      "chip": "ym2612"
    },
    {
      "channel": 2,
      "note": 81,
      "start": 98.5269,
      "duration": 0.0137,
      "velocity": 121,
      "chip": "ym2612"
    },
    {
      "channel": 0,
      "note": 49,
      "start": 98.5297,
      "duration": 0.1275,
      "velocity": 97,
      "chip": "ym2612"
    },
    {
      "channel": 2,
      "note": 81,
      "start": 98.61,
      "duration": 0.0141,
      "velocity": 121,
      "chip": "ym2612"
    },
    {
      "channel": 5,
      "note": 70,
      "start": 98.6279,
      "duration": 0.1294,
      "velocity": 106,
      "chip": "ym2612"
    },
    {
      "channel": 0,
      "note": 48,
      "start": 98.6623,
      "duration": 0.1115,
      "velocity": 97,
      "chip": "ym2612"
    },
    {
      "channel": 3,
      "note": 55,
      "start": 98.6655,
      "duration": 0.2251,
      "velocity": 107,
      "chip": "ym2612"
    },
    {
      "channel": 1,
      "note": 48,
      "start": 98.6683,
      "duration": 0.2222,
      "velocity": 107,
      "chip": "ym2612"
    },
    {
      "channel": 2,
      "note": 81,
      "start": 98.6933,
      "duration": 0.0141,
      "velocity": 121,
      "chip": "ym2612"
    },
    {
      "channel": 4,
      "note": 68,
      "start": 98.697,
      "duration": 0.1102,
      "velocity": 106,
      "chip": "ym2612"
    },
    {
      "channel": 2,
      "note": 45,
      "start": 98.7809,
      "duration": 0.0019,
      "velocity": 122,
      "chip": "ym2612"
    },
    {
      "channel": 2,
      "note": 81,
      "start": 98.7847,
      "duration": 0.0228,
      "velocity": 121,
      "chip": "ym2612"
    },
    {
      "channel": 5,
      "note": 67,
      "start": 98.788,
      "duration": 0.5859,
      "velocity": 106,
      "chip": "ym2612"
    },
    {
      "channel": 0,
      "note": 45,
      "start": 98.9134,
      "duration": 0.0937,
      "velocity": 122,
      "chip": "ym2612"
    },
    {
      "channel": 2,
      "note": 81,
      "start": 98.9157,
      "duration": 0.0108,
      "velocity": 121,
      "chip": "ym2612"
    },
    {
      "channel": 4,
      "note": 48,
      "start": 98.9187,
      "duration": 0.1219,
      "velocity": 97,
      "chip": "ym2612"
    },
    {
      "channel": 1,
      "note": 60,
      "start": 98.9222,
      "duration": 0.0851,
      "velocity": 107,
      "chip": "ym2612"
    },
    {
      "channel": 3,
      "note": 55,
      "start": 98.9248,
      "duration": 0.0826,
      "velocity": 107,
      "chip": "ym2612"
    },
    {
      "channel": 2,
      "note": 81,
      "start": 99.0433,
      "duration": 0.0141,
      "velocity": 121,
      "chip": "ym2612"
    },
    {
      "channel": 4,
      "note": 49,
      "start": 99.046,
      "duration": 0.1112,
      "velocity": 97,
      "chip": "ym2612"
    },
    {
      "channel": 0,
      "note": 45,
      "start": 99.1603,
      "duration": 0.1301,
      "velocity": 122,
      "chip": "ym2612"
    },
    {
      "channel": 2,
      "note": 81,
      "start": 99.1627,
      "duration": 0.028,
      "velocity": 121,
      "chip": "ym2612"
    },
    {
      "channel": 4,
      "note": 51,
      "start": 99.1655,
      "duration": 0.1419,
      "velocity": 97,
      "chip": "ym2612"
    },
    {
      "channel": 1,
      "note": 60,
      "start": 99.1685,
      "duration": 0.1054,
      "velocity": 107,
      "chip": "ym2612"
    },
    {
      "channel": 3,
      "note": 55,
      "start": 99.171,
      "duration": 0.103,
      "velocity": 107,
      "chip": "ym2612"
    },
    {
      "channel": 0,
      "note": 55,
      "start": 99.2971,
      "duration": 0.1599,
      "velocity": 125,
      "chip": "ym2612"
    },
    {
      "channel": 2,
      "note": 81,
      "start": 99.2995,
      "duration": 0.008,
      "velocity": 121,
      "chip": "ym2612"
    },
    {
      "channel": 1,
      "note": 53,
      "start": 99.3024,
      "duration": 0.1047,
      "velocity": 97,
      "chip": "ym2612"
    },
    {
      "channel": 2,
      "note": 81,
      "start": 99.4265,
      "duration": 0.0141,
      "velocity": 121,
      "chip": "ym2612"
    },
    {
      "channel": 1,
      "note": 46,
      "start": 99.4292,
      "duration": 0.1446,
      "velocity": 97,
      "chip": "ym2612"
    },
    {
      "channel": 5,
      "note": 68,
      "start": 99.4323,
      "duration": 0.5417,
      "velocity": 106,
      "chip": "ym2612"
    },
    {
      "channel": 3,
      "note": 61,
      "start": 99.4351,
      "duration": 0.0721,
      "velocity": 107,
      "chip": "ym2612"
    },
    {
      "channel": 4,
      "note": 53,
      "start": 99.4379,
      "duration": 0.0695,
      "velocity": 107,
      "chip": "ym2612"
    },
    {
      "channel": 2,
      "note": 81,
      "start": 99.56,
      "duration": 0.0141,
      "velocity": 121,
      "chip": "ym2612"
    },
    {
      "channel": 0,
      "note": 49,
      "start": 99.5629,
      "duration": 0.0776,
      "velocity": 97,
      "chip": "ym2612"
    },
    {
      "channel": 2,
      "note": 81,
      "start": 99.68,
      "duration": 0.2107,
      "velocity": 104,
      "chip": "ym2612"
    },
    {
      "channel": 0,
      "note": 44,
      "start": 99.6824,
      "duration": 0.0746,
      "velocity": 97,
      "chip": "ym2612"
    },
    {
      "channel": 3,
      "note": 61,
      "start": 99.6855,
      "duration": 0.0717,
      "velocity": 107,
      "chip": "ym2612"
    },
    {
      "channel": 4,
      "note": 53,
      "start": 99.6885,
      "duration": 0.0689,
      "velocity": 107,
      "chip": "ym2612"
    },
    {
      "channel": 1,
      "note": 45,
      "start": 99.8134,
      "duration": 0.0604,
      "velocity": 122,
      "chip": "ym2612"
    },
    {
      "channel": 0,
      "note": 51,
      "start": 99.8161,
      "duration": 0.091,
      "velocity": 97,
      "chip": "ym2612"
    },
    {
      "channel": 1,
      "note": 45,
      "start": 99.9436,
      "duration": 0.0968,
      "velocity": 122,
      "chip": "ym2612"
    },
    {
      "channel": 2,
      "note": 81,
      "start": 99.9474,
      "duration": 0.0107,
      "velocity": 121,
      "chip": "ym2612"
    },
    {
      "channel": 0,
      "note": 46,
      "start": 99.9506,
      "duration": 0.9566,
      "velocity": 97,
      "chip": "ym2612"
    },
    {
      "channel": 3,
      "note": 61,
      "start": 99.9538,
      "duration": 0.0534,
      "velocity": 107,
      "chip": "ym2612"
    },
    {
      "channel": 4,
      "note": 53,
      "start": 99.9564,
      "duration": 0.051,
      "velocity": 107,
      "chip": "ym2612"
    },
    {
      "channel": 2,
      "note": 81,
      "start": 100.0599,
      "duration": 0.0308,
      "velocity": 121,
      "chip": "ym2612"
    },
    {
      "channel": 5,
      "note": 70,
      "start": 100.0632,
      "duration": 0.7273,
      "velocity": 106,
      "chip": "ym2612"
    },
    {
      "channel": 3,
      "note": 65,
      "start": 100.066,
      "duration": 0.0912,
      "velocity": 107,
      "chip": "ym2612"
    },
    {
      "channel": 1,
      "note": 45,
      "start": 100.1957,
      "duration": 0.1115,
      "velocity": 122,
      "chip": "ym2612"
    },
    {
      "channel": 2,
      "note": 81,
      "start": 100.198,
      "duration": 0.0093,
      "velocity": 121,
      "chip": "ym2612"
    },
    {
      "channel": 3,
      "note": 61,
      "start": 100.2013,
      "duration": 0.106,
      "velocity": 107,
      "chip": "ym2612"
    },
    {
      "channel": 1,
      "note": 55,
      "start": 100.3297,
      "duration": 0.0941,
      "velocity": 125,
      "chip": "ym2612"
    },
    {
      "channel": 2,
      "note": 81,
      "start": 100.3321,
      "duration": 0.0086,
      "velocity": 121,
      "chip": "ym2612"
    },
    {
      "channel": 2,
      "note": 81,
      "start": 100.4599,
      "duration": 0.0141,
      "velocity": 121,
      "chip": "ym2612"
    },
    {
      "channel": 3,
      "note": 61,
      "start": 100.4633,
      "duration": 0.0439,
      "velocity": 107,
      "chip": "ym2612"
    },
    {
      "channel": 2,
      "note": 81,
      "start": 100.5767,
      "duration": 0.0307,
      "velocity": 121,
      "chip": "ym2612"
    },
    {
      "channel": 3,
      "note": 65,
      "start": 100.5799,
      "duration": 0.1106,
      "velocity": 107,
      "chip": "ym2612"
    },
    {
      "channel": 2,
      "note": 81,
      "start": 100.66,
      "duration": 0.0307,
      "velocity": 121,
      "chip": "ym2612"
    },
    {
      "channel": 3,
      "note": 61,
      "start": 100.7125,
      "duration": 0.0613,
      "velocity": 107,
      "chip": "ym2612"
    },
    {
      "channel": 2,
      "note": 81,
      "start": 100.7599,
      "duration": 0.0143,
      "velocity": 121,
      "chip": "ym2612"
    },
    {
      "channel": 1,
      "note": 45,
      "start": 100.8464,
      "duration": 0.0608,
      "velocity": 122,
      "chip": "ym2612"
    },
    {
      "channel": 2,
      "note": 81,
      "start": 100.8507,
      "duration": 0.1067,
      "velocity": 104,
      "chip": "ym2612"
    },
    {
      "channel": 5,
      "note": 75,
      "start": 100.8541,
      "duration": 1.9532,
      "velocity": 106,
      "chip": "ym2612"
    },
    {
      "channel": 3,
      "note": 65,
      "start": 100.8569,
      "duration": 0.0836,
      "velocity": 107,
      "chip": "ym2612"
    },
    {
      "channel": 1,
      "note": 45,
      "start": 100.9604,
      "duration": 0.1134,
      "velocity": 122,
      "chip": "ym2612"
    },
    {
      "channel": 2,
      "note": 81,
      "start": 100.9642,
      "duration": 0.0265,
      "velocity": 121,
      "chip": "ym2612"
    },
    {
      "channel": 0,
      "note": 48,
      "start": 100.967,
      "duration": 0.1234,
      "velocity": 97,
      "chip": "ym2612"
    },
    {
      "channel": 3,
      "note": 58,
      "start": 100.9708,
      "duration": 0.0864,
      "velocity": 107,
      "chip": "ym2612"
    },
    {
      "channel": 2,
      "note": 81,
      "start": 101.0934,
      "duration": 0.014,
      "velocity": 121,
      "chip": "ym2612"
    },
    {
      "channel": 0,
      "note": 49,
      "start": 101.096,
      "duration": 0.0777,
      "velocity": 97,
      "chip": "ym2612"
    },
    {
      "channel": 1,
      "note": 45,
      "start": 101.229,
      "duration": 0.0949,
      "velocity": 122,
      "chip": "ym2612"
    },
    {
      "channel": 2,
      "note": 81,
      "start": 101.2332,
      "duration": 0.0909,
      "velocity": 104,
      "chip": "ym2612"
    },
    {
      "channel": 0,
      "note": 51,
      "start": 101.2358,
      "duration": 0.1212,
      "velocity": 97,
      "chip": "ym2612"
    },
    {
      "channel": 3,
      "note": 58,
      "start": 101.2388,
      "duration": 0.0685,
      "velocity": 107,
      "chip": "ym2612"
    },
    {
      "channel": 1,
      "note": 55,
      "start": 101.3632,
      "duration": 0.144,
      "velocity": 125,
      "chip": "ym2612"
    },
    {
      "channel": 2,
      "note": 81,
      "start": 101.367,
      "duration": 0.007,
      "velocity": 121,
      "chip": "ym2612"
    },
    {
      "channel": 0,
      "note": 53,
      "start": 101.3697,
      "duration": 0.0874,
      "velocity": 97,
      "chip": "ym2612"
    },
    {
      "channel": 2,
      "note": 81,
      "start": 101.4797,
      "duration": 0.1109,
      "velocity": 104,
      "chip": "ym2612"
    },
    {
      "channel": 0,
      "note": 44,
      "start": 101.4823,
      "duration": 0.0915,
      "velocity": 97,
      "chip": "ym2612"
    },
    {
      "channel": 3,
      "note": 58,
      "start": 101.4853,
      "duration": 0.0551,
      "velocity": 107,
      "chip": "ym2612"
    },
    {
      "channel": 2,
      "note": 81,
      "start": 101.6134,
      "duration": 0.0107,
      "velocity": 121,
      "chip": "ym2612"
    },
    {
      "channel": 0,
      "note": 49,
      "start": 101.616,
      "duration": 0.0578,
      "velocity": 97,
      "chip": "ym2612"
    },
    {
      "channel": 2,
      "note": 81,
      "start": 101.7433,
      "duration": 0.0141,
      "velocity": 121,
      "chip": "ym2612"
    },
    {
      "channel": 0,
      "note": 48,
      "start": 101.7458,
      "duration": 0.0614,
      "velocity": 97,
      "chip": "ym2612"
    },
    {
      "channel": 3,
      "note": 58,
      "start": 101.7489,
      "duration": 0.0249,
      "velocity": 107,
      "chip": "ym2612"
    },
    {
      "channel": 1,
      "note": 45,
      "start": 101.8798,
      "duration": 0.044,
      "velocity": 122,
      "chip": "ym2612"
    },
    {
      "channel": 2,
      "note": 81,
      "start": 101.8821,
      "duration": 0.0115,
      "velocity": 121,
      "chip": "ym2612"
    },
    {
      "channel": 0,
      "note": 51,
      "start": 101.8851,
      "duration": 0.1054,
      "velocity": 97,
      "chip": "ym2612"
    },
    {
      "channel": 3,
      "note": 65,
      "start": 101.8907,
      "duration": 0.0832,
      "velocity": 107,
      "chip": "ym2612"
    },
    {
      "channel": 1,
      "note": 45,
      "start": 101.9937,
      "duration": 0.1134,
      "velocity": 122,
      "chip": "ym2612"
    },
    {
      "channel": 2,
      "note": 81,
      "start": 101.9961,
      "duration": 0.0279,
      "velocity": 121,
      "chip": "ym2612"
    },
    {
      "channel": 0,
      "note": 44,
      "start": 101.9989,
      "duration": 0.1916,
      "velocity": 97,
      "chip": "ym2612"
    },
    {
      "channel": 3,
      "note": 58,
      "start": 102.0033,
      "duration": 0.2205,
      "velocity": 107,
      "chip": "ym2612"
    },
    {
      "channel": 2,
      "note": 81,
      "start": 102.1297,
      "duration": 0.4611,
      "velocity": 104,
      "chip": "ym2612"
    },
    {
      "channel": 1,
      "note": 45,
      "start": 102.2625,
      "duration": 0.0947,
      "velocity": 122,
      "chip": "ym2612"
    },
    {
      "channel": 0,
      "note": 49,
      "start": 102.2654,
      "duration": 0.1418,
      "velocity": 97,
      "chip": "ym2612"
    },
    {
      "channel": 3,
      "note": 65,
      "start": 102.2685,
      "duration": 0.072,
      "velocity": 107,
      "chip": "ym2612"
    },
    {
      "channel": 1,
      "note": 55,
      "start": 102.3798,
      "duration": 0.1772,
      "velocity": 125,
      "chip": "ym2612"
    },
    {
      "channel": 4,
      "note": 43,
      "start": 102.383,
      "duration": 0.2576,
      "velocity": 97,
      "chip": "ym2612"
    },
    {
      "channel": 3,
      "note": 56,
      "start": 102.3862,
      "duration": 0.2043,
      "velocity": 107,
      "chip": "ym2612"
    },
    {
      "channel": 2,
      "note": 81,
      "start": 102.6466,
      "duration": 0.0107,
      "velocity": 121,
      "chip": "ym2612"
    },
    {
      "channel": 0,
      "note": 49,
      "start": 102.6494,
      "duration": 0.1244,
      "velocity": 97,
      "chip": "ym2612"
    },
    {
      "channel": 3,
      "note": 65,
      "start": 102.6526,
      "duration": 0.0545,
      "velocity": 107,
      "chip": "ym2612"
    },
    {
      "channel": 2,
      "note": 81,
      "start": 102.7265,
      "duration": 0.0142,
      "velocity": 121,
      "chip": "ym2612"
    },
    {
      "channel": 0,
      "note": 48,
      "start": 102.7771,
      "duration": 0.1134,
      "velocity": 97,
      "chip": "ym2612"
    },
    {
      "channel": 3,
      "note": 55,
      "start": 102.7802,
      "duration": 0.1104,
      "velocity": 107,
      "chip": "ym2612"
    },
    {
      "channel": 2,
      "note": 81,
      "start": 102.8101,
      "duration": 0.0139,
      "velocity": 121,
      "chip": "ym2612"
    },
    {
      "channel": 1,
      "note": 45,
      "start": 102.8964,
      "duration": 0.0606,
      "velocity": 122,
      "chip": "ym2612"
    },
    {
      "channel": 2,
      "note": 81,
      "start": 102.9003,
      "duration": 0.0737,
      "velocity": 104,
      "chip": "ym2612"
    },
    {
      "channel": 5,
      "note": 82,
      "start": 102.9036,
      "duration": 1.0204,
      "velocity": 106,
      "chip": "ym2612"
    },
    {
      "channel": 3,
      "note": 75,
      "start": 102.9064,
      "duration": 0.1175,
      "velocity": 107,
      "chip": "ym2612"
    },
    {
      "channel": 4,
      "note": 70,
      "start": 102.9125,
      "duration": 0.1115,
      "velocity": 107,
      "chip": "ym2612"
    },
    {
      "channel": 1,
      "note": 45,
      "start": 103.029,
      "duration": 0.0782,
      "velocity": 122,
      "chip": "ym2612"
    },
    {
      "channel": 2,
      "note": 81,
      "start": 103.0332,
      "duration": 0.0108,
      "velocity": 121,
      "chip": "ym2612"
    },
    {
      "channel": 0,
      "note": 53,
      "start": 103.0364,
      "duration": 0.0707,
      "velocity": 97,
      "chip": "ym2612"
    },
    {
      "channel": 3,
      "note": 51,
      "start": 103.0396,
      "duration": 0.0677,
      "velocity": 107,
      "chip": "ym2612"
    },
    {
      "channel": 4,
      "note": 58,
      "start": 103.0422,
      "duration": 0.0652,
      "velocity": 107,
      "chip": "ym2612"
    },
    {
      "channel": 2,
      "note": 81,
      "start": 103.1599,
      "duration": 0.0141,
      "velocity": 121,
      "chip": "ym2612"
    },
    {
      "channel": 0,
      "note": 54,
      "start": 103.1626,
      "duration": 0.0945,
      "velocity": 97,
      "chip": "ym2612"
    },
    {
      "channel": 1,
      "note": 45,
      "start": 103.2769,
      "duration": 0.1137,
      "velocity": 122,
      "chip": "ym2612"
    },
    {
      "channel": 2,
      "note": 81,
      "start": 103.2793,
      "duration": 0.028,
      "velocity": 121,
      "chip": "ym2612"
    },
    {
      "channel": 0,
      "note": 56,
      "start": 103.2817,
      "duration": 0.1087,
      "velocity": 97,
      "chip": "ym2612"
    },
    {
      "channel": 3,
      "note": 51,
      "start": 103.2849,
      "duration": 0.1058,
      "velocity": 107,
      "chip": "ym2612"
    },
    {
      "channel": 4,
      "note": 58,
      "start": 103.2876,
      "duration": 0.1033,
      "velocity": 107,
      "chip": "ym2612"
    },
    {
      "channel": 1,
      "note": 55,
      "start": 103.4132,
      "duration": 0.1606,
      "velocity": 125,
      "chip": "ym2612"
    },
    {
      "channel": 2,
      "note": 81,
      "start": 103.4155,
      "duration": 0.0085,
      "velocity": 121,
      "chip": "ym2612"
    },
    {
      "channel": 0,
      "note": 61,
      "start": 103.418,
      "duration": 0.1057,
      "velocity": 97,
      "chip": "ym2612"
    },
    {
      "channel": 2,
      "note": 81,
      "start": 103.5433,
      "duration": 0.0141,
      "velocity": 121,
      "chip": "ym2612"
    },
    {
      "channel": 0,
      "note": 46,
      "start": 103.5458,
      "duration": 0.0945,
      "velocity": 97,
      "chip": "ym2612"
    },
    {
      "channel": 3,
      "note": 51,
      "start": 103.549,
      "duration": 0.0749,
      "velocity": 107,
      "chip": "ym2612"
    },
    {
      "channel": 4,
      "note": 58,
      "start": 103.5516,
      "duration": 0.0724,
      "velocity": 107,
      "chip": "ym2612"
    },
    {
      "channel": 2,
      "note": 81,
      "start": 103.6797,
      "duration": 0.0943,
      "velocity": 104,
      "chip": "ym2612"
    },
    {
      "channel": 0,
      "note": 54,
      "start": 103.6823,
      "duration": 0.0747,
      "velocity": 97,
      "chip": "ym2612"
    },
    {
      "channel": 3,
      "note": 66,
      "start": 103.6858,
      "duration": 0.3382,
      "velocity": 107,
      "chip": "ym2612"
    },
    {
      "channel": 4,
      "note": 73,
      "start": 103.6886,
      "duration": 0.3685,
      "velocity": 107,
      "chip": "ym2612"
    },
    {
      "channel": 2,
      "note": 81,
      "start": 103.7966,
      "duration": 0.0273,
      "velocity": 121,
      "chip": "ym2612"
    },
    {
      "channel": 0,
      "note": 49,
      "start": 103.7991,
      "duration": 0.0746,
      "velocity": 97,
      "chip": "ym2612"
    },
    {
      "channel": 1,
      "note": 45,
      "start": 103.9298,
      "duration": 0.0606,
      "velocity": 122,
      "chip": "ym2612"
    },
    {
      "channel": 2,
      "note": 81,
      "start": 103.9321,
      "duration": 0.0086,
      "velocity": 121,
      "chip": "ym2612"
    },
    {
      "channel": 0,
      "note": 58,
      "start": 103.9347,
      "duration": 0.0891,
      "velocity": 97,
      "chip": "ym2612"
    },
    {
      "channel": 1,
      "note": 45,
      "start": 104.0626,
      "duration": 0.0945,
      "velocity": 122,
      "chip": "ym2612"
    },
    {
      "channel": 2,
      "note": 81,
      "start": 104.065,
      "duration": 0.0116,
      "velocity": 121,
      "chip": "ym2612"
    },
    {
      "channel": 0,
      "note": 51,
      "start": 104.0678,
      "duration": 0.0726,
      "velocity": 97,
      "chip": "ym2612"
    },
    {
      "channel": 5,
      "note": 75,
      "start": 104.072,
      "duration": 0.0852,
      "velocity": 106,
      "chip": "ym2612"
    },
    {
      "channel": 3,
      "note": 58,
      "start": 104.0749,
      "duration": 0.0657,
      "velocity": 107,
      "chip": "ym2612"
    },
    {
      "channel": 2,
      "note": 81,
      "start": 104.1766,
      "duration": 0.0307,
      "velocity": 121,
      "chip": "ym2612"
    },
    {
      "channel": 5,
      "note": 76,
      "start": 104.1798,
      "duration": 0.0941,
      "velocity": 106,
      "chip": "ym2612"
    },
    {
      "channel": 3,
      "note": 59,
      "start": 104.1825,
      "duration": 0.1081,
      "velocity": 107,
      "chip": "ym2612"
    },
    {
      "channel": 1,
      "note": 45,
      "start": 104.3101,
      "duration": 0.1136,
      "velocity": 122,
      "chip": "ym2612"
    },
    {
      "channel": 2,
      "note": 81,
      "start": 104.3125,
      "duration": 0.0115,
      "velocity": 121,
      "chip": "ym2612"
    },
    {
      "channel": 0,
      "note": 51,
      "start": 104.3154,
      "duration": 0.0751,
      "velocity": 97,
      "chip": "ym2612"
    },
    {
      "channel": 5,
      "note": 78,
      "start": 104.3184,
      "duration": 0.1056,
      "velocity": 106,
      "chip": "ym2612"
    },
    {
      "channel": 3,
      "note": 61,
      "start": 104.3211,
      "duration": 0.1195,
      "velocity": 107,
      "chip": "ym2612"
    },
    {
      "channel": 1,
      "note": 55,
      "start": 104.4465,
      "duration": 0.1459,
      "velocity": 125,
      "chip": "ym2612"
    },
    {
      "channel": 2,
      "note": 81,
      "start": 104.4489,
      "duration": 0.0085,
      "velocity": 121,
      "chip": "ym2612"
    },
    {
      "channel": 5,
      "note": 80,
      "start": 104.452,
      "duration": 0.072,
      "velocity": 106,
      "chip": "ym2612"
    },
    {
      "channel": 3,
      "note": 63,
      "start": 104.4548,
      "duration": 0.0858,
      "velocity": 107,
      "chip": "ym2612"
    },
    {
      "channel": 2,
      "note": 81,
      "start": 104.5796,
      "duration": 0.1111,
      "velocity": 104,
      "chip": "ym2612"
    },
    {
      "channel": 0,
      "note": 51,
      "start": 104.5823,
      "duration": 0.0748,
      "velocity": 97,
      "chip": "ym2612"
    },
    {
      "channel": 5,
      "note": 82,
      "start": 104.5851,
      "duration": 0.0723,
      "velocity": 106,
      "chip": "ym2612"
    },
    {
      "channel": 3,
      "note": 70,
      "start": 104.5882,
      "duration": 0.0856,
      "velocity": 107,
      "chip": "ym2612"
    },
    {
      "channel": 4,
      "note": 66,
      "start": 104.5908,
      "duration": 0.0831,
      "velocity": 107,
      "chip": "ym2612"
    },
    {
      "channel": 2,
      "note": 81,
      "start": 104.6966,
      "duration": 0.0274,
      "velocity": 121,
      "chip": "ym2612"
    },
    {
      "channel": 0,
      "note": 51,
      "start": 104.6991,
      "duration": 0.0747,
      "velocity": 97,
      "chip": "ym2612"
    },
    {
      "channel": 5,
      "note": 83,
      "start": 104.7022,
      "duration": 0.1051,
      "velocity": 106,
      "chip": "ym2612"
    },
    {
      "channel": 3,
      "note": 65,
      "start": 104.7049,
      "duration": 0.1022,
      "velocity": 107,
      "chip": "ym2612"
    },
    {
      "channel": 2,
      "note": 81,
      "start": 104.7767,
      "duration": 0.0307,
      "velocity": 121,
      "chip": "ym2612"
    },
    {
      "channel": 3,
      "note": 63,
      "start": 104.811,
      "duration": 0.0962,
      "velocity": 107,
      "chip": "ym2612"
    },
    {
      "channel": 0,
      "note": 51,
      "start": 104.8268,
      "duration": 0.0802,
      "velocity": 97,
      "chip": "ym2612"
    },
    {
      "channel": 5,
      "note": 85,
      "start": 104.8298,
      "duration": 0.0942,
      "velocity": 106,
      "chip": "ym2612"
    },
    {
      "channel": 2,
      "note": 81,
      "start": 104.8767,
      "duration": 0.014,
      "velocity": 121,
      "chip": "ym2612"
    },
    {
      "channel": 2,
      "note": 81,
      "start": 104.9271,
      "duration": 0.0469,
      "velocity": 121,
      "chip": "ym2612"
    },
    {
      "channel": 1,
      "note": 45,
      "start": 104.9635,
      "duration": 0.0602,
      "velocity": 122,
      "chip": "ym2612"
    },
    {
      "channel": 5,
      "note": 87,
      "start": 104.9666,
      "duration": 0.0907,
      "velocity": 106,
      "chip": "ym2612"
    },
    {
      "channel": 3,
      "note": 68,
      "start": 104.9693,
      "duration": 0.0878,
      "velocity": 107,
      "chip": "ym2612"
    },
    {
      "channel": 4,
      "note": 73,
      "start": 104.9721,
      "duration": 0.0685,
      "velocity": 107,
      "chip": "ym2612"
    },
    {
      "channel": 1,
      "note": 45,
      "start": 105.077,
      "duration": 0.0968,
      "velocity": 122,
      "chip": "ym2612"
    },
    {
      "channel": 2,
      "note": 81,
      "start": 105.0797,
      "duration": 0.0277,
      "velocity": 121,
      "chip": "ym2612"
    },
    {
      "channel": 0,
      "note": 52,
      "start": 105.0824,
      "duration": 0.1247,
      "velocity": 97,
      "chip": "ym2612"
    },
    {
      "channel": 5,
      "note": 83,
      "start": 105.0855,
      "duration": 0.0885,
      "velocity": 106,
      "chip": "ym2612"
    },
    {
      "channel": 3,
      "note": 59,
      "start": 105.0884,
      "duration": 0.119,
      "velocity": 107,
      "chip": "ym2612"
    },
    {
      "channel": 2,
      "note": 81,
      "start": 105.2101,
      "duration": 0.0139,
      "velocity": 121,
      "chip": "ym2612"
    },
    {
      "channel": 0,
      "note": 54,
      "start": 105.2128,
      "duration": 0.0776,
      "velocity": 97,
      "chip": "ym2612"
    },
    {
      "channel": 5,
      "note": 76,
      "start": 105.2162,
      "duration": 0.1076,
      "velocity": 106,
      "chip": "ym2612"
    },
    {
      "channel": 1,
      "note": 45,
      "start": 105.3435,
      "duration": 0.0803,
      "velocity": 122,
      "chip": "ym2612"
    },
    {
      "channel": 2,
      "note": 81,
      "start": 105.3477,
      "duration": 0.0931,
      "velocity": 104,
      "chip": "ym2612"
    },
    {
      "channel": 0,
      "note": 56,
      "start": 105.3503,
      "duration": 0.1234,
      "velocity": 97,
      "chip": "ym2612"
    },
    {
      "channel": 5,
      "note": 85,
      "start": 105.3533,
      "duration": 0.0874,
      "velocity": 106,
      "chip": "ym2612"
    },
    {
      "channel": 3,
      "note": 59,
      "start": 105.3558,
      "duration": 0.1181,
      "velocity": 107,
      "chip": "ym2612"
    },
    {
      "channel": 1,
      "note": 55,
      "start": 105.4798,
      "duration": 0.1774,
      "velocity": 125,
      "chip": "ym2612"
    },
    {
      "channel": 2,
      "note": 81,
      "start": 105.4837,
      "duration": 0.0074,
      "velocity": 121,
      "chip": "ym2612"
    },
    {
      "channel": 0,
      "note": 59,
      "start": 105.4863,
      "duration": 0.0875,
      "velocity": 97,
      "chip": "ym2612"
    },
    {
      "channel": 5,
      "note": 82,
      "start": 105.4892,
      "duration": 0.0849,
      "velocity": 106,
      "chip": "ym2612"
    },
    {
      "channel": 2,
      "note": 81,
      "start": 105.5932,
      "duration": 0.0308,
      "velocity": 121,
      "chip": "ym2612"
    },
    {
      "channel": 0,
      "note": 47,
      "start": 105.5962,
      "duration": 0.0943,
      "velocity": 97,
      "chip": "ym2612"
    },
    {
      "channel": 5,
      "note": 78,
      "start": 105.5991,
      "duration": 0.1083,
      "velocity": 106,
      "chip": "ym2612"
    },
    {
      "channel": 3,
      "note": 59,
      "start": 105.6024,
      "duration": 0.1049,
      "velocity": 107,
      "chip": "ym2612"
    },
    {
      "channel": 2,
      "note": 81,
      "start": 105.7297,
      "duration": 0.1112,
      "velocity": 104,
      "chip": "ym2612"
    },
    {
      "channel": 0,
      "note": 52,
      "start": 105.7323,
      "duration": 0.0581,
      "velocity": 97,
      "chip": "ym2612"
    },
    {
      "channel": 5,
      "note": 83,
      "start": 105.7353,
      "duration": 0.0719,
      "velocity": 106,
      "chip": "ym2612"
    },
    {
      "channel": 3,
      "note": 64,
      "start": 105.738,
      "duration": 0.1025,
      "velocity": 107,
      "chip": "ym2612"
    },
    {
      "channel": 4,
      "note": 71,
      "start": 105.7407,
      "duration": 0.1,
      "velocity": 107,
      "chip": "ym2612"
    },
    {
      "channel": 2,
      "note": 81,
      "start": 105.8635,
      "duration": 0.0106,
      "velocity": 121,
      "chip": "ym2612"
    },
    {
      "channel": 0,
      "note": 51,
      "start": 105.866,
      "duration": 0.0578,
      "velocity": 97,
      "chip": "ym2612"
    },
    {
      "channel": 5,
      "note": 80,
      "start": 105.8689,
      "duration": 0.0717,
      "velocity": 106,
      "chip": "ym2612"
    },
    {
      "channel": 3,
      "note": 59,
      "start": 105.8715,
      "duration": 0.0857,
      "velocity": 107,
      "chip": "ym2612"
    },
    {
      "channel": 1,
      "note": 45,
      "start": 105.9968,
      "duration": 0.0437,
      "velocity": 122,
      "chip": "ym2612"
    },
    {
      "channel": 2,
      "note": 81,
      "start": 105.9992,
      "duration": 0.01,
      "velocity": 121,
      "chip": "ym2612"
    },
    {
      "channel": 0,
      "note": 54,
      "start": 106.0018,
      "duration": 0.1053,
      "velocity": 97,
      "chip": "ym2612"
    },
    {
      "channel": 5,
      "note": 75,
      "start": 106.0049,
      "duration": 0.0359,
      "velocity": 106,
      "chip": "ym2612"
    },
    {
      "channel": 3,
      "note": 63,
      "start": 106.0075,
      "duration": 0.0831,
      "velocity": 107,
      "chip": "ym2612"
    },
    {
      "channel": 1,
      "note": 45,
      "start": 106.1102,
      "duration": 0.0802,
      "velocity": 122,
      "chip": "ym2612"
    },
    {
      "channel": 2,
      "note": 81,
      "start": 106.114,
      "duration": 0.4434,
      "velocity": 104,
      "chip": "ym2612"
    },
    {
      "channel": 0,
      "note": 47,
      "start": 106.1168,
      "duration": 0.1903,
      "velocity": 97,
      "chip": "ym2612"
    },
    {
      "channel": 5,
      "note": 76,
      "start": 106.1197,
      "duration": 0.0543,
      "velocity": 106,
      "chip": "ym2612"
    },
    {
      "channel": 3,
      "note": 56,
      "start": 106.1226,
      "duration": 0.1847,
      "velocity": 107,
      "chip": "ym2612"
    },
    {
      "channel": 1,
      "note": 55,
      "start": 106.2465,
      "duration": 0.094,
      "velocity": 125,
      "chip": "ym2612"
    },
    {
      "channel": 5,
      "note": 73,
      "start": 106.2499,
      "duration": 0.3574,
      "velocity": 106,
      "chip": "ym2612"
    },
    {
      "channel": 1,
      "note": 45,
      "start": 106.3798,
      "duration": 0.0774,
      "velocity": 122,
      "chip": "ym2612"
    },
    {
      "channel": 0,
      "note": 52,
      "start": 106.3827,
      "duration": 0.1412,
      "velocity": 97,
      "chip": "ym2612"
    },
    {
      "channel": 3,
      "note": 61,
      "start": 106.3858,
      "duration": 0.088,
      "velocity": 107,
      "chip": "ym2612"
    },
    {
      "channel": 1,
      "note": 55,
      "start": 106.4972,
      "duration": 0.1266,
      "velocity": 125,
      "chip": "ym2612"
    },
    {
      "channel": 4,
      "note": 46,
      "start": 106.5004,
      "duration": 0.2568,
      "velocity": 97,
      "chip": "ym2612"
    },
    {
      "channel": 3,
      "note": 52,
      "start": 106.504,
      "duration": 0.2032,
      "velocity": 107,
      "chip": "ym2612"
    },
    {
      "channel": 2,
      "note": 81,
      "start": 106.63,
      "duration": 0.0107,
      "velocity": 121,
      "chip": "ym2612"
    },
    {
      "channel": 5,
      "note": 83,
      "start": 106.6337,
      "duration": 0.2237,
      "velocity": 106,
      "chip": "ym2612"
    },
    {
      "channel": 3,
      "note": 59,
      "start": 106.7112,
      "duration": 0.1127,
      "velocity": 107,
      "chip": "ym2612"
    },
    {
      "channel": 2,
      "note": 81,
      "start": 106.7602,
      "duration": 0.0139,
      "velocity": 121,
      "chip": "ym2612"
    },
    {
      "channel": 0,
      "note": 52,
      "start": 106.7633,
      "duration": 0.1271,
      "velocity": 97,
      "chip": "ym2612"
    },
    {
      "channel": 2,
      "note": 81,
      "start": 106.8432,
      "duration": 0.0143,
      "velocity": 121,
      "chip": "ym2612"
    },
    {
      "channel": 0,
      "note": 51,
      "start": 106.8937,
      "duration": 0.1135,
      "velocity": 97,
      "chip": "ym2612"
    },
    {
      "channel": 5,
      "note": 82,
      "start": 106.8969,
      "duration": 0.0271,
      "velocity": 106,
      "chip": "ym2612"
    },
    {
      "channel": 3,
      "note": 58,
      "start": 106.8998,
      "duration": 0.2241,
      "velocity": 107,
      "chip": "ym2612"
    },
    {
      "channel": 1,
      "note": 51,
      "start": 106.9025,
      "duration": 0.2212,
      "velocity": 107,
      "chip": "ym2612"
    },
    {
      "channel": 2,
      "note": 81,
      "start": 106.9268,
      "duration": 0.0139,
      "velocity": 121,
      "chip": "ym2612"
    },
    {
      "channel": 5,
      "note": 83,
      "start": 106.9441,
      "duration": 0.0466,
      "velocity": 106,
      "chip": "ym2612"
    },
    {
      "channel": 4,
      "note": 45,
      "start": 107.0142,
      "duration": 0.0763,
      "velocity": 122,
      "chip": "ym2612"
    },
    {
      "channel": 2,
      "note": 81,
      "start": 107.018,
      "duration": 0.0227,
      "velocity": 121,
      "chip": "ym2612"
    },
    {
      "channel": 5,
      "note": 82,
      "start": 107.0213,
      "duration": 1.1195,
      "velocity": 106,
      "chip": "ym2612"
    },
    {
      "channel": 4,
      "note": 45,
      "start": 107.1466,
      "duration": 0.0942,
      "velocity": 122,
      "chip": "ym2612"
    },
    {
      "channel": 2,
      "note": 81,
      "start": 107.1489,
      "duration": 0.0101,
      "velocity": 121,
      "chip": "ym2612"
    },
    {
      "channel": 0,
      "note": 51,
      "start": 107.1515,
      "duration": 0.1223,
      "velocity": 97,
      "chip": "ym2612"
    },
    {
      "channel": 1,
      "note": 63,
      "start": 107.1547,
      "duration": 0.0858,
      "velocity": 107,
      "chip": "ym2612"
    },
    {
      "channel": 3,
      "note": 58,
      "start": 107.1573,
      "duration": 0.0834,
      "velocity": 107,
      "chip": "ym2612"
    },
    {
      "channel": 2,
      "note": 81,
      "start": 107.2767,
      "duration": 0.0139,
      "velocity": 121,
      "chip": "ym2612"
    },
    {
      "channel": 0,
      "note": 52,
      "start": 107.2792,
      "duration": 0.1113,
      "velocity": 97,
      "chip": "ym2612"
    },
    {
      "channel": 4,
      "note": 45,
      "start": 107.3938,
      "duration": 0.1301,
      "velocity": 122,
      "chip": "ym2612"
    },
    {
      "channel": 2,
      "note": 81,
      "start": 107.3962,
      "duration": 0.0279,
      "velocity": 121,
      "chip": "ym2612"
    },
    {
      "channel": 0,
      "note": 54,
      "start": 107.3989,
      "duration": 0.1082,
      "velocity": 97,
      "chip": "ym2612"
    },
    {
      "channel": 1,
      "note": 63,
      "start": 107.4022,
      "duration": 0.105,
      "velocity": 107,
      "chip": "ym2612"
    },
    {
      "channel": 3,
      "note": 58,
      "start": 107.4048,
      "duration": 0.1025,
      "velocity": 107,
      "chip": "ym2612"
    },
    {
      "channel": 4,
      "note": 55,
      "start": 107.5306,
      "duration": 0.1599,
      "velocity": 125,
      "chip": "ym2612"
    },
    {
      "channel": 2,
      "note": 81,
      "start": 107.533,
      "duration": 0.0078,
      "velocity": 121,
      "chip": "ym2612"
    },
    {
      "channel": 0,
      "note": 56,
      "start": 107.5354,
      "duration": 0.1049,
      "velocity": 97,
      "chip": "ym2612"
    },
    {
      "channel": 2,
      "note": 81,
      "start": 107.6599,
      "duration": 0.0141,
      "velocity": 121,
      "chip": "ym2612"
    },
    {
      "channel": 0,
      "note": 49,
      "start": 107.6625,
      "duration": 0.1446,
      "velocity": 97,
      "chip": "ym2612"
    },
    {
      "channel": 1,
      "note": 64,
      "start": 107.6657,
      "duration": 0.0748,
      "velocity": 107,
      "chip": "ym2612"
    },
    {
      "channel": 3,
      "note": 56,
      "start": 107.6683,
      "duration": 0.0723,
      "velocity": 107,
      "chip": "ym2612"
    },
    {
      "channel": 2,
      "note": 81,
      "start": 107.7932,
      "duration": 0.0143,
      "velocity": 121,
      "chip": "ym2612"
    },
    {
      "channel": 4,
      "note": 52,
      "start": 107.7961,
      "duration": 0.0778,
      "velocity": 97,
      "chip": "ym2612"
    },
    {
      "channel": 2,
      "note": 81,
      "start": 107.9133,
      "duration": 0.2107,
      "velocity": 104,
      "chip": "ym2612"
    },
    {
      "channel": 0,
      "note": 47,
      "start": 107.9158,
      "duration": 0.0747,
      "velocity": 97,
      "chip": "ym2612"
    },
    {
      "channel": 1,
      "note": 64,
      "start": 107.9188,
      "duration": 0.0718,
      "velocity": 107,
      "chip": "ym2612"
    },
    {
      "channel": 3,
      "note": 56,
      "start": 107.9213,
      "duration": 0.0694,
      "velocity": 107,
      "chip": "ym2612"
    },
    {
      "channel": 4,
      "note": 45,
      "start": 108.0467,
      "duration": 0.0605,
      "velocity": 122,
      "chip": "ym2612"
    },
    {
      "channel": 0,
      "note": 54,
      "start": 108.0498,
      "duration": 0.0906,
      "velocity": 97,
      "chip": "ym2612"
    },
    {
      "channel": 1,
      "note": 73,
      "start": 108.0529,
      "duration": 0.0875,
      "velocity": 107,
      "chip": "ym2612"
    },
    {
      "channel": 3,
      "note": 68,
      "start": 108.0561,
      "duration": 0.0678,
      "velocity": 107,
      "chip": "ym2612"
    },
    {
      "channel": 4,
      "note": 45,
      "start": 108.177,
      "duration": 0.097,
      "velocity": 122,
      "chip": "ym2612"
    },
    {
      "channel": 2,
      "note": 81,
      "start": 108.1808,
      "duration": 0.0134,
      "velocity": 121,
      "chip": "ym2612"
    },
    {
      "channel": 0,
      "note": 49,
      "start": 108.1836,
      "duration": 0.2402,
      "velocity": 97,
      "chip": "ym2612"
    },
    {
      "channel": 5,
      "note": 80,
      "start": 108.1868,
      "duration": 0.0538,
      "velocity": 106,
      "chip": "ym2612"
    },
    {
      "channel": 1,
      "note": 64,
      "start": 108.1896,
      "duration": 0.1675,
      "velocity": 107,
      "chip": "ym2612"
    },
    {
      "channel": 3,
      "note": 59,
      "start": 108.1924,
      "duration": 0.1981,
      "velocity": 107,
      "chip": "ym2612"
    },
    {
      "channel": 2,
      "note": 81,
      "start": 108.2932,
      "duration": 0.0309,
      "velocity": 121,
      "chip": "ym2612"
    },
    {
      "channel": 5,
      "note": 78,
      "start": 108.2962,
      "duration": 0.0612,
      "velocity": 106,
      "chip": "ym2612"
    },
    {
      "channel": 4,
      "note": 45,
      "start": 108.4291,
      "duration": 0.1115,
      "velocity": 122,
      "chip": "ym2612"
    },
    {
      "channel": 2,
      "note": 81,
      "start": 108.4315,
      "duration": 0.0132,
      "velocity": 121,
      "chip": "ym2612"
    },
    {
      "channel": 0,
      "note": 52,
      "start": 108.4343,
      "duration": 0.1228,
      "velocity": 97,
      "chip": "ym2612"
    },
    {
      "channel": 5,
      "note": 76,
      "start": 108.4375,
      "duration": 0.2531,
      "velocity": 106,
      "chip": "ym2612"
    },
    {
      "channel": 1,
      "note": 73,
      "start": 108.4403,
      "duration": 0.1001,
      "velocity": 107,
      "chip": "ym2612"
    },
    {
      "channel": 3,
      "note": 68,
      "start": 108.4429,
      "duration": 0.0976,
      "velocity": 107,
      "chip": "ym2612"
    },
    {
      "channel": 1,
      "note": 56,
      "start": 108.5445,
      "duration": 0.2461,
      "velocity": 107,
      "chip": "ym2612"
    },
    {
      "channel": 4,
      "note": 55,
      "start": 108.5631,
      "duration": 0.0941,
      "velocity": 125,
      "chip": "ym2612"
    },
    {
      "channel": 2,
      "note": 81,
      "start": 108.5655,
      "duration": 0.0086,
      "velocity": 121,
      "chip": "ym2612"
    },
    {
      "channel": 0,
      "note": 47,
      "start": 108.5683,
      "duration": 0.2221,
      "velocity": 97,
      "chip": "ym2612"
    },
    {
      "channel": 3,
      "note": 61,
      "start": 108.5717,
      "duration": 0.2355,
      "velocity": 107,
      "chip": "ym2612"
    },
    {
      "channel": 2,
      "note": 81,
      "start": 108.6933,
      "duration": 0.0141,
      "velocity": 121,
      "chip": "ym2612"
    },
    {
      "channel": 5,
      "note": 78,
      "start": 108.697,
      "duration": 0.0436,
      "velocity": 106,
      "chip": "ym2612"
    },
    {
      "channel": 5,
      "note": 76,
      "start": 108.7776,
      "duration": 0.0298,
      "velocity": 106,
      "chip": "ym2612"
    },
    {
      "channel": 2,
      "note": 81,
      "start": 108.8103,
      "duration": 0.0304,
      "velocity": 121,
      "chip": "ym2612"
    },
    {
      "channel": 0,
      "note": 49,
      "start": 108.8131,
      "duration": 0.1106,
      "velocity": 97,
      "chip": "ym2612"
    },
    {
      "channel": 5,
      "note": 75,
      "start": 108.8163,
      "duration": 0.4078,
      "velocity": 106,
      "chip": "ym2612"
    },
    {
      "channel": 1,
      "note": 68,
      "start": 108.8191,
      "duration": 0.1047,
      "velocity": 107,
      "chip": "ym2612"
    },
    {
      "channel": 3,
      "note": 73,
      "start": 108.8218,
      "duration": 0.0687,
      "velocity": 107,
      "chip": "ym2612"
    },
    {
      "channel": 2,
      "note": 81,
      "start": 108.8934,
      "duration": 0.0307,
      "velocity": 121,
      "chip": "ym2612"
    },
    {
      "channel": 0,
      "note": 44,
      "start": 108.9438,
      "duration": 0.2299,
      "velocity": 97,
      "chip": "ym2612"
    },
    {
      "channel": 1,
      "note": 59,
      "start": 108.9469,
      "duration": 0.2103,
      "velocity": 107,
      "chip": "ym2612"
    },
    {
      "channel": 3,
      "note": 52,
      "start": 108.9496,
      "duration": 0.2408,
      "velocity": 107,
      "chip": "ym2612"
    },
    {
      "channel": 2,
      "note": 81,
      "start": 108.9933,
      "duration": 0.0141,
      "velocity": 121,
      "chip": "ym2612"
    },
    {
      "channel": 4,
      "note": 45,
      "start": 109.0798,
      "duration": 0.0607,
      "velocity": 122,
      "chip": "ym2612"
    },
    {
      "channel": 2,
      "note": 81,
      "start": 109.084,
      "duration": 0.1066,
      "velocity": 104,
      "chip": "ym2612"
    },
    {
      "channel": 4,
      "note": 99,
      "start": 109.1779,
      "duration": 0.0275,
      "velocity": 99,
      "chip": "ym2612"
    },
    {
      "channel": 1,
      "note": 45,
      "start": 109.194,
      "duration": 0.1132,
      "velocity": 122,
      "chip": "ym2612"
    },
    {
      "channel": 2,
      "note": 81,
      "start": 109.1978,
      "duration": 0.0264,
      "velocity": 121,
      "chip": "ym2612"
    },
    {
      "channel": 0,
      "note": 44,
      "start": 109.201,
      "duration": 0.1227,
      "velocity": 97,
      "chip": "ym2612"
    },
    {
      "channel": 3,
      "note": 59,
      "start": 109.2045,
      "duration": 0.086,
      "velocity": 107,
      "chip": "ym2612"
    },
    {
      "channel": 4,
      "note": 52,
      "start": 109.2075,
      "duration": 0.0499,
      "velocity": 107,
      "chip": "ym2612"
    },
    {
      "channel": 5,
      "note": 102,
      "start": 109.2297,
      "duration": 0.061,
      "velocity": 99,
      "chip": "ym2612"
    },
    {
      "channel": 2,
      "note": 76,
      "start": 109.2329,
      "duration": 0.0745,
      "velocity": 106,
      "chip": "ym2612"
    },
    {
      "channel": 5,
      "note": 97,
      "start": 109.311,
      "duration": 0.0796,
      "velocity": 99,
      "chip": "ym2612"
    },
    {
      "channel": 4,
      "note": 109,
      "start": 109.3147,
      "duration": 0.0758,
      "velocity": 99,
      "chip": "ym2612"
    },
    {
      "channel": 2,
      "note": 81,
      "start": 109.3267,
      "duration": 0.0141,
      "velocity": 121,
      "chip": "ym2612"
    },
    {
      "channel": 0,
      "note": 46,
      "start": 109.3293,
      "duration": 0.0779,
      "velocity": 97,
      "chip": "ym2612"
    },
    {
      "channel": 3,
      "note": 73,
      "start": 109.3325,
      "duration": 0.8915,
      "velocity": 106,
      "chip": "ym2612"
    },
    {
      "channel": 5,
      "note": 93,
      "start": 109.3943,
      "duration": 0.063,
      "velocity": 99,
      "chip": "ym2612"
    },
    {
      "channel": 4,
      "note": 104,
      "start": 109.3973,
      "duration": 0.0763,
      "velocity": 99,
      "chip": "ym2612"
    },
    {
      "channel": 1,
      "note": 45,
      "start": 109.4624,
      "duration": 0.0948,
      "velocity": 122,
      "chip": "ym2612"
    },
    {
      "channel": 2,
      "note": 81,
      "start": 109.4666,
      "duration": 0.0909,
      "velocity": 104,
      "chip": "ym2612"
    },
    {
      "channel": 0,
      "note": 49,
      "start": 109.4692,
      "duration": 0.1213,
      "velocity": 97,
      "chip": "ym2612"
    },
    {
      "channel": 5,
      "note": 59,
      "start": 109.4725,
      "duration": 0.068,
      "velocity": 107,
      "chip": "ym2612"
    },
    {
      "channel": 4,
      "note": 52,
      "start": 109.4755,
      "duration": 0.0483,
      "velocity": 107,
      "chip": "ym2612"
    },
    {
      "channel": 1,
      "note": 55,
      "start": 109.5965,
      "duration": 0.144,
      "velocity": 125,
      "chip": "ym2612"
    },
    {
      "channel": 2,
      "note": 81,
      "start": 109.6003,
      "duration": 0.008,
      "velocity": 121,
      "chip": "ym2612"
    },
    {
      "channel": 0,
      "note": 52,
      "start": 109.603,
      "duration": 0.0875,
      "velocity": 97,
      "chip": "ym2612"
    },
    {
      "channel": 4,
      "note": 97,
      "start": 109.6064,
      "duration": 0.0342,
      "velocity": 99,
      "chip": "ym2612"
    },
    {
      "channel": 5,
      "note": 96,
      "start": 109.6944,
      "duration": 0.0254,
      "velocity": 99,
      "chip": "ym2612"
    },
    {
      "channel": 2,
      "note": 81,
      "start": 109.713,
      "duration": 0.1109,
      "velocity": 104,
      "chip": "ym2612"
    },
    {
      "channel": 0,
      "note": 47,
      "start": 109.7156,
      "duration": 0.0748,
      "velocity": 97,
      "chip": "ym2612"
    },
    {
      "channel": 4,
      "note": 59,
      "start": 109.7188,
      "duration": 0.0551,
      "velocity": 107,
      "chip": "ym2612"
    },
    {
      "channel": 5,
      "note": 52,
      "start": 109.7217,
      "duration": 0.069,
      "velocity": 107,
      "chip": "ym2612"
    },
    {
      "channel": 1,
      "note": 103,
      "start": 109.7947,
      "duration": 0.0957,
      "velocity": 99,
      "chip": "ym2612"
    },
    {
      "channel": 2,
      "note": 81,
      "start": 109.8467,
      "duration": 0.0107,
      "velocity": 121,
      "chip": "ym2612"
    },
    {
      "channel": 0,
      "note": 54,
      "start": 109.8493,
      "duration": 0.0578,
      "velocity": 97,
      "chip": "ym2612"
    },
    {
      "channel": 4,
      "note": 95,
      "start": 109.8944,
      "duration": 0.0629,
      "velocity": 99,
      "chip": "ym2612"
    },
    {
      "channel": 2,
      "note": 81,
      "start": 109.9766,
      "duration": 0.0141,
      "velocity": 121,
      "chip": "ym2612"
    },
    {
      "channel": 0,
      "note": 49,
      "start": 109.9791,
      "duration": 0.0613,
      "velocity": 97,
      "chip": "ym2612"
    },
    {
      "channel": 5,
      "note": 59,
      "start": 109.9828,
      "duration": 0.0245,
      "velocity": 107,
      "chip": "ym2612"
    },
    {
      "channel": 1,
      "note": 52,
      "start": 109.9856,
      "duration": 0.0715,
      "velocity": 107,
      "chip": "ym2612"
    },
    {
      "channel": 4,
      "note": 102,
      "start": 109.9945,
      "duration": 0.0628,
      "velocity": 99,
      "chip": "ym2612"
    },
    {
      "channel": 2,
      "note": 97,
      "start": 110.0777,
      "duration": 0.0362,
      "velocity": 99,
      "chip": "ym2612"
    },
    {
      "channel": 5,
      "note": 45,
      "start": 110.1134,
      "duration": 0.0439,
      "velocity": 122,
      "chip": "ym2612"
    },
    {
      "channel": 2,
      "note": 81,
      "start": 110.1158,
      "duration": 0.0105,
      "velocity": 121,
      "chip": "ym2612"
    },
    {
      "channel": 0,
      "note": 56,
      "start": 110.1184,
      "duration": 0.1054,
      "velocity": 97,
      "chip": "ym2612"
    },
    {
      "channel": 1,
      "note": 76,
      "start": 110.1216,
      "duration": 0.1023,
      "velocity": 107,
      "chip": "ym2612"
    },
    {
      "channel": 4,
      "note": 68,
      "start": 110.1244,
      "duration": 0.0828,
      "velocity": 107,
      "chip": "ym2612"
    },
    {
      "channel": 2,
      "note": 104,
      "start": 110.1963,
      "duration": 0.0316,
      "velocity": 99,
      "chip": "ym2612"
    },
    {
      "channel": 5,
      "note": 45,
      "start": 110.2274,
      "duration": 0.1133,
      "velocity": 122,
      "chip": "ym2612"
    },
    {
      "channel": 2,
      "note": 81,
      "start": 110.2298,
      "duration": 0.0276,
      "velocity": 121,
      "chip": "ym2612"
    },
    {
      "channel": 0,
      "note": 52,
      "start": 110.233,
      "duration": 0.1908,
      "velocity": 97,
      "chip": "ym2612"
    },
    {
      "channel": 3,
      "note": 68,
      "start": 110.2364,
      "duration": 0.0542,
      "velocity": 106,
      "chip": "ym2612"
    },
    {
      "channel": 1,
      "note": 61,
      "start": 110.2392,
      "duration": 0.2179,
      "velocity": 107,
      "chip": "ym2612"
    },
    {
      "channel": 4,
      "note": 96,
      "start": 110.2797,
      "duration": 0.0275,
      "velocity": 99,
      "chip": "ym2612"
    },
    {
      "channel": 3,
      "note": 73,
      "start": 110.2941,
      "duration": 0.0631,
      "velocity": 106,
      "chip": "ym2612"
    },
    {
      "channel": 2,
      "note": 81,
      "start": 110.363,
      "duration": 0.461,
      "velocity": 104,
      "chip": "ym2612"
    },
    {
      "channel": 4,
      "note": 103,
      "start": 110.3665,
      "duration": 0.0408,
      "velocity": 99,
      "chip": "ym2612"
    },
    {
      "channel": 3,
      "note": 68,
      "start": 110.3692,
      "duration": 0.038,
      "velocity": 106,
      "chip": "ym2612"
    },
    {
      "channel": 5,
      "note": 102,
      "start": 110.3774,
      "duration": 0.0466,
      "velocity": 99,
      "chip": "ym2612"
    },
    {
      "channel": 3,
      "note": 73,
      "start": 110.4276,
      "duration": 0.0629,
      "velocity": 106,
      "chip": "ym2612"
    },
    {
      "channel": 4,
      "note": 45,
      "start": 110.4961,
      "duration": 0.0946,
      "velocity": 122,
      "chip": "ym2612"
    },
    {
      "channel": 0,
      "note": 59,
      "start": 110.4989,
      "duration": 0.1415,
      "velocity": 97,
      "chip": "ym2612"
    },
    {
      "channel": 5,
      "note": 97,
      "start": 110.5021,
      "duration": 0.0114,
      "velocity": 99,
      "chip": "ym2612"
    },
    {
      "channel": 1,
      "note": 109,
      "start": 110.5054,
      "duration": 0.0051,
      "velocity": 99,
      "chip": "ym2612"
    },
    {
      "channel": 3,
      "note": 68,
      "start": 110.508,
      "duration": 0.0492,
      "velocity": 106,
      "chip": "ym2612"
    },
    {
      "channel": 1,
      "note": 76,
      "start": 110.5125,
      "duration": 0.0779,
      "velocity": 107,
      "chip": "ym2612"
    },
    {
      "channel": 5,
      "note": 68,
      "start": 110.5155,
      "duration": 0.0585,
      "velocity": 107,
      "chip": "ym2612"
    },
    {
      "channel": 3,
      "note": 73,
      "start": 110.5607,
      "duration": 0.0466,
      "velocity": 106,
      "chip": "ym2612"
    },
    {
      "channel": 5,
      "note": 104,
      "start": 110.5947,
      "duration": 0.0258,
      "velocity": 99,
      "chip": "ym2612"
    },
    {
      "channel": 4,
      "note": 55,
      "start": 110.6133,
      "duration": 0.1774,
      "velocity": 125,
      "chip": "ym2612"
    },
    {
      "channel": 1,
      "note": 54,
      "start": 110.6165,
      "duration": 0.2574,
      "velocity": 97,
      "chip": "ym2612"
    },
    {
      "channel": 3,
      "note": 68,
      "start": 110.6194,
      "duration": 0.0377,
      "velocity": 106,
      "chip": "ym2612"
    },
    {
      "channel": 5,
      "note": 59,
      "start": 110.6225,
      "duration": 0.2014,
      "velocity": 107,
      "chip": "ym2612"
    },
    {
      "channel": 0,
      "note": 106,
      "start": 110.6776,
      "duration": 0.048,
      "velocity": 99,
      "chip": "ym2612"
    },
    {
      "channel": 3,
      "note": 73,
      "start": 110.6804,
      "duration": 0.0602,
      "velocity": 106,
      "chip": "ym2612"
    },
    {
      "channel": 0,
      "note": 102,
      "start": 110.7278,
      "duration": 0.0627,
      "velocity": 99,
      "chip": "ym2612"
    },
    {
      "channel": 3,
      "note": 68,
      "start": 110.7441,
      "duration": 0.0464,
      "velocity": 106,
      "chip": "ym2612"
    },
    {
      "channel": 0,
      "note": 96,
      "start": 110.8106,
      "duration": 0.0632,
      "velocity": 99,
      "chip": "ym2612"
    },
    {
      "channel": 3,
      "note": 73,
      "start": 110.8133,
      "duration": 0.0438,
      "velocity": 106,
      "chip": "ym2612"
    },
    {
      "channel": 4,
      "note": 109,
      "start": 110.8279,
      "duration": 0.0462,
      "velocity": 99,
      "chip": "ym2612"
    },
    {
      "channel": 5,
      "note": 91,
      "start": 110.861,
      "duration": 0.0465,
      "velocity": 99,
      "chip": "ym2612"
    },
    {
      "channel": 2,
      "note": 81,
      "start": 110.88,
      "duration": 0.0134,
      "velocity": 121,
      "chip": "ym2612"
    },
    {
      "channel": 1,
      "note": 61,
      "start": 110.8828,
      "duration": 0.1244,
      "velocity": 97,
      "chip": "ym2612"
    },
    {
      "channel": 3,
      "note": 68,
      "start": 110.8856,
      "duration": 0.0216,
      "velocity": 106,
      "chip": "ym2612"
    },
    {
      "channel": 0,
      "note": 76,
      "start": 110.8886,
      "duration": 0.0852,
      "velocity": 107,
      "chip": "ym2612"
    },
    {
      "channel": 4,
      "note": 68,
      "start": 110.8915,
      "duration": 0.049,
      "velocity": 107,
      "chip": "ym2612"
    },
    {
      "channel": 2,
      "note": 103,
      "start": 110.9129,
      "duration": 0.0444,
      "velocity": 99,
      "chip": "ym2612"
    },
    {
      "channel": 3,
      "note": 73,
      "start": 110.9457,
      "duration": 0.0283,
      "velocity": 106,
      "chip": "ym2612"
    },
    {
      "channel": 2,
      "note": 81,
      "start": 110.96,
      "duration": 0.0142,
      "velocity": 121,
      "chip": "ym2612"
    },
    {
      "channel": 1,
      "note": 56,
      "start": 111.0103,
      "duration": 0.1134,
      "velocity": 97,
      "chip": "ym2612"
    },
    {
      "channel": 3,
      "note": 68,
      "start": 111.0136,
      "duration": 0.1102,
      "velocity": 106,
      "chip": "ym2612"
    },
    {
      "channel": 0,
      "note": 65,
      "start": 111.0164,
      "duration": 0.0908,
      "velocity": 107,
      "chip": "ym2612"
    },
    {
      "channel": 4,
      "note": 70,
      "start": 111.0193,
      "duration": 0.088,
      "velocity": 107,
      "chip": "ym2612"
    },
    {
      "channel": 2,
      "note": 81,
      "start": 111.0433,
      "duration": 0.0141,
      "velocity": 121,
      "chip": "ym2612"
    },
    {
      "channel": 5,
      "note": 45,
      "start": 111.13,
      "duration": 0.0609,
      "velocity": 122,
      "chip": "ym2612"
    },
    {
      "channel": 2,
      "note": 81,
      "start": 111.1339,
      "duration": 0.0736,
      "velocity": 104,
      "chip": "ym2612"
    },
    {
      "channel": 1,
      "note": 56,
      "start": 111.1365,
      "duration": 0.054,
      "velocity": 97,
      "chip": "ym2612"
    },
    {
      "channel": 0,
      "note": 70,
      "start": 111.1417,
      "duration": 0.0655,
      "velocity": 117,
      "chip": "ym2612"
    },
    {
      "channel": 4,
      "note": 70,
      "start": 111.1468,
      "duration": 0.044,
      "velocity": 107,
      "chip": "ym2612"
    },
    {
      "channel": 3,
      "note": 65,
      "start": 111.1496,
      "duration": 0.0411,
      "velocity": 107,
      "chip": "ym2612"
    },
    {
      "channel": 5,
      "note": 45,
      "start": 111.2625,
      "duration": 0.0781,
      "velocity": 122,
      "chip": "ym2612"
    },
    {
      "channel": 2,
      "note": 81,
      "start": 111.2667,
      "duration": 0.0132,
      "velocity": 121,
      "chip": "ym2612"
    },
    {
      "channel": 1,
      "note": 56,
      "start": 111.2699,
      "duration": 0.0705,
      "velocity": 97,
      "chip": "ym2612"
    },
    {
      "channel": 0,
      "note": 58,
      "start": 111.2726,
      "duration": 0.0512,
      "velocity": 117,
      "chip": "ym2612"
    },
    {
      "channel": 3,
      "note": 70,
      "start": 111.2756,
      "duration": 0.0484,
      "velocity": 107,
      "chip": "ym2612"
    },
    {
      "channel": 4,
      "note": 65,
      "start": 111.2783,
      "duration": 0.0459,
      "velocity": 107,
      "chip": "ym2612"
    },
    {
      "channel": 2,
      "note": 82,
      "start": 111.2838,
      "duration": 0.0735,
      "velocity": 117,
      "chip": "ym2612"
    },
    {
      "channel": 2,
      "note": 81,
      "start": 111.3933,
      "duration": 0.0141,
      "velocity": 121,
      "chip": "ym2612"
    },
    {
      "channel": 0,
      "note": 58,
      "start": 111.3961,
      "duration": 0.0777,
      "velocity": 117,
      "chip": "ym2612"
    },
    {
      "channel": 3,
      "note": 70,
      "start": 111.411,
      "duration": 0.063,
      "velocity": 117,
      "chip": "ym2612"
    },
    {
      "channel": 5,
      "note": 45,
      "start": 111.5105,
      "duration": 0.1136,
      "velocity": 122,
      "chip": "ym2612"
    },
    {
      "channel": 2,
      "note": 81,
      "start": 111.5129,
      "duration": 0.0279,
      "velocity": 121,
      "chip": "ym2612"
    },
    {
      "channel": 1,
      "note": 56,
      "start": 111.5155,
      "duration": 0.1083,
      "velocity": 97,
      "chip": "ym2612"
    },
    {
      "channel": 0,
      "note": 65,
      "start": 111.5182,
      "duration": 0.0555,
      "velocity": 117,
      "chip": "ym2612"
    },
    {
      "channel": 4,
      "note": 65,
      "start": 111.5212,
      "duration": 0.0529,
      "velocity": 107,
      "chip": "ym2612"
    },
    {
      "channel": 3,
      "note": 70,
      "start": 111.5239,
      "duration": 0.05,
      "velocity": 107,
      "chip": "ym2612"
    },
    {
      "channel": 2,
      "note": 70,
      "start": 111.5444,
      "duration": 0.0799,
      "velocity": 117,
      "chip": "ym2612"
    },
    {
      "channel": 5,
      "note": 55,
      "start": 111.6467,
      "duration": 0.1605,
      "velocity": 125,
      "chip": "ym2612"
    },
    {
      "channel": 2,
      "note": 81,
      "start": 111.649,
      "duration": 0.0083,
      "velocity": 121,
      "chip": "ym2612"
    },
    {
      "channel": 0,
      "note": 58,
      "start": 111.6517,
      "duration": 0.0555,
      "velocity": 117,
      "chip": "ym2612"
    },
    {
      "channel": 3,
      "note": 77,
      "start": 111.6628,
      "duration": 0.0611,
      "velocity": 117,
      "chip": "ym2612"
    },
    {
      "channel": 2,
      "note": 81,
      "start": 111.7767,
      "duration": 0.014,
      "velocity": 121,
      "chip": "ym2612"
    },
    {
      "channel": 1,
      "note": 56,
      "start": 111.7793,
      "duration": 0.0779,
      "velocity": 97,
      "chip": "ym2612"
    },
    {
      "channel": 0,
      "note": 58,
      "start": 111.7824,
      "duration": 0.0914,
      "velocity": 117,
      "chip": "ym2612"
    },
    {
      "channel": 4,
      "note": 70,
      "start": 111.7857,
      "duration": 0.0549,
      "velocity": 107,
      "chip": "ym2612"
    },
    {
      "channel": 3,
      "note": 65,
      "start": 111.7884,
      "duration": 0.052,
      "velocity": 107,
      "chip": "ym2612"
    },
    {
      "channel": 2,
      "note": 70,
      "start": 111.7944,
      "duration": 0.0631,
      "velocity": 117,
      "chip": "ym2612"
    },
    {
      "channel": 2,
      "note": 82,
      "start": 111.8779,
      "duration": 0.0332,
      "velocity": 117,
      "chip": "ym2612"
    },
    {
      "channel": 2,
      "note": 81,
      "start": 111.913,
      "duration": 0.0943,
      "velocity": 104,
      "chip": "ym2612"
    },
    {
      "channel": 0,
      "note": 70,
      "start": 111.9158,
      "duration": 0.0746,
      "velocity": 117,
      "chip": "ym2612"
    },
    {
      "channel": 5,
      "note": 70,
      "start": 111.9278,
      "duration": 0.0961,
      "velocity": 117,
      "chip": "ym2612"
    },
    {
      "channel": 2,
      "note": 81,
      "start": 112.03,
      "duration": 0.0273,
      "velocity": 121,
      "chip": "ym2612"
    },
    {
      "channel": 1,
      "note": 56,
      "start": 112.0325,
      "duration": 0.0747,
      "velocity": 97,
      "chip": "ym2612"
    },
    {
      "channel": 0,
      "note": 58,
      "start": 112.0351,
      "duration": 0.0721,
      "velocity": 117,
      "chip": "ym2612"
    },
    {
      "channel": 3,
      "note": 65,
      "start": 112.0379,
      "duration": 0.0525,
      "velocity": 107,
      "chip": "ym2612"
    },
    {
      "channel": 4,
      "note": 70,
      "start": 112.0405,
      "duration": 0.05,
      "velocity": 107,
      "chip": "ym2612"
    },
    {
      "channel": 5,
      "note": 82,
      "start": 112.1442,
      "duration": 0.0797,
      "velocity": 117,
      "chip": "ym2612"
    },
    {
      "channel": 2,
      "note": 45,
      "start": 112.1634,
      "duration": 0.0004,
      "velocity": 122,
      "chip": "ym2612"
    },
    {
      "channel": 2,
      "note": 81,
      "start": 112.1659,
      "duration": 0.0081,
      "velocity": 121,
      "chip": "ym2612"
    },
    {
      "channel": 0,
      "note": 70,
      "start": 112.1685,
      "duration": 0.072,
      "velocity": 117,
      "chip": "ym2612"
    },
    {
      "channel": 3,
      "note": 70,
      "start": 112.1776,
      "duration": 0.0795,
      "velocity": 117,
      "chip": "ym2612"
    },
    {
      "channel": 4,
      "note": 45,
      "start": 112.2963,
      "duration": 0.0942,
      "velocity": 122,
      "chip": "ym2612"
    },
    {
      "channel": 2,
      "note": 81,
      "start": 112.2986,
      "duration": 0.013,
      "velocity": 121,
      "chip": "ym2612"
    },
    {
      "channel": 1,
      "note": 56,
      "start": 112.3013,
      "duration": 0.0559,
      "velocity": 97,
      "chip": "ym2612"
    },
    {
      "channel": 0,
      "note": 58,
      "start": 112.304,
      "duration": 0.0198,
      "velocity": 117,
      "chip": "ym2612"
    },
    {
      "channel": 5,
      "note": 70,
      "start": 112.3071,
      "duration": 0.0504,
      "velocity": 107,
      "chip": "ym2612"
    },
    {
      "channel": 3,
      "note": 65,
      "start": 112.3099,
      "duration": 0.0474,
      "velocity": 107,
      "chip": "ym2612"
    },
    {
      "channel": 2,
      "note": 81,
      "start": 112.41,
      "duration": 0.0307,
      "velocity": 121,
      "chip": "ym2612"
    },
    {
      "channel": 0,
      "note": 58,
      "start": 112.4127,
      "duration": 0.0944,
      "velocity": 117,
      "chip": "ym2612"
    },
    {
      "channel": 1,
      "note": 70,
      "start": 112.4462,
      "duration": 0.0277,
      "velocity": 117,
      "chip": "ym2612"
    },
    {
      "channel": 4,
      "note": 45,
      "start": 112.5437,
      "duration": 0.1136,
      "velocity": 122,
      "chip": "ym2612"
    },
    {
      "channel": 2,
      "note": 81,
      "start": 112.546,
      "duration": 0.0129,
      "velocity": 121,
      "chip": "ym2612"
    },
    {
      "channel": 3,
      "note": 56,
      "start": 112.5488,
      "duration": 0.0585,
      "velocity": 97,
      "chip": "ym2612"
    },
    {
      "channel": 0,
      "note": 65,
      "start": 112.5513,
      "duration": 0.0725,
      "velocity": 117,
      "chip": "ym2612"
    },
    {
      "channel": 5,
      "note": 70,
      "start": 112.5543,
      "duration": 0.0531,
      "velocity": 107,
      "chip": "ym2612"
    },
    {
      "channel": 1,
      "note": 65,
      "start": 112.5571,
      "duration": 0.0501,
      "velocity": 107,
      "chip": "ym2612"
    },
    {
      "channel": 2,
      "note": 70,
      "start": 112.5625,
      "duration": 0.095,
      "velocity": 117,
      "chip": "ym2612"
    },
    {
      "channel": 4,
      "note": 55,
      "start": 112.68,
      "duration": 0.1464,
      "velocity": 125,
      "chip": "ym2612"
    },
    {
      "channel": 2,
      "note": 81,
      "start": 112.6823,
      "duration": 0.0084,
      "velocity": 121,
      "chip": "ym2612"
    },
    {
      "channel": 0,
      "note": 58,
      "start": 112.6851,
      "duration": 0.022,
      "velocity": 117,
      "chip": "ym2612"
    },
    {
      "channel": 1,
      "note": 77,
      "start": 112.6942,
      "duration": 0.0795,
      "velocity": 117,
      "chip": "ym2612"
    },
    {
      "channel": 2,
      "note": 81,
      "start": 112.813,
      "duration": 0.1111,
      "velocity": 104,
      "chip": "ym2612"
    },
    {
      "channel": 3,
      "note": 56,
      "start": 112.8159,
      "duration": 0.0246,
      "velocity": 97,
      "chip": "ym2612"
    },
    {
      "channel": 0,
      "note": 58,
      "start": 112.8186,
      "duration": 0.0718,
      "velocity": 117,
      "chip": "ym2612"
    },
    {
      "channel": 5,
      "note": 70,
      "start": 112.822,
      "duration": 0.0354,
      "velocity": 107,
      "chip": "ym2612"
    },
    {
      "channel": 1,
      "note": 65,
      "start": 112.8247,
      "duration": 0.0324,
      "velocity": 107,
      "chip": "ym2612"
    },
    {
      "channel": 4,
      "note": 70,
      "start": 112.8303,
      "duration": 0.027,
      "velocity": 117,
      "chip": "ym2612"
    },
    {
      "channel": 4,
      "note": 82,
      "start": 112.911,
      "duration": 0.0798,
      "velocity": 117,
      "chip": "ym2612"
    },
    {
      "channel": 2,
      "note": 81,
      "start": 112.93,
      "duration": 0.0273,
      "velocity": 121,
      "chip": "ym2612"
    },
    {
      "channel": 3,
      "note": 56,
      "start": 112.9329,
      "duration": 0.141,
      "velocity": 97,
      "chip": "ym2612"
    },
    {
      "channel": 0,
      "note": 70,
      "start": 112.9354,
      "duration": 0.0716,
      "velocity": 117,
      "chip": "ym2612"
    },
    {
      "channel": 1,
      "note": 65,
      "start": 112.9383,
      "duration": 0.0522,
      "velocity": 107,
      "chip": "ym2612"
    },
    {
      "channel": 5,
      "note": 70,
      "start": 112.941,
      "duration": 0.0499,
      "velocity": 107,
      "chip": "ym2612"
    },
    {
      "channel": 2,
      "note": 70,
      "start": 112.961,
      "duration": 0.0471,
      "velocity": 117,
      "chip": "ym2612"
    },
    {
      "channel": 2,
      "note": 81,
      "start": 113.0101,
      "duration": 0.0307,
      "velocity": 121,
      "chip": "ym2612"
    },
    {
      "channel": 0,
      "note": 58,
      "start": 113.0623,
      "duration": 0.0781,
      "velocity": 117,
      "chip": "ym2612"
    },
    {
      "channel": 2,
      "note": 81,
      "start": 113.1101,
      "duration": 0.0138,
      "velocity": 121,
      "chip": "ym2612"
    },
    {
      "channel": 2,
      "note": 81,
      "start": 113.1602,
      "duration": 0.0503,
      "velocity": 121,
      "chip": "ym2612"
    },
    {
      "channel": 4,
      "note": 87,
      "start": 113.1633,
      "duration": 0.0434,
      "velocity": 117,
      "chip": "ym2612"
    },
    {
      "channel": 1,
      "note": 45,
      "start": 113.1971,
      "duration": 0.06,
      "velocity": 122,
      "chip": "ym2612"
    },
    {
      "channel": 3,
      "note": 55,
      "start": 113.2004,
      "duration": 0.0568,
      "velocity": 97,
      "chip": "ym2612"
    },
    {
      "channel": 0,
      "note": 75,
      "start": 113.2029,
      "duration": 0.0709,
      "velocity": 117,
      "chip": "ym2612"
    },
    {
      "channel": 5,
      "note": 75,
      "start": 113.2059,
      "duration": 0.0515,
      "velocity": 107,
      "chip": "ym2612"
    },
    {
      "channel": 4,
      "note": 65,
      "start": 113.2087,
      "duration": 0.0486,
      "velocity": 107,
      "chip": "ym2612"
    },
    {
      "channel": 2,
      "note": 70,
      "start": 113.2145,
      "duration": 0.0762,
      "velocity": 117,
      "chip": "ym2612"
    },
    {
      "channel": 1,
      "note": 45,
      "start": 113.3103,
      "duration": 0.0968,
      "velocity": 122,
      "chip": "ym2612"
    },
    {
      "channel": 2,
      "note": 81,
      "start": 113.313,
      "duration": 0.0277,
      "velocity": 121,
      "chip": "ym2612"
    },
    {
      "channel": 3,
      "note": 55,
      "start": 113.3159,
      "duration": 0.108,
      "velocity": 97,
      "chip": "ym2612"
    },
    {
      "channel": 0,
      "note": 58,
      "start": 113.3185,
      "duration": 0.0386,
      "velocity": 117,
      "chip": "ym2612"
    },
    {
      "channel": 4,
      "note": 65,
      "start": 113.3215,
      "duration": 0.0524,
      "velocity": 107,
      "chip": "ym2612"
    },
    {
      "channel": 5,
      "note": 75,
      "start": 113.3242,
      "duration": 0.0499,
      "velocity": 107,
      "chip": "ym2612"
    },
    {
      "channel": 2,
      "note": 81,
      "start": 113.4432,
      "duration": 0.0141,
      "velocity": 121,
      "chip": "ym2612"
    },
    {
      "channel": 0,
      "note": 58,
      "start": 113.446,
      "duration": 0.0778,
      "velocity": 117,
      "chip": "ym2612"
    },
    {
      "channel": 4,
      "note": 70,
      "start": 113.4612,
      "duration": 0.0461,
      "velocity": 117,
      "chip": "ym2612"
    },
    {
      "channel": 4,
      "note": 82,
      "start": 113.561,
      "duration": 0.0294,
      "velocity": 117,
      "chip": "ym2612"
    },
    {
      "channel": 1,
      "note": 45,
      "start": 113.5768,
      "duration": 0.0804,
      "velocity": 122,
      "chip": "ym2612"
    },
    {
      "channel": 2,
      "note": 81,
      "start": 113.5811,
      "duration": 0.0931,
      "velocity": 104,
      "chip": "ym2612"
    },
    {
      "channel": 3,
      "note": 55,
      "start": 113.5837,
      "duration": 0.0902,
      "velocity": 97,
      "chip": "ym2612"
    },
    {
      "channel": 0,
      "note": 70,
      "start": 113.5861,
      "duration": 0.0709,
      "velocity": 117,
      "chip": "ym2612"
    },
    {
      "channel": 5,
      "note": 75,
      "start": 113.5895,
      "duration": 0.0512,
      "velocity": 107,
      "chip": "ym2612"
    },
    {
      "channel": 4,
      "note": 65,
      "start": 113.5923,
      "duration": 0.0483,
      "velocity": 107,
      "chip": "ym2612"
    },
    {
      "channel": 1,
      "note": 55,
      "start": 113.7132,
      "duration": 0.1774,
      "velocity": 125,
      "chip": "ym2612"
    },
    {
      "channel": 2,
      "note": 81,
      "start": 113.717,
      "duration": 0.007,
      "velocity": 121,
      "chip": "ym2612"
    },
    {
      "channel": 0,
      "note": 58,
      "start": 113.7198,
      "duration": 0.0373,
      "velocity": 117,
      "chip": "ym2612"
    },
    {
      "channel": 2,
      "note": 81,
      "start": 113.8265,
      "duration": 0.0307,
      "velocity": 121,
      "chip": "ym2612"
    },
    {
      "channel": 3,
      "note": 55,
      "start": 113.8293,
      "duration": 0.1279,
      "velocity": 97,
      "chip": "ym2612"
    },
    {
      "channel": 0,
      "note": 58,
      "start": 113.832,
      "duration": 0.0751,
      "velocity": 117,
      "chip": "ym2612"
    },
    {
      "channel": 4,
      "note": 65,
      "start": 113.8349,
      "duration": 0.0558,
      "velocity": 107,
      "chip": "ym2612"
    },
    {
      "channel": 5,
      "note": 75,
      "start": 113.8376,
      "duration": 0.0532,
      "velocity": 107,
      "chip": "ym2612"
    },
    {
      "channel": 2,
      "note": 70,
      "start": 113.8611,
      "duration": 0.0463,
      "velocity": 117,
      "chip": "ym2612"
    },
    {
      "channel": 2,
      "note": 87,
      "start": 113.9445,
      "duration": 0.0166,
      "velocity": 117,
      "chip": "ym2612"
    },
    {
      "channel": 2,
      "note": 81,
      "start": 113.963,
      "duration": 0.0944,
      "velocity": 104,
      "chip": "ym2612"
    },
    {
      "channel": 0,
      "note": 75,
      "start": 113.9657,
      "duration": 0.0747,
      "velocity": 117,
      "chip": "ym2612"
    },
    {
      "channel": 1,
      "note": 70,
      "start": 113.9793,
      "duration": 0.0777,
      "velocity": 117,
      "chip": "ym2612"
    },
    {
      "channel": 2,
      "note": 81,
      "start": 114.0968,
      "duration": 0.0125,
      "velocity": 121,
      "chip": "ym2612"
    },
    {
      "channel": 3,
      "note": 55,
      "start": 114.0994,
      "duration": 0.1244,
      "velocity": 97,
      "chip": "ym2612"
    },
    {
      "channel": 0,
      "note": 58,
      "start": 114.1019,
      "duration": 0.0718,
      "velocity": 117,
      "chip": "ym2612"
    },
    {
      "channel": 4,
      "note": 65,
      "start": 114.1049,
      "duration": 0.0523,
      "velocity": 107,
      "chip": "ym2612"
    },
    {
      "channel": 5,
      "note": 75,
      "start": 114.1076,
      "duration": 0.0498,
      "velocity": 107,
      "chip": "ym2612"
    },
    {
      "channel": 1,
      "note": 87,
      "start": 114.1941,
      "duration": 0.1131,
      "velocity": 117,
      "chip": "ym2612"
    },
    {
      "channel": 2,
      "note": 45,
      "start": 114.2304,
      "duration": 0.0005,
      "velocity": 122,
      "chip": "ym2612"
    },
    {
      "channel": 2,
      "note": 81,
      "start": 114.2328,
      "duration": 0.0102,
      "velocity": 121,
      "chip": "ym2612"
    },
    {
      "channel": 0,
      "note": 75,
      "start": 114.2356,
      "duration": 0.0882,
      "velocity": 117,
      "chip": "ym2612"
    },
    {
      "channel": 4,
      "note": 75,
      "start": 114.2386,
      "duration": 0.0353,
      "velocity": 107,
      "chip": "ym2612"
    },
    {
      "channel": 5,
      "note": 70,
      "start": 114.2413,
      "duration": 0.0327,
      "velocity": 107,
      "chip": "ym2612"
    },
    {
      "channel": 3,
      "note": 70,
      "start": 114.2469,
      "duration": 0.0771,
      "velocity": 117,
      "chip": "ym2612"
    },
    {
      "channel": 2,
      "note": 45,
      "start": 114.3437,
      "duration": 0.002,
      "velocity": 122,
      "chip": "ym2612"
    },
    {
      "channel": 2,
      "note": 81,
      "start": 114.3476,
      "duration": 0.443,
      "velocity": 104,
      "chip": "ym2612"
    },
    {
      "channel": 4,
      "note": 54,
      "start": 114.3506,
      "duration": 0.2234,
      "velocity": 97,
      "chip": "ym2612"
    },
    {
      "channel": 0,
      "note": 58,
      "start": 114.3536,
      "duration": 0.0536,
      "velocity": 117,
      "chip": "ym2612"
    },
    {
      "channel": 5,
      "note": 70,
      "start": 114.357,
      "duration": 0.0505,
      "velocity": 107,
      "chip": "ym2612"
    },
    {
      "channel": 1,
      "note": 75,
      "start": 114.3598,
      "duration": 0.0474,
      "velocity": 107,
      "chip": "ym2612"
    },
    {
      "channel": 3,
      "note": 55,
      "start": 114.4801,
      "duration": 0.0938,
      "velocity": 125,
      "chip": "ym2612"
    },
    {
      "channel": 0,
      "note": 58,
      "start": 114.483,
      "duration": 0.0742,
      "velocity": 117,
      "chip": "ym2612"
    },
    {
      "channel": 1,
      "note": 70,
      "start": 114.4944,
      "duration": 0.0628,
      "velocity": 117,
      "chip": "ym2612"
    },
    {
      "channel": 1,
      "note": 82,
      "start": 114.5777,
      "duration": 0.0446,
      "velocity": 117,
      "chip": "ym2612"
    },
    {
      "channel": 3,
      "note": 45,
      "start": 114.6132,
      "duration": 0.0774,
      "velocity": 122,
      "chip": "ym2612"
    },
    {
      "channel": 4,
      "note": 54,
      "start": 114.6161,
      "duration": 0.0746,
      "velocity": 97,
      "chip": "ym2612"
    },
    {
      "channel": 0,
      "note": 70,
      "start": 114.6186,
      "duration": 0.0717,
      "velocity": 117,
      "chip": "ym2612"
    },
    {
      "channel": 5,
      "note": 70,
      "start": 114.6216,
      "duration": 0.0524,
      "velocity": 107,
      "chip": "ym2612"
    },
    {
      "channel": 1,
      "note": 75,
      "start": 114.6243,
      "duration": 0.0494,
      "velocity": 107,
      "chip": "ym2612"
    },
    {
      "channel": 3,
      "note": 55,
      "start": 114.7306,
      "duration": 0.1266,
      "velocity": 125,
      "chip": "ym2612"
    },
    {
      "channel": 0,
      "note": 58,
      "start": 114.7335,
      "duration": 0.0403,
      "velocity": 117,
      "chip": "ym2612"
    },
    {
      "channel": 2,
      "note": 81,
      "start": 114.8633,
      "duration": 0.0129,
      "velocity": 121,
      "chip": "ym2612"
    },
    {
      "channel": 4,
      "note": 54,
      "start": 114.8661,
      "duration": 0.1245,
      "velocity": 97,
      "chip": "ym2612"
    },
    {
      "channel": 0,
      "note": 58,
      "start": 114.8688,
      "duration": 0.0717,
      "velocity": 117,
      "chip": "ym2612"
    },
    {
      "channel": 1,
      "note": 70,
      "start": 114.8717,
      "duration": 0.0521,
      "velocity": 107,
      "chip": "ym2612"
    },
    {
      "channel": 5,
      "note": 75,
      "start": 114.8744,
      "duration": 0.0498,
      "velocity": 107,
      "chip": "ym2612"
    },
    {
      "channel": 3,
      "note": 70,
      "start": 114.8803,
      "duration": 0.0437,
      "velocity": 117,
      "chip": "ym2612"
    },
    {
      "channel": 3,
      "note": 87,
      "start": 114.9776,
      "duration": 0.0796,
      "velocity": 117,
      "chip": "ym2612"
    },
    {
      "channel": 2,
      "note": 81,
      "start": 114.9936,
      "duration": 0.0138,
      "velocity": 121,
      "chip": "ym2612"
    },
    {
      "channel": 0,
      "note": 75,
      "start": 114.9962,
      "duration": 0.0776,
      "velocity": 117,
      "chip": "ym2612"
    },
    {
      "channel": 1,
      "note": 70,
      "start": 114.999,
      "duration": 0.058,
      "velocity": 107,
      "chip": "ym2612"
    },
    {
      "channel": 5,
      "note": 75,
      "start": 115.0017,
      "duration": 0.0557,
      "velocity": 107,
      "chip": "ym2612"
    },
    {
      "channel": 4,
      "note": 70,
      "start": 115.011,
      "duration": 0.0795,
      "velocity": 117,
      "chip": "ym2612"
    },
    {
      "channel": 2,
      "note": 81,
      "start": 115.0767,
      "duration": 0.0141,
      "velocity": 121,
      "chip": "ym2612"
    },
    {
      "channel": 1,
      "note": 54,
      "start": 115.1296,
      "duration": 0.0443,
      "velocity": 97,
      "chip": "ym2612"
    },
    {
      "channel": 0,
      "note": 58,
      "start": 115.1321,
      "duration": 0.075,
      "velocity": 117,
      "chip": "ym2612"
    },
    {
      "channel": 2,
      "note": 81,
      "start": 115.1599,
      "duration": 0.0142,
      "velocity": 121,
      "chip": "ym2612"
    },
    {
      "channel": 3,
      "note": 86,
      "start": 115.2276,
      "duration": 0.0361,
      "velocity": 117,
      "chip": "ym2612"
    },
    {
      "channel": 5,
      "note": 45,
      "start": 115.2475,
      "duration": 0.0765,
      "velocity": 122,
      "chip": "ym2612"
    },
    {
      "channel": 2,
      "note": 81,
      "start": 115.2513,
      "duration": 0.0226,
      "velocity": 121,
      "chip": "ym2612"
    },
    {
      "channel": 1,
      "note": 50,
      "start": 115.254,
      "duration": 0.1033,
      "velocity": 97,
      "chip": "ym2612"
    },
    {
      "channel": 0,
      "note": 74,
      "start": 115.2567,
      "duration": 0.1005,
      "velocity": 117,
      "chip": "ym2612"
    },
    {
      "channel": 4,
      "note": 69,
      "start": 115.2627,
      "duration": 0.2612,
      "velocity": 107,
      "chip": "ym2612"
    },
    {
      "channel": 3,
      "note": 74,
      "start": 115.2656,
      "duration": 0.2749,
      "velocity": 107,
      "chip": "ym2612"
    },
    {
      "channel": 2,
      "note": 70,
      "start": 115.2778,
      "duration": 0.0798,
      "velocity": 117,
      "chip": "ym2612"
    },
    {
      "channel": 2,
      "note": 81,
      "start": 115.3614,
      "duration": 0.019,
      "velocity": 117,
      "chip": "ym2612"
    },
    {
      "channel": 5,
      "note": 45,
      "start": 115.3799,
      "duration": 0.0941,
      "velocity": 122,
      "chip": "ym2612"
    },
    {
      "channel": 2,
      "note": 81,
      "start": 115.3823,
      "duration": 0.0083,
      "velocity": 121,
      "chip": "ym2612"
    },
    {
      "channel": 1,
      "note": 50,
      "start": 115.3852,
      "duration": 0.1385,
      "velocity": 97,
      "chip": "ym2612"
    },
    {
      "channel": 0,
      "note": 69,
      "start": 115.3877,
      "duration": 0.0861,
      "velocity": 117,
      "chip": "ym2612"
    },
    {
      "channel": 2,
      "note": 81,
      "start": 115.51,
      "duration": 0.0141,
      "velocity": 121,
      "chip": "ym2612"
    },
    {
      "channel": 0,
      "note": 62,
      "start": 115.5128,
      "duration": 0.0776,
      "velocity": 117,
      "chip": "ym2612"
    },
    {
      "channel": 5,
      "note": 86,
      "start": 115.6128,
      "duration": 0.0267,
      "velocity": 117,
      "chip": "ym2612"
    },
    {
      "channel": 1,
      "note": 45,
      "start": 115.6272,
      "duration": 0.13,
      "velocity": 122,
      "chip": "ym2612"
    },
    {
      "channel": 2,
      "note": 81,
      "start": 115.6295,
      "duration": 0.0278,
      "velocity": 121,
      "chip": "ym2612"
    },
    {
      "channel": 4,
      "note": 50,
      "start": 115.6324,
      "duration": 0.1249,
      "velocity": 97,
      "chip": "ym2612"
    },
    {
      "channel": 0,
      "note": 74,
      "start": 115.6355,
      "duration": 0.1049,
      "velocity": 117,
      "chip": "ym2612"
    },
    {
      "channel": 3,
      "note": 72,
      "start": 115.6386,
      "duration": 0.2519,
      "velocity": 107,
      "chip": "ym2612"
    },
    {
      "channel": 5,
      "note": 67,
      "start": 115.6415,
      "duration": 0.2324,
      "velocity": 107,
      "chip": "ym2612"
    },
    {
      "channel": 2,
      "note": 74,
      "start": 115.6612,
      "duration": 0.0796,
      "velocity": 117,
      "chip": "ym2612"
    },
    {
      "channel": 2,
      "note": 81,
      "start": 115.7444,
      "duration": 0.02,
      "velocity": 117,
      "chip": "ym2612"
    },
    {
      "channel": 1,
      "note": 55,
      "start": 115.7639,
      "duration": 0.1599,
      "velocity": 125,
      "chip": "ym2612"
    },
    {
      "channel": 2,
      "note": 81,
      "start": 115.7663,
      "duration": 0.0077,
      "velocity": 121,
      "chip": "ym2612"
    },
    {
      "channel": 0,
      "note": 69,
      "start": 115.7691,
      "duration": 0.0713,
      "velocity": 117,
      "chip": "ym2612"
    },
    {
      "channel": 2,
      "note": 81,
      "start": 115.8933,
      "duration": 0.014,
      "velocity": 121,
      "chip": "ym2612"
    },
    {
      "channel": 4,
      "note": 50,
      "start": 115.8961,
      "duration": 0.0945,
      "velocity": 97,
      "chip": "ym2612"
    },
    {
      "channel": 0,
      "note": 62,
      "start": 115.8987,
      "duration": 0.0751,
      "velocity": 117,
      "chip": "ym2612"
    },
    {
      "channel": 5,
      "note": 86,
      "start": 115.9945,
      "duration": 0.1127,
      "velocity": 117,
      "chip": "ym2612"
    },
    {
      "channel": 2,
      "note": 81,
      "start": 116.0267,
      "duration": 0.0139,
      "velocity": 121,
      "chip": "ym2612"
    },
    {
      "channel": 0,
      "note": 74,
      "start": 116.0294,
      "duration": 0.0943,
      "velocity": 117,
      "chip": "ym2612"
    },
    {
      "channel": 3,
      "note": 74,
      "start": 116.0325,
      "duration": 0.2913,
      "velocity": 107,
      "chip": "ym2612"
    },
    {
      "channel": 1,
      "note": 69,
      "start": 116.0358,
      "duration": 0.238,
      "velocity": 107,
      "chip": "ym2612"
    },
    {
      "channel": 4,
      "note": 74,
      "start": 116.0444,
      "duration": 0.0795,
      "velocity": 117,
      "chip": "ym2612"
    },
    {
      "channel": 2,
      "note": 81,
      "start": 116.1466,
      "duration": 0.2108,
      "velocity": 104,
      "chip": "ym2612"
    },
    {
      "channel": 5,
      "note": 50,
      "start": 116.1498,
      "duration": 0.0575,
      "velocity": 97,
      "chip": "ym2612"
    },
    {
      "channel": 0,
      "note": 62,
      "start": 116.1524,
      "duration": 0.0713,
      "velocity": 117,
      "chip": "ym2612"
    },
    {
      "channel": 4,
      "note": 84,
      "start": 116.2609,
      "duration": 0.0333,
      "velocity": 117,
      "chip": "ym2612"
    },
    {
      "channel": 5,
      "note": 45,
      "start": 116.28,
      "duration": 0.0605,
      "velocity": 122,
      "chip": "ym2612"
    },
    {
      "channel": 0,
      "note": 48,
      "start": 116.2834,
      "duration": 0.0737,
      "velocity": 97,
      "chip": "ym2612"
    },
    {
      "channel": 1,
      "note": 72,
      "start": 116.2863,
      "duration": 0.0874,
      "velocity": 117,
      "chip": "ym2612"
    },
    {
      "channel": 4,
      "note": 74,
      "start": 116.2963,
      "duration": 0.0776,
      "velocity": 117,
      "chip": "ym2612"
    },
    {
      "channel": 5,
      "note": 45,
      "start": 116.4105,
      "duration": 0.0968,
      "velocity": 122,
      "chip": "ym2612"
    },
    {
      "channel": 2,
      "note": 81,
      "start": 116.4143,
      "duration": 0.0132,
      "velocity": 121,
      "chip": "ym2612"
    },
    {
      "channel": 0,
      "note": 48,
      "start": 116.4171,
      "duration": 0.0566,
      "velocity": 97,
      "chip": "ym2612"
    },
    {
      "channel": 1,
      "note": 67,
      "start": 116.4199,
      "duration": 0.0705,
      "velocity": 117,
      "chip": "ym2612"
    },
    {
      "channel": 3,
      "note": 72,
      "start": 116.4228,
      "duration": 0.2344,
      "velocity": 107,
      "chip": "ym2612"
    },
    {
      "channel": 4,
      "note": 67,
      "start": 116.4257,
      "duration": 0.2149,
      "velocity": 107,
      "chip": "ym2612"
    },
    {
      "channel": 2,
      "note": 81,
      "start": 116.5266,
      "duration": 0.0308,
      "velocity": 121,
      "chip": "ym2612"
    },
    {
      "channel": 1,
      "note": 62,
      "start": 116.5293,
      "duration": 0.0945,
      "velocity": 117,
      "chip": "ym2612"
    },
    {
      "channel": 0,
      "note": 79,
      "start": 116.561,
      "duration": 0.0794,
      "velocity": 117,
      "chip": "ym2612"
    },
    {
      "channel": 0,
      "note": 84,
      "start": 116.6443,
      "duration": 0.0962,
      "velocity": 117,
      "chip": "ym2612"
    },
    {
      "channel": 5,
      "note": 45,
      "start": 116.6625,
      "duration": 0.1116,
      "velocity": 122,
      "chip": "ym2612"
    },
    {
      "channel": 2,
      "note": 81,
      "start": 116.6649,
      "duration": 0.0091,
      "velocity": 121,
      "chip": "ym2612"
    },
    {
      "channel": 1,
      "note": 48,
      "start": 116.6678,
      "duration": 0.056,
      "velocity": 97,
      "chip": "ym2612"
    },
    {
      "channel": 4,
      "note": 72,
      "start": 116.6707,
      "duration": 0.1032,
      "velocity": 117,
      "chip": "ym2612"
    },
    {
      "channel": 3,
      "note": 74,
      "start": 116.6778,
      "duration": 0.0961,
      "velocity": 117,
      "chip": "ym2612"
    },
    {
      "channel": 5,
      "note": 55,
      "start": 116.7965,
      "duration": 0.0941,
      "velocity": 125,
      "chip": "ym2612"
    },
    {
      "channel": 2,
      "note": 81,
      "start": 116.7989,
      "duration": 0.0141,
      "velocity": 121,
      "chip": "ym2612"
    },
    {
      "channel": 1,
      "note": 48,
      "start": 116.8017,
      "duration": 0.1221,
      "velocity": 97,
      "chip": "ym2612"
    },
    {
      "channel": 4,
      "note": 67,
      "start": 116.805,
      "duration": 0.069,
      "velocity": 117,
      "chip": "ym2612"
    },
    {
      "channel": 0,
      "note": 74,
      "start": 116.8082,
      "duration": 0.3155,
      "velocity": 107,
      "chip": "ym2612"
    },
    {
      "channel": 3,
      "note": 69,
      "start": 116.8112,
      "duration": 0.2961,
      "velocity": 107,
      "chip": "ym2612"
    },
    {
      "channel": 2,
      "note": 81,
      "start": 116.9267,
      "duration": 0.014,
      "velocity": 121,
      "chip": "ym2612"
    },
    {
      "channel": 4,
      "note": 62,
      "start": 116.9297,
      "duration": 0.0942,
      "velocity": 117,
      "chip": "ym2612"
    },
    {
      "channel": 5,
      "note": 79,
      "start": 116.9444,
      "duration": 0.0796,
      "velocity": 117,
      "chip": "ym2612"
    },
    {
      "channel": 5,
      "note": 84,
      "start": 117.0278,
      "duration": 0.0629,
      "velocity": 117,
      "chip": "ym2612"
    },
    {
      "channel": 2,
      "note": 81,
      "start": 117.0435,
      "duration": 0.0305,
      "velocity": 121,
      "chip": "ym2612"
    },
    {
      "channel": 1,
      "note": 48,
      "start": 117.0461,
      "duration": 0.1777,
      "velocity": 97,
      "chip": "ym2612"
    },
    {
      "channel": 4,
      "note": 72,
      "start": 117.0489,
      "duration": 0.0585,
      "velocity": 117,
      "chip": "ym2612"
    },
    {
      "channel": 2,
      "note": 74,
      "start": 117.0797,
      "duration": 0.0452,
      "velocity": 117,
      "chip": "ym2612"
    },
    {
      "channel": 2,
      "note": 81,
      "start": 117.1268,
      "duration": 0.0305,
      "velocity": 121,
      "chip": "ym2612"
    },
    {
      "channel": 4,
      "note": 62,
      "start": 117.1774,
      "duration": 0.0798,
      "velocity": 117,
      "chip": "ym2612"
    },
    {
      "channel": 0,
      "note": 72,
      "start": 117.1804,
      "duration": 0.2934,
      "velocity": 107,
      "chip": "ym2612"
    },
    {
      "channel": 3,
      "note": 67,
      "start": 117.1833,
      "duration": 0.2906,
      "velocity": 107,
      "chip": "ym2612"
    },
    {
      "channel": 2,
      "note": 81,
      "start": 117.2267,
      "duration": 0.014,
      "velocity": 121,
      "chip": "ym2612"
    },
    {
      "channel": 5,
      "note": 81,
      "start": 117.2776,
      "duration": 0.0438,
      "velocity": 117,
      "chip": "ym2612"
    },
    {
      "channel": 1,
      "note": 45,
      "start": 117.3133,
      "duration": 0.0604,
      "velocity": 122,
      "chip": "ym2612"
    },
    {
      "channel": 2,
      "note": 81,
      "start": 117.3175,
      "duration": 0.1065,
      "velocity": 104,
      "chip": "ym2612"
    },
    {
      "channel": 4,
      "note": 57,
      "start": 117.3206,
      "duration": 0.07,
      "velocity": 97,
      "chip": "ym2612"
    },
    {
      "channel": 5,
      "note": 69,
      "start": 117.3234,
      "duration": 0.0672,
      "velocity": 117,
      "chip": "ym2612"
    },
    {
      "channel": 1,
      "note": 45,
      "start": 117.4271,
      "duration": 0.1134,
      "velocity": 122,
      "chip": "ym2612"
    },
    {
      "channel": 2,
      "note": 81,
      "start": 117.4309,
      "duration": 0.0264,
      "velocity": 121,
      "chip": "ym2612"
    },
    {
      "channel": 4,
      "note": 57,
      "start": 117.4342,
      "duration": 0.1398,
      "velocity": 97,
      "chip": "ym2612"
    },
    {
      "channel": 5,
      "note": 62,
      "start": 117.4368,
      "duration": 0.0871,
      "velocity": 117,
      "chip": "ym2612"
    },
    {
      "channel": 2,
      "note": 81,
      "start": 117.5599,
      "duration": 0.0142,
      "velocity": 121,
      "chip": "ym2612"
    },
    {
      "channel": 5,
      "note": 57,
      "start": 117.5627,
      "duration": 0.0779,
      "velocity": 117,
      "chip": "ym2612"
    },
    {
      "channel": 0,
      "note": 74,
      "start": 117.5657,
      "duration": 0.2748,
      "velocity": 107,
      "chip": "ym2612"
    },
    {
      "channel": 3,
      "note": 69,
      "start": 117.5685,
      "duration": 0.2054,
      "velocity": 107,
      "chip": "ym2612"
    },
    {
      "channel": 1,
      "note": 74,
      "start": 117.5778,
      "duration": 0.0961,
      "velocity": 117,
      "chip": "ym2612"
    },
    {
      "channel": 1,
      "note": 81,
      "start": 117.6776,
      "duration": 0.0263,
      "velocity": 117,
      "chip": "ym2612"
    },
    {
      "channel": 4,
      "note": 45,
      "start": 117.6959,
      "duration": 0.0947,
      "velocity": 122,
      "chip": "ym2612"
    },
    {
      "channel": 2,
      "note": 81,
      "start": 117.7001,
      "duration": 0.0907,
      "velocity": 104,
      "chip": "ym2612"
    },
    {
      "channel": 5,
      "note": 57,
      "start": 117.703,
      "duration": 0.121,
      "velocity": 97,
      "chip": "ym2612"
    },
    {
      "channel": 1,
      "note": 69,
      "start": 117.706,
      "duration": 0.0845,
      "velocity": 117,
      "chip": "ym2612"
    },
    {
      "channel": 4,
      "note": 55,
      "start": 117.83,
      "duration": 0.144,
      "velocity": 125,
      "chip": "ym2612"
    },
    {
      "channel": 2,
      "note": 81,
      "start": 117.8338,
      "duration": 0.007,
      "velocity": 121,
      "chip": "ym2612"
    },
    {
      "channel": 1,
      "note": 62,
      "start": 117.8366,
      "duration": 0.0704,
      "velocity": 117,
      "chip": "ym2612"
    },
    {
      "channel": 2,
      "note": 81,
      "start": 117.9463,
      "duration": 0.1112,
      "velocity": 104,
      "chip": "ym2612"
    },
    {
      "channel": 5,
      "note": 57,
      "start": 117.9492,
      "duration": 0.1082,
      "velocity": 97,
      "chip": "ym2612"
    },
    {
      "channel": 1,
      "note": 57,
      "start": 117.9517,
      "duration": 0.0721,
      "velocity": 117,
      "chip": "ym2612"
    },
    {
      "channel": 0,
      "note": 72,
      "start": 117.9547,
      "duration": 0.2524,
      "velocity": 107,
      "chip": "ym2612"
    },
    {
      "channel": 3,
      "note": 67,
      "start": 117.9575,
      "duration": 0.2165,
      "velocity": 107,
      "chip": "ym2612"
    },
    {
      "channel": 4,
      "note": 74,
      "start": 117.9795,
      "duration": 0.0778,
      "velocity": 117,
      "chip": "ym2612"
    },
    {
      "channel": 4,
      "note": 81,
      "start": 118.0612,
      "duration": 0.096,
      "velocity": 117,
      "chip": "ym2612"
    },
    {
      "channel": 2,
      "note": 81,
      "start": 118.08,
      "duration": 0.0106,
      "velocity": 121,
      "chip": "ym2612"
    },
    {
      "channel": 1,
      "note": 69,
      "start": 118.0832,
      "duration": 0.0906,
      "velocity": 117,
      "chip": "ym2612"
    },
    {
      "channel": 5,
      "note": 69,
      "start": 118.0945,
      "duration": 0.0796,
      "velocity": 117,
      "chip": "ym2612"
    },
    {
      "channel": 2,
      "note": 81,
      "start": 118.2101,
      "duration": 0.0139,
      "velocity": 121,
      "chip": "ym2612"
    },
    {
      "channel": 4,
      "note": 57,
      "start": 118.2131,
      "duration": 0.0608,
      "velocity": 97,
      "chip": "ym2612"
    },
    {
      "channel": 1,
      "note": 57,
      "start": 118.2157,
      "duration": 0.0914,
      "velocity": 117,
      "chip": "ym2612"
    },
    {
      "channel": 5,
      "note": 81,
      "start": 118.3111,
      "duration": 0.0333,
      "velocity": 117,
      "chip": "ym2612"
    },
    {
      "channel": 3,
      "note": 45,
      "start": 118.33,
      "duration": 0.0605,
      "velocity": 122,
      "chip": "ym2612"
    },
    {
      "channel": 2,
      "note": 81,
      "start": 118.3324,
      "duration": 0.0249,
      "velocity": 121,
      "chip": "ym2612"
    },
    {
      "channel": 4,
      "note": 57,
      "start": 118.3353,
      "duration": 0.1553,
      "velocity": 97,
      "chip": "ym2612"
    },
    {
      "channel": 1,
      "note": 69,
      "start": 118.3379,
      "duration": 0.1025,
      "velocity": 117,
      "chip": "ym2612"
    },
    {
      "channel": 0,
      "note": 74,
      "start": 118.3409,
      "duration": 0.9995,
      "velocity": 107,
      "chip": "ym2612"
    },
    {
      "channel": 5,
      "note": 69,
      "start": 118.3463,
      "duration": 0.9776,
      "velocity": 107,
      "chip": "ym2612"
    },
    {
      "channel": 2,
      "note": 69,
      "start": 118.361,
      "duration": 0.0964,
      "velocity": 117,
      "chip": "ym2612"
    },
    {
      "channel": 3,
      "note": 45,
      "start": 118.4605,
      "duration": 0.1134,
      "velocity": 122,
      "chip": "ym2612"
    },
    {
      "channel": 2,
      "note": 81,
      "start": 118.4628,
      "duration": 0.028,
      "velocity": 121,
      "chip": "ym2612"
    },
    {
      "channel": 1,
      "note": 62,
      "start": 118.4657,
      "duration": 0.0747,
      "velocity": 117,
      "chip": "ym2612"
    },
    {
      "channel": 2,
      "note": 81,
      "start": 118.5963,
      "duration": 0.4611,
      "velocity": 104,
      "chip": "ym2612"
    },
    {
      "channel": 4,
      "note": 57,
      "start": 118.5993,
      "duration": 0.0746,
      "velocity": 97,
      "chip": "ym2612"
    },
    {
      "channel": 1,
      "note": 57,
      "start": 118.602,
      "duration": 0.0885,
      "velocity": 117,
      "chip": "ym2612"
    },
    {
      "channel": 3,
      "note": 74,
      "start": 118.611,
      "duration": 0.0796,
      "velocity": 117,
      "chip": "ym2612"
    },
    {
      "channel": 3,
      "note": 81,
      "start": 118.6961,
      "duration": 0.0375,
      "velocity": 117,
      "chip": "ym2612"
    },
    {
      "channel": 4,
      "note": 45,
      "start": 118.7293,
      "duration": 0.0947,
      "velocity": 122,
      "chip": "ym2612"
    },
    {
      "channel": 1,
      "note": 57,
      "start": 118.7328,
      "duration": 0.141,
      "velocity": 97,
      "chip": "ym2612"
    },
    {
      "channel": 3,
      "note": 69,
      "start": 118.7356,
      "duration": 0.0883,
      "velocity": 117,
      "chip": "ym2612"
    },
    {
      "channel": 4,
      "note": 55,
      "start": 118.8466,
      "duration": 0.1772,
      "velocity": 125,
      "chip": "ym2612"
    },
    {
      "channel": 3,
      "note": 62,
      "start": 118.8496,
      "duration": 0.0908,
      "velocity": 117,
      "chip": "ym2612"
    },
    {
      "channel": 1,
      "note": 57,
      "start": 118.9772,
      "duration": 0.0632,
      "velocity": 97,
      "chip": "ym2612"
    },
    {
      "channel": 3,
      "note": 57,
      "start": 118.98,
      "duration": 0.1106,
      "velocity": 117,
      "chip": "ym2612"
    },
    {
      "channel": 4,
      "note": 81,
      "start": 119.0945,
      "duration": 0.096,
      "velocity": 117,
      "chip": "ym2612"
    },
    {
      "channel": 2,
      "note": 81,
      "start": 119.1133,
      "duration": 0.0107,
      "velocity": 121,
      "chip": "ym2612"
    },
    {
      "channel": 1,
      "note": 57,
      "start": 119.1163,
      "duration": 0.1576,
      "velocity": 97,
      "chip": "ym2612"
    },
    {
      "channel": 3,
      "note": 69,
      "start": 119.1189,
      "duration": 0.0883,
      "velocity": 117,
      "chip": "ym2612"
    },
    {
      "channel": 2,
      "note": 69,
      "start": 119.1276,
      "duration": 0.0639,
      "velocity": 117,
      "chip": "ym2612"
    },
    {
      "channel": 2,
      "note": 81,
      "start": 119.1935,
      "duration": 0.0139,
      "velocity": 121,
      "chip": "ym2612"
    },
    {
      "channel": 3,
      "note": 57,
      "start": 119.2441,
      "duration": 0.0965,
      "velocity": 117,
      "chip": "ym2612"
    },
    {
      "channel": 2,
      "note": 81,
      "start": 119.2768,
      "duration": 0.0139,
      "velocity": 121,
      "chip": "ym2612"
    },
    {
      "channel": 4,
      "note": 45,
      "start": 119.3634,
      "duration": 0.0605,
      "velocity": 122,
      "chip": "ym2612"
    },
    {
      "channel": 2,
      "note": 81,
      "start": 119.3672,
      "duration": 0.0734,
      "velocity": 104,
      "chip": "ym2612"
    },
    {
      "channel": 1,
      "note": 69,
      "start": 119.3944,
      "duration": 0.0961,
      "velocity": 117,
      "chip": "ym2612"
    },
    {
      "channel": 4,
      "note": 45,
      "start": 119.4958,
      "duration": 0.078,
      "velocity": 122,
      "chip": "ym2612"
    },
    {
      "channel": 2,
      "note": 81,
      "start": 119.5,
      "duration": 0.0073,
      "velocity": 121,
      "chip": "ym2612"
    },
    {
      "channel": 2,
      "note": 81,
      "start": 119.6265,
      "duration": 0.0141,
      "velocity": 121,
      "chip": "ym2612"
    },
    {
      "channel": 4,
      "note": 45,
      "start": 119.7437,
      "duration": 0.1135,
      "velocity": 122,
      "chip": "ym2612"
    },
    {
      "channel": 2,
      "note": 81,
      "start": 119.7461,
      "duration": 0.0278,
      "velocity": 121,
      "chip": "ym2612"
    },
    {
      "channel": 4,
      "note": 55,
      "start": 119.88,
      "duration": 0.1607,
      "velocity": 125,
      "chip": "ym2612"
    },
    {
      "channel": 2,
      "note": 81,
      "start": 119.8823,
      "duration": 0.0085,
      "velocity": 121,
      "chip": "ym2612"
    },
    {
      "channel": 2,
      "note": 81,
      "start": 120.0101,
      "duration": 0.014,
      "velocity": 121,
      "chip": "ym2612"
    },
    {
      "channel": 2,
      "note": 81,
      "start": 120.1463,
      "duration": 0.0945,
      "velocity": 104,
      "chip": "ym2612"
    },
    {
      "channel": 2,
      "note": 81,
      "start": 120.2633,
      "duration": 0.0275,
      "velocity": 121,
      "chip": "ym2612"
    },
    {
      "channel": 4,
      "note": 45,
      "start": 120.3966,
      "duration": 0.0607,
      "velocity": 122,
      "chip": "ym2612"
    },
    {
      "channel": 2,
      "note": 81,
      "start": 120.3989,
      "duration": 0.0085,
      "velocity": 121,
      "chip": "ym2612"
    },
    {
      "channel": 4,
      "note": 45,
      "start": 120.5294,
      "duration": 0.0946,
      "velocity": 122,
      "chip": "ym2612"
    },
    {
      "channel": 2,
      "note": 81,
      "start": 120.5317,
      "duration": 0.009,
      "velocity": 121,
      "chip": "ym2612"
    },
    {
      "channel": 2,
      "note": 81,
      "start": 120.6433,
      "duration": 0.0307,
      "velocity": 121,
      "chip": "ym2612"
    },
    {
      "channel": 4,
      "note": 45,
      "start": 120.777,
      "duration": 0.1136,
      "velocity": 122,
      "chip": "ym2612"
    },
    {
      "channel": 2,
      "note": 81,
      "start": 120.7793,
      "duration": 0.0113,
      "velocity": 121,
      "chip": "ym2612"
    },
    {
      "channel": 4,
      "note": 55,
      "start": 120.9133,
      "duration": 0.1441,
      "velocity": 125,
      "chip": "ym2612"
    },
    {
      "channel": 2,
      "note": 81,
      "start": 120.9157,
      "duration": 0.0084,
      "velocity": 121,
      "chip": "ym2612"
    },
    {
      "channel": 2,
      "note": 81,
      "start": 121.0463,
      "duration": 0.1111,
      "velocity": 104,
      "chip": "ym2612"
    },
    {
      "channel": 2,
      "note": 81,
      "start": 121.1633,
      "duration": 0.0275,
      "velocity": 121,
      "chip": "ym2612"
    },
    {
      "channel": 2,
      "note": 81,
      "start": 121.2434,
      "duration": 0.0307,
      "velocity": 121,
      "chip": "ym2612"
    },
    {
      "channel": 2,
      "note": 81,
      "start": 121.3435,
      "duration": 0.0139,
      "velocity": 121,
      "chip": "ym2612"
    },
    {
      "channel": 2,
      "note": 81,
      "start": 121.3937,
      "duration": 0.047,
      "velocity": 121,
      "chip": "ym2612"
    },
    {
      "channel": 4,
      "note": 45,
      "start": 121.4303,
      "duration": 0.0603,
      "velocity": 122,
      "chip": "ym2612"
    },
    {
      "channel": 4,
      "note": 45,
      "start": 121.5438,
      "duration": 0.0969,
      "velocity": 122,
      "chip": "ym2612"
    },
    {
      "channel": 2,
      "note": 81,
      "start": 121.5465,
      "duration": 0.0276,
      "velocity": 121,
      "chip": "ym2612"
    },
    {
      "channel": 2,
      "note": 81,
      "start": 121.6767,
      "duration": 0.014,
      "velocity": 121,
      "chip": "ym2612"
    },
    {
      "channel": 5,
      "note": 67,
      "start": 121.6807,
      "duration": 0.0768,
      "velocity": 116,
      "chip": "ym2612"
    },
    {
      "channel": 0,
      "note": 65,
      "start": 121.6834,
      "duration": 0.0738,
      "velocity": 116,
      "chip": "ym2612"
    },
    {
      "channel": 4,
      "note": 45,
      "start": 121.8102,
      "duration": 0.0803,
      "velocity": 122,
      "chip": "ym2612"
    },
    {
      "channel": 2,
      "note": 81,
      "start": 121.8144,
      "duration": 0.0929,
      "velocity": 104,
      "chip": "ym2612"
    },
    {
      "channel": 0,
      "note": 65,
      "start": 121.8944,
      "duration": 0.0628,
      "velocity": 116,
      "chip": "ym2612"
    },
    {
      "channel": 5,
      "note": 67,
      "start": 121.9113,
      "duration": 0.0462,
      "velocity": 116,
      "chip": "ym2612"
    },
    {
      "channel": 4,
      "note": 55,
      "start": 121.9466,
      "duration": 0.1774,
      "velocity": 125,
      "chip": "ym2612"
    },
    {
      "channel": 2,
      "note": 81,
      "start": 121.9505,
      "duration": 0.0072,
      "velocity": 121,
      "chip": "ym2612"
    },
    {
      "channel": 2,
      "note": 81,
      "start": 122.0601,
      "duration": 0.0307,
      "velocity": 121,
      "chip": "ym2612"
    },
    {
      "channel": 0,
      "note": 67,
      "start": 122.0634,
      "duration": 0.1105,
      "velocity": 116,
      "chip": "ym2612"
    },
    {
      "channel": 5,
      "note": 65,
      "start": 122.0661,
      "duration": 0.1081,
      "velocity": 116,
      "chip": "ym2612"
    },
    {
      "channel": 2,
      "note": 81,
      "start": 122.1963,
      "duration": 0.0943,
      "velocity": 104,
      "chip": "ym2612"
    },
    {
      "channel": 2,
      "note": 81,
      "start": 122.3302,
      "duration": 0.0106,
      "velocity": 121,
      "chip": "ym2612"
    },
    {
      "channel": 0,
      "note": 60,
      "start": 122.3339,
      "duration": 0.0733,
      "velocity": 116,
      "chip": "ym2612"
    },
    {
      "channel": 5,
      "note": 58,
      "start": 122.3365,
      "duration": 0.071,
      "velocity": 116,
      "chip": "ym2612"
    },
    {
      "channel": 4,
      "note": 45,
      "start": 122.447,
      "duration": 0.0603,
      "velocity": 122,
      "chip": "ym2612"
    },
    {
      "channel": 2,
      "note": 81,
      "start": 122.4493,
      "duration": 0.0248,
      "velocity": 121,
      "chip": "ym2612"
    },
    {
      "channel": 4,
      "note": 45,
      "start": 122.5771,
      "duration": 0.0802,
      "velocity": 122,
      "chip": "ym2612"
    },
    {
      "channel": 2,
      "note": 81,
      "start": 122.5809,
      "duration": 0.4433,
      "velocity": 104,
      "chip": "ym2612"
    },
    {
      "channel": 0,
      "note": 60,
      "start": 122.5943,
      "duration": 0.0961,
      "velocity": 116,
      "chip": "ym2612"
    },
    {
      "channel": 5,
      "note": 58,
      "start": 122.5971,
      "duration": 0.0604,
      "velocity": 116,
      "chip": "ym2612"
    },
    {
      "channel": 4,
      "note": 55,
      "start": 122.7133,
      "duration": 0.094,
      "velocity": 125,
      "chip": "ym2612"
    },
    {
      "channel": 4,
      "note": 45,
      "start": 122.8466,
      "duration": 0.0773,
      "velocity": 122,
      "chip": "ym2612"
    },
    {
      "channel": 0,
      "note": 51,
      "start": 122.861,
      "duration": 0.0795,
      "velocity": 116,
      "chip": "ym2612"
    },
    {
      "channel": 5,
      "note": 53,
      "start": 122.8638,
      "duration": 0.0935,
      "velocity": 116,
      "chip": "ym2612"
    },
    {
      "channel": 4,
      "note": 55,
      "start": 122.964,
      "duration": 0.1266,
      "velocity": 125,
      "chip": "ym2612"
    },
    {
      "channel": 2,
      "note": 81,
      "start": 123.0966,
      "duration": 0.0107,
      "velocity": 121,
      "chip": "ym2612"
    },
    {
      "channel": 0,
      "note": 53,
      "start": 123.1122,
      "duration": 0.0617,
      "velocity": 116,
      "chip": "ym2612"
    },
    {
      "channel": 5,
      "note": 51,
      "start": 123.1446,
      "duration": 0.0295,
      "velocity": 116,
      "chip": "ym2612"
    },
    {
      "channel": 2,
      "note": 81,
      "start": 123.2268,
      "duration": 0.0139,
      "velocity": 121,
      "chip": "ym2612"
    },
    {
      "channel": 0,
      "note": 53,
      "start": 123.2445,
      "duration": 0.1294,
      "velocity": 116,
      "chip": "ym2612"
    },
    {
      "channel": 5,
      "note": 51,
      "start": 123.2473,
      "duration": 0.11,
      "velocity": 116,
      "chip": "ym2612"
    },
    {
      "channel": 2,
      "note": 81,
      "start": 123.3101,
      "duration": 0.014,
      "velocity": 121,
      "chip": "ym2612"
    },
    {
      "channel": 2,
      "note": 81,
      "start": 123.3933,
      "duration": 0.014,
      "velocity": 121,
      "chip": "ym2612"
    },
    {
      "channel": 4,
      "note": 45,
      "start": 123.4807,
      "duration": 0.0,
      "velocity": 122,
      "chip": "ym2612"
    }
  ]
}