{
  "track_name": "04 - Kaiju Battle",
  "duration_sec": 46.115,
  "sample_rate": 44100,
  "note_count": 674,
  "unique_pitches": 34,
  "pitch_range": 45,
  "avg_note_duration": 0.2753,
  "reconstruction_stats": {
    "notes_reconstructed": 674,
    "keyon_events": 674,
    "keyoff_events": 670,
    "orphan_keyons": 4,
    "unique_pitches": 34,
    "pitch_range": 45,
    "avg_duration_sec": 0.2753
  },
  "metadata": {
    "source": "M\\Mazin Saga\\04 - Kaiju Battle.vgz"
  },
  "notes": [
    {
      "channel": 1,
      "note": 50,
      "start": 0.0,
      "duration": 0.0527,
      "velocity": 91,
      "chip": "ym2612"
    },
    {
      "channel": 2,
      "note": 50,
      "start": 0.0033,
      "duration": 0.0937,
      "velocity": 101,
      "chip": "ym2612"
    },
    {
      "channel": 3,
      "note": 62,
      "start": 0.0079,
      "duration": 0.4869,
      "velocity": 105,
      "chip": "ym2612"
    },
    {
      "channel": 4,
      "note": 57,
      "start": 0.0117,
      "duration": 0.4838,
      "velocity": 105,
      "chip": "ym2612"
    },
    {
      "channel": 1,
      "note": 62,
      "start": 0.0532,
      "duration": 0.0431,
      "velocity": 91,
      "chip": "ym2612"
    },
    {
      "channel": 1,
      "note": 53,
      "start": 0.0969,
      "duration": 0.1024,
      "velocity": 91,
      "chip": "ym2612"
    },
    {
      "channel": 2,
      "note": 53,
      "start": 0.0976,
      "duration": 0.1448,
      "velocity": 101,
      "chip": "ym2612"
    },
    {
      "channel": 1,
      "note": 65,
      "start": 0.1999,
      "duration": 0.0417,
      "velocity": 91,
      "chip": "ym2612"
    },
    {
      "channel": 1,
      "note": 64,
      "start": 0.2422,
      "duration": 0.0808,
      "velocity": 91,
      "chip": "ym2612"
    },
    {
      "channel": 2,
      "note": 52,
      "start": 0.2437,
      "duration": 0.0801,
      "velocity": 101,
      "chip": "ym2612"
    },
    {
      "channel": 1,
      "note": 62,
      "start": 0.3236,
      "duration": 0.1268,
      "velocity": 91,
      "chip": "ym2612"
    },
    {
      "channel": 2,
      "note": 50,
      "start": 0.3244,
      "duration": 0.1269,
      "velocity": 101,
      "chip": "ym2612"
    },
    {
      "channel": 1,
      "note": 60,
      "start": 0.4511,
      "duration": 0.0421,
      "velocity": 91,
      "chip": "ym2612"
    },
    {
      "channel": 2,
      "note": 48,
      "start": 0.4518,
      "duration": 0.0421,
      "velocity": 101,
      "chip": "ym2612"
    },
    {
      "channel": 1,
      "note": 50,
      "start": 0.4938,
      "duration": 0.0452,
      "velocity": 91,
      "chip": "ym2612"
    },
    {
      "channel": 2,
      "note": 56,
      "start": 0.4945,
      "duration": 0.0874,
      "velocity": 101,
      "chip": "ym2612"
    },
    {
      "channel": 3,
      "note": 62,
      "start": 0.4953,
      "duration": 0.4795,
      "velocity": 105,
      "chip": "ym2612"
    },
    {
      "channel": 4,
      "note": 57,
      "start": 0.4961,
      "duration": 0.4795,
      "velocity": 105,
      "chip": "ym2612"
    },
    {
      "channel": 1,
      "note": 62,
      "start": 0.5396,
      "duration": 0.0417,
      "velocity": 91,
      "chip": "ym2612"
    },
    {
      "channel": 1,
      "note": 52,
      "start": 0.5818,
      "duration": 0.1001,
      "velocity": 91,
      "chip": "ym2612"
    },
    {
      "channel": 2,
      "note": 55,
      "start": 0.5825,
      "duration": 0.1432,
      "velocity": 101,
      "chip": "ym2612"
    },
    {
      "channel": 1,
      "note": 64,
      "start": 0.6832,
      "duration": 0.0418,
      "velocity": 91,
      "chip": "ym2612"
    },
    {
      "channel": 1,
      "note": 53,
      "start": 0.7256,
      "duration": 0.0572,
      "velocity": 91,
      "chip": "ym2612"
    },
    {
      "channel": 2,
      "note": 53,
      "start": 0.7263,
      "duration": 0.1002,
      "velocity": 101,
      "chip": "ym2612"
    },
    {
      "channel": 1,
      "note": 65,
      "start": 0.7834,
      "duration": 0.0422,
      "velocity": 91,
      "chip": "ym2612"
    },
    {
      "channel": 1,
      "note": 48,
      "start": 0.8263,
      "duration": 0.1021,
      "velocity": 91,
      "chip": "ym2612"
    },
    {
      "channel": 2,
      "note": 52,
      "start": 0.8271,
      "duration": 0.1021,
      "velocity": 101,
      "chip": "ym2612"
    },
    {
      "channel": 1,
      "note": 60,
      "start": 0.929,
      "duration": 0.0441,
      "velocity": 91,
      "chip": "ym2612"
    },
    {
      "channel": 2,
      "note": 48,
      "start": 0.9297,
      "duration": 0.0443,
      "velocity": 101,
      "chip": "ym2612"
    },
    {
      "channel": 1,
      "note": 50,
      "start": 0.9738,
      "duration": 0.0431,
      "velocity": 91,
      "chip": "ym2612"
    },
    {
      "channel": 2,
      "note": 50,
      "start": 0.9746,
      "duration": 0.0856,
      "velocity": 101,
      "chip": "ym2612"
    },
    {
      "channel": 3,
      "note": 62,
      "start": 0.9755,
      "duration": 0.4785,
      "velocity": 105,
      "chip": "ym2612"
    },
    {
      "channel": 4,
      "note": 57,
      "start": 0.9763,
      "duration": 0.4785,
      "velocity": 105,
      "chip": "ym2612"
    },
    {
      "channel": 1,
      "note": 62,
      "start": 1.0174,
      "duration": 0.0421,
      "velocity": 91,
      "chip": "ym2612"
    },
    {
      "channel": 1,
      "note": 53,
      "start": 1.0601,
      "duration": 0.1058,
      "velocity": 91,
      "chip": "ym2612"
    },
    {
      "channel": 2,
      "note": 53,
      "start": 1.0615,
      "duration": 0.1473,
      "velocity": 101,
      "chip": "ym2612"
    },
    {
      "channel": 1,
      "note": 65,
      "start": 1.1665,
      "duration": 0.0416,
      "velocity": 91,
      "chip": "ym2612"
    },
    {
      "channel": 1,
      "note": 64,
      "start": 1.2087,
      "duration": 0.0787,
      "velocity": 91,
      "chip": "ym2612"
    },
    {
      "channel": 2,
      "note": 52,
      "start": 1.2094,
      "duration": 0.0794,
      "velocity": 101,
      "chip": "ym2612"
    },
    {
      "channel": 1,
      "note": 62,
      "start": 1.288,
      "duration": 0.1208,
      "velocity": 91,
      "chip": "ym2612"
    },
    {
      "channel": 2,
      "note": 50,
      "start": 1.2894,
      "duration": 0.1201,
      "velocity": 101,
      "chip": "ym2612"
    },
    {
      "channel": 1,
      "note": 60,
      "start": 1.4093,
      "duration": 0.0431,
      "velocity": 91,
      "chip": "ym2612"
    },
    {
      "channel": 2,
      "note": 48,
      "start": 1.4101,
      "duration": 0.0431,
      "velocity": 101,
      "chip": "ym2612"
    },
    {
      "channel": 1,
      "note": 50,
      "start": 1.453,
      "duration": 0.0694,
      "velocity": 91,
      "chip": "ym2612"
    },
    {
      "channel": 2,
      "note": 56,
      "start": 1.4537,
      "duration": 0.1794,
      "velocity": 101,
      "chip": "ym2612"
    },
    {
      "channel": 3,
      "note": 62,
      "start": 1.4545,
      "duration": 0.6069,
      "velocity": 105,
      "chip": "ym2612"
    },
    {
      "channel": 4,
      "note": 57,
      "start": 1.4554,
      "duration": 0.6069,
      "velocity": 105,
      "chip": "ym2612"
    },
    {
      "channel": 1,
      "note": 62,
      "start": 1.5237,
      "duration": 0.1088,
      "velocity": 91,
      "chip": "ym2612"
    },
    {
      "channel": 1,
      "note": 52,
      "start": 1.633,
      "duration": 0.0428,
      "velocity": 91,
      "chip": "ym2612"
    },
    {
      "channel": 2,
      "note": 55,
      "start": 1.6337,
      "duration": 0.1716,
      "velocity": 101,
      "chip": "ym2612"
    },
    {
      "channel": 1,
      "note": 64,
      "start": 1.6764,
      "duration": 0.1282,
      "velocity": 91,
      "chip": "ym2612"
    },
    {
      "channel": 1,
      "note": 53,
      "start": 1.8051,
      "duration": 0.0745,
      "velocity": 91,
      "chip": "ym2612"
    },
    {
      "channel": 2,
      "note": 53,
      "start": 1.8059,
      "duration": 0.148,
      "velocity": 101,
      "chip": "ym2612"
    },
    {
      "channel": 1,
      "note": 65,
      "start": 1.8802,
      "duration": 0.0729,
      "velocity": 91,
      "chip": "ym2612"
    },
    {
      "channel": 1,
      "note": 48,
      "start": 1.9537,
      "duration": 0.042,
      "velocity": 91,
      "chip": "ym2612"
    },
    {
      "channel": 2,
      "note": 52,
      "start": 1.9545,
      "duration": 0.042,
      "velocity": 101,
      "chip": "ym2612"
    },
    {
      "channel": 1,
      "note": 60,
      "start": 1.9962,
      "duration": 0.0635,
      "velocity": 91,
      "chip": "ym2612"
    },
    {
      "channel": 2,
      "note": 48,
      "start": 1.997,
      "duration": 0.0636,
      "velocity": 101,
      "chip": "ym2612"
    },
    {
      "channel": 1,
      "note": 50,
      "start": 2.0603,
      "duration": 0.0441,
      "velocity": 91,
      "chip": "ym2612"
    },
    {
      "channel": 2,
      "note": 50,
      "start": 2.0612,
      "duration": 0.0865,
      "velocity": 101,
      "chip": "ym2612"
    },
    {
      "channel": 3,
      "note": 62,
      "start": 2.062,
      "duration": 0.4822,
      "velocity": 105,
      "chip": "ym2612"
    },
    {
      "channel": 4,
      "note": 57,
      "start": 2.0628,
      "duration": 0.4822,
      "velocity": 105,
      "chip": "ym2612"
    },
    {
      "channel": 1,
      "note": 62,
      "start": 2.1051,
      "duration": 0.0419,
      "velocity": 91,
      "chip": "ym2612"
    },
    {
      "channel": 1,
      "note": 53,
      "start": 2.1476,
      "duration": 0.1054,
      "velocity": 91,
      "chip": "ym2612"
    },
    {
      "channel": 2,
      "note": 53,
      "start": 2.1483,
      "duration": 0.1472,
      "velocity": 101,
      "chip": "ym2612"
    },
    {
      "channel": 1,
      "note": 65,
      "start": 2.2535,
      "duration": 0.0412,
      "velocity": 91,
      "chip": "ym2612"
    },
    {
      "channel": 1,
      "note": 64,
      "start": 2.2953,
      "duration": 0.0784,
      "velocity": 91,
      "chip": "ym2612"
    },
    {
      "channel": 2,
      "note": 52,
      "start": 2.2961,
      "duration": 0.0784,
      "velocity": 101,
      "chip": "ym2612"
    },
    {
      "channel": 1,
      "note": 62,
      "start": 2.3743,
      "duration": 0.125,
      "velocity": 91,
      "chip": "ym2612"
    },
    {
      "channel": 2,
      "note": 50,
      "start": 2.375,
      "duration": 0.1251,
      "velocity": 101,
      "chip": "ym2612"
    },
    {
      "channel": 1,
      "note": 60,
      "start": 2.4999,
      "duration": 0.0426,
      "velocity": 91,
      "chip": "ym2612"
    },
    {
      "channel": 2,
      "note": 48,
      "start": 2.5006,
      "duration": 0.0427,
      "velocity": 101,
      "chip": "ym2612"
    },
    {
      "channel": 1,
      "note": 50,
      "start": 2.5432,
      "duration": 0.0424,
      "velocity": 91,
      "chip": "ym2612"
    },
    {
      "channel": 2,
      "note": 56,
      "start": 2.5439,
      "duration": 0.0863,
      "velocity": 101,
      "chip": "ym2612"
    },
    {
      "channel": 3,
      "note": 62,
      "start": 2.5447,
      "duration": 0.4805,
      "velocity": 105,
      "chip": "ym2612"
    },
    {
      "channel": 4,
      "note": 57,
      "start": 2.5456,
      "duration": 0.4812,
      "velocity": 105,
      "chip": "ym2612"
    },
    {
      "channel": 1,
      "note": 62,
      "start": 2.5861,
      "duration": 0.0434,
      "velocity": 91,
      "chip": "ym2612"
    },
    {
      "channel": 1,
      "note": 52,
      "start": 2.6301,
      "duration": 0.0993,
      "velocity": 91,
      "chip": "ym2612"
    },
    {
      "channel": 2,
      "note": 55,
      "start": 2.6308,
      "duration": 0.1431,
      "velocity": 101,
      "chip": "ym2612"
    },
    {
      "channel": 1,
      "note": 64,
      "start": 2.7299,
      "duration": 0.0433,
      "velocity": 91,
      "chip": "ym2612"
    },
    {
      "channel": 1,
      "note": 53,
      "start": 2.7738,
      "duration": 0.0571,
      "velocity": 91,
      "chip": "ym2612"
    },
    {
      "channel": 2,
      "note": 53,
      "start": 2.7745,
      "duration": 0.1006,
      "velocity": 101,
      "chip": "ym2612"
    },
    {
      "channel": 1,
      "note": 65,
      "start": 2.8315,
      "duration": 0.0429,
      "velocity": 91,
      "chip": "ym2612"
    },
    {
      "channel": 1,
      "note": 48,
      "start": 2.875,
      "duration": 0.1049,
      "velocity": 91,
      "chip": "ym2612"
    },
    {
      "channel": 2,
      "note": 52,
      "start": 2.8757,
      "duration": 0.105,
      "velocity": 101,
      "chip": "ym2612"
    },
    {
      "channel": 1,
      "note": 60,
      "start": 2.9805,
      "duration": 0.0431,
      "velocity": 91,
      "chip": "ym2612"
    },
    {
      "channel": 2,
      "note": 48,
      "start": 2.9813,
      "duration": 0.0432,
      "velocity": 101,
      "chip": "ym2612"
    },
    {
      "channel": 1,
      "note": 50,
      "start": 3.0242,
      "duration": 0.0444,
      "velocity": 91,
      "chip": "ym2612"
    },
    {
      "channel": 2,
      "note": 50,
      "start": 3.025,
      "duration": 0.0859,
      "velocity": 101,
      "chip": "ym2612"
    },
    {
      "channel": 3,
      "note": 62,
      "start": 3.0266,
      "duration": 0.4765,
      "velocity": 105,
      "chip": "ym2612"
    },
    {
      "channel": 4,
      "note": 57,
      "start": 3.0274,
      "duration": 0.4765,
      "velocity": 105,
      "chip": "ym2612"
    },
    {
      "channel": 1,
      "note": 62,
      "start": 3.0693,
      "duration": 0.0409,
      "velocity": 91,
      "chip": "ym2612"
    },
    {
      "channel": 1,
      "note": 53,
      "start": 3.1107,
      "duration": 0.1005,
      "velocity": 91,
      "chip": "ym2612"
    },
    {
      "channel": 2,
      "note": 53,
      "start": 3.1114,
      "duration": 0.142,
      "velocity": 101,
      "chip": "ym2612"
    },
    {
      "channel": 1,
      "note": 65,
      "start": 3.2117,
      "duration": 0.041,
      "velocity": 91,
      "chip": "ym2612"
    },
    {
      "channel": 1,
      "note": 64,
      "start": 3.2533,
      "duration": 0.0794,
      "velocity": 91,
      "chip": "ym2612"
    },
    {
      "channel": 2,
      "note": 52,
      "start": 3.254,
      "duration": 0.0794,
      "velocity": 101,
      "chip": "ym2612"
    },
    {
      "channel": 1,
      "note": 62,
      "start": 3.3333,
      "duration": 0.123,
      "velocity": 91,
      "chip": "ym2612"
    },
    {
      "channel": 2,
      "note": 50,
      "start": 3.334,
      "duration": 0.1231,
      "velocity": 101,
      "chip": "ym2612"
    },
    {
      "channel": 1,
      "note": 60,
      "start": 3.4569,
      "duration": 0.0446,
      "velocity": 91,
      "chip": "ym2612"
    },
    {
      "channel": 2,
      "note": 48,
      "start": 3.4577,
      "duration": 0.0445,
      "velocity": 101,
      "chip": "ym2612"
    },
    {
      "channel": 1,
      "note": 50,
      "start": 3.5021,
      "duration": 0.0742,
      "velocity": 91,
      "chip": "ym2612"
    },
    {
      "channel": 2,
      "note": 56,
      "start": 3.5028,
      "duration": 0.1768,
      "velocity": 101,
      "chip": "ym2612"
    },
    {
      "channel": 3,
      "note": 62,
      "start": 3.5036,
      "duration": 0.6013,
      "velocity": 105,
      "chip": "ym2612"
    },
    {
      "channel": 4,
      "note": 57,
      "start": 3.5045,
      "duration": 0.6024,
      "velocity": 105,
      "chip": "ym2612"
    },
    {
      "channel": 1,
      "note": 62,
      "start": 3.5769,
      "duration": 0.1021,
      "velocity": 91,
      "chip": "ym2612"
    },
    {
      "channel": 1,
      "note": 52,
      "start": 3.6795,
      "duration": 0.0417,
      "velocity": 91,
      "chip": "ym2612"
    },
    {
      "channel": 2,
      "note": 55,
      "start": 3.6803,
      "duration": 0.1712,
      "velocity": 101,
      "chip": "ym2612"
    },
    {
      "channel": 1,
      "note": 64,
      "start": 3.7218,
      "duration": 0.129,
      "velocity": 91,
      "chip": "ym2612"
    },
    {
      "channel": 1,
      "note": 53,
      "start": 3.8514,
      "duration": 0.0754,
      "velocity": 91,
      "chip": "ym2612"
    },
    {
      "channel": 2,
      "note": 53,
      "start": 3.8521,
      "duration": 0.1481,
      "velocity": 101,
      "chip": "ym2612"
    },
    {
      "channel": 1,
      "note": 65,
      "start": 3.9273,
      "duration": 0.0722,
      "velocity": 91,
      "chip": "ym2612"
    },
    {
      "channel": 1,
      "note": 48,
      "start": 4.0001,
      "duration": 0.0432,
      "velocity": 91,
      "chip": "ym2612"
    },
    {
      "channel": 2,
      "note": 52,
      "start": 4.0008,
      "duration": 0.0432,
      "velocity": 101,
      "chip": "ym2612"
    },
    {
      "channel": 1,
      "note": 60,
      "start": 4.0439,
      "duration": 0.059,
      "velocity": 91,
      "chip": "ym2612"
    },
    {
      "channel": 2,
      "note": 48,
      "start": 4.0446,
      "duration": 0.059,
      "velocity": 101,
      "chip": "ym2612"
    },
    {
      "channel": 1,
      "note": 50,
      "start": 4.1034,
      "duration": 0.0447,
      "velocity": 91,
      "chip": "ym2612"
    },
    {
      "channel": 2,
      "note": 50,
      "start": 4.1043,
      "duration": 0.0234,
      "velocity": 101,
      "chip": "ym2612"
    },
    {
      "channel": 3,
      "note": 72,
      "start": 4.1055,
      "duration": 0.0224,
      "velocity": 105,
      "chip": "ym2612"
    },
    {
      "channel": 4,
      "note": 67,
      "start": 4.1075,
      "duration": 0.0212,
      "velocity": 105,
      "chip": "ym2612"
    },
    {
      "channel": 3,
      "note": 72,
      "start": 4.1285,
      "duration": 0.0211,
      "velocity": 105,
      "chip": "ym2612"
    },
    {
      "channel": 4,
      "note": 67,
      "start": 4.1293,
      "duration": 0.0211,
      "velocity": 105,
      "chip": "ym2612"
    },
    {
      "channel": 1,
      "note": 62,
      "start": 4.1487,
      "duration": 0.0437,
      "velocity": 91,
      "chip": "ym2612"
    },
    {
      "channel": 2,
      "note": 50,
      "start": 4.1495,
      "duration": 0.0207,
      "velocity": 101,
      "chip": "ym2612"
    },
    {
      "channel": 3,
      "note": 72,
      "start": 4.1502,
      "duration": 0.0207,
      "velocity": 105,
      "chip": "ym2612"
    },
    {
      "channel": 4,
      "note": 67,
      "start": 4.151,
      "duration": 0.0215,
      "velocity": 105,
      "chip": "ym2612"
    },
    {
      "channel": 2,
      "note": 50,
      "start": 4.1707,
      "duration": 0.0225,
      "velocity": 101,
      "chip": "ym2612"
    },
    {
      "channel": 3,
      "note": 72,
      "start": 4.1722,
      "duration": 0.0218,
      "velocity": 105,
      "chip": "ym2612"
    },
    {
      "channel": 4,
      "note": 67,
      "start": 4.173,
      "duration": 0.0218,
      "velocity": 105,
      "chip": "ym2612"
    },
    {
      "channel": 1,
      "note": 53,
      "start": 4.193,
      "duration": 0.1024,
      "velocity": 91,
      "chip": "ym2612"
    },
    {
      "channel": 2,
      "note": 50,
      "start": 4.1939,
      "duration": 0.0546,
      "velocity": 101,
      "chip": "ym2612"
    },
    {
      "channel": 3,
      "note": 74,
      "start": 4.1946,
      "duration": 0.0541,
      "velocity": 105,
      "chip": "ym2612"
    },
    {
      "channel": 4,
      "note": 69,
      "start": 4.1953,
      "duration": 0.0538,
      "velocity": 105,
      "chip": "ym2612"
    },
    {
      "channel": 1,
      "note": 65,
      "start": 4.2959,
      "duration": 0.0369,
      "velocity": 91,
      "chip": "ym2612"
    },
    {
      "channel": 2,
      "note": 50,
      "start": 4.2967,
      "duration": 0.0172,
      "velocity": 101,
      "chip": "ym2612"
    },
    {
      "channel": 2,
      "note": 50,
      "start": 4.3145,
      "duration": 0.0192,
      "velocity": 101,
      "chip": "ym2612"
    },
    {
      "channel": 1,
      "note": 64,
      "start": 4.3334,
      "duration": 0.085,
      "velocity": 91,
      "chip": "ym2612"
    },
    {
      "channel": 2,
      "note": 50,
      "start": 4.3343,
      "duration": 0.0223,
      "velocity": 101,
      "chip": "ym2612"
    },
    {
      "channel": 3,
      "note": 72,
      "start": 4.3351,
      "duration": 0.0219,
      "velocity": 105,
      "chip": "ym2612"
    },
    {
      "channel": 4,
      "note": 67,
      "start": 4.3357,
      "duration": 0.022,
      "velocity": 105,
      "chip": "ym2612"
    },
    {
      "channel": 3,
      "note": 72,
      "start": 4.3576,
      "duration": 0.0397,
      "velocity": 105,
      "chip": "ym2612"
    },
    {
      "channel": 4,
      "note": 67,
      "start": 4.3583,
      "duration": 0.0403,
      "velocity": 105,
      "chip": "ym2612"
    },
    {
      "channel": 2,
      "note": 50,
      "start": 4.3971,
      "duration": 0.0221,
      "velocity": 101,
      "chip": "ym2612"
    },
    {
      "channel": 3,
      "note": 72,
      "start": 4.3978,
      "duration": 0.022,
      "velocity": 105,
      "chip": "ym2612"
    },
    {
      "channel": 4,
      "note": 67,
      "start": 4.3993,
      "duration": 0.0213,
      "velocity": 105,
      "chip": "ym2612"
    },
    {
      "channel": 1,
      "note": 62,
      "start": 4.4191,
      "duration": 0.1217,
      "velocity": 91,
      "chip": "ym2612"
    },
    {
      "channel": 2,
      "note": 50,
      "start": 4.4198,
      "duration": 0.0224,
      "velocity": 101,
      "chip": "ym2612"
    },
    {
      "channel": 3,
      "note": 72,
      "start": 4.4205,
      "duration": 0.0224,
      "velocity": 105,
      "chip": "ym2612"
    },
    {
      "channel": 4,
      "note": 67,
      "start": 4.4212,
      "duration": 0.0224,
      "velocity": 105,
      "chip": "ym2612"
    },
    {
      "channel": 2,
      "note": 50,
      "start": 4.4428,
      "duration": 0.0481,
      "velocity": 101,
      "chip": "ym2612"
    },
    {
      "channel": 3,
      "note": 74,
      "start": 4.4435,
      "duration": 0.0476,
      "velocity": 105,
      "chip": "ym2612"
    },
    {
      "channel": 4,
      "note": 69,
      "start": 4.4442,
      "duration": 0.0473,
      "velocity": 105,
      "chip": "ym2612"
    },
    {
      "channel": 1,
      "note": 60,
      "start": 4.5413,
      "duration": 0.0387,
      "velocity": 91,
      "chip": "ym2612"
    },
    {
      "channel": 2,
      "note": 50,
      "start": 4.542,
      "duration": 0.0184,
      "velocity": 101,
      "chip": "ym2612"
    },
    {
      "channel": 2,
      "note": 50,
      "start": 4.561,
      "duration": 0.0198,
      "velocity": 101,
      "chip": "ym2612"
    },
    {
      "channel": 1,
      "note": 50,
      "start": 4.5807,
      "duration": 0.0349,
      "velocity": 91,
      "chip": "ym2612"
    },
    {
      "channel": 2,
      "note": 50,
      "start": 4.5815,
      "duration": 0.0174,
      "velocity": 101,
      "chip": "ym2612"
    },
    {
      "channel": 1,
      "note": 62,
      "start": 4.6162,
      "duration": 0.042,
      "velocity": 91,
      "chip": "ym2612"
    },
    {
      "channel": 2,
      "note": 50,
      "start": 4.6169,
      "duration": 0.0222,
      "velocity": 101,
      "chip": "ym2612"
    },
    {
      "channel": 3,
      "note": 72,
      "start": 4.6176,
      "duration": 0.0222,
      "velocity": 105,
      "chip": "ym2612"
    },
    {
      "channel": 4,
      "note": 67,
      "start": 4.6184,
      "duration": 0.0218,
      "velocity": 105,
      "chip": "ym2612"
    },
    {
      "channel": 2,
      "note": 50,
      "start": 4.6397,
      "duration": 0.0193,
      "velocity": 101,
      "chip": "ym2612"
    },
    {
      "channel": 1,
      "note": 52,
      "start": 4.6587,
      "duration": 0.0961,
      "velocity": 91,
      "chip": "ym2612"
    },
    {
      "channel": 2,
      "note": 50,
      "start": 4.6595,
      "duration": 0.0442,
      "velocity": 101,
      "chip": "ym2612"
    },
    {
      "channel": 3,
      "note": 74,
      "start": 4.7046,
      "duration": 0.0517,
      "velocity": 105,
      "chip": "ym2612"
    },
    {
      "channel": 4,
      "note": 69,
      "start": 4.7054,
      "duration": 0.0512,
      "velocity": 105,
      "chip": "ym2612"
    },
    {
      "channel": 1,
      "note": 64,
      "start": 4.7555,
      "duration": 0.0365,
      "velocity": 91,
      "chip": "ym2612"
    },
    {
      "channel": 2,
      "note": 50,
      "start": 4.7562,
      "duration": 0.0187,
      "velocity": 101,
      "chip": "ym2612"
    },
    {
      "channel": 2,
      "note": 50,
      "start": 4.7755,
      "duration": 0.0173,
      "velocity": 101,
      "chip": "ym2612"
    },
    {
      "channel": 1,
      "note": 53,
      "start": 4.7926,
      "duration": 0.0634,
      "velocity": 91,
      "chip": "ym2612"
    },
    {
      "channel": 2,
      "note": 55,
      "start": 4.7934,
      "duration": 0.0221,
      "velocity": 101,
      "chip": "ym2612"
    },
    {
      "channel": 3,
      "note": 79,
      "start": 4.7949,
      "duration": 0.1055,
      "velocity": 105,
      "chip": "ym2612"
    },
    {
      "channel": 4,
      "note": 74,
      "start": 4.7956,
      "duration": 0.1055,
      "velocity": 105,
      "chip": "ym2612"
    },
    {
      "channel": 1,
      "note": 65,
      "start": 4.8565,
      "duration": 0.0424,
      "velocity": 91,
      "chip": "ym2612"
    },
    {
      "channel": 2,
      "note": 55,
      "start": 4.8572,
      "duration": 0.0215,
      "velocity": 101,
      "chip": "ym2612"
    },
    {
      "channel": 2,
      "note": 55,
      "start": 4.8793,
      "duration": 0.0203,
      "velocity": 101,
      "chip": "ym2612"
    },
    {
      "channel": 1,
      "note": 48,
      "start": 4.8995,
      "duration": 0.1039,
      "velocity": 91,
      "chip": "ym2612"
    },
    {
      "channel": 2,
      "note": 53,
      "start": 4.9002,
      "duration": 0.0541,
      "velocity": 101,
      "chip": "ym2612"
    },
    {
      "channel": 3,
      "note": 77,
      "start": 4.901,
      "duration": 0.1474,
      "velocity": 105,
      "chip": "ym2612"
    },
    {
      "channel": 4,
      "note": 72,
      "start": 4.9017,
      "duration": 0.1475,
      "velocity": 105,
      "chip": "ym2612"
    },
    {
      "channel": 1,
      "note": 60,
      "start": 5.0041,
      "duration": 0.0426,
      "velocity": 91,
      "chip": "ym2612"
    },
    {
      "channel": 2,
      "note": 53,
      "start": 5.0049,
      "duration": 0.0198,
      "velocity": 101,
      "chip": "ym2612"
    },
    {
      "channel": 2,
      "note": 53,
      "start": 5.0252,
      "duration": 0.0223,
      "velocity": 101,
      "chip": "ym2612"
    },
    {
      "channel": 1,
      "note": 50,
      "start": 5.0473,
      "duration": 0.0435,
      "velocity": 91,
      "chip": "ym2612"
    },
    {
      "channel": 2,
      "note": 50,
      "start": 5.0481,
      "duration": 0.0225,
      "velocity": 101,
      "chip": "ym2612"
    },
    {
      "channel": 3,
      "note": 72,
      "start": 5.0489,
      "duration": 0.022,
      "velocity": 105,
      "chip": "ym2612"
    },
    {
      "channel": 4,
      "note": 67,
      "start": 5.0497,
      "duration": 0.022,
      "velocity": 105,
      "chip": "ym2612"
    },
    {
      "channel": 3,
      "note": 72,
      "start": 5.0715,
      "duration": 0.0207,
      "velocity": 105,
      "chip": "ym2612"
    },
    {
      "channel": 4,
      "note": 67,
      "start": 5.0722,
      "duration": 0.0207,
      "velocity": 105,
      "chip": "ym2612"
    },
    {
      "channel": 1,
      "note": 62,
      "start": 5.0914,
      "duration": 0.0441,
      "velocity": 91,
      "chip": "ym2612"
    },
    {
      "channel": 2,
      "note": 50,
      "start": 5.0921,
      "duration": 0.0203,
      "velocity": 101,
      "chip": "ym2612"
    },
    {
      "channel": 3,
      "note": 72,
      "start": 5.0928,
      "duration": 0.0203,
      "velocity": 105,
      "chip": "ym2612"
    },
    {
      "channel": 4,
      "note": 67,
      "start": 5.0936,
      "duration": 0.0203,
      "velocity": 105,
      "chip": "ym2612"
    },
    {
      "channel": 2,
      "note": 50,
      "start": 5.1129,
      "duration": 0.0233,
      "velocity": 101,
      "chip": "ym2612"
    },
    {
      "channel": 3,
      "note": 72,
      "start": 5.1137,
      "duration": 0.0233,
      "velocity": 105,
      "chip": "ym2612"
    },
    {
      "channel": 4,
      "note": 67,
      "start": 5.1145,
      "duration": 0.0233,
      "velocity": 105,
      "chip": "ym2612"
    },
    {
      "channel": 1,
      "note": 53,
      "start": 5.1361,
      "duration": 0.1004,
      "velocity": 91,
      "chip": "ym2612"
    },
    {
      "channel": 2,
      "note": 50,
      "start": 5.1369,
      "duration": 0.0534,
      "velocity": 101,
      "chip": "ym2612"
    },
    {
      "channel": 3,
      "note": 74,
      "start": 5.1376,
      "duration": 0.053,
      "velocity": 105,
      "chip": "ym2612"
    },
    {
      "channel": 4,
      "note": 69,
      "start": 5.1383,
      "duration": 0.0526,
      "velocity": 105,
      "chip": "ym2612"
    },
    {
      "channel": 1,
      "note": 65,
      "start": 5.2371,
      "duration": 0.0375,
      "velocity": 91,
      "chip": "ym2612"
    },
    {
      "channel": 2,
      "note": 50,
      "start": 5.2385,
      "duration": 0.0175,
      "velocity": 101,
      "chip": "ym2612"
    },
    {
      "channel": 2,
      "note": 50,
      "start": 5.2566,
      "duration": 0.0189,
      "velocity": 101,
      "chip": "ym2612"
    },
    {
      "channel": 1,
      "note": 64,
      "start": 5.2752,
      "duration": 0.0852,
      "velocity": 91,
      "chip": "ym2612"
    },
    {
      "channel": 2,
      "note": 50,
      "start": 5.2761,
      "duration": 0.0223,
      "velocity": 101,
      "chip": "ym2612"
    },
    {
      "channel": 3,
      "note": 72,
      "start": 5.2768,
      "duration": 0.0218,
      "velocity": 105,
      "chip": "ym2612"
    },
    {
      "channel": 4,
      "note": 67,
      "start": 5.2775,
      "duration": 0.0219,
      "velocity": 105,
      "chip": "ym2612"
    },
    {
      "channel": 3,
      "note": 72,
      "start": 5.2992,
      "duration": 0.0397,
      "velocity": 105,
      "chip": "ym2612"
    },
    {
      "channel": 4,
      "note": 67,
      "start": 5.3,
      "duration": 0.0396,
      "velocity": 105,
      "chip": "ym2612"
    },
    {
      "channel": 2,
      "note": 50,
      "start": 5.3387,
      "duration": 0.0225,
      "velocity": 101,
      "chip": "ym2612"
    },
    {
      "channel": 3,
      "note": 72,
      "start": 5.3394,
      "duration": 0.0224,
      "velocity": 105,
      "chip": "ym2612"
    },
    {
      "channel": 4,
      "note": 67,
      "start": 5.3401,
      "duration": 0.0225,
      "velocity": 105,
      "chip": "ym2612"
    },
    {
      "channel": 1,
      "note": 62,
      "start": 5.361,
      "duration": 0.1294,
      "velocity": 91,
      "chip": "ym2612"
    },
    {
      "channel": 2,
      "note": 50,
      "start": 5.3617,
      "duration": 0.0224,
      "velocity": 101,
      "chip": "ym2612"
    },
    {
      "channel": 3,
      "note": 72,
      "start": 5.3624,
      "duration": 0.0225,
      "velocity": 105,
      "chip": "ym2612"
    },
    {
      "channel": 4,
      "note": 67,
      "start": 5.3632,
      "duration": 0.0224,
      "velocity": 105,
      "chip": "ym2612"
    },
    {
      "channel": 2,
      "note": 50,
      "start": 5.3848,
      "duration": 0.0504,
      "velocity": 101,
      "chip": "ym2612"
    },
    {
      "channel": 3,
      "note": 74,
      "start": 5.3855,
      "duration": 0.05,
      "velocity": 105,
      "chip": "ym2612"
    },
    {
      "channel": 4,
      "note": 69,
      "start": 5.3863,
      "duration": 0.0495,
      "velocity": 105,
      "chip": "ym2612"
    },
    {
      "channel": 1,
      "note": 60,
      "start": 5.491,
      "duration": 0.0384,
      "velocity": 91,
      "chip": "ym2612"
    },
    {
      "channel": 2,
      "note": 50,
      "start": 5.4917,
      "duration": 0.0187,
      "velocity": 101,
      "chip": "ym2612"
    },
    {
      "channel": 2,
      "note": 50,
      "start": 5.5109,
      "duration": 0.0193,
      "velocity": 101,
      "chip": "ym2612"
    },
    {
      "channel": 1,
      "note": 50,
      "start": 5.53,
      "duration": 0.035,
      "velocity": 91,
      "chip": "ym2612"
    },
    {
      "channel": 2,
      "note": 50,
      "start": 5.5308,
      "duration": 0.0172,
      "velocity": 101,
      "chip": "ym2612"
    },
    {
      "channel": 1,
      "note": 62,
      "start": 5.5656,
      "duration": 0.0404,
      "velocity": 91,
      "chip": "ym2612"
    },
    {
      "channel": 2,
      "note": 50,
      "start": 5.5663,
      "duration": 0.0223,
      "velocity": 101,
      "chip": "ym2612"
    },
    {
      "channel": 3,
      "note": 72,
      "start": 5.5671,
      "duration": 0.0224,
      "velocity": 105,
      "chip": "ym2612"
    },
    {
      "channel": 4,
      "note": 67,
      "start": 5.5678,
      "duration": 0.022,
      "velocity": 105,
      "chip": "ym2612"
    },
    {
      "channel": 2,
      "note": 50,
      "start": 5.5893,
      "duration": 0.0175,
      "velocity": 101,
      "chip": "ym2612"
    },
    {
      "channel": 1,
      "note": 52,
      "start": 5.6065,
      "duration": 0.1043,
      "velocity": 91,
      "chip": "ym2612"
    },
    {
      "channel": 2,
      "note": 50,
      "start": 5.608,
      "duration": 0.0489,
      "velocity": 101,
      "chip": "ym2612"
    },
    {
      "channel": 3,
      "note": 74,
      "start": 5.6578,
      "duration": 0.0544,
      "velocity": 105,
      "chip": "ym2612"
    },
    {
      "channel": 4,
      "note": 69,
      "start": 5.6585,
      "duration": 0.054,
      "velocity": 105,
      "chip": "ym2612"
    },
    {
      "channel": 1,
      "note": 64,
      "start": 5.7113,
      "duration": 0.0365,
      "velocity": 91,
      "chip": "ym2612"
    },
    {
      "channel": 2,
      "note": 50,
      "start": 5.7121,
      "duration": 0.0186,
      "velocity": 101,
      "chip": "ym2612"
    },
    {
      "channel": 2,
      "note": 50,
      "start": 5.7312,
      "duration": 0.0174,
      "velocity": 101,
      "chip": "ym2612"
    },
    {
      "channel": 1,
      "note": 53,
      "start": 5.7484,
      "duration": 0.0632,
      "velocity": 91,
      "chip": "ym2612"
    },
    {
      "channel": 2,
      "note": 55,
      "start": 5.7493,
      "duration": 0.0219,
      "velocity": 101,
      "chip": "ym2612"
    },
    {
      "channel": 3,
      "note": 79,
      "start": 5.75,
      "duration": 0.1054,
      "velocity": 105,
      "chip": "ym2612"
    },
    {
      "channel": 4,
      "note": 74,
      "start": 5.7508,
      "duration": 0.1053,
      "velocity": 105,
      "chip": "ym2612"
    },
    {
      "channel": 1,
      "note": 65,
      "start": 5.8122,
      "duration": 0.0417,
      "velocity": 91,
      "chip": "ym2612"
    },
    {
      "channel": 2,
      "note": 55,
      "start": 5.8129,
      "duration": 0.02,
      "velocity": 101,
      "chip": "ym2612"
    },
    {
      "channel": 2,
      "note": 55,
      "start": 5.8341,
      "duration": 0.0205,
      "velocity": 101,
      "chip": "ym2612"
    },
    {
      "channel": 1,
      "note": 48,
      "start": 5.8545,
      "duration": 0.1041,
      "velocity": 91,
      "chip": "ym2612"
    },
    {
      "channel": 2,
      "note": 53,
      "start": 5.8552,
      "duration": 0.0554,
      "velocity": 101,
      "chip": "ym2612"
    },
    {
      "channel": 3,
      "note": 77,
      "start": 5.8559,
      "duration": 0.1484,
      "velocity": 105,
      "chip": "ym2612"
    },
    {
      "channel": 4,
      "note": 72,
      "start": 5.8567,
      "duration": 0.1485,
      "velocity": 105,
      "chip": "ym2612"
    },
    {
      "channel": 1,
      "note": 60,
      "start": 5.9592,
      "duration": 0.0435,
      "velocity": 91,
      "chip": "ym2612"
    },
    {
      "channel": 2,
      "note": 53,
      "start": 5.9599,
      "duration": 0.0199,
      "velocity": 101,
      "chip": "ym2612"
    },
    {
      "channel": 2,
      "note": 53,
      "start": 5.9804,
      "duration": 0.0231,
      "velocity": 101,
      "chip": "ym2612"
    },
    {
      "channel": 1,
      "note": 50,
      "start": 6.0033,
      "duration": 0.0422,
      "velocity": 91,
      "chip": "ym2612"
    },
    {
      "channel": 2,
      "note": 50,
      "start": 6.0041,
      "duration": 0.0227,
      "velocity": 101,
      "chip": "ym2612"
    },
    {
      "channel": 3,
      "note": 72,
      "start": 6.0049,
      "duration": 0.0222,
      "velocity": 105,
      "chip": "ym2612"
    },
    {
      "channel": 4,
      "note": 67,
      "start": 6.0057,
      "duration": 0.0222,
      "velocity": 105,
      "chip": "ym2612"
    },
    {
      "channel": 3,
      "note": 72,
      "start": 6.0278,
      "duration": 0.0199,
      "velocity": 105,
      "chip": "ym2612"
    },
    {
      "channel": 4,
      "note": 67,
      "start": 6.0285,
      "duration": 0.02,
      "velocity": 105,
      "chip": "ym2612"
    },
    {
      "channel": 1,
      "note": 62,
      "start": 6.0461,
      "duration": 0.0456,
      "velocity": 91,
      "chip": "ym2612"
    },
    {
      "channel": 2,
      "note": 50,
      "start": 6.0476,
      "duration": 0.021,
      "velocity": 101,
      "chip": "ym2612"
    },
    {
      "channel": 3,
      "note": 72,
      "start": 6.0482,
      "duration": 0.021,
      "velocity": 105,
      "chip": "ym2612"
    },
    {
      "channel": 4,
      "note": 67,
      "start": 6.049,
      "duration": 0.021,
      "velocity": 105,
      "chip": "ym2612"
    },
    {
      "channel": 2,
      "note": 50,
      "start": 6.0691,
      "duration": 0.0234,
      "velocity": 101,
      "chip": "ym2612"
    },
    {
      "channel": 3,
      "note": 72,
      "start": 6.0699,
      "duration": 0.0233,
      "velocity": 105,
      "chip": "ym2612"
    },
    {
      "channel": 4,
      "note": 67,
      "start": 6.0706,
      "duration": 0.0234,
      "velocity": 105,
      "chip": "ym2612"
    },
    {
      "channel": 1,
      "note": 53,
      "start": 6.0922,
      "duration": 0.0974,
      "velocity": 91,
      "chip": "ym2612"
    },
    {
      "channel": 2,
      "note": 50,
      "start": 6.0931,
      "duration": 0.0516,
      "velocity": 101,
      "chip": "ym2612"
    },
    {
      "channel": 3,
      "note": 74,
      "start": 6.0938,
      "duration": 0.0512,
      "velocity": 105,
      "chip": "ym2612"
    },
    {
      "channel": 4,
      "note": 69,
      "start": 6.0945,
      "duration": 0.0508,
      "velocity": 105,
      "chip": "ym2612"
    },
    {
      "channel": 1,
      "note": 65,
      "start": 6.1902,
      "duration": 0.0372,
      "velocity": 91,
      "chip": "ym2612"
    },
    {
      "channel": 2,
      "note": 50,
      "start": 6.191,
      "duration": 0.0182,
      "velocity": 101,
      "chip": "ym2612"
    },
    {
      "channel": 2,
      "note": 50,
      "start": 6.2097,
      "duration": 0.0185,
      "velocity": 101,
      "chip": "ym2612"
    },
    {
      "channel": 1,
      "note": 64,
      "start": 6.2281,
      "duration": 0.0843,
      "velocity": 91,
      "chip": "ym2612"
    },
    {
      "channel": 2,
      "note": 50,
      "start": 6.2289,
      "duration": 0.0207,
      "velocity": 101,
      "chip": "ym2612"
    },
    {
      "channel": 3,
      "note": 72,
      "start": 6.2296,
      "duration": 0.0203,
      "velocity": 105,
      "chip": "ym2612"
    },
    {
      "channel": 4,
      "note": 67,
      "start": 6.2304,
      "duration": 0.021,
      "velocity": 105,
      "chip": "ym2612"
    },
    {
      "channel": 3,
      "note": 72,
      "start": 6.2512,
      "duration": 0.0398,
      "velocity": 105,
      "chip": "ym2612"
    },
    {
      "channel": 4,
      "note": 67,
      "start": 6.2519,
      "duration": 0.0398,
      "velocity": 105,
      "chip": "ym2612"
    },
    {
      "channel": 2,
      "note": 50,
      "start": 6.2909,
      "duration": 0.0223,
      "velocity": 101,
      "chip": "ym2612"
    },
    {
      "channel": 3,
      "note": 72,
      "start": 6.2916,
      "duration": 0.0223,
      "velocity": 105,
      "chip": "ym2612"
    },
    {
      "channel": 4,
      "note": 67,
      "start": 6.2923,
      "duration": 0.0223,
      "velocity": 105,
      "chip": "ym2612"
    },
    {
      "channel": 1,
      "note": 62,
      "start": 6.313,
      "duration": 0.1277,
      "velocity": 91,
      "chip": "ym2612"
    },
    {
      "channel": 2,
      "note": 50,
      "start": 6.3137,
      "duration": 0.0223,
      "velocity": 101,
      "chip": "ym2612"
    },
    {
      "channel": 3,
      "note": 72,
      "start": 6.3145,
      "duration": 0.0223,
      "velocity": 105,
      "chip": "ym2612"
    },
    {
      "channel": 4,
      "note": 67,
      "start": 6.3152,
      "duration": 0.0223,
      "velocity": 105,
      "chip": "ym2612"
    },
    {
      "channel": 2,
      "note": 50,
      "start": 6.3366,
      "duration": 0.0499,
      "velocity": 101,
      "chip": "ym2612"
    },
    {
      "channel": 3,
      "note": 74,
      "start": 6.3373,
      "duration": 0.0495,
      "velocity": 105,
      "chip": "ym2612"
    },
    {
      "channel": 4,
      "note": 69,
      "start": 6.3381,
      "duration": 0.049,
      "velocity": 105,
      "chip": "ym2612"
    },
    {
      "channel": 1,
      "note": 60,
      "start": 6.4413,
      "duration": 0.0377,
      "velocity": 91,
      "chip": "ym2612"
    },
    {
      "channel": 2,
      "note": 50,
      "start": 6.442,
      "duration": 0.0188,
      "velocity": 101,
      "chip": "ym2612"
    },
    {
      "channel": 2,
      "note": 50,
      "start": 6.4614,
      "duration": 0.0192,
      "velocity": 101,
      "chip": "ym2612"
    },
    {
      "channel": 1,
      "note": 50,
      "start": 6.4804,
      "duration": 0.0706,
      "velocity": 91,
      "chip": "ym2612"
    },
    {
      "channel": 2,
      "note": 50,
      "start": 6.4812,
      "duration": 0.0183,
      "velocity": 101,
      "chip": "ym2612"
    },
    {
      "channel": 1,
      "note": 62,
      "start": 6.5515,
      "duration": 0.0954,
      "velocity": 91,
      "chip": "ym2612"
    },
    {
      "channel": 2,
      "note": 50,
      "start": 6.5522,
      "duration": 0.0492,
      "velocity": 101,
      "chip": "ym2612"
    },
    {
      "channel": 3,
      "note": 72,
      "start": 6.553,
      "duration": 0.0492,
      "velocity": 105,
      "chip": "ym2612"
    },
    {
      "channel": 4,
      "note": 67,
      "start": 6.5537,
      "duration": 0.0488,
      "velocity": 105,
      "chip": "ym2612"
    },
    {
      "channel": 2,
      "note": 50,
      "start": 6.602,
      "duration": 0.0458,
      "velocity": 101,
      "chip": "ym2612"
    },
    {
      "channel": 1,
      "note": 52,
      "start": 6.6475,
      "duration": 0.0404,
      "velocity": 91,
      "chip": "ym2612"
    },
    {
      "channel": 2,
      "note": 50,
      "start": 6.6484,
      "duration": 0.0189,
      "velocity": 101,
      "chip": "ym2612"
    },
    {
      "channel": 3,
      "note": 74,
      "start": 6.6681,
      "duration": 0.0214,
      "velocity": 105,
      "chip": "ym2612"
    },
    {
      "channel": 4,
      "note": 69,
      "start": 6.6689,
      "duration": 0.0209,
      "velocity": 105,
      "chip": "ym2612"
    },
    {
      "channel": 1,
      "note": 64,
      "start": 6.6886,
      "duration": 0.1227,
      "velocity": 91,
      "chip": "ym2612"
    },
    {
      "channel": 2,
      "note": 50,
      "start": 6.6893,
      "duration": 0.0358,
      "velocity": 101,
      "chip": "ym2612"
    },
    {
      "channel": 2,
      "note": 50,
      "start": 6.7256,
      "duration": 0.0865,
      "velocity": 101,
      "chip": "ym2612"
    },
    {
      "channel": 1,
      "note": 53,
      "start": 6.8119,
      "duration": 0.072,
      "velocity": 91,
      "chip": "ym2612"
    },
    {
      "channel": 2,
      "note": 55,
      "start": 6.8127,
      "duration": 0.0231,
      "velocity": 101,
      "chip": "ym2612"
    },
    {
      "channel": 3,
      "note": 79,
      "start": 6.8134,
      "duration": 0.1485,
      "velocity": 105,
      "chip": "ym2612"
    },
    {
      "channel": 4,
      "note": 74,
      "start": 6.8142,
      "duration": 0.1485,
      "velocity": 105,
      "chip": "ym2612"
    },
    {
      "channel": 1,
      "note": 65,
      "start": 6.8844,
      "duration": 0.0761,
      "velocity": 91,
      "chip": "ym2612"
    },
    {
      "channel": 2,
      "note": 55,
      "start": 6.8852,
      "duration": 0.0203,
      "velocity": 101,
      "chip": "ym2612"
    },
    {
      "channel": 2,
      "note": 55,
      "start": 6.9061,
      "duration": 0.0552,
      "velocity": 101,
      "chip": "ym2612"
    },
    {
      "channel": 1,
      "note": 48,
      "start": 6.9611,
      "duration": 0.0428,
      "velocity": 91,
      "chip": "ym2612"
    },
    {
      "channel": 2,
      "note": 53,
      "start": 6.9618,
      "duration": 0.0231,
      "velocity": 101,
      "chip": "ym2612"
    },
    {
      "channel": 3,
      "note": 77,
      "start": 6.9625,
      "duration": 0.1056,
      "velocity": 105,
      "chip": "ym2612"
    },
    {
      "channel": 4,
      "note": 72,
      "start": 6.9633,
      "duration": 0.1061,
      "velocity": 105,
      "chip": "ym2612"
    },
    {
      "channel": 1,
      "note": 60,
      "start": 7.0052,
      "duration": 0.0609,
      "velocity": 91,
      "chip": "ym2612"
    },
    {
      "channel": 2,
      "note": 53,
      "start": 7.0059,
      "duration": 0.0373,
      "velocity": 101,
      "chip": "ym2612"
    },
    {
      "channel": 2,
      "note": 53,
      "start": 7.0439,
      "duration": 0.0231,
      "velocity": 101,
      "chip": "ym2612"
    },
    {
      "channel": 0,
      "note": 93,
      "start": 7.0657,
      "duration": 0.0263,
      "velocity": 120,
      "chip": "ym2612"
    },
    {
      "channel": 1,
      "note": 62,
      "start": 7.0667,
      "duration": 0.0261,
      "velocity": 91,
      "chip": "ym2612"
    },
    {
      "channel": 2,
      "note": 50,
      "start": 7.0675,
      "duration": 0.9842,
      "velocity": 101,
      "chip": "ym2612"
    },
    {
      "channel": 3,
      "note": 50,
      "start": 7.0688,
      "duration": 0.9837,
      "velocity": 105,
      "chip": "ym2612"
    },
    {
      "channel": 4,
      "note": 57,
      "start": 7.07,
      "duration": 0.9833,
      "velocity": 105,
      "chip": "ym2612"
    },
    {
      "channel": 0,
      "note": 91,
      "start": 7.0927,
      "duration": 0.0211,
      "velocity": 120,
      "chip": "ym2612"
    },
    {
      "channel": 1,
      "note": 62,
      "start": 7.0934,
      "duration": 0.0212,
      "velocity": 91,
      "chip": "ym2612"
    },
    {
      "channel": 0,
      "note": 89,
      "start": 7.1144,
      "duration": 0.0213,
      "velocity": 120,
      "chip": "ym2612"
    },
    {
      "channel": 0,
      "note": 93,
      "start": 7.1363,
      "duration": 0.0223,
      "velocity": 120,
      "chip": "ym2612"
    },
    {
      "channel": 0,
      "note": 91,
      "start": 7.1592,
      "duration": 0.0524,
      "velocity": 120,
      "chip": "ym2612"
    },
    {
      "channel": 0,
      "note": 89,
      "start": 7.2122,
      "duration": 0.0514,
      "velocity": 120,
      "chip": "ym2612"
    },
    {
      "channel": 0,
      "note": 86,
      "start": 7.2642,
      "duration": 0.0236,
      "velocity": 120,
      "chip": "ym2612"
    },
    {
      "channel": 1,
      "note": 67,
      "start": 7.2649,
      "duration": 0.0237,
      "velocity": 91,
      "chip": "ym2612"
    },
    {
      "channel": 0,
      "note": 91,
      "start": 7.2885,
      "duration": 0.0237,
      "velocity": 120,
      "chip": "ym2612"
    },
    {
      "channel": 1,
      "note": 69,
      "start": 7.2892,
      "duration": 0.0237,
      "velocity": 91,
      "chip": "ym2612"
    },
    {
      "channel": 0,
      "note": 89,
      "start": 7.3127,
      "duration": 0.0217,
      "velocity": 120,
      "chip": "ym2612"
    },
    {
      "channel": 1,
      "note": 72,
      "start": 7.3134,
      "duration": 0.0217,
      "velocity": 91,
      "chip": "ym2612"
    },
    {
      "channel": 0,
      "note": 86,
      "start": 7.335,
      "duration": 0.0307,
      "velocity": 120,
      "chip": "ym2612"
    },
    {
      "channel": 1,
      "note": 72,
      "start": 7.3357,
      "duration": 0.0307,
      "velocity": 91,
      "chip": "ym2612"
    },
    {
      "channel": 0,
      "note": 84,
      "start": 7.3663,
      "duration": 0.0215,
      "velocity": 120,
      "chip": "ym2612"
    },
    {
      "channel": 0,
      "note": 89,
      "start": 7.3884,
      "duration": 0.0227,
      "velocity": 120,
      "chip": "ym2612"
    },
    {
      "channel": 1,
      "note": 69,
      "start": 7.3891,
      "duration": 0.0234,
      "velocity": 91,
      "chip": "ym2612"
    },
    {
      "channel": 0,
      "note": 86,
      "start": 7.4123,
      "duration": 0.0476,
      "velocity": 120,
      "chip": "ym2612"
    },
    {
      "channel": 0,
      "note": 84,
      "start": 7.4605,
      "duration": 0.0516,
      "velocity": 120,
      "chip": "ym2612"
    },
    {
      "channel": 1,
      "note": 74,
      "start": 7.4613,
      "duration": 0.0515,
      "velocity": 91,
      "chip": "ym2612"
    },
    {
      "channel": 0,
      "note": 81,
      "start": 7.5126,
      "duration": 0.0239,
      "velocity": 120,
      "chip": "ym2612"
    },
    {
      "channel": 1,
      "note": 74,
      "start": 7.5134,
      "duration": 0.0239,
      "velocity": 91,
      "chip": "ym2612"
    },
    {
      "channel": 0,
      "note": 77,
      "start": 7.5371,
      "duration": 0.0205,
      "velocity": 120,
      "chip": "ym2612"
    },
    {
      "channel": 0,
      "note": 74,
      "start": 7.5581,
      "duration": 0.0247,
      "velocity": 120,
      "chip": "ym2612"
    },
    {
      "channel": 1,
      "note": 62,
      "start": 7.559,
      "duration": 0.0246,
      "velocity": 91,
      "chip": "ym2612"
    },
    {
      "channel": 0,
      "note": 72,
      "start": 7.5834,
      "duration": 0.0239,
      "velocity": 120,
      "chip": "ym2612"
    },
    {
      "channel": 1,
      "note": 62,
      "start": 7.5842,
      "duration": 0.0238,
      "velocity": 91,
      "chip": "ym2612"
    },
    {
      "channel": 0,
      "note": 74,
      "start": 7.6079,
      "duration": 0.0208,
      "velocity": 120,
      "chip": "ym2612"
    },
    {
      "channel": 0,
      "note": 77,
      "start": 7.6299,
      "duration": 0.0201,
      "velocity": 120,
      "chip": "ym2612"
    },
    {
      "channel": 0,
      "note": 79,
      "start": 7.6506,
      "duration": 0.0531,
      "velocity": 120,
      "chip": "ym2612"
    },
    {
      "channel": 0,
      "note": 81,
      "start": 7.7044,
      "duration": 0.0483,
      "velocity": 120,
      "chip": "ym2612"
    },
    {
      "channel": 0,
      "note": 84,
      "start": 7.7533,
      "duration": 0.022,
      "velocity": 120,
      "chip": "ym2612"
    },
    {
      "channel": 1,
      "note": 67,
      "start": 7.7541,
      "duration": 0.022,
      "velocity": 91,
      "chip": "ym2612"
    },
    {
      "channel": 0,
      "note": 86,
      "start": 7.776,
      "duration": 0.0229,
      "velocity": 120,
      "chip": "ym2612"
    },
    {
      "channel": 1,
      "note": 69,
      "start": 7.7767,
      "duration": 0.0229,
      "velocity": 91,
      "chip": "ym2612"
    },
    {
      "channel": 0,
      "note": 77,
      "start": 7.7994,
      "duration": 0.0234,
      "velocity": 120,
      "chip": "ym2612"
    },
    {
      "channel": 1,
      "note": 72,
      "start": 7.8002,
      "duration": 0.0234,
      "velocity": 91,
      "chip": "ym2612"
    },
    {
      "channel": 0,
      "note": 74,
      "start": 7.8234,
      "duration": 0.0306,
      "velocity": 120,
      "chip": "ym2612"
    },
    {
      "channel": 1,
      "note": 72,
      "start": 7.8241,
      "duration": 0.0312,
      "velocity": 91,
      "chip": "ym2612"
    },
    {
      "channel": 0,
      "note": 77,
      "start": 7.8552,
      "duration": 0.0202,
      "velocity": 120,
      "chip": "ym2612"
    },
    {
      "channel": 0,
      "note": 81,
      "start": 7.876,
      "duration": 0.024,
      "velocity": 120,
      "chip": "ym2612"
    },
    {
      "channel": 1,
      "note": 69,
      "start": 7.8767,
      "duration": 0.0241,
      "velocity": 91,
      "chip": "ym2612"
    },
    {
      "channel": 0,
      "note": 84,
      "start": 7.9007,
      "duration": 0.0515,
      "velocity": 120,
      "chip": "ym2612"
    },
    {
      "channel": 0,
      "note": 86,
      "start": 7.9527,
      "duration": 0.0507,
      "velocity": 120,
      "chip": "ym2612"
    },
    {
      "channel": 1,
      "note": 69,
      "start": 7.9536,
      "duration": 0.0506,
      "velocity": 91,
      "chip": "ym2612"
    },
    {
      "channel": 0,
      "note": 89,
      "start": 8.004,
      "duration": 0.0234,
      "velocity": 120,
      "chip": "ym2612"
    },
    {
      "channel": 1,
      "note": 65,
      "start": 8.0048,
      "duration": 0.0234,
      "velocity": 91,
      "chip": "ym2612"
    },
    {
      "channel": 0,
      "note": 93,
      "start": 8.028,
      "duration": 0.0219,
      "velocity": 120,
      "chip": "ym2612"
    },
    {
      "channel": 0,
      "note": 93,
      "start": 8.0505,
      "duration": 0.0239,
      "velocity": 120,
      "chip": "ym2612"
    },
    {
      "channel": 1,
      "note": 62,
      "start": 8.0514,
      "duration": 0.0245,
      "velocity": 91,
      "chip": "ym2612"
    },
    {
      "channel": 2,
      "note": 50,
      "start": 8.0523,
      "duration": 1.0958,
      "velocity": 101,
      "chip": "ym2612"
    },
    {
      "channel": 3,
      "note": 50,
      "start": 8.0531,
      "duration": 1.0958,
      "velocity": 105,
      "chip": "ym2612"
    },
    {
      "channel": 4,
      "note": 57,
      "start": 8.0539,
      "duration": 1.0958,
      "velocity": 105,
      "chip": "ym2612"
    },
    {
      "channel": 0,
      "note": 89,
      "start": 8.0758,
      "duration": 0.0216,
      "velocity": 120,
      "chip": "ym2612"
    },
    {
      "channel": 1,
      "note": 62,
      "start": 8.0765,
      "duration": 0.0217,
      "velocity": 91,
      "chip": "ym2612"
    },
    {
      "channel": 0,
      "note": 91,
      "start": 8.098,
      "duration": 0.0215,
      "velocity": 120,
      "chip": "ym2612"
    },
    {
      "channel": 0,
      "note": 89,
      "start": 8.1201,
      "duration": 0.0214,
      "velocity": 120,
      "chip": "ym2612"
    },
    {
      "channel": 0,
      "note": 93,
      "start": 8.1421,
      "duration": 0.0475,
      "velocity": 120,
      "chip": "ym2612"
    },
    {
      "channel": 0,
      "note": 89,
      "start": 8.1902,
      "duration": 0.0506,
      "velocity": 120,
      "chip": "ym2612"
    },
    {
      "channel": 0,
      "note": 91,
      "start": 8.2415,
      "duration": 0.0237,
      "velocity": 120,
      "chip": "ym2612"
    },
    {
      "channel": 1,
      "note": 67,
      "start": 8.2422,
      "duration": 0.0237,
      "velocity": 91,
      "chip": "ym2612"
    },
    {
      "channel": 0,
      "note": 89,
      "start": 8.2657,
      "duration": 0.0231,
      "velocity": 120,
      "chip": "ym2612"
    },
    {
      "channel": 1,
      "note": 69,
      "start": 8.2664,
      "duration": 0.0232,
      "velocity": 91,
      "chip": "ym2612"
    },
    {
      "channel": 0,
      "note": 93,
      "start": 8.2894,
      "duration": 0.0221,
      "velocity": 120,
      "chip": "ym2612"
    },
    {
      "channel": 1,
      "note": 72,
      "start": 8.2902,
      "duration": 0.0221,
      "velocity": 91,
      "chip": "ym2612"
    },
    {
      "channel": 0,
      "note": 89,
      "start": 8.3121,
      "duration": 0.0306,
      "velocity": 120,
      "chip": "ym2612"
    },
    {
      "channel": 1,
      "note": 72,
      "start": 8.3128,
      "duration": 0.0307,
      "velocity": 91,
      "chip": "ym2612"
    },
    {
      "channel": 0,
      "note": 91,
      "start": 8.3433,
      "duration": 0.0217,
      "velocity": 120,
      "chip": "ym2612"
    },
    {
      "channel": 0,
      "note": 89,
      "start": 8.3656,
      "duration": 0.0218,
      "velocity": 120,
      "chip": "ym2612"
    },
    {
      "channel": 1,
      "note": 69,
      "start": 8.3663,
      "duration": 0.0218,
      "velocity": 91,
      "chip": "ym2612"
    },
    {
      "channel": 0,
      "note": 93,
      "start": 8.388,
      "duration": 0.0519,
      "velocity": 120,
      "chip": "ym2612"
    },
    {
      "channel": 0,
      "note": 89,
      "start": 8.4405,
      "duration": 0.0523,
      "velocity": 120,
      "chip": "ym2612"
    },
    {
      "channel": 1,
      "note": 74,
      "start": 8.4414,
      "duration": 0.0522,
      "velocity": 91,
      "chip": "ym2612"
    },
    {
      "channel": 0,
      "note": 88,
      "start": 8.4934,
      "duration": 0.0225,
      "velocity": 120,
      "chip": "ym2612"
    },
    {
      "channel": 1,
      "note": 74,
      "start": 8.4941,
      "duration": 0.0226,
      "velocity": 91,
      "chip": "ym2612"
    },
    {
      "channel": 0,
      "note": 93,
      "start": 8.5166,
      "duration": 0.6296,
      "velocity": 120,
      "chip": "ym2612"
    },
    {
      "channel": 1,
      "note": 62,
      "start": 8.5379,
      "duration": 0.024,
      "velocity": 91,
      "chip": "ym2612"
    },
    {
      "channel": 1,
      "note": 62,
      "start": 8.5625,
      "duration": 0.0485,
      "velocity": 91,
      "chip": "ym2612"
    },
    {
      "channel": 1,
      "note": 67,
      "start": 8.7573,
      "duration": 0.0388,
      "velocity": 91,
      "chip": "ym2612"
    },
    {
      "channel": 1,
      "note": 69,
      "start": 8.7967,
      "duration": 0.0876,
      "velocity": 91,
      "chip": "ym2612"
    },
    {
      "channel": 1,
      "note": 72,
      "start": 8.8849,
      "duration": 0.0243,
      "velocity": 91,
      "chip": "ym2612"
    },
    {
      "channel": 1,
      "note": 72,
      "start": 8.9098,
      "duration": 0.0507,
      "velocity": 91,
      "chip": "ym2612"
    },
    {
      "channel": 1,
      "note": 69,
      "start": 8.9829,
      "duration": 0.0551,
      "velocity": 91,
      "chip": "ym2612"
    },
    {
      "channel": 1,
      "note": 69,
      "start": 9.0609,
      "duration": 0.0217,
      "velocity": 91,
      "chip": "ym2612"
    },
    {
      "channel": 1,
      "note": 65,
      "start": 9.0832,
      "duration": 0.0406,
      "velocity": 91,
      "chip": "ym2612"
    },
    {
      "channel": 0,
      "note": 93,
      "start": 9.1468,
      "duration": 0.0689,
      "velocity": 120,
      "chip": "ym2612"
    },
    {
      "channel": 1,
      "note": 62,
      "start": 9.1478,
      "duration": 0.0231,
      "velocity": 91,
      "chip": "ym2612"
    },
    {
      "channel": 2,
      "note": 50,
      "start": 9.1486,
      "duration": 0.9785,
      "velocity": 101,
      "chip": "ym2612"
    },
    {
      "channel": 3,
      "note": 50,
      "start": 9.1495,
      "duration": 0.9785,
      "velocity": 105,
      "chip": "ym2612"
    },
    {
      "channel": 4,
      "note": 57,
      "start": 9.1503,
      "duration": 0.9785,
      "velocity": 105,
      "chip": "ym2612"
    },
    {
      "channel": 1,
      "note": 62,
      "start": 9.1715,
      "duration": 0.0226,
      "velocity": 91,
      "chip": "ym2612"
    },
    {
      "channel": 0,
      "note": 92,
      "start": 9.2163,
      "duration": 0.1237,
      "velocity": 120,
      "chip": "ym2612"
    },
    {
      "channel": 0,
      "note": 91,
      "start": 9.3406,
      "duration": 0.0688,
      "velocity": 120,
      "chip": "ym2612"
    },
    {
      "channel": 1,
      "note": 67,
      "start": 9.3414,
      "duration": 0.0234,
      "velocity": 91,
      "chip": "ym2612"
    },
    {
      "channel": 1,
      "note": 69,
      "start": 9.3654,
      "duration": 0.0213,
      "velocity": 91,
      "chip": "ym2612"
    },
    {
      "channel": 1,
      "note": 72,
      "start": 9.3873,
      "duration": 0.0228,
      "velocity": 91,
      "chip": "ym2612"
    },
    {
      "channel": 0,
      "note": 90,
      "start": 9.41,
      "duration": 0.0758,
      "velocity": 120,
      "chip": "ym2612"
    },
    {
      "channel": 1,
      "note": 72,
      "start": 9.4107,
      "duration": 0.031,
      "velocity": 91,
      "chip": "ym2612"
    },
    {
      "channel": 1,
      "note": 69,
      "start": 9.4641,
      "duration": 0.0225,
      "velocity": 91,
      "chip": "ym2612"
    },
    {
      "channel": 0,
      "note": 89,
      "start": 9.4864,
      "duration": 0.1286,
      "velocity": 120,
      "chip": "ym2612"
    },
    {
      "channel": 1,
      "note": 74,
      "start": 9.5412,
      "duration": 0.0518,
      "velocity": 91,
      "chip": "ym2612"
    },
    {
      "channel": 1,
      "note": 74,
      "start": 9.5935,
      "duration": 0.0222,
      "velocity": 91,
      "chip": "ym2612"
    },
    {
      "channel": 0,
      "note": 88,
      "start": 9.6156,
      "duration": 0.0704,
      "velocity": 120,
      "chip": "ym2612"
    },
    {
      "channel": 1,
      "note": 62,
      "start": 9.638,
      "duration": 0.0243,
      "velocity": 91,
      "chip": "ym2612"
    },
    {
      "channel": 1,
      "note": 62,
      "start": 9.6629,
      "duration": 0.0239,
      "velocity": 91,
      "chip": "ym2612"
    },
    {
      "channel": 0,
      "note": 87,
      "start": 9.6866,
      "duration": 0.092,
      "velocity": 120,
      "chip": "ym2612"
    },
    {
      "channel": 0,
      "note": 86,
      "start": 9.7793,
      "duration": 0.0956,
      "velocity": 120,
      "chip": "ym2612"
    },
    {
      "channel": 1,
      "note": 67,
      "start": 9.8288,
      "duration": 0.0229,
      "velocity": 91,
      "chip": "ym2612"
    },
    {
      "channel": 1,
      "note": 69,
      "start": 9.8522,
      "duration": 0.0234,
      "velocity": 91,
      "chip": "ym2612"
    },
    {
      "channel": 0,
      "note": 85,
      "start": 9.8755,
      "duration": 0.0762,
      "velocity": 120,
      "chip": "ym2612"
    },
    {
      "channel": 1,
      "note": 72,
      "start": 9.8762,
      "duration": 0.0232,
      "velocity": 91,
      "chip": "ym2612"
    },
    {
      "channel": 1,
      "note": 72,
      "start": 9.9001,
      "duration": 0.0304,
      "velocity": 91,
      "chip": "ym2612"
    },
    {
      "channel": 0,
      "note": 84,
      "start": 9.9523,
      "duration": 0.127,
      "velocity": 120,
      "chip": "ym2612"
    },
    {
      "channel": 1,
      "note": 69,
      "start": 9.9529,
      "duration": 0.0231,
      "velocity": 91,
      "chip": "ym2612"
    },
    {
      "channel": 1,
      "note": 69,
      "start": 10.0246,
      "duration": 0.0554,
      "velocity": 91,
      "chip": "ym2612"
    },
    {
      "channel": 0,
      "note": 83,
      "start": 10.0799,
      "duration": 0.0699,
      "velocity": 120,
      "chip": "ym2612"
    },
    {
      "channel": 1,
      "note": 65,
      "start": 10.0806,
      "duration": 0.0231,
      "velocity": 91,
      "chip": "ym2612"
    },
    {
      "channel": 1,
      "note": 62,
      "start": 10.1268,
      "duration": 0.0237,
      "velocity": 91,
      "chip": "ym2612"
    },
    {
      "channel": 2,
      "note": 50,
      "start": 10.1277,
      "duration": 1.0995,
      "velocity": 101,
      "chip": "ym2612"
    },
    {
      "channel": 3,
      "note": 50,
      "start": 10.1285,
      "duration": 1.0995,
      "velocity": 105,
      "chip": "ym2612"
    },
    {
      "channel": 4,
      "note": 57,
      "start": 10.1294,
      "duration": 1.0994,
      "velocity": 105,
      "chip": "ym2612"
    },
    {
      "channel": 0,
      "note": 82,
      "start": 10.1504,
      "duration": 0.0662,
      "velocity": 120,
      "chip": "ym2612"
    },
    {
      "channel": 1,
      "note": 62,
      "start": 10.1511,
      "duration": 0.0236,
      "velocity": 91,
      "chip": "ym2612"
    },
    {
      "channel": 0,
      "note": 81,
      "start": 10.2173,
      "duration": 0.123,
      "velocity": 120,
      "chip": "ym2612"
    },
    {
      "channel": 1,
      "note": 67,
      "start": 10.318,
      "duration": 0.023,
      "velocity": 91,
      "chip": "ym2612"
    },
    {
      "channel": 0,
      "note": 80,
      "start": 10.3408,
      "duration": 0.0778,
      "velocity": 120,
      "chip": "ym2612"
    },
    {
      "channel": 1,
      "note": 69,
      "start": 10.3416,
      "duration": 0.0209,
      "velocity": 91,
      "chip": "ym2612"
    },
    {
      "channel": 1,
      "note": 72,
      "start": 10.363,
      "duration": 0.0232,
      "velocity": 91,
      "chip": "ym2612"
    },
    {
      "channel": 1,
      "note": 72,
      "start": 10.3868,
      "duration": 0.0325,
      "velocity": 91,
      "chip": "ym2612"
    },
    {
      "channel": 0,
      "note": 79,
      "start": 10.4193,
      "duration": 0.0976,
      "velocity": 120,
      "chip": "ym2612"
    },
    {
      "channel": 1,
      "note": 69,
      "start": 10.4402,
      "duration": 0.0223,
      "velocity": 91,
      "chip": "ym2612"
    },
    {
      "channel": 0,
      "note": 78,
      "start": 10.5175,
      "duration": 0.0944,
      "velocity": 120,
      "chip": "ym2612"
    },
    {
      "channel": 1,
      "note": 74,
      "start": 10.5183,
      "duration": 0.0496,
      "velocity": 91,
      "chip": "ym2612"
    },
    {
      "channel": 1,
      "note": 74,
      "start": 10.5684,
      "duration": 0.0213,
      "velocity": 91,
      "chip": "ym2612"
    },
    {
      "channel": 0,
      "note": 77,
      "start": 10.6124,
      "duration": 0.0254,
      "velocity": 120,
      "chip": "ym2612"
    },
    {
      "channel": 1,
      "note": 62,
      "start": 10.6132,
      "duration": 0.0253,
      "velocity": 91,
      "chip": "ym2612"
    },
    {
      "channel": 0,
      "note": 81,
      "start": 10.6384,
      "duration": 0.0519,
      "velocity": 120,
      "chip": "ym2612"
    },
    {
      "channel": 1,
      "note": 62,
      "start": 10.6391,
      "duration": 0.0519,
      "velocity": 91,
      "chip": "ym2612"
    },
    {
      "channel": 0,
      "note": 84,
      "start": 10.6909,
      "duration": 0.0512,
      "velocity": 120,
      "chip": "ym2612"
    },
    {
      "channel": 0,
      "note": 89,
      "start": 10.7428,
      "duration": 0.0518,
      "velocity": 120,
      "chip": "ym2612"
    },
    {
      "channel": 0,
      "note": 86,
      "start": 10.7951,
      "duration": 0.4295,
      "velocity": 120,
      "chip": "ym2612"
    },
    {
      "channel": 1,
      "note": 67,
      "start": 10.8385,
      "duration": 0.0416,
      "velocity": 91,
      "chip": "ym2612"
    },
    {
      "channel": 1,
      "note": 69,
      "start": 10.8807,
      "duration": 0.0875,
      "velocity": 91,
      "chip": "ym2612"
    },
    {
      "channel": 1,
      "note": 72,
      "start": 10.9688,
      "duration": 0.0223,
      "velocity": 91,
      "chip": "ym2612"
    },
    {
      "channel": 1,
      "note": 72,
      "start": 10.9923,
      "duration": 0.053,
      "velocity": 91,
      "chip": "ym2612"
    },
    {
      "channel": 1,
      "note": 69,
      "start": 11.068,
      "duration": 0.0509,
      "velocity": 91,
      "chip": "ym2612"
    },
    {
      "channel": 1,
      "note": 69,
      "start": 11.1404,
      "duration": 0.0229,
      "velocity": 91,
      "chip": "ym2612"
    },
    {
      "channel": 1,
      "note": 65,
      "start": 11.1639,
      "duration": 0.04,
      "velocity": 91,
      "chip": "ym2612"
    },
    {
      "channel": 0,
      "note": 74,
      "start": 11.2253,
      "duration": 0.0249,
      "velocity": 120,
      "chip": "ym2612"
    },
    {
      "channel": 1,
      "note": 62,
      "start": 11.2269,
      "duration": 0.024,
      "velocity": 91,
      "chip": "ym2612"
    },
    {
      "channel": 2,
      "note": 50,
      "start": 11.2277,
      "duration": 0.9695,
      "velocity": 101,
      "chip": "ym2612"
    },
    {
      "channel": 3,
      "note": 50,
      "start": 11.2286,
      "duration": 0.9695,
      "velocity": 105,
      "chip": "ym2612"
    },
    {
      "channel": 4,
      "note": 57,
      "start": 11.2294,
      "duration": 0.9702,
      "velocity": 105,
      "chip": "ym2612"
    },
    {
      "channel": 0,
      "note": 76,
      "start": 11.2508,
      "duration": 0.0229,
      "velocity": 120,
      "chip": "ym2612"
    },
    {
      "channel": 1,
      "note": 62,
      "start": 11.2515,
      "duration": 0.0229,
      "velocity": 91,
      "chip": "ym2612"
    },
    {
      "channel": 0,
      "note": 77,
      "start": 11.2742,
      "duration": 0.0218,
      "velocity": 120,
      "chip": "ym2612"
    },
    {
      "channel": 0,
      "note": 79,
      "start": 11.2966,
      "duration": 0.0195,
      "velocity": 120,
      "chip": "ym2612"
    },
    {
      "channel": 0,
      "note": 81,
      "start": 11.3168,
      "duration": 0.0486,
      "velocity": 120,
      "chip": "ym2612"
    },
    {
      "channel": 0,
      "note": 79,
      "start": 11.366,
      "duration": 0.048,
      "velocity": 120,
      "chip": "ym2612"
    },
    {
      "channel": 0,
      "note": 77,
      "start": 11.4146,
      "duration": 0.022,
      "velocity": 120,
      "chip": "ym2612"
    },
    {
      "channel": 1,
      "note": 67,
      "start": 11.4154,
      "duration": 0.0221,
      "velocity": 91,
      "chip": "ym2612"
    },
    {
      "channel": 0,
      "note": 76,
      "start": 11.4373,
      "duration": 0.0229,
      "velocity": 120,
      "chip": "ym2612"
    },
    {
      "channel": 1,
      "note": 69,
      "start": 11.438,
      "duration": 0.0229,
      "velocity": 91,
      "chip": "ym2612"
    },
    {
      "channel": 0,
      "note": 74,
      "start": 11.4607,
      "duration": 0.0236,
      "velocity": 120,
      "chip": "ym2612"
    },
    {
      "channel": 1,
      "note": 72,
      "start": 11.4615,
      "duration": 0.0235,
      "velocity": 91,
      "chip": "ym2612"
    },
    {
      "channel": 0,
      "note": 76,
      "start": 11.4849,
      "duration": 0.0311,
      "velocity": 120,
      "chip": "ym2612"
    },
    {
      "channel": 1,
      "note": 72,
      "start": 11.4856,
      "duration": 0.0311,
      "velocity": 91,
      "chip": "ym2612"
    },
    {
      "channel": 0,
      "note": 77,
      "start": 11.5166,
      "duration": 0.0197,
      "velocity": 120,
      "chip": "ym2612"
    },
    {
      "channel": 0,
      "note": 79,
      "start": 11.5369,
      "duration": 0.0232,
      "velocity": 120,
      "chip": "ym2612"
    },
    {
      "channel": 1,
      "note": 69,
      "start": 11.5376,
      "duration": 0.0232,
      "velocity": 91,
      "chip": "ym2612"
    },
    {
      "channel": 0,
      "note": 81,
      "start": 11.5607,
      "duration": 0.0482,
      "velocity": 120,
      "chip": "ym2612"
    },
    {
      "channel": 0,
      "note": 79,
      "start": 11.6095,
      "duration": 0.0494,
      "velocity": 120,
      "chip": "ym2612"
    },
    {
      "channel": 1,
      "note": 74,
      "start": 11.6103,
      "duration": 0.0501,
      "velocity": 91,
      "chip": "ym2612"
    },
    {
      "channel": 0,
      "note": 77,
      "start": 11.6602,
      "duration": 0.0224,
      "velocity": 120,
      "chip": "ym2612"
    },
    {
      "channel": 1,
      "note": 74,
      "start": 11.661,
      "duration": 0.0224,
      "velocity": 91,
      "chip": "ym2612"
    },
    {
      "channel": 0,
      "note": 76,
      "start": 11.6833,
      "duration": 0.0219,
      "velocity": 120,
      "chip": "ym2612"
    },
    {
      "channel": 0,
      "note": 75,
      "start": 11.7057,
      "duration": 0.0252,
      "velocity": 120,
      "chip": "ym2612"
    },
    {
      "channel": 1,
      "note": 62,
      "start": 11.7066,
      "duration": 0.025,
      "velocity": 91,
      "chip": "ym2612"
    },
    {
      "channel": 0,
      "note": 77,
      "start": 11.7315,
      "duration": 0.0214,
      "velocity": 120,
      "chip": "ym2612"
    },
    {
      "channel": 1,
      "note": 62,
      "start": 11.7322,
      "duration": 0.0214,
      "velocity": 91,
      "chip": "ym2612"
    },
    {
      "channel": 0,
      "note": 78,
      "start": 11.7535,
      "duration": 0.0213,
      "velocity": 120,
      "chip": "ym2612"
    },
    {
      "channel": 0,
      "note": 80,
      "start": 11.7754,
      "duration": 0.0216,
      "velocity": 120,
      "chip": "ym2612"
    },
    {
      "channel": 0,
      "note": 82,
      "start": 11.7977,
      "duration": 0.0492,
      "velocity": 120,
      "chip": "ym2612"
    },
    {
      "channel": 0,
      "note": 80,
      "start": 11.8475,
      "duration": 0.0527,
      "velocity": 120,
      "chip": "ym2612"
    },
    {
      "channel": 0,
      "note": 78,
      "start": 11.9007,
      "duration": 0.0236,
      "velocity": 120,
      "chip": "ym2612"
    },
    {
      "channel": 1,
      "note": 67,
      "start": 11.9015,
      "duration": 0.0236,
      "velocity": 91,
      "chip": "ym2612"
    },
    {
      "channel": 0,
      "note": 77,
      "start": 11.9249,
      "duration": 0.0237,
      "velocity": 120,
      "chip": "ym2612"
    },
    {
      "channel": 1,
      "note": 69,
      "start": 11.9257,
      "duration": 0.0236,
      "velocity": 91,
      "chip": "ym2612"
    },
    {
      "channel": 0,
      "note": 75,
      "start": 11.9492,
      "duration": 0.0219,
      "velocity": 120,
      "chip": "ym2612"
    },
    {
      "channel": 1,
      "note": 72,
      "start": 11.9499,
      "duration": 0.0219,
      "velocity": 91,
      "chip": "ym2612"
    },
    {
      "channel": 0,
      "note": 77,
      "start": 11.9717,
      "duration": 0.0307,
      "velocity": 120,
      "chip": "ym2612"
    },
    {
      "channel": 1,
      "note": 72,
      "start": 11.9724,
      "duration": 0.0308,
      "velocity": 91,
      "chip": "ym2612"
    },
    {
      "channel": 0,
      "note": 78,
      "start": 12.003,
      "duration": 0.0214,
      "velocity": 120,
      "chip": "ym2612"
    },
    {
      "channel": 0,
      "note": 80,
      "start": 12.025,
      "duration": 0.0221,
      "velocity": 120,
      "chip": "ym2612"
    },
    {
      "channel": 1,
      "note": 69,
      "start": 12.0258,
      "duration": 0.0221,
      "velocity": 91,
      "chip": "ym2612"
    },
    {
      "channel": 0,
      "note": 82,
      "start": 12.0477,
      "duration": 0.0485,
      "velocity": 120,
      "chip": "ym2612"
    },
    {
      "channel": 0,
      "note": 80,
      "start": 12.0968,
      "duration": 0.0529,
      "velocity": 120,
      "chip": "ym2612"
    },
    {
      "channel": 1,
      "note": 69,
      "start": 12.0977,
      "duration": 0.0529,
      "velocity": 91,
      "chip": "ym2612"
    },
    {
      "channel": 0,
      "note": 78,
      "start": 12.1504,
      "duration": 0.0239,
      "velocity": 120,
      "chip": "ym2612"
    },
    {
      "channel": 1,
      "note": 65,
      "start": 12.1511,
      "duration": 0.0239,
      "velocity": 91,
      "chip": "ym2612"
    },
    {
      "channel": 0,
      "note": 77,
      "start": 12.1749,
      "duration": 0.0206,
      "velocity": 120,
      "chip": "ym2612"
    },
    {
      "channel": 0,
      "note": 76,
      "start": 12.1961,
      "duration": 0.0251,
      "velocity": 120,
      "chip": "ym2612"
    },
    {
      "channel": 1,
      "note": 62,
      "start": 12.197,
      "duration": 0.0249,
      "velocity": 91,
      "chip": "ym2612"
    },
    {
      "channel": 2,
      "note": 50,
      "start": 12.1978,
      "duration": 1.1004,
      "velocity": 101,
      "chip": "ym2612"
    },
    {
      "channel": 3,
      "note": 50,
      "start": 12.1994,
      "duration": 1.0997,
      "velocity": 105,
      "chip": "ym2612"
    },
    {
      "channel": 4,
      "note": 57,
      "start": 12.2002,
      "duration": 1.0997,
      "velocity": 105,
      "chip": "ym2612"
    },
    {
      "channel": 0,
      "note": 78,
      "start": 12.2217,
      "duration": 0.0233,
      "velocity": 120,
      "chip": "ym2612"
    },
    {
      "channel": 1,
      "note": 62,
      "start": 12.2225,
      "duration": 0.0233,
      "velocity": 91,
      "chip": "ym2612"
    },
    {
      "channel": 0,
      "note": 79,
      "start": 12.2457,
      "duration": 0.0208,
      "velocity": 120,
      "chip": "ym2612"
    },
    {
      "channel": 0,
      "note": 81,
      "start": 12.2671,
      "duration": 0.0208,
      "velocity": 120,
      "chip": "ym2612"
    },
    {
      "channel": 0,
      "note": 83,
      "start": 12.2885,
      "duration": 0.0497,
      "velocity": 120,
      "chip": "ym2612"
    },
    {
      "channel": 0,
      "note": 81,
      "start": 12.3387,
      "duration": 0.0459,
      "velocity": 120,
      "chip": "ym2612"
    },
    {
      "channel": 0,
      "note": 79,
      "start": 12.3852,
      "duration": 0.0217,
      "velocity": 120,
      "chip": "ym2612"
    },
    {
      "channel": 1,
      "note": 67,
      "start": 12.386,
      "duration": 0.0217,
      "velocity": 91,
      "chip": "ym2612"
    },
    {
      "channel": 0,
      "note": 78,
      "start": 12.4075,
      "duration": 0.0232,
      "velocity": 120,
      "chip": "ym2612"
    },
    {
      "channel": 1,
      "note": 69,
      "start": 12.4083,
      "duration": 0.0232,
      "velocity": 91,
      "chip": "ym2612"
    },
    {
      "channel": 0,
      "note": 76,
      "start": 12.4312,
      "duration": 0.0235,
      "velocity": 120,
      "chip": "ym2612"
    },
    {
      "channel": 1,
      "note": 72,
      "start": 12.432,
      "duration": 0.0235,
      "velocity": 91,
      "chip": "ym2612"
    },
    {
      "channel": 0,
      "note": 78,
      "start": 12.4554,
      "duration": 0.0308,
      "velocity": 120,
      "chip": "ym2612"
    },
    {
      "channel": 1,
      "note": 72,
      "start": 12.4561,
      "duration": 0.0315,
      "velocity": 91,
      "chip": "ym2612"
    },
    {
      "channel": 0,
      "note": 79,
      "start": 12.4867,
      "duration": 0.0208,
      "velocity": 120,
      "chip": "ym2612"
    },
    {
      "channel": 0,
      "note": 81,
      "start": 12.5081,
      "duration": 0.0237,
      "velocity": 120,
      "chip": "ym2612"
    },
    {
      "channel": 1,
      "note": 69,
      "start": 12.5089,
      "duration": 0.0237,
      "velocity": 91,
      "chip": "ym2612"
    },
    {
      "channel": 0,
      "note": 83,
      "start": 12.5324,
      "duration": 0.052,
      "velocity": 120,
      "chip": "ym2612"
    },
    {
      "channel": 0,
      "note": 81,
      "start": 12.5849,
      "duration": 0.0503,
      "velocity": 120,
      "chip": "ym2612"
    },
    {
      "channel": 1,
      "note": 74,
      "start": 12.5858,
      "duration": 0.0502,
      "velocity": 91,
      "chip": "ym2612"
    },
    {
      "channel": 0,
      "note": 79,
      "start": 12.6359,
      "duration": 0.0232,
      "velocity": 120,
      "chip": "ym2612"
    },
    {
      "channel": 1,
      "note": 74,
      "start": 12.6366,
      "duration": 0.0232,
      "velocity": 91,
      "chip": "ym2612"
    },
    {
      "channel": 0,
      "note": 78,
      "start": 12.6597,
      "duration": 0.022,
      "velocity": 120,
      "chip": "ym2612"
    },
    {
      "channel": 0,
      "note": 77,
      "start": 12.6822,
      "duration": 0.0245,
      "velocity": 120,
      "chip": "ym2612"
    },
    {
      "channel": 1,
      "note": 62,
      "start": 12.6831,
      "duration": 0.0251,
      "velocity": 91,
      "chip": "ym2612"
    },
    {
      "channel": 0,
      "note": 79,
      "start": 12.708,
      "duration": 0.0516,
      "velocity": 120,
      "chip": "ym2612"
    },
    {
      "channel": 1,
      "note": 62,
      "start": 12.7088,
      "duration": 0.0516,
      "velocity": 91,
      "chip": "ym2612"
    },
    {
      "channel": 0,
      "note": 80,
      "start": 12.7602,
      "duration": 0.0501,
      "velocity": 120,
      "chip": "ym2612"
    },
    {
      "channel": 0,
      "note": 82,
      "start": 12.811,
      "duration": 0.0485,
      "velocity": 120,
      "chip": "ym2612"
    },
    {
      "channel": 0,
      "note": 84,
      "start": 12.86,
      "duration": 0.0202,
      "velocity": 120,
      "chip": "ym2612"
    },
    {
      "channel": 0,
      "note": 82,
      "start": 12.8807,
      "duration": 0.0213,
      "velocity": 120,
      "chip": "ym2612"
    },
    {
      "channel": 0,
      "note": 80,
      "start": 12.9027,
      "duration": 0.0405,
      "velocity": 120,
      "chip": "ym2612"
    },
    {
      "channel": 1,
      "note": 67,
      "start": 12.9034,
      "duration": 0.0405,
      "velocity": 91,
      "chip": "ym2612"
    },
    {
      "channel": 0,
      "note": 79,
      "start": 12.9438,
      "duration": 0.0872,
      "velocity": 120,
      "chip": "ym2612"
    },
    {
      "channel": 1,
      "note": 69,
      "start": 12.9445,
      "duration": 0.0879,
      "velocity": 91,
      "chip": "ym2612"
    },
    {
      "channel": 0,
      "note": 78,
      "start": 13.0322,
      "duration": 0.0231,
      "velocity": 120,
      "chip": "ym2612"
    },
    {
      "channel": 1,
      "note": 72,
      "start": 13.033,
      "duration": 0.0232,
      "velocity": 91,
      "chip": "ym2612"
    },
    {
      "channel": 0,
      "note": 80,
      "start": 13.056,
      "duration": 0.0555,
      "velocity": 120,
      "chip": "ym2612"
    },
    {
      "channel": 1,
      "note": 72,
      "start": 13.0567,
      "duration": 0.0556,
      "velocity": 91,
      "chip": "ym2612"
    },
    {
      "channel": 0,
      "note": 81,
      "start": 13.1122,
      "duration": 0.0221,
      "velocity": 120,
      "chip": "ym2612"
    },
    {
      "channel": 0,
      "note": 83,
      "start": 13.1349,
      "duration": 0.0513,
      "velocity": 120,
      "chip": "ym2612"
    },
    {
      "channel": 1,
      "note": 69,
      "start": 13.1356,
      "duration": 0.0513,
      "velocity": 91,
      "chip": "ym2612"
    },
    {
      "channel": 0,
      "note": 85,
      "start": 13.1867,
      "duration": 0.0219,
      "velocity": 120,
      "chip": "ym2612"
    },
    {
      "channel": 0,
      "note": 83,
      "start": 13.2093,
      "duration": 0.0232,
      "velocity": 120,
      "chip": "ym2612"
    },
    {
      "channel": 1,
      "note": 69,
      "start": 13.2101,
      "duration": 0.0231,
      "velocity": 91,
      "chip": "ym2612"
    },
    {
      "channel": 0,
      "note": 81,
      "start": 13.233,
      "duration": 0.0414,
      "velocity": 120,
      "chip": "ym2612"
    },
    {
      "channel": 1,
      "note": 65,
      "start": 13.2338,
      "duration": 0.0413,
      "velocity": 91,
      "chip": "ym2612"
    },
    {
      "channel": 0,
      "note": 80,
      "start": 13.275,
      "duration": 0.0215,
      "velocity": 120,
      "chip": "ym2612"
    },
    {
      "channel": 0,
      "note": 81,
      "start": 13.2971,
      "duration": 0.025,
      "velocity": 120,
      "chip": "ym2612"
    },
    {
      "channel": 1,
      "note": 62,
      "start": 13.298,
      "duration": 0.0248,
      "velocity": 91,
      "chip": "ym2612"
    },
    {
      "channel": 2,
      "note": 50,
      "start": 13.2988,
      "duration": 0.978,
      "velocity": 101,
      "chip": "ym2612"
    },
    {
      "channel": 3,
      "note": 50,
      "start": 13.2997,
      "duration": 0.978,
      "velocity": 105,
      "chip": "ym2612"
    },
    {
      "channel": 4,
      "note": 57,
      "start": 13.3005,
      "duration": 0.978,
      "velocity": 105,
      "chip": "ym2612"
    },
    {
      "channel": 0,
      "note": 79,
      "start": 13.3227,
      "duration": 0.0235,
      "velocity": 120,
      "chip": "ym2612"
    },
    {
      "channel": 1,
      "note": 62,
      "start": 13.3235,
      "duration": 0.0235,
      "velocity": 91,
      "chip": "ym2612"
    },
    {
      "channel": 0,
      "note": 81,
      "start": 13.3468,
      "duration": 0.0199,
      "velocity": 120,
      "chip": "ym2612"
    },
    {
      "channel": 0,
      "note": 84,
      "start": 13.3673,
      "duration": 0.0213,
      "velocity": 120,
      "chip": "ym2612"
    },
    {
      "channel": 0,
      "note": 86,
      "start": 13.3892,
      "duration": 0.0507,
      "velocity": 120,
      "chip": "ym2612"
    },
    {
      "channel": 0,
      "note": 84,
      "start": 13.4405,
      "duration": 0.0477,
      "velocity": 120,
      "chip": "ym2612"
    },
    {
      "channel": 0,
      "note": 81,
      "start": 13.4895,
      "duration": 0.0222,
      "velocity": 120,
      "chip": "ym2612"
    },
    {
      "channel": 1,
      "note": 67,
      "start": 13.4902,
      "duration": 0.0222,
      "velocity": 91,
      "chip": "ym2612"
    },
    {
      "channel": 0,
      "note": 79,
      "start": 13.5123,
      "duration": 0.0233,
      "velocity": 120,
      "chip": "ym2612"
    },
    {
      "channel": 1,
      "note": 69,
      "start": 13.513,
      "duration": 0.0233,
      "velocity": 91,
      "chip": "ym2612"
    },
    {
      "channel": 0,
      "note": 81,
      "start": 13.5362,
      "duration": 0.0237,
      "velocity": 120,
      "chip": "ym2612"
    },
    {
      "channel": 1,
      "note": 72,
      "start": 13.537,
      "duration": 0.0237,
      "velocity": 91,
      "chip": "ym2612"
    },
    {
      "channel": 0,
      "note": 84,
      "start": 13.5605,
      "duration": 0.0295,
      "velocity": 120,
      "chip": "ym2612"
    },
    {
      "channel": 1,
      "note": 72,
      "start": 13.5612,
      "duration": 0.0295,
      "velocity": 91,
      "chip": "ym2612"
    },
    {
      "channel": 0,
      "note": 86,
      "start": 13.5907,
      "duration": 0.0213,
      "velocity": 120,
      "chip": "ym2612"
    },
    {
      "channel": 0,
      "note": 84,
      "start": 13.6126,
      "duration": 0.0237,
      "velocity": 120,
      "chip": "ym2612"
    },
    {
      "channel": 1,
      "note": 69,
      "start": 13.6133,
      "duration": 0.0238,
      "velocity": 91,
      "chip": "ym2612"
    },
    {
      "channel": 0,
      "note": 81,
      "start": 13.6369,
      "duration": 0.0483,
      "velocity": 120,
      "chip": "ym2612"
    },
    {
      "channel": 0,
      "note": 79,
      "start": 13.6865,
      "duration": 0.0506,
      "velocity": 120,
      "chip": "ym2612"
    },
    {
      "channel": 1,
      "note": 74,
      "start": 13.6873,
      "duration": 0.0506,
      "velocity": 91,
      "chip": "ym2612"
    },
    {
      "channel": 0,
      "note": 81,
      "start": 13.7377,
      "duration": 0.0232,
      "velocity": 120,
      "chip": "ym2612"
    },
    {
      "channel": 1,
      "note": 74,
      "start": 13.7385,
      "duration": 0.0232,
      "velocity": 91,
      "chip": "ym2612"
    },
    {
      "channel": 0,
      "note": 84,
      "start": 13.7616,
      "duration": 0.0217,
      "velocity": 120,
      "chip": "ym2612"
    },
    {
      "channel": 0,
      "note": 86,
      "start": 13.7839,
      "duration": 0.0232,
      "velocity": 120,
      "chip": "ym2612"
    },
    {
      "channel": 1,
      "note": 62,
      "start": 13.7847,
      "duration": 0.0231,
      "velocity": 91,
      "chip": "ym2612"
    },
    {
      "channel": 0,
      "note": 84,
      "start": 13.8076,
      "duration": 0.0228,
      "velocity": 120,
      "chip": "ym2612"
    },
    {
      "channel": 1,
      "note": 62,
      "start": 13.8083,
      "duration": 0.0228,
      "velocity": 91,
      "chip": "ym2612"
    },
    {
      "channel": 0,
      "note": 81,
      "start": 13.831,
      "duration": 0.0217,
      "velocity": 120,
      "chip": "ym2612"
    },
    {
      "channel": 0,
      "note": 79,
      "start": 13.8533,
      "duration": 0.0211,
      "velocity": 120,
      "chip": "ym2612"
    },
    {
      "channel": 0,
      "note": 81,
      "start": 13.875,
      "duration": 0.048,
      "velocity": 120,
      "chip": "ym2612"
    },
    {
      "channel": 0,
      "note": 84,
      "start": 13.9236,
      "duration": 0.0531,
      "velocity": 120,
      "chip": "ym2612"
    },
    {
      "channel": 0,
      "note": 86,
      "start": 13.9772,
      "duration": 0.0238,
      "velocity": 120,
      "chip": "ym2612"
    },
    {
      "channel": 1,
      "note": 67,
      "start": 13.978,
      "duration": 0.0238,
      "velocity": 91,
      "chip": "ym2612"
    },
    {
      "channel": 0,
      "note": 84,
      "start": 14.0016,
      "duration": 0.0217,
      "velocity": 120,
      "chip": "ym2612"
    },
    {
      "channel": 1,
      "note": 69,
      "start": 14.0024,
      "duration": 0.0217,
      "velocity": 91,
      "chip": "ym2612"
    },
    {
      "channel": 0,
      "note": 81,
      "start": 14.0239,
      "duration": 0.0233,
      "velocity": 120,
      "chip": "ym2612"
    },
    {
      "channel": 1,
      "note": 72,
      "start": 14.0246,
      "duration": 0.0232,
      "velocity": 91,
      "chip": "ym2612"
    },
    {
      "channel": 0,
      "note": 79,
      "start": 14.0477,
      "duration": 0.0307,
      "velocity": 120,
      "chip": "ym2612"
    },
    {
      "channel": 1,
      "note": 72,
      "start": 14.0485,
      "duration": 0.0307,
      "velocity": 91,
      "chip": "ym2612"
    },
    {
      "channel": 0,
      "note": 81,
      "start": 14.079,
      "duration": 0.0207,
      "velocity": 120,
      "chip": "ym2612"
    },
    {
      "channel": 0,
      "note": 84,
      "start": 14.1004,
      "duration": 0.022,
      "velocity": 120,
      "chip": "ym2612"
    },
    {
      "channel": 1,
      "note": 69,
      "start": 14.1011,
      "duration": 0.022,
      "velocity": 91,
      "chip": "ym2612"
    },
    {
      "channel": 0,
      "note": 86,
      "start": 14.123,
      "duration": 0.0533,
      "velocity": 120,
      "chip": "ym2612"
    },
    {
      "channel": 0,
      "note": 84,
      "start": 14.1769,
      "duration": 0.053,
      "velocity": 120,
      "chip": "ym2612"
    },
    {
      "channel": 1,
      "note": 69,
      "start": 14.1778,
      "duration": 0.0529,
      "velocity": 91,
      "chip": "ym2612"
    },
    {
      "channel": 0,
      "note": 81,
      "start": 14.2305,
      "duration": 0.022,
      "velocity": 120,
      "chip": "ym2612"
    },
    {
      "channel": 1,
      "note": 65,
      "start": 14.2313,
      "duration": 0.022,
      "velocity": 91,
      "chip": "ym2612"
    },
    {
      "channel": 0,
      "note": 79,
      "start": 14.2532,
      "duration": 0.0219,
      "velocity": 120,
      "chip": "ym2612"
    },
    {
      "channel": 0,
      "note": 81,
      "start": 14.2757,
      "duration": 0.0251,
      "velocity": 120,
      "chip": "ym2612"
    },
    {
      "channel": 1,
      "note": 62,
      "start": 14.2766,
      "duration": 0.025,
      "velocity": 91,
      "chip": "ym2612"
    },
    {
      "channel": 2,
      "note": 50,
      "start": 14.2774,
      "duration": 1.0996,
      "velocity": 101,
      "chip": "ym2612"
    },
    {
      "channel": 3,
      "note": 50,
      "start": 14.2782,
      "duration": 1.1032,
      "velocity": 105,
      "chip": "ym2612"
    },
    {
      "channel": 4,
      "note": 57,
      "start": 14.279,
      "duration": 1.1075,
      "velocity": 105,
      "chip": "ym2612"
    },
    {
      "channel": 0,
      "note": 84,
      "start": 14.3015,
      "duration": 0.0231,
      "velocity": 120,
      "chip": "ym2612"
    },
    {
      "channel": 1,
      "note": 62,
      "start": 14.3021,
      "duration": 0.0232,
      "velocity": 91,
      "chip": "ym2612"
    },
    {
      "channel": 0,
      "note": 86,
      "start": 14.3252,
      "duration": 0.0202,
      "velocity": 120,
      "chip": "ym2612"
    },
    {
      "channel": 0,
      "note": 84,
      "start": 14.346,
      "duration": 0.0216,
      "velocity": 120,
      "chip": "ym2612"
    },
    {
      "channel": 0,
      "note": 81,
      "start": 14.3682,
      "duration": 0.0503,
      "velocity": 120,
      "chip": "ym2612"
    },
    {
      "channel": 0,
      "note": 79,
      "start": 14.419,
      "duration": 0.0475,
      "velocity": 120,
      "chip": "ym2612"
    },
    {
      "channel": 0,
      "note": 81,
      "start": 14.4672,
      "duration": 0.0233,
      "velocity": 120,
      "chip": "ym2612"
    },
    {
      "channel": 1,
      "note": 67,
      "start": 14.4679,
      "duration": 0.0234,
      "velocity": 91,
      "chip": "ym2612"
    },
    {
      "channel": 0,
      "note": 84,
      "start": 14.4911,
      "duration": 0.0234,
      "velocity": 120,
      "chip": "ym2612"
    },
    {
      "channel": 1,
      "note": 69,
      "start": 14.4919,
      "duration": 0.0234,
      "velocity": 91,
      "chip": "ym2612"
    },
    {
      "channel": 0,
      "note": 86,
      "start": 14.5152,
      "duration": 0.0234,
      "velocity": 120,
      "chip": "ym2612"
    },
    {
      "channel": 1,
      "note": 72,
      "start": 14.5159,
      "duration": 0.0234,
      "velocity": 91,
      "chip": "ym2612"
    },
    {
      "channel": 0,
      "note": 84,
      "start": 14.5391,
      "duration": 0.0294,
      "velocity": 120,
      "chip": "ym2612"
    },
    {
      "channel": 1,
      "note": 72,
      "start": 14.5399,
      "duration": 0.0294,
      "velocity": 91,
      "chip": "ym2612"
    },
    {
      "channel": 0,
      "note": 81,
      "start": 14.5691,
      "duration": 0.0217,
      "velocity": 120,
      "chip": "ym2612"
    },
    {
      "channel": 0,
      "note": 79,
      "start": 14.5914,
      "duration": 0.0243,
      "velocity": 120,
      "chip": "ym2612"
    },
    {
      "channel": 1,
      "note": 69,
      "start": 14.5921,
      "duration": 0.0243,
      "velocity": 91,
      "chip": "ym2612"
    },
    {
      "channel": 0,
      "note": 81,
      "start": 14.6163,
      "duration": 0.049,
      "velocity": 120,
      "chip": "ym2612"
    },
    {
      "channel": 0,
      "note": 84,
      "start": 14.6659,
      "duration": 0.0527,
      "velocity": 120,
      "chip": "ym2612"
    },
    {
      "channel": 1,
      "note": 74,
      "start": 14.6667,
      "duration": 0.0526,
      "velocity": 91,
      "chip": "ym2612"
    },
    {
      "channel": 0,
      "note": 86,
      "start": 14.7192,
      "duration": 0.0237,
      "velocity": 120,
      "chip": "ym2612"
    },
    {
      "channel": 1,
      "note": 74,
      "start": 14.72,
      "duration": 0.0237,
      "velocity": 91,
      "chip": "ym2612"
    },
    {
      "channel": 0,
      "note": 84,
      "start": 14.7434,
      "duration": 0.0223,
      "velocity": 120,
      "chip": "ym2612"
    },
    {
      "channel": 0,
      "note": 86,
      "start": 14.7664,
      "duration": 0.6092,
      "velocity": 120,
      "chip": "ym2612"
    },
    {
      "channel": 1,
      "note": 62,
      "start": 14.7672,
      "duration": 0.0231,
      "velocity": 91,
      "chip": "ym2612"
    },
    {
      "channel": 1,
      "note": 62,
      "start": 14.7908,
      "duration": 0.0519,
      "velocity": 91,
      "chip": "ym2612"
    },
    {
      "channel": 1,
      "note": 67,
      "start": 14.9909,
      "duration": 0.0398,
      "velocity": 91,
      "chip": "ym2612"
    },
    {
      "channel": 1,
      "note": 69,
      "start": 15.0312,
      "duration": 0.087,
      "velocity": 91,
      "chip": "ym2612"
    },
    {
      "channel": 1,
      "note": 72,
      "start": 15.1188,
      "duration": 0.0239,
      "velocity": 91,
      "chip": "ym2612"
    },
    {
      "channel": 1,
      "note": 72,
      "start": 15.1434,
      "duration": 0.052,
      "velocity": 91,
      "chip": "ym2612"
    },
    {
      "channel": 1,
      "note": 69,
      "start": 15.2166,
      "duration": 0.0504,
      "velocity": 91,
      "chip": "ym2612"
    },
    {
      "channel": 1,
      "note": 69,
      "start": 15.2899,
      "duration": 0.0234,
      "velocity": 91,
      "chip": "ym2612"
    },
    {
      "channel": 1,
      "note": 65,
      "start": 15.3139,
      "duration": 0.0395,
      "velocity": 91,
      "chip": "ym2612"
    },
    {
      "channel": 1,
      "note": 50,
      "start": 15.3766,
      "duration": 0.0503,
      "velocity": 91,
      "chip": "ym2612"
    },
    {
      "channel": 2,
      "note": 50,
      "start": 15.3775,
      "duration": 0.0942,
      "velocity": 101,
      "chip": "ym2612"
    },
    {
      "channel": 3,
      "note": 62,
      "start": 15.382,
      "duration": 30.7334,
      "velocity": 105,
      "chip": "ym2612"
    },
    {
      "channel": 4,
      "note": 57,
      "start": 15.3871,
      "duration": 30.7284,
      "velocity": 105,
      "chip": "ym2612"
    },
    {
      "channel": 1,
      "note": 62,
      "start": 15.4276,
      "duration": 0.0434,
      "velocity": 91,
      "chip": "ym2612"
    },
    {
      "channel": 1,
      "note": 53,
      "start": 15.4715,
      "duration": 30.6439,
      "velocity": 91,
      "chip": "ym2612"
    },
    {
      "channel": 2,
      "note": 53,
      "start": 15.4723,
      "duration": 30.6432,
      "velocity": 101,
      "chip": "ym2612"
    }
  ]
}