{
  "track_name": "04 - China Theme",
  "duration_sec": 16.462,
  "sample_rate": 44100,
  "note_count": 284,
  "unique_pitches": 16,
  "pitch_range": 60,
  "avg_note_duration": 0.3443,
  "reconstruction_stats": {
    "notes_reconstructed": 284,
    "keyon_events": 284,
    "keyoff_events": 278,
    "orphan_keyons": 6,
    "unique_pitches": 16,
    "pitch_range": 60,
    "avg_duration_sec": 0.3443
  },
  "metadata": {
    "source": "T\\Toughman Contest\\04 - China Theme.vgz"
  },
  "notes": [
    {
      "channel": 3,
      "note": 48,
      "start": 0.0021,
      "duration": 0.2893,
      "velocity": 106,
      "chip": "ym2612"
    },
    {
      "channel": 2,
      "note": 48,
      "start": 0.0039,
      "duration": 2.5529,
      "velocity": 86,
      "chip": "ym2612"
    },
    {
      "channel": 1,
      "note": 67,
      "start": 0.0114,
      "duration": 0.1172,
      "velocity": 112,
      "chip": "ym2612"
    },
    {
      "channel": 0,
      "note": 72,
      "start": 0.0164,
      "duration": 0.1139,
      "velocity": 112,
      "chip": "ym2612"
    },
    {
      "channel": 1,
      "note": 65,
      "start": 0.129,
      "duration": 0.1646,
      "velocity": 112,
      "chip": "ym2612"
    },
    {
      "channel": 0,
      "note": 70,
      "start": 0.1308,
      "duration": 0.1576,
      "velocity": 112,
      "chip": "ym2612"
    },
    {
      "channel": 0,
      "note": 72,
      "start": 0.289,
      "duration": 0.6512,
      "velocity": 112,
      "chip": "ym2612"
    },
    {
      "channel": 3,
      "note": 36,
      "start": 0.292,
      "duration": 0.3227,
      "velocity": 106,
      "chip": "ym2612"
    },
    {
      "channel": 1,
      "note": 67,
      "start": 0.2941,
      "duration": 0.6443,
      "velocity": 112,
      "chip": "ym2612"
    },
    {
      "channel": 5,
      "note": 67,
      "start": 0.4043,
      "duration": 0.1537,
      "velocity": 112,
      "chip": "ym2612"
    },
    {
      "channel": 4,
      "note": 72,
      "start": 0.4061,
      "duration": 0.1537,
      "velocity": 112,
      "chip": "ym2612"
    },
    {
      "channel": 5,
      "note": 65,
      "start": 0.5585,
      "duration": 0.1658,
      "velocity": 112,
      "chip": "ym2612"
    },
    {
      "channel": 4,
      "note": 70,
      "start": 0.5603,
      "duration": 0.1658,
      "velocity": 112,
      "chip": "ym2612"
    },
    {
      "channel": 3,
      "note": 48,
      "start": 0.6151,
      "duration": 0.6468,
      "velocity": 106,
      "chip": "ym2612"
    },
    {
      "channel": 5,
      "note": 67,
      "start": 0.7248,
      "duration": 0.6458,
      "velocity": 112,
      "chip": "ym2612"
    },
    {
      "channel": 4,
      "note": 72,
      "start": 0.7266,
      "duration": 0.6403,
      "velocity": 112,
      "chip": "ym2612"
    },
    {
      "channel": 1,
      "note": 67,
      "start": 0.9388,
      "duration": 0.3252,
      "velocity": 112,
      "chip": "ym2612"
    },
    {
      "channel": 0,
      "note": 72,
      "start": 0.9406,
      "duration": 0.3253,
      "velocity": 112,
      "chip": "ym2612"
    },
    {
      "channel": 3,
      "note": 48,
      "start": 1.2624,
      "duration": 0.6445,
      "velocity": 106,
      "chip": "ym2612"
    },
    {
      "channel": 1,
      "note": 70,
      "start": 1.2645,
      "duration": 0.3186,
      "velocity": 112,
      "chip": "ym2612"
    },
    {
      "channel": 0,
      "note": 75,
      "start": 1.2664,
      "duration": 0.3185,
      "velocity": 112,
      "chip": "ym2612"
    },
    {
      "channel": 4,
      "note": 72,
      "start": 1.3673,
      "duration": 0.3279,
      "velocity": 112,
      "chip": "ym2612"
    },
    {
      "channel": 5,
      "note": 67,
      "start": 1.371,
      "duration": 0.3224,
      "velocity": 112,
      "chip": "ym2612"
    },
    {
      "channel": 1,
      "note": 72,
      "start": 1.5837,
      "duration": 0.3253,
      "velocity": 112,
      "chip": "ym2612"
    },
    {
      "channel": 0,
      "note": 77,
      "start": 1.5855,
      "duration": 0.3254,
      "velocity": 112,
      "chip": "ym2612"
    },
    {
      "channel": 5,
      "note": 70,
      "start": 1.694,
      "duration": 0.3228,
      "velocity": 112,
      "chip": "ym2612"
    },
    {
      "channel": 4,
      "note": 75,
      "start": 1.6958,
      "duration": 0.3227,
      "velocity": 112,
      "chip": "ym2612"
    },
    {
      "channel": 3,
      "note": 48,
      "start": 1.9074,
      "duration": 0.3253,
      "velocity": 106,
      "chip": "ym2612"
    },
    {
      "channel": 1,
      "note": 72,
      "start": 1.9095,
      "duration": 0.4823,
      "velocity": 112,
      "chip": "ym2612"
    },
    {
      "channel": 0,
      "note": 77,
      "start": 1.9114,
      "duration": 0.4822,
      "velocity": 112,
      "chip": "ym2612"
    },
    {
      "channel": 5,
      "note": 72,
      "start": 2.0173,
      "duration": 0.3251,
      "velocity": 112,
      "chip": "ym2612"
    },
    {
      "channel": 4,
      "note": 77,
      "start": 2.019,
      "duration": 0.3251,
      "velocity": 112,
      "chip": "ym2612"
    },
    {
      "channel": 3,
      "note": 36,
      "start": 2.2332,
      "duration": 0.3301,
      "velocity": 106,
      "chip": "ym2612"
    },
    {
      "channel": 5,
      "note": 72,
      "start": 2.3428,
      "duration": 0.4856,
      "velocity": 112,
      "chip": "ym2612"
    },
    {
      "channel": 4,
      "note": 77,
      "start": 2.3446,
      "duration": 0.4801,
      "velocity": 112,
      "chip": "ym2612"
    },
    {
      "channel": 1,
      "note": 70,
      "start": 2.3923,
      "duration": 0.1663,
      "velocity": 112,
      "chip": "ym2612"
    },
    {
      "channel": 0,
      "note": 75,
      "start": 2.3941,
      "duration": 0.1663,
      "velocity": 112,
      "chip": "ym2612"
    },
    {
      "channel": 2,
      "note": 48,
      "start": 2.5573,
      "duration": 5.1854,
      "velocity": 86,
      "chip": "ym2612"
    },
    {
      "channel": 1,
      "note": 67,
      "start": 2.5591,
      "duration": 0.3257,
      "velocity": 112,
      "chip": "ym2612"
    },
    {
      "channel": 0,
      "note": 72,
      "start": 2.5608,
      "duration": 0.3187,
      "velocity": 112,
      "chip": "ym2612"
    },
    {
      "channel": 3,
      "note": 48,
      "start": 2.5638,
      "duration": 0.3188,
      "velocity": 106,
      "chip": "ym2612"
    },
    {
      "channel": 4,
      "note": 75,
      "start": 2.8253,
      "duration": 0.1622,
      "velocity": 112,
      "chip": "ym2612"
    },
    {
      "channel": 5,
      "note": 70,
      "start": 2.829,
      "duration": 0.1567,
      "velocity": 112,
      "chip": "ym2612"
    },
    {
      "channel": 0,
      "note": 72,
      "start": 2.88,
      "duration": 0.1622,
      "velocity": 112,
      "chip": "ym2612"
    },
    {
      "channel": 3,
      "note": 36,
      "start": 2.8831,
      "duration": 0.3217,
      "velocity": 106,
      "chip": "ym2612"
    },
    {
      "channel": 1,
      "note": 65,
      "start": 2.8852,
      "duration": 0.1553,
      "velocity": 112,
      "chip": "ym2612"
    },
    {
      "channel": 5,
      "note": 67,
      "start": 2.9862,
      "duration": 0.3269,
      "velocity": 112,
      "chip": "ym2612"
    },
    {
      "channel": 4,
      "note": 72,
      "start": 2.9879,
      "duration": 0.3215,
      "velocity": 112,
      "chip": "ym2612"
    },
    {
      "channel": 1,
      "note": 67,
      "start": 3.0409,
      "duration": 0.1591,
      "velocity": 112,
      "chip": "ym2612"
    },
    {
      "channel": 0,
      "note": 70,
      "start": 3.0427,
      "duration": 0.1591,
      "velocity": 112,
      "chip": "ym2612"
    },
    {
      "channel": 1,
      "note": 67,
      "start": 3.2005,
      "duration": 0.3255,
      "velocity": 112,
      "chip": "ym2612"
    },
    {
      "channel": 0,
      "note": 72,
      "start": 3.2023,
      "duration": 0.3255,
      "velocity": 112,
      "chip": "ym2612"
    },
    {
      "channel": 3,
      "note": 48,
      "start": 3.2053,
      "duration": 0.6445,
      "velocity": 106,
      "chip": "ym2612"
    },
    {
      "channel": 4,
      "note": 72,
      "start": 3.31,
      "duration": 0.1632,
      "velocity": 112,
      "chip": "ym2612"
    },
    {
      "channel": 5,
      "note": 65,
      "start": 3.3137,
      "duration": 0.1577,
      "velocity": 112,
      "chip": "ym2612"
    },
    {
      "channel": 5,
      "note": 67,
      "start": 3.4718,
      "duration": 0.1619,
      "velocity": 112,
      "chip": "ym2612"
    },
    {
      "channel": 4,
      "note": 70,
      "start": 3.4736,
      "duration": 0.1619,
      "velocity": 112,
      "chip": "ym2612"
    },
    {
      "channel": 1,
      "note": 70,
      "start": 3.5266,
      "duration": 0.3254,
      "velocity": 112,
      "chip": "ym2612"
    },
    {
      "channel": 0,
      "note": 75,
      "start": 3.5283,
      "duration": 0.3254,
      "velocity": 112,
      "chip": "ym2612"
    },
    {
      "channel": 5,
      "note": 67,
      "start": 3.6342,
      "duration": 0.3253,
      "velocity": 112,
      "chip": "ym2612"
    },
    {
      "channel": 4,
      "note": 72,
      "start": 3.636,
      "duration": 0.3253,
      "velocity": 112,
      "chip": "ym2612"
    },
    {
      "channel": 3,
      "note": 48,
      "start": 3.8503,
      "duration": 0.6471,
      "velocity": 106,
      "chip": "ym2612"
    },
    {
      "channel": 1,
      "note": 72,
      "start": 3.8524,
      "duration": 0.3213,
      "velocity": 112,
      "chip": "ym2612"
    },
    {
      "channel": 0,
      "note": 77,
      "start": 3.8542,
      "duration": 0.3212,
      "velocity": 112,
      "chip": "ym2612"
    },
    {
      "channel": 5,
      "note": 70,
      "start": 3.9601,
      "duration": 0.3186,
      "velocity": 112,
      "chip": "ym2612"
    },
    {
      "channel": 4,
      "note": 75,
      "start": 3.9619,
      "duration": 0.3185,
      "velocity": 112,
      "chip": "ym2612"
    },
    {
      "channel": 1,
      "note": 75,
      "start": 4.1741,
      "duration": 0.3254,
      "velocity": 112,
      "chip": "ym2612"
    },
    {
      "channel": 0,
      "note": 79,
      "start": 4.1759,
      "duration": 0.3254,
      "velocity": 112,
      "chip": "ym2612"
    },
    {
      "channel": 5,
      "note": 72,
      "start": 4.2792,
      "duration": 0.3254,
      "velocity": 112,
      "chip": "ym2612"
    },
    {
      "channel": 4,
      "note": 77,
      "start": 4.2809,
      "duration": 0.3254,
      "velocity": 112,
      "chip": "ym2612"
    },
    {
      "channel": 3,
      "note": 48,
      "start": 4.4979,
      "duration": 0.3201,
      "velocity": 106,
      "chip": "ym2612"
    },
    {
      "channel": 1,
      "note": 77,
      "start": 4.5,
      "duration": 0.32,
      "velocity": 112,
      "chip": "ym2612"
    },
    {
      "channel": 0,
      "note": 82,
      "start": 4.5018,
      "duration": 0.3201,
      "velocity": 112,
      "chip": "ym2612"
    },
    {
      "channel": 5,
      "note": 75,
      "start": 4.6051,
      "duration": 0.3227,
      "velocity": 112,
      "chip": "ym2612"
    },
    {
      "channel": 4,
      "note": 79,
      "start": 4.6068,
      "duration": 0.3227,
      "velocity": 112,
      "chip": "ym2612"
    },
    {
      "channel": 3,
      "note": 36,
      "start": 4.8185,
      "duration": 0.3314,
      "velocity": 106,
      "chip": "ym2612"
    },
    {
      "channel": 1,
      "note": 79,
      "start": 4.8206,
      "duration": 0.3258,
      "velocity": 112,
      "chip": "ym2612"
    },
    {
      "channel": 0,
      "note": 84,
      "start": 4.8224,
      "duration": 0.3198,
      "velocity": 112,
      "chip": "ym2612"
    },
    {
      "channel": 5,
      "note": 77,
      "start": 4.9283,
      "duration": 0.3273,
      "velocity": 112,
      "chip": "ym2612"
    },
    {
      "channel": 4,
      "note": 82,
      "start": 4.93,
      "duration": 0.3218,
      "velocity": 112,
      "chip": "ym2612"
    },
    {
      "channel": 0,
      "note": 87,
      "start": 5.1427,
      "duration": 0.3288,
      "velocity": 112,
      "chip": "ym2612"
    },
    {
      "channel": 1,
      "note": 82,
      "start": 5.1469,
      "duration": 0.3228,
      "velocity": 112,
      "chip": "ym2612"
    },
    {
      "channel": 3,
      "note": 48,
      "start": 5.1503,
      "duration": 0.3172,
      "velocity": 106,
      "chip": "ym2612"
    },
    {
      "channel": 4,
      "note": 84,
      "start": 5.2524,
      "duration": 0.3267,
      "velocity": 112,
      "chip": "ym2612"
    },
    {
      "channel": 5,
      "note": 79,
      "start": 5.2561,
      "duration": 0.3212,
      "velocity": 112,
      "chip": "ym2612"
    },
    {
      "channel": 3,
      "note": 36,
      "start": 5.4681,
      "duration": 0.3281,
      "velocity": 106,
      "chip": "ym2612"
    },
    {
      "channel": 1,
      "note": 79,
      "start": 5.4702,
      "duration": 0.3212,
      "velocity": 112,
      "chip": "ym2612"
    },
    {
      "channel": 0,
      "note": 84,
      "start": 5.472,
      "duration": 0.3212,
      "velocity": 112,
      "chip": "ym2612"
    },
    {
      "channel": 5,
      "note": 82,
      "start": 5.5778,
      "duration": 0.32,
      "velocity": 112,
      "chip": "ym2612"
    },
    {
      "channel": 4,
      "note": 87,
      "start": 5.5796,
      "duration": 0.3201,
      "velocity": 112,
      "chip": "ym2612"
    },
    {
      "channel": 1,
      "note": 77,
      "start": 5.7919,
      "duration": 0.3255,
      "velocity": 112,
      "chip": "ym2612"
    },
    {
      "channel": 0,
      "note": 82,
      "start": 5.7937,
      "duration": 0.3254,
      "velocity": 112,
      "chip": "ym2612"
    },
    {
      "channel": 3,
      "note": 48,
      "start": 5.7967,
      "duration": 0.6391,
      "velocity": 106,
      "chip": "ym2612"
    },
    {
      "channel": 5,
      "note": 79,
      "start": 5.8984,
      "duration": 0.3241,
      "velocity": 112,
      "chip": "ym2612"
    },
    {
      "channel": 4,
      "note": 84,
      "start": 5.9002,
      "duration": 0.324,
      "velocity": 112,
      "chip": "ym2612"
    },
    {
      "channel": 1,
      "note": 75,
      "start": 6.1179,
      "duration": 0.32,
      "velocity": 112,
      "chip": "ym2612"
    },
    {
      "channel": 0,
      "note": 79,
      "start": 6.1196,
      "duration": 0.3202,
      "velocity": 112,
      "chip": "ym2612"
    },
    {
      "channel": 5,
      "note": 77,
      "start": 6.2229,
      "duration": 0.3227,
      "velocity": 112,
      "chip": "ym2612"
    },
    {
      "channel": 4,
      "note": 82,
      "start": 6.2247,
      "duration": 0.3227,
      "velocity": 112,
      "chip": "ym2612"
    },
    {
      "channel": 3,
      "note": 48,
      "start": 6.4363,
      "duration": 0.6512,
      "velocity": 106,
      "chip": "ym2612"
    },
    {
      "channel": 1,
      "note": 72,
      "start": 6.4385,
      "duration": 0.3253,
      "velocity": 112,
      "chip": "ym2612"
    },
    {
      "channel": 0,
      "note": 77,
      "start": 6.4403,
      "duration": 0.3198,
      "velocity": 112,
      "chip": "ym2612"
    },
    {
      "channel": 5,
      "note": 75,
      "start": 6.5461,
      "duration": 0.324,
      "velocity": 112,
      "chip": "ym2612"
    },
    {
      "channel": 4,
      "note": 79,
      "start": 6.5479,
      "duration": 0.3239,
      "velocity": 112,
      "chip": "ym2612"
    },
    {
      "channel": 0,
      "note": 75,
      "start": 6.7606,
      "duration": 0.3239,
      "velocity": 112,
      "chip": "ym2612"
    },
    {
      "channel": 1,
      "note": 70,
      "start": 6.7643,
      "duration": 0.3254,
      "velocity": 112,
      "chip": "ym2612"
    },
    {
      "channel": 5,
      "note": 72,
      "start": 6.8706,
      "duration": 0.3252,
      "velocity": 112,
      "chip": "ym2612"
    },
    {
      "channel": 4,
      "note": 77,
      "start": 6.8724,
      "duration": 0.3253,
      "velocity": 112,
      "chip": "ym2612"
    },
    {
      "channel": 0,
      "note": 72,
      "start": 7.085,
      "duration": 0.3282,
      "velocity": 112,
      "chip": "ym2612"
    },
    {
      "channel": 3,
      "note": 48,
      "start": 7.088,
      "duration": 0.3212,
      "velocity": 106,
      "chip": "ym2612"
    },
    {
      "channel": 1,
      "note": 67,
      "start": 7.0902,
      "duration": 0.3212,
      "velocity": 112,
      "chip": "ym2612"
    },
    {
      "channel": 5,
      "note": 70,
      "start": 7.1963,
      "duration": 0.3216,
      "velocity": 112,
      "chip": "ym2612"
    },
    {
      "channel": 4,
      "note": 75,
      "start": 7.1981,
      "duration": 0.316,
      "velocity": 112,
      "chip": "ym2612"
    },
    {
      "channel": 3,
      "note": 36,
      "start": 7.4098,
      "duration": 0.331,
      "velocity": 106,
      "chip": "ym2612"
    },
    {
      "channel": 1,
      "note": 65,
      "start": 7.4119,
      "duration": 0.3373,
      "velocity": 112,
      "chip": "ym2612"
    },
    {
      "channel": 0,
      "note": 70,
      "start": 7.4137,
      "duration": 0.3317,
      "velocity": 112,
      "chip": "ym2612"
    },
    {
      "channel": 4,
      "note": 72,
      "start": 7.5146,
      "duration": 0.3266,
      "velocity": 112,
      "chip": "ym2612"
    },
    {
      "channel": 5,
      "note": 67,
      "start": 7.5184,
      "duration": 0.3211,
      "velocity": 112,
      "chip": "ym2612"
    },
    {
      "channel": 3,
      "note": 48,
      "start": 7.7413,
      "duration": 0.3172,
      "velocity": 106,
      "chip": "ym2612"
    },
    {
      "channel": 2,
      "note": 48,
      "start": 7.7432,
      "duration": 2.5783,
      "velocity": 86,
      "chip": "ym2612"
    },
    {
      "channel": 0,
      "note": 72,
      "start": 7.7459,
      "duration": 0.1501,
      "velocity": 112,
      "chip": "ym2612"
    },
    {
      "channel": 1,
      "note": 67,
      "start": 7.7496,
      "duration": 0.1446,
      "velocity": 112,
      "chip": "ym2612"
    },
    {
      "channel": 5,
      "note": 65,
      "start": 7.84,
      "duration": 0.3376,
      "velocity": 112,
      "chip": "ym2612"
    },
    {
      "channel": 4,
      "note": 70,
      "start": 7.8418,
      "duration": 0.3288,
      "velocity": 112,
      "chip": "ym2612"
    },
    {
      "channel": 1,
      "note": 65,
      "start": 7.8947,
      "duration": 0.159,
      "velocity": 112,
      "chip": "ym2612"
    },
    {
      "channel": 0,
      "note": 70,
      "start": 7.8965,
      "duration": 0.159,
      "velocity": 112,
      "chip": "ym2612"
    },
    {
      "channel": 1,
      "note": 67,
      "start": 8.0543,
      "duration": 0.6486,
      "velocity": 112,
      "chip": "ym2612"
    },
    {
      "channel": 0,
      "note": 72,
      "start": 8.0561,
      "duration": 0.6486,
      "velocity": 112,
      "chip": "ym2612"
    },
    {
      "channel": 3,
      "note": 36,
      "start": 8.0591,
      "duration": 0.3202,
      "velocity": 106,
      "chip": "ym2612"
    },
    {
      "channel": 4,
      "note": 72,
      "start": 8.1711,
      "duration": 0.1559,
      "velocity": 112,
      "chip": "ym2612"
    },
    {
      "channel": 5,
      "note": 67,
      "start": 8.1781,
      "duration": 0.1471,
      "velocity": 112,
      "chip": "ym2612"
    },
    {
      "channel": 5,
      "note": 65,
      "start": 8.3257,
      "duration": 0.1632,
      "velocity": 112,
      "chip": "ym2612"
    },
    {
      "channel": 4,
      "note": 70,
      "start": 8.3274,
      "duration": 0.1631,
      "velocity": 112,
      "chip": "ym2612"
    },
    {
      "channel": 3,
      "note": 48,
      "start": 8.3797,
      "duration": 0.6521,
      "velocity": 106,
      "chip": "ym2612"
    },
    {
      "channel": 5,
      "note": 67,
      "start": 8.4893,
      "duration": 0.6442,
      "velocity": 112,
      "chip": "ym2612"
    },
    {
      "channel": 4,
      "note": 72,
      "start": 8.4911,
      "duration": 0.6442,
      "velocity": 112,
      "chip": "ym2612"
    },
    {
      "channel": 1,
      "note": 67,
      "start": 8.7034,
      "duration": 0.3237,
      "velocity": 112,
      "chip": "ym2612"
    },
    {
      "channel": 0,
      "note": 72,
      "start": 8.7052,
      "duration": 0.3237,
      "velocity": 112,
      "chip": "ym2612"
    },
    {
      "channel": 1,
      "note": 70,
      "start": 9.0276,
      "duration": 0.3254,
      "velocity": 112,
      "chip": "ym2612"
    },
    {
      "channel": 0,
      "note": 75,
      "start": 9.0293,
      "duration": 0.3254,
      "velocity": 112,
      "chip": "ym2612"
    },
    {
      "channel": 3,
      "note": 48,
      "start": 9.0324,
      "duration": 0.639,
      "velocity": 106,
      "chip": "ym2612"
    },
    {
      "channel": 5,
      "note": 67,
      "start": 9.1341,
      "duration": 0.3239,
      "velocity": 112,
      "chip": "ym2612"
    },
    {
      "channel": 4,
      "note": 72,
      "start": 9.1358,
      "duration": 0.324,
      "velocity": 112,
      "chip": "ym2612"
    },
    {
      "channel": 1,
      "note": 72,
      "start": 9.3535,
      "duration": 0.32,
      "velocity": 112,
      "chip": "ym2612"
    },
    {
      "channel": 0,
      "note": 77,
      "start": 9.3552,
      "duration": 0.32,
      "velocity": 112,
      "chip": "ym2612"
    },
    {
      "channel": 5,
      "note": 70,
      "start": 9.4585,
      "duration": 0.3228,
      "velocity": 112,
      "chip": "ym2612"
    },
    {
      "channel": 4,
      "note": 75,
      "start": 9.4603,
      "duration": 0.3228,
      "velocity": 112,
      "chip": "ym2612"
    },
    {
      "channel": 3,
      "note": 48,
      "start": 9.6719,
      "duration": 0.3254,
      "velocity": 106,
      "chip": "ym2612"
    },
    {
      "channel": 1,
      "note": 72,
      "start": 9.674,
      "duration": 0.4877,
      "velocity": 112,
      "chip": "ym2612"
    },
    {
      "channel": 0,
      "note": 77,
      "start": 9.6758,
      "duration": 0.4877,
      "velocity": 112,
      "chip": "ym2612"
    },
    {
      "channel": 5,
      "note": 72,
      "start": 9.7818,
      "duration": 0.3252,
      "velocity": 112,
      "chip": "ym2612"
    },
    {
      "channel": 4,
      "note": 77,
      "start": 9.7836,
      "duration": 0.3252,
      "velocity": 112,
      "chip": "ym2612"
    },
    {
      "channel": 3,
      "note": 36,
      "start": 9.9978,
      "duration": 0.3302,
      "velocity": 106,
      "chip": "ym2612"
    },
    {
      "channel": 5,
      "note": 72,
      "start": 10.1075,
      "duration": 0.4842,
      "velocity": 112,
      "chip": "ym2612"
    },
    {
      "channel": 4,
      "note": 77,
      "start": 10.1093,
      "duration": 0.4841,
      "velocity": 112,
      "chip": "ym2612"
    },
    {
      "channel": 1,
      "note": 70,
      "start": 10.1622,
      "duration": 0.161,
      "velocity": 112,
      "chip": "ym2612"
    },
    {
      "channel": 0,
      "note": 75,
      "start": 10.164,
      "duration": 0.161,
      "velocity": 112,
      "chip": "ym2612"
    },
    {
      "channel": 2,
      "note": 48,
      "start": 10.3219,
      "duration": 5.1813,
      "velocity": 86,
      "chip": "ym2612"
    },
    {
      "channel": 1,
      "note": 67,
      "start": 10.3237,
      "duration": 0.3241,
      "velocity": 112,
      "chip": "ym2612"
    },
    {
      "channel": 0,
      "note": 72,
      "start": 10.3255,
      "duration": 0.3242,
      "velocity": 112,
      "chip": "ym2612"
    },
    {
      "channel": 3,
      "note": 48,
      "start": 10.3285,
      "duration": 0.3172,
      "velocity": 106,
      "chip": "ym2612"
    },
    {
      "channel": 5,
      "note": 70,
      "start": 10.5921,
      "duration": 0.1581,
      "velocity": 112,
      "chip": "ym2612"
    },
    {
      "channel": 4,
      "note": 75,
      "start": 10.5939,
      "duration": 0.1581,
      "velocity": 112,
      "chip": "ym2612"
    },
    {
      "channel": 3,
      "note": 36,
      "start": 10.6462,
      "duration": 0.323,
      "velocity": 106,
      "chip": "ym2612"
    },
    {
      "channel": 1,
      "note": 65,
      "start": 10.6483,
      "duration": 0.1567,
      "velocity": 112,
      "chip": "ym2612"
    },
    {
      "channel": 0,
      "note": 72,
      "start": 10.6502,
      "duration": 0.1566,
      "velocity": 112,
      "chip": "ym2612"
    },
    {
      "channel": 5,
      "note": 67,
      "start": 10.7508,
      "duration": 0.3255,
      "velocity": 112,
      "chip": "ym2612"
    },
    {
      "channel": 4,
      "note": 72,
      "start": 10.7526,
      "duration": 0.3255,
      "velocity": 112,
      "chip": "ym2612"
    },
    {
      "channel": 1,
      "note": 67,
      "start": 10.8055,
      "duration": 0.1658,
      "velocity": 112,
      "chip": "ym2612"
    },
    {
      "channel": 0,
      "note": 70,
      "start": 10.8073,
      "duration": 0.1658,
      "velocity": 112,
      "chip": "ym2612"
    },
    {
      "channel": 3,
      "note": 48,
      "start": 10.9697,
      "duration": 0.6491,
      "velocity": 106,
      "chip": "ym2612"
    },
    {
      "channel": 1,
      "note": 67,
      "start": 10.9718,
      "duration": 0.3176,
      "velocity": 112,
      "chip": "ym2612"
    },
    {
      "channel": 0,
      "note": 72,
      "start": 10.9736,
      "duration": 0.1578,
      "velocity": 112,
      "chip": "ym2612"
    },
    {
      "channel": 5,
      "note": 65,
      "start": 11.0768,
      "duration": 0.1631,
      "velocity": 112,
      "chip": "ym2612"
    },
    {
      "channel": 4,
      "note": 72,
      "start": 11.0786,
      "duration": 0.1631,
      "velocity": 112,
      "chip": "ym2612"
    },
    {
      "channel": 0,
      "note": 75,
      "start": 11.1318,
      "duration": 0.1593,
      "velocity": 112,
      "chip": "ym2612"
    },
    {
      "channel": 5,
      "note": 67,
      "start": 11.2404,
      "duration": 0.1593,
      "velocity": 112,
      "chip": "ym2612"
    },
    {
      "channel": 4,
      "note": 70,
      "start": 11.2422,
      "duration": 0.1593,
      "velocity": 112,
      "chip": "ym2612"
    },
    {
      "channel": 1,
      "note": 70,
      "start": 11.2898,
      "duration": 0.3241,
      "velocity": 112,
      "chip": "ym2612"
    },
    {
      "channel": 0,
      "note": 77,
      "start": 11.2916,
      "duration": 0.1632,
      "velocity": 112,
      "chip": "ym2612"
    },
    {
      "channel": 5,
      "note": 67,
      "start": 11.4002,
      "duration": 0.327,
      "velocity": 112,
      "chip": "ym2612"
    },
    {
      "channel": 4,
      "note": 72,
      "start": 11.402,
      "duration": 0.159,
      "velocity": 112,
      "chip": "ym2612"
    },
    {
      "channel": 0,
      "note": 79,
      "start": 11.4553,
      "duration": 0.1605,
      "velocity": 112,
      "chip": "ym2612"
    },
    {
      "channel": 4,
      "note": 75,
      "start": 11.5615,
      "duration": 0.162,
      "velocity": 112,
      "chip": "ym2612"
    },
    {
      "channel": 1,
      "note": 72,
      "start": 11.6145,
      "duration": 0.3256,
      "velocity": 112,
      "chip": "ym2612"
    },
    {
      "channel": 0,
      "note": 77,
      "start": 11.6163,
      "duration": 0.1619,
      "velocity": 112,
      "chip": "ym2612"
    },
    {
      "channel": 3,
      "note": 48,
      "start": 11.6193,
      "duration": 0.6447,
      "velocity": 106,
      "chip": "ym2612"
    },
    {
      "channel": 4,
      "note": 77,
      "start": 11.724,
      "duration": 0.1604,
      "velocity": 112,
      "chip": "ym2612"
    },
    {
      "channel": 5,
      "note": 70,
      "start": 11.7277,
      "duration": 0.32,
      "velocity": 112,
      "chip": "ym2612"
    },
    {
      "channel": 0,
      "note": 79,
      "start": 11.7787,
      "duration": 0.1631,
      "velocity": 112,
      "chip": "ym2612"
    },
    {
      "channel": 4,
      "note": 79,
      "start": 11.8849,
      "duration": 0.1646,
      "velocity": 112,
      "chip": "ym2612"
    },
    {
      "channel": 1,
      "note": 75,
      "start": 11.9405,
      "duration": 0.3256,
      "velocity": 112,
      "chip": "ym2612"
    },
    {
      "channel": 0,
      "note": 82,
      "start": 11.9423,
      "duration": 0.1579,
      "velocity": 112,
      "chip": "ym2612"
    },
    {
      "channel": 5,
      "note": 72,
      "start": 12.0483,
      "duration": 0.3203,
      "velocity": 112,
      "chip": "ym2612"
    },
    {
      "channel": 4,
      "note": 77,
      "start": 12.0501,
      "duration": 0.159,
      "velocity": 112,
      "chip": "ym2612"
    },
    {
      "channel": 0,
      "note": 84,
      "start": 12.1007,
      "duration": 0.1672,
      "velocity": 112,
      "chip": "ym2612"
    },
    {
      "channel": 4,
      "note": 79,
      "start": 12.2096,
      "duration": 0.1607,
      "velocity": 112,
      "chip": "ym2612"
    },
    {
      "channel": 3,
      "note": 48,
      "start": 12.2645,
      "duration": 0.323,
      "velocity": 106,
      "chip": "ym2612"
    },
    {
      "channel": 1,
      "note": 77,
      "start": 12.2666,
      "duration": 0.323,
      "velocity": 112,
      "chip": "ym2612"
    },
    {
      "channel": 0,
      "note": 82,
      "start": 12.2684,
      "duration": 0.1552,
      "velocity": 112,
      "chip": "ym2612"
    },
    {
      "channel": 5,
      "note": 75,
      "start": 12.369,
      "duration": 0.3255,
      "velocity": 112,
      "chip": "ym2612"
    },
    {
      "channel": 4,
      "note": 82,
      "start": 12.3708,
      "duration": 0.1618,
      "velocity": 112,
      "chip": "ym2612"
    },
    {
      "channel": 0,
      "note": 84,
      "start": 12.4241,
      "duration": 0.1673,
      "velocity": 112,
      "chip": "ym2612"
    },
    {
      "channel": 4,
      "note": 84,
      "start": 12.5331,
      "duration": 0.1632,
      "velocity": 112,
      "chip": "ym2612"
    },
    {
      "channel": 3,
      "note": 36,
      "start": 12.588,
      "duration": 0.3261,
      "velocity": 106,
      "chip": "ym2612"
    },
    {
      "channel": 1,
      "note": 79,
      "start": 12.5901,
      "duration": 0.3193,
      "velocity": 112,
      "chip": "ym2612"
    },
    {
      "channel": 0,
      "note": 87,
      "start": 12.5919,
      "duration": 0.1578,
      "velocity": 112,
      "chip": "ym2612"
    },
    {
      "channel": 5,
      "note": 77,
      "start": 12.6951,
      "duration": 0.3234,
      "velocity": 112,
      "chip": "ym2612"
    },
    {
      "channel": 4,
      "note": 82,
      "start": 12.6968,
      "duration": 0.1617,
      "velocity": 112,
      "chip": "ym2612"
    },
    {
      "channel": 0,
      "note": 89,
      "start": 12.7502,
      "duration": 0.1609,
      "velocity": 112,
      "chip": "ym2612"
    },
    {
      "channel": 4,
      "note": 84,
      "start": 12.8591,
      "duration": 0.1612,
      "velocity": 112,
      "chip": "ym2612"
    },
    {
      "channel": 1,
      "note": 82,
      "start": 12.9098,
      "duration": 0.3244,
      "velocity": 112,
      "chip": "ym2612"
    },
    {
      "channel": 0,
      "note": 87,
      "start": 12.9116,
      "duration": 0.162,
      "velocity": 112,
      "chip": "ym2612"
    },
    {
      "channel": 3,
      "note": 48,
      "start": 12.9146,
      "duration": 0.3175,
      "velocity": 106,
      "chip": "ym2612"
    },
    {
      "channel": 5,
      "note": 79,
      "start": 13.019,
      "duration": 0.3229,
      "velocity": 112,
      "chip": "ym2612"
    },
    {
      "channel": 4,
      "note": 87,
      "start": 13.0208,
      "duration": 0.1564,
      "velocity": 112,
      "chip": "ym2612"
    },
    {
      "channel": 0,
      "note": 89,
      "start": 13.0741,
      "duration": 0.162,
      "velocity": 112,
      "chip": "ym2612"
    },
    {
      "channel": 4,
      "note": 89,
      "start": 13.1777,
      "duration": 0.166,
      "velocity": 112,
      "chip": "ym2612"
    },
    {
      "channel": 3,
      "note": 36,
      "start": 13.2327,
      "duration": 0.3284,
      "velocity": 106,
      "chip": "ym2612"
    },
    {
      "channel": 1,
      "note": 79,
      "start": 13.2348,
      "duration": 0.3214,
      "velocity": 112,
      "chip": "ym2612"
    },
    {
      "channel": 0,
      "note": 91,
      "start": 13.2365,
      "duration": 0.1605,
      "velocity": 112,
      "chip": "ym2612"
    },
    {
      "channel": 5,
      "note": 82,
      "start": 13.3424,
      "duration": 0.327,
      "velocity": 112,
      "chip": "ym2612"
    },
    {
      "channel": 4,
      "note": 87,
      "start": 13.3442,
      "duration": 0.1591,
      "velocity": 112,
      "chip": "ym2612"
    },
    {
      "channel": 0,
      "note": 94,
      "start": 13.3975,
      "duration": 0.1605,
      "velocity": 112,
      "chip": "ym2612"
    },
    {
      "channel": 4,
      "note": 89,
      "start": 13.5038,
      "duration": 0.1619,
      "velocity": 112,
      "chip": "ym2612"
    },
    {
      "channel": 1,
      "note": 77,
      "start": 13.5567,
      "duration": 0.3256,
      "velocity": 112,
      "chip": "ym2612"
    },
    {
      "channel": 0,
      "note": 96,
      "start": 13.5585,
      "duration": 0.1592,
      "velocity": 112,
      "chip": "ym2612"
    },
    {
      "channel": 3,
      "note": 48,
      "start": 13.5615,
      "duration": 0.6446,
      "velocity": 106,
      "chip": "ym2612"
    },
    {
      "channel": 4,
      "note": 91,
      "start": 13.6662,
      "duration": 0.1604,
      "velocity": 112,
      "chip": "ym2612"
    },
    {
      "channel": 5,
      "note": 79,
      "start": 13.6699,
      "duration": 0.3174,
      "velocity": 112,
      "chip": "ym2612"
    },
    {
      "channel": 0,
      "note": 94,
      "start": 13.7182,
      "duration": 0.1658,
      "velocity": 112,
      "chip": "ym2612"
    },
    {
      "channel": 4,
      "note": 94,
      "start": 13.8271,
      "duration": 0.162,
      "velocity": 112,
      "chip": "ym2612"
    },
    {
      "channel": 1,
      "note": 75,
      "start": 13.8828,
      "duration": 0.3254,
      "velocity": 112,
      "chip": "ym2612"
    },
    {
      "channel": 0,
      "note": 91,
      "start": 13.8846,
      "duration": 0.1579,
      "velocity": 112,
      "chip": "ym2612"
    },
    {
      "channel": 5,
      "note": 77,
      "start": 13.9878,
      "duration": 0.3228,
      "velocity": 112,
      "chip": "ym2612"
    },
    {
      "channel": 4,
      "note": 96,
      "start": 13.9896,
      "duration": 0.1617,
      "velocity": 112,
      "chip": "ym2612"
    },
    {
      "channel": 0,
      "note": 89,
      "start": 14.0429,
      "duration": 0.1672,
      "velocity": 112,
      "chip": "ym2612"
    },
    {
      "channel": 4,
      "note": 94,
      "start": 14.1518,
      "duration": 0.1605,
      "velocity": 112,
      "chip": "ym2612"
    },
    {
      "channel": 3,
      "note": 48,
      "start": 14.2066,
      "duration": 0.6478,
      "velocity": 106,
      "chip": "ym2612"
    },
    {
      "channel": 1,
      "note": 72,
      "start": 14.2088,
      "duration": 0.3202,
      "velocity": 112,
      "chip": "ym2612"
    },
    {
      "channel": 0,
      "note": 91,
      "start": 14.2106,
      "duration": 0.1551,
      "velocity": 112,
      "chip": "ym2612"
    },
    {
      "channel": 5,
      "note": 75,
      "start": 14.3112,
      "duration": 0.3241,
      "velocity": 112,
      "chip": "ym2612"
    },
    {
      "channel": 4,
      "note": 91,
      "start": 14.3129,
      "duration": 0.1618,
      "velocity": 112,
      "chip": "ym2612"
    },
    {
      "channel": 0,
      "note": 89,
      "start": 14.3663,
      "duration": 0.159,
      "velocity": 112,
      "chip": "ym2612"
    },
    {
      "channel": 4,
      "note": 89,
      "start": 14.4751,
      "duration": 0.1619,
      "velocity": 112,
      "chip": "ym2612"
    },
    {
      "channel": 0,
      "note": 87,
      "start": 14.5258,
      "duration": 0.1646,
      "velocity": 112,
      "chip": "ym2612"
    },
    {
      "channel": 1,
      "note": 70,
      "start": 14.5295,
      "duration": 0.3202,
      "velocity": 112,
      "chip": "ym2612"
    },
    {
      "channel": 5,
      "note": 72,
      "start": 14.6358,
      "duration": 0.3255,
      "velocity": 112,
      "chip": "ym2612"
    },
    {
      "channel": 4,
      "note": 91,
      "start": 14.6376,
      "duration": 0.159,
      "velocity": 112,
      "chip": "ym2612"
    },
    {
      "channel": 0,
      "note": 84,
      "start": 14.6909,
      "duration": 0.1605,
      "velocity": 112,
      "chip": "ym2612"
    },
    {
      "channel": 4,
      "note": 89,
      "start": 14.7971,
      "duration": 0.166,
      "velocity": 112,
      "chip": "ym2612"
    },
    {
      "channel": 1,
      "note": 67,
      "start": 14.8502,
      "duration": 0.3268,
      "velocity": 112,
      "chip": "ym2612"
    },
    {
      "channel": 0,
      "note": 87,
      "start": 14.8519,
      "duration": 0.1645,
      "velocity": 112,
      "chip": "ym2612"
    },
    {
      "channel": 3,
      "note": 48,
      "start": 14.8549,
      "duration": 0.32,
      "velocity": 106,
      "chip": "ym2612"
    },
    {
      "channel": 5,
      "note": 70,
      "start": 14.9618,
      "duration": 0.323,
      "velocity": 112,
      "chip": "ym2612"
    },
    {
      "channel": 4,
      "note": 87,
      "start": 14.9636,
      "duration": 0.1565,
      "velocity": 112,
      "chip": "ym2612"
    },
    {
      "channel": 0,
      "note": 84,
      "start": 15.0169,
      "duration": 0.162,
      "velocity": 112,
      "chip": "ym2612"
    },
    {
      "channel": 4,
      "note": 84,
      "start": 15.1206,
      "duration": 0.1659,
      "velocity": 112,
      "chip": "ym2612"
    },
    {
      "channel": 3,
      "note": 36,
      "start": 15.1754,
      "duration": 0.3325,
      "velocity": 106,
      "chip": "ym2612"
    },
    {
      "channel": 1,
      "note": 65,
      "start": 15.1775,
      "duration": 0.3364,
      "velocity": 112,
      "chip": "ym2612"
    },
    {
      "channel": 0,
      "note": 82,
      "start": 15.1793,
      "duration": 0.1552,
      "velocity": 112,
      "chip": "ym2612"
    },
    {
      "channel": 5,
      "note": 67,
      "start": 15.2853,
      "duration": 0.3204,
      "velocity": 112,
      "chip": "ym2612"
    },
    {
      "channel": 4,
      "note": 87,
      "start": 15.287,
      "duration": 0.159,
      "velocity": 112,
      "chip": "ym2612"
    },
    {
      "channel": 0,
      "note": 79,
      "start": 15.335,
      "duration": 0.1807,
      "velocity": 112,
      "chip": "ym2612"
    },
    {
      "channel": 4,
      "note": 84,
      "start": 15.4465,
      "duration": 0.1609,
      "velocity": 112,
      "chip": "ym2612"
    },
    {
      "channel": 2,
      "note": 48,
      "start": 15.5037,
      "duration": 0.9584,
      "velocity": 86,
      "chip": "ym2612"
    },
    {
      "channel": 3,
      "note": 48,
      "start": 15.5084,
      "duration": 0.315,
      "velocity": 106,
      "chip": "ym2612"
    },
    {
      "channel": 1,
      "note": 67,
      "start": 15.5144,
      "duration": 0.1461,
      "velocity": 112,
      "chip": "ym2612"
    },
    {
      "channel": 0,
      "note": 72,
      "start": 15.5163,
      "duration": 0.1459,
      "velocity": 112,
      "chip": "ym2612"
    },
    {
      "channel": 5,
      "note": 65,
      "start": 15.6062,
      "duration": 0.3369,
      "velocity": 112,
      "chip": "ym2612"
    },
    {
      "channel": 4,
      "note": 82,
      "start": 15.608,
      "duration": 0.1606,
      "velocity": 112,
      "chip": "ym2612"
    },
    {
      "channel": 1,
      "note": 65,
      "start": 15.6609,
      "duration": 0.1646,
      "velocity": 112,
      "chip": "ym2612"
    },
    {
      "channel": 0,
      "note": 70,
      "start": 15.6627,
      "duration": 0.1647,
      "velocity": 112,
      "chip": "ym2612"
    },
    {
      "channel": 4,
      "note": 79,
      "start": 15.769,
      "duration": 0.1703,
      "velocity": 112,
      "chip": "ym2612"
    },
    {
      "channel": 3,
      "note": 36,
      "start": 15.8239,
      "duration": 0.3207,
      "velocity": 106,
      "chip": "ym2612"
    },
    {
      "channel": 1,
      "note": 67,
      "start": 15.8261,
      "duration": 0.636,
      "velocity": 112,
      "chip": "ym2612"
    },
    {
      "channel": 0,
      "note": 72,
      "start": 15.8279,
      "duration": 0.6342,
      "velocity": 112,
      "chip": "ym2612"
    },
    {
      "channel": 4,
      "note": 72,
      "start": 15.9398,
      "duration": 0.1552,
      "velocity": 112,
      "chip": "ym2612"
    },
    {
      "channel": 5,
      "note": 67,
      "start": 15.9436,
      "duration": 0.1497,
      "velocity": 112,
      "chip": "ym2612"
    },
    {
      "channel": 5,
      "note": 65,
      "start": 16.0938,
      "duration": 0.1604,
      "velocity": 112,
      "chip": "ym2612"
    },
    {
      "channel": 4,
      "note": 70,
      "start": 16.0955,
      "duration": 0.1604,
      "velocity": 112,
      "chip": "ym2612"
    },
    {
      "channel": 3,
      "note": 48,
      "start": 16.1451,
      "duration": 0.317,
      "velocity": 106,
      "chip": "ym2612"
    },
    {
      "channel": 5,
      "note": 67,
      "start": 16.2547,
      "duration": 0.2074,
      "velocity": 112,
      "chip": "ym2612"
    },
    {
      "channel": 4,
      "note": 72,
      "start": 16.2565,
      "duration": 0.2056,
      "velocity": 112,
      "chip": "ym2612"
    }
  ]
}