{
  "track_name": "04 - The Pond",
  "duration_sec": 75.504,
  "sample_rate": 44100,
  "note_count": 1760,
  "unique_pitches": 32,
  "pitch_range": 59,
  "avg_note_duration": 0.1946,
  "reconstruction_stats": {
    "notes_reconstructed": 1760,
    "keyon_events": 1760,
    "keyoff_events": 1759,
    "orphan_keyons": 1,
    "unique_pitches": 32,
    "pitch_range": 59,
    "avg_duration_sec": 0.1946
  },
  "metadata": {
    "source": "M\\Mamono Hunter Youko\\04 - The Pond.vgz"
  },
  "notes": [
    {
      "channel": 0,
      "note": 52,
      "start": 0.0,
      "duration": 0.0,
      "velocity": 85,
      "chip": "ym2612"
    },
    {
      "channel": 0,
      "note": 59,
      "start": 0.0,
      "duration": 0.0101,
      "velocity": 85,
      "chip": "ym2612"
    },
    {
      "channel": 1,
      "note": 90,
      "start": 0.0,
      "duration": 0.0106,
      "velocity": 1,
      "chip": "ym2612"
    },
    {
      "channel": 2,
      "note": 83,
      "start": 0.0,
      "duration": 0.0,
      "velocity": 99,
      "chip": "ym2612"
    },
    {
      "channel": 3,
      "note": 76,
      "start": 0.0,
      "duration": 0.0,
      "velocity": 89,
      "chip": "ym2612"
    },
    {
      "channel": 3,
      "note": 81,
      "start": 0.0,
      "duration": 0.0117,
      "velocity": 89,
      "chip": "ym2612"
    },
    {
      "channel": 5,
      "note": 38,
      "start": 0.0,
      "duration": 0.0,
      "velocity": 117,
      "chip": "ym2612"
    },
    {
      "channel": 5,
      "note": 55,
      "start": 0.0,
      "duration": 0.0089,
      "velocity": 117,
      "chip": "ym2612"
    },
    {
      "channel": 2,
      "note": 81,
      "start": 0.0088,
      "duration": 0.0023,
      "velocity": 99,
      "chip": "ym2612"
    },
    {
      "channel": 5,
      "note": 55,
      "start": 0.0089,
      "duration": 0.0039,
      "velocity": 117,
      "chip": "ym2612"
    },
    {
      "channel": 0,
      "note": 50,
      "start": 0.0475,
      "duration": 0.075,
      "velocity": 85,
      "chip": "ym2612"
    },
    {
      "channel": 3,
      "note": 83,
      "start": 0.0476,
      "duration": 0.075,
      "velocity": 89,
      "chip": "ym2612"
    },
    {
      "channel": 5,
      "note": 55,
      "start": 0.0477,
      "duration": 0.0984,
      "velocity": 117,
      "chip": "ym2612"
    },
    {
      "channel": 0,
      "note": 52,
      "start": 0.146,
      "duration": 0.2985,
      "velocity": 85,
      "chip": "ym2612"
    },
    {
      "channel": 3,
      "note": 83,
      "start": 0.1461,
      "duration": 0.0944,
      "velocity": 89,
      "chip": "ym2612"
    },
    {
      "channel": 5,
      "note": 55,
      "start": 0.1462,
      "duration": 0.2356,
      "velocity": 125,
      "chip": "ym2612"
    },
    {
      "channel": 2,
      "note": 81,
      "start": 0.2618,
      "duration": 0.0966,
      "velocity": 99,
      "chip": "ym2612"
    },
    {
      "channel": 3,
      "note": 80,
      "start": 0.2618,
      "duration": 0.2013,
      "velocity": 89,
      "chip": "ym2612"
    },
    {
      "channel": 2,
      "note": 83,
      "start": 0.3817,
      "duration": 0.0965,
      "velocity": 99,
      "chip": "ym2612"
    },
    {
      "channel": 5,
      "note": 49,
      "start": 0.3818,
      "duration": 0.1182,
      "velocity": 125,
      "chip": "ym2612"
    },
    {
      "channel": 4,
      "note": 81,
      "start": 0.4632,
      "duration": 0.0992,
      "velocity": 99,
      "chip": "ym2612"
    },
    {
      "channel": 0,
      "note": 52,
      "start": 0.4999,
      "duration": 0.1976,
      "velocity": 85,
      "chip": "ym2612"
    },
    {
      "channel": 3,
      "note": 76,
      "start": 0.5,
      "duration": 0.1976,
      "velocity": 89,
      "chip": "ym2612"
    },
    {
      "channel": 5,
      "note": 38,
      "start": 0.5001,
      "duration": 0.236,
      "velocity": 117,
      "chip": "ym2612"
    },
    {
      "channel": 4,
      "note": 83,
      "start": 0.5802,
      "duration": 0.1002,
      "velocity": 99,
      "chip": "ym2612"
    },
    {
      "channel": 2,
      "note": 83,
      "start": 0.6139,
      "duration": 0.1001,
      "velocity": 99,
      "chip": "ym2612"
    },
    {
      "channel": 0,
      "note": 59,
      "start": 0.7359,
      "duration": 0.3976,
      "velocity": 85,
      "chip": "ym2612"
    },
    {
      "channel": 3,
      "note": 81,
      "start": 0.736,
      "duration": 0.1975,
      "velocity": 89,
      "chip": "ym2612"
    },
    {
      "channel": 5,
      "note": 55,
      "start": 0.7361,
      "duration": 0.1176,
      "velocity": 117,
      "chip": "ym2612"
    },
    {
      "channel": 4,
      "note": 83,
      "start": 0.8162,
      "duration": 0.1001,
      "velocity": 99,
      "chip": "ym2612"
    },
    {
      "channel": 2,
      "note": 83,
      "start": 0.8536,
      "duration": 0.0964,
      "velocity": 99,
      "chip": "ym2612"
    },
    {
      "channel": 5,
      "note": 55,
      "start": 0.8538,
      "duration": 0.2337,
      "velocity": 125,
      "chip": "ym2612"
    },
    {
      "channel": 2,
      "note": 86,
      "start": 0.9687,
      "duration": 0.2005,
      "velocity": 99,
      "chip": "ym2612"
    },
    {
      "channel": 3,
      "note": 71,
      "start": 0.9688,
      "duration": 0.2005,
      "velocity": 89,
      "chip": "ym2612"
    },
    {
      "channel": 4,
      "note": 83,
      "start": 1.0515,
      "duration": 0.0988,
      "velocity": 99,
      "chip": "ym2612"
    },
    {
      "channel": 5,
      "note": 38,
      "start": 1.0875,
      "duration": 0.12,
      "velocity": 127,
      "chip": "ym2612"
    },
    {
      "channel": 4,
      "note": 86,
      "start": 1.1693,
      "duration": 0.2017,
      "velocity": 99,
      "chip": "ym2612"
    },
    {
      "channel": 0,
      "note": 57,
      "start": 1.2073,
      "duration": 0.1971,
      "velocity": 85,
      "chip": "ym2612"
    },
    {
      "channel": 2,
      "note": 85,
      "start": 1.2073,
      "duration": 0.0946,
      "velocity": 99,
      "chip": "ym2612"
    },
    {
      "channel": 3,
      "note": 74,
      "start": 1.2075,
      "duration": 0.197,
      "velocity": 89,
      "chip": "ym2612"
    },
    {
      "channel": 5,
      "note": 44,
      "start": 1.2075,
      "duration": 0.1151,
      "velocity": 127,
      "chip": "ym2612"
    },
    {
      "channel": 5,
      "note": 44,
      "start": 1.3227,
      "duration": 0.1225,
      "velocity": 125,
      "chip": "ym2612"
    },
    {
      "channel": 2,
      "note": 88,
      "start": 1.3709,
      "duration": 0.0493,
      "velocity": 99,
      "chip": "ym2612"
    },
    {
      "channel": 4,
      "note": 85,
      "start": 1.4045,
      "duration": 0.0997,
      "velocity": 99,
      "chip": "ym2612"
    },
    {
      "channel": 0,
      "note": 57,
      "start": 1.445,
      "duration": 0.0931,
      "velocity": 85,
      "chip": "ym2612"
    },
    {
      "channel": 2,
      "note": 86,
      "start": 1.4451,
      "duration": 0.0931,
      "velocity": 99,
      "chip": "ym2612"
    },
    {
      "channel": 3,
      "note": 78,
      "start": 1.4451,
      "duration": 0.1951,
      "velocity": 89,
      "chip": "ym2612"
    },
    {
      "channel": 5,
      "note": 49,
      "start": 1.4452,
      "duration": 0.1173,
      "velocity": 125,
      "chip": "ym2612"
    },
    {
      "channel": 0,
      "note": 59,
      "start": 1.5624,
      "duration": 0.0938,
      "velocity": 85,
      "chip": "ym2612"
    },
    {
      "channel": 2,
      "note": 85,
      "start": 1.5624,
      "duration": 0.0938,
      "velocity": 99,
      "chip": "ym2612"
    },
    {
      "channel": 5,
      "note": 57,
      "start": 1.5625,
      "duration": 0.1185,
      "velocity": 117,
      "chip": "ym2612"
    },
    {
      "channel": 4,
      "note": 88,
      "start": 1.5729,
      "duration": 0.0495,
      "velocity": 99,
      "chip": "ym2612"
    },
    {
      "channel": 4,
      "note": 86,
      "start": 1.6403,
      "duration": 0.0999,
      "velocity": 99,
      "chip": "ym2612"
    },
    {
      "channel": 0,
      "note": 59,
      "start": 1.6808,
      "duration": 0.1974,
      "velocity": 85,
      "chip": "ym2612"
    },
    {
      "channel": 2,
      "note": 83,
      "start": 1.6809,
      "duration": 0.1974,
      "velocity": 99,
      "chip": "ym2612"
    },
    {
      "channel": 3,
      "note": 74,
      "start": 1.681,
      "duration": 0.1973,
      "velocity": 89,
      "chip": "ym2612"
    },
    {
      "channel": 5,
      "note": 55,
      "start": 1.681,
      "duration": 0.2374,
      "velocity": 117,
      "chip": "ym2612"
    },
    {
      "channel": 4,
      "note": 85,
      "start": 1.7582,
      "duration": 0.1001,
      "velocity": 99,
      "chip": "ym2612"
    },
    {
      "channel": 4,
      "note": 83,
      "start": 1.8784,
      "duration": 0.201,
      "velocity": 99,
      "chip": "ym2612"
    },
    {
      "channel": 0,
      "note": 50,
      "start": 1.9183,
      "duration": 0.0917,
      "velocity": 85,
      "chip": "ym2612"
    },
    {
      "channel": 3,
      "note": 83,
      "start": 1.9184,
      "duration": 0.0917,
      "velocity": 89,
      "chip": "ym2612"
    },
    {
      "channel": 5,
      "note": 55,
      "start": 1.9185,
      "duration": 0.115,
      "velocity": 117,
      "chip": "ym2612"
    },
    {
      "channel": 0,
      "note": 52,
      "start": 2.0333,
      "duration": 0.2988,
      "velocity": 85,
      "chip": "ym2612"
    },
    {
      "channel": 3,
      "note": 83,
      "start": 2.0335,
      "duration": 0.0964,
      "velocity": 89,
      "chip": "ym2612"
    },
    {
      "channel": 5,
      "note": 55,
      "start": 2.0336,
      "duration": 0.2356,
      "velocity": 125,
      "chip": "ym2612"
    },
    {
      "channel": 2,
      "note": 81,
      "start": 2.1483,
      "duration": 0.0994,
      "velocity": 99,
      "chip": "ym2612"
    },
    {
      "channel": 3,
      "note": 80,
      "start": 2.1484,
      "duration": 0.2017,
      "velocity": 89,
      "chip": "ym2612"
    },
    {
      "channel": 2,
      "note": 83,
      "start": 2.2691,
      "duration": 0.0968,
      "velocity": 99,
      "chip": "ym2612"
    },
    {
      "channel": 5,
      "note": 49,
      "start": 2.2692,
      "duration": 0.1186,
      "velocity": 125,
      "chip": "ym2612"
    },
    {
      "channel": 4,
      "note": 81,
      "start": 2.3501,
      "duration": 0.0999,
      "velocity": 99,
      "chip": "ym2612"
    },
    {
      "channel": 0,
      "note": 52,
      "start": 2.3876,
      "duration": 0.1964,
      "velocity": 85,
      "chip": "ym2612"
    },
    {
      "channel": 3,
      "note": 76,
      "start": 2.3877,
      "duration": 0.1963,
      "velocity": 89,
      "chip": "ym2612"
    },
    {
      "channel": 5,
      "note": 38,
      "start": 2.3879,
      "duration": 0.2343,
      "velocity": 117,
      "chip": "ym2612"
    },
    {
      "channel": 4,
      "note": 83,
      "start": 2.4677,
      "duration": 0.0992,
      "velocity": 99,
      "chip": "ym2612"
    },
    {
      "channel": 2,
      "note": 83,
      "start": 2.5011,
      "duration": 0.0991,
      "velocity": 99,
      "chip": "ym2612"
    },
    {
      "channel": 0,
      "note": 59,
      "start": 2.622,
      "duration": 0.3993,
      "velocity": 85,
      "chip": "ym2612"
    },
    {
      "channel": 3,
      "note": 81,
      "start": 2.6222,
      "duration": 0.197,
      "velocity": 89,
      "chip": "ym2612"
    },
    {
      "channel": 5,
      "note": 55,
      "start": 2.6222,
      "duration": 0.1174,
      "velocity": 117,
      "chip": "ym2612"
    },
    {
      "channel": 4,
      "note": 83,
      "start": 2.7025,
      "duration": 0.0995,
      "velocity": 99,
      "chip": "ym2612"
    },
    {
      "channel": 2,
      "note": 83,
      "start": 2.7395,
      "duration": 0.0962,
      "velocity": 99,
      "chip": "ym2612"
    },
    {
      "channel": 5,
      "note": 55,
      "start": 2.7396,
      "duration": 0.2345,
      "velocity": 125,
      "chip": "ym2612"
    },
    {
      "channel": 2,
      "note": 86,
      "start": 2.8545,
      "duration": 0.2015,
      "velocity": 99,
      "chip": "ym2612"
    },
    {
      "channel": 3,
      "note": 71,
      "start": 2.8545,
      "duration": 0.2015,
      "velocity": 89,
      "chip": "ym2612"
    },
    {
      "channel": 4,
      "note": 83,
      "start": 2.9379,
      "duration": 0.1,
      "velocity": 99,
      "chip": "ym2612"
    },
    {
      "channel": 5,
      "note": 38,
      "start": 2.9742,
      "duration": 0.1223,
      "velocity": 127,
      "chip": "ym2612"
    },
    {
      "channel": 4,
      "note": 86,
      "start": 3.0561,
      "duration": 0.2025,
      "velocity": 99,
      "chip": "ym2612"
    },
    {
      "channel": 0,
      "note": 57,
      "start": 3.0963,
      "duration": 0.1955,
      "velocity": 85,
      "chip": "ym2612"
    },
    {
      "channel": 2,
      "note": 85,
      "start": 3.0964,
      "duration": 0.0933,
      "velocity": 99,
      "chip": "ym2612"
    },
    {
      "channel": 3,
      "note": 74,
      "start": 3.0964,
      "duration": 0.1955,
      "velocity": 89,
      "chip": "ym2612"
    },
    {
      "channel": 5,
      "note": 44,
      "start": 3.0966,
      "duration": 0.1156,
      "velocity": 127,
      "chip": "ym2612"
    },
    {
      "channel": 5,
      "note": 44,
      "start": 3.2122,
      "duration": 0.1204,
      "velocity": 125,
      "chip": "ym2612"
    },
    {
      "channel": 2,
      "note": 88,
      "start": 3.2585,
      "duration": 0.049,
      "velocity": 99,
      "chip": "ym2612"
    },
    {
      "channel": 4,
      "note": 85,
      "start": 3.292,
      "duration": 0.1,
      "velocity": 99,
      "chip": "ym2612"
    },
    {
      "channel": 0,
      "note": 57,
      "start": 3.3324,
      "duration": 0.0954,
      "velocity": 85,
      "chip": "ym2612"
    },
    {
      "channel": 2,
      "note": 86,
      "start": 3.3325,
      "duration": 0.0954,
      "velocity": 99,
      "chip": "ym2612"
    },
    {
      "channel": 3,
      "note": 78,
      "start": 3.3326,
      "duration": 0.197,
      "velocity": 89,
      "chip": "ym2612"
    },
    {
      "channel": 5,
      "note": 49,
      "start": 3.3327,
      "duration": 0.1173,
      "velocity": 125,
      "chip": "ym2612"
    },
    {
      "channel": 0,
      "note": 59,
      "start": 3.4498,
      "duration": 0.0958,
      "velocity": 85,
      "chip": "ym2612"
    },
    {
      "channel": 2,
      "note": 85,
      "start": 3.4499,
      "duration": 0.0958,
      "velocity": 99,
      "chip": "ym2612"
    },
    {
      "channel": 5,
      "note": 57,
      "start": 3.4501,
      "duration": 0.1185,
      "velocity": 117,
      "chip": "ym2612"
    },
    {
      "channel": 4,
      "note": 88,
      "start": 3.4622,
      "duration": 0.0476,
      "velocity": 99,
      "chip": "ym2612"
    },
    {
      "channel": 4,
      "note": 86,
      "start": 3.5297,
      "duration": 0.1001,
      "velocity": 99,
      "chip": "ym2612"
    },
    {
      "channel": 0,
      "note": 59,
      "start": 3.5683,
      "duration": 0.1973,
      "velocity": 85,
      "chip": "ym2612"
    },
    {
      "channel": 2,
      "note": 83,
      "start": 3.5684,
      "duration": 0.1973,
      "velocity": 99,
      "chip": "ym2612"
    },
    {
      "channel": 3,
      "note": 74,
      "start": 3.5685,
      "duration": 0.1973,
      "velocity": 89,
      "chip": "ym2612"
    },
    {
      "channel": 5,
      "note": 55,
      "start": 3.5686,
      "duration": 0.2376,
      "velocity": 117,
      "chip": "ym2612"
    },
    {
      "channel": 4,
      "note": 85,
      "start": 3.6476,
      "duration": 0.1001,
      "velocity": 99,
      "chip": "ym2612"
    },
    {
      "channel": 4,
      "note": 83,
      "start": 3.7659,
      "duration": 0.2008,
      "velocity": 99,
      "chip": "ym2612"
    },
    {
      "channel": 0,
      "note": 50,
      "start": 3.8061,
      "duration": 0.0935,
      "velocity": 85,
      "chip": "ym2612"
    },
    {
      "channel": 3,
      "note": 83,
      "start": 3.8061,
      "duration": 0.0936,
      "velocity": 89,
      "chip": "ym2612"
    },
    {
      "channel": 5,
      "note": 55,
      "start": 3.8062,
      "duration": 0.1147,
      "velocity": 117,
      "chip": "ym2612"
    },
    {
      "channel": 0,
      "note": 52,
      "start": 3.9208,
      "duration": 0.2975,
      "velocity": 85,
      "chip": "ym2612"
    },
    {
      "channel": 3,
      "note": 83,
      "start": 3.9209,
      "duration": 0.0966,
      "velocity": 89,
      "chip": "ym2612"
    },
    {
      "channel": 5,
      "note": 55,
      "start": 3.921,
      "duration": 0.234,
      "velocity": 125,
      "chip": "ym2612"
    },
    {
      "channel": 2,
      "note": 81,
      "start": 4.0353,
      "duration": 0.0985,
      "velocity": 99,
      "chip": "ym2612"
    },
    {
      "channel": 3,
      "note": 80,
      "start": 4.0353,
      "duration": 0.2006,
      "velocity": 89,
      "chip": "ym2612"
    },
    {
      "channel": 2,
      "note": 83,
      "start": 4.1549,
      "duration": 0.0968,
      "velocity": 99,
      "chip": "ym2612"
    },
    {
      "channel": 5,
      "note": 49,
      "start": 4.155,
      "duration": 0.1185,
      "velocity": 125,
      "chip": "ym2612"
    },
    {
      "channel": 4,
      "note": 81,
      "start": 4.2359,
      "duration": 0.0997,
      "velocity": 99,
      "chip": "ym2612"
    },
    {
      "channel": 0,
      "note": 52,
      "start": 4.2733,
      "duration": 0.1976,
      "velocity": 85,
      "chip": "ym2612"
    },
    {
      "channel": 3,
      "note": 76,
      "start": 4.2734,
      "duration": 0.1976,
      "velocity": 89,
      "chip": "ym2612"
    },
    {
      "channel": 5,
      "note": 38,
      "start": 4.2735,
      "duration": 0.2358,
      "velocity": 117,
      "chip": "ym2612"
    },
    {
      "channel": 4,
      "note": 83,
      "start": 4.3534,
      "duration": 0.1002,
      "velocity": 99,
      "chip": "ym2612"
    },
    {
      "channel": 2,
      "note": 83,
      "start": 4.3873,
      "duration": 0.1001,
      "velocity": 99,
      "chip": "ym2612"
    },
    {
      "channel": 0,
      "note": 59,
      "start": 4.5092,
      "duration": 0.3995,
      "velocity": 85,
      "chip": "ym2612"
    },
    {
      "channel": 3,
      "note": 81,
      "start": 4.5093,
      "duration": 0.1975,
      "velocity": 89,
      "chip": "ym2612"
    },
    {
      "channel": 5,
      "note": 55,
      "start": 4.5094,
      "duration": 0.1194,
      "velocity": 117,
      "chip": "ym2612"
    },
    {
      "channel": 4,
      "note": 83,
      "start": 4.5895,
      "duration": 0.1001,
      "velocity": 99,
      "chip": "ym2612"
    },
    {
      "channel": 2,
      "note": 83,
      "start": 4.6288,
      "duration": 0.0947,
      "velocity": 99,
      "chip": "ym2612"
    },
    {
      "channel": 5,
      "note": 55,
      "start": 4.6289,
      "duration": 0.2347,
      "velocity": 125,
      "chip": "ym2612"
    },
    {
      "channel": 2,
      "note": 86,
      "start": 4.7426,
      "duration": 0.2027,
      "velocity": 99,
      "chip": "ym2612"
    },
    {
      "channel": 3,
      "note": 71,
      "start": 4.7427,
      "duration": 0.2027,
      "velocity": 89,
      "chip": "ym2612"
    },
    {
      "channel": 4,
      "note": 83,
      "start": 4.8258,
      "duration": 0.1001,
      "velocity": 99,
      "chip": "ym2612"
    },
    {
      "channel": 5,
      "note": 38,
      "start": 4.8637,
      "duration": 0.1205,
      "velocity": 127,
      "chip": "ym2612"
    },
    {
      "channel": 4,
      "note": 86,
      "start": 4.9454,
      "duration": 0.2027,
      "velocity": 99,
      "chip": "ym2612"
    },
    {
      "channel": 0,
      "note": 57,
      "start": 4.9839,
      "duration": 0.1976,
      "velocity": 85,
      "chip": "ym2612"
    },
    {
      "channel": 2,
      "note": 85,
      "start": 4.984,
      "duration": 0.0952,
      "velocity": 99,
      "chip": "ym2612"
    },
    {
      "channel": 3,
      "note": 74,
      "start": 4.9841,
      "duration": 0.1975,
      "velocity": 89,
      "chip": "ym2612"
    },
    {
      "channel": 5,
      "note": 44,
      "start": 4.9842,
      "duration": 0.1155,
      "velocity": 127,
      "chip": "ym2612"
    },
    {
      "channel": 5,
      "note": 44,
      "start": 5.0997,
      "duration": 0.1205,
      "velocity": 125,
      "chip": "ym2612"
    },
    {
      "channel": 2,
      "note": 88,
      "start": 5.148,
      "duration": 0.049,
      "velocity": 99,
      "chip": "ym2612"
    },
    {
      "channel": 4,
      "note": 85,
      "start": 5.1816,
      "duration": 0.0999,
      "velocity": 99,
      "chip": "ym2612"
    },
    {
      "channel": 0,
      "note": 57,
      "start": 5.2199,
      "duration": 0.0952,
      "velocity": 85,
      "chip": "ym2612"
    },
    {
      "channel": 2,
      "note": 86,
      "start": 5.22,
      "duration": 0.0952,
      "velocity": 99,
      "chip": "ym2612"
    },
    {
      "channel": 3,
      "note": 78,
      "start": 5.2201,
      "duration": 0.1971,
      "velocity": 89,
      "chip": "ym2612"
    },
    {
      "channel": 5,
      "note": 49,
      "start": 5.2202,
      "duration": 0.1174,
      "velocity": 125,
      "chip": "ym2612"
    },
    {
      "channel": 0,
      "note": 59,
      "start": 5.3374,
      "duration": 0.0957,
      "velocity": 85,
      "chip": "ym2612"
    },
    {
      "channel": 2,
      "note": 85,
      "start": 5.3375,
      "duration": 0.0957,
      "velocity": 99,
      "chip": "ym2612"
    },
    {
      "channel": 5,
      "note": 57,
      "start": 5.3376,
      "duration": 0.1186,
      "velocity": 117,
      "chip": "ym2612"
    },
    {
      "channel": 4,
      "note": 88,
      "start": 5.3498,
      "duration": 0.0496,
      "velocity": 99,
      "chip": "ym2612"
    },
    {
      "channel": 4,
      "note": 86,
      "start": 5.4173,
      "duration": 0.1,
      "velocity": 99,
      "chip": "ym2612"
    },
    {
      "channel": 0,
      "note": 59,
      "start": 5.456,
      "duration": 0.1956,
      "velocity": 85,
      "chip": "ym2612"
    },
    {
      "channel": 2,
      "note": 83,
      "start": 5.4561,
      "duration": 0.1956,
      "velocity": 99,
      "chip": "ym2612"
    },
    {
      "channel": 3,
      "note": 74,
      "start": 5.4561,
      "duration": 0.1956,
      "velocity": 89,
      "chip": "ym2612"
    },
    {
      "channel": 5,
      "note": 55,
      "start": 5.4562,
      "duration": 0.2354,
      "velocity": 117,
      "chip": "ym2612"
    },
    {
      "channel": 4,
      "note": 85,
      "start": 5.5346,
      "duration": 0.0991,
      "velocity": 99,
      "chip": "ym2612"
    },
    {
      "channel": 4,
      "note": 83,
      "start": 5.6518,
      "duration": 0.2006,
      "velocity": 99,
      "chip": "ym2612"
    },
    {
      "channel": 0,
      "note": 50,
      "start": 5.6915,
      "duration": 0.0938,
      "velocity": 85,
      "chip": "ym2612"
    },
    {
      "channel": 3,
      "note": 83,
      "start": 5.6916,
      "duration": 0.0937,
      "velocity": 89,
      "chip": "ym2612"
    },
    {
      "channel": 5,
      "note": 55,
      "start": 5.6917,
      "duration": 0.1149,
      "velocity": 117,
      "chip": "ym2612"
    },
    {
      "channel": 0,
      "note": 52,
      "start": 5.8065,
      "duration": 0.2988,
      "velocity": 85,
      "chip": "ym2612"
    },
    {
      "channel": 3,
      "note": 83,
      "start": 5.8066,
      "duration": 0.0965,
      "velocity": 89,
      "chip": "ym2612"
    },
    {
      "channel": 5,
      "note": 55,
      "start": 5.8067,
      "duration": 0.2377,
      "velocity": 125,
      "chip": "ym2612"
    },
    {
      "channel": 2,
      "note": 81,
      "start": 5.9215,
      "duration": 0.0998,
      "velocity": 99,
      "chip": "ym2612"
    },
    {
      "channel": 3,
      "note": 80,
      "start": 5.9216,
      "duration": 0.2017,
      "velocity": 89,
      "chip": "ym2612"
    },
    {
      "channel": 2,
      "note": 83,
      "start": 6.0428,
      "duration": 0.0962,
      "velocity": 99,
      "chip": "ym2612"
    },
    {
      "channel": 5,
      "note": 49,
      "start": 6.0444,
      "duration": 0.1184,
      "velocity": 125,
      "chip": "ym2612"
    },
    {
      "channel": 4,
      "note": 81,
      "start": 6.1234,
      "duration": 0.0999,
      "velocity": 99,
      "chip": "ym2612"
    },
    {
      "channel": 0,
      "note": 52,
      "start": 6.1626,
      "duration": 0.1959,
      "velocity": 85,
      "chip": "ym2612"
    },
    {
      "channel": 3,
      "note": 76,
      "start": 6.1627,
      "duration": 0.1958,
      "velocity": 89,
      "chip": "ym2612"
    },
    {
      "channel": 5,
      "note": 38,
      "start": 6.1629,
      "duration": 0.2359,
      "velocity": 117,
      "chip": "ym2612"
    },
    {
      "channel": 4,
      "note": 83,
      "start": 6.241,
      "duration": 0.1003,
      "velocity": 99,
      "chip": "ym2612"
    },
    {
      "channel": 2,
      "note": 83,
      "start": 6.2748,
      "duration": 0.1002,
      "velocity": 99,
      "chip": "ym2612"
    },
    {
      "channel": 0,
      "note": 59,
      "start": 6.3987,
      "duration": 0.3994,
      "velocity": 85,
      "chip": "ym2612"
    },
    {
      "channel": 3,
      "note": 81,
      "start": 6.3987,
      "duration": 0.1976,
      "velocity": 89,
      "chip": "ym2612"
    },
    {
      "channel": 5,
      "note": 55,
      "start": 6.3989,
      "duration": 0.1176,
      "velocity": 117,
      "chip": "ym2612"
    },
    {
      "channel": 4,
      "note": 83,
      "start": 6.4791,
      "duration": 0.1,
      "velocity": 99,
      "chip": "ym2612"
    },
    {
      "channel": 2,
      "note": 83,
      "start": 6.5164,
      "duration": 0.0964,
      "velocity": 99,
      "chip": "ym2612"
    },
    {
      "channel": 5,
      "note": 55,
      "start": 6.5166,
      "duration": 0.2347,
      "velocity": 125,
      "chip": "ym2612"
    },
    {
      "channel": 2,
      "note": 86,
      "start": 6.6316,
      "duration": 0.2015,
      "velocity": 99,
      "chip": "ym2612"
    },
    {
      "channel": 3,
      "note": 71,
      "start": 6.6316,
      "duration": 0.2015,
      "velocity": 89,
      "chip": "ym2612"
    },
    {
      "channel": 4,
      "note": 83,
      "start": 6.715,
      "duration": 0.1,
      "velocity": 99,
      "chip": "ym2612"
    },
    {
      "channel": 5,
      "note": 38,
      "start": 6.7513,
      "duration": 0.1204,
      "velocity": 127,
      "chip": "ym2612"
    },
    {
      "channel": 4,
      "note": 86,
      "start": 6.8332,
      "duration": 0.202,
      "velocity": 99,
      "chip": "ym2612"
    },
    {
      "channel": 0,
      "note": 57,
      "start": 6.8715,
      "duration": 0.1964,
      "velocity": 85,
      "chip": "ym2612"
    },
    {
      "channel": 2,
      "note": 85,
      "start": 6.8716,
      "duration": 0.095,
      "velocity": 99,
      "chip": "ym2612"
    },
    {
      "channel": 3,
      "note": 74,
      "start": 6.8716,
      "duration": 0.1964,
      "velocity": 89,
      "chip": "ym2612"
    },
    {
      "channel": 5,
      "note": 44,
      "start": 6.8718,
      "duration": 0.1154,
      "velocity": 127,
      "chip": "ym2612"
    },
    {
      "channel": 5,
      "note": 44,
      "start": 6.9872,
      "duration": 0.1193,
      "velocity": 125,
      "chip": "ym2612"
    },
    {
      "channel": 2,
      "note": 88,
      "start": 7.0351,
      "duration": 0.0486,
      "velocity": 99,
      "chip": "ym2612"
    },
    {
      "channel": 4,
      "note": 85,
      "start": 7.0681,
      "duration": 0.0988,
      "velocity": 99,
      "chip": "ym2612"
    },
    {
      "channel": 0,
      "note": 57,
      "start": 7.1063,
      "duration": 0.095,
      "velocity": 85,
      "chip": "ym2612"
    },
    {
      "channel": 2,
      "note": 86,
      "start": 7.1064,
      "duration": 0.0951,
      "velocity": 99,
      "chip": "ym2612"
    },
    {
      "channel": 3,
      "note": 78,
      "start": 7.1064,
      "duration": 0.1965,
      "velocity": 89,
      "chip": "ym2612"
    },
    {
      "channel": 5,
      "note": 49,
      "start": 7.1066,
      "duration": 0.1173,
      "velocity": 125,
      "chip": "ym2612"
    },
    {
      "channel": 0,
      "note": 59,
      "start": 7.2237,
      "duration": 0.095,
      "velocity": 85,
      "chip": "ym2612"
    },
    {
      "channel": 2,
      "note": 85,
      "start": 7.2238,
      "duration": 0.095,
      "velocity": 99,
      "chip": "ym2612"
    },
    {
      "channel": 5,
      "note": 57,
      "start": 7.2239,
      "duration": 0.1179,
      "velocity": 117,
      "chip": "ym2612"
    },
    {
      "channel": 4,
      "note": 88,
      "start": 7.2358,
      "duration": 0.0492,
      "velocity": 99,
      "chip": "ym2612"
    },
    {
      "channel": 4,
      "note": 86,
      "start": 7.303,
      "duration": 0.0999,
      "velocity": 99,
      "chip": "ym2612"
    },
    {
      "channel": 0,
      "note": 59,
      "start": 7.3417,
      "duration": 0.1973,
      "velocity": 85,
      "chip": "ym2612"
    },
    {
      "channel": 2,
      "note": 83,
      "start": 7.3417,
      "duration": 0.1973,
      "velocity": 99,
      "chip": "ym2612"
    },
    {
      "channel": 3,
      "note": 74,
      "start": 7.3418,
      "duration": 0.1973,
      "velocity": 89,
      "chip": "ym2612"
    },
    {
      "channel": 5,
      "note": 55,
      "start": 7.3419,
      "duration": 0.2396,
      "velocity": 117,
      "chip": "ym2612"
    },
    {
      "channel": 4,
      "note": 85,
      "start": 7.4209,
      "duration": 0.1003,
      "velocity": 99,
      "chip": "ym2612"
    },
    {
      "channel": 4,
      "note": 83,
      "start": 7.5392,
      "duration": 0.201,
      "velocity": 99,
      "chip": "ym2612"
    },
    {
      "channel": 0,
      "note": 60,
      "start": 7.5814,
      "duration": 0.599,
      "velocity": 85,
      "chip": "ym2612"
    },
    {
      "channel": 3,
      "note": 79,
      "start": 7.5814,
      "duration": 0.0912,
      "velocity": 89,
      "chip": "ym2612"
    },
    {
      "channel": 5,
      "note": 55,
      "start": 7.5816,
      "duration": 0.1142,
      "velocity": 117,
      "chip": "ym2612"
    },
    {
      "channel": 3,
      "note": 79,
      "start": 7.6957,
      "duration": 0.095,
      "velocity": 89,
      "chip": "ym2612"
    },
    {
      "channel": 5,
      "note": 55,
      "start": 7.6957,
      "duration": 0.2363,
      "velocity": 127,
      "chip": "ym2612"
    },
    {
      "channel": 2,
      "note": 81,
      "start": 7.8094,
      "duration": 0.0993,
      "velocity": 99,
      "chip": "ym2612"
    },
    {
      "channel": 3,
      "note": 76,
      "start": 7.811,
      "duration": 0.1998,
      "velocity": 89,
      "chip": "ym2612"
    },
    {
      "channel": 2,
      "note": 83,
      "start": 7.9319,
      "duration": 0.0967,
      "velocity": 99,
      "chip": "ym2612"
    },
    {
      "channel": 5,
      "note": 44,
      "start": 7.9321,
      "duration": 0.1176,
      "velocity": 127,
      "chip": "ym2612"
    },
    {
      "channel": 4,
      "note": 81,
      "start": 8.011,
      "duration": 0.1018,
      "velocity": 99,
      "chip": "ym2612"
    },
    {
      "channel": 3,
      "note": 72,
      "start": 8.0496,
      "duration": 0.1983,
      "velocity": 89,
      "chip": "ym2612"
    },
    {
      "channel": 5,
      "note": 44,
      "start": 8.0498,
      "duration": 0.2366,
      "velocity": 117,
      "chip": "ym2612"
    },
    {
      "channel": 4,
      "note": 83,
      "start": 8.1305,
      "duration": 0.1002,
      "velocity": 99,
      "chip": "ym2612"
    },
    {
      "channel": 2,
      "note": 83,
      "start": 8.1643,
      "duration": 0.1001,
      "velocity": 99,
      "chip": "ym2612"
    },
    {
      "channel": 0,
      "note": 60,
      "start": 8.2862,
      "duration": 0.3985,
      "velocity": 85,
      "chip": "ym2612"
    },
    {
      "channel": 3,
      "note": 83,
      "start": 8.2863,
      "duration": 0.1975,
      "velocity": 89,
      "chip": "ym2612"
    },
    {
      "channel": 5,
      "note": 55,
      "start": 8.2864,
      "duration": 0.1176,
      "velocity": 117,
      "chip": "ym2612"
    },
    {
      "channel": 4,
      "note": 83,
      "start": 8.3665,
      "duration": 0.1002,
      "velocity": 99,
      "chip": "ym2612"
    },
    {
      "channel": 2,
      "note": 83,
      "start": 8.4038,
      "duration": 0.0963,
      "velocity": 99,
      "chip": "ym2612"
    },
    {
      "channel": 5,
      "note": 55,
      "start": 8.4039,
      "duration": 0.1186,
      "velocity": 125,
      "chip": "ym2612"
    },
    {
      "channel": 2,
      "note": 83,
      "start": 8.5224,
      "duration": 0.5997,
      "velocity": 99,
      "chip": "ym2612"
    },
    {
      "channel": 3,
      "note": 79,
      "start": 8.5225,
      "duration": 0.1966,
      "velocity": 89,
      "chip": "ym2612"
    },
    {
      "channel": 5,
      "note": 57,
      "start": 8.5226,
      "duration": 0.1145,
      "velocity": 125,
      "chip": "ym2612"
    },
    {
      "channel": 4,
      "note": 83,
      "start": 8.6014,
      "duration": 0.1002,
      "velocity": 99,
      "chip": "ym2612"
    },
    {
      "channel": 5,
      "note": 57,
      "start": 8.6372,
      "duration": 0.1195,
      "velocity": 127,
      "chip": "ym2612"
    },
    {
      "channel": 4,
      "note": 83,
      "start": 8.7192,
      "duration": 0.6053,
      "velocity": 99,
      "chip": "ym2612"
    },
    {
      "channel": 0,
      "note": 60,
      "start": 8.7566,
      "duration": 0.1971,
      "velocity": 85,
      "chip": "ym2612"
    },
    {
      "channel": 3,
      "note": 76,
      "start": 8.7566,
      "duration": 0.1971,
      "velocity": 89,
      "chip": "ym2612"
    },
    {
      "channel": 5,
      "note": 44,
      "start": 8.7568,
      "duration": 0.1165,
      "velocity": 127,
      "chip": "ym2612"
    },
    {
      "channel": 5,
      "note": 44,
      "start": 8.8732,
      "duration": 0.1212,
      "velocity": 125,
      "chip": "ym2612"
    },
    {
      "channel": 0,
      "note": 59,
      "start": 8.9943,
      "duration": 0.0941,
      "velocity": 85,
      "chip": "ym2612"
    },
    {
      "channel": 3,
      "note": 78,
      "start": 8.9944,
      "duration": 0.1954,
      "velocity": 89,
      "chip": "ym2612"
    },
    {
      "channel": 5,
      "note": 57,
      "start": 8.9945,
      "duration": 0.1174,
      "velocity": 125,
      "chip": "ym2612"
    },
    {
      "channel": 0,
      "note": 60,
      "start": 9.1117,
      "duration": 0.2968,
      "velocity": 85,
      "chip": "ym2612"
    },
    {
      "channel": 5,
      "note": 57,
      "start": 9.1118,
      "duration": 0.1177,
      "velocity": 117,
      "chip": "ym2612"
    },
    {
      "channel": 3,
      "note": 79,
      "start": 9.2295,
      "duration": 0.1983,
      "velocity": 89,
      "chip": "ym2612"
    },
    {
      "channel": 5,
      "note": 55,
      "start": 9.2296,
      "duration": 0.1176,
      "velocity": 117,
      "chip": "ym2612"
    },
    {
      "channel": 5,
      "note": 55,
      "start": 9.3473,
      "duration": 0.1217,
      "velocity": 117,
      "chip": "ym2612"
    },
    {
      "channel": 0,
      "note": 62,
      "start": 9.4688,
      "duration": 0.5981,
      "velocity": 85,
      "chip": "ym2612"
    },
    {
      "channel": 3,
      "note": 81,
      "start": 9.4689,
      "duration": 0.0933,
      "velocity": 89,
      "chip": "ym2612"
    },
    {
      "channel": 5,
      "note": 55,
      "start": 9.469,
      "duration": 0.1141,
      "velocity": 117,
      "chip": "ym2612"
    },
    {
      "channel": 3,
      "note": 81,
      "start": 9.5831,
      "duration": 0.0972,
      "velocity": 89,
      "chip": "ym2612"
    },
    {
      "channel": 5,
      "note": 55,
      "start": 9.5832,
      "duration": 0.2363,
      "velocity": 127,
      "chip": "ym2612"
    },
    {
      "channel": 2,
      "note": 79,
      "start": 9.6987,
      "duration": 0.0995,
      "velocity": 99,
      "chip": "ym2612"
    },
    {
      "channel": 3,
      "note": 78,
      "start": 9.6987,
      "duration": 0.2017,
      "velocity": 89,
      "chip": "ym2612"
    },
    {
      "channel": 2,
      "note": 81,
      "start": 9.8195,
      "duration": 0.0967,
      "velocity": 99,
      "chip": "ym2612"
    },
    {
      "channel": 5,
      "note": 44,
      "start": 9.8196,
      "duration": 0.1178,
      "velocity": 127,
      "chip": "ym2612"
    },
    {
      "channel": 4,
      "note": 79,
      "start": 9.9005,
      "duration": 0.0994,
      "velocity": 99,
      "chip": "ym2612"
    },
    {
      "channel": 3,
      "note": 74,
      "start": 9.9373,
      "duration": 0.1967,
      "velocity": 89,
      "chip": "ym2612"
    },
    {
      "channel": 5,
      "note": 44,
      "start": 9.9374,
      "duration": 0.2345,
      "velocity": 117,
      "chip": "ym2612"
    },
    {
      "channel": 4,
      "note": 81,
      "start": 10.0185,
      "duration": 0.0987,
      "velocity": 99,
      "chip": "ym2612"
    },
    {
      "channel": 2,
      "note": 81,
      "start": 10.0515,
      "duration": 0.0989,
      "velocity": 99,
      "chip": "ym2612"
    },
    {
      "channel": 0,
      "note": 62,
      "start": 10.1718,
      "duration": 0.3996,
      "velocity": 85,
      "chip": "ym2612"
    },
    {
      "channel": 3,
      "note": 78,
      "start": 10.1719,
      "duration": 0.1977,
      "velocity": 89,
      "chip": "ym2612"
    },
    {
      "channel": 5,
      "note": 55,
      "start": 10.172,
      "duration": 0.1177,
      "velocity": 117,
      "chip": "ym2612"
    },
    {
      "channel": 4,
      "note": 81,
      "start": 10.2526,
      "duration": 0.0998,
      "velocity": 99,
      "chip": "ym2612"
    },
    {
      "channel": 2,
      "note": 81,
      "start": 10.2895,
      "duration": 0.0966,
      "velocity": 99,
      "chip": "ym2612"
    },
    {
      "channel": 5,
      "note": 55,
      "start": 10.2896,
      "duration": 0.1188,
      "velocity": 125,
      "chip": "ym2612"
    },
    {
      "channel": 2,
      "note": 81,
      "start": 10.4083,
      "duration": 0.3997,
      "velocity": 99,
      "chip": "ym2612"
    },
    {
      "channel": 3,
      "note": 74,
      "start": 10.4084,
      "duration": 0.1979,
      "velocity": 89,
      "chip": "ym2612"
    },
    {
      "channel": 5,
      "note": 57,
      "start": 10.4085,
      "duration": 0.1163,
      "velocity": 125,
      "chip": "ym2612"
    },
    {
      "channel": 4,
      "note": 81,
      "start": 10.4882,
      "duration": 0.1001,
      "velocity": 99,
      "chip": "ym2612"
    },
    {
      "channel": 5,
      "note": 57,
      "start": 10.5249,
      "duration": 0.1212,
      "velocity": 125,
      "chip": "ym2612"
    },
    {
      "channel": 4,
      "note": 81,
      "start": 10.6064,
      "duration": 0.4032,
      "velocity": 99,
      "chip": "ym2612"
    },
    {
      "channel": 0,
      "note": 62,
      "start": 10.6459,
      "duration": 0.1954,
      "velocity": 85,
      "chip": "ym2612"
    },
    {
      "channel": 3,
      "note": 78,
      "start": 10.646,
      "duration": 0.1954,
      "velocity": 89,
      "chip": "ym2612"
    },
    {
      "channel": 5,
      "note": 57,
      "start": 10.6461,
      "duration": 0.1163,
      "velocity": 125,
      "chip": "ym2612"
    },
    {
      "channel": 5,
      "note": 49,
      "start": 10.7625,
      "duration": 0.1206,
      "velocity": 125,
      "chip": "ym2612"
    },
    {
      "channel": 0,
      "note": 57,
      "start": 10.883,
      "duration": 0.0948,
      "velocity": 85,
      "chip": "ym2612"
    },
    {
      "channel": 2,
      "note": 86,
      "start": 10.883,
      "duration": 0.3981,
      "velocity": 99,
      "chip": "ym2612"
    },
    {
      "channel": 3,
      "note": 78,
      "start": 10.8831,
      "duration": 0.1971,
      "velocity": 89,
      "chip": "ym2612"
    },
    {
      "channel": 5,
      "note": 49,
      "start": 10.8832,
      "duration": 0.1156,
      "velocity": 125,
      "chip": "ym2612"
    },
    {
      "channel": 0,
      "note": 62,
      "start": 10.9987,
      "duration": 0.2996,
      "velocity": 85,
      "chip": "ym2612"
    },
    {
      "channel": 5,
      "note": 49,
      "start": 10.9989,
      "duration": 0.1185,
      "velocity": 125,
      "chip": "ym2612"
    },
    {
      "channel": 4,
      "note": 86,
      "start": 11.0802,
      "duration": 0.4033,
      "velocity": 99,
      "chip": "ym2612"
    },
    {
      "channel": 3,
      "note": 81,
      "start": 11.1173,
      "duration": 0.1979,
      "velocity": 89,
      "chip": "ym2612"
    },
    {
      "channel": 5,
      "note": 38,
      "start": 11.1174,
      "duration": 0.1167,
      "velocity": 125,
      "chip": "ym2612"
    },
    {
      "channel": 5,
      "note": 38,
      "start": 11.2342,
      "duration": 0.1222,
      "velocity": 127,
      "chip": "ym2612"
    },
    {
      "channel": 0,
      "note": 52,
      "start": 11.3561,
      "duration": 0.1954,
      "velocity": 85,
      "chip": "ym2612"
    },
    {
      "channel": 2,
      "note": 83,
      "start": 11.3562,
      "duration": 0.1954,
      "velocity": 99,
      "chip": "ym2612"
    },
    {
      "channel": 3,
      "note": 83,
      "start": 11.3563,
      "duration": 0.1954,
      "velocity": 89,
      "chip": "ym2612"
    },
    {
      "channel": 5,
      "note": 44,
      "start": 11.3564,
      "duration": 0.1137,
      "velocity": 127,
      "chip": "ym2612"
    },
    {
      "channel": 5,
      "note": 44,
      "start": 11.4701,
      "duration": 0.1181,
      "velocity": 125,
      "chip": "ym2612"
    },
    {
      "channel": 4,
      "note": 83,
      "start": 11.5517,
      "duration": 0.1998,
      "velocity": 99,
      "chip": "ym2612"
    },
    {
      "channel": 5,
      "note": 38,
      "start": 11.5882,
      "duration": 0.1167,
      "velocity": 125,
      "chip": "ym2612"
    },
    {
      "channel": 5,
      "note": 38,
      "start": 11.705,
      "duration": 0.1172,
      "velocity": 127,
      "chip": "ym2612"
    },
    {
      "channel": 5,
      "note": 44,
      "start": 11.8223,
      "duration": 0.2359,
      "velocity": 125,
      "chip": "ym2612"
    },
    {
      "channel": 5,
      "note": 38,
      "start": 12.0583,
      "duration": 0.2377,
      "velocity": 127,
      "chip": "ym2612"
    },
    {
      "channel": 5,
      "note": 44,
      "start": 12.296,
      "duration": 0.118,
      "velocity": 127,
      "chip": "ym2612"
    },
    {
      "channel": 5,
      "note": 44,
      "start": 12.4141,
      "duration": 0.1178,
      "velocity": 117,
      "chip": "ym2612"
    },
    {
      "channel": 5,
      "note": 55,
      "start": 12.532,
      "duration": 0.1179,
      "velocity": 117,
      "chip": "ym2612"
    },
    {
      "channel": 5,
      "note": 55,
      "start": 12.65,
      "duration": 0.1177,
      "velocity": 127,
      "chip": "ym2612"
    },
    {
      "channel": 5,
      "note": 44,
      "start": 12.7677,
      "duration": 0.1181,
      "velocity": 127,
      "chip": "ym2612"
    },
    {
      "channel": 5,
      "note": 44,
      "start": 12.8859,
      "duration": 0.1188,
      "velocity": 117,
      "chip": "ym2612"
    },
    {
      "channel": 3,
      "note": 80,
      "start": 13.0046,
      "duration": 0.0958,
      "velocity": 89,
      "chip": "ym2612"
    },
    {
      "channel": 5,
      "note": 55,
      "start": 13.0048,
      "duration": 0.2366,
      "velocity": 127,
      "chip": "ym2612"
    },
    {
      "channel": 3,
      "note": 81,
      "start": 13.118,
      "duration": 0.1004,
      "velocity": 89,
      "chip": "ym2612"
    },
    {
      "channel": 0,
      "note": 52,
      "start": 13.2411,
      "duration": 0.1966,
      "velocity": 85,
      "chip": "ym2612"
    },
    {
      "channel": 2,
      "note": 83,
      "start": 13.2412,
      "duration": 0.1966,
      "velocity": 99,
      "chip": "ym2612"
    },
    {
      "channel": 3,
      "note": 83,
      "start": 13.2413,
      "duration": 0.0941,
      "velocity": 89,
      "chip": "ym2612"
    },
    {
      "channel": 5,
      "note": 44,
      "start": 13.2414,
      "duration": 0.1163,
      "velocity": 127,
      "chip": "ym2612"
    },
    {
      "channel": 3,
      "note": 84,
      "start": 13.3576,
      "duration": 0.0958,
      "velocity": 89,
      "chip": "ym2612"
    },
    {
      "channel": 5,
      "note": 44,
      "start": 13.3577,
      "duration": 0.1177,
      "velocity": 125,
      "chip": "ym2612"
    },
    {
      "channel": 4,
      "note": 83,
      "start": 13.4379,
      "duration": 0.2009,
      "velocity": 99,
      "chip": "ym2612"
    },
    {
      "channel": 3,
      "note": 83,
      "start": 13.4753,
      "duration": 0.096,
      "velocity": 89,
      "chip": "ym2612"
    },
    {
      "channel": 5,
      "note": 38,
      "start": 13.4755,
      "duration": 0.1195,
      "velocity": 125,
      "chip": "ym2612"
    },
    {
      "channel": 3,
      "note": 84,
      "start": 13.5949,
      "duration": 0.0946,
      "velocity": 89,
      "chip": "ym2612"
    },
    {
      "channel": 5,
      "note": 38,
      "start": 13.595,
      "duration": 0.1185,
      "velocity": 127,
      "chip": "ym2612"
    },
    {
      "channel": 3,
      "note": 83,
      "start": 13.7134,
      "duration": 0.094,
      "velocity": 89,
      "chip": "ym2612"
    },
    {
      "channel": 5,
      "note": 44,
      "start": 13.7136,
      "duration": 0.2351,
      "velocity": 125,
      "chip": "ym2612"
    },
    {
      "channel": 3,
      "note": 84,
      "start": 13.8252,
      "duration": 0.1006,
      "velocity": 89,
      "chip": "ym2612"
    },
    {
      "channel": 3,
      "note": 83,
      "start": 13.9486,
      "duration": 0.0966,
      "velocity": 89,
      "chip": "ym2612"
    },
    {
      "channel": 5,
      "note": 38,
      "start": 13.9487,
      "duration": 0.2366,
      "velocity": 127,
      "chip": "ym2612"
    },
    {
      "channel": 3,
      "note": 84,
      "start": 14.0631,
      "duration": 0.1002,
      "velocity": 89,
      "chip": "ym2612"
    },
    {
      "channel": 3,
      "note": 83,
      "start": 14.1853,
      "duration": 0.0959,
      "velocity": 89,
      "chip": "ym2612"
    },
    {
      "channel": 5,
      "note": 44,
      "start": 14.1853,
      "duration": 0.1173,
      "velocity": 127,
      "chip": "ym2612"
    },
    {
      "channel": 3,
      "note": 84,
      "start": 14.3025,
      "duration": 0.0966,
      "velocity": 89,
      "chip": "ym2612"
    },
    {
      "channel": 5,
      "note": 44,
      "start": 14.3026,
      "duration": 0.118,
      "velocity": 117,
      "chip": "ym2612"
    },
    {
      "channel": 3,
      "note": 83,
      "start": 14.4205,
      "duration": 0.0967,
      "velocity": 89,
      "chip": "ym2612"
    },
    {
      "channel": 5,
      "note": 55,
      "start": 14.4206,
      "duration": 0.1176,
      "velocity": 117,
      "chip": "ym2612"
    },
    {
      "channel": 3,
      "note": 84,
      "start": 14.5381,
      "duration": 0.0955,
      "velocity": 89,
      "chip": "ym2612"
    },
    {
      "channel": 5,
      "note": 55,
      "start": 14.5382,
      "duration": 0.1174,
      "velocity": 127,
      "chip": "ym2612"
    },
    {
      "channel": 3,
      "note": 83,
      "start": 14.6556,
      "duration": 0.0959,
      "velocity": 89,
      "chip": "ym2612"
    },
    {
      "channel": 5,
      "note": 44,
      "start": 14.6557,
      "duration": 0.1171,
      "velocity": 127,
      "chip": "ym2612"
    },
    {
      "channel": 3,
      "note": 84,
      "start": 14.7728,
      "duration": 0.0964,
      "velocity": 89,
      "chip": "ym2612"
    },
    {
      "channel": 5,
      "note": 44,
      "start": 14.7729,
      "duration": 0.1176,
      "velocity": 127,
      "chip": "ym2612"
    },
    {
      "channel": 3,
      "note": 83,
      "start": 14.8904,
      "duration": 0.0967,
      "velocity": 89,
      "chip": "ym2612"
    },
    {
      "channel": 5,
      "note": 44,
      "start": 14.8905,
      "duration": 0.1178,
      "velocity": 127,
      "chip": "ym2612"
    },
    {
      "channel": 3,
      "note": 84,
      "start": 15.0083,
      "duration": 0.0969,
      "velocity": 89,
      "chip": "ym2612"
    },
    {
      "channel": 5,
      "note": 44,
      "start": 15.0084,
      "duration": 0.1254,
      "velocity": 117,
      "chip": "ym2612"
    },
    {
      "channel": 0,
      "note": 50,
      "start": 15.1336,
      "duration": 0.0896,
      "velocity": 85,
      "chip": "ym2612"
    },
    {
      "channel": 1,
      "note": 88,
      "start": 15.1337,
      "duration": 0.597,
      "velocity": 101,
      "chip": "ym2612"
    },
    {
      "channel": 3,
      "note": 83,
      "start": 15.1337,
      "duration": 0.0895,
      "velocity": 89,
      "chip": "ym2612"
    },
    {
      "channel": 5,
      "note": 55,
      "start": 15.1339,
      "duration": 0.1127,
      "velocity": 117,
      "chip": "ym2612"
    },
    {
      "channel": 0,
      "note": 52,
      "start": 15.2464,
      "duration": 0.2987,
      "velocity": 85,
      "chip": "ym2612"
    },
    {
      "channel": 3,
      "note": 83,
      "start": 15.2465,
      "duration": 0.0945,
      "velocity": 89,
      "chip": "ym2612"
    },
    {
      "channel": 5,
      "note": 55,
      "start": 15.2466,
      "duration": 0.2358,
      "velocity": 125,
      "chip": "ym2612"
    },
    {
      "channel": 4,
      "note": 88,
      "start": 15.3307,
      "duration": 0.602,
      "velocity": 98,
      "chip": "ym2612"
    },
    {
      "channel": 2,
      "note": 81,
      "start": 15.3613,
      "duration": 0.098,
      "velocity": 99,
      "chip": "ym2612"
    },
    {
      "channel": 3,
      "note": 80,
      "start": 15.3613,
      "duration": 0.2011,
      "velocity": 89,
      "chip": "ym2612"
    },
    {
      "channel": 2,
      "note": 83,
      "start": 15.4823,
      "duration": 0.0964,
      "velocity": 99,
      "chip": "ym2612"
    },
    {
      "channel": 5,
      "note": 49,
      "start": 15.4824,
      "duration": 0.1183,
      "velocity": 125,
      "chip": "ym2612"
    },
    {
      "channel": 0,
      "note": 52,
      "start": 15.6005,
      "duration": 0.1976,
      "velocity": 85,
      "chip": "ym2612"
    },
    {
      "channel": 3,
      "note": 76,
      "start": 15.6006,
      "duration": 0.1976,
      "velocity": 89,
      "chip": "ym2612"
    },
    {
      "channel": 5,
      "note": 38,
      "start": 15.6008,
      "duration": 0.2366,
      "velocity": 117,
      "chip": "ym2612"
    },
    {
      "channel": 2,
      "note": 83,
      "start": 15.7145,
      "duration": 0.1001,
      "velocity": 99,
      "chip": "ym2612"
    },
    {
      "channel": 0,
      "note": 59,
      "start": 15.8372,
      "duration": 0.3976,
      "velocity": 85,
      "chip": "ym2612"
    },
    {
      "channel": 1,
      "note": 90,
      "start": 15.8372,
      "duration": 0.5486,
      "velocity": 101,
      "chip": "ym2612"
    },
    {
      "channel": 3,
      "note": 81,
      "start": 15.8373,
      "duration": 0.1968,
      "velocity": 89,
      "chip": "ym2612"
    },
    {
      "channel": 5,
      "note": 55,
      "start": 15.8374,
      "duration": 0.1167,
      "velocity": 117,
      "chip": "ym2612"
    },
    {
      "channel": 2,
      "note": 81,
      "start": 15.954,
      "duration": 0.0961,
      "velocity": 99,
      "chip": "ym2612"
    },
    {
      "channel": 5,
      "note": 55,
      "start": 15.9541,
      "duration": 0.2331,
      "velocity": 125,
      "chip": "ym2612"
    },
    {
      "channel": 4,
      "note": 90,
      "start": 16.0342,
      "duration": 0.554,
      "velocity": 98,
      "chip": "ym2612"
    },
    {
      "channel": 2,
      "note": 83,
      "start": 16.0688,
      "duration": 0.1999,
      "velocity": 99,
      "chip": "ym2612"
    },
    {
      "channel": 3,
      "note": 71,
      "start": 16.0688,
      "duration": 0.1999,
      "velocity": 89,
      "chip": "ym2612"
    },
    {
      "channel": 5,
      "note": 38,
      "start": 16.1873,
      "duration": 0.1205,
      "velocity": 127,
      "chip": "ym2612"
    },
    {
      "channel": 0,
      "note": 57,
      "start": 16.3076,
      "duration": 0.1968,
      "velocity": 85,
      "chip": "ym2612"
    },
    {
      "channel": 2,
      "note": 83,
      "start": 16.3076,
      "duration": 0.0949,
      "velocity": 99,
      "chip": "ym2612"
    },
    {
      "channel": 3,
      "note": 74,
      "start": 16.3077,
      "duration": 0.1968,
      "velocity": 89,
      "chip": "ym2612"
    },
    {
      "channel": 5,
      "note": 44,
      "start": 16.3078,
      "duration": 0.1155,
      "velocity": 127,
      "chip": "ym2612"
    },
    {
      "channel": 5,
      "note": 44,
      "start": 16.4234,
      "duration": 0.123,
      "velocity": 125,
      "chip": "ym2612"
    },
    {
      "channel": 1,
      "note": 95,
      "start": 16.4709,
      "duration": 0.0503,
      "velocity": 101,
      "chip": "ym2612"
    },
    {
      "channel": 0,
      "note": 57,
      "start": 16.5461,
      "duration": 0.0926,
      "velocity": 85,
      "chip": "ym2612"
    },
    {
      "channel": 1,
      "note": 93,
      "start": 16.5461,
      "duration": 0.396,
      "velocity": 101,
      "chip": "ym2612"
    },
    {
      "channel": 2,
      "note": 81,
      "start": 16.5462,
      "duration": 0.0926,
      "velocity": 99,
      "chip": "ym2612"
    },
    {
      "channel": 3,
      "note": 78,
      "start": 16.5463,
      "duration": 0.1945,
      "velocity": 89,
      "chip": "ym2612"
    },
    {
      "channel": 5,
      "note": 49,
      "start": 16.5464,
      "duration": 0.1166,
      "velocity": 125,
      "chip": "ym2612"
    },
    {
      "channel": 0,
      "note": 59,
      "start": 16.6628,
      "duration": 0.0938,
      "velocity": 85,
      "chip": "ym2612"
    },
    {
      "channel": 2,
      "note": 83,
      "start": 16.6629,
      "duration": 0.0938,
      "velocity": 99,
      "chip": "ym2612"
    },
    {
      "channel": 5,
      "note": 57,
      "start": 16.663,
      "duration": 0.1179,
      "velocity": 117,
      "chip": "ym2612"
    },
    {
      "channel": 4,
      "note": 95,
      "start": 16.6729,
      "duration": 0.05,
      "velocity": 98,
      "chip": "ym2612"
    },
    {
      "channel": 4,
      "note": 93,
      "start": 16.7408,
      "duration": 0.4055,
      "velocity": 98,
      "chip": "ym2612"
    },
    {
      "channel": 0,
      "note": 59,
      "start": 16.7807,
      "duration": 0.1973,
      "velocity": 85,
      "chip": "ym2612"
    },
    {
      "channel": 3,
      "note": 74,
      "start": 16.7808,
      "duration": 0.1973,
      "velocity": 89,
      "chip": "ym2612"
    },
    {
      "channel": 5,
      "note": 55,
      "start": 16.7809,
      "duration": 0.2389,
      "velocity": 117,
      "chip": "ym2612"
    },
    {
      "channel": 0,
      "note": 50,
      "start": 17.0197,
      "duration": 0.0929,
      "velocity": 85,
      "chip": "ym2612"
    },
    {
      "channel": 1,
      "note": 92,
      "start": 17.0197,
      "duration": 0.5477,
      "velocity": 101,
      "chip": "ym2612"
    },
    {
      "channel": 3,
      "note": 83,
      "start": 17.0198,
      "duration": 0.0928,
      "velocity": 89,
      "chip": "ym2612"
    },
    {
      "channel": 5,
      "note": 55,
      "start": 17.0199,
      "duration": 0.1142,
      "velocity": 117,
      "chip": "ym2612"
    },
    {
      "channel": 0,
      "note": 52,
      "start": 17.134,
      "duration": 0.2987,
      "velocity": 85,
      "chip": "ym2612"
    },
    {
      "channel": 3,
      "note": 83,
      "start": 17.134,
      "duration": 0.0963,
      "velocity": 89,
      "chip": "ym2612"
    },
    {
      "channel": 5,
      "note": 55,
      "start": 17.1342,
      "duration": 0.2357,
      "velocity": 125,
      "chip": "ym2612"
    },
    {
      "channel": 4,
      "note": 92,
      "start": 17.2146,
      "duration": 0.5537,
      "velocity": 98,
      "chip": "ym2612"
    },
    {
      "channel": 2,
      "note": 81,
      "start": 17.2489,
      "duration": 0.0994,
      "velocity": 99,
      "chip": "ym2612"
    },
    {
      "channel": 3,
      "note": 80,
      "start": 17.249,
      "duration": 0.2011,
      "velocity": 89,
      "chip": "ym2612"
    },
    {
      "channel": 2,
      "note": 83,
      "start": 17.3697,
      "duration": 0.0966,
      "velocity": 99,
      "chip": "ym2612"
    },
    {
      "channel": 5,
      "note": 49,
      "start": 17.3699,
      "duration": 0.1185,
      "velocity": 125,
      "chip": "ym2612"
    },
    {
      "channel": 0,
      "note": 52,
      "start": 17.4882,
      "duration": 0.1956,
      "velocity": 85,
      "chip": "ym2612"
    },
    {
      "channel": 3,
      "note": 76,
      "start": 17.4883,
      "duration": 0.1956,
      "velocity": 89,
      "chip": "ym2612"
    },
    {
      "channel": 5,
      "note": 38,
      "start": 17.4884,
      "duration": 0.2345,
      "velocity": 117,
      "chip": "ym2612"
    },
    {
      "channel": 2,
      "note": 83,
      "start": 17.6012,
      "duration": 0.0993,
      "velocity": 99,
      "chip": "ym2612"
    },
    {
      "channel": 1,
      "note": 95,
      "start": 17.6507,
      "duration": 0.0497,
      "velocity": 101,
      "chip": "ym2612"
    },
    {
      "channel": 0,
      "note": 59,
      "start": 17.7227,
      "duration": 0.399,
      "velocity": 85,
      "chip": "ym2612"
    },
    {
      "channel": 1,
      "note": 93,
      "start": 17.7228,
      "duration": 0.6014,
      "velocity": 101,
      "chip": "ym2612"
    },
    {
      "channel": 3,
      "note": 81,
      "start": 17.7229,
      "duration": 0.1974,
      "velocity": 89,
      "chip": "ym2612"
    },
    {
      "channel": 5,
      "note": 55,
      "start": 17.723,
      "duration": 0.1169,
      "velocity": 117,
      "chip": "ym2612"
    },
    {
      "channel": 2,
      "note": 81,
      "start": 17.8398,
      "duration": 0.0965,
      "velocity": 99,
      "chip": "ym2612"
    },
    {
      "channel": 5,
      "note": 55,
      "start": 17.8399,
      "duration": 0.2349,
      "velocity": 125,
      "chip": "ym2612"
    },
    {
      "channel": 4,
      "note": 95,
      "start": 17.8527,
      "duration": 0.0499,
      "velocity": 98,
      "chip": "ym2612"
    },
    {
      "channel": 4,
      "note": 93,
      "start": 17.9204,
      "duration": 0.6081,
      "velocity": 98,
      "chip": "ym2612"
    },
    {
      "channel": 2,
      "note": 83,
      "start": 17.9551,
      "duration": 0.201,
      "velocity": 99,
      "chip": "ym2612"
    },
    {
      "channel": 3,
      "note": 71,
      "start": 17.9552,
      "duration": 0.201,
      "velocity": 89,
      "chip": "ym2612"
    },
    {
      "channel": 5,
      "note": 38,
      "start": 18.0749,
      "duration": 0.1224,
      "velocity": 127,
      "chip": "ym2612"
    },
    {
      "channel": 0,
      "note": 57,
      "start": 18.197,
      "duration": 0.1948,
      "velocity": 85,
      "chip": "ym2612"
    },
    {
      "channel": 2,
      "note": 83,
      "start": 18.1971,
      "duration": 0.0932,
      "velocity": 99,
      "chip": "ym2612"
    },
    {
      "channel": 3,
      "note": 74,
      "start": 18.1972,
      "duration": 0.1947,
      "velocity": 89,
      "chip": "ym2612"
    },
    {
      "channel": 5,
      "note": 44,
      "start": 18.1973,
      "duration": 0.1157,
      "velocity": 127,
      "chip": "ym2612"
    },
    {
      "channel": 5,
      "note": 44,
      "start": 18.313,
      "duration": 0.1207,
      "velocity": 125,
      "chip": "ym2612"
    },
    {
      "channel": 0,
      "note": 57,
      "start": 18.4335,
      "duration": 0.0948,
      "velocity": 85,
      "chip": "ym2612"
    },
    {
      "channel": 1,
      "note": 88,
      "start": 18.4336,
      "duration": 0.398,
      "velocity": 101,
      "chip": "ym2612"
    },
    {
      "channel": 2,
      "note": 81,
      "start": 18.4337,
      "duration": 0.0947,
      "velocity": 99,
      "chip": "ym2612"
    },
    {
      "channel": 3,
      "note": 78,
      "start": 18.4337,
      "duration": 0.1967,
      "velocity": 89,
      "chip": "ym2612"
    },
    {
      "channel": 5,
      "note": 49,
      "start": 18.4338,
      "duration": 0.1168,
      "velocity": 125,
      "chip": "ym2612"
    },
    {
      "channel": 0,
      "note": 59,
      "start": 18.5505,
      "duration": 0.0957,
      "velocity": 85,
      "chip": "ym2612"
    },
    {
      "channel": 2,
      "note": 83,
      "start": 18.5506,
      "duration": 0.0956,
      "velocity": 99,
      "chip": "ym2612"
    },
    {
      "channel": 5,
      "note": 57,
      "start": 18.5507,
      "duration": 0.1178,
      "velocity": 117,
      "chip": "ym2612"
    },
    {
      "channel": 4,
      "note": 88,
      "start": 18.6305,
      "duration": 0.4028,
      "velocity": 98,
      "chip": "ym2612"
    },
    {
      "channel": 0,
      "note": 59,
      "start": 18.6684,
      "duration": 0.1972,
      "velocity": 85,
      "chip": "ym2612"
    },
    {
      "channel": 3,
      "note": 74,
      "start": 18.6685,
      "duration": 0.1972,
      "velocity": 89,
      "chip": "ym2612"
    },
    {
      "channel": 5,
      "note": 55,
      "start": 18.6686,
      "duration": 0.2392,
      "velocity": 117,
      "chip": "ym2612"
    },
    {
      "channel": 0,
      "note": 50,
      "start": 18.9076,
      "duration": 0.0924,
      "velocity": 85,
      "chip": "ym2612"
    },
    {
      "channel": 1,
      "note": 86,
      "start": 18.9076,
      "duration": 1.0183,
      "velocity": 101,
      "chip": "ym2612"
    },
    {
      "channel": 3,
      "note": 83,
      "start": 18.9077,
      "duration": 0.0924,
      "velocity": 89,
      "chip": "ym2612"
    },
    {
      "channel": 5,
      "note": 55,
      "start": 18.9078,
      "duration": 0.1139,
      "velocity": 117,
      "chip": "ym2612"
    },
    {
      "channel": 0,
      "note": 52,
      "start": 19.0215,
      "duration": 0.2968,
      "velocity": 85,
      "chip": "ym2612"
    },
    {
      "channel": 3,
      "note": 83,
      "start": 19.0216,
      "duration": 0.0952,
      "velocity": 89,
      "chip": "ym2612"
    },
    {
      "channel": 5,
      "note": 55,
      "start": 19.0217,
      "duration": 0.2342,
      "velocity": 125,
      "chip": "ym2612"
    },
    {
      "channel": 4,
      "note": 86,
      "start": 19.1015,
      "duration": 1.0277,
      "velocity": 98,
      "chip": "ym2612"
    },
    {
      "channel": 2,
      "note": 81,
      "start": 19.1351,
      "duration": 0.0995,
      "velocity": 99,
      "chip": "ym2612"
    },
    {
      "channel": 3,
      "note": 80,
      "start": 19.1351,
      "duration": 0.2007,
      "velocity": 89,
      "chip": "ym2612"
    },
    {
      "channel": 2,
      "note": 83,
      "start": 19.2559,
      "duration": 0.0964,
      "velocity": 99,
      "chip": "ym2612"
    },
    {
      "channel": 5,
      "note": 49,
      "start": 19.256,
      "duration": 0.1181,
      "velocity": 125,
      "chip": "ym2612"
    },
    {
      "channel": 0,
      "note": 52,
      "start": 19.3739,
      "duration": 0.1975,
      "velocity": 85,
      "chip": "ym2612"
    },
    {
      "channel": 3,
      "note": 76,
      "start": 19.374,
      "duration": 0.1975,
      "velocity": 89,
      "chip": "ym2612"
    },
    {
      "channel": 5,
      "note": 38,
      "start": 19.3741,
      "duration": 0.2377,
      "velocity": 117,
      "chip": "ym2612"
    },
    {
      "channel": 2,
      "note": 83,
      "start": 19.488,
      "duration": 0.1,
      "velocity": 99,
      "chip": "ym2612"
    },
    {
      "channel": 0,
      "note": 59,
      "start": 19.6117,
      "duration": 0.3974,
      "velocity": 85,
      "chip": "ym2612"
    },
    {
      "channel": 3,
      "note": 81,
      "start": 19.6118,
      "duration": 0.1957,
      "velocity": 89,
      "chip": "ym2612"
    },
    {
      "channel": 5,
      "note": 55,
      "start": 19.6119,
      "duration": 0.1176,
      "velocity": 117,
      "chip": "ym2612"
    },
    {
      "channel": 2,
      "note": 81,
      "start": 19.7295,
      "duration": 0.0945,
      "velocity": 99,
      "chip": "ym2612"
    },
    {
      "channel": 5,
      "note": 55,
      "start": 19.7296,
      "duration": 0.2349,
      "velocity": 125,
      "chip": "ym2612"
    },
    {
      "channel": 2,
      "note": 83,
      "start": 19.8449,
      "duration": 0.2008,
      "velocity": 99,
      "chip": "ym2612"
    },
    {
      "channel": 3,
      "note": 71,
      "start": 19.8449,
      "duration": 0.2008,
      "velocity": 89,
      "chip": "ym2612"
    },
    {
      "channel": 5,
      "note": 38,
      "start": 19.9645,
      "duration": 0.1209,
      "velocity": 127,
      "chip": "ym2612"
    },
    {
      "channel": 0,
      "note": 57,
      "start": 20.0851,
      "duration": 0.1968,
      "velocity": 85,
      "chip": "ym2612"
    },
    {
      "channel": 1,
      "note": 85,
      "start": 20.0852,
      "duration": 0.1968,
      "velocity": 101,
      "chip": "ym2612"
    },
    {
      "channel": 2,
      "note": 83,
      "start": 20.0853,
      "duration": 0.0944,
      "velocity": 99,
      "chip": "ym2612"
    },
    {
      "channel": 3,
      "note": 74,
      "start": 20.0853,
      "duration": 0.1967,
      "velocity": 89,
      "chip": "ym2612"
    },
    {
      "channel": 5,
      "note": 44,
      "start": 20.0854,
      "duration": 0.1149,
      "velocity": 127,
      "chip": "ym2612"
    },
    {
      "channel": 5,
      "note": 44,
      "start": 20.2003,
      "duration": 0.1211,
      "velocity": 125,
      "chip": "ym2612"
    },
    {
      "channel": 4,
      "note": 85,
      "start": 20.2821,
      "duration": 0.2012,
      "velocity": 98,
      "chip": "ym2612"
    },
    {
      "channel": 0,
      "note": 57,
      "start": 20.3211,
      "duration": 0.0945,
      "velocity": 85,
      "chip": "ym2612"
    },
    {
      "channel": 1,
      "note": 86,
      "start": 20.3212,
      "duration": 0.1966,
      "velocity": 101,
      "chip": "ym2612"
    },
    {
      "channel": 2,
      "note": 81,
      "start": 20.3212,
      "duration": 0.0945,
      "velocity": 99,
      "chip": "ym2612"
    },
    {
      "channel": 3,
      "note": 78,
      "start": 20.3213,
      "duration": 0.1966,
      "velocity": 89,
      "chip": "ym2612"
    },
    {
      "channel": 5,
      "note": 49,
      "start": 20.3215,
      "duration": 0.1167,
      "velocity": 125,
      "chip": "ym2612"
    },
    {
      "channel": 0,
      "note": 59,
      "start": 20.438,
      "duration": 0.0953,
      "velocity": 85,
      "chip": "ym2612"
    },
    {
      "channel": 2,
      "note": 83,
      "start": 20.438,
      "duration": 0.0953,
      "velocity": 99,
      "chip": "ym2612"
    },
    {
      "channel": 5,
      "note": 57,
      "start": 20.4382,
      "duration": 0.1179,
      "velocity": 117,
      "chip": "ym2612"
    },
    {
      "channel": 4,
      "note": 86,
      "start": 20.518,
      "duration": 0.199,
      "velocity": 98,
      "chip": "ym2612"
    },
    {
      "channel": 0,
      "note": 59,
      "start": 20.5559,
      "duration": 0.1963,
      "velocity": 85,
      "chip": "ym2612"
    },
    {
      "channel": 1,
      "note": 88,
      "start": 20.556,
      "duration": 0.1963,
      "velocity": 101,
      "chip": "ym2612"
    },
    {
      "channel": 3,
      "note": 74,
      "start": 20.5561,
      "duration": 0.1963,
      "velocity": 89,
      "chip": "ym2612"
    },
    {
      "channel": 5,
      "note": 55,
      "start": 20.5562,
      "duration": 0.2389,
      "velocity": 117,
      "chip": "ym2612"
    },
    {
      "channel": 4,
      "note": 88,
      "start": 20.7524,
      "duration": 0.2008,
      "velocity": 98,
      "chip": "ym2612"
    },
    {
      "channel": 0,
      "note": 50,
      "start": 20.7949,
      "duration": 0.0909,
      "velocity": 85,
      "chip": "ym2612"
    },
    {
      "channel": 1,
      "note": 83,
      "start": 20.795,
      "duration": 1.222,
      "velocity": 101,
      "chip": "ym2612"
    },
    {
      "channel": 3,
      "note": 83,
      "start": 20.7951,
      "duration": 0.0908,
      "velocity": 89,
      "chip": "ym2612"
    },
    {
      "channel": 5,
      "note": 55,
      "start": 20.7952,
      "duration": 0.1122,
      "velocity": 117,
      "chip": "ym2612"
    },
    {
      "channel": 0,
      "note": 52,
      "start": 20.9072,
      "duration": 0.2989,
      "velocity": 85,
      "chip": "ym2612"
    },
    {
      "channel": 3,
      "note": 83,
      "start": 20.9073,
      "duration": 0.0965,
      "velocity": 89,
      "chip": "ym2612"
    },
    {
      "channel": 5,
      "note": 55,
      "start": 20.9074,
      "duration": 0.2376,
      "velocity": 125,
      "chip": "ym2612"
    },
    {
      "channel": 4,
      "note": 83,
      "start": 20.9879,
      "duration": 1.2293,
      "velocity": 98,
      "chip": "ym2612"
    },
    {
      "channel": 2,
      "note": 81,
      "start": 21.023,
      "duration": 0.0986,
      "velocity": 99,
      "chip": "ym2612"
    },
    {
      "channel": 3,
      "note": 80,
      "start": 21.0231,
      "duration": 0.2003,
      "velocity": 89,
      "chip": "ym2612"
    },
    {
      "channel": 2,
      "note": 83,
      "start": 21.1449,
      "duration": 0.0949,
      "velocity": 99,
      "chip": "ym2612"
    },
    {
      "channel": 5,
      "note": 49,
      "start": 21.1451,
      "duration": 0.1185,
      "velocity": 125,
      "chip": "ym2612"
    },
    {
      "channel": 0,
      "note": 52,
      "start": 21.2634,
      "duration": 0.1975,
      "velocity": 85,
      "chip": "ym2612"
    },
    {
      "channel": 3,
      "note": 76,
      "start": 21.2635,
      "duration": 0.1975,
      "velocity": 89,
      "chip": "ym2612"
    },
    {
      "channel": 5,
      "note": 38,
      "start": 21.2636,
      "duration": 0.2359,
      "velocity": 117,
      "chip": "ym2612"
    },
    {
      "channel": 2,
      "note": 83,
      "start": 21.376,
      "duration": 0.1,
      "velocity": 99,
      "chip": "ym2612"
    },
    {
      "channel": 0,
      "note": 59,
      "start": 21.4994,
      "duration": 0.3994,
      "velocity": 85,
      "chip": "ym2612"
    },
    {
      "channel": 3,
      "note": 81,
      "start": 21.4995,
      "duration": 0.1974,
      "velocity": 89,
      "chip": "ym2612"
    },
    {
      "channel": 5,
      "note": 55,
      "start": 21.4996,
      "duration": 0.1173,
      "velocity": 117,
      "chip": "ym2612"
    },
    {
      "channel": 2,
      "note": 83,
      "start": 21.6169,
      "duration": 0.0964,
      "velocity": 99,
      "chip": "ym2612"
    },
    {
      "channel": 5,
      "note": 55,
      "start": 21.6171,
      "duration": 0.2349,
      "velocity": 125,
      "chip": "ym2612"
    },
    {
      "channel": 2,
      "note": 86,
      "start": 21.7323,
      "duration": 0.2008,
      "velocity": 99,
      "chip": "ym2612"
    },
    {
      "channel": 3,
      "note": 71,
      "start": 21.7324,
      "duration": 0.2008,
      "velocity": 89,
      "chip": "ym2612"
    },
    {
      "channel": 5,
      "note": 38,
      "start": 21.852,
      "duration": 0.1204,
      "velocity": 127,
      "chip": "ym2612"
    },
    {
      "channel": 0,
      "note": 57,
      "start": 21.9722,
      "duration": 0.1952,
      "velocity": 85,
      "chip": "ym2612"
    },
    {
      "channel": 2,
      "note": 85,
      "start": 21.9723,
      "duration": 0.0947,
      "velocity": 99,
      "chip": "ym2612"
    },
    {
      "channel": 3,
      "note": 74,
      "start": 21.9723,
      "duration": 0.1951,
      "velocity": 89,
      "chip": "ym2612"
    },
    {
      "channel": 5,
      "note": 44,
      "start": 21.9725,
      "duration": 0.1149,
      "velocity": 127,
      "chip": "ym2612"
    },
    {
      "channel": 5,
      "note": 44,
      "start": 22.0875,
      "duration": 0.1191,
      "velocity": 125,
      "chip": "ym2612"
    },
    {
      "channel": 2,
      "note": 88,
      "start": 22.1349,
      "duration": 0.0488,
      "velocity": 99,
      "chip": "ym2612"
    },
    {
      "channel": 0,
      "note": 57,
      "start": 22.2064,
      "duration": 0.0952,
      "velocity": 85,
      "chip": "ym2612"
    },
    {
      "channel": 2,
      "note": 86,
      "start": 22.2065,
      "duration": 0.0951,
      "velocity": 99,
      "chip": "ym2612"
    },
    {
      "channel": 3,
      "note": 78,
      "start": 22.2066,
      "duration": 0.1966,
      "velocity": 89,
      "chip": "ym2612"
    },
    {
      "channel": 5,
      "note": 49,
      "start": 22.2067,
      "duration": 0.1172,
      "velocity": 125,
      "chip": "ym2612"
    },
    {
      "channel": 0,
      "note": 59,
      "start": 22.3237,
      "duration": 0.0959,
      "velocity": 85,
      "chip": "ym2612"
    },
    {
      "channel": 2,
      "note": 85,
      "start": 22.3237,
      "duration": 0.0959,
      "velocity": 99,
      "chip": "ym2612"
    },
    {
      "channel": 5,
      "note": 57,
      "start": 22.3239,
      "duration": 0.1207,
      "velocity": 117,
      "chip": "ym2612"
    },
    {
      "channel": 0,
      "note": 59,
      "start": 22.4444,
      "duration": 0.1949,
      "velocity": 85,
      "chip": "ym2612"
    },
    {
      "channel": 2,
      "note": 83,
      "start": 22.4444,
      "duration": 0.1949,
      "velocity": 99,
      "chip": "ym2612"
    },
    {
      "channel": 3,
      "note": 74,
      "start": 22.4445,
      "duration": 0.1949,
      "velocity": 89,
      "chip": "ym2612"
    },
    {
      "channel": 5,
      "note": 55,
      "start": 22.4446,
      "duration": 0.2384,
      "velocity": 117,
      "chip": "ym2612"
    },
    {
      "channel": 0,
      "note": 50,
      "start": 22.6828,
      "duration": 0.0906,
      "velocity": 85,
      "chip": "ym2612"
    },
    {
      "channel": 1,
      "note": 88,
      "start": 22.6828,
      "duration": 0.598,
      "velocity": 101,
      "chip": "ym2612"
    },
    {
      "channel": 3,
      "note": 83,
      "start": 22.6829,
      "duration": 0.0905,
      "velocity": 89,
      "chip": "ym2612"
    },
    {
      "channel": 5,
      "note": 55,
      "start": 22.683,
      "duration": 0.1138,
      "velocity": 117,
      "chip": "ym2612"
    },
    {
      "channel": 0,
      "note": 52,
      "start": 22.7966,
      "duration": 0.2987,
      "velocity": 85,
      "chip": "ym2612"
    },
    {
      "channel": 3,
      "note": 83,
      "start": 22.7968,
      "duration": 0.0945,
      "velocity": 89,
      "chip": "ym2612"
    },
    {
      "channel": 5,
      "note": 55,
      "start": 22.7969,
      "duration": 0.2357,
      "velocity": 125,
      "chip": "ym2612"
    },
    {
      "channel": 4,
      "note": 88,
      "start": 22.8777,
      "duration": 0.6053,
      "velocity": 98,
      "chip": "ym2612"
    },
    {
      "channel": 2,
      "note": 81,
      "start": 22.9116,
      "duration": 0.0977,
      "velocity": 99,
      "chip": "ym2612"
    },
    {
      "channel": 3,
      "note": 80,
      "start": 22.9117,
      "duration": 0.2013,
      "velocity": 89,
      "chip": "ym2612"
    },
    {
      "channel": 2,
      "note": 83,
      "start": 23.0324,
      "duration": 0.0967,
      "velocity": 99,
      "chip": "ym2612"
    },
    {
      "channel": 5,
      "note": 49,
      "start": 23.0327,
      "duration": 0.1184,
      "velocity": 125,
      "chip": "ym2612"
    },
    {
      "channel": 0,
      "note": 52,
      "start": 23.1508,
      "duration": 0.1975,
      "velocity": 85,
      "chip": "ym2612"
    },
    {
      "channel": 3,
      "note": 76,
      "start": 23.151,
      "duration": 0.1975,
      "velocity": 89,
      "chip": "ym2612"
    },
    {
      "channel": 5,
      "note": 38,
      "start": 23.1511,
      "duration": 0.2365,
      "velocity": 117,
      "chip": "ym2612"
    },
    {
      "channel": 2,
      "note": 83,
      "start": 23.2648,
      "duration": 0.1003,
      "velocity": 99,
      "chip": "ym2612"
    },
    {
      "channel": 0,
      "note": 59,
      "start": 23.3874,
      "duration": 0.3971,
      "velocity": 85,
      "chip": "ym2612"
    },
    {
      "channel": 1,
      "note": 90,
      "start": 23.3875,
      "duration": 0.5488,
      "velocity": 101,
      "chip": "ym2612"
    },
    {
      "channel": 3,
      "note": 81,
      "start": 23.3876,
      "duration": 0.1968,
      "velocity": 89,
      "chip": "ym2612"
    },
    {
      "channel": 5,
      "note": 55,
      "start": 23.3877,
      "duration": 0.117,
      "velocity": 117,
      "chip": "ym2612"
    },
    {
      "channel": 2,
      "note": 81,
      "start": 23.5045,
      "duration": 0.0955,
      "velocity": 99,
      "chip": "ym2612"
    },
    {
      "channel": 5,
      "note": 55,
      "start": 23.5046,
      "duration": 0.2335,
      "velocity": 125,
      "chip": "ym2612"
    },
    {
      "channel": 4,
      "note": 90,
      "start": 23.5844,
      "duration": 0.5542,
      "velocity": 98,
      "chip": "ym2612"
    },
    {
      "channel": 2,
      "note": 83,
      "start": 23.619,
      "duration": 0.1998,
      "velocity": 99,
      "chip": "ym2612"
    },
    {
      "channel": 3,
      "note": 71,
      "start": 23.6191,
      "duration": 0.1998,
      "velocity": 89,
      "chip": "ym2612"
    },
    {
      "channel": 5,
      "note": 38,
      "start": 23.7382,
      "duration": 0.1198,
      "velocity": 127,
      "chip": "ym2612"
    },
    {
      "channel": 0,
      "note": 57,
      "start": 23.8578,
      "duration": 0.197,
      "velocity": 85,
      "chip": "ym2612"
    },
    {
      "channel": 2,
      "note": 83,
      "start": 23.8579,
      "duration": 0.095,
      "velocity": 99,
      "chip": "ym2612"
    },
    {
      "channel": 3,
      "note": 74,
      "start": 23.858,
      "duration": 0.1969,
      "velocity": 89,
      "chip": "ym2612"
    },
    {
      "channel": 5,
      "note": 44,
      "start": 23.8581,
      "duration": 0.1156,
      "velocity": 127,
      "chip": "ym2612"
    },
    {
      "channel": 5,
      "note": 44,
      "start": 23.9737,
      "duration": 0.123,
      "velocity": 125,
      "chip": "ym2612"
    },
    {
      "channel": 1,
      "note": 95,
      "start": 24.0222,
      "duration": 0.0488,
      "velocity": 101,
      "chip": "ym2612"
    },
    {
      "channel": 0,
      "note": 57,
      "start": 24.0964,
      "duration": 0.0926,
      "velocity": 85,
      "chip": "ym2612"
    },
    {
      "channel": 1,
      "note": 93,
      "start": 24.0965,
      "duration": 0.3962,
      "velocity": 101,
      "chip": "ym2612"
    },
    {
      "channel": 2,
      "note": 81,
      "start": 24.0966,
      "duration": 0.0926,
      "velocity": 99,
      "chip": "ym2612"
    },
    {
      "channel": 3,
      "note": 78,
      "start": 24.0966,
      "duration": 0.1944,
      "velocity": 89,
      "chip": "ym2612"
    },
    {
      "channel": 5,
      "note": 49,
      "start": 24.0968,
      "duration": 0.1166,
      "velocity": 125,
      "chip": "ym2612"
    },
    {
      "channel": 0,
      "note": 59,
      "start": 24.2132,
      "duration": 0.0939,
      "velocity": 85,
      "chip": "ym2612"
    },
    {
      "channel": 2,
      "note": 83,
      "start": 24.2133,
      "duration": 0.0939,
      "velocity": 99,
      "chip": "ym2612"
    },
    {
      "channel": 5,
      "note": 57,
      "start": 24.2134,
      "duration": 0.1179,
      "velocity": 117,
      "chip": "ym2612"
    },
    {
      "channel": 4,
      "note": 95,
      "start": 24.2232,
      "duration": 0.0502,
      "velocity": 98,
      "chip": "ym2612"
    },
    {
      "channel": 4,
      "note": 93,
      "start": 24.2911,
      "duration": 0.4054,
      "velocity": 98,
      "chip": "ym2612"
    },
    {
      "channel": 0,
      "note": 59,
      "start": 24.3312,
      "duration": 0.1971,
      "velocity": 85,
      "chip": "ym2612"
    },
    {
      "channel": 3,
      "note": 74,
      "start": 24.3313,
      "duration": 0.1971,
      "velocity": 89,
      "chip": "ym2612"
    },
    {
      "channel": 5,
      "note": 55,
      "start": 24.3314,
      "duration": 0.2386,
      "velocity": 117,
      "chip": "ym2612"
    },
    {
      "channel": 0,
      "note": 50,
      "start": 24.5699,
      "duration": 0.093,
      "velocity": 85,
      "chip": "ym2612"
    },
    {
      "channel": 1,
      "note": 92,
      "start": 24.5699,
      "duration": 0.5477,
      "velocity": 101,
      "chip": "ym2612"
    },
    {
      "channel": 3,
      "note": 83,
      "start": 24.57,
      "duration": 0.0929,
      "velocity": 89,
      "chip": "ym2612"
    },
    {
      "channel": 5,
      "note": 55,
      "start": 24.5701,
      "duration": 0.1143,
      "velocity": 117,
      "chip": "ym2612"
    },
    {
      "channel": 0,
      "note": 52,
      "start": 24.6843,
      "duration": 0.2989,
      "velocity": 85,
      "chip": "ym2612"
    },
    {
      "channel": 3,
      "note": 83,
      "start": 24.6844,
      "duration": 0.0966,
      "velocity": 89,
      "chip": "ym2612"
    },
    {
      "channel": 5,
      "note": 55,
      "start": 24.6845,
      "duration": 0.2359,
      "velocity": 125,
      "chip": "ym2612"
    },
    {
      "channel": 4,
      "note": 92,
      "start": 24.765,
      "duration": 0.5534,
      "velocity": 98,
      "chip": "ym2612"
    },
    {
      "channel": 2,
      "note": 81,
      "start": 24.7993,
      "duration": 0.0995,
      "velocity": 99,
      "chip": "ym2612"
    },
    {
      "channel": 3,
      "note": 80,
      "start": 24.7993,
      "duration": 0.2012,
      "velocity": 89,
      "chip": "ym2612"
    },
    {
      "channel": 2,
      "note": 83,
      "start": 24.9202,
      "duration": 0.0965,
      "velocity": 99,
      "chip": "ym2612"
    },
    {
      "channel": 5,
      "note": 49,
      "start": 24.9204,
      "duration": 0.1181,
      "velocity": 125,
      "chip": "ym2612"
    },
    {
      "channel": 0,
      "note": 52,
      "start": 25.0383,
      "duration": 0.1964,
      "velocity": 85,
      "chip": "ym2612"
    },
    {
      "channel": 3,
      "note": 76,
      "start": 25.0384,
      "duration": 0.1964,
      "velocity": 89,
      "chip": "ym2612"
    },
    {
      "channel": 5,
      "note": 38,
      "start": 25.0385,
      "duration": 0.2352,
      "velocity": 117,
      "chip": "ym2612"
    },
    {
      "channel": 2,
      "note": 83,
      "start": 25.1512,
      "duration": 0.1004,
      "velocity": 99,
      "chip": "ym2612"
    },
    {
      "channel": 1,
      "note": 95,
      "start": 25.2007,
      "duration": 0.0509,
      "velocity": 101,
      "chip": "ym2612"
    },
    {
      "channel": 0,
      "note": 59,
      "start": 25.2735,
      "duration": 0.3985,
      "velocity": 85,
      "chip": "ym2612"
    },
    {
      "channel": 1,
      "note": 93,
      "start": 25.2736,
      "duration": 0.6008,
      "velocity": 101,
      "chip": "ym2612"
    },
    {
      "channel": 3,
      "note": 81,
      "start": 25.2737,
      "duration": 0.1968,
      "velocity": 89,
      "chip": "ym2612"
    },
    {
      "channel": 5,
      "note": 55,
      "start": 25.2738,
      "duration": 0.1166,
      "velocity": 117,
      "chip": "ym2612"
    },
    {
      "channel": 2,
      "note": 81,
      "start": 25.3903,
      "duration": 0.0964,
      "velocity": 99,
      "chip": "ym2612"
    },
    {
      "channel": 5,
      "note": 55,
      "start": 25.3905,
      "duration": 0.2347,
      "velocity": 125,
      "chip": "ym2612"
    },
    {
      "channel": 4,
      "note": 95,
      "start": 25.4029,
      "duration": 0.0501,
      "velocity": 98,
      "chip": "ym2612"
    },
    {
      "channel": 4,
      "note": 93,
      "start": 25.4706,
      "duration": 0.6083,
      "velocity": 98,
      "chip": "ym2612"
    },
    {
      "channel": 2,
      "note": 83,
      "start": 25.5055,
      "duration": 0.2009,
      "velocity": 99,
      "chip": "ym2612"
    },
    {
      "channel": 3,
      "note": 71,
      "start": 25.5056,
      "duration": 0.2009,
      "velocity": 89,
      "chip": "ym2612"
    },
    {
      "channel": 5,
      "note": 38,
      "start": 25.6253,
      "duration": 0.1223,
      "velocity": 127,
      "chip": "ym2612"
    },
    {
      "channel": 0,
      "note": 57,
      "start": 25.7473,
      "duration": 0.1955,
      "velocity": 85,
      "chip": "ym2612"
    },
    {
      "channel": 2,
      "note": 83,
      "start": 25.7474,
      "duration": 0.0931,
      "velocity": 99,
      "chip": "ym2612"
    },
    {
      "channel": 3,
      "note": 74,
      "start": 25.7475,
      "duration": 0.197,
      "velocity": 89,
      "chip": "ym2612"
    },
    {
      "channel": 5,
      "note": 44,
      "start": 25.7476,
      "duration": 0.1156,
      "velocity": 127,
      "chip": "ym2612"
    },
    {
      "channel": 5,
      "note": 44,
      "start": 25.8632,
      "duration": 0.121,
      "velocity": 125,
      "chip": "ym2612"
    },
    {
      "channel": 0,
      "note": 57,
      "start": 25.984,
      "duration": 0.0948,
      "velocity": 85,
      "chip": "ym2612"
    },
    {
      "channel": 1,
      "note": 88,
      "start": 25.984,
      "duration": 0.3978,
      "velocity": 101,
      "chip": "ym2612"
    },
    {
      "channel": 2,
      "note": 81,
      "start": 25.9841,
      "duration": 0.0947,
      "velocity": 99,
      "chip": "ym2612"
    },
    {
      "channel": 3,
      "note": 78,
      "start": 25.9842,
      "duration": 0.1964,
      "velocity": 89,
      "chip": "ym2612"
    },
    {
      "channel": 5,
      "note": 49,
      "start": 25.9842,
      "duration": 0.1167,
      "velocity": 125,
      "chip": "ym2612"
    },
    {
      "channel": 0,
      "note": 59,
      "start": 26.1008,
      "duration": 0.0957,
      "velocity": 85,
      "chip": "ym2612"
    },
    {
      "channel": 2,
      "note": 83,
      "start": 26.1008,
      "duration": 0.0957,
      "velocity": 99,
      "chip": "ym2612"
    },
    {
      "channel": 5,
      "note": 57,
      "start": 26.101,
      "duration": 0.1179,
      "velocity": 117,
      "chip": "ym2612"
    },
    {
      "channel": 4,
      "note": 88,
      "start": 26.1807,
      "duration": 0.4031,
      "velocity": 98,
      "chip": "ym2612"
    },
    {
      "channel": 0,
      "note": 59,
      "start": 26.2187,
      "duration": 0.1971,
      "velocity": 85,
      "chip": "ym2612"
    },
    {
      "channel": 3,
      "note": 74,
      "start": 26.2188,
      "duration": 0.1971,
      "velocity": 89,
      "chip": "ym2612"
    },
    {
      "channel": 5,
      "note": 55,
      "start": 26.2189,
      "duration": 0.2391,
      "velocity": 117,
      "chip": "ym2612"
    },
    {
      "channel": 0,
      "note": 50,
      "start": 26.4578,
      "duration": 0.0924,
      "velocity": 85,
      "chip": "ym2612"
    },
    {
      "channel": 1,
      "note": 86,
      "start": 26.4579,
      "duration": 1.02,
      "velocity": 101,
      "chip": "ym2612"
    },
    {
      "channel": 3,
      "note": 83,
      "start": 26.458,
      "duration": 0.0923,
      "velocity": 89,
      "chip": "ym2612"
    },
    {
      "channel": 5,
      "note": 55,
      "start": 26.4581,
      "duration": 0.1135,
      "velocity": 117,
      "chip": "ym2612"
    },
    {
      "channel": 0,
      "note": 52,
      "start": 26.5714,
      "duration": 0.2974,
      "velocity": 85,
      "chip": "ym2612"
    },
    {
      "channel": 3,
      "note": 83,
      "start": 26.5715,
      "duration": 0.0952,
      "velocity": 89,
      "chip": "ym2612"
    },
    {
      "channel": 5,
      "note": 55,
      "start": 26.5716,
      "duration": 0.2343,
      "velocity": 125,
      "chip": "ym2612"
    },
    {
      "channel": 4,
      "note": 86,
      "start": 26.6518,
      "duration": 1.0278,
      "velocity": 98,
      "chip": "ym2612"
    },
    {
      "channel": 2,
      "note": 81,
      "start": 26.6853,
      "duration": 0.0995,
      "velocity": 99,
      "chip": "ym2612"
    },
    {
      "channel": 3,
      "note": 80,
      "start": 26.6854,
      "duration": 0.2007,
      "velocity": 89,
      "chip": "ym2612"
    },
    {
      "channel": 2,
      "note": 83,
      "start": 26.8058,
      "duration": 0.0966,
      "velocity": 99,
      "chip": "ym2612"
    },
    {
      "channel": 5,
      "note": 49,
      "start": 26.8059,
      "duration": 0.1184,
      "velocity": 125,
      "chip": "ym2612"
    },
    {
      "channel": 0,
      "note": 52,
      "start": 26.9241,
      "duration": 0.1975,
      "velocity": 85,
      "chip": "ym2612"
    },
    {
      "channel": 3,
      "note": 76,
      "start": 26.9242,
      "duration": 0.1975,
      "velocity": 89,
      "chip": "ym2612"
    },
    {
      "channel": 5,
      "note": 38,
      "start": 26.9244,
      "duration": 0.2378,
      "velocity": 117,
      "chip": "ym2612"
    },
    {
      "channel": 2,
      "note": 83,
      "start": 27.0382,
      "duration": 0.1002,
      "velocity": 99,
      "chip": "ym2612"
    },
    {
      "channel": 0,
      "note": 59,
      "start": 27.1621,
      "duration": 0.3994,
      "velocity": 85,
      "chip": "ym2612"
    },
    {
      "channel": 3,
      "note": 81,
      "start": 27.1622,
      "duration": 0.1954,
      "velocity": 89,
      "chip": "ym2612"
    },
    {
      "channel": 5,
      "note": 55,
      "start": 27.1623,
      "duration": 0.1174,
      "velocity": 117,
      "chip": "ym2612"
    },
    {
      "channel": 2,
      "note": 81,
      "start": 27.2796,
      "duration": 0.0946,
      "velocity": 99,
      "chip": "ym2612"
    },
    {
      "channel": 5,
      "note": 55,
      "start": 27.2797,
      "duration": 0.233,
      "velocity": 125,
      "chip": "ym2612"
    },
    {
      "channel": 2,
      "note": 83,
      "start": 27.3949,
      "duration": 0.2011,
      "velocity": 99,
      "chip": "ym2612"
    },
    {
      "channel": 3,
      "note": 71,
      "start": 27.395,
      "duration": 0.2011,
      "velocity": 89,
      "chip": "ym2612"
    },
    {
      "channel": 5,
      "note": 38,
      "start": 27.5127,
      "duration": 0.1229,
      "velocity": 127,
      "chip": "ym2612"
    },
    {
      "channel": 0,
      "note": 57,
      "start": 27.6354,
      "duration": 0.1968,
      "velocity": 85,
      "chip": "ym2612"
    },
    {
      "channel": 1,
      "note": 85,
      "start": 27.6354,
      "duration": 0.1968,
      "velocity": 101,
      "chip": "ym2612"
    },
    {
      "channel": 2,
      "note": 83,
      "start": 27.6355,
      "duration": 0.0945,
      "velocity": 99,
      "chip": "ym2612"
    },
    {
      "channel": 3,
      "note": 74,
      "start": 27.6356,
      "duration": 0.1968,
      "velocity": 89,
      "chip": "ym2612"
    },
    {
      "channel": 5,
      "note": 44,
      "start": 27.6357,
      "duration": 0.1149,
      "velocity": 127,
      "chip": "ym2612"
    },
    {
      "channel": 5,
      "note": 44,
      "start": 27.7506,
      "duration": 0.1211,
      "velocity": 125,
      "chip": "ym2612"
    },
    {
      "channel": 4,
      "note": 85,
      "start": 27.8324,
      "duration": 0.2009,
      "velocity": 98,
      "chip": "ym2612"
    },
    {
      "channel": 0,
      "note": 57,
      "start": 27.8715,
      "duration": 0.0945,
      "velocity": 85,
      "chip": "ym2612"
    },
    {
      "channel": 1,
      "note": 86,
      "start": 27.8716,
      "duration": 0.1962,
      "velocity": 101,
      "chip": "ym2612"
    },
    {
      "channel": 2,
      "note": 81,
      "start": 27.8716,
      "duration": 0.0945,
      "velocity": 99,
      "chip": "ym2612"
    },
    {
      "channel": 3,
      "note": 78,
      "start": 27.8717,
      "duration": 0.1961,
      "velocity": 89,
      "chip": "ym2612"
    },
    {
      "channel": 5,
      "note": 49,
      "start": 27.8718,
      "duration": 0.1167,
      "velocity": 125,
      "chip": "ym2612"
    },
    {
      "channel": 0,
      "note": 59,
      "start": 27.9884,
      "duration": 0.0952,
      "velocity": 85,
      "chip": "ym2612"
    },
    {
      "channel": 2,
      "note": 83,
      "start": 27.9884,
      "duration": 0.0952,
      "velocity": 99,
      "chip": "ym2612"
    },
    {
      "channel": 5,
      "note": 57,
      "start": 27.9885,
      "duration": 0.1178,
      "velocity": 117,
      "chip": "ym2612"
    },
    {
      "channel": 4,
      "note": 86,
      "start": 28.0679,
      "duration": 0.2001,
      "velocity": 98,
      "chip": "ym2612"
    },
    {
      "channel": 0,
      "note": 59,
      "start": 28.1062,
      "duration": 0.1959,
      "velocity": 85,
      "chip": "ym2612"
    },
    {
      "channel": 1,
      "note": 88,
      "start": 28.1062,
      "duration": 0.1959,
      "velocity": 101,
      "chip": "ym2612"
    },
    {
      "channel": 3,
      "note": 74,
      "start": 28.1063,
      "duration": 0.1959,
      "velocity": 89,
      "chip": "ym2612"
    },
    {
      "channel": 5,
      "note": 55,
      "start": 28.1064,
      "duration": 0.2388,
      "velocity": 117,
      "chip": "ym2612"
    },
    {
      "channel": 4,
      "note": 88,
      "start": 28.3023,
      "duration": 0.2012,
      "velocity": 98,
      "chip": "ym2612"
    },
    {
      "channel": 0,
      "note": 50,
      "start": 28.3451,
      "duration": 0.091,
      "velocity": 85,
      "chip": "ym2612"
    },
    {
      "channel": 1,
      "note": 83,
      "start": 28.3451,
      "duration": 1.2216,
      "velocity": 101,
      "chip": "ym2612"
    },
    {
      "channel": 3,
      "note": 83,
      "start": 28.3452,
      "duration": 0.091,
      "velocity": 89,
      "chip": "ym2612"
    },
    {
      "channel": 5,
      "note": 55,
      "start": 28.3453,
      "duration": 0.1123,
      "velocity": 117,
      "chip": "ym2612"
    },
    {
      "channel": 0,
      "note": 52,
      "start": 28.4575,
      "duration": 0.2988,
      "velocity": 85,
      "chip": "ym2612"
    },
    {
      "channel": 3,
      "note": 83,
      "start": 28.4576,
      "duration": 0.0964,
      "velocity": 89,
      "chip": "ym2612"
    },
    {
      "channel": 5,
      "note": 55,
      "start": 28.4577,
      "duration": 0.2378,
      "velocity": 125,
      "chip": "ym2612"
    },
    {
      "channel": 4,
      "note": 83,
      "start": 28.5381,
      "duration": 1.2299,
      "velocity": 98,
      "chip": "ym2612"
    },
    {
      "channel": 2,
      "note": 81,
      "start": 28.5726,
      "duration": 0.0994,
      "velocity": 99,
      "chip": "ym2612"
    },
    {
      "channel": 3,
      "note": 80,
      "start": 28.5727,
      "duration": 0.2012,
      "velocity": 89,
      "chip": "ym2612"
    },
    {
      "channel": 2,
      "note": 83,
      "start": 28.6955,
      "duration": 0.0946,
      "velocity": 99,
      "chip": "ym2612"
    },
    {
      "channel": 5,
      "note": 49,
      "start": 28.6956,
      "duration": 0.1182,
      "velocity": 125,
      "chip": "ym2612"
    },
    {
      "channel": 0,
      "note": 52,
      "start": 28.8137,
      "duration": 0.1957,
      "velocity": 85,
      "chip": "ym2612"
    },
    {
      "channel": 3,
      "note": 76,
      "start": 28.8137,
      "duration": 0.1957,
      "velocity": 89,
      "chip": "ym2612"
    },
    {
      "channel": 5,
      "note": 38,
      "start": 28.8139,
      "duration": 0.2361,
      "velocity": 117,
      "chip": "ym2612"
    },
    {
      "channel": 2,
      "note": 83,
      "start": 28.9278,
      "duration": 0.1,
      "velocity": 99,
      "chip": "ym2612"
    },
    {
      "channel": 0,
      "note": 59,
      "start": 29.0498,
      "duration": 0.3993,
      "velocity": 85,
      "chip": "ym2612"
    },
    {
      "channel": 3,
      "note": 81,
      "start": 29.0499,
      "duration": 0.1971,
      "velocity": 89,
      "chip": "ym2612"
    },
    {
      "channel": 5,
      "note": 55,
      "start": 29.05,
      "duration": 0.1174,
      "velocity": 117,
      "chip": "ym2612"
    },
    {
      "channel": 2,
      "note": 83,
      "start": 29.1673,
      "duration": 0.0964,
      "velocity": 99,
      "chip": "ym2612"
    },
    {
      "channel": 5,
      "note": 55,
      "start": 29.1674,
      "duration": 0.2349,
      "velocity": 125,
      "chip": "ym2612"
    },
    {
      "channel": 2,
      "note": 86,
      "start": 29.2827,
      "duration": 0.2009,
      "velocity": 99,
      "chip": "ym2612"
    },
    {
      "channel": 3,
      "note": 71,
      "start": 29.2828,
      "duration": 0.2009,
      "velocity": 89,
      "chip": "ym2612"
    },
    {
      "channel": 5,
      "note": 38,
      "start": 29.4024,
      "duration": 0.1204,
      "velocity": 127,
      "chip": "ym2612"
    },
    {
      "channel": 0,
      "note": 57,
      "start": 29.5226,
      "duration": 0.1951,
      "velocity": 85,
      "chip": "ym2612"
    },
    {
      "channel": 2,
      "note": 85,
      "start": 29.5227,
      "duration": 0.0943,
      "velocity": 99,
      "chip": "ym2612"
    },
    {
      "channel": 3,
      "note": 74,
      "start": 29.5227,
      "duration": 0.195,
      "velocity": 89,
      "chip": "ym2612"
    },
    {
      "channel": 5,
      "note": 44,
      "start": 29.5229,
      "duration": 0.1144,
      "velocity": 127,
      "chip": "ym2612"
    },
    {
      "channel": 5,
      "note": 44,
      "start": 29.6373,
      "duration": 0.1205,
      "velocity": 125,
      "chip": "ym2612"
    },
    {
      "channel": 2,
      "note": 88,
      "start": 29.6852,
      "duration": 0.0494,
      "velocity": 99,
      "chip": "ym2612"
    },
    {
      "channel": 0,
      "note": 57,
      "start": 29.7576,
      "duration": 0.0942,
      "velocity": 85,
      "chip": "ym2612"
    },
    {
      "channel": 2,
      "note": 86,
      "start": 29.7576,
      "duration": 0.0942,
      "velocity": 99,
      "chip": "ym2612"
    },
    {
      "channel": 3,
      "note": 78,
      "start": 29.7578,
      "duration": 0.1958,
      "velocity": 89,
      "chip": "ym2612"
    },
    {
      "channel": 5,
      "note": 49,
      "start": 29.7578,
      "duration": 0.1164,
      "velocity": 125,
      "chip": "ym2612"
    },
    {
      "channel": 0,
      "note": 59,
      "start": 29.8741,
      "duration": 0.0959,
      "velocity": 85,
      "chip": "ym2612"
    },
    {
      "channel": 2,
      "note": 85,
      "start": 29.8741,
      "duration": 0.0959,
      "velocity": 99,
      "chip": "ym2612"
    },
    {
      "channel": 5,
      "note": 57,
      "start": 29.8742,
      "duration": 0.1207,
      "velocity": 117,
      "chip": "ym2612"
    },
    {
      "channel": 0,
      "note": 59,
      "start": 29.9947,
      "duration": 0.1948,
      "velocity": 85,
      "chip": "ym2612"
    },
    {
      "channel": 2,
      "note": 83,
      "start": 29.9948,
      "duration": 0.1947,
      "velocity": 99,
      "chip": "ym2612"
    },
    {
      "channel": 3,
      "note": 74,
      "start": 29.9949,
      "duration": 0.1947,
      "velocity": 89,
      "chip": "ym2612"
    },
    {
      "channel": 5,
      "note": 55,
      "start": 29.995,
      "duration": 0.2382,
      "velocity": 117,
      "chip": "ym2612"
    },
    {
      "channel": 0,
      "note": 60,
      "start": 30.233,
      "duration": 0.5984,
      "velocity": 85,
      "chip": "ym2612"
    },
    {
      "channel": 1,
      "note": 84,
      "start": 30.233,
      "duration": 0.5983,
      "velocity": 101,
      "chip": "ym2612"
    },
    {
      "channel": 3,
      "note": 79,
      "start": 30.2331,
      "duration": 0.0906,
      "velocity": 89,
      "chip": "ym2612"
    },
    {
      "channel": 5,
      "note": 55,
      "start": 30.2332,
      "duration": 0.1133,
      "velocity": 117,
      "chip": "ym2612"
    },
    {
      "channel": 3,
      "note": 79,
      "start": 30.3464,
      "duration": 0.0952,
      "velocity": 89,
      "chip": "ym2612"
    },
    {
      "channel": 5,
      "note": 55,
      "start": 30.3466,
      "duration": 0.2363,
      "velocity": 127,
      "chip": "ym2612"
    },
    {
      "channel": 4,
      "note": 84,
      "start": 30.4281,
      "duration": 0.6051,
      "velocity": 98,
      "chip": "ym2612"
    },
    {
      "channel": 2,
      "note": 81,
      "start": 30.462,
      "duration": 0.0997,
      "velocity": 99,
      "chip": "ym2612"
    },
    {
      "channel": 3,
      "note": 76,
      "start": 30.462,
      "duration": 0.2011,
      "velocity": 89,
      "chip": "ym2612"
    },
    {
      "channel": 2,
      "note": 83,
      "start": 30.5828,
      "duration": 0.0968,
      "velocity": 99,
      "chip": "ym2612"
    },
    {
      "channel": 5,
      "note": 44,
      "start": 30.583,
      "duration": 0.1177,
      "velocity": 127,
      "chip": "ym2612"
    },
    {
      "channel": 3,
      "note": 72,
      "start": 30.7006,
      "duration": 0.1981,
      "velocity": 89,
      "chip": "ym2612"
    },
    {
      "channel": 5,
      "note": 44,
      "start": 30.7007,
      "duration": 0.2372,
      "velocity": 117,
      "chip": "ym2612"
    },
    {
      "channel": 2,
      "note": 83,
      "start": 30.8153,
      "duration": 0.1001,
      "velocity": 99,
      "chip": "ym2612"
    },
    {
      "channel": 0,
      "note": 60,
      "start": 30.9377,
      "duration": 0.3972,
      "velocity": 85,
      "chip": "ym2612"
    },
    {
      "channel": 1,
      "note": 88,
      "start": 30.9377,
      "duration": 0.549,
      "velocity": 101,
      "chip": "ym2612"
    },
    {
      "channel": 3,
      "note": 83,
      "start": 30.9378,
      "duration": 0.1964,
      "velocity": 89,
      "chip": "ym2612"
    },
    {
      "channel": 5,
      "note": 55,
      "start": 30.9379,
      "duration": 0.1167,
      "velocity": 117,
      "chip": "ym2612"
    },
    {
      "channel": 2,
      "note": 83,
      "start": 31.0545,
      "duration": 0.0958,
      "velocity": 99,
      "chip": "ym2612"
    },
    {
      "channel": 5,
      "note": 55,
      "start": 31.0546,
      "duration": 0.1173,
      "velocity": 125,
      "chip": "ym2612"
    },
    {
      "channel": 4,
      "note": 88,
      "start": 31.1344,
      "duration": 0.5545,
      "velocity": 98,
      "chip": "ym2612"
    },
    {
      "channel": 2,
      "note": 83,
      "start": 31.1718,
      "duration": 0.6017,
      "velocity": 99,
      "chip": "ym2612"
    },
    {
      "channel": 3,
      "note": 79,
      "start": 31.1719,
      "duration": 0.1972,
      "velocity": 89,
      "chip": "ym2612"
    },
    {
      "channel": 5,
      "note": 57,
      "start": 31.172,
      "duration": 0.1165,
      "velocity": 125,
      "chip": "ym2612"
    },
    {
      "channel": 5,
      "note": 57,
      "start": 31.2886,
      "duration": 0.119,
      "velocity": 127,
      "chip": "ym2612"
    },
    {
      "channel": 0,
      "note": 60,
      "start": 31.4075,
      "duration": 0.1973,
      "velocity": 85,
      "chip": "ym2612"
    },
    {
      "channel": 3,
      "note": 76,
      "start": 31.4076,
      "duration": 0.1972,
      "velocity": 89,
      "chip": "ym2612"
    },
    {
      "channel": 5,
      "note": 44,
      "start": 31.4077,
      "duration": 0.1176,
      "velocity": 127,
      "chip": "ym2612"
    },
    {
      "channel": 5,
      "note": 44,
      "start": 31.5253,
      "duration": 0.1208,
      "velocity": 125,
      "chip": "ym2612"
    },
    {
      "channel": 1,
      "note": 97,
      "start": 31.5712,
      "duration": 0.0501,
      "velocity": 101,
      "chip": "ym2612"
    },
    {
      "channel": 0,
      "note": 59,
      "start": 31.6459,
      "duration": 0.0937,
      "velocity": 85,
      "chip": "ym2612"
    },
    {
      "channel": 1,
      "note": 95,
      "start": 31.6459,
      "duration": 0.3987,
      "velocity": 101,
      "chip": "ym2612"
    },
    {
      "channel": 3,
      "note": 78,
      "start": 31.646,
      "duration": 0.195,
      "velocity": 89,
      "chip": "ym2612"
    },
    {
      "channel": 5,
      "note": 57,
      "start": 31.6461,
      "duration": 0.1168,
      "velocity": 125,
      "chip": "ym2612"
    },
    {
      "channel": 0,
      "note": 60,
      "start": 31.7628,
      "duration": 0.2986,
      "velocity": 85,
      "chip": "ym2612"
    },
    {
      "channel": 5,
      "note": 57,
      "start": 31.7629,
      "duration": 0.1178,
      "velocity": 117,
      "chip": "ym2612"
    },
    {
      "channel": 4,
      "note": 97,
      "start": 31.7736,
      "duration": 0.0499,
      "velocity": 98,
      "chip": "ym2612"
    },
    {
      "channel": 4,
      "note": 95,
      "start": 31.841,
      "duration": 0.4059,
      "velocity": 98,
      "chip": "ym2612"
    },
    {
      "channel": 3,
      "note": 79,
      "start": 31.8807,
      "duration": 0.198,
      "velocity": 89,
      "chip": "ym2612"
    },
    {
      "channel": 5,
      "note": 55,
      "start": 31.8808,
      "duration": 0.1174,
      "velocity": 117,
      "chip": "ym2612"
    },
    {
      "channel": 5,
      "note": 55,
      "start": 31.9982,
      "duration": 0.1222,
      "velocity": 117,
      "chip": "ym2612"
    },
    {
      "channel": 0,
      "note": 62,
      "start": 32.1202,
      "duration": 0.5968,
      "velocity": 85,
      "chip": "ym2612"
    },
    {
      "channel": 1,
      "note": 93,
      "start": 32.1203,
      "duration": 0.5968,
      "velocity": 101,
      "chip": "ym2612"
    },
    {
      "channel": 3,
      "note": 81,
      "start": 32.1204,
      "duration": 0.0929,
      "velocity": 89,
      "chip": "ym2612"
    },
    {
      "channel": 5,
      "note": 55,
      "start": 32.1205,
      "duration": 0.1136,
      "velocity": 117,
      "chip": "ym2612"
    },
    {
      "channel": 3,
      "note": 81,
      "start": 32.234,
      "duration": 0.0972,
      "velocity": 89,
      "chip": "ym2612"
    },
    {
      "channel": 5,
      "note": 55,
      "start": 32.2342,
      "duration": 0.2363,
      "velocity": 127,
      "chip": "ym2612"
    },
    {
      "channel": 4,
      "note": 93,
      "start": 32.3153,
      "duration": 0.6039,
      "velocity": 98,
      "chip": "ym2612"
    },
    {
      "channel": 2,
      "note": 80,
      "start": 32.3496,
      "duration": 0.0995,
      "velocity": 99,
      "chip": "ym2612"
    },
    {
      "channel": 3,
      "note": 78,
      "start": 32.3497,
      "duration": 0.2011,
      "velocity": 89,
      "chip": "ym2612"
    },
    {
      "channel": 2,
      "note": 81,
      "start": 32.4704,
      "duration": 0.0962,
      "velocity": 99,
      "chip": "ym2612"
    },
    {
      "channel": 5,
      "note": 44,
      "start": 32.4706,
      "duration": 0.1174,
      "velocity": 127,
      "chip": "ym2612"
    },
    {
      "channel": 3,
      "note": 74,
      "start": 32.5879,
      "duration": 0.1973,
      "velocity": 89,
      "chip": "ym2612"
    },
    {
      "channel": 5,
      "note": 44,
      "start": 32.588,
      "duration": 0.236,
      "velocity": 117,
      "chip": "ym2612"
    },
    {
      "channel": 2,
      "note": 81,
      "start": 32.7012,
      "duration": 0.1001,
      "velocity": 99,
      "chip": "ym2612"
    },
    {
      "channel": 0,
      "note": 62,
      "start": 32.8238,
      "duration": 0.3985,
      "velocity": 85,
      "chip": "ym2612"
    },
    {
      "channel": 1,
      "note": 90,
      "start": 32.8239,
      "duration": 0.601,
      "velocity": 101,
      "chip": "ym2612"
    },
    {
      "channel": 3,
      "note": 78,
      "start": 32.8239,
      "duration": 0.1979,
      "velocity": 89,
      "chip": "ym2612"
    },
    {
      "channel": 5,
      "note": 55,
      "start": 32.8241,
      "duration": 0.1165,
      "velocity": 117,
      "chip": "ym2612"
    },
    {
      "channel": 2,
      "note": 81,
      "start": 32.9405,
      "duration": 0.0966,
      "velocity": 99,
      "chip": "ym2612"
    },
    {
      "channel": 5,
      "note": 55,
      "start": 32.9406,
      "duration": 0.121,
      "velocity": 125,
      "chip": "ym2612"
    },
    {
      "channel": 4,
      "note": 90,
      "start": 33.0219,
      "duration": 0.6071,
      "velocity": 98,
      "chip": "ym2612"
    },
    {
      "channel": 2,
      "note": 81,
      "start": 33.0615,
      "duration": 0.3995,
      "velocity": 99,
      "chip": "ym2612"
    },
    {
      "channel": 3,
      "note": 74,
      "start": 33.0615,
      "duration": 0.1954,
      "velocity": 89,
      "chip": "ym2612"
    },
    {
      "channel": 5,
      "note": 57,
      "start": 33.0616,
      "duration": 0.1138,
      "velocity": 125,
      "chip": "ym2612"
    },
    {
      "channel": 5,
      "note": 57,
      "start": 33.1755,
      "duration": 0.1216,
      "velocity": 125,
      "chip": "ym2612"
    },
    {
      "channel": 0,
      "note": 62,
      "start": 33.297,
      "duration": 0.1957,
      "velocity": 85,
      "chip": "ym2612"
    },
    {
      "channel": 3,
      "note": 78,
      "start": 33.297,
      "duration": 0.1973,
      "velocity": 89,
      "chip": "ym2612"
    },
    {
      "channel": 5,
      "note": 57,
      "start": 33.2971,
      "duration": 0.1162,
      "velocity": 125,
      "chip": "ym2612"
    },
    {
      "channel": 5,
      "note": 49,
      "start": 33.4133,
      "duration": 0.1212,
      "velocity": 125,
      "chip": "ym2612"
    },
    {
      "channel": 0,
      "note": 57,
      "start": 33.5343,
      "duration": 0.0946,
      "velocity": 85,
      "chip": "ym2612"
    },
    {
      "channel": 1,
      "note": 91,
      "start": 33.5344,
      "duration": 0.1966,
      "velocity": 101,
      "chip": "ym2612"
    },
    {
      "channel": 2,
      "note": 78,
      "start": 33.5344,
      "duration": 0.3977,
      "velocity": 99,
      "chip": "ym2612"
    },
    {
      "channel": 3,
      "note": 78,
      "start": 33.5345,
      "duration": 0.1966,
      "velocity": 89,
      "chip": "ym2612"
    },
    {
      "channel": 5,
      "note": 49,
      "start": 33.5346,
      "duration": 0.1152,
      "velocity": 125,
      "chip": "ym2612"
    },
    {
      "channel": 0,
      "note": 62,
      "start": 33.6497,
      "duration": 0.2993,
      "velocity": 85,
      "chip": "ym2612"
    },
    {
      "channel": 5,
      "note": 49,
      "start": 33.6499,
      "duration": 0.119,
      "velocity": 125,
      "chip": "ym2612"
    },
    {
      "channel": 4,
      "note": 91,
      "start": 33.7311,
      "duration": 0.2011,
      "velocity": 98,
      "chip": "ym2612"
    },
    {
      "channel": 1,
      "note": 93,
      "start": 33.7687,
      "duration": 0.1979,
      "velocity": 101,
      "chip": "ym2612"
    },
    {
      "channel": 3,
      "note": 81,
      "start": 33.7688,
      "duration": 0.1979,
      "velocity": 89,
      "chip": "ym2612"
    },
    {
      "channel": 5,
      "note": 38,
      "start": 33.7689,
      "duration": 0.1161,
      "velocity": 125,
      "chip": "ym2612"
    },
    {
      "channel": 5,
      "note": 38,
      "start": 33.8851,
      "duration": 0.1235,
      "velocity": 117,
      "chip": "ym2612"
    },
    {
      "channel": 4,
      "note": 93,
      "start": 33.9667,
      "duration": 0.2002,
      "velocity": 98,
      "chip": "ym2612"
    },
    {
      "channel": 0,
      "note": 59,
      "start": 34.0084,
      "duration": 0.0918,
      "velocity": 85,
      "chip": "ym2612"
    },
    {
      "channel": 1,
      "note": 95,
      "start": 34.0085,
      "duration": 1.2217,
      "velocity": 101,
      "chip": "ym2612"
    },
    {
      "channel": 2,
      "note": 80,
      "start": 34.0085,
      "duration": 1.1757,
      "velocity": 99,
      "chip": "ym2612"
    },
    {
      "channel": 3,
      "note": 83,
      "start": 34.0086,
      "duration": 0.0917,
      "velocity": 89,
      "chip": "ym2612"
    },
    {
      "channel": 5,
      "note": 55,
      "start": 34.0087,
      "duration": 0.1131,
      "velocity": 117,
      "chip": "ym2612"
    },
    {
      "channel": 0,
      "note": 61,
      "start": 34.1216,
      "duration": 0.2976,
      "velocity": 85,
      "chip": "ym2612"
    },
    {
      "channel": 3,
      "note": 83,
      "start": 34.1217,
      "duration": 0.0954,
      "velocity": 89,
      "chip": "ym2612"
    },
    {
      "channel": 5,
      "note": 55,
      "start": 34.1218,
      "duration": 0.2335,
      "velocity": 125,
      "chip": "ym2612"
    },
    {
      "channel": 4,
      "note": 95,
      "start": 34.2015,
      "duration": 1.2309,
      "velocity": 98,
      "chip": "ym2612"
    },
    {
      "channel": 3,
      "note": 80,
      "start": 34.2353,
      "duration": 0.2009,
      "velocity": 89,
      "chip": "ym2612"
    },
    {
      "channel": 5,
      "note": 49,
      "start": 34.3554,
      "duration": 0.1191,
      "velocity": 125,
      "chip": "ym2612"
    },
    {
      "channel": 0,
      "note": 61,
      "start": 34.4744,
      "duration": 0.1978,
      "velocity": 85,
      "chip": "ym2612"
    },
    {
      "channel": 3,
      "note": 76,
      "start": 34.4745,
      "duration": 0.1978,
      "velocity": 89,
      "chip": "ym2612"
    },
    {
      "channel": 5,
      "note": 38,
      "start": 34.4746,
      "duration": 0.2378,
      "velocity": 117,
      "chip": "ym2612"
    },
    {
      "channel": 0,
      "note": 59,
      "start": 34.7123,
      "duration": 0.0945,
      "velocity": 85,
      "chip": "ym2612"
    },
    {
      "channel": 3,
      "note": 73,
      "start": 34.7124,
      "duration": 0.1954,
      "velocity": 89,
      "chip": "ym2612"
    },
    {
      "channel": 5,
      "note": 55,
      "start": 34.7125,
      "duration": 0.1172,
      "velocity": 117,
      "chip": "ym2612"
    },
    {
      "channel": 0,
      "note": 61,
      "start": 34.8296,
      "duration": 0.2992,
      "velocity": 85,
      "chip": "ym2612"
    },
    {
      "channel": 5,
      "note": 55,
      "start": 34.8298,
      "duration": 0.2359,
      "velocity": 125,
      "chip": "ym2612"
    },
    {
      "channel": 3,
      "note": 83,
      "start": 34.9426,
      "duration": 0.1021,
      "velocity": 89,
      "chip": "ym2612"
    },
    {
      "channel": 3,
      "note": 83,
      "start": 35.0656,
      "duration": 0.0971,
      "velocity": 89,
      "chip": "ym2612"
    },
    {
      "channel": 5,
      "note": 38,
      "start": 35.0657,
      "duration": 0.1187,
      "velocity": 127,
      "chip": "ym2612"
    },
    {
      "channel": 0,
      "note": 61,
      "start": 35.1842,
      "duration": 0.1975,
      "velocity": 85,
      "chip": "ym2612"
    },
    {
      "channel": 3,
      "note": 80,
      "start": 35.1843,
      "duration": 0.1975,
      "velocity": 89,
      "chip": "ym2612"
    },
    {
      "channel": 5,
      "note": 44,
      "start": 35.1844,
      "duration": 0.1163,
      "velocity": 127,
      "chip": "ym2612"
    },
    {
      "channel": 5,
      "note": 44,
      "start": 35.3008,
      "duration": 0.121,
      "velocity": 125,
      "chip": "ym2612"
    },
    {
      "channel": 2,
      "note": 83,
      "start": 35.3494,
      "duration": 0.049,
      "velocity": 99,
      "chip": "ym2612"
    },
    {
      "channel": 0,
      "note": 59,
      "start": 35.4217,
      "duration": 0.0947,
      "velocity": 85,
      "chip": "ym2612"
    },
    {
      "channel": 2,
      "note": 81,
      "start": 35.4218,
      "duration": 0.1959,
      "velocity": 99,
      "chip": "ym2612"
    },
    {
      "channel": 3,
      "note": 76,
      "start": 35.4218,
      "duration": 0.1959,
      "velocity": 89,
      "chip": "ym2612"
    },
    {
      "channel": 5,
      "note": 49,
      "start": 35.422,
      "duration": 0.1155,
      "velocity": 125,
      "chip": "ym2612"
    },
    {
      "channel": 0,
      "note": 61,
      "start": 35.5373,
      "duration": 0.2974,
      "velocity": 85,
      "chip": "ym2612"
    },
    {
      "channel": 5,
      "note": 57,
      "start": 35.5376,
      "duration": 0.1185,
      "velocity": 117,
      "chip": "ym2612"
    },
    {
      "channel": 2,
      "note": 78,
      "start": 35.6559,
      "duration": 0.1964,
      "velocity": 99,
      "chip": "ym2612"
    },
    {
      "channel": 3,
      "note": 73,
      "start": 35.656,
      "duration": 0.1964,
      "velocity": 89,
      "chip": "ym2612"
    },
    {
      "channel": 5,
      "note": 55,
      "start": 35.6561,
      "duration": 0.2395,
      "velocity": 117,
      "chip": "ym2612"
    },
    {
      "channel": 0,
      "note": 59,
      "start": 35.8954,
      "duration": 0.091,
      "velocity": 85,
      "chip": "ym2612"
    },
    {
      "channel": 2,
      "note": 80,
      "start": 35.8955,
      "duration": 0.3493,
      "velocity": 99,
      "chip": "ym2612"
    },
    {
      "channel": 3,
      "note": 83,
      "start": 35.8956,
      "duration": 0.091,
      "velocity": 89,
      "chip": "ym2612"
    },
    {
      "channel": 5,
      "note": 55,
      "start": 35.8957,
      "duration": 0.1123,
      "velocity": 117,
      "chip": "ym2612"
    },
    {
      "channel": 0,
      "note": 61,
      "start": 36.0078,
      "duration": 0.2988,
      "velocity": 85,
      "chip": "ym2612"
    },
    {
      "channel": 3,
      "note": 83,
      "start": 36.008,
      "duration": 0.0965,
      "velocity": 89,
      "chip": "ym2612"
    },
    {
      "channel": 5,
      "note": 55,
      "start": 36.008,
      "duration": 0.2369,
      "velocity": 125,
      "chip": "ym2612"
    },
    {
      "channel": 3,
      "note": 80,
      "start": 36.122,
      "duration": 0.2016,
      "velocity": 89,
      "chip": "ym2612"
    },
    {
      "channel": 5,
      "note": 49,
      "start": 36.2449,
      "duration": 0.1206,
      "velocity": 125,
      "chip": "ym2612"
    },
    {
      "channel": 2,
      "note": 83,
      "start": 36.2913,
      "duration": 0.049,
      "velocity": 99,
      "chip": "ym2612"
    },
    {
      "channel": 0,
      "note": 61,
      "start": 36.3653,
      "duration": 0.1968,
      "velocity": 85,
      "chip": "ym2612"
    },
    {
      "channel": 2,
      "note": 81,
      "start": 36.3653,
      "duration": 0.1968,
      "velocity": 99,
      "chip": "ym2612"
    },
    {
      "channel": 3,
      "note": 76,
      "start": 36.3655,
      "duration": 0.1967,
      "velocity": 89,
      "chip": "ym2612"
    },
    {
      "channel": 5,
      "note": 38,
      "start": 36.3655,
      "duration": 0.2358,
      "velocity": 117,
      "chip": "ym2612"
    },
    {
      "channel": 0,
      "note": 59,
      "start": 36.6011,
      "duration": 0.095,
      "velocity": 85,
      "chip": "ym2612"
    },
    {
      "channel": 2,
      "note": 78,
      "start": 36.6012,
      "duration": 0.1967,
      "velocity": 99,
      "chip": "ym2612"
    },
    {
      "channel": 3,
      "note": 73,
      "start": 36.6012,
      "duration": 0.1967,
      "velocity": 89,
      "chip": "ym2612"
    },
    {
      "channel": 5,
      "note": 55,
      "start": 36.6013,
      "duration": 0.1158,
      "velocity": 117,
      "chip": "ym2612"
    },
    {
      "channel": 0,
      "note": 61,
      "start": 36.717,
      "duration": 0.2996,
      "velocity": 85,
      "chip": "ym2612"
    },
    {
      "channel": 5,
      "note": 55,
      "start": 36.7172,
      "duration": 0.1194,
      "velocity": 127,
      "chip": "ym2612"
    },
    {
      "channel": 2,
      "note": 80,
      "start": 36.8365,
      "duration": 0.0959,
      "velocity": 99,
      "chip": "ym2612"
    },
    {
      "channel": 3,
      "note": 83,
      "start": 36.8365,
      "duration": 0.0959,
      "velocity": 89,
      "chip": "ym2612"
    },
    {
      "channel": 5,
      "note": 44,
      "start": 36.8366,
      "duration": 0.2361,
      "velocity": 127,
      "chip": "ym2612"
    },
    {
      "channel": 3,
      "note": 83,
      "start": 36.95,
      "duration": 0.1001,
      "velocity": 89,
      "chip": "ym2612"
    },
    {
      "channel": 0,
      "note": 61,
      "start": 37.0726,
      "duration": 0.1962,
      "velocity": 85,
      "chip": "ym2612"
    },
    {
      "channel": 2,
      "note": 80,
      "start": 37.0727,
      "duration": 0.0941,
      "velocity": 99,
      "chip": "ym2612"
    },
    {
      "channel": 3,
      "note": 80,
      "start": 37.0727,
      "duration": 0.1961,
      "velocity": 89,
      "chip": "ym2612"
    },
    {
      "channel": 5,
      "note": 44,
      "start": 37.0729,
      "duration": 0.235,
      "velocity": 117,
      "chip": "ym2612"
    },
    {
      "channel": 0,
      "note": 59,
      "start": 37.3077,
      "duration": 0.0946,
      "velocity": 85,
      "chip": "ym2612"
    },
    {
      "channel": 2,
      "note": 78,
      "start": 37.3078,
      "duration": 0.0946,
      "velocity": 99,
      "chip": "ym2612"
    },
    {
      "channel": 3,
      "note": 76,
      "start": 37.3078,
      "duration": 0.0947,
      "velocity": 89,
      "chip": "ym2612"
    },
    {
      "channel": 5,
      "note": 55,
      "start": 37.308,
      "duration": 0.1171,
      "velocity": 127,
      "chip": "ym2612"
    },
    {
      "channel": 0,
      "note": 61,
      "start": 37.4248,
      "duration": 0.2977,
      "velocity": 85,
      "chip": "ym2612"
    },
    {
      "channel": 2,
      "note": 80,
      "start": 37.4249,
      "duration": 0.2976,
      "velocity": 99,
      "chip": "ym2612"
    },
    {
      "channel": 3,
      "note": 76,
      "start": 37.425,
      "duration": 0.0964,
      "velocity": 89,
      "chip": "ym2612"
    },
    {
      "channel": 5,
      "note": 44,
      "start": 37.4251,
      "duration": 0.1158,
      "velocity": 127,
      "chip": "ym2612"
    },
    {
      "channel": 3,
      "note": 73,
      "start": 37.5409,
      "duration": 0.0973,
      "velocity": 89,
      "chip": "ym2612"
    },
    {
      "channel": 5,
      "note": 44,
      "start": 37.541,
      "duration": 0.1199,
      "velocity": 127,
      "chip": "ym2612"
    },
    {
      "channel": 3,
      "note": 73,
      "start": 37.6594,
      "duration": 0.0967,
      "velocity": 89,
      "chip": "ym2612"
    },
    {
      "channel": 5,
      "note": 44,
      "start": 37.661,
      "duration": 0.1225,
      "velocity": 117,
      "chip": "ym2612"
    },
    {
      "channel": 0,
      "note": 60,
      "start": 37.7833,
      "duration": 0.5983,
      "velocity": 85,
      "chip": "ym2612"
    },
    {
      "channel": 1,
      "note": 84,
      "start": 37.7833,
      "duration": 0.5983,
      "velocity": 101,
      "chip": "ym2612"
    },
    {
      "channel": 3,
      "note": 79,
      "start": 37.7834,
      "duration": 0.0906,
      "velocity": 89,
      "chip": "ym2612"
    },
    {
      "channel": 5,
      "note": 55,
      "start": 37.7835,
      "duration": 0.1134,
      "velocity": 117,
      "chip": "ym2612"
    },
    {
      "channel": 3,
      "note": 79,
      "start": 37.8968,
      "duration": 0.0957,
      "velocity": 89,
      "chip": "ym2612"
    },
    {
      "channel": 5,
      "note": 55,
      "start": 37.897,
      "duration": 0.2362,
      "velocity": 127,
      "chip": "ym2612"
    },
    {
      "channel": 4,
      "note": 84,
      "start": 37.9784,
      "duration": 0.6049,
      "velocity": 98,
      "chip": "ym2612"
    },
    {
      "channel": 2,
      "note": 81,
      "start": 38.0103,
      "duration": 0.1015,
      "velocity": 99,
      "chip": "ym2612"
    },
    {
      "channel": 3,
      "note": 76,
      "start": 38.0104,
      "duration": 0.2031,
      "velocity": 89,
      "chip": "ym2612"
    },
    {
      "channel": 2,
      "note": 83,
      "start": 38.1331,
      "duration": 0.0968,
      "velocity": 99,
      "chip": "ym2612"
    },
    {
      "channel": 5,
      "note": 44,
      "start": 38.1332,
      "duration": 0.1178,
      "velocity": 127,
      "chip": "ym2612"
    },
    {
      "channel": 3,
      "note": 72,
      "start": 38.251,
      "duration": 0.1981,
      "velocity": 89,
      "chip": "ym2612"
    },
    {
      "channel": 5,
      "note": 44,
      "start": 38.251,
      "duration": 0.2374,
      "velocity": 117,
      "chip": "ym2612"
    },
    {
      "channel": 2,
      "note": 83,
      "start": 38.3656,
      "duration": 0.1001,
      "velocity": 99,
      "chip": "ym2612"
    },
    {
      "channel": 0,
      "note": 60,
      "start": 38.4882,
      "duration": 0.3969,
      "velocity": 85,
      "chip": "ym2612"
    },
    {
      "channel": 1,
      "note": 88,
      "start": 38.4883,
      "duration": 0.5487,
      "velocity": 101,
      "chip": "ym2612"
    },
    {
      "channel": 3,
      "note": 83,
      "start": 38.4884,
      "duration": 0.1959,
      "velocity": 89,
      "chip": "ym2612"
    },
    {
      "channel": 5,
      "note": 55,
      "start": 38.4885,
      "duration": 0.1162,
      "velocity": 117,
      "chip": "ym2612"
    },
    {
      "channel": 2,
      "note": 83,
      "start": 38.6046,
      "duration": 0.0956,
      "velocity": 99,
      "chip": "ym2612"
    },
    {
      "channel": 5,
      "note": 55,
      "start": 38.6048,
      "duration": 0.1174,
      "velocity": 125,
      "chip": "ym2612"
    },
    {
      "channel": 4,
      "note": 88,
      "start": 38.6844,
      "duration": 0.5549,
      "velocity": 98,
      "chip": "ym2612"
    },
    {
      "channel": 2,
      "note": 83,
      "start": 38.722,
      "duration": 0.6019,
      "velocity": 99,
      "chip": "ym2612"
    },
    {
      "channel": 3,
      "note": 79,
      "start": 38.7221,
      "duration": 0.1973,
      "velocity": 89,
      "chip": "ym2612"
    },
    {
      "channel": 5,
      "note": 57,
      "start": 38.7222,
      "duration": 0.1162,
      "velocity": 125,
      "chip": "ym2612"
    },
    {
      "channel": 5,
      "note": 57,
      "start": 38.8385,
      "duration": 0.1193,
      "velocity": 127,
      "chip": "ym2612"
    },
    {
      "channel": 0,
      "note": 60,
      "start": 38.9576,
      "duration": 0.1973,
      "velocity": 85,
      "chip": "ym2612"
    },
    {
      "channel": 3,
      "note": 76,
      "start": 38.9577,
      "duration": 0.1973,
      "velocity": 89,
      "chip": "ym2612"
    },
    {
      "channel": 5,
      "note": 44,
      "start": 38.9578,
      "duration": 0.1168,
      "velocity": 127,
      "chip": "ym2612"
    },
    {
      "channel": 5,
      "note": 44,
      "start": 39.0746,
      "duration": 0.1216,
      "velocity": 125,
      "chip": "ym2612"
    },
    {
      "channel": 1,
      "note": 97,
      "start": 39.1215,
      "duration": 0.0502,
      "velocity": 101,
      "chip": "ym2612"
    },
    {
      "channel": 0,
      "note": 59,
      "start": 39.1961,
      "duration": 0.0937,
      "velocity": 85,
      "chip": "ym2612"
    },
    {
      "channel": 1,
      "note": 95,
      "start": 39.1961,
      "duration": 0.3989,
      "velocity": 101,
      "chip": "ym2612"
    },
    {
      "channel": 3,
      "note": 78,
      "start": 39.1962,
      "duration": 0.1951,
      "velocity": 89,
      "chip": "ym2612"
    },
    {
      "channel": 5,
      "note": 57,
      "start": 39.1963,
      "duration": 0.1168,
      "velocity": 125,
      "chip": "ym2612"
    },
    {
      "channel": 0,
      "note": 60,
      "start": 39.313,
      "duration": 0.2988,
      "velocity": 85,
      "chip": "ym2612"
    },
    {
      "channel": 5,
      "note": 57,
      "start": 39.3131,
      "duration": 0.1179,
      "velocity": 117,
      "chip": "ym2612"
    },
    {
      "channel": 4,
      "note": 97,
      "start": 39.324,
      "duration": 0.0499,
      "velocity": 98,
      "chip": "ym2612"
    },
    {
      "channel": 4,
      "note": 95,
      "start": 39.3914,
      "duration": 0.406,
      "velocity": 98,
      "chip": "ym2612"
    },
    {
      "channel": 3,
      "note": 79,
      "start": 39.4309,
      "duration": 0.1981,
      "velocity": 89,
      "chip": "ym2612"
    },
    {
      "channel": 5,
      "note": 55,
      "start": 39.431,
      "duration": 0.1175,
      "velocity": 117,
      "chip": "ym2612"
    },
    {
      "channel": 5,
      "note": 55,
      "start": 39.5486,
      "duration": 0.122,
      "velocity": 117,
      "chip": "ym2612"
    },
    {
      "channel": 0,
      "note": 62,
      "start": 39.6704,
      "duration": 0.5977,
      "velocity": 85,
      "chip": "ym2612"
    },
    {
      "channel": 1,
      "note": 93,
      "start": 39.6705,
      "duration": 0.5977,
      "velocity": 101,
      "chip": "ym2612"
    },
    {
      "channel": 3,
      "note": 81,
      "start": 39.6706,
      "duration": 0.0931,
      "velocity": 89,
      "chip": "ym2612"
    },
    {
      "channel": 5,
      "note": 55,
      "start": 39.6707,
      "duration": 0.1139,
      "velocity": 117,
      "chip": "ym2612"
    },
    {
      "channel": 3,
      "note": 81,
      "start": 39.7845,
      "duration": 0.0969,
      "velocity": 89,
      "chip": "ym2612"
    },
    {
      "channel": 5,
      "note": 55,
      "start": 39.7846,
      "duration": 0.2363,
      "velocity": 127,
      "chip": "ym2612"
    },
    {
      "channel": 4,
      "note": 93,
      "start": 39.8657,
      "duration": 0.6038,
      "velocity": 98,
      "chip": "ym2612"
    },
    {
      "channel": 2,
      "note": 80,
      "start": 39.9001,
      "duration": 0.0994,
      "velocity": 99,
      "chip": "ym2612"
    },
    {
      "channel": 3,
      "note": 78,
      "start": 39.9002,
      "duration": 0.2006,
      "velocity": 89,
      "chip": "ym2612"
    },
    {
      "channel": 2,
      "note": 81,
      "start": 40.0208,
      "duration": 0.0961,
      "velocity": 99,
      "chip": "ym2612"
    },
    {
      "channel": 5,
      "note": 44,
      "start": 40.0209,
      "duration": 0.1171,
      "velocity": 127,
      "chip": "ym2612"
    },
    {
      "channel": 3,
      "note": 74,
      "start": 40.1379,
      "duration": 0.1968,
      "velocity": 89,
      "chip": "ym2612"
    },
    {
      "channel": 5,
      "note": 44,
      "start": 40.138,
      "duration": 0.2359,
      "velocity": 117,
      "chip": "ym2612"
    },
    {
      "channel": 2,
      "note": 81,
      "start": 40.2513,
      "duration": 0.1002,
      "velocity": 99,
      "chip": "ym2612"
    },
    {
      "channel": 0,
      "note": 62,
      "start": 40.3737,
      "duration": 0.3992,
      "velocity": 85,
      "chip": "ym2612"
    },
    {
      "channel": 1,
      "note": 90,
      "start": 40.3737,
      "duration": 0.6014,
      "velocity": 101,
      "chip": "ym2612"
    },
    {
      "channel": 3,
      "note": 78,
      "start": 40.3738,
      "duration": 0.1974,
      "velocity": 89,
      "chip": "ym2612"
    },
    {
      "channel": 5,
      "note": 55,
      "start": 40.3739,
      "duration": 0.1169,
      "velocity": 117,
      "chip": "ym2612"
    },
    {
      "channel": 2,
      "note": 81,
      "start": 40.4907,
      "duration": 0.0966,
      "velocity": 99,
      "chip": "ym2612"
    },
    {
      "channel": 5,
      "note": 55,
      "start": 40.4909,
      "duration": 0.1209,
      "velocity": 125,
      "chip": "ym2612"
    },
    {
      "channel": 4,
      "note": 90,
      "start": 40.5712,
      "duration": 0.608,
      "velocity": 98,
      "chip": "ym2612"
    },
    {
      "channel": 2,
      "note": 81,
      "start": 40.6117,
      "duration": 0.3975,
      "velocity": 99,
      "chip": "ym2612"
    },
    {
      "channel": 3,
      "note": 74,
      "start": 40.6118,
      "duration": 0.1954,
      "velocity": 89,
      "chip": "ym2612"
    },
    {
      "channel": 5,
      "note": 57,
      "start": 40.6118,
      "duration": 0.116,
      "velocity": 125,
      "chip": "ym2612"
    },
    {
      "channel": 5,
      "note": 57,
      "start": 40.7279,
      "duration": 0.1195,
      "velocity": 125,
      "chip": "ym2612"
    },
    {
      "channel": 0,
      "note": 62,
      "start": 40.8472,
      "duration": 0.1973,
      "velocity": 85,
      "chip": "ym2612"
    },
    {
      "channel": 3,
      "note": 78,
      "start": 40.8473,
      "duration": 0.1973,
      "velocity": 89,
      "chip": "ym2612"
    },
    {
      "channel": 5,
      "note": 57,
      "start": 40.8475,
      "duration": 0.1163,
      "velocity": 125,
      "chip": "ym2612"
    },
    {
      "channel": 5,
      "note": 49,
      "start": 40.9639,
      "duration": 0.121,
      "velocity": 125,
      "chip": "ym2612"
    },
    {
      "channel": 0,
      "note": 57,
      "start": 41.0846,
      "duration": 0.0946,
      "velocity": 85,
      "chip": "ym2612"
    },
    {
      "channel": 1,
      "note": 91,
      "start": 41.0847,
      "duration": 0.1967,
      "velocity": 101,
      "chip": "ym2612"
    },
    {
      "channel": 2,
      "note": 78,
      "start": 41.0847,
      "duration": 0.3978,
      "velocity": 99,
      "chip": "ym2612"
    },
    {
      "channel": 3,
      "note": 78,
      "start": 41.0848,
      "duration": 0.1966,
      "velocity": 89,
      "chip": "ym2612"
    },
    {
      "channel": 5,
      "note": 49,
      "start": 41.0849,
      "duration": 0.1152,
      "velocity": 125,
      "chip": "ym2612"
    },
    {
      "channel": 0,
      "note": 62,
      "start": 41.2,
      "duration": 0.2993,
      "velocity": 85,
      "chip": "ym2612"
    },
    {
      "channel": 5,
      "note": 49,
      "start": 41.2001,
      "duration": 0.1191,
      "velocity": 125,
      "chip": "ym2612"
    },
    {
      "channel": 4,
      "note": 91,
      "start": 41.2815,
      "duration": 0.2011,
      "velocity": 98,
      "chip": "ym2612"
    },
    {
      "channel": 1,
      "note": 93,
      "start": 41.3192,
      "duration": 0.1978,
      "velocity": 101,
      "chip": "ym2612"
    },
    {
      "channel": 3,
      "note": 81,
      "start": 41.3192,
      "duration": 0.1978,
      "velocity": 89,
      "chip": "ym2612"
    },
    {
      "channel": 5,
      "note": 38,
      "start": 41.3193,
      "duration": 0.1162,
      "velocity": 125,
      "chip": "ym2612"
    },
    {
      "channel": 5,
      "note": 38,
      "start": 41.4355,
      "duration": 0.125,
      "velocity": 117,
      "chip": "ym2612"
    },
    {
      "channel": 4,
      "note": 93,
      "start": 41.5171,
      "duration": 0.1998,
      "velocity": 98,
      "chip": "ym2612"
    },
    {
      "channel": 0,
      "note": 50,
      "start": 41.5587,
      "duration": 0.0915,
      "velocity": 85,
      "chip": "ym2612"
    },
    {
      "channel": 1,
      "note": 95,
      "start": 41.5588,
      "duration": 1.2216,
      "velocity": 101,
      "chip": "ym2612"
    },
    {
      "channel": 2,
      "note": 80,
      "start": 41.5588,
      "duration": 1.1755,
      "velocity": 99,
      "chip": "ym2612"
    },
    {
      "channel": 3,
      "note": 83,
      "start": 41.5589,
      "duration": 0.0914,
      "velocity": 89,
      "chip": "ym2612"
    },
    {
      "channel": 5,
      "note": 55,
      "start": 41.5605,
      "duration": 0.1112,
      "velocity": 117,
      "chip": "ym2612"
    },
    {
      "channel": 0,
      "note": 52,
      "start": 41.6716,
      "duration": 0.2978,
      "velocity": 85,
      "chip": "ym2612"
    },
    {
      "channel": 3,
      "note": 83,
      "start": 41.6716,
      "duration": 0.0955,
      "velocity": 89,
      "chip": "ym2612"
    },
    {
      "channel": 5,
      "note": 55,
      "start": 41.6718,
      "duration": 0.2338,
      "velocity": 125,
      "chip": "ym2612"
    },
    {
      "channel": 4,
      "note": 95,
      "start": 41.7515,
      "duration": 1.231,
      "velocity": 98,
      "chip": "ym2612"
    },
    {
      "channel": 3,
      "note": 80,
      "start": 41.7856,
      "duration": 0.2008,
      "velocity": 89,
      "chip": "ym2612"
    },
    {
      "channel": 5,
      "note": 49,
      "start": 41.9056,
      "duration": 0.1221,
      "velocity": 125,
      "chip": "ym2612"
    },
    {
      "channel": 0,
      "note": 52,
      "start": 42.0275,
      "duration": 0.1949,
      "velocity": 85,
      "chip": "ym2612"
    },
    {
      "channel": 3,
      "note": 76,
      "start": 42.0276,
      "duration": 0.1949,
      "velocity": 89,
      "chip": "ym2612"
    },
    {
      "channel": 5,
      "note": 38,
      "start": 42.0277,
      "duration": 0.2349,
      "velocity": 117,
      "chip": "ym2612"
    },
    {
      "channel": 0,
      "note": 50,
      "start": 42.2625,
      "duration": 0.0946,
      "velocity": 85,
      "chip": "ym2612"
    },
    {
      "channel": 3,
      "note": 83,
      "start": 42.2625,
      "duration": 0.0946,
      "velocity": 89,
      "chip": "ym2612"
    },
    {
      "channel": 5,
      "note": 55,
      "start": 42.2627,
      "duration": 0.118,
      "velocity": 117,
      "chip": "ym2612"
    },
    {
      "channel": 0,
      "note": 52,
      "start": 42.3805,
      "duration": 0.2987,
      "velocity": 85,
      "chip": "ym2612"
    },
    {
      "channel": 3,
      "note": 83,
      "start": 42.3806,
      "duration": 0.0945,
      "velocity": 89,
      "chip": "ym2612"
    },
    {
      "channel": 5,
      "note": 55,
      "start": 42.3807,
      "duration": 0.2346,
      "velocity": 125,
      "chip": "ym2612"
    },
    {
      "channel": 3,
      "note": 80,
      "start": 42.4944,
      "duration": 0.2017,
      "velocity": 89,
      "chip": "ym2612"
    },
    {
      "channel": 5,
      "note": 38,
      "start": 42.6153,
      "duration": 0.1192,
      "velocity": 127,
      "chip": "ym2612"
    },
    {
      "channel": 0,
      "note": 52,
      "start": 42.7343,
      "duration": 0.1978,
      "velocity": 85,
      "chip": "ym2612"
    },
    {
      "channel": 3,
      "note": 76,
      "start": 42.7344,
      "duration": 0.1978,
      "velocity": 89,
      "chip": "ym2612"
    },
    {
      "channel": 5,
      "note": 44,
      "start": 42.7346,
      "duration": 0.1165,
      "velocity": 127,
      "chip": "ym2612"
    },
    {
      "channel": 5,
      "note": 44,
      "start": 42.8512,
      "duration": 0.1211,
      "velocity": 125,
      "chip": "ym2612"
    },
    {
      "channel": 2,
      "note": 83,
      "start": 42.8998,
      "duration": 0.049,
      "velocity": 99,
      "chip": "ym2612"
    },
    {
      "channel": 0,
      "note": 50,
      "start": 42.972,
      "duration": 0.0945,
      "velocity": 85,
      "chip": "ym2612"
    },
    {
      "channel": 2,
      "note": 81,
      "start": 42.9721,
      "duration": 0.1955,
      "velocity": 99,
      "chip": "ym2612"
    },
    {
      "channel": 3,
      "note": 83,
      "start": 42.9722,
      "duration": 0.0944,
      "velocity": 89,
      "chip": "ym2612"
    },
    {
      "channel": 5,
      "note": 49,
      "start": 42.9723,
      "duration": 0.1159,
      "velocity": 125,
      "chip": "ym2612"
    },
    {
      "channel": 0,
      "note": 52,
      "start": 43.088,
      "duration": 0.2969,
      "velocity": 85,
      "chip": "ym2612"
    },
    {
      "channel": 3,
      "note": 83,
      "start": 43.0881,
      "duration": 0.0955,
      "velocity": 89,
      "chip": "ym2612"
    },
    {
      "channel": 5,
      "note": 57,
      "start": 43.0882,
      "duration": 0.1177,
      "velocity": 117,
      "chip": "ym2612"
    },
    {
      "channel": 2,
      "note": 78,
      "start": 43.2058,
      "duration": 0.1967,
      "velocity": 99,
      "chip": "ym2612"
    },
    {
      "channel": 3,
      "note": 76,
      "start": 43.2059,
      "duration": 0.1967,
      "velocity": 89,
      "chip": "ym2612"
    },
    {
      "channel": 5,
      "note": 55,
      "start": 43.206,
      "duration": 0.2402,
      "velocity": 117,
      "chip": "ym2612"
    },
    {
      "channel": 0,
      "note": 50,
      "start": 43.446,
      "duration": 0.0908,
      "velocity": 85,
      "chip": "ym2612"
    },
    {
      "channel": 2,
      "note": 80,
      "start": 43.4461,
      "duration": 0.0908,
      "velocity": 99,
      "chip": "ym2612"
    },
    {
      "channel": 3,
      "note": 83,
      "start": 43.4461,
      "duration": 0.0908,
      "velocity": 89,
      "chip": "ym2612"
    },
    {
      "channel": 5,
      "note": 55,
      "start": 43.4463,
      "duration": 0.1163,
      "velocity": 117,
      "chip": "ym2612"
    },
    {
      "channel": 0,
      "note": 52,
      "start": 43.5624,
      "duration": 0.2947,
      "velocity": 85,
      "chip": "ym2612"
    },
    {
      "channel": 2,
      "note": 81,
      "start": 43.5624,
      "duration": 0.0924,
      "velocity": 99,
      "chip": "ym2612"
    },
    {
      "channel": 3,
      "note": 83,
      "start": 43.5625,
      "duration": 0.0924,
      "velocity": 89,
      "chip": "ym2612"
    },
    {
      "channel": 5,
      "note": 55,
      "start": 43.5626,
      "duration": 0.2341,
      "velocity": 125,
      "chip": "ym2612"
    },
    {
      "channel": 2,
      "note": 80,
      "start": 43.6737,
      "duration": 0.0991,
      "velocity": 99,
      "chip": "ym2612"
    },
    {
      "channel": 3,
      "note": 80,
      "start": 43.6738,
      "duration": 0.2006,
      "velocity": 89,
      "chip": "ym2612"
    },
    {
      "channel": 2,
      "note": 81,
      "start": 43.7966,
      "duration": 0.0941,
      "velocity": 99,
      "chip": "ym2612"
    },
    {
      "channel": 5,
      "note": 49,
      "start": 43.7967,
      "duration": 0.1198,
      "velocity": 125,
      "chip": "ym2612"
    },
    {
      "channel": 0,
      "note": 52,
      "start": 43.9163,
      "duration": 0.196,
      "velocity": 85,
      "chip": "ym2612"
    },
    {
      "channel": 2,
      "note": 80,
      "start": 43.9163,
      "duration": 0.0923,
      "velocity": 99,
      "chip": "ym2612"
    },
    {
      "channel": 3,
      "note": 76,
      "start": 43.9164,
      "duration": 0.196,
      "velocity": 89,
      "chip": "ym2612"
    },
    {
      "channel": 5,
      "note": 38,
      "start": 43.9166,
      "duration": 0.2353,
      "velocity": 117,
      "chip": "ym2612"
    },
    {
      "channel": 2,
      "note": 81,
      "start": 44.029,
      "duration": 0.0995,
      "velocity": 99,
      "chip": "ym2612"
    },
    {
      "channel": 0,
      "note": 50,
      "start": 44.1517,
      "duration": 0.0951,
      "velocity": 85,
      "chip": "ym2612"
    },
    {
      "channel": 2,
      "note": 80,
      "start": 44.1517,
      "duration": 0.095,
      "velocity": 99,
      "chip": "ym2612"
    },
    {
      "channel": 3,
      "note": 83,
      "start": 44.1518,
      "duration": 0.095,
      "velocity": 89,
      "chip": "ym2612"
    },
    {
      "channel": 5,
      "note": 55,
      "start": 44.1519,
      "duration": 0.1177,
      "velocity": 117,
      "chip": "ym2612"
    },
    {
      "channel": 0,
      "note": 52,
      "start": 44.2695,
      "duration": 0.2971,
      "velocity": 85,
      "chip": "ym2612"
    },
    {
      "channel": 2,
      "note": 81,
      "start": 44.2695,
      "duration": 0.0951,
      "velocity": 99,
      "chip": "ym2612"
    },
    {
      "channel": 3,
      "note": 83,
      "start": 44.2696,
      "duration": 0.0952,
      "velocity": 89,
      "chip": "ym2612"
    },
    {
      "channel": 5,
      "note": 55,
      "start": 44.2697,
      "duration": 0.1183,
      "velocity": 127,
      "chip": "ym2612"
    },
    {
      "channel": 2,
      "note": 80,
      "start": 44.3879,
      "duration": 0.0946,
      "velocity": 99,
      "chip": "ym2612"
    },
    {
      "channel": 3,
      "note": 80,
      "start": 44.3879,
      "duration": 0.196,
      "velocity": 89,
      "chip": "ym2612"
    },
    {
      "channel": 5,
      "note": 44,
      "start": 44.388,
      "duration": 0.1163,
      "velocity": 127,
      "chip": "ym2612"
    },
    {
      "channel": 2,
      "note": 81,
      "start": 44.5042,
      "duration": 0.0958,
      "velocity": 99,
      "chip": "ym2612"
    },
    {
      "channel": 5,
      "note": 44,
      "start": 44.5043,
      "duration": 0.1189,
      "velocity": 125,
      "chip": "ym2612"
    },
    {
      "channel": 0,
      "note": 52,
      "start": 44.623,
      "duration": 0.1957,
      "velocity": 85,
      "chip": "ym2612"
    },
    {
      "channel": 2,
      "note": 80,
      "start": 44.623,
      "duration": 0.0939,
      "velocity": 99,
      "chip": "ym2612"
    },
    {
      "channel": 3,
      "note": 76,
      "start": 44.6232,
      "duration": 0.1955,
      "velocity": 89,
      "chip": "ym2612"
    },
    {
      "channel": 5,
      "note": 49,
      "start": 44.6232,
      "duration": 0.1153,
      "velocity": 125,
      "chip": "ym2612"
    },
    {
      "channel": 2,
      "note": 81,
      "start": 44.7385,
      "duration": 0.0962,
      "velocity": 99,
      "chip": "ym2612"
    },
    {
      "channel": 5,
      "note": 38,
      "start": 44.7386,
      "duration": 0.1199,
      "velocity": 127,
      "chip": "ym2612"
    },
    {
      "channel": 0,
      "note": 50,
      "start": 44.8583,
      "duration": 0.0943,
      "velocity": 85,
      "chip": "ym2612"
    },
    {
      "channel": 2,
      "note": 80,
      "start": 44.8584,
      "duration": 0.0943,
      "velocity": 99,
      "chip": "ym2612"
    },
    {
      "channel": 3,
      "note": 83,
      "start": 44.8585,
      "duration": 0.0943,
      "velocity": 89,
      "chip": "ym2612"
    },
    {
      "channel": 5,
      "note": 44,
      "start": 44.8586,
      "duration": 0.1175,
      "velocity": 127,
      "chip": "ym2612"
    },
    {
      "channel": 0,
      "note": 52,
      "start": 44.9755,
      "duration": 0.2971,
      "velocity": 85,
      "chip": "ym2612"
    },
    {
      "channel": 2,
      "note": 81,
      "start": 44.976,
      "duration": 0.0945,
      "velocity": 99,
      "chip": "ym2612"
    },
    {
      "channel": 3,
      "note": 83,
      "start": 44.976,
      "duration": 0.0945,
      "velocity": 89,
      "chip": "ym2612"
    },
    {
      "channel": 5,
      "note": 44,
      "start": 44.9761,
      "duration": 0.1186,
      "velocity": 127,
      "chip": "ym2612"
    },
    {
      "channel": 2,
      "note": 80,
      "start": 45.0947,
      "duration": 0.0938,
      "velocity": 99,
      "chip": "ym2612"
    },
    {
      "channel": 3,
      "note": 76,
      "start": 45.0947,
      "duration": 0.1954,
      "velocity": 89,
      "chip": "ym2612"
    },
    {
      "channel": 5,
      "note": 44,
      "start": 45.0949,
      "duration": 0.1173,
      "velocity": 127,
      "chip": "ym2612"
    },
    {
      "channel": 2,
      "note": 81,
      "start": 45.2121,
      "duration": 0.0944,
      "velocity": 99,
      "chip": "ym2612"
    },
    {
      "channel": 5,
      "note": 44,
      "start": 45.2122,
      "duration": 0.1216,
      "velocity": 117,
      "chip": "ym2612"
    },
    {
      "channel": 0,
      "note": 55,
      "start": 45.3336,
      "duration": 0.0907,
      "velocity": 85,
      "chip": "ym2612"
    },
    {
      "channel": 1,
      "note": 91,
      "start": 45.3337,
      "duration": 1.0181,
      "velocity": 101,
      "chip": "ym2612"
    },
    {
      "channel": 3,
      "note": 79,
      "start": 45.3337,
      "duration": 0.0907,
      "velocity": 89,
      "chip": "ym2612"
    },
    {
      "channel": 5,
      "note": 55,
      "start": 45.3339,
      "duration": 0.1141,
      "velocity": 117,
      "chip": "ym2612"
    },
    {
      "channel": 0,
      "note": 57,
      "start": 45.4478,
      "duration": 0.2988,
      "velocity": 85,
      "chip": "ym2612"
    },
    {
      "channel": 3,
      "note": 79,
      "start": 45.4478,
      "duration": 0.0949,
      "velocity": 89,
      "chip": "ym2612"
    },
    {
      "channel": 5,
      "note": 55,
      "start": 45.448,
      "duration": 0.1182,
      "velocity": 127,
      "chip": "ym2612"
    },
    {
      "channel": 4,
      "note": 91,
      "start": 45.5286,
      "duration": 1.0251,
      "velocity": 98,
      "chip": "ym2612"
    },
    {
      "channel": 2,
      "note": 74,
      "start": 45.566,
      "duration": 0.0961,
      "velocity": 99,
      "chip": "ym2612"
    },
    {
      "channel": 3,
      "note": 72,
      "start": 45.5661,
      "duration": 0.1978,
      "velocity": 89,
      "chip": "ym2612"
    },
    {
      "channel": 5,
      "note": 57,
      "start": 45.5662,
      "duration": 0.1174,
      "velocity": 125,
      "chip": "ym2612"
    },
    {
      "channel": 2,
      "note": 76,
      "start": 45.6835,
      "duration": 0.0968,
      "velocity": 99,
      "chip": "ym2612"
    },
    {
      "channel": 5,
      "note": 38,
      "start": 45.6837,
      "duration": 0.1185,
      "velocity": 125,
      "chip": "ym2612"
    },
    {
      "channel": 0,
      "note": 57,
      "start": 45.8019,
      "duration": 0.1974,
      "velocity": 85,
      "chip": "ym2612"
    },
    {
      "channel": 3,
      "note": 69,
      "start": 45.802,
      "duration": 0.1975,
      "velocity": 89,
      "chip": "ym2612"
    },
    {
      "channel": 5,
      "note": 38,
      "start": 45.8022,
      "duration": 0.2358,
      "velocity": 117,
      "chip": "ym2612"
    },
    {
      "channel": 2,
      "note": 76,
      "start": 45.9159,
      "duration": 0.1002,
      "velocity": 99,
      "chip": "ym2612"
    },
    {
      "channel": 0,
      "note": 57,
      "start": 46.0378,
      "duration": 0.3976,
      "velocity": 85,
      "chip": "ym2612"
    },
    {
      "channel": 3,
      "note": 72,
      "start": 46.0379,
      "duration": 0.1957,
      "velocity": 89,
      "chip": "ym2612"
    },
    {
      "channel": 5,
      "note": 55,
      "start": 46.038,
      "duration": 0.117,
      "velocity": 117,
      "chip": "ym2612"
    },
    {
      "channel": 2,
      "note": 76,
      "start": 46.155,
      "duration": 0.0953,
      "velocity": 99,
      "chip": "ym2612"
    },
    {
      "channel": 5,
      "note": 55,
      "start": 46.1551,
      "duration": 0.1182,
      "velocity": 127,
      "chip": "ym2612"
    },
    {
      "channel": 2,
      "note": 79,
      "start": 46.2732,
      "duration": 0.1966,
      "velocity": 99,
      "chip": "ym2612"
    },
    {
      "channel": 3,
      "note": 69,
      "start": 46.2732,
      "duration": 0.1966,
      "velocity": 89,
      "chip": "ym2612"
    },
    {
      "channel": 5,
      "note": 57,
      "start": 46.2734,
      "duration": 0.1152,
      "velocity": 127,
      "chip": "ym2612"
    },
    {
      "channel": 5,
      "note": 57,
      "start": 46.3886,
      "duration": 0.121,
      "velocity": 127,
      "chip": "ym2612"
    },
    {
      "channel": 0,
      "note": 57,
      "start": 46.5093,
      "duration": 0.1969,
      "velocity": 85,
      "chip": "ym2612"
    },
    {
      "channel": 1,
      "note": 90,
      "start": 46.5094,
      "duration": 0.1969,
      "velocity": 101,
      "chip": "ym2612"
    },
    {
      "channel": 2,
      "note": 76,
      "start": 46.5094,
      "duration": 0.1282,
      "velocity": 99,
      "chip": "ym2612"
    },
    {
      "channel": 3,
      "note": 72,
      "start": 46.5095,
      "duration": 0.1969,
      "velocity": 89,
      "chip": "ym2612"
    },
    {
      "channel": 5,
      "note": 44,
      "start": 46.5097,
      "duration": 0.1146,
      "velocity": 127,
      "chip": "ym2612"
    },
    {
      "channel": 5,
      "note": 44,
      "start": 46.6243,
      "duration": 0.1233,
      "velocity": 125,
      "chip": "ym2612"
    },
    {
      "channel": 2,
      "note": 81,
      "start": 46.673,
      "duration": 0.049,
      "velocity": 99,
      "chip": "ym2612"
    },
    {
      "channel": 4,
      "note": 90,
      "start": 46.7064,
      "duration": 0.201,
      "velocity": 98,
      "chip": "ym2612"
    },
    {
      "channel": 0,
      "note": 55,
      "start": 46.7473,
      "duration": 0.0927,
      "velocity": 85,
      "chip": "ym2612"
    },
    {
      "channel": 1,
      "note": 91,
      "start": 46.7474,
      "duration": 0.1953,
      "velocity": 101,
      "chip": "ym2612"
    },
    {
      "channel": 2,
      "note": 79,
      "start": 46.7475,
      "duration": 0.0927,
      "velocity": 99,
      "chip": "ym2612"
    },
    {
      "channel": 3,
      "note": 69,
      "start": 46.7475,
      "duration": 0.1953,
      "velocity": 89,
      "chip": "ym2612"
    },
    {
      "channel": 5,
      "note": 49,
      "start": 46.7477,
      "duration": 0.1167,
      "velocity": 125,
      "chip": "ym2612"
    },
    {
      "channel": 0,
      "note": 57,
      "start": 46.8642,
      "duration": 0.298,
      "velocity": 85,
      "chip": "ym2612"
    },
    {
      "channel": 2,
      "note": 78,
      "start": 46.8643,
      "duration": 0.0937,
      "velocity": 99,
      "chip": "ym2612"
    },
    {
      "channel": 5,
      "note": 49,
      "start": 46.8644,
      "duration": 0.1184,
      "velocity": 125,
      "chip": "ym2612"
    },
    {
      "channel": 4,
      "note": 91,
      "start": 46.9444,
      "duration": 0.2009,
      "velocity": 98,
      "chip": "ym2612"
    },
    {
      "channel": 1,
      "note": 93,
      "start": 46.9827,
      "duration": 0.1974,
      "velocity": 101,
      "chip": "ym2612"
    },
    {
      "channel": 2,
      "note": 76,
      "start": 46.9827,
      "duration": 0.1974,
      "velocity": 99,
      "chip": "ym2612"
    },
    {
      "channel": 3,
      "note": 76,
      "start": 46.9828,
      "duration": 0.1974,
      "velocity": 89,
      "chip": "ym2612"
    },
    {
      "channel": 5,
      "note": 38,
      "start": 46.9829,
      "duration": 0.1153,
      "velocity": 125,
      "chip": "ym2612"
    },
    {
      "channel": 5,
      "note": 38,
      "start": 47.0982,
      "duration": 0.1232,
      "velocity": 117,
      "chip": "ym2612"
    },
    {
      "channel": 4,
      "note": 93,
      "start": 47.1802,
      "duration": 0.2011,
      "velocity": 98,
      "chip": "ym2612"
    },
    {
      "channel": 0,
      "note": 57,
      "start": 47.2212,
      "duration": 0.0925,
      "velocity": 85,
      "chip": "ym2612"
    },
    {
      "channel": 1,
      "note": 90,
      "start": 47.2213,
      "duration": 0.195,
      "velocity": 101,
      "chip": "ym2612"
    },
    {
      "channel": 3,
      "note": 81,
      "start": 47.2214,
      "duration": 0.0924,
      "velocity": 89,
      "chip": "ym2612"
    },
    {
      "channel": 5,
      "note": 55,
      "start": 47.2215,
      "duration": 0.114,
      "velocity": 117,
      "chip": "ym2612"
    },
    {
      "channel": 0,
      "note": 59,
      "start": 47.3354,
      "duration": 0.2982,
      "velocity": 85,
      "chip": "ym2612"
    },
    {
      "channel": 3,
      "note": 81,
      "start": 47.3354,
      "duration": 0.0963,
      "velocity": 89,
      "chip": "ym2612"
    },
    {
      "channel": 5,
      "note": 55,
      "start": 47.3356,
      "duration": 0.1188,
      "velocity": 127,
      "chip": "ym2612"
    },
    {
      "channel": 4,
      "note": 90,
      "start": 47.4164,
      "duration": 0.2005,
      "velocity": 98,
      "chip": "ym2612"
    },
    {
      "channel": 1,
      "note": 86,
      "start": 47.4542,
      "duration": 0.3973,
      "velocity": 101,
      "chip": "ym2612"
    },
    {
      "channel": 2,
      "note": 76,
      "start": 47.4543,
      "duration": 0.0955,
      "velocity": 99,
      "chip": "ym2612"
    },
    {
      "channel": 3,
      "note": 74,
      "start": 47.4543,
      "duration": 0.1968,
      "velocity": 89,
      "chip": "ym2612"
    },
    {
      "channel": 5,
      "note": 57,
      "start": 47.4545,
      "duration": 0.1167,
      "velocity": 125,
      "chip": "ym2612"
    },
    {
      "channel": 2,
      "note": 78,
      "start": 47.5711,
      "duration": 0.0957,
      "velocity": 99,
      "chip": "ym2612"
    },
    {
      "channel": 5,
      "note": 38,
      "start": 47.5712,
      "duration": 0.1175,
      "velocity": 125,
      "chip": "ym2612"
    },
    {
      "channel": 4,
      "note": 86,
      "start": 47.6512,
      "duration": 0.4023,
      "velocity": 98,
      "chip": "ym2612"
    },
    {
      "channel": 0,
      "note": 59,
      "start": 47.6885,
      "duration": 0.1968,
      "velocity": 85,
      "chip": "ym2612"
    },
    {
      "channel": 3,
      "note": 71,
      "start": 47.6886,
      "duration": 0.1967,
      "velocity": 89,
      "chip": "ym2612"
    },
    {
      "channel": 5,
      "note": 38,
      "start": 47.6888,
      "duration": 0.2356,
      "velocity": 117,
      "chip": "ym2612"
    },
    {
      "channel": 2,
      "note": 78,
      "start": 47.8022,
      "duration": 0.0995,
      "velocity": 99,
      "chip": "ym2612"
    },
    {
      "channel": 0,
      "note": 59,
      "start": 47.9241,
      "duration": 0.3989,
      "velocity": 85,
      "chip": "ym2612"
    },
    {
      "channel": 1,
      "note": 83,
      "start": 47.9242,
      "duration": 1.0249,
      "velocity": 101,
      "chip": "ym2612"
    },
    {
      "channel": 3,
      "note": 74,
      "start": 47.9242,
      "duration": 0.1973,
      "velocity": 89,
      "chip": "ym2612"
    },
    {
      "channel": 5,
      "note": 55,
      "start": 47.9244,
      "duration": 0.1168,
      "velocity": 117,
      "chip": "ym2612"
    },
    {
      "channel": 2,
      "note": 78,
      "start": 48.0411,
      "duration": 0.0965,
      "velocity": 99,
      "chip": "ym2612"
    },
    {
      "channel": 5,
      "note": 55,
      "start": 48.0412,
      "duration": 0.1209,
      "velocity": 127,
      "chip": "ym2612"
    },
    {
      "channel": 4,
      "note": 83,
      "start": 48.1216,
      "duration": 1.0286,
      "velocity": 98,
      "chip": "ym2612"
    },
    {
      "channel": 2,
      "note": 81,
      "start": 48.162,
      "duration": 0.1957,
      "velocity": 99,
      "chip": "ym2612"
    },
    {
      "channel": 3,
      "note": 71,
      "start": 48.162,
      "duration": 0.1957,
      "velocity": 89,
      "chip": "ym2612"
    },
    {
      "channel": 5,
      "note": 57,
      "start": 48.1621,
      "duration": 0.1159,
      "velocity": 127,
      "chip": "ym2612"
    },
    {
      "channel": 5,
      "note": 57,
      "start": 48.2781,
      "duration": 0.1207,
      "velocity": 127,
      "chip": "ym2612"
    },
    {
      "channel": 0,
      "note": 59,
      "start": 48.3986,
      "duration": 0.1968,
      "velocity": 85,
      "chip": "ym2612"
    },
    {
      "channel": 2,
      "note": 78,
      "start": 48.3987,
      "duration": 0.1272,
      "velocity": 99,
      "chip": "ym2612"
    },
    {
      "channel": 3,
      "note": 74,
      "start": 48.3987,
      "duration": 0.1968,
      "velocity": 89,
      "chip": "ym2612"
    },
    {
      "channel": 5,
      "note": 44,
      "start": 48.3989,
      "duration": 0.1132,
      "velocity": 127,
      "chip": "ym2612"
    },
    {
      "channel": 5,
      "note": 44,
      "start": 48.5121,
      "duration": 0.1225,
      "velocity": 125,
      "chip": "ym2612"
    },
    {
      "channel": 2,
      "note": 83,
      "start": 48.5625,
      "duration": 0.049,
      "velocity": 99,
      "chip": "ym2612"
    },
    {
      "channel": 0,
      "note": 57,
      "start": 48.6344,
      "duration": 0.0954,
      "velocity": 85,
      "chip": "ym2612"
    },
    {
      "channel": 2,
      "note": 81,
      "start": 48.6344,
      "duration": 0.0954,
      "velocity": 99,
      "chip": "ym2612"
    },
    {
      "channel": 3,
      "note": 71,
      "start": 48.6345,
      "duration": 0.1966,
      "velocity": 89,
      "chip": "ym2612"
    },
    {
      "channel": 5,
      "note": 49,
      "start": 48.6347,
      "duration": 0.1176,
      "velocity": 125,
      "chip": "ym2612"
    },
    {
      "channel": 0,
      "note": 59,
      "start": 48.7521,
      "duration": 0.2975,
      "velocity": 85,
      "chip": "ym2612"
    },
    {
      "channel": 2,
      "note": 79,
      "start": 48.7522,
      "duration": 0.0952,
      "velocity": 99,
      "chip": "ym2612"
    },
    {
      "channel": 5,
      "note": 49,
      "start": 48.7523,
      "duration": 0.1178,
      "velocity": 125,
      "chip": "ym2612"
    },
    {
      "channel": 2,
      "note": 78,
      "start": 48.8699,
      "duration": 0.1973,
      "velocity": 99,
      "chip": "ym2612"
    },
    {
      "channel": 3,
      "note": 78,
      "start": 48.87,
      "duration": 0.1973,
      "velocity": 89,
      "chip": "ym2612"
    },
    {
      "channel": 5,
      "note": 38,
      "start": 48.8701,
      "duration": 0.1158,
      "velocity": 125,
      "chip": "ym2612"
    },
    {
      "channel": 5,
      "note": 38,
      "start": 48.9859,
      "duration": 0.1227,
      "velocity": 117,
      "chip": "ym2612"
    },
    {
      "channel": 0,
      "note": 55,
      "start": 49.1084,
      "duration": 0.0918,
      "velocity": 85,
      "chip": "ym2612"
    },
    {
      "channel": 1,
      "note": 91,
      "start": 49.1085,
      "duration": 1.0204,
      "velocity": 101,
      "chip": "ym2612"
    },
    {
      "channel": 3,
      "note": 79,
      "start": 49.1085,
      "duration": 0.0917,
      "velocity": 89,
      "chip": "ym2612"
    },
    {
      "channel": 5,
      "note": 55,
      "start": 49.1087,
      "duration": 0.1131,
      "velocity": 117,
      "chip": "ym2612"
    },
    {
      "channel": 0,
      "note": 57,
      "start": 49.2216,
      "duration": 0.2996,
      "velocity": 85,
      "chip": "ym2612"
    },
    {
      "channel": 3,
      "note": 79,
      "start": 49.2217,
      "duration": 0.0963,
      "velocity": 89,
      "chip": "ym2612"
    },
    {
      "channel": 5,
      "note": 55,
      "start": 49.2218,
      "duration": 0.1182,
      "velocity": 127,
      "chip": "ym2612"
    },
    {
      "channel": 4,
      "note": 91,
      "start": 49.3028,
      "duration": 1.0279,
      "velocity": 98,
      "chip": "ym2612"
    },
    {
      "channel": 2,
      "note": 74,
      "start": 49.3398,
      "duration": 0.0956,
      "velocity": 99,
      "chip": "ym2612"
    },
    {
      "channel": 3,
      "note": 72,
      "start": 49.3399,
      "duration": 0.1973,
      "velocity": 89,
      "chip": "ym2612"
    },
    {
      "channel": 5,
      "note": 57,
      "start": 49.34,
      "duration": 0.1171,
      "velocity": 125,
      "chip": "ym2612"
    },
    {
      "channel": 2,
      "note": 76,
      "start": 49.4569,
      "duration": 0.0966,
      "velocity": 99,
      "chip": "ym2612"
    },
    {
      "channel": 5,
      "note": 38,
      "start": 49.4571,
      "duration": 0.1183,
      "velocity": 125,
      "chip": "ym2612"
    },
    {
      "channel": 0,
      "note": 57,
      "start": 49.5753,
      "duration": 0.1976,
      "velocity": 85,
      "chip": "ym2612"
    },
    {
      "channel": 3,
      "note": 69,
      "start": 49.5753,
      "duration": 0.1976,
      "velocity": 89,
      "chip": "ym2612"
    },
    {
      "channel": 5,
      "note": 38,
      "start": 49.5759,
      "duration": 0.2375,
      "velocity": 117,
      "chip": "ym2612"
    },
    {
      "channel": 2,
      "note": 76,
      "start": 49.6893,
      "duration": 0.1001,
      "velocity": 99,
      "chip": "ym2612"
    },
    {
      "channel": 0,
      "note": 57,
      "start": 49.8132,
      "duration": 0.3994,
      "velocity": 85,
      "chip": "ym2612"
    },
    {
      "channel": 3,
      "note": 72,
      "start": 49.8133,
      "duration": 0.1953,
      "velocity": 89,
      "chip": "ym2612"
    },
    {
      "channel": 5,
      "note": 55,
      "start": 49.8134,
      "duration": 0.1174,
      "velocity": 117,
      "chip": "ym2612"
    },
    {
      "channel": 2,
      "note": 76,
      "start": 49.9307,
      "duration": 0.0951,
      "velocity": 99,
      "chip": "ym2612"
    },
    {
      "channel": 5,
      "note": 55,
      "start": 49.9309,
      "duration": 0.1186,
      "velocity": 127,
      "chip": "ym2612"
    },
    {
      "channel": 2,
      "note": 79,
      "start": 50.0494,
      "duration": 0.1975,
      "velocity": 99,
      "chip": "ym2612"
    },
    {
      "channel": 3,
      "note": 69,
      "start": 50.0494,
      "duration": 0.1975,
      "velocity": 89,
      "chip": "ym2612"
    },
    {
      "channel": 5,
      "note": 57,
      "start": 50.0496,
      "duration": 0.1159,
      "velocity": 127,
      "chip": "ym2612"
    },
    {
      "channel": 5,
      "note": 57,
      "start": 50.1655,
      "duration": 0.1211,
      "velocity": 127,
      "chip": "ym2612"
    },
    {
      "channel": 0,
      "note": 57,
      "start": 50.2863,
      "duration": 0.1971,
      "velocity": 85,
      "chip": "ym2612"
    },
    {
      "channel": 1,
      "note": 90,
      "start": 50.2864,
      "duration": 0.1971,
      "velocity": 101,
      "chip": "ym2612"
    },
    {
      "channel": 2,
      "note": 76,
      "start": 50.2865,
      "duration": 0.1284,
      "velocity": 99,
      "chip": "ym2612"
    },
    {
      "channel": 3,
      "note": 72,
      "start": 50.2865,
      "duration": 0.197,
      "velocity": 89,
      "chip": "ym2612"
    },
    {
      "channel": 5,
      "note": 44,
      "start": 50.2866,
      "duration": 0.1148,
      "velocity": 127,
      "chip": "ym2612"
    },
    {
      "channel": 5,
      "note": 44,
      "start": 50.4015,
      "duration": 0.1215,
      "velocity": 125,
      "chip": "ym2612"
    },
    {
      "channel": 2,
      "note": 81,
      "start": 50.45,
      "duration": 0.049,
      "velocity": 99,
      "chip": "ym2612"
    },
    {
      "channel": 4,
      "note": 90,
      "start": 50.4836,
      "duration": 0.2002,
      "velocity": 98,
      "chip": "ym2612"
    },
    {
      "channel": 0,
      "note": 55,
      "start": 50.5228,
      "duration": 0.0938,
      "velocity": 85,
      "chip": "ym2612"
    },
    {
      "channel": 1,
      "note": 91,
      "start": 50.5229,
      "duration": 0.1951,
      "velocity": 101,
      "chip": "ym2612"
    },
    {
      "channel": 2,
      "note": 79,
      "start": 50.5229,
      "duration": 0.0937,
      "velocity": 99,
      "chip": "ym2612"
    },
    {
      "channel": 3,
      "note": 69,
      "start": 50.523,
      "duration": 0.1951,
      "velocity": 89,
      "chip": "ym2612"
    },
    {
      "channel": 5,
      "note": 49,
      "start": 50.523,
      "duration": 0.1163,
      "velocity": 125,
      "chip": "ym2612"
    },
    {
      "channel": 0,
      "note": 57,
      "start": 50.6391,
      "duration": 0.2962,
      "velocity": 85,
      "chip": "ym2612"
    },
    {
      "channel": 2,
      "note": 78,
      "start": 50.6392,
      "duration": 0.0941,
      "velocity": 99,
      "chip": "ym2612"
    },
    {
      "channel": 5,
      "note": 49,
      "start": 50.6394,
      "duration": 0.1172,
      "velocity": 125,
      "chip": "ym2612"
    },
    {
      "channel": 4,
      "note": 91,
      "start": 50.7181,
      "duration": 0.2003,
      "velocity": 98,
      "chip": "ym2612"
    },
    {
      "channel": 1,
      "note": 93,
      "start": 50.7563,
      "duration": 0.1971,
      "velocity": 101,
      "chip": "ym2612"
    },
    {
      "channel": 2,
      "note": 76,
      "start": 50.7564,
      "duration": 0.1971,
      "velocity": 99,
      "chip": "ym2612"
    },
    {
      "channel": 3,
      "note": 76,
      "start": 50.7565,
      "duration": 0.197,
      "velocity": 89,
      "chip": "ym2612"
    },
    {
      "channel": 5,
      "note": 38,
      "start": 50.7566,
      "duration": 0.115,
      "velocity": 125,
      "chip": "ym2612"
    },
    {
      "channel": 5,
      "note": 38,
      "start": 50.8715,
      "duration": 0.1249,
      "velocity": 117,
      "chip": "ym2612"
    },
    {
      "channel": 4,
      "note": 93,
      "start": 50.9536,
      "duration": 0.2009,
      "velocity": 98,
      "chip": "ym2612"
    },
    {
      "channel": 0,
      "note": 57,
      "start": 50.9962,
      "duration": 0.091,
      "velocity": 85,
      "chip": "ym2612"
    },
    {
      "channel": 1,
      "note": 90,
      "start": 50.9963,
      "duration": 1.6489,
      "velocity": 101,
      "chip": "ym2612"
    },
    {
      "channel": 3,
      "note": 81,
      "start": 50.9963,
      "duration": 0.0909,
      "velocity": 89,
      "chip": "ym2612"
    },
    {
      "channel": 5,
      "note": 55,
      "start": 50.9964,
      "duration": 0.1122,
      "velocity": 117,
      "chip": "ym2612"
    },
    {
      "channel": 0,
      "note": 59,
      "start": 51.1085,
      "duration": 0.2989,
      "velocity": 85,
      "chip": "ym2612"
    },
    {
      "channel": 3,
      "note": 81,
      "start": 51.1085,
      "duration": 0.0966,
      "velocity": 89,
      "chip": "ym2612"
    },
    {
      "channel": 5,
      "note": 55,
      "start": 51.1087,
      "duration": 0.1203,
      "velocity": 127,
      "chip": "ym2612"
    },
    {
      "channel": 4,
      "note": 90,
      "start": 51.1896,
      "duration": 1.651,
      "velocity": 98,
      "chip": "ym2612"
    },
    {
      "channel": 2,
      "note": 76,
      "start": 51.2288,
      "duration": 0.0941,
      "velocity": 99,
      "chip": "ym2612"
    },
    {
      "channel": 3,
      "note": 74,
      "start": 51.2289,
      "duration": 0.1957,
      "velocity": 89,
      "chip": "ym2612"
    },
    {
      "channel": 5,
      "note": 57,
      "start": 51.229,
      "duration": 0.1176,
      "velocity": 125,
      "chip": "ym2612"
    },
    {
      "channel": 2,
      "note": 78,
      "start": 51.3464,
      "duration": 0.0946,
      "velocity": 99,
      "chip": "ym2612"
    },
    {
      "channel": 5,
      "note": 38,
      "start": 51.3465,
      "duration": 0.1183,
      "velocity": 125,
      "chip": "ym2612"
    },
    {
      "channel": 0,
      "note": 59,
      "start": 51.4646,
      "duration": 0.1975,
      "velocity": 85,
      "chip": "ym2612"
    },
    {
      "channel": 3,
      "note": 71,
      "start": 51.4647,
      "duration": 0.1975,
      "velocity": 89,
      "chip": "ym2612"
    },
    {
      "channel": 5,
      "note": 38,
      "start": 51.4648,
      "duration": 0.2359,
      "velocity": 117,
      "chip": "ym2612"
    },
    {
      "channel": 2,
      "note": 78,
      "start": 51.5787,
      "duration": 0.1001,
      "velocity": 99,
      "chip": "ym2612"
    },
    {
      "channel": 0,
      "note": 59,
      "start": 51.7005,
      "duration": 0.3994,
      "velocity": 85,
      "chip": "ym2612"
    },
    {
      "channel": 3,
      "note": 74,
      "start": 51.7006,
      "duration": 0.1975,
      "velocity": 89,
      "chip": "ym2612"
    },
    {
      "channel": 5,
      "note": 55,
      "start": 51.7008,
      "duration": 0.1177,
      "velocity": 117,
      "chip": "ym2612"
    },
    {
      "channel": 2,
      "note": 78,
      "start": 51.8184,
      "duration": 0.0964,
      "velocity": 99,
      "chip": "ym2612"
    },
    {
      "channel": 5,
      "note": 55,
      "start": 51.8185,
      "duration": 0.1187,
      "velocity": 127,
      "chip": "ym2612"
    },
    {
      "channel": 2,
      "note": 81,
      "start": 51.9371,
      "duration": 0.1971,
      "velocity": 99,
      "chip": "ym2612"
    },
    {
      "channel": 3,
      "note": 71,
      "start": 51.9372,
      "duration": 0.1971,
      "velocity": 89,
      "chip": "ym2612"
    },
    {
      "channel": 5,
      "note": 57,
      "start": 51.9373,
      "duration": 0.116,
      "velocity": 127,
      "chip": "ym2612"
    },
    {
      "channel": 5,
      "note": 57,
      "start": 52.0533,
      "duration": 0.1198,
      "velocity": 127,
      "chip": "ym2612"
    },
    {
      "channel": 0,
      "note": 59,
      "start": 52.1729,
      "duration": 0.1957,
      "velocity": 85,
      "chip": "ym2612"
    },
    {
      "channel": 2,
      "note": 78,
      "start": 52.173,
      "duration": 0.1284,
      "velocity": 99,
      "chip": "ym2612"
    },
    {
      "channel": 3,
      "note": 74,
      "start": 52.173,
      "duration": 0.1957,
      "velocity": 89,
      "chip": "ym2612"
    },
    {
      "channel": 5,
      "note": 44,
      "start": 52.1732,
      "duration": 0.114,
      "velocity": 127,
      "chip": "ym2612"
    },
    {
      "channel": 5,
      "note": 44,
      "start": 52.2872,
      "duration": 0.1208,
      "velocity": 125,
      "chip": "ym2612"
    },
    {
      "channel": 2,
      "note": 83,
      "start": 52.3361,
      "duration": 0.0487,
      "velocity": 99,
      "chip": "ym2612"
    },
    {
      "channel": 0,
      "note": 57,
      "start": 52.4078,
      "duration": 0.095,
      "velocity": 85,
      "chip": "ym2612"
    },
    {
      "channel": 2,
      "note": 81,
      "start": 52.4078,
      "duration": 0.095,
      "velocity": 99,
      "chip": "ym2612"
    },
    {
      "channel": 3,
      "note": 71,
      "start": 52.4079,
      "duration": 0.1965,
      "velocity": 89,
      "chip": "ym2612"
    },
    {
      "channel": 5,
      "note": 49,
      "start": 52.408,
      "duration": 0.1202,
      "velocity": 125,
      "chip": "ym2612"
    },
    {
      "channel": 0,
      "note": 59,
      "start": 52.5281,
      "duration": 0.2949,
      "velocity": 85,
      "chip": "ym2612"
    },
    {
      "channel": 2,
      "note": 79,
      "start": 52.5282,
      "duration": 0.0925,
      "velocity": 99,
      "chip": "ym2612"
    },
    {
      "channel": 5,
      "note": 49,
      "start": 52.5283,
      "duration": 0.1171,
      "velocity": 125,
      "chip": "ym2612"
    },
    {
      "channel": 2,
      "note": 78,
      "start": 52.6452,
      "duration": 0.1952,
      "velocity": 99,
      "chip": "ym2612"
    },
    {
      "channel": 3,
      "note": 78,
      "start": 52.6453,
      "duration": 0.1952,
      "velocity": 89,
      "chip": "ym2612"
    },
    {
      "channel": 5,
      "note": 38,
      "start": 52.6454,
      "duration": 0.1156,
      "velocity": 125,
      "chip": "ym2612"
    },
    {
      "channel": 5,
      "note": 38,
      "start": 52.7611,
      "duration": 0.1231,
      "velocity": 117,
      "chip": "ym2612"
    },
    {
      "channel": 0,
      "note": 59,
      "start": 52.884,
      "duration": 0.0907,
      "velocity": 85,
      "chip": "ym2612"
    },
    {
      "channel": 1,
      "note": 95,
      "start": 52.884,
      "duration": 1.22,
      "velocity": 101,
      "chip": "ym2612"
    },
    {
      "channel": 3,
      "note": 83,
      "start": 52.8841,
      "duration": 0.0907,
      "velocity": 89,
      "chip": "ym2612"
    },
    {
      "channel": 5,
      "note": 55,
      "start": 52.8842,
      "duration": 0.1139,
      "velocity": 117,
      "chip": "ym2612"
    },
    {
      "channel": 0,
      "note": 60,
      "start": 52.998,
      "duration": 0.2989,
      "velocity": 85,
      "chip": "ym2612"
    },
    {
      "channel": 3,
      "note": 83,
      "start": 52.998,
      "duration": 0.0964,
      "velocity": 89,
      "chip": "ym2612"
    },
    {
      "channel": 5,
      "note": 55,
      "start": 52.9982,
      "duration": 0.1186,
      "velocity": 127,
      "chip": "ym2612"
    },
    {
      "channel": 4,
      "note": 95,
      "start": 53.0789,
      "duration": 1.2273,
      "velocity": 98,
      "chip": "ym2612"
    },
    {
      "channel": 2,
      "note": 78,
      "start": 53.1166,
      "duration": 0.0961,
      "velocity": 99,
      "chip": "ym2612"
    },
    {
      "channel": 3,
      "note": 76,
      "start": 53.1167,
      "duration": 0.1975,
      "velocity": 89,
      "chip": "ym2612"
    },
    {
      "channel": 5,
      "note": 57,
      "start": 53.1168,
      "duration": 0.1172,
      "velocity": 125,
      "chip": "ym2612"
    },
    {
      "channel": 2,
      "note": 79,
      "start": 53.2339,
      "duration": 0.0966,
      "velocity": 99,
      "chip": "ym2612"
    },
    {
      "channel": 5,
      "note": 38,
      "start": 53.234,
      "duration": 0.1183,
      "velocity": 125,
      "chip": "ym2612"
    },
    {
      "channel": 0,
      "note": 60,
      "start": 53.3522,
      "duration": 0.1975,
      "velocity": 85,
      "chip": "ym2612"
    },
    {
      "channel": 3,
      "note": 72,
      "start": 53.3523,
      "duration": 0.1976,
      "velocity": 89,
      "chip": "ym2612"
    },
    {
      "channel": 5,
      "note": 38,
      "start": 53.3524,
      "duration": 0.236,
      "velocity": 117,
      "chip": "ym2612"
    },
    {
      "channel": 2,
      "note": 79,
      "start": 53.4663,
      "duration": 0.1003,
      "velocity": 99,
      "chip": "ym2612"
    },
    {
      "channel": 0,
      "note": 60,
      "start": 53.5882,
      "duration": 0.3977,
      "velocity": 85,
      "chip": "ym2612"
    },
    {
      "channel": 3,
      "note": 76,
      "start": 53.5884,
      "duration": 0.1954,
      "velocity": 89,
      "chip": "ym2612"
    },
    {
      "channel": 5,
      "note": 55,
      "start": 53.5884,
      "duration": 0.1165,
      "velocity": 117,
      "chip": "ym2612"
    },
    {
      "channel": 2,
      "note": 79,
      "start": 53.7049,
      "duration": 0.0963,
      "velocity": 99,
      "chip": "ym2612"
    },
    {
      "channel": 5,
      "note": 55,
      "start": 53.705,
      "duration": 0.1189,
      "velocity": 127,
      "chip": "ym2612"
    },
    {
      "channel": 2,
      "note": 83,
      "start": 53.8237,
      "duration": 0.198,
      "velocity": 99,
      "chip": "ym2612"
    },
    {
      "channel": 3,
      "note": 72,
      "start": 53.8238,
      "duration": 0.198,
      "velocity": 89,
      "chip": "ym2612"
    },
    {
      "channel": 5,
      "note": 57,
      "start": 53.8239,
      "duration": 0.1149,
      "velocity": 127,
      "chip": "ym2612"
    },
    {
      "channel": 5,
      "note": 57,
      "start": 53.9389,
      "duration": 0.1226,
      "velocity": 127,
      "chip": "ym2612"
    },
    {
      "channel": 0,
      "note": 60,
      "start": 54.0613,
      "duration": 0.1949,
      "velocity": 85,
      "chip": "ym2612"
    },
    {
      "channel": 2,
      "note": 79,
      "start": 54.0613,
      "duration": 0.127,
      "velocity": 99,
      "chip": "ym2612"
    },
    {
      "channel": 3,
      "note": 76,
      "start": 54.0614,
      "duration": 0.1948,
      "velocity": 89,
      "chip": "ym2612"
    },
    {
      "channel": 5,
      "note": 44,
      "start": 54.0615,
      "duration": 0.1133,
      "velocity": 127,
      "chip": "ym2612"
    },
    {
      "channel": 5,
      "note": 44,
      "start": 54.1749,
      "duration": 0.1231,
      "velocity": 125,
      "chip": "ym2612"
    },
    {
      "channel": 2,
      "note": 84,
      "start": 54.2235,
      "duration": 0.049,
      "velocity": 99,
      "chip": "ym2612"
    },
    {
      "channel": 0,
      "note": 59,
      "start": 54.2977,
      "duration": 0.0927,
      "velocity": 85,
      "chip": "ym2612"
    },
    {
      "channel": 1,
      "note": 93,
      "start": 54.2978,
      "duration": 0.1967,
      "velocity": 101,
      "chip": "ym2612"
    },
    {
      "channel": 2,
      "note": 83,
      "start": 54.2978,
      "duration": 0.0926,
      "velocity": 99,
      "chip": "ym2612"
    },
    {
      "channel": 3,
      "note": 72,
      "start": 54.2979,
      "duration": 0.1966,
      "velocity": 89,
      "chip": "ym2612"
    },
    {
      "channel": 5,
      "note": 49,
      "start": 54.298,
      "duration": 0.1167,
      "velocity": 125,
      "chip": "ym2612"
    },
    {
      "channel": 0,
      "note": 60,
      "start": 54.4146,
      "duration": 0.2978,
      "velocity": 85,
      "chip": "ym2612"
    },
    {
      "channel": 2,
      "note": 81,
      "start": 54.4146,
      "duration": 0.0936,
      "velocity": 99,
      "chip": "ym2612"
    },
    {
      "channel": 5,
      "note": 49,
      "start": 54.4148,
      "duration": 0.1186,
      "velocity": 125,
      "chip": "ym2612"
    },
    {
      "channel": 4,
      "note": 93,
      "start": 54.4946,
      "duration": 0.201,
      "velocity": 98,
      "chip": "ym2612"
    },
    {
      "channel": 1,
      "note": 91,
      "start": 54.5332,
      "duration": 0.1975,
      "velocity": 101,
      "chip": "ym2612"
    },
    {
      "channel": 2,
      "note": 79,
      "start": 54.5333,
      "duration": 0.1974,
      "velocity": 99,
      "chip": "ym2612"
    },
    {
      "channel": 3,
      "note": 79,
      "start": 54.5333,
      "duration": 0.1974,
      "velocity": 89,
      "chip": "ym2612"
    },
    {
      "channel": 5,
      "note": 38,
      "start": 54.5335,
      "duration": 0.1152,
      "velocity": 125,
      "chip": "ym2612"
    },
    {
      "channel": 5,
      "note": 38,
      "start": 54.6487,
      "duration": 0.1231,
      "velocity": 117,
      "chip": "ym2612"
    },
    {
      "channel": 4,
      "note": 91,
      "start": 54.7308,
      "duration": 0.2008,
      "velocity": 98,
      "chip": "ym2612"
    },
    {
      "channel": 0,
      "note": 60,
      "start": 54.7716,
      "duration": 0.0925,
      "velocity": 85,
      "chip": "ym2612"
    },
    {
      "channel": 1,
      "note": 93,
      "start": 54.7716,
      "duration": 0.195,
      "velocity": 101,
      "chip": "ym2612"
    },
    {
      "channel": 3,
      "note": 81,
      "start": 54.7717,
      "duration": 0.0925,
      "velocity": 89,
      "chip": "ym2612"
    },
    {
      "channel": 5,
      "note": 55,
      "start": 54.7718,
      "duration": 0.1138,
      "velocity": 117,
      "chip": "ym2612"
    },
    {
      "channel": 0,
      "note": 62,
      "start": 54.8855,
      "duration": 0.298,
      "velocity": 85,
      "chip": "ym2612"
    },
    {
      "channel": 3,
      "note": 81,
      "start": 54.8856,
      "duration": 0.0966,
      "velocity": 89,
      "chip": "ym2612"
    },
    {
      "channel": 5,
      "note": 55,
      "start": 54.8857,
      "duration": 0.1191,
      "velocity": 127,
      "chip": "ym2612"
    },
    {
      "channel": 4,
      "note": 93,
      "start": 54.9668,
      "duration": 0.2001,
      "velocity": 98,
      "chip": "ym2612"
    },
    {
      "channel": 1,
      "note": 90,
      "start": 55.0046,
      "duration": 0.397,
      "velocity": 101,
      "chip": "ym2612"
    },
    {
      "channel": 2,
      "note": 79,
      "start": 55.0046,
      "duration": 0.0952,
      "velocity": 99,
      "chip": "ym2612"
    },
    {
      "channel": 3,
      "note": 78,
      "start": 55.0047,
      "duration": 0.1964,
      "velocity": 89,
      "chip": "ym2612"
    },
    {
      "channel": 5,
      "note": 57,
      "start": 55.0049,
      "duration": 0.1165,
      "velocity": 125,
      "chip": "ym2612"
    },
    {
      "channel": 2,
      "note": 81,
      "start": 55.1212,
      "duration": 0.0956,
      "velocity": 99,
      "chip": "ym2612"
    },
    {
      "channel": 5,
      "note": 38,
      "start": 55.1214,
      "duration": 0.1172,
      "velocity": 125,
      "chip": "ym2612"
    },
    {
      "channel": 4,
      "note": 90,
      "start": 55.2012,
      "duration": 0.4027,
      "velocity": 98,
      "chip": "ym2612"
    },
    {
      "channel": 0,
      "note": 62,
      "start": 55.2384,
      "duration": 0.1971,
      "velocity": 85,
      "chip": "ym2612"
    },
    {
      "channel": 3,
      "note": 74,
      "start": 55.2385,
      "duration": 0.1971,
      "velocity": 89,
      "chip": "ym2612"
    },
    {
      "channel": 5,
      "note": 38,
      "start": 55.2386,
      "duration": 0.236,
      "velocity": 117,
      "chip": "ym2612"
    },
    {
      "channel": 2,
      "note": 81,
      "start": 55.3524,
      "duration": 0.0996,
      "velocity": 99,
      "chip": "ym2612"
    },
    {
      "channel": 0,
      "note": 62,
      "start": 55.4744,
      "duration": 0.399,
      "velocity": 85,
      "chip": "ym2612"
    },
    {
      "channel": 1,
      "note": 86,
      "start": 55.4745,
      "duration": 1.0249,
      "velocity": 101,
      "chip": "ym2612"
    },
    {
      "channel": 3,
      "note": 78,
      "start": 55.4746,
      "duration": 0.1974,
      "velocity": 89,
      "chip": "ym2612"
    },
    {
      "channel": 5,
      "note": 55,
      "start": 55.4747,
      "duration": 0.1168,
      "velocity": 117,
      "chip": "ym2612"
    },
    {
      "channel": 2,
      "note": 81,
      "start": 55.5914,
      "duration": 0.0966,
      "velocity": 99,
      "chip": "ym2612"
    },
    {
      "channel": 5,
      "note": 55,
      "start": 55.5915,
      "duration": 0.1209,
      "velocity": 127,
      "chip": "ym2612"
    },
    {
      "channel": 4,
      "note": 86,
      "start": 55.672,
      "duration": 1.0282,
      "velocity": 98,
      "chip": "ym2612"
    },
    {
      "channel": 2,
      "note": 86,
      "start": 55.7124,
      "duration": 0.1955,
      "velocity": 99,
      "chip": "ym2612"
    },
    {
      "channel": 3,
      "note": 74,
      "start": 55.7124,
      "duration": 0.1955,
      "velocity": 89,
      "chip": "ym2612"
    },
    {
      "channel": 5,
      "note": 57,
      "start": 55.7125,
      "duration": 0.1159,
      "velocity": 127,
      "chip": "ym2612"
    },
    {
      "channel": 5,
      "note": 57,
      "start": 55.8285,
      "duration": 0.1205,
      "velocity": 127,
      "chip": "ym2612"
    },
    {
      "channel": 0,
      "note": 62,
      "start": 55.9489,
      "duration": 0.1968,
      "velocity": 85,
      "chip": "ym2612"
    },
    {
      "channel": 2,
      "note": 81,
      "start": 55.9489,
      "duration": 0.1288,
      "velocity": 99,
      "chip": "ym2612"
    },
    {
      "channel": 3,
      "note": 78,
      "start": 55.949,
      "duration": 0.1967,
      "velocity": 89,
      "chip": "ym2612"
    },
    {
      "channel": 5,
      "note": 44,
      "start": 55.9491,
      "duration": 0.1151,
      "velocity": 127,
      "chip": "ym2612"
    },
    {
      "channel": 5,
      "note": 44,
      "start": 56.0643,
      "duration": 0.1209,
      "velocity": 125,
      "chip": "ym2612"
    },
    {
      "channel": 2,
      "note": 88,
      "start": 56.1128,
      "duration": 0.0491,
      "velocity": 99,
      "chip": "ym2612"
    },
    {
      "channel": 0,
      "note": 60,
      "start": 56.185,
      "duration": 0.0949,
      "velocity": 85,
      "chip": "ym2612"
    },
    {
      "channel": 2,
      "note": 86,
      "start": 56.1851,
      "duration": 0.0949,
      "velocity": 99,
      "chip": "ym2612"
    },
    {
      "channel": 3,
      "note": 74,
      "start": 56.1851,
      "duration": 0.1964,
      "velocity": 89,
      "chip": "ym2612"
    },
    {
      "channel": 5,
      "note": 49,
      "start": 56.1853,
      "duration": 0.1171,
      "velocity": 125,
      "chip": "ym2612"
    },
    {
      "channel": 0,
      "note": 62,
      "start": 56.3022,
      "duration": 0.2976,
      "velocity": 85,
      "chip": "ym2612"
    },
    {
      "channel": 2,
      "note": 83,
      "start": 56.3022,
      "duration": 0.0957,
      "velocity": 99,
      "chip": "ym2612"
    },
    {
      "channel": 5,
      "note": 49,
      "start": 56.3024,
      "duration": 0.1179,
      "velocity": 125,
      "chip": "ym2612"
    },
    {
      "channel": 2,
      "note": 81,
      "start": 56.4202,
      "duration": 0.1971,
      "velocity": 99,
      "chip": "ym2612"
    },
    {
      "channel": 3,
      "note": 78,
      "start": 56.4202,
      "duration": 0.1971,
      "velocity": 89,
      "chip": "ym2612"
    },
    {
      "channel": 5,
      "note": 38,
      "start": 56.4204,
      "duration": 0.116,
      "velocity": 125,
      "chip": "ym2612"
    },
    {
      "channel": 5,
      "note": 38,
      "start": 56.5364,
      "duration": 0.1225,
      "velocity": 117,
      "chip": "ym2612"
    },
    {
      "channel": 0,
      "note": 59,
      "start": 56.6587,
      "duration": 0.0916,
      "velocity": 85,
      "chip": "ym2612"
    },
    {
      "channel": 1,
      "note": 95,
      "start": 56.6588,
      "duration": 1.2222,
      "velocity": 101,
      "chip": "ym2612"
    },
    {
      "channel": 3,
      "note": 83,
      "start": 56.6588,
      "duration": 0.0915,
      "velocity": 89,
      "chip": "ym2612"
    },
    {
      "channel": 5,
      "note": 55,
      "start": 56.6604,
      "duration": 0.1111,
      "velocity": 117,
      "chip": "ym2612"
    },
    {
      "channel": 0,
      "note": 60,
      "start": 56.7714,
      "duration": 0.2987,
      "velocity": 85,
      "chip": "ym2612"
    },
    {
      "channel": 3,
      "note": 83,
      "start": 56.7715,
      "duration": 0.0966,
      "velocity": 89,
      "chip": "ym2612"
    },
    {
      "channel": 5,
      "note": 55,
      "start": 56.7716,
      "duration": 0.1184,
      "velocity": 127,
      "chip": "ym2612"
    },
    {
      "channel": 4,
      "note": 95,
      "start": 56.8528,
      "duration": 1.2305,
      "velocity": 98,
      "chip": "ym2612"
    },
    {
      "channel": 2,
      "note": 78,
      "start": 56.8898,
      "duration": 0.0959,
      "velocity": 99,
      "chip": "ym2612"
    },
    {
      "channel": 3,
      "note": 76,
      "start": 56.8899,
      "duration": 0.1975,
      "velocity": 89,
      "chip": "ym2612"
    },
    {
      "channel": 5,
      "note": 57,
      "start": 56.89,
      "duration": 0.1172,
      "velocity": 125,
      "chip": "ym2612"
    },
    {
      "channel": 2,
      "note": 79,
      "start": 57.0071,
      "duration": 0.0966,
      "velocity": 99,
      "chip": "ym2612"
    },
    {
      "channel": 5,
      "note": 38,
      "start": 57.0073,
      "duration": 0.1205,
      "velocity": 125,
      "chip": "ym2612"
    },
    {
      "channel": 0,
      "note": 60,
      "start": 57.1276,
      "duration": 0.1957,
      "velocity": 85,
      "chip": "ym2612"
    },
    {
      "channel": 3,
      "note": 72,
      "start": 57.1277,
      "duration": 0.1956,
      "velocity": 89,
      "chip": "ym2612"
    },
    {
      "channel": 5,
      "note": 38,
      "start": 57.1278,
      "duration": 0.2359,
      "velocity": 117,
      "chip": "ym2612"
    },
    {
      "channel": 2,
      "note": 79,
      "start": 57.2397,
      "duration": 0.1001,
      "velocity": 99,
      "chip": "ym2612"
    },
    {
      "channel": 0,
      "note": 60,
      "start": 57.3636,
      "duration": 0.3994,
      "velocity": 85,
      "chip": "ym2612"
    },
    {
      "channel": 3,
      "note": 76,
      "start": 57.3636,
      "duration": 0.1975,
      "velocity": 89,
      "chip": "ym2612"
    },
    {
      "channel": 5,
      "note": 55,
      "start": 57.3637,
      "duration": 0.1173,
      "velocity": 117,
      "chip": "ym2612"
    },
    {
      "channel": 2,
      "note": 79,
      "start": 57.481,
      "duration": 0.095,
      "velocity": 99,
      "chip": "ym2612"
    },
    {
      "channel": 5,
      "note": 55,
      "start": 57.4811,
      "duration": 0.119,
      "velocity": 127,
      "chip": "ym2612"
    },
    {
      "channel": 2,
      "note": 83,
      "start": 57.6,
      "duration": 0.1973,
      "velocity": 99,
      "chip": "ym2612"
    },
    {
      "channel": 3,
      "note": 72,
      "start": 57.6,
      "duration": 0.1973,
      "velocity": 89,
      "chip": "ym2612"
    },
    {
      "channel": 5,
      "note": 57,
      "start": 57.6001,
      "duration": 0.1159,
      "velocity": 127,
      "chip": "ym2612"
    },
    {
      "channel": 5,
      "note": 57,
      "start": 57.716,
      "duration": 0.1205,
      "velocity": 127,
      "chip": "ym2612"
    },
    {
      "channel": 0,
      "note": 60,
      "start": 57.8363,
      "duration": 0.1968,
      "velocity": 85,
      "chip": "ym2612"
    },
    {
      "channel": 2,
      "note": 79,
      "start": 57.8364,
      "duration": 0.1289,
      "velocity": 99,
      "chip": "ym2612"
    },
    {
      "channel": 3,
      "note": 76,
      "start": 57.8365,
      "duration": 0.1968,
      "velocity": 89,
      "chip": "ym2612"
    },
    {
      "channel": 5,
      "note": 44,
      "start": 57.8366,
      "duration": 0.1152,
      "velocity": 127,
      "chip": "ym2612"
    },
    {
      "channel": 5,
      "note": 44,
      "start": 57.9519,
      "duration": 0.1212,
      "velocity": 125,
      "chip": "ym2612"
    },
    {
      "channel": 2,
      "note": 84,
      "start": 58.0005,
      "duration": 0.049,
      "velocity": 99,
      "chip": "ym2612"
    },
    {
      "channel": 0,
      "note": 59,
      "start": 58.0729,
      "duration": 0.0939,
      "velocity": 85,
      "chip": "ym2612"
    },
    {
      "channel": 1,
      "note": 93,
      "start": 58.0729,
      "duration": 0.1949,
      "velocity": 101,
      "chip": "ym2612"
    },
    {
      "channel": 2,
      "note": 83,
      "start": 58.073,
      "duration": 0.0939,
      "velocity": 99,
      "chip": "ym2612"
    },
    {
      "channel": 3,
      "note": 72,
      "start": 58.073,
      "duration": 0.1949,
      "velocity": 89,
      "chip": "ym2612"
    },
    {
      "channel": 5,
      "note": 49,
      "start": 58.0732,
      "duration": 0.1161,
      "velocity": 125,
      "chip": "ym2612"
    },
    {
      "channel": 0,
      "note": 60,
      "start": 58.1891,
      "duration": 0.2966,
      "velocity": 85,
      "chip": "ym2612"
    },
    {
      "channel": 2,
      "note": 81,
      "start": 58.1892,
      "duration": 0.0944,
      "velocity": 99,
      "chip": "ym2612"
    },
    {
      "channel": 5,
      "note": 49,
      "start": 58.1893,
      "duration": 0.1172,
      "velocity": 125,
      "chip": "ym2612"
    },
    {
      "channel": 4,
      "note": 93,
      "start": 58.268,
      "duration": 0.2008,
      "velocity": 98,
      "chip": "ym2612"
    },
    {
      "channel": 1,
      "note": 91,
      "start": 58.3063,
      "duration": 0.1975,
      "velocity": 101,
      "chip": "ym2612"
    },
    {
      "channel": 2,
      "note": 79,
      "start": 58.3064,
      "duration": 0.1975,
      "velocity": 99,
      "chip": "ym2612"
    },
    {
      "channel": 3,
      "note": 79,
      "start": 58.3065,
      "duration": 0.1974,
      "velocity": 89,
      "chip": "ym2612"
    },
    {
      "channel": 5,
      "note": 38,
      "start": 58.3066,
      "duration": 0.1155,
      "velocity": 125,
      "chip": "ym2612"
    },
    {
      "channel": 5,
      "note": 38,
      "start": 58.4222,
      "duration": 0.1246,
      "velocity": 117,
      "chip": "ym2612"
    },
    {
      "channel": 4,
      "note": 91,
      "start": 58.5039,
      "duration": 0.2009,
      "velocity": 98,
      "chip": "ym2612"
    },
    {
      "channel": 0,
      "note": 60,
      "start": 58.5466,
      "duration": 0.091,
      "velocity": 85,
      "chip": "ym2612"
    },
    {
      "channel": 1,
      "note": 93,
      "start": 58.5466,
      "duration": 1.6488,
      "velocity": 101,
      "chip": "ym2612"
    },
    {
      "channel": 3,
      "note": 81,
      "start": 58.5467,
      "duration": 0.0909,
      "velocity": 89,
      "chip": "ym2612"
    },
    {
      "channel": 5,
      "note": 55,
      "start": 58.5468,
      "duration": 0.1141,
      "velocity": 117,
      "chip": "ym2612"
    },
    {
      "channel": 0,
      "note": 62,
      "start": 58.6593,
      "duration": 0.2983,
      "velocity": 85,
      "chip": "ym2612"
    },
    {
      "channel": 3,
      "note": 81,
      "start": 58.6609,
      "duration": 0.0946,
      "velocity": 89,
      "chip": "ym2612"
    },
    {
      "channel": 5,
      "note": 55,
      "start": 58.661,
      "duration": 0.1183,
      "velocity": 127,
      "chip": "ym2612"
    },
    {
      "channel": 4,
      "note": 93,
      "start": 58.7398,
      "duration": 1.6513,
      "velocity": 98,
      "chip": "ym2612"
    },
    {
      "channel": 2,
      "note": 79,
      "start": 58.7791,
      "duration": 0.0942,
      "velocity": 99,
      "chip": "ym2612"
    },
    {
      "channel": 3,
      "note": 78,
      "start": 58.7792,
      "duration": 0.1959,
      "velocity": 89,
      "chip": "ym2612"
    },
    {
      "channel": 5,
      "note": 57,
      "start": 58.7793,
      "duration": 0.1176,
      "velocity": 125,
      "chip": "ym2612"
    },
    {
      "channel": 2,
      "note": 81,
      "start": 58.8969,
      "duration": 0.0945,
      "velocity": 99,
      "chip": "ym2612"
    },
    {
      "channel": 5,
      "note": 38,
      "start": 58.897,
      "duration": 0.1182,
      "velocity": 125,
      "chip": "ym2612"
    },
    {
      "channel": 0,
      "note": 62,
      "start": 59.0136,
      "duration": 0.199,
      "velocity": 85,
      "chip": "ym2612"
    },
    {
      "channel": 3,
      "note": 74,
      "start": 59.0137,
      "duration": 0.199,
      "velocity": 89,
      "chip": "ym2612"
    },
    {
      "channel": 5,
      "note": 38,
      "start": 59.0153,
      "duration": 0.2359,
      "velocity": 117,
      "chip": "ym2612"
    },
    {
      "channel": 2,
      "note": 81,
      "start": 59.1293,
      "duration": 0.1001,
      "velocity": 99,
      "chip": "ym2612"
    },
    {
      "channel": 0,
      "note": 62,
      "start": 59.251,
      "duration": 0.3991,
      "velocity": 85,
      "chip": "ym2612"
    },
    {
      "channel": 3,
      "note": 78,
      "start": 59.2511,
      "duration": 0.1975,
      "velocity": 89,
      "chip": "ym2612"
    },
    {
      "channel": 5,
      "note": 55,
      "start": 59.2512,
      "duration": 0.1175,
      "velocity": 117,
      "chip": "ym2612"
    },
    {
      "channel": 2,
      "note": 81,
      "start": 59.3686,
      "duration": 0.0967,
      "velocity": 99,
      "chip": "ym2612"
    },
    {
      "channel": 5,
      "note": 55,
      "start": 59.3688,
      "duration": 0.1188,
      "velocity": 127,
      "chip": "ym2612"
    },
    {
      "channel": 2,
      "note": 86,
      "start": 59.4875,
      "duration": 0.1969,
      "velocity": 99,
      "chip": "ym2612"
    },
    {
      "channel": 3,
      "note": 74,
      "start": 59.4876,
      "duration": 0.1969,
      "velocity": 89,
      "chip": "ym2612"
    },
    {
      "channel": 5,
      "note": 57,
      "start": 59.4877,
      "duration": 0.1157,
      "velocity": 127,
      "chip": "ym2612"
    },
    {
      "channel": 5,
      "note": 57,
      "start": 59.6034,
      "duration": 0.1198,
      "velocity": 127,
      "chip": "ym2612"
    },
    {
      "channel": 0,
      "note": 62,
      "start": 59.723,
      "duration": 0.1961,
      "velocity": 85,
      "chip": "ym2612"
    },
    {
      "channel": 2,
      "note": 81,
      "start": 59.7231,
      "duration": 0.1284,
      "velocity": 99,
      "chip": "ym2612"
    },
    {
      "channel": 3,
      "note": 78,
      "start": 59.7232,
      "duration": 0.196,
      "velocity": 89,
      "chip": "ym2612"
    },
    {
      "channel": 5,
      "note": 44,
      "start": 59.7233,
      "duration": 0.1147,
      "velocity": 127,
      "chip": "ym2612"
    },
    {
      "channel": 5,
      "note": 44,
      "start": 59.838,
      "duration": 0.1203,
      "velocity": 125,
      "chip": "ym2612"
    },
    {
      "channel": 2,
      "note": 88,
      "start": 59.8862,
      "duration": 0.049,
      "velocity": 99,
      "chip": "ym2612"
    },
    {
      "channel": 0,
      "note": 60,
      "start": 59.9581,
      "duration": 0.0951,
      "velocity": 85,
      "chip": "ym2612"
    },
    {
      "channel": 2,
      "note": 86,
      "start": 59.9582,
      "duration": 0.0951,
      "velocity": 99,
      "chip": "ym2612"
    },
    {
      "channel": 3,
      "note": 74,
      "start": 59.9583,
      "duration": 0.1965,
      "velocity": 89,
      "chip": "ym2612"
    },
    {
      "channel": 5,
      "note": 49,
      "start": 59.9584,
      "duration": 0.1194,
      "velocity": 125,
      "chip": "ym2612"
    },
    {
      "channel": 0,
      "note": 62,
      "start": 60.0761,
      "duration": 0.2972,
      "velocity": 85,
      "chip": "ym2612"
    },
    {
      "channel": 2,
      "note": 83,
      "start": 60.0777,
      "duration": 0.0934,
      "velocity": 99,
      "chip": "ym2612"
    },
    {
      "channel": 5,
      "note": 49,
      "start": 60.0778,
      "duration": 0.1178,
      "velocity": 125,
      "chip": "ym2612"
    },
    {
      "channel": 2,
      "note": 81,
      "start": 60.1955,
      "duration": 0.1955,
      "velocity": 99,
      "chip": "ym2612"
    },
    {
      "channel": 3,
      "note": 78,
      "start": 60.1956,
      "duration": 0.1955,
      "velocity": 89,
      "chip": "ym2612"
    },
    {
      "channel": 5,
      "note": 38,
      "start": 60.1957,
      "duration": 0.1159,
      "velocity": 125,
      "chip": "ym2612"
    },
    {
      "channel": 5,
      "note": 38,
      "start": 60.3117,
      "duration": 0.1228,
      "velocity": 117,
      "chip": "ym2612"
    },
    {
      "channel": 0,
      "note": 55,
      "start": 60.4342,
      "duration": 0.0908,
      "velocity": 85,
      "chip": "ym2612"
    },
    {
      "channel": 1,
      "note": 91,
      "start": 60.4343,
      "duration": 1.0181,
      "velocity": 101,
      "chip": "ym2612"
    },
    {
      "channel": 3,
      "note": 79,
      "start": 60.4344,
      "duration": 0.0908,
      "velocity": 89,
      "chip": "ym2612"
    },
    {
      "channel": 5,
      "note": 55,
      "start": 60.4345,
      "duration": 0.1141,
      "velocity": 117,
      "chip": "ym2612"
    },
    {
      "channel": 0,
      "note": 57,
      "start": 60.5484,
      "duration": 0.2987,
      "velocity": 85,
      "chip": "ym2612"
    },
    {
      "channel": 3,
      "note": 79,
      "start": 60.5485,
      "duration": 0.0964,
      "velocity": 89,
      "chip": "ym2612"
    },
    {
      "channel": 5,
      "note": 55,
      "start": 60.5486,
      "duration": 0.1184,
      "velocity": 127,
      "chip": "ym2612"
    },
    {
      "channel": 4,
      "note": 91,
      "start": 60.6293,
      "duration": 1.0251,
      "velocity": 98,
      "chip": "ym2612"
    },
    {
      "channel": 2,
      "note": 74,
      "start": 60.6669,
      "duration": 0.0961,
      "velocity": 99,
      "chip": "ym2612"
    },
    {
      "channel": 3,
      "note": 72,
      "start": 60.6669,
      "duration": 0.1976,
      "velocity": 89,
      "chip": "ym2612"
    },
    {
      "channel": 5,
      "note": 57,
      "start": 60.6671,
      "duration": 0.1172,
      "velocity": 125,
      "chip": "ym2612"
    },
    {
      "channel": 2,
      "note": 76,
      "start": 60.7842,
      "duration": 0.0967,
      "velocity": 99,
      "chip": "ym2612"
    },
    {
      "channel": 5,
      "note": 38,
      "start": 60.7843,
      "duration": 0.1185,
      "velocity": 125,
      "chip": "ym2612"
    },
    {
      "channel": 0,
      "note": 57,
      "start": 60.9026,
      "duration": 0.1974,
      "velocity": 85,
      "chip": "ym2612"
    },
    {
      "channel": 3,
      "note": 69,
      "start": 60.9027,
      "duration": 0.1975,
      "velocity": 89,
      "chip": "ym2612"
    },
    {
      "channel": 5,
      "note": 38,
      "start": 60.9028,
      "duration": 0.2354,
      "velocity": 117,
      "chip": "ym2612"
    },
    {
      "channel": 2,
      "note": 76,
      "start": 61.0166,
      "duration": 0.1001,
      "velocity": 99,
      "chip": "ym2612"
    },
    {
      "channel": 0,
      "note": 57,
      "start": 61.1381,
      "duration": 0.398,
      "velocity": 85,
      "chip": "ym2612"
    },
    {
      "channel": 3,
      "note": 72,
      "start": 61.1382,
      "duration": 0.1966,
      "velocity": 89,
      "chip": "ym2612"
    },
    {
      "channel": 5,
      "note": 55,
      "start": 61.1383,
      "duration": 0.1167,
      "velocity": 117,
      "chip": "ym2612"
    },
    {
      "channel": 2,
      "note": 76,
      "start": 61.2549,
      "duration": 0.0965,
      "velocity": 99,
      "chip": "ym2612"
    },
    {
      "channel": 5,
      "note": 55,
      "start": 61.255,
      "duration": 0.1186,
      "velocity": 127,
      "chip": "ym2612"
    },
    {
      "channel": 2,
      "note": 79,
      "start": 61.3735,
      "duration": 0.1971,
      "velocity": 99,
      "chip": "ym2612"
    },
    {
      "channel": 3,
      "note": 69,
      "start": 61.3736,
      "duration": 0.1971,
      "velocity": 89,
      "chip": "ym2612"
    },
    {
      "channel": 5,
      "note": 57,
      "start": 61.3737,
      "duration": 0.1154,
      "velocity": 127,
      "chip": "ym2612"
    },
    {
      "channel": 5,
      "note": 57,
      "start": 61.4892,
      "duration": 0.123,
      "velocity": 127,
      "chip": "ym2612"
    },
    {
      "channel": 0,
      "note": 57,
      "start": 61.6119,
      "duration": 0.195,
      "velocity": 85,
      "chip": "ym2612"
    },
    {
      "channel": 1,
      "note": 90,
      "start": 61.612,
      "duration": 0.195,
      "velocity": 101,
      "chip": "ym2612"
    },
    {
      "channel": 2,
      "note": 76,
      "start": 61.612,
      "duration": 0.1265,
      "velocity": 99,
      "chip": "ym2612"
    },
    {
      "channel": 3,
      "note": 72,
      "start": 61.6121,
      "duration": 0.195,
      "velocity": 89,
      "chip": "ym2612"
    },
    {
      "channel": 5,
      "note": 44,
      "start": 61.6122,
      "duration": 0.1127,
      "velocity": 127,
      "chip": "ym2612"
    },
    {
      "channel": 5,
      "note": 44,
      "start": 61.725,
      "duration": 0.1233,
      "velocity": 125,
      "chip": "ym2612"
    },
    {
      "channel": 2,
      "note": 81,
      "start": 61.7736,
      "duration": 0.0491,
      "velocity": 99,
      "chip": "ym2612"
    },
    {
      "channel": 4,
      "note": 90,
      "start": 61.8071,
      "duration": 0.2011,
      "velocity": 98,
      "chip": "ym2612"
    },
    {
      "channel": 0,
      "note": 55,
      "start": 61.848,
      "duration": 0.0926,
      "velocity": 85,
      "chip": "ym2612"
    },
    {
      "channel": 1,
      "note": 91,
      "start": 61.8481,
      "duration": 0.1966,
      "velocity": 101,
      "chip": "ym2612"
    },
    {
      "channel": 2,
      "note": 79,
      "start": 61.8482,
      "duration": 0.0926,
      "velocity": 99,
      "chip": "ym2612"
    },
    {
      "channel": 3,
      "note": 69,
      "start": 61.8482,
      "duration": 0.1966,
      "velocity": 89,
      "chip": "ym2612"
    },
    {
      "channel": 5,
      "note": 49,
      "start": 61.8483,
      "duration": 0.1168,
      "velocity": 125,
      "chip": "ym2612"
    },
    {
      "channel": 0,
      "note": 57,
      "start": 61.965,
      "duration": 0.2978,
      "velocity": 85,
      "chip": "ym2612"
    },
    {
      "channel": 2,
      "note": 78,
      "start": 61.9651,
      "duration": 0.0941,
      "velocity": 99,
      "chip": "ym2612"
    },
    {
      "channel": 5,
      "note": 49,
      "start": 61.9652,
      "duration": 0.1183,
      "velocity": 125,
      "chip": "ym2612"
    },
    {
      "channel": 4,
      "note": 91,
      "start": 62.0449,
      "duration": 0.201,
      "velocity": 98,
      "chip": "ym2612"
    },
    {
      "channel": 1,
      "note": 93,
      "start": 62.0833,
      "duration": 0.1974,
      "velocity": 101,
      "chip": "ym2612"
    },
    {
      "channel": 2,
      "note": 76,
      "start": 62.0834,
      "duration": 0.1974,
      "velocity": 99,
      "chip": "ym2612"
    },
    {
      "channel": 3,
      "note": 76,
      "start": 62.0835,
      "duration": 0.1974,
      "velocity": 89,
      "chip": "ym2612"
    },
    {
      "channel": 5,
      "note": 38,
      "start": 62.0836,
      "duration": 0.1154,
      "velocity": 125,
      "chip": "ym2612"
    },
    {
      "channel": 5,
      "note": 38,
      "start": 62.1991,
      "duration": 0.123,
      "velocity": 117,
      "chip": "ym2612"
    },
    {
      "channel": 4,
      "note": 93,
      "start": 62.2809,
      "duration": 0.2011,
      "velocity": 98,
      "chip": "ym2612"
    },
    {
      "channel": 0,
      "note": 57,
      "start": 62.3219,
      "duration": 0.0926,
      "velocity": 85,
      "chip": "ym2612"
    },
    {
      "channel": 1,
      "note": 90,
      "start": 62.322,
      "duration": 0.1951,
      "velocity": 101,
      "chip": "ym2612"
    },
    {
      "channel": 3,
      "note": 81,
      "start": 62.322,
      "duration": 0.0925,
      "velocity": 89,
      "chip": "ym2612"
    },
    {
      "channel": 5,
      "note": 55,
      "start": 62.3222,
      "duration": 0.1141,
      "velocity": 117,
      "chip": "ym2612"
    },
    {
      "channel": 0,
      "note": 59,
      "start": 62.436,
      "duration": 0.2975,
      "velocity": 85,
      "chip": "ym2612"
    },
    {
      "channel": 3,
      "note": 81,
      "start": 62.4361,
      "duration": 0.0963,
      "velocity": 89,
      "chip": "ym2612"
    },
    {
      "channel": 5,
      "note": 55,
      "start": 62.4363,
      "duration": 0.1188,
      "velocity": 127,
      "chip": "ym2612"
    },
    {
      "channel": 4,
      "note": 90,
      "start": 62.5172,
      "duration": 0.1998,
      "velocity": 98,
      "chip": "ym2612"
    },
    {
      "channel": 1,
      "note": 86,
      "start": 62.5549,
      "duration": 0.3971,
      "velocity": 101,
      "chip": "ym2612"
    },
    {
      "channel": 2,
      "note": 76,
      "start": 62.555,
      "duration": 0.0951,
      "velocity": 99,
      "chip": "ym2612"
    },
    {
      "channel": 3,
      "note": 74,
      "start": 62.555,
      "duration": 0.1961,
      "velocity": 89,
      "chip": "ym2612"
    },
    {
      "channel": 5,
      "note": 57,
      "start": 62.5552,
      "duration": 0.1162,
      "velocity": 125,
      "chip": "ym2612"
    },
    {
      "channel": 2,
      "note": 78,
      "start": 62.6712,
      "duration": 0.0955,
      "velocity": 99,
      "chip": "ym2612"
    },
    {
      "channel": 5,
      "note": 38,
      "start": 62.6715,
      "duration": 0.1172,
      "velocity": 125,
      "chip": "ym2612"
    },
    {
      "channel": 4,
      "note": 86,
      "start": 62.7512,
      "duration": 0.403,
      "velocity": 98,
      "chip": "ym2612"
    },
    {
      "channel": 0,
      "note": 59,
      "start": 62.7885,
      "duration": 0.1974,
      "velocity": 85,
      "chip": "ym2612"
    },
    {
      "channel": 3,
      "note": 71,
      "start": 62.7886,
      "duration": 0.1974,
      "velocity": 89,
      "chip": "ym2612"
    },
    {
      "channel": 5,
      "note": 38,
      "start": 62.7888,
      "duration": 0.2393,
      "velocity": 117,
      "chip": "ym2612"
    },
    {
      "channel": 2,
      "note": 78,
      "start": 62.9022,
      "duration": 0.1002,
      "velocity": 99,
      "chip": "ym2612"
    },
    {
      "channel": 0,
      "note": 59,
      "start": 63.0278,
      "duration": 0.396,
      "velocity": 85,
      "chip": "ym2612"
    },
    {
      "channel": 1,
      "note": 83,
      "start": 63.0279,
      "duration": 1.022,
      "velocity": 101,
      "chip": "ym2612"
    },
    {
      "channel": 3,
      "note": 74,
      "start": 63.0279,
      "duration": 0.1943,
      "velocity": 89,
      "chip": "ym2612"
    },
    {
      "channel": 5,
      "note": 55,
      "start": 63.0281,
      "duration": 0.1138,
      "velocity": 117,
      "chip": "ym2612"
    },
    {
      "channel": 2,
      "note": 78,
      "start": 63.1418,
      "duration": 0.0967,
      "velocity": 99,
      "chip": "ym2612"
    },
    {
      "channel": 5,
      "note": 55,
      "start": 63.1419,
      "duration": 0.1208,
      "velocity": 127,
      "chip": "ym2612"
    },
    {
      "channel": 4,
      "note": 83,
      "start": 63.2223,
      "duration": 1.0279,
      "velocity": 98,
      "chip": "ym2612"
    },
    {
      "channel": 2,
      "note": 81,
      "start": 63.2626,
      "duration": 0.1955,
      "velocity": 99,
      "chip": "ym2612"
    },
    {
      "channel": 3,
      "note": 71,
      "start": 63.2627,
      "duration": 0.1955,
      "velocity": 89,
      "chip": "ym2612"
    },
    {
      "channel": 5,
      "note": 57,
      "start": 63.2627,
      "duration": 0.1159,
      "velocity": 127,
      "chip": "ym2612"
    },
    {
      "channel": 5,
      "note": 57,
      "start": 63.3786,
      "duration": 0.1207,
      "velocity": 127,
      "chip": "ym2612"
    },
    {
      "channel": 0,
      "note": 59,
      "start": 63.4991,
      "duration": 0.1969,
      "velocity": 85,
      "chip": "ym2612"
    },
    {
      "channel": 2,
      "note": 78,
      "start": 63.4992,
      "duration": 0.1288,
      "velocity": 99,
      "chip": "ym2612"
    },
    {
      "channel": 3,
      "note": 74,
      "start": 63.4993,
      "duration": 0.1969,
      "velocity": 89,
      "chip": "ym2612"
    },
    {
      "channel": 5,
      "note": 44,
      "start": 63.4994,
      "duration": 0.1151,
      "velocity": 127,
      "chip": "ym2612"
    },
    {
      "channel": 5,
      "note": 44,
      "start": 63.6145,
      "duration": 0.1209,
      "velocity": 125,
      "chip": "ym2612"
    },
    {
      "channel": 2,
      "note": 83,
      "start": 63.6631,
      "duration": 0.0493,
      "velocity": 99,
      "chip": "ym2612"
    },
    {
      "channel": 0,
      "note": 57,
      "start": 63.7352,
      "duration": 0.0951,
      "velocity": 85,
      "chip": "ym2612"
    },
    {
      "channel": 2,
      "note": 81,
      "start": 63.7353,
      "duration": 0.0951,
      "velocity": 99,
      "chip": "ym2612"
    },
    {
      "channel": 3,
      "note": 71,
      "start": 63.7353,
      "duration": 0.1965,
      "velocity": 89,
      "chip": "ym2612"
    },
    {
      "channel": 5,
      "note": 49,
      "start": 63.7354,
      "duration": 0.1172,
      "velocity": 125,
      "chip": "ym2612"
    },
    {
      "channel": 0,
      "note": 59,
      "start": 63.8526,
      "duration": 0.2975,
      "velocity": 85,
      "chip": "ym2612"
    },
    {
      "channel": 2,
      "note": 79,
      "start": 63.8526,
      "duration": 0.0956,
      "velocity": 99,
      "chip": "ym2612"
    },
    {
      "channel": 5,
      "note": 49,
      "start": 63.8527,
      "duration": 0.1179,
      "velocity": 125,
      "chip": "ym2612"
    },
    {
      "channel": 2,
      "note": 78,
      "start": 63.9706,
      "duration": 0.1968,
      "velocity": 99,
      "chip": "ym2612"
    },
    {
      "channel": 3,
      "note": 78,
      "start": 63.9706,
      "duration": 0.1968,
      "velocity": 89,
      "chip": "ym2612"
    },
    {
      "channel": 5,
      "note": 38,
      "start": 63.9707,
      "duration": 0.116,
      "velocity": 125,
      "chip": "ym2612"
    },
    {
      "channel": 5,
      "note": 38,
      "start": 64.0868,
      "duration": 0.1238,
      "velocity": 117,
      "chip": "ym2612"
    },
    {
      "channel": 0,
      "note": 55,
      "start": 64.2088,
      "duration": 0.0913,
      "velocity": 85,
      "chip": "ym2612"
    },
    {
      "channel": 1,
      "note": 91,
      "start": 64.2089,
      "duration": 1.0205,
      "velocity": 101,
      "chip": "ym2612"
    },
    {
      "channel": 3,
      "note": 79,
      "start": 64.209,
      "duration": 0.0913,
      "velocity": 89,
      "chip": "ym2612"
    },
    {
      "channel": 5,
      "note": 55,
      "start": 64.2106,
      "duration": 0.1111,
      "velocity": 117,
      "chip": "ym2612"
    },
    {
      "channel": 0,
      "note": 57,
      "start": 64.3216,
      "duration": 0.2987,
      "velocity": 85,
      "chip": "ym2612"
    },
    {
      "channel": 3,
      "note": 79,
      "start": 64.3217,
      "duration": 0.0966,
      "velocity": 89,
      "chip": "ym2612"
    },
    {
      "channel": 5,
      "note": 55,
      "start": 64.3218,
      "duration": 0.1184,
      "velocity": 127,
      "chip": "ym2612"
    },
    {
      "channel": 4,
      "note": 91,
      "start": 64.4029,
      "duration": 1.0285,
      "velocity": 98,
      "chip": "ym2612"
    },
    {
      "channel": 2,
      "note": 74,
      "start": 64.4401,
      "duration": 0.096,
      "velocity": 99,
      "chip": "ym2612"
    },
    {
      "channel": 3,
      "note": 72,
      "start": 64.4402,
      "duration": 0.1976,
      "velocity": 89,
      "chip": "ym2612"
    },
    {
      "channel": 5,
      "note": 57,
      "start": 64.4403,
      "duration": 0.1173,
      "velocity": 125,
      "chip": "ym2612"
    },
    {
      "channel": 2,
      "note": 76,
      "start": 64.5575,
      "duration": 0.0966,
      "velocity": 99,
      "chip": "ym2612"
    },
    {
      "channel": 5,
      "note": 38,
      "start": 64.5576,
      "duration": 0.1205,
      "velocity": 125,
      "chip": "ym2612"
    },
    {
      "channel": 0,
      "note": 57,
      "start": 64.6779,
      "duration": 0.1957,
      "velocity": 85,
      "chip": "ym2612"
    },
    {
      "channel": 3,
      "note": 69,
      "start": 64.678,
      "duration": 0.1957,
      "velocity": 89,
      "chip": "ym2612"
    },
    {
      "channel": 5,
      "note": 38,
      "start": 64.6781,
      "duration": 0.2357,
      "velocity": 117,
      "chip": "ym2612"
    },
    {
      "channel": 2,
      "note": 76,
      "start": 64.7899,
      "duration": 0.1002,
      "velocity": 99,
      "chip": "ym2612"
    },
    {
      "channel": 0,
      "note": 57,
      "start": 64.9137,
      "duration": 0.3995,
      "velocity": 85,
      "chip": "ym2612"
    },
    {
      "channel": 3,
      "note": 72,
      "start": 64.9137,
      "duration": 0.1975,
      "velocity": 89,
      "chip": "ym2612"
    },
    {
      "channel": 5,
      "note": 55,
      "start": 64.9139,
      "duration": 0.1177,
      "velocity": 117,
      "chip": "ym2612"
    },
    {
      "channel": 2,
      "note": 76,
      "start": 65.0315,
      "duration": 0.0965,
      "velocity": 99,
      "chip": "ym2612"
    },
    {
      "channel": 5,
      "note": 55,
      "start": 65.0316,
      "duration": 0.1186,
      "velocity": 127,
      "chip": "ym2612"
    },
    {
      "channel": 2,
      "note": 79,
      "start": 65.1501,
      "duration": 0.1976,
      "velocity": 99,
      "chip": "ym2612"
    },
    {
      "channel": 3,
      "note": 69,
      "start": 65.1502,
      "duration": 0.1976,
      "velocity": 89,
      "chip": "ym2612"
    },
    {
      "channel": 5,
      "note": 57,
      "start": 65.1503,
      "duration": 0.1159,
      "velocity": 127,
      "chip": "ym2612"
    },
    {
      "channel": 5,
      "note": 57,
      "start": 65.2662,
      "duration": 0.1211,
      "velocity": 127,
      "chip": "ym2612"
    },
    {
      "channel": 0,
      "note": 57,
      "start": 65.3871,
      "duration": 0.1969,
      "velocity": 85,
      "chip": "ym2612"
    },
    {
      "channel": 1,
      "note": 90,
      "start": 65.3872,
      "duration": 0.1969,
      "velocity": 101,
      "chip": "ym2612"
    },
    {
      "channel": 2,
      "note": 76,
      "start": 65.3872,
      "duration": 0.1284,
      "velocity": 99,
      "chip": "ym2612"
    },
    {
      "channel": 3,
      "note": 72,
      "start": 65.3873,
      "duration": 0.1969,
      "velocity": 89,
      "chip": "ym2612"
    },
    {
      "channel": 5,
      "note": 44,
      "start": 65.3874,
      "duration": 0.1146,
      "velocity": 127,
      "chip": "ym2612"
    },
    {
      "channel": 5,
      "note": 44,
      "start": 65.5021,
      "duration": 0.1214,
      "velocity": 125,
      "chip": "ym2612"
    },
    {
      "channel": 2,
      "note": 81,
      "start": 65.5507,
      "duration": 0.049,
      "velocity": 99,
      "chip": "ym2612"
    },
    {
      "channel": 4,
      "note": 90,
      "start": 65.5842,
      "duration": 0.1995,
      "velocity": 98,
      "chip": "ym2612"
    },
    {
      "channel": 0,
      "note": 55,
      "start": 65.6232,
      "duration": 0.0937,
      "velocity": 85,
      "chip": "ym2612"
    },
    {
      "channel": 1,
      "note": 91,
      "start": 65.6233,
      "duration": 0.1947,
      "velocity": 101,
      "chip": "ym2612"
    },
    {
      "channel": 2,
      "note": 79,
      "start": 65.6234,
      "duration": 0.0936,
      "velocity": 99,
      "chip": "ym2612"
    },
    {
      "channel": 3,
      "note": 69,
      "start": 65.6234,
      "duration": 0.1946,
      "velocity": 89,
      "chip": "ym2612"
    },
    {
      "channel": 5,
      "note": 49,
      "start": 65.6235,
      "duration": 0.1157,
      "velocity": 125,
      "chip": "ym2612"
    },
    {
      "channel": 0,
      "note": 57,
      "start": 65.7391,
      "duration": 0.2969,
      "velocity": 85,
      "chip": "ym2612"
    },
    {
      "channel": 2,
      "note": 78,
      "start": 65.7391,
      "duration": 0.0956,
      "velocity": 99,
      "chip": "ym2612"
    },
    {
      "channel": 5,
      "note": 49,
      "start": 65.7393,
      "duration": 0.1184,
      "velocity": 125,
      "chip": "ym2612"
    },
    {
      "channel": 4,
      "note": 91,
      "start": 65.8181,
      "duration": 0.2028,
      "velocity": 98,
      "chip": "ym2612"
    },
    {
      "channel": 1,
      "note": 93,
      "start": 65.8575,
      "duration": 0.1967,
      "velocity": 101,
      "chip": "ym2612"
    },
    {
      "channel": 2,
      "note": 76,
      "start": 65.8575,
      "duration": 0.1967,
      "velocity": 99,
      "chip": "ym2612"
    },
    {
      "channel": 3,
      "note": 76,
      "start": 65.8576,
      "duration": 0.1967,
      "velocity": 89,
      "chip": "ym2612"
    },
    {
      "channel": 5,
      "note": 38,
      "start": 65.8577,
      "duration": 0.1146,
      "velocity": 125,
      "chip": "ym2612"
    },
    {
      "channel": 5,
      "note": 38,
      "start": 65.9724,
      "duration": 0.1249,
      "velocity": 117,
      "chip": "ym2612"
    },
    {
      "channel": 4,
      "note": 93,
      "start": 66.0543,
      "duration": 0.201,
      "velocity": 98,
      "chip": "ym2612"
    },
    {
      "channel": 0,
      "note": 57,
      "start": 66.0971,
      "duration": 0.0907,
      "velocity": 85,
      "chip": "ym2612"
    },
    {
      "channel": 1,
      "note": 90,
      "start": 66.0972,
      "duration": 1.6487,
      "velocity": 101,
      "chip": "ym2612"
    },
    {
      "channel": 3,
      "note": 81,
      "start": 66.0973,
      "duration": 0.0906,
      "velocity": 89,
      "chip": "ym2612"
    },
    {
      "channel": 5,
      "note": 55,
      "start": 66.0974,
      "duration": 0.1138,
      "velocity": 117,
      "chip": "ym2612"
    },
    {
      "channel": 0,
      "note": 59,
      "start": 66.2111,
      "duration": 0.2968,
      "velocity": 85,
      "chip": "ym2612"
    },
    {
      "channel": 3,
      "note": 81,
      "start": 66.2111,
      "duration": 0.0947,
      "velocity": 89,
      "chip": "ym2612"
    },
    {
      "channel": 5,
      "note": 55,
      "start": 66.2113,
      "duration": 0.1186,
      "velocity": 127,
      "chip": "ym2612"
    },
    {
      "channel": 4,
      "note": 90,
      "start": 66.2902,
      "duration": 1.6511,
      "velocity": 98,
      "chip": "ym2612"
    },
    {
      "channel": 2,
      "note": 76,
      "start": 66.3297,
      "duration": 0.0941,
      "velocity": 99,
      "chip": "ym2612"
    },
    {
      "channel": 3,
      "note": 74,
      "start": 66.3298,
      "duration": 0.1956,
      "velocity": 89,
      "chip": "ym2612"
    },
    {
      "channel": 5,
      "note": 57,
      "start": 66.3299,
      "duration": 0.1172,
      "velocity": 125,
      "chip": "ym2612"
    },
    {
      "channel": 2,
      "note": 78,
      "start": 66.447,
      "duration": 0.0946,
      "velocity": 99,
      "chip": "ym2612"
    },
    {
      "channel": 5,
      "note": 38,
      "start": 66.4471,
      "duration": 0.1185,
      "velocity": 125,
      "chip": "ym2612"
    },
    {
      "channel": 0,
      "note": 59,
      "start": 66.5655,
      "duration": 0.1974,
      "velocity": 85,
      "chip": "ym2612"
    },
    {
      "channel": 3,
      "note": 71,
      "start": 66.5656,
      "duration": 0.1974,
      "velocity": 89,
      "chip": "ym2612"
    },
    {
      "channel": 5,
      "note": 38,
      "start": 66.5657,
      "duration": 0.2358,
      "velocity": 117,
      "chip": "ym2612"
    },
    {
      "channel": 2,
      "note": 78,
      "start": 66.6794,
      "duration": 0.1002,
      "velocity": 99,
      "chip": "ym2612"
    },
    {
      "channel": 0,
      "note": 59,
      "start": 66.8013,
      "duration": 0.3989,
      "velocity": 85,
      "chip": "ym2612"
    },
    {
      "channel": 3,
      "note": 74,
      "start": 66.8014,
      "duration": 0.1975,
      "velocity": 89,
      "chip": "ym2612"
    },
    {
      "channel": 5,
      "note": 55,
      "start": 66.8015,
      "duration": 0.1174,
      "velocity": 117,
      "chip": "ym2612"
    },
    {
      "channel": 2,
      "note": 78,
      "start": 66.9189,
      "duration": 0.0967,
      "velocity": 99,
      "chip": "ym2612"
    },
    {
      "channel": 5,
      "note": 55,
      "start": 66.919,
      "duration": 0.1189,
      "velocity": 127,
      "chip": "ym2612"
    },
    {
      "channel": 2,
      "note": 81,
      "start": 67.0378,
      "duration": 0.1964,
      "velocity": 99,
      "chip": "ym2612"
    },
    {
      "channel": 3,
      "note": 71,
      "start": 67.0379,
      "duration": 0.1964,
      "velocity": 89,
      "chip": "ym2612"
    },
    {
      "channel": 5,
      "note": 57,
      "start": 67.038,
      "duration": 0.1156,
      "velocity": 127,
      "chip": "ym2612"
    },
    {
      "channel": 5,
      "note": 57,
      "start": 67.1536,
      "duration": 0.1194,
      "velocity": 127,
      "chip": "ym2612"
    },
    {
      "channel": 0,
      "note": 59,
      "start": 67.2729,
      "duration": 0.1964,
      "velocity": 85,
      "chip": "ym2612"
    },
    {
      "channel": 2,
      "note": 78,
      "start": 67.2729,
      "duration": 0.1285,
      "velocity": 99,
      "chip": "ym2612"
    },
    {
      "channel": 3,
      "note": 74,
      "start": 67.273,
      "duration": 0.1963,
      "velocity": 89,
      "chip": "ym2612"
    },
    {
      "channel": 5,
      "note": 44,
      "start": 67.2731,
      "duration": 0.1153,
      "velocity": 127,
      "chip": "ym2612"
    },
    {
      "channel": 5,
      "note": 44,
      "start": 67.3884,
      "duration": 0.1203,
      "velocity": 125,
      "chip": "ym2612"
    },
    {
      "channel": 2,
      "note": 83,
      "start": 67.4363,
      "duration": 0.0494,
      "velocity": 99,
      "chip": "ym2612"
    },
    {
      "channel": 0,
      "note": 57,
      "start": 67.5084,
      "duration": 0.0951,
      "velocity": 85,
      "chip": "ym2612"
    },
    {
      "channel": 2,
      "note": 81,
      "start": 67.5085,
      "duration": 0.095,
      "velocity": 99,
      "chip": "ym2612"
    },
    {
      "channel": 3,
      "note": 71,
      "start": 67.5086,
      "duration": 0.1965,
      "velocity": 89,
      "chip": "ym2612"
    },
    {
      "channel": 5,
      "note": 49,
      "start": 67.5087,
      "duration": 0.1192,
      "velocity": 125,
      "chip": "ym2612"
    },
    {
      "channel": 0,
      "note": 59,
      "start": 67.6278,
      "duration": 0.296,
      "velocity": 85,
      "chip": "ym2612"
    },
    {
      "channel": 2,
      "note": 79,
      "start": 67.6279,
      "duration": 0.0936,
      "velocity": 99,
      "chip": "ym2612"
    },
    {
      "channel": 5,
      "note": 49,
      "start": 67.628,
      "duration": 0.1181,
      "velocity": 125,
      "chip": "ym2612"
    },
    {
      "channel": 2,
      "note": 78,
      "start": 67.746,
      "duration": 0.1951,
      "velocity": 99,
      "chip": "ym2612"
    },
    {
      "channel": 3,
      "note": 78,
      "start": 67.7461,
      "duration": 0.1952,
      "velocity": 89,
      "chip": "ym2612"
    },
    {
      "channel": 5,
      "note": 38,
      "start": 67.7462,
      "duration": 0.1158,
      "velocity": 125,
      "chip": "ym2612"
    },
    {
      "channel": 5,
      "note": 38,
      "start": 67.862,
      "duration": 0.123,
      "velocity": 117,
      "chip": "ym2612"
    },
    {
      "channel": 0,
      "note": 59,
      "start": 67.9847,
      "duration": 0.0907,
      "velocity": 85,
      "chip": "ym2612"
    },
    {
      "channel": 1,
      "note": 95,
      "start": 67.9848,
      "duration": 1.2198,
      "velocity": 101,
      "chip": "ym2612"
    },
    {
      "channel": 3,
      "note": 83,
      "start": 67.9849,
      "duration": 0.0911,
      "velocity": 89,
      "chip": "ym2612"
    },
    {
      "channel": 5,
      "note": 55,
      "start": 67.985,
      "duration": 0.1138,
      "velocity": 117,
      "chip": "ym2612"
    },
    {
      "channel": 0,
      "note": 60,
      "start": 68.0987,
      "duration": 0.2988,
      "velocity": 85,
      "chip": "ym2612"
    },
    {
      "channel": 3,
      "note": 83,
      "start": 68.0987,
      "duration": 0.0966,
      "velocity": 89,
      "chip": "ym2612"
    },
    {
      "channel": 5,
      "note": 55,
      "start": 68.0989,
      "duration": 0.1184,
      "velocity": 127,
      "chip": "ym2612"
    },
    {
      "channel": 4,
      "note": 95,
      "start": 68.1797,
      "duration": 1.2272,
      "velocity": 98,
      "chip": "ym2612"
    },
    {
      "channel": 2,
      "note": 78,
      "start": 68.2171,
      "duration": 0.0961,
      "velocity": 99,
      "chip": "ym2612"
    },
    {
      "channel": 3,
      "note": 76,
      "start": 68.2172,
      "duration": 0.1976,
      "velocity": 89,
      "chip": "ym2612"
    },
    {
      "channel": 5,
      "note": 57,
      "start": 68.2173,
      "duration": 0.1173,
      "velocity": 125,
      "chip": "ym2612"
    },
    {
      "channel": 2,
      "note": 79,
      "start": 68.3346,
      "duration": 0.0966,
      "velocity": 99,
      "chip": "ym2612"
    },
    {
      "channel": 5,
      "note": 38,
      "start": 68.3347,
      "duration": 0.1186,
      "velocity": 125,
      "chip": "ym2612"
    },
    {
      "channel": 0,
      "note": 60,
      "start": 68.4531,
      "duration": 0.1971,
      "velocity": 85,
      "chip": "ym2612"
    },
    {
      "channel": 3,
      "note": 72,
      "start": 68.4532,
      "duration": 0.1971,
      "velocity": 89,
      "chip": "ym2612"
    },
    {
      "channel": 5,
      "note": 38,
      "start": 68.4534,
      "duration": 0.2353,
      "velocity": 117,
      "chip": "ym2612"
    },
    {
      "channel": 2,
      "note": 79,
      "start": 68.5669,
      "duration": 0.0998,
      "velocity": 99,
      "chip": "ym2612"
    },
    {
      "channel": 0,
      "note": 60,
      "start": 68.6885,
      "duration": 0.398,
      "velocity": 85,
      "chip": "ym2612"
    },
    {
      "channel": 3,
      "note": 76,
      "start": 68.6885,
      "duration": 0.1964,
      "velocity": 89,
      "chip": "ym2612"
    },
    {
      "channel": 5,
      "note": 55,
      "start": 68.6887,
      "duration": 0.1162,
      "velocity": 117,
      "chip": "ym2612"
    },
    {
      "channel": 2,
      "note": 79,
      "start": 68.8048,
      "duration": 0.0966,
      "velocity": 99,
      "chip": "ym2612"
    },
    {
      "channel": 5,
      "note": 55,
      "start": 68.8049,
      "duration": 0.1187,
      "velocity": 127,
      "chip": "ym2612"
    },
    {
      "channel": 2,
      "note": 83,
      "start": 68.9235,
      "duration": 0.1974,
      "velocity": 99,
      "chip": "ym2612"
    },
    {
      "channel": 3,
      "note": 72,
      "start": 68.9235,
      "duration": 0.1974,
      "velocity": 89,
      "chip": "ym2612"
    },
    {
      "channel": 5,
      "note": 57,
      "start": 68.9237,
      "duration": 0.1159,
      "velocity": 127,
      "chip": "ym2612"
    },
    {
      "channel": 5,
      "note": 57,
      "start": 69.0396,
      "duration": 0.1225,
      "velocity": 127,
      "chip": "ym2612"
    },
    {
      "channel": 0,
      "note": 60,
      "start": 69.1619,
      "duration": 0.195,
      "velocity": 85,
      "chip": "ym2612"
    },
    {
      "channel": 2,
      "note": 79,
      "start": 69.162,
      "duration": 0.1269,
      "velocity": 99,
      "chip": "ym2612"
    },
    {
      "channel": 3,
      "note": 76,
      "start": 69.162,
      "duration": 0.195,
      "velocity": 89,
      "chip": "ym2612"
    },
    {
      "channel": 5,
      "note": 44,
      "start": 69.1622,
      "duration": 0.1133,
      "velocity": 127,
      "chip": "ym2612"
    },
    {
      "channel": 5,
      "note": 44,
      "start": 69.2759,
      "duration": 0.1227,
      "velocity": 125,
      "chip": "ym2612"
    },
    {
      "channel": 2,
      "note": 84,
      "start": 69.3241,
      "duration": 0.0491,
      "velocity": 99,
      "chip": "ym2612"
    },
    {
      "channel": 0,
      "note": 59,
      "start": 69.3983,
      "duration": 0.0928,
      "velocity": 85,
      "chip": "ym2612"
    },
    {
      "channel": 1,
      "note": 93,
      "start": 69.3984,
      "duration": 0.1967,
      "velocity": 101,
      "chip": "ym2612"
    },
    {
      "channel": 2,
      "note": 83,
      "start": 69.3985,
      "duration": 0.0927,
      "velocity": 99,
      "chip": "ym2612"
    },
    {
      "channel": 3,
      "note": 72,
      "start": 69.3985,
      "duration": 0.1966,
      "velocity": 89,
      "chip": "ym2612"
    },
    {
      "channel": 5,
      "note": 49,
      "start": 69.3987,
      "duration": 0.1167,
      "velocity": 125,
      "chip": "ym2612"
    },
    {
      "channel": 0,
      "note": 60,
      "start": 69.5153,
      "duration": 0.2977,
      "velocity": 85,
      "chip": "ym2612"
    },
    {
      "channel": 2,
      "note": 81,
      "start": 69.5153,
      "duration": 0.0958,
      "velocity": 99,
      "chip": "ym2612"
    },
    {
      "channel": 5,
      "note": 49,
      "start": 69.5155,
      "duration": 0.1185,
      "velocity": 125,
      "chip": "ym2612"
    },
    {
      "channel": 4,
      "note": 93,
      "start": 69.5952,
      "duration": 0.2012,
      "velocity": 98,
      "chip": "ym2612"
    },
    {
      "channel": 1,
      "note": 91,
      "start": 69.6338,
      "duration": 0.1975,
      "velocity": 101,
      "chip": "ym2612"
    },
    {
      "channel": 2,
      "note": 79,
      "start": 69.6339,
      "duration": 0.1975,
      "velocity": 99,
      "chip": "ym2612"
    },
    {
      "channel": 3,
      "note": 79,
      "start": 69.6339,
      "duration": 0.1974,
      "velocity": 89,
      "chip": "ym2612"
    },
    {
      "channel": 5,
      "note": 38,
      "start": 69.634,
      "duration": 0.1153,
      "velocity": 125,
      "chip": "ym2612"
    },
    {
      "channel": 5,
      "note": 38,
      "start": 69.7494,
      "duration": 0.1233,
      "velocity": 117,
      "chip": "ym2612"
    },
    {
      "channel": 4,
      "note": 91,
      "start": 69.8314,
      "duration": 0.2008,
      "velocity": 98,
      "chip": "ym2612"
    },
    {
      "channel": 0,
      "note": 60,
      "start": 69.8725,
      "duration": 0.0924,
      "velocity": 85,
      "chip": "ym2612"
    },
    {
      "channel": 1,
      "note": 93,
      "start": 69.8725,
      "duration": 0.1949,
      "velocity": 101,
      "chip": "ym2612"
    },
    {
      "channel": 3,
      "note": 81,
      "start": 69.8726,
      "duration": 0.0924,
      "velocity": 89,
      "chip": "ym2612"
    },
    {
      "channel": 5,
      "note": 55,
      "start": 69.8727,
      "duration": 0.1137,
      "velocity": 117,
      "chip": "ym2612"
    },
    {
      "channel": 0,
      "note": 62,
      "start": 69.9863,
      "duration": 0.2972,
      "velocity": 85,
      "chip": "ym2612"
    },
    {
      "channel": 3,
      "note": 81,
      "start": 69.9864,
      "duration": 0.0966,
      "velocity": 89,
      "chip": "ym2612"
    },
    {
      "channel": 5,
      "note": 55,
      "start": 69.9865,
      "duration": 0.1189,
      "velocity": 127,
      "chip": "ym2612"
    },
    {
      "channel": 4,
      "note": 93,
      "start": 70.0674,
      "duration": 0.1994,
      "velocity": 98,
      "chip": "ym2612"
    },
    {
      "channel": 1,
      "note": 90,
      "start": 70.1052,
      "duration": 0.3971,
      "velocity": 101,
      "chip": "ym2612"
    },
    {
      "channel": 2,
      "note": 79,
      "start": 70.1052,
      "duration": 0.0949,
      "velocity": 99,
      "chip": "ym2612"
    },
    {
      "channel": 3,
      "note": 78,
      "start": 70.1053,
      "duration": 0.1959,
      "velocity": 89,
      "chip": "ym2612"
    },
    {
      "channel": 5,
      "note": 57,
      "start": 70.1054,
      "duration": 0.1163,
      "velocity": 125,
      "chip": "ym2612"
    },
    {
      "channel": 2,
      "note": 81,
      "start": 70.2216,
      "duration": 0.0952,
      "velocity": 99,
      "chip": "ym2612"
    },
    {
      "channel": 5,
      "note": 38,
      "start": 70.2218,
      "duration": 0.1171,
      "velocity": 125,
      "chip": "ym2612"
    },
    {
      "channel": 4,
      "note": 90,
      "start": 70.3013,
      "duration": 0.4032,
      "velocity": 98,
      "chip": "ym2612"
    },
    {
      "channel": 0,
      "note": 62,
      "start": 70.3386,
      "duration": 0.1978,
      "velocity": 85,
      "chip": "ym2612"
    },
    {
      "channel": 3,
      "note": 74,
      "start": 70.3387,
      "duration": 0.1978,
      "velocity": 89,
      "chip": "ym2612"
    },
    {
      "channel": 5,
      "note": 38,
      "start": 70.3388,
      "duration": 0.2364,
      "velocity": 117,
      "chip": "ym2612"
    },
    {
      "channel": 2,
      "note": 81,
      "start": 70.4528,
      "duration": 0.1,
      "velocity": 99,
      "chip": "ym2612"
    },
    {
      "channel": 0,
      "note": 62,
      "start": 70.5751,
      "duration": 0.399,
      "velocity": 85,
      "chip": "ym2612"
    },
    {
      "channel": 1,
      "note": 86,
      "start": 70.5751,
      "duration": 1.0251,
      "velocity": 101,
      "chip": "ym2612"
    },
    {
      "channel": 3,
      "note": 78,
      "start": 70.5752,
      "duration": 0.1973,
      "velocity": 89,
      "chip": "ym2612"
    },
    {
      "channel": 5,
      "note": 55,
      "start": 70.5753,
      "duration": 0.1189,
      "velocity": 117,
      "chip": "ym2612"
    },
    {
      "channel": 2,
      "note": 81,
      "start": 70.6926,
      "duration": 0.0961,
      "velocity": 99,
      "chip": "ym2612"
    },
    {
      "channel": 5,
      "note": 55,
      "start": 70.6943,
      "duration": 0.119,
      "velocity": 127,
      "chip": "ym2612"
    },
    {
      "channel": 4,
      "note": 86,
      "start": 70.7726,
      "duration": 1.0277,
      "velocity": 98,
      "chip": "ym2612"
    },
    {
      "channel": 2,
      "note": 86,
      "start": 70.8131,
      "duration": 0.1954,
      "velocity": 99,
      "chip": "ym2612"
    },
    {
      "channel": 3,
      "note": 74,
      "start": 70.8132,
      "duration": 0.1954,
      "velocity": 89,
      "chip": "ym2612"
    },
    {
      "channel": 5,
      "note": 57,
      "start": 70.8133,
      "duration": 0.1158,
      "velocity": 127,
      "chip": "ym2612"
    },
    {
      "channel": 5,
      "note": 57,
      "start": 70.9292,
      "duration": 0.1205,
      "velocity": 127,
      "chip": "ym2612"
    },
    {
      "channel": 0,
      "note": 62,
      "start": 71.0495,
      "duration": 0.1969,
      "velocity": 85,
      "chip": "ym2612"
    },
    {
      "channel": 2,
      "note": 81,
      "start": 71.0496,
      "duration": 0.1288,
      "velocity": 99,
      "chip": "ym2612"
    },
    {
      "channel": 3,
      "note": 78,
      "start": 71.0496,
      "duration": 0.1968,
      "velocity": 89,
      "chip": "ym2612"
    },
    {
      "channel": 5,
      "note": 44,
      "start": 71.0498,
      "duration": 0.1151,
      "velocity": 127,
      "chip": "ym2612"
    },
    {
      "channel": 5,
      "note": 44,
      "start": 71.165,
      "duration": 0.1209,
      "velocity": 125,
      "chip": "ym2612"
    },
    {
      "channel": 2,
      "note": 88,
      "start": 71.2135,
      "duration": 0.0491,
      "velocity": 99,
      "chip": "ym2612"
    },
    {
      "channel": 0,
      "note": 60,
      "start": 71.2857,
      "duration": 0.0951,
      "velocity": 85,
      "chip": "ym2612"
    },
    {
      "channel": 2,
      "note": 86,
      "start": 71.2858,
      "duration": 0.0951,
      "velocity": 99,
      "chip": "ym2612"
    },
    {
      "channel": 3,
      "note": 74,
      "start": 71.2858,
      "duration": 0.1963,
      "velocity": 89,
      "chip": "ym2612"
    },
    {
      "channel": 5,
      "note": 49,
      "start": 71.2859,
      "duration": 0.1171,
      "velocity": 125,
      "chip": "ym2612"
    },
    {
      "channel": 0,
      "note": 62,
      "start": 71.4029,
      "duration": 0.2972,
      "velocity": 85,
      "chip": "ym2612"
    },
    {
      "channel": 2,
      "note": 83,
      "start": 71.4029,
      "duration": 0.0956,
      "velocity": 99,
      "chip": "ym2612"
    },
    {
      "channel": 5,
      "note": 49,
      "start": 71.4031,
      "duration": 0.1181,
      "velocity": 125,
      "chip": "ym2612"
    },
    {
      "channel": 2,
      "note": 81,
      "start": 71.5211,
      "duration": 0.1966,
      "velocity": 99,
      "chip": "ym2612"
    },
    {
      "channel": 3,
      "note": 78,
      "start": 71.5211,
      "duration": 0.1966,
      "velocity": 89,
      "chip": "ym2612"
    },
    {
      "channel": 5,
      "note": 38,
      "start": 71.5212,
      "duration": 0.1155,
      "velocity": 125,
      "chip": "ym2612"
    },
    {
      "channel": 5,
      "note": 38,
      "start": 71.6368,
      "duration": 0.1238,
      "velocity": 117,
      "chip": "ym2612"
    },
    {
      "channel": 0,
      "note": 59,
      "start": 71.7604,
      "duration": 0.09,
      "velocity": 85,
      "chip": "ym2612"
    },
    {
      "channel": 1,
      "note": 95,
      "start": 71.7605,
      "duration": 1.2213,
      "velocity": 101,
      "chip": "ym2612"
    },
    {
      "channel": 3,
      "note": 83,
      "start": 71.7606,
      "duration": 0.09,
      "velocity": 89,
      "chip": "ym2612"
    },
    {
      "channel": 5,
      "note": 55,
      "start": 71.7607,
      "duration": 0.1121,
      "velocity": 117,
      "chip": "ym2612"
    },
    {
      "channel": 0,
      "note": 60,
      "start": 71.8726,
      "duration": 0.2981,
      "velocity": 85,
      "chip": "ym2612"
    },
    {
      "channel": 3,
      "note": 83,
      "start": 71.8727,
      "duration": 0.0959,
      "velocity": 89,
      "chip": "ym2612"
    },
    {
      "channel": 5,
      "note": 55,
      "start": 71.8729,
      "duration": 0.1176,
      "velocity": 127,
      "chip": "ym2612"
    },
    {
      "channel": 4,
      "note": 95,
      "start": 71.9532,
      "duration": 1.2303,
      "velocity": 98,
      "chip": "ym2612"
    },
    {
      "channel": 2,
      "note": 78,
      "start": 71.9903,
      "duration": 0.0961,
      "velocity": 99,
      "chip": "ym2612"
    },
    {
      "channel": 3,
      "note": 76,
      "start": 71.9904,
      "duration": 0.1979,
      "velocity": 89,
      "chip": "ym2612"
    },
    {
      "channel": 5,
      "note": 57,
      "start": 71.9905,
      "duration": 0.1176,
      "velocity": 125,
      "chip": "ym2612"
    },
    {
      "channel": 2,
      "note": 79,
      "start": 72.108,
      "duration": 0.0966,
      "velocity": 99,
      "chip": "ym2612"
    },
    {
      "channel": 5,
      "note": 38,
      "start": 72.1081,
      "duration": 0.1202,
      "velocity": 125,
      "chip": "ym2612"
    },
    {
      "channel": 0,
      "note": 60,
      "start": 72.2282,
      "duration": 0.1956,
      "velocity": 85,
      "chip": "ym2612"
    },
    {
      "channel": 3,
      "note": 72,
      "start": 72.2283,
      "duration": 0.1956,
      "velocity": 89,
      "chip": "ym2612"
    },
    {
      "channel": 5,
      "note": 38,
      "start": 72.2284,
      "duration": 0.2359,
      "velocity": 117,
      "chip": "ym2612"
    },
    {
      "channel": 2,
      "note": 79,
      "start": 72.3403,
      "duration": 0.1002,
      "velocity": 99,
      "chip": "ym2612"
    },
    {
      "channel": 0,
      "note": 60,
      "start": 72.4641,
      "duration": 0.3995,
      "velocity": 85,
      "chip": "ym2612"
    },
    {
      "channel": 3,
      "note": 76,
      "start": 72.4642,
      "duration": 0.1975,
      "velocity": 89,
      "chip": "ym2612"
    },
    {
      "channel": 5,
      "note": 55,
      "start": 72.4643,
      "duration": 0.1176,
      "velocity": 117,
      "chip": "ym2612"
    },
    {
      "channel": 2,
      "note": 79,
      "start": 72.5818,
      "duration": 0.0966,
      "velocity": 99,
      "chip": "ym2612"
    },
    {
      "channel": 5,
      "note": 55,
      "start": 72.582,
      "duration": 0.1187,
      "velocity": 127,
      "chip": "ym2612"
    },
    {
      "channel": 2,
      "note": 83,
      "start": 72.7005,
      "duration": 0.1975,
      "velocity": 99,
      "chip": "ym2612"
    },
    {
      "channel": 3,
      "note": 72,
      "start": 72.7006,
      "duration": 0.1975,
      "velocity": 89,
      "chip": "ym2612"
    },
    {
      "channel": 5,
      "note": 57,
      "start": 72.7007,
      "duration": 0.1159,
      "velocity": 127,
      "chip": "ym2612"
    },
    {
      "channel": 5,
      "note": 57,
      "start": 72.8166,
      "duration": 0.1207,
      "velocity": 127,
      "chip": "ym2612"
    },
    {
      "channel": 0,
      "note": 60,
      "start": 72.9371,
      "duration": 0.1968,
      "velocity": 85,
      "chip": "ym2612"
    },
    {
      "channel": 2,
      "note": 79,
      "start": 72.9372,
      "duration": 0.1289,
      "velocity": 99,
      "chip": "ym2612"
    },
    {
      "channel": 3,
      "note": 76,
      "start": 72.9372,
      "duration": 0.1967,
      "velocity": 89,
      "chip": "ym2612"
    },
    {
      "channel": 5,
      "note": 44,
      "start": 72.9373,
      "duration": 0.1153,
      "velocity": 127,
      "chip": "ym2612"
    },
    {
      "channel": 5,
      "note": 44,
      "start": 73.0527,
      "duration": 0.1209,
      "velocity": 125,
      "chip": "ym2612"
    },
    {
      "channel": 2,
      "note": 84,
      "start": 73.1012,
      "duration": 0.0488,
      "velocity": 99,
      "chip": "ym2612"
    },
    {
      "channel": 0,
      "note": 59,
      "start": 73.1733,
      "duration": 0.0937,
      "velocity": 85,
      "chip": "ym2612"
    },
    {
      "channel": 1,
      "note": 93,
      "start": 73.1734,
      "duration": 0.1957,
      "velocity": 101,
      "chip": "ym2612"
    },
    {
      "channel": 2,
      "note": 83,
      "start": 73.1734,
      "duration": 0.0936,
      "velocity": 99,
      "chip": "ym2612"
    },
    {
      "channel": 3,
      "note": 72,
      "start": 73.1735,
      "duration": 0.1957,
      "velocity": 89,
      "chip": "ym2612"
    },
    {
      "channel": 5,
      "note": 49,
      "start": 73.1736,
      "duration": 0.1158,
      "velocity": 125,
      "chip": "ym2612"
    },
    {
      "channel": 0,
      "note": 60,
      "start": 73.2892,
      "duration": 0.2971,
      "velocity": 85,
      "chip": "ym2612"
    },
    {
      "channel": 2,
      "note": 81,
      "start": 73.2893,
      "duration": 0.0956,
      "velocity": 99,
      "chip": "ym2612"
    },
    {
      "channel": 5,
      "note": 49,
      "start": 73.2894,
      "duration": 0.1181,
      "velocity": 125,
      "chip": "ym2612"
    },
    {
      "channel": 4,
      "note": 93,
      "start": 73.3692,
      "duration": 0.2004,
      "velocity": 98,
      "chip": "ym2612"
    },
    {
      "channel": 1,
      "note": 91,
      "start": 73.4072,
      "duration": 0.1973,
      "velocity": 101,
      "chip": "ym2612"
    },
    {
      "channel": 2,
      "note": 79,
      "start": 73.4073,
      "duration": 0.1972,
      "velocity": 99,
      "chip": "ym2612"
    },
    {
      "channel": 3,
      "note": 79,
      "start": 73.4074,
      "duration": 0.1971,
      "velocity": 89,
      "chip": "ym2612"
    },
    {
      "channel": 5,
      "note": 38,
      "start": 73.4075,
      "duration": 0.117,
      "velocity": 125,
      "chip": "ym2612"
    },
    {
      "channel": 5,
      "note": 38,
      "start": 73.5246,
      "duration": 0.123,
      "velocity": 117,
      "chip": "ym2612"
    },
    {
      "channel": 4,
      "note": 91,
      "start": 73.6046,
      "duration": 0.2009,
      "velocity": 98,
      "chip": "ym2612"
    },
    {
      "channel": 0,
      "note": 60,
      "start": 73.6473,
      "duration": 0.0908,
      "velocity": 85,
      "chip": "ym2612"
    },
    {
      "channel": 1,
      "note": 93,
      "start": 73.6474,
      "duration": 1.6489,
      "velocity": 101,
      "chip": "ym2612"
    },
    {
      "channel": 3,
      "note": 81,
      "start": 73.6475,
      "duration": 0.0908,
      "velocity": 89,
      "chip": "ym2612"
    },
    {
      "channel": 5,
      "note": 55,
      "start": 73.6476,
      "duration": 0.1141,
      "velocity": 117,
      "chip": "ym2612"
    },
    {
      "channel": 0,
      "note": 62,
      "start": 73.7615,
      "duration": 0.297,
      "velocity": 85,
      "chip": "ym2612"
    },
    {
      "channel": 3,
      "note": 81,
      "start": 73.7616,
      "duration": 0.0946,
      "velocity": 89,
      "chip": "ym2612"
    },
    {
      "channel": 5,
      "note": 55,
      "start": 73.7617,
      "duration": 0.1184,
      "velocity": 127,
      "chip": "ym2612"
    },
    {
      "channel": 4,
      "note": 93,
      "start": 73.8407,
      "duration": 1.651,
      "velocity": 98,
      "chip": "ym2612"
    },
    {
      "channel": 2,
      "note": 79,
      "start": 73.8799,
      "duration": 0.0941,
      "velocity": 99,
      "chip": "ym2612"
    },
    {
      "channel": 3,
      "note": 78,
      "start": 73.88,
      "duration": 0.1978,
      "velocity": 89,
      "chip": "ym2612"
    },
    {
      "channel": 5,
      "note": 57,
      "start": 73.8801,
      "duration": 0.1174,
      "velocity": 125,
      "chip": "ym2612"
    },
    {
      "channel": 2,
      "note": 81,
      "start": 73.9974,
      "duration": 0.0952,
      "velocity": 99,
      "chip": "ym2612"
    },
    {
      "channel": 5,
      "note": 38,
      "start": 73.9975,
      "duration": 0.1184,
      "velocity": 125,
      "chip": "ym2612"
    },
    {
      "channel": 0,
      "note": 62,
      "start": 74.1158,
      "duration": 0.1975,
      "velocity": 85,
      "chip": "ym2612"
    },
    {
      "channel": 3,
      "note": 74,
      "start": 74.1159,
      "duration": 0.1975,
      "velocity": 89,
      "chip": "ym2612"
    },
    {
      "channel": 5,
      "note": 38,
      "start": 74.116,
      "duration": 0.236,
      "velocity": 117,
      "chip": "ym2612"
    },
    {
      "channel": 2,
      "note": 81,
      "start": 74.2298,
      "duration": 0.1001,
      "velocity": 99,
      "chip": "ym2612"
    },
    {
      "channel": 0,
      "note": 62,
      "start": 74.3519,
      "duration": 0.3985,
      "velocity": 85,
      "chip": "ym2612"
    },
    {
      "channel": 3,
      "note": 78,
      "start": 74.3519,
      "duration": 0.1973,
      "velocity": 89,
      "chip": "ym2612"
    },
    {
      "channel": 5,
      "note": 55,
      "start": 74.352,
      "duration": 0.1173,
      "velocity": 117,
      "chip": "ym2612"
    },
    {
      "channel": 2,
      "note": 81,
      "start": 74.4693,
      "duration": 0.0966,
      "velocity": 99,
      "chip": "ym2612"
    },
    {
      "channel": 5,
      "note": 55,
      "start": 74.4694,
      "duration": 0.1188,
      "velocity": 127,
      "chip": "ym2612"
    },
    {
      "channel": 2,
      "note": 86,
      "start": 74.588,
      "duration": 0.1961,
      "velocity": 99,
      "chip": "ym2612"
    },
    {
      "channel": 3,
      "note": 74,
      "start": 74.5881,
      "duration": 0.1961,
      "velocity": 89,
      "chip": "ym2612"
    },
    {
      "channel": 5,
      "note": 57,
      "start": 74.5882,
      "duration": 0.1155,
      "velocity": 127,
      "chip": "ym2612"
    },
    {
      "channel": 5,
      "note": 57,
      "start": 74.7038,
      "duration": 0.1196,
      "velocity": 127,
      "chip": "ym2612"
    },
    {
      "channel": 0,
      "note": 62,
      "start": 74.8232,
      "duration": 0.1983,
      "velocity": 85,
      "chip": "ym2612"
    },
    {
      "channel": 2,
      "note": 81,
      "start": 74.8232,
      "duration": 0.1284,
      "velocity": 99,
      "chip": "ym2612"
    },
    {
      "channel": 3,
      "note": 78,
      "start": 74.8233,
      "duration": 0.1983,
      "velocity": 89,
      "chip": "ym2612"
    },
    {
      "channel": 5,
      "note": 44,
      "start": 74.8234,
      "duration": 0.1148,
      "velocity": 127,
      "chip": "ym2612"
    },
    {
      "channel": 5,
      "note": 44,
      "start": 74.9382,
      "duration": 0.1229,
      "velocity": 125,
      "chip": "ym2612"
    },
    {
      "channel": 2,
      "note": 88,
      "start": 74.9867,
      "duration": 0.0492,
      "velocity": 99,
      "chip": "ym2612"
    },
    {
      "channel": 0,
      "note": 60,
      "start": 75.0609,
      "duration": 0.093,
      "velocity": 85,
      "chip": "ym2612"
    },
    {
      "channel": 2,
      "note": 86,
      "start": 75.061,
      "duration": 0.093,
      "velocity": 99,
      "chip": "ym2612"
    },
    {
      "channel": 3,
      "note": 74,
      "start": 75.061,
      "duration": 0.1946,
      "velocity": 89,
      "chip": "ym2612"
    },
    {
      "channel": 5,
      "note": 49,
      "start": 75.0611,
      "duration": 0.1172,
      "velocity": 125,
      "chip": "ym2612"
    },
    {
      "channel": 0,
      "note": 62,
      "start": 75.1781,
      "duration": 0.2958,
      "velocity": 85,
      "chip": "ym2612"
    },
    {
      "channel": 2,
      "note": 83,
      "start": 75.1782,
      "duration": 0.0938,
      "velocity": 99,
      "chip": "ym2612"
    },
    {
      "channel": 5,
      "note": 49,
      "start": 75.1784,
      "duration": 0.118,
      "velocity": 125,
      "chip": "ym2612"
    },
    {
      "channel": 2,
      "note": 81,
      "start": 75.2963,
      "duration": 0.1952,
      "velocity": 99,
      "chip": "ym2612"
    },
    {
      "channel": 3,
      "note": 78,
      "start": 75.2964,
      "duration": 0.1952,
      "velocity": 89,
      "chip": "ym2612"
    },
    {
      "channel": 5,
      "note": 38,
      "start": 75.2965,
      "duration": 0.1157,
      "velocity": 125,
      "chip": "ym2612"
    },
    {
      "channel": 5,
      "note": 38,
      "start": 75.4123,
      "duration": 0.0918,
      "velocity": 125,
      "chip": "ym2612"
    }
  ]
}