{
  "track_name": "04 - Spring Yard Zone",
  "duration_sec": 40.699,
  "sample_rate": 44100,
  "note_count": 440,
  "unique_pitches": 30,
  "pitch_range": 48,
  "avg_note_duration": 0.199,
  "reconstruction_stats": {
    "notes_reconstructed": 440,
    "keyon_events": 440,
    "keyoff_events": 422,
    "orphan_keyons": 2,
    "unique_pitches": 30,
    "pitch_range": 48,
    "avg_duration_sec": 0.199
  },
  "metadata": {
    "source": "S\\Sonic the Hedgehog\\04 - Spring Yard Zone.vgm"
  },
  "notes": [
    {
      "channel": 1,
      "note": 54,
      "start": 0.0,
      "duration": 0.0117,
      "velocity": 77,
      "chip": "ym2612"
    },
    {
      "channel": 2,
      "note": 69,
      "start": 0.0,
      "duration": 0.0,
      "velocity": 92,
      "chip": "ym2612"
    },
    {
      "channel": 3,
      "note": 66,
      "start": 0.0,
      "duration": 0.0,
      "velocity": 92,
      "chip": "ym2612"
    },
    {
      "channel": 3,
      "note": 55,
      "start": 0.0014,
      "duration": 0.0025,
      "velocity": 105,
      "chip": "ym2612"
    },
    {
      "channel": 4,
      "note": 55,
      "start": 0.0026,
      "duration": 0.0014,
      "velocity": 105,
      "chip": "ym2612"
    },
    {
      "channel": 3,
      "note": 54,
      "start": 0.0039,
      "duration": 0.0058,
      "velocity": 105,
      "chip": "ym2612"
    },
    {
      "channel": 4,
      "note": 54,
      "start": 0.004,
      "duration": 0.0057,
      "velocity": 105,
      "chip": "ym2612"
    },
    {
      "channel": 1,
      "note": 54,
      "start": 0.1431,
      "duration": 0.0094,
      "velocity": 77,
      "chip": "ym2612"
    },
    {
      "channel": 3,
      "note": 55,
      "start": 0.1434,
      "duration": 0.0013,
      "velocity": 105,
      "chip": "ym2612"
    },
    {
      "channel": 4,
      "note": 55,
      "start": 0.1436,
      "duration": 0.0013,
      "velocity": 105,
      "chip": "ym2612"
    },
    {
      "channel": 3,
      "note": 54,
      "start": 0.1446,
      "duration": 0.0058,
      "velocity": 105,
      "chip": "ym2612"
    },
    {
      "channel": 4,
      "note": 54,
      "start": 0.1448,
      "duration": 0.0058,
      "velocity": 105,
      "chip": "ym2612"
    },
    {
      "channel": 1,
      "note": 52,
      "start": 0.2874,
      "duration": 0.0094,
      "velocity": 77,
      "chip": "ym2612"
    },
    {
      "channel": 3,
      "note": 57,
      "start": 0.2876,
      "duration": 0.0013,
      "velocity": 105,
      "chip": "ym2612"
    },
    {
      "channel": 4,
      "note": 57,
      "start": 0.2878,
      "duration": 0.0013,
      "velocity": 105,
      "chip": "ym2612"
    },
    {
      "channel": 3,
      "note": 56,
      "start": 0.2889,
      "duration": 0.0058,
      "velocity": 105,
      "chip": "ym2612"
    },
    {
      "channel": 4,
      "note": 56,
      "start": 0.2891,
      "duration": 0.0058,
      "velocity": 105,
      "chip": "ym2612"
    },
    {
      "channel": 1,
      "note": 52,
      "start": 0.4317,
      "duration": 0.0094,
      "velocity": 77,
      "chip": "ym2612"
    },
    {
      "channel": 3,
      "note": 57,
      "start": 0.4319,
      "duration": 0.0013,
      "velocity": 105,
      "chip": "ym2612"
    },
    {
      "channel": 4,
      "note": 57,
      "start": 0.4321,
      "duration": 0.0013,
      "velocity": 105,
      "chip": "ym2612"
    },
    {
      "channel": 3,
      "note": 56,
      "start": 0.4332,
      "duration": 0.0058,
      "velocity": 105,
      "chip": "ym2612"
    },
    {
      "channel": 4,
      "note": 56,
      "start": 0.4334,
      "duration": 0.0058,
      "velocity": 105,
      "chip": "ym2612"
    },
    {
      "channel": 1,
      "note": 50,
      "start": 0.5759,
      "duration": 0.0094,
      "velocity": 77,
      "chip": "ym2612"
    },
    {
      "channel": 3,
      "note": 58,
      "start": 0.5762,
      "duration": 0.0013,
      "velocity": 105,
      "chip": "ym2612"
    },
    {
      "channel": 4,
      "note": 58,
      "start": 0.5763,
      "duration": 0.0013,
      "velocity": 105,
      "chip": "ym2612"
    },
    {
      "channel": 3,
      "note": 57,
      "start": 0.5774,
      "duration": 0.0058,
      "velocity": 105,
      "chip": "ym2612"
    },
    {
      "channel": 4,
      "note": 57,
      "start": 0.5776,
      "duration": 0.0058,
      "velocity": 105,
      "chip": "ym2612"
    },
    {
      "channel": 1,
      "note": 50,
      "start": 0.7202,
      "duration": 0.0094,
      "velocity": 77,
      "chip": "ym2612"
    },
    {
      "channel": 3,
      "note": 58,
      "start": 0.7204,
      "duration": 0.0013,
      "velocity": 105,
      "chip": "ym2612"
    },
    {
      "channel": 4,
      "note": 58,
      "start": 0.7206,
      "duration": 0.0013,
      "velocity": 105,
      "chip": "ym2612"
    },
    {
      "channel": 3,
      "note": 57,
      "start": 0.7217,
      "duration": 0.0058,
      "velocity": 105,
      "chip": "ym2612"
    },
    {
      "channel": 4,
      "note": 57,
      "start": 0.7219,
      "duration": 0.0058,
      "velocity": 105,
      "chip": "ym2612"
    },
    {
      "channel": 1,
      "note": 49,
      "start": 0.8644,
      "duration": 0.0094,
      "velocity": 77,
      "chip": "ym2612"
    },
    {
      "channel": 3,
      "note": 59,
      "start": 0.8647,
      "duration": 0.0013,
      "velocity": 105,
      "chip": "ym2612"
    },
    {
      "channel": 4,
      "note": 59,
      "start": 0.8649,
      "duration": 0.0013,
      "velocity": 105,
      "chip": "ym2612"
    },
    {
      "channel": 3,
      "note": 58,
      "start": 0.866,
      "duration": 0.0058,
      "velocity": 105,
      "chip": "ym2612"
    },
    {
      "channel": 4,
      "note": 58,
      "start": 0.8661,
      "duration": 0.0058,
      "velocity": 105,
      "chip": "ym2612"
    },
    {
      "channel": 1,
      "note": 49,
      "start": 0.9152,
      "duration": 0.0063,
      "velocity": 77,
      "chip": "ym2612"
    },
    {
      "channel": 3,
      "note": 59,
      "start": 0.9155,
      "duration": 0.0013,
      "velocity": 105,
      "chip": "ym2612"
    },
    {
      "channel": 4,
      "note": 59,
      "start": 0.9156,
      "duration": 0.0013,
      "velocity": 105,
      "chip": "ym2612"
    },
    {
      "channel": 3,
      "note": 58,
      "start": 0.9167,
      "duration": 0.0056,
      "velocity": 105,
      "chip": "ym2612"
    },
    {
      "channel": 4,
      "note": 58,
      "start": 0.9169,
      "duration": 0.0056,
      "velocity": 105,
      "chip": "ym2612"
    },
    {
      "channel": 0,
      "note": 85,
      "start": 0.9581,
      "duration": 0.0066,
      "velocity": 101,
      "chip": "ym2612"
    },
    {
      "channel": 1,
      "note": 47,
      "start": 0.9583,
      "duration": 0.0066,
      "velocity": 77,
      "chip": "ym2612"
    },
    {
      "channel": 3,
      "note": 85,
      "start": 0.9673,
      "duration": 0.9274,
      "velocity": 104,
      "chip": "ym2612"
    },
    {
      "channel": 4,
      "note": 85,
      "start": 0.9687,
      "duration": 0.9262,
      "velocity": 104,
      "chip": "ym2612"
    },
    {
      "channel": 0,
      "note": 85,
      "start": 1.0566,
      "duration": 0.198,
      "velocity": 101,
      "chip": "ym2612"
    },
    {
      "channel": 1,
      "note": 47,
      "start": 1.0567,
      "duration": 0.198,
      "velocity": 77,
      "chip": "ym2612"
    },
    {
      "channel": 0,
      "note": 81,
      "start": 1.2547,
      "duration": 0.006,
      "velocity": 101,
      "chip": "ym2612"
    },
    {
      "channel": 1,
      "note": 49,
      "start": 1.2549,
      "duration": 0.009,
      "velocity": 77,
      "chip": "ym2612"
    },
    {
      "channel": 0,
      "note": 78,
      "start": 1.3981,
      "duration": 0.0071,
      "velocity": 101,
      "chip": "ym2612"
    },
    {
      "channel": 1,
      "note": 47,
      "start": 1.3983,
      "duration": 0.0103,
      "velocity": 77,
      "chip": "ym2612"
    },
    {
      "channel": 0,
      "note": 85,
      "start": 1.4962,
      "duration": 0.298,
      "velocity": 101,
      "chip": "ym2612"
    },
    {
      "channel": 1,
      "note": 49,
      "start": 1.4964,
      "duration": 0.0104,
      "velocity": 77,
      "chip": "ym2612"
    },
    {
      "channel": 1,
      "note": 47,
      "start": 1.5945,
      "duration": 0.1499,
      "velocity": 77,
      "chip": "ym2612"
    },
    {
      "channel": 0,
      "note": 81,
      "start": 1.7944,
      "duration": 0.0999,
      "velocity": 101,
      "chip": "ym2612"
    },
    {
      "channel": 1,
      "note": 50,
      "start": 1.8946,
      "duration": 0.0428,
      "velocity": 77,
      "chip": "ym2612"
    },
    {
      "channel": 3,
      "note": 86,
      "start": 1.8948,
      "duration": 0.1426,
      "velocity": 104,
      "chip": "ym2612"
    },
    {
      "channel": 4,
      "note": 86,
      "start": 1.8951,
      "duration": 0.1425,
      "velocity": 104,
      "chip": "ym2612"
    },
    {
      "channel": 1,
      "note": 54,
      "start": 1.9375,
      "duration": 0.1999,
      "velocity": 77,
      "chip": "ym2612"
    },
    {
      "channel": 3,
      "note": 88,
      "start": 2.0375,
      "duration": 0.2079,
      "velocity": 104,
      "chip": "ym2612"
    },
    {
      "channel": 4,
      "note": 88,
      "start": 2.0377,
      "duration": 0.2079,
      "velocity": 104,
      "chip": "ym2612"
    },
    {
      "channel": 1,
      "note": 54,
      "start": 2.2375,
      "duration": 0.0077,
      "velocity": 77,
      "chip": "ym2612"
    },
    {
      "channel": 3,
      "note": 85,
      "start": 2.2456,
      "duration": 0.9297,
      "velocity": 104,
      "chip": "ym2612"
    },
    {
      "channel": 4,
      "note": 85,
      "start": 2.2458,
      "duration": 0.9297,
      "velocity": 104,
      "chip": "ym2612"
    },
    {
      "channel": 1,
      "note": 61,
      "start": 2.3358,
      "duration": 0.1983,
      "velocity": 77,
      "chip": "ym2612"
    },
    {
      "channel": 2,
      "note": 78,
      "start": 2.3435,
      "duration": 0.0907,
      "velocity": 103,
      "chip": "ym2612"
    },
    {
      "channel": 2,
      "note": 81,
      "start": 2.4344,
      "duration": 0.1,
      "velocity": 103,
      "chip": "ym2612"
    },
    {
      "channel": 1,
      "note": 57,
      "start": 2.5343,
      "duration": 0.0098,
      "velocity": 77,
      "chip": "ym2612"
    },
    {
      "channel": 2,
      "note": 83,
      "start": 2.5345,
      "duration": 0.0431,
      "velocity": 103,
      "chip": "ym2612"
    },
    {
      "channel": 2,
      "note": 86,
      "start": 2.5778,
      "duration": 0.1,
      "velocity": 103,
      "chip": "ym2612"
    },
    {
      "channel": 1,
      "note": 57,
      "start": 2.6777,
      "duration": 0.0112,
      "velocity": 77,
      "chip": "ym2612"
    },
    {
      "channel": 1,
      "note": 54,
      "start": 2.7766,
      "duration": 0.0112,
      "velocity": 77,
      "chip": "ym2612"
    },
    {
      "channel": 2,
      "note": 78,
      "start": 2.7768,
      "duration": 0.0149,
      "velocity": 103,
      "chip": "ym2612"
    },
    {
      "channel": 2,
      "note": 81,
      "start": 2.7918,
      "duration": 0.0832,
      "velocity": 103,
      "chip": "ym2612"
    },
    {
      "channel": 1,
      "note": 54,
      "start": 2.875,
      "duration": 0.1499,
      "velocity": 77,
      "chip": "ym2612"
    },
    {
      "channel": 2,
      "note": 83,
      "start": 2.8752,
      "duration": 0.1997,
      "velocity": 103,
      "chip": "ym2612"
    },
    {
      "channel": 2,
      "note": 86,
      "start": 3.0751,
      "duration": 0.1001,
      "velocity": 103,
      "chip": "ym2612"
    },
    {
      "channel": 1,
      "note": 50,
      "start": 3.1751,
      "duration": 0.3433,
      "velocity": 77,
      "chip": "ym2612"
    },
    {
      "channel": 3,
      "note": 81,
      "start": 3.1754,
      "duration": 0.1429,
      "velocity": 104,
      "chip": "ym2612"
    },
    {
      "channel": 4,
      "note": 81,
      "start": 3.1757,
      "duration": 0.1428,
      "velocity": 104,
      "chip": "ym2612"
    },
    {
      "channel": 3,
      "note": 83,
      "start": 3.3184,
      "duration": 0.2073,
      "velocity": 104,
      "chip": "ym2612"
    },
    {
      "channel": 4,
      "note": 83,
      "start": 3.3186,
      "duration": 0.2073,
      "velocity": 104,
      "chip": "ym2612"
    },
    {
      "channel": 0,
      "note": 87,
      "start": 3.5183,
      "duration": 0.0071,
      "velocity": 101,
      "chip": "ym2612"
    },
    {
      "channel": 1,
      "note": 49,
      "start": 3.5185,
      "duration": 0.0071,
      "velocity": 77,
      "chip": "ym2612"
    },
    {
      "channel": 3,
      "note": 85,
      "start": 3.5259,
      "duration": 0.9288,
      "velocity": 104,
      "chip": "ym2612"
    },
    {
      "channel": 4,
      "note": 85,
      "start": 3.5261,
      "duration": 0.9288,
      "velocity": 104,
      "chip": "ym2612"
    },
    {
      "channel": 0,
      "note": 87,
      "start": 3.6165,
      "duration": 0.198,
      "velocity": 101,
      "chip": "ym2612"
    },
    {
      "channel": 1,
      "note": 49,
      "start": 3.6167,
      "duration": 0.198,
      "velocity": 77,
      "chip": "ym2612"
    },
    {
      "channel": 0,
      "note": 83,
      "start": 3.8147,
      "duration": 0.006,
      "velocity": 101,
      "chip": "ym2612"
    },
    {
      "channel": 1,
      "note": 51,
      "start": 3.8149,
      "duration": 0.009,
      "velocity": 77,
      "chip": "ym2612"
    },
    {
      "channel": 0,
      "note": 80,
      "start": 3.9581,
      "duration": 0.0071,
      "velocity": 101,
      "chip": "ym2612"
    },
    {
      "channel": 1,
      "note": 49,
      "start": 3.9583,
      "duration": 0.0103,
      "velocity": 77,
      "chip": "ym2612"
    },
    {
      "channel": 0,
      "note": 87,
      "start": 4.0562,
      "duration": 0.3981,
      "velocity": 101,
      "chip": "ym2612"
    },
    {
      "channel": 1,
      "note": 51,
      "start": 4.0564,
      "duration": 0.0104,
      "velocity": 77,
      "chip": "ym2612"
    },
    {
      "channel": 1,
      "note": 49,
      "start": 4.1545,
      "duration": 0.1499,
      "velocity": 77,
      "chip": "ym2612"
    },
    {
      "channel": 0,
      "note": 83,
      "start": 4.4545,
      "duration": 0.3428,
      "velocity": 101,
      "chip": "ym2612"
    },
    {
      "channel": 1,
      "note": 52,
      "start": 4.4547,
      "duration": 0.0427,
      "velocity": 77,
      "chip": "ym2612"
    },
    {
      "channel": 3,
      "note": 86,
      "start": 4.4549,
      "duration": 0.1425,
      "velocity": 104,
      "chip": "ym2612"
    },
    {
      "channel": 4,
      "note": 86,
      "start": 4.4551,
      "duration": 0.1425,
      "velocity": 104,
      "chip": "ym2612"
    },
    {
      "channel": 1,
      "note": 55,
      "start": 4.4975,
      "duration": 0.1999,
      "velocity": 77,
      "chip": "ym2612"
    },
    {
      "channel": 3,
      "note": 88,
      "start": 4.5975,
      "duration": 0.2072,
      "velocity": 104,
      "chip": "ym2612"
    },
    {
      "channel": 4,
      "note": 88,
      "start": 4.5977,
      "duration": 0.2072,
      "velocity": 104,
      "chip": "ym2612"
    },
    {
      "channel": 0,
      "note": 86,
      "start": 4.7974,
      "duration": 0.9236,
      "velocity": 101,
      "chip": "ym2612"
    },
    {
      "channel": 1,
      "note": 54,
      "start": 4.7976,
      "duration": 0.0068,
      "velocity": 77,
      "chip": "ym2612"
    },
    {
      "channel": 3,
      "note": 90,
      "start": 4.8048,
      "duration": 0.9672,
      "velocity": 104,
      "chip": "ym2612"
    },
    {
      "channel": 4,
      "note": 90,
      "start": 4.8051,
      "duration": 0.9672,
      "velocity": 104,
      "chip": "ym2612"
    },
    {
      "channel": 1,
      "note": 54,
      "start": 4.8956,
      "duration": 0.1982,
      "velocity": 77,
      "chip": "ym2612"
    },
    {
      "channel": 2,
      "note": 90,
      "start": 4.9032,
      "duration": 0.0073,
      "velocity": 103,
      "chip": "ym2612"
    },
    {
      "channel": 1,
      "note": 52,
      "start": 5.0939,
      "duration": 0.0095,
      "velocity": 77,
      "chip": "ym2612"
    },
    {
      "channel": 1,
      "note": 52,
      "start": 5.2374,
      "duration": 0.0115,
      "velocity": 77,
      "chip": "ym2612"
    },
    {
      "channel": 2,
      "note": 88,
      "start": 5.2376,
      "duration": 0.0073,
      "velocity": 103,
      "chip": "ym2612"
    },
    {
      "channel": 1,
      "note": 50,
      "start": 5.3361,
      "duration": 0.011,
      "velocity": 77,
      "chip": "ym2612"
    },
    {
      "channel": 1,
      "note": 50,
      "start": 5.4344,
      "duration": 0.0098,
      "velocity": 77,
      "chip": "ym2612"
    },
    {
      "channel": 2,
      "note": 86,
      "start": 5.4346,
      "duration": 0.0063,
      "velocity": 103,
      "chip": "ym2612"
    },
    {
      "channel": 1,
      "note": 49,
      "start": 5.5778,
      "duration": 0.1868,
      "velocity": 77,
      "chip": "ym2612"
    },
    {
      "channel": 2,
      "note": 85,
      "start": 5.578,
      "duration": 0.0064,
      "velocity": 103,
      "chip": "ym2612"
    },
    {
      "channel": 2,
      "note": 86,
      "start": 5.6211,
      "duration": 0.1001,
      "velocity": 103,
      "chip": "ym2612"
    },
    {
      "channel": 2,
      "note": 85,
      "start": 5.7213,
      "duration": 0.0059,
      "velocity": 103,
      "chip": "ym2612"
    },
    {
      "channel": 0,
      "note": 85,
      "start": 5.7645,
      "duration": 0.007,
      "velocity": 101,
      "chip": "ym2612"
    },
    {
      "channel": 1,
      "note": 47,
      "start": 5.7647,
      "duration": 0.007,
      "velocity": 77,
      "chip": "ym2612"
    },
    {
      "channel": 3,
      "note": 85,
      "start": 5.7722,
      "duration": 0.9284,
      "velocity": 104,
      "chip": "ym2612"
    },
    {
      "channel": 4,
      "note": 85,
      "start": 5.7724,
      "duration": 0.9284,
      "velocity": 104,
      "chip": "ym2612"
    },
    {
      "channel": 0,
      "note": 85,
      "start": 5.8624,
      "duration": 0.198,
      "velocity": 101,
      "chip": "ym2612"
    },
    {
      "channel": 1,
      "note": 47,
      "start": 5.8626,
      "duration": 0.198,
      "velocity": 77,
      "chip": "ym2612"
    },
    {
      "channel": 0,
      "note": 81,
      "start": 6.0606,
      "duration": 0.006,
      "velocity": 101,
      "chip": "ym2612"
    },
    {
      "channel": 1,
      "note": 49,
      "start": 6.0608,
      "duration": 0.009,
      "velocity": 77,
      "chip": "ym2612"
    },
    {
      "channel": 0,
      "note": 78,
      "start": 6.204,
      "duration": 0.0071,
      "velocity": 101,
      "chip": "ym2612"
    },
    {
      "channel": 1,
      "note": 47,
      "start": 6.2042,
      "duration": 0.0103,
      "velocity": 77,
      "chip": "ym2612"
    },
    {
      "channel": 0,
      "note": 85,
      "start": 6.3021,
      "duration": 0.298,
      "velocity": 101,
      "chip": "ym2612"
    },
    {
      "channel": 1,
      "note": 49,
      "start": 6.3023,
      "duration": 0.0104,
      "velocity": 77,
      "chip": "ym2612"
    },
    {
      "channel": 1,
      "note": 47,
      "start": 6.4004,
      "duration": 0.1499,
      "velocity": 77,
      "chip": "ym2612"
    },
    {
      "channel": 0,
      "note": 81,
      "start": 6.6003,
      "duration": 0.0999,
      "velocity": 101,
      "chip": "ym2612"
    },
    {
      "channel": 1,
      "note": 50,
      "start": 6.7004,
      "duration": 0.0428,
      "velocity": 77,
      "chip": "ym2612"
    },
    {
      "channel": 3,
      "note": 86,
      "start": 6.7007,
      "duration": 0.1426,
      "velocity": 104,
      "chip": "ym2612"
    },
    {
      "channel": 4,
      "note": 86,
      "start": 6.701,
      "duration": 0.1425,
      "velocity": 104,
      "chip": "ym2612"
    },
    {
      "channel": 1,
      "note": 54,
      "start": 6.7433,
      "duration": 0.1999,
      "velocity": 77,
      "chip": "ym2612"
    },
    {
      "channel": 3,
      "note": 88,
      "start": 6.8434,
      "duration": 0.2079,
      "velocity": 104,
      "chip": "ym2612"
    },
    {
      "channel": 4,
      "note": 88,
      "start": 6.8436,
      "duration": 0.2079,
      "velocity": 104,
      "chip": "ym2612"
    },
    {
      "channel": 1,
      "note": 54,
      "start": 7.0434,
      "duration": 0.0077,
      "velocity": 77,
      "chip": "ym2612"
    },
    {
      "channel": 3,
      "note": 85,
      "start": 7.0515,
      "duration": 0.9297,
      "velocity": 104,
      "chip": "ym2612"
    },
    {
      "channel": 4,
      "note": 85,
      "start": 7.0517,
      "duration": 0.9297,
      "velocity": 104,
      "chip": "ym2612"
    },
    {
      "channel": 1,
      "note": 61,
      "start": 7.1417,
      "duration": 0.1983,
      "velocity": 77,
      "chip": "ym2612"
    },
    {
      "channel": 2,
      "note": 78,
      "start": 7.1494,
      "duration": 0.0907,
      "velocity": 103,
      "chip": "ym2612"
    },
    {
      "channel": 2,
      "note": 81,
      "start": 7.2402,
      "duration": 0.1,
      "velocity": 103,
      "chip": "ym2612"
    },
    {
      "channel": 1,
      "note": 57,
      "start": 7.3402,
      "duration": 0.0098,
      "velocity": 77,
      "chip": "ym2612"
    },
    {
      "channel": 2,
      "note": 83,
      "start": 7.3404,
      "duration": 0.0431,
      "velocity": 103,
      "chip": "ym2612"
    },
    {
      "channel": 2,
      "note": 86,
      "start": 7.3837,
      "duration": 0.1,
      "velocity": 103,
      "chip": "ym2612"
    },
    {
      "channel": 1,
      "note": 57,
      "start": 7.4836,
      "duration": 0.0112,
      "velocity": 77,
      "chip": "ym2612"
    },
    {
      "channel": 1,
      "note": 54,
      "start": 7.5824,
      "duration": 0.0112,
      "velocity": 77,
      "chip": "ym2612"
    },
    {
      "channel": 2,
      "note": 78,
      "start": 7.5826,
      "duration": 0.0149,
      "velocity": 103,
      "chip": "ym2612"
    },
    {
      "channel": 2,
      "note": 81,
      "start": 7.5977,
      "duration": 0.0832,
      "velocity": 103,
      "chip": "ym2612"
    },
    {
      "channel": 1,
      "note": 54,
      "start": 7.6809,
      "duration": 0.1499,
      "velocity": 77,
      "chip": "ym2612"
    },
    {
      "channel": 2,
      "note": 83,
      "start": 7.6811,
      "duration": 0.1997,
      "velocity": 103,
      "chip": "ym2612"
    },
    {
      "channel": 2,
      "note": 86,
      "start": 7.881,
      "duration": 0.1001,
      "velocity": 103,
      "chip": "ym2612"
    },
    {
      "channel": 1,
      "note": 50,
      "start": 7.981,
      "duration": 0.3433,
      "velocity": 77,
      "chip": "ym2612"
    },
    {
      "channel": 3,
      "note": 81,
      "start": 7.9813,
      "duration": 0.1429,
      "velocity": 104,
      "chip": "ym2612"
    },
    {
      "channel": 4,
      "note": 81,
      "start": 7.9815,
      "duration": 0.1428,
      "velocity": 104,
      "chip": "ym2612"
    },
    {
      "channel": 3,
      "note": 83,
      "start": 8.1243,
      "duration": 0.2073,
      "velocity": 104,
      "chip": "ym2612"
    },
    {
      "channel": 4,
      "note": 83,
      "start": 8.1245,
      "duration": 0.2074,
      "velocity": 104,
      "chip": "ym2612"
    },
    {
      "channel": 0,
      "note": 87,
      "start": 8.3242,
      "duration": 0.0071,
      "velocity": 101,
      "chip": "ym2612"
    },
    {
      "channel": 1,
      "note": 49,
      "start": 8.3244,
      "duration": 0.0071,
      "velocity": 77,
      "chip": "ym2612"
    },
    {
      "channel": 3,
      "note": 85,
      "start": 8.3318,
      "duration": 0.9286,
      "velocity": 104,
      "chip": "ym2612"
    },
    {
      "channel": 4,
      "note": 85,
      "start": 8.332,
      "duration": 0.9286,
      "velocity": 104,
      "chip": "ym2612"
    },
    {
      "channel": 0,
      "note": 87,
      "start": 8.4222,
      "duration": 0.198,
      "velocity": 101,
      "chip": "ym2612"
    },
    {
      "channel": 1,
      "note": 49,
      "start": 8.4224,
      "duration": 0.198,
      "velocity": 77,
      "chip": "ym2612"
    },
    {
      "channel": 0,
      "note": 83,
      "start": 8.6204,
      "duration": 0.006,
      "velocity": 101,
      "chip": "ym2612"
    },
    {
      "channel": 1,
      "note": 51,
      "start": 8.6206,
      "duration": 0.009,
      "velocity": 77,
      "chip": "ym2612"
    },
    {
      "channel": 0,
      "note": 80,
      "start": 8.7638,
      "duration": 0.0071,
      "velocity": 101,
      "chip": "ym2612"
    },
    {
      "channel": 1,
      "note": 49,
      "start": 8.764,
      "duration": 0.0103,
      "velocity": 77,
      "chip": "ym2612"
    },
    {
      "channel": 0,
      "note": 87,
      "start": 8.8619,
      "duration": 0.3981,
      "velocity": 101,
      "chip": "ym2612"
    },
    {
      "channel": 1,
      "note": 51,
      "start": 8.8621,
      "duration": 0.0104,
      "velocity": 77,
      "chip": "ym2612"
    },
    {
      "channel": 1,
      "note": 49,
      "start": 8.9602,
      "duration": 0.1499,
      "velocity": 77,
      "chip": "ym2612"
    },
    {
      "channel": 0,
      "note": 83,
      "start": 9.2601,
      "duration": 0.4427,
      "velocity": 101,
      "chip": "ym2612"
    },
    {
      "channel": 1,
      "note": 52,
      "start": 9.2603,
      "duration": 0.0426,
      "velocity": 77,
      "chip": "ym2612"
    },
    {
      "channel": 3,
      "note": 86,
      "start": 9.2606,
      "duration": 0.1424,
      "velocity": 104,
      "chip": "ym2612"
    },
    {
      "channel": 4,
      "note": 86,
      "start": 9.2608,
      "duration": 0.1423,
      "velocity": 104,
      "chip": "ym2612"
    },
    {
      "channel": 1,
      "note": 55,
      "start": 9.3031,
      "duration": 0.4,
      "velocity": 77,
      "chip": "ym2612"
    },
    {
      "channel": 3,
      "note": 88,
      "start": 9.4031,
      "duration": 0.3004,
      "velocity": 104,
      "chip": "ym2612"
    },
    {
      "channel": 4,
      "note": 88,
      "start": 9.4033,
      "duration": 0.3004,
      "velocity": 104,
      "chip": "ym2612"
    },
    {
      "channel": 0,
      "note": 86,
      "start": 9.7029,
      "duration": 0.0065,
      "velocity": 101,
      "chip": "ym2612"
    },
    {
      "channel": 1,
      "note": 54,
      "start": 9.7031,
      "duration": 0.0095,
      "velocity": 77,
      "chip": "ym2612"
    },
    {
      "channel": 2,
      "note": 78,
      "start": 9.7034,
      "duration": 0.0063,
      "velocity": 103,
      "chip": "ym2612"
    },
    {
      "channel": 3,
      "note": 94,
      "start": 9.7037,
      "duration": 0.0091,
      "velocity": 104,
      "chip": "ym2612"
    },
    {
      "channel": 4,
      "note": 94,
      "start": 9.7039,
      "duration": 0.009,
      "velocity": 104,
      "chip": "ym2612"
    },
    {
      "channel": 2,
      "note": 78,
      "start": 9.7462,
      "duration": 0.1002,
      "velocity": 103,
      "chip": "ym2612"
    },
    {
      "channel": 0,
      "note": 86,
      "start": 9.8462,
      "duration": 0.0062,
      "velocity": 101,
      "chip": "ym2612"
    },
    {
      "channel": 1,
      "note": 54,
      "start": 9.8464,
      "duration": 0.0091,
      "velocity": 77,
      "chip": "ym2612"
    },
    {
      "channel": 2,
      "note": 82,
      "start": 9.8466,
      "duration": 0.0061,
      "velocity": 103,
      "chip": "ym2612"
    },
    {
      "channel": 3,
      "note": 94,
      "start": 9.8468,
      "duration": 0.0089,
      "velocity": 104,
      "chip": "ym2612"
    },
    {
      "channel": 4,
      "note": 94,
      "start": 9.847,
      "duration": 0.0088,
      "velocity": 104,
      "chip": "ym2612"
    },
    {
      "channel": 2,
      "note": 82,
      "start": 9.8894,
      "duration": 0.1002,
      "velocity": 103,
      "chip": "ym2612"
    },
    {
      "channel": 0,
      "note": 88,
      "start": 9.9894,
      "duration": 0.0429,
      "velocity": 101,
      "chip": "ym2612"
    },
    {
      "channel": 1,
      "note": 54,
      "start": 9.9896,
      "duration": 0.0092,
      "velocity": 77,
      "chip": "ym2612"
    },
    {
      "channel": 2,
      "note": 85,
      "start": 9.9898,
      "duration": 0.0059,
      "velocity": 103,
      "chip": "ym2612"
    },
    {
      "channel": 3,
      "note": 94,
      "start": 9.99,
      "duration": 0.0089,
      "velocity": 104,
      "chip": "ym2612"
    },
    {
      "channel": 4,
      "note": 94,
      "start": 9.9901,
      "duration": 0.0089,
      "velocity": 104,
      "chip": "ym2612"
    },
    {
      "channel": 0,
      "note": 86,
      "start": 10.0324,
      "duration": 0.0999,
      "velocity": 101,
      "chip": "ym2612"
    },
    {
      "channel": 2,
      "note": 85,
      "start": 10.0326,
      "duration": 0.1001,
      "velocity": 103,
      "chip": "ym2612"
    },
    {
      "channel": 0,
      "note": 88,
      "start": 10.1324,
      "duration": 0.0429,
      "velocity": 101,
      "chip": "ym2612"
    },
    {
      "channel": 1,
      "note": 54,
      "start": 10.1326,
      "duration": 0.0092,
      "velocity": 77,
      "chip": "ym2612"
    },
    {
      "channel": 2,
      "note": 88,
      "start": 10.1328,
      "duration": 0.0059,
      "velocity": 103,
      "chip": "ym2612"
    },
    {
      "channel": 3,
      "note": 94,
      "start": 10.133,
      "duration": 0.0089,
      "velocity": 104,
      "chip": "ym2612"
    },
    {
      "channel": 4,
      "note": 94,
      "start": 10.1332,
      "duration": 0.0089,
      "velocity": 104,
      "chip": "ym2612"
    },
    {
      "channel": 2,
      "note": 88,
      "start": 10.1756,
      "duration": 0.1001,
      "velocity": 103,
      "chip": "ym2612"
    },
    {
      "channel": 0,
      "note": 90,
      "start": 10.2755,
      "duration": 0.1426,
      "velocity": 101,
      "chip": "ym2612"
    },
    {
      "channel": 1,
      "note": 54,
      "start": 10.2757,
      "duration": 0.009,
      "velocity": 77,
      "chip": "ym2612"
    },
    {
      "channel": 2,
      "note": 90,
      "start": 10.2759,
      "duration": 0.0057,
      "velocity": 103,
      "chip": "ym2612"
    },
    {
      "channel": 3,
      "note": 94,
      "start": 10.2761,
      "duration": 0.0087,
      "velocity": 104,
      "chip": "ym2612"
    },
    {
      "channel": 4,
      "note": 94,
      "start": 10.2763,
      "duration": 0.0086,
      "velocity": 104,
      "chip": "ym2612"
    },
    {
      "channel": 1,
      "note": 55,
      "start": 10.9678,
      "duration": 0.0092,
      "velocity": 77,
      "chip": "ym2612"
    },
    {
      "channel": 2,
      "note": 74,
      "start": 10.968,
      "duration": 0.0091,
      "velocity": 103,
      "chip": "ym2612"
    },
    {
      "channel": 3,
      "note": 83,
      "start": 10.9684,
      "duration": 0.0089,
      "velocity": 104,
      "chip": "ym2612"
    },
    {
      "channel": 4,
      "note": 83,
      "start": 10.9687,
      "duration": 0.0088,
      "velocity": 104,
      "chip": "ym2612"
    },
    {
      "channel": 0,
      "note": 86,
      "start": 11.0661,
      "duration": 0.1983,
      "velocity": 92,
      "chip": "ym2612"
    },
    {
      "channel": 1,
      "note": 55,
      "start": 11.0662,
      "duration": 0.1983,
      "velocity": 77,
      "chip": "ym2612"
    },
    {
      "channel": 2,
      "note": 74,
      "start": 11.0664,
      "duration": 0.1983,
      "velocity": 103,
      "chip": "ym2612"
    },
    {
      "channel": 3,
      "note": 83,
      "start": 11.0667,
      "duration": 0.1983,
      "velocity": 104,
      "chip": "ym2612"
    },
    {
      "channel": 4,
      "note": 83,
      "start": 11.0669,
      "duration": 0.1983,
      "velocity": 104,
      "chip": "ym2612"
    },
    {
      "channel": 0,
      "note": 85,
      "start": 11.2645,
      "duration": 0.009,
      "velocity": 92,
      "chip": "ym2612"
    },
    {
      "channel": 1,
      "note": 57,
      "start": 11.2647,
      "duration": 0.009,
      "velocity": 77,
      "chip": "ym2612"
    },
    {
      "channel": 2,
      "note": 74,
      "start": 11.2649,
      "duration": 0.0089,
      "velocity": 103,
      "chip": "ym2612"
    },
    {
      "channel": 3,
      "note": 83,
      "start": 11.2651,
      "duration": 0.0087,
      "velocity": 104,
      "chip": "ym2612"
    },
    {
      "channel": 4,
      "note": 83,
      "start": 11.2653,
      "duration": 0.0087,
      "velocity": 104,
      "chip": "ym2612"
    },
    {
      "channel": 0,
      "note": 83,
      "start": 11.4076,
      "duration": 0.0108,
      "velocity": 92,
      "chip": "ym2612"
    },
    {
      "channel": 1,
      "note": 55,
      "start": 11.4078,
      "duration": 0.0108,
      "velocity": 77,
      "chip": "ym2612"
    },
    {
      "channel": 2,
      "note": 74,
      "start": 11.4079,
      "duration": 0.0108,
      "velocity": 103,
      "chip": "ym2612"
    },
    {
      "channel": 3,
      "note": 83,
      "start": 11.4082,
      "duration": 0.0106,
      "velocity": 104,
      "chip": "ym2612"
    },
    {
      "channel": 4,
      "note": 83,
      "start": 11.4083,
      "duration": 0.0106,
      "velocity": 104,
      "chip": "ym2612"
    },
    {
      "channel": 0,
      "note": 81,
      "start": 11.5059,
      "duration": 0.0108,
      "velocity": 92,
      "chip": "ym2612"
    },
    {
      "channel": 1,
      "note": 54,
      "start": 11.5061,
      "duration": 0.098,
      "velocity": 77,
      "chip": "ym2612"
    },
    {
      "channel": 2,
      "note": 73,
      "start": 11.5063,
      "duration": 0.0106,
      "velocity": 103,
      "chip": "ym2612"
    },
    {
      "channel": 3,
      "note": 81,
      "start": 11.5065,
      "duration": 0.0105,
      "velocity": 104,
      "chip": "ym2612"
    },
    {
      "channel": 4,
      "note": 81,
      "start": 11.5066,
      "duration": 0.0105,
      "velocity": 104,
      "chip": "ym2612"
    },
    {
      "channel": 0,
      "note": 83,
      "start": 11.604,
      "duration": 0.1499,
      "velocity": 92,
      "chip": "ym2612"
    },
    {
      "channel": 3,
      "note": 90,
      "start": 11.6044,
      "duration": 0.1497,
      "velocity": 104,
      "chip": "ym2612"
    },
    {
      "channel": 4,
      "note": 90,
      "start": 11.6046,
      "duration": 0.1496,
      "velocity": 104,
      "chip": "ym2612"
    },
    {
      "channel": 0,
      "note": 81,
      "start": 11.9041,
      "duration": 0.0429,
      "velocity": 92,
      "chip": "ym2612"
    },
    {
      "channel": 1,
      "note": 55,
      "start": 11.9043,
      "duration": 0.0429,
      "velocity": 77,
      "chip": "ym2612"
    },
    {
      "channel": 3,
      "note": 86,
      "start": 11.9045,
      "duration": 0.0085,
      "velocity": 104,
      "chip": "ym2612"
    },
    {
      "channel": 4,
      "note": 86,
      "start": 11.9047,
      "duration": 0.0085,
      "velocity": 104,
      "chip": "ym2612"
    },
    {
      "channel": 0,
      "note": 78,
      "start": 11.9472,
      "duration": 0.1998,
      "velocity": 92,
      "chip": "ym2612"
    },
    {
      "channel": 1,
      "note": 54,
      "start": 11.9473,
      "duration": 0.1998,
      "velocity": 77,
      "chip": "ym2612"
    },
    {
      "channel": 0,
      "note": 79,
      "start": 12.2472,
      "duration": 0.0073,
      "velocity": 92,
      "chip": "ym2612"
    },
    {
      "channel": 1,
      "note": 52,
      "start": 12.2473,
      "duration": 0.0072,
      "velocity": 77,
      "chip": "ym2612"
    },
    {
      "channel": 2,
      "note": 71,
      "start": 12.2476,
      "duration": 0.0071,
      "velocity": 103,
      "chip": "ym2612"
    },
    {
      "channel": 3,
      "note": 79,
      "start": 12.2477,
      "duration": 0.0071,
      "velocity": 104,
      "chip": "ym2612"
    },
    {
      "channel": 4,
      "note": 79,
      "start": 12.248,
      "duration": 0.0069,
      "velocity": 104,
      "chip": "ym2612"
    },
    {
      "channel": 0,
      "note": 79,
      "start": 12.3452,
      "duration": 0.1983,
      "velocity": 92,
      "chip": "ym2612"
    },
    {
      "channel": 1,
      "note": 52,
      "start": 12.3454,
      "duration": 0.1983,
      "velocity": 77,
      "chip": "ym2612"
    },
    {
      "channel": 2,
      "note": 71,
      "start": 12.3456,
      "duration": 0.1983,
      "velocity": 103,
      "chip": "ym2612"
    },
    {
      "channel": 3,
      "note": 79,
      "start": 12.3459,
      "duration": 0.1983,
      "velocity": 104,
      "chip": "ym2612"
    },
    {
      "channel": 4,
      "note": 79,
      "start": 12.346,
      "duration": 0.1983,
      "velocity": 104,
      "chip": "ym2612"
    },
    {
      "channel": 0,
      "note": 81,
      "start": 12.5437,
      "duration": 0.009,
      "velocity": 92,
      "chip": "ym2612"
    },
    {
      "channel": 1,
      "note": 54,
      "start": 12.5439,
      "duration": 0.009,
      "velocity": 77,
      "chip": "ym2612"
    },
    {
      "channel": 2,
      "note": 71,
      "start": 12.5441,
      "duration": 0.0089,
      "velocity": 103,
      "chip": "ym2612"
    },
    {
      "channel": 3,
      "note": 79,
      "start": 12.5443,
      "duration": 0.0087,
      "velocity": 104,
      "chip": "ym2612"
    },
    {
      "channel": 4,
      "note": 79,
      "start": 12.5445,
      "duration": 0.0087,
      "velocity": 104,
      "chip": "ym2612"
    },
    {
      "channel": 0,
      "note": 79,
      "start": 12.6868,
      "duration": 0.0108,
      "velocity": 92,
      "chip": "ym2612"
    },
    {
      "channel": 1,
      "note": 52,
      "start": 12.6869,
      "duration": 0.0108,
      "velocity": 77,
      "chip": "ym2612"
    },
    {
      "channel": 2,
      "note": 71,
      "start": 12.6871,
      "duration": 0.0108,
      "velocity": 103,
      "chip": "ym2612"
    },
    {
      "channel": 3,
      "note": 79,
      "start": 12.6873,
      "duration": 0.0106,
      "velocity": 104,
      "chip": "ym2612"
    },
    {
      "channel": 4,
      "note": 79,
      "start": 12.6875,
      "duration": 0.0106,
      "velocity": 104,
      "chip": "ym2612"
    },
    {
      "channel": 0,
      "note": 78,
      "start": 12.7851,
      "duration": 0.0144,
      "velocity": 92,
      "chip": "ym2612"
    },
    {
      "channel": 1,
      "note": 50,
      "start": 12.7852,
      "duration": 0.0106,
      "velocity": 77,
      "chip": "ym2612"
    },
    {
      "channel": 2,
      "note": 69,
      "start": 12.7854,
      "duration": 0.0106,
      "velocity": 103,
      "chip": "ym2612"
    },
    {
      "channel": 3,
      "note": 78,
      "start": 12.7856,
      "duration": 0.0106,
      "velocity": 104,
      "chip": "ym2612"
    },
    {
      "channel": 4,
      "note": 78,
      "start": 12.7858,
      "duration": 0.0106,
      "velocity": 104,
      "chip": "ym2612"
    },
    {
      "channel": 0,
      "note": 79,
      "start": 12.7996,
      "duration": 0.1835,
      "velocity": 92,
      "chip": "ym2612"
    },
    {
      "channel": 1,
      "note": 50,
      "start": 12.8834,
      "duration": 0.1498,
      "velocity": 77,
      "chip": "ym2612"
    },
    {
      "channel": 0,
      "note": 81,
      "start": 13.0833,
      "duration": 0.4505,
      "velocity": 92,
      "chip": "ym2612"
    },
    {
      "channel": 1,
      "note": 52,
      "start": 13.1834,
      "duration": 0.0429,
      "velocity": 77,
      "chip": "ym2612"
    },
    {
      "channel": 1,
      "note": 54,
      "start": 13.2265,
      "duration": 0.1998,
      "velocity": 77,
      "chip": "ym2612"
    },
    {
      "channel": 1,
      "note": 55,
      "start": 13.5266,
      "duration": 0.0074,
      "velocity": 77,
      "chip": "ym2612"
    },
    {
      "channel": 2,
      "note": 74,
      "start": 13.5267,
      "duration": 0.0073,
      "velocity": 103,
      "chip": "ym2612"
    },
    {
      "channel": 3,
      "note": 83,
      "start": 13.5269,
      "duration": 0.0073,
      "velocity": 104,
      "chip": "ym2612"
    },
    {
      "channel": 4,
      "note": 83,
      "start": 13.5272,
      "duration": 0.0073,
      "velocity": 104,
      "chip": "ym2612"
    },
    {
      "channel": 0,
      "note": 86,
      "start": 13.6246,
      "duration": 0.1983,
      "velocity": 92,
      "chip": "ym2612"
    },
    {
      "channel": 1,
      "note": 55,
      "start": 13.6248,
      "duration": 0.1983,
      "velocity": 77,
      "chip": "ym2612"
    },
    {
      "channel": 2,
      "note": 74,
      "start": 13.625,
      "duration": 0.1983,
      "velocity": 103,
      "chip": "ym2612"
    },
    {
      "channel": 3,
      "note": 83,
      "start": 13.6252,
      "duration": 0.1983,
      "velocity": 104,
      "chip": "ym2612"
    },
    {
      "channel": 4,
      "note": 83,
      "start": 13.6254,
      "duration": 0.1983,
      "velocity": 104,
      "chip": "ym2612"
    },
    {
      "channel": 0,
      "note": 85,
      "start": 13.823,
      "duration": 0.009,
      "velocity": 92,
      "chip": "ym2612"
    },
    {
      "channel": 1,
      "note": 57,
      "start": 13.8232,
      "duration": 0.009,
      "velocity": 77,
      "chip": "ym2612"
    },
    {
      "channel": 2,
      "note": 74,
      "start": 13.8234,
      "duration": 0.0089,
      "velocity": 103,
      "chip": "ym2612"
    },
    {
      "channel": 3,
      "note": 83,
      "start": 13.8237,
      "duration": 0.0087,
      "velocity": 104,
      "chip": "ym2612"
    },
    {
      "channel": 4,
      "note": 83,
      "start": 13.8239,
      "duration": 0.0087,
      "velocity": 104,
      "chip": "ym2612"
    },
    {
      "channel": 0,
      "note": 83,
      "start": 13.9661,
      "duration": 0.0108,
      "velocity": 92,
      "chip": "ym2612"
    },
    {
      "channel": 1,
      "note": 55,
      "start": 13.9663,
      "duration": 0.0108,
      "velocity": 77,
      "chip": "ym2612"
    },
    {
      "channel": 2,
      "note": 74,
      "start": 13.9664,
      "duration": 0.0108,
      "velocity": 103,
      "chip": "ym2612"
    },
    {
      "channel": 3,
      "note": 83,
      "start": 13.9667,
      "duration": 0.0106,
      "velocity": 104,
      "chip": "ym2612"
    },
    {
      "channel": 4,
      "note": 83,
      "start": 13.9669,
      "duration": 0.0106,
      "velocity": 104,
      "chip": "ym2612"
    },
    {
      "channel": 0,
      "note": 81,
      "start": 14.0644,
      "duration": 0.0108,
      "velocity": 92,
      "chip": "ym2612"
    },
    {
      "channel": 1,
      "note": 54,
      "start": 14.0646,
      "duration": 0.098,
      "velocity": 77,
      "chip": "ym2612"
    },
    {
      "channel": 2,
      "note": 73,
      "start": 14.0648,
      "duration": 0.0106,
      "velocity": 103,
      "chip": "ym2612"
    },
    {
      "channel": 3,
      "note": 81,
      "start": 14.065,
      "duration": 0.0105,
      "velocity": 104,
      "chip": "ym2612"
    },
    {
      "channel": 4,
      "note": 81,
      "start": 14.0652,
      "duration": 0.0105,
      "velocity": 104,
      "chip": "ym2612"
    },
    {
      "channel": 0,
      "note": 83,
      "start": 14.1626,
      "duration": 0.1499,
      "velocity": 92,
      "chip": "ym2612"
    },
    {
      "channel": 3,
      "note": 90,
      "start": 14.1629,
      "duration": 0.1497,
      "velocity": 104,
      "chip": "ym2612"
    },
    {
      "channel": 4,
      "note": 90,
      "start": 14.1631,
      "duration": 0.1496,
      "velocity": 104,
      "chip": "ym2612"
    },
    {
      "channel": 0,
      "note": 81,
      "start": 14.4626,
      "duration": 0.0429,
      "velocity": 92,
      "chip": "ym2612"
    },
    {
      "channel": 1,
      "note": 55,
      "start": 14.4628,
      "duration": 0.0429,
      "velocity": 77,
      "chip": "ym2612"
    },
    {
      "channel": 3,
      "note": 86,
      "start": 14.4631,
      "duration": 0.0085,
      "velocity": 104,
      "chip": "ym2612"
    },
    {
      "channel": 4,
      "note": 86,
      "start": 14.4633,
      "duration": 0.0085,
      "velocity": 104,
      "chip": "ym2612"
    },
    {
      "channel": 0,
      "note": 78,
      "start": 14.5057,
      "duration": 0.3073,
      "velocity": 92,
      "chip": "ym2612"
    },
    {
      "channel": 1,
      "note": 54,
      "start": 14.5059,
      "duration": 0.1996,
      "velocity": 77,
      "chip": "ym2612"
    },
    {
      "channel": 1,
      "note": 52,
      "start": 14.8057,
      "duration": 0.0075,
      "velocity": 77,
      "chip": "ym2612"
    },
    {
      "channel": 2,
      "note": 71,
      "start": 14.8059,
      "duration": 0.0075,
      "velocity": 103,
      "chip": "ym2612"
    },
    {
      "channel": 3,
      "note": 79,
      "start": 14.8061,
      "duration": 0.0074,
      "velocity": 104,
      "chip": "ym2612"
    },
    {
      "channel": 4,
      "note": 79,
      "start": 14.8063,
      "duration": 0.0073,
      "velocity": 104,
      "chip": "ym2612"
    },
    {
      "channel": 0,
      "note": 81,
      "start": 14.8132,
      "duration": 0.2891,
      "velocity": 92,
      "chip": "ym2612"
    },
    {
      "channel": 1,
      "note": 52,
      "start": 14.9039,
      "duration": 0.1985,
      "velocity": 77,
      "chip": "ym2612"
    },
    {
      "channel": 2,
      "note": 71,
      "start": 14.9042,
      "duration": 0.1985,
      "velocity": 103,
      "chip": "ym2612"
    },
    {
      "channel": 3,
      "note": 79,
      "start": 14.9044,
      "duration": 0.1985,
      "velocity": 104,
      "chip": "ym2612"
    },
    {
      "channel": 4,
      "note": 79,
      "start": 14.9046,
      "duration": 0.1985,
      "velocity": 104,
      "chip": "ym2612"
    },
    {
      "channel": 0,
      "note": 88,
      "start": 15.1024,
      "duration": 0.1573,
      "velocity": 92,
      "chip": "ym2612"
    },
    {
      "channel": 1,
      "note": 54,
      "start": 15.1026,
      "duration": 0.0088,
      "velocity": 77,
      "chip": "ym2612"
    },
    {
      "channel": 2,
      "note": 71,
      "start": 15.1028,
      "duration": 0.0088,
      "velocity": 103,
      "chip": "ym2612"
    },
    {
      "channel": 3,
      "note": 79,
      "start": 15.1031,
      "duration": 0.0087,
      "velocity": 104,
      "chip": "ym2612"
    },
    {
      "channel": 4,
      "note": 79,
      "start": 15.1032,
      "duration": 0.0086,
      "velocity": 104,
      "chip": "ym2612"
    },
    {
      "channel": 1,
      "note": 52,
      "start": 15.2455,
      "duration": 0.0107,
      "velocity": 77,
      "chip": "ym2612"
    },
    {
      "channel": 2,
      "note": 71,
      "start": 15.2457,
      "duration": 0.0107,
      "velocity": 103,
      "chip": "ym2612"
    },
    {
      "channel": 3,
      "note": 79,
      "start": 15.2459,
      "duration": 0.0106,
      "velocity": 104,
      "chip": "ym2612"
    },
    {
      "channel": 4,
      "note": 79,
      "start": 15.2461,
      "duration": 0.0105,
      "velocity": 104,
      "chip": "ym2612"
    },
    {
      "channel": 0,
      "note": 90,
      "start": 15.2599,
      "duration": 0.0839,
      "velocity": 92,
      "chip": "ym2612"
    },
    {
      "channel": 1,
      "note": 50,
      "start": 15.3441,
      "duration": 0.0104,
      "velocity": 77,
      "chip": "ym2612"
    },
    {
      "channel": 2,
      "note": 69,
      "start": 15.3443,
      "duration": 0.0104,
      "velocity": 103,
      "chip": "ym2612"
    },
    {
      "channel": 3,
      "note": 78,
      "start": 15.3444,
      "duration": 0.0103,
      "velocity": 104,
      "chip": "ym2612"
    },
    {
      "channel": 4,
      "note": 78,
      "start": 15.3446,
      "duration": 0.0103,
      "velocity": 104,
      "chip": "ym2612"
    },
    {
      "channel": 0,
      "note": 90,
      "start": 15.3583,
      "duration": 0.0836,
      "velocity": 92,
      "chip": "ym2612"
    },
    {
      "channel": 0,
      "note": 88,
      "start": 15.4421,
      "duration": 0.0089,
      "velocity": 92,
      "chip": "ym2612"
    },
    {
      "channel": 1,
      "note": 50,
      "start": 15.4422,
      "duration": 0.0089,
      "velocity": 77,
      "chip": "ym2612"
    },
    {
      "channel": 2,
      "note": 69,
      "start": 15.4424,
      "duration": 0.0088,
      "velocity": 103,
      "chip": "ym2612"
    },
    {
      "channel": 3,
      "note": 78,
      "start": 15.4426,
      "duration": 0.0087,
      "velocity": 104,
      "chip": "ym2612"
    },
    {
      "channel": 4,
      "note": 78,
      "start": 15.4428,
      "duration": 0.0087,
      "velocity": 104,
      "chip": "ym2612"
    },
    {
      "channel": 0,
      "note": 86,
      "start": 15.5851,
      "duration": 0.1938,
      "velocity": 92,
      "chip": "ym2612"
    },
    {
      "channel": 1,
      "note": 52,
      "start": 15.5853,
      "duration": 0.0428,
      "velocity": 77,
      "chip": "ym2612"
    },
    {
      "channel": 2,
      "note": 71,
      "start": 15.5855,
      "duration": 0.0428,
      "velocity": 103,
      "chip": "ym2612"
    },
    {
      "channel": 3,
      "note": 79,
      "start": 15.5857,
      "duration": 0.0428,
      "velocity": 104,
      "chip": "ym2612"
    },
    {
      "channel": 4,
      "note": 79,
      "start": 15.5859,
      "duration": 0.0428,
      "velocity": 104,
      "chip": "ym2612"
    },
    {
      "channel": 1,
      "note": 54,
      "start": 15.6283,
      "duration": 0.1055,
      "velocity": 77,
      "chip": "ym2612"
    },
    {
      "channel": 2,
      "note": 73,
      "start": 15.6284,
      "duration": 0.1056,
      "velocity": 103,
      "chip": "ym2612"
    },
    {
      "channel": 3,
      "note": 81,
      "start": 15.6287,
      "duration": 0.1054,
      "velocity": 104,
      "chip": "ym2612"
    },
    {
      "channel": 4,
      "note": 81,
      "start": 15.6289,
      "duration": 0.1054,
      "velocity": 104,
      "chip": "ym2612"
    },
    {
      "channel": 1,
      "note": 55,
      "start": 15.7716,
      "duration": 0.0075,
      "velocity": 77,
      "chip": "ym2612"
    },
    {
      "channel": 2,
      "note": 74,
      "start": 15.7718,
      "duration": 0.0074,
      "velocity": 103,
      "chip": "ym2612"
    },
    {
      "channel": 3,
      "note": 83,
      "start": 15.772,
      "duration": 0.0074,
      "velocity": 104,
      "chip": "ym2612"
    },
    {
      "channel": 4,
      "note": 83,
      "start": 15.7722,
      "duration": 0.0074,
      "velocity": 104,
      "chip": "ym2612"
    },
    {
      "channel": 0,
      "note": 86,
      "start": 15.8699,
      "duration": 0.1983,
      "velocity": 92,
      "chip": "ym2612"
    },
    {
      "channel": 1,
      "note": 55,
      "start": 15.87,
      "duration": 0.1983,
      "velocity": 77,
      "chip": "ym2612"
    },
    {
      "channel": 2,
      "note": 74,
      "start": 15.8702,
      "duration": 0.1983,
      "velocity": 103,
      "chip": "ym2612"
    },
    {
      "channel": 3,
      "note": 83,
      "start": 15.8705,
      "duration": 0.1983,
      "velocity": 104,
      "chip": "ym2612"
    },
    {
      "channel": 4,
      "note": 83,
      "start": 15.8707,
      "duration": 0.1983,
      "velocity": 104,
      "chip": "ym2612"
    },
    {
      "channel": 0,
      "note": 85,
      "start": 16.0683,
      "duration": 0.009,
      "velocity": 92,
      "chip": "ym2612"
    },
    {
      "channel": 1,
      "note": 57,
      "start": 16.0685,
      "duration": 0.009,
      "velocity": 77,
      "chip": "ym2612"
    },
    {
      "channel": 2,
      "note": 74,
      "start": 16.0687,
      "duration": 0.0089,
      "velocity": 103,
      "chip": "ym2612"
    },
    {
      "channel": 3,
      "note": 83,
      "start": 16.069,
      "duration": 0.0087,
      "velocity": 104,
      "chip": "ym2612"
    },
    {
      "channel": 4,
      "note": 83,
      "start": 16.0691,
      "duration": 0.0087,
      "velocity": 104,
      "chip": "ym2612"
    },
    {
      "channel": 0,
      "note": 83,
      "start": 16.2114,
      "duration": 0.0108,
      "velocity": 92,
      "chip": "ym2612"
    },
    {
      "channel": 1,
      "note": 55,
      "start": 16.2116,
      "duration": 0.0108,
      "velocity": 77,
      "chip": "ym2612"
    },
    {
      "channel": 2,
      "note": 74,
      "start": 16.2117,
      "duration": 0.0108,
      "velocity": 103,
      "chip": "ym2612"
    },
    {
      "channel": 3,
      "note": 83,
      "start": 16.212,
      "duration": 0.0106,
      "velocity": 104,
      "chip": "ym2612"
    },
    {
      "channel": 4,
      "note": 83,
      "start": 16.2122,
      "duration": 0.0106,
      "velocity": 104,
      "chip": "ym2612"
    },
    {
      "channel": 0,
      "note": 81,
      "start": 16.3097,
      "duration": 0.0108,
      "velocity": 92,
      "chip": "ym2612"
    },
    {
      "channel": 1,
      "note": 54,
      "start": 16.3099,
      "duration": 0.098,
      "velocity": 77,
      "chip": "ym2612"
    },
    {
      "channel": 2,
      "note": 73,
      "start": 16.3101,
      "duration": 0.0106,
      "velocity": 103,
      "chip": "ym2612"
    },
    {
      "channel": 3,
      "note": 81,
      "start": 16.3103,
      "duration": 0.0105,
      "velocity": 104,
      "chip": "ym2612"
    },
    {
      "channel": 4,
      "note": 81,
      "start": 16.3105,
      "duration": 0.0105,
      "velocity": 104,
      "chip": "ym2612"
    },
    {
      "channel": 0,
      "note": 83,
      "start": 16.4078,
      "duration": 0.1499,
      "velocity": 92,
      "chip": "ym2612"
    },
    {
      "channel": 3,
      "note": 90,
      "start": 16.4082,
      "duration": 0.1497,
      "velocity": 104,
      "chip": "ym2612"
    },
    {
      "channel": 4,
      "note": 90,
      "start": 16.4084,
      "duration": 0.1496,
      "velocity": 104,
      "chip": "ym2612"
    },
    {
      "channel": 0,
      "note": 81,
      "start": 16.7079,
      "duration": 0.0429,
      "velocity": 92,
      "chip": "ym2612"
    },
    {
      "channel": 1,
      "note": 55,
      "start": 16.7081,
      "duration": 0.0429,
      "velocity": 77,
      "chip": "ym2612"
    },
    {
      "channel": 3,
      "note": 86,
      "start": 16.7083,
      "duration": 0.0085,
      "velocity": 104,
      "chip": "ym2612"
    },
    {
      "channel": 4,
      "note": 86,
      "start": 16.7085,
      "duration": 0.0085,
      "velocity": 104,
      "chip": "ym2612"
    },
    {
      "channel": 0,
      "note": 78,
      "start": 16.751,
      "duration": 0.1998,
      "velocity": 92,
      "chip": "ym2612"
    },
    {
      "channel": 1,
      "note": 54,
      "start": 16.7511,
      "duration": 0.1998,
      "velocity": 77,
      "chip": "ym2612"
    },
    {
      "channel": 0,
      "note": 79,
      "start": 17.051,
      "duration": 0.0073,
      "velocity": 92,
      "chip": "ym2612"
    },
    {
      "channel": 1,
      "note": 52,
      "start": 17.0512,
      "duration": 0.0072,
      "velocity": 77,
      "chip": "ym2612"
    },
    {
      "channel": 2,
      "note": 71,
      "start": 17.0514,
      "duration": 0.0071,
      "velocity": 103,
      "chip": "ym2612"
    },
    {
      "channel": 3,
      "note": 79,
      "start": 17.0515,
      "duration": 0.0071,
      "velocity": 104,
      "chip": "ym2612"
    },
    {
      "channel": 4,
      "note": 79,
      "start": 17.0518,
      "duration": 0.0069,
      "velocity": 104,
      "chip": "ym2612"
    },
    {
      "channel": 0,
      "note": 79,
      "start": 17.149,
      "duration": 0.1983,
      "velocity": 92,
      "chip": "ym2612"
    },
    {
      "channel": 1,
      "note": 52,
      "start": 17.1492,
      "duration": 0.1983,
      "velocity": 77,
      "chip": "ym2612"
    },
    {
      "channel": 2,
      "note": 71,
      "start": 17.1494,
      "duration": 0.1983,
      "velocity": 103,
      "chip": "ym2612"
    },
    {
      "channel": 3,
      "note": 79,
      "start": 17.1497,
      "duration": 0.1983,
      "velocity": 104,
      "chip": "ym2612"
    },
    {
      "channel": 4,
      "note": 79,
      "start": 17.1498,
      "duration": 0.1983,
      "velocity": 104,
      "chip": "ym2612"
    },
    {
      "channel": 0,
      "note": 81,
      "start": 17.3475,
      "duration": 0.009,
      "velocity": 92,
      "chip": "ym2612"
    },
    {
      "channel": 1,
      "note": 54,
      "start": 17.3477,
      "duration": 0.009,
      "velocity": 77,
      "chip": "ym2612"
    },
    {
      "channel": 2,
      "note": 71,
      "start": 17.3479,
      "duration": 0.0089,
      "velocity": 103,
      "chip": "ym2612"
    },
    {
      "channel": 3,
      "note": 79,
      "start": 17.3481,
      "duration": 0.0087,
      "velocity": 104,
      "chip": "ym2612"
    },
    {
      "channel": 4,
      "note": 79,
      "start": 17.3483,
      "duration": 0.0087,
      "velocity": 104,
      "chip": "ym2612"
    },
    {
      "channel": 0,
      "note": 79,
      "start": 17.4906,
      "duration": 0.0108,
      "velocity": 92,
      "chip": "ym2612"
    },
    {
      "channel": 1,
      "note": 52,
      "start": 17.4907,
      "duration": 0.0108,
      "velocity": 77,
      "chip": "ym2612"
    },
    {
      "channel": 2,
      "note": 71,
      "start": 17.4909,
      "duration": 0.0108,
      "velocity": 103,
      "chip": "ym2612"
    },
    {
      "channel": 3,
      "note": 79,
      "start": 17.4911,
      "duration": 0.0106,
      "velocity": 104,
      "chip": "ym2612"
    },
    {
      "channel": 4,
      "note": 79,
      "start": 17.4913,
      "duration": 0.0106,
      "velocity": 104,
      "chip": "ym2612"
    },
    {
      "channel": 0,
      "note": 78,
      "start": 17.5889,
      "duration": 0.0144,
      "velocity": 92,
      "chip": "ym2612"
    },
    {
      "channel": 1,
      "note": 50,
      "start": 17.589,
      "duration": 0.0106,
      "velocity": 77,
      "chip": "ym2612"
    },
    {
      "channel": 2,
      "note": 69,
      "start": 17.5893,
      "duration": 0.0106,
      "velocity": 103,
      "chip": "ym2612"
    },
    {
      "channel": 3,
      "note": 78,
      "start": 17.5894,
      "duration": 0.0106,
      "velocity": 104,
      "chip": "ym2612"
    },
    {
      "channel": 4,
      "note": 78,
      "start": 17.5896,
      "duration": 0.0106,
      "velocity": 104,
      "chip": "ym2612"
    },
    {
      "channel": 0,
      "note": 79,
      "start": 17.6034,
      "duration": 0.1835,
      "velocity": 92,
      "chip": "ym2612"
    },
    {
      "channel": 1,
      "note": 50,
      "start": 17.6872,
      "duration": 0.1498,
      "velocity": 77,
      "chip": "ym2612"
    },
    {
      "channel": 0,
      "note": 81,
      "start": 17.8871,
      "duration": 0.4503,
      "velocity": 92,
      "chip": "ym2612"
    },
    {
      "channel": 1,
      "note": 52,
      "start": 17.9872,
      "duration": 0.0429,
      "velocity": 77,
      "chip": "ym2612"
    },
    {
      "channel": 1,
      "note": 54,
      "start": 18.0303,
      "duration": 0.1998,
      "velocity": 77,
      "chip": "ym2612"
    },
    {
      "channel": 1,
      "note": 49,
      "start": 18.3304,
      "duration": 0.0072,
      "velocity": 77,
      "chip": "ym2612"
    },
    {
      "channel": 3,
      "note": 78,
      "start": 18.3305,
      "duration": 0.2971,
      "velocity": 104,
      "chip": "ym2612"
    },
    {
      "channel": 4,
      "note": 78,
      "start": 18.3308,
      "duration": 0.2971,
      "velocity": 104,
      "chip": "ym2612"
    },
    {
      "channel": 1,
      "note": 49,
      "start": 18.4287,
      "duration": 0.1986,
      "velocity": 77,
      "chip": "ym2612"
    },
    {
      "channel": 2,
      "note": 90,
      "start": 18.4289,
      "duration": 0.1985,
      "velocity": 103,
      "chip": "ym2612"
    },
    {
      "channel": 0,
      "note": 85,
      "start": 18.436,
      "duration": 0.0069,
      "velocity": 92,
      "chip": "ym2612"
    },
    {
      "channel": 0,
      "note": 85,
      "start": 18.6272,
      "duration": 0.2418,
      "velocity": 92,
      "chip": "ym2612"
    },
    {
      "channel": 1,
      "note": 49,
      "start": 18.6274,
      "duration": 0.0088,
      "velocity": 77,
      "chip": "ym2612"
    },
    {
      "channel": 2,
      "note": 88,
      "start": 18.6276,
      "duration": 0.0088,
      "velocity": 103,
      "chip": "ym2612"
    },
    {
      "channel": 3,
      "note": 82,
      "start": 18.6278,
      "duration": 0.2417,
      "velocity": 104,
      "chip": "ym2612"
    },
    {
      "channel": 4,
      "note": 82,
      "start": 18.628,
      "duration": 0.2417,
      "velocity": 104,
      "chip": "ym2612"
    },
    {
      "channel": 1,
      "note": 49,
      "start": 18.7701,
      "duration": 0.0108,
      "velocity": 77,
      "chip": "ym2612"
    },
    {
      "channel": 2,
      "note": 88,
      "start": 18.7703,
      "duration": 0.0107,
      "velocity": 103,
      "chip": "ym2612"
    },
    {
      "channel": 0,
      "note": 86,
      "start": 18.8691,
      "duration": 0.3983,
      "velocity": 92,
      "chip": "ym2612"
    },
    {
      "channel": 1,
      "note": 54,
      "start": 18.8693,
      "duration": 0.248,
      "velocity": 77,
      "chip": "ym2612"
    },
    {
      "channel": 2,
      "note": 86,
      "start": 18.8695,
      "duration": 0.0105,
      "velocity": 103,
      "chip": "ym2612"
    },
    {
      "channel": 3,
      "note": 85,
      "start": 18.8697,
      "duration": 0.3983,
      "velocity": 104,
      "chip": "ym2612"
    },
    {
      "channel": 4,
      "note": 85,
      "start": 18.8699,
      "duration": 0.3984,
      "velocity": 104,
      "chip": "ym2612"
    },
    {
      "channel": 2,
      "note": 86,
      "start": 18.9675,
      "duration": 0.1499,
      "velocity": 103,
      "chip": "ym2612"
    },
    {
      "channel": 0,
      "note": 85,
      "start": 19.2675,
      "duration": 0.3428,
      "velocity": 92,
      "chip": "ym2612"
    },
    {
      "channel": 1,
      "note": 54,
      "start": 19.2677,
      "duration": 0.3428,
      "velocity": 77,
      "chip": "ym2612"
    },
    {
      "channel": 2,
      "note": 85,
      "start": 19.2679,
      "duration": 0.0424,
      "velocity": 103,
      "chip": "ym2612"
    },
    {
      "channel": 3,
      "note": 94,
      "start": 19.2682,
      "duration": 0.3427,
      "velocity": 104,
      "chip": "ym2612"
    },
    {
      "channel": 4,
      "note": 94,
      "start": 19.2683,
      "duration": 0.3428,
      "velocity": 104,
      "chip": "ym2612"
    },
    {
      "channel": 2,
      "note": 86,
      "start": 19.3105,
      "duration": 0.0999,
      "velocity": 103,
      "chip": "ym2612"
    },
    {
      "channel": 2,
      "note": 85,
      "start": 19.4105,
      "duration": 0.2002,
      "velocity": 103,
      "chip": "ym2612"
    },
    {
      "channel": 0,
      "note": 83,
      "start": 19.6105,
      "duration": 0.0073,
      "velocity": 92,
      "chip": "ym2612"
    },
    {
      "channel": 1,
      "note": 47,
      "start": 19.6107,
      "duration": 0.0073,
      "velocity": 77,
      "chip": "ym2612"
    },
    {
      "channel": 2,
      "note": 83,
      "start": 19.6109,
      "duration": 0.0073,
      "velocity": 103,
      "chip": "ym2612"
    },
    {
      "channel": 3,
      "note": 95,
      "start": 19.6111,
      "duration": 0.0072,
      "velocity": 104,
      "chip": "ym2612"
    },
    {
      "channel": 4,
      "note": 95,
      "start": 19.6113,
      "duration": 0.0071,
      "velocity": 104,
      "chip": "ym2612"
    },
    {
      "channel": 0,
      "note": 85,
      "start": 20.9317,
      "duration": 19.7675,
      "velocity": 101,
      "chip": "ym2612"
    },
    {
      "channel": 1,
      "note": 47,
      "start": 20.9319,
      "duration": 19.7673,
      "velocity": 77,
      "chip": "ym2612"
    }
  ]
}