{
  "track_name": "04 - Sound Test 02",
  "duration_sec": 64.101,
  "sample_rate": 44100,
  "note_count": 1253,
  "unique_pitches": 41,
  "pitch_range": 54,
  "avg_note_duration": 0.1929,
  "reconstruction_stats": {
    "notes_reconstructed": 1253,
    "keyon_events": 1253,
    "keyoff_events": 1251,
    "orphan_keyons": 2,
    "unique_pitches": 41,
    "pitch_range": 54,
    "avg_duration_sec": 0.1929
  },
  "metadata": {
    "source": "F\\F1 Super License\\04 - Sound Test 02.vgz"
  },
  "notes": [
    {
      "channel": 2,
      "note": 77,
      "start": 0.0,
      "duration": 0.1512,
      "velocity": 106,
      "chip": "ym2612"
    },
    {
      "channel": 3,
      "note": 82,
      "start": 0.0017,
      "duration": 0.1496,
      "velocity": 106,
      "chip": "ym2612"
    },
    {
      "channel": 4,
      "note": 58,
      "start": 0.0034,
      "duration": 0.148,
      "velocity": 80,
      "chip": "ym2612"
    },
    {
      "channel": 5,
      "note": 68,
      "start": 0.0055,
      "duration": 0.0627,
      "velocity": 127,
      "chip": "ym2612"
    },
    {
      "channel": 5,
      "note": 68,
      "start": 0.082,
      "duration": 0.0695,
      "velocity": 127,
      "chip": "ym2612"
    },
    {
      "channel": 4,
      "note": 46,
      "start": 0.1651,
      "duration": 0.1522,
      "velocity": 80,
      "chip": "ym2612"
    },
    {
      "channel": 5,
      "note": 45,
      "start": 0.1668,
      "duration": 0.1506,
      "velocity": 101,
      "chip": "ym2612"
    },
    {
      "channel": 2,
      "note": 76,
      "start": 0.3312,
      "duration": 0.1522,
      "velocity": 106,
      "chip": "ym2612"
    },
    {
      "channel": 3,
      "note": 81,
      "start": 0.3314,
      "duration": 0.1522,
      "velocity": 106,
      "chip": "ym2612"
    },
    {
      "channel": 4,
      "note": 57,
      "start": 0.3316,
      "duration": 0.1521,
      "velocity": 80,
      "chip": "ym2612"
    },
    {
      "channel": 5,
      "note": 68,
      "start": 0.3333,
      "duration": 0.0671,
      "velocity": 127,
      "chip": "ym2612"
    },
    {
      "channel": 5,
      "note": 68,
      "start": 0.4143,
      "duration": 0.0696,
      "velocity": 127,
      "chip": "ym2612"
    },
    {
      "channel": 4,
      "note": 46,
      "start": 0.4973,
      "duration": 0.1523,
      "velocity": 80,
      "chip": "ym2612"
    },
    {
      "channel": 5,
      "note": 45,
      "start": 0.499,
      "duration": 0.1507,
      "velocity": 101,
      "chip": "ym2612"
    },
    {
      "channel": 2,
      "note": 75,
      "start": 0.6635,
      "duration": 0.1522,
      "velocity": 106,
      "chip": "ym2612"
    },
    {
      "channel": 3,
      "note": 80,
      "start": 0.6637,
      "duration": 0.1521,
      "velocity": 106,
      "chip": "ym2612"
    },
    {
      "channel": 4,
      "note": 56,
      "start": 0.6639,
      "duration": 0.152,
      "velocity": 80,
      "chip": "ym2612"
    },
    {
      "channel": 5,
      "note": 68,
      "start": 0.6655,
      "duration": 0.0671,
      "velocity": 127,
      "chip": "ym2612"
    },
    {
      "channel": 5,
      "note": 68,
      "start": 0.7465,
      "duration": 0.0695,
      "velocity": 127,
      "chip": "ym2612"
    },
    {
      "channel": 4,
      "note": 46,
      "start": 0.8297,
      "duration": 0.1522,
      "velocity": 80,
      "chip": "ym2612"
    },
    {
      "channel": 5,
      "note": 45,
      "start": 0.8313,
      "duration": 0.1506,
      "velocity": 101,
      "chip": "ym2612"
    },
    {
      "channel": 2,
      "note": 73,
      "start": 0.9957,
      "duration": 0.1522,
      "velocity": 106,
      "chip": "ym2612"
    },
    {
      "channel": 3,
      "note": 78,
      "start": 0.9959,
      "duration": 0.1521,
      "velocity": 106,
      "chip": "ym2612"
    },
    {
      "channel": 4,
      "note": 54,
      "start": 0.9961,
      "duration": 0.152,
      "velocity": 80,
      "chip": "ym2612"
    },
    {
      "channel": 5,
      "note": 68,
      "start": 0.9978,
      "duration": 0.1505,
      "velocity": 127,
      "chip": "ym2612"
    },
    {
      "channel": 2,
      "note": 75,
      "start": 1.1618,
      "duration": 0.1522,
      "velocity": 106,
      "chip": "ym2612"
    },
    {
      "channel": 3,
      "note": 80,
      "start": 1.162,
      "duration": 0.1522,
      "velocity": 106,
      "chip": "ym2612"
    },
    {
      "channel": 4,
      "note": 56,
      "start": 1.1622,
      "duration": 0.1521,
      "velocity": 80,
      "chip": "ym2612"
    },
    {
      "channel": 5,
      "note": 68,
      "start": 1.1624,
      "duration": 0.1521,
      "velocity": 127,
      "chip": "ym2612"
    },
    {
      "channel": 5,
      "note": 56,
      "start": 1.3295,
      "duration": 0.1508,
      "velocity": 127,
      "chip": "ym2612"
    },
    {
      "channel": 2,
      "note": 73,
      "start": 1.4941,
      "duration": 0.1522,
      "velocity": 106,
      "chip": "ym2612"
    },
    {
      "channel": 3,
      "note": 78,
      "start": 1.4944,
      "duration": 0.1521,
      "velocity": 106,
      "chip": "ym2612"
    },
    {
      "channel": 4,
      "note": 54,
      "start": 1.4945,
      "duration": 0.152,
      "velocity": 80,
      "chip": "ym2612"
    },
    {
      "channel": 5,
      "note": 45,
      "start": 1.4962,
      "duration": 0.1505,
      "velocity": 101,
      "chip": "ym2612"
    },
    {
      "channel": 5,
      "note": 56,
      "start": 1.6618,
      "duration": 0.1507,
      "velocity": 127,
      "chip": "ym2612"
    },
    {
      "channel": 2,
      "note": 70,
      "start": 1.8264,
      "duration": 0.1522,
      "velocity": 106,
      "chip": "ym2612"
    },
    {
      "channel": 3,
      "note": 75,
      "start": 1.8266,
      "duration": 0.1521,
      "velocity": 106,
      "chip": "ym2612"
    },
    {
      "channel": 4,
      "note": 51,
      "start": 1.8268,
      "duration": 0.152,
      "velocity": 80,
      "chip": "ym2612"
    },
    {
      "channel": 5,
      "note": 45,
      "start": 1.8284,
      "duration": 0.1505,
      "velocity": 101,
      "chip": "ym2612"
    },
    {
      "channel": 5,
      "note": 56,
      "start": 1.994,
      "duration": 0.1508,
      "velocity": 127,
      "chip": "ym2612"
    },
    {
      "channel": 2,
      "note": 68,
      "start": 2.1587,
      "duration": 0.1522,
      "velocity": 106,
      "chip": "ym2612"
    },
    {
      "channel": 3,
      "note": 73,
      "start": 2.1588,
      "duration": 0.1521,
      "velocity": 106,
      "chip": "ym2612"
    },
    {
      "channel": 4,
      "note": 49,
      "start": 2.1591,
      "duration": 0.152,
      "velocity": 80,
      "chip": "ym2612"
    },
    {
      "channel": 5,
      "note": 61,
      "start": 2.1607,
      "duration": 0.1505,
      "velocity": 105,
      "chip": "ym2612"
    },
    {
      "channel": 2,
      "note": 69,
      "start": 2.3248,
      "duration": 0.1522,
      "velocity": 106,
      "chip": "ym2612"
    },
    {
      "channel": 3,
      "note": 74,
      "start": 2.3249,
      "duration": 0.1521,
      "velocity": 106,
      "chip": "ym2612"
    },
    {
      "channel": 4,
      "note": 50,
      "start": 2.3251,
      "duration": 0.152,
      "velocity": 80,
      "chip": "ym2612"
    },
    {
      "channel": 5,
      "note": 61,
      "start": 2.3253,
      "duration": 0.152,
      "velocity": 105,
      "chip": "ym2612"
    },
    {
      "channel": 2,
      "note": 70,
      "start": 2.4908,
      "duration": 0.1522,
      "velocity": 106,
      "chip": "ym2612"
    },
    {
      "channel": 3,
      "note": 75,
      "start": 2.491,
      "duration": 0.1521,
      "velocity": 106,
      "chip": "ym2612"
    },
    {
      "channel": 4,
      "note": 51,
      "start": 2.4912,
      "duration": 0.152,
      "velocity": 80,
      "chip": "ym2612"
    },
    {
      "channel": 5,
      "note": 68,
      "start": 2.4929,
      "duration": 0.1505,
      "velocity": 127,
      "chip": "ym2612"
    },
    {
      "channel": 3,
      "note": 94,
      "start": 2.6585,
      "duration": 0.1507,
      "velocity": 91,
      "chip": "ym2612"
    },
    {
      "channel": 4,
      "note": 51,
      "start": 2.6586,
      "duration": 0.1507,
      "velocity": 80,
      "chip": "ym2612"
    },
    {
      "channel": 5,
      "note": 45,
      "start": 2.6602,
      "duration": 0.1492,
      "velocity": 101,
      "chip": "ym2612"
    },
    {
      "channel": 3,
      "note": 85,
      "start": 2.8231,
      "duration": 0.1523,
      "velocity": 91,
      "chip": "ym2612"
    },
    {
      "channel": 4,
      "note": 49,
      "start": 2.8233,
      "duration": 0.1522,
      "velocity": 80,
      "chip": "ym2612"
    },
    {
      "channel": 5,
      "note": 56,
      "start": 2.8249,
      "duration": 0.1507,
      "velocity": 127,
      "chip": "ym2612"
    },
    {
      "channel": 3,
      "note": 90,
      "start": 2.9893,
      "duration": 0.1522,
      "velocity": 91,
      "chip": "ym2612"
    },
    {
      "channel": 4,
      "note": 51,
      "start": 2.9895,
      "duration": 0.1521,
      "velocity": 80,
      "chip": "ym2612"
    },
    {
      "channel": 5,
      "note": 68,
      "start": 2.9911,
      "duration": 0.1506,
      "velocity": 127,
      "chip": "ym2612"
    },
    {
      "channel": 1,
      "note": 78,
      "start": 3.1557,
      "duration": 0.4426,
      "velocity": 106,
      "chip": "ym2612"
    },
    {
      "channel": 2,
      "note": 73,
      "start": 3.1559,
      "duration": 0.4426,
      "velocity": 106,
      "chip": "ym2612"
    },
    {
      "channel": 3,
      "note": 94,
      "start": 3.1561,
      "duration": 0.1515,
      "velocity": 91,
      "chip": "ym2612"
    },
    {
      "channel": 4,
      "note": 54,
      "start": 3.1562,
      "duration": 0.2898,
      "velocity": 80,
      "chip": "ym2612"
    },
    {
      "channel": 5,
      "note": 56,
      "start": 3.1578,
      "duration": 0.1499,
      "velocity": 127,
      "chip": "ym2612"
    },
    {
      "channel": 3,
      "note": 85,
      "start": 3.3215,
      "duration": 0.1522,
      "velocity": 91,
      "chip": "ym2612"
    },
    {
      "channel": 5,
      "note": 45,
      "start": 3.3232,
      "duration": 0.1507,
      "velocity": 101,
      "chip": "ym2612"
    },
    {
      "channel": 3,
      "note": 90,
      "start": 3.4877,
      "duration": 0.1522,
      "velocity": 91,
      "chip": "ym2612"
    },
    {
      "channel": 4,
      "note": 49,
      "start": 3.4879,
      "duration": 0.1521,
      "velocity": 80,
      "chip": "ym2612"
    },
    {
      "channel": 5,
      "note": 45,
      "start": 3.488,
      "duration": 0.1521,
      "velocity": 101,
      "chip": "ym2612"
    },
    {
      "channel": 3,
      "note": 94,
      "start": 3.6544,
      "duration": 0.1516,
      "velocity": 91,
      "chip": "ym2612"
    },
    {
      "channel": 4,
      "note": 51,
      "start": 3.6546,
      "duration": 0.1515,
      "velocity": 80,
      "chip": "ym2612"
    },
    {
      "channel": 5,
      "note": 68,
      "start": 3.6562,
      "duration": 0.15,
      "velocity": 127,
      "chip": "ym2612"
    },
    {
      "channel": 3,
      "note": 85,
      "start": 3.8199,
      "duration": 0.1522,
      "velocity": 91,
      "chip": "ym2612"
    },
    {
      "channel": 4,
      "note": 49,
      "start": 3.8201,
      "duration": 0.1522,
      "velocity": 80,
      "chip": "ym2612"
    },
    {
      "channel": 5,
      "note": 56,
      "start": 3.8222,
      "duration": 0.1502,
      "velocity": 127,
      "chip": "ym2612"
    },
    {
      "channel": 3,
      "note": 96,
      "start": 3.986,
      "duration": 0.1522,
      "velocity": 91,
      "chip": "ym2612"
    },
    {
      "channel": 4,
      "note": 51,
      "start": 3.9862,
      "duration": 0.1521,
      "velocity": 80,
      "chip": "ym2612"
    },
    {
      "channel": 5,
      "note": 45,
      "start": 3.9882,
      "duration": 0.1502,
      "velocity": 101,
      "chip": "ym2612"
    },
    {
      "channel": 1,
      "note": 80,
      "start": 4.1522,
      "duration": 0.4429,
      "velocity": 106,
      "chip": "ym2612"
    },
    {
      "channel": 2,
      "note": 75,
      "start": 4.1524,
      "duration": 0.4428,
      "velocity": 106,
      "chip": "ym2612"
    },
    {
      "channel": 3,
      "note": 87,
      "start": 4.1526,
      "duration": 0.1518,
      "velocity": 91,
      "chip": "ym2612"
    },
    {
      "channel": 4,
      "note": 56,
      "start": 4.1527,
      "duration": 0.2901,
      "velocity": 80,
      "chip": "ym2612"
    },
    {
      "channel": 5,
      "note": 56,
      "start": 4.1548,
      "duration": 0.1497,
      "velocity": 127,
      "chip": "ym2612"
    },
    {
      "channel": 3,
      "note": 92,
      "start": 4.3183,
      "duration": 0.1527,
      "velocity": 91,
      "chip": "ym2612"
    },
    {
      "channel": 5,
      "note": 68,
      "start": 4.3199,
      "duration": 0.1512,
      "velocity": 127,
      "chip": "ym2612"
    },
    {
      "channel": 3,
      "note": 96,
      "start": 4.4844,
      "duration": 0.1522,
      "velocity": 91,
      "chip": "ym2612"
    },
    {
      "channel": 4,
      "note": 49,
      "start": 4.4846,
      "duration": 0.1521,
      "velocity": 80,
      "chip": "ym2612"
    },
    {
      "channel": 5,
      "note": 56,
      "start": 4.4863,
      "duration": 0.1506,
      "velocity": 127,
      "chip": "ym2612"
    },
    {
      "channel": 1,
      "note": 80,
      "start": 4.6505,
      "duration": 0.1522,
      "velocity": 106,
      "chip": "ym2612"
    },
    {
      "channel": 2,
      "note": 75,
      "start": 4.6506,
      "duration": 0.1522,
      "velocity": 106,
      "chip": "ym2612"
    },
    {
      "channel": 3,
      "note": 87,
      "start": 4.6508,
      "duration": 0.1522,
      "velocity": 91,
      "chip": "ym2612"
    },
    {
      "channel": 4,
      "note": 51,
      "start": 4.651,
      "duration": 0.1521,
      "velocity": 80,
      "chip": "ym2612"
    },
    {
      "channel": 5,
      "note": 45,
      "start": 4.6526,
      "duration": 0.1506,
      "velocity": 101,
      "chip": "ym2612"
    },
    {
      "channel": 3,
      "note": 92,
      "start": 4.8167,
      "duration": 0.1522,
      "velocity": 91,
      "chip": "ym2612"
    },
    {
      "channel": 4,
      "note": 49,
      "start": 4.8169,
      "duration": 0.1521,
      "velocity": 80,
      "chip": "ym2612"
    },
    {
      "channel": 5,
      "note": 45,
      "start": 4.817,
      "duration": 0.1521,
      "velocity": 101,
      "chip": "ym2612"
    },
    {
      "channel": 1,
      "note": 80,
      "start": 4.9827,
      "duration": 0.1523,
      "velocity": 106,
      "chip": "ym2612"
    },
    {
      "channel": 2,
      "note": 75,
      "start": 4.9829,
      "duration": 0.1522,
      "velocity": 106,
      "chip": "ym2612"
    },
    {
      "channel": 3,
      "note": 96,
      "start": 4.9831,
      "duration": 0.1522,
      "velocity": 91,
      "chip": "ym2612"
    },
    {
      "channel": 4,
      "note": 51,
      "start": 4.9833,
      "duration": 0.1521,
      "velocity": 80,
      "chip": "ym2612"
    },
    {
      "channel": 5,
      "note": 68,
      "start": 4.9849,
      "duration": 0.1506,
      "velocity": 127,
      "chip": "ym2612"
    },
    {
      "channel": 3,
      "note": 87,
      "start": 5.1489,
      "duration": 0.1523,
      "velocity": 91,
      "chip": "ym2612"
    },
    {
      "channel": 4,
      "note": 49,
      "start": 5.149,
      "duration": 0.1522,
      "velocity": 80,
      "chip": "ym2612"
    },
    {
      "channel": 5,
      "note": 56,
      "start": 5.1507,
      "duration": 0.1507,
      "velocity": 127,
      "chip": "ym2612"
    },
    {
      "channel": 3,
      "note": 94,
      "start": 5.315,
      "duration": 0.1522,
      "velocity": 91,
      "chip": "ym2612"
    },
    {
      "channel": 4,
      "note": 51,
      "start": 5.3152,
      "duration": 0.1522,
      "velocity": 80,
      "chip": "ym2612"
    },
    {
      "channel": 5,
      "note": 45,
      "start": 5.3169,
      "duration": 0.1506,
      "velocity": 101,
      "chip": "ym2612"
    },
    {
      "channel": 3,
      "note": 85,
      "start": 5.4812,
      "duration": 0.1522,
      "velocity": 91,
      "chip": "ym2612"
    },
    {
      "channel": 4,
      "note": 49,
      "start": 5.4814,
      "duration": 0.1521,
      "velocity": 80,
      "chip": "ym2612"
    },
    {
      "channel": 5,
      "note": 56,
      "start": 5.483,
      "duration": 0.1506,
      "velocity": 127,
      "chip": "ym2612"
    },
    {
      "channel": 3,
      "note": 90,
      "start": 5.6473,
      "duration": 0.1522,
      "velocity": 91,
      "chip": "ym2612"
    },
    {
      "channel": 4,
      "note": 51,
      "start": 5.6475,
      "duration": 0.1522,
      "velocity": 80,
      "chip": "ym2612"
    },
    {
      "channel": 5,
      "note": 68,
      "start": 5.6491,
      "duration": 0.1506,
      "velocity": 127,
      "chip": "ym2612"
    },
    {
      "channel": 1,
      "note": 78,
      "start": 5.8134,
      "duration": 0.4429,
      "velocity": 106,
      "chip": "ym2612"
    },
    {
      "channel": 2,
      "note": 73,
      "start": 5.8136,
      "duration": 0.4428,
      "velocity": 106,
      "chip": "ym2612"
    },
    {
      "channel": 3,
      "note": 94,
      "start": 5.8138,
      "duration": 0.1519,
      "velocity": 91,
      "chip": "ym2612"
    },
    {
      "channel": 4,
      "note": 54,
      "start": 5.814,
      "duration": 0.2903,
      "velocity": 80,
      "chip": "ym2612"
    },
    {
      "channel": 5,
      "note": 56,
      "start": 5.8156,
      "duration": 0.1502,
      "velocity": 127,
      "chip": "ym2612"
    },
    {
      "channel": 3,
      "note": 85,
      "start": 5.9795,
      "duration": 0.1522,
      "velocity": 91,
      "chip": "ym2612"
    },
    {
      "channel": 5,
      "note": 45,
      "start": 5.9812,
      "duration": 0.1507,
      "velocity": 101,
      "chip": "ym2612"
    },
    {
      "channel": 3,
      "note": 90,
      "start": 6.1457,
      "duration": 0.1522,
      "velocity": 91,
      "chip": "ym2612"
    },
    {
      "channel": 4,
      "note": 49,
      "start": 6.1459,
      "duration": 0.1522,
      "velocity": 80,
      "chip": "ym2612"
    },
    {
      "channel": 5,
      "note": 45,
      "start": 6.146,
      "duration": 0.1522,
      "velocity": 101,
      "chip": "ym2612"
    },
    {
      "channel": 3,
      "note": 94,
      "start": 6.3118,
      "duration": 0.1522,
      "velocity": 91,
      "chip": "ym2612"
    },
    {
      "channel": 4,
      "note": 51,
      "start": 6.312,
      "duration": 0.1521,
      "velocity": 80,
      "chip": "ym2612"
    },
    {
      "channel": 5,
      "note": 68,
      "start": 6.3136,
      "duration": 0.1506,
      "velocity": 127,
      "chip": "ym2612"
    },
    {
      "channel": 1,
      "note": 80,
      "start": 6.4779,
      "duration": 0.1522,
      "velocity": 106,
      "chip": "ym2612"
    },
    {
      "channel": 2,
      "note": 75,
      "start": 6.4781,
      "duration": 0.1521,
      "velocity": 106,
      "chip": "ym2612"
    },
    {
      "channel": 3,
      "note": 85,
      "start": 6.4783,
      "duration": 0.152,
      "velocity": 91,
      "chip": "ym2612"
    },
    {
      "channel": 4,
      "note": 49,
      "start": 6.4785,
      "duration": 0.152,
      "velocity": 80,
      "chip": "ym2612"
    },
    {
      "channel": 5,
      "note": 56,
      "start": 6.4802,
      "duration": 0.1505,
      "velocity": 127,
      "chip": "ym2612"
    },
    {
      "channel": 3,
      "note": 96,
      "start": 6.644,
      "duration": 0.1522,
      "velocity": 91,
      "chip": "ym2612"
    },
    {
      "channel": 4,
      "note": 51,
      "start": 6.6442,
      "duration": 0.1522,
      "velocity": 80,
      "chip": "ym2612"
    },
    {
      "channel": 5,
      "note": 45,
      "start": 6.6459,
      "duration": 0.1506,
      "velocity": 101,
      "chip": "ym2612"
    },
    {
      "channel": 1,
      "note": 80,
      "start": 6.8101,
      "duration": 0.1522,
      "velocity": 106,
      "chip": "ym2612"
    },
    {
      "channel": 2,
      "note": 75,
      "start": 6.8102,
      "duration": 0.1522,
      "velocity": 106,
      "chip": "ym2612"
    },
    {
      "channel": 3,
      "note": 87,
      "start": 6.8104,
      "duration": 0.1522,
      "velocity": 91,
      "chip": "ym2612"
    },
    {
      "channel": 4,
      "note": 56,
      "start": 6.8106,
      "duration": 0.2902,
      "velocity": 80,
      "chip": "ym2612"
    },
    {
      "channel": 5,
      "note": 56,
      "start": 6.8123,
      "duration": 0.1505,
      "velocity": 127,
      "chip": "ym2612"
    },
    {
      "channel": 3,
      "note": 92,
      "start": 6.9763,
      "duration": 0.1522,
      "velocity": 91,
      "chip": "ym2612"
    },
    {
      "channel": 5,
      "note": 68,
      "start": 6.9779,
      "duration": 0.1507,
      "velocity": 127,
      "chip": "ym2612"
    },
    {
      "channel": 1,
      "note": 80,
      "start": 7.1423,
      "duration": 0.1523,
      "velocity": 106,
      "chip": "ym2612"
    },
    {
      "channel": 2,
      "note": 75,
      "start": 7.1425,
      "duration": 0.1522,
      "velocity": 106,
      "chip": "ym2612"
    },
    {
      "channel": 3,
      "note": 96,
      "start": 7.1427,
      "duration": 0.1522,
      "velocity": 91,
      "chip": "ym2612"
    },
    {
      "channel": 4,
      "note": 49,
      "start": 7.1429,
      "duration": 0.1521,
      "velocity": 80,
      "chip": "ym2612"
    },
    {
      "channel": 5,
      "note": 56,
      "start": 7.1445,
      "duration": 0.1506,
      "velocity": 127,
      "chip": "ym2612"
    },
    {
      "channel": 3,
      "note": 87,
      "start": 7.3085,
      "duration": 0.1522,
      "velocity": 91,
      "chip": "ym2612"
    },
    {
      "channel": 4,
      "note": 51,
      "start": 7.3087,
      "duration": 0.1522,
      "velocity": 80,
      "chip": "ym2612"
    },
    {
      "channel": 5,
      "note": 45,
      "start": 7.3104,
      "duration": 0.1506,
      "velocity": 101,
      "chip": "ym2612"
    },
    {
      "channel": 1,
      "note": 80,
      "start": 7.4746,
      "duration": 0.443,
      "velocity": 106,
      "chip": "ym2612"
    },
    {
      "channel": 2,
      "note": 75,
      "start": 7.4748,
      "duration": 0.4429,
      "velocity": 106,
      "chip": "ym2612"
    },
    {
      "channel": 3,
      "note": 92,
      "start": 7.475,
      "duration": 0.1519,
      "velocity": 91,
      "chip": "ym2612"
    },
    {
      "channel": 4,
      "note": 49,
      "start": 7.4752,
      "duration": 0.1519,
      "velocity": 80,
      "chip": "ym2612"
    },
    {
      "channel": 5,
      "note": 45,
      "start": 7.4753,
      "duration": 0.1519,
      "velocity": 101,
      "chip": "ym2612"
    },
    {
      "channel": 3,
      "note": 96,
      "start": 7.6408,
      "duration": 0.1522,
      "velocity": 91,
      "chip": "ym2612"
    },
    {
      "channel": 4,
      "note": 51,
      "start": 7.641,
      "duration": 0.1522,
      "velocity": 80,
      "chip": "ym2612"
    },
    {
      "channel": 5,
      "note": 68,
      "start": 7.6426,
      "duration": 0.1506,
      "velocity": 127,
      "chip": "ym2612"
    },
    {
      "channel": 3,
      "note": 87,
      "start": 7.8069,
      "duration": 0.1522,
      "velocity": 91,
      "chip": "ym2612"
    },
    {
      "channel": 4,
      "note": 49,
      "start": 7.8071,
      "duration": 0.1522,
      "velocity": 80,
      "chip": "ym2612"
    },
    {
      "channel": 5,
      "note": 56,
      "start": 7.8088,
      "duration": 0.1506,
      "velocity": 127,
      "chip": "ym2612"
    },
    {
      "channel": 3,
      "note": 94,
      "start": 7.973,
      "duration": 0.1523,
      "velocity": 91,
      "chip": "ym2612"
    },
    {
      "channel": 4,
      "note": 51,
      "start": 7.9732,
      "duration": 0.1522,
      "velocity": 80,
      "chip": "ym2612"
    },
    {
      "channel": 5,
      "note": 45,
      "start": 7.9749,
      "duration": 0.1507,
      "velocity": 101,
      "chip": "ym2612"
    },
    {
      "channel": 3,
      "note": 85,
      "start": 8.1392,
      "duration": 0.1522,
      "velocity": 91,
      "chip": "ym2612"
    },
    {
      "channel": 4,
      "note": 49,
      "start": 8.1394,
      "duration": 0.1522,
      "velocity": 80,
      "chip": "ym2612"
    },
    {
      "channel": 5,
      "note": 56,
      "start": 8.141,
      "duration": 0.1507,
      "velocity": 127,
      "chip": "ym2612"
    },
    {
      "channel": 3,
      "note": 90,
      "start": 8.3053,
      "duration": 0.1522,
      "velocity": 91,
      "chip": "ym2612"
    },
    {
      "channel": 4,
      "note": 51,
      "start": 8.3055,
      "duration": 0.1522,
      "velocity": 80,
      "chip": "ym2612"
    },
    {
      "channel": 5,
      "note": 68,
      "start": 8.3071,
      "duration": 0.1506,
      "velocity": 127,
      "chip": "ym2612"
    },
    {
      "channel": 1,
      "note": 78,
      "start": 8.4715,
      "duration": 0.4429,
      "velocity": 106,
      "chip": "ym2612"
    },
    {
      "channel": 2,
      "note": 73,
      "start": 8.4716,
      "duration": 0.4429,
      "velocity": 106,
      "chip": "ym2612"
    },
    {
      "channel": 3,
      "note": 94,
      "start": 8.4718,
      "duration": 0.1518,
      "velocity": 91,
      "chip": "ym2612"
    },
    {
      "channel": 4,
      "note": 54,
      "start": 8.472,
      "duration": 0.2901,
      "velocity": 80,
      "chip": "ym2612"
    },
    {
      "channel": 5,
      "note": 56,
      "start": 8.4737,
      "duration": 0.1501,
      "velocity": 127,
      "chip": "ym2612"
    },
    {
      "channel": 3,
      "note": 85,
      "start": 8.6377,
      "duration": 0.1521,
      "velocity": 91,
      "chip": "ym2612"
    },
    {
      "channel": 5,
      "note": 45,
      "start": 8.6394,
      "duration": 0.1506,
      "velocity": 101,
      "chip": "ym2612"
    },
    {
      "channel": 3,
      "note": 90,
      "start": 8.8041,
      "duration": 0.1518,
      "velocity": 91,
      "chip": "ym2612"
    },
    {
      "channel": 4,
      "note": 49,
      "start": 8.8043,
      "duration": 0.1518,
      "velocity": 80,
      "chip": "ym2612"
    },
    {
      "channel": 5,
      "note": 45,
      "start": 8.8044,
      "duration": 0.1518,
      "velocity": 101,
      "chip": "ym2612"
    },
    {
      "channel": 3,
      "note": 94,
      "start": 8.9698,
      "duration": 0.1522,
      "velocity": 91,
      "chip": "ym2612"
    },
    {
      "channel": 4,
      "note": 51,
      "start": 8.97,
      "duration": 0.1522,
      "velocity": 80,
      "chip": "ym2612"
    },
    {
      "channel": 5,
      "note": 68,
      "start": 8.972,
      "duration": 0.1502,
      "velocity": 127,
      "chip": "ym2612"
    },
    {
      "channel": 3,
      "note": 85,
      "start": 9.1359,
      "duration": 0.1522,
      "velocity": 91,
      "chip": "ym2612"
    },
    {
      "channel": 4,
      "note": 49,
      "start": 9.1361,
      "duration": 0.1522,
      "velocity": 80,
      "chip": "ym2612"
    },
    {
      "channel": 5,
      "note": 56,
      "start": 9.1382,
      "duration": 0.1502,
      "velocity": 127,
      "chip": "ym2612"
    },
    {
      "channel": 3,
      "note": 96,
      "start": 9.302,
      "duration": 0.1523,
      "velocity": 91,
      "chip": "ym2612"
    },
    {
      "channel": 4,
      "note": 51,
      "start": 9.3022,
      "duration": 0.1522,
      "velocity": 80,
      "chip": "ym2612"
    },
    {
      "channel": 5,
      "note": 45,
      "start": 9.3043,
      "duration": 0.1503,
      "velocity": 101,
      "chip": "ym2612"
    },
    {
      "channel": 1,
      "note": 80,
      "start": 9.4682,
      "duration": 0.4429,
      "velocity": 106,
      "chip": "ym2612"
    },
    {
      "channel": 2,
      "note": 75,
      "start": 9.4684,
      "duration": 0.4428,
      "velocity": 106,
      "chip": "ym2612"
    },
    {
      "channel": 3,
      "note": 87,
      "start": 9.4686,
      "duration": 0.1524,
      "velocity": 91,
      "chip": "ym2612"
    },
    {
      "channel": 4,
      "note": 56,
      "start": 9.4688,
      "duration": 0.2901,
      "velocity": 80,
      "chip": "ym2612"
    },
    {
      "channel": 5,
      "note": 56,
      "start": 9.4708,
      "duration": 0.1503,
      "velocity": 127,
      "chip": "ym2612"
    },
    {
      "channel": 3,
      "note": 92,
      "start": 9.6343,
      "duration": 0.1523,
      "velocity": 91,
      "chip": "ym2612"
    },
    {
      "channel": 5,
      "note": 68,
      "start": 9.6359,
      "duration": 0.1508,
      "velocity": 127,
      "chip": "ym2612"
    },
    {
      "channel": 3,
      "note": 96,
      "start": 9.8005,
      "duration": 0.1522,
      "velocity": 91,
      "chip": "ym2612"
    },
    {
      "channel": 4,
      "note": 49,
      "start": 9.8006,
      "duration": 0.1522,
      "velocity": 80,
      "chip": "ym2612"
    },
    {
      "channel": 5,
      "note": 56,
      "start": 9.8022,
      "duration": 0.1507,
      "velocity": 127,
      "chip": "ym2612"
    },
    {
      "channel": 1,
      "note": 80,
      "start": 9.9666,
      "duration": 0.1522,
      "velocity": 106,
      "chip": "ym2612"
    },
    {
      "channel": 2,
      "note": 75,
      "start": 9.9667,
      "duration": 0.1522,
      "velocity": 106,
      "chip": "ym2612"
    },
    {
      "channel": 3,
      "note": 87,
      "start": 9.9669,
      "duration": 0.1522,
      "velocity": 91,
      "chip": "ym2612"
    },
    {
      "channel": 4,
      "note": 51,
      "start": 9.9671,
      "duration": 0.1521,
      "velocity": 80,
      "chip": "ym2612"
    },
    {
      "channel": 5,
      "note": 45,
      "start": 9.9686,
      "duration": 0.1506,
      "velocity": 101,
      "chip": "ym2612"
    },
    {
      "channel": 3,
      "note": 92,
      "start": 10.1327,
      "duration": 0.1522,
      "velocity": 91,
      "chip": "ym2612"
    },
    {
      "channel": 4,
      "note": 49,
      "start": 10.1329,
      "duration": 0.1522,
      "velocity": 80,
      "chip": "ym2612"
    },
    {
      "channel": 5,
      "note": 45,
      "start": 10.133,
      "duration": 0.1522,
      "velocity": 101,
      "chip": "ym2612"
    },
    {
      "channel": 1,
      "note": 80,
      "start": 10.2988,
      "duration": 0.1522,
      "velocity": 106,
      "chip": "ym2612"
    },
    {
      "channel": 2,
      "note": 75,
      "start": 10.2989,
      "duration": 0.1522,
      "velocity": 106,
      "chip": "ym2612"
    },
    {
      "channel": 3,
      "note": 96,
      "start": 10.2991,
      "duration": 0.1522,
      "velocity": 91,
      "chip": "ym2612"
    },
    {
      "channel": 4,
      "note": 51,
      "start": 10.2993,
      "duration": 0.1521,
      "velocity": 80,
      "chip": "ym2612"
    },
    {
      "channel": 5,
      "note": 68,
      "start": 10.301,
      "duration": 0.1506,
      "velocity": 127,
      "chip": "ym2612"
    },
    {
      "channel": 3,
      "note": 87,
      "start": 10.465,
      "duration": 0.1522,
      "velocity": 91,
      "chip": "ym2612"
    },
    {
      "channel": 4,
      "note": 49,
      "start": 10.4651,
      "duration": 0.1522,
      "velocity": 80,
      "chip": "ym2612"
    },
    {
      "channel": 5,
      "note": 56,
      "start": 10.4668,
      "duration": 0.1506,
      "velocity": 127,
      "chip": "ym2612"
    },
    {
      "channel": 3,
      "note": 94,
      "start": 10.6311,
      "duration": 0.1522,
      "velocity": 91,
      "chip": "ym2612"
    },
    {
      "channel": 4,
      "note": 51,
      "start": 10.6313,
      "duration": 0.1521,
      "velocity": 80,
      "chip": "ym2612"
    },
    {
      "channel": 5,
      "note": 45,
      "start": 10.6329,
      "duration": 0.1506,
      "velocity": 101,
      "chip": "ym2612"
    },
    {
      "channel": 3,
      "note": 85,
      "start": 10.7972,
      "duration": 0.1522,
      "velocity": 91,
      "chip": "ym2612"
    },
    {
      "channel": 4,
      "note": 49,
      "start": 10.7974,
      "duration": 0.1521,
      "velocity": 80,
      "chip": "ym2612"
    },
    {
      "channel": 5,
      "note": 56,
      "start": 10.799,
      "duration": 0.1506,
      "velocity": 127,
      "chip": "ym2612"
    },
    {
      "channel": 3,
      "note": 90,
      "start": 10.9634,
      "duration": 0.1522,
      "velocity": 91,
      "chip": "ym2612"
    },
    {
      "channel": 4,
      "note": 51,
      "start": 10.9636,
      "duration": 0.1521,
      "velocity": 80,
      "chip": "ym2612"
    },
    {
      "channel": 5,
      "note": 68,
      "start": 10.9651,
      "duration": 0.1506,
      "velocity": 127,
      "chip": "ym2612"
    },
    {
      "channel": 1,
      "note": 78,
      "start": 11.1295,
      "duration": 0.4429,
      "velocity": 106,
      "chip": "ym2612"
    },
    {
      "channel": 2,
      "note": 73,
      "start": 11.1297,
      "duration": 0.4429,
      "velocity": 106,
      "chip": "ym2612"
    },
    {
      "channel": 3,
      "note": 94,
      "start": 11.1298,
      "duration": 0.1518,
      "velocity": 91,
      "chip": "ym2612"
    },
    {
      "channel": 4,
      "note": 54,
      "start": 11.13,
      "duration": 0.2901,
      "velocity": 80,
      "chip": "ym2612"
    },
    {
      "channel": 5,
      "note": 56,
      "start": 11.1317,
      "duration": 0.1501,
      "velocity": 127,
      "chip": "ym2612"
    },
    {
      "channel": 3,
      "note": 85,
      "start": 11.2956,
      "duration": 0.1522,
      "velocity": 91,
      "chip": "ym2612"
    },
    {
      "channel": 5,
      "note": 45,
      "start": 11.2973,
      "duration": 0.1507,
      "velocity": 101,
      "chip": "ym2612"
    },
    {
      "channel": 3,
      "note": 90,
      "start": 11.4617,
      "duration": 0.1522,
      "velocity": 91,
      "chip": "ym2612"
    },
    {
      "channel": 4,
      "note": 49,
      "start": 11.4619,
      "duration": 0.1522,
      "velocity": 80,
      "chip": "ym2612"
    },
    {
      "channel": 5,
      "note": 45,
      "start": 11.462,
      "duration": 0.1522,
      "velocity": 101,
      "chip": "ym2612"
    },
    {
      "channel": 3,
      "note": 94,
      "start": 11.6278,
      "duration": 0.1523,
      "velocity": 91,
      "chip": "ym2612"
    },
    {
      "channel": 4,
      "note": 51,
      "start": 11.628,
      "duration": 0.1522,
      "velocity": 80,
      "chip": "ym2612"
    },
    {
      "channel": 5,
      "note": 68,
      "start": 11.6297,
      "duration": 0.1507,
      "velocity": 127,
      "chip": "ym2612"
    },
    {
      "channel": 1,
      "note": 80,
      "start": 11.794,
      "duration": 0.1522,
      "velocity": 106,
      "chip": "ym2612"
    },
    {
      "channel": 2,
      "note": 75,
      "start": 11.7942,
      "duration": 0.1521,
      "velocity": 106,
      "chip": "ym2612"
    },
    {
      "channel": 3,
      "note": 85,
      "start": 11.7944,
      "duration": 0.152,
      "velocity": 91,
      "chip": "ym2612"
    },
    {
      "channel": 4,
      "note": 49,
      "start": 11.7946,
      "duration": 0.152,
      "velocity": 80,
      "chip": "ym2612"
    },
    {
      "channel": 5,
      "note": 56,
      "start": 11.7962,
      "duration": 0.1505,
      "velocity": 127,
      "chip": "ym2612"
    },
    {
      "channel": 3,
      "note": 96,
      "start": 11.9601,
      "duration": 0.1522,
      "velocity": 91,
      "chip": "ym2612"
    },
    {
      "channel": 4,
      "note": 51,
      "start": 11.9603,
      "duration": 0.1522,
      "velocity": 80,
      "chip": "ym2612"
    },
    {
      "channel": 5,
      "note": 45,
      "start": 11.962,
      "duration": 0.1506,
      "velocity": 101,
      "chip": "ym2612"
    },
    {
      "channel": 1,
      "note": 80,
      "start": 12.1261,
      "duration": 0.1523,
      "velocity": 106,
      "chip": "ym2612"
    },
    {
      "channel": 2,
      "note": 75,
      "start": 12.1263,
      "duration": 0.1523,
      "velocity": 106,
      "chip": "ym2612"
    },
    {
      "channel": 3,
      "note": 87,
      "start": 12.1265,
      "duration": 0.1522,
      "velocity": 91,
      "chip": "ym2612"
    },
    {
      "channel": 4,
      "note": 56,
      "start": 12.1267,
      "duration": 0.2902,
      "velocity": 80,
      "chip": "ym2612"
    },
    {
      "channel": 5,
      "note": 56,
      "start": 12.1283,
      "duration": 0.1505,
      "velocity": 127,
      "chip": "ym2612"
    },
    {
      "channel": 3,
      "note": 92,
      "start": 12.2923,
      "duration": 0.1523,
      "velocity": 91,
      "chip": "ym2612"
    },
    {
      "channel": 5,
      "note": 68,
      "start": 12.294,
      "duration": 0.1508,
      "velocity": 127,
      "chip": "ym2612"
    },
    {
      "channel": 1,
      "note": 80,
      "start": 12.4584,
      "duration": 0.1523,
      "velocity": 106,
      "chip": "ym2612"
    },
    {
      "channel": 2,
      "note": 75,
      "start": 12.4585,
      "duration": 0.1523,
      "velocity": 106,
      "chip": "ym2612"
    },
    {
      "channel": 3,
      "note": 96,
      "start": 12.4587,
      "duration": 0.1522,
      "velocity": 91,
      "chip": "ym2612"
    },
    {
      "channel": 4,
      "note": 49,
      "start": 12.4589,
      "duration": 0.1522,
      "velocity": 80,
      "chip": "ym2612"
    },
    {
      "channel": 5,
      "note": 56,
      "start": 12.4606,
      "duration": 0.1506,
      "velocity": 127,
      "chip": "ym2612"
    },
    {
      "channel": 3,
      "note": 87,
      "start": 12.6246,
      "duration": 0.1522,
      "velocity": 91,
      "chip": "ym2612"
    },
    {
      "channel": 4,
      "note": 51,
      "start": 12.6248,
      "duration": 0.1522,
      "velocity": 80,
      "chip": "ym2612"
    },
    {
      "channel": 5,
      "note": 45,
      "start": 12.6265,
      "duration": 0.1506,
      "velocity": 101,
      "chip": "ym2612"
    },
    {
      "channel": 1,
      "note": 80,
      "start": 12.7907,
      "duration": 0.443,
      "velocity": 106,
      "chip": "ym2612"
    },
    {
      "channel": 2,
      "note": 75,
      "start": 12.7908,
      "duration": 0.443,
      "velocity": 106,
      "chip": "ym2612"
    },
    {
      "channel": 3,
      "note": 92,
      "start": 12.791,
      "duration": 0.152,
      "velocity": 91,
      "chip": "ym2612"
    },
    {
      "channel": 4,
      "note": 49,
      "start": 12.7912,
      "duration": 0.1519,
      "velocity": 80,
      "chip": "ym2612"
    },
    {
      "channel": 5,
      "note": 45,
      "start": 12.7913,
      "duration": 0.1519,
      "velocity": 101,
      "chip": "ym2612"
    },
    {
      "channel": 3,
      "note": 96,
      "start": 12.9569,
      "duration": 0.1522,
      "velocity": 91,
      "chip": "ym2612"
    },
    {
      "channel": 4,
      "note": 51,
      "start": 12.9571,
      "duration": 0.1522,
      "velocity": 80,
      "chip": "ym2612"
    },
    {
      "channel": 5,
      "note": 68,
      "start": 12.9587,
      "duration": 0.1506,
      "velocity": 127,
      "chip": "ym2612"
    },
    {
      "channel": 3,
      "note": 87,
      "start": 13.123,
      "duration": 0.1522,
      "velocity": 91,
      "chip": "ym2612"
    },
    {
      "channel": 4,
      "note": 49,
      "start": 13.1232,
      "duration": 0.1522,
      "velocity": 80,
      "chip": "ym2612"
    },
    {
      "channel": 5,
      "note": 56,
      "start": 13.1248,
      "duration": 0.1507,
      "velocity": 127,
      "chip": "ym2612"
    },
    {
      "channel": 3,
      "note": 97,
      "start": 13.2891,
      "duration": 0.1523,
      "velocity": 91,
      "chip": "ym2612"
    },
    {
      "channel": 4,
      "note": 54,
      "start": 13.2893,
      "duration": 0.1522,
      "velocity": 80,
      "chip": "ym2612"
    },
    {
      "channel": 5,
      "note": 45,
      "start": 13.2909,
      "duration": 0.1507,
      "velocity": 101,
      "chip": "ym2612"
    },
    {
      "channel": 3,
      "note": 88,
      "start": 13.4552,
      "duration": 0.1522,
      "velocity": 91,
      "chip": "ym2612"
    },
    {
      "channel": 4,
      "note": 52,
      "start": 13.4554,
      "duration": 0.1522,
      "velocity": 80,
      "chip": "ym2612"
    },
    {
      "channel": 5,
      "note": 56,
      "start": 13.4571,
      "duration": 0.1506,
      "velocity": 127,
      "chip": "ym2612"
    },
    {
      "channel": 3,
      "note": 93,
      "start": 13.6214,
      "duration": 0.1522,
      "velocity": 91,
      "chip": "ym2612"
    },
    {
      "channel": 4,
      "note": 54,
      "start": 13.6216,
      "duration": 0.1522,
      "velocity": 80,
      "chip": "ym2612"
    },
    {
      "channel": 5,
      "note": 68,
      "start": 13.6232,
      "duration": 0.1507,
      "velocity": 127,
      "chip": "ym2612"
    },
    {
      "channel": 1,
      "note": 81,
      "start": 13.7877,
      "duration": 0.4427,
      "velocity": 106,
      "chip": "ym2612"
    },
    {
      "channel": 2,
      "note": 76,
      "start": 13.7879,
      "duration": 0.4426,
      "velocity": 106,
      "chip": "ym2612"
    },
    {
      "channel": 3,
      "note": 97,
      "start": 13.7881,
      "duration": 0.1517,
      "velocity": 91,
      "chip": "ym2612"
    },
    {
      "channel": 4,
      "note": 57,
      "start": 13.7883,
      "duration": 0.2899,
      "velocity": 80,
      "chip": "ym2612"
    },
    {
      "channel": 5,
      "note": 56,
      "start": 13.79,
      "duration": 0.1499,
      "velocity": 127,
      "chip": "ym2612"
    },
    {
      "channel": 3,
      "note": 88,
      "start": 13.954,
      "duration": 0.1518,
      "velocity": 91,
      "chip": "ym2612"
    },
    {
      "channel": 5,
      "note": 45,
      "start": 13.9557,
      "duration": 0.1502,
      "velocity": 101,
      "chip": "ym2612"
    },
    {
      "channel": 3,
      "note": 93,
      "start": 14.1198,
      "duration": 0.1522,
      "velocity": 91,
      "chip": "ym2612"
    },
    {
      "channel": 4,
      "note": 52,
      "start": 14.12,
      "duration": 0.1522,
      "velocity": 80,
      "chip": "ym2612"
    },
    {
      "channel": 5,
      "note": 45,
      "start": 14.12,
      "duration": 0.1522,
      "velocity": 101,
      "chip": "ym2612"
    },
    {
      "channel": 3,
      "note": 97,
      "start": 14.2859,
      "duration": 0.1522,
      "velocity": 91,
      "chip": "ym2612"
    },
    {
      "channel": 4,
      "note": 54,
      "start": 14.2861,
      "duration": 0.1522,
      "velocity": 80,
      "chip": "ym2612"
    },
    {
      "channel": 5,
      "note": 68,
      "start": 14.2881,
      "duration": 0.1502,
      "velocity": 127,
      "chip": "ym2612"
    },
    {
      "channel": 3,
      "note": 88,
      "start": 14.452,
      "duration": 0.1523,
      "velocity": 91,
      "chip": "ym2612"
    },
    {
      "channel": 4,
      "note": 52,
      "start": 14.4522,
      "duration": 0.1522,
      "velocity": 80,
      "chip": "ym2612"
    },
    {
      "channel": 5,
      "note": 56,
      "start": 14.4543,
      "duration": 0.1503,
      "velocity": 127,
      "chip": "ym2612"
    },
    {
      "channel": 3,
      "note": 99,
      "start": 14.6182,
      "duration": 0.1525,
      "velocity": 91,
      "chip": "ym2612"
    },
    {
      "channel": 4,
      "note": 54,
      "start": 14.6184,
      "duration": 0.1525,
      "velocity": 80,
      "chip": "ym2612"
    },
    {
      "channel": 5,
      "note": 45,
      "start": 14.62,
      "duration": 0.151,
      "velocity": 101,
      "chip": "ym2612"
    },
    {
      "channel": 1,
      "note": 83,
      "start": 14.7843,
      "duration": 0.4429,
      "velocity": 106,
      "chip": "ym2612"
    },
    {
      "channel": 2,
      "note": 78,
      "start": 14.7845,
      "duration": 0.4428,
      "velocity": 106,
      "chip": "ym2612"
    },
    {
      "channel": 3,
      "note": 90,
      "start": 14.7847,
      "duration": 0.1519,
      "velocity": 91,
      "chip": "ym2612"
    },
    {
      "channel": 4,
      "note": 59,
      "start": 14.7849,
      "duration": 0.2901,
      "velocity": 80,
      "chip": "ym2612"
    },
    {
      "channel": 5,
      "note": 56,
      "start": 14.7865,
      "duration": 0.1501,
      "velocity": 127,
      "chip": "ym2612"
    },
    {
      "channel": 3,
      "note": 95,
      "start": 14.9504,
      "duration": 0.1522,
      "velocity": 91,
      "chip": "ym2612"
    },
    {
      "channel": 5,
      "note": 68,
      "start": 14.952,
      "duration": 0.1507,
      "velocity": 127,
      "chip": "ym2612"
    },
    {
      "channel": 3,
      "note": 99,
      "start": 15.1166,
      "duration": 0.1522,
      "velocity": 91,
      "chip": "ym2612"
    },
    {
      "channel": 4,
      "note": 52,
      "start": 15.1167,
      "duration": 0.1521,
      "velocity": 80,
      "chip": "ym2612"
    },
    {
      "channel": 5,
      "note": 56,
      "start": 15.1184,
      "duration": 0.1506,
      "velocity": 127,
      "chip": "ym2612"
    },
    {
      "channel": 1,
      "note": 83,
      "start": 15.2826,
      "duration": 0.1522,
      "velocity": 106,
      "chip": "ym2612"
    },
    {
      "channel": 2,
      "note": 78,
      "start": 15.2827,
      "duration": 0.1522,
      "velocity": 106,
      "chip": "ym2612"
    },
    {
      "channel": 3,
      "note": 90,
      "start": 15.2829,
      "duration": 0.1522,
      "velocity": 91,
      "chip": "ym2612"
    },
    {
      "channel": 4,
      "note": 54,
      "start": 15.2831,
      "duration": 0.1521,
      "velocity": 80,
      "chip": "ym2612"
    },
    {
      "channel": 5,
      "note": 45,
      "start": 15.2847,
      "duration": 0.1506,
      "velocity": 101,
      "chip": "ym2612"
    },
    {
      "channel": 3,
      "note": 95,
      "start": 15.4487,
      "duration": 0.1522,
      "velocity": 91,
      "chip": "ym2612"
    },
    {
      "channel": 4,
      "note": 52,
      "start": 15.4489,
      "duration": 0.1522,
      "velocity": 80,
      "chip": "ym2612"
    },
    {
      "channel": 5,
      "note": 45,
      "start": 15.449,
      "duration": 0.1522,
      "velocity": 101,
      "chip": "ym2612"
    },
    {
      "channel": 1,
      "note": 83,
      "start": 15.6148,
      "duration": 0.1522,
      "velocity": 106,
      "chip": "ym2612"
    },
    {
      "channel": 2,
      "note": 78,
      "start": 15.615,
      "duration": 0.1522,
      "velocity": 106,
      "chip": "ym2612"
    },
    {
      "channel": 3,
      "note": 99,
      "start": 15.6151,
      "duration": 0.1522,
      "velocity": 91,
      "chip": "ym2612"
    },
    {
      "channel": 4,
      "note": 54,
      "start": 15.6153,
      "duration": 0.1521,
      "velocity": 80,
      "chip": "ym2612"
    },
    {
      "channel": 5,
      "note": 68,
      "start": 15.617,
      "duration": 0.1506,
      "velocity": 127,
      "chip": "ym2612"
    },
    {
      "channel": 3,
      "note": 90,
      "start": 15.781,
      "duration": 0.1522,
      "velocity": 91,
      "chip": "ym2612"
    },
    {
      "channel": 4,
      "note": 52,
      "start": 15.7812,
      "duration": 0.1522,
      "velocity": 80,
      "chip": "ym2612"
    },
    {
      "channel": 5,
      "note": 56,
      "start": 15.7829,
      "duration": 0.1506,
      "velocity": 127,
      "chip": "ym2612"
    },
    {
      "channel": 3,
      "note": 97,
      "start": 15.9471,
      "duration": 0.1522,
      "velocity": 91,
      "chip": "ym2612"
    },
    {
      "channel": 4,
      "note": 54,
      "start": 15.9473,
      "duration": 0.1521,
      "velocity": 80,
      "chip": "ym2612"
    },
    {
      "channel": 5,
      "note": 45,
      "start": 15.949,
      "duration": 0.1506,
      "velocity": 101,
      "chip": "ym2612"
    },
    {
      "channel": 3,
      "note": 88,
      "start": 16.1133,
      "duration": 0.1522,
      "velocity": 91,
      "chip": "ym2612"
    },
    {
      "channel": 4,
      "note": 52,
      "start": 16.1135,
      "duration": 0.1521,
      "velocity": 80,
      "chip": "ym2612"
    },
    {
      "channel": 5,
      "note": 56,
      "start": 16.1151,
      "duration": 0.1506,
      "velocity": 127,
      "chip": "ym2612"
    },
    {
      "channel": 3,
      "note": 93,
      "start": 16.2794,
      "duration": 0.1522,
      "velocity": 91,
      "chip": "ym2612"
    },
    {
      "channel": 4,
      "note": 54,
      "start": 16.2796,
      "duration": 0.1522,
      "velocity": 80,
      "chip": "ym2612"
    },
    {
      "channel": 5,
      "note": 68,
      "start": 16.2812,
      "duration": 0.1506,
      "velocity": 127,
      "chip": "ym2612"
    },
    {
      "channel": 1,
      "note": 81,
      "start": 16.4455,
      "duration": 0.4429,
      "velocity": 106,
      "chip": "ym2612"
    },
    {
      "channel": 2,
      "note": 76,
      "start": 16.4457,
      "duration": 0.4428,
      "velocity": 106,
      "chip": "ym2612"
    },
    {
      "channel": 3,
      "note": 97,
      "start": 16.4459,
      "duration": 0.1518,
      "velocity": 91,
      "chip": "ym2612"
    },
    {
      "channel": 4,
      "note": 57,
      "start": 16.4461,
      "duration": 0.2901,
      "velocity": 80,
      "chip": "ym2612"
    },
    {
      "channel": 5,
      "note": 56,
      "start": 16.4477,
      "duration": 0.1502,
      "velocity": 127,
      "chip": "ym2612"
    },
    {
      "channel": 3,
      "note": 88,
      "start": 16.6117,
      "duration": 0.1522,
      "velocity": 91,
      "chip": "ym2612"
    },
    {
      "channel": 5,
      "note": 45,
      "start": 16.6134,
      "duration": 0.1507,
      "velocity": 101,
      "chip": "ym2612"
    },
    {
      "channel": 3,
      "note": 93,
      "start": 16.7778,
      "duration": 0.1522,
      "velocity": 91,
      "chip": "ym2612"
    },
    {
      "channel": 4,
      "note": 52,
      "start": 16.778,
      "duration": 0.1522,
      "velocity": 80,
      "chip": "ym2612"
    },
    {
      "channel": 5,
      "note": 45,
      "start": 16.7781,
      "duration": 0.1522,
      "velocity": 101,
      "chip": "ym2612"
    },
    {
      "channel": 3,
      "note": 97,
      "start": 16.944,
      "duration": 0.1522,
      "velocity": 91,
      "chip": "ym2612"
    },
    {
      "channel": 4,
      "note": 54,
      "start": 16.9441,
      "duration": 0.1521,
      "velocity": 80,
      "chip": "ym2612"
    },
    {
      "channel": 5,
      "note": 68,
      "start": 16.9457,
      "duration": 0.1506,
      "velocity": 127,
      "chip": "ym2612"
    },
    {
      "channel": 1,
      "note": 83,
      "start": 17.1101,
      "duration": 0.1522,
      "velocity": 106,
      "chip": "ym2612"
    },
    {
      "channel": 2,
      "note": 78,
      "start": 17.1102,
      "duration": 0.1521,
      "velocity": 106,
      "chip": "ym2612"
    },
    {
      "channel": 3,
      "note": 88,
      "start": 17.1104,
      "duration": 0.152,
      "velocity": 91,
      "chip": "ym2612"
    },
    {
      "channel": 4,
      "note": 52,
      "start": 17.1106,
      "duration": 0.152,
      "velocity": 80,
      "chip": "ym2612"
    },
    {
      "channel": 5,
      "note": 56,
      "start": 17.1123,
      "duration": 0.1504,
      "velocity": 127,
      "chip": "ym2612"
    },
    {
      "channel": 3,
      "note": 99,
      "start": 17.2761,
      "duration": 0.1522,
      "velocity": 91,
      "chip": "ym2612"
    },
    {
      "channel": 4,
      "note": 54,
      "start": 17.2763,
      "duration": 0.1522,
      "velocity": 80,
      "chip": "ym2612"
    },
    {
      "channel": 5,
      "note": 45,
      "start": 17.278,
      "duration": 0.1506,
      "velocity": 101,
      "chip": "ym2612"
    },
    {
      "channel": 1,
      "note": 83,
      "start": 17.4422,
      "duration": 0.1523,
      "velocity": 106,
      "chip": "ym2612"
    },
    {
      "channel": 2,
      "note": 78,
      "start": 17.4424,
      "duration": 0.1523,
      "velocity": 106,
      "chip": "ym2612"
    },
    {
      "channel": 3,
      "note": 90,
      "start": 17.4426,
      "duration": 0.1522,
      "velocity": 91,
      "chip": "ym2612"
    },
    {
      "channel": 4,
      "note": 59,
      "start": 17.4428,
      "duration": 0.2902,
      "velocity": 80,
      "chip": "ym2612"
    },
    {
      "channel": 5,
      "note": 56,
      "start": 17.4444,
      "duration": 0.1505,
      "velocity": 127,
      "chip": "ym2612"
    },
    {
      "channel": 3,
      "note": 95,
      "start": 17.6084,
      "duration": 0.1522,
      "velocity": 91,
      "chip": "ym2612"
    },
    {
      "channel": 5,
      "note": 68,
      "start": 17.6101,
      "duration": 0.1507,
      "velocity": 127,
      "chip": "ym2612"
    },
    {
      "channel": 1,
      "note": 83,
      "start": 17.7745,
      "duration": 0.1522,
      "velocity": 106,
      "chip": "ym2612"
    },
    {
      "channel": 2,
      "note": 78,
      "start": 17.7746,
      "duration": 0.1522,
      "velocity": 106,
      "chip": "ym2612"
    },
    {
      "channel": 3,
      "note": 99,
      "start": 17.7748,
      "duration": 0.1522,
      "velocity": 91,
      "chip": "ym2612"
    },
    {
      "channel": 4,
      "note": 52,
      "start": 17.775,
      "duration": 0.1521,
      "velocity": 80,
      "chip": "ym2612"
    },
    {
      "channel": 5,
      "note": 56,
      "start": 17.7767,
      "duration": 0.1506,
      "velocity": 127,
      "chip": "ym2612"
    },
    {
      "channel": 3,
      "note": 90,
      "start": 17.9407,
      "duration": 0.1522,
      "velocity": 91,
      "chip": "ym2612"
    },
    {
      "channel": 4,
      "note": 54,
      "start": 17.9408,
      "duration": 0.1522,
      "velocity": 80,
      "chip": "ym2612"
    },
    {
      "channel": 5,
      "note": 45,
      "start": 17.9425,
      "duration": 0.1506,
      "velocity": 101,
      "chip": "ym2612"
    },
    {
      "channel": 1,
      "note": 83,
      "start": 18.1068,
      "duration": 0.443,
      "velocity": 106,
      "chip": "ym2612"
    },
    {
      "channel": 2,
      "note": 78,
      "start": 18.1069,
      "duration": 0.443,
      "velocity": 106,
      "chip": "ym2612"
    },
    {
      "channel": 3,
      "note": 95,
      "start": 18.1071,
      "duration": 0.152,
      "velocity": 91,
      "chip": "ym2612"
    },
    {
      "channel": 4,
      "note": 52,
      "start": 18.1073,
      "duration": 0.1519,
      "velocity": 80,
      "chip": "ym2612"
    },
    {
      "channel": 5,
      "note": 45,
      "start": 18.1074,
      "duration": 0.1519,
      "velocity": 101,
      "chip": "ym2612"
    },
    {
      "channel": 3,
      "note": 99,
      "start": 18.2729,
      "duration": 0.1522,
      "velocity": 91,
      "chip": "ym2612"
    },
    {
      "channel": 4,
      "note": 54,
      "start": 18.2731,
      "duration": 0.1522,
      "velocity": 80,
      "chip": "ym2612"
    },
    {
      "channel": 5,
      "note": 68,
      "start": 18.2748,
      "duration": 0.1506,
      "velocity": 127,
      "chip": "ym2612"
    },
    {
      "channel": 3,
      "note": 90,
      "start": 18.4391,
      "duration": 0.1522,
      "velocity": 91,
      "chip": "ym2612"
    },
    {
      "channel": 4,
      "note": 52,
      "start": 18.4393,
      "duration": 0.1522,
      "velocity": 80,
      "chip": "ym2612"
    },
    {
      "channel": 5,
      "note": 56,
      "start": 18.4409,
      "duration": 0.1506,
      "velocity": 127,
      "chip": "ym2612"
    },
    {
      "channel": 3,
      "note": 97,
      "start": 18.6052,
      "duration": 0.1522,
      "velocity": 91,
      "chip": "ym2612"
    },
    {
      "channel": 4,
      "note": 54,
      "start": 18.6054,
      "duration": 0.1521,
      "velocity": 80,
      "chip": "ym2612"
    },
    {
      "channel": 5,
      "note": 45,
      "start": 18.607,
      "duration": 0.1506,
      "velocity": 101,
      "chip": "ym2612"
    },
    {
      "channel": 3,
      "note": 88,
      "start": 18.7713,
      "duration": 0.1522,
      "velocity": 91,
      "chip": "ym2612"
    },
    {
      "channel": 4,
      "note": 52,
      "start": 18.7715,
      "duration": 0.1522,
      "velocity": 80,
      "chip": "ym2612"
    },
    {
      "channel": 5,
      "note": 56,
      "start": 18.7732,
      "duration": 0.1506,
      "velocity": 127,
      "chip": "ym2612"
    },
    {
      "channel": 3,
      "note": 93,
      "start": 18.9377,
      "duration": 0.152,
      "velocity": 91,
      "chip": "ym2612"
    },
    {
      "channel": 4,
      "note": 54,
      "start": 18.9379,
      "duration": 0.1519,
      "velocity": 80,
      "chip": "ym2612"
    },
    {
      "channel": 5,
      "note": 68,
      "start": 18.9396,
      "duration": 0.1504,
      "velocity": 127,
      "chip": "ym2612"
    },
    {
      "channel": 1,
      "note": 81,
      "start": 19.1036,
      "duration": 0.4429,
      "velocity": 106,
      "chip": "ym2612"
    },
    {
      "channel": 2,
      "note": 76,
      "start": 19.1041,
      "duration": 0.4425,
      "velocity": 106,
      "chip": "ym2612"
    },
    {
      "channel": 3,
      "note": 97,
      "start": 19.1043,
      "duration": 0.1515,
      "velocity": 91,
      "chip": "ym2612"
    },
    {
      "channel": 4,
      "note": 57,
      "start": 19.1045,
      "duration": 0.2897,
      "velocity": 80,
      "chip": "ym2612"
    },
    {
      "channel": 5,
      "note": 56,
      "start": 19.1062,
      "duration": 0.1497,
      "velocity": 127,
      "chip": "ym2612"
    },
    {
      "channel": 3,
      "note": 88,
      "start": 19.2697,
      "duration": 0.1522,
      "velocity": 91,
      "chip": "ym2612"
    },
    {
      "channel": 5,
      "note": 45,
      "start": 19.2718,
      "duration": 0.1502,
      "velocity": 101,
      "chip": "ym2612"
    },
    {
      "channel": 3,
      "note": 93,
      "start": 19.4358,
      "duration": 0.1522,
      "velocity": 91,
      "chip": "ym2612"
    },
    {
      "channel": 4,
      "note": 52,
      "start": 19.436,
      "duration": 0.1522,
      "velocity": 80,
      "chip": "ym2612"
    },
    {
      "channel": 5,
      "note": 45,
      "start": 19.4361,
      "duration": 0.1522,
      "velocity": 101,
      "chip": "ym2612"
    },
    {
      "channel": 3,
      "note": 97,
      "start": 19.602,
      "duration": 0.1524,
      "velocity": 91,
      "chip": "ym2612"
    },
    {
      "channel": 4,
      "note": 54,
      "start": 19.6022,
      "duration": 0.1523,
      "velocity": 80,
      "chip": "ym2612"
    },
    {
      "channel": 5,
      "note": 68,
      "start": 19.6042,
      "duration": 0.1504,
      "velocity": 127,
      "chip": "ym2612"
    },
    {
      "channel": 3,
      "note": 88,
      "start": 19.7681,
      "duration": 0.1526,
      "velocity": 91,
      "chip": "ym2612"
    },
    {
      "channel": 4,
      "note": 52,
      "start": 19.7683,
      "duration": 0.1525,
      "velocity": 80,
      "chip": "ym2612"
    },
    {
      "channel": 5,
      "note": 56,
      "start": 19.7699,
      "duration": 0.151,
      "velocity": 127,
      "chip": "ym2612"
    },
    {
      "channel": 3,
      "note": 99,
      "start": 19.9342,
      "duration": 0.1522,
      "velocity": 91,
      "chip": "ym2612"
    },
    {
      "channel": 4,
      "note": 54,
      "start": 19.9344,
      "duration": 0.1521,
      "velocity": 80,
      "chip": "ym2612"
    },
    {
      "channel": 5,
      "note": 45,
      "start": 19.936,
      "duration": 0.1506,
      "velocity": 101,
      "chip": "ym2612"
    },
    {
      "channel": 1,
      "note": 83,
      "start": 20.1003,
      "duration": 0.4429,
      "velocity": 106,
      "chip": "ym2612"
    },
    {
      "channel": 2,
      "note": 78,
      "start": 20.1005,
      "duration": 0.4428,
      "velocity": 106,
      "chip": "ym2612"
    },
    {
      "channel": 3,
      "note": 90,
      "start": 20.1007,
      "duration": 0.1518,
      "velocity": 91,
      "chip": "ym2612"
    },
    {
      "channel": 4,
      "note": 59,
      "start": 20.1009,
      "duration": 0.2901,
      "velocity": 80,
      "chip": "ym2612"
    },
    {
      "channel": 5,
      "note": 56,
      "start": 20.1025,
      "duration": 0.1502,
      "velocity": 127,
      "chip": "ym2612"
    },
    {
      "channel": 3,
      "note": 95,
      "start": 20.2664,
      "duration": 0.1522,
      "velocity": 91,
      "chip": "ym2612"
    },
    {
      "channel": 5,
      "note": 68,
      "start": 20.2681,
      "duration": 0.1507,
      "velocity": 127,
      "chip": "ym2612"
    },
    {
      "channel": 3,
      "note": 99,
      "start": 20.4326,
      "duration": 0.1522,
      "velocity": 91,
      "chip": "ym2612"
    },
    {
      "channel": 4,
      "note": 52,
      "start": 20.4328,
      "duration": 0.1522,
      "velocity": 80,
      "chip": "ym2612"
    },
    {
      "channel": 5,
      "note": 56,
      "start": 20.4344,
      "duration": 0.1506,
      "velocity": 127,
      "chip": "ym2612"
    },
    {
      "channel": 1,
      "note": 83,
      "start": 20.5986,
      "duration": 0.1523,
      "velocity": 106,
      "chip": "ym2612"
    },
    {
      "channel": 2,
      "note": 78,
      "start": 20.5987,
      "duration": 0.1523,
      "velocity": 106,
      "chip": "ym2612"
    },
    {
      "channel": 3,
      "note": 90,
      "start": 20.5989,
      "duration": 0.1522,
      "velocity": 91,
      "chip": "ym2612"
    },
    {
      "channel": 4,
      "note": 54,
      "start": 20.5991,
      "duration": 0.1522,
      "velocity": 80,
      "chip": "ym2612"
    },
    {
      "channel": 5,
      "note": 45,
      "start": 20.6008,
      "duration": 0.1506,
      "velocity": 101,
      "chip": "ym2612"
    },
    {
      "channel": 3,
      "note": 95,
      "start": 20.7648,
      "duration": 0.1522,
      "velocity": 91,
      "chip": "ym2612"
    },
    {
      "channel": 4,
      "note": 52,
      "start": 20.765,
      "duration": 0.1522,
      "velocity": 80,
      "chip": "ym2612"
    },
    {
      "channel": 5,
      "note": 45,
      "start": 20.7651,
      "duration": 0.1522,
      "velocity": 101,
      "chip": "ym2612"
    },
    {
      "channel": 1,
      "note": 83,
      "start": 20.9309,
      "duration": 0.1523,
      "velocity": 106,
      "chip": "ym2612"
    },
    {
      "channel": 2,
      "note": 78,
      "start": 20.931,
      "duration": 0.1522,
      "velocity": 106,
      "chip": "ym2612"
    },
    {
      "channel": 3,
      "note": 99,
      "start": 20.9312,
      "duration": 0.1522,
      "velocity": 91,
      "chip": "ym2612"
    },
    {
      "channel": 4,
      "note": 54,
      "start": 20.9314,
      "duration": 0.1521,
      "velocity": 80,
      "chip": "ym2612"
    },
    {
      "channel": 5,
      "note": 68,
      "start": 20.933,
      "duration": 0.1506,
      "velocity": 127,
      "chip": "ym2612"
    },
    {
      "channel": 3,
      "note": 90,
      "start": 21.0971,
      "duration": 0.1522,
      "velocity": 91,
      "chip": "ym2612"
    },
    {
      "channel": 4,
      "note": 52,
      "start": 21.0973,
      "duration": 0.1522,
      "velocity": 80,
      "chip": "ym2612"
    },
    {
      "channel": 5,
      "note": 56,
      "start": 21.0989,
      "duration": 0.1507,
      "velocity": 127,
      "chip": "ym2612"
    },
    {
      "channel": 3,
      "note": 97,
      "start": 21.2632,
      "duration": 0.1522,
      "velocity": 91,
      "chip": "ym2612"
    },
    {
      "channel": 4,
      "note": 54,
      "start": 21.2634,
      "duration": 0.1522,
      "velocity": 80,
      "chip": "ym2612"
    },
    {
      "channel": 5,
      "note": 45,
      "start": 21.2651,
      "duration": 0.1506,
      "velocity": 101,
      "chip": "ym2612"
    },
    {
      "channel": 3,
      "note": 88,
      "start": 21.4293,
      "duration": 0.1522,
      "velocity": 91,
      "chip": "ym2612"
    },
    {
      "channel": 4,
      "note": 52,
      "start": 21.4295,
      "duration": 0.1522,
      "velocity": 80,
      "chip": "ym2612"
    },
    {
      "channel": 5,
      "note": 56,
      "start": 21.4312,
      "duration": 0.1506,
      "velocity": 127,
      "chip": "ym2612"
    },
    {
      "channel": 3,
      "note": 93,
      "start": 21.5954,
      "duration": 0.1523,
      "velocity": 91,
      "chip": "ym2612"
    },
    {
      "channel": 4,
      "note": 54,
      "start": 21.5956,
      "duration": 0.1522,
      "velocity": 80,
      "chip": "ym2612"
    },
    {
      "channel": 5,
      "note": 68,
      "start": 21.5973,
      "duration": 0.1507,
      "velocity": 127,
      "chip": "ym2612"
    },
    {
      "channel": 1,
      "note": 81,
      "start": 21.7616,
      "duration": 0.4429,
      "velocity": 106,
      "chip": "ym2612"
    },
    {
      "channel": 2,
      "note": 76,
      "start": 21.7618,
      "duration": 0.4428,
      "velocity": 106,
      "chip": "ym2612"
    },
    {
      "channel": 3,
      "note": 97,
      "start": 21.762,
      "duration": 0.1518,
      "velocity": 91,
      "chip": "ym2612"
    },
    {
      "channel": 4,
      "note": 57,
      "start": 21.7622,
      "duration": 0.2901,
      "velocity": 80,
      "chip": "ym2612"
    },
    {
      "channel": 5,
      "note": 56,
      "start": 21.7638,
      "duration": 0.1501,
      "velocity": 127,
      "chip": "ym2612"
    },
    {
      "channel": 3,
      "note": 88,
      "start": 21.9278,
      "duration": 0.1522,
      "velocity": 91,
      "chip": "ym2612"
    },
    {
      "channel": 5,
      "note": 45,
      "start": 21.9294,
      "duration": 0.1507,
      "velocity": 101,
      "chip": "ym2612"
    },
    {
      "channel": 3,
      "note": 93,
      "start": 22.0938,
      "duration": 0.1522,
      "velocity": 91,
      "chip": "ym2612"
    },
    {
      "channel": 4,
      "note": 52,
      "start": 22.094,
      "duration": 0.1522,
      "velocity": 80,
      "chip": "ym2612"
    },
    {
      "channel": 5,
      "note": 45,
      "start": 22.0941,
      "duration": 0.1522,
      "velocity": 101,
      "chip": "ym2612"
    },
    {
      "channel": 3,
      "note": 97,
      "start": 22.26,
      "duration": 0.1522,
      "velocity": 91,
      "chip": "ym2612"
    },
    {
      "channel": 4,
      "note": 54,
      "start": 22.2602,
      "duration": 0.1521,
      "velocity": 80,
      "chip": "ym2612"
    },
    {
      "channel": 5,
      "note": 68,
      "start": 22.2618,
      "duration": 0.1506,
      "velocity": 127,
      "chip": "ym2612"
    },
    {
      "channel": 1,
      "note": 83,
      "start": 22.4261,
      "duration": 0.1522,
      "velocity": 106,
      "chip": "ym2612"
    },
    {
      "channel": 2,
      "note": 78,
      "start": 22.4263,
      "duration": 0.1522,
      "velocity": 106,
      "chip": "ym2612"
    },
    {
      "channel": 3,
      "note": 88,
      "start": 22.4265,
      "duration": 0.1521,
      "velocity": 91,
      "chip": "ym2612"
    },
    {
      "channel": 4,
      "note": 52,
      "start": 22.4267,
      "duration": 0.152,
      "velocity": 80,
      "chip": "ym2612"
    },
    {
      "channel": 5,
      "note": 56,
      "start": 22.4283,
      "duration": 0.1505,
      "velocity": 127,
      "chip": "ym2612"
    },
    {
      "channel": 3,
      "note": 99,
      "start": 22.5922,
      "duration": 0.1522,
      "velocity": 91,
      "chip": "ym2612"
    },
    {
      "channel": 4,
      "note": 54,
      "start": 22.5924,
      "duration": 0.1521,
      "velocity": 80,
      "chip": "ym2612"
    },
    {
      "channel": 5,
      "note": 45,
      "start": 22.5941,
      "duration": 0.1506,
      "velocity": 101,
      "chip": "ym2612"
    },
    {
      "channel": 1,
      "note": 83,
      "start": 22.7583,
      "duration": 0.1522,
      "velocity": 106,
      "chip": "ym2612"
    },
    {
      "channel": 2,
      "note": 78,
      "start": 22.7585,
      "duration": 0.1522,
      "velocity": 106,
      "chip": "ym2612"
    },
    {
      "channel": 3,
      "note": 90,
      "start": 22.7587,
      "duration": 0.1522,
      "velocity": 91,
      "chip": "ym2612"
    },
    {
      "channel": 4,
      "note": 59,
      "start": 22.7588,
      "duration": 0.2902,
      "velocity": 80,
      "chip": "ym2612"
    },
    {
      "channel": 5,
      "note": 56,
      "start": 22.7605,
      "duration": 0.1505,
      "velocity": 127,
      "chip": "ym2612"
    },
    {
      "channel": 3,
      "note": 95,
      "start": 22.9244,
      "duration": 0.1523,
      "velocity": 91,
      "chip": "ym2612"
    },
    {
      "channel": 5,
      "note": 68,
      "start": 22.9261,
      "duration": 0.1507,
      "velocity": 127,
      "chip": "ym2612"
    },
    {
      "channel": 1,
      "note": 83,
      "start": 23.0906,
      "duration": 0.1522,
      "velocity": 106,
      "chip": "ym2612"
    },
    {
      "channel": 2,
      "note": 78,
      "start": 23.0907,
      "duration": 0.1522,
      "velocity": 106,
      "chip": "ym2612"
    },
    {
      "channel": 3,
      "note": 99,
      "start": 23.0909,
      "duration": 0.1522,
      "velocity": 91,
      "chip": "ym2612"
    },
    {
      "channel": 4,
      "note": 52,
      "start": 23.0911,
      "duration": 0.1521,
      "velocity": 80,
      "chip": "ym2612"
    },
    {
      "channel": 5,
      "note": 56,
      "start": 23.0928,
      "duration": 0.1506,
      "velocity": 127,
      "chip": "ym2612"
    },
    {
      "channel": 3,
      "note": 90,
      "start": 23.2568,
      "duration": 0.1522,
      "velocity": 91,
      "chip": "ym2612"
    },
    {
      "channel": 4,
      "note": 54,
      "start": 23.2569,
      "duration": 0.1521,
      "velocity": 80,
      "chip": "ym2612"
    },
    {
      "channel": 5,
      "note": 45,
      "start": 23.2586,
      "duration": 0.1506,
      "velocity": 101,
      "chip": "ym2612"
    },
    {
      "channel": 1,
      "note": 83,
      "start": 23.4228,
      "duration": 0.443,
      "velocity": 106,
      "chip": "ym2612"
    },
    {
      "channel": 2,
      "note": 78,
      "start": 23.4229,
      "duration": 0.443,
      "velocity": 106,
      "chip": "ym2612"
    },
    {
      "channel": 3,
      "note": 95,
      "start": 23.4231,
      "duration": 0.152,
      "velocity": 91,
      "chip": "ym2612"
    },
    {
      "channel": 4,
      "note": 52,
      "start": 23.4233,
      "duration": 0.1519,
      "velocity": 80,
      "chip": "ym2612"
    },
    {
      "channel": 5,
      "note": 45,
      "start": 23.4234,
      "duration": 0.1519,
      "velocity": 101,
      "chip": "ym2612"
    },
    {
      "channel": 3,
      "note": 99,
      "start": 23.589,
      "duration": 0.1522,
      "velocity": 91,
      "chip": "ym2612"
    },
    {
      "channel": 4,
      "note": 54,
      "start": 23.5892,
      "duration": 0.1521,
      "velocity": 80,
      "chip": "ym2612"
    },
    {
      "channel": 5,
      "note": 68,
      "start": 23.5908,
      "duration": 0.1506,
      "velocity": 127,
      "chip": "ym2612"
    },
    {
      "channel": 3,
      "note": 90,
      "start": 23.7552,
      "duration": 0.1522,
      "velocity": 91,
      "chip": "ym2612"
    },
    {
      "channel": 4,
      "note": 52,
      "start": 23.7554,
      "duration": 0.1521,
      "velocity": 80,
      "chip": "ym2612"
    },
    {
      "channel": 5,
      "note": 56,
      "start": 23.757,
      "duration": 0.1506,
      "velocity": 127,
      "chip": "ym2612"
    },
    {
      "channel": 3,
      "note": 94,
      "start": 23.9212,
      "duration": 0.1523,
      "velocity": 91,
      "chip": "ym2612"
    },
    {
      "channel": 4,
      "note": 51,
      "start": 23.9214,
      "duration": 0.1522,
      "velocity": 80,
      "chip": "ym2612"
    },
    {
      "channel": 5,
      "note": 45,
      "start": 23.923,
      "duration": 0.1507,
      "velocity": 101,
      "chip": "ym2612"
    },
    {
      "channel": 3,
      "note": 85,
      "start": 24.0877,
      "duration": 0.1518,
      "velocity": 91,
      "chip": "ym2612"
    },
    {
      "channel": 4,
      "note": 49,
      "start": 24.0879,
      "duration": 0.1518,
      "velocity": 80,
      "chip": "ym2612"
    },
    {
      "channel": 5,
      "note": 56,
      "start": 24.0895,
      "duration": 0.1503,
      "velocity": 127,
      "chip": "ym2612"
    },
    {
      "channel": 3,
      "note": 90,
      "start": 24.2535,
      "duration": 0.1522,
      "velocity": 91,
      "chip": "ym2612"
    },
    {
      "channel": 4,
      "note": 51,
      "start": 24.2541,
      "duration": 0.1518,
      "velocity": 80,
      "chip": "ym2612"
    },
    {
      "channel": 5,
      "note": 68,
      "start": 24.2557,
      "duration": 0.1502,
      "velocity": 127,
      "chip": "ym2612"
    },
    {
      "channel": 1,
      "note": 78,
      "start": 24.4196,
      "duration": 0.4429,
      "velocity": 106,
      "chip": "ym2612"
    },
    {
      "channel": 2,
      "note": 73,
      "start": 24.4198,
      "duration": 0.4429,
      "velocity": 106,
      "chip": "ym2612"
    },
    {
      "channel": 3,
      "note": 94,
      "start": 24.42,
      "duration": 0.1519,
      "velocity": 91,
      "chip": "ym2612"
    },
    {
      "channel": 4,
      "note": 54,
      "start": 24.4202,
      "duration": 0.2901,
      "velocity": 80,
      "chip": "ym2612"
    },
    {
      "channel": 5,
      "note": 56,
      "start": 24.4222,
      "duration": 0.1498,
      "velocity": 127,
      "chip": "ym2612"
    },
    {
      "channel": 3,
      "note": 85,
      "start": 24.5858,
      "duration": 0.1522,
      "velocity": 91,
      "chip": "ym2612"
    },
    {
      "channel": 5,
      "note": 45,
      "start": 24.5878,
      "duration": 0.1503,
      "velocity": 101,
      "chip": "ym2612"
    },
    {
      "channel": 3,
      "note": 90,
      "start": 24.7519,
      "duration": 0.1524,
      "velocity": 91,
      "chip": "ym2612"
    },
    {
      "channel": 4,
      "note": 49,
      "start": 24.7521,
      "duration": 0.1524,
      "velocity": 80,
      "chip": "ym2612"
    },
    {
      "channel": 5,
      "note": 45,
      "start": 24.7522,
      "duration": 0.1523,
      "velocity": 101,
      "chip": "ym2612"
    },
    {
      "channel": 3,
      "note": 94,
      "start": 24.918,
      "duration": 0.1523,
      "velocity": 91,
      "chip": "ym2612"
    },
    {
      "channel": 4,
      "note": 51,
      "start": 24.9182,
      "duration": 0.1525,
      "velocity": 80,
      "chip": "ym2612"
    },
    {
      "channel": 5,
      "note": 68,
      "start": 24.9199,
      "duration": 0.151,
      "velocity": 127,
      "chip": "ym2612"
    },
    {
      "channel": 3,
      "note": 85,
      "start": 25.0841,
      "duration": 0.1522,
      "velocity": 91,
      "chip": "ym2612"
    },
    {
      "channel": 4,
      "note": 49,
      "start": 25.0843,
      "duration": 0.1522,
      "velocity": 80,
      "chip": "ym2612"
    },
    {
      "channel": 5,
      "note": 56,
      "start": 25.0859,
      "duration": 0.1506,
      "velocity": 127,
      "chip": "ym2612"
    },
    {
      "channel": 3,
      "note": 96,
      "start": 25.2503,
      "duration": 0.1522,
      "velocity": 91,
      "chip": "ym2612"
    },
    {
      "channel": 4,
      "note": 51,
      "start": 25.2505,
      "duration": 0.1521,
      "velocity": 80,
      "chip": "ym2612"
    },
    {
      "channel": 5,
      "note": 45,
      "start": 25.2521,
      "duration": 0.1506,
      "velocity": 101,
      "chip": "ym2612"
    },
    {
      "channel": 1,
      "note": 80,
      "start": 25.4163,
      "duration": 0.4429,
      "velocity": 106,
      "chip": "ym2612"
    },
    {
      "channel": 2,
      "note": 75,
      "start": 25.4166,
      "duration": 0.4428,
      "velocity": 106,
      "chip": "ym2612"
    },
    {
      "channel": 3,
      "note": 87,
      "start": 25.4168,
      "duration": 0.1518,
      "velocity": 91,
      "chip": "ym2612"
    },
    {
      "channel": 4,
      "note": 56,
      "start": 25.417,
      "duration": 0.2901,
      "velocity": 80,
      "chip": "ym2612"
    },
    {
      "channel": 5,
      "note": 56,
      "start": 25.4186,
      "duration": 0.1501,
      "velocity": 127,
      "chip": "ym2612"
    },
    {
      "channel": 3,
      "note": 92,
      "start": 25.5825,
      "duration": 0.1522,
      "velocity": 91,
      "chip": "ym2612"
    },
    {
      "channel": 5,
      "note": 68,
      "start": 25.5842,
      "duration": 0.1506,
      "velocity": 127,
      "chip": "ym2612"
    },
    {
      "channel": 3,
      "note": 96,
      "start": 25.7486,
      "duration": 0.1523,
      "velocity": 91,
      "chip": "ym2612"
    },
    {
      "channel": 4,
      "note": 49,
      "start": 25.7488,
      "duration": 0.1522,
      "velocity": 80,
      "chip": "ym2612"
    },
    {
      "channel": 5,
      "note": 56,
      "start": 25.7505,
      "duration": 0.1507,
      "velocity": 127,
      "chip": "ym2612"
    },
    {
      "channel": 1,
      "note": 80,
      "start": 25.9146,
      "duration": 0.1523,
      "velocity": 106,
      "chip": "ym2612"
    },
    {
      "channel": 2,
      "note": 75,
      "start": 25.9148,
      "duration": 0.1523,
      "velocity": 106,
      "chip": "ym2612"
    },
    {
      "channel": 3,
      "note": 87,
      "start": 25.915,
      "duration": 0.1522,
      "velocity": 91,
      "chip": "ym2612"
    },
    {
      "channel": 4,
      "note": 51,
      "start": 25.9151,
      "duration": 0.1522,
      "velocity": 80,
      "chip": "ym2612"
    },
    {
      "channel": 5,
      "note": 45,
      "start": 25.9168,
      "duration": 0.1506,
      "velocity": 101,
      "chip": "ym2612"
    },
    {
      "channel": 3,
      "note": 92,
      "start": 26.0809,
      "duration": 0.1522,
      "velocity": 91,
      "chip": "ym2612"
    },
    {
      "channel": 4,
      "note": 49,
      "start": 26.0811,
      "duration": 0.1521,
      "velocity": 80,
      "chip": "ym2612"
    },
    {
      "channel": 5,
      "note": 45,
      "start": 26.0812,
      "duration": 0.1521,
      "velocity": 101,
      "chip": "ym2612"
    },
    {
      "channel": 1,
      "note": 80,
      "start": 26.247,
      "duration": 0.1523,
      "velocity": 106,
      "chip": "ym2612"
    },
    {
      "channel": 2,
      "note": 75,
      "start": 26.2471,
      "duration": 0.1522,
      "velocity": 106,
      "chip": "ym2612"
    },
    {
      "channel": 3,
      "note": 96,
      "start": 26.2473,
      "duration": 0.1522,
      "velocity": 91,
      "chip": "ym2612"
    },
    {
      "channel": 4,
      "note": 51,
      "start": 26.2475,
      "duration": 0.1522,
      "velocity": 80,
      "chip": "ym2612"
    },
    {
      "channel": 5,
      "note": 68,
      "start": 26.2491,
      "duration": 0.1506,
      "velocity": 127,
      "chip": "ym2612"
    },
    {
      "channel": 3,
      "note": 87,
      "start": 26.4131,
      "duration": 0.1523,
      "velocity": 91,
      "chip": "ym2612"
    },
    {
      "channel": 4,
      "note": 49,
      "start": 26.4133,
      "duration": 0.1522,
      "velocity": 80,
      "chip": "ym2612"
    },
    {
      "channel": 5,
      "note": 56,
      "start": 26.415,
      "duration": 0.1507,
      "velocity": 127,
      "chip": "ym2612"
    },
    {
      "channel": 3,
      "note": 94,
      "start": 26.5793,
      "duration": 0.1522,
      "velocity": 91,
      "chip": "ym2612"
    },
    {
      "channel": 4,
      "note": 51,
      "start": 26.5795,
      "duration": 0.1522,
      "velocity": 80,
      "chip": "ym2612"
    },
    {
      "channel": 5,
      "note": 45,
      "start": 26.5811,
      "duration": 0.1506,
      "velocity": 101,
      "chip": "ym2612"
    },
    {
      "channel": 3,
      "note": 85,
      "start": 26.7454,
      "duration": 0.1522,
      "velocity": 91,
      "chip": "ym2612"
    },
    {
      "channel": 4,
      "note": 49,
      "start": 26.7456,
      "duration": 0.1521,
      "velocity": 80,
      "chip": "ym2612"
    },
    {
      "channel": 5,
      "note": 56,
      "start": 26.7473,
      "duration": 0.1506,
      "velocity": 127,
      "chip": "ym2612"
    },
    {
      "channel": 3,
      "note": 90,
      "start": 26.9116,
      "duration": 0.1522,
      "velocity": 91,
      "chip": "ym2612"
    },
    {
      "channel": 4,
      "note": 51,
      "start": 26.9118,
      "duration": 0.1521,
      "velocity": 80,
      "chip": "ym2612"
    },
    {
      "channel": 5,
      "note": 68,
      "start": 26.9134,
      "duration": 0.1506,
      "velocity": 127,
      "chip": "ym2612"
    },
    {
      "channel": 1,
      "note": 78,
      "start": 27.0776,
      "duration": 0.4434,
      "velocity": 106,
      "chip": "ym2612"
    },
    {
      "channel": 2,
      "note": 73,
      "start": 27.0779,
      "duration": 0.4433,
      "velocity": 106,
      "chip": "ym2612"
    },
    {
      "channel": 3,
      "note": 94,
      "start": 27.0781,
      "duration": 0.1518,
      "velocity": 91,
      "chip": "ym2612"
    },
    {
      "channel": 4,
      "note": 54,
      "start": 27.0783,
      "duration": 0.2901,
      "velocity": 80,
      "chip": "ym2612"
    },
    {
      "channel": 5,
      "note": 56,
      "start": 27.0798,
      "duration": 0.1502,
      "velocity": 127,
      "chip": "ym2612"
    },
    {
      "channel": 3,
      "note": 85,
      "start": 27.2438,
      "duration": 0.1522,
      "velocity": 91,
      "chip": "ym2612"
    },
    {
      "channel": 5,
      "note": 45,
      "start": 27.2455,
      "duration": 0.1506,
      "velocity": 101,
      "chip": "ym2612"
    },
    {
      "channel": 3,
      "note": 90,
      "start": 27.4099,
      "duration": 0.1522,
      "velocity": 91,
      "chip": "ym2612"
    },
    {
      "channel": 4,
      "note": 49,
      "start": 27.4101,
      "duration": 0.1522,
      "velocity": 80,
      "chip": "ym2612"
    },
    {
      "channel": 5,
      "note": 45,
      "start": 27.4102,
      "duration": 0.1522,
      "velocity": 101,
      "chip": "ym2612"
    },
    {
      "channel": 3,
      "note": 94,
      "start": 27.5761,
      "duration": 0.1522,
      "velocity": 91,
      "chip": "ym2612"
    },
    {
      "channel": 4,
      "note": 51,
      "start": 27.5763,
      "duration": 0.1521,
      "velocity": 80,
      "chip": "ym2612"
    },
    {
      "channel": 5,
      "note": 68,
      "start": 27.5779,
      "duration": 0.1506,
      "velocity": 127,
      "chip": "ym2612"
    },
    {
      "channel": 1,
      "note": 80,
      "start": 27.7421,
      "duration": 0.1522,
      "velocity": 106,
      "chip": "ym2612"
    },
    {
      "channel": 2,
      "note": 75,
      "start": 27.7424,
      "duration": 0.1521,
      "velocity": 106,
      "chip": "ym2612"
    },
    {
      "channel": 3,
      "note": 85,
      "start": 27.7426,
      "duration": 0.152,
      "velocity": 91,
      "chip": "ym2612"
    },
    {
      "channel": 4,
      "note": 49,
      "start": 27.7428,
      "duration": 0.152,
      "velocity": 80,
      "chip": "ym2612"
    },
    {
      "channel": 5,
      "note": 56,
      "start": 27.7444,
      "duration": 0.1505,
      "velocity": 127,
      "chip": "ym2612"
    },
    {
      "channel": 3,
      "note": 96,
      "start": 27.9083,
      "duration": 0.1522,
      "velocity": 91,
      "chip": "ym2612"
    },
    {
      "channel": 4,
      "note": 51,
      "start": 27.9085,
      "duration": 0.1522,
      "velocity": 80,
      "chip": "ym2612"
    },
    {
      "channel": 5,
      "note": 45,
      "start": 27.9101,
      "duration": 0.1507,
      "velocity": 101,
      "chip": "ym2612"
    },
    {
      "channel": 1,
      "note": 80,
      "start": 28.0744,
      "duration": 0.1523,
      "velocity": 106,
      "chip": "ym2612"
    },
    {
      "channel": 2,
      "note": 75,
      "start": 28.0745,
      "duration": 0.1523,
      "velocity": 106,
      "chip": "ym2612"
    },
    {
      "channel": 3,
      "note": 87,
      "start": 28.0747,
      "duration": 0.1522,
      "velocity": 91,
      "chip": "ym2612"
    },
    {
      "channel": 4,
      "note": 56,
      "start": 28.0749,
      "duration": 0.2902,
      "velocity": 80,
      "chip": "ym2612"
    },
    {
      "channel": 5,
      "note": 56,
      "start": 28.0765,
      "duration": 0.1505,
      "velocity": 127,
      "chip": "ym2612"
    },
    {
      "channel": 3,
      "note": 92,
      "start": 28.2405,
      "duration": 0.1522,
      "velocity": 91,
      "chip": "ym2612"
    },
    {
      "channel": 5,
      "note": 68,
      "start": 28.2422,
      "duration": 0.1507,
      "velocity": 127,
      "chip": "ym2612"
    },
    {
      "channel": 1,
      "note": 80,
      "start": 28.4066,
      "duration": 0.1522,
      "velocity": 106,
      "chip": "ym2612"
    },
    {
      "channel": 2,
      "note": 75,
      "start": 28.4068,
      "duration": 0.1522,
      "velocity": 106,
      "chip": "ym2612"
    },
    {
      "channel": 3,
      "note": 96,
      "start": 28.4069,
      "duration": 0.1522,
      "velocity": 91,
      "chip": "ym2612"
    },
    {
      "channel": 4,
      "note": 49,
      "start": 28.4071,
      "duration": 0.1521,
      "velocity": 80,
      "chip": "ym2612"
    },
    {
      "channel": 5,
      "note": 56,
      "start": 28.4088,
      "duration": 0.1506,
      "velocity": 127,
      "chip": "ym2612"
    },
    {
      "channel": 3,
      "note": 87,
      "start": 28.5728,
      "duration": 0.1522,
      "velocity": 91,
      "chip": "ym2612"
    },
    {
      "channel": 4,
      "note": 51,
      "start": 28.573,
      "duration": 0.1522,
      "velocity": 80,
      "chip": "ym2612"
    },
    {
      "channel": 5,
      "note": 45,
      "start": 28.5746,
      "duration": 0.1506,
      "velocity": 101,
      "chip": "ym2612"
    },
    {
      "channel": 1,
      "note": 80,
      "start": 28.7389,
      "duration": 0.4429,
      "velocity": 106,
      "chip": "ym2612"
    },
    {
      "channel": 2,
      "note": 75,
      "start": 28.739,
      "duration": 0.4429,
      "velocity": 106,
      "chip": "ym2612"
    },
    {
      "channel": 3,
      "note": 92,
      "start": 28.7392,
      "duration": 0.152,
      "velocity": 91,
      "chip": "ym2612"
    },
    {
      "channel": 4,
      "note": 49,
      "start": 28.7394,
      "duration": 0.1519,
      "velocity": 80,
      "chip": "ym2612"
    },
    {
      "channel": 5,
      "note": 45,
      "start": 28.7395,
      "duration": 0.1519,
      "velocity": 101,
      "chip": "ym2612"
    },
    {
      "channel": 3,
      "note": 96,
      "start": 28.905,
      "duration": 0.1522,
      "velocity": 91,
      "chip": "ym2612"
    },
    {
      "channel": 4,
      "note": 51,
      "start": 28.9052,
      "duration": 0.1522,
      "velocity": 80,
      "chip": "ym2612"
    },
    {
      "channel": 5,
      "note": 68,
      "start": 28.9069,
      "duration": 0.1506,
      "velocity": 127,
      "chip": "ym2612"
    },
    {
      "channel": 3,
      "note": 87,
      "start": 29.0711,
      "duration": 0.1523,
      "velocity": 91,
      "chip": "ym2612"
    },
    {
      "channel": 4,
      "note": 49,
      "start": 29.0713,
      "duration": 0.1522,
      "velocity": 80,
      "chip": "ym2612"
    },
    {
      "channel": 5,
      "note": 56,
      "start": 29.073,
      "duration": 0.1507,
      "velocity": 127,
      "chip": "ym2612"
    },
    {
      "channel": 3,
      "note": 94,
      "start": 29.2377,
      "duration": 0.1518,
      "velocity": 91,
      "chip": "ym2612"
    },
    {
      "channel": 4,
      "note": 51,
      "start": 29.2379,
      "duration": 0.1517,
      "velocity": 80,
      "chip": "ym2612"
    },
    {
      "channel": 5,
      "note": 45,
      "start": 29.2396,
      "duration": 0.1502,
      "velocity": 101,
      "chip": "ym2612"
    },
    {
      "channel": 3,
      "note": 85,
      "start": 29.4034,
      "duration": 0.1522,
      "velocity": 91,
      "chip": "ym2612"
    },
    {
      "channel": 4,
      "note": 49,
      "start": 29.404,
      "duration": 0.1517,
      "velocity": 80,
      "chip": "ym2612"
    },
    {
      "channel": 5,
      "note": 56,
      "start": 29.4057,
      "duration": 0.1502,
      "velocity": 127,
      "chip": "ym2612"
    },
    {
      "channel": 3,
      "note": 90,
      "start": 29.5695,
      "duration": 0.1522,
      "velocity": 91,
      "chip": "ym2612"
    },
    {
      "channel": 4,
      "note": 51,
      "start": 29.5697,
      "duration": 0.1522,
      "velocity": 80,
      "chip": "ym2612"
    },
    {
      "channel": 5,
      "note": 68,
      "start": 29.5718,
      "duration": 0.1502,
      "velocity": 127,
      "chip": "ym2612"
    },
    {
      "channel": 1,
      "note": 78,
      "start": 29.7357,
      "duration": 0.4429,
      "velocity": 106,
      "chip": "ym2612"
    },
    {
      "channel": 2,
      "note": 73,
      "start": 29.7359,
      "duration": 0.4428,
      "velocity": 106,
      "chip": "ym2612"
    },
    {
      "channel": 3,
      "note": 94,
      "start": 29.7361,
      "duration": 0.1518,
      "velocity": 91,
      "chip": "ym2612"
    },
    {
      "channel": 4,
      "note": 54,
      "start": 29.7363,
      "duration": 0.2901,
      "velocity": 80,
      "chip": "ym2612"
    },
    {
      "channel": 5,
      "note": 56,
      "start": 29.7383,
      "duration": 0.1498,
      "velocity": 127,
      "chip": "ym2612"
    },
    {
      "channel": 3,
      "note": 85,
      "start": 29.9018,
      "duration": 0.1525,
      "velocity": 91,
      "chip": "ym2612"
    },
    {
      "channel": 5,
      "note": 45,
      "start": 29.9034,
      "duration": 0.151,
      "velocity": 101,
      "chip": "ym2612"
    },
    {
      "channel": 3,
      "note": 90,
      "start": 30.068,
      "duration": 0.1522,
      "velocity": 91,
      "chip": "ym2612"
    },
    {
      "channel": 4,
      "note": 49,
      "start": 30.0681,
      "duration": 0.1525,
      "velocity": 80,
      "chip": "ym2612"
    },
    {
      "channel": 5,
      "note": 45,
      "start": 30.0682,
      "duration": 0.1526,
      "velocity": 101,
      "chip": "ym2612"
    },
    {
      "channel": 3,
      "note": 94,
      "start": 30.234,
      "duration": 0.1523,
      "velocity": 91,
      "chip": "ym2612"
    },
    {
      "channel": 4,
      "note": 51,
      "start": 30.2342,
      "duration": 0.1522,
      "velocity": 80,
      "chip": "ym2612"
    },
    {
      "channel": 5,
      "note": 68,
      "start": 30.2359,
      "duration": 0.1507,
      "velocity": 127,
      "chip": "ym2612"
    },
    {
      "channel": 3,
      "note": 85,
      "start": 30.4002,
      "duration": 0.1522,
      "velocity": 91,
      "chip": "ym2612"
    },
    {
      "channel": 4,
      "note": 49,
      "start": 30.4004,
      "duration": 0.1522,
      "velocity": 80,
      "chip": "ym2612"
    },
    {
      "channel": 5,
      "note": 56,
      "start": 30.402,
      "duration": 0.1507,
      "velocity": 127,
      "chip": "ym2612"
    },
    {
      "channel": 3,
      "note": 96,
      "start": 30.5663,
      "duration": 0.1522,
      "velocity": 91,
      "chip": "ym2612"
    },
    {
      "channel": 4,
      "note": 51,
      "start": 30.5666,
      "duration": 0.1521,
      "velocity": 80,
      "chip": "ym2612"
    },
    {
      "channel": 5,
      "note": 45,
      "start": 30.5682,
      "duration": 0.1506,
      "velocity": 101,
      "chip": "ym2612"
    },
    {
      "channel": 1,
      "note": 80,
      "start": 30.7324,
      "duration": 0.4429,
      "velocity": 106,
      "chip": "ym2612"
    },
    {
      "channel": 2,
      "note": 75,
      "start": 30.7327,
      "duration": 0.4428,
      "velocity": 106,
      "chip": "ym2612"
    },
    {
      "channel": 3,
      "note": 87,
      "start": 30.7328,
      "duration": 0.1518,
      "velocity": 91,
      "chip": "ym2612"
    },
    {
      "channel": 4,
      "note": 56,
      "start": 30.733,
      "duration": 0.2901,
      "velocity": 80,
      "chip": "ym2612"
    },
    {
      "channel": 5,
      "note": 56,
      "start": 30.7346,
      "duration": 0.1502,
      "velocity": 127,
      "chip": "ym2612"
    },
    {
      "channel": 3,
      "note": 92,
      "start": 30.8986,
      "duration": 0.1522,
      "velocity": 91,
      "chip": "ym2612"
    },
    {
      "channel": 5,
      "note": 68,
      "start": 30.9003,
      "duration": 0.1507,
      "velocity": 127,
      "chip": "ym2612"
    },
    {
      "channel": 3,
      "note": 96,
      "start": 31.0647,
      "duration": 0.1522,
      "velocity": 91,
      "chip": "ym2612"
    },
    {
      "channel": 4,
      "note": 49,
      "start": 31.0649,
      "duration": 0.1522,
      "velocity": 80,
      "chip": "ym2612"
    },
    {
      "channel": 5,
      "note": 56,
      "start": 31.0666,
      "duration": 0.1506,
      "velocity": 127,
      "chip": "ym2612"
    },
    {
      "channel": 1,
      "note": 80,
      "start": 31.2307,
      "duration": 0.1523,
      "velocity": 106,
      "chip": "ym2612"
    },
    {
      "channel": 2,
      "note": 75,
      "start": 31.2309,
      "duration": 0.1523,
      "velocity": 106,
      "chip": "ym2612"
    },
    {
      "channel": 3,
      "note": 87,
      "start": 31.231,
      "duration": 0.1522,
      "velocity": 91,
      "chip": "ym2612"
    },
    {
      "channel": 4,
      "note": 51,
      "start": 31.2312,
      "duration": 0.1522,
      "velocity": 80,
      "chip": "ym2612"
    },
    {
      "channel": 5,
      "note": 45,
      "start": 31.2329,
      "duration": 0.1506,
      "velocity": 101,
      "chip": "ym2612"
    },
    {
      "channel": 3,
      "note": 92,
      "start": 31.397,
      "duration": 0.1522,
      "velocity": 91,
      "chip": "ym2612"
    },
    {
      "channel": 4,
      "note": 49,
      "start": 31.3971,
      "duration": 0.1522,
      "velocity": 80,
      "chip": "ym2612"
    },
    {
      "channel": 5,
      "note": 45,
      "start": 31.3973,
      "duration": 0.1522,
      "velocity": 101,
      "chip": "ym2612"
    },
    {
      "channel": 1,
      "note": 80,
      "start": 31.563,
      "duration": 0.1523,
      "velocity": 106,
      "chip": "ym2612"
    },
    {
      "channel": 2,
      "note": 75,
      "start": 31.5632,
      "duration": 0.1522,
      "velocity": 106,
      "chip": "ym2612"
    },
    {
      "channel": 3,
      "note": 96,
      "start": 31.5634,
      "duration": 0.1522,
      "velocity": 91,
      "chip": "ym2612"
    },
    {
      "channel": 4,
      "note": 51,
      "start": 31.5636,
      "duration": 0.1521,
      "velocity": 80,
      "chip": "ym2612"
    },
    {
      "channel": 5,
      "note": 68,
      "start": 31.5651,
      "duration": 0.1506,
      "velocity": 127,
      "chip": "ym2612"
    },
    {
      "channel": 3,
      "note": 87,
      "start": 31.7292,
      "duration": 0.1522,
      "velocity": 91,
      "chip": "ym2612"
    },
    {
      "channel": 4,
      "note": 49,
      "start": 31.7294,
      "duration": 0.1522,
      "velocity": 80,
      "chip": "ym2612"
    },
    {
      "channel": 5,
      "note": 56,
      "start": 31.731,
      "duration": 0.1506,
      "velocity": 127,
      "chip": "ym2612"
    },
    {
      "channel": 3,
      "note": 94,
      "start": 31.8954,
      "duration": 0.1522,
      "velocity": 91,
      "chip": "ym2612"
    },
    {
      "channel": 4,
      "note": 51,
      "start": 31.8956,
      "duration": 0.1521,
      "velocity": 80,
      "chip": "ym2612"
    },
    {
      "channel": 5,
      "note": 45,
      "start": 31.8972,
      "duration": 0.1506,
      "velocity": 101,
      "chip": "ym2612"
    },
    {
      "channel": 3,
      "note": 85,
      "start": 32.0615,
      "duration": 0.1522,
      "velocity": 91,
      "chip": "ym2612"
    },
    {
      "channel": 4,
      "note": 49,
      "start": 32.0617,
      "duration": 0.1522,
      "velocity": 80,
      "chip": "ym2612"
    },
    {
      "channel": 5,
      "note": 56,
      "start": 32.0633,
      "duration": 0.1506,
      "velocity": 127,
      "chip": "ym2612"
    },
    {
      "channel": 3,
      "note": 90,
      "start": 32.2276,
      "duration": 0.1522,
      "velocity": 91,
      "chip": "ym2612"
    },
    {
      "channel": 4,
      "note": 51,
      "start": 32.2278,
      "duration": 0.1522,
      "velocity": 80,
      "chip": "ym2612"
    },
    {
      "channel": 5,
      "note": 68,
      "start": 32.2295,
      "duration": 0.1506,
      "velocity": 127,
      "chip": "ym2612"
    },
    {
      "channel": 1,
      "note": 78,
      "start": 32.3937,
      "duration": 0.4429,
      "velocity": 106,
      "chip": "ym2612"
    },
    {
      "channel": 2,
      "note": 73,
      "start": 32.3939,
      "duration": 0.4429,
      "velocity": 106,
      "chip": "ym2612"
    },
    {
      "channel": 3,
      "note": 94,
      "start": 32.3941,
      "duration": 0.1518,
      "velocity": 91,
      "chip": "ym2612"
    },
    {
      "channel": 4,
      "note": 54,
      "start": 32.3943,
      "duration": 0.2901,
      "velocity": 80,
      "chip": "ym2612"
    },
    {
      "channel": 5,
      "note": 56,
      "start": 32.3959,
      "duration": 0.1501,
      "velocity": 127,
      "chip": "ym2612"
    },
    {
      "channel": 3,
      "note": 85,
      "start": 32.5599,
      "duration": 0.1522,
      "velocity": 91,
      "chip": "ym2612"
    },
    {
      "channel": 5,
      "note": 45,
      "start": 32.5615,
      "duration": 0.1506,
      "velocity": 101,
      "chip": "ym2612"
    },
    {
      "channel": 3,
      "note": 90,
      "start": 32.726,
      "duration": 0.1522,
      "velocity": 91,
      "chip": "ym2612"
    },
    {
      "channel": 4,
      "note": 49,
      "start": 32.7261,
      "duration": 0.1522,
      "velocity": 80,
      "chip": "ym2612"
    },
    {
      "channel": 5,
      "note": 45,
      "start": 32.7263,
      "duration": 0.1522,
      "velocity": 101,
      "chip": "ym2612"
    },
    {
      "channel": 3,
      "note": 94,
      "start": 32.8921,
      "duration": 0.1522,
      "velocity": 91,
      "chip": "ym2612"
    },
    {
      "channel": 4,
      "note": 51,
      "start": 32.8923,
      "duration": 0.1522,
      "velocity": 80,
      "chip": "ym2612"
    },
    {
      "channel": 5,
      "note": 68,
      "start": 32.8939,
      "duration": 0.1507,
      "velocity": 127,
      "chip": "ym2612"
    },
    {
      "channel": 1,
      "note": 80,
      "start": 33.0582,
      "duration": 0.1522,
      "velocity": 106,
      "chip": "ym2612"
    },
    {
      "channel": 2,
      "note": 75,
      "start": 33.0585,
      "duration": 0.152,
      "velocity": 106,
      "chip": "ym2612"
    },
    {
      "channel": 3,
      "note": 85,
      "start": 33.0587,
      "duration": 0.152,
      "velocity": 91,
      "chip": "ym2612"
    },
    {
      "channel": 4,
      "note": 49,
      "start": 33.0588,
      "duration": 0.1519,
      "velocity": 80,
      "chip": "ym2612"
    },
    {
      "channel": 5,
      "note": 56,
      "start": 33.0604,
      "duration": 0.1505,
      "velocity": 127,
      "chip": "ym2612"
    },
    {
      "channel": 3,
      "note": 96,
      "start": 33.2244,
      "duration": 0.1522,
      "velocity": 91,
      "chip": "ym2612"
    },
    {
      "channel": 4,
      "note": 51,
      "start": 33.2246,
      "duration": 0.1522,
      "velocity": 80,
      "chip": "ym2612"
    },
    {
      "channel": 5,
      "note": 45,
      "start": 33.2262,
      "duration": 0.1506,
      "velocity": 101,
      "chip": "ym2612"
    },
    {
      "channel": 1,
      "note": 80,
      "start": 33.3905,
      "duration": 0.1522,
      "velocity": 106,
      "chip": "ym2612"
    },
    {
      "channel": 2,
      "note": 75,
      "start": 33.3906,
      "duration": 0.1522,
      "velocity": 106,
      "chip": "ym2612"
    },
    {
      "channel": 3,
      "note": 87,
      "start": 33.3908,
      "duration": 0.1521,
      "velocity": 91,
      "chip": "ym2612"
    },
    {
      "channel": 4,
      "note": 56,
      "start": 33.391,
      "duration": 0.2902,
      "velocity": 80,
      "chip": "ym2612"
    },
    {
      "channel": 5,
      "note": 56,
      "start": 33.3926,
      "duration": 0.1505,
      "velocity": 127,
      "chip": "ym2612"
    },
    {
      "channel": 3,
      "note": 92,
      "start": 33.5566,
      "duration": 0.1522,
      "velocity": 91,
      "chip": "ym2612"
    },
    {
      "channel": 5,
      "note": 68,
      "start": 33.5583,
      "duration": 0.1506,
      "velocity": 127,
      "chip": "ym2612"
    },
    {
      "channel": 1,
      "note": 80,
      "start": 33.7227,
      "duration": 0.1523,
      "velocity": 106,
      "chip": "ym2612"
    },
    {
      "channel": 2,
      "note": 75,
      "start": 33.7228,
      "duration": 0.1523,
      "velocity": 106,
      "chip": "ym2612"
    },
    {
      "channel": 3,
      "note": 96,
      "start": 33.723,
      "duration": 0.1522,
      "velocity": 91,
      "chip": "ym2612"
    },
    {
      "channel": 4,
      "note": 49,
      "start": 33.7232,
      "duration": 0.1522,
      "velocity": 80,
      "chip": "ym2612"
    },
    {
      "channel": 5,
      "note": 56,
      "start": 33.7248,
      "duration": 0.1507,
      "velocity": 127,
      "chip": "ym2612"
    },
    {
      "channel": 3,
      "note": 87,
      "start": 33.8889,
      "duration": 0.1522,
      "velocity": 91,
      "chip": "ym2612"
    },
    {
      "channel": 4,
      "note": 51,
      "start": 33.8891,
      "duration": 0.1521,
      "velocity": 80,
      "chip": "ym2612"
    },
    {
      "channel": 5,
      "note": 45,
      "start": 33.8907,
      "duration": 0.1506,
      "velocity": 101,
      "chip": "ym2612"
    },
    {
      "channel": 1,
      "note": 80,
      "start": 34.0549,
      "duration": 0.443,
      "velocity": 106,
      "chip": "ym2612"
    },
    {
      "channel": 2,
      "note": 75,
      "start": 34.055,
      "duration": 0.443,
      "velocity": 106,
      "chip": "ym2612"
    },
    {
      "channel": 3,
      "note": 92,
      "start": 34.0552,
      "duration": 0.152,
      "velocity": 91,
      "chip": "ym2612"
    },
    {
      "channel": 4,
      "note": 49,
      "start": 34.0554,
      "duration": 0.1519,
      "velocity": 80,
      "chip": "ym2612"
    },
    {
      "channel": 5,
      "note": 45,
      "start": 34.0555,
      "duration": 0.1519,
      "velocity": 101,
      "chip": "ym2612"
    },
    {
      "channel": 3,
      "note": 96,
      "start": 34.2211,
      "duration": 0.1522,
      "velocity": 91,
      "chip": "ym2612"
    },
    {
      "channel": 4,
      "note": 51,
      "start": 34.2213,
      "duration": 0.1521,
      "velocity": 80,
      "chip": "ym2612"
    },
    {
      "channel": 5,
      "note": 68,
      "start": 34.223,
      "duration": 0.1506,
      "velocity": 127,
      "chip": "ym2612"
    },
    {
      "channel": 3,
      "note": 87,
      "start": 34.3877,
      "duration": 0.1517,
      "velocity": 91,
      "chip": "ym2612"
    },
    {
      "channel": 4,
      "note": 49,
      "start": 34.3879,
      "duration": 0.1517,
      "velocity": 80,
      "chip": "ym2612"
    },
    {
      "channel": 5,
      "note": 56,
      "start": 34.3895,
      "duration": 0.1502,
      "velocity": 127,
      "chip": "ym2612"
    },
    {
      "channel": 3,
      "note": 97,
      "start": 34.5534,
      "duration": 0.1522,
      "velocity": 91,
      "chip": "ym2612"
    },
    {
      "channel": 4,
      "note": 54,
      "start": 34.554,
      "duration": 0.1517,
      "velocity": 80,
      "chip": "ym2612"
    },
    {
      "channel": 5,
      "note": 45,
      "start": 34.5556,
      "duration": 0.1502,
      "velocity": 101,
      "chip": "ym2612"
    },
    {
      "channel": 3,
      "note": 88,
      "start": 34.7195,
      "duration": 0.1522,
      "velocity": 91,
      "chip": "ym2612"
    },
    {
      "channel": 4,
      "note": 52,
      "start": 34.7197,
      "duration": 0.1522,
      "velocity": 80,
      "chip": "ym2612"
    },
    {
      "channel": 5,
      "note": 56,
      "start": 34.7217,
      "duration": 0.1502,
      "velocity": 127,
      "chip": "ym2612"
    },
    {
      "channel": 3,
      "note": 93,
      "start": 34.8856,
      "duration": 0.1522,
      "velocity": 91,
      "chip": "ym2612"
    },
    {
      "channel": 4,
      "note": 54,
      "start": 34.8858,
      "duration": 0.1522,
      "velocity": 80,
      "chip": "ym2612"
    },
    {
      "channel": 5,
      "note": 68,
      "start": 34.8879,
      "duration": 0.1502,
      "velocity": 127,
      "chip": "ym2612"
    },
    {
      "channel": 1,
      "note": 81,
      "start": 35.0517,
      "duration": 0.4429,
      "velocity": 106,
      "chip": "ym2612"
    },
    {
      "channel": 2,
      "note": 76,
      "start": 35.0519,
      "duration": 0.4428,
      "velocity": 106,
      "chip": "ym2612"
    },
    {
      "channel": 3,
      "note": 97,
      "start": 35.0521,
      "duration": 0.1522,
      "velocity": 91,
      "chip": "ym2612"
    },
    {
      "channel": 4,
      "note": 57,
      "start": 35.0523,
      "duration": 0.2902,
      "velocity": 80,
      "chip": "ym2612"
    },
    {
      "channel": 5,
      "note": 56,
      "start": 35.0543,
      "duration": 0.1501,
      "velocity": 127,
      "chip": "ym2612"
    },
    {
      "channel": 3,
      "note": 88,
      "start": 35.2179,
      "duration": 0.1522,
      "velocity": 91,
      "chip": "ym2612"
    },
    {
      "channel": 5,
      "note": 45,
      "start": 35.2195,
      "duration": 0.1511,
      "velocity": 101,
      "chip": "ym2612"
    },
    {
      "channel": 3,
      "note": 93,
      "start": 35.384,
      "duration": 0.1522,
      "velocity": 91,
      "chip": "ym2612"
    },
    {
      "channel": 4,
      "note": 52,
      "start": 35.3842,
      "duration": 0.1521,
      "velocity": 80,
      "chip": "ym2612"
    },
    {
      "channel": 5,
      "note": 45,
      "start": 35.3844,
      "duration": 0.1521,
      "velocity": 101,
      "chip": "ym2612"
    },
    {
      "channel": 3,
      "note": 97,
      "start": 35.5501,
      "duration": 0.1522,
      "velocity": 91,
      "chip": "ym2612"
    },
    {
      "channel": 4,
      "note": 54,
      "start": 35.5503,
      "duration": 0.1522,
      "velocity": 80,
      "chip": "ym2612"
    },
    {
      "channel": 5,
      "note": 68,
      "start": 35.552,
      "duration": 0.1506,
      "velocity": 127,
      "chip": "ym2612"
    },
    {
      "channel": 3,
      "note": 88,
      "start": 35.7162,
      "duration": 0.1522,
      "velocity": 91,
      "chip": "ym2612"
    },
    {
      "channel": 4,
      "note": 52,
      "start": 35.7164,
      "duration": 0.1522,
      "velocity": 80,
      "chip": "ym2612"
    },
    {
      "channel": 5,
      "note": 56,
      "start": 35.7181,
      "duration": 0.1506,
      "velocity": 127,
      "chip": "ym2612"
    },
    {
      "channel": 3,
      "note": 99,
      "start": 35.8824,
      "duration": 0.1522,
      "velocity": 91,
      "chip": "ym2612"
    },
    {
      "channel": 4,
      "note": 54,
      "start": 35.8826,
      "duration": 0.1522,
      "velocity": 80,
      "chip": "ym2612"
    },
    {
      "channel": 5,
      "note": 45,
      "start": 35.8842,
      "duration": 0.1507,
      "velocity": 101,
      "chip": "ym2612"
    },
    {
      "channel": 1,
      "note": 83,
      "start": 36.0485,
      "duration": 0.4429,
      "velocity": 106,
      "chip": "ym2612"
    },
    {
      "channel": 2,
      "note": 78,
      "start": 36.0487,
      "duration": 0.4428,
      "velocity": 106,
      "chip": "ym2612"
    },
    {
      "channel": 3,
      "note": 90,
      "start": 36.0489,
      "duration": 0.1518,
      "velocity": 91,
      "chip": "ym2612"
    },
    {
      "channel": 4,
      "note": 59,
      "start": 36.0491,
      "duration": 0.2901,
      "velocity": 80,
      "chip": "ym2612"
    },
    {
      "channel": 5,
      "note": 56,
      "start": 36.0508,
      "duration": 0.1501,
      "velocity": 127,
      "chip": "ym2612"
    },
    {
      "channel": 3,
      "note": 95,
      "start": 36.2147,
      "duration": 0.1522,
      "velocity": 91,
      "chip": "ym2612"
    },
    {
      "channel": 5,
      "note": 68,
      "start": 36.2163,
      "duration": 0.1506,
      "velocity": 127,
      "chip": "ym2612"
    },
    {
      "channel": 3,
      "note": 99,
      "start": 36.3808,
      "duration": 0.1522,
      "velocity": 91,
      "chip": "ym2612"
    },
    {
      "channel": 4,
      "note": 52,
      "start": 36.381,
      "duration": 0.1522,
      "velocity": 80,
      "chip": "ym2612"
    },
    {
      "channel": 5,
      "note": 56,
      "start": 36.3827,
      "duration": 0.1506,
      "velocity": 127,
      "chip": "ym2612"
    },
    {
      "channel": 1,
      "note": 83,
      "start": 36.5468,
      "duration": 0.1523,
      "velocity": 106,
      "chip": "ym2612"
    },
    {
      "channel": 2,
      "note": 78,
      "start": 36.547,
      "duration": 0.1523,
      "velocity": 106,
      "chip": "ym2612"
    },
    {
      "channel": 3,
      "note": 90,
      "start": 36.5471,
      "duration": 0.1522,
      "velocity": 91,
      "chip": "ym2612"
    },
    {
      "channel": 4,
      "note": 54,
      "start": 36.5473,
      "duration": 0.1522,
      "velocity": 80,
      "chip": "ym2612"
    },
    {
      "channel": 5,
      "note": 45,
      "start": 36.5489,
      "duration": 0.1507,
      "velocity": 101,
      "chip": "ym2612"
    },
    {
      "channel": 3,
      "note": 95,
      "start": 36.713,
      "duration": 0.1522,
      "velocity": 91,
      "chip": "ym2612"
    },
    {
      "channel": 4,
      "note": 52,
      "start": 36.7132,
      "duration": 0.1522,
      "velocity": 80,
      "chip": "ym2612"
    },
    {
      "channel": 5,
      "note": 45,
      "start": 36.7133,
      "duration": 0.1522,
      "velocity": 101,
      "chip": "ym2612"
    },
    {
      "channel": 1,
      "note": 83,
      "start": 36.8791,
      "duration": 0.1523,
      "velocity": 106,
      "chip": "ym2612"
    },
    {
      "channel": 2,
      "note": 78,
      "start": 36.8792,
      "duration": 0.1523,
      "velocity": 106,
      "chip": "ym2612"
    },
    {
      "channel": 3,
      "note": 99,
      "start": 36.8794,
      "duration": 0.1522,
      "velocity": 91,
      "chip": "ym2612"
    },
    {
      "channel": 4,
      "note": 54,
      "start": 36.8796,
      "duration": 0.1522,
      "velocity": 80,
      "chip": "ym2612"
    },
    {
      "channel": 5,
      "note": 68,
      "start": 36.8812,
      "duration": 0.1506,
      "velocity": 127,
      "chip": "ym2612"
    },
    {
      "channel": 3,
      "note": 90,
      "start": 37.0453,
      "duration": 0.1522,
      "velocity": 91,
      "chip": "ym2612"
    },
    {
      "channel": 4,
      "note": 52,
      "start": 37.0455,
      "duration": 0.1521,
      "velocity": 80,
      "chip": "ym2612"
    },
    {
      "channel": 5,
      "note": 56,
      "start": 37.0471,
      "duration": 0.1506,
      "velocity": 127,
      "chip": "ym2612"
    },
    {
      "channel": 3,
      "note": 97,
      "start": 37.2114,
      "duration": 0.1522,
      "velocity": 91,
      "chip": "ym2612"
    },
    {
      "channel": 4,
      "note": 54,
      "start": 37.2116,
      "duration": 0.1522,
      "velocity": 80,
      "chip": "ym2612"
    },
    {
      "channel": 5,
      "note": 45,
      "start": 37.2132,
      "duration": 0.1507,
      "velocity": 101,
      "chip": "ym2612"
    },
    {
      "channel": 3,
      "note": 88,
      "start": 37.3775,
      "duration": 0.1523,
      "velocity": 91,
      "chip": "ym2612"
    },
    {
      "channel": 4,
      "note": 52,
      "start": 37.3777,
      "duration": 0.1522,
      "velocity": 80,
      "chip": "ym2612"
    },
    {
      "channel": 5,
      "note": 56,
      "start": 37.3793,
      "duration": 0.1507,
      "velocity": 127,
      "chip": "ym2612"
    },
    {
      "channel": 3,
      "note": 93,
      "start": 37.5437,
      "duration": 0.1522,
      "velocity": 91,
      "chip": "ym2612"
    },
    {
      "channel": 4,
      "note": 54,
      "start": 37.5438,
      "duration": 0.1521,
      "velocity": 80,
      "chip": "ym2612"
    },
    {
      "channel": 5,
      "note": 68,
      "start": 37.5455,
      "duration": 0.1506,
      "velocity": 127,
      "chip": "ym2612"
    },
    {
      "channel": 1,
      "note": 81,
      "start": 37.7098,
      "duration": 0.4429,
      "velocity": 106,
      "chip": "ym2612"
    },
    {
      "channel": 2,
      "note": 76,
      "start": 37.71,
      "duration": 0.4428,
      "velocity": 106,
      "chip": "ym2612"
    },
    {
      "channel": 3,
      "note": 97,
      "start": 37.7102,
      "duration": 0.1518,
      "velocity": 91,
      "chip": "ym2612"
    },
    {
      "channel": 4,
      "note": 57,
      "start": 37.7104,
      "duration": 0.2901,
      "velocity": 80,
      "chip": "ym2612"
    },
    {
      "channel": 5,
      "note": 56,
      "start": 37.712,
      "duration": 0.15,
      "velocity": 127,
      "chip": "ym2612"
    },
    {
      "channel": 3,
      "note": 88,
      "start": 37.8759,
      "duration": 0.1522,
      "velocity": 91,
      "chip": "ym2612"
    },
    {
      "channel": 5,
      "note": 45,
      "start": 37.8776,
      "duration": 0.1507,
      "velocity": 101,
      "chip": "ym2612"
    },
    {
      "channel": 3,
      "note": 93,
      "start": 38.0421,
      "duration": 0.1522,
      "velocity": 91,
      "chip": "ym2612"
    },
    {
      "channel": 4,
      "note": 52,
      "start": 38.0422,
      "duration": 0.1522,
      "velocity": 80,
      "chip": "ym2612"
    },
    {
      "channel": 5,
      "note": 45,
      "start": 38.0423,
      "duration": 0.1522,
      "velocity": 101,
      "chip": "ym2612"
    },
    {
      "channel": 3,
      "note": 97,
      "start": 38.2082,
      "duration": 0.1522,
      "velocity": 91,
      "chip": "ym2612"
    },
    {
      "channel": 4,
      "note": 54,
      "start": 38.2084,
      "duration": 0.1521,
      "velocity": 80,
      "chip": "ym2612"
    },
    {
      "channel": 5,
      "note": 68,
      "start": 38.21,
      "duration": 0.1506,
      "velocity": 127,
      "chip": "ym2612"
    },
    {
      "channel": 1,
      "note": 83,
      "start": 38.3743,
      "duration": 0.1522,
      "velocity": 106,
      "chip": "ym2612"
    },
    {
      "channel": 2,
      "note": 78,
      "start": 38.3746,
      "duration": 0.152,
      "velocity": 106,
      "chip": "ym2612"
    },
    {
      "channel": 3,
      "note": 88,
      "start": 38.3747,
      "duration": 0.152,
      "velocity": 91,
      "chip": "ym2612"
    },
    {
      "channel": 4,
      "note": 52,
      "start": 38.3749,
      "duration": 0.152,
      "velocity": 80,
      "chip": "ym2612"
    },
    {
      "channel": 5,
      "note": 56,
      "start": 38.3765,
      "duration": 0.1505,
      "velocity": 127,
      "chip": "ym2612"
    },
    {
      "channel": 3,
      "note": 99,
      "start": 38.5404,
      "duration": 0.1522,
      "velocity": 91,
      "chip": "ym2612"
    },
    {
      "channel": 4,
      "note": 54,
      "start": 38.5406,
      "duration": 0.1522,
      "velocity": 80,
      "chip": "ym2612"
    },
    {
      "channel": 5,
      "note": 45,
      "start": 38.5422,
      "duration": 0.1506,
      "velocity": 101,
      "chip": "ym2612"
    },
    {
      "channel": 1,
      "note": 83,
      "start": 38.7065,
      "duration": 0.1523,
      "velocity": 106,
      "chip": "ym2612"
    },
    {
      "channel": 2,
      "note": 78,
      "start": 38.7066,
      "duration": 0.1523,
      "velocity": 106,
      "chip": "ym2612"
    },
    {
      "channel": 3,
      "note": 90,
      "start": 38.7068,
      "duration": 0.1522,
      "velocity": 91,
      "chip": "ym2612"
    },
    {
      "channel": 4,
      "note": 59,
      "start": 38.707,
      "duration": 0.2902,
      "velocity": 80,
      "chip": "ym2612"
    },
    {
      "channel": 5,
      "note": 56,
      "start": 38.7086,
      "duration": 0.1506,
      "velocity": 127,
      "chip": "ym2612"
    },
    {
      "channel": 3,
      "note": 95,
      "start": 38.8727,
      "duration": 0.1522,
      "velocity": 91,
      "chip": "ym2612"
    },
    {
      "channel": 5,
      "note": 68,
      "start": 38.8743,
      "duration": 0.1507,
      "velocity": 127,
      "chip": "ym2612"
    },
    {
      "channel": 1,
      "note": 83,
      "start": 39.0388,
      "duration": 0.1523,
      "velocity": 106,
      "chip": "ym2612"
    },
    {
      "channel": 2,
      "note": 78,
      "start": 39.0389,
      "duration": 0.1523,
      "velocity": 106,
      "chip": "ym2612"
    },
    {
      "channel": 3,
      "note": 99,
      "start": 39.0391,
      "duration": 0.1522,
      "velocity": 91,
      "chip": "ym2612"
    },
    {
      "channel": 4,
      "note": 52,
      "start": 39.0393,
      "duration": 0.1522,
      "velocity": 80,
      "chip": "ym2612"
    },
    {
      "channel": 5,
      "note": 56,
      "start": 39.0409,
      "duration": 0.1506,
      "velocity": 127,
      "chip": "ym2612"
    },
    {
      "channel": 3,
      "note": 90,
      "start": 39.2049,
      "duration": 0.1522,
      "velocity": 91,
      "chip": "ym2612"
    },
    {
      "channel": 4,
      "note": 54,
      "start": 39.2051,
      "duration": 0.1522,
      "velocity": 80,
      "chip": "ym2612"
    },
    {
      "channel": 5,
      "note": 45,
      "start": 39.2068,
      "duration": 0.1506,
      "velocity": 101,
      "chip": "ym2612"
    },
    {
      "channel": 1,
      "note": 83,
      "start": 39.371,
      "duration": 0.443,
      "velocity": 106,
      "chip": "ym2612"
    },
    {
      "channel": 2,
      "note": 78,
      "start": 39.3711,
      "duration": 0.443,
      "velocity": 106,
      "chip": "ym2612"
    },
    {
      "channel": 3,
      "note": 95,
      "start": 39.3713,
      "duration": 0.152,
      "velocity": 91,
      "chip": "ym2612"
    },
    {
      "channel": 4,
      "note": 52,
      "start": 39.3715,
      "duration": 0.1519,
      "velocity": 80,
      "chip": "ym2612"
    },
    {
      "channel": 5,
      "note": 45,
      "start": 39.3716,
      "duration": 0.1519,
      "velocity": 101,
      "chip": "ym2612"
    },
    {
      "channel": 3,
      "note": 99,
      "start": 39.5375,
      "duration": 0.1519,
      "velocity": 91,
      "chip": "ym2612"
    },
    {
      "channel": 4,
      "note": 54,
      "start": 39.5377,
      "duration": 0.1519,
      "velocity": 80,
      "chip": "ym2612"
    },
    {
      "channel": 5,
      "note": 68,
      "start": 39.5393,
      "duration": 0.1503,
      "velocity": 127,
      "chip": "ym2612"
    },
    {
      "channel": 3,
      "note": 90,
      "start": 39.7032,
      "duration": 0.1522,
      "velocity": 91,
      "chip": "ym2612"
    },
    {
      "channel": 4,
      "note": 52,
      "start": 39.7034,
      "duration": 0.1522,
      "velocity": 80,
      "chip": "ym2612"
    },
    {
      "channel": 5,
      "note": 56,
      "start": 39.7055,
      "duration": 0.1502,
      "velocity": 127,
      "chip": "ym2612"
    },
    {
      "channel": 3,
      "note": 97,
      "start": 39.8695,
      "duration": 0.1522,
      "velocity": 91,
      "chip": "ym2612"
    },
    {
      "channel": 4,
      "note": 54,
      "start": 39.8697,
      "duration": 0.1521,
      "velocity": 80,
      "chip": "ym2612"
    },
    {
      "channel": 5,
      "note": 45,
      "start": 39.8717,
      "duration": 0.1502,
      "velocity": 101,
      "chip": "ym2612"
    },
    {
      "channel": 3,
      "note": 88,
      "start": 40.0356,
      "duration": 0.1522,
      "velocity": 91,
      "chip": "ym2612"
    },
    {
      "channel": 4,
      "note": 52,
      "start": 40.0358,
      "duration": 0.1521,
      "velocity": 80,
      "chip": "ym2612"
    },
    {
      "channel": 5,
      "note": 56,
      "start": 40.0378,
      "duration": 0.1502,
      "velocity": 127,
      "chip": "ym2612"
    },
    {
      "channel": 3,
      "note": 93,
      "start": 40.2017,
      "duration": 0.1527,
      "velocity": 91,
      "chip": "ym2612"
    },
    {
      "channel": 4,
      "note": 54,
      "start": 40.2019,
      "duration": 0.1526,
      "velocity": 80,
      "chip": "ym2612"
    },
    {
      "channel": 5,
      "note": 68,
      "start": 40.2035,
      "duration": 0.1511,
      "velocity": 127,
      "chip": "ym2612"
    },
    {
      "channel": 1,
      "note": 81,
      "start": 40.3678,
      "duration": 0.4429,
      "velocity": 106,
      "chip": "ym2612"
    },
    {
      "channel": 2,
      "note": 76,
      "start": 40.368,
      "duration": 0.4429,
      "velocity": 106,
      "chip": "ym2612"
    },
    {
      "channel": 3,
      "note": 97,
      "start": 40.3682,
      "duration": 0.1518,
      "velocity": 91,
      "chip": "ym2612"
    },
    {
      "channel": 4,
      "note": 57,
      "start": 40.3684,
      "duration": 0.2901,
      "velocity": 80,
      "chip": "ym2612"
    },
    {
      "channel": 5,
      "note": 56,
      "start": 40.37,
      "duration": 0.1501,
      "velocity": 127,
      "chip": "ym2612"
    },
    {
      "channel": 3,
      "note": 88,
      "start": 40.534,
      "duration": 0.1522,
      "velocity": 91,
      "chip": "ym2612"
    },
    {
      "channel": 5,
      "note": 45,
      "start": 40.5356,
      "duration": 0.1506,
      "velocity": 101,
      "chip": "ym2612"
    },
    {
      "channel": 3,
      "note": 93,
      "start": 40.7001,
      "duration": 0.1522,
      "velocity": 91,
      "chip": "ym2612"
    },
    {
      "channel": 4,
      "note": 52,
      "start": 40.7003,
      "duration": 0.1521,
      "velocity": 80,
      "chip": "ym2612"
    },
    {
      "channel": 5,
      "note": 45,
      "start": 40.7004,
      "duration": 0.1521,
      "velocity": 101,
      "chip": "ym2612"
    },
    {
      "channel": 3,
      "note": 97,
      "start": 40.8662,
      "duration": 0.1522,
      "velocity": 91,
      "chip": "ym2612"
    },
    {
      "channel": 4,
      "note": 54,
      "start": 40.8664,
      "duration": 0.1521,
      "velocity": 80,
      "chip": "ym2612"
    },
    {
      "channel": 5,
      "note": 68,
      "start": 40.868,
      "duration": 0.1506,
      "velocity": 127,
      "chip": "ym2612"
    },
    {
      "channel": 3,
      "note": 88,
      "start": 41.0323,
      "duration": 0.1522,
      "velocity": 91,
      "chip": "ym2612"
    },
    {
      "channel": 4,
      "note": 52,
      "start": 41.0325,
      "duration": 0.1522,
      "velocity": 80,
      "chip": "ym2612"
    },
    {
      "channel": 5,
      "note": 56,
      "start": 41.0342,
      "duration": 0.1506,
      "velocity": 127,
      "chip": "ym2612"
    },
    {
      "channel": 3,
      "note": 99,
      "start": 41.1985,
      "duration": 0.1522,
      "velocity": 91,
      "chip": "ym2612"
    },
    {
      "channel": 4,
      "note": 54,
      "start": 41.1987,
      "duration": 0.1521,
      "velocity": 80,
      "chip": "ym2612"
    },
    {
      "channel": 5,
      "note": 45,
      "start": 41.2003,
      "duration": 0.1506,
      "velocity": 101,
      "chip": "ym2612"
    },
    {
      "channel": 1,
      "note": 83,
      "start": 41.3646,
      "duration": 0.4429,
      "velocity": 106,
      "chip": "ym2612"
    },
    {
      "channel": 2,
      "note": 78,
      "start": 41.3648,
      "duration": 0.4428,
      "velocity": 106,
      "chip": "ym2612"
    },
    {
      "channel": 3,
      "note": 90,
      "start": 41.365,
      "duration": 0.1518,
      "velocity": 91,
      "chip": "ym2612"
    },
    {
      "channel": 4,
      "note": 59,
      "start": 41.3651,
      "duration": 0.2901,
      "velocity": 80,
      "chip": "ym2612"
    },
    {
      "channel": 5,
      "note": 56,
      "start": 41.3668,
      "duration": 0.1501,
      "velocity": 127,
      "chip": "ym2612"
    },
    {
      "channel": 3,
      "note": 95,
      "start": 41.5307,
      "duration": 0.1522,
      "velocity": 91,
      "chip": "ym2612"
    },
    {
      "channel": 5,
      "note": 68,
      "start": 41.5324,
      "duration": 0.1507,
      "velocity": 127,
      "chip": "ym2612"
    },
    {
      "channel": 3,
      "note": 99,
      "start": 41.6969,
      "duration": 0.1522,
      "velocity": 91,
      "chip": "ym2612"
    },
    {
      "channel": 4,
      "note": 52,
      "start": 41.6971,
      "duration": 0.1521,
      "velocity": 80,
      "chip": "ym2612"
    },
    {
      "channel": 5,
      "note": 56,
      "start": 41.6987,
      "duration": 0.1507,
      "velocity": 127,
      "chip": "ym2612"
    },
    {
      "channel": 1,
      "note": 83,
      "start": 41.8629,
      "duration": 0.1523,
      "velocity": 106,
      "chip": "ym2612"
    },
    {
      "channel": 2,
      "note": 78,
      "start": 41.863,
      "duration": 0.1523,
      "velocity": 106,
      "chip": "ym2612"
    },
    {
      "channel": 3,
      "note": 90,
      "start": 41.8632,
      "duration": 0.1522,
      "velocity": 91,
      "chip": "ym2612"
    },
    {
      "channel": 4,
      "note": 54,
      "start": 41.8634,
      "duration": 0.1522,
      "velocity": 80,
      "chip": "ym2612"
    },
    {
      "channel": 5,
      "note": 45,
      "start": 41.865,
      "duration": 0.1507,
      "velocity": 101,
      "chip": "ym2612"
    },
    {
      "channel": 3,
      "note": 95,
      "start": 42.0291,
      "duration": 0.1522,
      "velocity": 91,
      "chip": "ym2612"
    },
    {
      "channel": 4,
      "note": 52,
      "start": 42.0293,
      "duration": 0.1522,
      "velocity": 80,
      "chip": "ym2612"
    },
    {
      "channel": 5,
      "note": 45,
      "start": 42.0293,
      "duration": 0.1522,
      "velocity": 101,
      "chip": "ym2612"
    },
    {
      "channel": 1,
      "note": 83,
      "start": 42.1952,
      "duration": 0.1522,
      "velocity": 106,
      "chip": "ym2612"
    },
    {
      "channel": 2,
      "note": 78,
      "start": 42.1953,
      "duration": 0.1522,
      "velocity": 106,
      "chip": "ym2612"
    },
    {
      "channel": 3,
      "note": 99,
      "start": 42.1955,
      "duration": 0.1522,
      "velocity": 91,
      "chip": "ym2612"
    },
    {
      "channel": 4,
      "note": 54,
      "start": 42.1957,
      "duration": 0.1521,
      "velocity": 80,
      "chip": "ym2612"
    },
    {
      "channel": 5,
      "note": 68,
      "start": 42.1973,
      "duration": 0.1506,
      "velocity": 127,
      "chip": "ym2612"
    },
    {
      "channel": 3,
      "note": 90,
      "start": 42.3613,
      "duration": 0.1522,
      "velocity": 91,
      "chip": "ym2612"
    },
    {
      "channel": 4,
      "note": 52,
      "start": 42.3615,
      "duration": 0.1522,
      "velocity": 80,
      "chip": "ym2612"
    },
    {
      "channel": 5,
      "note": 56,
      "start": 42.3632,
      "duration": 0.1506,
      "velocity": 127,
      "chip": "ym2612"
    },
    {
      "channel": 3,
      "note": 97,
      "start": 42.5275,
      "duration": 0.1522,
      "velocity": 91,
      "chip": "ym2612"
    },
    {
      "channel": 4,
      "note": 54,
      "start": 42.5277,
      "duration": 0.1522,
      "velocity": 80,
      "chip": "ym2612"
    },
    {
      "channel": 5,
      "note": 45,
      "start": 42.5293,
      "duration": 0.1507,
      "velocity": 101,
      "chip": "ym2612"
    },
    {
      "channel": 3,
      "note": 88,
      "start": 42.6936,
      "duration": 0.1522,
      "velocity": 91,
      "chip": "ym2612"
    },
    {
      "channel": 4,
      "note": 52,
      "start": 42.6938,
      "duration": 0.1521,
      "velocity": 80,
      "chip": "ym2612"
    },
    {
      "channel": 5,
      "note": 56,
      "start": 42.6954,
      "duration": 0.1506,
      "velocity": 127,
      "chip": "ym2612"
    },
    {
      "channel": 3,
      "note": 93,
      "start": 42.8598,
      "duration": 0.1522,
      "velocity": 91,
      "chip": "ym2612"
    },
    {
      "channel": 4,
      "note": 54,
      "start": 42.8599,
      "duration": 0.1521,
      "velocity": 80,
      "chip": "ym2612"
    },
    {
      "channel": 5,
      "note": 68,
      "start": 42.8615,
      "duration": 0.1506,
      "velocity": 127,
      "chip": "ym2612"
    },
    {
      "channel": 1,
      "note": 81,
      "start": 43.0259,
      "duration": 0.4429,
      "velocity": 106,
      "chip": "ym2612"
    },
    {
      "channel": 2,
      "note": 76,
      "start": 43.0261,
      "duration": 0.4428,
      "velocity": 106,
      "chip": "ym2612"
    },
    {
      "channel": 3,
      "note": 97,
      "start": 43.0263,
      "duration": 0.1518,
      "velocity": 91,
      "chip": "ym2612"
    },
    {
      "channel": 4,
      "note": 57,
      "start": 43.0265,
      "duration": 0.29,
      "velocity": 80,
      "chip": "ym2612"
    },
    {
      "channel": 5,
      "note": 56,
      "start": 43.0281,
      "duration": 0.1501,
      "velocity": 127,
      "chip": "ym2612"
    },
    {
      "channel": 3,
      "note": 88,
      "start": 43.192,
      "duration": 0.1522,
      "velocity": 91,
      "chip": "ym2612"
    },
    {
      "channel": 5,
      "note": 45,
      "start": 43.1937,
      "duration": 0.1507,
      "velocity": 101,
      "chip": "ym2612"
    },
    {
      "channel": 3,
      "note": 93,
      "start": 43.3581,
      "duration": 0.1522,
      "velocity": 91,
      "chip": "ym2612"
    },
    {
      "channel": 4,
      "note": 52,
      "start": 43.3583,
      "duration": 0.1521,
      "velocity": 80,
      "chip": "ym2612"
    },
    {
      "channel": 5,
      "note": 45,
      "start": 43.3584,
      "duration": 0.1521,
      "velocity": 101,
      "chip": "ym2612"
    },
    {
      "channel": 3,
      "note": 97,
      "start": 43.5242,
      "duration": 0.1522,
      "velocity": 91,
      "chip": "ym2612"
    },
    {
      "channel": 4,
      "note": 54,
      "start": 43.5244,
      "duration": 0.1522,
      "velocity": 80,
      "chip": "ym2612"
    },
    {
      "channel": 5,
      "note": 68,
      "start": 43.5261,
      "duration": 0.1506,
      "velocity": 127,
      "chip": "ym2612"
    },
    {
      "channel": 1,
      "note": 83,
      "start": 43.6903,
      "duration": 0.1522,
      "velocity": 106,
      "chip": "ym2612"
    },
    {
      "channel": 2,
      "note": 78,
      "start": 43.6905,
      "duration": 0.1521,
      "velocity": 106,
      "chip": "ym2612"
    },
    {
      "channel": 3,
      "note": 88,
      "start": 43.6907,
      "duration": 0.152,
      "velocity": 91,
      "chip": "ym2612"
    },
    {
      "channel": 4,
      "note": 52,
      "start": 43.6909,
      "duration": 0.152,
      "velocity": 80,
      "chip": "ym2612"
    },
    {
      "channel": 5,
      "note": 56,
      "start": 43.6926,
      "duration": 0.1505,
      "velocity": 127,
      "chip": "ym2612"
    },
    {
      "channel": 3,
      "note": 99,
      "start": 43.8564,
      "duration": 0.1523,
      "velocity": 91,
      "chip": "ym2612"
    },
    {
      "channel": 4,
      "note": 54,
      "start": 43.8566,
      "duration": 0.1522,
      "velocity": 80,
      "chip": "ym2612"
    },
    {
      "channel": 5,
      "note": 45,
      "start": 43.8583,
      "duration": 0.1507,
      "velocity": 101,
      "chip": "ym2612"
    },
    {
      "channel": 1,
      "note": 83,
      "start": 44.0225,
      "duration": 0.1523,
      "velocity": 106,
      "chip": "ym2612"
    },
    {
      "channel": 2,
      "note": 78,
      "start": 44.0227,
      "duration": 0.1523,
      "velocity": 106,
      "chip": "ym2612"
    },
    {
      "channel": 3,
      "note": 90,
      "start": 44.0229,
      "duration": 0.1522,
      "velocity": 91,
      "chip": "ym2612"
    },
    {
      "channel": 4,
      "note": 59,
      "start": 44.023,
      "duration": 0.2903,
      "velocity": 80,
      "chip": "ym2612"
    },
    {
      "channel": 5,
      "note": 56,
      "start": 44.0247,
      "duration": 0.1505,
      "velocity": 127,
      "chip": "ym2612"
    },
    {
      "channel": 3,
      "note": 95,
      "start": 44.1888,
      "duration": 0.1522,
      "velocity": 91,
      "chip": "ym2612"
    },
    {
      "channel": 5,
      "note": 68,
      "start": 44.1904,
      "duration": 0.1507,
      "velocity": 127,
      "chip": "ym2612"
    },
    {
      "channel": 1,
      "note": 83,
      "start": 44.3549,
      "duration": 0.1522,
      "velocity": 106,
      "chip": "ym2612"
    },
    {
      "channel": 2,
      "note": 78,
      "start": 44.355,
      "duration": 0.1522,
      "velocity": 106,
      "chip": "ym2612"
    },
    {
      "channel": 3,
      "note": 99,
      "start": 44.3552,
      "duration": 0.1521,
      "velocity": 91,
      "chip": "ym2612"
    },
    {
      "channel": 4,
      "note": 52,
      "start": 44.3554,
      "duration": 0.152,
      "velocity": 80,
      "chip": "ym2612"
    },
    {
      "channel": 5,
      "note": 56,
      "start": 44.357,
      "duration": 0.1505,
      "velocity": 127,
      "chip": "ym2612"
    },
    {
      "channel": 3,
      "note": 90,
      "start": 44.5211,
      "duration": 0.1522,
      "velocity": 91,
      "chip": "ym2612"
    },
    {
      "channel": 4,
      "note": 54,
      "start": 44.5212,
      "duration": 0.1521,
      "velocity": 80,
      "chip": "ym2612"
    },
    {
      "channel": 5,
      "note": 45,
      "start": 44.5229,
      "duration": 0.1506,
      "velocity": 101,
      "chip": "ym2612"
    },
    {
      "channel": 1,
      "note": 83,
      "start": 44.6877,
      "duration": 0.4424,
      "velocity": 106,
      "chip": "ym2612"
    },
    {
      "channel": 2,
      "note": 78,
      "start": 44.6878,
      "duration": 0.4424,
      "velocity": 106,
      "chip": "ym2612"
    },
    {
      "channel": 3,
      "note": 95,
      "start": 44.688,
      "duration": 0.1513,
      "velocity": 91,
      "chip": "ym2612"
    },
    {
      "channel": 4,
      "note": 52,
      "start": 44.6882,
      "duration": 0.1513,
      "velocity": 80,
      "chip": "ym2612"
    },
    {
      "channel": 5,
      "note": 45,
      "start": 44.6883,
      "duration": 0.1513,
      "velocity": 101,
      "chip": "ym2612"
    },
    {
      "channel": 3,
      "note": 99,
      "start": 44.8532,
      "duration": 0.1522,
      "velocity": 91,
      "chip": "ym2612"
    },
    {
      "channel": 4,
      "note": 54,
      "start": 44.8534,
      "duration": 0.1522,
      "velocity": 80,
      "chip": "ym2612"
    },
    {
      "channel": 5,
      "note": 68,
      "start": 44.8555,
      "duration": 0.1502,
      "velocity": 127,
      "chip": "ym2612"
    },
    {
      "channel": 3,
      "note": 90,
      "start": 45.0193,
      "duration": 0.1523,
      "velocity": 91,
      "chip": "ym2612"
    },
    {
      "channel": 4,
      "note": 52,
      "start": 45.0195,
      "duration": 0.1522,
      "velocity": 80,
      "chip": "ym2612"
    },
    {
      "channel": 5,
      "note": 56,
      "start": 45.0216,
      "duration": 0.1503,
      "velocity": 127,
      "chip": "ym2612"
    },
    {
      "channel": 1,
      "note": 87,
      "start": 45.1873,
      "duration": 0.8702,
      "velocity": 100,
      "chip": "ym2612"
    },
    {
      "channel": 2,
      "note": 90,
      "start": 45.189,
      "duration": 0.8687,
      "velocity": 100,
      "chip": "ym2612"
    },
    {
      "channel": 3,
      "note": 90,
      "start": 45.1894,
      "duration": 0.1483,
      "velocity": 91,
      "chip": "ym2612"
    },
    {
      "channel": 4,
      "note": 63,
      "start": 45.1896,
      "duration": 0.1483,
      "velocity": 80,
      "chip": "ym2612"
    },
    {
      "channel": 5,
      "note": 45,
      "start": 45.1912,
      "duration": 0.285,
      "velocity": 101,
      "chip": "ym2612"
    },
    {
      "channel": 3,
      "note": 89,
      "start": 45.3516,
      "duration": 0.1527,
      "velocity": 91,
      "chip": "ym2612"
    },
    {
      "channel": 4,
      "note": 51,
      "start": 45.3518,
      "duration": 0.1527,
      "velocity": 80,
      "chip": "ym2612"
    },
    {
      "channel": 3,
      "note": 85,
      "start": 45.5178,
      "duration": 0.1522,
      "velocity": 91,
      "chip": "ym2612"
    },
    {
      "channel": 4,
      "note": 58,
      "start": 45.518,
      "duration": 0.1521,
      "velocity": 80,
      "chip": "ym2612"
    },
    {
      "channel": 5,
      "note": 68,
      "start": 45.5196,
      "duration": 0.2888,
      "velocity": 127,
      "chip": "ym2612"
    },
    {
      "channel": 3,
      "note": 87,
      "start": 45.6839,
      "duration": 0.2907,
      "velocity": 91,
      "chip": "ym2612"
    },
    {
      "channel": 4,
      "note": 63,
      "start": 45.684,
      "duration": 0.2907,
      "velocity": 80,
      "chip": "ym2612"
    },
    {
      "channel": 5,
      "note": 45,
      "start": 45.8515,
      "duration": 0.1508,
      "velocity": 101,
      "chip": "ym2612"
    },
    {
      "channel": 3,
      "note": 85,
      "start": 46.0161,
      "duration": 0.1523,
      "velocity": 91,
      "chip": "ym2612"
    },
    {
      "channel": 4,
      "note": 51,
      "start": 46.0163,
      "duration": 0.1522,
      "velocity": 80,
      "chip": "ym2612"
    },
    {
      "channel": 5,
      "note": 45,
      "start": 46.0164,
      "duration": 0.1522,
      "velocity": 101,
      "chip": "ym2612"
    },
    {
      "channel": 1,
      "note": 85,
      "start": 46.1823,
      "duration": 0.9136,
      "velocity": 100,
      "chip": "ym2612"
    },
    {
      "channel": 2,
      "note": 89,
      "start": 46.1824,
      "duration": 0.9136,
      "velocity": 100,
      "chip": "ym2612"
    },
    {
      "channel": 3,
      "note": 90,
      "start": 46.1826,
      "duration": 0.1519,
      "velocity": 91,
      "chip": "ym2612"
    },
    {
      "channel": 4,
      "note": 61,
      "start": 46.1828,
      "duration": 0.1519,
      "velocity": 80,
      "chip": "ym2612"
    },
    {
      "channel": 5,
      "note": 68,
      "start": 46.1844,
      "duration": 0.2885,
      "velocity": 127,
      "chip": "ym2612"
    },
    {
      "channel": 3,
      "note": 89,
      "start": 46.3484,
      "duration": 0.1522,
      "velocity": 91,
      "chip": "ym2612"
    },
    {
      "channel": 4,
      "note": 49,
      "start": 46.3486,
      "duration": 0.1521,
      "velocity": 80,
      "chip": "ym2612"
    },
    {
      "channel": 3,
      "note": 85,
      "start": 46.5146,
      "duration": 0.1522,
      "velocity": 91,
      "chip": "ym2612"
    },
    {
      "channel": 4,
      "note": 56,
      "start": 46.5148,
      "duration": 0.1521,
      "velocity": 80,
      "chip": "ym2612"
    },
    {
      "channel": 5,
      "note": 45,
      "start": 46.5163,
      "duration": 0.2889,
      "velocity": 101,
      "chip": "ym2612"
    },
    {
      "channel": 3,
      "note": 87,
      "start": 46.6806,
      "duration": 0.2906,
      "velocity": 91,
      "chip": "ym2612"
    },
    {
      "channel": 4,
      "note": 61,
      "start": 46.6808,
      "duration": 0.2906,
      "velocity": 80,
      "chip": "ym2612"
    },
    {
      "channel": 5,
      "note": 68,
      "start": 46.8483,
      "duration": 0.2894,
      "velocity": 127,
      "chip": "ym2612"
    },
    {
      "channel": 3,
      "note": 85,
      "start": 47.0129,
      "duration": 0.1522,
      "velocity": 91,
      "chip": "ym2612"
    },
    {
      "channel": 4,
      "note": 49,
      "start": 47.0131,
      "duration": 0.1521,
      "velocity": 80,
      "chip": "ym2612"
    },
    {
      "channel": 1,
      "note": 83,
      "start": 47.179,
      "duration": 0.1522,
      "velocity": 100,
      "chip": "ym2612"
    },
    {
      "channel": 2,
      "note": 87,
      "start": 47.1792,
      "duration": 0.1521,
      "velocity": 100,
      "chip": "ym2612"
    },
    {
      "channel": 3,
      "note": 87,
      "start": 47.1794,
      "duration": 0.152,
      "velocity": 91,
      "chip": "ym2612"
    },
    {
      "channel": 4,
      "note": 59,
      "start": 47.1796,
      "duration": 0.152,
      "velocity": 80,
      "chip": "ym2612"
    },
    {
      "channel": 5,
      "note": 45,
      "start": 47.1812,
      "duration": 0.1504,
      "velocity": 101,
      "chip": "ym2612"
    },
    {
      "channel": 1,
      "note": 82,
      "start": 47.3452,
      "duration": 0.1522,
      "velocity": 100,
      "chip": "ym2612"
    },
    {
      "channel": 2,
      "note": 85,
      "start": 47.3453,
      "duration": 0.1522,
      "velocity": 100,
      "chip": "ym2612"
    },
    {
      "channel": 3,
      "note": 89,
      "start": 47.3455,
      "duration": 0.1521,
      "velocity": 91,
      "chip": "ym2612"
    },
    {
      "channel": 4,
      "note": 58,
      "start": 47.3457,
      "duration": 0.152,
      "velocity": 80,
      "chip": "ym2612"
    },
    {
      "channel": 5,
      "note": 45,
      "start": 47.3458,
      "duration": 0.152,
      "velocity": 101,
      "chip": "ym2612"
    },
    {
      "channel": 1,
      "note": 80,
      "start": 47.5112,
      "duration": 0.1522,
      "velocity": 100,
      "chip": "ym2612"
    },
    {
      "channel": 2,
      "note": 83,
      "start": 47.5114,
      "duration": 0.1522,
      "velocity": 100,
      "chip": "ym2612"
    },
    {
      "channel": 3,
      "note": 90,
      "start": 47.5116,
      "duration": 0.1521,
      "velocity": 91,
      "chip": "ym2612"
    },
    {
      "channel": 4,
      "note": 56,
      "start": 47.5118,
      "duration": 0.152,
      "velocity": 80,
      "chip": "ym2612"
    },
    {
      "channel": 5,
      "note": 68,
      "start": 47.5134,
      "duration": 0.2885,
      "velocity": 127,
      "chip": "ym2612"
    },
    {
      "channel": 1,
      "note": 78,
      "start": 47.6774,
      "duration": 0.1522,
      "velocity": 100,
      "chip": "ym2612"
    },
    {
      "channel": 2,
      "note": 82,
      "start": 47.6776,
      "duration": 0.1522,
      "velocity": 100,
      "chip": "ym2612"
    },
    {
      "channel": 3,
      "note": 92,
      "start": 47.6778,
      "duration": 0.1521,
      "velocity": 91,
      "chip": "ym2612"
    },
    {
      "channel": 4,
      "note": 54,
      "start": 47.6779,
      "duration": 0.152,
      "velocity": 80,
      "chip": "ym2612"
    },
    {
      "channel": 1,
      "note": 80,
      "start": 47.8435,
      "duration": 1.1629,
      "velocity": 100,
      "chip": "ym2612"
    },
    {
      "channel": 2,
      "note": 83,
      "start": 47.8437,
      "duration": 1.1628,
      "velocity": 100,
      "chip": "ym2612"
    },
    {
      "channel": 3,
      "note": 90,
      "start": 47.8439,
      "duration": 0.1518,
      "velocity": 91,
      "chip": "ym2612"
    },
    {
      "channel": 4,
      "note": 56,
      "start": 47.8441,
      "duration": 0.1518,
      "velocity": 80,
      "chip": "ym2612"
    },
    {
      "channel": 5,
      "note": 45,
      "start": 47.8457,
      "duration": 0.2885,
      "velocity": 101,
      "chip": "ym2612"
    },
    {
      "channel": 3,
      "note": 87,
      "start": 48.0096,
      "duration": 0.1523,
      "velocity": 91,
      "chip": "ym2612"
    },
    {
      "channel": 4,
      "note": 54,
      "start": 48.0098,
      "duration": 0.1522,
      "velocity": 80,
      "chip": "ym2612"
    },
    {
      "channel": 4,
      "note": 56,
      "start": 48.1758,
      "duration": 0.1522,
      "velocity": 80,
      "chip": "ym2612"
    },
    {
      "channel": 5,
      "note": 68,
      "start": 48.1774,
      "duration": 0.289,
      "velocity": 127,
      "chip": "ym2612"
    },
    {
      "channel": 3,
      "note": 83,
      "start": 48.3419,
      "duration": 0.2907,
      "velocity": 91,
      "chip": "ym2612"
    },
    {
      "channel": 4,
      "note": 56,
      "start": 48.3421,
      "duration": 0.2906,
      "velocity": 80,
      "chip": "ym2612"
    },
    {
      "channel": 5,
      "note": 45,
      "start": 48.5095,
      "duration": 0.1507,
      "velocity": 101,
      "chip": "ym2612"
    },
    {
      "channel": 3,
      "note": 87,
      "start": 48.6742,
      "duration": 0.1522,
      "velocity": 91,
      "chip": "ym2612"
    },
    {
      "channel": 4,
      "note": 54,
      "start": 48.6744,
      "duration": 0.1522,
      "velocity": 80,
      "chip": "ym2612"
    },
    {
      "channel": 5,
      "note": 45,
      "start": 48.6745,
      "duration": 0.1522,
      "velocity": 101,
      "chip": "ym2612"
    },
    {
      "channel": 3,
      "note": 94,
      "start": 48.8403,
      "duration": 0.1522,
      "velocity": 91,
      "chip": "ym2612"
    },
    {
      "channel": 4,
      "note": 56,
      "start": 48.8405,
      "duration": 0.1522,
      "velocity": 80,
      "chip": "ym2612"
    },
    {
      "channel": 5,
      "note": 68,
      "start": 48.8421,
      "duration": 0.2889,
      "velocity": 127,
      "chip": "ym2612"
    },
    {
      "channel": 3,
      "note": 90,
      "start": 49.0067,
      "duration": 0.1519,
      "velocity": 91,
      "chip": "ym2612"
    },
    {
      "channel": 4,
      "note": 54,
      "start": 49.0069,
      "duration": 0.1519,
      "velocity": 80,
      "chip": "ym2612"
    },
    {
      "channel": 1,
      "note": 82,
      "start": 49.1725,
      "duration": 1.1628,
      "velocity": 100,
      "chip": "ym2612"
    },
    {
      "channel": 2,
      "note": 85,
      "start": 49.1727,
      "duration": 1.1627,
      "velocity": 100,
      "chip": "ym2612"
    },
    {
      "channel": 3,
      "note": 92,
      "start": 49.1729,
      "duration": 0.1519,
      "velocity": 91,
      "chip": "ym2612"
    },
    {
      "channel": 4,
      "note": 58,
      "start": 49.1731,
      "duration": 0.1518,
      "velocity": 80,
      "chip": "ym2612"
    },
    {
      "channel": 5,
      "note": 45,
      "start": 49.1748,
      "duration": 0.2884,
      "velocity": 101,
      "chip": "ym2612"
    },
    {
      "channel": 3,
      "note": 90,
      "start": 49.3386,
      "duration": 0.1522,
      "velocity": 91,
      "chip": "ym2612"
    },
    {
      "channel": 4,
      "note": 56,
      "start": 49.3388,
      "duration": 0.1522,
      "velocity": 80,
      "chip": "ym2612"
    },
    {
      "channel": 4,
      "note": 58,
      "start": 49.5048,
      "duration": 0.1523,
      "velocity": 80,
      "chip": "ym2612"
    },
    {
      "channel": 5,
      "note": 68,
      "start": 49.5064,
      "duration": 0.289,
      "velocity": 127,
      "chip": "ym2612"
    },
    {
      "channel": 3,
      "note": 89,
      "start": 49.6711,
      "duration": 0.152,
      "velocity": 91,
      "chip": "ym2612"
    },
    {
      "channel": 4,
      "note": 58,
      "start": 49.6712,
      "duration": 0.2903,
      "velocity": 80,
      "chip": "ym2612"
    },
    {
      "channel": 5,
      "note": 45,
      "start": 49.8389,
      "duration": 0.1504,
      "velocity": 101,
      "chip": "ym2612"
    },
    {
      "channel": 3,
      "note": 85,
      "start": 50.0032,
      "duration": 0.4429,
      "velocity": 91,
      "chip": "ym2612"
    },
    {
      "channel": 4,
      "note": 56,
      "start": 50.0034,
      "duration": 0.152,
      "velocity": 80,
      "chip": "ym2612"
    },
    {
      "channel": 5,
      "note": 45,
      "start": 50.0035,
      "duration": 0.152,
      "velocity": 101,
      "chip": "ym2612"
    },
    {
      "channel": 4,
      "note": 58,
      "start": 50.1693,
      "duration": 0.1522,
      "velocity": 80,
      "chip": "ym2612"
    },
    {
      "channel": 5,
      "note": 68,
      "start": 50.1714,
      "duration": 0.2885,
      "velocity": 127,
      "chip": "ym2612"
    },
    {
      "channel": 4,
      "note": 56,
      "start": 50.3357,
      "duration": 0.152,
      "velocity": 80,
      "chip": "ym2612"
    },
    {
      "channel": 1,
      "note": 83,
      "start": 50.5015,
      "duration": 0.8721,
      "velocity": 100,
      "chip": "ym2612"
    },
    {
      "channel": 2,
      "note": 87,
      "start": 50.5017,
      "duration": 0.8721,
      "velocity": 100,
      "chip": "ym2612"
    },
    {
      "channel": 3,
      "note": 90,
      "start": 50.5019,
      "duration": 0.1522,
      "velocity": 91,
      "chip": "ym2612"
    },
    {
      "channel": 4,
      "note": 59,
      "start": 50.502,
      "duration": 0.1522,
      "velocity": 80,
      "chip": "ym2612"
    },
    {
      "channel": 5,
      "note": 45,
      "start": 50.5041,
      "duration": 0.2882,
      "velocity": 101,
      "chip": "ym2612"
    },
    {
      "channel": 3,
      "note": 89,
      "start": 50.6677,
      "duration": 0.1522,
      "velocity": 91,
      "chip": "ym2612"
    },
    {
      "channel": 4,
      "note": 47,
      "start": 50.6679,
      "duration": 0.1522,
      "velocity": 80,
      "chip": "ym2612"
    },
    {
      "channel": 3,
      "note": 85,
      "start": 50.8339,
      "duration": 0.1522,
      "velocity": 91,
      "chip": "ym2612"
    },
    {
      "channel": 4,
      "note": 54,
      "start": 50.834,
      "duration": 0.1521,
      "velocity": 80,
      "chip": "ym2612"
    },
    {
      "channel": 5,
      "note": 68,
      "start": 50.8357,
      "duration": 0.2888,
      "velocity": 127,
      "chip": "ym2612"
    },
    {
      "channel": 3,
      "note": 87,
      "start": 50.9999,
      "duration": 0.2907,
      "velocity": 91,
      "chip": "ym2612"
    },
    {
      "channel": 4,
      "note": 59,
      "start": 51.0001,
      "duration": 0.2907,
      "velocity": 80,
      "chip": "ym2612"
    },
    {
      "channel": 5,
      "note": 45,
      "start": 51.1675,
      "duration": 0.1508,
      "velocity": 101,
      "chip": "ym2612"
    },
    {
      "channel": 3,
      "note": 85,
      "start": 51.3322,
      "duration": 0.1522,
      "velocity": 91,
      "chip": "ym2612"
    },
    {
      "channel": 4,
      "note": 47,
      "start": 51.3324,
      "duration": 0.1522,
      "velocity": 80,
      "chip": "ym2612"
    },
    {
      "channel": 5,
      "note": 45,
      "start": 51.3324,
      "duration": 0.1522,
      "velocity": 101,
      "chip": "ym2612"
    },
    {
      "channel": 1,
      "note": 85,
      "start": 51.4983,
      "duration": 0.9137,
      "velocity": 100,
      "chip": "ym2612"
    },
    {
      "channel": 2,
      "note": 89,
      "start": 51.4985,
      "duration": 0.9136,
      "velocity": 100,
      "chip": "ym2612"
    },
    {
      "channel": 3,
      "note": 90,
      "start": 51.4987,
      "duration": 0.1519,
      "velocity": 91,
      "chip": "ym2612"
    },
    {
      "channel": 4,
      "note": 61,
      "start": 51.4989,
      "duration": 0.1518,
      "velocity": 80,
      "chip": "ym2612"
    },
    {
      "channel": 5,
      "note": 68,
      "start": 51.5005,
      "duration": 0.2885,
      "velocity": 127,
      "chip": "ym2612"
    },
    {
      "channel": 3,
      "note": 89,
      "start": 51.6644,
      "duration": 0.1522,
      "velocity": 91,
      "chip": "ym2612"
    },
    {
      "channel": 4,
      "note": 49,
      "start": 51.6646,
      "duration": 0.1522,
      "velocity": 80,
      "chip": "ym2612"
    },
    {
      "channel": 3,
      "note": 85,
      "start": 51.8305,
      "duration": 0.1522,
      "velocity": 91,
      "chip": "ym2612"
    },
    {
      "channel": 4,
      "note": 56,
      "start": 51.8307,
      "duration": 0.1522,
      "velocity": 80,
      "chip": "ym2612"
    },
    {
      "channel": 5,
      "note": 45,
      "start": 51.8324,
      "duration": 0.2889,
      "velocity": 101,
      "chip": "ym2612"
    },
    {
      "channel": 3,
      "note": 87,
      "start": 51.9967,
      "duration": 0.291,
      "velocity": 91,
      "chip": "ym2612"
    },
    {
      "channel": 4,
      "note": 61,
      "start": 51.9969,
      "duration": 0.2909,
      "velocity": 80,
      "chip": "ym2612"
    },
    {
      "channel": 5,
      "note": 68,
      "start": 52.1643,
      "duration": 0.2892,
      "velocity": 127,
      "chip": "ym2612"
    },
    {
      "channel": 3,
      "note": 85,
      "start": 52.329,
      "duration": 0.1522,
      "velocity": 91,
      "chip": "ym2612"
    },
    {
      "channel": 4,
      "note": 49,
      "start": 52.3291,
      "duration": 0.1522,
      "velocity": 80,
      "chip": "ym2612"
    },
    {
      "channel": 1,
      "note": 85,
      "start": 52.495,
      "duration": 0.2907,
      "velocity": 100,
      "chip": "ym2612"
    },
    {
      "channel": 2,
      "note": 89,
      "start": 52.4951,
      "duration": 0.2907,
      "velocity": 100,
      "chip": "ym2612"
    },
    {
      "channel": 3,
      "note": 87,
      "start": 52.4953,
      "duration": 0.152,
      "velocity": 91,
      "chip": "ym2612"
    },
    {
      "channel": 4,
      "note": 61,
      "start": 52.4955,
      "duration": 0.1519,
      "velocity": 80,
      "chip": "ym2612"
    },
    {
      "channel": 5,
      "note": 45,
      "start": 52.4971,
      "duration": 0.1504,
      "velocity": 101,
      "chip": "ym2612"
    },
    {
      "channel": 3,
      "note": 89,
      "start": 52.6612,
      "duration": 0.1522,
      "velocity": 91,
      "chip": "ym2612"
    },
    {
      "channel": 4,
      "note": 49,
      "start": 52.6614,
      "duration": 0.1521,
      "velocity": 80,
      "chip": "ym2612"
    },
    {
      "channel": 5,
      "note": 45,
      "start": 52.6615,
      "duration": 0.1521,
      "velocity": 101,
      "chip": "ym2612"
    },
    {
      "channel": 1,
      "note": 86,
      "start": 52.8273,
      "duration": 0.2907,
      "velocity": 100,
      "chip": "ym2612"
    },
    {
      "channel": 2,
      "note": 89,
      "start": 52.8274,
      "duration": 0.2907,
      "velocity": 100,
      "chip": "ym2612"
    },
    {
      "channel": 3,
      "note": 90,
      "start": 52.8276,
      "duration": 0.1519,
      "velocity": 91,
      "chip": "ym2612"
    },
    {
      "channel": 4,
      "note": 62,
      "start": 52.8278,
      "duration": 0.1519,
      "velocity": 80,
      "chip": "ym2612"
    },
    {
      "channel": 5,
      "note": 68,
      "start": 52.8295,
      "duration": 0.2888,
      "velocity": 127,
      "chip": "ym2612"
    },
    {
      "channel": 3,
      "note": 92,
      "start": 52.9934,
      "duration": 0.1522,
      "velocity": 91,
      "chip": "ym2612"
    },
    {
      "channel": 4,
      "note": 50,
      "start": 52.9937,
      "duration": 0.1522,
      "velocity": 80,
      "chip": "ym2612"
    },
    {
      "channel": 1,
      "note": 78,
      "start": 53.1595,
      "duration": 0.1522,
      "velocity": 100,
      "chip": "ym2612"
    },
    {
      "channel": 2,
      "note": 73,
      "start": 53.1598,
      "duration": 0.1522,
      "velocity": 100,
      "chip": "ym2612"
    },
    {
      "channel": 4,
      "note": 54,
      "start": 53.1599,
      "duration": 0.1521,
      "velocity": 80,
      "chip": "ym2612"
    },
    {
      "channel": 5,
      "note": 68,
      "start": 53.1601,
      "duration": 0.1521,
      "velocity": 127,
      "chip": "ym2612"
    },
    {
      "channel": 4,
      "note": 51,
      "start": 53.3258,
      "duration": 0.1522,
      "velocity": 80,
      "chip": "ym2612"
    },
    {
      "channel": 5,
      "note": 45,
      "start": 53.3274,
      "duration": 0.1506,
      "velocity": 101,
      "chip": "ym2612"
    },
    {
      "channel": 4,
      "note": 51,
      "start": 53.4918,
      "duration": 0.1523,
      "velocity": 80,
      "chip": "ym2612"
    },
    {
      "channel": 5,
      "note": 45,
      "start": 53.4919,
      "duration": 0.1523,
      "velocity": 101,
      "chip": "ym2612"
    },
    {
      "channel": 1,
      "note": 80,
      "start": 53.658,
      "duration": 0.1522,
      "velocity": 100,
      "chip": "ym2612"
    },
    {
      "channel": 2,
      "note": 75,
      "start": 53.6581,
      "duration": 0.1521,
      "velocity": 100,
      "chip": "ym2612"
    },
    {
      "channel": 4,
      "note": 56,
      "start": 53.6584,
      "duration": 0.152,
      "velocity": 80,
      "chip": "ym2612"
    },
    {
      "channel": 5,
      "note": 68,
      "start": 53.66,
      "duration": 0.0672,
      "velocity": 127,
      "chip": "ym2612"
    },
    {
      "channel": 5,
      "note": 68,
      "start": 53.741,
      "duration": 0.0696,
      "velocity": 127,
      "chip": "ym2612"
    },
    {
      "channel": 4,
      "note": 51,
      "start": 53.8241,
      "duration": 0.1522,
      "velocity": 80,
      "chip": "ym2612"
    },
    {
      "channel": 5,
      "note": 45,
      "start": 53.8258,
      "duration": 0.1507,
      "velocity": 101,
      "chip": "ym2612"
    },
    {
      "channel": 4,
      "note": 51,
      "start": 53.9902,
      "duration": 0.1522,
      "velocity": 80,
      "chip": "ym2612"
    },
    {
      "channel": 5,
      "note": 45,
      "start": 53.9903,
      "duration": 0.1522,
      "velocity": 101,
      "chip": "ym2612"
    },
    {
      "channel": 1,
      "note": 78,
      "start": 54.1564,
      "duration": 0.1522,
      "velocity": 100,
      "chip": "ym2612"
    },
    {
      "channel": 2,
      "note": 73,
      "start": 54.1566,
      "duration": 0.1521,
      "velocity": 100,
      "chip": "ym2612"
    },
    {
      "channel": 4,
      "note": 54,
      "start": 54.1568,
      "duration": 0.152,
      "velocity": 80,
      "chip": "ym2612"
    },
    {
      "channel": 5,
      "note": 68,
      "start": 54.1584,
      "duration": 0.1505,
      "velocity": 127,
      "chip": "ym2612"
    },
    {
      "channel": 4,
      "note": 51,
      "start": 54.3225,
      "duration": 0.1523,
      "velocity": 80,
      "chip": "ym2612"
    },
    {
      "channel": 5,
      "note": 45,
      "start": 54.3241,
      "duration": 0.1507,
      "velocity": 101,
      "chip": "ym2612"
    },
    {
      "channel": 1,
      "note": 78,
      "start": 54.4885,
      "duration": 0.1522,
      "velocity": 100,
      "chip": "ym2612"
    },
    {
      "channel": 2,
      "note": 73,
      "start": 54.4887,
      "duration": 0.1522,
      "velocity": 100,
      "chip": "ym2612"
    },
    {
      "channel": 4,
      "note": 54,
      "start": 54.4889,
      "duration": 0.1522,
      "velocity": 80,
      "chip": "ym2612"
    },
    {
      "channel": 5,
      "note": 68,
      "start": 54.4905,
      "duration": 0.1506,
      "velocity": 127,
      "chip": "ym2612"
    },
    {
      "channel": 4,
      "note": 51,
      "start": 54.6548,
      "duration": 0.1522,
      "velocity": 80,
      "chip": "ym2612"
    },
    {
      "channel": 5,
      "note": 45,
      "start": 54.6564,
      "duration": 0.1506,
      "velocity": 101,
      "chip": "ym2612"
    },
    {
      "channel": 4,
      "note": 51,
      "start": 54.821,
      "duration": 0.1521,
      "velocity": 80,
      "chip": "ym2612"
    },
    {
      "channel": 5,
      "note": 45,
      "start": 54.8211,
      "duration": 0.1521,
      "velocity": 101,
      "chip": "ym2612"
    },
    {
      "channel": 1,
      "note": 80,
      "start": 54.9873,
      "duration": 0.1518,
      "velocity": 100,
      "chip": "ym2612"
    },
    {
      "channel": 2,
      "note": 75,
      "start": 54.9876,
      "duration": 0.1517,
      "velocity": 100,
      "chip": "ym2612"
    },
    {
      "channel": 4,
      "note": 56,
      "start": 54.9878,
      "duration": 0.1517,
      "velocity": 80,
      "chip": "ym2612"
    },
    {
      "channel": 5,
      "note": 68,
      "start": 54.9895,
      "duration": 0.0667,
      "velocity": 127,
      "chip": "ym2612"
    },
    {
      "channel": 5,
      "note": 68,
      "start": 55.07,
      "duration": 0.0695,
      "velocity": 127,
      "chip": "ym2612"
    },
    {
      "channel": 4,
      "note": 51,
      "start": 55.1531,
      "duration": 0.1522,
      "velocity": 80,
      "chip": "ym2612"
    },
    {
      "channel": 5,
      "note": 45,
      "start": 55.1552,
      "duration": 0.1502,
      "velocity": 101,
      "chip": "ym2612"
    },
    {
      "channel": 4,
      "note": 51,
      "start": 55.3192,
      "duration": 0.1522,
      "velocity": 80,
      "chip": "ym2612"
    },
    {
      "channel": 5,
      "note": 45,
      "start": 55.3193,
      "duration": 0.1522,
      "velocity": 101,
      "chip": "ym2612"
    },
    {
      "channel": 1,
      "note": 78,
      "start": 55.4854,
      "duration": 0.1522,
      "velocity": 100,
      "chip": "ym2612"
    },
    {
      "channel": 2,
      "note": 73,
      "start": 55.4856,
      "duration": 0.1521,
      "velocity": 100,
      "chip": "ym2612"
    },
    {
      "channel": 4,
      "note": 54,
      "start": 55.4858,
      "duration": 0.152,
      "velocity": 80,
      "chip": "ym2612"
    },
    {
      "channel": 5,
      "note": 68,
      "start": 55.4879,
      "duration": 0.1501,
      "velocity": 127,
      "chip": "ym2612"
    },
    {
      "channel": 4,
      "note": 51,
      "start": 55.6515,
      "duration": 0.1528,
      "velocity": 80,
      "chip": "ym2612"
    },
    {
      "channel": 5,
      "note": 45,
      "start": 55.6531,
      "duration": 0.1513,
      "velocity": 101,
      "chip": "ym2612"
    },
    {
      "channel": 1,
      "note": 87,
      "start": 55.8176,
      "duration": 0.872,
      "velocity": 100,
      "chip": "ym2612"
    },
    {
      "channel": 2,
      "note": 90,
      "start": 55.8178,
      "duration": 0.872,
      "velocity": 100,
      "chip": "ym2612"
    },
    {
      "channel": 3,
      "note": 90,
      "start": 55.818,
      "duration": 0.1519,
      "velocity": 91,
      "chip": "ym2612"
    },
    {
      "channel": 4,
      "note": 63,
      "start": 55.8182,
      "duration": 0.1518,
      "velocity": 80,
      "chip": "ym2612"
    },
    {
      "channel": 5,
      "note": 45,
      "start": 55.8183,
      "duration": 0.29,
      "velocity": 101,
      "chip": "ym2612"
    },
    {
      "channel": 3,
      "note": 89,
      "start": 55.9837,
      "duration": 0.1522,
      "velocity": 91,
      "chip": "ym2612"
    },
    {
      "channel": 4,
      "note": 51,
      "start": 55.9839,
      "duration": 0.1522,
      "velocity": 80,
      "chip": "ym2612"
    },
    {
      "channel": 3,
      "note": 85,
      "start": 56.1499,
      "duration": 0.1522,
      "velocity": 91,
      "chip": "ym2612"
    },
    {
      "channel": 4,
      "note": 58,
      "start": 56.1501,
      "duration": 0.1521,
      "velocity": 80,
      "chip": "ym2612"
    },
    {
      "channel": 5,
      "note": 68,
      "start": 56.1517,
      "duration": 0.2889,
      "velocity": 127,
      "chip": "ym2612"
    },
    {
      "channel": 3,
      "note": 87,
      "start": 56.316,
      "duration": 0.2907,
      "velocity": 91,
      "chip": "ym2612"
    },
    {
      "channel": 4,
      "note": 63,
      "start": 56.3162,
      "duration": 0.2907,
      "velocity": 80,
      "chip": "ym2612"
    },
    {
      "channel": 5,
      "note": 45,
      "start": 56.4837,
      "duration": 0.1507,
      "velocity": 101,
      "chip": "ym2612"
    },
    {
      "channel": 3,
      "note": 85,
      "start": 56.6482,
      "duration": 0.1523,
      "velocity": 91,
      "chip": "ym2612"
    },
    {
      "channel": 4,
      "note": 51,
      "start": 56.6484,
      "duration": 0.1522,
      "velocity": 80,
      "chip": "ym2612"
    },
    {
      "channel": 5,
      "note": 45,
      "start": 56.6485,
      "duration": 0.1522,
      "velocity": 101,
      "chip": "ym2612"
    },
    {
      "channel": 1,
      "note": 85,
      "start": 56.8144,
      "duration": 0.9136,
      "velocity": 100,
      "chip": "ym2612"
    },
    {
      "channel": 2,
      "note": 89,
      "start": 56.8145,
      "duration": 0.9136,
      "velocity": 100,
      "chip": "ym2612"
    },
    {
      "channel": 3,
      "note": 90,
      "start": 56.8147,
      "duration": 0.1519,
      "velocity": 91,
      "chip": "ym2612"
    },
    {
      "channel": 4,
      "note": 61,
      "start": 56.8149,
      "duration": 0.1518,
      "velocity": 80,
      "chip": "ym2612"
    },
    {
      "channel": 5,
      "note": 68,
      "start": 56.8166,
      "duration": 0.2885,
      "velocity": 127,
      "chip": "ym2612"
    },
    {
      "channel": 3,
      "note": 89,
      "start": 56.9805,
      "duration": 0.1522,
      "velocity": 91,
      "chip": "ym2612"
    },
    {
      "channel": 4,
      "note": 49,
      "start": 56.9807,
      "duration": 0.1522,
      "velocity": 80,
      "chip": "ym2612"
    },
    {
      "channel": 3,
      "note": 85,
      "start": 57.1466,
      "duration": 0.1522,
      "velocity": 91,
      "chip": "ym2612"
    },
    {
      "channel": 4,
      "note": 56,
      "start": 57.1468,
      "duration": 0.1522,
      "velocity": 80,
      "chip": "ym2612"
    },
    {
      "channel": 5,
      "note": 45,
      "start": 57.1485,
      "duration": 0.2892,
      "velocity": 101,
      "chip": "ym2612"
    },
    {
      "channel": 3,
      "note": 87,
      "start": 57.3127,
      "duration": 0.2907,
      "velocity": 91,
      "chip": "ym2612"
    },
    {
      "channel": 4,
      "note": 61,
      "start": 57.3129,
      "duration": 0.2907,
      "velocity": 80,
      "chip": "ym2612"
    },
    {
      "channel": 5,
      "note": 68,
      "start": 57.4804,
      "duration": 0.2892,
      "velocity": 127,
      "chip": "ym2612"
    },
    {
      "channel": 3,
      "note": 85,
      "start": 57.6451,
      "duration": 0.1522,
      "velocity": 91,
      "chip": "ym2612"
    },
    {
      "channel": 4,
      "note": 49,
      "start": 57.6452,
      "duration": 0.1522,
      "velocity": 80,
      "chip": "ym2612"
    },
    {
      "channel": 1,
      "note": 83,
      "start": 57.8111,
      "duration": 0.1522,
      "velocity": 100,
      "chip": "ym2612"
    },
    {
      "channel": 2,
      "note": 87,
      "start": 57.8113,
      "duration": 0.1522,
      "velocity": 100,
      "chip": "ym2612"
    },
    {
      "channel": 3,
      "note": 87,
      "start": 57.8115,
      "duration": 0.1521,
      "velocity": 91,
      "chip": "ym2612"
    },
    {
      "channel": 4,
      "note": 59,
      "start": 57.8117,
      "duration": 0.152,
      "velocity": 80,
      "chip": "ym2612"
    },
    {
      "channel": 5,
      "note": 45,
      "start": 57.8133,
      "duration": 0.1505,
      "velocity": 101,
      "chip": "ym2612"
    },
    {
      "channel": 1,
      "note": 82,
      "start": 57.9772,
      "duration": 0.1522,
      "velocity": 100,
      "chip": "ym2612"
    },
    {
      "channel": 2,
      "note": 85,
      "start": 57.9774,
      "duration": 0.1522,
      "velocity": 100,
      "chip": "ym2612"
    },
    {
      "channel": 3,
      "note": 89,
      "start": 57.9776,
      "duration": 0.1521,
      "velocity": 91,
      "chip": "ym2612"
    },
    {
      "channel": 4,
      "note": 58,
      "start": 57.9778,
      "duration": 0.152,
      "velocity": 80,
      "chip": "ym2612"
    },
    {
      "channel": 5,
      "note": 45,
      "start": 57.9779,
      "duration": 0.152,
      "velocity": 101,
      "chip": "ym2612"
    },
    {
      "channel": 1,
      "note": 80,
      "start": 58.1434,
      "duration": 0.1522,
      "velocity": 100,
      "chip": "ym2612"
    },
    {
      "channel": 2,
      "note": 83,
      "start": 58.1436,
      "duration": 0.1521,
      "velocity": 100,
      "chip": "ym2612"
    },
    {
      "channel": 3,
      "note": 90,
      "start": 58.1438,
      "duration": 0.152,
      "velocity": 91,
      "chip": "ym2612"
    },
    {
      "channel": 4,
      "note": 56,
      "start": 58.144,
      "duration": 0.152,
      "velocity": 80,
      "chip": "ym2612"
    },
    {
      "channel": 5,
      "note": 68,
      "start": 58.1456,
      "duration": 0.2885,
      "velocity": 127,
      "chip": "ym2612"
    },
    {
      "channel": 1,
      "note": 78,
      "start": 58.3095,
      "duration": 0.1522,
      "velocity": 100,
      "chip": "ym2612"
    },
    {
      "channel": 2,
      "note": 82,
      "start": 58.3097,
      "duration": 0.1522,
      "velocity": 100,
      "chip": "ym2612"
    },
    {
      "channel": 3,
      "note": 92,
      "start": 58.3099,
      "duration": 0.1521,
      "velocity": 91,
      "chip": "ym2612"
    },
    {
      "channel": 4,
      "note": 54,
      "start": 58.3101,
      "duration": 0.152,
      "velocity": 80,
      "chip": "ym2612"
    },
    {
      "channel": 1,
      "note": 80,
      "start": 58.4756,
      "duration": 1.1628,
      "velocity": 100,
      "chip": "ym2612"
    },
    {
      "channel": 2,
      "note": 83,
      "start": 58.4758,
      "duration": 1.1627,
      "velocity": 100,
      "chip": "ym2612"
    },
    {
      "channel": 3,
      "note": 90,
      "start": 58.476,
      "duration": 0.1518,
      "velocity": 91,
      "chip": "ym2612"
    },
    {
      "channel": 4,
      "note": 56,
      "start": 58.4762,
      "duration": 0.1518,
      "velocity": 80,
      "chip": "ym2612"
    },
    {
      "channel": 5,
      "note": 45,
      "start": 58.4779,
      "duration": 0.2885,
      "velocity": 101,
      "chip": "ym2612"
    },
    {
      "channel": 3,
      "note": 87,
      "start": 58.6417,
      "duration": 0.1523,
      "velocity": 91,
      "chip": "ym2612"
    },
    {
      "channel": 4,
      "note": 54,
      "start": 58.6419,
      "duration": 0.1522,
      "velocity": 80,
      "chip": "ym2612"
    },
    {
      "channel": 4,
      "note": 56,
      "start": 58.808,
      "duration": 0.1522,
      "velocity": 80,
      "chip": "ym2612"
    },
    {
      "channel": 5,
      "note": 68,
      "start": 58.8096,
      "duration": 0.2889,
      "velocity": 127,
      "chip": "ym2612"
    },
    {
      "channel": 3,
      "note": 83,
      "start": 58.9741,
      "duration": 0.2906,
      "velocity": 91,
      "chip": "ym2612"
    },
    {
      "channel": 4,
      "note": 56,
      "start": 58.9742,
      "duration": 0.2906,
      "velocity": 80,
      "chip": "ym2612"
    },
    {
      "channel": 5,
      "note": 45,
      "start": 59.1416,
      "duration": 0.1508,
      "velocity": 101,
      "chip": "ym2612"
    },
    {
      "channel": 3,
      "note": 87,
      "start": 59.3063,
      "duration": 0.1522,
      "velocity": 91,
      "chip": "ym2612"
    },
    {
      "channel": 4,
      "note": 54,
      "start": 59.3065,
      "duration": 0.1521,
      "velocity": 80,
      "chip": "ym2612"
    },
    {
      "channel": 5,
      "note": 45,
      "start": 59.3066,
      "duration": 0.1521,
      "velocity": 101,
      "chip": "ym2612"
    },
    {
      "channel": 3,
      "note": 94,
      "start": 59.4724,
      "duration": 0.1522,
      "velocity": 91,
      "chip": "ym2612"
    },
    {
      "channel": 4,
      "note": 56,
      "start": 59.4726,
      "duration": 0.1522,
      "velocity": 80,
      "chip": "ym2612"
    },
    {
      "channel": 5,
      "note": 68,
      "start": 59.4742,
      "duration": 0.2889,
      "velocity": 127,
      "chip": "ym2612"
    },
    {
      "channel": 3,
      "note": 90,
      "start": 59.6388,
      "duration": 0.152,
      "velocity": 91,
      "chip": "ym2612"
    },
    {
      "channel": 4,
      "note": 54,
      "start": 59.6389,
      "duration": 0.152,
      "velocity": 80,
      "chip": "ym2612"
    },
    {
      "channel": 1,
      "note": 82,
      "start": 59.8046,
      "duration": 1.1628,
      "velocity": 100,
      "chip": "ym2612"
    },
    {
      "channel": 2,
      "note": 85,
      "start": 59.8049,
      "duration": 1.1627,
      "velocity": 100,
      "chip": "ym2612"
    },
    {
      "channel": 3,
      "note": 92,
      "start": 59.805,
      "duration": 0.1518,
      "velocity": 91,
      "chip": "ym2612"
    },
    {
      "channel": 4,
      "note": 58,
      "start": 59.8052,
      "duration": 0.1518,
      "velocity": 80,
      "chip": "ym2612"
    },
    {
      "channel": 5,
      "note": 45,
      "start": 59.8069,
      "duration": 0.2884,
      "velocity": 101,
      "chip": "ym2612"
    },
    {
      "channel": 3,
      "note": 90,
      "start": 59.9711,
      "duration": 0.1519,
      "velocity": 91,
      "chip": "ym2612"
    },
    {
      "channel": 4,
      "note": 56,
      "start": 59.9712,
      "duration": 0.1519,
      "velocity": 80,
      "chip": "ym2612"
    },
    {
      "channel": 4,
      "note": 58,
      "start": 60.137,
      "duration": 0.1522,
      "velocity": 80,
      "chip": "ym2612"
    },
    {
      "channel": 5,
      "note": 68,
      "start": 60.1389,
      "duration": 0.2887,
      "velocity": 127,
      "chip": "ym2612"
    },
    {
      "channel": 3,
      "note": 89,
      "start": 60.3031,
      "duration": 0.1522,
      "velocity": 91,
      "chip": "ym2612"
    },
    {
      "channel": 4,
      "note": 58,
      "start": 60.3032,
      "duration": 0.2905,
      "velocity": 80,
      "chip": "ym2612"
    },
    {
      "channel": 5,
      "note": 45,
      "start": 60.4711,
      "duration": 0.1503,
      "velocity": 101,
      "chip": "ym2612"
    },
    {
      "channel": 3,
      "note": 85,
      "start": 60.6354,
      "duration": 0.4428,
      "velocity": 91,
      "chip": "ym2612"
    },
    {
      "channel": 4,
      "note": 56,
      "start": 60.6356,
      "duration": 0.1521,
      "velocity": 80,
      "chip": "ym2612"
    },
    {
      "channel": 5,
      "note": 45,
      "start": 60.6357,
      "duration": 0.1521,
      "velocity": 101,
      "chip": "ym2612"
    },
    {
      "channel": 4,
      "note": 58,
      "start": 60.8014,
      "duration": 0.1526,
      "velocity": 80,
      "chip": "ym2612"
    },
    {
      "channel": 5,
      "note": 68,
      "start": 60.8031,
      "duration": 0.289,
      "velocity": 127,
      "chip": "ym2612"
    },
    {
      "channel": 4,
      "note": 56,
      "start": 60.9678,
      "duration": 0.152,
      "velocity": 80,
      "chip": "ym2612"
    },
    {
      "channel": 1,
      "note": 83,
      "start": 61.1337,
      "duration": 0.8721,
      "velocity": 100,
      "chip": "ym2612"
    },
    {
      "channel": 2,
      "note": 87,
      "start": 61.1339,
      "duration": 0.872,
      "velocity": 100,
      "chip": "ym2612"
    },
    {
      "channel": 3,
      "note": 90,
      "start": 61.134,
      "duration": 0.1519,
      "velocity": 91,
      "chip": "ym2612"
    },
    {
      "channel": 4,
      "note": 59,
      "start": 61.1342,
      "duration": 0.1518,
      "velocity": 80,
      "chip": "ym2612"
    },
    {
      "channel": 5,
      "note": 45,
      "start": 61.1359,
      "duration": 0.2885,
      "velocity": 101,
      "chip": "ym2612"
    },
    {
      "channel": 3,
      "note": 89,
      "start": 61.2998,
      "duration": 0.1522,
      "velocity": 91,
      "chip": "ym2612"
    },
    {
      "channel": 4,
      "note": 47,
      "start": 61.3,
      "duration": 0.1522,
      "velocity": 80,
      "chip": "ym2612"
    },
    {
      "channel": 3,
      "note": 85,
      "start": 61.4659,
      "duration": 0.1523,
      "velocity": 91,
      "chip": "ym2612"
    },
    {
      "channel": 4,
      "note": 54,
      "start": 61.4661,
      "duration": 0.1522,
      "velocity": 80,
      "chip": "ym2612"
    },
    {
      "channel": 5,
      "note": 68,
      "start": 61.4678,
      "duration": 0.2889,
      "velocity": 127,
      "chip": "ym2612"
    },
    {
      "channel": 3,
      "note": 87,
      "start": 61.6321,
      "duration": 0.2907,
      "velocity": 91,
      "chip": "ym2612"
    },
    {
      "channel": 4,
      "note": 59,
      "start": 61.6323,
      "duration": 0.2906,
      "velocity": 80,
      "chip": "ym2612"
    },
    {
      "channel": 5,
      "note": 45,
      "start": 61.7997,
      "duration": 0.1507,
      "velocity": 101,
      "chip": "ym2612"
    },
    {
      "channel": 3,
      "note": 85,
      "start": 61.9643,
      "duration": 0.1522,
      "velocity": 91,
      "chip": "ym2612"
    },
    {
      "channel": 4,
      "note": 47,
      "start": 61.9645,
      "duration": 0.1522,
      "velocity": 80,
      "chip": "ym2612"
    },
    {
      "channel": 5,
      "note": 45,
      "start": 61.9646,
      "duration": 0.1522,
      "velocity": 101,
      "chip": "ym2612"
    },
    {
      "channel": 1,
      "note": 85,
      "start": 62.1304,
      "duration": 0.9136,
      "velocity": 100,
      "chip": "ym2612"
    },
    {
      "channel": 2,
      "note": 89,
      "start": 62.1306,
      "duration": 0.9135,
      "velocity": 100,
      "chip": "ym2612"
    },
    {
      "channel": 3,
      "note": 90,
      "start": 62.1308,
      "duration": 0.1519,
      "velocity": 91,
      "chip": "ym2612"
    },
    {
      "channel": 4,
      "note": 61,
      "start": 62.131,
      "duration": 0.1518,
      "velocity": 80,
      "chip": "ym2612"
    },
    {
      "channel": 5,
      "note": 68,
      "start": 62.1327,
      "duration": 0.2885,
      "velocity": 127,
      "chip": "ym2612"
    },
    {
      "channel": 3,
      "note": 89,
      "start": 62.2966,
      "duration": 0.1522,
      "velocity": 91,
      "chip": "ym2612"
    },
    {
      "channel": 4,
      "note": 49,
      "start": 62.2968,
      "duration": 0.1522,
      "velocity": 80,
      "chip": "ym2612"
    },
    {
      "channel": 3,
      "note": 85,
      "start": 62.4627,
      "duration": 0.1523,
      "velocity": 91,
      "chip": "ym2612"
    },
    {
      "channel": 4,
      "note": 56,
      "start": 62.4629,
      "duration": 0.1522,
      "velocity": 80,
      "chip": "ym2612"
    },
    {
      "channel": 5,
      "note": 45,
      "start": 62.4645,
      "duration": 0.2889,
      "velocity": 101,
      "chip": "ym2612"
    },
    {
      "channel": 3,
      "note": 87,
      "start": 62.6288,
      "duration": 0.2907,
      "velocity": 91,
      "chip": "ym2612"
    },
    {
      "channel": 4,
      "note": 61,
      "start": 62.629,
      "duration": 0.2906,
      "velocity": 80,
      "chip": "ym2612"
    },
    {
      "channel": 5,
      "note": 68,
      "start": 62.7964,
      "duration": 0.2892,
      "velocity": 127,
      "chip": "ym2612"
    },
    {
      "channel": 3,
      "note": 85,
      "start": 62.9611,
      "duration": 0.1522,
      "velocity": 91,
      "chip": "ym2612"
    },
    {
      "channel": 4,
      "note": 49,
      "start": 62.9613,
      "duration": 0.1522,
      "velocity": 80,
      "chip": "ym2612"
    },
    {
      "channel": 1,
      "note": 85,
      "start": 63.1272,
      "duration": 0.2907,
      "velocity": 100,
      "chip": "ym2612"
    },
    {
      "channel": 2,
      "note": 89,
      "start": 63.1273,
      "duration": 0.2907,
      "velocity": 100,
      "chip": "ym2612"
    },
    {
      "channel": 3,
      "note": 87,
      "start": 63.1275,
      "duration": 0.152,
      "velocity": 91,
      "chip": "ym2612"
    },
    {
      "channel": 4,
      "note": 61,
      "start": 63.1276,
      "duration": 0.152,
      "velocity": 80,
      "chip": "ym2612"
    },
    {
      "channel": 5,
      "note": 45,
      "start": 63.1293,
      "duration": 0.1504,
      "velocity": 101,
      "chip": "ym2612"
    },
    {
      "channel": 3,
      "note": 89,
      "start": 63.2933,
      "duration": 0.1522,
      "velocity": 91,
      "chip": "ym2612"
    },
    {
      "channel": 4,
      "note": 49,
      "start": 63.2935,
      "duration": 0.1521,
      "velocity": 80,
      "chip": "ym2612"
    },
    {
      "channel": 5,
      "note": 45,
      "start": 63.2937,
      "duration": 0.1521,
      "velocity": 101,
      "chip": "ym2612"
    },
    {
      "channel": 1,
      "note": 86,
      "start": 63.4595,
      "duration": 0.2906,
      "velocity": 100,
      "chip": "ym2612"
    },
    {
      "channel": 2,
      "note": 89,
      "start": 63.4595,
      "duration": 0.2907,
      "velocity": 100,
      "chip": "ym2612"
    },
    {
      "channel": 3,
      "note": 90,
      "start": 63.4598,
      "duration": 0.1519,
      "velocity": 91,
      "chip": "ym2612"
    },
    {
      "channel": 4,
      "note": 62,
      "start": 63.4599,
      "duration": 0.1518,
      "velocity": 80,
      "chip": "ym2612"
    },
    {
      "channel": 5,
      "note": 68,
      "start": 63.4616,
      "duration": 0.2887,
      "velocity": 127,
      "chip": "ym2612"
    },
    {
      "channel": 3,
      "note": 92,
      "start": 63.6256,
      "duration": 0.1522,
      "velocity": 91,
      "chip": "ym2612"
    },
    {
      "channel": 4,
      "note": 50,
      "start": 63.6258,
      "duration": 0.1522,
      "velocity": 80,
      "chip": "ym2612"
    },
    {
      "channel": 2,
      "note": 77,
      "start": 63.7944,
      "duration": 0.1495,
      "velocity": 106,
      "chip": "ym2612"
    },
    {
      "channel": 3,
      "note": 82,
      "start": 63.7961,
      "duration": 0.148,
      "velocity": 106,
      "chip": "ym2612"
    },
    {
      "channel": 4,
      "note": 58,
      "start": 63.7963,
      "duration": 0.148,
      "velocity": 80,
      "chip": "ym2612"
    },
    {
      "channel": 5,
      "note": 68,
      "start": 63.7964,
      "duration": 0.0645,
      "velocity": 127,
      "chip": "ym2612"
    },
    {
      "channel": 5,
      "note": 68,
      "start": 63.8748,
      "duration": 0.0696,
      "velocity": 127,
      "chip": "ym2612"
    },
    {
      "channel": 4,
      "note": 46,
      "start": 63.9578,
      "duration": 0.1435,
      "velocity": 80,
      "chip": "ym2612"
    },
    {
      "channel": 5,
      "note": 45,
      "start": 63.9595,
      "duration": 0.1419,
      "velocity": 101,
      "chip": "ym2612"
    }
  ]
}