{
  "track_name": "04 - Stage Select 2",
  "duration_sec": 324.421,
  "sample_rate": 44100,
  "note_count": 9953,
  "unique_pitches": 22,
  "pitch_range": 55,
  "avg_note_duration": 0.1653,
  "reconstruction_stats": {
    "notes_reconstructed": 9953,
    "keyon_events": 9953,
    "keyoff_events": 9948,
    "orphan_keyons": 5,
    "unique_pitches": 22,
    "pitch_range": 55,
    "avg_duration_sec": 0.1653
  },
  "metadata": {
    "source": "O\\Ooparts\\04 - Stage Select 2.vgz"
  },
  "notes": [
    {
      "channel": 0,
      "note": -1,
      "start": 0.0244,
      "duration": 0.0146,
      "velocity": 127,
      "chip": "ym2612"
    },
    {
      "channel": 1,
      "note": -1,
      "start": 0.0248,
      "duration": 0.1079,
      "velocity": 93,
      "chip": "ym2612"
    },
    {
      "channel": 0,
      "note": 76,
      "start": 0.039,
      "duration": 0.0936,
      "velocity": 127,
      "chip": "ym2612"
    },
    {
      "channel": 0,
      "note": 68,
      "start": 0.1326,
      "duration": 0.0154,
      "velocity": 127,
      "chip": "ym2612"
    },
    {
      "channel": 1,
      "note": 59,
      "start": 0.1327,
      "duration": 0.2179,
      "velocity": 93,
      "chip": "ym2612"
    },
    {
      "channel": 0,
      "note": 76,
      "start": 0.1479,
      "duration": 0.0934,
      "velocity": 127,
      "chip": "ym2612"
    },
    {
      "channel": 0,
      "note": 66,
      "start": 0.3504,
      "duration": 0.0154,
      "velocity": 127,
      "chip": "ym2612"
    },
    {
      "channel": 1,
      "note": 61,
      "start": 0.3506,
      "duration": 0.1089,
      "velocity": 93,
      "chip": "ym2612"
    },
    {
      "channel": 0,
      "note": 76,
      "start": 0.3658,
      "duration": 0.0936,
      "velocity": 127,
      "chip": "ym2612"
    },
    {
      "channel": 0,
      "note": 68,
      "start": 0.4594,
      "duration": 0.0154,
      "velocity": 127,
      "chip": "ym2612"
    },
    {
      "channel": 1,
      "note": 62,
      "start": 0.4595,
      "duration": 0.1089,
      "velocity": 93,
      "chip": "ym2612"
    },
    {
      "channel": 0,
      "note": 76,
      "start": 0.4747,
      "duration": 0.0936,
      "velocity": 127,
      "chip": "ym2612"
    },
    {
      "channel": 0,
      "note": 68,
      "start": 0.5683,
      "duration": 0.0154,
      "velocity": 127,
      "chip": "ym2612"
    },
    {
      "channel": 1,
      "note": 64,
      "start": 0.5685,
      "duration": 0.1089,
      "velocity": 93,
      "chip": "ym2612"
    },
    {
      "channel": 0,
      "note": 76,
      "start": 0.5837,
      "duration": 0.0936,
      "velocity": 127,
      "chip": "ym2612"
    },
    {
      "channel": 0,
      "note": 68,
      "start": 0.6773,
      "duration": 0.0154,
      "velocity": 127,
      "chip": "ym2612"
    },
    {
      "channel": 1,
      "note": 66,
      "start": 0.6774,
      "duration": 0.2179,
      "velocity": 93,
      "chip": "ym2612"
    },
    {
      "channel": 0,
      "note": 76,
      "start": 0.6926,
      "duration": 0.0934,
      "velocity": 127,
      "chip": "ym2612"
    },
    {
      "channel": 0,
      "note": 66,
      "start": 0.8951,
      "duration": 0.1089,
      "velocity": 114,
      "chip": "ym2612"
    },
    {
      "channel": 1,
      "note": 57,
      "start": 0.8953,
      "duration": 0.2178,
      "velocity": 93,
      "chip": "ym2612"
    },
    {
      "channel": 3,
      "note": -1,
      "start": 0.8958,
      "duration": 0.1086,
      "velocity": 94,
      "chip": "ym2612"
    },
    {
      "channel": 5,
      "note": -1,
      "start": 0.8962,
      "duration": 0.1083,
      "velocity": 94,
      "chip": "ym2612"
    },
    {
      "channel": 0,
      "note": 54,
      "start": 1.0041,
      "duration": 0.0309,
      "velocity": 114,
      "chip": "ym2612"
    },
    {
      "channel": 3,
      "note": 81,
      "start": 1.0044,
      "duration": 0.109,
      "velocity": 94,
      "chip": "ym2612"
    },
    {
      "channel": 5,
      "note": 81,
      "start": 1.0046,
      "duration": 0.109,
      "velocity": 94,
      "chip": "ym2612"
    },
    {
      "channel": 0,
      "note": 98,
      "start": 1.113,
      "duration": 0.0309,
      "velocity": 114,
      "chip": "ym2612"
    },
    {
      "channel": 1,
      "note": 59,
      "start": 1.1132,
      "duration": 0.2179,
      "velocity": 93,
      "chip": "ym2612"
    },
    {
      "channel": 3,
      "note": 69,
      "start": 1.1133,
      "duration": 0.1089,
      "velocity": 94,
      "chip": "ym2612"
    },
    {
      "channel": 5,
      "note": 69,
      "start": 1.1135,
      "duration": 0.1089,
      "velocity": 94,
      "chip": "ym2612"
    },
    {
      "channel": 0,
      "note": 98,
      "start": 1.222,
      "duration": 0.0309,
      "velocity": 114,
      "chip": "ym2612"
    },
    {
      "channel": 3,
      "note": 74,
      "start": 1.2222,
      "duration": 0.109,
      "velocity": 94,
      "chip": "ym2612"
    },
    {
      "channel": 5,
      "note": 74,
      "start": 1.2224,
      "duration": 0.109,
      "velocity": 94,
      "chip": "ym2612"
    },
    {
      "channel": 0,
      "note": 98,
      "start": 1.3309,
      "duration": 0.0154,
      "velocity": 127,
      "chip": "ym2612"
    },
    {
      "channel": 1,
      "note": 59,
      "start": 1.3311,
      "duration": 0.2178,
      "velocity": 93,
      "chip": "ym2612"
    },
    {
      "channel": 0,
      "note": 76,
      "start": 1.3463,
      "duration": 0.0936,
      "velocity": 114,
      "chip": "ym2612"
    },
    {
      "channel": 0,
      "note": 68,
      "start": 1.4399,
      "duration": 0.0309,
      "velocity": 114,
      "chip": "ym2612"
    },
    {
      "channel": 3,
      "note": 76,
      "start": 1.4401,
      "duration": 0.109,
      "velocity": 94,
      "chip": "ym2612"
    },
    {
      "channel": 5,
      "note": 76,
      "start": 1.4405,
      "duration": 0.1088,
      "velocity": 94,
      "chip": "ym2612"
    },
    {
      "channel": 0,
      "note": 98,
      "start": 1.5488,
      "duration": 0.0309,
      "velocity": 114,
      "chip": "ym2612"
    },
    {
      "channel": 1,
      "note": 59,
      "start": 1.5489,
      "duration": 0.2179,
      "velocity": 93,
      "chip": "ym2612"
    },
    {
      "channel": 3,
      "note": 81,
      "start": 1.5491,
      "duration": 0.1089,
      "velocity": 94,
      "chip": "ym2612"
    },
    {
      "channel": 5,
      "note": 81,
      "start": 1.5493,
      "duration": 0.1089,
      "velocity": 94,
      "chip": "ym2612"
    },
    {
      "channel": 0,
      "note": 98,
      "start": 1.6578,
      "duration": 0.0309,
      "velocity": 114,
      "chip": "ym2612"
    },
    {
      "channel": 3,
      "note": 69,
      "start": 1.658,
      "duration": 0.109,
      "velocity": 94,
      "chip": "ym2612"
    },
    {
      "channel": 5,
      "note": 69,
      "start": 1.6582,
      "duration": 0.109,
      "velocity": 94,
      "chip": "ym2612"
    },
    {
      "channel": 0,
      "note": 98,
      "start": 1.7667,
      "duration": 0.1089,
      "velocity": 114,
      "chip": "ym2612"
    },
    {
      "channel": 1,
      "note": 59,
      "start": 1.7668,
      "duration": 0.2178,
      "velocity": 93,
      "chip": "ym2612"
    },
    {
      "channel": 3,
      "note": 81,
      "start": 1.767,
      "duration": 0.1089,
      "velocity": 94,
      "chip": "ym2612"
    },
    {
      "channel": 5,
      "note": 81,
      "start": 1.7672,
      "duration": 0.1089,
      "velocity": 94,
      "chip": "ym2612"
    },
    {
      "channel": 0,
      "note": 54,
      "start": 1.8756,
      "duration": 0.0309,
      "velocity": 114,
      "chip": "ym2612"
    },
    {
      "channel": 3,
      "note": 71,
      "start": 1.8759,
      "duration": 0.109,
      "velocity": 94,
      "chip": "ym2612"
    },
    {
      "channel": 5,
      "note": 71,
      "start": 1.8761,
      "duration": 0.109,
      "velocity": 94,
      "chip": "ym2612"
    },
    {
      "channel": 0,
      "note": 98,
      "start": 1.9846,
      "duration": 0.0309,
      "velocity": 114,
      "chip": "ym2612"
    },
    {
      "channel": 1,
      "note": 59,
      "start": 1.9847,
      "duration": 0.2179,
      "velocity": 93,
      "chip": "ym2612"
    },
    {
      "channel": 3,
      "note": 74,
      "start": 1.9849,
      "duration": 0.1089,
      "velocity": 94,
      "chip": "ym2612"
    },
    {
      "channel": 5,
      "note": 74,
      "start": 1.9851,
      "duration": 0.1089,
      "velocity": 94,
      "chip": "ym2612"
    },
    {
      "channel": 0,
      "note": 98,
      "start": 2.0935,
      "duration": 0.0309,
      "velocity": 114,
      "chip": "ym2612"
    },
    {
      "channel": 0,
      "note": 98,
      "start": 2.2024,
      "duration": 0.0154,
      "velocity": 127,
      "chip": "ym2612"
    },
    {
      "channel": 1,
      "note": 59,
      "start": 2.2026,
      "duration": 0.2178,
      "velocity": 93,
      "chip": "ym2612"
    },
    {
      "channel": 3,
      "note": 76,
      "start": 2.2028,
      "duration": 0.1089,
      "velocity": 94,
      "chip": "ym2612"
    },
    {
      "channel": 5,
      "note": 76,
      "start": 2.203,
      "duration": 0.1089,
      "velocity": 94,
      "chip": "ym2612"
    },
    {
      "channel": 0,
      "note": 76,
      "start": 2.2178,
      "duration": 0.0936,
      "velocity": 114,
      "chip": "ym2612"
    },
    {
      "channel": 0,
      "note": 68,
      "start": 2.3114,
      "duration": 0.0309,
      "velocity": 114,
      "chip": "ym2612"
    },
    {
      "channel": 5,
      "note": 78,
      "start": 2.3119,
      "duration": 0.109,
      "velocity": 94,
      "chip": "ym2612"
    },
    {
      "channel": 0,
      "note": 98,
      "start": 2.4203,
      "duration": 0.0309,
      "velocity": 114,
      "chip": "ym2612"
    },
    {
      "channel": 1,
      "note": 59,
      "start": 2.4205,
      "duration": 0.2179,
      "velocity": 93,
      "chip": "ym2612"
    },
    {
      "channel": 3,
      "note": 78,
      "start": 2.4207,
      "duration": 0.1088,
      "velocity": 94,
      "chip": "ym2612"
    },
    {
      "channel": 5,
      "note": 81,
      "start": 2.4209,
      "duration": 0.1088,
      "velocity": 94,
      "chip": "ym2612"
    },
    {
      "channel": 0,
      "note": 98,
      "start": 2.5293,
      "duration": 0.0309,
      "velocity": 114,
      "chip": "ym2612"
    },
    {
      "channel": 3,
      "note": 81,
      "start": 2.5295,
      "duration": 0.109,
      "velocity": 94,
      "chip": "ym2612"
    },
    {
      "channel": 5,
      "note": 69,
      "start": 2.5298,
      "duration": 0.109,
      "velocity": 94,
      "chip": "ym2612"
    },
    {
      "channel": 0,
      "note": 98,
      "start": 2.6382,
      "duration": 0.1089,
      "velocity": 114,
      "chip": "ym2612"
    },
    {
      "channel": 1,
      "note": 59,
      "start": 2.6384,
      "duration": 0.2178,
      "velocity": 93,
      "chip": "ym2612"
    },
    {
      "channel": 3,
      "note": 69,
      "start": 2.6385,
      "duration": 0.1089,
      "velocity": 94,
      "chip": "ym2612"
    },
    {
      "channel": 5,
      "note": 74,
      "start": 2.6388,
      "duration": 0.1088,
      "velocity": 94,
      "chip": "ym2612"
    },
    {
      "channel": 0,
      "note": 54,
      "start": 2.7472,
      "duration": 0.0309,
      "velocity": 114,
      "chip": "ym2612"
    },
    {
      "channel": 3,
      "note": 74,
      "start": 2.7474,
      "duration": 0.109,
      "velocity": 94,
      "chip": "ym2612"
    },
    {
      "channel": 0,
      "note": 98,
      "start": 2.8561,
      "duration": 0.0309,
      "velocity": 114,
      "chip": "ym2612"
    },
    {
      "channel": 1,
      "note": 59,
      "start": 2.8562,
      "duration": 0.218,
      "velocity": 93,
      "chip": "ym2612"
    },
    {
      "channel": 5,
      "note": 76,
      "start": 2.8566,
      "duration": 0.1089,
      "velocity": 94,
      "chip": "ym2612"
    },
    {
      "channel": 0,
      "note": 98,
      "start": 2.9651,
      "duration": 0.0309,
      "velocity": 114,
      "chip": "ym2612"
    },
    {
      "channel": 3,
      "note": 76,
      "start": 2.9653,
      "duration": 0.1091,
      "velocity": 94,
      "chip": "ym2612"
    },
    {
      "channel": 5,
      "note": 81,
      "start": 2.9655,
      "duration": 0.1091,
      "velocity": 94,
      "chip": "ym2612"
    },
    {
      "channel": 0,
      "note": 98,
      "start": 3.0741,
      "duration": 0.0153,
      "velocity": 127,
      "chip": "ym2612"
    },
    {
      "channel": 1,
      "note": 59,
      "start": 3.0742,
      "duration": 0.2178,
      "velocity": 93,
      "chip": "ym2612"
    },
    {
      "channel": 3,
      "note": 81,
      "start": 3.0744,
      "duration": 0.1088,
      "velocity": 94,
      "chip": "ym2612"
    },
    {
      "channel": 5,
      "note": 69,
      "start": 3.0746,
      "duration": 0.1088,
      "velocity": 94,
      "chip": "ym2612"
    },
    {
      "channel": 0,
      "note": 76,
      "start": 3.0893,
      "duration": 0.0936,
      "velocity": 114,
      "chip": "ym2612"
    },
    {
      "channel": 0,
      "note": 68,
      "start": 3.1829,
      "duration": 0.0309,
      "velocity": 114,
      "chip": "ym2612"
    },
    {
      "channel": 3,
      "note": 69,
      "start": 3.1832,
      "duration": 0.109,
      "velocity": 94,
      "chip": "ym2612"
    },
    {
      "channel": 5,
      "note": 81,
      "start": 3.1834,
      "duration": 0.109,
      "velocity": 94,
      "chip": "ym2612"
    },
    {
      "channel": 0,
      "note": 98,
      "start": 3.2919,
      "duration": 0.0309,
      "velocity": 114,
      "chip": "ym2612"
    },
    {
      "channel": 1,
      "note": 59,
      "start": 3.292,
      "duration": 0.2179,
      "velocity": 93,
      "chip": "ym2612"
    },
    {
      "channel": 3,
      "note": 81,
      "start": 3.2922,
      "duration": 0.1089,
      "velocity": 94,
      "chip": "ym2612"
    },
    {
      "channel": 5,
      "note": 71,
      "start": 3.2924,
      "duration": 0.1089,
      "velocity": 94,
      "chip": "ym2612"
    },
    {
      "channel": 0,
      "note": 98,
      "start": 3.4008,
      "duration": 0.0309,
      "velocity": 114,
      "chip": "ym2612"
    },
    {
      "channel": 3,
      "note": 71,
      "start": 3.4011,
      "duration": 0.109,
      "velocity": 94,
      "chip": "ym2612"
    },
    {
      "channel": 5,
      "note": 74,
      "start": 3.4013,
      "duration": 0.109,
      "velocity": 94,
      "chip": "ym2612"
    },
    {
      "channel": 0,
      "note": 98,
      "start": 3.5098,
      "duration": 0.1089,
      "velocity": 127,
      "chip": "ym2612"
    },
    {
      "channel": 1,
      "note": 59,
      "start": 3.5099,
      "duration": 0.2178,
      "velocity": 93,
      "chip": "ym2612"
    },
    {
      "channel": 3,
      "note": 74,
      "start": 3.5101,
      "duration": 0.1088,
      "velocity": 94,
      "chip": "ym2612"
    },
    {
      "channel": 0,
      "note": 54,
      "start": 3.6187,
      "duration": 0.0154,
      "velocity": 127,
      "chip": "ym2612"
    },
    {
      "channel": 5,
      "note": 76,
      "start": 3.6191,
      "duration": 0.109,
      "velocity": 94,
      "chip": "ym2612"
    },
    {
      "channel": 0,
      "note": 76,
      "start": 3.6341,
      "duration": 0.0936,
      "velocity": 114,
      "chip": "ym2612"
    },
    {
      "channel": 0,
      "note": 68,
      "start": 3.7276,
      "duration": 0.0309,
      "velocity": 114,
      "chip": "ym2612"
    },
    {
      "channel": 1,
      "note": 59,
      "start": 3.7278,
      "duration": 0.2179,
      "velocity": 93,
      "chip": "ym2612"
    },
    {
      "channel": 3,
      "note": 76,
      "start": 3.7279,
      "duration": 0.1089,
      "velocity": 94,
      "chip": "ym2612"
    },
    {
      "channel": 5,
      "note": 78,
      "start": 3.7282,
      "duration": 0.1088,
      "velocity": 94,
      "chip": "ym2612"
    },
    {
      "channel": 0,
      "note": 98,
      "start": 3.8366,
      "duration": 0.0309,
      "velocity": 114,
      "chip": "ym2612"
    },
    {
      "channel": 5,
      "note": 81,
      "start": 3.837,
      "duration": 0.1091,
      "velocity": 94,
      "chip": "ym2612"
    },
    {
      "channel": 0,
      "note": 98,
      "start": 3.9456,
      "duration": 0.1089,
      "velocity": 114,
      "chip": "ym2612"
    },
    {
      "channel": 1,
      "note": 59,
      "start": 3.9457,
      "duration": 0.2178,
      "velocity": 93,
      "chip": "ym2612"
    },
    {
      "channel": 3,
      "note": 78,
      "start": 3.9459,
      "duration": 0.1088,
      "velocity": 94,
      "chip": "ym2612"
    },
    {
      "channel": 5,
      "note": 69,
      "start": 3.9462,
      "duration": 0.1088,
      "velocity": 94,
      "chip": "ym2612"
    },
    {
      "channel": 0,
      "note": 54,
      "start": 4.0545,
      "duration": 0.0309,
      "velocity": 114,
      "chip": "ym2612"
    },
    {
      "channel": 3,
      "note": 81,
      "start": 4.0547,
      "duration": 0.109,
      "velocity": 94,
      "chip": "ym2612"
    },
    {
      "channel": 5,
      "note": 74,
      "start": 4.0549,
      "duration": 0.109,
      "velocity": 94,
      "chip": "ym2612"
    },
    {
      "channel": 0,
      "note": 98,
      "start": 4.1634,
      "duration": 0.0309,
      "velocity": 114,
      "chip": "ym2612"
    },
    {
      "channel": 1,
      "note": 59,
      "start": 4.1635,
      "duration": 0.2179,
      "velocity": 93,
      "chip": "ym2612"
    },
    {
      "channel": 3,
      "note": 69,
      "start": 4.1637,
      "duration": 0.1089,
      "velocity": 94,
      "chip": "ym2612"
    },
    {
      "channel": 0,
      "note": 98,
      "start": 4.2724,
      "duration": 0.0309,
      "velocity": 114,
      "chip": "ym2612"
    },
    {
      "channel": 3,
      "note": 74,
      "start": 4.2726,
      "duration": 0.109,
      "velocity": 94,
      "chip": "ym2612"
    },
    {
      "channel": 5,
      "note": 76,
      "start": 4.2728,
      "duration": 0.109,
      "velocity": 94,
      "chip": "ym2612"
    },
    {
      "channel": 0,
      "note": 98,
      "start": 4.3813,
      "duration": 0.0154,
      "velocity": 127,
      "chip": "ym2612"
    },
    {
      "channel": 1,
      "note": 59,
      "start": 4.3814,
      "duration": 0.2178,
      "velocity": 93,
      "chip": "ym2612"
    },
    {
      "channel": 5,
      "note": 81,
      "start": 4.3818,
      "duration": 0.1091,
      "velocity": 94,
      "chip": "ym2612"
    },
    {
      "channel": 0,
      "note": 76,
      "start": 4.3966,
      "duration": 0.0936,
      "velocity": 114,
      "chip": "ym2612"
    },
    {
      "channel": 0,
      "note": 68,
      "start": 4.4902,
      "duration": 0.0309,
      "velocity": 114,
      "chip": "ym2612"
    },
    {
      "channel": 3,
      "note": 76,
      "start": 4.4907,
      "duration": 0.1088,
      "velocity": 94,
      "chip": "ym2612"
    },
    {
      "channel": 5,
      "note": 69,
      "start": 4.4909,
      "duration": 0.1088,
      "velocity": 94,
      "chip": "ym2612"
    },
    {
      "channel": 0,
      "note": 98,
      "start": 4.5992,
      "duration": 0.0309,
      "velocity": 114,
      "chip": "ym2612"
    },
    {
      "channel": 1,
      "note": 59,
      "start": 4.5993,
      "duration": 0.2179,
      "velocity": 93,
      "chip": "ym2612"
    },
    {
      "channel": 3,
      "note": 81,
      "start": 4.5995,
      "duration": 0.1089,
      "velocity": 94,
      "chip": "ym2612"
    },
    {
      "channel": 5,
      "note": 81,
      "start": 4.5997,
      "duration": 0.1089,
      "velocity": 94,
      "chip": "ym2612"
    },
    {
      "channel": 0,
      "note": 98,
      "start": 4.7081,
      "duration": 0.0309,
      "velocity": 114,
      "chip": "ym2612"
    },
    {
      "channel": 3,
      "note": 69,
      "start": 4.7084,
      "duration": 0.109,
      "velocity": 94,
      "chip": "ym2612"
    },
    {
      "channel": 5,
      "note": 71,
      "start": 4.7086,
      "duration": 0.109,
      "velocity": 94,
      "chip": "ym2612"
    },
    {
      "channel": 0,
      "note": 98,
      "start": 4.8171,
      "duration": 0.1089,
      "velocity": 114,
      "chip": "ym2612"
    },
    {
      "channel": 1,
      "note": 59,
      "start": 4.8172,
      "duration": 0.2178,
      "velocity": 93,
      "chip": "ym2612"
    },
    {
      "channel": 3,
      "note": 81,
      "start": 4.8174,
      "duration": 0.1089,
      "velocity": 94,
      "chip": "ym2612"
    },
    {
      "channel": 5,
      "note": 74,
      "start": 4.8176,
      "duration": 0.1089,
      "velocity": 94,
      "chip": "ym2612"
    },
    {
      "channel": 0,
      "note": 54,
      "start": 4.926,
      "duration": 0.0309,
      "velocity": 114,
      "chip": "ym2612"
    },
    {
      "channel": 3,
      "note": 71,
      "start": 4.9263,
      "duration": 0.109,
      "velocity": 94,
      "chip": "ym2612"
    },
    {
      "channel": 0,
      "note": 98,
      "start": 5.0349,
      "duration": 0.0309,
      "velocity": 114,
      "chip": "ym2612"
    },
    {
      "channel": 1,
      "note": 59,
      "start": 5.0351,
      "duration": 0.2179,
      "velocity": 93,
      "chip": "ym2612"
    },
    {
      "channel": 3,
      "note": 74,
      "start": 5.0352,
      "duration": 0.1089,
      "velocity": 94,
      "chip": "ym2612"
    },
    {
      "channel": 5,
      "note": 76,
      "start": 5.0354,
      "duration": 0.1089,
      "velocity": 94,
      "chip": "ym2612"
    },
    {
      "channel": 0,
      "note": 98,
      "start": 5.1439,
      "duration": 0.0309,
      "velocity": 114,
      "chip": "ym2612"
    },
    {
      "channel": 5,
      "note": 78,
      "start": 5.1444,
      "duration": 0.109,
      "velocity": 94,
      "chip": "ym2612"
    },
    {
      "channel": 0,
      "note": 98,
      "start": 5.2528,
      "duration": 0.0154,
      "velocity": 127,
      "chip": "ym2612"
    },
    {
      "channel": 1,
      "note": 59,
      "start": 5.2529,
      "duration": 0.2179,
      "velocity": 93,
      "chip": "ym2612"
    },
    {
      "channel": 3,
      "note": 76,
      "start": 5.2531,
      "duration": 0.1089,
      "velocity": 94,
      "chip": "ym2612"
    },
    {
      "channel": 5,
      "note": 81,
      "start": 5.2533,
      "duration": 0.1089,
      "velocity": 94,
      "chip": "ym2612"
    },
    {
      "channel": 0,
      "note": 76,
      "start": 5.2682,
      "duration": 0.0936,
      "velocity": 114,
      "chip": "ym2612"
    },
    {
      "channel": 0,
      "note": 68,
      "start": 5.3618,
      "duration": 0.0309,
      "velocity": 114,
      "chip": "ym2612"
    },
    {
      "channel": 5,
      "note": 69,
      "start": 5.3622,
      "duration": 0.109,
      "velocity": 94,
      "chip": "ym2612"
    },
    {
      "channel": 0,
      "note": 98,
      "start": 5.4707,
      "duration": 0.0309,
      "velocity": 114,
      "chip": "ym2612"
    },
    {
      "channel": 1,
      "note": 59,
      "start": 5.4708,
      "duration": 0.2179,
      "velocity": 93,
      "chip": "ym2612"
    },
    {
      "channel": 3,
      "note": 78,
      "start": 5.4711,
      "duration": 0.1088,
      "velocity": 94,
      "chip": "ym2612"
    },
    {
      "channel": 5,
      "note": 74,
      "start": 5.4713,
      "duration": 0.1088,
      "velocity": 94,
      "chip": "ym2612"
    },
    {
      "channel": 0,
      "note": 98,
      "start": 5.5797,
      "duration": 0.0309,
      "velocity": 114,
      "chip": "ym2612"
    },
    {
      "channel": 3,
      "note": 81,
      "start": 5.5799,
      "duration": 0.109,
      "velocity": 94,
      "chip": "ym2612"
    },
    {
      "channel": 0,
      "note": 98,
      "start": 5.6886,
      "duration": 0.1089,
      "velocity": 114,
      "chip": "ym2612"
    },
    {
      "channel": 1,
      "note": 59,
      "start": 5.6887,
      "duration": 0.2178,
      "velocity": 93,
      "chip": "ym2612"
    },
    {
      "channel": 3,
      "note": 69,
      "start": 5.6889,
      "duration": 0.1089,
      "velocity": 94,
      "chip": "ym2612"
    },
    {
      "channel": 5,
      "note": 76,
      "start": 5.6891,
      "duration": 0.1089,
      "velocity": 94,
      "chip": "ym2612"
    },
    {
      "channel": 0,
      "note": 54,
      "start": 5.7975,
      "duration": 0.0309,
      "velocity": 114,
      "chip": "ym2612"
    },
    {
      "channel": 3,
      "note": 74,
      "start": 5.7978,
      "duration": 0.109,
      "velocity": 94,
      "chip": "ym2612"
    },
    {
      "channel": 5,
      "note": 81,
      "start": 5.798,
      "duration": 0.1091,
      "velocity": 94,
      "chip": "ym2612"
    },
    {
      "channel": 0,
      "note": 98,
      "start": 5.9065,
      "duration": 0.0309,
      "velocity": 114,
      "chip": "ym2612"
    },
    {
      "channel": 1,
      "note": 59,
      "start": 5.9066,
      "duration": 0.2179,
      "velocity": 93,
      "chip": "ym2612"
    },
    {
      "channel": 5,
      "note": 69,
      "start": 5.9071,
      "duration": 0.1087,
      "velocity": 94,
      "chip": "ym2612"
    },
    {
      "channel": 0,
      "note": 98,
      "start": 6.0154,
      "duration": 0.0309,
      "velocity": 114,
      "chip": "ym2612"
    },
    {
      "channel": 3,
      "note": 76,
      "start": 6.0156,
      "duration": 0.109,
      "velocity": 94,
      "chip": "ym2612"
    },
    {
      "channel": 5,
      "note": 81,
      "start": 6.0159,
      "duration": 0.109,
      "velocity": 94,
      "chip": "ym2612"
    },
    {
      "channel": 0,
      "note": 98,
      "start": 6.1244,
      "duration": 0.0154,
      "velocity": 127,
      "chip": "ym2612"
    },
    {
      "channel": 1,
      "note": 59,
      "start": 6.1245,
      "duration": 0.2178,
      "velocity": 93,
      "chip": "ym2612"
    },
    {
      "channel": 3,
      "note": 81,
      "start": 6.1247,
      "duration": 0.1089,
      "velocity": 94,
      "chip": "ym2612"
    },
    {
      "channel": 5,
      "note": 71,
      "start": 6.1249,
      "duration": 0.1089,
      "velocity": 94,
      "chip": "ym2612"
    },
    {
      "channel": 0,
      "note": 76,
      "start": 6.1397,
      "duration": 0.0936,
      "velocity": 114,
      "chip": "ym2612"
    },
    {
      "channel": 0,
      "note": 68,
      "start": 6.2333,
      "duration": 0.0309,
      "velocity": 114,
      "chip": "ym2612"
    },
    {
      "channel": 3,
      "note": 69,
      "start": 6.2336,
      "duration": 0.109,
      "velocity": 94,
      "chip": "ym2612"
    },
    {
      "channel": 5,
      "note": 74,
      "start": 6.2338,
      "duration": 0.109,
      "velocity": 94,
      "chip": "ym2612"
    },
    {
      "channel": 0,
      "note": 98,
      "start": 6.3422,
      "duration": 0.0309,
      "velocity": 114,
      "chip": "ym2612"
    },
    {
      "channel": 1,
      "note": 59,
      "start": 6.3424,
      "duration": 0.2179,
      "velocity": 93,
      "chip": "ym2612"
    },
    {
      "channel": 3,
      "note": 81,
      "start": 6.3425,
      "duration": 0.1089,
      "velocity": 94,
      "chip": "ym2612"
    },
    {
      "channel": 0,
      "note": 98,
      "start": 6.4512,
      "duration": 0.0309,
      "velocity": 114,
      "chip": "ym2612"
    },
    {
      "channel": 3,
      "note": 71,
      "start": 6.4514,
      "duration": 0.109,
      "velocity": 94,
      "chip": "ym2612"
    },
    {
      "channel": 5,
      "note": 76,
      "start": 6.4516,
      "duration": 0.1091,
      "velocity": 94,
      "chip": "ym2612"
    },
    {
      "channel": 0,
      "note": 98,
      "start": 6.5601,
      "duration": 0.1089,
      "velocity": 127,
      "chip": "ym2612"
    },
    {
      "channel": 1,
      "note": 59,
      "start": 6.5603,
      "duration": 0.2178,
      "velocity": 93,
      "chip": "ym2612"
    },
    {
      "channel": 3,
      "note": 74,
      "start": 6.5605,
      "duration": 0.1089,
      "velocity": 94,
      "chip": "ym2612"
    },
    {
      "channel": 5,
      "note": 78,
      "start": 6.5607,
      "duration": 0.1088,
      "velocity": 94,
      "chip": "ym2612"
    },
    {
      "channel": 0,
      "note": 54,
      "start": 6.669,
      "duration": 0.0154,
      "velocity": 127,
      "chip": "ym2612"
    },
    {
      "channel": 5,
      "note": 81,
      "start": 6.6695,
      "duration": 0.109,
      "velocity": 94,
      "chip": "ym2612"
    },
    {
      "channel": 0,
      "note": 76,
      "start": 6.6844,
      "duration": 0.0936,
      "velocity": 114,
      "chip": "ym2612"
    },
    {
      "channel": 0,
      "note": 68,
      "start": 6.778,
      "duration": 0.0309,
      "velocity": 114,
      "chip": "ym2612"
    },
    {
      "channel": 1,
      "note": 59,
      "start": 6.7781,
      "duration": 0.2179,
      "velocity": 93,
      "chip": "ym2612"
    },
    {
      "channel": 3,
      "note": 76,
      "start": 6.7783,
      "duration": 0.1089,
      "velocity": 94,
      "chip": "ym2612"
    },
    {
      "channel": 5,
      "note": 69,
      "start": 6.7785,
      "duration": 0.1088,
      "velocity": 94,
      "chip": "ym2612"
    },
    {
      "channel": 0,
      "note": 98,
      "start": 6.8869,
      "duration": 0.0309,
      "velocity": 114,
      "chip": "ym2612"
    },
    {
      "channel": 5,
      "note": 74,
      "start": 6.8874,
      "duration": 0.1092,
      "velocity": 94,
      "chip": "ym2612"
    },
    {
      "channel": 0,
      "note": 98,
      "start": 6.9959,
      "duration": 0.1089,
      "velocity": 114,
      "chip": "ym2612"
    },
    {
      "channel": 1,
      "note": 59,
      "start": 6.9961,
      "duration": 0.2178,
      "velocity": 93,
      "chip": "ym2612"
    },
    {
      "channel": 2,
      "note": -1,
      "start": 6.9962,
      "duration": 3.0504,
      "velocity": 121,
      "chip": "ym2612"
    },
    {
      "channel": 3,
      "note": 78,
      "start": 6.9963,
      "duration": 0.1087,
      "velocity": 94,
      "chip": "ym2612"
    },
    {
      "channel": 0,
      "note": 54,
      "start": 7.1048,
      "duration": 0.0309,
      "velocity": 114,
      "chip": "ym2612"
    },
    {
      "channel": 3,
      "note": 81,
      "start": 7.1051,
      "duration": 0.109,
      "velocity": 94,
      "chip": "ym2612"
    },
    {
      "channel": 5,
      "note": 76,
      "start": 7.1053,
      "duration": 0.109,
      "velocity": 94,
      "chip": "ym2612"
    },
    {
      "channel": 4,
      "note": -1,
      "start": 7.1827,
      "duration": 3.0504,
      "velocity": 121,
      "chip": "ym2612"
    },
    {
      "channel": 0,
      "note": 98,
      "start": 7.2138,
      "duration": 0.0309,
      "velocity": 114,
      "chip": "ym2612"
    },
    {
      "channel": 1,
      "note": 62,
      "start": 7.2139,
      "duration": 0.2179,
      "velocity": 93,
      "chip": "ym2612"
    },
    {
      "channel": 3,
      "note": 69,
      "start": 7.2141,
      "duration": 0.1089,
      "velocity": 94,
      "chip": "ym2612"
    },
    {
      "channel": 5,
      "note": 81,
      "start": 7.2143,
      "duration": 0.1089,
      "velocity": 94,
      "chip": "ym2612"
    },
    {
      "channel": 0,
      "note": 98,
      "start": 7.3227,
      "duration": 0.0309,
      "velocity": 114,
      "chip": "ym2612"
    },
    {
      "channel": 3,
      "note": 74,
      "start": 7.323,
      "duration": 0.109,
      "velocity": 94,
      "chip": "ym2612"
    },
    {
      "channel": 5,
      "note": 69,
      "start": 7.3232,
      "duration": 0.109,
      "velocity": 94,
      "chip": "ym2612"
    },
    {
      "channel": 0,
      "note": 98,
      "start": 7.4317,
      "duration": 0.0154,
      "velocity": 127,
      "chip": "ym2612"
    },
    {
      "channel": 1,
      "note": 62,
      "start": 7.4318,
      "duration": 0.2178,
      "velocity": 93,
      "chip": "ym2612"
    },
    {
      "channel": 5,
      "note": 81,
      "start": 7.4322,
      "duration": 0.109,
      "velocity": 94,
      "chip": "ym2612"
    },
    {
      "channel": 0,
      "note": 76,
      "start": 7.447,
      "duration": 0.0937,
      "velocity": 114,
      "chip": "ym2612"
    },
    {
      "channel": 0,
      "note": 68,
      "start": 7.5407,
      "duration": 0.0307,
      "velocity": 114,
      "chip": "ym2612"
    },
    {
      "channel": 3,
      "note": 76,
      "start": 7.541,
      "duration": 0.1088,
      "velocity": 94,
      "chip": "ym2612"
    },
    {
      "channel": 5,
      "note": 71,
      "start": 7.5412,
      "duration": 0.1088,
      "velocity": 94,
      "chip": "ym2612"
    },
    {
      "channel": 0,
      "note": 98,
      "start": 7.6495,
      "duration": 0.0309,
      "velocity": 114,
      "chip": "ym2612"
    },
    {
      "channel": 1,
      "note": 62,
      "start": 7.6497,
      "duration": 0.2179,
      "velocity": 93,
      "chip": "ym2612"
    },
    {
      "channel": 3,
      "note": 81,
      "start": 7.6499,
      "duration": 0.1089,
      "velocity": 94,
      "chip": "ym2612"
    },
    {
      "channel": 5,
      "note": 74,
      "start": 7.6501,
      "duration": 0.1089,
      "velocity": 94,
      "chip": "ym2612"
    },
    {
      "channel": 0,
      "note": 98,
      "start": 7.7585,
      "duration": 0.0309,
      "velocity": 114,
      "chip": "ym2612"
    },
    {
      "channel": 3,
      "note": 69,
      "start": 7.7588,
      "duration": 0.109,
      "velocity": 94,
      "chip": "ym2612"
    },
    {
      "channel": 0,
      "note": 98,
      "start": 7.8674,
      "duration": 0.1089,
      "velocity": 114,
      "chip": "ym2612"
    },
    {
      "channel": 1,
      "note": 62,
      "start": 7.8676,
      "duration": 0.2178,
      "velocity": 93,
      "chip": "ym2612"
    },
    {
      "channel": 3,
      "note": 81,
      "start": 7.8678,
      "duration": 0.1089,
      "velocity": 94,
      "chip": "ym2612"
    },
    {
      "channel": 5,
      "note": 76,
      "start": 7.868,
      "duration": 0.1089,
      "velocity": 94,
      "chip": "ym2612"
    },
    {
      "channel": 0,
      "note": 54,
      "start": 7.9764,
      "duration": 0.0309,
      "velocity": 114,
      "chip": "ym2612"
    },
    {
      "channel": 3,
      "note": 71,
      "start": 7.9766,
      "duration": 0.109,
      "velocity": 94,
      "chip": "ym2612"
    },
    {
      "channel": 5,
      "note": 78,
      "start": 7.9769,
      "duration": 0.1089,
      "velocity": 94,
      "chip": "ym2612"
    },
    {
      "channel": 0,
      "note": 98,
      "start": 8.0853,
      "duration": 0.0309,
      "velocity": 114,
      "chip": "ym2612"
    },
    {
      "channel": 1,
      "note": 62,
      "start": 8.0854,
      "duration": 0.2179,
      "velocity": 93,
      "chip": "ym2612"
    },
    {
      "channel": 3,
      "note": 74,
      "start": 8.0856,
      "duration": 0.1089,
      "velocity": 94,
      "chip": "ym2612"
    },
    {
      "channel": 5,
      "note": 81,
      "start": 8.0859,
      "duration": 0.1089,
      "velocity": 94,
      "chip": "ym2612"
    },
    {
      "channel": 0,
      "note": 98,
      "start": 8.1942,
      "duration": 0.0309,
      "velocity": 114,
      "chip": "ym2612"
    },
    {
      "channel": 5,
      "note": 69,
      "start": 8.1947,
      "duration": 0.109,
      "velocity": 94,
      "chip": "ym2612"
    },
    {
      "channel": 0,
      "note": 98,
      "start": 8.3032,
      "duration": 0.0154,
      "velocity": 127,
      "chip": "ym2612"
    },
    {
      "channel": 1,
      "note": 62,
      "start": 8.3033,
      "duration": 0.2178,
      "velocity": 93,
      "chip": "ym2612"
    },
    {
      "channel": 3,
      "note": 76,
      "start": 8.3035,
      "duration": 0.1089,
      "velocity": 94,
      "chip": "ym2612"
    },
    {
      "channel": 5,
      "note": 74,
      "start": 8.3037,
      "duration": 0.1089,
      "velocity": 94,
      "chip": "ym2612"
    },
    {
      "channel": 0,
      "note": 76,
      "start": 8.3185,
      "duration": 0.0936,
      "velocity": 114,
      "chip": "ym2612"
    },
    {
      "channel": 0,
      "note": 68,
      "start": 8.4121,
      "duration": 0.0309,
      "velocity": 114,
      "chip": "ym2612"
    },
    {
      "channel": 0,
      "note": 98,
      "start": 8.5211,
      "duration": 0.0309,
      "velocity": 114,
      "chip": "ym2612"
    },
    {
      "channel": 1,
      "note": 62,
      "start": 8.5212,
      "duration": 0.2179,
      "velocity": 93,
      "chip": "ym2612"
    },
    {
      "channel": 3,
      "note": 78,
      "start": 8.5215,
      "duration": 0.1088,
      "velocity": 94,
      "chip": "ym2612"
    },
    {
      "channel": 5,
      "note": 76,
      "start": 8.5217,
      "duration": 0.1088,
      "velocity": 94,
      "chip": "ym2612"
    },
    {
      "channel": 0,
      "note": 98,
      "start": 8.63,
      "duration": 0.0309,
      "velocity": 114,
      "chip": "ym2612"
    },
    {
      "channel": 3,
      "note": 81,
      "start": 8.6303,
      "duration": 0.109,
      "velocity": 94,
      "chip": "ym2612"
    },
    {
      "channel": 5,
      "note": 81,
      "start": 8.6305,
      "duration": 0.109,
      "velocity": 94,
      "chip": "ym2612"
    },
    {
      "channel": 0,
      "note": 98,
      "start": 8.739,
      "duration": 0.1089,
      "velocity": 114,
      "chip": "ym2612"
    },
    {
      "channel": 1,
      "note": 62,
      "start": 8.7391,
      "duration": 0.218,
      "velocity": 93,
      "chip": "ym2612"
    },
    {
      "channel": 3,
      "note": 69,
      "start": 8.7393,
      "duration": 0.1089,
      "velocity": 94,
      "chip": "ym2612"
    },
    {
      "channel": 5,
      "note": 69,
      "start": 8.7395,
      "duration": 0.1089,
      "velocity": 94,
      "chip": "ym2612"
    },
    {
      "channel": 0,
      "note": 54,
      "start": 8.8479,
      "duration": 0.0309,
      "velocity": 114,
      "chip": "ym2612"
    },
    {
      "channel": 3,
      "note": 74,
      "start": 8.8482,
      "duration": 0.1091,
      "velocity": 94,
      "chip": "ym2612"
    },
    {
      "channel": 5,
      "note": 81,
      "start": 8.8484,
      "duration": 0.1091,
      "velocity": 94,
      "chip": "ym2612"
    },
    {
      "channel": 0,
      "note": 98,
      "start": 8.9568,
      "duration": 0.0309,
      "velocity": 114,
      "chip": "ym2612"
    },
    {
      "channel": 1,
      "note": 62,
      "start": 8.9571,
      "duration": 0.2177,
      "velocity": 93,
      "chip": "ym2612"
    },
    {
      "channel": 5,
      "note": 71,
      "start": 8.9575,
      "duration": 0.1087,
      "velocity": 94,
      "chip": "ym2612"
    },
    {
      "channel": 0,
      "note": 98,
      "start": 9.0658,
      "duration": 0.0309,
      "velocity": 114,
      "chip": "ym2612"
    },
    {
      "channel": 3,
      "note": 76,
      "start": 9.066,
      "duration": 0.109,
      "velocity": 94,
      "chip": "ym2612"
    },
    {
      "channel": 5,
      "note": 74,
      "start": 9.0663,
      "duration": 0.109,
      "velocity": 94,
      "chip": "ym2612"
    },
    {
      "channel": 0,
      "note": 98,
      "start": 9.1747,
      "duration": 0.0154,
      "velocity": 127,
      "chip": "ym2612"
    },
    {
      "channel": 1,
      "note": 62,
      "start": 9.1749,
      "duration": 0.2178,
      "velocity": 93,
      "chip": "ym2612"
    },
    {
      "channel": 3,
      "note": 81,
      "start": 9.1751,
      "duration": 0.1089,
      "velocity": 94,
      "chip": "ym2612"
    },
    {
      "channel": 0,
      "note": 76,
      "start": 9.1901,
      "duration": 0.0936,
      "velocity": 114,
      "chip": "ym2612"
    },
    {
      "channel": 0,
      "note": 68,
      "start": 9.2837,
      "duration": 0.0309,
      "velocity": 114,
      "chip": "ym2612"
    },
    {
      "channel": 3,
      "note": 69,
      "start": 9.2839,
      "duration": 0.109,
      "velocity": 94,
      "chip": "ym2612"
    },
    {
      "channel": 5,
      "note": 76,
      "start": 9.2842,
      "duration": 0.109,
      "velocity": 94,
      "chip": "ym2612"
    },
    {
      "channel": 0,
      "note": 98,
      "start": 9.3926,
      "duration": 0.0309,
      "velocity": 114,
      "chip": "ym2612"
    },
    {
      "channel": 1,
      "note": 62,
      "start": 9.3927,
      "duration": 0.2179,
      "velocity": 93,
      "chip": "ym2612"
    },
    {
      "channel": 3,
      "note": 81,
      "start": 9.3929,
      "duration": 0.1089,
      "velocity": 94,
      "chip": "ym2612"
    },
    {
      "channel": 5,
      "note": 78,
      "start": 9.3932,
      "duration": 0.1088,
      "velocity": 94,
      "chip": "ym2612"
    },
    {
      "channel": 0,
      "note": 98,
      "start": 9.5015,
      "duration": 0.0309,
      "velocity": 114,
      "chip": "ym2612"
    },
    {
      "channel": 3,
      "note": 71,
      "start": 9.5018,
      "duration": 0.109,
      "velocity": 94,
      "chip": "ym2612"
    },
    {
      "channel": 5,
      "note": 81,
      "start": 9.502,
      "duration": 0.109,
      "velocity": 94,
      "chip": "ym2612"
    },
    {
      "channel": 0,
      "note": 98,
      "start": 9.6105,
      "duration": 0.1089,
      "velocity": 127,
      "chip": "ym2612"
    },
    {
      "channel": 1,
      "note": 62,
      "start": 9.6106,
      "duration": 0.2178,
      "velocity": 93,
      "chip": "ym2612"
    },
    {
      "channel": 3,
      "note": 74,
      "start": 9.6108,
      "duration": 0.1089,
      "velocity": 94,
      "chip": "ym2612"
    },
    {
      "channel": 5,
      "note": 69,
      "start": 9.6111,
      "duration": 0.1088,
      "velocity": 94,
      "chip": "ym2612"
    },
    {
      "channel": 0,
      "note": 54,
      "start": 9.7194,
      "duration": 0.0154,
      "velocity": 127,
      "chip": "ym2612"
    },
    {
      "channel": 5,
      "note": 74,
      "start": 9.7199,
      "duration": 0.109,
      "velocity": 94,
      "chip": "ym2612"
    },
    {
      "channel": 0,
      "note": 76,
      "start": 9.7348,
      "duration": 0.0936,
      "velocity": 114,
      "chip": "ym2612"
    },
    {
      "channel": 0,
      "note": 68,
      "start": 9.8284,
      "duration": 0.0309,
      "velocity": 114,
      "chip": "ym2612"
    },
    {
      "channel": 1,
      "note": 62,
      "start": 9.8285,
      "duration": 0.2179,
      "velocity": 93,
      "chip": "ym2612"
    },
    {
      "channel": 3,
      "note": 76,
      "start": 9.8287,
      "duration": 0.1089,
      "velocity": 94,
      "chip": "ym2612"
    },
    {
      "channel": 0,
      "note": 98,
      "start": 9.9373,
      "duration": 0.0309,
      "velocity": 114,
      "chip": "ym2612"
    },
    {
      "channel": 5,
      "note": 76,
      "start": 9.9378,
      "duration": 0.1092,
      "velocity": 94,
      "chip": "ym2612"
    },
    {
      "channel": 0,
      "note": 98,
      "start": 10.0463,
      "duration": 0.1089,
      "velocity": 114,
      "chip": "ym2612"
    },
    {
      "channel": 1,
      "note": 62,
      "start": 10.0464,
      "duration": 0.2178,
      "velocity": 93,
      "chip": "ym2612"
    },
    {
      "channel": 2,
      "note": 50,
      "start": 10.0465,
      "duration": 3.0504,
      "velocity": 121,
      "chip": "ym2612"
    },
    {
      "channel": 3,
      "note": 78,
      "start": 10.0467,
      "duration": 0.1087,
      "velocity": 94,
      "chip": "ym2612"
    },
    {
      "channel": 5,
      "note": 81,
      "start": 10.047,
      "duration": 0.1087,
      "velocity": 94,
      "chip": "ym2612"
    },
    {
      "channel": 0,
      "note": 54,
      "start": 10.1552,
      "duration": 0.0309,
      "velocity": 114,
      "chip": "ym2612"
    },
    {
      "channel": 3,
      "note": 81,
      "start": 10.1555,
      "duration": 0.109,
      "velocity": 94,
      "chip": "ym2612"
    },
    {
      "channel": 5,
      "note": 69,
      "start": 10.1557,
      "duration": 0.109,
      "velocity": 94,
      "chip": "ym2612"
    },
    {
      "channel": 4,
      "note": 50,
      "start": 10.2331,
      "duration": 3.0503,
      "velocity": 121,
      "chip": "ym2612"
    },
    {
      "channel": 0,
      "note": 98,
      "start": 10.2641,
      "duration": 0.0309,
      "velocity": 114,
      "chip": "ym2612"
    },
    {
      "channel": 1,
      "note": 59,
      "start": 10.2642,
      "duration": 0.2179,
      "velocity": 93,
      "chip": "ym2612"
    },
    {
      "channel": 3,
      "note": 69,
      "start": 10.2644,
      "duration": 0.1089,
      "velocity": 94,
      "chip": "ym2612"
    },
    {
      "channel": 5,
      "note": 81,
      "start": 10.2647,
      "duration": 0.1089,
      "velocity": 94,
      "chip": "ym2612"
    },
    {
      "channel": 0,
      "note": 98,
      "start": 10.3731,
      "duration": 0.0309,
      "velocity": 114,
      "chip": "ym2612"
    },
    {
      "channel": 3,
      "note": 74,
      "start": 10.3734,
      "duration": 0.109,
      "velocity": 94,
      "chip": "ym2612"
    },
    {
      "channel": 5,
      "note": 71,
      "start": 10.3736,
      "duration": 0.109,
      "velocity": 94,
      "chip": "ym2612"
    },
    {
      "channel": 0,
      "note": 98,
      "start": 10.482,
      "duration": 0.0154,
      "velocity": 127,
      "chip": "ym2612"
    },
    {
      "channel": 1,
      "note": 59,
      "start": 10.4822,
      "duration": 0.2178,
      "velocity": 93,
      "chip": "ym2612"
    },
    {
      "channel": 5,
      "note": 74,
      "start": 10.4826,
      "duration": 0.1089,
      "velocity": 94,
      "chip": "ym2612"
    },
    {
      "channel": 0,
      "note": 76,
      "start": 10.4974,
      "duration": 0.0936,
      "velocity": 114,
      "chip": "ym2612"
    },
    {
      "channel": 0,
      "note": 68,
      "start": 10.591,
      "duration": 0.0309,
      "velocity": 114,
      "chip": "ym2612"
    },
    {
      "channel": 3,
      "note": 76,
      "start": 10.5912,
      "duration": 0.109,
      "velocity": 94,
      "chip": "ym2612"
    },
    {
      "channel": 0,
      "note": 98,
      "start": 10.6999,
      "duration": 0.0309,
      "velocity": 114,
      "chip": "ym2612"
    },
    {
      "channel": 1,
      "note": 59,
      "start": 10.7,
      "duration": 0.2179,
      "velocity": 93,
      "chip": "ym2612"
    },
    {
      "channel": 3,
      "note": 81,
      "start": 10.7002,
      "duration": 0.1089,
      "velocity": 94,
      "chip": "ym2612"
    },
    {
      "channel": 5,
      "note": 76,
      "start": 10.7005,
      "duration": 0.1089,
      "velocity": 94,
      "chip": "ym2612"
    },
    {
      "channel": 0,
      "note": 98,
      "start": 10.8088,
      "duration": 0.0309,
      "velocity": 114,
      "chip": "ym2612"
    },
    {
      "channel": 3,
      "note": 69,
      "start": 10.8091,
      "duration": 0.109,
      "velocity": 94,
      "chip": "ym2612"
    },
    {
      "channel": 5,
      "note": 78,
      "start": 10.8094,
      "duration": 0.109,
      "velocity": 94,
      "chip": "ym2612"
    },
    {
      "channel": 0,
      "note": 98,
      "start": 10.9178,
      "duration": 0.1089,
      "velocity": 114,
      "chip": "ym2612"
    },
    {
      "channel": 1,
      "note": 59,
      "start": 10.9179,
      "duration": 0.2178,
      "velocity": 93,
      "chip": "ym2612"
    },
    {
      "channel": 3,
      "note": 81,
      "start": 10.9181,
      "duration": 0.1089,
      "velocity": 94,
      "chip": "ym2612"
    },
    {
      "channel": 5,
      "note": 81,
      "start": 10.9184,
      "duration": 0.1089,
      "velocity": 94,
      "chip": "ym2612"
    },
    {
      "channel": 0,
      "note": 54,
      "start": 11.0267,
      "duration": 0.0309,
      "velocity": 114,
      "chip": "ym2612"
    },
    {
      "channel": 3,
      "note": 71,
      "start": 11.027,
      "duration": 0.109,
      "velocity": 94,
      "chip": "ym2612"
    },
    {
      "channel": 5,
      "note": 69,
      "start": 11.0273,
      "duration": 0.109,
      "velocity": 94,
      "chip": "ym2612"
    },
    {
      "channel": 0,
      "note": 98,
      "start": 11.1357,
      "duration": 0.0309,
      "velocity": 114,
      "chip": "ym2612"
    },
    {
      "channel": 1,
      "note": 59,
      "start": 11.1358,
      "duration": 0.2179,
      "velocity": 93,
      "chip": "ym2612"
    },
    {
      "channel": 3,
      "note": 74,
      "start": 11.136,
      "duration": 0.1089,
      "velocity": 94,
      "chip": "ym2612"
    },
    {
      "channel": 5,
      "note": 74,
      "start": 11.1362,
      "duration": 0.1088,
      "velocity": 94,
      "chip": "ym2612"
    },
    {
      "channel": 0,
      "note": 98,
      "start": 11.2446,
      "duration": 0.0309,
      "velocity": 114,
      "chip": "ym2612"
    },
    {
      "channel": 0,
      "note": 98,
      "start": 11.3536,
      "duration": 0.0154,
      "velocity": 127,
      "chip": "ym2612"
    },
    {
      "channel": 1,
      "note": 59,
      "start": 11.3537,
      "duration": 0.2178,
      "velocity": 93,
      "chip": "ym2612"
    },
    {
      "channel": 3,
      "note": 76,
      "start": 11.3539,
      "duration": 0.1089,
      "velocity": 94,
      "chip": "ym2612"
    },
    {
      "channel": 5,
      "note": 76,
      "start": 11.3541,
      "duration": 0.1089,
      "velocity": 94,
      "chip": "ym2612"
    },
    {
      "channel": 0,
      "note": 76,
      "start": 11.3689,
      "duration": 0.0936,
      "velocity": 114,
      "chip": "ym2612"
    },
    {
      "channel": 0,
      "note": 68,
      "start": 11.4625,
      "duration": 0.0309,
      "velocity": 114,
      "chip": "ym2612"
    },
    {
      "channel": 5,
      "note": 81,
      "start": 11.463,
      "duration": 0.109,
      "velocity": 94,
      "chip": "ym2612"
    },
    {
      "channel": 0,
      "note": 98,
      "start": 11.5715,
      "duration": 0.0309,
      "velocity": 114,
      "chip": "ym2612"
    },
    {
      "channel": 1,
      "note": 59,
      "start": 11.5715,
      "duration": 0.2179,
      "velocity": 93,
      "chip": "ym2612"
    },
    {
      "channel": 3,
      "note": 78,
      "start": 11.5718,
      "duration": 0.1088,
      "velocity": 94,
      "chip": "ym2612"
    },
    {
      "channel": 5,
      "note": 69,
      "start": 11.5721,
      "duration": 0.1088,
      "velocity": 94,
      "chip": "ym2612"
    },
    {
      "channel": 0,
      "note": 98,
      "start": 11.6804,
      "duration": 0.0309,
      "velocity": 114,
      "chip": "ym2612"
    },
    {
      "channel": 3,
      "note": 81,
      "start": 11.6807,
      "duration": 0.109,
      "velocity": 94,
      "chip": "ym2612"
    },
    {
      "channel": 5,
      "note": 81,
      "start": 11.6809,
      "duration": 0.109,
      "velocity": 94,
      "chip": "ym2612"
    },
    {
      "channel": 0,
      "note": 98,
      "start": 11.7893,
      "duration": 0.1089,
      "velocity": 114,
      "chip": "ym2612"
    },
    {
      "channel": 1,
      "note": 59,
      "start": 11.7895,
      "duration": 0.218,
      "velocity": 93,
      "chip": "ym2612"
    },
    {
      "channel": 3,
      "note": 69,
      "start": 11.7897,
      "duration": 0.1088,
      "velocity": 94,
      "chip": "ym2612"
    },
    {
      "channel": 5,
      "note": 71,
      "start": 11.7899,
      "duration": 0.1089,
      "velocity": 94,
      "chip": "ym2612"
    },
    {
      "channel": 0,
      "note": 54,
      "start": 11.8983,
      "duration": 0.0309,
      "velocity": 114,
      "chip": "ym2612"
    },
    {
      "channel": 3,
      "note": 74,
      "start": 11.8985,
      "duration": 0.1091,
      "velocity": 94,
      "chip": "ym2612"
    },
    {
      "channel": 5,
      "note": 74,
      "start": 11.8988,
      "duration": 0.1091,
      "velocity": 94,
      "chip": "ym2612"
    },
    {
      "channel": 0,
      "note": 98,
      "start": 12.0074,
      "duration": 0.0307,
      "velocity": 114,
      "chip": "ym2612"
    },
    {
      "channel": 1,
      "note": 59,
      "start": 12.0075,
      "duration": 0.2177,
      "velocity": 93,
      "chip": "ym2612"
    },
    {
      "channel": 0,
      "note": 98,
      "start": 12.1161,
      "duration": 0.0309,
      "velocity": 114,
      "chip": "ym2612"
    },
    {
      "channel": 3,
      "note": 76,
      "start": 12.1164,
      "duration": 0.109,
      "velocity": 94,
      "chip": "ym2612"
    },
    {
      "channel": 5,
      "note": 76,
      "start": 12.1166,
      "duration": 0.1091,
      "velocity": 94,
      "chip": "ym2612"
    },
    {
      "channel": 0,
      "note": 98,
      "start": 12.2251,
      "duration": 0.0154,
      "velocity": 127,
      "chip": "ym2612"
    },
    {
      "channel": 1,
      "note": 59,
      "start": 12.2252,
      "duration": 0.2179,
      "velocity": 93,
      "chip": "ym2612"
    },
    {
      "channel": 3,
      "note": 81,
      "start": 12.2254,
      "duration": 0.1089,
      "velocity": 94,
      "chip": "ym2612"
    },
    {
      "channel": 5,
      "note": 78,
      "start": 12.2257,
      "duration": 0.1088,
      "velocity": 94,
      "chip": "ym2612"
    },
    {
      "channel": 0,
      "note": 76,
      "start": 12.2405,
      "duration": 0.0935,
      "velocity": 114,
      "chip": "ym2612"
    },
    {
      "channel": 0,
      "note": 68,
      "start": 12.334,
      "duration": 0.0309,
      "velocity": 114,
      "chip": "ym2612"
    },
    {
      "channel": 3,
      "note": 69,
      "start": 12.3343,
      "duration": 0.109,
      "velocity": 94,
      "chip": "ym2612"
    },
    {
      "channel": 5,
      "note": 81,
      "start": 12.3346,
      "duration": 0.109,
      "velocity": 94,
      "chip": "ym2612"
    },
    {
      "channel": 0,
      "note": 98,
      "start": 12.443,
      "duration": 0.0309,
      "velocity": 114,
      "chip": "ym2612"
    },
    {
      "channel": 1,
      "note": 59,
      "start": 12.4431,
      "duration": 0.2179,
      "velocity": 93,
      "chip": "ym2612"
    },
    {
      "channel": 3,
      "note": 81,
      "start": 12.4433,
      "duration": 0.1089,
      "velocity": 94,
      "chip": "ym2612"
    },
    {
      "channel": 5,
      "note": 69,
      "start": 12.4435,
      "duration": 0.1089,
      "velocity": 94,
      "chip": "ym2612"
    },
    {
      "channel": 0,
      "note": 98,
      "start": 12.5519,
      "duration": 0.0309,
      "velocity": 114,
      "chip": "ym2612"
    },
    {
      "channel": 3,
      "note": 71,
      "start": 12.5522,
      "duration": 0.109,
      "velocity": 94,
      "chip": "ym2612"
    },
    {
      "channel": 5,
      "note": 74,
      "start": 12.5524,
      "duration": 0.109,
      "velocity": 94,
      "chip": "ym2612"
    },
    {
      "channel": 0,
      "note": 98,
      "start": 12.6609,
      "duration": 0.1089,
      "velocity": 127,
      "chip": "ym2612"
    },
    {
      "channel": 1,
      "note": 59,
      "start": 12.661,
      "duration": 0.2179,
      "velocity": 93,
      "chip": "ym2612"
    },
    {
      "channel": 3,
      "note": 74,
      "start": 12.6612,
      "duration": 0.1089,
      "velocity": 94,
      "chip": "ym2612"
    },
    {
      "channel": 0,
      "note": 54,
      "start": 12.7698,
      "duration": 0.0154,
      "velocity": 127,
      "chip": "ym2612"
    },
    {
      "channel": 5,
      "note": 76,
      "start": 12.7703,
      "duration": 0.109,
      "velocity": 94,
      "chip": "ym2612"
    },
    {
      "channel": 0,
      "note": 76,
      "start": 12.7851,
      "duration": 0.0936,
      "velocity": 114,
      "chip": "ym2612"
    },
    {
      "channel": 0,
      "note": 68,
      "start": 12.8787,
      "duration": 0.0309,
      "velocity": 114,
      "chip": "ym2612"
    },
    {
      "channel": 1,
      "note": 59,
      "start": 12.8789,
      "duration": 0.2179,
      "velocity": 93,
      "chip": "ym2612"
    },
    {
      "channel": 3,
      "note": 76,
      "start": 12.879,
      "duration": 0.1089,
      "velocity": 94,
      "chip": "ym2612"
    },
    {
      "channel": 5,
      "note": 81,
      "start": 12.8793,
      "duration": 0.1089,
      "velocity": 94,
      "chip": "ym2612"
    },
    {
      "channel": 0,
      "note": 98,
      "start": 12.9877,
      "duration": 0.0309,
      "velocity": 114,
      "chip": "ym2612"
    },
    {
      "channel": 5,
      "note": 69,
      "start": 12.9882,
      "duration": 0.1091,
      "velocity": 94,
      "chip": "ym2612"
    },
    {
      "channel": 0,
      "note": 98,
      "start": 13.0966,
      "duration": 0.1089,
      "velocity": 114,
      "chip": "ym2612"
    },
    {
      "channel": 1,
      "note": 59,
      "start": 13.0968,
      "duration": 0.2178,
      "velocity": 93,
      "chip": "ym2612"
    },
    {
      "channel": 2,
      "note": 47,
      "start": 13.0969,
      "duration": 3.0504,
      "velocity": 121,
      "chip": "ym2612"
    },
    {
      "channel": 3,
      "note": 78,
      "start": 13.0971,
      "duration": 0.1088,
      "velocity": 94,
      "chip": "ym2612"
    },
    {
      "channel": 5,
      "note": 81,
      "start": 13.0973,
      "duration": 0.1087,
      "velocity": 94,
      "chip": "ym2612"
    },
    {
      "channel": 0,
      "note": 54,
      "start": 13.2056,
      "duration": 0.0309,
      "velocity": 114,
      "chip": "ym2612"
    },
    {
      "channel": 3,
      "note": 81,
      "start": 13.2058,
      "duration": 0.109,
      "velocity": 94,
      "chip": "ym2612"
    },
    {
      "channel": 5,
      "note": 71,
      "start": 13.2061,
      "duration": 0.109,
      "velocity": 94,
      "chip": "ym2612"
    },
    {
      "channel": 4,
      "note": 47,
      "start": 13.2835,
      "duration": 3.0504,
      "velocity": 121,
      "chip": "ym2612"
    },
    {
      "channel": 0,
      "note": 98,
      "start": 13.3145,
      "duration": 0.0309,
      "velocity": 114,
      "chip": "ym2612"
    },
    {
      "channel": 1,
      "note": 55,
      "start": 13.3146,
      "duration": 0.2179,
      "velocity": 93,
      "chip": "ym2612"
    },
    {
      "channel": 3,
      "note": 69,
      "start": 13.3148,
      "duration": 0.1091,
      "velocity": 94,
      "chip": "ym2612"
    },
    {
      "channel": 5,
      "note": 74,
      "start": 13.315,
      "duration": 0.109,
      "velocity": 94,
      "chip": "ym2612"
    },
    {
      "channel": 0,
      "note": 98,
      "start": 13.4234,
      "duration": 0.0309,
      "velocity": 114,
      "chip": "ym2612"
    },
    {
      "channel": 3,
      "note": 74,
      "start": 13.4239,
      "duration": 0.1088,
      "velocity": 94,
      "chip": "ym2612"
    },
    {
      "channel": 0,
      "note": 98,
      "start": 13.5324,
      "duration": 0.0154,
      "velocity": 127,
      "chip": "ym2612"
    },
    {
      "channel": 1,
      "note": 55,
      "start": 13.5325,
      "duration": 0.2179,
      "velocity": 93,
      "chip": "ym2612"
    },
    {
      "channel": 5,
      "note": 76,
      "start": 13.5329,
      "duration": 0.109,
      "velocity": 94,
      "chip": "ym2612"
    },
    {
      "channel": 0,
      "note": 76,
      "start": 13.5478,
      "duration": 0.0936,
      "velocity": 114,
      "chip": "ym2612"
    },
    {
      "channel": 0,
      "note": 68,
      "start": 13.6413,
      "duration": 0.0309,
      "velocity": 114,
      "chip": "ym2612"
    },
    {
      "channel": 3,
      "note": 76,
      "start": 13.6416,
      "duration": 0.109,
      "velocity": 94,
      "chip": "ym2612"
    },
    {
      "channel": 5,
      "note": 78,
      "start": 13.6419,
      "duration": 0.1089,
      "velocity": 94,
      "chip": "ym2612"
    },
    {
      "channel": 0,
      "note": 98,
      "start": 13.7503,
      "duration": 0.0309,
      "velocity": 114,
      "chip": "ym2612"
    },
    {
      "channel": 1,
      "note": 55,
      "start": 13.7504,
      "duration": 0.2179,
      "velocity": 93,
      "chip": "ym2612"
    },
    {
      "channel": 3,
      "note": 81,
      "start": 13.7506,
      "duration": 0.1089,
      "velocity": 94,
      "chip": "ym2612"
    },
    {
      "channel": 5,
      "note": 81,
      "start": 13.7508,
      "duration": 0.1089,
      "velocity": 94,
      "chip": "ym2612"
    },
    {
      "channel": 0,
      "note": 98,
      "start": 13.8592,
      "duration": 0.0309,
      "velocity": 114,
      "chip": "ym2612"
    },
    {
      "channel": 3,
      "note": 69,
      "start": 13.8595,
      "duration": 0.109,
      "velocity": 94,
      "chip": "ym2612"
    },
    {
      "channel": 5,
      "note": 69,
      "start": 13.8597,
      "duration": 0.109,
      "velocity": 94,
      "chip": "ym2612"
    },
    {
      "channel": 0,
      "note": 98,
      "start": 13.9682,
      "duration": 0.1089,
      "velocity": 114,
      "chip": "ym2612"
    },
    {
      "channel": 1,
      "note": 55,
      "start": 13.9683,
      "duration": 0.2178,
      "velocity": 93,
      "chip": "ym2612"
    },
    {
      "channel": 3,
      "note": 81,
      "start": 13.9685,
      "duration": 0.1089,
      "velocity": 94,
      "chip": "ym2612"
    },
    {
      "channel": 5,
      "note": 74,
      "start": 13.9688,
      "duration": 0.1088,
      "velocity": 94,
      "chip": "ym2612"
    },
    {
      "channel": 0,
      "note": 54,
      "start": 14.0771,
      "duration": 0.0309,
      "velocity": 114,
      "chip": "ym2612"
    },
    {
      "channel": 3,
      "note": 71,
      "start": 14.0774,
      "duration": 0.109,
      "velocity": 94,
      "chip": "ym2612"
    },
    {
      "channel": 0,
      "note": 98,
      "start": 14.186,
      "duration": 0.0309,
      "velocity": 114,
      "chip": "ym2612"
    },
    {
      "channel": 1,
      "note": 55,
      "start": 14.1861,
      "duration": 0.2179,
      "velocity": 93,
      "chip": "ym2612"
    },
    {
      "channel": 3,
      "note": 74,
      "start": 14.1863,
      "duration": 0.1089,
      "velocity": 94,
      "chip": "ym2612"
    },
    {
      "channel": 5,
      "note": 76,
      "start": 14.1866,
      "duration": 0.1089,
      "velocity": 94,
      "chip": "ym2612"
    },
    {
      "channel": 0,
      "note": 98,
      "start": 14.295,
      "duration": 0.0309,
      "velocity": 114,
      "chip": "ym2612"
    },
    {
      "channel": 5,
      "note": 81,
      "start": 14.2955,
      "duration": 0.109,
      "velocity": 94,
      "chip": "ym2612"
    },
    {
      "channel": 0,
      "note": 98,
      "start": 14.4039,
      "duration": 0.0154,
      "velocity": 127,
      "chip": "ym2612"
    },
    {
      "channel": 1,
      "note": 55,
      "start": 14.4041,
      "duration": 0.2178,
      "velocity": 93,
      "chip": "ym2612"
    },
    {
      "channel": 3,
      "note": 76,
      "start": 14.4042,
      "duration": 0.1089,
      "velocity": 94,
      "chip": "ym2612"
    },
    {
      "channel": 5,
      "note": 69,
      "start": 14.4045,
      "duration": 0.1089,
      "velocity": 94,
      "chip": "ym2612"
    },
    {
      "channel": 0,
      "note": 76,
      "start": 14.4193,
      "duration": 0.0936,
      "velocity": 114,
      "chip": "ym2612"
    },
    {
      "channel": 0,
      "note": 68,
      "start": 14.5129,
      "duration": 0.0309,
      "velocity": 114,
      "chip": "ym2612"
    },
    {
      "channel": 5,
      "note": 81,
      "start": 14.5134,
      "duration": 0.1091,
      "velocity": 94,
      "chip": "ym2612"
    },
    {
      "channel": 0,
      "note": 98,
      "start": 14.6218,
      "duration": 0.0309,
      "velocity": 114,
      "chip": "ym2612"
    },
    {
      "channel": 1,
      "note": 55,
      "start": 14.6219,
      "duration": 0.2179,
      "velocity": 93,
      "chip": "ym2612"
    },
    {
      "channel": 3,
      "note": 78,
      "start": 14.6222,
      "duration": 0.1088,
      "velocity": 94,
      "chip": "ym2612"
    },
    {
      "channel": 5,
      "note": 71,
      "start": 14.6224,
      "duration": 0.1088,
      "velocity": 94,
      "chip": "ym2612"
    },
    {
      "channel": 0,
      "note": 98,
      "start": 14.7307,
      "duration": 0.0309,
      "velocity": 114,
      "chip": "ym2612"
    },
    {
      "channel": 3,
      "note": 81,
      "start": 14.731,
      "duration": 0.109,
      "velocity": 94,
      "chip": "ym2612"
    },
    {
      "channel": 5,
      "note": 74,
      "start": 14.7312,
      "duration": 0.1092,
      "velocity": 94,
      "chip": "ym2612"
    },
    {
      "channel": 0,
      "note": 98,
      "start": 14.8397,
      "duration": 0.1089,
      "velocity": 114,
      "chip": "ym2612"
    },
    {
      "channel": 1,
      "note": 55,
      "start": 14.8398,
      "duration": 0.2178,
      "velocity": 93,
      "chip": "ym2612"
    },
    {
      "channel": 3,
      "note": 69,
      "start": 14.84,
      "duration": 0.1089,
      "velocity": 94,
      "chip": "ym2612"
    },
    {
      "channel": 0,
      "note": 54,
      "start": 14.9486,
      "duration": 0.0309,
      "velocity": 114,
      "chip": "ym2612"
    },
    {
      "channel": 3,
      "note": 74,
      "start": 14.9489,
      "duration": 0.109,
      "velocity": 94,
      "chip": "ym2612"
    },
    {
      "channel": 5,
      "note": 76,
      "start": 14.9491,
      "duration": 0.109,
      "velocity": 94,
      "chip": "ym2612"
    },
    {
      "channel": 0,
      "note": 98,
      "start": 15.0576,
      "duration": 0.0309,
      "velocity": 114,
      "chip": "ym2612"
    },
    {
      "channel": 1,
      "note": 55,
      "start": 15.0577,
      "duration": 0.2179,
      "velocity": 93,
      "chip": "ym2612"
    },
    {
      "channel": 5,
      "note": 78,
      "start": 15.0581,
      "duration": 0.1089,
      "velocity": 94,
      "chip": "ym2612"
    },
    {
      "channel": 0,
      "note": 98,
      "start": 15.1665,
      "duration": 0.0309,
      "velocity": 114,
      "chip": "ym2612"
    },
    {
      "channel": 3,
      "note": 76,
      "start": 15.1668,
      "duration": 0.109,
      "velocity": 94,
      "chip": "ym2612"
    },
    {
      "channel": 5,
      "note": 81,
      "start": 15.167,
      "duration": 0.109,
      "velocity": 94,
      "chip": "ym2612"
    },
    {
      "channel": 0,
      "note": 98,
      "start": 15.2754,
      "duration": 0.0154,
      "velocity": 127,
      "chip": "ym2612"
    },
    {
      "channel": 1,
      "note": 55,
      "start": 15.2756,
      "duration": 0.2178,
      "velocity": 93,
      "chip": "ym2612"
    },
    {
      "channel": 3,
      "note": 81,
      "start": 15.2758,
      "duration": 0.1089,
      "velocity": 94,
      "chip": "ym2612"
    },
    {
      "channel": 5,
      "note": 69,
      "start": 15.276,
      "duration": 0.1089,
      "velocity": 94,
      "chip": "ym2612"
    },
    {
      "channel": 0,
      "note": 76,
      "start": 15.2908,
      "duration": 0.0936,
      "velocity": 114,
      "chip": "ym2612"
    },
    {
      "channel": 0,
      "note": 68,
      "start": 15.3844,
      "duration": 0.0309,
      "velocity": 114,
      "chip": "ym2612"
    },
    {
      "channel": 3,
      "note": 69,
      "start": 15.3847,
      "duration": 0.109,
      "velocity": 94,
      "chip": "ym2612"
    },
    {
      "channel": 5,
      "note": 74,
      "start": 15.3849,
      "duration": 0.109,
      "velocity": 94,
      "chip": "ym2612"
    },
    {
      "channel": 0,
      "note": 98,
      "start": 15.4933,
      "duration": 0.0309,
      "velocity": 114,
      "chip": "ym2612"
    },
    {
      "channel": 1,
      "note": 55,
      "start": 15.4934,
      "duration": 0.2179,
      "velocity": 93,
      "chip": "ym2612"
    },
    {
      "channel": 3,
      "note": 81,
      "start": 15.4937,
      "duration": 0.1089,
      "velocity": 94,
      "chip": "ym2612"
    },
    {
      "channel": 0,
      "note": 98,
      "start": 15.6023,
      "duration": 0.0309,
      "velocity": 114,
      "chip": "ym2612"
    },
    {
      "channel": 3,
      "note": 71,
      "start": 15.6025,
      "duration": 0.109,
      "velocity": 94,
      "chip": "ym2612"
    },
    {
      "channel": 5,
      "note": 76,
      "start": 15.6028,
      "duration": 0.109,
      "velocity": 94,
      "chip": "ym2612"
    },
    {
      "channel": 0,
      "note": 98,
      "start": 15.7112,
      "duration": 0.1089,
      "velocity": 127,
      "chip": "ym2612"
    },
    {
      "channel": 1,
      "note": 55,
      "start": 15.7114,
      "duration": 0.2178,
      "velocity": 93,
      "chip": "ym2612"
    },
    {
      "channel": 3,
      "note": 74,
      "start": 15.7116,
      "duration": 0.1089,
      "velocity": 94,
      "chip": "ym2612"
    },
    {
      "channel": 5,
      "note": 81,
      "start": 15.7118,
      "duration": 0.1088,
      "velocity": 94,
      "chip": "ym2612"
    },
    {
      "channel": 0,
      "note": 54,
      "start": 15.8202,
      "duration": 0.0154,
      "velocity": 127,
      "chip": "ym2612"
    },
    {
      "channel": 5,
      "note": 69,
      "start": 15.8207,
      "duration": 0.109,
      "velocity": 94,
      "chip": "ym2612"
    },
    {
      "channel": 0,
      "note": 76,
      "start": 15.8355,
      "duration": 0.0936,
      "velocity": 114,
      "chip": "ym2612"
    },
    {
      "channel": 0,
      "note": 68,
      "start": 15.9291,
      "duration": 0.0309,
      "velocity": 114,
      "chip": "ym2612"
    },
    {
      "channel": 1,
      "note": 55,
      "start": 15.9292,
      "duration": 0.2179,
      "velocity": 93,
      "chip": "ym2612"
    },
    {
      "channel": 3,
      "note": 76,
      "start": 15.9294,
      "duration": 0.1089,
      "velocity": 94,
      "chip": "ym2612"
    },
    {
      "channel": 5,
      "note": 81,
      "start": 15.9297,
      "duration": 0.1088,
      "velocity": 94,
      "chip": "ym2612"
    },
    {
      "channel": 0,
      "note": 98,
      "start": 16.038,
      "duration": 0.0309,
      "velocity": 114,
      "chip": "ym2612"
    },
    {
      "channel": 5,
      "note": 71,
      "start": 16.0385,
      "duration": 0.1092,
      "velocity": 94,
      "chip": "ym2612"
    },
    {
      "channel": 0,
      "note": 98,
      "start": 16.147,
      "duration": 0.1089,
      "velocity": 114,
      "chip": "ym2612"
    },
    {
      "channel": 1,
      "note": 56,
      "start": 16.1471,
      "duration": 0.2178,
      "velocity": 93,
      "chip": "ym2612"
    },
    {
      "channel": 2,
      "note": 43,
      "start": 16.1473,
      "duration": 3.0503,
      "velocity": 121,
      "chip": "ym2612"
    },
    {
      "channel": 3,
      "note": 78,
      "start": 16.1474,
      "duration": 0.1088,
      "velocity": 94,
      "chip": "ym2612"
    },
    {
      "channel": 5,
      "note": 74,
      "start": 16.1477,
      "duration": 0.1087,
      "velocity": 94,
      "chip": "ym2612"
    },
    {
      "channel": 0,
      "note": 54,
      "start": 16.2559,
      "duration": 0.0309,
      "velocity": 114,
      "chip": "ym2612"
    },
    {
      "channel": 3,
      "note": 81,
      "start": 16.2562,
      "duration": 0.109,
      "velocity": 94,
      "chip": "ym2612"
    },
    {
      "channel": 4,
      "note": 43,
      "start": 16.3339,
      "duration": 3.0504,
      "velocity": 121,
      "chip": "ym2612"
    },
    {
      "channel": 0,
      "note": 98,
      "start": 16.3649,
      "duration": 0.0309,
      "velocity": 114,
      "chip": "ym2612"
    },
    {
      "channel": 1,
      "note": 64,
      "start": 16.365,
      "duration": 0.2179,
      "velocity": 93,
      "chip": "ym2612"
    },
    {
      "channel": 3,
      "note": 69,
      "start": 16.3652,
      "duration": 0.109,
      "velocity": 94,
      "chip": "ym2612"
    },
    {
      "channel": 5,
      "note": 76,
      "start": 16.3654,
      "duration": 0.1091,
      "velocity": 94,
      "chip": "ym2612"
    },
    {
      "channel": 0,
      "note": 98,
      "start": 16.474,
      "duration": 0.0307,
      "velocity": 114,
      "chip": "ym2612"
    },
    {
      "channel": 3,
      "note": 74,
      "start": 16.4743,
      "duration": 0.1088,
      "velocity": 94,
      "chip": "ym2612"
    },
    {
      "channel": 5,
      "note": 78,
      "start": 16.4745,
      "duration": 0.1088,
      "velocity": 94,
      "chip": "ym2612"
    },
    {
      "channel": 0,
      "note": 98,
      "start": 16.5827,
      "duration": 0.0154,
      "velocity": 127,
      "chip": "ym2612"
    },
    {
      "channel": 1,
      "note": 64,
      "start": 16.5829,
      "duration": 0.2179,
      "velocity": 93,
      "chip": "ym2612"
    },
    {
      "channel": 5,
      "note": 81,
      "start": 16.5833,
      "duration": 0.1089,
      "velocity": 94,
      "chip": "ym2612"
    },
    {
      "channel": 0,
      "note": 76,
      "start": 16.5981,
      "duration": 0.0936,
      "velocity": 114,
      "chip": "ym2612"
    },
    {
      "channel": 0,
      "note": 68,
      "start": 16.6917,
      "duration": 0.0309,
      "velocity": 114,
      "chip": "ym2612"
    },
    {
      "channel": 3,
      "note": 76,
      "start": 16.692,
      "duration": 0.109,
      "velocity": 94,
      "chip": "ym2612"
    },
    {
      "channel": 5,
      "note": 69,
      "start": 16.6922,
      "duration": 0.109,
      "velocity": 94,
      "chip": "ym2612"
    },
    {
      "channel": 0,
      "note": 98,
      "start": 16.8006,
      "duration": 0.0309,
      "velocity": 114,
      "chip": "ym2612"
    },
    {
      "channel": 1,
      "note": 64,
      "start": 16.8007,
      "duration": 0.2179,
      "velocity": 93,
      "chip": "ym2612"
    },
    {
      "channel": 3,
      "note": 81,
      "start": 16.801,
      "duration": 0.1089,
      "velocity": 94,
      "chip": "ym2612"
    },
    {
      "channel": 5,
      "note": 74,
      "start": 16.8012,
      "duration": 0.1089,
      "velocity": 94,
      "chip": "ym2612"
    },
    {
      "channel": 0,
      "note": 98,
      "start": 16.9096,
      "duration": 0.0309,
      "velocity": 114,
      "chip": "ym2612"
    },
    {
      "channel": 3,
      "note": 69,
      "start": 16.9098,
      "duration": 0.109,
      "velocity": 94,
      "chip": "ym2612"
    },
    {
      "channel": 0,
      "note": 98,
      "start": 17.0185,
      "duration": 0.1089,
      "velocity": 114,
      "chip": "ym2612"
    },
    {
      "channel": 1,
      "note": 64,
      "start": 17.0187,
      "duration": 0.2178,
      "velocity": 93,
      "chip": "ym2612"
    },
    {
      "channel": 3,
      "note": 81,
      "start": 17.0189,
      "duration": 0.1089,
      "velocity": 94,
      "chip": "ym2612"
    },
    {
      "channel": 5,
      "note": 76,
      "start": 17.0191,
      "duration": 0.1089,
      "velocity": 94,
      "chip": "ym2612"
    },
    {
      "channel": 0,
      "note": 54,
      "start": 17.1275,
      "duration": 0.0309,
      "velocity": 114,
      "chip": "ym2612"
    },
    {
      "channel": 3,
      "note": 71,
      "start": 17.1278,
      "duration": 0.109,
      "velocity": 94,
      "chip": "ym2612"
    },
    {
      "channel": 5,
      "note": 81,
      "start": 17.128,
      "duration": 0.109,
      "velocity": 94,
      "chip": "ym2612"
    },
    {
      "channel": 0,
      "note": 98,
      "start": 17.2364,
      "duration": 0.0309,
      "velocity": 114,
      "chip": "ym2612"
    },
    {
      "channel": 1,
      "note": 64,
      "start": 17.2365,
      "duration": 0.2179,
      "velocity": 93,
      "chip": "ym2612"
    },
    {
      "channel": 3,
      "note": 74,
      "start": 17.2367,
      "duration": 0.1089,
      "velocity": 94,
      "chip": "ym2612"
    },
    {
      "channel": 5,
      "note": 69,
      "start": 17.237,
      "duration": 0.1089,
      "velocity": 94,
      "chip": "ym2612"
    },
    {
      "channel": 0,
      "note": 98,
      "start": 17.3454,
      "duration": 0.0309,
      "velocity": 114,
      "chip": "ym2612"
    },
    {
      "channel": 5,
      "note": 81,
      "start": 17.3458,
      "duration": 0.109,
      "velocity": 94,
      "chip": "ym2612"
    },
    {
      "channel": 0,
      "note": 98,
      "start": 17.4543,
      "duration": 0.0154,
      "velocity": 127,
      "chip": "ym2612"
    },
    {
      "channel": 1,
      "note": 64,
      "start": 17.4544,
      "duration": 0.2178,
      "velocity": 93,
      "chip": "ym2612"
    },
    {
      "channel": 3,
      "note": 76,
      "start": 17.4546,
      "duration": 0.1089,
      "velocity": 94,
      "chip": "ym2612"
    },
    {
      "channel": 5,
      "note": 71,
      "start": 17.4549,
      "duration": 0.1089,
      "velocity": 94,
      "chip": "ym2612"
    },
    {
      "channel": 0,
      "note": 76,
      "start": 17.4696,
      "duration": 0.0936,
      "velocity": 114,
      "chip": "ym2612"
    },
    {
      "channel": 0,
      "note": 68,
      "start": 17.5632,
      "duration": 0.0309,
      "velocity": 114,
      "chip": "ym2612"
    },
    {
      "channel": 5,
      "note": 74,
      "start": 17.5637,
      "duration": 0.109,
      "velocity": 94,
      "chip": "ym2612"
    },
    {
      "channel": 0,
      "note": 98,
      "start": 17.6722,
      "duration": 0.0309,
      "velocity": 114,
      "chip": "ym2612"
    },
    {
      "channel": 1,
      "note": 64,
      "start": 17.6723,
      "duration": 0.2179,
      "velocity": 93,
      "chip": "ym2612"
    },
    {
      "channel": 3,
      "note": 78,
      "start": 17.6726,
      "duration": 0.1088,
      "velocity": 94,
      "chip": "ym2612"
    },
    {
      "channel": 0,
      "note": 98,
      "start": 17.7811,
      "duration": 0.0309,
      "velocity": 114,
      "chip": "ym2612"
    },
    {
      "channel": 3,
      "note": 81,
      "start": 17.7814,
      "duration": 0.1092,
      "velocity": 94,
      "chip": "ym2612"
    },
    {
      "channel": 5,
      "note": 76,
      "start": 17.7816,
      "duration": 0.1093,
      "velocity": 94,
      "chip": "ym2612"
    },
    {
      "channel": 0,
      "note": 98,
      "start": 17.8901,
      "duration": 0.1089,
      "velocity": 114,
      "chip": "ym2612"
    },
    {
      "channel": 1,
      "note": 64,
      "start": 17.8902,
      "duration": 0.2178,
      "velocity": 93,
      "chip": "ym2612"
    },
    {
      "channel": 3,
      "note": 69,
      "start": 17.8906,
      "duration": 0.1087,
      "velocity": 94,
      "chip": "ym2612"
    },
    {
      "channel": 5,
      "note": 78,
      "start": 17.8909,
      "duration": 0.1086,
      "velocity": 94,
      "chip": "ym2612"
    },
    {
      "channel": 0,
      "note": 54,
      "start": 17.999,
      "duration": 0.0309,
      "velocity": 114,
      "chip": "ym2612"
    },
    {
      "channel": 3,
      "note": 74,
      "start": 17.9993,
      "duration": 0.109,
      "velocity": 94,
      "chip": "ym2612"
    },
    {
      "channel": 5,
      "note": 81,
      "start": 17.9995,
      "duration": 0.1089,
      "velocity": 94,
      "chip": "ym2612"
    },
    {
      "channel": 0,
      "note": 98,
      "start": 18.1079,
      "duration": 0.0309,
      "velocity": 114,
      "chip": "ym2612"
    },
    {
      "channel": 1,
      "note": 64,
      "start": 18.108,
      "duration": 0.2179,
      "velocity": 93,
      "chip": "ym2612"
    },
    {
      "channel": 5,
      "note": 69,
      "start": 18.1085,
      "duration": 0.1089,
      "velocity": 94,
      "chip": "ym2612"
    },
    {
      "channel": 0,
      "note": 98,
      "start": 18.2169,
      "duration": 0.0309,
      "velocity": 114,
      "chip": "ym2612"
    },
    {
      "channel": 3,
      "note": 76,
      "start": 18.2171,
      "duration": 0.109,
      "velocity": 94,
      "chip": "ym2612"
    },
    {
      "channel": 5,
      "note": 74,
      "start": 18.2174,
      "duration": 0.109,
      "velocity": 94,
      "chip": "ym2612"
    },
    {
      "channel": 0,
      "note": 98,
      "start": 18.3258,
      "duration": 0.0154,
      "velocity": 127,
      "chip": "ym2612"
    },
    {
      "channel": 1,
      "note": 64,
      "start": 18.326,
      "duration": 0.2178,
      "velocity": 93,
      "chip": "ym2612"
    },
    {
      "channel": 3,
      "note": 81,
      "start": 18.3261,
      "duration": 0.1089,
      "velocity": 94,
      "chip": "ym2612"
    },
    {
      "channel": 0,
      "note": 76,
      "start": 18.3412,
      "duration": 0.0936,
      "velocity": 114,
      "chip": "ym2612"
    },
    {
      "channel": 0,
      "note": 68,
      "start": 18.4348,
      "duration": 0.0309,
      "velocity": 114,
      "chip": "ym2612"
    },
    {
      "channel": 3,
      "note": 69,
      "start": 18.4351,
      "duration": 0.109,
      "velocity": 94,
      "chip": "ym2612"
    },
    {
      "channel": 5,
      "note": 76,
      "start": 18.4353,
      "duration": 0.109,
      "velocity": 94,
      "chip": "ym2612"
    },
    {
      "channel": 0,
      "note": 98,
      "start": 18.5437,
      "duration": 0.0309,
      "velocity": 114,
      "chip": "ym2612"
    },
    {
      "channel": 1,
      "note": 64,
      "start": 18.5438,
      "duration": 0.2179,
      "velocity": 93,
      "chip": "ym2612"
    },
    {
      "channel": 3,
      "note": 81,
      "start": 18.544,
      "duration": 0.1089,
      "velocity": 94,
      "chip": "ym2612"
    },
    {
      "channel": 5,
      "note": 81,
      "start": 18.5443,
      "duration": 0.1089,
      "velocity": 94,
      "chip": "ym2612"
    },
    {
      "channel": 0,
      "note": 98,
      "start": 18.6527,
      "duration": 0.0309,
      "velocity": 114,
      "chip": "ym2612"
    },
    {
      "channel": 3,
      "note": 71,
      "start": 18.6529,
      "duration": 0.109,
      "velocity": 94,
      "chip": "ym2612"
    },
    {
      "channel": 5,
      "note": 69,
      "start": 18.6532,
      "duration": 0.109,
      "velocity": 94,
      "chip": "ym2612"
    },
    {
      "channel": 0,
      "note": 98,
      "start": 18.7616,
      "duration": 0.1089,
      "velocity": 127,
      "chip": "ym2612"
    },
    {
      "channel": 1,
      "note": 64,
      "start": 18.7617,
      "duration": 0.2178,
      "velocity": 93,
      "chip": "ym2612"
    },
    {
      "channel": 3,
      "note": 74,
      "start": 18.7619,
      "duration": 0.1089,
      "velocity": 94,
      "chip": "ym2612"
    },
    {
      "channel": 5,
      "note": 81,
      "start": 18.7622,
      "duration": 0.1088,
      "velocity": 94,
      "chip": "ym2612"
    },
    {
      "channel": 0,
      "note": 54,
      "start": 18.8705,
      "duration": 0.0154,
      "velocity": 127,
      "chip": "ym2612"
    },
    {
      "channel": 5,
      "note": 71,
      "start": 18.871,
      "duration": 0.109,
      "velocity": 94,
      "chip": "ym2612"
    },
    {
      "channel": 0,
      "note": 76,
      "start": 18.8859,
      "duration": 0.0936,
      "velocity": 114,
      "chip": "ym2612"
    },
    {
      "channel": 0,
      "note": 68,
      "start": 18.9795,
      "duration": 0.0309,
      "velocity": 114,
      "chip": "ym2612"
    },
    {
      "channel": 1,
      "note": 64,
      "start": 18.9796,
      "duration": 0.2179,
      "velocity": 93,
      "chip": "ym2612"
    },
    {
      "channel": 3,
      "note": 76,
      "start": 18.9798,
      "duration": 0.1089,
      "velocity": 94,
      "chip": "ym2612"
    },
    {
      "channel": 5,
      "note": 74,
      "start": 18.98,
      "duration": 0.1088,
      "velocity": 94,
      "chip": "ym2612"
    },
    {
      "channel": 0,
      "note": 98,
      "start": 19.0884,
      "duration": 0.0309,
      "velocity": 114,
      "chip": "ym2612"
    },
    {
      "channel": 0,
      "note": 98,
      "start": 19.1974,
      "duration": 0.1089,
      "velocity": 114,
      "chip": "ym2612"
    },
    {
      "channel": 1,
      "note": 64,
      "start": 19.1975,
      "duration": 0.2178,
      "velocity": 93,
      "chip": "ym2612"
    },
    {
      "channel": 2,
      "note": 52,
      "start": 19.1976,
      "duration": 3.0504,
      "velocity": 121,
      "chip": "ym2612"
    },
    {
      "channel": 3,
      "note": 78,
      "start": 19.1978,
      "duration": 0.1087,
      "velocity": 94,
      "chip": "ym2612"
    },
    {
      "channel": 5,
      "note": 76,
      "start": 19.198,
      "duration": 0.1088,
      "velocity": 94,
      "chip": "ym2612"
    },
    {
      "channel": 0,
      "note": 54,
      "start": 19.3063,
      "duration": 0.0309,
      "velocity": 114,
      "chip": "ym2612"
    },
    {
      "channel": 3,
      "note": 81,
      "start": 19.3066,
      "duration": 0.109,
      "velocity": 94,
      "chip": "ym2612"
    },
    {
      "channel": 5,
      "note": 78,
      "start": 19.3068,
      "duration": 0.1089,
      "velocity": 94,
      "chip": "ym2612"
    },
    {
      "channel": 4,
      "note": 52,
      "start": 19.3842,
      "duration": 3.0504,
      "velocity": 121,
      "chip": "ym2612"
    },
    {
      "channel": 0,
      "note": 98,
      "start": 19.4152,
      "duration": 0.0309,
      "velocity": 114,
      "chip": "ym2612"
    },
    {
      "channel": 1,
      "note": 62,
      "start": 19.4154,
      "duration": 0.2179,
      "velocity": 93,
      "chip": "ym2612"
    },
    {
      "channel": 3,
      "note": 69,
      "start": 19.4156,
      "duration": 0.1089,
      "velocity": 94,
      "chip": "ym2612"
    },
    {
      "channel": 5,
      "note": 81,
      "start": 19.4158,
      "duration": 0.1089,
      "velocity": 94,
      "chip": "ym2612"
    },
    {
      "channel": 0,
      "note": 98,
      "start": 19.5242,
      "duration": 0.0309,
      "velocity": 114,
      "chip": "ym2612"
    },
    {
      "channel": 3,
      "note": 74,
      "start": 19.5244,
      "duration": 0.109,
      "velocity": 94,
      "chip": "ym2612"
    },
    {
      "channel": 5,
      "note": 69,
      "start": 19.5247,
      "duration": 0.109,
      "velocity": 94,
      "chip": "ym2612"
    },
    {
      "channel": 0,
      "note": 98,
      "start": 19.6331,
      "duration": 0.0154,
      "velocity": 127,
      "chip": "ym2612"
    },
    {
      "channel": 1,
      "note": 62,
      "start": 19.6333,
      "duration": 0.2178,
      "velocity": 93,
      "chip": "ym2612"
    },
    {
      "channel": 5,
      "note": 74,
      "start": 19.6337,
      "duration": 0.1089,
      "velocity": 94,
      "chip": "ym2612"
    },
    {
      "channel": 0,
      "note": 76,
      "start": 19.6485,
      "duration": 0.0936,
      "velocity": 114,
      "chip": "ym2612"
    },
    {
      "channel": 0,
      "note": 68,
      "start": 19.7421,
      "duration": 0.0309,
      "velocity": 114,
      "chip": "ym2612"
    },
    {
      "channel": 3,
      "note": 76,
      "start": 19.7423,
      "duration": 0.109,
      "velocity": 94,
      "chip": "ym2612"
    },
    {
      "channel": 0,
      "note": 98,
      "start": 19.851,
      "duration": 0.0309,
      "velocity": 114,
      "chip": "ym2612"
    },
    {
      "channel": 1,
      "note": 62,
      "start": 19.8511,
      "duration": 0.2179,
      "velocity": 93,
      "chip": "ym2612"
    },
    {
      "channel": 3,
      "note": 81,
      "start": 19.8513,
      "duration": 0.1089,
      "velocity": 94,
      "chip": "ym2612"
    },
    {
      "channel": 5,
      "note": 76,
      "start": 19.8515,
      "duration": 0.1089,
      "velocity": 94,
      "chip": "ym2612"
    },
    {
      "channel": 0,
      "note": 98,
      "start": 19.96,
      "duration": 0.0309,
      "velocity": 114,
      "chip": "ym2612"
    },
    {
      "channel": 3,
      "note": 69,
      "start": 19.9602,
      "duration": 0.109,
      "velocity": 94,
      "chip": "ym2612"
    },
    {
      "channel": 5,
      "note": 81,
      "start": 19.9605,
      "duration": 0.109,
      "velocity": 94,
      "chip": "ym2612"
    },
    {
      "channel": 0,
      "note": 98,
      "start": 20.0689,
      "duration": 0.1089,
      "velocity": 114,
      "chip": "ym2612"
    },
    {
      "channel": 1,
      "note": 62,
      "start": 20.069,
      "duration": 0.2178,
      "velocity": 93,
      "chip": "ym2612"
    },
    {
      "channel": 3,
      "note": 81,
      "start": 20.0692,
      "duration": 0.1089,
      "velocity": 94,
      "chip": "ym2612"
    },
    {
      "channel": 5,
      "note": 69,
      "start": 20.0695,
      "duration": 0.1089,
      "velocity": 94,
      "chip": "ym2612"
    },
    {
      "channel": 0,
      "note": 54,
      "start": 20.1778,
      "duration": 0.0309,
      "velocity": 114,
      "chip": "ym2612"
    },
    {
      "channel": 3,
      "note": 71,
      "start": 20.1781,
      "duration": 0.109,
      "velocity": 94,
      "chip": "ym2612"
    },
    {
      "channel": 5,
      "note": 81,
      "start": 20.1783,
      "duration": 0.109,
      "velocity": 94,
      "chip": "ym2612"
    },
    {
      "channel": 0,
      "note": 98,
      "start": 20.2868,
      "duration": 0.0309,
      "velocity": 114,
      "chip": "ym2612"
    },
    {
      "channel": 1,
      "note": 62,
      "start": 20.2869,
      "duration": 0.2179,
      "velocity": 93,
      "chip": "ym2612"
    },
    {
      "channel": 3,
      "note": 74,
      "start": 20.2871,
      "duration": 0.1089,
      "velocity": 94,
      "chip": "ym2612"
    },
    {
      "channel": 5,
      "note": 71,
      "start": 20.2873,
      "duration": 0.1089,
      "velocity": 94,
      "chip": "ym2612"
    },
    {
      "channel": 0,
      "note": 98,
      "start": 20.3957,
      "duration": 0.0309,
      "velocity": 114,
      "chip": "ym2612"
    },
    {
      "channel": 5,
      "note": 74,
      "start": 20.3962,
      "duration": 0.109,
      "velocity": 94,
      "chip": "ym2612"
    },
    {
      "channel": 0,
      "note": 98,
      "start": 20.5046,
      "duration": 0.0154,
      "velocity": 127,
      "chip": "ym2612"
    },
    {
      "channel": 1,
      "note": 62,
      "start": 20.5048,
      "duration": 0.2179,
      "velocity": 93,
      "chip": "ym2612"
    },
    {
      "channel": 3,
      "note": 76,
      "start": 20.505,
      "duration": 0.1089,
      "velocity": 94,
      "chip": "ym2612"
    },
    {
      "channel": 0,
      "note": 76,
      "start": 20.52,
      "duration": 0.0936,
      "velocity": 114,
      "chip": "ym2612"
    },
    {
      "channel": 0,
      "note": 68,
      "start": 20.6136,
      "duration": 0.0309,
      "velocity": 114,
      "chip": "ym2612"
    },
    {
      "channel": 5,
      "note": 76,
      "start": 20.6141,
      "duration": 0.1091,
      "velocity": 94,
      "chip": "ym2612"
    },
    {
      "channel": 0,
      "note": 98,
      "start": 20.7225,
      "duration": 0.0309,
      "velocity": 114,
      "chip": "ym2612"
    },
    {
      "channel": 1,
      "note": 62,
      "start": 20.7227,
      "duration": 0.2181,
      "velocity": 93,
      "chip": "ym2612"
    },
    {
      "channel": 3,
      "note": 78,
      "start": 20.7229,
      "duration": 0.1088,
      "velocity": 94,
      "chip": "ym2612"
    },
    {
      "channel": 5,
      "note": 78,
      "start": 20.7232,
      "duration": 0.1088,
      "velocity": 94,
      "chip": "ym2612"
    },
    {
      "channel": 0,
      "note": 98,
      "start": 20.8315,
      "duration": 0.0309,
      "velocity": 114,
      "chip": "ym2612"
    },
    {
      "channel": 3,
      "note": 81,
      "start": 20.8317,
      "duration": 0.1092,
      "velocity": 94,
      "chip": "ym2612"
    },
    {
      "channel": 5,
      "note": 81,
      "start": 20.832,
      "duration": 0.1092,
      "velocity": 94,
      "chip": "ym2612"
    },
    {
      "channel": 0,
      "note": 98,
      "start": 20.9406,
      "duration": 0.1088,
      "velocity": 114,
      "chip": "ym2612"
    },
    {
      "channel": 1,
      "note": 62,
      "start": 20.9407,
      "duration": 0.2177,
      "velocity": 93,
      "chip": "ym2612"
    },
    {
      "channel": 3,
      "note": 69,
      "start": 20.941,
      "duration": 0.1087,
      "velocity": 94,
      "chip": "ym2612"
    },
    {
      "channel": 5,
      "note": 69,
      "start": 20.9412,
      "duration": 0.1087,
      "velocity": 94,
      "chip": "ym2612"
    },
    {
      "channel": 0,
      "note": 54,
      "start": 21.0494,
      "duration": 0.0309,
      "velocity": 114,
      "chip": "ym2612"
    },
    {
      "channel": 3,
      "note": 74,
      "start": 21.0496,
      "duration": 0.109,
      "velocity": 94,
      "chip": "ym2612"
    },
    {
      "channel": 5,
      "note": 74,
      "start": 21.0499,
      "duration": 0.1089,
      "velocity": 94,
      "chip": "ym2612"
    },
    {
      "channel": 0,
      "note": 98,
      "start": 21.1583,
      "duration": 0.0309,
      "velocity": 114,
      "chip": "ym2612"
    },
    {
      "channel": 1,
      "note": 62,
      "start": 21.1584,
      "duration": 0.2179,
      "velocity": 93,
      "chip": "ym2612"
    },
    {
      "channel": 0,
      "note": 98,
      "start": 21.2673,
      "duration": 0.0309,
      "velocity": 114,
      "chip": "ym2612"
    },
    {
      "channel": 3,
      "note": 76,
      "start": 21.2675,
      "duration": 0.109,
      "velocity": 94,
      "chip": "ym2612"
    },
    {
      "channel": 5,
      "note": 76,
      "start": 21.2677,
      "duration": 0.109,
      "velocity": 94,
      "chip": "ym2612"
    },
    {
      "channel": 0,
      "note": 98,
      "start": 21.3762,
      "duration": 0.0154,
      "velocity": 127,
      "chip": "ym2612"
    },
    {
      "channel": 1,
      "note": 62,
      "start": 21.3763,
      "duration": 0.2178,
      "velocity": 93,
      "chip": "ym2612"
    },
    {
      "channel": 3,
      "note": 81,
      "start": 21.3765,
      "duration": 0.1089,
      "velocity": 94,
      "chip": "ym2612"
    },
    {
      "channel": 5,
      "note": 81,
      "start": 21.3768,
      "duration": 0.1089,
      "velocity": 94,
      "chip": "ym2612"
    },
    {
      "channel": 0,
      "note": 76,
      "start": 21.3915,
      "duration": 0.0936,
      "velocity": 114,
      "chip": "ym2612"
    },
    {
      "channel": 0,
      "note": 68,
      "start": 21.4851,
      "duration": 0.0309,
      "velocity": 114,
      "chip": "ym2612"
    },
    {
      "channel": 3,
      "note": 69,
      "start": 21.4854,
      "duration": 0.109,
      "velocity": 94,
      "chip": "ym2612"
    },
    {
      "channel": 5,
      "note": 69,
      "start": 21.4856,
      "duration": 0.109,
      "velocity": 94,
      "chip": "ym2612"
    },
    {
      "channel": 0,
      "note": 98,
      "start": 21.5941,
      "duration": 0.0309,
      "velocity": 114,
      "chip": "ym2612"
    },
    {
      "channel": 1,
      "note": 62,
      "start": 21.5942,
      "duration": 0.2179,
      "velocity": 93,
      "chip": "ym2612"
    },
    {
      "channel": 3,
      "note": 81,
      "start": 21.5944,
      "duration": 0.1089,
      "velocity": 94,
      "chip": "ym2612"
    },
    {
      "channel": 5,
      "note": 81,
      "start": 21.5946,
      "duration": 0.1089,
      "velocity": 94,
      "chip": "ym2612"
    },
    {
      "channel": 0,
      "note": 98,
      "start": 21.703,
      "duration": 0.0309,
      "velocity": 114,
      "chip": "ym2612"
    },
    {
      "channel": 3,
      "note": 71,
      "start": 21.7033,
      "duration": 0.109,
      "velocity": 94,
      "chip": "ym2612"
    },
    {
      "channel": 5,
      "note": 71,
      "start": 21.7035,
      "duration": 0.109,
      "velocity": 94,
      "chip": "ym2612"
    },
    {
      "channel": 0,
      "note": 98,
      "start": 21.812,
      "duration": 0.1089,
      "velocity": 127,
      "chip": "ym2612"
    },
    {
      "channel": 1,
      "note": 62,
      "start": 21.8121,
      "duration": 0.2178,
      "velocity": 93,
      "chip": "ym2612"
    },
    {
      "channel": 3,
      "note": 74,
      "start": 21.8123,
      "duration": 0.1088,
      "velocity": 94,
      "chip": "ym2612"
    },
    {
      "channel": 5,
      "note": 74,
      "start": 21.8125,
      "duration": 0.1088,
      "velocity": 94,
      "chip": "ym2612"
    },
    {
      "channel": 0,
      "note": 54,
      "start": 21.9209,
      "duration": 0.0154,
      "velocity": 127,
      "chip": "ym2612"
    },
    {
      "channel": 0,
      "note": 76,
      "start": 21.9363,
      "duration": 0.0936,
      "velocity": 114,
      "chip": "ym2612"
    },
    {
      "channel": 0,
      "note": 68,
      "start": 22.0298,
      "duration": 0.0309,
      "velocity": 114,
      "chip": "ym2612"
    },
    {
      "channel": 1,
      "note": 62,
      "start": 22.03,
      "duration": 0.2179,
      "velocity": 93,
      "chip": "ym2612"
    },
    {
      "channel": 3,
      "note": 76,
      "start": 22.0302,
      "duration": 0.1089,
      "velocity": 94,
      "chip": "ym2612"
    },
    {
      "channel": 5,
      "note": 76,
      "start": 22.0304,
      "duration": 0.1089,
      "velocity": 94,
      "chip": "ym2612"
    },
    {
      "channel": 0,
      "note": 98,
      "start": 22.1388,
      "duration": 0.0309,
      "velocity": 114,
      "chip": "ym2612"
    },
    {
      "channel": 5,
      "note": 78,
      "start": 22.1393,
      "duration": 0.1091,
      "velocity": 94,
      "chip": "ym2612"
    },
    {
      "channel": 0,
      "note": 98,
      "start": 22.2478,
      "duration": 0.1089,
      "velocity": 114,
      "chip": "ym2612"
    },
    {
      "channel": 1,
      "note": 62,
      "start": 22.2479,
      "duration": 0.2178,
      "velocity": 93,
      "chip": "ym2612"
    },
    {
      "channel": 2,
      "note": 50,
      "start": 22.248,
      "duration": 3.0504,
      "velocity": 121,
      "chip": "ym2612"
    },
    {
      "channel": 3,
      "note": 78,
      "start": 22.2482,
      "duration": 0.1089,
      "velocity": 94,
      "chip": "ym2612"
    },
    {
      "channel": 5,
      "note": 81,
      "start": 22.2484,
      "duration": 0.1089,
      "velocity": 94,
      "chip": "ym2612"
    },
    {
      "channel": 0,
      "note": 54,
      "start": 22.3567,
      "duration": 0.0309,
      "velocity": 114,
      "chip": "ym2612"
    },
    {
      "channel": 3,
      "note": 81,
      "start": 22.3571,
      "duration": 0.1088,
      "velocity": 94,
      "chip": "ym2612"
    },
    {
      "channel": 5,
      "note": 69,
      "start": 22.3573,
      "duration": 0.1088,
      "velocity": 94,
      "chip": "ym2612"
    },
    {
      "channel": 4,
      "note": 50,
      "start": 22.4346,
      "duration": 3.0504,
      "velocity": 121,
      "chip": "ym2612"
    },
    {
      "channel": 0,
      "note": 98,
      "start": 22.4656,
      "duration": 0.0309,
      "velocity": 114,
      "chip": "ym2612"
    },
    {
      "channel": 1,
      "note": 59,
      "start": 22.4657,
      "duration": 0.2179,
      "velocity": 93,
      "chip": "ym2612"
    },
    {
      "channel": 3,
      "note": 69,
      "start": 22.4659,
      "duration": 0.1089,
      "velocity": 94,
      "chip": "ym2612"
    },
    {
      "channel": 5,
      "note": 74,
      "start": 22.4661,
      "duration": 0.1089,
      "velocity": 94,
      "chip": "ym2612"
    },
    {
      "channel": 0,
      "note": 98,
      "start": 22.5746,
      "duration": 0.0309,
      "velocity": 114,
      "chip": "ym2612"
    },
    {
      "channel": 3,
      "note": 74,
      "start": 22.5748,
      "duration": 0.109,
      "velocity": 94,
      "chip": "ym2612"
    },
    {
      "channel": 0,
      "note": 98,
      "start": 22.6835,
      "duration": 0.0154,
      "velocity": 127,
      "chip": "ym2612"
    },
    {
      "channel": 1,
      "note": 59,
      "start": 22.6836,
      "duration": 0.2178,
      "velocity": 93,
      "chip": "ym2612"
    },
    {
      "channel": 5,
      "note": 76,
      "start": 22.684,
      "duration": 0.1089,
      "velocity": 94,
      "chip": "ym2612"
    },
    {
      "channel": 0,
      "note": 76,
      "start": 22.6988,
      "duration": 0.0936,
      "velocity": 114,
      "chip": "ym2612"
    },
    {
      "channel": 0,
      "note": 68,
      "start": 22.7924,
      "duration": 0.0309,
      "velocity": 114,
      "chip": "ym2612"
    },
    {
      "channel": 3,
      "note": 76,
      "start": 22.7927,
      "duration": 0.109,
      "velocity": 94,
      "chip": "ym2612"
    },
    {
      "channel": 5,
      "note": 81,
      "start": 22.7929,
      "duration": 0.109,
      "velocity": 94,
      "chip": "ym2612"
    },
    {
      "channel": 0,
      "note": 98,
      "start": 22.9014,
      "duration": 0.0309,
      "velocity": 114,
      "chip": "ym2612"
    },
    {
      "channel": 1,
      "note": 59,
      "start": 22.9015,
      "duration": 0.2179,
      "velocity": 93,
      "chip": "ym2612"
    },
    {
      "channel": 3,
      "note": 81,
      "start": 22.9017,
      "duration": 0.1089,
      "velocity": 94,
      "chip": "ym2612"
    },
    {
      "channel": 5,
      "note": 69,
      "start": 22.9019,
      "duration": 0.1089,
      "velocity": 94,
      "chip": "ym2612"
    },
    {
      "channel": 0,
      "note": 98,
      "start": 23.0103,
      "duration": 0.0309,
      "velocity": 114,
      "chip": "ym2612"
    },
    {
      "channel": 3,
      "note": 69,
      "start": 23.0106,
      "duration": 0.109,
      "velocity": 94,
      "chip": "ym2612"
    },
    {
      "channel": 5,
      "note": 81,
      "start": 23.0108,
      "duration": 0.109,
      "velocity": 94,
      "chip": "ym2612"
    },
    {
      "channel": 0,
      "note": 98,
      "start": 23.1193,
      "duration": 0.1089,
      "velocity": 114,
      "chip": "ym2612"
    },
    {
      "channel": 1,
      "note": 59,
      "start": 23.1194,
      "duration": 0.2178,
      "velocity": 93,
      "chip": "ym2612"
    },
    {
      "channel": 3,
      "note": 81,
      "start": 23.1196,
      "duration": 0.1089,
      "velocity": 94,
      "chip": "ym2612"
    },
    {
      "channel": 5,
      "note": 71,
      "start": 23.1198,
      "duration": 0.1089,
      "velocity": 94,
      "chip": "ym2612"
    },
    {
      "channel": 0,
      "note": 54,
      "start": 23.2282,
      "duration": 0.0309,
      "velocity": 114,
      "chip": "ym2612"
    },
    {
      "channel": 3,
      "note": 71,
      "start": 23.2285,
      "duration": 0.109,
      "velocity": 94,
      "chip": "ym2612"
    },
    {
      "channel": 5,
      "note": 74,
      "start": 23.2287,
      "duration": 0.109,
      "velocity": 94,
      "chip": "ym2612"
    },
    {
      "channel": 0,
      "note": 98,
      "start": 23.3371,
      "duration": 0.0309,
      "velocity": 114,
      "chip": "ym2612"
    },
    {
      "channel": 1,
      "note": 59,
      "start": 23.3373,
      "duration": 0.2179,
      "velocity": 93,
      "chip": "ym2612"
    },
    {
      "channel": 3,
      "note": 74,
      "start": 23.3374,
      "duration": 0.1089,
      "velocity": 94,
      "chip": "ym2612"
    },
    {
      "channel": 0,
      "note": 98,
      "start": 23.4461,
      "duration": 0.0309,
      "velocity": 114,
      "chip": "ym2612"
    },
    {
      "channel": 5,
      "note": 76,
      "start": 23.4466,
      "duration": 0.1091,
      "velocity": 94,
      "chip": "ym2612"
    },
    {
      "channel": 0,
      "note": 98,
      "start": 23.555,
      "duration": 0.0154,
      "velocity": 127,
      "chip": "ym2612"
    },
    {
      "channel": 1,
      "note": 59,
      "start": 23.5551,
      "duration": 0.2179,
      "velocity": 93,
      "chip": "ym2612"
    },
    {
      "channel": 3,
      "note": 76,
      "start": 23.5554,
      "duration": 0.1089,
      "velocity": 94,
      "chip": "ym2612"
    },
    {
      "channel": 5,
      "note": 78,
      "start": 23.5556,
      "duration": 0.1088,
      "velocity": 94,
      "chip": "ym2612"
    },
    {
      "channel": 0,
      "note": 76,
      "start": 23.5704,
      "duration": 0.0936,
      "velocity": 114,
      "chip": "ym2612"
    },
    {
      "channel": 0,
      "note": 68,
      "start": 23.664,
      "duration": 0.0309,
      "velocity": 114,
      "chip": "ym2612"
    },
    {
      "channel": 5,
      "note": 81,
      "start": 23.6645,
      "duration": 0.109,
      "velocity": 94,
      "chip": "ym2612"
    },
    {
      "channel": 0,
      "note": 98,
      "start": 23.7729,
      "duration": 0.0309,
      "velocity": 114,
      "chip": "ym2612"
    },
    {
      "channel": 1,
      "note": 59,
      "start": 23.773,
      "duration": 0.2179,
      "velocity": 93,
      "chip": "ym2612"
    },
    {
      "channel": 3,
      "note": 78,
      "start": 23.7733,
      "duration": 0.1088,
      "velocity": 94,
      "chip": "ym2612"
    },
    {
      "channel": 5,
      "note": 69,
      "start": 23.7735,
      "duration": 0.1088,
      "velocity": 94,
      "chip": "ym2612"
    },
    {
      "channel": 0,
      "note": 98,
      "start": 23.8819,
      "duration": 0.0309,
      "velocity": 114,
      "chip": "ym2612"
    },
    {
      "channel": 3,
      "note": 81,
      "start": 23.8821,
      "duration": 0.109,
      "velocity": 94,
      "chip": "ym2612"
    },
    {
      "channel": 5,
      "note": 74,
      "start": 23.8824,
      "duration": 0.109,
      "velocity": 94,
      "chip": "ym2612"
    },
    {
      "channel": 0,
      "note": 98,
      "start": 23.9908,
      "duration": 0.1089,
      "velocity": 114,
      "chip": "ym2612"
    },
    {
      "channel": 1,
      "note": 59,
      "start": 23.991,
      "duration": 0.2178,
      "velocity": 93,
      "chip": "ym2612"
    },
    {
      "channel": 3,
      "note": 69,
      "start": 23.9911,
      "duration": 0.1089,
      "velocity": 94,
      "chip": "ym2612"
    },
    {
      "channel": 0,
      "note": 54,
      "start": 24.0997,
      "duration": 0.0309,
      "velocity": 114,
      "chip": "ym2612"
    },
    {
      "channel": 3,
      "note": 74,
      "start": 24.1,
      "duration": 0.1089,
      "velocity": 94,
      "chip": "ym2612"
    },
    {
      "channel": 5,
      "note": 76,
      "start": 24.1002,
      "duration": 0.1089,
      "velocity": 94,
      "chip": "ym2612"
    },
    {
      "channel": 0,
      "note": 98,
      "start": 24.2087,
      "duration": 0.0309,
      "velocity": 114,
      "chip": "ym2612"
    },
    {
      "channel": 1,
      "note": 59,
      "start": 24.2088,
      "duration": 0.2179,
      "velocity": 93,
      "chip": "ym2612"
    },
    {
      "channel": 5,
      "note": 81,
      "start": 24.2092,
      "duration": 0.1089,
      "velocity": 94,
      "chip": "ym2612"
    },
    {
      "channel": 0,
      "note": 98,
      "start": 24.3176,
      "duration": 0.0309,
      "velocity": 114,
      "chip": "ym2612"
    },
    {
      "channel": 3,
      "note": 76,
      "start": 24.3179,
      "duration": 0.109,
      "velocity": 94,
      "chip": "ym2612"
    },
    {
      "channel": 5,
      "note": 69,
      "start": 24.3181,
      "duration": 0.109,
      "velocity": 94,
      "chip": "ym2612"
    },
    {
      "channel": 0,
      "note": 98,
      "start": 24.4266,
      "duration": 0.0154,
      "velocity": 127,
      "chip": "ym2612"
    },
    {
      "channel": 1,
      "note": 59,
      "start": 24.4267,
      "duration": 0.2178,
      "velocity": 93,
      "chip": "ym2612"
    },
    {
      "channel": 3,
      "note": 81,
      "start": 24.4269,
      "duration": 0.1089,
      "velocity": 94,
      "chip": "ym2612"
    },
    {
      "channel": 5,
      "note": 81,
      "start": 24.4271,
      "duration": 0.1089,
      "velocity": 94,
      "chip": "ym2612"
    },
    {
      "channel": 0,
      "note": 76,
      "start": 24.4419,
      "duration": 0.0936,
      "velocity": 114,
      "chip": "ym2612"
    },
    {
      "channel": 0,
      "note": 68,
      "start": 24.5355,
      "duration": 0.0309,
      "velocity": 114,
      "chip": "ym2612"
    },
    {
      "channel": 3,
      "note": 69,
      "start": 24.5358,
      "duration": 0.109,
      "velocity": 94,
      "chip": "ym2612"
    },
    {
      "channel": 5,
      "note": 71,
      "start": 24.536,
      "duration": 0.109,
      "velocity": 94,
      "chip": "ym2612"
    },
    {
      "channel": 0,
      "note": 98,
      "start": 24.6444,
      "duration": 0.0309,
      "velocity": 114,
      "chip": "ym2612"
    },
    {
      "channel": 1,
      "note": 59,
      "start": 24.6446,
      "duration": 0.2179,
      "velocity": 93,
      "chip": "ym2612"
    },
    {
      "channel": 3,
      "note": 81,
      "start": 24.6448,
      "duration": 0.1089,
      "velocity": 94,
      "chip": "ym2612"
    },
    {
      "channel": 5,
      "note": 74,
      "start": 24.645,
      "duration": 0.1089,
      "velocity": 94,
      "chip": "ym2612"
    },
    {
      "channel": 0,
      "note": 98,
      "start": 24.7534,
      "duration": 0.0309,
      "velocity": 114,
      "chip": "ym2612"
    },
    {
      "channel": 3,
      "note": 71,
      "start": 24.7537,
      "duration": 0.109,
      "velocity": 94,
      "chip": "ym2612"
    },
    {
      "channel": 0,
      "note": 98,
      "start": 24.8623,
      "duration": 0.1089,
      "velocity": 127,
      "chip": "ym2612"
    },
    {
      "channel": 1,
      "note": 59,
      "start": 24.8625,
      "duration": 0.2178,
      "velocity": 93,
      "chip": "ym2612"
    },
    {
      "channel": 3,
      "note": 74,
      "start": 24.8627,
      "duration": 0.1089,
      "velocity": 94,
      "chip": "ym2612"
    },
    {
      "channel": 5,
      "note": 76,
      "start": 24.8629,
      "duration": 0.1089,
      "velocity": 94,
      "chip": "ym2612"
    },
    {
      "channel": 0,
      "note": 54,
      "start": 24.9713,
      "duration": 0.0154,
      "velocity": 127,
      "chip": "ym2612"
    },
    {
      "channel": 5,
      "note": 78,
      "start": 24.9718,
      "duration": 0.1089,
      "velocity": 94,
      "chip": "ym2612"
    },
    {
      "channel": 0,
      "note": 76,
      "start": 24.9866,
      "duration": 0.0936,
      "velocity": 114,
      "chip": "ym2612"
    },
    {
      "channel": 0,
      "note": 68,
      "start": 25.0802,
      "duration": 0.0309,
      "velocity": 114,
      "chip": "ym2612"
    },
    {
      "channel": 1,
      "note": 59,
      "start": 25.0803,
      "duration": 0.2179,
      "velocity": 93,
      "chip": "ym2612"
    },
    {
      "channel": 3,
      "note": 76,
      "start": 25.0805,
      "duration": 0.1089,
      "velocity": 94,
      "chip": "ym2612"
    },
    {
      "channel": 5,
      "note": 81,
      "start": 25.0808,
      "duration": 0.1088,
      "velocity": 94,
      "chip": "ym2612"
    },
    {
      "channel": 0,
      "note": 98,
      "start": 25.1892,
      "duration": 0.0309,
      "velocity": 114,
      "chip": "ym2612"
    },
    {
      "channel": 5,
      "note": 69,
      "start": 25.1896,
      "duration": 0.1091,
      "velocity": 94,
      "chip": "ym2612"
    },
    {
      "channel": 0,
      "note": 98,
      "start": 25.2981,
      "duration": 0.1091,
      "velocity": 114,
      "chip": "ym2612"
    },
    {
      "channel": 1,
      "note": 59,
      "start": 25.2983,
      "duration": 0.2178,
      "velocity": 93,
      "chip": "ym2612"
    },
    {
      "channel": 2,
      "note": 47,
      "start": 25.2984,
      "duration": 3.0504,
      "velocity": 121,
      "chip": "ym2612"
    },
    {
      "channel": 3,
      "note": 78,
      "start": 25.2985,
      "duration": 0.1089,
      "velocity": 94,
      "chip": "ym2612"
    },
    {
      "channel": 5,
      "note": 74,
      "start": 25.2988,
      "duration": 0.1089,
      "velocity": 94,
      "chip": "ym2612"
    },
    {
      "channel": 0,
      "note": 54,
      "start": 25.4072,
      "duration": 0.0307,
      "velocity": 114,
      "chip": "ym2612"
    },
    {
      "channel": 3,
      "note": 81,
      "start": 25.4075,
      "duration": 0.1088,
      "velocity": 94,
      "chip": "ym2612"
    },
    {
      "channel": 4,
      "note": 47,
      "start": 25.485,
      "duration": 3.0503,
      "velocity": 121,
      "chip": "ym2612"
    },
    {
      "channel": 0,
      "note": 98,
      "start": 25.516,
      "duration": 0.0309,
      "velocity": 114,
      "chip": "ym2612"
    },
    {
      "channel": 1,
      "note": 64,
      "start": 25.5161,
      "duration": 0.2179,
      "velocity": 93,
      "chip": "ym2612"
    },
    {
      "channel": 3,
      "note": 69,
      "start": 25.5163,
      "duration": 0.1089,
      "velocity": 94,
      "chip": "ym2612"
    },
    {
      "channel": 5,
      "note": 76,
      "start": 25.5165,
      "duration": 0.1089,
      "velocity": 94,
      "chip": "ym2612"
    },
    {
      "channel": 0,
      "note": 98,
      "start": 25.6249,
      "duration": 0.0309,
      "velocity": 114,
      "chip": "ym2612"
    },
    {
      "channel": 3,
      "note": 74,
      "start": 25.6252,
      "duration": 0.109,
      "velocity": 94,
      "chip": "ym2612"
    },
    {
      "channel": 5,
      "note": 81,
      "start": 25.6254,
      "duration": 0.109,
      "velocity": 94,
      "chip": "ym2612"
    },
    {
      "channel": 0,
      "note": 98,
      "start": 25.7339,
      "duration": 0.0154,
      "velocity": 127,
      "chip": "ym2612"
    },
    {
      "channel": 1,
      "note": 64,
      "start": 25.734,
      "duration": 0.2178,
      "velocity": 93,
      "chip": "ym2612"
    },
    {
      "channel": 5,
      "note": 69,
      "start": 25.7344,
      "duration": 0.1089,
      "velocity": 94,
      "chip": "ym2612"
    },
    {
      "channel": 0,
      "note": 76,
      "start": 25.7492,
      "duration": 0.0936,
      "velocity": 114,
      "chip": "ym2612"
    },
    {
      "channel": 0,
      "note": 68,
      "start": 25.8428,
      "duration": 0.0311,
      "velocity": 114,
      "chip": "ym2612"
    },
    {
      "channel": 3,
      "note": 76,
      "start": 25.8431,
      "duration": 0.109,
      "velocity": 94,
      "chip": "ym2612"
    },
    {
      "channel": 5,
      "note": 81,
      "start": 25.8433,
      "duration": 0.109,
      "velocity": 94,
      "chip": "ym2612"
    },
    {
      "channel": 0,
      "note": 98,
      "start": 25.9517,
      "duration": 0.0309,
      "velocity": 114,
      "chip": "ym2612"
    },
    {
      "channel": 1,
      "note": 64,
      "start": 25.9519,
      "duration": 0.2179,
      "velocity": 93,
      "chip": "ym2612"
    },
    {
      "channel": 3,
      "note": 81,
      "start": 25.9521,
      "duration": 0.1089,
      "velocity": 94,
      "chip": "ym2612"
    },
    {
      "channel": 5,
      "note": 71,
      "start": 25.9523,
      "duration": 0.1089,
      "velocity": 94,
      "chip": "ym2612"
    },
    {
      "channel": 0,
      "note": 98,
      "start": 26.0607,
      "duration": 0.0309,
      "velocity": 114,
      "chip": "ym2612"
    },
    {
      "channel": 3,
      "note": 69,
      "start": 26.061,
      "duration": 0.109,
      "velocity": 94,
      "chip": "ym2612"
    },
    {
      "channel": 5,
      "note": 74,
      "start": 26.0612,
      "duration": 0.109,
      "velocity": 94,
      "chip": "ym2612"
    },
    {
      "channel": 0,
      "note": 98,
      "start": 26.1696,
      "duration": 0.1089,
      "velocity": 114,
      "chip": "ym2612"
    },
    {
      "channel": 1,
      "note": 64,
      "start": 26.1698,
      "duration": 0.2178,
      "velocity": 93,
      "chip": "ym2612"
    },
    {
      "channel": 3,
      "note": 81,
      "start": 26.17,
      "duration": 0.1089,
      "velocity": 94,
      "chip": "ym2612"
    },
    {
      "channel": 0,
      "note": 54,
      "start": 26.2786,
      "duration": 0.0309,
      "velocity": 114,
      "chip": "ym2612"
    },
    {
      "channel": 3,
      "note": 71,
      "start": 26.2788,
      "duration": 0.109,
      "velocity": 94,
      "chip": "ym2612"
    },
    {
      "channel": 5,
      "note": 76,
      "start": 26.2791,
      "duration": 0.109,
      "velocity": 94,
      "chip": "ym2612"
    },
    {
      "channel": 0,
      "note": 98,
      "start": 26.3875,
      "duration": 0.0309,
      "velocity": 114,
      "chip": "ym2612"
    },
    {
      "channel": 1,
      "note": 64,
      "start": 26.3876,
      "duration": 0.2179,
      "velocity": 93,
      "chip": "ym2612"
    },
    {
      "channel": 3,
      "note": 74,
      "start": 26.3878,
      "duration": 0.1089,
      "velocity": 94,
      "chip": "ym2612"
    },
    {
      "channel": 5,
      "note": 78,
      "start": 26.3881,
      "duration": 0.1088,
      "velocity": 94,
      "chip": "ym2612"
    },
    {
      "channel": 0,
      "note": 98,
      "start": 26.4964,
      "duration": 0.0309,
      "velocity": 114,
      "chip": "ym2612"
    },
    {
      "channel": 5,
      "note": 81,
      "start": 26.4969,
      "duration": 0.109,
      "velocity": 94,
      "chip": "ym2612"
    },
    {
      "channel": 0,
      "note": 98,
      "start": 26.6054,
      "duration": 0.0154,
      "velocity": 127,
      "chip": "ym2612"
    },
    {
      "channel": 1,
      "note": 64,
      "start": 26.6055,
      "duration": 0.2178,
      "velocity": 93,
      "chip": "ym2612"
    },
    {
      "channel": 3,
      "note": 76,
      "start": 26.6057,
      "duration": 0.1089,
      "velocity": 94,
      "chip": "ym2612"
    },
    {
      "channel": 5,
      "note": 69,
      "start": 26.6059,
      "duration": 0.1089,
      "velocity": 94,
      "chip": "ym2612"
    },
    {
      "channel": 0,
      "note": 76,
      "start": 26.6207,
      "duration": 0.0936,
      "velocity": 114,
      "chip": "ym2612"
    },
    {
      "channel": 0,
      "note": 68,
      "start": 26.7143,
      "duration": 0.0309,
      "velocity": 114,
      "chip": "ym2612"
    },
    {
      "channel": 5,
      "note": 74,
      "start": 26.7148,
      "duration": 0.1092,
      "velocity": 94,
      "chip": "ym2612"
    },
    {
      "channel": 0,
      "note": 98,
      "start": 26.8233,
      "duration": 0.0309,
      "velocity": 114,
      "chip": "ym2612"
    },
    {
      "channel": 1,
      "note": 64,
      "start": 26.8234,
      "duration": 0.2179,
      "velocity": 93,
      "chip": "ym2612"
    },
    {
      "channel": 3,
      "note": 78,
      "start": 26.8238,
      "duration": 0.1086,
      "velocity": 94,
      "chip": "ym2612"
    },
    {
      "channel": 0,
      "note": 98,
      "start": 26.9322,
      "duration": 0.0309,
      "velocity": 114,
      "chip": "ym2612"
    },
    {
      "channel": 3,
      "note": 81,
      "start": 26.9325,
      "duration": 0.109,
      "velocity": 94,
      "chip": "ym2612"
    },
    {
      "channel": 5,
      "note": 76,
      "start": 26.9327,
      "duration": 0.109,
      "velocity": 94,
      "chip": "ym2612"
    },
    {
      "channel": 0,
      "note": 98,
      "start": 27.0412,
      "duration": 0.1089,
      "velocity": 114,
      "chip": "ym2612"
    },
    {
      "channel": 1,
      "note": 64,
      "start": 27.0413,
      "duration": 0.2178,
      "velocity": 93,
      "chip": "ym2612"
    },
    {
      "channel": 3,
      "note": 69,
      "start": 27.0415,
      "duration": 0.1089,
      "velocity": 94,
      "chip": "ym2612"
    },
    {
      "channel": 5,
      "note": 81,
      "start": 27.0417,
      "duration": 0.1089,
      "velocity": 94,
      "chip": "ym2612"
    },
    {
      "channel": 0,
      "note": 54,
      "start": 27.1501,
      "duration": 0.0309,
      "velocity": 114,
      "chip": "ym2612"
    },
    {
      "channel": 3,
      "note": 74,
      "start": 27.1504,
      "duration": 0.1089,
      "velocity": 94,
      "chip": "ym2612"
    },
    {
      "channel": 5,
      "note": 69,
      "start": 27.1506,
      "duration": 0.1089,
      "velocity": 94,
      "chip": "ym2612"
    },
    {
      "channel": 0,
      "note": 98,
      "start": 27.259,
      "duration": 0.0309,
      "velocity": 114,
      "chip": "ym2612"
    },
    {
      "channel": 1,
      "note": 64,
      "start": 27.2592,
      "duration": 0.2179,
      "velocity": 93,
      "chip": "ym2612"
    },
    {
      "channel": 5,
      "note": 81,
      "start": 27.2596,
      "duration": 0.1089,
      "velocity": 94,
      "chip": "ym2612"
    },
    {
      "channel": 0,
      "note": 98,
      "start": 27.368,
      "duration": 0.0309,
      "velocity": 114,
      "chip": "ym2612"
    },
    {
      "channel": 3,
      "note": 76,
      "start": 27.3682,
      "duration": 0.109,
      "velocity": 94,
      "chip": "ym2612"
    },
    {
      "channel": 5,
      "note": 71,
      "start": 27.3685,
      "duration": 0.109,
      "velocity": 94,
      "chip": "ym2612"
    },
    {
      "channel": 0,
      "note": 98,
      "start": 27.4769,
      "duration": 0.0154,
      "velocity": 127,
      "chip": "ym2612"
    },
    {
      "channel": 1,
      "note": 64,
      "start": 27.4771,
      "duration": 0.2179,
      "velocity": 93,
      "chip": "ym2612"
    },
    {
      "channel": 3,
      "note": 81,
      "start": 27.4773,
      "duration": 0.1089,
      "velocity": 94,
      "chip": "ym2612"
    },
    {
      "channel": 5,
      "note": 74,
      "start": 27.4775,
      "duration": 0.1089,
      "velocity": 94,
      "chip": "ym2612"
    },
    {
      "channel": 0,
      "note": 76,
      "start": 27.4923,
      "duration": 0.0936,
      "velocity": 114,
      "chip": "ym2612"
    },
    {
      "channel": 0,
      "note": 68,
      "start": 27.5859,
      "duration": 0.0309,
      "velocity": 114,
      "chip": "ym2612"
    },
    {
      "channel": 3,
      "note": 69,
      "start": 27.5861,
      "duration": 0.109,
      "velocity": 94,
      "chip": "ym2612"
    },
    {
      "channel": 0,
      "note": 98,
      "start": 27.6948,
      "duration": 0.0309,
      "velocity": 114,
      "chip": "ym2612"
    },
    {
      "channel": 1,
      "note": 64,
      "start": 27.6949,
      "duration": 0.2179,
      "velocity": 93,
      "chip": "ym2612"
    },
    {
      "channel": 3,
      "note": 81,
      "start": 27.6951,
      "duration": 0.1089,
      "velocity": 94,
      "chip": "ym2612"
    },
    {
      "channel": 5,
      "note": 76,
      "start": 27.6954,
      "duration": 0.1089,
      "velocity": 94,
      "chip": "ym2612"
    },
    {
      "channel": 0,
      "note": 98,
      "start": 27.8037,
      "duration": 0.0309,
      "velocity": 114,
      "chip": "ym2612"
    },
    {
      "channel": 3,
      "note": 71,
      "start": 27.804,
      "duration": 0.109,
      "velocity": 94,
      "chip": "ym2612"
    },
    {
      "channel": 5,
      "note": 78,
      "start": 27.8043,
      "duration": 0.109,
      "velocity": 94,
      "chip": "ym2612"
    },
    {
      "channel": 0,
      "note": 98,
      "start": 27.9127,
      "duration": 0.1089,
      "velocity": 127,
      "chip": "ym2612"
    },
    {
      "channel": 1,
      "note": 64,
      "start": 27.9128,
      "duration": 0.2179,
      "velocity": 93,
      "chip": "ym2612"
    },
    {
      "channel": 3,
      "note": 74,
      "start": 27.913,
      "duration": 0.1089,
      "velocity": 94,
      "chip": "ym2612"
    },
    {
      "channel": 5,
      "note": 81,
      "start": 27.9133,
      "duration": 0.1089,
      "velocity": 94,
      "chip": "ym2612"
    },
    {
      "channel": 0,
      "note": 54,
      "start": 28.0216,
      "duration": 0.0154,
      "velocity": 127,
      "chip": "ym2612"
    },
    {
      "channel": 5,
      "note": 69,
      "start": 28.0221,
      "duration": 0.109,
      "velocity": 94,
      "chip": "ym2612"
    },
    {
      "channel": 0,
      "note": 76,
      "start": 28.037,
      "duration": 0.0936,
      "velocity": 114,
      "chip": "ym2612"
    },
    {
      "channel": 0,
      "note": 68,
      "start": 28.1306,
      "duration": 0.0309,
      "velocity": 114,
      "chip": "ym2612"
    },
    {
      "channel": 1,
      "note": 64,
      "start": 28.1307,
      "duration": 0.2179,
      "velocity": 93,
      "chip": "ym2612"
    },
    {
      "channel": 3,
      "note": 76,
      "start": 28.1309,
      "duration": 0.1089,
      "velocity": 94,
      "chip": "ym2612"
    },
    {
      "channel": 5,
      "note": 74,
      "start": 28.1311,
      "duration": 0.1088,
      "velocity": 94,
      "chip": "ym2612"
    },
    {
      "channel": 0,
      "note": 98,
      "start": 28.2395,
      "duration": 0.0309,
      "velocity": 114,
      "chip": "ym2612"
    },
    {
      "channel": 0,
      "note": 98,
      "start": 28.3485,
      "duration": 0.1089,
      "velocity": 114,
      "chip": "ym2612"
    },
    {
      "channel": 1,
      "note": 64,
      "start": 28.3486,
      "duration": 0.2178,
      "velocity": 93,
      "chip": "ym2612"
    },
    {
      "channel": 2,
      "note": 52,
      "start": 28.3487,
      "duration": 3.0504,
      "velocity": 121,
      "chip": "ym2612"
    },
    {
      "channel": 3,
      "note": 78,
      "start": 28.3489,
      "duration": 0.1088,
      "velocity": 94,
      "chip": "ym2612"
    },
    {
      "channel": 5,
      "note": 76,
      "start": 28.3491,
      "duration": 0.1088,
      "velocity": 94,
      "chip": "ym2612"
    },
    {
      "channel": 0,
      "note": 54,
      "start": 28.4574,
      "duration": 0.0309,
      "velocity": 114,
      "chip": "ym2612"
    },
    {
      "channel": 3,
      "note": 81,
      "start": 28.4577,
      "duration": 0.109,
      "velocity": 94,
      "chip": "ym2612"
    },
    {
      "channel": 5,
      "note": 81,
      "start": 28.4579,
      "duration": 0.109,
      "velocity": 94,
      "chip": "ym2612"
    },
    {
      "channel": 4,
      "note": 52,
      "start": 28.5353,
      "duration": 3.0504,
      "velocity": 121,
      "chip": "ym2612"
    },
    {
      "channel": 0,
      "note": 98,
      "start": 28.5663,
      "duration": 0.0309,
      "velocity": 114,
      "chip": "ym2612"
    },
    {
      "channel": 1,
      "note": 67,
      "start": 28.5665,
      "duration": 0.2179,
      "velocity": 93,
      "chip": "ym2612"
    },
    {
      "channel": 3,
      "note": 69,
      "start": 28.5666,
      "duration": 0.1089,
      "velocity": 94,
      "chip": "ym2612"
    },
    {
      "channel": 5,
      "note": 69,
      "start": 28.5669,
      "duration": 0.1089,
      "velocity": 94,
      "chip": "ym2612"
    },
    {
      "channel": 0,
      "note": 98,
      "start": 28.6753,
      "duration": 0.0309,
      "velocity": 114,
      "chip": "ym2612"
    },
    {
      "channel": 3,
      "note": 74,
      "start": 28.6756,
      "duration": 0.109,
      "velocity": 94,
      "chip": "ym2612"
    },
    {
      "channel": 5,
      "note": 81,
      "start": 28.6758,
      "duration": 0.109,
      "velocity": 94,
      "chip": "ym2612"
    },
    {
      "channel": 0,
      "note": 98,
      "start": 28.7842,
      "duration": 0.0154,
      "velocity": 127,
      "chip": "ym2612"
    },
    {
      "channel": 1,
      "note": 67,
      "start": 28.7844,
      "duration": 0.2178,
      "velocity": 93,
      "chip": "ym2612"
    },
    {
      "channel": 5,
      "note": 71,
      "start": 28.7848,
      "duration": 0.1089,
      "velocity": 94,
      "chip": "ym2612"
    },
    {
      "channel": 0,
      "note": 76,
      "start": 28.7996,
      "duration": 0.0936,
      "velocity": 114,
      "chip": "ym2612"
    },
    {
      "channel": 0,
      "note": 68,
      "start": 28.8932,
      "duration": 0.0309,
      "velocity": 114,
      "chip": "ym2612"
    },
    {
      "channel": 3,
      "note": 76,
      "start": 28.8934,
      "duration": 0.109,
      "velocity": 94,
      "chip": "ym2612"
    },
    {
      "channel": 5,
      "note": 74,
      "start": 28.8937,
      "duration": 0.109,
      "velocity": 94,
      "chip": "ym2612"
    },
    {
      "channel": 0,
      "note": 98,
      "start": 29.0021,
      "duration": 0.0309,
      "velocity": 114,
      "chip": "ym2612"
    },
    {
      "channel": 1,
      "note": 67,
      "start": 29.0022,
      "duration": 0.2179,
      "velocity": 93,
      "chip": "ym2612"
    },
    {
      "channel": 3,
      "note": 81,
      "start": 29.0024,
      "duration": 0.1089,
      "velocity": 94,
      "chip": "ym2612"
    },
    {
      "channel": 0,
      "note": 98,
      "start": 29.111,
      "duration": 0.0309,
      "velocity": 114,
      "chip": "ym2612"
    },
    {
      "channel": 3,
      "note": 69,
      "start": 29.1113,
      "duration": 0.109,
      "velocity": 94,
      "chip": "ym2612"
    },
    {
      "channel": 5,
      "note": 76,
      "start": 29.1115,
      "duration": 0.1091,
      "velocity": 94,
      "chip": "ym2612"
    },
    {
      "channel": 0,
      "note": 98,
      "start": 29.22,
      "duration": 0.1089,
      "velocity": 114,
      "chip": "ym2612"
    },
    {
      "channel": 1,
      "note": 67,
      "start": 29.2201,
      "duration": 0.2178,
      "velocity": 93,
      "chip": "ym2612"
    },
    {
      "channel": 3,
      "note": 81,
      "start": 29.2203,
      "duration": 0.1089,
      "velocity": 94,
      "chip": "ym2612"
    },
    {
      "channel": 5,
      "note": 78,
      "start": 29.2206,
      "duration": 0.1088,
      "velocity": 94,
      "chip": "ym2612"
    },
    {
      "channel": 0,
      "note": 54,
      "start": 29.3289,
      "duration": 0.0309,
      "velocity": 114,
      "chip": "ym2612"
    },
    {
      "channel": 3,
      "note": 71,
      "start": 29.3292,
      "duration": 0.109,
      "velocity": 94,
      "chip": "ym2612"
    },
    {
      "channel": 5,
      "note": 81,
      "start": 29.3295,
      "duration": 0.109,
      "velocity": 94,
      "chip": "ym2612"
    },
    {
      "channel": 0,
      "note": 98,
      "start": 29.4379,
      "duration": 0.0309,
      "velocity": 114,
      "chip": "ym2612"
    },
    {
      "channel": 1,
      "note": 67,
      "start": 29.438,
      "duration": 0.2179,
      "velocity": 93,
      "chip": "ym2612"
    },
    {
      "channel": 3,
      "note": 74,
      "start": 29.4382,
      "duration": 0.1089,
      "velocity": 94,
      "chip": "ym2612"
    },
    {
      "channel": 5,
      "note": 69,
      "start": 29.4384,
      "duration": 0.1088,
      "velocity": 94,
      "chip": "ym2612"
    },
    {
      "channel": 0,
      "note": 98,
      "start": 29.5468,
      "duration": 0.0309,
      "velocity": 114,
      "chip": "ym2612"
    },
    {
      "channel": 5,
      "note": 74,
      "start": 29.5473,
      "duration": 0.109,
      "velocity": 94,
      "chip": "ym2612"
    },
    {
      "channel": 0,
      "note": 98,
      "start": 29.6558,
      "duration": 0.0154,
      "velocity": 127,
      "chip": "ym2612"
    },
    {
      "channel": 1,
      "note": 67,
      "start": 29.6559,
      "duration": 0.218,
      "velocity": 93,
      "chip": "ym2612"
    },
    {
      "channel": 3,
      "note": 76,
      "start": 29.6561,
      "duration": 0.1089,
      "velocity": 94,
      "chip": "ym2612"
    },
    {
      "channel": 0,
      "note": 76,
      "start": 29.6711,
      "duration": 0.0936,
      "velocity": 114,
      "chip": "ym2612"
    },
    {
      "channel": 0,
      "note": 68,
      "start": 29.7647,
      "duration": 0.0309,
      "velocity": 114,
      "chip": "ym2612"
    },
    {
      "channel": 5,
      "note": 76,
      "start": 29.7652,
      "duration": 0.1092,
      "velocity": 94,
      "chip": "ym2612"
    },
    {
      "channel": 0,
      "note": 98,
      "start": 29.8738,
      "duration": 0.0307,
      "velocity": 114,
      "chip": "ym2612"
    },
    {
      "channel": 1,
      "note": 67,
      "start": 29.8739,
      "duration": 0.2178,
      "velocity": 93,
      "chip": "ym2612"
    },
    {
      "channel": 3,
      "note": 78,
      "start": 29.8742,
      "duration": 0.1086,
      "velocity": 94,
      "chip": "ym2612"
    },
    {
      "channel": 5,
      "note": 81,
      "start": 29.8744,
      "duration": 0.1087,
      "velocity": 94,
      "chip": "ym2612"
    },
    {
      "channel": 0,
      "note": 98,
      "start": 29.9826,
      "duration": 0.0309,
      "velocity": 114,
      "chip": "ym2612"
    },
    {
      "channel": 3,
      "note": 81,
      "start": 29.9829,
      "duration": 0.109,
      "velocity": 94,
      "chip": "ym2612"
    },
    {
      "channel": 5,
      "note": 69,
      "start": 29.9831,
      "duration": 0.109,
      "velocity": 94,
      "chip": "ym2612"
    },
    {
      "channel": 0,
      "note": 98,
      "start": 30.0915,
      "duration": 0.1089,
      "velocity": 114,
      "chip": "ym2612"
    },
    {
      "channel": 1,
      "note": 67,
      "start": 30.0917,
      "duration": 0.2178,
      "velocity": 93,
      "chip": "ym2612"
    },
    {
      "channel": 3,
      "note": 69,
      "start": 30.0919,
      "duration": 0.1089,
      "velocity": 94,
      "chip": "ym2612"
    },
    {
      "channel": 5,
      "note": 81,
      "start": 30.0921,
      "duration": 0.1089,
      "velocity": 94,
      "chip": "ym2612"
    },
    {
      "channel": 0,
      "note": 54,
      "start": 30.2005,
      "duration": 0.0309,
      "velocity": 114,
      "chip": "ym2612"
    },
    {
      "channel": 3,
      "note": 74,
      "start": 30.2007,
      "duration": 0.109,
      "velocity": 94,
      "chip": "ym2612"
    },
    {
      "channel": 5,
      "note": 71,
      "start": 30.201,
      "duration": 0.109,
      "velocity": 94,
      "chip": "ym2612"
    },
    {
      "channel": 0,
      "note": 98,
      "start": 30.3094,
      "duration": 0.0311,
      "velocity": 114,
      "chip": "ym2612"
    },
    {
      "channel": 1,
      "note": 67,
      "start": 30.3095,
      "duration": 0.2179,
      "velocity": 93,
      "chip": "ym2612"
    },
    {
      "channel": 5,
      "note": 74,
      "start": 30.3099,
      "duration": 0.1089,
      "velocity": 94,
      "chip": "ym2612"
    },
    {
      "channel": 0,
      "note": 98,
      "start": 30.4183,
      "duration": 0.0309,
      "velocity": 114,
      "chip": "ym2612"
    },
    {
      "channel": 3,
      "note": 76,
      "start": 30.4186,
      "duration": 0.109,
      "velocity": 94,
      "chip": "ym2612"
    },
    {
      "channel": 0,
      "note": 98,
      "start": 30.5273,
      "duration": 0.0154,
      "velocity": 127,
      "chip": "ym2612"
    },
    {
      "channel": 1,
      "note": 67,
      "start": 30.5274,
      "duration": 0.2179,
      "velocity": 93,
      "chip": "ym2612"
    },
    {
      "channel": 3,
      "note": 81,
      "start": 30.5276,
      "duration": 0.1089,
      "velocity": 94,
      "chip": "ym2612"
    },
    {
      "channel": 5,
      "note": 76,
      "start": 30.5278,
      "duration": 0.1089,
      "velocity": 94,
      "chip": "ym2612"
    },
    {
      "channel": 0,
      "note": 76,
      "start": 30.5427,
      "duration": 0.0936,
      "velocity": 114,
      "chip": "ym2612"
    },
    {
      "channel": 0,
      "note": 68,
      "start": 30.6362,
      "duration": 0.0309,
      "velocity": 114,
      "chip": "ym2612"
    },
    {
      "channel": 3,
      "note": 69,
      "start": 30.6365,
      "duration": 0.109,
      "velocity": 94,
      "chip": "ym2612"
    },
    {
      "channel": 5,
      "note": 78,
      "start": 30.6368,
      "duration": 0.1089,
      "velocity": 94,
      "chip": "ym2612"
    },
    {
      "channel": 0,
      "note": 98,
      "start": 30.7452,
      "duration": 0.0309,
      "velocity": 114,
      "chip": "ym2612"
    },
    {
      "channel": 1,
      "note": 67,
      "start": 30.7453,
      "duration": 0.2179,
      "velocity": 93,
      "chip": "ym2612"
    },
    {
      "channel": 3,
      "note": 81,
      "start": 30.7455,
      "duration": 0.1089,
      "velocity": 94,
      "chip": "ym2612"
    },
    {
      "channel": 5,
      "note": 81,
      "start": 30.7457,
      "duration": 0.1089,
      "velocity": 94,
      "chip": "ym2612"
    },
    {
      "channel": 0,
      "note": 98,
      "start": 30.8541,
      "duration": 0.0309,
      "velocity": 114,
      "chip": "ym2612"
    },
    {
      "channel": 3,
      "note": 71,
      "start": 30.8544,
      "duration": 0.109,
      "velocity": 94,
      "chip": "ym2612"
    },
    {
      "channel": 5,
      "note": 69,
      "start": 30.8546,
      "duration": 0.109,
      "velocity": 94,
      "chip": "ym2612"
    },
    {
      "channel": 0,
      "note": 98,
      "start": 30.9631,
      "duration": 0.1089,
      "velocity": 127,
      "chip": "ym2612"
    },
    {
      "channel": 1,
      "note": 67,
      "start": 30.9632,
      "duration": 0.2179,
      "velocity": 93,
      "chip": "ym2612"
    },
    {
      "channel": 3,
      "note": 74,
      "start": 30.9634,
      "duration": 0.1089,
      "velocity": 94,
      "chip": "ym2612"
    },
    {
      "channel": 5,
      "note": 74,
      "start": 30.9637,
      "duration": 0.1088,
      "velocity": 94,
      "chip": "ym2612"
    },
    {
      "channel": 0,
      "note": 54,
      "start": 31.072,
      "duration": 0.0154,
      "velocity": 127,
      "chip": "ym2612"
    },
    {
      "channel": 0,
      "note": 76,
      "start": 31.0873,
      "duration": 0.0936,
      "velocity": 114,
      "chip": "ym2612"
    },
    {
      "channel": 0,
      "note": 68,
      "start": 31.1809,
      "duration": 0.0309,
      "velocity": 114,
      "chip": "ym2612"
    },
    {
      "channel": 1,
      "note": 67,
      "start": 31.1811,
      "duration": 0.2179,
      "velocity": 93,
      "chip": "ym2612"
    },
    {
      "channel": 3,
      "note": 76,
      "start": 31.1812,
      "duration": 0.1089,
      "velocity": 94,
      "chip": "ym2612"
    },
    {
      "channel": 5,
      "note": 76,
      "start": 31.1815,
      "duration": 0.109,
      "velocity": 94,
      "chip": "ym2612"
    },
    {
      "channel": 0,
      "note": 98,
      "start": 31.2899,
      "duration": 0.0309,
      "velocity": 114,
      "chip": "ym2612"
    },
    {
      "channel": 5,
      "note": 81,
      "start": 31.2905,
      "duration": 0.109,
      "velocity": 94,
      "chip": "ym2612"
    },
    {
      "channel": 0,
      "note": 98,
      "start": 31.3988,
      "duration": 0.1089,
      "velocity": 114,
      "chip": "ym2612"
    },
    {
      "channel": 1,
      "note": 67,
      "start": 31.399,
      "duration": 0.2178,
      "velocity": 93,
      "chip": "ym2612"
    },
    {
      "channel": 2,
      "note": 43,
      "start": 31.3991,
      "duration": 3.0503,
      "velocity": 121,
      "chip": "ym2612"
    },
    {
      "channel": 3,
      "note": 78,
      "start": 31.3993,
      "duration": 0.1087,
      "velocity": 94,
      "chip": "ym2612"
    },
    {
      "channel": 5,
      "note": 69,
      "start": 31.3995,
      "duration": 0.1087,
      "velocity": 94,
      "chip": "ym2612"
    },
    {
      "channel": 0,
      "note": 54,
      "start": 31.5078,
      "duration": 0.0309,
      "velocity": 114,
      "chip": "ym2612"
    },
    {
      "channel": 3,
      "note": 81,
      "start": 31.508,
      "duration": 0.109,
      "velocity": 94,
      "chip": "ym2612"
    },
    {
      "channel": 5,
      "note": 81,
      "start": 31.5083,
      "duration": 0.109,
      "velocity": 94,
      "chip": "ym2612"
    },
    {
      "channel": 4,
      "note": 43,
      "start": 31.5857,
      "duration": 3.0503,
      "velocity": 121,
      "chip": "ym2612"
    },
    {
      "channel": 0,
      "note": 98,
      "start": 31.6167,
      "duration": 0.0309,
      "velocity": 114,
      "chip": "ym2612"
    },
    {
      "channel": 1,
      "note": 62,
      "start": 31.6168,
      "duration": 0.2179,
      "velocity": 93,
      "chip": "ym2612"
    },
    {
      "channel": 3,
      "note": 69,
      "start": 31.617,
      "duration": 0.1089,
      "velocity": 94,
      "chip": "ym2612"
    },
    {
      "channel": 5,
      "note": 71,
      "start": 31.6172,
      "duration": 0.1089,
      "velocity": 94,
      "chip": "ym2612"
    },
    {
      "channel": 0,
      "note": 98,
      "start": 31.7256,
      "duration": 0.0309,
      "velocity": 114,
      "chip": "ym2612"
    },
    {
      "channel": 3,
      "note": 74,
      "start": 31.7259,
      "duration": 0.109,
      "velocity": 94,
      "chip": "ym2612"
    },
    {
      "channel": 5,
      "note": 74,
      "start": 31.7261,
      "duration": 0.109,
      "velocity": 94,
      "chip": "ym2612"
    },
    {
      "channel": 0,
      "note": 98,
      "start": 31.8346,
      "duration": 0.0154,
      "velocity": 127,
      "chip": "ym2612"
    },
    {
      "channel": 1,
      "note": 62,
      "start": 31.8347,
      "duration": 0.2179,
      "velocity": 93,
      "chip": "ym2612"
    },
    {
      "channel": 0,
      "note": 76,
      "start": 31.85,
      "duration": 0.0936,
      "velocity": 114,
      "chip": "ym2612"
    },
    {
      "channel": 0,
      "note": 68,
      "start": 31.9435,
      "duration": 0.0309,
      "velocity": 114,
      "chip": "ym2612"
    },
    {
      "channel": 3,
      "note": 76,
      "start": 31.9438,
      "duration": 0.109,
      "velocity": 94,
      "chip": "ym2612"
    },
    {
      "channel": 5,
      "note": 76,
      "start": 31.944,
      "duration": 0.109,
      "velocity": 94,
      "chip": "ym2612"
    },
    {
      "channel": 0,
      "note": 98,
      "start": 32.0525,
      "duration": 0.0309,
      "velocity": 114,
      "chip": "ym2612"
    },
    {
      "channel": 1,
      "note": 62,
      "start": 32.0526,
      "duration": 0.2179,
      "velocity": 93,
      "chip": "ym2612"
    },
    {
      "channel": 3,
      "note": 81,
      "start": 32.0528,
      "duration": 0.1089,
      "velocity": 94,
      "chip": "ym2612"
    },
    {
      "channel": 5,
      "note": 78,
      "start": 32.0531,
      "duration": 0.1088,
      "velocity": 94,
      "chip": "ym2612"
    },
    {
      "channel": 0,
      "note": 98,
      "start": 32.1614,
      "duration": 0.0309,
      "velocity": 114,
      "chip": "ym2612"
    },
    {
      "channel": 3,
      "note": 69,
      "start": 32.1617,
      "duration": 0.109,
      "velocity": 94,
      "chip": "ym2612"
    },
    {
      "channel": 5,
      "note": 81,
      "start": 32.1619,
      "duration": 0.109,
      "velocity": 94,
      "chip": "ym2612"
    },
    {
      "channel": 0,
      "note": 98,
      "start": 32.2704,
      "duration": 0.1089,
      "velocity": 114,
      "chip": "ym2612"
    },
    {
      "channel": 1,
      "note": 62,
      "start": 32.2705,
      "duration": 0.2178,
      "velocity": 93,
      "chip": "ym2612"
    },
    {
      "channel": 3,
      "note": 81,
      "start": 32.2707,
      "duration": 0.1089,
      "velocity": 94,
      "chip": "ym2612"
    },
    {
      "channel": 5,
      "note": 69,
      "start": 32.271,
      "duration": 0.1089,
      "velocity": 94,
      "chip": "ym2612"
    },
    {
      "channel": 0,
      "note": 54,
      "start": 32.3793,
      "duration": 0.0309,
      "velocity": 114,
      "chip": "ym2612"
    },
    {
      "channel": 3,
      "note": 71,
      "start": 32.3796,
      "duration": 0.109,
      "velocity": 94,
      "chip": "ym2612"
    },
    {
      "channel": 5,
      "note": 74,
      "start": 32.3798,
      "duration": 0.109,
      "velocity": 94,
      "chip": "ym2612"
    },
    {
      "channel": 0,
      "note": 98,
      "start": 32.4883,
      "duration": 0.0309,
      "velocity": 114,
      "chip": "ym2612"
    },
    {
      "channel": 1,
      "note": 62,
      "start": 32.4883,
      "duration": 0.2179,
      "velocity": 93,
      "chip": "ym2612"
    },
    {
      "channel": 3,
      "note": 74,
      "start": 32.4885,
      "duration": 0.1089,
      "velocity": 94,
      "chip": "ym2612"
    },
    {
      "channel": 0,
      "note": 98,
      "start": 32.5972,
      "duration": 0.0309,
      "velocity": 114,
      "chip": "ym2612"
    },
    {
      "channel": 5,
      "note": 76,
      "start": 32.5976,
      "duration": 0.109,
      "velocity": 94,
      "chip": "ym2612"
    },
    {
      "channel": 0,
      "note": 98,
      "start": 32.7061,
      "duration": 0.0154,
      "velocity": 127,
      "chip": "ym2612"
    },
    {
      "channel": 1,
      "note": 62,
      "start": 32.7063,
      "duration": 0.2179,
      "velocity": 93,
      "chip": "ym2612"
    },
    {
      "channel": 3,
      "note": 76,
      "start": 32.7064,
      "duration": 0.1089,
      "velocity": 94,
      "chip": "ym2612"
    },
    {
      "channel": 5,
      "note": 81,
      "start": 32.7067,
      "duration": 0.1089,
      "velocity": 94,
      "chip": "ym2612"
    },
    {
      "channel": 0,
      "note": 76,
      "start": 32.7215,
      "duration": 0.0936,
      "velocity": 114,
      "chip": "ym2612"
    },
    {
      "channel": 0,
      "note": 68,
      "start": 32.8151,
      "duration": 0.0309,
      "velocity": 114,
      "chip": "ym2612"
    },
    {
      "channel": 5,
      "note": 69,
      "start": 32.8156,
      "duration": 0.1091,
      "velocity": 94,
      "chip": "ym2612"
    },
    {
      "channel": 0,
      "note": 98,
      "start": 32.9241,
      "duration": 0.0308,
      "velocity": 114,
      "chip": "ym2612"
    },
    {
      "channel": 1,
      "note": 62,
      "start": 32.9242,
      "duration": 0.2178,
      "velocity": 93,
      "chip": "ym2612"
    },
    {
      "channel": 3,
      "note": 78,
      "start": 32.9244,
      "duration": 0.1088,
      "velocity": 94,
      "chip": "ym2612"
    },
    {
      "channel": 5,
      "note": 81,
      "start": 32.9247,
      "duration": 0.1088,
      "velocity": 94,
      "chip": "ym2612"
    },
    {
      "channel": 0,
      "note": 98,
      "start": 33.0329,
      "duration": 0.0309,
      "velocity": 114,
      "chip": "ym2612"
    },
    {
      "channel": 3,
      "note": 81,
      "start": 33.0332,
      "duration": 0.109,
      "velocity": 94,
      "chip": "ym2612"
    },
    {
      "channel": 5,
      "note": 71,
      "start": 33.0334,
      "duration": 0.109,
      "velocity": 94,
      "chip": "ym2612"
    },
    {
      "channel": 0,
      "note": 98,
      "start": 33.1419,
      "duration": 0.1089,
      "velocity": 114,
      "chip": "ym2612"
    },
    {
      "channel": 1,
      "note": 62,
      "start": 33.142,
      "duration": 0.2178,
      "velocity": 93,
      "chip": "ym2612"
    },
    {
      "channel": 3,
      "note": 69,
      "start": 33.1422,
      "duration": 0.1089,
      "velocity": 94,
      "chip": "ym2612"
    },
    {
      "channel": 5,
      "note": 74,
      "start": 33.1425,
      "duration": 0.1089,
      "velocity": 94,
      "chip": "ym2612"
    },
    {
      "channel": 0,
      "note": 54,
      "start": 33.2508,
      "duration": 0.0309,
      "velocity": 114,
      "chip": "ym2612"
    },
    {
      "channel": 3,
      "note": 74,
      "start": 33.2511,
      "duration": 0.109,
      "velocity": 94,
      "chip": "ym2612"
    },
    {
      "channel": 0,
      "note": 98,
      "start": 33.3598,
      "duration": 0.0309,
      "velocity": 114,
      "chip": "ym2612"
    },
    {
      "channel": 1,
      "note": 62,
      "start": 33.3599,
      "duration": 0.2179,
      "velocity": 93,
      "chip": "ym2612"
    },
    {
      "channel": 5,
      "note": 76,
      "start": 33.3603,
      "duration": 0.109,
      "velocity": 94,
      "chip": "ym2612"
    },
    {
      "channel": 0,
      "note": 98,
      "start": 33.4687,
      "duration": 0.0309,
      "velocity": 114,
      "chip": "ym2612"
    },
    {
      "channel": 3,
      "note": 76,
      "start": 33.469,
      "duration": 0.109,
      "velocity": 94,
      "chip": "ym2612"
    },
    {
      "channel": 5,
      "note": 78,
      "start": 33.4693,
      "duration": 0.109,
      "velocity": 94,
      "chip": "ym2612"
    },
    {
      "channel": 0,
      "note": 98,
      "start": 33.5777,
      "duration": 0.0154,
      "velocity": 127,
      "chip": "ym2612"
    },
    {
      "channel": 1,
      "note": 62,
      "start": 33.5778,
      "duration": 0.2178,
      "velocity": 93,
      "chip": "ym2612"
    },
    {
      "channel": 3,
      "note": 81,
      "start": 33.578,
      "duration": 0.1089,
      "velocity": 94,
      "chip": "ym2612"
    },
    {
      "channel": 5,
      "note": 81,
      "start": 33.5782,
      "duration": 0.1089,
      "velocity": 94,
      "chip": "ym2612"
    },
    {
      "channel": 0,
      "note": 76,
      "start": 33.593,
      "duration": 0.0936,
      "velocity": 114,
      "chip": "ym2612"
    },
    {
      "channel": 0,
      "note": 68,
      "start": 33.6866,
      "duration": 0.0309,
      "velocity": 114,
      "chip": "ym2612"
    },
    {
      "channel": 3,
      "note": 69,
      "start": 33.6869,
      "duration": 0.109,
      "velocity": 94,
      "chip": "ym2612"
    },
    {
      "channel": 5,
      "note": 69,
      "start": 33.6871,
      "duration": 0.109,
      "velocity": 94,
      "chip": "ym2612"
    },
    {
      "channel": 0,
      "note": 98,
      "start": 33.7955,
      "duration": 0.0309,
      "velocity": 114,
      "chip": "ym2612"
    },
    {
      "channel": 1,
      "note": 62,
      "start": 33.7956,
      "duration": 0.2179,
      "velocity": 93,
      "chip": "ym2612"
    },
    {
      "channel": 3,
      "note": 81,
      "start": 33.7959,
      "duration": 0.1089,
      "velocity": 94,
      "chip": "ym2612"
    },
    {
      "channel": 5,
      "note": 74,
      "start": 33.7961,
      "duration": 0.1089,
      "velocity": 94,
      "chip": "ym2612"
    },
    {
      "channel": 0,
      "note": 98,
      "start": 33.9045,
      "duration": 0.0309,
      "velocity": 114,
      "chip": "ym2612"
    },
    {
      "channel": 3,
      "note": 71,
      "start": 33.9047,
      "duration": 0.109,
      "velocity": 94,
      "chip": "ym2612"
    },
    {
      "channel": 0,
      "note": 98,
      "start": 34.0134,
      "duration": 0.1089,
      "velocity": 127,
      "chip": "ym2612"
    },
    {
      "channel": 1,
      "note": 62,
      "start": 34.0136,
      "duration": 0.2178,
      "velocity": 93,
      "chip": "ym2612"
    },
    {
      "channel": 3,
      "note": 74,
      "start": 34.0138,
      "duration": 0.1089,
      "velocity": 94,
      "chip": "ym2612"
    },
    {
      "channel": 5,
      "note": 76,
      "start": 34.014,
      "duration": 0.1089,
      "velocity": 94,
      "chip": "ym2612"
    },
    {
      "channel": 0,
      "note": 54,
      "start": 34.1224,
      "duration": 0.0154,
      "velocity": 127,
      "chip": "ym2612"
    },
    {
      "channel": 5,
      "note": 81,
      "start": 34.1229,
      "duration": 0.109,
      "velocity": 94,
      "chip": "ym2612"
    },
    {
      "channel": 0,
      "note": 76,
      "start": 34.1377,
      "duration": 0.0936,
      "velocity": 114,
      "chip": "ym2612"
    },
    {
      "channel": 0,
      "note": 68,
      "start": 34.2313,
      "duration": 0.0309,
      "velocity": 114,
      "chip": "ym2612"
    },
    {
      "channel": 1,
      "note": 62,
      "start": 34.2314,
      "duration": 0.2179,
      "velocity": 93,
      "chip": "ym2612"
    },
    {
      "channel": 3,
      "note": 76,
      "start": 34.2316,
      "duration": 0.109,
      "velocity": 94,
      "chip": "ym2612"
    },
    {
      "channel": 5,
      "note": 69,
      "start": 34.2319,
      "duration": 0.109,
      "velocity": 94,
      "chip": "ym2612"
    },
    {
      "channel": 0,
      "note": 98,
      "start": 34.3404,
      "duration": 0.0307,
      "velocity": 114,
      "chip": "ym2612"
    },
    {
      "channel": 5,
      "note": 81,
      "start": 34.3409,
      "duration": 0.109,
      "velocity": 94,
      "chip": "ym2612"
    },
    {
      "channel": 0,
      "note": 98,
      "start": 34.4492,
      "duration": 0.1089,
      "velocity": 114,
      "chip": "ym2612"
    },
    {
      "channel": 1,
      "note": 62,
      "start": 34.4493,
      "duration": 0.2178,
      "velocity": 93,
      "chip": "ym2612"
    },
    {
      "channel": 2,
      "note": 50,
      "start": 34.4495,
      "duration": 3.0504,
      "velocity": 121,
      "chip": "ym2612"
    },
    {
      "channel": 3,
      "note": 78,
      "start": 34.4497,
      "duration": 0.1087,
      "velocity": 94,
      "chip": "ym2612"
    },
    {
      "channel": 5,
      "note": 71,
      "start": 34.4499,
      "duration": 0.1087,
      "velocity": 94,
      "chip": "ym2612"
    },
    {
      "channel": 0,
      "note": 54,
      "start": 34.5581,
      "duration": 0.0309,
      "velocity": 114,
      "chip": "ym2612"
    },
    {
      "channel": 3,
      "note": 81,
      "start": 34.5584,
      "duration": 0.109,
      "velocity": 94,
      "chip": "ym2612"
    },
    {
      "channel": 5,
      "note": 74,
      "start": 34.5586,
      "duration": 0.1089,
      "velocity": 94,
      "chip": "ym2612"
    },
    {
      "channel": 4,
      "note": 50,
      "start": 34.6361,
      "duration": 3.0504,
      "velocity": 121,
      "chip": "ym2612"
    },
    {
      "channel": 0,
      "note": 98,
      "start": 34.6671,
      "duration": 0.0309,
      "velocity": 114,
      "chip": "ym2612"
    },
    {
      "channel": 1,
      "note": 59,
      "start": 34.6672,
      "duration": 0.2179,
      "velocity": 93,
      "chip": "ym2612"
    },
    {
      "channel": 3,
      "note": 69,
      "start": 34.6674,
      "duration": 0.1089,
      "velocity": 94,
      "chip": "ym2612"
    },
    {
      "channel": 0,
      "note": 98,
      "start": 34.776,
      "duration": 0.0311,
      "velocity": 114,
      "chip": "ym2612"
    },
    {
      "channel": 3,
      "note": 74,
      "start": 34.7763,
      "duration": 0.109,
      "velocity": 94,
      "chip": "ym2612"
    },
    {
      "channel": 5,
      "note": 76,
      "start": 34.7765,
      "duration": 0.109,
      "velocity": 94,
      "chip": "ym2612"
    },
    {
      "channel": 0,
      "note": 98,
      "start": 34.8849,
      "duration": 0.0154,
      "velocity": 127,
      "chip": "ym2612"
    },
    {
      "channel": 1,
      "note": 59,
      "start": 34.8851,
      "duration": 0.2178,
      "velocity": 93,
      "chip": "ym2612"
    },
    {
      "channel": 5,
      "note": 78,
      "start": 34.8856,
      "duration": 0.1088,
      "velocity": 94,
      "chip": "ym2612"
    },
    {
      "channel": 0,
      "note": 76,
      "start": 34.9003,
      "duration": 0.0936,
      "velocity": 114,
      "chip": "ym2612"
    },
    {
      "channel": 0,
      "note": 68,
      "start": 34.9939,
      "duration": 0.0309,
      "velocity": 114,
      "chip": "ym2612"
    },
    {
      "channel": 3,
      "note": 76,
      "start": 34.9942,
      "duration": 0.109,
      "velocity": 94,
      "chip": "ym2612"
    },
    {
      "channel": 5,
      "note": 81,
      "start": 34.9944,
      "duration": 0.109,
      "velocity": 94,
      "chip": "ym2612"
    },
    {
      "channel": 0,
      "note": 98,
      "start": 35.1028,
      "duration": 0.0309,
      "velocity": 114,
      "chip": "ym2612"
    },
    {
      "channel": 1,
      "note": 59,
      "start": 35.1029,
      "duration": 0.2179,
      "velocity": 93,
      "chip": "ym2612"
    },
    {
      "channel": 3,
      "note": 81,
      "start": 35.1032,
      "duration": 0.1089,
      "velocity": 94,
      "chip": "ym2612"
    },
    {
      "channel": 5,
      "note": 69,
      "start": 35.1034,
      "duration": 0.1089,
      "velocity": 94,
      "chip": "ym2612"
    },
    {
      "channel": 0,
      "note": 98,
      "start": 35.2118,
      "duration": 0.0309,
      "velocity": 114,
      "chip": "ym2612"
    },
    {
      "channel": 3,
      "note": 69,
      "start": 35.212,
      "duration": 0.109,
      "velocity": 94,
      "chip": "ym2612"
    },
    {
      "channel": 5,
      "note": 74,
      "start": 35.2123,
      "duration": 0.109,
      "velocity": 94,
      "chip": "ym2612"
    },
    {
      "channel": 0,
      "note": 98,
      "start": 35.3207,
      "duration": 0.1089,
      "velocity": 114,
      "chip": "ym2612"
    },
    {
      "channel": 1,
      "note": 59,
      "start": 35.3209,
      "duration": 0.2178,
      "velocity": 93,
      "chip": "ym2612"
    },
    {
      "channel": 3,
      "note": 81,
      "start": 35.3211,
      "duration": 0.1089,
      "velocity": 94,
      "chip": "ym2612"
    },
    {
      "channel": 0,
      "note": 54,
      "start": 35.4297,
      "duration": 0.0309,
      "velocity": 114,
      "chip": "ym2612"
    },
    {
      "channel": 3,
      "note": 71,
      "start": 35.43,
      "duration": 0.109,
      "velocity": 94,
      "chip": "ym2612"
    },
    {
      "channel": 5,
      "note": 76,
      "start": 35.4302,
      "duration": 0.109,
      "velocity": 94,
      "chip": "ym2612"
    },
    {
      "channel": 0,
      "note": 98,
      "start": 35.5386,
      "duration": 0.0309,
      "velocity": 114,
      "chip": "ym2612"
    },
    {
      "channel": 1,
      "note": 59,
      "start": 35.5387,
      "duration": 0.2179,
      "velocity": 93,
      "chip": "ym2612"
    },
    {
      "channel": 3,
      "note": 74,
      "start": 35.5389,
      "duration": 0.1089,
      "velocity": 94,
      "chip": "ym2612"
    },
    {
      "channel": 5,
      "note": 81,
      "start": 35.5392,
      "duration": 0.1089,
      "velocity": 94,
      "chip": "ym2612"
    },
    {
      "channel": 0,
      "note": 98,
      "start": 35.6476,
      "duration": 0.0309,
      "velocity": 114,
      "chip": "ym2612"
    },
    {
      "channel": 5,
      "note": 69,
      "start": 35.648,
      "duration": 0.1092,
      "velocity": 94,
      "chip": "ym2612"
    },
    {
      "channel": 0,
      "note": 98,
      "start": 35.7565,
      "duration": 0.0154,
      "velocity": 127,
      "chip": "ym2612"
    },
    {
      "channel": 1,
      "note": 59,
      "start": 35.7566,
      "duration": 0.2178,
      "velocity": 93,
      "chip": "ym2612"
    },
    {
      "channel": 3,
      "note": 76,
      "start": 35.7568,
      "duration": 0.1089,
      "velocity": 94,
      "chip": "ym2612"
    },
    {
      "channel": 5,
      "note": 81,
      "start": 35.7572,
      "duration": 0.1087,
      "velocity": 94,
      "chip": "ym2612"
    },
    {
      "channel": 0,
      "note": 76,
      "start": 35.7718,
      "duration": 0.0936,
      "velocity": 114,
      "chip": "ym2612"
    },
    {
      "channel": 0,
      "note": 68,
      "start": 35.8654,
      "duration": 0.0309,
      "velocity": 114,
      "chip": "ym2612"
    },
    {
      "channel": 5,
      "note": 71,
      "start": 35.8659,
      "duration": 0.1091,
      "velocity": 94,
      "chip": "ym2612"
    },
    {
      "channel": 0,
      "note": 98,
      "start": 35.9744,
      "duration": 0.0309,
      "velocity": 114,
      "chip": "ym2612"
    },
    {
      "channel": 1,
      "note": 59,
      "start": 35.9745,
      "duration": 0.2179,
      "velocity": 93,
      "chip": "ym2612"
    },
    {
      "channel": 3,
      "note": 78,
      "start": 35.9748,
      "duration": 0.1088,
      "velocity": 94,
      "chip": "ym2612"
    },
    {
      "channel": 5,
      "note": 74,
      "start": 35.975,
      "duration": 0.1088,
      "velocity": 94,
      "chip": "ym2612"
    },
    {
      "channel": 0,
      "note": 98,
      "start": 36.0833,
      "duration": 0.0309,
      "velocity": 114,
      "chip": "ym2612"
    },
    {
      "channel": 3,
      "note": 81,
      "start": 36.0836,
      "duration": 0.109,
      "velocity": 94,
      "chip": "ym2612"
    },
    {
      "channel": 0,
      "note": 98,
      "start": 36.1923,
      "duration": 0.1089,
      "velocity": 114,
      "chip": "ym2612"
    },
    {
      "channel": 1,
      "note": 59,
      "start": 36.1924,
      "duration": 0.2178,
      "velocity": 93,
      "chip": "ym2612"
    },
    {
      "channel": 3,
      "note": 69,
      "start": 36.1926,
      "duration": 0.1089,
      "velocity": 94,
      "chip": "ym2612"
    },
    {
      "channel": 5,
      "note": 76,
      "start": 36.1928,
      "duration": 0.1089,
      "velocity": 94,
      "chip": "ym2612"
    },
    {
      "channel": 0,
      "note": 54,
      "start": 36.3012,
      "duration": 0.0309,
      "velocity": 114,
      "chip": "ym2612"
    },
    {
      "channel": 3,
      "note": 74,
      "start": 36.3015,
      "duration": 0.109,
      "velocity": 94,
      "chip": "ym2612"
    },
    {
      "channel": 5,
      "note": 78,
      "start": 36.3018,
      "duration": 0.1089,
      "velocity": 94,
      "chip": "ym2612"
    },
    {
      "channel": 0,
      "note": 98,
      "start": 36.4101,
      "duration": 0.0309,
      "velocity": 114,
      "chip": "ym2612"
    },
    {
      "channel": 1,
      "note": 59,
      "start": 36.4102,
      "duration": 0.2179,
      "velocity": 93,
      "chip": "ym2612"
    },
    {
      "channel": 5,
      "note": 81,
      "start": 36.4107,
      "duration": 0.1089,
      "velocity": 94,
      "chip": "ym2612"
    },
    {
      "channel": 0,
      "note": 98,
      "start": 36.5191,
      "duration": 0.0309,
      "velocity": 114,
      "chip": "ym2612"
    },
    {
      "channel": 3,
      "note": 76,
      "start": 36.5193,
      "duration": 0.109,
      "velocity": 94,
      "chip": "ym2612"
    },
    {
      "channel": 5,
      "note": 69,
      "start": 36.5196,
      "duration": 0.109,
      "velocity": 94,
      "chip": "ym2612"
    },
    {
      "channel": 0,
      "note": 98,
      "start": 36.628,
      "duration": 0.0154,
      "velocity": 127,
      "chip": "ym2612"
    },
    {
      "channel": 1,
      "note": 59,
      "start": 36.6282,
      "duration": 0.2178,
      "velocity": 93,
      "chip": "ym2612"
    },
    {
      "channel": 3,
      "note": 81,
      "start": 36.6283,
      "duration": 0.1089,
      "velocity": 94,
      "chip": "ym2612"
    },
    {
      "channel": 5,
      "note": 74,
      "start": 36.6286,
      "duration": 0.1089,
      "velocity": 94,
      "chip": "ym2612"
    },
    {
      "channel": 0,
      "note": 76,
      "start": 36.6434,
      "duration": 0.0936,
      "velocity": 114,
      "chip": "ym2612"
    },
    {
      "channel": 0,
      "note": 68,
      "start": 36.737,
      "duration": 0.0309,
      "velocity": 114,
      "chip": "ym2612"
    },
    {
      "channel": 3,
      "note": 69,
      "start": 36.7373,
      "duration": 0.109,
      "velocity": 94,
      "chip": "ym2612"
    },
    {
      "channel": 0,
      "note": 98,
      "start": 36.8459,
      "duration": 0.0309,
      "velocity": 114,
      "chip": "ym2612"
    },
    {
      "channel": 1,
      "note": 59,
      "start": 36.846,
      "duration": 0.2179,
      "velocity": 93,
      "chip": "ym2612"
    },
    {
      "channel": 3,
      "note": 81,
      "start": 36.8462,
      "duration": 0.1089,
      "velocity": 94,
      "chip": "ym2612"
    },
    {
      "channel": 5,
      "note": 76,
      "start": 36.8465,
      "duration": 0.1089,
      "velocity": 94,
      "chip": "ym2612"
    },
    {
      "channel": 0,
      "note": 98,
      "start": 36.9549,
      "duration": 0.0309,
      "velocity": 114,
      "chip": "ym2612"
    },
    {
      "channel": 3,
      "note": 71,
      "start": 36.9551,
      "duration": 0.109,
      "velocity": 94,
      "chip": "ym2612"
    },
    {
      "channel": 5,
      "note": 81,
      "start": 36.9554,
      "duration": 0.109,
      "velocity": 94,
      "chip": "ym2612"
    },
    {
      "channel": 0,
      "note": 98,
      "start": 37.0638,
      "duration": 0.1089,
      "velocity": 127,
      "chip": "ym2612"
    },
    {
      "channel": 1,
      "note": 59,
      "start": 37.0639,
      "duration": 0.2178,
      "velocity": 93,
      "chip": "ym2612"
    },
    {
      "channel": 3,
      "note": 74,
      "start": 37.0641,
      "duration": 0.1089,
      "velocity": 94,
      "chip": "ym2612"
    },
    {
      "channel": 5,
      "note": 69,
      "start": 37.0644,
      "duration": 0.1088,
      "velocity": 94,
      "chip": "ym2612"
    },
    {
      "channel": 0,
      "note": 54,
      "start": 37.1727,
      "duration": 0.0154,
      "velocity": 127,
      "chip": "ym2612"
    },
    {
      "channel": 5,
      "note": 81,
      "start": 37.1732,
      "duration": 0.109,
      "velocity": 94,
      "chip": "ym2612"
    },
    {
      "channel": 0,
      "note": 76,
      "start": 37.1881,
      "duration": 0.0936,
      "velocity": 114,
      "chip": "ym2612"
    },
    {
      "channel": 0,
      "note": 68,
      "start": 37.2817,
      "duration": 0.0309,
      "velocity": 114,
      "chip": "ym2612"
    },
    {
      "channel": 1,
      "note": 59,
      "start": 37.2818,
      "duration": 0.2179,
      "velocity": 93,
      "chip": "ym2612"
    },
    {
      "channel": 3,
      "note": 76,
      "start": 37.282,
      "duration": 0.109,
      "velocity": 94,
      "chip": "ym2612"
    },
    {
      "channel": 5,
      "note": 71,
      "start": 37.2822,
      "duration": 0.109,
      "velocity": 94,
      "chip": "ym2612"
    },
    {
      "channel": 0,
      "note": 98,
      "start": 37.3907,
      "duration": 0.0308,
      "velocity": 114,
      "chip": "ym2612"
    },
    {
      "channel": 5,
      "note": 74,
      "start": 37.3912,
      "duration": 0.109,
      "velocity": 94,
      "chip": "ym2612"
    },
    {
      "channel": 0,
      "note": 98,
      "start": 37.4996,
      "duration": 0.1089,
      "velocity": 114,
      "chip": "ym2612"
    },
    {
      "channel": 1,
      "note": 59,
      "start": 37.4997,
      "duration": 0.2178,
      "velocity": 93,
      "chip": "ym2612"
    },
    {
      "channel": 2,
      "note": 47,
      "start": 37.4998,
      "duration": 3.0504,
      "velocity": 121,
      "chip": "ym2612"
    },
    {
      "channel": 3,
      "note": 78,
      "start": 37.5,
      "duration": 0.1087,
      "velocity": 94,
      "chip": "ym2612"
    },
    {
      "channel": 0,
      "note": 54,
      "start": 37.6085,
      "duration": 0.0309,
      "velocity": 114,
      "chip": "ym2612"
    },
    {
      "channel": 3,
      "note": 81,
      "start": 37.6088,
      "duration": 0.109,
      "velocity": 94,
      "chip": "ym2612"
    },
    {
      "channel": 5,
      "note": 76,
      "start": 37.609,
      "duration": 0.109,
      "velocity": 94,
      "chip": "ym2612"
    },
    {
      "channel": 4,
      "note": 47,
      "start": 37.6864,
      "duration": 3.0504,
      "velocity": 121,
      "chip": "ym2612"
    },
    {
      "channel": 0,
      "note": 98,
      "start": 37.7174,
      "duration": 0.0309,
      "velocity": 114,
      "chip": "ym2612"
    },
    {
      "channel": 1,
      "note": 55,
      "start": 37.7176,
      "duration": 0.2179,
      "velocity": 93,
      "chip": "ym2612"
    },
    {
      "channel": 3,
      "note": 69,
      "start": 37.7178,
      "duration": 0.1089,
      "velocity": 94,
      "chip": "ym2612"
    },
    {
      "channel": 5,
      "note": 78,
      "start": 37.718,
      "duration": 0.1088,
      "velocity": 94,
      "chip": "ym2612"
    },
    {
      "channel": 0,
      "note": 98,
      "start": 37.8264,
      "duration": 0.0309,
      "velocity": 114,
      "chip": "ym2612"
    },
    {
      "channel": 3,
      "note": 74,
      "start": 37.8266,
      "duration": 0.109,
      "velocity": 94,
      "chip": "ym2612"
    },
    {
      "channel": 5,
      "note": 81,
      "start": 37.8269,
      "duration": 0.109,
      "velocity": 94,
      "chip": "ym2612"
    },
    {
      "channel": 0,
      "note": 98,
      "start": 37.9353,
      "duration": 0.0154,
      "velocity": 127,
      "chip": "ym2612"
    },
    {
      "channel": 1,
      "note": 55,
      "start": 37.9355,
      "duration": 0.2178,
      "velocity": 93,
      "chip": "ym2612"
    },
    {
      "channel": 5,
      "note": 69,
      "start": 37.9359,
      "duration": 0.1089,
      "velocity": 94,
      "chip": "ym2612"
    },
    {
      "channel": 0,
      "note": 76,
      "start": 37.9507,
      "duration": 0.0936,
      "velocity": 114,
      "chip": "ym2612"
    },
    {
      "channel": 0,
      "note": 68,
      "start": 38.0443,
      "duration": 0.0309,
      "velocity": 114,
      "chip": "ym2612"
    },
    {
      "channel": 3,
      "note": 76,
      "start": 38.0445,
      "duration": 0.109,
      "velocity": 94,
      "chip": "ym2612"
    },
    {
      "channel": 5,
      "note": 74,
      "start": 38.0448,
      "duration": 0.109,
      "velocity": 94,
      "chip": "ym2612"
    },
    {
      "channel": 0,
      "note": 98,
      "start": 38.1532,
      "duration": 0.0309,
      "velocity": 114,
      "chip": "ym2612"
    },
    {
      "channel": 1,
      "note": 55,
      "start": 38.1533,
      "duration": 0.2179,
      "velocity": 93,
      "chip": "ym2612"
    },
    {
      "channel": 3,
      "note": 81,
      "start": 38.1535,
      "duration": 0.1089,
      "velocity": 94,
      "chip": "ym2612"
    },
    {
      "channel": 0,
      "note": 98,
      "start": 38.2622,
      "duration": 0.0309,
      "velocity": 114,
      "chip": "ym2612"
    },
    {
      "channel": 3,
      "note": 69,
      "start": 38.2624,
      "duration": 0.109,
      "velocity": 94,
      "chip": "ym2612"
    },
    {
      "channel": 5,
      "note": 76,
      "start": 38.2627,
      "duration": 0.109,
      "velocity": 94,
      "chip": "ym2612"
    },
    {
      "channel": 0,
      "note": 98,
      "start": 38.3711,
      "duration": 0.1089,
      "velocity": 114,
      "chip": "ym2612"
    },
    {
      "channel": 1,
      "note": 55,
      "start": 38.3712,
      "duration": 0.2178,
      "velocity": 93,
      "chip": "ym2612"
    },
    {
      "channel": 3,
      "note": 81,
      "start": 38.3715,
      "duration": 0.1089,
      "velocity": 94,
      "chip": "ym2612"
    },
    {
      "channel": 5,
      "note": 81,
      "start": 38.3717,
      "duration": 0.1089,
      "velocity": 94,
      "chip": "ym2612"
    },
    {
      "channel": 0,
      "note": 54,
      "start": 38.48,
      "duration": 0.0309,
      "velocity": 114,
      "chip": "ym2612"
    },
    {
      "channel": 3,
      "note": 71,
      "start": 38.4803,
      "duration": 0.109,
      "velocity": 94,
      "chip": "ym2612"
    },
    {
      "channel": 5,
      "note": 69,
      "start": 38.4805,
      "duration": 0.109,
      "velocity": 94,
      "chip": "ym2612"
    },
    {
      "channel": 0,
      "note": 98,
      "start": 38.589,
      "duration": 0.0309,
      "velocity": 114,
      "chip": "ym2612"
    },
    {
      "channel": 1,
      "note": 55,
      "start": 38.5891,
      "duration": 0.218,
      "velocity": 93,
      "chip": "ym2612"
    },
    {
      "channel": 3,
      "note": 74,
      "start": 38.5893,
      "duration": 0.1089,
      "velocity": 94,
      "chip": "ym2612"
    },
    {
      "channel": 5,
      "note": 81,
      "start": 38.5895,
      "duration": 0.1089,
      "velocity": 94,
      "chip": "ym2612"
    },
    {
      "channel": 0,
      "note": 98,
      "start": 38.6979,
      "duration": 0.0309,
      "velocity": 114,
      "chip": "ym2612"
    },
    {
      "channel": 5,
      "note": 71,
      "start": 38.6984,
      "duration": 0.1092,
      "velocity": 94,
      "chip": "ym2612"
    },
    {
      "channel": 0,
      "note": 98,
      "start": 38.8068,
      "duration": 0.0154,
      "velocity": 127,
      "chip": "ym2612"
    },
    {
      "channel": 1,
      "note": 55,
      "start": 38.8072,
      "duration": 0.2177,
      "velocity": 93,
      "chip": "ym2612"
    },
    {
      "channel": 3,
      "note": 76,
      "start": 38.8073,
      "duration": 0.1087,
      "velocity": 94,
      "chip": "ym2612"
    },
    {
      "channel": 5,
      "note": 74,
      "start": 38.8076,
      "duration": 0.1087,
      "velocity": 94,
      "chip": "ym2612"
    },
    {
      "channel": 0,
      "note": 76,
      "start": 38.8222,
      "duration": 0.0936,
      "velocity": 114,
      "chip": "ym2612"
    },
    {
      "channel": 0,
      "note": 68,
      "start": 38.9158,
      "duration": 0.0309,
      "velocity": 114,
      "chip": "ym2612"
    },
    {
      "channel": 0,
      "note": 98,
      "start": 39.0247,
      "duration": 0.0309,
      "velocity": 114,
      "chip": "ym2612"
    },
    {
      "channel": 1,
      "note": 55,
      "start": 39.0249,
      "duration": 0.2179,
      "velocity": 93,
      "chip": "ym2612"
    },
    {
      "channel": 3,
      "note": 78,
      "start": 39.0251,
      "duration": 0.1088,
      "velocity": 94,
      "chip": "ym2612"
    },
    {
      "channel": 5,
      "note": 76,
      "start": 39.0254,
      "duration": 0.1089,
      "velocity": 94,
      "chip": "ym2612"
    },
    {
      "channel": 0,
      "note": 98,
      "start": 39.1337,
      "duration": 0.0309,
      "velocity": 114,
      "chip": "ym2612"
    },
    {
      "channel": 3,
      "note": 81,
      "start": 39.1339,
      "duration": 0.109,
      "velocity": 94,
      "chip": "ym2612"
    },
    {
      "channel": 5,
      "note": 78,
      "start": 39.1342,
      "duration": 0.109,
      "velocity": 94,
      "chip": "ym2612"
    },
    {
      "channel": 0,
      "note": 98,
      "start": 39.2426,
      "duration": 0.1089,
      "velocity": 114,
      "chip": "ym2612"
    },
    {
      "channel": 1,
      "note": 55,
      "start": 39.2428,
      "duration": 0.2178,
      "velocity": 93,
      "chip": "ym2612"
    },
    {
      "channel": 3,
      "note": 69,
      "start": 39.243,
      "duration": 0.1089,
      "velocity": 94,
      "chip": "ym2612"
    },
    {
      "channel": 5,
      "note": 81,
      "start": 39.2432,
      "duration": 0.1089,
      "velocity": 94,
      "chip": "ym2612"
    },
    {
      "channel": 0,
      "note": 54,
      "start": 39.3516,
      "duration": 0.0309,
      "velocity": 114,
      "chip": "ym2612"
    },
    {
      "channel": 3,
      "note": 74,
      "start": 39.3518,
      "duration": 0.109,
      "velocity": 94,
      "chip": "ym2612"
    },
    {
      "channel": 5,
      "note": 69,
      "start": 39.3521,
      "duration": 0.1089,
      "velocity": 94,
      "chip": "ym2612"
    },
    {
      "channel": 0,
      "note": 98,
      "start": 39.4605,
      "duration": 0.0309,
      "velocity": 114,
      "chip": "ym2612"
    },
    {
      "channel": 1,
      "note": 55,
      "start": 39.4606,
      "duration": 0.2179,
      "velocity": 93,
      "chip": "ym2612"
    },
    {
      "channel": 5,
      "note": 74,
      "start": 39.461,
      "duration": 0.1089,
      "velocity": 94,
      "chip": "ym2612"
    },
    {
      "channel": 0,
      "note": 98,
      "start": 39.5695,
      "duration": 0.0309,
      "velocity": 114,
      "chip": "ym2612"
    },
    {
      "channel": 3,
      "note": 76,
      "start": 39.5697,
      "duration": 0.109,
      "velocity": 94,
      "chip": "ym2612"
    },
    {
      "channel": 0,
      "note": 98,
      "start": 39.6784,
      "duration": 0.0154,
      "velocity": 127,
      "chip": "ym2612"
    },
    {
      "channel": 1,
      "note": 55,
      "start": 39.6785,
      "duration": 0.2178,
      "velocity": 93,
      "chip": "ym2612"
    },
    {
      "channel": 3,
      "note": 81,
      "start": 39.6787,
      "duration": 0.1089,
      "velocity": 94,
      "chip": "ym2612"
    },
    {
      "channel": 5,
      "note": 76,
      "start": 39.679,
      "duration": 0.1089,
      "velocity": 94,
      "chip": "ym2612"
    },
    {
      "channel": 0,
      "note": 76,
      "start": 39.6937,
      "duration": 0.0936,
      "velocity": 114,
      "chip": "ym2612"
    },
    {
      "channel": 0,
      "note": 68,
      "start": 39.7873,
      "duration": 0.0309,
      "velocity": 114,
      "chip": "ym2612"
    },
    {
      "channel": 3,
      "note": 69,
      "start": 39.7876,
      "duration": 0.109,
      "velocity": 94,
      "chip": "ym2612"
    },
    {
      "channel": 5,
      "note": 81,
      "start": 39.7878,
      "duration": 0.109,
      "velocity": 94,
      "chip": "ym2612"
    },
    {
      "channel": 0,
      "note": 98,
      "start": 39.8963,
      "duration": 0.0309,
      "velocity": 114,
      "chip": "ym2612"
    },
    {
      "channel": 1,
      "note": 55,
      "start": 39.8964,
      "duration": 0.2179,
      "velocity": 93,
      "chip": "ym2612"
    },
    {
      "channel": 3,
      "note": 81,
      "start": 39.8966,
      "duration": 0.1089,
      "velocity": 94,
      "chip": "ym2612"
    },
    {
      "channel": 5,
      "note": 69,
      "start": 39.8968,
      "duration": 0.1089,
      "velocity": 94,
      "chip": "ym2612"
    },
    {
      "channel": 0,
      "note": 98,
      "start": 40.0052,
      "duration": 0.0309,
      "velocity": 114,
      "chip": "ym2612"
    },
    {
      "channel": 3,
      "note": 71,
      "start": 40.0055,
      "duration": 0.109,
      "velocity": 94,
      "chip": "ym2612"
    },
    {
      "channel": 5,
      "note": 81,
      "start": 40.0057,
      "duration": 0.109,
      "velocity": 94,
      "chip": "ym2612"
    },
    {
      "channel": 0,
      "note": 98,
      "start": 40.1142,
      "duration": 0.1089,
      "velocity": 127,
      "chip": "ym2612"
    },
    {
      "channel": 1,
      "note": 55,
      "start": 40.1143,
      "duration": 0.2178,
      "velocity": 93,
      "chip": "ym2612"
    },
    {
      "channel": 3,
      "note": 74,
      "start": 40.1145,
      "duration": 0.1088,
      "velocity": 94,
      "chip": "ym2612"
    },
    {
      "channel": 5,
      "note": 71,
      "start": 40.1147,
      "duration": 0.109,
      "velocity": 94,
      "chip": "ym2612"
    },
    {
      "channel": 0,
      "note": 54,
      "start": 40.2231,
      "duration": 0.0154,
      "velocity": 127,
      "chip": "ym2612"
    },
    {
      "channel": 5,
      "note": 74,
      "start": 40.2238,
      "duration": 0.1088,
      "velocity": 94,
      "chip": "ym2612"
    },
    {
      "channel": 0,
      "note": 76,
      "start": 40.2385,
      "duration": 0.0936,
      "velocity": 114,
      "chip": "ym2612"
    },
    {
      "channel": 0,
      "note": 68,
      "start": 40.332,
      "duration": 0.0309,
      "velocity": 114,
      "chip": "ym2612"
    },
    {
      "channel": 1,
      "note": 55,
      "start": 40.3322,
      "duration": 0.2179,
      "velocity": 93,
      "chip": "ym2612"
    },
    {
      "channel": 3,
      "note": 76,
      "start": 40.3324,
      "duration": 0.1088,
      "velocity": 94,
      "chip": "ym2612"
    },
    {
      "channel": 0,
      "note": 98,
      "start": 40.441,
      "duration": 0.0309,
      "velocity": 114,
      "chip": "ym2612"
    },
    {
      "channel": 5,
      "note": 76,
      "start": 40.4415,
      "duration": 0.1092,
      "velocity": 94,
      "chip": "ym2612"
    },
    {
      "channel": 0,
      "note": 98,
      "start": 40.55,
      "duration": 0.1089,
      "velocity": 114,
      "chip": "ym2612"
    },
    {
      "channel": 1,
      "note": 56,
      "start": 40.5501,
      "duration": 0.2178,
      "velocity": 93,
      "chip": "ym2612"
    },
    {
      "channel": 2,
      "note": 43,
      "start": 40.5502,
      "duration": 3.0504,
      "velocity": 121,
      "chip": "ym2612"
    },
    {
      "channel": 3,
      "note": 78,
      "start": 40.5504,
      "duration": 0.1087,
      "velocity": 94,
      "chip": "ym2612"
    },
    {
      "channel": 5,
      "note": 78,
      "start": 40.5507,
      "duration": 0.1087,
      "velocity": 94,
      "chip": "ym2612"
    },
    {
      "channel": 0,
      "note": 54,
      "start": 40.6589,
      "duration": 0.0309,
      "velocity": 114,
      "chip": "ym2612"
    },
    {
      "channel": 3,
      "note": 81,
      "start": 40.6591,
      "duration": 0.109,
      "velocity": 94,
      "chip": "ym2612"
    },
    {
      "channel": 5,
      "note": 81,
      "start": 40.6594,
      "duration": 0.109,
      "velocity": 94,
      "chip": "ym2612"
    },
    {
      "channel": 4,
      "note": 43,
      "start": 40.7368,
      "duration": 3.0504,
      "velocity": 121,
      "chip": "ym2612"
    },
    {
      "channel": 0,
      "note": 98,
      "start": 40.7678,
      "duration": 0.0309,
      "velocity": 114,
      "chip": "ym2612"
    },
    {
      "channel": 1,
      "note": 64,
      "start": 40.7679,
      "duration": 0.2179,
      "velocity": 93,
      "chip": "ym2612"
    },
    {
      "channel": 3,
      "note": 69,
      "start": 40.7681,
      "duration": 0.1089,
      "velocity": 94,
      "chip": "ym2612"
    },
    {
      "channel": 5,
      "note": 69,
      "start": 40.7683,
      "duration": 0.1089,
      "velocity": 94,
      "chip": "ym2612"
    },
    {
      "channel": 0,
      "note": 98,
      "start": 40.8768,
      "duration": 0.0309,
      "velocity": 114,
      "chip": "ym2612"
    },
    {
      "channel": 3,
      "note": 74,
      "start": 40.877,
      "duration": 0.109,
      "velocity": 94,
      "chip": "ym2612"
    },
    {
      "channel": 5,
      "note": 74,
      "start": 40.8772,
      "duration": 0.109,
      "velocity": 94,
      "chip": "ym2612"
    },
    {
      "channel": 0,
      "note": 98,
      "start": 40.9857,
      "duration": 0.0154,
      "velocity": 127,
      "chip": "ym2612"
    },
    {
      "channel": 1,
      "note": 64,
      "start": 40.9858,
      "duration": 0.2178,
      "velocity": 93,
      "chip": "ym2612"
    },
    {
      "channel": 0,
      "note": 76,
      "start": 41.001,
      "duration": 0.0936,
      "velocity": 114,
      "chip": "ym2612"
    },
    {
      "channel": 0,
      "note": 68,
      "start": 41.0946,
      "duration": 0.0309,
      "velocity": 114,
      "chip": "ym2612"
    },
    {
      "channel": 3,
      "note": 76,
      "start": 41.0949,
      "duration": 0.109,
      "velocity": 94,
      "chip": "ym2612"
    },
    {
      "channel": 5,
      "note": 76,
      "start": 41.0951,
      "duration": 0.109,
      "velocity": 94,
      "chip": "ym2612"
    },
    {
      "channel": 0,
      "note": 98,
      "start": 41.2036,
      "duration": 0.0309,
      "velocity": 114,
      "chip": "ym2612"
    },
    {
      "channel": 1,
      "note": 64,
      "start": 41.2037,
      "duration": 0.2179,
      "velocity": 93,
      "chip": "ym2612"
    },
    {
      "channel": 3,
      "note": 81,
      "start": 41.2039,
      "duration": 0.1089,
      "velocity": 94,
      "chip": "ym2612"
    },
    {
      "channel": 5,
      "note": 81,
      "start": 41.2041,
      "duration": 0.1089,
      "velocity": 94,
      "chip": "ym2612"
    },
    {
      "channel": 0,
      "note": 98,
      "start": 41.3125,
      "duration": 0.0309,
      "velocity": 114,
      "chip": "ym2612"
    },
    {
      "channel": 3,
      "note": 69,
      "start": 41.3128,
      "duration": 0.109,
      "velocity": 94,
      "chip": "ym2612"
    },
    {
      "channel": 5,
      "note": 69,
      "start": 41.313,
      "duration": 0.109,
      "velocity": 94,
      "chip": "ym2612"
    },
    {
      "channel": 0,
      "note": 98,
      "start": 41.4215,
      "duration": 0.1089,
      "velocity": 114,
      "chip": "ym2612"
    },
    {
      "channel": 1,
      "note": 64,
      "start": 41.4216,
      "duration": 0.2178,
      "velocity": 93,
      "chip": "ym2612"
    },
    {
      "channel": 3,
      "note": 81,
      "start": 41.4218,
      "duration": 0.1089,
      "velocity": 94,
      "chip": "ym2612"
    },
    {
      "channel": 5,
      "note": 81,
      "start": 41.422,
      "duration": 0.1089,
      "velocity": 94,
      "chip": "ym2612"
    },
    {
      "channel": 0,
      "note": 54,
      "start": 41.5304,
      "duration": 0.0309,
      "velocity": 114,
      "chip": "ym2612"
    },
    {
      "channel": 3,
      "note": 71,
      "start": 41.5307,
      "duration": 0.109,
      "velocity": 94,
      "chip": "ym2612"
    },
    {
      "channel": 5,
      "note": 71,
      "start": 41.5309,
      "duration": 0.109,
      "velocity": 94,
      "chip": "ym2612"
    },
    {
      "channel": 0,
      "note": 98,
      "start": 41.6393,
      "duration": 0.0309,
      "velocity": 114,
      "chip": "ym2612"
    },
    {
      "channel": 1,
      "note": 64,
      "start": 41.6395,
      "duration": 0.2181,
      "velocity": 93,
      "chip": "ym2612"
    },
    {
      "channel": 3,
      "note": 74,
      "start": 41.6397,
      "duration": 0.1089,
      "velocity": 94,
      "chip": "ym2612"
    },
    {
      "channel": 5,
      "note": 74,
      "start": 41.6399,
      "duration": 0.1089,
      "velocity": 94,
      "chip": "ym2612"
    },
    {
      "channel": 0,
      "note": 98,
      "start": 41.7483,
      "duration": 0.0309,
      "velocity": 114,
      "chip": "ym2612"
    },
    {
      "channel": 0,
      "note": 98,
      "start": 41.8574,
      "duration": 0.0152,
      "velocity": 127,
      "chip": "ym2612"
    },
    {
      "channel": 1,
      "note": 64,
      "start": 41.8575,
      "duration": 0.2177,
      "velocity": 93,
      "chip": "ym2612"
    },
    {
      "channel": 3,
      "note": 76,
      "start": 41.8577,
      "duration": 0.1087,
      "velocity": 94,
      "chip": "ym2612"
    },
    {
      "channel": 5,
      "note": 76,
      "start": 41.8579,
      "duration": 0.1088,
      "velocity": 94,
      "chip": "ym2612"
    },
    {
      "channel": 0,
      "note": 76,
      "start": 41.8726,
      "duration": 0.0936,
      "velocity": 114,
      "chip": "ym2612"
    },
    {
      "channel": 0,
      "note": 68,
      "start": 41.9662,
      "duration": 0.0309,
      "velocity": 114,
      "chip": "ym2612"
    },
    {
      "channel": 5,
      "note": 78,
      "start": 41.9667,
      "duration": 0.109,
      "velocity": 94,
      "chip": "ym2612"
    },
    {
      "channel": 0,
      "note": 98,
      "start": 42.0751,
      "duration": 0.0309,
      "velocity": 114,
      "chip": "ym2612"
    },
    {
      "channel": 1,
      "note": 64,
      "start": 42.0752,
      "duration": 0.2179,
      "velocity": 93,
      "chip": "ym2612"
    },
    {
      "channel": 3,
      "note": 78,
      "start": 42.0755,
      "duration": 0.1088,
      "velocity": 94,
      "chip": "ym2612"
    },
    {
      "channel": 5,
      "note": 81,
      "start": 42.0757,
      "duration": 0.1088,
      "velocity": 94,
      "chip": "ym2612"
    },
    {
      "channel": 0,
      "note": 98,
      "start": 42.1841,
      "duration": 0.0309,
      "velocity": 114,
      "chip": "ym2612"
    },
    {
      "channel": 3,
      "note": 81,
      "start": 42.1843,
      "duration": 0.109,
      "velocity": 94,
      "chip": "ym2612"
    },
    {
      "channel": 5,
      "note": 69,
      "start": 42.1846,
      "duration": 0.109,
      "velocity": 94,
      "chip": "ym2612"
    },
    {
      "channel": 0,
      "note": 98,
      "start": 42.293,
      "duration": 0.1089,
      "velocity": 114,
      "chip": "ym2612"
    },
    {
      "channel": 1,
      "note": 64,
      "start": 42.2932,
      "duration": 0.2178,
      "velocity": 93,
      "chip": "ym2612"
    },
    {
      "channel": 3,
      "note": 69,
      "start": 42.2933,
      "duration": 0.1089,
      "velocity": 94,
      "chip": "ym2612"
    },
    {
      "channel": 5,
      "note": 74,
      "start": 42.2936,
      "duration": 0.1088,
      "velocity": 94,
      "chip": "ym2612"
    },
    {
      "channel": 0,
      "note": 54,
      "start": 42.4019,
      "duration": 0.0309,
      "velocity": 114,
      "chip": "ym2612"
    },
    {
      "channel": 3,
      "note": 74,
      "start": 42.4022,
      "duration": 0.1089,
      "velocity": 94,
      "chip": "ym2612"
    },
    {
      "channel": 0,
      "note": 98,
      "start": 42.5109,
      "duration": 0.0309,
      "velocity": 114,
      "chip": "ym2612"
    },
    {
      "channel": 1,
      "note": 64,
      "start": 42.511,
      "duration": 0.2179,
      "velocity": 93,
      "chip": "ym2612"
    },
    {
      "channel": 5,
      "note": 76,
      "start": 42.5114,
      "duration": 0.1089,
      "velocity": 94,
      "chip": "ym2612"
    },
    {
      "channel": 0,
      "note": 98,
      "start": 42.6198,
      "duration": 0.0309,
      "velocity": 114,
      "chip": "ym2612"
    },
    {
      "channel": 3,
      "note": 76,
      "start": 42.6201,
      "duration": 0.109,
      "velocity": 94,
      "chip": "ym2612"
    },
    {
      "channel": 5,
      "note": 81,
      "start": 42.6203,
      "duration": 0.109,
      "velocity": 94,
      "chip": "ym2612"
    },
    {
      "channel": 0,
      "note": 98,
      "start": 42.7288,
      "duration": 0.0154,
      "velocity": 127,
      "chip": "ym2612"
    },
    {
      "channel": 1,
      "note": 64,
      "start": 42.7289,
      "duration": 0.2178,
      "velocity": 93,
      "chip": "ym2612"
    },
    {
      "channel": 3,
      "note": 81,
      "start": 42.7291,
      "duration": 0.1089,
      "velocity": 94,
      "chip": "ym2612"
    },
    {
      "channel": 5,
      "note": 69,
      "start": 42.7293,
      "duration": 0.1089,
      "velocity": 94,
      "chip": "ym2612"
    },
    {
      "channel": 0,
      "note": 76,
      "start": 42.7441,
      "duration": 0.0936,
      "velocity": 114,
      "chip": "ym2612"
    },
    {
      "channel": 0,
      "note": 68,
      "start": 42.8377,
      "duration": 0.0309,
      "velocity": 114,
      "chip": "ym2612"
    },
    {
      "channel": 3,
      "note": 69,
      "start": 42.838,
      "duration": 0.109,
      "velocity": 94,
      "chip": "ym2612"
    },
    {
      "channel": 5,
      "note": 81,
      "start": 42.8382,
      "duration": 0.109,
      "velocity": 94,
      "chip": "ym2612"
    },
    {
      "channel": 0,
      "note": 98,
      "start": 42.9466,
      "duration": 0.0309,
      "velocity": 114,
      "chip": "ym2612"
    },
    {
      "channel": 1,
      "note": 64,
      "start": 42.9468,
      "duration": 0.2179,
      "velocity": 93,
      "chip": "ym2612"
    },
    {
      "channel": 3,
      "note": 81,
      "start": 42.947,
      "duration": 0.1089,
      "velocity": 94,
      "chip": "ym2612"
    },
    {
      "channel": 5,
      "note": 71,
      "start": 42.9472,
      "duration": 0.1089,
      "velocity": 94,
      "chip": "ym2612"
    },
    {
      "channel": 0,
      "note": 98,
      "start": 43.0556,
      "duration": 0.0309,
      "velocity": 114,
      "chip": "ym2612"
    },
    {
      "channel": 3,
      "note": 71,
      "start": 43.0559,
      "duration": 0.109,
      "velocity": 94,
      "chip": "ym2612"
    },
    {
      "channel": 5,
      "note": 74,
      "start": 43.0561,
      "duration": 0.109,
      "velocity": 94,
      "chip": "ym2612"
    },
    {
      "channel": 0,
      "note": 98,
      "start": 43.1645,
      "duration": 0.1089,
      "velocity": 127,
      "chip": "ym2612"
    },
    {
      "channel": 1,
      "note": 64,
      "start": 43.1647,
      "duration": 0.2178,
      "velocity": 93,
      "chip": "ym2612"
    },
    {
      "channel": 3,
      "note": 74,
      "start": 43.1649,
      "duration": 0.109,
      "velocity": 94,
      "chip": "ym2612"
    },
    {
      "channel": 0,
      "note": 54,
      "start": 43.2735,
      "duration": 0.0154,
      "velocity": 127,
      "chip": "ym2612"
    },
    {
      "channel": 5,
      "note": 76,
      "start": 43.2741,
      "duration": 0.1089,
      "velocity": 94,
      "chip": "ym2612"
    },
    {
      "channel": 0,
      "note": 76,
      "start": 43.2888,
      "duration": 0.0936,
      "velocity": 114,
      "chip": "ym2612"
    },
    {
      "channel": 0,
      "note": 68,
      "start": 43.3824,
      "duration": 0.0309,
      "velocity": 114,
      "chip": "ym2612"
    },
    {
      "channel": 1,
      "note": 64,
      "start": 43.3825,
      "duration": 0.2179,
      "velocity": 93,
      "chip": "ym2612"
    },
    {
      "channel": 3,
      "note": 76,
      "start": 43.3827,
      "duration": 0.1089,
      "velocity": 94,
      "chip": "ym2612"
    },
    {
      "channel": 5,
      "note": 78,
      "start": 43.383,
      "duration": 0.1088,
      "velocity": 94,
      "chip": "ym2612"
    },
    {
      "channel": 0,
      "note": 98,
      "start": 43.4914,
      "duration": 0.0309,
      "velocity": 114,
      "chip": "ym2612"
    },
    {
      "channel": 5,
      "note": 81,
      "start": 43.4918,
      "duration": 0.1091,
      "velocity": 94,
      "chip": "ym2612"
    },
    {
      "channel": 0,
      "note": 98,
      "start": 43.6003,
      "duration": 0.1089,
      "velocity": 114,
      "chip": "ym2612"
    },
    {
      "channel": 1,
      "note": 64,
      "start": 43.6005,
      "duration": 0.2178,
      "velocity": 93,
      "chip": "ym2612"
    },
    {
      "channel": 2,
      "note": 52,
      "start": 43.6006,
      "duration": 3.0504,
      "velocity": 121,
      "chip": "ym2612"
    },
    {
      "channel": 3,
      "note": 78,
      "start": 43.6007,
      "duration": 0.1087,
      "velocity": 94,
      "chip": "ym2612"
    },
    {
      "channel": 5,
      "note": 69,
      "start": 43.601,
      "duration": 0.1087,
      "velocity": 94,
      "chip": "ym2612"
    },
    {
      "channel": 0,
      "note": 54,
      "start": 43.7092,
      "duration": 0.0309,
      "velocity": 114,
      "chip": "ym2612"
    },
    {
      "channel": 3,
      "note": 81,
      "start": 43.7095,
      "duration": 0.109,
      "velocity": 94,
      "chip": "ym2612"
    },
    {
      "channel": 5,
      "note": 74,
      "start": 43.7097,
      "duration": 0.109,
      "velocity": 94,
      "chip": "ym2612"
    },
    {
      "channel": 4,
      "note": 52,
      "start": 43.7872,
      "duration": 3.0503,
      "velocity": 121,
      "chip": "ym2612"
    },
    {
      "channel": 0,
      "note": 98,
      "start": 43.8182,
      "duration": 0.0309,
      "velocity": 114,
      "chip": "ym2612"
    },
    {
      "channel": 1,
      "note": 62,
      "start": 43.8183,
      "duration": 0.2179,
      "velocity": 93,
      "chip": "ym2612"
    },
    {
      "channel": 3,
      "note": 69,
      "start": 43.8185,
      "duration": 0.1089,
      "velocity": 94,
      "chip": "ym2612"
    },
    {
      "channel": 0,
      "note": 98,
      "start": 43.9271,
      "duration": 0.0309,
      "velocity": 114,
      "chip": "ym2612"
    },
    {
      "channel": 3,
      "note": 74,
      "start": 43.9274,
      "duration": 0.109,
      "velocity": 94,
      "chip": "ym2612"
    },
    {
      "channel": 5,
      "note": 76,
      "start": 43.9276,
      "duration": 0.109,
      "velocity": 94,
      "chip": "ym2612"
    },
    {
      "channel": 0,
      "note": 98,
      "start": 44.0361,
      "duration": 0.0154,
      "velocity": 127,
      "chip": "ym2612"
    },
    {
      "channel": 1,
      "note": 62,
      "start": 44.0362,
      "duration": 0.2178,
      "velocity": 93,
      "chip": "ym2612"
    },
    {
      "channel": 5,
      "note": 81,
      "start": 44.0366,
      "duration": 0.1089,
      "velocity": 94,
      "chip": "ym2612"
    },
    {
      "channel": 0,
      "note": 76,
      "start": 44.0514,
      "duration": 0.0936,
      "velocity": 114,
      "chip": "ym2612"
    },
    {
      "channel": 0,
      "note": 68,
      "start": 44.145,
      "duration": 0.0309,
      "velocity": 114,
      "chip": "ym2612"
    },
    {
      "channel": 3,
      "note": 76,
      "start": 44.1453,
      "duration": 0.109,
      "velocity": 94,
      "chip": "ym2612"
    },
    {
      "channel": 5,
      "note": 69,
      "start": 44.1455,
      "duration": 0.109,
      "velocity": 94,
      "chip": "ym2612"
    },
    {
      "channel": 0,
      "note": 98,
      "start": 44.2539,
      "duration": 0.0309,
      "velocity": 114,
      "chip": "ym2612"
    },
    {
      "channel": 1,
      "note": 62,
      "start": 44.2541,
      "duration": 0.2179,
      "velocity": 93,
      "chip": "ym2612"
    },
    {
      "channel": 3,
      "note": 81,
      "start": 44.2543,
      "duration": 0.1089,
      "velocity": 94,
      "chip": "ym2612"
    },
    {
      "channel": 5,
      "note": 81,
      "start": 44.2545,
      "duration": 0.1089,
      "velocity": 94,
      "chip": "ym2612"
    },
    {
      "channel": 0,
      "note": 98,
      "start": 44.3629,
      "duration": 0.0309,
      "velocity": 114,
      "chip": "ym2612"
    },
    {
      "channel": 3,
      "note": 69,
      "start": 44.3632,
      "duration": 0.109,
      "velocity": 94,
      "chip": "ym2612"
    },
    {
      "channel": 5,
      "note": 71,
      "start": 44.3634,
      "duration": 0.109,
      "velocity": 94,
      "chip": "ym2612"
    },
    {
      "channel": 0,
      "note": 98,
      "start": 44.4718,
      "duration": 0.1089,
      "velocity": 114,
      "chip": "ym2612"
    },
    {
      "channel": 1,
      "note": 62,
      "start": 44.472,
      "duration": 0.2178,
      "velocity": 93,
      "chip": "ym2612"
    },
    {
      "channel": 3,
      "note": 81,
      "start": 44.4722,
      "duration": 0.1089,
      "velocity": 94,
      "chip": "ym2612"
    },
    {
      "channel": 5,
      "note": 74,
      "start": 44.4724,
      "duration": 0.1089,
      "velocity": 94,
      "chip": "ym2612"
    },
    {
      "channel": 0,
      "note": 54,
      "start": 44.5808,
      "duration": 0.0309,
      "velocity": 114,
      "chip": "ym2612"
    },
    {
      "channel": 3,
      "note": 71,
      "start": 44.581,
      "duration": 0.109,
      "velocity": 94,
      "chip": "ym2612"
    },
    {
      "channel": 0,
      "note": 98,
      "start": 44.6897,
      "duration": 0.0309,
      "velocity": 114,
      "chip": "ym2612"
    },
    {
      "channel": 1,
      "note": 62,
      "start": 44.6898,
      "duration": 0.2179,
      "velocity": 93,
      "chip": "ym2612"
    },
    {
      "channel": 3,
      "note": 74,
      "start": 44.69,
      "duration": 0.1089,
      "velocity": 94,
      "chip": "ym2612"
    },
    {
      "channel": 5,
      "note": 76,
      "start": 44.6904,
      "duration": 0.1087,
      "velocity": 94,
      "chip": "ym2612"
    },
    {
      "channel": 0,
      "note": 98,
      "start": 44.7987,
      "duration": 0.0309,
      "velocity": 114,
      "chip": "ym2612"
    },
    {
      "channel": 5,
      "note": 78,
      "start": 44.7992,
      "duration": 0.109,
      "velocity": 94,
      "chip": "ym2612"
    },
    {
      "channel": 0,
      "note": 98,
      "start": 44.9076,
      "duration": 0.0154,
      "velocity": 127,
      "chip": "ym2612"
    },
    {
      "channel": 1,
      "note": 62,
      "start": 44.9077,
      "duration": 0.2178,
      "velocity": 93,
      "chip": "ym2612"
    },
    {
      "channel": 3,
      "note": 76,
      "start": 44.9079,
      "duration": 0.1089,
      "velocity": 94,
      "chip": "ym2612"
    },
    {
      "channel": 5,
      "note": 81,
      "start": 44.9081,
      "duration": 0.1089,
      "velocity": 94,
      "chip": "ym2612"
    },
    {
      "channel": 0,
      "note": 76,
      "start": 44.9229,
      "duration": 0.0936,
      "velocity": 114,
      "chip": "ym2612"
    },
    {
      "channel": 0,
      "note": 68,
      "start": 45.0165,
      "duration": 0.0309,
      "velocity": 114,
      "chip": "ym2612"
    },
    {
      "channel": 5,
      "note": 69,
      "start": 45.017,
      "duration": 0.109,
      "velocity": 94,
      "chip": "ym2612"
    },
    {
      "channel": 0,
      "note": 98,
      "start": 45.1255,
      "duration": 0.0309,
      "velocity": 114,
      "chip": "ym2612"
    },
    {
      "channel": 1,
      "note": 62,
      "start": 45.1256,
      "duration": 0.2179,
      "velocity": 93,
      "chip": "ym2612"
    },
    {
      "channel": 3,
      "note": 78,
      "start": 45.1259,
      "duration": 0.1088,
      "velocity": 94,
      "chip": "ym2612"
    },
    {
      "channel": 5,
      "note": 74,
      "start": 45.1261,
      "duration": 0.1088,
      "velocity": 94,
      "chip": "ym2612"
    },
    {
      "channel": 0,
      "note": 98,
      "start": 45.2344,
      "duration": 0.0309,
      "velocity": 114,
      "chip": "ym2612"
    },
    {
      "channel": 3,
      "note": 81,
      "start": 45.2347,
      "duration": 0.109,
      "velocity": 94,
      "chip": "ym2612"
    },
    {
      "channel": 0,
      "note": 98,
      "start": 45.3434,
      "duration": 0.1089,
      "velocity": 114,
      "chip": "ym2612"
    },
    {
      "channel": 1,
      "note": 62,
      "start": 45.3435,
      "duration": 0.2178,
      "velocity": 93,
      "chip": "ym2612"
    },
    {
      "channel": 3,
      "note": 69,
      "start": 45.3437,
      "duration": 0.1089,
      "velocity": 94,
      "chip": "ym2612"
    },
    {
      "channel": 5,
      "note": 76,
      "start": 45.3439,
      "duration": 0.1089,
      "velocity": 94,
      "chip": "ym2612"
    },
    {
      "channel": 0,
      "note": 54,
      "start": 45.4523,
      "duration": 0.0309,
      "velocity": 114,
      "chip": "ym2612"
    },
    {
      "channel": 3,
      "note": 74,
      "start": 45.4526,
      "duration": 0.109,
      "velocity": 94,
      "chip": "ym2612"
    },
    {
      "channel": 5,
      "note": 81,
      "start": 45.4528,
      "duration": 0.1089,
      "velocity": 94,
      "chip": "ym2612"
    },
    {
      "channel": 0,
      "note": 98,
      "start": 45.5612,
      "duration": 0.0309,
      "velocity": 114,
      "chip": "ym2612"
    },
    {
      "channel": 1,
      "note": 62,
      "start": 45.5614,
      "duration": 0.2179,
      "velocity": 93,
      "chip": "ym2612"
    },
    {
      "channel": 5,
      "note": 69,
      "start": 45.5618,
      "duration": 0.1089,
      "velocity": 94,
      "chip": "ym2612"
    },
    {
      "channel": 0,
      "note": 98,
      "start": 45.6702,
      "duration": 0.0309,
      "velocity": 114,
      "chip": "ym2612"
    },
    {
      "channel": 3,
      "note": 76,
      "start": 45.6704,
      "duration": 0.109,
      "velocity": 94,
      "chip": "ym2612"
    },
    {
      "channel": 5,
      "note": 81,
      "start": 45.6707,
      "duration": 0.109,
      "velocity": 94,
      "chip": "ym2612"
    },
    {
      "channel": 0,
      "note": 98,
      "start": 45.7791,
      "duration": 0.0154,
      "velocity": 127,
      "chip": "ym2612"
    },
    {
      "channel": 1,
      "note": 62,
      "start": 45.7793,
      "duration": 0.2179,
      "velocity": 93,
      "chip": "ym2612"
    },
    {
      "channel": 3,
      "note": 81,
      "start": 45.7795,
      "duration": 0.1089,
      "velocity": 94,
      "chip": "ym2612"
    },
    {
      "channel": 5,
      "note": 71,
      "start": 45.7797,
      "duration": 0.1089,
      "velocity": 94,
      "chip": "ym2612"
    },
    {
      "channel": 0,
      "note": 76,
      "start": 45.7945,
      "duration": 0.0936,
      "velocity": 114,
      "chip": "ym2612"
    },
    {
      "channel": 0,
      "note": 68,
      "start": 45.8881,
      "duration": 0.0309,
      "velocity": 114,
      "chip": "ym2612"
    },
    {
      "channel": 3,
      "note": 69,
      "start": 45.8883,
      "duration": 0.109,
      "velocity": 94,
      "chip": "ym2612"
    },
    {
      "channel": 5,
      "note": 74,
      "start": 45.8886,
      "duration": 0.109,
      "velocity": 94,
      "chip": "ym2612"
    },
    {
      "channel": 0,
      "note": 98,
      "start": 45.997,
      "duration": 0.0309,
      "velocity": 114,
      "chip": "ym2612"
    },
    {
      "channel": 1,
      "note": 62,
      "start": 45.9971,
      "duration": 0.2179,
      "velocity": 93,
      "chip": "ym2612"
    },
    {
      "channel": 3,
      "note": 81,
      "start": 45.9973,
      "duration": 0.1089,
      "velocity": 94,
      "chip": "ym2612"
    },
    {
      "channel": 0,
      "note": 98,
      "start": 46.106,
      "duration": 0.0309,
      "velocity": 114,
      "chip": "ym2612"
    },
    {
      "channel": 3,
      "note": 71,
      "start": 46.1062,
      "duration": 0.109,
      "velocity": 94,
      "chip": "ym2612"
    },
    {
      "channel": 5,
      "note": 76,
      "start": 46.1064,
      "duration": 0.1091,
      "velocity": 94,
      "chip": "ym2612"
    },
    {
      "channel": 0,
      "note": 98,
      "start": 46.2149,
      "duration": 0.1091,
      "velocity": 127,
      "chip": "ym2612"
    },
    {
      "channel": 1,
      "note": 62,
      "start": 46.215,
      "duration": 0.2179,
      "velocity": 93,
      "chip": "ym2612"
    },
    {
      "channel": 3,
      "note": 74,
      "start": 46.2152,
      "duration": 0.109,
      "velocity": 94,
      "chip": "ym2612"
    },
    {
      "channel": 5,
      "note": 78,
      "start": 46.2155,
      "duration": 0.109,
      "velocity": 94,
      "chip": "ym2612"
    },
    {
      "channel": 0,
      "note": 54,
      "start": 46.324,
      "duration": 0.0152,
      "velocity": 127,
      "chip": "ym2612"
    },
    {
      "channel": 5,
      "note": 81,
      "start": 46.3245,
      "duration": 0.1088,
      "velocity": 94,
      "chip": "ym2612"
    },
    {
      "channel": 0,
      "note": 76,
      "start": 46.3392,
      "duration": 0.0936,
      "velocity": 114,
      "chip": "ym2612"
    },
    {
      "channel": 0,
      "note": 68,
      "start": 46.4328,
      "duration": 0.0309,
      "velocity": 114,
      "chip": "ym2612"
    },
    {
      "channel": 1,
      "note": 62,
      "start": 46.4329,
      "duration": 0.2179,
      "velocity": 93,
      "chip": "ym2612"
    },
    {
      "channel": 3,
      "note": 76,
      "start": 46.4331,
      "duration": 0.1089,
      "velocity": 94,
      "chip": "ym2612"
    },
    {
      "channel": 5,
      "note": 69,
      "start": 46.4333,
      "duration": 0.1088,
      "velocity": 94,
      "chip": "ym2612"
    },
    {
      "channel": 0,
      "note": 98,
      "start": 46.5417,
      "duration": 0.0309,
      "velocity": 114,
      "chip": "ym2612"
    },
    {
      "channel": 5,
      "note": 74,
      "start": 46.5422,
      "duration": 0.1091,
      "velocity": 94,
      "chip": "ym2612"
    },
    {
      "channel": 0,
      "note": 98,
      "start": 46.6507,
      "duration": 0.1089,
      "velocity": 114,
      "chip": "ym2612"
    },
    {
      "channel": 1,
      "note": 62,
      "start": 46.6508,
      "duration": 0.2178,
      "velocity": 93,
      "chip": "ym2612"
    },
    {
      "channel": 2,
      "note": 50,
      "start": 46.6509,
      "duration": 3.0504,
      "velocity": 121,
      "chip": "ym2612"
    },
    {
      "channel": 3,
      "note": 78,
      "start": 46.6511,
      "duration": 0.1088,
      "velocity": 94,
      "chip": "ym2612"
    },
    {
      "channel": 0,
      "note": 54,
      "start": 46.7596,
      "duration": 0.0309,
      "velocity": 114,
      "chip": "ym2612"
    },
    {
      "channel": 3,
      "note": 81,
      "start": 46.7599,
      "duration": 0.109,
      "velocity": 94,
      "chip": "ym2612"
    },
    {
      "channel": 5,
      "note": 76,
      "start": 46.7601,
      "duration": 0.109,
      "velocity": 94,
      "chip": "ym2612"
    },
    {
      "channel": 4,
      "note": 50,
      "start": 46.8375,
      "duration": 3.0504,
      "velocity": 121,
      "chip": "ym2612"
    },
    {
      "channel": 0,
      "note": 98,
      "start": 46.8685,
      "duration": 0.0309,
      "velocity": 114,
      "chip": "ym2612"
    },
    {
      "channel": 1,
      "note": 59,
      "start": 46.8687,
      "duration": 0.2179,
      "velocity": 93,
      "chip": "ym2612"
    },
    {
      "channel": 3,
      "note": 69,
      "start": 46.8688,
      "duration": 0.1089,
      "velocity": 94,
      "chip": "ym2612"
    },
    {
      "channel": 5,
      "note": 81,
      "start": 46.8691,
      "duration": 0.1089,
      "velocity": 94,
      "chip": "ym2612"
    },
    {
      "channel": 0,
      "note": 98,
      "start": 46.9775,
      "duration": 0.0309,
      "velocity": 114,
      "chip": "ym2612"
    },
    {
      "channel": 3,
      "note": 74,
      "start": 46.9778,
      "duration": 0.109,
      "velocity": 94,
      "chip": "ym2612"
    },
    {
      "channel": 5,
      "note": 69,
      "start": 46.978,
      "duration": 0.109,
      "velocity": 94,
      "chip": "ym2612"
    },
    {
      "channel": 0,
      "note": 98,
      "start": 47.0864,
      "duration": 0.0154,
      "velocity": 127,
      "chip": "ym2612"
    },
    {
      "channel": 1,
      "note": 59,
      "start": 47.0866,
      "duration": 0.2179,
      "velocity": 93,
      "chip": "ym2612"
    },
    {
      "channel": 5,
      "note": 81,
      "start": 47.087,
      "duration": 0.1089,
      "velocity": 94,
      "chip": "ym2612"
    },
    {
      "channel": 0,
      "note": 76,
      "start": 47.1018,
      "duration": 0.0936,
      "velocity": 114,
      "chip": "ym2612"
    },
    {
      "channel": 0,
      "note": 68,
      "start": 47.1954,
      "duration": 0.0309,
      "velocity": 114,
      "chip": "ym2612"
    },
    {
      "channel": 3,
      "note": 76,
      "start": 47.1956,
      "duration": 0.109,
      "velocity": 94,
      "chip": "ym2612"
    },
    {
      "channel": 5,
      "note": 71,
      "start": 47.1959,
      "duration": 0.109,
      "velocity": 94,
      "chip": "ym2612"
    },
    {
      "channel": 0,
      "note": 98,
      "start": 47.3043,
      "duration": 0.0309,
      "velocity": 114,
      "chip": "ym2612"
    },
    {
      "channel": 1,
      "note": 59,
      "start": 47.3044,
      "duration": 0.2179,
      "velocity": 93,
      "chip": "ym2612"
    },
    {
      "channel": 3,
      "note": 81,
      "start": 47.3046,
      "duration": 0.1089,
      "velocity": 94,
      "chip": "ym2612"
    },
    {
      "channel": 5,
      "note": 74,
      "start": 47.3049,
      "duration": 0.1089,
      "velocity": 94,
      "chip": "ym2612"
    },
    {
      "channel": 0,
      "note": 98,
      "start": 47.4132,
      "duration": 0.0309,
      "velocity": 114,
      "chip": "ym2612"
    },
    {
      "channel": 3,
      "note": 69,
      "start": 47.4135,
      "duration": 0.109,
      "velocity": 94,
      "chip": "ym2612"
    },
    {
      "channel": 0,
      "note": 98,
      "start": 47.5222,
      "duration": 0.1089,
      "velocity": 114,
      "chip": "ym2612"
    },
    {
      "channel": 1,
      "note": 59,
      "start": 47.5223,
      "duration": 0.2178,
      "velocity": 93,
      "chip": "ym2612"
    },
    {
      "channel": 3,
      "note": 81,
      "start": 47.5225,
      "duration": 0.1089,
      "velocity": 94,
      "chip": "ym2612"
    },
    {
      "channel": 5,
      "note": 76,
      "start": 47.5228,
      "duration": 0.1089,
      "velocity": 94,
      "chip": "ym2612"
    },
    {
      "channel": 0,
      "note": 54,
      "start": 47.6311,
      "duration": 0.0309,
      "velocity": 114,
      "chip": "ym2612"
    },
    {
      "channel": 3,
      "note": 71,
      "start": 47.6314,
      "duration": 0.1091,
      "velocity": 94,
      "chip": "ym2612"
    },
    {
      "channel": 5,
      "note": 78,
      "start": 47.6317,
      "duration": 0.1091,
      "velocity": 94,
      "chip": "ym2612"
    },
    {
      "channel": 0,
      "note": 98,
      "start": 47.7401,
      "duration": 0.0309,
      "velocity": 114,
      "chip": "ym2612"
    },
    {
      "channel": 1,
      "note": 59,
      "start": 47.7402,
      "duration": 0.2179,
      "velocity": 93,
      "chip": "ym2612"
    },
    {
      "channel": 3,
      "note": 74,
      "start": 47.7405,
      "duration": 0.1087,
      "velocity": 94,
      "chip": "ym2612"
    },
    {
      "channel": 5,
      "note": 81,
      "start": 47.7408,
      "duration": 0.1087,
      "velocity": 94,
      "chip": "ym2612"
    },
    {
      "channel": 0,
      "note": 98,
      "start": 47.849,
      "duration": 0.0309,
      "velocity": 114,
      "chip": "ym2612"
    },
    {
      "channel": 5,
      "note": 69,
      "start": 47.8495,
      "duration": 0.109,
      "velocity": 94,
      "chip": "ym2612"
    },
    {
      "channel": 0,
      "note": 98,
      "start": 47.958,
      "duration": 0.0154,
      "velocity": 127,
      "chip": "ym2612"
    },
    {
      "channel": 1,
      "note": 59,
      "start": 47.9581,
      "duration": 0.2178,
      "velocity": 93,
      "chip": "ym2612"
    },
    {
      "channel": 3,
      "note": 76,
      "start": 47.9583,
      "duration": 0.1089,
      "velocity": 94,
      "chip": "ym2612"
    },
    {
      "channel": 5,
      "note": 74,
      "start": 47.9585,
      "duration": 0.1088,
      "velocity": 94,
      "chip": "ym2612"
    },
    {
      "channel": 0,
      "note": 76,
      "start": 47.9733,
      "duration": 0.0936,
      "velocity": 114,
      "chip": "ym2612"
    },
    {
      "channel": 0,
      "note": 68,
      "start": 48.0669,
      "duration": 0.0309,
      "velocity": 114,
      "chip": "ym2612"
    },
    {
      "channel": 0,
      "note": 98,
      "start": 48.1759,
      "duration": 0.0309,
      "velocity": 114,
      "chip": "ym2612"
    },
    {
      "channel": 1,
      "note": 59,
      "start": 48.176,
      "duration": 0.2179,
      "velocity": 93,
      "chip": "ym2612"
    },
    {
      "channel": 3,
      "note": 78,
      "start": 48.1762,
      "duration": 0.1088,
      "velocity": 94,
      "chip": "ym2612"
    },
    {
      "channel": 5,
      "note": 76,
      "start": 48.1764,
      "duration": 0.1088,
      "velocity": 94,
      "chip": "ym2612"
    },
    {
      "channel": 0,
      "note": 98,
      "start": 48.2848,
      "duration": 0.0309,
      "velocity": 114,
      "chip": "ym2612"
    },
    {
      "channel": 3,
      "note": 81,
      "start": 48.2851,
      "duration": 0.109,
      "velocity": 94,
      "chip": "ym2612"
    },
    {
      "channel": 5,
      "note": 81,
      "start": 48.2853,
      "duration": 0.109,
      "velocity": 94,
      "chip": "ym2612"
    },
    {
      "channel": 0,
      "note": 98,
      "start": 48.3937,
      "duration": 0.1089,
      "velocity": 114,
      "chip": "ym2612"
    },
    {
      "channel": 1,
      "note": 59,
      "start": 48.3939,
      "duration": 0.2178,
      "velocity": 93,
      "chip": "ym2612"
    },
    {
      "channel": 3,
      "note": 69,
      "start": 48.3941,
      "duration": 0.1089,
      "velocity": 94,
      "chip": "ym2612"
    },
    {
      "channel": 5,
      "note": 69,
      "start": 48.3943,
      "duration": 0.1089,
      "velocity": 94,
      "chip": "ym2612"
    },
    {
      "channel": 0,
      "note": 54,
      "start": 48.5027,
      "duration": 0.0309,
      "velocity": 114,
      "chip": "ym2612"
    },
    {
      "channel": 3,
      "note": 74,
      "start": 48.5029,
      "duration": 0.109,
      "velocity": 94,
      "chip": "ym2612"
    },
    {
      "channel": 5,
      "note": 81,
      "start": 48.5032,
      "duration": 0.1089,
      "velocity": 94,
      "chip": "ym2612"
    },
    {
      "channel": 0,
      "note": 98,
      "start": 48.6116,
      "duration": 0.0309,
      "velocity": 114,
      "chip": "ym2612"
    },
    {
      "channel": 1,
      "note": 59,
      "start": 48.6117,
      "duration": 0.2179,
      "velocity": 93,
      "chip": "ym2612"
    },
    {
      "channel": 5,
      "note": 71,
      "start": 48.6121,
      "duration": 0.1089,
      "velocity": 94,
      "chip": "ym2612"
    },
    {
      "channel": 0,
      "note": 98,
      "start": 48.7205,
      "duration": 0.0309,
      "velocity": 114,
      "chip": "ym2612"
    },
    {
      "channel": 3,
      "note": 76,
      "start": 48.7208,
      "duration": 0.109,
      "velocity": 94,
      "chip": "ym2612"
    },
    {
      "channel": 5,
      "note": 74,
      "start": 48.721,
      "duration": 0.109,
      "velocity": 94,
      "chip": "ym2612"
    },
    {
      "channel": 0,
      "note": 98,
      "start": 48.8295,
      "duration": 0.0154,
      "velocity": 127,
      "chip": "ym2612"
    },
    {
      "channel": 1,
      "note": 59,
      "start": 48.8296,
      "duration": 0.2178,
      "velocity": 93,
      "chip": "ym2612"
    },
    {
      "channel": 3,
      "note": 81,
      "start": 48.8298,
      "duration": 0.1089,
      "velocity": 94,
      "chip": "ym2612"
    },
    {
      "channel": 0,
      "note": 76,
      "start": 48.8449,
      "duration": 0.0936,
      "velocity": 114,
      "chip": "ym2612"
    },
    {
      "channel": 0,
      "note": 68,
      "start": 48.9384,
      "duration": 0.0309,
      "velocity": 114,
      "chip": "ym2612"
    },
    {
      "channel": 3,
      "note": 69,
      "start": 48.9387,
      "duration": 0.109,
      "velocity": 94,
      "chip": "ym2612"
    },
    {
      "channel": 5,
      "note": 76,
      "start": 48.9389,
      "duration": 0.109,
      "velocity": 94,
      "chip": "ym2612"
    },
    {
      "channel": 0,
      "note": 98,
      "start": 49.0474,
      "duration": 0.0309,
      "velocity": 114,
      "chip": "ym2612"
    },
    {
      "channel": 1,
      "note": 59,
      "start": 49.0475,
      "duration": 0.2179,
      "velocity": 93,
      "chip": "ym2612"
    },
    {
      "channel": 3,
      "note": 81,
      "start": 49.0477,
      "duration": 0.1089,
      "velocity": 94,
      "chip": "ym2612"
    },
    {
      "channel": 5,
      "note": 78,
      "start": 49.048,
      "duration": 0.1088,
      "velocity": 94,
      "chip": "ym2612"
    },
    {
      "channel": 0,
      "note": 98,
      "start": 49.1563,
      "duration": 0.0309,
      "velocity": 114,
      "chip": "ym2612"
    },
    {
      "channel": 3,
      "note": 71,
      "start": 49.1566,
      "duration": 0.109,
      "velocity": 94,
      "chip": "ym2612"
    },
    {
      "channel": 5,
      "note": 81,
      "start": 49.1568,
      "duration": 0.109,
      "velocity": 94,
      "chip": "ym2612"
    },
    {
      "channel": 0,
      "note": 98,
      "start": 49.2653,
      "duration": 0.1089,
      "velocity": 127,
      "chip": "ym2612"
    },
    {
      "channel": 1,
      "note": 59,
      "start": 49.2654,
      "duration": 0.2178,
      "velocity": 93,
      "chip": "ym2612"
    },
    {
      "channel": 3,
      "note": 74,
      "start": 49.2656,
      "duration": 0.1089,
      "velocity": 94,
      "chip": "ym2612"
    },
    {
      "channel": 5,
      "note": 69,
      "start": 49.2659,
      "duration": 0.1088,
      "velocity": 94,
      "chip": "ym2612"
    },
    {
      "channel": 0,
      "note": 54,
      "start": 49.3742,
      "duration": 0.0154,
      "velocity": 127,
      "chip": "ym2612"
    },
    {
      "channel": 5,
      "note": 74,
      "start": 49.3747,
      "duration": 0.109,
      "velocity": 94,
      "chip": "ym2612"
    },
    {
      "channel": 0,
      "note": 76,
      "start": 49.3895,
      "duration": 0.0936,
      "velocity": 114,
      "chip": "ym2612"
    },
    {
      "channel": 0,
      "note": 68,
      "start": 49.4831,
      "duration": 0.0309,
      "velocity": 114,
      "chip": "ym2612"
    },
    {
      "channel": 1,
      "note": 59,
      "start": 49.4833,
      "duration": 0.2179,
      "velocity": 93,
      "chip": "ym2612"
    },
    {
      "channel": 3,
      "note": 76,
      "start": 49.4834,
      "duration": 0.1089,
      "velocity": 94,
      "chip": "ym2612"
    },
    {
      "channel": 0,
      "note": 98,
      "start": 49.5921,
      "duration": 0.0309,
      "velocity": 114,
      "chip": "ym2612"
    },
    {
      "channel": 5,
      "note": 76,
      "start": 49.5926,
      "duration": 0.1092,
      "velocity": 94,
      "chip": "ym2612"
    },
    {
      "channel": 0,
      "note": 98,
      "start": 49.701,
      "duration": 0.1089,
      "velocity": 114,
      "chip": "ym2612"
    },
    {
      "channel": 1,
      "note": 59,
      "start": 49.7012,
      "duration": 0.2178,
      "velocity": 93,
      "chip": "ym2612"
    },
    {
      "channel": 2,
      "note": 47,
      "start": 49.7013,
      "duration": 3.0503,
      "velocity": 121,
      "chip": "ym2612"
    },
    {
      "channel": 3,
      "note": 78,
      "start": 49.7015,
      "duration": 0.1088,
      "velocity": 94,
      "chip": "ym2612"
    },
    {
      "channel": 5,
      "note": 81,
      "start": 49.7017,
      "duration": 0.1087,
      "velocity": 94,
      "chip": "ym2612"
    },
    {
      "channel": 0,
      "note": 54,
      "start": 49.81,
      "duration": 0.0309,
      "velocity": 114,
      "chip": "ym2612"
    },
    {
      "channel": 3,
      "note": 81,
      "start": 49.8102,
      "duration": 0.109,
      "velocity": 94,
      "chip": "ym2612"
    },
    {
      "channel": 5,
      "note": 69,
      "start": 49.8105,
      "duration": 0.109,
      "velocity": 94,
      "chip": "ym2612"
    },
    {
      "channel": 4,
      "note": 47,
      "start": 49.8879,
      "duration": 3.0504,
      "velocity": 121,
      "chip": "ym2612"
    },
    {
      "channel": 0,
      "note": 98,
      "start": 49.9189,
      "duration": 0.0309,
      "velocity": 114,
      "chip": "ym2612"
    },
    {
      "channel": 1,
      "note": 64,
      "start": 49.919,
      "duration": 0.2179,
      "velocity": 93,
      "chip": "ym2612"
    },
    {
      "channel": 3,
      "note": 69,
      "start": 49.9192,
      "duration": 0.1089,
      "velocity": 94,
      "chip": "ym2612"
    },
    {
      "channel": 5,
      "note": 81,
      "start": 49.9194,
      "duration": 0.1089,
      "velocity": 94,
      "chip": "ym2612"
    },
    {
      "channel": 0,
      "note": 98,
      "start": 50.0278,
      "duration": 0.0309,
      "velocity": 114,
      "chip": "ym2612"
    },
    {
      "channel": 3,
      "note": 74,
      "start": 50.0281,
      "duration": 0.109,
      "velocity": 94,
      "chip": "ym2612"
    },
    {
      "channel": 5,
      "note": 71,
      "start": 50.0283,
      "duration": 0.109,
      "velocity": 94,
      "chip": "ym2612"
    },
    {
      "channel": 0,
      "note": 98,
      "start": 50.1368,
      "duration": 0.0154,
      "velocity": 127,
      "chip": "ym2612"
    },
    {
      "channel": 1,
      "note": 64,
      "start": 50.1369,
      "duration": 0.2179,
      "velocity": 93,
      "chip": "ym2612"
    },
    {
      "channel": 5,
      "note": 74,
      "start": 50.1373,
      "duration": 0.1089,
      "velocity": 94,
      "chip": "ym2612"
    },
    {
      "channel": 0,
      "note": 76,
      "start": 50.1522,
      "duration": 0.0936,
      "velocity": 114,
      "chip": "ym2612"
    },
    {
      "channel": 0,
      "note": 68,
      "start": 50.2457,
      "duration": 0.0309,
      "velocity": 114,
      "chip": "ym2612"
    },
    {
      "channel": 3,
      "note": 76,
      "start": 50.246,
      "duration": 0.109,
      "velocity": 94,
      "chip": "ym2612"
    },
    {
      "channel": 0,
      "note": 98,
      "start": 50.3547,
      "duration": 0.0309,
      "velocity": 114,
      "chip": "ym2612"
    },
    {
      "channel": 1,
      "note": 64,
      "start": 50.3548,
      "duration": 0.2179,
      "velocity": 93,
      "chip": "ym2612"
    },
    {
      "channel": 3,
      "note": 81,
      "start": 50.355,
      "duration": 0.1089,
      "velocity": 94,
      "chip": "ym2612"
    },
    {
      "channel": 5,
      "note": 76,
      "start": 50.3552,
      "duration": 0.109,
      "velocity": 94,
      "chip": "ym2612"
    },
    {
      "channel": 0,
      "note": 98,
      "start": 50.4636,
      "duration": 0.0309,
      "velocity": 114,
      "chip": "ym2612"
    },
    {
      "channel": 3,
      "note": 69,
      "start": 50.4639,
      "duration": 0.109,
      "velocity": 94,
      "chip": "ym2612"
    },
    {
      "channel": 5,
      "note": 78,
      "start": 50.4642,
      "duration": 0.109,
      "velocity": 94,
      "chip": "ym2612"
    },
    {
      "channel": 0,
      "note": 98,
      "start": 50.5726,
      "duration": 0.1089,
      "velocity": 114,
      "chip": "ym2612"
    },
    {
      "channel": 1,
      "note": 64,
      "start": 50.5727,
      "duration": 0.218,
      "velocity": 93,
      "chip": "ym2612"
    },
    {
      "channel": 3,
      "note": 81,
      "start": 50.5729,
      "duration": 0.1089,
      "velocity": 94,
      "chip": "ym2612"
    },
    {
      "channel": 5,
      "note": 81,
      "start": 50.5732,
      "duration": 0.1089,
      "velocity": 94,
      "chip": "ym2612"
    },
    {
      "channel": 0,
      "note": 54,
      "start": 50.6815,
      "duration": 0.0309,
      "velocity": 114,
      "chip": "ym2612"
    },
    {
      "channel": 3,
      "note": 71,
      "start": 50.6818,
      "duration": 0.1091,
      "velocity": 94,
      "chip": "ym2612"
    },
    {
      "channel": 5,
      "note": 69,
      "start": 50.682,
      "duration": 0.1091,
      "velocity": 94,
      "chip": "ym2612"
    },
    {
      "channel": 0,
      "note": 98,
      "start": 50.7906,
      "duration": 0.0307,
      "velocity": 114,
      "chip": "ym2612"
    },
    {
      "channel": 1,
      "note": 64,
      "start": 50.7907,
      "duration": 0.2177,
      "velocity": 93,
      "chip": "ym2612"
    },
    {
      "channel": 3,
      "note": 74,
      "start": 50.7909,
      "duration": 0.1087,
      "velocity": 94,
      "chip": "ym2612"
    },
    {
      "channel": 5,
      "note": 74,
      "start": 50.7912,
      "duration": 0.1087,
      "velocity": 94,
      "chip": "ym2612"
    },
    {
      "channel": 0,
      "note": 98,
      "start": 50.8994,
      "duration": 0.0309,
      "velocity": 114,
      "chip": "ym2612"
    },
    {
      "channel": 0,
      "note": 98,
      "start": 51.0083,
      "duration": 0.0155,
      "velocity": 127,
      "chip": "ym2612"
    },
    {
      "channel": 1,
      "note": 64,
      "start": 51.0085,
      "duration": 0.2178,
      "velocity": 93,
      "chip": "ym2612"
    },
    {
      "channel": 3,
      "note": 76,
      "start": 51.0086,
      "duration": 0.1089,
      "velocity": 94,
      "chip": "ym2612"
    },
    {
      "channel": 5,
      "note": 76,
      "start": 51.0089,
      "duration": 0.1089,
      "velocity": 94,
      "chip": "ym2612"
    },
    {
      "channel": 0,
      "note": 76,
      "start": 51.0239,
      "duration": 0.0934,
      "velocity": 114,
      "chip": "ym2612"
    },
    {
      "channel": 0,
      "note": 68,
      "start": 51.1173,
      "duration": 0.0309,
      "velocity": 114,
      "chip": "ym2612"
    },
    {
      "channel": 5,
      "note": 81,
      "start": 51.1178,
      "duration": 0.1091,
      "velocity": 94,
      "chip": "ym2612"
    },
    {
      "channel": 0,
      "note": 98,
      "start": 51.2262,
      "duration": 0.031,
      "velocity": 114,
      "chip": "ym2612"
    },
    {
      "channel": 1,
      "note": 64,
      "start": 51.2263,
      "duration": 0.2179,
      "velocity": 93,
      "chip": "ym2612"
    },
    {
      "channel": 3,
      "note": 78,
      "start": 51.2266,
      "duration": 0.1088,
      "velocity": 94,
      "chip": "ym2612"
    },
    {
      "channel": 5,
      "note": 69,
      "start": 51.2268,
      "duration": 0.1088,
      "velocity": 94,
      "chip": "ym2612"
    },
    {
      "channel": 0,
      "note": 98,
      "start": 51.3351,
      "duration": 0.0309,
      "velocity": 114,
      "chip": "ym2612"
    },
    {
      "channel": 3,
      "note": 81,
      "start": 51.3354,
      "duration": 0.109,
      "velocity": 94,
      "chip": "ym2612"
    },
    {
      "channel": 5,
      "note": 81,
      "start": 51.3356,
      "duration": 0.109,
      "velocity": 94,
      "chip": "ym2612"
    },
    {
      "channel": 0,
      "note": 98,
      "start": 51.4441,
      "duration": 0.1089,
      "velocity": 114,
      "chip": "ym2612"
    },
    {
      "channel": 1,
      "note": 64,
      "start": 51.4442,
      "duration": 0.2178,
      "velocity": 93,
      "chip": "ym2612"
    },
    {
      "channel": 3,
      "note": 69,
      "start": 51.4444,
      "duration": 0.1089,
      "velocity": 94,
      "chip": "ym2612"
    },
    {
      "channel": 5,
      "note": 71,
      "start": 51.4447,
      "duration": 0.1089,
      "velocity": 94,
      "chip": "ym2612"
    },
    {
      "channel": 0,
      "note": 54,
      "start": 51.553,
      "duration": 0.0309,
      "velocity": 114,
      "chip": "ym2612"
    },
    {
      "channel": 3,
      "note": 74,
      "start": 51.5533,
      "duration": 0.109,
      "velocity": 94,
      "chip": "ym2612"
    },
    {
      "channel": 5,
      "note": 74,
      "start": 51.5536,
      "duration": 0.1089,
      "velocity": 94,
      "chip": "ym2612"
    },
    {
      "channel": 0,
      "note": 98,
      "start": 51.662,
      "duration": 0.0309,
      "velocity": 114,
      "chip": "ym2612"
    },
    {
      "channel": 1,
      "note": 64,
      "start": 51.6621,
      "duration": 0.2179,
      "velocity": 93,
      "chip": "ym2612"
    },
    {
      "channel": 0,
      "note": 98,
      "start": 51.7709,
      "duration": 0.0309,
      "velocity": 114,
      "chip": "ym2612"
    },
    {
      "channel": 3,
      "note": 76,
      "start": 51.7712,
      "duration": 0.109,
      "velocity": 94,
      "chip": "ym2612"
    },
    {
      "channel": 5,
      "note": 76,
      "start": 51.7714,
      "duration": 0.1091,
      "velocity": 94,
      "chip": "ym2612"
    },
    {
      "channel": 0,
      "note": 98,
      "start": 51.8799,
      "duration": 0.0154,
      "velocity": 127,
      "chip": "ym2612"
    },
    {
      "channel": 1,
      "note": 64,
      "start": 51.88,
      "duration": 0.2178,
      "velocity": 93,
      "chip": "ym2612"
    },
    {
      "channel": 3,
      "note": 81,
      "start": 51.8802,
      "duration": 0.1089,
      "velocity": 94,
      "chip": "ym2612"
    },
    {
      "channel": 5,
      "note": 78,
      "start": 51.8805,
      "duration": 0.1088,
      "velocity": 94,
      "chip": "ym2612"
    },
    {
      "channel": 0,
      "note": 76,
      "start": 51.8952,
      "duration": 0.0936,
      "velocity": 114,
      "chip": "ym2612"
    },
    {
      "channel": 0,
      "note": 68,
      "start": 51.9888,
      "duration": 0.0309,
      "velocity": 114,
      "chip": "ym2612"
    },
    {
      "channel": 3,
      "note": 69,
      "start": 51.9891,
      "duration": 0.109,
      "velocity": 94,
      "chip": "ym2612"
    },
    {
      "channel": 5,
      "note": 81,
      "start": 51.9893,
      "duration": 0.109,
      "velocity": 94,
      "chip": "ym2612"
    },
    {
      "channel": 0,
      "note": 98,
      "start": 52.0978,
      "duration": 0.0309,
      "velocity": 114,
      "chip": "ym2612"
    },
    {
      "channel": 1,
      "note": 64,
      "start": 52.0978,
      "duration": 0.2179,
      "velocity": 93,
      "chip": "ym2612"
    },
    {
      "channel": 3,
      "note": 81,
      "start": 52.098,
      "duration": 0.1091,
      "velocity": 94,
      "chip": "ym2612"
    },
    {
      "channel": 5,
      "note": 69,
      "start": 52.0983,
      "duration": 0.109,
      "velocity": 94,
      "chip": "ym2612"
    },
    {
      "channel": 0,
      "note": 98,
      "start": 52.2067,
      "duration": 0.0309,
      "velocity": 114,
      "chip": "ym2612"
    },
    {
      "channel": 3,
      "note": 71,
      "start": 52.2071,
      "duration": 0.1088,
      "velocity": 94,
      "chip": "ym2612"
    },
    {
      "channel": 5,
      "note": 74,
      "start": 52.2074,
      "duration": 0.1088,
      "velocity": 94,
      "chip": "ym2612"
    },
    {
      "channel": 0,
      "note": 98,
      "start": 52.3156,
      "duration": 0.1089,
      "velocity": 127,
      "chip": "ym2612"
    },
    {
      "channel": 1,
      "note": 64,
      "start": 52.3158,
      "duration": 0.2178,
      "velocity": 93,
      "chip": "ym2612"
    },
    {
      "channel": 3,
      "note": 74,
      "start": 52.316,
      "duration": 0.1089,
      "velocity": 94,
      "chip": "ym2612"
    },
    {
      "channel": 0,
      "note": 54,
      "start": 52.4246,
      "duration": 0.0154,
      "velocity": 127,
      "chip": "ym2612"
    },
    {
      "channel": 5,
      "note": 76,
      "start": 52.4251,
      "duration": 0.109,
      "velocity": 94,
      "chip": "ym2612"
    },
    {
      "channel": 0,
      "note": 76,
      "start": 52.4399,
      "duration": 0.0936,
      "velocity": 114,
      "chip": "ym2612"
    },
    {
      "channel": 0,
      "note": 68,
      "start": 52.5335,
      "duration": 0.0309,
      "velocity": 114,
      "chip": "ym2612"
    },
    {
      "channel": 1,
      "note": 64,
      "start": 52.5336,
      "duration": 0.2179,
      "velocity": 93,
      "chip": "ym2612"
    },
    {
      "channel": 3,
      "note": 76,
      "start": 52.5338,
      "duration": 0.1089,
      "velocity": 94,
      "chip": "ym2612"
    },
    {
      "channel": 5,
      "note": 81,
      "start": 52.5341,
      "duration": 0.1089,
      "velocity": 94,
      "chip": "ym2612"
    },
    {
      "channel": 0,
      "note": 98,
      "start": 52.6424,
      "duration": 0.0309,
      "velocity": 114,
      "chip": "ym2612"
    },
    {
      "channel": 5,
      "note": 69,
      "start": 52.6429,
      "duration": 0.1092,
      "velocity": 94,
      "chip": "ym2612"
    },
    {
      "channel": 0,
      "note": 98,
      "start": 52.7514,
      "duration": 0.1089,
      "velocity": 114,
      "chip": "ym2612"
    },
    {
      "channel": 1,
      "note": 64,
      "start": 52.7516,
      "duration": 0.2178,
      "velocity": 93,
      "chip": "ym2612"
    },
    {
      "channel": 2,
      "note": 52,
      "start": 52.7517,
      "duration": 3.0504,
      "velocity": 121,
      "chip": "ym2612"
    },
    {
      "channel": 3,
      "note": 78,
      "start": 52.7519,
      "duration": 0.1087,
      "velocity": 94,
      "chip": "ym2612"
    },
    {
      "channel": 5,
      "note": 81,
      "start": 52.7521,
      "duration": 0.1087,
      "velocity": 94,
      "chip": "ym2612"
    },
    {
      "channel": 0,
      "note": 54,
      "start": 52.8603,
      "duration": 0.0309,
      "velocity": 114,
      "chip": "ym2612"
    },
    {
      "channel": 3,
      "note": 81,
      "start": 52.8606,
      "duration": 0.109,
      "velocity": 94,
      "chip": "ym2612"
    },
    {
      "channel": 5,
      "note": 71,
      "start": 52.8608,
      "duration": 0.109,
      "velocity": 94,
      "chip": "ym2612"
    },
    {
      "channel": 4,
      "note": 52,
      "start": 52.9383,
      "duration": 3.0504,
      "velocity": 121,
      "chip": "ym2612"
    },
    {
      "channel": 0,
      "note": 98,
      "start": 52.9693,
      "duration": 0.0309,
      "velocity": 114,
      "chip": "ym2612"
    },
    {
      "channel": 1,
      "note": 67,
      "start": 52.9694,
      "duration": 0.2179,
      "velocity": 93,
      "chip": "ym2612"
    },
    {
      "channel": 3,
      "note": 69,
      "start": 52.9696,
      "duration": 0.1089,
      "velocity": 94,
      "chip": "ym2612"
    },
    {
      "channel": 5,
      "note": 74,
      "start": 52.9698,
      "duration": 0.1089,
      "velocity": 94,
      "chip": "ym2612"
    },
    {
      "channel": 0,
      "note": 98,
      "start": 53.0782,
      "duration": 0.0309,
      "velocity": 114,
      "chip": "ym2612"
    },
    {
      "channel": 3,
      "note": 74,
      "start": 53.0785,
      "duration": 0.109,
      "velocity": 94,
      "chip": "ym2612"
    },
    {
      "channel": 0,
      "note": 98,
      "start": 53.1872,
      "duration": 0.0154,
      "velocity": 127,
      "chip": "ym2612"
    },
    {
      "channel": 1,
      "note": 67,
      "start": 53.1873,
      "duration": 0.2178,
      "velocity": 93,
      "chip": "ym2612"
    },
    {
      "channel": 5,
      "note": 76,
      "start": 53.1877,
      "duration": 0.109,
      "velocity": 94,
      "chip": "ym2612"
    },
    {
      "channel": 0,
      "note": 76,
      "start": 53.2025,
      "duration": 0.0936,
      "velocity": 114,
      "chip": "ym2612"
    },
    {
      "channel": 0,
      "note": 68,
      "start": 53.2961,
      "duration": 0.0309,
      "velocity": 114,
      "chip": "ym2612"
    },
    {
      "channel": 3,
      "note": 76,
      "start": 53.2964,
      "duration": 0.109,
      "velocity": 94,
      "chip": "ym2612"
    },
    {
      "channel": 5,
      "note": 78,
      "start": 53.2967,
      "duration": 0.1089,
      "velocity": 94,
      "chip": "ym2612"
    },
    {
      "channel": 0,
      "note": 98,
      "start": 53.405,
      "duration": 0.0309,
      "velocity": 114,
      "chip": "ym2612"
    },
    {
      "channel": 1,
      "note": 67,
      "start": 53.4051,
      "duration": 0.2179,
      "velocity": 93,
      "chip": "ym2612"
    },
    {
      "channel": 3,
      "note": 81,
      "start": 53.4054,
      "duration": 0.1089,
      "velocity": 94,
      "chip": "ym2612"
    },
    {
      "channel": 5,
      "note": 81,
      "start": 53.4056,
      "duration": 0.1089,
      "velocity": 94,
      "chip": "ym2612"
    },
    {
      "channel": 0,
      "note": 98,
      "start": 53.514,
      "duration": 0.0309,
      "velocity": 114,
      "chip": "ym2612"
    },
    {
      "channel": 3,
      "note": 69,
      "start": 53.5142,
      "duration": 0.109,
      "velocity": 94,
      "chip": "ym2612"
    },
    {
      "channel": 5,
      "note": 69,
      "start": 53.5145,
      "duration": 0.109,
      "velocity": 94,
      "chip": "ym2612"
    },
    {
      "channel": 0,
      "note": 98,
      "start": 53.6229,
      "duration": 0.1089,
      "velocity": 114,
      "chip": "ym2612"
    },
    {
      "channel": 1,
      "note": 67,
      "start": 53.6231,
      "duration": 0.2178,
      "velocity": 93,
      "chip": "ym2612"
    },
    {
      "channel": 3,
      "note": 81,
      "start": 53.6233,
      "duration": 0.1089,
      "velocity": 94,
      "chip": "ym2612"
    },
    {
      "channel": 5,
      "note": 74,
      "start": 53.6235,
      "duration": 0.1088,
      "velocity": 94,
      "chip": "ym2612"
    },
    {
      "channel": 0,
      "note": 54,
      "start": 53.7319,
      "duration": 0.0309,
      "velocity": 114,
      "chip": "ym2612"
    },
    {
      "channel": 3,
      "note": 71,
      "start": 53.7322,
      "duration": 0.109,
      "velocity": 94,
      "chip": "ym2612"
    },
    {
      "channel": 0,
      "note": 98,
      "start": 53.8408,
      "duration": 0.0309,
      "velocity": 114,
      "chip": "ym2612"
    },
    {
      "channel": 1,
      "note": 67,
      "start": 53.8409,
      "duration": 0.2179,
      "velocity": 93,
      "chip": "ym2612"
    },
    {
      "channel": 3,
      "note": 74,
      "start": 53.8411,
      "duration": 0.1089,
      "velocity": 94,
      "chip": "ym2612"
    },
    {
      "channel": 5,
      "note": 76,
      "start": 53.8414,
      "duration": 0.1089,
      "velocity": 94,
      "chip": "ym2612"
    },
    {
      "channel": 0,
      "note": 98,
      "start": 53.9498,
      "duration": 0.0309,
      "velocity": 114,
      "chip": "ym2612"
    },
    {
      "channel": 5,
      "note": 81,
      "start": 53.9502,
      "duration": 0.109,
      "velocity": 94,
      "chip": "ym2612"
    },
    {
      "channel": 0,
      "note": 98,
      "start": 54.0587,
      "duration": 0.0154,
      "velocity": 127,
      "chip": "ym2612"
    },
    {
      "channel": 1,
      "note": 67,
      "start": 54.0588,
      "duration": 0.2179,
      "velocity": 93,
      "chip": "ym2612"
    },
    {
      "channel": 3,
      "note": 76,
      "start": 54.059,
      "duration": 0.1089,
      "velocity": 94,
      "chip": "ym2612"
    },
    {
      "channel": 5,
      "note": 69,
      "start": 54.0593,
      "duration": 0.1089,
      "velocity": 94,
      "chip": "ym2612"
    },
    {
      "channel": 0,
      "note": 76,
      "start": 54.0741,
      "duration": 0.0936,
      "velocity": 114,
      "chip": "ym2612"
    },
    {
      "channel": 0,
      "note": 68,
      "start": 54.1676,
      "duration": 0.0309,
      "velocity": 114,
      "chip": "ym2612"
    },
    {
      "channel": 5,
      "note": 81,
      "start": 54.1681,
      "duration": 0.1091,
      "velocity": 94,
      "chip": "ym2612"
    },
    {
      "channel": 0,
      "note": 98,
      "start": 54.2766,
      "duration": 0.0309,
      "velocity": 114,
      "chip": "ym2612"
    },
    {
      "channel": 1,
      "note": 67,
      "start": 54.2767,
      "duration": 0.2179,
      "velocity": 93,
      "chip": "ym2612"
    },
    {
      "channel": 3,
      "note": 78,
      "start": 54.277,
      "duration": 0.1088,
      "velocity": 94,
      "chip": "ym2612"
    },
    {
      "channel": 5,
      "note": 71,
      "start": 54.2772,
      "duration": 0.1088,
      "velocity": 94,
      "chip": "ym2612"
    },
    {
      "channel": 0,
      "note": 98,
      "start": 54.3855,
      "duration": 0.0309,
      "velocity": 114,
      "chip": "ym2612"
    },
    {
      "channel": 3,
      "note": 81,
      "start": 54.3858,
      "duration": 0.109,
      "velocity": 94,
      "chip": "ym2612"
    },
    {
      "channel": 5,
      "note": 74,
      "start": 54.386,
      "duration": 0.109,
      "velocity": 94,
      "chip": "ym2612"
    },
    {
      "channel": 0,
      "note": 98,
      "start": 54.4945,
      "duration": 0.1089,
      "velocity": 114,
      "chip": "ym2612"
    },
    {
      "channel": 1,
      "note": 67,
      "start": 54.4946,
      "duration": 0.2178,
      "velocity": 93,
      "chip": "ym2612"
    },
    {
      "channel": 3,
      "note": 69,
      "start": 54.4948,
      "duration": 0.1089,
      "velocity": 94,
      "chip": "ym2612"
    },
    {
      "channel": 0,
      "note": 54,
      "start": 54.6034,
      "duration": 0.0309,
      "velocity": 114,
      "chip": "ym2612"
    },
    {
      "channel": 3,
      "note": 74,
      "start": 54.6037,
      "duration": 0.109,
      "velocity": 94,
      "chip": "ym2612"
    },
    {
      "channel": 5,
      "note": 76,
      "start": 54.6039,
      "duration": 0.109,
      "velocity": 94,
      "chip": "ym2612"
    },
    {
      "channel": 0,
      "note": 98,
      "start": 54.7123,
      "duration": 0.0309,
      "velocity": 114,
      "chip": "ym2612"
    },
    {
      "channel": 1,
      "note": 67,
      "start": 54.7124,
      "duration": 0.2179,
      "velocity": 93,
      "chip": "ym2612"
    },
    {
      "channel": 5,
      "note": 78,
      "start": 54.7129,
      "duration": 0.1089,
      "velocity": 94,
      "chip": "ym2612"
    },
    {
      "channel": 0,
      "note": 98,
      "start": 54.8213,
      "duration": 0.0309,
      "velocity": 114,
      "chip": "ym2612"
    },
    {
      "channel": 3,
      "note": 76,
      "start": 54.8215,
      "duration": 0.109,
      "velocity": 94,
      "chip": "ym2612"
    },
    {
      "channel": 5,
      "note": 81,
      "start": 54.8218,
      "duration": 0.109,
      "velocity": 94,
      "chip": "ym2612"
    },
    {
      "channel": 0,
      "note": 98,
      "start": 54.9302,
      "duration": 0.0154,
      "velocity": 127,
      "chip": "ym2612"
    },
    {
      "channel": 1,
      "note": 67,
      "start": 54.9304,
      "duration": 0.2178,
      "velocity": 93,
      "chip": "ym2612"
    },
    {
      "channel": 3,
      "note": 81,
      "start": 54.9306,
      "duration": 0.1089,
      "velocity": 94,
      "chip": "ym2612"
    },
    {
      "channel": 5,
      "note": 69,
      "start": 54.9308,
      "duration": 0.1089,
      "velocity": 94,
      "chip": "ym2612"
    },
    {
      "channel": 0,
      "note": 76,
      "start": 54.9456,
      "duration": 0.0936,
      "velocity": 114,
      "chip": "ym2612"
    },
    {
      "channel": 0,
      "note": 68,
      "start": 55.0392,
      "duration": 0.0309,
      "velocity": 114,
      "chip": "ym2612"
    },
    {
      "channel": 3,
      "note": 69,
      "start": 55.0395,
      "duration": 0.109,
      "velocity": 94,
      "chip": "ym2612"
    },
    {
      "channel": 5,
      "note": 74,
      "start": 55.0397,
      "duration": 0.109,
      "velocity": 94,
      "chip": "ym2612"
    },
    {
      "channel": 0,
      "note": 98,
      "start": 55.1481,
      "duration": 0.0309,
      "velocity": 114,
      "chip": "ym2612"
    },
    {
      "channel": 1,
      "note": 67,
      "start": 55.1482,
      "duration": 0.2179,
      "velocity": 93,
      "chip": "ym2612"
    },
    {
      "channel": 3,
      "note": 81,
      "start": 55.1484,
      "duration": 0.109,
      "velocity": 94,
      "chip": "ym2612"
    },
    {
      "channel": 0,
      "note": 98,
      "start": 55.2572,
      "duration": 0.0307,
      "velocity": 114,
      "chip": "ym2612"
    },
    {
      "channel": 3,
      "note": 71,
      "start": 55.2575,
      "duration": 0.1088,
      "velocity": 94,
      "chip": "ym2612"
    },
    {
      "channel": 5,
      "note": 76,
      "start": 55.2577,
      "duration": 0.1089,
      "velocity": 94,
      "chip": "ym2612"
    },
    {
      "channel": 0,
      "note": 98,
      "start": 55.366,
      "duration": 0.1089,
      "velocity": 127,
      "chip": "ym2612"
    },
    {
      "channel": 1,
      "note": 67,
      "start": 55.3661,
      "duration": 0.2178,
      "velocity": 93,
      "chip": "ym2612"
    },
    {
      "channel": 3,
      "note": 74,
      "start": 55.3663,
      "duration": 0.1088,
      "velocity": 94,
      "chip": "ym2612"
    },
    {
      "channel": 5,
      "note": 81,
      "start": 55.3666,
      "duration": 0.1088,
      "velocity": 94,
      "chip": "ym2612"
    },
    {
      "channel": 0,
      "note": 54,
      "start": 55.4749,
      "duration": 0.0155,
      "velocity": 127,
      "chip": "ym2612"
    },
    {
      "channel": 5,
      "note": 69,
      "start": 55.4754,
      "duration": 0.109,
      "velocity": 94,
      "chip": "ym2612"
    },
    {
      "channel": 0,
      "note": 76,
      "start": 55.4905,
      "duration": 0.0934,
      "velocity": 114,
      "chip": "ym2612"
    },
    {
      "channel": 0,
      "note": 68,
      "start": 55.5839,
      "duration": 0.0309,
      "velocity": 114,
      "chip": "ym2612"
    },
    {
      "channel": 1,
      "note": 67,
      "start": 55.584,
      "duration": 0.2179,
      "velocity": 93,
      "chip": "ym2612"
    },
    {
      "channel": 3,
      "note": 76,
      "start": 55.5842,
      "duration": 0.1089,
      "velocity": 94,
      "chip": "ym2612"
    },
    {
      "channel": 5,
      "note": 81,
      "start": 55.5844,
      "duration": 0.1088,
      "velocity": 94,
      "chip": "ym2612"
    },
    {
      "channel": 0,
      "note": 98,
      "start": 55.6928,
      "duration": 0.031,
      "velocity": 114,
      "chip": "ym2612"
    },
    {
      "channel": 5,
      "note": 71,
      "start": 55.6933,
      "duration": 0.1092,
      "velocity": 94,
      "chip": "ym2612"
    },
    {
      "channel": 0,
      "note": 98,
      "start": 55.8018,
      "duration": 0.1089,
      "velocity": 114,
      "chip": "ym2612"
    },
    {
      "channel": 1,
      "note": 67,
      "start": 55.8019,
      "duration": 0.2178,
      "velocity": 93,
      "chip": "ym2612"
    },
    {
      "channel": 2,
      "note": 43,
      "start": 55.8021,
      "duration": 3.0503,
      "velocity": 121,
      "chip": "ym2612"
    },
    {
      "channel": 3,
      "note": 78,
      "start": 55.8022,
      "duration": 0.1087,
      "velocity": 94,
      "chip": "ym2612"
    },
    {
      "channel": 5,
      "note": 74,
      "start": 55.8025,
      "duration": 0.1087,
      "velocity": 94,
      "chip": "ym2612"
    },
    {
      "channel": 0,
      "note": 54,
      "start": 55.9107,
      "duration": 0.0309,
      "velocity": 114,
      "chip": "ym2612"
    },
    {
      "channel": 3,
      "note": 81,
      "start": 55.911,
      "duration": 0.109,
      "velocity": 94,
      "chip": "ym2612"
    },
    {
      "channel": 4,
      "note": 43,
      "start": 55.9886,
      "duration": 3.0503,
      "velocity": 121,
      "chip": "ym2612"
    },
    {
      "channel": 0,
      "note": 98,
      "start": 56.0196,
      "duration": 0.0309,
      "velocity": 114,
      "chip": "ym2612"
    },
    {
      "channel": 1,
      "note": 62,
      "start": 56.0198,
      "duration": 0.2179,
      "velocity": 93,
      "chip": "ym2612"
    },
    {
      "channel": 3,
      "note": 69,
      "start": 56.02,
      "duration": 0.1089,
      "velocity": 94,
      "chip": "ym2612"
    },
    {
      "channel": 5,
      "note": 76,
      "start": 56.0202,
      "duration": 0.109,
      "velocity": 94,
      "chip": "ym2612"
    },
    {
      "channel": 0,
      "note": 98,
      "start": 56.1286,
      "duration": 0.0309,
      "velocity": 114,
      "chip": "ym2612"
    },
    {
      "channel": 3,
      "note": 74,
      "start": 56.1288,
      "duration": 0.109,
      "velocity": 94,
      "chip": "ym2612"
    },
    {
      "channel": 5,
      "note": 78,
      "start": 56.1291,
      "duration": 0.109,
      "velocity": 94,
      "chip": "ym2612"
    },
    {
      "channel": 0,
      "note": 98,
      "start": 56.2375,
      "duration": 0.0154,
      "velocity": 127,
      "chip": "ym2612"
    },
    {
      "channel": 1,
      "note": 62,
      "start": 56.2377,
      "duration": 0.2178,
      "velocity": 93,
      "chip": "ym2612"
    },
    {
      "channel": 5,
      "note": 81,
      "start": 56.2381,
      "duration": 0.1089,
      "velocity": 94,
      "chip": "ym2612"
    },
    {
      "channel": 0,
      "note": 76,
      "start": 56.2529,
      "duration": 0.0936,
      "velocity": 114,
      "chip": "ym2612"
    },
    {
      "channel": 0,
      "note": 68,
      "start": 56.3465,
      "duration": 0.0309,
      "velocity": 114,
      "chip": "ym2612"
    },
    {
      "channel": 3,
      "note": 76,
      "start": 56.3467,
      "duration": 0.109,
      "velocity": 94,
      "chip": "ym2612"
    },
    {
      "channel": 5,
      "note": 69,
      "start": 56.347,
      "duration": 0.109,
      "velocity": 94,
      "chip": "ym2612"
    },
    {
      "channel": 0,
      "note": 98,
      "start": 56.4554,
      "duration": 0.0309,
      "velocity": 114,
      "chip": "ym2612"
    },
    {
      "channel": 1,
      "note": 62,
      "start": 56.4555,
      "duration": 0.2179,
      "velocity": 93,
      "chip": "ym2612"
    },
    {
      "channel": 3,
      "note": 81,
      "start": 56.4557,
      "duration": 0.1089,
      "velocity": 94,
      "chip": "ym2612"
    },
    {
      "channel": 5,
      "note": 74,
      "start": 56.456,
      "duration": 0.1089,
      "velocity": 94,
      "chip": "ym2612"
    },
    {
      "channel": 0,
      "note": 98,
      "start": 56.5644,
      "duration": 0.0309,
      "velocity": 114,
      "chip": "ym2612"
    },
    {
      "channel": 3,
      "note": 69,
      "start": 56.5646,
      "duration": 0.1092,
      "velocity": 94,
      "chip": "ym2612"
    },
    {
      "channel": 0,
      "note": 98,
      "start": 56.6733,
      "duration": 0.1089,
      "velocity": 114,
      "chip": "ym2612"
    },
    {
      "channel": 1,
      "note": 62,
      "start": 56.6734,
      "duration": 0.2178,
      "velocity": 93,
      "chip": "ym2612"
    },
    {
      "channel": 3,
      "note": 81,
      "start": 56.6738,
      "duration": 0.1087,
      "velocity": 94,
      "chip": "ym2612"
    },
    {
      "channel": 5,
      "note": 76,
      "start": 56.674,
      "duration": 0.1087,
      "velocity": 94,
      "chip": "ym2612"
    },
    {
      "channel": 0,
      "note": 54,
      "start": 56.7822,
      "duration": 0.0309,
      "velocity": 114,
      "chip": "ym2612"
    },
    {
      "channel": 3,
      "note": 71,
      "start": 56.7825,
      "duration": 0.109,
      "velocity": 94,
      "chip": "ym2612"
    },
    {
      "channel": 5,
      "note": 81,
      "start": 56.7827,
      "duration": 0.109,
      "velocity": 94,
      "chip": "ym2612"
    },
    {
      "channel": 0,
      "note": 98,
      "start": 56.8912,
      "duration": 0.0309,
      "velocity": 114,
      "chip": "ym2612"
    },
    {
      "channel": 1,
      "note": 62,
      "start": 56.8913,
      "duration": 0.2179,
      "velocity": 93,
      "chip": "ym2612"
    },
    {
      "channel": 3,
      "note": 74,
      "start": 56.8915,
      "duration": 0.1089,
      "velocity": 94,
      "chip": "ym2612"
    },
    {
      "channel": 5,
      "note": 69,
      "start": 56.8917,
      "duration": 0.1089,
      "velocity": 94,
      "chip": "ym2612"
    },
    {
      "channel": 0,
      "note": 98,
      "start": 57.0001,
      "duration": 0.0309,
      "velocity": 114,
      "chip": "ym2612"
    },
    {
      "channel": 5,
      "note": 81,
      "start": 57.0006,
      "duration": 0.109,
      "velocity": 94,
      "chip": "ym2612"
    },
    {
      "channel": 0,
      "note": 98,
      "start": 57.109,
      "duration": 0.0154,
      "velocity": 127,
      "chip": "ym2612"
    },
    {
      "channel": 1,
      "note": 62,
      "start": 57.1092,
      "duration": 0.2179,
      "velocity": 93,
      "chip": "ym2612"
    },
    {
      "channel": 3,
      "note": 76,
      "start": 57.1094,
      "duration": 0.1089,
      "velocity": 94,
      "chip": "ym2612"
    },
    {
      "channel": 5,
      "note": 71,
      "start": 57.1096,
      "duration": 0.1089,
      "velocity": 94,
      "chip": "ym2612"
    },
    {
      "channel": 0,
      "note": 76,
      "start": 57.1244,
      "duration": 0.0936,
      "velocity": 114,
      "chip": "ym2612"
    },
    {
      "channel": 0,
      "note": 68,
      "start": 57.218,
      "duration": 0.0309,
      "velocity": 114,
      "chip": "ym2612"
    },
    {
      "channel": 5,
      "note": 74,
      "start": 57.2185,
      "duration": 0.109,
      "velocity": 94,
      "chip": "ym2612"
    },
    {
      "channel": 0,
      "note": 98,
      "start": 57.3269,
      "duration": 0.0309,
      "velocity": 114,
      "chip": "ym2612"
    },
    {
      "channel": 1,
      "note": 62,
      "start": 57.3271,
      "duration": 0.2179,
      "velocity": 93,
      "chip": "ym2612"
    },
    {
      "channel": 3,
      "note": 78,
      "start": 57.3273,
      "duration": 0.1088,
      "velocity": 94,
      "chip": "ym2612"
    },
    {
      "channel": 0,
      "note": 98,
      "start": 57.4359,
      "duration": 0.0309,
      "velocity": 114,
      "chip": "ym2612"
    },
    {
      "channel": 3,
      "note": 81,
      "start": 57.4361,
      "duration": 0.109,
      "velocity": 94,
      "chip": "ym2612"
    },
    {
      "channel": 5,
      "note": 76,
      "start": 57.4364,
      "duration": 0.1091,
      "velocity": 94,
      "chip": "ym2612"
    },
    {
      "channel": 0,
      "note": 98,
      "start": 57.5449,
      "duration": 0.1089,
      "velocity": 114,
      "chip": "ym2612"
    },
    {
      "channel": 1,
      "note": 62,
      "start": 57.545,
      "duration": 0.2178,
      "velocity": 93,
      "chip": "ym2612"
    },
    {
      "channel": 3,
      "note": 69,
      "start": 57.5452,
      "duration": 0.1089,
      "velocity": 94,
      "chip": "ym2612"
    },
    {
      "channel": 5,
      "note": 78,
      "start": 57.5455,
      "duration": 0.1088,
      "velocity": 94,
      "chip": "ym2612"
    },
    {
      "channel": 0,
      "note": 54,
      "start": 57.6538,
      "duration": 0.0309,
      "velocity": 114,
      "chip": "ym2612"
    },
    {
      "channel": 3,
      "note": 74,
      "start": 57.6541,
      "duration": 0.1089,
      "velocity": 94,
      "chip": "ym2612"
    },
    {
      "channel": 5,
      "note": 81,
      "start": 57.6543,
      "duration": 0.1089,
      "velocity": 94,
      "chip": "ym2612"
    },
    {
      "channel": 0,
      "note": 98,
      "start": 57.7627,
      "duration": 0.0309,
      "velocity": 114,
      "chip": "ym2612"
    },
    {
      "channel": 1,
      "note": 62,
      "start": 57.7628,
      "duration": 0.2179,
      "velocity": 93,
      "chip": "ym2612"
    },
    {
      "channel": 5,
      "note": 69,
      "start": 57.7632,
      "duration": 0.1089,
      "velocity": 94,
      "chip": "ym2612"
    },
    {
      "channel": 0,
      "note": 98,
      "start": 57.8717,
      "duration": 0.0309,
      "velocity": 114,
      "chip": "ym2612"
    },
    {
      "channel": 3,
      "note": 76,
      "start": 57.8719,
      "duration": 0.109,
      "velocity": 94,
      "chip": "ym2612"
    },
    {
      "channel": 5,
      "note": 74,
      "start": 57.8722,
      "duration": 0.109,
      "velocity": 94,
      "chip": "ym2612"
    },
    {
      "channel": 0,
      "note": 98,
      "start": 57.9806,
      "duration": 0.0154,
      "velocity": 127,
      "chip": "ym2612"
    },
    {
      "channel": 1,
      "note": 62,
      "start": 57.9807,
      "duration": 0.2178,
      "velocity": 93,
      "chip": "ym2612"
    },
    {
      "channel": 3,
      "note": 81,
      "start": 57.9809,
      "duration": 0.1089,
      "velocity": 94,
      "chip": "ym2612"
    },
    {
      "channel": 0,
      "note": 76,
      "start": 57.9959,
      "duration": 0.0936,
      "velocity": 114,
      "chip": "ym2612"
    },
    {
      "channel": 0,
      "note": 68,
      "start": 58.0895,
      "duration": 0.0309,
      "velocity": 114,
      "chip": "ym2612"
    },
    {
      "channel": 3,
      "note": 69,
      "start": 58.0898,
      "duration": 0.109,
      "velocity": 94,
      "chip": "ym2612"
    },
    {
      "channel": 5,
      "note": 76,
      "start": 58.09,
      "duration": 0.109,
      "velocity": 94,
      "chip": "ym2612"
    },
    {
      "channel": 0,
      "note": 98,
      "start": 58.1985,
      "duration": 0.0309,
      "velocity": 114,
      "chip": "ym2612"
    },
    {
      "channel": 1,
      "note": 62,
      "start": 58.1986,
      "duration": 0.2179,
      "velocity": 93,
      "chip": "ym2612"
    },
    {
      "channel": 3,
      "note": 81,
      "start": 58.1988,
      "duration": 0.1089,
      "velocity": 94,
      "chip": "ym2612"
    },
    {
      "channel": 5,
      "note": 81,
      "start": 58.199,
      "duration": 0.1089,
      "velocity": 94,
      "chip": "ym2612"
    },
    {
      "channel": 0,
      "note": 98,
      "start": 58.3074,
      "duration": 0.0309,
      "velocity": 114,
      "chip": "ym2612"
    },
    {
      "channel": 3,
      "note": 71,
      "start": 58.3077,
      "duration": 0.109,
      "velocity": 94,
      "chip": "ym2612"
    },
    {
      "channel": 5,
      "note": 69,
      "start": 58.3079,
      "duration": 0.109,
      "velocity": 94,
      "chip": "ym2612"
    },
    {
      "channel": 0,
      "note": 98,
      "start": 58.4164,
      "duration": 0.1089,
      "velocity": 127,
      "chip": "ym2612"
    },
    {
      "channel": 1,
      "note": 62,
      "start": 58.4165,
      "duration": 0.2178,
      "velocity": 93,
      "chip": "ym2612"
    },
    {
      "channel": 3,
      "note": 74,
      "start": 58.4167,
      "duration": 0.1089,
      "velocity": 94,
      "chip": "ym2612"
    },
    {
      "channel": 5,
      "note": 81,
      "start": 58.4169,
      "duration": 0.1088,
      "velocity": 94,
      "chip": "ym2612"
    },
    {
      "channel": 0,
      "note": 54,
      "start": 58.5253,
      "duration": 0.0154,
      "velocity": 127,
      "chip": "ym2612"
    },
    {
      "channel": 5,
      "note": 71,
      "start": 58.5258,
      "duration": 0.109,
      "velocity": 94,
      "chip": "ym2612"
    },
    {
      "channel": 0,
      "note": 76,
      "start": 58.5407,
      "duration": 0.0936,
      "velocity": 114,
      "chip": "ym2612"
    },
    {
      "channel": 0,
      "note": 68,
      "start": 58.6342,
      "duration": 0.0309,
      "velocity": 114,
      "chip": "ym2612"
    },
    {
      "channel": 1,
      "note": 62,
      "start": 58.6344,
      "duration": 0.2179,
      "velocity": 93,
      "chip": "ym2612"
    },
    {
      "channel": 3,
      "note": 76,
      "start": 58.6346,
      "duration": 0.1089,
      "velocity": 94,
      "chip": "ym2612"
    },
    {
      "channel": 5,
      "note": 74,
      "start": 58.6348,
      "duration": 0.1088,
      "velocity": 94,
      "chip": "ym2612"
    },
    {
      "channel": 0,
      "note": 98,
      "start": 58.7432,
      "duration": 0.0309,
      "velocity": 114,
      "chip": "ym2612"
    },
    {
      "channel": 0,
      "note": 98,
      "start": 58.8522,
      "duration": 0.1089,
      "velocity": 114,
      "chip": "ym2612"
    },
    {
      "channel": 1,
      "note": 62,
      "start": 58.8523,
      "duration": 0.2178,
      "velocity": 93,
      "chip": "ym2612"
    },
    {
      "channel": 2,
      "note": 50,
      "start": 58.8524,
      "duration": 3.0504,
      "velocity": 121,
      "chip": "ym2612"
    },
    {
      "channel": 3,
      "note": 78,
      "start": 58.8526,
      "duration": 0.1087,
      "velocity": 94,
      "chip": "ym2612"
    },
    {
      "channel": 5,
      "note": 76,
      "start": 58.8528,
      "duration": 0.1088,
      "velocity": 94,
      "chip": "ym2612"
    },
    {
      "channel": 0,
      "note": 54,
      "start": 58.9611,
      "duration": 0.0309,
      "velocity": 114,
      "chip": "ym2612"
    },
    {
      "channel": 3,
      "note": 81,
      "start": 58.9613,
      "duration": 0.109,
      "velocity": 94,
      "chip": "ym2612"
    },
    {
      "channel": 5,
      "note": 78,
      "start": 58.9616,
      "duration": 0.1089,
      "velocity": 94,
      "chip": "ym2612"
    },
    {
      "channel": 4,
      "note": 50,
      "start": 59.039,
      "duration": 3.0503,
      "velocity": 121,
      "chip": "ym2612"
    },
    {
      "channel": 0,
      "note": 98,
      "start": 59.07,
      "duration": 0.0309,
      "velocity": 114,
      "chip": "ym2612"
    },
    {
      "channel": 1,
      "note": 59,
      "start": 59.0701,
      "duration": 0.2179,
      "velocity": 93,
      "chip": "ym2612"
    },
    {
      "channel": 3,
      "note": 69,
      "start": 59.0703,
      "duration": 0.1089,
      "velocity": 94,
      "chip": "ym2612"
    },
    {
      "channel": 5,
      "note": 81,
      "start": 59.0705,
      "duration": 0.1089,
      "velocity": 94,
      "chip": "ym2612"
    },
    {
      "channel": 0,
      "note": 98,
      "start": 59.179,
      "duration": 0.0309,
      "velocity": 114,
      "chip": "ym2612"
    },
    {
      "channel": 3,
      "note": 74,
      "start": 59.1792,
      "duration": 0.109,
      "velocity": 94,
      "chip": "ym2612"
    },
    {
      "channel": 5,
      "note": 69,
      "start": 59.1794,
      "duration": 0.109,
      "velocity": 94,
      "chip": "ym2612"
    },
    {
      "channel": 0,
      "note": 98,
      "start": 59.2879,
      "duration": 0.0154,
      "velocity": 127,
      "chip": "ym2612"
    },
    {
      "channel": 1,
      "note": 59,
      "start": 59.288,
      "duration": 0.2178,
      "velocity": 93,
      "chip": "ym2612"
    },
    {
      "channel": 5,
      "note": 74,
      "start": 59.2884,
      "duration": 0.1089,
      "velocity": 94,
      "chip": "ym2612"
    },
    {
      "channel": 0,
      "note": 76,
      "start": 59.3032,
      "duration": 0.0936,
      "velocity": 114,
      "chip": "ym2612"
    },
    {
      "channel": 0,
      "note": 68,
      "start": 59.3968,
      "duration": 0.0309,
      "velocity": 114,
      "chip": "ym2612"
    },
    {
      "channel": 3,
      "note": 76,
      "start": 59.3971,
      "duration": 0.109,
      "velocity": 94,
      "chip": "ym2612"
    },
    {
      "channel": 0,
      "note": 98,
      "start": 59.5058,
      "duration": 0.0309,
      "velocity": 114,
      "chip": "ym2612"
    },
    {
      "channel": 1,
      "note": 59,
      "start": 59.5059,
      "duration": 0.2181,
      "velocity": 93,
      "chip": "ym2612"
    },
    {
      "channel": 3,
      "note": 81,
      "start": 59.5061,
      "duration": 0.1089,
      "velocity": 94,
      "chip": "ym2612"
    },
    {
      "channel": 5,
      "note": 76,
      "start": 59.5063,
      "duration": 0.1089,
      "velocity": 94,
      "chip": "ym2612"
    },
    {
      "channel": 0,
      "note": 98,
      "start": 59.6147,
      "duration": 0.0309,
      "velocity": 114,
      "chip": "ym2612"
    },
    {
      "channel": 3,
      "note": 69,
      "start": 59.615,
      "duration": 0.1092,
      "velocity": 94,
      "chip": "ym2612"
    },
    {
      "channel": 5,
      "note": 81,
      "start": 59.6152,
      "duration": 0.1092,
      "velocity": 94,
      "chip": "ym2612"
    },
    {
      "channel": 0,
      "note": 98,
      "start": 59.7239,
      "duration": 0.1087,
      "velocity": 114,
      "chip": "ym2612"
    },
    {
      "channel": 1,
      "note": 59,
      "start": 59.724,
      "duration": 0.2177,
      "velocity": 93,
      "chip": "ym2612"
    },
    {
      "channel": 3,
      "note": 81,
      "start": 59.7242,
      "duration": 0.1087,
      "velocity": 94,
      "chip": "ym2612"
    },
    {
      "channel": 5,
      "note": 69,
      "start": 59.7244,
      "duration": 0.1087,
      "velocity": 94,
      "chip": "ym2612"
    },
    {
      "channel": 0,
      "note": 54,
      "start": 59.8326,
      "duration": 0.0309,
      "velocity": 114,
      "chip": "ym2612"
    },
    {
      "channel": 3,
      "note": 71,
      "start": 59.8329,
      "duration": 0.109,
      "velocity": 94,
      "chip": "ym2612"
    },
    {
      "channel": 5,
      "note": 81,
      "start": 59.8331,
      "duration": 0.109,
      "velocity": 94,
      "chip": "ym2612"
    },
    {
      "channel": 0,
      "note": 98,
      "start": 59.9415,
      "duration": 0.0309,
      "velocity": 114,
      "chip": "ym2612"
    },
    {
      "channel": 1,
      "note": 59,
      "start": 59.9417,
      "duration": 0.2179,
      "velocity": 93,
      "chip": "ym2612"
    },
    {
      "channel": 3,
      "note": 74,
      "start": 59.9419,
      "duration": 0.1089,
      "velocity": 94,
      "chip": "ym2612"
    },
    {
      "channel": 5,
      "note": 71,
      "start": 59.9421,
      "duration": 0.1088,
      "velocity": 94,
      "chip": "ym2612"
    },
    {
      "channel": 0,
      "note": 98,
      "start": 60.0505,
      "duration": 0.0309,
      "velocity": 114,
      "chip": "ym2612"
    },
    {
      "channel": 5,
      "note": 74,
      "start": 60.051,
      "duration": 0.109,
      "velocity": 94,
      "chip": "ym2612"
    },
    {
      "channel": 0,
      "note": 98,
      "start": 60.1594,
      "duration": 0.0153,
      "velocity": 127,
      "chip": "ym2612"
    },
    {
      "channel": 1,
      "note": 59,
      "start": 60.1596,
      "duration": 0.2178,
      "velocity": 93,
      "chip": "ym2612"
    },
    {
      "channel": 3,
      "note": 76,
      "start": 60.1598,
      "duration": 0.1089,
      "velocity": 94,
      "chip": "ym2612"
    },
    {
      "channel": 0,
      "note": 76,
      "start": 60.1748,
      "duration": 0.0936,
      "velocity": 114,
      "chip": "ym2612"
    },
    {
      "channel": 0,
      "note": 68,
      "start": 60.2684,
      "duration": 0.0309,
      "velocity": 114,
      "chip": "ym2612"
    },
    {
      "channel": 5,
      "note": 76,
      "start": 60.2688,
      "duration": 0.1091,
      "velocity": 94,
      "chip": "ym2612"
    },
    {
      "channel": 0,
      "note": 98,
      "start": 60.3773,
      "duration": 0.0309,
      "velocity": 114,
      "chip": "ym2612"
    },
    {
      "channel": 1,
      "note": 59,
      "start": 60.3774,
      "duration": 0.2179,
      "velocity": 93,
      "chip": "ym2612"
    },
    {
      "channel": 3,
      "note": 78,
      "start": 60.3777,
      "duration": 0.1088,
      "velocity": 94,
      "chip": "ym2612"
    },
    {
      "channel": 5,
      "note": 78,
      "start": 60.378,
      "duration": 0.1088,
      "velocity": 94,
      "chip": "ym2612"
    },
    {
      "channel": 0,
      "note": 98,
      "start": 60.4863,
      "duration": 0.0309,
      "velocity": 114,
      "chip": "ym2612"
    },
    {
      "channel": 3,
      "note": 81,
      "start": 60.4865,
      "duration": 0.109,
      "velocity": 94,
      "chip": "ym2612"
    },
    {
      "channel": 5,
      "note": 81,
      "start": 60.4868,
      "duration": 0.109,
      "velocity": 94,
      "chip": "ym2612"
    },
    {
      "channel": 0,
      "note": 98,
      "start": 60.5952,
      "duration": 0.1089,
      "velocity": 114,
      "chip": "ym2612"
    },
    {
      "channel": 1,
      "note": 59,
      "start": 60.5954,
      "duration": 0.2178,
      "velocity": 93,
      "chip": "ym2612"
    },
    {
      "channel": 3,
      "note": 69,
      "start": 60.5955,
      "duration": 0.1089,
      "velocity": 94,
      "chip": "ym2612"
    },
    {
      "channel": 5,
      "note": 69,
      "start": 60.5958,
      "duration": 0.1089,
      "velocity": 94,
      "chip": "ym2612"
    },
    {
      "channel": 0,
      "note": 54,
      "start": 60.7041,
      "duration": 0.0309,
      "velocity": 114,
      "chip": "ym2612"
    },
    {
      "channel": 3,
      "note": 74,
      "start": 60.7044,
      "duration": 0.1089,
      "velocity": 94,
      "chip": "ym2612"
    },
    {
      "channel": 5,
      "note": 74,
      "start": 60.7046,
      "duration": 0.1089,
      "velocity": 94,
      "chip": "ym2612"
    },
    {
      "channel": 0,
      "note": 98,
      "start": 60.8131,
      "duration": 0.0309,
      "velocity": 114,
      "chip": "ym2612"
    },
    {
      "channel": 1,
      "note": 59,
      "start": 60.8132,
      "duration": 0.2179,
      "velocity": 93,
      "chip": "ym2612"
    },
    {
      "channel": 0,
      "note": 98,
      "start": 60.922,
      "duration": 0.0309,
      "velocity": 114,
      "chip": "ym2612"
    },
    {
      "channel": 3,
      "note": 76,
      "start": 60.9223,
      "duration": 0.109,
      "velocity": 94,
      "chip": "ym2612"
    },
    {
      "channel": 5,
      "note": 76,
      "start": 60.9225,
      "duration": 0.109,
      "velocity": 94,
      "chip": "ym2612"
    },
    {
      "channel": 0,
      "note": 98,
      "start": 61.031,
      "duration": 0.0154,
      "velocity": 127,
      "chip": "ym2612"
    },
    {
      "channel": 1,
      "note": 59,
      "start": 61.0311,
      "duration": 0.2179,
      "velocity": 93,
      "chip": "ym2612"
    },
    {
      "channel": 3,
      "note": 81,
      "start": 61.0313,
      "duration": 0.1089,
      "velocity": 94,
      "chip": "ym2612"
    },
    {
      "channel": 5,
      "note": 81,
      "start": 61.0315,
      "duration": 0.1091,
      "velocity": 94,
      "chip": "ym2612"
    },
    {
      "channel": 0,
      "note": 76,
      "start": 61.0463,
      "duration": 0.0936,
      "velocity": 114,
      "chip": "ym2612"
    },
    {
      "channel": 0,
      "note": 68,
      "start": 61.1399,
      "duration": 0.0309,
      "velocity": 114,
      "chip": "ym2612"
    },
    {
      "channel": 3,
      "note": 69,
      "start": 61.1402,
      "duration": 0.109,
      "velocity": 94,
      "chip": "ym2612"
    },
    {
      "channel": 5,
      "note": 69,
      "start": 61.1406,
      "duration": 0.1088,
      "velocity": 94,
      "chip": "ym2612"
    },
    {
      "channel": 0,
      "note": 98,
      "start": 61.2488,
      "duration": 0.0309,
      "velocity": 114,
      "chip": "ym2612"
    },
    {
      "channel": 1,
      "note": 59,
      "start": 61.249,
      "duration": 0.2179,
      "velocity": 93,
      "chip": "ym2612"
    },
    {
      "channel": 3,
      "note": 81,
      "start": 61.2492,
      "duration": 0.1089,
      "velocity": 94,
      "chip": "ym2612"
    },
    {
      "channel": 5,
      "note": 81,
      "start": 61.2494,
      "duration": 0.1089,
      "velocity": 94,
      "chip": "ym2612"
    },
    {
      "channel": 0,
      "note": 98,
      "start": 61.3578,
      "duration": 0.0309,
      "velocity": 114,
      "chip": "ym2612"
    },
    {
      "channel": 3,
      "note": 71,
      "start": 61.358,
      "duration": 0.109,
      "velocity": 94,
      "chip": "ym2612"
    },
    {
      "channel": 5,
      "note": 71,
      "start": 61.3583,
      "duration": 0.109,
      "velocity": 94,
      "chip": "ym2612"
    },
    {
      "channel": 0,
      "note": 98,
      "start": 61.4667,
      "duration": 0.1089,
      "velocity": 127,
      "chip": "ym2612"
    },
    {
      "channel": 1,
      "note": 59,
      "start": 61.4669,
      "duration": 0.2178,
      "velocity": 93,
      "chip": "ym2612"
    },
    {
      "channel": 3,
      "note": 74,
      "start": 61.4671,
      "duration": 0.1089,
      "velocity": 94,
      "chip": "ym2612"
    },
    {
      "channel": 5,
      "note": 74,
      "start": 61.4673,
      "duration": 0.1088,
      "velocity": 94,
      "chip": "ym2612"
    },
    {
      "channel": 0,
      "note": 54,
      "start": 61.5757,
      "duration": 0.0154,
      "velocity": 127,
      "chip": "ym2612"
    },
    {
      "channel": 0,
      "note": 76,
      "start": 61.591,
      "duration": 0.0936,
      "velocity": 114,
      "chip": "ym2612"
    },
    {
      "channel": 0,
      "note": 68,
      "start": 61.6846,
      "duration": 0.0309,
      "velocity": 114,
      "chip": "ym2612"
    },
    {
      "channel": 1,
      "note": 59,
      "start": 61.6847,
      "duration": 0.2179,
      "velocity": 93,
      "chip": "ym2612"
    },
    {
      "channel": 3,
      "note": 76,
      "start": 61.6849,
      "duration": 0.1089,
      "velocity": 94,
      "chip": "ym2612"
    },
    {
      "channel": 5,
      "note": 76,
      "start": 61.6851,
      "duration": 0.1089,
      "velocity": 94,
      "chip": "ym2612"
    },
    {
      "channel": 0,
      "note": 98,
      "start": 61.7936,
      "duration": 0.0309,
      "velocity": 114,
      "chip": "ym2612"
    },
    {
      "channel": 5,
      "note": 78,
      "start": 61.7941,
      "duration": 0.1091,
      "velocity": 94,
      "chip": "ym2612"
    },
    {
      "channel": 0,
      "note": 98,
      "start": 61.9025,
      "duration": 0.1089,
      "velocity": 114,
      "chip": "ym2612"
    },
    {
      "channel": 1,
      "note": 59,
      "start": 61.9027,
      "duration": 0.2178,
      "velocity": 93,
      "chip": "ym2612"
    },
    {
      "channel": 2,
      "note": 47,
      "start": 61.9028,
      "duration": 3.0504,
      "velocity": 121,
      "chip": "ym2612"
    },
    {
      "channel": 3,
      "note": 78,
      "start": 61.9029,
      "duration": 0.1087,
      "velocity": 94,
      "chip": "ym2612"
    },
    {
      "channel": 5,
      "note": 81,
      "start": 61.9032,
      "duration": 0.1087,
      "velocity": 94,
      "chip": "ym2612"
    },
    {
      "channel": 0,
      "note": 54,
      "start": 62.0114,
      "duration": 0.0309,
      "velocity": 114,
      "chip": "ym2612"
    },
    {
      "channel": 3,
      "note": 81,
      "start": 62.0117,
      "duration": 0.109,
      "velocity": 94,
      "chip": "ym2612"
    },
    {
      "channel": 5,
      "note": 69,
      "start": 62.0119,
      "duration": 0.109,
      "velocity": 94,
      "chip": "ym2612"
    },
    {
      "channel": 4,
      "note": 47,
      "start": 62.0894,
      "duration": 3.0504,
      "velocity": 121,
      "chip": "ym2612"
    },
    {
      "channel": 0,
      "note": 98,
      "start": 62.1204,
      "duration": 0.0309,
      "velocity": 114,
      "chip": "ym2612"
    },
    {
      "channel": 1,
      "note": 55,
      "start": 62.1205,
      "duration": 0.2179,
      "velocity": 93,
      "chip": "ym2612"
    },
    {
      "channel": 3,
      "note": 69,
      "start": 62.1207,
      "duration": 0.1089,
      "velocity": 94,
      "chip": "ym2612"
    },
    {
      "channel": 5,
      "note": 74,
      "start": 62.1209,
      "duration": 0.1089,
      "velocity": 94,
      "chip": "ym2612"
    },
    {
      "channel": 0,
      "note": 98,
      "start": 62.2293,
      "duration": 0.0309,
      "velocity": 114,
      "chip": "ym2612"
    },
    {
      "channel": 3,
      "note": 74,
      "start": 62.2296,
      "duration": 0.109,
      "velocity": 94,
      "chip": "ym2612"
    },
    {
      "channel": 0,
      "note": 98,
      "start": 62.3383,
      "duration": 0.0154,
      "velocity": 127,
      "chip": "ym2612"
    },
    {
      "channel": 1,
      "note": 55,
      "start": 62.3384,
      "duration": 0.2179,
      "velocity": 93,
      "chip": "ym2612"
    },
    {
      "channel": 5,
      "note": 76,
      "start": 62.3388,
      "duration": 0.1089,
      "velocity": 94,
      "chip": "ym2612"
    },
    {
      "channel": 0,
      "note": 76,
      "start": 62.3536,
      "duration": 0.0936,
      "velocity": 114,
      "chip": "ym2612"
    },
    {
      "channel": 0,
      "note": 68,
      "start": 62.4472,
      "duration": 0.0309,
      "velocity": 114,
      "chip": "ym2612"
    },
    {
      "channel": 3,
      "note": 76,
      "start": 62.4475,
      "duration": 0.109,
      "velocity": 94,
      "chip": "ym2612"
    },
    {
      "channel": 5,
      "note": 81,
      "start": 62.4477,
      "duration": 0.109,
      "velocity": 94,
      "chip": "ym2612"
    },
    {
      "channel": 0,
      "note": 98,
      "start": 62.5561,
      "duration": 0.0309,
      "velocity": 114,
      "chip": "ym2612"
    },
    {
      "channel": 1,
      "note": 55,
      "start": 62.5563,
      "duration": 0.218,
      "velocity": 93,
      "chip": "ym2612"
    },
    {
      "channel": 3,
      "note": 81,
      "start": 62.5565,
      "duration": 0.1089,
      "velocity": 94,
      "chip": "ym2612"
    },
    {
      "channel": 5,
      "note": 69,
      "start": 62.5567,
      "duration": 0.1089,
      "velocity": 94,
      "chip": "ym2612"
    },
    {
      "channel": 0,
      "note": 98,
      "start": 62.6651,
      "duration": 0.0309,
      "velocity": 114,
      "chip": "ym2612"
    },
    {
      "channel": 3,
      "note": 69,
      "start": 62.6654,
      "duration": 0.1091,
      "velocity": 94,
      "chip": "ym2612"
    },
    {
      "channel": 5,
      "note": 81,
      "start": 62.6656,
      "duration": 0.109,
      "velocity": 94,
      "chip": "ym2612"
    },
    {
      "channel": 0,
      "note": 98,
      "start": 62.7741,
      "duration": 0.1089,
      "velocity": 114,
      "chip": "ym2612"
    },
    {
      "channel": 1,
      "note": 55,
      "start": 62.7742,
      "duration": 0.2178,
      "velocity": 93,
      "chip": "ym2612"
    },
    {
      "channel": 3,
      "note": 81,
      "start": 62.7744,
      "duration": 0.1088,
      "velocity": 94,
      "chip": "ym2612"
    },
    {
      "channel": 5,
      "note": 71,
      "start": 62.7747,
      "duration": 0.1088,
      "velocity": 94,
      "chip": "ym2612"
    },
    {
      "channel": 0,
      "note": 54,
      "start": 62.883,
      "duration": 0.0309,
      "velocity": 114,
      "chip": "ym2612"
    },
    {
      "channel": 3,
      "note": 71,
      "start": 62.8832,
      "duration": 0.109,
      "velocity": 94,
      "chip": "ym2612"
    },
    {
      "channel": 5,
      "note": 74,
      "start": 62.8835,
      "duration": 0.109,
      "velocity": 94,
      "chip": "ym2612"
    },
    {
      "channel": 0,
      "note": 98,
      "start": 62.9919,
      "duration": 0.0309,
      "velocity": 114,
      "chip": "ym2612"
    },
    {
      "channel": 1,
      "note": 55,
      "start": 62.992,
      "duration": 0.2179,
      "velocity": 93,
      "chip": "ym2612"
    },
    {
      "channel": 3,
      "note": 74,
      "start": 62.9922,
      "duration": 0.1089,
      "velocity": 94,
      "chip": "ym2612"
    },
    {
      "channel": 0,
      "note": 98,
      "start": 63.1009,
      "duration": 0.0309,
      "velocity": 114,
      "chip": "ym2612"
    },
    {
      "channel": 5,
      "note": 76,
      "start": 63.1013,
      "duration": 0.1091,
      "velocity": 94,
      "chip": "ym2612"
    },
    {
      "channel": 0,
      "note": 98,
      "start": 63.2098,
      "duration": 0.0154,
      "velocity": 127,
      "chip": "ym2612"
    },
    {
      "channel": 1,
      "note": 55,
      "start": 63.2099,
      "duration": 0.2178,
      "velocity": 93,
      "chip": "ym2612"
    },
    {
      "channel": 3,
      "note": 76,
      "start": 63.2101,
      "duration": 0.1089,
      "velocity": 94,
      "chip": "ym2612"
    },
    {
      "channel": 5,
      "note": 78,
      "start": 63.2104,
      "duration": 0.1088,
      "velocity": 94,
      "chip": "ym2612"
    },
    {
      "channel": 0,
      "note": 76,
      "start": 63.2251,
      "duration": 0.0936,
      "velocity": 114,
      "chip": "ym2612"
    },
    {
      "channel": 0,
      "note": 68,
      "start": 63.3187,
      "duration": 0.0309,
      "velocity": 114,
      "chip": "ym2612"
    },
    {
      "channel": 5,
      "note": 81,
      "start": 63.3192,
      "duration": 0.109,
      "velocity": 94,
      "chip": "ym2612"
    },
    {
      "channel": 0,
      "note": 98,
      "start": 63.4277,
      "duration": 0.0309,
      "velocity": 114,
      "chip": "ym2612"
    },
    {
      "channel": 1,
      "note": 55,
      "start": 63.4278,
      "duration": 0.2179,
      "velocity": 93,
      "chip": "ym2612"
    },
    {
      "channel": 3,
      "note": 78,
      "start": 63.428,
      "duration": 0.1088,
      "velocity": 94,
      "chip": "ym2612"
    },
    {
      "channel": 5,
      "note": 69,
      "start": 63.4283,
      "duration": 0.1088,
      "velocity": 94,
      "chip": "ym2612"
    },
    {
      "channel": 0,
      "note": 98,
      "start": 63.5366,
      "duration": 0.0309,
      "velocity": 114,
      "chip": "ym2612"
    },
    {
      "channel": 3,
      "note": 81,
      "start": 63.5369,
      "duration": 0.109,
      "velocity": 94,
      "chip": "ym2612"
    },
    {
      "channel": 5,
      "note": 74,
      "start": 63.5371,
      "duration": 0.109,
      "velocity": 94,
      "chip": "ym2612"
    },
    {
      "channel": 0,
      "note": 98,
      "start": 63.6456,
      "duration": 0.1089,
      "velocity": 114,
      "chip": "ym2612"
    },
    {
      "channel": 1,
      "note": 55,
      "start": 63.6457,
      "duration": 0.2178,
      "velocity": 93,
      "chip": "ym2612"
    },
    {
      "channel": 3,
      "note": 69,
      "start": 63.6459,
      "duration": 0.1089,
      "velocity": 94,
      "chip": "ym2612"
    },
    {
      "channel": 0,
      "note": 54,
      "start": 63.7545,
      "duration": 0.0309,
      "velocity": 114,
      "chip": "ym2612"
    },
    {
      "channel": 3,
      "note": 74,
      "start": 63.7548,
      "duration": 0.109,
      "velocity": 94,
      "chip": "ym2612"
    },
    {
      "channel": 5,
      "note": 76,
      "start": 63.755,
      "duration": 0.109,
      "velocity": 94,
      "chip": "ym2612"
    },
    {
      "channel": 0,
      "note": 98,
      "start": 63.8634,
      "duration": 0.0309,
      "velocity": 114,
      "chip": "ym2612"
    },
    {
      "channel": 1,
      "note": 55,
      "start": 63.8636,
      "duration": 0.2179,
      "velocity": 93,
      "chip": "ym2612"
    },
    {
      "channel": 5,
      "note": 81,
      "start": 63.864,
      "duration": 0.1089,
      "velocity": 94,
      "chip": "ym2612"
    },
    {
      "channel": 0,
      "note": 98,
      "start": 63.9724,
      "duration": 0.0309,
      "velocity": 114,
      "chip": "ym2612"
    },
    {
      "channel": 3,
      "note": 76,
      "start": 63.9726,
      "duration": 0.109,
      "velocity": 94,
      "chip": "ym2612"
    },
    {
      "channel": 5,
      "note": 69,
      "start": 63.9729,
      "duration": 0.109,
      "velocity": 94,
      "chip": "ym2612"
    },
    {
      "channel": 0,
      "note": 98,
      "start": 64.0813,
      "duration": 0.0154,
      "velocity": 127,
      "chip": "ym2612"
    },
    {
      "channel": 1,
      "note": 55,
      "start": 64.0815,
      "duration": 0.2179,
      "velocity": 93,
      "chip": "ym2612"
    },
    {
      "channel": 3,
      "note": 81,
      "start": 64.0817,
      "duration": 0.1091,
      "velocity": 94,
      "chip": "ym2612"
    },
    {
      "channel": 5,
      "note": 81,
      "start": 64.0819,
      "duration": 0.109,
      "velocity": 94,
      "chip": "ym2612"
    },
    {
      "channel": 0,
      "note": 76,
      "start": 64.0967,
      "duration": 0.0937,
      "velocity": 114,
      "chip": "ym2612"
    },
    {
      "channel": 0,
      "note": 68,
      "start": 64.1904,
      "duration": 0.0307,
      "velocity": 114,
      "chip": "ym2612"
    },
    {
      "channel": 3,
      "note": 69,
      "start": 64.1907,
      "duration": 0.1088,
      "velocity": 94,
      "chip": "ym2612"
    },
    {
      "channel": 5,
      "note": 71,
      "start": 64.191,
      "duration": 0.1088,
      "velocity": 94,
      "chip": "ym2612"
    },
    {
      "channel": 0,
      "note": 98,
      "start": 64.2992,
      "duration": 0.0309,
      "velocity": 114,
      "chip": "ym2612"
    },
    {
      "channel": 1,
      "note": 55,
      "start": 64.2993,
      "duration": 0.2179,
      "velocity": 93,
      "chip": "ym2612"
    },
    {
      "channel": 3,
      "note": 81,
      "start": 64.2995,
      "duration": 0.1089,
      "velocity": 94,
      "chip": "ym2612"
    },
    {
      "channel": 5,
      "note": 74,
      "start": 64.2998,
      "duration": 0.1089,
      "velocity": 94,
      "chip": "ym2612"
    },
    {
      "channel": 0,
      "note": 98,
      "start": 64.4082,
      "duration": 0.0309,
      "velocity": 114,
      "chip": "ym2612"
    },
    {
      "channel": 3,
      "note": 71,
      "start": 64.4084,
      "duration": 0.109,
      "velocity": 94,
      "chip": "ym2612"
    },
    {
      "channel": 0,
      "note": 98,
      "start": 64.5171,
      "duration": 0.1089,
      "velocity": 127,
      "chip": "ym2612"
    },
    {
      "channel": 1,
      "note": 55,
      "start": 64.5172,
      "duration": 0.2179,
      "velocity": 93,
      "chip": "ym2612"
    },
    {
      "channel": 3,
      "note": 74,
      "start": 64.5174,
      "duration": 0.1089,
      "velocity": 94,
      "chip": "ym2612"
    },
    {
      "channel": 5,
      "note": 76,
      "start": 64.5177,
      "duration": 0.1089,
      "velocity": 94,
      "chip": "ym2612"
    },
    {
      "channel": 0,
      "note": 54,
      "start": 64.626,
      "duration": 0.0154,
      "velocity": 127,
      "chip": "ym2612"
    },
    {
      "channel": 5,
      "note": 78,
      "start": 64.6266,
      "duration": 0.109,
      "velocity": 94,
      "chip": "ym2612"
    },
    {
      "channel": 0,
      "note": 76,
      "start": 64.6414,
      "duration": 0.0936,
      "velocity": 114,
      "chip": "ym2612"
    },
    {
      "channel": 0,
      "note": 68,
      "start": 64.735,
      "duration": 0.0309,
      "velocity": 114,
      "chip": "ym2612"
    },
    {
      "channel": 1,
      "note": 55,
      "start": 64.7351,
      "duration": 0.2179,
      "velocity": 93,
      "chip": "ym2612"
    },
    {
      "channel": 3,
      "note": 76,
      "start": 64.7353,
      "duration": 0.1089,
      "velocity": 94,
      "chip": "ym2612"
    },
    {
      "channel": 5,
      "note": 81,
      "start": 64.7356,
      "duration": 0.1088,
      "velocity": 94,
      "chip": "ym2612"
    },
    {
      "channel": 0,
      "note": 98,
      "start": 64.8439,
      "duration": 0.0309,
      "velocity": 114,
      "chip": "ym2612"
    },
    {
      "channel": 5,
      "note": 69,
      "start": 64.8444,
      "duration": 0.1091,
      "velocity": 94,
      "chip": "ym2612"
    },
    {
      "channel": 0,
      "note": 98,
      "start": 64.9529,
      "duration": 0.1089,
      "velocity": 114,
      "chip": "ym2612"
    },
    {
      "channel": 1,
      "note": 56,
      "start": 64.953,
      "duration": 0.2178,
      "velocity": 93,
      "chip": "ym2612"
    },
    {
      "channel": 2,
      "note": 43,
      "start": 64.9532,
      "duration": 3.0503,
      "velocity": 121,
      "chip": "ym2612"
    },
    {
      "channel": 3,
      "note": 78,
      "start": 64.9533,
      "duration": 0.1088,
      "velocity": 94,
      "chip": "ym2612"
    },
    {
      "channel": 5,
      "note": 74,
      "start": 64.9536,
      "duration": 0.1087,
      "velocity": 94,
      "chip": "ym2612"
    },
    {
      "channel": 0,
      "note": 54,
      "start": 65.0618,
      "duration": 0.0309,
      "velocity": 114,
      "chip": "ym2612"
    },
    {
      "channel": 3,
      "note": 81,
      "start": 65.0621,
      "duration": 0.109,
      "velocity": 94,
      "chip": "ym2612"
    },
    {
      "channel": 4,
      "note": 43,
      "start": 65.1397,
      "duration": 3.0504,
      "velocity": 121,
      "chip": "ym2612"
    },
    {
      "channel": 0,
      "note": 98,
      "start": 65.1707,
      "duration": 0.0309,
      "velocity": 114,
      "chip": "ym2612"
    },
    {
      "channel": 1,
      "note": 64,
      "start": 65.1709,
      "duration": 0.2179,
      "velocity": 93,
      "chip": "ym2612"
    },
    {
      "channel": 3,
      "note": 69,
      "start": 65.171,
      "duration": 0.1089,
      "velocity": 94,
      "chip": "ym2612"
    },
    {
      "channel": 5,
      "note": 76,
      "start": 65.1713,
      "duration": 0.1089,
      "velocity": 94,
      "chip": "ym2612"
    },
    {
      "channel": 0,
      "note": 98,
      "start": 65.2797,
      "duration": 0.0309,
      "velocity": 114,
      "chip": "ym2612"
    },
    {
      "channel": 3,
      "note": 74,
      "start": 65.28,
      "duration": 0.109,
      "velocity": 94,
      "chip": "ym2612"
    },
    {
      "channel": 5,
      "note": 81,
      "start": 65.2802,
      "duration": 0.109,
      "velocity": 94,
      "chip": "ym2612"
    },
    {
      "channel": 0,
      "note": 98,
      "start": 65.3886,
      "duration": 0.0154,
      "velocity": 127,
      "chip": "ym2612"
    },
    {
      "channel": 1,
      "note": 64,
      "start": 65.3888,
      "duration": 0.2179,
      "velocity": 93,
      "chip": "ym2612"
    },
    {
      "channel": 5,
      "note": 69,
      "start": 65.3892,
      "duration": 0.1089,
      "velocity": 94,
      "chip": "ym2612"
    },
    {
      "channel": 0,
      "note": 76,
      "start": 65.404,
      "duration": 0.0936,
      "velocity": 114,
      "chip": "ym2612"
    },
    {
      "channel": 0,
      "note": 68,
      "start": 65.4976,
      "duration": 0.0309,
      "velocity": 114,
      "chip": "ym2612"
    },
    {
      "channel": 3,
      "note": 76,
      "start": 65.4978,
      "duration": 0.109,
      "velocity": 94,
      "chip": "ym2612"
    },
    {
      "channel": 5,
      "note": 81,
      "start": 65.4981,
      "duration": 0.1092,
      "velocity": 94,
      "chip": "ym2612"
    },
    {
      "channel": 0,
      "note": 98,
      "start": 65.6065,
      "duration": 0.0309,
      "velocity": 114,
      "chip": "ym2612"
    },
    {
      "channel": 1,
      "note": 64,
      "start": 65.6066,
      "duration": 0.2179,
      "velocity": 93,
      "chip": "ym2612"
    },
    {
      "channel": 3,
      "note": 81,
      "start": 65.6068,
      "duration": 0.1089,
      "velocity": 94,
      "chip": "ym2612"
    },
    {
      "channel": 5,
      "note": 71,
      "start": 65.6072,
      "duration": 0.1087,
      "velocity": 94,
      "chip": "ym2612"
    },
    {
      "channel": 0,
      "note": 98,
      "start": 65.7155,
      "duration": 0.0309,
      "velocity": 114,
      "chip": "ym2612"
    },
    {
      "channel": 3,
      "note": 69,
      "start": 65.7157,
      "duration": 0.109,
      "velocity": 94,
      "chip": "ym2612"
    },
    {
      "channel": 5,
      "note": 74,
      "start": 65.716,
      "duration": 0.109,
      "velocity": 94,
      "chip": "ym2612"
    },
    {
      "channel": 0,
      "note": 98,
      "start": 65.8244,
      "duration": 0.1089,
      "velocity": 114,
      "chip": "ym2612"
    },
    {
      "channel": 1,
      "note": 64,
      "start": 65.8245,
      "duration": 0.2178,
      "velocity": 93,
      "chip": "ym2612"
    },
    {
      "channel": 3,
      "note": 81,
      "start": 65.8247,
      "duration": 0.1089,
      "velocity": 94,
      "chip": "ym2612"
    },
    {
      "channel": 0,
      "note": 54,
      "start": 65.9333,
      "duration": 0.0309,
      "velocity": 114,
      "chip": "ym2612"
    },
    {
      "channel": 3,
      "note": 71,
      "start": 65.9336,
      "duration": 0.109,
      "velocity": 94,
      "chip": "ym2612"
    },
    {
      "channel": 5,
      "note": 76,
      "start": 65.9339,
      "duration": 0.109,
      "velocity": 94,
      "chip": "ym2612"
    },
    {
      "channel": 0,
      "note": 98,
      "start": 66.0423,
      "duration": 0.0309,
      "velocity": 114,
      "chip": "ym2612"
    },
    {
      "channel": 1,
      "note": 64,
      "start": 66.0424,
      "duration": 0.2179,
      "velocity": 93,
      "chip": "ym2612"
    },
    {
      "channel": 3,
      "note": 74,
      "start": 66.0426,
      "duration": 0.1089,
      "velocity": 94,
      "chip": "ym2612"
    },
    {
      "channel": 5,
      "note": 78,
      "start": 66.0429,
      "duration": 0.1088,
      "velocity": 94,
      "chip": "ym2612"
    },
    {
      "channel": 0,
      "note": 98,
      "start": 66.1512,
      "duration": 0.0309,
      "velocity": 114,
      "chip": "ym2612"
    },
    {
      "channel": 5,
      "note": 81,
      "start": 66.1517,
      "duration": 0.109,
      "velocity": 94,
      "chip": "ym2612"
    },
    {
      "channel": 0,
      "note": 98,
      "start": 66.2602,
      "duration": 0.0154,
      "velocity": 127,
      "chip": "ym2612"
    },
    {
      "channel": 1,
      "note": 64,
      "start": 66.2603,
      "duration": 0.2178,
      "velocity": 93,
      "chip": "ym2612"
    },
    {
      "channel": 3,
      "note": 76,
      "start": 66.2605,
      "duration": 0.1089,
      "velocity": 94,
      "chip": "ym2612"
    },
    {
      "channel": 5,
      "note": 69,
      "start": 66.2607,
      "duration": 0.1089,
      "velocity": 94,
      "chip": "ym2612"
    },
    {
      "channel": 0,
      "note": 76,
      "start": 66.2755,
      "duration": 0.0936,
      "velocity": 114,
      "chip": "ym2612"
    },
    {
      "channel": 0,
      "note": 68,
      "start": 66.3691,
      "duration": 0.0309,
      "velocity": 114,
      "chip": "ym2612"
    },
    {
      "channel": 5,
      "note": 74,
      "start": 66.3696,
      "duration": 0.109,
      "velocity": 94,
      "chip": "ym2612"
    },
    {
      "channel": 0,
      "note": 98,
      "start": 66.478,
      "duration": 0.0309,
      "velocity": 114,
      "chip": "ym2612"
    },
    {
      "channel": 1,
      "note": 64,
      "start": 66.4782,
      "duration": 0.2179,
      "velocity": 93,
      "chip": "ym2612"
    },
    {
      "channel": 3,
      "note": 78,
      "start": 66.4784,
      "duration": 0.1088,
      "velocity": 94,
      "chip": "ym2612"
    },
    {
      "channel": 0,
      "note": 98,
      "start": 66.587,
      "duration": 0.0309,
      "velocity": 114,
      "chip": "ym2612"
    },
    {
      "channel": 3,
      "note": 81,
      "start": 66.5873,
      "duration": 0.109,
      "velocity": 94,
      "chip": "ym2612"
    },
    {
      "channel": 5,
      "note": 76,
      "start": 66.5875,
      "duration": 0.109,
      "velocity": 94,
      "chip": "ym2612"
    },
    {
      "channel": 0,
      "note": 98,
      "start": 66.6959,
      "duration": 0.1089,
      "velocity": 114,
      "chip": "ym2612"
    },
    {
      "channel": 1,
      "note": 64,
      "start": 66.6961,
      "duration": 0.2178,
      "velocity": 93,
      "chip": "ym2612"
    },
    {
      "channel": 3,
      "note": 69,
      "start": 66.6963,
      "duration": 0.1089,
      "velocity": 94,
      "chip": "ym2612"
    },
    {
      "channel": 5,
      "note": 81,
      "start": 66.6965,
      "duration": 0.1089,
      "velocity": 94,
      "chip": "ym2612"
    },
    {
      "channel": 0,
      "note": 54,
      "start": 66.8049,
      "duration": 0.0309,
      "velocity": 114,
      "chip": "ym2612"
    },
    {
      "channel": 3,
      "note": 74,
      "start": 66.8051,
      "duration": 0.109,
      "velocity": 94,
      "chip": "ym2612"
    },
    {
      "channel": 5,
      "note": 69,
      "start": 66.8054,
      "duration": 0.1089,
      "velocity": 94,
      "chip": "ym2612"
    },
    {
      "channel": 0,
      "note": 98,
      "start": 66.9138,
      "duration": 0.0309,
      "velocity": 114,
      "chip": "ym2612"
    },
    {
      "channel": 1,
      "note": 64,
      "start": 66.9139,
      "duration": 0.2179,
      "velocity": 93,
      "chip": "ym2612"
    },
    {
      "channel": 5,
      "note": 81,
      "start": 66.9143,
      "duration": 0.1089,
      "velocity": 94,
      "chip": "ym2612"
    },
    {
      "channel": 0,
      "note": 98,
      "start": 67.0227,
      "duration": 0.0309,
      "velocity": 114,
      "chip": "ym2612"
    },
    {
      "channel": 3,
      "note": 76,
      "start": 67.023,
      "duration": 0.109,
      "velocity": 94,
      "chip": "ym2612"
    },
    {
      "channel": 5,
      "note": 71,
      "start": 67.0232,
      "duration": 0.109,
      "velocity": 94,
      "chip": "ym2612"
    },
    {
      "channel": 0,
      "note": 98,
      "start": 67.1317,
      "duration": 0.0153,
      "velocity": 127,
      "chip": "ym2612"
    },
    {
      "channel": 1,
      "note": 64,
      "start": 67.1318,
      "duration": 0.2178,
      "velocity": 93,
      "chip": "ym2612"
    },
    {
      "channel": 3,
      "note": 81,
      "start": 67.132,
      "duration": 0.109,
      "velocity": 94,
      "chip": "ym2612"
    },
    {
      "channel": 5,
      "note": 74,
      "start": 67.1323,
      "duration": 0.109,
      "velocity": 94,
      "chip": "ym2612"
    },
    {
      "channel": 0,
      "note": 76,
      "start": 67.1471,
      "duration": 0.0937,
      "velocity": 114,
      "chip": "ym2612"
    },
    {
      "channel": 0,
      "note": 68,
      "start": 67.2407,
      "duration": 0.0308,
      "velocity": 114,
      "chip": "ym2612"
    },
    {
      "channel": 3,
      "note": 69,
      "start": 67.241,
      "duration": 0.1089,
      "velocity": 94,
      "chip": "ym2612"
    },
    {
      "channel": 0,
      "note": 98,
      "start": 67.3496,
      "duration": 0.0309,
      "velocity": 114,
      "chip": "ym2612"
    },
    {
      "channel": 1,
      "note": 64,
      "start": 67.3497,
      "duration": 0.2179,
      "velocity": 93,
      "chip": "ym2612"
    },
    {
      "channel": 3,
      "note": 81,
      "start": 67.3499,
      "duration": 0.1089,
      "velocity": 94,
      "chip": "ym2612"
    },
    {
      "channel": 5,
      "note": 76,
      "start": 67.3501,
      "duration": 0.109,
      "velocity": 94,
      "chip": "ym2612"
    },
    {
      "channel": 0,
      "note": 98,
      "start": 67.4585,
      "duration": 0.0309,
      "velocity": 114,
      "chip": "ym2612"
    },
    {
      "channel": 3,
      "note": 71,
      "start": 67.4588,
      "duration": 0.109,
      "velocity": 94,
      "chip": "ym2612"
    },
    {
      "channel": 5,
      "note": 78,
      "start": 67.4591,
      "duration": 0.109,
      "velocity": 94,
      "chip": "ym2612"
    },
    {
      "channel": 0,
      "note": 98,
      "start": 67.5675,
      "duration": 0.1089,
      "velocity": 127,
      "chip": "ym2612"
    },
    {
      "channel": 1,
      "note": 64,
      "start": 67.5676,
      "duration": 0.2178,
      "velocity": 93,
      "chip": "ym2612"
    },
    {
      "channel": 3,
      "note": 74,
      "start": 67.5678,
      "duration": 0.1089,
      "velocity": 94,
      "chip": "ym2612"
    },
    {
      "channel": 5,
      "note": 81,
      "start": 67.568,
      "duration": 0.1088,
      "velocity": 94,
      "chip": "ym2612"
    },
    {
      "channel": 0,
      "note": 54,
      "start": 67.6764,
      "duration": 0.0154,
      "velocity": 127,
      "chip": "ym2612"
    },
    {
      "channel": 5,
      "note": 69,
      "start": 67.6769,
      "duration": 0.109,
      "velocity": 94,
      "chip": "ym2612"
    },
    {
      "channel": 0,
      "note": 76,
      "start": 67.6918,
      "duration": 0.0936,
      "velocity": 114,
      "chip": "ym2612"
    },
    {
      "channel": 0,
      "note": 68,
      "start": 67.7854,
      "duration": 0.0309,
      "velocity": 114,
      "chip": "ym2612"
    },
    {
      "channel": 1,
      "note": 64,
      "start": 67.7855,
      "duration": 0.2179,
      "velocity": 93,
      "chip": "ym2612"
    },
    {
      "channel": 3,
      "note": 76,
      "start": 67.7856,
      "duration": 0.1089,
      "velocity": 94,
      "chip": "ym2612"
    },
    {
      "channel": 5,
      "note": 74,
      "start": 67.7859,
      "duration": 0.1088,
      "velocity": 94,
      "chip": "ym2612"
    },
    {
      "channel": 0,
      "note": 98,
      "start": 67.8943,
      "duration": 0.0309,
      "velocity": 114,
      "chip": "ym2612"
    },
    {
      "channel": 0,
      "note": 98,
      "start": 68.0032,
      "duration": 0.1089,
      "velocity": 114,
      "chip": "ym2612"
    },
    {
      "channel": 1,
      "note": 64,
      "start": 68.0034,
      "duration": 0.2178,
      "velocity": 93,
      "chip": "ym2612"
    },
    {
      "channel": 2,
      "note": 52,
      "start": 68.0035,
      "duration": 3.0504,
      "velocity": 121,
      "chip": "ym2612"
    },
    {
      "channel": 3,
      "note": 78,
      "start": 68.0037,
      "duration": 0.1088,
      "velocity": 94,
      "chip": "ym2612"
    },
    {
      "channel": 5,
      "note": 76,
      "start": 68.0039,
      "duration": 0.1087,
      "velocity": 94,
      "chip": "ym2612"
    },
    {
      "channel": 0,
      "note": 54,
      "start": 68.1122,
      "duration": 0.0309,
      "velocity": 114,
      "chip": "ym2612"
    },
    {
      "channel": 3,
      "note": 81,
      "start": 68.1124,
      "duration": 0.109,
      "velocity": 94,
      "chip": "ym2612"
    },
    {
      "channel": 5,
      "note": 81,
      "start": 68.1127,
      "duration": 0.109,
      "velocity": 94,
      "chip": "ym2612"
    },
    {
      "channel": 4,
      "note": 52,
      "start": 68.1901,
      "duration": 3.0505,
      "velocity": 121,
      "chip": "ym2612"
    },
    {
      "channel": 0,
      "note": 98,
      "start": 68.2211,
      "duration": 0.0309,
      "velocity": 114,
      "chip": "ym2612"
    },
    {
      "channel": 1,
      "note": 62,
      "start": 68.2212,
      "duration": 0.2179,
      "velocity": 93,
      "chip": "ym2612"
    },
    {
      "channel": 3,
      "note": 69,
      "start": 68.2214,
      "duration": 0.1089,
      "velocity": 94,
      "chip": "ym2612"
    },
    {
      "channel": 5,
      "note": 69,
      "start": 68.2216,
      "duration": 0.1089,
      "velocity": 94,
      "chip": "ym2612"
    },
    {
      "channel": 0,
      "note": 98,
      "start": 68.33,
      "duration": 0.0309,
      "velocity": 114,
      "chip": "ym2612"
    },
    {
      "channel": 3,
      "note": 74,
      "start": 68.3303,
      "duration": 0.109,
      "velocity": 94,
      "chip": "ym2612"
    },
    {
      "channel": 5,
      "note": 81,
      "start": 68.3305,
      "duration": 0.109,
      "velocity": 94,
      "chip": "ym2612"
    },
    {
      "channel": 0,
      "note": 98,
      "start": 68.439,
      "duration": 0.0154,
      "velocity": 127,
      "chip": "ym2612"
    },
    {
      "channel": 1,
      "note": 62,
      "start": 68.4391,
      "duration": 0.218,
      "velocity": 93,
      "chip": "ym2612"
    },
    {
      "channel": 5,
      "note": 71,
      "start": 68.4395,
      "duration": 0.1089,
      "velocity": 94,
      "chip": "ym2612"
    },
    {
      "channel": 0,
      "note": 76,
      "start": 68.4544,
      "duration": 0.0936,
      "velocity": 114,
      "chip": "ym2612"
    },
    {
      "channel": 0,
      "note": 68,
      "start": 68.5479,
      "duration": 0.0309,
      "velocity": 114,
      "chip": "ym2612"
    },
    {
      "channel": 3,
      "note": 76,
      "start": 68.5482,
      "duration": 0.1091,
      "velocity": 94,
      "chip": "ym2612"
    },
    {
      "channel": 5,
      "note": 74,
      "start": 68.5484,
      "duration": 0.1091,
      "velocity": 94,
      "chip": "ym2612"
    },
    {
      "channel": 0,
      "note": 98,
      "start": 68.6569,
      "duration": 0.0309,
      "velocity": 114,
      "chip": "ym2612"
    },
    {
      "channel": 1,
      "note": 62,
      "start": 68.6572,
      "duration": 0.2177,
      "velocity": 93,
      "chip": "ym2612"
    },
    {
      "channel": 3,
      "note": 81,
      "start": 68.6574,
      "duration": 0.1087,
      "velocity": 94,
      "chip": "ym2612"
    },
    {
      "channel": 0,
      "note": 98,
      "start": 68.7658,
      "duration": 0.0309,
      "velocity": 114,
      "chip": "ym2612"
    },
    {
      "channel": 3,
      "note": 69,
      "start": 68.7661,
      "duration": 0.109,
      "velocity": 94,
      "chip": "ym2612"
    },
    {
      "channel": 5,
      "note": 76,
      "start": 68.7663,
      "duration": 0.1091,
      "velocity": 94,
      "chip": "ym2612"
    },
    {
      "channel": 0,
      "note": 98,
      "start": 68.8748,
      "duration": 0.1089,
      "velocity": 114,
      "chip": "ym2612"
    },
    {
      "channel": 1,
      "note": 62,
      "start": 68.8749,
      "duration": 0.2178,
      "velocity": 93,
      "chip": "ym2612"
    },
    {
      "channel": 3,
      "note": 81,
      "start": 68.8751,
      "duration": 0.1089,
      "velocity": 94,
      "chip": "ym2612"
    },
    {
      "channel": 5,
      "note": 78,
      "start": 68.8754,
      "duration": 0.1088,
      "velocity": 94,
      "chip": "ym2612"
    },
    {
      "channel": 0,
      "note": 54,
      "start": 68.9837,
      "duration": 0.0309,
      "velocity": 114,
      "chip": "ym2612"
    },
    {
      "channel": 3,
      "note": 71,
      "start": 68.984,
      "duration": 0.109,
      "velocity": 94,
      "chip": "ym2612"
    },
    {
      "channel": 5,
      "note": 81,
      "start": 68.9842,
      "duration": 0.109,
      "velocity": 94,
      "chip": "ym2612"
    },
    {
      "channel": 0,
      "note": 98,
      "start": 69.0927,
      "duration": 0.0309,
      "velocity": 114,
      "chip": "ym2612"
    },
    {
      "channel": 1,
      "note": 62,
      "start": 69.0928,
      "duration": 0.2179,
      "velocity": 93,
      "chip": "ym2612"
    },
    {
      "channel": 3,
      "note": 74,
      "start": 69.0929,
      "duration": 0.1089,
      "velocity": 94,
      "chip": "ym2612"
    },
    {
      "channel": 5,
      "note": 69,
      "start": 69.0932,
      "duration": 0.1089,
      "velocity": 94,
      "chip": "ym2612"
    },
    {
      "channel": 0,
      "note": 98,
      "start": 69.2016,
      "duration": 0.0309,
      "velocity": 114,
      "chip": "ym2612"
    },
    {
      "channel": 5,
      "note": 74,
      "start": 69.2021,
      "duration": 0.109,
      "velocity": 94,
      "chip": "ym2612"
    },
    {
      "channel": 0,
      "note": 98,
      "start": 69.3105,
      "duration": 0.0154,
      "velocity": 127,
      "chip": "ym2612"
    },
    {
      "channel": 1,
      "note": 62,
      "start": 69.3107,
      "duration": 0.2179,
      "velocity": 93,
      "chip": "ym2612"
    },
    {
      "channel": 3,
      "note": 76,
      "start": 69.3108,
      "duration": 0.1089,
      "velocity": 94,
      "chip": "ym2612"
    },
    {
      "channel": 0,
      "note": 76,
      "start": 69.3259,
      "duration": 0.0936,
      "velocity": 114,
      "chip": "ym2612"
    },
    {
      "channel": 0,
      "note": 68,
      "start": 69.4195,
      "duration": 0.0309,
      "velocity": 114,
      "chip": "ym2612"
    },
    {
      "channel": 5,
      "note": 76,
      "start": 69.42,
      "duration": 0.1091,
      "velocity": 94,
      "chip": "ym2612"
    },
    {
      "channel": 0,
      "note": 98,
      "start": 69.5284,
      "duration": 0.0309,
      "velocity": 114,
      "chip": "ym2612"
    },
    {
      "channel": 1,
      "note": 62,
      "start": 69.5285,
      "duration": 0.2179,
      "velocity": 93,
      "chip": "ym2612"
    },
    {
      "channel": 3,
      "note": 78,
      "start": 69.5288,
      "duration": 0.1088,
      "velocity": 94,
      "chip": "ym2612"
    },
    {
      "channel": 5,
      "note": 81,
      "start": 69.529,
      "duration": 0.1088,
      "velocity": 94,
      "chip": "ym2612"
    },
    {
      "channel": 0,
      "note": 98,
      "start": 69.6373,
      "duration": 0.0309,
      "velocity": 114,
      "chip": "ym2612"
    },
    {
      "channel": 3,
      "note": 81,
      "start": 69.6376,
      "duration": 0.109,
      "velocity": 94,
      "chip": "ym2612"
    },
    {
      "channel": 5,
      "note": 69,
      "start": 69.6379,
      "duration": 0.109,
      "velocity": 94,
      "chip": "ym2612"
    },
    {
      "channel": 0,
      "note": 98,
      "start": 69.7463,
      "duration": 0.1089,
      "velocity": 114,
      "chip": "ym2612"
    },
    {
      "channel": 1,
      "note": 62,
      "start": 69.7464,
      "duration": 0.2178,
      "velocity": 93,
      "chip": "ym2612"
    },
    {
      "channel": 3,
      "note": 69,
      "start": 69.7466,
      "duration": 0.1089,
      "velocity": 94,
      "chip": "ym2612"
    },
    {
      "channel": 5,
      "note": 81,
      "start": 69.7469,
      "duration": 0.1088,
      "velocity": 94,
      "chip": "ym2612"
    },
    {
      "channel": 0,
      "note": 54,
      "start": 69.8552,
      "duration": 0.0309,
      "velocity": 114,
      "chip": "ym2612"
    },
    {
      "channel": 3,
      "note": 74,
      "start": 69.8555,
      "duration": 0.109,
      "velocity": 94,
      "chip": "ym2612"
    },
    {
      "channel": 5,
      "note": 71,
      "start": 69.8558,
      "duration": 0.1089,
      "velocity": 94,
      "chip": "ym2612"
    },
    {
      "channel": 0,
      "note": 98,
      "start": 69.9642,
      "duration": 0.0309,
      "velocity": 114,
      "chip": "ym2612"
    },
    {
      "channel": 1,
      "note": 62,
      "start": 69.9643,
      "duration": 0.2179,
      "velocity": 93,
      "chip": "ym2612"
    },
    {
      "channel": 5,
      "note": 74,
      "start": 69.9647,
      "duration": 0.1091,
      "velocity": 94,
      "chip": "ym2612"
    },
    {
      "channel": 0,
      "note": 98,
      "start": 70.0731,
      "duration": 0.0309,
      "velocity": 114,
      "chip": "ym2612"
    },
    {
      "channel": 3,
      "note": 76,
      "start": 70.0734,
      "duration": 0.109,
      "velocity": 94,
      "chip": "ym2612"
    },
    {
      "channel": 0,
      "note": 98,
      "start": 70.1821,
      "duration": 0.0154,
      "velocity": 127,
      "chip": "ym2612"
    },
    {
      "channel": 1,
      "note": 62,
      "start": 70.1822,
      "duration": 0.2178,
      "velocity": 93,
      "chip": "ym2612"
    },
    {
      "channel": 3,
      "note": 81,
      "start": 70.1824,
      "duration": 0.1089,
      "velocity": 94,
      "chip": "ym2612"
    },
    {
      "channel": 5,
      "note": 76,
      "start": 70.1826,
      "duration": 0.1089,
      "velocity": 94,
      "chip": "ym2612"
    },
    {
      "channel": 0,
      "note": 76,
      "start": 70.1974,
      "duration": 0.0936,
      "velocity": 114,
      "chip": "ym2612"
    },
    {
      "channel": 0,
      "note": 68,
      "start": 70.291,
      "duration": 0.0309,
      "velocity": 114,
      "chip": "ym2612"
    },
    {
      "channel": 3,
      "note": 69,
      "start": 70.2913,
      "duration": 0.109,
      "velocity": 94,
      "chip": "ym2612"
    },
    {
      "channel": 5,
      "note": 78,
      "start": 70.2916,
      "duration": 0.1089,
      "velocity": 94,
      "chip": "ym2612"
    },
    {
      "channel": 0,
      "note": 98,
      "start": 70.4,
      "duration": 0.0309,
      "velocity": 114,
      "chip": "ym2612"
    },
    {
      "channel": 1,
      "note": 62,
      "start": 70.4,
      "duration": 0.2179,
      "velocity": 93,
      "chip": "ym2612"
    },
    {
      "channel": 3,
      "note": 81,
      "start": 70.4002,
      "duration": 0.1089,
      "velocity": 94,
      "chip": "ym2612"
    },
    {
      "channel": 5,
      "note": 81,
      "start": 70.4005,
      "duration": 0.1089,
      "velocity": 94,
      "chip": "ym2612"
    },
    {
      "channel": 0,
      "note": 98,
      "start": 70.5089,
      "duration": 0.0309,
      "velocity": 114,
      "chip": "ym2612"
    },
    {
      "channel": 3,
      "note": 71,
      "start": 70.5092,
      "duration": 0.109,
      "velocity": 94,
      "chip": "ym2612"
    },
    {
      "channel": 5,
      "note": 69,
      "start": 70.5094,
      "duration": 0.109,
      "velocity": 94,
      "chip": "ym2612"
    },
    {
      "channel": 0,
      "note": 98,
      "start": 70.6178,
      "duration": 0.1089,
      "velocity": 127,
      "chip": "ym2612"
    },
    {
      "channel": 1,
      "note": 62,
      "start": 70.618,
      "duration": 0.2178,
      "velocity": 93,
      "chip": "ym2612"
    },
    {
      "channel": 3,
      "note": 74,
      "start": 70.6182,
      "duration": 0.1089,
      "velocity": 94,
      "chip": "ym2612"
    },
    {
      "channel": 5,
      "note": 74,
      "start": 70.6184,
      "duration": 0.1088,
      "velocity": 94,
      "chip": "ym2612"
    },
    {
      "channel": 0,
      "note": 54,
      "start": 70.7268,
      "duration": 0.0154,
      "velocity": 127,
      "chip": "ym2612"
    },
    {
      "channel": 0,
      "note": 76,
      "start": 70.7421,
      "duration": 0.0936,
      "velocity": 114,
      "chip": "ym2612"
    },
    {
      "channel": 0,
      "note": 68,
      "start": 70.8357,
      "duration": 0.0309,
      "velocity": 114,
      "chip": "ym2612"
    },
    {
      "channel": 1,
      "note": 62,
      "start": 70.8358,
      "duration": 0.2179,
      "velocity": 93,
      "chip": "ym2612"
    },
    {
      "channel": 3,
      "note": 76,
      "start": 70.836,
      "duration": 0.1089,
      "velocity": 94,
      "chip": "ym2612"
    },
    {
      "channel": 5,
      "note": 76,
      "start": 70.8363,
      "duration": 0.1089,
      "velocity": 94,
      "chip": "ym2612"
    },
    {
      "channel": 0,
      "note": 98,
      "start": 70.9446,
      "duration": 0.0309,
      "velocity": 114,
      "chip": "ym2612"
    },
    {
      "channel": 5,
      "note": 81,
      "start": 70.9451,
      "duration": 0.1092,
      "velocity": 94,
      "chip": "ym2612"
    },
    {
      "channel": 0,
      "note": 98,
      "start": 71.0536,
      "duration": 0.1089,
      "velocity": 114,
      "chip": "ym2612"
    },
    {
      "channel": 1,
      "note": 62,
      "start": 71.0538,
      "duration": 0.2178,
      "velocity": 93,
      "chip": "ym2612"
    },
    {
      "channel": 2,
      "note": 50,
      "start": 71.0539,
      "duration": 3.0504,
      "velocity": 121,
      "chip": "ym2612"
    },
    {
      "channel": 3,
      "note": 78,
      "start": 71.0541,
      "duration": 0.1087,
      "velocity": 94,
      "chip": "ym2612"
    },
    {
      "channel": 5,
      "note": 69,
      "start": 71.0543,
      "duration": 0.1088,
      "velocity": 94,
      "chip": "ym2612"
    },
    {
      "channel": 0,
      "note": 54,
      "start": 71.1625,
      "duration": 0.0309,
      "velocity": 114,
      "chip": "ym2612"
    },
    {
      "channel": 3,
      "note": 81,
      "start": 71.1628,
      "duration": 0.109,
      "velocity": 94,
      "chip": "ym2612"
    },
    {
      "channel": 5,
      "note": 81,
      "start": 71.163,
      "duration": 0.109,
      "velocity": 94,
      "chip": "ym2612"
    },
    {
      "channel": 4,
      "note": 50,
      "start": 71.2406,
      "duration": 3.0502,
      "velocity": 121,
      "chip": "ym2612"
    },
    {
      "channel": 0,
      "note": 98,
      "start": 71.2715,
      "duration": 0.0309,
      "velocity": 114,
      "chip": "ym2612"
    },
    {
      "channel": 1,
      "note": 59,
      "start": 71.2716,
      "duration": 0.2179,
      "velocity": 93,
      "chip": "ym2612"
    },
    {
      "channel": 3,
      "note": 69,
      "start": 71.2718,
      "duration": 0.1089,
      "velocity": 94,
      "chip": "ym2612"
    },
    {
      "channel": 5,
      "note": 71,
      "start": 71.272,
      "duration": 0.1089,
      "velocity": 94,
      "chip": "ym2612"
    },
    {
      "channel": 0,
      "note": 98,
      "start": 71.3804,
      "duration": 0.0309,
      "velocity": 114,
      "chip": "ym2612"
    },
    {
      "channel": 3,
      "note": 74,
      "start": 71.3807,
      "duration": 0.109,
      "velocity": 94,
      "chip": "ym2612"
    },
    {
      "channel": 5,
      "note": 74,
      "start": 71.3809,
      "duration": 0.109,
      "velocity": 94,
      "chip": "ym2612"
    },
    {
      "channel": 0,
      "note": 98,
      "start": 71.4894,
      "duration": 0.0154,
      "velocity": 127,
      "chip": "ym2612"
    },
    {
      "channel": 1,
      "note": 59,
      "start": 71.4895,
      "duration": 0.218,
      "velocity": 93,
      "chip": "ym2612"
    },
    {
      "channel": 0,
      "note": 76,
      "start": 71.5047,
      "duration": 0.0936,
      "velocity": 114,
      "chip": "ym2612"
    },
    {
      "channel": 0,
      "note": 68,
      "start": 71.5983,
      "duration": 0.0309,
      "velocity": 114,
      "chip": "ym2612"
    },
    {
      "channel": 3,
      "note": 76,
      "start": 71.5986,
      "duration": 0.1091,
      "velocity": 94,
      "chip": "ym2612"
    },
    {
      "channel": 5,
      "note": 76,
      "start": 71.5988,
      "duration": 0.1092,
      "velocity": 94,
      "chip": "ym2612"
    },
    {
      "channel": 0,
      "note": 98,
      "start": 71.7074,
      "duration": 0.0307,
      "velocity": 114,
      "chip": "ym2612"
    },
    {
      "channel": 1,
      "note": 59,
      "start": 71.7075,
      "duration": 0.2177,
      "velocity": 93,
      "chip": "ym2612"
    },
    {
      "channel": 3,
      "note": 81,
      "start": 71.7077,
      "duration": 0.1087,
      "velocity": 94,
      "chip": "ym2612"
    },
    {
      "channel": 5,
      "note": 78,
      "start": 71.708,
      "duration": 0.1087,
      "velocity": 94,
      "chip": "ym2612"
    },
    {
      "channel": 0,
      "note": 98,
      "start": 71.8162,
      "duration": 0.0309,
      "velocity": 114,
      "chip": "ym2612"
    },
    {
      "channel": 3,
      "note": 69,
      "start": 71.8165,
      "duration": 0.109,
      "velocity": 94,
      "chip": "ym2612"
    },
    {
      "channel": 5,
      "note": 81,
      "start": 71.8167,
      "duration": 0.109,
      "velocity": 94,
      "chip": "ym2612"
    },
    {
      "channel": 0,
      "note": 98,
      "start": 71.9251,
      "duration": 0.1089,
      "velocity": 114,
      "chip": "ym2612"
    },
    {
      "channel": 1,
      "note": 59,
      "start": 71.9253,
      "duration": 0.2178,
      "velocity": 93,
      "chip": "ym2612"
    },
    {
      "channel": 3,
      "note": 81,
      "start": 71.9255,
      "duration": 0.1088,
      "velocity": 94,
      "chip": "ym2612"
    },
    {
      "channel": 5,
      "note": 69,
      "start": 71.9257,
      "duration": 0.1089,
      "velocity": 94,
      "chip": "ym2612"
    },
    {
      "channel": 0,
      "note": 54,
      "start": 72.0341,
      "duration": 0.0309,
      "velocity": 114,
      "chip": "ym2612"
    },
    {
      "channel": 3,
      "note": 71,
      "start": 72.0344,
      "duration": 0.109,
      "velocity": 94,
      "chip": "ym2612"
    },
    {
      "channel": 5,
      "note": 74,
      "start": 72.0346,
      "duration": 0.109,
      "velocity": 94,
      "chip": "ym2612"
    },
    {
      "channel": 0,
      "note": 98,
      "start": 72.143,
      "duration": 0.0309,
      "velocity": 114,
      "chip": "ym2612"
    },
    {
      "channel": 1,
      "note": 59,
      "start": 72.1431,
      "duration": 0.2179,
      "velocity": 93,
      "chip": "ym2612"
    },
    {
      "channel": 3,
      "note": 74,
      "start": 72.1433,
      "duration": 0.1089,
      "velocity": 94,
      "chip": "ym2612"
    },
    {
      "channel": 0,
      "note": 98,
      "start": 72.252,
      "duration": 0.0309,
      "velocity": 114,
      "chip": "ym2612"
    },
    {
      "channel": 5,
      "note": 76,
      "start": 72.2524,
      "duration": 0.109,
      "velocity": 94,
      "chip": "ym2612"
    },
    {
      "channel": 0,
      "note": 98,
      "start": 72.3609,
      "duration": 0.0154,
      "velocity": 127,
      "chip": "ym2612"
    },
    {
      "channel": 1,
      "note": 59,
      "start": 72.361,
      "duration": 0.2179,
      "velocity": 93,
      "chip": "ym2612"
    },
    {
      "channel": 3,
      "note": 76,
      "start": 72.3612,
      "duration": 0.1089,
      "velocity": 94,
      "chip": "ym2612"
    },
    {
      "channel": 5,
      "note": 81,
      "start": 72.3615,
      "duration": 0.1089,
      "velocity": 94,
      "chip": "ym2612"
    },
    {
      "channel": 0,
      "note": 76,
      "start": 72.3763,
      "duration": 0.0936,
      "velocity": 114,
      "chip": "ym2612"
    },
    {
      "channel": 0,
      "note": 68,
      "start": 72.4698,
      "duration": 0.0309,
      "velocity": 114,
      "chip": "ym2612"
    },
    {
      "channel": 5,
      "note": 69,
      "start": 72.4703,
      "duration": 0.109,
      "velocity": 94,
      "chip": "ym2612"
    },
    {
      "channel": 0,
      "note": 98,
      "start": 72.5788,
      "duration": 0.0309,
      "velocity": 114,
      "chip": "ym2612"
    },
    {
      "channel": 1,
      "note": 59,
      "start": 72.5789,
      "duration": 0.2179,
      "velocity": 93,
      "chip": "ym2612"
    },
    {
      "channel": 3,
      "note": 78,
      "start": 72.5792,
      "duration": 0.1088,
      "velocity": 94,
      "chip": "ym2612"
    },
    {
      "channel": 5,
      "note": 81,
      "start": 72.5794,
      "duration": 0.1088,
      "velocity": 94,
      "chip": "ym2612"
    },
    {
      "channel": 0,
      "note": 98,
      "start": 72.6877,
      "duration": 0.0309,
      "velocity": 114,
      "chip": "ym2612"
    },
    {
      "channel": 3,
      "note": 81,
      "start": 72.688,
      "duration": 0.109,
      "velocity": 94,
      "chip": "ym2612"
    },
    {
      "channel": 5,
      "note": 71,
      "start": 72.6882,
      "duration": 0.109,
      "velocity": 94,
      "chip": "ym2612"
    },
    {
      "channel": 0,
      "note": 98,
      "start": 72.7967,
      "duration": 0.1089,
      "velocity": 114,
      "chip": "ym2612"
    },
    {
      "channel": 1,
      "note": 59,
      "start": 72.7968,
      "duration": 0.2178,
      "velocity": 93,
      "chip": "ym2612"
    },
    {
      "channel": 3,
      "note": 69,
      "start": 72.797,
      "duration": 0.1089,
      "velocity": 94,
      "chip": "ym2612"
    },
    {
      "channel": 5,
      "note": 74,
      "start": 72.7973,
      "duration": 0.1088,
      "velocity": 94,
      "chip": "ym2612"
    },
    {
      "channel": 0,
      "note": 54,
      "start": 72.9056,
      "duration": 0.0309,
      "velocity": 114,
      "chip": "ym2612"
    },
    {
      "channel": 3,
      "note": 74,
      "start": 72.9059,
      "duration": 0.109,
      "velocity": 94,
      "chip": "ym2612"
    },
    {
      "channel": 0,
      "note": 98,
      "start": 73.0145,
      "duration": 0.0309,
      "velocity": 114,
      "chip": "ym2612"
    },
    {
      "channel": 1,
      "note": 59,
      "start": 73.0146,
      "duration": 0.2179,
      "velocity": 93,
      "chip": "ym2612"
    },
    {
      "channel": 5,
      "note": 76,
      "start": 73.0151,
      "duration": 0.1091,
      "velocity": 94,
      "chip": "ym2612"
    },
    {
      "channel": 0,
      "note": 98,
      "start": 73.1235,
      "duration": 0.0309,
      "velocity": 114,
      "chip": "ym2612"
    },
    {
      "channel": 3,
      "note": 76,
      "start": 73.1239,
      "duration": 0.1088,
      "velocity": 94,
      "chip": "ym2612"
    },
    {
      "channel": 5,
      "note": 78,
      "start": 73.1242,
      "duration": 0.1088,
      "velocity": 94,
      "chip": "ym2612"
    },
    {
      "channel": 0,
      "note": 98,
      "start": 73.2324,
      "duration": 0.0154,
      "velocity": 127,
      "chip": "ym2612"
    },
    {
      "channel": 1,
      "note": 59,
      "start": 73.2326,
      "duration": 0.2178,
      "velocity": 93,
      "chip": "ym2612"
    },
    {
      "channel": 3,
      "note": 81,
      "start": 73.2328,
      "duration": 0.1089,
      "velocity": 94,
      "chip": "ym2612"
    },
    {
      "channel": 5,
      "note": 81,
      "start": 73.233,
      "duration": 0.1089,
      "velocity": 94,
      "chip": "ym2612"
    },
    {
      "channel": 0,
      "note": 76,
      "start": 73.2478,
      "duration": 0.0936,
      "velocity": 114,
      "chip": "ym2612"
    },
    {
      "channel": 0,
      "note": 68,
      "start": 73.3414,
      "duration": 0.0309,
      "velocity": 114,
      "chip": "ym2612"
    },
    {
      "channel": 3,
      "note": 69,
      "start": 73.3417,
      "duration": 0.109,
      "velocity": 94,
      "chip": "ym2612"
    },
    {
      "channel": 5,
      "note": 69,
      "start": 73.3419,
      "duration": 0.109,
      "velocity": 94,
      "chip": "ym2612"
    },
    {
      "channel": 0,
      "note": 98,
      "start": 73.4503,
      "duration": 0.0309,
      "velocity": 114,
      "chip": "ym2612"
    },
    {
      "channel": 1,
      "note": 59,
      "start": 73.4504,
      "duration": 0.2179,
      "velocity": 93,
      "chip": "ym2612"
    },
    {
      "channel": 3,
      "note": 81,
      "start": 73.4506,
      "duration": 0.1089,
      "velocity": 94,
      "chip": "ym2612"
    },
    {
      "channel": 5,
      "note": 74,
      "start": 73.4509,
      "duration": 0.1089,
      "velocity": 94,
      "chip": "ym2612"
    },
    {
      "channel": 0,
      "note": 98,
      "start": 73.5593,
      "duration": 0.0309,
      "velocity": 114,
      "chip": "ym2612"
    },
    {
      "channel": 3,
      "note": 71,
      "start": 73.5595,
      "duration": 0.109,
      "velocity": 94,
      "chip": "ym2612"
    },
    {
      "channel": 0,
      "note": 98,
      "start": 73.6682,
      "duration": 0.1089,
      "velocity": 127,
      "chip": "ym2612"
    },
    {
      "channel": 1,
      "note": 59,
      "start": 73.6683,
      "duration": 0.2178,
      "velocity": 93,
      "chip": "ym2612"
    },
    {
      "channel": 3,
      "note": 74,
      "start": 73.6685,
      "duration": 0.1088,
      "velocity": 94,
      "chip": "ym2612"
    },
    {
      "channel": 5,
      "note": 76,
      "start": 73.6688,
      "duration": 0.1088,
      "velocity": 94,
      "chip": "ym2612"
    },
    {
      "channel": 0,
      "note": 54,
      "start": 73.7771,
      "duration": 0.0154,
      "velocity": 127,
      "chip": "ym2612"
    },
    {
      "channel": 5,
      "note": 81,
      "start": 73.7776,
      "duration": 0.109,
      "velocity": 94,
      "chip": "ym2612"
    },
    {
      "channel": 0,
      "note": 76,
      "start": 73.7925,
      "duration": 0.0936,
      "velocity": 114,
      "chip": "ym2612"
    },
    {
      "channel": 0,
      "note": 68,
      "start": 73.8861,
      "duration": 0.0309,
      "velocity": 114,
      "chip": "ym2612"
    },
    {
      "channel": 1,
      "note": 59,
      "start": 73.8862,
      "duration": 0.2179,
      "velocity": 93,
      "chip": "ym2612"
    },
    {
      "channel": 3,
      "note": 76,
      "start": 73.8864,
      "duration": 0.1089,
      "velocity": 94,
      "chip": "ym2612"
    },
    {
      "channel": 5,
      "note": 69,
      "start": 73.8866,
      "duration": 0.1088,
      "velocity": 94,
      "chip": "ym2612"
    },
    {
      "channel": 0,
      "note": 98,
      "start": 73.995,
      "duration": 0.0309,
      "velocity": 114,
      "chip": "ym2612"
    },
    {
      "channel": 5,
      "note": 81,
      "start": 73.9955,
      "duration": 0.1091,
      "velocity": 94,
      "chip": "ym2612"
    },
    {
      "channel": 0,
      "note": 98,
      "start": 74.104,
      "duration": 0.1089,
      "velocity": 114,
      "chip": "ym2612"
    },
    {
      "channel": 1,
      "note": 59,
      "start": 74.1041,
      "duration": 0.2178,
      "velocity": 93,
      "chip": "ym2612"
    },
    {
      "channel": 2,
      "note": 47,
      "start": 74.1042,
      "duration": 3.0504,
      "velocity": 121,
      "chip": "ym2612"
    },
    {
      "channel": 3,
      "note": 78,
      "start": 74.1044,
      "duration": 0.1087,
      "velocity": 94,
      "chip": "ym2612"
    },
    {
      "channel": 5,
      "note": 71,
      "start": 74.1046,
      "duration": 0.1088,
      "velocity": 94,
      "chip": "ym2612"
    },
    {
      "channel": 0,
      "note": 54,
      "start": 74.2129,
      "duration": 0.0309,
      "velocity": 114,
      "chip": "ym2612"
    },
    {
      "channel": 3,
      "note": 81,
      "start": 74.2132,
      "duration": 0.109,
      "velocity": 94,
      "chip": "ym2612"
    },
    {
      "channel": 5,
      "note": 74,
      "start": 74.2134,
      "duration": 0.109,
      "velocity": 94,
      "chip": "ym2612"
    },
    {
      "channel": 4,
      "note": 47,
      "start": 74.2908,
      "duration": 3.0503,
      "velocity": 121,
      "chip": "ym2612"
    },
    {
      "channel": 0,
      "note": 98,
      "start": 74.3218,
      "duration": 0.0309,
      "velocity": 114,
      "chip": "ym2612"
    },
    {
      "channel": 1,
      "note": 64,
      "start": 74.322,
      "duration": 0.2179,
      "velocity": 93,
      "chip": "ym2612"
    },
    {
      "channel": 3,
      "note": 69,
      "start": 74.3222,
      "duration": 0.1089,
      "velocity": 94,
      "chip": "ym2612"
    },
    {
      "channel": 0,
      "note": 98,
      "start": 74.4308,
      "duration": 0.0309,
      "velocity": 114,
      "chip": "ym2612"
    },
    {
      "channel": 3,
      "note": 74,
      "start": 74.431,
      "duration": 0.109,
      "velocity": 94,
      "chip": "ym2612"
    },
    {
      "channel": 5,
      "note": 76,
      "start": 74.4313,
      "duration": 0.1092,
      "velocity": 94,
      "chip": "ym2612"
    },
    {
      "channel": 0,
      "note": 98,
      "start": 74.5397,
      "duration": 0.0154,
      "velocity": 127,
      "chip": "ym2612"
    },
    {
      "channel": 1,
      "note": 64,
      "start": 74.5399,
      "duration": 0.2178,
      "velocity": 93,
      "chip": "ym2612"
    },
    {
      "channel": 5,
      "note": 78,
      "start": 74.5405,
      "duration": 0.1087,
      "velocity": 94,
      "chip": "ym2612"
    },
    {
      "channel": 0,
      "note": 76,
      "start": 74.5551,
      "duration": 0.0936,
      "velocity": 114,
      "chip": "ym2612"
    },
    {
      "channel": 0,
      "note": 68,
      "start": 74.6487,
      "duration": 0.0309,
      "velocity": 114,
      "chip": "ym2612"
    },
    {
      "channel": 3,
      "note": 76,
      "start": 74.6489,
      "duration": 0.109,
      "velocity": 94,
      "chip": "ym2612"
    },
    {
      "channel": 5,
      "note": 81,
      "start": 74.6492,
      "duration": 0.109,
      "velocity": 94,
      "chip": "ym2612"
    },
    {
      "channel": 0,
      "note": 98,
      "start": 74.7576,
      "duration": 0.0309,
      "velocity": 114,
      "chip": "ym2612"
    },
    {
      "channel": 1,
      "note": 64,
      "start": 74.7577,
      "duration": 0.2179,
      "velocity": 93,
      "chip": "ym2612"
    },
    {
      "channel": 3,
      "note": 81,
      "start": 74.7579,
      "duration": 0.1089,
      "velocity": 94,
      "chip": "ym2612"
    },
    {
      "channel": 5,
      "note": 69,
      "start": 74.7582,
      "duration": 0.1089,
      "velocity": 94,
      "chip": "ym2612"
    },
    {
      "channel": 0,
      "note": 98,
      "start": 74.8666,
      "duration": 0.0309,
      "velocity": 114,
      "chip": "ym2612"
    },
    {
      "channel": 3,
      "note": 69,
      "start": 74.8668,
      "duration": 0.109,
      "velocity": 94,
      "chip": "ym2612"
    },
    {
      "channel": 5,
      "note": 74,
      "start": 74.8671,
      "duration": 0.109,
      "velocity": 94,
      "chip": "ym2612"
    },
    {
      "channel": 0,
      "note": 98,
      "start": 74.9755,
      "duration": 0.1089,
      "velocity": 114,
      "chip": "ym2612"
    },
    {
      "channel": 1,
      "note": 64,
      "start": 74.9756,
      "duration": 0.2178,
      "velocity": 93,
      "chip": "ym2612"
    },
    {
      "channel": 3,
      "note": 81,
      "start": 74.9759,
      "duration": 0.1089,
      "velocity": 94,
      "chip": "ym2612"
    },
    {
      "channel": 0,
      "note": 54,
      "start": 75.0844,
      "duration": 0.0309,
      "velocity": 114,
      "chip": "ym2612"
    },
    {
      "channel": 3,
      "note": 71,
      "start": 75.0847,
      "duration": 0.109,
      "velocity": 94,
      "chip": "ym2612"
    },
    {
      "channel": 5,
      "note": 76,
      "start": 75.0849,
      "duration": 0.109,
      "velocity": 94,
      "chip": "ym2612"
    },
    {
      "channel": 0,
      "note": 98,
      "start": 75.1934,
      "duration": 0.0309,
      "velocity": 114,
      "chip": "ym2612"
    },
    {
      "channel": 1,
      "note": 64,
      "start": 75.1935,
      "duration": 0.2179,
      "velocity": 93,
      "chip": "ym2612"
    },
    {
      "channel": 3,
      "note": 74,
      "start": 75.1937,
      "duration": 0.1089,
      "velocity": 94,
      "chip": "ym2612"
    },
    {
      "channel": 5,
      "note": 81,
      "start": 75.1939,
      "duration": 0.1089,
      "velocity": 94,
      "chip": "ym2612"
    },
    {
      "channel": 0,
      "note": 98,
      "start": 75.3023,
      "duration": 0.0309,
      "velocity": 114,
      "chip": "ym2612"
    },
    {
      "channel": 5,
      "note": 69,
      "start": 75.3028,
      "duration": 0.109,
      "velocity": 94,
      "chip": "ym2612"
    },
    {
      "channel": 0,
      "note": 98,
      "start": 75.4112,
      "duration": 0.0154,
      "velocity": 127,
      "chip": "ym2612"
    },
    {
      "channel": 1,
      "note": 64,
      "start": 75.4114,
      "duration": 0.2178,
      "velocity": 93,
      "chip": "ym2612"
    },
    {
      "channel": 3,
      "note": 76,
      "start": 75.4116,
      "duration": 0.1089,
      "velocity": 94,
      "chip": "ym2612"
    },
    {
      "channel": 5,
      "note": 81,
      "start": 75.4118,
      "duration": 0.1089,
      "velocity": 94,
      "chip": "ym2612"
    },
    {
      "channel": 0,
      "note": 76,
      "start": 75.4266,
      "duration": 0.0936,
      "velocity": 114,
      "chip": "ym2612"
    },
    {
      "channel": 0,
      "note": 68,
      "start": 75.5202,
      "duration": 0.0309,
      "velocity": 114,
      "chip": "ym2612"
    },
    {
      "channel": 5,
      "note": 71,
      "start": 75.5207,
      "duration": 0.109,
      "velocity": 94,
      "chip": "ym2612"
    },
    {
      "channel": 0,
      "note": 98,
      "start": 75.6291,
      "duration": 0.0309,
      "velocity": 114,
      "chip": "ym2612"
    },
    {
      "channel": 1,
      "note": 64,
      "start": 75.6293,
      "duration": 0.2179,
      "velocity": 93,
      "chip": "ym2612"
    },
    {
      "channel": 3,
      "note": 78,
      "start": 75.6295,
      "duration": 0.1088,
      "velocity": 94,
      "chip": "ym2612"
    },
    {
      "channel": 5,
      "note": 74,
      "start": 75.6298,
      "duration": 0.1088,
      "velocity": 94,
      "chip": "ym2612"
    },
    {
      "channel": 0,
      "note": 98,
      "start": 75.7381,
      "duration": 0.0309,
      "velocity": 114,
      "chip": "ym2612"
    },
    {
      "channel": 3,
      "note": 81,
      "start": 75.7383,
      "duration": 0.109,
      "velocity": 94,
      "chip": "ym2612"
    },
    {
      "channel": 0,
      "note": 98,
      "start": 75.8471,
      "duration": 0.1089,
      "velocity": 114,
      "chip": "ym2612"
    },
    {
      "channel": 1,
      "note": 64,
      "start": 75.8472,
      "duration": 0.2178,
      "velocity": 93,
      "chip": "ym2612"
    },
    {
      "channel": 3,
      "note": 69,
      "start": 75.8474,
      "duration": 0.1089,
      "velocity": 94,
      "chip": "ym2612"
    },
    {
      "channel": 5,
      "note": 76,
      "start": 75.8476,
      "duration": 0.1089,
      "velocity": 94,
      "chip": "ym2612"
    },
    {
      "channel": 0,
      "note": 54,
      "start": 75.956,
      "duration": 0.0309,
      "velocity": 114,
      "chip": "ym2612"
    },
    {
      "channel": 3,
      "note": 74,
      "start": 75.9563,
      "duration": 0.1089,
      "velocity": 94,
      "chip": "ym2612"
    },
    {
      "channel": 5,
      "note": 78,
      "start": 75.9565,
      "duration": 0.1089,
      "velocity": 94,
      "chip": "ym2612"
    },
    {
      "channel": 0,
      "note": 98,
      "start": 76.0649,
      "duration": 0.0309,
      "velocity": 114,
      "chip": "ym2612"
    },
    {
      "channel": 1,
      "note": 64,
      "start": 76.065,
      "duration": 0.2179,
      "velocity": 93,
      "chip": "ym2612"
    },
    {
      "channel": 5,
      "note": 81,
      "start": 76.0654,
      "duration": 0.1091,
      "velocity": 94,
      "chip": "ym2612"
    },
    {
      "channel": 0,
      "note": 98,
      "start": 76.174,
      "duration": 0.0307,
      "velocity": 114,
      "chip": "ym2612"
    },
    {
      "channel": 3,
      "note": 76,
      "start": 76.1743,
      "duration": 0.1088,
      "velocity": 94,
      "chip": "ym2612"
    },
    {
      "channel": 5,
      "note": 69,
      "start": 76.1745,
      "duration": 0.1088,
      "velocity": 94,
      "chip": "ym2612"
    },
    {
      "channel": 0,
      "note": 98,
      "start": 76.2828,
      "duration": 0.0154,
      "velocity": 127,
      "chip": "ym2612"
    },
    {
      "channel": 1,
      "note": 64,
      "start": 76.2829,
      "duration": 0.2178,
      "velocity": 93,
      "chip": "ym2612"
    },
    {
      "channel": 3,
      "note": 81,
      "start": 76.2831,
      "duration": 0.1089,
      "velocity": 94,
      "chip": "ym2612"
    },
    {
      "channel": 5,
      "note": 74,
      "start": 76.2834,
      "duration": 0.1089,
      "velocity": 94,
      "chip": "ym2612"
    },
    {
      "channel": 0,
      "note": 76,
      "start": 76.2981,
      "duration": 0.0936,
      "velocity": 114,
      "chip": "ym2612"
    },
    {
      "channel": 0,
      "note": 68,
      "start": 76.3917,
      "duration": 0.0309,
      "velocity": 114,
      "chip": "ym2612"
    },
    {
      "channel": 3,
      "note": 69,
      "start": 76.392,
      "duration": 0.109,
      "velocity": 94,
      "chip": "ym2612"
    },
    {
      "channel": 0,
      "note": 98,
      "start": 76.5007,
      "duration": 0.0309,
      "velocity": 114,
      "chip": "ym2612"
    },
    {
      "channel": 1,
      "note": 64,
      "start": 76.5008,
      "duration": 0.2179,
      "velocity": 93,
      "chip": "ym2612"
    },
    {
      "channel": 3,
      "note": 81,
      "start": 76.501,
      "duration": 0.1089,
      "velocity": 94,
      "chip": "ym2612"
    },
    {
      "channel": 5,
      "note": 76,
      "start": 76.5012,
      "duration": 0.1089,
      "velocity": 94,
      "chip": "ym2612"
    },
    {
      "channel": 0,
      "note": 98,
      "start": 76.6096,
      "duration": 0.0309,
      "velocity": 114,
      "chip": "ym2612"
    },
    {
      "channel": 3,
      "note": 71,
      "start": 76.6099,
      "duration": 0.109,
      "velocity": 94,
      "chip": "ym2612"
    },
    {
      "channel": 5,
      "note": 81,
      "start": 76.6101,
      "duration": 0.109,
      "velocity": 94,
      "chip": "ym2612"
    },
    {
      "channel": 0,
      "note": 98,
      "start": 76.7186,
      "duration": 0.1089,
      "velocity": 127,
      "chip": "ym2612"
    },
    {
      "channel": 1,
      "note": 64,
      "start": 76.7187,
      "duration": 0.2178,
      "velocity": 93,
      "chip": "ym2612"
    },
    {
      "channel": 3,
      "note": 74,
      "start": 76.7189,
      "duration": 0.1089,
      "velocity": 94,
      "chip": "ym2612"
    },
    {
      "channel": 5,
      "note": 69,
      "start": 76.7191,
      "duration": 0.1088,
      "velocity": 94,
      "chip": "ym2612"
    },
    {
      "channel": 0,
      "note": 54,
      "start": 76.8275,
      "duration": 0.0154,
      "velocity": 127,
      "chip": "ym2612"
    },
    {
      "channel": 5,
      "note": 81,
      "start": 76.828,
      "duration": 0.109,
      "velocity": 94,
      "chip": "ym2612"
    },
    {
      "channel": 0,
      "note": 76,
      "start": 76.8429,
      "duration": 0.0936,
      "velocity": 114,
      "chip": "ym2612"
    },
    {
      "channel": 0,
      "note": 68,
      "start": 76.9364,
      "duration": 0.0309,
      "velocity": 114,
      "chip": "ym2612"
    },
    {
      "channel": 1,
      "note": 64,
      "start": 76.9366,
      "duration": 0.2179,
      "velocity": 93,
      "chip": "ym2612"
    },
    {
      "channel": 3,
      "note": 76,
      "start": 76.9368,
      "duration": 0.1089,
      "velocity": 94,
      "chip": "ym2612"
    },
    {
      "channel": 5,
      "note": 71,
      "start": 76.937,
      "duration": 0.1088,
      "velocity": 94,
      "chip": "ym2612"
    },
    {
      "channel": 0,
      "note": 98,
      "start": 77.0454,
      "duration": 0.0309,
      "velocity": 114,
      "chip": "ym2612"
    },
    {
      "channel": 5,
      "note": 74,
      "start": 77.0459,
      "duration": 0.1091,
      "velocity": 94,
      "chip": "ym2612"
    },
    {
      "channel": 0,
      "note": 98,
      "start": 77.1544,
      "duration": 0.1089,
      "velocity": 114,
      "chip": "ym2612"
    },
    {
      "channel": 1,
      "note": 64,
      "start": 77.1545,
      "duration": 0.2178,
      "velocity": 93,
      "chip": "ym2612"
    },
    {
      "channel": 2,
      "note": 52,
      "start": 77.1546,
      "duration": 3.0504,
      "velocity": 121,
      "chip": "ym2612"
    },
    {
      "channel": 3,
      "note": 78,
      "start": 77.1548,
      "duration": 0.1087,
      "velocity": 94,
      "chip": "ym2612"
    },
    {
      "channel": 0,
      "note": 54,
      "start": 77.2633,
      "duration": 0.0309,
      "velocity": 114,
      "chip": "ym2612"
    },
    {
      "channel": 3,
      "note": 81,
      "start": 77.2635,
      "duration": 0.109,
      "velocity": 94,
      "chip": "ym2612"
    },
    {
      "channel": 5,
      "note": 76,
      "start": 77.2638,
      "duration": 0.109,
      "velocity": 94,
      "chip": "ym2612"
    },
    {
      "channel": 4,
      "note": 52,
      "start": 77.3412,
      "duration": 3.0504,
      "velocity": 121,
      "chip": "ym2612"
    },
    {
      "channel": 0,
      "note": 98,
      "start": 77.3722,
      "duration": 0.0309,
      "velocity": 114,
      "chip": "ym2612"
    },
    {
      "channel": 1,
      "note": 67,
      "start": 77.3723,
      "duration": 0.2179,
      "velocity": 93,
      "chip": "ym2612"
    },
    {
      "channel": 3,
      "note": 69,
      "start": 77.3725,
      "duration": 0.1089,
      "velocity": 94,
      "chip": "ym2612"
    },
    {
      "channel": 5,
      "note": 78,
      "start": 77.3728,
      "duration": 0.1088,
      "velocity": 94,
      "chip": "ym2612"
    },
    {
      "channel": 0,
      "note": 98,
      "start": 77.4812,
      "duration": 0.0309,
      "velocity": 114,
      "chip": "ym2612"
    },
    {
      "channel": 3,
      "note": 74,
      "start": 77.4814,
      "duration": 0.1091,
      "velocity": 94,
      "chip": "ym2612"
    },
    {
      "channel": 5,
      "note": 81,
      "start": 77.4816,
      "duration": 0.1092,
      "velocity": 94,
      "chip": "ym2612"
    },
    {
      "channel": 0,
      "note": 98,
      "start": 77.5901,
      "duration": 0.0154,
      "velocity": 127,
      "chip": "ym2612"
    },
    {
      "channel": 1,
      "note": 67,
      "start": 77.5902,
      "duration": 0.2178,
      "velocity": 93,
      "chip": "ym2612"
    },
    {
      "channel": 5,
      "note": 69,
      "start": 77.5908,
      "duration": 0.1087,
      "velocity": 94,
      "chip": "ym2612"
    },
    {
      "channel": 0,
      "note": 76,
      "start": 77.6054,
      "duration": 0.0936,
      "velocity": 114,
      "chip": "ym2612"
    },
    {
      "channel": 0,
      "note": 68,
      "start": 77.699,
      "duration": 0.0309,
      "velocity": 114,
      "chip": "ym2612"
    },
    {
      "channel": 3,
      "note": 76,
      "start": 77.6993,
      "duration": 0.109,
      "velocity": 94,
      "chip": "ym2612"
    },
    {
      "channel": 5,
      "note": 74,
      "start": 77.6995,
      "duration": 0.109,
      "velocity": 94,
      "chip": "ym2612"
    },
    {
      "channel": 0,
      "note": 98,
      "start": 77.808,
      "duration": 0.0309,
      "velocity": 114,
      "chip": "ym2612"
    },
    {
      "channel": 1,
      "note": 67,
      "start": 77.8081,
      "duration": 0.2179,
      "velocity": 93,
      "chip": "ym2612"
    },
    {
      "channel": 3,
      "note": 81,
      "start": 77.8083,
      "duration": 0.1089,
      "velocity": 94,
      "chip": "ym2612"
    },
    {
      "channel": 0,
      "note": 98,
      "start": 77.9169,
      "duration": 0.0309,
      "velocity": 114,
      "chip": "ym2612"
    },
    {
      "channel": 3,
      "note": 69,
      "start": 77.9172,
      "duration": 0.109,
      "velocity": 94,
      "chip": "ym2612"
    },
    {
      "channel": 5,
      "note": 76,
      "start": 77.9174,
      "duration": 0.109,
      "velocity": 94,
      "chip": "ym2612"
    },
    {
      "channel": 0,
      "note": 98,
      "start": 78.0259,
      "duration": 0.1089,
      "velocity": 114,
      "chip": "ym2612"
    },
    {
      "channel": 1,
      "note": 67,
      "start": 78.026,
      "duration": 0.2178,
      "velocity": 93,
      "chip": "ym2612"
    },
    {
      "channel": 3,
      "note": 81,
      "start": 78.0262,
      "duration": 0.1089,
      "velocity": 94,
      "chip": "ym2612"
    },
    {
      "channel": 5,
      "note": 81,
      "start": 78.0264,
      "duration": 0.1089,
      "velocity": 94,
      "chip": "ym2612"
    },
    {
      "channel": 0,
      "note": 54,
      "start": 78.1348,
      "duration": 0.0309,
      "velocity": 114,
      "chip": "ym2612"
    },
    {
      "channel": 3,
      "note": 71,
      "start": 78.1351,
      "duration": 0.109,
      "velocity": 94,
      "chip": "ym2612"
    },
    {
      "channel": 5,
      "note": 69,
      "start": 78.1353,
      "duration": 0.109,
      "velocity": 94,
      "chip": "ym2612"
    },
    {
      "channel": 0,
      "note": 98,
      "start": 78.2437,
      "duration": 0.0309,
      "velocity": 114,
      "chip": "ym2612"
    },
    {
      "channel": 1,
      "note": 67,
      "start": 78.2439,
      "duration": 0.2179,
      "velocity": 93,
      "chip": "ym2612"
    },
    {
      "channel": 3,
      "note": 74,
      "start": 78.2441,
      "duration": 0.1089,
      "velocity": 94,
      "chip": "ym2612"
    },
    {
      "channel": 5,
      "note": 81,
      "start": 78.2443,
      "duration": 0.1088,
      "velocity": 94,
      "chip": "ym2612"
    },
    {
      "channel": 0,
      "note": 98,
      "start": 78.3527,
      "duration": 0.0309,
      "velocity": 114,
      "chip": "ym2612"
    },
    {
      "channel": 5,
      "note": 71,
      "start": 78.3532,
      "duration": 0.109,
      "velocity": 94,
      "chip": "ym2612"
    },
    {
      "channel": 0,
      "note": 98,
      "start": 78.4616,
      "duration": 0.0154,
      "velocity": 127,
      "chip": "ym2612"
    },
    {
      "channel": 1,
      "note": 67,
      "start": 78.4618,
      "duration": 0.2178,
      "velocity": 93,
      "chip": "ym2612"
    },
    {
      "channel": 3,
      "note": 76,
      "start": 78.462,
      "duration": 0.1089,
      "velocity": 94,
      "chip": "ym2612"
    },
    {
      "channel": 5,
      "note": 74,
      "start": 78.4622,
      "duration": 0.1089,
      "velocity": 94,
      "chip": "ym2612"
    },
    {
      "channel": 0,
      "note": 76,
      "start": 78.477,
      "duration": 0.0936,
      "velocity": 114,
      "chip": "ym2612"
    },
    {
      "channel": 0,
      "note": 68,
      "start": 78.5706,
      "duration": 0.0309,
      "velocity": 114,
      "chip": "ym2612"
    },
    {
      "channel": 0,
      "note": 98,
      "start": 78.6795,
      "duration": 0.0309,
      "velocity": 114,
      "chip": "ym2612"
    },
    {
      "channel": 1,
      "note": 67,
      "start": 78.6796,
      "duration": 0.2179,
      "velocity": 93,
      "chip": "ym2612"
    },
    {
      "channel": 3,
      "note": 78,
      "start": 78.6799,
      "duration": 0.1088,
      "velocity": 94,
      "chip": "ym2612"
    },
    {
      "channel": 5,
      "note": 76,
      "start": 78.6801,
      "duration": 0.1089,
      "velocity": 94,
      "chip": "ym2612"
    },
    {
      "channel": 0,
      "note": 98,
      "start": 78.7885,
      "duration": 0.0309,
      "velocity": 114,
      "chip": "ym2612"
    },
    {
      "channel": 3,
      "note": 81,
      "start": 78.7887,
      "duration": 0.109,
      "velocity": 94,
      "chip": "ym2612"
    },
    {
      "channel": 5,
      "note": 78,
      "start": 78.789,
      "duration": 0.109,
      "velocity": 94,
      "chip": "ym2612"
    },
    {
      "channel": 0,
      "note": 98,
      "start": 78.8974,
      "duration": 0.1089,
      "velocity": 114,
      "chip": "ym2612"
    },
    {
      "channel": 1,
      "note": 67,
      "start": 78.8976,
      "duration": 0.2178,
      "velocity": 93,
      "chip": "ym2612"
    },
    {
      "channel": 3,
      "note": 69,
      "start": 78.8977,
      "duration": 0.1089,
      "velocity": 94,
      "chip": "ym2612"
    },
    {
      "channel": 5,
      "note": 81,
      "start": 78.898,
      "duration": 0.1089,
      "velocity": 94,
      "chip": "ym2612"
    },
    {
      "channel": 0,
      "note": 54,
      "start": 79.0063,
      "duration": 0.0309,
      "velocity": 114,
      "chip": "ym2612"
    },
    {
      "channel": 3,
      "note": 74,
      "start": 79.0066,
      "duration": 0.109,
      "velocity": 94,
      "chip": "ym2612"
    },
    {
      "channel": 5,
      "note": 69,
      "start": 79.0068,
      "duration": 0.1089,
      "velocity": 94,
      "chip": "ym2612"
    },
    {
      "channel": 0,
      "note": 98,
      "start": 79.1153,
      "duration": 0.0309,
      "velocity": 114,
      "chip": "ym2612"
    },
    {
      "channel": 1,
      "note": 67,
      "start": 79.1154,
      "duration": 0.2179,
      "velocity": 93,
      "chip": "ym2612"
    },
    {
      "channel": 5,
      "note": 74,
      "start": 79.1158,
      "duration": 0.1089,
      "velocity": 94,
      "chip": "ym2612"
    },
    {
      "channel": 0,
      "note": 98,
      "start": 79.2242,
      "duration": 0.0309,
      "velocity": 114,
      "chip": "ym2612"
    },
    {
      "channel": 3,
      "note": 76,
      "start": 79.2245,
      "duration": 0.109,
      "velocity": 94,
      "chip": "ym2612"
    },
    {
      "channel": 0,
      "note": 98,
      "start": 79.3332,
      "duration": 0.0154,
      "velocity": 127,
      "chip": "ym2612"
    },
    {
      "channel": 1,
      "note": 67,
      "start": 79.3333,
      "duration": 0.2179,
      "velocity": 93,
      "chip": "ym2612"
    },
    {
      "channel": 3,
      "note": 81,
      "start": 79.3335,
      "duration": 0.1089,
      "velocity": 94,
      "chip": "ym2612"
    },
    {
      "channel": 5,
      "note": 76,
      "start": 79.3337,
      "duration": 0.1089,
      "velocity": 94,
      "chip": "ym2612"
    },
    {
      "channel": 0,
      "note": 76,
      "start": 79.3485,
      "duration": 0.0936,
      "velocity": 114,
      "chip": "ym2612"
    },
    {
      "channel": 0,
      "note": 68,
      "start": 79.4421,
      "duration": 0.0309,
      "velocity": 114,
      "chip": "ym2612"
    },
    {
      "channel": 3,
      "note": 69,
      "start": 79.4424,
      "duration": 0.109,
      "velocity": 94,
      "chip": "ym2612"
    },
    {
      "channel": 5,
      "note": 81,
      "start": 79.4426,
      "duration": 0.109,
      "velocity": 94,
      "chip": "ym2612"
    },
    {
      "channel": 0,
      "note": 98,
      "start": 79.551,
      "duration": 0.0309,
      "velocity": 114,
      "chip": "ym2612"
    },
    {
      "channel": 1,
      "note": 67,
      "start": 79.5512,
      "duration": 0.2179,
      "velocity": 93,
      "chip": "ym2612"
    },
    {
      "channel": 3,
      "note": 81,
      "start": 79.5514,
      "duration": 0.1089,
      "velocity": 94,
      "chip": "ym2612"
    },
    {
      "channel": 5,
      "note": 69,
      "start": 79.5516,
      "duration": 0.1089,
      "velocity": 94,
      "chip": "ym2612"
    },
    {
      "channel": 0,
      "note": 98,
      "start": 79.66,
      "duration": 0.0309,
      "velocity": 114,
      "chip": "ym2612"
    },
    {
      "channel": 3,
      "note": 71,
      "start": 79.6602,
      "duration": 0.109,
      "velocity": 94,
      "chip": "ym2612"
    },
    {
      "channel": 5,
      "note": 81,
      "start": 79.6605,
      "duration": 0.109,
      "velocity": 94,
      "chip": "ym2612"
    },
    {
      "channel": 0,
      "note": 98,
      "start": 79.7689,
      "duration": 0.1089,
      "velocity": 127,
      "chip": "ym2612"
    },
    {
      "channel": 1,
      "note": 67,
      "start": 79.7691,
      "duration": 0.2179,
      "velocity": 93,
      "chip": "ym2612"
    },
    {
      "channel": 3,
      "note": 74,
      "start": 79.7693,
      "duration": 0.1089,
      "velocity": 94,
      "chip": "ym2612"
    },
    {
      "channel": 5,
      "note": 71,
      "start": 79.7695,
      "duration": 0.1088,
      "velocity": 94,
      "chip": "ym2612"
    },
    {
      "channel": 0,
      "note": 54,
      "start": 79.8779,
      "duration": 0.0154,
      "velocity": 127,
      "chip": "ym2612"
    },
    {
      "channel": 5,
      "note": 74,
      "start": 79.8784,
      "duration": 0.109,
      "velocity": 94,
      "chip": "ym2612"
    },
    {
      "channel": 0,
      "note": 76,
      "start": 79.8932,
      "duration": 0.0936,
      "velocity": 114,
      "chip": "ym2612"
    },
    {
      "channel": 0,
      "note": 68,
      "start": 79.9868,
      "duration": 0.0309,
      "velocity": 114,
      "chip": "ym2612"
    },
    {
      "channel": 1,
      "note": 67,
      "start": 79.9869,
      "duration": 0.2179,
      "velocity": 93,
      "chip": "ym2612"
    },
    {
      "channel": 3,
      "note": 76,
      "start": 79.9871,
      "duration": 0.1089,
      "velocity": 94,
      "chip": "ym2612"
    },
    {
      "channel": 0,
      "note": 98,
      "start": 80.0958,
      "duration": 0.0309,
      "velocity": 114,
      "chip": "ym2612"
    },
    {
      "channel": 5,
      "note": 76,
      "start": 80.0962,
      "duration": 0.1093,
      "velocity": 94,
      "chip": "ym2612"
    },
    {
      "channel": 0,
      "note": 98,
      "start": 80.2047,
      "duration": 0.1089,
      "velocity": 114,
      "chip": "ym2612"
    },
    {
      "channel": 1,
      "note": 67,
      "start": 80.2049,
      "duration": 0.2178,
      "velocity": 93,
      "chip": "ym2612"
    },
    {
      "channel": 2,
      "note": 43,
      "start": 80.205,
      "duration": 3.0503,
      "velocity": 121,
      "chip": "ym2612"
    },
    {
      "channel": 3,
      "note": 78,
      "start": 80.2052,
      "duration": 0.1087,
      "velocity": 94,
      "chip": "ym2612"
    },
    {
      "channel": 5,
      "note": 78,
      "start": 80.2055,
      "duration": 0.1087,
      "velocity": 94,
      "chip": "ym2612"
    },
    {
      "channel": 0,
      "note": 54,
      "start": 80.3136,
      "duration": 0.0309,
      "velocity": 114,
      "chip": "ym2612"
    },
    {
      "channel": 3,
      "note": 81,
      "start": 80.3139,
      "duration": 0.109,
      "velocity": 94,
      "chip": "ym2612"
    },
    {
      "channel": 5,
      "note": 81,
      "start": 80.3141,
      "duration": 0.109,
      "velocity": 94,
      "chip": "ym2612"
    },
    {
      "channel": 4,
      "note": 43,
      "start": 80.3916,
      "duration": 3.0504,
      "velocity": 121,
      "chip": "ym2612"
    },
    {
      "channel": 0,
      "note": 98,
      "start": 80.4226,
      "duration": 0.0309,
      "velocity": 114,
      "chip": "ym2612"
    },
    {
      "channel": 1,
      "note": 62,
      "start": 80.4227,
      "duration": 0.218,
      "velocity": 93,
      "chip": "ym2612"
    },
    {
      "channel": 3,
      "note": 69,
      "start": 80.4229,
      "duration": 0.1089,
      "velocity": 94,
      "chip": "ym2612"
    },
    {
      "channel": 5,
      "note": 69,
      "start": 80.4231,
      "duration": 0.1089,
      "velocity": 94,
      "chip": "ym2612"
    },
    {
      "channel": 0,
      "note": 98,
      "start": 80.5315,
      "duration": 0.0309,
      "velocity": 114,
      "chip": "ym2612"
    },
    {
      "channel": 3,
      "note": 74,
      "start": 80.5318,
      "duration": 0.1092,
      "velocity": 94,
      "chip": "ym2612"
    },
    {
      "channel": 5,
      "note": 74,
      "start": 80.532,
      "duration": 0.1092,
      "velocity": 94,
      "chip": "ym2612"
    },
    {
      "channel": 0,
      "note": 98,
      "start": 80.6406,
      "duration": 0.0152,
      "velocity": 127,
      "chip": "ym2612"
    },
    {
      "channel": 1,
      "note": 62,
      "start": 80.6408,
      "duration": 0.2177,
      "velocity": 93,
      "chip": "ym2612"
    },
    {
      "channel": 0,
      "note": 76,
      "start": 80.6558,
      "duration": 0.0936,
      "velocity": 114,
      "chip": "ym2612"
    },
    {
      "channel": 0,
      "note": 68,
      "start": 80.7494,
      "duration": 0.0309,
      "velocity": 114,
      "chip": "ym2612"
    },
    {
      "channel": 3,
      "note": 76,
      "start": 80.7497,
      "duration": 0.109,
      "velocity": 94,
      "chip": "ym2612"
    },
    {
      "channel": 5,
      "note": 76,
      "start": 80.7499,
      "duration": 0.109,
      "velocity": 94,
      "chip": "ym2612"
    },
    {
      "channel": 0,
      "note": 98,
      "start": 80.8583,
      "duration": 0.0309,
      "velocity": 114,
      "chip": "ym2612"
    },
    {
      "channel": 1,
      "note": 62,
      "start": 80.8585,
      "duration": 0.2179,
      "velocity": 93,
      "chip": "ym2612"
    },
    {
      "channel": 3,
      "note": 81,
      "start": 80.8587,
      "duration": 0.1089,
      "velocity": 94,
      "chip": "ym2612"
    },
    {
      "channel": 5,
      "note": 81,
      "start": 80.8589,
      "duration": 0.1089,
      "velocity": 94,
      "chip": "ym2612"
    },
    {
      "channel": 0,
      "note": 98,
      "start": 80.9673,
      "duration": 0.0309,
      "velocity": 114,
      "chip": "ym2612"
    },
    {
      "channel": 3,
      "note": 69,
      "start": 80.9676,
      "duration": 0.109,
      "velocity": 94,
      "chip": "ym2612"
    },
    {
      "channel": 5,
      "note": 69,
      "start": 80.9678,
      "duration": 0.109,
      "velocity": 94,
      "chip": "ym2612"
    },
    {
      "channel": 0,
      "note": 98,
      "start": 81.0762,
      "duration": 0.1089,
      "velocity": 114,
      "chip": "ym2612"
    },
    {
      "channel": 1,
      "note": 62,
      "start": 81.0764,
      "duration": 0.2178,
      "velocity": 93,
      "chip": "ym2612"
    },
    {
      "channel": 3,
      "note": 81,
      "start": 81.0766,
      "duration": 0.1089,
      "velocity": 94,
      "chip": "ym2612"
    },
    {
      "channel": 5,
      "note": 81,
      "start": 81.0768,
      "duration": 0.1089,
      "velocity": 94,
      "chip": "ym2612"
    },
    {
      "channel": 0,
      "note": 54,
      "start": 81.1852,
      "duration": 0.0309,
      "velocity": 114,
      "chip": "ym2612"
    },
    {
      "channel": 3,
      "note": 71,
      "start": 81.1854,
      "duration": 0.109,
      "velocity": 94,
      "chip": "ym2612"
    },
    {
      "channel": 5,
      "note": 71,
      "start": 81.1857,
      "duration": 0.109,
      "velocity": 94,
      "chip": "ym2612"
    },
    {
      "channel": 0,
      "note": 98,
      "start": 81.2941,
      "duration": 0.0309,
      "velocity": 114,
      "chip": "ym2612"
    },
    {
      "channel": 1,
      "note": 62,
      "start": 81.2942,
      "duration": 0.2179,
      "velocity": 93,
      "chip": "ym2612"
    },
    {
      "channel": 3,
      "note": 74,
      "start": 81.2944,
      "duration": 0.1089,
      "velocity": 94,
      "chip": "ym2612"
    },
    {
      "channel": 5,
      "note": 74,
      "start": 81.2947,
      "duration": 0.1088,
      "velocity": 94,
      "chip": "ym2612"
    },
    {
      "channel": 0,
      "note": 98,
      "start": 81.4031,
      "duration": 0.0309,
      "velocity": 114,
      "chip": "ym2612"
    },
    {
      "channel": 0,
      "note": 98,
      "start": 81.512,
      "duration": 0.0154,
      "velocity": 127,
      "chip": "ym2612"
    },
    {
      "channel": 1,
      "note": 62,
      "start": 81.5121,
      "duration": 0.2178,
      "velocity": 93,
      "chip": "ym2612"
    },
    {
      "channel": 3,
      "note": 76,
      "start": 81.5123,
      "duration": 0.1089,
      "velocity": 94,
      "chip": "ym2612"
    },
    {
      "channel": 5,
      "note": 76,
      "start": 81.5125,
      "duration": 0.1089,
      "velocity": 94,
      "chip": "ym2612"
    },
    {
      "channel": 0,
      "note": 76,
      "start": 81.5273,
      "duration": 0.0936,
      "velocity": 114,
      "chip": "ym2612"
    },
    {
      "channel": 0,
      "note": 68,
      "start": 81.6209,
      "duration": 0.0309,
      "velocity": 114,
      "chip": "ym2612"
    },
    {
      "channel": 5,
      "note": 78,
      "start": 81.6215,
      "duration": 0.109,
      "velocity": 94,
      "chip": "ym2612"
    },
    {
      "channel": 0,
      "note": 98,
      "start": 81.7299,
      "duration": 0.0309,
      "velocity": 114,
      "chip": "ym2612"
    },
    {
      "channel": 1,
      "note": 62,
      "start": 81.73,
      "duration": 0.2179,
      "velocity": 93,
      "chip": "ym2612"
    },
    {
      "channel": 3,
      "note": 78,
      "start": 81.7302,
      "duration": 0.1088,
      "velocity": 94,
      "chip": "ym2612"
    },
    {
      "channel": 5,
      "note": 81,
      "start": 81.7305,
      "duration": 0.1088,
      "velocity": 94,
      "chip": "ym2612"
    },
    {
      "channel": 0,
      "note": 98,
      "start": 81.8388,
      "duration": 0.0309,
      "velocity": 114,
      "chip": "ym2612"
    },
    {
      "channel": 3,
      "note": 81,
      "start": 81.8391,
      "duration": 0.109,
      "velocity": 94,
      "chip": "ym2612"
    },
    {
      "channel": 5,
      "note": 69,
      "start": 81.8393,
      "duration": 0.109,
      "velocity": 94,
      "chip": "ym2612"
    },
    {
      "channel": 0,
      "note": 98,
      "start": 81.9478,
      "duration": 0.1089,
      "velocity": 114,
      "chip": "ym2612"
    },
    {
      "channel": 1,
      "note": 62,
      "start": 81.9479,
      "duration": 0.2178,
      "velocity": 93,
      "chip": "ym2612"
    },
    {
      "channel": 3,
      "note": 69,
      "start": 81.9481,
      "duration": 0.109,
      "velocity": 94,
      "chip": "ym2612"
    },
    {
      "channel": 5,
      "note": 74,
      "start": 81.9483,
      "duration": 0.109,
      "velocity": 94,
      "chip": "ym2612"
    },
    {
      "channel": 0,
      "note": 54,
      "start": 82.0567,
      "duration": 0.0309,
      "velocity": 114,
      "chip": "ym2612"
    },
    {
      "channel": 3,
      "note": 74,
      "start": 82.0572,
      "duration": 0.1088,
      "velocity": 94,
      "chip": "ym2612"
    },
    {
      "channel": 0,
      "note": 98,
      "start": 82.1656,
      "duration": 0.0309,
      "velocity": 114,
      "chip": "ym2612"
    },
    {
      "channel": 1,
      "note": 62,
      "start": 82.1658,
      "duration": 0.2179,
      "velocity": 93,
      "chip": "ym2612"
    },
    {
      "channel": 5,
      "note": 76,
      "start": 82.1662,
      "duration": 0.1089,
      "velocity": 94,
      "chip": "ym2612"
    },
    {
      "channel": 0,
      "note": 98,
      "start": 82.2746,
      "duration": 0.0309,
      "velocity": 114,
      "chip": "ym2612"
    },
    {
      "channel": 3,
      "note": 76,
      "start": 82.2749,
      "duration": 0.109,
      "velocity": 94,
      "chip": "ym2612"
    },
    {
      "channel": 5,
      "note": 81,
      "start": 82.2751,
      "duration": 0.109,
      "velocity": 94,
      "chip": "ym2612"
    },
    {
      "channel": 0,
      "note": 98,
      "start": 82.3835,
      "duration": 0.0154,
      "velocity": 127,
      "chip": "ym2612"
    },
    {
      "channel": 1,
      "note": 62,
      "start": 82.3837,
      "duration": 0.2178,
      "velocity": 93,
      "chip": "ym2612"
    },
    {
      "channel": 3,
      "note": 81,
      "start": 82.3839,
      "duration": 0.1089,
      "velocity": 94,
      "chip": "ym2612"
    },
    {
      "channel": 5,
      "note": 69,
      "start": 82.3841,
      "duration": 0.1089,
      "velocity": 94,
      "chip": "ym2612"
    },
    {
      "channel": 0,
      "note": 76,
      "start": 82.3989,
      "duration": 0.0936,
      "velocity": 114,
      "chip": "ym2612"
    },
    {
      "channel": 0,
      "note": 68,
      "start": 82.4925,
      "duration": 0.0309,
      "velocity": 114,
      "chip": "ym2612"
    },
    {
      "channel": 3,
      "note": 69,
      "start": 82.4927,
      "duration": 0.109,
      "velocity": 94,
      "chip": "ym2612"
    },
    {
      "channel": 5,
      "note": 81,
      "start": 82.493,
      "duration": 0.109,
      "velocity": 94,
      "chip": "ym2612"
    },
    {
      "channel": 0,
      "note": 98,
      "start": 82.6014,
      "duration": 0.0309,
      "velocity": 114,
      "chip": "ym2612"
    },
    {
      "channel": 1,
      "note": 62,
      "start": 82.6015,
      "duration": 0.2179,
      "velocity": 93,
      "chip": "ym2612"
    },
    {
      "channel": 3,
      "note": 81,
      "start": 82.6017,
      "duration": 0.1089,
      "velocity": 94,
      "chip": "ym2612"
    },
    {
      "channel": 5,
      "note": 71,
      "start": 82.602,
      "duration": 0.1089,
      "velocity": 94,
      "chip": "ym2612"
    },
    {
      "channel": 0,
      "note": 98,
      "start": 82.7104,
      "duration": 0.0309,
      "velocity": 114,
      "chip": "ym2612"
    },
    {
      "channel": 3,
      "note": 71,
      "start": 82.7106,
      "duration": 0.109,
      "velocity": 94,
      "chip": "ym2612"
    },
    {
      "channel": 5,
      "note": 74,
      "start": 82.7109,
      "duration": 0.109,
      "velocity": 94,
      "chip": "ym2612"
    },
    {
      "channel": 0,
      "note": 98,
      "start": 82.8193,
      "duration": 0.1089,
      "velocity": 127,
      "chip": "ym2612"
    },
    {
      "channel": 1,
      "note": 62,
      "start": 82.8194,
      "duration": 0.2179,
      "velocity": 93,
      "chip": "ym2612"
    },
    {
      "channel": 3,
      "note": 74,
      "start": 82.8196,
      "duration": 0.1089,
      "velocity": 94,
      "chip": "ym2612"
    },
    {
      "channel": 0,
      "note": 54,
      "start": 82.9282,
      "duration": 0.0154,
      "velocity": 127,
      "chip": "ym2612"
    },
    {
      "channel": 5,
      "note": 76,
      "start": 82.9287,
      "duration": 0.109,
      "velocity": 94,
      "chip": "ym2612"
    },
    {
      "channel": 0,
      "note": 76,
      "start": 82.9436,
      "duration": 0.0936,
      "velocity": 114,
      "chip": "ym2612"
    },
    {
      "channel": 0,
      "note": 68,
      "start": 83.0372,
      "duration": 0.0309,
      "velocity": 114,
      "chip": "ym2612"
    },
    {
      "channel": 1,
      "note": 62,
      "start": 83.0373,
      "duration": 0.2179,
      "velocity": 93,
      "chip": "ym2612"
    },
    {
      "channel": 3,
      "note": 76,
      "start": 83.0375,
      "duration": 0.1089,
      "velocity": 94,
      "chip": "ym2612"
    },
    {
      "channel": 5,
      "note": 78,
      "start": 83.0378,
      "duration": 0.1088,
      "velocity": 94,
      "chip": "ym2612"
    },
    {
      "channel": 0,
      "note": 98,
      "start": 83.1461,
      "duration": 0.0309,
      "velocity": 114,
      "chip": "ym2612"
    },
    {
      "channel": 5,
      "note": 81,
      "start": 83.1466,
      "duration": 0.1092,
      "velocity": 94,
      "chip": "ym2612"
    },
    {
      "channel": 0,
      "note": 98,
      "start": 83.2551,
      "duration": 0.1089,
      "velocity": 114,
      "chip": "ym2612"
    },
    {
      "channel": 1,
      "note": 62,
      "start": 83.2552,
      "duration": 0.2178,
      "velocity": 93,
      "chip": "ym2612"
    },
    {
      "channel": 2,
      "note": 50,
      "start": 83.2554,
      "duration": 3.0503,
      "velocity": 121,
      "chip": "ym2612"
    },
    {
      "channel": 3,
      "note": 78,
      "start": 83.2555,
      "duration": 0.1088,
      "velocity": 94,
      "chip": "ym2612"
    },
    {
      "channel": 5,
      "note": 69,
      "start": 83.2558,
      "duration": 0.1087,
      "velocity": 94,
      "chip": "ym2612"
    },
    {
      "channel": 0,
      "note": 54,
      "start": 83.364,
      "duration": 0.0309,
      "velocity": 114,
      "chip": "ym2612"
    },
    {
      "channel": 3,
      "note": 81,
      "start": 83.3643,
      "duration": 0.109,
      "velocity": 94,
      "chip": "ym2612"
    },
    {
      "channel": 5,
      "note": 74,
      "start": 83.3645,
      "duration": 0.1089,
      "velocity": 94,
      "chip": "ym2612"
    },
    {
      "channel": 4,
      "note": 50,
      "start": 83.4419,
      "duration": 3.0504,
      "velocity": 121,
      "chip": "ym2612"
    },
    {
      "channel": 0,
      "note": 98,
      "start": 83.4729,
      "duration": 0.0309,
      "velocity": 114,
      "chip": "ym2612"
    },
    {
      "channel": 1,
      "note": 59,
      "start": 83.4731,
      "duration": 0.2179,
      "velocity": 93,
      "chip": "ym2612"
    },
    {
      "channel": 3,
      "note": 69,
      "start": 83.4733,
      "duration": 0.1089,
      "velocity": 94,
      "chip": "ym2612"
    },
    {
      "channel": 0,
      "note": 98,
      "start": 83.5819,
      "duration": 0.0309,
      "velocity": 114,
      "chip": "ym2612"
    },
    {
      "channel": 3,
      "note": 74,
      "start": 83.5822,
      "duration": 0.109,
      "velocity": 94,
      "chip": "ym2612"
    },
    {
      "channel": 5,
      "note": 76,
      "start": 83.5824,
      "duration": 0.109,
      "velocity": 94,
      "chip": "ym2612"
    },
    {
      "channel": 0,
      "note": 98,
      "start": 83.6908,
      "duration": 0.0154,
      "velocity": 127,
      "chip": "ym2612"
    },
    {
      "channel": 1,
      "note": 59,
      "start": 83.691,
      "duration": 0.2179,
      "velocity": 93,
      "chip": "ym2612"
    },
    {
      "channel": 5,
      "note": 81,
      "start": 83.6914,
      "duration": 0.1089,
      "velocity": 94,
      "chip": "ym2612"
    },
    {
      "channel": 0,
      "note": 76,
      "start": 83.7062,
      "duration": 0.0936,
      "velocity": 114,
      "chip": "ym2612"
    },
    {
      "channel": 0,
      "note": 68,
      "start": 83.7998,
      "duration": 0.0309,
      "velocity": 114,
      "chip": "ym2612"
    },
    {
      "channel": 3,
      "note": 76,
      "start": 83.8,
      "duration": 0.109,
      "velocity": 94,
      "chip": "ym2612"
    },
    {
      "channel": 5,
      "note": 69,
      "start": 83.8003,
      "duration": 0.109,
      "velocity": 94,
      "chip": "ym2612"
    },
    {
      "channel": 0,
      "note": 98,
      "start": 83.9087,
      "duration": 0.0309,
      "velocity": 114,
      "chip": "ym2612"
    },
    {
      "channel": 1,
      "note": 59,
      "start": 83.9088,
      "duration": 0.2179,
      "velocity": 93,
      "chip": "ym2612"
    },
    {
      "channel": 3,
      "note": 81,
      "start": 83.909,
      "duration": 0.1089,
      "velocity": 94,
      "chip": "ym2612"
    },
    {
      "channel": 5,
      "note": 81,
      "start": 83.9093,
      "duration": 0.1089,
      "velocity": 94,
      "chip": "ym2612"
    },
    {
      "channel": 0,
      "note": 98,
      "start": 84.0177,
      "duration": 0.0309,
      "velocity": 114,
      "chip": "ym2612"
    },
    {
      "channel": 3,
      "note": 69,
      "start": 84.0179,
      "duration": 0.109,
      "velocity": 94,
      "chip": "ym2612"
    },
    {
      "channel": 5,
      "note": 71,
      "start": 84.0182,
      "duration": 0.109,
      "velocity": 94,
      "chip": "ym2612"
    },
    {
      "channel": 0,
      "note": 98,
      "start": 84.1266,
      "duration": 0.1089,
      "velocity": 114,
      "chip": "ym2612"
    },
    {
      "channel": 1,
      "note": 59,
      "start": 84.1268,
      "duration": 0.2178,
      "velocity": 93,
      "chip": "ym2612"
    },
    {
      "channel": 3,
      "note": 81,
      "start": 84.1269,
      "duration": 0.1089,
      "velocity": 94,
      "chip": "ym2612"
    },
    {
      "channel": 5,
      "note": 74,
      "start": 84.1272,
      "duration": 0.1088,
      "velocity": 94,
      "chip": "ym2612"
    },
    {
      "channel": 0,
      "note": 54,
      "start": 84.2355,
      "duration": 0.0309,
      "velocity": 114,
      "chip": "ym2612"
    },
    {
      "channel": 3,
      "note": 71,
      "start": 84.2358,
      "duration": 0.109,
      "velocity": 94,
      "chip": "ym2612"
    },
    {
      "channel": 0,
      "note": 98,
      "start": 84.3445,
      "duration": 0.0309,
      "velocity": 114,
      "chip": "ym2612"
    },
    {
      "channel": 1,
      "note": 59,
      "start": 84.3446,
      "duration": 0.2179,
      "velocity": 93,
      "chip": "ym2612"
    },
    {
      "channel": 3,
      "note": 74,
      "start": 84.3448,
      "duration": 0.1089,
      "velocity": 94,
      "chip": "ym2612"
    },
    {
      "channel": 5,
      "note": 76,
      "start": 84.345,
      "duration": 0.1089,
      "velocity": 94,
      "chip": "ym2612"
    },
    {
      "channel": 0,
      "note": 98,
      "start": 84.4534,
      "duration": 0.0309,
      "velocity": 114,
      "chip": "ym2612"
    },
    {
      "channel": 5,
      "note": 78,
      "start": 84.4539,
      "duration": 0.109,
      "velocity": 94,
      "chip": "ym2612"
    },
    {
      "channel": 0,
      "note": 98,
      "start": 84.5624,
      "duration": 0.0154,
      "velocity": 127,
      "chip": "ym2612"
    },
    {
      "channel": 1,
      "note": 59,
      "start": 84.5625,
      "duration": 0.2178,
      "velocity": 93,
      "chip": "ym2612"
    },
    {
      "channel": 3,
      "note": 76,
      "start": 84.5627,
      "duration": 0.1089,
      "velocity": 94,
      "chip": "ym2612"
    },
    {
      "channel": 5,
      "note": 81,
      "start": 84.5629,
      "duration": 0.1089,
      "velocity": 94,
      "chip": "ym2612"
    },
    {
      "channel": 0,
      "note": 76,
      "start": 84.5777,
      "duration": 0.0936,
      "velocity": 114,
      "chip": "ym2612"
    },
    {
      "channel": 0,
      "note": 68,
      "start": 84.6713,
      "duration": 0.0309,
      "velocity": 114,
      "chip": "ym2612"
    },
    {
      "channel": 5,
      "note": 69,
      "start": 84.6718,
      "duration": 0.1091,
      "velocity": 94,
      "chip": "ym2612"
    },
    {
      "channel": 0,
      "note": 98,
      "start": 84.7802,
      "duration": 0.0309,
      "velocity": 114,
      "chip": "ym2612"
    },
    {
      "channel": 1,
      "note": 59,
      "start": 84.7804,
      "duration": 0.2179,
      "velocity": 93,
      "chip": "ym2612"
    },
    {
      "channel": 3,
      "note": 78,
      "start": 84.7806,
      "duration": 0.1088,
      "velocity": 94,
      "chip": "ym2612"
    },
    {
      "channel": 5,
      "note": 74,
      "start": 84.7809,
      "duration": 0.1088,
      "velocity": 94,
      "chip": "ym2612"
    },
    {
      "channel": 0,
      "note": 98,
      "start": 84.8892,
      "duration": 0.0309,
      "velocity": 114,
      "chip": "ym2612"
    },
    {
      "channel": 3,
      "note": 81,
      "start": 84.8895,
      "duration": 0.109,
      "velocity": 94,
      "chip": "ym2612"
    },
    {
      "channel": 0,
      "note": 98,
      "start": 84.9981,
      "duration": 0.1091,
      "velocity": 114,
      "chip": "ym2612"
    },
    {
      "channel": 1,
      "note": 59,
      "start": 84.9983,
      "duration": 0.2178,
      "velocity": 93,
      "chip": "ym2612"
    },
    {
      "channel": 3,
      "note": 69,
      "start": 84.9985,
      "duration": 0.109,
      "velocity": 94,
      "chip": "ym2612"
    },
    {
      "channel": 5,
      "note": 76,
      "start": 84.9987,
      "duration": 0.109,
      "velocity": 94,
      "chip": "ym2612"
    },
    {
      "channel": 0,
      "note": 54,
      "start": 85.1072,
      "duration": 0.0307,
      "velocity": 114,
      "chip": "ym2612"
    },
    {
      "channel": 3,
      "note": 74,
      "start": 85.1075,
      "duration": 0.1088,
      "velocity": 94,
      "chip": "ym2612"
    },
    {
      "channel": 5,
      "note": 81,
      "start": 85.1078,
      "duration": 0.1088,
      "velocity": 94,
      "chip": "ym2612"
    },
    {
      "channel": 0,
      "note": 98,
      "start": 85.216,
      "duration": 0.0309,
      "velocity": 114,
      "chip": "ym2612"
    },
    {
      "channel": 1,
      "note": 59,
      "start": 85.2161,
      "duration": 0.2179,
      "velocity": 93,
      "chip": "ym2612"
    },
    {
      "channel": 5,
      "note": 69,
      "start": 85.2165,
      "duration": 0.1089,
      "velocity": 94,
      "chip": "ym2612"
    },
    {
      "channel": 0,
      "note": 98,
      "start": 85.325,
      "duration": 0.0309,
      "velocity": 114,
      "chip": "ym2612"
    },
    {
      "channel": 3,
      "note": 76,
      "start": 85.3252,
      "duration": 0.109,
      "velocity": 94,
      "chip": "ym2612"
    },
    {
      "channel": 5,
      "note": 81,
      "start": 85.3254,
      "duration": 0.109,
      "velocity": 94,
      "chip": "ym2612"
    },
    {
      "channel": 0,
      "note": 98,
      "start": 85.4339,
      "duration": 0.0154,
      "velocity": 127,
      "chip": "ym2612"
    },
    {
      "channel": 1,
      "note": 59,
      "start": 85.434,
      "duration": 0.2178,
      "velocity": 93,
      "chip": "ym2612"
    },
    {
      "channel": 3,
      "note": 81,
      "start": 85.4342,
      "duration": 0.1089,
      "velocity": 94,
      "chip": "ym2612"
    },
    {
      "channel": 5,
      "note": 71,
      "start": 85.4345,
      "duration": 0.1089,
      "velocity": 94,
      "chip": "ym2612"
    },
    {
      "channel": 0,
      "note": 76,
      "start": 85.4493,
      "duration": 0.0936,
      "velocity": 114,
      "chip": "ym2612"
    },
    {
      "channel": 0,
      "note": 68,
      "start": 85.5428,
      "duration": 0.031,
      "velocity": 114,
      "chip": "ym2612"
    },
    {
      "channel": 3,
      "note": 69,
      "start": 85.5431,
      "duration": 0.109,
      "velocity": 94,
      "chip": "ym2612"
    },
    {
      "channel": 5,
      "note": 74,
      "start": 85.5434,
      "duration": 0.109,
      "velocity": 94,
      "chip": "ym2612"
    },
    {
      "channel": 0,
      "note": 98,
      "start": 85.6518,
      "duration": 0.0309,
      "velocity": 114,
      "chip": "ym2612"
    },
    {
      "channel": 1,
      "note": 59,
      "start": 85.6519,
      "duration": 0.2179,
      "velocity": 93,
      "chip": "ym2612"
    },
    {
      "channel": 3,
      "note": 81,
      "start": 85.6521,
      "duration": 0.1089,
      "velocity": 94,
      "chip": "ym2612"
    },
    {
      "channel": 0,
      "note": 98,
      "start": 85.7607,
      "duration": 0.0309,
      "velocity": 114,
      "chip": "ym2612"
    },
    {
      "channel": 3,
      "note": 71,
      "start": 85.761,
      "duration": 0.109,
      "velocity": 94,
      "chip": "ym2612"
    },
    {
      "channel": 5,
      "note": 76,
      "start": 85.7612,
      "duration": 0.1091,
      "velocity": 94,
      "chip": "ym2612"
    },
    {
      "channel": 0,
      "note": 98,
      "start": 85.8697,
      "duration": 0.1089,
      "velocity": 127,
      "chip": "ym2612"
    },
    {
      "channel": 1,
      "note": 59,
      "start": 85.8698,
      "duration": 0.2178,
      "velocity": 93,
      "chip": "ym2612"
    },
    {
      "channel": 3,
      "note": 74,
      "start": 85.87,
      "duration": 0.1089,
      "velocity": 94,
      "chip": "ym2612"
    },
    {
      "channel": 5,
      "note": 78,
      "start": 85.8703,
      "duration": 0.1088,
      "velocity": 94,
      "chip": "ym2612"
    },
    {
      "channel": 0,
      "note": 54,
      "start": 85.9786,
      "duration": 0.0154,
      "velocity": 127,
      "chip": "ym2612"
    },
    {
      "channel": 5,
      "note": 81,
      "start": 85.9791,
      "duration": 0.109,
      "velocity": 94,
      "chip": "ym2612"
    },
    {
      "channel": 0,
      "note": 76,
      "start": 85.994,
      "duration": 0.0936,
      "velocity": 114,
      "chip": "ym2612"
    },
    {
      "channel": 0,
      "note": 68,
      "start": 86.0876,
      "duration": 0.0309,
      "velocity": 114,
      "chip": "ym2612"
    },
    {
      "channel": 1,
      "note": 59,
      "start": 86.0877,
      "duration": 0.2179,
      "velocity": 93,
      "chip": "ym2612"
    },
    {
      "channel": 3,
      "note": 76,
      "start": 86.0879,
      "duration": 0.1089,
      "velocity": 94,
      "chip": "ym2612"
    },
    {
      "channel": 5,
      "note": 69,
      "start": 86.0881,
      "duration": 0.1089,
      "velocity": 94,
      "chip": "ym2612"
    },
    {
      "channel": 0,
      "note": 98,
      "start": 86.1965,
      "duration": 0.0309,
      "velocity": 114,
      "chip": "ym2612"
    },
    {
      "channel": 5,
      "note": 74,
      "start": 86.197,
      "duration": 0.1091,
      "velocity": 94,
      "chip": "ym2612"
    },
    {
      "channel": 0,
      "note": 98,
      "start": 86.3054,
      "duration": 0.1089,
      "velocity": 114,
      "chip": "ym2612"
    },
    {
      "channel": 1,
      "note": 59,
      "start": 86.3056,
      "duration": 0.2178,
      "velocity": 93,
      "chip": "ym2612"
    },
    {
      "channel": 2,
      "note": 47,
      "start": 86.3057,
      "duration": 3.0504,
      "velocity": 121,
      "chip": "ym2612"
    },
    {
      "channel": 3,
      "note": 78,
      "start": 86.3059,
      "duration": 0.1087,
      "velocity": 94,
      "chip": "ym2612"
    },
    {
      "channel": 0,
      "note": 54,
      "start": 86.4144,
      "duration": 0.0309,
      "velocity": 114,
      "chip": "ym2612"
    },
    {
      "channel": 3,
      "note": 81,
      "start": 86.4146,
      "duration": 0.1092,
      "velocity": 94,
      "chip": "ym2612"
    },
    {
      "channel": 5,
      "note": 76,
      "start": 86.4149,
      "duration": 0.1091,
      "velocity": 94,
      "chip": "ym2612"
    },
    {
      "channel": 4,
      "note": 47,
      "start": 86.4923,
      "duration": 3.0504,
      "velocity": 121,
      "chip": "ym2612"
    },
    {
      "channel": 0,
      "note": 98,
      "start": 86.5233,
      "duration": 0.0309,
      "velocity": 114,
      "chip": "ym2612"
    },
    {
      "channel": 1,
      "note": 55,
      "start": 86.5234,
      "duration": 0.2179,
      "velocity": 93,
      "chip": "ym2612"
    },
    {
      "channel": 3,
      "note": 69,
      "start": 86.5238,
      "duration": 0.1087,
      "velocity": 94,
      "chip": "ym2612"
    },
    {
      "channel": 5,
      "note": 81,
      "start": 86.524,
      "duration": 0.1087,
      "velocity": 94,
      "chip": "ym2612"
    },
    {
      "channel": 0,
      "note": 98,
      "start": 86.6323,
      "duration": 0.0309,
      "velocity": 114,
      "chip": "ym2612"
    },
    {
      "channel": 3,
      "note": 74,
      "start": 86.6325,
      "duration": 0.109,
      "velocity": 94,
      "chip": "ym2612"
    },
    {
      "channel": 5,
      "note": 69,
      "start": 86.6327,
      "duration": 0.109,
      "velocity": 94,
      "chip": "ym2612"
    },
    {
      "channel": 0,
      "note": 98,
      "start": 86.7412,
      "duration": 0.0154,
      "velocity": 127,
      "chip": "ym2612"
    },
    {
      "channel": 1,
      "note": 55,
      "start": 86.7413,
      "duration": 0.2178,
      "velocity": 93,
      "chip": "ym2612"
    },
    {
      "channel": 5,
      "note": 81,
      "start": 86.7417,
      "duration": 0.1089,
      "velocity": 94,
      "chip": "ym2612"
    },
    {
      "channel": 0,
      "note": 76,
      "start": 86.7566,
      "duration": 0.0936,
      "velocity": 114,
      "chip": "ym2612"
    },
    {
      "channel": 0,
      "note": 68,
      "start": 86.8501,
      "duration": 0.0309,
      "velocity": 114,
      "chip": "ym2612"
    },
    {
      "channel": 3,
      "note": 76,
      "start": 86.8504,
      "duration": 0.109,
      "velocity": 94,
      "chip": "ym2612"
    },
    {
      "channel": 5,
      "note": 71,
      "start": 86.8506,
      "duration": 0.109,
      "velocity": 94,
      "chip": "ym2612"
    },
    {
      "channel": 0,
      "note": 98,
      "start": 86.9591,
      "duration": 0.0309,
      "velocity": 114,
      "chip": "ym2612"
    },
    {
      "channel": 1,
      "note": 55,
      "start": 86.9592,
      "duration": 0.2179,
      "velocity": 93,
      "chip": "ym2612"
    },
    {
      "channel": 3,
      "note": 81,
      "start": 86.9594,
      "duration": 0.1089,
      "velocity": 94,
      "chip": "ym2612"
    },
    {
      "channel": 5,
      "note": 74,
      "start": 86.9596,
      "duration": 0.1089,
      "velocity": 94,
      "chip": "ym2612"
    },
    {
      "channel": 0,
      "note": 98,
      "start": 87.068,
      "duration": 0.0309,
      "velocity": 114,
      "chip": "ym2612"
    },
    {
      "channel": 3,
      "note": 69,
      "start": 87.0683,
      "duration": 0.109,
      "velocity": 94,
      "chip": "ym2612"
    },
    {
      "channel": 0,
      "note": 98,
      "start": 87.177,
      "duration": 0.1089,
      "velocity": 114,
      "chip": "ym2612"
    },
    {
      "channel": 1,
      "note": 55,
      "start": 87.1771,
      "duration": 0.2178,
      "velocity": 93,
      "chip": "ym2612"
    },
    {
      "channel": 3,
      "note": 81,
      "start": 87.1773,
      "duration": 0.1089,
      "velocity": 94,
      "chip": "ym2612"
    },
    {
      "channel": 5,
      "note": 76,
      "start": 87.1775,
      "duration": 0.1089,
      "velocity": 94,
      "chip": "ym2612"
    },
    {
      "channel": 0,
      "note": 54,
      "start": 87.2859,
      "duration": 0.0309,
      "velocity": 114,
      "chip": "ym2612"
    },
    {
      "channel": 3,
      "note": 71,
      "start": 87.2862,
      "duration": 0.109,
      "velocity": 94,
      "chip": "ym2612"
    },
    {
      "channel": 5,
      "note": 78,
      "start": 87.2865,
      "duration": 0.1089,
      "velocity": 94,
      "chip": "ym2612"
    },
    {
      "channel": 0,
      "note": 98,
      "start": 87.3949,
      "duration": 0.0309,
      "velocity": 114,
      "chip": "ym2612"
    },
    {
      "channel": 1,
      "note": 55,
      "start": 87.395,
      "duration": 0.2179,
      "velocity": 93,
      "chip": "ym2612"
    },
    {
      "channel": 3,
      "note": 74,
      "start": 87.3951,
      "duration": 0.1089,
      "velocity": 94,
      "chip": "ym2612"
    },
    {
      "channel": 5,
      "note": 81,
      "start": 87.3954,
      "duration": 0.1089,
      "velocity": 94,
      "chip": "ym2612"
    },
    {
      "channel": 0,
      "note": 98,
      "start": 87.5038,
      "duration": 0.0309,
      "velocity": 114,
      "chip": "ym2612"
    },
    {
      "channel": 5,
      "note": 69,
      "start": 87.5043,
      "duration": 0.109,
      "velocity": 94,
      "chip": "ym2612"
    },
    {
      "channel": 0,
      "note": 98,
      "start": 87.6127,
      "duration": 0.0154,
      "velocity": 127,
      "chip": "ym2612"
    },
    {
      "channel": 1,
      "note": 55,
      "start": 87.6129,
      "duration": 0.2179,
      "velocity": 93,
      "chip": "ym2612"
    },
    {
      "channel": 3,
      "note": 76,
      "start": 87.613,
      "duration": 0.1089,
      "velocity": 94,
      "chip": "ym2612"
    },
    {
      "channel": 5,
      "note": 74,
      "start": 87.6133,
      "duration": 0.1089,
      "velocity": 94,
      "chip": "ym2612"
    },
    {
      "channel": 0,
      "note": 76,
      "start": 87.6281,
      "duration": 0.0936,
      "velocity": 114,
      "chip": "ym2612"
    },
    {
      "channel": 0,
      "note": 68,
      "start": 87.7217,
      "duration": 0.0309,
      "velocity": 114,
      "chip": "ym2612"
    },
    {
      "channel": 0,
      "note": 98,
      "start": 87.8306,
      "duration": 0.0309,
      "velocity": 114,
      "chip": "ym2612"
    },
    {
      "channel": 1,
      "note": 55,
      "start": 87.8307,
      "duration": 0.2179,
      "velocity": 93,
      "chip": "ym2612"
    },
    {
      "channel": 3,
      "note": 78,
      "start": 87.831,
      "duration": 0.1088,
      "velocity": 94,
      "chip": "ym2612"
    },
    {
      "channel": 5,
      "note": 76,
      "start": 87.8312,
      "duration": 0.1088,
      "velocity": 94,
      "chip": "ym2612"
    },
    {
      "channel": 0,
      "note": 98,
      "start": 87.9395,
      "duration": 0.0309,
      "velocity": 114,
      "chip": "ym2612"
    },
    {
      "channel": 3,
      "note": 81,
      "start": 87.9398,
      "duration": 0.109,
      "velocity": 94,
      "chip": "ym2612"
    },
    {
      "channel": 5,
      "note": 81,
      "start": 87.9401,
      "duration": 0.109,
      "velocity": 94,
      "chip": "ym2612"
    },
    {
      "channel": 0,
      "note": 98,
      "start": 88.0485,
      "duration": 0.1089,
      "velocity": 114,
      "chip": "ym2612"
    },
    {
      "channel": 1,
      "note": 55,
      "start": 88.0486,
      "duration": 0.2178,
      "velocity": 93,
      "chip": "ym2612"
    },
    {
      "channel": 3,
      "note": 69,
      "start": 88.0488,
      "duration": 0.1089,
      "velocity": 94,
      "chip": "ym2612"
    },
    {
      "channel": 5,
      "note": 69,
      "start": 88.0491,
      "duration": 0.1089,
      "velocity": 94,
      "chip": "ym2612"
    },
    {
      "channel": 0,
      "note": 54,
      "start": 88.1574,
      "duration": 0.0309,
      "velocity": 114,
      "chip": "ym2612"
    },
    {
      "channel": 3,
      "note": 74,
      "start": 88.1577,
      "duration": 0.109,
      "velocity": 94,
      "chip": "ym2612"
    },
    {
      "channel": 5,
      "note": 81,
      "start": 88.158,
      "duration": 0.1089,
      "velocity": 94,
      "chip": "ym2612"
    },
    {
      "channel": 0,
      "note": 98,
      "start": 88.2664,
      "duration": 0.0309,
      "velocity": 114,
      "chip": "ym2612"
    },
    {
      "channel": 1,
      "note": 55,
      "start": 88.2665,
      "duration": 0.2179,
      "velocity": 93,
      "chip": "ym2612"
    },
    {
      "channel": 5,
      "note": 71,
      "start": 88.2669,
      "duration": 0.1089,
      "velocity": 94,
      "chip": "ym2612"
    },
    {
      "channel": 0,
      "note": 98,
      "start": 88.3753,
      "duration": 0.0309,
      "velocity": 114,
      "chip": "ym2612"
    },
    {
      "channel": 3,
      "note": 76,
      "start": 88.3756,
      "duration": 0.109,
      "velocity": 94,
      "chip": "ym2612"
    },
    {
      "channel": 5,
      "note": 74,
      "start": 88.3758,
      "duration": 0.109,
      "velocity": 94,
      "chip": "ym2612"
    },
    {
      "channel": 0,
      "note": 98,
      "start": 88.4843,
      "duration": 0.0154,
      "velocity": 127,
      "chip": "ym2612"
    },
    {
      "channel": 1,
      "note": 55,
      "start": 88.4844,
      "duration": 0.2178,
      "velocity": 93,
      "chip": "ym2612"
    },
    {
      "channel": 3,
      "note": 81,
      "start": 88.4846,
      "duration": 0.1089,
      "velocity": 94,
      "chip": "ym2612"
    },
    {
      "channel": 0,
      "note": 76,
      "start": 88.4996,
      "duration": 0.0936,
      "velocity": 114,
      "chip": "ym2612"
    },
    {
      "channel": 0,
      "note": 68,
      "start": 88.5932,
      "duration": 0.0309,
      "velocity": 114,
      "chip": "ym2612"
    },
    {
      "channel": 3,
      "note": 69,
      "start": 88.5935,
      "duration": 0.109,
      "velocity": 94,
      "chip": "ym2612"
    },
    {
      "channel": 5,
      "note": 76,
      "start": 88.5937,
      "duration": 0.109,
      "velocity": 94,
      "chip": "ym2612"
    },
    {
      "channel": 0,
      "note": 98,
      "start": 88.7022,
      "duration": 0.0309,
      "velocity": 114,
      "chip": "ym2612"
    },
    {
      "channel": 1,
      "note": 55,
      "start": 88.7023,
      "duration": 0.2179,
      "velocity": 93,
      "chip": "ym2612"
    },
    {
      "channel": 3,
      "note": 81,
      "start": 88.7025,
      "duration": 0.1089,
      "velocity": 94,
      "chip": "ym2612"
    },
    {
      "channel": 5,
      "note": 78,
      "start": 88.7027,
      "duration": 0.1088,
      "velocity": 94,
      "chip": "ym2612"
    },
    {
      "channel": 0,
      "note": 98,
      "start": 88.8111,
      "duration": 0.0309,
      "velocity": 114,
      "chip": "ym2612"
    },
    {
      "channel": 3,
      "note": 71,
      "start": 88.8114,
      "duration": 0.109,
      "velocity": 94,
      "chip": "ym2612"
    },
    {
      "channel": 5,
      "note": 81,
      "start": 88.8116,
      "duration": 0.109,
      "velocity": 94,
      "chip": "ym2612"
    },
    {
      "channel": 0,
      "note": 98,
      "start": 88.92,
      "duration": 0.1089,
      "velocity": 127,
      "chip": "ym2612"
    },
    {
      "channel": 1,
      "note": 55,
      "start": 88.9202,
      "duration": 0.2178,
      "velocity": 93,
      "chip": "ym2612"
    },
    {
      "channel": 3,
      "note": 74,
      "start": 88.9204,
      "duration": 0.1088,
      "velocity": 94,
      "chip": "ym2612"
    },
    {
      "channel": 5,
      "note": 69,
      "start": 88.9206,
      "duration": 0.1088,
      "velocity": 94,
      "chip": "ym2612"
    },
    {
      "channel": 0,
      "note": 54,
      "start": 89.029,
      "duration": 0.0154,
      "velocity": 127,
      "chip": "ym2612"
    },
    {
      "channel": 5,
      "note": 74,
      "start": 89.0295,
      "duration": 0.109,
      "velocity": 94,
      "chip": "ym2612"
    },
    {
      "channel": 0,
      "note": 76,
      "start": 89.0443,
      "duration": 0.0936,
      "velocity": 114,
      "chip": "ym2612"
    },
    {
      "channel": 0,
      "note": 68,
      "start": 89.1379,
      "duration": 0.0309,
      "velocity": 114,
      "chip": "ym2612"
    },
    {
      "channel": 1,
      "note": 55,
      "start": 89.138,
      "duration": 0.2179,
      "velocity": 93,
      "chip": "ym2612"
    },
    {
      "channel": 3,
      "note": 76,
      "start": 89.1383,
      "duration": 0.1088,
      "velocity": 94,
      "chip": "ym2612"
    },
    {
      "channel": 0,
      "note": 98,
      "start": 89.2468,
      "duration": 0.0309,
      "velocity": 114,
      "chip": "ym2612"
    },
    {
      "channel": 5,
      "note": 76,
      "start": 89.2473,
      "duration": 0.1092,
      "velocity": 94,
      "chip": "ym2612"
    },
    {
      "channel": 0,
      "note": 98,
      "start": 89.3558,
      "duration": 0.1089,
      "velocity": 114,
      "chip": "ym2612"
    },
    {
      "channel": 1,
      "note": 56,
      "start": 89.356,
      "duration": 0.218,
      "velocity": 93,
      "chip": "ym2612"
    },
    {
      "channel": 2,
      "note": 43,
      "start": 89.3561,
      "duration": 3.0504,
      "velocity": 121,
      "chip": "ym2612"
    },
    {
      "channel": 3,
      "note": 78,
      "start": 89.3563,
      "duration": 0.1087,
      "velocity": 94,
      "chip": "ym2612"
    },
    {
      "channel": 5,
      "note": 81,
      "start": 89.3565,
      "duration": 0.1088,
      "velocity": 94,
      "chip": "ym2612"
    },
    {
      "channel": 0,
      "note": 54,
      "start": 89.4647,
      "duration": 0.0309,
      "velocity": 114,
      "chip": "ym2612"
    },
    {
      "channel": 3,
      "note": 81,
      "start": 89.465,
      "duration": 0.1091,
      "velocity": 94,
      "chip": "ym2612"
    },
    {
      "channel": 5,
      "note": 69,
      "start": 89.4652,
      "duration": 0.1091,
      "velocity": 94,
      "chip": "ym2612"
    },
    {
      "channel": 4,
      "note": 43,
      "start": 89.5427,
      "duration": 3.0504,
      "velocity": 121,
      "chip": "ym2612"
    },
    {
      "channel": 0,
      "note": 98,
      "start": 89.5739,
      "duration": 0.0307,
      "velocity": 114,
      "chip": "ym2612"
    },
    {
      "channel": 1,
      "note": 64,
      "start": 89.574,
      "duration": 0.2177,
      "velocity": 93,
      "chip": "ym2612"
    },
    {
      "channel": 3,
      "note": 69,
      "start": 89.5741,
      "duration": 0.1087,
      "velocity": 94,
      "chip": "ym2612"
    },
    {
      "channel": 5,
      "note": 81,
      "start": 89.5744,
      "duration": 0.1087,
      "velocity": 94,
      "chip": "ym2612"
    },
    {
      "channel": 0,
      "note": 98,
      "start": 89.6826,
      "duration": 0.0309,
      "velocity": 114,
      "chip": "ym2612"
    },
    {
      "channel": 3,
      "note": 74,
      "start": 89.6829,
      "duration": 0.109,
      "velocity": 94,
      "chip": "ym2612"
    },
    {
      "channel": 5,
      "note": 71,
      "start": 89.6831,
      "duration": 0.109,
      "velocity": 94,
      "chip": "ym2612"
    },
    {
      "channel": 0,
      "note": 98,
      "start": 89.7916,
      "duration": 0.0155,
      "velocity": 127,
      "chip": "ym2612"
    },
    {
      "channel": 1,
      "note": 64,
      "start": 89.7917,
      "duration": 0.2178,
      "velocity": 93,
      "chip": "ym2612"
    },
    {
      "channel": 5,
      "note": 74,
      "start": 89.7921,
      "duration": 0.1089,
      "velocity": 94,
      "chip": "ym2612"
    },
    {
      "channel": 0,
      "note": 76,
      "start": 89.8071,
      "duration": 0.0934,
      "velocity": 114,
      "chip": "ym2612"
    },
    {
      "channel": 0,
      "note": 68,
      "start": 89.9005,
      "duration": 0.0309,
      "velocity": 114,
      "chip": "ym2612"
    },
    {
      "channel": 3,
      "note": 76,
      "start": 89.9008,
      "duration": 0.109,
      "velocity": 94,
      "chip": "ym2612"
    },
    {
      "channel": 0,
      "note": 98,
      "start": 90.0095,
      "duration": 0.0311,
      "velocity": 114,
      "chip": "ym2612"
    },
    {
      "channel": 1,
      "note": 64,
      "start": 90.0095,
      "duration": 0.2179,
      "velocity": 93,
      "chip": "ym2612"
    },
    {
      "channel": 3,
      "note": 81,
      "start": 90.0098,
      "duration": 0.1089,
      "velocity": 94,
      "chip": "ym2612"
    },
    {
      "channel": 5,
      "note": 76,
      "start": 90.01,
      "duration": 0.1089,
      "velocity": 94,
      "chip": "ym2612"
    },
    {
      "channel": 0,
      "note": 98,
      "start": 90.1184,
      "duration": 0.0309,
      "velocity": 114,
      "chip": "ym2612"
    },
    {
      "channel": 3,
      "note": 69,
      "start": 90.1187,
      "duration": 0.109,
      "velocity": 94,
      "chip": "ym2612"
    },
    {
      "channel": 5,
      "note": 78,
      "start": 90.1189,
      "duration": 0.109,
      "velocity": 94,
      "chip": "ym2612"
    },
    {
      "channel": 0,
      "note": 98,
      "start": 90.2273,
      "duration": 0.1089,
      "velocity": 114,
      "chip": "ym2612"
    },
    {
      "channel": 1,
      "note": 64,
      "start": 90.2275,
      "duration": 0.2178,
      "velocity": 93,
      "chip": "ym2612"
    },
    {
      "channel": 3,
      "note": 81,
      "start": 90.2277,
      "duration": 0.1089,
      "velocity": 94,
      "chip": "ym2612"
    },
    {
      "channel": 5,
      "note": 81,
      "start": 90.2279,
      "duration": 0.1089,
      "velocity": 94,
      "chip": "ym2612"
    },
    {
      "channel": 0,
      "note": 54,
      "start": 90.3363,
      "duration": 0.0309,
      "velocity": 114,
      "chip": "ym2612"
    },
    {
      "channel": 3,
      "note": 71,
      "start": 90.3366,
      "duration": 0.109,
      "velocity": 94,
      "chip": "ym2612"
    },
    {
      "channel": 5,
      "note": 69,
      "start": 90.3368,
      "duration": 0.109,
      "velocity": 94,
      "chip": "ym2612"
    },
    {
      "channel": 0,
      "note": 98,
      "start": 90.4452,
      "duration": 0.0309,
      "velocity": 114,
      "chip": "ym2612"
    },
    {
      "channel": 1,
      "note": 64,
      "start": 90.4453,
      "duration": 0.2179,
      "velocity": 93,
      "chip": "ym2612"
    },
    {
      "channel": 3,
      "note": 74,
      "start": 90.4455,
      "duration": 0.1089,
      "velocity": 94,
      "chip": "ym2612"
    },
    {
      "channel": 5,
      "note": 74,
      "start": 90.4458,
      "duration": 0.1089,
      "velocity": 94,
      "chip": "ym2612"
    },
    {
      "channel": 0,
      "note": 98,
      "start": 90.5541,
      "duration": 0.0309,
      "velocity": 114,
      "chip": "ym2612"
    },
    {
      "channel": 0,
      "note": 98,
      "start": 90.6631,
      "duration": 0.0154,
      "velocity": 127,
      "chip": "ym2612"
    },
    {
      "channel": 1,
      "note": 64,
      "start": 90.6632,
      "duration": 0.2179,
      "velocity": 93,
      "chip": "ym2612"
    },
    {
      "channel": 3,
      "note": 76,
      "start": 90.6634,
      "duration": 0.1089,
      "velocity": 94,
      "chip": "ym2612"
    },
    {
      "channel": 5,
      "note": 76,
      "start": 90.6637,
      "duration": 0.1089,
      "velocity": 94,
      "chip": "ym2612"
    },
    {
      "channel": 0,
      "note": 76,
      "start": 90.6785,
      "duration": 0.0936,
      "velocity": 114,
      "chip": "ym2612"
    },
    {
      "channel": 0,
      "note": 68,
      "start": 90.772,
      "duration": 0.0309,
      "velocity": 114,
      "chip": "ym2612"
    },
    {
      "channel": 5,
      "note": 81,
      "start": 90.7725,
      "duration": 0.109,
      "velocity": 94,
      "chip": "ym2612"
    },
    {
      "channel": 0,
      "note": 98,
      "start": 90.881,
      "duration": 0.0309,
      "velocity": 114,
      "chip": "ym2612"
    },
    {
      "channel": 1,
      "note": 64,
      "start": 90.8811,
      "duration": 0.2179,
      "velocity": 93,
      "chip": "ym2612"
    },
    {
      "channel": 3,
      "note": 78,
      "start": 90.8814,
      "duration": 0.1088,
      "velocity": 94,
      "chip": "ym2612"
    },
    {
      "channel": 5,
      "note": 69,
      "start": 90.8816,
      "duration": 0.109,
      "velocity": 94,
      "chip": "ym2612"
    },
    {
      "channel": 0,
      "note": 98,
      "start": 90.9899,
      "duration": 0.0309,
      "velocity": 114,
      "chip": "ym2612"
    },
    {
      "channel": 3,
      "note": 81,
      "start": 90.9902,
      "duration": 0.109,
      "velocity": 94,
      "chip": "ym2612"
    },
    {
      "channel": 5,
      "note": 81,
      "start": 90.9906,
      "duration": 0.1088,
      "velocity": 94,
      "chip": "ym2612"
    },
    {
      "channel": 0,
      "note": 98,
      "start": 91.0989,
      "duration": 0.1089,
      "velocity": 114,
      "chip": "ym2612"
    },
    {
      "channel": 1,
      "note": 64,
      "start": 91.099,
      "duration": 0.2178,
      "velocity": 93,
      "chip": "ym2612"
    },
    {
      "channel": 3,
      "note": 69,
      "start": 91.0992,
      "duration": 0.1089,
      "velocity": 94,
      "chip": "ym2612"
    },
    {
      "channel": 5,
      "note": 71,
      "start": 91.0995,
      "duration": 0.1089,
      "velocity": 94,
      "chip": "ym2612"
    },
    {
      "channel": 0,
      "note": 54,
      "start": 91.2078,
      "duration": 0.0309,
      "velocity": 114,
      "chip": "ym2612"
    },
    {
      "channel": 3,
      "note": 74,
      "start": 91.2081,
      "duration": 0.1089,
      "velocity": 94,
      "chip": "ym2612"
    },
    {
      "channel": 5,
      "note": 74,
      "start": 91.2083,
      "duration": 0.1089,
      "velocity": 94,
      "chip": "ym2612"
    },
    {
      "channel": 0,
      "note": 98,
      "start": 91.3168,
      "duration": 0.0309,
      "velocity": 114,
      "chip": "ym2612"
    },
    {
      "channel": 1,
      "note": 64,
      "start": 91.3168,
      "duration": 0.2179,
      "velocity": 93,
      "chip": "ym2612"
    },
    {
      "channel": 0,
      "note": 98,
      "start": 91.4257,
      "duration": 0.0309,
      "velocity": 114,
      "chip": "ym2612"
    },
    {
      "channel": 3,
      "note": 76,
      "start": 91.4259,
      "duration": 0.109,
      "velocity": 94,
      "chip": "ym2612"
    },
    {
      "channel": 5,
      "note": 76,
      "start": 91.4262,
      "duration": 0.1091,
      "velocity": 94,
      "chip": "ym2612"
    },
    {
      "channel": 0,
      "note": 98,
      "start": 91.5346,
      "duration": 0.0154,
      "velocity": 127,
      "chip": "ym2612"
    },
    {
      "channel": 1,
      "note": 64,
      "start": 91.5348,
      "duration": 0.2178,
      "velocity": 93,
      "chip": "ym2612"
    },
    {
      "channel": 3,
      "note": 81,
      "start": 91.535,
      "duration": 0.1089,
      "velocity": 94,
      "chip": "ym2612"
    },
    {
      "channel": 5,
      "note": 78,
      "start": 91.5352,
      "duration": 0.1088,
      "velocity": 94,
      "chip": "ym2612"
    },
    {
      "channel": 0,
      "note": 76,
      "start": 91.55,
      "duration": 0.0936,
      "velocity": 114,
      "chip": "ym2612"
    },
    {
      "channel": 0,
      "note": 68,
      "start": 91.6436,
      "duration": 0.0309,
      "velocity": 114,
      "chip": "ym2612"
    },
    {
      "channel": 3,
      "note": 69,
      "start": 91.6439,
      "duration": 0.109,
      "velocity": 94,
      "chip": "ym2612"
    },
    {
      "channel": 5,
      "note": 81,
      "start": 91.6441,
      "duration": 0.109,
      "velocity": 94,
      "chip": "ym2612"
    },
    {
      "channel": 0,
      "note": 98,
      "start": 91.7525,
      "duration": 0.0309,
      "velocity": 114,
      "chip": "ym2612"
    },
    {
      "channel": 1,
      "note": 64,
      "start": 91.7526,
      "duration": 0.2179,
      "velocity": 93,
      "chip": "ym2612"
    },
    {
      "channel": 3,
      "note": 81,
      "start": 91.7528,
      "duration": 0.1089,
      "velocity": 94,
      "chip": "ym2612"
    },
    {
      "channel": 5,
      "note": 69,
      "start": 91.7531,
      "duration": 0.1089,
      "velocity": 94,
      "chip": "ym2612"
    },
    {
      "channel": 0,
      "note": 98,
      "start": 91.8615,
      "duration": 0.0309,
      "velocity": 114,
      "chip": "ym2612"
    },
    {
      "channel": 3,
      "note": 71,
      "start": 91.8617,
      "duration": 0.109,
      "velocity": 94,
      "chip": "ym2612"
    },
    {
      "channel": 5,
      "note": 74,
      "start": 91.862,
      "duration": 0.109,
      "velocity": 94,
      "chip": "ym2612"
    },
    {
      "channel": 0,
      "note": 98,
      "start": 91.9704,
      "duration": 0.1089,
      "velocity": 127,
      "chip": "ym2612"
    },
    {
      "channel": 1,
      "note": 64,
      "start": 91.9705,
      "duration": 0.2178,
      "velocity": 93,
      "chip": "ym2612"
    },
    {
      "channel": 3,
      "note": 74,
      "start": 91.9707,
      "duration": 0.1089,
      "velocity": 94,
      "chip": "ym2612"
    },
    {
      "channel": 0,
      "note": 54,
      "start": 92.0793,
      "duration": 0.0154,
      "velocity": 127,
      "chip": "ym2612"
    },
    {
      "channel": 5,
      "note": 76,
      "start": 92.0798,
      "duration": 0.109,
      "velocity": 94,
      "chip": "ym2612"
    },
    {
      "channel": 0,
      "note": 76,
      "start": 92.0947,
      "duration": 0.0936,
      "velocity": 114,
      "chip": "ym2612"
    },
    {
      "channel": 0,
      "note": 68,
      "start": 92.1883,
      "duration": 0.0309,
      "velocity": 114,
      "chip": "ym2612"
    },
    {
      "channel": 1,
      "note": 64,
      "start": 92.1884,
      "duration": 0.2179,
      "velocity": 93,
      "chip": "ym2612"
    },
    {
      "channel": 3,
      "note": 76,
      "start": 92.1886,
      "duration": 0.1089,
      "velocity": 94,
      "chip": "ym2612"
    },
    {
      "channel": 5,
      "note": 81,
      "start": 92.1888,
      "duration": 0.1088,
      "velocity": 94,
      "chip": "ym2612"
    },
    {
      "channel": 0,
      "note": 98,
      "start": 92.2972,
      "duration": 0.0309,
      "velocity": 114,
      "chip": "ym2612"
    },
    {
      "channel": 5,
      "note": 69,
      "start": 92.2977,
      "duration": 0.1091,
      "velocity": 94,
      "chip": "ym2612"
    },
    {
      "channel": 0,
      "note": 98,
      "start": 92.4062,
      "duration": 0.1089,
      "velocity": 114,
      "chip": "ym2612"
    },
    {
      "channel": 1,
      "note": 64,
      "start": 92.4063,
      "duration": 0.2178,
      "velocity": 93,
      "chip": "ym2612"
    },
    {
      "channel": 2,
      "note": 52,
      "start": 92.4064,
      "duration": 3.0504,
      "velocity": 121,
      "chip": "ym2612"
    },
    {
      "channel": 3,
      "note": 78,
      "start": 92.4066,
      "duration": 0.1087,
      "velocity": 94,
      "chip": "ym2612"
    },
    {
      "channel": 5,
      "note": 81,
      "start": 92.4068,
      "duration": 0.1088,
      "velocity": 94,
      "chip": "ym2612"
    },
    {
      "channel": 0,
      "note": 54,
      "start": 92.5151,
      "duration": 0.0309,
      "velocity": 114,
      "chip": "ym2612"
    },
    {
      "channel": 3,
      "note": 81,
      "start": 92.5154,
      "duration": 0.109,
      "velocity": 94,
      "chip": "ym2612"
    },
    {
      "channel": 5,
      "note": 71,
      "start": 92.5156,
      "duration": 0.109,
      "velocity": 94,
      "chip": "ym2612"
    },
    {
      "channel": 4,
      "note": 52,
      "start": 92.593,
      "duration": 3.0503,
      "velocity": 121,
      "chip": "ym2612"
    },
    {
      "channel": 0,
      "note": 98,
      "start": 92.6241,
      "duration": 0.0309,
      "velocity": 114,
      "chip": "ym2612"
    },
    {
      "channel": 1,
      "note": 62,
      "start": 92.6242,
      "duration": 0.2179,
      "velocity": 93,
      "chip": "ym2612"
    },
    {
      "channel": 3,
      "note": 69,
      "start": 92.6244,
      "duration": 0.1089,
      "velocity": 94,
      "chip": "ym2612"
    },
    {
      "channel": 5,
      "note": 74,
      "start": 92.6246,
      "duration": 0.1088,
      "velocity": 94,
      "chip": "ym2612"
    },
    {
      "channel": 0,
      "note": 98,
      "start": 92.733,
      "duration": 0.0309,
      "velocity": 114,
      "chip": "ym2612"
    },
    {
      "channel": 3,
      "note": 74,
      "start": 92.7332,
      "duration": 0.109,
      "velocity": 94,
      "chip": "ym2612"
    },
    {
      "channel": 0,
      "note": 98,
      "start": 92.8419,
      "duration": 0.0154,
      "velocity": 127,
      "chip": "ym2612"
    },
    {
      "channel": 1,
      "note": 62,
      "start": 92.8421,
      "duration": 0.2178,
      "velocity": 93,
      "chip": "ym2612"
    },
    {
      "channel": 5,
      "note": 76,
      "start": 92.8425,
      "duration": 0.109,
      "velocity": 94,
      "chip": "ym2612"
    },
    {
      "channel": 0,
      "note": 76,
      "start": 92.8573,
      "duration": 0.0936,
      "velocity": 114,
      "chip": "ym2612"
    },
    {
      "channel": 0,
      "note": 68,
      "start": 92.9509,
      "duration": 0.0309,
      "velocity": 114,
      "chip": "ym2612"
    },
    {
      "channel": 3,
      "note": 76,
      "start": 92.9511,
      "duration": 0.109,
      "velocity": 94,
      "chip": "ym2612"
    },
    {
      "channel": 5,
      "note": 78,
      "start": 92.9514,
      "duration": 0.1089,
      "velocity": 94,
      "chip": "ym2612"
    },
    {
      "channel": 0,
      "note": 98,
      "start": 93.0598,
      "duration": 0.0309,
      "velocity": 114,
      "chip": "ym2612"
    },
    {
      "channel": 1,
      "note": 62,
      "start": 93.0599,
      "duration": 0.2179,
      "velocity": 93,
      "chip": "ym2612"
    },
    {
      "channel": 3,
      "note": 81,
      "start": 93.0601,
      "duration": 0.1089,
      "velocity": 94,
      "chip": "ym2612"
    },
    {
      "channel": 5,
      "note": 81,
      "start": 93.0604,
      "duration": 0.1089,
      "velocity": 94,
      "chip": "ym2612"
    },
    {
      "channel": 0,
      "note": 98,
      "start": 93.1688,
      "duration": 0.0309,
      "velocity": 114,
      "chip": "ym2612"
    },
    {
      "channel": 3,
      "note": 69,
      "start": 93.169,
      "duration": 0.109,
      "velocity": 94,
      "chip": "ym2612"
    },
    {
      "channel": 5,
      "note": 69,
      "start": 93.1693,
      "duration": 0.109,
      "velocity": 94,
      "chip": "ym2612"
    },
    {
      "channel": 0,
      "note": 98,
      "start": 93.2777,
      "duration": 0.1089,
      "velocity": 114,
      "chip": "ym2612"
    },
    {
      "channel": 1,
      "note": 62,
      "start": 93.2778,
      "duration": 0.2178,
      "velocity": 93,
      "chip": "ym2612"
    },
    {
      "channel": 3,
      "note": 81,
      "start": 93.278,
      "duration": 0.1089,
      "velocity": 94,
      "chip": "ym2612"
    },
    {
      "channel": 5,
      "note": 74,
      "start": 93.2783,
      "duration": 0.1089,
      "velocity": 94,
      "chip": "ym2612"
    },
    {
      "channel": 0,
      "note": 54,
      "start": 93.3866,
      "duration": 0.0309,
      "velocity": 114,
      "chip": "ym2612"
    },
    {
      "channel": 3,
      "note": 71,
      "start": 93.3869,
      "duration": 0.109,
      "velocity": 94,
      "chip": "ym2612"
    },
    {
      "channel": 0,
      "note": 98,
      "start": 93.4956,
      "duration": 0.0309,
      "velocity": 114,
      "chip": "ym2612"
    },
    {
      "channel": 1,
      "note": 62,
      "start": 93.4957,
      "duration": 0.2179,
      "velocity": 93,
      "chip": "ym2612"
    },
    {
      "channel": 3,
      "note": 74,
      "start": 93.4959,
      "duration": 0.1089,
      "velocity": 94,
      "chip": "ym2612"
    },
    {
      "channel": 5,
      "note": 76,
      "start": 93.4961,
      "duration": 0.1089,
      "velocity": 94,
      "chip": "ym2612"
    },
    {
      "channel": 0,
      "note": 98,
      "start": 93.6045,
      "duration": 0.0309,
      "velocity": 114,
      "chip": "ym2612"
    },
    {
      "channel": 5,
      "note": 81,
      "start": 93.605,
      "duration": 0.109,
      "velocity": 94,
      "chip": "ym2612"
    },
    {
      "channel": 0,
      "note": 98,
      "start": 93.7135,
      "duration": 0.0153,
      "velocity": 127,
      "chip": "ym2612"
    },
    {
      "channel": 1,
      "note": 62,
      "start": 93.7136,
      "duration": 0.2178,
      "velocity": 93,
      "chip": "ym2612"
    },
    {
      "channel": 3,
      "note": 76,
      "start": 93.7138,
      "duration": 0.1089,
      "velocity": 94,
      "chip": "ym2612"
    },
    {
      "channel": 5,
      "note": 69,
      "start": 93.714,
      "duration": 0.1089,
      "velocity": 94,
      "chip": "ym2612"
    },
    {
      "channel": 0,
      "note": 76,
      "start": 93.7288,
      "duration": 0.0936,
      "velocity": 114,
      "chip": "ym2612"
    },
    {
      "channel": 0,
      "note": 68,
      "start": 93.8224,
      "duration": 0.0309,
      "velocity": 114,
      "chip": "ym2612"
    },
    {
      "channel": 5,
      "note": 81,
      "start": 93.8229,
      "duration": 0.109,
      "velocity": 94,
      "chip": "ym2612"
    },
    {
      "channel": 0,
      "note": 98,
      "start": 93.9313,
      "duration": 0.0309,
      "velocity": 114,
      "chip": "ym2612"
    },
    {
      "channel": 1,
      "note": 62,
      "start": 93.9315,
      "duration": 0.2179,
      "velocity": 93,
      "chip": "ym2612"
    },
    {
      "channel": 3,
      "note": 78,
      "start": 93.9317,
      "duration": 0.109,
      "velocity": 94,
      "chip": "ym2612"
    },
    {
      "channel": 5,
      "note": 71,
      "start": 93.932,
      "duration": 0.109,
      "velocity": 94,
      "chip": "ym2612"
    },
    {
      "channel": 0,
      "note": 98,
      "start": 94.0405,
      "duration": 0.0307,
      "velocity": 114,
      "chip": "ym2612"
    },
    {
      "channel": 3,
      "note": 81,
      "start": 94.0407,
      "duration": 0.1088,
      "velocity": 94,
      "chip": "ym2612"
    },
    {
      "channel": 5,
      "note": 74,
      "start": 94.041,
      "duration": 0.1088,
      "velocity": 94,
      "chip": "ym2612"
    },
    {
      "channel": 0,
      "note": 98,
      "start": 94.1493,
      "duration": 0.1089,
      "velocity": 114,
      "chip": "ym2612"
    },
    {
      "channel": 1,
      "note": 62,
      "start": 94.1494,
      "duration": 0.2178,
      "velocity": 93,
      "chip": "ym2612"
    },
    {
      "channel": 3,
      "note": 69,
      "start": 94.1496,
      "duration": 0.1089,
      "velocity": 94,
      "chip": "ym2612"
    },
    {
      "channel": 0,
      "note": 54,
      "start": 94.2582,
      "duration": 0.0309,
      "velocity": 114,
      "chip": "ym2612"
    },
    {
      "channel": 3,
      "note": 74,
      "start": 94.2585,
      "duration": 0.1089,
      "velocity": 94,
      "chip": "ym2612"
    },
    {
      "channel": 5,
      "note": 76,
      "start": 94.2587,
      "duration": 0.109,
      "velocity": 94,
      "chip": "ym2612"
    },
    {
      "channel": 0,
      "note": 98,
      "start": 94.3671,
      "duration": 0.0309,
      "velocity": 114,
      "chip": "ym2612"
    },
    {
      "channel": 1,
      "note": 62,
      "start": 94.3672,
      "duration": 0.2179,
      "velocity": 93,
      "chip": "ym2612"
    },
    {
      "channel": 5,
      "note": 78,
      "start": 94.3677,
      "duration": 0.1088,
      "velocity": 94,
      "chip": "ym2612"
    },
    {
      "channel": 0,
      "note": 98,
      "start": 94.4761,
      "duration": 0.0311,
      "velocity": 114,
      "chip": "ym2612"
    },
    {
      "channel": 3,
      "note": 76,
      "start": 94.4763,
      "duration": 0.109,
      "velocity": 94,
      "chip": "ym2612"
    },
    {
      "channel": 5,
      "note": 81,
      "start": 94.4766,
      "duration": 0.109,
      "velocity": 94,
      "chip": "ym2612"
    },
    {
      "channel": 0,
      "note": 98,
      "start": 94.585,
      "duration": 0.0154,
      "velocity": 127,
      "chip": "ym2612"
    },
    {
      "channel": 1,
      "note": 62,
      "start": 94.5851,
      "duration": 0.2179,
      "velocity": 93,
      "chip": "ym2612"
    },
    {
      "channel": 3,
      "note": 81,
      "start": 94.5853,
      "duration": 0.1089,
      "velocity": 94,
      "chip": "ym2612"
    },
    {
      "channel": 5,
      "note": 69,
      "start": 94.5856,
      "duration": 0.1089,
      "velocity": 94,
      "chip": "ym2612"
    },
    {
      "channel": 0,
      "note": 76,
      "start": 94.6003,
      "duration": 0.0936,
      "velocity": 114,
      "chip": "ym2612"
    },
    {
      "channel": 0,
      "note": 68,
      "start": 94.6939,
      "duration": 0.0309,
      "velocity": 114,
      "chip": "ym2612"
    },
    {
      "channel": 3,
      "note": 69,
      "start": 94.6942,
      "duration": 0.109,
      "velocity": 94,
      "chip": "ym2612"
    },
    {
      "channel": 5,
      "note": 74,
      "start": 94.6945,
      "duration": 0.109,
      "velocity": 94,
      "chip": "ym2612"
    },
    {
      "channel": 0,
      "note": 98,
      "start": 94.8029,
      "duration": 0.0309,
      "velocity": 114,
      "chip": "ym2612"
    },
    {
      "channel": 1,
      "note": 62,
      "start": 94.803,
      "duration": 0.2179,
      "velocity": 93,
      "chip": "ym2612"
    },
    {
      "channel": 3,
      "note": 81,
      "start": 94.8032,
      "duration": 0.1089,
      "velocity": 94,
      "chip": "ym2612"
    },
    {
      "channel": 0,
      "note": 98,
      "start": 94.9118,
      "duration": 0.0309,
      "velocity": 114,
      "chip": "ym2612"
    },
    {
      "channel": 3,
      "note": 71,
      "start": 94.9121,
      "duration": 0.109,
      "velocity": 94,
      "chip": "ym2612"
    },
    {
      "channel": 5,
      "note": 76,
      "start": 94.9123,
      "duration": 0.109,
      "velocity": 94,
      "chip": "ym2612"
    },
    {
      "channel": 0,
      "note": 98,
      "start": 95.0208,
      "duration": 0.1089,
      "velocity": 127,
      "chip": "ym2612"
    },
    {
      "channel": 1,
      "note": 62,
      "start": 95.0209,
      "duration": 0.2178,
      "velocity": 93,
      "chip": "ym2612"
    },
    {
      "channel": 3,
      "note": 74,
      "start": 95.0211,
      "duration": 0.1089,
      "velocity": 94,
      "chip": "ym2612"
    },
    {
      "channel": 5,
      "note": 81,
      "start": 95.0213,
      "duration": 0.1089,
      "velocity": 94,
      "chip": "ym2612"
    },
    {
      "channel": 0,
      "note": 54,
      "start": 95.1297,
      "duration": 0.0154,
      "velocity": 127,
      "chip": "ym2612"
    },
    {
      "channel": 5,
      "note": 69,
      "start": 95.1302,
      "duration": 0.109,
      "velocity": 94,
      "chip": "ym2612"
    },
    {
      "channel": 0,
      "note": 76,
      "start": 95.1451,
      "duration": 0.0936,
      "velocity": 114,
      "chip": "ym2612"
    },
    {
      "channel": 0,
      "note": 68,
      "start": 95.2386,
      "duration": 0.0309,
      "velocity": 114,
      "chip": "ym2612"
    },
    {
      "channel": 1,
      "note": 62,
      "start": 95.2388,
      "duration": 0.2179,
      "velocity": 93,
      "chip": "ym2612"
    },
    {
      "channel": 3,
      "note": 76,
      "start": 95.239,
      "duration": 0.1089,
      "velocity": 94,
      "chip": "ym2612"
    },
    {
      "channel": 5,
      "note": 81,
      "start": 95.2392,
      "duration": 0.1088,
      "velocity": 94,
      "chip": "ym2612"
    },
    {
      "channel": 0,
      "note": 98,
      "start": 95.3476,
      "duration": 0.0309,
      "velocity": 114,
      "chip": "ym2612"
    },
    {
      "channel": 5,
      "note": 71,
      "start": 95.3481,
      "duration": 0.1093,
      "velocity": 94,
      "chip": "ym2612"
    },
    {
      "channel": 0,
      "note": 98,
      "start": 95.4566,
      "duration": 0.1089,
      "velocity": 114,
      "chip": "ym2612"
    },
    {
      "channel": 1,
      "note": 62,
      "start": 95.4567,
      "duration": 0.2178,
      "velocity": 93,
      "chip": "ym2612"
    },
    {
      "channel": 2,
      "note": 50,
      "start": 95.4568,
      "duration": 3.0505,
      "velocity": 121,
      "chip": "ym2612"
    },
    {
      "channel": 3,
      "note": 78,
      "start": 95.4572,
      "duration": 0.1085,
      "velocity": 94,
      "chip": "ym2612"
    },
    {
      "channel": 5,
      "note": 74,
      "start": 95.4574,
      "duration": 0.1085,
      "velocity": 94,
      "chip": "ym2612"
    },
    {
      "channel": 0,
      "note": 54,
      "start": 95.5655,
      "duration": 0.0309,
      "velocity": 114,
      "chip": "ym2612"
    },
    {
      "channel": 3,
      "note": 81,
      "start": 95.5657,
      "duration": 0.109,
      "velocity": 94,
      "chip": "ym2612"
    },
    {
      "channel": 4,
      "note": 50,
      "start": 95.6434,
      "duration": 3.0504,
      "velocity": 121,
      "chip": "ym2612"
    },
    {
      "channel": 0,
      "note": 98,
      "start": 95.6744,
      "duration": 0.0309,
      "velocity": 114,
      "chip": "ym2612"
    },
    {
      "channel": 1,
      "note": 59,
      "start": 95.6745,
      "duration": 0.2179,
      "velocity": 93,
      "chip": "ym2612"
    },
    {
      "channel": 3,
      "note": 69,
      "start": 95.6747,
      "duration": 0.1089,
      "velocity": 94,
      "chip": "ym2612"
    },
    {
      "channel": 5,
      "note": 76,
      "start": 95.6749,
      "duration": 0.109,
      "velocity": 94,
      "chip": "ym2612"
    },
    {
      "channel": 0,
      "note": 98,
      "start": 95.7834,
      "duration": 0.0309,
      "velocity": 114,
      "chip": "ym2612"
    },
    {
      "channel": 3,
      "note": 74,
      "start": 95.7836,
      "duration": 0.109,
      "velocity": 94,
      "chip": "ym2612"
    },
    {
      "channel": 5,
      "note": 78,
      "start": 95.7839,
      "duration": 0.1089,
      "velocity": 94,
      "chip": "ym2612"
    },
    {
      "channel": 0,
      "note": 98,
      "start": 95.8923,
      "duration": 0.0154,
      "velocity": 127,
      "chip": "ym2612"
    },
    {
      "channel": 1,
      "note": 59,
      "start": 95.8924,
      "duration": 0.2178,
      "velocity": 93,
      "chip": "ym2612"
    },
    {
      "channel": 5,
      "note": 81,
      "start": 95.8928,
      "duration": 0.1089,
      "velocity": 94,
      "chip": "ym2612"
    },
    {
      "channel": 0,
      "note": 76,
      "start": 95.9076,
      "duration": 0.0936,
      "velocity": 114,
      "chip": "ym2612"
    },
    {
      "channel": 0,
      "note": 68,
      "start": 96.0012,
      "duration": 0.0309,
      "velocity": 114,
      "chip": "ym2612"
    },
    {
      "channel": 3,
      "note": 76,
      "start": 96.0015,
      "duration": 0.109,
      "velocity": 94,
      "chip": "ym2612"
    },
    {
      "channel": 5,
      "note": 69,
      "start": 96.0017,
      "duration": 0.109,
      "velocity": 94,
      "chip": "ym2612"
    },
    {
      "channel": 0,
      "note": 98,
      "start": 96.1102,
      "duration": 0.0309,
      "velocity": 114,
      "chip": "ym2612"
    },
    {
      "channel": 1,
      "note": 59,
      "start": 96.1103,
      "duration": 0.2179,
      "velocity": 93,
      "chip": "ym2612"
    },
    {
      "channel": 3,
      "note": 81,
      "start": 96.1105,
      "duration": 0.1089,
      "velocity": 94,
      "chip": "ym2612"
    },
    {
      "channel": 5,
      "note": 74,
      "start": 96.1107,
      "duration": 0.1089,
      "velocity": 94,
      "chip": "ym2612"
    },
    {
      "channel": 0,
      "note": 98,
      "start": 96.2191,
      "duration": 0.0309,
      "velocity": 114,
      "chip": "ym2612"
    },
    {
      "channel": 3,
      "note": 69,
      "start": 96.2194,
      "duration": 0.109,
      "velocity": 94,
      "chip": "ym2612"
    },
    {
      "channel": 0,
      "note": 98,
      "start": 96.3281,
      "duration": 0.1089,
      "velocity": 114,
      "chip": "ym2612"
    },
    {
      "channel": 1,
      "note": 59,
      "start": 96.3282,
      "duration": 0.2178,
      "velocity": 93,
      "chip": "ym2612"
    },
    {
      "channel": 3,
      "note": 81,
      "start": 96.3284,
      "duration": 0.1089,
      "velocity": 94,
      "chip": "ym2612"
    },
    {
      "channel": 5,
      "note": 76,
      "start": 96.3286,
      "duration": 0.1089,
      "velocity": 94,
      "chip": "ym2612"
    },
    {
      "channel": 0,
      "note": 54,
      "start": 96.437,
      "duration": 0.0309,
      "velocity": 114,
      "chip": "ym2612"
    },
    {
      "channel": 3,
      "note": 71,
      "start": 96.4373,
      "duration": 0.109,
      "velocity": 94,
      "chip": "ym2612"
    },
    {
      "channel": 5,
      "note": 81,
      "start": 96.4375,
      "duration": 0.109,
      "velocity": 94,
      "chip": "ym2612"
    },
    {
      "channel": 0,
      "note": 98,
      "start": 96.5459,
      "duration": 0.0309,
      "velocity": 114,
      "chip": "ym2612"
    },
    {
      "channel": 1,
      "note": 59,
      "start": 96.5461,
      "duration": 0.2179,
      "velocity": 93,
      "chip": "ym2612"
    },
    {
      "channel": 3,
      "note": 74,
      "start": 96.5463,
      "duration": 0.1089,
      "velocity": 94,
      "chip": "ym2612"
    },
    {
      "channel": 5,
      "note": 69,
      "start": 96.5465,
      "duration": 0.1088,
      "velocity": 94,
      "chip": "ym2612"
    },
    {
      "channel": 0,
      "note": 98,
      "start": 96.6549,
      "duration": 0.0309,
      "velocity": 114,
      "chip": "ym2612"
    },
    {
      "channel": 5,
      "note": 81,
      "start": 96.6554,
      "duration": 0.109,
      "velocity": 94,
      "chip": "ym2612"
    },
    {
      "channel": 0,
      "note": 98,
      "start": 96.7638,
      "duration": 0.0154,
      "velocity": 127,
      "chip": "ym2612"
    },
    {
      "channel": 1,
      "note": 59,
      "start": 96.764,
      "duration": 0.2178,
      "velocity": 93,
      "chip": "ym2612"
    },
    {
      "channel": 3,
      "note": 76,
      "start": 96.7641,
      "duration": 0.1089,
      "velocity": 94,
      "chip": "ym2612"
    },
    {
      "channel": 5,
      "note": 71,
      "start": 96.7644,
      "duration": 0.1089,
      "velocity": 94,
      "chip": "ym2612"
    },
    {
      "channel": 0,
      "note": 76,
      "start": 96.7792,
      "duration": 0.0936,
      "velocity": 114,
      "chip": "ym2612"
    },
    {
      "channel": 0,
      "note": 68,
      "start": 96.8728,
      "duration": 0.0309,
      "velocity": 114,
      "chip": "ym2612"
    },
    {
      "channel": 5,
      "note": 74,
      "start": 96.8733,
      "duration": 0.109,
      "velocity": 94,
      "chip": "ym2612"
    },
    {
      "channel": 0,
      "note": 98,
      "start": 96.9817,
      "duration": 0.0309,
      "velocity": 114,
      "chip": "ym2612"
    },
    {
      "channel": 1,
      "note": 59,
      "start": 96.9818,
      "duration": 0.2179,
      "velocity": 93,
      "chip": "ym2612"
    },
    {
      "channel": 3,
      "note": 78,
      "start": 96.9821,
      "duration": 0.1089,
      "velocity": 94,
      "chip": "ym2612"
    },
    {
      "channel": 0,
      "note": 98,
      "start": 97.0907,
      "duration": 0.0308,
      "velocity": 114,
      "chip": "ym2612"
    },
    {
      "channel": 3,
      "note": 81,
      "start": 97.091,
      "duration": 0.1089,
      "velocity": 94,
      "chip": "ym2612"
    },
    {
      "channel": 5,
      "note": 76,
      "start": 97.0912,
      "duration": 0.109,
      "velocity": 94,
      "chip": "ym2612"
    },
    {
      "channel": 0,
      "note": 98,
      "start": 97.1996,
      "duration": 0.1089,
      "velocity": 114,
      "chip": "ym2612"
    },
    {
      "channel": 1,
      "note": 59,
      "start": 97.1998,
      "duration": 0.2178,
      "velocity": 93,
      "chip": "ym2612"
    },
    {
      "channel": 3,
      "note": 69,
      "start": 97.2,
      "duration": 0.1089,
      "velocity": 94,
      "chip": "ym2612"
    },
    {
      "channel": 5,
      "note": 78,
      "start": 97.2002,
      "duration": 0.1088,
      "velocity": 94,
      "chip": "ym2612"
    },
    {
      "channel": 0,
      "note": 54,
      "start": 97.3085,
      "duration": 0.0309,
      "velocity": 114,
      "chip": "ym2612"
    },
    {
      "channel": 3,
      "note": 74,
      "start": 97.3088,
      "duration": 0.109,
      "velocity": 94,
      "chip": "ym2612"
    },
    {
      "channel": 5,
      "note": 81,
      "start": 97.309,
      "duration": 0.1089,
      "velocity": 94,
      "chip": "ym2612"
    },
    {
      "channel": 0,
      "note": 98,
      "start": 97.4175,
      "duration": 0.0309,
      "velocity": 114,
      "chip": "ym2612"
    },
    {
      "channel": 1,
      "note": 59,
      "start": 97.4176,
      "duration": 0.2179,
      "velocity": 93,
      "chip": "ym2612"
    },
    {
      "channel": 5,
      "note": 69,
      "start": 97.418,
      "duration": 0.1089,
      "velocity": 94,
      "chip": "ym2612"
    },
    {
      "channel": 0,
      "note": 98,
      "start": 97.5264,
      "duration": 0.0309,
      "velocity": 114,
      "chip": "ym2612"
    },
    {
      "channel": 3,
      "note": 76,
      "start": 97.5267,
      "duration": 0.109,
      "velocity": 94,
      "chip": "ym2612"
    },
    {
      "channel": 5,
      "note": 74,
      "start": 97.5269,
      "duration": 0.109,
      "velocity": 94,
      "chip": "ym2612"
    },
    {
      "channel": 0,
      "note": 98,
      "start": 97.6354,
      "duration": 0.0154,
      "velocity": 127,
      "chip": "ym2612"
    },
    {
      "channel": 1,
      "note": 59,
      "start": 97.6355,
      "duration": 0.2179,
      "velocity": 93,
      "chip": "ym2612"
    },
    {
      "channel": 3,
      "note": 81,
      "start": 97.6357,
      "duration": 0.1089,
      "velocity": 94,
      "chip": "ym2612"
    },
    {
      "channel": 0,
      "note": 76,
      "start": 97.6507,
      "duration": 0.0936,
      "velocity": 114,
      "chip": "ym2612"
    },
    {
      "channel": 0,
      "note": 68,
      "start": 97.7443,
      "duration": 0.0309,
      "velocity": 114,
      "chip": "ym2612"
    },
    {
      "channel": 3,
      "note": 69,
      "start": 97.7446,
      "duration": 0.109,
      "velocity": 94,
      "chip": "ym2612"
    },
    {
      "channel": 5,
      "note": 76,
      "start": 97.7448,
      "duration": 0.109,
      "velocity": 94,
      "chip": "ym2612"
    },
    {
      "channel": 0,
      "note": 98,
      "start": 97.8532,
      "duration": 0.0309,
      "velocity": 114,
      "chip": "ym2612"
    },
    {
      "channel": 1,
      "note": 59,
      "start": 97.8534,
      "duration": 0.2179,
      "velocity": 93,
      "chip": "ym2612"
    },
    {
      "channel": 3,
      "note": 81,
      "start": 97.8536,
      "duration": 0.1089,
      "velocity": 94,
      "chip": "ym2612"
    },
    {
      "channel": 5,
      "note": 81,
      "start": 97.8538,
      "duration": 0.1089,
      "velocity": 94,
      "chip": "ym2612"
    },
    {
      "channel": 0,
      "note": 98,
      "start": 97.9622,
      "duration": 0.0309,
      "velocity": 114,
      "chip": "ym2612"
    },
    {
      "channel": 3,
      "note": 71,
      "start": 97.9624,
      "duration": 0.109,
      "velocity": 94,
      "chip": "ym2612"
    },
    {
      "channel": 5,
      "note": 69,
      "start": 97.9627,
      "duration": 0.109,
      "velocity": 94,
      "chip": "ym2612"
    },
    {
      "channel": 0,
      "note": 98,
      "start": 98.0711,
      "duration": 0.1089,
      "velocity": 127,
      "chip": "ym2612"
    },
    {
      "channel": 1,
      "note": 59,
      "start": 98.0713,
      "duration": 0.2179,
      "velocity": 93,
      "chip": "ym2612"
    },
    {
      "channel": 3,
      "note": 74,
      "start": 98.0715,
      "duration": 0.1089,
      "velocity": 94,
      "chip": "ym2612"
    },
    {
      "channel": 5,
      "note": 81,
      "start": 98.0717,
      "duration": 0.1088,
      "velocity": 94,
      "chip": "ym2612"
    },
    {
      "channel": 0,
      "note": 54,
      "start": 98.1801,
      "duration": 0.0154,
      "velocity": 127,
      "chip": "ym2612"
    },
    {
      "channel": 5,
      "note": 71,
      "start": 98.1806,
      "duration": 0.109,
      "velocity": 94,
      "chip": "ym2612"
    },
    {
      "channel": 0,
      "note": 76,
      "start": 98.1954,
      "duration": 0.0936,
      "velocity": 114,
      "chip": "ym2612"
    },
    {
      "channel": 0,
      "note": 68,
      "start": 98.289,
      "duration": 0.0309,
      "velocity": 114,
      "chip": "ym2612"
    },
    {
      "channel": 1,
      "note": 59,
      "start": 98.2891,
      "duration": 0.2181,
      "velocity": 93,
      "chip": "ym2612"
    },
    {
      "channel": 3,
      "note": 76,
      "start": 98.2893,
      "duration": 0.1089,
      "velocity": 94,
      "chip": "ym2612"
    },
    {
      "channel": 5,
      "note": 74,
      "start": 98.2896,
      "duration": 0.1088,
      "velocity": 94,
      "chip": "ym2612"
    },
    {
      "channel": 0,
      "note": 98,
      "start": 98.398,
      "duration": 0.0309,
      "velocity": 114,
      "chip": "ym2612"
    },
    {
      "channel": 0,
      "note": 98,
      "start": 98.5071,
      "duration": 0.1087,
      "velocity": 114,
      "chip": "ym2612"
    },
    {
      "channel": 1,
      "note": 59,
      "start": 98.5072,
      "duration": 0.2176,
      "velocity": 93,
      "chip": "ym2612"
    },
    {
      "channel": 2,
      "note": 47,
      "start": 98.5073,
      "duration": 3.0503,
      "velocity": 121,
      "chip": "ym2612"
    },
    {
      "channel": 3,
      "note": 78,
      "start": 98.5075,
      "duration": 0.1086,
      "velocity": 94,
      "chip": "ym2612"
    },
    {
      "channel": 5,
      "note": 76,
      "start": 98.5078,
      "duration": 0.1086,
      "velocity": 94,
      "chip": "ym2612"
    },
    {
      "channel": 0,
      "note": 54,
      "start": 98.6158,
      "duration": 0.0309,
      "velocity": 114,
      "chip": "ym2612"
    },
    {
      "channel": 3,
      "note": 81,
      "start": 98.6161,
      "duration": 0.109,
      "velocity": 94,
      "chip": "ym2612"
    },
    {
      "channel": 5,
      "note": 78,
      "start": 98.6164,
      "duration": 0.1089,
      "velocity": 94,
      "chip": "ym2612"
    },
    {
      "channel": 4,
      "note": 47,
      "start": 98.6938,
      "duration": 3.0504,
      "velocity": 121,
      "chip": "ym2612"
    },
    {
      "channel": 0,
      "note": 98,
      "start": 98.7248,
      "duration": 0.0309,
      "velocity": 114,
      "chip": "ym2612"
    },
    {
      "channel": 1,
      "note": 64,
      "start": 98.7249,
      "duration": 0.2179,
      "velocity": 93,
      "chip": "ym2612"
    },
    {
      "channel": 3,
      "note": 69,
      "start": 98.7251,
      "duration": 0.1089,
      "velocity": 94,
      "chip": "ym2612"
    },
    {
      "channel": 5,
      "note": 81,
      "start": 98.7253,
      "duration": 0.1089,
      "velocity": 94,
      "chip": "ym2612"
    },
    {
      "channel": 0,
      "note": 98,
      "start": 98.8337,
      "duration": 0.0309,
      "velocity": 114,
      "chip": "ym2612"
    },
    {
      "channel": 3,
      "note": 74,
      "start": 98.834,
      "duration": 0.109,
      "velocity": 94,
      "chip": "ym2612"
    },
    {
      "channel": 5,
      "note": 69,
      "start": 98.8342,
      "duration": 0.109,
      "velocity": 94,
      "chip": "ym2612"
    },
    {
      "channel": 0,
      "note": 98,
      "start": 98.9427,
      "duration": 0.0154,
      "velocity": 127,
      "chip": "ym2612"
    },
    {
      "channel": 1,
      "note": 64,
      "start": 98.9428,
      "duration": 0.2179,
      "velocity": 93,
      "chip": "ym2612"
    },
    {
      "channel": 5,
      "note": 74,
      "start": 98.9432,
      "duration": 0.1089,
      "velocity": 94,
      "chip": "ym2612"
    },
    {
      "channel": 0,
      "note": 76,
      "start": 98.958,
      "duration": 0.0936,
      "velocity": 114,
      "chip": "ym2612"
    },
    {
      "channel": 0,
      "note": 68,
      "start": 99.0516,
      "duration": 0.0309,
      "velocity": 114,
      "chip": "ym2612"
    },
    {
      "channel": 3,
      "note": 76,
      "start": 99.0519,
      "duration": 0.109,
      "velocity": 94,
      "chip": "ym2612"
    },
    {
      "channel": 0,
      "note": 98,
      "start": 99.1605,
      "duration": 0.0309,
      "velocity": 114,
      "chip": "ym2612"
    },
    {
      "channel": 1,
      "note": 64,
      "start": 99.1607,
      "duration": 0.2179,
      "velocity": 93,
      "chip": "ym2612"
    },
    {
      "channel": 3,
      "note": 81,
      "start": 99.1609,
      "duration": 0.1089,
      "velocity": 94,
      "chip": "ym2612"
    },
    {
      "channel": 5,
      "note": 76,
      "start": 99.1611,
      "duration": 0.1089,
      "velocity": 94,
      "chip": "ym2612"
    },
    {
      "channel": 0,
      "note": 98,
      "start": 99.2695,
      "duration": 0.0309,
      "velocity": 114,
      "chip": "ym2612"
    },
    {
      "channel": 3,
      "note": 69,
      "start": 99.2698,
      "duration": 0.109,
      "velocity": 94,
      "chip": "ym2612"
    },
    {
      "channel": 5,
      "note": 81,
      "start": 99.27,
      "duration": 0.109,
      "velocity": 94,
      "chip": "ym2612"
    },
    {
      "channel": 0,
      "note": 98,
      "start": 99.3784,
      "duration": 0.1089,
      "velocity": 114,
      "chip": "ym2612"
    },
    {
      "channel": 1,
      "note": 64,
      "start": 99.3786,
      "duration": 0.2178,
      "velocity": 93,
      "chip": "ym2612"
    },
    {
      "channel": 3,
      "note": 81,
      "start": 99.3788,
      "duration": 0.1089,
      "velocity": 94,
      "chip": "ym2612"
    },
    {
      "channel": 5,
      "note": 69,
      "start": 99.379,
      "duration": 0.1089,
      "velocity": 94,
      "chip": "ym2612"
    },
    {
      "channel": 0,
      "note": 54,
      "start": 99.4874,
      "duration": 0.0309,
      "velocity": 114,
      "chip": "ym2612"
    },
    {
      "channel": 3,
      "note": 71,
      "start": 99.4876,
      "duration": 0.109,
      "velocity": 94,
      "chip": "ym2612"
    },
    {
      "channel": 5,
      "note": 81,
      "start": 99.4879,
      "duration": 0.109,
      "velocity": 94,
      "chip": "ym2612"
    },
    {
      "channel": 0,
      "note": 98,
      "start": 99.5963,
      "duration": 0.0309,
      "velocity": 114,
      "chip": "ym2612"
    },
    {
      "channel": 1,
      "note": 64,
      "start": 99.5964,
      "duration": 0.2179,
      "velocity": 93,
      "chip": "ym2612"
    },
    {
      "channel": 3,
      "note": 74,
      "start": 99.5966,
      "duration": 0.1089,
      "velocity": 94,
      "chip": "ym2612"
    },
    {
      "channel": 5,
      "note": 71,
      "start": 99.5969,
      "duration": 0.1088,
      "velocity": 94,
      "chip": "ym2612"
    },
    {
      "channel": 0,
      "note": 98,
      "start": 99.7053,
      "duration": 0.0309,
      "velocity": 114,
      "chip": "ym2612"
    },
    {
      "channel": 5,
      "note": 74,
      "start": 99.7057,
      "duration": 0.109,
      "velocity": 94,
      "chip": "ym2612"
    },
    {
      "channel": 0,
      "note": 98,
      "start": 99.8142,
      "duration": 0.0154,
      "velocity": 127,
      "chip": "ym2612"
    },
    {
      "channel": 1,
      "note": 64,
      "start": 99.8143,
      "duration": 0.2178,
      "velocity": 93,
      "chip": "ym2612"
    },
    {
      "channel": 3,
      "note": 76,
      "start": 99.8145,
      "duration": 0.1089,
      "velocity": 94,
      "chip": "ym2612"
    },
    {
      "channel": 0,
      "note": 76,
      "start": 99.8295,
      "duration": 0.0936,
      "velocity": 114,
      "chip": "ym2612"
    },
    {
      "channel": 0,
      "note": 68,
      "start": 99.9231,
      "duration": 0.0309,
      "velocity": 114,
      "chip": "ym2612"
    },
    {
      "channel": 5,
      "note": 76,
      "start": 99.9238,
      "duration": 0.109,
      "velocity": 94,
      "chip": "ym2612"
    },
    {
      "channel": 0,
      "note": 98,
      "start": 100.0321,
      "duration": 0.0309,
      "velocity": 114,
      "chip": "ym2612"
    },
    {
      "channel": 1,
      "note": 64,
      "start": 100.0322,
      "duration": 0.2179,
      "velocity": 93,
      "chip": "ym2612"
    },
    {
      "channel": 3,
      "note": 78,
      "start": 100.0325,
      "duration": 0.1088,
      "velocity": 94,
      "chip": "ym2612"
    },
    {
      "channel": 5,
      "note": 78,
      "start": 100.0327,
      "duration": 0.1088,
      "velocity": 94,
      "chip": "ym2612"
    },
    {
      "channel": 0,
      "note": 98,
      "start": 100.141,
      "duration": 0.0309,
      "velocity": 114,
      "chip": "ym2612"
    },
    {
      "channel": 3,
      "note": 81,
      "start": 100.1413,
      "duration": 0.109,
      "velocity": 94,
      "chip": "ym2612"
    },
    {
      "channel": 5,
      "note": 81,
      "start": 100.1415,
      "duration": 0.109,
      "velocity": 94,
      "chip": "ym2612"
    },
    {
      "channel": 0,
      "note": 98,
      "start": 100.25,
      "duration": 0.1089,
      "velocity": 114,
      "chip": "ym2612"
    },
    {
      "channel": 1,
      "note": 64,
      "start": 100.2501,
      "duration": 0.2178,
      "velocity": 93,
      "chip": "ym2612"
    },
    {
      "channel": 3,
      "note": 69,
      "start": 100.2503,
      "duration": 0.1089,
      "velocity": 94,
      "chip": "ym2612"
    },
    {
      "channel": 5,
      "note": 69,
      "start": 100.2505,
      "duration": 0.1089,
      "velocity": 94,
      "chip": "ym2612"
    },
    {
      "channel": 0,
      "note": 54,
      "start": 100.3589,
      "duration": 0.0309,
      "velocity": 114,
      "chip": "ym2612"
    },
    {
      "channel": 3,
      "note": 74,
      "start": 100.3592,
      "duration": 0.109,
      "velocity": 94,
      "chip": "ym2612"
    },
    {
      "channel": 5,
      "note": 74,
      "start": 100.3594,
      "duration": 0.1089,
      "velocity": 94,
      "chip": "ym2612"
    },
    {
      "channel": 0,
      "note": 98,
      "start": 100.4678,
      "duration": 0.0309,
      "velocity": 114,
      "chip": "ym2612"
    },
    {
      "channel": 1,
      "note": 64,
      "start": 100.468,
      "duration": 0.2179,
      "velocity": 93,
      "chip": "ym2612"
    },
    {
      "channel": 0,
      "note": 98,
      "start": 100.5768,
      "duration": 0.0309,
      "velocity": 114,
      "chip": "ym2612"
    },
    {
      "channel": 3,
      "note": 76,
      "start": 100.5771,
      "duration": 0.109,
      "velocity": 94,
      "chip": "ym2612"
    },
    {
      "channel": 5,
      "note": 76,
      "start": 100.5773,
      "duration": 0.109,
      "velocity": 94,
      "chip": "ym2612"
    },
    {
      "channel": 0,
      "note": 98,
      "start": 100.6857,
      "duration": 0.0154,
      "velocity": 127,
      "chip": "ym2612"
    },
    {
      "channel": 1,
      "note": 64,
      "start": 100.6859,
      "duration": 0.2178,
      "velocity": 93,
      "chip": "ym2612"
    },
    {
      "channel": 3,
      "note": 81,
      "start": 100.6861,
      "duration": 0.1089,
      "velocity": 94,
      "chip": "ym2612"
    },
    {
      "channel": 5,
      "note": 81,
      "start": 100.6863,
      "duration": 0.1089,
      "velocity": 94,
      "chip": "ym2612"
    },
    {
      "channel": 0,
      "note": 76,
      "start": 100.7011,
      "duration": 0.0936,
      "velocity": 114,
      "chip": "ym2612"
    },
    {
      "channel": 0,
      "note": 68,
      "start": 100.7947,
      "duration": 0.0309,
      "velocity": 114,
      "chip": "ym2612"
    },
    {
      "channel": 3,
      "note": 69,
      "start": 100.7949,
      "duration": 0.109,
      "velocity": 94,
      "chip": "ym2612"
    },
    {
      "channel": 5,
      "note": 69,
      "start": 100.7952,
      "duration": 0.109,
      "velocity": 94,
      "chip": "ym2612"
    },
    {
      "channel": 0,
      "note": 98,
      "start": 100.9036,
      "duration": 0.0309,
      "velocity": 114,
      "chip": "ym2612"
    },
    {
      "channel": 1,
      "note": 64,
      "start": 100.9037,
      "duration": 0.2179,
      "velocity": 93,
      "chip": "ym2612"
    },
    {
      "channel": 3,
      "note": 81,
      "start": 100.9039,
      "duration": 0.1089,
      "velocity": 94,
      "chip": "ym2612"
    },
    {
      "channel": 5,
      "note": 81,
      "start": 100.9042,
      "duration": 0.1089,
      "velocity": 94,
      "chip": "ym2612"
    },
    {
      "channel": 0,
      "note": 98,
      "start": 101.0126,
      "duration": 0.0309,
      "velocity": 114,
      "chip": "ym2612"
    },
    {
      "channel": 3,
      "note": 71,
      "start": 101.0128,
      "duration": 0.109,
      "velocity": 94,
      "chip": "ym2612"
    },
    {
      "channel": 5,
      "note": 71,
      "start": 101.0131,
      "duration": 0.109,
      "velocity": 94,
      "chip": "ym2612"
    },
    {
      "channel": 0,
      "note": 98,
      "start": 101.1215,
      "duration": 0.1089,
      "velocity": 127,
      "chip": "ym2612"
    },
    {
      "channel": 1,
      "note": 64,
      "start": 101.1217,
      "duration": 0.2178,
      "velocity": 93,
      "chip": "ym2612"
    },
    {
      "channel": 3,
      "note": 74,
      "start": 101.1218,
      "duration": 0.1089,
      "velocity": 94,
      "chip": "ym2612"
    },
    {
      "channel": 5,
      "note": 74,
      "start": 101.1221,
      "duration": 0.1088,
      "velocity": 94,
      "chip": "ym2612"
    },
    {
      "channel": 0,
      "note": 54,
      "start": 101.2304,
      "duration": 0.0154,
      "velocity": 127,
      "chip": "ym2612"
    },
    {
      "channel": 0,
      "note": 76,
      "start": 101.2458,
      "duration": 0.0936,
      "velocity": 114,
      "chip": "ym2612"
    },
    {
      "channel": 0,
      "note": 68,
      "start": 101.3394,
      "duration": 0.0309,
      "velocity": 114,
      "chip": "ym2612"
    },
    {
      "channel": 1,
      "note": 64,
      "start": 101.3395,
      "duration": 0.218,
      "velocity": 93,
      "chip": "ym2612"
    },
    {
      "channel": 3,
      "note": 76,
      "start": 101.3397,
      "duration": 0.1089,
      "velocity": 94,
      "chip": "ym2612"
    },
    {
      "channel": 5,
      "note": 76,
      "start": 101.3399,
      "duration": 0.1089,
      "velocity": 94,
      "chip": "ym2612"
    },
    {
      "channel": 0,
      "note": 98,
      "start": 101.4483,
      "duration": 0.0309,
      "velocity": 114,
      "chip": "ym2612"
    },
    {
      "channel": 5,
      "note": 78,
      "start": 101.4488,
      "duration": 0.1093,
      "velocity": 94,
      "chip": "ym2612"
    },
    {
      "channel": 0,
      "note": 98,
      "start": 101.5574,
      "duration": 0.1088,
      "velocity": 114,
      "chip": "ym2612"
    },
    {
      "channel": 1,
      "note": 64,
      "start": 101.5576,
      "duration": 0.2177,
      "velocity": 93,
      "chip": "ym2612"
    },
    {
      "channel": 2,
      "note": 52,
      "start": 101.5577,
      "duration": 3.0502,
      "velocity": 121,
      "chip": "ym2612"
    },
    {
      "channel": 3,
      "note": 78,
      "start": 101.5579,
      "duration": 0.1086,
      "velocity": 94,
      "chip": "ym2612"
    },
    {
      "channel": 5,
      "note": 81,
      "start": 101.5581,
      "duration": 0.1086,
      "velocity": 94,
      "chip": "ym2612"
    },
    {
      "channel": 0,
      "note": 54,
      "start": 101.6662,
      "duration": 0.0309,
      "velocity": 114,
      "chip": "ym2612"
    },
    {
      "channel": 3,
      "note": 81,
      "start": 101.6665,
      "duration": 0.109,
      "velocity": 94,
      "chip": "ym2612"
    },
    {
      "channel": 5,
      "note": 69,
      "start": 101.6667,
      "duration": 0.109,
      "velocity": 94,
      "chip": "ym2612"
    },
    {
      "channel": 4,
      "note": 52,
      "start": 101.7441,
      "duration": 3.0504,
      "velocity": 121,
      "chip": "ym2612"
    },
    {
      "channel": 0,
      "note": 98,
      "start": 101.7751,
      "duration": 0.0309,
      "velocity": 114,
      "chip": "ym2612"
    },
    {
      "channel": 1,
      "note": 67,
      "start": 101.7753,
      "duration": 0.2179,
      "velocity": 93,
      "chip": "ym2612"
    },
    {
      "channel": 3,
      "note": 69,
      "start": 101.7755,
      "duration": 0.1089,
      "velocity": 94,
      "chip": "ym2612"
    },
    {
      "channel": 5,
      "note": 74,
      "start": 101.7757,
      "duration": 0.1089,
      "velocity": 94,
      "chip": "ym2612"
    },
    {
      "channel": 0,
      "note": 98,
      "start": 101.8841,
      "duration": 0.0309,
      "velocity": 114,
      "chip": "ym2612"
    },
    {
      "channel": 3,
      "note": 74,
      "start": 101.8844,
      "duration": 0.109,
      "velocity": 94,
      "chip": "ym2612"
    },
    {
      "channel": 0,
      "note": 98,
      "start": 101.993,
      "duration": 0.0153,
      "velocity": 127,
      "chip": "ym2612"
    },
    {
      "channel": 1,
      "note": 67,
      "start": 101.9932,
      "duration": 0.2178,
      "velocity": 93,
      "chip": "ym2612"
    },
    {
      "channel": 5,
      "note": 76,
      "start": 101.9936,
      "duration": 0.1089,
      "velocity": 94,
      "chip": "ym2612"
    },
    {
      "channel": 0,
      "note": 76,
      "start": 102.0084,
      "duration": 0.0936,
      "velocity": 114,
      "chip": "ym2612"
    },
    {
      "channel": 0,
      "note": 68,
      "start": 102.102,
      "duration": 0.0309,
      "velocity": 114,
      "chip": "ym2612"
    },
    {
      "channel": 3,
      "note": 76,
      "start": 102.1022,
      "duration": 0.109,
      "velocity": 94,
      "chip": "ym2612"
    },
    {
      "channel": 5,
      "note": 81,
      "start": 102.1025,
      "duration": 0.109,
      "velocity": 94,
      "chip": "ym2612"
    },
    {
      "channel": 0,
      "note": 98,
      "start": 102.2109,
      "duration": 0.0309,
      "velocity": 114,
      "chip": "ym2612"
    },
    {
      "channel": 1,
      "note": 67,
      "start": 102.211,
      "duration": 0.2179,
      "velocity": 93,
      "chip": "ym2612"
    },
    {
      "channel": 3,
      "note": 81,
      "start": 102.2112,
      "duration": 0.1089,
      "velocity": 94,
      "chip": "ym2612"
    },
    {
      "channel": 5,
      "note": 69,
      "start": 102.2115,
      "duration": 0.1089,
      "velocity": 94,
      "chip": "ym2612"
    },
    {
      "channel": 0,
      "note": 98,
      "start": 102.3199,
      "duration": 0.0309,
      "velocity": 114,
      "chip": "ym2612"
    },
    {
      "channel": 3,
      "note": 69,
      "start": 102.3201,
      "duration": 0.109,
      "velocity": 94,
      "chip": "ym2612"
    },
    {
      "channel": 5,
      "note": 81,
      "start": 102.3204,
      "duration": 0.109,
      "velocity": 94,
      "chip": "ym2612"
    },
    {
      "channel": 0,
      "note": 98,
      "start": 102.4288,
      "duration": 0.1089,
      "velocity": 114,
      "chip": "ym2612"
    },
    {
      "channel": 1,
      "note": 67,
      "start": 102.429,
      "duration": 0.2178,
      "velocity": 93,
      "chip": "ym2612"
    },
    {
      "channel": 3,
      "note": 81,
      "start": 102.4291,
      "duration": 0.1089,
      "velocity": 94,
      "chip": "ym2612"
    },
    {
      "channel": 5,
      "note": 71,
      "start": 102.4294,
      "duration": 0.1089,
      "velocity": 94,
      "chip": "ym2612"
    },
    {
      "channel": 0,
      "note": 54,
      "start": 102.5377,
      "duration": 0.0309,
      "velocity": 114,
      "chip": "ym2612"
    },
    {
      "channel": 3,
      "note": 71,
      "start": 102.538,
      "duration": 0.109,
      "velocity": 94,
      "chip": "ym2612"
    },
    {
      "channel": 5,
      "note": 74,
      "start": 102.5383,
      "duration": 0.109,
      "velocity": 94,
      "chip": "ym2612"
    },
    {
      "channel": 0,
      "note": 98,
      "start": 102.6467,
      "duration": 0.0309,
      "velocity": 114,
      "chip": "ym2612"
    },
    {
      "channel": 1,
      "note": 67,
      "start": 102.6468,
      "duration": 0.2179,
      "velocity": 93,
      "chip": "ym2612"
    },
    {
      "channel": 3,
      "note": 74,
      "start": 102.647,
      "duration": 0.1089,
      "velocity": 94,
      "chip": "ym2612"
    },
    {
      "channel": 0,
      "note": 98,
      "start": 102.7556,
      "duration": 0.0309,
      "velocity": 114,
      "chip": "ym2612"
    },
    {
      "channel": 5,
      "note": 76,
      "start": 102.7561,
      "duration": 0.1091,
      "velocity": 94,
      "chip": "ym2612"
    },
    {
      "channel": 0,
      "note": 98,
      "start": 102.8646,
      "duration": 0.0154,
      "velocity": 127,
      "chip": "ym2612"
    },
    {
      "channel": 1,
      "note": 67,
      "start": 102.8647,
      "duration": 0.2178,
      "velocity": 93,
      "chip": "ym2612"
    },
    {
      "channel": 3,
      "note": 76,
      "start": 102.8649,
      "duration": 0.1091,
      "velocity": 94,
      "chip": "ym2612"
    },
    {
      "channel": 5,
      "note": 78,
      "start": 102.8652,
      "duration": 0.109,
      "velocity": 94,
      "chip": "ym2612"
    },
    {
      "channel": 0,
      "note": 76,
      "start": 102.8799,
      "duration": 0.0936,
      "velocity": 114,
      "chip": "ym2612"
    },
    {
      "channel": 0,
      "note": 68,
      "start": 102.9735,
      "duration": 0.0309,
      "velocity": 114,
      "chip": "ym2612"
    },
    {
      "channel": 5,
      "note": 81,
      "start": 102.9742,
      "duration": 0.1089,
      "velocity": 94,
      "chip": "ym2612"
    },
    {
      "channel": 0,
      "note": 98,
      "start": 103.0824,
      "duration": 0.0309,
      "velocity": 114,
      "chip": "ym2612"
    },
    {
      "channel": 1,
      "note": 67,
      "start": 103.0826,
      "duration": 0.2179,
      "velocity": 93,
      "chip": "ym2612"
    },
    {
      "channel": 3,
      "note": 78,
      "start": 103.0828,
      "duration": 0.1088,
      "velocity": 94,
      "chip": "ym2612"
    },
    {
      "channel": 5,
      "note": 69,
      "start": 103.0831,
      "duration": 0.1088,
      "velocity": 94,
      "chip": "ym2612"
    },
    {
      "channel": 0,
      "note": 98,
      "start": 103.1914,
      "duration": 0.0309,
      "velocity": 114,
      "chip": "ym2612"
    },
    {
      "channel": 3,
      "note": 81,
      "start": 103.1917,
      "duration": 0.109,
      "velocity": 94,
      "chip": "ym2612"
    },
    {
      "channel": 5,
      "note": 74,
      "start": 103.1919,
      "duration": 0.109,
      "velocity": 94,
      "chip": "ym2612"
    },
    {
      "channel": 0,
      "note": 98,
      "start": 103.3003,
      "duration": 0.1089,
      "velocity": 114,
      "chip": "ym2612"
    },
    {
      "channel": 1,
      "note": 67,
      "start": 103.3005,
      "duration": 0.2178,
      "velocity": 93,
      "chip": "ym2612"
    },
    {
      "channel": 3,
      "note": 69,
      "start": 103.3007,
      "duration": 0.1089,
      "velocity": 94,
      "chip": "ym2612"
    },
    {
      "channel": 0,
      "note": 54,
      "start": 103.4093,
      "duration": 0.0309,
      "velocity": 114,
      "chip": "ym2612"
    },
    {
      "channel": 3,
      "note": 74,
      "start": 103.4095,
      "duration": 0.109,
      "velocity": 94,
      "chip": "ym2612"
    },
    {
      "channel": 5,
      "note": 76,
      "start": 103.4098,
      "duration": 0.109,
      "velocity": 94,
      "chip": "ym2612"
    },
    {
      "channel": 0,
      "note": 98,
      "start": 103.5182,
      "duration": 0.0309,
      "velocity": 114,
      "chip": "ym2612"
    },
    {
      "channel": 1,
      "note": 67,
      "start": 103.5183,
      "duration": 0.2179,
      "velocity": 93,
      "chip": "ym2612"
    },
    {
      "channel": 5,
      "note": 81,
      "start": 103.5187,
      "duration": 0.1089,
      "velocity": 94,
      "chip": "ym2612"
    },
    {
      "channel": 0,
      "note": 98,
      "start": 103.6272,
      "duration": 0.0309,
      "velocity": 114,
      "chip": "ym2612"
    },
    {
      "channel": 3,
      "note": 76,
      "start": 103.6274,
      "duration": 0.109,
      "velocity": 94,
      "chip": "ym2612"
    },
    {
      "channel": 5,
      "note": 69,
      "start": 103.6276,
      "duration": 0.109,
      "velocity": 94,
      "chip": "ym2612"
    },
    {
      "channel": 0,
      "note": 98,
      "start": 103.7361,
      "duration": 0.0154,
      "velocity": 127,
      "chip": "ym2612"
    },
    {
      "channel": 1,
      "note": 67,
      "start": 103.7362,
      "duration": 0.2178,
      "velocity": 93,
      "chip": "ym2612"
    },
    {
      "channel": 3,
      "note": 81,
      "start": 103.7364,
      "duration": 0.1089,
      "velocity": 94,
      "chip": "ym2612"
    },
    {
      "channel": 5,
      "note": 81,
      "start": 103.7367,
      "duration": 0.1089,
      "velocity": 94,
      "chip": "ym2612"
    },
    {
      "channel": 0,
      "note": 76,
      "start": 103.7515,
      "duration": 0.0936,
      "velocity": 114,
      "chip": "ym2612"
    },
    {
      "channel": 0,
      "note": 68,
      "start": 103.845,
      "duration": 0.0309,
      "velocity": 114,
      "chip": "ym2612"
    },
    {
      "channel": 3,
      "note": 69,
      "start": 103.8453,
      "duration": 0.109,
      "velocity": 94,
      "chip": "ym2612"
    },
    {
      "channel": 5,
      "note": 71,
      "start": 103.8456,
      "duration": 0.109,
      "velocity": 94,
      "chip": "ym2612"
    },
    {
      "channel": 0,
      "note": 98,
      "start": 103.954,
      "duration": 0.0309,
      "velocity": 114,
      "chip": "ym2612"
    },
    {
      "channel": 1,
      "note": 67,
      "start": 103.9541,
      "duration": 0.2179,
      "velocity": 93,
      "chip": "ym2612"
    },
    {
      "channel": 3,
      "note": 81,
      "start": 103.9543,
      "duration": 0.1089,
      "velocity": 94,
      "chip": "ym2612"
    },
    {
      "channel": 5,
      "note": 74,
      "start": 103.9545,
      "duration": 0.1089,
      "velocity": 94,
      "chip": "ym2612"
    },
    {
      "channel": 0,
      "note": 98,
      "start": 104.0629,
      "duration": 0.0309,
      "velocity": 114,
      "chip": "ym2612"
    },
    {
      "channel": 3,
      "note": 71,
      "start": 104.0632,
      "duration": 0.109,
      "velocity": 94,
      "chip": "ym2612"
    },
    {
      "channel": 0,
      "note": 98,
      "start": 104.1719,
      "duration": 0.1089,
      "velocity": 127,
      "chip": "ym2612"
    },
    {
      "channel": 1,
      "note": 67,
      "start": 104.172,
      "duration": 0.2178,
      "velocity": 93,
      "chip": "ym2612"
    },
    {
      "channel": 3,
      "note": 74,
      "start": 104.1722,
      "duration": 0.1088,
      "velocity": 94,
      "chip": "ym2612"
    },
    {
      "channel": 5,
      "note": 76,
      "start": 104.1724,
      "duration": 0.1089,
      "velocity": 94,
      "chip": "ym2612"
    },
    {
      "channel": 0,
      "note": 54,
      "start": 104.2808,
      "duration": 0.0154,
      "velocity": 127,
      "chip": "ym2612"
    },
    {
      "channel": 5,
      "note": 78,
      "start": 104.2814,
      "duration": 0.1091,
      "velocity": 94,
      "chip": "ym2612"
    },
    {
      "channel": 0,
      "note": 76,
      "start": 104.2962,
      "duration": 0.0936,
      "velocity": 114,
      "chip": "ym2612"
    },
    {
      "channel": 0,
      "note": 68,
      "start": 104.3898,
      "duration": 0.0309,
      "velocity": 114,
      "chip": "ym2612"
    },
    {
      "channel": 1,
      "note": 67,
      "start": 104.3899,
      "duration": 0.2179,
      "velocity": 93,
      "chip": "ym2612"
    },
    {
      "channel": 3,
      "note": 76,
      "start": 104.3901,
      "duration": 0.1089,
      "velocity": 94,
      "chip": "ym2612"
    },
    {
      "channel": 5,
      "note": 81,
      "start": 104.3905,
      "duration": 0.1087,
      "velocity": 94,
      "chip": "ym2612"
    },
    {
      "channel": 0,
      "note": 98,
      "start": 104.4987,
      "duration": 0.0309,
      "velocity": 114,
      "chip": "ym2612"
    },
    {
      "channel": 5,
      "note": 69,
      "start": 104.4992,
      "duration": 0.1092,
      "velocity": 94,
      "chip": "ym2612"
    },
    {
      "channel": 0,
      "note": 98,
      "start": 104.6077,
      "duration": 0.1089,
      "velocity": 114,
      "chip": "ym2612"
    },
    {
      "channel": 1,
      "note": 67,
      "start": 104.6078,
      "duration": 0.2178,
      "velocity": 93,
      "chip": "ym2612"
    },
    {
      "channel": 2,
      "note": 43,
      "start": 104.6079,
      "duration": 3.0503,
      "velocity": 121,
      "chip": "ym2612"
    },
    {
      "channel": 3,
      "note": 78,
      "start": 104.6081,
      "duration": 0.1087,
      "velocity": 94,
      "chip": "ym2612"
    },
    {
      "channel": 5,
      "note": 74,
      "start": 104.6083,
      "duration": 0.1087,
      "velocity": 94,
      "chip": "ym2612"
    },
    {
      "channel": 0,
      "note": 54,
      "start": 104.7166,
      "duration": 0.0309,
      "velocity": 114,
      "chip": "ym2612"
    },
    {
      "channel": 3,
      "note": 81,
      "start": 104.7168,
      "duration": 0.109,
      "velocity": 94,
      "chip": "ym2612"
    },
    {
      "channel": 4,
      "note": 43,
      "start": 104.7945,
      "duration": 3.0503,
      "velocity": 121,
      "chip": "ym2612"
    },
    {
      "channel": 0,
      "note": 98,
      "start": 104.8255,
      "duration": 0.0309,
      "velocity": 114,
      "chip": "ym2612"
    },
    {
      "channel": 1,
      "note": 62,
      "start": 104.8256,
      "duration": 0.2179,
      "velocity": 93,
      "chip": "ym2612"
    },
    {
      "channel": 3,
      "note": 69,
      "start": 104.8258,
      "duration": 0.1089,
      "velocity": 94,
      "chip": "ym2612"
    },
    {
      "channel": 5,
      "note": 76,
      "start": 104.826,
      "duration": 0.1089,
      "velocity": 94,
      "chip": "ym2612"
    },
    {
      "channel": 0,
      "note": 98,
      "start": 104.9345,
      "duration": 0.0309,
      "velocity": 114,
      "chip": "ym2612"
    },
    {
      "channel": 3,
      "note": 74,
      "start": 104.9347,
      "duration": 0.109,
      "velocity": 94,
      "chip": "ym2612"
    },
    {
      "channel": 5,
      "note": 81,
      "start": 104.9349,
      "duration": 0.109,
      "velocity": 94,
      "chip": "ym2612"
    },
    {
      "channel": 0,
      "note": 98,
      "start": 105.0434,
      "duration": 0.0154,
      "velocity": 127,
      "chip": "ym2612"
    },
    {
      "channel": 1,
      "note": 62,
      "start": 105.0435,
      "duration": 0.2178,
      "velocity": 93,
      "chip": "ym2612"
    },
    {
      "channel": 5,
      "note": 69,
      "start": 105.0439,
      "duration": 0.1089,
      "velocity": 94,
      "chip": "ym2612"
    },
    {
      "channel": 0,
      "note": 76,
      "start": 105.0588,
      "duration": 0.0936,
      "velocity": 114,
      "chip": "ym2612"
    },
    {
      "channel": 0,
      "note": 68,
      "start": 105.1523,
      "duration": 0.0309,
      "velocity": 114,
      "chip": "ym2612"
    },
    {
      "channel": 3,
      "note": 76,
      "start": 105.1526,
      "duration": 0.109,
      "velocity": 94,
      "chip": "ym2612"
    },
    {
      "channel": 5,
      "note": 81,
      "start": 105.1529,
      "duration": 0.109,
      "velocity": 94,
      "chip": "ym2612"
    },
    {
      "channel": 0,
      "note": 98,
      "start": 105.2613,
      "duration": 0.0309,
      "velocity": 114,
      "chip": "ym2612"
    },
    {
      "channel": 1,
      "note": 62,
      "start": 105.2614,
      "duration": 0.2179,
      "velocity": 93,
      "chip": "ym2612"
    },
    {
      "channel": 3,
      "note": 81,
      "start": 105.2616,
      "duration": 0.1089,
      "velocity": 94,
      "chip": "ym2612"
    },
    {
      "channel": 5,
      "note": 71,
      "start": 105.2618,
      "duration": 0.1089,
      "velocity": 94,
      "chip": "ym2612"
    },
    {
      "channel": 0,
      "note": 98,
      "start": 105.3702,
      "duration": 0.0309,
      "velocity": 114,
      "chip": "ym2612"
    },
    {
      "channel": 3,
      "note": 69,
      "start": 105.3705,
      "duration": 0.109,
      "velocity": 94,
      "chip": "ym2612"
    },
    {
      "channel": 5,
      "note": 74,
      "start": 105.3707,
      "duration": 0.109,
      "velocity": 94,
      "chip": "ym2612"
    },
    {
      "channel": 0,
      "note": 98,
      "start": 105.4792,
      "duration": 0.1089,
      "velocity": 114,
      "chip": "ym2612"
    },
    {
      "channel": 1,
      "note": 62,
      "start": 105.4793,
      "duration": 0.2178,
      "velocity": 93,
      "chip": "ym2612"
    },
    {
      "channel": 3,
      "note": 81,
      "start": 105.4795,
      "duration": 0.1088,
      "velocity": 94,
      "chip": "ym2612"
    },
    {
      "channel": 0,
      "note": 54,
      "start": 105.5881,
      "duration": 0.0309,
      "velocity": 114,
      "chip": "ym2612"
    },
    {
      "channel": 3,
      "note": 71,
      "start": 105.5884,
      "duration": 0.109,
      "velocity": 94,
      "chip": "ym2612"
    },
    {
      "channel": 5,
      "note": 76,
      "start": 105.5886,
      "duration": 0.109,
      "velocity": 94,
      "chip": "ym2612"
    },
    {
      "channel": 0,
      "note": 98,
      "start": 105.6971,
      "duration": 0.0309,
      "velocity": 114,
      "chip": "ym2612"
    },
    {
      "channel": 1,
      "note": 62,
      "start": 105.6972,
      "duration": 0.2179,
      "velocity": 93,
      "chip": "ym2612"
    },
    {
      "channel": 3,
      "note": 74,
      "start": 105.6973,
      "duration": 0.1089,
      "velocity": 94,
      "chip": "ym2612"
    },
    {
      "channel": 5,
      "note": 78,
      "start": 105.6976,
      "duration": 0.1088,
      "velocity": 94,
      "chip": "ym2612"
    },
    {
      "channel": 0,
      "note": 98,
      "start": 105.806,
      "duration": 0.0309,
      "velocity": 114,
      "chip": "ym2612"
    },
    {
      "channel": 5,
      "note": 81,
      "start": 105.8065,
      "duration": 0.109,
      "velocity": 94,
      "chip": "ym2612"
    },
    {
      "channel": 0,
      "note": 98,
      "start": 105.9149,
      "duration": 0.0154,
      "velocity": 127,
      "chip": "ym2612"
    },
    {
      "channel": 1,
      "note": 62,
      "start": 105.9151,
      "duration": 0.2179,
      "velocity": 93,
      "chip": "ym2612"
    },
    {
      "channel": 3,
      "note": 76,
      "start": 105.9153,
      "duration": 0.109,
      "velocity": 94,
      "chip": "ym2612"
    },
    {
      "channel": 5,
      "note": 69,
      "start": 105.9155,
      "duration": 0.109,
      "velocity": 94,
      "chip": "ym2612"
    },
    {
      "channel": 0,
      "note": 76,
      "start": 105.9303,
      "duration": 0.0937,
      "velocity": 114,
      "chip": "ym2612"
    },
    {
      "channel": 0,
      "note": 68,
      "start": 106.024,
      "duration": 0.0307,
      "velocity": 114,
      "chip": "ym2612"
    },
    {
      "channel": 5,
      "note": 74,
      "start": 106.0245,
      "duration": 0.1089,
      "velocity": 94,
      "chip": "ym2612"
    },
    {
      "channel": 0,
      "note": 98,
      "start": 106.1328,
      "duration": 0.0309,
      "velocity": 114,
      "chip": "ym2612"
    },
    {
      "channel": 1,
      "note": 62,
      "start": 106.1329,
      "duration": 0.2179,
      "velocity": 93,
      "chip": "ym2612"
    },
    {
      "channel": 3,
      "note": 78,
      "start": 106.1332,
      "duration": 0.1088,
      "velocity": 94,
      "chip": "ym2612"
    },
    {
      "channel": 0,
      "note": 98,
      "start": 106.2417,
      "duration": 0.0309,
      "velocity": 114,
      "chip": "ym2612"
    },
    {
      "channel": 3,
      "note": 81,
      "start": 106.242,
      "duration": 0.109,
      "velocity": 94,
      "chip": "ym2612"
    },
    {
      "channel": 5,
      "note": 76,
      "start": 106.2422,
      "duration": 0.109,
      "velocity": 94,
      "chip": "ym2612"
    },
    {
      "channel": 0,
      "note": 98,
      "start": 106.3507,
      "duration": 0.1089,
      "velocity": 114,
      "chip": "ym2612"
    },
    {
      "channel": 1,
      "note": 62,
      "start": 106.3508,
      "duration": 0.2178,
      "velocity": 93,
      "chip": "ym2612"
    },
    {
      "channel": 3,
      "note": 69,
      "start": 106.351,
      "duration": 0.1089,
      "velocity": 94,
      "chip": "ym2612"
    },
    {
      "channel": 5,
      "note": 81,
      "start": 106.3513,
      "duration": 0.1089,
      "velocity": 94,
      "chip": "ym2612"
    },
    {
      "channel": 0,
      "note": 54,
      "start": 106.4596,
      "duration": 0.0309,
      "velocity": 114,
      "chip": "ym2612"
    },
    {
      "channel": 3,
      "note": 74,
      "start": 106.4599,
      "duration": 0.109,
      "velocity": 94,
      "chip": "ym2612"
    },
    {
      "channel": 5,
      "note": 69,
      "start": 106.4602,
      "duration": 0.1089,
      "velocity": 94,
      "chip": "ym2612"
    },
    {
      "channel": 0,
      "note": 98,
      "start": 106.5686,
      "duration": 0.0309,
      "velocity": 114,
      "chip": "ym2612"
    },
    {
      "channel": 1,
      "note": 62,
      "start": 106.5687,
      "duration": 0.2179,
      "velocity": 93,
      "chip": "ym2612"
    },
    {
      "channel": 5,
      "note": 81,
      "start": 106.5691,
      "duration": 0.1089,
      "velocity": 94,
      "chip": "ym2612"
    },
    {
      "channel": 0,
      "note": 98,
      "start": 106.6775,
      "duration": 0.0309,
      "velocity": 114,
      "chip": "ym2612"
    },
    {
      "channel": 3,
      "note": 76,
      "start": 106.6778,
      "duration": 0.109,
      "velocity": 94,
      "chip": "ym2612"
    },
    {
      "channel": 5,
      "note": 71,
      "start": 106.678,
      "duration": 0.109,
      "velocity": 94,
      "chip": "ym2612"
    },
    {
      "channel": 0,
      "note": 98,
      "start": 106.7865,
      "duration": 0.0154,
      "velocity": 127,
      "chip": "ym2612"
    },
    {
      "channel": 1,
      "note": 62,
      "start": 106.7866,
      "duration": 0.2178,
      "velocity": 93,
      "chip": "ym2612"
    },
    {
      "channel": 3,
      "note": 81,
      "start": 106.7868,
      "duration": 0.1089,
      "velocity": 94,
      "chip": "ym2612"
    },
    {
      "channel": 5,
      "note": 74,
      "start": 106.787,
      "duration": 0.1089,
      "velocity": 94,
      "chip": "ym2612"
    },
    {
      "channel": 0,
      "note": 76,
      "start": 106.8018,
      "duration": 0.0936,
      "velocity": 114,
      "chip": "ym2612"
    },
    {
      "channel": 0,
      "note": 68,
      "start": 106.8954,
      "duration": 0.0309,
      "velocity": 114,
      "chip": "ym2612"
    },
    {
      "channel": 3,
      "note": 69,
      "start": 106.8957,
      "duration": 0.109,
      "velocity": 94,
      "chip": "ym2612"
    },
    {
      "channel": 0,
      "note": 98,
      "start": 107.0044,
      "duration": 0.0309,
      "velocity": 114,
      "chip": "ym2612"
    },
    {
      "channel": 1,
      "note": 62,
      "start": 107.0045,
      "duration": 0.2179,
      "velocity": 93,
      "chip": "ym2612"
    },
    {
      "channel": 3,
      "note": 81,
      "start": 107.0047,
      "duration": 0.1089,
      "velocity": 94,
      "chip": "ym2612"
    },
    {
      "channel": 5,
      "note": 76,
      "start": 107.0049,
      "duration": 0.1089,
      "velocity": 94,
      "chip": "ym2612"
    },
    {
      "channel": 0,
      "note": 98,
      "start": 107.1133,
      "duration": 0.0309,
      "velocity": 114,
      "chip": "ym2612"
    },
    {
      "channel": 3,
      "note": 71,
      "start": 107.1136,
      "duration": 0.109,
      "velocity": 94,
      "chip": "ym2612"
    },
    {
      "channel": 5,
      "note": 78,
      "start": 107.1138,
      "duration": 0.109,
      "velocity": 94,
      "chip": "ym2612"
    },
    {
      "channel": 0,
      "note": 98,
      "start": 107.2222,
      "duration": 0.1089,
      "velocity": 127,
      "chip": "ym2612"
    },
    {
      "channel": 1,
      "note": 62,
      "start": 107.2224,
      "duration": 0.2178,
      "velocity": 93,
      "chip": "ym2612"
    },
    {
      "channel": 3,
      "note": 74,
      "start": 107.2226,
      "duration": 0.1088,
      "velocity": 94,
      "chip": "ym2612"
    },
    {
      "channel": 5,
      "note": 81,
      "start": 107.2228,
      "duration": 0.1088,
      "velocity": 94,
      "chip": "ym2612"
    },
    {
      "channel": 0,
      "note": 54,
      "start": 107.3312,
      "duration": 0.0154,
      "velocity": 127,
      "chip": "ym2612"
    },
    {
      "channel": 5,
      "note": 69,
      "start": 107.3317,
      "duration": 0.1092,
      "velocity": 94,
      "chip": "ym2612"
    },
    {
      "channel": 0,
      "note": 76,
      "start": 107.3465,
      "duration": 0.0936,
      "velocity": 114,
      "chip": "ym2612"
    },
    {
      "channel": 0,
      "note": 68,
      "start": 107.4401,
      "duration": 0.0309,
      "velocity": 114,
      "chip": "ym2612"
    },
    {
      "channel": 1,
      "note": 62,
      "start": 107.4404,
      "duration": 0.2177,
      "velocity": 93,
      "chip": "ym2612"
    },
    {
      "channel": 3,
      "note": 76,
      "start": 107.4406,
      "duration": 0.1087,
      "velocity": 94,
      "chip": "ym2612"
    },
    {
      "channel": 5,
      "note": 74,
      "start": 107.4408,
      "duration": 0.1087,
      "velocity": 94,
      "chip": "ym2612"
    },
    {
      "channel": 0,
      "note": 98,
      "start": 107.549,
      "duration": 0.0309,
      "velocity": 114,
      "chip": "ym2612"
    },
    {
      "channel": 0,
      "note": 98,
      "start": 107.658,
      "duration": 0.1089,
      "velocity": 114,
      "chip": "ym2612"
    },
    {
      "channel": 1,
      "note": 62,
      "start": 107.6582,
      "duration": 0.2178,
      "velocity": 93,
      "chip": "ym2612"
    },
    {
      "channel": 2,
      "note": 50,
      "start": 107.6583,
      "duration": 3.0504,
      "velocity": 121,
      "chip": "ym2612"
    },
    {
      "channel": 3,
      "note": 78,
      "start": 107.6585,
      "duration": 0.1087,
      "velocity": 94,
      "chip": "ym2612"
    },
    {
      "channel": 5,
      "note": 76,
      "start": 107.6587,
      "duration": 0.1088,
      "velocity": 94,
      "chip": "ym2612"
    },
    {
      "channel": 0,
      "note": 54,
      "start": 107.7669,
      "duration": 0.0309,
      "velocity": 114,
      "chip": "ym2612"
    },
    {
      "channel": 3,
      "note": 81,
      "start": 107.7672,
      "duration": 0.109,
      "velocity": 94,
      "chip": "ym2612"
    },
    {
      "channel": 5,
      "note": 81,
      "start": 107.7674,
      "duration": 0.109,
      "velocity": 94,
      "chip": "ym2612"
    },
    {
      "channel": 4,
      "note": 50,
      "start": 107.8449,
      "duration": 3.0504,
      "velocity": 121,
      "chip": "ym2612"
    },
    {
      "channel": 0,
      "note": 98,
      "start": 107.8759,
      "duration": 0.0309,
      "velocity": 114,
      "chip": "ym2612"
    },
    {
      "channel": 1,
      "note": 59,
      "start": 107.876,
      "duration": 0.2179,
      "velocity": 93,
      "chip": "ym2612"
    },
    {
      "channel": 3,
      "note": 69,
      "start": 107.8762,
      "duration": 0.1089,
      "velocity": 94,
      "chip": "ym2612"
    },
    {
      "channel": 5,
      "note": 69,
      "start": 107.8764,
      "duration": 0.1089,
      "velocity": 94,
      "chip": "ym2612"
    },
    {
      "channel": 0,
      "note": 98,
      "start": 107.9848,
      "duration": 0.0309,
      "velocity": 114,
      "chip": "ym2612"
    },
    {
      "channel": 3,
      "note": 74,
      "start": 107.9851,
      "duration": 0.109,
      "velocity": 94,
      "chip": "ym2612"
    },
    {
      "channel": 5,
      "note": 81,
      "start": 107.9853,
      "duration": 0.109,
      "velocity": 94,
      "chip": "ym2612"
    },
    {
      "channel": 0,
      "note": 98,
      "start": 108.0938,
      "duration": 0.0154,
      "velocity": 127,
      "chip": "ym2612"
    },
    {
      "channel": 1,
      "note": 59,
      "start": 108.0939,
      "duration": 0.2178,
      "velocity": 93,
      "chip": "ym2612"
    },
    {
      "channel": 5,
      "note": 71,
      "start": 108.0943,
      "duration": 0.1089,
      "velocity": 94,
      "chip": "ym2612"
    },
    {
      "channel": 0,
      "note": 76,
      "start": 108.1091,
      "duration": 0.0936,
      "velocity": 114,
      "chip": "ym2612"
    },
    {
      "channel": 0,
      "note": 68,
      "start": 108.2027,
      "duration": 0.0309,
      "velocity": 114,
      "chip": "ym2612"
    },
    {
      "channel": 3,
      "note": 76,
      "start": 108.203,
      "duration": 0.109,
      "velocity": 94,
      "chip": "ym2612"
    },
    {
      "channel": 5,
      "note": 74,
      "start": 108.2032,
      "duration": 0.109,
      "velocity": 94,
      "chip": "ym2612"
    },
    {
      "channel": 0,
      "note": 98,
      "start": 108.3117,
      "duration": 0.0309,
      "velocity": 114,
      "chip": "ym2612"
    },
    {
      "channel": 1,
      "note": 59,
      "start": 108.3118,
      "duration": 0.2179,
      "velocity": 93,
      "chip": "ym2612"
    },
    {
      "channel": 3,
      "note": 81,
      "start": 108.312,
      "duration": 0.1089,
      "velocity": 94,
      "chip": "ym2612"
    },
    {
      "channel": 0,
      "note": 98,
      "start": 108.4206,
      "duration": 0.0309,
      "velocity": 114,
      "chip": "ym2612"
    },
    {
      "channel": 3,
      "note": 69,
      "start": 108.4209,
      "duration": 0.109,
      "velocity": 94,
      "chip": "ym2612"
    },
    {
      "channel": 5,
      "note": 76,
      "start": 108.4211,
      "duration": 0.1091,
      "velocity": 94,
      "chip": "ym2612"
    },
    {
      "channel": 0,
      "note": 98,
      "start": 108.5295,
      "duration": 0.1089,
      "velocity": 114,
      "chip": "ym2612"
    },
    {
      "channel": 1,
      "note": 59,
      "start": 108.5297,
      "duration": 0.2178,
      "velocity": 93,
      "chip": "ym2612"
    },
    {
      "channel": 3,
      "note": 81,
      "start": 108.5299,
      "duration": 0.1089,
      "velocity": 94,
      "chip": "ym2612"
    },
    {
      "channel": 5,
      "note": 78,
      "start": 108.5302,
      "duration": 0.1088,
      "velocity": 94,
      "chip": "ym2612"
    },
    {
      "channel": 0,
      "note": 54,
      "start": 108.6385,
      "duration": 0.0309,
      "velocity": 114,
      "chip": "ym2612"
    },
    {
      "channel": 3,
      "note": 71,
      "start": 108.6388,
      "duration": 0.109,
      "velocity": 94,
      "chip": "ym2612"
    },
    {
      "channel": 5,
      "note": 81,
      "start": 108.639,
      "duration": 0.109,
      "velocity": 94,
      "chip": "ym2612"
    },
    {
      "channel": 0,
      "note": 98,
      "start": 108.7474,
      "duration": 0.0309,
      "velocity": 114,
      "chip": "ym2612"
    },
    {
      "channel": 1,
      "note": 59,
      "start": 108.7475,
      "duration": 0.2179,
      "velocity": 93,
      "chip": "ym2612"
    },
    {
      "channel": 3,
      "note": 74,
      "start": 108.7477,
      "duration": 0.1089,
      "velocity": 94,
      "chip": "ym2612"
    },
    {
      "channel": 5,
      "note": 69,
      "start": 108.748,
      "duration": 0.1089,
      "velocity": 94,
      "chip": "ym2612"
    },
    {
      "channel": 0,
      "note": 98,
      "start": 108.8563,
      "duration": 0.0309,
      "velocity": 114,
      "chip": "ym2612"
    },
    {
      "channel": 5,
      "note": 74,
      "start": 108.8568,
      "duration": 0.109,
      "velocity": 94,
      "chip": "ym2612"
    },
    {
      "channel": 0,
      "note": 98,
      "start": 108.9653,
      "duration": 0.0154,
      "velocity": 127,
      "chip": "ym2612"
    },
    {
      "channel": 1,
      "note": 59,
      "start": 108.9654,
      "duration": 0.2178,
      "velocity": 93,
      "chip": "ym2612"
    },
    {
      "channel": 3,
      "note": 76,
      "start": 108.9656,
      "duration": 0.1089,
      "velocity": 94,
      "chip": "ym2612"
    },
    {
      "channel": 0,
      "note": 76,
      "start": 108.9807,
      "duration": 0.0936,
      "velocity": 114,
      "chip": "ym2612"
    },
    {
      "channel": 0,
      "note": 68,
      "start": 109.0742,
      "duration": 0.0309,
      "velocity": 114,
      "chip": "ym2612"
    },
    {
      "channel": 5,
      "note": 76,
      "start": 109.0747,
      "duration": 0.1091,
      "velocity": 94,
      "chip": "ym2612"
    },
    {
      "channel": 0,
      "note": 98,
      "start": 109.1832,
      "duration": 0.0309,
      "velocity": 114,
      "chip": "ym2612"
    },
    {
      "channel": 1,
      "note": 59,
      "start": 109.1833,
      "duration": 0.2179,
      "velocity": 93,
      "chip": "ym2612"
    },
    {
      "channel": 3,
      "note": 78,
      "start": 109.1836,
      "duration": 0.1088,
      "velocity": 94,
      "chip": "ym2612"
    },
    {
      "channel": 5,
      "note": 81,
      "start": 109.1838,
      "duration": 0.1088,
      "velocity": 94,
      "chip": "ym2612"
    },
    {
      "channel": 0,
      "note": 98,
      "start": 109.2921,
      "duration": 0.0309,
      "velocity": 114,
      "chip": "ym2612"
    },
    {
      "channel": 3,
      "note": 81,
      "start": 109.2924,
      "duration": 0.109,
      "velocity": 94,
      "chip": "ym2612"
    },
    {
      "channel": 5,
      "note": 69,
      "start": 109.2926,
      "duration": 0.109,
      "velocity": 94,
      "chip": "ym2612"
    },
    {
      "channel": 0,
      "note": 98,
      "start": 109.4011,
      "duration": 0.1089,
      "velocity": 114,
      "chip": "ym2612"
    },
    {
      "channel": 1,
      "note": 59,
      "start": 109.4012,
      "duration": 0.2178,
      "velocity": 93,
      "chip": "ym2612"
    },
    {
      "channel": 3,
      "note": 69,
      "start": 109.4014,
      "duration": 0.1089,
      "velocity": 94,
      "chip": "ym2612"
    },
    {
      "channel": 5,
      "note": 81,
      "start": 109.4017,
      "duration": 0.1089,
      "velocity": 94,
      "chip": "ym2612"
    },
    {
      "channel": 0,
      "note": 54,
      "start": 109.51,
      "duration": 0.0309,
      "velocity": 114,
      "chip": "ym2612"
    },
    {
      "channel": 3,
      "note": 74,
      "start": 109.5103,
      "duration": 0.1089,
      "velocity": 94,
      "chip": "ym2612"
    },
    {
      "channel": 5,
      "note": 71,
      "start": 109.5105,
      "duration": 0.1089,
      "velocity": 94,
      "chip": "ym2612"
    },
    {
      "channel": 0,
      "note": 98,
      "start": 109.619,
      "duration": 0.0309,
      "velocity": 114,
      "chip": "ym2612"
    },
    {
      "channel": 1,
      "note": 59,
      "start": 109.619,
      "duration": 0.2179,
      "velocity": 93,
      "chip": "ym2612"
    },
    {
      "channel": 5,
      "note": 74,
      "start": 109.6195,
      "duration": 0.1089,
      "velocity": 94,
      "chip": "ym2612"
    },
    {
      "channel": 0,
      "note": 98,
      "start": 109.7279,
      "duration": 0.0309,
      "velocity": 114,
      "chip": "ym2612"
    },
    {
      "channel": 3,
      "note": 76,
      "start": 109.7281,
      "duration": 0.109,
      "velocity": 94,
      "chip": "ym2612"
    },
    {
      "channel": 0,
      "note": 98,
      "start": 109.8368,
      "duration": 0.0154,
      "velocity": 127,
      "chip": "ym2612"
    },
    {
      "channel": 1,
      "note": 59,
      "start": 109.837,
      "duration": 0.2178,
      "velocity": 93,
      "chip": "ym2612"
    },
    {
      "channel": 3,
      "note": 81,
      "start": 109.8372,
      "duration": 0.1089,
      "velocity": 94,
      "chip": "ym2612"
    },
    {
      "channel": 5,
      "note": 76,
      "start": 109.8374,
      "duration": 0.1089,
      "velocity": 94,
      "chip": "ym2612"
    },
    {
      "channel": 0,
      "note": 76,
      "start": 109.8522,
      "duration": 0.0936,
      "velocity": 114,
      "chip": "ym2612"
    },
    {
      "channel": 0,
      "note": 68,
      "start": 109.9458,
      "duration": 0.0309,
      "velocity": 114,
      "chip": "ym2612"
    },
    {
      "channel": 3,
      "note": 69,
      "start": 109.9461,
      "duration": 0.109,
      "velocity": 94,
      "chip": "ym2612"
    },
    {
      "channel": 5,
      "note": 78,
      "start": 109.9463,
      "duration": 0.1089,
      "velocity": 94,
      "chip": "ym2612"
    },
    {
      "channel": 0,
      "note": 98,
      "start": 110.0547,
      "duration": 0.0309,
      "velocity": 114,
      "chip": "ym2612"
    },
    {
      "channel": 1,
      "note": 59,
      "start": 110.0548,
      "duration": 0.2179,
      "velocity": 93,
      "chip": "ym2612"
    },
    {
      "channel": 3,
      "note": 81,
      "start": 110.055,
      "duration": 0.1089,
      "velocity": 94,
      "chip": "ym2612"
    },
    {
      "channel": 5,
      "note": 81,
      "start": 110.0553,
      "duration": 0.1089,
      "velocity": 94,
      "chip": "ym2612"
    },
    {
      "channel": 0,
      "note": 98,
      "start": 110.1637,
      "duration": 0.0309,
      "velocity": 114,
      "chip": "ym2612"
    },
    {
      "channel": 3,
      "note": 71,
      "start": 110.1639,
      "duration": 0.109,
      "velocity": 94,
      "chip": "ym2612"
    },
    {
      "channel": 5,
      "note": 69,
      "start": 110.1641,
      "duration": 0.109,
      "velocity": 94,
      "chip": "ym2612"
    },
    {
      "channel": 0,
      "note": 98,
      "start": 110.2726,
      "duration": 0.1089,
      "velocity": 127,
      "chip": "ym2612"
    },
    {
      "channel": 1,
      "note": 59,
      "start": 110.2727,
      "duration": 0.218,
      "velocity": 93,
      "chip": "ym2612"
    },
    {
      "channel": 3,
      "note": 74,
      "start": 110.2729,
      "duration": 0.1089,
      "velocity": 94,
      "chip": "ym2612"
    },
    {
      "channel": 5,
      "note": 74,
      "start": 110.2732,
      "duration": 0.1088,
      "velocity": 94,
      "chip": "ym2612"
    },
    {
      "channel": 0,
      "note": 54,
      "start": 110.3815,
      "duration": 0.0154,
      "velocity": 127,
      "chip": "ym2612"
    },
    {
      "channel": 0,
      "note": 76,
      "start": 110.3969,
      "duration": 0.0937,
      "velocity": 114,
      "chip": "ym2612"
    },
    {
      "channel": 0,
      "note": 68,
      "start": 110.4907,
      "duration": 0.0307,
      "velocity": 114,
      "chip": "ym2612"
    },
    {
      "channel": 1,
      "note": 59,
      "start": 110.4908,
      "duration": 0.2178,
      "velocity": 93,
      "chip": "ym2612"
    },
    {
      "channel": 3,
      "note": 76,
      "start": 110.491,
      "duration": 0.1087,
      "velocity": 94,
      "chip": "ym2612"
    },
    {
      "channel": 5,
      "note": 76,
      "start": 110.4912,
      "duration": 0.1087,
      "velocity": 94,
      "chip": "ym2612"
    },
    {
      "channel": 0,
      "note": 98,
      "start": 110.5994,
      "duration": 0.0309,
      "velocity": 114,
      "chip": "ym2612"
    },
    {
      "channel": 5,
      "note": 81,
      "start": 110.5999,
      "duration": 0.1091,
      "velocity": 94,
      "chip": "ym2612"
    },
    {
      "channel": 0,
      "note": 98,
      "start": 110.7084,
      "duration": 0.1089,
      "velocity": 114,
      "chip": "ym2612"
    },
    {
      "channel": 1,
      "note": 59,
      "start": 110.7085,
      "duration": 0.2178,
      "velocity": 93,
      "chip": "ym2612"
    },
    {
      "channel": 2,
      "note": 47,
      "start": 110.7086,
      "duration": 3.0504,
      "velocity": 121,
      "chip": "ym2612"
    },
    {
      "channel": 3,
      "note": 78,
      "start": 110.7088,
      "duration": 0.1087,
      "velocity": 94,
      "chip": "ym2612"
    },
    {
      "channel": 5,
      "note": 69,
      "start": 110.7091,
      "duration": 0.1087,
      "velocity": 94,
      "chip": "ym2612"
    },
    {
      "channel": 0,
      "note": 54,
      "start": 110.8173,
      "duration": 0.0309,
      "velocity": 114,
      "chip": "ym2612"
    },
    {
      "channel": 3,
      "note": 81,
      "start": 110.8176,
      "duration": 0.109,
      "velocity": 94,
      "chip": "ym2612"
    },
    {
      "channel": 5,
      "note": 81,
      "start": 110.8178,
      "duration": 0.109,
      "velocity": 94,
      "chip": "ym2612"
    },
    {
      "channel": 4,
      "note": 47,
      "start": 110.8952,
      "duration": 3.0503,
      "velocity": 121,
      "chip": "ym2612"
    },
    {
      "channel": 0,
      "note": 98,
      "start": 110.9263,
      "duration": 0.0309,
      "velocity": 114,
      "chip": "ym2612"
    },
    {
      "channel": 1,
      "note": 55,
      "start": 110.9263,
      "duration": 0.2179,
      "velocity": 93,
      "chip": "ym2612"
    },
    {
      "channel": 3,
      "note": 69,
      "start": 110.9266,
      "duration": 0.1089,
      "velocity": 94,
      "chip": "ym2612"
    },
    {
      "channel": 5,
      "note": 71,
      "start": 110.9268,
      "duration": 0.1089,
      "velocity": 94,
      "chip": "ym2612"
    },
    {
      "channel": 0,
      "note": 98,
      "start": 111.0352,
      "duration": 0.0309,
      "velocity": 114,
      "chip": "ym2612"
    },
    {
      "channel": 3,
      "note": 74,
      "start": 111.0355,
      "duration": 0.109,
      "velocity": 94,
      "chip": "ym2612"
    },
    {
      "channel": 5,
      "note": 74,
      "start": 111.0357,
      "duration": 0.109,
      "velocity": 94,
      "chip": "ym2612"
    },
    {
      "channel": 0,
      "note": 98,
      "start": 111.1441,
      "duration": 0.0154,
      "velocity": 127,
      "chip": "ym2612"
    },
    {
      "channel": 1,
      "note": 55,
      "start": 111.1443,
      "duration": 0.2178,
      "velocity": 93,
      "chip": "ym2612"
    },
    {
      "channel": 0,
      "note": 76,
      "start": 111.1595,
      "duration": 0.0936,
      "velocity": 114,
      "chip": "ym2612"
    },
    {
      "channel": 0,
      "note": 68,
      "start": 111.2531,
      "duration": 0.0309,
      "velocity": 114,
      "chip": "ym2612"
    },
    {
      "channel": 3,
      "note": 76,
      "start": 111.2533,
      "duration": 0.109,
      "velocity": 94,
      "chip": "ym2612"
    },
    {
      "channel": 5,
      "note": 76,
      "start": 111.2536,
      "duration": 0.109,
      "velocity": 94,
      "chip": "ym2612"
    },
    {
      "channel": 0,
      "note": 98,
      "start": 111.362,
      "duration": 0.0309,
      "velocity": 114,
      "chip": "ym2612"
    },
    {
      "channel": 1,
      "note": 55,
      "start": 111.3621,
      "duration": 0.2179,
      "velocity": 93,
      "chip": "ym2612"
    },
    {
      "channel": 3,
      "note": 81,
      "start": 111.3623,
      "duration": 0.1089,
      "velocity": 94,
      "chip": "ym2612"
    },
    {
      "channel": 5,
      "note": 78,
      "start": 111.3626,
      "duration": 0.1088,
      "velocity": 94,
      "chip": "ym2612"
    },
    {
      "channel": 0,
      "note": 98,
      "start": 111.471,
      "duration": 0.0309,
      "velocity": 114,
      "chip": "ym2612"
    },
    {
      "channel": 3,
      "note": 69,
      "start": 111.4712,
      "duration": 0.109,
      "velocity": 94,
      "chip": "ym2612"
    },
    {
      "channel": 5,
      "note": 81,
      "start": 111.4715,
      "duration": 0.109,
      "velocity": 94,
      "chip": "ym2612"
    },
    {
      "channel": 0,
      "note": 98,
      "start": 111.5799,
      "duration": 0.1089,
      "velocity": 114,
      "chip": "ym2612"
    },
    {
      "channel": 1,
      "note": 55,
      "start": 111.58,
      "duration": 0.2178,
      "velocity": 93,
      "chip": "ym2612"
    },
    {
      "channel": 3,
      "note": 81,
      "start": 111.5802,
      "duration": 0.1089,
      "velocity": 94,
      "chip": "ym2612"
    },
    {
      "channel": 5,
      "note": 69,
      "start": 111.5805,
      "duration": 0.1089,
      "velocity": 94,
      "chip": "ym2612"
    },
    {
      "channel": 0,
      "note": 54,
      "start": 111.6888,
      "duration": 0.0309,
      "velocity": 114,
      "chip": "ym2612"
    },
    {
      "channel": 3,
      "note": 71,
      "start": 111.6891,
      "duration": 0.109,
      "velocity": 94,
      "chip": "ym2612"
    },
    {
      "channel": 5,
      "note": 74,
      "start": 111.6894,
      "duration": 0.109,
      "velocity": 94,
      "chip": "ym2612"
    },
    {
      "channel": 0,
      "note": 98,
      "start": 111.7978,
      "duration": 0.0309,
      "velocity": 114,
      "chip": "ym2612"
    },
    {
      "channel": 1,
      "note": 55,
      "start": 111.7979,
      "duration": 0.2179,
      "velocity": 93,
      "chip": "ym2612"
    },
    {
      "channel": 3,
      "note": 74,
      "start": 111.7981,
      "duration": 0.109,
      "velocity": 94,
      "chip": "ym2612"
    },
    {
      "channel": 0,
      "note": 98,
      "start": 111.9067,
      "duration": 0.0309,
      "velocity": 114,
      "chip": "ym2612"
    },
    {
      "channel": 5,
      "note": 76,
      "start": 111.9074,
      "duration": 0.1088,
      "velocity": 94,
      "chip": "ym2612"
    },
    {
      "channel": 0,
      "note": 98,
      "start": 112.0157,
      "duration": 0.0154,
      "velocity": 127,
      "chip": "ym2612"
    },
    {
      "channel": 1,
      "note": 55,
      "start": 112.0158,
      "duration": 0.2178,
      "velocity": 93,
      "chip": "ym2612"
    },
    {
      "channel": 3,
      "note": 76,
      "start": 112.016,
      "duration": 0.1089,
      "velocity": 94,
      "chip": "ym2612"
    },
    {
      "channel": 5,
      "note": 81,
      "start": 112.0162,
      "duration": 0.1089,
      "velocity": 94,
      "chip": "ym2612"
    },
    {
      "channel": 0,
      "note": 76,
      "start": 112.031,
      "duration": 0.0936,
      "velocity": 114,
      "chip": "ym2612"
    },
    {
      "channel": 0,
      "note": 68,
      "start": 112.1246,
      "duration": 0.0309,
      "velocity": 114,
      "chip": "ym2612"
    },
    {
      "channel": 5,
      "note": 69,
      "start": 112.1251,
      "duration": 0.109,
      "velocity": 94,
      "chip": "ym2612"
    },
    {
      "channel": 0,
      "note": 98,
      "start": 112.2336,
      "duration": 0.0309,
      "velocity": 114,
      "chip": "ym2612"
    },
    {
      "channel": 1,
      "note": 55,
      "start": 112.2337,
      "duration": 0.2179,
      "velocity": 93,
      "chip": "ym2612"
    },
    {
      "channel": 3,
      "note": 78,
      "start": 112.2339,
      "duration": 0.1088,
      "velocity": 94,
      "chip": "ym2612"
    },
    {
      "channel": 5,
      "note": 81,
      "start": 112.2342,
      "duration": 0.1088,
      "velocity": 94,
      "chip": "ym2612"
    },
    {
      "channel": 0,
      "note": 98,
      "start": 112.3425,
      "duration": 0.0309,
      "velocity": 114,
      "chip": "ym2612"
    },
    {
      "channel": 3,
      "note": 81,
      "start": 112.3427,
      "duration": 0.109,
      "velocity": 94,
      "chip": "ym2612"
    },
    {
      "channel": 5,
      "note": 71,
      "start": 112.343,
      "duration": 0.109,
      "velocity": 94,
      "chip": "ym2612"
    },
    {
      "channel": 0,
      "note": 98,
      "start": 112.4515,
      "duration": 0.1089,
      "velocity": 114,
      "chip": "ym2612"
    },
    {
      "channel": 1,
      "note": 55,
      "start": 112.4516,
      "duration": 0.2178,
      "velocity": 93,
      "chip": "ym2612"
    },
    {
      "channel": 3,
      "note": 69,
      "start": 112.4518,
      "duration": 0.1089,
      "velocity": 94,
      "chip": "ym2612"
    },
    {
      "channel": 5,
      "note": 74,
      "start": 112.452,
      "duration": 0.1088,
      "velocity": 94,
      "chip": "ym2612"
    },
    {
      "channel": 0,
      "note": 54,
      "start": 112.5604,
      "duration": 0.0309,
      "velocity": 114,
      "chip": "ym2612"
    },
    {
      "channel": 3,
      "note": 74,
      "start": 112.5607,
      "duration": 0.109,
      "velocity": 94,
      "chip": "ym2612"
    },
    {
      "channel": 0,
      "note": 98,
      "start": 112.6693,
      "duration": 0.0309,
      "velocity": 114,
      "chip": "ym2612"
    },
    {
      "channel": 1,
      "note": 55,
      "start": 112.6694,
      "duration": 0.2179,
      "velocity": 93,
      "chip": "ym2612"
    },
    {
      "channel": 5,
      "note": 76,
      "start": 112.6698,
      "duration": 0.109,
      "velocity": 94,
      "chip": "ym2612"
    },
    {
      "channel": 0,
      "note": 98,
      "start": 112.7783,
      "duration": 0.0309,
      "velocity": 114,
      "chip": "ym2612"
    },
    {
      "channel": 3,
      "note": 76,
      "start": 112.7785,
      "duration": 0.109,
      "velocity": 94,
      "chip": "ym2612"
    },
    {
      "channel": 5,
      "note": 78,
      "start": 112.7788,
      "duration": 0.109,
      "velocity": 94,
      "chip": "ym2612"
    },
    {
      "channel": 0,
      "note": 98,
      "start": 112.8872,
      "duration": 0.0154,
      "velocity": 127,
      "chip": "ym2612"
    },
    {
      "channel": 1,
      "note": 55,
      "start": 112.8873,
      "duration": 0.2179,
      "velocity": 93,
      "chip": "ym2612"
    },
    {
      "channel": 3,
      "note": 81,
      "start": 112.8875,
      "duration": 0.1089,
      "velocity": 94,
      "chip": "ym2612"
    },
    {
      "channel": 5,
      "note": 81,
      "start": 112.8878,
      "duration": 0.1089,
      "velocity": 94,
      "chip": "ym2612"
    },
    {
      "channel": 0,
      "note": 76,
      "start": 112.9026,
      "duration": 0.0936,
      "velocity": 114,
      "chip": "ym2612"
    },
    {
      "channel": 0,
      "note": 68,
      "start": 112.9961,
      "duration": 0.0309,
      "velocity": 114,
      "chip": "ym2612"
    },
    {
      "channel": 3,
      "note": 69,
      "start": 112.9964,
      "duration": 0.109,
      "velocity": 94,
      "chip": "ym2612"
    },
    {
      "channel": 5,
      "note": 69,
      "start": 112.9967,
      "duration": 0.109,
      "velocity": 94,
      "chip": "ym2612"
    },
    {
      "channel": 0,
      "note": 98,
      "start": 113.1051,
      "duration": 0.0309,
      "velocity": 114,
      "chip": "ym2612"
    },
    {
      "channel": 1,
      "note": 55,
      "start": 113.1052,
      "duration": 0.2179,
      "velocity": 93,
      "chip": "ym2612"
    },
    {
      "channel": 3,
      "note": 81,
      "start": 113.1054,
      "duration": 0.1089,
      "velocity": 94,
      "chip": "ym2612"
    },
    {
      "channel": 5,
      "note": 74,
      "start": 113.1056,
      "duration": 0.1089,
      "velocity": 94,
      "chip": "ym2612"
    },
    {
      "channel": 0,
      "note": 98,
      "start": 113.214,
      "duration": 0.0309,
      "velocity": 114,
      "chip": "ym2612"
    },
    {
      "channel": 3,
      "note": 71,
      "start": 113.2143,
      "duration": 0.109,
      "velocity": 94,
      "chip": "ym2612"
    },
    {
      "channel": 0,
      "note": 98,
      "start": 113.323,
      "duration": 0.1089,
      "velocity": 127,
      "chip": "ym2612"
    },
    {
      "channel": 1,
      "note": 55,
      "start": 113.3231,
      "duration": 0.2179,
      "velocity": 93,
      "chip": "ym2612"
    },
    {
      "channel": 3,
      "note": 74,
      "start": 113.3233,
      "duration": 0.1089,
      "velocity": 94,
      "chip": "ym2612"
    },
    {
      "channel": 5,
      "note": 76,
      "start": 113.3235,
      "duration": 0.1089,
      "velocity": 94,
      "chip": "ym2612"
    },
    {
      "channel": 0,
      "note": 54,
      "start": 113.4319,
      "duration": 0.0154,
      "velocity": 127,
      "chip": "ym2612"
    },
    {
      "channel": 5,
      "note": 81,
      "start": 113.4324,
      "duration": 0.109,
      "velocity": 94,
      "chip": "ym2612"
    },
    {
      "channel": 0,
      "note": 76,
      "start": 113.4473,
      "duration": 0.0936,
      "velocity": 114,
      "chip": "ym2612"
    },
    {
      "channel": 0,
      "note": 68,
      "start": 113.5408,
      "duration": 0.0309,
      "velocity": 114,
      "chip": "ym2612"
    },
    {
      "channel": 1,
      "note": 55,
      "start": 113.541,
      "duration": 0.2179,
      "velocity": 93,
      "chip": "ym2612"
    },
    {
      "channel": 3,
      "note": 76,
      "start": 113.5412,
      "duration": 0.1089,
      "velocity": 94,
      "chip": "ym2612"
    },
    {
      "channel": 5,
      "note": 69,
      "start": 113.5414,
      "duration": 0.1088,
      "velocity": 94,
      "chip": "ym2612"
    },
    {
      "channel": 0,
      "note": 98,
      "start": 113.6498,
      "duration": 0.0309,
      "velocity": 114,
      "chip": "ym2612"
    },
    {
      "channel": 5,
      "note": 81,
      "start": 113.6503,
      "duration": 0.1091,
      "velocity": 94,
      "chip": "ym2612"
    },
    {
      "channel": 0,
      "note": 98,
      "start": 113.7588,
      "duration": 0.1089,
      "velocity": 114,
      "chip": "ym2612"
    },
    {
      "channel": 1,
      "note": 56,
      "start": 113.7589,
      "duration": 0.2178,
      "velocity": 93,
      "chip": "ym2612"
    },
    {
      "channel": 2,
      "note": 43,
      "start": 113.759,
      "duration": 3.0504,
      "velocity": 121,
      "chip": "ym2612"
    },
    {
      "channel": 3,
      "note": 78,
      "start": 113.7592,
      "duration": 0.1088,
      "velocity": 94,
      "chip": "ym2612"
    },
    {
      "channel": 5,
      "note": 71,
      "start": 113.7594,
      "duration": 0.1087,
      "velocity": 94,
      "chip": "ym2612"
    },
    {
      "channel": 0,
      "note": 54,
      "start": 113.8677,
      "duration": 0.0309,
      "velocity": 114,
      "chip": "ym2612"
    },
    {
      "channel": 3,
      "note": 81,
      "start": 113.8679,
      "duration": 0.109,
      "velocity": 94,
      "chip": "ym2612"
    },
    {
      "channel": 5,
      "note": 74,
      "start": 113.8682,
      "duration": 0.109,
      "velocity": 94,
      "chip": "ym2612"
    },
    {
      "channel": 4,
      "note": 43,
      "start": 113.9456,
      "duration": 3.0504,
      "velocity": 121,
      "chip": "ym2612"
    },
    {
      "channel": 0,
      "note": 98,
      "start": 113.9766,
      "duration": 0.0309,
      "velocity": 114,
      "chip": "ym2612"
    },
    {
      "channel": 1,
      "note": 64,
      "start": 113.9767,
      "duration": 0.2179,
      "velocity": 93,
      "chip": "ym2612"
    },
    {
      "channel": 3,
      "note": 69,
      "start": 113.9769,
      "duration": 0.1089,
      "velocity": 94,
      "chip": "ym2612"
    },
    {
      "channel": 0,
      "note": 98,
      "start": 114.0856,
      "duration": 0.0309,
      "velocity": 114,
      "chip": "ym2612"
    },
    {
      "channel": 3,
      "note": 74,
      "start": 114.0858,
      "duration": 0.109,
      "velocity": 94,
      "chip": "ym2612"
    },
    {
      "channel": 5,
      "note": 76,
      "start": 114.086,
      "duration": 0.109,
      "velocity": 94,
      "chip": "ym2612"
    },
    {
      "channel": 0,
      "note": 98,
      "start": 114.1945,
      "duration": 0.0154,
      "velocity": 127,
      "chip": "ym2612"
    },
    {
      "channel": 1,
      "note": 64,
      "start": 114.1946,
      "duration": 0.2179,
      "velocity": 93,
      "chip": "ym2612"
    },
    {
      "channel": 5,
      "note": 78,
      "start": 114.1951,
      "duration": 0.1089,
      "velocity": 94,
      "chip": "ym2612"
    },
    {
      "channel": 0,
      "note": 76,
      "start": 114.2099,
      "duration": 0.0936,
      "velocity": 114,
      "chip": "ym2612"
    },
    {
      "channel": 0,
      "note": 68,
      "start": 114.3034,
      "duration": 0.0309,
      "velocity": 114,
      "chip": "ym2612"
    },
    {
      "channel": 3,
      "note": 76,
      "start": 114.3037,
      "duration": 0.109,
      "velocity": 94,
      "chip": "ym2612"
    },
    {
      "channel": 5,
      "note": 81,
      "start": 114.3039,
      "duration": 0.109,
      "velocity": 94,
      "chip": "ym2612"
    },
    {
      "channel": 0,
      "note": 98,
      "start": 114.4124,
      "duration": 0.0309,
      "velocity": 114,
      "chip": "ym2612"
    },
    {
      "channel": 1,
      "note": 64,
      "start": 114.4125,
      "duration": 0.2179,
      "velocity": 93,
      "chip": "ym2612"
    },
    {
      "channel": 3,
      "note": 81,
      "start": 114.4127,
      "duration": 0.1089,
      "velocity": 94,
      "chip": "ym2612"
    },
    {
      "channel": 5,
      "note": 69,
      "start": 114.4129,
      "duration": 0.1089,
      "velocity": 94,
      "chip": "ym2612"
    },
    {
      "channel": 0,
      "note": 98,
      "start": 114.5213,
      "duration": 0.0309,
      "velocity": 114,
      "chip": "ym2612"
    },
    {
      "channel": 3,
      "note": 69,
      "start": 114.5216,
      "duration": 0.109,
      "velocity": 94,
      "chip": "ym2612"
    },
    {
      "channel": 5,
      "note": 74,
      "start": 114.5218,
      "duration": 0.109,
      "velocity": 94,
      "chip": "ym2612"
    },
    {
      "channel": 0,
      "note": 98,
      "start": 114.6303,
      "duration": 0.1089,
      "velocity": 114,
      "chip": "ym2612"
    },
    {
      "channel": 1,
      "note": 64,
      "start": 114.6304,
      "duration": 0.2178,
      "velocity": 93,
      "chip": "ym2612"
    },
    {
      "channel": 3,
      "note": 81,
      "start": 114.6306,
      "duration": 0.1089,
      "velocity": 94,
      "chip": "ym2612"
    },
    {
      "channel": 0,
      "note": 54,
      "start": 114.7392,
      "duration": 0.0309,
      "velocity": 114,
      "chip": "ym2612"
    },
    {
      "channel": 3,
      "note": 71,
      "start": 114.7395,
      "duration": 0.109,
      "velocity": 94,
      "chip": "ym2612"
    },
    {
      "channel": 5,
      "note": 76,
      "start": 114.7397,
      "duration": 0.109,
      "velocity": 94,
      "chip": "ym2612"
    },
    {
      "channel": 0,
      "note": 98,
      "start": 114.8481,
      "duration": 0.0309,
      "velocity": 114,
      "chip": "ym2612"
    },
    {
      "channel": 1,
      "note": 64,
      "start": 114.8483,
      "duration": 0.2179,
      "velocity": 93,
      "chip": "ym2612"
    },
    {
      "channel": 3,
      "note": 74,
      "start": 114.8485,
      "duration": 0.109,
      "velocity": 94,
      "chip": "ym2612"
    },
    {
      "channel": 5,
      "note": 81,
      "start": 114.8487,
      "duration": 0.109,
      "velocity": 94,
      "chip": "ym2612"
    },
    {
      "channel": 0,
      "note": 98,
      "start": 114.9573,
      "duration": 0.0307,
      "velocity": 114,
      "chip": "ym2612"
    },
    {
      "channel": 5,
      "note": 69,
      "start": 114.9577,
      "duration": 0.1088,
      "velocity": 94,
      "chip": "ym2612"
    },
    {
      "channel": 0,
      "note": 98,
      "start": 115.066,
      "duration": 0.0154,
      "velocity": 127,
      "chip": "ym2612"
    },
    {
      "channel": 1,
      "note": 64,
      "start": 115.0662,
      "duration": 0.2178,
      "velocity": 93,
      "chip": "ym2612"
    },
    {
      "channel": 3,
      "note": 76,
      "start": 115.0663,
      "duration": 0.1089,
      "velocity": 94,
      "chip": "ym2612"
    },
    {
      "channel": 5,
      "note": 81,
      "start": 115.0666,
      "duration": 0.1089,
      "velocity": 94,
      "chip": "ym2612"
    },
    {
      "channel": 0,
      "note": 76,
      "start": 115.0814,
      "duration": 0.0936,
      "velocity": 114,
      "chip": "ym2612"
    },
    {
      "channel": 0,
      "note": 68,
      "start": 115.175,
      "duration": 0.0309,
      "velocity": 114,
      "chip": "ym2612"
    },
    {
      "channel": 5,
      "note": 71,
      "start": 115.1755,
      "duration": 0.1091,
      "velocity": 94,
      "chip": "ym2612"
    },
    {
      "channel": 0,
      "note": 98,
      "start": 115.2839,
      "duration": 0.0309,
      "velocity": 114,
      "chip": "ym2612"
    },
    {
      "channel": 1,
      "note": 64,
      "start": 115.284,
      "duration": 0.2179,
      "velocity": 93,
      "chip": "ym2612"
    },
    {
      "channel": 3,
      "note": 78,
      "start": 115.2843,
      "duration": 0.1088,
      "velocity": 94,
      "chip": "ym2612"
    },
    {
      "channel": 5,
      "note": 74,
      "start": 115.2845,
      "duration": 0.1088,
      "velocity": 94,
      "chip": "ym2612"
    },
    {
      "channel": 0,
      "note": 98,
      "start": 115.3929,
      "duration": 0.031,
      "velocity": 114,
      "chip": "ym2612"
    },
    {
      "channel": 3,
      "note": 81,
      "start": 115.3931,
      "duration": 0.109,
      "velocity": 94,
      "chip": "ym2612"
    },
    {
      "channel": 0,
      "note": 98,
      "start": 115.5018,
      "duration": 0.1089,
      "velocity": 114,
      "chip": "ym2612"
    },
    {
      "channel": 1,
      "note": 64,
      "start": 115.502,
      "duration": 0.2178,
      "velocity": 93,
      "chip": "ym2612"
    },
    {
      "channel": 3,
      "note": 69,
      "start": 115.5022,
      "duration": 0.1089,
      "velocity": 94,
      "chip": "ym2612"
    },
    {
      "channel": 5,
      "note": 76,
      "start": 115.5024,
      "duration": 0.1089,
      "velocity": 94,
      "chip": "ym2612"
    },
    {
      "channel": 0,
      "note": 54,
      "start": 115.6107,
      "duration": 0.0309,
      "velocity": 114,
      "chip": "ym2612"
    },
    {
      "channel": 3,
      "note": 74,
      "start": 115.611,
      "duration": 0.109,
      "velocity": 94,
      "chip": "ym2612"
    },
    {
      "channel": 5,
      "note": 78,
      "start": 115.6113,
      "duration": 0.1089,
      "velocity": 94,
      "chip": "ym2612"
    },
    {
      "channel": 0,
      "note": 98,
      "start": 115.7197,
      "duration": 0.0309,
      "velocity": 114,
      "chip": "ym2612"
    },
    {
      "channel": 1,
      "note": 64,
      "start": 115.7198,
      "duration": 0.2179,
      "velocity": 93,
      "chip": "ym2612"
    },
    {
      "channel": 5,
      "note": 81,
      "start": 115.7202,
      "duration": 0.1089,
      "velocity": 94,
      "chip": "ym2612"
    },
    {
      "channel": 0,
      "note": 98,
      "start": 115.8286,
      "duration": 0.0309,
      "velocity": 114,
      "chip": "ym2612"
    },
    {
      "channel": 3,
      "note": 76,
      "start": 115.8289,
      "duration": 0.109,
      "velocity": 94,
      "chip": "ym2612"
    },
    {
      "channel": 5,
      "note": 69,
      "start": 115.8291,
      "duration": 0.109,
      "velocity": 94,
      "chip": "ym2612"
    },
    {
      "channel": 0,
      "note": 98,
      "start": 115.9376,
      "duration": 0.0154,
      "velocity": 127,
      "chip": "ym2612"
    },
    {
      "channel": 1,
      "note": 64,
      "start": 115.9377,
      "duration": 0.2179,
      "velocity": 93,
      "chip": "ym2612"
    },
    {
      "channel": 3,
      "note": 81,
      "start": 115.9379,
      "duration": 0.1089,
      "velocity": 94,
      "chip": "ym2612"
    },
    {
      "channel": 5,
      "note": 74,
      "start": 115.9381,
      "duration": 0.1089,
      "velocity": 94,
      "chip": "ym2612"
    },
    {
      "channel": 0,
      "note": 76,
      "start": 115.9529,
      "duration": 0.0936,
      "velocity": 114,
      "chip": "ym2612"
    },
    {
      "channel": 0,
      "note": 68,
      "start": 116.0465,
      "duration": 0.0309,
      "velocity": 114,
      "chip": "ym2612"
    },
    {
      "channel": 3,
      "note": 69,
      "start": 116.0468,
      "duration": 0.109,
      "velocity": 94,
      "chip": "ym2612"
    },
    {
      "channel": 0,
      "note": 98,
      "start": 116.1554,
      "duration": 0.0309,
      "velocity": 114,
      "chip": "ym2612"
    },
    {
      "channel": 1,
      "note": 64,
      "start": 116.1556,
      "duration": 0.2179,
      "velocity": 93,
      "chip": "ym2612"
    },
    {
      "channel": 3,
      "note": 81,
      "start": 116.1558,
      "duration": 0.1089,
      "velocity": 94,
      "chip": "ym2612"
    },
    {
      "channel": 5,
      "note": 76,
      "start": 116.156,
      "duration": 0.1089,
      "velocity": 94,
      "chip": "ym2612"
    },
    {
      "channel": 0,
      "note": 98,
      "start": 116.2644,
      "duration": 0.0309,
      "velocity": 114,
      "chip": "ym2612"
    },
    {
      "channel": 3,
      "note": 71,
      "start": 116.2646,
      "duration": 0.1092,
      "velocity": 94,
      "chip": "ym2612"
    },
    {
      "channel": 5,
      "note": 81,
      "start": 116.2649,
      "duration": 0.1092,
      "velocity": 94,
      "chip": "ym2612"
    },
    {
      "channel": 0,
      "note": 98,
      "start": 116.3733,
      "duration": 0.1089,
      "velocity": 127,
      "chip": "ym2612"
    },
    {
      "channel": 1,
      "note": 64,
      "start": 116.3735,
      "duration": 0.2179,
      "velocity": 93,
      "chip": "ym2612"
    },
    {
      "channel": 3,
      "note": 74,
      "start": 116.3739,
      "duration": 0.1087,
      "velocity": 94,
      "chip": "ym2612"
    },
    {
      "channel": 5,
      "note": 69,
      "start": 116.3741,
      "duration": 0.1087,
      "velocity": 94,
      "chip": "ym2612"
    },
    {
      "channel": 0,
      "note": 54,
      "start": 116.4823,
      "duration": 0.0154,
      "velocity": 127,
      "chip": "ym2612"
    },
    {
      "channel": 5,
      "note": 81,
      "start": 116.4828,
      "duration": 0.109,
      "velocity": 94,
      "chip": "ym2612"
    },
    {
      "channel": 0,
      "note": 76,
      "start": 116.4976,
      "duration": 0.0936,
      "velocity": 114,
      "chip": "ym2612"
    },
    {
      "channel": 0,
      "note": 68,
      "start": 116.5912,
      "duration": 0.0309,
      "velocity": 114,
      "chip": "ym2612"
    },
    {
      "channel": 1,
      "note": 64,
      "start": 116.5913,
      "duration": 0.2179,
      "velocity": 93,
      "chip": "ym2612"
    },
    {
      "channel": 3,
      "note": 76,
      "start": 116.5915,
      "duration": 0.1089,
      "velocity": 94,
      "chip": "ym2612"
    },
    {
      "channel": 5,
      "note": 71,
      "start": 116.5918,
      "duration": 0.1089,
      "velocity": 94,
      "chip": "ym2612"
    },
    {
      "channel": 0,
      "note": 98,
      "start": 116.7002,
      "duration": 0.0309,
      "velocity": 114,
      "chip": "ym2612"
    },
    {
      "channel": 5,
      "note": 74,
      "start": 116.7006,
      "duration": 0.1091,
      "velocity": 94,
      "chip": "ym2612"
    },
    {
      "channel": 0,
      "note": 98,
      "start": 116.8091,
      "duration": 0.1089,
      "velocity": 114,
      "chip": "ym2612"
    },
    {
      "channel": 1,
      "note": 64,
      "start": 116.8093,
      "duration": 0.2178,
      "velocity": 93,
      "chip": "ym2612"
    },
    {
      "channel": 2,
      "note": 52,
      "start": 116.8094,
      "duration": 3.0503,
      "velocity": 121,
      "chip": "ym2612"
    },
    {
      "channel": 3,
      "note": 78,
      "start": 116.8095,
      "duration": 0.1088,
      "velocity": 94,
      "chip": "ym2612"
    },
    {
      "channel": 0,
      "note": 54,
      "start": 116.918,
      "duration": 0.0309,
      "velocity": 114,
      "chip": "ym2612"
    },
    {
      "channel": 3,
      "note": 81,
      "start": 116.9183,
      "duration": 0.109,
      "velocity": 94,
      "chip": "ym2612"
    },
    {
      "channel": 5,
      "note": 76,
      "start": 116.9185,
      "duration": 0.109,
      "velocity": 94,
      "chip": "ym2612"
    },
    {
      "channel": 4,
      "note": 52,
      "start": 116.996,
      "duration": 3.0504,
      "velocity": 121,
      "chip": "ym2612"
    },
    {
      "channel": 0,
      "note": 98,
      "start": 117.027,
      "duration": 0.0309,
      "velocity": 114,
      "chip": "ym2612"
    },
    {
      "channel": 1,
      "note": 62,
      "start": 117.0271,
      "duration": 0.2179,
      "velocity": 93,
      "chip": "ym2612"
    },
    {
      "channel": 3,
      "note": 69,
      "start": 117.0273,
      "duration": 0.1089,
      "velocity": 94,
      "chip": "ym2612"
    },
    {
      "channel": 5,
      "note": 78,
      "start": 117.0276,
      "duration": 0.1088,
      "velocity": 94,
      "chip": "ym2612"
    },
    {
      "channel": 0,
      "note": 98,
      "start": 117.1359,
      "duration": 0.0309,
      "velocity": 114,
      "chip": "ym2612"
    },
    {
      "channel": 3,
      "note": 74,
      "start": 117.1362,
      "duration": 0.109,
      "velocity": 94,
      "chip": "ym2612"
    },
    {
      "channel": 5,
      "note": 81,
      "start": 117.1364,
      "duration": 0.109,
      "velocity": 94,
      "chip": "ym2612"
    },
    {
      "channel": 0,
      "note": 98,
      "start": 117.2449,
      "duration": 0.0154,
      "velocity": 127,
      "chip": "ym2612"
    },
    {
      "channel": 1,
      "note": 62,
      "start": 117.245,
      "duration": 0.2179,
      "velocity": 93,
      "chip": "ym2612"
    },
    {
      "channel": 5,
      "note": 69,
      "start": 117.2454,
      "duration": 0.1089,
      "velocity": 94,
      "chip": "ym2612"
    },
    {
      "channel": 0,
      "note": 76,
      "start": 117.2602,
      "duration": 0.0936,
      "velocity": 114,
      "chip": "ym2612"
    },
    {
      "channel": 0,
      "note": 68,
      "start": 117.3538,
      "duration": 0.0309,
      "velocity": 114,
      "chip": "ym2612"
    },
    {
      "channel": 3,
      "note": 76,
      "start": 117.3541,
      "duration": 0.109,
      "velocity": 94,
      "chip": "ym2612"
    },
    {
      "channel": 5,
      "note": 74,
      "start": 117.3543,
      "duration": 0.109,
      "velocity": 94,
      "chip": "ym2612"
    },
    {
      "channel": 0,
      "note": 98,
      "start": 117.4627,
      "duration": 0.0309,
      "velocity": 114,
      "chip": "ym2612"
    },
    {
      "channel": 1,
      "note": 62,
      "start": 117.4629,
      "duration": 0.2179,
      "velocity": 93,
      "chip": "ym2612"
    },
    {
      "channel": 3,
      "note": 81,
      "start": 117.4631,
      "duration": 0.1089,
      "velocity": 94,
      "chip": "ym2612"
    },
    {
      "channel": 0,
      "note": 98,
      "start": 117.5717,
      "duration": 0.0309,
      "velocity": 114,
      "chip": "ym2612"
    },
    {
      "channel": 3,
      "note": 69,
      "start": 117.572,
      "duration": 0.109,
      "velocity": 94,
      "chip": "ym2612"
    },
    {
      "channel": 5,
      "note": 76,
      "start": 117.5722,
      "duration": 0.109,
      "velocity": 94,
      "chip": "ym2612"
    },
    {
      "channel": 0,
      "note": 98,
      "start": 117.6806,
      "duration": 0.1089,
      "velocity": 114,
      "chip": "ym2612"
    },
    {
      "channel": 1,
      "note": 62,
      "start": 117.6808,
      "duration": 0.2178,
      "velocity": 93,
      "chip": "ym2612"
    },
    {
      "channel": 3,
      "note": 81,
      "start": 117.681,
      "duration": 0.1089,
      "velocity": 94,
      "chip": "ym2612"
    },
    {
      "channel": 5,
      "note": 81,
      "start": 117.6812,
      "duration": 0.1089,
      "velocity": 94,
      "chip": "ym2612"
    },
    {
      "channel": 0,
      "note": 54,
      "start": 117.7896,
      "duration": 0.0309,
      "velocity": 114,
      "chip": "ym2612"
    },
    {
      "channel": 3,
      "note": 71,
      "start": 117.7899,
      "duration": 0.109,
      "velocity": 94,
      "chip": "ym2612"
    },
    {
      "channel": 5,
      "note": 69,
      "start": 117.7901,
      "duration": 0.109,
      "velocity": 94,
      "chip": "ym2612"
    },
    {
      "channel": 0,
      "note": 98,
      "start": 117.8985,
      "duration": 0.0309,
      "velocity": 114,
      "chip": "ym2612"
    },
    {
      "channel": 1,
      "note": 62,
      "start": 117.8986,
      "duration": 0.2179,
      "velocity": 93,
      "chip": "ym2612"
    },
    {
      "channel": 3,
      "note": 74,
      "start": 117.8988,
      "duration": 0.1089,
      "velocity": 94,
      "chip": "ym2612"
    },
    {
      "channel": 5,
      "note": 81,
      "start": 117.8991,
      "duration": 0.1089,
      "velocity": 94,
      "chip": "ym2612"
    },
    {
      "channel": 0,
      "note": 98,
      "start": 118.0075,
      "duration": 0.0309,
      "velocity": 114,
      "chip": "ym2612"
    },
    {
      "channel": 5,
      "note": 71,
      "start": 118.0079,
      "duration": 0.109,
      "velocity": 94,
      "chip": "ym2612"
    },
    {
      "channel": 0,
      "note": 98,
      "start": 118.1164,
      "duration": 0.0154,
      "velocity": 127,
      "chip": "ym2612"
    },
    {
      "channel": 1,
      "note": 62,
      "start": 118.1165,
      "duration": 0.2178,
      "velocity": 93,
      "chip": "ym2612"
    },
    {
      "channel": 3,
      "note": 76,
      "start": 118.1167,
      "duration": 0.1089,
      "velocity": 94,
      "chip": "ym2612"
    },
    {
      "channel": 5,
      "note": 74,
      "start": 118.117,
      "duration": 0.1088,
      "velocity": 94,
      "chip": "ym2612"
    },
    {
      "channel": 0,
      "note": 76,
      "start": 118.1317,
      "duration": 0.0936,
      "velocity": 114,
      "chip": "ym2612"
    },
    {
      "channel": 0,
      "note": 68,
      "start": 118.2253,
      "duration": 0.0309,
      "velocity": 114,
      "chip": "ym2612"
    },
    {
      "channel": 0,
      "note": 98,
      "start": 118.3343,
      "duration": 0.0309,
      "velocity": 114,
      "chip": "ym2612"
    },
    {
      "channel": 1,
      "note": 62,
      "start": 118.3344,
      "duration": 0.2179,
      "velocity": 93,
      "chip": "ym2612"
    },
    {
      "channel": 3,
      "note": 78,
      "start": 118.3347,
      "duration": 0.1088,
      "velocity": 94,
      "chip": "ym2612"
    },
    {
      "channel": 5,
      "note": 76,
      "start": 118.3349,
      "duration": 0.1089,
      "velocity": 94,
      "chip": "ym2612"
    },
    {
      "channel": 0,
      "note": 98,
      "start": 118.4432,
      "duration": 0.0309,
      "velocity": 114,
      "chip": "ym2612"
    },
    {
      "channel": 3,
      "note": 81,
      "start": 118.4435,
      "duration": 0.109,
      "velocity": 94,
      "chip": "ym2612"
    },
    {
      "channel": 5,
      "note": 78,
      "start": 118.4438,
      "duration": 0.109,
      "velocity": 94,
      "chip": "ym2612"
    },
    {
      "channel": 0,
      "note": 98,
      "start": 118.5522,
      "duration": 0.1089,
      "velocity": 114,
      "chip": "ym2612"
    },
    {
      "channel": 1,
      "note": 62,
      "start": 118.5523,
      "duration": 0.2178,
      "velocity": 93,
      "chip": "ym2612"
    },
    {
      "channel": 3,
      "note": 69,
      "start": 118.5525,
      "duration": 0.1089,
      "velocity": 94,
      "chip": "ym2612"
    },
    {
      "channel": 5,
      "note": 81,
      "start": 118.5527,
      "duration": 0.1089,
      "velocity": 94,
      "chip": "ym2612"
    },
    {
      "channel": 0,
      "note": 54,
      "start": 118.6611,
      "duration": 0.0309,
      "velocity": 114,
      "chip": "ym2612"
    },
    {
      "channel": 3,
      "note": 74,
      "start": 118.6614,
      "duration": 0.109,
      "velocity": 94,
      "chip": "ym2612"
    },
    {
      "channel": 5,
      "note": 69,
      "start": 118.6616,
      "duration": 0.1089,
      "velocity": 94,
      "chip": "ym2612"
    },
    {
      "channel": 0,
      "note": 98,
      "start": 118.77,
      "duration": 0.0309,
      "velocity": 114,
      "chip": "ym2612"
    },
    {
      "channel": 1,
      "note": 62,
      "start": 118.7702,
      "duration": 0.2179,
      "velocity": 93,
      "chip": "ym2612"
    },
    {
      "channel": 5,
      "note": 74,
      "start": 118.7706,
      "duration": 0.1089,
      "velocity": 94,
      "chip": "ym2612"
    },
    {
      "channel": 0,
      "note": 98,
      "start": 118.879,
      "duration": 0.0309,
      "velocity": 114,
      "chip": "ym2612"
    },
    {
      "channel": 3,
      "note": 76,
      "start": 118.8793,
      "duration": 0.109,
      "velocity": 94,
      "chip": "ym2612"
    },
    {
      "channel": 0,
      "note": 98,
      "start": 118.9879,
      "duration": 0.0154,
      "velocity": 127,
      "chip": "ym2612"
    },
    {
      "channel": 1,
      "note": 62,
      "start": 118.9881,
      "duration": 0.2178,
      "velocity": 93,
      "chip": "ym2612"
    },
    {
      "channel": 3,
      "note": 81,
      "start": 118.9883,
      "duration": 0.1089,
      "velocity": 94,
      "chip": "ym2612"
    },
    {
      "channel": 5,
      "note": 76,
      "start": 118.9885,
      "duration": 0.1089,
      "velocity": 94,
      "chip": "ym2612"
    },
    {
      "channel": 0,
      "note": 76,
      "start": 119.0033,
      "duration": 0.0936,
      "velocity": 114,
      "chip": "ym2612"
    },
    {
      "channel": 0,
      "note": 68,
      "start": 119.0969,
      "duration": 0.0309,
      "velocity": 114,
      "chip": "ym2612"
    },
    {
      "channel": 3,
      "note": 69,
      "start": 119.0972,
      "duration": 0.109,
      "velocity": 94,
      "chip": "ym2612"
    },
    {
      "channel": 5,
      "note": 81,
      "start": 119.0974,
      "duration": 0.109,
      "velocity": 94,
      "chip": "ym2612"
    },
    {
      "channel": 0,
      "note": 98,
      "start": 119.2058,
      "duration": 0.0309,
      "velocity": 114,
      "chip": "ym2612"
    },
    {
      "channel": 1,
      "note": 62,
      "start": 119.2059,
      "duration": 0.2181,
      "velocity": 93,
      "chip": "ym2612"
    },
    {
      "channel": 3,
      "note": 81,
      "start": 119.2061,
      "duration": 0.1089,
      "velocity": 94,
      "chip": "ym2612"
    },
    {
      "channel": 5,
      "note": 69,
      "start": 119.2064,
      "duration": 0.1089,
      "velocity": 94,
      "chip": "ym2612"
    },
    {
      "channel": 0,
      "note": 98,
      "start": 119.3148,
      "duration": 0.0309,
      "velocity": 114,
      "chip": "ym2612"
    },
    {
      "channel": 3,
      "note": 71,
      "start": 119.315,
      "duration": 0.1092,
      "velocity": 94,
      "chip": "ym2612"
    },
    {
      "channel": 5,
      "note": 81,
      "start": 119.3153,
      "duration": 0.1092,
      "velocity": 94,
      "chip": "ym2612"
    },
    {
      "channel": 0,
      "note": 98,
      "start": 119.4239,
      "duration": 0.1088,
      "velocity": 127,
      "chip": "ym2612"
    },
    {
      "channel": 1,
      "note": 62,
      "start": 119.424,
      "duration": 0.2177,
      "velocity": 93,
      "chip": "ym2612"
    },
    {
      "channel": 3,
      "note": 74,
      "start": 119.4242,
      "duration": 0.1087,
      "velocity": 94,
      "chip": "ym2612"
    },
    {
      "channel": 5,
      "note": 71,
      "start": 119.4244,
      "duration": 0.1087,
      "velocity": 94,
      "chip": "ym2612"
    },
    {
      "channel": 0,
      "note": 54,
      "start": 119.5326,
      "duration": 0.0154,
      "velocity": 127,
      "chip": "ym2612"
    },
    {
      "channel": 5,
      "note": 74,
      "start": 119.5331,
      "duration": 0.109,
      "velocity": 94,
      "chip": "ym2612"
    },
    {
      "channel": 0,
      "note": 76,
      "start": 119.548,
      "duration": 0.0936,
      "velocity": 114,
      "chip": "ym2612"
    },
    {
      "channel": 0,
      "note": 68,
      "start": 119.6416,
      "duration": 0.0309,
      "velocity": 114,
      "chip": "ym2612"
    },
    {
      "channel": 1,
      "note": 62,
      "start": 119.6417,
      "duration": 0.2179,
      "velocity": 93,
      "chip": "ym2612"
    },
    {
      "channel": 3,
      "note": 76,
      "start": 119.6419,
      "duration": 0.1089,
      "velocity": 94,
      "chip": "ym2612"
    },
    {
      "channel": 0,
      "note": 98,
      "start": 119.7505,
      "duration": 0.0309,
      "velocity": 114,
      "chip": "ym2612"
    },
    {
      "channel": 5,
      "note": 76,
      "start": 119.751,
      "duration": 0.1092,
      "velocity": 94,
      "chip": "ym2612"
    },
    {
      "channel": 0,
      "note": 98,
      "start": 119.8595,
      "duration": 0.1089,
      "velocity": 114,
      "chip": "ym2612"
    },
    {
      "channel": 1,
      "note": 62,
      "start": 119.8596,
      "duration": 0.2178,
      "velocity": 93,
      "chip": "ym2612"
    },
    {
      "channel": 2,
      "note": 50,
      "start": 119.8598,
      "duration": 3.0504,
      "velocity": 121,
      "chip": "ym2612"
    },
    {
      "channel": 3,
      "note": 78,
      "start": 119.8599,
      "duration": 0.1087,
      "velocity": 94,
      "chip": "ym2612"
    },
    {
      "channel": 5,
      "note": 78,
      "start": 119.8602,
      "duration": 0.1087,
      "velocity": 94,
      "chip": "ym2612"
    },
    {
      "channel": 0,
      "note": 54,
      "start": 119.9684,
      "duration": 0.0309,
      "velocity": 114,
      "chip": "ym2612"
    },
    {
      "channel": 3,
      "note": 81,
      "start": 119.9687,
      "duration": 0.109,
      "velocity": 94,
      "chip": "ym2612"
    },
    {
      "channel": 5,
      "note": 81,
      "start": 119.9689,
      "duration": 0.109,
      "velocity": 94,
      "chip": "ym2612"
    },
    {
      "channel": 4,
      "note": 50,
      "start": 120.0463,
      "duration": 3.0504,
      "velocity": 121,
      "chip": "ym2612"
    },
    {
      "channel": 0,
      "note": 98,
      "start": 120.0773,
      "duration": 0.0309,
      "velocity": 114,
      "chip": "ym2612"
    },
    {
      "channel": 1,
      "note": 59,
      "start": 120.0775,
      "duration": 0.2179,
      "velocity": 93,
      "chip": "ym2612"
    },
    {
      "channel": 3,
      "note": 69,
      "start": 120.0777,
      "duration": 0.1089,
      "velocity": 94,
      "chip": "ym2612"
    },
    {
      "channel": 5,
      "note": 69,
      "start": 120.0779,
      "duration": 0.1089,
      "velocity": 94,
      "chip": "ym2612"
    },
    {
      "channel": 0,
      "note": 98,
      "start": 120.1863,
      "duration": 0.0309,
      "velocity": 114,
      "chip": "ym2612"
    },
    {
      "channel": 3,
      "note": 74,
      "start": 120.1866,
      "duration": 0.109,
      "velocity": 94,
      "chip": "ym2612"
    },
    {
      "channel": 5,
      "note": 74,
      "start": 120.1868,
      "duration": 0.109,
      "velocity": 94,
      "chip": "ym2612"
    },
    {
      "channel": 0,
      "note": 98,
      "start": 120.2952,
      "duration": 0.0154,
      "velocity": 127,
      "chip": "ym2612"
    },
    {
      "channel": 1,
      "note": 59,
      "start": 120.2954,
      "duration": 0.2178,
      "velocity": 93,
      "chip": "ym2612"
    },
    {
      "channel": 0,
      "note": 76,
      "start": 120.3106,
      "duration": 0.0936,
      "velocity": 114,
      "chip": "ym2612"
    },
    {
      "channel": 0,
      "note": 68,
      "start": 120.4042,
      "duration": 0.0309,
      "velocity": 114,
      "chip": "ym2612"
    },
    {
      "channel": 3,
      "note": 76,
      "start": 120.4044,
      "duration": 0.109,
      "velocity": 94,
      "chip": "ym2612"
    },
    {
      "channel": 5,
      "note": 76,
      "start": 120.4047,
      "duration": 0.109,
      "velocity": 94,
      "chip": "ym2612"
    },
    {
      "channel": 0,
      "note": 98,
      "start": 120.5131,
      "duration": 0.0309,
      "velocity": 114,
      "chip": "ym2612"
    },
    {
      "channel": 1,
      "note": 59,
      "start": 120.5132,
      "duration": 0.2179,
      "velocity": 93,
      "chip": "ym2612"
    },
    {
      "channel": 3,
      "note": 81,
      "start": 120.5134,
      "duration": 0.1089,
      "velocity": 94,
      "chip": "ym2612"
    },
    {
      "channel": 5,
      "note": 81,
      "start": 120.5137,
      "duration": 0.1089,
      "velocity": 94,
      "chip": "ym2612"
    },
    {
      "channel": 0,
      "note": 98,
      "start": 120.6221,
      "duration": 0.0309,
      "velocity": 114,
      "chip": "ym2612"
    },
    {
      "channel": 3,
      "note": 69,
      "start": 120.6223,
      "duration": 0.109,
      "velocity": 94,
      "chip": "ym2612"
    },
    {
      "channel": 5,
      "note": 69,
      "start": 120.6226,
      "duration": 0.109,
      "velocity": 94,
      "chip": "ym2612"
    },
    {
      "channel": 0,
      "note": 98,
      "start": 120.731,
      "duration": 0.1089,
      "velocity": 114,
      "chip": "ym2612"
    },
    {
      "channel": 1,
      "note": 59,
      "start": 120.7312,
      "duration": 0.2178,
      "velocity": 93,
      "chip": "ym2612"
    },
    {
      "channel": 3,
      "note": 81,
      "start": 120.7313,
      "duration": 0.1089,
      "velocity": 94,
      "chip": "ym2612"
    },
    {
      "channel": 5,
      "note": 81,
      "start": 120.7316,
      "duration": 0.109,
      "velocity": 94,
      "chip": "ym2612"
    },
    {
      "channel": 0,
      "note": 54,
      "start": 120.8399,
      "duration": 0.0309,
      "velocity": 114,
      "chip": "ym2612"
    },
    {
      "channel": 3,
      "note": 71,
      "start": 120.8402,
      "duration": 0.109,
      "velocity": 94,
      "chip": "ym2612"
    },
    {
      "channel": 5,
      "note": 71,
      "start": 120.8406,
      "duration": 0.1088,
      "velocity": 94,
      "chip": "ym2612"
    },
    {
      "channel": 0,
      "note": 98,
      "start": 120.9489,
      "duration": 0.0309,
      "velocity": 114,
      "chip": "ym2612"
    },
    {
      "channel": 1,
      "note": 59,
      "start": 120.949,
      "duration": 0.2179,
      "velocity": 93,
      "chip": "ym2612"
    },
    {
      "channel": 3,
      "note": 74,
      "start": 120.9492,
      "duration": 0.1089,
      "velocity": 94,
      "chip": "ym2612"
    },
    {
      "channel": 5,
      "note": 74,
      "start": 120.9494,
      "duration": 0.1088,
      "velocity": 94,
      "chip": "ym2612"
    },
    {
      "channel": 0,
      "note": 98,
      "start": 121.0578,
      "duration": 0.0309,
      "velocity": 114,
      "chip": "ym2612"
    },
    {
      "channel": 0,
      "note": 98,
      "start": 121.1668,
      "duration": 0.0154,
      "velocity": 127,
      "chip": "ym2612"
    },
    {
      "channel": 1,
      "note": 59,
      "start": 121.1669,
      "duration": 0.2179,
      "velocity": 93,
      "chip": "ym2612"
    },
    {
      "channel": 3,
      "note": 76,
      "start": 121.1671,
      "duration": 0.1089,
      "velocity": 94,
      "chip": "ym2612"
    },
    {
      "channel": 5,
      "note": 76,
      "start": 121.1673,
      "duration": 0.1089,
      "velocity": 94,
      "chip": "ym2612"
    },
    {
      "channel": 0,
      "note": 76,
      "start": 121.1821,
      "duration": 0.0936,
      "velocity": 114,
      "chip": "ym2612"
    },
    {
      "channel": 0,
      "note": 68,
      "start": 121.2757,
      "duration": 0.0309,
      "velocity": 114,
      "chip": "ym2612"
    },
    {
      "channel": 5,
      "note": 78,
      "start": 121.2763,
      "duration": 0.109,
      "velocity": 94,
      "chip": "ym2612"
    },
    {
      "channel": 0,
      "note": 98,
      "start": 121.3846,
      "duration": 0.0309,
      "velocity": 114,
      "chip": "ym2612"
    },
    {
      "channel": 1,
      "note": 59,
      "start": 121.3848,
      "duration": 0.2179,
      "velocity": 93,
      "chip": "ym2612"
    },
    {
      "channel": 3,
      "note": 78,
      "start": 121.385,
      "duration": 0.1088,
      "velocity": 94,
      "chip": "ym2612"
    },
    {
      "channel": 5,
      "note": 81,
      "start": 121.3853,
      "duration": 0.1088,
      "velocity": 94,
      "chip": "ym2612"
    },
    {
      "channel": 0,
      "note": 98,
      "start": 121.4936,
      "duration": 0.0309,
      "velocity": 114,
      "chip": "ym2612"
    },
    {
      "channel": 3,
      "note": 81,
      "start": 121.4939,
      "duration": 0.109,
      "velocity": 94,
      "chip": "ym2612"
    },
    {
      "channel": 5,
      "note": 69,
      "start": 121.4941,
      "duration": 0.109,
      "velocity": 94,
      "chip": "ym2612"
    },
    {
      "channel": 0,
      "note": 98,
      "start": 121.6025,
      "duration": 0.1089,
      "velocity": 114,
      "chip": "ym2612"
    },
    {
      "channel": 1,
      "note": 59,
      "start": 121.6027,
      "duration": 0.2178,
      "velocity": 93,
      "chip": "ym2612"
    },
    {
      "channel": 3,
      "note": 69,
      "start": 121.6029,
      "duration": 0.1089,
      "velocity": 94,
      "chip": "ym2612"
    },
    {
      "channel": 5,
      "note": 74,
      "start": 121.6031,
      "duration": 0.1088,
      "velocity": 94,
      "chip": "ym2612"
    },
    {
      "channel": 0,
      "note": 54,
      "start": 121.7115,
      "duration": 0.0309,
      "velocity": 114,
      "chip": "ym2612"
    },
    {
      "channel": 3,
      "note": 74,
      "start": 121.7117,
      "duration": 0.109,
      "velocity": 94,
      "chip": "ym2612"
    },
    {
      "channel": 0,
      "note": 98,
      "start": 121.8204,
      "duration": 0.0309,
      "velocity": 114,
      "chip": "ym2612"
    },
    {
      "channel": 1,
      "note": 59,
      "start": 121.8205,
      "duration": 0.2179,
      "velocity": 93,
      "chip": "ym2612"
    },
    {
      "channel": 5,
      "note": 76,
      "start": 121.8209,
      "duration": 0.1089,
      "velocity": 94,
      "chip": "ym2612"
    },
    {
      "channel": 0,
      "note": 98,
      "start": 121.9294,
      "duration": 0.0309,
      "velocity": 114,
      "chip": "ym2612"
    },
    {
      "channel": 3,
      "note": 76,
      "start": 121.9296,
      "duration": 0.109,
      "velocity": 94,
      "chip": "ym2612"
    },
    {
      "channel": 5,
      "note": 81,
      "start": 121.9298,
      "duration": 0.109,
      "velocity": 94,
      "chip": "ym2612"
    },
    {
      "channel": 0,
      "note": 98,
      "start": 122.0383,
      "duration": 0.0154,
      "velocity": 127,
      "chip": "ym2612"
    },
    {
      "channel": 1,
      "note": 59,
      "start": 122.0384,
      "duration": 0.2178,
      "velocity": 93,
      "chip": "ym2612"
    },
    {
      "channel": 3,
      "note": 81,
      "start": 122.0386,
      "duration": 0.1089,
      "velocity": 94,
      "chip": "ym2612"
    },
    {
      "channel": 5,
      "note": 69,
      "start": 122.0389,
      "duration": 0.1089,
      "velocity": 94,
      "chip": "ym2612"
    },
    {
      "channel": 0,
      "note": 76,
      "start": 122.0537,
      "duration": 0.0936,
      "velocity": 114,
      "chip": "ym2612"
    },
    {
      "channel": 0,
      "note": 68,
      "start": 122.1472,
      "duration": 0.0309,
      "velocity": 114,
      "chip": "ym2612"
    },
    {
      "channel": 3,
      "note": 69,
      "start": 122.1475,
      "duration": 0.109,
      "velocity": 94,
      "chip": "ym2612"
    },
    {
      "channel": 5,
      "note": 81,
      "start": 122.1478,
      "duration": 0.109,
      "velocity": 94,
      "chip": "ym2612"
    },
    {
      "channel": 0,
      "note": 98,
      "start": 122.2562,
      "duration": 0.0309,
      "velocity": 114,
      "chip": "ym2612"
    },
    {
      "channel": 1,
      "note": 59,
      "start": 122.2563,
      "duration": 0.2179,
      "velocity": 93,
      "chip": "ym2612"
    },
    {
      "channel": 3,
      "note": 81,
      "start": 122.2565,
      "duration": 0.1089,
      "velocity": 94,
      "chip": "ym2612"
    },
    {
      "channel": 5,
      "note": 71,
      "start": 122.2567,
      "duration": 0.1089,
      "velocity": 94,
      "chip": "ym2612"
    },
    {
      "channel": 0,
      "note": 98,
      "start": 122.3651,
      "duration": 0.0309,
      "velocity": 114,
      "chip": "ym2612"
    },
    {
      "channel": 3,
      "note": 71,
      "start": 122.3654,
      "duration": 0.109,
      "velocity": 94,
      "chip": "ym2612"
    },
    {
      "channel": 5,
      "note": 74,
      "start": 122.3656,
      "duration": 0.109,
      "velocity": 94,
      "chip": "ym2612"
    },
    {
      "channel": 0,
      "note": 98,
      "start": 122.4741,
      "duration": 0.1089,
      "velocity": 127,
      "chip": "ym2612"
    },
    {
      "channel": 1,
      "note": 59,
      "start": 122.4742,
      "duration": 0.2178,
      "velocity": 93,
      "chip": "ym2612"
    },
    {
      "channel": 3,
      "note": 74,
      "start": 122.4744,
      "duration": 0.1088,
      "velocity": 94,
      "chip": "ym2612"
    },
    {
      "channel": 0,
      "note": 54,
      "start": 122.583,
      "duration": 0.0154,
      "velocity": 127,
      "chip": "ym2612"
    },
    {
      "channel": 5,
      "note": 76,
      "start": 122.5835,
      "duration": 0.109,
      "velocity": 94,
      "chip": "ym2612"
    },
    {
      "channel": 0,
      "note": 76,
      "start": 122.5984,
      "duration": 0.0936,
      "velocity": 114,
      "chip": "ym2612"
    },
    {
      "channel": 0,
      "note": 68,
      "start": 122.692,
      "duration": 0.0309,
      "velocity": 114,
      "chip": "ym2612"
    },
    {
      "channel": 1,
      "note": 59,
      "start": 122.6921,
      "duration": 0.2179,
      "velocity": 93,
      "chip": "ym2612"
    },
    {
      "channel": 3,
      "note": 76,
      "start": 122.6923,
      "duration": 0.1089,
      "velocity": 94,
      "chip": "ym2612"
    },
    {
      "channel": 5,
      "note": 78,
      "start": 122.6926,
      "duration": 0.1088,
      "velocity": 94,
      "chip": "ym2612"
    },
    {
      "channel": 0,
      "note": 98,
      "start": 122.8009,
      "duration": 0.0309,
      "velocity": 114,
      "chip": "ym2612"
    },
    {
      "channel": 5,
      "note": 81,
      "start": 122.8014,
      "duration": 0.1092,
      "velocity": 94,
      "chip": "ym2612"
    },
    {
      "channel": 0,
      "note": 98,
      "start": 122.9099,
      "duration": 0.1089,
      "velocity": 114,
      "chip": "ym2612"
    },
    {
      "channel": 1,
      "note": 59,
      "start": 122.91,
      "duration": 0.2178,
      "velocity": 93,
      "chip": "ym2612"
    },
    {
      "channel": 2,
      "note": 47,
      "start": 122.9101,
      "duration": 3.0504,
      "velocity": 121,
      "chip": "ym2612"
    },
    {
      "channel": 3,
      "note": 78,
      "start": 122.9103,
      "duration": 0.1087,
      "velocity": 94,
      "chip": "ym2612"
    },
    {
      "channel": 5,
      "note": 69,
      "start": 122.9105,
      "duration": 0.1088,
      "velocity": 94,
      "chip": "ym2612"
    },
    {
      "channel": 0,
      "note": 54,
      "start": 123.0188,
      "duration": 0.0309,
      "velocity": 114,
      "chip": "ym2612"
    },
    {
      "channel": 3,
      "note": 81,
      "start": 123.019,
      "duration": 0.109,
      "velocity": 94,
      "chip": "ym2612"
    },
    {
      "channel": 5,
      "note": 74,
      "start": 123.0193,
      "duration": 0.109,
      "velocity": 94,
      "chip": "ym2612"
    },
    {
      "channel": 4,
      "note": 47,
      "start": 123.0967,
      "duration": 3.0504,
      "velocity": 121,
      "chip": "ym2612"
    },
    {
      "channel": 0,
      "note": 98,
      "start": 123.1277,
      "duration": 0.0309,
      "velocity": 114,
      "chip": "ym2612"
    },
    {
      "channel": 1,
      "note": 64,
      "start": 123.1278,
      "duration": 0.2179,
      "velocity": 93,
      "chip": "ym2612"
    },
    {
      "channel": 3,
      "note": 69,
      "start": 123.128,
      "duration": 0.1089,
      "velocity": 94,
      "chip": "ym2612"
    },
    {
      "channel": 0,
      "note": 98,
      "start": 123.2367,
      "duration": 0.0309,
      "velocity": 114,
      "chip": "ym2612"
    },
    {
      "channel": 3,
      "note": 74,
      "start": 123.2369,
      "duration": 0.109,
      "velocity": 94,
      "chip": "ym2612"
    },
    {
      "channel": 5,
      "note": 76,
      "start": 123.2371,
      "duration": 0.109,
      "velocity": 94,
      "chip": "ym2612"
    },
    {
      "channel": 0,
      "note": 98,
      "start": 123.3456,
      "duration": 0.0154,
      "velocity": 127,
      "chip": "ym2612"
    },
    {
      "channel": 1,
      "note": 64,
      "start": 123.3457,
      "duration": 0.2178,
      "velocity": 93,
      "chip": "ym2612"
    },
    {
      "channel": 5,
      "note": 81,
      "start": 123.3461,
      "duration": 0.1089,
      "velocity": 94,
      "chip": "ym2612"
    },
    {
      "channel": 0,
      "note": 76,
      "start": 123.361,
      "duration": 0.0936,
      "velocity": 114,
      "chip": "ym2612"
    },
    {
      "channel": 0,
      "note": 68,
      "start": 123.4545,
      "duration": 0.0309,
      "velocity": 114,
      "chip": "ym2612"
    },
    {
      "channel": 3,
      "note": 76,
      "start": 123.4548,
      "duration": 0.109,
      "velocity": 94,
      "chip": "ym2612"
    },
    {
      "channel": 5,
      "note": 69,
      "start": 123.4551,
      "duration": 0.109,
      "velocity": 94,
      "chip": "ym2612"
    },
    {
      "channel": 0,
      "note": 98,
      "start": 123.5635,
      "duration": 0.0309,
      "velocity": 114,
      "chip": "ym2612"
    },
    {
      "channel": 1,
      "note": 64,
      "start": 123.5636,
      "duration": 0.2179,
      "velocity": 93,
      "chip": "ym2612"
    },
    {
      "channel": 3,
      "note": 81,
      "start": 123.5638,
      "duration": 0.1089,
      "velocity": 94,
      "chip": "ym2612"
    },
    {
      "channel": 5,
      "note": 81,
      "start": 123.564,
      "duration": 0.1089,
      "velocity": 94,
      "chip": "ym2612"
    },
    {
      "channel": 0,
      "note": 98,
      "start": 123.6724,
      "duration": 0.0309,
      "velocity": 114,
      "chip": "ym2612"
    },
    {
      "channel": 3,
      "note": 69,
      "start": 123.6727,
      "duration": 0.109,
      "velocity": 94,
      "chip": "ym2612"
    },
    {
      "channel": 5,
      "note": 71,
      "start": 123.6729,
      "duration": 0.109,
      "velocity": 94,
      "chip": "ym2612"
    },
    {
      "channel": 0,
      "note": 98,
      "start": 123.7814,
      "duration": 0.1091,
      "velocity": 114,
      "chip": "ym2612"
    },
    {
      "channel": 1,
      "note": 64,
      "start": 123.7815,
      "duration": 0.2178,
      "velocity": 93,
      "chip": "ym2612"
    },
    {
      "channel": 3,
      "note": 81,
      "start": 123.7817,
      "duration": 0.109,
      "velocity": 94,
      "chip": "ym2612"
    },
    {
      "channel": 5,
      "note": 74,
      "start": 123.782,
      "duration": 0.109,
      "velocity": 94,
      "chip": "ym2612"
    },
    {
      "channel": 0,
      "note": 54,
      "start": 123.8905,
      "duration": 0.0307,
      "velocity": 114,
      "chip": "ym2612"
    },
    {
      "channel": 3,
      "note": 71,
      "start": 123.8907,
      "duration": 0.1088,
      "velocity": 94,
      "chip": "ym2612"
    },
    {
      "channel": 0,
      "note": 98,
      "start": 123.9993,
      "duration": 0.0309,
      "velocity": 114,
      "chip": "ym2612"
    },
    {
      "channel": 1,
      "note": 64,
      "start": 123.9994,
      "duration": 0.2179,
      "velocity": 93,
      "chip": "ym2612"
    },
    {
      "channel": 3,
      "note": 74,
      "start": 123.9995,
      "duration": 0.1089,
      "velocity": 94,
      "chip": "ym2612"
    },
    {
      "channel": 5,
      "note": 76,
      "start": 123.9998,
      "duration": 0.1089,
      "velocity": 94,
      "chip": "ym2612"
    },
    {
      "channel": 0,
      "note": 98,
      "start": 124.1082,
      "duration": 0.0309,
      "velocity": 114,
      "chip": "ym2612"
    },
    {
      "channel": 5,
      "note": 78,
      "start": 124.1087,
      "duration": 0.109,
      "velocity": 94,
      "chip": "ym2612"
    },
    {
      "channel": 0,
      "note": 98,
      "start": 124.2171,
      "duration": 0.0154,
      "velocity": 127,
      "chip": "ym2612"
    },
    {
      "channel": 1,
      "note": 64,
      "start": 124.2173,
      "duration": 0.2179,
      "velocity": 93,
      "chip": "ym2612"
    },
    {
      "channel": 3,
      "note": 76,
      "start": 124.2175,
      "duration": 0.1089,
      "velocity": 94,
      "chip": "ym2612"
    },
    {
      "channel": 5,
      "note": 81,
      "start": 124.2177,
      "duration": 0.1089,
      "velocity": 94,
      "chip": "ym2612"
    },
    {
      "channel": 0,
      "note": 76,
      "start": 124.2325,
      "duration": 0.0936,
      "velocity": 114,
      "chip": "ym2612"
    },
    {
      "channel": 0,
      "note": 68,
      "start": 124.3261,
      "duration": 0.0311,
      "velocity": 114,
      "chip": "ym2612"
    },
    {
      "channel": 5,
      "note": 69,
      "start": 124.3266,
      "duration": 0.109,
      "velocity": 94,
      "chip": "ym2612"
    },
    {
      "channel": 0,
      "note": 98,
      "start": 124.435,
      "duration": 0.0309,
      "velocity": 114,
      "chip": "ym2612"
    },
    {
      "channel": 1,
      "note": 64,
      "start": 124.4351,
      "duration": 0.2179,
      "velocity": 93,
      "chip": "ym2612"
    },
    {
      "channel": 3,
      "note": 78,
      "start": 124.4354,
      "duration": 0.1088,
      "velocity": 94,
      "chip": "ym2612"
    },
    {
      "channel": 5,
      "note": 74,
      "start": 124.4356,
      "duration": 0.1088,
      "velocity": 94,
      "chip": "ym2612"
    },
    {
      "channel": 0,
      "note": 98,
      "start": 124.544,
      "duration": 0.0309,
      "velocity": 114,
      "chip": "ym2612"
    },
    {
      "channel": 3,
      "note": 81,
      "start": 124.5442,
      "duration": 0.109,
      "velocity": 94,
      "chip": "ym2612"
    },
    {
      "channel": 0,
      "note": 98,
      "start": 124.6529,
      "duration": 0.1089,
      "velocity": 114,
      "chip": "ym2612"
    },
    {
      "channel": 1,
      "note": 64,
      "start": 124.6531,
      "duration": 0.2178,
      "velocity": 93,
      "chip": "ym2612"
    },
    {
      "channel": 3,
      "note": 69,
      "start": 124.6532,
      "duration": 0.1089,
      "velocity": 94,
      "chip": "ym2612"
    },
    {
      "channel": 5,
      "note": 76,
      "start": 124.6535,
      "duration": 0.1089,
      "velocity": 94,
      "chip": "ym2612"
    },
    {
      "channel": 0,
      "note": 54,
      "start": 124.7618,
      "duration": 0.0309,
      "velocity": 114,
      "chip": "ym2612"
    },
    {
      "channel": 3,
      "note": 74,
      "start": 124.7621,
      "duration": 0.1089,
      "velocity": 94,
      "chip": "ym2612"
    },
    {
      "channel": 5,
      "note": 81,
      "start": 124.7624,
      "duration": 0.1089,
      "velocity": 94,
      "chip": "ym2612"
    },
    {
      "channel": 0,
      "note": 98,
      "start": 124.8708,
      "duration": 0.0309,
      "velocity": 114,
      "chip": "ym2612"
    },
    {
      "channel": 1,
      "note": 64,
      "start": 124.8709,
      "duration": 0.2179,
      "velocity": 93,
      "chip": "ym2612"
    },
    {
      "channel": 5,
      "note": 69,
      "start": 124.8713,
      "duration": 0.1089,
      "velocity": 94,
      "chip": "ym2612"
    },
    {
      "channel": 0,
      "note": 98,
      "start": 124.9797,
      "duration": 0.0309,
      "velocity": 114,
      "chip": "ym2612"
    },
    {
      "channel": 3,
      "note": 76,
      "start": 124.98,
      "duration": 0.109,
      "velocity": 94,
      "chip": "ym2612"
    },
    {
      "channel": 5,
      "note": 81,
      "start": 124.9802,
      "duration": 0.109,
      "velocity": 94,
      "chip": "ym2612"
    },
    {
      "channel": 0,
      "note": 98,
      "start": 125.0887,
      "duration": 0.0154,
      "velocity": 127,
      "chip": "ym2612"
    },
    {
      "channel": 1,
      "note": 64,
      "start": 125.0888,
      "duration": 0.2178,
      "velocity": 93,
      "chip": "ym2612"
    },
    {
      "channel": 3,
      "note": 81,
      "start": 125.089,
      "duration": 0.1089,
      "velocity": 94,
      "chip": "ym2612"
    },
    {
      "channel": 5,
      "note": 71,
      "start": 125.0892,
      "duration": 0.1089,
      "velocity": 94,
      "chip": "ym2612"
    },
    {
      "channel": 0,
      "note": 76,
      "start": 125.104,
      "duration": 0.0936,
      "velocity": 114,
      "chip": "ym2612"
    },
    {
      "channel": 0,
      "note": 68,
      "start": 125.1976,
      "duration": 0.0309,
      "velocity": 114,
      "chip": "ym2612"
    },
    {
      "channel": 3,
      "note": 69,
      "start": 125.1979,
      "duration": 0.109,
      "velocity": 94,
      "chip": "ym2612"
    },
    {
      "channel": 5,
      "note": 74,
      "start": 125.1981,
      "duration": 0.1091,
      "velocity": 94,
      "chip": "ym2612"
    },
    {
      "channel": 0,
      "note": 98,
      "start": 125.3066,
      "duration": 0.0309,
      "velocity": 114,
      "chip": "ym2612"
    },
    {
      "channel": 1,
      "note": 64,
      "start": 125.3067,
      "duration": 0.2179,
      "velocity": 93,
      "chip": "ym2612"
    },
    {
      "channel": 3,
      "note": 81,
      "start": 125.3069,
      "duration": 0.1089,
      "velocity": 94,
      "chip": "ym2612"
    },
    {
      "channel": 0,
      "note": 98,
      "start": 125.4155,
      "duration": 0.0309,
      "velocity": 114,
      "chip": "ym2612"
    },
    {
      "channel": 3,
      "note": 71,
      "start": 125.4158,
      "duration": 0.109,
      "velocity": 94,
      "chip": "ym2612"
    },
    {
      "channel": 5,
      "note": 76,
      "start": 125.416,
      "duration": 0.1091,
      "velocity": 94,
      "chip": "ym2612"
    },
    {
      "channel": 0,
      "note": 98,
      "start": 125.5244,
      "duration": 0.1089,
      "velocity": 127,
      "chip": "ym2612"
    },
    {
      "channel": 1,
      "note": 64,
      "start": 125.5246,
      "duration": 0.2178,
      "velocity": 93,
      "chip": "ym2612"
    },
    {
      "channel": 3,
      "note": 74,
      "start": 125.5248,
      "duration": 0.1088,
      "velocity": 94,
      "chip": "ym2612"
    },
    {
      "channel": 5,
      "note": 78,
      "start": 125.5251,
      "duration": 0.1088,
      "velocity": 94,
      "chip": "ym2612"
    },
    {
      "channel": 0,
      "note": 54,
      "start": 125.6334,
      "duration": 0.0154,
      "velocity": 127,
      "chip": "ym2612"
    },
    {
      "channel": 5,
      "note": 81,
      "start": 125.6339,
      "duration": 0.109,
      "velocity": 94,
      "chip": "ym2612"
    },
    {
      "channel": 0,
      "note": 76,
      "start": 125.6487,
      "duration": 0.0936,
      "velocity": 114,
      "chip": "ym2612"
    },
    {
      "channel": 0,
      "note": 68,
      "start": 125.7423,
      "duration": 0.0309,
      "velocity": 114,
      "chip": "ym2612"
    },
    {
      "channel": 1,
      "note": 64,
      "start": 125.7424,
      "duration": 0.2179,
      "velocity": 93,
      "chip": "ym2612"
    },
    {
      "channel": 3,
      "note": 76,
      "start": 125.7426,
      "duration": 0.1089,
      "velocity": 94,
      "chip": "ym2612"
    },
    {
      "channel": 5,
      "note": 69,
      "start": 125.7429,
      "duration": 0.1088,
      "velocity": 94,
      "chip": "ym2612"
    },
    {
      "channel": 0,
      "note": 98,
      "start": 125.8513,
      "duration": 0.0309,
      "velocity": 114,
      "chip": "ym2612"
    },
    {
      "channel": 5,
      "note": 74,
      "start": 125.8517,
      "duration": 0.1091,
      "velocity": 94,
      "chip": "ym2612"
    },
    {
      "channel": 0,
      "note": 98,
      "start": 125.9602,
      "duration": 0.1089,
      "velocity": 114,
      "chip": "ym2612"
    },
    {
      "channel": 1,
      "note": 64,
      "start": 125.9604,
      "duration": 0.2178,
      "velocity": 93,
      "chip": "ym2612"
    },
    {
      "channel": 2,
      "note": 52,
      "start": 125.9605,
      "duration": 3.0504,
      "velocity": 121,
      "chip": "ym2612"
    },
    {
      "channel": 3,
      "note": 78,
      "start": 125.9607,
      "duration": 0.1087,
      "velocity": 94,
      "chip": "ym2612"
    },
    {
      "channel": 0,
      "note": 54,
      "start": 126.0691,
      "duration": 0.0309,
      "velocity": 114,
      "chip": "ym2612"
    },
    {
      "channel": 3,
      "note": 81,
      "start": 126.0694,
      "duration": 0.109,
      "velocity": 94,
      "chip": "ym2612"
    },
    {
      "channel": 5,
      "note": 76,
      "start": 126.0696,
      "duration": 0.109,
      "velocity": 94,
      "chip": "ym2612"
    },
    {
      "channel": 4,
      "note": 52,
      "start": 126.1471,
      "duration": 3.0504,
      "velocity": 121,
      "chip": "ym2612"
    },
    {
      "channel": 0,
      "note": 98,
      "start": 126.1781,
      "duration": 0.0309,
      "velocity": 114,
      "chip": "ym2612"
    },
    {
      "channel": 1,
      "note": 67,
      "start": 126.1782,
      "duration": 0.2179,
      "velocity": 93,
      "chip": "ym2612"
    },
    {
      "channel": 3,
      "note": 69,
      "start": 126.1784,
      "duration": 0.1089,
      "velocity": 94,
      "chip": "ym2612"
    },
    {
      "channel": 5,
      "note": 81,
      "start": 126.1786,
      "duration": 0.1089,
      "velocity": 94,
      "chip": "ym2612"
    },
    {
      "channel": 0,
      "note": 98,
      "start": 126.287,
      "duration": 0.0309,
      "velocity": 114,
      "chip": "ym2612"
    },
    {
      "channel": 3,
      "note": 74,
      "start": 126.2873,
      "duration": 0.109,
      "velocity": 94,
      "chip": "ym2612"
    },
    {
      "channel": 5,
      "note": 69,
      "start": 126.2875,
      "duration": 0.109,
      "velocity": 94,
      "chip": "ym2612"
    },
    {
      "channel": 0,
      "note": 98,
      "start": 126.396,
      "duration": 0.0154,
      "velocity": 127,
      "chip": "ym2612"
    },
    {
      "channel": 1,
      "note": 67,
      "start": 126.3961,
      "duration": 0.2178,
      "velocity": 93,
      "chip": "ym2612"
    },
    {
      "channel": 5,
      "note": 81,
      "start": 126.3965,
      "duration": 0.1089,
      "velocity": 94,
      "chip": "ym2612"
    },
    {
      "channel": 0,
      "note": 76,
      "start": 126.4113,
      "duration": 0.0936,
      "velocity": 114,
      "chip": "ym2612"
    },
    {
      "channel": 0,
      "note": 68,
      "start": 126.5049,
      "duration": 0.0309,
      "velocity": 114,
      "chip": "ym2612"
    },
    {
      "channel": 3,
      "note": 76,
      "start": 126.5052,
      "duration": 0.109,
      "velocity": 94,
      "chip": "ym2612"
    },
    {
      "channel": 5,
      "note": 71,
      "start": 126.5054,
      "duration": 0.109,
      "velocity": 94,
      "chip": "ym2612"
    },
    {
      "channel": 0,
      "note": 98,
      "start": 126.6139,
      "duration": 0.0309,
      "velocity": 114,
      "chip": "ym2612"
    },
    {
      "channel": 1,
      "note": 67,
      "start": 126.614,
      "duration": 0.2179,
      "velocity": 93,
      "chip": "ym2612"
    },
    {
      "channel": 3,
      "note": 81,
      "start": 126.6142,
      "duration": 0.1089,
      "velocity": 94,
      "chip": "ym2612"
    },
    {
      "channel": 5,
      "note": 74,
      "start": 126.6144,
      "duration": 0.1089,
      "velocity": 94,
      "chip": "ym2612"
    },
    {
      "channel": 0,
      "note": 98,
      "start": 126.7228,
      "duration": 0.0309,
      "velocity": 114,
      "chip": "ym2612"
    },
    {
      "channel": 3,
      "note": 69,
      "start": 126.7231,
      "duration": 0.109,
      "velocity": 94,
      "chip": "ym2612"
    },
    {
      "channel": 0,
      "note": 98,
      "start": 126.8317,
      "duration": 0.109,
      "velocity": 114,
      "chip": "ym2612"
    },
    {
      "channel": 1,
      "note": 67,
      "start": 126.8319,
      "duration": 0.2178,
      "velocity": 93,
      "chip": "ym2612"
    },
    {
      "channel": 3,
      "note": 81,
      "start": 126.8321,
      "duration": 0.1089,
      "velocity": 94,
      "chip": "ym2612"
    },
    {
      "channel": 5,
      "note": 76,
      "start": 126.8323,
      "duration": 0.109,
      "velocity": 94,
      "chip": "ym2612"
    },
    {
      "channel": 0,
      "note": 54,
      "start": 126.9407,
      "duration": 0.0308,
      "velocity": 114,
      "chip": "ym2612"
    },
    {
      "channel": 3,
      "note": 71,
      "start": 126.941,
      "duration": 0.1089,
      "velocity": 94,
      "chip": "ym2612"
    },
    {
      "channel": 5,
      "note": 78,
      "start": 126.9413,
      "duration": 0.1088,
      "velocity": 94,
      "chip": "ym2612"
    },
    {
      "channel": 0,
      "note": 98,
      "start": 127.0496,
      "duration": 0.0309,
      "velocity": 114,
      "chip": "ym2612"
    },
    {
      "channel": 1,
      "note": 67,
      "start": 127.0497,
      "duration": 0.2179,
      "velocity": 93,
      "chip": "ym2612"
    },
    {
      "channel": 3,
      "note": 74,
      "start": 127.0499,
      "duration": 0.1089,
      "velocity": 94,
      "chip": "ym2612"
    },
    {
      "channel": 5,
      "note": 81,
      "start": 127.0502,
      "duration": 0.1088,
      "velocity": 94,
      "chip": "ym2612"
    },
    {
      "channel": 0,
      "note": 98,
      "start": 127.1585,
      "duration": 0.0309,
      "velocity": 114,
      "chip": "ym2612"
    },
    {
      "channel": 5,
      "note": 69,
      "start": 127.159,
      "duration": 0.109,
      "velocity": 94,
      "chip": "ym2612"
    },
    {
      "channel": 0,
      "note": 98,
      "start": 127.2675,
      "duration": 0.0153,
      "velocity": 127,
      "chip": "ym2612"
    },
    {
      "channel": 1,
      "note": 67,
      "start": 127.2676,
      "duration": 0.2178,
      "velocity": 93,
      "chip": "ym2612"
    },
    {
      "channel": 3,
      "note": 76,
      "start": 127.2678,
      "duration": 0.1089,
      "velocity": 94,
      "chip": "ym2612"
    },
    {
      "channel": 5,
      "note": 74,
      "start": 127.268,
      "duration": 0.1089,
      "velocity": 94,
      "chip": "ym2612"
    },
    {
      "channel": 0,
      "note": 76,
      "start": 127.2829,
      "duration": 0.0936,
      "velocity": 114,
      "chip": "ym2612"
    },
    {
      "channel": 0,
      "note": 68,
      "start": 127.3764,
      "duration": 0.0309,
      "velocity": 114,
      "chip": "ym2612"
    },
    {
      "channel": 0,
      "note": 98,
      "start": 127.4854,
      "duration": 0.0309,
      "velocity": 114,
      "chip": "ym2612"
    },
    {
      "channel": 1,
      "note": 67,
      "start": 127.4855,
      "duration": 0.2179,
      "velocity": 93,
      "chip": "ym2612"
    },
    {
      "channel": 3,
      "note": 78,
      "start": 127.4858,
      "duration": 0.1088,
      "velocity": 94,
      "chip": "ym2612"
    },
    {
      "channel": 5,
      "note": 76,
      "start": 127.486,
      "duration": 0.1088,
      "velocity": 94,
      "chip": "ym2612"
    },
    {
      "channel": 0,
      "note": 98,
      "start": 127.5943,
      "duration": 0.0309,
      "velocity": 114,
      "chip": "ym2612"
    },
    {
      "channel": 3,
      "note": 81,
      "start": 127.5946,
      "duration": 0.109,
      "velocity": 94,
      "chip": "ym2612"
    },
    {
      "channel": 5,
      "note": 81,
      "start": 127.5948,
      "duration": 0.109,
      "velocity": 94,
      "chip": "ym2612"
    },
    {
      "channel": 0,
      "note": 98,
      "start": 127.7033,
      "duration": 0.1089,
      "velocity": 114,
      "chip": "ym2612"
    },
    {
      "channel": 1,
      "note": 67,
      "start": 127.7034,
      "duration": 0.2178,
      "velocity": 93,
      "chip": "ym2612"
    },
    {
      "channel": 3,
      "note": 69,
      "start": 127.7036,
      "duration": 0.1089,
      "velocity": 94,
      "chip": "ym2612"
    },
    {
      "channel": 5,
      "note": 69,
      "start": 127.7039,
      "duration": 0.1089,
      "velocity": 94,
      "chip": "ym2612"
    },
    {
      "channel": 0,
      "note": 54,
      "start": 127.8122,
      "duration": 0.0309,
      "velocity": 114,
      "chip": "ym2612"
    },
    {
      "channel": 3,
      "note": 74,
      "start": 127.8125,
      "duration": 0.1089,
      "velocity": 94,
      "chip": "ym2612"
    },
    {
      "channel": 5,
      "note": 81,
      "start": 127.8127,
      "duration": 0.1089,
      "velocity": 94,
      "chip": "ym2612"
    },
    {
      "channel": 0,
      "note": 98,
      "start": 127.9212,
      "duration": 0.0309,
      "velocity": 114,
      "chip": "ym2612"
    },
    {
      "channel": 1,
      "note": 67,
      "start": 127.9213,
      "duration": 0.2179,
      "velocity": 93,
      "chip": "ym2612"
    },
    {
      "channel": 5,
      "note": 71,
      "start": 127.9217,
      "duration": 0.1089,
      "velocity": 94,
      "chip": "ym2612"
    },
    {
      "channel": 0,
      "note": 98,
      "start": 128.0301,
      "duration": 0.0309,
      "velocity": 114,
      "chip": "ym2612"
    },
    {
      "channel": 3,
      "note": 76,
      "start": 128.0303,
      "duration": 0.109,
      "velocity": 94,
      "chip": "ym2612"
    },
    {
      "channel": 5,
      "note": 74,
      "start": 128.0306,
      "duration": 0.109,
      "velocity": 94,
      "chip": "ym2612"
    },
    {
      "channel": 0,
      "note": 98,
      "start": 128.139,
      "duration": 0.0154,
      "velocity": 127,
      "chip": "ym2612"
    },
    {
      "channel": 1,
      "note": 67,
      "start": 128.1392,
      "duration": 0.218,
      "velocity": 93,
      "chip": "ym2612"
    },
    {
      "channel": 3,
      "note": 81,
      "start": 128.1394,
      "duration": 0.1089,
      "velocity": 94,
      "chip": "ym2612"
    },
    {
      "channel": 0,
      "note": 76,
      "start": 128.1544,
      "duration": 0.0936,
      "velocity": 114,
      "chip": "ym2612"
    },
    {
      "channel": 0,
      "note": 68,
      "start": 128.248,
      "duration": 0.0309,
      "velocity": 114,
      "chip": "ym2612"
    },
    {
      "channel": 3,
      "note": 69,
      "start": 128.2483,
      "duration": 0.1091,
      "velocity": 94,
      "chip": "ym2612"
    },
    {
      "channel": 5,
      "note": 76,
      "start": 128.2485,
      "duration": 0.1092,
      "velocity": 94,
      "chip": "ym2612"
    },
    {
      "channel": 0,
      "note": 98,
      "start": 128.3571,
      "duration": 0.0307,
      "velocity": 114,
      "chip": "ym2612"
    },
    {
      "channel": 1,
      "note": 67,
      "start": 128.3572,
      "duration": 0.2178,
      "velocity": 93,
      "chip": "ym2612"
    },
    {
      "channel": 3,
      "note": 81,
      "start": 128.3574,
      "duration": 0.1087,
      "velocity": 94,
      "chip": "ym2612"
    },
    {
      "channel": 5,
      "note": 78,
      "start": 128.3577,
      "duration": 0.1087,
      "velocity": 94,
      "chip": "ym2612"
    },
    {
      "channel": 0,
      "note": 98,
      "start": 128.4659,
      "duration": 0.0309,
      "velocity": 114,
      "chip": "ym2612"
    },
    {
      "channel": 3,
      "note": 71,
      "start": 128.4661,
      "duration": 0.109,
      "velocity": 94,
      "chip": "ym2612"
    },
    {
      "channel": 5,
      "note": 81,
      "start": 128.4664,
      "duration": 0.109,
      "velocity": 94,
      "chip": "ym2612"
    },
    {
      "channel": 0,
      "note": 98,
      "start": 128.5748,
      "duration": 0.1089,
      "velocity": 127,
      "chip": "ym2612"
    },
    {
      "channel": 1,
      "note": 67,
      "start": 128.5749,
      "duration": 0.2178,
      "velocity": 93,
      "chip": "ym2612"
    },
    {
      "channel": 3,
      "note": 74,
      "start": 128.5751,
      "duration": 0.1089,
      "velocity": 94,
      "chip": "ym2612"
    },
    {
      "channel": 5,
      "note": 69,
      "start": 128.5754,
      "duration": 0.1089,
      "velocity": 94,
      "chip": "ym2612"
    },
    {
      "channel": 0,
      "note": 54,
      "start": 128.6837,
      "duration": 0.0154,
      "velocity": 127,
      "chip": "ym2612"
    },
    {
      "channel": 5,
      "note": 74,
      "start": 128.6842,
      "duration": 0.109,
      "velocity": 94,
      "chip": "ym2612"
    },
    {
      "channel": 0,
      "note": 76,
      "start": 128.6991,
      "duration": 0.0936,
      "velocity": 114,
      "chip": "ym2612"
    },
    {
      "channel": 0,
      "note": 68,
      "start": 128.7927,
      "duration": 0.0311,
      "velocity": 114,
      "chip": "ym2612"
    },
    {
      "channel": 1,
      "note": 67,
      "start": 128.7928,
      "duration": 0.2179,
      "velocity": 93,
      "chip": "ym2612"
    },
    {
      "channel": 3,
      "note": 76,
      "start": 128.793,
      "duration": 0.1089,
      "velocity": 94,
      "chip": "ym2612"
    },
    {
      "channel": 0,
      "note": 98,
      "start": 128.9016,
      "duration": 0.0309,
      "velocity": 114,
      "chip": "ym2612"
    },
    {
      "channel": 5,
      "note": 76,
      "start": 128.9021,
      "duration": 0.1092,
      "velocity": 94,
      "chip": "ym2612"
    },
    {
      "channel": 0,
      "note": 98,
      "start": 129.0106,
      "duration": 0.1089,
      "velocity": 114,
      "chip": "ym2612"
    },
    {
      "channel": 1,
      "note": 67,
      "start": 129.0107,
      "duration": 0.2178,
      "velocity": 93,
      "chip": "ym2612"
    },
    {
      "channel": 2,
      "note": 43,
      "start": 129.0109,
      "duration": 3.0503,
      "velocity": 121,
      "chip": "ym2612"
    },
    {
      "channel": 3,
      "note": 78,
      "start": 129.011,
      "duration": 0.1087,
      "velocity": 94,
      "chip": "ym2612"
    },
    {
      "channel": 5,
      "note": 81,
      "start": 129.0113,
      "duration": 0.1087,
      "velocity": 94,
      "chip": "ym2612"
    },
    {
      "channel": 0,
      "note": 54,
      "start": 129.1195,
      "duration": 0.0309,
      "velocity": 114,
      "chip": "ym2612"
    },
    {
      "channel": 3,
      "note": 81,
      "start": 129.1198,
      "duration": 0.109,
      "velocity": 94,
      "chip": "ym2612"
    },
    {
      "channel": 5,
      "note": 69,
      "start": 129.12,
      "duration": 0.109,
      "velocity": 94,
      "chip": "ym2612"
    },
    {
      "channel": 4,
      "note": 43,
      "start": 129.1974,
      "duration": 3.0504,
      "velocity": 121,
      "chip": "ym2612"
    },
    {
      "channel": 0,
      "note": 98,
      "start": 129.2285,
      "duration": 0.0309,
      "velocity": 114,
      "chip": "ym2612"
    },
    {
      "channel": 1,
      "note": 62,
      "start": 129.2286,
      "duration": 0.2179,
      "velocity": 93,
      "chip": "ym2612"
    },
    {
      "channel": 3,
      "note": 69,
      "start": 129.2288,
      "duration": 0.1089,
      "velocity": 94,
      "chip": "ym2612"
    },
    {
      "channel": 5,
      "note": 81,
      "start": 129.229,
      "duration": 0.1089,
      "velocity": 94,
      "chip": "ym2612"
    },
    {
      "channel": 0,
      "note": 98,
      "start": 129.3374,
      "duration": 0.0309,
      "velocity": 114,
      "chip": "ym2612"
    },
    {
      "channel": 3,
      "note": 74,
      "start": 129.3377,
      "duration": 0.109,
      "velocity": 94,
      "chip": "ym2612"
    },
    {
      "channel": 5,
      "note": 71,
      "start": 129.3379,
      "duration": 0.109,
      "velocity": 94,
      "chip": "ym2612"
    },
    {
      "channel": 0,
      "note": 98,
      "start": 129.4463,
      "duration": 0.0154,
      "velocity": 127,
      "chip": "ym2612"
    },
    {
      "channel": 1,
      "note": 62,
      "start": 129.4465,
      "duration": 0.2178,
      "velocity": 93,
      "chip": "ym2612"
    },
    {
      "channel": 5,
      "note": 74,
      "start": 129.4469,
      "duration": 0.1089,
      "velocity": 94,
      "chip": "ym2612"
    },
    {
      "channel": 0,
      "note": 76,
      "start": 129.4617,
      "duration": 0.0936,
      "velocity": 114,
      "chip": "ym2612"
    },
    {
      "channel": 0,
      "note": 68,
      "start": 129.5553,
      "duration": 0.0309,
      "velocity": 114,
      "chip": "ym2612"
    },
    {
      "channel": 3,
      "note": 76,
      "start": 129.5556,
      "duration": 0.109,
      "velocity": 94,
      "chip": "ym2612"
    },
    {
      "channel": 0,
      "note": 98,
      "start": 129.6642,
      "duration": 0.0309,
      "velocity": 114,
      "chip": "ym2612"
    },
    {
      "channel": 1,
      "note": 62,
      "start": 129.6643,
      "duration": 0.2179,
      "velocity": 93,
      "chip": "ym2612"
    },
    {
      "channel": 3,
      "note": 81,
      "start": 129.6645,
      "duration": 0.1089,
      "velocity": 94,
      "chip": "ym2612"
    },
    {
      "channel": 5,
      "note": 76,
      "start": 129.6648,
      "duration": 0.1091,
      "velocity": 94,
      "chip": "ym2612"
    },
    {
      "channel": 0,
      "note": 98,
      "start": 129.7732,
      "duration": 0.0309,
      "velocity": 114,
      "chip": "ym2612"
    },
    {
      "channel": 3,
      "note": 69,
      "start": 129.7734,
      "duration": 0.109,
      "velocity": 94,
      "chip": "ym2612"
    },
    {
      "channel": 5,
      "note": 78,
      "start": 129.7739,
      "duration": 0.1088,
      "velocity": 94,
      "chip": "ym2612"
    },
    {
      "channel": 0,
      "note": 98,
      "start": 129.8821,
      "duration": 0.1089,
      "velocity": 114,
      "chip": "ym2612"
    },
    {
      "channel": 1,
      "note": 62,
      "start": 129.8822,
      "duration": 0.2178,
      "velocity": 93,
      "chip": "ym2612"
    },
    {
      "channel": 3,
      "note": 81,
      "start": 129.8824,
      "duration": 0.1089,
      "velocity": 94,
      "chip": "ym2612"
    },
    {
      "channel": 5,
      "note": 81,
      "start": 129.8827,
      "duration": 0.1089,
      "velocity": 94,
      "chip": "ym2612"
    },
    {
      "channel": 0,
      "note": 54,
      "start": 129.991,
      "duration": 0.0309,
      "velocity": 114,
      "chip": "ym2612"
    },
    {
      "channel": 3,
      "note": 71,
      "start": 129.9913,
      "duration": 0.109,
      "velocity": 94,
      "chip": "ym2612"
    },
    {
      "channel": 5,
      "note": 69,
      "start": 129.9916,
      "duration": 0.109,
      "velocity": 94,
      "chip": "ym2612"
    },
    {
      "channel": 0,
      "note": 98,
      "start": 130.1,
      "duration": 0.0309,
      "velocity": 114,
      "chip": "ym2612"
    },
    {
      "channel": 1,
      "note": 62,
      "start": 130.1001,
      "duration": 0.2179,
      "velocity": 93,
      "chip": "ym2612"
    },
    {
      "channel": 3,
      "note": 74,
      "start": 130.1003,
      "duration": 0.1089,
      "velocity": 94,
      "chip": "ym2612"
    },
    {
      "channel": 5,
      "note": 74,
      "start": 130.1005,
      "duration": 0.1088,
      "velocity": 94,
      "chip": "ym2612"
    },
    {
      "channel": 0,
      "note": 98,
      "start": 130.2089,
      "duration": 0.0309,
      "velocity": 114,
      "chip": "ym2612"
    },
    {
      "channel": 0,
      "note": 98,
      "start": 130.3179,
      "duration": 0.0154,
      "velocity": 127,
      "chip": "ym2612"
    },
    {
      "channel": 1,
      "note": 62,
      "start": 130.318,
      "duration": 0.2178,
      "velocity": 93,
      "chip": "ym2612"
    },
    {
      "channel": 3,
      "note": 76,
      "start": 130.3182,
      "duration": 0.1089,
      "velocity": 94,
      "chip": "ym2612"
    },
    {
      "channel": 5,
      "note": 76,
      "start": 130.3184,
      "duration": 0.1089,
      "velocity": 94,
      "chip": "ym2612"
    },
    {
      "channel": 0,
      "note": 76,
      "start": 130.3332,
      "duration": 0.0936,
      "velocity": 114,
      "chip": "ym2612"
    },
    {
      "channel": 0,
      "note": 68,
      "start": 130.4268,
      "duration": 0.0309,
      "velocity": 114,
      "chip": "ym2612"
    },
    {
      "channel": 5,
      "note": 81,
      "start": 130.4273,
      "duration": 0.109,
      "velocity": 94,
      "chip": "ym2612"
    },
    {
      "channel": 0,
      "note": 98,
      "start": 130.5358,
      "duration": 0.0309,
      "velocity": 114,
      "chip": "ym2612"
    },
    {
      "channel": 1,
      "note": 62,
      "start": 130.5359,
      "duration": 0.2179,
      "velocity": 93,
      "chip": "ym2612"
    },
    {
      "channel": 3,
      "note": 78,
      "start": 130.5361,
      "duration": 0.1088,
      "velocity": 94,
      "chip": "ym2612"
    },
    {
      "channel": 5,
      "note": 69,
      "start": 130.5364,
      "duration": 0.1088,
      "velocity": 94,
      "chip": "ym2612"
    },
    {
      "channel": 0,
      "note": 98,
      "start": 130.6447,
      "duration": 0.0309,
      "velocity": 114,
      "chip": "ym2612"
    },
    {
      "channel": 3,
      "note": 81,
      "start": 130.645,
      "duration": 0.109,
      "velocity": 94,
      "chip": "ym2612"
    },
    {
      "channel": 5,
      "note": 81,
      "start": 130.6452,
      "duration": 0.109,
      "velocity": 94,
      "chip": "ym2612"
    },
    {
      "channel": 0,
      "note": 98,
      "start": 130.7537,
      "duration": 0.1089,
      "velocity": 114,
      "chip": "ym2612"
    },
    {
      "channel": 1,
      "note": 62,
      "start": 130.7538,
      "duration": 0.2178,
      "velocity": 93,
      "chip": "ym2612"
    },
    {
      "channel": 3,
      "note": 69,
      "start": 130.754,
      "duration": 0.1089,
      "velocity": 94,
      "chip": "ym2612"
    },
    {
      "channel": 5,
      "note": 71,
      "start": 130.7542,
      "duration": 0.1089,
      "velocity": 94,
      "chip": "ym2612"
    },
    {
      "channel": 0,
      "note": 54,
      "start": 130.8626,
      "duration": 0.0309,
      "velocity": 114,
      "chip": "ym2612"
    },
    {
      "channel": 3,
      "note": 74,
      "start": 130.8629,
      "duration": 0.109,
      "velocity": 94,
      "chip": "ym2612"
    },
    {
      "channel": 5,
      "note": 74,
      "start": 130.8631,
      "duration": 0.1089,
      "velocity": 94,
      "chip": "ym2612"
    },
    {
      "channel": 0,
      "note": 98,
      "start": 130.9715,
      "duration": 0.0309,
      "velocity": 114,
      "chip": "ym2612"
    },
    {
      "channel": 1,
      "note": 62,
      "start": 130.9716,
      "duration": 0.2179,
      "velocity": 93,
      "chip": "ym2612"
    },
    {
      "channel": 0,
      "note": 98,
      "start": 131.0805,
      "duration": 0.0309,
      "velocity": 114,
      "chip": "ym2612"
    },
    {
      "channel": 3,
      "note": 76,
      "start": 131.0807,
      "duration": 0.109,
      "velocity": 94,
      "chip": "ym2612"
    },
    {
      "channel": 5,
      "note": 76,
      "start": 131.081,
      "duration": 0.109,
      "velocity": 94,
      "chip": "ym2612"
    },
    {
      "channel": 0,
      "note": 98,
      "start": 131.1894,
      "duration": 0.0154,
      "velocity": 127,
      "chip": "ym2612"
    },
    {
      "channel": 1,
      "note": 62,
      "start": 131.1895,
      "duration": 0.218,
      "velocity": 93,
      "chip": "ym2612"
    },
    {
      "channel": 3,
      "note": 81,
      "start": 131.1897,
      "duration": 0.1089,
      "velocity": 94,
      "chip": "ym2612"
    },
    {
      "channel": 5,
      "note": 78,
      "start": 131.19,
      "duration": 0.1088,
      "velocity": 94,
      "chip": "ym2612"
    },
    {
      "channel": 0,
      "note": 76,
      "start": 131.2048,
      "duration": 0.0936,
      "velocity": 114,
      "chip": "ym2612"
    },
    {
      "channel": 0,
      "note": 68,
      "start": 131.2983,
      "duration": 0.0309,
      "velocity": 114,
      "chip": "ym2612"
    },
    {
      "channel": 3,
      "note": 69,
      "start": 131.2986,
      "duration": 0.1091,
      "velocity": 94,
      "chip": "ym2612"
    },
    {
      "channel": 5,
      "note": 81,
      "start": 131.2989,
      "duration": 0.1091,
      "velocity": 94,
      "chip": "ym2612"
    },
    {
      "channel": 0,
      "note": 98,
      "start": 131.4074,
      "duration": 0.0308,
      "velocity": 114,
      "chip": "ym2612"
    },
    {
      "channel": 1,
      "note": 62,
      "start": 131.4075,
      "duration": 0.2178,
      "velocity": 93,
      "chip": "ym2612"
    },
    {
      "channel": 3,
      "note": 81,
      "start": 131.4077,
      "duration": 0.1088,
      "velocity": 94,
      "chip": "ym2612"
    },
    {
      "channel": 5,
      "note": 69,
      "start": 131.408,
      "duration": 0.1088,
      "velocity": 94,
      "chip": "ym2612"
    },
    {
      "channel": 0,
      "note": 98,
      "start": 131.5162,
      "duration": 0.0309,
      "velocity": 114,
      "chip": "ym2612"
    },
    {
      "channel": 3,
      "note": 71,
      "start": 131.5165,
      "duration": 0.109,
      "velocity": 94,
      "chip": "ym2612"
    },
    {
      "channel": 5,
      "note": 74,
      "start": 131.5167,
      "duration": 0.109,
      "velocity": 94,
      "chip": "ym2612"
    },
    {
      "channel": 0,
      "note": 98,
      "start": 131.6252,
      "duration": 0.1089,
      "velocity": 127,
      "chip": "ym2612"
    },
    {
      "channel": 1,
      "note": 62,
      "start": 131.6253,
      "duration": 0.2179,
      "velocity": 93,
      "chip": "ym2612"
    },
    {
      "channel": 3,
      "note": 74,
      "start": 131.6255,
      "duration": 0.1089,
      "velocity": 94,
      "chip": "ym2612"
    },
    {
      "channel": 0,
      "note": 54,
      "start": 131.7341,
      "duration": 0.0154,
      "velocity": 127,
      "chip": "ym2612"
    },
    {
      "channel": 5,
      "note": 76,
      "start": 131.7346,
      "duration": 0.109,
      "velocity": 94,
      "chip": "ym2612"
    },
    {
      "channel": 0,
      "note": 76,
      "start": 131.7495,
      "duration": 0.0936,
      "velocity": 114,
      "chip": "ym2612"
    },
    {
      "channel": 0,
      "note": 68,
      "start": 131.843,
      "duration": 0.0309,
      "velocity": 114,
      "chip": "ym2612"
    },
    {
      "channel": 1,
      "note": 62,
      "start": 131.8432,
      "duration": 0.2179,
      "velocity": 93,
      "chip": "ym2612"
    },
    {
      "channel": 3,
      "note": 76,
      "start": 131.8434,
      "duration": 0.1089,
      "velocity": 94,
      "chip": "ym2612"
    },
    {
      "channel": 5,
      "note": 81,
      "start": 131.8436,
      "duration": 0.1089,
      "velocity": 94,
      "chip": "ym2612"
    },
    {
      "channel": 0,
      "note": 98,
      "start": 131.952,
      "duration": 0.0309,
      "velocity": 114,
      "chip": "ym2612"
    },
    {
      "channel": 5,
      "note": 69,
      "start": 131.9525,
      "duration": 0.1091,
      "velocity": 94,
      "chip": "ym2612"
    },
    {
      "channel": 0,
      "note": 98,
      "start": 132.061,
      "duration": 0.1089,
      "velocity": 114,
      "chip": "ym2612"
    },
    {
      "channel": 1,
      "note": 62,
      "start": 132.0611,
      "duration": 0.2178,
      "velocity": 93,
      "chip": "ym2612"
    },
    {
      "channel": 2,
      "note": 50,
      "start": 132.0612,
      "duration": 3.0504,
      "velocity": 121,
      "chip": "ym2612"
    },
    {
      "channel": 3,
      "note": 78,
      "start": 132.0614,
      "duration": 0.1088,
      "velocity": 94,
      "chip": "ym2612"
    },
    {
      "channel": 5,
      "note": 81,
      "start": 132.0616,
      "duration": 0.1087,
      "velocity": 94,
      "chip": "ym2612"
    },
    {
      "channel": 0,
      "note": 54,
      "start": 132.1699,
      "duration": 0.0309,
      "velocity": 114,
      "chip": "ym2612"
    },
    {
      "channel": 3,
      "note": 81,
      "start": 132.1701,
      "duration": 0.109,
      "velocity": 94,
      "chip": "ym2612"
    },
    {
      "channel": 5,
      "note": 71,
      "start": 132.1704,
      "duration": 0.109,
      "velocity": 94,
      "chip": "ym2612"
    },
    {
      "channel": 4,
      "note": 50,
      "start": 132.2478,
      "duration": 3.0504,
      "velocity": 121,
      "chip": "ym2612"
    },
    {
      "channel": 0,
      "note": 98,
      "start": 132.2788,
      "duration": 0.0309,
      "velocity": 114,
      "chip": "ym2612"
    },
    {
      "channel": 1,
      "note": 59,
      "start": 132.2789,
      "duration": 0.2179,
      "velocity": 93,
      "chip": "ym2612"
    },
    {
      "channel": 3,
      "note": 69,
      "start": 132.2791,
      "duration": 0.1089,
      "velocity": 94,
      "chip": "ym2612"
    },
    {
      "channel": 5,
      "note": 74,
      "start": 132.2793,
      "duration": 0.1089,
      "velocity": 94,
      "chip": "ym2612"
    },
    {
      "channel": 0,
      "note": 98,
      "start": 132.3878,
      "duration": 0.0309,
      "velocity": 114,
      "chip": "ym2612"
    },
    {
      "channel": 3,
      "note": 74,
      "start": 132.388,
      "duration": 0.109,
      "velocity": 94,
      "chip": "ym2612"
    },
    {
      "channel": 0,
      "note": 98,
      "start": 132.4967,
      "duration": 0.0154,
      "velocity": 127,
      "chip": "ym2612"
    },
    {
      "channel": 1,
      "note": 59,
      "start": 132.4968,
      "duration": 0.2179,
      "velocity": 93,
      "chip": "ym2612"
    },
    {
      "channel": 5,
      "note": 76,
      "start": 132.4972,
      "duration": 0.109,
      "velocity": 94,
      "chip": "ym2612"
    },
    {
      "channel": 0,
      "note": 76,
      "start": 132.5121,
      "duration": 0.0936,
      "velocity": 114,
      "chip": "ym2612"
    },
    {
      "channel": 0,
      "note": 68,
      "start": 132.6056,
      "duration": 0.0309,
      "velocity": 114,
      "chip": "ym2612"
    },
    {
      "channel": 3,
      "note": 76,
      "start": 132.6059,
      "duration": 0.109,
      "velocity": 94,
      "chip": "ym2612"
    },
    {
      "channel": 5,
      "note": 78,
      "start": 132.6062,
      "duration": 0.1089,
      "velocity": 94,
      "chip": "ym2612"
    },
    {
      "channel": 0,
      "note": 98,
      "start": 132.7146,
      "duration": 0.0309,
      "velocity": 114,
      "chip": "ym2612"
    },
    {
      "channel": 1,
      "note": 59,
      "start": 132.7147,
      "duration": 0.2179,
      "velocity": 93,
      "chip": "ym2612"
    },
    {
      "channel": 3,
      "note": 81,
      "start": 132.7149,
      "duration": 0.109,
      "velocity": 94,
      "chip": "ym2612"
    },
    {
      "channel": 5,
      "note": 81,
      "start": 132.7151,
      "duration": 0.109,
      "velocity": 94,
      "chip": "ym2612"
    },
    {
      "channel": 0,
      "note": 98,
      "start": 132.8235,
      "duration": 0.0309,
      "velocity": 114,
      "chip": "ym2612"
    },
    {
      "channel": 3,
      "note": 69,
      "start": 132.824,
      "duration": 0.1088,
      "velocity": 94,
      "chip": "ym2612"
    },
    {
      "channel": 5,
      "note": 69,
      "start": 132.8242,
      "duration": 0.1088,
      "velocity": 94,
      "chip": "ym2612"
    },
    {
      "channel": 0,
      "note": 98,
      "start": 132.9325,
      "duration": 0.1089,
      "velocity": 114,
      "chip": "ym2612"
    },
    {
      "channel": 1,
      "note": 59,
      "start": 132.9326,
      "duration": 0.2178,
      "velocity": 93,
      "chip": "ym2612"
    },
    {
      "channel": 3,
      "note": 81,
      "start": 132.9328,
      "duration": 0.1089,
      "velocity": 94,
      "chip": "ym2612"
    },
    {
      "channel": 5,
      "note": 74,
      "start": 132.9331,
      "duration": 0.1088,
      "velocity": 94,
      "chip": "ym2612"
    },
    {
      "channel": 0,
      "note": 54,
      "start": 133.0414,
      "duration": 0.0309,
      "velocity": 114,
      "chip": "ym2612"
    },
    {
      "channel": 3,
      "note": 71,
      "start": 133.0417,
      "duration": 0.109,
      "velocity": 94,
      "chip": "ym2612"
    },
    {
      "channel": 0,
      "note": 98,
      "start": 133.1504,
      "duration": 0.0309,
      "velocity": 114,
      "chip": "ym2612"
    },
    {
      "channel": 1,
      "note": 59,
      "start": 133.1505,
      "duration": 0.2179,
      "velocity": 93,
      "chip": "ym2612"
    },
    {
      "channel": 3,
      "note": 74,
      "start": 133.1507,
      "duration": 0.1089,
      "velocity": 94,
      "chip": "ym2612"
    },
    {
      "channel": 5,
      "note": 76,
      "start": 133.1509,
      "duration": 0.1089,
      "velocity": 94,
      "chip": "ym2612"
    },
    {
      "channel": 0,
      "note": 98,
      "start": 133.2593,
      "duration": 0.0309,
      "velocity": 114,
      "chip": "ym2612"
    },
    {
      "channel": 5,
      "note": 81,
      "start": 133.2598,
      "duration": 0.109,
      "velocity": 94,
      "chip": "ym2612"
    },
    {
      "channel": 0,
      "note": 98,
      "start": 133.3682,
      "duration": 0.0154,
      "velocity": 127,
      "chip": "ym2612"
    },
    {
      "channel": 1,
      "note": 59,
      "start": 133.3684,
      "duration": 0.2178,
      "velocity": 93,
      "chip": "ym2612"
    },
    {
      "channel": 3,
      "note": 76,
      "start": 133.3685,
      "duration": 0.1089,
      "velocity": 94,
      "chip": "ym2612"
    },
    {
      "channel": 5,
      "note": 69,
      "start": 133.3688,
      "duration": 0.1089,
      "velocity": 94,
      "chip": "ym2612"
    },
    {
      "channel": 0,
      "note": 76,
      "start": 133.3836,
      "duration": 0.0936,
      "velocity": 114,
      "chip": "ym2612"
    },
    {
      "channel": 0,
      "note": 68,
      "start": 133.4772,
      "duration": 0.0309,
      "velocity": 114,
      "chip": "ym2612"
    },
    {
      "channel": 5,
      "note": 81,
      "start": 133.4777,
      "duration": 0.1091,
      "velocity": 94,
      "chip": "ym2612"
    },
    {
      "channel": 0,
      "note": 98,
      "start": 133.5861,
      "duration": 0.0309,
      "velocity": 114,
      "chip": "ym2612"
    },
    {
      "channel": 1,
      "note": 59,
      "start": 133.5862,
      "duration": 0.2179,
      "velocity": 93,
      "chip": "ym2612"
    },
    {
      "channel": 3,
      "note": 78,
      "start": 133.5865,
      "duration": 0.1088,
      "velocity": 94,
      "chip": "ym2612"
    },
    {
      "channel": 5,
      "note": 71,
      "start": 133.5867,
      "duration": 0.1088,
      "velocity": 94,
      "chip": "ym2612"
    },
    {
      "channel": 0,
      "note": 98,
      "start": 133.6951,
      "duration": 0.0309,
      "velocity": 114,
      "chip": "ym2612"
    },
    {
      "channel": 3,
      "note": 81,
      "start": 133.6953,
      "duration": 0.109,
      "velocity": 94,
      "chip": "ym2612"
    },
    {
      "channel": 5,
      "note": 74,
      "start": 133.6956,
      "duration": 0.109,
      "velocity": 94,
      "chip": "ym2612"
    },
    {
      "channel": 0,
      "note": 98,
      "start": 133.804,
      "duration": 0.1089,
      "velocity": 114,
      "chip": "ym2612"
    },
    {
      "channel": 1,
      "note": 59,
      "start": 133.8041,
      "duration": 0.2178,
      "velocity": 93,
      "chip": "ym2612"
    },
    {
      "channel": 3,
      "note": 69,
      "start": 133.8044,
      "duration": 0.1089,
      "velocity": 94,
      "chip": "ym2612"
    },
    {
      "channel": 0,
      "note": 54,
      "start": 133.9129,
      "duration": 0.0309,
      "velocity": 114,
      "chip": "ym2612"
    },
    {
      "channel": 3,
      "note": 74,
      "start": 133.9132,
      "duration": 0.109,
      "velocity": 94,
      "chip": "ym2612"
    },
    {
      "channel": 5,
      "note": 76,
      "start": 133.9134,
      "duration": 0.109,
      "velocity": 94,
      "chip": "ym2612"
    },
    {
      "channel": 0,
      "note": 98,
      "start": 134.0219,
      "duration": 0.0309,
      "velocity": 114,
      "chip": "ym2612"
    },
    {
      "channel": 1,
      "note": 59,
      "start": 134.022,
      "duration": 0.2179,
      "velocity": 93,
      "chip": "ym2612"
    },
    {
      "channel": 5,
      "note": 78,
      "start": 134.0224,
      "duration": 0.1089,
      "velocity": 94,
      "chip": "ym2612"
    },
    {
      "channel": 0,
      "note": 98,
      "start": 134.1308,
      "duration": 0.0309,
      "velocity": 114,
      "chip": "ym2612"
    },
    {
      "channel": 3,
      "note": 76,
      "start": 134.1311,
      "duration": 0.109,
      "velocity": 94,
      "chip": "ym2612"
    },
    {
      "channel": 5,
      "note": 81,
      "start": 134.1313,
      "duration": 0.1092,
      "velocity": 94,
      "chip": "ym2612"
    },
    {
      "channel": 0,
      "note": 98,
      "start": 134.2398,
      "duration": 0.0153,
      "velocity": 127,
      "chip": "ym2612"
    },
    {
      "channel": 1,
      "note": 59,
      "start": 134.2399,
      "duration": 0.2178,
      "velocity": 93,
      "chip": "ym2612"
    },
    {
      "channel": 3,
      "note": 81,
      "start": 134.2401,
      "duration": 0.1089,
      "velocity": 94,
      "chip": "ym2612"
    },
    {
      "channel": 5,
      "note": 69,
      "start": 134.2405,
      "duration": 0.1087,
      "velocity": 94,
      "chip": "ym2612"
    },
    {
      "channel": 0,
      "note": 76,
      "start": 134.2551,
      "duration": 0.0936,
      "velocity": 114,
      "chip": "ym2612"
    },
    {
      "channel": 0,
      "note": 68,
      "start": 134.3487,
      "duration": 0.0309,
      "velocity": 114,
      "chip": "ym2612"
    },
    {
      "channel": 3,
      "note": 69,
      "start": 134.349,
      "duration": 0.109,
      "velocity": 94,
      "chip": "ym2612"
    },
    {
      "channel": 5,
      "note": 74,
      "start": 134.3492,
      "duration": 0.109,
      "velocity": 94,
      "chip": "ym2612"
    },
    {
      "channel": 0,
      "note": 98,
      "start": 134.4576,
      "duration": 0.0309,
      "velocity": 114,
      "chip": "ym2612"
    },
    {
      "channel": 1,
      "note": 59,
      "start": 134.4578,
      "duration": 0.2179,
      "velocity": 93,
      "chip": "ym2612"
    },
    {
      "channel": 3,
      "note": 81,
      "start": 134.458,
      "duration": 0.1089,
      "velocity": 94,
      "chip": "ym2612"
    },
    {
      "channel": 0,
      "note": 98,
      "start": 134.5666,
      "duration": 0.0309,
      "velocity": 114,
      "chip": "ym2612"
    },
    {
      "channel": 3,
      "note": 71,
      "start": 134.5668,
      "duration": 0.109,
      "velocity": 94,
      "chip": "ym2612"
    },
    {
      "channel": 5,
      "note": 76,
      "start": 134.5671,
      "duration": 0.109,
      "velocity": 94,
      "chip": "ym2612"
    },
    {
      "channel": 0,
      "note": 98,
      "start": 134.6755,
      "duration": 0.1089,
      "velocity": 127,
      "chip": "ym2612"
    },
    {
      "channel": 1,
      "note": 59,
      "start": 134.6757,
      "duration": 0.2178,
      "velocity": 93,
      "chip": "ym2612"
    },
    {
      "channel": 3,
      "note": 74,
      "start": 134.6759,
      "duration": 0.1089,
      "velocity": 94,
      "chip": "ym2612"
    },
    {
      "channel": 5,
      "note": 81,
      "start": 134.6761,
      "duration": 0.1088,
      "velocity": 94,
      "chip": "ym2612"
    },
    {
      "channel": 0,
      "note": 54,
      "start": 134.7845,
      "duration": 0.0154,
      "velocity": 127,
      "chip": "ym2612"
    },
    {
      "channel": 5,
      "note": 69,
      "start": 134.785,
      "duration": 0.109,
      "velocity": 94,
      "chip": "ym2612"
    },
    {
      "channel": 0,
      "note": 76,
      "start": 134.7998,
      "duration": 0.0936,
      "velocity": 114,
      "chip": "ym2612"
    },
    {
      "channel": 0,
      "note": 68,
      "start": 134.8934,
      "duration": 0.0309,
      "velocity": 114,
      "chip": "ym2612"
    },
    {
      "channel": 1,
      "note": 59,
      "start": 134.8935,
      "duration": 0.2179,
      "velocity": 93,
      "chip": "ym2612"
    },
    {
      "channel": 3,
      "note": 76,
      "start": 134.8937,
      "duration": 0.1089,
      "velocity": 94,
      "chip": "ym2612"
    },
    {
      "channel": 5,
      "note": 81,
      "start": 134.894,
      "duration": 0.1089,
      "velocity": 94,
      "chip": "ym2612"
    },
    {
      "channel": 0,
      "note": 98,
      "start": 135.0024,
      "duration": 0.0309,
      "velocity": 114,
      "chip": "ym2612"
    },
    {
      "channel": 5,
      "note": 71,
      "start": 135.0028,
      "duration": 0.1092,
      "velocity": 94,
      "chip": "ym2612"
    },
    {
      "channel": 0,
      "note": 98,
      "start": 135.1113,
      "duration": 0.1089,
      "velocity": 114,
      "chip": "ym2612"
    },
    {
      "channel": 1,
      "note": 59,
      "start": 135.1115,
      "duration": 0.2178,
      "velocity": 93,
      "chip": "ym2612"
    },
    {
      "channel": 2,
      "note": 47,
      "start": 135.1116,
      "duration": 3.0503,
      "velocity": 121,
      "chip": "ym2612"
    },
    {
      "channel": 3,
      "note": 78,
      "start": 135.1117,
      "duration": 0.1088,
      "velocity": 94,
      "chip": "ym2612"
    },
    {
      "channel": 5,
      "note": 74,
      "start": 135.112,
      "duration": 0.1087,
      "velocity": 94,
      "chip": "ym2612"
    },
    {
      "channel": 0,
      "note": 54,
      "start": 135.2202,
      "duration": 0.0309,
      "velocity": 114,
      "chip": "ym2612"
    },
    {
      "channel": 3,
      "note": 81,
      "start": 135.2205,
      "duration": 0.109,
      "velocity": 94,
      "chip": "ym2612"
    },
    {
      "channel": 4,
      "note": 47,
      "start": 135.2982,
      "duration": 3.0504,
      "velocity": 121,
      "chip": "ym2612"
    },
    {
      "channel": 0,
      "note": 98,
      "start": 135.3292,
      "duration": 0.0309,
      "velocity": 114,
      "chip": "ym2612"
    },
    {
      "channel": 1,
      "note": 55,
      "start": 135.3293,
      "duration": 0.2179,
      "velocity": 93,
      "chip": "ym2612"
    },
    {
      "channel": 3,
      "note": 69,
      "start": 135.3295,
      "duration": 0.1089,
      "velocity": 94,
      "chip": "ym2612"
    },
    {
      "channel": 5,
      "note": 76,
      "start": 135.3297,
      "duration": 0.1089,
      "velocity": 94,
      "chip": "ym2612"
    },
    {
      "channel": 0,
      "note": 98,
      "start": 135.4381,
      "duration": 0.0309,
      "velocity": 114,
      "chip": "ym2612"
    },
    {
      "channel": 3,
      "note": 74,
      "start": 135.4384,
      "duration": 0.109,
      "velocity": 94,
      "chip": "ym2612"
    },
    {
      "channel": 5,
      "note": 78,
      "start": 135.4387,
      "duration": 0.1089,
      "velocity": 94,
      "chip": "ym2612"
    },
    {
      "channel": 0,
      "note": 98,
      "start": 135.5471,
      "duration": 0.0154,
      "velocity": 127,
      "chip": "ym2612"
    },
    {
      "channel": 1,
      "note": 55,
      "start": 135.5472,
      "duration": 0.2178,
      "velocity": 93,
      "chip": "ym2612"
    },
    {
      "channel": 5,
      "note": 81,
      "start": 135.5476,
      "duration": 0.1089,
      "velocity": 94,
      "chip": "ym2612"
    },
    {
      "channel": 0,
      "note": 76,
      "start": 135.5624,
      "duration": 0.0936,
      "velocity": 114,
      "chip": "ym2612"
    },
    {
      "channel": 0,
      "note": 68,
      "start": 135.656,
      "duration": 0.0309,
      "velocity": 114,
      "chip": "ym2612"
    },
    {
      "channel": 3,
      "note": 76,
      "start": 135.6563,
      "duration": 0.109,
      "velocity": 94,
      "chip": "ym2612"
    },
    {
      "channel": 5,
      "note": 69,
      "start": 135.6565,
      "duration": 0.109,
      "velocity": 94,
      "chip": "ym2612"
    },
    {
      "channel": 0,
      "note": 98,
      "start": 135.7649,
      "duration": 0.0309,
      "velocity": 114,
      "chip": "ym2612"
    },
    {
      "channel": 1,
      "note": 55,
      "start": 135.7651,
      "duration": 0.2179,
      "velocity": 93,
      "chip": "ym2612"
    },
    {
      "channel": 3,
      "note": 81,
      "start": 135.7653,
      "duration": 0.109,
      "velocity": 94,
      "chip": "ym2612"
    },
    {
      "channel": 5,
      "note": 74,
      "start": 135.7655,
      "duration": 0.109,
      "velocity": 94,
      "chip": "ym2612"
    },
    {
      "channel": 0,
      "note": 98,
      "start": 135.8741,
      "duration": 0.0307,
      "velocity": 114,
      "chip": "ym2612"
    },
    {
      "channel": 3,
      "note": 69,
      "start": 135.8743,
      "duration": 0.1088,
      "velocity": 94,
      "chip": "ym2612"
    },
    {
      "channel": 0,
      "note": 98,
      "start": 135.9829,
      "duration": 0.1089,
      "velocity": 114,
      "chip": "ym2612"
    },
    {
      "channel": 1,
      "note": 55,
      "start": 135.983,
      "duration": 0.2178,
      "velocity": 93,
      "chip": "ym2612"
    },
    {
      "channel": 3,
      "note": 81,
      "start": 135.9832,
      "duration": 0.1089,
      "velocity": 94,
      "chip": "ym2612"
    },
    {
      "channel": 5,
      "note": 76,
      "start": 135.9834,
      "duration": 0.1089,
      "velocity": 94,
      "chip": "ym2612"
    },
    {
      "channel": 0,
      "note": 54,
      "start": 136.0918,
      "duration": 0.0309,
      "velocity": 114,
      "chip": "ym2612"
    },
    {
      "channel": 3,
      "note": 71,
      "start": 136.0921,
      "duration": 0.109,
      "velocity": 94,
      "chip": "ym2612"
    },
    {
      "channel": 5,
      "note": 81,
      "start": 136.0923,
      "duration": 0.109,
      "velocity": 94,
      "chip": "ym2612"
    },
    {
      "channel": 0,
      "note": 98,
      "start": 136.2007,
      "duration": 0.0309,
      "velocity": 114,
      "chip": "ym2612"
    },
    {
      "channel": 1,
      "note": 55,
      "start": 136.2008,
      "duration": 0.2179,
      "velocity": 93,
      "chip": "ym2612"
    },
    {
      "channel": 3,
      "note": 74,
      "start": 136.201,
      "duration": 0.1089,
      "velocity": 94,
      "chip": "ym2612"
    },
    {
      "channel": 5,
      "note": 69,
      "start": 136.2013,
      "duration": 0.1089,
      "velocity": 94,
      "chip": "ym2612"
    },
    {
      "channel": 0,
      "note": 98,
      "start": 136.3097,
      "duration": 0.0309,
      "velocity": 114,
      "chip": "ym2612"
    },
    {
      "channel": 5,
      "note": 81,
      "start": 136.3101,
      "duration": 0.109,
      "velocity": 94,
      "chip": "ym2612"
    },
    {
      "channel": 0,
      "note": 98,
      "start": 136.4186,
      "duration": 0.0154,
      "velocity": 127,
      "chip": "ym2612"
    },
    {
      "channel": 1,
      "note": 55,
      "start": 136.4187,
      "duration": 0.2178,
      "velocity": 93,
      "chip": "ym2612"
    },
    {
      "channel": 3,
      "note": 76,
      "start": 136.4189,
      "duration": 0.1089,
      "velocity": 94,
      "chip": "ym2612"
    },
    {
      "channel": 5,
      "note": 71,
      "start": 136.4192,
      "duration": 0.1089,
      "velocity": 94,
      "chip": "ym2612"
    },
    {
      "channel": 0,
      "note": 76,
      "start": 136.4339,
      "duration": 0.0936,
      "velocity": 114,
      "chip": "ym2612"
    },
    {
      "channel": 0,
      "note": 68,
      "start": 136.5275,
      "duration": 0.0309,
      "velocity": 114,
      "chip": "ym2612"
    },
    {
      "channel": 5,
      "note": 74,
      "start": 136.528,
      "duration": 0.109,
      "velocity": 94,
      "chip": "ym2612"
    },
    {
      "channel": 0,
      "note": 98,
      "start": 136.6365,
      "duration": 0.0309,
      "velocity": 114,
      "chip": "ym2612"
    },
    {
      "channel": 1,
      "note": 55,
      "start": 136.6366,
      "duration": 0.2179,
      "velocity": 93,
      "chip": "ym2612"
    },
    {
      "channel": 3,
      "note": 78,
      "start": 136.6369,
      "duration": 0.1088,
      "velocity": 94,
      "chip": "ym2612"
    },
    {
      "channel": 0,
      "note": 98,
      "start": 136.7454,
      "duration": 0.0309,
      "velocity": 114,
      "chip": "ym2612"
    },
    {
      "channel": 3,
      "note": 81,
      "start": 136.7457,
      "duration": 0.109,
      "velocity": 94,
      "chip": "ym2612"
    },
    {
      "channel": 5,
      "note": 76,
      "start": 136.7459,
      "duration": 0.1091,
      "velocity": 94,
      "chip": "ym2612"
    },
    {
      "channel": 0,
      "note": 98,
      "start": 136.8544,
      "duration": 0.1089,
      "velocity": 114,
      "chip": "ym2612"
    },
    {
      "channel": 1,
      "note": 55,
      "start": 136.8545,
      "duration": 0.2178,
      "velocity": 93,
      "chip": "ym2612"
    },
    {
      "channel": 3,
      "note": 69,
      "start": 136.8547,
      "duration": 0.1089,
      "velocity": 94,
      "chip": "ym2612"
    },
    {
      "channel": 5,
      "note": 78,
      "start": 136.855,
      "duration": 0.1088,
      "velocity": 94,
      "chip": "ym2612"
    },
    {
      "channel": 0,
      "note": 54,
      "start": 136.9633,
      "duration": 0.0309,
      "velocity": 114,
      "chip": "ym2612"
    },
    {
      "channel": 3,
      "note": 74,
      "start": 136.9636,
      "duration": 0.109,
      "velocity": 94,
      "chip": "ym2612"
    },
    {
      "channel": 5,
      "note": 81,
      "start": 136.9638,
      "duration": 0.1089,
      "velocity": 94,
      "chip": "ym2612"
    },
    {
      "channel": 0,
      "note": 98,
      "start": 137.0722,
      "duration": 0.0309,
      "velocity": 114,
      "chip": "ym2612"
    },
    {
      "channel": 1,
      "note": 55,
      "start": 137.0724,
      "duration": 0.2181,
      "velocity": 93,
      "chip": "ym2612"
    },
    {
      "channel": 5,
      "note": 69,
      "start": 137.0728,
      "duration": 0.1089,
      "velocity": 94,
      "chip": "ym2612"
    },
    {
      "channel": 0,
      "note": 98,
      "start": 137.1812,
      "duration": 0.0309,
      "velocity": 114,
      "chip": "ym2612"
    },
    {
      "channel": 3,
      "note": 76,
      "start": 137.1815,
      "duration": 0.1092,
      "velocity": 94,
      "chip": "ym2612"
    },
    {
      "channel": 5,
      "note": 74,
      "start": 137.1817,
      "duration": 0.1092,
      "velocity": 94,
      "chip": "ym2612"
    },
    {
      "channel": 0,
      "note": 98,
      "start": 137.2901,
      "duration": 0.0154,
      "velocity": 127,
      "chip": "ym2612"
    },
    {
      "channel": 1,
      "note": 55,
      "start": 137.2904,
      "duration": 0.2177,
      "velocity": 93,
      "chip": "ym2612"
    },
    {
      "channel": 3,
      "note": 81,
      "start": 137.2906,
      "duration": 0.1087,
      "velocity": 94,
      "chip": "ym2612"
    },
    {
      "channel": 0,
      "note": 76,
      "start": 137.3055,
      "duration": 0.0936,
      "velocity": 114,
      "chip": "ym2612"
    },
    {
      "channel": 0,
      "note": 68,
      "start": 137.3991,
      "duration": 0.0309,
      "velocity": 114,
      "chip": "ym2612"
    },
    {
      "channel": 3,
      "note": 69,
      "start": 137.3994,
      "duration": 0.109,
      "velocity": 94,
      "chip": "ym2612"
    },
    {
      "channel": 5,
      "note": 76,
      "start": 137.3996,
      "duration": 0.109,
      "velocity": 94,
      "chip": "ym2612"
    },
    {
      "channel": 0,
      "note": 98,
      "start": 137.508,
      "duration": 0.0309,
      "velocity": 114,
      "chip": "ym2612"
    },
    {
      "channel": 1,
      "note": 55,
      "start": 137.5081,
      "duration": 0.2179,
      "velocity": 93,
      "chip": "ym2612"
    },
    {
      "channel": 3,
      "note": 81,
      "start": 137.5083,
      "duration": 0.1089,
      "velocity": 94,
      "chip": "ym2612"
    },
    {
      "channel": 5,
      "note": 81,
      "start": 137.5086,
      "duration": 0.1089,
      "velocity": 94,
      "chip": "ym2612"
    },
    {
      "channel": 0,
      "note": 98,
      "start": 137.617,
      "duration": 0.0309,
      "velocity": 114,
      "chip": "ym2612"
    },
    {
      "channel": 3,
      "note": 71,
      "start": 137.6172,
      "duration": 0.109,
      "velocity": 94,
      "chip": "ym2612"
    },
    {
      "channel": 5,
      "note": 69,
      "start": 137.6175,
      "duration": 0.109,
      "velocity": 94,
      "chip": "ym2612"
    },
    {
      "channel": 0,
      "note": 98,
      "start": 137.7259,
      "duration": 0.1089,
      "velocity": 127,
      "chip": "ym2612"
    },
    {
      "channel": 1,
      "note": 55,
      "start": 137.7261,
      "duration": 0.2178,
      "velocity": 93,
      "chip": "ym2612"
    },
    {
      "channel": 3,
      "note": 74,
      "start": 137.7262,
      "duration": 0.1089,
      "velocity": 94,
      "chip": "ym2612"
    },
    {
      "channel": 5,
      "note": 81,
      "start": 137.7265,
      "duration": 0.1088,
      "velocity": 94,
      "chip": "ym2612"
    },
    {
      "channel": 0,
      "note": 54,
      "start": 137.8348,
      "duration": 0.0154,
      "velocity": 127,
      "chip": "ym2612"
    },
    {
      "channel": 5,
      "note": 71,
      "start": 137.8353,
      "duration": 0.109,
      "velocity": 94,
      "chip": "ym2612"
    },
    {
      "channel": 0,
      "note": 76,
      "start": 137.8502,
      "duration": 0.0936,
      "velocity": 114,
      "chip": "ym2612"
    },
    {
      "channel": 0,
      "note": 68,
      "start": 137.9438,
      "duration": 0.0309,
      "velocity": 114,
      "chip": "ym2612"
    },
    {
      "channel": 1,
      "note": 55,
      "start": 137.9439,
      "duration": 0.2179,
      "velocity": 93,
      "chip": "ym2612"
    },
    {
      "channel": 3,
      "note": 76,
      "start": 137.9441,
      "duration": 0.1089,
      "velocity": 94,
      "chip": "ym2612"
    },
    {
      "channel": 5,
      "note": 74,
      "start": 137.9444,
      "duration": 0.1088,
      "velocity": 94,
      "chip": "ym2612"
    },
    {
      "channel": 0,
      "note": 98,
      "start": 138.0527,
      "duration": 0.0309,
      "velocity": 114,
      "chip": "ym2612"
    },
    {
      "channel": 0,
      "note": 98,
      "start": 138.1617,
      "duration": 0.1089,
      "velocity": 114,
      "chip": "ym2612"
    },
    {
      "channel": 1,
      "note": 56,
      "start": 138.1618,
      "duration": 0.2178,
      "velocity": 93,
      "chip": "ym2612"
    },
    {
      "channel": 2,
      "note": 43,
      "start": 138.162,
      "duration": 3.0504,
      "velocity": 121,
      "chip": "ym2612"
    },
    {
      "channel": 3,
      "note": 78,
      "start": 138.1621,
      "duration": 0.1087,
      "velocity": 94,
      "chip": "ym2612"
    },
    {
      "channel": 5,
      "note": 76,
      "start": 138.1624,
      "duration": 0.1088,
      "velocity": 94,
      "chip": "ym2612"
    },
    {
      "channel": 0,
      "note": 54,
      "start": 138.2706,
      "duration": 0.0309,
      "velocity": 114,
      "chip": "ym2612"
    },
    {
      "channel": 3,
      "note": 81,
      "start": 138.2709,
      "duration": 0.109,
      "velocity": 94,
      "chip": "ym2612"
    },
    {
      "channel": 5,
      "note": 78,
      "start": 138.2712,
      "duration": 0.1089,
      "velocity": 94,
      "chip": "ym2612"
    },
    {
      "channel": 4,
      "note": 43,
      "start": 138.3485,
      "duration": 3.0504,
      "velocity": 121,
      "chip": "ym2612"
    },
    {
      "channel": 0,
      "note": 98,
      "start": 138.3795,
      "duration": 0.0309,
      "velocity": 114,
      "chip": "ym2612"
    },
    {
      "channel": 1,
      "note": 64,
      "start": 138.3797,
      "duration": 0.2179,
      "velocity": 93,
      "chip": "ym2612"
    },
    {
      "channel": 3,
      "note": 69,
      "start": 138.3799,
      "duration": 0.1089,
      "velocity": 94,
      "chip": "ym2612"
    },
    {
      "channel": 5,
      "note": 81,
      "start": 138.3801,
      "duration": 0.1089,
      "velocity": 94,
      "chip": "ym2612"
    },
    {
      "channel": 0,
      "note": 98,
      "start": 138.4885,
      "duration": 0.0309,
      "velocity": 114,
      "chip": "ym2612"
    },
    {
      "channel": 3,
      "note": 74,
      "start": 138.4888,
      "duration": 0.109,
      "velocity": 94,
      "chip": "ym2612"
    },
    {
      "channel": 5,
      "note": 69,
      "start": 138.489,
      "duration": 0.109,
      "velocity": 94,
      "chip": "ym2612"
    },
    {
      "channel": 0,
      "note": 98,
      "start": 138.5974,
      "duration": 0.0154,
      "velocity": 127,
      "chip": "ym2612"
    },
    {
      "channel": 1,
      "note": 64,
      "start": 138.5976,
      "duration": 0.2178,
      "velocity": 93,
      "chip": "ym2612"
    },
    {
      "channel": 5,
      "note": 74,
      "start": 138.598,
      "duration": 0.1089,
      "velocity": 94,
      "chip": "ym2612"
    },
    {
      "channel": 0,
      "note": 76,
      "start": 138.6128,
      "duration": 0.0936,
      "velocity": 114,
      "chip": "ym2612"
    },
    {
      "channel": 0,
      "note": 68,
      "start": 138.7064,
      "duration": 0.0309,
      "velocity": 114,
      "chip": "ym2612"
    },
    {
      "channel": 3,
      "note": 76,
      "start": 138.7066,
      "duration": 0.109,
      "velocity": 94,
      "chip": "ym2612"
    },
    {
      "channel": 0,
      "note": 98,
      "start": 138.8153,
      "duration": 0.0309,
      "velocity": 114,
      "chip": "ym2612"
    },
    {
      "channel": 1,
      "note": 64,
      "start": 138.8154,
      "duration": 0.2179,
      "velocity": 93,
      "chip": "ym2612"
    },
    {
      "channel": 3,
      "note": 81,
      "start": 138.8156,
      "duration": 0.1089,
      "velocity": 94,
      "chip": "ym2612"
    },
    {
      "channel": 5,
      "note": 76,
      "start": 138.8159,
      "duration": 0.1089,
      "velocity": 94,
      "chip": "ym2612"
    },
    {
      "channel": 0,
      "note": 98,
      "start": 138.9243,
      "duration": 0.0309,
      "velocity": 114,
      "chip": "ym2612"
    },
    {
      "channel": 3,
      "note": 69,
      "start": 138.9245,
      "duration": 0.109,
      "velocity": 94,
      "chip": "ym2612"
    },
    {
      "channel": 5,
      "note": 81,
      "start": 138.9248,
      "duration": 0.109,
      "velocity": 94,
      "chip": "ym2612"
    },
    {
      "channel": 0,
      "note": 98,
      "start": 139.0332,
      "duration": 0.1089,
      "velocity": 114,
      "chip": "ym2612"
    },
    {
      "channel": 1,
      "note": 64,
      "start": 139.0334,
      "duration": 0.2178,
      "velocity": 93,
      "chip": "ym2612"
    },
    {
      "channel": 3,
      "note": 81,
      "start": 139.0335,
      "duration": 0.1089,
      "velocity": 94,
      "chip": "ym2612"
    },
    {
      "channel": 5,
      "note": 69,
      "start": 139.0338,
      "duration": 0.1089,
      "velocity": 94,
      "chip": "ym2612"
    },
    {
      "channel": 0,
      "note": 54,
      "start": 139.1421,
      "duration": 0.0309,
      "velocity": 114,
      "chip": "ym2612"
    },
    {
      "channel": 3,
      "note": 71,
      "start": 139.1424,
      "duration": 0.109,
      "velocity": 94,
      "chip": "ym2612"
    },
    {
      "channel": 5,
      "note": 81,
      "start": 139.1427,
      "duration": 0.109,
      "velocity": 94,
      "chip": "ym2612"
    },
    {
      "channel": 0,
      "note": 98,
      "start": 139.2511,
      "duration": 0.0309,
      "velocity": 114,
      "chip": "ym2612"
    },
    {
      "channel": 1,
      "note": 64,
      "start": 139.2512,
      "duration": 0.2179,
      "velocity": 93,
      "chip": "ym2612"
    },
    {
      "channel": 3,
      "note": 74,
      "start": 139.2514,
      "duration": 0.1089,
      "velocity": 94,
      "chip": "ym2612"
    },
    {
      "channel": 5,
      "note": 71,
      "start": 139.2516,
      "duration": 0.1089,
      "velocity": 94,
      "chip": "ym2612"
    },
    {
      "channel": 0,
      "note": 98,
      "start": 139.36,
      "duration": 0.0309,
      "velocity": 114,
      "chip": "ym2612"
    },
    {
      "channel": 5,
      "note": 74,
      "start": 139.3605,
      "duration": 0.109,
      "velocity": 94,
      "chip": "ym2612"
    },
    {
      "channel": 0,
      "note": 98,
      "start": 139.469,
      "duration": 0.0154,
      "velocity": 127,
      "chip": "ym2612"
    },
    {
      "channel": 1,
      "note": 64,
      "start": 139.4691,
      "duration": 0.2179,
      "velocity": 93,
      "chip": "ym2612"
    },
    {
      "channel": 3,
      "note": 76,
      "start": 139.4693,
      "duration": 0.1089,
      "velocity": 94,
      "chip": "ym2612"
    },
    {
      "channel": 0,
      "note": 76,
      "start": 139.4843,
      "duration": 0.0936,
      "velocity": 114,
      "chip": "ym2612"
    },
    {
      "channel": 0,
      "note": 68,
      "start": 139.5779,
      "duration": 0.0309,
      "velocity": 114,
      "chip": "ym2612"
    },
    {
      "channel": 5,
      "note": 76,
      "start": 139.5784,
      "duration": 0.1091,
      "velocity": 94,
      "chip": "ym2612"
    },
    {
      "channel": 0,
      "note": 98,
      "start": 139.6868,
      "duration": 0.0309,
      "velocity": 114,
      "chip": "ym2612"
    },
    {
      "channel": 1,
      "note": 64,
      "start": 139.687,
      "duration": 0.2179,
      "velocity": 93,
      "chip": "ym2612"
    },
    {
      "channel": 3,
      "note": 78,
      "start": 139.6872,
      "duration": 0.1088,
      "velocity": 94,
      "chip": "ym2612"
    },
    {
      "channel": 5,
      "note": 78,
      "start": 139.6875,
      "duration": 0.1088,
      "velocity": 94,
      "chip": "ym2612"
    },
    {
      "channel": 0,
      "note": 98,
      "start": 139.7958,
      "duration": 0.0309,
      "velocity": 114,
      "chip": "ym2612"
    },
    {
      "channel": 3,
      "note": 81,
      "start": 139.7961,
      "duration": 0.109,
      "velocity": 94,
      "chip": "ym2612"
    },
    {
      "channel": 5,
      "note": 81,
      "start": 139.7963,
      "duration": 0.109,
      "velocity": 94,
      "chip": "ym2612"
    },
    {
      "channel": 0,
      "note": 98,
      "start": 139.9047,
      "duration": 0.1089,
      "velocity": 114,
      "chip": "ym2612"
    },
    {
      "channel": 1,
      "note": 64,
      "start": 139.9049,
      "duration": 0.2178,
      "velocity": 93,
      "chip": "ym2612"
    },
    {
      "channel": 3,
      "note": 69,
      "start": 139.9051,
      "duration": 0.1089,
      "velocity": 94,
      "chip": "ym2612"
    },
    {
      "channel": 5,
      "note": 69,
      "start": 139.9053,
      "duration": 0.1089,
      "velocity": 94,
      "chip": "ym2612"
    },
    {
      "channel": 0,
      "note": 54,
      "start": 140.0137,
      "duration": 0.0309,
      "velocity": 114,
      "chip": "ym2612"
    },
    {
      "channel": 3,
      "note": 74,
      "start": 140.0139,
      "duration": 0.109,
      "velocity": 94,
      "chip": "ym2612"
    },
    {
      "channel": 5,
      "note": 74,
      "start": 140.0142,
      "duration": 0.1089,
      "velocity": 94,
      "chip": "ym2612"
    },
    {
      "channel": 0,
      "note": 98,
      "start": 140.1226,
      "duration": 0.0309,
      "velocity": 114,
      "chip": "ym2612"
    },
    {
      "channel": 1,
      "note": 64,
      "start": 140.1227,
      "duration": 0.2181,
      "velocity": 93,
      "chip": "ym2612"
    },
    {
      "channel": 0,
      "note": 98,
      "start": 140.2316,
      "duration": 0.0309,
      "velocity": 114,
      "chip": "ym2612"
    },
    {
      "channel": 3,
      "note": 76,
      "start": 140.2318,
      "duration": 0.1092,
      "velocity": 94,
      "chip": "ym2612"
    },
    {
      "channel": 5,
      "note": 76,
      "start": 140.232,
      "duration": 0.1092,
      "velocity": 94,
      "chip": "ym2612"
    },
    {
      "channel": 0,
      "note": 98,
      "start": 140.3407,
      "duration": 0.0152,
      "velocity": 127,
      "chip": "ym2612"
    },
    {
      "channel": 1,
      "note": 64,
      "start": 140.3408,
      "duration": 0.2177,
      "velocity": 93,
      "chip": "ym2612"
    },
    {
      "channel": 3,
      "note": 81,
      "start": 140.341,
      "duration": 0.1087,
      "velocity": 94,
      "chip": "ym2612"
    },
    {
      "channel": 5,
      "note": 81,
      "start": 140.3412,
      "duration": 0.1087,
      "velocity": 94,
      "chip": "ym2612"
    },
    {
      "channel": 0,
      "note": 76,
      "start": 140.3559,
      "duration": 0.0936,
      "velocity": 114,
      "chip": "ym2612"
    },
    {
      "channel": 0,
      "note": 68,
      "start": 140.4494,
      "duration": 0.0309,
      "velocity": 114,
      "chip": "ym2612"
    },
    {
      "channel": 3,
      "note": 69,
      "start": 140.4497,
      "duration": 0.109,
      "velocity": 94,
      "chip": "ym2612"
    },
    {
      "channel": 5,
      "note": 69,
      "start": 140.45,
      "duration": 0.109,
      "velocity": 94,
      "chip": "ym2612"
    },
    {
      "channel": 0,
      "note": 98,
      "start": 140.5584,
      "duration": 0.0309,
      "velocity": 114,
      "chip": "ym2612"
    },
    {
      "channel": 1,
      "note": 64,
      "start": 140.5585,
      "duration": 0.2179,
      "velocity": 93,
      "chip": "ym2612"
    },
    {
      "channel": 3,
      "note": 81,
      "start": 140.5587,
      "duration": 0.1089,
      "velocity": 94,
      "chip": "ym2612"
    },
    {
      "channel": 5,
      "note": 81,
      "start": 140.5589,
      "duration": 0.1089,
      "velocity": 94,
      "chip": "ym2612"
    },
    {
      "channel": 0,
      "note": 98,
      "start": 140.6673,
      "duration": 0.0309,
      "velocity": 114,
      "chip": "ym2612"
    },
    {
      "channel": 3,
      "note": 71,
      "start": 140.6676,
      "duration": 0.109,
      "velocity": 94,
      "chip": "ym2612"
    },
    {
      "channel": 5,
      "note": 71,
      "start": 140.6678,
      "duration": 0.109,
      "velocity": 94,
      "chip": "ym2612"
    },
    {
      "channel": 0,
      "note": 98,
      "start": 140.7763,
      "duration": 0.1089,
      "velocity": 127,
      "chip": "ym2612"
    },
    {
      "channel": 1,
      "note": 64,
      "start": 140.7764,
      "duration": 0.2178,
      "velocity": 93,
      "chip": "ym2612"
    },
    {
      "channel": 3,
      "note": 74,
      "start": 140.7766,
      "duration": 0.1088,
      "velocity": 94,
      "chip": "ym2612"
    },
    {
      "channel": 5,
      "note": 74,
      "start": 140.7768,
      "duration": 0.1088,
      "velocity": 94,
      "chip": "ym2612"
    },
    {
      "channel": 0,
      "note": 54,
      "start": 140.8852,
      "duration": 0.0154,
      "velocity": 127,
      "chip": "ym2612"
    },
    {
      "channel": 0,
      "note": 76,
      "start": 140.9006,
      "duration": 0.0936,
      "velocity": 114,
      "chip": "ym2612"
    },
    {
      "channel": 0,
      "note": 68,
      "start": 140.9941,
      "duration": 0.0309,
      "velocity": 114,
      "chip": "ym2612"
    },
    {
      "channel": 1,
      "note": 64,
      "start": 140.9943,
      "duration": 0.2179,
      "velocity": 93,
      "chip": "ym2612"
    },
    {
      "channel": 3,
      "note": 76,
      "start": 140.9945,
      "duration": 0.1089,
      "velocity": 94,
      "chip": "ym2612"
    },
    {
      "channel": 5,
      "note": 76,
      "start": 140.9947,
      "duration": 0.1089,
      "velocity": 94,
      "chip": "ym2612"
    },
    {
      "channel": 0,
      "note": 98,
      "start": 141.1031,
      "duration": 0.0309,
      "velocity": 114,
      "chip": "ym2612"
    },
    {
      "channel": 5,
      "note": 78,
      "start": 141.1036,
      "duration": 0.1091,
      "velocity": 94,
      "chip": "ym2612"
    },
    {
      "channel": 0,
      "note": 98,
      "start": 141.2121,
      "duration": 0.1089,
      "velocity": 114,
      "chip": "ym2612"
    },
    {
      "channel": 1,
      "note": 64,
      "start": 141.2122,
      "duration": 0.2178,
      "velocity": 93,
      "chip": "ym2612"
    },
    {
      "channel": 2,
      "note": 52,
      "start": 141.2123,
      "duration": 3.0504,
      "velocity": 121,
      "chip": "ym2612"
    },
    {
      "channel": 3,
      "note": 78,
      "start": 141.2125,
      "duration": 0.1087,
      "velocity": 94,
      "chip": "ym2612"
    },
    {
      "channel": 5,
      "note": 81,
      "start": 141.2127,
      "duration": 0.1088,
      "velocity": 94,
      "chip": "ym2612"
    },
    {
      "channel": 0,
      "note": 54,
      "start": 141.321,
      "duration": 0.0309,
      "velocity": 114,
      "chip": "ym2612"
    },
    {
      "channel": 3,
      "note": 81,
      "start": 141.3212,
      "duration": 0.109,
      "velocity": 94,
      "chip": "ym2612"
    },
    {
      "channel": 5,
      "note": 69,
      "start": 141.3215,
      "duration": 0.109,
      "velocity": 94,
      "chip": "ym2612"
    },
    {
      "channel": 4,
      "note": 52,
      "start": 141.3989,
      "duration": 3.0504,
      "velocity": 121,
      "chip": "ym2612"
    },
    {
      "channel": 0,
      "note": 98,
      "start": 141.4299,
      "duration": 0.0309,
      "velocity": 114,
      "chip": "ym2612"
    },
    {
      "channel": 1,
      "note": 62,
      "start": 141.43,
      "duration": 0.2179,
      "velocity": 93,
      "chip": "ym2612"
    },
    {
      "channel": 3,
      "note": 69,
      "start": 141.4302,
      "duration": 0.1089,
      "velocity": 94,
      "chip": "ym2612"
    },
    {
      "channel": 5,
      "note": 74,
      "start": 141.4305,
      "duration": 0.1089,
      "velocity": 94,
      "chip": "ym2612"
    },
    {
      "channel": 0,
      "note": 98,
      "start": 141.5389,
      "duration": 0.0309,
      "velocity": 114,
      "chip": "ym2612"
    },
    {
      "channel": 3,
      "note": 74,
      "start": 141.5391,
      "duration": 0.109,
      "velocity": 94,
      "chip": "ym2612"
    },
    {
      "channel": 0,
      "note": 98,
      "start": 141.6478,
      "duration": 0.0154,
      "velocity": 127,
      "chip": "ym2612"
    },
    {
      "channel": 1,
      "note": 62,
      "start": 141.6479,
      "duration": 0.2178,
      "velocity": 93,
      "chip": "ym2612"
    },
    {
      "channel": 5,
      "note": 76,
      "start": 141.6483,
      "duration": 0.1091,
      "velocity": 94,
      "chip": "ym2612"
    },
    {
      "channel": 0,
      "note": 76,
      "start": 141.6632,
      "duration": 0.0936,
      "velocity": 114,
      "chip": "ym2612"
    },
    {
      "channel": 0,
      "note": 68,
      "start": 141.7567,
      "duration": 0.0309,
      "velocity": 114,
      "chip": "ym2612"
    },
    {
      "channel": 3,
      "note": 76,
      "start": 141.7572,
      "duration": 0.1088,
      "velocity": 94,
      "chip": "ym2612"
    },
    {
      "channel": 5,
      "note": 81,
      "start": 141.7574,
      "duration": 0.1088,
      "velocity": 94,
      "chip": "ym2612"
    },
    {
      "channel": 0,
      "note": 98,
      "start": 141.8657,
      "duration": 0.0309,
      "velocity": 114,
      "chip": "ym2612"
    },
    {
      "channel": 1,
      "note": 62,
      "start": 141.8658,
      "duration": 0.2179,
      "velocity": 93,
      "chip": "ym2612"
    },
    {
      "channel": 3,
      "note": 81,
      "start": 141.866,
      "duration": 0.1089,
      "velocity": 94,
      "chip": "ym2612"
    },
    {
      "channel": 5,
      "note": 69,
      "start": 141.8662,
      "duration": 0.1089,
      "velocity": 94,
      "chip": "ym2612"
    },
    {
      "channel": 0,
      "note": 98,
      "start": 141.9746,
      "duration": 0.0309,
      "velocity": 114,
      "chip": "ym2612"
    },
    {
      "channel": 3,
      "note": 69,
      "start": 141.9749,
      "duration": 0.109,
      "velocity": 94,
      "chip": "ym2612"
    },
    {
      "channel": 5,
      "note": 81,
      "start": 141.9751,
      "duration": 0.109,
      "velocity": 94,
      "chip": "ym2612"
    },
    {
      "channel": 0,
      "note": 98,
      "start": 142.0836,
      "duration": 0.1089,
      "velocity": 114,
      "chip": "ym2612"
    },
    {
      "channel": 1,
      "note": 62,
      "start": 142.0837,
      "duration": 0.2178,
      "velocity": 93,
      "chip": "ym2612"
    },
    {
      "channel": 3,
      "note": 81,
      "start": 142.0839,
      "duration": 0.1089,
      "velocity": 94,
      "chip": "ym2612"
    },
    {
      "channel": 5,
      "note": 71,
      "start": 142.0841,
      "duration": 0.1089,
      "velocity": 94,
      "chip": "ym2612"
    },
    {
      "channel": 0,
      "note": 54,
      "start": 142.1925,
      "duration": 0.0309,
      "velocity": 114,
      "chip": "ym2612"
    },
    {
      "channel": 3,
      "note": 71,
      "start": 142.1928,
      "duration": 0.109,
      "velocity": 94,
      "chip": "ym2612"
    },
    {
      "channel": 5,
      "note": 74,
      "start": 142.193,
      "duration": 0.109,
      "velocity": 94,
      "chip": "ym2612"
    },
    {
      "channel": 0,
      "note": 98,
      "start": 142.3015,
      "duration": 0.0309,
      "velocity": 114,
      "chip": "ym2612"
    },
    {
      "channel": 1,
      "note": 62,
      "start": 142.3016,
      "duration": 0.2179,
      "velocity": 93,
      "chip": "ym2612"
    },
    {
      "channel": 3,
      "note": 74,
      "start": 142.3018,
      "duration": 0.1089,
      "velocity": 94,
      "chip": "ym2612"
    },
    {
      "channel": 0,
      "note": 98,
      "start": 142.4104,
      "duration": 0.0309,
      "velocity": 114,
      "chip": "ym2612"
    },
    {
      "channel": 5,
      "note": 76,
      "start": 142.4109,
      "duration": 0.1091,
      "velocity": 94,
      "chip": "ym2612"
    },
    {
      "channel": 0,
      "note": 98,
      "start": 142.5193,
      "duration": 0.0154,
      "velocity": 127,
      "chip": "ym2612"
    },
    {
      "channel": 1,
      "note": 62,
      "start": 142.5195,
      "duration": 0.2178,
      "velocity": 93,
      "chip": "ym2612"
    },
    {
      "channel": 3,
      "note": 76,
      "start": 142.5197,
      "duration": 0.1089,
      "velocity": 94,
      "chip": "ym2612"
    },
    {
      "channel": 5,
      "note": 78,
      "start": 142.5199,
      "duration": 0.1088,
      "velocity": 94,
      "chip": "ym2612"
    },
    {
      "channel": 0,
      "note": 76,
      "start": 142.5347,
      "duration": 0.0936,
      "velocity": 114,
      "chip": "ym2612"
    },
    {
      "channel": 0,
      "note": 68,
      "start": 142.6283,
      "duration": 0.0309,
      "velocity": 114,
      "chip": "ym2612"
    },
    {
      "channel": 5,
      "note": 81,
      "start": 142.6288,
      "duration": 0.109,
      "velocity": 94,
      "chip": "ym2612"
    },
    {
      "channel": 0,
      "note": 98,
      "start": 142.7372,
      "duration": 0.0309,
      "velocity": 114,
      "chip": "ym2612"
    },
    {
      "channel": 1,
      "note": 62,
      "start": 142.7373,
      "duration": 0.2179,
      "velocity": 93,
      "chip": "ym2612"
    },
    {
      "channel": 3,
      "note": 78,
      "start": 142.7376,
      "duration": 0.1088,
      "velocity": 94,
      "chip": "ym2612"
    },
    {
      "channel": 5,
      "note": 69,
      "start": 142.7378,
      "duration": 0.1088,
      "velocity": 94,
      "chip": "ym2612"
    },
    {
      "channel": 0,
      "note": 98,
      "start": 142.8462,
      "duration": 0.0309,
      "velocity": 114,
      "chip": "ym2612"
    },
    {
      "channel": 3,
      "note": 81,
      "start": 142.8464,
      "duration": 0.109,
      "velocity": 94,
      "chip": "ym2612"
    },
    {
      "channel": 5,
      "note": 74,
      "start": 142.8467,
      "duration": 0.109,
      "velocity": 94,
      "chip": "ym2612"
    },
    {
      "channel": 0,
      "note": 98,
      "start": 142.9551,
      "duration": 0.1089,
      "velocity": 114,
      "chip": "ym2612"
    },
    {
      "channel": 1,
      "note": 62,
      "start": 142.9553,
      "duration": 0.2178,
      "velocity": 93,
      "chip": "ym2612"
    },
    {
      "channel": 3,
      "note": 69,
      "start": 142.9554,
      "duration": 0.1089,
      "velocity": 94,
      "chip": "ym2612"
    },
    {
      "channel": 0,
      "note": 54,
      "start": 143.064,
      "duration": 0.0309,
      "velocity": 114,
      "chip": "ym2612"
    },
    {
      "channel": 3,
      "note": 74,
      "start": 143.0643,
      "duration": 0.1089,
      "velocity": 94,
      "chip": "ym2612"
    },
    {
      "channel": 5,
      "note": 76,
      "start": 143.0646,
      "duration": 0.1089,
      "velocity": 94,
      "chip": "ym2612"
    },
    {
      "channel": 0,
      "note": 98,
      "start": 143.173,
      "duration": 0.0309,
      "velocity": 114,
      "chip": "ym2612"
    },
    {
      "channel": 1,
      "note": 62,
      "start": 143.1731,
      "duration": 0.2179,
      "velocity": 93,
      "chip": "ym2612"
    },
    {
      "channel": 5,
      "note": 81,
      "start": 143.1735,
      "duration": 0.1089,
      "velocity": 94,
      "chip": "ym2612"
    },
    {
      "channel": 0,
      "note": 98,
      "start": 143.2819,
      "duration": 0.0309,
      "velocity": 114,
      "chip": "ym2612"
    },
    {
      "channel": 3,
      "note": 76,
      "start": 143.2822,
      "duration": 0.109,
      "velocity": 94,
      "chip": "ym2612"
    },
    {
      "channel": 5,
      "note": 69,
      "start": 143.2824,
      "duration": 0.109,
      "velocity": 94,
      "chip": "ym2612"
    },
    {
      "channel": 0,
      "note": 98,
      "start": 143.3909,
      "duration": 0.0154,
      "velocity": 127,
      "chip": "ym2612"
    },
    {
      "channel": 1,
      "note": 62,
      "start": 143.391,
      "duration": 0.2178,
      "velocity": 93,
      "chip": "ym2612"
    },
    {
      "channel": 3,
      "note": 81,
      "start": 143.3912,
      "duration": 0.1089,
      "velocity": 94,
      "chip": "ym2612"
    },
    {
      "channel": 5,
      "note": 81,
      "start": 143.3914,
      "duration": 0.1089,
      "velocity": 94,
      "chip": "ym2612"
    },
    {
      "channel": 0,
      "note": 76,
      "start": 143.4062,
      "duration": 0.0936,
      "velocity": 114,
      "chip": "ym2612"
    },
    {
      "channel": 0,
      "note": 68,
      "start": 143.4998,
      "duration": 0.0309,
      "velocity": 114,
      "chip": "ym2612"
    },
    {
      "channel": 3,
      "note": 69,
      "start": 143.5001,
      "duration": 0.109,
      "velocity": 94,
      "chip": "ym2612"
    },
    {
      "channel": 5,
      "note": 71,
      "start": 143.5003,
      "duration": 0.109,
      "velocity": 94,
      "chip": "ym2612"
    },
    {
      "channel": 0,
      "note": 98,
      "start": 143.6088,
      "duration": 0.0309,
      "velocity": 114,
      "chip": "ym2612"
    },
    {
      "channel": 1,
      "note": 62,
      "start": 143.6089,
      "duration": 0.2179,
      "velocity": 93,
      "chip": "ym2612"
    },
    {
      "channel": 3,
      "note": 81,
      "start": 143.6091,
      "duration": 0.1089,
      "velocity": 94,
      "chip": "ym2612"
    },
    {
      "channel": 5,
      "note": 74,
      "start": 143.6093,
      "duration": 0.1089,
      "velocity": 94,
      "chip": "ym2612"
    },
    {
      "channel": 0,
      "note": 98,
      "start": 143.7177,
      "duration": 0.0309,
      "velocity": 114,
      "chip": "ym2612"
    },
    {
      "channel": 3,
      "note": 71,
      "start": 143.718,
      "duration": 0.109,
      "velocity": 94,
      "chip": "ym2612"
    },
    {
      "channel": 0,
      "note": 98,
      "start": 143.8266,
      "duration": 0.1089,
      "velocity": 127,
      "chip": "ym2612"
    },
    {
      "channel": 1,
      "note": 62,
      "start": 143.8268,
      "duration": 0.2178,
      "velocity": 93,
      "chip": "ym2612"
    },
    {
      "channel": 3,
      "note": 74,
      "start": 143.827,
      "duration": 0.1089,
      "velocity": 94,
      "chip": "ym2612"
    },
    {
      "channel": 5,
      "note": 76,
      "start": 143.8272,
      "duration": 0.1089,
      "velocity": 94,
      "chip": "ym2612"
    },
    {
      "channel": 0,
      "note": 54,
      "start": 143.9356,
      "duration": 0.0154,
      "velocity": 127,
      "chip": "ym2612"
    },
    {
      "channel": 5,
      "note": 78,
      "start": 143.9361,
      "duration": 0.1089,
      "velocity": 94,
      "chip": "ym2612"
    },
    {
      "channel": 0,
      "note": 76,
      "start": 143.9509,
      "duration": 0.0936,
      "velocity": 114,
      "chip": "ym2612"
    },
    {
      "channel": 0,
      "note": 68,
      "start": 144.0445,
      "duration": 0.0309,
      "velocity": 114,
      "chip": "ym2612"
    },
    {
      "channel": 1,
      "note": 62,
      "start": 144.0446,
      "duration": 0.2179,
      "velocity": 93,
      "chip": "ym2612"
    },
    {
      "channel": 3,
      "note": 76,
      "start": 144.0448,
      "duration": 0.1089,
      "velocity": 94,
      "chip": "ym2612"
    },
    {
      "channel": 5,
      "note": 81,
      "start": 144.0451,
      "duration": 0.1088,
      "velocity": 94,
      "chip": "ym2612"
    },
    {
      "channel": 0,
      "note": 98,
      "start": 144.1535,
      "duration": 0.0309,
      "velocity": 114,
      "chip": "ym2612"
    },
    {
      "channel": 5,
      "note": 69,
      "start": 144.1539,
      "duration": 0.1091,
      "velocity": 94,
      "chip": "ym2612"
    },
    {
      "channel": 0,
      "note": 98,
      "start": 144.2624,
      "duration": 0.1089,
      "velocity": 114,
      "chip": "ym2612"
    },
    {
      "channel": 1,
      "note": 62,
      "start": 144.2626,
      "duration": 0.2178,
      "velocity": 93,
      "chip": "ym2612"
    },
    {
      "channel": 2,
      "note": 50,
      "start": 144.2627,
      "duration": 3.0504,
      "velocity": 121,
      "chip": "ym2612"
    },
    {
      "channel": 3,
      "note": 78,
      "start": 144.2629,
      "duration": 0.1087,
      "velocity": 94,
      "chip": "ym2612"
    },
    {
      "channel": 5,
      "note": 74,
      "start": 144.2631,
      "duration": 0.1087,
      "velocity": 94,
      "chip": "ym2612"
    },
    {
      "channel": 0,
      "note": 54,
      "start": 144.3713,
      "duration": 0.0309,
      "velocity": 114,
      "chip": "ym2612"
    },
    {
      "channel": 3,
      "note": 81,
      "start": 144.3716,
      "duration": 0.109,
      "velocity": 94,
      "chip": "ym2612"
    },
    {
      "channel": 4,
      "note": 50,
      "start": 144.4493,
      "duration": 3.0503,
      "velocity": 121,
      "chip": "ym2612"
    },
    {
      "channel": 0,
      "note": 98,
      "start": 144.4803,
      "duration": 0.0309,
      "velocity": 114,
      "chip": "ym2612"
    },
    {
      "channel": 1,
      "note": 59,
      "start": 144.4804,
      "duration": 0.2179,
      "velocity": 93,
      "chip": "ym2612"
    },
    {
      "channel": 3,
      "note": 69,
      "start": 144.4806,
      "duration": 0.1089,
      "velocity": 94,
      "chip": "ym2612"
    },
    {
      "channel": 5,
      "note": 76,
      "start": 144.4808,
      "duration": 0.1089,
      "velocity": 94,
      "chip": "ym2612"
    },
    {
      "channel": 0,
      "note": 98,
      "start": 144.5892,
      "duration": 0.0309,
      "velocity": 114,
      "chip": "ym2612"
    },
    {
      "channel": 3,
      "note": 74,
      "start": 144.5895,
      "duration": 0.109,
      "velocity": 94,
      "chip": "ym2612"
    },
    {
      "channel": 5,
      "note": 81,
      "start": 144.5897,
      "duration": 0.109,
      "velocity": 94,
      "chip": "ym2612"
    },
    {
      "channel": 0,
      "note": 98,
      "start": 144.6982,
      "duration": 0.0154,
      "velocity": 127,
      "chip": "ym2612"
    },
    {
      "channel": 1,
      "note": 59,
      "start": 144.6983,
      "duration": 0.2178,
      "velocity": 93,
      "chip": "ym2612"
    },
    {
      "channel": 5,
      "note": 69,
      "start": 144.6987,
      "duration": 0.1091,
      "velocity": 94,
      "chip": "ym2612"
    },
    {
      "channel": 0,
      "note": 76,
      "start": 144.7135,
      "duration": 0.0937,
      "velocity": 114,
      "chip": "ym2612"
    },
    {
      "channel": 0,
      "note": 68,
      "start": 144.8073,
      "duration": 0.0307,
      "velocity": 114,
      "chip": "ym2612"
    },
    {
      "channel": 3,
      "note": 76,
      "start": 144.8076,
      "duration": 0.1088,
      "velocity": 94,
      "chip": "ym2612"
    },
    {
      "channel": 5,
      "note": 81,
      "start": 144.8078,
      "duration": 0.1088,
      "velocity": 94,
      "chip": "ym2612"
    },
    {
      "channel": 0,
      "note": 98,
      "start": 144.9161,
      "duration": 0.0309,
      "velocity": 114,
      "chip": "ym2612"
    },
    {
      "channel": 1,
      "note": 59,
      "start": 144.9162,
      "duration": 0.2179,
      "velocity": 93,
      "chip": "ym2612"
    },
    {
      "channel": 3,
      "note": 81,
      "start": 144.9164,
      "duration": 0.1089,
      "velocity": 94,
      "chip": "ym2612"
    },
    {
      "channel": 5,
      "note": 71,
      "start": 144.9166,
      "duration": 0.1089,
      "velocity": 94,
      "chip": "ym2612"
    },
    {
      "channel": 0,
      "note": 98,
      "start": 145.025,
      "duration": 0.0309,
      "velocity": 114,
      "chip": "ym2612"
    },
    {
      "channel": 3,
      "note": 69,
      "start": 145.0253,
      "duration": 0.109,
      "velocity": 94,
      "chip": "ym2612"
    },
    {
      "channel": 5,
      "note": 74,
      "start": 145.0255,
      "duration": 0.109,
      "velocity": 94,
      "chip": "ym2612"
    },
    {
      "channel": 0,
      "note": 98,
      "start": 145.1339,
      "duration": 0.1089,
      "velocity": 114,
      "chip": "ym2612"
    },
    {
      "channel": 1,
      "note": 59,
      "start": 145.1341,
      "duration": 0.2178,
      "velocity": 93,
      "chip": "ym2612"
    },
    {
      "channel": 3,
      "note": 81,
      "start": 145.1343,
      "duration": 0.1089,
      "velocity": 94,
      "chip": "ym2612"
    },
    {
      "channel": 0,
      "note": 54,
      "start": 145.2429,
      "duration": 0.031,
      "velocity": 114,
      "chip": "ym2612"
    },
    {
      "channel": 3,
      "note": 71,
      "start": 145.2432,
      "duration": 0.109,
      "velocity": 94,
      "chip": "ym2612"
    },
    {
      "channel": 5,
      "note": 76,
      "start": 145.2434,
      "duration": 0.109,
      "velocity": 94,
      "chip": "ym2612"
    },
    {
      "channel": 0,
      "note": 98,
      "start": 145.3518,
      "duration": 0.0309,
      "velocity": 114,
      "chip": "ym2612"
    },
    {
      "channel": 1,
      "note": 59,
      "start": 145.3519,
      "duration": 0.2179,
      "velocity": 93,
      "chip": "ym2612"
    },
    {
      "channel": 3,
      "note": 74,
      "start": 145.3521,
      "duration": 0.1089,
      "velocity": 94,
      "chip": "ym2612"
    },
    {
      "channel": 5,
      "note": 78,
      "start": 145.3524,
      "duration": 0.1088,
      "velocity": 94,
      "chip": "ym2612"
    },
    {
      "channel": 0,
      "note": 98,
      "start": 145.4608,
      "duration": 0.0309,
      "velocity": 114,
      "chip": "ym2612"
    },
    {
      "channel": 5,
      "note": 81,
      "start": 145.4612,
      "duration": 0.109,
      "velocity": 94,
      "chip": "ym2612"
    },
    {
      "channel": 0,
      "note": 98,
      "start": 145.5697,
      "duration": 0.0154,
      "velocity": 127,
      "chip": "ym2612"
    },
    {
      "channel": 1,
      "note": 59,
      "start": 145.5698,
      "duration": 0.2178,
      "velocity": 93,
      "chip": "ym2612"
    },
    {
      "channel": 3,
      "note": 76,
      "start": 145.57,
      "duration": 0.1089,
      "velocity": 94,
      "chip": "ym2612"
    },
    {
      "channel": 5,
      "note": 69,
      "start": 145.5702,
      "duration": 0.1089,
      "velocity": 94,
      "chip": "ym2612"
    },
    {
      "channel": 0,
      "note": 76,
      "start": 145.5851,
      "duration": 0.0936,
      "velocity": 114,
      "chip": "ym2612"
    },
    {
      "channel": 0,
      "note": 68,
      "start": 145.6786,
      "duration": 0.0309,
      "velocity": 114,
      "chip": "ym2612"
    },
    {
      "channel": 5,
      "note": 74,
      "start": 145.6791,
      "duration": 0.109,
      "velocity": 94,
      "chip": "ym2612"
    },
    {
      "channel": 0,
      "note": 98,
      "start": 145.7876,
      "duration": 0.0309,
      "velocity": 114,
      "chip": "ym2612"
    },
    {
      "channel": 1,
      "note": 59,
      "start": 145.7877,
      "duration": 0.2179,
      "velocity": 93,
      "chip": "ym2612"
    },
    {
      "channel": 3,
      "note": 78,
      "start": 145.788,
      "duration": 0.1088,
      "velocity": 94,
      "chip": "ym2612"
    },
    {
      "channel": 0,
      "note": 98,
      "start": 145.8965,
      "duration": 0.0309,
      "velocity": 114,
      "chip": "ym2612"
    },
    {
      "channel": 3,
      "note": 81,
      "start": 145.8968,
      "duration": 0.109,
      "velocity": 94,
      "chip": "ym2612"
    },
    {
      "channel": 5,
      "note": 76,
      "start": 145.897,
      "duration": 0.109,
      "velocity": 94,
      "chip": "ym2612"
    },
    {
      "channel": 0,
      "note": 98,
      "start": 146.0055,
      "duration": 0.1089,
      "velocity": 114,
      "chip": "ym2612"
    },
    {
      "channel": 1,
      "note": 59,
      "start": 146.0056,
      "duration": 0.2178,
      "velocity": 93,
      "chip": "ym2612"
    },
    {
      "channel": 3,
      "note": 69,
      "start": 146.0058,
      "duration": 0.1088,
      "velocity": 94,
      "chip": "ym2612"
    },
    {
      "channel": 5,
      "note": 81,
      "start": 146.0061,
      "duration": 0.1089,
      "velocity": 94,
      "chip": "ym2612"
    },
    {
      "channel": 0,
      "note": 54,
      "start": 146.1144,
      "duration": 0.0309,
      "velocity": 114,
      "chip": "ym2612"
    },
    {
      "channel": 3,
      "note": 74,
      "start": 146.1147,
      "duration": 0.1091,
      "velocity": 94,
      "chip": "ym2612"
    },
    {
      "channel": 5,
      "note": 69,
      "start": 146.1149,
      "duration": 0.1091,
      "velocity": 94,
      "chip": "ym2612"
    },
    {
      "channel": 0,
      "note": 98,
      "start": 146.2234,
      "duration": 0.0309,
      "velocity": 114,
      "chip": "ym2612"
    },
    {
      "channel": 1,
      "note": 59,
      "start": 146.2235,
      "duration": 0.2179,
      "velocity": 93,
      "chip": "ym2612"
    },
    {
      "channel": 5,
      "note": 81,
      "start": 146.224,
      "duration": 0.1087,
      "velocity": 94,
      "chip": "ym2612"
    },
    {
      "channel": 0,
      "note": 98,
      "start": 146.3323,
      "duration": 0.0309,
      "velocity": 114,
      "chip": "ym2612"
    },
    {
      "channel": 3,
      "note": 76,
      "start": 146.3325,
      "duration": 0.109,
      "velocity": 94,
      "chip": "ym2612"
    },
    {
      "channel": 5,
      "note": 71,
      "start": 146.3328,
      "duration": 0.109,
      "velocity": 94,
      "chip": "ym2612"
    },
    {
      "channel": 0,
      "note": 98,
      "start": 146.4412,
      "duration": 0.0154,
      "velocity": 127,
      "chip": "ym2612"
    },
    {
      "channel": 1,
      "note": 59,
      "start": 146.4414,
      "duration": 0.2179,
      "velocity": 93,
      "chip": "ym2612"
    },
    {
      "channel": 3,
      "note": 81,
      "start": 146.4416,
      "duration": 0.1089,
      "velocity": 94,
      "chip": "ym2612"
    },
    {
      "channel": 5,
      "note": 74,
      "start": 146.4418,
      "duration": 0.1089,
      "velocity": 94,
      "chip": "ym2612"
    },
    {
      "channel": 0,
      "note": 76,
      "start": 146.4566,
      "duration": 0.0936,
      "velocity": 114,
      "chip": "ym2612"
    },
    {
      "channel": 0,
      "note": 68,
      "start": 146.5502,
      "duration": 0.0309,
      "velocity": 114,
      "chip": "ym2612"
    },
    {
      "channel": 3,
      "note": 69,
      "start": 146.5505,
      "duration": 0.109,
      "velocity": 94,
      "chip": "ym2612"
    },
    {
      "channel": 0,
      "note": 98,
      "start": 146.6591,
      "duration": 0.0309,
      "velocity": 114,
      "chip": "ym2612"
    },
    {
      "channel": 1,
      "note": 59,
      "start": 146.6592,
      "duration": 0.2179,
      "velocity": 93,
      "chip": "ym2612"
    },
    {
      "channel": 3,
      "note": 81,
      "start": 146.6594,
      "duration": 0.1089,
      "velocity": 94,
      "chip": "ym2612"
    },
    {
      "channel": 5,
      "note": 76,
      "start": 146.6597,
      "duration": 0.1089,
      "velocity": 94,
      "chip": "ym2612"
    },
    {
      "channel": 0,
      "note": 98,
      "start": 146.768,
      "duration": 0.0309,
      "velocity": 114,
      "chip": "ym2612"
    },
    {
      "channel": 3,
      "note": 71,
      "start": 146.7683,
      "duration": 0.109,
      "velocity": 94,
      "chip": "ym2612"
    },
    {
      "channel": 5,
      "note": 78,
      "start": 146.7686,
      "duration": 0.109,
      "velocity": 94,
      "chip": "ym2612"
    },
    {
      "channel": 0,
      "note": 98,
      "start": 146.877,
      "duration": 0.1089,
      "velocity": 127,
      "chip": "ym2612"
    },
    {
      "channel": 1,
      "note": 59,
      "start": 146.8771,
      "duration": 0.2179,
      "velocity": 93,
      "chip": "ym2612"
    },
    {
      "channel": 3,
      "note": 74,
      "start": 146.8773,
      "duration": 0.1089,
      "velocity": 94,
      "chip": "ym2612"
    },
    {
      "channel": 5,
      "note": 81,
      "start": 146.8776,
      "duration": 0.1088,
      "velocity": 94,
      "chip": "ym2612"
    },
    {
      "channel": 0,
      "note": 54,
      "start": 146.9859,
      "duration": 0.0154,
      "velocity": 127,
      "chip": "ym2612"
    },
    {
      "channel": 5,
      "note": 69,
      "start": 146.9864,
      "duration": 0.109,
      "velocity": 94,
      "chip": "ym2612"
    },
    {
      "channel": 0,
      "note": 76,
      "start": 147.0013,
      "duration": 0.0936,
      "velocity": 114,
      "chip": "ym2612"
    },
    {
      "channel": 0,
      "note": 68,
      "start": 147.0949,
      "duration": 0.0309,
      "velocity": 114,
      "chip": "ym2612"
    },
    {
      "channel": 1,
      "note": 59,
      "start": 147.095,
      "duration": 0.2179,
      "velocity": 93,
      "chip": "ym2612"
    },
    {
      "channel": 3,
      "note": 76,
      "start": 147.0952,
      "duration": 0.1089,
      "velocity": 94,
      "chip": "ym2612"
    },
    {
      "channel": 5,
      "note": 74,
      "start": 147.0954,
      "duration": 0.1088,
      "velocity": 94,
      "chip": "ym2612"
    },
    {
      "channel": 0,
      "note": 98,
      "start": 147.2038,
      "duration": 0.0309,
      "velocity": 114,
      "chip": "ym2612"
    },
    {
      "channel": 0,
      "note": 98,
      "start": 147.3128,
      "duration": 0.1089,
      "velocity": 114,
      "chip": "ym2612"
    },
    {
      "channel": 1,
      "note": 59,
      "start": 147.3129,
      "duration": 0.2178,
      "velocity": 93,
      "chip": "ym2612"
    },
    {
      "channel": 2,
      "note": 47,
      "start": 147.313,
      "duration": 3.0504,
      "velocity": 121,
      "chip": "ym2612"
    },
    {
      "channel": 3,
      "note": 78,
      "start": 147.3132,
      "duration": 0.1088,
      "velocity": 94,
      "chip": "ym2612"
    },
    {
      "channel": 5,
      "note": 76,
      "start": 147.3134,
      "duration": 0.1088,
      "velocity": 94,
      "chip": "ym2612"
    },
    {
      "channel": 0,
      "note": 54,
      "start": 147.4217,
      "duration": 0.0309,
      "velocity": 114,
      "chip": "ym2612"
    },
    {
      "channel": 3,
      "note": 81,
      "start": 147.422,
      "duration": 0.109,
      "velocity": 94,
      "chip": "ym2612"
    },
    {
      "channel": 5,
      "note": 81,
      "start": 147.4222,
      "duration": 0.109,
      "velocity": 94,
      "chip": "ym2612"
    },
    {
      "channel": 4,
      "note": 47,
      "start": 147.4996,
      "duration": 3.0504,
      "velocity": 121,
      "chip": "ym2612"
    },
    {
      "channel": 0,
      "note": 98,
      "start": 147.5307,
      "duration": 0.0309,
      "velocity": 114,
      "chip": "ym2612"
    },
    {
      "channel": 1,
      "note": 64,
      "start": 147.5308,
      "duration": 0.2179,
      "velocity": 93,
      "chip": "ym2612"
    },
    {
      "channel": 3,
      "note": 69,
      "start": 147.531,
      "duration": 0.1089,
      "velocity": 94,
      "chip": "ym2612"
    },
    {
      "channel": 5,
      "note": 69,
      "start": 147.5312,
      "duration": 0.1089,
      "velocity": 94,
      "chip": "ym2612"
    },
    {
      "channel": 0,
      "note": 98,
      "start": 147.6396,
      "duration": 0.0309,
      "velocity": 114,
      "chip": "ym2612"
    },
    {
      "channel": 3,
      "note": 74,
      "start": 147.6399,
      "duration": 0.109,
      "velocity": 94,
      "chip": "ym2612"
    },
    {
      "channel": 5,
      "note": 81,
      "start": 147.6401,
      "duration": 0.109,
      "velocity": 94,
      "chip": "ym2612"
    },
    {
      "channel": 0,
      "note": 98,
      "start": 147.7485,
      "duration": 0.0154,
      "velocity": 127,
      "chip": "ym2612"
    },
    {
      "channel": 1,
      "note": 64,
      "start": 147.7487,
      "duration": 0.2179,
      "velocity": 93,
      "chip": "ym2612"
    },
    {
      "channel": 5,
      "note": 71,
      "start": 147.7491,
      "duration": 0.1089,
      "velocity": 94,
      "chip": "ym2612"
    },
    {
      "channel": 0,
      "note": 76,
      "start": 147.7639,
      "duration": 0.0936,
      "velocity": 114,
      "chip": "ym2612"
    },
    {
      "channel": 0,
      "note": 68,
      "start": 147.8575,
      "duration": 0.0309,
      "velocity": 114,
      "chip": "ym2612"
    },
    {
      "channel": 3,
      "note": 76,
      "start": 147.8578,
      "duration": 0.109,
      "velocity": 94,
      "chip": "ym2612"
    },
    {
      "channel": 5,
      "note": 74,
      "start": 147.858,
      "duration": 0.109,
      "velocity": 94,
      "chip": "ym2612"
    },
    {
      "channel": 0,
      "note": 98,
      "start": 147.9664,
      "duration": 0.0309,
      "velocity": 114,
      "chip": "ym2612"
    },
    {
      "channel": 1,
      "note": 64,
      "start": 147.9665,
      "duration": 0.2179,
      "velocity": 93,
      "chip": "ym2612"
    },
    {
      "channel": 3,
      "note": 81,
      "start": 147.9667,
      "duration": 0.1089,
      "velocity": 94,
      "chip": "ym2612"
    },
    {
      "channel": 0,
      "note": 98,
      "start": 148.0754,
      "duration": 0.0309,
      "velocity": 114,
      "chip": "ym2612"
    },
    {
      "channel": 3,
      "note": 69,
      "start": 148.0756,
      "duration": 0.109,
      "velocity": 94,
      "chip": "ym2612"
    },
    {
      "channel": 5,
      "note": 76,
      "start": 148.0759,
      "duration": 0.1091,
      "velocity": 94,
      "chip": "ym2612"
    },
    {
      "channel": 0,
      "note": 98,
      "start": 148.1843,
      "duration": 0.1089,
      "velocity": 114,
      "chip": "ym2612"
    },
    {
      "channel": 1,
      "note": 64,
      "start": 148.1844,
      "duration": 0.2178,
      "velocity": 93,
      "chip": "ym2612"
    },
    {
      "channel": 3,
      "note": 81,
      "start": 148.1846,
      "duration": 0.1089,
      "velocity": 94,
      "chip": "ym2612"
    },
    {
      "channel": 5,
      "note": 78,
      "start": 148.1849,
      "duration": 0.1088,
      "velocity": 94,
      "chip": "ym2612"
    },
    {
      "channel": 0,
      "note": 54,
      "start": 148.2932,
      "duration": 0.0309,
      "velocity": 114,
      "chip": "ym2612"
    },
    {
      "channel": 3,
      "note": 71,
      "start": 148.2935,
      "duration": 0.109,
      "velocity": 94,
      "chip": "ym2612"
    },
    {
      "channel": 5,
      "note": 81,
      "start": 148.2938,
      "duration": 0.109,
      "velocity": 94,
      "chip": "ym2612"
    },
    {
      "channel": 0,
      "note": 98,
      "start": 148.4022,
      "duration": 0.0309,
      "velocity": 114,
      "chip": "ym2612"
    },
    {
      "channel": 1,
      "note": 64,
      "start": 148.4023,
      "duration": 0.2179,
      "velocity": 93,
      "chip": "ym2612"
    },
    {
      "channel": 3,
      "note": 74,
      "start": 148.4025,
      "duration": 0.1089,
      "velocity": 94,
      "chip": "ym2612"
    },
    {
      "channel": 5,
      "note": 69,
      "start": 148.4027,
      "duration": 0.1088,
      "velocity": 94,
      "chip": "ym2612"
    },
    {
      "channel": 0,
      "note": 98,
      "start": 148.5111,
      "duration": 0.0309,
      "velocity": 114,
      "chip": "ym2612"
    },
    {
      "channel": 5,
      "note": 74,
      "start": 148.5116,
      "duration": 0.109,
      "velocity": 94,
      "chip": "ym2612"
    },
    {
      "channel": 0,
      "note": 98,
      "start": 148.6201,
      "duration": 0.0154,
      "velocity": 127,
      "chip": "ym2612"
    },
    {
      "channel": 1,
      "note": 64,
      "start": 148.6202,
      "duration": 0.2178,
      "velocity": 93,
      "chip": "ym2612"
    },
    {
      "channel": 3,
      "note": 76,
      "start": 148.6204,
      "duration": 0.1089,
      "velocity": 94,
      "chip": "ym2612"
    },
    {
      "channel": 0,
      "note": 76,
      "start": 148.6354,
      "duration": 0.0936,
      "velocity": 114,
      "chip": "ym2612"
    },
    {
      "channel": 0,
      "note": 68,
      "start": 148.729,
      "duration": 0.0309,
      "velocity": 114,
      "chip": "ym2612"
    },
    {
      "channel": 5,
      "note": 76,
      "start": 148.7295,
      "duration": 0.1091,
      "velocity": 94,
      "chip": "ym2612"
    },
    {
      "channel": 0,
      "note": 98,
      "start": 148.838,
      "duration": 0.0309,
      "velocity": 114,
      "chip": "ym2612"
    },
    {
      "channel": 1,
      "note": 64,
      "start": 148.8381,
      "duration": 0.2179,
      "velocity": 93,
      "chip": "ym2612"
    },
    {
      "channel": 3,
      "note": 78,
      "start": 148.8383,
      "duration": 0.1088,
      "velocity": 94,
      "chip": "ym2612"
    },
    {
      "channel": 5,
      "note": 81,
      "start": 148.8386,
      "duration": 0.1088,
      "velocity": 94,
      "chip": "ym2612"
    },
    {
      "channel": 0,
      "note": 98,
      "start": 148.9469,
      "duration": 0.0309,
      "velocity": 114,
      "chip": "ym2612"
    },
    {
      "channel": 3,
      "note": 81,
      "start": 148.9472,
      "duration": 0.109,
      "velocity": 94,
      "chip": "ym2612"
    },
    {
      "channel": 5,
      "note": 69,
      "start": 148.9474,
      "duration": 0.109,
      "velocity": 94,
      "chip": "ym2612"
    },
    {
      "channel": 0,
      "note": 98,
      "start": 149.0559,
      "duration": 0.1089,
      "velocity": 114,
      "chip": "ym2612"
    },
    {
      "channel": 1,
      "note": 64,
      "start": 149.056,
      "duration": 0.218,
      "velocity": 93,
      "chip": "ym2612"
    },
    {
      "channel": 3,
      "note": 69,
      "start": 149.0562,
      "duration": 0.1089,
      "velocity": 94,
      "chip": "ym2612"
    },
    {
      "channel": 5,
      "note": 81,
      "start": 149.0564,
      "duration": 0.1089,
      "velocity": 94,
      "chip": "ym2612"
    },
    {
      "channel": 0,
      "note": 54,
      "start": 149.1648,
      "duration": 0.0309,
      "velocity": 114,
      "chip": "ym2612"
    },
    {
      "channel": 3,
      "note": 74,
      "start": 149.1651,
      "duration": 0.1091,
      "velocity": 94,
      "chip": "ym2612"
    },
    {
      "channel": 5,
      "note": 71,
      "start": 149.1653,
      "duration": 0.1091,
      "velocity": 94,
      "chip": "ym2612"
    },
    {
      "channel": 0,
      "note": 98,
      "start": 149.2739,
      "duration": 0.0307,
      "velocity": 114,
      "chip": "ym2612"
    },
    {
      "channel": 1,
      "note": 64,
      "start": 149.274,
      "duration": 0.2177,
      "velocity": 93,
      "chip": "ym2612"
    },
    {
      "channel": 5,
      "note": 74,
      "start": 149.2744,
      "duration": 0.1087,
      "velocity": 94,
      "chip": "ym2612"
    },
    {
      "channel": 0,
      "note": 98,
      "start": 149.3827,
      "duration": 0.0309,
      "velocity": 114,
      "chip": "ym2612"
    },
    {
      "channel": 3,
      "note": 76,
      "start": 149.3829,
      "duration": 0.109,
      "velocity": 94,
      "chip": "ym2612"
    },
    {
      "channel": 0,
      "note": 98,
      "start": 149.4916,
      "duration": 0.0155,
      "velocity": 127,
      "chip": "ym2612"
    },
    {
      "channel": 1,
      "note": 64,
      "start": 149.4917,
      "duration": 0.2179,
      "velocity": 93,
      "chip": "ym2612"
    },
    {
      "channel": 3,
      "note": 81,
      "start": 149.4919,
      "duration": 0.1089,
      "velocity": 94,
      "chip": "ym2612"
    },
    {
      "channel": 5,
      "note": 76,
      "start": 149.4922,
      "duration": 0.109,
      "velocity": 94,
      "chip": "ym2612"
    },
    {
      "channel": 0,
      "note": 76,
      "start": 149.5071,
      "duration": 0.0934,
      "velocity": 114,
      "chip": "ym2612"
    },
    {
      "channel": 0,
      "note": 68,
      "start": 149.6005,
      "duration": 0.0309,
      "velocity": 114,
      "chip": "ym2612"
    },
    {
      "channel": 3,
      "note": 69,
      "start": 149.6008,
      "duration": 0.109,
      "velocity": 94,
      "chip": "ym2612"
    },
    {
      "channel": 5,
      "note": 78,
      "start": 149.6011,
      "duration": 0.1089,
      "velocity": 94,
      "chip": "ym2612"
    },
    {
      "channel": 0,
      "note": 98,
      "start": 149.7095,
      "duration": 0.031,
      "velocity": 114,
      "chip": "ym2612"
    },
    {
      "channel": 1,
      "note": 64,
      "start": 149.7096,
      "duration": 0.2179,
      "velocity": 93,
      "chip": "ym2612"
    },
    {
      "channel": 3,
      "note": 81,
      "start": 149.7098,
      "duration": 0.1089,
      "velocity": 94,
      "chip": "ym2612"
    },
    {
      "channel": 5,
      "note": 81,
      "start": 149.71,
      "duration": 0.1089,
      "velocity": 94,
      "chip": "ym2612"
    },
    {
      "channel": 0,
      "note": 98,
      "start": 149.8184,
      "duration": 0.0309,
      "velocity": 114,
      "chip": "ym2612"
    },
    {
      "channel": 3,
      "note": 71,
      "start": 149.8187,
      "duration": 0.109,
      "velocity": 94,
      "chip": "ym2612"
    },
    {
      "channel": 5,
      "note": 69,
      "start": 149.8189,
      "duration": 0.109,
      "velocity": 94,
      "chip": "ym2612"
    },
    {
      "channel": 0,
      "note": 98,
      "start": 149.9274,
      "duration": 0.1089,
      "velocity": 127,
      "chip": "ym2612"
    },
    {
      "channel": 1,
      "note": 64,
      "start": 149.9275,
      "duration": 0.2179,
      "velocity": 93,
      "chip": "ym2612"
    },
    {
      "channel": 3,
      "note": 74,
      "start": 149.9277,
      "duration": 0.1089,
      "velocity": 94,
      "chip": "ym2612"
    },
    {
      "channel": 5,
      "note": 74,
      "start": 149.928,
      "duration": 0.1088,
      "velocity": 94,
      "chip": "ym2612"
    },
    {
      "channel": 0,
      "note": 54,
      "start": 150.0363,
      "duration": 0.0154,
      "velocity": 127,
      "chip": "ym2612"
    },
    {
      "channel": 0,
      "note": 76,
      "start": 150.0517,
      "duration": 0.0936,
      "velocity": 114,
      "chip": "ym2612"
    },
    {
      "channel": 0,
      "note": 68,
      "start": 150.1452,
      "duration": 0.0309,
      "velocity": 114,
      "chip": "ym2612"
    },
    {
      "channel": 1,
      "note": 64,
      "start": 150.1454,
      "duration": 0.2179,
      "velocity": 93,
      "chip": "ym2612"
    },
    {
      "channel": 3,
      "note": 76,
      "start": 150.1456,
      "duration": 0.1089,
      "velocity": 94,
      "chip": "ym2612"
    },
    {
      "channel": 5,
      "note": 76,
      "start": 150.1458,
      "duration": 0.1089,
      "velocity": 94,
      "chip": "ym2612"
    },
    {
      "channel": 0,
      "note": 98,
      "start": 150.2542,
      "duration": 0.0309,
      "velocity": 114,
      "chip": "ym2612"
    },
    {
      "channel": 5,
      "note": 81,
      "start": 150.2547,
      "duration": 0.1092,
      "velocity": 94,
      "chip": "ym2612"
    },
    {
      "channel": 0,
      "note": 98,
      "start": 150.3632,
      "duration": 0.1089,
      "velocity": 114,
      "chip": "ym2612"
    },
    {
      "channel": 1,
      "note": 64,
      "start": 150.3633,
      "duration": 0.2178,
      "velocity": 93,
      "chip": "ym2612"
    },
    {
      "channel": 2,
      "note": 52,
      "start": 150.3634,
      "duration": 3.0504,
      "velocity": 121,
      "chip": "ym2612"
    },
    {
      "channel": 3,
      "note": 78,
      "start": 150.3636,
      "duration": 0.1088,
      "velocity": 94,
      "chip": "ym2612"
    },
    {
      "channel": 5,
      "note": 69,
      "start": 150.3638,
      "duration": 0.1087,
      "velocity": 94,
      "chip": "ym2612"
    },
    {
      "channel": 0,
      "note": 54,
      "start": 150.4721,
      "duration": 0.0309,
      "velocity": 114,
      "chip": "ym2612"
    },
    {
      "channel": 3,
      "note": 81,
      "start": 150.4723,
      "duration": 0.109,
      "velocity": 94,
      "chip": "ym2612"
    },
    {
      "channel": 5,
      "note": 81,
      "start": 150.4726,
      "duration": 0.109,
      "velocity": 94,
      "chip": "ym2612"
    },
    {
      "channel": 4,
      "note": 52,
      "start": 150.55,
      "duration": 3.0504,
      "velocity": 121,
      "chip": "ym2612"
    },
    {
      "channel": 0,
      "note": 98,
      "start": 150.581,
      "duration": 0.0309,
      "velocity": 114,
      "chip": "ym2612"
    },
    {
      "channel": 1,
      "note": 67,
      "start": 150.5811,
      "duration": 0.2179,
      "velocity": 93,
      "chip": "ym2612"
    },
    {
      "channel": 3,
      "note": 69,
      "start": 150.5813,
      "duration": 0.1089,
      "velocity": 94,
      "chip": "ym2612"
    },
    {
      "channel": 5,
      "note": 71,
      "start": 150.5815,
      "duration": 0.1091,
      "velocity": 94,
      "chip": "ym2612"
    },
    {
      "channel": 0,
      "note": 98,
      "start": 150.69,
      "duration": 0.0309,
      "velocity": 114,
      "chip": "ym2612"
    },
    {
      "channel": 3,
      "note": 74,
      "start": 150.6902,
      "duration": 0.109,
      "velocity": 94,
      "chip": "ym2612"
    },
    {
      "channel": 5,
      "note": 74,
      "start": 150.6906,
      "duration": 0.1088,
      "velocity": 94,
      "chip": "ym2612"
    },
    {
      "channel": 0,
      "note": 98,
      "start": 150.7989,
      "duration": 0.0154,
      "velocity": 127,
      "chip": "ym2612"
    },
    {
      "channel": 1,
      "note": 67,
      "start": 150.799,
      "duration": 0.2179,
      "velocity": 93,
      "chip": "ym2612"
    },
    {
      "channel": 0,
      "note": 76,
      "start": 150.8143,
      "duration": 0.0936,
      "velocity": 114,
      "chip": "ym2612"
    },
    {
      "channel": 0,
      "note": 68,
      "start": 150.9078,
      "duration": 0.0309,
      "velocity": 114,
      "chip": "ym2612"
    },
    {
      "channel": 3,
      "note": 76,
      "start": 150.9081,
      "duration": 0.109,
      "velocity": 94,
      "chip": "ym2612"
    },
    {
      "channel": 5,
      "note": 76,
      "start": 150.9083,
      "duration": 0.109,
      "velocity": 94,
      "chip": "ym2612"
    },
    {
      "channel": 0,
      "note": 98,
      "start": 151.0168,
      "duration": 0.0309,
      "velocity": 114,
      "chip": "ym2612"
    },
    {
      "channel": 1,
      "note": 67,
      "start": 151.0169,
      "duration": 0.2179,
      "velocity": 93,
      "chip": "ym2612"
    },
    {
      "channel": 3,
      "note": 81,
      "start": 151.0171,
      "duration": 0.1089,
      "velocity": 94,
      "chip": "ym2612"
    },
    {
      "channel": 5,
      "note": 78,
      "start": 151.0174,
      "duration": 0.1088,
      "velocity": 94,
      "chip": "ym2612"
    },
    {
      "channel": 0,
      "note": 98,
      "start": 151.1257,
      "duration": 0.0309,
      "velocity": 114,
      "chip": "ym2612"
    },
    {
      "channel": 3,
      "note": 69,
      "start": 151.126,
      "duration": 0.109,
      "velocity": 94,
      "chip": "ym2612"
    },
    {
      "channel": 5,
      "note": 81,
      "start": 151.1262,
      "duration": 0.109,
      "velocity": 94,
      "chip": "ym2612"
    },
    {
      "channel": 0,
      "note": 98,
      "start": 151.2347,
      "duration": 0.1089,
      "velocity": 114,
      "chip": "ym2612"
    },
    {
      "channel": 1,
      "note": 67,
      "start": 151.2348,
      "duration": 0.2178,
      "velocity": 93,
      "chip": "ym2612"
    },
    {
      "channel": 3,
      "note": 81,
      "start": 151.235,
      "duration": 0.1089,
      "velocity": 94,
      "chip": "ym2612"
    },
    {
      "channel": 5,
      "note": 69,
      "start": 151.2353,
      "duration": 0.1089,
      "velocity": 94,
      "chip": "ym2612"
    },
    {
      "channel": 0,
      "note": 54,
      "start": 151.3436,
      "duration": 0.0309,
      "velocity": 114,
      "chip": "ym2612"
    },
    {
      "channel": 3,
      "note": 71,
      "start": 151.3439,
      "duration": 0.109,
      "velocity": 94,
      "chip": "ym2612"
    },
    {
      "channel": 5,
      "note": 74,
      "start": 151.3441,
      "duration": 0.109,
      "velocity": 94,
      "chip": "ym2612"
    },
    {
      "channel": 0,
      "note": 98,
      "start": 151.4526,
      "duration": 0.0309,
      "velocity": 114,
      "chip": "ym2612"
    },
    {
      "channel": 1,
      "note": 67,
      "start": 151.4527,
      "duration": 0.2179,
      "velocity": 93,
      "chip": "ym2612"
    },
    {
      "channel": 3,
      "note": 74,
      "start": 151.4529,
      "duration": 0.1089,
      "velocity": 94,
      "chip": "ym2612"
    },
    {
      "channel": 0,
      "note": 98,
      "start": 151.5615,
      "duration": 0.0309,
      "velocity": 114,
      "chip": "ym2612"
    },
    {
      "channel": 5,
      "note": 76,
      "start": 151.562,
      "duration": 0.109,
      "velocity": 94,
      "chip": "ym2612"
    },
    {
      "channel": 0,
      "note": 98,
      "start": 151.6704,
      "duration": 0.0154,
      "velocity": 127,
      "chip": "ym2612"
    },
    {
      "channel": 1,
      "note": 67,
      "start": 151.6706,
      "duration": 0.2178,
      "velocity": 93,
      "chip": "ym2612"
    },
    {
      "channel": 3,
      "note": 76,
      "start": 151.6707,
      "duration": 0.1089,
      "velocity": 94,
      "chip": "ym2612"
    },
    {
      "channel": 5,
      "note": 81,
      "start": 151.671,
      "duration": 0.1089,
      "velocity": 94,
      "chip": "ym2612"
    },
    {
      "channel": 0,
      "note": 76,
      "start": 151.6858,
      "duration": 0.0936,
      "velocity": 114,
      "chip": "ym2612"
    },
    {
      "channel": 0,
      "note": 68,
      "start": 151.7794,
      "duration": 0.0309,
      "velocity": 114,
      "chip": "ym2612"
    },
    {
      "channel": 5,
      "note": 69,
      "start": 151.7799,
      "duration": 0.1091,
      "velocity": 94,
      "chip": "ym2612"
    },
    {
      "channel": 0,
      "note": 98,
      "start": 151.8883,
      "duration": 0.0309,
      "velocity": 114,
      "chip": "ym2612"
    },
    {
      "channel": 1,
      "note": 67,
      "start": 151.8884,
      "duration": 0.2179,
      "velocity": 93,
      "chip": "ym2612"
    },
    {
      "channel": 3,
      "note": 78,
      "start": 151.8887,
      "duration": 0.1088,
      "velocity": 94,
      "chip": "ym2612"
    },
    {
      "channel": 5,
      "note": 81,
      "start": 151.8889,
      "duration": 0.1088,
      "velocity": 94,
      "chip": "ym2612"
    },
    {
      "channel": 0,
      "note": 98,
      "start": 151.9973,
      "duration": 0.0309,
      "velocity": 114,
      "chip": "ym2612"
    },
    {
      "channel": 3,
      "note": 81,
      "start": 151.9975,
      "duration": 0.109,
      "velocity": 94,
      "chip": "ym2612"
    },
    {
      "channel": 5,
      "note": 71,
      "start": 151.9978,
      "duration": 0.109,
      "velocity": 94,
      "chip": "ym2612"
    },
    {
      "channel": 0,
      "note": 98,
      "start": 152.1062,
      "duration": 0.1089,
      "velocity": 114,
      "chip": "ym2612"
    },
    {
      "channel": 1,
      "note": 67,
      "start": 152.1063,
      "duration": 0.2178,
      "velocity": 93,
      "chip": "ym2612"
    },
    {
      "channel": 3,
      "note": 69,
      "start": 152.1066,
      "duration": 0.1089,
      "velocity": 94,
      "chip": "ym2612"
    },
    {
      "channel": 5,
      "note": 74,
      "start": 152.1068,
      "duration": 0.1089,
      "velocity": 94,
      "chip": "ym2612"
    },
    {
      "channel": 0,
      "note": 54,
      "start": 152.2151,
      "duration": 0.0309,
      "velocity": 114,
      "chip": "ym2612"
    },
    {
      "channel": 3,
      "note": 74,
      "start": 152.2154,
      "duration": 0.109,
      "velocity": 94,
      "chip": "ym2612"
    },
    {
      "channel": 0,
      "note": 98,
      "start": 152.3241,
      "duration": 0.0309,
      "velocity": 114,
      "chip": "ym2612"
    },
    {
      "channel": 1,
      "note": 67,
      "start": 152.3242,
      "duration": 0.2179,
      "velocity": 93,
      "chip": "ym2612"
    },
    {
      "channel": 5,
      "note": 76,
      "start": 152.3246,
      "duration": 0.109,
      "velocity": 94,
      "chip": "ym2612"
    },
    {
      "channel": 0,
      "note": 98,
      "start": 152.433,
      "duration": 0.0309,
      "velocity": 114,
      "chip": "ym2612"
    },
    {
      "channel": 3,
      "note": 76,
      "start": 152.4333,
      "duration": 0.109,
      "velocity": 94,
      "chip": "ym2612"
    },
    {
      "channel": 5,
      "note": 78,
      "start": 152.4336,
      "duration": 0.109,
      "velocity": 94,
      "chip": "ym2612"
    },
    {
      "channel": 0,
      "note": 98,
      "start": 152.542,
      "duration": 0.0154,
      "velocity": 127,
      "chip": "ym2612"
    },
    {
      "channel": 1,
      "note": 67,
      "start": 152.5421,
      "duration": 0.2178,
      "velocity": 93,
      "chip": "ym2612"
    },
    {
      "channel": 3,
      "note": 81,
      "start": 152.5423,
      "duration": 0.1089,
      "velocity": 94,
      "chip": "ym2612"
    },
    {
      "channel": 5,
      "note": 81,
      "start": 152.5425,
      "duration": 0.1089,
      "velocity": 94,
      "chip": "ym2612"
    },
    {
      "channel": 0,
      "note": 76,
      "start": 152.5573,
      "duration": 0.0936,
      "velocity": 114,
      "chip": "ym2612"
    },
    {
      "channel": 0,
      "note": 68,
      "start": 152.6509,
      "duration": 0.0309,
      "velocity": 114,
      "chip": "ym2612"
    },
    {
      "channel": 3,
      "note": 69,
      "start": 152.6512,
      "duration": 0.109,
      "velocity": 94,
      "chip": "ym2612"
    },
    {
      "channel": 5,
      "note": 69,
      "start": 152.6514,
      "duration": 0.109,
      "velocity": 94,
      "chip": "ym2612"
    },
    {
      "channel": 0,
      "note": 98,
      "start": 152.7599,
      "duration": 0.0309,
      "velocity": 114,
      "chip": "ym2612"
    },
    {
      "channel": 1,
      "note": 67,
      "start": 152.76,
      "duration": 0.2179,
      "velocity": 93,
      "chip": "ym2612"
    },
    {
      "channel": 3,
      "note": 81,
      "start": 152.7602,
      "duration": 0.1089,
      "velocity": 94,
      "chip": "ym2612"
    },
    {
      "channel": 5,
      "note": 74,
      "start": 152.7604,
      "duration": 0.1089,
      "velocity": 94,
      "chip": "ym2612"
    },
    {
      "channel": 0,
      "note": 98,
      "start": 152.8688,
      "duration": 0.0309,
      "velocity": 114,
      "chip": "ym2612"
    },
    {
      "channel": 3,
      "note": 71,
      "start": 152.8691,
      "duration": 0.109,
      "velocity": 94,
      "chip": "ym2612"
    },
    {
      "channel": 0,
      "note": 98,
      "start": 152.9778,
      "duration": 0.1089,
      "velocity": 127,
      "chip": "ym2612"
    },
    {
      "channel": 1,
      "note": 67,
      "start": 152.9779,
      "duration": 0.2178,
      "velocity": 93,
      "chip": "ym2612"
    },
    {
      "channel": 3,
      "note": 74,
      "start": 152.9781,
      "duration": 0.1089,
      "velocity": 94,
      "chip": "ym2612"
    },
    {
      "channel": 5,
      "note": 76,
      "start": 152.9783,
      "duration": 0.1089,
      "velocity": 94,
      "chip": "ym2612"
    },
    {
      "channel": 0,
      "note": 54,
      "start": 153.0867,
      "duration": 0.0154,
      "velocity": 127,
      "chip": "ym2612"
    },
    {
      "channel": 5,
      "note": 81,
      "start": 153.0872,
      "duration": 0.109,
      "velocity": 94,
      "chip": "ym2612"
    },
    {
      "channel": 0,
      "note": 76,
      "start": 153.102,
      "duration": 0.0936,
      "velocity": 114,
      "chip": "ym2612"
    },
    {
      "channel": 0,
      "note": 68,
      "start": 153.1956,
      "duration": 0.0309,
      "velocity": 114,
      "chip": "ym2612"
    },
    {
      "channel": 1,
      "note": 67,
      "start": 153.1957,
      "duration": 0.2179,
      "velocity": 93,
      "chip": "ym2612"
    },
    {
      "channel": 3,
      "note": 76,
      "start": 153.1959,
      "duration": 0.1089,
      "velocity": 94,
      "chip": "ym2612"
    },
    {
      "channel": 5,
      "note": 69,
      "start": 153.1962,
      "duration": 0.1089,
      "velocity": 94,
      "chip": "ym2612"
    },
    {
      "channel": 0,
      "note": 98,
      "start": 153.3046,
      "duration": 0.0309,
      "velocity": 114,
      "chip": "ym2612"
    },
    {
      "channel": 5,
      "note": 81,
      "start": 153.305,
      "duration": 0.1092,
      "velocity": 94,
      "chip": "ym2612"
    },
    {
      "channel": 0,
      "note": 98,
      "start": 153.4135,
      "duration": 0.1089,
      "velocity": 114,
      "chip": "ym2612"
    },
    {
      "channel": 1,
      "note": 67,
      "start": 153.4137,
      "duration": 0.2178,
      "velocity": 93,
      "chip": "ym2612"
    },
    {
      "channel": 2,
      "note": 43,
      "start": 153.4138,
      "duration": 3.0503,
      "velocity": 121,
      "chip": "ym2612"
    },
    {
      "channel": 3,
      "note": 78,
      "start": 153.414,
      "duration": 0.1087,
      "velocity": 94,
      "chip": "ym2612"
    },
    {
      "channel": 5,
      "note": 71,
      "start": 153.4142,
      "duration": 0.1087,
      "velocity": 94,
      "chip": "ym2612"
    },
    {
      "channel": 0,
      "note": 54,
      "start": 153.5224,
      "duration": 0.0309,
      "velocity": 114,
      "chip": "ym2612"
    },
    {
      "channel": 3,
      "note": 81,
      "start": 153.5227,
      "duration": 0.109,
      "velocity": 94,
      "chip": "ym2612"
    },
    {
      "channel": 5,
      "note": 74,
      "start": 153.5229,
      "duration": 0.109,
      "velocity": 94,
      "chip": "ym2612"
    },
    {
      "channel": 4,
      "note": 43,
      "start": 153.6004,
      "duration": 3.0503,
      "velocity": 121,
      "chip": "ym2612"
    },
    {
      "channel": 0,
      "note": 98,
      "start": 153.6314,
      "duration": 0.0309,
      "velocity": 114,
      "chip": "ym2612"
    },
    {
      "channel": 1,
      "note": 62,
      "start": 153.6315,
      "duration": 0.2179,
      "velocity": 93,
      "chip": "ym2612"
    },
    {
      "channel": 3,
      "note": 69,
      "start": 153.6317,
      "duration": 0.109,
      "velocity": 94,
      "chip": "ym2612"
    },
    {
      "channel": 0,
      "note": 98,
      "start": 153.7405,
      "duration": 0.0307,
      "velocity": 114,
      "chip": "ym2612"
    },
    {
      "channel": 3,
      "note": 74,
      "start": 153.7408,
      "duration": 0.1088,
      "velocity": 94,
      "chip": "ym2612"
    },
    {
      "channel": 5,
      "note": 76,
      "start": 153.741,
      "duration": 0.1089,
      "velocity": 94,
      "chip": "ym2612"
    },
    {
      "channel": 0,
      "note": 98,
      "start": 153.8493,
      "duration": 0.0153,
      "velocity": 127,
      "chip": "ym2612"
    },
    {
      "channel": 1,
      "note": 62,
      "start": 153.8494,
      "duration": 0.2178,
      "velocity": 93,
      "chip": "ym2612"
    },
    {
      "channel": 5,
      "note": 78,
      "start": 153.8499,
      "duration": 0.1088,
      "velocity": 94,
      "chip": "ym2612"
    },
    {
      "channel": 0,
      "note": 76,
      "start": 153.8646,
      "duration": 0.0936,
      "velocity": 114,
      "chip": "ym2612"
    },
    {
      "channel": 0,
      "note": 68,
      "start": 153.9582,
      "duration": 0.0309,
      "velocity": 114,
      "chip": "ym2612"
    },
    {
      "channel": 3,
      "note": 76,
      "start": 153.9585,
      "duration": 0.109,
      "velocity": 94,
      "chip": "ym2612"
    },
    {
      "channel": 5,
      "note": 81,
      "start": 153.9587,
      "duration": 0.109,
      "velocity": 94,
      "chip": "ym2612"
    },
    {
      "channel": 0,
      "note": 98,
      "start": 154.0671,
      "duration": 0.0309,
      "velocity": 114,
      "chip": "ym2612"
    },
    {
      "channel": 1,
      "note": 62,
      "start": 154.0673,
      "duration": 0.2179,
      "velocity": 93,
      "chip": "ym2612"
    },
    {
      "channel": 3,
      "note": 81,
      "start": 154.0675,
      "duration": 0.1089,
      "velocity": 94,
      "chip": "ym2612"
    },
    {
      "channel": 5,
      "note": 69,
      "start": 154.0677,
      "duration": 0.1089,
      "velocity": 94,
      "chip": "ym2612"
    },
    {
      "channel": 0,
      "note": 98,
      "start": 154.1761,
      "duration": 0.0311,
      "velocity": 114,
      "chip": "ym2612"
    },
    {
      "channel": 3,
      "note": 69,
      "start": 154.1763,
      "duration": 0.109,
      "velocity": 94,
      "chip": "ym2612"
    },
    {
      "channel": 5,
      "note": 74,
      "start": 154.1766,
      "duration": 0.109,
      "velocity": 94,
      "chip": "ym2612"
    },
    {
      "channel": 0,
      "note": 98,
      "start": 154.2851,
      "duration": 0.1089,
      "velocity": 114,
      "chip": "ym2612"
    },
    {
      "channel": 1,
      "note": 62,
      "start": 154.2852,
      "duration": 0.2178,
      "velocity": 93,
      "chip": "ym2612"
    },
    {
      "channel": 3,
      "note": 81,
      "start": 154.2854,
      "duration": 0.1089,
      "velocity": 94,
      "chip": "ym2612"
    },
    {
      "channel": 0,
      "note": 54,
      "start": 154.394,
      "duration": 0.0309,
      "velocity": 114,
      "chip": "ym2612"
    },
    {
      "channel": 3,
      "note": 71,
      "start": 154.3943,
      "duration": 0.109,
      "velocity": 94,
      "chip": "ym2612"
    },
    {
      "channel": 5,
      "note": 76,
      "start": 154.3945,
      "duration": 0.109,
      "velocity": 94,
      "chip": "ym2612"
    },
    {
      "channel": 0,
      "note": 98,
      "start": 154.5029,
      "duration": 0.0309,
      "velocity": 114,
      "chip": "ym2612"
    },
    {
      "channel": 1,
      "note": 62,
      "start": 154.503,
      "duration": 0.2179,
      "velocity": 93,
      "chip": "ym2612"
    },
    {
      "channel": 3,
      "note": 74,
      "start": 154.5032,
      "duration": 0.1089,
      "velocity": 94,
      "chip": "ym2612"
    },
    {
      "channel": 5,
      "note": 81,
      "start": 154.5035,
      "duration": 0.1089,
      "velocity": 94,
      "chip": "ym2612"
    },
    {
      "channel": 0,
      "note": 98,
      "start": 154.6119,
      "duration": 0.0309,
      "velocity": 114,
      "chip": "ym2612"
    },
    {
      "channel": 5,
      "note": 69,
      "start": 154.6123,
      "duration": 0.109,
      "velocity": 94,
      "chip": "ym2612"
    },
    {
      "channel": 0,
      "note": 98,
      "start": 154.7208,
      "duration": 0.0154,
      "velocity": 127,
      "chip": "ym2612"
    },
    {
      "channel": 1,
      "note": 62,
      "start": 154.7209,
      "duration": 0.2179,
      "velocity": 93,
      "chip": "ym2612"
    },
    {
      "channel": 3,
      "note": 76,
      "start": 154.7211,
      "duration": 0.1089,
      "velocity": 94,
      "chip": "ym2612"
    },
    {
      "channel": 5,
      "note": 81,
      "start": 154.7214,
      "duration": 0.1089,
      "velocity": 94,
      "chip": "ym2612"
    },
    {
      "channel": 0,
      "note": 76,
      "start": 154.7362,
      "duration": 0.0936,
      "velocity": 114,
      "chip": "ym2612"
    },
    {
      "channel": 0,
      "note": 68,
      "start": 154.8298,
      "duration": 0.0309,
      "velocity": 114,
      "chip": "ym2612"
    },
    {
      "channel": 5,
      "note": 71,
      "start": 154.8302,
      "duration": 0.1091,
      "velocity": 94,
      "chip": "ym2612"
    },
    {
      "channel": 0,
      "note": 98,
      "start": 154.9387,
      "duration": 0.0309,
      "velocity": 114,
      "chip": "ym2612"
    },
    {
      "channel": 1,
      "note": 62,
      "start": 154.9388,
      "duration": 0.2179,
      "velocity": 93,
      "chip": "ym2612"
    },
    {
      "channel": 3,
      "note": 78,
      "start": 154.9391,
      "duration": 0.1088,
      "velocity": 94,
      "chip": "ym2612"
    },
    {
      "channel": 5,
      "note": 74,
      "start": 154.9393,
      "duration": 0.1088,
      "velocity": 94,
      "chip": "ym2612"
    },
    {
      "channel": 0,
      "note": 98,
      "start": 155.0476,
      "duration": 0.0309,
      "velocity": 114,
      "chip": "ym2612"
    },
    {
      "channel": 3,
      "note": 81,
      "start": 155.0479,
      "duration": 0.1092,
      "velocity": 94,
      "chip": "ym2612"
    },
    {
      "channel": 0,
      "note": 98,
      "start": 155.1566,
      "duration": 0.1089,
      "velocity": 114,
      "chip": "ym2612"
    },
    {
      "channel": 1,
      "note": 62,
      "start": 155.1567,
      "duration": 0.2178,
      "velocity": 93,
      "chip": "ym2612"
    },
    {
      "channel": 3,
      "note": 69,
      "start": 155.1571,
      "duration": 0.1087,
      "velocity": 94,
      "chip": "ym2612"
    },
    {
      "channel": 5,
      "note": 76,
      "start": 155.1573,
      "duration": 0.1088,
      "velocity": 94,
      "chip": "ym2612"
    },
    {
      "channel": 0,
      "note": 54,
      "start": 155.2655,
      "duration": 0.0309,
      "velocity": 114,
      "chip": "ym2612"
    },
    {
      "channel": 3,
      "note": 74,
      "start": 155.2658,
      "duration": 0.109,
      "velocity": 94,
      "chip": "ym2612"
    },
    {
      "channel": 5,
      "note": 78,
      "start": 155.2661,
      "duration": 0.1089,
      "velocity": 94,
      "chip": "ym2612"
    },
    {
      "channel": 0,
      "note": 98,
      "start": 155.3744,
      "duration": 0.0309,
      "velocity": 114,
      "chip": "ym2612"
    },
    {
      "channel": 1,
      "note": 62,
      "start": 155.3746,
      "duration": 0.2179,
      "velocity": 93,
      "chip": "ym2612"
    },
    {
      "channel": 5,
      "note": 81,
      "start": 155.375,
      "duration": 0.1089,
      "velocity": 94,
      "chip": "ym2612"
    },
    {
      "channel": 0,
      "note": 98,
      "start": 155.4834,
      "duration": 0.0309,
      "velocity": 114,
      "chip": "ym2612"
    },
    {
      "channel": 3,
      "note": 76,
      "start": 155.4837,
      "duration": 0.109,
      "velocity": 94,
      "chip": "ym2612"
    },
    {
      "channel": 5,
      "note": 69,
      "start": 155.4839,
      "duration": 0.109,
      "velocity": 94,
      "chip": "ym2612"
    },
    {
      "channel": 0,
      "note": 98,
      "start": 155.5923,
      "duration": 0.0154,
      "velocity": 127,
      "chip": "ym2612"
    },
    {
      "channel": 1,
      "note": 62,
      "start": 155.5925,
      "duration": 0.2178,
      "velocity": 93,
      "chip": "ym2612"
    },
    {
      "channel": 3,
      "note": 81,
      "start": 155.5927,
      "duration": 0.1089,
      "velocity": 94,
      "chip": "ym2612"
    },
    {
      "channel": 5,
      "note": 74,
      "start": 155.5929,
      "duration": 0.1089,
      "velocity": 94,
      "chip": "ym2612"
    },
    {
      "channel": 0,
      "note": 76,
      "start": 155.6077,
      "duration": 0.0936,
      "velocity": 114,
      "chip": "ym2612"
    },
    {
      "channel": 0,
      "note": 68,
      "start": 155.7013,
      "duration": 0.0309,
      "velocity": 114,
      "chip": "ym2612"
    },
    {
      "channel": 3,
      "note": 69,
      "start": 155.7016,
      "duration": 0.109,
      "velocity": 94,
      "chip": "ym2612"
    },
    {
      "channel": 0,
      "note": 98,
      "start": 155.8102,
      "duration": 0.0309,
      "velocity": 114,
      "chip": "ym2612"
    },
    {
      "channel": 1,
      "note": 62,
      "start": 155.8103,
      "duration": 0.2179,
      "velocity": 93,
      "chip": "ym2612"
    },
    {
      "channel": 3,
      "note": 81,
      "start": 155.8105,
      "duration": 0.1089,
      "velocity": 94,
      "chip": "ym2612"
    },
    {
      "channel": 5,
      "note": 76,
      "start": 155.8108,
      "duration": 0.1089,
      "velocity": 94,
      "chip": "ym2612"
    },
    {
      "channel": 0,
      "note": 98,
      "start": 155.9192,
      "duration": 0.0309,
      "velocity": 114,
      "chip": "ym2612"
    },
    {
      "channel": 3,
      "note": 71,
      "start": 155.9194,
      "duration": 0.109,
      "velocity": 94,
      "chip": "ym2612"
    },
    {
      "channel": 5,
      "note": 81,
      "start": 155.9197,
      "duration": 0.109,
      "velocity": 94,
      "chip": "ym2612"
    },
    {
      "channel": 0,
      "note": 98,
      "start": 156.0281,
      "duration": 0.1089,
      "velocity": 127,
      "chip": "ym2612"
    },
    {
      "channel": 1,
      "note": 62,
      "start": 156.0283,
      "duration": 0.2178,
      "velocity": 93,
      "chip": "ym2612"
    },
    {
      "channel": 3,
      "note": 74,
      "start": 156.0285,
      "duration": 0.1088,
      "velocity": 94,
      "chip": "ym2612"
    },
    {
      "channel": 5,
      "note": 69,
      "start": 156.0287,
      "duration": 0.1088,
      "velocity": 94,
      "chip": "ym2612"
    },
    {
      "channel": 0,
      "note": 54,
      "start": 156.137,
      "duration": 0.0154,
      "velocity": 127,
      "chip": "ym2612"
    },
    {
      "channel": 5,
      "note": 81,
      "start": 156.1376,
      "duration": 0.109,
      "velocity": 94,
      "chip": "ym2612"
    },
    {
      "channel": 0,
      "note": 76,
      "start": 156.1524,
      "duration": 0.0936,
      "velocity": 114,
      "chip": "ym2612"
    },
    {
      "channel": 0,
      "note": 68,
      "start": 156.246,
      "duration": 0.0309,
      "velocity": 114,
      "chip": "ym2612"
    },
    {
      "channel": 1,
      "note": 62,
      "start": 156.2461,
      "duration": 0.2179,
      "velocity": 93,
      "chip": "ym2612"
    },
    {
      "channel": 3,
      "note": 76,
      "start": 156.2463,
      "duration": 0.1089,
      "velocity": 94,
      "chip": "ym2612"
    },
    {
      "channel": 5,
      "note": 71,
      "start": 156.2466,
      "duration": 0.1088,
      "velocity": 94,
      "chip": "ym2612"
    },
    {
      "channel": 0,
      "note": 98,
      "start": 156.3549,
      "duration": 0.0309,
      "velocity": 114,
      "chip": "ym2612"
    },
    {
      "channel": 5,
      "note": 74,
      "start": 156.3554,
      "duration": 0.1091,
      "velocity": 94,
      "chip": "ym2612"
    },
    {
      "channel": 0,
      "note": 98,
      "start": 156.4639,
      "duration": 0.1089,
      "velocity": 114,
      "chip": "ym2612"
    },
    {
      "channel": 1,
      "note": 62,
      "start": 156.464,
      "duration": 0.2178,
      "velocity": 93,
      "chip": "ym2612"
    },
    {
      "channel": 2,
      "note": 50,
      "start": 156.4641,
      "duration": 3.0504,
      "velocity": 121,
      "chip": "ym2612"
    },
    {
      "channel": 3,
      "note": 78,
      "start": 156.4643,
      "duration": 0.1087,
      "velocity": 94,
      "chip": "ym2612"
    },
    {
      "channel": 0,
      "note": 54,
      "start": 156.5728,
      "duration": 0.0309,
      "velocity": 114,
      "chip": "ym2612"
    },
    {
      "channel": 3,
      "note": 81,
      "start": 156.5731,
      "duration": 0.109,
      "velocity": 94,
      "chip": "ym2612"
    },
    {
      "channel": 5,
      "note": 76,
      "start": 156.5733,
      "duration": 0.109,
      "velocity": 94,
      "chip": "ym2612"
    },
    {
      "channel": 4,
      "note": 50,
      "start": 156.6507,
      "duration": 3.0504,
      "velocity": 121,
      "chip": "ym2612"
    },
    {
      "channel": 0,
      "note": 98,
      "start": 156.6817,
      "duration": 0.0309,
      "velocity": 114,
      "chip": "ym2612"
    },
    {
      "channel": 1,
      "note": 59,
      "start": 156.6819,
      "duration": 0.2179,
      "velocity": 93,
      "chip": "ym2612"
    },
    {
      "channel": 3,
      "note": 69,
      "start": 156.6821,
      "duration": 0.1089,
      "velocity": 94,
      "chip": "ym2612"
    },
    {
      "channel": 5,
      "note": 78,
      "start": 156.6823,
      "duration": 0.1089,
      "velocity": 94,
      "chip": "ym2612"
    },
    {
      "channel": 0,
      "note": 98,
      "start": 156.7907,
      "duration": 0.0308,
      "velocity": 114,
      "chip": "ym2612"
    },
    {
      "channel": 3,
      "note": 74,
      "start": 156.791,
      "duration": 0.109,
      "velocity": 94,
      "chip": "ym2612"
    },
    {
      "channel": 5,
      "note": 81,
      "start": 156.7912,
      "duration": 0.109,
      "velocity": 94,
      "chip": "ym2612"
    },
    {
      "channel": 0,
      "note": 98,
      "start": 156.8996,
      "duration": 0.0154,
      "velocity": 127,
      "chip": "ym2612"
    },
    {
      "channel": 1,
      "note": 59,
      "start": 156.8998,
      "duration": 0.2178,
      "velocity": 93,
      "chip": "ym2612"
    },
    {
      "channel": 5,
      "note": 69,
      "start": 156.9002,
      "duration": 0.1089,
      "velocity": 94,
      "chip": "ym2612"
    },
    {
      "channel": 0,
      "note": 76,
      "start": 156.915,
      "duration": 0.0936,
      "velocity": 114,
      "chip": "ym2612"
    },
    {
      "channel": 0,
      "note": 68,
      "start": 157.0086,
      "duration": 0.0309,
      "velocity": 114,
      "chip": "ym2612"
    },
    {
      "channel": 3,
      "note": 76,
      "start": 157.0088,
      "duration": 0.109,
      "velocity": 94,
      "chip": "ym2612"
    },
    {
      "channel": 5,
      "note": 74,
      "start": 157.0091,
      "duration": 0.109,
      "velocity": 94,
      "chip": "ym2612"
    },
    {
      "channel": 0,
      "note": 98,
      "start": 157.1175,
      "duration": 0.0309,
      "velocity": 114,
      "chip": "ym2612"
    },
    {
      "channel": 1,
      "note": 59,
      "start": 157.1176,
      "duration": 0.2179,
      "velocity": 93,
      "chip": "ym2612"
    },
    {
      "channel": 3,
      "note": 81,
      "start": 157.1178,
      "duration": 0.1089,
      "velocity": 94,
      "chip": "ym2612"
    },
    {
      "channel": 0,
      "note": 98,
      "start": 157.2265,
      "duration": 0.0309,
      "velocity": 114,
      "chip": "ym2612"
    },
    {
      "channel": 3,
      "note": 69,
      "start": 157.2267,
      "duration": 0.109,
      "velocity": 94,
      "chip": "ym2612"
    },
    {
      "channel": 5,
      "note": 76,
      "start": 157.227,
      "duration": 0.109,
      "velocity": 94,
      "chip": "ym2612"
    },
    {
      "channel": 0,
      "note": 98,
      "start": 157.3354,
      "duration": 0.1089,
      "velocity": 114,
      "chip": "ym2612"
    },
    {
      "channel": 1,
      "note": 59,
      "start": 157.3356,
      "duration": 0.2178,
      "velocity": 93,
      "chip": "ym2612"
    },
    {
      "channel": 3,
      "note": 81,
      "start": 157.3358,
      "duration": 0.1089,
      "velocity": 94,
      "chip": "ym2612"
    },
    {
      "channel": 5,
      "note": 81,
      "start": 157.336,
      "duration": 0.1089,
      "velocity": 94,
      "chip": "ym2612"
    },
    {
      "channel": 0,
      "note": 54,
      "start": 157.4443,
      "duration": 0.0309,
      "velocity": 114,
      "chip": "ym2612"
    },
    {
      "channel": 3,
      "note": 71,
      "start": 157.4446,
      "duration": 0.109,
      "velocity": 94,
      "chip": "ym2612"
    },
    {
      "channel": 5,
      "note": 69,
      "start": 157.4449,
      "duration": 0.109,
      "velocity": 94,
      "chip": "ym2612"
    },
    {
      "channel": 0,
      "note": 98,
      "start": 157.5533,
      "duration": 0.0309,
      "velocity": 114,
      "chip": "ym2612"
    },
    {
      "channel": 1,
      "note": 59,
      "start": 157.5534,
      "duration": 0.2179,
      "velocity": 93,
      "chip": "ym2612"
    },
    {
      "channel": 3,
      "note": 74,
      "start": 157.5536,
      "duration": 0.1089,
      "velocity": 94,
      "chip": "ym2612"
    },
    {
      "channel": 5,
      "note": 81,
      "start": 157.5538,
      "duration": 0.1089,
      "velocity": 94,
      "chip": "ym2612"
    },
    {
      "channel": 0,
      "note": 98,
      "start": 157.6622,
      "duration": 0.0309,
      "velocity": 114,
      "chip": "ym2612"
    },
    {
      "channel": 5,
      "note": 71,
      "start": 157.6627,
      "duration": 0.109,
      "velocity": 94,
      "chip": "ym2612"
    },
    {
      "channel": 0,
      "note": 98,
      "start": 157.7712,
      "duration": 0.0154,
      "velocity": 127,
      "chip": "ym2612"
    },
    {
      "channel": 1,
      "note": 59,
      "start": 157.7713,
      "duration": 0.2179,
      "velocity": 93,
      "chip": "ym2612"
    },
    {
      "channel": 3,
      "note": 76,
      "start": 157.7715,
      "duration": 0.1089,
      "velocity": 94,
      "chip": "ym2612"
    },
    {
      "channel": 5,
      "note": 74,
      "start": 157.7717,
      "duration": 0.1089,
      "velocity": 94,
      "chip": "ym2612"
    },
    {
      "channel": 0,
      "note": 76,
      "start": 157.7865,
      "duration": 0.0936,
      "velocity": 114,
      "chip": "ym2612"
    },
    {
      "channel": 0,
      "note": 68,
      "start": 157.8801,
      "duration": 0.0309,
      "velocity": 114,
      "chip": "ym2612"
    },
    {
      "channel": 0,
      "note": 98,
      "start": 157.989,
      "duration": 0.0309,
      "velocity": 114,
      "chip": "ym2612"
    },
    {
      "channel": 1,
      "note": 59,
      "start": 157.9892,
      "duration": 0.2181,
      "velocity": 93,
      "chip": "ym2612"
    },
    {
      "channel": 3,
      "note": 78,
      "start": 157.9894,
      "duration": 0.1088,
      "velocity": 94,
      "chip": "ym2612"
    },
    {
      "channel": 5,
      "note": 76,
      "start": 157.9897,
      "duration": 0.1089,
      "velocity": 94,
      "chip": "ym2612"
    },
    {
      "channel": 0,
      "note": 98,
      "start": 158.098,
      "duration": 0.0309,
      "velocity": 114,
      "chip": "ym2612"
    },
    {
      "channel": 3,
      "note": 81,
      "start": 158.0983,
      "duration": 0.1092,
      "velocity": 94,
      "chip": "ym2612"
    },
    {
      "channel": 5,
      "note": 78,
      "start": 158.0985,
      "duration": 0.1091,
      "velocity": 94,
      "chip": "ym2612"
    },
    {
      "channel": 0,
      "note": 98,
      "start": 158.2071,
      "duration": 0.1088,
      "velocity": 114,
      "chip": "ym2612"
    },
    {
      "channel": 1,
      "note": 59,
      "start": 158.2073,
      "duration": 0.2177,
      "velocity": 93,
      "chip": "ym2612"
    },
    {
      "channel": 3,
      "note": 69,
      "start": 158.2075,
      "duration": 0.1087,
      "velocity": 94,
      "chip": "ym2612"
    },
    {
      "channel": 5,
      "note": 81,
      "start": 158.2077,
      "duration": 0.1087,
      "velocity": 94,
      "chip": "ym2612"
    },
    {
      "channel": 0,
      "note": 54,
      "start": 158.3159,
      "duration": 0.0309,
      "velocity": 114,
      "chip": "ym2612"
    },
    {
      "channel": 3,
      "note": 74,
      "start": 158.3162,
      "duration": 0.1089,
      "velocity": 94,
      "chip": "ym2612"
    },
    {
      "channel": 5,
      "note": 69,
      "start": 158.3164,
      "duration": 0.1089,
      "velocity": 94,
      "chip": "ym2612"
    },
    {
      "channel": 0,
      "note": 98,
      "start": 158.4248,
      "duration": 0.0309,
      "velocity": 114,
      "chip": "ym2612"
    },
    {
      "channel": 1,
      "note": 59,
      "start": 158.4249,
      "duration": 0.2179,
      "velocity": 93,
      "chip": "ym2612"
    },
    {
      "channel": 5,
      "note": 74,
      "start": 158.4253,
      "duration": 0.1089,
      "velocity": 94,
      "chip": "ym2612"
    },
    {
      "channel": 0,
      "note": 98,
      "start": 158.5338,
      "duration": 0.0309,
      "velocity": 114,
      "chip": "ym2612"
    },
    {
      "channel": 3,
      "note": 76,
      "start": 158.534,
      "duration": 0.109,
      "velocity": 94,
      "chip": "ym2612"
    },
    {
      "channel": 0,
      "note": 98,
      "start": 158.6427,
      "duration": 0.0154,
      "velocity": 127,
      "chip": "ym2612"
    },
    {
      "channel": 1,
      "note": 59,
      "start": 158.6428,
      "duration": 0.2178,
      "velocity": 93,
      "chip": "ym2612"
    },
    {
      "channel": 3,
      "note": 81,
      "start": 158.643,
      "duration": 0.1089,
      "velocity": 94,
      "chip": "ym2612"
    },
    {
      "channel": 5,
      "note": 76,
      "start": 158.6433,
      "duration": 0.1089,
      "velocity": 94,
      "chip": "ym2612"
    },
    {
      "channel": 0,
      "note": 76,
      "start": 158.658,
      "duration": 0.0936,
      "velocity": 114,
      "chip": "ym2612"
    },
    {
      "channel": 0,
      "note": 68,
      "start": 158.7516,
      "duration": 0.0309,
      "velocity": 114,
      "chip": "ym2612"
    },
    {
      "channel": 3,
      "note": 69,
      "start": 158.7519,
      "duration": 0.109,
      "velocity": 94,
      "chip": "ym2612"
    },
    {
      "channel": 5,
      "note": 81,
      "start": 158.7522,
      "duration": 0.109,
      "velocity": 94,
      "chip": "ym2612"
    },
    {
      "channel": 0,
      "note": 98,
      "start": 158.8606,
      "duration": 0.0309,
      "velocity": 114,
      "chip": "ym2612"
    },
    {
      "channel": 1,
      "note": 59,
      "start": 158.8607,
      "duration": 0.2179,
      "velocity": 93,
      "chip": "ym2612"
    },
    {
      "channel": 3,
      "note": 81,
      "start": 158.8609,
      "duration": 0.1089,
      "velocity": 94,
      "chip": "ym2612"
    },
    {
      "channel": 5,
      "note": 69,
      "start": 158.8611,
      "duration": 0.1089,
      "velocity": 94,
      "chip": "ym2612"
    },
    {
      "channel": 0,
      "note": 98,
      "start": 158.9695,
      "duration": 0.0309,
      "velocity": 114,
      "chip": "ym2612"
    },
    {
      "channel": 3,
      "note": 71,
      "start": 158.9698,
      "duration": 0.109,
      "velocity": 94,
      "chip": "ym2612"
    },
    {
      "channel": 5,
      "note": 81,
      "start": 158.97,
      "duration": 0.109,
      "velocity": 94,
      "chip": "ym2612"
    },
    {
      "channel": 0,
      "note": 98,
      "start": 159.0785,
      "duration": 0.1089,
      "velocity": 127,
      "chip": "ym2612"
    },
    {
      "channel": 1,
      "note": 59,
      "start": 159.0786,
      "duration": 0.2178,
      "velocity": 93,
      "chip": "ym2612"
    },
    {
      "channel": 3,
      "note": 74,
      "start": 159.0788,
      "duration": 0.1089,
      "velocity": 94,
      "chip": "ym2612"
    },
    {
      "channel": 5,
      "note": 71,
      "start": 159.079,
      "duration": 0.1088,
      "velocity": 94,
      "chip": "ym2612"
    },
    {
      "channel": 0,
      "note": 54,
      "start": 159.1874,
      "duration": 0.0154,
      "velocity": 127,
      "chip": "ym2612"
    },
    {
      "channel": 5,
      "note": 74,
      "start": 159.1879,
      "duration": 0.109,
      "velocity": 94,
      "chip": "ym2612"
    },
    {
      "channel": 0,
      "note": 76,
      "start": 159.2028,
      "duration": 0.0936,
      "velocity": 114,
      "chip": "ym2612"
    },
    {
      "channel": 0,
      "note": 68,
      "start": 159.2963,
      "duration": 0.0309,
      "velocity": 114,
      "chip": "ym2612"
    },
    {
      "channel": 1,
      "note": 59,
      "start": 159.2965,
      "duration": 0.2179,
      "velocity": 93,
      "chip": "ym2612"
    },
    {
      "channel": 3,
      "note": 76,
      "start": 159.2967,
      "duration": 0.1089,
      "velocity": 94,
      "chip": "ym2612"
    },
    {
      "channel": 0,
      "note": 98,
      "start": 159.4053,
      "duration": 0.0309,
      "velocity": 114,
      "chip": "ym2612"
    },
    {
      "channel": 5,
      "note": 76,
      "start": 159.4058,
      "duration": 0.1092,
      "velocity": 94,
      "chip": "ym2612"
    },
    {
      "channel": 0,
      "note": 98,
      "start": 159.5143,
      "duration": 0.1089,
      "velocity": 114,
      "chip": "ym2612"
    },
    {
      "channel": 1,
      "note": 59,
      "start": 159.5144,
      "duration": 0.2178,
      "velocity": 93,
      "chip": "ym2612"
    },
    {
      "channel": 2,
      "note": 47,
      "start": 159.5145,
      "duration": 3.0504,
      "velocity": 121,
      "chip": "ym2612"
    },
    {
      "channel": 3,
      "note": 78,
      "start": 159.5147,
      "duration": 0.1087,
      "velocity": 94,
      "chip": "ym2612"
    },
    {
      "channel": 5,
      "note": 78,
      "start": 159.515,
      "duration": 0.1088,
      "velocity": 94,
      "chip": "ym2612"
    },
    {
      "channel": 0,
      "note": 54,
      "start": 159.6232,
      "duration": 0.0309,
      "velocity": 114,
      "chip": "ym2612"
    },
    {
      "channel": 3,
      "note": 81,
      "start": 159.6234,
      "duration": 0.109,
      "velocity": 94,
      "chip": "ym2612"
    },
    {
      "channel": 5,
      "note": 81,
      "start": 159.6239,
      "duration": 0.1088,
      "velocity": 94,
      "chip": "ym2612"
    },
    {
      "channel": 4,
      "note": 47,
      "start": 159.7011,
      "duration": 3.0503,
      "velocity": 121,
      "chip": "ym2612"
    },
    {
      "channel": 0,
      "note": 98,
      "start": 159.7321,
      "duration": 0.0309,
      "velocity": 114,
      "chip": "ym2612"
    },
    {
      "channel": 1,
      "note": 55,
      "start": 159.7322,
      "duration": 0.2179,
      "velocity": 93,
      "chip": "ym2612"
    },
    {
      "channel": 3,
      "note": 69,
      "start": 159.7324,
      "duration": 0.1089,
      "velocity": 94,
      "chip": "ym2612"
    },
    {
      "channel": 5,
      "note": 69,
      "start": 159.7327,
      "duration": 0.1089,
      "velocity": 94,
      "chip": "ym2612"
    },
    {
      "channel": 0,
      "note": 98,
      "start": 159.8411,
      "duration": 0.0309,
      "velocity": 114,
      "chip": "ym2612"
    },
    {
      "channel": 3,
      "note": 74,
      "start": 159.8413,
      "duration": 0.109,
      "velocity": 94,
      "chip": "ym2612"
    },
    {
      "channel": 5,
      "note": 74,
      "start": 159.8415,
      "duration": 0.109,
      "velocity": 94,
      "chip": "ym2612"
    },
    {
      "channel": 0,
      "note": 98,
      "start": 159.95,
      "duration": 0.0154,
      "velocity": 127,
      "chip": "ym2612"
    },
    {
      "channel": 1,
      "note": 55,
      "start": 159.9501,
      "duration": 0.2178,
      "velocity": 93,
      "chip": "ym2612"
    },
    {
      "channel": 0,
      "note": 76,
      "start": 159.9654,
      "duration": 0.0936,
      "velocity": 114,
      "chip": "ym2612"
    },
    {
      "channel": 0,
      "note": 68,
      "start": 160.0589,
      "duration": 0.0309,
      "velocity": 114,
      "chip": "ym2612"
    },
    {
      "channel": 3,
      "note": 76,
      "start": 160.0592,
      "duration": 0.109,
      "velocity": 94,
      "chip": "ym2612"
    },
    {
      "channel": 5,
      "note": 76,
      "start": 160.0594,
      "duration": 0.109,
      "velocity": 94,
      "chip": "ym2612"
    },
    {
      "channel": 0,
      "note": 98,
      "start": 160.1679,
      "duration": 0.0309,
      "velocity": 114,
      "chip": "ym2612"
    },
    {
      "channel": 1,
      "note": 55,
      "start": 160.168,
      "duration": 0.2179,
      "velocity": 93,
      "chip": "ym2612"
    },
    {
      "channel": 3,
      "note": 81,
      "start": 160.1682,
      "duration": 0.1089,
      "velocity": 94,
      "chip": "ym2612"
    },
    {
      "channel": 5,
      "note": 81,
      "start": 160.1684,
      "duration": 0.1089,
      "velocity": 94,
      "chip": "ym2612"
    },
    {
      "channel": 0,
      "note": 98,
      "start": 160.2768,
      "duration": 0.0309,
      "velocity": 114,
      "chip": "ym2612"
    },
    {
      "channel": 3,
      "note": 69,
      "start": 160.2771,
      "duration": 0.109,
      "velocity": 94,
      "chip": "ym2612"
    },
    {
      "channel": 5,
      "note": 69,
      "start": 160.2773,
      "duration": 0.109,
      "velocity": 94,
      "chip": "ym2612"
    },
    {
      "channel": 0,
      "note": 98,
      "start": 160.3858,
      "duration": 0.1089,
      "velocity": 114,
      "chip": "ym2612"
    },
    {
      "channel": 1,
      "note": 55,
      "start": 160.3859,
      "duration": 0.2178,
      "velocity": 93,
      "chip": "ym2612"
    },
    {
      "channel": 3,
      "note": 81,
      "start": 160.3861,
      "duration": 0.1089,
      "velocity": 94,
      "chip": "ym2612"
    },
    {
      "channel": 5,
      "note": 81,
      "start": 160.3863,
      "duration": 0.1089,
      "velocity": 94,
      "chip": "ym2612"
    },
    {
      "channel": 0,
      "note": 54,
      "start": 160.4947,
      "duration": 0.0309,
      "velocity": 114,
      "chip": "ym2612"
    },
    {
      "channel": 3,
      "note": 71,
      "start": 160.495,
      "duration": 0.109,
      "velocity": 94,
      "chip": "ym2612"
    },
    {
      "channel": 5,
      "note": 71,
      "start": 160.4952,
      "duration": 0.109,
      "velocity": 94,
      "chip": "ym2612"
    },
    {
      "channel": 0,
      "note": 98,
      "start": 160.6037,
      "duration": 0.0309,
      "velocity": 114,
      "chip": "ym2612"
    },
    {
      "channel": 1,
      "note": 55,
      "start": 160.6038,
      "duration": 0.2179,
      "velocity": 93,
      "chip": "ym2612"
    },
    {
      "channel": 3,
      "note": 74,
      "start": 160.604,
      "duration": 0.1089,
      "velocity": 94,
      "chip": "ym2612"
    },
    {
      "channel": 5,
      "note": 74,
      "start": 160.6042,
      "duration": 0.1089,
      "velocity": 94,
      "chip": "ym2612"
    },
    {
      "channel": 0,
      "note": 98,
      "start": 160.7126,
      "duration": 0.0309,
      "velocity": 114,
      "chip": "ym2612"
    },
    {
      "channel": 0,
      "note": 98,
      "start": 160.8215,
      "duration": 0.0153,
      "velocity": 127,
      "chip": "ym2612"
    },
    {
      "channel": 1,
      "note": 55,
      "start": 160.8217,
      "duration": 0.2178,
      "velocity": 93,
      "chip": "ym2612"
    },
    {
      "channel": 3,
      "note": 76,
      "start": 160.8219,
      "duration": 0.1089,
      "velocity": 94,
      "chip": "ym2612"
    },
    {
      "channel": 5,
      "note": 76,
      "start": 160.8221,
      "duration": 0.1089,
      "velocity": 94,
      "chip": "ym2612"
    },
    {
      "channel": 0,
      "note": 76,
      "start": 160.8369,
      "duration": 0.0936,
      "velocity": 114,
      "chip": "ym2612"
    },
    {
      "channel": 0,
      "note": 68,
      "start": 160.9305,
      "duration": 0.0309,
      "velocity": 114,
      "chip": "ym2612"
    },
    {
      "channel": 5,
      "note": 78,
      "start": 160.931,
      "duration": 0.109,
      "velocity": 94,
      "chip": "ym2612"
    },
    {
      "channel": 0,
      "note": 98,
      "start": 161.0394,
      "duration": 0.0309,
      "velocity": 114,
      "chip": "ym2612"
    },
    {
      "channel": 1,
      "note": 55,
      "start": 161.0395,
      "duration": 0.218,
      "velocity": 93,
      "chip": "ym2612"
    },
    {
      "channel": 3,
      "note": 78,
      "start": 161.0398,
      "duration": 0.1088,
      "velocity": 94,
      "chip": "ym2612"
    },
    {
      "channel": 5,
      "note": 81,
      "start": 161.04,
      "duration": 0.1088,
      "velocity": 94,
      "chip": "ym2612"
    },
    {
      "channel": 0,
      "note": 98,
      "start": 161.1484,
      "duration": 0.0309,
      "velocity": 114,
      "chip": "ym2612"
    },
    {
      "channel": 3,
      "note": 81,
      "start": 161.1486,
      "duration": 0.1091,
      "velocity": 94,
      "chip": "ym2612"
    },
    {
      "channel": 5,
      "note": 69,
      "start": 161.1489,
      "duration": 0.1091,
      "velocity": 94,
      "chip": "ym2612"
    },
    {
      "channel": 0,
      "note": 98,
      "start": 161.2574,
      "duration": 0.1088,
      "velocity": 114,
      "chip": "ym2612"
    },
    {
      "channel": 1,
      "note": 55,
      "start": 161.2576,
      "duration": 0.2177,
      "velocity": 93,
      "chip": "ym2612"
    },
    {
      "channel": 3,
      "note": 69,
      "start": 161.2578,
      "duration": 0.1088,
      "velocity": 94,
      "chip": "ym2612"
    },
    {
      "channel": 5,
      "note": 74,
      "start": 161.258,
      "duration": 0.1087,
      "velocity": 94,
      "chip": "ym2612"
    },
    {
      "channel": 0,
      "note": 54,
      "start": 161.3662,
      "duration": 0.0309,
      "velocity": 114,
      "chip": "ym2612"
    },
    {
      "channel": 3,
      "note": 74,
      "start": 161.3665,
      "duration": 0.1089,
      "velocity": 94,
      "chip": "ym2612"
    },
    {
      "channel": 0,
      "note": 98,
      "start": 161.4752,
      "duration": 0.0309,
      "velocity": 114,
      "chip": "ym2612"
    },
    {
      "channel": 1,
      "note": 55,
      "start": 161.4753,
      "duration": 0.2179,
      "velocity": 93,
      "chip": "ym2612"
    },
    {
      "channel": 5,
      "note": 76,
      "start": 161.4757,
      "duration": 0.1089,
      "velocity": 94,
      "chip": "ym2612"
    },
    {
      "channel": 0,
      "note": 98,
      "start": 161.5841,
      "duration": 0.0309,
      "velocity": 114,
      "chip": "ym2612"
    },
    {
      "channel": 3,
      "note": 76,
      "start": 161.5844,
      "duration": 0.109,
      "velocity": 94,
      "chip": "ym2612"
    },
    {
      "channel": 5,
      "note": 81,
      "start": 161.5846,
      "duration": 0.109,
      "velocity": 94,
      "chip": "ym2612"
    },
    {
      "channel": 0,
      "note": 98,
      "start": 161.6931,
      "duration": 0.0154,
      "velocity": 127,
      "chip": "ym2612"
    },
    {
      "channel": 1,
      "note": 55,
      "start": 161.6932,
      "duration": 0.2179,
      "velocity": 93,
      "chip": "ym2612"
    },
    {
      "channel": 3,
      "note": 81,
      "start": 161.6934,
      "duration": 0.1089,
      "velocity": 94,
      "chip": "ym2612"
    },
    {
      "channel": 5,
      "note": 69,
      "start": 161.6936,
      "duration": 0.1089,
      "velocity": 94,
      "chip": "ym2612"
    },
    {
      "channel": 0,
      "note": 76,
      "start": 161.7084,
      "duration": 0.0936,
      "velocity": 114,
      "chip": "ym2612"
    },
    {
      "channel": 0,
      "note": 68,
      "start": 161.802,
      "duration": 0.0309,
      "velocity": 114,
      "chip": "ym2612"
    },
    {
      "channel": 3,
      "note": 69,
      "start": 161.8023,
      "duration": 0.109,
      "velocity": 94,
      "chip": "ym2612"
    },
    {
      "channel": 5,
      "note": 81,
      "start": 161.8025,
      "duration": 0.109,
      "velocity": 94,
      "chip": "ym2612"
    },
    {
      "channel": 0,
      "note": 98,
      "start": 161.911,
      "duration": 0.0309,
      "velocity": 114,
      "chip": "ym2612"
    },
    {
      "channel": 1,
      "note": 55,
      "start": 161.9111,
      "duration": 0.2179,
      "velocity": 93,
      "chip": "ym2612"
    },
    {
      "channel": 3,
      "note": 81,
      "start": 161.9113,
      "duration": 0.1089,
      "velocity": 94,
      "chip": "ym2612"
    },
    {
      "channel": 5,
      "note": 71,
      "start": 161.9115,
      "duration": 0.1089,
      "velocity": 94,
      "chip": "ym2612"
    },
    {
      "channel": 0,
      "note": 98,
      "start": 162.0199,
      "duration": 0.0309,
      "velocity": 114,
      "chip": "ym2612"
    },
    {
      "channel": 3,
      "note": 71,
      "start": 162.0202,
      "duration": 0.109,
      "velocity": 94,
      "chip": "ym2612"
    },
    {
      "channel": 5,
      "note": 74,
      "start": 162.0204,
      "duration": 0.109,
      "velocity": 94,
      "chip": "ym2612"
    },
    {
      "channel": 0,
      "note": 98,
      "start": 162.1288,
      "duration": 0.1089,
      "velocity": 127,
      "chip": "ym2612"
    },
    {
      "channel": 1,
      "note": 55,
      "start": 162.129,
      "duration": 0.2178,
      "velocity": 93,
      "chip": "ym2612"
    },
    {
      "channel": 3,
      "note": 74,
      "start": 162.1292,
      "duration": 0.1089,
      "velocity": 94,
      "chip": "ym2612"
    },
    {
      "channel": 0,
      "note": 54,
      "start": 162.2378,
      "duration": 0.0154,
      "velocity": 127,
      "chip": "ym2612"
    },
    {
      "channel": 5,
      "note": 76,
      "start": 162.2383,
      "duration": 0.1091,
      "velocity": 94,
      "chip": "ym2612"
    },
    {
      "channel": 0,
      "note": 76,
      "start": 162.2531,
      "duration": 0.0936,
      "velocity": 114,
      "chip": "ym2612"
    },
    {
      "channel": 0,
      "note": 68,
      "start": 162.3467,
      "duration": 0.0309,
      "velocity": 114,
      "chip": "ym2612"
    },
    {
      "channel": 1,
      "note": 55,
      "start": 162.3468,
      "duration": 0.2179,
      "velocity": 93,
      "chip": "ym2612"
    },
    {
      "channel": 3,
      "note": 76,
      "start": 162.3471,
      "duration": 0.1089,
      "velocity": 94,
      "chip": "ym2612"
    },
    {
      "channel": 5,
      "note": 78,
      "start": 162.3473,
      "duration": 0.1088,
      "velocity": 94,
      "chip": "ym2612"
    },
    {
      "channel": 0,
      "note": 98,
      "start": 162.4557,
      "duration": 0.0309,
      "velocity": 114,
      "chip": "ym2612"
    },
    {
      "channel": 5,
      "note": 81,
      "start": 162.4561,
      "duration": 0.1091,
      "velocity": 94,
      "chip": "ym2612"
    },
    {
      "channel": 0,
      "note": 98,
      "start": 162.5646,
      "duration": 0.1089,
      "velocity": 114,
      "chip": "ym2612"
    },
    {
      "channel": 1,
      "note": 56,
      "start": 162.5648,
      "duration": 0.2178,
      "velocity": 93,
      "chip": "ym2612"
    },
    {
      "channel": 2,
      "note": 43,
      "start": 162.5649,
      "duration": 3.0504,
      "velocity": 121,
      "chip": "ym2612"
    },
    {
      "channel": 3,
      "note": 78,
      "start": 162.5651,
      "duration": 0.1089,
      "velocity": 94,
      "chip": "ym2612"
    },
    {
      "channel": 5,
      "note": 69,
      "start": 162.5653,
      "duration": 0.1089,
      "velocity": 94,
      "chip": "ym2612"
    },
    {
      "channel": 0,
      "note": 54,
      "start": 162.6735,
      "duration": 0.0309,
      "velocity": 114,
      "chip": "ym2612"
    },
    {
      "channel": 3,
      "note": 81,
      "start": 162.674,
      "duration": 0.1088,
      "velocity": 94,
      "chip": "ym2612"
    },
    {
      "channel": 5,
      "note": 74,
      "start": 162.6742,
      "duration": 0.1088,
      "velocity": 94,
      "chip": "ym2612"
    },
    {
      "channel": 4,
      "note": 43,
      "start": 162.7515,
      "duration": 3.0504,
      "velocity": 121,
      "chip": "ym2612"
    },
    {
      "channel": 0,
      "note": 98,
      "start": 162.7825,
      "duration": 0.0309,
      "velocity": 114,
      "chip": "ym2612"
    },
    {
      "channel": 1,
      "note": 64,
      "start": 162.7826,
      "duration": 0.2179,
      "velocity": 93,
      "chip": "ym2612"
    },
    {
      "channel": 3,
      "note": 69,
      "start": 162.7828,
      "duration": 0.1089,
      "velocity": 94,
      "chip": "ym2612"
    },
    {
      "channel": 0,
      "note": 98,
      "start": 162.8914,
      "duration": 0.0309,
      "velocity": 114,
      "chip": "ym2612"
    },
    {
      "channel": 3,
      "note": 74,
      "start": 162.8917,
      "duration": 0.109,
      "velocity": 94,
      "chip": "ym2612"
    },
    {
      "channel": 5,
      "note": 76,
      "start": 162.8919,
      "duration": 0.109,
      "velocity": 94,
      "chip": "ym2612"
    },
    {
      "channel": 0,
      "note": 98,
      "start": 163.0004,
      "duration": 0.0154,
      "velocity": 127,
      "chip": "ym2612"
    },
    {
      "channel": 1,
      "note": 64,
      "start": 163.0005,
      "duration": 0.2178,
      "velocity": 93,
      "chip": "ym2612"
    },
    {
      "channel": 5,
      "note": 81,
      "start": 163.0009,
      "duration": 0.1089,
      "velocity": 94,
      "chip": "ym2612"
    },
    {
      "channel": 0,
      "note": 76,
      "start": 163.0157,
      "duration": 0.0936,
      "velocity": 114,
      "chip": "ym2612"
    },
    {
      "channel": 0,
      "note": 68,
      "start": 163.1093,
      "duration": 0.0309,
      "velocity": 114,
      "chip": "ym2612"
    },
    {
      "channel": 3,
      "note": 76,
      "start": 163.1096,
      "duration": 0.109,
      "velocity": 94,
      "chip": "ym2612"
    },
    {
      "channel": 5,
      "note": 69,
      "start": 163.1098,
      "duration": 0.109,
      "velocity": 94,
      "chip": "ym2612"
    },
    {
      "channel": 0,
      "note": 98,
      "start": 163.2183,
      "duration": 0.0309,
      "velocity": 114,
      "chip": "ym2612"
    },
    {
      "channel": 1,
      "note": 64,
      "start": 163.2184,
      "duration": 0.2179,
      "velocity": 93,
      "chip": "ym2612"
    },
    {
      "channel": 3,
      "note": 81,
      "start": 163.2186,
      "duration": 0.1089,
      "velocity": 94,
      "chip": "ym2612"
    },
    {
      "channel": 5,
      "note": 81,
      "start": 163.2188,
      "duration": 0.1089,
      "velocity": 94,
      "chip": "ym2612"
    },
    {
      "channel": 0,
      "note": 98,
      "start": 163.3272,
      "duration": 0.0309,
      "velocity": 114,
      "chip": "ym2612"
    },
    {
      "channel": 3,
      "note": 69,
      "start": 163.3275,
      "duration": 0.109,
      "velocity": 94,
      "chip": "ym2612"
    },
    {
      "channel": 5,
      "note": 71,
      "start": 163.3277,
      "duration": 0.109,
      "velocity": 94,
      "chip": "ym2612"
    },
    {
      "channel": 0,
      "note": 98,
      "start": 163.4361,
      "duration": 0.1089,
      "velocity": 114,
      "chip": "ym2612"
    },
    {
      "channel": 1,
      "note": 64,
      "start": 163.4363,
      "duration": 0.2178,
      "velocity": 93,
      "chip": "ym2612"
    },
    {
      "channel": 3,
      "note": 81,
      "start": 163.4365,
      "duration": 0.1089,
      "velocity": 94,
      "chip": "ym2612"
    },
    {
      "channel": 5,
      "note": 74,
      "start": 163.4367,
      "duration": 0.1089,
      "velocity": 94,
      "chip": "ym2612"
    },
    {
      "channel": 0,
      "note": 54,
      "start": 163.5451,
      "duration": 0.0309,
      "velocity": 114,
      "chip": "ym2612"
    },
    {
      "channel": 3,
      "note": 71,
      "start": 163.5454,
      "duration": 0.109,
      "velocity": 94,
      "chip": "ym2612"
    },
    {
      "channel": 0,
      "note": 98,
      "start": 163.654,
      "duration": 0.0309,
      "velocity": 114,
      "chip": "ym2612"
    },
    {
      "channel": 1,
      "note": 64,
      "start": 163.6541,
      "duration": 0.2179,
      "velocity": 93,
      "chip": "ym2612"
    },
    {
      "channel": 3,
      "note": 74,
      "start": 163.6543,
      "duration": 0.1089,
      "velocity": 94,
      "chip": "ym2612"
    },
    {
      "channel": 5,
      "note": 76,
      "start": 163.6546,
      "duration": 0.1089,
      "velocity": 94,
      "chip": "ym2612"
    },
    {
      "channel": 0,
      "note": 98,
      "start": 163.763,
      "duration": 0.0309,
      "velocity": 114,
      "chip": "ym2612"
    },
    {
      "channel": 5,
      "note": 78,
      "start": 163.7635,
      "duration": 0.109,
      "velocity": 94,
      "chip": "ym2612"
    },
    {
      "channel": 0,
      "note": 98,
      "start": 163.8719,
      "duration": 0.0154,
      "velocity": 127,
      "chip": "ym2612"
    },
    {
      "channel": 1,
      "note": 64,
      "start": 163.872,
      "duration": 0.2178,
      "velocity": 93,
      "chip": "ym2612"
    },
    {
      "channel": 3,
      "note": 76,
      "start": 163.8722,
      "duration": 0.1089,
      "velocity": 94,
      "chip": "ym2612"
    },
    {
      "channel": 5,
      "note": 81,
      "start": 163.8725,
      "duration": 0.1089,
      "velocity": 94,
      "chip": "ym2612"
    },
    {
      "channel": 0,
      "note": 76,
      "start": 163.8873,
      "duration": 0.0936,
      "velocity": 114,
      "chip": "ym2612"
    },
    {
      "channel": 0,
      "note": 68,
      "start": 163.9808,
      "duration": 0.0309,
      "velocity": 114,
      "chip": "ym2612"
    },
    {
      "channel": 5,
      "note": 69,
      "start": 163.9813,
      "duration": 0.1092,
      "velocity": 94,
      "chip": "ym2612"
    },
    {
      "channel": 0,
      "note": 98,
      "start": 164.0898,
      "duration": 0.0309,
      "velocity": 114,
      "chip": "ym2612"
    },
    {
      "channel": 1,
      "note": 64,
      "start": 164.0899,
      "duration": 0.2179,
      "velocity": 93,
      "chip": "ym2612"
    },
    {
      "channel": 3,
      "note": 78,
      "start": 164.0902,
      "duration": 0.1088,
      "velocity": 94,
      "chip": "ym2612"
    },
    {
      "channel": 5,
      "note": 74,
      "start": 164.0906,
      "duration": 0.1086,
      "velocity": 94,
      "chip": "ym2612"
    },
    {
      "channel": 0,
      "note": 98,
      "start": 164.1987,
      "duration": 0.0309,
      "velocity": 114,
      "chip": "ym2612"
    },
    {
      "channel": 3,
      "note": 81,
      "start": 164.199,
      "duration": 0.109,
      "velocity": 94,
      "chip": "ym2612"
    },
    {
      "channel": 0,
      "note": 98,
      "start": 164.3077,
      "duration": 0.1089,
      "velocity": 114,
      "chip": "ym2612"
    },
    {
      "channel": 1,
      "note": 64,
      "start": 164.3078,
      "duration": 0.2178,
      "velocity": 93,
      "chip": "ym2612"
    },
    {
      "channel": 3,
      "note": 69,
      "start": 164.308,
      "duration": 0.1089,
      "velocity": 94,
      "chip": "ym2612"
    },
    {
      "channel": 5,
      "note": 76,
      "start": 164.3083,
      "duration": 0.1089,
      "velocity": 94,
      "chip": "ym2612"
    },
    {
      "channel": 0,
      "note": 54,
      "start": 164.4166,
      "duration": 0.0309,
      "velocity": 114,
      "chip": "ym2612"
    },
    {
      "channel": 3,
      "note": 74,
      "start": 164.4169,
      "duration": 0.109,
      "velocity": 94,
      "chip": "ym2612"
    },
    {
      "channel": 5,
      "note": 81,
      "start": 164.4171,
      "duration": 0.1089,
      "velocity": 94,
      "chip": "ym2612"
    },
    {
      "channel": 0,
      "note": 98,
      "start": 164.5256,
      "duration": 0.0309,
      "velocity": 114,
      "chip": "ym2612"
    },
    {
      "channel": 1,
      "note": 64,
      "start": 164.5257,
      "duration": 0.2179,
      "velocity": 93,
      "chip": "ym2612"
    },
    {
      "channel": 5,
      "note": 69,
      "start": 164.5261,
      "duration": 0.1089,
      "velocity": 94,
      "chip": "ym2612"
    },
    {
      "channel": 0,
      "note": 98,
      "start": 164.6345,
      "duration": 0.0309,
      "velocity": 114,
      "chip": "ym2612"
    },
    {
      "channel": 3,
      "note": 76,
      "start": 164.6347,
      "duration": 0.109,
      "velocity": 94,
      "chip": "ym2612"
    },
    {
      "channel": 5,
      "note": 81,
      "start": 164.635,
      "duration": 0.109,
      "velocity": 94,
      "chip": "ym2612"
    },
    {
      "channel": 0,
      "note": 98,
      "start": 164.7434,
      "duration": 0.0154,
      "velocity": 127,
      "chip": "ym2612"
    },
    {
      "channel": 1,
      "note": 64,
      "start": 164.7436,
      "duration": 0.2179,
      "velocity": 93,
      "chip": "ym2612"
    },
    {
      "channel": 3,
      "note": 81,
      "start": 164.7438,
      "duration": 0.1089,
      "velocity": 94,
      "chip": "ym2612"
    },
    {
      "channel": 5,
      "note": 71,
      "start": 164.744,
      "duration": 0.1089,
      "velocity": 94,
      "chip": "ym2612"
    },
    {
      "channel": 0,
      "note": 76,
      "start": 164.7588,
      "duration": 0.0936,
      "velocity": 114,
      "chip": "ym2612"
    },
    {
      "channel": 0,
      "note": 68,
      "start": 164.8524,
      "duration": 0.0309,
      "velocity": 114,
      "chip": "ym2612"
    },
    {
      "channel": 3,
      "note": 69,
      "start": 164.8527,
      "duration": 0.109,
      "velocity": 94,
      "chip": "ym2612"
    },
    {
      "channel": 5,
      "note": 74,
      "start": 164.8529,
      "duration": 0.109,
      "velocity": 94,
      "chip": "ym2612"
    },
    {
      "channel": 0,
      "note": 98,
      "start": 164.9613,
      "duration": 0.0309,
      "velocity": 114,
      "chip": "ym2612"
    },
    {
      "channel": 1,
      "note": 64,
      "start": 164.9614,
      "duration": 0.2179,
      "velocity": 93,
      "chip": "ym2612"
    },
    {
      "channel": 3,
      "note": 81,
      "start": 164.9616,
      "duration": 0.1089,
      "velocity": 94,
      "chip": "ym2612"
    },
    {
      "channel": 0,
      "note": 98,
      "start": 165.0703,
      "duration": 0.0309,
      "velocity": 114,
      "chip": "ym2612"
    },
    {
      "channel": 3,
      "note": 71,
      "start": 165.0705,
      "duration": 0.109,
      "velocity": 94,
      "chip": "ym2612"
    },
    {
      "channel": 5,
      "note": 76,
      "start": 165.0707,
      "duration": 0.1091,
      "velocity": 94,
      "chip": "ym2612"
    },
    {
      "channel": 0,
      "note": 98,
      "start": 165.1792,
      "duration": 0.1089,
      "velocity": 127,
      "chip": "ym2612"
    },
    {
      "channel": 1,
      "note": 64,
      "start": 165.1793,
      "duration": 0.2179,
      "velocity": 93,
      "chip": "ym2612"
    },
    {
      "channel": 3,
      "note": 74,
      "start": 165.1795,
      "duration": 0.1089,
      "velocity": 94,
      "chip": "ym2612"
    },
    {
      "channel": 5,
      "note": 78,
      "start": 165.1798,
      "duration": 0.1088,
      "velocity": 94,
      "chip": "ym2612"
    },
    {
      "channel": 0,
      "note": 54,
      "start": 165.2881,
      "duration": 0.0154,
      "velocity": 127,
      "chip": "ym2612"
    },
    {
      "channel": 5,
      "note": 81,
      "start": 165.2886,
      "duration": 0.109,
      "velocity": 94,
      "chip": "ym2612"
    },
    {
      "channel": 0,
      "note": 76,
      "start": 165.3035,
      "duration": 0.0936,
      "velocity": 114,
      "chip": "ym2612"
    },
    {
      "channel": 0,
      "note": 68,
      "start": 165.3971,
      "duration": 0.0309,
      "velocity": 114,
      "chip": "ym2612"
    },
    {
      "channel": 1,
      "note": 64,
      "start": 165.3972,
      "duration": 0.2179,
      "velocity": 93,
      "chip": "ym2612"
    },
    {
      "channel": 3,
      "note": 76,
      "start": 165.3974,
      "duration": 0.1089,
      "velocity": 94,
      "chip": "ym2612"
    },
    {
      "channel": 5,
      "note": 69,
      "start": 165.3976,
      "duration": 0.1089,
      "velocity": 94,
      "chip": "ym2612"
    },
    {
      "channel": 0,
      "note": 98,
      "start": 165.506,
      "duration": 0.0309,
      "velocity": 114,
      "chip": "ym2612"
    },
    {
      "channel": 5,
      "note": 74,
      "start": 165.5065,
      "duration": 0.1091,
      "velocity": 94,
      "chip": "ym2612"
    },
    {
      "channel": 0,
      "note": 98,
      "start": 165.615,
      "duration": 0.1091,
      "velocity": 114,
      "chip": "ym2612"
    },
    {
      "channel": 1,
      "note": 64,
      "start": 165.6151,
      "duration": 0.2178,
      "velocity": 93,
      "chip": "ym2612"
    },
    {
      "channel": 2,
      "note": 52,
      "start": 165.6152,
      "duration": 3.0504,
      "velocity": 121,
      "chip": "ym2612"
    },
    {
      "channel": 3,
      "note": 78,
      "start": 165.6154,
      "duration": 0.1089,
      "velocity": 94,
      "chip": "ym2612"
    },
    {
      "channel": 0,
      "note": 54,
      "start": 165.7241,
      "duration": 0.0307,
      "velocity": 114,
      "chip": "ym2612"
    },
    {
      "channel": 3,
      "note": 81,
      "start": 165.7243,
      "duration": 0.1088,
      "velocity": 94,
      "chip": "ym2612"
    },
    {
      "channel": 5,
      "note": 76,
      "start": 165.7246,
      "duration": 0.1088,
      "velocity": 94,
      "chip": "ym2612"
    },
    {
      "channel": 4,
      "note": 52,
      "start": 165.8018,
      "duration": 3.0504,
      "velocity": 121,
      "chip": "ym2612"
    },
    {
      "channel": 0,
      "note": 98,
      "start": 165.8329,
      "duration": 0.0309,
      "velocity": 114,
      "chip": "ym2612"
    },
    {
      "channel": 1,
      "note": 62,
      "start": 165.833,
      "duration": 0.2179,
      "velocity": 93,
      "chip": "ym2612"
    },
    {
      "channel": 3,
      "note": 69,
      "start": 165.8332,
      "duration": 0.1089,
      "velocity": 94,
      "chip": "ym2612"
    },
    {
      "channel": 5,
      "note": 81,
      "start": 165.8334,
      "duration": 0.1089,
      "velocity": 94,
      "chip": "ym2612"
    },
    {
      "channel": 0,
      "note": 98,
      "start": 165.9418,
      "duration": 0.0309,
      "velocity": 114,
      "chip": "ym2612"
    },
    {
      "channel": 3,
      "note": 74,
      "start": 165.9421,
      "duration": 0.109,
      "velocity": 94,
      "chip": "ym2612"
    },
    {
      "channel": 5,
      "note": 69,
      "start": 165.9423,
      "duration": 0.109,
      "velocity": 94,
      "chip": "ym2612"
    },
    {
      "channel": 0,
      "note": 98,
      "start": 166.0507,
      "duration": 0.0154,
      "velocity": 127,
      "chip": "ym2612"
    },
    {
      "channel": 1,
      "note": 62,
      "start": 166.0509,
      "duration": 0.2179,
      "velocity": 93,
      "chip": "ym2612"
    },
    {
      "channel": 5,
      "note": 81,
      "start": 166.0513,
      "duration": 0.1089,
      "velocity": 94,
      "chip": "ym2612"
    },
    {
      "channel": 0,
      "note": 76,
      "start": 166.0661,
      "duration": 0.0936,
      "velocity": 114,
      "chip": "ym2612"
    },
    {
      "channel": 0,
      "note": 68,
      "start": 166.1597,
      "duration": 0.0309,
      "velocity": 114,
      "chip": "ym2612"
    },
    {
      "channel": 3,
      "note": 76,
      "start": 166.16,
      "duration": 0.109,
      "velocity": 94,
      "chip": "ym2612"
    },
    {
      "channel": 5,
      "note": 71,
      "start": 166.1602,
      "duration": 0.109,
      "velocity": 94,
      "chip": "ym2612"
    },
    {
      "channel": 0,
      "note": 98,
      "start": 166.2686,
      "duration": 0.0309,
      "velocity": 114,
      "chip": "ym2612"
    },
    {
      "channel": 1,
      "note": 62,
      "start": 166.2687,
      "duration": 0.2179,
      "velocity": 93,
      "chip": "ym2612"
    },
    {
      "channel": 3,
      "note": 81,
      "start": 166.2689,
      "duration": 0.1089,
      "velocity": 94,
      "chip": "ym2612"
    },
    {
      "channel": 5,
      "note": 74,
      "start": 166.2692,
      "duration": 0.1089,
      "velocity": 94,
      "chip": "ym2612"
    },
    {
      "channel": 0,
      "note": 98,
      "start": 166.3776,
      "duration": 0.0309,
      "velocity": 114,
      "chip": "ym2612"
    },
    {
      "channel": 3,
      "note": 69,
      "start": 166.3778,
      "duration": 0.109,
      "velocity": 94,
      "chip": "ym2612"
    },
    {
      "channel": 0,
      "note": 98,
      "start": 166.4865,
      "duration": 0.1089,
      "velocity": 114,
      "chip": "ym2612"
    },
    {
      "channel": 1,
      "note": 62,
      "start": 166.4866,
      "duration": 0.2178,
      "velocity": 93,
      "chip": "ym2612"
    },
    {
      "channel": 3,
      "note": 81,
      "start": 166.4868,
      "duration": 0.1089,
      "velocity": 94,
      "chip": "ym2612"
    },
    {
      "channel": 5,
      "note": 76,
      "start": 166.4871,
      "duration": 0.1089,
      "velocity": 94,
      "chip": "ym2612"
    },
    {
      "channel": 0,
      "note": 54,
      "start": 166.5954,
      "duration": 0.0309,
      "velocity": 114,
      "chip": "ym2612"
    },
    {
      "channel": 3,
      "note": 71,
      "start": 166.5957,
      "duration": 0.109,
      "velocity": 94,
      "chip": "ym2612"
    },
    {
      "channel": 5,
      "note": 78,
      "start": 166.596,
      "duration": 0.1089,
      "velocity": 94,
      "chip": "ym2612"
    },
    {
      "channel": 0,
      "note": 98,
      "start": 166.7044,
      "duration": 0.0309,
      "velocity": 114,
      "chip": "ym2612"
    },
    {
      "channel": 1,
      "note": 62,
      "start": 166.7045,
      "duration": 0.2179,
      "velocity": 93,
      "chip": "ym2612"
    },
    {
      "channel": 3,
      "note": 74,
      "start": 166.7047,
      "duration": 0.1089,
      "velocity": 94,
      "chip": "ym2612"
    },
    {
      "channel": 5,
      "note": 81,
      "start": 166.7049,
      "duration": 0.1088,
      "velocity": 94,
      "chip": "ym2612"
    },
    {
      "channel": 0,
      "note": 98,
      "start": 166.8133,
      "duration": 0.0309,
      "velocity": 114,
      "chip": "ym2612"
    },
    {
      "channel": 5,
      "note": 69,
      "start": 166.8138,
      "duration": 0.109,
      "velocity": 94,
      "chip": "ym2612"
    },
    {
      "channel": 0,
      "note": 98,
      "start": 166.9223,
      "duration": 0.0154,
      "velocity": 127,
      "chip": "ym2612"
    },
    {
      "channel": 1,
      "note": 62,
      "start": 166.9224,
      "duration": 0.218,
      "velocity": 93,
      "chip": "ym2612"
    },
    {
      "channel": 3,
      "note": 76,
      "start": 166.9226,
      "duration": 0.1089,
      "velocity": 94,
      "chip": "ym2612"
    },
    {
      "channel": 5,
      "note": 74,
      "start": 166.9228,
      "duration": 0.1088,
      "velocity": 94,
      "chip": "ym2612"
    },
    {
      "channel": 0,
      "note": 76,
      "start": 166.9376,
      "duration": 0.0936,
      "velocity": 114,
      "chip": "ym2612"
    },
    {
      "channel": 0,
      "note": 68,
      "start": 167.0312,
      "duration": 0.0309,
      "velocity": 114,
      "chip": "ym2612"
    },
    {
      "channel": 0,
      "note": 98,
      "start": 167.1402,
      "duration": 0.0309,
      "velocity": 114,
      "chip": "ym2612"
    },
    {
      "channel": 1,
      "note": 62,
      "start": 167.1404,
      "duration": 0.2178,
      "velocity": 93,
      "chip": "ym2612"
    },
    {
      "channel": 3,
      "note": 78,
      "start": 167.1407,
      "duration": 0.1086,
      "velocity": 94,
      "chip": "ym2612"
    },
    {
      "channel": 5,
      "note": 76,
      "start": 167.1409,
      "duration": 0.1087,
      "velocity": 94,
      "chip": "ym2612"
    },
    {
      "channel": 0,
      "note": 98,
      "start": 167.2491,
      "duration": 0.0309,
      "velocity": 114,
      "chip": "ym2612"
    },
    {
      "channel": 3,
      "note": 81,
      "start": 167.2494,
      "duration": 0.109,
      "velocity": 94,
      "chip": "ym2612"
    },
    {
      "channel": 5,
      "note": 81,
      "start": 167.2496,
      "duration": 0.109,
      "velocity": 94,
      "chip": "ym2612"
    },
    {
      "channel": 0,
      "note": 98,
      "start": 167.358,
      "duration": 0.1089,
      "velocity": 114,
      "chip": "ym2612"
    },
    {
      "channel": 1,
      "note": 62,
      "start": 167.3582,
      "duration": 0.2178,
      "velocity": 93,
      "chip": "ym2612"
    },
    {
      "channel": 3,
      "note": 69,
      "start": 167.3584,
      "duration": 0.1089,
      "velocity": 94,
      "chip": "ym2612"
    },
    {
      "channel": 5,
      "note": 69,
      "start": 167.3586,
      "duration": 0.1089,
      "velocity": 94,
      "chip": "ym2612"
    },
    {
      "channel": 0,
      "note": 54,
      "start": 167.467,
      "duration": 0.0309,
      "velocity": 114,
      "chip": "ym2612"
    },
    {
      "channel": 3,
      "note": 74,
      "start": 167.4673,
      "duration": 0.109,
      "velocity": 94,
      "chip": "ym2612"
    },
    {
      "channel": 5,
      "note": 81,
      "start": 167.4675,
      "duration": 0.1089,
      "velocity": 94,
      "chip": "ym2612"
    },
    {
      "channel": 0,
      "note": 98,
      "start": 167.5759,
      "duration": 0.0309,
      "velocity": 114,
      "chip": "ym2612"
    },
    {
      "channel": 1,
      "note": 62,
      "start": 167.576,
      "duration": 0.2179,
      "velocity": 93,
      "chip": "ym2612"
    },
    {
      "channel": 5,
      "note": 71,
      "start": 167.5764,
      "duration": 0.1089,
      "velocity": 94,
      "chip": "ym2612"
    },
    {
      "channel": 0,
      "note": 98,
      "start": 167.6849,
      "duration": 0.0309,
      "velocity": 114,
      "chip": "ym2612"
    },
    {
      "channel": 3,
      "note": 76,
      "start": 167.6851,
      "duration": 0.109,
      "velocity": 94,
      "chip": "ym2612"
    },
    {
      "channel": 5,
      "note": 74,
      "start": 167.6854,
      "duration": 0.109,
      "velocity": 94,
      "chip": "ym2612"
    },
    {
      "channel": 0,
      "note": 98,
      "start": 167.7938,
      "duration": 0.0154,
      "velocity": 127,
      "chip": "ym2612"
    },
    {
      "channel": 1,
      "note": 62,
      "start": 167.7939,
      "duration": 0.2178,
      "velocity": 93,
      "chip": "ym2612"
    },
    {
      "channel": 3,
      "note": 81,
      "start": 167.7941,
      "duration": 0.1089,
      "velocity": 94,
      "chip": "ym2612"
    },
    {
      "channel": 0,
      "note": 76,
      "start": 167.8092,
      "duration": 0.0936,
      "velocity": 114,
      "chip": "ym2612"
    },
    {
      "channel": 0,
      "note": 68,
      "start": 167.9027,
      "duration": 0.0309,
      "velocity": 114,
      "chip": "ym2612"
    },
    {
      "channel": 3,
      "note": 69,
      "start": 167.903,
      "duration": 0.109,
      "velocity": 94,
      "chip": "ym2612"
    },
    {
      "channel": 5,
      "note": 76,
      "start": 167.9032,
      "duration": 0.109,
      "velocity": 94,
      "chip": "ym2612"
    },
    {
      "channel": 0,
      "note": 98,
      "start": 168.0117,
      "duration": 0.0309,
      "velocity": 114,
      "chip": "ym2612"
    },
    {
      "channel": 1,
      "note": 62,
      "start": 168.0118,
      "duration": 0.2179,
      "velocity": 93,
      "chip": "ym2612"
    },
    {
      "channel": 3,
      "note": 81,
      "start": 168.012,
      "duration": 0.1089,
      "velocity": 94,
      "chip": "ym2612"
    },
    {
      "channel": 5,
      "note": 78,
      "start": 168.0123,
      "duration": 0.1088,
      "velocity": 94,
      "chip": "ym2612"
    },
    {
      "channel": 0,
      "note": 98,
      "start": 168.1206,
      "duration": 0.0309,
      "velocity": 114,
      "chip": "ym2612"
    },
    {
      "channel": 3,
      "note": 71,
      "start": 168.1209,
      "duration": 0.109,
      "velocity": 94,
      "chip": "ym2612"
    },
    {
      "channel": 5,
      "note": 81,
      "start": 168.1211,
      "duration": 0.109,
      "velocity": 94,
      "chip": "ym2612"
    },
    {
      "channel": 0,
      "note": 98,
      "start": 168.2296,
      "duration": 0.1089,
      "velocity": 127,
      "chip": "ym2612"
    },
    {
      "channel": 1,
      "note": 62,
      "start": 168.2297,
      "duration": 0.2178,
      "velocity": 93,
      "chip": "ym2612"
    },
    {
      "channel": 3,
      "note": 74,
      "start": 168.2299,
      "duration": 0.1089,
      "velocity": 94,
      "chip": "ym2612"
    },
    {
      "channel": 5,
      "note": 69,
      "start": 168.2302,
      "duration": 0.1088,
      "velocity": 94,
      "chip": "ym2612"
    },
    {
      "channel": 0,
      "note": 54,
      "start": 168.3385,
      "duration": 0.0154,
      "velocity": 127,
      "chip": "ym2612"
    },
    {
      "channel": 5,
      "note": 74,
      "start": 168.339,
      "duration": 0.109,
      "velocity": 94,
      "chip": "ym2612"
    },
    {
      "channel": 0,
      "note": 76,
      "start": 168.3539,
      "duration": 0.0936,
      "velocity": 114,
      "chip": "ym2612"
    },
    {
      "channel": 0,
      "note": 68,
      "start": 168.4475,
      "duration": 0.0309,
      "velocity": 114,
      "chip": "ym2612"
    },
    {
      "channel": 1,
      "note": 62,
      "start": 168.4476,
      "duration": 0.2179,
      "velocity": 93,
      "chip": "ym2612"
    },
    {
      "channel": 3,
      "note": 76,
      "start": 168.4478,
      "duration": 0.1089,
      "velocity": 94,
      "chip": "ym2612"
    },
    {
      "channel": 0,
      "note": 98,
      "start": 168.5564,
      "duration": 0.0309,
      "velocity": 114,
      "chip": "ym2612"
    },
    {
      "channel": 5,
      "note": 76,
      "start": 168.5569,
      "duration": 0.1092,
      "velocity": 94,
      "chip": "ym2612"
    },
    {
      "channel": 0,
      "note": 98,
      "start": 168.6654,
      "duration": 0.1089,
      "velocity": 114,
      "chip": "ym2612"
    },
    {
      "channel": 1,
      "note": 62,
      "start": 168.6655,
      "duration": 0.2178,
      "velocity": 93,
      "chip": "ym2612"
    },
    {
      "channel": 2,
      "note": 50,
      "start": 168.6656,
      "duration": 3.0503,
      "velocity": 121,
      "chip": "ym2612"
    },
    {
      "channel": 3,
      "note": 78,
      "start": 168.6658,
      "duration": 0.1088,
      "velocity": 94,
      "chip": "ym2612"
    },
    {
      "channel": 5,
      "note": 81,
      "start": 168.666,
      "duration": 0.1087,
      "velocity": 94,
      "chip": "ym2612"
    },
    {
      "channel": 0,
      "note": 54,
      "start": 168.7743,
      "duration": 0.0309,
      "velocity": 114,
      "chip": "ym2612"
    },
    {
      "channel": 3,
      "note": 81,
      "start": 168.7745,
      "duration": 0.109,
      "velocity": 94,
      "chip": "ym2612"
    },
    {
      "channel": 5,
      "note": 69,
      "start": 168.7748,
      "duration": 0.109,
      "velocity": 94,
      "chip": "ym2612"
    },
    {
      "channel": 4,
      "note": 50,
      "start": 168.8522,
      "duration": 3.0504,
      "velocity": 121,
      "chip": "ym2612"
    },
    {
      "channel": 0,
      "note": 98,
      "start": 168.8832,
      "duration": 0.0309,
      "velocity": 114,
      "chip": "ym2612"
    },
    {
      "channel": 1,
      "note": 59,
      "start": 168.8833,
      "duration": 0.2179,
      "velocity": 93,
      "chip": "ym2612"
    },
    {
      "channel": 3,
      "note": 69,
      "start": 168.8835,
      "duration": 0.1089,
      "velocity": 94,
      "chip": "ym2612"
    },
    {
      "channel": 5,
      "note": 81,
      "start": 168.8837,
      "duration": 0.1089,
      "velocity": 94,
      "chip": "ym2612"
    },
    {
      "channel": 0,
      "note": 98,
      "start": 168.9922,
      "duration": 0.0309,
      "velocity": 114,
      "chip": "ym2612"
    },
    {
      "channel": 3,
      "note": 74,
      "start": 168.9924,
      "duration": 0.109,
      "velocity": 94,
      "chip": "ym2612"
    },
    {
      "channel": 5,
      "note": 71,
      "start": 168.9927,
      "duration": 0.109,
      "velocity": 94,
      "chip": "ym2612"
    },
    {
      "channel": 0,
      "note": 98,
      "start": 169.1011,
      "duration": 0.0154,
      "velocity": 127,
      "chip": "ym2612"
    },
    {
      "channel": 1,
      "note": 59,
      "start": 169.1012,
      "duration": 0.2178,
      "velocity": 93,
      "chip": "ym2612"
    },
    {
      "channel": 5,
      "note": 74,
      "start": 169.1017,
      "duration": 0.1089,
      "velocity": 94,
      "chip": "ym2612"
    },
    {
      "channel": 0,
      "note": 76,
      "start": 169.1165,
      "duration": 0.0936,
      "velocity": 114,
      "chip": "ym2612"
    },
    {
      "channel": 0,
      "note": 68,
      "start": 169.21,
      "duration": 0.0309,
      "velocity": 114,
      "chip": "ym2612"
    },
    {
      "channel": 3,
      "note": 76,
      "start": 169.2103,
      "duration": 0.109,
      "velocity": 94,
      "chip": "ym2612"
    },
    {
      "channel": 0,
      "note": 98,
      "start": 169.319,
      "duration": 0.0309,
      "velocity": 114,
      "chip": "ym2612"
    },
    {
      "channel": 1,
      "note": 59,
      "start": 169.3191,
      "duration": 0.2179,
      "velocity": 93,
      "chip": "ym2612"
    },
    {
      "channel": 3,
      "note": 81,
      "start": 169.3193,
      "duration": 0.1089,
      "velocity": 94,
      "chip": "ym2612"
    },
    {
      "channel": 5,
      "note": 76,
      "start": 169.3195,
      "duration": 0.109,
      "velocity": 94,
      "chip": "ym2612"
    },
    {
      "channel": 0,
      "note": 98,
      "start": 169.4279,
      "duration": 0.0309,
      "velocity": 114,
      "chip": "ym2612"
    },
    {
      "channel": 3,
      "note": 69,
      "start": 169.4282,
      "duration": 0.109,
      "velocity": 94,
      "chip": "ym2612"
    },
    {
      "channel": 5,
      "note": 78,
      "start": 169.4285,
      "duration": 0.109,
      "velocity": 94,
      "chip": "ym2612"
    },
    {
      "channel": 0,
      "note": 98,
      "start": 169.5369,
      "duration": 0.1089,
      "velocity": 114,
      "chip": "ym2612"
    },
    {
      "channel": 1,
      "note": 59,
      "start": 169.537,
      "duration": 0.2178,
      "velocity": 93,
      "chip": "ym2612"
    },
    {
      "channel": 3,
      "note": 81,
      "start": 169.5372,
      "duration": 0.1089,
      "velocity": 94,
      "chip": "ym2612"
    },
    {
      "channel": 5,
      "note": 81,
      "start": 169.5375,
      "duration": 0.1089,
      "velocity": 94,
      "chip": "ym2612"
    },
    {
      "channel": 0,
      "note": 54,
      "start": 169.6458,
      "duration": 0.0309,
      "velocity": 114,
      "chip": "ym2612"
    },
    {
      "channel": 3,
      "note": 71,
      "start": 169.6461,
      "duration": 0.109,
      "velocity": 94,
      "chip": "ym2612"
    },
    {
      "channel": 5,
      "note": 69,
      "start": 169.6463,
      "duration": 0.109,
      "velocity": 94,
      "chip": "ym2612"
    },
    {
      "channel": 0,
      "note": 98,
      "start": 169.7548,
      "duration": 0.0309,
      "velocity": 114,
      "chip": "ym2612"
    },
    {
      "channel": 1,
      "note": 59,
      "start": 169.7549,
      "duration": 0.2179,
      "velocity": 93,
      "chip": "ym2612"
    },
    {
      "channel": 3,
      "note": 74,
      "start": 169.7551,
      "duration": 0.1089,
      "velocity": 94,
      "chip": "ym2612"
    },
    {
      "channel": 5,
      "note": 74,
      "start": 169.7553,
      "duration": 0.1088,
      "velocity": 94,
      "chip": "ym2612"
    },
    {
      "channel": 0,
      "note": 98,
      "start": 169.8637,
      "duration": 0.0309,
      "velocity": 114,
      "chip": "ym2612"
    },
    {
      "channel": 0,
      "note": 98,
      "start": 169.9726,
      "duration": 0.0154,
      "velocity": 127,
      "chip": "ym2612"
    },
    {
      "channel": 1,
      "note": 59,
      "start": 169.9728,
      "duration": 0.218,
      "velocity": 93,
      "chip": "ym2612"
    },
    {
      "channel": 3,
      "note": 76,
      "start": 169.9729,
      "duration": 0.1089,
      "velocity": 94,
      "chip": "ym2612"
    },
    {
      "channel": 5,
      "note": 76,
      "start": 169.9732,
      "duration": 0.1089,
      "velocity": 94,
      "chip": "ym2612"
    },
    {
      "channel": 0,
      "note": 76,
      "start": 169.988,
      "duration": 0.0936,
      "velocity": 114,
      "chip": "ym2612"
    },
    {
      "channel": 0,
      "note": 68,
      "start": 170.0816,
      "duration": 0.0309,
      "velocity": 114,
      "chip": "ym2612"
    },
    {
      "channel": 5,
      "note": 81,
      "start": 170.0821,
      "duration": 0.1092,
      "velocity": 94,
      "chip": "ym2612"
    },
    {
      "channel": 0,
      "note": 98,
      "start": 170.1907,
      "duration": 0.0307,
      "velocity": 114,
      "chip": "ym2612"
    },
    {
      "channel": 1,
      "note": 59,
      "start": 170.1908,
      "duration": 0.2178,
      "velocity": 93,
      "chip": "ym2612"
    },
    {
      "channel": 3,
      "note": 78,
      "start": 170.1911,
      "duration": 0.1087,
      "velocity": 94,
      "chip": "ym2612"
    },
    {
      "channel": 5,
      "note": 69,
      "start": 170.1913,
      "duration": 0.1086,
      "velocity": 94,
      "chip": "ym2612"
    },
    {
      "channel": 0,
      "note": 98,
      "start": 170.2995,
      "duration": 0.0309,
      "velocity": 114,
      "chip": "ym2612"
    },
    {
      "channel": 3,
      "note": 81,
      "start": 170.2997,
      "duration": 0.109,
      "velocity": 94,
      "chip": "ym2612"
    },
    {
      "channel": 5,
      "note": 81,
      "start": 170.3,
      "duration": 0.109,
      "velocity": 94,
      "chip": "ym2612"
    },
    {
      "channel": 0,
      "note": 98,
      "start": 170.4084,
      "duration": 0.1089,
      "velocity": 114,
      "chip": "ym2612"
    },
    {
      "channel": 1,
      "note": 59,
      "start": 170.4085,
      "duration": 0.2178,
      "velocity": 93,
      "chip": "ym2612"
    },
    {
      "channel": 3,
      "note": 69,
      "start": 170.4088,
      "duration": 0.1089,
      "velocity": 94,
      "chip": "ym2612"
    },
    {
      "channel": 5,
      "note": 71,
      "start": 170.409,
      "duration": 0.1089,
      "velocity": 94,
      "chip": "ym2612"
    },
    {
      "channel": 0,
      "note": 54,
      "start": 170.5173,
      "duration": 0.0309,
      "velocity": 114,
      "chip": "ym2612"
    },
    {
      "channel": 3,
      "note": 74,
      "start": 170.5176,
      "duration": 0.109,
      "velocity": 94,
      "chip": "ym2612"
    },
    {
      "channel": 5,
      "note": 74,
      "start": 170.5179,
      "duration": 0.1089,
      "velocity": 94,
      "chip": "ym2612"
    },
    {
      "channel": 0,
      "note": 98,
      "start": 170.6263,
      "duration": 0.0309,
      "velocity": 114,
      "chip": "ym2612"
    },
    {
      "channel": 1,
      "note": 59,
      "start": 170.6264,
      "duration": 0.2179,
      "velocity": 93,
      "chip": "ym2612"
    },
    {
      "channel": 0,
      "note": 98,
      "start": 170.7352,
      "duration": 0.0309,
      "velocity": 114,
      "chip": "ym2612"
    },
    {
      "channel": 3,
      "note": 76,
      "start": 170.7355,
      "duration": 0.109,
      "velocity": 94,
      "chip": "ym2612"
    },
    {
      "channel": 5,
      "note": 76,
      "start": 170.7357,
      "duration": 0.1091,
      "velocity": 94,
      "chip": "ym2612"
    },
    {
      "channel": 0,
      "note": 98,
      "start": 170.8442,
      "duration": 0.0154,
      "velocity": 127,
      "chip": "ym2612"
    },
    {
      "channel": 1,
      "note": 59,
      "start": 170.8443,
      "duration": 0.2178,
      "velocity": 93,
      "chip": "ym2612"
    },
    {
      "channel": 3,
      "note": 81,
      "start": 170.8445,
      "duration": 0.1089,
      "velocity": 94,
      "chip": "ym2612"
    },
    {
      "channel": 5,
      "note": 78,
      "start": 170.8448,
      "duration": 0.1088,
      "velocity": 94,
      "chip": "ym2612"
    },
    {
      "channel": 0,
      "note": 76,
      "start": 170.8595,
      "duration": 0.0936,
      "velocity": 114,
      "chip": "ym2612"
    },
    {
      "channel": 0,
      "note": 68,
      "start": 170.9531,
      "duration": 0.0309,
      "velocity": 114,
      "chip": "ym2612"
    },
    {
      "channel": 3,
      "note": 69,
      "start": 170.9534,
      "duration": 0.109,
      "velocity": 94,
      "chip": "ym2612"
    },
    {
      "channel": 5,
      "note": 81,
      "start": 170.9536,
      "duration": 0.109,
      "velocity": 94,
      "chip": "ym2612"
    },
    {
      "channel": 0,
      "note": 98,
      "start": 171.0621,
      "duration": 0.0309,
      "velocity": 114,
      "chip": "ym2612"
    },
    {
      "channel": 1,
      "note": 59,
      "start": 171.0622,
      "duration": 0.2179,
      "velocity": 93,
      "chip": "ym2612"
    },
    {
      "channel": 3,
      "note": 81,
      "start": 171.0624,
      "duration": 0.1089,
      "velocity": 94,
      "chip": "ym2612"
    },
    {
      "channel": 5,
      "note": 69,
      "start": 171.0626,
      "duration": 0.1089,
      "velocity": 94,
      "chip": "ym2612"
    },
    {
      "channel": 0,
      "note": 98,
      "start": 171.171,
      "duration": 0.0309,
      "velocity": 114,
      "chip": "ym2612"
    },
    {
      "channel": 3,
      "note": 71,
      "start": 171.1713,
      "duration": 0.109,
      "velocity": 94,
      "chip": "ym2612"
    },
    {
      "channel": 5,
      "note": 74,
      "start": 171.1715,
      "duration": 0.109,
      "velocity": 94,
      "chip": "ym2612"
    },
    {
      "channel": 0,
      "note": 98,
      "start": 171.28,
      "duration": 0.1089,
      "velocity": 127,
      "chip": "ym2612"
    },
    {
      "channel": 1,
      "note": 59,
      "start": 171.2801,
      "duration": 0.2178,
      "velocity": 93,
      "chip": "ym2612"
    },
    {
      "channel": 3,
      "note": 74,
      "start": 171.2803,
      "duration": 0.1089,
      "velocity": 94,
      "chip": "ym2612"
    },
    {
      "channel": 0,
      "note": 54,
      "start": 171.3889,
      "duration": 0.0154,
      "velocity": 127,
      "chip": "ym2612"
    },
    {
      "channel": 5,
      "note": 76,
      "start": 171.3894,
      "duration": 0.109,
      "velocity": 94,
      "chip": "ym2612"
    },
    {
      "channel": 0,
      "note": 76,
      "start": 171.4042,
      "duration": 0.0936,
      "velocity": 114,
      "chip": "ym2612"
    },
    {
      "channel": 0,
      "note": 68,
      "start": 171.4978,
      "duration": 0.0309,
      "velocity": 114,
      "chip": "ym2612"
    },
    {
      "channel": 1,
      "note": 59,
      "start": 171.4979,
      "duration": 0.2179,
      "velocity": 93,
      "chip": "ym2612"
    },
    {
      "channel": 3,
      "note": 76,
      "start": 171.4981,
      "duration": 0.109,
      "velocity": 94,
      "chip": "ym2612"
    },
    {
      "channel": 5,
      "note": 81,
      "start": 171.4984,
      "duration": 0.109,
      "velocity": 94,
      "chip": "ym2612"
    },
    {
      "channel": 0,
      "note": 98,
      "start": 171.6068,
      "duration": 0.0309,
      "velocity": 114,
      "chip": "ym2612"
    },
    {
      "channel": 5,
      "note": 69,
      "start": 171.6074,
      "duration": 0.109,
      "velocity": 94,
      "chip": "ym2612"
    },
    {
      "channel": 0,
      "note": 98,
      "start": 171.7157,
      "duration": 0.1089,
      "velocity": 114,
      "chip": "ym2612"
    },
    {
      "channel": 1,
      "note": 59,
      "start": 171.7159,
      "duration": 0.2178,
      "velocity": 93,
      "chip": "ym2612"
    },
    {
      "channel": 2,
      "note": 47,
      "start": 171.716,
      "duration": 3.0504,
      "velocity": 121,
      "chip": "ym2612"
    },
    {
      "channel": 3,
      "note": 78,
      "start": 171.7162,
      "duration": 0.1087,
      "velocity": 94,
      "chip": "ym2612"
    },
    {
      "channel": 5,
      "note": 81,
      "start": 171.7164,
      "duration": 0.1087,
      "velocity": 94,
      "chip": "ym2612"
    },
    {
      "channel": 0,
      "note": 54,
      "start": 171.8246,
      "duration": 0.0309,
      "velocity": 114,
      "chip": "ym2612"
    },
    {
      "channel": 3,
      "note": 81,
      "start": 171.8249,
      "duration": 0.109,
      "velocity": 94,
      "chip": "ym2612"
    },
    {
      "channel": 5,
      "note": 71,
      "start": 171.8251,
      "duration": 0.109,
      "velocity": 94,
      "chip": "ym2612"
    },
    {
      "channel": 4,
      "note": 47,
      "start": 171.9026,
      "duration": 3.0504,
      "velocity": 121,
      "chip": "ym2612"
    },
    {
      "channel": 0,
      "note": 98,
      "start": 171.9336,
      "duration": 0.0309,
      "velocity": 114,
      "chip": "ym2612"
    },
    {
      "channel": 1,
      "note": 64,
      "start": 171.9337,
      "duration": 0.2179,
      "velocity": 93,
      "chip": "ym2612"
    },
    {
      "channel": 3,
      "note": 69,
      "start": 171.9339,
      "duration": 0.1089,
      "velocity": 94,
      "chip": "ym2612"
    },
    {
      "channel": 5,
      "note": 74,
      "start": 171.9341,
      "duration": 0.1089,
      "velocity": 94,
      "chip": "ym2612"
    },
    {
      "channel": 0,
      "note": 98,
      "start": 172.0425,
      "duration": 0.0309,
      "velocity": 114,
      "chip": "ym2612"
    },
    {
      "channel": 3,
      "note": 74,
      "start": 172.0428,
      "duration": 0.109,
      "velocity": 94,
      "chip": "ym2612"
    },
    {
      "channel": 0,
      "note": 98,
      "start": 172.1515,
      "duration": 0.0154,
      "velocity": 127,
      "chip": "ym2612"
    },
    {
      "channel": 1,
      "note": 64,
      "start": 172.1516,
      "duration": 0.2178,
      "velocity": 93,
      "chip": "ym2612"
    },
    {
      "channel": 5,
      "note": 76,
      "start": 172.152,
      "duration": 0.109,
      "velocity": 94,
      "chip": "ym2612"
    },
    {
      "channel": 0,
      "note": 76,
      "start": 172.1668,
      "duration": 0.0936,
      "velocity": 114,
      "chip": "ym2612"
    },
    {
      "channel": 0,
      "note": 68,
      "start": 172.2604,
      "duration": 0.0309,
      "velocity": 114,
      "chip": "ym2612"
    },
    {
      "channel": 3,
      "note": 76,
      "start": 172.2607,
      "duration": 0.109,
      "velocity": 94,
      "chip": "ym2612"
    },
    {
      "channel": 5,
      "note": 78,
      "start": 172.261,
      "duration": 0.1089,
      "velocity": 94,
      "chip": "ym2612"
    },
    {
      "channel": 0,
      "note": 98,
      "start": 172.3694,
      "duration": 0.0309,
      "velocity": 114,
      "chip": "ym2612"
    },
    {
      "channel": 1,
      "note": 64,
      "start": 172.3695,
      "duration": 0.2179,
      "velocity": 93,
      "chip": "ym2612"
    },
    {
      "channel": 3,
      "note": 81,
      "start": 172.3697,
      "duration": 0.1089,
      "velocity": 94,
      "chip": "ym2612"
    },
    {
      "channel": 5,
      "note": 81,
      "start": 172.3699,
      "duration": 0.1089,
      "velocity": 94,
      "chip": "ym2612"
    },
    {
      "channel": 0,
      "note": 98,
      "start": 172.4783,
      "duration": 0.0309,
      "velocity": 114,
      "chip": "ym2612"
    },
    {
      "channel": 3,
      "note": 69,
      "start": 172.4785,
      "duration": 0.109,
      "velocity": 94,
      "chip": "ym2612"
    },
    {
      "channel": 5,
      "note": 69,
      "start": 172.4788,
      "duration": 0.109,
      "velocity": 94,
      "chip": "ym2612"
    },
    {
      "channel": 0,
      "note": 98,
      "start": 172.5873,
      "duration": 0.1089,
      "velocity": 114,
      "chip": "ym2612"
    },
    {
      "channel": 1,
      "note": 64,
      "start": 172.5874,
      "duration": 0.2178,
      "velocity": 93,
      "chip": "ym2612"
    },
    {
      "channel": 3,
      "note": 81,
      "start": 172.5876,
      "duration": 0.1089,
      "velocity": 94,
      "chip": "ym2612"
    },
    {
      "channel": 5,
      "note": 74,
      "start": 172.5878,
      "duration": 0.1089,
      "velocity": 94,
      "chip": "ym2612"
    },
    {
      "channel": 0,
      "note": 54,
      "start": 172.6962,
      "duration": 0.0309,
      "velocity": 114,
      "chip": "ym2612"
    },
    {
      "channel": 3,
      "note": 71,
      "start": 172.6965,
      "duration": 0.109,
      "velocity": 94,
      "chip": "ym2612"
    },
    {
      "channel": 0,
      "note": 98,
      "start": 172.8051,
      "duration": 0.0309,
      "velocity": 114,
      "chip": "ym2612"
    },
    {
      "channel": 1,
      "note": 64,
      "start": 172.8052,
      "duration": 0.2179,
      "velocity": 93,
      "chip": "ym2612"
    },
    {
      "channel": 3,
      "note": 74,
      "start": 172.8054,
      "duration": 0.1089,
      "velocity": 94,
      "chip": "ym2612"
    },
    {
      "channel": 5,
      "note": 76,
      "start": 172.8057,
      "duration": 0.1089,
      "velocity": 94,
      "chip": "ym2612"
    },
    {
      "channel": 0,
      "note": 98,
      "start": 172.9141,
      "duration": 0.0309,
      "velocity": 114,
      "chip": "ym2612"
    },
    {
      "channel": 5,
      "note": 81,
      "start": 172.9145,
      "duration": 0.109,
      "velocity": 94,
      "chip": "ym2612"
    },
    {
      "channel": 0,
      "note": 98,
      "start": 173.023,
      "duration": 0.0154,
      "velocity": 127,
      "chip": "ym2612"
    },
    {
      "channel": 1,
      "note": 64,
      "start": 173.0231,
      "duration": 0.2179,
      "velocity": 93,
      "chip": "ym2612"
    },
    {
      "channel": 3,
      "note": 76,
      "start": 173.0233,
      "duration": 0.1089,
      "velocity": 94,
      "chip": "ym2612"
    },
    {
      "channel": 5,
      "note": 69,
      "start": 173.0236,
      "duration": 0.1089,
      "velocity": 94,
      "chip": "ym2612"
    },
    {
      "channel": 0,
      "note": 76,
      "start": 173.0384,
      "duration": 0.0936,
      "velocity": 114,
      "chip": "ym2612"
    },
    {
      "channel": 0,
      "note": 68,
      "start": 173.132,
      "duration": 0.0309,
      "velocity": 114,
      "chip": "ym2612"
    },
    {
      "channel": 5,
      "note": 81,
      "start": 173.1324,
      "duration": 0.109,
      "velocity": 94,
      "chip": "ym2612"
    },
    {
      "channel": 0,
      "note": 98,
      "start": 173.2409,
      "duration": 0.0309,
      "velocity": 114,
      "chip": "ym2612"
    },
    {
      "channel": 1,
      "note": 64,
      "start": 173.241,
      "duration": 0.2179,
      "velocity": 93,
      "chip": "ym2612"
    },
    {
      "channel": 3,
      "note": 78,
      "start": 173.2413,
      "duration": 0.1088,
      "velocity": 94,
      "chip": "ym2612"
    },
    {
      "channel": 5,
      "note": 71,
      "start": 173.2415,
      "duration": 0.1088,
      "velocity": 94,
      "chip": "ym2612"
    },
    {
      "channel": 0,
      "note": 98,
      "start": 173.3498,
      "duration": 0.0309,
      "velocity": 114,
      "chip": "ym2612"
    },
    {
      "channel": 3,
      "note": 81,
      "start": 173.3501,
      "duration": 0.109,
      "velocity": 94,
      "chip": "ym2612"
    },
    {
      "channel": 5,
      "note": 74,
      "start": 173.3503,
      "duration": 0.109,
      "velocity": 94,
      "chip": "ym2612"
    },
    {
      "channel": 0,
      "note": 98,
      "start": 173.4588,
      "duration": 0.1089,
      "velocity": 114,
      "chip": "ym2612"
    },
    {
      "channel": 1,
      "note": 64,
      "start": 173.4589,
      "duration": 0.2178,
      "velocity": 93,
      "chip": "ym2612"
    },
    {
      "channel": 3,
      "note": 69,
      "start": 173.4591,
      "duration": 0.1089,
      "velocity": 94,
      "chip": "ym2612"
    },
    {
      "channel": 0,
      "note": 54,
      "start": 173.5677,
      "duration": 0.0309,
      "velocity": 114,
      "chip": "ym2612"
    },
    {
      "channel": 3,
      "note": 74,
      "start": 173.568,
      "duration": 0.109,
      "velocity": 94,
      "chip": "ym2612"
    },
    {
      "channel": 5,
      "note": 76,
      "start": 173.5682,
      "duration": 0.109,
      "velocity": 94,
      "chip": "ym2612"
    },
    {
      "channel": 0,
      "note": 98,
      "start": 173.6766,
      "duration": 0.0309,
      "velocity": 114,
      "chip": "ym2612"
    },
    {
      "channel": 1,
      "note": 64,
      "start": 173.6768,
      "duration": 0.2179,
      "velocity": 93,
      "chip": "ym2612"
    },
    {
      "channel": 5,
      "note": 78,
      "start": 173.6772,
      "duration": 0.1088,
      "velocity": 94,
      "chip": "ym2612"
    },
    {
      "channel": 0,
      "note": 98,
      "start": 173.7856,
      "duration": 0.0309,
      "velocity": 114,
      "chip": "ym2612"
    },
    {
      "channel": 3,
      "note": 76,
      "start": 173.7859,
      "duration": 0.109,
      "velocity": 94,
      "chip": "ym2612"
    },
    {
      "channel": 5,
      "note": 81,
      "start": 173.7861,
      "duration": 0.109,
      "velocity": 94,
      "chip": "ym2612"
    },
    {
      "channel": 0,
      "note": 98,
      "start": 173.8945,
      "duration": 0.0154,
      "velocity": 127,
      "chip": "ym2612"
    },
    {
      "channel": 1,
      "note": 64,
      "start": 173.8947,
      "duration": 0.2178,
      "velocity": 93,
      "chip": "ym2612"
    },
    {
      "channel": 3,
      "note": 81,
      "start": 173.8949,
      "duration": 0.1089,
      "velocity": 94,
      "chip": "ym2612"
    },
    {
      "channel": 5,
      "note": 69,
      "start": 173.8951,
      "duration": 0.1089,
      "velocity": 94,
      "chip": "ym2612"
    },
    {
      "channel": 0,
      "note": 76,
      "start": 173.9099,
      "duration": 0.0936,
      "velocity": 114,
      "chip": "ym2612"
    },
    {
      "channel": 0,
      "note": 68,
      "start": 174.0035,
      "duration": 0.0309,
      "velocity": 114,
      "chip": "ym2612"
    },
    {
      "channel": 3,
      "note": 69,
      "start": 174.0038,
      "duration": 0.109,
      "velocity": 94,
      "chip": "ym2612"
    },
    {
      "channel": 5,
      "note": 74,
      "start": 174.004,
      "duration": 0.109,
      "velocity": 94,
      "chip": "ym2612"
    },
    {
      "channel": 0,
      "note": 98,
      "start": 174.1124,
      "duration": 0.0309,
      "velocity": 114,
      "chip": "ym2612"
    },
    {
      "channel": 1,
      "note": 64,
      "start": 174.1125,
      "duration": 0.2179,
      "velocity": 93,
      "chip": "ym2612"
    },
    {
      "channel": 3,
      "note": 81,
      "start": 174.1127,
      "duration": 0.1089,
      "velocity": 94,
      "chip": "ym2612"
    },
    {
      "channel": 0,
      "note": 98,
      "start": 174.2214,
      "duration": 0.0309,
      "velocity": 114,
      "chip": "ym2612"
    },
    {
      "channel": 3,
      "note": 71,
      "start": 174.2216,
      "duration": 0.109,
      "velocity": 94,
      "chip": "ym2612"
    },
    {
      "channel": 5,
      "note": 76,
      "start": 174.2219,
      "duration": 0.109,
      "velocity": 94,
      "chip": "ym2612"
    },
    {
      "channel": 0,
      "note": 98,
      "start": 174.3303,
      "duration": 0.1089,
      "velocity": 127,
      "chip": "ym2612"
    },
    {
      "channel": 1,
      "note": 64,
      "start": 174.3305,
      "duration": 0.2178,
      "velocity": 93,
      "chip": "ym2612"
    },
    {
      "channel": 3,
      "note": 74,
      "start": 174.3307,
      "duration": 0.1088,
      "velocity": 94,
      "chip": "ym2612"
    },
    {
      "channel": 5,
      "note": 81,
      "start": 174.3309,
      "duration": 0.1088,
      "velocity": 94,
      "chip": "ym2612"
    },
    {
      "channel": 0,
      "note": 54,
      "start": 174.4392,
      "duration": 0.0154,
      "velocity": 127,
      "chip": "ym2612"
    },
    {
      "channel": 5,
      "note": 69,
      "start": 174.4398,
      "duration": 0.109,
      "velocity": 94,
      "chip": "ym2612"
    },
    {
      "channel": 0,
      "note": 76,
      "start": 174.4546,
      "duration": 0.0936,
      "velocity": 114,
      "chip": "ym2612"
    },
    {
      "channel": 0,
      "note": 68,
      "start": 174.5482,
      "duration": 0.0309,
      "velocity": 114,
      "chip": "ym2612"
    },
    {
      "channel": 1,
      "note": 64,
      "start": 174.5483,
      "duration": 0.2179,
      "velocity": 93,
      "chip": "ym2612"
    },
    {
      "channel": 3,
      "note": 76,
      "start": 174.5485,
      "duration": 0.109,
      "velocity": 94,
      "chip": "ym2612"
    },
    {
      "channel": 5,
      "note": 81,
      "start": 174.5488,
      "duration": 0.109,
      "velocity": 94,
      "chip": "ym2612"
    },
    {
      "channel": 0,
      "note": 98,
      "start": 174.6573,
      "duration": 0.0307,
      "velocity": 114,
      "chip": "ym2612"
    },
    {
      "channel": 5,
      "note": 71,
      "start": 174.6578,
      "duration": 0.109,
      "velocity": 94,
      "chip": "ym2612"
    },
    {
      "channel": 0,
      "note": 98,
      "start": 174.7661,
      "duration": 0.1089,
      "velocity": 114,
      "chip": "ym2612"
    },
    {
      "channel": 1,
      "note": 64,
      "start": 174.7662,
      "duration": 0.2178,
      "velocity": 93,
      "chip": "ym2612"
    },
    {
      "channel": 2,
      "note": 52,
      "start": 174.7663,
      "duration": 3.0504,
      "velocity": 121,
      "chip": "ym2612"
    },
    {
      "channel": 3,
      "note": 78,
      "start": 174.7665,
      "duration": 0.1087,
      "velocity": 94,
      "chip": "ym2612"
    },
    {
      "channel": 5,
      "note": 74,
      "start": 174.7668,
      "duration": 0.1087,
      "velocity": 94,
      "chip": "ym2612"
    },
    {
      "channel": 0,
      "note": 54,
      "start": 174.875,
      "duration": 0.0309,
      "velocity": 114,
      "chip": "ym2612"
    },
    {
      "channel": 3,
      "note": 81,
      "start": 174.8753,
      "duration": 0.109,
      "velocity": 94,
      "chip": "ym2612"
    },
    {
      "channel": 4,
      "note": 52,
      "start": 174.9529,
      "duration": 3.0504,
      "velocity": 121,
      "chip": "ym2612"
    },
    {
      "channel": 0,
      "note": 98,
      "start": 174.9839,
      "duration": 0.0309,
      "velocity": 114,
      "chip": "ym2612"
    },
    {
      "channel": 1,
      "note": 67,
      "start": 174.9841,
      "duration": 0.2179,
      "velocity": 93,
      "chip": "ym2612"
    },
    {
      "channel": 3,
      "note": 69,
      "start": 174.9843,
      "duration": 0.1089,
      "velocity": 94,
      "chip": "ym2612"
    },
    {
      "channel": 5,
      "note": 76,
      "start": 174.9845,
      "duration": 0.109,
      "velocity": 94,
      "chip": "ym2612"
    },
    {
      "channel": 0,
      "note": 98,
      "start": 175.0929,
      "duration": 0.031,
      "velocity": 114,
      "chip": "ym2612"
    },
    {
      "channel": 3,
      "note": 74,
      "start": 175.0932,
      "duration": 0.109,
      "velocity": 94,
      "chip": "ym2612"
    },
    {
      "channel": 5,
      "note": 78,
      "start": 175.0934,
      "duration": 0.109,
      "velocity": 94,
      "chip": "ym2612"
    },
    {
      "channel": 0,
      "note": 98,
      "start": 175.2018,
      "duration": 0.0154,
      "velocity": 127,
      "chip": "ym2612"
    },
    {
      "channel": 1,
      "note": 67,
      "start": 175.202,
      "duration": 0.2178,
      "velocity": 93,
      "chip": "ym2612"
    },
    {
      "channel": 5,
      "note": 81,
      "start": 175.2024,
      "duration": 0.1089,
      "velocity": 94,
      "chip": "ym2612"
    },
    {
      "channel": 0,
      "note": 76,
      "start": 175.2172,
      "duration": 0.0936,
      "velocity": 114,
      "chip": "ym2612"
    },
    {
      "channel": 0,
      "note": 68,
      "start": 175.3108,
      "duration": 0.0309,
      "velocity": 114,
      "chip": "ym2612"
    },
    {
      "channel": 3,
      "note": 76,
      "start": 175.311,
      "duration": 0.109,
      "velocity": 94,
      "chip": "ym2612"
    },
    {
      "channel": 5,
      "note": 69,
      "start": 175.3113,
      "duration": 0.109,
      "velocity": 94,
      "chip": "ym2612"
    },
    {
      "channel": 0,
      "note": 98,
      "start": 175.4197,
      "duration": 0.0309,
      "velocity": 114,
      "chip": "ym2612"
    },
    {
      "channel": 1,
      "note": 67,
      "start": 175.4198,
      "duration": 0.2179,
      "velocity": 93,
      "chip": "ym2612"
    },
    {
      "channel": 3,
      "note": 81,
      "start": 175.42,
      "duration": 0.1089,
      "velocity": 94,
      "chip": "ym2612"
    },
    {
      "channel": 5,
      "note": 74,
      "start": 175.4203,
      "duration": 0.1089,
      "velocity": 94,
      "chip": "ym2612"
    },
    {
      "channel": 0,
      "note": 98,
      "start": 175.5287,
      "duration": 0.0309,
      "velocity": 114,
      "chip": "ym2612"
    },
    {
      "channel": 3,
      "note": 69,
      "start": 175.5289,
      "duration": 0.109,
      "velocity": 94,
      "chip": "ym2612"
    },
    {
      "channel": 0,
      "note": 98,
      "start": 175.6376,
      "duration": 0.1089,
      "velocity": 114,
      "chip": "ym2612"
    },
    {
      "channel": 1,
      "note": 67,
      "start": 175.6378,
      "duration": 0.2178,
      "velocity": 93,
      "chip": "ym2612"
    },
    {
      "channel": 3,
      "note": 81,
      "start": 175.638,
      "duration": 0.1089,
      "velocity": 94,
      "chip": "ym2612"
    },
    {
      "channel": 5,
      "note": 76,
      "start": 175.6382,
      "duration": 0.1089,
      "velocity": 94,
      "chip": "ym2612"
    },
    {
      "channel": 0,
      "note": 54,
      "start": 175.7465,
      "duration": 0.0309,
      "velocity": 114,
      "chip": "ym2612"
    },
    {
      "channel": 3,
      "note": 71,
      "start": 175.7468,
      "duration": 0.109,
      "velocity": 94,
      "chip": "ym2612"
    },
    {
      "channel": 5,
      "note": 81,
      "start": 175.7471,
      "duration": 0.109,
      "velocity": 94,
      "chip": "ym2612"
    },
    {
      "channel": 0,
      "note": 98,
      "start": 175.8555,
      "duration": 0.0309,
      "velocity": 114,
      "chip": "ym2612"
    },
    {
      "channel": 1,
      "note": 67,
      "start": 175.8556,
      "duration": 0.2179,
      "velocity": 93,
      "chip": "ym2612"
    },
    {
      "channel": 3,
      "note": 74,
      "start": 175.8558,
      "duration": 0.1089,
      "velocity": 94,
      "chip": "ym2612"
    },
    {
      "channel": 5,
      "note": 69,
      "start": 175.856,
      "duration": 0.1089,
      "velocity": 94,
      "chip": "ym2612"
    },
    {
      "channel": 0,
      "note": 98,
      "start": 175.9644,
      "duration": 0.0309,
      "velocity": 114,
      "chip": "ym2612"
    },
    {
      "channel": 5,
      "note": 81,
      "start": 175.9649,
      "duration": 0.1092,
      "velocity": 94,
      "chip": "ym2612"
    },
    {
      "channel": 0,
      "note": 98,
      "start": 176.0734,
      "duration": 0.0154,
      "velocity": 127,
      "chip": "ym2612"
    },
    {
      "channel": 1,
      "note": 67,
      "start": 176.0735,
      "duration": 0.2179,
      "velocity": 93,
      "chip": "ym2612"
    },
    {
      "channel": 3,
      "note": 76,
      "start": 176.0739,
      "duration": 0.1087,
      "velocity": 94,
      "chip": "ym2612"
    },
    {
      "channel": 5,
      "note": 71,
      "start": 176.0741,
      "duration": 0.1087,
      "velocity": 94,
      "chip": "ym2612"
    },
    {
      "channel": 0,
      "note": 76,
      "start": 176.0887,
      "duration": 0.0936,
      "velocity": 114,
      "chip": "ym2612"
    },
    {
      "channel": 0,
      "note": 68,
      "start": 176.1823,
      "duration": 0.0309,
      "velocity": 114,
      "chip": "ym2612"
    },
    {
      "channel": 5,
      "note": 74,
      "start": 176.1828,
      "duration": 0.109,
      "velocity": 94,
      "chip": "ym2612"
    },
    {
      "channel": 0,
      "note": 98,
      "start": 176.2912,
      "duration": 0.0309,
      "velocity": 114,
      "chip": "ym2612"
    },
    {
      "channel": 1,
      "note": 67,
      "start": 176.2914,
      "duration": 0.2179,
      "velocity": 93,
      "chip": "ym2612"
    },
    {
      "channel": 3,
      "note": 78,
      "start": 176.2916,
      "duration": 0.1088,
      "velocity": 94,
      "chip": "ym2612"
    },
    {
      "channel": 0,
      "note": 98,
      "start": 176.4002,
      "duration": 0.0309,
      "velocity": 114,
      "chip": "ym2612"
    },
    {
      "channel": 3,
      "note": 81,
      "start": 176.4005,
      "duration": 0.109,
      "velocity": 94,
      "chip": "ym2612"
    },
    {
      "channel": 5,
      "note": 76,
      "start": 176.4007,
      "duration": 0.1091,
      "velocity": 94,
      "chip": "ym2612"
    },
    {
      "channel": 0,
      "note": 98,
      "start": 176.5092,
      "duration": 0.1089,
      "velocity": 114,
      "chip": "ym2612"
    },
    {
      "channel": 1,
      "note": 67,
      "start": 176.5093,
      "duration": 0.2178,
      "velocity": 93,
      "chip": "ym2612"
    },
    {
      "channel": 3,
      "note": 69,
      "start": 176.5095,
      "duration": 0.1089,
      "velocity": 94,
      "chip": "ym2612"
    },
    {
      "channel": 5,
      "note": 78,
      "start": 176.5098,
      "duration": 0.1088,
      "velocity": 94,
      "chip": "ym2612"
    },
    {
      "channel": 0,
      "note": 54,
      "start": 176.6181,
      "duration": 0.0309,
      "velocity": 114,
      "chip": "ym2612"
    },
    {
      "channel": 3,
      "note": 74,
      "start": 176.6184,
      "duration": 0.1089,
      "velocity": 94,
      "chip": "ym2612"
    },
    {
      "channel": 5,
      "note": 81,
      "start": 176.6186,
      "duration": 0.1089,
      "velocity": 94,
      "chip": "ym2612"
    },
    {
      "channel": 0,
      "note": 98,
      "start": 176.727,
      "duration": 0.0309,
      "velocity": 114,
      "chip": "ym2612"
    },
    {
      "channel": 1,
      "note": 67,
      "start": 176.7271,
      "duration": 0.2179,
      "velocity": 93,
      "chip": "ym2612"
    },
    {
      "channel": 5,
      "note": 69,
      "start": 176.7276,
      "duration": 0.1089,
      "velocity": 94,
      "chip": "ym2612"
    },
    {
      "channel": 0,
      "note": 98,
      "start": 176.836,
      "duration": 0.0309,
      "velocity": 114,
      "chip": "ym2612"
    },
    {
      "channel": 3,
      "note": 76,
      "start": 176.8362,
      "duration": 0.109,
      "velocity": 94,
      "chip": "ym2612"
    },
    {
      "channel": 5,
      "note": 74,
      "start": 176.8365,
      "duration": 0.109,
      "velocity": 94,
      "chip": "ym2612"
    },
    {
      "channel": 0,
      "note": 98,
      "start": 176.9449,
      "duration": 0.0154,
      "velocity": 127,
      "chip": "ym2612"
    },
    {
      "channel": 1,
      "note": 67,
      "start": 176.945,
      "duration": 0.2178,
      "velocity": 93,
      "chip": "ym2612"
    },
    {
      "channel": 3,
      "note": 81,
      "start": 176.9452,
      "duration": 0.1089,
      "velocity": 94,
      "chip": "ym2612"
    },
    {
      "channel": 0,
      "note": 76,
      "start": 176.9602,
      "duration": 0.0936,
      "velocity": 114,
      "chip": "ym2612"
    },
    {
      "channel": 0,
      "note": 68,
      "start": 177.0538,
      "duration": 0.0309,
      "velocity": 114,
      "chip": "ym2612"
    },
    {
      "channel": 3,
      "note": 69,
      "start": 177.0541,
      "duration": 0.109,
      "velocity": 94,
      "chip": "ym2612"
    },
    {
      "channel": 5,
      "note": 76,
      "start": 177.0544,
      "duration": 0.109,
      "velocity": 94,
      "chip": "ym2612"
    },
    {
      "channel": 0,
      "note": 98,
      "start": 177.1628,
      "duration": 0.0309,
      "velocity": 114,
      "chip": "ym2612"
    },
    {
      "channel": 1,
      "note": 67,
      "start": 177.1629,
      "duration": 0.2179,
      "velocity": 93,
      "chip": "ym2612"
    },
    {
      "channel": 3,
      "note": 81,
      "start": 177.1631,
      "duration": 0.1089,
      "velocity": 94,
      "chip": "ym2612"
    },
    {
      "channel": 5,
      "note": 81,
      "start": 177.1633,
      "duration": 0.1089,
      "velocity": 94,
      "chip": "ym2612"
    },
    {
      "channel": 0,
      "note": 98,
      "start": 177.2717,
      "duration": 0.0309,
      "velocity": 114,
      "chip": "ym2612"
    },
    {
      "channel": 3,
      "note": 71,
      "start": 177.272,
      "duration": 0.109,
      "velocity": 94,
      "chip": "ym2612"
    },
    {
      "channel": 5,
      "note": 69,
      "start": 177.2722,
      "duration": 0.109,
      "velocity": 94,
      "chip": "ym2612"
    },
    {
      "channel": 0,
      "note": 98,
      "start": 177.3807,
      "duration": 0.1089,
      "velocity": 127,
      "chip": "ym2612"
    },
    {
      "channel": 1,
      "note": 67,
      "start": 177.3808,
      "duration": 0.2178,
      "velocity": 93,
      "chip": "ym2612"
    },
    {
      "channel": 3,
      "note": 74,
      "start": 177.381,
      "duration": 0.1089,
      "velocity": 94,
      "chip": "ym2612"
    },
    {
      "channel": 5,
      "note": 81,
      "start": 177.3812,
      "duration": 0.1088,
      "velocity": 94,
      "chip": "ym2612"
    },
    {
      "channel": 0,
      "note": 54,
      "start": 177.4896,
      "duration": 0.0154,
      "velocity": 127,
      "chip": "ym2612"
    },
    {
      "channel": 5,
      "note": 71,
      "start": 177.4901,
      "duration": 0.109,
      "velocity": 94,
      "chip": "ym2612"
    },
    {
      "channel": 0,
      "note": 76,
      "start": 177.505,
      "duration": 0.0936,
      "velocity": 114,
      "chip": "ym2612"
    },
    {
      "channel": 0,
      "note": 68,
      "start": 177.5985,
      "duration": 0.0309,
      "velocity": 114,
      "chip": "ym2612"
    },
    {
      "channel": 1,
      "note": 67,
      "start": 177.5987,
      "duration": 0.2179,
      "velocity": 93,
      "chip": "ym2612"
    },
    {
      "channel": 3,
      "note": 76,
      "start": 177.5989,
      "duration": 0.1089,
      "velocity": 94,
      "chip": "ym2612"
    },
    {
      "channel": 5,
      "note": 74,
      "start": 177.5991,
      "duration": 0.1088,
      "velocity": 94,
      "chip": "ym2612"
    },
    {
      "channel": 0,
      "note": 98,
      "start": 177.7075,
      "duration": 0.0309,
      "velocity": 114,
      "chip": "ym2612"
    },
    {
      "channel": 0,
      "note": 98,
      "start": 177.8165,
      "duration": 0.1089,
      "velocity": 114,
      "chip": "ym2612"
    },
    {
      "channel": 1,
      "note": 67,
      "start": 177.8166,
      "duration": 0.2178,
      "velocity": 93,
      "chip": "ym2612"
    },
    {
      "channel": 2,
      "note": 43,
      "start": 177.8167,
      "duration": 3.0503,
      "velocity": 121,
      "chip": "ym2612"
    },
    {
      "channel": 3,
      "note": 78,
      "start": 177.8169,
      "duration": 0.1087,
      "velocity": 94,
      "chip": "ym2612"
    },
    {
      "channel": 5,
      "note": 76,
      "start": 177.8171,
      "duration": 0.1088,
      "velocity": 94,
      "chip": "ym2612"
    },
    {
      "channel": 0,
      "note": 54,
      "start": 177.9254,
      "duration": 0.0309,
      "velocity": 114,
      "chip": "ym2612"
    },
    {
      "channel": 3,
      "note": 81,
      "start": 177.9256,
      "duration": 0.109,
      "velocity": 94,
      "chip": "ym2612"
    },
    {
      "channel": 5,
      "note": 78,
      "start": 177.9259,
      "duration": 0.1089,
      "velocity": 94,
      "chip": "ym2612"
    },
    {
      "channel": 4,
      "note": 43,
      "start": 178.0033,
      "duration": 3.0503,
      "velocity": 121,
      "chip": "ym2612"
    },
    {
      "channel": 0,
      "note": 98,
      "start": 178.0343,
      "duration": 0.0309,
      "velocity": 114,
      "chip": "ym2612"
    },
    {
      "channel": 1,
      "note": 62,
      "start": 178.0344,
      "duration": 0.2179,
      "velocity": 93,
      "chip": "ym2612"
    },
    {
      "channel": 3,
      "note": 69,
      "start": 178.0346,
      "duration": 0.1089,
      "velocity": 94,
      "chip": "ym2612"
    },
    {
      "channel": 5,
      "note": 81,
      "start": 178.0349,
      "duration": 0.1089,
      "velocity": 94,
      "chip": "ym2612"
    },
    {
      "channel": 0,
      "note": 98,
      "start": 178.1433,
      "duration": 0.0309,
      "velocity": 114,
      "chip": "ym2612"
    },
    {
      "channel": 3,
      "note": 74,
      "start": 178.1435,
      "duration": 0.109,
      "velocity": 94,
      "chip": "ym2612"
    },
    {
      "channel": 5,
      "note": 69,
      "start": 178.1437,
      "duration": 0.109,
      "velocity": 94,
      "chip": "ym2612"
    },
    {
      "channel": 0,
      "note": 98,
      "start": 178.2522,
      "duration": 0.0154,
      "velocity": 127,
      "chip": "ym2612"
    },
    {
      "channel": 1,
      "note": 62,
      "start": 178.2523,
      "duration": 0.2178,
      "velocity": 93,
      "chip": "ym2612"
    },
    {
      "channel": 5,
      "note": 74,
      "start": 178.2527,
      "duration": 0.1089,
      "velocity": 94,
      "chip": "ym2612"
    },
    {
      "channel": 0,
      "note": 76,
      "start": 178.2676,
      "duration": 0.0936,
      "velocity": 114,
      "chip": "ym2612"
    },
    {
      "channel": 0,
      "note": 68,
      "start": 178.3611,
      "duration": 0.0309,
      "velocity": 114,
      "chip": "ym2612"
    },
    {
      "channel": 3,
      "note": 76,
      "start": 178.3614,
      "duration": 0.109,
      "velocity": 94,
      "chip": "ym2612"
    },
    {
      "channel": 0,
      "note": 98,
      "start": 178.4701,
      "duration": 0.0309,
      "velocity": 114,
      "chip": "ym2612"
    },
    {
      "channel": 1,
      "note": 62,
      "start": 178.4702,
      "duration": 0.2179,
      "velocity": 93,
      "chip": "ym2612"
    },
    {
      "channel": 3,
      "note": 81,
      "start": 178.4704,
      "duration": 0.1089,
      "velocity": 94,
      "chip": "ym2612"
    },
    {
      "channel": 5,
      "note": 76,
      "start": 178.4706,
      "duration": 0.1089,
      "velocity": 94,
      "chip": "ym2612"
    },
    {
      "channel": 0,
      "note": 98,
      "start": 178.579,
      "duration": 0.0309,
      "velocity": 114,
      "chip": "ym2612"
    },
    {
      "channel": 3,
      "note": 69,
      "start": 178.5793,
      "duration": 0.109,
      "velocity": 94,
      "chip": "ym2612"
    },
    {
      "channel": 5,
      "note": 81,
      "start": 178.5795,
      "duration": 0.109,
      "velocity": 94,
      "chip": "ym2612"
    },
    {
      "channel": 0,
      "note": 98,
      "start": 178.688,
      "duration": 0.1089,
      "velocity": 114,
      "chip": "ym2612"
    },
    {
      "channel": 1,
      "note": 62,
      "start": 178.6881,
      "duration": 0.2178,
      "velocity": 93,
      "chip": "ym2612"
    },
    {
      "channel": 3,
      "note": 81,
      "start": 178.6883,
      "duration": 0.1089,
      "velocity": 94,
      "chip": "ym2612"
    },
    {
      "channel": 5,
      "note": 69,
      "start": 178.6885,
      "duration": 0.1089,
      "velocity": 94,
      "chip": "ym2612"
    },
    {
      "channel": 0,
      "note": 54,
      "start": 178.7969,
      "duration": 0.0309,
      "velocity": 114,
      "chip": "ym2612"
    },
    {
      "channel": 3,
      "note": 71,
      "start": 178.7972,
      "duration": 0.109,
      "velocity": 94,
      "chip": "ym2612"
    },
    {
      "channel": 5,
      "note": 81,
      "start": 178.7974,
      "duration": 0.109,
      "velocity": 94,
      "chip": "ym2612"
    },
    {
      "channel": 0,
      "note": 98,
      "start": 178.9059,
      "duration": 0.0309,
      "velocity": 114,
      "chip": "ym2612"
    },
    {
      "channel": 1,
      "note": 62,
      "start": 178.906,
      "duration": 0.2181,
      "velocity": 93,
      "chip": "ym2612"
    },
    {
      "channel": 3,
      "note": 74,
      "start": 178.9062,
      "duration": 0.1089,
      "velocity": 94,
      "chip": "ym2612"
    },
    {
      "channel": 5,
      "note": 71,
      "start": 178.9064,
      "duration": 0.1088,
      "velocity": 94,
      "chip": "ym2612"
    },
    {
      "channel": 0,
      "note": 98,
      "start": 179.0148,
      "duration": 0.0309,
      "velocity": 114,
      "chip": "ym2612"
    },
    {
      "channel": 5,
      "note": 74,
      "start": 179.0153,
      "duration": 0.1092,
      "velocity": 94,
      "chip": "ym2612"
    },
    {
      "channel": 0,
      "note": 98,
      "start": 179.1239,
      "duration": 0.0152,
      "velocity": 127,
      "chip": "ym2612"
    },
    {
      "channel": 1,
      "note": 62,
      "start": 179.124,
      "duration": 0.2177,
      "velocity": 93,
      "chip": "ym2612"
    },
    {
      "channel": 3,
      "note": 76,
      "start": 179.1242,
      "duration": 0.1087,
      "velocity": 94,
      "chip": "ym2612"
    },
    {
      "channel": 0,
      "note": 76,
      "start": 179.1391,
      "duration": 0.0936,
      "velocity": 114,
      "chip": "ym2612"
    },
    {
      "channel": 0,
      "note": 68,
      "start": 179.2327,
      "duration": 0.0309,
      "velocity": 114,
      "chip": "ym2612"
    },
    {
      "channel": 5,
      "note": 76,
      "start": 179.2332,
      "duration": 0.1091,
      "velocity": 94,
      "chip": "ym2612"
    },
    {
      "channel": 0,
      "note": 98,
      "start": 179.3416,
      "duration": 0.0309,
      "velocity": 114,
      "chip": "ym2612"
    },
    {
      "channel": 1,
      "note": 62,
      "start": 179.3417,
      "duration": 0.2179,
      "velocity": 93,
      "chip": "ym2612"
    },
    {
      "channel": 3,
      "note": 78,
      "start": 179.342,
      "duration": 0.1088,
      "velocity": 94,
      "chip": "ym2612"
    },
    {
      "channel": 5,
      "note": 78,
      "start": 179.3423,
      "duration": 0.1088,
      "velocity": 94,
      "chip": "ym2612"
    },
    {
      "channel": 0,
      "note": 98,
      "start": 179.4506,
      "duration": 0.0309,
      "velocity": 114,
      "chip": "ym2612"
    },
    {
      "channel": 3,
      "note": 81,
      "start": 179.4508,
      "duration": 0.109,
      "velocity": 94,
      "chip": "ym2612"
    },
    {
      "channel": 5,
      "note": 81,
      "start": 179.4511,
      "duration": 0.109,
      "velocity": 94,
      "chip": "ym2612"
    },
    {
      "channel": 0,
      "note": 98,
      "start": 179.5595,
      "duration": 0.1089,
      "velocity": 114,
      "chip": "ym2612"
    },
    {
      "channel": 1,
      "note": 62,
      "start": 179.5597,
      "duration": 0.2178,
      "velocity": 93,
      "chip": "ym2612"
    },
    {
      "channel": 3,
      "note": 69,
      "start": 179.5598,
      "duration": 0.1089,
      "velocity": 94,
      "chip": "ym2612"
    },
    {
      "channel": 5,
      "note": 69,
      "start": 179.5601,
      "duration": 0.1089,
      "velocity": 94,
      "chip": "ym2612"
    },
    {
      "channel": 0,
      "note": 54,
      "start": 179.6684,
      "duration": 0.0309,
      "velocity": 114,
      "chip": "ym2612"
    },
    {
      "channel": 3,
      "note": 74,
      "start": 179.6687,
      "duration": 0.109,
      "velocity": 94,
      "chip": "ym2612"
    },
    {
      "channel": 5,
      "note": 74,
      "start": 179.669,
      "duration": 0.1089,
      "velocity": 94,
      "chip": "ym2612"
    },
    {
      "channel": 0,
      "note": 98,
      "start": 179.7774,
      "duration": 0.0309,
      "velocity": 114,
      "chip": "ym2612"
    },
    {
      "channel": 1,
      "note": 62,
      "start": 179.7775,
      "duration": 0.2179,
      "velocity": 93,
      "chip": "ym2612"
    },
    {
      "channel": 0,
      "note": 98,
      "start": 179.8863,
      "duration": 0.0309,
      "velocity": 114,
      "chip": "ym2612"
    },
    {
      "channel": 3,
      "note": 76,
      "start": 179.8866,
      "duration": 0.109,
      "velocity": 94,
      "chip": "ym2612"
    },
    {
      "channel": 5,
      "note": 76,
      "start": 179.8868,
      "duration": 0.109,
      "velocity": 94,
      "chip": "ym2612"
    },
    {
      "channel": 0,
      "note": 98,
      "start": 179.9953,
      "duration": 0.0154,
      "velocity": 127,
      "chip": "ym2612"
    },
    {
      "channel": 1,
      "note": 62,
      "start": 179.9954,
      "duration": 0.2179,
      "velocity": 93,
      "chip": "ym2612"
    },
    {
      "channel": 3,
      "note": 81,
      "start": 179.9956,
      "duration": 0.1089,
      "velocity": 94,
      "chip": "ym2612"
    },
    {
      "channel": 5,
      "note": 81,
      "start": 179.9958,
      "duration": 0.1089,
      "velocity": 94,
      "chip": "ym2612"
    },
    {
      "channel": 0,
      "note": 76,
      "start": 180.0106,
      "duration": 0.0936,
      "velocity": 114,
      "chip": "ym2612"
    },
    {
      "channel": 0,
      "note": 68,
      "start": 180.1042,
      "duration": 0.0309,
      "velocity": 114,
      "chip": "ym2612"
    },
    {
      "channel": 3,
      "note": 69,
      "start": 180.1045,
      "duration": 0.109,
      "velocity": 94,
      "chip": "ym2612"
    },
    {
      "channel": 5,
      "note": 69,
      "start": 180.1047,
      "duration": 0.109,
      "velocity": 94,
      "chip": "ym2612"
    },
    {
      "channel": 0,
      "note": 98,
      "start": 180.2132,
      "duration": 0.0309,
      "velocity": 114,
      "chip": "ym2612"
    },
    {
      "channel": 1,
      "note": 62,
      "start": 180.2133,
      "duration": 0.2179,
      "velocity": 93,
      "chip": "ym2612"
    },
    {
      "channel": 3,
      "note": 81,
      "start": 180.2135,
      "duration": 0.1089,
      "velocity": 94,
      "chip": "ym2612"
    },
    {
      "channel": 5,
      "note": 81,
      "start": 180.2137,
      "duration": 0.1089,
      "velocity": 94,
      "chip": "ym2612"
    },
    {
      "channel": 0,
      "note": 98,
      "start": 180.3221,
      "duration": 0.0309,
      "velocity": 114,
      "chip": "ym2612"
    },
    {
      "channel": 3,
      "note": 71,
      "start": 180.3224,
      "duration": 0.109,
      "velocity": 94,
      "chip": "ym2612"
    },
    {
      "channel": 5,
      "note": 71,
      "start": 180.3226,
      "duration": 0.109,
      "velocity": 94,
      "chip": "ym2612"
    },
    {
      "channel": 0,
      "note": 98,
      "start": 180.431,
      "duration": 0.1089,
      "velocity": 127,
      "chip": "ym2612"
    },
    {
      "channel": 1,
      "note": 62,
      "start": 180.4312,
      "duration": 0.2179,
      "velocity": 93,
      "chip": "ym2612"
    },
    {
      "channel": 3,
      "note": 74,
      "start": 180.4314,
      "duration": 0.109,
      "velocity": 94,
      "chip": "ym2612"
    },
    {
      "channel": 5,
      "note": 74,
      "start": 180.4316,
      "duration": 0.109,
      "velocity": 94,
      "chip": "ym2612"
    },
    {
      "channel": 0,
      "note": 54,
      "start": 180.54,
      "duration": 0.0154,
      "velocity": 127,
      "chip": "ym2612"
    },
    {
      "channel": 0,
      "note": 76,
      "start": 180.5553,
      "duration": 0.0936,
      "velocity": 114,
      "chip": "ym2612"
    },
    {
      "channel": 0,
      "note": 68,
      "start": 180.6489,
      "duration": 0.0309,
      "velocity": 114,
      "chip": "ym2612"
    },
    {
      "channel": 1,
      "note": 62,
      "start": 180.649,
      "duration": 0.2179,
      "velocity": 93,
      "chip": "ym2612"
    },
    {
      "channel": 3,
      "note": 76,
      "start": 180.6492,
      "duration": 0.1089,
      "velocity": 94,
      "chip": "ym2612"
    },
    {
      "channel": 5,
      "note": 76,
      "start": 180.6495,
      "duration": 0.1089,
      "velocity": 94,
      "chip": "ym2612"
    },
    {
      "channel": 0,
      "note": 98,
      "start": 180.7579,
      "duration": 0.0309,
      "velocity": 114,
      "chip": "ym2612"
    },
    {
      "channel": 5,
      "note": 78,
      "start": 180.7584,
      "duration": 0.1091,
      "velocity": 94,
      "chip": "ym2612"
    },
    {
      "channel": 0,
      "note": 98,
      "start": 180.8668,
      "duration": 0.1089,
      "velocity": 114,
      "chip": "ym2612"
    },
    {
      "channel": 1,
      "note": 62,
      "start": 180.867,
      "duration": 0.2178,
      "velocity": 93,
      "chip": "ym2612"
    },
    {
      "channel": 2,
      "note": 50,
      "start": 180.8671,
      "duration": 3.0504,
      "velocity": 121,
      "chip": "ym2612"
    },
    {
      "channel": 3,
      "note": 78,
      "start": 180.8673,
      "duration": 0.1088,
      "velocity": 94,
      "chip": "ym2612"
    },
    {
      "channel": 5,
      "note": 81,
      "start": 180.8675,
      "duration": 0.1087,
      "velocity": 94,
      "chip": "ym2612"
    },
    {
      "channel": 0,
      "note": 54,
      "start": 180.9757,
      "duration": 0.0309,
      "velocity": 114,
      "chip": "ym2612"
    },
    {
      "channel": 3,
      "note": 81,
      "start": 180.976,
      "duration": 0.109,
      "velocity": 94,
      "chip": "ym2612"
    },
    {
      "channel": 5,
      "note": 69,
      "start": 180.9762,
      "duration": 0.109,
      "velocity": 94,
      "chip": "ym2612"
    },
    {
      "channel": 4,
      "note": 50,
      "start": 181.0537,
      "duration": 3.0504,
      "velocity": 121,
      "chip": "ym2612"
    },
    {
      "channel": 0,
      "note": 98,
      "start": 181.0847,
      "duration": 0.0309,
      "velocity": 114,
      "chip": "ym2612"
    },
    {
      "channel": 1,
      "note": 59,
      "start": 181.0848,
      "duration": 0.2179,
      "velocity": 93,
      "chip": "ym2612"
    },
    {
      "channel": 3,
      "note": 69,
      "start": 181.085,
      "duration": 0.1089,
      "velocity": 94,
      "chip": "ym2612"
    },
    {
      "channel": 5,
      "note": 74,
      "start": 181.0852,
      "duration": 0.1089,
      "velocity": 94,
      "chip": "ym2612"
    },
    {
      "channel": 0,
      "note": 98,
      "start": 181.1936,
      "duration": 0.0309,
      "velocity": 114,
      "chip": "ym2612"
    },
    {
      "channel": 3,
      "note": 74,
      "start": 181.1939,
      "duration": 0.109,
      "velocity": 94,
      "chip": "ym2612"
    },
    {
      "channel": 0,
      "note": 98,
      "start": 181.3026,
      "duration": 0.0154,
      "velocity": 127,
      "chip": "ym2612"
    },
    {
      "channel": 1,
      "note": 59,
      "start": 181.3027,
      "duration": 0.2179,
      "velocity": 93,
      "chip": "ym2612"
    },
    {
      "channel": 5,
      "note": 76,
      "start": 181.3031,
      "duration": 0.1089,
      "velocity": 94,
      "chip": "ym2612"
    },
    {
      "channel": 0,
      "note": 76,
      "start": 181.3179,
      "duration": 0.0936,
      "velocity": 114,
      "chip": "ym2612"
    },
    {
      "channel": 0,
      "note": 68,
      "start": 181.4115,
      "duration": 0.0309,
      "velocity": 114,
      "chip": "ym2612"
    },
    {
      "channel": 3,
      "note": 76,
      "start": 181.4118,
      "duration": 0.109,
      "velocity": 94,
      "chip": "ym2612"
    },
    {
      "channel": 5,
      "note": 81,
      "start": 181.412,
      "duration": 0.109,
      "velocity": 94,
      "chip": "ym2612"
    },
    {
      "channel": 0,
      "note": 98,
      "start": 181.5205,
      "duration": 0.0309,
      "velocity": 114,
      "chip": "ym2612"
    },
    {
      "channel": 1,
      "note": 59,
      "start": 181.5206,
      "duration": 0.2179,
      "velocity": 93,
      "chip": "ym2612"
    },
    {
      "channel": 3,
      "note": 81,
      "start": 181.5208,
      "duration": 0.1089,
      "velocity": 94,
      "chip": "ym2612"
    },
    {
      "channel": 5,
      "note": 69,
      "start": 181.521,
      "duration": 0.1089,
      "velocity": 94,
      "chip": "ym2612"
    },
    {
      "channel": 0,
      "note": 98,
      "start": 181.6294,
      "duration": 0.0309,
      "velocity": 114,
      "chip": "ym2612"
    },
    {
      "channel": 3,
      "note": 69,
      "start": 181.6297,
      "duration": 0.109,
      "velocity": 94,
      "chip": "ym2612"
    },
    {
      "channel": 5,
      "note": 81,
      "start": 181.6299,
      "duration": 0.109,
      "velocity": 94,
      "chip": "ym2612"
    },
    {
      "channel": 0,
      "note": 98,
      "start": 181.7383,
      "duration": 0.1089,
      "velocity": 114,
      "chip": "ym2612"
    },
    {
      "channel": 1,
      "note": 59,
      "start": 181.7385,
      "duration": 0.2178,
      "velocity": 93,
      "chip": "ym2612"
    },
    {
      "channel": 3,
      "note": 81,
      "start": 181.7387,
      "duration": 0.1089,
      "velocity": 94,
      "chip": "ym2612"
    },
    {
      "channel": 5,
      "note": 71,
      "start": 181.7389,
      "duration": 0.1088,
      "velocity": 94,
      "chip": "ym2612"
    },
    {
      "channel": 0,
      "note": 54,
      "start": 181.8473,
      "duration": 0.0309,
      "velocity": 114,
      "chip": "ym2612"
    },
    {
      "channel": 3,
      "note": 71,
      "start": 181.8476,
      "duration": 0.109,
      "velocity": 94,
      "chip": "ym2612"
    },
    {
      "channel": 5,
      "note": 74,
      "start": 181.8478,
      "duration": 0.109,
      "velocity": 94,
      "chip": "ym2612"
    },
    {
      "channel": 0,
      "note": 98,
      "start": 181.9562,
      "duration": 0.0309,
      "velocity": 114,
      "chip": "ym2612"
    },
    {
      "channel": 1,
      "note": 59,
      "start": 181.9563,
      "duration": 0.2179,
      "velocity": 93,
      "chip": "ym2612"
    },
    {
      "channel": 3,
      "note": 74,
      "start": 181.9565,
      "duration": 0.1089,
      "velocity": 94,
      "chip": "ym2612"
    },
    {
      "channel": 0,
      "note": 98,
      "start": 182.0652,
      "duration": 0.0309,
      "velocity": 114,
      "chip": "ym2612"
    },
    {
      "channel": 5,
      "note": 76,
      "start": 182.0656,
      "duration": 0.1091,
      "velocity": 94,
      "chip": "ym2612"
    },
    {
      "channel": 0,
      "note": 98,
      "start": 182.1741,
      "duration": 0.0154,
      "velocity": 127,
      "chip": "ym2612"
    },
    {
      "channel": 1,
      "note": 59,
      "start": 182.1742,
      "duration": 0.2178,
      "velocity": 93,
      "chip": "ym2612"
    },
    {
      "channel": 3,
      "note": 76,
      "start": 182.1744,
      "duration": 0.1089,
      "velocity": 94,
      "chip": "ym2612"
    },
    {
      "channel": 5,
      "note": 78,
      "start": 182.1747,
      "duration": 0.1088,
      "velocity": 94,
      "chip": "ym2612"
    },
    {
      "channel": 0,
      "note": 76,
      "start": 182.1895,
      "duration": 0.0936,
      "velocity": 114,
      "chip": "ym2612"
    },
    {
      "channel": 0,
      "note": 68,
      "start": 182.283,
      "duration": 0.0309,
      "velocity": 114,
      "chip": "ym2612"
    },
    {
      "channel": 5,
      "note": 81,
      "start": 182.2835,
      "duration": 0.1091,
      "velocity": 94,
      "chip": "ym2612"
    },
    {
      "channel": 0,
      "note": 98,
      "start": 182.392,
      "duration": 0.0309,
      "velocity": 114,
      "chip": "ym2612"
    },
    {
      "channel": 1,
      "note": 59,
      "start": 182.3921,
      "duration": 0.2179,
      "velocity": 93,
      "chip": "ym2612"
    },
    {
      "channel": 3,
      "note": 78,
      "start": 182.3924,
      "duration": 0.1088,
      "velocity": 94,
      "chip": "ym2612"
    },
    {
      "channel": 5,
      "note": 69,
      "start": 182.3926,
      "duration": 0.1088,
      "velocity": 94,
      "chip": "ym2612"
    },
    {
      "channel": 0,
      "note": 98,
      "start": 182.5009,
      "duration": 0.0309,
      "velocity": 114,
      "chip": "ym2612"
    },
    {
      "channel": 3,
      "note": 81,
      "start": 182.5012,
      "duration": 0.109,
      "velocity": 94,
      "chip": "ym2612"
    },
    {
      "channel": 5,
      "note": 74,
      "start": 182.5014,
      "duration": 0.109,
      "velocity": 94,
      "chip": "ym2612"
    },
    {
      "channel": 0,
      "note": 98,
      "start": 182.6099,
      "duration": 0.1089,
      "velocity": 114,
      "chip": "ym2612"
    },
    {
      "channel": 1,
      "note": 59,
      "start": 182.61,
      "duration": 0.2178,
      "velocity": 93,
      "chip": "ym2612"
    },
    {
      "channel": 3,
      "note": 69,
      "start": 182.6102,
      "duration": 0.1089,
      "velocity": 94,
      "chip": "ym2612"
    },
    {
      "channel": 0,
      "note": 54,
      "start": 182.7188,
      "duration": 0.0309,
      "velocity": 114,
      "chip": "ym2612"
    },
    {
      "channel": 3,
      "note": 74,
      "start": 182.7191,
      "duration": 0.109,
      "velocity": 94,
      "chip": "ym2612"
    },
    {
      "channel": 5,
      "note": 76,
      "start": 182.7193,
      "duration": 0.109,
      "velocity": 94,
      "chip": "ym2612"
    },
    {
      "channel": 0,
      "note": 98,
      "start": 182.8278,
      "duration": 0.0309,
      "velocity": 114,
      "chip": "ym2612"
    },
    {
      "channel": 1,
      "note": 59,
      "start": 182.8279,
      "duration": 0.2179,
      "velocity": 93,
      "chip": "ym2612"
    },
    {
      "channel": 5,
      "note": 81,
      "start": 182.8283,
      "duration": 0.1089,
      "velocity": 94,
      "chip": "ym2612"
    },
    {
      "channel": 0,
      "note": 98,
      "start": 182.9367,
      "duration": 0.0309,
      "velocity": 114,
      "chip": "ym2612"
    },
    {
      "channel": 3,
      "note": 76,
      "start": 182.937,
      "duration": 0.109,
      "velocity": 94,
      "chip": "ym2612"
    },
    {
      "channel": 5,
      "note": 69,
      "start": 182.9372,
      "duration": 0.109,
      "velocity": 94,
      "chip": "ym2612"
    },
    {
      "channel": 0,
      "note": 98,
      "start": 183.0456,
      "duration": 0.0154,
      "velocity": 127,
      "chip": "ym2612"
    },
    {
      "channel": 1,
      "note": 59,
      "start": 183.0458,
      "duration": 0.2179,
      "velocity": 93,
      "chip": "ym2612"
    },
    {
      "channel": 3,
      "note": 81,
      "start": 183.046,
      "duration": 0.1089,
      "velocity": 94,
      "chip": "ym2612"
    },
    {
      "channel": 5,
      "note": 81,
      "start": 183.0462,
      "duration": 0.1089,
      "velocity": 94,
      "chip": "ym2612"
    },
    {
      "channel": 0,
      "note": 76,
      "start": 183.061,
      "duration": 0.0936,
      "velocity": 114,
      "chip": "ym2612"
    },
    {
      "channel": 0,
      "note": 68,
      "start": 183.1546,
      "duration": 0.0309,
      "velocity": 114,
      "chip": "ym2612"
    },
    {
      "channel": 3,
      "note": 69,
      "start": 183.1549,
      "duration": 0.109,
      "velocity": 94,
      "chip": "ym2612"
    },
    {
      "channel": 5,
      "note": 71,
      "start": 183.1551,
      "duration": 0.109,
      "velocity": 94,
      "chip": "ym2612"
    },
    {
      "channel": 0,
      "note": 98,
      "start": 183.2635,
      "duration": 0.0309,
      "velocity": 114,
      "chip": "ym2612"
    },
    {
      "channel": 1,
      "note": 59,
      "start": 183.2636,
      "duration": 0.2179,
      "velocity": 93,
      "chip": "ym2612"
    },
    {
      "channel": 3,
      "note": 81,
      "start": 183.2638,
      "duration": 0.1089,
      "velocity": 94,
      "chip": "ym2612"
    },
    {
      "channel": 5,
      "note": 74,
      "start": 183.2641,
      "duration": 0.1089,
      "velocity": 94,
      "chip": "ym2612"
    },
    {
      "channel": 0,
      "note": 98,
      "start": 183.3725,
      "duration": 0.0309,
      "velocity": 114,
      "chip": "ym2612"
    },
    {
      "channel": 3,
      "note": 71,
      "start": 183.3727,
      "duration": 0.109,
      "velocity": 94,
      "chip": "ym2612"
    },
    {
      "channel": 0,
      "note": 98,
      "start": 183.4814,
      "duration": 0.1091,
      "velocity": 127,
      "chip": "ym2612"
    },
    {
      "channel": 1,
      "note": 59,
      "start": 183.4815,
      "duration": 0.2179,
      "velocity": 93,
      "chip": "ym2612"
    },
    {
      "channel": 3,
      "note": 74,
      "start": 183.4817,
      "duration": 0.109,
      "velocity": 94,
      "chip": "ym2612"
    },
    {
      "channel": 5,
      "note": 76,
      "start": 183.482,
      "duration": 0.1091,
      "velocity": 94,
      "chip": "ym2612"
    },
    {
      "channel": 0,
      "note": 54,
      "start": 183.5905,
      "duration": 0.0152,
      "velocity": 127,
      "chip": "ym2612"
    },
    {
      "channel": 5,
      "note": 78,
      "start": 183.5911,
      "duration": 0.1088,
      "velocity": 94,
      "chip": "ym2612"
    },
    {
      "channel": 0,
      "note": 76,
      "start": 183.6057,
      "duration": 0.0936,
      "velocity": 114,
      "chip": "ym2612"
    },
    {
      "channel": 0,
      "note": 68,
      "start": 183.6993,
      "duration": 0.0309,
      "velocity": 114,
      "chip": "ym2612"
    },
    {
      "channel": 1,
      "note": 59,
      "start": 183.6994,
      "duration": 0.2179,
      "velocity": 93,
      "chip": "ym2612"
    },
    {
      "channel": 3,
      "note": 76,
      "start": 183.6996,
      "duration": 0.1089,
      "velocity": 94,
      "chip": "ym2612"
    },
    {
      "channel": 5,
      "note": 81,
      "start": 183.6998,
      "duration": 0.1089,
      "velocity": 94,
      "chip": "ym2612"
    },
    {
      "channel": 0,
      "note": 98,
      "start": 183.8082,
      "duration": 0.0309,
      "velocity": 114,
      "chip": "ym2612"
    },
    {
      "channel": 5,
      "note": 69,
      "start": 183.8087,
      "duration": 0.1092,
      "velocity": 94,
      "chip": "ym2612"
    },
    {
      "channel": 0,
      "note": 98,
      "start": 183.9172,
      "duration": 0.1089,
      "velocity": 114,
      "chip": "ym2612"
    },
    {
      "channel": 1,
      "note": 59,
      "start": 183.9173,
      "duration": 0.2178,
      "velocity": 93,
      "chip": "ym2612"
    },
    {
      "channel": 2,
      "note": 47,
      "start": 183.9175,
      "duration": 3.0503,
      "velocity": 121,
      "chip": "ym2612"
    },
    {
      "channel": 3,
      "note": 78,
      "start": 183.9176,
      "duration": 0.1088,
      "velocity": 94,
      "chip": "ym2612"
    },
    {
      "channel": 5,
      "note": 74,
      "start": 183.9179,
      "duration": 0.1087,
      "velocity": 94,
      "chip": "ym2612"
    },
    {
      "channel": 0,
      "note": 54,
      "start": 184.0261,
      "duration": 0.0311,
      "velocity": 114,
      "chip": "ym2612"
    },
    {
      "channel": 3,
      "note": 81,
      "start": 184.0264,
      "duration": 0.109,
      "velocity": 94,
      "chip": "ym2612"
    },
    {
      "channel": 4,
      "note": 47,
      "start": 184.104,
      "duration": 3.0504,
      "velocity": 121,
      "chip": "ym2612"
    },
    {
      "channel": 0,
      "note": 98,
      "start": 184.1351,
      "duration": 0.0309,
      "velocity": 114,
      "chip": "ym2612"
    },
    {
      "channel": 1,
      "note": 55,
      "start": 184.1352,
      "duration": 0.2179,
      "velocity": 93,
      "chip": "ym2612"
    },
    {
      "channel": 3,
      "note": 69,
      "start": 184.1354,
      "duration": 0.1089,
      "velocity": 94,
      "chip": "ym2612"
    },
    {
      "channel": 5,
      "note": 76,
      "start": 184.1356,
      "duration": 0.1089,
      "velocity": 94,
      "chip": "ym2612"
    },
    {
      "channel": 0,
      "note": 98,
      "start": 184.244,
      "duration": 0.0309,
      "velocity": 114,
      "chip": "ym2612"
    },
    {
      "channel": 3,
      "note": 74,
      "start": 184.2443,
      "duration": 0.109,
      "velocity": 94,
      "chip": "ym2612"
    },
    {
      "channel": 5,
      "note": 81,
      "start": 184.2445,
      "duration": 0.109,
      "velocity": 94,
      "chip": "ym2612"
    },
    {
      "channel": 0,
      "note": 98,
      "start": 184.3529,
      "duration": 0.0154,
      "velocity": 127,
      "chip": "ym2612"
    },
    {
      "channel": 1,
      "note": 55,
      "start": 184.3531,
      "duration": 0.2179,
      "velocity": 93,
      "chip": "ym2612"
    },
    {
      "channel": 5,
      "note": 69,
      "start": 184.3535,
      "duration": 0.1089,
      "velocity": 94,
      "chip": "ym2612"
    },
    {
      "channel": 0,
      "note": 76,
      "start": 184.3683,
      "duration": 0.0936,
      "velocity": 114,
      "chip": "ym2612"
    },
    {
      "channel": 0,
      "note": 68,
      "start": 184.4619,
      "duration": 0.0309,
      "velocity": 114,
      "chip": "ym2612"
    },
    {
      "channel": 3,
      "note": 76,
      "start": 184.4622,
      "duration": 0.109,
      "velocity": 94,
      "chip": "ym2612"
    },
    {
      "channel": 5,
      "note": 81,
      "start": 184.4624,
      "duration": 0.109,
      "velocity": 94,
      "chip": "ym2612"
    },
    {
      "channel": 0,
      "note": 98,
      "start": 184.5708,
      "duration": 0.0309,
      "velocity": 114,
      "chip": "ym2612"
    },
    {
      "channel": 1,
      "note": 55,
      "start": 184.5709,
      "duration": 0.2179,
      "velocity": 93,
      "chip": "ym2612"
    },
    {
      "channel": 3,
      "note": 81,
      "start": 184.5711,
      "duration": 0.1089,
      "velocity": 94,
      "chip": "ym2612"
    },
    {
      "channel": 5,
      "note": 71,
      "start": 184.5714,
      "duration": 0.1089,
      "velocity": 94,
      "chip": "ym2612"
    },
    {
      "channel": 0,
      "note": 98,
      "start": 184.6798,
      "duration": 0.0309,
      "velocity": 114,
      "chip": "ym2612"
    },
    {
      "channel": 3,
      "note": 69,
      "start": 184.68,
      "duration": 0.109,
      "velocity": 94,
      "chip": "ym2612"
    },
    {
      "channel": 5,
      "note": 74,
      "start": 184.6803,
      "duration": 0.109,
      "velocity": 94,
      "chip": "ym2612"
    },
    {
      "channel": 0,
      "note": 98,
      "start": 184.7887,
      "duration": 0.1089,
      "velocity": 114,
      "chip": "ym2612"
    },
    {
      "channel": 1,
      "note": 55,
      "start": 184.7889,
      "duration": 0.2178,
      "velocity": 93,
      "chip": "ym2612"
    },
    {
      "channel": 3,
      "note": 81,
      "start": 184.789,
      "duration": 0.1089,
      "velocity": 94,
      "chip": "ym2612"
    },
    {
      "channel": 0,
      "note": 54,
      "start": 184.8976,
      "duration": 0.0309,
      "velocity": 114,
      "chip": "ym2612"
    },
    {
      "channel": 3,
      "note": 71,
      "start": 184.8979,
      "duration": 0.109,
      "velocity": 94,
      "chip": "ym2612"
    },
    {
      "channel": 5,
      "note": 76,
      "start": 184.8982,
      "duration": 0.1092,
      "velocity": 94,
      "chip": "ym2612"
    },
    {
      "channel": 0,
      "note": 98,
      "start": 185.0066,
      "duration": 0.0309,
      "velocity": 114,
      "chip": "ym2612"
    },
    {
      "channel": 1,
      "note": 55,
      "start": 185.0067,
      "duration": 0.2179,
      "velocity": 93,
      "chip": "ym2612"
    },
    {
      "channel": 3,
      "note": 74,
      "start": 185.0069,
      "duration": 0.1089,
      "velocity": 94,
      "chip": "ym2612"
    },
    {
      "channel": 5,
      "note": 78,
      "start": 185.0074,
      "duration": 0.1086,
      "velocity": 94,
      "chip": "ym2612"
    },
    {
      "channel": 0,
      "note": 98,
      "start": 185.1155,
      "duration": 0.0309,
      "velocity": 114,
      "chip": "ym2612"
    },
    {
      "channel": 5,
      "note": 81,
      "start": 185.116,
      "duration": 0.109,
      "velocity": 94,
      "chip": "ym2612"
    },
    {
      "channel": 0,
      "note": 98,
      "start": 185.2245,
      "duration": 0.0154,
      "velocity": 127,
      "chip": "ym2612"
    },
    {
      "channel": 1,
      "note": 55,
      "start": 185.2246,
      "duration": 0.2178,
      "velocity": 93,
      "chip": "ym2612"
    },
    {
      "channel": 3,
      "note": 76,
      "start": 185.2248,
      "duration": 0.1089,
      "velocity": 94,
      "chip": "ym2612"
    },
    {
      "channel": 5,
      "note": 69,
      "start": 185.225,
      "duration": 0.1089,
      "velocity": 94,
      "chip": "ym2612"
    },
    {
      "channel": 0,
      "note": 76,
      "start": 185.2398,
      "duration": 0.0936,
      "velocity": 114,
      "chip": "ym2612"
    },
    {
      "channel": 0,
      "note": 68,
      "start": 185.3334,
      "duration": 0.0309,
      "velocity": 114,
      "chip": "ym2612"
    },
    {
      "channel": 5,
      "note": 74,
      "start": 185.3339,
      "duration": 0.109,
      "velocity": 94,
      "chip": "ym2612"
    },
    {
      "channel": 0,
      "note": 98,
      "start": 185.4424,
      "duration": 0.0309,
      "velocity": 114,
      "chip": "ym2612"
    },
    {
      "channel": 1,
      "note": 55,
      "start": 185.4425,
      "duration": 0.2179,
      "velocity": 93,
      "chip": "ym2612"
    },
    {
      "channel": 3,
      "note": 78,
      "start": 185.4427,
      "duration": 0.1088,
      "velocity": 94,
      "chip": "ym2612"
    },
    {
      "channel": 0,
      "note": 98,
      "start": 185.5513,
      "duration": 0.0309,
      "velocity": 114,
      "chip": "ym2612"
    },
    {
      "channel": 3,
      "note": 81,
      "start": 185.5516,
      "duration": 0.109,
      "velocity": 94,
      "chip": "ym2612"
    },
    {
      "channel": 5,
      "note": 76,
      "start": 185.5518,
      "duration": 0.109,
      "velocity": 94,
      "chip": "ym2612"
    },
    {
      "channel": 0,
      "note": 98,
      "start": 185.6602,
      "duration": 0.1089,
      "velocity": 114,
      "chip": "ym2612"
    },
    {
      "channel": 1,
      "note": 55,
      "start": 185.6604,
      "duration": 0.2178,
      "velocity": 93,
      "chip": "ym2612"
    },
    {
      "channel": 3,
      "note": 69,
      "start": 185.6606,
      "duration": 0.1089,
      "velocity": 94,
      "chip": "ym2612"
    },
    {
      "channel": 5,
      "note": 81,
      "start": 185.6608,
      "duration": 0.1089,
      "velocity": 94,
      "chip": "ym2612"
    },
    {
      "channel": 0,
      "note": 54,
      "start": 185.7692,
      "duration": 0.0309,
      "velocity": 114,
      "chip": "ym2612"
    },
    {
      "channel": 3,
      "note": 74,
      "start": 185.7695,
      "duration": 0.109,
      "velocity": 94,
      "chip": "ym2612"
    },
    {
      "channel": 5,
      "note": 69,
      "start": 185.7697,
      "duration": 0.1089,
      "velocity": 94,
      "chip": "ym2612"
    },
    {
      "channel": 0,
      "note": 98,
      "start": 185.8781,
      "duration": 0.0309,
      "velocity": 114,
      "chip": "ym2612"
    },
    {
      "channel": 1,
      "note": 55,
      "start": 185.8782,
      "duration": 0.2179,
      "velocity": 93,
      "chip": "ym2612"
    },
    {
      "channel": 5,
      "note": 81,
      "start": 185.8786,
      "duration": 0.1089,
      "velocity": 94,
      "chip": "ym2612"
    },
    {
      "channel": 0,
      "note": 98,
      "start": 185.9871,
      "duration": 0.0309,
      "velocity": 114,
      "chip": "ym2612"
    },
    {
      "channel": 3,
      "note": 76,
      "start": 185.9873,
      "duration": 0.109,
      "velocity": 94,
      "chip": "ym2612"
    },
    {
      "channel": 5,
      "note": 71,
      "start": 185.9876,
      "duration": 0.109,
      "velocity": 94,
      "chip": "ym2612"
    },
    {
      "channel": 0,
      "note": 98,
      "start": 186.096,
      "duration": 0.0154,
      "velocity": 127,
      "chip": "ym2612"
    },
    {
      "channel": 1,
      "note": 55,
      "start": 186.0961,
      "duration": 0.2178,
      "velocity": 93,
      "chip": "ym2612"
    },
    {
      "channel": 3,
      "note": 81,
      "start": 186.0963,
      "duration": 0.1089,
      "velocity": 94,
      "chip": "ym2612"
    },
    {
      "channel": 5,
      "note": 74,
      "start": 186.0966,
      "duration": 0.1089,
      "velocity": 94,
      "chip": "ym2612"
    },
    {
      "channel": 0,
      "note": 76,
      "start": 186.1114,
      "duration": 0.0936,
      "velocity": 114,
      "chip": "ym2612"
    },
    {
      "channel": 0,
      "note": 68,
      "start": 186.2049,
      "duration": 0.0309,
      "velocity": 114,
      "chip": "ym2612"
    },
    {
      "channel": 3,
      "note": 69,
      "start": 186.2052,
      "duration": 0.109,
      "velocity": 94,
      "chip": "ym2612"
    },
    {
      "channel": 0,
      "note": 98,
      "start": 186.3139,
      "duration": 0.0309,
      "velocity": 114,
      "chip": "ym2612"
    },
    {
      "channel": 1,
      "note": 55,
      "start": 186.314,
      "duration": 0.2179,
      "velocity": 93,
      "chip": "ym2612"
    },
    {
      "channel": 3,
      "note": 81,
      "start": 186.3142,
      "duration": 0.1089,
      "velocity": 94,
      "chip": "ym2612"
    },
    {
      "channel": 5,
      "note": 76,
      "start": 186.3144,
      "duration": 0.109,
      "velocity": 94,
      "chip": "ym2612"
    },
    {
      "channel": 0,
      "note": 98,
      "start": 186.4228,
      "duration": 0.0309,
      "velocity": 114,
      "chip": "ym2612"
    },
    {
      "channel": 3,
      "note": 71,
      "start": 186.4231,
      "duration": 0.109,
      "velocity": 94,
      "chip": "ym2612"
    },
    {
      "channel": 5,
      "note": 78,
      "start": 186.4234,
      "duration": 0.109,
      "velocity": 94,
      "chip": "ym2612"
    },
    {
      "channel": 0,
      "note": 98,
      "start": 186.5318,
      "duration": 0.1089,
      "velocity": 127,
      "chip": "ym2612"
    },
    {
      "channel": 1,
      "note": 55,
      "start": 186.5319,
      "duration": 0.2178,
      "velocity": 93,
      "chip": "ym2612"
    },
    {
      "channel": 3,
      "note": 74,
      "start": 186.5321,
      "duration": 0.1089,
      "velocity": 94,
      "chip": "ym2612"
    },
    {
      "channel": 5,
      "note": 81,
      "start": 186.5324,
      "duration": 0.1089,
      "velocity": 94,
      "chip": "ym2612"
    },
    {
      "channel": 0,
      "note": 54,
      "start": 186.6407,
      "duration": 0.0153,
      "velocity": 127,
      "chip": "ym2612"
    },
    {
      "channel": 5,
      "note": 69,
      "start": 186.6412,
      "duration": 0.109,
      "velocity": 94,
      "chip": "ym2612"
    },
    {
      "channel": 0,
      "note": 76,
      "start": 186.6561,
      "duration": 0.0936,
      "velocity": 114,
      "chip": "ym2612"
    },
    {
      "channel": 0,
      "note": 68,
      "start": 186.7497,
      "duration": 0.0309,
      "velocity": 114,
      "chip": "ym2612"
    },
    {
      "channel": 1,
      "note": 55,
      "start": 186.7498,
      "duration": 0.2179,
      "velocity": 93,
      "chip": "ym2612"
    },
    {
      "channel": 3,
      "note": 76,
      "start": 186.75,
      "duration": 0.1089,
      "velocity": 94,
      "chip": "ym2612"
    },
    {
      "channel": 5,
      "note": 74,
      "start": 186.7502,
      "duration": 0.1088,
      "velocity": 94,
      "chip": "ym2612"
    },
    {
      "channel": 0,
      "note": 98,
      "start": 186.8586,
      "duration": 0.0309,
      "velocity": 114,
      "chip": "ym2612"
    },
    {
      "channel": 0,
      "note": 98,
      "start": 186.9676,
      "duration": 0.1089,
      "velocity": 114,
      "chip": "ym2612"
    },
    {
      "channel": 1,
      "note": 56,
      "start": 186.9677,
      "duration": 0.2178,
      "velocity": 93,
      "chip": "ym2612"
    },
    {
      "channel": 2,
      "note": 43,
      "start": 186.9678,
      "duration": 3.0504,
      "velocity": 121,
      "chip": "ym2612"
    },
    {
      "channel": 3,
      "note": 78,
      "start": 186.968,
      "duration": 0.1087,
      "velocity": 94,
      "chip": "ym2612"
    },
    {
      "channel": 5,
      "note": 76,
      "start": 186.9682,
      "duration": 0.1087,
      "velocity": 94,
      "chip": "ym2612"
    },
    {
      "channel": 0,
      "note": 54,
      "start": 187.0765,
      "duration": 0.0309,
      "velocity": 114,
      "chip": "ym2612"
    },
    {
      "channel": 3,
      "note": 81,
      "start": 187.0767,
      "duration": 0.109,
      "velocity": 94,
      "chip": "ym2612"
    },
    {
      "channel": 5,
      "note": 81,
      "start": 187.077,
      "duration": 0.109,
      "velocity": 94,
      "chip": "ym2612"
    },
    {
      "channel": 4,
      "note": 43,
      "start": 187.1544,
      "duration": 3.0504,
      "velocity": 121,
      "chip": "ym2612"
    },
    {
      "channel": 0,
      "note": 98,
      "start": 187.1854,
      "duration": 0.0309,
      "velocity": 114,
      "chip": "ym2612"
    },
    {
      "channel": 1,
      "note": 64,
      "start": 187.1855,
      "duration": 0.2179,
      "velocity": 93,
      "chip": "ym2612"
    },
    {
      "channel": 3,
      "note": 69,
      "start": 187.1857,
      "duration": 0.1089,
      "velocity": 94,
      "chip": "ym2612"
    },
    {
      "channel": 5,
      "note": 69,
      "start": 187.1859,
      "duration": 0.1089,
      "velocity": 94,
      "chip": "ym2612"
    },
    {
      "channel": 0,
      "note": 98,
      "start": 187.2944,
      "duration": 0.0309,
      "velocity": 114,
      "chip": "ym2612"
    },
    {
      "channel": 3,
      "note": 74,
      "start": 187.2946,
      "duration": 0.109,
      "velocity": 94,
      "chip": "ym2612"
    },
    {
      "channel": 5,
      "note": 81,
      "start": 187.2949,
      "duration": 0.109,
      "velocity": 94,
      "chip": "ym2612"
    },
    {
      "channel": 0,
      "note": 98,
      "start": 187.4033,
      "duration": 0.0153,
      "velocity": 127,
      "chip": "ym2612"
    },
    {
      "channel": 1,
      "note": 64,
      "start": 187.4034,
      "duration": 0.2178,
      "velocity": 93,
      "chip": "ym2612"
    },
    {
      "channel": 5,
      "note": 71,
      "start": 187.4039,
      "duration": 0.1089,
      "velocity": 94,
      "chip": "ym2612"
    },
    {
      "channel": 0,
      "note": 76,
      "start": 187.4187,
      "duration": 0.0936,
      "velocity": 114,
      "chip": "ym2612"
    },
    {
      "channel": 0,
      "note": 68,
      "start": 187.5122,
      "duration": 0.0309,
      "velocity": 114,
      "chip": "ym2612"
    },
    {
      "channel": 3,
      "note": 76,
      "start": 187.5125,
      "duration": 0.109,
      "velocity": 94,
      "chip": "ym2612"
    },
    {
      "channel": 5,
      "note": 74,
      "start": 187.5127,
      "duration": 0.109,
      "velocity": 94,
      "chip": "ym2612"
    },
    {
      "channel": 0,
      "note": 98,
      "start": 187.6212,
      "duration": 0.0309,
      "velocity": 114,
      "chip": "ym2612"
    },
    {
      "channel": 1,
      "note": 64,
      "start": 187.6213,
      "duration": 0.2179,
      "velocity": 93,
      "chip": "ym2612"
    },
    {
      "channel": 3,
      "note": 81,
      "start": 187.6215,
      "duration": 0.1089,
      "velocity": 94,
      "chip": "ym2612"
    },
    {
      "channel": 0,
      "note": 98,
      "start": 187.7301,
      "duration": 0.0309,
      "velocity": 114,
      "chip": "ym2612"
    },
    {
      "channel": 3,
      "note": 69,
      "start": 187.7304,
      "duration": 0.109,
      "velocity": 94,
      "chip": "ym2612"
    },
    {
      "channel": 5,
      "note": 76,
      "start": 187.7306,
      "duration": 0.1091,
      "velocity": 94,
      "chip": "ym2612"
    },
    {
      "channel": 0,
      "note": 98,
      "start": 187.8391,
      "duration": 0.1089,
      "velocity": 114,
      "chip": "ym2612"
    },
    {
      "channel": 1,
      "note": 64,
      "start": 187.8392,
      "duration": 0.218,
      "velocity": 93,
      "chip": "ym2612"
    },
    {
      "channel": 3,
      "note": 81,
      "start": 187.8394,
      "duration": 0.1089,
      "velocity": 94,
      "chip": "ym2612"
    },
    {
      "channel": 5,
      "note": 78,
      "start": 187.8397,
      "duration": 0.1088,
      "velocity": 94,
      "chip": "ym2612"
    },
    {
      "channel": 0,
      "note": 54,
      "start": 187.948,
      "duration": 0.0309,
      "velocity": 114,
      "chip": "ym2612"
    },
    {
      "channel": 3,
      "note": 71,
      "start": 187.9483,
      "duration": 0.1091,
      "velocity": 94,
      "chip": "ym2612"
    },
    {
      "channel": 5,
      "note": 81,
      "start": 187.9485,
      "duration": 0.1091,
      "velocity": 94,
      "chip": "ym2612"
    },
    {
      "channel": 0,
      "note": 98,
      "start": 188.0571,
      "duration": 0.0307,
      "velocity": 114,
      "chip": "ym2612"
    },
    {
      "channel": 1,
      "note": 64,
      "start": 188.0572,
      "duration": 0.2177,
      "velocity": 93,
      "chip": "ym2612"
    },
    {
      "channel": 3,
      "note": 74,
      "start": 188.0574,
      "duration": 0.1087,
      "velocity": 94,
      "chip": "ym2612"
    },
    {
      "channel": 5,
      "note": 69,
      "start": 188.0577,
      "duration": 0.1087,
      "velocity": 94,
      "chip": "ym2612"
    },
    {
      "channel": 0,
      "note": 98,
      "start": 188.1659,
      "duration": 0.0309,
      "velocity": 114,
      "chip": "ym2612"
    },
    {
      "channel": 5,
      "note": 74,
      "start": 188.1664,
      "duration": 0.109,
      "velocity": 94,
      "chip": "ym2612"
    },
    {
      "channel": 0,
      "note": 98,
      "start": 188.2748,
      "duration": 0.0154,
      "velocity": 127,
      "chip": "ym2612"
    },
    {
      "channel": 1,
      "note": 64,
      "start": 188.275,
      "duration": 0.2179,
      "velocity": 93,
      "chip": "ym2612"
    },
    {
      "channel": 3,
      "note": 76,
      "start": 188.2751,
      "duration": 0.1089,
      "velocity": 94,
      "chip": "ym2612"
    },
    {
      "channel": 0,
      "note": 76,
      "start": 188.2902,
      "duration": 0.0936,
      "velocity": 114,
      "chip": "ym2612"
    },
    {
      "channel": 0,
      "note": 68,
      "start": 188.3838,
      "duration": 0.0309,
      "velocity": 114,
      "chip": "ym2612"
    },
    {
      "channel": 5,
      "note": 76,
      "start": 188.3843,
      "duration": 0.1091,
      "velocity": 94,
      "chip": "ym2612"
    },
    {
      "channel": 0,
      "note": 98,
      "start": 188.4927,
      "duration": 0.0311,
      "velocity": 114,
      "chip": "ym2612"
    },
    {
      "channel": 1,
      "note": 64,
      "start": 188.4928,
      "duration": 0.2179,
      "velocity": 93,
      "chip": "ym2612"
    },
    {
      "channel": 3,
      "note": 78,
      "start": 188.4931,
      "duration": 0.1088,
      "velocity": 94,
      "chip": "ym2612"
    },
    {
      "channel": 5,
      "note": 81,
      "start": 188.4933,
      "duration": 0.1088,
      "velocity": 94,
      "chip": "ym2612"
    },
    {
      "channel": 0,
      "note": 98,
      "start": 188.6017,
      "duration": 0.0309,
      "velocity": 114,
      "chip": "ym2612"
    },
    {
      "channel": 3,
      "note": 81,
      "start": 188.6019,
      "duration": 0.109,
      "velocity": 94,
      "chip": "ym2612"
    },
    {
      "channel": 5,
      "note": 69,
      "start": 188.6022,
      "duration": 0.109,
      "velocity": 94,
      "chip": "ym2612"
    },
    {
      "channel": 0,
      "note": 98,
      "start": 188.7106,
      "duration": 0.1089,
      "velocity": 114,
      "chip": "ym2612"
    },
    {
      "channel": 1,
      "note": 64,
      "start": 188.7107,
      "duration": 0.2178,
      "velocity": 93,
      "chip": "ym2612"
    },
    {
      "channel": 3,
      "note": 69,
      "start": 188.711,
      "duration": 0.1089,
      "velocity": 94,
      "chip": "ym2612"
    },
    {
      "channel": 5,
      "note": 81,
      "start": 188.7112,
      "duration": 0.1088,
      "velocity": 94,
      "chip": "ym2612"
    },
    {
      "channel": 0,
      "note": 54,
      "start": 188.8195,
      "duration": 0.0309,
      "velocity": 114,
      "chip": "ym2612"
    },
    {
      "channel": 3,
      "note": 74,
      "start": 188.8198,
      "duration": 0.109,
      "velocity": 94,
      "chip": "ym2612"
    },
    {
      "channel": 5,
      "note": 71,
      "start": 188.8201,
      "duration": 0.1089,
      "velocity": 94,
      "chip": "ym2612"
    },
    {
      "channel": 0,
      "note": 98,
      "start": 188.9285,
      "duration": 0.0309,
      "velocity": 114,
      "chip": "ym2612"
    },
    {
      "channel": 1,
      "note": 64,
      "start": 188.9286,
      "duration": 0.2179,
      "velocity": 93,
      "chip": "ym2612"
    },
    {
      "channel": 5,
      "note": 74,
      "start": 188.929,
      "duration": 0.1089,
      "velocity": 94,
      "chip": "ym2612"
    },
    {
      "channel": 0,
      "note": 98,
      "start": 189.0374,
      "duration": 0.0309,
      "velocity": 114,
      "chip": "ym2612"
    },
    {
      "channel": 3,
      "note": 76,
      "start": 189.0377,
      "duration": 0.109,
      "velocity": 94,
      "chip": "ym2612"
    },
    {
      "channel": 0,
      "note": 98,
      "start": 189.1464,
      "duration": 0.0154,
      "velocity": 127,
      "chip": "ym2612"
    },
    {
      "channel": 1,
      "note": 64,
      "start": 189.1465,
      "duration": 0.2178,
      "velocity": 93,
      "chip": "ym2612"
    },
    {
      "channel": 3,
      "note": 81,
      "start": 189.1467,
      "duration": 0.1089,
      "velocity": 94,
      "chip": "ym2612"
    },
    {
      "channel": 5,
      "note": 76,
      "start": 189.1469,
      "duration": 0.1089,
      "velocity": 94,
      "chip": "ym2612"
    },
    {
      "channel": 0,
      "note": 76,
      "start": 189.1617,
      "duration": 0.0936,
      "velocity": 114,
      "chip": "ym2612"
    },
    {
      "channel": 0,
      "note": 68,
      "start": 189.2553,
      "duration": 0.0309,
      "velocity": 114,
      "chip": "ym2612"
    },
    {
      "channel": 3,
      "note": 69,
      "start": 189.2556,
      "duration": 0.109,
      "velocity": 94,
      "chip": "ym2612"
    },
    {
      "channel": 5,
      "note": 78,
      "start": 189.2559,
      "duration": 0.1089,
      "velocity": 94,
      "chip": "ym2612"
    },
    {
      "channel": 0,
      "note": 98,
      "start": 189.3643,
      "duration": 0.0309,
      "velocity": 114,
      "chip": "ym2612"
    },
    {
      "channel": 1,
      "note": 64,
      "start": 189.3644,
      "duration": 0.2179,
      "velocity": 93,
      "chip": "ym2612"
    },
    {
      "channel": 3,
      "note": 81,
      "start": 189.3646,
      "duration": 0.1089,
      "velocity": 94,
      "chip": "ym2612"
    },
    {
      "channel": 5,
      "note": 81,
      "start": 189.3648,
      "duration": 0.109,
      "velocity": 94,
      "chip": "ym2612"
    },
    {
      "channel": 0,
      "note": 98,
      "start": 189.4732,
      "duration": 0.0309,
      "velocity": 114,
      "chip": "ym2612"
    },
    {
      "channel": 3,
      "note": 71,
      "start": 189.4735,
      "duration": 0.109,
      "velocity": 94,
      "chip": "ym2612"
    },
    {
      "channel": 5,
      "note": 69,
      "start": 189.4739,
      "duration": 0.1088,
      "velocity": 94,
      "chip": "ym2612"
    },
    {
      "channel": 0,
      "note": 98,
      "start": 189.5822,
      "duration": 0.1089,
      "velocity": 127,
      "chip": "ym2612"
    },
    {
      "channel": 1,
      "note": 64,
      "start": 189.5823,
      "duration": 0.2178,
      "velocity": 93,
      "chip": "ym2612"
    },
    {
      "channel": 3,
      "note": 74,
      "start": 189.5825,
      "duration": 0.1088,
      "velocity": 94,
      "chip": "ym2612"
    },
    {
      "channel": 5,
      "note": 74,
      "start": 189.5827,
      "duration": 0.1088,
      "velocity": 94,
      "chip": "ym2612"
    },
    {
      "channel": 0,
      "note": 54,
      "start": 189.6911,
      "duration": 0.0154,
      "velocity": 127,
      "chip": "ym2612"
    },
    {
      "channel": 0,
      "note": 76,
      "start": 189.7064,
      "duration": 0.0936,
      "velocity": 114,
      "chip": "ym2612"
    },
    {
      "channel": 0,
      "note": 68,
      "start": 189.8,
      "duration": 0.0309,
      "velocity": 114,
      "chip": "ym2612"
    },
    {
      "channel": 1,
      "note": 64,
      "start": 189.8001,
      "duration": 0.2179,
      "velocity": 93,
      "chip": "ym2612"
    },
    {
      "channel": 3,
      "note": 76,
      "start": 189.8003,
      "duration": 0.1089,
      "velocity": 94,
      "chip": "ym2612"
    },
    {
      "channel": 5,
      "note": 76,
      "start": 189.8006,
      "duration": 0.1089,
      "velocity": 94,
      "chip": "ym2612"
    },
    {
      "channel": 0,
      "note": 98,
      "start": 189.909,
      "duration": 0.0309,
      "velocity": 114,
      "chip": "ym2612"
    },
    {
      "channel": 5,
      "note": 81,
      "start": 189.9094,
      "duration": 0.1092,
      "velocity": 94,
      "chip": "ym2612"
    },
    {
      "channel": 0,
      "note": 98,
      "start": 190.0179,
      "duration": 0.1089,
      "velocity": 114,
      "chip": "ym2612"
    },
    {
      "channel": 1,
      "note": 64,
      "start": 190.0181,
      "duration": 0.2178,
      "velocity": 93,
      "chip": "ym2612"
    },
    {
      "channel": 2,
      "note": 52,
      "start": 190.0182,
      "duration": 3.0504,
      "velocity": 121,
      "chip": "ym2612"
    },
    {
      "channel": 3,
      "note": 78,
      "start": 190.0184,
      "duration": 0.1087,
      "velocity": 94,
      "chip": "ym2612"
    },
    {
      "channel": 5,
      "note": 69,
      "start": 190.0186,
      "duration": 0.1088,
      "velocity": 94,
      "chip": "ym2612"
    },
    {
      "channel": 0,
      "note": 54,
      "start": 190.1268,
      "duration": 0.0309,
      "velocity": 114,
      "chip": "ym2612"
    },
    {
      "channel": 3,
      "note": 81,
      "start": 190.1271,
      "duration": 0.109,
      "velocity": 94,
      "chip": "ym2612"
    },
    {
      "channel": 5,
      "note": 81,
      "start": 190.1273,
      "duration": 0.109,
      "velocity": 94,
      "chip": "ym2612"
    },
    {
      "channel": 4,
      "note": 52,
      "start": 190.2048,
      "duration": 3.0504,
      "velocity": 121,
      "chip": "ym2612"
    },
    {
      "channel": 0,
      "note": 98,
      "start": 190.2358,
      "duration": 0.0309,
      "velocity": 114,
      "chip": "ym2612"
    },
    {
      "channel": 1,
      "note": 62,
      "start": 190.2359,
      "duration": 0.2179,
      "velocity": 93,
      "chip": "ym2612"
    },
    {
      "channel": 3,
      "note": 69,
      "start": 190.2361,
      "duration": 0.1089,
      "velocity": 94,
      "chip": "ym2612"
    },
    {
      "channel": 5,
      "note": 71,
      "start": 190.2363,
      "duration": 0.1089,
      "velocity": 94,
      "chip": "ym2612"
    },
    {
      "channel": 0,
      "note": 98,
      "start": 190.3447,
      "duration": 0.0309,
      "velocity": 114,
      "chip": "ym2612"
    },
    {
      "channel": 3,
      "note": 74,
      "start": 190.345,
      "duration": 0.109,
      "velocity": 94,
      "chip": "ym2612"
    },
    {
      "channel": 5,
      "note": 74,
      "start": 190.3452,
      "duration": 0.109,
      "velocity": 94,
      "chip": "ym2612"
    },
    {
      "channel": 0,
      "note": 98,
      "start": 190.4537,
      "duration": 0.0154,
      "velocity": 127,
      "chip": "ym2612"
    },
    {
      "channel": 1,
      "note": 62,
      "start": 190.4538,
      "duration": 0.2178,
      "velocity": 93,
      "chip": "ym2612"
    },
    {
      "channel": 0,
      "note": 76,
      "start": 190.469,
      "duration": 0.0936,
      "velocity": 114,
      "chip": "ym2612"
    },
    {
      "channel": 0,
      "note": 68,
      "start": 190.5626,
      "duration": 0.0309,
      "velocity": 114,
      "chip": "ym2612"
    },
    {
      "channel": 3,
      "note": 76,
      "start": 190.5629,
      "duration": 0.109,
      "velocity": 94,
      "chip": "ym2612"
    },
    {
      "channel": 5,
      "note": 76,
      "start": 190.5631,
      "duration": 0.109,
      "velocity": 94,
      "chip": "ym2612"
    },
    {
      "channel": 0,
      "note": 98,
      "start": 190.6716,
      "duration": 0.0309,
      "velocity": 114,
      "chip": "ym2612"
    },
    {
      "channel": 1,
      "note": 62,
      "start": 190.6717,
      "duration": 0.2179,
      "velocity": 93,
      "chip": "ym2612"
    },
    {
      "channel": 3,
      "note": 81,
      "start": 190.6719,
      "duration": 0.1089,
      "velocity": 94,
      "chip": "ym2612"
    },
    {
      "channel": 5,
      "note": 78,
      "start": 190.6722,
      "duration": 0.1088,
      "velocity": 94,
      "chip": "ym2612"
    },
    {
      "channel": 0,
      "note": 98,
      "start": 190.7805,
      "duration": 0.0309,
      "velocity": 114,
      "chip": "ym2612"
    },
    {
      "channel": 3,
      "note": 69,
      "start": 190.7808,
      "duration": 0.109,
      "velocity": 94,
      "chip": "ym2612"
    },
    {
      "channel": 5,
      "note": 81,
      "start": 190.781,
      "duration": 0.109,
      "velocity": 94,
      "chip": "ym2612"
    },
    {
      "channel": 0,
      "note": 98,
      "start": 190.8895,
      "duration": 0.1089,
      "velocity": 114,
      "chip": "ym2612"
    },
    {
      "channel": 1,
      "note": 62,
      "start": 190.8896,
      "duration": 0.2179,
      "velocity": 93,
      "chip": "ym2612"
    },
    {
      "channel": 3,
      "note": 81,
      "start": 190.8898,
      "duration": 0.1088,
      "velocity": 94,
      "chip": "ym2612"
    },
    {
      "channel": 5,
      "note": 69,
      "start": 190.89,
      "duration": 0.1089,
      "velocity": 94,
      "chip": "ym2612"
    },
    {
      "channel": 0,
      "note": 54,
      "start": 190.9984,
      "duration": 0.0309,
      "velocity": 114,
      "chip": "ym2612"
    },
    {
      "channel": 3,
      "note": 71,
      "start": 190.9987,
      "duration": 0.109,
      "velocity": 94,
      "chip": "ym2612"
    },
    {
      "channel": 5,
      "note": 74,
      "start": 190.9989,
      "duration": 0.109,
      "velocity": 94,
      "chip": "ym2612"
    },
    {
      "channel": 0,
      "note": 98,
      "start": 191.1074,
      "duration": 0.0308,
      "velocity": 114,
      "chip": "ym2612"
    },
    {
      "channel": 1,
      "note": 62,
      "start": 191.1075,
      "duration": 0.2178,
      "velocity": 93,
      "chip": "ym2612"
    },
    {
      "channel": 3,
      "note": 74,
      "start": 191.1077,
      "duration": 0.1088,
      "velocity": 94,
      "chip": "ym2612"
    },
    {
      "channel": 0,
      "note": 98,
      "start": 191.2163,
      "duration": 0.0309,
      "velocity": 114,
      "chip": "ym2612"
    },
    {
      "channel": 5,
      "note": 76,
      "start": 191.2167,
      "duration": 0.109,
      "velocity": 94,
      "chip": "ym2612"
    },
    {
      "channel": 0,
      "note": 98,
      "start": 191.3252,
      "duration": 0.0154,
      "velocity": 127,
      "chip": "ym2612"
    },
    {
      "channel": 1,
      "note": 62,
      "start": 191.3253,
      "duration": 0.2179,
      "velocity": 93,
      "chip": "ym2612"
    },
    {
      "channel": 3,
      "note": 76,
      "start": 191.3255,
      "duration": 0.1089,
      "velocity": 94,
      "chip": "ym2612"
    },
    {
      "channel": 5,
      "note": 81,
      "start": 191.3258,
      "duration": 0.1089,
      "velocity": 94,
      "chip": "ym2612"
    },
    {
      "channel": 0,
      "note": 76,
      "start": 191.3406,
      "duration": 0.0936,
      "velocity": 114,
      "chip": "ym2612"
    },
    {
      "channel": 0,
      "note": 68,
      "start": 191.4341,
      "duration": 0.0309,
      "velocity": 114,
      "chip": "ym2612"
    },
    {
      "channel": 5,
      "note": 69,
      "start": 191.4346,
      "duration": 0.109,
      "velocity": 94,
      "chip": "ym2612"
    },
    {
      "channel": 0,
      "note": 98,
      "start": 191.5431,
      "duration": 0.0309,
      "velocity": 114,
      "chip": "ym2612"
    },
    {
      "channel": 1,
      "note": 62,
      "start": 191.5432,
      "duration": 0.2179,
      "velocity": 93,
      "chip": "ym2612"
    },
    {
      "channel": 3,
      "note": 78,
      "start": 191.5435,
      "duration": 0.1088,
      "velocity": 94,
      "chip": "ym2612"
    },
    {
      "channel": 5,
      "note": 81,
      "start": 191.5437,
      "duration": 0.1088,
      "velocity": 94,
      "chip": "ym2612"
    },
    {
      "channel": 0,
      "note": 98,
      "start": 191.652,
      "duration": 0.0309,
      "velocity": 114,
      "chip": "ym2612"
    },
    {
      "channel": 3,
      "note": 81,
      "start": 191.6523,
      "duration": 0.109,
      "velocity": 94,
      "chip": "ym2612"
    },
    {
      "channel": 5,
      "note": 71,
      "start": 191.6525,
      "duration": 0.109,
      "velocity": 94,
      "chip": "ym2612"
    },
    {
      "channel": 0,
      "note": 98,
      "start": 191.761,
      "duration": 0.1089,
      "velocity": 114,
      "chip": "ym2612"
    },
    {
      "channel": 1,
      "note": 62,
      "start": 191.7611,
      "duration": 0.2178,
      "velocity": 93,
      "chip": "ym2612"
    },
    {
      "channel": 3,
      "note": 69,
      "start": 191.7613,
      "duration": 0.1089,
      "velocity": 94,
      "chip": "ym2612"
    },
    {
      "channel": 5,
      "note": 74,
      "start": 191.7616,
      "duration": 0.1088,
      "velocity": 94,
      "chip": "ym2612"
    },
    {
      "channel": 0,
      "note": 54,
      "start": 191.8699,
      "duration": 0.0309,
      "velocity": 114,
      "chip": "ym2612"
    },
    {
      "channel": 3,
      "note": 74,
      "start": 191.8702,
      "duration": 0.109,
      "velocity": 94,
      "chip": "ym2612"
    },
    {
      "channel": 0,
      "note": 98,
      "start": 191.9789,
      "duration": 0.0309,
      "velocity": 114,
      "chip": "ym2612"
    },
    {
      "channel": 1,
      "note": 62,
      "start": 191.979,
      "duration": 0.2179,
      "velocity": 93,
      "chip": "ym2612"
    },
    {
      "channel": 5,
      "note": 76,
      "start": 191.9794,
      "duration": 0.109,
      "velocity": 94,
      "chip": "ym2612"
    },
    {
      "channel": 0,
      "note": 98,
      "start": 192.0878,
      "duration": 0.0309,
      "velocity": 114,
      "chip": "ym2612"
    },
    {
      "channel": 3,
      "note": 76,
      "start": 192.088,
      "duration": 0.109,
      "velocity": 94,
      "chip": "ym2612"
    },
    {
      "channel": 5,
      "note": 78,
      "start": 192.0883,
      "duration": 0.109,
      "velocity": 94,
      "chip": "ym2612"
    },
    {
      "channel": 0,
      "note": 98,
      "start": 192.1967,
      "duration": 0.0154,
      "velocity": 127,
      "chip": "ym2612"
    },
    {
      "channel": 1,
      "note": 62,
      "start": 192.1969,
      "duration": 0.2178,
      "velocity": 93,
      "chip": "ym2612"
    },
    {
      "channel": 3,
      "note": 81,
      "start": 192.1971,
      "duration": 0.1089,
      "velocity": 94,
      "chip": "ym2612"
    },
    {
      "channel": 5,
      "note": 81,
      "start": 192.1973,
      "duration": 0.1089,
      "velocity": 94,
      "chip": "ym2612"
    },
    {
      "channel": 0,
      "note": 76,
      "start": 192.2121,
      "duration": 0.0936,
      "velocity": 114,
      "chip": "ym2612"
    },
    {
      "channel": 0,
      "note": 68,
      "start": 192.3057,
      "duration": 0.0309,
      "velocity": 114,
      "chip": "ym2612"
    },
    {
      "channel": 3,
      "note": 69,
      "start": 192.306,
      "duration": 0.109,
      "velocity": 94,
      "chip": "ym2612"
    },
    {
      "channel": 5,
      "note": 69,
      "start": 192.3062,
      "duration": 0.109,
      "velocity": 94,
      "chip": "ym2612"
    },
    {
      "channel": 0,
      "note": 98,
      "start": 192.4146,
      "duration": 0.0309,
      "velocity": 114,
      "chip": "ym2612"
    },
    {
      "channel": 1,
      "note": 62,
      "start": 192.4147,
      "duration": 0.2179,
      "velocity": 93,
      "chip": "ym2612"
    },
    {
      "channel": 3,
      "note": 81,
      "start": 192.4149,
      "duration": 0.109,
      "velocity": 94,
      "chip": "ym2612"
    },
    {
      "channel": 5,
      "note": 74,
      "start": 192.4152,
      "duration": 0.109,
      "velocity": 94,
      "chip": "ym2612"
    },
    {
      "channel": 0,
      "note": 98,
      "start": 192.5236,
      "duration": 0.0309,
      "velocity": 114,
      "chip": "ym2612"
    },
    {
      "channel": 3,
      "note": 71,
      "start": 192.524,
      "duration": 0.1088,
      "velocity": 94,
      "chip": "ym2612"
    },
    {
      "channel": 0,
      "note": 98,
      "start": 192.6325,
      "duration": 0.1089,
      "velocity": 127,
      "chip": "ym2612"
    },
    {
      "channel": 1,
      "note": 62,
      "start": 192.6327,
      "duration": 0.2178,
      "velocity": 93,
      "chip": "ym2612"
    },
    {
      "channel": 3,
      "note": 74,
      "start": 192.6329,
      "duration": 0.1088,
      "velocity": 94,
      "chip": "ym2612"
    },
    {
      "channel": 5,
      "note": 76,
      "start": 192.6331,
      "duration": 0.1088,
      "velocity": 94,
      "chip": "ym2612"
    },
    {
      "channel": 0,
      "note": 54,
      "start": 192.7414,
      "duration": 0.0154,
      "velocity": 127,
      "chip": "ym2612"
    },
    {
      "channel": 5,
      "note": 81,
      "start": 192.742,
      "duration": 0.109,
      "velocity": 94,
      "chip": "ym2612"
    },
    {
      "channel": 0,
      "note": 76,
      "start": 192.7568,
      "duration": 0.0936,
      "velocity": 114,
      "chip": "ym2612"
    },
    {
      "channel": 0,
      "note": 68,
      "start": 192.8504,
      "duration": 0.0309,
      "velocity": 114,
      "chip": "ym2612"
    },
    {
      "channel": 1,
      "note": 62,
      "start": 192.8505,
      "duration": 0.2179,
      "velocity": 93,
      "chip": "ym2612"
    },
    {
      "channel": 3,
      "note": 76,
      "start": 192.8507,
      "duration": 0.1089,
      "velocity": 94,
      "chip": "ym2612"
    },
    {
      "channel": 5,
      "note": 69,
      "start": 192.851,
      "duration": 0.1088,
      "velocity": 94,
      "chip": "ym2612"
    },
    {
      "channel": 0,
      "note": 98,
      "start": 192.9593,
      "duration": 0.0309,
      "velocity": 114,
      "chip": "ym2612"
    },
    {
      "channel": 5,
      "note": 81,
      "start": 192.9598,
      "duration": 0.1091,
      "velocity": 94,
      "chip": "ym2612"
    },
    {
      "channel": 0,
      "note": 98,
      "start": 193.0683,
      "duration": 0.1089,
      "velocity": 114,
      "chip": "ym2612"
    },
    {
      "channel": 1,
      "note": 62,
      "start": 193.0684,
      "duration": 0.2178,
      "velocity": 93,
      "chip": "ym2612"
    },
    {
      "channel": 2,
      "note": 50,
      "start": 193.0685,
      "duration": 3.0504,
      "velocity": 121,
      "chip": "ym2612"
    },
    {
      "channel": 3,
      "note": 78,
      "start": 193.0687,
      "duration": 0.1087,
      "velocity": 94,
      "chip": "ym2612"
    },
    {
      "channel": 5,
      "note": 71,
      "start": 193.069,
      "duration": 0.1088,
      "velocity": 94,
      "chip": "ym2612"
    },
    {
      "channel": 0,
      "note": 54,
      "start": 193.1772,
      "duration": 0.0309,
      "velocity": 114,
      "chip": "ym2612"
    },
    {
      "channel": 3,
      "note": 81,
      "start": 193.1775,
      "duration": 0.109,
      "velocity": 94,
      "chip": "ym2612"
    },
    {
      "channel": 5,
      "note": 74,
      "start": 193.1777,
      "duration": 0.109,
      "velocity": 94,
      "chip": "ym2612"
    },
    {
      "channel": 4,
      "note": 50,
      "start": 193.2551,
      "duration": 3.0503,
      "velocity": 121,
      "chip": "ym2612"
    },
    {
      "channel": 0,
      "note": 98,
      "start": 193.2861,
      "duration": 0.0309,
      "velocity": 114,
      "chip": "ym2612"
    },
    {
      "channel": 1,
      "note": 59,
      "start": 193.2863,
      "duration": 0.2179,
      "velocity": 93,
      "chip": "ym2612"
    },
    {
      "channel": 3,
      "note": 69,
      "start": 193.2865,
      "duration": 0.1089,
      "velocity": 94,
      "chip": "ym2612"
    },
    {
      "channel": 0,
      "note": 98,
      "start": 193.3951,
      "duration": 0.0309,
      "velocity": 114,
      "chip": "ym2612"
    },
    {
      "channel": 3,
      "note": 74,
      "start": 193.3954,
      "duration": 0.109,
      "velocity": 94,
      "chip": "ym2612"
    },
    {
      "channel": 5,
      "note": 76,
      "start": 193.3956,
      "duration": 0.109,
      "velocity": 94,
      "chip": "ym2612"
    },
    {
      "channel": 0,
      "note": 98,
      "start": 193.504,
      "duration": 0.0154,
      "velocity": 127,
      "chip": "ym2612"
    },
    {
      "channel": 1,
      "note": 59,
      "start": 193.5042,
      "duration": 0.2178,
      "velocity": 93,
      "chip": "ym2612"
    },
    {
      "channel": 5,
      "note": 78,
      "start": 193.5046,
      "duration": 0.1088,
      "velocity": 94,
      "chip": "ym2612"
    },
    {
      "channel": 0,
      "note": 76,
      "start": 193.5194,
      "duration": 0.0936,
      "velocity": 114,
      "chip": "ym2612"
    },
    {
      "channel": 0,
      "note": 68,
      "start": 193.613,
      "duration": 0.0309,
      "velocity": 114,
      "chip": "ym2612"
    },
    {
      "channel": 3,
      "note": 76,
      "start": 193.6132,
      "duration": 0.109,
      "velocity": 94,
      "chip": "ym2612"
    },
    {
      "channel": 5,
      "note": 81,
      "start": 193.6135,
      "duration": 0.109,
      "velocity": 94,
      "chip": "ym2612"
    },
    {
      "channel": 0,
      "note": 98,
      "start": 193.7219,
      "duration": 0.0309,
      "velocity": 114,
      "chip": "ym2612"
    },
    {
      "channel": 1,
      "note": 59,
      "start": 193.722,
      "duration": 0.2179,
      "velocity": 93,
      "chip": "ym2612"
    },
    {
      "channel": 3,
      "note": 81,
      "start": 193.7222,
      "duration": 0.1089,
      "velocity": 94,
      "chip": "ym2612"
    },
    {
      "channel": 5,
      "note": 69,
      "start": 193.7225,
      "duration": 0.1089,
      "velocity": 94,
      "chip": "ym2612"
    },
    {
      "channel": 0,
      "note": 98,
      "start": 193.8309,
      "duration": 0.0309,
      "velocity": 114,
      "chip": "ym2612"
    },
    {
      "channel": 3,
      "note": 69,
      "start": 193.8311,
      "duration": 0.109,
      "velocity": 94,
      "chip": "ym2612"
    },
    {
      "channel": 5,
      "note": 74,
      "start": 193.8314,
      "duration": 0.1092,
      "velocity": 94,
      "chip": "ym2612"
    },
    {
      "channel": 0,
      "note": 98,
      "start": 193.9398,
      "duration": 0.1089,
      "velocity": 114,
      "chip": "ym2612"
    },
    {
      "channel": 1,
      "note": 59,
      "start": 193.94,
      "duration": 0.2178,
      "velocity": 93,
      "chip": "ym2612"
    },
    {
      "channel": 3,
      "note": 81,
      "start": 193.9402,
      "duration": 0.1089,
      "velocity": 94,
      "chip": "ym2612"
    },
    {
      "channel": 0,
      "note": 54,
      "start": 194.0488,
      "duration": 0.0309,
      "velocity": 114,
      "chip": "ym2612"
    },
    {
      "channel": 3,
      "note": 71,
      "start": 194.049,
      "duration": 0.109,
      "velocity": 94,
      "chip": "ym2612"
    },
    {
      "channel": 5,
      "note": 76,
      "start": 194.0493,
      "duration": 0.109,
      "velocity": 94,
      "chip": "ym2612"
    },
    {
      "channel": 0,
      "note": 98,
      "start": 194.1577,
      "duration": 0.0309,
      "velocity": 114,
      "chip": "ym2612"
    },
    {
      "channel": 1,
      "note": 59,
      "start": 194.1578,
      "duration": 0.2179,
      "velocity": 93,
      "chip": "ym2612"
    },
    {
      "channel": 3,
      "note": 74,
      "start": 194.158,
      "duration": 0.1089,
      "velocity": 94,
      "chip": "ym2612"
    },
    {
      "channel": 5,
      "note": 81,
      "start": 194.1582,
      "duration": 0.1089,
      "velocity": 94,
      "chip": "ym2612"
    },
    {
      "channel": 0,
      "note": 98,
      "start": 194.2666,
      "duration": 0.0309,
      "velocity": 114,
      "chip": "ym2612"
    },
    {
      "channel": 5,
      "note": 69,
      "start": 194.2671,
      "duration": 0.109,
      "velocity": 94,
      "chip": "ym2612"
    },
    {
      "channel": 0,
      "note": 98,
      "start": 194.3756,
      "duration": 0.0154,
      "velocity": 127,
      "chip": "ym2612"
    },
    {
      "channel": 1,
      "note": 59,
      "start": 194.3757,
      "duration": 0.2178,
      "velocity": 93,
      "chip": "ym2612"
    },
    {
      "channel": 3,
      "note": 76,
      "start": 194.3759,
      "duration": 0.1089,
      "velocity": 94,
      "chip": "ym2612"
    },
    {
      "channel": 5,
      "note": 81,
      "start": 194.3761,
      "duration": 0.1089,
      "velocity": 94,
      "chip": "ym2612"
    },
    {
      "channel": 0,
      "note": 76,
      "start": 194.3909,
      "duration": 0.0936,
      "velocity": 114,
      "chip": "ym2612"
    },
    {
      "channel": 0,
      "note": 68,
      "start": 194.4845,
      "duration": 0.0309,
      "velocity": 114,
      "chip": "ym2612"
    },
    {
      "channel": 5,
      "note": 71,
      "start": 194.485,
      "duration": 0.109,
      "velocity": 94,
      "chip": "ym2612"
    },
    {
      "channel": 0,
      "note": 98,
      "start": 194.5934,
      "duration": 0.0309,
      "velocity": 114,
      "chip": "ym2612"
    },
    {
      "channel": 1,
      "note": 59,
      "start": 194.5936,
      "duration": 0.2179,
      "velocity": 93,
      "chip": "ym2612"
    },
    {
      "channel": 3,
      "note": 78,
      "start": 194.5938,
      "duration": 0.1088,
      "velocity": 94,
      "chip": "ym2612"
    },
    {
      "channel": 5,
      "note": 74,
      "start": 194.5941,
      "duration": 0.1088,
      "velocity": 94,
      "chip": "ym2612"
    },
    {
      "channel": 0,
      "note": 98,
      "start": 194.7024,
      "duration": 0.0309,
      "velocity": 114,
      "chip": "ym2612"
    },
    {
      "channel": 3,
      "note": 81,
      "start": 194.7027,
      "duration": 0.109,
      "velocity": 94,
      "chip": "ym2612"
    },
    {
      "channel": 0,
      "note": 98,
      "start": 194.8114,
      "duration": 0.1089,
      "velocity": 114,
      "chip": "ym2612"
    },
    {
      "channel": 1,
      "note": 59,
      "start": 194.8115,
      "duration": 0.2178,
      "velocity": 93,
      "chip": "ym2612"
    },
    {
      "channel": 3,
      "note": 69,
      "start": 194.8117,
      "duration": 0.1089,
      "velocity": 94,
      "chip": "ym2612"
    },
    {
      "channel": 5,
      "note": 76,
      "start": 194.8119,
      "duration": 0.1089,
      "velocity": 94,
      "chip": "ym2612"
    },
    {
      "channel": 0,
      "note": 54,
      "start": 194.9203,
      "duration": 0.0309,
      "velocity": 114,
      "chip": "ym2612"
    },
    {
      "channel": 3,
      "note": 74,
      "start": 194.9206,
      "duration": 0.1089,
      "velocity": 94,
      "chip": "ym2612"
    },
    {
      "channel": 5,
      "note": 78,
      "start": 194.9208,
      "duration": 0.1089,
      "velocity": 94,
      "chip": "ym2612"
    },
    {
      "channel": 0,
      "note": 98,
      "start": 195.0292,
      "duration": 0.0309,
      "velocity": 114,
      "chip": "ym2612"
    },
    {
      "channel": 1,
      "note": 59,
      "start": 195.0293,
      "duration": 0.2179,
      "velocity": 93,
      "chip": "ym2612"
    },
    {
      "channel": 5,
      "note": 81,
      "start": 195.0298,
      "duration": 0.1089,
      "velocity": 94,
      "chip": "ym2612"
    },
    {
      "channel": 0,
      "note": 98,
      "start": 195.1382,
      "duration": 0.0309,
      "velocity": 114,
      "chip": "ym2612"
    },
    {
      "channel": 3,
      "note": 76,
      "start": 195.1384,
      "duration": 0.109,
      "velocity": 94,
      "chip": "ym2612"
    },
    {
      "channel": 5,
      "note": 69,
      "start": 195.1387,
      "duration": 0.109,
      "velocity": 94,
      "chip": "ym2612"
    },
    {
      "channel": 0,
      "note": 98,
      "start": 195.2471,
      "duration": 0.0154,
      "velocity": 127,
      "chip": "ym2612"
    },
    {
      "channel": 1,
      "note": 59,
      "start": 195.2472,
      "duration": 0.2178,
      "velocity": 93,
      "chip": "ym2612"
    },
    {
      "channel": 3,
      "note": 81,
      "start": 195.2474,
      "duration": 0.1089,
      "velocity": 94,
      "chip": "ym2612"
    },
    {
      "channel": 5,
      "note": 74,
      "start": 195.2477,
      "duration": 0.1089,
      "velocity": 94,
      "chip": "ym2612"
    },
    {
      "channel": 0,
      "note": 76,
      "start": 195.2624,
      "duration": 0.0936,
      "velocity": 114,
      "chip": "ym2612"
    },
    {
      "channel": 0,
      "note": 68,
      "start": 195.3561,
      "duration": 0.0309,
      "velocity": 114,
      "chip": "ym2612"
    },
    {
      "channel": 3,
      "note": 69,
      "start": 195.3563,
      "duration": 0.109,
      "velocity": 94,
      "chip": "ym2612"
    },
    {
      "channel": 0,
      "note": 98,
      "start": 195.465,
      "duration": 0.0309,
      "velocity": 114,
      "chip": "ym2612"
    },
    {
      "channel": 1,
      "note": 59,
      "start": 195.4651,
      "duration": 0.2179,
      "velocity": 93,
      "chip": "ym2612"
    },
    {
      "channel": 3,
      "note": 81,
      "start": 195.4653,
      "duration": 0.109,
      "velocity": 94,
      "chip": "ym2612"
    },
    {
      "channel": 5,
      "note": 76,
      "start": 195.4655,
      "duration": 0.109,
      "velocity": 94,
      "chip": "ym2612"
    },
    {
      "channel": 0,
      "note": 98,
      "start": 195.5741,
      "duration": 0.0307,
      "velocity": 114,
      "chip": "ym2612"
    },
    {
      "channel": 3,
      "note": 71,
      "start": 195.5743,
      "duration": 0.1089,
      "velocity": 94,
      "chip": "ym2612"
    },
    {
      "channel": 5,
      "note": 81,
      "start": 195.5746,
      "duration": 0.1089,
      "velocity": 94,
      "chip": "ym2612"
    },
    {
      "channel": 0,
      "note": 98,
      "start": 195.6829,
      "duration": 0.1089,
      "velocity": 127,
      "chip": "ym2612"
    },
    {
      "channel": 1,
      "note": 59,
      "start": 195.683,
      "duration": 0.2178,
      "velocity": 93,
      "chip": "ym2612"
    },
    {
      "channel": 3,
      "note": 74,
      "start": 195.6832,
      "duration": 0.1089,
      "velocity": 94,
      "chip": "ym2612"
    },
    {
      "channel": 5,
      "note": 69,
      "start": 195.6834,
      "duration": 0.1089,
      "velocity": 94,
      "chip": "ym2612"
    },
    {
      "channel": 0,
      "note": 54,
      "start": 195.7918,
      "duration": 0.0154,
      "velocity": 127,
      "chip": "ym2612"
    },
    {
      "channel": 5,
      "note": 81,
      "start": 195.7923,
      "duration": 0.109,
      "velocity": 94,
      "chip": "ym2612"
    },
    {
      "channel": 0,
      "note": 76,
      "start": 195.8072,
      "duration": 0.0936,
      "velocity": 114,
      "chip": "ym2612"
    },
    {
      "channel": 0,
      "note": 68,
      "start": 195.9007,
      "duration": 0.0309,
      "velocity": 114,
      "chip": "ym2612"
    },
    {
      "channel": 1,
      "note": 59,
      "start": 195.9009,
      "duration": 0.2179,
      "velocity": 93,
      "chip": "ym2612"
    },
    {
      "channel": 3,
      "note": 76,
      "start": 195.9011,
      "duration": 0.1089,
      "velocity": 94,
      "chip": "ym2612"
    },
    {
      "channel": 5,
      "note": 71,
      "start": 195.9013,
      "duration": 0.1088,
      "velocity": 94,
      "chip": "ym2612"
    },
    {
      "channel": 0,
      "note": 98,
      "start": 196.0097,
      "duration": 0.0309,
      "velocity": 114,
      "chip": "ym2612"
    },
    {
      "channel": 5,
      "note": 74,
      "start": 196.0102,
      "duration": 0.1091,
      "velocity": 94,
      "chip": "ym2612"
    },
    {
      "channel": 0,
      "note": 98,
      "start": 196.1187,
      "duration": 0.1089,
      "velocity": 114,
      "chip": "ym2612"
    },
    {
      "channel": 1,
      "note": 59,
      "start": 196.1188,
      "duration": 0.2178,
      "velocity": 93,
      "chip": "ym2612"
    },
    {
      "channel": 2,
      "note": 47,
      "start": 196.1189,
      "duration": 3.0504,
      "velocity": 121,
      "chip": "ym2612"
    },
    {
      "channel": 3,
      "note": 78,
      "start": 196.1191,
      "duration": 0.1087,
      "velocity": 94,
      "chip": "ym2612"
    },
    {
      "channel": 0,
      "note": 54,
      "start": 196.2276,
      "duration": 0.0309,
      "velocity": 114,
      "chip": "ym2612"
    },
    {
      "channel": 3,
      "note": 81,
      "start": 196.2278,
      "duration": 0.109,
      "velocity": 94,
      "chip": "ym2612"
    },
    {
      "channel": 5,
      "note": 76,
      "start": 196.2281,
      "duration": 0.109,
      "velocity": 94,
      "chip": "ym2612"
    },
    {
      "channel": 4,
      "note": 47,
      "start": 196.3055,
      "duration": 3.0504,
      "velocity": 121,
      "chip": "ym2612"
    },
    {
      "channel": 0,
      "note": 98,
      "start": 196.3365,
      "duration": 0.0309,
      "velocity": 114,
      "chip": "ym2612"
    },
    {
      "channel": 1,
      "note": 64,
      "start": 196.3366,
      "duration": 0.2179,
      "velocity": 93,
      "chip": "ym2612"
    },
    {
      "channel": 3,
      "note": 69,
      "start": 196.3368,
      "duration": 0.1089,
      "velocity": 94,
      "chip": "ym2612"
    },
    {
      "channel": 5,
      "note": 78,
      "start": 196.3371,
      "duration": 0.1088,
      "velocity": 94,
      "chip": "ym2612"
    },
    {
      "channel": 0,
      "note": 98,
      "start": 196.4455,
      "duration": 0.0309,
      "velocity": 114,
      "chip": "ym2612"
    },
    {
      "channel": 3,
      "note": 74,
      "start": 196.4457,
      "duration": 0.109,
      "velocity": 94,
      "chip": "ym2612"
    },
    {
      "channel": 5,
      "note": 81,
      "start": 196.4459,
      "duration": 0.109,
      "velocity": 94,
      "chip": "ym2612"
    },
    {
      "channel": 0,
      "note": 98,
      "start": 196.5544,
      "duration": 0.0154,
      "velocity": 127,
      "chip": "ym2612"
    },
    {
      "channel": 1,
      "note": 64,
      "start": 196.5545,
      "duration": 0.2178,
      "velocity": 93,
      "chip": "ym2612"
    },
    {
      "channel": 5,
      "note": 69,
      "start": 196.5549,
      "duration": 0.1089,
      "velocity": 94,
      "chip": "ym2612"
    },
    {
      "channel": 0,
      "note": 76,
      "start": 196.5698,
      "duration": 0.0936,
      "velocity": 114,
      "chip": "ym2612"
    },
    {
      "channel": 0,
      "note": 68,
      "start": 196.6633,
      "duration": 0.0309,
      "velocity": 114,
      "chip": "ym2612"
    },
    {
      "channel": 3,
      "note": 76,
      "start": 196.6636,
      "duration": 0.109,
      "velocity": 94,
      "chip": "ym2612"
    },
    {
      "channel": 5,
      "note": 74,
      "start": 196.6639,
      "duration": 0.109,
      "velocity": 94,
      "chip": "ym2612"
    },
    {
      "channel": 0,
      "note": 98,
      "start": 196.7723,
      "duration": 0.0309,
      "velocity": 114,
      "chip": "ym2612"
    },
    {
      "channel": 1,
      "note": 64,
      "start": 196.7724,
      "duration": 0.2181,
      "velocity": 93,
      "chip": "ym2612"
    },
    {
      "channel": 3,
      "note": 81,
      "start": 196.7726,
      "duration": 0.1089,
      "velocity": 94,
      "chip": "ym2612"
    },
    {
      "channel": 0,
      "note": 98,
      "start": 196.8812,
      "duration": 0.0309,
      "velocity": 114,
      "chip": "ym2612"
    },
    {
      "channel": 3,
      "note": 69,
      "start": 196.8815,
      "duration": 0.1092,
      "velocity": 94,
      "chip": "ym2612"
    },
    {
      "channel": 5,
      "note": 76,
      "start": 196.8817,
      "duration": 0.1092,
      "velocity": 94,
      "chip": "ym2612"
    },
    {
      "channel": 0,
      "note": 98,
      "start": 196.9902,
      "duration": 0.1089,
      "velocity": 114,
      "chip": "ym2612"
    },
    {
      "channel": 1,
      "note": 64,
      "start": 196.9905,
      "duration": 0.2177,
      "velocity": 93,
      "chip": "ym2612"
    },
    {
      "channel": 3,
      "note": 81,
      "start": 196.9907,
      "duration": 0.1087,
      "velocity": 94,
      "chip": "ym2612"
    },
    {
      "channel": 5,
      "note": 81,
      "start": 196.9909,
      "duration": 0.1087,
      "velocity": 94,
      "chip": "ym2612"
    },
    {
      "channel": 0,
      "note": 54,
      "start": 197.0991,
      "duration": 0.0309,
      "velocity": 114,
      "chip": "ym2612"
    },
    {
      "channel": 3,
      "note": 71,
      "start": 197.0994,
      "duration": 0.109,
      "velocity": 94,
      "chip": "ym2612"
    },
    {
      "channel": 5,
      "note": 69,
      "start": 197.0996,
      "duration": 0.109,
      "velocity": 94,
      "chip": "ym2612"
    },
    {
      "channel": 0,
      "note": 98,
      "start": 197.208,
      "duration": 0.0309,
      "velocity": 114,
      "chip": "ym2612"
    },
    {
      "channel": 1,
      "note": 64,
      "start": 197.2082,
      "duration": 0.2179,
      "velocity": 93,
      "chip": "ym2612"
    },
    {
      "channel": 3,
      "note": 74,
      "start": 197.2084,
      "duration": 0.1089,
      "velocity": 94,
      "chip": "ym2612"
    },
    {
      "channel": 5,
      "note": 81,
      "start": 197.2086,
      "duration": 0.1088,
      "velocity": 94,
      "chip": "ym2612"
    },
    {
      "channel": 0,
      "note": 98,
      "start": 197.317,
      "duration": 0.0309,
      "velocity": 114,
      "chip": "ym2612"
    },
    {
      "channel": 5,
      "note": 71,
      "start": 197.3175,
      "duration": 0.109,
      "velocity": 94,
      "chip": "ym2612"
    },
    {
      "channel": 0,
      "note": 98,
      "start": 197.4259,
      "duration": 0.0154,
      "velocity": 127,
      "chip": "ym2612"
    },
    {
      "channel": 1,
      "note": 64,
      "start": 197.4261,
      "duration": 0.2178,
      "velocity": 93,
      "chip": "ym2612"
    },
    {
      "channel": 3,
      "note": 76,
      "start": 197.4263,
      "duration": 0.1089,
      "velocity": 94,
      "chip": "ym2612"
    },
    {
      "channel": 5,
      "note": 74,
      "start": 197.4265,
      "duration": 0.1088,
      "velocity": 94,
      "chip": "ym2612"
    },
    {
      "channel": 0,
      "note": 76,
      "start": 197.4413,
      "duration": 0.0936,
      "velocity": 114,
      "chip": "ym2612"
    },
    {
      "channel": 0,
      "note": 68,
      "start": 197.5349,
      "duration": 0.0309,
      "velocity": 114,
      "chip": "ym2612"
    },
    {
      "channel": 0,
      "note": 98,
      "start": 197.6438,
      "duration": 0.0309,
      "velocity": 114,
      "chip": "ym2612"
    },
    {
      "channel": 1,
      "note": 64,
      "start": 197.6439,
      "duration": 0.2179,
      "velocity": 93,
      "chip": "ym2612"
    },
    {
      "channel": 3,
      "note": 78,
      "start": 197.6442,
      "duration": 0.1088,
      "velocity": 94,
      "chip": "ym2612"
    },
    {
      "channel": 5,
      "note": 76,
      "start": 197.6444,
      "duration": 0.1089,
      "velocity": 94,
      "chip": "ym2612"
    },
    {
      "channel": 0,
      "note": 98,
      "start": 197.7528,
      "duration": 0.0309,
      "velocity": 114,
      "chip": "ym2612"
    },
    {
      "channel": 3,
      "note": 81,
      "start": 197.753,
      "duration": 0.109,
      "velocity": 94,
      "chip": "ym2612"
    },
    {
      "channel": 5,
      "note": 78,
      "start": 197.7533,
      "duration": 0.109,
      "velocity": 94,
      "chip": "ym2612"
    },
    {
      "channel": 0,
      "note": 98,
      "start": 197.8617,
      "duration": 0.1089,
      "velocity": 114,
      "chip": "ym2612"
    },
    {
      "channel": 1,
      "note": 64,
      "start": 197.8619,
      "duration": 0.2178,
      "velocity": 93,
      "chip": "ym2612"
    },
    {
      "channel": 3,
      "note": 69,
      "start": 197.8621,
      "duration": 0.1088,
      "velocity": 94,
      "chip": "ym2612"
    },
    {
      "channel": 5,
      "note": 81,
      "start": 197.8623,
      "duration": 0.1089,
      "velocity": 94,
      "chip": "ym2612"
    },
    {
      "channel": 0,
      "note": 54,
      "start": 197.9706,
      "duration": 0.0309,
      "velocity": 114,
      "chip": "ym2612"
    },
    {
      "channel": 3,
      "note": 74,
      "start": 197.9709,
      "duration": 0.109,
      "velocity": 94,
      "chip": "ym2612"
    },
    {
      "channel": 5,
      "note": 69,
      "start": 197.9712,
      "duration": 0.1089,
      "velocity": 94,
      "chip": "ym2612"
    },
    {
      "channel": 0,
      "note": 98,
      "start": 198.0796,
      "duration": 0.0309,
      "velocity": 114,
      "chip": "ym2612"
    },
    {
      "channel": 1,
      "note": 64,
      "start": 198.0797,
      "duration": 0.2179,
      "velocity": 93,
      "chip": "ym2612"
    },
    {
      "channel": 5,
      "note": 74,
      "start": 198.0801,
      "duration": 0.1089,
      "velocity": 94,
      "chip": "ym2612"
    },
    {
      "channel": 0,
      "note": 98,
      "start": 198.1885,
      "duration": 0.0309,
      "velocity": 114,
      "chip": "ym2612"
    },
    {
      "channel": 3,
      "note": 76,
      "start": 198.1888,
      "duration": 0.109,
      "velocity": 94,
      "chip": "ym2612"
    },
    {
      "channel": 0,
      "note": 98,
      "start": 198.2975,
      "duration": 0.0154,
      "velocity": 127,
      "chip": "ym2612"
    },
    {
      "channel": 1,
      "note": 64,
      "start": 198.2976,
      "duration": 0.2179,
      "velocity": 93,
      "chip": "ym2612"
    },
    {
      "channel": 3,
      "note": 81,
      "start": 198.2978,
      "duration": 0.1089,
      "velocity": 94,
      "chip": "ym2612"
    },
    {
      "channel": 5,
      "note": 76,
      "start": 198.298,
      "duration": 0.1091,
      "velocity": 94,
      "chip": "ym2612"
    },
    {
      "channel": 0,
      "note": 76,
      "start": 198.3128,
      "duration": 0.0936,
      "velocity": 114,
      "chip": "ym2612"
    },
    {
      "channel": 0,
      "note": 68,
      "start": 198.4064,
      "duration": 0.0309,
      "velocity": 114,
      "chip": "ym2612"
    },
    {
      "channel": 3,
      "note": 69,
      "start": 198.4067,
      "duration": 0.109,
      "velocity": 94,
      "chip": "ym2612"
    },
    {
      "channel": 5,
      "note": 81,
      "start": 198.4071,
      "duration": 0.1088,
      "velocity": 94,
      "chip": "ym2612"
    },
    {
      "channel": 0,
      "note": 98,
      "start": 198.5154,
      "duration": 0.0309,
      "velocity": 114,
      "chip": "ym2612"
    },
    {
      "channel": 1,
      "note": 64,
      "start": 198.5155,
      "duration": 0.2179,
      "velocity": 93,
      "chip": "ym2612"
    },
    {
      "channel": 3,
      "note": 81,
      "start": 198.5157,
      "duration": 0.1089,
      "velocity": 94,
      "chip": "ym2612"
    },
    {
      "channel": 5,
      "note": 69,
      "start": 198.5159,
      "duration": 0.1089,
      "velocity": 94,
      "chip": "ym2612"
    },
    {
      "channel": 0,
      "note": 98,
      "start": 198.6243,
      "duration": 0.0309,
      "velocity": 114,
      "chip": "ym2612"
    },
    {
      "channel": 3,
      "note": 71,
      "start": 198.6246,
      "duration": 0.109,
      "velocity": 94,
      "chip": "ym2612"
    },
    {
      "channel": 5,
      "note": 81,
      "start": 198.6248,
      "duration": 0.109,
      "velocity": 94,
      "chip": "ym2612"
    },
    {
      "channel": 0,
      "note": 98,
      "start": 198.7332,
      "duration": 0.1089,
      "velocity": 127,
      "chip": "ym2612"
    },
    {
      "channel": 1,
      "note": 64,
      "start": 198.7334,
      "duration": 0.2179,
      "velocity": 93,
      "chip": "ym2612"
    },
    {
      "channel": 3,
      "note": 74,
      "start": 198.7336,
      "duration": 0.1089,
      "velocity": 94,
      "chip": "ym2612"
    },
    {
      "channel": 5,
      "note": 71,
      "start": 198.7338,
      "duration": 0.1088,
      "velocity": 94,
      "chip": "ym2612"
    },
    {
      "channel": 0,
      "note": 54,
      "start": 198.8422,
      "duration": 0.0154,
      "velocity": 127,
      "chip": "ym2612"
    },
    {
      "channel": 5,
      "note": 74,
      "start": 198.8427,
      "duration": 0.109,
      "velocity": 94,
      "chip": "ym2612"
    },
    {
      "channel": 0,
      "note": 76,
      "start": 198.8575,
      "duration": 0.0936,
      "velocity": 114,
      "chip": "ym2612"
    },
    {
      "channel": 0,
      "note": 68,
      "start": 198.9511,
      "duration": 0.0309,
      "velocity": 114,
      "chip": "ym2612"
    },
    {
      "channel": 1,
      "note": 64,
      "start": 198.9512,
      "duration": 0.2179,
      "velocity": 93,
      "chip": "ym2612"
    },
    {
      "channel": 3,
      "note": 76,
      "start": 198.9514,
      "duration": 0.1089,
      "velocity": 94,
      "chip": "ym2612"
    },
    {
      "channel": 0,
      "note": 98,
      "start": 199.0601,
      "duration": 0.0309,
      "velocity": 114,
      "chip": "ym2612"
    },
    {
      "channel": 5,
      "note": 76,
      "start": 199.0605,
      "duration": 0.1092,
      "velocity": 94,
      "chip": "ym2612"
    },
    {
      "channel": 0,
      "note": 98,
      "start": 199.169,
      "duration": 0.1089,
      "velocity": 114,
      "chip": "ym2612"
    },
    {
      "channel": 1,
      "note": 64,
      "start": 199.1692,
      "duration": 0.2178,
      "velocity": 93,
      "chip": "ym2612"
    },
    {
      "channel": 2,
      "note": 52,
      "start": 199.1693,
      "duration": 3.0504,
      "velocity": 121,
      "chip": "ym2612"
    },
    {
      "channel": 3,
      "note": 78,
      "start": 199.1695,
      "duration": 0.1088,
      "velocity": 94,
      "chip": "ym2612"
    },
    {
      "channel": 5,
      "note": 78,
      "start": 199.1698,
      "duration": 0.1087,
      "velocity": 94,
      "chip": "ym2612"
    },
    {
      "channel": 0,
      "note": 54,
      "start": 199.2779,
      "duration": 0.0309,
      "velocity": 114,
      "chip": "ym2612"
    },
    {
      "channel": 3,
      "note": 81,
      "start": 199.2782,
      "duration": 0.109,
      "velocity": 94,
      "chip": "ym2612"
    },
    {
      "channel": 5,
      "note": 81,
      "start": 199.2785,
      "duration": 0.109,
      "velocity": 94,
      "chip": "ym2612"
    },
    {
      "channel": 4,
      "note": 52,
      "start": 199.3559,
      "duration": 3.0504,
      "velocity": 121,
      "chip": "ym2612"
    },
    {
      "channel": 0,
      "note": 98,
      "start": 199.3869,
      "duration": 0.0309,
      "velocity": 114,
      "chip": "ym2612"
    },
    {
      "channel": 1,
      "note": 67,
      "start": 199.387,
      "duration": 0.2179,
      "velocity": 93,
      "chip": "ym2612"
    },
    {
      "channel": 3,
      "note": 69,
      "start": 199.3872,
      "duration": 0.1089,
      "velocity": 94,
      "chip": "ym2612"
    },
    {
      "channel": 5,
      "note": 69,
      "start": 199.3874,
      "duration": 0.1089,
      "velocity": 94,
      "chip": "ym2612"
    },
    {
      "channel": 0,
      "note": 98,
      "start": 199.4958,
      "duration": 0.0309,
      "velocity": 114,
      "chip": "ym2612"
    },
    {
      "channel": 3,
      "note": 74,
      "start": 199.4961,
      "duration": 0.109,
      "velocity": 94,
      "chip": "ym2612"
    },
    {
      "channel": 5,
      "note": 74,
      "start": 199.4963,
      "duration": 0.109,
      "velocity": 94,
      "chip": "ym2612"
    },
    {
      "channel": 0,
      "note": 98,
      "start": 199.6048,
      "duration": 0.0154,
      "velocity": 127,
      "chip": "ym2612"
    },
    {
      "channel": 1,
      "note": 67,
      "start": 199.6049,
      "duration": 0.2179,
      "velocity": 93,
      "chip": "ym2612"
    },
    {
      "channel": 0,
      "note": 76,
      "start": 199.6201,
      "duration": 0.0936,
      "velocity": 114,
      "chip": "ym2612"
    },
    {
      "channel": 0,
      "note": 68,
      "start": 199.7137,
      "duration": 0.0309,
      "velocity": 114,
      "chip": "ym2612"
    },
    {
      "channel": 3,
      "note": 76,
      "start": 199.714,
      "duration": 0.109,
      "velocity": 94,
      "chip": "ym2612"
    },
    {
      "channel": 5,
      "note": 76,
      "start": 199.7142,
      "duration": 0.109,
      "velocity": 94,
      "chip": "ym2612"
    },
    {
      "channel": 0,
      "note": 98,
      "start": 199.8227,
      "duration": 0.0309,
      "velocity": 114,
      "chip": "ym2612"
    },
    {
      "channel": 1,
      "note": 67,
      "start": 199.8228,
      "duration": 0.2181,
      "velocity": 93,
      "chip": "ym2612"
    },
    {
      "channel": 3,
      "note": 81,
      "start": 199.823,
      "duration": 0.1089,
      "velocity": 94,
      "chip": "ym2612"
    },
    {
      "channel": 5,
      "note": 81,
      "start": 199.8232,
      "duration": 0.1089,
      "velocity": 94,
      "chip": "ym2612"
    },
    {
      "channel": 0,
      "note": 98,
      "start": 199.9316,
      "duration": 0.0309,
      "velocity": 114,
      "chip": "ym2612"
    },
    {
      "channel": 3,
      "note": 69,
      "start": 199.9319,
      "duration": 0.1092,
      "velocity": 94,
      "chip": "ym2612"
    },
    {
      "channel": 5,
      "note": 69,
      "start": 199.9321,
      "duration": 0.1092,
      "velocity": 94,
      "chip": "ym2612"
    },
    {
      "channel": 0,
      "note": 98,
      "start": 200.0407,
      "duration": 0.1088,
      "velocity": 114,
      "chip": "ym2612"
    },
    {
      "channel": 1,
      "note": 67,
      "start": 200.0409,
      "duration": 0.2177,
      "velocity": 93,
      "chip": "ym2612"
    },
    {
      "channel": 3,
      "note": 81,
      "start": 200.0411,
      "duration": 0.1087,
      "velocity": 94,
      "chip": "ym2612"
    },
    {
      "channel": 5,
      "note": 81,
      "start": 200.0413,
      "duration": 0.1087,
      "velocity": 94,
      "chip": "ym2612"
    },
    {
      "channel": 0,
      "note": 54,
      "start": 200.1495,
      "duration": 0.0309,
      "velocity": 114,
      "chip": "ym2612"
    },
    {
      "channel": 3,
      "note": 71,
      "start": 200.1498,
      "duration": 0.109,
      "velocity": 94,
      "chip": "ym2612"
    },
    {
      "channel": 5,
      "note": 71,
      "start": 200.15,
      "duration": 0.109,
      "velocity": 94,
      "chip": "ym2612"
    },
    {
      "channel": 0,
      "note": 98,
      "start": 200.2584,
      "duration": 0.0309,
      "velocity": 114,
      "chip": "ym2612"
    },
    {
      "channel": 1,
      "note": 67,
      "start": 200.2585,
      "duration": 0.2179,
      "velocity": 93,
      "chip": "ym2612"
    },
    {
      "channel": 3,
      "note": 74,
      "start": 200.2587,
      "duration": 0.1089,
      "velocity": 94,
      "chip": "ym2612"
    },
    {
      "channel": 5,
      "note": 74,
      "start": 200.259,
      "duration": 0.1088,
      "velocity": 94,
      "chip": "ym2612"
    },
    {
      "channel": 0,
      "note": 98,
      "start": 200.3674,
      "duration": 0.0309,
      "velocity": 114,
      "chip": "ym2612"
    },
    {
      "channel": 0,
      "note": 98,
      "start": 200.4763,
      "duration": 0.0154,
      "velocity": 127,
      "chip": "ym2612"
    },
    {
      "channel": 1,
      "note": 67,
      "start": 200.4764,
      "duration": 0.2178,
      "velocity": 93,
      "chip": "ym2612"
    },
    {
      "channel": 3,
      "note": 76,
      "start": 200.4766,
      "duration": 0.1089,
      "velocity": 94,
      "chip": "ym2612"
    },
    {
      "channel": 5,
      "note": 76,
      "start": 200.4768,
      "duration": 0.1089,
      "velocity": 94,
      "chip": "ym2612"
    },
    {
      "channel": 0,
      "note": 76,
      "start": 200.4917,
      "duration": 0.0936,
      "velocity": 114,
      "chip": "ym2612"
    },
    {
      "channel": 0,
      "note": 68,
      "start": 200.5852,
      "duration": 0.0309,
      "velocity": 114,
      "chip": "ym2612"
    },
    {
      "channel": 5,
      "note": 78,
      "start": 200.5858,
      "duration": 0.109,
      "velocity": 94,
      "chip": "ym2612"
    },
    {
      "channel": 0,
      "note": 98,
      "start": 200.6942,
      "duration": 0.0309,
      "velocity": 114,
      "chip": "ym2612"
    },
    {
      "channel": 1,
      "note": 67,
      "start": 200.6943,
      "duration": 0.2179,
      "velocity": 93,
      "chip": "ym2612"
    },
    {
      "channel": 3,
      "note": 78,
      "start": 200.6946,
      "duration": 0.1088,
      "velocity": 94,
      "chip": "ym2612"
    },
    {
      "channel": 5,
      "note": 81,
      "start": 200.6948,
      "duration": 0.1088,
      "velocity": 94,
      "chip": "ym2612"
    },
    {
      "channel": 0,
      "note": 98,
      "start": 200.8031,
      "duration": 0.0309,
      "velocity": 114,
      "chip": "ym2612"
    },
    {
      "channel": 3,
      "note": 81,
      "start": 200.8034,
      "duration": 0.109,
      "velocity": 94,
      "chip": "ym2612"
    },
    {
      "channel": 5,
      "note": 69,
      "start": 200.8036,
      "duration": 0.109,
      "velocity": 94,
      "chip": "ym2612"
    },
    {
      "channel": 0,
      "note": 98,
      "start": 200.9121,
      "duration": 0.1089,
      "velocity": 114,
      "chip": "ym2612"
    },
    {
      "channel": 1,
      "note": 67,
      "start": 200.9122,
      "duration": 0.2178,
      "velocity": 93,
      "chip": "ym2612"
    },
    {
      "channel": 3,
      "note": 69,
      "start": 200.9124,
      "duration": 0.1089,
      "velocity": 94,
      "chip": "ym2612"
    },
    {
      "channel": 5,
      "note": 74,
      "start": 200.9127,
      "duration": 0.1089,
      "velocity": 94,
      "chip": "ym2612"
    },
    {
      "channel": 0,
      "note": 54,
      "start": 201.021,
      "duration": 0.0309,
      "velocity": 114,
      "chip": "ym2612"
    },
    {
      "channel": 3,
      "note": 74,
      "start": 201.0213,
      "duration": 0.109,
      "velocity": 94,
      "chip": "ym2612"
    },
    {
      "channel": 0,
      "note": 98,
      "start": 201.13,
      "duration": 0.0309,
      "velocity": 114,
      "chip": "ym2612"
    },
    {
      "channel": 1,
      "note": 67,
      "start": 201.1301,
      "duration": 0.2179,
      "velocity": 93,
      "chip": "ym2612"
    },
    {
      "channel": 5,
      "note": 76,
      "start": 201.1305,
      "duration": 0.1089,
      "velocity": 94,
      "chip": "ym2612"
    },
    {
      "channel": 0,
      "note": 98,
      "start": 201.2389,
      "duration": 0.0309,
      "velocity": 114,
      "chip": "ym2612"
    },
    {
      "channel": 3,
      "note": 76,
      "start": 201.2392,
      "duration": 0.109,
      "velocity": 94,
      "chip": "ym2612"
    },
    {
      "channel": 5,
      "note": 81,
      "start": 201.2394,
      "duration": 0.109,
      "velocity": 94,
      "chip": "ym2612"
    },
    {
      "channel": 0,
      "note": 98,
      "start": 201.3478,
      "duration": 0.0153,
      "velocity": 127,
      "chip": "ym2612"
    },
    {
      "channel": 1,
      "note": 67,
      "start": 201.348,
      "duration": 0.2178,
      "velocity": 93,
      "chip": "ym2612"
    },
    {
      "channel": 3,
      "note": 81,
      "start": 201.3482,
      "duration": 0.1091,
      "velocity": 94,
      "chip": "ym2612"
    },
    {
      "channel": 5,
      "note": 69,
      "start": 201.3484,
      "duration": 0.109,
      "velocity": 94,
      "chip": "ym2612"
    },
    {
      "channel": 0,
      "note": 76,
      "start": 201.3632,
      "duration": 0.0936,
      "velocity": 114,
      "chip": "ym2612"
    },
    {
      "channel": 0,
      "note": 68,
      "start": 201.4568,
      "duration": 0.0309,
      "velocity": 114,
      "chip": "ym2612"
    },
    {
      "channel": 3,
      "note": 69,
      "start": 201.4572,
      "duration": 0.1088,
      "velocity": 94,
      "chip": "ym2612"
    },
    {
      "channel": 5,
      "note": 81,
      "start": 201.4575,
      "duration": 0.1088,
      "velocity": 94,
      "chip": "ym2612"
    },
    {
      "channel": 0,
      "note": 98,
      "start": 201.5657,
      "duration": 0.0309,
      "velocity": 114,
      "chip": "ym2612"
    },
    {
      "channel": 1,
      "note": 67,
      "start": 201.5658,
      "duration": 0.2179,
      "velocity": 93,
      "chip": "ym2612"
    },
    {
      "channel": 3,
      "note": 81,
      "start": 201.566,
      "duration": 0.1089,
      "velocity": 94,
      "chip": "ym2612"
    },
    {
      "channel": 5,
      "note": 71,
      "start": 201.5663,
      "duration": 0.1089,
      "velocity": 94,
      "chip": "ym2612"
    },
    {
      "channel": 0,
      "note": 98,
      "start": 201.6747,
      "duration": 0.0309,
      "velocity": 114,
      "chip": "ym2612"
    },
    {
      "channel": 3,
      "note": 71,
      "start": 201.6749,
      "duration": 0.109,
      "velocity": 94,
      "chip": "ym2612"
    },
    {
      "channel": 5,
      "note": 74,
      "start": 201.6752,
      "duration": 0.109,
      "velocity": 94,
      "chip": "ym2612"
    },
    {
      "channel": 0,
      "note": 98,
      "start": 201.7836,
      "duration": 0.1089,
      "velocity": 127,
      "chip": "ym2612"
    },
    {
      "channel": 1,
      "note": 67,
      "start": 201.7838,
      "duration": 0.2178,
      "velocity": 93,
      "chip": "ym2612"
    },
    {
      "channel": 3,
      "note": 74,
      "start": 201.7839,
      "duration": 0.1089,
      "velocity": 94,
      "chip": "ym2612"
    },
    {
      "channel": 0,
      "note": 54,
      "start": 201.8925,
      "duration": 0.0154,
      "velocity": 127,
      "chip": "ym2612"
    },
    {
      "channel": 5,
      "note": 76,
      "start": 201.893,
      "duration": 0.109,
      "velocity": 94,
      "chip": "ym2612"
    },
    {
      "channel": 0,
      "note": 76,
      "start": 201.9079,
      "duration": 0.0936,
      "velocity": 114,
      "chip": "ym2612"
    },
    {
      "channel": 0,
      "note": 68,
      "start": 202.0015,
      "duration": 0.0309,
      "velocity": 114,
      "chip": "ym2612"
    },
    {
      "channel": 1,
      "note": 67,
      "start": 202.0016,
      "duration": 0.2179,
      "velocity": 93,
      "chip": "ym2612"
    },
    {
      "channel": 3,
      "note": 76,
      "start": 202.0018,
      "duration": 0.1089,
      "velocity": 94,
      "chip": "ym2612"
    },
    {
      "channel": 5,
      "note": 78,
      "start": 202.0021,
      "duration": 0.1088,
      "velocity": 94,
      "chip": "ym2612"
    },
    {
      "channel": 0,
      "note": 98,
      "start": 202.1104,
      "duration": 0.0309,
      "velocity": 114,
      "chip": "ym2612"
    },
    {
      "channel": 5,
      "note": 81,
      "start": 202.1109,
      "duration": 0.1092,
      "velocity": 94,
      "chip": "ym2612"
    },
    {
      "channel": 0,
      "note": 98,
      "start": 202.2194,
      "duration": 0.1089,
      "velocity": 114,
      "chip": "ym2612"
    },
    {
      "channel": 1,
      "note": 67,
      "start": 202.2195,
      "duration": 0.2178,
      "velocity": 93,
      "chip": "ym2612"
    },
    {
      "channel": 2,
      "note": 43,
      "start": 202.2197,
      "duration": 3.0503,
      "velocity": 121,
      "chip": "ym2612"
    },
    {
      "channel": 3,
      "note": 78,
      "start": 202.2199,
      "duration": 0.1087,
      "velocity": 94,
      "chip": "ym2612"
    },
    {
      "channel": 5,
      "note": 69,
      "start": 202.2201,
      "duration": 0.1087,
      "velocity": 94,
      "chip": "ym2612"
    },
    {
      "channel": 0,
      "note": 54,
      "start": 202.3283,
      "duration": 0.0309,
      "velocity": 114,
      "chip": "ym2612"
    },
    {
      "channel": 3,
      "note": 81,
      "start": 202.3286,
      "duration": 0.109,
      "velocity": 94,
      "chip": "ym2612"
    },
    {
      "channel": 5,
      "note": 74,
      "start": 202.3288,
      "duration": 0.1089,
      "velocity": 94,
      "chip": "ym2612"
    },
    {
      "channel": 4,
      "note": 43,
      "start": 202.4063,
      "duration": 3.0503,
      "velocity": 121,
      "chip": "ym2612"
    },
    {
      "channel": 0,
      "note": 98,
      "start": 202.4373,
      "duration": 0.0309,
      "velocity": 114,
      "chip": "ym2612"
    },
    {
      "channel": 1,
      "note": 62,
      "start": 202.4374,
      "duration": 0.2179,
      "velocity": 93,
      "chip": "ym2612"
    },
    {
      "channel": 3,
      "note": 69,
      "start": 202.4376,
      "duration": 0.1089,
      "velocity": 94,
      "chip": "ym2612"
    },
    {
      "channel": 0,
      "note": 98,
      "start": 202.5462,
      "duration": 0.0309,
      "velocity": 114,
      "chip": "ym2612"
    },
    {
      "channel": 3,
      "note": 74,
      "start": 202.5465,
      "duration": 0.109,
      "velocity": 94,
      "chip": "ym2612"
    },
    {
      "channel": 5,
      "note": 76,
      "start": 202.5467,
      "duration": 0.109,
      "velocity": 94,
      "chip": "ym2612"
    },
    {
      "channel": 0,
      "note": 98,
      "start": 202.6551,
      "duration": 0.0154,
      "velocity": 127,
      "chip": "ym2612"
    },
    {
      "channel": 1,
      "note": 62,
      "start": 202.6553,
      "duration": 0.2179,
      "velocity": 93,
      "chip": "ym2612"
    },
    {
      "channel": 5,
      "note": 81,
      "start": 202.6557,
      "duration": 0.1089,
      "velocity": 94,
      "chip": "ym2612"
    },
    {
      "channel": 0,
      "note": 76,
      "start": 202.6705,
      "duration": 0.0936,
      "velocity": 114,
      "chip": "ym2612"
    },
    {
      "channel": 0,
      "note": 68,
      "start": 202.7641,
      "duration": 0.0309,
      "velocity": 114,
      "chip": "ym2612"
    },
    {
      "channel": 3,
      "note": 76,
      "start": 202.7644,
      "duration": 0.109,
      "velocity": 94,
      "chip": "ym2612"
    },
    {
      "channel": 5,
      "note": 69,
      "start": 202.7646,
      "duration": 0.109,
      "velocity": 94,
      "chip": "ym2612"
    },
    {
      "channel": 0,
      "note": 98,
      "start": 202.873,
      "duration": 0.0309,
      "velocity": 114,
      "chip": "ym2612"
    },
    {
      "channel": 1,
      "note": 62,
      "start": 202.8731,
      "duration": 0.2179,
      "velocity": 93,
      "chip": "ym2612"
    },
    {
      "channel": 3,
      "note": 81,
      "start": 202.8733,
      "duration": 0.1089,
      "velocity": 94,
      "chip": "ym2612"
    },
    {
      "channel": 5,
      "note": 81,
      "start": 202.8737,
      "duration": 0.1087,
      "velocity": 94,
      "chip": "ym2612"
    },
    {
      "channel": 0,
      "note": 98,
      "start": 202.982,
      "duration": 0.0309,
      "velocity": 114,
      "chip": "ym2612"
    },
    {
      "channel": 3,
      "note": 69,
      "start": 202.9822,
      "duration": 0.109,
      "velocity": 94,
      "chip": "ym2612"
    },
    {
      "channel": 5,
      "note": 71,
      "start": 202.9825,
      "duration": 0.109,
      "velocity": 94,
      "chip": "ym2612"
    },
    {
      "channel": 0,
      "note": 98,
      "start": 203.0909,
      "duration": 0.1089,
      "velocity": 114,
      "chip": "ym2612"
    },
    {
      "channel": 1,
      "note": 62,
      "start": 203.0911,
      "duration": 0.2178,
      "velocity": 93,
      "chip": "ym2612"
    },
    {
      "channel": 3,
      "note": 81,
      "start": 203.0912,
      "duration": 0.1089,
      "velocity": 94,
      "chip": "ym2612"
    },
    {
      "channel": 5,
      "note": 74,
      "start": 203.0915,
      "duration": 0.1088,
      "velocity": 94,
      "chip": "ym2612"
    },
    {
      "channel": 0,
      "note": 54,
      "start": 203.1998,
      "duration": 0.0309,
      "velocity": 114,
      "chip": "ym2612"
    },
    {
      "channel": 3,
      "note": 71,
      "start": 203.2001,
      "duration": 0.109,
      "velocity": 94,
      "chip": "ym2612"
    },
    {
      "channel": 0,
      "note": 98,
      "start": 203.3088,
      "duration": 0.0309,
      "velocity": 114,
      "chip": "ym2612"
    },
    {
      "channel": 1,
      "note": 62,
      "start": 203.3089,
      "duration": 0.2179,
      "velocity": 93,
      "chip": "ym2612"
    },
    {
      "channel": 3,
      "note": 74,
      "start": 203.3091,
      "duration": 0.1089,
      "velocity": 94,
      "chip": "ym2612"
    },
    {
      "channel": 5,
      "note": 76,
      "start": 203.3093,
      "duration": 0.1089,
      "velocity": 94,
      "chip": "ym2612"
    },
    {
      "channel": 0,
      "note": 98,
      "start": 203.4177,
      "duration": 0.0309,
      "velocity": 114,
      "chip": "ym2612"
    },
    {
      "channel": 5,
      "note": 78,
      "start": 203.4183,
      "duration": 0.109,
      "velocity": 94,
      "chip": "ym2612"
    },
    {
      "channel": 0,
      "note": 98,
      "start": 203.5267,
      "duration": 0.0154,
      "velocity": 127,
      "chip": "ym2612"
    },
    {
      "channel": 1,
      "note": 62,
      "start": 203.5268,
      "duration": 0.2178,
      "velocity": 93,
      "chip": "ym2612"
    },
    {
      "channel": 3,
      "note": 76,
      "start": 203.527,
      "duration": 0.1089,
      "velocity": 94,
      "chip": "ym2612"
    },
    {
      "channel": 5,
      "note": 81,
      "start": 203.5272,
      "duration": 0.1089,
      "velocity": 94,
      "chip": "ym2612"
    },
    {
      "channel": 0,
      "note": 76,
      "start": 203.542,
      "duration": 0.0936,
      "velocity": 114,
      "chip": "ym2612"
    },
    {
      "channel": 0,
      "note": 68,
      "start": 203.6356,
      "duration": 0.0309,
      "velocity": 114,
      "chip": "ym2612"
    },
    {
      "channel": 5,
      "note": 69,
      "start": 203.6361,
      "duration": 0.1091,
      "velocity": 94,
      "chip": "ym2612"
    },
    {
      "channel": 0,
      "note": 98,
      "start": 203.7446,
      "duration": 0.0309,
      "velocity": 114,
      "chip": "ym2612"
    },
    {
      "channel": 1,
      "note": 62,
      "start": 203.7447,
      "duration": 0.2179,
      "velocity": 93,
      "chip": "ym2612"
    },
    {
      "channel": 3,
      "note": 78,
      "start": 203.7449,
      "duration": 0.1088,
      "velocity": 94,
      "chip": "ym2612"
    },
    {
      "channel": 5,
      "note": 74,
      "start": 203.7452,
      "duration": 0.1088,
      "velocity": 94,
      "chip": "ym2612"
    },
    {
      "channel": 0,
      "note": 98,
      "start": 203.8535,
      "duration": 0.0309,
      "velocity": 114,
      "chip": "ym2612"
    },
    {
      "channel": 3,
      "note": 81,
      "start": 203.8538,
      "duration": 0.109,
      "velocity": 94,
      "chip": "ym2612"
    },
    {
      "channel": 0,
      "note": 98,
      "start": 203.9624,
      "duration": 0.1089,
      "velocity": 114,
      "chip": "ym2612"
    },
    {
      "channel": 1,
      "note": 62,
      "start": 203.9626,
      "duration": 0.2178,
      "velocity": 93,
      "chip": "ym2612"
    },
    {
      "channel": 3,
      "note": 69,
      "start": 203.9628,
      "duration": 0.1089,
      "velocity": 94,
      "chip": "ym2612"
    },
    {
      "channel": 5,
      "note": 76,
      "start": 203.963,
      "duration": 0.1089,
      "velocity": 94,
      "chip": "ym2612"
    },
    {
      "channel": 0,
      "note": 54,
      "start": 204.0714,
      "duration": 0.0309,
      "velocity": 114,
      "chip": "ym2612"
    },
    {
      "channel": 3,
      "note": 74,
      "start": 204.0717,
      "duration": 0.109,
      "velocity": 94,
      "chip": "ym2612"
    },
    {
      "channel": 5,
      "note": 81,
      "start": 204.0719,
      "duration": 0.1089,
      "velocity": 94,
      "chip": "ym2612"
    },
    {
      "channel": 0,
      "note": 98,
      "start": 204.1803,
      "duration": 0.0309,
      "velocity": 114,
      "chip": "ym2612"
    },
    {
      "channel": 1,
      "note": 62,
      "start": 204.1804,
      "duration": 0.2179,
      "velocity": 93,
      "chip": "ym2612"
    },
    {
      "channel": 5,
      "note": 69,
      "start": 204.1808,
      "duration": 0.1089,
      "velocity": 94,
      "chip": "ym2612"
    },
    {
      "channel": 0,
      "note": 98,
      "start": 204.2893,
      "duration": 0.0309,
      "velocity": 114,
      "chip": "ym2612"
    },
    {
      "channel": 3,
      "note": 76,
      "start": 204.2895,
      "duration": 0.109,
      "velocity": 94,
      "chip": "ym2612"
    },
    {
      "channel": 5,
      "note": 81,
      "start": 204.2898,
      "duration": 0.109,
      "velocity": 94,
      "chip": "ym2612"
    },
    {
      "channel": 0,
      "note": 98,
      "start": 204.3982,
      "duration": 0.0154,
      "velocity": 127,
      "chip": "ym2612"
    },
    {
      "channel": 1,
      "note": 62,
      "start": 204.3983,
      "duration": 0.2178,
      "velocity": 93,
      "chip": "ym2612"
    },
    {
      "channel": 3,
      "note": 81,
      "start": 204.3985,
      "duration": 0.1091,
      "velocity": 94,
      "chip": "ym2612"
    },
    {
      "channel": 5,
      "note": 71,
      "start": 204.3988,
      "duration": 0.109,
      "velocity": 94,
      "chip": "ym2612"
    },
    {
      "channel": 0,
      "note": 76,
      "start": 204.4136,
      "duration": 0.0937,
      "velocity": 114,
      "chip": "ym2612"
    },
    {
      "channel": 0,
      "note": 68,
      "start": 204.5073,
      "duration": 0.0307,
      "velocity": 114,
      "chip": "ym2612"
    },
    {
      "channel": 3,
      "note": 69,
      "start": 204.5076,
      "duration": 0.1088,
      "velocity": 94,
      "chip": "ym2612"
    },
    {
      "channel": 5,
      "note": 74,
      "start": 204.5078,
      "duration": 0.1088,
      "velocity": 94,
      "chip": "ym2612"
    },
    {
      "channel": 0,
      "note": 98,
      "start": 204.6161,
      "duration": 0.0309,
      "velocity": 114,
      "chip": "ym2612"
    },
    {
      "channel": 1,
      "note": 62,
      "start": 204.6162,
      "duration": 0.2179,
      "velocity": 93,
      "chip": "ym2612"
    },
    {
      "channel": 3,
      "note": 81,
      "start": 204.6164,
      "duration": 0.1089,
      "velocity": 94,
      "chip": "ym2612"
    },
    {
      "channel": 0,
      "note": 98,
      "start": 204.725,
      "duration": 0.0309,
      "velocity": 114,
      "chip": "ym2612"
    },
    {
      "channel": 3,
      "note": 71,
      "start": 204.7253,
      "duration": 0.109,
      "velocity": 94,
      "chip": "ym2612"
    },
    {
      "channel": 5,
      "note": 76,
      "start": 204.7255,
      "duration": 0.1091,
      "velocity": 94,
      "chip": "ym2612"
    },
    {
      "channel": 0,
      "note": 98,
      "start": 204.834,
      "duration": 0.1089,
      "velocity": 127,
      "chip": "ym2612"
    },
    {
      "channel": 1,
      "note": 62,
      "start": 204.8341,
      "duration": 0.2178,
      "velocity": 93,
      "chip": "ym2612"
    },
    {
      "channel": 3,
      "note": 74,
      "start": 204.8343,
      "duration": 0.1089,
      "velocity": 94,
      "chip": "ym2612"
    },
    {
      "channel": 5,
      "note": 78,
      "start": 204.8346,
      "duration": 0.1088,
      "velocity": 94,
      "chip": "ym2612"
    },
    {
      "channel": 0,
      "note": 54,
      "start": 204.9429,
      "duration": 0.0154,
      "velocity": 127,
      "chip": "ym2612"
    },
    {
      "channel": 5,
      "note": 81,
      "start": 204.9434,
      "duration": 0.109,
      "velocity": 94,
      "chip": "ym2612"
    },
    {
      "channel": 0,
      "note": 76,
      "start": 204.9583,
      "duration": 0.0936,
      "velocity": 114,
      "chip": "ym2612"
    },
    {
      "channel": 0,
      "note": 68,
      "start": 205.0519,
      "duration": 0.0309,
      "velocity": 114,
      "chip": "ym2612"
    },
    {
      "channel": 1,
      "note": 62,
      "start": 205.052,
      "duration": 0.2179,
      "velocity": 93,
      "chip": "ym2612"
    },
    {
      "channel": 3,
      "note": 76,
      "start": 205.0522,
      "duration": 0.1089,
      "velocity": 94,
      "chip": "ym2612"
    },
    {
      "channel": 5,
      "note": 69,
      "start": 205.0524,
      "duration": 0.1089,
      "velocity": 94,
      "chip": "ym2612"
    },
    {
      "channel": 0,
      "note": 98,
      "start": 205.1608,
      "duration": 0.0309,
      "velocity": 114,
      "chip": "ym2612"
    },
    {
      "channel": 5,
      "note": 74,
      "start": 205.1613,
      "duration": 0.1091,
      "velocity": 94,
      "chip": "ym2612"
    },
    {
      "channel": 0,
      "note": 98,
      "start": 205.2698,
      "duration": 0.1089,
      "velocity": 114,
      "chip": "ym2612"
    },
    {
      "channel": 1,
      "note": 62,
      "start": 205.2699,
      "duration": 0.2178,
      "velocity": 93,
      "chip": "ym2612"
    },
    {
      "channel": 2,
      "note": 50,
      "start": 205.27,
      "duration": 3.0504,
      "velocity": 121,
      "chip": "ym2612"
    },
    {
      "channel": 3,
      "note": 78,
      "start": 205.2702,
      "duration": 0.1087,
      "velocity": 94,
      "chip": "ym2612"
    },
    {
      "channel": 0,
      "note": 54,
      "start": 205.3787,
      "duration": 0.0309,
      "velocity": 114,
      "chip": "ym2612"
    },
    {
      "channel": 3,
      "note": 81,
      "start": 205.3789,
      "duration": 0.109,
      "velocity": 94,
      "chip": "ym2612"
    },
    {
      "channel": 5,
      "note": 76,
      "start": 205.3792,
      "duration": 0.109,
      "velocity": 94,
      "chip": "ym2612"
    },
    {
      "channel": 4,
      "note": 50,
      "start": 205.4566,
      "duration": 3.0505,
      "velocity": 121,
      "chip": "ym2612"
    },
    {
      "channel": 0,
      "note": 98,
      "start": 205.4876,
      "duration": 0.0309,
      "velocity": 114,
      "chip": "ym2612"
    },
    {
      "channel": 1,
      "note": 59,
      "start": 205.4877,
      "duration": 0.2179,
      "velocity": 93,
      "chip": "ym2612"
    },
    {
      "channel": 3,
      "note": 69,
      "start": 205.4879,
      "duration": 0.1089,
      "velocity": 94,
      "chip": "ym2612"
    },
    {
      "channel": 5,
      "note": 81,
      "start": 205.4881,
      "duration": 0.1089,
      "velocity": 94,
      "chip": "ym2612"
    },
    {
      "channel": 0,
      "note": 98,
      "start": 205.5966,
      "duration": 0.0309,
      "velocity": 114,
      "chip": "ym2612"
    },
    {
      "channel": 3,
      "note": 74,
      "start": 205.5968,
      "duration": 0.109,
      "velocity": 94,
      "chip": "ym2612"
    },
    {
      "channel": 5,
      "note": 69,
      "start": 205.5971,
      "duration": 0.109,
      "velocity": 94,
      "chip": "ym2612"
    },
    {
      "channel": 0,
      "note": 98,
      "start": 205.7055,
      "duration": 0.0154,
      "velocity": 127,
      "chip": "ym2612"
    },
    {
      "channel": 1,
      "note": 59,
      "start": 205.7056,
      "duration": 0.2178,
      "velocity": 93,
      "chip": "ym2612"
    },
    {
      "channel": 5,
      "note": 81,
      "start": 205.7061,
      "duration": 0.1089,
      "velocity": 94,
      "chip": "ym2612"
    },
    {
      "channel": 0,
      "note": 76,
      "start": 205.7209,
      "duration": 0.0936,
      "velocity": 114,
      "chip": "ym2612"
    },
    {
      "channel": 0,
      "note": 68,
      "start": 205.8144,
      "duration": 0.0309,
      "velocity": 114,
      "chip": "ym2612"
    },
    {
      "channel": 3,
      "note": 76,
      "start": 205.8147,
      "duration": 0.1092,
      "velocity": 94,
      "chip": "ym2612"
    },
    {
      "channel": 5,
      "note": 71,
      "start": 205.815,
      "duration": 0.1091,
      "velocity": 94,
      "chip": "ym2612"
    },
    {
      "channel": 0,
      "note": 98,
      "start": 205.9234,
      "duration": 0.0309,
      "velocity": 114,
      "chip": "ym2612"
    },
    {
      "channel": 1,
      "note": 59,
      "start": 205.9235,
      "duration": 0.2179,
      "velocity": 93,
      "chip": "ym2612"
    },
    {
      "channel": 3,
      "note": 81,
      "start": 205.9239,
      "duration": 0.1087,
      "velocity": 94,
      "chip": "ym2612"
    },
    {
      "channel": 5,
      "note": 74,
      "start": 205.9241,
      "duration": 0.1087,
      "velocity": 94,
      "chip": "ym2612"
    },
    {
      "channel": 0,
      "note": 98,
      "start": 206.0323,
      "duration": 0.0309,
      "velocity": 114,
      "chip": "ym2612"
    },
    {
      "channel": 3,
      "note": 69,
      "start": 206.0326,
      "duration": 0.109,
      "velocity": 94,
      "chip": "ym2612"
    },
    {
      "channel": 0,
      "note": 98,
      "start": 206.1413,
      "duration": 0.1089,
      "velocity": 114,
      "chip": "ym2612"
    },
    {
      "channel": 1,
      "note": 59,
      "start": 206.1414,
      "duration": 0.2178,
      "velocity": 93,
      "chip": "ym2612"
    },
    {
      "channel": 3,
      "note": 81,
      "start": 206.1416,
      "duration": 0.1089,
      "velocity": 94,
      "chip": "ym2612"
    },
    {
      "channel": 5,
      "note": 76,
      "start": 206.1419,
      "duration": 0.1089,
      "velocity": 94,
      "chip": "ym2612"
    },
    {
      "channel": 0,
      "note": 54,
      "start": 206.2502,
      "duration": 0.0309,
      "velocity": 114,
      "chip": "ym2612"
    },
    {
      "channel": 3,
      "note": 71,
      "start": 206.2505,
      "duration": 0.109,
      "velocity": 94,
      "chip": "ym2612"
    },
    {
      "channel": 5,
      "note": 78,
      "start": 206.2508,
      "duration": 0.1089,
      "velocity": 94,
      "chip": "ym2612"
    },
    {
      "channel": 0,
      "note": 98,
      "start": 206.3592,
      "duration": 0.0309,
      "velocity": 114,
      "chip": "ym2612"
    },
    {
      "channel": 1,
      "note": 59,
      "start": 206.3593,
      "duration": 0.2179,
      "velocity": 93,
      "chip": "ym2612"
    },
    {
      "channel": 3,
      "note": 74,
      "start": 206.3595,
      "duration": 0.1089,
      "velocity": 94,
      "chip": "ym2612"
    },
    {
      "channel": 5,
      "note": 81,
      "start": 206.3597,
      "duration": 0.1089,
      "velocity": 94,
      "chip": "ym2612"
    },
    {
      "channel": 0,
      "note": 98,
      "start": 206.4681,
      "duration": 0.0309,
      "velocity": 114,
      "chip": "ym2612"
    },
    {
      "channel": 5,
      "note": 69,
      "start": 206.4686,
      "duration": 0.109,
      "velocity": 94,
      "chip": "ym2612"
    },
    {
      "channel": 0,
      "note": 98,
      "start": 206.577,
      "duration": 0.0154,
      "velocity": 127,
      "chip": "ym2612"
    },
    {
      "channel": 1,
      "note": 59,
      "start": 206.5772,
      "duration": 0.2179,
      "velocity": 93,
      "chip": "ym2612"
    },
    {
      "channel": 3,
      "note": 76,
      "start": 206.5774,
      "duration": 0.1089,
      "velocity": 94,
      "chip": "ym2612"
    },
    {
      "channel": 5,
      "note": 74,
      "start": 206.5776,
      "duration": 0.1089,
      "velocity": 94,
      "chip": "ym2612"
    },
    {
      "channel": 0,
      "note": 76,
      "start": 206.5924,
      "duration": 0.0936,
      "velocity": 114,
      "chip": "ym2612"
    },
    {
      "channel": 0,
      "note": 68,
      "start": 206.686,
      "duration": 0.0309,
      "velocity": 114,
      "chip": "ym2612"
    },
    {
      "channel": 0,
      "note": 98,
      "start": 206.7949,
      "duration": 0.0309,
      "velocity": 114,
      "chip": "ym2612"
    },
    {
      "channel": 1,
      "note": 59,
      "start": 206.795,
      "duration": 0.2179,
      "velocity": 93,
      "chip": "ym2612"
    },
    {
      "channel": 3,
      "note": 78,
      "start": 206.7953,
      "duration": 0.1088,
      "velocity": 94,
      "chip": "ym2612"
    },
    {
      "channel": 5,
      "note": 76,
      "start": 206.7955,
      "duration": 0.1088,
      "velocity": 94,
      "chip": "ym2612"
    },
    {
      "channel": 0,
      "note": 98,
      "start": 206.9039,
      "duration": 0.0309,
      "velocity": 114,
      "chip": "ym2612"
    },
    {
      "channel": 3,
      "note": 81,
      "start": 206.9041,
      "duration": 0.109,
      "velocity": 94,
      "chip": "ym2612"
    },
    {
      "channel": 5,
      "note": 81,
      "start": 206.9044,
      "duration": 0.109,
      "velocity": 94,
      "chip": "ym2612"
    },
    {
      "channel": 0,
      "note": 98,
      "start": 207.0128,
      "duration": 0.1089,
      "velocity": 114,
      "chip": "ym2612"
    },
    {
      "channel": 1,
      "note": 59,
      "start": 207.0129,
      "duration": 0.2178,
      "velocity": 93,
      "chip": "ym2612"
    },
    {
      "channel": 3,
      "note": 69,
      "start": 207.0132,
      "duration": 0.1089,
      "velocity": 94,
      "chip": "ym2612"
    },
    {
      "channel": 5,
      "note": 69,
      "start": 207.0134,
      "duration": 0.1089,
      "velocity": 94,
      "chip": "ym2612"
    },
    {
      "channel": 0,
      "note": 54,
      "start": 207.1217,
      "duration": 0.0309,
      "velocity": 114,
      "chip": "ym2612"
    },
    {
      "channel": 3,
      "note": 74,
      "start": 207.122,
      "duration": 0.109,
      "velocity": 94,
      "chip": "ym2612"
    },
    {
      "channel": 5,
      "note": 81,
      "start": 207.1223,
      "duration": 0.1089,
      "velocity": 94,
      "chip": "ym2612"
    },
    {
      "channel": 0,
      "note": 98,
      "start": 207.2307,
      "duration": 0.0309,
      "velocity": 114,
      "chip": "ym2612"
    },
    {
      "channel": 1,
      "note": 59,
      "start": 207.2308,
      "duration": 0.2179,
      "velocity": 93,
      "chip": "ym2612"
    },
    {
      "channel": 5,
      "note": 71,
      "start": 207.2312,
      "duration": 0.1089,
      "velocity": 94,
      "chip": "ym2612"
    },
    {
      "channel": 0,
      "note": 98,
      "start": 207.3396,
      "duration": 0.0309,
      "velocity": 114,
      "chip": "ym2612"
    },
    {
      "channel": 3,
      "note": 76,
      "start": 207.3399,
      "duration": 0.109,
      "velocity": 94,
      "chip": "ym2612"
    },
    {
      "channel": 5,
      "note": 74,
      "start": 207.3401,
      "duration": 0.109,
      "velocity": 94,
      "chip": "ym2612"
    },
    {
      "channel": 0,
      "note": 98,
      "start": 207.4486,
      "duration": 0.0154,
      "velocity": 127,
      "chip": "ym2612"
    },
    {
      "channel": 1,
      "note": 59,
      "start": 207.4487,
      "duration": 0.2178,
      "velocity": 93,
      "chip": "ym2612"
    },
    {
      "channel": 3,
      "note": 81,
      "start": 207.4489,
      "duration": 0.1089,
      "velocity": 94,
      "chip": "ym2612"
    },
    {
      "channel": 0,
      "note": 76,
      "start": 207.4639,
      "duration": 0.0936,
      "velocity": 114,
      "chip": "ym2612"
    },
    {
      "channel": 0,
      "note": 68,
      "start": 207.5575,
      "duration": 0.0309,
      "velocity": 114,
      "chip": "ym2612"
    },
    {
      "channel": 3,
      "note": 69,
      "start": 207.5578,
      "duration": 0.109,
      "velocity": 94,
      "chip": "ym2612"
    },
    {
      "channel": 5,
      "note": 76,
      "start": 207.558,
      "duration": 0.109,
      "velocity": 94,
      "chip": "ym2612"
    },
    {
      "channel": 0,
      "note": 98,
      "start": 207.6665,
      "duration": 0.0309,
      "velocity": 114,
      "chip": "ym2612"
    },
    {
      "channel": 1,
      "note": 59,
      "start": 207.6666,
      "duration": 0.2179,
      "velocity": 93,
      "chip": "ym2612"
    },
    {
      "channel": 3,
      "note": 81,
      "start": 207.6668,
      "duration": 0.1089,
      "velocity": 94,
      "chip": "ym2612"
    },
    {
      "channel": 5,
      "note": 78,
      "start": 207.6671,
      "duration": 0.1088,
      "velocity": 94,
      "chip": "ym2612"
    },
    {
      "channel": 0,
      "note": 98,
      "start": 207.7754,
      "duration": 0.0309,
      "velocity": 114,
      "chip": "ym2612"
    },
    {
      "channel": 3,
      "note": 71,
      "start": 207.7757,
      "duration": 0.109,
      "velocity": 94,
      "chip": "ym2612"
    },
    {
      "channel": 5,
      "note": 81,
      "start": 207.7759,
      "duration": 0.109,
      "velocity": 94,
      "chip": "ym2612"
    },
    {
      "channel": 0,
      "note": 98,
      "start": 207.8844,
      "duration": 0.1089,
      "velocity": 127,
      "chip": "ym2612"
    },
    {
      "channel": 1,
      "note": 59,
      "start": 207.8845,
      "duration": 0.2178,
      "velocity": 93,
      "chip": "ym2612"
    },
    {
      "channel": 3,
      "note": 74,
      "start": 207.8847,
      "duration": 0.1088,
      "velocity": 94,
      "chip": "ym2612"
    },
    {
      "channel": 5,
      "note": 69,
      "start": 207.8849,
      "duration": 0.1088,
      "velocity": 94,
      "chip": "ym2612"
    },
    {
      "channel": 0,
      "note": 54,
      "start": 207.9933,
      "duration": 0.0154,
      "velocity": 127,
      "chip": "ym2612"
    },
    {
      "channel": 5,
      "note": 74,
      "start": 207.9938,
      "duration": 0.109,
      "velocity": 94,
      "chip": "ym2612"
    },
    {
      "channel": 0,
      "note": 76,
      "start": 208.0086,
      "duration": 0.0936,
      "velocity": 114,
      "chip": "ym2612"
    },
    {
      "channel": 0,
      "note": 68,
      "start": 208.1022,
      "duration": 0.0309,
      "velocity": 114,
      "chip": "ym2612"
    },
    {
      "channel": 1,
      "note": 59,
      "start": 208.1024,
      "duration": 0.2179,
      "velocity": 93,
      "chip": "ym2612"
    },
    {
      "channel": 3,
      "note": 76,
      "start": 208.1025,
      "duration": 0.1089,
      "velocity": 94,
      "chip": "ym2612"
    },
    {
      "channel": 0,
      "note": 98,
      "start": 208.2112,
      "duration": 0.0309,
      "velocity": 114,
      "chip": "ym2612"
    },
    {
      "channel": 5,
      "note": 76,
      "start": 208.2116,
      "duration": 0.1092,
      "velocity": 94,
      "chip": "ym2612"
    },
    {
      "channel": 0,
      "note": 98,
      "start": 208.3201,
      "duration": 0.1089,
      "velocity": 114,
      "chip": "ym2612"
    },
    {
      "channel": 1,
      "note": 59,
      "start": 208.3203,
      "duration": 0.2178,
      "velocity": 93,
      "chip": "ym2612"
    },
    {
      "channel": 2,
      "note": 47,
      "start": 208.3204,
      "duration": 3.0504,
      "velocity": 121,
      "chip": "ym2612"
    },
    {
      "channel": 3,
      "note": 78,
      "start": 208.3206,
      "duration": 0.1087,
      "velocity": 94,
      "chip": "ym2612"
    },
    {
      "channel": 5,
      "note": 81,
      "start": 208.3208,
      "duration": 0.1088,
      "velocity": 94,
      "chip": "ym2612"
    },
    {
      "channel": 0,
      "note": 54,
      "start": 208.429,
      "duration": 0.0309,
      "velocity": 114,
      "chip": "ym2612"
    },
    {
      "channel": 3,
      "note": 81,
      "start": 208.4293,
      "duration": 0.109,
      "velocity": 94,
      "chip": "ym2612"
    },
    {
      "channel": 5,
      "note": 69,
      "start": 208.4295,
      "duration": 0.109,
      "velocity": 94,
      "chip": "ym2612"
    },
    {
      "channel": 4,
      "note": 47,
      "start": 208.5071,
      "duration": 3.0504,
      "velocity": 121,
      "chip": "ym2612"
    },
    {
      "channel": 0,
      "note": 98,
      "start": 208.538,
      "duration": 0.0309,
      "velocity": 114,
      "chip": "ym2612"
    },
    {
      "channel": 1,
      "note": 55,
      "start": 208.5381,
      "duration": 0.2179,
      "velocity": 93,
      "chip": "ym2612"
    },
    {
      "channel": 3,
      "note": 69,
      "start": 208.5383,
      "duration": 0.1089,
      "velocity": 94,
      "chip": "ym2612"
    },
    {
      "channel": 5,
      "note": 81,
      "start": 208.5385,
      "duration": 0.1089,
      "velocity": 94,
      "chip": "ym2612"
    },
    {
      "channel": 0,
      "note": 98,
      "start": 208.6469,
      "duration": 0.0309,
      "velocity": 114,
      "chip": "ym2612"
    },
    {
      "channel": 3,
      "note": 74,
      "start": 208.6472,
      "duration": 0.109,
      "velocity": 94,
      "chip": "ym2612"
    },
    {
      "channel": 5,
      "note": 71,
      "start": 208.6474,
      "duration": 0.109,
      "velocity": 94,
      "chip": "ym2612"
    },
    {
      "channel": 0,
      "note": 98,
      "start": 208.7559,
      "duration": 0.0154,
      "velocity": 127,
      "chip": "ym2612"
    },
    {
      "channel": 1,
      "note": 55,
      "start": 208.756,
      "duration": 0.218,
      "velocity": 93,
      "chip": "ym2612"
    },
    {
      "channel": 5,
      "note": 74,
      "start": 208.7564,
      "duration": 0.1089,
      "velocity": 94,
      "chip": "ym2612"
    },
    {
      "channel": 0,
      "note": 76,
      "start": 208.7712,
      "duration": 0.0936,
      "velocity": 114,
      "chip": "ym2612"
    },
    {
      "channel": 0,
      "note": 68,
      "start": 208.8648,
      "duration": 0.0309,
      "velocity": 114,
      "chip": "ym2612"
    },
    {
      "channel": 3,
      "note": 76,
      "start": 208.8651,
      "duration": 0.1092,
      "velocity": 94,
      "chip": "ym2612"
    },
    {
      "channel": 0,
      "note": 98,
      "start": 208.9739,
      "duration": 0.0307,
      "velocity": 114,
      "chip": "ym2612"
    },
    {
      "channel": 1,
      "note": 55,
      "start": 208.974,
      "duration": 0.2178,
      "velocity": 93,
      "chip": "ym2612"
    },
    {
      "channel": 3,
      "note": 81,
      "start": 208.9742,
      "duration": 0.1087,
      "velocity": 94,
      "chip": "ym2612"
    },
    {
      "channel": 5,
      "note": 76,
      "start": 208.9745,
      "duration": 0.1088,
      "velocity": 94,
      "chip": "ym2612"
    },
    {
      "channel": 0,
      "note": 98,
      "start": 209.0827,
      "duration": 0.0309,
      "velocity": 114,
      "chip": "ym2612"
    },
    {
      "channel": 3,
      "note": 69,
      "start": 209.083,
      "duration": 0.109,
      "velocity": 94,
      "chip": "ym2612"
    },
    {
      "channel": 5,
      "note": 78,
      "start": 209.0832,
      "duration": 0.109,
      "velocity": 94,
      "chip": "ym2612"
    },
    {
      "channel": 0,
      "note": 98,
      "start": 209.1917,
      "duration": 0.1089,
      "velocity": 114,
      "chip": "ym2612"
    },
    {
      "channel": 1,
      "note": 55,
      "start": 209.1918,
      "duration": 0.2178,
      "velocity": 93,
      "chip": "ym2612"
    },
    {
      "channel": 3,
      "note": 81,
      "start": 209.192,
      "duration": 0.1089,
      "velocity": 94,
      "chip": "ym2612"
    },
    {
      "channel": 5,
      "note": 81,
      "start": 209.1922,
      "duration": 0.1089,
      "velocity": 94,
      "chip": "ym2612"
    },
    {
      "channel": 0,
      "note": 54,
      "start": 209.3006,
      "duration": 0.0309,
      "velocity": 114,
      "chip": "ym2612"
    },
    {
      "channel": 3,
      "note": 71,
      "start": 209.3009,
      "duration": 0.109,
      "velocity": 94,
      "chip": "ym2612"
    },
    {
      "channel": 5,
      "note": 69,
      "start": 209.3011,
      "duration": 0.109,
      "velocity": 94,
      "chip": "ym2612"
    },
    {
      "channel": 0,
      "note": 98,
      "start": 209.4095,
      "duration": 0.031,
      "velocity": 114,
      "chip": "ym2612"
    },
    {
      "channel": 1,
      "note": 55,
      "start": 209.4096,
      "duration": 0.2179,
      "velocity": 93,
      "chip": "ym2612"
    },
    {
      "channel": 3,
      "note": 74,
      "start": 209.4098,
      "duration": 0.1089,
      "velocity": 94,
      "chip": "ym2612"
    },
    {
      "channel": 5,
      "note": 74,
      "start": 209.4101,
      "duration": 0.1089,
      "velocity": 94,
      "chip": "ym2612"
    },
    {
      "channel": 0,
      "note": 98,
      "start": 209.5185,
      "duration": 0.0309,
      "velocity": 114,
      "chip": "ym2612"
    },
    {
      "channel": 0,
      "note": 98,
      "start": 209.6274,
      "duration": 0.0154,
      "velocity": 127,
      "chip": "ym2612"
    },
    {
      "channel": 1,
      "note": 55,
      "start": 209.6276,
      "duration": 0.2178,
      "velocity": 93,
      "chip": "ym2612"
    },
    {
      "channel": 3,
      "note": 76,
      "start": 209.6277,
      "duration": 0.1089,
      "velocity": 94,
      "chip": "ym2612"
    },
    {
      "channel": 5,
      "note": 76,
      "start": 209.628,
      "duration": 0.1089,
      "velocity": 94,
      "chip": "ym2612"
    },
    {
      "channel": 0,
      "note": 76,
      "start": 209.6428,
      "duration": 0.0936,
      "velocity": 114,
      "chip": "ym2612"
    },
    {
      "channel": 0,
      "note": 68,
      "start": 209.7363,
      "duration": 0.0309,
      "velocity": 114,
      "chip": "ym2612"
    },
    {
      "channel": 5,
      "note": 81,
      "start": 209.7368,
      "duration": 0.109,
      "velocity": 94,
      "chip": "ym2612"
    },
    {
      "channel": 0,
      "note": 98,
      "start": 209.8453,
      "duration": 0.0309,
      "velocity": 114,
      "chip": "ym2612"
    },
    {
      "channel": 1,
      "note": 55,
      "start": 209.8454,
      "duration": 0.2179,
      "velocity": 93,
      "chip": "ym2612"
    },
    {
      "channel": 3,
      "note": 78,
      "start": 209.8457,
      "duration": 0.1088,
      "velocity": 94,
      "chip": "ym2612"
    },
    {
      "channel": 5,
      "note": 69,
      "start": 209.8459,
      "duration": 0.1088,
      "velocity": 94,
      "chip": "ym2612"
    },
    {
      "channel": 0,
      "note": 98,
      "start": 209.9542,
      "duration": 0.0309,
      "velocity": 114,
      "chip": "ym2612"
    },
    {
      "channel": 3,
      "note": 81,
      "start": 209.9545,
      "duration": 0.109,
      "velocity": 94,
      "chip": "ym2612"
    },
    {
      "channel": 5,
      "note": 81,
      "start": 209.9547,
      "duration": 0.109,
      "velocity": 94,
      "chip": "ym2612"
    },
    {
      "channel": 0,
      "note": 98,
      "start": 210.0632,
      "duration": 0.1089,
      "velocity": 114,
      "chip": "ym2612"
    },
    {
      "channel": 1,
      "note": 55,
      "start": 210.0633,
      "duration": 0.2178,
      "velocity": 93,
      "chip": "ym2612"
    },
    {
      "channel": 3,
      "note": 69,
      "start": 210.0635,
      "duration": 0.1089,
      "velocity": 94,
      "chip": "ym2612"
    },
    {
      "channel": 5,
      "note": 71,
      "start": 210.0638,
      "duration": 0.1089,
      "velocity": 94,
      "chip": "ym2612"
    },
    {
      "channel": 0,
      "note": 54,
      "start": 210.1721,
      "duration": 0.0309,
      "velocity": 114,
      "chip": "ym2612"
    },
    {
      "channel": 3,
      "note": 74,
      "start": 210.1724,
      "duration": 0.1089,
      "velocity": 94,
      "chip": "ym2612"
    },
    {
      "channel": 5,
      "note": 74,
      "start": 210.1726,
      "duration": 0.1089,
      "velocity": 94,
      "chip": "ym2612"
    },
    {
      "channel": 0,
      "note": 98,
      "start": 210.2811,
      "duration": 0.0309,
      "velocity": 114,
      "chip": "ym2612"
    },
    {
      "channel": 1,
      "note": 55,
      "start": 210.2812,
      "duration": 0.2179,
      "velocity": 93,
      "chip": "ym2612"
    },
    {
      "channel": 0,
      "note": 98,
      "start": 210.39,
      "duration": 0.0309,
      "velocity": 114,
      "chip": "ym2612"
    },
    {
      "channel": 3,
      "note": 76,
      "start": 210.3904,
      "duration": 0.1088,
      "velocity": 94,
      "chip": "ym2612"
    },
    {
      "channel": 5,
      "note": 76,
      "start": 210.3907,
      "duration": 0.1089,
      "velocity": 94,
      "chip": "ym2612"
    },
    {
      "channel": 0,
      "note": 98,
      "start": 210.4989,
      "duration": 0.0154,
      "velocity": 127,
      "chip": "ym2612"
    },
    {
      "channel": 1,
      "note": 55,
      "start": 210.4991,
      "duration": 0.2178,
      "velocity": 93,
      "chip": "ym2612"
    },
    {
      "channel": 3,
      "note": 81,
      "start": 210.4993,
      "duration": 0.1089,
      "velocity": 94,
      "chip": "ym2612"
    },
    {
      "channel": 5,
      "note": 78,
      "start": 210.4995,
      "duration": 0.1088,
      "velocity": 94,
      "chip": "ym2612"
    },
    {
      "channel": 0,
      "note": 76,
      "start": 210.5143,
      "duration": 0.0936,
      "velocity": 114,
      "chip": "ym2612"
    },
    {
      "channel": 0,
      "note": 68,
      "start": 210.6079,
      "duration": 0.0309,
      "velocity": 114,
      "chip": "ym2612"
    },
    {
      "channel": 3,
      "note": 69,
      "start": 210.6082,
      "duration": 0.109,
      "velocity": 94,
      "chip": "ym2612"
    },
    {
      "channel": 5,
      "note": 81,
      "start": 210.6084,
      "duration": 0.109,
      "velocity": 94,
      "chip": "ym2612"
    },
    {
      "channel": 0,
      "note": 98,
      "start": 210.7168,
      "duration": 0.0309,
      "velocity": 114,
      "chip": "ym2612"
    },
    {
      "channel": 1,
      "note": 55,
      "start": 210.7169,
      "duration": 0.2179,
      "velocity": 93,
      "chip": "ym2612"
    },
    {
      "channel": 3,
      "note": 81,
      "start": 210.7171,
      "duration": 0.1089,
      "velocity": 94,
      "chip": "ym2612"
    },
    {
      "channel": 5,
      "note": 69,
      "start": 210.7174,
      "duration": 0.1089,
      "velocity": 94,
      "chip": "ym2612"
    },
    {
      "channel": 0,
      "note": 98,
      "start": 210.8258,
      "duration": 0.0309,
      "velocity": 114,
      "chip": "ym2612"
    },
    {
      "channel": 3,
      "note": 71,
      "start": 210.826,
      "duration": 0.109,
      "velocity": 94,
      "chip": "ym2612"
    },
    {
      "channel": 5,
      "note": 74,
      "start": 210.8263,
      "duration": 0.109,
      "velocity": 94,
      "chip": "ym2612"
    },
    {
      "channel": 0,
      "note": 98,
      "start": 210.9347,
      "duration": 0.1089,
      "velocity": 127,
      "chip": "ym2612"
    },
    {
      "channel": 1,
      "note": 55,
      "start": 210.9349,
      "duration": 0.2178,
      "velocity": 93,
      "chip": "ym2612"
    },
    {
      "channel": 3,
      "note": 74,
      "start": 210.9351,
      "duration": 0.1089,
      "velocity": 94,
      "chip": "ym2612"
    },
    {
      "channel": 0,
      "note": 54,
      "start": 211.0437,
      "duration": 0.0154,
      "velocity": 127,
      "chip": "ym2612"
    },
    {
      "channel": 5,
      "note": 76,
      "start": 211.0441,
      "duration": 0.109,
      "velocity": 94,
      "chip": "ym2612"
    },
    {
      "channel": 0,
      "note": 76,
      "start": 211.059,
      "duration": 0.0936,
      "velocity": 114,
      "chip": "ym2612"
    },
    {
      "channel": 0,
      "note": 68,
      "start": 211.1526,
      "duration": 0.0309,
      "velocity": 114,
      "chip": "ym2612"
    },
    {
      "channel": 1,
      "note": 55,
      "start": 211.1527,
      "duration": 0.2179,
      "velocity": 93,
      "chip": "ym2612"
    },
    {
      "channel": 3,
      "note": 76,
      "start": 211.1529,
      "duration": 0.1088,
      "velocity": 94,
      "chip": "ym2612"
    },
    {
      "channel": 5,
      "note": 81,
      "start": 211.1532,
      "duration": 0.1088,
      "velocity": 94,
      "chip": "ym2612"
    },
    {
      "channel": 0,
      "note": 98,
      "start": 211.2615,
      "duration": 0.0309,
      "velocity": 114,
      "chip": "ym2612"
    },
    {
      "channel": 5,
      "note": 69,
      "start": 211.262,
      "duration": 0.1091,
      "velocity": 94,
      "chip": "ym2612"
    },
    {
      "channel": 0,
      "note": 98,
      "start": 211.3705,
      "duration": 0.1089,
      "velocity": 114,
      "chip": "ym2612"
    },
    {
      "channel": 1,
      "note": 56,
      "start": 211.3706,
      "duration": 0.2178,
      "velocity": 93,
      "chip": "ym2612"
    },
    {
      "channel": 2,
      "note": 43,
      "start": 211.3707,
      "duration": 3.0504,
      "velocity": 121,
      "chip": "ym2612"
    },
    {
      "channel": 3,
      "note": 78,
      "start": 211.3709,
      "duration": 0.1087,
      "velocity": 94,
      "chip": "ym2612"
    },
    {
      "channel": 5,
      "note": 81,
      "start": 211.3712,
      "duration": 0.1087,
      "velocity": 94,
      "chip": "ym2612"
    },
    {
      "channel": 0,
      "note": 54,
      "start": 211.4794,
      "duration": 0.0309,
      "velocity": 114,
      "chip": "ym2612"
    },
    {
      "channel": 3,
      "note": 81,
      "start": 211.4797,
      "duration": 0.109,
      "velocity": 94,
      "chip": "ym2612"
    },
    {
      "channel": 5,
      "note": 71,
      "start": 211.4799,
      "duration": 0.109,
      "velocity": 94,
      "chip": "ym2612"
    },
    {
      "channel": 4,
      "note": 43,
      "start": 211.5575,
      "duration": 3.0502,
      "velocity": 121,
      "chip": "ym2612"
    },
    {
      "channel": 0,
      "note": 98,
      "start": 211.5884,
      "duration": 0.0309,
      "velocity": 114,
      "chip": "ym2612"
    },
    {
      "channel": 1,
      "note": 64,
      "start": 211.5885,
      "duration": 0.2179,
      "velocity": 93,
      "chip": "ym2612"
    },
    {
      "channel": 3,
      "note": 69,
      "start": 211.5887,
      "duration": 0.1089,
      "velocity": 94,
      "chip": "ym2612"
    },
    {
      "channel": 5,
      "note": 74,
      "start": 211.5889,
      "duration": 0.1089,
      "velocity": 94,
      "chip": "ym2612"
    },
    {
      "channel": 0,
      "note": 98,
      "start": 211.6973,
      "duration": 0.0309,
      "velocity": 114,
      "chip": "ym2612"
    },
    {
      "channel": 3,
      "note": 74,
      "start": 211.6976,
      "duration": 0.109,
      "velocity": 94,
      "chip": "ym2612"
    },
    {
      "channel": 0,
      "note": 98,
      "start": 211.8062,
      "duration": 0.0154,
      "velocity": 127,
      "chip": "ym2612"
    },
    {
      "channel": 1,
      "note": 64,
      "start": 211.8064,
      "duration": 0.2178,
      "velocity": 93,
      "chip": "ym2612"
    },
    {
      "channel": 5,
      "note": 76,
      "start": 211.8068,
      "duration": 0.109,
      "velocity": 94,
      "chip": "ym2612"
    },
    {
      "channel": 0,
      "note": 76,
      "start": 211.8216,
      "duration": 0.0936,
      "velocity": 114,
      "chip": "ym2612"
    },
    {
      "channel": 0,
      "note": 68,
      "start": 211.9152,
      "duration": 0.0309,
      "velocity": 114,
      "chip": "ym2612"
    },
    {
      "channel": 3,
      "note": 76,
      "start": 211.9154,
      "duration": 0.109,
      "velocity": 94,
      "chip": "ym2612"
    },
    {
      "channel": 5,
      "note": 78,
      "start": 211.9157,
      "duration": 0.1089,
      "velocity": 94,
      "chip": "ym2612"
    },
    {
      "channel": 0,
      "note": 98,
      "start": 212.0241,
      "duration": 0.0309,
      "velocity": 114,
      "chip": "ym2612"
    },
    {
      "channel": 1,
      "note": 64,
      "start": 212.0242,
      "duration": 0.2179,
      "velocity": 93,
      "chip": "ym2612"
    },
    {
      "channel": 3,
      "note": 81,
      "start": 212.0244,
      "duration": 0.1089,
      "velocity": 94,
      "chip": "ym2612"
    },
    {
      "channel": 5,
      "note": 81,
      "start": 212.0247,
      "duration": 0.1089,
      "velocity": 94,
      "chip": "ym2612"
    },
    {
      "channel": 0,
      "note": 98,
      "start": 212.1331,
      "duration": 0.0309,
      "velocity": 114,
      "chip": "ym2612"
    },
    {
      "channel": 3,
      "note": 69,
      "start": 212.1333,
      "duration": 0.109,
      "velocity": 94,
      "chip": "ym2612"
    },
    {
      "channel": 5,
      "note": 69,
      "start": 212.1336,
      "duration": 0.109,
      "velocity": 94,
      "chip": "ym2612"
    },
    {
      "channel": 0,
      "note": 98,
      "start": 212.242,
      "duration": 0.1089,
      "velocity": 114,
      "chip": "ym2612"
    },
    {
      "channel": 1,
      "note": 64,
      "start": 212.2422,
      "duration": 0.2178,
      "velocity": 93,
      "chip": "ym2612"
    },
    {
      "channel": 3,
      "note": 81,
      "start": 212.2424,
      "duration": 0.1089,
      "velocity": 94,
      "chip": "ym2612"
    },
    {
      "channel": 5,
      "note": 74,
      "start": 212.2426,
      "duration": 0.1089,
      "velocity": 94,
      "chip": "ym2612"
    },
    {
      "channel": 0,
      "note": 54,
      "start": 212.351,
      "duration": 0.0309,
      "velocity": 114,
      "chip": "ym2612"
    },
    {
      "channel": 3,
      "note": 71,
      "start": 212.3512,
      "duration": 0.109,
      "velocity": 94,
      "chip": "ym2612"
    },
    {
      "channel": 0,
      "note": 98,
      "start": 212.4599,
      "duration": 0.0309,
      "velocity": 114,
      "chip": "ym2612"
    },
    {
      "channel": 1,
      "note": 64,
      "start": 212.46,
      "duration": 0.2179,
      "velocity": 93,
      "chip": "ym2612"
    },
    {
      "channel": 3,
      "note": 74,
      "start": 212.4602,
      "duration": 0.1089,
      "velocity": 94,
      "chip": "ym2612"
    },
    {
      "channel": 5,
      "note": 76,
      "start": 212.4604,
      "duration": 0.1089,
      "velocity": 94,
      "chip": "ym2612"
    },
    {
      "channel": 0,
      "note": 98,
      "start": 212.5688,
      "duration": 0.0309,
      "velocity": 114,
      "chip": "ym2612"
    },
    {
      "channel": 5,
      "note": 81,
      "start": 212.5693,
      "duration": 0.109,
      "velocity": 94,
      "chip": "ym2612"
    },
    {
      "channel": 0,
      "note": 98,
      "start": 212.6778,
      "duration": 0.0154,
      "velocity": 127,
      "chip": "ym2612"
    },
    {
      "channel": 1,
      "note": 64,
      "start": 212.6779,
      "duration": 0.2178,
      "velocity": 93,
      "chip": "ym2612"
    },
    {
      "channel": 3,
      "note": 76,
      "start": 212.6781,
      "duration": 0.1089,
      "velocity": 94,
      "chip": "ym2612"
    },
    {
      "channel": 5,
      "note": 69,
      "start": 212.6783,
      "duration": 0.1089,
      "velocity": 94,
      "chip": "ym2612"
    },
    {
      "channel": 0,
      "note": 76,
      "start": 212.6931,
      "duration": 0.0936,
      "velocity": 114,
      "chip": "ym2612"
    },
    {
      "channel": 0,
      "note": 68,
      "start": 212.7867,
      "duration": 0.0309,
      "velocity": 114,
      "chip": "ym2612"
    },
    {
      "channel": 5,
      "note": 81,
      "start": 212.7872,
      "duration": 0.109,
      "velocity": 94,
      "chip": "ym2612"
    },
    {
      "channel": 0,
      "note": 98,
      "start": 212.8956,
      "duration": 0.0309,
      "velocity": 114,
      "chip": "ym2612"
    },
    {
      "channel": 1,
      "note": 64,
      "start": 212.8958,
      "duration": 0.2179,
      "velocity": 93,
      "chip": "ym2612"
    },
    {
      "channel": 3,
      "note": 78,
      "start": 212.896,
      "duration": 0.1088,
      "velocity": 94,
      "chip": "ym2612"
    },
    {
      "channel": 5,
      "note": 71,
      "start": 212.8963,
      "duration": 0.1088,
      "velocity": 94,
      "chip": "ym2612"
    },
    {
      "channel": 0,
      "note": 98,
      "start": 213.0046,
      "duration": 0.0309,
      "velocity": 114,
      "chip": "ym2612"
    },
    {
      "channel": 3,
      "note": 81,
      "start": 213.0049,
      "duration": 0.109,
      "velocity": 94,
      "chip": "ym2612"
    },
    {
      "channel": 5,
      "note": 74,
      "start": 213.0051,
      "duration": 0.109,
      "velocity": 94,
      "chip": "ym2612"
    },
    {
      "channel": 0,
      "note": 98,
      "start": 213.1136,
      "duration": 0.1089,
      "velocity": 114,
      "chip": "ym2612"
    },
    {
      "channel": 1,
      "note": 64,
      "start": 213.1137,
      "duration": 0.2178,
      "velocity": 93,
      "chip": "ym2612"
    },
    {
      "channel": 3,
      "note": 69,
      "start": 213.1139,
      "duration": 0.1089,
      "velocity": 94,
      "chip": "ym2612"
    },
    {
      "channel": 0,
      "note": 54,
      "start": 213.2225,
      "duration": 0.0309,
      "velocity": 114,
      "chip": "ym2612"
    },
    {
      "channel": 3,
      "note": 74,
      "start": 213.2228,
      "duration": 0.1089,
      "velocity": 94,
      "chip": "ym2612"
    },
    {
      "channel": 5,
      "note": 76,
      "start": 213.223,
      "duration": 0.109,
      "velocity": 94,
      "chip": "ym2612"
    },
    {
      "channel": 0,
      "note": 98,
      "start": 213.3314,
      "duration": 0.0309,
      "velocity": 114,
      "chip": "ym2612"
    },
    {
      "channel": 1,
      "note": 64,
      "start": 213.3315,
      "duration": 0.2179,
      "velocity": 93,
      "chip": "ym2612"
    },
    {
      "channel": 5,
      "note": 78,
      "start": 213.332,
      "duration": 0.109,
      "velocity": 94,
      "chip": "ym2612"
    },
    {
      "channel": 0,
      "note": 98,
      "start": 213.4405,
      "duration": 0.0307,
      "velocity": 114,
      "chip": "ym2612"
    },
    {
      "channel": 3,
      "note": 76,
      "start": 213.4408,
      "duration": 0.1088,
      "velocity": 94,
      "chip": "ym2612"
    },
    {
      "channel": 5,
      "note": 81,
      "start": 213.441,
      "duration": 0.1088,
      "velocity": 94,
      "chip": "ym2612"
    },
    {
      "channel": 0,
      "note": 98,
      "start": 213.5493,
      "duration": 0.0154,
      "velocity": 127,
      "chip": "ym2612"
    },
    {
      "channel": 1,
      "note": 64,
      "start": 213.5494,
      "duration": 0.2179,
      "velocity": 93,
      "chip": "ym2612"
    },
    {
      "channel": 3,
      "note": 81,
      "start": 213.5496,
      "duration": 0.1089,
      "velocity": 94,
      "chip": "ym2612"
    },
    {
      "channel": 5,
      "note": 69,
      "start": 213.5499,
      "duration": 0.1089,
      "velocity": 94,
      "chip": "ym2612"
    },
    {
      "channel": 0,
      "note": 76,
      "start": 213.5647,
      "duration": 0.0936,
      "velocity": 114,
      "chip": "ym2612"
    },
    {
      "channel": 0,
      "note": 68,
      "start": 213.6583,
      "duration": 0.0309,
      "velocity": 114,
      "chip": "ym2612"
    },
    {
      "channel": 3,
      "note": 69,
      "start": 213.6585,
      "duration": 0.109,
      "velocity": 94,
      "chip": "ym2612"
    },
    {
      "channel": 5,
      "note": 74,
      "start": 213.6588,
      "duration": 0.109,
      "velocity": 94,
      "chip": "ym2612"
    },
    {
      "channel": 0,
      "note": 98,
      "start": 213.7672,
      "duration": 0.0309,
      "velocity": 114,
      "chip": "ym2612"
    },
    {
      "channel": 1,
      "note": 64,
      "start": 213.7673,
      "duration": 0.2179,
      "velocity": 93,
      "chip": "ym2612"
    },
    {
      "channel": 3,
      "note": 81,
      "start": 213.7675,
      "duration": 0.1089,
      "velocity": 94,
      "chip": "ym2612"
    },
    {
      "channel": 0,
      "note": 98,
      "start": 213.8761,
      "duration": 0.0311,
      "velocity": 114,
      "chip": "ym2612"
    },
    {
      "channel": 3,
      "note": 71,
      "start": 213.8764,
      "duration": 0.109,
      "velocity": 94,
      "chip": "ym2612"
    },
    {
      "channel": 5,
      "note": 76,
      "start": 213.8766,
      "duration": 0.109,
      "velocity": 94,
      "chip": "ym2612"
    },
    {
      "channel": 0,
      "note": 98,
      "start": 213.9851,
      "duration": 0.1089,
      "velocity": 127,
      "chip": "ym2612"
    },
    {
      "channel": 1,
      "note": 64,
      "start": 213.9852,
      "duration": 0.2179,
      "velocity": 93,
      "chip": "ym2612"
    },
    {
      "channel": 3,
      "note": 74,
      "start": 213.9854,
      "duration": 0.1089,
      "velocity": 94,
      "chip": "ym2612"
    },
    {
      "channel": 5,
      "note": 81,
      "start": 213.9856,
      "duration": 0.1089,
      "velocity": 94,
      "chip": "ym2612"
    },
    {
      "channel": 0,
      "note": 54,
      "start": 214.094,
      "duration": 0.0154,
      "velocity": 127,
      "chip": "ym2612"
    },
    {
      "channel": 5,
      "note": 69,
      "start": 214.0945,
      "duration": 0.109,
      "velocity": 94,
      "chip": "ym2612"
    },
    {
      "channel": 0,
      "note": 76,
      "start": 214.1094,
      "duration": 0.0936,
      "velocity": 114,
      "chip": "ym2612"
    },
    {
      "channel": 0,
      "note": 68,
      "start": 214.2029,
      "duration": 0.0309,
      "velocity": 114,
      "chip": "ym2612"
    },
    {
      "channel": 1,
      "note": 64,
      "start": 214.2031,
      "duration": 0.2179,
      "velocity": 93,
      "chip": "ym2612"
    },
    {
      "channel": 3,
      "note": 76,
      "start": 214.2033,
      "duration": 0.1089,
      "velocity": 94,
      "chip": "ym2612"
    },
    {
      "channel": 5,
      "note": 81,
      "start": 214.2035,
      "duration": 0.1088,
      "velocity": 94,
      "chip": "ym2612"
    },
    {
      "channel": 0,
      "note": 98,
      "start": 214.3119,
      "duration": 0.0309,
      "velocity": 114,
      "chip": "ym2612"
    },
    {
      "channel": 5,
      "note": 71,
      "start": 214.3124,
      "duration": 0.1091,
      "velocity": 94,
      "chip": "ym2612"
    },
    {
      "channel": 0,
      "note": 98,
      "start": 214.4209,
      "duration": 0.1089,
      "velocity": 114,
      "chip": "ym2612"
    },
    {
      "channel": 1,
      "note": 64,
      "start": 214.421,
      "duration": 0.2178,
      "velocity": 93,
      "chip": "ym2612"
    },
    {
      "channel": 2,
      "note": 52,
      "start": 214.4211,
      "duration": 3.0504,
      "velocity": 121,
      "chip": "ym2612"
    },
    {
      "channel": 3,
      "note": 78,
      "start": 214.4213,
      "duration": 0.1088,
      "velocity": 94,
      "chip": "ym2612"
    },
    {
      "channel": 5,
      "note": 74,
      "start": 214.4215,
      "duration": 0.1087,
      "velocity": 94,
      "chip": "ym2612"
    },
    {
      "channel": 0,
      "note": 54,
      "start": 214.5298,
      "duration": 0.0309,
      "velocity": 114,
      "chip": "ym2612"
    },
    {
      "channel": 3,
      "note": 81,
      "start": 214.53,
      "duration": 0.109,
      "velocity": 94,
      "chip": "ym2612"
    },
    {
      "channel": 4,
      "note": 52,
      "start": 214.6077,
      "duration": 3.0504,
      "velocity": 121,
      "chip": "ym2612"
    },
    {
      "channel": 0,
      "note": 98,
      "start": 214.6387,
      "duration": 0.0309,
      "velocity": 114,
      "chip": "ym2612"
    },
    {
      "channel": 1,
      "note": 62,
      "start": 214.6388,
      "duration": 0.2179,
      "velocity": 93,
      "chip": "ym2612"
    },
    {
      "channel": 3,
      "note": 69,
      "start": 214.639,
      "duration": 0.1089,
      "velocity": 94,
      "chip": "ym2612"
    },
    {
      "channel": 5,
      "note": 76,
      "start": 214.6392,
      "duration": 0.109,
      "velocity": 94,
      "chip": "ym2612"
    },
    {
      "channel": 0,
      "note": 98,
      "start": 214.7477,
      "duration": 0.0309,
      "velocity": 114,
      "chip": "ym2612"
    },
    {
      "channel": 3,
      "note": 74,
      "start": 214.7479,
      "duration": 0.1092,
      "velocity": 94,
      "chip": "ym2612"
    },
    {
      "channel": 5,
      "note": 78,
      "start": 214.7482,
      "duration": 0.1091,
      "velocity": 94,
      "chip": "ym2612"
    },
    {
      "channel": 0,
      "note": 98,
      "start": 214.8566,
      "duration": 0.0154,
      "velocity": 127,
      "chip": "ym2612"
    },
    {
      "channel": 1,
      "note": 62,
      "start": 214.8567,
      "duration": 0.2179,
      "velocity": 93,
      "chip": "ym2612"
    },
    {
      "channel": 5,
      "note": 81,
      "start": 214.8573,
      "duration": 0.1087,
      "velocity": 94,
      "chip": "ym2612"
    },
    {
      "channel": 0,
      "note": 76,
      "start": 214.872,
      "duration": 0.0936,
      "velocity": 114,
      "chip": "ym2612"
    },
    {
      "channel": 0,
      "note": 68,
      "start": 214.9656,
      "duration": 0.0309,
      "velocity": 114,
      "chip": "ym2612"
    },
    {
      "channel": 3,
      "note": 76,
      "start": 214.9658,
      "duration": 0.109,
      "velocity": 94,
      "chip": "ym2612"
    },
    {
      "channel": 5,
      "note": 69,
      "start": 214.9661,
      "duration": 0.109,
      "velocity": 94,
      "chip": "ym2612"
    },
    {
      "channel": 0,
      "note": 98,
      "start": 215.0745,
      "duration": 0.0309,
      "velocity": 114,
      "chip": "ym2612"
    },
    {
      "channel": 1,
      "note": 62,
      "start": 215.0746,
      "duration": 0.2179,
      "velocity": 93,
      "chip": "ym2612"
    },
    {
      "channel": 3,
      "note": 81,
      "start": 215.0748,
      "duration": 0.1089,
      "velocity": 94,
      "chip": "ym2612"
    },
    {
      "channel": 5,
      "note": 74,
      "start": 215.075,
      "duration": 0.1089,
      "velocity": 94,
      "chip": "ym2612"
    },
    {
      "channel": 0,
      "note": 98,
      "start": 215.1834,
      "duration": 0.0309,
      "velocity": 114,
      "chip": "ym2612"
    },
    {
      "channel": 3,
      "note": 69,
      "start": 215.1837,
      "duration": 0.109,
      "velocity": 94,
      "chip": "ym2612"
    },
    {
      "channel": 0,
      "note": 98,
      "start": 215.2924,
      "duration": 0.1089,
      "velocity": 114,
      "chip": "ym2612"
    },
    {
      "channel": 1,
      "note": 62,
      "start": 215.2925,
      "duration": 0.2178,
      "velocity": 93,
      "chip": "ym2612"
    },
    {
      "channel": 3,
      "note": 81,
      "start": 215.2927,
      "duration": 0.1089,
      "velocity": 94,
      "chip": "ym2612"
    },
    {
      "channel": 5,
      "note": 76,
      "start": 215.2929,
      "duration": 0.1089,
      "velocity": 94,
      "chip": "ym2612"
    },
    {
      "channel": 0,
      "note": 54,
      "start": 215.4013,
      "duration": 0.0309,
      "velocity": 114,
      "chip": "ym2612"
    },
    {
      "channel": 3,
      "note": 71,
      "start": 215.4016,
      "duration": 0.109,
      "velocity": 94,
      "chip": "ym2612"
    },
    {
      "channel": 5,
      "note": 81,
      "start": 215.4018,
      "duration": 0.109,
      "velocity": 94,
      "chip": "ym2612"
    },
    {
      "channel": 0,
      "note": 98,
      "start": 215.5102,
      "duration": 0.0309,
      "velocity": 114,
      "chip": "ym2612"
    },
    {
      "channel": 1,
      "note": 62,
      "start": 215.5104,
      "duration": 0.2179,
      "velocity": 93,
      "chip": "ym2612"
    },
    {
      "channel": 3,
      "note": 74,
      "start": 215.5106,
      "duration": 0.1089,
      "velocity": 94,
      "chip": "ym2612"
    },
    {
      "channel": 5,
      "note": 69,
      "start": 215.5108,
      "duration": 0.1088,
      "velocity": 94,
      "chip": "ym2612"
    },
    {
      "channel": 0,
      "note": 98,
      "start": 215.6192,
      "duration": 0.0309,
      "velocity": 114,
      "chip": "ym2612"
    },
    {
      "channel": 5,
      "note": 81,
      "start": 215.6197,
      "duration": 0.109,
      "velocity": 94,
      "chip": "ym2612"
    },
    {
      "channel": 0,
      "note": 98,
      "start": 215.7281,
      "duration": 0.0154,
      "velocity": 127,
      "chip": "ym2612"
    },
    {
      "channel": 1,
      "note": 62,
      "start": 215.7283,
      "duration": 0.2178,
      "velocity": 93,
      "chip": "ym2612"
    },
    {
      "channel": 3,
      "note": 76,
      "start": 215.7285,
      "duration": 0.1089,
      "velocity": 94,
      "chip": "ym2612"
    },
    {
      "channel": 5,
      "note": 71,
      "start": 215.7287,
      "duration": 0.1089,
      "velocity": 94,
      "chip": "ym2612"
    },
    {
      "channel": 0,
      "note": 76,
      "start": 215.7435,
      "duration": 0.0936,
      "velocity": 114,
      "chip": "ym2612"
    },
    {
      "channel": 0,
      "note": 68,
      "start": 215.8371,
      "duration": 0.0309,
      "velocity": 114,
      "chip": "ym2612"
    },
    {
      "channel": 5,
      "note": 74,
      "start": 215.8376,
      "duration": 0.109,
      "velocity": 94,
      "chip": "ym2612"
    },
    {
      "channel": 0,
      "note": 98,
      "start": 215.946,
      "duration": 0.0309,
      "velocity": 114,
      "chip": "ym2612"
    },
    {
      "channel": 1,
      "note": 62,
      "start": 215.9461,
      "duration": 0.2179,
      "velocity": 93,
      "chip": "ym2612"
    },
    {
      "channel": 3,
      "note": 78,
      "start": 215.9464,
      "duration": 0.1088,
      "velocity": 94,
      "chip": "ym2612"
    },
    {
      "channel": 0,
      "note": 98,
      "start": 216.055,
      "duration": 0.0309,
      "velocity": 114,
      "chip": "ym2612"
    },
    {
      "channel": 3,
      "note": 81,
      "start": 216.0552,
      "duration": 0.109,
      "velocity": 94,
      "chip": "ym2612"
    },
    {
      "channel": 5,
      "note": 76,
      "start": 216.0555,
      "duration": 0.1091,
      "velocity": 94,
      "chip": "ym2612"
    },
    {
      "channel": 0,
      "note": 98,
      "start": 216.1639,
      "duration": 0.1089,
      "velocity": 114,
      "chip": "ym2612"
    },
    {
      "channel": 1,
      "note": 62,
      "start": 216.1641,
      "duration": 0.2178,
      "velocity": 93,
      "chip": "ym2612"
    },
    {
      "channel": 3,
      "note": 69,
      "start": 216.1643,
      "duration": 0.1089,
      "velocity": 94,
      "chip": "ym2612"
    },
    {
      "channel": 5,
      "note": 78,
      "start": 216.1645,
      "duration": 0.1088,
      "velocity": 94,
      "chip": "ym2612"
    },
    {
      "channel": 0,
      "note": 54,
      "start": 216.2728,
      "duration": 0.0309,
      "velocity": 114,
      "chip": "ym2612"
    },
    {
      "channel": 3,
      "note": 74,
      "start": 216.2731,
      "duration": 0.109,
      "velocity": 94,
      "chip": "ym2612"
    },
    {
      "channel": 5,
      "note": 81,
      "start": 216.2734,
      "duration": 0.109,
      "velocity": 94,
      "chip": "ym2612"
    },
    {
      "channel": 0,
      "note": 98,
      "start": 216.3818,
      "duration": 0.0309,
      "velocity": 114,
      "chip": "ym2612"
    },
    {
      "channel": 1,
      "note": 62,
      "start": 216.3819,
      "duration": 0.2179,
      "velocity": 93,
      "chip": "ym2612"
    },
    {
      "channel": 5,
      "note": 69,
      "start": 216.3823,
      "duration": 0.1089,
      "velocity": 94,
      "chip": "ym2612"
    },
    {
      "channel": 0,
      "note": 98,
      "start": 216.4907,
      "duration": 0.0309,
      "velocity": 114,
      "chip": "ym2612"
    },
    {
      "channel": 3,
      "note": 76,
      "start": 216.491,
      "duration": 0.109,
      "velocity": 94,
      "chip": "ym2612"
    },
    {
      "channel": 5,
      "note": 74,
      "start": 216.4912,
      "duration": 0.109,
      "velocity": 94,
      "chip": "ym2612"
    },
    {
      "channel": 0,
      "note": 98,
      "start": 216.5997,
      "duration": 0.0154,
      "velocity": 127,
      "chip": "ym2612"
    },
    {
      "channel": 1,
      "note": 62,
      "start": 216.5998,
      "duration": 0.2179,
      "velocity": 93,
      "chip": "ym2612"
    },
    {
      "channel": 3,
      "note": 81,
      "start": 216.6,
      "duration": 0.1089,
      "velocity": 94,
      "chip": "ym2612"
    },
    {
      "channel": 0,
      "note": 76,
      "start": 216.615,
      "duration": 0.0936,
      "velocity": 114,
      "chip": "ym2612"
    },
    {
      "channel": 0,
      "note": 68,
      "start": 216.7086,
      "duration": 0.0309,
      "velocity": 114,
      "chip": "ym2612"
    },
    {
      "channel": 3,
      "note": 69,
      "start": 216.7089,
      "duration": 0.109,
      "velocity": 94,
      "chip": "ym2612"
    },
    {
      "channel": 5,
      "note": 76,
      "start": 216.7091,
      "duration": 0.109,
      "velocity": 94,
      "chip": "ym2612"
    },
    {
      "channel": 0,
      "note": 98,
      "start": 216.8176,
      "duration": 0.0309,
      "velocity": 114,
      "chip": "ym2612"
    },
    {
      "channel": 1,
      "note": 62,
      "start": 216.8177,
      "duration": 0.2179,
      "velocity": 93,
      "chip": "ym2612"
    },
    {
      "channel": 3,
      "note": 81,
      "start": 216.8179,
      "duration": 0.1089,
      "velocity": 94,
      "chip": "ym2612"
    },
    {
      "channel": 5,
      "note": 81,
      "start": 216.8181,
      "duration": 0.1089,
      "velocity": 94,
      "chip": "ym2612"
    },
    {
      "channel": 0,
      "note": 98,
      "start": 216.9265,
      "duration": 0.0309,
      "velocity": 114,
      "chip": "ym2612"
    },
    {
      "channel": 3,
      "note": 71,
      "start": 216.9268,
      "duration": 0.109,
      "velocity": 94,
      "chip": "ym2612"
    },
    {
      "channel": 5,
      "note": 69,
      "start": 216.927,
      "duration": 0.109,
      "velocity": 94,
      "chip": "ym2612"
    },
    {
      "channel": 0,
      "note": 98,
      "start": 217.0354,
      "duration": 0.1089,
      "velocity": 127,
      "chip": "ym2612"
    },
    {
      "channel": 1,
      "note": 62,
      "start": 217.0356,
      "duration": 0.2179,
      "velocity": 93,
      "chip": "ym2612"
    },
    {
      "channel": 3,
      "note": 74,
      "start": 217.0358,
      "duration": 0.1089,
      "velocity": 94,
      "chip": "ym2612"
    },
    {
      "channel": 5,
      "note": 81,
      "start": 217.036,
      "duration": 0.1088,
      "velocity": 94,
      "chip": "ym2612"
    },
    {
      "channel": 0,
      "note": 54,
      "start": 217.1444,
      "duration": 0.0154,
      "velocity": 127,
      "chip": "ym2612"
    },
    {
      "channel": 5,
      "note": 71,
      "start": 217.1449,
      "duration": 0.109,
      "velocity": 94,
      "chip": "ym2612"
    },
    {
      "channel": 0,
      "note": 76,
      "start": 217.1597,
      "duration": 0.0936,
      "velocity": 114,
      "chip": "ym2612"
    },
    {
      "channel": 0,
      "note": 68,
      "start": 217.2533,
      "duration": 0.0309,
      "velocity": 114,
      "chip": "ym2612"
    },
    {
      "channel": 1,
      "note": 62,
      "start": 217.2534,
      "duration": 0.2179,
      "velocity": 93,
      "chip": "ym2612"
    },
    {
      "channel": 3,
      "note": 76,
      "start": 217.2536,
      "duration": 0.1089,
      "velocity": 94,
      "chip": "ym2612"
    },
    {
      "channel": 5,
      "note": 74,
      "start": 217.2539,
      "duration": 0.1088,
      "velocity": 94,
      "chip": "ym2612"
    },
    {
      "channel": 0,
      "note": 98,
      "start": 217.3623,
      "duration": 0.0309,
      "velocity": 114,
      "chip": "ym2612"
    },
    {
      "channel": 0,
      "note": 98,
      "start": 217.4712,
      "duration": 0.1089,
      "velocity": 114,
      "chip": "ym2612"
    },
    {
      "channel": 1,
      "note": 62,
      "start": 217.4714,
      "duration": 0.2178,
      "velocity": 93,
      "chip": "ym2612"
    },
    {
      "channel": 2,
      "note": 50,
      "start": 217.4715,
      "duration": 3.0503,
      "velocity": 121,
      "chip": "ym2612"
    },
    {
      "channel": 3,
      "note": 78,
      "start": 217.4717,
      "duration": 0.1088,
      "velocity": 94,
      "chip": "ym2612"
    },
    {
      "channel": 5,
      "note": 76,
      "start": 217.4719,
      "duration": 0.1088,
      "velocity": 94,
      "chip": "ym2612"
    },
    {
      "channel": 0,
      "note": 54,
      "start": 217.5801,
      "duration": 0.0309,
      "velocity": 114,
      "chip": "ym2612"
    },
    {
      "channel": 3,
      "note": 81,
      "start": 217.5804,
      "duration": 0.109,
      "velocity": 94,
      "chip": "ym2612"
    },
    {
      "channel": 5,
      "note": 78,
      "start": 217.5807,
      "duration": 0.1089,
      "velocity": 94,
      "chip": "ym2612"
    },
    {
      "channel": 4,
      "note": 50,
      "start": 217.6581,
      "duration": 3.0504,
      "velocity": 121,
      "chip": "ym2612"
    },
    {
      "channel": 0,
      "note": 98,
      "start": 217.6891,
      "duration": 0.0309,
      "velocity": 114,
      "chip": "ym2612"
    },
    {
      "channel": 1,
      "note": 59,
      "start": 217.6892,
      "duration": 0.218,
      "velocity": 93,
      "chip": "ym2612"
    },
    {
      "channel": 3,
      "note": 69,
      "start": 217.6894,
      "duration": 0.1089,
      "velocity": 94,
      "chip": "ym2612"
    },
    {
      "channel": 5,
      "note": 81,
      "start": 217.6896,
      "duration": 0.1089,
      "velocity": 94,
      "chip": "ym2612"
    },
    {
      "channel": 0,
      "note": 98,
      "start": 217.798,
      "duration": 0.0309,
      "velocity": 114,
      "chip": "ym2612"
    },
    {
      "channel": 3,
      "note": 74,
      "start": 217.7983,
      "duration": 0.1092,
      "velocity": 94,
      "chip": "ym2612"
    },
    {
      "channel": 5,
      "note": 69,
      "start": 217.7985,
      "duration": 0.1092,
      "velocity": 94,
      "chip": "ym2612"
    },
    {
      "channel": 0,
      "note": 98,
      "start": 217.9071,
      "duration": 0.0152,
      "velocity": 127,
      "chip": "ym2612"
    },
    {
      "channel": 1,
      "note": 59,
      "start": 217.9073,
      "duration": 0.2177,
      "velocity": 93,
      "chip": "ym2612"
    },
    {
      "channel": 5,
      "note": 74,
      "start": 217.9077,
      "duration": 0.1087,
      "velocity": 94,
      "chip": "ym2612"
    },
    {
      "channel": 0,
      "note": 76,
      "start": 217.9223,
      "duration": 0.0936,
      "velocity": 114,
      "chip": "ym2612"
    },
    {
      "channel": 0,
      "note": 68,
      "start": 218.0159,
      "duration": 0.0309,
      "velocity": 114,
      "chip": "ym2612"
    },
    {
      "channel": 3,
      "note": 76,
      "start": 218.0162,
      "duration": 0.109,
      "velocity": 94,
      "chip": "ym2612"
    },
    {
      "channel": 0,
      "note": 98,
      "start": 218.1249,
      "duration": 0.0309,
      "velocity": 114,
      "chip": "ym2612"
    },
    {
      "channel": 1,
      "note": 59,
      "start": 218.125,
      "duration": 0.2179,
      "velocity": 93,
      "chip": "ym2612"
    },
    {
      "channel": 3,
      "note": 81,
      "start": 218.1252,
      "duration": 0.1089,
      "velocity": 94,
      "chip": "ym2612"
    },
    {
      "channel": 5,
      "note": 76,
      "start": 218.1254,
      "duration": 0.1089,
      "velocity": 94,
      "chip": "ym2612"
    },
    {
      "channel": 0,
      "note": 98,
      "start": 218.2338,
      "duration": 0.0309,
      "velocity": 114,
      "chip": "ym2612"
    },
    {
      "channel": 3,
      "note": 69,
      "start": 218.2341,
      "duration": 0.109,
      "velocity": 94,
      "chip": "ym2612"
    },
    {
      "channel": 5,
      "note": 81,
      "start": 218.2343,
      "duration": 0.109,
      "velocity": 94,
      "chip": "ym2612"
    },
    {
      "channel": 0,
      "note": 98,
      "start": 218.3427,
      "duration": 0.1089,
      "velocity": 114,
      "chip": "ym2612"
    },
    {
      "channel": 1,
      "note": 59,
      "start": 218.3429,
      "duration": 0.2178,
      "velocity": 93,
      "chip": "ym2612"
    },
    {
      "channel": 3,
      "note": 81,
      "start": 218.3431,
      "duration": 0.1089,
      "velocity": 94,
      "chip": "ym2612"
    },
    {
      "channel": 5,
      "note": 69,
      "start": 218.3433,
      "duration": 0.1089,
      "velocity": 94,
      "chip": "ym2612"
    },
    {
      "channel": 0,
      "note": 54,
      "start": 218.4517,
      "duration": 0.0309,
      "velocity": 114,
      "chip": "ym2612"
    },
    {
      "channel": 3,
      "note": 71,
      "start": 218.452,
      "duration": 0.109,
      "velocity": 94,
      "chip": "ym2612"
    },
    {
      "channel": 5,
      "note": 81,
      "start": 218.4522,
      "duration": 0.109,
      "velocity": 94,
      "chip": "ym2612"
    },
    {
      "channel": 0,
      "note": 98,
      "start": 218.5606,
      "duration": 0.0309,
      "velocity": 114,
      "chip": "ym2612"
    },
    {
      "channel": 1,
      "note": 59,
      "start": 218.5607,
      "duration": 0.2179,
      "velocity": 93,
      "chip": "ym2612"
    },
    {
      "channel": 3,
      "note": 74,
      "start": 218.5609,
      "duration": 0.1089,
      "velocity": 94,
      "chip": "ym2612"
    },
    {
      "channel": 5,
      "note": 71,
      "start": 218.5612,
      "duration": 0.1089,
      "velocity": 94,
      "chip": "ym2612"
    },
    {
      "channel": 0,
      "note": 98,
      "start": 218.6696,
      "duration": 0.0309,
      "velocity": 114,
      "chip": "ym2612"
    },
    {
      "channel": 5,
      "note": 74,
      "start": 218.67,
      "duration": 0.109,
      "velocity": 94,
      "chip": "ym2612"
    },
    {
      "channel": 0,
      "note": 98,
      "start": 218.7785,
      "duration": 0.0154,
      "velocity": 127,
      "chip": "ym2612"
    },
    {
      "channel": 1,
      "note": 59,
      "start": 218.7786,
      "duration": 0.2178,
      "velocity": 93,
      "chip": "ym2612"
    },
    {
      "channel": 3,
      "note": 76,
      "start": 218.7788,
      "duration": 0.1089,
      "velocity": 94,
      "chip": "ym2612"
    },
    {
      "channel": 0,
      "note": 76,
      "start": 218.7939,
      "duration": 0.0936,
      "velocity": 114,
      "chip": "ym2612"
    },
    {
      "channel": 0,
      "note": 68,
      "start": 218.8874,
      "duration": 0.0309,
      "velocity": 114,
      "chip": "ym2612"
    },
    {
      "channel": 5,
      "note": 76,
      "start": 218.8879,
      "duration": 0.1091,
      "velocity": 94,
      "chip": "ym2612"
    },
    {
      "channel": 0,
      "note": 98,
      "start": 218.9964,
      "duration": 0.0309,
      "velocity": 114,
      "chip": "ym2612"
    },
    {
      "channel": 1,
      "note": 59,
      "start": 218.9965,
      "duration": 0.2179,
      "velocity": 93,
      "chip": "ym2612"
    },
    {
      "channel": 3,
      "note": 78,
      "start": 218.9968,
      "duration": 0.1088,
      "velocity": 94,
      "chip": "ym2612"
    },
    {
      "channel": 5,
      "note": 78,
      "start": 218.9971,
      "duration": 0.1088,
      "velocity": 94,
      "chip": "ym2612"
    },
    {
      "channel": 0,
      "note": 98,
      "start": 219.1053,
      "duration": 0.0309,
      "velocity": 114,
      "chip": "ym2612"
    },
    {
      "channel": 3,
      "note": 81,
      "start": 219.1056,
      "duration": 0.109,
      "velocity": 94,
      "chip": "ym2612"
    },
    {
      "channel": 5,
      "note": 81,
      "start": 219.1058,
      "duration": 0.109,
      "velocity": 94,
      "chip": "ym2612"
    },
    {
      "channel": 0,
      "note": 98,
      "start": 219.2143,
      "duration": 0.1089,
      "velocity": 114,
      "chip": "ym2612"
    },
    {
      "channel": 1,
      "note": 59,
      "start": 219.2144,
      "duration": 0.2178,
      "velocity": 93,
      "chip": "ym2612"
    },
    {
      "channel": 3,
      "note": 69,
      "start": 219.2146,
      "duration": 0.1089,
      "velocity": 94,
      "chip": "ym2612"
    },
    {
      "channel": 5,
      "note": 69,
      "start": 219.2149,
      "duration": 0.109,
      "velocity": 94,
      "chip": "ym2612"
    },
    {
      "channel": 0,
      "note": 54,
      "start": 219.3232,
      "duration": 0.0309,
      "velocity": 114,
      "chip": "ym2612"
    },
    {
      "channel": 3,
      "note": 74,
      "start": 219.3235,
      "duration": 0.109,
      "velocity": 94,
      "chip": "ym2612"
    },
    {
      "channel": 5,
      "note": 74,
      "start": 219.3239,
      "duration": 0.1088,
      "velocity": 94,
      "chip": "ym2612"
    },
    {
      "channel": 0,
      "note": 98,
      "start": 219.4322,
      "duration": 0.0309,
      "velocity": 114,
      "chip": "ym2612"
    },
    {
      "channel": 1,
      "note": 59,
      "start": 219.4323,
      "duration": 0.2179,
      "velocity": 93,
      "chip": "ym2612"
    },
    {
      "channel": 0,
      "note": 98,
      "start": 219.5411,
      "duration": 0.0309,
      "velocity": 114,
      "chip": "ym2612"
    },
    {
      "channel": 3,
      "note": 76,
      "start": 219.5414,
      "duration": 0.109,
      "velocity": 94,
      "chip": "ym2612"
    },
    {
      "channel": 5,
      "note": 76,
      "start": 219.5416,
      "duration": 0.109,
      "velocity": 94,
      "chip": "ym2612"
    },
    {
      "channel": 0,
      "note": 98,
      "start": 219.65,
      "duration": 0.0154,
      "velocity": 127,
      "chip": "ym2612"
    },
    {
      "channel": 1,
      "note": 59,
      "start": 219.6502,
      "duration": 0.2178,
      "velocity": 93,
      "chip": "ym2612"
    },
    {
      "channel": 3,
      "note": 81,
      "start": 219.6504,
      "duration": 0.1089,
      "velocity": 94,
      "chip": "ym2612"
    },
    {
      "channel": 5,
      "note": 81,
      "start": 219.6506,
      "duration": 0.1089,
      "velocity": 94,
      "chip": "ym2612"
    },
    {
      "channel": 0,
      "note": 76,
      "start": 219.6654,
      "duration": 0.0936,
      "velocity": 114,
      "chip": "ym2612"
    },
    {
      "channel": 0,
      "note": 68,
      "start": 219.759,
      "duration": 0.0309,
      "velocity": 114,
      "chip": "ym2612"
    },
    {
      "channel": 3,
      "note": 69,
      "start": 219.7593,
      "duration": 0.109,
      "velocity": 94,
      "chip": "ym2612"
    },
    {
      "channel": 5,
      "note": 69,
      "start": 219.7595,
      "duration": 0.109,
      "velocity": 94,
      "chip": "ym2612"
    },
    {
      "channel": 0,
      "note": 98,
      "start": 219.8679,
      "duration": 0.0309,
      "velocity": 114,
      "chip": "ym2612"
    },
    {
      "channel": 1,
      "note": 59,
      "start": 219.868,
      "duration": 0.2179,
      "velocity": 93,
      "chip": "ym2612"
    },
    {
      "channel": 3,
      "note": 81,
      "start": 219.8682,
      "duration": 0.1089,
      "velocity": 94,
      "chip": "ym2612"
    },
    {
      "channel": 5,
      "note": 81,
      "start": 219.8685,
      "duration": 0.1089,
      "velocity": 94,
      "chip": "ym2612"
    },
    {
      "channel": 0,
      "note": 98,
      "start": 219.9769,
      "duration": 0.0309,
      "velocity": 114,
      "chip": "ym2612"
    },
    {
      "channel": 3,
      "note": 71,
      "start": 219.9771,
      "duration": 0.109,
      "velocity": 94,
      "chip": "ym2612"
    },
    {
      "channel": 5,
      "note": 71,
      "start": 219.9774,
      "duration": 0.109,
      "velocity": 94,
      "chip": "ym2612"
    },
    {
      "channel": 0,
      "note": 98,
      "start": 220.0858,
      "duration": 0.1089,
      "velocity": 127,
      "chip": "ym2612"
    },
    {
      "channel": 1,
      "note": 59,
      "start": 220.086,
      "duration": 0.2178,
      "velocity": 93,
      "chip": "ym2612"
    },
    {
      "channel": 3,
      "note": 74,
      "start": 220.0861,
      "duration": 0.1089,
      "velocity": 94,
      "chip": "ym2612"
    },
    {
      "channel": 5,
      "note": 74,
      "start": 220.0864,
      "duration": 0.1088,
      "velocity": 94,
      "chip": "ym2612"
    },
    {
      "channel": 0,
      "note": 54,
      "start": 220.1947,
      "duration": 0.0154,
      "velocity": 127,
      "chip": "ym2612"
    },
    {
      "channel": 0,
      "note": 76,
      "start": 220.2101,
      "duration": 0.0936,
      "velocity": 114,
      "chip": "ym2612"
    },
    {
      "channel": 0,
      "note": 68,
      "start": 220.3037,
      "duration": 0.0309,
      "velocity": 114,
      "chip": "ym2612"
    },
    {
      "channel": 1,
      "note": 59,
      "start": 220.3038,
      "duration": 0.2179,
      "velocity": 93,
      "chip": "ym2612"
    },
    {
      "channel": 3,
      "note": 76,
      "start": 220.304,
      "duration": 0.1089,
      "velocity": 94,
      "chip": "ym2612"
    },
    {
      "channel": 5,
      "note": 76,
      "start": 220.3042,
      "duration": 0.1089,
      "velocity": 94,
      "chip": "ym2612"
    },
    {
      "channel": 0,
      "note": 98,
      "start": 220.4126,
      "duration": 0.0309,
      "velocity": 114,
      "chip": "ym2612"
    },
    {
      "channel": 5,
      "note": 78,
      "start": 220.4132,
      "duration": 0.1091,
      "velocity": 94,
      "chip": "ym2612"
    },
    {
      "channel": 0,
      "note": 98,
      "start": 220.5216,
      "duration": 0.1089,
      "velocity": 114,
      "chip": "ym2612"
    },
    {
      "channel": 1,
      "note": 59,
      "start": 220.5217,
      "duration": 0.2178,
      "velocity": 93,
      "chip": "ym2612"
    },
    {
      "channel": 2,
      "note": 47,
      "start": 220.5219,
      "duration": 3.0504,
      "velocity": 121,
      "chip": "ym2612"
    },
    {
      "channel": 3,
      "note": 78,
      "start": 220.522,
      "duration": 0.1087,
      "velocity": 94,
      "chip": "ym2612"
    },
    {
      "channel": 5,
      "note": 81,
      "start": 220.5223,
      "duration": 0.1087,
      "velocity": 94,
      "chip": "ym2612"
    },
    {
      "channel": 0,
      "note": 54,
      "start": 220.6305,
      "duration": 0.0309,
      "velocity": 114,
      "chip": "ym2612"
    },
    {
      "channel": 3,
      "note": 81,
      "start": 220.6308,
      "duration": 0.109,
      "velocity": 94,
      "chip": "ym2612"
    },
    {
      "channel": 5,
      "note": 69,
      "start": 220.631,
      "duration": 0.109,
      "velocity": 94,
      "chip": "ym2612"
    },
    {
      "channel": 4,
      "note": 47,
      "start": 220.7084,
      "duration": 3.0504,
      "velocity": 121,
      "chip": "ym2612"
    },
    {
      "channel": 0,
      "note": 98,
      "start": 220.7395,
      "duration": 0.0309,
      "velocity": 114,
      "chip": "ym2612"
    },
    {
      "channel": 1,
      "note": 64,
      "start": 220.7396,
      "duration": 0.218,
      "velocity": 93,
      "chip": "ym2612"
    },
    {
      "channel": 3,
      "note": 69,
      "start": 220.7398,
      "duration": 0.1089,
      "velocity": 94,
      "chip": "ym2612"
    },
    {
      "channel": 5,
      "note": 74,
      "start": 220.74,
      "duration": 0.1089,
      "velocity": 94,
      "chip": "ym2612"
    },
    {
      "channel": 0,
      "note": 98,
      "start": 220.8484,
      "duration": 0.0309,
      "velocity": 114,
      "chip": "ym2612"
    },
    {
      "channel": 3,
      "note": 74,
      "start": 220.8487,
      "duration": 0.109,
      "velocity": 94,
      "chip": "ym2612"
    },
    {
      "channel": 0,
      "note": 98,
      "start": 220.9574,
      "duration": 0.0153,
      "velocity": 127,
      "chip": "ym2612"
    },
    {
      "channel": 1,
      "note": 64,
      "start": 220.9576,
      "duration": 0.2178,
      "velocity": 93,
      "chip": "ym2612"
    },
    {
      "channel": 5,
      "note": 76,
      "start": 220.9579,
      "duration": 0.1088,
      "velocity": 94,
      "chip": "ym2612"
    },
    {
      "channel": 0,
      "note": 76,
      "start": 220.9727,
      "duration": 0.0936,
      "velocity": 114,
      "chip": "ym2612"
    },
    {
      "channel": 0,
      "note": 68,
      "start": 221.0663,
      "duration": 0.0309,
      "velocity": 114,
      "chip": "ym2612"
    },
    {
      "channel": 3,
      "note": 76,
      "start": 221.0666,
      "duration": 0.109,
      "velocity": 94,
      "chip": "ym2612"
    },
    {
      "channel": 5,
      "note": 81,
      "start": 221.0668,
      "duration": 0.109,
      "velocity": 94,
      "chip": "ym2612"
    },
    {
      "channel": 0,
      "note": 98,
      "start": 221.1752,
      "duration": 0.0309,
      "velocity": 114,
      "chip": "ym2612"
    },
    {
      "channel": 1,
      "note": 64,
      "start": 221.1753,
      "duration": 0.2179,
      "velocity": 93,
      "chip": "ym2612"
    },
    {
      "channel": 3,
      "note": 81,
      "start": 221.1755,
      "duration": 0.1089,
      "velocity": 94,
      "chip": "ym2612"
    },
    {
      "channel": 5,
      "note": 69,
      "start": 221.1758,
      "duration": 0.1089,
      "velocity": 94,
      "chip": "ym2612"
    },
    {
      "channel": 0,
      "note": 98,
      "start": 221.2842,
      "duration": 0.0309,
      "velocity": 114,
      "chip": "ym2612"
    },
    {
      "channel": 3,
      "note": 69,
      "start": 221.2844,
      "duration": 0.109,
      "velocity": 94,
      "chip": "ym2612"
    },
    {
      "channel": 5,
      "note": 81,
      "start": 221.2847,
      "duration": 0.109,
      "velocity": 94,
      "chip": "ym2612"
    },
    {
      "channel": 0,
      "note": 98,
      "start": 221.3931,
      "duration": 0.1089,
      "velocity": 114,
      "chip": "ym2612"
    },
    {
      "channel": 1,
      "note": 64,
      "start": 221.3933,
      "duration": 0.2178,
      "velocity": 93,
      "chip": "ym2612"
    },
    {
      "channel": 3,
      "note": 81,
      "start": 221.3934,
      "duration": 0.1089,
      "velocity": 94,
      "chip": "ym2612"
    },
    {
      "channel": 5,
      "note": 71,
      "start": 221.3937,
      "duration": 0.1089,
      "velocity": 94,
      "chip": "ym2612"
    },
    {
      "channel": 0,
      "note": 54,
      "start": 221.502,
      "duration": 0.0309,
      "velocity": 114,
      "chip": "ym2612"
    },
    {
      "channel": 3,
      "note": 71,
      "start": 221.5023,
      "duration": 0.109,
      "velocity": 94,
      "chip": "ym2612"
    },
    {
      "channel": 5,
      "note": 74,
      "start": 221.5026,
      "duration": 0.109,
      "velocity": 94,
      "chip": "ym2612"
    },
    {
      "channel": 0,
      "note": 98,
      "start": 221.611,
      "duration": 0.0309,
      "velocity": 114,
      "chip": "ym2612"
    },
    {
      "channel": 1,
      "note": 64,
      "start": 221.6111,
      "duration": 0.2179,
      "velocity": 93,
      "chip": "ym2612"
    },
    {
      "channel": 3,
      "note": 74,
      "start": 221.6113,
      "duration": 0.1089,
      "velocity": 94,
      "chip": "ym2612"
    },
    {
      "channel": 0,
      "note": 98,
      "start": 221.7199,
      "duration": 0.0309,
      "velocity": 114,
      "chip": "ym2612"
    },
    {
      "channel": 5,
      "note": 76,
      "start": 221.7204,
      "duration": 0.1091,
      "velocity": 94,
      "chip": "ym2612"
    },
    {
      "channel": 0,
      "note": 98,
      "start": 221.8289,
      "duration": 0.0154,
      "velocity": 127,
      "chip": "ym2612"
    },
    {
      "channel": 1,
      "note": 64,
      "start": 221.829,
      "duration": 0.2178,
      "velocity": 93,
      "chip": "ym2612"
    },
    {
      "channel": 3,
      "note": 76,
      "start": 221.8292,
      "duration": 0.1089,
      "velocity": 94,
      "chip": "ym2612"
    },
    {
      "channel": 5,
      "note": 78,
      "start": 221.8295,
      "duration": 0.1088,
      "velocity": 94,
      "chip": "ym2612"
    },
    {
      "channel": 0,
      "note": 76,
      "start": 221.8442,
      "duration": 0.0936,
      "velocity": 114,
      "chip": "ym2612"
    },
    {
      "channel": 0,
      "note": 68,
      "start": 221.9378,
      "duration": 0.0309,
      "velocity": 114,
      "chip": "ym2612"
    },
    {
      "channel": 5,
      "note": 81,
      "start": 221.9383,
      "duration": 0.1091,
      "velocity": 94,
      "chip": "ym2612"
    },
    {
      "channel": 0,
      "note": 98,
      "start": 222.0468,
      "duration": 0.0309,
      "velocity": 114,
      "chip": "ym2612"
    },
    {
      "channel": 1,
      "note": 64,
      "start": 222.0469,
      "duration": 0.2179,
      "velocity": 93,
      "chip": "ym2612"
    },
    {
      "channel": 3,
      "note": 78,
      "start": 222.0471,
      "duration": 0.1088,
      "velocity": 94,
      "chip": "ym2612"
    },
    {
      "channel": 5,
      "note": 69,
      "start": 222.0474,
      "duration": 0.1088,
      "velocity": 94,
      "chip": "ym2612"
    },
    {
      "channel": 0,
      "note": 98,
      "start": 222.1557,
      "duration": 0.0309,
      "velocity": 114,
      "chip": "ym2612"
    },
    {
      "channel": 3,
      "note": 81,
      "start": 222.156,
      "duration": 0.109,
      "velocity": 94,
      "chip": "ym2612"
    },
    {
      "channel": 5,
      "note": 74,
      "start": 222.1562,
      "duration": 0.109,
      "velocity": 94,
      "chip": "ym2612"
    },
    {
      "channel": 0,
      "note": 98,
      "start": 222.2646,
      "duration": 0.1089,
      "velocity": 114,
      "chip": "ym2612"
    },
    {
      "channel": 1,
      "note": 64,
      "start": 222.2648,
      "duration": 0.2178,
      "velocity": 93,
      "chip": "ym2612"
    },
    {
      "channel": 3,
      "note": 69,
      "start": 222.265,
      "duration": 0.109,
      "velocity": 94,
      "chip": "ym2612"
    },
    {
      "channel": 0,
      "note": 54,
      "start": 222.3737,
      "duration": 0.0307,
      "velocity": 114,
      "chip": "ym2612"
    },
    {
      "channel": 3,
      "note": 74,
      "start": 222.374,
      "duration": 0.1088,
      "velocity": 94,
      "chip": "ym2612"
    },
    {
      "channel": 5,
      "note": 76,
      "start": 222.3743,
      "duration": 0.1088,
      "velocity": 94,
      "chip": "ym2612"
    },
    {
      "channel": 0,
      "note": 98,
      "start": 222.4825,
      "duration": 0.0309,
      "velocity": 114,
      "chip": "ym2612"
    },
    {
      "channel": 1,
      "note": 64,
      "start": 222.4826,
      "duration": 0.2179,
      "velocity": 93,
      "chip": "ym2612"
    },
    {
      "channel": 5,
      "note": 81,
      "start": 222.483,
      "duration": 0.1089,
      "velocity": 94,
      "chip": "ym2612"
    },
    {
      "channel": 0,
      "note": 98,
      "start": 222.5915,
      "duration": 0.0309,
      "velocity": 114,
      "chip": "ym2612"
    },
    {
      "channel": 3,
      "note": 76,
      "start": 222.5917,
      "duration": 0.109,
      "velocity": 94,
      "chip": "ym2612"
    },
    {
      "channel": 5,
      "note": 69,
      "start": 222.592,
      "duration": 0.109,
      "velocity": 94,
      "chip": "ym2612"
    },
    {
      "channel": 0,
      "note": 98,
      "start": 222.7004,
      "duration": 0.0154,
      "velocity": 127,
      "chip": "ym2612"
    },
    {
      "channel": 1,
      "note": 64,
      "start": 222.7005,
      "duration": 0.2178,
      "velocity": 93,
      "chip": "ym2612"
    },
    {
      "channel": 3,
      "note": 81,
      "start": 222.7007,
      "duration": 0.1089,
      "velocity": 94,
      "chip": "ym2612"
    },
    {
      "channel": 5,
      "note": 81,
      "start": 222.701,
      "duration": 0.1089,
      "velocity": 94,
      "chip": "ym2612"
    },
    {
      "channel": 0,
      "note": 76,
      "start": 222.7158,
      "duration": 0.0936,
      "velocity": 114,
      "chip": "ym2612"
    },
    {
      "channel": 0,
      "note": 68,
      "start": 222.8093,
      "duration": 0.0311,
      "velocity": 114,
      "chip": "ym2612"
    },
    {
      "channel": 3,
      "note": 69,
      "start": 222.8096,
      "duration": 0.109,
      "velocity": 94,
      "chip": "ym2612"
    },
    {
      "channel": 5,
      "note": 71,
      "start": 222.8099,
      "duration": 0.109,
      "velocity": 94,
      "chip": "ym2612"
    },
    {
      "channel": 0,
      "note": 98,
      "start": 222.9183,
      "duration": 0.0309,
      "velocity": 114,
      "chip": "ym2612"
    },
    {
      "channel": 1,
      "note": 64,
      "start": 222.9184,
      "duration": 0.2179,
      "velocity": 93,
      "chip": "ym2612"
    },
    {
      "channel": 3,
      "note": 81,
      "start": 222.9186,
      "duration": 0.1089,
      "velocity": 94,
      "chip": "ym2612"
    },
    {
      "channel": 5,
      "note": 74,
      "start": 222.9188,
      "duration": 0.1089,
      "velocity": 94,
      "chip": "ym2612"
    },
    {
      "channel": 0,
      "note": 98,
      "start": 223.0272,
      "duration": 0.0309,
      "velocity": 114,
      "chip": "ym2612"
    },
    {
      "channel": 3,
      "note": 71,
      "start": 223.0275,
      "duration": 0.109,
      "velocity": 94,
      "chip": "ym2612"
    },
    {
      "channel": 0,
      "note": 98,
      "start": 223.1362,
      "duration": 0.1089,
      "velocity": 127,
      "chip": "ym2612"
    },
    {
      "channel": 1,
      "note": 64,
      "start": 223.1363,
      "duration": 0.2178,
      "velocity": 93,
      "chip": "ym2612"
    },
    {
      "channel": 3,
      "note": 74,
      "start": 223.1365,
      "duration": 0.1088,
      "velocity": 94,
      "chip": "ym2612"
    },
    {
      "channel": 5,
      "note": 76,
      "start": 223.1368,
      "duration": 0.1089,
      "velocity": 94,
      "chip": "ym2612"
    },
    {
      "channel": 0,
      "note": 54,
      "start": 223.2451,
      "duration": 0.0154,
      "velocity": 127,
      "chip": "ym2612"
    },
    {
      "channel": 5,
      "note": 78,
      "start": 223.2457,
      "duration": 0.1089,
      "velocity": 94,
      "chip": "ym2612"
    },
    {
      "channel": 0,
      "note": 76,
      "start": 223.2605,
      "duration": 0.0936,
      "velocity": 114,
      "chip": "ym2612"
    },
    {
      "channel": 0,
      "note": 68,
      "start": 223.3541,
      "duration": 0.0309,
      "velocity": 114,
      "chip": "ym2612"
    },
    {
      "channel": 1,
      "note": 64,
      "start": 223.3542,
      "duration": 0.2179,
      "velocity": 93,
      "chip": "ym2612"
    },
    {
      "channel": 3,
      "note": 76,
      "start": 223.3544,
      "duration": 0.1089,
      "velocity": 94,
      "chip": "ym2612"
    },
    {
      "channel": 5,
      "note": 81,
      "start": 223.3546,
      "duration": 0.1088,
      "velocity": 94,
      "chip": "ym2612"
    },
    {
      "channel": 0,
      "note": 98,
      "start": 223.463,
      "duration": 0.0309,
      "velocity": 114,
      "chip": "ym2612"
    },
    {
      "channel": 5,
      "note": 69,
      "start": 223.4635,
      "duration": 0.1092,
      "velocity": 94,
      "chip": "ym2612"
    },
    {
      "channel": 0,
      "note": 98,
      "start": 223.572,
      "duration": 0.1089,
      "velocity": 114,
      "chip": "ym2612"
    },
    {
      "channel": 1,
      "note": 64,
      "start": 223.5721,
      "duration": 0.2178,
      "velocity": 93,
      "chip": "ym2612"
    },
    {
      "channel": 2,
      "note": 52,
      "start": 223.5722,
      "duration": 3.0504,
      "velocity": 121,
      "chip": "ym2612"
    },
    {
      "channel": 3,
      "note": 78,
      "start": 223.5724,
      "duration": 0.1087,
      "velocity": 94,
      "chip": "ym2612"
    },
    {
      "channel": 5,
      "note": 74,
      "start": 223.5726,
      "duration": 0.1087,
      "velocity": 94,
      "chip": "ym2612"
    },
    {
      "channel": 0,
      "note": 54,
      "start": 223.6809,
      "duration": 0.0309,
      "velocity": 114,
      "chip": "ym2612"
    },
    {
      "channel": 3,
      "note": 81,
      "start": 223.6811,
      "duration": 0.109,
      "velocity": 94,
      "chip": "ym2612"
    },
    {
      "channel": 4,
      "note": 52,
      "start": 223.7588,
      "duration": 3.0504,
      "velocity": 121,
      "chip": "ym2612"
    },
    {
      "channel": 0,
      "note": 98,
      "start": 223.7898,
      "duration": 0.0309,
      "velocity": 114,
      "chip": "ym2612"
    },
    {
      "channel": 1,
      "note": 67,
      "start": 223.7899,
      "duration": 0.2179,
      "velocity": 93,
      "chip": "ym2612"
    },
    {
      "channel": 3,
      "note": 69,
      "start": 223.7901,
      "duration": 0.1089,
      "velocity": 94,
      "chip": "ym2612"
    },
    {
      "channel": 5,
      "note": 76,
      "start": 223.7905,
      "duration": 0.1087,
      "velocity": 94,
      "chip": "ym2612"
    },
    {
      "channel": 0,
      "note": 98,
      "start": 223.8988,
      "duration": 0.0309,
      "velocity": 114,
      "chip": "ym2612"
    },
    {
      "channel": 3,
      "note": 74,
      "start": 223.899,
      "duration": 0.109,
      "velocity": 94,
      "chip": "ym2612"
    },
    {
      "channel": 5,
      "note": 81,
      "start": 223.8993,
      "duration": 0.109,
      "velocity": 94,
      "chip": "ym2612"
    },
    {
      "channel": 0,
      "note": 98,
      "start": 224.0077,
      "duration": 0.0154,
      "velocity": 127,
      "chip": "ym2612"
    },
    {
      "channel": 1,
      "note": 67,
      "start": 224.0078,
      "duration": 0.2178,
      "velocity": 93,
      "chip": "ym2612"
    },
    {
      "channel": 5,
      "note": 69,
      "start": 224.0083,
      "duration": 0.1089,
      "velocity": 94,
      "chip": "ym2612"
    },
    {
      "channel": 0,
      "note": 76,
      "start": 224.0231,
      "duration": 0.0936,
      "velocity": 114,
      "chip": "ym2612"
    },
    {
      "channel": 0,
      "note": 68,
      "start": 224.1166,
      "duration": 0.0309,
      "velocity": 114,
      "chip": "ym2612"
    },
    {
      "channel": 3,
      "note": 76,
      "start": 224.1169,
      "duration": 0.109,
      "velocity": 94,
      "chip": "ym2612"
    },
    {
      "channel": 5,
      "note": 81,
      "start": 224.1172,
      "duration": 0.109,
      "velocity": 94,
      "chip": "ym2612"
    },
    {
      "channel": 0,
      "note": 98,
      "start": 224.2256,
      "duration": 0.0309,
      "velocity": 114,
      "chip": "ym2612"
    },
    {
      "channel": 1,
      "note": 67,
      "start": 224.2257,
      "duration": 0.2179,
      "velocity": 93,
      "chip": "ym2612"
    },
    {
      "channel": 3,
      "note": 81,
      "start": 224.2259,
      "duration": 0.1089,
      "velocity": 94,
      "chip": "ym2612"
    },
    {
      "channel": 5,
      "note": 71,
      "start": 224.2261,
      "duration": 0.1089,
      "velocity": 94,
      "chip": "ym2612"
    },
    {
      "channel": 0,
      "note": 98,
      "start": 224.3345,
      "duration": 0.0309,
      "velocity": 114,
      "chip": "ym2612"
    },
    {
      "channel": 3,
      "note": 69,
      "start": 224.3348,
      "duration": 0.109,
      "velocity": 94,
      "chip": "ym2612"
    },
    {
      "channel": 5,
      "note": 74,
      "start": 224.335,
      "duration": 0.109,
      "velocity": 94,
      "chip": "ym2612"
    },
    {
      "channel": 0,
      "note": 98,
      "start": 224.4435,
      "duration": 0.1089,
      "velocity": 114,
      "chip": "ym2612"
    },
    {
      "channel": 1,
      "note": 67,
      "start": 224.4436,
      "duration": 0.2178,
      "velocity": 93,
      "chip": "ym2612"
    },
    {
      "channel": 3,
      "note": 81,
      "start": 224.4438,
      "duration": 0.1089,
      "velocity": 94,
      "chip": "ym2612"
    },
    {
      "channel": 0,
      "note": 54,
      "start": 224.5524,
      "duration": 0.0309,
      "velocity": 114,
      "chip": "ym2612"
    },
    {
      "channel": 3,
      "note": 71,
      "start": 224.5527,
      "duration": 0.109,
      "velocity": 94,
      "chip": "ym2612"
    },
    {
      "channel": 5,
      "note": 76,
      "start": 224.5529,
      "duration": 0.109,
      "velocity": 94,
      "chip": "ym2612"
    },
    {
      "channel": 0,
      "note": 98,
      "start": 224.6614,
      "duration": 0.0309,
      "velocity": 114,
      "chip": "ym2612"
    },
    {
      "channel": 1,
      "note": 67,
      "start": 224.6615,
      "duration": 0.2179,
      "velocity": 93,
      "chip": "ym2612"
    },
    {
      "channel": 3,
      "note": 74,
      "start": 224.6617,
      "duration": 0.1089,
      "velocity": 94,
      "chip": "ym2612"
    },
    {
      "channel": 5,
      "note": 78,
      "start": 224.662,
      "duration": 0.1088,
      "velocity": 94,
      "chip": "ym2612"
    },
    {
      "channel": 0,
      "note": 98,
      "start": 224.7703,
      "duration": 0.0309,
      "velocity": 114,
      "chip": "ym2612"
    },
    {
      "channel": 5,
      "note": 81,
      "start": 224.7708,
      "duration": 0.109,
      "velocity": 94,
      "chip": "ym2612"
    },
    {
      "channel": 0,
      "note": 98,
      "start": 224.8792,
      "duration": 0.0154,
      "velocity": 127,
      "chip": "ym2612"
    },
    {
      "channel": 1,
      "note": 67,
      "start": 224.8794,
      "duration": 0.2179,
      "velocity": 93,
      "chip": "ym2612"
    },
    {
      "channel": 3,
      "note": 76,
      "start": 224.8796,
      "duration": 0.1089,
      "velocity": 94,
      "chip": "ym2612"
    },
    {
      "channel": 5,
      "note": 69,
      "start": 224.8798,
      "duration": 0.1089,
      "velocity": 94,
      "chip": "ym2612"
    },
    {
      "channel": 0,
      "note": 76,
      "start": 224.8946,
      "duration": 0.0936,
      "velocity": 114,
      "chip": "ym2612"
    },
    {
      "channel": 0,
      "note": 68,
      "start": 224.9882,
      "duration": 0.0309,
      "velocity": 114,
      "chip": "ym2612"
    },
    {
      "channel": 5,
      "note": 74,
      "start": 224.9887,
      "duration": 0.109,
      "velocity": 94,
      "chip": "ym2612"
    },
    {
      "channel": 0,
      "note": 98,
      "start": 225.0971,
      "duration": 0.0309,
      "velocity": 114,
      "chip": "ym2612"
    },
    {
      "channel": 1,
      "note": 67,
      "start": 225.0972,
      "duration": 0.2179,
      "velocity": 93,
      "chip": "ym2612"
    },
    {
      "channel": 3,
      "note": 78,
      "start": 225.0975,
      "duration": 0.1088,
      "velocity": 94,
      "chip": "ym2612"
    },
    {
      "channel": 0,
      "note": 98,
      "start": 225.2061,
      "duration": 0.0309,
      "velocity": 114,
      "chip": "ym2612"
    },
    {
      "channel": 3,
      "note": 81,
      "start": 225.2063,
      "duration": 0.109,
      "velocity": 94,
      "chip": "ym2612"
    },
    {
      "channel": 5,
      "note": 76,
      "start": 225.2066,
      "duration": 0.109,
      "velocity": 94,
      "chip": "ym2612"
    },
    {
      "channel": 0,
      "note": 98,
      "start": 225.315,
      "duration": 0.109,
      "velocity": 114,
      "chip": "ym2612"
    },
    {
      "channel": 1,
      "note": 67,
      "start": 225.3152,
      "duration": 0.2178,
      "velocity": 93,
      "chip": "ym2612"
    },
    {
      "channel": 3,
      "note": 69,
      "start": 225.3154,
      "duration": 0.109,
      "velocity": 94,
      "chip": "ym2612"
    },
    {
      "channel": 5,
      "note": 81,
      "start": 225.3156,
      "duration": 0.109,
      "velocity": 94,
      "chip": "ym2612"
    },
    {
      "channel": 0,
      "note": 54,
      "start": 225.4241,
      "duration": 0.0308,
      "velocity": 114,
      "chip": "ym2612"
    },
    {
      "channel": 3,
      "note": 74,
      "start": 225.4244,
      "duration": 0.1088,
      "velocity": 94,
      "chip": "ym2612"
    },
    {
      "channel": 5,
      "note": 69,
      "start": 225.4246,
      "duration": 0.1088,
      "velocity": 94,
      "chip": "ym2612"
    },
    {
      "channel": 0,
      "note": 98,
      "start": 225.5329,
      "duration": 0.0309,
      "velocity": 114,
      "chip": "ym2612"
    },
    {
      "channel": 1,
      "note": 67,
      "start": 225.533,
      "duration": 0.2179,
      "velocity": 93,
      "chip": "ym2612"
    },
    {
      "channel": 5,
      "note": 81,
      "start": 225.5334,
      "duration": 0.1089,
      "velocity": 94,
      "chip": "ym2612"
    },
    {
      "channel": 0,
      "note": 98,
      "start": 225.6418,
      "duration": 0.0309,
      "velocity": 114,
      "chip": "ym2612"
    },
    {
      "channel": 3,
      "note": 76,
      "start": 225.6421,
      "duration": 0.109,
      "velocity": 94,
      "chip": "ym2612"
    },
    {
      "channel": 5,
      "note": 71,
      "start": 225.6423,
      "duration": 0.109,
      "velocity": 94,
      "chip": "ym2612"
    },
    {
      "channel": 0,
      "note": 98,
      "start": 225.7508,
      "duration": 0.0154,
      "velocity": 127,
      "chip": "ym2612"
    },
    {
      "channel": 1,
      "note": 67,
      "start": 225.7509,
      "duration": 0.2178,
      "velocity": 93,
      "chip": "ym2612"
    },
    {
      "channel": 3,
      "note": 81,
      "start": 225.7511,
      "duration": 0.1089,
      "velocity": 94,
      "chip": "ym2612"
    },
    {
      "channel": 5,
      "note": 74,
      "start": 225.7513,
      "duration": 0.1089,
      "velocity": 94,
      "chip": "ym2612"
    },
    {
      "channel": 0,
      "note": 76,
      "start": 225.7661,
      "duration": 0.0936,
      "velocity": 114,
      "chip": "ym2612"
    },
    {
      "channel": 0,
      "note": 68,
      "start": 225.8597,
      "duration": 0.0309,
      "velocity": 114,
      "chip": "ym2612"
    },
    {
      "channel": 3,
      "note": 69,
      "start": 225.86,
      "duration": 0.109,
      "velocity": 94,
      "chip": "ym2612"
    },
    {
      "channel": 0,
      "note": 98,
      "start": 225.9687,
      "duration": 0.0309,
      "velocity": 114,
      "chip": "ym2612"
    },
    {
      "channel": 1,
      "note": 67,
      "start": 225.9688,
      "duration": 0.2179,
      "velocity": 93,
      "chip": "ym2612"
    },
    {
      "channel": 3,
      "note": 81,
      "start": 225.969,
      "duration": 0.1089,
      "velocity": 94,
      "chip": "ym2612"
    },
    {
      "channel": 5,
      "note": 76,
      "start": 225.9692,
      "duration": 0.1089,
      "velocity": 94,
      "chip": "ym2612"
    },
    {
      "channel": 0,
      "note": 98,
      "start": 226.0776,
      "duration": 0.0309,
      "velocity": 114,
      "chip": "ym2612"
    },
    {
      "channel": 3,
      "note": 71,
      "start": 226.0779,
      "duration": 0.109,
      "velocity": 94,
      "chip": "ym2612"
    },
    {
      "channel": 5,
      "note": 78,
      "start": 226.0781,
      "duration": 0.109,
      "velocity": 94,
      "chip": "ym2612"
    },
    {
      "channel": 0,
      "note": 98,
      "start": 226.1866,
      "duration": 0.1089,
      "velocity": 127,
      "chip": "ym2612"
    },
    {
      "channel": 1,
      "note": 67,
      "start": 226.1867,
      "duration": 0.2178,
      "velocity": 93,
      "chip": "ym2612"
    },
    {
      "channel": 3,
      "note": 74,
      "start": 226.1869,
      "duration": 0.1088,
      "velocity": 94,
      "chip": "ym2612"
    },
    {
      "channel": 5,
      "note": 81,
      "start": 226.1871,
      "duration": 0.1088,
      "velocity": 94,
      "chip": "ym2612"
    },
    {
      "channel": 0,
      "note": 54,
      "start": 226.2955,
      "duration": 0.0154,
      "velocity": 127,
      "chip": "ym2612"
    },
    {
      "channel": 5,
      "note": 69,
      "start": 226.296,
      "duration": 0.109,
      "velocity": 94,
      "chip": "ym2612"
    },
    {
      "channel": 0,
      "note": 76,
      "start": 226.3108,
      "duration": 0.0936,
      "velocity": 114,
      "chip": "ym2612"
    },
    {
      "channel": 0,
      "note": 68,
      "start": 226.4044,
      "duration": 0.0309,
      "velocity": 114,
      "chip": "ym2612"
    },
    {
      "channel": 1,
      "note": 67,
      "start": 226.4046,
      "duration": 0.2179,
      "velocity": 93,
      "chip": "ym2612"
    },
    {
      "channel": 3,
      "note": 76,
      "start": 226.4047,
      "duration": 0.1089,
      "velocity": 94,
      "chip": "ym2612"
    },
    {
      "channel": 5,
      "note": 74,
      "start": 226.405,
      "duration": 0.1088,
      "velocity": 94,
      "chip": "ym2612"
    },
    {
      "channel": 0,
      "note": 98,
      "start": 226.5134,
      "duration": 0.0309,
      "velocity": 114,
      "chip": "ym2612"
    },
    {
      "channel": 0,
      "note": 98,
      "start": 226.6223,
      "duration": 0.1089,
      "velocity": 114,
      "chip": "ym2612"
    },
    {
      "channel": 1,
      "note": 67,
      "start": 226.6225,
      "duration": 0.218,
      "velocity": 93,
      "chip": "ym2612"
    },
    {
      "channel": 2,
      "note": 43,
      "start": 226.6226,
      "duration": 3.0503,
      "velocity": 121,
      "chip": "ym2612"
    },
    {
      "channel": 3,
      "note": 78,
      "start": 226.6228,
      "duration": 0.1087,
      "velocity": 94,
      "chip": "ym2612"
    },
    {
      "channel": 5,
      "note": 76,
      "start": 226.623,
      "duration": 0.1087,
      "velocity": 94,
      "chip": "ym2612"
    },
    {
      "channel": 0,
      "note": 54,
      "start": 226.7312,
      "duration": 0.0309,
      "velocity": 114,
      "chip": "ym2612"
    },
    {
      "channel": 3,
      "note": 81,
      "start": 226.7315,
      "duration": 0.1091,
      "velocity": 94,
      "chip": "ym2612"
    },
    {
      "channel": 5,
      "note": 81,
      "start": 226.7317,
      "duration": 0.1091,
      "velocity": 94,
      "chip": "ym2612"
    },
    {
      "channel": 4,
      "note": 43,
      "start": 226.8092,
      "duration": 3.0503,
      "velocity": 121,
      "chip": "ym2612"
    },
    {
      "channel": 0,
      "note": 98,
      "start": 226.8402,
      "duration": 0.0309,
      "velocity": 114,
      "chip": "ym2612"
    },
    {
      "channel": 1,
      "note": 62,
      "start": 226.8405,
      "duration": 0.2177,
      "velocity": 93,
      "chip": "ym2612"
    },
    {
      "channel": 3,
      "note": 69,
      "start": 226.8407,
      "duration": 0.1087,
      "velocity": 94,
      "chip": "ym2612"
    },
    {
      "channel": 5,
      "note": 69,
      "start": 226.8409,
      "duration": 0.1087,
      "velocity": 94,
      "chip": "ym2612"
    },
    {
      "channel": 0,
      "note": 98,
      "start": 226.9491,
      "duration": 0.0309,
      "velocity": 114,
      "chip": "ym2612"
    },
    {
      "channel": 3,
      "note": 74,
      "start": 226.9494,
      "duration": 0.109,
      "velocity": 94,
      "chip": "ym2612"
    },
    {
      "channel": 5,
      "note": 81,
      "start": 226.9496,
      "duration": 0.109,
      "velocity": 94,
      "chip": "ym2612"
    },
    {
      "channel": 0,
      "note": 98,
      "start": 227.0581,
      "duration": 0.0154,
      "velocity": 127,
      "chip": "ym2612"
    },
    {
      "channel": 1,
      "note": 62,
      "start": 227.0582,
      "duration": 0.2178,
      "velocity": 93,
      "chip": "ym2612"
    },
    {
      "channel": 5,
      "note": 71,
      "start": 227.0586,
      "duration": 0.1089,
      "velocity": 94,
      "chip": "ym2612"
    },
    {
      "channel": 0,
      "note": 76,
      "start": 227.0734,
      "duration": 0.0936,
      "velocity": 114,
      "chip": "ym2612"
    },
    {
      "channel": 0,
      "note": 68,
      "start": 227.167,
      "duration": 0.0309,
      "velocity": 114,
      "chip": "ym2612"
    },
    {
      "channel": 3,
      "note": 76,
      "start": 227.1673,
      "duration": 0.109,
      "velocity": 94,
      "chip": "ym2612"
    },
    {
      "channel": 5,
      "note": 74,
      "start": 227.1675,
      "duration": 0.109,
      "velocity": 94,
      "chip": "ym2612"
    },
    {
      "channel": 0,
      "note": 98,
      "start": 227.276,
      "duration": 0.0309,
      "velocity": 114,
      "chip": "ym2612"
    },
    {
      "channel": 1,
      "note": 62,
      "start": 227.2761,
      "duration": 0.2179,
      "velocity": 93,
      "chip": "ym2612"
    },
    {
      "channel": 3,
      "note": 81,
      "start": 227.2763,
      "duration": 0.1089,
      "velocity": 94,
      "chip": "ym2612"
    },
    {
      "channel": 0,
      "note": 98,
      "start": 227.3849,
      "duration": 0.0309,
      "velocity": 114,
      "chip": "ym2612"
    },
    {
      "channel": 3,
      "note": 69,
      "start": 227.3852,
      "duration": 0.109,
      "velocity": 94,
      "chip": "ym2612"
    },
    {
      "channel": 5,
      "note": 76,
      "start": 227.3854,
      "duration": 0.1091,
      "velocity": 94,
      "chip": "ym2612"
    },
    {
      "channel": 0,
      "note": 98,
      "start": 227.4939,
      "duration": 0.1089,
      "velocity": 114,
      "chip": "ym2612"
    },
    {
      "channel": 1,
      "note": 62,
      "start": 227.494,
      "duration": 0.2178,
      "velocity": 93,
      "chip": "ym2612"
    },
    {
      "channel": 3,
      "note": 81,
      "start": 227.4942,
      "duration": 0.1089,
      "velocity": 94,
      "chip": "ym2612"
    },
    {
      "channel": 5,
      "note": 78,
      "start": 227.4945,
      "duration": 0.1088,
      "velocity": 94,
      "chip": "ym2612"
    },
    {
      "channel": 0,
      "note": 54,
      "start": 227.6028,
      "duration": 0.0309,
      "velocity": 114,
      "chip": "ym2612"
    },
    {
      "channel": 3,
      "note": 71,
      "start": 227.6031,
      "duration": 0.109,
      "velocity": 94,
      "chip": "ym2612"
    },
    {
      "channel": 5,
      "note": 81,
      "start": 227.6033,
      "duration": 0.109,
      "velocity": 94,
      "chip": "ym2612"
    },
    {
      "channel": 0,
      "note": 98,
      "start": 227.7117,
      "duration": 0.0309,
      "velocity": 114,
      "chip": "ym2612"
    },
    {
      "channel": 1,
      "note": 62,
      "start": 227.7118,
      "duration": 0.2179,
      "velocity": 93,
      "chip": "ym2612"
    },
    {
      "channel": 3,
      "note": 74,
      "start": 227.712,
      "duration": 0.1089,
      "velocity": 94,
      "chip": "ym2612"
    },
    {
      "channel": 5,
      "note": 69,
      "start": 227.7123,
      "duration": 0.1089,
      "velocity": 94,
      "chip": "ym2612"
    },
    {
      "channel": 0,
      "note": 98,
      "start": 227.8207,
      "duration": 0.0309,
      "velocity": 114,
      "chip": "ym2612"
    },
    {
      "channel": 5,
      "note": 74,
      "start": 227.8211,
      "duration": 0.109,
      "velocity": 94,
      "chip": "ym2612"
    },
    {
      "channel": 0,
      "note": 98,
      "start": 227.9296,
      "duration": 0.0154,
      "velocity": 127,
      "chip": "ym2612"
    },
    {
      "channel": 1,
      "note": 62,
      "start": 227.9298,
      "duration": 0.2178,
      "velocity": 93,
      "chip": "ym2612"
    },
    {
      "channel": 3,
      "note": 76,
      "start": 227.9299,
      "duration": 0.1089,
      "velocity": 94,
      "chip": "ym2612"
    },
    {
      "channel": 0,
      "note": 76,
      "start": 227.945,
      "duration": 0.0936,
      "velocity": 114,
      "chip": "ym2612"
    },
    {
      "channel": 0,
      "note": 68,
      "start": 228.0385,
      "duration": 0.0309,
      "velocity": 114,
      "chip": "ym2612"
    },
    {
      "channel": 5,
      "note": 76,
      "start": 228.039,
      "duration": 0.1091,
      "velocity": 94,
      "chip": "ym2612"
    },
    {
      "channel": 0,
      "note": 98,
      "start": 228.1475,
      "duration": 0.0309,
      "velocity": 114,
      "chip": "ym2612"
    },
    {
      "channel": 1,
      "note": 62,
      "start": 228.1476,
      "duration": 0.2179,
      "velocity": 93,
      "chip": "ym2612"
    },
    {
      "channel": 3,
      "note": 78,
      "start": 228.1479,
      "duration": 0.1088,
      "velocity": 94,
      "chip": "ym2612"
    },
    {
      "channel": 5,
      "note": 81,
      "start": 228.1481,
      "duration": 0.109,
      "velocity": 94,
      "chip": "ym2612"
    },
    {
      "channel": 0,
      "note": 98,
      "start": 228.2564,
      "duration": 0.0309,
      "velocity": 114,
      "chip": "ym2612"
    },
    {
      "channel": 3,
      "note": 81,
      "start": 228.2567,
      "duration": 0.109,
      "velocity": 94,
      "chip": "ym2612"
    },
    {
      "channel": 5,
      "note": 69,
      "start": 228.2571,
      "duration": 0.1088,
      "velocity": 94,
      "chip": "ym2612"
    },
    {
      "channel": 0,
      "note": 98,
      "start": 228.3654,
      "duration": 0.1089,
      "velocity": 114,
      "chip": "ym2612"
    },
    {
      "channel": 1,
      "note": 62,
      "start": 228.3655,
      "duration": 0.2178,
      "velocity": 93,
      "chip": "ym2612"
    },
    {
      "channel": 3,
      "note": 69,
      "start": 228.3657,
      "duration": 0.1089,
      "velocity": 94,
      "chip": "ym2612"
    },
    {
      "channel": 5,
      "note": 81,
      "start": 228.366,
      "duration": 0.1089,
      "velocity": 94,
      "chip": "ym2612"
    },
    {
      "channel": 0,
      "note": 54,
      "start": 228.4743,
      "duration": 0.0309,
      "velocity": 114,
      "chip": "ym2612"
    },
    {
      "channel": 3,
      "note": 74,
      "start": 228.4746,
      "duration": 0.1089,
      "velocity": 94,
      "chip": "ym2612"
    },
    {
      "channel": 5,
      "note": 71,
      "start": 228.4748,
      "duration": 0.1089,
      "velocity": 94,
      "chip": "ym2612"
    },
    {
      "channel": 0,
      "note": 98,
      "start": 228.5833,
      "duration": 0.0309,
      "velocity": 114,
      "chip": "ym2612"
    },
    {
      "channel": 1,
      "note": 62,
      "start": 228.5834,
      "duration": 0.2179,
      "velocity": 93,
      "chip": "ym2612"
    },
    {
      "channel": 5,
      "note": 74,
      "start": 228.5838,
      "duration": 0.1089,
      "velocity": 94,
      "chip": "ym2612"
    },
    {
      "channel": 0,
      "note": 98,
      "start": 228.6922,
      "duration": 0.0309,
      "velocity": 114,
      "chip": "ym2612"
    },
    {
      "channel": 3,
      "note": 76,
      "start": 228.6924,
      "duration": 0.109,
      "velocity": 94,
      "chip": "ym2612"
    },
    {
      "channel": 0,
      "note": 98,
      "start": 228.8011,
      "duration": 0.0154,
      "velocity": 127,
      "chip": "ym2612"
    },
    {
      "channel": 1,
      "note": 62,
      "start": 228.8013,
      "duration": 0.2178,
      "velocity": 93,
      "chip": "ym2612"
    },
    {
      "channel": 3,
      "note": 81,
      "start": 228.8015,
      "duration": 0.1089,
      "velocity": 94,
      "chip": "ym2612"
    },
    {
      "channel": 5,
      "note": 76,
      "start": 228.8017,
      "duration": 0.1089,
      "velocity": 94,
      "chip": "ym2612"
    },
    {
      "channel": 0,
      "note": 76,
      "start": 228.8165,
      "duration": 0.0936,
      "velocity": 114,
      "chip": "ym2612"
    },
    {
      "channel": 0,
      "note": 68,
      "start": 228.9101,
      "duration": 0.0309,
      "velocity": 114,
      "chip": "ym2612"
    },
    {
      "channel": 3,
      "note": 69,
      "start": 228.9104,
      "duration": 0.109,
      "velocity": 94,
      "chip": "ym2612"
    },
    {
      "channel": 5,
      "note": 78,
      "start": 228.9107,
      "duration": 0.1089,
      "velocity": 94,
      "chip": "ym2612"
    },
    {
      "channel": 0,
      "note": 98,
      "start": 229.019,
      "duration": 0.0309,
      "velocity": 114,
      "chip": "ym2612"
    },
    {
      "channel": 1,
      "note": 62,
      "start": 229.0191,
      "duration": 0.2179,
      "velocity": 93,
      "chip": "ym2612"
    },
    {
      "channel": 3,
      "note": 81,
      "start": 229.0193,
      "duration": 0.1089,
      "velocity": 94,
      "chip": "ym2612"
    },
    {
      "channel": 5,
      "note": 81,
      "start": 229.0196,
      "duration": 0.1089,
      "velocity": 94,
      "chip": "ym2612"
    },
    {
      "channel": 0,
      "note": 98,
      "start": 229.128,
      "duration": 0.0309,
      "velocity": 114,
      "chip": "ym2612"
    },
    {
      "channel": 3,
      "note": 71,
      "start": 229.1282,
      "duration": 0.109,
      "velocity": 94,
      "chip": "ym2612"
    },
    {
      "channel": 5,
      "note": 69,
      "start": 229.1285,
      "duration": 0.109,
      "velocity": 94,
      "chip": "ym2612"
    },
    {
      "channel": 0,
      "note": 98,
      "start": 229.2369,
      "duration": 0.1089,
      "velocity": 127,
      "chip": "ym2612"
    },
    {
      "channel": 1,
      "note": 62,
      "start": 229.2371,
      "duration": 0.2178,
      "velocity": 93,
      "chip": "ym2612"
    },
    {
      "channel": 3,
      "note": 74,
      "start": 229.2373,
      "duration": 0.1089,
      "velocity": 94,
      "chip": "ym2612"
    },
    {
      "channel": 5,
      "note": 74,
      "start": 229.2375,
      "duration": 0.1088,
      "velocity": 94,
      "chip": "ym2612"
    },
    {
      "channel": 0,
      "note": 54,
      "start": 229.3459,
      "duration": 0.0154,
      "velocity": 127,
      "chip": "ym2612"
    },
    {
      "channel": 0,
      "note": 76,
      "start": 229.3612,
      "duration": 0.0936,
      "velocity": 114,
      "chip": "ym2612"
    },
    {
      "channel": 0,
      "note": 68,
      "start": 229.4548,
      "duration": 0.0309,
      "velocity": 114,
      "chip": "ym2612"
    },
    {
      "channel": 1,
      "note": 62,
      "start": 229.4549,
      "duration": 0.2179,
      "velocity": 93,
      "chip": "ym2612"
    },
    {
      "channel": 3,
      "note": 76,
      "start": 229.4551,
      "duration": 0.1089,
      "velocity": 94,
      "chip": "ym2612"
    },
    {
      "channel": 5,
      "note": 76,
      "start": 229.4553,
      "duration": 0.1089,
      "velocity": 94,
      "chip": "ym2612"
    },
    {
      "channel": 0,
      "note": 98,
      "start": 229.5637,
      "duration": 0.0309,
      "velocity": 114,
      "chip": "ym2612"
    },
    {
      "channel": 5,
      "note": 81,
      "start": 229.5642,
      "duration": 0.1091,
      "velocity": 94,
      "chip": "ym2612"
    },
    {
      "channel": 0,
      "note": 98,
      "start": 229.6727,
      "duration": 0.1089,
      "velocity": 114,
      "chip": "ym2612"
    },
    {
      "channel": 1,
      "note": 62,
      "start": 229.6728,
      "duration": 0.218,
      "velocity": 93,
      "chip": "ym2612"
    },
    {
      "channel": 2,
      "note": 50,
      "start": 229.6729,
      "duration": 3.0504,
      "velocity": 121,
      "chip": "ym2612"
    },
    {
      "channel": 3,
      "note": 78,
      "start": 229.6731,
      "duration": 0.1087,
      "velocity": 94,
      "chip": "ym2612"
    },
    {
      "channel": 5,
      "note": 69,
      "start": 229.6734,
      "duration": 0.1087,
      "velocity": 94,
      "chip": "ym2612"
    },
    {
      "channel": 0,
      "note": 54,
      "start": 229.7816,
      "duration": 0.0309,
      "velocity": 114,
      "chip": "ym2612"
    },
    {
      "channel": 3,
      "note": 81,
      "start": 229.7819,
      "duration": 0.1091,
      "velocity": 94,
      "chip": "ym2612"
    },
    {
      "channel": 5,
      "note": 81,
      "start": 229.7821,
      "duration": 0.1091,
      "velocity": 94,
      "chip": "ym2612"
    },
    {
      "channel": 4,
      "note": 50,
      "start": 229.8595,
      "duration": 3.0503,
      "velocity": 121,
      "chip": "ym2612"
    },
    {
      "channel": 0,
      "note": 98,
      "start": 229.8907,
      "duration": 0.0307,
      "velocity": 114,
      "chip": "ym2612"
    },
    {
      "channel": 1,
      "note": 59,
      "start": 229.8908,
      "duration": 0.2177,
      "velocity": 93,
      "chip": "ym2612"
    },
    {
      "channel": 3,
      "note": 69,
      "start": 229.891,
      "duration": 0.1087,
      "velocity": 94,
      "chip": "ym2612"
    },
    {
      "channel": 5,
      "note": 71,
      "start": 229.8912,
      "duration": 0.1087,
      "velocity": 94,
      "chip": "ym2612"
    },
    {
      "channel": 0,
      "note": 98,
      "start": 229.9995,
      "duration": 0.0309,
      "velocity": 114,
      "chip": "ym2612"
    },
    {
      "channel": 3,
      "note": 74,
      "start": 229.9998,
      "duration": 0.109,
      "velocity": 94,
      "chip": "ym2612"
    },
    {
      "channel": 5,
      "note": 74,
      "start": 230.0,
      "duration": 0.109,
      "velocity": 94,
      "chip": "ym2612"
    },
    {
      "channel": 0,
      "note": 98,
      "start": 230.1084,
      "duration": 0.0154,
      "velocity": 127,
      "chip": "ym2612"
    },
    {
      "channel": 1,
      "note": 59,
      "start": 230.1086,
      "duration": 0.2178,
      "velocity": 93,
      "chip": "ym2612"
    },
    {
      "channel": 0,
      "note": 76,
      "start": 230.1239,
      "duration": 0.0935,
      "velocity": 114,
      "chip": "ym2612"
    },
    {
      "channel": 0,
      "note": 68,
      "start": 230.2174,
      "duration": 0.0309,
      "velocity": 114,
      "chip": "ym2612"
    },
    {
      "channel": 3,
      "note": 76,
      "start": 230.2176,
      "duration": 0.109,
      "velocity": 94,
      "chip": "ym2612"
    },
    {
      "channel": 5,
      "note": 76,
      "start": 230.2179,
      "duration": 0.109,
      "velocity": 94,
      "chip": "ym2612"
    },
    {
      "channel": 0,
      "note": 98,
      "start": 230.3263,
      "duration": 0.0309,
      "velocity": 114,
      "chip": "ym2612"
    },
    {
      "channel": 1,
      "note": 59,
      "start": 230.3264,
      "duration": 0.2179,
      "velocity": 93,
      "chip": "ym2612"
    },
    {
      "channel": 3,
      "note": 81,
      "start": 230.3266,
      "duration": 0.1089,
      "velocity": 94,
      "chip": "ym2612"
    },
    {
      "channel": 5,
      "note": 78,
      "start": 230.3269,
      "duration": 0.1088,
      "velocity": 94,
      "chip": "ym2612"
    },
    {
      "channel": 0,
      "note": 98,
      "start": 230.4353,
      "duration": 0.0309,
      "velocity": 114,
      "chip": "ym2612"
    },
    {
      "channel": 3,
      "note": 69,
      "start": 230.4355,
      "duration": 0.109,
      "velocity": 94,
      "chip": "ym2612"
    },
    {
      "channel": 5,
      "note": 81,
      "start": 230.4358,
      "duration": 0.109,
      "velocity": 94,
      "chip": "ym2612"
    },
    {
      "channel": 0,
      "note": 98,
      "start": 230.5442,
      "duration": 0.1089,
      "velocity": 114,
      "chip": "ym2612"
    },
    {
      "channel": 1,
      "note": 59,
      "start": 230.5444,
      "duration": 0.2178,
      "velocity": 93,
      "chip": "ym2612"
    },
    {
      "channel": 3,
      "note": 81,
      "start": 230.5446,
      "duration": 0.1089,
      "velocity": 94,
      "chip": "ym2612"
    },
    {
      "channel": 5,
      "note": 69,
      "start": 230.5448,
      "duration": 0.1089,
      "velocity": 94,
      "chip": "ym2612"
    },
    {
      "channel": 0,
      "note": 54,
      "start": 230.6532,
      "duration": 0.0309,
      "velocity": 114,
      "chip": "ym2612"
    },
    {
      "channel": 3,
      "note": 71,
      "start": 230.6534,
      "duration": 0.109,
      "velocity": 94,
      "chip": "ym2612"
    },
    {
      "channel": 5,
      "note": 74,
      "start": 230.6537,
      "duration": 0.109,
      "velocity": 94,
      "chip": "ym2612"
    },
    {
      "channel": 0,
      "note": 98,
      "start": 230.7621,
      "duration": 0.0309,
      "velocity": 114,
      "chip": "ym2612"
    },
    {
      "channel": 1,
      "note": 59,
      "start": 230.7622,
      "duration": 0.2179,
      "velocity": 93,
      "chip": "ym2612"
    },
    {
      "channel": 3,
      "note": 74,
      "start": 230.7624,
      "duration": 0.1089,
      "velocity": 94,
      "chip": "ym2612"
    },
    {
      "channel": 0,
      "note": 98,
      "start": 230.871,
      "duration": 0.0309,
      "velocity": 114,
      "chip": "ym2612"
    },
    {
      "channel": 5,
      "note": 76,
      "start": 230.8715,
      "duration": 0.109,
      "velocity": 94,
      "chip": "ym2612"
    },
    {
      "channel": 0,
      "note": 98,
      "start": 230.98,
      "duration": 0.0154,
      "velocity": 127,
      "chip": "ym2612"
    },
    {
      "channel": 1,
      "note": 59,
      "start": 230.9801,
      "duration": 0.2178,
      "velocity": 93,
      "chip": "ym2612"
    },
    {
      "channel": 3,
      "note": 76,
      "start": 230.9803,
      "duration": 0.1089,
      "velocity": 94,
      "chip": "ym2612"
    },
    {
      "channel": 5,
      "note": 81,
      "start": 230.9805,
      "duration": 0.1089,
      "velocity": 94,
      "chip": "ym2612"
    },
    {
      "channel": 0,
      "note": 76,
      "start": 230.9953,
      "duration": 0.0936,
      "velocity": 114,
      "chip": "ym2612"
    },
    {
      "channel": 0,
      "note": 68,
      "start": 231.0889,
      "duration": 0.0309,
      "velocity": 114,
      "chip": "ym2612"
    },
    {
      "channel": 5,
      "note": 69,
      "start": 231.0894,
      "duration": 0.109,
      "velocity": 94,
      "chip": "ym2612"
    },
    {
      "channel": 0,
      "note": 98,
      "start": 231.1979,
      "duration": 0.0309,
      "velocity": 114,
      "chip": "ym2612"
    },
    {
      "channel": 1,
      "note": 59,
      "start": 231.198,
      "duration": 0.2179,
      "velocity": 93,
      "chip": "ym2612"
    },
    {
      "channel": 3,
      "note": 78,
      "start": 231.1982,
      "duration": 0.109,
      "velocity": 94,
      "chip": "ym2612"
    },
    {
      "channel": 5,
      "note": 81,
      "start": 231.1985,
      "duration": 0.109,
      "velocity": 94,
      "chip": "ym2612"
    },
    {
      "channel": 0,
      "note": 98,
      "start": 231.3068,
      "duration": 0.0309,
      "velocity": 114,
      "chip": "ym2612"
    },
    {
      "channel": 3,
      "note": 81,
      "start": 231.3072,
      "duration": 0.1088,
      "velocity": 94,
      "chip": "ym2612"
    },
    {
      "channel": 5,
      "note": 71,
      "start": 231.3075,
      "duration": 0.1088,
      "velocity": 94,
      "chip": "ym2612"
    },
    {
      "channel": 0,
      "note": 98,
      "start": 231.4158,
      "duration": 0.1089,
      "velocity": 114,
      "chip": "ym2612"
    },
    {
      "channel": 1,
      "note": 59,
      "start": 231.4159,
      "duration": 0.2178,
      "velocity": 93,
      "chip": "ym2612"
    },
    {
      "channel": 3,
      "note": 69,
      "start": 231.4161,
      "duration": 0.1088,
      "velocity": 94,
      "chip": "ym2612"
    },
    {
      "channel": 5,
      "note": 74,
      "start": 231.4163,
      "duration": 0.1089,
      "velocity": 94,
      "chip": "ym2612"
    },
    {
      "channel": 0,
      "note": 54,
      "start": 231.5247,
      "duration": 0.0309,
      "velocity": 114,
      "chip": "ym2612"
    },
    {
      "channel": 3,
      "note": 74,
      "start": 231.525,
      "duration": 0.109,
      "velocity": 94,
      "chip": "ym2612"
    },
    {
      "channel": 0,
      "note": 98,
      "start": 231.6336,
      "duration": 0.0309,
      "velocity": 114,
      "chip": "ym2612"
    },
    {
      "channel": 1,
      "note": 59,
      "start": 231.6337,
      "duration": 0.2179,
      "velocity": 93,
      "chip": "ym2612"
    },
    {
      "channel": 5,
      "note": 76,
      "start": 231.6341,
      "duration": 0.109,
      "velocity": 94,
      "chip": "ym2612"
    },
    {
      "channel": 0,
      "note": 98,
      "start": 231.7426,
      "duration": 0.0309,
      "velocity": 114,
      "chip": "ym2612"
    },
    {
      "channel": 3,
      "note": 76,
      "start": 231.7428,
      "duration": 0.109,
      "velocity": 94,
      "chip": "ym2612"
    },
    {
      "channel": 5,
      "note": 78,
      "start": 231.7431,
      "duration": 0.109,
      "velocity": 94,
      "chip": "ym2612"
    },
    {
      "channel": 0,
      "note": 98,
      "start": 231.8515,
      "duration": 0.0154,
      "velocity": 127,
      "chip": "ym2612"
    },
    {
      "channel": 1,
      "note": 59,
      "start": 231.8516,
      "duration": 0.2179,
      "velocity": 93,
      "chip": "ym2612"
    },
    {
      "channel": 3,
      "note": 81,
      "start": 231.8518,
      "duration": 0.1089,
      "velocity": 94,
      "chip": "ym2612"
    },
    {
      "channel": 5,
      "note": 81,
      "start": 231.8521,
      "duration": 0.1089,
      "velocity": 94,
      "chip": "ym2612"
    },
    {
      "channel": 0,
      "note": 76,
      "start": 231.8669,
      "duration": 0.0936,
      "velocity": 114,
      "chip": "ym2612"
    },
    {
      "channel": 0,
      "note": 68,
      "start": 231.9605,
      "duration": 0.0309,
      "velocity": 114,
      "chip": "ym2612"
    },
    {
      "channel": 3,
      "note": 69,
      "start": 231.9607,
      "duration": 0.109,
      "velocity": 94,
      "chip": "ym2612"
    },
    {
      "channel": 5,
      "note": 69,
      "start": 231.961,
      "duration": 0.109,
      "velocity": 94,
      "chip": "ym2612"
    },
    {
      "channel": 0,
      "note": 98,
      "start": 232.0694,
      "duration": 0.0309,
      "velocity": 114,
      "chip": "ym2612"
    },
    {
      "channel": 1,
      "note": 59,
      "start": 232.0695,
      "duration": 0.2179,
      "velocity": 93,
      "chip": "ym2612"
    },
    {
      "channel": 3,
      "note": 81,
      "start": 232.0697,
      "duration": 0.1089,
      "velocity": 94,
      "chip": "ym2612"
    },
    {
      "channel": 5,
      "note": 74,
      "start": 232.07,
      "duration": 0.1089,
      "velocity": 94,
      "chip": "ym2612"
    },
    {
      "channel": 0,
      "note": 98,
      "start": 232.1783,
      "duration": 0.0309,
      "velocity": 114,
      "chip": "ym2612"
    },
    {
      "channel": 3,
      "note": 71,
      "start": 232.1786,
      "duration": 0.109,
      "velocity": 94,
      "chip": "ym2612"
    },
    {
      "channel": 0,
      "note": 98,
      "start": 232.2873,
      "duration": 0.1089,
      "velocity": 127,
      "chip": "ym2612"
    },
    {
      "channel": 1,
      "note": 59,
      "start": 232.2874,
      "duration": 0.2179,
      "velocity": 93,
      "chip": "ym2612"
    },
    {
      "channel": 3,
      "note": 74,
      "start": 232.2876,
      "duration": 0.1089,
      "velocity": 94,
      "chip": "ym2612"
    },
    {
      "channel": 5,
      "note": 76,
      "start": 232.2878,
      "duration": 0.1089,
      "velocity": 94,
      "chip": "ym2612"
    },
    {
      "channel": 0,
      "note": 54,
      "start": 232.3962,
      "duration": 0.0154,
      "velocity": 127,
      "chip": "ym2612"
    },
    {
      "channel": 5,
      "note": 81,
      "start": 232.3967,
      "duration": 0.109,
      "velocity": 94,
      "chip": "ym2612"
    },
    {
      "channel": 0,
      "note": 76,
      "start": 232.4116,
      "duration": 0.0936,
      "velocity": 114,
      "chip": "ym2612"
    },
    {
      "channel": 0,
      "note": 68,
      "start": 232.5051,
      "duration": 0.0309,
      "velocity": 114,
      "chip": "ym2612"
    },
    {
      "channel": 1,
      "note": 59,
      "start": 232.5053,
      "duration": 0.2179,
      "velocity": 93,
      "chip": "ym2612"
    },
    {
      "channel": 3,
      "note": 76,
      "start": 232.5055,
      "duration": 0.1089,
      "velocity": 94,
      "chip": "ym2612"
    },
    {
      "channel": 5,
      "note": 69,
      "start": 232.5057,
      "duration": 0.1089,
      "velocity": 94,
      "chip": "ym2612"
    },
    {
      "channel": 0,
      "note": 98,
      "start": 232.6141,
      "duration": 0.0309,
      "velocity": 114,
      "chip": "ym2612"
    },
    {
      "channel": 5,
      "note": 81,
      "start": 232.6146,
      "duration": 0.1093,
      "velocity": 94,
      "chip": "ym2612"
    },
    {
      "channel": 0,
      "note": 98,
      "start": 232.7231,
      "duration": 0.1089,
      "velocity": 114,
      "chip": "ym2612"
    },
    {
      "channel": 1,
      "note": 59,
      "start": 232.7232,
      "duration": 0.2178,
      "velocity": 93,
      "chip": "ym2612"
    },
    {
      "channel": 2,
      "note": 47,
      "start": 232.7233,
      "duration": 3.0505,
      "velocity": 121,
      "chip": "ym2612"
    },
    {
      "channel": 3,
      "note": 78,
      "start": 232.7235,
      "duration": 0.1088,
      "velocity": 94,
      "chip": "ym2612"
    },
    {
      "channel": 5,
      "note": 71,
      "start": 232.7239,
      "duration": 0.1086,
      "velocity": 94,
      "chip": "ym2612"
    },
    {
      "channel": 0,
      "note": 54,
      "start": 232.832,
      "duration": 0.0309,
      "velocity": 114,
      "chip": "ym2612"
    },
    {
      "channel": 3,
      "note": 81,
      "start": 232.8322,
      "duration": 0.109,
      "velocity": 94,
      "chip": "ym2612"
    },
    {
      "channel": 5,
      "note": 74,
      "start": 232.8325,
      "duration": 0.109,
      "velocity": 94,
      "chip": "ym2612"
    },
    {
      "channel": 4,
      "note": 47,
      "start": 232.9099,
      "duration": 3.0504,
      "velocity": 121,
      "chip": "ym2612"
    },
    {
      "channel": 0,
      "note": 98,
      "start": 232.9409,
      "duration": 0.0309,
      "velocity": 114,
      "chip": "ym2612"
    },
    {
      "channel": 1,
      "note": 55,
      "start": 232.941,
      "duration": 0.2179,
      "velocity": 93,
      "chip": "ym2612"
    },
    {
      "channel": 3,
      "note": 69,
      "start": 232.9412,
      "duration": 0.1089,
      "velocity": 94,
      "chip": "ym2612"
    },
    {
      "channel": 0,
      "note": 98,
      "start": 233.0499,
      "duration": 0.0309,
      "velocity": 114,
      "chip": "ym2612"
    },
    {
      "channel": 3,
      "note": 74,
      "start": 233.0501,
      "duration": 0.109,
      "velocity": 94,
      "chip": "ym2612"
    },
    {
      "channel": 5,
      "note": 76,
      "start": 233.0503,
      "duration": 0.109,
      "velocity": 94,
      "chip": "ym2612"
    },
    {
      "channel": 0,
      "note": 98,
      "start": 233.1588,
      "duration": 0.0154,
      "velocity": 127,
      "chip": "ym2612"
    },
    {
      "channel": 1,
      "note": 55,
      "start": 233.1589,
      "duration": 0.2179,
      "velocity": 93,
      "chip": "ym2612"
    },
    {
      "channel": 5,
      "note": 78,
      "start": 233.1594,
      "duration": 0.1088,
      "velocity": 94,
      "chip": "ym2612"
    },
    {
      "channel": 0,
      "note": 76,
      "start": 233.1742,
      "duration": 0.0936,
      "velocity": 114,
      "chip": "ym2612"
    },
    {
      "channel": 0,
      "note": 68,
      "start": 233.2678,
      "duration": 0.0309,
      "velocity": 114,
      "chip": "ym2612"
    },
    {
      "channel": 3,
      "note": 76,
      "start": 233.268,
      "duration": 0.109,
      "velocity": 94,
      "chip": "ym2612"
    },
    {
      "channel": 5,
      "note": 81,
      "start": 233.2683,
      "duration": 0.109,
      "velocity": 94,
      "chip": "ym2612"
    },
    {
      "channel": 0,
      "note": 98,
      "start": 233.3767,
      "duration": 0.0309,
      "velocity": 114,
      "chip": "ym2612"
    },
    {
      "channel": 1,
      "note": 55,
      "start": 233.3768,
      "duration": 0.2179,
      "velocity": 93,
      "chip": "ym2612"
    },
    {
      "channel": 3,
      "note": 81,
      "start": 233.377,
      "duration": 0.1089,
      "velocity": 94,
      "chip": "ym2612"
    },
    {
      "channel": 5,
      "note": 69,
      "start": 233.3772,
      "duration": 0.1089,
      "velocity": 94,
      "chip": "ym2612"
    },
    {
      "channel": 0,
      "note": 98,
      "start": 233.4856,
      "duration": 0.0309,
      "velocity": 114,
      "chip": "ym2612"
    },
    {
      "channel": 3,
      "note": 69,
      "start": 233.4859,
      "duration": 0.109,
      "velocity": 94,
      "chip": "ym2612"
    },
    {
      "channel": 5,
      "note": 74,
      "start": 233.4861,
      "duration": 0.109,
      "velocity": 94,
      "chip": "ym2612"
    },
    {
      "channel": 0,
      "note": 98,
      "start": 233.5946,
      "duration": 0.1089,
      "velocity": 114,
      "chip": "ym2612"
    },
    {
      "channel": 1,
      "note": 55,
      "start": 233.5947,
      "duration": 0.2178,
      "velocity": 93,
      "chip": "ym2612"
    },
    {
      "channel": 3,
      "note": 81,
      "start": 233.5949,
      "duration": 0.1089,
      "velocity": 94,
      "chip": "ym2612"
    },
    {
      "channel": 0,
      "note": 54,
      "start": 233.7035,
      "duration": 0.0309,
      "velocity": 114,
      "chip": "ym2612"
    },
    {
      "channel": 3,
      "note": 71,
      "start": 233.7038,
      "duration": 0.109,
      "velocity": 94,
      "chip": "ym2612"
    },
    {
      "channel": 5,
      "note": 76,
      "start": 233.704,
      "duration": 0.109,
      "velocity": 94,
      "chip": "ym2612"
    },
    {
      "channel": 0,
      "note": 98,
      "start": 233.8124,
      "duration": 0.0309,
      "velocity": 114,
      "chip": "ym2612"
    },
    {
      "channel": 1,
      "note": 55,
      "start": 233.8126,
      "duration": 0.2179,
      "velocity": 93,
      "chip": "ym2612"
    },
    {
      "channel": 3,
      "note": 74,
      "start": 233.8128,
      "duration": 0.1089,
      "velocity": 94,
      "chip": "ym2612"
    },
    {
      "channel": 5,
      "note": 81,
      "start": 233.813,
      "duration": 0.1088,
      "velocity": 94,
      "chip": "ym2612"
    },
    {
      "channel": 0,
      "note": 98,
      "start": 233.9214,
      "duration": 0.0309,
      "velocity": 114,
      "chip": "ym2612"
    },
    {
      "channel": 5,
      "note": 69,
      "start": 233.9219,
      "duration": 0.109,
      "velocity": 94,
      "chip": "ym2612"
    },
    {
      "channel": 0,
      "note": 98,
      "start": 234.0303,
      "duration": 0.0154,
      "velocity": 127,
      "chip": "ym2612"
    },
    {
      "channel": 1,
      "note": 55,
      "start": 234.0305,
      "duration": 0.2178,
      "velocity": 93,
      "chip": "ym2612"
    },
    {
      "channel": 3,
      "note": 76,
      "start": 234.0307,
      "duration": 0.1089,
      "velocity": 94,
      "chip": "ym2612"
    },
    {
      "channel": 5,
      "note": 81,
      "start": 234.0309,
      "duration": 0.1089,
      "velocity": 94,
      "chip": "ym2612"
    },
    {
      "channel": 0,
      "note": 76,
      "start": 234.0457,
      "duration": 0.0936,
      "velocity": 114,
      "chip": "ym2612"
    },
    {
      "channel": 0,
      "note": 68,
      "start": 234.1393,
      "duration": 0.0309,
      "velocity": 114,
      "chip": "ym2612"
    },
    {
      "channel": 5,
      "note": 71,
      "start": 234.1398,
      "duration": 0.1091,
      "velocity": 94,
      "chip": "ym2612"
    },
    {
      "channel": 0,
      "note": 98,
      "start": 234.2482,
      "duration": 0.0309,
      "velocity": 114,
      "chip": "ym2612"
    },
    {
      "channel": 1,
      "note": 55,
      "start": 234.2483,
      "duration": 0.2179,
      "velocity": 93,
      "chip": "ym2612"
    },
    {
      "channel": 3,
      "note": 78,
      "start": 234.2486,
      "duration": 0.109,
      "velocity": 94,
      "chip": "ym2612"
    },
    {
      "channel": 5,
      "note": 74,
      "start": 234.2488,
      "duration": 0.109,
      "velocity": 94,
      "chip": "ym2612"
    },
    {
      "channel": 0,
      "note": 98,
      "start": 234.3573,
      "duration": 0.0307,
      "velocity": 114,
      "chip": "ym2612"
    },
    {
      "channel": 3,
      "note": 81,
      "start": 234.3576,
      "duration": 0.1088,
      "velocity": 94,
      "chip": "ym2612"
    },
    {
      "channel": 0,
      "note": 98,
      "start": 234.4661,
      "duration": 0.1089,
      "velocity": 114,
      "chip": "ym2612"
    },
    {
      "channel": 1,
      "note": 55,
      "start": 234.4663,
      "duration": 0.2178,
      "velocity": 93,
      "chip": "ym2612"
    },
    {
      "channel": 3,
      "note": 69,
      "start": 234.4665,
      "duration": 0.1089,
      "velocity": 94,
      "chip": "ym2612"
    },
    {
      "channel": 5,
      "note": 76,
      "start": 234.4667,
      "duration": 0.1089,
      "velocity": 94,
      "chip": "ym2612"
    },
    {
      "channel": 0,
      "note": 54,
      "start": 234.5751,
      "duration": 0.0309,
      "velocity": 114,
      "chip": "ym2612"
    },
    {
      "channel": 3,
      "note": 74,
      "start": 234.5753,
      "duration": 0.109,
      "velocity": 94,
      "chip": "ym2612"
    },
    {
      "channel": 5,
      "note": 78,
      "start": 234.5756,
      "duration": 0.1089,
      "velocity": 94,
      "chip": "ym2612"
    },
    {
      "channel": 0,
      "note": 98,
      "start": 234.684,
      "duration": 0.0309,
      "velocity": 114,
      "chip": "ym2612"
    },
    {
      "channel": 1,
      "note": 55,
      "start": 234.6841,
      "duration": 0.2179,
      "velocity": 93,
      "chip": "ym2612"
    },
    {
      "channel": 5,
      "note": 81,
      "start": 234.6845,
      "duration": 0.1089,
      "velocity": 94,
      "chip": "ym2612"
    },
    {
      "channel": 0,
      "note": 98,
      "start": 234.7929,
      "duration": 0.0309,
      "velocity": 114,
      "chip": "ym2612"
    },
    {
      "channel": 3,
      "note": 76,
      "start": 234.7932,
      "duration": 0.109,
      "velocity": 94,
      "chip": "ym2612"
    },
    {
      "channel": 5,
      "note": 69,
      "start": 234.7934,
      "duration": 0.109,
      "velocity": 94,
      "chip": "ym2612"
    },
    {
      "channel": 0,
      "note": 98,
      "start": 234.9019,
      "duration": 0.0154,
      "velocity": 127,
      "chip": "ym2612"
    },
    {
      "channel": 1,
      "note": 55,
      "start": 234.902,
      "duration": 0.2178,
      "velocity": 93,
      "chip": "ym2612"
    },
    {
      "channel": 3,
      "note": 81,
      "start": 234.9022,
      "duration": 0.1089,
      "velocity": 94,
      "chip": "ym2612"
    },
    {
      "channel": 5,
      "note": 74,
      "start": 234.9024,
      "duration": 0.1089,
      "velocity": 94,
      "chip": "ym2612"
    },
    {
      "channel": 0,
      "note": 76,
      "start": 234.9172,
      "duration": 0.0936,
      "velocity": 114,
      "chip": "ym2612"
    },
    {
      "channel": 0,
      "note": 68,
      "start": 235.0108,
      "duration": 0.0309,
      "velocity": 114,
      "chip": "ym2612"
    },
    {
      "channel": 3,
      "note": 69,
      "start": 235.0111,
      "duration": 0.109,
      "velocity": 94,
      "chip": "ym2612"
    },
    {
      "channel": 0,
      "note": 98,
      "start": 235.1198,
      "duration": 0.0309,
      "velocity": 114,
      "chip": "ym2612"
    },
    {
      "channel": 1,
      "note": 55,
      "start": 235.1199,
      "duration": 0.2179,
      "velocity": 93,
      "chip": "ym2612"
    },
    {
      "channel": 3,
      "note": 81,
      "start": 235.1201,
      "duration": 0.1089,
      "velocity": 94,
      "chip": "ym2612"
    },
    {
      "channel": 5,
      "note": 76,
      "start": 235.1203,
      "duration": 0.1089,
      "velocity": 94,
      "chip": "ym2612"
    },
    {
      "channel": 0,
      "note": 98,
      "start": 235.2287,
      "duration": 0.0309,
      "velocity": 114,
      "chip": "ym2612"
    },
    {
      "channel": 3,
      "note": 71,
      "start": 235.229,
      "duration": 0.109,
      "velocity": 94,
      "chip": "ym2612"
    },
    {
      "channel": 5,
      "note": 81,
      "start": 235.2292,
      "duration": 0.109,
      "velocity": 94,
      "chip": "ym2612"
    },
    {
      "channel": 0,
      "note": 98,
      "start": 235.3376,
      "duration": 0.1089,
      "velocity": 127,
      "chip": "ym2612"
    },
    {
      "channel": 1,
      "note": 55,
      "start": 235.3378,
      "duration": 0.2178,
      "velocity": 93,
      "chip": "ym2612"
    },
    {
      "channel": 3,
      "note": 74,
      "start": 235.338,
      "duration": 0.1089,
      "velocity": 94,
      "chip": "ym2612"
    },
    {
      "channel": 5,
      "note": 69,
      "start": 235.3382,
      "duration": 0.1088,
      "velocity": 94,
      "chip": "ym2612"
    },
    {
      "channel": 0,
      "note": 54,
      "start": 235.4466,
      "duration": 0.0154,
      "velocity": 127,
      "chip": "ym2612"
    },
    {
      "channel": 5,
      "note": 81,
      "start": 235.4471,
      "duration": 0.109,
      "velocity": 94,
      "chip": "ym2612"
    },
    {
      "channel": 0,
      "note": 76,
      "start": 235.4619,
      "duration": 0.0936,
      "velocity": 114,
      "chip": "ym2612"
    },
    {
      "channel": 0,
      "note": 68,
      "start": 235.5555,
      "duration": 0.0309,
      "velocity": 114,
      "chip": "ym2612"
    },
    {
      "channel": 1,
      "note": 55,
      "start": 235.5556,
      "duration": 0.2179,
      "velocity": 93,
      "chip": "ym2612"
    },
    {
      "channel": 3,
      "note": 76,
      "start": 235.5559,
      "duration": 0.1089,
      "velocity": 94,
      "chip": "ym2612"
    },
    {
      "channel": 5,
      "note": 71,
      "start": 235.5561,
      "duration": 0.1088,
      "velocity": 94,
      "chip": "ym2612"
    },
    {
      "channel": 0,
      "note": 98,
      "start": 235.6645,
      "duration": 0.0309,
      "velocity": 114,
      "chip": "ym2612"
    },
    {
      "channel": 5,
      "note": 74,
      "start": 235.6649,
      "duration": 0.1093,
      "velocity": 94,
      "chip": "ym2612"
    },
    {
      "channel": 0,
      "note": 98,
      "start": 235.7734,
      "duration": 0.1089,
      "velocity": 114,
      "chip": "ym2612"
    },
    {
      "channel": 1,
      "note": 56,
      "start": 235.7736,
      "duration": 0.2178,
      "velocity": 93,
      "chip": "ym2612"
    },
    {
      "channel": 2,
      "note": 43,
      "start": 235.7739,
      "duration": 3.0504,
      "velocity": 121,
      "chip": "ym2612"
    },
    {
      "channel": 3,
      "note": 78,
      "start": 235.774,
      "duration": 0.1086,
      "velocity": 94,
      "chip": "ym2612"
    },
    {
      "channel": 0,
      "note": 54,
      "start": 235.8824,
      "duration": 0.0309,
      "velocity": 114,
      "chip": "ym2612"
    },
    {
      "channel": 3,
      "note": 81,
      "start": 235.8826,
      "duration": 0.109,
      "velocity": 94,
      "chip": "ym2612"
    },
    {
      "channel": 5,
      "note": 76,
      "start": 235.8828,
      "duration": 0.109,
      "velocity": 94,
      "chip": "ym2612"
    },
    {
      "channel": 4,
      "note": 43,
      "start": 235.9603,
      "duration": 3.0504,
      "velocity": 121,
      "chip": "ym2612"
    },
    {
      "channel": 0,
      "note": 98,
      "start": 235.9913,
      "duration": 0.0309,
      "velocity": 114,
      "chip": "ym2612"
    },
    {
      "channel": 1,
      "note": 64,
      "start": 235.9914,
      "duration": 0.2179,
      "velocity": 93,
      "chip": "ym2612"
    },
    {
      "channel": 3,
      "note": 69,
      "start": 235.9916,
      "duration": 0.1089,
      "velocity": 94,
      "chip": "ym2612"
    },
    {
      "channel": 5,
      "note": 78,
      "start": 235.9919,
      "duration": 0.1088,
      "velocity": 94,
      "chip": "ym2612"
    },
    {
      "channel": 0,
      "note": 98,
      "start": 236.1002,
      "duration": 0.0309,
      "velocity": 114,
      "chip": "ym2612"
    },
    {
      "channel": 3,
      "note": 74,
      "start": 236.1005,
      "duration": 0.109,
      "velocity": 94,
      "chip": "ym2612"
    },
    {
      "channel": 5,
      "note": 81,
      "start": 236.1007,
      "duration": 0.109,
      "velocity": 94,
      "chip": "ym2612"
    },
    {
      "channel": 0,
      "note": 98,
      "start": 236.2092,
      "duration": 0.0154,
      "velocity": 127,
      "chip": "ym2612"
    },
    {
      "channel": 1,
      "note": 64,
      "start": 236.2093,
      "duration": 0.2179,
      "velocity": 93,
      "chip": "ym2612"
    },
    {
      "channel": 5,
      "note": 69,
      "start": 236.2097,
      "duration": 0.1089,
      "velocity": 94,
      "chip": "ym2612"
    },
    {
      "channel": 0,
      "note": 76,
      "start": 236.2245,
      "duration": 0.0936,
      "velocity": 114,
      "chip": "ym2612"
    },
    {
      "channel": 0,
      "note": 68,
      "start": 236.3181,
      "duration": 0.0309,
      "velocity": 114,
      "chip": "ym2612"
    },
    {
      "channel": 3,
      "note": 76,
      "start": 236.3184,
      "duration": 0.109,
      "velocity": 94,
      "chip": "ym2612"
    },
    {
      "channel": 5,
      "note": 74,
      "start": 236.3186,
      "duration": 0.109,
      "velocity": 94,
      "chip": "ym2612"
    },
    {
      "channel": 0,
      "note": 98,
      "start": 236.4271,
      "duration": 0.0309,
      "velocity": 114,
      "chip": "ym2612"
    },
    {
      "channel": 1,
      "note": 64,
      "start": 236.4272,
      "duration": 0.2179,
      "velocity": 93,
      "chip": "ym2612"
    },
    {
      "channel": 3,
      "note": 81,
      "start": 236.4274,
      "duration": 0.1089,
      "velocity": 94,
      "chip": "ym2612"
    },
    {
      "channel": 0,
      "note": 98,
      "start": 236.536,
      "duration": 0.0309,
      "velocity": 114,
      "chip": "ym2612"
    },
    {
      "channel": 3,
      "note": 69,
      "start": 236.5363,
      "duration": 0.109,
      "velocity": 94,
      "chip": "ym2612"
    },
    {
      "channel": 5,
      "note": 76,
      "start": 236.5365,
      "duration": 0.109,
      "velocity": 94,
      "chip": "ym2612"
    },
    {
      "channel": 0,
      "note": 98,
      "start": 236.645,
      "duration": 0.1089,
      "velocity": 114,
      "chip": "ym2612"
    },
    {
      "channel": 1,
      "note": 64,
      "start": 236.6451,
      "duration": 0.2178,
      "velocity": 93,
      "chip": "ym2612"
    },
    {
      "channel": 3,
      "note": 81,
      "start": 236.6453,
      "duration": 0.1089,
      "velocity": 94,
      "chip": "ym2612"
    },
    {
      "channel": 5,
      "note": 81,
      "start": 236.6455,
      "duration": 0.1089,
      "velocity": 94,
      "chip": "ym2612"
    },
    {
      "channel": 0,
      "note": 54,
      "start": 236.7539,
      "duration": 0.0309,
      "velocity": 114,
      "chip": "ym2612"
    },
    {
      "channel": 3,
      "note": 71,
      "start": 236.7542,
      "duration": 0.109,
      "velocity": 94,
      "chip": "ym2612"
    },
    {
      "channel": 5,
      "note": 69,
      "start": 236.7544,
      "duration": 0.109,
      "velocity": 94,
      "chip": "ym2612"
    },
    {
      "channel": 0,
      "note": 98,
      "start": 236.8628,
      "duration": 0.0309,
      "velocity": 114,
      "chip": "ym2612"
    },
    {
      "channel": 1,
      "note": 64,
      "start": 236.8629,
      "duration": 0.2179,
      "velocity": 93,
      "chip": "ym2612"
    },
    {
      "channel": 3,
      "note": 74,
      "start": 236.8631,
      "duration": 0.1089,
      "velocity": 94,
      "chip": "ym2612"
    },
    {
      "channel": 5,
      "note": 81,
      "start": 236.8634,
      "duration": 0.1089,
      "velocity": 94,
      "chip": "ym2612"
    },
    {
      "channel": 0,
      "note": 98,
      "start": 236.9718,
      "duration": 0.0309,
      "velocity": 114,
      "chip": "ym2612"
    },
    {
      "channel": 5,
      "note": 71,
      "start": 236.9722,
      "duration": 0.109,
      "velocity": 94,
      "chip": "ym2612"
    },
    {
      "channel": 0,
      "note": 98,
      "start": 237.0807,
      "duration": 0.0154,
      "velocity": 127,
      "chip": "ym2612"
    },
    {
      "channel": 1,
      "note": 64,
      "start": 237.0808,
      "duration": 0.2178,
      "velocity": 93,
      "chip": "ym2612"
    },
    {
      "channel": 3,
      "note": 76,
      "start": 237.081,
      "duration": 0.1089,
      "velocity": 94,
      "chip": "ym2612"
    },
    {
      "channel": 5,
      "note": 74,
      "start": 237.0813,
      "duration": 0.1088,
      "velocity": 94,
      "chip": "ym2612"
    },
    {
      "channel": 0,
      "note": 76,
      "start": 237.0961,
      "duration": 0.0936,
      "velocity": 114,
      "chip": "ym2612"
    },
    {
      "channel": 0,
      "note": 68,
      "start": 237.1896,
      "duration": 0.0309,
      "velocity": 114,
      "chip": "ym2612"
    },
    {
      "channel": 0,
      "note": 98,
      "start": 237.2986,
      "duration": 0.0309,
      "velocity": 114,
      "chip": "ym2612"
    },
    {
      "channel": 1,
      "note": 64,
      "start": 237.2987,
      "duration": 0.2179,
      "velocity": 93,
      "chip": "ym2612"
    },
    {
      "channel": 3,
      "note": 78,
      "start": 237.299,
      "duration": 0.1088,
      "velocity": 94,
      "chip": "ym2612"
    },
    {
      "channel": 5,
      "note": 76,
      "start": 237.2992,
      "duration": 0.1089,
      "velocity": 94,
      "chip": "ym2612"
    },
    {
      "channel": 0,
      "note": 98,
      "start": 237.4075,
      "duration": 0.0309,
      "velocity": 114,
      "chip": "ym2612"
    },
    {
      "channel": 3,
      "note": 81,
      "start": 237.4078,
      "duration": 0.109,
      "velocity": 94,
      "chip": "ym2612"
    },
    {
      "channel": 5,
      "note": 78,
      "start": 237.4081,
      "duration": 0.109,
      "velocity": 94,
      "chip": "ym2612"
    },
    {
      "channel": 0,
      "note": 98,
      "start": 237.5165,
      "duration": 0.1089,
      "velocity": 114,
      "chip": "ym2612"
    },
    {
      "channel": 1,
      "note": 64,
      "start": 237.5166,
      "duration": 0.2178,
      "velocity": 93,
      "chip": "ym2612"
    },
    {
      "channel": 3,
      "note": 69,
      "start": 237.5168,
      "duration": 0.1089,
      "velocity": 94,
      "chip": "ym2612"
    },
    {
      "channel": 5,
      "note": 81,
      "start": 237.5171,
      "duration": 0.1089,
      "velocity": 94,
      "chip": "ym2612"
    },
    {
      "channel": 0,
      "note": 54,
      "start": 237.6254,
      "duration": 0.0309,
      "velocity": 114,
      "chip": "ym2612"
    },
    {
      "channel": 3,
      "note": 74,
      "start": 237.6257,
      "duration": 0.109,
      "velocity": 94,
      "chip": "ym2612"
    },
    {
      "channel": 5,
      "note": 69,
      "start": 237.6259,
      "duration": 0.1089,
      "velocity": 94,
      "chip": "ym2612"
    },
    {
      "channel": 0,
      "note": 98,
      "start": 237.7344,
      "duration": 0.0309,
      "velocity": 114,
      "chip": "ym2612"
    },
    {
      "channel": 1,
      "note": 64,
      "start": 237.7345,
      "duration": 0.2179,
      "velocity": 93,
      "chip": "ym2612"
    },
    {
      "channel": 5,
      "note": 74,
      "start": 237.7349,
      "duration": 0.1089,
      "velocity": 94,
      "chip": "ym2612"
    },
    {
      "channel": 0,
      "note": 98,
      "start": 237.8433,
      "duration": 0.0309,
      "velocity": 114,
      "chip": "ym2612"
    },
    {
      "channel": 3,
      "note": 76,
      "start": 237.8436,
      "duration": 0.109,
      "velocity": 94,
      "chip": "ym2612"
    },
    {
      "channel": 0,
      "note": 98,
      "start": 237.9522,
      "duration": 0.0154,
      "velocity": 127,
      "chip": "ym2612"
    },
    {
      "channel": 1,
      "note": 64,
      "start": 237.9524,
      "duration": 0.2178,
      "velocity": 93,
      "chip": "ym2612"
    },
    {
      "channel": 3,
      "note": 81,
      "start": 237.9526,
      "duration": 0.1089,
      "velocity": 94,
      "chip": "ym2612"
    },
    {
      "channel": 5,
      "note": 76,
      "start": 237.9528,
      "duration": 0.1089,
      "velocity": 94,
      "chip": "ym2612"
    },
    {
      "channel": 0,
      "note": 76,
      "start": 237.9676,
      "duration": 0.0936,
      "velocity": 114,
      "chip": "ym2612"
    },
    {
      "channel": 0,
      "note": 68,
      "start": 238.0612,
      "duration": 0.0309,
      "velocity": 114,
      "chip": "ym2612"
    },
    {
      "channel": 3,
      "note": 69,
      "start": 238.0615,
      "duration": 0.109,
      "velocity": 94,
      "chip": "ym2612"
    },
    {
      "channel": 5,
      "note": 81,
      "start": 238.0617,
      "duration": 0.109,
      "velocity": 94,
      "chip": "ym2612"
    },
    {
      "channel": 0,
      "note": 98,
      "start": 238.1701,
      "duration": 0.0309,
      "velocity": 114,
      "chip": "ym2612"
    },
    {
      "channel": 1,
      "note": 64,
      "start": 238.1702,
      "duration": 0.2179,
      "velocity": 93,
      "chip": "ym2612"
    },
    {
      "channel": 3,
      "note": 81,
      "start": 238.1704,
      "duration": 0.1089,
      "velocity": 94,
      "chip": "ym2612"
    },
    {
      "channel": 5,
      "note": 69,
      "start": 238.1707,
      "duration": 0.1089,
      "velocity": 94,
      "chip": "ym2612"
    },
    {
      "channel": 0,
      "note": 98,
      "start": 238.2791,
      "duration": 0.0309,
      "velocity": 114,
      "chip": "ym2612"
    },
    {
      "channel": 3,
      "note": 71,
      "start": 238.2793,
      "duration": 0.109,
      "velocity": 94,
      "chip": "ym2612"
    },
    {
      "channel": 5,
      "note": 81,
      "start": 238.2796,
      "duration": 0.109,
      "velocity": 94,
      "chip": "ym2612"
    },
    {
      "channel": 0,
      "note": 98,
      "start": 238.388,
      "duration": 0.1089,
      "velocity": 127,
      "chip": "ym2612"
    },
    {
      "channel": 1,
      "note": 64,
      "start": 238.3882,
      "duration": 0.2178,
      "velocity": 93,
      "chip": "ym2612"
    },
    {
      "channel": 3,
      "note": 74,
      "start": 238.3883,
      "duration": 0.1089,
      "velocity": 94,
      "chip": "ym2612"
    },
    {
      "channel": 5,
      "note": 71,
      "start": 238.3886,
      "duration": 0.1088,
      "velocity": 94,
      "chip": "ym2612"
    },
    {
      "channel": 0,
      "note": 54,
      "start": 238.4969,
      "duration": 0.0154,
      "velocity": 127,
      "chip": "ym2612"
    },
    {
      "channel": 5,
      "note": 74,
      "start": 238.4974,
      "duration": 0.109,
      "velocity": 94,
      "chip": "ym2612"
    },
    {
      "channel": 0,
      "note": 76,
      "start": 238.5123,
      "duration": 0.0936,
      "velocity": 114,
      "chip": "ym2612"
    },
    {
      "channel": 0,
      "note": 68,
      "start": 238.6059,
      "duration": 0.0309,
      "velocity": 114,
      "chip": "ym2612"
    },
    {
      "channel": 1,
      "note": 64,
      "start": 238.606,
      "duration": 0.2181,
      "velocity": 93,
      "chip": "ym2612"
    },
    {
      "channel": 3,
      "note": 76,
      "start": 238.6062,
      "duration": 0.1089,
      "velocity": 94,
      "chip": "ym2612"
    },
    {
      "channel": 0,
      "note": 98,
      "start": 238.7148,
      "duration": 0.0309,
      "velocity": 114,
      "chip": "ym2612"
    },
    {
      "channel": 5,
      "note": 76,
      "start": 238.7153,
      "duration": 0.1094,
      "velocity": 94,
      "chip": "ym2612"
    },
    {
      "channel": 0,
      "note": 98,
      "start": 238.824,
      "duration": 0.1087,
      "velocity": 114,
      "chip": "ym2612"
    },
    {
      "channel": 1,
      "note": 64,
      "start": 238.8241,
      "duration": 0.2177,
      "velocity": 93,
      "chip": "ym2612"
    },
    {
      "channel": 2,
      "note": 52,
      "start": 238.8242,
      "duration": 3.0502,
      "velocity": 121,
      "chip": "ym2612"
    },
    {
      "channel": 3,
      "note": 78,
      "start": 238.8244,
      "duration": 0.1086,
      "velocity": 94,
      "chip": "ym2612"
    },
    {
      "channel": 5,
      "note": 78,
      "start": 238.8247,
      "duration": 0.1085,
      "velocity": 94,
      "chip": "ym2612"
    },
    {
      "channel": 0,
      "note": 54,
      "start": 238.9327,
      "duration": 0.0309,
      "velocity": 114,
      "chip": "ym2612"
    },
    {
      "channel": 3,
      "note": 81,
      "start": 238.933,
      "duration": 0.109,
      "velocity": 94,
      "chip": "ym2612"
    },
    {
      "channel": 5,
      "note": 81,
      "start": 238.9332,
      "duration": 0.109,
      "velocity": 94,
      "chip": "ym2612"
    },
    {
      "channel": 4,
      "note": 52,
      "start": 239.0106,
      "duration": 3.0504,
      "velocity": 121,
      "chip": "ym2612"
    },
    {
      "channel": 0,
      "note": 98,
      "start": 239.0417,
      "duration": 0.0309,
      "velocity": 114,
      "chip": "ym2612"
    },
    {
      "channel": 1,
      "note": 62,
      "start": 239.0418,
      "duration": 0.2179,
      "velocity": 93,
      "chip": "ym2612"
    },
    {
      "channel": 3,
      "note": 69,
      "start": 239.042,
      "duration": 0.1089,
      "velocity": 94,
      "chip": "ym2612"
    },
    {
      "channel": 5,
      "note": 69,
      "start": 239.0422,
      "duration": 0.1089,
      "velocity": 94,
      "chip": "ym2612"
    },
    {
      "channel": 0,
      "note": 98,
      "start": 239.1506,
      "duration": 0.0309,
      "velocity": 114,
      "chip": "ym2612"
    },
    {
      "channel": 3,
      "note": 74,
      "start": 239.1509,
      "duration": 0.109,
      "velocity": 94,
      "chip": "ym2612"
    },
    {
      "channel": 5,
      "note": 74,
      "start": 239.1511,
      "duration": 0.109,
      "velocity": 94,
      "chip": "ym2612"
    },
    {
      "channel": 0,
      "note": 98,
      "start": 239.2595,
      "duration": 0.0154,
      "velocity": 127,
      "chip": "ym2612"
    },
    {
      "channel": 1,
      "note": 62,
      "start": 239.2597,
      "duration": 0.2178,
      "velocity": 93,
      "chip": "ym2612"
    },
    {
      "channel": 0,
      "note": 76,
      "start": 239.2749,
      "duration": 0.0936,
      "velocity": 114,
      "chip": "ym2612"
    },
    {
      "channel": 0,
      "note": 68,
      "start": 239.3685,
      "duration": 0.0309,
      "velocity": 114,
      "chip": "ym2612"
    },
    {
      "channel": 3,
      "note": 76,
      "start": 239.3688,
      "duration": 0.109,
      "velocity": 94,
      "chip": "ym2612"
    },
    {
      "channel": 5,
      "note": 76,
      "start": 239.369,
      "duration": 0.109,
      "velocity": 94,
      "chip": "ym2612"
    },
    {
      "channel": 0,
      "note": 98,
      "start": 239.4774,
      "duration": 0.0309,
      "velocity": 114,
      "chip": "ym2612"
    },
    {
      "channel": 1,
      "note": 62,
      "start": 239.4775,
      "duration": 0.2179,
      "velocity": 93,
      "chip": "ym2612"
    },
    {
      "channel": 3,
      "note": 81,
      "start": 239.4777,
      "duration": 0.1089,
      "velocity": 94,
      "chip": "ym2612"
    },
    {
      "channel": 5,
      "note": 81,
      "start": 239.478,
      "duration": 0.1089,
      "velocity": 94,
      "chip": "ym2612"
    },
    {
      "channel": 0,
      "note": 98,
      "start": 239.5864,
      "duration": 0.0309,
      "velocity": 114,
      "chip": "ym2612"
    },
    {
      "channel": 3,
      "note": 69,
      "start": 239.5866,
      "duration": 0.109,
      "velocity": 94,
      "chip": "ym2612"
    },
    {
      "channel": 5,
      "note": 69,
      "start": 239.5869,
      "duration": 0.109,
      "velocity": 94,
      "chip": "ym2612"
    },
    {
      "channel": 0,
      "note": 98,
      "start": 239.6953,
      "duration": 0.1089,
      "velocity": 114,
      "chip": "ym2612"
    },
    {
      "channel": 1,
      "note": 62,
      "start": 239.6955,
      "duration": 0.2178,
      "velocity": 93,
      "chip": "ym2612"
    },
    {
      "channel": 3,
      "note": 81,
      "start": 239.6956,
      "duration": 0.1089,
      "velocity": 94,
      "chip": "ym2612"
    },
    {
      "channel": 5,
      "note": 81,
      "start": 239.6959,
      "duration": 0.1089,
      "velocity": 94,
      "chip": "ym2612"
    },
    {
      "channel": 0,
      "note": 54,
      "start": 239.8042,
      "duration": 0.0309,
      "velocity": 114,
      "chip": "ym2612"
    },
    {
      "channel": 3,
      "note": 71,
      "start": 239.8045,
      "duration": 0.109,
      "velocity": 94,
      "chip": "ym2612"
    },
    {
      "channel": 5,
      "note": 71,
      "start": 239.8048,
      "duration": 0.109,
      "velocity": 94,
      "chip": "ym2612"
    },
    {
      "channel": 0,
      "note": 98,
      "start": 239.9132,
      "duration": 0.0309,
      "velocity": 114,
      "chip": "ym2612"
    },
    {
      "channel": 1,
      "note": 62,
      "start": 239.9133,
      "duration": 0.2179,
      "velocity": 93,
      "chip": "ym2612"
    },
    {
      "channel": 3,
      "note": 74,
      "start": 239.9135,
      "duration": 0.1089,
      "velocity": 94,
      "chip": "ym2612"
    },
    {
      "channel": 5,
      "note": 74,
      "start": 239.9137,
      "duration": 0.1088,
      "velocity": 94,
      "chip": "ym2612"
    },
    {
      "channel": 0,
      "note": 98,
      "start": 240.0221,
      "duration": 0.0309,
      "velocity": 114,
      "chip": "ym2612"
    },
    {
      "channel": 0,
      "note": 98,
      "start": 240.1311,
      "duration": 0.0154,
      "velocity": 127,
      "chip": "ym2612"
    },
    {
      "channel": 1,
      "note": 62,
      "start": 240.1312,
      "duration": 0.2179,
      "velocity": 93,
      "chip": "ym2612"
    },
    {
      "channel": 3,
      "note": 76,
      "start": 240.1314,
      "duration": 0.109,
      "velocity": 94,
      "chip": "ym2612"
    },
    {
      "channel": 5,
      "note": 76,
      "start": 240.1316,
      "duration": 0.1091,
      "velocity": 94,
      "chip": "ym2612"
    },
    {
      "channel": 0,
      "note": 76,
      "start": 240.1464,
      "duration": 0.0936,
      "velocity": 114,
      "chip": "ym2612"
    },
    {
      "channel": 0,
      "note": 68,
      "start": 240.24,
      "duration": 0.0309,
      "velocity": 114,
      "chip": "ym2612"
    },
    {
      "channel": 5,
      "note": 78,
      "start": 240.2407,
      "duration": 0.1088,
      "velocity": 94,
      "chip": "ym2612"
    },
    {
      "channel": 0,
      "note": 98,
      "start": 240.349,
      "duration": 0.0309,
      "velocity": 114,
      "chip": "ym2612"
    },
    {
      "channel": 1,
      "note": 62,
      "start": 240.3491,
      "duration": 0.2179,
      "velocity": 93,
      "chip": "ym2612"
    },
    {
      "channel": 3,
      "note": 78,
      "start": 240.3493,
      "duration": 0.1088,
      "velocity": 94,
      "chip": "ym2612"
    },
    {
      "channel": 5,
      "note": 81,
      "start": 240.3496,
      "duration": 0.1088,
      "velocity": 94,
      "chip": "ym2612"
    },
    {
      "channel": 0,
      "note": 98,
      "start": 240.4579,
      "duration": 0.0309,
      "velocity": 114,
      "chip": "ym2612"
    },
    {
      "channel": 3,
      "note": 81,
      "start": 240.4582,
      "duration": 0.109,
      "velocity": 94,
      "chip": "ym2612"
    },
    {
      "channel": 5,
      "note": 69,
      "start": 240.4584,
      "duration": 0.109,
      "velocity": 94,
      "chip": "ym2612"
    },
    {
      "channel": 0,
      "note": 98,
      "start": 240.5668,
      "duration": 0.1089,
      "velocity": 114,
      "chip": "ym2612"
    },
    {
      "channel": 1,
      "note": 62,
      "start": 240.567,
      "duration": 0.2178,
      "velocity": 93,
      "chip": "ym2612"
    },
    {
      "channel": 3,
      "note": 69,
      "start": 240.5672,
      "duration": 0.1089,
      "velocity": 94,
      "chip": "ym2612"
    },
    {
      "channel": 5,
      "note": 74,
      "start": 240.5674,
      "duration": 0.1088,
      "velocity": 94,
      "chip": "ym2612"
    },
    {
      "channel": 0,
      "note": 54,
      "start": 240.6758,
      "duration": 0.0309,
      "velocity": 114,
      "chip": "ym2612"
    },
    {
      "channel": 3,
      "note": 74,
      "start": 240.6761,
      "duration": 0.109,
      "velocity": 94,
      "chip": "ym2612"
    },
    {
      "channel": 0,
      "note": 98,
      "start": 240.7847,
      "duration": 0.0309,
      "velocity": 114,
      "chip": "ym2612"
    },
    {
      "channel": 1,
      "note": 62,
      "start": 240.7848,
      "duration": 0.2179,
      "velocity": 93,
      "chip": "ym2612"
    },
    {
      "channel": 5,
      "note": 76,
      "start": 240.7852,
      "duration": 0.1089,
      "velocity": 94,
      "chip": "ym2612"
    },
    {
      "channel": 0,
      "note": 98,
      "start": 240.8937,
      "duration": 0.0309,
      "velocity": 114,
      "chip": "ym2612"
    },
    {
      "channel": 3,
      "note": 76,
      "start": 240.8939,
      "duration": 0.109,
      "velocity": 94,
      "chip": "ym2612"
    },
    {
      "channel": 5,
      "note": 81,
      "start": 240.8942,
      "duration": 0.109,
      "velocity": 94,
      "chip": "ym2612"
    },
    {
      "channel": 0,
      "note": 98,
      "start": 241.0026,
      "duration": 0.0154,
      "velocity": 127,
      "chip": "ym2612"
    },
    {
      "channel": 1,
      "note": 62,
      "start": 241.0027,
      "duration": 0.2178,
      "velocity": 93,
      "chip": "ym2612"
    },
    {
      "channel": 3,
      "note": 81,
      "start": 241.0029,
      "duration": 0.1089,
      "velocity": 94,
      "chip": "ym2612"
    },
    {
      "channel": 5,
      "note": 69,
      "start": 241.0032,
      "duration": 0.1089,
      "velocity": 94,
      "chip": "ym2612"
    },
    {
      "channel": 0,
      "note": 76,
      "start": 241.018,
      "duration": 0.0936,
      "velocity": 114,
      "chip": "ym2612"
    },
    {
      "channel": 0,
      "note": 68,
      "start": 241.1115,
      "duration": 0.0309,
      "velocity": 114,
      "chip": "ym2612"
    },
    {
      "channel": 3,
      "note": 69,
      "start": 241.1118,
      "duration": 0.109,
      "velocity": 94,
      "chip": "ym2612"
    },
    {
      "channel": 5,
      "note": 81,
      "start": 241.1121,
      "duration": 0.109,
      "velocity": 94,
      "chip": "ym2612"
    },
    {
      "channel": 0,
      "note": 98,
      "start": 241.2205,
      "duration": 0.0309,
      "velocity": 114,
      "chip": "ym2612"
    },
    {
      "channel": 1,
      "note": 62,
      "start": 241.2206,
      "duration": 0.2179,
      "velocity": 93,
      "chip": "ym2612"
    },
    {
      "channel": 3,
      "note": 81,
      "start": 241.2208,
      "duration": 0.1089,
      "velocity": 94,
      "chip": "ym2612"
    },
    {
      "channel": 5,
      "note": 71,
      "start": 241.221,
      "duration": 0.1089,
      "velocity": 94,
      "chip": "ym2612"
    },
    {
      "channel": 0,
      "note": 98,
      "start": 241.3294,
      "duration": 0.0309,
      "velocity": 114,
      "chip": "ym2612"
    },
    {
      "channel": 3,
      "note": 71,
      "start": 241.3297,
      "duration": 0.109,
      "velocity": 94,
      "chip": "ym2612"
    },
    {
      "channel": 5,
      "note": 74,
      "start": 241.3299,
      "duration": 0.109,
      "velocity": 94,
      "chip": "ym2612"
    },
    {
      "channel": 0,
      "note": 98,
      "start": 241.4384,
      "duration": 0.1089,
      "velocity": 127,
      "chip": "ym2612"
    },
    {
      "channel": 1,
      "note": 62,
      "start": 241.4385,
      "duration": 0.2178,
      "velocity": 93,
      "chip": "ym2612"
    },
    {
      "channel": 3,
      "note": 74,
      "start": 241.4387,
      "duration": 0.1088,
      "velocity": 94,
      "chip": "ym2612"
    },
    {
      "channel": 0,
      "note": 54,
      "start": 241.5473,
      "duration": 0.0154,
      "velocity": 127,
      "chip": "ym2612"
    },
    {
      "channel": 5,
      "note": 76,
      "start": 241.5478,
      "duration": 0.109,
      "velocity": 94,
      "chip": "ym2612"
    },
    {
      "channel": 0,
      "note": 76,
      "start": 241.5627,
      "duration": 0.0936,
      "velocity": 114,
      "chip": "ym2612"
    },
    {
      "channel": 0,
      "note": 68,
      "start": 241.6563,
      "duration": 0.0309,
      "velocity": 114,
      "chip": "ym2612"
    },
    {
      "channel": 1,
      "note": 62,
      "start": 241.6564,
      "duration": 0.2179,
      "velocity": 93,
      "chip": "ym2612"
    },
    {
      "channel": 3,
      "note": 76,
      "start": 241.6566,
      "duration": 0.1089,
      "velocity": 94,
      "chip": "ym2612"
    },
    {
      "channel": 5,
      "note": 78,
      "start": 241.6569,
      "duration": 0.1088,
      "velocity": 94,
      "chip": "ym2612"
    },
    {
      "channel": 0,
      "note": 98,
      "start": 241.7652,
      "duration": 0.0309,
      "velocity": 114,
      "chip": "ym2612"
    },
    {
      "channel": 5,
      "note": 81,
      "start": 241.7657,
      "duration": 0.1092,
      "velocity": 94,
      "chip": "ym2612"
    },
    {
      "channel": 0,
      "note": 98,
      "start": 241.8742,
      "duration": 0.1089,
      "velocity": 114,
      "chip": "ym2612"
    },
    {
      "channel": 1,
      "note": 62,
      "start": 241.8743,
      "duration": 0.2178,
      "velocity": 93,
      "chip": "ym2612"
    },
    {
      "channel": 2,
      "note": 50,
      "start": 241.8744,
      "duration": 3.0504,
      "velocity": 121,
      "chip": "ym2612"
    },
    {
      "channel": 3,
      "note": 78,
      "start": 241.8746,
      "duration": 0.1087,
      "velocity": 94,
      "chip": "ym2612"
    },
    {
      "channel": 5,
      "note": 69,
      "start": 241.8748,
      "duration": 0.1088,
      "velocity": 94,
      "chip": "ym2612"
    },
    {
      "channel": 0,
      "note": 54,
      "start": 241.9831,
      "duration": 0.0309,
      "velocity": 114,
      "chip": "ym2612"
    },
    {
      "channel": 3,
      "note": 81,
      "start": 241.9834,
      "duration": 0.109,
      "velocity": 94,
      "chip": "ym2612"
    },
    {
      "channel": 5,
      "note": 74,
      "start": 241.9836,
      "duration": 0.109,
      "velocity": 94,
      "chip": "ym2612"
    },
    {
      "channel": 4,
      "note": 50,
      "start": 242.061,
      "duration": 3.0504,
      "velocity": 121,
      "chip": "ym2612"
    },
    {
      "channel": 0,
      "note": 98,
      "start": 242.092,
      "duration": 0.0309,
      "velocity": 114,
      "chip": "ym2612"
    },
    {
      "channel": 1,
      "note": 59,
      "start": 242.0921,
      "duration": 0.2179,
      "velocity": 93,
      "chip": "ym2612"
    },
    {
      "channel": 3,
      "note": 69,
      "start": 242.0923,
      "duration": 0.1089,
      "velocity": 94,
      "chip": "ym2612"
    },
    {
      "channel": 0,
      "note": 98,
      "start": 242.201,
      "duration": 0.0309,
      "velocity": 114,
      "chip": "ym2612"
    },
    {
      "channel": 3,
      "note": 74,
      "start": 242.2012,
      "duration": 0.109,
      "velocity": 94,
      "chip": "ym2612"
    },
    {
      "channel": 5,
      "note": 76,
      "start": 242.2015,
      "duration": 0.109,
      "velocity": 94,
      "chip": "ym2612"
    },
    {
      "channel": 0,
      "note": 98,
      "start": 242.3099,
      "duration": 0.0154,
      "velocity": 127,
      "chip": "ym2612"
    },
    {
      "channel": 1,
      "note": 59,
      "start": 242.31,
      "duration": 0.2178,
      "velocity": 93,
      "chip": "ym2612"
    },
    {
      "channel": 5,
      "note": 81,
      "start": 242.3105,
      "duration": 0.1089,
      "velocity": 94,
      "chip": "ym2612"
    },
    {
      "channel": 0,
      "note": 76,
      "start": 242.3253,
      "duration": 0.0936,
      "velocity": 114,
      "chip": "ym2612"
    },
    {
      "channel": 0,
      "note": 68,
      "start": 242.4188,
      "duration": 0.0309,
      "velocity": 114,
      "chip": "ym2612"
    },
    {
      "channel": 3,
      "note": 76,
      "start": 242.4191,
      "duration": 0.109,
      "velocity": 94,
      "chip": "ym2612"
    },
    {
      "channel": 5,
      "note": 69,
      "start": 242.4194,
      "duration": 0.109,
      "velocity": 94,
      "chip": "ym2612"
    },
    {
      "channel": 0,
      "note": 98,
      "start": 242.5278,
      "duration": 0.0309,
      "velocity": 114,
      "chip": "ym2612"
    },
    {
      "channel": 1,
      "note": 59,
      "start": 242.5279,
      "duration": 0.2179,
      "velocity": 93,
      "chip": "ym2612"
    },
    {
      "channel": 3,
      "note": 81,
      "start": 242.5281,
      "duration": 0.1089,
      "velocity": 94,
      "chip": "ym2612"
    },
    {
      "channel": 5,
      "note": 81,
      "start": 242.5283,
      "duration": 0.1089,
      "velocity": 94,
      "chip": "ym2612"
    },
    {
      "channel": 0,
      "note": 98,
      "start": 242.6367,
      "duration": 0.0309,
      "velocity": 114,
      "chip": "ym2612"
    },
    {
      "channel": 3,
      "note": 69,
      "start": 242.637,
      "duration": 0.109,
      "velocity": 94,
      "chip": "ym2612"
    },
    {
      "channel": 5,
      "note": 71,
      "start": 242.6372,
      "duration": 0.109,
      "velocity": 94,
      "chip": "ym2612"
    },
    {
      "channel": 0,
      "note": 98,
      "start": 242.7457,
      "duration": 0.1089,
      "velocity": 114,
      "chip": "ym2612"
    },
    {
      "channel": 1,
      "note": 59,
      "start": 242.7458,
      "duration": 0.2178,
      "velocity": 93,
      "chip": "ym2612"
    },
    {
      "channel": 3,
      "note": 81,
      "start": 242.746,
      "duration": 0.1089,
      "velocity": 94,
      "chip": "ym2612"
    },
    {
      "channel": 5,
      "note": 74,
      "start": 242.7463,
      "duration": 0.1089,
      "velocity": 94,
      "chip": "ym2612"
    },
    {
      "channel": 0,
      "note": 54,
      "start": 242.8546,
      "duration": 0.0309,
      "velocity": 114,
      "chip": "ym2612"
    },
    {
      "channel": 3,
      "note": 71,
      "start": 242.8549,
      "duration": 0.109,
      "velocity": 94,
      "chip": "ym2612"
    },
    {
      "channel": 0,
      "note": 98,
      "start": 242.9636,
      "duration": 0.0309,
      "velocity": 114,
      "chip": "ym2612"
    },
    {
      "channel": 1,
      "note": 59,
      "start": 242.9637,
      "duration": 0.2179,
      "velocity": 93,
      "chip": "ym2612"
    },
    {
      "channel": 3,
      "note": 74,
      "start": 242.9639,
      "duration": 0.1089,
      "velocity": 94,
      "chip": "ym2612"
    },
    {
      "channel": 5,
      "note": 76,
      "start": 242.9641,
      "duration": 0.1089,
      "velocity": 94,
      "chip": "ym2612"
    },
    {
      "channel": 0,
      "note": 98,
      "start": 243.0725,
      "duration": 0.0309,
      "velocity": 114,
      "chip": "ym2612"
    },
    {
      "channel": 5,
      "note": 78,
      "start": 243.073,
      "duration": 0.109,
      "velocity": 94,
      "chip": "ym2612"
    },
    {
      "channel": 0,
      "note": 98,
      "start": 243.1814,
      "duration": 0.0154,
      "velocity": 127,
      "chip": "ym2612"
    },
    {
      "channel": 1,
      "note": 59,
      "start": 243.1816,
      "duration": 0.2179,
      "velocity": 93,
      "chip": "ym2612"
    },
    {
      "channel": 3,
      "note": 76,
      "start": 243.1818,
      "duration": 0.109,
      "velocity": 94,
      "chip": "ym2612"
    },
    {
      "channel": 5,
      "note": 81,
      "start": 243.182,
      "duration": 0.109,
      "velocity": 94,
      "chip": "ym2612"
    },
    {
      "channel": 0,
      "note": 76,
      "start": 243.1968,
      "duration": 0.0937,
      "velocity": 114,
      "chip": "ym2612"
    },
    {
      "channel": 0,
      "note": 68,
      "start": 243.2905,
      "duration": 0.0307,
      "velocity": 114,
      "chip": "ym2612"
    },
    {
      "channel": 5,
      "note": 69,
      "start": 243.291,
      "duration": 0.1089,
      "velocity": 94,
      "chip": "ym2612"
    },
    {
      "channel": 0,
      "note": 98,
      "start": 243.3993,
      "duration": 0.0309,
      "velocity": 114,
      "chip": "ym2612"
    },
    {
      "channel": 1,
      "note": 59,
      "start": 243.3994,
      "duration": 0.2179,
      "velocity": 93,
      "chip": "ym2612"
    },
    {
      "channel": 3,
      "note": 78,
      "start": 243.3997,
      "duration": 0.1088,
      "velocity": 94,
      "chip": "ym2612"
    },
    {
      "channel": 5,
      "note": 74,
      "start": 243.4,
      "duration": 0.1088,
      "velocity": 94,
      "chip": "ym2612"
    },
    {
      "channel": 0,
      "note": 98,
      "start": 243.5083,
      "duration": 0.0309,
      "velocity": 114,
      "chip": "ym2612"
    },
    {
      "channel": 3,
      "note": 81,
      "start": 243.5085,
      "duration": 0.109,
      "velocity": 94,
      "chip": "ym2612"
    },
    {
      "channel": 0,
      "note": 98,
      "start": 243.6172,
      "duration": 0.1089,
      "velocity": 114,
      "chip": "ym2612"
    },
    {
      "channel": 1,
      "note": 59,
      "start": 243.6174,
      "duration": 0.2178,
      "velocity": 93,
      "chip": "ym2612"
    },
    {
      "channel": 3,
      "note": 69,
      "start": 243.6176,
      "duration": 0.1089,
      "velocity": 94,
      "chip": "ym2612"
    },
    {
      "channel": 5,
      "note": 76,
      "start": 243.6178,
      "duration": 0.1089,
      "velocity": 94,
      "chip": "ym2612"
    },
    {
      "channel": 0,
      "note": 54,
      "start": 243.7261,
      "duration": 0.031,
      "velocity": 114,
      "chip": "ym2612"
    },
    {
      "channel": 3,
      "note": 74,
      "start": 243.7264,
      "duration": 0.1089,
      "velocity": 94,
      "chip": "ym2612"
    },
    {
      "channel": 5,
      "note": 81,
      "start": 243.7267,
      "duration": 0.1089,
      "velocity": 94,
      "chip": "ym2612"
    },
    {
      "channel": 0,
      "note": 98,
      "start": 243.8351,
      "duration": 0.0309,
      "velocity": 114,
      "chip": "ym2612"
    },
    {
      "channel": 1,
      "note": 59,
      "start": 243.8352,
      "duration": 0.2179,
      "velocity": 93,
      "chip": "ym2612"
    },
    {
      "channel": 5,
      "note": 69,
      "start": 243.8356,
      "duration": 0.1089,
      "velocity": 94,
      "chip": "ym2612"
    },
    {
      "channel": 0,
      "note": 98,
      "start": 243.944,
      "duration": 0.0309,
      "velocity": 114,
      "chip": "ym2612"
    },
    {
      "channel": 3,
      "note": 76,
      "start": 243.9443,
      "duration": 0.109,
      "velocity": 94,
      "chip": "ym2612"
    },
    {
      "channel": 5,
      "note": 81,
      "start": 243.9445,
      "duration": 0.109,
      "velocity": 94,
      "chip": "ym2612"
    },
    {
      "channel": 0,
      "note": 98,
      "start": 244.053,
      "duration": 0.0154,
      "velocity": 127,
      "chip": "ym2612"
    },
    {
      "channel": 1,
      "note": 59,
      "start": 244.0531,
      "duration": 0.2178,
      "velocity": 93,
      "chip": "ym2612"
    },
    {
      "channel": 3,
      "note": 81,
      "start": 244.0533,
      "duration": 0.1089,
      "velocity": 94,
      "chip": "ym2612"
    },
    {
      "channel": 5,
      "note": 71,
      "start": 244.0535,
      "duration": 0.1089,
      "velocity": 94,
      "chip": "ym2612"
    },
    {
      "channel": 0,
      "note": 76,
      "start": 244.0683,
      "duration": 0.0936,
      "velocity": 114,
      "chip": "ym2612"
    },
    {
      "channel": 0,
      "note": 68,
      "start": 244.1619,
      "duration": 0.0309,
      "velocity": 114,
      "chip": "ym2612"
    },
    {
      "channel": 3,
      "note": 69,
      "start": 244.1622,
      "duration": 0.109,
      "velocity": 94,
      "chip": "ym2612"
    },
    {
      "channel": 5,
      "note": 74,
      "start": 244.1624,
      "duration": 0.109,
      "velocity": 94,
      "chip": "ym2612"
    },
    {
      "channel": 0,
      "note": 98,
      "start": 244.2709,
      "duration": 0.0309,
      "velocity": 114,
      "chip": "ym2612"
    },
    {
      "channel": 1,
      "note": 59,
      "start": 244.271,
      "duration": 0.2179,
      "velocity": 93,
      "chip": "ym2612"
    },
    {
      "channel": 3,
      "note": 81,
      "start": 244.2712,
      "duration": 0.1089,
      "velocity": 94,
      "chip": "ym2612"
    },
    {
      "channel": 0,
      "note": 98,
      "start": 244.3798,
      "duration": 0.0309,
      "velocity": 114,
      "chip": "ym2612"
    },
    {
      "channel": 3,
      "note": 71,
      "start": 244.3801,
      "duration": 0.109,
      "velocity": 94,
      "chip": "ym2612"
    },
    {
      "channel": 5,
      "note": 76,
      "start": 244.3803,
      "duration": 0.1091,
      "velocity": 94,
      "chip": "ym2612"
    },
    {
      "channel": 0,
      "note": 98,
      "start": 244.4888,
      "duration": 0.1089,
      "velocity": 127,
      "chip": "ym2612"
    },
    {
      "channel": 1,
      "note": 59,
      "start": 244.4889,
      "duration": 0.2178,
      "velocity": 93,
      "chip": "ym2612"
    },
    {
      "channel": 3,
      "note": 74,
      "start": 244.4891,
      "duration": 0.1089,
      "velocity": 94,
      "chip": "ym2612"
    },
    {
      "channel": 5,
      "note": 78,
      "start": 244.4894,
      "duration": 0.1088,
      "velocity": 94,
      "chip": "ym2612"
    },
    {
      "channel": 0,
      "note": 54,
      "start": 244.5977,
      "duration": 0.0154,
      "velocity": 127,
      "chip": "ym2612"
    },
    {
      "channel": 5,
      "note": 81,
      "start": 244.5982,
      "duration": 0.1092,
      "velocity": 94,
      "chip": "ym2612"
    },
    {
      "channel": 0,
      "note": 76,
      "start": 244.613,
      "duration": 0.0936,
      "velocity": 114,
      "chip": "ym2612"
    },
    {
      "channel": 0,
      "note": 68,
      "start": 244.7066,
      "duration": 0.0309,
      "velocity": 114,
      "chip": "ym2612"
    },
    {
      "channel": 1,
      "note": 59,
      "start": 244.7068,
      "duration": 0.2179,
      "velocity": 93,
      "chip": "ym2612"
    },
    {
      "channel": 3,
      "note": 76,
      "start": 244.7071,
      "duration": 0.1087,
      "velocity": 94,
      "chip": "ym2612"
    },
    {
      "channel": 5,
      "note": 69,
      "start": 244.7073,
      "duration": 0.1087,
      "velocity": 94,
      "chip": "ym2612"
    },
    {
      "channel": 0,
      "note": 98,
      "start": 244.8156,
      "duration": 0.0309,
      "velocity": 114,
      "chip": "ym2612"
    },
    {
      "channel": 5,
      "note": 74,
      "start": 244.8161,
      "duration": 0.1091,
      "velocity": 94,
      "chip": "ym2612"
    },
    {
      "channel": 0,
      "note": 98,
      "start": 244.9245,
      "duration": 0.1089,
      "velocity": 114,
      "chip": "ym2612"
    },
    {
      "channel": 1,
      "note": 59,
      "start": 244.9247,
      "duration": 0.2178,
      "velocity": 93,
      "chip": "ym2612"
    },
    {
      "channel": 2,
      "note": 47,
      "start": 244.9248,
      "duration": 3.0504,
      "velocity": 121,
      "chip": "ym2612"
    },
    {
      "channel": 3,
      "note": 78,
      "start": 244.925,
      "duration": 0.1087,
      "velocity": 94,
      "chip": "ym2612"
    },
    {
      "channel": 0,
      "note": 54,
      "start": 245.0334,
      "duration": 0.0309,
      "velocity": 114,
      "chip": "ym2612"
    },
    {
      "channel": 3,
      "note": 81,
      "start": 245.0337,
      "duration": 0.109,
      "velocity": 94,
      "chip": "ym2612"
    },
    {
      "channel": 5,
      "note": 76,
      "start": 245.0339,
      "duration": 0.109,
      "velocity": 94,
      "chip": "ym2612"
    },
    {
      "channel": 4,
      "note": 47,
      "start": 245.1114,
      "duration": 3.0503,
      "velocity": 121,
      "chip": "ym2612"
    },
    {
      "channel": 0,
      "note": 98,
      "start": 245.1424,
      "duration": 0.0309,
      "velocity": 114,
      "chip": "ym2612"
    },
    {
      "channel": 1,
      "note": 64,
      "start": 245.1425,
      "duration": 0.2179,
      "velocity": 93,
      "chip": "ym2612"
    },
    {
      "channel": 3,
      "note": 69,
      "start": 245.1427,
      "duration": 0.1089,
      "velocity": 94,
      "chip": "ym2612"
    },
    {
      "channel": 5,
      "note": 81,
      "start": 245.1429,
      "duration": 0.1089,
      "velocity": 94,
      "chip": "ym2612"
    },
    {
      "channel": 0,
      "note": 98,
      "start": 245.2513,
      "duration": 0.0309,
      "velocity": 114,
      "chip": "ym2612"
    },
    {
      "channel": 3,
      "note": 74,
      "start": 245.2516,
      "duration": 0.109,
      "velocity": 94,
      "chip": "ym2612"
    },
    {
      "channel": 5,
      "note": 69,
      "start": 245.2518,
      "duration": 0.109,
      "velocity": 94,
      "chip": "ym2612"
    },
    {
      "channel": 0,
      "note": 98,
      "start": 245.3603,
      "duration": 0.0154,
      "velocity": 127,
      "chip": "ym2612"
    },
    {
      "channel": 1,
      "note": 64,
      "start": 245.3604,
      "duration": 0.2178,
      "velocity": 93,
      "chip": "ym2612"
    },
    {
      "channel": 5,
      "note": 81,
      "start": 245.3608,
      "duration": 0.1089,
      "velocity": 94,
      "chip": "ym2612"
    },
    {
      "channel": 0,
      "note": 76,
      "start": 245.3756,
      "duration": 0.0936,
      "velocity": 114,
      "chip": "ym2612"
    },
    {
      "channel": 0,
      "note": 68,
      "start": 245.4692,
      "duration": 0.0309,
      "velocity": 114,
      "chip": "ym2612"
    },
    {
      "channel": 3,
      "note": 76,
      "start": 245.4695,
      "duration": 0.109,
      "velocity": 94,
      "chip": "ym2612"
    },
    {
      "channel": 5,
      "note": 71,
      "start": 245.4697,
      "duration": 0.109,
      "velocity": 94,
      "chip": "ym2612"
    },
    {
      "channel": 0,
      "note": 98,
      "start": 245.5782,
      "duration": 0.0309,
      "velocity": 114,
      "chip": "ym2612"
    },
    {
      "channel": 1,
      "note": 64,
      "start": 245.5783,
      "duration": 0.2179,
      "velocity": 93,
      "chip": "ym2612"
    },
    {
      "channel": 3,
      "note": 81,
      "start": 245.5785,
      "duration": 0.1089,
      "velocity": 94,
      "chip": "ym2612"
    },
    {
      "channel": 5,
      "note": 74,
      "start": 245.5787,
      "duration": 0.1089,
      "velocity": 94,
      "chip": "ym2612"
    },
    {
      "channel": 0,
      "note": 98,
      "start": 245.6871,
      "duration": 0.0309,
      "velocity": 114,
      "chip": "ym2612"
    },
    {
      "channel": 3,
      "note": 69,
      "start": 245.6874,
      "duration": 0.109,
      "velocity": 94,
      "chip": "ym2612"
    },
    {
      "channel": 0,
      "note": 98,
      "start": 245.7961,
      "duration": 0.1089,
      "velocity": 114,
      "chip": "ym2612"
    },
    {
      "channel": 1,
      "note": 64,
      "start": 245.7962,
      "duration": 0.2178,
      "velocity": 93,
      "chip": "ym2612"
    },
    {
      "channel": 3,
      "note": 81,
      "start": 245.7964,
      "duration": 0.1089,
      "velocity": 94,
      "chip": "ym2612"
    },
    {
      "channel": 5,
      "note": 76,
      "start": 245.7966,
      "duration": 0.1089,
      "velocity": 94,
      "chip": "ym2612"
    },
    {
      "channel": 0,
      "note": 54,
      "start": 245.905,
      "duration": 0.0309,
      "velocity": 114,
      "chip": "ym2612"
    },
    {
      "channel": 3,
      "note": 71,
      "start": 245.9053,
      "duration": 0.109,
      "velocity": 94,
      "chip": "ym2612"
    },
    {
      "channel": 5,
      "note": 78,
      "start": 245.9056,
      "duration": 0.1089,
      "velocity": 94,
      "chip": "ym2612"
    },
    {
      "channel": 0,
      "note": 98,
      "start": 246.0139,
      "duration": 0.0309,
      "velocity": 114,
      "chip": "ym2612"
    },
    {
      "channel": 1,
      "note": 64,
      "start": 246.014,
      "duration": 0.2179,
      "velocity": 93,
      "chip": "ym2612"
    },
    {
      "channel": 3,
      "note": 74,
      "start": 246.0142,
      "duration": 0.1089,
      "velocity": 94,
      "chip": "ym2612"
    },
    {
      "channel": 5,
      "note": 81,
      "start": 246.0145,
      "duration": 0.1088,
      "velocity": 94,
      "chip": "ym2612"
    },
    {
      "channel": 0,
      "note": 98,
      "start": 246.1229,
      "duration": 0.0309,
      "velocity": 114,
      "chip": "ym2612"
    },
    {
      "channel": 5,
      "note": 69,
      "start": 246.1234,
      "duration": 0.109,
      "velocity": 94,
      "chip": "ym2612"
    },
    {
      "channel": 0,
      "note": 98,
      "start": 246.2318,
      "duration": 0.0154,
      "velocity": 127,
      "chip": "ym2612"
    },
    {
      "channel": 1,
      "note": 64,
      "start": 246.232,
      "duration": 0.2178,
      "velocity": 93,
      "chip": "ym2612"
    },
    {
      "channel": 3,
      "note": 76,
      "start": 246.2321,
      "duration": 0.1089,
      "velocity": 94,
      "chip": "ym2612"
    },
    {
      "channel": 5,
      "note": 74,
      "start": 246.2324,
      "duration": 0.1089,
      "velocity": 94,
      "chip": "ym2612"
    },
    {
      "channel": 0,
      "note": 76,
      "start": 246.2472,
      "duration": 0.0936,
      "velocity": 114,
      "chip": "ym2612"
    },
    {
      "channel": 0,
      "note": 68,
      "start": 246.3407,
      "duration": 0.0309,
      "velocity": 114,
      "chip": "ym2612"
    },
    {
      "channel": 0,
      "note": 98,
      "start": 246.4497,
      "duration": 0.0309,
      "velocity": 114,
      "chip": "ym2612"
    },
    {
      "channel": 1,
      "note": 64,
      "start": 246.4498,
      "duration": 0.2179,
      "velocity": 93,
      "chip": "ym2612"
    },
    {
      "channel": 3,
      "note": 78,
      "start": 246.4501,
      "duration": 0.1088,
      "velocity": 94,
      "chip": "ym2612"
    },
    {
      "channel": 5,
      "note": 76,
      "start": 246.4503,
      "duration": 0.1088,
      "velocity": 94,
      "chip": "ym2612"
    },
    {
      "channel": 0,
      "note": 98,
      "start": 246.5586,
      "duration": 0.0309,
      "velocity": 114,
      "chip": "ym2612"
    },
    {
      "channel": 3,
      "note": 81,
      "start": 246.5589,
      "duration": 0.109,
      "velocity": 94,
      "chip": "ym2612"
    },
    {
      "channel": 5,
      "note": 81,
      "start": 246.5591,
      "duration": 0.109,
      "velocity": 94,
      "chip": "ym2612"
    },
    {
      "channel": 0,
      "note": 98,
      "start": 246.6676,
      "duration": 0.1089,
      "velocity": 114,
      "chip": "ym2612"
    },
    {
      "channel": 1,
      "note": 64,
      "start": 246.6677,
      "duration": 0.2178,
      "velocity": 93,
      "chip": "ym2612"
    },
    {
      "channel": 3,
      "note": 69,
      "start": 246.6679,
      "duration": 0.1089,
      "velocity": 94,
      "chip": "ym2612"
    },
    {
      "channel": 5,
      "note": 69,
      "start": 246.6682,
      "duration": 0.1089,
      "velocity": 94,
      "chip": "ym2612"
    },
    {
      "channel": 0,
      "note": 54,
      "start": 246.7765,
      "duration": 0.0309,
      "velocity": 114,
      "chip": "ym2612"
    },
    {
      "channel": 3,
      "note": 74,
      "start": 246.7768,
      "duration": 0.109,
      "velocity": 94,
      "chip": "ym2612"
    },
    {
      "channel": 5,
      "note": 81,
      "start": 246.777,
      "duration": 0.1089,
      "velocity": 94,
      "chip": "ym2612"
    },
    {
      "channel": 0,
      "note": 98,
      "start": 246.8855,
      "duration": 0.0309,
      "velocity": 114,
      "chip": "ym2612"
    },
    {
      "channel": 1,
      "note": 64,
      "start": 246.8856,
      "duration": 0.2179,
      "velocity": 93,
      "chip": "ym2612"
    },
    {
      "channel": 5,
      "note": 71,
      "start": 246.886,
      "duration": 0.1089,
      "velocity": 94,
      "chip": "ym2612"
    },
    {
      "channel": 0,
      "note": 98,
      "start": 246.9944,
      "duration": 0.0309,
      "velocity": 114,
      "chip": "ym2612"
    },
    {
      "channel": 3,
      "note": 76,
      "start": 246.9946,
      "duration": 0.109,
      "velocity": 94,
      "chip": "ym2612"
    },
    {
      "channel": 5,
      "note": 74,
      "start": 246.9949,
      "duration": 0.109,
      "velocity": 94,
      "chip": "ym2612"
    },
    {
      "channel": 0,
      "note": 98,
      "start": 247.1033,
      "duration": 0.0154,
      "velocity": 127,
      "chip": "ym2612"
    },
    {
      "channel": 1,
      "note": 64,
      "start": 247.1035,
      "duration": 0.2179,
      "velocity": 93,
      "chip": "ym2612"
    },
    {
      "channel": 3,
      "note": 81,
      "start": 247.1037,
      "duration": 0.1089,
      "velocity": 94,
      "chip": "ym2612"
    },
    {
      "channel": 0,
      "note": 76,
      "start": 247.1187,
      "duration": 0.0936,
      "velocity": 114,
      "chip": "ym2612"
    },
    {
      "channel": 0,
      "note": 68,
      "start": 247.2123,
      "duration": 0.0309,
      "velocity": 114,
      "chip": "ym2612"
    },
    {
      "channel": 3,
      "note": 69,
      "start": 247.2126,
      "duration": 0.109,
      "velocity": 94,
      "chip": "ym2612"
    },
    {
      "channel": 5,
      "note": 76,
      "start": 247.2128,
      "duration": 0.109,
      "velocity": 94,
      "chip": "ym2612"
    },
    {
      "channel": 0,
      "note": 98,
      "start": 247.3212,
      "duration": 0.0309,
      "velocity": 114,
      "chip": "ym2612"
    },
    {
      "channel": 1,
      "note": 64,
      "start": 247.3213,
      "duration": 0.2179,
      "velocity": 93,
      "chip": "ym2612"
    },
    {
      "channel": 3,
      "note": 81,
      "start": 247.3215,
      "duration": 0.1089,
      "velocity": 94,
      "chip": "ym2612"
    },
    {
      "channel": 5,
      "note": 78,
      "start": 247.3218,
      "duration": 0.1088,
      "velocity": 94,
      "chip": "ym2612"
    },
    {
      "channel": 0,
      "note": 98,
      "start": 247.4302,
      "duration": 0.0309,
      "velocity": 114,
      "chip": "ym2612"
    },
    {
      "channel": 3,
      "note": 71,
      "start": 247.4304,
      "duration": 0.109,
      "velocity": 94,
      "chip": "ym2612"
    },
    {
      "channel": 5,
      "note": 81,
      "start": 247.4307,
      "duration": 0.109,
      "velocity": 94,
      "chip": "ym2612"
    },
    {
      "channel": 0,
      "note": 98,
      "start": 247.5391,
      "duration": 0.1089,
      "velocity": 127,
      "chip": "ym2612"
    },
    {
      "channel": 1,
      "note": 64,
      "start": 247.5393,
      "duration": 0.218,
      "velocity": 93,
      "chip": "ym2612"
    },
    {
      "channel": 3,
      "note": 74,
      "start": 247.5395,
      "duration": 0.1089,
      "velocity": 94,
      "chip": "ym2612"
    },
    {
      "channel": 5,
      "note": 69,
      "start": 247.5397,
      "duration": 0.1089,
      "velocity": 94,
      "chip": "ym2612"
    },
    {
      "channel": 0,
      "note": 54,
      "start": 247.648,
      "duration": 0.0154,
      "velocity": 127,
      "chip": "ym2612"
    },
    {
      "channel": 5,
      "note": 74,
      "start": 247.6485,
      "duration": 0.1092,
      "velocity": 94,
      "chip": "ym2612"
    },
    {
      "channel": 0,
      "note": 76,
      "start": 247.6634,
      "duration": 0.0937,
      "velocity": 114,
      "chip": "ym2612"
    },
    {
      "channel": 0,
      "note": 68,
      "start": 247.7572,
      "duration": 0.0307,
      "velocity": 114,
      "chip": "ym2612"
    },
    {
      "channel": 1,
      "note": 64,
      "start": 247.7573,
      "duration": 0.2178,
      "velocity": 93,
      "chip": "ym2612"
    },
    {
      "channel": 3,
      "note": 76,
      "start": 247.7575,
      "duration": 0.1087,
      "velocity": 94,
      "chip": "ym2612"
    },
    {
      "channel": 0,
      "note": 98,
      "start": 247.8659,
      "duration": 0.0309,
      "velocity": 114,
      "chip": "ym2612"
    },
    {
      "channel": 5,
      "note": 76,
      "start": 247.8664,
      "duration": 0.1092,
      "velocity": 94,
      "chip": "ym2612"
    },
    {
      "channel": 0,
      "note": 98,
      "start": 247.9749,
      "duration": 0.1089,
      "velocity": 114,
      "chip": "ym2612"
    },
    {
      "channel": 1,
      "note": 64,
      "start": 247.975,
      "duration": 0.2178,
      "velocity": 93,
      "chip": "ym2612"
    },
    {
      "channel": 2,
      "note": 52,
      "start": 247.9751,
      "duration": 3.0504,
      "velocity": 121,
      "chip": "ym2612"
    },
    {
      "channel": 3,
      "note": 78,
      "start": 247.9753,
      "duration": 0.1087,
      "velocity": 94,
      "chip": "ym2612"
    },
    {
      "channel": 5,
      "note": 81,
      "start": 247.9756,
      "duration": 0.1087,
      "velocity": 94,
      "chip": "ym2612"
    },
    {
      "channel": 0,
      "note": 54,
      "start": 248.0838,
      "duration": 0.0309,
      "velocity": 114,
      "chip": "ym2612"
    },
    {
      "channel": 3,
      "note": 81,
      "start": 248.0841,
      "duration": 0.109,
      "velocity": 94,
      "chip": "ym2612"
    },
    {
      "channel": 5,
      "note": 69,
      "start": 248.0843,
      "duration": 0.109,
      "velocity": 94,
      "chip": "ym2612"
    },
    {
      "channel": 4,
      "note": 52,
      "start": 248.1617,
      "duration": 3.0504,
      "velocity": 121,
      "chip": "ym2612"
    },
    {
      "channel": 0,
      "note": 98,
      "start": 248.1928,
      "duration": 0.0311,
      "velocity": 114,
      "chip": "ym2612"
    },
    {
      "channel": 1,
      "note": 67,
      "start": 248.1929,
      "duration": 0.2179,
      "velocity": 93,
      "chip": "ym2612"
    },
    {
      "channel": 3,
      "note": 69,
      "start": 248.1931,
      "duration": 0.1089,
      "velocity": 94,
      "chip": "ym2612"
    },
    {
      "channel": 5,
      "note": 81,
      "start": 248.1933,
      "duration": 0.1089,
      "velocity": 94,
      "chip": "ym2612"
    },
    {
      "channel": 0,
      "note": 98,
      "start": 248.3017,
      "duration": 0.0309,
      "velocity": 114,
      "chip": "ym2612"
    },
    {
      "channel": 3,
      "note": 74,
      "start": 248.302,
      "duration": 0.109,
      "velocity": 94,
      "chip": "ym2612"
    },
    {
      "channel": 5,
      "note": 71,
      "start": 248.3022,
      "duration": 0.109,
      "velocity": 94,
      "chip": "ym2612"
    },
    {
      "channel": 0,
      "note": 98,
      "start": 248.4106,
      "duration": 0.0154,
      "velocity": 127,
      "chip": "ym2612"
    },
    {
      "channel": 1,
      "note": 67,
      "start": 248.4108,
      "duration": 0.2179,
      "velocity": 93,
      "chip": "ym2612"
    },
    {
      "channel": 5,
      "note": 74,
      "start": 248.4112,
      "duration": 0.1089,
      "velocity": 94,
      "chip": "ym2612"
    },
    {
      "channel": 0,
      "note": 76,
      "start": 248.426,
      "duration": 0.0936,
      "velocity": 114,
      "chip": "ym2612"
    },
    {
      "channel": 0,
      "note": 68,
      "start": 248.5196,
      "duration": 0.0309,
      "velocity": 114,
      "chip": "ym2612"
    },
    {
      "channel": 3,
      "note": 76,
      "start": 248.5199,
      "duration": 0.109,
      "velocity": 94,
      "chip": "ym2612"
    },
    {
      "channel": 0,
      "note": 98,
      "start": 248.6285,
      "duration": 0.0309,
      "velocity": 114,
      "chip": "ym2612"
    },
    {
      "channel": 1,
      "note": 67,
      "start": 248.6286,
      "duration": 0.2179,
      "velocity": 93,
      "chip": "ym2612"
    },
    {
      "channel": 3,
      "note": 81,
      "start": 248.6288,
      "duration": 0.1089,
      "velocity": 94,
      "chip": "ym2612"
    },
    {
      "channel": 5,
      "note": 76,
      "start": 248.6291,
      "duration": 0.1089,
      "velocity": 94,
      "chip": "ym2612"
    },
    {
      "channel": 0,
      "note": 98,
      "start": 248.7375,
      "duration": 0.0309,
      "velocity": 114,
      "chip": "ym2612"
    },
    {
      "channel": 3,
      "note": 69,
      "start": 248.7377,
      "duration": 0.109,
      "velocity": 94,
      "chip": "ym2612"
    },
    {
      "channel": 5,
      "note": 78,
      "start": 248.738,
      "duration": 0.109,
      "velocity": 94,
      "chip": "ym2612"
    },
    {
      "channel": 0,
      "note": 98,
      "start": 248.8464,
      "duration": 0.1089,
      "velocity": 114,
      "chip": "ym2612"
    },
    {
      "channel": 1,
      "note": 67,
      "start": 248.8466,
      "duration": 0.2178,
      "velocity": 93,
      "chip": "ym2612"
    },
    {
      "channel": 3,
      "note": 81,
      "start": 248.8468,
      "duration": 0.1089,
      "velocity": 94,
      "chip": "ym2612"
    },
    {
      "channel": 5,
      "note": 81,
      "start": 248.847,
      "duration": 0.1089,
      "velocity": 94,
      "chip": "ym2612"
    },
    {
      "channel": 0,
      "note": 54,
      "start": 248.9554,
      "duration": 0.0309,
      "velocity": 114,
      "chip": "ym2612"
    },
    {
      "channel": 3,
      "note": 71,
      "start": 248.9556,
      "duration": 0.109,
      "velocity": 94,
      "chip": "ym2612"
    },
    {
      "channel": 5,
      "note": 69,
      "start": 248.9559,
      "duration": 0.109,
      "velocity": 94,
      "chip": "ym2612"
    },
    {
      "channel": 0,
      "note": 98,
      "start": 249.0643,
      "duration": 0.0309,
      "velocity": 114,
      "chip": "ym2612"
    },
    {
      "channel": 1,
      "note": 67,
      "start": 249.0644,
      "duration": 0.2179,
      "velocity": 93,
      "chip": "ym2612"
    },
    {
      "channel": 3,
      "note": 74,
      "start": 249.0646,
      "duration": 0.1089,
      "velocity": 94,
      "chip": "ym2612"
    },
    {
      "channel": 5,
      "note": 74,
      "start": 249.0649,
      "duration": 0.109,
      "velocity": 94,
      "chip": "ym2612"
    },
    {
      "channel": 0,
      "note": 98,
      "start": 249.1732,
      "duration": 0.0309,
      "velocity": 114,
      "chip": "ym2612"
    },
    {
      "channel": 0,
      "note": 98,
      "start": 249.2822,
      "duration": 0.0154,
      "velocity": 127,
      "chip": "ym2612"
    },
    {
      "channel": 1,
      "note": 67,
      "start": 249.2823,
      "duration": 0.2178,
      "velocity": 93,
      "chip": "ym2612"
    },
    {
      "channel": 3,
      "note": 76,
      "start": 249.2825,
      "duration": 0.1089,
      "velocity": 94,
      "chip": "ym2612"
    },
    {
      "channel": 5,
      "note": 76,
      "start": 249.2827,
      "duration": 0.1089,
      "velocity": 94,
      "chip": "ym2612"
    },
    {
      "channel": 0,
      "note": 76,
      "start": 249.2975,
      "duration": 0.0936,
      "velocity": 114,
      "chip": "ym2612"
    },
    {
      "channel": 0,
      "note": 68,
      "start": 249.3911,
      "duration": 0.0309,
      "velocity": 114,
      "chip": "ym2612"
    },
    {
      "channel": 5,
      "note": 81,
      "start": 249.3916,
      "duration": 0.109,
      "velocity": 94,
      "chip": "ym2612"
    },
    {
      "channel": 0,
      "note": 98,
      "start": 249.5001,
      "duration": 0.0309,
      "velocity": 114,
      "chip": "ym2612"
    },
    {
      "channel": 1,
      "note": 67,
      "start": 249.5002,
      "duration": 0.2179,
      "velocity": 93,
      "chip": "ym2612"
    },
    {
      "channel": 3,
      "note": 78,
      "start": 249.5004,
      "duration": 0.1088,
      "velocity": 94,
      "chip": "ym2612"
    },
    {
      "channel": 5,
      "note": 69,
      "start": 249.5007,
      "duration": 0.1088,
      "velocity": 94,
      "chip": "ym2612"
    },
    {
      "channel": 0,
      "note": 98,
      "start": 249.609,
      "duration": 0.0309,
      "velocity": 114,
      "chip": "ym2612"
    },
    {
      "channel": 3,
      "note": 81,
      "start": 249.6093,
      "duration": 0.109,
      "velocity": 94,
      "chip": "ym2612"
    },
    {
      "channel": 5,
      "note": 81,
      "start": 249.6095,
      "duration": 0.109,
      "velocity": 94,
      "chip": "ym2612"
    },
    {
      "channel": 0,
      "note": 98,
      "start": 249.718,
      "duration": 0.1089,
      "velocity": 114,
      "chip": "ym2612"
    },
    {
      "channel": 1,
      "note": 67,
      "start": 249.7181,
      "duration": 0.2178,
      "velocity": 93,
      "chip": "ym2612"
    },
    {
      "channel": 3,
      "note": 69,
      "start": 249.7183,
      "duration": 0.1089,
      "velocity": 94,
      "chip": "ym2612"
    },
    {
      "channel": 5,
      "note": 71,
      "start": 249.7185,
      "duration": 0.1089,
      "velocity": 94,
      "chip": "ym2612"
    },
    {
      "channel": 0,
      "note": 54,
      "start": 249.8269,
      "duration": 0.0309,
      "velocity": 114,
      "chip": "ym2612"
    },
    {
      "channel": 3,
      "note": 74,
      "start": 249.8272,
      "duration": 0.109,
      "velocity": 94,
      "chip": "ym2612"
    },
    {
      "channel": 5,
      "note": 74,
      "start": 249.8274,
      "duration": 0.1089,
      "velocity": 94,
      "chip": "ym2612"
    },
    {
      "channel": 0,
      "note": 98,
      "start": 249.9358,
      "duration": 0.0309,
      "velocity": 114,
      "chip": "ym2612"
    },
    {
      "channel": 1,
      "note": 67,
      "start": 249.9359,
      "duration": 0.2179,
      "velocity": 93,
      "chip": "ym2612"
    },
    {
      "channel": 0,
      "note": 98,
      "start": 250.0448,
      "duration": 0.0309,
      "velocity": 114,
      "chip": "ym2612"
    },
    {
      "channel": 3,
      "note": 76,
      "start": 250.045,
      "duration": 0.109,
      "velocity": 94,
      "chip": "ym2612"
    },
    {
      "channel": 5,
      "note": 76,
      "start": 250.0453,
      "duration": 0.109,
      "velocity": 94,
      "chip": "ym2612"
    },
    {
      "channel": 0,
      "note": 98,
      "start": 250.1537,
      "duration": 0.0154,
      "velocity": 127,
      "chip": "ym2612"
    },
    {
      "channel": 1,
      "note": 67,
      "start": 250.1538,
      "duration": 0.2179,
      "velocity": 93,
      "chip": "ym2612"
    },
    {
      "channel": 3,
      "note": 81,
      "start": 250.154,
      "duration": 0.1089,
      "velocity": 94,
      "chip": "ym2612"
    },
    {
      "channel": 5,
      "note": 78,
      "start": 250.1543,
      "duration": 0.1088,
      "velocity": 94,
      "chip": "ym2612"
    },
    {
      "channel": 0,
      "note": 76,
      "start": 250.1691,
      "duration": 0.0936,
      "velocity": 114,
      "chip": "ym2612"
    },
    {
      "channel": 0,
      "note": 68,
      "start": 250.2627,
      "duration": 0.0309,
      "velocity": 114,
      "chip": "ym2612"
    },
    {
      "channel": 3,
      "note": 69,
      "start": 250.2629,
      "duration": 0.109,
      "velocity": 94,
      "chip": "ym2612"
    },
    {
      "channel": 5,
      "note": 81,
      "start": 250.2632,
      "duration": 0.109,
      "velocity": 94,
      "chip": "ym2612"
    },
    {
      "channel": 0,
      "note": 98,
      "start": 250.3716,
      "duration": 0.0309,
      "velocity": 114,
      "chip": "ym2612"
    },
    {
      "channel": 1,
      "note": 67,
      "start": 250.3717,
      "duration": 0.2179,
      "velocity": 93,
      "chip": "ym2612"
    },
    {
      "channel": 3,
      "note": 81,
      "start": 250.3719,
      "duration": 0.1089,
      "velocity": 94,
      "chip": "ym2612"
    },
    {
      "channel": 5,
      "note": 69,
      "start": 250.3722,
      "duration": 0.1089,
      "velocity": 94,
      "chip": "ym2612"
    },
    {
      "channel": 0,
      "note": 98,
      "start": 250.4805,
      "duration": 0.0309,
      "velocity": 114,
      "chip": "ym2612"
    },
    {
      "channel": 3,
      "note": 71,
      "start": 250.4808,
      "duration": 0.109,
      "velocity": 94,
      "chip": "ym2612"
    },
    {
      "channel": 5,
      "note": 74,
      "start": 250.481,
      "duration": 0.109,
      "velocity": 94,
      "chip": "ym2612"
    },
    {
      "channel": 0,
      "note": 98,
      "start": 250.5895,
      "duration": 0.1089,
      "velocity": 127,
      "chip": "ym2612"
    },
    {
      "channel": 1,
      "note": 67,
      "start": 250.5896,
      "duration": 0.2179,
      "velocity": 93,
      "chip": "ym2612"
    },
    {
      "channel": 3,
      "note": 74,
      "start": 250.5898,
      "duration": 0.1089,
      "velocity": 94,
      "chip": "ym2612"
    },
    {
      "channel": 0,
      "note": 54,
      "start": 250.6984,
      "duration": 0.0154,
      "velocity": 127,
      "chip": "ym2612"
    },
    {
      "channel": 5,
      "note": 76,
      "start": 250.6989,
      "duration": 0.109,
      "velocity": 94,
      "chip": "ym2612"
    },
    {
      "channel": 0,
      "note": 76,
      "start": 250.7138,
      "duration": 0.0936,
      "velocity": 114,
      "chip": "ym2612"
    },
    {
      "channel": 0,
      "note": 68,
      "start": 250.8074,
      "duration": 0.0308,
      "velocity": 114,
      "chip": "ym2612"
    },
    {
      "channel": 1,
      "note": 67,
      "start": 250.8075,
      "duration": 0.2179,
      "velocity": 93,
      "chip": "ym2612"
    },
    {
      "channel": 3,
      "note": 76,
      "start": 250.8077,
      "duration": 0.1088,
      "velocity": 94,
      "chip": "ym2612"
    },
    {
      "channel": 5,
      "note": 81,
      "start": 250.808,
      "duration": 0.1088,
      "velocity": 94,
      "chip": "ym2612"
    },
    {
      "channel": 0,
      "note": 98,
      "start": 250.9163,
      "duration": 0.0309,
      "velocity": 114,
      "chip": "ym2612"
    },
    {
      "channel": 5,
      "note": 69,
      "start": 250.9168,
      "duration": 0.1092,
      "velocity": 94,
      "chip": "ym2612"
    },
    {
      "channel": 0,
      "note": 98,
      "start": 251.0253,
      "duration": 0.1089,
      "velocity": 114,
      "chip": "ym2612"
    },
    {
      "channel": 1,
      "note": 67,
      "start": 251.0254,
      "duration": 0.2178,
      "velocity": 93,
      "chip": "ym2612"
    },
    {
      "channel": 2,
      "note": 43,
      "start": 251.0256,
      "duration": 3.0503,
      "velocity": 121,
      "chip": "ym2612"
    },
    {
      "channel": 3,
      "note": 78,
      "start": 251.0257,
      "duration": 0.1087,
      "velocity": 94,
      "chip": "ym2612"
    },
    {
      "channel": 5,
      "note": 81,
      "start": 251.026,
      "duration": 0.1087,
      "velocity": 94,
      "chip": "ym2612"
    },
    {
      "channel": 0,
      "note": 54,
      "start": 251.1342,
      "duration": 0.0309,
      "velocity": 114,
      "chip": "ym2612"
    },
    {
      "channel": 3,
      "note": 81,
      "start": 251.1344,
      "duration": 0.109,
      "velocity": 94,
      "chip": "ym2612"
    },
    {
      "channel": 5,
      "note": 71,
      "start": 251.1347,
      "duration": 0.109,
      "velocity": 94,
      "chip": "ym2612"
    },
    {
      "channel": 4,
      "note": 43,
      "start": 251.2121,
      "duration": 3.0503,
      "velocity": 121,
      "chip": "ym2612"
    },
    {
      "channel": 0,
      "note": 98,
      "start": 251.2431,
      "duration": 0.0309,
      "velocity": 114,
      "chip": "ym2612"
    },
    {
      "channel": 1,
      "note": 62,
      "start": 251.2432,
      "duration": 0.2179,
      "velocity": 93,
      "chip": "ym2612"
    },
    {
      "channel": 3,
      "note": 69,
      "start": 251.2434,
      "duration": 0.1089,
      "velocity": 94,
      "chip": "ym2612"
    },
    {
      "channel": 5,
      "note": 74,
      "start": 251.2437,
      "duration": 0.1089,
      "velocity": 94,
      "chip": "ym2612"
    },
    {
      "channel": 0,
      "note": 98,
      "start": 251.3521,
      "duration": 0.0309,
      "velocity": 114,
      "chip": "ym2612"
    },
    {
      "channel": 3,
      "note": 74,
      "start": 251.3523,
      "duration": 0.109,
      "velocity": 94,
      "chip": "ym2612"
    },
    {
      "channel": 0,
      "note": 98,
      "start": 251.461,
      "duration": 0.0154,
      "velocity": 127,
      "chip": "ym2612"
    },
    {
      "channel": 1,
      "note": 62,
      "start": 251.4611,
      "duration": 0.2179,
      "velocity": 93,
      "chip": "ym2612"
    },
    {
      "channel": 5,
      "note": 76,
      "start": 251.4615,
      "duration": 0.109,
      "velocity": 94,
      "chip": "ym2612"
    },
    {
      "channel": 0,
      "note": 76,
      "start": 251.4764,
      "duration": 0.0936,
      "velocity": 114,
      "chip": "ym2612"
    },
    {
      "channel": 0,
      "note": 68,
      "start": 251.57,
      "duration": 0.0309,
      "velocity": 114,
      "chip": "ym2612"
    },
    {
      "channel": 3,
      "note": 76,
      "start": 251.5702,
      "duration": 0.109,
      "velocity": 94,
      "chip": "ym2612"
    },
    {
      "channel": 5,
      "note": 78,
      "start": 251.5705,
      "duration": 0.1089,
      "velocity": 94,
      "chip": "ym2612"
    },
    {
      "channel": 0,
      "note": 98,
      "start": 251.6789,
      "duration": 0.0309,
      "velocity": 114,
      "chip": "ym2612"
    },
    {
      "channel": 1,
      "note": 62,
      "start": 251.679,
      "duration": 0.2179,
      "velocity": 93,
      "chip": "ym2612"
    },
    {
      "channel": 3,
      "note": 81,
      "start": 251.6792,
      "duration": 0.1089,
      "velocity": 94,
      "chip": "ym2612"
    },
    {
      "channel": 5,
      "note": 81,
      "start": 251.6795,
      "duration": 0.1089,
      "velocity": 94,
      "chip": "ym2612"
    },
    {
      "channel": 0,
      "note": 98,
      "start": 251.7878,
      "duration": 0.0309,
      "velocity": 114,
      "chip": "ym2612"
    },
    {
      "channel": 3,
      "note": 69,
      "start": 251.7881,
      "duration": 0.109,
      "velocity": 94,
      "chip": "ym2612"
    },
    {
      "channel": 5,
      "note": 69,
      "start": 251.7883,
      "duration": 0.109,
      "velocity": 94,
      "chip": "ym2612"
    },
    {
      "channel": 0,
      "note": 98,
      "start": 251.8968,
      "duration": 0.1089,
      "velocity": 114,
      "chip": "ym2612"
    },
    {
      "channel": 1,
      "note": 62,
      "start": 251.8969,
      "duration": 0.2178,
      "velocity": 93,
      "chip": "ym2612"
    },
    {
      "channel": 3,
      "note": 81,
      "start": 251.8971,
      "duration": 0.1089,
      "velocity": 94,
      "chip": "ym2612"
    },
    {
      "channel": 5,
      "note": 74,
      "start": 251.8974,
      "duration": 0.1088,
      "velocity": 94,
      "chip": "ym2612"
    },
    {
      "channel": 0,
      "note": 54,
      "start": 252.0057,
      "duration": 0.0309,
      "velocity": 114,
      "chip": "ym2612"
    },
    {
      "channel": 3,
      "note": 71,
      "start": 252.006,
      "duration": 0.109,
      "velocity": 94,
      "chip": "ym2612"
    },
    {
      "channel": 0,
      "note": 98,
      "start": 252.1147,
      "duration": 0.0309,
      "velocity": 114,
      "chip": "ym2612"
    },
    {
      "channel": 1,
      "note": 62,
      "start": 252.1148,
      "duration": 0.2179,
      "velocity": 93,
      "chip": "ym2612"
    },
    {
      "channel": 3,
      "note": 74,
      "start": 252.115,
      "duration": 0.109,
      "velocity": 94,
      "chip": "ym2612"
    },
    {
      "channel": 5,
      "note": 76,
      "start": 252.1152,
      "duration": 0.109,
      "velocity": 94,
      "chip": "ym2612"
    },
    {
      "channel": 0,
      "note": 98,
      "start": 252.2238,
      "duration": 0.0307,
      "velocity": 114,
      "chip": "ym2612"
    },
    {
      "channel": 5,
      "note": 81,
      "start": 252.2242,
      "duration": 0.1088,
      "velocity": 94,
      "chip": "ym2612"
    },
    {
      "channel": 0,
      "note": 98,
      "start": 252.3325,
      "duration": 0.0154,
      "velocity": 127,
      "chip": "ym2612"
    },
    {
      "channel": 1,
      "note": 62,
      "start": 252.3327,
      "duration": 0.2178,
      "velocity": 93,
      "chip": "ym2612"
    },
    {
      "channel": 3,
      "note": 76,
      "start": 252.3329,
      "duration": 0.1089,
      "velocity": 94,
      "chip": "ym2612"
    },
    {
      "channel": 5,
      "note": 69,
      "start": 252.3331,
      "duration": 0.1089,
      "velocity": 94,
      "chip": "ym2612"
    },
    {
      "channel": 0,
      "note": 76,
      "start": 252.3479,
      "duration": 0.0936,
      "velocity": 114,
      "chip": "ym2612"
    },
    {
      "channel": 0,
      "note": 68,
      "start": 252.4415,
      "duration": 0.0309,
      "velocity": 114,
      "chip": "ym2612"
    },
    {
      "channel": 5,
      "note": 81,
      "start": 252.442,
      "duration": 0.1091,
      "velocity": 94,
      "chip": "ym2612"
    },
    {
      "channel": 0,
      "note": 98,
      "start": 252.5504,
      "duration": 0.0309,
      "velocity": 114,
      "chip": "ym2612"
    },
    {
      "channel": 1,
      "note": 62,
      "start": 252.5505,
      "duration": 0.2179,
      "velocity": 93,
      "chip": "ym2612"
    },
    {
      "channel": 3,
      "note": 78,
      "start": 252.5508,
      "duration": 0.1088,
      "velocity": 94,
      "chip": "ym2612"
    },
    {
      "channel": 5,
      "note": 71,
      "start": 252.551,
      "duration": 0.1088,
      "velocity": 94,
      "chip": "ym2612"
    },
    {
      "channel": 0,
      "note": 98,
      "start": 252.6594,
      "duration": 0.0311,
      "velocity": 114,
      "chip": "ym2612"
    },
    {
      "channel": 3,
      "note": 81,
      "start": 252.6596,
      "duration": 0.109,
      "velocity": 94,
      "chip": "ym2612"
    },
    {
      "channel": 5,
      "note": 74,
      "start": 252.6599,
      "duration": 0.109,
      "velocity": 94,
      "chip": "ym2612"
    },
    {
      "channel": 0,
      "note": 98,
      "start": 252.7683,
      "duration": 0.1089,
      "velocity": 114,
      "chip": "ym2612"
    },
    {
      "channel": 1,
      "note": 62,
      "start": 252.7685,
      "duration": 0.2178,
      "velocity": 93,
      "chip": "ym2612"
    },
    {
      "channel": 3,
      "note": 69,
      "start": 252.7687,
      "duration": 0.1089,
      "velocity": 94,
      "chip": "ym2612"
    },
    {
      "channel": 0,
      "note": 54,
      "start": 252.8773,
      "duration": 0.0309,
      "velocity": 114,
      "chip": "ym2612"
    },
    {
      "channel": 3,
      "note": 74,
      "start": 252.8775,
      "duration": 0.109,
      "velocity": 94,
      "chip": "ym2612"
    },
    {
      "channel": 5,
      "note": 76,
      "start": 252.8778,
      "duration": 0.109,
      "velocity": 94,
      "chip": "ym2612"
    },
    {
      "channel": 0,
      "note": 98,
      "start": 252.9862,
      "duration": 0.0309,
      "velocity": 114,
      "chip": "ym2612"
    },
    {
      "channel": 1,
      "note": 62,
      "start": 252.9863,
      "duration": 0.2179,
      "velocity": 93,
      "chip": "ym2612"
    },
    {
      "channel": 5,
      "note": 78,
      "start": 252.9868,
      "duration": 0.1089,
      "velocity": 94,
      "chip": "ym2612"
    },
    {
      "channel": 0,
      "note": 98,
      "start": 253.0951,
      "duration": 0.0309,
      "velocity": 114,
      "chip": "ym2612"
    },
    {
      "channel": 3,
      "note": 76,
      "start": 253.0954,
      "duration": 0.109,
      "velocity": 94,
      "chip": "ym2612"
    },
    {
      "channel": 5,
      "note": 81,
      "start": 253.0956,
      "duration": 0.109,
      "velocity": 94,
      "chip": "ym2612"
    },
    {
      "channel": 0,
      "note": 98,
      "start": 253.2041,
      "duration": 0.0154,
      "velocity": 127,
      "chip": "ym2612"
    },
    {
      "channel": 1,
      "note": 62,
      "start": 253.2042,
      "duration": 0.2178,
      "velocity": 93,
      "chip": "ym2612"
    },
    {
      "channel": 3,
      "note": 81,
      "start": 253.2044,
      "duration": 0.1089,
      "velocity": 94,
      "chip": "ym2612"
    },
    {
      "channel": 5,
      "note": 69,
      "start": 253.2046,
      "duration": 0.1089,
      "velocity": 94,
      "chip": "ym2612"
    },
    {
      "channel": 0,
      "note": 76,
      "start": 253.2194,
      "duration": 0.0936,
      "velocity": 114,
      "chip": "ym2612"
    },
    {
      "channel": 0,
      "note": 68,
      "start": 253.313,
      "duration": 0.0309,
      "velocity": 114,
      "chip": "ym2612"
    },
    {
      "channel": 3,
      "note": 69,
      "start": 253.3133,
      "duration": 0.109,
      "velocity": 94,
      "chip": "ym2612"
    },
    {
      "channel": 5,
      "note": 74,
      "start": 253.3135,
      "duration": 0.109,
      "velocity": 94,
      "chip": "ym2612"
    },
    {
      "channel": 0,
      "note": 98,
      "start": 253.422,
      "duration": 0.0309,
      "velocity": 114,
      "chip": "ym2612"
    },
    {
      "channel": 1,
      "note": 62,
      "start": 253.4221,
      "duration": 0.2179,
      "velocity": 93,
      "chip": "ym2612"
    },
    {
      "channel": 3,
      "note": 81,
      "start": 253.4223,
      "duration": 0.1089,
      "velocity": 94,
      "chip": "ym2612"
    },
    {
      "channel": 0,
      "note": 98,
      "start": 253.5309,
      "duration": 0.0309,
      "velocity": 114,
      "chip": "ym2612"
    },
    {
      "channel": 3,
      "note": 71,
      "start": 253.5312,
      "duration": 0.109,
      "velocity": 94,
      "chip": "ym2612"
    },
    {
      "channel": 5,
      "note": 76,
      "start": 253.5314,
      "duration": 0.1092,
      "velocity": 94,
      "chip": "ym2612"
    },
    {
      "channel": 0,
      "note": 98,
      "start": 253.6399,
      "duration": 0.1089,
      "velocity": 127,
      "chip": "ym2612"
    },
    {
      "channel": 1,
      "note": 62,
      "start": 253.64,
      "duration": 0.2178,
      "velocity": 93,
      "chip": "ym2612"
    },
    {
      "channel": 3,
      "note": 74,
      "start": 253.6402,
      "duration": 0.1089,
      "velocity": 94,
      "chip": "ym2612"
    },
    {
      "channel": 5,
      "note": 81,
      "start": 253.6406,
      "duration": 0.1087,
      "velocity": 94,
      "chip": "ym2612"
    },
    {
      "channel": 0,
      "note": 54,
      "start": 253.7488,
      "duration": 0.0154,
      "velocity": 127,
      "chip": "ym2612"
    },
    {
      "channel": 5,
      "note": 69,
      "start": 253.7493,
      "duration": 0.109,
      "velocity": 94,
      "chip": "ym2612"
    },
    {
      "channel": 0,
      "note": 76,
      "start": 253.7641,
      "duration": 0.0936,
      "velocity": 114,
      "chip": "ym2612"
    },
    {
      "channel": 0,
      "note": 68,
      "start": 253.8577,
      "duration": 0.0309,
      "velocity": 114,
      "chip": "ym2612"
    },
    {
      "channel": 1,
      "note": 62,
      "start": 253.8578,
      "duration": 0.2179,
      "velocity": 93,
      "chip": "ym2612"
    },
    {
      "channel": 3,
      "note": 76,
      "start": 253.858,
      "duration": 0.1089,
      "velocity": 94,
      "chip": "ym2612"
    },
    {
      "channel": 5,
      "note": 81,
      "start": 253.8583,
      "duration": 0.1089,
      "velocity": 94,
      "chip": "ym2612"
    },
    {
      "channel": 0,
      "note": 98,
      "start": 253.9667,
      "duration": 0.0309,
      "velocity": 114,
      "chip": "ym2612"
    },
    {
      "channel": 5,
      "note": 71,
      "start": 253.9671,
      "duration": 0.1092,
      "velocity": 94,
      "chip": "ym2612"
    },
    {
      "channel": 0,
      "note": 98,
      "start": 254.0756,
      "duration": 0.1089,
      "velocity": 114,
      "chip": "ym2612"
    },
    {
      "channel": 1,
      "note": 62,
      "start": 254.0758,
      "duration": 0.2178,
      "velocity": 93,
      "chip": "ym2612"
    },
    {
      "channel": 2,
      "note": 50,
      "start": 254.0759,
      "duration": 3.0504,
      "velocity": 121,
      "chip": "ym2612"
    },
    {
      "channel": 3,
      "note": 78,
      "start": 254.0761,
      "duration": 0.1088,
      "velocity": 94,
      "chip": "ym2612"
    },
    {
      "channel": 5,
      "note": 74,
      "start": 254.0763,
      "duration": 0.1087,
      "velocity": 94,
      "chip": "ym2612"
    },
    {
      "channel": 0,
      "note": 54,
      "start": 254.1846,
      "duration": 0.0309,
      "velocity": 114,
      "chip": "ym2612"
    },
    {
      "channel": 3,
      "note": 81,
      "start": 254.1848,
      "duration": 0.109,
      "velocity": 94,
      "chip": "ym2612"
    },
    {
      "channel": 4,
      "note": 50,
      "start": 254.2625,
      "duration": 3.0504,
      "velocity": 121,
      "chip": "ym2612"
    },
    {
      "channel": 0,
      "note": 98,
      "start": 254.2935,
      "duration": 0.0309,
      "velocity": 114,
      "chip": "ym2612"
    },
    {
      "channel": 1,
      "note": 59,
      "start": 254.2936,
      "duration": 0.2179,
      "velocity": 93,
      "chip": "ym2612"
    },
    {
      "channel": 3,
      "note": 69,
      "start": 254.2938,
      "duration": 0.1089,
      "velocity": 94,
      "chip": "ym2612"
    },
    {
      "channel": 5,
      "note": 76,
      "start": 254.294,
      "duration": 0.1089,
      "velocity": 94,
      "chip": "ym2612"
    },
    {
      "channel": 0,
      "note": 98,
      "start": 254.4024,
      "duration": 0.0309,
      "velocity": 114,
      "chip": "ym2612"
    },
    {
      "channel": 3,
      "note": 74,
      "start": 254.4027,
      "duration": 0.109,
      "velocity": 94,
      "chip": "ym2612"
    },
    {
      "channel": 5,
      "note": 78,
      "start": 254.403,
      "duration": 0.1089,
      "velocity": 94,
      "chip": "ym2612"
    },
    {
      "channel": 0,
      "note": 98,
      "start": 254.5114,
      "duration": 0.0153,
      "velocity": 127,
      "chip": "ym2612"
    },
    {
      "channel": 1,
      "note": 59,
      "start": 254.5115,
      "duration": 0.2178,
      "velocity": 93,
      "chip": "ym2612"
    },
    {
      "channel": 5,
      "note": 81,
      "start": 254.5119,
      "duration": 0.1089,
      "velocity": 94,
      "chip": "ym2612"
    },
    {
      "channel": 0,
      "note": 76,
      "start": 254.5267,
      "duration": 0.0936,
      "velocity": 114,
      "chip": "ym2612"
    },
    {
      "channel": 0,
      "note": 68,
      "start": 254.6203,
      "duration": 0.0309,
      "velocity": 114,
      "chip": "ym2612"
    },
    {
      "channel": 3,
      "note": 76,
      "start": 254.6206,
      "duration": 0.109,
      "velocity": 94,
      "chip": "ym2612"
    },
    {
      "channel": 5,
      "note": 69,
      "start": 254.6208,
      "duration": 0.109,
      "velocity": 94,
      "chip": "ym2612"
    },
    {
      "channel": 0,
      "note": 98,
      "start": 254.7293,
      "duration": 0.0309,
      "velocity": 114,
      "chip": "ym2612"
    },
    {
      "channel": 1,
      "note": 59,
      "start": 254.7294,
      "duration": 0.2179,
      "velocity": 93,
      "chip": "ym2612"
    },
    {
      "channel": 3,
      "note": 81,
      "start": 254.7296,
      "duration": 0.1089,
      "velocity": 94,
      "chip": "ym2612"
    },
    {
      "channel": 5,
      "note": 74,
      "start": 254.7298,
      "duration": 0.1089,
      "velocity": 94,
      "chip": "ym2612"
    },
    {
      "channel": 0,
      "note": 98,
      "start": 254.8382,
      "duration": 0.0309,
      "velocity": 114,
      "chip": "ym2612"
    },
    {
      "channel": 3,
      "note": 69,
      "start": 254.8385,
      "duration": 0.109,
      "velocity": 94,
      "chip": "ym2612"
    },
    {
      "channel": 0,
      "note": 98,
      "start": 254.9472,
      "duration": 0.1089,
      "velocity": 114,
      "chip": "ym2612"
    },
    {
      "channel": 1,
      "note": 59,
      "start": 254.9473,
      "duration": 0.2178,
      "velocity": 93,
      "chip": "ym2612"
    },
    {
      "channel": 3,
      "note": 81,
      "start": 254.9475,
      "duration": 0.1089,
      "velocity": 94,
      "chip": "ym2612"
    },
    {
      "channel": 5,
      "note": 76,
      "start": 254.9477,
      "duration": 0.1089,
      "velocity": 94,
      "chip": "ym2612"
    },
    {
      "channel": 0,
      "note": 54,
      "start": 255.0561,
      "duration": 0.0309,
      "velocity": 114,
      "chip": "ym2612"
    },
    {
      "channel": 3,
      "note": 71,
      "start": 255.0564,
      "duration": 0.109,
      "velocity": 94,
      "chip": "ym2612"
    },
    {
      "channel": 5,
      "note": 81,
      "start": 255.0566,
      "duration": 0.109,
      "velocity": 94,
      "chip": "ym2612"
    },
    {
      "channel": 0,
      "note": 98,
      "start": 255.165,
      "duration": 0.0309,
      "velocity": 114,
      "chip": "ym2612"
    },
    {
      "channel": 1,
      "note": 59,
      "start": 255.1651,
      "duration": 0.2179,
      "velocity": 93,
      "chip": "ym2612"
    },
    {
      "channel": 3,
      "note": 74,
      "start": 255.1653,
      "duration": 0.109,
      "velocity": 94,
      "chip": "ym2612"
    },
    {
      "channel": 5,
      "note": 69,
      "start": 255.1656,
      "duration": 0.109,
      "velocity": 94,
      "chip": "ym2612"
    },
    {
      "channel": 0,
      "note": 98,
      "start": 255.2741,
      "duration": 0.0308,
      "velocity": 114,
      "chip": "ym2612"
    },
    {
      "channel": 5,
      "note": 81,
      "start": 255.2746,
      "duration": 0.1089,
      "velocity": 94,
      "chip": "ym2612"
    },
    {
      "channel": 0,
      "note": 98,
      "start": 255.3829,
      "duration": 0.0154,
      "velocity": 127,
      "chip": "ym2612"
    },
    {
      "channel": 1,
      "note": 59,
      "start": 255.383,
      "duration": 0.2179,
      "velocity": 93,
      "chip": "ym2612"
    },
    {
      "channel": 3,
      "note": 76,
      "start": 255.3832,
      "duration": 0.1089,
      "velocity": 94,
      "chip": "ym2612"
    },
    {
      "channel": 5,
      "note": 71,
      "start": 255.3835,
      "duration": 0.1089,
      "velocity": 94,
      "chip": "ym2612"
    },
    {
      "channel": 0,
      "note": 76,
      "start": 255.3983,
      "duration": 0.0936,
      "velocity": 114,
      "chip": "ym2612"
    },
    {
      "channel": 0,
      "note": 68,
      "start": 255.4919,
      "duration": 0.0309,
      "velocity": 114,
      "chip": "ym2612"
    },
    {
      "channel": 5,
      "note": 74,
      "start": 255.4923,
      "duration": 0.109,
      "velocity": 94,
      "chip": "ym2612"
    },
    {
      "channel": 0,
      "note": 98,
      "start": 255.6008,
      "duration": 0.0309,
      "velocity": 114,
      "chip": "ym2612"
    },
    {
      "channel": 1,
      "note": 59,
      "start": 255.6009,
      "duration": 0.2179,
      "velocity": 93,
      "chip": "ym2612"
    },
    {
      "channel": 3,
      "note": 78,
      "start": 255.6012,
      "duration": 0.1088,
      "velocity": 94,
      "chip": "ym2612"
    },
    {
      "channel": 0,
      "note": 98,
      "start": 255.7097,
      "duration": 0.0309,
      "velocity": 114,
      "chip": "ym2612"
    },
    {
      "channel": 3,
      "note": 81,
      "start": 255.71,
      "duration": 0.109,
      "velocity": 94,
      "chip": "ym2612"
    },
    {
      "channel": 5,
      "note": 76,
      "start": 255.7102,
      "duration": 0.1091,
      "velocity": 94,
      "chip": "ym2612"
    },
    {
      "channel": 0,
      "note": 98,
      "start": 255.8187,
      "duration": 0.1089,
      "velocity": 114,
      "chip": "ym2612"
    },
    {
      "channel": 1,
      "note": 59,
      "start": 255.8188,
      "duration": 0.2178,
      "velocity": 93,
      "chip": "ym2612"
    },
    {
      "channel": 3,
      "note": 69,
      "start": 255.819,
      "duration": 0.1089,
      "velocity": 94,
      "chip": "ym2612"
    },
    {
      "channel": 5,
      "note": 78,
      "start": 255.8193,
      "duration": 0.1088,
      "velocity": 94,
      "chip": "ym2612"
    },
    {
      "channel": 0,
      "note": 54,
      "start": 255.9276,
      "duration": 0.0309,
      "velocity": 114,
      "chip": "ym2612"
    },
    {
      "channel": 3,
      "note": 74,
      "start": 255.9279,
      "duration": 0.109,
      "velocity": 94,
      "chip": "ym2612"
    },
    {
      "channel": 5,
      "note": 81,
      "start": 255.9281,
      "duration": 0.1089,
      "velocity": 94,
      "chip": "ym2612"
    },
    {
      "channel": 0,
      "note": 98,
      "start": 256.0366,
      "duration": 0.0309,
      "velocity": 114,
      "chip": "ym2612"
    },
    {
      "channel": 1,
      "note": 59,
      "start": 256.0367,
      "duration": 0.2179,
      "velocity": 93,
      "chip": "ym2612"
    },
    {
      "channel": 5,
      "note": 69,
      "start": 256.0371,
      "duration": 0.1089,
      "velocity": 94,
      "chip": "ym2612"
    },
    {
      "channel": 0,
      "note": 98,
      "start": 256.1455,
      "duration": 0.0309,
      "velocity": 114,
      "chip": "ym2612"
    },
    {
      "channel": 3,
      "note": 76,
      "start": 256.1458,
      "duration": 0.109,
      "velocity": 94,
      "chip": "ym2612"
    },
    {
      "channel": 5,
      "note": 74,
      "start": 256.146,
      "duration": 0.109,
      "velocity": 94,
      "chip": "ym2612"
    },
    {
      "channel": 0,
      "note": 98,
      "start": 256.2544,
      "duration": 0.0154,
      "velocity": 127,
      "chip": "ym2612"
    },
    {
      "channel": 1,
      "note": 59,
      "start": 256.2546,
      "duration": 0.2178,
      "velocity": 93,
      "chip": "ym2612"
    },
    {
      "channel": 3,
      "note": 81,
      "start": 256.2548,
      "duration": 0.1089,
      "velocity": 94,
      "chip": "ym2612"
    },
    {
      "channel": 0,
      "note": 76,
      "start": 256.2698,
      "duration": 0.0936,
      "velocity": 114,
      "chip": "ym2612"
    },
    {
      "channel": 0,
      "note": 68,
      "start": 256.3634,
      "duration": 0.0309,
      "velocity": 114,
      "chip": "ym2612"
    },
    {
      "channel": 3,
      "note": 69,
      "start": 256.3637,
      "duration": 0.109,
      "velocity": 94,
      "chip": "ym2612"
    },
    {
      "channel": 5,
      "note": 76,
      "start": 256.3639,
      "duration": 0.109,
      "velocity": 94,
      "chip": "ym2612"
    },
    {
      "channel": 0,
      "note": 98,
      "start": 256.4723,
      "duration": 0.0309,
      "velocity": 114,
      "chip": "ym2612"
    },
    {
      "channel": 1,
      "note": 59,
      "start": 256.4724,
      "duration": 0.2181,
      "velocity": 93,
      "chip": "ym2612"
    },
    {
      "channel": 3,
      "note": 81,
      "start": 256.4726,
      "duration": 0.1089,
      "velocity": 94,
      "chip": "ym2612"
    },
    {
      "channel": 5,
      "note": 81,
      "start": 256.4729,
      "duration": 0.1089,
      "velocity": 94,
      "chip": "ym2612"
    },
    {
      "channel": 0,
      "note": 98,
      "start": 256.5813,
      "duration": 0.0309,
      "velocity": 114,
      "chip": "ym2612"
    },
    {
      "channel": 3,
      "note": 71,
      "start": 256.5815,
      "duration": 0.1092,
      "velocity": 94,
      "chip": "ym2612"
    },
    {
      "channel": 5,
      "note": 69,
      "start": 256.5818,
      "duration": 0.1092,
      "velocity": 94,
      "chip": "ym2612"
    },
    {
      "channel": 0,
      "note": 98,
      "start": 256.6902,
      "duration": 0.1089,
      "velocity": 127,
      "chip": "ym2612"
    },
    {
      "channel": 1,
      "note": 59,
      "start": 256.6905,
      "duration": 0.2177,
      "velocity": 93,
      "chip": "ym2612"
    },
    {
      "channel": 3,
      "note": 74,
      "start": 256.6907,
      "duration": 0.1087,
      "velocity": 94,
      "chip": "ym2612"
    },
    {
      "channel": 5,
      "note": 81,
      "start": 256.691,
      "duration": 0.1087,
      "velocity": 94,
      "chip": "ym2612"
    },
    {
      "channel": 0,
      "note": 54,
      "start": 256.7991,
      "duration": 0.0154,
      "velocity": 127,
      "chip": "ym2612"
    },
    {
      "channel": 5,
      "note": 71,
      "start": 256.7997,
      "duration": 0.109,
      "velocity": 94,
      "chip": "ym2612"
    },
    {
      "channel": 0,
      "note": 76,
      "start": 256.8145,
      "duration": 0.0936,
      "velocity": 114,
      "chip": "ym2612"
    },
    {
      "channel": 0,
      "note": 68,
      "start": 256.9081,
      "duration": 0.0309,
      "velocity": 114,
      "chip": "ym2612"
    },
    {
      "channel": 1,
      "note": 59,
      "start": 256.9082,
      "duration": 0.2179,
      "velocity": 93,
      "chip": "ym2612"
    },
    {
      "channel": 3,
      "note": 76,
      "start": 256.9084,
      "duration": 0.1089,
      "velocity": 94,
      "chip": "ym2612"
    },
    {
      "channel": 5,
      "note": 74,
      "start": 256.9087,
      "duration": 0.1088,
      "velocity": 94,
      "chip": "ym2612"
    },
    {
      "channel": 0,
      "note": 98,
      "start": 257.017,
      "duration": 0.0309,
      "velocity": 114,
      "chip": "ym2612"
    },
    {
      "channel": 0,
      "note": 98,
      "start": 257.126,
      "duration": 0.1089,
      "velocity": 114,
      "chip": "ym2612"
    },
    {
      "channel": 1,
      "note": 59,
      "start": 257.1261,
      "duration": 0.2178,
      "velocity": 93,
      "chip": "ym2612"
    },
    {
      "channel": 2,
      "note": 47,
      "start": 257.1263,
      "duration": 3.0504,
      "velocity": 121,
      "chip": "ym2612"
    },
    {
      "channel": 3,
      "note": 78,
      "start": 257.1264,
      "duration": 0.1087,
      "velocity": 94,
      "chip": "ym2612"
    },
    {
      "channel": 5,
      "note": 76,
      "start": 257.1267,
      "duration": 0.1088,
      "velocity": 94,
      "chip": "ym2612"
    },
    {
      "channel": 0,
      "note": 54,
      "start": 257.2349,
      "duration": 0.0309,
      "velocity": 114,
      "chip": "ym2612"
    },
    {
      "channel": 3,
      "note": 81,
      "start": 257.2352,
      "duration": 0.109,
      "velocity": 94,
      "chip": "ym2612"
    },
    {
      "channel": 5,
      "note": 78,
      "start": 257.2355,
      "duration": 0.1089,
      "velocity": 94,
      "chip": "ym2612"
    },
    {
      "channel": 4,
      "note": 47,
      "start": 257.3128,
      "duration": 3.0504,
      "velocity": 121,
      "chip": "ym2612"
    },
    {
      "channel": 0,
      "note": 98,
      "start": 257.3439,
      "duration": 0.0309,
      "velocity": 114,
      "chip": "ym2612"
    },
    {
      "channel": 1,
      "note": 55,
      "start": 257.344,
      "duration": 0.2179,
      "velocity": 93,
      "chip": "ym2612"
    },
    {
      "channel": 3,
      "note": 69,
      "start": 257.3442,
      "duration": 0.1089,
      "velocity": 94,
      "chip": "ym2612"
    },
    {
      "channel": 5,
      "note": 81,
      "start": 257.3444,
      "duration": 0.1089,
      "velocity": 94,
      "chip": "ym2612"
    },
    {
      "channel": 0,
      "note": 98,
      "start": 257.4528,
      "duration": 0.0309,
      "velocity": 114,
      "chip": "ym2612"
    },
    {
      "channel": 3,
      "note": 74,
      "start": 257.4531,
      "duration": 0.109,
      "velocity": 94,
      "chip": "ym2612"
    },
    {
      "channel": 5,
      "note": 69,
      "start": 257.4533,
      "duration": 0.109,
      "velocity": 94,
      "chip": "ym2612"
    },
    {
      "channel": 0,
      "note": 98,
      "start": 257.5617,
      "duration": 0.0154,
      "velocity": 127,
      "chip": "ym2612"
    },
    {
      "channel": 1,
      "note": 55,
      "start": 257.5619,
      "duration": 0.2178,
      "velocity": 93,
      "chip": "ym2612"
    },
    {
      "channel": 5,
      "note": 74,
      "start": 257.5623,
      "duration": 0.1089,
      "velocity": 94,
      "chip": "ym2612"
    },
    {
      "channel": 0,
      "note": 76,
      "start": 257.5771,
      "duration": 0.0936,
      "velocity": 114,
      "chip": "ym2612"
    },
    {
      "channel": 0,
      "note": 68,
      "start": 257.6707,
      "duration": 0.0309,
      "velocity": 114,
      "chip": "ym2612"
    },
    {
      "channel": 3,
      "note": 76,
      "start": 257.671,
      "duration": 0.109,
      "velocity": 94,
      "chip": "ym2612"
    },
    {
      "channel": 0,
      "note": 98,
      "start": 257.7796,
      "duration": 0.0309,
      "velocity": 114,
      "chip": "ym2612"
    },
    {
      "channel": 1,
      "note": 55,
      "start": 257.7797,
      "duration": 0.2179,
      "velocity": 93,
      "chip": "ym2612"
    },
    {
      "channel": 3,
      "note": 81,
      "start": 257.7799,
      "duration": 0.1089,
      "velocity": 94,
      "chip": "ym2612"
    },
    {
      "channel": 5,
      "note": 76,
      "start": 257.7802,
      "duration": 0.1089,
      "velocity": 94,
      "chip": "ym2612"
    },
    {
      "channel": 0,
      "note": 98,
      "start": 257.8886,
      "duration": 0.0309,
      "velocity": 114,
      "chip": "ym2612"
    },
    {
      "channel": 3,
      "note": 69,
      "start": 257.8888,
      "duration": 0.109,
      "velocity": 94,
      "chip": "ym2612"
    },
    {
      "channel": 5,
      "note": 81,
      "start": 257.8891,
      "duration": 0.109,
      "velocity": 94,
      "chip": "ym2612"
    },
    {
      "channel": 0,
      "note": 98,
      "start": 257.9975,
      "duration": 0.1089,
      "velocity": 114,
      "chip": "ym2612"
    },
    {
      "channel": 1,
      "note": 55,
      "start": 257.9977,
      "duration": 0.2178,
      "velocity": 93,
      "chip": "ym2612"
    },
    {
      "channel": 3,
      "note": 81,
      "start": 257.9979,
      "duration": 0.1088,
      "velocity": 94,
      "chip": "ym2612"
    },
    {
      "channel": 5,
      "note": 69,
      "start": 257.9981,
      "duration": 0.109,
      "velocity": 94,
      "chip": "ym2612"
    },
    {
      "channel": 0,
      "note": 54,
      "start": 258.1064,
      "duration": 0.0309,
      "velocity": 114,
      "chip": "ym2612"
    },
    {
      "channel": 3,
      "note": 71,
      "start": 258.1067,
      "duration": 0.109,
      "velocity": 94,
      "chip": "ym2612"
    },
    {
      "channel": 5,
      "note": 81,
      "start": 258.1071,
      "duration": 0.1088,
      "velocity": 94,
      "chip": "ym2612"
    },
    {
      "channel": 0,
      "note": 98,
      "start": 258.2154,
      "duration": 0.0309,
      "velocity": 114,
      "chip": "ym2612"
    },
    {
      "channel": 1,
      "note": 55,
      "start": 258.2155,
      "duration": 0.2179,
      "velocity": 93,
      "chip": "ym2612"
    },
    {
      "channel": 3,
      "note": 74,
      "start": 258.2157,
      "duration": 0.1089,
      "velocity": 94,
      "chip": "ym2612"
    },
    {
      "channel": 5,
      "note": 71,
      "start": 258.2159,
      "duration": 0.1089,
      "velocity": 94,
      "chip": "ym2612"
    },
    {
      "channel": 0,
      "note": 98,
      "start": 258.3243,
      "duration": 0.0309,
      "velocity": 114,
      "chip": "ym2612"
    },
    {
      "channel": 5,
      "note": 74,
      "start": 258.3248,
      "duration": 0.109,
      "velocity": 94,
      "chip": "ym2612"
    },
    {
      "channel": 0,
      "note": 98,
      "start": 258.4333,
      "duration": 0.0154,
      "velocity": 127,
      "chip": "ym2612"
    },
    {
      "channel": 1,
      "note": 55,
      "start": 258.4334,
      "duration": 0.2179,
      "velocity": 93,
      "chip": "ym2612"
    },
    {
      "channel": 3,
      "note": 76,
      "start": 258.4336,
      "duration": 0.1089,
      "velocity": 94,
      "chip": "ym2612"
    },
    {
      "channel": 0,
      "note": 76,
      "start": 258.4486,
      "duration": 0.0936,
      "velocity": 114,
      "chip": "ym2612"
    },
    {
      "channel": 0,
      "note": 68,
      "start": 258.5422,
      "duration": 0.0309,
      "velocity": 114,
      "chip": "ym2612"
    },
    {
      "channel": 5,
      "note": 76,
      "start": 258.5427,
      "duration": 0.1091,
      "velocity": 94,
      "chip": "ym2612"
    },
    {
      "channel": 0,
      "note": 98,
      "start": 258.6512,
      "duration": 0.0309,
      "velocity": 114,
      "chip": "ym2612"
    },
    {
      "channel": 1,
      "note": 55,
      "start": 258.6513,
      "duration": 0.2179,
      "velocity": 93,
      "chip": "ym2612"
    },
    {
      "channel": 3,
      "note": 78,
      "start": 258.6515,
      "duration": 0.1088,
      "velocity": 94,
      "chip": "ym2612"
    },
    {
      "channel": 5,
      "note": 78,
      "start": 258.6518,
      "duration": 0.1088,
      "velocity": 94,
      "chip": "ym2612"
    },
    {
      "channel": 0,
      "note": 98,
      "start": 258.7601,
      "duration": 0.0309,
      "velocity": 114,
      "chip": "ym2612"
    },
    {
      "channel": 3,
      "note": 81,
      "start": 258.7604,
      "duration": 0.109,
      "velocity": 94,
      "chip": "ym2612"
    },
    {
      "channel": 5,
      "note": 81,
      "start": 258.7606,
      "duration": 0.109,
      "velocity": 94,
      "chip": "ym2612"
    },
    {
      "channel": 0,
      "note": 98,
      "start": 258.869,
      "duration": 0.1089,
      "velocity": 114,
      "chip": "ym2612"
    },
    {
      "channel": 1,
      "note": 55,
      "start": 258.8692,
      "duration": 0.2178,
      "velocity": 93,
      "chip": "ym2612"
    },
    {
      "channel": 3,
      "note": 69,
      "start": 258.8694,
      "duration": 0.1089,
      "velocity": 94,
      "chip": "ym2612"
    },
    {
      "channel": 5,
      "note": 69,
      "start": 258.8696,
      "duration": 0.1089,
      "velocity": 94,
      "chip": "ym2612"
    },
    {
      "channel": 0,
      "note": 54,
      "start": 258.978,
      "duration": 0.0309,
      "velocity": 114,
      "chip": "ym2612"
    },
    {
      "channel": 3,
      "note": 74,
      "start": 258.9783,
      "duration": 0.109,
      "velocity": 94,
      "chip": "ym2612"
    },
    {
      "channel": 5,
      "note": 74,
      "start": 258.9785,
      "duration": 0.1089,
      "velocity": 94,
      "chip": "ym2612"
    },
    {
      "channel": 0,
      "note": 98,
      "start": 259.0869,
      "duration": 0.0309,
      "velocity": 114,
      "chip": "ym2612"
    },
    {
      "channel": 1,
      "note": 55,
      "start": 259.087,
      "duration": 0.2179,
      "velocity": 93,
      "chip": "ym2612"
    },
    {
      "channel": 0,
      "note": 98,
      "start": 259.1959,
      "duration": 0.0309,
      "velocity": 114,
      "chip": "ym2612"
    },
    {
      "channel": 3,
      "note": 76,
      "start": 259.1961,
      "duration": 0.109,
      "velocity": 94,
      "chip": "ym2612"
    },
    {
      "channel": 5,
      "note": 76,
      "start": 259.1963,
      "duration": 0.109,
      "velocity": 94,
      "chip": "ym2612"
    },
    {
      "channel": 0,
      "note": 98,
      "start": 259.3048,
      "duration": 0.0154,
      "velocity": 127,
      "chip": "ym2612"
    },
    {
      "channel": 1,
      "note": 55,
      "start": 259.3049,
      "duration": 0.2178,
      "velocity": 93,
      "chip": "ym2612"
    },
    {
      "channel": 3,
      "note": 81,
      "start": 259.3051,
      "duration": 0.1089,
      "velocity": 94,
      "chip": "ym2612"
    },
    {
      "channel": 5,
      "note": 81,
      "start": 259.3054,
      "duration": 0.1089,
      "velocity": 94,
      "chip": "ym2612"
    },
    {
      "channel": 0,
      "note": 76,
      "start": 259.3202,
      "duration": 0.0936,
      "velocity": 114,
      "chip": "ym2612"
    },
    {
      "channel": 0,
      "note": 68,
      "start": 259.4137,
      "duration": 0.0309,
      "velocity": 114,
      "chip": "ym2612"
    },
    {
      "channel": 3,
      "note": 69,
      "start": 259.414,
      "duration": 0.109,
      "velocity": 94,
      "chip": "ym2612"
    },
    {
      "channel": 5,
      "note": 69,
      "start": 259.4143,
      "duration": 0.109,
      "velocity": 94,
      "chip": "ym2612"
    },
    {
      "channel": 0,
      "note": 98,
      "start": 259.5227,
      "duration": 0.0309,
      "velocity": 114,
      "chip": "ym2612"
    },
    {
      "channel": 1,
      "note": 55,
      "start": 259.5228,
      "duration": 0.2181,
      "velocity": 93,
      "chip": "ym2612"
    },
    {
      "channel": 3,
      "note": 81,
      "start": 259.523,
      "duration": 0.1089,
      "velocity": 94,
      "chip": "ym2612"
    },
    {
      "channel": 5,
      "note": 81,
      "start": 259.5232,
      "duration": 0.1089,
      "velocity": 94,
      "chip": "ym2612"
    },
    {
      "channel": 0,
      "note": 98,
      "start": 259.6316,
      "duration": 0.0309,
      "velocity": 114,
      "chip": "ym2612"
    },
    {
      "channel": 3,
      "note": 71,
      "start": 259.6319,
      "duration": 0.1092,
      "velocity": 94,
      "chip": "ym2612"
    },
    {
      "channel": 5,
      "note": 71,
      "start": 259.6321,
      "duration": 0.1092,
      "velocity": 94,
      "chip": "ym2612"
    },
    {
      "channel": 0,
      "note": 98,
      "start": 259.7407,
      "duration": 0.1088,
      "velocity": 127,
      "chip": "ym2612"
    },
    {
      "channel": 1,
      "note": 55,
      "start": 259.7409,
      "duration": 0.2177,
      "velocity": 93,
      "chip": "ym2612"
    },
    {
      "channel": 3,
      "note": 74,
      "start": 259.7411,
      "duration": 0.1087,
      "velocity": 94,
      "chip": "ym2612"
    },
    {
      "channel": 5,
      "note": 74,
      "start": 259.7413,
      "duration": 0.1087,
      "velocity": 94,
      "chip": "ym2612"
    },
    {
      "channel": 0,
      "note": 54,
      "start": 259.8495,
      "duration": 0.0154,
      "velocity": 127,
      "chip": "ym2612"
    },
    {
      "channel": 0,
      "note": 76,
      "start": 259.8649,
      "duration": 0.0936,
      "velocity": 114,
      "chip": "ym2612"
    },
    {
      "channel": 0,
      "note": 68,
      "start": 259.9585,
      "duration": 0.0309,
      "velocity": 114,
      "chip": "ym2612"
    },
    {
      "channel": 1,
      "note": 55,
      "start": 259.9586,
      "duration": 0.2179,
      "velocity": 93,
      "chip": "ym2612"
    },
    {
      "channel": 3,
      "note": 76,
      "start": 259.9588,
      "duration": 0.1088,
      "velocity": 94,
      "chip": "ym2612"
    },
    {
      "channel": 5,
      "note": 76,
      "start": 259.959,
      "duration": 0.1089,
      "velocity": 94,
      "chip": "ym2612"
    },
    {
      "channel": 0,
      "note": 98,
      "start": 260.0674,
      "duration": 0.0309,
      "velocity": 114,
      "chip": "ym2612"
    },
    {
      "channel": 5,
      "note": 78,
      "start": 260.0679,
      "duration": 0.1091,
      "velocity": 94,
      "chip": "ym2612"
    },
    {
      "channel": 0,
      "note": 98,
      "start": 260.1764,
      "duration": 0.1089,
      "velocity": 114,
      "chip": "ym2612"
    },
    {
      "channel": 1,
      "note": 56,
      "start": 260.1765,
      "duration": 0.2178,
      "velocity": 93,
      "chip": "ym2612"
    },
    {
      "channel": 2,
      "note": 43,
      "start": 260.1766,
      "duration": 3.0504,
      "velocity": 121,
      "chip": "ym2612"
    },
    {
      "channel": 3,
      "note": 78,
      "start": 260.1768,
      "duration": 0.1087,
      "velocity": 94,
      "chip": "ym2612"
    },
    {
      "channel": 5,
      "note": 81,
      "start": 260.177,
      "duration": 0.1088,
      "velocity": 94,
      "chip": "ym2612"
    },
    {
      "channel": 0,
      "note": 54,
      "start": 260.2853,
      "duration": 0.0309,
      "velocity": 114,
      "chip": "ym2612"
    },
    {
      "channel": 3,
      "note": 81,
      "start": 260.2856,
      "duration": 0.109,
      "velocity": 94,
      "chip": "ym2612"
    },
    {
      "channel": 5,
      "note": 69,
      "start": 260.2858,
      "duration": 0.109,
      "velocity": 94,
      "chip": "ym2612"
    },
    {
      "channel": 4,
      "note": 43,
      "start": 260.3632,
      "duration": 3.0504,
      "velocity": 121,
      "chip": "ym2612"
    },
    {
      "channel": 0,
      "note": 98,
      "start": 260.3942,
      "duration": 0.0309,
      "velocity": 114,
      "chip": "ym2612"
    },
    {
      "channel": 1,
      "note": 64,
      "start": 260.3943,
      "duration": 0.2179,
      "velocity": 93,
      "chip": "ym2612"
    },
    {
      "channel": 3,
      "note": 69,
      "start": 260.3945,
      "duration": 0.1089,
      "velocity": 94,
      "chip": "ym2612"
    },
    {
      "channel": 5,
      "note": 74,
      "start": 260.3948,
      "duration": 0.1089,
      "velocity": 94,
      "chip": "ym2612"
    },
    {
      "channel": 0,
      "note": 98,
      "start": 260.5032,
      "duration": 0.0309,
      "velocity": 114,
      "chip": "ym2612"
    },
    {
      "channel": 3,
      "note": 74,
      "start": 260.5034,
      "duration": 0.109,
      "velocity": 94,
      "chip": "ym2612"
    },
    {
      "channel": 0,
      "note": 98,
      "start": 260.6121,
      "duration": 0.0154,
      "velocity": 127,
      "chip": "ym2612"
    },
    {
      "channel": 1,
      "note": 64,
      "start": 260.6122,
      "duration": 0.2178,
      "velocity": 93,
      "chip": "ym2612"
    },
    {
      "channel": 5,
      "note": 76,
      "start": 260.6127,
      "duration": 0.1089,
      "velocity": 94,
      "chip": "ym2612"
    },
    {
      "channel": 0,
      "note": 76,
      "start": 260.6275,
      "duration": 0.0936,
      "velocity": 114,
      "chip": "ym2612"
    },
    {
      "channel": 0,
      "note": 68,
      "start": 260.721,
      "duration": 0.0309,
      "velocity": 114,
      "chip": "ym2612"
    },
    {
      "channel": 3,
      "note": 76,
      "start": 260.7213,
      "duration": 0.109,
      "velocity": 94,
      "chip": "ym2612"
    },
    {
      "channel": 5,
      "note": 81,
      "start": 260.7216,
      "duration": 0.109,
      "velocity": 94,
      "chip": "ym2612"
    },
    {
      "channel": 0,
      "note": 98,
      "start": 260.83,
      "duration": 0.0309,
      "velocity": 114,
      "chip": "ym2612"
    },
    {
      "channel": 1,
      "note": 64,
      "start": 260.8301,
      "duration": 0.2179,
      "velocity": 93,
      "chip": "ym2612"
    },
    {
      "channel": 3,
      "note": 81,
      "start": 260.8303,
      "duration": 0.1089,
      "velocity": 94,
      "chip": "ym2612"
    },
    {
      "channel": 5,
      "note": 69,
      "start": 260.8305,
      "duration": 0.1089,
      "velocity": 94,
      "chip": "ym2612"
    },
    {
      "channel": 0,
      "note": 98,
      "start": 260.9389,
      "duration": 0.0309,
      "velocity": 114,
      "chip": "ym2612"
    },
    {
      "channel": 3,
      "note": 69,
      "start": 260.9392,
      "duration": 0.109,
      "velocity": 94,
      "chip": "ym2612"
    },
    {
      "channel": 5,
      "note": 81,
      "start": 260.9394,
      "duration": 0.109,
      "velocity": 94,
      "chip": "ym2612"
    },
    {
      "channel": 0,
      "note": 98,
      "start": 261.0479,
      "duration": 0.1089,
      "velocity": 114,
      "chip": "ym2612"
    },
    {
      "channel": 1,
      "note": 64,
      "start": 261.048,
      "duration": 0.2178,
      "velocity": 93,
      "chip": "ym2612"
    },
    {
      "channel": 3,
      "note": 81,
      "start": 261.0482,
      "duration": 0.109,
      "velocity": 94,
      "chip": "ym2612"
    },
    {
      "channel": 5,
      "note": 71,
      "start": 261.0485,
      "duration": 0.109,
      "velocity": 94,
      "chip": "ym2612"
    },
    {
      "channel": 0,
      "note": 54,
      "start": 261.1568,
      "duration": 0.0309,
      "velocity": 114,
      "chip": "ym2612"
    },
    {
      "channel": 3,
      "note": 71,
      "start": 261.1573,
      "duration": 0.1088,
      "velocity": 94,
      "chip": "ym2612"
    },
    {
      "channel": 5,
      "note": 74,
      "start": 261.1575,
      "duration": 0.1088,
      "velocity": 94,
      "chip": "ym2612"
    },
    {
      "channel": 0,
      "note": 98,
      "start": 261.2658,
      "duration": 0.0309,
      "velocity": 114,
      "chip": "ym2612"
    },
    {
      "channel": 1,
      "note": 64,
      "start": 261.2659,
      "duration": 0.2179,
      "velocity": 93,
      "chip": "ym2612"
    },
    {
      "channel": 3,
      "note": 74,
      "start": 261.2661,
      "duration": 0.1089,
      "velocity": 94,
      "chip": "ym2612"
    },
    {
      "channel": 0,
      "note": 98,
      "start": 261.3747,
      "duration": 0.0309,
      "velocity": 114,
      "chip": "ym2612"
    },
    {
      "channel": 5,
      "note": 76,
      "start": 261.3752,
      "duration": 0.1091,
      "velocity": 94,
      "chip": "ym2612"
    },
    {
      "channel": 0,
      "note": 98,
      "start": 261.4837,
      "duration": 0.0153,
      "velocity": 127,
      "chip": "ym2612"
    },
    {
      "channel": 1,
      "note": 64,
      "start": 261.4838,
      "duration": 0.2178,
      "velocity": 93,
      "chip": "ym2612"
    },
    {
      "channel": 3,
      "note": 76,
      "start": 261.484,
      "duration": 0.1089,
      "velocity": 94,
      "chip": "ym2612"
    },
    {
      "channel": 5,
      "note": 78,
      "start": 261.4842,
      "duration": 0.1088,
      "velocity": 94,
      "chip": "ym2612"
    },
    {
      "channel": 0,
      "note": 76,
      "start": 261.499,
      "duration": 0.0936,
      "velocity": 114,
      "chip": "ym2612"
    },
    {
      "channel": 0,
      "note": 68,
      "start": 261.5926,
      "duration": 0.0309,
      "velocity": 114,
      "chip": "ym2612"
    },
    {
      "channel": 5,
      "note": 81,
      "start": 261.5931,
      "duration": 0.109,
      "velocity": 94,
      "chip": "ym2612"
    },
    {
      "channel": 0,
      "note": 98,
      "start": 261.7015,
      "duration": 0.0309,
      "velocity": 114,
      "chip": "ym2612"
    },
    {
      "channel": 1,
      "note": 64,
      "start": 261.7016,
      "duration": 0.2179,
      "velocity": 93,
      "chip": "ym2612"
    },
    {
      "channel": 3,
      "note": 78,
      "start": 261.7019,
      "duration": 0.1088,
      "velocity": 94,
      "chip": "ym2612"
    },
    {
      "channel": 5,
      "note": 69,
      "start": 261.7022,
      "duration": 0.1088,
      "velocity": 94,
      "chip": "ym2612"
    },
    {
      "channel": 0,
      "note": 98,
      "start": 261.8105,
      "duration": 0.0309,
      "velocity": 114,
      "chip": "ym2612"
    },
    {
      "channel": 3,
      "note": 81,
      "start": 261.8107,
      "duration": 0.109,
      "velocity": 94,
      "chip": "ym2612"
    },
    {
      "channel": 5,
      "note": 74,
      "start": 261.811,
      "duration": 0.109,
      "velocity": 94,
      "chip": "ym2612"
    },
    {
      "channel": 0,
      "note": 98,
      "start": 261.9194,
      "duration": 0.1089,
      "velocity": 114,
      "chip": "ym2612"
    },
    {
      "channel": 1,
      "note": 64,
      "start": 261.9196,
      "duration": 0.2178,
      "velocity": 93,
      "chip": "ym2612"
    },
    {
      "channel": 3,
      "note": 69,
      "start": 261.9198,
      "duration": 0.1089,
      "velocity": 94,
      "chip": "ym2612"
    },
    {
      "channel": 0,
      "note": 54,
      "start": 262.0283,
      "duration": 0.0309,
      "velocity": 114,
      "chip": "ym2612"
    },
    {
      "channel": 3,
      "note": 74,
      "start": 262.0286,
      "duration": 0.1089,
      "velocity": 94,
      "chip": "ym2612"
    },
    {
      "channel": 5,
      "note": 76,
      "start": 262.0289,
      "duration": 0.1089,
      "velocity": 94,
      "chip": "ym2612"
    },
    {
      "channel": 0,
      "note": 98,
      "start": 262.1373,
      "duration": 0.0309,
      "velocity": 114,
      "chip": "ym2612"
    },
    {
      "channel": 1,
      "note": 64,
      "start": 262.1374,
      "duration": 0.2179,
      "velocity": 93,
      "chip": "ym2612"
    },
    {
      "channel": 5,
      "note": 81,
      "start": 262.1378,
      "duration": 0.1089,
      "velocity": 94,
      "chip": "ym2612"
    },
    {
      "channel": 0,
      "note": 98,
      "start": 262.2462,
      "duration": 0.0309,
      "velocity": 114,
      "chip": "ym2612"
    },
    {
      "channel": 3,
      "note": 76,
      "start": 262.2465,
      "duration": 0.109,
      "velocity": 94,
      "chip": "ym2612"
    },
    {
      "channel": 5,
      "note": 69,
      "start": 262.2467,
      "duration": 0.109,
      "velocity": 94,
      "chip": "ym2612"
    },
    {
      "channel": 0,
      "note": 98,
      "start": 262.3552,
      "duration": 0.0154,
      "velocity": 127,
      "chip": "ym2612"
    },
    {
      "channel": 1,
      "note": 64,
      "start": 262.3553,
      "duration": 0.2178,
      "velocity": 93,
      "chip": "ym2612"
    },
    {
      "channel": 3,
      "note": 81,
      "start": 262.3555,
      "duration": 0.1089,
      "velocity": 94,
      "chip": "ym2612"
    },
    {
      "channel": 5,
      "note": 81,
      "start": 262.3557,
      "duration": 0.1089,
      "velocity": 94,
      "chip": "ym2612"
    },
    {
      "channel": 0,
      "note": 76,
      "start": 262.3705,
      "duration": 0.0936,
      "velocity": 114,
      "chip": "ym2612"
    },
    {
      "channel": 0,
      "note": 68,
      "start": 262.4641,
      "duration": 0.0309,
      "velocity": 114,
      "chip": "ym2612"
    },
    {
      "channel": 3,
      "note": 69,
      "start": 262.4644,
      "duration": 0.109,
      "velocity": 94,
      "chip": "ym2612"
    },
    {
      "channel": 5,
      "note": 71,
      "start": 262.4646,
      "duration": 0.1091,
      "velocity": 94,
      "chip": "ym2612"
    },
    {
      "channel": 0,
      "note": 98,
      "start": 262.5731,
      "duration": 0.0309,
      "velocity": 114,
      "chip": "ym2612"
    },
    {
      "channel": 1,
      "note": 64,
      "start": 262.5732,
      "duration": 0.2179,
      "velocity": 93,
      "chip": "ym2612"
    },
    {
      "channel": 3,
      "note": 81,
      "start": 262.5734,
      "duration": 0.1089,
      "velocity": 94,
      "chip": "ym2612"
    },
    {
      "channel": 5,
      "note": 74,
      "start": 262.5738,
      "duration": 0.1087,
      "velocity": 94,
      "chip": "ym2612"
    },
    {
      "channel": 0,
      "note": 98,
      "start": 262.682,
      "duration": 0.0309,
      "velocity": 114,
      "chip": "ym2612"
    },
    {
      "channel": 3,
      "note": 71,
      "start": 262.6823,
      "duration": 0.109,
      "velocity": 94,
      "chip": "ym2612"
    },
    {
      "channel": 0,
      "note": 98,
      "start": 262.791,
      "duration": 0.1089,
      "velocity": 127,
      "chip": "ym2612"
    },
    {
      "channel": 1,
      "note": 64,
      "start": 262.7911,
      "duration": 0.2178,
      "velocity": 93,
      "chip": "ym2612"
    },
    {
      "channel": 3,
      "note": 74,
      "start": 262.7913,
      "duration": 0.1089,
      "velocity": 94,
      "chip": "ym2612"
    },
    {
      "channel": 5,
      "note": 76,
      "start": 262.7915,
      "duration": 0.1089,
      "velocity": 94,
      "chip": "ym2612"
    },
    {
      "channel": 0,
      "note": 54,
      "start": 262.8999,
      "duration": 0.0154,
      "velocity": 127,
      "chip": "ym2612"
    },
    {
      "channel": 5,
      "note": 78,
      "start": 262.9004,
      "duration": 0.1089,
      "velocity": 94,
      "chip": "ym2612"
    },
    {
      "channel": 0,
      "note": 76,
      "start": 262.9152,
      "duration": 0.0936,
      "velocity": 114,
      "chip": "ym2612"
    },
    {
      "channel": 0,
      "note": 68,
      "start": 263.0088,
      "duration": 0.0309,
      "velocity": 114,
      "chip": "ym2612"
    },
    {
      "channel": 1,
      "note": 64,
      "start": 263.009,
      "duration": 0.2179,
      "velocity": 93,
      "chip": "ym2612"
    },
    {
      "channel": 3,
      "note": 76,
      "start": 263.0091,
      "duration": 0.1089,
      "velocity": 94,
      "chip": "ym2612"
    },
    {
      "channel": 5,
      "note": 81,
      "start": 263.0094,
      "duration": 0.1088,
      "velocity": 94,
      "chip": "ym2612"
    },
    {
      "channel": 0,
      "note": 98,
      "start": 263.1178,
      "duration": 0.0309,
      "velocity": 114,
      "chip": "ym2612"
    },
    {
      "channel": 5,
      "note": 69,
      "start": 263.1183,
      "duration": 0.1091,
      "velocity": 94,
      "chip": "ym2612"
    },
    {
      "channel": 0,
      "note": 98,
      "start": 263.2267,
      "duration": 0.1089,
      "velocity": 114,
      "chip": "ym2612"
    },
    {
      "channel": 1,
      "note": 64,
      "start": 263.2269,
      "duration": 0.2178,
      "velocity": 93,
      "chip": "ym2612"
    },
    {
      "channel": 2,
      "note": 52,
      "start": 263.227,
      "duration": 3.0504,
      "velocity": 121,
      "chip": "ym2612"
    },
    {
      "channel": 3,
      "note": 78,
      "start": 263.2272,
      "duration": 0.1087,
      "velocity": 94,
      "chip": "ym2612"
    },
    {
      "channel": 5,
      "note": 74,
      "start": 263.2274,
      "duration": 0.1087,
      "velocity": 94,
      "chip": "ym2612"
    },
    {
      "channel": 0,
      "note": 54,
      "start": 263.3356,
      "duration": 0.0309,
      "velocity": 114,
      "chip": "ym2612"
    },
    {
      "channel": 3,
      "note": 81,
      "start": 263.3359,
      "duration": 0.109,
      "velocity": 94,
      "chip": "ym2612"
    },
    {
      "channel": 4,
      "note": 52,
      "start": 263.4136,
      "duration": 3.0503,
      "velocity": 121,
      "chip": "ym2612"
    },
    {
      "channel": 0,
      "note": 98,
      "start": 263.4446,
      "duration": 0.0309,
      "velocity": 114,
      "chip": "ym2612"
    },
    {
      "channel": 1,
      "note": 62,
      "start": 263.4447,
      "duration": 0.2179,
      "velocity": 93,
      "chip": "ym2612"
    },
    {
      "channel": 3,
      "note": 69,
      "start": 263.4449,
      "duration": 0.1089,
      "velocity": 94,
      "chip": "ym2612"
    },
    {
      "channel": 5,
      "note": 76,
      "start": 263.4451,
      "duration": 0.1089,
      "velocity": 94,
      "chip": "ym2612"
    },
    {
      "channel": 0,
      "note": 98,
      "start": 263.5535,
      "duration": 0.0309,
      "velocity": 114,
      "chip": "ym2612"
    },
    {
      "channel": 3,
      "note": 74,
      "start": 263.5538,
      "duration": 0.109,
      "velocity": 94,
      "chip": "ym2612"
    },
    {
      "channel": 5,
      "note": 81,
      "start": 263.554,
      "duration": 0.109,
      "velocity": 94,
      "chip": "ym2612"
    },
    {
      "channel": 0,
      "note": 98,
      "start": 263.6625,
      "duration": 0.0154,
      "velocity": 127,
      "chip": "ym2612"
    },
    {
      "channel": 1,
      "note": 62,
      "start": 263.6626,
      "duration": 0.2178,
      "velocity": 93,
      "chip": "ym2612"
    },
    {
      "channel": 5,
      "note": 69,
      "start": 263.663,
      "duration": 0.1089,
      "velocity": 94,
      "chip": "ym2612"
    },
    {
      "channel": 0,
      "note": 76,
      "start": 263.6778,
      "duration": 0.0936,
      "velocity": 114,
      "chip": "ym2612"
    },
    {
      "channel": 0,
      "note": 68,
      "start": 263.7714,
      "duration": 0.0309,
      "velocity": 114,
      "chip": "ym2612"
    },
    {
      "channel": 3,
      "note": 76,
      "start": 263.7717,
      "duration": 0.109,
      "velocity": 94,
      "chip": "ym2612"
    },
    {
      "channel": 5,
      "note": 81,
      "start": 263.7719,
      "duration": 0.109,
      "velocity": 94,
      "chip": "ym2612"
    },
    {
      "channel": 0,
      "note": 98,
      "start": 263.8804,
      "duration": 0.0309,
      "velocity": 114,
      "chip": "ym2612"
    },
    {
      "channel": 1,
      "note": 62,
      "start": 263.8805,
      "duration": 0.2179,
      "velocity": 93,
      "chip": "ym2612"
    },
    {
      "channel": 3,
      "note": 81,
      "start": 263.8807,
      "duration": 0.1089,
      "velocity": 94,
      "chip": "ym2612"
    },
    {
      "channel": 5,
      "note": 71,
      "start": 263.8809,
      "duration": 0.1089,
      "velocity": 94,
      "chip": "ym2612"
    },
    {
      "channel": 0,
      "note": 98,
      "start": 263.9893,
      "duration": 0.0309,
      "velocity": 114,
      "chip": "ym2612"
    },
    {
      "channel": 3,
      "note": 69,
      "start": 263.9896,
      "duration": 0.109,
      "velocity": 94,
      "chip": "ym2612"
    },
    {
      "channel": 5,
      "note": 74,
      "start": 263.9898,
      "duration": 0.109,
      "velocity": 94,
      "chip": "ym2612"
    },
    {
      "channel": 0,
      "note": 98,
      "start": 264.0983,
      "duration": 0.1091,
      "velocity": 114,
      "chip": "ym2612"
    },
    {
      "channel": 1,
      "note": 62,
      "start": 264.0984,
      "duration": 0.2178,
      "velocity": 93,
      "chip": "ym2612"
    },
    {
      "channel": 3,
      "note": 81,
      "start": 264.0986,
      "duration": 0.109,
      "velocity": 94,
      "chip": "ym2612"
    },
    {
      "channel": 0,
      "note": 54,
      "start": 264.2073,
      "duration": 0.0307,
      "velocity": 114,
      "chip": "ym2612"
    },
    {
      "channel": 3,
      "note": 71,
      "start": 264.2076,
      "duration": 0.1088,
      "velocity": 94,
      "chip": "ym2612"
    },
    {
      "channel": 5,
      "note": 76,
      "start": 264.2079,
      "duration": 0.1088,
      "velocity": 94,
      "chip": "ym2612"
    },
    {
      "channel": 0,
      "note": 98,
      "start": 264.3161,
      "duration": 0.0309,
      "velocity": 114,
      "chip": "ym2612"
    },
    {
      "channel": 1,
      "note": 62,
      "start": 264.3162,
      "duration": 0.2179,
      "velocity": 93,
      "chip": "ym2612"
    },
    {
      "channel": 3,
      "note": 74,
      "start": 264.3164,
      "duration": 0.1089,
      "velocity": 94,
      "chip": "ym2612"
    },
    {
      "channel": 5,
      "note": 78,
      "start": 264.3167,
      "duration": 0.1088,
      "velocity": 94,
      "chip": "ym2612"
    },
    {
      "channel": 0,
      "note": 98,
      "start": 264.4251,
      "duration": 0.0309,
      "velocity": 114,
      "chip": "ym2612"
    },
    {
      "channel": 5,
      "note": 81,
      "start": 264.4256,
      "duration": 0.109,
      "velocity": 94,
      "chip": "ym2612"
    },
    {
      "channel": 0,
      "note": 98,
      "start": 264.534,
      "duration": 0.0154,
      "velocity": 127,
      "chip": "ym2612"
    },
    {
      "channel": 1,
      "note": 62,
      "start": 264.5341,
      "duration": 0.2178,
      "velocity": 93,
      "chip": "ym2612"
    },
    {
      "channel": 3,
      "note": 76,
      "start": 264.5343,
      "duration": 0.1089,
      "velocity": 94,
      "chip": "ym2612"
    },
    {
      "channel": 5,
      "note": 69,
      "start": 264.5346,
      "duration": 0.1089,
      "velocity": 94,
      "chip": "ym2612"
    },
    {
      "channel": 0,
      "note": 76,
      "start": 264.5494,
      "duration": 0.0936,
      "velocity": 114,
      "chip": "ym2612"
    },
    {
      "channel": 0,
      "note": 68,
      "start": 264.6429,
      "duration": 0.0309,
      "velocity": 114,
      "chip": "ym2612"
    },
    {
      "channel": 5,
      "note": 74,
      "start": 264.6434,
      "duration": 0.109,
      "velocity": 94,
      "chip": "ym2612"
    },
    {
      "channel": 0,
      "note": 98,
      "start": 264.7519,
      "duration": 0.0309,
      "velocity": 114,
      "chip": "ym2612"
    },
    {
      "channel": 1,
      "note": 62,
      "start": 264.752,
      "duration": 0.2179,
      "velocity": 93,
      "chip": "ym2612"
    },
    {
      "channel": 3,
      "note": 78,
      "start": 264.7523,
      "duration": 0.1088,
      "velocity": 94,
      "chip": "ym2612"
    },
    {
      "channel": 0,
      "note": 98,
      "start": 264.8608,
      "duration": 0.0309,
      "velocity": 114,
      "chip": "ym2612"
    },
    {
      "channel": 3,
      "note": 81,
      "start": 264.8611,
      "duration": 0.109,
      "velocity": 94,
      "chip": "ym2612"
    },
    {
      "channel": 5,
      "note": 76,
      "start": 264.8613,
      "duration": 0.109,
      "velocity": 94,
      "chip": "ym2612"
    },
    {
      "channel": 0,
      "note": 98,
      "start": 264.9698,
      "duration": 0.1089,
      "velocity": 114,
      "chip": "ym2612"
    },
    {
      "channel": 1,
      "note": 62,
      "start": 264.9699,
      "duration": 0.2178,
      "velocity": 93,
      "chip": "ym2612"
    },
    {
      "channel": 3,
      "note": 69,
      "start": 264.9701,
      "duration": 0.1088,
      "velocity": 94,
      "chip": "ym2612"
    },
    {
      "channel": 5,
      "note": 81,
      "start": 264.9704,
      "duration": 0.1089,
      "velocity": 94,
      "chip": "ym2612"
    },
    {
      "channel": 0,
      "note": 54,
      "start": 265.0787,
      "duration": 0.0309,
      "velocity": 114,
      "chip": "ym2612"
    },
    {
      "channel": 3,
      "note": 74,
      "start": 265.079,
      "duration": 0.109,
      "velocity": 94,
      "chip": "ym2612"
    },
    {
      "channel": 5,
      "note": 69,
      "start": 265.0792,
      "duration": 0.1089,
      "velocity": 94,
      "chip": "ym2612"
    },
    {
      "channel": 0,
      "note": 98,
      "start": 265.1877,
      "duration": 0.0309,
      "velocity": 114,
      "chip": "ym2612"
    },
    {
      "channel": 1,
      "note": 62,
      "start": 265.1878,
      "duration": 0.2179,
      "velocity": 93,
      "chip": "ym2612"
    },
    {
      "channel": 5,
      "note": 81,
      "start": 265.1882,
      "duration": 0.1089,
      "velocity": 94,
      "chip": "ym2612"
    },
    {
      "channel": 0,
      "note": 98,
      "start": 265.2966,
      "duration": 0.0309,
      "velocity": 114,
      "chip": "ym2612"
    },
    {
      "channel": 3,
      "note": 76,
      "start": 265.2968,
      "duration": 0.109,
      "velocity": 94,
      "chip": "ym2612"
    },
    {
      "channel": 5,
      "note": 71,
      "start": 265.2971,
      "duration": 0.109,
      "velocity": 94,
      "chip": "ym2612"
    },
    {
      "channel": 0,
      "note": 98,
      "start": 265.4055,
      "duration": 0.0154,
      "velocity": 127,
      "chip": "ym2612"
    },
    {
      "channel": 1,
      "note": 62,
      "start": 265.4057,
      "duration": 0.2179,
      "velocity": 93,
      "chip": "ym2612"
    },
    {
      "channel": 3,
      "note": 81,
      "start": 265.4059,
      "duration": 0.1089,
      "velocity": 94,
      "chip": "ym2612"
    },
    {
      "channel": 5,
      "note": 74,
      "start": 265.4061,
      "duration": 0.1089,
      "velocity": 94,
      "chip": "ym2612"
    },
    {
      "channel": 0,
      "note": 76,
      "start": 265.4209,
      "duration": 0.0936,
      "velocity": 114,
      "chip": "ym2612"
    },
    {
      "channel": 0,
      "note": 68,
      "start": 265.5145,
      "duration": 0.0309,
      "velocity": 114,
      "chip": "ym2612"
    },
    {
      "channel": 3,
      "note": 69,
      "start": 265.5148,
      "duration": 0.1091,
      "velocity": 94,
      "chip": "ym2612"
    },
    {
      "channel": 0,
      "note": 98,
      "start": 265.6234,
      "duration": 0.0309,
      "velocity": 114,
      "chip": "ym2612"
    },
    {
      "channel": 1,
      "note": 62,
      "start": 265.6235,
      "duration": 0.2179,
      "velocity": 93,
      "chip": "ym2612"
    },
    {
      "channel": 3,
      "note": 81,
      "start": 265.6239,
      "duration": 0.1087,
      "velocity": 94,
      "chip": "ym2612"
    },
    {
      "channel": 5,
      "note": 76,
      "start": 265.6241,
      "duration": 0.1088,
      "velocity": 94,
      "chip": "ym2612"
    },
    {
      "channel": 0,
      "note": 98,
      "start": 265.7324,
      "duration": 0.0309,
      "velocity": 114,
      "chip": "ym2612"
    },
    {
      "channel": 3,
      "note": 71,
      "start": 265.7326,
      "duration": 0.109,
      "velocity": 94,
      "chip": "ym2612"
    },
    {
      "channel": 5,
      "note": 78,
      "start": 265.7329,
      "duration": 0.109,
      "velocity": 94,
      "chip": "ym2612"
    },
    {
      "channel": 0,
      "note": 98,
      "start": 265.8413,
      "duration": 0.1089,
      "velocity": 127,
      "chip": "ym2612"
    },
    {
      "channel": 1,
      "note": 62,
      "start": 265.8415,
      "duration": 0.2179,
      "velocity": 93,
      "chip": "ym2612"
    },
    {
      "channel": 3,
      "note": 74,
      "start": 265.8417,
      "duration": 0.1089,
      "velocity": 94,
      "chip": "ym2612"
    },
    {
      "channel": 5,
      "note": 81,
      "start": 265.8419,
      "duration": 0.1088,
      "velocity": 94,
      "chip": "ym2612"
    },
    {
      "channel": 0,
      "note": 54,
      "start": 265.9502,
      "duration": 0.0154,
      "velocity": 127,
      "chip": "ym2612"
    },
    {
      "channel": 5,
      "note": 69,
      "start": 265.9507,
      "duration": 0.109,
      "velocity": 94,
      "chip": "ym2612"
    },
    {
      "channel": 0,
      "note": 76,
      "start": 265.9656,
      "duration": 0.0936,
      "velocity": 114,
      "chip": "ym2612"
    },
    {
      "channel": 0,
      "note": 68,
      "start": 266.0592,
      "duration": 0.0309,
      "velocity": 114,
      "chip": "ym2612"
    },
    {
      "channel": 1,
      "note": 62,
      "start": 266.0593,
      "duration": 0.2179,
      "velocity": 93,
      "chip": "ym2612"
    },
    {
      "channel": 3,
      "note": 76,
      "start": 266.0595,
      "duration": 0.1089,
      "velocity": 94,
      "chip": "ym2612"
    },
    {
      "channel": 5,
      "note": 74,
      "start": 266.0598,
      "duration": 0.1088,
      "velocity": 94,
      "chip": "ym2612"
    },
    {
      "channel": 0,
      "note": 98,
      "start": 266.1681,
      "duration": 0.0309,
      "velocity": 114,
      "chip": "ym2612"
    },
    {
      "channel": 0,
      "note": 98,
      "start": 266.2771,
      "duration": 0.1089,
      "velocity": 114,
      "chip": "ym2612"
    },
    {
      "channel": 1,
      "note": 62,
      "start": 266.2772,
      "duration": 0.2178,
      "velocity": 93,
      "chip": "ym2612"
    },
    {
      "channel": 2,
      "note": 50,
      "start": 266.2773,
      "duration": 3.0504,
      "velocity": 121,
      "chip": "ym2612"
    },
    {
      "channel": 3,
      "note": 78,
      "start": 266.2775,
      "duration": 0.1088,
      "velocity": 94,
      "chip": "ym2612"
    },
    {
      "channel": 5,
      "note": 76,
      "start": 266.2778,
      "duration": 0.1088,
      "velocity": 94,
      "chip": "ym2612"
    },
    {
      "channel": 0,
      "note": 54,
      "start": 266.386,
      "duration": 0.0309,
      "velocity": 114,
      "chip": "ym2612"
    },
    {
      "channel": 3,
      "note": 81,
      "start": 266.3863,
      "duration": 0.109,
      "velocity": 94,
      "chip": "ym2612"
    },
    {
      "channel": 5,
      "note": 81,
      "start": 266.3865,
      "duration": 0.109,
      "velocity": 94,
      "chip": "ym2612"
    },
    {
      "channel": 4,
      "note": 50,
      "start": 266.4639,
      "duration": 3.0504,
      "velocity": 121,
      "chip": "ym2612"
    },
    {
      "channel": 0,
      "note": 98,
      "start": 266.495,
      "duration": 0.0309,
      "velocity": 114,
      "chip": "ym2612"
    },
    {
      "channel": 1,
      "note": 59,
      "start": 266.4951,
      "duration": 0.2179,
      "velocity": 93,
      "chip": "ym2612"
    },
    {
      "channel": 3,
      "note": 69,
      "start": 266.4953,
      "duration": 0.1089,
      "velocity": 94,
      "chip": "ym2612"
    },
    {
      "channel": 5,
      "note": 69,
      "start": 266.4955,
      "duration": 0.1089,
      "velocity": 94,
      "chip": "ym2612"
    },
    {
      "channel": 0,
      "note": 98,
      "start": 266.6039,
      "duration": 0.0309,
      "velocity": 114,
      "chip": "ym2612"
    },
    {
      "channel": 3,
      "note": 74,
      "start": 266.6042,
      "duration": 0.109,
      "velocity": 94,
      "chip": "ym2612"
    },
    {
      "channel": 5,
      "note": 81,
      "start": 266.6044,
      "duration": 0.109,
      "velocity": 94,
      "chip": "ym2612"
    },
    {
      "channel": 0,
      "note": 98,
      "start": 266.7128,
      "duration": 0.0154,
      "velocity": 127,
      "chip": "ym2612"
    },
    {
      "channel": 1,
      "note": 59,
      "start": 266.713,
      "duration": 0.2179,
      "velocity": 93,
      "chip": "ym2612"
    },
    {
      "channel": 5,
      "note": 71,
      "start": 266.7134,
      "duration": 0.1089,
      "velocity": 94,
      "chip": "ym2612"
    },
    {
      "channel": 0,
      "note": 76,
      "start": 266.7282,
      "duration": 0.0936,
      "velocity": 114,
      "chip": "ym2612"
    },
    {
      "channel": 0,
      "note": 68,
      "start": 266.8218,
      "duration": 0.0309,
      "velocity": 114,
      "chip": "ym2612"
    },
    {
      "channel": 3,
      "note": 76,
      "start": 266.8221,
      "duration": 0.109,
      "velocity": 94,
      "chip": "ym2612"
    },
    {
      "channel": 5,
      "note": 74,
      "start": 266.8223,
      "duration": 0.109,
      "velocity": 94,
      "chip": "ym2612"
    },
    {
      "channel": 0,
      "note": 98,
      "start": 266.9307,
      "duration": 0.0309,
      "velocity": 114,
      "chip": "ym2612"
    },
    {
      "channel": 1,
      "note": 59,
      "start": 266.9308,
      "duration": 0.2179,
      "velocity": 93,
      "chip": "ym2612"
    },
    {
      "channel": 3,
      "note": 81,
      "start": 266.931,
      "duration": 0.1089,
      "velocity": 94,
      "chip": "ym2612"
    },
    {
      "channel": 0,
      "note": 98,
      "start": 267.0397,
      "duration": 0.0309,
      "velocity": 114,
      "chip": "ym2612"
    },
    {
      "channel": 3,
      "note": 69,
      "start": 267.0399,
      "duration": 0.109,
      "velocity": 94,
      "chip": "ym2612"
    },
    {
      "channel": 5,
      "note": 76,
      "start": 267.0402,
      "duration": 0.1091,
      "velocity": 94,
      "chip": "ym2612"
    },
    {
      "channel": 0,
      "note": 98,
      "start": 267.1486,
      "duration": 0.1089,
      "velocity": 114,
      "chip": "ym2612"
    },
    {
      "channel": 1,
      "note": 59,
      "start": 267.1488,
      "duration": 0.2178,
      "velocity": 93,
      "chip": "ym2612"
    },
    {
      "channel": 3,
      "note": 81,
      "start": 267.149,
      "duration": 0.1089,
      "velocity": 94,
      "chip": "ym2612"
    },
    {
      "channel": 5,
      "note": 78,
      "start": 267.1493,
      "duration": 0.1088,
      "velocity": 94,
      "chip": "ym2612"
    },
    {
      "channel": 0,
      "note": 54,
      "start": 267.2576,
      "duration": 0.0309,
      "velocity": 114,
      "chip": "ym2612"
    },
    {
      "channel": 3,
      "note": 71,
      "start": 267.2578,
      "duration": 0.109,
      "velocity": 94,
      "chip": "ym2612"
    },
    {
      "channel": 5,
      "note": 81,
      "start": 267.2581,
      "duration": 0.109,
      "velocity": 94,
      "chip": "ym2612"
    },
    {
      "channel": 0,
      "note": 98,
      "start": 267.3665,
      "duration": 0.0309,
      "velocity": 114,
      "chip": "ym2612"
    },
    {
      "channel": 1,
      "note": 59,
      "start": 267.3666,
      "duration": 0.2179,
      "velocity": 93,
      "chip": "ym2612"
    },
    {
      "channel": 3,
      "note": 74,
      "start": 267.3668,
      "duration": 0.1089,
      "velocity": 94,
      "chip": "ym2612"
    },
    {
      "channel": 5,
      "note": 69,
      "start": 267.3671,
      "duration": 0.1088,
      "velocity": 94,
      "chip": "ym2612"
    },
    {
      "channel": 0,
      "note": 98,
      "start": 267.4754,
      "duration": 0.0309,
      "velocity": 114,
      "chip": "ym2612"
    },
    {
      "channel": 5,
      "note": 74,
      "start": 267.4759,
      "duration": 0.109,
      "velocity": 94,
      "chip": "ym2612"
    },
    {
      "channel": 0,
      "note": 98,
      "start": 267.5844,
      "duration": 0.0154,
      "velocity": 127,
      "chip": "ym2612"
    },
    {
      "channel": 1,
      "note": 59,
      "start": 267.5845,
      "duration": 0.2178,
      "velocity": 93,
      "chip": "ym2612"
    },
    {
      "channel": 3,
      "note": 76,
      "start": 267.5847,
      "duration": 0.1089,
      "velocity": 94,
      "chip": "ym2612"
    },
    {
      "channel": 0,
      "note": 76,
      "start": 267.5997,
      "duration": 0.0936,
      "velocity": 114,
      "chip": "ym2612"
    },
    {
      "channel": 0,
      "note": 68,
      "start": 267.6933,
      "duration": 0.0309,
      "velocity": 114,
      "chip": "ym2612"
    },
    {
      "channel": 5,
      "note": 76,
      "start": 267.6938,
      "duration": 0.1091,
      "velocity": 94,
      "chip": "ym2612"
    },
    {
      "channel": 0,
      "note": 98,
      "start": 267.8023,
      "duration": 0.0309,
      "velocity": 114,
      "chip": "ym2612"
    },
    {
      "channel": 1,
      "note": 59,
      "start": 267.8024,
      "duration": 0.2179,
      "velocity": 93,
      "chip": "ym2612"
    },
    {
      "channel": 3,
      "note": 78,
      "start": 267.8026,
      "duration": 0.1088,
      "velocity": 94,
      "chip": "ym2612"
    },
    {
      "channel": 5,
      "note": 81,
      "start": 267.8029,
      "duration": 0.1088,
      "velocity": 94,
      "chip": "ym2612"
    },
    {
      "channel": 0,
      "note": 98,
      "start": 267.9112,
      "duration": 0.0309,
      "velocity": 114,
      "chip": "ym2612"
    },
    {
      "channel": 3,
      "note": 81,
      "start": 267.9115,
      "duration": 0.109,
      "velocity": 94,
      "chip": "ym2612"
    },
    {
      "channel": 5,
      "note": 69,
      "start": 267.9117,
      "duration": 0.109,
      "velocity": 94,
      "chip": "ym2612"
    },
    {
      "channel": 0,
      "note": 98,
      "start": 268.0202,
      "duration": 0.1089,
      "velocity": 114,
      "chip": "ym2612"
    },
    {
      "channel": 1,
      "note": 59,
      "start": 268.0203,
      "duration": 0.2178,
      "velocity": 93,
      "chip": "ym2612"
    },
    {
      "channel": 3,
      "note": 69,
      "start": 268.0205,
      "duration": 0.1089,
      "velocity": 94,
      "chip": "ym2612"
    },
    {
      "channel": 5,
      "note": 81,
      "start": 268.0207,
      "duration": 0.1089,
      "velocity": 94,
      "chip": "ym2612"
    },
    {
      "channel": 0,
      "note": 54,
      "start": 268.1291,
      "duration": 0.0309,
      "velocity": 114,
      "chip": "ym2612"
    },
    {
      "channel": 3,
      "note": 74,
      "start": 268.1294,
      "duration": 0.109,
      "velocity": 94,
      "chip": "ym2612"
    },
    {
      "channel": 5,
      "note": 71,
      "start": 268.1296,
      "duration": 0.1089,
      "velocity": 94,
      "chip": "ym2612"
    },
    {
      "channel": 0,
      "note": 98,
      "start": 268.238,
      "duration": 0.0309,
      "velocity": 114,
      "chip": "ym2612"
    },
    {
      "channel": 1,
      "note": 59,
      "start": 268.2381,
      "duration": 0.2179,
      "velocity": 93,
      "chip": "ym2612"
    },
    {
      "channel": 5,
      "note": 74,
      "start": 268.2385,
      "duration": 0.1089,
      "velocity": 94,
      "chip": "ym2612"
    },
    {
      "channel": 0,
      "note": 98,
      "start": 268.347,
      "duration": 0.0309,
      "velocity": 114,
      "chip": "ym2612"
    },
    {
      "channel": 3,
      "note": 76,
      "start": 268.3472,
      "duration": 0.109,
      "velocity": 94,
      "chip": "ym2612"
    },
    {
      "channel": 0,
      "note": 98,
      "start": 268.4559,
      "duration": 0.0154,
      "velocity": 127,
      "chip": "ym2612"
    },
    {
      "channel": 1,
      "note": 59,
      "start": 268.4561,
      "duration": 0.218,
      "velocity": 93,
      "chip": "ym2612"
    },
    {
      "channel": 3,
      "note": 81,
      "start": 268.4562,
      "duration": 0.1089,
      "velocity": 94,
      "chip": "ym2612"
    },
    {
      "channel": 5,
      "note": 76,
      "start": 268.4565,
      "duration": 0.109,
      "velocity": 94,
      "chip": "ym2612"
    },
    {
      "channel": 0,
      "note": 76,
      "start": 268.4713,
      "duration": 0.0936,
      "velocity": 114,
      "chip": "ym2612"
    },
    {
      "channel": 0,
      "note": 68,
      "start": 268.5649,
      "duration": 0.0309,
      "velocity": 114,
      "chip": "ym2612"
    },
    {
      "channel": 3,
      "note": 69,
      "start": 268.5651,
      "duration": 0.1091,
      "velocity": 94,
      "chip": "ym2612"
    },
    {
      "channel": 5,
      "note": 78,
      "start": 268.5654,
      "duration": 0.1091,
      "velocity": 94,
      "chip": "ym2612"
    },
    {
      "channel": 0,
      "note": 98,
      "start": 268.674,
      "duration": 0.0307,
      "velocity": 114,
      "chip": "ym2612"
    },
    {
      "channel": 1,
      "note": 59,
      "start": 268.6741,
      "duration": 0.2177,
      "velocity": 93,
      "chip": "ym2612"
    },
    {
      "channel": 3,
      "note": 81,
      "start": 268.6743,
      "duration": 0.1087,
      "velocity": 94,
      "chip": "ym2612"
    },
    {
      "channel": 5,
      "note": 81,
      "start": 268.6745,
      "duration": 0.1087,
      "velocity": 94,
      "chip": "ym2612"
    },
    {
      "channel": 0,
      "note": 98,
      "start": 268.7827,
      "duration": 0.0309,
      "velocity": 114,
      "chip": "ym2612"
    },
    {
      "channel": 3,
      "note": 71,
      "start": 268.783,
      "duration": 0.109,
      "velocity": 94,
      "chip": "ym2612"
    },
    {
      "channel": 5,
      "note": 69,
      "start": 268.7832,
      "duration": 0.109,
      "velocity": 94,
      "chip": "ym2612"
    },
    {
      "channel": 0,
      "note": 98,
      "start": 268.8917,
      "duration": 0.1089,
      "velocity": 127,
      "chip": "ym2612"
    },
    {
      "channel": 1,
      "note": 59,
      "start": 268.8918,
      "duration": 0.2178,
      "velocity": 93,
      "chip": "ym2612"
    },
    {
      "channel": 3,
      "note": 74,
      "start": 268.892,
      "duration": 0.1089,
      "velocity": 94,
      "chip": "ym2612"
    },
    {
      "channel": 5,
      "note": 74,
      "start": 268.8923,
      "duration": 0.1088,
      "velocity": 94,
      "chip": "ym2612"
    },
    {
      "channel": 0,
      "note": 54,
      "start": 269.0006,
      "duration": 0.0154,
      "velocity": 127,
      "chip": "ym2612"
    },
    {
      "channel": 0,
      "note": 76,
      "start": 269.016,
      "duration": 0.0936,
      "velocity": 114,
      "chip": "ym2612"
    },
    {
      "channel": 0,
      "note": 68,
      "start": 269.1096,
      "duration": 0.031,
      "velocity": 114,
      "chip": "ym2612"
    },
    {
      "channel": 1,
      "note": 59,
      "start": 269.1097,
      "duration": 0.2179,
      "velocity": 93,
      "chip": "ym2612"
    },
    {
      "channel": 3,
      "note": 76,
      "start": 269.1099,
      "duration": 0.1089,
      "velocity": 94,
      "chip": "ym2612"
    },
    {
      "channel": 5,
      "note": 76,
      "start": 269.1101,
      "duration": 0.1089,
      "velocity": 94,
      "chip": "ym2612"
    },
    {
      "channel": 0,
      "note": 98,
      "start": 269.2185,
      "duration": 0.0309,
      "velocity": 114,
      "chip": "ym2612"
    },
    {
      "channel": 5,
      "note": 81,
      "start": 269.219,
      "duration": 0.1092,
      "velocity": 94,
      "chip": "ym2612"
    },
    {
      "channel": 0,
      "note": 98,
      "start": 269.3275,
      "duration": 0.1089,
      "velocity": 114,
      "chip": "ym2612"
    },
    {
      "channel": 1,
      "note": 59,
      "start": 269.3276,
      "duration": 0.2178,
      "velocity": 93,
      "chip": "ym2612"
    },
    {
      "channel": 2,
      "note": 47,
      "start": 269.3277,
      "duration": 3.0503,
      "velocity": 121,
      "chip": "ym2612"
    },
    {
      "channel": 3,
      "note": 78,
      "start": 269.3279,
      "duration": 0.1088,
      "velocity": 94,
      "chip": "ym2612"
    },
    {
      "channel": 5,
      "note": 69,
      "start": 269.3281,
      "duration": 0.1087,
      "velocity": 94,
      "chip": "ym2612"
    },
    {
      "channel": 0,
      "note": 54,
      "start": 269.4364,
      "duration": 0.0309,
      "velocity": 114,
      "chip": "ym2612"
    },
    {
      "channel": 3,
      "note": 81,
      "start": 269.4366,
      "duration": 0.109,
      "velocity": 94,
      "chip": "ym2612"
    },
    {
      "channel": 5,
      "note": 81,
      "start": 269.4369,
      "duration": 0.109,
      "velocity": 94,
      "chip": "ym2612"
    },
    {
      "channel": 4,
      "note": 47,
      "start": 269.5143,
      "duration": 3.0504,
      "velocity": 121,
      "chip": "ym2612"
    },
    {
      "channel": 0,
      "note": 98,
      "start": 269.5453,
      "duration": 0.0309,
      "velocity": 114,
      "chip": "ym2612"
    },
    {
      "channel": 1,
      "note": 64,
      "start": 269.5454,
      "duration": 0.2179,
      "velocity": 93,
      "chip": "ym2612"
    },
    {
      "channel": 3,
      "note": 69,
      "start": 269.5456,
      "duration": 0.1089,
      "velocity": 94,
      "chip": "ym2612"
    },
    {
      "channel": 5,
      "note": 71,
      "start": 269.5459,
      "duration": 0.1089,
      "velocity": 94,
      "chip": "ym2612"
    },
    {
      "channel": 0,
      "note": 98,
      "start": 269.6543,
      "duration": 0.0309,
      "velocity": 114,
      "chip": "ym2612"
    },
    {
      "channel": 3,
      "note": 74,
      "start": 269.6545,
      "duration": 0.109,
      "velocity": 94,
      "chip": "ym2612"
    },
    {
      "channel": 5,
      "note": 74,
      "start": 269.6548,
      "duration": 0.109,
      "velocity": 94,
      "chip": "ym2612"
    },
    {
      "channel": 0,
      "note": 98,
      "start": 269.7632,
      "duration": 0.0154,
      "velocity": 127,
      "chip": "ym2612"
    },
    {
      "channel": 1,
      "note": 64,
      "start": 269.7633,
      "duration": 0.2179,
      "velocity": 93,
      "chip": "ym2612"
    },
    {
      "channel": 0,
      "note": 76,
      "start": 269.7786,
      "duration": 0.0936,
      "velocity": 114,
      "chip": "ym2612"
    },
    {
      "channel": 0,
      "note": 68,
      "start": 269.8722,
      "duration": 0.0309,
      "velocity": 114,
      "chip": "ym2612"
    },
    {
      "channel": 3,
      "note": 76,
      "start": 269.8724,
      "duration": 0.109,
      "velocity": 94,
      "chip": "ym2612"
    },
    {
      "channel": 5,
      "note": 76,
      "start": 269.8727,
      "duration": 0.109,
      "velocity": 94,
      "chip": "ym2612"
    },
    {
      "channel": 0,
      "note": 98,
      "start": 269.9811,
      "duration": 0.0309,
      "velocity": 114,
      "chip": "ym2612"
    },
    {
      "channel": 1,
      "note": 64,
      "start": 269.9812,
      "duration": 0.2179,
      "velocity": 93,
      "chip": "ym2612"
    },
    {
      "channel": 3,
      "note": 81,
      "start": 269.9814,
      "duration": 0.109,
      "velocity": 94,
      "chip": "ym2612"
    },
    {
      "channel": 5,
      "note": 78,
      "start": 269.9817,
      "duration": 0.109,
      "velocity": 94,
      "chip": "ym2612"
    },
    {
      "channel": 0,
      "note": 98,
      "start": 270.09,
      "duration": 0.0309,
      "velocity": 114,
      "chip": "ym2612"
    },
    {
      "channel": 3,
      "note": 69,
      "start": 270.0905,
      "duration": 0.1088,
      "velocity": 94,
      "chip": "ym2612"
    },
    {
      "channel": 5,
      "note": 81,
      "start": 270.0907,
      "duration": 0.1088,
      "velocity": 94,
      "chip": "ym2612"
    },
    {
      "channel": 0,
      "note": 98,
      "start": 270.199,
      "duration": 0.1089,
      "velocity": 114,
      "chip": "ym2612"
    },
    {
      "channel": 1,
      "note": 64,
      "start": 270.1991,
      "duration": 0.2178,
      "velocity": 93,
      "chip": "ym2612"
    },
    {
      "channel": 3,
      "note": 81,
      "start": 270.1993,
      "duration": 0.1089,
      "velocity": 94,
      "chip": "ym2612"
    },
    {
      "channel": 5,
      "note": 69,
      "start": 270.1996,
      "duration": 0.1089,
      "velocity": 94,
      "chip": "ym2612"
    },
    {
      "channel": 0,
      "note": 54,
      "start": 270.3079,
      "duration": 0.0309,
      "velocity": 114,
      "chip": "ym2612"
    },
    {
      "channel": 3,
      "note": 71,
      "start": 270.3082,
      "duration": 0.109,
      "velocity": 94,
      "chip": "ym2612"
    },
    {
      "channel": 5,
      "note": 74,
      "start": 270.3084,
      "duration": 0.109,
      "velocity": 94,
      "chip": "ym2612"
    },
    {
      "channel": 0,
      "note": 98,
      "start": 270.4169,
      "duration": 0.0309,
      "velocity": 114,
      "chip": "ym2612"
    },
    {
      "channel": 1,
      "note": 64,
      "start": 270.417,
      "duration": 0.2179,
      "velocity": 93,
      "chip": "ym2612"
    },
    {
      "channel": 3,
      "note": 74,
      "start": 270.4172,
      "duration": 0.1089,
      "velocity": 94,
      "chip": "ym2612"
    },
    {
      "channel": 0,
      "note": 98,
      "start": 270.5258,
      "duration": 0.0309,
      "velocity": 114,
      "chip": "ym2612"
    },
    {
      "channel": 5,
      "note": 76,
      "start": 270.5263,
      "duration": 0.109,
      "velocity": 94,
      "chip": "ym2612"
    },
    {
      "channel": 0,
      "note": 98,
      "start": 270.6347,
      "duration": 0.0154,
      "velocity": 127,
      "chip": "ym2612"
    },
    {
      "channel": 1,
      "note": 64,
      "start": 270.6349,
      "duration": 0.2178,
      "velocity": 93,
      "chip": "ym2612"
    },
    {
      "channel": 3,
      "note": 76,
      "start": 270.6351,
      "duration": 0.1089,
      "velocity": 94,
      "chip": "ym2612"
    },
    {
      "channel": 5,
      "note": 81,
      "start": 270.6353,
      "duration": 0.1089,
      "velocity": 94,
      "chip": "ym2612"
    },
    {
      "channel": 0,
      "note": 76,
      "start": 270.6501,
      "duration": 0.0936,
      "velocity": 114,
      "chip": "ym2612"
    },
    {
      "channel": 0,
      "note": 68,
      "start": 270.7437,
      "duration": 0.0309,
      "velocity": 114,
      "chip": "ym2612"
    },
    {
      "channel": 5,
      "note": 69,
      "start": 270.7442,
      "duration": 0.1091,
      "velocity": 94,
      "chip": "ym2612"
    },
    {
      "channel": 0,
      "note": 98,
      "start": 270.8526,
      "duration": 0.0309,
      "velocity": 114,
      "chip": "ym2612"
    },
    {
      "channel": 1,
      "note": 64,
      "start": 270.8527,
      "duration": 0.2179,
      "velocity": 93,
      "chip": "ym2612"
    },
    {
      "channel": 3,
      "note": 78,
      "start": 270.853,
      "duration": 0.1088,
      "velocity": 94,
      "chip": "ym2612"
    },
    {
      "channel": 5,
      "note": 81,
      "start": 270.8532,
      "duration": 0.1088,
      "velocity": 94,
      "chip": "ym2612"
    },
    {
      "channel": 0,
      "note": 98,
      "start": 270.9616,
      "duration": 0.0309,
      "velocity": 114,
      "chip": "ym2612"
    },
    {
      "channel": 3,
      "note": 81,
      "start": 270.9618,
      "duration": 0.109,
      "velocity": 94,
      "chip": "ym2612"
    },
    {
      "channel": 5,
      "note": 71,
      "start": 270.9621,
      "duration": 0.109,
      "velocity": 94,
      "chip": "ym2612"
    },
    {
      "channel": 0,
      "note": 98,
      "start": 271.0705,
      "duration": 0.1089,
      "velocity": 114,
      "chip": "ym2612"
    },
    {
      "channel": 1,
      "note": 64,
      "start": 271.0707,
      "duration": 0.2178,
      "velocity": 93,
      "chip": "ym2612"
    },
    {
      "channel": 3,
      "note": 69,
      "start": 271.0709,
      "duration": 0.1089,
      "velocity": 94,
      "chip": "ym2612"
    },
    {
      "channel": 5,
      "note": 74,
      "start": 271.0711,
      "duration": 0.1089,
      "velocity": 94,
      "chip": "ym2612"
    },
    {
      "channel": 0,
      "note": 54,
      "start": 271.1795,
      "duration": 0.0309,
      "velocity": 114,
      "chip": "ym2612"
    },
    {
      "channel": 3,
      "note": 74,
      "start": 271.1797,
      "duration": 0.109,
      "velocity": 94,
      "chip": "ym2612"
    },
    {
      "channel": 0,
      "note": 98,
      "start": 271.2884,
      "duration": 0.0309,
      "velocity": 114,
      "chip": "ym2612"
    },
    {
      "channel": 1,
      "note": 64,
      "start": 271.2885,
      "duration": 0.2179,
      "velocity": 93,
      "chip": "ym2612"
    },
    {
      "channel": 5,
      "note": 76,
      "start": 271.2889,
      "duration": 0.109,
      "velocity": 94,
      "chip": "ym2612"
    },
    {
      "channel": 0,
      "note": 98,
      "start": 271.3973,
      "duration": 0.0309,
      "velocity": 114,
      "chip": "ym2612"
    },
    {
      "channel": 3,
      "note": 76,
      "start": 271.3976,
      "duration": 0.109,
      "velocity": 94,
      "chip": "ym2612"
    },
    {
      "channel": 5,
      "note": 78,
      "start": 271.3979,
      "duration": 0.109,
      "velocity": 94,
      "chip": "ym2612"
    },
    {
      "channel": 0,
      "note": 98,
      "start": 271.5063,
      "duration": 0.0154,
      "velocity": 127,
      "chip": "ym2612"
    },
    {
      "channel": 1,
      "note": 64,
      "start": 271.5064,
      "duration": 0.2178,
      "velocity": 93,
      "chip": "ym2612"
    },
    {
      "channel": 3,
      "note": 81,
      "start": 271.5066,
      "duration": 0.1089,
      "velocity": 94,
      "chip": "ym2612"
    },
    {
      "channel": 5,
      "note": 81,
      "start": 271.5068,
      "duration": 0.1089,
      "velocity": 94,
      "chip": "ym2612"
    },
    {
      "channel": 0,
      "note": 76,
      "start": 271.5216,
      "duration": 0.0936,
      "velocity": 114,
      "chip": "ym2612"
    },
    {
      "channel": 0,
      "note": 68,
      "start": 271.6152,
      "duration": 0.0309,
      "velocity": 114,
      "chip": "ym2612"
    },
    {
      "channel": 3,
      "note": 69,
      "start": 271.6155,
      "duration": 0.109,
      "velocity": 94,
      "chip": "ym2612"
    },
    {
      "channel": 5,
      "note": 69,
      "start": 271.6157,
      "duration": 0.109,
      "velocity": 94,
      "chip": "ym2612"
    },
    {
      "channel": 0,
      "note": 98,
      "start": 271.7242,
      "duration": 0.0309,
      "velocity": 114,
      "chip": "ym2612"
    },
    {
      "channel": 1,
      "note": 64,
      "start": 271.7243,
      "duration": 0.2179,
      "velocity": 93,
      "chip": "ym2612"
    },
    {
      "channel": 3,
      "note": 81,
      "start": 271.7245,
      "duration": 0.1089,
      "velocity": 94,
      "chip": "ym2612"
    },
    {
      "channel": 5,
      "note": 74,
      "start": 271.7247,
      "duration": 0.1089,
      "velocity": 94,
      "chip": "ym2612"
    },
    {
      "channel": 0,
      "note": 98,
      "start": 271.8331,
      "duration": 0.0309,
      "velocity": 114,
      "chip": "ym2612"
    },
    {
      "channel": 3,
      "note": 71,
      "start": 271.8334,
      "duration": 0.109,
      "velocity": 94,
      "chip": "ym2612"
    },
    {
      "channel": 0,
      "note": 98,
      "start": 271.9421,
      "duration": 0.1089,
      "velocity": 127,
      "chip": "ym2612"
    },
    {
      "channel": 1,
      "note": 64,
      "start": 271.9422,
      "duration": 0.2178,
      "velocity": 93,
      "chip": "ym2612"
    },
    {
      "channel": 3,
      "note": 74,
      "start": 271.9424,
      "duration": 0.1089,
      "velocity": 94,
      "chip": "ym2612"
    },
    {
      "channel": 5,
      "note": 76,
      "start": 271.9426,
      "duration": 0.1089,
      "velocity": 94,
      "chip": "ym2612"
    },
    {
      "channel": 0,
      "note": 54,
      "start": 272.051,
      "duration": 0.0154,
      "velocity": 127,
      "chip": "ym2612"
    },
    {
      "channel": 5,
      "note": 81,
      "start": 272.0515,
      "duration": 0.109,
      "velocity": 94,
      "chip": "ym2612"
    },
    {
      "channel": 0,
      "note": 76,
      "start": 272.0663,
      "duration": 0.0936,
      "velocity": 114,
      "chip": "ym2612"
    },
    {
      "channel": 0,
      "note": 68,
      "start": 272.1599,
      "duration": 0.0309,
      "velocity": 114,
      "chip": "ym2612"
    },
    {
      "channel": 1,
      "note": 64,
      "start": 272.16,
      "duration": 0.2179,
      "velocity": 93,
      "chip": "ym2612"
    },
    {
      "channel": 3,
      "note": 76,
      "start": 272.1602,
      "duration": 0.1089,
      "velocity": 94,
      "chip": "ym2612"
    },
    {
      "channel": 5,
      "note": 69,
      "start": 272.1605,
      "duration": 0.1089,
      "velocity": 94,
      "chip": "ym2612"
    },
    {
      "channel": 0,
      "note": 98,
      "start": 272.2689,
      "duration": 0.0309,
      "velocity": 114,
      "chip": "ym2612"
    },
    {
      "channel": 5,
      "note": 81,
      "start": 272.2693,
      "duration": 0.1092,
      "velocity": 94,
      "chip": "ym2612"
    },
    {
      "channel": 0,
      "note": 98,
      "start": 272.3778,
      "duration": 0.1089,
      "velocity": 114,
      "chip": "ym2612"
    },
    {
      "channel": 1,
      "note": 64,
      "start": 272.378,
      "duration": 0.2178,
      "velocity": 93,
      "chip": "ym2612"
    },
    {
      "channel": 2,
      "note": 52,
      "start": 272.3781,
      "duration": 3.0504,
      "velocity": 121,
      "chip": "ym2612"
    },
    {
      "channel": 3,
      "note": 78,
      "start": 272.3783,
      "duration": 0.1087,
      "velocity": 94,
      "chip": "ym2612"
    },
    {
      "channel": 5,
      "note": 71,
      "start": 272.3785,
      "duration": 0.1087,
      "velocity": 94,
      "chip": "ym2612"
    },
    {
      "channel": 0,
      "note": 54,
      "start": 272.4868,
      "duration": 0.0309,
      "velocity": 114,
      "chip": "ym2612"
    },
    {
      "channel": 3,
      "note": 81,
      "start": 272.487,
      "duration": 0.109,
      "velocity": 94,
      "chip": "ym2612"
    },
    {
      "channel": 5,
      "note": 74,
      "start": 272.4873,
      "duration": 0.109,
      "velocity": 94,
      "chip": "ym2612"
    },
    {
      "channel": 4,
      "note": 52,
      "start": 272.5647,
      "duration": 3.0504,
      "velocity": 121,
      "chip": "ym2612"
    },
    {
      "channel": 0,
      "note": 98,
      "start": 272.5957,
      "duration": 0.0309,
      "velocity": 114,
      "chip": "ym2612"
    },
    {
      "channel": 1,
      "note": 67,
      "start": 272.5958,
      "duration": 0.2179,
      "velocity": 93,
      "chip": "ym2612"
    },
    {
      "channel": 3,
      "note": 69,
      "start": 272.596,
      "duration": 0.1089,
      "velocity": 94,
      "chip": "ym2612"
    },
    {
      "channel": 0,
      "note": 98,
      "start": 272.7046,
      "duration": 0.0309,
      "velocity": 114,
      "chip": "ym2612"
    },
    {
      "channel": 3,
      "note": 74,
      "start": 272.7049,
      "duration": 0.109,
      "velocity": 94,
      "chip": "ym2612"
    },
    {
      "channel": 5,
      "note": 76,
      "start": 272.7051,
      "duration": 0.1091,
      "velocity": 94,
      "chip": "ym2612"
    },
    {
      "channel": 0,
      "note": 98,
      "start": 272.8136,
      "duration": 0.0154,
      "velocity": 127,
      "chip": "ym2612"
    },
    {
      "channel": 1,
      "note": 67,
      "start": 272.8137,
      "duration": 0.2178,
      "velocity": 93,
      "chip": "ym2612"
    },
    {
      "channel": 5,
      "note": 78,
      "start": 272.8142,
      "duration": 0.1088,
      "velocity": 94,
      "chip": "ym2612"
    },
    {
      "channel": 0,
      "note": 76,
      "start": 272.8289,
      "duration": 0.0936,
      "velocity": 114,
      "chip": "ym2612"
    },
    {
      "channel": 0,
      "note": 68,
      "start": 272.9225,
      "duration": 0.0309,
      "velocity": 114,
      "chip": "ym2612"
    },
    {
      "channel": 3,
      "note": 76,
      "start": 272.9228,
      "duration": 0.109,
      "velocity": 94,
      "chip": "ym2612"
    },
    {
      "channel": 5,
      "note": 81,
      "start": 272.923,
      "duration": 0.109,
      "velocity": 94,
      "chip": "ym2612"
    },
    {
      "channel": 0,
      "note": 98,
      "start": 273.0315,
      "duration": 0.0309,
      "velocity": 114,
      "chip": "ym2612"
    },
    {
      "channel": 1,
      "note": 67,
      "start": 273.0316,
      "duration": 0.2179,
      "velocity": 93,
      "chip": "ym2612"
    },
    {
      "channel": 3,
      "note": 81,
      "start": 273.0318,
      "duration": 0.1091,
      "velocity": 94,
      "chip": "ym2612"
    },
    {
      "channel": 5,
      "note": 69,
      "start": 273.032,
      "duration": 0.109,
      "velocity": 94,
      "chip": "ym2612"
    },
    {
      "channel": 0,
      "note": 98,
      "start": 273.1406,
      "duration": 0.0307,
      "velocity": 114,
      "chip": "ym2612"
    },
    {
      "channel": 3,
      "note": 69,
      "start": 273.1408,
      "duration": 0.1088,
      "velocity": 94,
      "chip": "ym2612"
    },
    {
      "channel": 5,
      "note": 74,
      "start": 273.1411,
      "duration": 0.1088,
      "velocity": 94,
      "chip": "ym2612"
    },
    {
      "channel": 0,
      "note": 98,
      "start": 273.2494,
      "duration": 0.1089,
      "velocity": 114,
      "chip": "ym2612"
    },
    {
      "channel": 1,
      "note": 67,
      "start": 273.2495,
      "duration": 0.2178,
      "velocity": 93,
      "chip": "ym2612"
    },
    {
      "channel": 3,
      "note": 81,
      "start": 273.2497,
      "duration": 0.1089,
      "velocity": 94,
      "chip": "ym2612"
    },
    {
      "channel": 0,
      "note": 54,
      "start": 273.3583,
      "duration": 0.0309,
      "velocity": 114,
      "chip": "ym2612"
    },
    {
      "channel": 3,
      "note": 71,
      "start": 273.3586,
      "duration": 0.109,
      "velocity": 94,
      "chip": "ym2612"
    },
    {
      "channel": 5,
      "note": 76,
      "start": 273.3588,
      "duration": 0.109,
      "velocity": 94,
      "chip": "ym2612"
    },
    {
      "channel": 0,
      "note": 98,
      "start": 273.4672,
      "duration": 0.0309,
      "velocity": 114,
      "chip": "ym2612"
    },
    {
      "channel": 1,
      "note": 67,
      "start": 273.4673,
      "duration": 0.2179,
      "velocity": 93,
      "chip": "ym2612"
    },
    {
      "channel": 3,
      "note": 74,
      "start": 273.4675,
      "duration": 0.1089,
      "velocity": 94,
      "chip": "ym2612"
    },
    {
      "channel": 5,
      "note": 81,
      "start": 273.4678,
      "duration": 0.1089,
      "velocity": 94,
      "chip": "ym2612"
    },
    {
      "channel": 0,
      "note": 98,
      "start": 273.5762,
      "duration": 0.031,
      "velocity": 114,
      "chip": "ym2612"
    },
    {
      "channel": 5,
      "note": 69,
      "start": 273.5766,
      "duration": 0.109,
      "velocity": 94,
      "chip": "ym2612"
    },
    {
      "channel": 0,
      "note": 98,
      "start": 273.6851,
      "duration": 0.0154,
      "velocity": 127,
      "chip": "ym2612"
    },
    {
      "channel": 1,
      "note": 67,
      "start": 273.6852,
      "duration": 0.2179,
      "velocity": 93,
      "chip": "ym2612"
    },
    {
      "channel": 3,
      "note": 76,
      "start": 273.6854,
      "duration": 0.1089,
      "velocity": 94,
      "chip": "ym2612"
    },
    {
      "channel": 5,
      "note": 81,
      "start": 273.6857,
      "duration": 0.1089,
      "velocity": 94,
      "chip": "ym2612"
    },
    {
      "channel": 0,
      "note": 76,
      "start": 273.7005,
      "duration": 0.0936,
      "velocity": 114,
      "chip": "ym2612"
    },
    {
      "channel": 0,
      "note": 68,
      "start": 273.7941,
      "duration": 0.0309,
      "velocity": 114,
      "chip": "ym2612"
    },
    {
      "channel": 5,
      "note": 71,
      "start": 273.7946,
      "duration": 0.109,
      "velocity": 94,
      "chip": "ym2612"
    },
    {
      "channel": 0,
      "note": 98,
      "start": 273.903,
      "duration": 0.0309,
      "velocity": 114,
      "chip": "ym2612"
    },
    {
      "channel": 1,
      "note": 67,
      "start": 273.9031,
      "duration": 0.2179,
      "velocity": 93,
      "chip": "ym2612"
    },
    {
      "channel": 3,
      "note": 78,
      "start": 273.9034,
      "duration": 0.1088,
      "velocity": 94,
      "chip": "ym2612"
    },
    {
      "channel": 5,
      "note": 74,
      "start": 273.9036,
      "duration": 0.1088,
      "velocity": 94,
      "chip": "ym2612"
    },
    {
      "channel": 0,
      "note": 98,
      "start": 274.0119,
      "duration": 0.0309,
      "velocity": 114,
      "chip": "ym2612"
    },
    {
      "channel": 3,
      "note": 81,
      "start": 274.0122,
      "duration": 0.109,
      "velocity": 94,
      "chip": "ym2612"
    },
    {
      "channel": 0,
      "note": 98,
      "start": 274.1209,
      "duration": 0.1089,
      "velocity": 114,
      "chip": "ym2612"
    },
    {
      "channel": 1,
      "note": 67,
      "start": 274.121,
      "duration": 0.2178,
      "velocity": 93,
      "chip": "ym2612"
    },
    {
      "channel": 3,
      "note": 69,
      "start": 274.1212,
      "duration": 0.1089,
      "velocity": 94,
      "chip": "ym2612"
    },
    {
      "channel": 5,
      "note": 76,
      "start": 274.1215,
      "duration": 0.1089,
      "velocity": 94,
      "chip": "ym2612"
    },
    {
      "channel": 0,
      "note": 54,
      "start": 274.2298,
      "duration": 0.0309,
      "velocity": 114,
      "chip": "ym2612"
    },
    {
      "channel": 3,
      "note": 74,
      "start": 274.2301,
      "duration": 0.109,
      "velocity": 94,
      "chip": "ym2612"
    },
    {
      "channel": 5,
      "note": 78,
      "start": 274.2304,
      "duration": 0.1089,
      "velocity": 94,
      "chip": "ym2612"
    },
    {
      "channel": 0,
      "note": 98,
      "start": 274.3388,
      "duration": 0.0309,
      "velocity": 114,
      "chip": "ym2612"
    },
    {
      "channel": 1,
      "note": 67,
      "start": 274.3389,
      "duration": 0.2179,
      "velocity": 93,
      "chip": "ym2612"
    },
    {
      "channel": 5,
      "note": 81,
      "start": 274.3393,
      "duration": 0.1089,
      "velocity": 94,
      "chip": "ym2612"
    },
    {
      "channel": 0,
      "note": 98,
      "start": 274.4477,
      "duration": 0.0309,
      "velocity": 114,
      "chip": "ym2612"
    },
    {
      "channel": 3,
      "note": 76,
      "start": 274.448,
      "duration": 0.1092,
      "velocity": 94,
      "chip": "ym2612"
    },
    {
      "channel": 5,
      "note": 69,
      "start": 274.4482,
      "duration": 0.1092,
      "velocity": 94,
      "chip": "ym2612"
    },
    {
      "channel": 0,
      "note": 98,
      "start": 274.5566,
      "duration": 0.0154,
      "velocity": 127,
      "chip": "ym2612"
    },
    {
      "channel": 1,
      "note": 67,
      "start": 274.5568,
      "duration": 0.2178,
      "velocity": 93,
      "chip": "ym2612"
    },
    {
      "channel": 3,
      "note": 81,
      "start": 274.5571,
      "duration": 0.1087,
      "velocity": 94,
      "chip": "ym2612"
    },
    {
      "channel": 5,
      "note": 74,
      "start": 274.5574,
      "duration": 0.1087,
      "velocity": 94,
      "chip": "ym2612"
    },
    {
      "channel": 0,
      "note": 76,
      "start": 274.572,
      "duration": 0.0936,
      "velocity": 114,
      "chip": "ym2612"
    },
    {
      "channel": 0,
      "note": 68,
      "start": 274.6656,
      "duration": 0.0309,
      "velocity": 114,
      "chip": "ym2612"
    },
    {
      "channel": 3,
      "note": 69,
      "start": 274.6659,
      "duration": 0.109,
      "velocity": 94,
      "chip": "ym2612"
    },
    {
      "channel": 0,
      "note": 98,
      "start": 274.7745,
      "duration": 0.0309,
      "velocity": 114,
      "chip": "ym2612"
    },
    {
      "channel": 1,
      "note": 67,
      "start": 274.7746,
      "duration": 0.2179,
      "velocity": 93,
      "chip": "ym2612"
    },
    {
      "channel": 3,
      "note": 81,
      "start": 274.7749,
      "duration": 0.1089,
      "velocity": 94,
      "chip": "ym2612"
    },
    {
      "channel": 5,
      "note": 76,
      "start": 274.7751,
      "duration": 0.1089,
      "velocity": 94,
      "chip": "ym2612"
    },
    {
      "channel": 0,
      "note": 98,
      "start": 274.8835,
      "duration": 0.0309,
      "velocity": 114,
      "chip": "ym2612"
    },
    {
      "channel": 3,
      "note": 71,
      "start": 274.8837,
      "duration": 0.109,
      "velocity": 94,
      "chip": "ym2612"
    },
    {
      "channel": 5,
      "note": 81,
      "start": 274.884,
      "duration": 0.109,
      "velocity": 94,
      "chip": "ym2612"
    },
    {
      "channel": 0,
      "note": 98,
      "start": 274.9924,
      "duration": 0.1089,
      "velocity": 127,
      "chip": "ym2612"
    },
    {
      "channel": 1,
      "note": 67,
      "start": 274.9926,
      "duration": 0.2178,
      "velocity": 93,
      "chip": "ym2612"
    },
    {
      "channel": 3,
      "note": 74,
      "start": 274.9928,
      "duration": 0.1088,
      "velocity": 94,
      "chip": "ym2612"
    },
    {
      "channel": 5,
      "note": 69,
      "start": 274.993,
      "duration": 0.1088,
      "velocity": 94,
      "chip": "ym2612"
    },
    {
      "channel": 0,
      "note": 54,
      "start": 275.1013,
      "duration": 0.0154,
      "velocity": 127,
      "chip": "ym2612"
    },
    {
      "channel": 5,
      "note": 81,
      "start": 275.1019,
      "duration": 0.109,
      "velocity": 94,
      "chip": "ym2612"
    },
    {
      "channel": 0,
      "note": 76,
      "start": 275.1167,
      "duration": 0.0936,
      "velocity": 114,
      "chip": "ym2612"
    },
    {
      "channel": 0,
      "note": 68,
      "start": 275.2103,
      "duration": 0.0309,
      "velocity": 114,
      "chip": "ym2612"
    },
    {
      "channel": 1,
      "note": 67,
      "start": 275.2104,
      "duration": 0.2179,
      "velocity": 93,
      "chip": "ym2612"
    },
    {
      "channel": 3,
      "note": 76,
      "start": 275.2106,
      "duration": 0.1089,
      "velocity": 94,
      "chip": "ym2612"
    },
    {
      "channel": 5,
      "note": 71,
      "start": 275.2109,
      "duration": 0.1088,
      "velocity": 94,
      "chip": "ym2612"
    },
    {
      "channel": 0,
      "note": 98,
      "start": 275.3192,
      "duration": 0.0309,
      "velocity": 114,
      "chip": "ym2612"
    },
    {
      "channel": 5,
      "note": 74,
      "start": 275.3197,
      "duration": 0.1092,
      "velocity": 94,
      "chip": "ym2612"
    },
    {
      "channel": 0,
      "note": 98,
      "start": 275.4282,
      "duration": 0.1089,
      "velocity": 114,
      "chip": "ym2612"
    },
    {
      "channel": 1,
      "note": 67,
      "start": 275.4283,
      "duration": 0.2178,
      "velocity": 93,
      "chip": "ym2612"
    },
    {
      "channel": 2,
      "note": 43,
      "start": 275.4285,
      "duration": 3.0503,
      "velocity": 121,
      "chip": "ym2612"
    },
    {
      "channel": 3,
      "note": 78,
      "start": 275.4287,
      "duration": 0.1087,
      "velocity": 94,
      "chip": "ym2612"
    },
    {
      "channel": 0,
      "note": 54,
      "start": 275.5371,
      "duration": 0.0309,
      "velocity": 114,
      "chip": "ym2612"
    },
    {
      "channel": 3,
      "note": 81,
      "start": 275.5374,
      "duration": 0.109,
      "velocity": 94,
      "chip": "ym2612"
    },
    {
      "channel": 5,
      "note": 76,
      "start": 275.5376,
      "duration": 0.109,
      "velocity": 94,
      "chip": "ym2612"
    },
    {
      "channel": 4,
      "note": 43,
      "start": 275.6151,
      "duration": 3.0503,
      "velocity": 121,
      "chip": "ym2612"
    },
    {
      "channel": 0,
      "note": 98,
      "start": 275.6461,
      "duration": 0.0309,
      "velocity": 114,
      "chip": "ym2612"
    },
    {
      "channel": 1,
      "note": 62,
      "start": 275.6462,
      "duration": 0.2179,
      "velocity": 93,
      "chip": "ym2612"
    },
    {
      "channel": 3,
      "note": 69,
      "start": 275.6464,
      "duration": 0.1089,
      "velocity": 94,
      "chip": "ym2612"
    },
    {
      "channel": 5,
      "note": 78,
      "start": 275.6466,
      "duration": 0.1088,
      "velocity": 94,
      "chip": "ym2612"
    },
    {
      "channel": 0,
      "note": 98,
      "start": 275.755,
      "duration": 0.0309,
      "velocity": 114,
      "chip": "ym2612"
    },
    {
      "channel": 3,
      "note": 74,
      "start": 275.7553,
      "duration": 0.109,
      "velocity": 94,
      "chip": "ym2612"
    },
    {
      "channel": 5,
      "note": 81,
      "start": 275.7555,
      "duration": 0.109,
      "velocity": 94,
      "chip": "ym2612"
    },
    {
      "channel": 0,
      "note": 98,
      "start": 275.8639,
      "duration": 0.0154,
      "velocity": 127,
      "chip": "ym2612"
    },
    {
      "channel": 1,
      "note": 62,
      "start": 275.8641,
      "duration": 0.2178,
      "velocity": 93,
      "chip": "ym2612"
    },
    {
      "channel": 5,
      "note": 69,
      "start": 275.8645,
      "duration": 0.1089,
      "velocity": 94,
      "chip": "ym2612"
    },
    {
      "channel": 0,
      "note": 76,
      "start": 275.8793,
      "duration": 0.0936,
      "velocity": 114,
      "chip": "ym2612"
    },
    {
      "channel": 0,
      "note": 68,
      "start": 275.9729,
      "duration": 0.0309,
      "velocity": 114,
      "chip": "ym2612"
    },
    {
      "channel": 3,
      "note": 76,
      "start": 275.9732,
      "duration": 0.109,
      "velocity": 94,
      "chip": "ym2612"
    },
    {
      "channel": 5,
      "note": 74,
      "start": 275.9734,
      "duration": 0.109,
      "velocity": 94,
      "chip": "ym2612"
    },
    {
      "channel": 0,
      "note": 98,
      "start": 276.0818,
      "duration": 0.0309,
      "velocity": 114,
      "chip": "ym2612"
    },
    {
      "channel": 1,
      "note": 62,
      "start": 276.0819,
      "duration": 0.2179,
      "velocity": 93,
      "chip": "ym2612"
    },
    {
      "channel": 3,
      "note": 81,
      "start": 276.0822,
      "duration": 0.1089,
      "velocity": 94,
      "chip": "ym2612"
    },
    {
      "channel": 0,
      "note": 98,
      "start": 276.1908,
      "duration": 0.0309,
      "velocity": 114,
      "chip": "ym2612"
    },
    {
      "channel": 3,
      "note": 69,
      "start": 276.191,
      "duration": 0.109,
      "velocity": 94,
      "chip": "ym2612"
    },
    {
      "channel": 5,
      "note": 76,
      "start": 276.1913,
      "duration": 0.109,
      "velocity": 94,
      "chip": "ym2612"
    },
    {
      "channel": 0,
      "note": 98,
      "start": 276.2997,
      "duration": 0.1089,
      "velocity": 114,
      "chip": "ym2612"
    },
    {
      "channel": 1,
      "note": 62,
      "start": 276.2999,
      "duration": 0.2178,
      "velocity": 93,
      "chip": "ym2612"
    },
    {
      "channel": 3,
      "note": 81,
      "start": 276.3001,
      "duration": 0.1089,
      "velocity": 94,
      "chip": "ym2612"
    },
    {
      "channel": 5,
      "note": 81,
      "start": 276.3003,
      "duration": 0.1089,
      "velocity": 94,
      "chip": "ym2612"
    },
    {
      "channel": 0,
      "note": 54,
      "start": 276.4087,
      "duration": 0.0309,
      "velocity": 114,
      "chip": "ym2612"
    },
    {
      "channel": 3,
      "note": 71,
      "start": 276.4089,
      "duration": 0.109,
      "velocity": 94,
      "chip": "ym2612"
    },
    {
      "channel": 5,
      "note": 69,
      "start": 276.4092,
      "duration": 0.109,
      "velocity": 94,
      "chip": "ym2612"
    },
    {
      "channel": 0,
      "note": 98,
      "start": 276.5176,
      "duration": 0.0309,
      "velocity": 114,
      "chip": "ym2612"
    },
    {
      "channel": 1,
      "note": 62,
      "start": 276.5177,
      "duration": 0.2179,
      "velocity": 93,
      "chip": "ym2612"
    },
    {
      "channel": 3,
      "note": 74,
      "start": 276.5179,
      "duration": 0.1089,
      "velocity": 94,
      "chip": "ym2612"
    },
    {
      "channel": 5,
      "note": 81,
      "start": 276.5181,
      "duration": 0.1089,
      "velocity": 94,
      "chip": "ym2612"
    },
    {
      "channel": 0,
      "note": 98,
      "start": 276.6265,
      "duration": 0.0309,
      "velocity": 114,
      "chip": "ym2612"
    },
    {
      "channel": 5,
      "note": 71,
      "start": 276.627,
      "duration": 0.109,
      "velocity": 94,
      "chip": "ym2612"
    },
    {
      "channel": 0,
      "note": 98,
      "start": 276.7355,
      "duration": 0.0154,
      "velocity": 127,
      "chip": "ym2612"
    },
    {
      "channel": 1,
      "note": 62,
      "start": 276.7356,
      "duration": 0.2179,
      "velocity": 93,
      "chip": "ym2612"
    },
    {
      "channel": 3,
      "note": 76,
      "start": 276.7358,
      "duration": 0.1089,
      "velocity": 94,
      "chip": "ym2612"
    },
    {
      "channel": 5,
      "note": 74,
      "start": 276.736,
      "duration": 0.1089,
      "velocity": 94,
      "chip": "ym2612"
    },
    {
      "channel": 0,
      "note": 76,
      "start": 276.7508,
      "duration": 0.0936,
      "velocity": 114,
      "chip": "ym2612"
    },
    {
      "channel": 0,
      "note": 68,
      "start": 276.8444,
      "duration": 0.0309,
      "velocity": 114,
      "chip": "ym2612"
    },
    {
      "channel": 0,
      "note": 98,
      "start": 276.9534,
      "duration": 0.0309,
      "velocity": 114,
      "chip": "ym2612"
    },
    {
      "channel": 1,
      "note": 62,
      "start": 276.9535,
      "duration": 0.2179,
      "velocity": 93,
      "chip": "ym2612"
    },
    {
      "channel": 3,
      "note": 78,
      "start": 276.9537,
      "duration": 0.1088,
      "velocity": 94,
      "chip": "ym2612"
    },
    {
      "channel": 5,
      "note": 76,
      "start": 276.954,
      "duration": 0.1089,
      "velocity": 94,
      "chip": "ym2612"
    },
    {
      "channel": 0,
      "note": 98,
      "start": 277.0623,
      "duration": 0.0309,
      "velocity": 114,
      "chip": "ym2612"
    },
    {
      "channel": 3,
      "note": 81,
      "start": 277.0626,
      "duration": 0.109,
      "velocity": 94,
      "chip": "ym2612"
    },
    {
      "channel": 5,
      "note": 78,
      "start": 277.0629,
      "duration": 0.109,
      "velocity": 94,
      "chip": "ym2612"
    },
    {
      "channel": 0,
      "note": 98,
      "start": 277.1712,
      "duration": 0.1089,
      "velocity": 114,
      "chip": "ym2612"
    },
    {
      "channel": 1,
      "note": 62,
      "start": 277.1714,
      "duration": 0.2178,
      "velocity": 93,
      "chip": "ym2612"
    },
    {
      "channel": 3,
      "note": 69,
      "start": 277.1716,
      "duration": 0.1089,
      "velocity": 94,
      "chip": "ym2612"
    },
    {
      "channel": 5,
      "note": 81,
      "start": 277.1718,
      "duration": 0.1089,
      "velocity": 94,
      "chip": "ym2612"
    },
    {
      "channel": 0,
      "note": 54,
      "start": 277.2802,
      "duration": 0.0309,
      "velocity": 114,
      "chip": "ym2612"
    },
    {
      "channel": 3,
      "note": 74,
      "start": 277.2805,
      "duration": 0.1089,
      "velocity": 94,
      "chip": "ym2612"
    },
    {
      "channel": 5,
      "note": 69,
      "start": 277.2807,
      "duration": 0.1089,
      "velocity": 94,
      "chip": "ym2612"
    },
    {
      "channel": 0,
      "note": 98,
      "start": 277.3891,
      "duration": 0.0309,
      "velocity": 114,
      "chip": "ym2612"
    },
    {
      "channel": 1,
      "note": 62,
      "start": 277.3892,
      "duration": 0.2181,
      "velocity": 93,
      "chip": "ym2612"
    },
    {
      "channel": 5,
      "note": 74,
      "start": 277.3897,
      "duration": 0.1089,
      "velocity": 94,
      "chip": "ym2612"
    },
    {
      "channel": 0,
      "note": 98,
      "start": 277.4981,
      "duration": 0.0309,
      "velocity": 114,
      "chip": "ym2612"
    },
    {
      "channel": 3,
      "note": 76,
      "start": 277.4983,
      "duration": 0.1092,
      "velocity": 94,
      "chip": "ym2612"
    },
    {
      "channel": 0,
      "note": 98,
      "start": 277.6072,
      "duration": 0.0152,
      "velocity": 127,
      "chip": "ym2612"
    },
    {
      "channel": 1,
      "note": 62,
      "start": 277.6073,
      "duration": 0.2177,
      "velocity": 93,
      "chip": "ym2612"
    },
    {
      "channel": 3,
      "note": 81,
      "start": 277.6075,
      "duration": 0.1087,
      "velocity": 94,
      "chip": "ym2612"
    },
    {
      "channel": 5,
      "note": 76,
      "start": 277.6077,
      "duration": 0.1087,
      "velocity": 94,
      "chip": "ym2612"
    },
    {
      "channel": 0,
      "note": 76,
      "start": 277.6224,
      "duration": 0.0936,
      "velocity": 114,
      "chip": "ym2612"
    },
    {
      "channel": 0,
      "note": 68,
      "start": 277.7159,
      "duration": 0.0309,
      "velocity": 114,
      "chip": "ym2612"
    },
    {
      "channel": 3,
      "note": 69,
      "start": 277.7162,
      "duration": 0.109,
      "velocity": 94,
      "chip": "ym2612"
    },
    {
      "channel": 5,
      "note": 81,
      "start": 277.7165,
      "duration": 0.109,
      "velocity": 94,
      "chip": "ym2612"
    },
    {
      "channel": 0,
      "note": 98,
      "start": 277.8249,
      "duration": 0.0309,
      "velocity": 114,
      "chip": "ym2612"
    },
    {
      "channel": 1,
      "note": 62,
      "start": 277.825,
      "duration": 0.2179,
      "velocity": 93,
      "chip": "ym2612"
    },
    {
      "channel": 3,
      "note": 81,
      "start": 277.8252,
      "duration": 0.1089,
      "velocity": 94,
      "chip": "ym2612"
    },
    {
      "channel": 5,
      "note": 69,
      "start": 277.8254,
      "duration": 0.1089,
      "velocity": 94,
      "chip": "ym2612"
    },
    {
      "channel": 0,
      "note": 98,
      "start": 277.9338,
      "duration": 0.0309,
      "velocity": 114,
      "chip": "ym2612"
    },
    {
      "channel": 3,
      "note": 71,
      "start": 277.9341,
      "duration": 0.109,
      "velocity": 94,
      "chip": "ym2612"
    },
    {
      "channel": 5,
      "note": 81,
      "start": 277.9343,
      "duration": 0.109,
      "velocity": 94,
      "chip": "ym2612"
    },
    {
      "channel": 0,
      "note": 98,
      "start": 278.0428,
      "duration": 0.1089,
      "velocity": 127,
      "chip": "ym2612"
    },
    {
      "channel": 1,
      "note": 62,
      "start": 278.0429,
      "duration": 0.2178,
      "velocity": 93,
      "chip": "ym2612"
    },
    {
      "channel": 3,
      "note": 74,
      "start": 278.0431,
      "duration": 0.1089,
      "velocity": 94,
      "chip": "ym2612"
    },
    {
      "channel": 5,
      "note": 71,
      "start": 278.0434,
      "duration": 0.1088,
      "velocity": 94,
      "chip": "ym2612"
    },
    {
      "channel": 0,
      "note": 54,
      "start": 278.1517,
      "duration": 0.0154,
      "velocity": 127,
      "chip": "ym2612"
    },
    {
      "channel": 5,
      "note": 74,
      "start": 278.1522,
      "duration": 0.109,
      "velocity": 94,
      "chip": "ym2612"
    },
    {
      "channel": 0,
      "note": 76,
      "start": 278.1671,
      "duration": 0.0936,
      "velocity": 114,
      "chip": "ym2612"
    },
    {
      "channel": 0,
      "note": 68,
      "start": 278.2607,
      "duration": 0.0309,
      "velocity": 114,
      "chip": "ym2612"
    },
    {
      "channel": 1,
      "note": 62,
      "start": 278.2608,
      "duration": 0.2179,
      "velocity": 93,
      "chip": "ym2612"
    },
    {
      "channel": 3,
      "note": 76,
      "start": 278.261,
      "duration": 0.1089,
      "velocity": 94,
      "chip": "ym2612"
    },
    {
      "channel": 0,
      "note": 98,
      "start": 278.3696,
      "duration": 0.0309,
      "velocity": 114,
      "chip": "ym2612"
    },
    {
      "channel": 5,
      "note": 76,
      "start": 278.3701,
      "duration": 0.1092,
      "velocity": 94,
      "chip": "ym2612"
    },
    {
      "channel": 0,
      "note": 98,
      "start": 278.4786,
      "duration": 0.1089,
      "velocity": 114,
      "chip": "ym2612"
    },
    {
      "channel": 1,
      "note": 62,
      "start": 278.4787,
      "duration": 0.2178,
      "velocity": 93,
      "chip": "ym2612"
    },
    {
      "channel": 2,
      "note": 50,
      "start": 278.4788,
      "duration": 3.0504,
      "velocity": 121,
      "chip": "ym2612"
    },
    {
      "channel": 3,
      "note": 78,
      "start": 278.479,
      "duration": 0.1087,
      "velocity": 94,
      "chip": "ym2612"
    },
    {
      "channel": 5,
      "note": 78,
      "start": 278.4793,
      "duration": 0.1087,
      "velocity": 94,
      "chip": "ym2612"
    },
    {
      "channel": 0,
      "note": 54,
      "start": 278.5875,
      "duration": 0.0309,
      "velocity": 114,
      "chip": "ym2612"
    },
    {
      "channel": 3,
      "note": 81,
      "start": 278.5878,
      "duration": 0.109,
      "velocity": 94,
      "chip": "ym2612"
    },
    {
      "channel": 5,
      "note": 81,
      "start": 278.588,
      "duration": 0.109,
      "velocity": 94,
      "chip": "ym2612"
    },
    {
      "channel": 4,
      "note": 50,
      "start": 278.6654,
      "duration": 3.0503,
      "velocity": 121,
      "chip": "ym2612"
    },
    {
      "channel": 0,
      "note": 98,
      "start": 278.6964,
      "duration": 0.0309,
      "velocity": 114,
      "chip": "ym2612"
    },
    {
      "channel": 1,
      "note": 59,
      "start": 278.6965,
      "duration": 0.2179,
      "velocity": 93,
      "chip": "ym2612"
    },
    {
      "channel": 3,
      "note": 69,
      "start": 278.6967,
      "duration": 0.1089,
      "velocity": 94,
      "chip": "ym2612"
    },
    {
      "channel": 5,
      "note": 69,
      "start": 278.697,
      "duration": 0.1089,
      "velocity": 94,
      "chip": "ym2612"
    },
    {
      "channel": 0,
      "note": 98,
      "start": 278.8054,
      "duration": 0.0309,
      "velocity": 114,
      "chip": "ym2612"
    },
    {
      "channel": 3,
      "note": 74,
      "start": 278.8056,
      "duration": 0.109,
      "velocity": 94,
      "chip": "ym2612"
    },
    {
      "channel": 5,
      "note": 74,
      "start": 278.8059,
      "duration": 0.109,
      "velocity": 94,
      "chip": "ym2612"
    },
    {
      "channel": 0,
      "note": 98,
      "start": 278.9143,
      "duration": 0.0154,
      "velocity": 127,
      "chip": "ym2612"
    },
    {
      "channel": 1,
      "note": 59,
      "start": 278.9144,
      "duration": 0.2178,
      "velocity": 93,
      "chip": "ym2612"
    },
    {
      "channel": 0,
      "note": 76,
      "start": 278.9297,
      "duration": 0.0936,
      "velocity": 114,
      "chip": "ym2612"
    },
    {
      "channel": 0,
      "note": 68,
      "start": 279.0232,
      "duration": 0.0309,
      "velocity": 114,
      "chip": "ym2612"
    },
    {
      "channel": 3,
      "note": 76,
      "start": 279.0235,
      "duration": 0.109,
      "velocity": 94,
      "chip": "ym2612"
    },
    {
      "channel": 5,
      "note": 76,
      "start": 279.0239,
      "duration": 0.1088,
      "velocity": 94,
      "chip": "ym2612"
    },
    {
      "channel": 0,
      "note": 98,
      "start": 279.1322,
      "duration": 0.0309,
      "velocity": 114,
      "chip": "ym2612"
    },
    {
      "channel": 1,
      "note": 59,
      "start": 279.1323,
      "duration": 0.2179,
      "velocity": 93,
      "chip": "ym2612"
    },
    {
      "channel": 3,
      "note": 81,
      "start": 279.1325,
      "duration": 0.1089,
      "velocity": 94,
      "chip": "ym2612"
    },
    {
      "channel": 5,
      "note": 81,
      "start": 279.1327,
      "duration": 0.1089,
      "velocity": 94,
      "chip": "ym2612"
    },
    {
      "channel": 0,
      "note": 98,
      "start": 279.2411,
      "duration": 0.0309,
      "velocity": 114,
      "chip": "ym2612"
    },
    {
      "channel": 3,
      "note": 69,
      "start": 279.2414,
      "duration": 0.109,
      "velocity": 94,
      "chip": "ym2612"
    },
    {
      "channel": 5,
      "note": 69,
      "start": 279.2416,
      "duration": 0.109,
      "velocity": 94,
      "chip": "ym2612"
    },
    {
      "channel": 0,
      "note": 98,
      "start": 279.3501,
      "duration": 0.1089,
      "velocity": 114,
      "chip": "ym2612"
    },
    {
      "channel": 1,
      "note": 59,
      "start": 279.3502,
      "duration": 0.2178,
      "velocity": 93,
      "chip": "ym2612"
    },
    {
      "channel": 3,
      "note": 81,
      "start": 279.3504,
      "duration": 0.1089,
      "velocity": 94,
      "chip": "ym2612"
    },
    {
      "channel": 5,
      "note": 81,
      "start": 279.3507,
      "duration": 0.1089,
      "velocity": 94,
      "chip": "ym2612"
    },
    {
      "channel": 0,
      "note": 54,
      "start": 279.459,
      "duration": 0.0309,
      "velocity": 114,
      "chip": "ym2612"
    },
    {
      "channel": 3,
      "note": 71,
      "start": 279.4593,
      "duration": 0.109,
      "velocity": 94,
      "chip": "ym2612"
    },
    {
      "channel": 5,
      "note": 71,
      "start": 279.4595,
      "duration": 0.109,
      "velocity": 94,
      "chip": "ym2612"
    },
    {
      "channel": 0,
      "note": 98,
      "start": 279.568,
      "duration": 0.0309,
      "velocity": 114,
      "chip": "ym2612"
    },
    {
      "channel": 1,
      "note": 59,
      "start": 279.5681,
      "duration": 0.2179,
      "velocity": 93,
      "chip": "ym2612"
    },
    {
      "channel": 3,
      "note": 74,
      "start": 279.5683,
      "duration": 0.1089,
      "velocity": 94,
      "chip": "ym2612"
    },
    {
      "channel": 5,
      "note": 74,
      "start": 279.5685,
      "duration": 0.1088,
      "velocity": 94,
      "chip": "ym2612"
    },
    {
      "channel": 0,
      "note": 98,
      "start": 279.6769,
      "duration": 0.0309,
      "velocity": 114,
      "chip": "ym2612"
    },
    {
      "channel": 0,
      "note": 98,
      "start": 279.7859,
      "duration": 0.0153,
      "velocity": 127,
      "chip": "ym2612"
    },
    {
      "channel": 1,
      "note": 59,
      "start": 279.786,
      "duration": 0.2178,
      "velocity": 93,
      "chip": "ym2612"
    },
    {
      "channel": 3,
      "note": 76,
      "start": 279.7862,
      "duration": 0.1089,
      "velocity": 94,
      "chip": "ym2612"
    },
    {
      "channel": 5,
      "note": 76,
      "start": 279.7864,
      "duration": 0.1089,
      "velocity": 94,
      "chip": "ym2612"
    },
    {
      "channel": 0,
      "note": 76,
      "start": 279.8012,
      "duration": 0.0936,
      "velocity": 114,
      "chip": "ym2612"
    },
    {
      "channel": 0,
      "note": 68,
      "start": 279.8948,
      "duration": 0.0309,
      "velocity": 114,
      "chip": "ym2612"
    },
    {
      "channel": 5,
      "note": 78,
      "start": 279.8953,
      "duration": 0.109,
      "velocity": 94,
      "chip": "ym2612"
    },
    {
      "channel": 0,
      "note": 98,
      "start": 280.0037,
      "duration": 0.0309,
      "velocity": 114,
      "chip": "ym2612"
    },
    {
      "channel": 1,
      "note": 59,
      "start": 280.0038,
      "duration": 0.2179,
      "velocity": 93,
      "chip": "ym2612"
    },
    {
      "channel": 3,
      "note": 78,
      "start": 280.0041,
      "duration": 0.1088,
      "velocity": 94,
      "chip": "ym2612"
    },
    {
      "channel": 5,
      "note": 81,
      "start": 280.0044,
      "duration": 0.1088,
      "velocity": 94,
      "chip": "ym2612"
    },
    {
      "channel": 0,
      "note": 98,
      "start": 280.1127,
      "duration": 0.0309,
      "velocity": 114,
      "chip": "ym2612"
    },
    {
      "channel": 3,
      "note": 81,
      "start": 280.1129,
      "duration": 0.109,
      "velocity": 94,
      "chip": "ym2612"
    },
    {
      "channel": 5,
      "note": 69,
      "start": 280.1132,
      "duration": 0.109,
      "velocity": 94,
      "chip": "ym2612"
    },
    {
      "channel": 0,
      "note": 98,
      "start": 280.2216,
      "duration": 0.1089,
      "velocity": 114,
      "chip": "ym2612"
    },
    {
      "channel": 1,
      "note": 59,
      "start": 280.2218,
      "duration": 0.2178,
      "velocity": 93,
      "chip": "ym2612"
    },
    {
      "channel": 3,
      "note": 69,
      "start": 280.222,
      "duration": 0.1089,
      "velocity": 94,
      "chip": "ym2612"
    },
    {
      "channel": 5,
      "note": 74,
      "start": 280.2222,
      "duration": 0.1088,
      "velocity": 94,
      "chip": "ym2612"
    },
    {
      "channel": 0,
      "note": 54,
      "start": 280.3305,
      "duration": 0.0309,
      "velocity": 114,
      "chip": "ym2612"
    },
    {
      "channel": 3,
      "note": 74,
      "start": 280.3308,
      "duration": 0.1089,
      "velocity": 94,
      "chip": "ym2612"
    },
    {
      "channel": 0,
      "note": 98,
      "start": 280.4395,
      "duration": 0.0309,
      "velocity": 114,
      "chip": "ym2612"
    },
    {
      "channel": 1,
      "note": 59,
      "start": 280.4396,
      "duration": 0.2179,
      "velocity": 93,
      "chip": "ym2612"
    },
    {
      "channel": 5,
      "note": 76,
      "start": 280.44,
      "duration": 0.1089,
      "velocity": 94,
      "chip": "ym2612"
    },
    {
      "channel": 0,
      "note": 98,
      "start": 280.5484,
      "duration": 0.0309,
      "velocity": 114,
      "chip": "ym2612"
    },
    {
      "channel": 3,
      "note": 76,
      "start": 280.5487,
      "duration": 0.109,
      "velocity": 94,
      "chip": "ym2612"
    },
    {
      "channel": 5,
      "note": 81,
      "start": 280.5489,
      "duration": 0.109,
      "velocity": 94,
      "chip": "ym2612"
    },
    {
      "channel": 0,
      "note": 98,
      "start": 280.6574,
      "duration": 0.0153,
      "velocity": 127,
      "chip": "ym2612"
    },
    {
      "channel": 1,
      "note": 59,
      "start": 280.6576,
      "duration": 0.2178,
      "velocity": 93,
      "chip": "ym2612"
    },
    {
      "channel": 3,
      "note": 81,
      "start": 280.6577,
      "duration": 0.1089,
      "velocity": 94,
      "chip": "ym2612"
    },
    {
      "channel": 5,
      "note": 69,
      "start": 280.658,
      "duration": 0.1088,
      "velocity": 94,
      "chip": "ym2612"
    },
    {
      "channel": 0,
      "note": 76,
      "start": 280.6727,
      "duration": 0.0936,
      "velocity": 114,
      "chip": "ym2612"
    },
    {
      "channel": 0,
      "note": 68,
      "start": 280.7663,
      "duration": 0.0309,
      "velocity": 114,
      "chip": "ym2612"
    },
    {
      "channel": 3,
      "note": 69,
      "start": 280.7666,
      "duration": 0.109,
      "velocity": 94,
      "chip": "ym2612"
    },
    {
      "channel": 5,
      "note": 81,
      "start": 280.7668,
      "duration": 0.109,
      "velocity": 94,
      "chip": "ym2612"
    },
    {
      "channel": 0,
      "note": 98,
      "start": 280.8753,
      "duration": 0.0309,
      "velocity": 114,
      "chip": "ym2612"
    },
    {
      "channel": 1,
      "note": 59,
      "start": 280.8754,
      "duration": 0.2179,
      "velocity": 93,
      "chip": "ym2612"
    },
    {
      "channel": 3,
      "note": 81,
      "start": 280.8756,
      "duration": 0.1089,
      "velocity": 94,
      "chip": "ym2612"
    },
    {
      "channel": 5,
      "note": 71,
      "start": 280.8758,
      "duration": 0.1089,
      "velocity": 94,
      "chip": "ym2612"
    },
    {
      "channel": 0,
      "note": 98,
      "start": 280.9842,
      "duration": 0.0309,
      "velocity": 114,
      "chip": "ym2612"
    },
    {
      "channel": 3,
      "note": 71,
      "start": 280.9845,
      "duration": 0.109,
      "velocity": 94,
      "chip": "ym2612"
    },
    {
      "channel": 5,
      "note": 74,
      "start": 280.9847,
      "duration": 0.109,
      "velocity": 94,
      "chip": "ym2612"
    },
    {
      "channel": 0,
      "note": 98,
      "start": 281.0932,
      "duration": 0.1089,
      "velocity": 127,
      "chip": "ym2612"
    },
    {
      "channel": 1,
      "note": 59,
      "start": 281.0933,
      "duration": 0.2178,
      "velocity": 93,
      "chip": "ym2612"
    },
    {
      "channel": 3,
      "note": 74,
      "start": 281.0935,
      "duration": 0.1089,
      "velocity": 94,
      "chip": "ym2612"
    },
    {
      "channel": 0,
      "note": 54,
      "start": 281.2021,
      "duration": 0.0154,
      "velocity": 127,
      "chip": "ym2612"
    },
    {
      "channel": 5,
      "note": 76,
      "start": 281.2026,
      "duration": 0.109,
      "velocity": 94,
      "chip": "ym2612"
    },
    {
      "channel": 0,
      "note": 76,
      "start": 281.2174,
      "duration": 0.0936,
      "velocity": 114,
      "chip": "ym2612"
    },
    {
      "channel": 0,
      "note": 68,
      "start": 281.311,
      "duration": 0.0309,
      "velocity": 114,
      "chip": "ym2612"
    },
    {
      "channel": 1,
      "note": 59,
      "start": 281.3112,
      "duration": 0.2179,
      "velocity": 93,
      "chip": "ym2612"
    },
    {
      "channel": 3,
      "note": 76,
      "start": 281.3113,
      "duration": 0.1089,
      "velocity": 94,
      "chip": "ym2612"
    },
    {
      "channel": 5,
      "note": 78,
      "start": 281.3116,
      "duration": 0.1088,
      "velocity": 94,
      "chip": "ym2612"
    },
    {
      "channel": 0,
      "note": 98,
      "start": 281.42,
      "duration": 0.0309,
      "velocity": 114,
      "chip": "ym2612"
    },
    {
      "channel": 5,
      "note": 81,
      "start": 281.4205,
      "duration": 0.1091,
      "velocity": 94,
      "chip": "ym2612"
    },
    {
      "channel": 0,
      "note": 98,
      "start": 281.5289,
      "duration": 0.1089,
      "velocity": 114,
      "chip": "ym2612"
    },
    {
      "channel": 1,
      "note": 59,
      "start": 281.5291,
      "duration": 0.2178,
      "velocity": 93,
      "chip": "ym2612"
    },
    {
      "channel": 2,
      "note": 47,
      "start": 281.5292,
      "duration": 3.0504,
      "velocity": 121,
      "chip": "ym2612"
    },
    {
      "channel": 3,
      "note": 78,
      "start": 281.5294,
      "duration": 0.1087,
      "velocity": 94,
      "chip": "ym2612"
    },
    {
      "channel": 5,
      "note": 69,
      "start": 281.5296,
      "duration": 0.1087,
      "velocity": 94,
      "chip": "ym2612"
    },
    {
      "channel": 0,
      "note": 54,
      "start": 281.6378,
      "duration": 0.0309,
      "velocity": 114,
      "chip": "ym2612"
    },
    {
      "channel": 3,
      "note": 81,
      "start": 281.6381,
      "duration": 0.109,
      "velocity": 94,
      "chip": "ym2612"
    },
    {
      "channel": 5,
      "note": 74,
      "start": 281.6383,
      "duration": 0.109,
      "velocity": 94,
      "chip": "ym2612"
    },
    {
      "channel": 4,
      "note": 47,
      "start": 281.7158,
      "duration": 3.0504,
      "velocity": 121,
      "chip": "ym2612"
    },
    {
      "channel": 0,
      "note": 98,
      "start": 281.7468,
      "duration": 0.0309,
      "velocity": 114,
      "chip": "ym2612"
    },
    {
      "channel": 1,
      "note": 55,
      "start": 281.7469,
      "duration": 0.2179,
      "velocity": 93,
      "chip": "ym2612"
    },
    {
      "channel": 3,
      "note": 69,
      "start": 281.7471,
      "duration": 0.1089,
      "velocity": 94,
      "chip": "ym2612"
    },
    {
      "channel": 0,
      "note": 98,
      "start": 281.8557,
      "duration": 0.0309,
      "velocity": 114,
      "chip": "ym2612"
    },
    {
      "channel": 3,
      "note": 74,
      "start": 281.856,
      "duration": 0.109,
      "velocity": 94,
      "chip": "ym2612"
    },
    {
      "channel": 5,
      "note": 76,
      "start": 281.8562,
      "duration": 0.109,
      "velocity": 94,
      "chip": "ym2612"
    },
    {
      "channel": 0,
      "note": 98,
      "start": 281.9647,
      "duration": 0.0154,
      "velocity": 127,
      "chip": "ym2612"
    },
    {
      "channel": 1,
      "note": 55,
      "start": 281.9648,
      "duration": 0.2179,
      "velocity": 93,
      "chip": "ym2612"
    },
    {
      "channel": 5,
      "note": 81,
      "start": 281.9652,
      "duration": 0.1091,
      "velocity": 94,
      "chip": "ym2612"
    },
    {
      "channel": 0,
      "note": 76,
      "start": 281.98,
      "duration": 0.0938,
      "velocity": 114,
      "chip": "ym2612"
    },
    {
      "channel": 0,
      "note": 68,
      "start": 282.0738,
      "duration": 0.0307,
      "velocity": 114,
      "chip": "ym2612"
    },
    {
      "channel": 3,
      "note": 76,
      "start": 282.0741,
      "duration": 0.1088,
      "velocity": 94,
      "chip": "ym2612"
    },
    {
      "channel": 5,
      "note": 69,
      "start": 282.0743,
      "duration": 0.1088,
      "velocity": 94,
      "chip": "ym2612"
    },
    {
      "channel": 0,
      "note": 98,
      "start": 282.1826,
      "duration": 0.0309,
      "velocity": 114,
      "chip": "ym2612"
    },
    {
      "channel": 1,
      "note": 55,
      "start": 282.1827,
      "duration": 0.2179,
      "velocity": 93,
      "chip": "ym2612"
    },
    {
      "channel": 3,
      "note": 81,
      "start": 282.1829,
      "duration": 0.1089,
      "velocity": 94,
      "chip": "ym2612"
    },
    {
      "channel": 5,
      "note": 81,
      "start": 282.1831,
      "duration": 0.1089,
      "velocity": 94,
      "chip": "ym2612"
    },
    {
      "channel": 0,
      "note": 98,
      "start": 282.2915,
      "duration": 0.0309,
      "velocity": 114,
      "chip": "ym2612"
    },
    {
      "channel": 3,
      "note": 69,
      "start": 282.2918,
      "duration": 0.109,
      "velocity": 94,
      "chip": "ym2612"
    },
    {
      "channel": 5,
      "note": 71,
      "start": 282.292,
      "duration": 0.109,
      "velocity": 94,
      "chip": "ym2612"
    },
    {
      "channel": 0,
      "note": 98,
      "start": 282.4005,
      "duration": 0.1089,
      "velocity": 114,
      "chip": "ym2612"
    },
    {
      "channel": 1,
      "note": 55,
      "start": 282.4006,
      "duration": 0.2178,
      "velocity": 93,
      "chip": "ym2612"
    },
    {
      "channel": 3,
      "note": 81,
      "start": 282.4008,
      "duration": 0.1089,
      "velocity": 94,
      "chip": "ym2612"
    },
    {
      "channel": 5,
      "note": 74,
      "start": 282.401,
      "duration": 0.1089,
      "velocity": 94,
      "chip": "ym2612"
    },
    {
      "channel": 0,
      "note": 54,
      "start": 282.5094,
      "duration": 0.0311,
      "velocity": 114,
      "chip": "ym2612"
    },
    {
      "channel": 3,
      "note": 71,
      "start": 282.5097,
      "duration": 0.109,
      "velocity": 94,
      "chip": "ym2612"
    },
    {
      "channel": 0,
      "note": 98,
      "start": 282.6183,
      "duration": 0.0309,
      "velocity": 114,
      "chip": "ym2612"
    },
    {
      "channel": 1,
      "note": 55,
      "start": 282.6184,
      "duration": 0.2179,
      "velocity": 93,
      "chip": "ym2612"
    },
    {
      "channel": 3,
      "note": 74,
      "start": 282.6186,
      "duration": 0.1089,
      "velocity": 94,
      "chip": "ym2612"
    },
    {
      "channel": 5,
      "note": 76,
      "start": 282.6189,
      "duration": 0.1089,
      "velocity": 94,
      "chip": "ym2612"
    },
    {
      "channel": 0,
      "note": 98,
      "start": 282.7273,
      "duration": 0.0309,
      "velocity": 114,
      "chip": "ym2612"
    },
    {
      "channel": 5,
      "note": 78,
      "start": 282.7278,
      "duration": 0.109,
      "velocity": 94,
      "chip": "ym2612"
    },
    {
      "channel": 0,
      "note": 98,
      "start": 282.8362,
      "duration": 0.0154,
      "velocity": 127,
      "chip": "ym2612"
    },
    {
      "channel": 1,
      "note": 55,
      "start": 282.8363,
      "duration": 0.2178,
      "velocity": 93,
      "chip": "ym2612"
    },
    {
      "channel": 3,
      "note": 76,
      "start": 282.8365,
      "duration": 0.1089,
      "velocity": 94,
      "chip": "ym2612"
    },
    {
      "channel": 5,
      "note": 81,
      "start": 282.8368,
      "duration": 0.1089,
      "velocity": 94,
      "chip": "ym2612"
    },
    {
      "channel": 0,
      "note": 76,
      "start": 282.8516,
      "duration": 0.0936,
      "velocity": 114,
      "chip": "ym2612"
    },
    {
      "channel": 0,
      "note": 68,
      "start": 282.9451,
      "duration": 0.0309,
      "velocity": 114,
      "chip": "ym2612"
    },
    {
      "channel": 5,
      "note": 69,
      "start": 282.9456,
      "duration": 0.109,
      "velocity": 94,
      "chip": "ym2612"
    },
    {
      "channel": 0,
      "note": 98,
      "start": 283.0541,
      "duration": 0.0309,
      "velocity": 114,
      "chip": "ym2612"
    },
    {
      "channel": 1,
      "note": 55,
      "start": 283.0542,
      "duration": 0.2179,
      "velocity": 93,
      "chip": "ym2612"
    },
    {
      "channel": 3,
      "note": 78,
      "start": 283.0545,
      "duration": 0.1088,
      "velocity": 94,
      "chip": "ym2612"
    },
    {
      "channel": 5,
      "note": 74,
      "start": 283.0547,
      "duration": 0.1088,
      "velocity": 94,
      "chip": "ym2612"
    },
    {
      "channel": 0,
      "note": 98,
      "start": 283.163,
      "duration": 0.0309,
      "velocity": 114,
      "chip": "ym2612"
    },
    {
      "channel": 3,
      "note": 81,
      "start": 283.1633,
      "duration": 0.109,
      "velocity": 94,
      "chip": "ym2612"
    },
    {
      "channel": 0,
      "note": 98,
      "start": 283.272,
      "duration": 0.1089,
      "velocity": 114,
      "chip": "ym2612"
    },
    {
      "channel": 1,
      "note": 55,
      "start": 283.2721,
      "duration": 0.2178,
      "velocity": 93,
      "chip": "ym2612"
    },
    {
      "channel": 3,
      "note": 69,
      "start": 283.2723,
      "duration": 0.1089,
      "velocity": 94,
      "chip": "ym2612"
    },
    {
      "channel": 5,
      "note": 76,
      "start": 283.2726,
      "duration": 0.1089,
      "velocity": 94,
      "chip": "ym2612"
    },
    {
      "channel": 0,
      "note": 54,
      "start": 283.3809,
      "duration": 0.0309,
      "velocity": 114,
      "chip": "ym2612"
    },
    {
      "channel": 3,
      "note": 74,
      "start": 283.3812,
      "duration": 0.109,
      "velocity": 94,
      "chip": "ym2612"
    },
    {
      "channel": 5,
      "note": 81,
      "start": 283.3814,
      "duration": 0.1091,
      "velocity": 94,
      "chip": "ym2612"
    },
    {
      "channel": 0,
      "note": 98,
      "start": 283.4899,
      "duration": 0.0309,
      "velocity": 114,
      "chip": "ym2612"
    },
    {
      "channel": 1,
      "note": 55,
      "start": 283.49,
      "duration": 0.2179,
      "velocity": 93,
      "chip": "ym2612"
    },
    {
      "channel": 5,
      "note": 69,
      "start": 283.4905,
      "duration": 0.1088,
      "velocity": 94,
      "chip": "ym2612"
    },
    {
      "channel": 0,
      "note": 98,
      "start": 283.5988,
      "duration": 0.0309,
      "velocity": 114,
      "chip": "ym2612"
    },
    {
      "channel": 3,
      "note": 76,
      "start": 283.5991,
      "duration": 0.109,
      "velocity": 94,
      "chip": "ym2612"
    },
    {
      "channel": 5,
      "note": 81,
      "start": 283.5993,
      "duration": 0.109,
      "velocity": 94,
      "chip": "ym2612"
    },
    {
      "channel": 0,
      "note": 98,
      "start": 283.7077,
      "duration": 0.0154,
      "velocity": 127,
      "chip": "ym2612"
    },
    {
      "channel": 1,
      "note": 55,
      "start": 283.7079,
      "duration": 0.2179,
      "velocity": 93,
      "chip": "ym2612"
    },
    {
      "channel": 3,
      "note": 81,
      "start": 283.7081,
      "duration": 0.1089,
      "velocity": 94,
      "chip": "ym2612"
    },
    {
      "channel": 5,
      "note": 71,
      "start": 283.7083,
      "duration": 0.1089,
      "velocity": 94,
      "chip": "ym2612"
    },
    {
      "channel": 0,
      "note": 76,
      "start": 283.7231,
      "duration": 0.0936,
      "velocity": 114,
      "chip": "ym2612"
    },
    {
      "channel": 0,
      "note": 68,
      "start": 283.8167,
      "duration": 0.0309,
      "velocity": 114,
      "chip": "ym2612"
    },
    {
      "channel": 3,
      "note": 69,
      "start": 283.817,
      "duration": 0.109,
      "velocity": 94,
      "chip": "ym2612"
    },
    {
      "channel": 5,
      "note": 74,
      "start": 283.8172,
      "duration": 0.109,
      "velocity": 94,
      "chip": "ym2612"
    },
    {
      "channel": 0,
      "note": 98,
      "start": 283.9256,
      "duration": 0.0309,
      "velocity": 114,
      "chip": "ym2612"
    },
    {
      "channel": 1,
      "note": 55,
      "start": 283.9257,
      "duration": 0.2179,
      "velocity": 93,
      "chip": "ym2612"
    },
    {
      "channel": 3,
      "note": 81,
      "start": 283.9259,
      "duration": 0.1089,
      "velocity": 94,
      "chip": "ym2612"
    },
    {
      "channel": 0,
      "note": 98,
      "start": 284.0346,
      "duration": 0.0309,
      "velocity": 114,
      "chip": "ym2612"
    },
    {
      "channel": 3,
      "note": 71,
      "start": 284.0348,
      "duration": 0.109,
      "velocity": 94,
      "chip": "ym2612"
    },
    {
      "channel": 5,
      "note": 76,
      "start": 284.0351,
      "duration": 0.1091,
      "velocity": 94,
      "chip": "ym2612"
    },
    {
      "channel": 0,
      "note": 98,
      "start": 284.1435,
      "duration": 0.1089,
      "velocity": 127,
      "chip": "ym2612"
    },
    {
      "channel": 1,
      "note": 55,
      "start": 284.1437,
      "duration": 0.2179,
      "velocity": 93,
      "chip": "ym2612"
    },
    {
      "channel": 3,
      "note": 74,
      "start": 284.1439,
      "duration": 0.1089,
      "velocity": 94,
      "chip": "ym2612"
    },
    {
      "channel": 5,
      "note": 78,
      "start": 284.1441,
      "duration": 0.1088,
      "velocity": 94,
      "chip": "ym2612"
    },
    {
      "channel": 0,
      "note": 54,
      "start": 284.2524,
      "duration": 0.0154,
      "velocity": 127,
      "chip": "ym2612"
    },
    {
      "channel": 5,
      "note": 81,
      "start": 284.2529,
      "duration": 0.109,
      "velocity": 94,
      "chip": "ym2612"
    },
    {
      "channel": 0,
      "note": 76,
      "start": 284.2678,
      "duration": 0.0936,
      "velocity": 114,
      "chip": "ym2612"
    },
    {
      "channel": 0,
      "note": 68,
      "start": 284.3614,
      "duration": 0.0309,
      "velocity": 114,
      "chip": "ym2612"
    },
    {
      "channel": 1,
      "note": 55,
      "start": 284.3615,
      "duration": 0.2179,
      "velocity": 93,
      "chip": "ym2612"
    },
    {
      "channel": 3,
      "note": 76,
      "start": 284.3617,
      "duration": 0.1089,
      "velocity": 94,
      "chip": "ym2612"
    },
    {
      "channel": 5,
      "note": 69,
      "start": 284.362,
      "duration": 0.1088,
      "velocity": 94,
      "chip": "ym2612"
    },
    {
      "channel": 0,
      "note": 98,
      "start": 284.4703,
      "duration": 0.0309,
      "velocity": 114,
      "chip": "ym2612"
    },
    {
      "channel": 5,
      "note": 74,
      "start": 284.4708,
      "duration": 0.1091,
      "velocity": 94,
      "chip": "ym2612"
    },
    {
      "channel": 0,
      "note": 98,
      "start": 284.5793,
      "duration": 0.1089,
      "velocity": 114,
      "chip": "ym2612"
    },
    {
      "channel": 1,
      "note": 56,
      "start": 284.5794,
      "duration": 0.2178,
      "velocity": 93,
      "chip": "ym2612"
    },
    {
      "channel": 2,
      "note": 43,
      "start": 284.5796,
      "duration": 3.0503,
      "velocity": 121,
      "chip": "ym2612"
    },
    {
      "channel": 3,
      "note": 78,
      "start": 284.5797,
      "duration": 0.1088,
      "velocity": 94,
      "chip": "ym2612"
    },
    {
      "channel": 0,
      "note": 54,
      "start": 284.6882,
      "duration": 0.0309,
      "velocity": 114,
      "chip": "ym2612"
    },
    {
      "channel": 3,
      "note": 81,
      "start": 284.6885,
      "duration": 0.109,
      "velocity": 94,
      "chip": "ym2612"
    },
    {
      "channel": 5,
      "note": 76,
      "start": 284.6887,
      "duration": 0.109,
      "velocity": 94,
      "chip": "ym2612"
    },
    {
      "channel": 4,
      "note": 43,
      "start": 284.7661,
      "duration": 3.0504,
      "velocity": 121,
      "chip": "ym2612"
    },
    {
      "channel": 0,
      "note": 98,
      "start": 284.7972,
      "duration": 0.0309,
      "velocity": 114,
      "chip": "ym2612"
    },
    {
      "channel": 1,
      "note": 64,
      "start": 284.7973,
      "duration": 0.2179,
      "velocity": 93,
      "chip": "ym2612"
    },
    {
      "channel": 3,
      "note": 69,
      "start": 284.7975,
      "duration": 0.1089,
      "velocity": 94,
      "chip": "ym2612"
    },
    {
      "channel": 5,
      "note": 81,
      "start": 284.7977,
      "duration": 0.1089,
      "velocity": 94,
      "chip": "ym2612"
    },
    {
      "channel": 0,
      "note": 98,
      "start": 284.9061,
      "duration": 0.0309,
      "velocity": 114,
      "chip": "ym2612"
    },
    {
      "channel": 3,
      "note": 74,
      "start": 284.9064,
      "duration": 0.109,
      "velocity": 94,
      "chip": "ym2612"
    },
    {
      "channel": 5,
      "note": 69,
      "start": 284.9066,
      "duration": 0.109,
      "velocity": 94,
      "chip": "ym2612"
    },
    {
      "channel": 0,
      "note": 98,
      "start": 285.015,
      "duration": 0.0154,
      "velocity": 127,
      "chip": "ym2612"
    },
    {
      "channel": 1,
      "note": 64,
      "start": 285.0152,
      "duration": 0.2179,
      "velocity": 93,
      "chip": "ym2612"
    },
    {
      "channel": 5,
      "note": 81,
      "start": 285.0156,
      "duration": 0.109,
      "velocity": 94,
      "chip": "ym2612"
    },
    {
      "channel": 0,
      "note": 76,
      "start": 285.0304,
      "duration": 0.0937,
      "velocity": 114,
      "chip": "ym2612"
    },
    {
      "channel": 0,
      "note": 68,
      "start": 285.1241,
      "duration": 0.0308,
      "velocity": 114,
      "chip": "ym2612"
    },
    {
      "channel": 3,
      "note": 76,
      "start": 285.1244,
      "duration": 0.1089,
      "velocity": 94,
      "chip": "ym2612"
    },
    {
      "channel": 5,
      "note": 71,
      "start": 285.1246,
      "duration": 0.1089,
      "velocity": 94,
      "chip": "ym2612"
    },
    {
      "channel": 0,
      "note": 98,
      "start": 285.2329,
      "duration": 0.0309,
      "velocity": 114,
      "chip": "ym2612"
    },
    {
      "channel": 1,
      "note": 64,
      "start": 285.233,
      "duration": 0.2179,
      "velocity": 93,
      "chip": "ym2612"
    },
    {
      "channel": 3,
      "note": 81,
      "start": 285.2332,
      "duration": 0.1089,
      "velocity": 94,
      "chip": "ym2612"
    },
    {
      "channel": 5,
      "note": 74,
      "start": 285.2335,
      "duration": 0.1089,
      "velocity": 94,
      "chip": "ym2612"
    },
    {
      "channel": 0,
      "note": 98,
      "start": 285.3419,
      "duration": 0.0309,
      "velocity": 114,
      "chip": "ym2612"
    },
    {
      "channel": 3,
      "note": 69,
      "start": 285.3421,
      "duration": 0.109,
      "velocity": 94,
      "chip": "ym2612"
    },
    {
      "channel": 0,
      "note": 98,
      "start": 285.4508,
      "duration": 0.1089,
      "velocity": 114,
      "chip": "ym2612"
    },
    {
      "channel": 1,
      "note": 64,
      "start": 285.451,
      "duration": 0.2178,
      "velocity": 93,
      "chip": "ym2612"
    },
    {
      "channel": 3,
      "note": 81,
      "start": 285.4512,
      "duration": 0.1089,
      "velocity": 94,
      "chip": "ym2612"
    },
    {
      "channel": 5,
      "note": 76,
      "start": 285.4514,
      "duration": 0.1089,
      "velocity": 94,
      "chip": "ym2612"
    },
    {
      "channel": 0,
      "note": 54,
      "start": 285.5598,
      "duration": 0.0309,
      "velocity": 114,
      "chip": "ym2612"
    },
    {
      "channel": 3,
      "note": 71,
      "start": 285.56,
      "duration": 0.109,
      "velocity": 94,
      "chip": "ym2612"
    },
    {
      "channel": 5,
      "note": 78,
      "start": 285.5603,
      "duration": 0.1089,
      "velocity": 94,
      "chip": "ym2612"
    },
    {
      "channel": 0,
      "note": 98,
      "start": 285.6687,
      "duration": 0.0309,
      "velocity": 114,
      "chip": "ym2612"
    },
    {
      "channel": 1,
      "note": 64,
      "start": 285.6688,
      "duration": 0.2179,
      "velocity": 93,
      "chip": "ym2612"
    },
    {
      "channel": 3,
      "note": 74,
      "start": 285.669,
      "duration": 0.1089,
      "velocity": 94,
      "chip": "ym2612"
    },
    {
      "channel": 5,
      "note": 81,
      "start": 285.6693,
      "duration": 0.1089,
      "velocity": 94,
      "chip": "ym2612"
    },
    {
      "channel": 0,
      "note": 98,
      "start": 285.7776,
      "duration": 0.0309,
      "velocity": 114,
      "chip": "ym2612"
    },
    {
      "channel": 5,
      "note": 69,
      "start": 285.7781,
      "duration": 0.109,
      "velocity": 94,
      "chip": "ym2612"
    },
    {
      "channel": 0,
      "note": 98,
      "start": 285.8866,
      "duration": 0.0154,
      "velocity": 127,
      "chip": "ym2612"
    },
    {
      "channel": 1,
      "note": 64,
      "start": 285.8867,
      "duration": 0.2178,
      "velocity": 93,
      "chip": "ym2612"
    },
    {
      "channel": 3,
      "note": 76,
      "start": 285.8869,
      "duration": 0.1089,
      "velocity": 94,
      "chip": "ym2612"
    },
    {
      "channel": 5,
      "note": 74,
      "start": 285.8871,
      "duration": 0.1088,
      "velocity": 94,
      "chip": "ym2612"
    },
    {
      "channel": 0,
      "note": 76,
      "start": 285.9019,
      "duration": 0.0936,
      "velocity": 114,
      "chip": "ym2612"
    },
    {
      "channel": 0,
      "note": 68,
      "start": 285.9955,
      "duration": 0.0309,
      "velocity": 114,
      "chip": "ym2612"
    },
    {
      "channel": 0,
      "note": 98,
      "start": 286.1045,
      "duration": 0.0309,
      "velocity": 114,
      "chip": "ym2612"
    },
    {
      "channel": 1,
      "note": 64,
      "start": 286.1046,
      "duration": 0.2179,
      "velocity": 93,
      "chip": "ym2612"
    },
    {
      "channel": 3,
      "note": 78,
      "start": 286.1049,
      "duration": 0.1088,
      "velocity": 94,
      "chip": "ym2612"
    },
    {
      "channel": 5,
      "note": 76,
      "start": 286.1051,
      "duration": 0.1088,
      "velocity": 94,
      "chip": "ym2612"
    },
    {
      "channel": 0,
      "note": 98,
      "start": 286.2134,
      "duration": 0.0309,
      "velocity": 114,
      "chip": "ym2612"
    },
    {
      "channel": 3,
      "note": 81,
      "start": 286.2137,
      "duration": 0.109,
      "velocity": 94,
      "chip": "ym2612"
    },
    {
      "channel": 5,
      "note": 81,
      "start": 286.2139,
      "duration": 0.109,
      "velocity": 94,
      "chip": "ym2612"
    },
    {
      "channel": 0,
      "note": 98,
      "start": 286.3224,
      "duration": 0.1089,
      "velocity": 114,
      "chip": "ym2612"
    },
    {
      "channel": 1,
      "note": 64,
      "start": 286.3225,
      "duration": 0.218,
      "velocity": 93,
      "chip": "ym2612"
    },
    {
      "channel": 3,
      "note": 69,
      "start": 286.3227,
      "duration": 0.1089,
      "velocity": 94,
      "chip": "ym2612"
    },
    {
      "channel": 5,
      "note": 69,
      "start": 286.3229,
      "duration": 0.1089,
      "velocity": 94,
      "chip": "ym2612"
    },
    {
      "channel": 0,
      "note": 54,
      "start": 286.4313,
      "duration": 0.0309,
      "velocity": 114,
      "chip": "ym2612"
    },
    {
      "channel": 3,
      "note": 74,
      "start": 286.4316,
      "duration": 0.1091,
      "velocity": 94,
      "chip": "ym2612"
    },
    {
      "channel": 5,
      "note": 81,
      "start": 286.4318,
      "duration": 0.1091,
      "velocity": 94,
      "chip": "ym2612"
    },
    {
      "channel": 0,
      "note": 98,
      "start": 286.5402,
      "duration": 0.0309,
      "velocity": 114,
      "chip": "ym2612"
    },
    {
      "channel": 1,
      "note": 64,
      "start": 286.5405,
      "duration": 0.2177,
      "velocity": 93,
      "chip": "ym2612"
    },
    {
      "channel": 5,
      "note": 71,
      "start": 286.5409,
      "duration": 0.1087,
      "velocity": 94,
      "chip": "ym2612"
    },
    {
      "channel": 0,
      "note": 98,
      "start": 286.6492,
      "duration": 0.0309,
      "velocity": 114,
      "chip": "ym2612"
    },
    {
      "channel": 3,
      "note": 76,
      "start": 286.6494,
      "duration": 0.109,
      "velocity": 94,
      "chip": "ym2612"
    },
    {
      "channel": 5,
      "note": 74,
      "start": 286.6497,
      "duration": 0.109,
      "velocity": 94,
      "chip": "ym2612"
    },
    {
      "channel": 0,
      "note": 98,
      "start": 286.7581,
      "duration": 0.0153,
      "velocity": 127,
      "chip": "ym2612"
    },
    {
      "channel": 1,
      "note": 64,
      "start": 286.7583,
      "duration": 0.2178,
      "velocity": 93,
      "chip": "ym2612"
    },
    {
      "channel": 3,
      "note": 81,
      "start": 286.7584,
      "duration": 0.1089,
      "velocity": 94,
      "chip": "ym2612"
    },
    {
      "channel": 0,
      "note": 76,
      "start": 286.7735,
      "duration": 0.0936,
      "velocity": 114,
      "chip": "ym2612"
    },
    {
      "channel": 0,
      "note": 68,
      "start": 286.8671,
      "duration": 0.0309,
      "velocity": 114,
      "chip": "ym2612"
    },
    {
      "channel": 3,
      "note": 69,
      "start": 286.8673,
      "duration": 0.109,
      "velocity": 94,
      "chip": "ym2612"
    },
    {
      "channel": 5,
      "note": 76,
      "start": 286.8676,
      "duration": 0.109,
      "velocity": 94,
      "chip": "ym2612"
    },
    {
      "channel": 0,
      "note": 98,
      "start": 286.976,
      "duration": 0.0309,
      "velocity": 114,
      "chip": "ym2612"
    },
    {
      "channel": 1,
      "note": 64,
      "start": 286.9761,
      "duration": 0.2179,
      "velocity": 93,
      "chip": "ym2612"
    },
    {
      "channel": 3,
      "note": 81,
      "start": 286.9763,
      "duration": 0.1089,
      "velocity": 94,
      "chip": "ym2612"
    },
    {
      "channel": 5,
      "note": 78,
      "start": 286.9766,
      "duration": 0.1088,
      "velocity": 94,
      "chip": "ym2612"
    },
    {
      "channel": 0,
      "note": 98,
      "start": 287.0849,
      "duration": 0.0309,
      "velocity": 114,
      "chip": "ym2612"
    },
    {
      "channel": 3,
      "note": 71,
      "start": 287.0852,
      "duration": 0.109,
      "velocity": 94,
      "chip": "ym2612"
    },
    {
      "channel": 5,
      "note": 81,
      "start": 287.0854,
      "duration": 0.109,
      "velocity": 94,
      "chip": "ym2612"
    },
    {
      "channel": 0,
      "note": 98,
      "start": 287.1939,
      "duration": 0.1089,
      "velocity": 127,
      "chip": "ym2612"
    },
    {
      "channel": 1,
      "note": 64,
      "start": 287.194,
      "duration": 0.2178,
      "velocity": 93,
      "chip": "ym2612"
    },
    {
      "channel": 3,
      "note": 74,
      "start": 287.1942,
      "duration": 0.1089,
      "velocity": 94,
      "chip": "ym2612"
    },
    {
      "channel": 5,
      "note": 69,
      "start": 287.1945,
      "duration": 0.1088,
      "velocity": 94,
      "chip": "ym2612"
    },
    {
      "channel": 0,
      "note": 54,
      "start": 287.3028,
      "duration": 0.0154,
      "velocity": 127,
      "chip": "ym2612"
    },
    {
      "channel": 5,
      "note": 74,
      "start": 287.3033,
      "duration": 0.109,
      "velocity": 94,
      "chip": "ym2612"
    },
    {
      "channel": 0,
      "note": 76,
      "start": 287.3182,
      "duration": 0.0936,
      "velocity": 114,
      "chip": "ym2612"
    },
    {
      "channel": 0,
      "note": 68,
      "start": 287.4118,
      "duration": 0.0309,
      "velocity": 114,
      "chip": "ym2612"
    },
    {
      "channel": 1,
      "note": 64,
      "start": 287.4119,
      "duration": 0.2179,
      "velocity": 93,
      "chip": "ym2612"
    },
    {
      "channel": 3,
      "note": 76,
      "start": 287.4121,
      "duration": 0.1089,
      "velocity": 94,
      "chip": "ym2612"
    },
    {
      "channel": 0,
      "note": 98,
      "start": 287.5207,
      "duration": 0.0309,
      "velocity": 114,
      "chip": "ym2612"
    },
    {
      "channel": 5,
      "note": 76,
      "start": 287.5212,
      "duration": 0.1092,
      "velocity": 94,
      "chip": "ym2612"
    },
    {
      "channel": 0,
      "note": 98,
      "start": 287.6297,
      "duration": 0.1089,
      "velocity": 114,
      "chip": "ym2612"
    },
    {
      "channel": 1,
      "note": 64,
      "start": 287.6298,
      "duration": 0.2178,
      "velocity": 93,
      "chip": "ym2612"
    },
    {
      "channel": 2,
      "note": 52,
      "start": 287.6299,
      "duration": 3.0504,
      "velocity": 121,
      "chip": "ym2612"
    },
    {
      "channel": 3,
      "note": 78,
      "start": 287.6301,
      "duration": 0.1088,
      "velocity": 94,
      "chip": "ym2612"
    },
    {
      "channel": 5,
      "note": 81,
      "start": 287.6303,
      "duration": 0.1087,
      "velocity": 94,
      "chip": "ym2612"
    },
    {
      "channel": 0,
      "note": 54,
      "start": 287.7386,
      "duration": 0.0309,
      "velocity": 114,
      "chip": "ym2612"
    },
    {
      "channel": 3,
      "note": 81,
      "start": 287.7388,
      "duration": 0.109,
      "velocity": 94,
      "chip": "ym2612"
    },
    {
      "channel": 5,
      "note": 69,
      "start": 287.7391,
      "duration": 0.109,
      "velocity": 94,
      "chip": "ym2612"
    },
    {
      "channel": 4,
      "note": 52,
      "start": 287.8165,
      "duration": 3.0504,
      "velocity": 121,
      "chip": "ym2612"
    },
    {
      "channel": 0,
      "note": 98,
      "start": 287.8475,
      "duration": 0.0309,
      "velocity": 114,
      "chip": "ym2612"
    },
    {
      "channel": 1,
      "note": 62,
      "start": 287.8476,
      "duration": 0.2179,
      "velocity": 93,
      "chip": "ym2612"
    },
    {
      "channel": 3,
      "note": 69,
      "start": 287.8478,
      "duration": 0.1089,
      "velocity": 94,
      "chip": "ym2612"
    },
    {
      "channel": 5,
      "note": 81,
      "start": 287.848,
      "duration": 0.1091,
      "velocity": 94,
      "chip": "ym2612"
    },
    {
      "channel": 0,
      "note": 98,
      "start": 287.9565,
      "duration": 0.0309,
      "velocity": 114,
      "chip": "ym2612"
    },
    {
      "channel": 3,
      "note": 74,
      "start": 287.9567,
      "duration": 0.109,
      "velocity": 94,
      "chip": "ym2612"
    },
    {
      "channel": 5,
      "note": 71,
      "start": 287.9571,
      "duration": 0.1088,
      "velocity": 94,
      "chip": "ym2612"
    },
    {
      "channel": 0,
      "note": 98,
      "start": 288.0654,
      "duration": 0.0153,
      "velocity": 127,
      "chip": "ym2612"
    },
    {
      "channel": 1,
      "note": 62,
      "start": 288.0656,
      "duration": 0.2178,
      "velocity": 93,
      "chip": "ym2612"
    },
    {
      "channel": 5,
      "note": 74,
      "start": 288.066,
      "duration": 0.1089,
      "velocity": 94,
      "chip": "ym2612"
    },
    {
      "channel": 0,
      "note": 76,
      "start": 288.0808,
      "duration": 0.0936,
      "velocity": 114,
      "chip": "ym2612"
    },
    {
      "channel": 0,
      "note": 68,
      "start": 288.1744,
      "duration": 0.0309,
      "velocity": 114,
      "chip": "ym2612"
    },
    {
      "channel": 3,
      "note": 76,
      "start": 288.1746,
      "duration": 0.109,
      "velocity": 94,
      "chip": "ym2612"
    },
    {
      "channel": 0,
      "note": 98,
      "start": 288.2833,
      "duration": 0.0309,
      "velocity": 114,
      "chip": "ym2612"
    },
    {
      "channel": 1,
      "note": 62,
      "start": 288.2834,
      "duration": 0.2179,
      "velocity": 93,
      "chip": "ym2612"
    },
    {
      "channel": 3,
      "note": 81,
      "start": 288.2836,
      "duration": 0.1089,
      "velocity": 94,
      "chip": "ym2612"
    },
    {
      "channel": 5,
      "note": 76,
      "start": 288.2838,
      "duration": 0.109,
      "velocity": 94,
      "chip": "ym2612"
    },
    {
      "channel": 0,
      "note": 98,
      "start": 288.3922,
      "duration": 0.0309,
      "velocity": 114,
      "chip": "ym2612"
    },
    {
      "channel": 3,
      "note": 69,
      "start": 288.3925,
      "duration": 0.109,
      "velocity": 94,
      "chip": "ym2612"
    },
    {
      "channel": 5,
      "note": 78,
      "start": 288.3928,
      "duration": 0.109,
      "velocity": 94,
      "chip": "ym2612"
    },
    {
      "channel": 0,
      "note": 98,
      "start": 288.5012,
      "duration": 0.1089,
      "velocity": 114,
      "chip": "ym2612"
    },
    {
      "channel": 1,
      "note": 62,
      "start": 288.5013,
      "duration": 0.2178,
      "velocity": 93,
      "chip": "ym2612"
    },
    {
      "channel": 3,
      "note": 81,
      "start": 288.5015,
      "duration": 0.1089,
      "velocity": 94,
      "chip": "ym2612"
    },
    {
      "channel": 5,
      "note": 81,
      "start": 288.5018,
      "duration": 0.1089,
      "velocity": 94,
      "chip": "ym2612"
    },
    {
      "channel": 0,
      "note": 54,
      "start": 288.6101,
      "duration": 0.0309,
      "velocity": 114,
      "chip": "ym2612"
    },
    {
      "channel": 3,
      "note": 71,
      "start": 288.6104,
      "duration": 0.109,
      "velocity": 94,
      "chip": "ym2612"
    },
    {
      "channel": 5,
      "note": 69,
      "start": 288.6106,
      "duration": 0.109,
      "velocity": 94,
      "chip": "ym2612"
    },
    {
      "channel": 0,
      "note": 98,
      "start": 288.7191,
      "duration": 0.0309,
      "velocity": 114,
      "chip": "ym2612"
    },
    {
      "channel": 1,
      "note": 62,
      "start": 288.7192,
      "duration": 0.2179,
      "velocity": 93,
      "chip": "ym2612"
    },
    {
      "channel": 3,
      "note": 74,
      "start": 288.7194,
      "duration": 0.1089,
      "velocity": 94,
      "chip": "ym2612"
    },
    {
      "channel": 5,
      "note": 74,
      "start": 288.7196,
      "duration": 0.1088,
      "velocity": 94,
      "chip": "ym2612"
    },
    {
      "channel": 0,
      "note": 98,
      "start": 288.828,
      "duration": 0.0309,
      "velocity": 114,
      "chip": "ym2612"
    },
    {
      "channel": 0,
      "note": 98,
      "start": 288.9369,
      "duration": 0.0154,
      "velocity": 127,
      "chip": "ym2612"
    },
    {
      "channel": 1,
      "note": 62,
      "start": 288.9371,
      "duration": 0.2178,
      "velocity": 93,
      "chip": "ym2612"
    },
    {
      "channel": 3,
      "note": 76,
      "start": 288.9373,
      "duration": 0.1089,
      "velocity": 94,
      "chip": "ym2612"
    },
    {
      "channel": 5,
      "note": 76,
      "start": 288.9375,
      "duration": 0.1089,
      "velocity": 94,
      "chip": "ym2612"
    },
    {
      "channel": 0,
      "note": 76,
      "start": 288.9523,
      "duration": 0.0936,
      "velocity": 114,
      "chip": "ym2612"
    },
    {
      "channel": 0,
      "note": 68,
      "start": 289.0459,
      "duration": 0.0309,
      "velocity": 114,
      "chip": "ym2612"
    },
    {
      "channel": 5,
      "note": 81,
      "start": 289.0464,
      "duration": 0.1091,
      "velocity": 94,
      "chip": "ym2612"
    },
    {
      "channel": 0,
      "note": 98,
      "start": 289.1548,
      "duration": 0.0309,
      "velocity": 114,
      "chip": "ym2612"
    },
    {
      "channel": 1,
      "note": 62,
      "start": 289.1549,
      "duration": 0.2179,
      "velocity": 93,
      "chip": "ym2612"
    },
    {
      "channel": 3,
      "note": 78,
      "start": 289.1552,
      "duration": 0.1088,
      "velocity": 94,
      "chip": "ym2612"
    },
    {
      "channel": 5,
      "note": 69,
      "start": 289.1554,
      "duration": 0.1088,
      "velocity": 94,
      "chip": "ym2612"
    },
    {
      "channel": 0,
      "note": 98,
      "start": 289.2638,
      "duration": 0.0309,
      "velocity": 114,
      "chip": "ym2612"
    },
    {
      "channel": 3,
      "note": 81,
      "start": 289.264,
      "duration": 0.109,
      "velocity": 94,
      "chip": "ym2612"
    },
    {
      "channel": 5,
      "note": 81,
      "start": 289.2643,
      "duration": 0.109,
      "velocity": 94,
      "chip": "ym2612"
    },
    {
      "channel": 0,
      "note": 98,
      "start": 289.3727,
      "duration": 0.1089,
      "velocity": 114,
      "chip": "ym2612"
    },
    {
      "channel": 1,
      "note": 62,
      "start": 289.3729,
      "duration": 0.218,
      "velocity": 93,
      "chip": "ym2612"
    },
    {
      "channel": 3,
      "note": 69,
      "start": 289.3731,
      "duration": 0.1089,
      "velocity": 94,
      "chip": "ym2612"
    },
    {
      "channel": 5,
      "note": 71,
      "start": 289.3733,
      "duration": 0.1089,
      "velocity": 94,
      "chip": "ym2612"
    },
    {
      "channel": 0,
      "note": 54,
      "start": 289.4817,
      "duration": 0.0309,
      "velocity": 114,
      "chip": "ym2612"
    },
    {
      "channel": 3,
      "note": 74,
      "start": 289.4819,
      "duration": 0.1091,
      "velocity": 94,
      "chip": "ym2612"
    },
    {
      "channel": 5,
      "note": 74,
      "start": 289.4822,
      "duration": 0.1091,
      "velocity": 94,
      "chip": "ym2612"
    },
    {
      "channel": 0,
      "note": 98,
      "start": 289.5907,
      "duration": 0.0307,
      "velocity": 114,
      "chip": "ym2612"
    },
    {
      "channel": 1,
      "note": 62,
      "start": 289.5909,
      "duration": 0.2177,
      "velocity": 93,
      "chip": "ym2612"
    },
    {
      "channel": 0,
      "note": 98,
      "start": 289.6995,
      "duration": 0.0309,
      "velocity": 114,
      "chip": "ym2612"
    },
    {
      "channel": 3,
      "note": 76,
      "start": 289.6998,
      "duration": 0.109,
      "velocity": 94,
      "chip": "ym2612"
    },
    {
      "channel": 5,
      "note": 76,
      "start": 289.7,
      "duration": 0.1091,
      "velocity": 94,
      "chip": "ym2612"
    },
    {
      "channel": 0,
      "note": 98,
      "start": 289.8085,
      "duration": 0.0154,
      "velocity": 127,
      "chip": "ym2612"
    },
    {
      "channel": 1,
      "note": 62,
      "start": 289.8086,
      "duration": 0.2178,
      "velocity": 93,
      "chip": "ym2612"
    },
    {
      "channel": 3,
      "note": 81,
      "start": 289.8088,
      "duration": 0.1089,
      "velocity": 94,
      "chip": "ym2612"
    },
    {
      "channel": 5,
      "note": 78,
      "start": 289.8091,
      "duration": 0.1088,
      "velocity": 94,
      "chip": "ym2612"
    },
    {
      "channel": 0,
      "note": 76,
      "start": 289.8239,
      "duration": 0.0935,
      "velocity": 114,
      "chip": "ym2612"
    },
    {
      "channel": 0,
      "note": 68,
      "start": 289.9174,
      "duration": 0.0309,
      "velocity": 114,
      "chip": "ym2612"
    },
    {
      "channel": 3,
      "note": 69,
      "start": 289.9177,
      "duration": 0.109,
      "velocity": 94,
      "chip": "ym2612"
    },
    {
      "channel": 5,
      "note": 81,
      "start": 289.9179,
      "duration": 0.109,
      "velocity": 94,
      "chip": "ym2612"
    },
    {
      "channel": 0,
      "note": 98,
      "start": 290.0264,
      "duration": 0.0309,
      "velocity": 114,
      "chip": "ym2612"
    },
    {
      "channel": 1,
      "note": 62,
      "start": 290.0265,
      "duration": 0.2179,
      "velocity": 93,
      "chip": "ym2612"
    },
    {
      "channel": 3,
      "note": 81,
      "start": 290.0267,
      "duration": 0.1089,
      "velocity": 94,
      "chip": "ym2612"
    },
    {
      "channel": 5,
      "note": 69,
      "start": 290.0269,
      "duration": 0.1089,
      "velocity": 94,
      "chip": "ym2612"
    },
    {
      "channel": 0,
      "note": 98,
      "start": 290.1353,
      "duration": 0.0309,
      "velocity": 114,
      "chip": "ym2612"
    },
    {
      "channel": 3,
      "note": 71,
      "start": 290.1356,
      "duration": 0.109,
      "velocity": 94,
      "chip": "ym2612"
    },
    {
      "channel": 5,
      "note": 74,
      "start": 290.1358,
      "duration": 0.109,
      "velocity": 94,
      "chip": "ym2612"
    },
    {
      "channel": 0,
      "note": 98,
      "start": 290.2443,
      "duration": 0.1089,
      "velocity": 127,
      "chip": "ym2612"
    },
    {
      "channel": 1,
      "note": 62,
      "start": 290.2444,
      "duration": 0.2178,
      "velocity": 93,
      "chip": "ym2612"
    },
    {
      "channel": 3,
      "note": 74,
      "start": 290.2446,
      "duration": 0.1089,
      "velocity": 94,
      "chip": "ym2612"
    },
    {
      "channel": 0,
      "note": 54,
      "start": 290.3532,
      "duration": 0.0154,
      "velocity": 127,
      "chip": "ym2612"
    },
    {
      "channel": 5,
      "note": 76,
      "start": 290.3537,
      "duration": 0.109,
      "velocity": 94,
      "chip": "ym2612"
    },
    {
      "channel": 0,
      "note": 76,
      "start": 290.3685,
      "duration": 0.0936,
      "velocity": 114,
      "chip": "ym2612"
    },
    {
      "channel": 0,
      "note": 68,
      "start": 290.4621,
      "duration": 0.0309,
      "velocity": 114,
      "chip": "ym2612"
    },
    {
      "channel": 1,
      "note": 62,
      "start": 290.4622,
      "duration": 0.2179,
      "velocity": 93,
      "chip": "ym2612"
    },
    {
      "channel": 3,
      "note": 76,
      "start": 290.4624,
      "duration": 0.1089,
      "velocity": 94,
      "chip": "ym2612"
    },
    {
      "channel": 5,
      "note": 81,
      "start": 290.4627,
      "duration": 0.1088,
      "velocity": 94,
      "chip": "ym2612"
    },
    {
      "channel": 0,
      "note": 98,
      "start": 290.5711,
      "duration": 0.0309,
      "velocity": 114,
      "chip": "ym2612"
    },
    {
      "channel": 5,
      "note": 69,
      "start": 290.5715,
      "duration": 0.1092,
      "velocity": 94,
      "chip": "ym2612"
    },
    {
      "channel": 0,
      "note": 98,
      "start": 290.68,
      "duration": 0.1089,
      "velocity": 114,
      "chip": "ym2612"
    },
    {
      "channel": 1,
      "note": 62,
      "start": 290.6802,
      "duration": 0.2178,
      "velocity": 93,
      "chip": "ym2612"
    },
    {
      "channel": 2,
      "note": 50,
      "start": 290.6803,
      "duration": 3.0504,
      "velocity": 121,
      "chip": "ym2612"
    },
    {
      "channel": 3,
      "note": 78,
      "start": 290.6805,
      "duration": 0.1087,
      "velocity": 94,
      "chip": "ym2612"
    },
    {
      "channel": 5,
      "note": 81,
      "start": 290.6807,
      "duration": 0.1088,
      "velocity": 94,
      "chip": "ym2612"
    },
    {
      "channel": 0,
      "note": 54,
      "start": 290.789,
      "duration": 0.0309,
      "velocity": 114,
      "chip": "ym2612"
    },
    {
      "channel": 3,
      "note": 81,
      "start": 290.7892,
      "duration": 0.109,
      "velocity": 94,
      "chip": "ym2612"
    },
    {
      "channel": 5,
      "note": 71,
      "start": 290.7895,
      "duration": 0.109,
      "velocity": 94,
      "chip": "ym2612"
    },
    {
      "channel": 4,
      "note": 50,
      "start": 290.8669,
      "duration": 3.0504,
      "velocity": 121,
      "chip": "ym2612"
    },
    {
      "channel": 0,
      "note": 98,
      "start": 290.8979,
      "duration": 0.0309,
      "velocity": 114,
      "chip": "ym2612"
    },
    {
      "channel": 1,
      "note": 59,
      "start": 290.898,
      "duration": 0.2179,
      "velocity": 93,
      "chip": "ym2612"
    },
    {
      "channel": 3,
      "note": 69,
      "start": 290.8982,
      "duration": 0.109,
      "velocity": 94,
      "chip": "ym2612"
    },
    {
      "channel": 5,
      "note": 74,
      "start": 290.8984,
      "duration": 0.1091,
      "velocity": 94,
      "chip": "ym2612"
    },
    {
      "channel": 0,
      "note": 98,
      "start": 291.0068,
      "duration": 0.0309,
      "velocity": 114,
      "chip": "ym2612"
    },
    {
      "channel": 3,
      "note": 74,
      "start": 291.0073,
      "duration": 0.1088,
      "velocity": 94,
      "chip": "ym2612"
    },
    {
      "channel": 0,
      "note": 98,
      "start": 291.1158,
      "duration": 0.0154,
      "velocity": 127,
      "chip": "ym2612"
    },
    {
      "channel": 1,
      "note": 59,
      "start": 291.1159,
      "duration": 0.2178,
      "velocity": 93,
      "chip": "ym2612"
    },
    {
      "channel": 5,
      "note": 76,
      "start": 291.1163,
      "duration": 0.109,
      "velocity": 94,
      "chip": "ym2612"
    },
    {
      "channel": 0,
      "note": 76,
      "start": 291.1311,
      "duration": 0.0936,
      "velocity": 114,
      "chip": "ym2612"
    },
    {
      "channel": 0,
      "note": 68,
      "start": 291.2247,
      "duration": 0.0309,
      "velocity": 114,
      "chip": "ym2612"
    },
    {
      "channel": 3,
      "note": 76,
      "start": 291.225,
      "duration": 0.109,
      "velocity": 94,
      "chip": "ym2612"
    },
    {
      "channel": 5,
      "note": 78,
      "start": 291.2253,
      "duration": 0.1089,
      "velocity": 94,
      "chip": "ym2612"
    },
    {
      "channel": 0,
      "note": 98,
      "start": 291.3337,
      "duration": 0.0309,
      "velocity": 114,
      "chip": "ym2612"
    },
    {
      "channel": 1,
      "note": 59,
      "start": 291.3338,
      "duration": 0.2179,
      "velocity": 93,
      "chip": "ym2612"
    },
    {
      "channel": 3,
      "note": 81,
      "start": 291.334,
      "duration": 0.1089,
      "velocity": 94,
      "chip": "ym2612"
    },
    {
      "channel": 5,
      "note": 81,
      "start": 291.3342,
      "duration": 0.1089,
      "velocity": 94,
      "chip": "ym2612"
    },
    {
      "channel": 0,
      "note": 98,
      "start": 291.4426,
      "duration": 0.0309,
      "velocity": 114,
      "chip": "ym2612"
    },
    {
      "channel": 3,
      "note": 69,
      "start": 291.4429,
      "duration": 0.109,
      "velocity": 94,
      "chip": "ym2612"
    },
    {
      "channel": 5,
      "note": 69,
      "start": 291.4431,
      "duration": 0.109,
      "velocity": 94,
      "chip": "ym2612"
    },
    {
      "channel": 0,
      "note": 98,
      "start": 291.5516,
      "duration": 0.1089,
      "velocity": 114,
      "chip": "ym2612"
    },
    {
      "channel": 1,
      "note": 59,
      "start": 291.5517,
      "duration": 0.2178,
      "velocity": 93,
      "chip": "ym2612"
    },
    {
      "channel": 3,
      "note": 81,
      "start": 291.5519,
      "duration": 0.1088,
      "velocity": 94,
      "chip": "ym2612"
    },
    {
      "channel": 5,
      "note": 74,
      "start": 291.5521,
      "duration": 0.1089,
      "velocity": 94,
      "chip": "ym2612"
    },
    {
      "channel": 0,
      "note": 54,
      "start": 291.6605,
      "duration": 0.0309,
      "velocity": 114,
      "chip": "ym2612"
    },
    {
      "channel": 3,
      "note": 71,
      "start": 291.6608,
      "duration": 0.109,
      "velocity": 94,
      "chip": "ym2612"
    },
    {
      "channel": 0,
      "note": 98,
      "start": 291.7694,
      "duration": 0.0309,
      "velocity": 114,
      "chip": "ym2612"
    },
    {
      "channel": 1,
      "note": 59,
      "start": 291.7695,
      "duration": 0.2179,
      "velocity": 93,
      "chip": "ym2612"
    },
    {
      "channel": 3,
      "note": 74,
      "start": 291.7697,
      "duration": 0.1089,
      "velocity": 94,
      "chip": "ym2612"
    },
    {
      "channel": 5,
      "note": 76,
      "start": 291.77,
      "duration": 0.1089,
      "velocity": 94,
      "chip": "ym2612"
    },
    {
      "channel": 0,
      "note": 98,
      "start": 291.8784,
      "duration": 0.0309,
      "velocity": 114,
      "chip": "ym2612"
    },
    {
      "channel": 5,
      "note": 81,
      "start": 291.8788,
      "duration": 0.109,
      "velocity": 94,
      "chip": "ym2612"
    },
    {
      "channel": 0,
      "note": 98,
      "start": 291.9873,
      "duration": 0.0154,
      "velocity": 127,
      "chip": "ym2612"
    },
    {
      "channel": 1,
      "note": 59,
      "start": 291.9874,
      "duration": 0.2179,
      "velocity": 93,
      "chip": "ym2612"
    },
    {
      "channel": 3,
      "note": 76,
      "start": 291.9876,
      "duration": 0.1089,
      "velocity": 94,
      "chip": "ym2612"
    },
    {
      "channel": 5,
      "note": 69,
      "start": 291.9879,
      "duration": 0.1089,
      "velocity": 94,
      "chip": "ym2612"
    },
    {
      "channel": 0,
      "note": 76,
      "start": 292.0027,
      "duration": 0.0936,
      "velocity": 114,
      "chip": "ym2612"
    },
    {
      "channel": 0,
      "note": 68,
      "start": 292.0963,
      "duration": 0.0309,
      "velocity": 114,
      "chip": "ym2612"
    },
    {
      "channel": 5,
      "note": 81,
      "start": 292.0968,
      "duration": 0.109,
      "velocity": 94,
      "chip": "ym2612"
    },
    {
      "channel": 0,
      "note": 98,
      "start": 292.2052,
      "duration": 0.0309,
      "velocity": 114,
      "chip": "ym2612"
    },
    {
      "channel": 1,
      "note": 59,
      "start": 292.2053,
      "duration": 0.2179,
      "velocity": 93,
      "chip": "ym2612"
    },
    {
      "channel": 3,
      "note": 78,
      "start": 292.2056,
      "duration": 0.1088,
      "velocity": 94,
      "chip": "ym2612"
    },
    {
      "channel": 5,
      "note": 71,
      "start": 292.2058,
      "duration": 0.1088,
      "velocity": 94,
      "chip": "ym2612"
    },
    {
      "channel": 0,
      "note": 98,
      "start": 292.3141,
      "duration": 0.0309,
      "velocity": 114,
      "chip": "ym2612"
    },
    {
      "channel": 3,
      "note": 81,
      "start": 292.3144,
      "duration": 0.109,
      "velocity": 94,
      "chip": "ym2612"
    },
    {
      "channel": 5,
      "note": 74,
      "start": 292.3146,
      "duration": 0.1092,
      "velocity": 94,
      "chip": "ym2612"
    },
    {
      "channel": 0,
      "note": 98,
      "start": 292.4231,
      "duration": 0.1089,
      "velocity": 114,
      "chip": "ym2612"
    },
    {
      "channel": 1,
      "note": 59,
      "start": 292.4232,
      "duration": 0.2178,
      "velocity": 93,
      "chip": "ym2612"
    },
    {
      "channel": 3,
      "note": 69,
      "start": 292.4234,
      "duration": 0.1089,
      "velocity": 94,
      "chip": "ym2612"
    },
    {
      "channel": 0,
      "note": 54,
      "start": 292.532,
      "duration": 0.0309,
      "velocity": 114,
      "chip": "ym2612"
    },
    {
      "channel": 3,
      "note": 74,
      "start": 292.5323,
      "duration": 0.109,
      "velocity": 94,
      "chip": "ym2612"
    },
    {
      "channel": 5,
      "note": 76,
      "start": 292.5325,
      "duration": 0.109,
      "velocity": 94,
      "chip": "ym2612"
    },
    {
      "channel": 0,
      "note": 98,
      "start": 292.641,
      "duration": 0.0309,
      "velocity": 114,
      "chip": "ym2612"
    },
    {
      "channel": 1,
      "note": 59,
      "start": 292.6411,
      "duration": 0.2179,
      "velocity": 93,
      "chip": "ym2612"
    },
    {
      "channel": 5,
      "note": 78,
      "start": 292.6415,
      "duration": 0.1088,
      "velocity": 94,
      "chip": "ym2612"
    },
    {
      "channel": 0,
      "note": 98,
      "start": 292.7499,
      "duration": 0.0309,
      "velocity": 114,
      "chip": "ym2612"
    },
    {
      "channel": 3,
      "note": 76,
      "start": 292.7502,
      "duration": 0.109,
      "velocity": 94,
      "chip": "ym2612"
    },
    {
      "channel": 5,
      "note": 81,
      "start": 292.7504,
      "duration": 0.109,
      "velocity": 94,
      "chip": "ym2612"
    },
    {
      "channel": 0,
      "note": 98,
      "start": 292.8588,
      "duration": 0.0154,
      "velocity": 127,
      "chip": "ym2612"
    },
    {
      "channel": 1,
      "note": 59,
      "start": 292.859,
      "duration": 0.2178,
      "velocity": 93,
      "chip": "ym2612"
    },
    {
      "channel": 3,
      "note": 81,
      "start": 292.8592,
      "duration": 0.1089,
      "velocity": 94,
      "chip": "ym2612"
    },
    {
      "channel": 5,
      "note": 69,
      "start": 292.8594,
      "duration": 0.1089,
      "velocity": 94,
      "chip": "ym2612"
    },
    {
      "channel": 0,
      "note": 76,
      "start": 292.8742,
      "duration": 0.0936,
      "velocity": 114,
      "chip": "ym2612"
    },
    {
      "channel": 0,
      "note": 68,
      "start": 292.9678,
      "duration": 0.0309,
      "velocity": 114,
      "chip": "ym2612"
    },
    {
      "channel": 3,
      "note": 69,
      "start": 292.9681,
      "duration": 0.109,
      "velocity": 94,
      "chip": "ym2612"
    },
    {
      "channel": 5,
      "note": 74,
      "start": 292.9683,
      "duration": 0.109,
      "velocity": 94,
      "chip": "ym2612"
    },
    {
      "channel": 0,
      "note": 98,
      "start": 293.0767,
      "duration": 0.0309,
      "velocity": 114,
      "chip": "ym2612"
    },
    {
      "channel": 1,
      "note": 59,
      "start": 293.0768,
      "duration": 0.2179,
      "velocity": 93,
      "chip": "ym2612"
    },
    {
      "channel": 3,
      "note": 81,
      "start": 293.0771,
      "duration": 0.1089,
      "velocity": 94,
      "chip": "ym2612"
    },
    {
      "channel": 0,
      "note": 98,
      "start": 293.1857,
      "duration": 0.0309,
      "velocity": 114,
      "chip": "ym2612"
    },
    {
      "channel": 3,
      "note": 71,
      "start": 293.1859,
      "duration": 0.109,
      "velocity": 94,
      "chip": "ym2612"
    },
    {
      "channel": 5,
      "note": 76,
      "start": 293.1862,
      "duration": 0.109,
      "velocity": 94,
      "chip": "ym2612"
    },
    {
      "channel": 0,
      "note": 98,
      "start": 293.2946,
      "duration": 0.1089,
      "velocity": 127,
      "chip": "ym2612"
    },
    {
      "channel": 1,
      "note": 59,
      "start": 293.2948,
      "duration": 0.2178,
      "velocity": 93,
      "chip": "ym2612"
    },
    {
      "channel": 3,
      "note": 74,
      "start": 293.295,
      "duration": 0.1088,
      "velocity": 94,
      "chip": "ym2612"
    },
    {
      "channel": 5,
      "note": 81,
      "start": 293.2952,
      "duration": 0.1088,
      "velocity": 94,
      "chip": "ym2612"
    },
    {
      "channel": 0,
      "note": 54,
      "start": 293.4035,
      "duration": 0.0154,
      "velocity": 127,
      "chip": "ym2612"
    },
    {
      "channel": 5,
      "note": 69,
      "start": 293.4041,
      "duration": 0.109,
      "velocity": 94,
      "chip": "ym2612"
    },
    {
      "channel": 0,
      "note": 76,
      "start": 293.4189,
      "duration": 0.0936,
      "velocity": 114,
      "chip": "ym2612"
    },
    {
      "channel": 0,
      "note": 68,
      "start": 293.5125,
      "duration": 0.0309,
      "velocity": 114,
      "chip": "ym2612"
    },
    {
      "channel": 1,
      "note": 59,
      "start": 293.5126,
      "duration": 0.2179,
      "velocity": 93,
      "chip": "ym2612"
    },
    {
      "channel": 3,
      "note": 76,
      "start": 293.5128,
      "duration": 0.1089,
      "velocity": 94,
      "chip": "ym2612"
    },
    {
      "channel": 5,
      "note": 81,
      "start": 293.5131,
      "duration": 0.1088,
      "velocity": 94,
      "chip": "ym2612"
    },
    {
      "channel": 0,
      "note": 98,
      "start": 293.6214,
      "duration": 0.0309,
      "velocity": 114,
      "chip": "ym2612"
    },
    {
      "channel": 5,
      "note": 71,
      "start": 293.6219,
      "duration": 0.1091,
      "velocity": 94,
      "chip": "ym2612"
    },
    {
      "channel": 0,
      "note": 98,
      "start": 293.7304,
      "duration": 0.1089,
      "velocity": 114,
      "chip": "ym2612"
    },
    {
      "channel": 1,
      "note": 59,
      "start": 293.7305,
      "duration": 0.2178,
      "velocity": 93,
      "chip": "ym2612"
    },
    {
      "channel": 2,
      "note": 47,
      "start": 293.7307,
      "duration": 3.0504,
      "velocity": 121,
      "chip": "ym2612"
    },
    {
      "channel": 3,
      "note": 78,
      "start": 293.7308,
      "duration": 0.1087,
      "velocity": 94,
      "chip": "ym2612"
    },
    {
      "channel": 5,
      "note": 74,
      "start": 293.7311,
      "duration": 0.1087,
      "velocity": 94,
      "chip": "ym2612"
    },
    {
      "channel": 0,
      "note": 54,
      "start": 293.8393,
      "duration": 0.0309,
      "velocity": 114,
      "chip": "ym2612"
    },
    {
      "channel": 3,
      "note": 81,
      "start": 293.8396,
      "duration": 0.109,
      "velocity": 94,
      "chip": "ym2612"
    },
    {
      "channel": 4,
      "note": 47,
      "start": 293.9173,
      "duration": 3.0503,
      "velocity": 121,
      "chip": "ym2612"
    },
    {
      "channel": 0,
      "note": 98,
      "start": 293.9483,
      "duration": 0.0309,
      "velocity": 114,
      "chip": "ym2612"
    },
    {
      "channel": 1,
      "note": 64,
      "start": 293.9484,
      "duration": 0.2179,
      "velocity": 93,
      "chip": "ym2612"
    },
    {
      "channel": 3,
      "note": 69,
      "start": 293.9486,
      "duration": 0.1091,
      "velocity": 94,
      "chip": "ym2612"
    },
    {
      "channel": 5,
      "note": 76,
      "start": 293.9488,
      "duration": 0.1091,
      "velocity": 94,
      "chip": "ym2612"
    },
    {
      "channel": 0,
      "note": 98,
      "start": 294.0574,
      "duration": 0.0307,
      "velocity": 114,
      "chip": "ym2612"
    },
    {
      "channel": 3,
      "note": 74,
      "start": 294.0576,
      "duration": 0.1088,
      "velocity": 94,
      "chip": "ym2612"
    },
    {
      "channel": 5,
      "note": 78,
      "start": 294.0579,
      "duration": 0.1088,
      "velocity": 94,
      "chip": "ym2612"
    },
    {
      "channel": 0,
      "note": 98,
      "start": 294.1661,
      "duration": 0.0154,
      "velocity": 127,
      "chip": "ym2612"
    },
    {
      "channel": 1,
      "note": 64,
      "start": 294.1663,
      "duration": 0.2178,
      "velocity": 93,
      "chip": "ym2612"
    },
    {
      "channel": 5,
      "note": 81,
      "start": 294.1667,
      "duration": 0.1089,
      "velocity": 94,
      "chip": "ym2612"
    },
    {
      "channel": 0,
      "note": 76,
      "start": 294.1815,
      "duration": 0.0936,
      "velocity": 114,
      "chip": "ym2612"
    },
    {
      "channel": 0,
      "note": 68,
      "start": 294.2751,
      "duration": 0.0309,
      "velocity": 114,
      "chip": "ym2612"
    },
    {
      "channel": 3,
      "note": 76,
      "start": 294.2754,
      "duration": 0.109,
      "velocity": 94,
      "chip": "ym2612"
    },
    {
      "channel": 5,
      "note": 69,
      "start": 294.2756,
      "duration": 0.109,
      "velocity": 94,
      "chip": "ym2612"
    },
    {
      "channel": 0,
      "note": 98,
      "start": 294.384,
      "duration": 0.0309,
      "velocity": 114,
      "chip": "ym2612"
    },
    {
      "channel": 1,
      "note": 64,
      "start": 294.3841,
      "duration": 0.2179,
      "velocity": 93,
      "chip": "ym2612"
    },
    {
      "channel": 3,
      "note": 81,
      "start": 294.3844,
      "duration": 0.1089,
      "velocity": 94,
      "chip": "ym2612"
    },
    {
      "channel": 5,
      "note": 74,
      "start": 294.3846,
      "duration": 0.1089,
      "velocity": 94,
      "chip": "ym2612"
    },
    {
      "channel": 0,
      "note": 98,
      "start": 294.493,
      "duration": 0.0309,
      "velocity": 114,
      "chip": "ym2612"
    },
    {
      "channel": 3,
      "note": 69,
      "start": 294.4932,
      "duration": 0.109,
      "velocity": 94,
      "chip": "ym2612"
    },
    {
      "channel": 0,
      "note": 98,
      "start": 294.6019,
      "duration": 0.1089,
      "velocity": 114,
      "chip": "ym2612"
    },
    {
      "channel": 1,
      "note": 64,
      "start": 294.6021,
      "duration": 0.2178,
      "velocity": 93,
      "chip": "ym2612"
    },
    {
      "channel": 3,
      "note": 81,
      "start": 294.6023,
      "duration": 0.1089,
      "velocity": 94,
      "chip": "ym2612"
    },
    {
      "channel": 5,
      "note": 76,
      "start": 294.6025,
      "duration": 0.1089,
      "velocity": 94,
      "chip": "ym2612"
    },
    {
      "channel": 0,
      "note": 54,
      "start": 294.7109,
      "duration": 0.0309,
      "velocity": 114,
      "chip": "ym2612"
    },
    {
      "channel": 3,
      "note": 71,
      "start": 294.7111,
      "duration": 0.109,
      "velocity": 94,
      "chip": "ym2612"
    },
    {
      "channel": 5,
      "note": 81,
      "start": 294.7114,
      "duration": 0.109,
      "velocity": 94,
      "chip": "ym2612"
    },
    {
      "channel": 0,
      "note": 98,
      "start": 294.8198,
      "duration": 0.0309,
      "velocity": 114,
      "chip": "ym2612"
    },
    {
      "channel": 1,
      "note": 64,
      "start": 294.8199,
      "duration": 0.2179,
      "velocity": 93,
      "chip": "ym2612"
    },
    {
      "channel": 3,
      "note": 74,
      "start": 294.8201,
      "duration": 0.1089,
      "velocity": 94,
      "chip": "ym2612"
    },
    {
      "channel": 5,
      "note": 69,
      "start": 294.8203,
      "duration": 0.1089,
      "velocity": 94,
      "chip": "ym2612"
    },
    {
      "channel": 0,
      "note": 98,
      "start": 294.9287,
      "duration": 0.0309,
      "velocity": 114,
      "chip": "ym2612"
    },
    {
      "channel": 5,
      "note": 81,
      "start": 294.9292,
      "duration": 0.109,
      "velocity": 94,
      "chip": "ym2612"
    },
    {
      "channel": 0,
      "note": 98,
      "start": 295.0377,
      "duration": 0.0154,
      "velocity": 127,
      "chip": "ym2612"
    },
    {
      "channel": 1,
      "note": 64,
      "start": 295.0378,
      "duration": 0.2178,
      "velocity": 93,
      "chip": "ym2612"
    },
    {
      "channel": 3,
      "note": 76,
      "start": 295.038,
      "duration": 0.1089,
      "velocity": 94,
      "chip": "ym2612"
    },
    {
      "channel": 5,
      "note": 71,
      "start": 295.0382,
      "duration": 0.1089,
      "velocity": 94,
      "chip": "ym2612"
    },
    {
      "channel": 0,
      "note": 76,
      "start": 295.053,
      "duration": 0.0936,
      "velocity": 114,
      "chip": "ym2612"
    },
    {
      "channel": 0,
      "note": 68,
      "start": 295.1466,
      "duration": 0.0309,
      "velocity": 114,
      "chip": "ym2612"
    },
    {
      "channel": 5,
      "note": 74,
      "start": 295.1471,
      "duration": 0.109,
      "velocity": 94,
      "chip": "ym2612"
    },
    {
      "channel": 0,
      "note": 98,
      "start": 295.2556,
      "duration": 0.0309,
      "velocity": 114,
      "chip": "ym2612"
    },
    {
      "channel": 1,
      "note": 64,
      "start": 295.2557,
      "duration": 0.2181,
      "velocity": 93,
      "chip": "ym2612"
    },
    {
      "channel": 3,
      "note": 78,
      "start": 295.2559,
      "duration": 0.1088,
      "velocity": 94,
      "chip": "ym2612"
    },
    {
      "channel": 0,
      "note": 98,
      "start": 295.3645,
      "duration": 0.0309,
      "velocity": 114,
      "chip": "ym2612"
    },
    {
      "channel": 3,
      "note": 81,
      "start": 295.3648,
      "duration": 0.1092,
      "velocity": 94,
      "chip": "ym2612"
    },
    {
      "channel": 5,
      "note": 76,
      "start": 295.365,
      "duration": 0.1093,
      "velocity": 94,
      "chip": "ym2612"
    },
    {
      "channel": 0,
      "note": 98,
      "start": 295.4735,
      "duration": 0.1089,
      "velocity": 114,
      "chip": "ym2612"
    },
    {
      "channel": 1,
      "note": 64,
      "start": 295.4738,
      "duration": 0.2177,
      "velocity": 93,
      "chip": "ym2612"
    },
    {
      "channel": 3,
      "note": 69,
      "start": 295.474,
      "duration": 0.1087,
      "velocity": 94,
      "chip": "ym2612"
    },
    {
      "channel": 5,
      "note": 78,
      "start": 295.4742,
      "duration": 0.1087,
      "velocity": 94,
      "chip": "ym2612"
    },
    {
      "channel": 0,
      "note": 54,
      "start": 295.5824,
      "duration": 0.0309,
      "velocity": 114,
      "chip": "ym2612"
    },
    {
      "channel": 3,
      "note": 74,
      "start": 295.5827,
      "duration": 0.1089,
      "velocity": 94,
      "chip": "ym2612"
    },
    {
      "channel": 5,
      "note": 81,
      "start": 295.5829,
      "duration": 0.1089,
      "velocity": 94,
      "chip": "ym2612"
    },
    {
      "channel": 0,
      "note": 98,
      "start": 295.6913,
      "duration": 0.0309,
      "velocity": 114,
      "chip": "ym2612"
    },
    {
      "channel": 1,
      "note": 64,
      "start": 295.6915,
      "duration": 0.2179,
      "velocity": 93,
      "chip": "ym2612"
    },
    {
      "channel": 5,
      "note": 69,
      "start": 295.6919,
      "duration": 0.1089,
      "velocity": 94,
      "chip": "ym2612"
    },
    {
      "channel": 0,
      "note": 98,
      "start": 295.8003,
      "duration": 0.0309,
      "velocity": 114,
      "chip": "ym2612"
    },
    {
      "channel": 3,
      "note": 76,
      "start": 295.8005,
      "duration": 0.109,
      "velocity": 94,
      "chip": "ym2612"
    },
    {
      "channel": 5,
      "note": 74,
      "start": 295.8008,
      "duration": 0.109,
      "velocity": 94,
      "chip": "ym2612"
    },
    {
      "channel": 0,
      "note": 98,
      "start": 295.9092,
      "duration": 0.0154,
      "velocity": 127,
      "chip": "ym2612"
    },
    {
      "channel": 1,
      "note": 64,
      "start": 295.9093,
      "duration": 0.2178,
      "velocity": 93,
      "chip": "ym2612"
    },
    {
      "channel": 3,
      "note": 81,
      "start": 295.9095,
      "duration": 0.1089,
      "velocity": 94,
      "chip": "ym2612"
    },
    {
      "channel": 0,
      "note": 76,
      "start": 295.9246,
      "duration": 0.0936,
      "velocity": 114,
      "chip": "ym2612"
    },
    {
      "channel": 0,
      "note": 68,
      "start": 296.0182,
      "duration": 0.0309,
      "velocity": 114,
      "chip": "ym2612"
    },
    {
      "channel": 3,
      "note": 69,
      "start": 296.0184,
      "duration": 0.109,
      "velocity": 94,
      "chip": "ym2612"
    },
    {
      "channel": 5,
      "note": 76,
      "start": 296.0187,
      "duration": 0.109,
      "velocity": 94,
      "chip": "ym2612"
    },
    {
      "channel": 0,
      "note": 98,
      "start": 296.1271,
      "duration": 0.0309,
      "velocity": 114,
      "chip": "ym2612"
    },
    {
      "channel": 1,
      "note": 64,
      "start": 296.1272,
      "duration": 0.2179,
      "velocity": 93,
      "chip": "ym2612"
    },
    {
      "channel": 3,
      "note": 81,
      "start": 296.1274,
      "duration": 0.1089,
      "velocity": 94,
      "chip": "ym2612"
    },
    {
      "channel": 5,
      "note": 81,
      "start": 296.1276,
      "duration": 0.1089,
      "velocity": 94,
      "chip": "ym2612"
    },
    {
      "channel": 0,
      "note": 98,
      "start": 296.236,
      "duration": 0.0309,
      "velocity": 114,
      "chip": "ym2612"
    },
    {
      "channel": 3,
      "note": 71,
      "start": 296.2363,
      "duration": 0.109,
      "velocity": 94,
      "chip": "ym2612"
    },
    {
      "channel": 5,
      "note": 69,
      "start": 296.2365,
      "duration": 0.109,
      "velocity": 94,
      "chip": "ym2612"
    },
    {
      "channel": 0,
      "note": 98,
      "start": 296.345,
      "duration": 0.1089,
      "velocity": 127,
      "chip": "ym2612"
    },
    {
      "channel": 1,
      "note": 64,
      "start": 296.3451,
      "duration": 0.2178,
      "velocity": 93,
      "chip": "ym2612"
    },
    {
      "channel": 3,
      "note": 74,
      "start": 296.3453,
      "duration": 0.1089,
      "velocity": 94,
      "chip": "ym2612"
    },
    {
      "channel": 5,
      "note": 81,
      "start": 296.3456,
      "duration": 0.1088,
      "velocity": 94,
      "chip": "ym2612"
    },
    {
      "channel": 0,
      "note": 54,
      "start": 296.4539,
      "duration": 0.0154,
      "velocity": 127,
      "chip": "ym2612"
    },
    {
      "channel": 5,
      "note": 71,
      "start": 296.4544,
      "duration": 0.109,
      "velocity": 94,
      "chip": "ym2612"
    },
    {
      "channel": 0,
      "note": 76,
      "start": 296.4693,
      "duration": 0.0936,
      "velocity": 114,
      "chip": "ym2612"
    },
    {
      "channel": 0,
      "note": 68,
      "start": 296.5629,
      "duration": 0.0309,
      "velocity": 114,
      "chip": "ym2612"
    },
    {
      "channel": 1,
      "note": 64,
      "start": 296.563,
      "duration": 0.2179,
      "velocity": 93,
      "chip": "ym2612"
    },
    {
      "channel": 3,
      "note": 76,
      "start": 296.5632,
      "duration": 0.1089,
      "velocity": 94,
      "chip": "ym2612"
    },
    {
      "channel": 5,
      "note": 74,
      "start": 296.5634,
      "duration": 0.1088,
      "velocity": 94,
      "chip": "ym2612"
    },
    {
      "channel": 0,
      "note": 98,
      "start": 296.6718,
      "duration": 0.0309,
      "velocity": 114,
      "chip": "ym2612"
    },
    {
      "channel": 0,
      "note": 98,
      "start": 296.7808,
      "duration": 0.1089,
      "velocity": 114,
      "chip": "ym2612"
    },
    {
      "channel": 1,
      "note": 64,
      "start": 296.7809,
      "duration": 0.2178,
      "velocity": 93,
      "chip": "ym2612"
    },
    {
      "channel": 2,
      "note": 52,
      "start": 296.781,
      "duration": 3.0504,
      "velocity": 121,
      "chip": "ym2612"
    },
    {
      "channel": 3,
      "note": 78,
      "start": 296.7812,
      "duration": 0.1087,
      "velocity": 94,
      "chip": "ym2612"
    },
    {
      "channel": 5,
      "note": 76,
      "start": 296.7814,
      "duration": 0.1088,
      "velocity": 94,
      "chip": "ym2612"
    },
    {
      "channel": 0,
      "note": 54,
      "start": 296.8897,
      "duration": 0.0309,
      "velocity": 114,
      "chip": "ym2612"
    },
    {
      "channel": 3,
      "note": 81,
      "start": 296.89,
      "duration": 0.109,
      "velocity": 94,
      "chip": "ym2612"
    },
    {
      "channel": 5,
      "note": 78,
      "start": 296.8902,
      "duration": 0.1089,
      "velocity": 94,
      "chip": "ym2612"
    },
    {
      "channel": 4,
      "note": 52,
      "start": 296.9676,
      "duration": 3.0504,
      "velocity": 121,
      "chip": "ym2612"
    },
    {
      "channel": 0,
      "note": 98,
      "start": 296.9986,
      "duration": 0.0309,
      "velocity": 114,
      "chip": "ym2612"
    },
    {
      "channel": 1,
      "note": 67,
      "start": 296.9987,
      "duration": 0.2179,
      "velocity": 93,
      "chip": "ym2612"
    },
    {
      "channel": 3,
      "note": 69,
      "start": 296.9989,
      "duration": 0.1089,
      "velocity": 94,
      "chip": "ym2612"
    },
    {
      "channel": 5,
      "note": 81,
      "start": 296.9992,
      "duration": 0.1089,
      "velocity": 94,
      "chip": "ym2612"
    },
    {
      "channel": 0,
      "note": 98,
      "start": 297.1076,
      "duration": 0.0309,
      "velocity": 114,
      "chip": "ym2612"
    },
    {
      "channel": 3,
      "note": 74,
      "start": 297.1078,
      "duration": 0.109,
      "velocity": 94,
      "chip": "ym2612"
    },
    {
      "channel": 5,
      "note": 69,
      "start": 297.108,
      "duration": 0.109,
      "velocity": 94,
      "chip": "ym2612"
    },
    {
      "channel": 0,
      "note": 98,
      "start": 297.2165,
      "duration": 0.0154,
      "velocity": 127,
      "chip": "ym2612"
    },
    {
      "channel": 1,
      "note": 67,
      "start": 297.2166,
      "duration": 0.2178,
      "velocity": 93,
      "chip": "ym2612"
    },
    {
      "channel": 5,
      "note": 74,
      "start": 297.2171,
      "duration": 0.1089,
      "velocity": 94,
      "chip": "ym2612"
    },
    {
      "channel": 0,
      "note": 76,
      "start": 297.2319,
      "duration": 0.0936,
      "velocity": 114,
      "chip": "ym2612"
    },
    {
      "channel": 0,
      "note": 68,
      "start": 297.3254,
      "duration": 0.0309,
      "velocity": 114,
      "chip": "ym2612"
    },
    {
      "channel": 3,
      "note": 76,
      "start": 297.3257,
      "duration": 0.109,
      "velocity": 94,
      "chip": "ym2612"
    },
    {
      "channel": 0,
      "note": 98,
      "start": 297.4344,
      "duration": 0.0309,
      "velocity": 114,
      "chip": "ym2612"
    },
    {
      "channel": 1,
      "note": 67,
      "start": 297.4345,
      "duration": 0.2179,
      "velocity": 93,
      "chip": "ym2612"
    },
    {
      "channel": 3,
      "note": 81,
      "start": 297.4347,
      "duration": 0.1089,
      "velocity": 94,
      "chip": "ym2612"
    },
    {
      "channel": 5,
      "note": 76,
      "start": 297.4349,
      "duration": 0.1089,
      "velocity": 94,
      "chip": "ym2612"
    },
    {
      "channel": 0,
      "note": 98,
      "start": 297.5433,
      "duration": 0.0309,
      "velocity": 114,
      "chip": "ym2612"
    },
    {
      "channel": 3,
      "note": 69,
      "start": 297.5436,
      "duration": 0.109,
      "velocity": 94,
      "chip": "ym2612"
    },
    {
      "channel": 5,
      "note": 81,
      "start": 297.5438,
      "duration": 0.109,
      "velocity": 94,
      "chip": "ym2612"
    },
    {
      "channel": 0,
      "note": 98,
      "start": 297.6523,
      "duration": 0.1089,
      "velocity": 114,
      "chip": "ym2612"
    },
    {
      "channel": 1,
      "note": 67,
      "start": 297.6524,
      "duration": 0.2178,
      "velocity": 93,
      "chip": "ym2612"
    },
    {
      "channel": 3,
      "note": 81,
      "start": 297.6526,
      "duration": 0.1089,
      "velocity": 94,
      "chip": "ym2612"
    },
    {
      "channel": 5,
      "note": 69,
      "start": 297.6529,
      "duration": 0.1089,
      "velocity": 94,
      "chip": "ym2612"
    },
    {
      "channel": 0,
      "note": 54,
      "start": 297.7612,
      "duration": 0.0309,
      "velocity": 114,
      "chip": "ym2612"
    },
    {
      "channel": 3,
      "note": 71,
      "start": 297.7615,
      "duration": 0.109,
      "velocity": 94,
      "chip": "ym2612"
    },
    {
      "channel": 5,
      "note": 81,
      "start": 297.7617,
      "duration": 0.109,
      "velocity": 94,
      "chip": "ym2612"
    },
    {
      "channel": 0,
      "note": 98,
      "start": 297.8702,
      "duration": 0.0309,
      "velocity": 114,
      "chip": "ym2612"
    },
    {
      "channel": 1,
      "note": 67,
      "start": 297.8703,
      "duration": 0.2179,
      "velocity": 93,
      "chip": "ym2612"
    },
    {
      "channel": 3,
      "note": 74,
      "start": 297.8705,
      "duration": 0.1089,
      "velocity": 94,
      "chip": "ym2612"
    },
    {
      "channel": 5,
      "note": 71,
      "start": 297.8707,
      "duration": 0.1088,
      "velocity": 94,
      "chip": "ym2612"
    },
    {
      "channel": 0,
      "note": 98,
      "start": 297.9791,
      "duration": 0.0309,
      "velocity": 114,
      "chip": "ym2612"
    },
    {
      "channel": 5,
      "note": 74,
      "start": 297.9796,
      "duration": 0.109,
      "velocity": 94,
      "chip": "ym2612"
    },
    {
      "channel": 0,
      "note": 98,
      "start": 298.088,
      "duration": 0.0154,
      "velocity": 127,
      "chip": "ym2612"
    },
    {
      "channel": 1,
      "note": 67,
      "start": 298.0882,
      "duration": 0.2178,
      "velocity": 93,
      "chip": "ym2612"
    },
    {
      "channel": 3,
      "note": 76,
      "start": 298.0884,
      "duration": 0.1089,
      "velocity": 94,
      "chip": "ym2612"
    },
    {
      "channel": 0,
      "note": 76,
      "start": 298.1034,
      "duration": 0.0936,
      "velocity": 114,
      "chip": "ym2612"
    },
    {
      "channel": 0,
      "note": 68,
      "start": 298.197,
      "duration": 0.0309,
      "velocity": 114,
      "chip": "ym2612"
    },
    {
      "channel": 5,
      "note": 76,
      "start": 298.1975,
      "duration": 0.1091,
      "velocity": 94,
      "chip": "ym2612"
    },
    {
      "channel": 0,
      "note": 98,
      "start": 298.3059,
      "duration": 0.0309,
      "velocity": 114,
      "chip": "ym2612"
    },
    {
      "channel": 1,
      "note": 67,
      "start": 298.306,
      "duration": 0.2181,
      "velocity": 93,
      "chip": "ym2612"
    },
    {
      "channel": 3,
      "note": 78,
      "start": 298.3063,
      "duration": 0.1088,
      "velocity": 94,
      "chip": "ym2612"
    },
    {
      "channel": 5,
      "note": 78,
      "start": 298.3066,
      "duration": 0.1088,
      "velocity": 94,
      "chip": "ym2612"
    },
    {
      "channel": 0,
      "note": 98,
      "start": 298.4149,
      "duration": 0.0309,
      "velocity": 114,
      "chip": "ym2612"
    },
    {
      "channel": 3,
      "note": 81,
      "start": 298.4151,
      "duration": 0.1092,
      "velocity": 94,
      "chip": "ym2612"
    },
    {
      "channel": 5,
      "note": 81,
      "start": 298.4154,
      "duration": 0.1092,
      "velocity": 94,
      "chip": "ym2612"
    },
    {
      "channel": 0,
      "note": 98,
      "start": 298.524,
      "duration": 0.1088,
      "velocity": 114,
      "chip": "ym2612"
    },
    {
      "channel": 1,
      "note": 67,
      "start": 298.5241,
      "duration": 0.2177,
      "velocity": 93,
      "chip": "ym2612"
    },
    {
      "channel": 3,
      "note": 69,
      "start": 298.5243,
      "duration": 0.1087,
      "velocity": 94,
      "chip": "ym2612"
    },
    {
      "channel": 5,
      "note": 69,
      "start": 298.5246,
      "duration": 0.1087,
      "velocity": 94,
      "chip": "ym2612"
    },
    {
      "channel": 0,
      "note": 54,
      "start": 298.6327,
      "duration": 0.0309,
      "velocity": 114,
      "chip": "ym2612"
    },
    {
      "channel": 3,
      "note": 74,
      "start": 298.633,
      "duration": 0.109,
      "velocity": 94,
      "chip": "ym2612"
    },
    {
      "channel": 5,
      "note": 74,
      "start": 298.6333,
      "duration": 0.1089,
      "velocity": 94,
      "chip": "ym2612"
    },
    {
      "channel": 0,
      "note": 98,
      "start": 298.7417,
      "duration": 0.0309,
      "velocity": 114,
      "chip": "ym2612"
    },
    {
      "channel": 1,
      "note": 67,
      "start": 298.7418,
      "duration": 0.2179,
      "velocity": 93,
      "chip": "ym2612"
    },
    {
      "channel": 0,
      "note": 98,
      "start": 298.8506,
      "duration": 0.0309,
      "velocity": 114,
      "chip": "ym2612"
    },
    {
      "channel": 3,
      "note": 76,
      "start": 298.8509,
      "duration": 0.109,
      "velocity": 94,
      "chip": "ym2612"
    },
    {
      "channel": 5,
      "note": 76,
      "start": 298.8511,
      "duration": 0.109,
      "velocity": 94,
      "chip": "ym2612"
    },
    {
      "channel": 0,
      "note": 98,
      "start": 298.9596,
      "duration": 0.0154,
      "velocity": 127,
      "chip": "ym2612"
    },
    {
      "channel": 1,
      "note": 67,
      "start": 298.9597,
      "duration": 0.2179,
      "velocity": 93,
      "chip": "ym2612"
    },
    {
      "channel": 3,
      "note": 81,
      "start": 298.9599,
      "duration": 0.1089,
      "velocity": 94,
      "chip": "ym2612"
    },
    {
      "channel": 5,
      "note": 81,
      "start": 298.9602,
      "duration": 0.1089,
      "velocity": 94,
      "chip": "ym2612"
    },
    {
      "channel": 0,
      "note": 76,
      "start": 298.9749,
      "duration": 0.0936,
      "velocity": 114,
      "chip": "ym2612"
    },
    {
      "channel": 0,
      "note": 68,
      "start": 299.0685,
      "duration": 0.0309,
      "velocity": 114,
      "chip": "ym2612"
    },
    {
      "channel": 3,
      "note": 69,
      "start": 299.0688,
      "duration": 0.109,
      "velocity": 94,
      "chip": "ym2612"
    },
    {
      "channel": 5,
      "note": 69,
      "start": 299.069,
      "duration": 0.109,
      "velocity": 94,
      "chip": "ym2612"
    },
    {
      "channel": 0,
      "note": 98,
      "start": 299.1775,
      "duration": 0.0309,
      "velocity": 114,
      "chip": "ym2612"
    },
    {
      "channel": 1,
      "note": 67,
      "start": 299.1776,
      "duration": 0.2179,
      "velocity": 93,
      "chip": "ym2612"
    },
    {
      "channel": 3,
      "note": 81,
      "start": 299.1778,
      "duration": 0.1089,
      "velocity": 94,
      "chip": "ym2612"
    },
    {
      "channel": 5,
      "note": 81,
      "start": 299.178,
      "duration": 0.1089,
      "velocity": 94,
      "chip": "ym2612"
    },
    {
      "channel": 0,
      "note": 98,
      "start": 299.2864,
      "duration": 0.0309,
      "velocity": 114,
      "chip": "ym2612"
    },
    {
      "channel": 3,
      "note": 71,
      "start": 299.2867,
      "duration": 0.109,
      "velocity": 94,
      "chip": "ym2612"
    },
    {
      "channel": 5,
      "note": 71,
      "start": 299.2869,
      "duration": 0.109,
      "velocity": 94,
      "chip": "ym2612"
    },
    {
      "channel": 0,
      "note": 98,
      "start": 299.3954,
      "duration": 0.1089,
      "velocity": 127,
      "chip": "ym2612"
    },
    {
      "channel": 1,
      "note": 67,
      "start": 299.3955,
      "duration": 0.2179,
      "velocity": 93,
      "chip": "ym2612"
    },
    {
      "channel": 3,
      "note": 74,
      "start": 299.3957,
      "duration": 0.1089,
      "velocity": 94,
      "chip": "ym2612"
    },
    {
      "channel": 5,
      "note": 74,
      "start": 299.3959,
      "duration": 0.1088,
      "velocity": 94,
      "chip": "ym2612"
    },
    {
      "channel": 0,
      "note": 54,
      "start": 299.5043,
      "duration": 0.0154,
      "velocity": 127,
      "chip": "ym2612"
    },
    {
      "channel": 0,
      "note": 76,
      "start": 299.5196,
      "duration": 0.0936,
      "velocity": 114,
      "chip": "ym2612"
    },
    {
      "channel": 0,
      "note": 68,
      "start": 299.6132,
      "duration": 0.0309,
      "velocity": 114,
      "chip": "ym2612"
    },
    {
      "channel": 1,
      "note": 67,
      "start": 299.6134,
      "duration": 0.2179,
      "velocity": 93,
      "chip": "ym2612"
    },
    {
      "channel": 3,
      "note": 76,
      "start": 299.6135,
      "duration": 0.1089,
      "velocity": 94,
      "chip": "ym2612"
    },
    {
      "channel": 5,
      "note": 76,
      "start": 299.6138,
      "duration": 0.1089,
      "velocity": 94,
      "chip": "ym2612"
    },
    {
      "channel": 0,
      "note": 98,
      "start": 299.7222,
      "duration": 0.0309,
      "velocity": 114,
      "chip": "ym2612"
    },
    {
      "channel": 5,
      "note": 78,
      "start": 299.7227,
      "duration": 0.1091,
      "velocity": 94,
      "chip": "ym2612"
    },
    {
      "channel": 0,
      "note": 98,
      "start": 299.8311,
      "duration": 0.1089,
      "velocity": 114,
      "chip": "ym2612"
    },
    {
      "channel": 1,
      "note": 67,
      "start": 299.8313,
      "duration": 0.2178,
      "velocity": 93,
      "chip": "ym2612"
    },
    {
      "channel": 2,
      "note": 43,
      "start": 299.8314,
      "duration": 3.0503,
      "velocity": 121,
      "chip": "ym2612"
    },
    {
      "channel": 3,
      "note": 78,
      "start": 299.8316,
      "duration": 0.1089,
      "velocity": 94,
      "chip": "ym2612"
    },
    {
      "channel": 5,
      "note": 81,
      "start": 299.8318,
      "duration": 0.1089,
      "velocity": 94,
      "chip": "ym2612"
    },
    {
      "channel": 0,
      "note": 54,
      "start": 299.94,
      "duration": 0.0309,
      "velocity": 114,
      "chip": "ym2612"
    },
    {
      "channel": 3,
      "note": 81,
      "start": 299.9405,
      "duration": 0.1088,
      "velocity": 94,
      "chip": "ym2612"
    },
    {
      "channel": 5,
      "note": 69,
      "start": 299.9407,
      "duration": 0.1088,
      "velocity": 94,
      "chip": "ym2612"
    },
    {
      "channel": 4,
      "note": 43,
      "start": 300.018,
      "duration": 3.0504,
      "velocity": 121,
      "chip": "ym2612"
    },
    {
      "channel": 0,
      "note": 98,
      "start": 300.049,
      "duration": 0.0309,
      "velocity": 114,
      "chip": "ym2612"
    },
    {
      "channel": 1,
      "note": 62,
      "start": 300.0491,
      "duration": 0.2179,
      "velocity": 93,
      "chip": "ym2612"
    },
    {
      "channel": 3,
      "note": 69,
      "start": 300.0493,
      "duration": 0.1089,
      "velocity": 94,
      "chip": "ym2612"
    },
    {
      "channel": 5,
      "note": 74,
      "start": 300.0495,
      "duration": 0.1089,
      "velocity": 94,
      "chip": "ym2612"
    },
    {
      "channel": 0,
      "note": 98,
      "start": 300.1579,
      "duration": 0.0309,
      "velocity": 114,
      "chip": "ym2612"
    },
    {
      "channel": 3,
      "note": 74,
      "start": 300.1582,
      "duration": 0.109,
      "velocity": 94,
      "chip": "ym2612"
    },
    {
      "channel": 0,
      "note": 98,
      "start": 300.2669,
      "duration": 0.0154,
      "velocity": 127,
      "chip": "ym2612"
    },
    {
      "channel": 1,
      "note": 62,
      "start": 300.267,
      "duration": 0.2179,
      "velocity": 93,
      "chip": "ym2612"
    },
    {
      "channel": 5,
      "note": 76,
      "start": 300.2674,
      "duration": 0.1089,
      "velocity": 94,
      "chip": "ym2612"
    },
    {
      "channel": 0,
      "note": 76,
      "start": 300.2822,
      "duration": 0.0936,
      "velocity": 114,
      "chip": "ym2612"
    },
    {
      "channel": 0,
      "note": 68,
      "start": 300.3758,
      "duration": 0.0309,
      "velocity": 114,
      "chip": "ym2612"
    },
    {
      "channel": 3,
      "note": 76,
      "start": 300.3761,
      "duration": 0.109,
      "velocity": 94,
      "chip": "ym2612"
    },
    {
      "channel": 5,
      "note": 81,
      "start": 300.3763,
      "duration": 0.109,
      "velocity": 94,
      "chip": "ym2612"
    },
    {
      "channel": 0,
      "note": 98,
      "start": 300.4848,
      "duration": 0.0309,
      "velocity": 114,
      "chip": "ym2612"
    },
    {
      "channel": 1,
      "note": 62,
      "start": 300.4849,
      "duration": 0.2179,
      "velocity": 93,
      "chip": "ym2612"
    },
    {
      "channel": 3,
      "note": 81,
      "start": 300.4851,
      "duration": 0.1089,
      "velocity": 94,
      "chip": "ym2612"
    },
    {
      "channel": 5,
      "note": 69,
      "start": 300.4853,
      "duration": 0.1089,
      "velocity": 94,
      "chip": "ym2612"
    },
    {
      "channel": 0,
      "note": 98,
      "start": 300.5937,
      "duration": 0.0309,
      "velocity": 114,
      "chip": "ym2612"
    },
    {
      "channel": 3,
      "note": 69,
      "start": 300.594,
      "duration": 0.109,
      "velocity": 94,
      "chip": "ym2612"
    },
    {
      "channel": 5,
      "note": 81,
      "start": 300.5942,
      "duration": 0.109,
      "velocity": 94,
      "chip": "ym2612"
    },
    {
      "channel": 0,
      "note": 98,
      "start": 300.7027,
      "duration": 0.1089,
      "velocity": 114,
      "chip": "ym2612"
    },
    {
      "channel": 1,
      "note": 62,
      "start": 300.7028,
      "duration": 0.2178,
      "velocity": 93,
      "chip": "ym2612"
    },
    {
      "channel": 3,
      "note": 81,
      "start": 300.703,
      "duration": 0.1089,
      "velocity": 94,
      "chip": "ym2612"
    },
    {
      "channel": 5,
      "note": 71,
      "start": 300.7032,
      "duration": 0.1089,
      "velocity": 94,
      "chip": "ym2612"
    },
    {
      "channel": 0,
      "note": 54,
      "start": 300.8116,
      "duration": 0.0309,
      "velocity": 114,
      "chip": "ym2612"
    },
    {
      "channel": 3,
      "note": 71,
      "start": 300.8119,
      "duration": 0.109,
      "velocity": 94,
      "chip": "ym2612"
    },
    {
      "channel": 5,
      "note": 74,
      "start": 300.8121,
      "duration": 0.109,
      "velocity": 94,
      "chip": "ym2612"
    },
    {
      "channel": 0,
      "note": 98,
      "start": 300.9205,
      "duration": 0.0309,
      "velocity": 114,
      "chip": "ym2612"
    },
    {
      "channel": 1,
      "note": 62,
      "start": 300.9206,
      "duration": 0.2179,
      "velocity": 93,
      "chip": "ym2612"
    },
    {
      "channel": 3,
      "note": 74,
      "start": 300.9208,
      "duration": 0.1089,
      "velocity": 94,
      "chip": "ym2612"
    },
    {
      "channel": 0,
      "note": 98,
      "start": 301.0295,
      "duration": 0.0309,
      "velocity": 114,
      "chip": "ym2612"
    },
    {
      "channel": 5,
      "note": 76,
      "start": 301.0299,
      "duration": 0.1091,
      "velocity": 94,
      "chip": "ym2612"
    },
    {
      "channel": 0,
      "note": 98,
      "start": 301.1384,
      "duration": 0.0154,
      "velocity": 127,
      "chip": "ym2612"
    },
    {
      "channel": 1,
      "note": 62,
      "start": 301.1385,
      "duration": 0.2178,
      "velocity": 93,
      "chip": "ym2612"
    },
    {
      "channel": 3,
      "note": 76,
      "start": 301.1387,
      "duration": 0.1089,
      "velocity": 94,
      "chip": "ym2612"
    },
    {
      "channel": 5,
      "note": 78,
      "start": 301.139,
      "duration": 0.1088,
      "velocity": 94,
      "chip": "ym2612"
    },
    {
      "channel": 0,
      "note": 76,
      "start": 301.1538,
      "duration": 0.0936,
      "velocity": 114,
      "chip": "ym2612"
    },
    {
      "channel": 0,
      "note": 68,
      "start": 301.2473,
      "duration": 0.0309,
      "velocity": 114,
      "chip": "ym2612"
    },
    {
      "channel": 5,
      "note": 81,
      "start": 301.2478,
      "duration": 0.1092,
      "velocity": 94,
      "chip": "ym2612"
    },
    {
      "channel": 0,
      "note": 98,
      "start": 301.3563,
      "duration": 0.0309,
      "velocity": 114,
      "chip": "ym2612"
    },
    {
      "channel": 1,
      "note": 62,
      "start": 301.3564,
      "duration": 0.2179,
      "velocity": 93,
      "chip": "ym2612"
    },
    {
      "channel": 3,
      "note": 78,
      "start": 301.3567,
      "duration": 0.1088,
      "velocity": 94,
      "chip": "ym2612"
    },
    {
      "channel": 5,
      "note": 69,
      "start": 301.3571,
      "duration": 0.1087,
      "velocity": 94,
      "chip": "ym2612"
    },
    {
      "channel": 0,
      "note": 98,
      "start": 301.4652,
      "duration": 0.0309,
      "velocity": 114,
      "chip": "ym2612"
    },
    {
      "channel": 3,
      "note": 81,
      "start": 301.4655,
      "duration": 0.109,
      "velocity": 94,
      "chip": "ym2612"
    },
    {
      "channel": 5,
      "note": 74,
      "start": 301.4657,
      "duration": 0.109,
      "velocity": 94,
      "chip": "ym2612"
    },
    {
      "channel": 0,
      "note": 98,
      "start": 301.5742,
      "duration": 0.1089,
      "velocity": 114,
      "chip": "ym2612"
    },
    {
      "channel": 1,
      "note": 62,
      "start": 301.5743,
      "duration": 0.2178,
      "velocity": 93,
      "chip": "ym2612"
    },
    {
      "channel": 3,
      "note": 69,
      "start": 301.5745,
      "duration": 0.1089,
      "velocity": 94,
      "chip": "ym2612"
    },
    {
      "channel": 0,
      "note": 54,
      "start": 301.6831,
      "duration": 0.0309,
      "velocity": 114,
      "chip": "ym2612"
    },
    {
      "channel": 3,
      "note": 74,
      "start": 301.6834,
      "duration": 0.109,
      "velocity": 94,
      "chip": "ym2612"
    },
    {
      "channel": 5,
      "note": 76,
      "start": 301.6836,
      "duration": 0.109,
      "velocity": 94,
      "chip": "ym2612"
    },
    {
      "channel": 0,
      "note": 98,
      "start": 301.7921,
      "duration": 0.0309,
      "velocity": 114,
      "chip": "ym2612"
    },
    {
      "channel": 1,
      "note": 62,
      "start": 301.7922,
      "duration": 0.2179,
      "velocity": 93,
      "chip": "ym2612"
    },
    {
      "channel": 5,
      "note": 81,
      "start": 301.7926,
      "duration": 0.1089,
      "velocity": 94,
      "chip": "ym2612"
    },
    {
      "channel": 0,
      "note": 98,
      "start": 301.901,
      "duration": 0.0309,
      "velocity": 114,
      "chip": "ym2612"
    },
    {
      "channel": 3,
      "note": 76,
      "start": 301.9013,
      "duration": 0.109,
      "velocity": 94,
      "chip": "ym2612"
    },
    {
      "channel": 5,
      "note": 69,
      "start": 301.9015,
      "duration": 0.109,
      "velocity": 94,
      "chip": "ym2612"
    },
    {
      "channel": 0,
      "note": 98,
      "start": 302.0099,
      "duration": 0.0154,
      "velocity": 127,
      "chip": "ym2612"
    },
    {
      "channel": 1,
      "note": 62,
      "start": 302.0101,
      "duration": 0.2178,
      "velocity": 93,
      "chip": "ym2612"
    },
    {
      "channel": 3,
      "note": 81,
      "start": 302.0103,
      "duration": 0.1089,
      "velocity": 94,
      "chip": "ym2612"
    },
    {
      "channel": 5,
      "note": 81,
      "start": 302.0105,
      "duration": 0.1089,
      "velocity": 94,
      "chip": "ym2612"
    },
    {
      "channel": 0,
      "note": 76,
      "start": 302.0253,
      "duration": 0.0936,
      "velocity": 114,
      "chip": "ym2612"
    },
    {
      "channel": 0,
      "note": 68,
      "start": 302.1189,
      "duration": 0.0309,
      "velocity": 114,
      "chip": "ym2612"
    },
    {
      "channel": 3,
      "note": 69,
      "start": 302.1192,
      "duration": 0.109,
      "velocity": 94,
      "chip": "ym2612"
    },
    {
      "channel": 5,
      "note": 71,
      "start": 302.1194,
      "duration": 0.109,
      "velocity": 94,
      "chip": "ym2612"
    },
    {
      "channel": 0,
      "note": 98,
      "start": 302.2278,
      "duration": 0.0309,
      "velocity": 114,
      "chip": "ym2612"
    },
    {
      "channel": 1,
      "note": 62,
      "start": 302.2279,
      "duration": 0.2179,
      "velocity": 93,
      "chip": "ym2612"
    },
    {
      "channel": 3,
      "note": 81,
      "start": 302.2281,
      "duration": 0.1089,
      "velocity": 94,
      "chip": "ym2612"
    },
    {
      "channel": 5,
      "note": 74,
      "start": 302.2284,
      "duration": 0.1089,
      "velocity": 94,
      "chip": "ym2612"
    },
    {
      "channel": 0,
      "note": 98,
      "start": 302.3368,
      "duration": 0.0309,
      "velocity": 114,
      "chip": "ym2612"
    },
    {
      "channel": 3,
      "note": 71,
      "start": 302.337,
      "duration": 0.109,
      "velocity": 94,
      "chip": "ym2612"
    },
    {
      "channel": 0,
      "note": 98,
      "start": 302.4457,
      "duration": 0.1089,
      "velocity": 127,
      "chip": "ym2612"
    },
    {
      "channel": 1,
      "note": 62,
      "start": 302.4459,
      "duration": 0.2178,
      "velocity": 93,
      "chip": "ym2612"
    },
    {
      "channel": 3,
      "note": 74,
      "start": 302.4461,
      "duration": 0.1089,
      "velocity": 94,
      "chip": "ym2612"
    },
    {
      "channel": 5,
      "note": 76,
      "start": 302.4463,
      "duration": 0.1089,
      "velocity": 94,
      "chip": "ym2612"
    },
    {
      "channel": 0,
      "note": 54,
      "start": 302.5546,
      "duration": 0.0154,
      "velocity": 127,
      "chip": "ym2612"
    },
    {
      "channel": 5,
      "note": 78,
      "start": 302.5552,
      "duration": 0.109,
      "velocity": 94,
      "chip": "ym2612"
    },
    {
      "channel": 0,
      "note": 76,
      "start": 302.57,
      "duration": 0.0936,
      "velocity": 114,
      "chip": "ym2612"
    },
    {
      "channel": 0,
      "note": 68,
      "start": 302.6636,
      "duration": 0.0309,
      "velocity": 114,
      "chip": "ym2612"
    },
    {
      "channel": 1,
      "note": 62,
      "start": 302.6637,
      "duration": 0.2179,
      "velocity": 93,
      "chip": "ym2612"
    },
    {
      "channel": 3,
      "note": 76,
      "start": 302.6639,
      "duration": 0.1089,
      "velocity": 94,
      "chip": "ym2612"
    },
    {
      "channel": 5,
      "note": 81,
      "start": 302.6641,
      "duration": 0.1089,
      "velocity": 94,
      "chip": "ym2612"
    },
    {
      "channel": 0,
      "note": 98,
      "start": 302.7725,
      "duration": 0.0309,
      "velocity": 114,
      "chip": "ym2612"
    },
    {
      "channel": 5,
      "note": 69,
      "start": 302.773,
      "duration": 0.1092,
      "velocity": 94,
      "chip": "ym2612"
    },
    {
      "channel": 0,
      "note": 98,
      "start": 302.8815,
      "duration": 0.1091,
      "velocity": 114,
      "chip": "ym2612"
    },
    {
      "channel": 1,
      "note": 62,
      "start": 302.8816,
      "duration": 0.2178,
      "velocity": 93,
      "chip": "ym2612"
    },
    {
      "channel": 2,
      "note": 50,
      "start": 302.8818,
      "duration": 3.0503,
      "velocity": 121,
      "chip": "ym2612"
    },
    {
      "channel": 3,
      "note": 78,
      "start": 302.8819,
      "duration": 0.1089,
      "velocity": 94,
      "chip": "ym2612"
    },
    {
      "channel": 5,
      "note": 74,
      "start": 302.8822,
      "duration": 0.1089,
      "velocity": 94,
      "chip": "ym2612"
    },
    {
      "channel": 0,
      "note": 54,
      "start": 302.9906,
      "duration": 0.0307,
      "velocity": 114,
      "chip": "ym2612"
    },
    {
      "channel": 3,
      "note": 81,
      "start": 302.9909,
      "duration": 0.1088,
      "velocity": 94,
      "chip": "ym2612"
    },
    {
      "channel": 4,
      "note": 50,
      "start": 303.0683,
      "duration": 3.0504,
      "velocity": 121,
      "chip": "ym2612"
    },
    {
      "channel": 0,
      "note": 98,
      "start": 303.0994,
      "duration": 0.0309,
      "velocity": 114,
      "chip": "ym2612"
    },
    {
      "channel": 1,
      "note": 59,
      "start": 303.0995,
      "duration": 0.2179,
      "velocity": 93,
      "chip": "ym2612"
    },
    {
      "channel": 3,
      "note": 69,
      "start": 303.0997,
      "duration": 0.1089,
      "velocity": 94,
      "chip": "ym2612"
    },
    {
      "channel": 5,
      "note": 76,
      "start": 303.0999,
      "duration": 0.1089,
      "velocity": 94,
      "chip": "ym2612"
    },
    {
      "channel": 0,
      "note": 98,
      "start": 303.2083,
      "duration": 0.0309,
      "velocity": 114,
      "chip": "ym2612"
    },
    {
      "channel": 3,
      "note": 74,
      "start": 303.2086,
      "duration": 0.109,
      "velocity": 94,
      "chip": "ym2612"
    },
    {
      "channel": 5,
      "note": 81,
      "start": 303.2088,
      "duration": 0.109,
      "velocity": 94,
      "chip": "ym2612"
    },
    {
      "channel": 0,
      "note": 98,
      "start": 303.3172,
      "duration": 0.0154,
      "velocity": 127,
      "chip": "ym2612"
    },
    {
      "channel": 1,
      "note": 59,
      "start": 303.3174,
      "duration": 0.2179,
      "velocity": 93,
      "chip": "ym2612"
    },
    {
      "channel": 5,
      "note": 69,
      "start": 303.3178,
      "duration": 0.1089,
      "velocity": 94,
      "chip": "ym2612"
    },
    {
      "channel": 0,
      "note": 76,
      "start": 303.3326,
      "duration": 0.0936,
      "velocity": 114,
      "chip": "ym2612"
    },
    {
      "channel": 0,
      "note": 68,
      "start": 303.4262,
      "duration": 0.031,
      "velocity": 114,
      "chip": "ym2612"
    },
    {
      "channel": 3,
      "note": 76,
      "start": 303.4265,
      "duration": 0.109,
      "velocity": 94,
      "chip": "ym2612"
    },
    {
      "channel": 5,
      "note": 81,
      "start": 303.4267,
      "duration": 0.109,
      "velocity": 94,
      "chip": "ym2612"
    },
    {
      "channel": 0,
      "note": 98,
      "start": 303.5351,
      "duration": 0.0309,
      "velocity": 114,
      "chip": "ym2612"
    },
    {
      "channel": 1,
      "note": 59,
      "start": 303.5352,
      "duration": 0.2179,
      "velocity": 93,
      "chip": "ym2612"
    },
    {
      "channel": 3,
      "note": 81,
      "start": 303.5354,
      "duration": 0.1089,
      "velocity": 94,
      "chip": "ym2612"
    },
    {
      "channel": 5,
      "note": 71,
      "start": 303.5357,
      "duration": 0.1089,
      "velocity": 94,
      "chip": "ym2612"
    },
    {
      "channel": 0,
      "note": 98,
      "start": 303.6441,
      "duration": 0.0309,
      "velocity": 114,
      "chip": "ym2612"
    },
    {
      "channel": 3,
      "note": 69,
      "start": 303.6443,
      "duration": 0.109,
      "velocity": 94,
      "chip": "ym2612"
    },
    {
      "channel": 5,
      "note": 74,
      "start": 303.6446,
      "duration": 0.109,
      "velocity": 94,
      "chip": "ym2612"
    },
    {
      "channel": 0,
      "note": 98,
      "start": 303.753,
      "duration": 0.1089,
      "velocity": 114,
      "chip": "ym2612"
    },
    {
      "channel": 1,
      "note": 59,
      "start": 303.7532,
      "duration": 0.2178,
      "velocity": 93,
      "chip": "ym2612"
    },
    {
      "channel": 3,
      "note": 81,
      "start": 303.7534,
      "duration": 0.1089,
      "velocity": 94,
      "chip": "ym2612"
    },
    {
      "channel": 0,
      "note": 54,
      "start": 303.862,
      "duration": 0.0309,
      "velocity": 114,
      "chip": "ym2612"
    },
    {
      "channel": 3,
      "note": 71,
      "start": 303.8622,
      "duration": 0.109,
      "velocity": 94,
      "chip": "ym2612"
    },
    {
      "channel": 5,
      "note": 76,
      "start": 303.8625,
      "duration": 0.109,
      "velocity": 94,
      "chip": "ym2612"
    },
    {
      "channel": 0,
      "note": 98,
      "start": 303.9709,
      "duration": 0.0309,
      "velocity": 114,
      "chip": "ym2612"
    },
    {
      "channel": 1,
      "note": 59,
      "start": 303.971,
      "duration": 0.2179,
      "velocity": 93,
      "chip": "ym2612"
    },
    {
      "channel": 3,
      "note": 74,
      "start": 303.9712,
      "duration": 0.1089,
      "velocity": 94,
      "chip": "ym2612"
    },
    {
      "channel": 5,
      "note": 78,
      "start": 303.9715,
      "duration": 0.1088,
      "velocity": 94,
      "chip": "ym2612"
    },
    {
      "channel": 0,
      "note": 98,
      "start": 304.0798,
      "duration": 0.0309,
      "velocity": 114,
      "chip": "ym2612"
    },
    {
      "channel": 5,
      "note": 81,
      "start": 304.0803,
      "duration": 0.109,
      "velocity": 94,
      "chip": "ym2612"
    },
    {
      "channel": 0,
      "note": 98,
      "start": 304.1888,
      "duration": 0.0154,
      "velocity": 127,
      "chip": "ym2612"
    },
    {
      "channel": 1,
      "note": 59,
      "start": 304.1889,
      "duration": 0.2178,
      "velocity": 93,
      "chip": "ym2612"
    },
    {
      "channel": 3,
      "note": 76,
      "start": 304.1891,
      "duration": 0.1089,
      "velocity": 94,
      "chip": "ym2612"
    },
    {
      "channel": 5,
      "note": 69,
      "start": 304.1893,
      "duration": 0.1089,
      "velocity": 94,
      "chip": "ym2612"
    },
    {
      "channel": 0,
      "note": 76,
      "start": 304.2041,
      "duration": 0.0936,
      "velocity": 114,
      "chip": "ym2612"
    },
    {
      "channel": 0,
      "note": 68,
      "start": 304.2977,
      "duration": 0.0309,
      "velocity": 114,
      "chip": "ym2612"
    },
    {
      "channel": 5,
      "note": 74,
      "start": 304.2982,
      "duration": 0.1092,
      "velocity": 94,
      "chip": "ym2612"
    },
    {
      "channel": 0,
      "note": 98,
      "start": 304.4067,
      "duration": 0.0309,
      "velocity": 114,
      "chip": "ym2612"
    },
    {
      "channel": 1,
      "note": 59,
      "start": 304.4068,
      "duration": 0.2179,
      "velocity": 93,
      "chip": "ym2612"
    },
    {
      "channel": 3,
      "note": 78,
      "start": 304.4072,
      "duration": 0.1086,
      "velocity": 94,
      "chip": "ym2612"
    },
    {
      "channel": 0,
      "note": 98,
      "start": 304.5156,
      "duration": 0.0309,
      "velocity": 114,
      "chip": "ym2612"
    },
    {
      "channel": 3,
      "note": 81,
      "start": 304.5159,
      "duration": 0.109,
      "velocity": 94,
      "chip": "ym2612"
    },
    {
      "channel": 5,
      "note": 76,
      "start": 304.5161,
      "duration": 0.109,
      "velocity": 94,
      "chip": "ym2612"
    },
    {
      "channel": 0,
      "note": 98,
      "start": 304.6246,
      "duration": 0.1089,
      "velocity": 114,
      "chip": "ym2612"
    },
    {
      "channel": 1,
      "note": 59,
      "start": 304.6247,
      "duration": 0.2178,
      "velocity": 93,
      "chip": "ym2612"
    },
    {
      "channel": 3,
      "note": 69,
      "start": 304.6249,
      "duration": 0.1089,
      "velocity": 94,
      "chip": "ym2612"
    },
    {
      "channel": 5,
      "note": 81,
      "start": 304.6251,
      "duration": 0.1089,
      "velocity": 94,
      "chip": "ym2612"
    },
    {
      "channel": 0,
      "note": 54,
      "start": 304.7335,
      "duration": 0.0309,
      "velocity": 114,
      "chip": "ym2612"
    },
    {
      "channel": 3,
      "note": 74,
      "start": 304.7338,
      "duration": 0.109,
      "velocity": 94,
      "chip": "ym2612"
    },
    {
      "channel": 5,
      "note": 69,
      "start": 304.734,
      "duration": 0.1089,
      "velocity": 94,
      "chip": "ym2612"
    },
    {
      "channel": 0,
      "note": 98,
      "start": 304.8424,
      "duration": 0.0309,
      "velocity": 114,
      "chip": "ym2612"
    },
    {
      "channel": 1,
      "note": 59,
      "start": 304.8425,
      "duration": 0.2179,
      "velocity": 93,
      "chip": "ym2612"
    },
    {
      "channel": 5,
      "note": 81,
      "start": 304.8429,
      "duration": 0.1089,
      "velocity": 94,
      "chip": "ym2612"
    },
    {
      "channel": 0,
      "note": 98,
      "start": 304.9514,
      "duration": 0.0309,
      "velocity": 114,
      "chip": "ym2612"
    },
    {
      "channel": 3,
      "note": 76,
      "start": 304.9516,
      "duration": 0.109,
      "velocity": 94,
      "chip": "ym2612"
    },
    {
      "channel": 5,
      "note": 71,
      "start": 304.9519,
      "duration": 0.109,
      "velocity": 94,
      "chip": "ym2612"
    },
    {
      "channel": 0,
      "note": 98,
      "start": 305.0603,
      "duration": 0.0154,
      "velocity": 127,
      "chip": "ym2612"
    },
    {
      "channel": 1,
      "note": 59,
      "start": 305.0605,
      "duration": 0.2178,
      "velocity": 93,
      "chip": "ym2612"
    },
    {
      "channel": 3,
      "note": 81,
      "start": 305.0606,
      "duration": 0.1089,
      "velocity": 94,
      "chip": "ym2612"
    },
    {
      "channel": 5,
      "note": 74,
      "start": 305.0609,
      "duration": 0.1089,
      "velocity": 94,
      "chip": "ym2612"
    },
    {
      "channel": 0,
      "note": 76,
      "start": 305.0757,
      "duration": 0.0936,
      "velocity": 114,
      "chip": "ym2612"
    },
    {
      "channel": 0,
      "note": 68,
      "start": 305.1693,
      "duration": 0.0309,
      "velocity": 114,
      "chip": "ym2612"
    },
    {
      "channel": 3,
      "note": 69,
      "start": 305.1695,
      "duration": 0.109,
      "velocity": 94,
      "chip": "ym2612"
    },
    {
      "channel": 0,
      "note": 98,
      "start": 305.2782,
      "duration": 0.0309,
      "velocity": 114,
      "chip": "ym2612"
    },
    {
      "channel": 1,
      "note": 59,
      "start": 305.2783,
      "duration": 0.2179,
      "velocity": 93,
      "chip": "ym2612"
    },
    {
      "channel": 3,
      "note": 81,
      "start": 305.2785,
      "duration": 0.1089,
      "velocity": 94,
      "chip": "ym2612"
    },
    {
      "channel": 5,
      "note": 76,
      "start": 305.2787,
      "duration": 0.109,
      "velocity": 94,
      "chip": "ym2612"
    },
    {
      "channel": 0,
      "note": 98,
      "start": 305.3871,
      "duration": 0.0309,
      "velocity": 114,
      "chip": "ym2612"
    },
    {
      "channel": 3,
      "note": 71,
      "start": 305.3874,
      "duration": 0.109,
      "velocity": 94,
      "chip": "ym2612"
    },
    {
      "channel": 5,
      "note": 78,
      "start": 305.3877,
      "duration": 0.109,
      "velocity": 94,
      "chip": "ym2612"
    },
    {
      "channel": 0,
      "note": 98,
      "start": 305.4961,
      "duration": 0.1089,
      "velocity": 127,
      "chip": "ym2612"
    },
    {
      "channel": 1,
      "note": 59,
      "start": 305.4962,
      "duration": 0.2178,
      "velocity": 93,
      "chip": "ym2612"
    },
    {
      "channel": 3,
      "note": 74,
      "start": 305.4964,
      "duration": 0.1089,
      "velocity": 94,
      "chip": "ym2612"
    },
    {
      "channel": 5,
      "note": 81,
      "start": 305.4967,
      "duration": 0.1088,
      "velocity": 94,
      "chip": "ym2612"
    },
    {
      "channel": 0,
      "note": 54,
      "start": 305.605,
      "duration": 0.0154,
      "velocity": 127,
      "chip": "ym2612"
    },
    {
      "channel": 5,
      "note": 69,
      "start": 305.6055,
      "duration": 0.109,
      "velocity": 94,
      "chip": "ym2612"
    },
    {
      "channel": 0,
      "note": 76,
      "start": 305.6204,
      "duration": 0.0936,
      "velocity": 114,
      "chip": "ym2612"
    },
    {
      "channel": 0,
      "note": 68,
      "start": 305.714,
      "duration": 0.0309,
      "velocity": 114,
      "chip": "ym2612"
    },
    {
      "channel": 1,
      "note": 59,
      "start": 305.7141,
      "duration": 0.2179,
      "velocity": 93,
      "chip": "ym2612"
    },
    {
      "channel": 3,
      "note": 76,
      "start": 305.7143,
      "duration": 0.1089,
      "velocity": 94,
      "chip": "ym2612"
    },
    {
      "channel": 5,
      "note": 74,
      "start": 305.7145,
      "duration": 0.1088,
      "velocity": 94,
      "chip": "ym2612"
    },
    {
      "channel": 0,
      "note": 98,
      "start": 305.8229,
      "duration": 0.0309,
      "velocity": 114,
      "chip": "ym2612"
    },
    {
      "channel": 0,
      "note": 98,
      "start": 305.9319,
      "duration": 0.1089,
      "velocity": 114,
      "chip": "ym2612"
    },
    {
      "channel": 1,
      "note": 59,
      "start": 305.932,
      "duration": 0.2178,
      "velocity": 93,
      "chip": "ym2612"
    },
    {
      "channel": 2,
      "note": 47,
      "start": 305.9321,
      "duration": 3.0504,
      "velocity": 121,
      "chip": "ym2612"
    },
    {
      "channel": 3,
      "note": 78,
      "start": 305.9323,
      "duration": 0.1087,
      "velocity": 94,
      "chip": "ym2612"
    },
    {
      "channel": 5,
      "note": 76,
      "start": 305.9325,
      "duration": 0.1087,
      "velocity": 94,
      "chip": "ym2612"
    },
    {
      "channel": 0,
      "note": 54,
      "start": 306.0408,
      "duration": 0.0309,
      "velocity": 114,
      "chip": "ym2612"
    },
    {
      "channel": 3,
      "note": 81,
      "start": 306.041,
      "duration": 0.109,
      "velocity": 94,
      "chip": "ym2612"
    },
    {
      "channel": 5,
      "note": 81,
      "start": 306.0413,
      "duration": 0.109,
      "velocity": 94,
      "chip": "ym2612"
    },
    {
      "channel": 4,
      "note": 47,
      "start": 306.1187,
      "duration": 3.0504,
      "velocity": 121,
      "chip": "ym2612"
    },
    {
      "channel": 0,
      "note": 98,
      "start": 306.1497,
      "duration": 0.0309,
      "velocity": 114,
      "chip": "ym2612"
    },
    {
      "channel": 1,
      "note": 55,
      "start": 306.1498,
      "duration": 0.2179,
      "velocity": 93,
      "chip": "ym2612"
    },
    {
      "channel": 3,
      "note": 69,
      "start": 306.15,
      "duration": 0.1089,
      "velocity": 94,
      "chip": "ym2612"
    },
    {
      "channel": 5,
      "note": 69,
      "start": 306.1502,
      "duration": 0.1089,
      "velocity": 94,
      "chip": "ym2612"
    },
    {
      "channel": 0,
      "note": 98,
      "start": 306.2587,
      "duration": 0.0309,
      "velocity": 114,
      "chip": "ym2612"
    },
    {
      "channel": 3,
      "note": 74,
      "start": 306.2589,
      "duration": 0.109,
      "velocity": 94,
      "chip": "ym2612"
    },
    {
      "channel": 5,
      "note": 81,
      "start": 306.2592,
      "duration": 0.109,
      "velocity": 94,
      "chip": "ym2612"
    },
    {
      "channel": 0,
      "note": 98,
      "start": 306.3676,
      "duration": 0.0154,
      "velocity": 127,
      "chip": "ym2612"
    },
    {
      "channel": 1,
      "note": 55,
      "start": 306.3678,
      "duration": 0.2178,
      "velocity": 93,
      "chip": "ym2612"
    },
    {
      "channel": 5,
      "note": 71,
      "start": 306.3682,
      "duration": 0.1089,
      "velocity": 94,
      "chip": "ym2612"
    },
    {
      "channel": 0,
      "note": 76,
      "start": 306.383,
      "duration": 0.0936,
      "velocity": 114,
      "chip": "ym2612"
    },
    {
      "channel": 0,
      "note": 68,
      "start": 306.4766,
      "duration": 0.0309,
      "velocity": 114,
      "chip": "ym2612"
    },
    {
      "channel": 3,
      "note": 76,
      "start": 306.4768,
      "duration": 0.109,
      "velocity": 94,
      "chip": "ym2612"
    },
    {
      "channel": 5,
      "note": 74,
      "start": 306.4771,
      "duration": 0.109,
      "velocity": 94,
      "chip": "ym2612"
    },
    {
      "channel": 0,
      "note": 98,
      "start": 306.5855,
      "duration": 0.0309,
      "velocity": 114,
      "chip": "ym2612"
    },
    {
      "channel": 1,
      "note": 55,
      "start": 306.5856,
      "duration": 0.2179,
      "velocity": 93,
      "chip": "ym2612"
    },
    {
      "channel": 3,
      "note": 81,
      "start": 306.5858,
      "duration": 0.1089,
      "velocity": 94,
      "chip": "ym2612"
    },
    {
      "channel": 0,
      "note": 98,
      "start": 306.6944,
      "duration": 0.0309,
      "velocity": 114,
      "chip": "ym2612"
    },
    {
      "channel": 3,
      "note": 69,
      "start": 306.6947,
      "duration": 0.109,
      "velocity": 94,
      "chip": "ym2612"
    },
    {
      "channel": 5,
      "note": 76,
      "start": 306.6949,
      "duration": 0.1091,
      "velocity": 94,
      "chip": "ym2612"
    },
    {
      "channel": 0,
      "note": 98,
      "start": 306.8034,
      "duration": 0.1089,
      "velocity": 114,
      "chip": "ym2612"
    },
    {
      "channel": 1,
      "note": 55,
      "start": 306.8035,
      "duration": 0.2178,
      "velocity": 93,
      "chip": "ym2612"
    },
    {
      "channel": 3,
      "note": 81,
      "start": 306.8037,
      "duration": 0.1089,
      "velocity": 94,
      "chip": "ym2612"
    },
    {
      "channel": 5,
      "note": 78,
      "start": 306.804,
      "duration": 0.1088,
      "velocity": 94,
      "chip": "ym2612"
    },
    {
      "channel": 0,
      "note": 54,
      "start": 306.9123,
      "duration": 0.0309,
      "velocity": 114,
      "chip": "ym2612"
    },
    {
      "channel": 3,
      "note": 71,
      "start": 306.9126,
      "duration": 0.109,
      "velocity": 94,
      "chip": "ym2612"
    },
    {
      "channel": 5,
      "note": 81,
      "start": 306.9128,
      "duration": 0.109,
      "velocity": 94,
      "chip": "ym2612"
    },
    {
      "channel": 0,
      "note": 98,
      "start": 307.0213,
      "duration": 0.0309,
      "velocity": 114,
      "chip": "ym2612"
    },
    {
      "channel": 1,
      "note": 55,
      "start": 307.0214,
      "duration": 0.2179,
      "velocity": 93,
      "chip": "ym2612"
    },
    {
      "channel": 3,
      "note": 74,
      "start": 307.0216,
      "duration": 0.1089,
      "velocity": 94,
      "chip": "ym2612"
    },
    {
      "channel": 5,
      "note": 69,
      "start": 307.0218,
      "duration": 0.1089,
      "velocity": 94,
      "chip": "ym2612"
    },
    {
      "channel": 0,
      "note": 98,
      "start": 307.1302,
      "duration": 0.0309,
      "velocity": 114,
      "chip": "ym2612"
    },
    {
      "channel": 5,
      "note": 74,
      "start": 307.1307,
      "duration": 0.109,
      "velocity": 94,
      "chip": "ym2612"
    },
    {
      "channel": 0,
      "note": 98,
      "start": 307.2391,
      "duration": 0.0154,
      "velocity": 127,
      "chip": "ym2612"
    },
    {
      "channel": 1,
      "note": 55,
      "start": 307.2393,
      "duration": 0.218,
      "velocity": 93,
      "chip": "ym2612"
    },
    {
      "channel": 3,
      "note": 76,
      "start": 307.2395,
      "duration": 0.1089,
      "velocity": 94,
      "chip": "ym2612"
    },
    {
      "channel": 0,
      "note": 76,
      "start": 307.2545,
      "duration": 0.0936,
      "velocity": 114,
      "chip": "ym2612"
    },
    {
      "channel": 0,
      "note": 68,
      "start": 307.3481,
      "duration": 0.0309,
      "velocity": 114,
      "chip": "ym2612"
    },
    {
      "channel": 5,
      "note": 76,
      "start": 307.3486,
      "duration": 0.1092,
      "velocity": 94,
      "chip": "ym2612"
    },
    {
      "channel": 0,
      "note": 98,
      "start": 307.4572,
      "duration": 0.0307,
      "velocity": 114,
      "chip": "ym2612"
    },
    {
      "channel": 1,
      "note": 55,
      "start": 307.4573,
      "duration": 0.2178,
      "velocity": 93,
      "chip": "ym2612"
    },
    {
      "channel": 3,
      "note": 78,
      "start": 307.4576,
      "duration": 0.1087,
      "velocity": 94,
      "chip": "ym2612"
    },
    {
      "channel": 5,
      "note": 81,
      "start": 307.4578,
      "duration": 0.1086,
      "velocity": 94,
      "chip": "ym2612"
    },
    {
      "channel": 0,
      "note": 98,
      "start": 307.566,
      "duration": 0.0309,
      "velocity": 114,
      "chip": "ym2612"
    },
    {
      "channel": 3,
      "note": 81,
      "start": 307.5662,
      "duration": 0.109,
      "velocity": 94,
      "chip": "ym2612"
    },
    {
      "channel": 5,
      "note": 69,
      "start": 307.5665,
      "duration": 0.109,
      "velocity": 94,
      "chip": "ym2612"
    },
    {
      "channel": 0,
      "note": 98,
      "start": 307.6749,
      "duration": 0.1089,
      "velocity": 114,
      "chip": "ym2612"
    },
    {
      "channel": 1,
      "note": 55,
      "start": 307.6751,
      "duration": 0.2178,
      "velocity": 93,
      "chip": "ym2612"
    },
    {
      "channel": 3,
      "note": 69,
      "start": 307.6753,
      "duration": 0.1089,
      "velocity": 94,
      "chip": "ym2612"
    },
    {
      "channel": 5,
      "note": 81,
      "start": 307.6755,
      "duration": 0.1089,
      "velocity": 94,
      "chip": "ym2612"
    },
    {
      "channel": 0,
      "note": 54,
      "start": 307.7839,
      "duration": 0.0309,
      "velocity": 114,
      "chip": "ym2612"
    },
    {
      "channel": 3,
      "note": 74,
      "start": 307.7841,
      "duration": 0.109,
      "velocity": 94,
      "chip": "ym2612"
    },
    {
      "channel": 5,
      "note": 71,
      "start": 307.7844,
      "duration": 0.1089,
      "velocity": 94,
      "chip": "ym2612"
    },
    {
      "channel": 0,
      "note": 98,
      "start": 307.8928,
      "duration": 0.0311,
      "velocity": 114,
      "chip": "ym2612"
    },
    {
      "channel": 1,
      "note": 55,
      "start": 307.8929,
      "duration": 0.2179,
      "velocity": 93,
      "chip": "ym2612"
    },
    {
      "channel": 5,
      "note": 74,
      "start": 307.8933,
      "duration": 0.1089,
      "velocity": 94,
      "chip": "ym2612"
    },
    {
      "channel": 0,
      "note": 98,
      "start": 308.0017,
      "duration": 0.0309,
      "velocity": 114,
      "chip": "ym2612"
    },
    {
      "channel": 3,
      "note": 76,
      "start": 308.002,
      "duration": 0.109,
      "velocity": 94,
      "chip": "ym2612"
    },
    {
      "channel": 0,
      "note": 98,
      "start": 308.1107,
      "duration": 0.0154,
      "velocity": 127,
      "chip": "ym2612"
    },
    {
      "channel": 1,
      "note": 55,
      "start": 308.1108,
      "duration": 0.2178,
      "velocity": 93,
      "chip": "ym2612"
    },
    {
      "channel": 3,
      "note": 81,
      "start": 308.111,
      "duration": 0.1089,
      "velocity": 94,
      "chip": "ym2612"
    },
    {
      "channel": 5,
      "note": 76,
      "start": 308.1112,
      "duration": 0.1089,
      "velocity": 94,
      "chip": "ym2612"
    },
    {
      "channel": 0,
      "note": 76,
      "start": 308.126,
      "duration": 0.0936,
      "velocity": 114,
      "chip": "ym2612"
    },
    {
      "channel": 0,
      "note": 68,
      "start": 308.2196,
      "duration": 0.0309,
      "velocity": 114,
      "chip": "ym2612"
    },
    {
      "channel": 3,
      "note": 69,
      "start": 308.2199,
      "duration": 0.109,
      "velocity": 94,
      "chip": "ym2612"
    },
    {
      "channel": 5,
      "note": 78,
      "start": 308.2202,
      "duration": 0.1089,
      "velocity": 94,
      "chip": "ym2612"
    },
    {
      "channel": 0,
      "note": 98,
      "start": 308.3286,
      "duration": 0.0309,
      "velocity": 114,
      "chip": "ym2612"
    },
    {
      "channel": 1,
      "note": 55,
      "start": 308.3287,
      "duration": 0.2179,
      "velocity": 93,
      "chip": "ym2612"
    },
    {
      "channel": 3,
      "note": 81,
      "start": 308.3289,
      "duration": 0.1089,
      "velocity": 94,
      "chip": "ym2612"
    },
    {
      "channel": 5,
      "note": 81,
      "start": 308.3291,
      "duration": 0.1089,
      "velocity": 94,
      "chip": "ym2612"
    },
    {
      "channel": 0,
      "note": 98,
      "start": 308.4375,
      "duration": 0.0309,
      "velocity": 114,
      "chip": "ym2612"
    },
    {
      "channel": 3,
      "note": 71,
      "start": 308.4378,
      "duration": 0.109,
      "velocity": 94,
      "chip": "ym2612"
    },
    {
      "channel": 5,
      "note": 69,
      "start": 308.438,
      "duration": 0.109,
      "velocity": 94,
      "chip": "ym2612"
    },
    {
      "channel": 0,
      "note": 98,
      "start": 308.5465,
      "duration": 0.1089,
      "velocity": 127,
      "chip": "ym2612"
    },
    {
      "channel": 1,
      "note": 55,
      "start": 308.5466,
      "duration": 0.2178,
      "velocity": 93,
      "chip": "ym2612"
    },
    {
      "channel": 3,
      "note": 74,
      "start": 308.5468,
      "duration": 0.1088,
      "velocity": 94,
      "chip": "ym2612"
    },
    {
      "channel": 5,
      "note": 74,
      "start": 308.547,
      "duration": 0.1088,
      "velocity": 94,
      "chip": "ym2612"
    },
    {
      "channel": 0,
      "note": 54,
      "start": 308.6554,
      "duration": 0.0154,
      "velocity": 127,
      "chip": "ym2612"
    },
    {
      "channel": 0,
      "note": 76,
      "start": 308.6707,
      "duration": 0.0936,
      "velocity": 114,
      "chip": "ym2612"
    },
    {
      "channel": 0,
      "note": 68,
      "start": 308.7643,
      "duration": 0.0309,
      "velocity": 114,
      "chip": "ym2612"
    },
    {
      "channel": 1,
      "note": 55,
      "start": 308.7644,
      "duration": 0.2179,
      "velocity": 93,
      "chip": "ym2612"
    },
    {
      "channel": 3,
      "note": 76,
      "start": 308.7647,
      "duration": 0.1088,
      "velocity": 94,
      "chip": "ym2612"
    },
    {
      "channel": 5,
      "note": 76,
      "start": 308.7649,
      "duration": 0.109,
      "velocity": 94,
      "chip": "ym2612"
    },
    {
      "channel": 0,
      "note": 98,
      "start": 308.8733,
      "duration": 0.0309,
      "velocity": 114,
      "chip": "ym2612"
    },
    {
      "channel": 5,
      "note": 81,
      "start": 308.8739,
      "duration": 0.109,
      "velocity": 94,
      "chip": "ym2612"
    },
    {
      "channel": 0,
      "note": 98,
      "start": 308.9822,
      "duration": 0.1089,
      "velocity": 114,
      "chip": "ym2612"
    },
    {
      "channel": 1,
      "note": 56,
      "start": 308.9824,
      "duration": 0.2178,
      "velocity": 93,
      "chip": "ym2612"
    },
    {
      "channel": 2,
      "note": 43,
      "start": 308.9825,
      "duration": 3.0504,
      "velocity": 121,
      "chip": "ym2612"
    },
    {
      "channel": 3,
      "note": 78,
      "start": 308.9827,
      "duration": 0.1087,
      "velocity": 94,
      "chip": "ym2612"
    },
    {
      "channel": 5,
      "note": 69,
      "start": 308.9829,
      "duration": 0.1088,
      "velocity": 94,
      "chip": "ym2612"
    },
    {
      "channel": 0,
      "note": 54,
      "start": 309.0912,
      "duration": 0.0309,
      "velocity": 114,
      "chip": "ym2612"
    },
    {
      "channel": 3,
      "note": 81,
      "start": 309.0914,
      "duration": 0.109,
      "velocity": 94,
      "chip": "ym2612"
    },
    {
      "channel": 5,
      "note": 81,
      "start": 309.0917,
      "duration": 0.109,
      "velocity": 94,
      "chip": "ym2612"
    },
    {
      "channel": 4,
      "note": 43,
      "start": 309.1691,
      "duration": 3.0504,
      "velocity": 121,
      "chip": "ym2612"
    },
    {
      "channel": 0,
      "note": 98,
      "start": 309.2001,
      "duration": 0.0309,
      "velocity": 114,
      "chip": "ym2612"
    },
    {
      "channel": 1,
      "note": 64,
      "start": 309.2002,
      "duration": 0.2179,
      "velocity": 93,
      "chip": "ym2612"
    },
    {
      "channel": 3,
      "note": 69,
      "start": 309.2004,
      "duration": 0.1089,
      "velocity": 94,
      "chip": "ym2612"
    },
    {
      "channel": 5,
      "note": 71,
      "start": 309.2006,
      "duration": 0.1089,
      "velocity": 94,
      "chip": "ym2612"
    },
    {
      "channel": 0,
      "note": 98,
      "start": 309.309,
      "duration": 0.0309,
      "velocity": 114,
      "chip": "ym2612"
    },
    {
      "channel": 3,
      "note": 74,
      "start": 309.3093,
      "duration": 0.109,
      "velocity": 94,
      "chip": "ym2612"
    },
    {
      "channel": 5,
      "note": 74,
      "start": 309.3095,
      "duration": 0.109,
      "velocity": 94,
      "chip": "ym2612"
    },
    {
      "channel": 0,
      "note": 98,
      "start": 309.418,
      "duration": 0.0154,
      "velocity": 127,
      "chip": "ym2612"
    },
    {
      "channel": 1,
      "note": 64,
      "start": 309.4181,
      "duration": 0.2178,
      "velocity": 93,
      "chip": "ym2612"
    },
    {
      "channel": 0,
      "note": 76,
      "start": 309.4333,
      "duration": 0.0936,
      "velocity": 114,
      "chip": "ym2612"
    },
    {
      "channel": 0,
      "note": 68,
      "start": 309.5269,
      "duration": 0.0309,
      "velocity": 114,
      "chip": "ym2612"
    },
    {
      "channel": 3,
      "note": 76,
      "start": 309.5272,
      "duration": 0.109,
      "velocity": 94,
      "chip": "ym2612"
    },
    {
      "channel": 5,
      "note": 76,
      "start": 309.5274,
      "duration": 0.109,
      "velocity": 94,
      "chip": "ym2612"
    },
    {
      "channel": 0,
      "note": 98,
      "start": 309.6359,
      "duration": 0.0309,
      "velocity": 114,
      "chip": "ym2612"
    },
    {
      "channel": 1,
      "note": 64,
      "start": 309.636,
      "duration": 0.2179,
      "velocity": 93,
      "chip": "ym2612"
    },
    {
      "channel": 3,
      "note": 81,
      "start": 309.6362,
      "duration": 0.1089,
      "velocity": 94,
      "chip": "ym2612"
    },
    {
      "channel": 5,
      "note": 78,
      "start": 309.6365,
      "duration": 0.1088,
      "velocity": 94,
      "chip": "ym2612"
    },
    {
      "channel": 0,
      "note": 98,
      "start": 309.7448,
      "duration": 0.0309,
      "velocity": 114,
      "chip": "ym2612"
    },
    {
      "channel": 3,
      "note": 69,
      "start": 309.7451,
      "duration": 0.109,
      "velocity": 94,
      "chip": "ym2612"
    },
    {
      "channel": 5,
      "note": 81,
      "start": 309.7453,
      "duration": 0.109,
      "velocity": 94,
      "chip": "ym2612"
    },
    {
      "channel": 0,
      "note": 98,
      "start": 309.8538,
      "duration": 0.1089,
      "velocity": 114,
      "chip": "ym2612"
    },
    {
      "channel": 1,
      "note": 64,
      "start": 309.8539,
      "duration": 0.2178,
      "velocity": 93,
      "chip": "ym2612"
    },
    {
      "channel": 3,
      "note": 81,
      "start": 309.8541,
      "duration": 0.1089,
      "velocity": 94,
      "chip": "ym2612"
    },
    {
      "channel": 5,
      "note": 69,
      "start": 309.8543,
      "duration": 0.1089,
      "velocity": 94,
      "chip": "ym2612"
    },
    {
      "channel": 0,
      "note": 54,
      "start": 309.9627,
      "duration": 0.0309,
      "velocity": 114,
      "chip": "ym2612"
    },
    {
      "channel": 3,
      "note": 71,
      "start": 309.963,
      "duration": 0.109,
      "velocity": 94,
      "chip": "ym2612"
    },
    {
      "channel": 5,
      "note": 74,
      "start": 309.9632,
      "duration": 0.109,
      "velocity": 94,
      "chip": "ym2612"
    },
    {
      "channel": 0,
      "note": 98,
      "start": 310.0716,
      "duration": 0.0309,
      "velocity": 114,
      "chip": "ym2612"
    },
    {
      "channel": 1,
      "note": 64,
      "start": 310.0717,
      "duration": 0.2179,
      "velocity": 93,
      "chip": "ym2612"
    },
    {
      "channel": 3,
      "note": 74,
      "start": 310.0719,
      "duration": 0.1089,
      "velocity": 94,
      "chip": "ym2612"
    },
    {
      "channel": 0,
      "note": 98,
      "start": 310.1806,
      "duration": 0.0309,
      "velocity": 114,
      "chip": "ym2612"
    },
    {
      "channel": 5,
      "note": 76,
      "start": 310.181,
      "duration": 0.109,
      "velocity": 94,
      "chip": "ym2612"
    },
    {
      "channel": 0,
      "note": 98,
      "start": 310.2895,
      "duration": 0.0154,
      "velocity": 127,
      "chip": "ym2612"
    },
    {
      "channel": 1,
      "note": 64,
      "start": 310.2896,
      "duration": 0.2179,
      "velocity": 93,
      "chip": "ym2612"
    },
    {
      "channel": 3,
      "note": 76,
      "start": 310.2898,
      "duration": 0.1089,
      "velocity": 94,
      "chip": "ym2612"
    },
    {
      "channel": 5,
      "note": 81,
      "start": 310.2901,
      "duration": 0.1089,
      "velocity": 94,
      "chip": "ym2612"
    },
    {
      "channel": 0,
      "note": 76,
      "start": 310.3049,
      "duration": 0.0936,
      "velocity": 114,
      "chip": "ym2612"
    },
    {
      "channel": 0,
      "note": 68,
      "start": 310.3985,
      "duration": 0.0309,
      "velocity": 114,
      "chip": "ym2612"
    },
    {
      "channel": 5,
      "note": 69,
      "start": 310.399,
      "duration": 0.1091,
      "velocity": 94,
      "chip": "ym2612"
    },
    {
      "channel": 0,
      "note": 98,
      "start": 310.5074,
      "duration": 0.0309,
      "velocity": 114,
      "chip": "ym2612"
    },
    {
      "channel": 1,
      "note": 64,
      "start": 310.5075,
      "duration": 0.2179,
      "velocity": 93,
      "chip": "ym2612"
    },
    {
      "channel": 3,
      "note": 78,
      "start": 310.5078,
      "duration": 0.1088,
      "velocity": 94,
      "chip": "ym2612"
    },
    {
      "channel": 5,
      "note": 81,
      "start": 310.508,
      "duration": 0.1088,
      "velocity": 94,
      "chip": "ym2612"
    },
    {
      "channel": 0,
      "note": 98,
      "start": 310.6163,
      "duration": 0.0309,
      "velocity": 114,
      "chip": "ym2612"
    },
    {
      "channel": 3,
      "note": 81,
      "start": 310.6166,
      "duration": 0.109,
      "velocity": 94,
      "chip": "ym2612"
    },
    {
      "channel": 5,
      "note": 71,
      "start": 310.6168,
      "duration": 0.109,
      "velocity": 94,
      "chip": "ym2612"
    },
    {
      "channel": 0,
      "note": 98,
      "start": 310.7253,
      "duration": 0.1089,
      "velocity": 114,
      "chip": "ym2612"
    },
    {
      "channel": 1,
      "note": 64,
      "start": 310.7254,
      "duration": 0.2178,
      "velocity": 93,
      "chip": "ym2612"
    },
    {
      "channel": 3,
      "note": 69,
      "start": 310.7256,
      "duration": 0.1089,
      "velocity": 94,
      "chip": "ym2612"
    },
    {
      "channel": 5,
      "note": 74,
      "start": 310.7259,
      "duration": 0.1088,
      "velocity": 94,
      "chip": "ym2612"
    },
    {
      "channel": 0,
      "note": 54,
      "start": 310.8342,
      "duration": 0.0309,
      "velocity": 114,
      "chip": "ym2612"
    },
    {
      "channel": 3,
      "note": 74,
      "start": 310.8345,
      "duration": 0.1089,
      "velocity": 94,
      "chip": "ym2612"
    },
    {
      "channel": 0,
      "note": 98,
      "start": 310.9432,
      "duration": 0.0309,
      "velocity": 114,
      "chip": "ym2612"
    },
    {
      "channel": 1,
      "note": 64,
      "start": 310.9433,
      "duration": 0.2179,
      "velocity": 93,
      "chip": "ym2612"
    },
    {
      "channel": 5,
      "note": 76,
      "start": 310.9437,
      "duration": 0.109,
      "velocity": 94,
      "chip": "ym2612"
    },
    {
      "channel": 0,
      "note": 98,
      "start": 311.0521,
      "duration": 0.0309,
      "velocity": 114,
      "chip": "ym2612"
    },
    {
      "channel": 3,
      "note": 76,
      "start": 311.0524,
      "duration": 0.109,
      "velocity": 94,
      "chip": "ym2612"
    },
    {
      "channel": 5,
      "note": 78,
      "start": 311.0527,
      "duration": 0.109,
      "velocity": 94,
      "chip": "ym2612"
    },
    {
      "channel": 0,
      "note": 98,
      "start": 311.161,
      "duration": 0.0154,
      "velocity": 127,
      "chip": "ym2612"
    },
    {
      "channel": 1,
      "note": 64,
      "start": 311.1612,
      "duration": 0.2178,
      "velocity": 93,
      "chip": "ym2612"
    },
    {
      "channel": 3,
      "note": 81,
      "start": 311.1614,
      "duration": 0.1089,
      "velocity": 94,
      "chip": "ym2612"
    },
    {
      "channel": 5,
      "note": 81,
      "start": 311.1616,
      "duration": 0.1089,
      "velocity": 94,
      "chip": "ym2612"
    },
    {
      "channel": 0,
      "note": 76,
      "start": 311.1764,
      "duration": 0.0936,
      "velocity": 114,
      "chip": "ym2612"
    },
    {
      "channel": 0,
      "note": 68,
      "start": 311.27,
      "duration": 0.0309,
      "velocity": 114,
      "chip": "ym2612"
    },
    {
      "channel": 3,
      "note": 69,
      "start": 311.2703,
      "duration": 0.109,
      "velocity": 94,
      "chip": "ym2612"
    },
    {
      "channel": 5,
      "note": 69,
      "start": 311.2705,
      "duration": 0.109,
      "velocity": 94,
      "chip": "ym2612"
    },
    {
      "channel": 0,
      "note": 98,
      "start": 311.3789,
      "duration": 0.0309,
      "velocity": 114,
      "chip": "ym2612"
    },
    {
      "channel": 1,
      "note": 64,
      "start": 311.379,
      "duration": 0.2179,
      "velocity": 93,
      "chip": "ym2612"
    },
    {
      "channel": 3,
      "note": 81,
      "start": 311.3793,
      "duration": 0.1089,
      "velocity": 94,
      "chip": "ym2612"
    },
    {
      "channel": 5,
      "note": 74,
      "start": 311.3795,
      "duration": 0.1089,
      "velocity": 94,
      "chip": "ym2612"
    },
    {
      "channel": 0,
      "note": 98,
      "start": 311.4879,
      "duration": 0.0309,
      "velocity": 114,
      "chip": "ym2612"
    },
    {
      "channel": 3,
      "note": 71,
      "start": 311.4881,
      "duration": 0.109,
      "velocity": 94,
      "chip": "ym2612"
    },
    {
      "channel": 0,
      "note": 98,
      "start": 311.5968,
      "duration": 0.1089,
      "velocity": 127,
      "chip": "ym2612"
    },
    {
      "channel": 1,
      "note": 64,
      "start": 311.597,
      "duration": 0.2178,
      "velocity": 93,
      "chip": "ym2612"
    },
    {
      "channel": 3,
      "note": 74,
      "start": 311.5972,
      "duration": 0.1089,
      "velocity": 94,
      "chip": "ym2612"
    },
    {
      "channel": 5,
      "note": 76,
      "start": 311.5974,
      "duration": 0.1088,
      "velocity": 94,
      "chip": "ym2612"
    },
    {
      "channel": 0,
      "note": 54,
      "start": 311.7057,
      "duration": 0.0154,
      "velocity": 127,
      "chip": "ym2612"
    },
    {
      "channel": 5,
      "note": 81,
      "start": 311.7063,
      "duration": 0.109,
      "velocity": 94,
      "chip": "ym2612"
    },
    {
      "channel": 0,
      "note": 76,
      "start": 311.7211,
      "duration": 0.0936,
      "velocity": 114,
      "chip": "ym2612"
    },
    {
      "channel": 0,
      "note": 68,
      "start": 311.8147,
      "duration": 0.0309,
      "velocity": 114,
      "chip": "ym2612"
    },
    {
      "channel": 1,
      "note": 64,
      "start": 311.8148,
      "duration": 0.2179,
      "velocity": 93,
      "chip": "ym2612"
    },
    {
      "channel": 3,
      "note": 76,
      "start": 311.815,
      "duration": 0.109,
      "velocity": 94,
      "chip": "ym2612"
    },
    {
      "channel": 5,
      "note": 69,
      "start": 311.8153,
      "duration": 0.109,
      "velocity": 94,
      "chip": "ym2612"
    },
    {
      "channel": 0,
      "note": 98,
      "start": 311.9238,
      "duration": 0.0307,
      "velocity": 114,
      "chip": "ym2612"
    },
    {
      "channel": 5,
      "note": 81,
      "start": 311.9243,
      "duration": 0.109,
      "velocity": 94,
      "chip": "ym2612"
    },
    {
      "channel": 0,
      "note": 98,
      "start": 312.0326,
      "duration": 0.1089,
      "velocity": 114,
      "chip": "ym2612"
    },
    {
      "channel": 1,
      "note": 64,
      "start": 312.0327,
      "duration": 0.2178,
      "velocity": 93,
      "chip": "ym2612"
    },
    {
      "channel": 2,
      "note": 52,
      "start": 312.0329,
      "duration": 3.0504,
      "velocity": 121,
      "chip": "ym2612"
    },
    {
      "channel": 3,
      "note": 78,
      "start": 312.033,
      "duration": 0.1087,
      "velocity": 94,
      "chip": "ym2612"
    },
    {
      "channel": 5,
      "note": 71,
      "start": 312.0333,
      "duration": 0.1088,
      "velocity": 94,
      "chip": "ym2612"
    },
    {
      "channel": 0,
      "note": 54,
      "start": 312.1415,
      "duration": 0.0309,
      "velocity": 114,
      "chip": "ym2612"
    },
    {
      "channel": 3,
      "note": 81,
      "start": 312.1418,
      "duration": 0.109,
      "velocity": 94,
      "chip": "ym2612"
    },
    {
      "channel": 5,
      "note": 74,
      "start": 312.142,
      "duration": 0.109,
      "velocity": 94,
      "chip": "ym2612"
    },
    {
      "channel": 4,
      "note": 52,
      "start": 312.2195,
      "duration": 3.0503,
      "velocity": 121,
      "chip": "ym2612"
    },
    {
      "channel": 0,
      "note": 98,
      "start": 312.2505,
      "duration": 0.0309,
      "velocity": 114,
      "chip": "ym2612"
    },
    {
      "channel": 1,
      "note": 62,
      "start": 312.2506,
      "duration": 0.2179,
      "velocity": 93,
      "chip": "ym2612"
    },
    {
      "channel": 3,
      "note": 69,
      "start": 312.2508,
      "duration": 0.1089,
      "velocity": 94,
      "chip": "ym2612"
    },
    {
      "channel": 0,
      "note": 98,
      "start": 312.3594,
      "duration": 0.0311,
      "velocity": 114,
      "chip": "ym2612"
    },
    {
      "channel": 3,
      "note": 74,
      "start": 312.3597,
      "duration": 0.109,
      "velocity": 94,
      "chip": "ym2612"
    },
    {
      "channel": 5,
      "note": 76,
      "start": 312.3599,
      "duration": 0.109,
      "velocity": 94,
      "chip": "ym2612"
    },
    {
      "channel": 0,
      "note": 98,
      "start": 312.4683,
      "duration": 0.0154,
      "velocity": 127,
      "chip": "ym2612"
    },
    {
      "channel": 1,
      "note": 62,
      "start": 312.4685,
      "duration": 0.2178,
      "velocity": 93,
      "chip": "ym2612"
    },
    {
      "channel": 5,
      "note": 78,
      "start": 312.4689,
      "duration": 0.1088,
      "velocity": 94,
      "chip": "ym2612"
    },
    {
      "channel": 0,
      "note": 76,
      "start": 312.4837,
      "duration": 0.0936,
      "velocity": 114,
      "chip": "ym2612"
    },
    {
      "channel": 0,
      "note": 68,
      "start": 312.5773,
      "duration": 0.0309,
      "velocity": 114,
      "chip": "ym2612"
    },
    {
      "channel": 3,
      "note": 76,
      "start": 312.5776,
      "duration": 0.109,
      "velocity": 94,
      "chip": "ym2612"
    },
    {
      "channel": 5,
      "note": 81,
      "start": 312.5778,
      "duration": 0.109,
      "velocity": 94,
      "chip": "ym2612"
    },
    {
      "channel": 0,
      "note": 98,
      "start": 312.6862,
      "duration": 0.0309,
      "velocity": 114,
      "chip": "ym2612"
    },
    {
      "channel": 1,
      "note": 62,
      "start": 312.6863,
      "duration": 0.2179,
      "velocity": 93,
      "chip": "ym2612"
    },
    {
      "channel": 3,
      "note": 81,
      "start": 312.6866,
      "duration": 0.1089,
      "velocity": 94,
      "chip": "ym2612"
    },
    {
      "channel": 5,
      "note": 69,
      "start": 312.6868,
      "duration": 0.1089,
      "velocity": 94,
      "chip": "ym2612"
    },
    {
      "channel": 0,
      "note": 98,
      "start": 312.7952,
      "duration": 0.0309,
      "velocity": 114,
      "chip": "ym2612"
    },
    {
      "channel": 3,
      "note": 69,
      "start": 312.7954,
      "duration": 0.109,
      "velocity": 94,
      "chip": "ym2612"
    },
    {
      "channel": 5,
      "note": 74,
      "start": 312.7957,
      "duration": 0.109,
      "velocity": 94,
      "chip": "ym2612"
    },
    {
      "channel": 0,
      "note": 98,
      "start": 312.9041,
      "duration": 0.1089,
      "velocity": 114,
      "chip": "ym2612"
    },
    {
      "channel": 1,
      "note": 62,
      "start": 312.9043,
      "duration": 0.2178,
      "velocity": 93,
      "chip": "ym2612"
    },
    {
      "channel": 3,
      "note": 81,
      "start": 312.9045,
      "duration": 0.1089,
      "velocity": 94,
      "chip": "ym2612"
    },
    {
      "channel": 0,
      "note": 54,
      "start": 313.0131,
      "duration": 0.0309,
      "velocity": 114,
      "chip": "ym2612"
    },
    {
      "channel": 3,
      "note": 71,
      "start": 313.0133,
      "duration": 0.109,
      "velocity": 94,
      "chip": "ym2612"
    },
    {
      "channel": 5,
      "note": 76,
      "start": 313.0136,
      "duration": 0.109,
      "velocity": 94,
      "chip": "ym2612"
    },
    {
      "channel": 0,
      "note": 98,
      "start": 313.122,
      "duration": 0.0309,
      "velocity": 114,
      "chip": "ym2612"
    },
    {
      "channel": 1,
      "note": 62,
      "start": 313.1221,
      "duration": 0.2179,
      "velocity": 93,
      "chip": "ym2612"
    },
    {
      "channel": 3,
      "note": 74,
      "start": 313.1223,
      "duration": 0.1089,
      "velocity": 94,
      "chip": "ym2612"
    },
    {
      "channel": 5,
      "note": 81,
      "start": 313.1226,
      "duration": 0.1088,
      "velocity": 94,
      "chip": "ym2612"
    },
    {
      "channel": 0,
      "note": 98,
      "start": 313.2309,
      "duration": 0.0309,
      "velocity": 114,
      "chip": "ym2612"
    },
    {
      "channel": 5,
      "note": 69,
      "start": 313.2314,
      "duration": 0.1092,
      "velocity": 94,
      "chip": "ym2612"
    },
    {
      "channel": 0,
      "note": 98,
      "start": 313.3399,
      "duration": 0.0153,
      "velocity": 127,
      "chip": "ym2612"
    },
    {
      "channel": 1,
      "note": 62,
      "start": 313.34,
      "duration": 0.2178,
      "velocity": 93,
      "chip": "ym2612"
    },
    {
      "channel": 3,
      "note": 76,
      "start": 313.3402,
      "duration": 0.1089,
      "velocity": 94,
      "chip": "ym2612"
    },
    {
      "channel": 5,
      "note": 81,
      "start": 313.3406,
      "duration": 0.1087,
      "velocity": 94,
      "chip": "ym2612"
    },
    {
      "channel": 0,
      "note": 76,
      "start": 313.3552,
      "duration": 0.0936,
      "velocity": 114,
      "chip": "ym2612"
    },
    {
      "channel": 0,
      "note": 68,
      "start": 313.4488,
      "duration": 0.0309,
      "velocity": 114,
      "chip": "ym2612"
    },
    {
      "channel": 5,
      "note": 71,
      "start": 313.4493,
      "duration": 0.109,
      "velocity": 94,
      "chip": "ym2612"
    },
    {
      "channel": 0,
      "note": 98,
      "start": 313.5578,
      "duration": 0.0309,
      "velocity": 114,
      "chip": "ym2612"
    },
    {
      "channel": 1,
      "note": 62,
      "start": 313.5579,
      "duration": 0.2179,
      "velocity": 93,
      "chip": "ym2612"
    },
    {
      "channel": 3,
      "note": 78,
      "start": 313.5581,
      "duration": 0.1088,
      "velocity": 94,
      "chip": "ym2612"
    },
    {
      "channel": 5,
      "note": 74,
      "start": 313.5584,
      "duration": 0.1088,
      "velocity": 94,
      "chip": "ym2612"
    },
    {
      "channel": 0,
      "note": 98,
      "start": 313.6667,
      "duration": 0.0309,
      "velocity": 114,
      "chip": "ym2612"
    },
    {
      "channel": 3,
      "note": 81,
      "start": 313.667,
      "duration": 0.109,
      "velocity": 94,
      "chip": "ym2612"
    },
    {
      "channel": 0,
      "note": 98,
      "start": 313.7757,
      "duration": 0.1089,
      "velocity": 114,
      "chip": "ym2612"
    },
    {
      "channel": 1,
      "note": 62,
      "start": 313.7758,
      "duration": 0.2178,
      "velocity": 93,
      "chip": "ym2612"
    },
    {
      "channel": 3,
      "note": 69,
      "start": 313.776,
      "duration": 0.1089,
      "velocity": 94,
      "chip": "ym2612"
    },
    {
      "channel": 5,
      "note": 76,
      "start": 313.7762,
      "duration": 0.1089,
      "velocity": 94,
      "chip": "ym2612"
    },
    {
      "channel": 0,
      "note": 54,
      "start": 313.8846,
      "duration": 0.0309,
      "velocity": 114,
      "chip": "ym2612"
    },
    {
      "channel": 3,
      "note": 74,
      "start": 313.8849,
      "duration": 0.109,
      "velocity": 94,
      "chip": "ym2612"
    },
    {
      "channel": 5,
      "note": 78,
      "start": 313.8851,
      "duration": 0.1089,
      "velocity": 94,
      "chip": "ym2612"
    },
    {
      "channel": 0,
      "note": 98,
      "start": 313.9935,
      "duration": 0.0309,
      "velocity": 114,
      "chip": "ym2612"
    },
    {
      "channel": 1,
      "note": 62,
      "start": 313.9937,
      "duration": 0.2179,
      "velocity": 93,
      "chip": "ym2612"
    },
    {
      "channel": 5,
      "note": 81,
      "start": 313.9941,
      "duration": 0.1089,
      "velocity": 94,
      "chip": "ym2612"
    },
    {
      "channel": 0,
      "note": 98,
      "start": 314.1025,
      "duration": 0.0309,
      "velocity": 114,
      "chip": "ym2612"
    },
    {
      "channel": 3,
      "note": 76,
      "start": 314.1027,
      "duration": 0.109,
      "velocity": 94,
      "chip": "ym2612"
    },
    {
      "channel": 5,
      "note": 69,
      "start": 314.103,
      "duration": 0.109,
      "velocity": 94,
      "chip": "ym2612"
    },
    {
      "channel": 0,
      "note": 98,
      "start": 314.2114,
      "duration": 0.0154,
      "velocity": 127,
      "chip": "ym2612"
    },
    {
      "channel": 1,
      "note": 62,
      "start": 314.2115,
      "duration": 0.2179,
      "velocity": 93,
      "chip": "ym2612"
    },
    {
      "channel": 3,
      "note": 81,
      "start": 314.2117,
      "duration": 0.1089,
      "velocity": 94,
      "chip": "ym2612"
    },
    {
      "channel": 5,
      "note": 74,
      "start": 314.212,
      "duration": 0.1089,
      "velocity": 94,
      "chip": "ym2612"
    },
    {
      "channel": 0,
      "note": 76,
      "start": 314.2268,
      "duration": 0.0936,
      "velocity": 114,
      "chip": "ym2612"
    },
    {
      "channel": 0,
      "note": 68,
      "start": 314.3204,
      "duration": 0.0309,
      "velocity": 114,
      "chip": "ym2612"
    },
    {
      "channel": 3,
      "note": 69,
      "start": 314.3206,
      "duration": 0.109,
      "velocity": 94,
      "chip": "ym2612"
    },
    {
      "channel": 0,
      "note": 98,
      "start": 314.4293,
      "duration": 0.0309,
      "velocity": 114,
      "chip": "ym2612"
    },
    {
      "channel": 1,
      "note": 62,
      "start": 314.4294,
      "duration": 0.2179,
      "velocity": 93,
      "chip": "ym2612"
    },
    {
      "channel": 3,
      "note": 81,
      "start": 314.4296,
      "duration": 0.1089,
      "velocity": 94,
      "chip": "ym2612"
    },
    {
      "channel": 5,
      "note": 76,
      "start": 314.4298,
      "duration": 0.1089,
      "velocity": 94,
      "chip": "ym2612"
    },
    {
      "channel": 0,
      "note": 98,
      "start": 314.5382,
      "duration": 0.0309,
      "velocity": 114,
      "chip": "ym2612"
    },
    {
      "channel": 3,
      "note": 71,
      "start": 314.5385,
      "duration": 0.109,
      "velocity": 94,
      "chip": "ym2612"
    },
    {
      "channel": 5,
      "note": 81,
      "start": 314.5388,
      "duration": 0.109,
      "velocity": 94,
      "chip": "ym2612"
    },
    {
      "channel": 0,
      "note": 98,
      "start": 314.6472,
      "duration": 0.1089,
      "velocity": 127,
      "chip": "ym2612"
    },
    {
      "channel": 1,
      "note": 62,
      "start": 314.6473,
      "duration": 0.2179,
      "velocity": 93,
      "chip": "ym2612"
    },
    {
      "channel": 3,
      "note": 74,
      "start": 314.6475,
      "duration": 0.1089,
      "velocity": 94,
      "chip": "ym2612"
    },
    {
      "channel": 5,
      "note": 69,
      "start": 314.6478,
      "duration": 0.1089,
      "velocity": 94,
      "chip": "ym2612"
    },
    {
      "channel": 0,
      "note": 54,
      "start": 314.7561,
      "duration": 0.0154,
      "velocity": 127,
      "chip": "ym2612"
    },
    {
      "channel": 5,
      "note": 81,
      "start": 314.7566,
      "duration": 0.109,
      "velocity": 94,
      "chip": "ym2612"
    },
    {
      "channel": 0,
      "note": 76,
      "start": 314.7715,
      "duration": 0.0936,
      "velocity": 114,
      "chip": "ym2612"
    },
    {
      "channel": 0,
      "note": 68,
      "start": 314.8651,
      "duration": 0.0309,
      "velocity": 114,
      "chip": "ym2612"
    },
    {
      "channel": 1,
      "note": 62,
      "start": 314.8652,
      "duration": 0.2179,
      "velocity": 93,
      "chip": "ym2612"
    },
    {
      "channel": 3,
      "note": 76,
      "start": 314.8654,
      "duration": 0.109,
      "velocity": 94,
      "chip": "ym2612"
    },
    {
      "channel": 5,
      "note": 71,
      "start": 314.8656,
      "duration": 0.1089,
      "velocity": 94,
      "chip": "ym2612"
    },
    {
      "channel": 0,
      "note": 98,
      "start": 314.9741,
      "duration": 0.0308,
      "velocity": 114,
      "chip": "ym2612"
    },
    {
      "channel": 5,
      "note": 74,
      "start": 314.9746,
      "duration": 0.1091,
      "velocity": 94,
      "chip": "ym2612"
    },
    {
      "channel": 0,
      "note": 98,
      "start": 315.083,
      "duration": 0.1089,
      "velocity": 114,
      "chip": "ym2612"
    },
    {
      "channel": 1,
      "note": 62,
      "start": 315.0831,
      "duration": 0.2178,
      "velocity": 93,
      "chip": "ym2612"
    },
    {
      "channel": 2,
      "note": 50,
      "start": 315.0832,
      "duration": 3.0504,
      "velocity": 121,
      "chip": "ym2612"
    },
    {
      "channel": 3,
      "note": 78,
      "start": 315.0834,
      "duration": 0.1087,
      "velocity": 94,
      "chip": "ym2612"
    },
    {
      "channel": 0,
      "note": 54,
      "start": 315.1919,
      "duration": 0.0309,
      "velocity": 114,
      "chip": "ym2612"
    },
    {
      "channel": 3,
      "note": 81,
      "start": 315.1922,
      "duration": 0.109,
      "velocity": 94,
      "chip": "ym2612"
    },
    {
      "channel": 5,
      "note": 76,
      "start": 315.1924,
      "duration": 0.109,
      "velocity": 94,
      "chip": "ym2612"
    },
    {
      "channel": 4,
      "note": 50,
      "start": 315.2698,
      "duration": 3.0504,
      "velocity": 121,
      "chip": "ym2612"
    },
    {
      "channel": 0,
      "note": 98,
      "start": 315.3008,
      "duration": 0.0309,
      "velocity": 114,
      "chip": "ym2612"
    },
    {
      "channel": 1,
      "note": 59,
      "start": 315.301,
      "duration": 0.2179,
      "velocity": 93,
      "chip": "ym2612"
    },
    {
      "channel": 3,
      "note": 69,
      "start": 315.3011,
      "duration": 0.1089,
      "velocity": 94,
      "chip": "ym2612"
    },
    {
      "channel": 5,
      "note": 78,
      "start": 315.3014,
      "duration": 0.1088,
      "velocity": 94,
      "chip": "ym2612"
    },
    {
      "channel": 0,
      "note": 98,
      "start": 315.4098,
      "duration": 0.0309,
      "velocity": 114,
      "chip": "ym2612"
    },
    {
      "channel": 3,
      "note": 74,
      "start": 315.41,
      "duration": 0.109,
      "velocity": 94,
      "chip": "ym2612"
    },
    {
      "channel": 5,
      "note": 81,
      "start": 315.4102,
      "duration": 0.109,
      "velocity": 94,
      "chip": "ym2612"
    },
    {
      "channel": 0,
      "note": 98,
      "start": 315.5187,
      "duration": 0.0154,
      "velocity": 127,
      "chip": "ym2612"
    },
    {
      "channel": 1,
      "note": 59,
      "start": 315.5188,
      "duration": 0.2178,
      "velocity": 93,
      "chip": "ym2612"
    },
    {
      "channel": 5,
      "note": 69,
      "start": 315.5193,
      "duration": 0.1089,
      "velocity": 94,
      "chip": "ym2612"
    },
    {
      "channel": 0,
      "note": 76,
      "start": 315.5341,
      "duration": 0.0936,
      "velocity": 114,
      "chip": "ym2612"
    },
    {
      "channel": 0,
      "note": 68,
      "start": 315.6277,
      "duration": 0.0309,
      "velocity": 114,
      "chip": "ym2612"
    },
    {
      "channel": 3,
      "note": 76,
      "start": 315.6279,
      "duration": 0.109,
      "velocity": 94,
      "chip": "ym2612"
    },
    {
      "channel": 5,
      "note": 74,
      "start": 315.6282,
      "duration": 0.109,
      "velocity": 94,
      "chip": "ym2612"
    },
    {
      "channel": 0,
      "note": 98,
      "start": 315.7366,
      "duration": 0.0309,
      "velocity": 114,
      "chip": "ym2612"
    },
    {
      "channel": 1,
      "note": 59,
      "start": 315.7367,
      "duration": 0.2179,
      "velocity": 93,
      "chip": "ym2612"
    },
    {
      "channel": 3,
      "note": 81,
      "start": 315.7369,
      "duration": 0.1089,
      "velocity": 94,
      "chip": "ym2612"
    },
    {
      "channel": 0,
      "note": 98,
      "start": 315.8455,
      "duration": 0.0309,
      "velocity": 114,
      "chip": "ym2612"
    },
    {
      "channel": 3,
      "note": 69,
      "start": 315.8458,
      "duration": 0.109,
      "velocity": 94,
      "chip": "ym2612"
    },
    {
      "channel": 5,
      "note": 76,
      "start": 315.846,
      "duration": 0.109,
      "velocity": 94,
      "chip": "ym2612"
    },
    {
      "channel": 0,
      "note": 98,
      "start": 315.9545,
      "duration": 0.1089,
      "velocity": 114,
      "chip": "ym2612"
    },
    {
      "channel": 1,
      "note": 59,
      "start": 315.9546,
      "duration": 0.2178,
      "velocity": 93,
      "chip": "ym2612"
    },
    {
      "channel": 3,
      "note": 81,
      "start": 315.9548,
      "duration": 0.1089,
      "velocity": 94,
      "chip": "ym2612"
    },
    {
      "channel": 5,
      "note": 81,
      "start": 315.9551,
      "duration": 0.1089,
      "velocity": 94,
      "chip": "ym2612"
    },
    {
      "channel": 0,
      "note": 54,
      "start": 316.0634,
      "duration": 0.0309,
      "velocity": 114,
      "chip": "ym2612"
    },
    {
      "channel": 3,
      "note": 71,
      "start": 316.0637,
      "duration": 0.109,
      "velocity": 94,
      "chip": "ym2612"
    },
    {
      "channel": 5,
      "note": 69,
      "start": 316.0639,
      "duration": 0.109,
      "velocity": 94,
      "chip": "ym2612"
    },
    {
      "channel": 0,
      "note": 98,
      "start": 316.1724,
      "duration": 0.0309,
      "velocity": 114,
      "chip": "ym2612"
    },
    {
      "channel": 1,
      "note": 59,
      "start": 316.1725,
      "duration": 0.2181,
      "velocity": 93,
      "chip": "ym2612"
    },
    {
      "channel": 3,
      "note": 74,
      "start": 316.1727,
      "duration": 0.1089,
      "velocity": 94,
      "chip": "ym2612"
    },
    {
      "channel": 5,
      "note": 81,
      "start": 316.1729,
      "duration": 0.1088,
      "velocity": 94,
      "chip": "ym2612"
    },
    {
      "channel": 0,
      "note": 98,
      "start": 316.2813,
      "duration": 0.0309,
      "velocity": 114,
      "chip": "ym2612"
    },
    {
      "channel": 5,
      "note": 71,
      "start": 316.2818,
      "duration": 0.1092,
      "velocity": 94,
      "chip": "ym2612"
    },
    {
      "channel": 0,
      "note": 98,
      "start": 316.3904,
      "duration": 0.0152,
      "velocity": 127,
      "chip": "ym2612"
    },
    {
      "channel": 1,
      "note": 59,
      "start": 316.3905,
      "duration": 0.2177,
      "velocity": 93,
      "chip": "ym2612"
    },
    {
      "channel": 3,
      "note": 76,
      "start": 316.3907,
      "duration": 0.1087,
      "velocity": 94,
      "chip": "ym2612"
    },
    {
      "channel": 5,
      "note": 74,
      "start": 316.391,
      "duration": 0.1087,
      "velocity": 94,
      "chip": "ym2612"
    },
    {
      "channel": 0,
      "note": 76,
      "start": 316.4056,
      "duration": 0.0936,
      "velocity": 114,
      "chip": "ym2612"
    },
    {
      "channel": 0,
      "note": 68,
      "start": 316.4992,
      "duration": 0.0309,
      "velocity": 114,
      "chip": "ym2612"
    },
    {
      "channel": 0,
      "note": 98,
      "start": 316.6081,
      "duration": 0.0309,
      "velocity": 114,
      "chip": "ym2612"
    },
    {
      "channel": 1,
      "note": 59,
      "start": 316.6082,
      "duration": 0.2179,
      "velocity": 93,
      "chip": "ym2612"
    },
    {
      "channel": 3,
      "note": 78,
      "start": 316.6085,
      "duration": 0.1088,
      "velocity": 94,
      "chip": "ym2612"
    },
    {
      "channel": 5,
      "note": 76,
      "start": 316.6087,
      "duration": 0.1089,
      "velocity": 94,
      "chip": "ym2612"
    },
    {
      "channel": 0,
      "note": 98,
      "start": 316.7171,
      "duration": 0.0309,
      "velocity": 114,
      "chip": "ym2612"
    },
    {
      "channel": 3,
      "note": 81,
      "start": 316.7173,
      "duration": 0.109,
      "velocity": 94,
      "chip": "ym2612"
    },
    {
      "channel": 5,
      "note": 78,
      "start": 316.7176,
      "duration": 0.109,
      "velocity": 94,
      "chip": "ym2612"
    },
    {
      "channel": 0,
      "note": 98,
      "start": 316.826,
      "duration": 0.1089,
      "velocity": 114,
      "chip": "ym2612"
    },
    {
      "channel": 1,
      "note": 59,
      "start": 316.8262,
      "duration": 0.2178,
      "velocity": 93,
      "chip": "ym2612"
    },
    {
      "channel": 3,
      "note": 69,
      "start": 316.8264,
      "duration": 0.1089,
      "velocity": 94,
      "chip": "ym2612"
    },
    {
      "channel": 5,
      "note": 81,
      "start": 316.8266,
      "duration": 0.1089,
      "velocity": 94,
      "chip": "ym2612"
    },
    {
      "channel": 0,
      "note": 54,
      "start": 316.9349,
      "duration": 0.0309,
      "velocity": 114,
      "chip": "ym2612"
    },
    {
      "channel": 3,
      "note": 74,
      "start": 316.9352,
      "duration": 0.109,
      "velocity": 94,
      "chip": "ym2612"
    },
    {
      "channel": 5,
      "note": 69,
      "start": 316.9355,
      "duration": 0.1089,
      "velocity": 94,
      "chip": "ym2612"
    },
    {
      "channel": 0,
      "note": 98,
      "start": 317.0439,
      "duration": 0.0309,
      "velocity": 114,
      "chip": "ym2612"
    },
    {
      "channel": 1,
      "note": 59,
      "start": 317.044,
      "duration": 0.2179,
      "velocity": 93,
      "chip": "ym2612"
    },
    {
      "channel": 5,
      "note": 74,
      "start": 317.0444,
      "duration": 0.1089,
      "velocity": 94,
      "chip": "ym2612"
    },
    {
      "channel": 0,
      "note": 98,
      "start": 317.1528,
      "duration": 0.0309,
      "velocity": 114,
      "chip": "ym2612"
    },
    {
      "channel": 3,
      "note": 76,
      "start": 317.1531,
      "duration": 0.109,
      "velocity": 94,
      "chip": "ym2612"
    },
    {
      "channel": 0,
      "note": 98,
      "start": 317.2618,
      "duration": 0.0154,
      "velocity": 127,
      "chip": "ym2612"
    },
    {
      "channel": 1,
      "note": 59,
      "start": 317.2619,
      "duration": 0.2179,
      "velocity": 93,
      "chip": "ym2612"
    },
    {
      "channel": 3,
      "note": 81,
      "start": 317.2621,
      "duration": 0.1089,
      "velocity": 94,
      "chip": "ym2612"
    },
    {
      "channel": 5,
      "note": 76,
      "start": 317.2623,
      "duration": 0.1089,
      "velocity": 94,
      "chip": "ym2612"
    },
    {
      "channel": 0,
      "note": 76,
      "start": 317.2771,
      "duration": 0.0936,
      "velocity": 114,
      "chip": "ym2612"
    },
    {
      "channel": 0,
      "note": 68,
      "start": 317.3707,
      "duration": 0.0309,
      "velocity": 114,
      "chip": "ym2612"
    },
    {
      "channel": 3,
      "note": 69,
      "start": 317.371,
      "duration": 0.109,
      "velocity": 94,
      "chip": "ym2612"
    },
    {
      "channel": 5,
      "note": 81,
      "start": 317.3712,
      "duration": 0.109,
      "velocity": 94,
      "chip": "ym2612"
    },
    {
      "channel": 0,
      "note": 98,
      "start": 317.4797,
      "duration": 0.0309,
      "velocity": 114,
      "chip": "ym2612"
    },
    {
      "channel": 1,
      "note": 59,
      "start": 317.4798,
      "duration": 0.2179,
      "velocity": 93,
      "chip": "ym2612"
    },
    {
      "channel": 3,
      "note": 81,
      "start": 317.48,
      "duration": 0.1089,
      "velocity": 94,
      "chip": "ym2612"
    },
    {
      "channel": 5,
      "note": 69,
      "start": 317.4802,
      "duration": 0.1089,
      "velocity": 94,
      "chip": "ym2612"
    },
    {
      "channel": 0,
      "note": 98,
      "start": 317.5886,
      "duration": 0.0309,
      "velocity": 114,
      "chip": "ym2612"
    },
    {
      "channel": 3,
      "note": 71,
      "start": 317.5889,
      "duration": 0.109,
      "velocity": 94,
      "chip": "ym2612"
    },
    {
      "channel": 5,
      "note": 81,
      "start": 317.5891,
      "duration": 0.109,
      "velocity": 94,
      "chip": "ym2612"
    },
    {
      "channel": 0,
      "note": 98,
      "start": 317.6976,
      "duration": 0.1089,
      "velocity": 127,
      "chip": "ym2612"
    },
    {
      "channel": 1,
      "note": 59,
      "start": 317.6977,
      "duration": 0.2179,
      "velocity": 93,
      "chip": "ym2612"
    },
    {
      "channel": 3,
      "note": 74,
      "start": 317.6979,
      "duration": 0.1089,
      "velocity": 94,
      "chip": "ym2612"
    },
    {
      "channel": 5,
      "note": 71,
      "start": 317.6981,
      "duration": 0.109,
      "velocity": 94,
      "chip": "ym2612"
    },
    {
      "channel": 0,
      "note": 54,
      "start": 317.8065,
      "duration": 0.0154,
      "velocity": 127,
      "chip": "ym2612"
    },
    {
      "channel": 5,
      "note": 74,
      "start": 317.8072,
      "duration": 0.1088,
      "velocity": 94,
      "chip": "ym2612"
    },
    {
      "channel": 0,
      "note": 76,
      "start": 317.8218,
      "duration": 0.0936,
      "velocity": 114,
      "chip": "ym2612"
    },
    {
      "channel": 0,
      "note": 68,
      "start": 317.9154,
      "duration": 0.0309,
      "velocity": 114,
      "chip": "ym2612"
    },
    {
      "channel": 1,
      "note": 59,
      "start": 317.9156,
      "duration": 0.2179,
      "velocity": 93,
      "chip": "ym2612"
    },
    {
      "channel": 3,
      "note": 76,
      "start": 317.9157,
      "duration": 0.1089,
      "velocity": 94,
      "chip": "ym2612"
    },
    {
      "channel": 0,
      "note": 98,
      "start": 318.0244,
      "duration": 0.0309,
      "velocity": 114,
      "chip": "ym2612"
    },
    {
      "channel": 5,
      "note": 76,
      "start": 318.0249,
      "duration": 0.1092,
      "velocity": 94,
      "chip": "ym2612"
    },
    {
      "channel": 0,
      "note": 98,
      "start": 318.1333,
      "duration": 0.1089,
      "velocity": 114,
      "chip": "ym2612"
    },
    {
      "channel": 1,
      "note": 59,
      "start": 318.1335,
      "duration": 0.2178,
      "velocity": 93,
      "chip": "ym2612"
    },
    {
      "channel": 2,
      "note": 47,
      "start": 318.1336,
      "duration": 3.0503,
      "velocity": 121,
      "chip": "ym2612"
    },
    {
      "channel": 3,
      "note": 78,
      "start": 318.1338,
      "duration": 0.1088,
      "velocity": 94,
      "chip": "ym2612"
    },
    {
      "channel": 5,
      "note": 78,
      "start": 318.1341,
      "duration": 0.1087,
      "velocity": 94,
      "chip": "ym2612"
    },
    {
      "channel": 0,
      "note": 54,
      "start": 318.2422,
      "duration": 0.0309,
      "velocity": 114,
      "chip": "ym2612"
    },
    {
      "channel": 3,
      "note": 81,
      "start": 318.2425,
      "duration": 0.109,
      "velocity": 94,
      "chip": "ym2612"
    },
    {
      "channel": 5,
      "note": 81,
      "start": 318.2428,
      "duration": 0.109,
      "velocity": 94,
      "chip": "ym2612"
    },
    {
      "channel": 4,
      "note": 47,
      "start": 318.3202,
      "duration": 3.0504,
      "velocity": 121,
      "chip": "ym2612"
    },
    {
      "channel": 0,
      "note": 98,
      "start": 318.3512,
      "duration": 0.0309,
      "velocity": 114,
      "chip": "ym2612"
    },
    {
      "channel": 1,
      "note": 64,
      "start": 318.3513,
      "duration": 0.2179,
      "velocity": 93,
      "chip": "ym2612"
    },
    {
      "channel": 3,
      "note": 69,
      "start": 318.3515,
      "duration": 0.1089,
      "velocity": 94,
      "chip": "ym2612"
    },
    {
      "channel": 5,
      "note": 69,
      "start": 318.3517,
      "duration": 0.1089,
      "velocity": 94,
      "chip": "ym2612"
    },
    {
      "channel": 0,
      "note": 98,
      "start": 318.4601,
      "duration": 0.0309,
      "velocity": 114,
      "chip": "ym2612"
    },
    {
      "channel": 3,
      "note": 74,
      "start": 318.4604,
      "duration": 0.109,
      "velocity": 94,
      "chip": "ym2612"
    },
    {
      "channel": 5,
      "note": 74,
      "start": 318.4606,
      "duration": 0.109,
      "velocity": 94,
      "chip": "ym2612"
    },
    {
      "channel": 0,
      "note": 98,
      "start": 318.5691,
      "duration": 0.0154,
      "velocity": 127,
      "chip": "ym2612"
    },
    {
      "channel": 1,
      "note": 64,
      "start": 318.5692,
      "duration": 0.2179,
      "velocity": 93,
      "chip": "ym2612"
    },
    {
      "channel": 0,
      "note": 76,
      "start": 318.5844,
      "duration": 0.0936,
      "velocity": 114,
      "chip": "ym2612"
    },
    {
      "channel": 0,
      "note": 68,
      "start": 318.678,
      "duration": 0.0309,
      "velocity": 114,
      "chip": "ym2612"
    },
    {
      "channel": 3,
      "note": 76,
      "start": 318.6783,
      "duration": 0.109,
      "velocity": 94,
      "chip": "ym2612"
    },
    {
      "channel": 5,
      "note": 76,
      "start": 318.6785,
      "duration": 0.109,
      "velocity": 94,
      "chip": "ym2612"
    },
    {
      "channel": 0,
      "note": 98,
      "start": 318.787,
      "duration": 0.0309,
      "velocity": 114,
      "chip": "ym2612"
    },
    {
      "channel": 1,
      "note": 64,
      "start": 318.7871,
      "duration": 0.2179,
      "velocity": 93,
      "chip": "ym2612"
    },
    {
      "channel": 3,
      "note": 81,
      "start": 318.7873,
      "duration": 0.1089,
      "velocity": 94,
      "chip": "ym2612"
    },
    {
      "channel": 5,
      "note": 81,
      "start": 318.7875,
      "duration": 0.1089,
      "velocity": 94,
      "chip": "ym2612"
    },
    {
      "channel": 0,
      "note": 98,
      "start": 318.8959,
      "duration": 0.0309,
      "velocity": 114,
      "chip": "ym2612"
    },
    {
      "channel": 3,
      "note": 69,
      "start": 318.8962,
      "duration": 0.109,
      "velocity": 94,
      "chip": "ym2612"
    },
    {
      "channel": 5,
      "note": 69,
      "start": 318.8964,
      "duration": 0.109,
      "velocity": 94,
      "chip": "ym2612"
    },
    {
      "channel": 0,
      "note": 98,
      "start": 319.0049,
      "duration": 0.1089,
      "velocity": 114,
      "chip": "ym2612"
    },
    {
      "channel": 1,
      "note": 64,
      "start": 319.005,
      "duration": 0.2178,
      "velocity": 93,
      "chip": "ym2612"
    },
    {
      "channel": 3,
      "note": 81,
      "start": 319.0052,
      "duration": 0.1089,
      "velocity": 94,
      "chip": "ym2612"
    },
    {
      "channel": 5,
      "note": 81,
      "start": 319.0054,
      "duration": 0.1089,
      "velocity": 94,
      "chip": "ym2612"
    },
    {
      "channel": 0,
      "note": 54,
      "start": 319.1138,
      "duration": 0.0309,
      "velocity": 114,
      "chip": "ym2612"
    },
    {
      "channel": 3,
      "note": 71,
      "start": 319.1141,
      "duration": 0.109,
      "velocity": 94,
      "chip": "ym2612"
    },
    {
      "channel": 5,
      "note": 71,
      "start": 319.1143,
      "duration": 0.109,
      "velocity": 94,
      "chip": "ym2612"
    },
    {
      "channel": 0,
      "note": 98,
      "start": 319.2227,
      "duration": 0.0309,
      "velocity": 114,
      "chip": "ym2612"
    },
    {
      "channel": 1,
      "note": 64,
      "start": 319.2228,
      "duration": 0.218,
      "velocity": 93,
      "chip": "ym2612"
    },
    {
      "channel": 3,
      "note": 74,
      "start": 319.223,
      "duration": 0.1089,
      "velocity": 94,
      "chip": "ym2612"
    },
    {
      "channel": 5,
      "note": 74,
      "start": 319.2233,
      "duration": 0.1088,
      "velocity": 94,
      "chip": "ym2612"
    },
    {
      "channel": 0,
      "note": 98,
      "start": 319.3317,
      "duration": 0.0309,
      "velocity": 114,
      "chip": "ym2612"
    },
    {
      "channel": 0,
      "note": 98,
      "start": 319.4407,
      "duration": 0.0152,
      "velocity": 127,
      "chip": "ym2612"
    },
    {
      "channel": 1,
      "note": 64,
      "start": 319.4409,
      "duration": 0.2177,
      "velocity": 93,
      "chip": "ym2612"
    },
    {
      "channel": 3,
      "note": 76,
      "start": 319.4411,
      "duration": 0.1088,
      "velocity": 94,
      "chip": "ym2612"
    },
    {
      "channel": 5,
      "note": 76,
      "start": 319.4413,
      "duration": 0.1088,
      "velocity": 94,
      "chip": "ym2612"
    },
    {
      "channel": 0,
      "note": 76,
      "start": 319.456,
      "duration": 0.0936,
      "velocity": 114,
      "chip": "ym2612"
    },
    {
      "channel": 0,
      "note": 68,
      "start": 319.5495,
      "duration": 0.0309,
      "velocity": 114,
      "chip": "ym2612"
    },
    {
      "channel": 5,
      "note": 78,
      "start": 319.5501,
      "duration": 0.109,
      "velocity": 94,
      "chip": "ym2612"
    },
    {
      "channel": 0,
      "note": 98,
      "start": 319.6585,
      "duration": 0.0309,
      "velocity": 114,
      "chip": "ym2612"
    },
    {
      "channel": 1,
      "note": 64,
      "start": 319.6586,
      "duration": 0.2179,
      "velocity": 93,
      "chip": "ym2612"
    },
    {
      "channel": 3,
      "note": 78,
      "start": 319.6589,
      "duration": 0.1088,
      "velocity": 94,
      "chip": "ym2612"
    },
    {
      "channel": 5,
      "note": 81,
      "start": 319.6591,
      "duration": 0.1088,
      "velocity": 94,
      "chip": "ym2612"
    },
    {
      "channel": 0,
      "note": 98,
      "start": 319.7674,
      "duration": 0.0309,
      "velocity": 114,
      "chip": "ym2612"
    },
    {
      "channel": 3,
      "note": 81,
      "start": 319.7677,
      "duration": 0.109,
      "velocity": 94,
      "chip": "ym2612"
    },
    {
      "channel": 5,
      "note": 69,
      "start": 319.7679,
      "duration": 0.109,
      "velocity": 94,
      "chip": "ym2612"
    },
    {
      "channel": 0,
      "note": 98,
      "start": 319.8764,
      "duration": 0.1089,
      "velocity": 114,
      "chip": "ym2612"
    },
    {
      "channel": 1,
      "note": 64,
      "start": 319.8765,
      "duration": 0.2178,
      "velocity": 93,
      "chip": "ym2612"
    },
    {
      "channel": 3,
      "note": 69,
      "start": 319.8767,
      "duration": 0.1089,
      "velocity": 94,
      "chip": "ym2612"
    },
    {
      "channel": 5,
      "note": 74,
      "start": 319.877,
      "duration": 0.1089,
      "velocity": 94,
      "chip": "ym2612"
    },
    {
      "channel": 0,
      "note": 54,
      "start": 319.9853,
      "duration": 0.0309,
      "velocity": 114,
      "chip": "ym2612"
    },
    {
      "channel": 3,
      "note": 74,
      "start": 319.9856,
      "duration": 0.109,
      "velocity": 94,
      "chip": "ym2612"
    },
    {
      "channel": 0,
      "note": 98,
      "start": 320.0943,
      "duration": 0.0309,
      "velocity": 114,
      "chip": "ym2612"
    },
    {
      "channel": 1,
      "note": 64,
      "start": 320.0944,
      "duration": 0.2179,
      "velocity": 93,
      "chip": "ym2612"
    },
    {
      "channel": 5,
      "note": 76,
      "start": 320.0948,
      "duration": 0.1089,
      "velocity": 94,
      "chip": "ym2612"
    },
    {
      "channel": 0,
      "note": 98,
      "start": 320.2032,
      "duration": 0.0309,
      "velocity": 114,
      "chip": "ym2612"
    },
    {
      "channel": 3,
      "note": 76,
      "start": 320.2035,
      "duration": 0.109,
      "velocity": 94,
      "chip": "ym2612"
    },
    {
      "channel": 5,
      "note": 81,
      "start": 320.2037,
      "duration": 0.109,
      "velocity": 94,
      "chip": "ym2612"
    },
    {
      "channel": 0,
      "note": 98,
      "start": 320.3122,
      "duration": 0.0153,
      "velocity": 127,
      "chip": "ym2612"
    },
    {
      "channel": 1,
      "note": 64,
      "start": 320.3123,
      "duration": 0.2178,
      "velocity": 93,
      "chip": "ym2612"
    },
    {
      "channel": 3,
      "note": 81,
      "start": 320.3125,
      "duration": 0.1089,
      "velocity": 94,
      "chip": "ym2612"
    },
    {
      "channel": 5,
      "note": 69,
      "start": 320.3127,
      "duration": 0.1089,
      "velocity": 94,
      "chip": "ym2612"
    },
    {
      "channel": 0,
      "note": 76,
      "start": 320.3275,
      "duration": 0.0936,
      "velocity": 114,
      "chip": "ym2612"
    },
    {
      "channel": 0,
      "note": 68,
      "start": 320.4211,
      "duration": 0.0309,
      "velocity": 114,
      "chip": "ym2612"
    },
    {
      "channel": 3,
      "note": 69,
      "start": 320.4214,
      "duration": 0.109,
      "velocity": 94,
      "chip": "ym2612"
    },
    {
      "channel": 5,
      "note": 81,
      "start": 320.4216,
      "duration": 0.109,
      "velocity": 94,
      "chip": "ym2612"
    },
    {
      "channel": 0,
      "note": 98,
      "start": 320.53,
      "duration": 0.0309,
      "velocity": 114,
      "chip": "ym2612"
    },
    {
      "channel": 1,
      "note": 64,
      "start": 320.5301,
      "duration": 0.2179,
      "velocity": 93,
      "chip": "ym2612"
    },
    {
      "channel": 3,
      "note": 81,
      "start": 320.5303,
      "duration": 0.1089,
      "velocity": 94,
      "chip": "ym2612"
    },
    {
      "channel": 5,
      "note": 71,
      "start": 320.5306,
      "duration": 0.1089,
      "velocity": 94,
      "chip": "ym2612"
    },
    {
      "channel": 0,
      "note": 98,
      "start": 320.639,
      "duration": 0.0309,
      "velocity": 114,
      "chip": "ym2612"
    },
    {
      "channel": 3,
      "note": 71,
      "start": 320.6392,
      "duration": 0.109,
      "velocity": 94,
      "chip": "ym2612"
    },
    {
      "channel": 5,
      "note": 74,
      "start": 320.6395,
      "duration": 0.109,
      "velocity": 94,
      "chip": "ym2612"
    },
    {
      "channel": 0,
      "note": 98,
      "start": 320.7479,
      "duration": 0.1089,
      "velocity": 127,
      "chip": "ym2612"
    },
    {
      "channel": 1,
      "note": 64,
      "start": 320.7481,
      "duration": 0.2178,
      "velocity": 93,
      "chip": "ym2612"
    },
    {
      "channel": 3,
      "note": 74,
      "start": 320.7483,
      "duration": 0.109,
      "velocity": 94,
      "chip": "ym2612"
    },
    {
      "channel": 0,
      "note": 54,
      "start": 320.8568,
      "duration": 0.0154,
      "velocity": 127,
      "chip": "ym2612"
    },
    {
      "channel": 5,
      "note": 76,
      "start": 320.8575,
      "duration": 0.1089,
      "velocity": 94,
      "chip": "ym2612"
    },
    {
      "channel": 0,
      "note": 76,
      "start": 320.8722,
      "duration": 0.0936,
      "velocity": 114,
      "chip": "ym2612"
    },
    {
      "channel": 0,
      "note": 68,
      "start": 320.9658,
      "duration": 0.0309,
      "velocity": 114,
      "chip": "ym2612"
    },
    {
      "channel": 1,
      "note": 64,
      "start": 320.9659,
      "duration": 0.2179,
      "velocity": 93,
      "chip": "ym2612"
    },
    {
      "channel": 3,
      "note": 76,
      "start": 320.9661,
      "duration": 0.1089,
      "velocity": 94,
      "chip": "ym2612"
    },
    {
      "channel": 5,
      "note": 78,
      "start": 320.9664,
      "duration": 0.1088,
      "velocity": 94,
      "chip": "ym2612"
    },
    {
      "channel": 0,
      "note": 98,
      "start": 321.0747,
      "duration": 0.0309,
      "velocity": 114,
      "chip": "ym2612"
    },
    {
      "channel": 5,
      "note": 81,
      "start": 321.0752,
      "duration": 0.1092,
      "velocity": 94,
      "chip": "ym2612"
    },
    {
      "channel": 0,
      "note": 98,
      "start": 321.1837,
      "duration": 0.1089,
      "velocity": 114,
      "chip": "ym2612"
    },
    {
      "channel": 1,
      "note": 64,
      "start": 321.1838,
      "duration": 0.2178,
      "velocity": 93,
      "chip": "ym2612"
    },
    {
      "channel": 2,
      "note": 52,
      "start": 321.184,
      "duration": 3.0504,
      "velocity": 121,
      "chip": "ym2612"
    },
    {
      "channel": 3,
      "note": 78,
      "start": 321.1841,
      "duration": 0.1088,
      "velocity": 94,
      "chip": "ym2612"
    },
    {
      "channel": 5,
      "note": 69,
      "start": 321.1844,
      "duration": 0.1087,
      "velocity": 94,
      "chip": "ym2612"
    },
    {
      "channel": 0,
      "note": 54,
      "start": 321.2926,
      "duration": 0.0309,
      "velocity": 114,
      "chip": "ym2612"
    },
    {
      "channel": 3,
      "note": 81,
      "start": 321.2929,
      "duration": 0.109,
      "velocity": 94,
      "chip": "ym2612"
    },
    {
      "channel": 5,
      "note": 74,
      "start": 321.2931,
      "duration": 0.1089,
      "velocity": 94,
      "chip": "ym2612"
    },
    {
      "channel": 4,
      "note": 52,
      "start": 321.3705,
      "duration": 3.0504,
      "velocity": 121,
      "chip": "ym2612"
    },
    {
      "channel": 0,
      "note": 98,
      "start": 321.4016,
      "duration": 0.0309,
      "velocity": 114,
      "chip": "ym2612"
    },
    {
      "channel": 1,
      "note": 67,
      "start": 321.4017,
      "duration": 0.2179,
      "velocity": 93,
      "chip": "ym2612"
    },
    {
      "channel": 3,
      "note": 69,
      "start": 321.4019,
      "duration": 0.1089,
      "velocity": 94,
      "chip": "ym2612"
    },
    {
      "channel": 0,
      "note": 98,
      "start": 321.5105,
      "duration": 0.0309,
      "velocity": 114,
      "chip": "ym2612"
    },
    {
      "channel": 3,
      "note": 74,
      "start": 321.5108,
      "duration": 0.109,
      "velocity": 94,
      "chip": "ym2612"
    },
    {
      "channel": 5,
      "note": 76,
      "start": 321.511,
      "duration": 0.109,
      "velocity": 94,
      "chip": "ym2612"
    },
    {
      "channel": 0,
      "note": 98,
      "start": 321.6194,
      "duration": 0.0154,
      "velocity": 127,
      "chip": "ym2612"
    },
    {
      "channel": 1,
      "note": 67,
      "start": 321.6196,
      "duration": 0.2178,
      "velocity": 93,
      "chip": "ym2612"
    },
    {
      "channel": 5,
      "note": 81,
      "start": 321.62,
      "duration": 0.1089,
      "velocity": 94,
      "chip": "ym2612"
    },
    {
      "channel": 0,
      "note": 76,
      "start": 321.6348,
      "duration": 0.0936,
      "velocity": 114,
      "chip": "ym2612"
    },
    {
      "channel": 0,
      "note": 68,
      "start": 321.7284,
      "duration": 0.0309,
      "velocity": 114,
      "chip": "ym2612"
    },
    {
      "channel": 3,
      "note": 76,
      "start": 321.7287,
      "duration": 0.109,
      "velocity": 94,
      "chip": "ym2612"
    },
    {
      "channel": 5,
      "note": 69,
      "start": 321.7289,
      "duration": 0.109,
      "velocity": 94,
      "chip": "ym2612"
    },
    {
      "channel": 0,
      "note": 98,
      "start": 321.8373,
      "duration": 0.0309,
      "velocity": 114,
      "chip": "ym2612"
    },
    {
      "channel": 1,
      "note": 67,
      "start": 321.8374,
      "duration": 0.2179,
      "velocity": 93,
      "chip": "ym2612"
    },
    {
      "channel": 3,
      "note": 81,
      "start": 321.8376,
      "duration": 0.1089,
      "velocity": 94,
      "chip": "ym2612"
    },
    {
      "channel": 5,
      "note": 81,
      "start": 321.8379,
      "duration": 0.1089,
      "velocity": 94,
      "chip": "ym2612"
    },
    {
      "channel": 0,
      "note": 98,
      "start": 321.9463,
      "duration": 0.0309,
      "velocity": 114,
      "chip": "ym2612"
    },
    {
      "channel": 3,
      "note": 69,
      "start": 321.9465,
      "duration": 0.109,
      "velocity": 94,
      "chip": "ym2612"
    },
    {
      "channel": 5,
      "note": 71,
      "start": 321.9468,
      "duration": 0.109,
      "velocity": 94,
      "chip": "ym2612"
    },
    {
      "channel": 0,
      "note": 98,
      "start": 322.0552,
      "duration": 0.1089,
      "velocity": 114,
      "chip": "ym2612"
    },
    {
      "channel": 1,
      "note": 67,
      "start": 322.0554,
      "duration": 0.2178,
      "velocity": 93,
      "chip": "ym2612"
    },
    {
      "channel": 3,
      "note": 81,
      "start": 322.0556,
      "duration": 0.1089,
      "velocity": 94,
      "chip": "ym2612"
    },
    {
      "channel": 5,
      "note": 74,
      "start": 322.0558,
      "duration": 0.1088,
      "velocity": 94,
      "chip": "ym2612"
    },
    {
      "channel": 0,
      "note": 54,
      "start": 322.1641,
      "duration": 0.0309,
      "velocity": 114,
      "chip": "ym2612"
    },
    {
      "channel": 3,
      "note": 71,
      "start": 322.1644,
      "duration": 0.109,
      "velocity": 94,
      "chip": "ym2612"
    },
    {
      "channel": 0,
      "note": 98,
      "start": 322.2731,
      "duration": 0.0309,
      "velocity": 114,
      "chip": "ym2612"
    },
    {
      "channel": 1,
      "note": 67,
      "start": 322.2732,
      "duration": 0.2179,
      "velocity": 93,
      "chip": "ym2612"
    },
    {
      "channel": 3,
      "note": 74,
      "start": 322.2734,
      "duration": 0.1089,
      "velocity": 94,
      "chip": "ym2612"
    },
    {
      "channel": 5,
      "note": 76,
      "start": 322.2738,
      "duration": 0.1088,
      "velocity": 94,
      "chip": "ym2612"
    },
    {
      "channel": 0,
      "note": 98,
      "start": 322.382,
      "duration": 0.0309,
      "velocity": 114,
      "chip": "ym2612"
    },
    {
      "channel": 5,
      "note": 78,
      "start": 322.3826,
      "duration": 0.109,
      "velocity": 94,
      "chip": "ym2612"
    },
    {
      "channel": 0,
      "note": 98,
      "start": 322.491,
      "duration": 0.0154,
      "velocity": 127,
      "chip": "ym2612"
    },
    {
      "channel": 1,
      "note": 67,
      "start": 322.4911,
      "duration": 0.2178,
      "velocity": 93,
      "chip": "ym2612"
    },
    {
      "channel": 3,
      "note": 76,
      "start": 322.4913,
      "duration": 0.1089,
      "velocity": 94,
      "chip": "ym2612"
    },
    {
      "channel": 5,
      "note": 81,
      "start": 322.4915,
      "duration": 0.1089,
      "velocity": 94,
      "chip": "ym2612"
    },
    {
      "channel": 0,
      "note": 76,
      "start": 322.5063,
      "duration": 0.0936,
      "velocity": 114,
      "chip": "ym2612"
    },
    {
      "channel": 0,
      "note": 68,
      "start": 322.5999,
      "duration": 0.0309,
      "velocity": 114,
      "chip": "ym2612"
    },
    {
      "channel": 5,
      "note": 69,
      "start": 322.6004,
      "duration": 0.1091,
      "velocity": 94,
      "chip": "ym2612"
    },
    {
      "channel": 0,
      "note": 98,
      "start": 322.7089,
      "duration": 0.0309,
      "velocity": 114,
      "chip": "ym2612"
    },
    {
      "channel": 1,
      "note": 67,
      "start": 322.709,
      "duration": 0.2179,
      "velocity": 93,
      "chip": "ym2612"
    },
    {
      "channel": 3,
      "note": 78,
      "start": 322.7093,
      "duration": 0.1088,
      "velocity": 94,
      "chip": "ym2612"
    },
    {
      "channel": 5,
      "note": 74,
      "start": 322.7095,
      "duration": 0.1088,
      "velocity": 94,
      "chip": "ym2612"
    },
    {
      "channel": 0,
      "note": 98,
      "start": 322.8178,
      "duration": 0.0309,
      "velocity": 114,
      "chip": "ym2612"
    },
    {
      "channel": 3,
      "note": 81,
      "start": 322.8181,
      "duration": 0.109,
      "velocity": 94,
      "chip": "ym2612"
    },
    {
      "channel": 0,
      "note": 98,
      "start": 322.9268,
      "duration": 0.1089,
      "velocity": 114,
      "chip": "ym2612"
    },
    {
      "channel": 1,
      "note": 67,
      "start": 322.9269,
      "duration": 0.2178,
      "velocity": 93,
      "chip": "ym2612"
    },
    {
      "channel": 3,
      "note": 69,
      "start": 322.9271,
      "duration": 0.1089,
      "velocity": 94,
      "chip": "ym2612"
    },
    {
      "channel": 5,
      "note": 76,
      "start": 322.9273,
      "duration": 0.1089,
      "velocity": 94,
      "chip": "ym2612"
    },
    {
      "channel": 0,
      "note": 54,
      "start": 323.0357,
      "duration": 0.0309,
      "velocity": 114,
      "chip": "ym2612"
    },
    {
      "channel": 3,
      "note": 74,
      "start": 323.036,
      "duration": 0.109,
      "velocity": 94,
      "chip": "ym2612"
    },
    {
      "channel": 5,
      "note": 81,
      "start": 323.0362,
      "duration": 0.1089,
      "velocity": 94,
      "chip": "ym2612"
    },
    {
      "channel": 0,
      "note": 98,
      "start": 323.1446,
      "duration": 0.0309,
      "velocity": 114,
      "chip": "ym2612"
    },
    {
      "channel": 1,
      "note": 67,
      "start": 323.1447,
      "duration": 0.2179,
      "velocity": 93,
      "chip": "ym2612"
    },
    {
      "channel": 5,
      "note": 69,
      "start": 323.1451,
      "duration": 0.1089,
      "velocity": 94,
      "chip": "ym2612"
    },
    {
      "channel": 0,
      "note": 98,
      "start": 323.2536,
      "duration": 0.0309,
      "velocity": 114,
      "chip": "ym2612"
    },
    {
      "channel": 3,
      "note": 76,
      "start": 323.2538,
      "duration": 0.109,
      "velocity": 94,
      "chip": "ym2612"
    },
    {
      "channel": 5,
      "note": 81,
      "start": 323.2541,
      "duration": 0.109,
      "velocity": 94,
      "chip": "ym2612"
    },
    {
      "channel": 0,
      "note": 98,
      "start": 323.3625,
      "duration": 0.0154,
      "velocity": 127,
      "chip": "ym2612"
    },
    {
      "channel": 1,
      "note": 67,
      "start": 323.3627,
      "duration": 0.2178,
      "velocity": 93,
      "chip": "ym2612"
    },
    {
      "channel": 3,
      "note": 81,
      "start": 323.3628,
      "duration": 0.1089,
      "velocity": 94,
      "chip": "ym2612"
    },
    {
      "channel": 5,
      "note": 71,
      "start": 323.3631,
      "duration": 0.1089,
      "velocity": 94,
      "chip": "ym2612"
    },
    {
      "channel": 0,
      "note": 76,
      "start": 323.3779,
      "duration": 0.0936,
      "velocity": 114,
      "chip": "ym2612"
    },
    {
      "channel": 0,
      "note": 68,
      "start": 323.4715,
      "duration": 0.0309,
      "velocity": 114,
      "chip": "ym2612"
    },
    {
      "channel": 3,
      "note": 69,
      "start": 323.4717,
      "duration": 0.109,
      "velocity": 94,
      "chip": "ym2612"
    },
    {
      "channel": 5,
      "note": 74,
      "start": 323.472,
      "duration": 0.109,
      "velocity": 94,
      "chip": "ym2612"
    },
    {
      "channel": 0,
      "note": 98,
      "start": 323.5804,
      "duration": 0.0309,
      "velocity": 114,
      "chip": "ym2612"
    },
    {
      "channel": 1,
      "note": 67,
      "start": 323.5805,
      "duration": 0.2179,
      "velocity": 93,
      "chip": "ym2612"
    },
    {
      "channel": 3,
      "note": 81,
      "start": 323.5807,
      "duration": 0.1089,
      "velocity": 94,
      "chip": "ym2612"
    },
    {
      "channel": 0,
      "note": 98,
      "start": 323.6893,
      "duration": 0.0309,
      "velocity": 114,
      "chip": "ym2612"
    },
    {
      "channel": 3,
      "note": 71,
      "start": 323.6896,
      "duration": 0.109,
      "velocity": 94,
      "chip": "ym2612"
    },
    {
      "channel": 5,
      "note": 76,
      "start": 323.6898,
      "duration": 0.1091,
      "velocity": 94,
      "chip": "ym2612"
    },
    {
      "channel": 0,
      "note": 98,
      "start": 323.7983,
      "duration": 0.1091,
      "velocity": 127,
      "chip": "ym2612"
    },
    {
      "channel": 1,
      "note": 67,
      "start": 323.7984,
      "duration": 0.2178,
      "velocity": 93,
      "chip": "ym2612"
    },
    {
      "channel": 3,
      "note": 74,
      "start": 323.7986,
      "duration": 0.109,
      "velocity": 94,
      "chip": "ym2612"
    },
    {
      "channel": 5,
      "note": 78,
      "start": 323.7989,
      "duration": 0.109,
      "velocity": 94,
      "chip": "ym2612"
    },
    {
      "channel": 0,
      "note": 54,
      "start": 323.9074,
      "duration": 0.0152,
      "velocity": 127,
      "chip": "ym2612"
    },
    {
      "channel": 5,
      "note": 81,
      "start": 323.9079,
      "duration": 0.1088,
      "velocity": 94,
      "chip": "ym2612"
    },
    {
      "channel": 0,
      "note": 76,
      "start": 323.9226,
      "duration": 0.0936,
      "velocity": 114,
      "chip": "ym2612"
    },
    {
      "channel": 0,
      "note": 68,
      "start": 324.0162,
      "duration": 0.0309,
      "velocity": 114,
      "chip": "ym2612"
    },
    {
      "channel": 1,
      "note": 67,
      "start": 324.0163,
      "duration": 0.2179,
      "velocity": 93,
      "chip": "ym2612"
    },
    {
      "channel": 3,
      "note": 76,
      "start": 324.0165,
      "duration": 0.1089,
      "velocity": 94,
      "chip": "ym2612"
    },
    {
      "channel": 5,
      "note": 69,
      "start": 324.0167,
      "duration": 0.1089,
      "velocity": 94,
      "chip": "ym2612"
    },
    {
      "channel": 0,
      "note": 98,
      "start": 324.1251,
      "duration": 0.0309,
      "velocity": 114,
      "chip": "ym2612"
    },
    {
      "channel": 5,
      "note": 74,
      "start": 324.1256,
      "duration": 0.1092,
      "velocity": 94,
      "chip": "ym2612"
    },
    {
      "channel": 0,
      "note": 98,
      "start": 324.2341,
      "duration": 0.1089,
      "velocity": 114,
      "chip": "ym2612"
    },
    {
      "channel": 1,
      "note": 67,
      "start": 324.2342,
      "duration": 0.1867,
      "velocity": 93,
      "chip": "ym2612"
    },
    {
      "channel": 2,
      "note": 43,
      "start": 324.2344,
      "duration": 0.1866,
      "velocity": 121,
      "chip": "ym2612"
    },
    {
      "channel": 3,
      "note": 78,
      "start": 324.2345,
      "duration": 0.1087,
      "velocity": 94,
      "chip": "ym2612"
    },
    {
      "channel": 0,
      "note": 54,
      "start": 324.343,
      "duration": 0.0309,
      "velocity": 114,
      "chip": "ym2612"
    },
    {
      "channel": 3,
      "note": 81,
      "start": 324.3432,
      "duration": 0.0777,
      "velocity": 94,
      "chip": "ym2612"
    },
    {
      "channel": 5,
      "note": 76,
      "start": 324.3435,
      "duration": 0.0775,
      "velocity": 94,
      "chip": "ym2612"
    }
  ]
}