{
  "track_name": "04 - Savage Land",
  "duration_sec": 90.017,
  "sample_rate": 44100,
  "note_count": 1395,
  "unique_pitches": 13,
  "pitch_range": 17,
  "avg_note_duration": 0.0932,
  "reconstruction_stats": {
    "notes_reconstructed": 1395,
    "keyon_events": 1395,
    "keyoff_events": 1394,
    "orphan_keyons": 1,
    "unique_pitches": 13,
    "pitch_range": 17,
    "avg_duration_sec": 0.0932
  },
  "metadata": {
    "source": "X\\X-Men\\04 - Savage Land.vgz"
  },
  "notes": [
    {
      "channel": 2,
      "note": 51,
      "start": 0.0,
      "duration": 0.1107,
      "velocity": 110,
      "chip": "ym2612"
    },
    {
      "channel": 4,
      "note": 55,
      "start": 0.0084,
      "duration": 0.0522,
      "velocity": 126,
      "chip": "ym2612"
    },
    {
      "channel": 2,
      "note": 51,
      "start": 0.1471,
      "duration": 0.0803,
      "velocity": 110,
      "chip": "ym2612"
    },
    {
      "channel": 4,
      "note": 51,
      "start": 0.1498,
      "duration": 0.0775,
      "velocity": 126,
      "chip": "ym2612"
    },
    {
      "channel": 4,
      "note": 55,
      "start": 0.2807,
      "duration": 0.0632,
      "velocity": 126,
      "chip": "ym2612"
    },
    {
      "channel": 2,
      "note": 51,
      "start": 0.4133,
      "duration": 0.1474,
      "velocity": 110,
      "chip": "ym2612"
    },
    {
      "channel": 4,
      "note": 51,
      "start": 0.4161,
      "duration": 0.0945,
      "velocity": 126,
      "chip": "ym2612"
    },
    {
      "channel": 2,
      "note": 51,
      "start": 0.5635,
      "duration": 0.0805,
      "velocity": 110,
      "chip": "ym2612"
    },
    {
      "channel": 3,
      "note": 45,
      "start": 0.5663,
      "duration": 0.2444,
      "velocity": 113,
      "chip": "ym2612"
    },
    {
      "channel": 4,
      "note": 53,
      "start": 0.5691,
      "duration": 0.0581,
      "velocity": 126,
      "chip": "ym2612"
    },
    {
      "channel": 4,
      "note": 53,
      "start": 0.847,
      "duration": 0.0636,
      "velocity": 126,
      "chip": "ym2612"
    },
    {
      "channel": 2,
      "note": 51,
      "start": 0.9801,
      "duration": 0.114,
      "velocity": 110,
      "chip": "ym2612"
    },
    {
      "channel": 4,
      "note": 51,
      "start": 0.9828,
      "duration": 0.0945,
      "velocity": 126,
      "chip": "ym2612"
    },
    {
      "channel": 2,
      "note": 51,
      "start": 1.1299,
      "duration": 0.114,
      "velocity": 110,
      "chip": "ym2612"
    },
    {
      "channel": 4,
      "note": 55,
      "start": 1.1327,
      "duration": 0.028,
      "velocity": 126,
      "chip": "ym2612"
    },
    {
      "channel": 4,
      "note": 51,
      "start": 1.2637,
      "duration": 0.0969,
      "velocity": 126,
      "chip": "ym2612"
    },
    {
      "channel": 4,
      "note": 55,
      "start": 1.3973,
      "duration": 0.08,
      "velocity": 126,
      "chip": "ym2612"
    },
    {
      "channel": 2,
      "note": 51,
      "start": 1.5465,
      "duration": 0.1142,
      "velocity": 110,
      "chip": "ym2612"
    },
    {
      "channel": 4,
      "note": 51,
      "start": 1.5492,
      "duration": 0.0948,
      "velocity": 126,
      "chip": "ym2612"
    },
    {
      "channel": 2,
      "note": 51,
      "start": 1.6803,
      "duration": 0.097,
      "velocity": 110,
      "chip": "ym2612"
    },
    {
      "channel": 3,
      "note": 45,
      "start": 1.6828,
      "duration": 0.2611,
      "velocity": 113,
      "chip": "ym2612"
    },
    {
      "channel": 4,
      "note": 53,
      "start": 1.6856,
      "duration": 0.075,
      "velocity": 126,
      "chip": "ym2612"
    },
    {
      "channel": 2,
      "note": 51,
      "start": 1.8299,
      "duration": 0.1142,
      "velocity": 110,
      "chip": "ym2612"
    },
    {
      "channel": 2,
      "note": 51,
      "start": 1.9633,
      "duration": 0.0974,
      "velocity": 110,
      "chip": "ym2612"
    },
    {
      "channel": 4,
      "note": 53,
      "start": 1.9662,
      "duration": 0.0444,
      "velocity": 126,
      "chip": "ym2612"
    },
    {
      "channel": 2,
      "note": 51,
      "start": 2.1133,
      "duration": 0.1141,
      "velocity": 110,
      "chip": "ym2612"
    },
    {
      "channel": 4,
      "note": 51,
      "start": 2.116,
      "duration": 0.0779,
      "velocity": 126,
      "chip": "ym2612"
    },
    {
      "channel": 2,
      "note": 51,
      "start": 2.2466,
      "duration": 0.0974,
      "velocity": 110,
      "chip": "ym2612"
    },
    {
      "channel": 4,
      "note": 55,
      "start": 2.2493,
      "duration": 0.0446,
      "velocity": 126,
      "chip": "ym2612"
    },
    {
      "channel": 2,
      "note": 51,
      "start": 2.3968,
      "duration": 0.1139,
      "velocity": 110,
      "chip": "ym2612"
    },
    {
      "channel": 4,
      "note": 51,
      "start": 2.3995,
      "duration": 0.0611,
      "velocity": 126,
      "chip": "ym2612"
    },
    {
      "channel": 4,
      "note": 55,
      "start": 2.5307,
      "duration": 0.0466,
      "velocity": 126,
      "chip": "ym2612"
    },
    {
      "channel": 2,
      "note": 51,
      "start": 2.6633,
      "duration": 0.1474,
      "velocity": 110,
      "chip": "ym2612"
    },
    {
      "channel": 4,
      "note": 51,
      "start": 2.6661,
      "duration": 0.1111,
      "velocity": 126,
      "chip": "ym2612"
    },
    {
      "channel": 2,
      "note": 51,
      "start": 2.8139,
      "duration": 0.1635,
      "velocity": 110,
      "chip": "ym2612"
    },
    {
      "channel": 3,
      "note": 45,
      "start": 2.8169,
      "duration": 0.2269,
      "velocity": 113,
      "chip": "ym2612"
    },
    {
      "channel": 4,
      "note": 53,
      "start": 2.8197,
      "duration": 0.0409,
      "velocity": 126,
      "chip": "ym2612"
    },
    {
      "channel": 4,
      "note": 53,
      "start": 3.097,
      "duration": 0.0469,
      "velocity": 126,
      "chip": "ym2612"
    },
    {
      "channel": 2,
      "note": 51,
      "start": 3.2299,
      "duration": 0.1483,
      "velocity": 110,
      "chip": "ym2612"
    },
    {
      "channel": 4,
      "note": 51,
      "start": 3.2327,
      "duration": 0.0946,
      "velocity": 126,
      "chip": "ym2612"
    },
    {
      "channel": 2,
      "note": 51,
      "start": 3.3801,
      "duration": 0.1974,
      "velocity": 110,
      "chip": "ym2612"
    },
    {
      "channel": 4,
      "note": 55,
      "start": 3.3828,
      "duration": 0.0278,
      "velocity": 126,
      "chip": "ym2612"
    },
    {
      "channel": 4,
      "note": 51,
      "start": 3.5136,
      "duration": 0.0637,
      "velocity": 126,
      "chip": "ym2612"
    },
    {
      "channel": 4,
      "note": 55,
      "start": 3.6637,
      "duration": 0.0303,
      "velocity": 126,
      "chip": "ym2612"
    },
    {
      "channel": 2,
      "note": 51,
      "start": 3.7967,
      "duration": 0.1141,
      "velocity": 110,
      "chip": "ym2612"
    },
    {
      "channel": 4,
      "note": 51,
      "start": 3.7998,
      "duration": 0.1109,
      "velocity": 126,
      "chip": "ym2612"
    },
    {
      "channel": 2,
      "note": 51,
      "start": 3.9299,
      "duration": 0.0974,
      "velocity": 110,
      "chip": "ym2612"
    },
    {
      "channel": 3,
      "note": 45,
      "start": 3.9324,
      "duration": 0.228,
      "velocity": 113,
      "chip": "ym2612"
    },
    {
      "channel": 4,
      "note": 53,
      "start": 3.9352,
      "duration": 0.0421,
      "velocity": 126,
      "chip": "ym2612"
    },
    {
      "channel": 2,
      "note": 51,
      "start": 4.0797,
      "duration": 0.081,
      "velocity": 110,
      "chip": "ym2612"
    },
    {
      "channel": 2,
      "note": 51,
      "start": 4.213,
      "duration": 0.0976,
      "velocity": 110,
      "chip": "ym2612"
    },
    {
      "channel": 4,
      "note": 53,
      "start": 4.2158,
      "duration": 0.0448,
      "velocity": 126,
      "chip": "ym2612"
    },
    {
      "channel": 2,
      "note": 51,
      "start": 4.3635,
      "duration": 0.1139,
      "velocity": 110,
      "chip": "ym2612"
    },
    {
      "channel": 4,
      "note": 51,
      "start": 4.3663,
      "duration": 0.0776,
      "velocity": 126,
      "chip": "ym2612"
    },
    {
      "channel": 2,
      "note": 51,
      "start": 4.4966,
      "duration": 0.0641,
      "velocity": 110,
      "chip": "ym2612"
    },
    {
      "channel": 4,
      "note": 55,
      "start": 4.4993,
      "duration": 0.0447,
      "velocity": 126,
      "chip": "ym2612"
    },
    {
      "channel": 2,
      "note": 51,
      "start": 4.6467,
      "duration": 0.114,
      "velocity": 110,
      "chip": "ym2612"
    },
    {
      "channel": 4,
      "note": 51,
      "start": 4.6494,
      "duration": 0.0779,
      "velocity": 126,
      "chip": "ym2612"
    },
    {
      "channel": 4,
      "note": 55,
      "start": 4.7804,
      "duration": 0.0469,
      "velocity": 126,
      "chip": "ym2612"
    },
    {
      "channel": 2,
      "note": 51,
      "start": 4.9134,
      "duration": 0.1473,
      "velocity": 110,
      "chip": "ym2612"
    },
    {
      "channel": 4,
      "note": 51,
      "start": 4.9165,
      "duration": 0.1108,
      "velocity": 126,
      "chip": "ym2612"
    },
    {
      "channel": 2,
      "note": 51,
      "start": 5.0635,
      "duration": 0.1139,
      "velocity": 110,
      "chip": "ym2612"
    },
    {
      "channel": 3,
      "note": 45,
      "start": 5.0661,
      "duration": 0.2445,
      "velocity": 113,
      "chip": "ym2612"
    },
    {
      "channel": 4,
      "note": 53,
      "start": 5.0689,
      "duration": 0.0585,
      "velocity": 126,
      "chip": "ym2612"
    },
    {
      "channel": 4,
      "note": 53,
      "start": 5.3471,
      "duration": 0.0468,
      "velocity": 126,
      "chip": "ym2612"
    },
    {
      "channel": 2,
      "note": 51,
      "start": 5.4801,
      "duration": 0.1473,
      "velocity": 110,
      "chip": "ym2612"
    },
    {
      "channel": 4,
      "note": 51,
      "start": 5.4828,
      "duration": 0.1111,
      "velocity": 126,
      "chip": "ym2612"
    },
    {
      "channel": 2,
      "note": 51,
      "start": 5.6305,
      "duration": 0.1968,
      "velocity": 110,
      "chip": "ym2612"
    },
    {
      "channel": 4,
      "note": 55,
      "start": 5.6332,
      "duration": 0.0274,
      "velocity": 126,
      "chip": "ym2612"
    },
    {
      "channel": 4,
      "note": 51,
      "start": 5.7637,
      "duration": 0.097,
      "velocity": 126,
      "chip": "ym2612"
    },
    {
      "channel": 4,
      "note": 55,
      "start": 5.9136,
      "duration": 0.0636,
      "velocity": 126,
      "chip": "ym2612"
    },
    {
      "channel": 2,
      "note": 51,
      "start": 6.0467,
      "duration": 0.114,
      "velocity": 110,
      "chip": "ym2612"
    },
    {
      "channel": 4,
      "note": 51,
      "start": 6.0498,
      "duration": 0.1108,
      "velocity": 126,
      "chip": "ym2612"
    },
    {
      "channel": 2,
      "note": 51,
      "start": 6.1799,
      "duration": 0.0808,
      "velocity": 110,
      "chip": "ym2612"
    },
    {
      "channel": 3,
      "note": 45,
      "start": 6.1824,
      "duration": 0.2616,
      "velocity": 113,
      "chip": "ym2612"
    },
    {
      "channel": 4,
      "note": 53,
      "start": 6.1851,
      "duration": 0.0421,
      "velocity": 126,
      "chip": "ym2612"
    },
    {
      "channel": 2,
      "note": 51,
      "start": 6.3299,
      "duration": 0.0808,
      "velocity": 110,
      "chip": "ym2612"
    },
    {
      "channel": 2,
      "note": 51,
      "start": 6.4632,
      "duration": 0.0808,
      "velocity": 110,
      "chip": "ym2612"
    },
    {
      "channel": 4,
      "note": 53,
      "start": 6.4659,
      "duration": 0.0447,
      "velocity": 126,
      "chip": "ym2612"
    },
    {
      "channel": 2,
      "note": 51,
      "start": 6.6132,
      "duration": 0.1142,
      "velocity": 110,
      "chip": "ym2612"
    },
    {
      "channel": 4,
      "note": 51,
      "start": 6.6159,
      "duration": 0.1114,
      "velocity": 126,
      "chip": "ym2612"
    },
    {
      "channel": 2,
      "note": 51,
      "start": 6.7466,
      "duration": 0.0974,
      "velocity": 110,
      "chip": "ym2612"
    },
    {
      "channel": 4,
      "note": 55,
      "start": 6.7493,
      "duration": 0.0446,
      "velocity": 126,
      "chip": "ym2612"
    },
    {
      "channel": 2,
      "note": 51,
      "start": 6.897,
      "duration": 0.0805,
      "velocity": 110,
      "chip": "ym2612"
    },
    {
      "channel": 4,
      "note": 51,
      "start": 6.8997,
      "duration": 0.0776,
      "velocity": 126,
      "chip": "ym2612"
    },
    {
      "channel": 4,
      "note": 55,
      "start": 7.0302,
      "duration": 0.047,
      "velocity": 126,
      "chip": "ym2612"
    },
    {
      "channel": 2,
      "note": 51,
      "start": 7.1634,
      "duration": 0.1307,
      "velocity": 110,
      "chip": "ym2612"
    },
    {
      "channel": 4,
      "note": 51,
      "start": 7.1661,
      "duration": 0.1278,
      "velocity": 126,
      "chip": "ym2612"
    },
    {
      "channel": 2,
      "note": 51,
      "start": 7.3135,
      "duration": 0.0971,
      "velocity": 110,
      "chip": "ym2612"
    },
    {
      "channel": 3,
      "note": 45,
      "start": 7.3161,
      "duration": 0.2112,
      "velocity": 113,
      "chip": "ym2612"
    },
    {
      "channel": 4,
      "note": 53,
      "start": 7.3192,
      "duration": 0.0414,
      "velocity": 126,
      "chip": "ym2612"
    },
    {
      "channel": 4,
      "note": 53,
      "start": 7.5969,
      "duration": 0.0136,
      "velocity": 126,
      "chip": "ym2612"
    },
    {
      "channel": 2,
      "note": 51,
      "start": 7.7301,
      "duration": 0.1472,
      "velocity": 110,
      "chip": "ym2612"
    },
    {
      "channel": 2,
      "note": 51,
      "start": 7.8801,
      "duration": 0.1974,
      "velocity": 110,
      "chip": "ym2612"
    },
    {
      "channel": 4,
      "note": 53,
      "start": 7.8829,
      "duration": 0.0443,
      "velocity": 126,
      "chip": "ym2612"
    },
    {
      "channel": 4,
      "note": 51,
      "start": 8.0138,
      "duration": 0.0635,
      "velocity": 126,
      "chip": "ym2612"
    },
    {
      "channel": 2,
      "note": 51,
      "start": 8.2967,
      "duration": 0.114,
      "velocity": 110,
      "chip": "ym2612"
    },
    {
      "channel": 4,
      "note": 51,
      "start": 8.2995,
      "duration": 0.0945,
      "velocity": 126,
      "chip": "ym2612"
    },
    {
      "channel": 2,
      "note": 51,
      "start": 8.4303,
      "duration": 0.0804,
      "velocity": 110,
      "chip": "ym2612"
    },
    {
      "channel": 3,
      "note": 45,
      "start": 8.4328,
      "duration": 0.2111,
      "velocity": 113,
      "chip": "ym2612"
    },
    {
      "channel": 4,
      "note": 53,
      "start": 8.4354,
      "duration": 0.0419,
      "velocity": 126,
      "chip": "ym2612"
    },
    {
      "channel": 0,
      "note": 62,
      "start": 8.439,
      "duration": 0.1881,
      "velocity": 122,
      "chip": "ym2612"
    },
    {
      "channel": 2,
      "note": 51,
      "start": 8.5799,
      "duration": 0.1141,
      "velocity": 110,
      "chip": "ym2612"
    },
    {
      "channel": 4,
      "note": 51,
      "start": 8.583,
      "duration": 0.061,
      "velocity": 126,
      "chip": "ym2612"
    },
    {
      "channel": 1,
      "note": 52,
      "start": 8.5868,
      "duration": 0.0904,
      "velocity": 122,
      "chip": "ym2612"
    },
    {
      "channel": 2,
      "note": 51,
      "start": 8.7132,
      "duration": 0.0976,
      "velocity": 110,
      "chip": "ym2612"
    },
    {
      "channel": 4,
      "note": 53,
      "start": 8.7159,
      "duration": 0.0447,
      "velocity": 126,
      "chip": "ym2612"
    },
    {
      "channel": 0,
      "note": 52,
      "start": 8.7193,
      "duration": 0.1413,
      "velocity": 122,
      "chip": "ym2612"
    },
    {
      "channel": 2,
      "note": 51,
      "start": 8.8633,
      "duration": 0.1141,
      "velocity": 110,
      "chip": "ym2612"
    },
    {
      "channel": 4,
      "note": 51,
      "start": 8.8661,
      "duration": 0.0777,
      "velocity": 126,
      "chip": "ym2612"
    },
    {
      "channel": 2,
      "note": 51,
      "start": 8.9966,
      "duration": 0.0976,
      "velocity": 110,
      "chip": "ym2612"
    },
    {
      "channel": 4,
      "note": 55,
      "start": 8.9993,
      "duration": 0.0446,
      "velocity": 126,
      "chip": "ym2612"
    },
    {
      "channel": 0,
      "note": 52,
      "start": 9.0037,
      "duration": 0.1568,
      "velocity": 122,
      "chip": "ym2612"
    },
    {
      "channel": 5,
      "note": 54,
      "start": 9.0068,
      "duration": 0.0872,
      "velocity": 127,
      "chip": "ym2612"
    },
    {
      "channel": 2,
      "note": 51,
      "start": 9.1467,
      "duration": 0.1141,
      "velocity": 110,
      "chip": "ym2612"
    },
    {
      "channel": 4,
      "note": 51,
      "start": 9.1494,
      "duration": 0.0612,
      "velocity": 126,
      "chip": "ym2612"
    },
    {
      "channel": 5,
      "note": 52,
      "start": 9.1536,
      "duration": 0.1071,
      "velocity": 127,
      "chip": "ym2612"
    },
    {
      "channel": 4,
      "note": 55,
      "start": 9.2804,
      "duration": 0.0135,
      "velocity": 126,
      "chip": "ym2612"
    },
    {
      "channel": 5,
      "note": 54,
      "start": 9.2842,
      "duration": 0.1098,
      "velocity": 127,
      "chip": "ym2612"
    },
    {
      "channel": 2,
      "note": 51,
      "start": 9.4298,
      "duration": 0.1142,
      "velocity": 110,
      "chip": "ym2612"
    },
    {
      "channel": 4,
      "note": 51,
      "start": 9.4326,
      "duration": 0.078,
      "velocity": 126,
      "chip": "ym2612"
    },
    {
      "channel": 2,
      "note": 51,
      "start": 9.5636,
      "duration": 0.1137,
      "velocity": 110,
      "chip": "ym2612"
    },
    {
      "channel": 3,
      "note": 45,
      "start": 9.5662,
      "duration": 0.2277,
      "velocity": 113,
      "chip": "ym2612"
    },
    {
      "channel": 4,
      "note": 53,
      "start": 9.5694,
      "duration": 0.0412,
      "velocity": 126,
      "chip": "ym2612"
    },
    {
      "channel": 4,
      "note": 53,
      "start": 9.8469,
      "duration": 0.047,
      "velocity": 126,
      "chip": "ym2612"
    },
    {
      "channel": 5,
      "note": 54,
      "start": 9.8507,
      "duration": 0.0765,
      "velocity": 127,
      "chip": "ym2612"
    },
    {
      "channel": 2,
      "note": 51,
      "start": 9.9801,
      "duration": 0.1473,
      "velocity": 110,
      "chip": "ym2612"
    },
    {
      "channel": 4,
      "note": 51,
      "start": 9.9828,
      "duration": 0.0945,
      "velocity": 126,
      "chip": "ym2612"
    },
    {
      "channel": 5,
      "note": 52,
      "start": 9.9866,
      "duration": 0.0908,
      "velocity": 127,
      "chip": "ym2612"
    },
    {
      "channel": 2,
      "note": 51,
      "start": 10.1301,
      "duration": 0.1139,
      "velocity": 110,
      "chip": "ym2612"
    },
    {
      "channel": 4,
      "note": 53,
      "start": 10.1331,
      "duration": 0.0442,
      "velocity": 126,
      "chip": "ym2612"
    },
    {
      "channel": 5,
      "note": 52,
      "start": 10.2649,
      "duration": 0.1124,
      "velocity": 127,
      "chip": "ym2612"
    },
    {
      "channel": 4,
      "note": 53,
      "start": 10.4137,
      "duration": 0.0135,
      "velocity": 126,
      "chip": "ym2612"
    },
    {
      "channel": 5,
      "note": 54,
      "start": 10.4175,
      "duration": 0.0765,
      "velocity": 127,
      "chip": "ym2612"
    },
    {
      "channel": 2,
      "note": 51,
      "start": 10.5466,
      "duration": 0.1141,
      "velocity": 110,
      "chip": "ym2612"
    },
    {
      "channel": 4,
      "note": 51,
      "start": 10.5493,
      "duration": 0.0946,
      "velocity": 126,
      "chip": "ym2612"
    },
    {
      "channel": 2,
      "note": 51,
      "start": 10.6801,
      "duration": 0.0806,
      "velocity": 110,
      "chip": "ym2612"
    },
    {
      "channel": 3,
      "note": 45,
      "start": 10.6827,
      "duration": 0.2611,
      "velocity": 113,
      "chip": "ym2612"
    },
    {
      "channel": 4,
      "note": 55,
      "start": 10.6854,
      "duration": 0.0419,
      "velocity": 126,
      "chip": "ym2612"
    },
    {
      "channel": 0,
      "note": 62,
      "start": 10.689,
      "duration": 0.188,
      "velocity": 122,
      "chip": "ym2612"
    },
    {
      "channel": 4,
      "note": 51,
      "start": 10.8307,
      "duration": 0.0966,
      "velocity": 126,
      "chip": "ym2612"
    },
    {
      "channel": 1,
      "note": 52,
      "start": 10.8343,
      "duration": 0.0596,
      "velocity": 122,
      "chip": "ym2612"
    },
    {
      "channel": 2,
      "note": 51,
      "start": 10.9633,
      "duration": 0.0807,
      "velocity": 110,
      "chip": "ym2612"
    },
    {
      "channel": 4,
      "note": 55,
      "start": 10.966,
      "duration": 0.0279,
      "velocity": 126,
      "chip": "ym2612"
    },
    {
      "channel": 0,
      "note": 52,
      "start": 10.9699,
      "duration": 0.1406,
      "velocity": 122,
      "chip": "ym2612"
    },
    {
      "channel": 2,
      "note": 51,
      "start": 11.1133,
      "duration": 0.0809,
      "velocity": 110,
      "chip": "ym2612"
    },
    {
      "channel": 4,
      "note": 51,
      "start": 11.1161,
      "duration": 0.0779,
      "velocity": 126,
      "chip": "ym2612"
    },
    {
      "channel": 2,
      "note": 51,
      "start": 11.2469,
      "duration": 0.0638,
      "velocity": 110,
      "chip": "ym2612"
    },
    {
      "channel": 4,
      "note": 55,
      "start": 11.2497,
      "duration": 0.0443,
      "velocity": 126,
      "chip": "ym2612"
    },
    {
      "channel": 0,
      "note": 52,
      "start": 11.2536,
      "duration": 0.1568,
      "velocity": 122,
      "chip": "ym2612"
    },
    {
      "channel": 5,
      "note": 54,
      "start": 11.257,
      "duration": 0.0536,
      "velocity": 127,
      "chip": "ym2612"
    },
    {
      "channel": 2,
      "note": 51,
      "start": 11.3967,
      "duration": 0.0807,
      "velocity": 110,
      "chip": "ym2612"
    },
    {
      "channel": 4,
      "note": 51,
      "start": 11.3995,
      "duration": 0.0777,
      "velocity": 126,
      "chip": "ym2612"
    },
    {
      "channel": 5,
      "note": 52,
      "start": 11.403,
      "duration": 0.1078,
      "velocity": 127,
      "chip": "ym2612"
    },
    {
      "channel": 4,
      "note": 55,
      "start": 11.5303,
      "duration": 0.047,
      "velocity": 126,
      "chip": "ym2612"
    },
    {
      "channel": 5,
      "note": 54,
      "start": 11.5339,
      "duration": 0.0934,
      "velocity": 127,
      "chip": "ym2612"
    },
    {
      "channel": 2,
      "note": 51,
      "start": 11.6799,
      "duration": 0.0809,
      "velocity": 110,
      "chip": "ym2612"
    },
    {
      "channel": 4,
      "note": 51,
      "start": 11.6827,
      "duration": 0.0779,
      "velocity": 126,
      "chip": "ym2612"
    },
    {
      "channel": 2,
      "note": 51,
      "start": 11.8132,
      "duration": 0.0976,
      "velocity": 110,
      "chip": "ym2612"
    },
    {
      "channel": 3,
      "note": 45,
      "start": 11.8158,
      "duration": 0.2281,
      "velocity": 113,
      "chip": "ym2612"
    },
    {
      "channel": 4,
      "note": 53,
      "start": 11.8185,
      "duration": 0.0421,
      "velocity": 126,
      "chip": "ym2612"
    },
    {
      "channel": 4,
      "note": 53,
      "start": 12.0974,
      "duration": 0.0132,
      "velocity": 126,
      "chip": "ym2612"
    },
    {
      "channel": 5,
      "note": 54,
      "start": 12.1009,
      "duration": 0.0929,
      "velocity": 127,
      "chip": "ym2612"
    },
    {
      "channel": 2,
      "note": 51,
      "start": 12.23,
      "duration": 0.1139,
      "velocity": 110,
      "chip": "ym2612"
    },
    {
      "channel": 4,
      "note": 51,
      "start": 12.2327,
      "duration": 0.0778,
      "velocity": 126,
      "chip": "ym2612"
    },
    {
      "channel": 5,
      "note": 52,
      "start": 12.2362,
      "duration": 0.0911,
      "velocity": 127,
      "chip": "ym2612"
    },
    {
      "channel": 2,
      "note": 51,
      "start": 12.38,
      "duration": 0.0807,
      "velocity": 110,
      "chip": "ym2612"
    },
    {
      "channel": 4,
      "note": 53,
      "start": 12.3829,
      "duration": 0.0444,
      "velocity": 126,
      "chip": "ym2612"
    },
    {
      "channel": 5,
      "note": 52,
      "start": 12.5146,
      "duration": 0.0962,
      "velocity": 127,
      "chip": "ym2612"
    },
    {
      "channel": 4,
      "note": 53,
      "start": 12.6639,
      "duration": 0.0134,
      "velocity": 126,
      "chip": "ym2612"
    },
    {
      "channel": 5,
      "note": 54,
      "start": 12.6675,
      "duration": 0.0599,
      "velocity": 127,
      "chip": "ym2612"
    },
    {
      "channel": 2,
      "note": 51,
      "start": 12.7971,
      "duration": 0.1136,
      "velocity": 110,
      "chip": "ym2612"
    },
    {
      "channel": 4,
      "note": 51,
      "start": 12.8,
      "duration": 0.0607,
      "velocity": 126,
      "chip": "ym2612"
    },
    {
      "channel": 2,
      "note": 51,
      "start": 12.9468,
      "duration": 0.064,
      "velocity": 110,
      "chip": "ym2612"
    },
    {
      "channel": 3,
      "note": 45,
      "start": 12.9492,
      "duration": 0.2281,
      "velocity": 113,
      "chip": "ym2612"
    },
    {
      "channel": 0,
      "note": 62,
      "start": 12.9527,
      "duration": 0.1744,
      "velocity": 122,
      "chip": "ym2612"
    },
    {
      "channel": 5,
      "note": 54,
      "start": 12.956,
      "duration": 0.0547,
      "velocity": 127,
      "chip": "ym2612"
    },
    {
      "channel": 4,
      "note": 51,
      "start": 13.0803,
      "duration": 0.0636,
      "velocity": 126,
      "chip": "ym2612"
    },
    {
      "channel": 1,
      "note": 52,
      "start": 13.0836,
      "duration": 0.0602,
      "velocity": 122,
      "chip": "ym2612"
    },
    {
      "channel": 2,
      "note": 51,
      "start": 13.2132,
      "duration": 0.0808,
      "velocity": 110,
      "chip": "ym2612"
    },
    {
      "channel": 4,
      "note": 55,
      "start": 13.2163,
      "duration": 0.0277,
      "velocity": 126,
      "chip": "ym2612"
    },
    {
      "channel": 0,
      "note": 52,
      "start": 13.2196,
      "duration": 0.1408,
      "velocity": 122,
      "chip": "ym2612"
    },
    {
      "channel": 2,
      "note": 51,
      "start": 13.3633,
      "duration": 0.0807,
      "velocity": 110,
      "chip": "ym2612"
    },
    {
      "channel": 4,
      "note": 51,
      "start": 13.3661,
      "duration": 0.0445,
      "velocity": 126,
      "chip": "ym2612"
    },
    {
      "channel": 2,
      "note": 51,
      "start": 13.4965,
      "duration": 0.0643,
      "velocity": 110,
      "chip": "ym2612"
    },
    {
      "channel": 4,
      "note": 55,
      "start": 13.4992,
      "duration": 0.0281,
      "velocity": 126,
      "chip": "ym2612"
    },
    {
      "channel": 0,
      "note": 52,
      "start": 13.5034,
      "duration": 0.1571,
      "velocity": 122,
      "chip": "ym2612"
    },
    {
      "channel": 5,
      "note": 54,
      "start": 13.5063,
      "duration": 0.0543,
      "velocity": 127,
      "chip": "ym2612"
    },
    {
      "channel": 2,
      "note": 51,
      "start": 13.6468,
      "duration": 0.1139,
      "velocity": 110,
      "chip": "ym2612"
    },
    {
      "channel": 4,
      "note": 51,
      "start": 13.6495,
      "duration": 0.061,
      "velocity": 126,
      "chip": "ym2612"
    },
    {
      "channel": 5,
      "note": 52,
      "start": 13.6532,
      "duration": 0.0742,
      "velocity": 127,
      "chip": "ym2612"
    },
    {
      "channel": 4,
      "note": 55,
      "start": 13.7802,
      "duration": 0.047,
      "velocity": 126,
      "chip": "ym2612"
    },
    {
      "channel": 5,
      "note": 54,
      "start": 13.7845,
      "duration": 0.0927,
      "velocity": 127,
      "chip": "ym2612"
    },
    {
      "channel": 2,
      "note": 51,
      "start": 13.9299,
      "duration": 0.1141,
      "velocity": 110,
      "chip": "ym2612"
    },
    {
      "channel": 4,
      "note": 51,
      "start": 13.9327,
      "duration": 0.0613,
      "velocity": 126,
      "chip": "ym2612"
    },
    {
      "channel": 2,
      "note": 51,
      "start": 14.0637,
      "duration": 0.097,
      "velocity": 110,
      "chip": "ym2612"
    },
    {
      "channel": 3,
      "note": 45,
      "start": 14.0666,
      "duration": 0.2938,
      "velocity": 113,
      "chip": "ym2612"
    },
    {
      "channel": 4,
      "note": 53,
      "start": 14.0695,
      "duration": 0.0412,
      "velocity": 126,
      "chip": "ym2612"
    },
    {
      "channel": 4,
      "note": 53,
      "start": 14.3475,
      "duration": 0.0132,
      "velocity": 126,
      "chip": "ym2612"
    },
    {
      "channel": 5,
      "note": 54,
      "start": 14.3513,
      "duration": 0.0926,
      "velocity": 127,
      "chip": "ym2612"
    },
    {
      "channel": 2,
      "note": 51,
      "start": 14.48,
      "duration": 0.1474,
      "velocity": 110,
      "chip": "ym2612"
    },
    {
      "channel": 4,
      "note": 51,
      "start": 14.4829,
      "duration": 0.0776,
      "velocity": 126,
      "chip": "ym2612"
    },
    {
      "channel": 5,
      "note": 52,
      "start": 14.4868,
      "duration": 0.0906,
      "velocity": 127,
      "chip": "ym2612"
    },
    {
      "channel": 2,
      "note": 51,
      "start": 14.6302,
      "duration": 0.1138,
      "velocity": 110,
      "chip": "ym2612"
    },
    {
      "channel": 4,
      "note": 51,
      "start": 14.7636,
      "duration": 0.0637,
      "velocity": 126,
      "chip": "ym2612"
    },
    {
      "channel": 5,
      "note": 52,
      "start": 14.7673,
      "duration": 0.0934,
      "velocity": 127,
      "chip": "ym2612"
    },
    {
      "channel": 4,
      "note": 53,
      "start": 14.9136,
      "duration": 0.0136,
      "velocity": 126,
      "chip": "ym2612"
    },
    {
      "channel": 5,
      "note": 54,
      "start": 14.9173,
      "duration": 0.0768,
      "velocity": 127,
      "chip": "ym2612"
    },
    {
      "channel": 2,
      "note": 51,
      "start": 15.0465,
      "duration": 0.1142,
      "velocity": 110,
      "chip": "ym2612"
    },
    {
      "channel": 4,
      "note": 51,
      "start": 15.0492,
      "duration": 0.0614,
      "velocity": 126,
      "chip": "ym2612"
    },
    {
      "channel": 2,
      "note": 51,
      "start": 15.1968,
      "duration": 0.0639,
      "velocity": 110,
      "chip": "ym2612"
    },
    {
      "channel": 3,
      "note": 47,
      "start": 15.1995,
      "duration": 0.0778,
      "velocity": 113,
      "chip": "ym2612"
    },
    {
      "channel": 1,
      "note": 45,
      "start": 15.2024,
      "duration": 0.2581,
      "velocity": 113,
      "chip": "ym2612"
    },
    {
      "channel": 4,
      "note": 53,
      "start": 15.205,
      "duration": 0.0222,
      "velocity": 126,
      "chip": "ym2612"
    },
    {
      "channel": 0,
      "note": 62,
      "start": 15.2085,
      "duration": 0.1686,
      "velocity": 122,
      "chip": "ym2612"
    },
    {
      "channel": 4,
      "note": 51,
      "start": 15.3304,
      "duration": 0.0636,
      "velocity": 126,
      "chip": "ym2612"
    },
    {
      "channel": 5,
      "note": 52,
      "start": 15.334,
      "duration": 0.0601,
      "velocity": 122,
      "chip": "ym2612"
    },
    {
      "channel": 2,
      "note": 51,
      "start": 15.4633,
      "duration": 0.0807,
      "velocity": 110,
      "chip": "ym2612"
    },
    {
      "channel": 4,
      "note": 55,
      "start": 15.4665,
      "duration": 0.0441,
      "velocity": 126,
      "chip": "ym2612"
    },
    {
      "channel": 0,
      "note": 52,
      "start": 15.4705,
      "duration": 0.14,
      "velocity": 122,
      "chip": "ym2612"
    },
    {
      "channel": 2,
      "note": 51,
      "start": 15.6137,
      "duration": 0.1137,
      "velocity": 110,
      "chip": "ym2612"
    },
    {
      "channel": 4,
      "note": 51,
      "start": 15.6165,
      "duration": 0.0608,
      "velocity": 126,
      "chip": "ym2612"
    },
    {
      "channel": 2,
      "note": 51,
      "start": 15.7466,
      "duration": 0.0974,
      "velocity": 110,
      "chip": "ym2612"
    },
    {
      "channel": 4,
      "note": 55,
      "start": 15.7493,
      "duration": 0.0447,
      "velocity": 126,
      "chip": "ym2612"
    },
    {
      "channel": 0,
      "note": 52,
      "start": 15.7534,
      "duration": 0.157,
      "velocity": 122,
      "chip": "ym2612"
    },
    {
      "channel": 3,
      "note": 54,
      "start": 15.7569,
      "duration": 0.0704,
      "velocity": 127,
      "chip": "ym2612"
    },
    {
      "channel": 2,
      "note": 51,
      "start": 15.8966,
      "duration": 0.0808,
      "velocity": 110,
      "chip": "ym2612"
    },
    {
      "channel": 4,
      "note": 51,
      "start": 15.8993,
      "duration": 0.0613,
      "velocity": 126,
      "chip": "ym2612"
    },
    {
      "channel": 3,
      "note": 52,
      "start": 15.9027,
      "duration": 0.0744,
      "velocity": 127,
      "chip": "ym2612"
    },
    {
      "channel": 4,
      "note": 55,
      "start": 16.0303,
      "duration": 0.0469,
      "velocity": 126,
      "chip": "ym2612"
    },
    {
      "channel": 3,
      "note": 54,
      "start": 16.0339,
      "duration": 0.0601,
      "velocity": 127,
      "chip": "ym2612"
    },
    {
      "channel": 2,
      "note": 51,
      "start": 16.1799,
      "duration": 0.0807,
      "velocity": 110,
      "chip": "ym2612"
    },
    {
      "channel": 4,
      "note": 51,
      "start": 16.1827,
      "duration": 0.1113,
      "velocity": 126,
      "chip": "ym2612"
    },
    {
      "channel": 2,
      "note": 51,
      "start": 16.3133,
      "duration": 0.1474,
      "velocity": 110,
      "chip": "ym2612"
    },
    {
      "channel": 1,
      "note": 45,
      "start": 16.3158,
      "duration": 0.278,
      "velocity": 113,
      "chip": "ym2612"
    },
    {
      "channel": 4,
      "note": 53,
      "start": 16.3185,
      "duration": 0.0421,
      "velocity": 126,
      "chip": "ym2612"
    },
    {
      "channel": 4,
      "note": 53,
      "start": 16.5971,
      "duration": 0.0469,
      "velocity": 126,
      "chip": "ym2612"
    },
    {
      "channel": 3,
      "note": 54,
      "start": 16.6005,
      "duration": 0.0933,
      "velocity": 127,
      "chip": "ym2612"
    },
    {
      "channel": 2,
      "note": 51,
      "start": 16.7301,
      "duration": 0.0974,
      "velocity": 110,
      "chip": "ym2612"
    },
    {
      "channel": 4,
      "note": 51,
      "start": 16.7333,
      "duration": 0.094,
      "velocity": 126,
      "chip": "ym2612"
    },
    {
      "channel": 3,
      "note": 52,
      "start": 16.7368,
      "duration": 0.0905,
      "velocity": 127,
      "chip": "ym2612"
    },
    {
      "channel": 2,
      "note": 51,
      "start": 16.8799,
      "duration": 0.0641,
      "velocity": 110,
      "chip": "ym2612"
    },
    {
      "channel": 2,
      "note": 51,
      "start": 17.0135,
      "duration": 0.0973,
      "velocity": 110,
      "chip": "ym2612"
    },
    {
      "channel": 4,
      "note": 51,
      "start": 17.0163,
      "duration": 0.0944,
      "velocity": 126,
      "chip": "ym2612"
    },
    {
      "channel": 3,
      "note": 52,
      "start": 17.0197,
      "duration": 0.0908,
      "velocity": 127,
      "chip": "ym2612"
    },
    {
      "channel": 2,
      "note": 51,
      "start": 17.1632,
      "duration": 0.0641,
      "velocity": 110,
      "chip": "ym2612"
    },
    {
      "channel": 4,
      "note": 53,
      "start": 17.1659,
      "duration": 0.0447,
      "velocity": 126,
      "chip": "ym2612"
    },
    {
      "channel": 3,
      "note": 54,
      "start": 17.1697,
      "duration": 0.0742,
      "velocity": 127,
      "chip": "ym2612"
    },
    {
      "channel": 2,
      "note": 51,
      "start": 17.2966,
      "duration": 0.0975,
      "velocity": 110,
      "chip": "ym2612"
    },
    {
      "channel": 4,
      "note": 51,
      "start": 17.2993,
      "duration": 0.0613,
      "velocity": 126,
      "chip": "ym2612"
    },
    {
      "channel": 2,
      "note": 51,
      "start": 17.4466,
      "duration": 0.0641,
      "velocity": 110,
      "chip": "ym2612"
    },
    {
      "channel": 1,
      "note": 45,
      "start": 17.449,
      "duration": 0.2615,
      "velocity": 113,
      "chip": "ym2612"
    },
    {
      "channel": 4,
      "note": 53,
      "start": 17.4516,
      "duration": 0.0257,
      "velocity": 126,
      "chip": "ym2612"
    },
    {
      "channel": 0,
      "note": 62,
      "start": 17.455,
      "duration": 0.1721,
      "velocity": 122,
      "chip": "ym2612"
    },
    {
      "channel": 2,
      "note": 51,
      "start": 17.5799,
      "duration": 0.1142,
      "velocity": 110,
      "chip": "ym2612"
    },
    {
      "channel": 4,
      "note": 51,
      "start": 17.5826,
      "duration": 0.0613,
      "velocity": 126,
      "chip": "ym2612"
    },
    {
      "channel": 5,
      "note": 52,
      "start": 17.5864,
      "duration": 0.0576,
      "velocity": 122,
      "chip": "ym2612"
    },
    {
      "channel": 2,
      "note": 51,
      "start": 17.7133,
      "duration": 0.0808,
      "velocity": 110,
      "chip": "ym2612"
    },
    {
      "channel": 4,
      "note": 53,
      "start": 17.716,
      "duration": 0.0446,
      "velocity": 126,
      "chip": "ym2612"
    },
    {
      "channel": 0,
      "note": 52,
      "start": 17.7194,
      "duration": 0.1412,
      "velocity": 122,
      "chip": "ym2612"
    },
    {
      "channel": 2,
      "note": 51,
      "start": 17.8634,
      "duration": 0.0973,
      "velocity": 110,
      "chip": "ym2612"
    },
    {
      "channel": 4,
      "note": 51,
      "start": 17.8665,
      "duration": 0.0608,
      "velocity": 126,
      "chip": "ym2612"
    },
    {
      "channel": 2,
      "note": 51,
      "start": 17.9966,
      "duration": 0.0809,
      "velocity": 110,
      "chip": "ym2612"
    },
    {
      "channel": 4,
      "note": 55,
      "start": 17.9993,
      "duration": 0.0447,
      "velocity": 126,
      "chip": "ym2612"
    },
    {
      "channel": 0,
      "note": 52,
      "start": 18.0033,
      "duration": 0.1571,
      "velocity": 122,
      "chip": "ym2612"
    },
    {
      "channel": 3,
      "note": 54,
      "start": 18.0063,
      "duration": 0.071,
      "velocity": 127,
      "chip": "ym2612"
    },
    {
      "channel": 2,
      "note": 51,
      "start": 18.1471,
      "duration": 0.0803,
      "velocity": 110,
      "chip": "ym2612"
    },
    {
      "channel": 4,
      "note": 51,
      "start": 18.1498,
      "duration": 0.0608,
      "velocity": 126,
      "chip": "ym2612"
    },
    {
      "channel": 3,
      "note": 52,
      "start": 18.1545,
      "duration": 0.0727,
      "velocity": 127,
      "chip": "ym2612"
    },
    {
      "channel": 4,
      "note": 55,
      "start": 18.2803,
      "duration": 0.0303,
      "velocity": 126,
      "chip": "ym2612"
    },
    {
      "channel": 3,
      "note": 54,
      "start": 18.2842,
      "duration": 0.0596,
      "velocity": 127,
      "chip": "ym2612"
    },
    {
      "channel": 2,
      "note": 51,
      "start": 18.43,
      "duration": 0.1141,
      "velocity": 110,
      "chip": "ym2612"
    },
    {
      "channel": 4,
      "note": 51,
      "start": 18.4327,
      "duration": 0.0779,
      "velocity": 126,
      "chip": "ym2612"
    },
    {
      "channel": 2,
      "note": 51,
      "start": 18.5634,
      "duration": 0.0639,
      "velocity": 110,
      "chip": "ym2612"
    },
    {
      "channel": 1,
      "note": 45,
      "start": 18.5659,
      "duration": 0.3278,
      "velocity": 113,
      "chip": "ym2612"
    },
    {
      "channel": 4,
      "note": 53,
      "start": 18.5688,
      "duration": 0.0419,
      "velocity": 126,
      "chip": "ym2612"
    },
    {
      "channel": 4,
      "note": 53,
      "start": 18.847,
      "duration": 0.047,
      "velocity": 126,
      "chip": "ym2612"
    },
    {
      "channel": 3,
      "note": 54,
      "start": 18.8504,
      "duration": 0.0601,
      "velocity": 127,
      "chip": "ym2612"
    },
    {
      "channel": 2,
      "note": 51,
      "start": 18.9801,
      "duration": 0.0974,
      "velocity": 110,
      "chip": "ym2612"
    },
    {
      "channel": 4,
      "note": 51,
      "start": 18.9833,
      "duration": 0.094,
      "velocity": 126,
      "chip": "ym2612"
    },
    {
      "channel": 3,
      "note": 52,
      "start": 18.9869,
      "duration": 0.0903,
      "velocity": 127,
      "chip": "ym2612"
    },
    {
      "channel": 2,
      "note": 51,
      "start": 19.13,
      "duration": 0.0641,
      "velocity": 110,
      "chip": "ym2612"
    },
    {
      "channel": 4,
      "note": 51,
      "start": 19.2636,
      "duration": 0.0971,
      "velocity": 126,
      "chip": "ym2612"
    },
    {
      "channel": 3,
      "note": 52,
      "start": 19.2672,
      "duration": 0.0934,
      "velocity": 127,
      "chip": "ym2612"
    },
    {
      "channel": 4,
      "note": 53,
      "start": 19.4137,
      "duration": 0.0469,
      "velocity": 126,
      "chip": "ym2612"
    },
    {
      "channel": 3,
      "note": 57,
      "start": 19.4177,
      "duration": 0.0761,
      "velocity": 127,
      "chip": "ym2612"
    },
    {
      "channel": 2,
      "note": 51,
      "start": 19.5471,
      "duration": 0.0969,
      "velocity": 110,
      "chip": "ym2612"
    },
    {
      "channel": 4,
      "note": 51,
      "start": 19.5498,
      "duration": 0.0607,
      "velocity": 126,
      "chip": "ym2612"
    },
    {
      "channel": 2,
      "note": 51,
      "start": 19.6967,
      "duration": 0.0641,
      "velocity": 110,
      "chip": "ym2612"
    },
    {
      "channel": 1,
      "note": 45,
      "start": 19.6992,
      "duration": 0.2947,
      "velocity": 113,
      "chip": "ym2612"
    },
    {
      "channel": 4,
      "note": 53,
      "start": 19.7019,
      "duration": 0.0254,
      "velocity": 126,
      "chip": "ym2612"
    },
    {
      "channel": 0,
      "note": 62,
      "start": 19.7053,
      "duration": 0.1718,
      "velocity": 122,
      "chip": "ym2612"
    },
    {
      "channel": 4,
      "note": 51,
      "start": 19.8303,
      "duration": 0.097,
      "velocity": 126,
      "chip": "ym2612"
    },
    {
      "channel": 5,
      "note": 52,
      "start": 19.8338,
      "duration": 0.0602,
      "velocity": 122,
      "chip": "ym2612"
    },
    {
      "channel": 2,
      "note": 51,
      "start": 19.9634,
      "duration": 0.0474,
      "velocity": 110,
      "chip": "ym2612"
    },
    {
      "channel": 4,
      "note": 53,
      "start": 19.9661,
      "duration": 0.0445,
      "velocity": 126,
      "chip": "ym2612"
    },
    {
      "channel": 0,
      "note": 52,
      "start": 19.9698,
      "duration": 0.1407,
      "velocity": 122,
      "chip": "ym2612"
    },
    {
      "channel": 2,
      "note": 51,
      "start": 20.1133,
      "duration": 0.0974,
      "velocity": 110,
      "chip": "ym2612"
    },
    {
      "channel": 4,
      "note": 51,
      "start": 20.1161,
      "duration": 0.0945,
      "velocity": 126,
      "chip": "ym2612"
    },
    {
      "channel": 2,
      "note": 51,
      "start": 20.2466,
      "duration": 0.0808,
      "velocity": 110,
      "chip": "ym2612"
    },
    {
      "channel": 4,
      "note": 55,
      "start": 20.2497,
      "duration": 0.0442,
      "velocity": 126,
      "chip": "ym2612"
    },
    {
      "channel": 0,
      "note": 52,
      "start": 20.2536,
      "duration": 0.1568,
      "velocity": 122,
      "chip": "ym2612"
    },
    {
      "channel": 3,
      "note": 54,
      "start": 20.2565,
      "duration": 0.0875,
      "velocity": 127,
      "chip": "ym2612"
    },
    {
      "channel": 2,
      "note": 51,
      "start": 20.3968,
      "duration": 0.0807,
      "velocity": 110,
      "chip": "ym2612"
    },
    {
      "channel": 4,
      "note": 51,
      "start": 20.3995,
      "duration": 0.0778,
      "velocity": 126,
      "chip": "ym2612"
    },
    {
      "channel": 3,
      "note": 52,
      "start": 20.4031,
      "duration": 0.0741,
      "velocity": 127,
      "chip": "ym2612"
    },
    {
      "channel": 4,
      "note": 55,
      "start": 20.5302,
      "duration": 0.0471,
      "velocity": 126,
      "chip": "ym2612"
    },
    {
      "channel": 3,
      "note": 54,
      "start": 20.534,
      "duration": 0.0599,
      "velocity": 127,
      "chip": "ym2612"
    },
    {
      "channel": 2,
      "note": 51,
      "start": 20.6802,
      "duration": 0.0806,
      "velocity": 110,
      "chip": "ym2612"
    },
    {
      "channel": 4,
      "note": 51,
      "start": 20.683,
      "duration": 0.0777,
      "velocity": 126,
      "chip": "ym2612"
    },
    {
      "channel": 2,
      "note": 51,
      "start": 20.8133,
      "duration": 0.064,
      "velocity": 110,
      "chip": "ym2612"
    },
    {
      "channel": 1,
      "note": 45,
      "start": 20.8159,
      "duration": 0.2613,
      "velocity": 113,
      "chip": "ym2612"
    },
    {
      "channel": 4,
      "note": 53,
      "start": 20.8187,
      "duration": 0.042,
      "velocity": 126,
      "chip": "ym2612"
    },
    {
      "channel": 4,
      "note": 53,
      "start": 21.097,
      "duration": 0.047,
      "velocity": 126,
      "chip": "ym2612"
    },
    {
      "channel": 3,
      "note": 54,
      "start": 21.1004,
      "duration": 0.0602,
      "velocity": 127,
      "chip": "ym2612"
    },
    {
      "channel": 2,
      "note": 51,
      "start": 21.23,
      "duration": 0.1139,
      "velocity": 110,
      "chip": "ym2612"
    },
    {
      "channel": 4,
      "note": 51,
      "start": 21.2329,
      "duration": 0.0777,
      "velocity": 126,
      "chip": "ym2612"
    },
    {
      "channel": 3,
      "note": 52,
      "start": 21.2364,
      "duration": 0.0908,
      "velocity": 127,
      "chip": "ym2612"
    },
    {
      "channel": 2,
      "note": 51,
      "start": 21.38,
      "duration": 0.0974,
      "velocity": 110,
      "chip": "ym2612"
    },
    {
      "channel": 4,
      "note": 51,
      "start": 21.5141,
      "duration": 0.0965,
      "velocity": 126,
      "chip": "ym2612"
    },
    {
      "channel": 3,
      "note": 52,
      "start": 21.5184,
      "duration": 0.0756,
      "velocity": 127,
      "chip": "ym2612"
    },
    {
      "channel": 4,
      "note": 53,
      "start": 21.6636,
      "duration": 0.0471,
      "velocity": 126,
      "chip": "ym2612"
    },
    {
      "channel": 3,
      "note": 59,
      "start": 21.6677,
      "duration": 0.0762,
      "velocity": 127,
      "chip": "ym2612"
    },
    {
      "channel": 2,
      "note": 51,
      "start": 21.7967,
      "duration": 0.1141,
      "velocity": 110,
      "chip": "ym2612"
    },
    {
      "channel": 4,
      "note": 51,
      "start": 21.7994,
      "duration": 0.0612,
      "velocity": 126,
      "chip": "ym2612"
    },
    {
      "channel": 2,
      "note": 51,
      "start": 21.9468,
      "duration": 0.0639,
      "velocity": 110,
      "chip": "ym2612"
    },
    {
      "channel": 1,
      "note": 45,
      "start": 21.9497,
      "duration": 0.2773,
      "velocity": 113,
      "chip": "ym2612"
    },
    {
      "channel": 4,
      "note": 53,
      "start": 21.9523,
      "duration": 0.025,
      "velocity": 126,
      "chip": "ym2612"
    },
    {
      "channel": 0,
      "note": 62,
      "start": 21.9561,
      "duration": 0.171,
      "velocity": 122,
      "chip": "ym2612"
    },
    {
      "channel": 3,
      "note": 59,
      "start": 21.9591,
      "duration": 0.0514,
      "velocity": 127,
      "chip": "ym2612"
    },
    {
      "channel": 4,
      "note": 51,
      "start": 22.0804,
      "duration": 0.0968,
      "velocity": 126,
      "chip": "ym2612"
    },
    {
      "channel": 5,
      "note": 52,
      "start": 22.0838,
      "duration": 0.0602,
      "velocity": 122,
      "chip": "ym2612"
    },
    {
      "channel": 2,
      "note": 51,
      "start": 22.2305,
      "duration": 0.0304,
      "velocity": 110,
      "chip": "ym2612"
    },
    {
      "channel": 4,
      "note": 53,
      "start": 22.2332,
      "duration": 0.0275,
      "velocity": 126,
      "chip": "ym2612"
    },
    {
      "channel": 0,
      "note": 52,
      "start": 22.2366,
      "duration": 0.124,
      "velocity": 122,
      "chip": "ym2612"
    },
    {
      "channel": 2,
      "note": 51,
      "start": 22.3634,
      "duration": 0.1139,
      "velocity": 110,
      "chip": "ym2612"
    },
    {
      "channel": 4,
      "note": 51,
      "start": 22.3661,
      "duration": 0.0945,
      "velocity": 126,
      "chip": "ym2612"
    },
    {
      "channel": 2,
      "note": 51,
      "start": 22.4966,
      "duration": 0.0808,
      "velocity": 110,
      "chip": "ym2612"
    },
    {
      "channel": 4,
      "note": 55,
      "start": 22.4994,
      "duration": 0.0445,
      "velocity": 126,
      "chip": "ym2612"
    },
    {
      "channel": 0,
      "note": 52,
      "start": 22.5037,
      "duration": 0.1567,
      "velocity": 122,
      "chip": "ym2612"
    },
    {
      "channel": 3,
      "note": 54,
      "start": 22.5067,
      "duration": 0.1039,
      "velocity": 127,
      "chip": "ym2612"
    },
    {
      "channel": 2,
      "note": 51,
      "start": 22.6467,
      "duration": 0.1141,
      "velocity": 110,
      "chip": "ym2612"
    },
    {
      "channel": 4,
      "note": 51,
      "start": 22.6498,
      "duration": 0.0774,
      "velocity": 126,
      "chip": "ym2612"
    },
    {
      "channel": 3,
      "note": 52,
      "start": 22.6531,
      "duration": 0.1074,
      "velocity": 127,
      "chip": "ym2612"
    },
    {
      "channel": 4,
      "note": 55,
      "start": 22.7803,
      "duration": 0.047,
      "velocity": 126,
      "chip": "ym2612"
    },
    {
      "channel": 3,
      "note": 54,
      "start": 22.7846,
      "duration": 0.076,
      "velocity": 127,
      "chip": "ym2612"
    },
    {
      "channel": 2,
      "note": 51,
      "start": 22.9299,
      "duration": 0.1142,
      "velocity": 110,
      "chip": "ym2612"
    },
    {
      "channel": 4,
      "note": 51,
      "start": 22.9326,
      "duration": 0.1113,
      "velocity": 126,
      "chip": "ym2612"
    },
    {
      "channel": 2,
      "note": 51,
      "start": 23.0635,
      "duration": 0.0972,
      "velocity": 110,
      "chip": "ym2612"
    },
    {
      "channel": 1,
      "note": 45,
      "start": 23.066,
      "duration": 0.2611,
      "velocity": 113,
      "chip": "ym2612"
    },
    {
      "channel": 4,
      "note": 53,
      "start": 23.0688,
      "duration": 0.0417,
      "velocity": 126,
      "chip": "ym2612"
    },
    {
      "channel": 4,
      "note": 53,
      "start": 23.3472,
      "duration": 0.0134,
      "velocity": 126,
      "chip": "ym2612"
    },
    {
      "channel": 3,
      "note": 54,
      "start": 23.3509,
      "duration": 0.0598,
      "velocity": 127,
      "chip": "ym2612"
    },
    {
      "channel": 2,
      "note": 51,
      "start": 23.4804,
      "duration": 0.1469,
      "velocity": 110,
      "chip": "ym2612"
    },
    {
      "channel": 4,
      "note": 51,
      "start": 23.4833,
      "duration": 0.094,
      "velocity": 126,
      "chip": "ym2612"
    },
    {
      "channel": 3,
      "note": 52,
      "start": 23.4874,
      "duration": 0.0732,
      "velocity": 127,
      "chip": "ym2612"
    },
    {
      "channel": 2,
      "note": 51,
      "start": 23.6301,
      "duration": 0.0973,
      "velocity": 110,
      "chip": "ym2612"
    },
    {
      "channel": 4,
      "note": 51,
      "start": 23.7641,
      "duration": 0.1132,
      "velocity": 126,
      "chip": "ym2612"
    },
    {
      "channel": 3,
      "note": 52,
      "start": 23.7678,
      "duration": 0.076,
      "velocity": 127,
      "chip": "ym2612"
    },
    {
      "channel": 4,
      "note": 53,
      "start": 23.9137,
      "duration": 0.047,
      "velocity": 126,
      "chip": "ym2612"
    },
    {
      "channel": 3,
      "note": 59,
      "start": 23.9173,
      "duration": 0.0598,
      "velocity": 127,
      "chip": "ym2612"
    },
    {
      "channel": 2,
      "note": 51,
      "start": 24.0467,
      "duration": 0.1139,
      "velocity": 110,
      "chip": "ym2612"
    },
    {
      "channel": 4,
      "note": 51,
      "start": 24.0495,
      "duration": 0.0945,
      "velocity": 126,
      "chip": "ym2612"
    },
    {
      "channel": 2,
      "note": 51,
      "start": 24.1966,
      "duration": 0.0642,
      "velocity": 110,
      "chip": "ym2612"
    },
    {
      "channel": 1,
      "note": 45,
      "start": 24.199,
      "duration": 0.2449,
      "velocity": 113,
      "chip": "ym2612"
    },
    {
      "channel": 4,
      "note": 53,
      "start": 24.2016,
      "duration": 0.0256,
      "velocity": 126,
      "chip": "ym2612"
    },
    {
      "channel": 0,
      "note": 62,
      "start": 24.2056,
      "duration": 0.1715,
      "velocity": 122,
      "chip": "ym2612"
    },
    {
      "channel": 2,
      "note": 51,
      "start": 24.3299,
      "duration": 0.0975,
      "velocity": 110,
      "chip": "ym2612"
    },
    {
      "channel": 4,
      "note": 51,
      "start": 24.3327,
      "duration": 0.0945,
      "velocity": 126,
      "chip": "ym2612"
    },
    {
      "channel": 5,
      "note": 52,
      "start": 24.3364,
      "duration": 0.0576,
      "velocity": 122,
      "chip": "ym2612"
    },
    {
      "channel": 2,
      "note": 51,
      "start": 24.4799,
      "duration": 0.0642,
      "velocity": 110,
      "chip": "ym2612"
    },
    {
      "channel": 4,
      "note": 55,
      "start": 24.4827,
      "duration": 0.0613,
      "velocity": 126,
      "chip": "ym2612"
    },
    {
      "channel": 0,
      "note": 52,
      "start": 24.4863,
      "duration": 0.1241,
      "velocity": 122,
      "chip": "ym2612"
    },
    {
      "channel": 2,
      "note": 51,
      "start": 24.6133,
      "duration": 0.1141,
      "velocity": 110,
      "chip": "ym2612"
    },
    {
      "channel": 4,
      "note": 51,
      "start": 24.616,
      "duration": 0.0946,
      "velocity": 126,
      "chip": "ym2612"
    },
    {
      "channel": 2,
      "note": 51,
      "start": 24.7471,
      "duration": 0.0803,
      "velocity": 110,
      "chip": "ym2612"
    },
    {
      "channel": 4,
      "note": 55,
      "start": 24.7498,
      "duration": 0.0441,
      "velocity": 126,
      "chip": "ym2612"
    },
    {
      "channel": 0,
      "note": 52,
      "start": 24.7536,
      "duration": 0.1569,
      "velocity": 122,
      "chip": "ym2612"
    },
    {
      "channel": 3,
      "note": 54,
      "start": 24.7565,
      "duration": 0.0707,
      "velocity": 127,
      "chip": "ym2612"
    },
    {
      "channel": 4,
      "note": 51,
      "start": 24.8974,
      "duration": 0.0966,
      "velocity": 126,
      "chip": "ym2612"
    },
    {
      "channel": 3,
      "note": 52,
      "start": 24.9011,
      "duration": 0.0927,
      "velocity": 127,
      "chip": "ym2612"
    },
    {
      "channel": 2,
      "note": 51,
      "start": 25.0299,
      "duration": 0.0975,
      "velocity": 110,
      "chip": "ym2612"
    },
    {
      "channel": 4,
      "note": 55,
      "start": 25.0326,
      "duration": 0.078,
      "velocity": 126,
      "chip": "ym2612"
    },
    {
      "channel": 3,
      "note": 54,
      "start": 25.0364,
      "duration": 0.0908,
      "velocity": 127,
      "chip": "ym2612"
    },
    {
      "channel": 4,
      "note": 51,
      "start": 25.1803,
      "duration": 0.1137,
      "velocity": 126,
      "chip": "ym2612"
    },
    {
      "channel": 2,
      "note": 51,
      "start": 25.3132,
      "duration": 0.0006,
      "velocity": 110,
      "chip": "ym2612"
    },
    {
      "channel": 2,
      "note": 51,
      "start": 25.3158,
      "duration": 0.1116,
      "velocity": 110,
      "chip": "ym2612"
    },
    {
      "channel": 1,
      "note": 45,
      "start": 25.3183,
      "duration": 0.2756,
      "velocity": 113,
      "chip": "ym2612"
    },
    {
      "channel": 4,
      "note": 53,
      "start": 25.3211,
      "duration": 0.0562,
      "velocity": 126,
      "chip": "ym2612"
    },
    {
      "channel": 4,
      "note": 53,
      "start": 25.5973,
      "duration": 0.0132,
      "velocity": 126,
      "chip": "ym2612"
    },
    {
      "channel": 3,
      "note": 54,
      "start": 25.6016,
      "duration": 0.0923,
      "velocity": 127,
      "chip": "ym2612"
    },
    {
      "channel": 2,
      "note": 51,
      "start": 25.7467,
      "duration": 0.1307,
      "velocity": 110,
      "chip": "ym2612"
    },
    {
      "channel": 4,
      "note": 51,
      "start": 25.7495,
      "duration": 0.0778,
      "velocity": 126,
      "chip": "ym2612"
    },
    {
      "channel": 3,
      "note": 52,
      "start": 25.7534,
      "duration": 0.0238,
      "velocity": 127,
      "chip": "ym2612"
    },
    {
      "channel": 2,
      "note": 51,
      "start": 25.8802,
      "duration": 0.0637,
      "velocity": 110,
      "chip": "ym2612"
    },
    {
      "channel": 4,
      "note": 51,
      "start": 26.014,
      "duration": 0.0967,
      "velocity": 126,
      "chip": "ym2612"
    },
    {
      "channel": 3,
      "note": 52,
      "start": 26.018,
      "duration": 0.0926,
      "velocity": 127,
      "chip": "ym2612"
    },
    {
      "channel": 4,
      "note": 55,
      "start": 26.1636,
      "duration": 0.0137,
      "velocity": 126,
      "chip": "ym2612"
    },
    {
      "channel": 3,
      "note": 54,
      "start": 26.1673,
      "duration": 0.0765,
      "velocity": 127,
      "chip": "ym2612"
    },
    {
      "channel": 2,
      "note": 51,
      "start": 26.2971,
      "duration": 0.0971,
      "velocity": 110,
      "chip": "ym2612"
    },
    {
      "channel": 4,
      "note": 51,
      "start": 26.2998,
      "duration": 0.0941,
      "velocity": 126,
      "chip": "ym2612"
    },
    {
      "channel": 2,
      "note": 51,
      "start": 26.4466,
      "duration": 0.0808,
      "velocity": 110,
      "chip": "ym2612"
    },
    {
      "channel": 1,
      "note": 45,
      "start": 26.4491,
      "duration": 0.2447,
      "velocity": 113,
      "chip": "ym2612"
    },
    {
      "channel": 4,
      "note": 55,
      "start": 26.4518,
      "duration": 0.0588,
      "velocity": 126,
      "chip": "ym2612"
    },
    {
      "channel": 0,
      "note": 62,
      "start": 26.4554,
      "duration": 0.1718,
      "velocity": 122,
      "chip": "ym2612"
    },
    {
      "channel": 3,
      "note": 54,
      "start": 26.4584,
      "duration": 0.0356,
      "velocity": 127,
      "chip": "ym2612"
    },
    {
      "channel": 4,
      "note": 51,
      "start": 26.5803,
      "duration": 0.097,
      "velocity": 126,
      "chip": "ym2612"
    },
    {
      "channel": 5,
      "note": 52,
      "start": 26.5844,
      "duration": 0.0596,
      "velocity": 122,
      "chip": "ym2612"
    },
    {
      "channel": 2,
      "note": 51,
      "start": 26.7301,
      "duration": 0.0641,
      "velocity": 110,
      "chip": "ym2612"
    },
    {
      "channel": 4,
      "note": 55,
      "start": 26.7328,
      "duration": 0.0611,
      "velocity": 126,
      "chip": "ym2612"
    },
    {
      "channel": 0,
      "note": 52,
      "start": 26.7363,
      "duration": 0.1241,
      "velocity": 122,
      "chip": "ym2612"
    },
    {
      "channel": 2,
      "note": 51,
      "start": 26.8633,
      "duration": 0.0975,
      "velocity": 110,
      "chip": "ym2612"
    },
    {
      "channel": 4,
      "note": 51,
      "start": 26.866,
      "duration": 0.1113,
      "velocity": 126,
      "chip": "ym2612"
    },
    {
      "channel": 2,
      "note": 51,
      "start": 26.9965,
      "duration": 0.1309,
      "velocity": 110,
      "chip": "ym2612"
    },
    {
      "channel": 4,
      "note": 55,
      "start": 26.9993,
      "duration": 0.078,
      "velocity": 126,
      "chip": "ym2612"
    },
    {
      "channel": 0,
      "note": 52,
      "start": 27.0034,
      "duration": 0.1571,
      "velocity": 122,
      "chip": "ym2612"
    },
    {
      "channel": 3,
      "note": 59,
      "start": 27.0063,
      "duration": 0.0708,
      "velocity": 127,
      "chip": "ym2612"
    },
    {
      "channel": 2,
      "note": 51,
      "start": 27.1467,
      "duration": 0.0974,
      "velocity": 110,
      "chip": "ym2612"
    },
    {
      "channel": 4,
      "note": 51,
      "start": 27.1498,
      "duration": 0.0941,
      "velocity": 126,
      "chip": "ym2612"
    },
    {
      "channel": 3,
      "note": 52,
      "start": 27.1532,
      "duration": 0.1074,
      "velocity": 127,
      "chip": "ym2612"
    },
    {
      "channel": 4,
      "note": 55,
      "start": 27.2803,
      "duration": 0.0803,
      "velocity": 126,
      "chip": "ym2612"
    },
    {
      "channel": 3,
      "note": 59,
      "start": 27.2839,
      "duration": 0.0933,
      "velocity": 127,
      "chip": "ym2612"
    },
    {
      "channel": 2,
      "note": 51,
      "start": 27.4304,
      "duration": 0.1303,
      "velocity": 110,
      "chip": "ym2612"
    },
    {
      "channel": 4,
      "note": 51,
      "start": 27.4331,
      "duration": 0.0775,
      "velocity": 126,
      "chip": "ym2612"
    },
    {
      "channel": 2,
      "note": 51,
      "start": 27.5635,
      "duration": 0.0972,
      "velocity": 110,
      "chip": "ym2612"
    },
    {
      "channel": 1,
      "note": 45,
      "start": 27.5659,
      "duration": 0.2613,
      "velocity": 113,
      "chip": "ym2612"
    },
    {
      "channel": 4,
      "note": 53,
      "start": 27.5687,
      "duration": 0.0586,
      "velocity": 126,
      "chip": "ym2612"
    },
    {
      "channel": 4,
      "note": 53,
      "start": 27.8471,
      "duration": 0.0636,
      "velocity": 126,
      "chip": "ym2612"
    },
    {
      "channel": 3,
      "note": 59,
      "start": 27.8508,
      "duration": 0.0931,
      "velocity": 127,
      "chip": "ym2612"
    },
    {
      "channel": 2,
      "note": 51,
      "start": 27.9967,
      "duration": 0.114,
      "velocity": 110,
      "chip": "ym2612"
    },
    {
      "channel": 4,
      "note": 51,
      "start": 27.9995,
      "duration": 0.0778,
      "velocity": 126,
      "chip": "ym2612"
    },
    {
      "channel": 3,
      "note": 52,
      "start": 28.0029,
      "duration": 0.0742,
      "velocity": 127,
      "chip": "ym2612"
    },
    {
      "channel": 2,
      "note": 51,
      "start": 28.1299,
      "duration": 0.1142,
      "velocity": 110,
      "chip": "ym2612"
    },
    {
      "channel": 4,
      "note": 55,
      "start": 28.1326,
      "duration": 0.0447,
      "velocity": 126,
      "chip": "ym2612"
    },
    {
      "channel": 4,
      "note": 51,
      "start": 28.2636,
      "duration": 0.097,
      "velocity": 126,
      "chip": "ym2612"
    },
    {
      "channel": 3,
      "note": 52,
      "start": 28.2672,
      "duration": 0.1101,
      "velocity": 127,
      "chip": "ym2612"
    },
    {
      "channel": 4,
      "note": 55,
      "start": 28.414,
      "duration": 0.0633,
      "velocity": 126,
      "chip": "ym2612"
    },
    {
      "channel": 3,
      "note": 59,
      "start": 28.4175,
      "duration": 0.1098,
      "velocity": 127,
      "chip": "ym2612"
    },
    {
      "channel": 2,
      "note": 51,
      "start": 28.5466,
      "duration": 0.1141,
      "velocity": 110,
      "chip": "ym2612"
    },
    {
      "channel": 4,
      "note": 51,
      "start": 28.5493,
      "duration": 0.0947,
      "velocity": 126,
      "chip": "ym2612"
    },
    {
      "channel": 2,
      "note": 51,
      "start": 28.6965,
      "duration": 0.0809,
      "velocity": 110,
      "chip": "ym2612"
    },
    {
      "channel": 1,
      "note": 45,
      "start": 28.6989,
      "duration": 0.2449,
      "velocity": 113,
      "chip": "ym2612"
    },
    {
      "channel": 4,
      "note": 53,
      "start": 28.7017,
      "duration": 0.0588,
      "velocity": 126,
      "chip": "ym2612"
    },
    {
      "channel": 0,
      "note": 62,
      "start": 28.7051,
      "duration": 0.1721,
      "velocity": 122,
      "chip": "ym2612"
    },
    {
      "channel": 2,
      "note": 51,
      "start": 28.8299,
      "duration": 0.1142,
      "velocity": 110,
      "chip": "ym2612"
    },
    {
      "channel": 5,
      "note": 52,
      "start": 28.8336,
      "duration": 0.0604,
      "velocity": 122,
      "chip": "ym2612"
    },
    {
      "channel": 2,
      "note": 51,
      "start": 28.9802,
      "duration": 0.0805,
      "velocity": 110,
      "chip": "ym2612"
    },
    {
      "channel": 4,
      "note": 53,
      "start": 28.9831,
      "duration": 0.0275,
      "velocity": 126,
      "chip": "ym2612"
    },
    {
      "channel": 0,
      "note": 52,
      "start": 28.9869,
      "duration": 0.1237,
      "velocity": 122,
      "chip": "ym2612"
    },
    {
      "channel": 2,
      "note": 51,
      "start": 29.1134,
      "duration": 0.1139,
      "velocity": 110,
      "chip": "ym2612"
    },
    {
      "channel": 4,
      "note": 51,
      "start": 29.1161,
      "duration": 0.0945,
      "velocity": 126,
      "chip": "ym2612"
    },
    {
      "channel": 2,
      "note": 51,
      "start": 29.2632,
      "duration": 0.0808,
      "velocity": 110,
      "chip": "ym2612"
    },
    {
      "channel": 4,
      "note": 55,
      "start": 29.266,
      "duration": 0.028,
      "velocity": 126,
      "chip": "ym2612"
    },
    {
      "channel": 0,
      "note": 52,
      "start": 29.2695,
      "duration": 0.1409,
      "velocity": 122,
      "chip": "ym2612"
    },
    {
      "channel": 3,
      "note": 59,
      "start": 29.2725,
      "duration": 0.0548,
      "velocity": 127,
      "chip": "ym2612"
    },
    {
      "channel": 2,
      "note": 51,
      "start": 29.3967,
      "duration": 0.1139,
      "velocity": 110,
      "chip": "ym2612"
    },
    {
      "channel": 4,
      "note": 51,
      "start": 29.3995,
      "duration": 0.0612,
      "velocity": 126,
      "chip": "ym2612"
    },
    {
      "channel": 3,
      "note": 52,
      "start": 29.4027,
      "duration": 0.0578,
      "velocity": 127,
      "chip": "ym2612"
    },
    {
      "channel": 4,
      "note": 55,
      "start": 29.5307,
      "duration": 0.0466,
      "velocity": 126,
      "chip": "ym2612"
    },
    {
      "channel": 3,
      "note": 59,
      "start": 29.5341,
      "duration": 0.0765,
      "velocity": 127,
      "chip": "ym2612"
    },
    {
      "channel": 2,
      "note": 51,
      "start": 29.6801,
      "duration": 0.1306,
      "velocity": 110,
      "chip": "ym2612"
    },
    {
      "channel": 4,
      "note": 51,
      "start": 29.6828,
      "duration": 0.1111,
      "velocity": 126,
      "chip": "ym2612"
    },
    {
      "channel": 2,
      "note": 51,
      "start": 29.8135,
      "duration": 0.1639,
      "velocity": 110,
      "chip": "ym2612"
    },
    {
      "channel": 1,
      "note": 45,
      "start": 29.816,
      "duration": 0.2279,
      "velocity": 113,
      "chip": "ym2612"
    },
    {
      "channel": 4,
      "note": 53,
      "start": 29.8188,
      "duration": 0.0418,
      "velocity": 126,
      "chip": "ym2612"
    },
    {
      "channel": 4,
      "note": 53,
      "start": 30.097,
      "duration": 0.047,
      "velocity": 126,
      "chip": "ym2612"
    },
    {
      "channel": 3,
      "note": 59,
      "start": 30.1009,
      "duration": 0.093,
      "velocity": 127,
      "chip": "ym2612"
    },
    {
      "channel": 2,
      "note": 51,
      "start": 30.247,
      "duration": 0.1312,
      "velocity": 110,
      "chip": "ym2612"
    },
    {
      "channel": 4,
      "note": 51,
      "start": 30.2497,
      "duration": 0.0777,
      "velocity": 126,
      "chip": "ym2612"
    },
    {
      "channel": 3,
      "note": 52,
      "start": 30.2531,
      "duration": 0.0742,
      "velocity": 127,
      "chip": "ym2612"
    },
    {
      "channel": 2,
      "note": 51,
      "start": 30.3801,
      "duration": 0.2141,
      "velocity": 110,
      "chip": "ym2612"
    },
    {
      "channel": 4,
      "note": 55,
      "start": 30.3828,
      "duration": 0.0444,
      "velocity": 126,
      "chip": "ym2612"
    },
    {
      "channel": 4,
      "note": 51,
      "start": 30.5137,
      "duration": 0.0803,
      "velocity": 126,
      "chip": "ym2612"
    },
    {
      "channel": 3,
      "note": 52,
      "start": 30.517,
      "duration": 0.0935,
      "velocity": 127,
      "chip": "ym2612"
    },
    {
      "channel": 4,
      "note": 55,
      "start": 30.664,
      "duration": 0.0466,
      "velocity": 126,
      "chip": "ym2612"
    },
    {
      "channel": 3,
      "note": 59,
      "start": 30.6674,
      "duration": 0.0932,
      "velocity": 127,
      "chip": "ym2612"
    },
    {
      "channel": 2,
      "note": 51,
      "start": 30.7967,
      "duration": 0.1141,
      "velocity": 110,
      "chip": "ym2612"
    },
    {
      "channel": 4,
      "note": 51,
      "start": 30.7994,
      "duration": 0.1111,
      "velocity": 126,
      "chip": "ym2612"
    },
    {
      "channel": 2,
      "note": 51,
      "start": 30.9466,
      "duration": 0.0808,
      "velocity": 110,
      "chip": "ym2612"
    },
    {
      "channel": 1,
      "note": 45,
      "start": 30.949,
      "duration": 0.2281,
      "velocity": 113,
      "chip": "ym2612"
    },
    {
      "channel": 4,
      "note": 53,
      "start": 30.9518,
      "duration": 0.0421,
      "velocity": 126,
      "chip": "ym2612"
    },
    {
      "channel": 0,
      "note": 62,
      "start": 30.9552,
      "duration": 0.172,
      "velocity": 122,
      "chip": "ym2612"
    },
    {
      "channel": 3,
      "note": 59,
      "start": 30.9582,
      "duration": 0.0524,
      "velocity": 127,
      "chip": "ym2612"
    },
    {
      "channel": 2,
      "note": 51,
      "start": 31.0798,
      "duration": 0.0976,
      "velocity": 110,
      "chip": "ym2612"
    },
    {
      "channel": 5,
      "note": 52,
      "start": 31.0834,
      "duration": 0.0605,
      "velocity": 122,
      "chip": "ym2612"
    },
    {
      "channel": 2,
      "note": 51,
      "start": 31.2298,
      "duration": 0.0808,
      "velocity": 110,
      "chip": "ym2612"
    },
    {
      "channel": 4,
      "note": 53,
      "start": 31.2325,
      "duration": 0.028,
      "velocity": 126,
      "chip": "ym2612"
    },
    {
      "channel": 0,
      "note": 52,
      "start": 31.2361,
      "duration": 0.1244,
      "velocity": 122,
      "chip": "ym2612"
    },
    {
      "channel": 2,
      "note": 51,
      "start": 31.3633,
      "duration": 0.1141,
      "velocity": 110,
      "chip": "ym2612"
    },
    {
      "channel": 4,
      "note": 51,
      "start": 31.3661,
      "duration": 0.0945,
      "velocity": 126,
      "chip": "ym2612"
    },
    {
      "channel": 2,
      "note": 51,
      "start": 31.5133,
      "duration": 0.0641,
      "velocity": 110,
      "chip": "ym2612"
    },
    {
      "channel": 4,
      "note": 55,
      "start": 31.5161,
      "duration": 0.0278,
      "velocity": 126,
      "chip": "ym2612"
    },
    {
      "channel": 3,
      "note": 59,
      "start": 31.5195,
      "duration": 0.0577,
      "velocity": 127,
      "chip": "ym2612"
    },
    {
      "channel": 2,
      "note": 51,
      "start": 31.6471,
      "duration": 0.1136,
      "velocity": 110,
      "chip": "ym2612"
    },
    {
      "channel": 4,
      "note": 51,
      "start": 31.6498,
      "duration": 0.0941,
      "velocity": 126,
      "chip": "ym2612"
    },
    {
      "channel": 3,
      "note": 52,
      "start": 31.6532,
      "duration": 0.0906,
      "velocity": 127,
      "chip": "ym2612"
    },
    {
      "channel": 4,
      "note": 55,
      "start": 31.7803,
      "duration": 0.047,
      "velocity": 126,
      "chip": "ym2612"
    },
    {
      "channel": 3,
      "note": 59,
      "start": 31.7843,
      "duration": 0.0763,
      "velocity": 127,
      "chip": "ym2612"
    },
    {
      "channel": 2,
      "note": 51,
      "start": 31.9301,
      "duration": 0.1307,
      "velocity": 110,
      "chip": "ym2612"
    },
    {
      "channel": 4,
      "note": 51,
      "start": 31.9332,
      "duration": 0.1107,
      "velocity": 126,
      "chip": "ym2612"
    },
    {
      "channel": 2,
      "note": 51,
      "start": 32.0635,
      "duration": 0.1137,
      "velocity": 110,
      "chip": "ym2612"
    },
    {
      "channel": 1,
      "note": 45,
      "start": 32.0661,
      "duration": 0.2611,
      "velocity": 113,
      "chip": "ym2612"
    },
    {
      "channel": 4,
      "note": 53,
      "start": 32.0689,
      "duration": 0.0751,
      "velocity": 126,
      "chip": "ym2612"
    },
    {
      "channel": 4,
      "note": 53,
      "start": 32.3472,
      "duration": 0.0468,
      "velocity": 126,
      "chip": "ym2612"
    },
    {
      "channel": 3,
      "note": 59,
      "start": 32.3507,
      "duration": 0.0932,
      "velocity": 127,
      "chip": "ym2612"
    },
    {
      "channel": 2,
      "note": 51,
      "start": 32.4967,
      "duration": 0.1307,
      "velocity": 110,
      "chip": "ym2612"
    },
    {
      "channel": 4,
      "note": 51,
      "start": 32.4994,
      "duration": 0.1112,
      "velocity": 126,
      "chip": "ym2612"
    },
    {
      "channel": 3,
      "note": 52,
      "start": 32.503,
      "duration": 0.0576,
      "velocity": 127,
      "chip": "ym2612"
    },
    {
      "channel": 2,
      "note": 51,
      "start": 32.6301,
      "duration": 0.2139,
      "velocity": 110,
      "chip": "ym2612"
    },
    {
      "channel": 4,
      "note": 55,
      "start": 32.6329,
      "duration": 0.0444,
      "velocity": 126,
      "chip": "ym2612"
    },
    {
      "channel": 4,
      "note": 51,
      "start": 32.7637,
      "duration": 0.097,
      "velocity": 126,
      "chip": "ym2612"
    },
    {
      "channel": 3,
      "note": 52,
      "start": 32.7672,
      "duration": 0.0933,
      "velocity": 127,
      "chip": "ym2612"
    },
    {
      "channel": 4,
      "note": 55,
      "start": 32.9137,
      "duration": 0.0636,
      "velocity": 126,
      "chip": "ym2612"
    },
    {
      "channel": 3,
      "note": 59,
      "start": 32.9171,
      "duration": 0.0934,
      "velocity": 127,
      "chip": "ym2612"
    },
    {
      "channel": 2,
      "note": 51,
      "start": 33.0471,
      "duration": 0.1136,
      "velocity": 110,
      "chip": "ym2612"
    },
    {
      "channel": 4,
      "note": 51,
      "start": 33.0502,
      "duration": 0.1103,
      "velocity": 126,
      "chip": "ym2612"
    },
    {
      "channel": 2,
      "note": 51,
      "start": 33.1966,
      "duration": 0.0641,
      "velocity": 110,
      "chip": "ym2612"
    },
    {
      "channel": 1,
      "note": 45,
      "start": 33.1994,
      "duration": 0.2444,
      "velocity": 113,
      "chip": "ym2612"
    },
    {
      "channel": 4,
      "note": 53,
      "start": 33.2022,
      "duration": 0.0417,
      "velocity": 126,
      "chip": "ym2612"
    },
    {
      "channel": 0,
      "note": 62,
      "start": 33.206,
      "duration": 0.1712,
      "velocity": 122,
      "chip": "ym2612"
    },
    {
      "channel": 3,
      "note": 59,
      "start": 33.2089,
      "duration": 0.0517,
      "velocity": 127,
      "chip": "ym2612"
    },
    {
      "channel": 2,
      "note": 51,
      "start": 33.3299,
      "duration": 0.0975,
      "velocity": 110,
      "chip": "ym2612"
    },
    {
      "channel": 5,
      "note": 52,
      "start": 33.3336,
      "duration": 0.0937,
      "velocity": 122,
      "chip": "ym2612"
    },
    {
      "channel": 2,
      "note": 51,
      "start": 33.4798,
      "duration": 0.0642,
      "velocity": 110,
      "chip": "ym2612"
    },
    {
      "channel": 4,
      "note": 53,
      "start": 33.4826,
      "duration": 0.0447,
      "velocity": 126,
      "chip": "ym2612"
    },
    {
      "channel": 0,
      "note": 52,
      "start": 33.4859,
      "duration": 0.1246,
      "velocity": 122,
      "chip": "ym2612"
    },
    {
      "channel": 2,
      "note": 51,
      "start": 33.6133,
      "duration": 0.1141,
      "velocity": 110,
      "chip": "ym2612"
    },
    {
      "channel": 4,
      "note": 51,
      "start": 33.6161,
      "duration": 0.1111,
      "velocity": 126,
      "chip": "ym2612"
    },
    {
      "channel": 2,
      "note": 51,
      "start": 33.7633,
      "duration": 0.0808,
      "velocity": 110,
      "chip": "ym2612"
    },
    {
      "channel": 4,
      "note": 55,
      "start": 33.7661,
      "duration": 0.0279,
      "velocity": 126,
      "chip": "ym2612"
    },
    {
      "channel": 0,
      "note": 52,
      "start": 33.7696,
      "duration": 0.1409,
      "velocity": 122,
      "chip": "ym2612"
    },
    {
      "channel": 3,
      "note": 59,
      "start": 33.7729,
      "duration": 0.071,
      "velocity": 127,
      "chip": "ym2612"
    },
    {
      "channel": 2,
      "note": 51,
      "start": 33.8966,
      "duration": 0.0976,
      "velocity": 110,
      "chip": "ym2612"
    },
    {
      "channel": 4,
      "note": 51,
      "start": 33.8994,
      "duration": 0.0946,
      "velocity": 126,
      "chip": "ym2612"
    },
    {
      "channel": 3,
      "note": 52,
      "start": 33.9027,
      "duration": 0.0912,
      "velocity": 127,
      "chip": "ym2612"
    },
    {
      "channel": 4,
      "note": 55,
      "start": 34.0302,
      "duration": 0.047,
      "velocity": 126,
      "chip": "ym2612"
    },
    {
      "channel": 3,
      "note": 59,
      "start": 34.0338,
      "duration": 0.0768,
      "velocity": 127,
      "chip": "ym2612"
    },
    {
      "channel": 2,
      "note": 51,
      "start": 34.18,
      "duration": 0.1142,
      "velocity": 110,
      "chip": "ym2612"
    },
    {
      "channel": 4,
      "note": 51,
      "start": 34.1831,
      "duration": 0.1109,
      "velocity": 126,
      "chip": "ym2612"
    },
    {
      "channel": 2,
      "note": 51,
      "start": 34.3137,
      "duration": 0.097,
      "velocity": 110,
      "chip": "ym2612"
    },
    {
      "channel": 1,
      "note": 45,
      "start": 34.3163,
      "duration": 0.211,
      "velocity": 113,
      "chip": "ym2612"
    },
    {
      "channel": 4,
      "note": 53,
      "start": 34.3191,
      "duration": 0.0415,
      "velocity": 126,
      "chip": "ym2612"
    },
    {
      "channel": 4,
      "note": 53,
      "start": 34.597,
      "duration": 0.0302,
      "velocity": 126,
      "chip": "ym2612"
    },
    {
      "channel": 3,
      "note": 59,
      "start": 34.6004,
      "duration": 0.0602,
      "velocity": 127,
      "chip": "ym2612"
    },
    {
      "channel": 2,
      "note": 51,
      "start": 34.7468,
      "duration": 0.1306,
      "velocity": 110,
      "chip": "ym2612"
    },
    {
      "channel": 3,
      "note": 52,
      "start": 34.7505,
      "duration": 0.0768,
      "velocity": 127,
      "chip": "ym2612"
    },
    {
      "channel": 2,
      "note": 51,
      "start": 34.8802,
      "duration": 0.2139,
      "velocity": 110,
      "chip": "ym2612"
    },
    {
      "channel": 4,
      "note": 53,
      "start": 34.8831,
      "duration": 0.0441,
      "velocity": 126,
      "chip": "ym2612"
    },
    {
      "channel": 4,
      "note": 51,
      "start": 35.0305,
      "duration": 0.0634,
      "velocity": 126,
      "chip": "ym2612"
    },
    {
      "channel": 3,
      "note": 52,
      "start": 35.0339,
      "duration": 0.0766,
      "velocity": 127,
      "chip": "ym2612"
    },
    {
      "channel": 3,
      "note": 59,
      "start": 35.1645,
      "duration": 0.0628,
      "velocity": 127,
      "chip": "ym2612"
    },
    {
      "channel": 2,
      "note": 51,
      "start": 35.2967,
      "duration": 0.1139,
      "velocity": 110,
      "chip": "ym2612"
    },
    {
      "channel": 4,
      "note": 51,
      "start": 35.2996,
      "duration": 0.0944,
      "velocity": 126,
      "chip": "ym2612"
    },
    {
      "channel": 3,
      "note": 52,
      "start": 35.3034,
      "duration": 0.0905,
      "velocity": 127,
      "chip": "ym2612"
    },
    {
      "channel": 2,
      "note": 51,
      "start": 35.4466,
      "duration": 0.0642,
      "velocity": 110,
      "chip": "ym2612"
    },
    {
      "channel": 1,
      "note": 45,
      "start": 35.4491,
      "duration": 0.2114,
      "velocity": 113,
      "chip": "ym2612"
    },
    {
      "channel": 4,
      "note": 53,
      "start": 35.4521,
      "duration": 0.0418,
      "velocity": 126,
      "chip": "ym2612"
    },
    {
      "channel": 0,
      "note": 62,
      "start": 35.4554,
      "duration": 0.1716,
      "velocity": 122,
      "chip": "ym2612"
    },
    {
      "channel": 3,
      "note": 59,
      "start": 35.4584,
      "duration": 0.0521,
      "velocity": 127,
      "chip": "ym2612"
    },
    {
      "channel": 2,
      "note": 51,
      "start": 35.5799,
      "duration": 0.1141,
      "velocity": 110,
      "chip": "ym2612"
    },
    {
      "channel": 4,
      "note": 51,
      "start": 35.5827,
      "duration": 0.078,
      "velocity": 126,
      "chip": "ym2612"
    },
    {
      "channel": 5,
      "note": 52,
      "start": 35.5861,
      "duration": 0.0747,
      "velocity": 122,
      "chip": "ym2612"
    },
    {
      "channel": 2,
      "note": 51,
      "start": 35.7303,
      "duration": 0.0803,
      "velocity": 110,
      "chip": "ym2612"
    },
    {
      "channel": 4,
      "note": 53,
      "start": 35.7331,
      "duration": 0.0441,
      "velocity": 126,
      "chip": "ym2612"
    },
    {
      "channel": 0,
      "note": 52,
      "start": 35.7369,
      "duration": 0.1235,
      "velocity": 122,
      "chip": "ym2612"
    },
    {
      "channel": 3,
      "note": 59,
      "start": 35.7399,
      "duration": 0.0372,
      "velocity": 127,
      "chip": "ym2612"
    },
    {
      "channel": 2,
      "note": 51,
      "start": 35.8633,
      "duration": 0.114,
      "velocity": 110,
      "chip": "ym2612"
    },
    {
      "channel": 4,
      "note": 51,
      "start": 35.8661,
      "duration": 0.0946,
      "velocity": 126,
      "chip": "ym2612"
    },
    {
      "channel": 3,
      "note": 52,
      "start": 35.8698,
      "duration": 0.0908,
      "velocity": 127,
      "chip": "ym2612"
    },
    {
      "channel": 2,
      "note": 51,
      "start": 36.0134,
      "duration": 0.0806,
      "velocity": 110,
      "chip": "ym2612"
    },
    {
      "channel": 1,
      "note": 45,
      "start": 36.0161,
      "duration": 0.1111,
      "velocity": 113,
      "chip": "ym2612"
    },
    {
      "channel": 4,
      "note": 55,
      "start": 36.0188,
      "duration": 0.0585,
      "velocity": 126,
      "chip": "ym2612"
    },
    {
      "channel": 4,
      "note": 51,
      "start": 36.1469,
      "duration": 0.097,
      "velocity": 126,
      "chip": "ym2612"
    },
    {
      "channel": 2,
      "note": 51,
      "start": 36.2797,
      "duration": 0.0976,
      "velocity": 110,
      "chip": "ym2612"
    },
    {
      "channel": 1,
      "note": 45,
      "start": 36.2822,
      "duration": 0.1283,
      "velocity": 113,
      "chip": "ym2612"
    },
    {
      "channel": 4,
      "note": 55,
      "start": 36.2848,
      "duration": 0.0759,
      "velocity": 126,
      "chip": "ym2612"
    },
    {
      "channel": 4,
      "note": 51,
      "start": 36.4302,
      "duration": 0.097,
      "velocity": 126,
      "chip": "ym2612"
    },
    {
      "channel": 2,
      "note": 51,
      "start": 36.5635,
      "duration": 0.1139,
      "velocity": 110,
      "chip": "ym2612"
    },
    {
      "channel": 1,
      "note": 45,
      "start": 36.5663,
      "duration": 0.1609,
      "velocity": 113,
      "chip": "ym2612"
    },
    {
      "channel": 4,
      "note": 53,
      "start": 36.5695,
      "duration": 0.0745,
      "velocity": 126,
      "chip": "ym2612"
    },
    {
      "channel": 5,
      "note": 52,
      "start": 36.7146,
      "duration": 0.1128,
      "velocity": 127,
      "chip": "ym2612"
    },
    {
      "channel": 4,
      "note": 53,
      "start": 36.847,
      "duration": 0.0636,
      "velocity": 126,
      "chip": "ym2612"
    },
    {
      "channel": 5,
      "note": 50,
      "start": 36.8506,
      "duration": 0.11,
      "velocity": 127,
      "chip": "ym2612"
    },
    {
      "channel": 4,
      "note": 51,
      "start": 36.9969,
      "duration": 0.0804,
      "velocity": 126,
      "chip": "ym2612"
    },
    {
      "channel": 4,
      "note": 55,
      "start": 37.1303,
      "duration": 0.047,
      "velocity": 126,
      "chip": "ym2612"
    },
    {
      "channel": 5,
      "note": 52,
      "start": 37.1338,
      "duration": 0.0936,
      "velocity": 127,
      "chip": "ym2612"
    },
    {
      "channel": 4,
      "note": 51,
      "start": 37.2803,
      "duration": 0.0803,
      "velocity": 126,
      "chip": "ym2612"
    },
    {
      "channel": 5,
      "note": 50,
      "start": 37.2836,
      "duration": 0.1104,
      "velocity": 127,
      "chip": "ym2612"
    },
    {
      "channel": 4,
      "note": 55,
      "start": 37.4137,
      "duration": 0.0636,
      "velocity": 126,
      "chip": "ym2612"
    },
    {
      "channel": 5,
      "note": 52,
      "start": 37.417,
      "duration": 0.0937,
      "velocity": 127,
      "chip": "ym2612"
    },
    {
      "channel": 4,
      "note": 51,
      "start": 37.5469,
      "duration": 0.0971,
      "velocity": 126,
      "chip": "ym2612"
    },
    {
      "channel": 5,
      "note": 50,
      "start": 37.5502,
      "duration": 0.1104,
      "velocity": 127,
      "chip": "ym2612"
    },
    {
      "channel": 4,
      "note": 53,
      "start": 37.6975,
      "duration": 0.0631,
      "velocity": 126,
      "chip": "ym2612"
    },
    {
      "channel": 5,
      "note": 52,
      "start": 37.7008,
      "duration": 0.0932,
      "velocity": 127,
      "chip": "ym2612"
    },
    {
      "channel": 5,
      "note": 50,
      "start": 37.8311,
      "duration": 0.113,
      "velocity": 127,
      "chip": "ym2612"
    },
    {
      "channel": 4,
      "note": 53,
      "start": 37.9805,
      "duration": 0.0467,
      "velocity": 126,
      "chip": "ym2612"
    },
    {
      "channel": 5,
      "note": 52,
      "start": 37.9837,
      "duration": 0.1104,
      "velocity": 127,
      "chip": "ym2612"
    },
    {
      "channel": 4,
      "note": 51,
      "start": 38.1137,
      "duration": 0.097,
      "velocity": 126,
      "chip": "ym2612"
    },
    {
      "channel": 5,
      "note": 50,
      "start": 38.1173,
      "duration": 0.11,
      "velocity": 127,
      "chip": "ym2612"
    },
    {
      "channel": 2,
      "note": 51,
      "start": 38.2634,
      "duration": 0.0806,
      "velocity": 110,
      "chip": "ym2612"
    },
    {
      "channel": 1,
      "note": 45,
      "start": 38.2661,
      "duration": 0.1111,
      "velocity": 113,
      "chip": "ym2612"
    },
    {
      "channel": 4,
      "note": 55,
      "start": 38.2688,
      "duration": 0.0252,
      "velocity": 126,
      "chip": "ym2612"
    },
    {
      "channel": 4,
      "note": 51,
      "start": 38.3969,
      "duration": 0.0637,
      "velocity": 126,
      "chip": "ym2612"
    },
    {
      "channel": 2,
      "note": 51,
      "start": 38.5465,
      "duration": 0.0808,
      "velocity": 110,
      "chip": "ym2612"
    },
    {
      "channel": 1,
      "note": 45,
      "start": 38.5493,
      "duration": 0.1112,
      "velocity": 113,
      "chip": "ym2612"
    },
    {
      "channel": 4,
      "note": 55,
      "start": 38.5519,
      "duration": 0.0253,
      "velocity": 126,
      "chip": "ym2612"
    },
    {
      "channel": 4,
      "note": 51,
      "start": 38.6802,
      "duration": 0.1137,
      "velocity": 126,
      "chip": "ym2612"
    },
    {
      "channel": 2,
      "note": 51,
      "start": 38.8139,
      "duration": 0.1136,
      "velocity": 110,
      "chip": "ym2612"
    },
    {
      "channel": 1,
      "note": 45,
      "start": 38.8167,
      "duration": 0.1438,
      "velocity": 113,
      "chip": "ym2612"
    },
    {
      "channel": 4,
      "note": 53,
      "start": 38.8199,
      "duration": 0.0407,
      "velocity": 126,
      "chip": "ym2612"
    },
    {
      "channel": 5,
      "note": 52,
      "start": 38.8231,
      "duration": 0.1042,
      "velocity": 127,
      "chip": "ym2612"
    },
    {
      "channel": 5,
      "note": 50,
      "start": 38.9643,
      "duration": 0.113,
      "velocity": 127,
      "chip": "ym2612"
    },
    {
      "channel": 4,
      "note": 53,
      "start": 39.0971,
      "duration": 0.0469,
      "velocity": 126,
      "chip": "ym2612"
    },
    {
      "channel": 5,
      "note": 52,
      "start": 39.1003,
      "duration": 0.0938,
      "velocity": 127,
      "chip": "ym2612"
    },
    {
      "channel": 4,
      "note": 51,
      "start": 39.247,
      "duration": 0.0803,
      "velocity": 126,
      "chip": "ym2612"
    },
    {
      "channel": 5,
      "note": 50,
      "start": 39.2502,
      "duration": 0.0773,
      "velocity": 127,
      "chip": "ym2612"
    },
    {
      "channel": 4,
      "note": 55,
      "start": 39.3802,
      "duration": 0.047,
      "velocity": 126,
      "chip": "ym2612"
    },
    {
      "channel": 5,
      "note": 52,
      "start": 39.3836,
      "duration": 0.0604,
      "velocity": 127,
      "chip": "ym2612"
    },
    {
      "channel": 4,
      "note": 51,
      "start": 39.5302,
      "duration": 0.0637,
      "velocity": 126,
      "chip": "ym2612"
    },
    {
      "channel": 5,
      "note": 50,
      "start": 39.5336,
      "duration": 0.0772,
      "velocity": 127,
      "chip": "ym2612"
    },
    {
      "channel": 4,
      "note": 55,
      "start": 39.6637,
      "duration": 0.047,
      "velocity": 126,
      "chip": "ym2612"
    },
    {
      "channel": 5,
      "note": 52,
      "start": 39.6668,
      "duration": 0.0939,
      "velocity": 127,
      "chip": "ym2612"
    },
    {
      "channel": 4,
      "note": 51,
      "start": 39.7969,
      "duration": 0.1304,
      "velocity": 126,
      "chip": "ym2612"
    },
    {
      "channel": 5,
      "note": 50,
      "start": 39.8001,
      "duration": 0.0939,
      "velocity": 127,
      "chip": "ym2612"
    },
    {
      "channel": 4,
      "note": 53,
      "start": 39.9471,
      "duration": 0.0468,
      "velocity": 126,
      "chip": "ym2612"
    },
    {
      "channel": 5,
      "note": 52,
      "start": 39.9503,
      "duration": 0.0937,
      "velocity": 127,
      "chip": "ym2612"
    },
    {
      "channel": 5,
      "note": 50,
      "start": 40.0808,
      "duration": 0.0965,
      "velocity": 127,
      "chip": "ym2612"
    },
    {
      "channel": 4,
      "note": 53,
      "start": 40.2307,
      "duration": 0.0466,
      "velocity": 126,
      "chip": "ym2612"
    },
    {
      "channel": 5,
      "note": 52,
      "start": 40.2342,
      "duration": 0.0765,
      "velocity": 127,
      "chip": "ym2612"
    },
    {
      "channel": 4,
      "note": 51,
      "start": 40.3636,
      "duration": 0.0971,
      "velocity": 126,
      "chip": "ym2612"
    },
    {
      "channel": 5,
      "note": 50,
      "start": 40.3669,
      "duration": 0.1104,
      "velocity": 127,
      "chip": "ym2612"
    },
    {
      "channel": 2,
      "note": 51,
      "start": 40.5134,
      "duration": 0.0807,
      "velocity": 110,
      "chip": "ym2612"
    },
    {
      "channel": 1,
      "note": 45,
      "start": 40.5161,
      "duration": 0.1111,
      "velocity": 113,
      "chip": "ym2612"
    },
    {
      "channel": 4,
      "note": 55,
      "start": 40.5188,
      "duration": 0.0251,
      "velocity": 126,
      "chip": "ym2612"
    },
    {
      "channel": 5,
      "note": 52,
      "start": 40.5222,
      "duration": 0.0551,
      "velocity": 127,
      "chip": "ym2612"
    },
    {
      "channel": 4,
      "note": 51,
      "start": 40.647,
      "duration": 0.0969,
      "velocity": 126,
      "chip": "ym2612"
    },
    {
      "channel": 2,
      "note": 51,
      "start": 40.7963,
      "duration": 0.081,
      "velocity": 110,
      "chip": "ym2612"
    },
    {
      "channel": 1,
      "note": 45,
      "start": 40.7988,
      "duration": 0.1117,
      "velocity": 113,
      "chip": "ym2612"
    },
    {
      "channel": 4,
      "note": 55,
      "start": 40.8014,
      "duration": 0.0259,
      "velocity": 126,
      "chip": "ym2612"
    },
    {
      "channel": 4,
      "note": 51,
      "start": 40.9302,
      "duration": 0.1137,
      "velocity": 126,
      "chip": "ym2612"
    },
    {
      "channel": 2,
      "note": 51,
      "start": 41.0633,
      "duration": 0.0975,
      "velocity": 110,
      "chip": "ym2612"
    },
    {
      "channel": 1,
      "note": 45,
      "start": 41.0662,
      "duration": 0.1442,
      "velocity": 113,
      "chip": "ym2612"
    },
    {
      "channel": 4,
      "note": 53,
      "start": 41.069,
      "duration": 0.075,
      "velocity": 126,
      "chip": "ym2612"
    },
    {
      "channel": 5,
      "note": 52,
      "start": 41.0724,
      "duration": 0.0882,
      "velocity": 127,
      "chip": "ym2612"
    },
    {
      "channel": 5,
      "note": 50,
      "start": 41.2142,
      "duration": 0.0797,
      "velocity": 127,
      "chip": "ym2612"
    },
    {
      "channel": 4,
      "note": 53,
      "start": 41.3475,
      "duration": 0.0464,
      "velocity": 126,
      "chip": "ym2612"
    },
    {
      "channel": 5,
      "note": 52,
      "start": 41.3508,
      "duration": 0.0765,
      "velocity": 127,
      "chip": "ym2612"
    },
    {
      "channel": 4,
      "note": 51,
      "start": 41.4969,
      "duration": 0.1137,
      "velocity": 126,
      "chip": "ym2612"
    },
    {
      "channel": 5,
      "note": 50,
      "start": 41.5002,
      "duration": 0.0771,
      "velocity": 127,
      "chip": "ym2612"
    },
    {
      "channel": 4,
      "note": 55,
      "start": 41.6302,
      "duration": 0.047,
      "velocity": 126,
      "chip": "ym2612"
    },
    {
      "channel": 5,
      "note": 52,
      "start": 41.6336,
      "duration": 0.0604,
      "velocity": 127,
      "chip": "ym2612"
    },
    {
      "channel": 4,
      "note": 51,
      "start": 41.7802,
      "duration": 0.0804,
      "velocity": 126,
      "chip": "ym2612"
    },
    {
      "channel": 5,
      "note": 50,
      "start": 41.7839,
      "duration": 0.0769,
      "velocity": 127,
      "chip": "ym2612"
    },
    {
      "channel": 4,
      "note": 55,
      "start": 41.9136,
      "duration": 0.0637,
      "velocity": 126,
      "chip": "ym2612"
    },
    {
      "channel": 5,
      "note": 52,
      "start": 41.9169,
      "duration": 0.0605,
      "velocity": 127,
      "chip": "ym2612"
    },
    {
      "channel": 4,
      "note": 51,
      "start": 42.0636,
      "duration": 0.1137,
      "velocity": 126,
      "chip": "ym2612"
    },
    {
      "channel": 5,
      "note": 50,
      "start": 42.0669,
      "duration": 0.0771,
      "velocity": 127,
      "chip": "ym2612"
    },
    {
      "channel": 4,
      "note": 53,
      "start": 42.1972,
      "duration": 0.0467,
      "velocity": 126,
      "chip": "ym2612"
    },
    {
      "channel": 5,
      "note": 52,
      "start": 42.2004,
      "duration": 0.0935,
      "velocity": 127,
      "chip": "ym2612"
    },
    {
      "channel": 5,
      "note": 50,
      "start": 42.3309,
      "duration": 0.0963,
      "velocity": 127,
      "chip": "ym2612"
    },
    {
      "channel": 4,
      "note": 53,
      "start": 42.4807,
      "duration": 0.0466,
      "velocity": 126,
      "chip": "ym2612"
    },
    {
      "channel": 5,
      "note": 52,
      "start": 42.4838,
      "duration": 0.0768,
      "velocity": 127,
      "chip": "ym2612"
    },
    {
      "channel": 4,
      "note": 51,
      "start": 42.6137,
      "duration": 0.1136,
      "velocity": 126,
      "chip": "ym2612"
    },
    {
      "channel": 5,
      "note": 50,
      "start": 42.617,
      "duration": 0.0937,
      "velocity": 127,
      "chip": "ym2612"
    },
    {
      "channel": 2,
      "note": 51,
      "start": 42.7635,
      "duration": 0.0638,
      "velocity": 110,
      "chip": "ym2612"
    },
    {
      "channel": 1,
      "note": 45,
      "start": 42.7661,
      "duration": 0.1111,
      "velocity": 113,
      "chip": "ym2612"
    },
    {
      "channel": 4,
      "note": 55,
      "start": 42.7688,
      "duration": 0.0418,
      "velocity": 126,
      "chip": "ym2612"
    },
    {
      "channel": 4,
      "note": 51,
      "start": 42.897,
      "duration": 0.0969,
      "velocity": 126,
      "chip": "ym2612"
    },
    {
      "channel": 2,
      "note": 51,
      "start": 43.0466,
      "duration": 0.0807,
      "velocity": 110,
      "chip": "ym2612"
    },
    {
      "channel": 1,
      "note": 45,
      "start": 43.0494,
      "duration": 0.111,
      "velocity": 113,
      "chip": "ym2612"
    },
    {
      "channel": 4,
      "note": 55,
      "start": 43.052,
      "duration": 0.0252,
      "velocity": 126,
      "chip": "ym2612"
    },
    {
      "channel": 4,
      "note": 51,
      "start": 43.1803,
      "duration": 0.1136,
      "velocity": 126,
      "chip": "ym2612"
    },
    {
      "channel": 2,
      "note": 51,
      "start": 43.3137,
      "duration": 0.0971,
      "velocity": 110,
      "chip": "ym2612"
    },
    {
      "channel": 1,
      "note": 45,
      "start": 43.3165,
      "duration": 0.144,
      "velocity": 113,
      "chip": "ym2612"
    },
    {
      "channel": 4,
      "note": 53,
      "start": 43.3193,
      "duration": 0.0413,
      "velocity": 126,
      "chip": "ym2612"
    },
    {
      "channel": 5,
      "note": 52,
      "start": 43.3226,
      "duration": 0.0881,
      "velocity": 127,
      "chip": "ym2612"
    },
    {
      "channel": 5,
      "note": 50,
      "start": 43.4643,
      "duration": 0.0963,
      "velocity": 127,
      "chip": "ym2612"
    },
    {
      "channel": 4,
      "note": 53,
      "start": 43.597,
      "duration": 0.0303,
      "velocity": 126,
      "chip": "ym2612"
    },
    {
      "channel": 5,
      "note": 52,
      "start": 43.6003,
      "duration": 0.077,
      "velocity": 127,
      "chip": "ym2612"
    },
    {
      "channel": 5,
      "note": 50,
      "start": 43.7481,
      "duration": 0.0791,
      "velocity": 127,
      "chip": "ym2612"
    },
    {
      "channel": 4,
      "note": 53,
      "start": 43.8808,
      "duration": 0.0464,
      "velocity": 126,
      "chip": "ym2612"
    },
    {
      "channel": 5,
      "note": 52,
      "start": 43.8841,
      "duration": 0.0598,
      "velocity": 127,
      "chip": "ym2612"
    },
    {
      "channel": 4,
      "note": 51,
      "start": 44.0304,
      "duration": 0.0636,
      "velocity": 126,
      "chip": "ym2612"
    },
    {
      "channel": 5,
      "note": 50,
      "start": 44.0337,
      "duration": 0.077,
      "velocity": 127,
      "chip": "ym2612"
    },
    {
      "channel": 5,
      "note": 52,
      "start": 44.1643,
      "duration": 0.0963,
      "velocity": 127,
      "chip": "ym2612"
    },
    {
      "channel": 4,
      "note": 51,
      "start": 44.3137,
      "duration": 0.0802,
      "velocity": 126,
      "chip": "ym2612"
    },
    {
      "channel": 5,
      "note": 50,
      "start": 44.317,
      "duration": 0.1102,
      "velocity": 127,
      "chip": "ym2612"
    },
    {
      "channel": 4,
      "note": 53,
      "start": 44.4471,
      "duration": 0.0468,
      "velocity": 126,
      "chip": "ym2612"
    },
    {
      "channel": 5,
      "note": 52,
      "start": 44.4504,
      "duration": 0.0603,
      "velocity": 127,
      "chip": "ym2612"
    },
    {
      "channel": 4,
      "note": 51,
      "start": 44.5802,
      "duration": 0.0804,
      "velocity": 126,
      "chip": "ym2612"
    },
    {
      "channel": 5,
      "note": 50,
      "start": 44.5836,
      "duration": 0.0937,
      "velocity": 127,
      "chip": "ym2612"
    },
    {
      "channel": 4,
      "note": 53,
      "start": 44.7302,
      "duration": 0.047,
      "velocity": 126,
      "chip": "ym2612"
    },
    {
      "channel": 5,
      "note": 52,
      "start": 44.7334,
      "duration": 0.0772,
      "velocity": 127,
      "chip": "ym2612"
    },
    {
      "channel": 4,
      "note": 51,
      "start": 44.864,
      "duration": 0.0966,
      "velocity": 126,
      "chip": "ym2612"
    },
    {
      "channel": 5,
      "note": 50,
      "start": 44.868,
      "duration": 0.1093,
      "velocity": 127,
      "chip": "ym2612"
    },
    {
      "channel": 2,
      "note": 51,
      "start": 45.0133,
      "duration": 0.1141,
      "velocity": 110,
      "chip": "ym2612"
    },
    {
      "channel": 4,
      "note": 55,
      "start": 45.0161,
      "duration": 0.0612,
      "velocity": 126,
      "chip": "ym2612"
    },
    {
      "channel": 0,
      "note": 61,
      "start": 45.0191,
      "duration": 0.108,
      "velocity": 127,
      "chip": "ym2612"
    },
    {
      "channel": 2,
      "note": 51,
      "start": 45.1467,
      "duration": 0.0975,
      "velocity": 110,
      "chip": "ym2612"
    },
    {
      "channel": 4,
      "note": 51,
      "start": 45.1495,
      "duration": 0.0945,
      "velocity": 126,
      "chip": "ym2612"
    },
    {
      "channel": 4,
      "note": 55,
      "start": 45.297,
      "duration": 0.0637,
      "velocity": 126,
      "chip": "ym2612"
    },
    {
      "channel": 2,
      "note": 51,
      "start": 45.4301,
      "duration": 0.1305,
      "velocity": 110,
      "chip": "ym2612"
    },
    {
      "channel": 4,
      "note": 51,
      "start": 45.4328,
      "duration": 0.0945,
      "velocity": 126,
      "chip": "ym2612"
    },
    {
      "channel": 2,
      "note": 51,
      "start": 45.5634,
      "duration": 0.0973,
      "velocity": 110,
      "chip": "ym2612"
    },
    {
      "channel": 1,
      "note": 45,
      "start": 45.5661,
      "duration": 0.261,
      "velocity": 113,
      "chip": "ym2612"
    },
    {
      "channel": 4,
      "note": 53,
      "start": 45.5689,
      "duration": 0.075,
      "velocity": 126,
      "chip": "ym2612"
    },
    {
      "channel": 4,
      "note": 53,
      "start": 45.8471,
      "duration": 0.0802,
      "velocity": 126,
      "chip": "ym2612"
    },
    {
      "channel": 0,
      "note": 61,
      "start": 45.85,
      "duration": 0.1104,
      "velocity": 127,
      "chip": "ym2612"
    },
    {
      "channel": 2,
      "note": 51,
      "start": 45.9971,
      "duration": 0.1137,
      "velocity": 110,
      "chip": "ym2612"
    },
    {
      "channel": 4,
      "note": 51,
      "start": 45.9998,
      "duration": 0.0774,
      "velocity": 126,
      "chip": "ym2612"
    },
    {
      "channel": 0,
      "note": 57,
      "start": 46.0024,
      "duration": 0.108,
      "velocity": 127,
      "chip": "ym2612"
    },
    {
      "channel": 2,
      "note": 51,
      "start": 46.1299,
      "duration": 0.1141,
      "velocity": 110,
      "chip": "ym2612"
    },
    {
      "channel": 4,
      "note": 55,
      "start": 46.1331,
      "duration": 0.0443,
      "velocity": 126,
      "chip": "ym2612"
    },
    {
      "channel": 4,
      "note": 51,
      "start": 46.2804,
      "duration": 0.0802,
      "velocity": 126,
      "chip": "ym2612"
    },
    {
      "channel": 0,
      "note": 57,
      "start": 46.2832,
      "duration": 0.1272,
      "velocity": 127,
      "chip": "ym2612"
    },
    {
      "channel": 4,
      "note": 55,
      "start": 46.4137,
      "duration": 0.0637,
      "velocity": 126,
      "chip": "ym2612"
    },
    {
      "channel": 0,
      "note": 62,
      "start": 46.4165,
      "duration": 0.1107,
      "velocity": 127,
      "chip": "ym2612"
    },
    {
      "channel": 2,
      "note": 51,
      "start": 46.5633,
      "duration": 0.1141,
      "velocity": 110,
      "chip": "ym2612"
    },
    {
      "channel": 4,
      "note": 51,
      "start": 46.566,
      "duration": 0.0779,
      "velocity": 126,
      "chip": "ym2612"
    },
    {
      "channel": 2,
      "note": 51,
      "start": 46.6965,
      "duration": 0.0975,
      "velocity": 110,
      "chip": "ym2612"
    },
    {
      "channel": 1,
      "note": 45,
      "start": 46.6989,
      "duration": 0.245,
      "velocity": 113,
      "chip": "ym2612"
    },
    {
      "channel": 4,
      "note": 53,
      "start": 46.7017,
      "duration": 0.0588,
      "velocity": 126,
      "chip": "ym2612"
    },
    {
      "channel": 0,
      "note": 62,
      "start": 46.7044,
      "duration": 0.1061,
      "velocity": 127,
      "chip": "ym2612"
    },
    {
      "channel": 2,
      "note": 51,
      "start": 46.8299,
      "duration": 0.1143,
      "velocity": 110,
      "chip": "ym2612"
    },
    {
      "channel": 2,
      "note": 51,
      "start": 46.9799,
      "duration": 0.0975,
      "velocity": 110,
      "chip": "ym2612"
    },
    {
      "channel": 4,
      "note": 53,
      "start": 46.9828,
      "duration": 0.0444,
      "velocity": 126,
      "chip": "ym2612"
    },
    {
      "channel": 2,
      "note": 51,
      "start": 47.1132,
      "duration": 0.1141,
      "velocity": 110,
      "chip": "ym2612"
    },
    {
      "channel": 4,
      "note": 51,
      "start": 47.1159,
      "duration": 0.0947,
      "velocity": 126,
      "chip": "ym2612"
    },
    {
      "channel": 2,
      "note": 51,
      "start": 47.2632,
      "duration": 0.0809,
      "velocity": 110,
      "chip": "ym2612"
    },
    {
      "channel": 4,
      "note": 55,
      "start": 47.2663,
      "duration": 0.0444,
      "velocity": 126,
      "chip": "ym2612"
    },
    {
      "channel": 0,
      "note": 61,
      "start": 47.2691,
      "duration": 0.0747,
      "velocity": 127,
      "chip": "ym2612"
    },
    {
      "channel": 2,
      "note": 51,
      "start": 47.3971,
      "duration": 0.1136,
      "velocity": 110,
      "chip": "ym2612"
    },
    {
      "channel": 4,
      "note": 51,
      "start": 47.3998,
      "duration": 0.0608,
      "velocity": 126,
      "chip": "ym2612"
    },
    {
      "channel": 4,
      "note": 55,
      "start": 47.5471,
      "duration": 0.0302,
      "velocity": 126,
      "chip": "ym2612"
    },
    {
      "channel": 2,
      "note": 51,
      "start": 47.6801,
      "duration": 0.1473,
      "velocity": 110,
      "chip": "ym2612"
    },
    {
      "channel": 4,
      "note": 51,
      "start": 47.6829,
      "duration": 0.1111,
      "velocity": 126,
      "chip": "ym2612"
    },
    {
      "channel": 2,
      "note": 51,
      "start": 47.8302,
      "duration": 0.1472,
      "velocity": 110,
      "chip": "ym2612"
    },
    {
      "channel": 1,
      "note": 45,
      "start": 47.8327,
      "duration": 0.2277,
      "velocity": 113,
      "chip": "ym2612"
    },
    {
      "channel": 4,
      "note": 53,
      "start": 47.8355,
      "duration": 0.0251,
      "velocity": 126,
      "chip": "ym2612"
    },
    {
      "channel": 4,
      "note": 53,
      "start": 48.097,
      "duration": 0.047,
      "velocity": 126,
      "chip": "ym2612"
    },
    {
      "channel": 0,
      "note": 61,
      "start": 48.1,
      "duration": 0.0938,
      "velocity": 127,
      "chip": "ym2612"
    },
    {
      "channel": 2,
      "note": 51,
      "start": 48.2465,
      "duration": 0.1318,
      "velocity": 110,
      "chip": "ym2612"
    },
    {
      "channel": 4,
      "note": 51,
      "start": 48.2493,
      "duration": 0.0779,
      "velocity": 126,
      "chip": "ym2612"
    },
    {
      "channel": 0,
      "note": 57,
      "start": 48.2521,
      "duration": 0.1251,
      "velocity": 127,
      "chip": "ym2612"
    },
    {
      "channel": 2,
      "note": 51,
      "start": 48.3802,
      "duration": 0.214,
      "velocity": 110,
      "chip": "ym2612"
    },
    {
      "channel": 4,
      "note": 55,
      "start": 48.3833,
      "duration": 0.044,
      "velocity": 126,
      "chip": "ym2612"
    },
    {
      "channel": 4,
      "note": 51,
      "start": 48.5303,
      "duration": 0.0637,
      "velocity": 126,
      "chip": "ym2612"
    },
    {
      "channel": 0,
      "note": 57,
      "start": 48.533,
      "duration": 0.1274,
      "velocity": 127,
      "chip": "ym2612"
    },
    {
      "channel": 4,
      "note": 55,
      "start": 48.6637,
      "duration": 0.047,
      "velocity": 126,
      "chip": "ym2612"
    },
    {
      "channel": 0,
      "note": 62,
      "start": 48.6665,
      "duration": 0.094,
      "velocity": 127,
      "chip": "ym2612"
    },
    {
      "channel": 2,
      "note": 51,
      "start": 48.8137,
      "duration": 0.1137,
      "velocity": 110,
      "chip": "ym2612"
    },
    {
      "channel": 4,
      "note": 51,
      "start": 48.8165,
      "duration": 0.1108,
      "velocity": 126,
      "chip": "ym2612"
    },
    {
      "channel": 2,
      "note": 51,
      "start": 48.9466,
      "duration": 0.0976,
      "velocity": 110,
      "chip": "ym2612"
    },
    {
      "channel": 1,
      "note": 45,
      "start": 48.949,
      "duration": 0.2282,
      "velocity": 113,
      "chip": "ym2612"
    },
    {
      "channel": 4,
      "note": 53,
      "start": 48.9518,
      "duration": 0.0422,
      "velocity": 126,
      "chip": "ym2612"
    },
    {
      "channel": 0,
      "note": 62,
      "start": 48.9549,
      "duration": 0.0889,
      "velocity": 127,
      "chip": "ym2612"
    },
    {
      "channel": 2,
      "note": 51,
      "start": 49.0798,
      "duration": 0.0977,
      "velocity": 110,
      "chip": "ym2612"
    },
    {
      "channel": 2,
      "note": 51,
      "start": 49.2297,
      "duration": 0.0976,
      "velocity": 110,
      "chip": "ym2612"
    },
    {
      "channel": 4,
      "note": 53,
      "start": 49.2324,
      "duration": 0.0448,
      "velocity": 126,
      "chip": "ym2612"
    },
    {
      "channel": 2,
      "note": 51,
      "start": 49.3633,
      "duration": 0.1141,
      "velocity": 110,
      "chip": "ym2612"
    },
    {
      "channel": 4,
      "note": 51,
      "start": 49.366,
      "duration": 0.0945,
      "velocity": 126,
      "chip": "ym2612"
    },
    {
      "channel": 2,
      "note": 51,
      "start": 49.5133,
      "duration": 0.0641,
      "velocity": 110,
      "chip": "ym2612"
    },
    {
      "channel": 4,
      "note": 55,
      "start": 49.5161,
      "duration": 0.0446,
      "velocity": 126,
      "chip": "ym2612"
    },
    {
      "channel": 0,
      "note": 61,
      "start": 49.5187,
      "duration": 0.0751,
      "velocity": 127,
      "chip": "ym2612"
    },
    {
      "channel": 2,
      "note": 51,
      "start": 49.6467,
      "duration": 0.114,
      "velocity": 110,
      "chip": "ym2612"
    },
    {
      "channel": 4,
      "note": 51,
      "start": 49.6498,
      "duration": 0.0941,
      "velocity": 126,
      "chip": "ym2612"
    },
    {
      "channel": 4,
      "note": 55,
      "start": 49.7971,
      "duration": 0.0302,
      "velocity": 126,
      "chip": "ym2612"
    },
    {
      "channel": 2,
      "note": 51,
      "start": 49.9301,
      "duration": 0.1473,
      "velocity": 110,
      "chip": "ym2612"
    },
    {
      "channel": 4,
      "note": 51,
      "start": 49.9329,
      "duration": 0.1111,
      "velocity": 126,
      "chip": "ym2612"
    },
    {
      "channel": 2,
      "note": 51,
      "start": 50.0806,
      "duration": 0.1135,
      "velocity": 110,
      "chip": "ym2612"
    },
    {
      "channel": 1,
      "note": 45,
      "start": 50.0831,
      "duration": 0.244,
      "velocity": 113,
      "chip": "ym2612"
    },
    {
      "channel": 4,
      "note": 53,
      "start": 50.0859,
      "duration": 0.058,
      "velocity": 126,
      "chip": "ym2612"
    },
    {
      "channel": 4,
      "note": 53,
      "start": 50.3472,
      "duration": 0.0467,
      "velocity": 126,
      "chip": "ym2612"
    },
    {
      "channel": 0,
      "note": 61,
      "start": 50.35,
      "duration": 0.1105,
      "velocity": 127,
      "chip": "ym2612"
    },
    {
      "channel": 2,
      "note": 51,
      "start": 50.4967,
      "duration": 0.1305,
      "velocity": 110,
      "chip": "ym2612"
    },
    {
      "channel": 4,
      "note": 51,
      "start": 50.4995,
      "duration": 0.1112,
      "velocity": 126,
      "chip": "ym2612"
    },
    {
      "channel": 0,
      "note": 57,
      "start": 50.5025,
      "duration": 0.108,
      "velocity": 127,
      "chip": "ym2612"
    },
    {
      "channel": 2,
      "note": 51,
      "start": 50.6301,
      "duration": 0.2139,
      "velocity": 110,
      "chip": "ym2612"
    },
    {
      "channel": 4,
      "note": 55,
      "start": 50.6329,
      "duration": 0.0444,
      "velocity": 126,
      "chip": "ym2612"
    },
    {
      "channel": 4,
      "note": 51,
      "start": 50.7808,
      "duration": 0.0798,
      "velocity": 126,
      "chip": "ym2612"
    },
    {
      "channel": 0,
      "note": 57,
      "start": 50.7836,
      "duration": 0.1602,
      "velocity": 127,
      "chip": "ym2612"
    },
    {
      "channel": 4,
      "note": 55,
      "start": 50.9137,
      "duration": 0.0636,
      "velocity": 126,
      "chip": "ym2612"
    },
    {
      "channel": 3,
      "note": 62,
      "start": 50.9167,
      "duration": 0.0938,
      "velocity": 127,
      "chip": "ym2612"
    },
    {
      "channel": 2,
      "note": 51,
      "start": 51.0633,
      "duration": 0.1141,
      "velocity": 110,
      "chip": "ym2612"
    },
    {
      "channel": 4,
      "note": 51,
      "start": 51.0661,
      "duration": 0.1111,
      "velocity": 126,
      "chip": "ym2612"
    },
    {
      "channel": 2,
      "note": 51,
      "start": 51.1966,
      "duration": 0.0641,
      "velocity": 110,
      "chip": "ym2612"
    },
    {
      "channel": 1,
      "note": 45,
      "start": 51.199,
      "duration": 0.2615,
      "velocity": 113,
      "chip": "ym2612"
    },
    {
      "channel": 4,
      "note": 53,
      "start": 51.2018,
      "duration": 0.0422,
      "velocity": 126,
      "chip": "ym2612"
    },
    {
      "channel": 0,
      "note": 62,
      "start": 51.205,
      "duration": 0.1054,
      "velocity": 127,
      "chip": "ym2612"
    },
    {
      "channel": 2,
      "note": 51,
      "start": 51.3466,
      "duration": 0.0808,
      "velocity": 110,
      "chip": "ym2612"
    },
    {
      "channel": 2,
      "note": 51,
      "start": 51.4803,
      "duration": 0.0637,
      "velocity": 110,
      "chip": "ym2612"
    },
    {
      "channel": 4,
      "note": 53,
      "start": 51.4831,
      "duration": 0.0442,
      "velocity": 126,
      "chip": "ym2612"
    },
    {
      "channel": 2,
      "note": 51,
      "start": 51.6132,
      "duration": 0.1143,
      "velocity": 110,
      "chip": "ym2612"
    },
    {
      "channel": 4,
      "note": 51,
      "start": 51.616,
      "duration": 0.1113,
      "velocity": 126,
      "chip": "ym2612"
    },
    {
      "channel": 2,
      "note": 51,
      "start": 51.7632,
      "duration": 0.0808,
      "velocity": 110,
      "chip": "ym2612"
    },
    {
      "channel": 4,
      "note": 55,
      "start": 51.766,
      "duration": 0.0446,
      "velocity": 126,
      "chip": "ym2612"
    },
    {
      "channel": 5,
      "note": 50,
      "start": 51.7695,
      "duration": 0.1245,
      "velocity": 127,
      "chip": "ym2612"
    },
    {
      "channel": 2,
      "note": 51,
      "start": 51.8966,
      "duration": 0.0975,
      "velocity": 110,
      "chip": "ym2612"
    },
    {
      "channel": 4,
      "note": 51,
      "start": 51.8997,
      "duration": 0.0941,
      "velocity": 126,
      "chip": "ym2612"
    },
    {
      "channel": 5,
      "note": 47,
      "start": 51.903,
      "duration": 0.141,
      "velocity": 127,
      "chip": "ym2612"
    },
    {
      "channel": 4,
      "note": 55,
      "start": 52.0472,
      "duration": 0.0468,
      "velocity": 126,
      "chip": "ym2612"
    },
    {
      "channel": 2,
      "note": 51,
      "start": 52.1801,
      "duration": 0.114,
      "velocity": 110,
      "chip": "ym2612"
    },
    {
      "channel": 4,
      "note": 51,
      "start": 52.1829,
      "duration": 0.1111,
      "velocity": 126,
      "chip": "ym2612"
    },
    {
      "channel": 5,
      "note": 47,
      "start": 52.1863,
      "duration": 0.091,
      "velocity": 127,
      "chip": "ym2612"
    },
    {
      "channel": 2,
      "note": 51,
      "start": 52.3301,
      "duration": 0.0805,
      "velocity": 110,
      "chip": "ym2612"
    },
    {
      "channel": 1,
      "note": 45,
      "start": 52.3331,
      "duration": 0.1941,
      "velocity": 113,
      "chip": "ym2612"
    },
    {
      "channel": 4,
      "note": 53,
      "start": 52.3359,
      "duration": 0.0247,
      "velocity": 126,
      "chip": "ym2612"
    },
    {
      "channel": 5,
      "note": 49,
      "start": 52.3391,
      "duration": 0.1216,
      "velocity": 127,
      "chip": "ym2612"
    },
    {
      "channel": 5,
      "note": 45,
      "start": 52.4646,
      "duration": 0.1127,
      "velocity": 127,
      "chip": "ym2612"
    },
    {
      "channel": 4,
      "note": 53,
      "start": 52.597,
      "duration": 0.0303,
      "velocity": 126,
      "chip": "ym2612"
    },
    {
      "channel": 2,
      "note": 51,
      "start": 52.7467,
      "duration": 0.1307,
      "velocity": 110,
      "chip": "ym2612"
    },
    {
      "channel": 5,
      "note": 45,
      "start": 52.7505,
      "duration": 0.1102,
      "velocity": 127,
      "chip": "ym2612"
    },
    {
      "channel": 2,
      "note": 51,
      "start": 52.8805,
      "duration": 0.2135,
      "velocity": 110,
      "chip": "ym2612"
    },
    {
      "channel": 4,
      "note": 53,
      "start": 52.8834,
      "duration": 0.0439,
      "velocity": 126,
      "chip": "ym2612"
    },
    {
      "channel": 0,
      "note": 50,
      "start": 52.8862,
      "duration": 0.0908,
      "velocity": 127,
      "chip": "ym2612"
    },
    {
      "channel": 5,
      "note": 50,
      "start": 52.8893,
      "duration": 0.138,
      "velocity": 127,
      "chip": "ym2612"
    },
    {
      "channel": 4,
      "note": 51,
      "start": 53.0306,
      "duration": 0.0633,
      "velocity": 126,
      "chip": "ym2612"
    },
    {
      "channel": 0,
      "note": 50,
      "start": 53.0336,
      "duration": 0.1102,
      "velocity": 127,
      "chip": "ym2612"
    },
    {
      "channel": 5,
      "note": 47,
      "start": 53.0368,
      "duration": 0.1073,
      "velocity": 127,
      "chip": "ym2612"
    },
    {
      "channel": 0,
      "note": 50,
      "start": 53.1639,
      "duration": 0.0966,
      "velocity": 127,
      "chip": "ym2612"
    },
    {
      "channel": 2,
      "note": 51,
      "start": 53.3134,
      "duration": 0.1139,
      "velocity": 110,
      "chip": "ym2612"
    },
    {
      "channel": 4,
      "note": 51,
      "start": 53.3167,
      "duration": 0.0772,
      "velocity": 126,
      "chip": "ym2612"
    },
    {
      "channel": 5,
      "note": 47,
      "start": 53.3201,
      "duration": 0.0739,
      "velocity": 127,
      "chip": "ym2612"
    },
    {
      "channel": 2,
      "note": 51,
      "start": 53.4466,
      "duration": 0.0642,
      "velocity": 110,
      "chip": "ym2612"
    },
    {
      "channel": 1,
      "note": 45,
      "start": 53.449,
      "duration": 0.2114,
      "velocity": 113,
      "chip": "ym2612"
    },
    {
      "channel": 4,
      "note": 53,
      "start": 53.4517,
      "duration": 0.0422,
      "velocity": 126,
      "chip": "ym2612"
    },
    {
      "channel": 0,
      "note": 50,
      "start": 53.4544,
      "duration": 0.0561,
      "velocity": 127,
      "chip": "ym2612"
    },
    {
      "channel": 5,
      "note": 49,
      "start": 53.4574,
      "duration": 0.1367,
      "velocity": 127,
      "chip": "ym2612"
    },
    {
      "channel": 2,
      "note": 51,
      "start": 53.5967,
      "duration": 0.1141,
      "velocity": 110,
      "chip": "ym2612"
    },
    {
      "channel": 4,
      "note": 51,
      "start": 53.5995,
      "duration": 0.0611,
      "velocity": 126,
      "chip": "ym2612"
    },
    {
      "channel": 5,
      "note": 45,
      "start": 53.6029,
      "duration": 0.1078,
      "velocity": 127,
      "chip": "ym2612"
    },
    {
      "channel": 2,
      "note": 51,
      "start": 53.7299,
      "duration": 0.0974,
      "velocity": 110,
      "chip": "ym2612"
    },
    {
      "channel": 4,
      "note": 53,
      "start": 53.7327,
      "duration": 0.0446,
      "velocity": 126,
      "chip": "ym2612"
    },
    {
      "channel": 0,
      "note": 50,
      "start": 53.7354,
      "duration": 0.0585,
      "velocity": 127,
      "chip": "ym2612"
    },
    {
      "channel": 2,
      "note": 51,
      "start": 53.8633,
      "duration": 0.1141,
      "velocity": 110,
      "chip": "ym2612"
    },
    {
      "channel": 4,
      "note": 51,
      "start": 53.866,
      "duration": 0.0946,
      "velocity": 126,
      "chip": "ym2612"
    },
    {
      "channel": 0,
      "note": 50,
      "start": 53.8687,
      "duration": 0.1084,
      "velocity": 127,
      "chip": "ym2612"
    },
    {
      "channel": 5,
      "note": 45,
      "start": 53.8724,
      "duration": 0.0716,
      "velocity": 127,
      "chip": "ym2612"
    },
    {
      "channel": 2,
      "note": 51,
      "start": 54.0133,
      "duration": 0.0808,
      "velocity": 110,
      "chip": "ym2612"
    },
    {
      "channel": 4,
      "note": 55,
      "start": 54.016,
      "duration": 0.0445,
      "velocity": 126,
      "chip": "ym2612"
    },
    {
      "channel": 0,
      "note": 61,
      "start": 54.0187,
      "duration": 0.1085,
      "velocity": 127,
      "chip": "ym2612"
    },
    {
      "channel": 2,
      "note": 51,
      "start": 54.1471,
      "duration": 0.1136,
      "velocity": 110,
      "chip": "ym2612"
    },
    {
      "channel": 4,
      "note": 51,
      "start": 54.1498,
      "duration": 0.0775,
      "velocity": 126,
      "chip": "ym2612"
    },
    {
      "channel": 4,
      "note": 55,
      "start": 54.2974,
      "duration": 0.0132,
      "velocity": 126,
      "chip": "ym2612"
    },
    {
      "channel": 2,
      "note": 51,
      "start": 54.4298,
      "duration": 0.1142,
      "velocity": 110,
      "chip": "ym2612"
    },
    {
      "channel": 4,
      "note": 51,
      "start": 54.4326,
      "duration": 0.0947,
      "velocity": 126,
      "chip": "ym2612"
    },
    {
      "channel": 2,
      "note": 51,
      "start": 54.5799,
      "duration": 0.1142,
      "velocity": 110,
      "chip": "ym2612"
    },
    {
      "channel": 1,
      "note": 45,
      "start": 54.5824,
      "duration": 0.228,
      "velocity": 113,
      "chip": "ym2612"
    },
    {
      "channel": 4,
      "note": 53,
      "start": 54.5852,
      "duration": 0.0253,
      "velocity": 126,
      "chip": "ym2612"
    },
    {
      "channel": 4,
      "note": 53,
      "start": 54.8636,
      "duration": 0.0304,
      "velocity": 126,
      "chip": "ym2612"
    },
    {
      "channel": 0,
      "note": 61,
      "start": 54.8663,
      "duration": 0.1108,
      "velocity": 127,
      "chip": "ym2612"
    },
    {
      "channel": 2,
      "note": 51,
      "start": 54.9967,
      "duration": 0.1306,
      "velocity": 110,
      "chip": "ym2612"
    },
    {
      "channel": 4,
      "note": 51,
      "start": 54.9995,
      "duration": 0.0944,
      "velocity": 126,
      "chip": "ym2612"
    },
    {
      "channel": 0,
      "note": 57,
      "start": 55.0021,
      "duration": 0.1084,
      "velocity": 127,
      "chip": "ym2612"
    },
    {
      "channel": 2,
      "note": 51,
      "start": 55.1301,
      "duration": 0.1139,
      "velocity": 110,
      "chip": "ym2612"
    },
    {
      "channel": 4,
      "note": 53,
      "start": 55.1331,
      "duration": 0.0443,
      "velocity": 126,
      "chip": "ym2612"
    },
    {
      "channel": 0,
      "note": 57,
      "start": 55.281,
      "duration": 0.1295,
      "velocity": 127,
      "chip": "ym2612"
    },
    {
      "channel": 4,
      "note": 53,
      "start": 55.414,
      "duration": 0.03,
      "velocity": 126,
      "chip": "ym2612"
    },
    {
      "channel": 0,
      "note": 62,
      "start": 55.4168,
      "duration": 0.0938,
      "velocity": 127,
      "chip": "ym2612"
    },
    {
      "channel": 2,
      "note": 51,
      "start": 55.5633,
      "duration": 0.1141,
      "velocity": 110,
      "chip": "ym2612"
    },
    {
      "channel": 4,
      "note": 51,
      "start": 55.5664,
      "duration": 0.0776,
      "velocity": 126,
      "chip": "ym2612"
    },
    {
      "channel": 2,
      "note": 51,
      "start": 55.6971,
      "duration": 0.0636,
      "velocity": 110,
      "chip": "ym2612"
    },
    {
      "channel": 1,
      "note": 45,
      "start": 55.6996,
      "duration": 0.261,
      "velocity": 113,
      "chip": "ym2612"
    },
    {
      "channel": 4,
      "note": 55,
      "start": 55.7023,
      "duration": 0.0417,
      "velocity": 126,
      "chip": "ym2612"
    },
    {
      "channel": 0,
      "note": 62,
      "start": 55.7054,
      "duration": 0.0883,
      "velocity": 127,
      "chip": "ym2612"
    },
    {
      "channel": 4,
      "note": 51,
      "start": 55.8469,
      "duration": 0.0804,
      "velocity": 126,
      "chip": "ym2612"
    },
    {
      "channel": 2,
      "note": 51,
      "start": 55.9799,
      "duration": 0.0641,
      "velocity": 110,
      "chip": "ym2612"
    },
    {
      "channel": 4,
      "note": 55,
      "start": 55.9827,
      "duration": 0.0112,
      "velocity": 126,
      "chip": "ym2612"
    },
    {
      "channel": 2,
      "note": 51,
      "start": 56.1132,
      "duration": 0.0976,
      "velocity": 110,
      "chip": "ym2612"
    },
    {
      "channel": 4,
      "note": 51,
      "start": 56.1159,
      "duration": 0.0946,
      "velocity": 126,
      "chip": "ym2612"
    },
    {
      "channel": 2,
      "note": 51,
      "start": 56.2633,
      "duration": 0.0641,
      "velocity": 110,
      "chip": "ym2612"
    },
    {
      "channel": 4,
      "note": 55,
      "start": 56.266,
      "duration": 0.0446,
      "velocity": 126,
      "chip": "ym2612"
    },
    {
      "channel": 0,
      "note": 61,
      "start": 56.2685,
      "duration": 0.0919,
      "velocity": 127,
      "chip": "ym2612"
    },
    {
      "channel": 2,
      "note": 51,
      "start": 56.3967,
      "duration": 0.0975,
      "velocity": 110,
      "chip": "ym2612"
    },
    {
      "channel": 4,
      "note": 51,
      "start": 56.3995,
      "duration": 0.0945,
      "velocity": 126,
      "chip": "ym2612"
    },
    {
      "channel": 4,
      "note": 55,
      "start": 56.547,
      "duration": 0.047,
      "velocity": 126,
      "chip": "ym2612"
    },
    {
      "channel": 2,
      "note": 51,
      "start": 56.6799,
      "duration": 0.0976,
      "velocity": 110,
      "chip": "ym2612"
    },
    {
      "channel": 4,
      "note": 51,
      "start": 56.683,
      "duration": 0.0943,
      "velocity": 126,
      "chip": "ym2612"
    },
    {
      "channel": 2,
      "note": 51,
      "start": 56.8299,
      "duration": 0.0808,
      "velocity": 110,
      "chip": "ym2612"
    },
    {
      "channel": 1,
      "note": 45,
      "start": 56.8324,
      "duration": 0.228,
      "velocity": 113,
      "chip": "ym2612"
    },
    {
      "channel": 4,
      "note": 53,
      "start": 56.8352,
      "duration": 0.0254,
      "velocity": 126,
      "chip": "ym2612"
    },
    {
      "channel": 0,
      "note": 61,
      "start": 56.8379,
      "duration": 0.0725,
      "velocity": 127,
      "chip": "ym2612"
    },
    {
      "channel": 4,
      "note": 53,
      "start": 57.1138,
      "duration": 0.0135,
      "velocity": 126,
      "chip": "ym2612"
    },
    {
      "channel": 0,
      "note": 61,
      "start": 57.1166,
      "duration": 0.1105,
      "velocity": 127,
      "chip": "ym2612"
    },
    {
      "channel": 2,
      "note": 51,
      "start": 57.2471,
      "duration": 0.1137,
      "velocity": 110,
      "chip": "ym2612"
    },
    {
      "channel": 4,
      "note": 51,
      "start": 57.2499,
      "duration": 0.0607,
      "velocity": 126,
      "chip": "ym2612"
    },
    {
      "channel": 0,
      "note": 57,
      "start": 57.2525,
      "duration": 0.108,
      "velocity": 127,
      "chip": "ym2612"
    },
    {
      "channel": 2,
      "note": 51,
      "start": 57.3801,
      "duration": 0.0973,
      "velocity": 110,
      "chip": "ym2612"
    },
    {
      "channel": 4,
      "note": 53,
      "start": 57.383,
      "duration": 0.0443,
      "velocity": 126,
      "chip": "ym2612"
    },
    {
      "channel": 0,
      "note": 57,
      "start": 57.5309,
      "duration": 0.1296,
      "velocity": 127,
      "chip": "ym2612"
    },
    {
      "channel": 4,
      "note": 53,
      "start": 57.664,
      "duration": 0.03,
      "velocity": 126,
      "chip": "ym2612"
    },
    {
      "channel": 0,
      "note": 62,
      "start": 57.6668,
      "duration": 0.0937,
      "velocity": 127,
      "chip": "ym2612"
    },
    {
      "channel": 2,
      "note": 51,
      "start": 57.8134,
      "duration": 0.114,
      "velocity": 110,
      "chip": "ym2612"
    },
    {
      "channel": 4,
      "note": 51,
      "start": 57.8166,
      "duration": 0.0607,
      "velocity": 126,
      "chip": "ym2612"
    },
    {
      "channel": 2,
      "note": 51,
      "start": 57.9467,
      "duration": 0.0639,
      "velocity": 110,
      "chip": "ym2612"
    },
    {
      "channel": 1,
      "note": 45,
      "start": 57.9492,
      "duration": 0.228,
      "velocity": 113,
      "chip": "ym2612"
    },
    {
      "channel": 0,
      "note": 62,
      "start": 57.9523,
      "duration": 0.0915,
      "velocity": 127,
      "chip": "ym2612"
    },
    {
      "channel": 4,
      "note": 51,
      "start": 58.0969,
      "duration": 0.0636,
      "velocity": 126,
      "chip": "ym2612"
    },
    {
      "channel": 2,
      "note": 51,
      "start": 58.2299,
      "duration": 0.0642,
      "velocity": 110,
      "chip": "ym2612"
    },
    {
      "channel": 4,
      "note": 55,
      "start": 58.2327,
      "duration": 0.0113,
      "velocity": 126,
      "chip": "ym2612"
    },
    {
      "channel": 2,
      "note": 51,
      "start": 58.3632,
      "duration": 0.0974,
      "velocity": 110,
      "chip": "ym2612"
    },
    {
      "channel": 4,
      "note": 51,
      "start": 58.366,
      "duration": 0.0445,
      "velocity": 126,
      "chip": "ym2612"
    },
    {
      "channel": 2,
      "note": 51,
      "start": 58.5136,
      "duration": 0.0638,
      "velocity": 110,
      "chip": "ym2612"
    },
    {
      "channel": 4,
      "note": 55,
      "start": 58.5163,
      "duration": 0.011,
      "velocity": 126,
      "chip": "ym2612"
    },
    {
      "channel": 0,
      "note": 61,
      "start": 58.5191,
      "duration": 0.108,
      "velocity": 127,
      "chip": "ym2612"
    },
    {
      "channel": 2,
      "note": 51,
      "start": 58.6467,
      "duration": 0.1141,
      "velocity": 110,
      "chip": "ym2612"
    },
    {
      "channel": 4,
      "note": 51,
      "start": 58.6495,
      "duration": 0.0778,
      "velocity": 126,
      "chip": "ym2612"
    },
    {
      "channel": 4,
      "note": 55,
      "start": 58.7971,
      "duration": 0.0469,
      "velocity": 126,
      "chip": "ym2612"
    },
    {
      "channel": 2,
      "note": 51,
      "start": 58.9299,
      "duration": 0.1141,
      "velocity": 110,
      "chip": "ym2612"
    },
    {
      "channel": 4,
      "note": 51,
      "start": 58.9331,
      "duration": 0.0609,
      "velocity": 126,
      "chip": "ym2612"
    },
    {
      "channel": 2,
      "note": 51,
      "start": 59.0801,
      "duration": 0.0805,
      "velocity": 110,
      "chip": "ym2612"
    },
    {
      "channel": 1,
      "note": 45,
      "start": 59.0827,
      "duration": 0.2945,
      "velocity": 113,
      "chip": "ym2612"
    },
    {
      "channel": 4,
      "note": 53,
      "start": 59.0855,
      "duration": 0.0418,
      "velocity": 126,
      "chip": "ym2612"
    },
    {
      "channel": 4,
      "note": 53,
      "start": 59.3638,
      "duration": 0.0135,
      "velocity": 126,
      "chip": "ym2612"
    },
    {
      "channel": 0,
      "note": 61,
      "start": 59.3665,
      "duration": 0.1107,
      "velocity": 127,
      "chip": "ym2612"
    },
    {
      "channel": 2,
      "note": 51,
      "start": 59.4968,
      "duration": 0.1305,
      "velocity": 110,
      "chip": "ym2612"
    },
    {
      "channel": 4,
      "note": 51,
      "start": 59.4997,
      "duration": 0.0608,
      "velocity": 126,
      "chip": "ym2612"
    },
    {
      "channel": 0,
      "note": 57,
      "start": 59.5023,
      "duration": 0.1081,
      "velocity": 127,
      "chip": "ym2612"
    },
    {
      "channel": 2,
      "note": 51,
      "start": 59.6301,
      "duration": 0.1139,
      "velocity": 110,
      "chip": "ym2612"
    },
    {
      "channel": 4,
      "note": 51,
      "start": 59.7803,
      "duration": 0.0636,
      "velocity": 126,
      "chip": "ym2612"
    },
    {
      "channel": 0,
      "note": 57,
      "start": 59.7835,
      "duration": 0.1603,
      "velocity": 127,
      "chip": "ym2612"
    },
    {
      "channel": 4,
      "note": 53,
      "start": 59.9137,
      "duration": 0.0303,
      "velocity": 126,
      "chip": "ym2612"
    },
    {
      "channel": 3,
      "note": 62,
      "start": 59.9165,
      "duration": 0.0941,
      "velocity": 127,
      "chip": "ym2612"
    },
    {
      "channel": 2,
      "note": 51,
      "start": 60.0637,
      "duration": 0.1137,
      "velocity": 110,
      "chip": "ym2612"
    },
    {
      "channel": 4,
      "note": 51,
      "start": 60.0664,
      "duration": 0.0608,
      "velocity": 126,
      "chip": "ym2612"
    },
    {
      "channel": 2,
      "note": 51,
      "start": 60.1967,
      "duration": 0.0639,
      "velocity": 110,
      "chip": "ym2612"
    },
    {
      "channel": 1,
      "note": 47,
      "start": 60.1994,
      "duration": 0.0944,
      "velocity": 113,
      "chip": "ym2612"
    },
    {
      "channel": 5,
      "note": 45,
      "start": 60.2026,
      "duration": 0.2747,
      "velocity": 113,
      "chip": "ym2612"
    },
    {
      "channel": 4,
      "note": 53,
      "start": 60.2056,
      "duration": 0.0383,
      "velocity": 126,
      "chip": "ym2612"
    },
    {
      "channel": 0,
      "note": 62,
      "start": 60.2088,
      "duration": 0.1017,
      "velocity": 127,
      "chip": "ym2612"
    },
    {
      "channel": 4,
      "note": 51,
      "start": 60.3469,
      "duration": 0.0637,
      "velocity": 126,
      "chip": "ym2612"
    },
    {
      "channel": 2,
      "note": 51,
      "start": 60.48,
      "duration": 0.064,
      "velocity": 110,
      "chip": "ym2612"
    },
    {
      "channel": 4,
      "note": 55,
      "start": 60.4827,
      "duration": 0.0445,
      "velocity": 126,
      "chip": "ym2612"
    },
    {
      "channel": 2,
      "note": 51,
      "start": 60.6299,
      "duration": 0.1141,
      "velocity": 110,
      "chip": "ym2612"
    },
    {
      "channel": 4,
      "note": 51,
      "start": 60.6327,
      "duration": 0.0612,
      "velocity": 126,
      "chip": "ym2612"
    },
    {
      "channel": 2,
      "note": 51,
      "start": 60.7633,
      "duration": 0.0974,
      "velocity": 110,
      "chip": "ym2612"
    },
    {
      "channel": 4,
      "note": 55,
      "start": 60.7661,
      "duration": 0.0445,
      "velocity": 126,
      "chip": "ym2612"
    },
    {
      "channel": 0,
      "note": 50,
      "start": 60.7689,
      "duration": 0.1249,
      "velocity": 127,
      "chip": "ym2612"
    },
    {
      "channel": 3,
      "note": 50,
      "start": 60.7721,
      "duration": 0.1218,
      "velocity": 127,
      "chip": "ym2612"
    },
    {
      "channel": 2,
      "note": 51,
      "start": 60.8967,
      "duration": 0.0974,
      "velocity": 110,
      "chip": "ym2612"
    },
    {
      "channel": 4,
      "note": 51,
      "start": 60.8994,
      "duration": 0.0778,
      "velocity": 126,
      "chip": "ym2612"
    },
    {
      "channel": 3,
      "note": 47,
      "start": 60.9028,
      "duration": 0.1078,
      "velocity": 127,
      "chip": "ym2612"
    },
    {
      "channel": 4,
      "note": 55,
      "start": 61.047,
      "duration": 0.0469,
      "velocity": 126,
      "chip": "ym2612"
    },
    {
      "channel": 2,
      "note": 51,
      "start": 61.1799,
      "duration": 0.0975,
      "velocity": 110,
      "chip": "ym2612"
    },
    {
      "channel": 4,
      "note": 51,
      "start": 61.1827,
      "duration": 0.1113,
      "velocity": 126,
      "chip": "ym2612"
    },
    {
      "channel": 3,
      "note": 47,
      "start": 61.1861,
      "duration": 0.0912,
      "velocity": 127,
      "chip": "ym2612"
    },
    {
      "channel": 2,
      "note": 51,
      "start": 61.3305,
      "duration": 0.1303,
      "velocity": 110,
      "chip": "ym2612"
    },
    {
      "channel": 1,
      "note": 45,
      "start": 61.3329,
      "duration": 0.2776,
      "velocity": 113,
      "chip": "ym2612"
    },
    {
      "channel": 4,
      "note": 53,
      "start": 61.3361,
      "duration": 0.0412,
      "velocity": 126,
      "chip": "ym2612"
    },
    {
      "channel": 3,
      "note": 49,
      "start": 61.3392,
      "duration": 0.1213,
      "velocity": 127,
      "chip": "ym2612"
    },
    {
      "channel": 3,
      "note": 45,
      "start": 61.4646,
      "duration": 0.0959,
      "velocity": 127,
      "chip": "ym2612"
    },
    {
      "channel": 4,
      "note": 53,
      "start": 61.6137,
      "duration": 0.0302,
      "velocity": 126,
      "chip": "ym2612"
    },
    {
      "channel": 2,
      "note": 51,
      "start": 61.7467,
      "duration": 0.0975,
      "velocity": 110,
      "chip": "ym2612"
    },
    {
      "channel": 4,
      "note": 51,
      "start": 61.7495,
      "duration": 0.0945,
      "velocity": 126,
      "chip": "ym2612"
    },
    {
      "channel": 3,
      "note": 45,
      "start": 61.7532,
      "duration": 0.1074,
      "velocity": 127,
      "chip": "ym2612"
    },
    {
      "channel": 2,
      "note": 51,
      "start": 61.8799,
      "duration": 0.0809,
      "velocity": 110,
      "chip": "ym2612"
    },
    {
      "channel": 0,
      "note": 50,
      "start": 61.8829,
      "duration": 0.0776,
      "velocity": 127,
      "chip": "ym2612"
    },
    {
      "channel": 3,
      "note": 50,
      "start": 61.8859,
      "duration": 0.1414,
      "velocity": 127,
      "chip": "ym2612"
    },
    {
      "channel": 2,
      "note": 51,
      "start": 62.03,
      "duration": 0.0974,
      "velocity": 110,
      "chip": "ym2612"
    },
    {
      "channel": 4,
      "note": 51,
      "start": 62.0327,
      "duration": 0.0945,
      "velocity": 126,
      "chip": "ym2612"
    },
    {
      "channel": 0,
      "note": 50,
      "start": 62.0354,
      "duration": 0.1084,
      "velocity": 127,
      "chip": "ym2612"
    },
    {
      "channel": 3,
      "note": 47,
      "start": 62.0385,
      "duration": 0.1054,
      "velocity": 127,
      "chip": "ym2612"
    },
    {
      "channel": 2,
      "note": 51,
      "start": 62.1633,
      "duration": 0.0809,
      "velocity": 110,
      "chip": "ym2612"
    },
    {
      "channel": 4,
      "note": 53,
      "start": 62.166,
      "duration": 0.0446,
      "velocity": 126,
      "chip": "ym2612"
    },
    {
      "channel": 0,
      "note": 50,
      "start": 62.1692,
      "duration": 0.0746,
      "velocity": 127,
      "chip": "ym2612"
    },
    {
      "channel": 2,
      "note": 51,
      "start": 62.3133,
      "duration": 0.0809,
      "velocity": 110,
      "chip": "ym2612"
    },
    {
      "channel": 4,
      "note": 51,
      "start": 62.316,
      "duration": 0.0612,
      "velocity": 126,
      "chip": "ym2612"
    },
    {
      "channel": 3,
      "note": 47,
      "start": 62.3194,
      "duration": 0.0746,
      "velocity": 127,
      "chip": "ym2612"
    },
    {
      "channel": 2,
      "note": 51,
      "start": 62.4466,
      "duration": 0.0642,
      "velocity": 110,
      "chip": "ym2612"
    },
    {
      "channel": 1,
      "note": 45,
      "start": 62.449,
      "duration": 0.2781,
      "velocity": 113,
      "chip": "ym2612"
    },
    {
      "channel": 4,
      "note": 53,
      "start": 62.4516,
      "duration": 0.0424,
      "velocity": 126,
      "chip": "ym2612"
    },
    {
      "channel": 0,
      "note": 50,
      "start": 62.4542,
      "duration": 0.0562,
      "velocity": 127,
      "chip": "ym2612"
    },
    {
      "channel": 3,
      "note": 49,
      "start": 62.4572,
      "duration": 0.1034,
      "velocity": 127,
      "chip": "ym2612"
    },
    {
      "channel": 2,
      "note": 51,
      "start": 62.5966,
      "duration": 0.1141,
      "velocity": 110,
      "chip": "ym2612"
    },
    {
      "channel": 4,
      "note": 51,
      "start": 62.5997,
      "duration": 0.0609,
      "velocity": 126,
      "chip": "ym2612"
    },
    {
      "channel": 0,
      "note": 50,
      "start": 62.6023,
      "duration": 0.0748,
      "velocity": 127,
      "chip": "ym2612"
    },
    {
      "channel": 3,
      "note": 45,
      "start": 62.6054,
      "duration": 0.0719,
      "velocity": 127,
      "chip": "ym2612"
    },
    {
      "channel": 2,
      "note": 51,
      "start": 62.7302,
      "duration": 0.0638,
      "velocity": 110,
      "chip": "ym2612"
    },
    {
      "channel": 4,
      "note": 53,
      "start": 62.7331,
      "duration": 0.0442,
      "velocity": 126,
      "chip": "ym2612"
    },
    {
      "channel": 0,
      "note": 50,
      "start": 62.7357,
      "duration": 0.0581,
      "velocity": 127,
      "chip": "ym2612"
    },
    {
      "channel": 2,
      "note": 51,
      "start": 62.8799,
      "duration": 0.0807,
      "velocity": 110,
      "chip": "ym2612"
    },
    {
      "channel": 4,
      "note": 51,
      "start": 62.8827,
      "duration": 0.0613,
      "velocity": 126,
      "chip": "ym2612"
    },
    {
      "channel": 0,
      "note": 50,
      "start": 62.8857,
      "duration": 0.1749,
      "velocity": 127,
      "chip": "ym2612"
    },
    {
      "channel": 3,
      "note": 45,
      "start": 62.8893,
      "duration": 0.0546,
      "velocity": 127,
      "chip": "ym2612"
    },
    {
      "channel": 2,
      "note": 51,
      "start": 63.0132,
      "duration": 0.0641,
      "velocity": 110,
      "chip": "ym2612"
    },
    {
      "channel": 4,
      "note": 55,
      "start": 63.016,
      "duration": 0.0447,
      "velocity": 126,
      "chip": "ym2612"
    },
    {
      "channel": 5,
      "note": 59,
      "start": 63.0193,
      "duration": 0.108,
      "velocity": 127,
      "chip": "ym2612"
    },
    {
      "channel": 2,
      "note": 51,
      "start": 63.1467,
      "duration": 0.0974,
      "velocity": 110,
      "chip": "ym2612"
    },
    {
      "channel": 4,
      "note": 51,
      "start": 63.1494,
      "duration": 0.0778,
      "velocity": 126,
      "chip": "ym2612"
    },
    {
      "channel": 5,
      "note": 50,
      "start": 63.1529,
      "duration": 0.1911,
      "velocity": 127,
      "chip": "ym2612"
    },
    {
      "channel": 4,
      "note": 55,
      "start": 63.2971,
      "duration": 0.0135,
      "velocity": 126,
      "chip": "ym2612"
    },
    {
      "channel": 1,
      "note": 59,
      "start": 63.3004,
      "duration": 0.1267,
      "velocity": 127,
      "chip": "ym2612"
    },
    {
      "channel": 2,
      "note": 51,
      "start": 63.4301,
      "duration": 0.1138,
      "velocity": 110,
      "chip": "ym2612"
    },
    {
      "channel": 4,
      "note": 51,
      "start": 63.4329,
      "duration": 0.0944,
      "velocity": 126,
      "chip": "ym2612"
    },
    {
      "channel": 2,
      "note": 51,
      "start": 63.58,
      "duration": 0.064,
      "velocity": 110,
      "chip": "ym2612"
    },
    {
      "channel": 3,
      "note": 45,
      "start": 63.5828,
      "duration": 0.3111,
      "velocity": 113,
      "chip": "ym2612"
    },
    {
      "channel": 4,
      "note": 53,
      "start": 63.5859,
      "duration": 0.0414,
      "velocity": 126,
      "chip": "ym2612"
    },
    {
      "channel": 4,
      "note": 53,
      "start": 63.8637,
      "duration": 0.0303,
      "velocity": 126,
      "chip": "ym2612"
    },
    {
      "channel": 1,
      "note": 59,
      "start": 63.8667,
      "duration": 0.1272,
      "velocity": 127,
      "chip": "ym2612"
    },
    {
      "channel": 2,
      "note": 51,
      "start": 63.9972,
      "duration": 0.0969,
      "velocity": 110,
      "chip": "ym2612"
    },
    {
      "channel": 4,
      "note": 51,
      "start": 64.0001,
      "duration": 0.0938,
      "velocity": 126,
      "chip": "ym2612"
    },
    {
      "channel": 1,
      "note": 50,
      "start": 64.0032,
      "duration": 0.1073,
      "velocity": 127,
      "chip": "ym2612"
    },
    {
      "channel": 2,
      "note": 51,
      "start": 64.1467,
      "duration": 0.0639,
      "velocity": 110,
      "chip": "ym2612"
    },
    {
      "channel": 4,
      "note": 51,
      "start": 64.2802,
      "duration": 0.097,
      "velocity": 126,
      "chip": "ym2612"
    },
    {
      "channel": 1,
      "note": 50,
      "start": 64.2834,
      "duration": 0.127,
      "velocity": 127,
      "chip": "ym2612"
    },
    {
      "channel": 4,
      "note": 53,
      "start": 64.4137,
      "duration": 0.047,
      "velocity": 126,
      "chip": "ym2612"
    },
    {
      "channel": 1,
      "note": 59,
      "start": 64.4166,
      "duration": 0.1105,
      "velocity": 127,
      "chip": "ym2612"
    },
    {
      "channel": 2,
      "note": 51,
      "start": 64.5634,
      "duration": 0.0806,
      "velocity": 110,
      "chip": "ym2612"
    },
    {
      "channel": 4,
      "note": 51,
      "start": 64.5661,
      "duration": 0.0612,
      "velocity": 126,
      "chip": "ym2612"
    },
    {
      "channel": 1,
      "note": 50,
      "start": 64.5695,
      "duration": 0.1243,
      "velocity": 127,
      "chip": "ym2612"
    },
    {
      "channel": 2,
      "note": 51,
      "start": 64.6968,
      "duration": 0.0639,
      "velocity": 110,
      "chip": "ym2612"
    },
    {
      "channel": 3,
      "note": 45,
      "start": 64.6994,
      "duration": 0.3111,
      "velocity": 113,
      "chip": "ym2612"
    },
    {
      "channel": 4,
      "note": 53,
      "start": 64.7021,
      "duration": 0.0419,
      "velocity": 126,
      "chip": "ym2612"
    },
    {
      "channel": 1,
      "note": 59,
      "start": 64.7052,
      "duration": 0.1054,
      "velocity": 127,
      "chip": "ym2612"
    },
    {
      "channel": 4,
      "note": 51,
      "start": 64.8471,
      "duration": 0.0802,
      "velocity": 126,
      "chip": "ym2612"
    },
    {
      "channel": 2,
      "note": 51,
      "start": 64.9801,
      "duration": 0.0473,
      "velocity": 110,
      "chip": "ym2612"
    },
    {
      "channel": 4,
      "note": 53,
      "start": 64.9832,
      "duration": 0.044,
      "velocity": 126,
      "chip": "ym2612"
    },
    {
      "channel": 1,
      "note": 59,
      "start": 64.9862,
      "duration": 0.1076,
      "velocity": 127,
      "chip": "ym2612"
    },
    {
      "channel": 2,
      "note": 51,
      "start": 65.1299,
      "duration": 0.0809,
      "velocity": 110,
      "chip": "ym2612"
    },
    {
      "channel": 4,
      "note": 51,
      "start": 65.1327,
      "duration": 0.0779,
      "velocity": 126,
      "chip": "ym2612"
    },
    {
      "channel": 1,
      "note": 50,
      "start": 65.1357,
      "duration": 0.1415,
      "velocity": 127,
      "chip": "ym2612"
    },
    {
      "channel": 2,
      "note": 51,
      "start": 65.2635,
      "duration": 0.0638,
      "velocity": 110,
      "chip": "ym2612"
    },
    {
      "channel": 4,
      "note": 55,
      "start": 65.2663,
      "duration": 0.0444,
      "velocity": 126,
      "chip": "ym2612"
    },
    {
      "channel": 5,
      "note": 59,
      "start": 65.2694,
      "duration": 0.1079,
      "velocity": 127,
      "chip": "ym2612"
    },
    {
      "channel": 2,
      "note": 51,
      "start": 65.3967,
      "duration": 0.0975,
      "velocity": 110,
      "chip": "ym2612"
    },
    {
      "channel": 4,
      "note": 51,
      "start": 65.3994,
      "duration": 0.0945,
      "velocity": 126,
      "chip": "ym2612"
    },
    {
      "channel": 1,
      "note": 50,
      "start": 65.4024,
      "duration": 0.1413,
      "velocity": 127,
      "chip": "ym2612"
    },
    {
      "channel": 4,
      "note": 55,
      "start": 65.547,
      "duration": 0.047,
      "velocity": 126,
      "chip": "ym2612"
    },
    {
      "channel": 1,
      "note": 59,
      "start": 65.55,
      "duration": 0.1272,
      "velocity": 127,
      "chip": "ym2612"
    },
    {
      "channel": 2,
      "note": 51,
      "start": 65.68,
      "duration": 0.0974,
      "velocity": 110,
      "chip": "ym2612"
    },
    {
      "channel": 4,
      "note": 51,
      "start": 65.6827,
      "duration": 0.0945,
      "velocity": 126,
      "chip": "ym2612"
    },
    {
      "channel": 2,
      "note": 51,
      "start": 65.8301,
      "duration": 0.0639,
      "velocity": 110,
      "chip": "ym2612"
    },
    {
      "channel": 3,
      "note": 45,
      "start": 65.8327,
      "duration": 0.2446,
      "velocity": 113,
      "chip": "ym2612"
    },
    {
      "channel": 4,
      "note": 53,
      "start": 65.8355,
      "duration": 0.0418,
      "velocity": 126,
      "chip": "ym2612"
    },
    {
      "channel": 4,
      "note": 53,
      "start": 66.114,
      "duration": 0.0299,
      "velocity": 126,
      "chip": "ym2612"
    },
    {
      "channel": 1,
      "note": 59,
      "start": 66.117,
      "duration": 0.1268,
      "velocity": 127,
      "chip": "ym2612"
    },
    {
      "channel": 2,
      "note": 51,
      "start": 66.2469,
      "duration": 0.114,
      "velocity": 110,
      "chip": "ym2612"
    },
    {
      "channel": 4,
      "note": 51,
      "start": 66.2497,
      "duration": 0.0609,
      "velocity": 126,
      "chip": "ym2612"
    },
    {
      "channel": 1,
      "note": 50,
      "start": 66.2532,
      "duration": 0.1073,
      "velocity": 127,
      "chip": "ym2612"
    },
    {
      "channel": 2,
      "note": 51,
      "start": 66.3967,
      "duration": 0.0806,
      "velocity": 110,
      "chip": "ym2612"
    },
    {
      "channel": 4,
      "note": 51,
      "start": 66.5305,
      "duration": 0.0969,
      "velocity": 126,
      "chip": "ym2612"
    },
    {
      "channel": 1,
      "note": 50,
      "start": 66.5336,
      "duration": 0.1269,
      "velocity": 127,
      "chip": "ym2612"
    },
    {
      "channel": 4,
      "note": 53,
      "start": 66.6637,
      "duration": 0.0468,
      "velocity": 126,
      "chip": "ym2612"
    },
    {
      "channel": 1,
      "note": 59,
      "start": 66.6669,
      "duration": 0.1102,
      "velocity": 127,
      "chip": "ym2612"
    },
    {
      "channel": 2,
      "note": 51,
      "start": 66.8138,
      "duration": 0.1135,
      "velocity": 110,
      "chip": "ym2612"
    },
    {
      "channel": 4,
      "note": 51,
      "start": 66.8166,
      "duration": 0.0606,
      "velocity": 126,
      "chip": "ym2612"
    },
    {
      "channel": 2,
      "note": 51,
      "start": 66.9468,
      "duration": 0.0805,
      "velocity": 110,
      "chip": "ym2612"
    },
    {
      "channel": 3,
      "note": 45,
      "start": 66.9494,
      "duration": 0.2779,
      "velocity": 113,
      "chip": "ym2612"
    },
    {
      "channel": 4,
      "note": 53,
      "start": 66.952,
      "duration": 0.042,
      "velocity": 126,
      "chip": "ym2612"
    },
    {
      "channel": 1,
      "note": 59,
      "start": 66.955,
      "duration": 0.0889,
      "velocity": 127,
      "chip": "ym2612"
    },
    {
      "channel": 4,
      "note": 51,
      "start": 67.0971,
      "duration": 0.0802,
      "velocity": 126,
      "chip": "ym2612"
    },
    {
      "channel": 2,
      "note": 51,
      "start": 67.2302,
      "duration": 0.0473,
      "velocity": 110,
      "chip": "ym2612"
    },
    {
      "channel": 4,
      "note": 53,
      "start": 67.2333,
      "duration": 0.044,
      "velocity": 126,
      "chip": "ym2612"
    },
    {
      "channel": 1,
      "note": 59,
      "start": 67.2363,
      "duration": 0.0908,
      "velocity": 127,
      "chip": "ym2612"
    },
    {
      "channel": 2,
      "note": 51,
      "start": 67.3799,
      "duration": 0.1143,
      "velocity": 110,
      "chip": "ym2612"
    },
    {
      "channel": 4,
      "note": 51,
      "start": 67.3826,
      "duration": 0.078,
      "velocity": 126,
      "chip": "ym2612"
    },
    {
      "channel": 1,
      "note": 50,
      "start": 67.3856,
      "duration": 0.1083,
      "velocity": 127,
      "chip": "ym2612"
    },
    {
      "channel": 2,
      "note": 51,
      "start": 67.5132,
      "duration": 0.0641,
      "velocity": 110,
      "chip": "ym2612"
    },
    {
      "channel": 4,
      "note": 55,
      "start": 67.5159,
      "duration": 0.0447,
      "velocity": 126,
      "chip": "ym2612"
    },
    {
      "channel": 1,
      "note": 59,
      "start": 67.5193,
      "duration": 0.0912,
      "velocity": 127,
      "chip": "ym2612"
    },
    {
      "channel": 2,
      "note": 51,
      "start": 67.6634,
      "duration": 0.1139,
      "velocity": 110,
      "chip": "ym2612"
    },
    {
      "channel": 4,
      "note": 51,
      "start": 67.6661,
      "duration": 0.0778,
      "velocity": 126,
      "chip": "ym2612"
    },
    {
      "channel": 1,
      "note": 50,
      "start": 67.6691,
      "duration": 0.1414,
      "velocity": 127,
      "chip": "ym2612"
    },
    {
      "channel": 4,
      "note": 55,
      "start": 67.7969,
      "duration": 0.047,
      "velocity": 126,
      "chip": "ym2612"
    },
    {
      "channel": 5,
      "note": 59,
      "start": 67.8002,
      "duration": 0.1271,
      "velocity": 127,
      "chip": "ym2612"
    },
    {
      "channel": 2,
      "note": 51,
      "start": 67.9304,
      "duration": 0.1138,
      "velocity": 110,
      "chip": "ym2612"
    },
    {
      "channel": 4,
      "note": 51,
      "start": 67.9331,
      "duration": 0.1109,
      "velocity": 126,
      "chip": "ym2612"
    },
    {
      "channel": 2,
      "note": 51,
      "start": 68.0801,
      "duration": 0.0806,
      "velocity": 110,
      "chip": "ym2612"
    },
    {
      "channel": 3,
      "note": 45,
      "start": 68.0827,
      "duration": 0.2445,
      "velocity": 113,
      "chip": "ym2612"
    },
    {
      "channel": 4,
      "note": 53,
      "start": 68.0854,
      "duration": 0.0418,
      "velocity": 126,
      "chip": "ym2612"
    },
    {
      "channel": 4,
      "note": 53,
      "start": 68.3641,
      "duration": 0.0131,
      "velocity": 126,
      "chip": "ym2612"
    },
    {
      "channel": 1,
      "note": 59,
      "start": 68.3671,
      "duration": 0.1266,
      "velocity": 127,
      "chip": "ym2612"
    },
    {
      "channel": 2,
      "note": 51,
      "start": 68.4967,
      "duration": 0.1473,
      "velocity": 110,
      "chip": "ym2612"
    },
    {
      "channel": 4,
      "note": 51,
      "start": 68.4997,
      "duration": 0.0942,
      "velocity": 126,
      "chip": "ym2612"
    },
    {
      "channel": 1,
      "note": 50,
      "start": 68.5028,
      "duration": 0.1078,
      "velocity": 127,
      "chip": "ym2612"
    },
    {
      "channel": 2,
      "note": 51,
      "start": 68.6469,
      "duration": 0.0805,
      "velocity": 110,
      "chip": "ym2612"
    },
    {
      "channel": 4,
      "note": 51,
      "start": 68.7805,
      "duration": 0.1135,
      "velocity": 126,
      "chip": "ym2612"
    },
    {
      "channel": 1,
      "note": 50,
      "start": 68.7836,
      "duration": 0.1602,
      "velocity": 127,
      "chip": "ym2612"
    },
    {
      "channel": 4,
      "note": 53,
      "start": 68.9137,
      "duration": 0.047,
      "velocity": 126,
      "chip": "ym2612"
    },
    {
      "channel": 5,
      "note": 59,
      "start": 68.9173,
      "duration": 0.11,
      "velocity": 127,
      "chip": "ym2612"
    },
    {
      "channel": 2,
      "note": 51,
      "start": 69.0635,
      "duration": 0.1139,
      "velocity": 110,
      "chip": "ym2612"
    },
    {
      "channel": 4,
      "note": 51,
      "start": 69.0662,
      "duration": 0.0945,
      "velocity": 126,
      "chip": "ym2612"
    },
    {
      "channel": 2,
      "note": 51,
      "start": 69.1966,
      "duration": 0.0808,
      "velocity": 110,
      "chip": "ym2612"
    },
    {
      "channel": 3,
      "note": 45,
      "start": 69.1991,
      "duration": 0.2615,
      "velocity": 113,
      "chip": "ym2612"
    },
    {
      "channel": 4,
      "note": 53,
      "start": 69.2017,
      "duration": 0.0422,
      "velocity": 126,
      "chip": "ym2612"
    },
    {
      "channel": 1,
      "note": 59,
      "start": 69.2047,
      "duration": 0.0891,
      "velocity": 127,
      "chip": "ym2612"
    },
    {
      "channel": 2,
      "note": 51,
      "start": 69.3469,
      "duration": 0.0806,
      "velocity": 110,
      "chip": "ym2612"
    },
    {
      "channel": 4,
      "note": 51,
      "start": 69.3497,
      "duration": 0.0776,
      "velocity": 126,
      "chip": "ym2612"
    },
    {
      "channel": 2,
      "note": 51,
      "start": 69.4799,
      "duration": 0.0641,
      "velocity": 110,
      "chip": "ym2612"
    },
    {
      "channel": 4,
      "note": 55,
      "start": 69.4831,
      "duration": 0.0608,
      "velocity": 126,
      "chip": "ym2612"
    },
    {
      "channel": 1,
      "note": 59,
      "start": 69.4861,
      "duration": 0.0912,
      "velocity": 127,
      "chip": "ym2612"
    },
    {
      "channel": 2,
      "note": 51,
      "start": 69.6299,
      "duration": 0.1141,
      "velocity": 110,
      "chip": "ym2612"
    },
    {
      "channel": 4,
      "note": 51,
      "start": 69.6327,
      "duration": 0.0779,
      "velocity": 126,
      "chip": "ym2612"
    },
    {
      "channel": 1,
      "note": 50,
      "start": 69.6357,
      "duration": 0.1248,
      "velocity": 127,
      "chip": "ym2612"
    },
    {
      "channel": 2,
      "note": 51,
      "start": 69.7635,
      "duration": 0.0639,
      "velocity": 110,
      "chip": "ym2612"
    },
    {
      "channel": 4,
      "note": 55,
      "start": 69.7662,
      "duration": 0.0445,
      "velocity": 126,
      "chip": "ym2612"
    },
    {
      "channel": 1,
      "note": 59,
      "start": 69.7692,
      "duration": 0.0913,
      "velocity": 127,
      "chip": "ym2612"
    },
    {
      "channel": 4,
      "note": 51,
      "start": 69.9136,
      "duration": 0.0804,
      "velocity": 126,
      "chip": "ym2612"
    },
    {
      "channel": 1,
      "note": 50,
      "start": 69.9166,
      "duration": 0.1273,
      "velocity": 127,
      "chip": "ym2612"
    },
    {
      "channel": 2,
      "note": 51,
      "start": 70.0467,
      "duration": 0.0973,
      "velocity": 110,
      "chip": "ym2612"
    },
    {
      "channel": 4,
      "note": 55,
      "start": 70.0494,
      "duration": 0.0611,
      "velocity": 126,
      "chip": "ym2612"
    },
    {
      "channel": 1,
      "note": 59,
      "start": 70.0526,
      "duration": 0.1078,
      "velocity": 127,
      "chip": "ym2612"
    },
    {
      "channel": 4,
      "note": 51,
      "start": 70.1803,
      "duration": 0.1136,
      "velocity": 126,
      "chip": "ym2612"
    },
    {
      "channel": 2,
      "note": 51,
      "start": 70.3299,
      "duration": 0.0006,
      "velocity": 110,
      "chip": "ym2612"
    },
    {
      "channel": 2,
      "note": 51,
      "start": 70.3324,
      "duration": 0.1116,
      "velocity": 110,
      "chip": "ym2612"
    },
    {
      "channel": 3,
      "note": 45,
      "start": 70.3351,
      "duration": 0.2754,
      "velocity": 113,
      "chip": "ym2612"
    },
    {
      "channel": 4,
      "note": 53,
      "start": 70.3378,
      "duration": 0.0561,
      "velocity": 126,
      "chip": "ym2612"
    },
    {
      "channel": 4,
      "note": 53,
      "start": 70.6142,
      "duration": 0.013,
      "velocity": 126,
      "chip": "ym2612"
    },
    {
      "channel": 1,
      "note": 59,
      "start": 70.6172,
      "duration": 0.1099,
      "velocity": 127,
      "chip": "ym2612"
    },
    {
      "channel": 2,
      "note": 51,
      "start": 70.7471,
      "duration": 0.1469,
      "velocity": 110,
      "chip": "ym2612"
    },
    {
      "channel": 4,
      "note": 51,
      "start": 70.75,
      "duration": 0.0939,
      "velocity": 126,
      "chip": "ym2612"
    },
    {
      "channel": 1,
      "note": 50,
      "start": 70.7534,
      "duration": 0.1072,
      "velocity": 127,
      "chip": "ym2612"
    },
    {
      "channel": 2,
      "note": 51,
      "start": 70.8969,
      "duration": 0.0638,
      "velocity": 110,
      "chip": "ym2612"
    },
    {
      "channel": 4,
      "note": 51,
      "start": 71.0302,
      "duration": 0.097,
      "velocity": 126,
      "chip": "ym2612"
    },
    {
      "channel": 1,
      "note": 50,
      "start": 71.0332,
      "duration": 0.1106,
      "velocity": 127,
      "chip": "ym2612"
    },
    {
      "channel": 4,
      "note": 55,
      "start": 71.1636,
      "duration": 0.0303,
      "velocity": 126,
      "chip": "ym2612"
    },
    {
      "channel": 1,
      "note": 59,
      "start": 71.1666,
      "duration": 0.1272,
      "velocity": 127,
      "chip": "ym2612"
    },
    {
      "channel": 2,
      "note": 51,
      "start": 71.3134,
      "duration": 0.0973,
      "velocity": 110,
      "chip": "ym2612"
    },
    {
      "channel": 4,
      "note": 51,
      "start": 71.3161,
      "duration": 0.0945,
      "velocity": 126,
      "chip": "ym2612"
    },
    {
      "channel": 2,
      "note": 51,
      "start": 71.4466,
      "duration": 0.0975,
      "velocity": 110,
      "chip": "ym2612"
    },
    {
      "channel": 3,
      "note": 45,
      "start": 71.4495,
      "duration": 0.261,
      "velocity": 113,
      "chip": "ym2612"
    },
    {
      "channel": 4,
      "note": 55,
      "start": 71.4521,
      "duration": 0.0751,
      "velocity": 126,
      "chip": "ym2612"
    },
    {
      "channel": 1,
      "note": 59,
      "start": 71.4553,
      "duration": 0.0884,
      "velocity": 127,
      "chip": "ym2612"
    },
    {
      "channel": 4,
      "note": 51,
      "start": 71.597,
      "duration": 0.0802,
      "velocity": 126,
      "chip": "ym2612"
    },
    {
      "channel": 2,
      "note": 51,
      "start": 71.7301,
      "duration": 0.064,
      "velocity": 110,
      "chip": "ym2612"
    },
    {
      "channel": 4,
      "note": 55,
      "start": 71.7328,
      "duration": 0.0611,
      "velocity": 126,
      "chip": "ym2612"
    },
    {
      "channel": 2,
      "note": 51,
      "start": 71.8798,
      "duration": 0.0808,
      "velocity": 110,
      "chip": "ym2612"
    },
    {
      "channel": 4,
      "note": 51,
      "start": 71.8829,
      "duration": 0.111,
      "velocity": 126,
      "chip": "ym2612"
    },
    {
      "channel": 2,
      "note": 51,
      "start": 72.0136,
      "duration": 0.1137,
      "velocity": 110,
      "chip": "ym2612"
    },
    {
      "channel": 4,
      "note": 55,
      "start": 72.0164,
      "duration": 0.0609,
      "velocity": 126,
      "chip": "ym2612"
    },
    {
      "channel": 1,
      "note": 50,
      "start": 72.0195,
      "duration": 0.141,
      "velocity": 127,
      "chip": "ym2612"
    },
    {
      "channel": 5,
      "note": 59,
      "start": 72.0224,
      "duration": 0.0882,
      "velocity": 127,
      "chip": "ym2612"
    },
    {
      "channel": 2,
      "note": 51,
      "start": 72.1635,
      "duration": 0.0807,
      "velocity": 110,
      "chip": "ym2612"
    },
    {
      "channel": 4,
      "note": 51,
      "start": 72.1662,
      "duration": 0.0778,
      "velocity": 126,
      "chip": "ym2612"
    },
    {
      "channel": 4,
      "note": 55,
      "start": 72.2969,
      "duration": 0.0637,
      "velocity": 126,
      "chip": "ym2612"
    },
    {
      "channel": 1,
      "note": 59,
      "start": 72.3004,
      "duration": 0.1101,
      "velocity": 127,
      "chip": "ym2612"
    },
    {
      "channel": 2,
      "note": 51,
      "start": 72.43,
      "duration": 0.1473,
      "velocity": 110,
      "chip": "ym2612"
    },
    {
      "channel": 4,
      "note": 51,
      "start": 72.4327,
      "duration": 0.0945,
      "velocity": 126,
      "chip": "ym2612"
    },
    {
      "channel": 2,
      "note": 51,
      "start": 72.5801,
      "duration": 0.0973,
      "velocity": 110,
      "chip": "ym2612"
    },
    {
      "channel": 3,
      "note": 45,
      "start": 72.5825,
      "duration": 0.2447,
      "velocity": 113,
      "chip": "ym2612"
    },
    {
      "channel": 4,
      "note": 53,
      "start": 72.5854,
      "duration": 0.0586,
      "velocity": 126,
      "chip": "ym2612"
    },
    {
      "channel": 4,
      "note": 53,
      "start": 72.8637,
      "duration": 0.0636,
      "velocity": 126,
      "chip": "ym2612"
    },
    {
      "channel": 1,
      "note": 59,
      "start": 72.8668,
      "duration": 0.127,
      "velocity": 127,
      "chip": "ym2612"
    },
    {
      "channel": 2,
      "note": 51,
      "start": 72.9968,
      "duration": 0.114,
      "velocity": 110,
      "chip": "ym2612"
    },
    {
      "channel": 4,
      "note": 51,
      "start": 72.9999,
      "duration": 0.0941,
      "velocity": 126,
      "chip": "ym2612"
    },
    {
      "channel": 1,
      "note": 50,
      "start": 73.003,
      "duration": 0.1074,
      "velocity": 127,
      "chip": "ym2612"
    },
    {
      "channel": 2,
      "note": 51,
      "start": 73.1466,
      "duration": 0.1141,
      "velocity": 110,
      "chip": "ym2612"
    },
    {
      "channel": 4,
      "note": 55,
      "start": 73.1493,
      "duration": 0.0279,
      "velocity": 126,
      "chip": "ym2612"
    },
    {
      "channel": 4,
      "note": 51,
      "start": 73.2804,
      "duration": 0.0969,
      "velocity": 126,
      "chip": "ym2612"
    },
    {
      "channel": 1,
      "note": 50,
      "start": 73.2835,
      "duration": 0.1436,
      "velocity": 127,
      "chip": "ym2612"
    },
    {
      "channel": 4,
      "note": 55,
      "start": 73.4304,
      "duration": 0.0636,
      "velocity": 126,
      "chip": "ym2612"
    },
    {
      "channel": 1,
      "note": 59,
      "start": 73.4335,
      "duration": 0.1104,
      "velocity": 127,
      "chip": "ym2612"
    },
    {
      "channel": 2,
      "note": 51,
      "start": 73.5635,
      "duration": 0.1138,
      "velocity": 110,
      "chip": "ym2612"
    },
    {
      "channel": 4,
      "note": 51,
      "start": 73.5663,
      "duration": 0.0943,
      "velocity": 126,
      "chip": "ym2612"
    },
    {
      "channel": 2,
      "note": 51,
      "start": 73.6966,
      "duration": 0.0975,
      "velocity": 110,
      "chip": "ym2612"
    },
    {
      "channel": 3,
      "note": 45,
      "start": 73.6991,
      "duration": 0.2615,
      "velocity": 113,
      "chip": "ym2612"
    },
    {
      "channel": 4,
      "note": 53,
      "start": 73.7019,
      "duration": 0.0754,
      "velocity": 126,
      "chip": "ym2612"
    },
    {
      "channel": 1,
      "note": 59,
      "start": 73.7049,
      "duration": 0.0889,
      "velocity": 127,
      "chip": "ym2612"
    },
    {
      "channel": 2,
      "note": 51,
      "start": 73.8466,
      "duration": 0.1143,
      "velocity": 110,
      "chip": "ym2612"
    },
    {
      "channel": 2,
      "note": 51,
      "start": 73.9798,
      "duration": 0.0975,
      "velocity": 110,
      "chip": "ym2612"
    },
    {
      "channel": 4,
      "note": 53,
      "start": 73.9827,
      "duration": 0.0445,
      "velocity": 126,
      "chip": "ym2612"
    },
    {
      "channel": 1,
      "note": 59,
      "start": 73.9862,
      "duration": 0.0742,
      "velocity": 127,
      "chip": "ym2612"
    },
    {
      "channel": 2,
      "note": 51,
      "start": 74.1299,
      "duration": 0.1142,
      "velocity": 110,
      "chip": "ym2612"
    },
    {
      "channel": 4,
      "note": 51,
      "start": 74.1331,
      "duration": 0.0775,
      "velocity": 126,
      "chip": "ym2612"
    },
    {
      "channel": 1,
      "note": 50,
      "start": 74.1361,
      "duration": 0.1078,
      "velocity": 127,
      "chip": "ym2612"
    },
    {
      "channel": 2,
      "note": 51,
      "start": 74.2632,
      "duration": 0.0976,
      "velocity": 110,
      "chip": "ym2612"
    },
    {
      "channel": 4,
      "note": 55,
      "start": 74.266,
      "duration": 0.0445,
      "velocity": 126,
      "chip": "ym2612"
    },
    {
      "channel": 1,
      "note": 59,
      "start": 74.2689,
      "duration": 0.0915,
      "velocity": 127,
      "chip": "ym2612"
    },
    {
      "channel": 2,
      "note": 51,
      "start": 74.4135,
      "duration": 0.1139,
      "velocity": 110,
      "chip": "ym2612"
    },
    {
      "channel": 4,
      "note": 51,
      "start": 74.4162,
      "duration": 0.0611,
      "velocity": 126,
      "chip": "ym2612"
    },
    {
      "channel": 1,
      "note": 50,
      "start": 74.4192,
      "duration": 0.1246,
      "velocity": 127,
      "chip": "ym2612"
    },
    {
      "channel": 4,
      "note": 55,
      "start": 74.5471,
      "duration": 0.0469,
      "velocity": 126,
      "chip": "ym2612"
    },
    {
      "channel": 1,
      "note": 59,
      "start": 74.5502,
      "duration": 0.1104,
      "velocity": 127,
      "chip": "ym2612"
    },
    {
      "channel": 2,
      "note": 51,
      "start": 74.6804,
      "duration": 0.147,
      "velocity": 110,
      "chip": "ym2612"
    },
    {
      "channel": 4,
      "note": 51,
      "start": 74.6831,
      "duration": 0.1275,
      "velocity": 126,
      "chip": "ym2612"
    },
    {
      "channel": 2,
      "note": 51,
      "start": 74.8302,
      "duration": 0.1639,
      "velocity": 110,
      "chip": "ym2612"
    },
    {
      "channel": 3,
      "note": 45,
      "start": 74.8328,
      "duration": 0.2278,
      "velocity": 113,
      "chip": "ym2612"
    },
    {
      "channel": 4,
      "note": 53,
      "start": 74.8356,
      "duration": 0.0417,
      "velocity": 126,
      "chip": "ym2612"
    },
    {
      "channel": 4,
      "note": 53,
      "start": 75.1137,
      "duration": 0.0469,
      "velocity": 126,
      "chip": "ym2612"
    },
    {
      "channel": 1,
      "note": 59,
      "start": 75.1166,
      "duration": 0.1106,
      "velocity": 127,
      "chip": "ym2612"
    },
    {
      "channel": 2,
      "note": 51,
      "start": 75.2466,
      "duration": 0.1484,
      "velocity": 110,
      "chip": "ym2612"
    },
    {
      "channel": 4,
      "note": 51,
      "start": 75.2493,
      "duration": 0.0946,
      "velocity": 126,
      "chip": "ym2612"
    },
    {
      "channel": 1,
      "note": 50,
      "start": 75.2528,
      "duration": 0.141,
      "velocity": 127,
      "chip": "ym2612"
    },
    {
      "channel": 2,
      "note": 51,
      "start": 75.3969,
      "duration": 0.1973,
      "velocity": 110,
      "chip": "ym2612"
    },
    {
      "channel": 4,
      "note": 55,
      "start": 75.4,
      "duration": 0.0272,
      "velocity": 126,
      "chip": "ym2612"
    },
    {
      "channel": 4,
      "note": 51,
      "start": 75.5303,
      "duration": 0.0636,
      "velocity": 126,
      "chip": "ym2612"
    },
    {
      "channel": 1,
      "note": 50,
      "start": 75.5333,
      "duration": 0.1438,
      "velocity": 127,
      "chip": "ym2612"
    },
    {
      "channel": 4,
      "note": 55,
      "start": 75.6804,
      "duration": 0.0302,
      "velocity": 126,
      "chip": "ym2612"
    },
    {
      "channel": 1,
      "note": 59,
      "start": 75.6835,
      "duration": 0.1102,
      "velocity": 127,
      "chip": "ym2612"
    },
    {
      "channel": 2,
      "note": 51,
      "start": 75.8134,
      "duration": 0.114,
      "velocity": 110,
      "chip": "ym2612"
    },
    {
      "channel": 4,
      "note": 51,
      "start": 75.8161,
      "duration": 0.1111,
      "velocity": 126,
      "chip": "ym2612"
    },
    {
      "channel": 2,
      "note": 51,
      "start": 75.9466,
      "duration": 0.0976,
      "velocity": 110,
      "chip": "ym2612"
    },
    {
      "channel": 3,
      "note": 45,
      "start": 75.949,
      "duration": 0.2449,
      "velocity": 113,
      "chip": "ym2612"
    },
    {
      "channel": 4,
      "note": 53,
      "start": 75.9518,
      "duration": 0.0421,
      "velocity": 126,
      "chip": "ym2612"
    },
    {
      "channel": 1,
      "note": 59,
      "start": 75.9548,
      "duration": 0.0891,
      "velocity": 127,
      "chip": "ym2612"
    },
    {
      "channel": 2,
      "note": 51,
      "start": 76.0963,
      "duration": 0.0978,
      "velocity": 110,
      "chip": "ym2612"
    },
    {
      "channel": 2,
      "note": 51,
      "start": 76.2301,
      "duration": 0.0972,
      "velocity": 110,
      "chip": "ym2612"
    },
    {
      "channel": 4,
      "note": 53,
      "start": 76.2329,
      "duration": 0.0444,
      "velocity": 126,
      "chip": "ym2612"
    },
    {
      "channel": 1,
      "note": 59,
      "start": 76.236,
      "duration": 0.0746,
      "velocity": 127,
      "chip": "ym2612"
    },
    {
      "channel": 2,
      "note": 51,
      "start": 76.3799,
      "duration": 0.1142,
      "velocity": 110,
      "chip": "ym2612"
    },
    {
      "channel": 4,
      "note": 51,
      "start": 76.3826,
      "duration": 0.078,
      "velocity": 126,
      "chip": "ym2612"
    },
    {
      "channel": 1,
      "note": 50,
      "start": 76.3856,
      "duration": 0.1249,
      "velocity": 127,
      "chip": "ym2612"
    },
    {
      "channel": 2,
      "note": 51,
      "start": 76.5133,
      "duration": 0.064,
      "velocity": 110,
      "chip": "ym2612"
    },
    {
      "channel": 4,
      "note": 55,
      "start": 76.5165,
      "duration": 0.0441,
      "velocity": 126,
      "chip": "ym2612"
    },
    {
      "channel": 1,
      "note": 59,
      "start": 76.5195,
      "duration": 0.091,
      "velocity": 127,
      "chip": "ym2612"
    },
    {
      "channel": 2,
      "note": 51,
      "start": 76.6633,
      "duration": 0.1142,
      "velocity": 110,
      "chip": "ym2612"
    },
    {
      "channel": 4,
      "note": 51,
      "start": 76.6661,
      "duration": 0.0779,
      "velocity": 126,
      "chip": "ym2612"
    },
    {
      "channel": 1,
      "note": 50,
      "start": 76.6695,
      "duration": 0.1078,
      "velocity": 127,
      "chip": "ym2612"
    },
    {
      "channel": 4,
      "note": 55,
      "start": 76.7969,
      "duration": 0.0471,
      "velocity": 126,
      "chip": "ym2612"
    },
    {
      "channel": 1,
      "note": 59,
      "start": 76.8,
      "duration": 0.0938,
      "velocity": 127,
      "chip": "ym2612"
    },
    {
      "channel": 2,
      "note": 51,
      "start": 76.9467,
      "duration": 0.1307,
      "velocity": 110,
      "chip": "ym2612"
    },
    {
      "channel": 4,
      "note": 51,
      "start": 76.9495,
      "duration": 0.1111,
      "velocity": 126,
      "chip": "ym2612"
    },
    {
      "channel": 2,
      "note": 51,
      "start": 77.0802,
      "duration": 0.1138,
      "velocity": 110,
      "chip": "ym2612"
    },
    {
      "channel": 3,
      "note": 45,
      "start": 77.0828,
      "duration": 0.2445,
      "velocity": 113,
      "chip": "ym2612"
    },
    {
      "channel": 4,
      "note": 53,
      "start": 77.0856,
      "duration": 0.0583,
      "velocity": 126,
      "chip": "ym2612"
    },
    {
      "channel": 4,
      "note": 53,
      "start": 77.3639,
      "duration": 0.0468,
      "velocity": 126,
      "chip": "ym2612"
    },
    {
      "channel": 1,
      "note": 59,
      "start": 77.3668,
      "duration": 0.077,
      "velocity": 127,
      "chip": "ym2612"
    },
    {
      "channel": 2,
      "note": 51,
      "start": 77.497,
      "duration": 0.147,
      "velocity": 110,
      "chip": "ym2612"
    },
    {
      "channel": 4,
      "note": 51,
      "start": 77.4998,
      "duration": 0.1109,
      "velocity": 126,
      "chip": "ym2612"
    },
    {
      "channel": 1,
      "note": 50,
      "start": 77.5029,
      "duration": 0.1076,
      "velocity": 127,
      "chip": "ym2612"
    },
    {
      "channel": 2,
      "note": 51,
      "start": 77.6468,
      "duration": 0.1972,
      "velocity": 110,
      "chip": "ym2612"
    },
    {
      "channel": 4,
      "note": 55,
      "start": 77.6499,
      "duration": 0.044,
      "velocity": 126,
      "chip": "ym2612"
    },
    {
      "channel": 4,
      "note": 51,
      "start": 77.7803,
      "duration": 0.097,
      "velocity": 126,
      "chip": "ym2612"
    },
    {
      "channel": 1,
      "note": 50,
      "start": 77.7834,
      "duration": 0.1437,
      "velocity": 127,
      "chip": "ym2612"
    },
    {
      "channel": 4,
      "note": 55,
      "start": 77.9304,
      "duration": 0.0636,
      "velocity": 126,
      "chip": "ym2612"
    },
    {
      "channel": 1,
      "note": 59,
      "start": 77.9335,
      "duration": 0.077,
      "velocity": 127,
      "chip": "ym2612"
    },
    {
      "channel": 2,
      "note": 51,
      "start": 78.0634,
      "duration": 0.114,
      "velocity": 110,
      "chip": "ym2612"
    },
    {
      "channel": 4,
      "note": 51,
      "start": 78.0661,
      "duration": 0.1111,
      "velocity": 126,
      "chip": "ym2612"
    },
    {
      "channel": 2,
      "note": 51,
      "start": 78.1966,
      "duration": 0.0808,
      "velocity": 110,
      "chip": "ym2612"
    },
    {
      "channel": 3,
      "note": 45,
      "start": 78.199,
      "duration": 0.2615,
      "velocity": 113,
      "chip": "ym2612"
    },
    {
      "channel": 4,
      "note": 53,
      "start": 78.2018,
      "duration": 0.0421,
      "velocity": 126,
      "chip": "ym2612"
    },
    {
      "channel": 1,
      "note": 59,
      "start": 78.2047,
      "duration": 0.089,
      "velocity": 127,
      "chip": "ym2612"
    },
    {
      "channel": 2,
      "note": 51,
      "start": 78.3466,
      "duration": 0.0974,
      "velocity": 110,
      "chip": "ym2612"
    },
    {
      "channel": 2,
      "note": 51,
      "start": 78.4799,
      "duration": 0.0808,
      "velocity": 110,
      "chip": "ym2612"
    },
    {
      "channel": 4,
      "note": 53,
      "start": 78.4826,
      "duration": 0.0447,
      "velocity": 126,
      "chip": "ym2612"
    },
    {
      "channel": 1,
      "note": 59,
      "start": 78.486,
      "duration": 0.0912,
      "velocity": 127,
      "chip": "ym2612"
    },
    {
      "channel": 2,
      "note": 51,
      "start": 78.6299,
      "duration": 0.1142,
      "velocity": 110,
      "chip": "ym2612"
    },
    {
      "channel": 4,
      "note": 51,
      "start": 78.6326,
      "duration": 0.1113,
      "velocity": 126,
      "chip": "ym2612"
    },
    {
      "channel": 1,
      "note": 50,
      "start": 78.6356,
      "duration": 0.1249,
      "velocity": 127,
      "chip": "ym2612"
    },
    {
      "channel": 2,
      "note": 51,
      "start": 78.7637,
      "duration": 0.0971,
      "velocity": 110,
      "chip": "ym2612"
    },
    {
      "channel": 4,
      "note": 55,
      "start": 78.7665,
      "duration": 0.0441,
      "velocity": 126,
      "chip": "ym2612"
    },
    {
      "channel": 1,
      "note": 59,
      "start": 78.7695,
      "duration": 0.0911,
      "velocity": 127,
      "chip": "ym2612"
    },
    {
      "channel": 2,
      "note": 51,
      "start": 78.9132,
      "duration": 0.081,
      "velocity": 110,
      "chip": "ym2612"
    },
    {
      "channel": 4,
      "note": 51,
      "start": 78.9163,
      "duration": 0.0777,
      "velocity": 126,
      "chip": "ym2612"
    },
    {
      "channel": 1,
      "note": 50,
      "start": 78.9193,
      "duration": 0.1079,
      "velocity": 127,
      "chip": "ym2612"
    },
    {
      "channel": 4,
      "note": 55,
      "start": 79.047,
      "duration": 0.047,
      "velocity": 126,
      "chip": "ym2612"
    },
    {
      "channel": 1,
      "note": 59,
      "start": 79.0501,
      "duration": 0.1103,
      "velocity": 127,
      "chip": "ym2612"
    },
    {
      "channel": 2,
      "note": 51,
      "start": 79.1968,
      "duration": 0.114,
      "velocity": 110,
      "chip": "ym2612"
    },
    {
      "channel": 4,
      "note": 51,
      "start": 79.1995,
      "duration": 0.1111,
      "velocity": 126,
      "chip": "ym2612"
    },
    {
      "channel": 2,
      "note": 51,
      "start": 79.3301,
      "duration": 0.0972,
      "velocity": 110,
      "chip": "ym2612"
    },
    {
      "channel": 3,
      "note": 45,
      "start": 79.3327,
      "duration": 0.2111,
      "velocity": 113,
      "chip": "ym2612"
    },
    {
      "channel": 4,
      "note": 53,
      "start": 79.3355,
      "duration": 0.0418,
      "velocity": 126,
      "chip": "ym2612"
    },
    {
      "channel": 4,
      "note": 53,
      "start": 79.6137,
      "duration": 0.0136,
      "velocity": 126,
      "chip": "ym2612"
    },
    {
      "channel": 2,
      "note": 51,
      "start": 79.7467,
      "duration": 0.1472,
      "velocity": 110,
      "chip": "ym2612"
    },
    {
      "channel": 2,
      "note": 51,
      "start": 79.8967,
      "duration": 0.1973,
      "velocity": 110,
      "chip": "ym2612"
    },
    {
      "channel": 4,
      "note": 53,
      "start": 79.8996,
      "duration": 0.0443,
      "velocity": 126,
      "chip": "ym2612"
    },
    {
      "channel": 4,
      "note": 51,
      "start": 80.0308,
      "duration": 0.0632,
      "velocity": 126,
      "chip": "ym2612"
    },
    {
      "channel": 2,
      "note": 51,
      "start": 80.3138,
      "duration": 0.1136,
      "velocity": 110,
      "chip": "ym2612"
    },
    {
      "channel": 4,
      "note": 51,
      "start": 80.3166,
      "duration": 0.094,
      "velocity": 126,
      "chip": "ym2612"
    },
    {
      "channel": 2,
      "note": 51,
      "start": 80.4633,
      "duration": 0.064,
      "velocity": 110,
      "chip": "ym2612"
    },
    {
      "channel": 3,
      "note": 45,
      "start": 80.4659,
      "duration": 0.1947,
      "velocity": 113,
      "chip": "ym2612"
    },
    {
      "channel": 4,
      "note": 53,
      "start": 80.4685,
      "duration": 0.0253,
      "velocity": 126,
      "chip": "ym2612"
    },
    {
      "channel": 2,
      "note": 51,
      "start": 80.5966,
      "duration": 0.1141,
      "velocity": 110,
      "chip": "ym2612"
    },
    {
      "channel": 4,
      "note": 51,
      "start": 80.5993,
      "duration": 0.0613,
      "velocity": 126,
      "chip": "ym2612"
    },
    {
      "channel": 2,
      "note": 51,
      "start": 80.7298,
      "duration": 0.0975,
      "velocity": 110,
      "chip": "ym2612"
    },
    {
      "channel": 4,
      "note": 53,
      "start": 80.7326,
      "duration": 0.0447,
      "velocity": 126,
      "chip": "ym2612"
    },
    {
      "channel": 2,
      "note": 51,
      "start": 80.8799,
      "duration": 0.1141,
      "velocity": 110,
      "chip": "ym2612"
    },
    {
      "channel": 4,
      "note": 51,
      "start": 80.8827,
      "duration": 0.0779,
      "velocity": 126,
      "chip": "ym2612"
    },
    {
      "channel": 2,
      "note": 51,
      "start": 81.0135,
      "duration": 0.0972,
      "velocity": 110,
      "chip": "ym2612"
    },
    {
      "channel": 3,
      "note": 45,
      "start": 81.0166,
      "duration": 0.1107,
      "velocity": 113,
      "chip": "ym2612"
    },
    {
      "channel": 4,
      "note": 55,
      "start": 81.0192,
      "duration": 0.058,
      "velocity": 126,
      "chip": "ym2612"
    },
    {
      "channel": 4,
      "note": 51,
      "start": 81.1637,
      "duration": 0.0803,
      "velocity": 126,
      "chip": "ym2612"
    },
    {
      "channel": 2,
      "note": 51,
      "start": 81.2964,
      "duration": 0.0976,
      "velocity": 110,
      "chip": "ym2612"
    },
    {
      "channel": 3,
      "note": 45,
      "start": 81.2989,
      "duration": 0.1117,
      "velocity": 113,
      "chip": "ym2612"
    },
    {
      "channel": 4,
      "note": 55,
      "start": 81.3019,
      "duration": 0.0587,
      "velocity": 126,
      "chip": "ym2612"
    },
    {
      "channel": 4,
      "note": 51,
      "start": 81.447,
      "duration": 0.0803,
      "velocity": 126,
      "chip": "ym2612"
    },
    {
      "channel": 2,
      "note": 51,
      "start": 81.5806,
      "duration": 0.1134,
      "velocity": 110,
      "chip": "ym2612"
    },
    {
      "channel": 3,
      "note": 45,
      "start": 81.5835,
      "duration": 0.1604,
      "velocity": 113,
      "chip": "ym2612"
    },
    {
      "channel": 4,
      "note": 53,
      "start": 81.5863,
      "duration": 0.0576,
      "velocity": 126,
      "chip": "ym2612"
    },
    {
      "channel": 0,
      "note": 52,
      "start": 81.7146,
      "duration": 0.1126,
      "velocity": 127,
      "chip": "ym2612"
    },
    {
      "channel": 4,
      "note": 53,
      "start": 81.8637,
      "duration": 0.0636,
      "velocity": 126,
      "chip": "ym2612"
    },
    {
      "channel": 0,
      "note": 50,
      "start": 81.8667,
      "duration": 0.1104,
      "velocity": 127,
      "chip": "ym2612"
    },
    {
      "channel": 4,
      "note": 51,
      "start": 81.997,
      "duration": 0.097,
      "velocity": 126,
      "chip": "ym2612"
    },
    {
      "channel": 4,
      "note": 55,
      "start": 82.1469,
      "duration": 0.0471,
      "velocity": 126,
      "chip": "ym2612"
    },
    {
      "channel": 0,
      "note": 52,
      "start": 82.1502,
      "duration": 0.077,
      "velocity": 127,
      "chip": "ym2612"
    },
    {
      "channel": 4,
      "note": 51,
      "start": 82.2802,
      "duration": 0.097,
      "velocity": 126,
      "chip": "ym2612"
    },
    {
      "channel": 0,
      "note": 50,
      "start": 82.2834,
      "duration": 0.1104,
      "velocity": 127,
      "chip": "ym2612"
    },
    {
      "channel": 4,
      "note": 55,
      "start": 82.4308,
      "duration": 0.0631,
      "velocity": 126,
      "chip": "ym2612"
    },
    {
      "channel": 0,
      "note": 52,
      "start": 82.4338,
      "duration": 0.0766,
      "velocity": 127,
      "chip": "ym2612"
    },
    {
      "channel": 4,
      "note": 51,
      "start": 82.5637,
      "duration": 0.097,
      "velocity": 126,
      "chip": "ym2612"
    },
    {
      "channel": 0,
      "note": 50,
      "start": 82.5671,
      "duration": 0.11,
      "velocity": 127,
      "chip": "ym2612"
    },
    {
      "channel": 4,
      "note": 53,
      "start": 82.7139,
      "duration": 0.0635,
      "velocity": 126,
      "chip": "ym2612"
    },
    {
      "channel": 0,
      "note": 52,
      "start": 82.717,
      "duration": 0.0768,
      "velocity": 127,
      "chip": "ym2612"
    },
    {
      "channel": 0,
      "note": 50,
      "start": 82.8475,
      "duration": 0.113,
      "velocity": 127,
      "chip": "ym2612"
    },
    {
      "channel": 4,
      "note": 53,
      "start": 82.9805,
      "duration": 0.0468,
      "velocity": 126,
      "chip": "ym2612"
    },
    {
      "channel": 0,
      "note": 52,
      "start": 82.9834,
      "duration": 0.1104,
      "velocity": 127,
      "chip": "ym2612"
    },
    {
      "channel": 4,
      "note": 51,
      "start": 83.1304,
      "duration": 0.0802,
      "velocity": 126,
      "chip": "ym2612"
    },
    {
      "channel": 0,
      "note": 50,
      "start": 83.1334,
      "duration": 0.1104,
      "velocity": 127,
      "chip": "ym2612"
    },
    {
      "channel": 2,
      "note": 51,
      "start": 83.2633,
      "duration": 0.0973,
      "velocity": 110,
      "chip": "ym2612"
    },
    {
      "channel": 3,
      "note": 45,
      "start": 83.2661,
      "duration": 0.1111,
      "velocity": 113,
      "chip": "ym2612"
    },
    {
      "channel": 4,
      "note": 55,
      "start": 83.2688,
      "duration": 0.0418,
      "velocity": 126,
      "chip": "ym2612"
    },
    {
      "channel": 4,
      "note": 51,
      "start": 83.4137,
      "duration": 0.0636,
      "velocity": 126,
      "chip": "ym2612"
    },
    {
      "channel": 2,
      "note": 51,
      "start": 83.5463,
      "duration": 0.0976,
      "velocity": 110,
      "chip": "ym2612"
    },
    {
      "channel": 3,
      "note": 45,
      "start": 83.5488,
      "duration": 0.1116,
      "velocity": 113,
      "chip": "ym2612"
    },
    {
      "channel": 4,
      "note": 55,
      "start": 83.5519,
      "duration": 0.0421,
      "velocity": 126,
      "chip": "ym2612"
    },
    {
      "channel": 4,
      "note": 51,
      "start": 83.6971,
      "duration": 0.1136,
      "velocity": 126,
      "chip": "ym2612"
    },
    {
      "channel": 2,
      "note": 51,
      "start": 83.8301,
      "duration": 0.114,
      "velocity": 110,
      "chip": "ym2612"
    },
    {
      "channel": 3,
      "note": 45,
      "start": 83.8331,
      "duration": 0.1275,
      "velocity": 113,
      "chip": "ym2612"
    },
    {
      "channel": 4,
      "note": 53,
      "start": 83.8359,
      "duration": 0.0414,
      "velocity": 126,
      "chip": "ym2612"
    },
    {
      "channel": 0,
      "note": 52,
      "start": 83.839,
      "duration": 0.1048,
      "velocity": 127,
      "chip": "ym2612"
    },
    {
      "channel": 0,
      "note": 50,
      "start": 83.9641,
      "duration": 0.1297,
      "velocity": 127,
      "chip": "ym2612"
    },
    {
      "channel": 4,
      "note": 53,
      "start": 84.1137,
      "duration": 0.0469,
      "velocity": 126,
      "chip": "ym2612"
    },
    {
      "channel": 0,
      "note": 52,
      "start": 84.1168,
      "duration": 0.0937,
      "velocity": 127,
      "chip": "ym2612"
    },
    {
      "channel": 4,
      "note": 51,
      "start": 84.2469,
      "duration": 0.0971,
      "velocity": 126,
      "chip": "ym2612"
    },
    {
      "channel": 0,
      "note": 50,
      "start": 84.2498,
      "duration": 0.0939,
      "velocity": 127,
      "chip": "ym2612"
    },
    {
      "channel": 4,
      "note": 55,
      "start": 84.397,
      "duration": 0.0469,
      "velocity": 126,
      "chip": "ym2612"
    },
    {
      "channel": 0,
      "note": 52,
      "start": 84.4004,
      "duration": 0.06,
      "velocity": 127,
      "chip": "ym2612"
    },
    {
      "channel": 4,
      "note": 51,
      "start": 84.5302,
      "duration": 0.0637,
      "velocity": 126,
      "chip": "ym2612"
    },
    {
      "channel": 0,
      "note": 50,
      "start": 84.5333,
      "duration": 0.0939,
      "velocity": 127,
      "chip": "ym2612"
    },
    {
      "channel": 4,
      "note": 55,
      "start": 84.6803,
      "duration": 0.0469,
      "velocity": 126,
      "chip": "ym2612"
    },
    {
      "channel": 0,
      "note": 52,
      "start": 84.6832,
      "duration": 0.0772,
      "velocity": 127,
      "chip": "ym2612"
    },
    {
      "channel": 4,
      "note": 51,
      "start": 84.814,
      "duration": 0.1133,
      "velocity": 126,
      "chip": "ym2612"
    },
    {
      "channel": 0,
      "note": 50,
      "start": 84.8169,
      "duration": 0.0935,
      "velocity": 127,
      "chip": "ym2612"
    },
    {
      "channel": 4,
      "note": 53,
      "start": 84.9639,
      "duration": 0.03,
      "velocity": 126,
      "chip": "ym2612"
    },
    {
      "channel": 0,
      "note": 52,
      "start": 84.9668,
      "duration": 0.077,
      "velocity": 127,
      "chip": "ym2612"
    },
    {
      "channel": 0,
      "note": 50,
      "start": 85.0974,
      "duration": 0.0964,
      "velocity": 127,
      "chip": "ym2612"
    },
    {
      "channel": 4,
      "note": 53,
      "start": 85.2303,
      "duration": 0.047,
      "velocity": 126,
      "chip": "ym2612"
    },
    {
      "channel": 0,
      "note": 52,
      "start": 85.2332,
      "duration": 0.0939,
      "velocity": 127,
      "chip": "ym2612"
    },
    {
      "channel": 4,
      "note": 51,
      "start": 85.3802,
      "duration": 0.097,
      "velocity": 126,
      "chip": "ym2612"
    },
    {
      "channel": 0,
      "note": 50,
      "start": 85.3834,
      "duration": 0.1104,
      "velocity": 127,
      "chip": "ym2612"
    },
    {
      "channel": 2,
      "note": 51,
      "start": 85.5134,
      "duration": 0.0973,
      "velocity": 110,
      "chip": "ym2612"
    },
    {
      "channel": 3,
      "note": 45,
      "start": 85.5165,
      "duration": 0.1107,
      "velocity": 113,
      "chip": "ym2612"
    },
    {
      "channel": 4,
      "note": 55,
      "start": 85.5191,
      "duration": 0.0414,
      "velocity": 126,
      "chip": "ym2612"
    },
    {
      "channel": 0,
      "note": 52,
      "start": 85.5224,
      "duration": 0.0714,
      "velocity": 127,
      "chip": "ym2612"
    },
    {
      "channel": 4,
      "note": 51,
      "start": 85.6637,
      "duration": 0.0803,
      "velocity": 126,
      "chip": "ym2612"
    },
    {
      "channel": 2,
      "note": 51,
      "start": 85.7963,
      "duration": 0.0977,
      "velocity": 110,
      "chip": "ym2612"
    },
    {
      "channel": 3,
      "note": 45,
      "start": 85.7988,
      "duration": 0.1117,
      "velocity": 113,
      "chip": "ym2612"
    },
    {
      "channel": 4,
      "note": 55,
      "start": 85.8015,
      "duration": 0.0424,
      "velocity": 126,
      "chip": "ym2612"
    },
    {
      "channel": 4,
      "note": 51,
      "start": 85.9474,
      "duration": 0.1133,
      "velocity": 126,
      "chip": "ym2612"
    },
    {
      "channel": 2,
      "note": 51,
      "start": 86.0804,
      "duration": 0.097,
      "velocity": 110,
      "chip": "ym2612"
    },
    {
      "channel": 3,
      "note": 45,
      "start": 86.0833,
      "duration": 0.144,
      "velocity": 113,
      "chip": "ym2612"
    },
    {
      "channel": 4,
      "note": 53,
      "start": 86.0861,
      "duration": 0.0578,
      "velocity": 126,
      "chip": "ym2612"
    },
    {
      "channel": 0,
      "note": 52,
      "start": 86.0893,
      "duration": 0.0878,
      "velocity": 127,
      "chip": "ym2612"
    },
    {
      "channel": 0,
      "note": 50,
      "start": 86.2312,
      "duration": 0.0793,
      "velocity": 127,
      "chip": "ym2612"
    },
    {
      "channel": 4,
      "note": 53,
      "start": 86.3638,
      "duration": 0.0468,
      "velocity": 126,
      "chip": "ym2612"
    },
    {
      "channel": 0,
      "note": 52,
      "start": 86.3669,
      "duration": 0.0602,
      "velocity": 127,
      "chip": "ym2612"
    },
    {
      "channel": 4,
      "note": 51,
      "start": 86.497,
      "duration": 0.1136,
      "velocity": 126,
      "chip": "ym2612"
    },
    {
      "channel": 0,
      "note": 50,
      "start": 86.5001,
      "duration": 0.0938,
      "velocity": 127,
      "chip": "ym2612"
    },
    {
      "channel": 4,
      "note": 55,
      "start": 86.6469,
      "duration": 0.0471,
      "velocity": 126,
      "chip": "ym2612"
    },
    {
      "channel": 0,
      "note": 52,
      "start": 86.65,
      "duration": 0.0604,
      "velocity": 127,
      "chip": "ym2612"
    },
    {
      "channel": 4,
      "note": 51,
      "start": 86.7802,
      "duration": 0.0971,
      "velocity": 126,
      "chip": "ym2612"
    },
    {
      "channel": 0,
      "note": 50,
      "start": 86.7833,
      "duration": 0.0938,
      "velocity": 127,
      "chip": "ym2612"
    },
    {
      "channel": 4,
      "note": 55,
      "start": 86.9303,
      "duration": 0.0637,
      "velocity": 126,
      "chip": "ym2612"
    },
    {
      "channel": 0,
      "note": 52,
      "start": 86.9334,
      "duration": 0.0604,
      "velocity": 127,
      "chip": "ym2612"
    },
    {
      "channel": 4,
      "note": 51,
      "start": 87.064,
      "duration": 0.1133,
      "velocity": 126,
      "chip": "ym2612"
    },
    {
      "channel": 0,
      "note": 50,
      "start": 87.0671,
      "duration": 0.0934,
      "velocity": 127,
      "chip": "ym2612"
    },
    {
      "channel": 4,
      "note": 53,
      "start": 87.2139,
      "duration": 0.03,
      "velocity": 126,
      "chip": "ym2612"
    },
    {
      "channel": 0,
      "note": 52,
      "start": 87.2168,
      "duration": 0.077,
      "velocity": 127,
      "chip": "ym2612"
    },
    {
      "channel": 0,
      "note": 50,
      "start": 87.3474,
      "duration": 0.0964,
      "velocity": 127,
      "chip": "ym2612"
    },
    {
      "channel": 4,
      "note": 53,
      "start": 87.4803,
      "duration": 0.047,
      "velocity": 126,
      "chip": "ym2612"
    },
    {
      "channel": 0,
      "note": 52,
      "start": 87.4832,
      "duration": 0.0939,
      "velocity": 127,
      "chip": "ym2612"
    },
    {
      "channel": 4,
      "note": 51,
      "start": 87.6302,
      "duration": 0.1136,
      "velocity": 126,
      "chip": "ym2612"
    },
    {
      "channel": 0,
      "note": 50,
      "start": 87.6337,
      "duration": 0.0935,
      "velocity": 127,
      "chip": "ym2612"
    },
    {
      "channel": 2,
      "note": 51,
      "start": 87.7634,
      "duration": 0.0807,
      "velocity": 110,
      "chip": "ym2612"
    },
    {
      "channel": 3,
      "note": 45,
      "start": 87.7662,
      "duration": 0.111,
      "velocity": 113,
      "chip": "ym2612"
    },
    {
      "channel": 4,
      "note": 55,
      "start": 87.7688,
      "duration": 0.0418,
      "velocity": 126,
      "chip": "ym2612"
    },
    {
      "channel": 4,
      "note": 51,
      "start": 87.9136,
      "duration": 0.0804,
      "velocity": 126,
      "chip": "ym2612"
    },
    {
      "channel": 2,
      "note": 51,
      "start": 88.0466,
      "duration": 0.0974,
      "velocity": 110,
      "chip": "ym2612"
    },
    {
      "channel": 3,
      "note": 45,
      "start": 88.0491,
      "duration": 0.1114,
      "velocity": 113,
      "chip": "ym2612"
    },
    {
      "channel": 4,
      "note": 55,
      "start": 88.0517,
      "duration": 0.0422,
      "velocity": 126,
      "chip": "ym2612"
    },
    {
      "channel": 4,
      "note": 51,
      "start": 88.1971,
      "duration": 0.1136,
      "velocity": 126,
      "chip": "ym2612"
    },
    {
      "channel": 2,
      "note": 51,
      "start": 88.33,
      "duration": 0.0974,
      "velocity": 110,
      "chip": "ym2612"
    },
    {
      "channel": 3,
      "note": 45,
      "start": 88.3329,
      "duration": 0.1444,
      "velocity": 113,
      "chip": "ym2612"
    },
    {
      "channel": 4,
      "note": 53,
      "start": 88.3361,
      "duration": 0.0411,
      "velocity": 126,
      "chip": "ym2612"
    },
    {
      "channel": 0,
      "note": 52,
      "start": 88.3392,
      "duration": 0.0879,
      "velocity": 127,
      "chip": "ym2612"
    },
    {
      "channel": 0,
      "note": 50,
      "start": 88.4808,
      "duration": 0.0796,
      "velocity": 127,
      "chip": "ym2612"
    },
    {
      "channel": 4,
      "note": 53,
      "start": 88.6136,
      "duration": 0.0137,
      "velocity": 126,
      "chip": "ym2612"
    },
    {
      "channel": 0,
      "note": 52,
      "start": 88.6167,
      "duration": 0.0604,
      "velocity": 127,
      "chip": "ym2612"
    },
    {
      "channel": 0,
      "note": 50,
      "start": 88.7474,
      "duration": 0.0964,
      "velocity": 127,
      "chip": "ym2612"
    },
    {
      "channel": 4,
      "note": 53,
      "start": 88.8971,
      "duration": 0.0468,
      "velocity": 126,
      "chip": "ym2612"
    },
    {
      "channel": 0,
      "note": 52,
      "start": 88.9002,
      "duration": 0.0603,
      "velocity": 127,
      "chip": "ym2612"
    },
    {
      "channel": 4,
      "note": 51,
      "start": 89.0305,
      "duration": 0.0802,
      "velocity": 126,
      "chip": "ym2612"
    },
    {
      "channel": 0,
      "note": 50,
      "start": 89.0336,
      "duration": 0.0936,
      "velocity": 127,
      "chip": "ym2612"
    },
    {
      "channel": 0,
      "note": 52,
      "start": 89.1806,
      "duration": 0.0798,
      "velocity": 127,
      "chip": "ym2612"
    },
    {
      "channel": 4,
      "note": 51,
      "start": 89.3138,
      "duration": 0.0968,
      "velocity": 126,
      "chip": "ym2612"
    },
    {
      "channel": 0,
      "note": 50,
      "start": 89.3168,
      "duration": 0.1102,
      "velocity": 127,
      "chip": "ym2612"
    },
    {
      "channel": 4,
      "note": 53,
      "start": 89.4637,
      "duration": 0.0302,
      "velocity": 126,
      "chip": "ym2612"
    },
    {
      "channel": 0,
      "note": 52,
      "start": 89.4672,
      "duration": 0.0599,
      "velocity": 127,
      "chip": "ym2612"
    },
    {
      "channel": 4,
      "note": 51,
      "start": 89.5974,
      "duration": 0.0633,
      "velocity": 126,
      "chip": "ym2612"
    },
    {
      "channel": 0,
      "note": 50,
      "start": 89.6004,
      "duration": 0.0934,
      "velocity": 127,
      "chip": "ym2612"
    },
    {
      "channel": 4,
      "note": 53,
      "start": 89.747,
      "duration": 0.0303,
      "velocity": 126,
      "chip": "ym2612"
    },
    {
      "channel": 0,
      "note": 52,
      "start": 89.7499,
      "duration": 0.0772,
      "velocity": 127,
      "chip": "ym2612"
    },
    {
      "channel": 4,
      "note": 51,
      "start": 89.8802,
      "duration": 0.097,
      "velocity": 126,
      "chip": "ym2612"
    },
    {
      "channel": 0,
      "note": 50,
      "start": 89.8834,
      "duration": 0.1104,
      "velocity": 127,
      "chip": "ym2612"
    },
    {
      "channel": 2,
      "note": 51,
      "start": 90.0165,
      "duration": 0.0,
      "velocity": 110,
      "chip": "ym2612"
    }
  ]
}