{
  "track_name": "04 - Magician Stage",
  "duration_sec": 46.359,
  "sample_rate": 44100,
  "note_count": 1198,
  "unique_pitches": 25,
  "pitch_range": 47,
  "avg_note_duration": 0.1566,
  "reconstruction_stats": {
    "notes_reconstructed": 1198,
    "keyon_events": 1198,
    "keyoff_events": 1193,
    "orphan_keyons": 5,
    "unique_pitches": 25,
    "pitch_range": 47,
    "avg_duration_sec": 0.1566
  },
  "metadata": {
    "source": "G\\Golden Axe II\\04 - Magician Stage.vgz"
  },
  "notes": [
    {
      "channel": 0,
      "note": 45,
      "start": 0.034,
      "duration": 0.2325,
      "velocity": 86,
      "chip": "ym2612"
    },
    {
      "channel": 1,
      "note": 68,
      "start": 0.0353,
      "duration": 0.2316,
      "velocity": 86,
      "chip": "ym2612"
    },
    {
      "channel": 2,
      "note": 80,
      "start": 0.0365,
      "duration": 0.2306,
      "velocity": 86,
      "chip": "ym2612"
    },
    {
      "channel": 4,
      "note": 69,
      "start": 0.0391,
      "duration": 0.044,
      "velocity": 120,
      "chip": "ym2612"
    },
    {
      "channel": 4,
      "note": 69,
      "start": 0.0833,
      "duration": 0.0665,
      "velocity": 120,
      "chip": "ym2612"
    },
    {
      "channel": 4,
      "note": 69,
      "start": 0.1501,
      "duration": 0.0665,
      "velocity": 120,
      "chip": "ym2612"
    },
    {
      "channel": 3,
      "note": 80,
      "start": 0.1677,
      "duration": 0.2491,
      "velocity": 86,
      "chip": "ym2612"
    },
    {
      "channel": 4,
      "note": 69,
      "start": 0.2168,
      "duration": 0.0507,
      "velocity": 120,
      "chip": "ym2612"
    },
    {
      "channel": 0,
      "note": 52,
      "start": 0.2667,
      "duration": 0.1166,
      "velocity": 86,
      "chip": "ym2612"
    },
    {
      "channel": 1,
      "note": 69,
      "start": 0.2671,
      "duration": 0.1163,
      "velocity": 86,
      "chip": "ym2612"
    },
    {
      "channel": 2,
      "note": 81,
      "start": 0.2673,
      "duration": 0.2501,
      "velocity": 86,
      "chip": "ym2612"
    },
    {
      "channel": 4,
      "note": 69,
      "start": 0.2677,
      "duration": 0.0657,
      "velocity": 120,
      "chip": "ym2612"
    },
    {
      "channel": 4,
      "note": 69,
      "start": 0.3337,
      "duration": 0.05,
      "velocity": 120,
      "chip": "ym2612"
    },
    {
      "channel": 4,
      "note": 69,
      "start": 0.3839,
      "duration": 0.0663,
      "velocity": 120,
      "chip": "ym2612"
    },
    {
      "channel": 3,
      "note": 81,
      "start": 0.417,
      "duration": 0.2334,
      "velocity": 86,
      "chip": "ym2612"
    },
    {
      "channel": 4,
      "note": 69,
      "start": 0.4505,
      "duration": 0.0675,
      "velocity": 120,
      "chip": "ym2612"
    },
    {
      "channel": 0,
      "note": 52,
      "start": 0.517,
      "duration": 0.1166,
      "velocity": 86,
      "chip": "ym2612"
    },
    {
      "channel": 1,
      "note": 69,
      "start": 0.5174,
      "duration": 0.1164,
      "velocity": 86,
      "chip": "ym2612"
    },
    {
      "channel": 2,
      "note": 83,
      "start": 0.5176,
      "duration": 0.2334,
      "velocity": 86,
      "chip": "ym2612"
    },
    {
      "channel": 4,
      "note": 69,
      "start": 0.5181,
      "duration": 0.2332,
      "velocity": 120,
      "chip": "ym2612"
    },
    {
      "channel": 3,
      "note": 83,
      "start": 0.6506,
      "duration": 0.2334,
      "velocity": 86,
      "chip": "ym2612"
    },
    {
      "channel": 0,
      "note": 52,
      "start": 0.7507,
      "duration": 0.1166,
      "velocity": 86,
      "chip": "ym2612"
    },
    {
      "channel": 1,
      "note": 69,
      "start": 0.751,
      "duration": 0.1164,
      "velocity": 86,
      "chip": "ym2612"
    },
    {
      "channel": 2,
      "note": 85,
      "start": 0.7513,
      "duration": 0.2334,
      "velocity": 86,
      "chip": "ym2612"
    },
    {
      "channel": 4,
      "note": 69,
      "start": 0.7516,
      "duration": 0.2336,
      "velocity": 120,
      "chip": "ym2612"
    },
    {
      "channel": 3,
      "note": 85,
      "start": 0.8843,
      "duration": 0.2501,
      "velocity": 86,
      "chip": "ym2612"
    },
    {
      "channel": 0,
      "note": 45,
      "start": 0.9843,
      "duration": 0.2501,
      "velocity": 86,
      "chip": "ym2612"
    },
    {
      "channel": 1,
      "note": 68,
      "start": 0.9846,
      "duration": 0.2501,
      "velocity": 86,
      "chip": "ym2612"
    },
    {
      "channel": 2,
      "note": 83,
      "start": 0.9849,
      "duration": 0.2501,
      "velocity": 86,
      "chip": "ym2612"
    },
    {
      "channel": 4,
      "note": 69,
      "start": 0.9854,
      "duration": 0.0656,
      "velocity": 120,
      "chip": "ym2612"
    },
    {
      "channel": 4,
      "note": 69,
      "start": 1.0512,
      "duration": 0.0665,
      "velocity": 120,
      "chip": "ym2612"
    },
    {
      "channel": 4,
      "note": 69,
      "start": 1.118,
      "duration": 0.0498,
      "velocity": 120,
      "chip": "ym2612"
    },
    {
      "channel": 3,
      "note": 83,
      "start": 1.1346,
      "duration": 0.2334,
      "velocity": 86,
      "chip": "ym2612"
    },
    {
      "channel": 4,
      "note": 69,
      "start": 1.168,
      "duration": 0.0674,
      "velocity": 120,
      "chip": "ym2612"
    },
    {
      "channel": 0,
      "note": 52,
      "start": 1.2346,
      "duration": 0.1166,
      "velocity": 86,
      "chip": "ym2612"
    },
    {
      "channel": 1,
      "note": 69,
      "start": 1.235,
      "duration": 0.1163,
      "velocity": 86,
      "chip": "ym2612"
    },
    {
      "channel": 2,
      "note": 81,
      "start": 1.2353,
      "duration": 0.0826,
      "velocity": 86,
      "chip": "ym2612"
    },
    {
      "channel": 4,
      "note": 69,
      "start": 1.2356,
      "duration": 0.049,
      "velocity": 120,
      "chip": "ym2612"
    },
    {
      "channel": 4,
      "note": 69,
      "start": 1.2849,
      "duration": 0.0667,
      "velocity": 120,
      "chip": "ym2612"
    },
    {
      "channel": 2,
      "note": 83,
      "start": 1.3181,
      "duration": 0.0665,
      "velocity": 86,
      "chip": "ym2612"
    },
    {
      "channel": 4,
      "note": 69,
      "start": 1.3518,
      "duration": 0.0663,
      "velocity": 120,
      "chip": "ym2612"
    },
    {
      "channel": 3,
      "note": 81,
      "start": 1.3682,
      "duration": 0.0832,
      "velocity": 86,
      "chip": "ym2612"
    },
    {
      "channel": 2,
      "note": 81,
      "start": 1.3849,
      "duration": 0.0838,
      "velocity": 86,
      "chip": "ym2612"
    },
    {
      "channel": 4,
      "note": 69,
      "start": 1.4184,
      "duration": 0.0508,
      "velocity": 120,
      "chip": "ym2612"
    },
    {
      "channel": 3,
      "note": 83,
      "start": 1.4517,
      "duration": 0.0832,
      "velocity": 86,
      "chip": "ym2612"
    },
    {
      "channel": 0,
      "note": 52,
      "start": 1.4682,
      "duration": 0.1166,
      "velocity": 86,
      "chip": "ym2612"
    },
    {
      "channel": 1,
      "note": 69,
      "start": 1.4686,
      "duration": 0.1164,
      "velocity": 86,
      "chip": "ym2612"
    },
    {
      "channel": 2,
      "note": 80,
      "start": 1.4689,
      "duration": 0.2501,
      "velocity": 86,
      "chip": "ym2612"
    },
    {
      "channel": 4,
      "note": 69,
      "start": 1.4694,
      "duration": 0.2499,
      "velocity": 120,
      "chip": "ym2612"
    },
    {
      "channel": 3,
      "note": 81,
      "start": 1.5351,
      "duration": 0.0832,
      "velocity": 86,
      "chip": "ym2612"
    },
    {
      "channel": 3,
      "note": 80,
      "start": 1.6185,
      "duration": 0.2334,
      "velocity": 86,
      "chip": "ym2612"
    },
    {
      "channel": 0,
      "note": 52,
      "start": 1.7186,
      "duration": 0.1166,
      "velocity": 86,
      "chip": "ym2612"
    },
    {
      "channel": 1,
      "note": 69,
      "start": 1.7189,
      "duration": 0.1164,
      "velocity": 86,
      "chip": "ym2612"
    },
    {
      "channel": 2,
      "note": 83,
      "start": 1.7192,
      "duration": 0.2334,
      "velocity": 86,
      "chip": "ym2612"
    },
    {
      "channel": 4,
      "note": 69,
      "start": 1.7195,
      "duration": 0.2336,
      "velocity": 120,
      "chip": "ym2612"
    },
    {
      "channel": 3,
      "note": 83,
      "start": 1.8522,
      "duration": 0.2334,
      "velocity": 86,
      "chip": "ym2612"
    },
    {
      "channel": 0,
      "note": 45,
      "start": 1.9522,
      "duration": 0.2334,
      "velocity": 86,
      "chip": "ym2612"
    },
    {
      "channel": 1,
      "note": 68,
      "start": 1.9526,
      "duration": 0.2334,
      "velocity": 86,
      "chip": "ym2612"
    },
    {
      "channel": 2,
      "note": 81,
      "start": 1.9529,
      "duration": 0.2334,
      "velocity": 86,
      "chip": "ym2612"
    },
    {
      "channel": 4,
      "note": 69,
      "start": 1.9534,
      "duration": 0.0656,
      "velocity": 120,
      "chip": "ym2612"
    },
    {
      "channel": 4,
      "note": 69,
      "start": 2.0192,
      "duration": 0.0498,
      "velocity": 120,
      "chip": "ym2612"
    },
    {
      "channel": 4,
      "note": 69,
      "start": 2.0692,
      "duration": 0.0665,
      "velocity": 120,
      "chip": "ym2612"
    },
    {
      "channel": 3,
      "note": 81,
      "start": 2.0858,
      "duration": 0.2501,
      "velocity": 86,
      "chip": "ym2612"
    },
    {
      "channel": 4,
      "note": 69,
      "start": 2.136,
      "duration": 0.0507,
      "velocity": 120,
      "chip": "ym2612"
    },
    {
      "channel": 0,
      "note": 52,
      "start": 2.1859,
      "duration": 0.1333,
      "velocity": 86,
      "chip": "ym2612"
    },
    {
      "channel": 1,
      "note": 69,
      "start": 2.1862,
      "duration": 0.133,
      "velocity": 86,
      "chip": "ym2612"
    },
    {
      "channel": 2,
      "note": 80,
      "start": 2.1865,
      "duration": 0.0826,
      "velocity": 86,
      "chip": "ym2612"
    },
    {
      "channel": 4,
      "note": 69,
      "start": 2.1869,
      "duration": 0.0657,
      "velocity": 120,
      "chip": "ym2612"
    },
    {
      "channel": 4,
      "note": 69,
      "start": 2.2528,
      "duration": 0.0667,
      "velocity": 120,
      "chip": "ym2612"
    },
    {
      "channel": 2,
      "note": 81,
      "start": 2.2693,
      "duration": 0.0832,
      "velocity": 86,
      "chip": "ym2612"
    },
    {
      "channel": 4,
      "note": 69,
      "start": 2.3198,
      "duration": 0.0496,
      "velocity": 120,
      "chip": "ym2612"
    },
    {
      "channel": 3,
      "note": 80,
      "start": 2.3361,
      "duration": 0.0832,
      "velocity": 86,
      "chip": "ym2612"
    },
    {
      "channel": 2,
      "note": 80,
      "start": 2.3528,
      "duration": 0.0838,
      "velocity": 86,
      "chip": "ym2612"
    },
    {
      "channel": 4,
      "note": 69,
      "start": 2.3696,
      "duration": 0.0675,
      "velocity": 120,
      "chip": "ym2612"
    },
    {
      "channel": 3,
      "note": 81,
      "start": 2.4196,
      "duration": 0.0666,
      "velocity": 86,
      "chip": "ym2612"
    },
    {
      "channel": 0,
      "note": 52,
      "start": 2.4361,
      "duration": 0.1166,
      "velocity": 86,
      "chip": "ym2612"
    },
    {
      "channel": 1,
      "note": 69,
      "start": 2.4365,
      "duration": 0.1164,
      "velocity": 86,
      "chip": "ym2612"
    },
    {
      "channel": 2,
      "note": 78,
      "start": 2.4368,
      "duration": 0.2334,
      "velocity": 86,
      "chip": "ym2612"
    },
    {
      "channel": 4,
      "note": 69,
      "start": 2.4373,
      "duration": 0.2332,
      "velocity": 120,
      "chip": "ym2612"
    },
    {
      "channel": 3,
      "note": 80,
      "start": 2.4863,
      "duration": 0.0832,
      "velocity": 86,
      "chip": "ym2612"
    },
    {
      "channel": 3,
      "note": 78,
      "start": 2.5698,
      "duration": 0.2501,
      "velocity": 86,
      "chip": "ym2612"
    },
    {
      "channel": 0,
      "note": 52,
      "start": 2.6698,
      "duration": 0.1166,
      "velocity": 86,
      "chip": "ym2612"
    },
    {
      "channel": 1,
      "note": 69,
      "start": 2.6701,
      "duration": 0.1164,
      "velocity": 86,
      "chip": "ym2612"
    },
    {
      "channel": 2,
      "note": 81,
      "start": 2.6704,
      "duration": 0.2501,
      "velocity": 86,
      "chip": "ym2612"
    },
    {
      "channel": 4,
      "note": 69,
      "start": 2.6707,
      "duration": 0.2503,
      "velocity": 120,
      "chip": "ym2612"
    },
    {
      "channel": 3,
      "note": 81,
      "start": 2.8201,
      "duration": 0.2334,
      "velocity": 86,
      "chip": "ym2612"
    },
    {
      "channel": 0,
      "note": 45,
      "start": 2.9202,
      "duration": 0.2334,
      "velocity": 86,
      "chip": "ym2612"
    },
    {
      "channel": 1,
      "note": 68,
      "start": 2.9205,
      "duration": 0.2334,
      "velocity": 86,
      "chip": "ym2612"
    },
    {
      "channel": 2,
      "note": 80,
      "start": 2.9208,
      "duration": 0.2334,
      "velocity": 86,
      "chip": "ym2612"
    },
    {
      "channel": 4,
      "note": 69,
      "start": 2.9213,
      "duration": 0.0489,
      "velocity": 120,
      "chip": "ym2612"
    },
    {
      "channel": 4,
      "note": 69,
      "start": 2.9704,
      "duration": 0.0665,
      "velocity": 120,
      "chip": "ym2612"
    },
    {
      "channel": 4,
      "note": 69,
      "start": 3.0371,
      "duration": 0.0498,
      "velocity": 120,
      "chip": "ym2612"
    },
    {
      "channel": 3,
      "note": 80,
      "start": 3.0537,
      "duration": 0.2334,
      "velocity": 86,
      "chip": "ym2612"
    },
    {
      "channel": 4,
      "note": 69,
      "start": 3.0872,
      "duration": 0.0673,
      "velocity": 120,
      "chip": "ym2612"
    },
    {
      "channel": 0,
      "note": 52,
      "start": 3.1537,
      "duration": 0.1166,
      "velocity": 86,
      "chip": "ym2612"
    },
    {
      "channel": 1,
      "note": 69,
      "start": 3.1541,
      "duration": 0.1164,
      "velocity": 86,
      "chip": "ym2612"
    },
    {
      "channel": 2,
      "note": 78,
      "start": 3.1544,
      "duration": 0.2334,
      "velocity": 86,
      "chip": "ym2612"
    },
    {
      "channel": 4,
      "note": 69,
      "start": 3.1548,
      "duration": 0.0657,
      "velocity": 120,
      "chip": "ym2612"
    },
    {
      "channel": 4,
      "note": 69,
      "start": 3.2207,
      "duration": 0.05,
      "velocity": 120,
      "chip": "ym2612"
    },
    {
      "channel": 4,
      "note": 69,
      "start": 3.271,
      "duration": 0.0663,
      "velocity": 120,
      "chip": "ym2612"
    },
    {
      "channel": 3,
      "note": 78,
      "start": 3.2874,
      "duration": 0.2501,
      "velocity": 86,
      "chip": "ym2612"
    },
    {
      "channel": 4,
      "note": 69,
      "start": 3.3375,
      "duration": 0.0508,
      "velocity": 120,
      "chip": "ym2612"
    },
    {
      "channel": 0,
      "note": 52,
      "start": 3.3874,
      "duration": 0.1333,
      "velocity": 86,
      "chip": "ym2612"
    },
    {
      "channel": 1,
      "note": 69,
      "start": 3.3877,
      "duration": 0.1331,
      "velocity": 86,
      "chip": "ym2612"
    },
    {
      "channel": 2,
      "note": 76,
      "start": 3.388,
      "duration": 0.3666,
      "velocity": 86,
      "chip": "ym2612"
    },
    {
      "channel": 4,
      "note": 69,
      "start": 3.3885,
      "duration": 0.2497,
      "velocity": 120,
      "chip": "ym2612"
    },
    {
      "channel": 3,
      "note": 76,
      "start": 3.5377,
      "duration": 0.3502,
      "velocity": 86,
      "chip": "ym2612"
    },
    {
      "channel": 0,
      "note": 52,
      "start": 3.6377,
      "duration": 0.1166,
      "velocity": 86,
      "chip": "ym2612"
    },
    {
      "channel": 1,
      "note": 69,
      "start": 3.638,
      "duration": 0.1164,
      "velocity": 86,
      "chip": "ym2612"
    },
    {
      "channel": 4,
      "note": 69,
      "start": 3.6384,
      "duration": 0.2339,
      "velocity": 120,
      "chip": "ym2612"
    },
    {
      "channel": 2,
      "note": 76,
      "start": 3.7548,
      "duration": 0.117,
      "velocity": 86,
      "chip": "ym2612"
    },
    {
      "channel": 0,
      "note": 45,
      "start": 3.8714,
      "duration": 0.25,
      "velocity": 86,
      "chip": "ym2612"
    },
    {
      "channel": 1,
      "note": 68,
      "start": 3.8717,
      "duration": 0.2501,
      "velocity": 86,
      "chip": "ym2612"
    },
    {
      "channel": 2,
      "note": 75,
      "start": 3.872,
      "duration": 0.3666,
      "velocity": 86,
      "chip": "ym2612"
    },
    {
      "channel": 4,
      "note": 69,
      "start": 3.8725,
      "duration": 0.0656,
      "velocity": 120,
      "chip": "ym2612"
    },
    {
      "channel": 3,
      "note": 76,
      "start": 3.8881,
      "duration": 0.1333,
      "velocity": 86,
      "chip": "ym2612"
    },
    {
      "channel": 4,
      "note": 69,
      "start": 3.9383,
      "duration": 0.0498,
      "velocity": 120,
      "chip": "ym2612"
    },
    {
      "channel": 4,
      "note": 69,
      "start": 3.9883,
      "duration": 0.0665,
      "velocity": 120,
      "chip": "ym2612"
    },
    {
      "channel": 3,
      "note": 75,
      "start": 4.0217,
      "duration": 0.3502,
      "velocity": 86,
      "chip": "ym2612"
    },
    {
      "channel": 4,
      "note": 69,
      "start": 4.0551,
      "duration": 0.0671,
      "velocity": 120,
      "chip": "ym2612"
    },
    {
      "channel": 0,
      "note": 52,
      "start": 4.1217,
      "duration": 0.1166,
      "velocity": 86,
      "chip": "ym2612"
    },
    {
      "channel": 1,
      "note": 69,
      "start": 4.122,
      "duration": 0.1164,
      "velocity": 86,
      "chip": "ym2612"
    },
    {
      "channel": 4,
      "note": 69,
      "start": 4.1224,
      "duration": 0.0492,
      "velocity": 120,
      "chip": "ym2612"
    },
    {
      "channel": 4,
      "note": 69,
      "start": 4.1719,
      "duration": 0.067,
      "velocity": 120,
      "chip": "ym2612"
    },
    {
      "channel": 2,
      "note": 76,
      "start": 4.2388,
      "duration": 0.1169,
      "velocity": 86,
      "chip": "ym2612"
    },
    {
      "channel": 4,
      "note": 69,
      "start": 4.2391,
      "duration": 0.0494,
      "velocity": 120,
      "chip": "ym2612"
    },
    {
      "channel": 4,
      "note": 69,
      "start": 4.2887,
      "duration": 0.0675,
      "velocity": 120,
      "chip": "ym2612"
    },
    {
      "channel": 0,
      "note": 52,
      "start": 4.3553,
      "duration": 0.1166,
      "velocity": 86,
      "chip": "ym2612"
    },
    {
      "channel": 1,
      "note": 69,
      "start": 4.3556,
      "duration": 0.1164,
      "velocity": 86,
      "chip": "ym2612"
    },
    {
      "channel": 2,
      "note": 76,
      "start": 4.3559,
      "duration": 1.435,
      "velocity": 86,
      "chip": "ym2612"
    },
    {
      "channel": 4,
      "note": 69,
      "start": 4.3564,
      "duration": 0.233,
      "velocity": 120,
      "chip": "ym2612"
    },
    {
      "channel": 3,
      "note": 76,
      "start": 4.3721,
      "duration": 0.1166,
      "velocity": 86,
      "chip": "ym2612"
    },
    {
      "channel": 3,
      "note": 76,
      "start": 4.4889,
      "duration": 1.4517,
      "velocity": 86,
      "chip": "ym2612"
    },
    {
      "channel": 0,
      "note": 52,
      "start": 4.5889,
      "duration": 0.1333,
      "velocity": 86,
      "chip": "ym2612"
    },
    {
      "channel": 1,
      "note": 69,
      "start": 4.5893,
      "duration": 0.1331,
      "velocity": 86,
      "chip": "ym2612"
    },
    {
      "channel": 4,
      "note": 69,
      "start": 4.5896,
      "duration": 0.2503,
      "velocity": 120,
      "chip": "ym2612"
    },
    {
      "channel": 0,
      "note": 45,
      "start": 4.8393,
      "duration": 0.2334,
      "velocity": 86,
      "chip": "ym2612"
    },
    {
      "channel": 1,
      "note": 68,
      "start": 4.8396,
      "duration": 0.2334,
      "velocity": 86,
      "chip": "ym2612"
    },
    {
      "channel": 4,
      "note": 69,
      "start": 4.8402,
      "duration": 0.0491,
      "velocity": 120,
      "chip": "ym2612"
    },
    {
      "channel": 4,
      "note": 69,
      "start": 4.8895,
      "duration": 0.0665,
      "velocity": 120,
      "chip": "ym2612"
    },
    {
      "channel": 4,
      "note": 69,
      "start": 4.9563,
      "duration": 0.0665,
      "velocity": 120,
      "chip": "ym2612"
    },
    {
      "channel": 4,
      "note": 69,
      "start": 5.023,
      "duration": 0.0504,
      "velocity": 120,
      "chip": "ym2612"
    },
    {
      "channel": 0,
      "note": 52,
      "start": 5.0729,
      "duration": 0.1166,
      "velocity": 86,
      "chip": "ym2612"
    },
    {
      "channel": 1,
      "note": 69,
      "start": 5.0732,
      "duration": 0.1164,
      "velocity": 86,
      "chip": "ym2612"
    },
    {
      "channel": 4,
      "note": 69,
      "start": 5.0737,
      "duration": 0.0659,
      "velocity": 120,
      "chip": "ym2612"
    },
    {
      "channel": 4,
      "note": 69,
      "start": 5.1398,
      "duration": 0.05,
      "velocity": 120,
      "chip": "ym2612"
    },
    {
      "channel": 4,
      "note": 69,
      "start": 5.1901,
      "duration": 0.0663,
      "velocity": 120,
      "chip": "ym2612"
    },
    {
      "channel": 4,
      "note": 69,
      "start": 5.2566,
      "duration": 0.0672,
      "velocity": 120,
      "chip": "ym2612"
    },
    {
      "channel": 0,
      "note": 52,
      "start": 5.3232,
      "duration": 0.1166,
      "velocity": 86,
      "chip": "ym2612"
    },
    {
      "channel": 1,
      "note": 69,
      "start": 5.3236,
      "duration": 0.1164,
      "velocity": 86,
      "chip": "ym2612"
    },
    {
      "channel": 4,
      "note": 69,
      "start": 5.3241,
      "duration": 0.2332,
      "velocity": 120,
      "chip": "ym2612"
    },
    {
      "channel": 0,
      "note": 52,
      "start": 5.5568,
      "duration": 0.1166,
      "velocity": 86,
      "chip": "ym2612"
    },
    {
      "channel": 1,
      "note": 69,
      "start": 5.5572,
      "duration": 0.1164,
      "velocity": 86,
      "chip": "ym2612"
    },
    {
      "channel": 4,
      "note": 69,
      "start": 5.5576,
      "duration": 0.2337,
      "velocity": 120,
      "chip": "ym2612"
    },
    {
      "channel": 0,
      "note": 45,
      "start": 5.7905,
      "duration": 0.25,
      "velocity": 86,
      "chip": "ym2612"
    },
    {
      "channel": 1,
      "note": 68,
      "start": 5.7908,
      "duration": 0.2501,
      "velocity": 86,
      "chip": "ym2612"
    },
    {
      "channel": 4,
      "note": 69,
      "start": 5.7915,
      "duration": 0.0657,
      "velocity": 120,
      "chip": "ym2612"
    },
    {
      "channel": 4,
      "note": 69,
      "start": 5.8574,
      "duration": 0.0665,
      "velocity": 120,
      "chip": "ym2612"
    },
    {
      "channel": 4,
      "note": 69,
      "start": 5.9242,
      "duration": 0.0498,
      "velocity": 120,
      "chip": "ym2612"
    },
    {
      "channel": 4,
      "note": 69,
      "start": 5.9742,
      "duration": 0.0671,
      "velocity": 120,
      "chip": "ym2612"
    },
    {
      "channel": 0,
      "note": 52,
      "start": 6.0408,
      "duration": 0.1166,
      "velocity": 86,
      "chip": "ym2612"
    },
    {
      "channel": 1,
      "note": 69,
      "start": 6.0412,
      "duration": 0.1164,
      "velocity": 86,
      "chip": "ym2612"
    },
    {
      "channel": 4,
      "note": 69,
      "start": 6.0416,
      "duration": 0.0493,
      "velocity": 120,
      "chip": "ym2612"
    },
    {
      "channel": 4,
      "note": 69,
      "start": 6.091,
      "duration": 0.0667,
      "velocity": 120,
      "chip": "ym2612"
    },
    {
      "channel": 4,
      "note": 69,
      "start": 6.158,
      "duration": 0.0663,
      "velocity": 120,
      "chip": "ym2612"
    },
    {
      "channel": 4,
      "note": 69,
      "start": 6.2246,
      "duration": 0.0519,
      "velocity": 120,
      "chip": "ym2612"
    },
    {
      "channel": 0,
      "note": 52,
      "start": 6.2744,
      "duration": 0.1166,
      "velocity": 86,
      "chip": "ym2612"
    },
    {
      "channel": 1,
      "note": 69,
      "start": 6.2748,
      "duration": 0.1164,
      "velocity": 86,
      "chip": "ym2612"
    },
    {
      "channel": 2,
      "note": 76,
      "start": 6.2762,
      "duration": 0.0815,
      "velocity": 98,
      "chip": "ym2612"
    },
    {
      "channel": 4,
      "note": 69,
      "start": 6.2767,
      "duration": 0.2486,
      "velocity": 120,
      "chip": "ym2612"
    },
    {
      "channel": 3,
      "note": 76,
      "start": 6.4259,
      "duration": 0.0654,
      "velocity": 98,
      "chip": "ym2612"
    },
    {
      "channel": 2,
      "note": 73,
      "start": 6.4414,
      "duration": 0.0838,
      "velocity": 98,
      "chip": "ym2612"
    },
    {
      "channel": 0,
      "note": 52,
      "start": 6.5247,
      "duration": 0.1166,
      "velocity": 86,
      "chip": "ym2612"
    },
    {
      "channel": 1,
      "note": 69,
      "start": 6.5251,
      "duration": 0.1164,
      "velocity": 86,
      "chip": "ym2612"
    },
    {
      "channel": 4,
      "note": 69,
      "start": 6.5256,
      "duration": 0.2338,
      "velocity": 120,
      "chip": "ym2612"
    },
    {
      "channel": 3,
      "note": 73,
      "start": 6.5749,
      "duration": 0.0832,
      "velocity": 98,
      "chip": "ym2612"
    },
    {
      "channel": 2,
      "note": 69,
      "start": 6.5916,
      "duration": 0.0832,
      "velocity": 98,
      "chip": "ym2612"
    },
    {
      "channel": 3,
      "note": 69,
      "start": 6.7418,
      "duration": 0.0832,
      "velocity": 98,
      "chip": "ym2612"
    },
    {
      "channel": 0,
      "note": 45,
      "start": 6.7584,
      "duration": 0.2334,
      "velocity": 86,
      "chip": "ym2612"
    },
    {
      "channel": 1,
      "note": 68,
      "start": 6.7588,
      "duration": 0.2334,
      "velocity": 86,
      "chip": "ym2612"
    },
    {
      "channel": 2,
      "note": 64,
      "start": 6.759,
      "duration": 0.7184,
      "velocity": 86,
      "chip": "ym2612"
    },
    {
      "channel": 4,
      "note": 69,
      "start": 6.7595,
      "duration": 0.0657,
      "velocity": 120,
      "chip": "ym2612"
    },
    {
      "channel": 4,
      "note": 69,
      "start": 6.8254,
      "duration": 0.0497,
      "velocity": 120,
      "chip": "ym2612"
    },
    {
      "channel": 4,
      "note": 69,
      "start": 6.8754,
      "duration": 0.0665,
      "velocity": 120,
      "chip": "ym2612"
    },
    {
      "channel": 3,
      "note": 64,
      "start": 6.892,
      "duration": 0.7351,
      "velocity": 86,
      "chip": "ym2612"
    },
    {
      "channel": 4,
      "note": 69,
      "start": 6.9422,
      "duration": 0.0504,
      "velocity": 120,
      "chip": "ym2612"
    },
    {
      "channel": 0,
      "note": 52,
      "start": 6.992,
      "duration": 0.1333,
      "velocity": 86,
      "chip": "ym2612"
    },
    {
      "channel": 1,
      "note": 69,
      "start": 6.9924,
      "duration": 0.133,
      "velocity": 86,
      "chip": "ym2612"
    },
    {
      "channel": 4,
      "note": 69,
      "start": 6.9928,
      "duration": 0.0659,
      "velocity": 120,
      "chip": "ym2612"
    },
    {
      "channel": 4,
      "note": 69,
      "start": 7.059,
      "duration": 0.0667,
      "velocity": 120,
      "chip": "ym2612"
    },
    {
      "channel": 4,
      "note": 69,
      "start": 7.1259,
      "duration": 0.0496,
      "velocity": 120,
      "chip": "ym2612"
    },
    {
      "channel": 4,
      "note": 69,
      "start": 7.1758,
      "duration": 0.0672,
      "velocity": 120,
      "chip": "ym2612"
    },
    {
      "channel": 0,
      "note": 52,
      "start": 7.2423,
      "duration": 0.1166,
      "velocity": 86,
      "chip": "ym2612"
    },
    {
      "channel": 1,
      "note": 69,
      "start": 7.2427,
      "duration": 0.1164,
      "velocity": 86,
      "chip": "ym2612"
    },
    {
      "channel": 4,
      "note": 69,
      "start": 7.2432,
      "duration": 0.2345,
      "velocity": 120,
      "chip": "ym2612"
    },
    {
      "channel": 0,
      "note": 52,
      "start": 7.476,
      "duration": 0.1166,
      "velocity": 86,
      "chip": "ym2612"
    },
    {
      "channel": 1,
      "note": 69,
      "start": 7.4763,
      "duration": 0.1164,
      "velocity": 86,
      "chip": "ym2612"
    },
    {
      "channel": 2,
      "note": 76,
      "start": 7.4777,
      "duration": 0.25,
      "velocity": 86,
      "chip": "ym2612"
    },
    {
      "channel": 4,
      "note": 69,
      "start": 7.478,
      "duration": 0.2502,
      "velocity": 120,
      "chip": "ym2612"
    },
    {
      "channel": 3,
      "note": 76,
      "start": 7.6274,
      "duration": 0.2333,
      "velocity": 86,
      "chip": "ym2612"
    },
    {
      "channel": 0,
      "note": 45,
      "start": 7.7263,
      "duration": 0.2334,
      "velocity": 86,
      "chip": "ym2612"
    },
    {
      "channel": 1,
      "note": 68,
      "start": 7.7267,
      "duration": 0.2334,
      "velocity": 86,
      "chip": "ym2612"
    },
    {
      "channel": 2,
      "note": 80,
      "start": 7.728,
      "duration": 0.2324,
      "velocity": 86,
      "chip": "ym2612"
    },
    {
      "channel": 4,
      "note": 69,
      "start": 7.7284,
      "duration": 0.0479,
      "velocity": 120,
      "chip": "ym2612"
    },
    {
      "channel": 4,
      "note": 69,
      "start": 7.7766,
      "duration": 0.0665,
      "velocity": 120,
      "chip": "ym2612"
    },
    {
      "channel": 4,
      "note": 69,
      "start": 7.8433,
      "duration": 0.0498,
      "velocity": 120,
      "chip": "ym2612"
    },
    {
      "channel": 3,
      "note": 80,
      "start": 7.8609,
      "duration": 0.2324,
      "velocity": 86,
      "chip": "ym2612"
    },
    {
      "channel": 4,
      "note": 69,
      "start": 7.8934,
      "duration": 0.0673,
      "velocity": 120,
      "chip": "ym2612"
    },
    {
      "channel": 0,
      "note": 52,
      "start": 7.96,
      "duration": 0.1166,
      "velocity": 86,
      "chip": "ym2612"
    },
    {
      "channel": 1,
      "note": 69,
      "start": 7.9603,
      "duration": 0.1164,
      "velocity": 86,
      "chip": "ym2612"
    },
    {
      "channel": 2,
      "note": 81,
      "start": 7.9606,
      "duration": 0.2334,
      "velocity": 86,
      "chip": "ym2612"
    },
    {
      "channel": 4,
      "note": 69,
      "start": 7.961,
      "duration": 0.0657,
      "velocity": 120,
      "chip": "ym2612"
    },
    {
      "channel": 4,
      "note": 69,
      "start": 8.0269,
      "duration": 0.05,
      "velocity": 120,
      "chip": "ym2612"
    },
    {
      "channel": 4,
      "note": 69,
      "start": 8.0771,
      "duration": 0.0663,
      "velocity": 120,
      "chip": "ym2612"
    },
    {
      "channel": 3,
      "note": 81,
      "start": 8.0935,
      "duration": 0.2501,
      "velocity": 86,
      "chip": "ym2612"
    },
    {
      "channel": 4,
      "note": 69,
      "start": 8.1437,
      "duration": 0.0508,
      "velocity": 120,
      "chip": "ym2612"
    },
    {
      "channel": 0,
      "note": 52,
      "start": 8.1936,
      "duration": 0.1333,
      "velocity": 86,
      "chip": "ym2612"
    },
    {
      "channel": 1,
      "note": 69,
      "start": 8.1939,
      "duration": 0.1331,
      "velocity": 86,
      "chip": "ym2612"
    },
    {
      "channel": 2,
      "note": 83,
      "start": 8.1942,
      "duration": 0.2501,
      "velocity": 86,
      "chip": "ym2612"
    },
    {
      "channel": 4,
      "note": 69,
      "start": 8.1947,
      "duration": 0.2499,
      "velocity": 120,
      "chip": "ym2612"
    },
    {
      "channel": 3,
      "note": 83,
      "start": 8.3439,
      "duration": 0.2334,
      "velocity": 86,
      "chip": "ym2612"
    },
    {
      "channel": 0,
      "note": 52,
      "start": 8.4439,
      "duration": 0.1166,
      "velocity": 86,
      "chip": "ym2612"
    },
    {
      "channel": 1,
      "note": 69,
      "start": 8.4442,
      "duration": 0.1164,
      "velocity": 86,
      "chip": "ym2612"
    },
    {
      "channel": 2,
      "note": 85,
      "start": 8.4445,
      "duration": 0.2334,
      "velocity": 86,
      "chip": "ym2612"
    },
    {
      "channel": 4,
      "note": 69,
      "start": 8.4449,
      "duration": 0.2336,
      "velocity": 120,
      "chip": "ym2612"
    },
    {
      "channel": 3,
      "note": 85,
      "start": 8.5775,
      "duration": 0.2501,
      "velocity": 86,
      "chip": "ym2612"
    },
    {
      "channel": 0,
      "note": 45,
      "start": 8.6776,
      "duration": 0.25,
      "velocity": 86,
      "chip": "ym2612"
    },
    {
      "channel": 1,
      "note": 68,
      "start": 8.6779,
      "duration": 0.2501,
      "velocity": 86,
      "chip": "ym2612"
    },
    {
      "channel": 2,
      "note": 83,
      "start": 8.6782,
      "duration": 0.2501,
      "velocity": 86,
      "chip": "ym2612"
    },
    {
      "channel": 4,
      "note": 69,
      "start": 8.6787,
      "duration": 0.0656,
      "velocity": 120,
      "chip": "ym2612"
    },
    {
      "channel": 4,
      "note": 69,
      "start": 8.7445,
      "duration": 0.0498,
      "velocity": 120,
      "chip": "ym2612"
    },
    {
      "channel": 4,
      "note": 69,
      "start": 8.7945,
      "duration": 0.0665,
      "velocity": 120,
      "chip": "ym2612"
    },
    {
      "channel": 3,
      "note": 83,
      "start": 8.8278,
      "duration": 0.2334,
      "velocity": 86,
      "chip": "ym2612"
    },
    {
      "channel": 4,
      "note": 69,
      "start": 8.8613,
      "duration": 0.0673,
      "velocity": 120,
      "chip": "ym2612"
    },
    {
      "channel": 0,
      "note": 52,
      "start": 8.9278,
      "duration": 0.1166,
      "velocity": 86,
      "chip": "ym2612"
    },
    {
      "channel": 1,
      "note": 69,
      "start": 8.9282,
      "duration": 0.1164,
      "velocity": 86,
      "chip": "ym2612"
    },
    {
      "channel": 2,
      "note": 81,
      "start": 8.9285,
      "duration": 0.066,
      "velocity": 86,
      "chip": "ym2612"
    },
    {
      "channel": 4,
      "note": 69,
      "start": 8.9289,
      "duration": 0.049,
      "velocity": 120,
      "chip": "ym2612"
    },
    {
      "channel": 4,
      "note": 69,
      "start": 8.9781,
      "duration": 0.0667,
      "velocity": 120,
      "chip": "ym2612"
    },
    {
      "channel": 2,
      "note": 83,
      "start": 8.9947,
      "duration": 0.0832,
      "velocity": 86,
      "chip": "ym2612"
    },
    {
      "channel": 4,
      "note": 69,
      "start": 9.0451,
      "duration": 0.0496,
      "velocity": 120,
      "chip": "ym2612"
    },
    {
      "channel": 3,
      "note": 81,
      "start": 9.0615,
      "duration": 0.0832,
      "velocity": 86,
      "chip": "ym2612"
    },
    {
      "channel": 2,
      "note": 81,
      "start": 9.0781,
      "duration": 0.0838,
      "velocity": 86,
      "chip": "ym2612"
    },
    {
      "channel": 4,
      "note": 69,
      "start": 9.0949,
      "duration": 0.0675,
      "velocity": 120,
      "chip": "ym2612"
    },
    {
      "channel": 3,
      "note": 83,
      "start": 9.1449,
      "duration": 0.0832,
      "velocity": 86,
      "chip": "ym2612"
    },
    {
      "channel": 0,
      "note": 52,
      "start": 9.1615,
      "duration": 0.1166,
      "velocity": 86,
      "chip": "ym2612"
    },
    {
      "channel": 1,
      "note": 69,
      "start": 9.1618,
      "duration": 0.1164,
      "velocity": 86,
      "chip": "ym2612"
    },
    {
      "channel": 2,
      "note": 80,
      "start": 9.1621,
      "duration": 0.2334,
      "velocity": 86,
      "chip": "ym2612"
    },
    {
      "channel": 4,
      "note": 69,
      "start": 9.1626,
      "duration": 0.2332,
      "velocity": 120,
      "chip": "ym2612"
    },
    {
      "channel": 3,
      "note": 81,
      "start": 9.2283,
      "duration": 0.0665,
      "velocity": 86,
      "chip": "ym2612"
    },
    {
      "channel": 3,
      "note": 80,
      "start": 9.2951,
      "duration": 0.2501,
      "velocity": 86,
      "chip": "ym2612"
    },
    {
      "channel": 0,
      "note": 52,
      "start": 9.3951,
      "duration": 0.1333,
      "velocity": 86,
      "chip": "ym2612"
    },
    {
      "channel": 1,
      "note": 69,
      "start": 9.3955,
      "duration": 0.1331,
      "velocity": 86,
      "chip": "ym2612"
    },
    {
      "channel": 2,
      "note": 83,
      "start": 9.3958,
      "duration": 0.2501,
      "velocity": 86,
      "chip": "ym2612"
    },
    {
      "channel": 4,
      "note": 69,
      "start": 9.3961,
      "duration": 0.2503,
      "velocity": 120,
      "chip": "ym2612"
    },
    {
      "channel": 3,
      "note": 83,
      "start": 9.5454,
      "duration": 0.2334,
      "velocity": 86,
      "chip": "ym2612"
    },
    {
      "channel": 0,
      "note": 45,
      "start": 9.6455,
      "duration": 0.2334,
      "velocity": 86,
      "chip": "ym2612"
    },
    {
      "channel": 1,
      "note": 68,
      "start": 9.6458,
      "duration": 0.2334,
      "velocity": 86,
      "chip": "ym2612"
    },
    {
      "channel": 2,
      "note": 81,
      "start": 9.6461,
      "duration": 0.2334,
      "velocity": 86,
      "chip": "ym2612"
    },
    {
      "channel": 4,
      "note": 69,
      "start": 9.6466,
      "duration": 0.0489,
      "velocity": 120,
      "chip": "ym2612"
    },
    {
      "channel": 4,
      "note": 69,
      "start": 9.6957,
      "duration": 0.0665,
      "velocity": 120,
      "chip": "ym2612"
    },
    {
      "channel": 4,
      "note": 69,
      "start": 9.7624,
      "duration": 0.0665,
      "velocity": 120,
      "chip": "ym2612"
    },
    {
      "channel": 3,
      "note": 81,
      "start": 9.7791,
      "duration": 0.2501,
      "velocity": 86,
      "chip": "ym2612"
    },
    {
      "channel": 4,
      "note": 69,
      "start": 9.8292,
      "duration": 0.0507,
      "velocity": 120,
      "chip": "ym2612"
    },
    {
      "channel": 0,
      "note": 52,
      "start": 9.8791,
      "duration": 0.1166,
      "velocity": 86,
      "chip": "ym2612"
    },
    {
      "channel": 1,
      "note": 69,
      "start": 9.8794,
      "duration": 0.1164,
      "velocity": 86,
      "chip": "ym2612"
    },
    {
      "channel": 2,
      "note": 80,
      "start": 9.8798,
      "duration": 0.0826,
      "velocity": 86,
      "chip": "ym2612"
    },
    {
      "channel": 4,
      "note": 69,
      "start": 9.8801,
      "duration": 0.0657,
      "velocity": 120,
      "chip": "ym2612"
    },
    {
      "channel": 4,
      "note": 69,
      "start": 9.946,
      "duration": 0.05,
      "velocity": 120,
      "chip": "ym2612"
    },
    {
      "channel": 2,
      "note": 81,
      "start": 9.9626,
      "duration": 0.0832,
      "velocity": 86,
      "chip": "ym2612"
    },
    {
      "channel": 4,
      "note": 69,
      "start": 9.9963,
      "duration": 0.0663,
      "velocity": 120,
      "chip": "ym2612"
    },
    {
      "channel": 3,
      "note": 80,
      "start": 10.0294,
      "duration": 0.0665,
      "velocity": 86,
      "chip": "ym2612"
    },
    {
      "channel": 2,
      "note": 80,
      "start": 10.046,
      "duration": 0.0838,
      "velocity": 86,
      "chip": "ym2612"
    },
    {
      "channel": 4,
      "note": 69,
      "start": 10.0628,
      "duration": 0.0675,
      "velocity": 120,
      "chip": "ym2612"
    },
    {
      "channel": 3,
      "note": 81,
      "start": 10.0961,
      "duration": 0.0832,
      "velocity": 86,
      "chip": "ym2612"
    },
    {
      "channel": 0,
      "note": 52,
      "start": 10.1294,
      "duration": 0.1166,
      "velocity": 86,
      "chip": "ym2612"
    },
    {
      "channel": 1,
      "note": 69,
      "start": 10.1298,
      "duration": 0.1164,
      "velocity": 86,
      "chip": "ym2612"
    },
    {
      "channel": 2,
      "note": 78,
      "start": 10.13,
      "duration": 0.2334,
      "velocity": 86,
      "chip": "ym2612"
    },
    {
      "channel": 4,
      "note": 69,
      "start": 10.1305,
      "duration": 0.2332,
      "velocity": 120,
      "chip": "ym2612"
    },
    {
      "channel": 3,
      "note": 80,
      "start": 10.1796,
      "duration": 0.0832,
      "velocity": 86,
      "chip": "ym2612"
    },
    {
      "channel": 3,
      "note": 78,
      "start": 10.263,
      "duration": 0.2334,
      "velocity": 86,
      "chip": "ym2612"
    },
    {
      "channel": 0,
      "note": 52,
      "start": 10.363,
      "duration": 0.1166,
      "velocity": 86,
      "chip": "ym2612"
    },
    {
      "channel": 1,
      "note": 69,
      "start": 10.3634,
      "duration": 0.1164,
      "velocity": 86,
      "chip": "ym2612"
    },
    {
      "channel": 2,
      "note": 81,
      "start": 10.3637,
      "duration": 0.2334,
      "velocity": 86,
      "chip": "ym2612"
    },
    {
      "channel": 4,
      "note": 69,
      "start": 10.364,
      "duration": 0.2336,
      "velocity": 120,
      "chip": "ym2612"
    },
    {
      "channel": 3,
      "note": 81,
      "start": 10.4966,
      "duration": 0.2501,
      "velocity": 86,
      "chip": "ym2612"
    },
    {
      "channel": 0,
      "note": 45,
      "start": 10.5967,
      "duration": 0.25,
      "velocity": 86,
      "chip": "ym2612"
    },
    {
      "channel": 1,
      "note": 68,
      "start": 10.597,
      "duration": 0.2501,
      "velocity": 86,
      "chip": "ym2612"
    },
    {
      "channel": 2,
      "note": 80,
      "start": 10.5973,
      "duration": 0.2501,
      "velocity": 86,
      "chip": "ym2612"
    },
    {
      "channel": 4,
      "note": 69,
      "start": 10.5978,
      "duration": 0.0656,
      "velocity": 120,
      "chip": "ym2612"
    },
    {
      "channel": 4,
      "note": 69,
      "start": 10.6636,
      "duration": 0.0665,
      "velocity": 120,
      "chip": "ym2612"
    },
    {
      "channel": 4,
      "note": 69,
      "start": 10.7304,
      "duration": 0.0498,
      "velocity": 120,
      "chip": "ym2612"
    },
    {
      "channel": 3,
      "note": 80,
      "start": 10.747,
      "duration": 0.2334,
      "velocity": 86,
      "chip": "ym2612"
    },
    {
      "channel": 4,
      "note": 69,
      "start": 10.7804,
      "duration": 0.0673,
      "velocity": 120,
      "chip": "ym2612"
    },
    {
      "channel": 0,
      "note": 52,
      "start": 10.847,
      "duration": 0.1166,
      "velocity": 86,
      "chip": "ym2612"
    },
    {
      "channel": 1,
      "note": 69,
      "start": 10.8473,
      "duration": 0.1164,
      "velocity": 86,
      "chip": "ym2612"
    },
    {
      "channel": 2,
      "note": 78,
      "start": 10.8476,
      "duration": 0.2334,
      "velocity": 86,
      "chip": "ym2612"
    },
    {
      "channel": 4,
      "note": 69,
      "start": 10.848,
      "duration": 0.049,
      "velocity": 120,
      "chip": "ym2612"
    },
    {
      "channel": 4,
      "note": 69,
      "start": 10.8973,
      "duration": 0.0667,
      "velocity": 120,
      "chip": "ym2612"
    },
    {
      "channel": 4,
      "note": 69,
      "start": 10.9642,
      "duration": 0.0663,
      "velocity": 120,
      "chip": "ym2612"
    },
    {
      "channel": 3,
      "note": 78,
      "start": 10.9806,
      "duration": 0.2501,
      "velocity": 86,
      "chip": "ym2612"
    },
    {
      "channel": 4,
      "note": 69,
      "start": 11.0307,
      "duration": 0.0508,
      "velocity": 120,
      "chip": "ym2612"
    },
    {
      "channel": 0,
      "note": 52,
      "start": 11.0806,
      "duration": 0.1166,
      "velocity": 86,
      "chip": "ym2612"
    },
    {
      "channel": 1,
      "note": 69,
      "start": 11.081,
      "duration": 0.1164,
      "velocity": 86,
      "chip": "ym2612"
    },
    {
      "channel": 2,
      "note": 76,
      "start": 11.0813,
      "duration": 0.3666,
      "velocity": 86,
      "chip": "ym2612"
    },
    {
      "channel": 4,
      "note": 69,
      "start": 11.0818,
      "duration": 0.2497,
      "velocity": 120,
      "chip": "ym2612"
    },
    {
      "channel": 3,
      "note": 76,
      "start": 11.2309,
      "duration": 0.3502,
      "velocity": 86,
      "chip": "ym2612"
    },
    {
      "channel": 0,
      "note": 52,
      "start": 11.3309,
      "duration": 0.1166,
      "velocity": 86,
      "chip": "ym2612"
    },
    {
      "channel": 1,
      "note": 69,
      "start": 11.3313,
      "duration": 0.1164,
      "velocity": 86,
      "chip": "ym2612"
    },
    {
      "channel": 4,
      "note": 69,
      "start": 11.3317,
      "duration": 0.2339,
      "velocity": 120,
      "chip": "ym2612"
    },
    {
      "channel": 2,
      "note": 76,
      "start": 11.448,
      "duration": 0.117,
      "velocity": 86,
      "chip": "ym2612"
    },
    {
      "channel": 0,
      "note": 45,
      "start": 11.5646,
      "duration": 0.2334,
      "velocity": 86,
      "chip": "ym2612"
    },
    {
      "channel": 1,
      "note": 68,
      "start": 11.5649,
      "duration": 0.2334,
      "velocity": 86,
      "chip": "ym2612"
    },
    {
      "channel": 2,
      "note": 75,
      "start": 11.5652,
      "duration": 0.3665,
      "velocity": 86,
      "chip": "ym2612"
    },
    {
      "channel": 4,
      "note": 69,
      "start": 11.5657,
      "duration": 0.0656,
      "velocity": 120,
      "chip": "ym2612"
    },
    {
      "channel": 3,
      "note": 76,
      "start": 11.5814,
      "duration": 0.1166,
      "velocity": 86,
      "chip": "ym2612"
    },
    {
      "channel": 4,
      "note": 69,
      "start": 11.6315,
      "duration": 0.0498,
      "velocity": 120,
      "chip": "ym2612"
    },
    {
      "channel": 4,
      "note": 69,
      "start": 11.6816,
      "duration": 0.0665,
      "velocity": 120,
      "chip": "ym2612"
    },
    {
      "channel": 3,
      "note": 75,
      "start": 11.6982,
      "duration": 0.3669,
      "velocity": 86,
      "chip": "ym2612"
    },
    {
      "channel": 4,
      "note": 69,
      "start": 11.7483,
      "duration": 0.0504,
      "velocity": 120,
      "chip": "ym2612"
    },
    {
      "channel": 0,
      "note": 52,
      "start": 11.7982,
      "duration": 0.1333,
      "velocity": 86,
      "chip": "ym2612"
    },
    {
      "channel": 1,
      "note": 69,
      "start": 11.7986,
      "duration": 0.1331,
      "velocity": 86,
      "chip": "ym2612"
    },
    {
      "channel": 4,
      "note": 69,
      "start": 11.799,
      "duration": 0.0659,
      "velocity": 120,
      "chip": "ym2612"
    },
    {
      "channel": 4,
      "note": 69,
      "start": 11.8652,
      "duration": 0.067,
      "velocity": 120,
      "chip": "ym2612"
    },
    {
      "channel": 2,
      "note": 76,
      "start": 11.932,
      "duration": 0.117,
      "velocity": 86,
      "chip": "ym2612"
    },
    {
      "channel": 4,
      "note": 69,
      "start": 11.9324,
      "duration": 0.0493,
      "velocity": 120,
      "chip": "ym2612"
    },
    {
      "channel": 4,
      "note": 69,
      "start": 11.982,
      "duration": 0.0675,
      "velocity": 120,
      "chip": "ym2612"
    },
    {
      "channel": 0,
      "note": 52,
      "start": 12.0485,
      "duration": 0.1166,
      "velocity": 86,
      "chip": "ym2612"
    },
    {
      "channel": 1,
      "note": 69,
      "start": 12.0489,
      "duration": 0.1164,
      "velocity": 86,
      "chip": "ym2612"
    },
    {
      "channel": 2,
      "note": 76,
      "start": 12.0492,
      "duration": 1.435,
      "velocity": 86,
      "chip": "ym2612"
    },
    {
      "channel": 4,
      "note": 69,
      "start": 12.0497,
      "duration": 0.233,
      "velocity": 120,
      "chip": "ym2612"
    },
    {
      "channel": 3,
      "note": 76,
      "start": 12.0654,
      "duration": 0.1166,
      "velocity": 86,
      "chip": "ym2612"
    },
    {
      "channel": 3,
      "note": 76,
      "start": 12.1822,
      "duration": 1.4516,
      "velocity": 86,
      "chip": "ym2612"
    },
    {
      "channel": 0,
      "note": 52,
      "start": 12.2822,
      "duration": 0.1166,
      "velocity": 86,
      "chip": "ym2612"
    },
    {
      "channel": 1,
      "note": 69,
      "start": 12.2825,
      "duration": 0.1164,
      "velocity": 86,
      "chip": "ym2612"
    },
    {
      "channel": 4,
      "note": 69,
      "start": 12.2829,
      "duration": 0.2503,
      "velocity": 120,
      "chip": "ym2612"
    },
    {
      "channel": 0,
      "note": 45,
      "start": 12.5325,
      "duration": 0.2334,
      "velocity": 86,
      "chip": "ym2612"
    },
    {
      "channel": 1,
      "note": 68,
      "start": 12.5329,
      "duration": 0.2334,
      "velocity": 86,
      "chip": "ym2612"
    },
    {
      "channel": 4,
      "note": 69,
      "start": 12.5334,
      "duration": 0.0491,
      "velocity": 120,
      "chip": "ym2612"
    },
    {
      "channel": 4,
      "note": 69,
      "start": 12.5827,
      "duration": 0.0665,
      "velocity": 120,
      "chip": "ym2612"
    },
    {
      "channel": 4,
      "note": 69,
      "start": 12.6495,
      "duration": 0.0498,
      "velocity": 120,
      "chip": "ym2612"
    },
    {
      "channel": 4,
      "note": 69,
      "start": 12.6996,
      "duration": 0.0671,
      "velocity": 120,
      "chip": "ym2612"
    },
    {
      "channel": 0,
      "note": 52,
      "start": 12.7661,
      "duration": 0.1166,
      "velocity": 86,
      "chip": "ym2612"
    },
    {
      "channel": 1,
      "note": 69,
      "start": 12.7665,
      "duration": 0.1164,
      "velocity": 86,
      "chip": "ym2612"
    },
    {
      "channel": 4,
      "note": 69,
      "start": 12.7669,
      "duration": 0.0659,
      "velocity": 120,
      "chip": "ym2612"
    },
    {
      "channel": 4,
      "note": 69,
      "start": 12.8331,
      "duration": 0.05,
      "velocity": 120,
      "chip": "ym2612"
    },
    {
      "channel": 4,
      "note": 69,
      "start": 12.8833,
      "duration": 0.0663,
      "velocity": 120,
      "chip": "ym2612"
    },
    {
      "channel": 4,
      "note": 69,
      "start": 12.9499,
      "duration": 0.0505,
      "velocity": 120,
      "chip": "ym2612"
    },
    {
      "channel": 0,
      "note": 52,
      "start": 12.9998,
      "duration": 0.1333,
      "velocity": 86,
      "chip": "ym2612"
    },
    {
      "channel": 1,
      "note": 69,
      "start": 13.0001,
      "duration": 0.1331,
      "velocity": 86,
      "chip": "ym2612"
    },
    {
      "channel": 4,
      "note": 69,
      "start": 13.0006,
      "duration": 0.2499,
      "velocity": 120,
      "chip": "ym2612"
    },
    {
      "channel": 0,
      "note": 52,
      "start": 13.2501,
      "duration": 0.1166,
      "velocity": 86,
      "chip": "ym2612"
    },
    {
      "channel": 1,
      "note": 69,
      "start": 13.2504,
      "duration": 0.1164,
      "velocity": 86,
      "chip": "ym2612"
    },
    {
      "channel": 4,
      "note": 69,
      "start": 13.2508,
      "duration": 0.2337,
      "velocity": 120,
      "chip": "ym2612"
    },
    {
      "channel": 0,
      "note": 45,
      "start": 13.4837,
      "duration": 0.2501,
      "velocity": 86,
      "chip": "ym2612"
    },
    {
      "channel": 1,
      "note": 68,
      "start": 13.4841,
      "duration": 0.2501,
      "velocity": 86,
      "chip": "ym2612"
    },
    {
      "channel": 4,
      "note": 69,
      "start": 13.4847,
      "duration": 0.0657,
      "velocity": 120,
      "chip": "ym2612"
    },
    {
      "channel": 4,
      "note": 69,
      "start": 13.5507,
      "duration": 0.0498,
      "velocity": 120,
      "chip": "ym2612"
    },
    {
      "channel": 4,
      "note": 69,
      "start": 13.6007,
      "duration": 0.0665,
      "velocity": 120,
      "chip": "ym2612"
    },
    {
      "channel": 4,
      "note": 69,
      "start": 13.6675,
      "duration": 0.0671,
      "velocity": 120,
      "chip": "ym2612"
    },
    {
      "channel": 0,
      "note": 52,
      "start": 13.734,
      "duration": 0.1166,
      "velocity": 86,
      "chip": "ym2612"
    },
    {
      "channel": 1,
      "note": 69,
      "start": 13.7344,
      "duration": 0.1164,
      "velocity": 86,
      "chip": "ym2612"
    },
    {
      "channel": 4,
      "note": 69,
      "start": 13.7348,
      "duration": 0.0493,
      "velocity": 120,
      "chip": "ym2612"
    },
    {
      "channel": 4,
      "note": 69,
      "start": 13.7843,
      "duration": 0.0667,
      "velocity": 120,
      "chip": "ym2612"
    },
    {
      "channel": 4,
      "note": 69,
      "start": 13.8512,
      "duration": 0.0496,
      "velocity": 120,
      "chip": "ym2612"
    },
    {
      "channel": 4,
      "note": 69,
      "start": 13.9011,
      "duration": 0.0686,
      "velocity": 120,
      "chip": "ym2612"
    },
    {
      "channel": 0,
      "note": 52,
      "start": 13.9677,
      "duration": 0.1166,
      "velocity": 86,
      "chip": "ym2612"
    },
    {
      "channel": 1,
      "note": 69,
      "start": 13.968,
      "duration": 0.1164,
      "velocity": 86,
      "chip": "ym2612"
    },
    {
      "channel": 2,
      "note": 76,
      "start": 13.9695,
      "duration": 0.0815,
      "velocity": 98,
      "chip": "ym2612"
    },
    {
      "channel": 4,
      "note": 69,
      "start": 13.9699,
      "duration": 0.232,
      "velocity": 120,
      "chip": "ym2612"
    },
    {
      "channel": 3,
      "note": 76,
      "start": 14.1024,
      "duration": 0.0821,
      "velocity": 98,
      "chip": "ym2612"
    },
    {
      "channel": 2,
      "note": 73,
      "start": 14.1346,
      "duration": 0.0671,
      "velocity": 98,
      "chip": "ym2612"
    },
    {
      "channel": 0,
      "note": 52,
      "start": 14.2013,
      "duration": 0.1333,
      "velocity": 86,
      "chip": "ym2612"
    },
    {
      "channel": 1,
      "note": 69,
      "start": 14.2017,
      "duration": 0.1331,
      "velocity": 86,
      "chip": "ym2612"
    },
    {
      "channel": 4,
      "note": 69,
      "start": 14.2021,
      "duration": 0.2504,
      "velocity": 120,
      "chip": "ym2612"
    },
    {
      "channel": 3,
      "note": 73,
      "start": 14.2682,
      "duration": 0.0832,
      "velocity": 98,
      "chip": "ym2612"
    },
    {
      "channel": 2,
      "note": 69,
      "start": 14.2848,
      "duration": 0.0832,
      "velocity": 98,
      "chip": "ym2612"
    },
    {
      "channel": 3,
      "note": 69,
      "start": 14.435,
      "duration": 0.0666,
      "velocity": 98,
      "chip": "ym2612"
    },
    {
      "channel": 0,
      "note": 45,
      "start": 14.4517,
      "duration": 0.2334,
      "velocity": 86,
      "chip": "ym2612"
    },
    {
      "channel": 1,
      "note": 68,
      "start": 14.452,
      "duration": 0.2334,
      "velocity": 86,
      "chip": "ym2612"
    },
    {
      "channel": 2,
      "note": 64,
      "start": 14.4523,
      "duration": 0.7184,
      "velocity": 86,
      "chip": "ym2612"
    },
    {
      "channel": 4,
      "note": 69,
      "start": 14.4528,
      "duration": 0.049,
      "velocity": 120,
      "chip": "ym2612"
    },
    {
      "channel": 4,
      "note": 69,
      "start": 14.502,
      "duration": 0.0664,
      "velocity": 120,
      "chip": "ym2612"
    },
    {
      "channel": 4,
      "note": 69,
      "start": 14.5686,
      "duration": 0.0665,
      "velocity": 120,
      "chip": "ym2612"
    },
    {
      "channel": 3,
      "note": 64,
      "start": 14.5853,
      "duration": 0.7184,
      "velocity": 86,
      "chip": "ym2612"
    },
    {
      "channel": 4,
      "note": 69,
      "start": 14.6354,
      "duration": 0.0504,
      "velocity": 120,
      "chip": "ym2612"
    },
    {
      "channel": 0,
      "note": 52,
      "start": 14.6853,
      "duration": 0.1166,
      "velocity": 86,
      "chip": "ym2612"
    },
    {
      "channel": 1,
      "note": 69,
      "start": 14.6856,
      "duration": 0.1164,
      "velocity": 86,
      "chip": "ym2612"
    },
    {
      "channel": 4,
      "note": 69,
      "start": 14.6861,
      "duration": 0.0659,
      "velocity": 120,
      "chip": "ym2612"
    },
    {
      "channel": 4,
      "note": 69,
      "start": 14.7522,
      "duration": 0.05,
      "velocity": 120,
      "chip": "ym2612"
    },
    {
      "channel": 4,
      "note": 69,
      "start": 14.8025,
      "duration": 0.0663,
      "velocity": 120,
      "chip": "ym2612"
    },
    {
      "channel": 4,
      "note": 69,
      "start": 14.869,
      "duration": 0.0672,
      "velocity": 120,
      "chip": "ym2612"
    },
    {
      "channel": 0,
      "note": 52,
      "start": 14.9356,
      "duration": 0.1166,
      "velocity": 86,
      "chip": "ym2612"
    },
    {
      "channel": 1,
      "note": 69,
      "start": 14.9359,
      "duration": 0.1164,
      "velocity": 86,
      "chip": "ym2612"
    },
    {
      "channel": 4,
      "note": 69,
      "start": 14.9365,
      "duration": 0.2346,
      "velocity": 120,
      "chip": "ym2612"
    },
    {
      "channel": 0,
      "note": 52,
      "start": 15.1692,
      "duration": 0.1166,
      "velocity": 86,
      "chip": "ym2612"
    },
    {
      "channel": 1,
      "note": 69,
      "start": 15.1696,
      "duration": 0.1164,
      "velocity": 86,
      "chip": "ym2612"
    },
    {
      "channel": 2,
      "note": 76,
      "start": 15.1709,
      "duration": 0.2333,
      "velocity": 86,
      "chip": "ym2612"
    },
    {
      "channel": 4,
      "note": 69,
      "start": 15.1712,
      "duration": 0.2335,
      "velocity": 120,
      "chip": "ym2612"
    },
    {
      "channel": 3,
      "note": 76,
      "start": 15.3039,
      "duration": 0.25,
      "velocity": 86,
      "chip": "ym2612"
    },
    {
      "channel": 0,
      "note": 45,
      "start": 15.4029,
      "duration": 0.25,
      "velocity": 86,
      "chip": "ym2612"
    },
    {
      "channel": 1,
      "note": 68,
      "start": 15.4032,
      "duration": 0.2501,
      "velocity": 86,
      "chip": "ym2612"
    },
    {
      "channel": 2,
      "note": 80,
      "start": 15.4045,
      "duration": 0.2491,
      "velocity": 86,
      "chip": "ym2612"
    },
    {
      "channel": 4,
      "note": 69,
      "start": 15.405,
      "duration": 0.0646,
      "velocity": 120,
      "chip": "ym2612"
    },
    {
      "channel": 4,
      "note": 69,
      "start": 15.4698,
      "duration": 0.0665,
      "velocity": 120,
      "chip": "ym2612"
    },
    {
      "channel": 4,
      "note": 69,
      "start": 15.5366,
      "duration": 0.0498,
      "velocity": 120,
      "chip": "ym2612"
    },
    {
      "channel": 3,
      "note": 80,
      "start": 15.5542,
      "duration": 0.2324,
      "velocity": 86,
      "chip": "ym2612"
    },
    {
      "channel": 4,
      "note": 69,
      "start": 15.5866,
      "duration": 0.0673,
      "velocity": 120,
      "chip": "ym2612"
    },
    {
      "channel": 0,
      "note": 52,
      "start": 15.6532,
      "duration": 0.1166,
      "velocity": 86,
      "chip": "ym2612"
    },
    {
      "channel": 1,
      "note": 69,
      "start": 15.6535,
      "duration": 0.1164,
      "velocity": 86,
      "chip": "ym2612"
    },
    {
      "channel": 2,
      "note": 81,
      "start": 15.6538,
      "duration": 0.2334,
      "velocity": 86,
      "chip": "ym2612"
    },
    {
      "channel": 4,
      "note": 69,
      "start": 15.6542,
      "duration": 0.049,
      "velocity": 120,
      "chip": "ym2612"
    },
    {
      "channel": 4,
      "note": 69,
      "start": 15.7034,
      "duration": 0.0667,
      "velocity": 120,
      "chip": "ym2612"
    },
    {
      "channel": 4,
      "note": 69,
      "start": 15.7704,
      "duration": 0.0663,
      "velocity": 120,
      "chip": "ym2612"
    },
    {
      "channel": 3,
      "note": 81,
      "start": 15.7868,
      "duration": 0.2501,
      "velocity": 86,
      "chip": "ym2612"
    },
    {
      "channel": 4,
      "note": 69,
      "start": 15.8369,
      "duration": 0.0508,
      "velocity": 120,
      "chip": "ym2612"
    },
    {
      "channel": 0,
      "note": 52,
      "start": 15.8868,
      "duration": 0.1166,
      "velocity": 86,
      "chip": "ym2612"
    },
    {
      "channel": 1,
      "note": 69,
      "start": 15.8872,
      "duration": 0.1164,
      "velocity": 86,
      "chip": "ym2612"
    },
    {
      "channel": 2,
      "note": 83,
      "start": 15.8874,
      "duration": 0.2501,
      "velocity": 86,
      "chip": "ym2612"
    },
    {
      "channel": 4,
      "note": 69,
      "start": 15.8879,
      "duration": 0.2499,
      "velocity": 120,
      "chip": "ym2612"
    },
    {
      "channel": 3,
      "note": 83,
      "start": 16.0371,
      "duration": 0.2334,
      "velocity": 86,
      "chip": "ym2612"
    },
    {
      "channel": 0,
      "note": 52,
      "start": 16.1371,
      "duration": 0.1166,
      "velocity": 86,
      "chip": "ym2612"
    },
    {
      "channel": 1,
      "note": 69,
      "start": 16.1375,
      "duration": 0.1164,
      "velocity": 86,
      "chip": "ym2612"
    },
    {
      "channel": 2,
      "note": 85,
      "start": 16.1378,
      "duration": 0.2334,
      "velocity": 86,
      "chip": "ym2612"
    },
    {
      "channel": 4,
      "note": 69,
      "start": 16.1381,
      "duration": 0.2336,
      "velocity": 120,
      "chip": "ym2612"
    },
    {
      "channel": 3,
      "note": 85,
      "start": 16.2707,
      "duration": 0.2334,
      "velocity": 86,
      "chip": "ym2612"
    },
    {
      "channel": 0,
      "note": 45,
      "start": 16.3708,
      "duration": 0.2334,
      "velocity": 86,
      "chip": "ym2612"
    },
    {
      "channel": 1,
      "note": 68,
      "start": 16.3711,
      "duration": 0.2334,
      "velocity": 86,
      "chip": "ym2612"
    },
    {
      "channel": 2,
      "note": 83,
      "start": 16.3714,
      "duration": 0.2334,
      "velocity": 86,
      "chip": "ym2612"
    },
    {
      "channel": 4,
      "note": 69,
      "start": 16.3719,
      "duration": 0.0656,
      "velocity": 120,
      "chip": "ym2612"
    },
    {
      "channel": 4,
      "note": 69,
      "start": 16.4377,
      "duration": 0.0498,
      "velocity": 120,
      "chip": "ym2612"
    },
    {
      "channel": 4,
      "note": 69,
      "start": 16.4878,
      "duration": 0.0665,
      "velocity": 120,
      "chip": "ym2612"
    },
    {
      "channel": 3,
      "note": 83,
      "start": 16.5044,
      "duration": 0.2501,
      "velocity": 86,
      "chip": "ym2612"
    },
    {
      "channel": 4,
      "note": 69,
      "start": 16.5545,
      "duration": 0.0507,
      "velocity": 120,
      "chip": "ym2612"
    },
    {
      "channel": 0,
      "note": 52,
      "start": 16.6044,
      "duration": 0.1333,
      "velocity": 86,
      "chip": "ym2612"
    },
    {
      "channel": 1,
      "note": 69,
      "start": 16.6048,
      "duration": 0.1331,
      "velocity": 86,
      "chip": "ym2612"
    },
    {
      "channel": 2,
      "note": 81,
      "start": 16.6051,
      "duration": 0.0827,
      "velocity": 86,
      "chip": "ym2612"
    },
    {
      "channel": 4,
      "note": 69,
      "start": 16.6054,
      "duration": 0.0657,
      "velocity": 120,
      "chip": "ym2612"
    },
    {
      "channel": 4,
      "note": 69,
      "start": 16.6714,
      "duration": 0.0667,
      "velocity": 120,
      "chip": "ym2612"
    },
    {
      "channel": 2,
      "note": 83,
      "start": 16.6879,
      "duration": 0.0832,
      "velocity": 86,
      "chip": "ym2612"
    },
    {
      "channel": 4,
      "note": 69,
      "start": 16.7383,
      "duration": 0.0496,
      "velocity": 120,
      "chip": "ym2612"
    },
    {
      "channel": 3,
      "note": 81,
      "start": 16.7547,
      "duration": 0.0832,
      "velocity": 86,
      "chip": "ym2612"
    },
    {
      "channel": 2,
      "note": 81,
      "start": 16.7713,
      "duration": 0.0838,
      "velocity": 86,
      "chip": "ym2612"
    },
    {
      "channel": 4,
      "note": 69,
      "start": 16.7882,
      "duration": 0.0675,
      "velocity": 120,
      "chip": "ym2612"
    },
    {
      "channel": 3,
      "note": 83,
      "start": 16.8381,
      "duration": 0.0666,
      "velocity": 86,
      "chip": "ym2612"
    },
    {
      "channel": 0,
      "note": 52,
      "start": 16.8547,
      "duration": 0.1166,
      "velocity": 86,
      "chip": "ym2612"
    },
    {
      "channel": 1,
      "note": 69,
      "start": 16.8551,
      "duration": 0.1164,
      "velocity": 86,
      "chip": "ym2612"
    },
    {
      "channel": 2,
      "note": 80,
      "start": 16.8554,
      "duration": 0.2334,
      "velocity": 86,
      "chip": "ym2612"
    },
    {
      "channel": 4,
      "note": 69,
      "start": 16.8559,
      "duration": 0.2332,
      "velocity": 120,
      "chip": "ym2612"
    },
    {
      "channel": 3,
      "note": 81,
      "start": 16.9049,
      "duration": 0.0832,
      "velocity": 86,
      "chip": "ym2612"
    },
    {
      "channel": 3,
      "note": 80,
      "start": 16.9883,
      "duration": 0.2501,
      "velocity": 86,
      "chip": "ym2612"
    },
    {
      "channel": 0,
      "note": 52,
      "start": 17.0883,
      "duration": 0.1166,
      "velocity": 86,
      "chip": "ym2612"
    },
    {
      "channel": 1,
      "note": 69,
      "start": 17.0887,
      "duration": 0.1164,
      "velocity": 86,
      "chip": "ym2612"
    },
    {
      "channel": 2,
      "note": 83,
      "start": 17.089,
      "duration": 0.2501,
      "velocity": 86,
      "chip": "ym2612"
    },
    {
      "channel": 4,
      "note": 69,
      "start": 17.0893,
      "duration": 0.2503,
      "velocity": 120,
      "chip": "ym2612"
    },
    {
      "channel": 3,
      "note": 83,
      "start": 17.2387,
      "duration": 0.2334,
      "velocity": 86,
      "chip": "ym2612"
    },
    {
      "channel": 0,
      "note": 45,
      "start": 17.3387,
      "duration": 0.2334,
      "velocity": 86,
      "chip": "ym2612"
    },
    {
      "channel": 1,
      "note": 68,
      "start": 17.339,
      "duration": 0.2334,
      "velocity": 86,
      "chip": "ym2612"
    },
    {
      "channel": 2,
      "note": 81,
      "start": 17.3393,
      "duration": 0.2334,
      "velocity": 86,
      "chip": "ym2612"
    },
    {
      "channel": 4,
      "note": 69,
      "start": 17.3398,
      "duration": 0.0489,
      "velocity": 120,
      "chip": "ym2612"
    },
    {
      "channel": 4,
      "note": 69,
      "start": 17.3889,
      "duration": 0.0665,
      "velocity": 120,
      "chip": "ym2612"
    },
    {
      "channel": 4,
      "note": 69,
      "start": 17.4557,
      "duration": 0.0498,
      "velocity": 120,
      "chip": "ym2612"
    },
    {
      "channel": 3,
      "note": 81,
      "start": 17.4723,
      "duration": 0.2334,
      "velocity": 86,
      "chip": "ym2612"
    },
    {
      "channel": 4,
      "note": 69,
      "start": 17.5058,
      "duration": 0.0674,
      "velocity": 120,
      "chip": "ym2612"
    },
    {
      "channel": 0,
      "note": 52,
      "start": 17.5723,
      "duration": 0.1166,
      "velocity": 86,
      "chip": "ym2612"
    },
    {
      "channel": 1,
      "note": 69,
      "start": 17.5727,
      "duration": 0.1164,
      "velocity": 86,
      "chip": "ym2612"
    },
    {
      "channel": 2,
      "note": 80,
      "start": 17.573,
      "duration": 0.0826,
      "velocity": 86,
      "chip": "ym2612"
    },
    {
      "channel": 4,
      "note": 69,
      "start": 17.5734,
      "duration": 0.0657,
      "velocity": 120,
      "chip": "ym2612"
    },
    {
      "channel": 4,
      "note": 69,
      "start": 17.6393,
      "duration": 0.05,
      "velocity": 120,
      "chip": "ym2612"
    },
    {
      "channel": 2,
      "note": 81,
      "start": 17.6558,
      "duration": 0.0832,
      "velocity": 86,
      "chip": "ym2612"
    },
    {
      "channel": 4,
      "note": 69,
      "start": 17.6895,
      "duration": 0.0663,
      "velocity": 120,
      "chip": "ym2612"
    },
    {
      "channel": 3,
      "note": 80,
      "start": 17.7059,
      "duration": 0.0832,
      "velocity": 86,
      "chip": "ym2612"
    },
    {
      "channel": 2,
      "note": 80,
      "start": 17.7393,
      "duration": 0.0671,
      "velocity": 86,
      "chip": "ym2612"
    },
    {
      "channel": 4,
      "note": 69,
      "start": 17.7561,
      "duration": 0.0508,
      "velocity": 120,
      "chip": "ym2612"
    },
    {
      "channel": 3,
      "note": 81,
      "start": 17.7894,
      "duration": 0.0832,
      "velocity": 86,
      "chip": "ym2612"
    },
    {
      "channel": 0,
      "note": 52,
      "start": 17.8059,
      "duration": 0.1333,
      "velocity": 86,
      "chip": "ym2612"
    },
    {
      "channel": 1,
      "note": 69,
      "start": 17.8063,
      "duration": 0.1331,
      "velocity": 86,
      "chip": "ym2612"
    },
    {
      "channel": 2,
      "note": 78,
      "start": 17.8066,
      "duration": 0.2501,
      "velocity": 86,
      "chip": "ym2612"
    },
    {
      "channel": 4,
      "note": 69,
      "start": 17.8071,
      "duration": 0.2499,
      "velocity": 120,
      "chip": "ym2612"
    },
    {
      "channel": 3,
      "note": 80,
      "start": 17.8728,
      "duration": 0.0832,
      "velocity": 86,
      "chip": "ym2612"
    },
    {
      "channel": 3,
      "note": 78,
      "start": 17.9563,
      "duration": 0.2334,
      "velocity": 86,
      "chip": "ym2612"
    },
    {
      "channel": 0,
      "note": 52,
      "start": 18.0563,
      "duration": 0.1166,
      "velocity": 86,
      "chip": "ym2612"
    },
    {
      "channel": 1,
      "note": 69,
      "start": 18.0566,
      "duration": 0.1164,
      "velocity": 86,
      "chip": "ym2612"
    },
    {
      "channel": 2,
      "note": 81,
      "start": 18.0569,
      "duration": 0.2334,
      "velocity": 86,
      "chip": "ym2612"
    },
    {
      "channel": 4,
      "note": 69,
      "start": 18.0572,
      "duration": 0.2336,
      "velocity": 120,
      "chip": "ym2612"
    },
    {
      "channel": 3,
      "note": 81,
      "start": 18.1899,
      "duration": 0.2501,
      "velocity": 86,
      "chip": "ym2612"
    },
    {
      "channel": 0,
      "note": 45,
      "start": 18.29,
      "duration": 0.25,
      "velocity": 86,
      "chip": "ym2612"
    },
    {
      "channel": 1,
      "note": 68,
      "start": 18.2903,
      "duration": 0.2501,
      "velocity": 86,
      "chip": "ym2612"
    },
    {
      "channel": 2,
      "note": 80,
      "start": 18.2906,
      "duration": 0.2501,
      "velocity": 86,
      "chip": "ym2612"
    },
    {
      "channel": 4,
      "note": 69,
      "start": 18.2911,
      "duration": 0.0656,
      "velocity": 120,
      "chip": "ym2612"
    },
    {
      "channel": 4,
      "note": 69,
      "start": 18.3568,
      "duration": 0.0498,
      "velocity": 120,
      "chip": "ym2612"
    },
    {
      "channel": 4,
      "note": 69,
      "start": 18.4069,
      "duration": 0.0665,
      "velocity": 120,
      "chip": "ym2612"
    },
    {
      "channel": 3,
      "note": 80,
      "start": 18.4402,
      "duration": 0.2334,
      "velocity": 86,
      "chip": "ym2612"
    },
    {
      "channel": 4,
      "note": 69,
      "start": 18.4737,
      "duration": 0.0673,
      "velocity": 120,
      "chip": "ym2612"
    },
    {
      "channel": 0,
      "note": 52,
      "start": 18.5402,
      "duration": 0.1166,
      "velocity": 86,
      "chip": "ym2612"
    },
    {
      "channel": 1,
      "note": 69,
      "start": 18.5406,
      "duration": 0.1164,
      "velocity": 86,
      "chip": "ym2612"
    },
    {
      "channel": 2,
      "note": 78,
      "start": 18.5409,
      "duration": 0.2334,
      "velocity": 86,
      "chip": "ym2612"
    },
    {
      "channel": 4,
      "note": 69,
      "start": 18.5412,
      "duration": 0.049,
      "velocity": 120,
      "chip": "ym2612"
    },
    {
      "channel": 4,
      "note": 69,
      "start": 18.5905,
      "duration": 0.0667,
      "velocity": 120,
      "chip": "ym2612"
    },
    {
      "channel": 4,
      "note": 69,
      "start": 18.6574,
      "duration": 0.0496,
      "velocity": 120,
      "chip": "ym2612"
    },
    {
      "channel": 3,
      "note": 78,
      "start": 18.6738,
      "duration": 0.2334,
      "velocity": 86,
      "chip": "ym2612"
    },
    {
      "channel": 4,
      "note": 69,
      "start": 18.7073,
      "duration": 0.0675,
      "velocity": 120,
      "chip": "ym2612"
    },
    {
      "channel": 0,
      "note": 52,
      "start": 18.7739,
      "duration": 0.1166,
      "velocity": 86,
      "chip": "ym2612"
    },
    {
      "channel": 1,
      "note": 69,
      "start": 18.7742,
      "duration": 0.1164,
      "velocity": 86,
      "chip": "ym2612"
    },
    {
      "channel": 2,
      "note": 76,
      "start": 18.7745,
      "duration": 0.3666,
      "velocity": 86,
      "chip": "ym2612"
    },
    {
      "channel": 4,
      "note": 69,
      "start": 18.775,
      "duration": 0.233,
      "velocity": 120,
      "chip": "ym2612"
    },
    {
      "channel": 3,
      "note": 76,
      "start": 18.9075,
      "duration": 0.3669,
      "velocity": 86,
      "chip": "ym2612"
    },
    {
      "channel": 0,
      "note": 52,
      "start": 19.0075,
      "duration": 0.1333,
      "velocity": 86,
      "chip": "ym2612"
    },
    {
      "channel": 1,
      "note": 69,
      "start": 19.0078,
      "duration": 0.1331,
      "velocity": 86,
      "chip": "ym2612"
    },
    {
      "channel": 4,
      "note": 69,
      "start": 19.0082,
      "duration": 0.2505,
      "velocity": 120,
      "chip": "ym2612"
    },
    {
      "channel": 2,
      "note": 76,
      "start": 19.1413,
      "duration": 0.117,
      "velocity": 86,
      "chip": "ym2612"
    },
    {
      "channel": 0,
      "note": 45,
      "start": 19.2578,
      "duration": 0.2334,
      "velocity": 86,
      "chip": "ym2612"
    },
    {
      "channel": 1,
      "note": 68,
      "start": 19.2582,
      "duration": 0.2334,
      "velocity": 86,
      "chip": "ym2612"
    },
    {
      "channel": 2,
      "note": 75,
      "start": 19.2585,
      "duration": 0.3498,
      "velocity": 86,
      "chip": "ym2612"
    },
    {
      "channel": 4,
      "note": 69,
      "start": 19.259,
      "duration": 0.0489,
      "velocity": 120,
      "chip": "ym2612"
    },
    {
      "channel": 3,
      "note": 76,
      "start": 19.2746,
      "duration": 0.1166,
      "velocity": 86,
      "chip": "ym2612"
    },
    {
      "channel": 4,
      "note": 69,
      "start": 19.3081,
      "duration": 0.0665,
      "velocity": 120,
      "chip": "ym2612"
    },
    {
      "channel": 4,
      "note": 69,
      "start": 19.3748,
      "duration": 0.0665,
      "velocity": 120,
      "chip": "ym2612"
    },
    {
      "channel": 3,
      "note": 75,
      "start": 19.3915,
      "duration": 0.3669,
      "velocity": 86,
      "chip": "ym2612"
    },
    {
      "channel": 4,
      "note": 69,
      "start": 19.4416,
      "duration": 0.0504,
      "velocity": 120,
      "chip": "ym2612"
    },
    {
      "channel": 0,
      "note": 52,
      "start": 19.4915,
      "duration": 0.1166,
      "velocity": 86,
      "chip": "ym2612"
    },
    {
      "channel": 1,
      "note": 69,
      "start": 19.4918,
      "duration": 0.1164,
      "velocity": 86,
      "chip": "ym2612"
    },
    {
      "channel": 4,
      "note": 69,
      "start": 19.4922,
      "duration": 0.0659,
      "velocity": 120,
      "chip": "ym2612"
    },
    {
      "channel": 4,
      "note": 69,
      "start": 19.5584,
      "duration": 0.0503,
      "velocity": 120,
      "chip": "ym2612"
    },
    {
      "channel": 2,
      "note": 76,
      "start": 19.6085,
      "duration": 0.1337,
      "velocity": 86,
      "chip": "ym2612"
    },
    {
      "channel": 4,
      "note": 69,
      "start": 19.6089,
      "duration": 0.0661,
      "velocity": 120,
      "chip": "ym2612"
    },
    {
      "channel": 4,
      "note": 69,
      "start": 19.6752,
      "duration": 0.0675,
      "velocity": 120,
      "chip": "ym2612"
    },
    {
      "channel": 0,
      "note": 52,
      "start": 19.7418,
      "duration": 0.1166,
      "velocity": 86,
      "chip": "ym2612"
    },
    {
      "channel": 1,
      "note": 69,
      "start": 19.7421,
      "duration": 0.1164,
      "velocity": 86,
      "chip": "ym2612"
    },
    {
      "channel": 2,
      "note": 76,
      "start": 19.7424,
      "duration": 1.435,
      "velocity": 86,
      "chip": "ym2612"
    },
    {
      "channel": 4,
      "note": 69,
      "start": 19.7429,
      "duration": 0.233,
      "velocity": 120,
      "chip": "ym2612"
    },
    {
      "channel": 3,
      "note": 76,
      "start": 19.7586,
      "duration": 0.1166,
      "velocity": 86,
      "chip": "ym2612"
    },
    {
      "channel": 3,
      "note": 76,
      "start": 19.8754,
      "duration": 1.4349,
      "velocity": 86,
      "chip": "ym2612"
    },
    {
      "channel": 0,
      "note": 52,
      "start": 19.9754,
      "duration": 0.1166,
      "velocity": 86,
      "chip": "ym2612"
    },
    {
      "channel": 1,
      "note": 69,
      "start": 19.9758,
      "duration": 0.1164,
      "velocity": 86,
      "chip": "ym2612"
    },
    {
      "channel": 4,
      "note": 69,
      "start": 19.9761,
      "duration": 0.2336,
      "velocity": 120,
      "chip": "ym2612"
    },
    {
      "channel": 0,
      "note": 45,
      "start": 20.2091,
      "duration": 0.2501,
      "velocity": 86,
      "chip": "ym2612"
    },
    {
      "channel": 1,
      "note": 68,
      "start": 20.2094,
      "duration": 0.2501,
      "velocity": 86,
      "chip": "ym2612"
    },
    {
      "channel": 4,
      "note": 69,
      "start": 20.21,
      "duration": 0.0658,
      "velocity": 120,
      "chip": "ym2612"
    },
    {
      "channel": 4,
      "note": 69,
      "start": 20.276,
      "duration": 0.0665,
      "velocity": 120,
      "chip": "ym2612"
    },
    {
      "channel": 4,
      "note": 69,
      "start": 20.3427,
      "duration": 0.0498,
      "velocity": 120,
      "chip": "ym2612"
    },
    {
      "channel": 4,
      "note": 69,
      "start": 20.3928,
      "duration": 0.0671,
      "velocity": 120,
      "chip": "ym2612"
    },
    {
      "channel": 0,
      "note": 52,
      "start": 20.4594,
      "duration": 0.1166,
      "velocity": 86,
      "chip": "ym2612"
    },
    {
      "channel": 1,
      "note": 69,
      "start": 20.4597,
      "duration": 0.1164,
      "velocity": 86,
      "chip": "ym2612"
    },
    {
      "channel": 4,
      "note": 69,
      "start": 20.4602,
      "duration": 0.0492,
      "velocity": 120,
      "chip": "ym2612"
    },
    {
      "channel": 4,
      "note": 69,
      "start": 20.5096,
      "duration": 0.0667,
      "velocity": 120,
      "chip": "ym2612"
    },
    {
      "channel": 4,
      "note": 69,
      "start": 20.5766,
      "duration": 0.0663,
      "velocity": 120,
      "chip": "ym2612"
    },
    {
      "channel": 4,
      "note": 69,
      "start": 20.6431,
      "duration": 0.0505,
      "velocity": 120,
      "chip": "ym2612"
    },
    {
      "channel": 0,
      "note": 52,
      "start": 20.693,
      "duration": 0.1166,
      "velocity": 86,
      "chip": "ym2612"
    },
    {
      "channel": 1,
      "note": 69,
      "start": 20.6934,
      "duration": 0.1164,
      "velocity": 86,
      "chip": "ym2612"
    },
    {
      "channel": 4,
      "note": 69,
      "start": 20.6939,
      "duration": 0.2499,
      "velocity": 120,
      "chip": "ym2612"
    },
    {
      "channel": 0,
      "note": 52,
      "start": 20.9433,
      "duration": 0.1166,
      "velocity": 86,
      "chip": "ym2612"
    },
    {
      "channel": 1,
      "note": 69,
      "start": 20.9437,
      "duration": 0.1164,
      "velocity": 86,
      "chip": "ym2612"
    },
    {
      "channel": 4,
      "note": 69,
      "start": 20.944,
      "duration": 0.2337,
      "velocity": 120,
      "chip": "ym2612"
    },
    {
      "channel": 0,
      "note": 45,
      "start": 21.177,
      "duration": 0.2334,
      "velocity": 86,
      "chip": "ym2612"
    },
    {
      "channel": 1,
      "note": 68,
      "start": 21.1773,
      "duration": 0.2334,
      "velocity": 86,
      "chip": "ym2612"
    },
    {
      "channel": 4,
      "note": 69,
      "start": 21.178,
      "duration": 0.0657,
      "velocity": 120,
      "chip": "ym2612"
    },
    {
      "channel": 4,
      "note": 69,
      "start": 21.2439,
      "duration": 0.0498,
      "velocity": 120,
      "chip": "ym2612"
    },
    {
      "channel": 4,
      "note": 69,
      "start": 21.294,
      "duration": 0.0665,
      "velocity": 120,
      "chip": "ym2612"
    },
    {
      "channel": 4,
      "note": 69,
      "start": 21.3607,
      "duration": 0.0504,
      "velocity": 120,
      "chip": "ym2612"
    },
    {
      "channel": 0,
      "note": 52,
      "start": 21.4106,
      "duration": 0.1333,
      "velocity": 86,
      "chip": "ym2612"
    },
    {
      "channel": 1,
      "note": 69,
      "start": 21.411,
      "duration": 0.1331,
      "velocity": 86,
      "chip": "ym2612"
    },
    {
      "channel": 4,
      "note": 69,
      "start": 21.4114,
      "duration": 0.0659,
      "velocity": 120,
      "chip": "ym2612"
    },
    {
      "channel": 4,
      "note": 69,
      "start": 21.4775,
      "duration": 0.0667,
      "velocity": 120,
      "chip": "ym2612"
    },
    {
      "channel": 4,
      "note": 69,
      "start": 21.5445,
      "duration": 0.0496,
      "velocity": 120,
      "chip": "ym2612"
    },
    {
      "channel": 4,
      "note": 69,
      "start": 21.5943,
      "duration": 0.0686,
      "velocity": 120,
      "chip": "ym2612"
    },
    {
      "channel": 0,
      "note": 52,
      "start": 21.6609,
      "duration": 0.1166,
      "velocity": 86,
      "chip": "ym2612"
    },
    {
      "channel": 1,
      "note": 69,
      "start": 21.6613,
      "duration": 0.1164,
      "velocity": 86,
      "chip": "ym2612"
    },
    {
      "channel": 2,
      "note": 76,
      "start": 21.6627,
      "duration": 0.0815,
      "velocity": 98,
      "chip": "ym2612"
    },
    {
      "channel": 4,
      "note": 69,
      "start": 21.6632,
      "duration": 0.232,
      "velocity": 120,
      "chip": "ym2612"
    },
    {
      "channel": 3,
      "note": 76,
      "start": 21.7957,
      "duration": 0.0821,
      "velocity": 98,
      "chip": "ym2612"
    },
    {
      "channel": 2,
      "note": 73,
      "start": 21.8112,
      "duration": 0.0838,
      "velocity": 98,
      "chip": "ym2612"
    },
    {
      "channel": 0,
      "note": 52,
      "start": 21.8945,
      "duration": 0.1166,
      "velocity": 86,
      "chip": "ym2612"
    },
    {
      "channel": 1,
      "note": 69,
      "start": 21.8949,
      "duration": 0.1164,
      "velocity": 86,
      "chip": "ym2612"
    },
    {
      "channel": 4,
      "note": 69,
      "start": 21.8954,
      "duration": 0.2505,
      "velocity": 120,
      "chip": "ym2612"
    },
    {
      "channel": 3,
      "note": 73,
      "start": 21.9614,
      "duration": 0.0832,
      "velocity": 98,
      "chip": "ym2612"
    },
    {
      "channel": 2,
      "note": 69,
      "start": 21.978,
      "duration": 0.0832,
      "velocity": 98,
      "chip": "ym2612"
    },
    {
      "channel": 3,
      "note": 69,
      "start": 22.1116,
      "duration": 0.0832,
      "velocity": 98,
      "chip": "ym2612"
    },
    {
      "channel": 0,
      "note": 45,
      "start": 22.1449,
      "duration": 0.2334,
      "velocity": 86,
      "chip": "ym2612"
    },
    {
      "channel": 1,
      "note": 68,
      "start": 22.1452,
      "duration": 0.2334,
      "velocity": 86,
      "chip": "ym2612"
    },
    {
      "channel": 2,
      "note": 64,
      "start": 22.1455,
      "duration": 0.7184,
      "velocity": 86,
      "chip": "ym2612"
    },
    {
      "channel": 4,
      "note": 69,
      "start": 22.146,
      "duration": 0.049,
      "velocity": 120,
      "chip": "ym2612"
    },
    {
      "channel": 4,
      "note": 69,
      "start": 22.1952,
      "duration": 0.0664,
      "velocity": 120,
      "chip": "ym2612"
    },
    {
      "channel": 4,
      "note": 69,
      "start": 22.2619,
      "duration": 0.0498,
      "velocity": 120,
      "chip": "ym2612"
    },
    {
      "channel": 3,
      "note": 64,
      "start": 22.2785,
      "duration": 0.7184,
      "velocity": 86,
      "chip": "ym2612"
    },
    {
      "channel": 4,
      "note": 69,
      "start": 22.312,
      "duration": 0.0671,
      "velocity": 120,
      "chip": "ym2612"
    },
    {
      "channel": 0,
      "note": 52,
      "start": 22.3785,
      "duration": 0.1166,
      "velocity": 86,
      "chip": "ym2612"
    },
    {
      "channel": 1,
      "note": 69,
      "start": 22.3789,
      "duration": 0.1164,
      "velocity": 86,
      "chip": "ym2612"
    },
    {
      "channel": 4,
      "note": 69,
      "start": 22.3793,
      "duration": 0.0659,
      "velocity": 120,
      "chip": "ym2612"
    },
    {
      "channel": 4,
      "note": 69,
      "start": 22.4454,
      "duration": 0.05,
      "velocity": 120,
      "chip": "ym2612"
    },
    {
      "channel": 4,
      "note": 69,
      "start": 22.4957,
      "duration": 0.0663,
      "velocity": 120,
      "chip": "ym2612"
    },
    {
      "channel": 4,
      "note": 69,
      "start": 22.5623,
      "duration": 0.0505,
      "velocity": 120,
      "chip": "ym2612"
    },
    {
      "channel": 0,
      "note": 52,
      "start": 22.6121,
      "duration": 0.1333,
      "velocity": 86,
      "chip": "ym2612"
    },
    {
      "channel": 1,
      "note": 69,
      "start": 22.6125,
      "duration": 0.1331,
      "velocity": 86,
      "chip": "ym2612"
    },
    {
      "channel": 4,
      "note": 69,
      "start": 22.613,
      "duration": 0.2512,
      "velocity": 120,
      "chip": "ym2612"
    },
    {
      "channel": 0,
      "note": 52,
      "start": 22.8624,
      "duration": 0.1166,
      "velocity": 86,
      "chip": "ym2612"
    },
    {
      "channel": 1,
      "note": 69,
      "start": 22.8628,
      "duration": 0.1164,
      "velocity": 86,
      "chip": "ym2612"
    },
    {
      "channel": 2,
      "note": 76,
      "start": 22.8642,
      "duration": 0.2333,
      "velocity": 86,
      "chip": "ym2612"
    },
    {
      "channel": 4,
      "note": 69,
      "start": 22.8645,
      "duration": 0.2335,
      "velocity": 120,
      "chip": "ym2612"
    },
    {
      "channel": 3,
      "note": 76,
      "start": 22.9971,
      "duration": 0.25,
      "velocity": 86,
      "chip": "ym2612"
    },
    {
      "channel": 0,
      "note": 45,
      "start": 23.0961,
      "duration": 0.25,
      "velocity": 86,
      "chip": "ym2612"
    },
    {
      "channel": 1,
      "note": 68,
      "start": 23.0965,
      "duration": 0.2501,
      "velocity": 86,
      "chip": "ym2612"
    },
    {
      "channel": 2,
      "note": 80,
      "start": 23.0978,
      "duration": 0.2491,
      "velocity": 86,
      "chip": "ym2612"
    },
    {
      "channel": 4,
      "note": 69,
      "start": 23.0983,
      "duration": 0.0646,
      "velocity": 120,
      "chip": "ym2612"
    },
    {
      "channel": 4,
      "note": 69,
      "start": 23.163,
      "duration": 0.0498,
      "velocity": 120,
      "chip": "ym2612"
    },
    {
      "channel": 4,
      "note": 69,
      "start": 23.2131,
      "duration": 0.0665,
      "velocity": 120,
      "chip": "ym2612"
    },
    {
      "channel": 3,
      "note": 80,
      "start": 23.2474,
      "duration": 0.2324,
      "velocity": 86,
      "chip": "ym2612"
    },
    {
      "channel": 4,
      "note": 69,
      "start": 23.2799,
      "duration": 0.0673,
      "velocity": 120,
      "chip": "ym2612"
    },
    {
      "channel": 0,
      "note": 52,
      "start": 23.3464,
      "duration": 0.1166,
      "velocity": 86,
      "chip": "ym2612"
    },
    {
      "channel": 1,
      "note": 69,
      "start": 23.3468,
      "duration": 0.1164,
      "velocity": 86,
      "chip": "ym2612"
    },
    {
      "channel": 2,
      "note": 81,
      "start": 23.3471,
      "duration": 0.2334,
      "velocity": 86,
      "chip": "ym2612"
    },
    {
      "channel": 4,
      "note": 69,
      "start": 23.3474,
      "duration": 0.049,
      "velocity": 120,
      "chip": "ym2612"
    },
    {
      "channel": 4,
      "note": 69,
      "start": 23.3967,
      "duration": 0.0667,
      "velocity": 120,
      "chip": "ym2612"
    },
    {
      "channel": 4,
      "note": 69,
      "start": 23.4636,
      "duration": 0.0496,
      "velocity": 120,
      "chip": "ym2612"
    },
    {
      "channel": 3,
      "note": 81,
      "start": 23.48,
      "duration": 0.2334,
      "velocity": 86,
      "chip": "ym2612"
    },
    {
      "channel": 4,
      "note": 69,
      "start": 23.5135,
      "duration": 0.0675,
      "velocity": 120,
      "chip": "ym2612"
    },
    {
      "channel": 0,
      "note": 52,
      "start": 23.58,
      "duration": 0.1166,
      "velocity": 86,
      "chip": "ym2612"
    },
    {
      "channel": 1,
      "note": 69,
      "start": 23.5804,
      "duration": 0.1164,
      "velocity": 86,
      "chip": "ym2612"
    },
    {
      "channel": 2,
      "note": 83,
      "start": 23.5807,
      "duration": 0.2334,
      "velocity": 86,
      "chip": "ym2612"
    },
    {
      "channel": 4,
      "note": 69,
      "start": 23.5812,
      "duration": 0.2332,
      "velocity": 120,
      "chip": "ym2612"
    },
    {
      "channel": 3,
      "note": 83,
      "start": 23.7137,
      "duration": 0.2501,
      "velocity": 86,
      "chip": "ym2612"
    },
    {
      "channel": 0,
      "note": 52,
      "start": 23.8137,
      "duration": 0.1333,
      "velocity": 86,
      "chip": "ym2612"
    },
    {
      "channel": 1,
      "note": 69,
      "start": 23.814,
      "duration": 0.1331,
      "velocity": 86,
      "chip": "ym2612"
    },
    {
      "channel": 2,
      "note": 85,
      "start": 23.8143,
      "duration": 0.2501,
      "velocity": 86,
      "chip": "ym2612"
    },
    {
      "channel": 4,
      "note": 69,
      "start": 23.8146,
      "duration": 0.2503,
      "velocity": 120,
      "chip": "ym2612"
    },
    {
      "channel": 3,
      "note": 85,
      "start": 23.964,
      "duration": 0.2334,
      "velocity": 86,
      "chip": "ym2612"
    },
    {
      "channel": 0,
      "note": 45,
      "start": 24.064,
      "duration": 0.2334,
      "velocity": 86,
      "chip": "ym2612"
    },
    {
      "channel": 1,
      "note": 68,
      "start": 24.0644,
      "duration": 0.2334,
      "velocity": 86,
      "chip": "ym2612"
    },
    {
      "channel": 2,
      "note": 83,
      "start": 24.0647,
      "duration": 0.2334,
      "velocity": 86,
      "chip": "ym2612"
    },
    {
      "channel": 4,
      "note": 69,
      "start": 24.0651,
      "duration": 0.0489,
      "velocity": 120,
      "chip": "ym2612"
    },
    {
      "channel": 4,
      "note": 69,
      "start": 24.1143,
      "duration": 0.0665,
      "velocity": 120,
      "chip": "ym2612"
    },
    {
      "channel": 4,
      "note": 69,
      "start": 24.181,
      "duration": 0.0665,
      "velocity": 120,
      "chip": "ym2612"
    },
    {
      "channel": 3,
      "note": 83,
      "start": 24.1976,
      "duration": 0.2501,
      "velocity": 86,
      "chip": "ym2612"
    },
    {
      "channel": 4,
      "note": 69,
      "start": 24.2478,
      "duration": 0.0507,
      "velocity": 120,
      "chip": "ym2612"
    },
    {
      "channel": 0,
      "note": 52,
      "start": 24.2976,
      "duration": 0.1166,
      "velocity": 86,
      "chip": "ym2612"
    },
    {
      "channel": 1,
      "note": 69,
      "start": 24.298,
      "duration": 0.1164,
      "velocity": 86,
      "chip": "ym2612"
    },
    {
      "channel": 2,
      "note": 81,
      "start": 24.2983,
      "duration": 0.0826,
      "velocity": 86,
      "chip": "ym2612"
    },
    {
      "channel": 4,
      "note": 69,
      "start": 24.2987,
      "duration": 0.0657,
      "velocity": 120,
      "chip": "ym2612"
    },
    {
      "channel": 4,
      "note": 69,
      "start": 24.3646,
      "duration": 0.05,
      "velocity": 120,
      "chip": "ym2612"
    },
    {
      "channel": 2,
      "note": 83,
      "start": 24.3812,
      "duration": 0.0832,
      "velocity": 86,
      "chip": "ym2612"
    },
    {
      "channel": 4,
      "note": 69,
      "start": 24.4149,
      "duration": 0.0663,
      "velocity": 120,
      "chip": "ym2612"
    },
    {
      "channel": 3,
      "note": 81,
      "start": 24.448,
      "duration": 0.0665,
      "velocity": 86,
      "chip": "ym2612"
    },
    {
      "channel": 2,
      "note": 81,
      "start": 24.4646,
      "duration": 0.0838,
      "velocity": 86,
      "chip": "ym2612"
    },
    {
      "channel": 4,
      "note": 69,
      "start": 24.4814,
      "duration": 0.0675,
      "velocity": 120,
      "chip": "ym2612"
    },
    {
      "channel": 3,
      "note": 83,
      "start": 24.5147,
      "duration": 0.0832,
      "velocity": 86,
      "chip": "ym2612"
    },
    {
      "channel": 0,
      "note": 52,
      "start": 24.548,
      "duration": 0.1166,
      "velocity": 86,
      "chip": "ym2612"
    },
    {
      "channel": 1,
      "note": 69,
      "start": 24.5483,
      "duration": 0.1164,
      "velocity": 86,
      "chip": "ym2612"
    },
    {
      "channel": 2,
      "note": 80,
      "start": 24.5486,
      "duration": 0.2334,
      "velocity": 86,
      "chip": "ym2612"
    },
    {
      "channel": 4,
      "note": 69,
      "start": 24.5491,
      "duration": 0.2332,
      "velocity": 120,
      "chip": "ym2612"
    },
    {
      "channel": 3,
      "note": 81,
      "start": 24.5981,
      "duration": 0.0832,
      "velocity": 86,
      "chip": "ym2612"
    },
    {
      "channel": 3,
      "note": 80,
      "start": 24.6816,
      "duration": 0.2334,
      "velocity": 86,
      "chip": "ym2612"
    },
    {
      "channel": 0,
      "note": 52,
      "start": 24.7816,
      "duration": 0.1166,
      "velocity": 86,
      "chip": "ym2612"
    },
    {
      "channel": 1,
      "note": 69,
      "start": 24.782,
      "duration": 0.1164,
      "velocity": 86,
      "chip": "ym2612"
    },
    {
      "channel": 2,
      "note": 83,
      "start": 24.7822,
      "duration": 0.2334,
      "velocity": 86,
      "chip": "ym2612"
    },
    {
      "channel": 4,
      "note": 69,
      "start": 24.7826,
      "duration": 0.2336,
      "velocity": 120,
      "chip": "ym2612"
    },
    {
      "channel": 3,
      "note": 83,
      "start": 24.9152,
      "duration": 0.2501,
      "velocity": 86,
      "chip": "ym2612"
    },
    {
      "channel": 0,
      "note": 45,
      "start": 25.0153,
      "duration": 0.2501,
      "velocity": 86,
      "chip": "ym2612"
    },
    {
      "channel": 1,
      "note": 68,
      "start": 25.0156,
      "duration": 0.2501,
      "velocity": 86,
      "chip": "ym2612"
    },
    {
      "channel": 2,
      "note": 81,
      "start": 25.0159,
      "duration": 0.2501,
      "velocity": 86,
      "chip": "ym2612"
    },
    {
      "channel": 4,
      "note": 69,
      "start": 25.0164,
      "duration": 0.0656,
      "velocity": 120,
      "chip": "ym2612"
    },
    {
      "channel": 4,
      "note": 69,
      "start": 25.0822,
      "duration": 0.0665,
      "velocity": 120,
      "chip": "ym2612"
    },
    {
      "channel": 4,
      "note": 69,
      "start": 25.1489,
      "duration": 0.0498,
      "velocity": 120,
      "chip": "ym2612"
    },
    {
      "channel": 3,
      "note": 81,
      "start": 25.1655,
      "duration": 0.2334,
      "velocity": 86,
      "chip": "ym2612"
    },
    {
      "channel": 4,
      "note": 69,
      "start": 25.199,
      "duration": 0.0674,
      "velocity": 120,
      "chip": "ym2612"
    },
    {
      "channel": 0,
      "note": 52,
      "start": 25.2656,
      "duration": 0.1166,
      "velocity": 86,
      "chip": "ym2612"
    },
    {
      "channel": 1,
      "note": 69,
      "start": 25.2659,
      "duration": 0.1164,
      "velocity": 86,
      "chip": "ym2612"
    },
    {
      "channel": 2,
      "note": 80,
      "start": 25.2662,
      "duration": 0.0826,
      "velocity": 86,
      "chip": "ym2612"
    },
    {
      "channel": 4,
      "note": 69,
      "start": 25.2666,
      "duration": 0.049,
      "velocity": 120,
      "chip": "ym2612"
    },
    {
      "channel": 4,
      "note": 69,
      "start": 25.3158,
      "duration": 0.0667,
      "velocity": 120,
      "chip": "ym2612"
    },
    {
      "channel": 2,
      "note": 81,
      "start": 25.3491,
      "duration": 0.0665,
      "velocity": 86,
      "chip": "ym2612"
    },
    {
      "channel": 4,
      "note": 69,
      "start": 25.3828,
      "duration": 0.0663,
      "velocity": 120,
      "chip": "ym2612"
    },
    {
      "channel": 3,
      "note": 80,
      "start": 25.3992,
      "duration": 0.0832,
      "velocity": 86,
      "chip": "ym2612"
    },
    {
      "channel": 2,
      "note": 80,
      "start": 25.4158,
      "duration": 0.0838,
      "velocity": 86,
      "chip": "ym2612"
    },
    {
      "channel": 4,
      "note": 69,
      "start": 25.4493,
      "duration": 0.0508,
      "velocity": 120,
      "chip": "ym2612"
    },
    {
      "channel": 3,
      "note": 81,
      "start": 25.4826,
      "duration": 0.0832,
      "velocity": 86,
      "chip": "ym2612"
    },
    {
      "channel": 0,
      "note": 52,
      "start": 25.4992,
      "duration": 0.1166,
      "velocity": 86,
      "chip": "ym2612"
    },
    {
      "channel": 1,
      "note": 69,
      "start": 25.4995,
      "duration": 0.1164,
      "velocity": 86,
      "chip": "ym2612"
    },
    {
      "channel": 2,
      "note": 78,
      "start": 25.4998,
      "duration": 0.2501,
      "velocity": 86,
      "chip": "ym2612"
    },
    {
      "channel": 4,
      "note": 69,
      "start": 25.5003,
      "duration": 0.2499,
      "velocity": 120,
      "chip": "ym2612"
    },
    {
      "channel": 3,
      "note": 80,
      "start": 25.5661,
      "duration": 0.0832,
      "velocity": 86,
      "chip": "ym2612"
    },
    {
      "channel": 3,
      "note": 78,
      "start": 25.6495,
      "duration": 0.2334,
      "velocity": 86,
      "chip": "ym2612"
    },
    {
      "channel": 0,
      "note": 52,
      "start": 25.7495,
      "duration": 0.1166,
      "velocity": 86,
      "chip": "ym2612"
    },
    {
      "channel": 1,
      "note": 69,
      "start": 25.7499,
      "duration": 0.1164,
      "velocity": 86,
      "chip": "ym2612"
    },
    {
      "channel": 2,
      "note": 81,
      "start": 25.7501,
      "duration": 0.2334,
      "velocity": 86,
      "chip": "ym2612"
    },
    {
      "channel": 4,
      "note": 69,
      "start": 25.7505,
      "duration": 0.2336,
      "velocity": 120,
      "chip": "ym2612"
    },
    {
      "channel": 3,
      "note": 81,
      "start": 25.8831,
      "duration": 0.2334,
      "velocity": 86,
      "chip": "ym2612"
    },
    {
      "channel": 0,
      "note": 45,
      "start": 25.9832,
      "duration": 0.2334,
      "velocity": 86,
      "chip": "ym2612"
    },
    {
      "channel": 1,
      "note": 68,
      "start": 25.9835,
      "duration": 0.2334,
      "velocity": 86,
      "chip": "ym2612"
    },
    {
      "channel": 2,
      "note": 80,
      "start": 25.9838,
      "duration": 0.2334,
      "velocity": 86,
      "chip": "ym2612"
    },
    {
      "channel": 4,
      "note": 69,
      "start": 25.9843,
      "duration": 0.0656,
      "velocity": 120,
      "chip": "ym2612"
    },
    {
      "channel": 4,
      "note": 69,
      "start": 26.0501,
      "duration": 0.0498,
      "velocity": 120,
      "chip": "ym2612"
    },
    {
      "channel": 4,
      "note": 69,
      "start": 26.1002,
      "duration": 0.0665,
      "velocity": 120,
      "chip": "ym2612"
    },
    {
      "channel": 3,
      "note": 80,
      "start": 26.1168,
      "duration": 0.2501,
      "velocity": 86,
      "chip": "ym2612"
    },
    {
      "channel": 4,
      "note": 69,
      "start": 26.1669,
      "duration": 0.0507,
      "velocity": 120,
      "chip": "ym2612"
    },
    {
      "channel": 0,
      "note": 52,
      "start": 26.2168,
      "duration": 0.1333,
      "velocity": 86,
      "chip": "ym2612"
    },
    {
      "channel": 1,
      "note": 69,
      "start": 26.2171,
      "duration": 0.1331,
      "velocity": 86,
      "chip": "ym2612"
    },
    {
      "channel": 2,
      "note": 78,
      "start": 26.2174,
      "duration": 0.2501,
      "velocity": 86,
      "chip": "ym2612"
    },
    {
      "channel": 4,
      "note": 69,
      "start": 26.2178,
      "duration": 0.0657,
      "velocity": 120,
      "chip": "ym2612"
    },
    {
      "channel": 4,
      "note": 69,
      "start": 26.2837,
      "duration": 0.0667,
      "velocity": 120,
      "chip": "ym2612"
    },
    {
      "channel": 4,
      "note": 69,
      "start": 26.3507,
      "duration": 0.0496,
      "velocity": 120,
      "chip": "ym2612"
    },
    {
      "channel": 3,
      "note": 78,
      "start": 26.3671,
      "duration": 0.2334,
      "velocity": 86,
      "chip": "ym2612"
    },
    {
      "channel": 4,
      "note": 69,
      "start": 26.4005,
      "duration": 0.0675,
      "velocity": 120,
      "chip": "ym2612"
    },
    {
      "channel": 0,
      "note": 52,
      "start": 26.4671,
      "duration": 0.1166,
      "velocity": 86,
      "chip": "ym2612"
    },
    {
      "channel": 1,
      "note": 69,
      "start": 26.4674,
      "duration": 0.1164,
      "velocity": 86,
      "chip": "ym2612"
    },
    {
      "channel": 2,
      "note": 76,
      "start": 26.4677,
      "duration": 0.3499,
      "velocity": 86,
      "chip": "ym2612"
    },
    {
      "channel": 4,
      "note": 69,
      "start": 26.4683,
      "duration": 0.233,
      "velocity": 120,
      "chip": "ym2612"
    },
    {
      "channel": 3,
      "note": 76,
      "start": 26.6007,
      "duration": 0.3669,
      "velocity": 86,
      "chip": "ym2612"
    },
    {
      "channel": 0,
      "note": 52,
      "start": 26.7007,
      "duration": 0.1166,
      "velocity": 86,
      "chip": "ym2612"
    },
    {
      "channel": 1,
      "note": 69,
      "start": 26.7011,
      "duration": 0.1164,
      "velocity": 86,
      "chip": "ym2612"
    },
    {
      "channel": 4,
      "note": 69,
      "start": 26.7015,
      "duration": 0.2505,
      "velocity": 120,
      "chip": "ym2612"
    },
    {
      "channel": 2,
      "note": 76,
      "start": 26.8178,
      "duration": 0.1337,
      "velocity": 86,
      "chip": "ym2612"
    },
    {
      "channel": 0,
      "note": 45,
      "start": 26.9511,
      "duration": 0.2334,
      "velocity": 86,
      "chip": "ym2612"
    },
    {
      "channel": 1,
      "note": 68,
      "start": 26.9514,
      "duration": 0.2334,
      "velocity": 86,
      "chip": "ym2612"
    },
    {
      "channel": 2,
      "note": 75,
      "start": 26.9517,
      "duration": 0.3498,
      "velocity": 86,
      "chip": "ym2612"
    },
    {
      "channel": 4,
      "note": 69,
      "start": 26.9522,
      "duration": 0.0489,
      "velocity": 120,
      "chip": "ym2612"
    },
    {
      "channel": 3,
      "note": 76,
      "start": 26.9679,
      "duration": 0.1166,
      "velocity": 86,
      "chip": "ym2612"
    },
    {
      "channel": 4,
      "note": 69,
      "start": 27.0013,
      "duration": 0.0665,
      "velocity": 120,
      "chip": "ym2612"
    },
    {
      "channel": 4,
      "note": 69,
      "start": 27.0681,
      "duration": 0.0498,
      "velocity": 120,
      "chip": "ym2612"
    },
    {
      "channel": 3,
      "note": 75,
      "start": 27.0847,
      "duration": 0.3669,
      "velocity": 86,
      "chip": "ym2612"
    },
    {
      "channel": 4,
      "note": 69,
      "start": 27.1181,
      "duration": 0.0671,
      "velocity": 120,
      "chip": "ym2612"
    },
    {
      "channel": 0,
      "note": 52,
      "start": 27.1847,
      "duration": 0.1166,
      "velocity": 86,
      "chip": "ym2612"
    },
    {
      "channel": 1,
      "note": 69,
      "start": 27.1851,
      "duration": 0.1164,
      "velocity": 86,
      "chip": "ym2612"
    },
    {
      "channel": 4,
      "note": 69,
      "start": 27.1855,
      "duration": 0.0659,
      "velocity": 120,
      "chip": "ym2612"
    },
    {
      "channel": 4,
      "note": 69,
      "start": 27.2516,
      "duration": 0.0503,
      "velocity": 120,
      "chip": "ym2612"
    },
    {
      "channel": 2,
      "note": 76,
      "start": 27.3018,
      "duration": 0.1169,
      "velocity": 86,
      "chip": "ym2612"
    },
    {
      "channel": 4,
      "note": 69,
      "start": 27.3022,
      "duration": 0.066,
      "velocity": 120,
      "chip": "ym2612"
    },
    {
      "channel": 4,
      "note": 69,
      "start": 27.3684,
      "duration": 0.0508,
      "velocity": 120,
      "chip": "ym2612"
    },
    {
      "channel": 0,
      "note": 52,
      "start": 27.4183,
      "duration": 0.1333,
      "velocity": 86,
      "chip": "ym2612"
    },
    {
      "channel": 1,
      "note": 69,
      "start": 27.4187,
      "duration": 0.1331,
      "velocity": 86,
      "chip": "ym2612"
    },
    {
      "channel": 2,
      "note": 76,
      "start": 27.419,
      "duration": 1.4517,
      "velocity": 86,
      "chip": "ym2612"
    },
    {
      "channel": 4,
      "note": 69,
      "start": 27.4195,
      "duration": 0.2497,
      "velocity": 120,
      "chip": "ym2612"
    },
    {
      "channel": 3,
      "note": 76,
      "start": 27.4518,
      "duration": 0.1166,
      "velocity": 86,
      "chip": "ym2612"
    },
    {
      "channel": 3,
      "note": 76,
      "start": 27.5686,
      "duration": 1.4349,
      "velocity": 86,
      "chip": "ym2612"
    },
    {
      "channel": 0,
      "note": 52,
      "start": 27.6686,
      "duration": 0.1166,
      "velocity": 86,
      "chip": "ym2612"
    },
    {
      "channel": 1,
      "note": 69,
      "start": 27.669,
      "duration": 0.1164,
      "velocity": 86,
      "chip": "ym2612"
    },
    {
      "channel": 4,
      "note": 69,
      "start": 27.6694,
      "duration": 0.2336,
      "velocity": 120,
      "chip": "ym2612"
    },
    {
      "channel": 0,
      "note": 45,
      "start": 27.9023,
      "duration": 0.2501,
      "velocity": 86,
      "chip": "ym2612"
    },
    {
      "channel": 1,
      "note": 68,
      "start": 27.9027,
      "duration": 0.2501,
      "velocity": 86,
      "chip": "ym2612"
    },
    {
      "channel": 4,
      "note": 69,
      "start": 27.9032,
      "duration": 0.0658,
      "velocity": 120,
      "chip": "ym2612"
    },
    {
      "channel": 4,
      "note": 69,
      "start": 27.9692,
      "duration": 0.0498,
      "velocity": 120,
      "chip": "ym2612"
    },
    {
      "channel": 4,
      "note": 69,
      "start": 28.0193,
      "duration": 0.0665,
      "velocity": 120,
      "chip": "ym2612"
    },
    {
      "channel": 4,
      "note": 69,
      "start": 28.0861,
      "duration": 0.0671,
      "velocity": 120,
      "chip": "ym2612"
    },
    {
      "channel": 0,
      "note": 52,
      "start": 28.1526,
      "duration": 0.1166,
      "velocity": 86,
      "chip": "ym2612"
    },
    {
      "channel": 1,
      "note": 69,
      "start": 28.153,
      "duration": 0.1164,
      "velocity": 86,
      "chip": "ym2612"
    },
    {
      "channel": 4,
      "note": 69,
      "start": 28.1534,
      "duration": 0.0493,
      "velocity": 120,
      "chip": "ym2612"
    },
    {
      "channel": 4,
      "note": 69,
      "start": 28.2029,
      "duration": 0.0667,
      "velocity": 120,
      "chip": "ym2612"
    },
    {
      "channel": 4,
      "note": 69,
      "start": 28.2698,
      "duration": 0.0496,
      "velocity": 120,
      "chip": "ym2612"
    },
    {
      "channel": 4,
      "note": 69,
      "start": 28.3197,
      "duration": 0.0672,
      "velocity": 120,
      "chip": "ym2612"
    },
    {
      "channel": 0,
      "note": 52,
      "start": 28.3862,
      "duration": 0.1166,
      "velocity": 86,
      "chip": "ym2612"
    },
    {
      "channel": 1,
      "note": 69,
      "start": 28.3866,
      "duration": 0.1164,
      "velocity": 86,
      "chip": "ym2612"
    },
    {
      "channel": 4,
      "note": 69,
      "start": 28.3871,
      "duration": 0.2332,
      "velocity": 120,
      "chip": "ym2612"
    },
    {
      "channel": 0,
      "note": 52,
      "start": 28.6199,
      "duration": 0.1333,
      "velocity": 86,
      "chip": "ym2612"
    },
    {
      "channel": 1,
      "note": 69,
      "start": 28.6202,
      "duration": 0.1331,
      "velocity": 86,
      "chip": "ym2612"
    },
    {
      "channel": 4,
      "note": 69,
      "start": 28.6206,
      "duration": 0.2504,
      "velocity": 120,
      "chip": "ym2612"
    },
    {
      "channel": 0,
      "note": 45,
      "start": 28.8702,
      "duration": 0.2334,
      "velocity": 86,
      "chip": "ym2612"
    },
    {
      "channel": 1,
      "note": 68,
      "start": 28.8706,
      "duration": 0.2334,
      "velocity": 86,
      "chip": "ym2612"
    },
    {
      "channel": 4,
      "note": 69,
      "start": 28.8712,
      "duration": 0.049,
      "velocity": 120,
      "chip": "ym2612"
    },
    {
      "channel": 4,
      "note": 69,
      "start": 28.9205,
      "duration": 0.0665,
      "velocity": 120,
      "chip": "ym2612"
    },
    {
      "channel": 4,
      "note": 69,
      "start": 28.9872,
      "duration": 0.0665,
      "velocity": 120,
      "chip": "ym2612"
    },
    {
      "channel": 4,
      "note": 69,
      "start": 29.0539,
      "duration": 0.0504,
      "velocity": 120,
      "chip": "ym2612"
    },
    {
      "channel": 0,
      "note": 52,
      "start": 29.1038,
      "duration": 0.1166,
      "velocity": 86,
      "chip": "ym2612"
    },
    {
      "channel": 1,
      "note": 69,
      "start": 29.1042,
      "duration": 0.1164,
      "velocity": 86,
      "chip": "ym2612"
    },
    {
      "channel": 4,
      "note": 69,
      "start": 29.1046,
      "duration": 0.0659,
      "velocity": 120,
      "chip": "ym2612"
    },
    {
      "channel": 4,
      "note": 69,
      "start": 29.1708,
      "duration": 0.05,
      "velocity": 120,
      "chip": "ym2612"
    },
    {
      "channel": 4,
      "note": 69,
      "start": 29.221,
      "duration": 0.0663,
      "velocity": 120,
      "chip": "ym2612"
    },
    {
      "channel": 4,
      "note": 69,
      "start": 29.2876,
      "duration": 0.0686,
      "velocity": 120,
      "chip": "ym2612"
    },
    {
      "channel": 0,
      "note": 52,
      "start": 29.3541,
      "duration": 0.1166,
      "velocity": 86,
      "chip": "ym2612"
    },
    {
      "channel": 1,
      "note": 69,
      "start": 29.3545,
      "duration": 0.1164,
      "velocity": 86,
      "chip": "ym2612"
    },
    {
      "channel": 2,
      "note": 76,
      "start": 29.3559,
      "duration": 0.0649,
      "velocity": 98,
      "chip": "ym2612"
    },
    {
      "channel": 4,
      "note": 69,
      "start": 29.3564,
      "duration": 0.232,
      "velocity": 120,
      "chip": "ym2612"
    },
    {
      "channel": 3,
      "note": 76,
      "start": 29.4889,
      "duration": 0.0821,
      "velocity": 98,
      "chip": "ym2612"
    },
    {
      "channel": 2,
      "note": 73,
      "start": 29.5044,
      "duration": 0.0838,
      "velocity": 98,
      "chip": "ym2612"
    },
    {
      "channel": 0,
      "note": 52,
      "start": 29.5878,
      "duration": 0.1166,
      "velocity": 86,
      "chip": "ym2612"
    },
    {
      "channel": 1,
      "note": 69,
      "start": 29.5881,
      "duration": 0.1164,
      "velocity": 86,
      "chip": "ym2612"
    },
    {
      "channel": 4,
      "note": 69,
      "start": 29.5886,
      "duration": 0.2338,
      "velocity": 120,
      "chip": "ym2612"
    },
    {
      "channel": 3,
      "note": 73,
      "start": 29.6546,
      "duration": 0.0665,
      "velocity": 98,
      "chip": "ym2612"
    },
    {
      "channel": 2,
      "note": 69,
      "start": 29.6713,
      "duration": 0.0832,
      "velocity": 98,
      "chip": "ym2612"
    },
    {
      "channel": 3,
      "note": 69,
      "start": 29.8048,
      "duration": 0.0832,
      "velocity": 98,
      "chip": "ym2612"
    },
    {
      "channel": 0,
      "note": 45,
      "start": 29.8215,
      "duration": 0.2501,
      "velocity": 86,
      "chip": "ym2612"
    },
    {
      "channel": 1,
      "note": 68,
      "start": 29.8218,
      "duration": 0.2501,
      "velocity": 86,
      "chip": "ym2612"
    },
    {
      "channel": 2,
      "note": 64,
      "start": 29.8221,
      "duration": 0.7351,
      "velocity": 86,
      "chip": "ym2612"
    },
    {
      "channel": 4,
      "note": 69,
      "start": 29.8226,
      "duration": 0.0656,
      "velocity": 120,
      "chip": "ym2612"
    },
    {
      "channel": 4,
      "note": 69,
      "start": 29.8885,
      "duration": 0.0664,
      "velocity": 120,
      "chip": "ym2612"
    },
    {
      "channel": 4,
      "note": 69,
      "start": 29.9551,
      "duration": 0.0498,
      "velocity": 120,
      "chip": "ym2612"
    },
    {
      "channel": 3,
      "note": 64,
      "start": 29.9717,
      "duration": 0.7184,
      "velocity": 86,
      "chip": "ym2612"
    },
    {
      "channel": 4,
      "note": 69,
      "start": 30.0052,
      "duration": 0.0671,
      "velocity": 120,
      "chip": "ym2612"
    },
    {
      "channel": 0,
      "note": 52,
      "start": 30.0717,
      "duration": 0.1166,
      "velocity": 86,
      "chip": "ym2612"
    },
    {
      "channel": 1,
      "note": 69,
      "start": 30.0721,
      "duration": 0.1164,
      "velocity": 86,
      "chip": "ym2612"
    },
    {
      "channel": 4,
      "note": 69,
      "start": 30.0725,
      "duration": 0.0493,
      "velocity": 120,
      "chip": "ym2612"
    },
    {
      "channel": 4,
      "note": 69,
      "start": 30.122,
      "duration": 0.0667,
      "velocity": 120,
      "chip": "ym2612"
    },
    {
      "channel": 4,
      "note": 69,
      "start": 30.189,
      "duration": 0.0663,
      "velocity": 120,
      "chip": "ym2612"
    },
    {
      "channel": 4,
      "note": 69,
      "start": 30.2555,
      "duration": 0.0505,
      "velocity": 120,
      "chip": "ym2612"
    },
    {
      "channel": 0,
      "note": 52,
      "start": 30.3054,
      "duration": 0.1166,
      "velocity": 86,
      "chip": "ym2612"
    },
    {
      "channel": 1,
      "note": 69,
      "start": 30.3057,
      "duration": 0.1164,
      "velocity": 86,
      "chip": "ym2612"
    },
    {
      "channel": 4,
      "note": 69,
      "start": 30.3063,
      "duration": 0.2512,
      "velocity": 120,
      "chip": "ym2612"
    },
    {
      "channel": 0,
      "note": 52,
      "start": 30.5557,
      "duration": 0.1166,
      "velocity": 86,
      "chip": "ym2612"
    },
    {
      "channel": 1,
      "note": 69,
      "start": 30.5561,
      "duration": 0.1164,
      "velocity": 86,
      "chip": "ym2612"
    },
    {
      "channel": 2,
      "note": 76,
      "start": 30.5574,
      "duration": 0.2335,
      "velocity": 98,
      "chip": "ym2612"
    },
    {
      "channel": 4,
      "note": 69,
      "start": 30.5577,
      "duration": 0.2337,
      "velocity": 120,
      "chip": "ym2612"
    },
    {
      "channel": 3,
      "note": 76,
      "start": 30.6904,
      "duration": 0.2335,
      "velocity": 98,
      "chip": "ym2612"
    },
    {
      "channel": 0,
      "note": 41,
      "start": 30.7894,
      "duration": 0.2334,
      "velocity": 86,
      "chip": "ym2612"
    },
    {
      "channel": 1,
      "note": 65,
      "start": 30.7897,
      "duration": 0.2334,
      "velocity": 86,
      "chip": "ym2612"
    },
    {
      "channel": 2,
      "note": 76,
      "start": 30.7911,
      "duration": 0.7162,
      "velocity": 98,
      "chip": "ym2612"
    },
    {
      "channel": 4,
      "note": 69,
      "start": 30.7916,
      "duration": 0.0644,
      "velocity": 120,
      "chip": "ym2612"
    },
    {
      "channel": 4,
      "note": 69,
      "start": 30.8563,
      "duration": 0.0498,
      "velocity": 120,
      "chip": "ym2612"
    },
    {
      "channel": 4,
      "note": 69,
      "start": 30.9063,
      "duration": 0.0665,
      "velocity": 120,
      "chip": "ym2612"
    },
    {
      "channel": 3,
      "note": 76,
      "start": 30.9241,
      "duration": 0.7329,
      "velocity": 98,
      "chip": "ym2612"
    },
    {
      "channel": 4,
      "note": 69,
      "start": 30.9731,
      "duration": 0.0504,
      "velocity": 120,
      "chip": "ym2612"
    },
    {
      "channel": 0,
      "note": 48,
      "start": 31.023,
      "duration": 0.1333,
      "velocity": 86,
      "chip": "ym2612"
    },
    {
      "channel": 1,
      "note": 65,
      "start": 31.0233,
      "duration": 0.1331,
      "velocity": 86,
      "chip": "ym2612"
    },
    {
      "channel": 4,
      "note": 69,
      "start": 31.0237,
      "duration": 0.0659,
      "velocity": 120,
      "chip": "ym2612"
    },
    {
      "channel": 4,
      "note": 69,
      "start": 31.0899,
      "duration": 0.0667,
      "velocity": 120,
      "chip": "ym2612"
    },
    {
      "channel": 4,
      "note": 69,
      "start": 31.1569,
      "duration": 0.0496,
      "velocity": 120,
      "chip": "ym2612"
    },
    {
      "channel": 4,
      "note": 69,
      "start": 31.2067,
      "duration": 0.0672,
      "velocity": 120,
      "chip": "ym2612"
    },
    {
      "channel": 0,
      "note": 48,
      "start": 31.2733,
      "duration": 0.1166,
      "velocity": 86,
      "chip": "ym2612"
    },
    {
      "channel": 1,
      "note": 65,
      "start": 31.2736,
      "duration": 0.1164,
      "velocity": 86,
      "chip": "ym2612"
    },
    {
      "channel": 4,
      "note": 69,
      "start": 31.2742,
      "duration": 0.2335,
      "velocity": 120,
      "chip": "ym2612"
    },
    {
      "channel": 0,
      "note": 48,
      "start": 31.5069,
      "duration": 0.1166,
      "velocity": 86,
      "chip": "ym2612"
    },
    {
      "channel": 1,
      "note": 65,
      "start": 31.5073,
      "duration": 0.1164,
      "velocity": 86,
      "chip": "ym2612"
    },
    {
      "channel": 2,
      "note": 69,
      "start": 31.5076,
      "duration": 0.2501,
      "velocity": 98,
      "chip": "ym2612"
    },
    {
      "channel": 4,
      "note": 69,
      "start": 31.5079,
      "duration": 0.2503,
      "velocity": 120,
      "chip": "ym2612"
    },
    {
      "channel": 3,
      "note": 69,
      "start": 31.6572,
      "duration": 0.2334,
      "velocity": 98,
      "chip": "ym2612"
    },
    {
      "channel": 0,
      "note": 41,
      "start": 31.7573,
      "duration": 0.2334,
      "velocity": 86,
      "chip": "ym2612"
    },
    {
      "channel": 1,
      "note": 65,
      "start": 31.7576,
      "duration": 0.2334,
      "velocity": 86,
      "chip": "ym2612"
    },
    {
      "channel": 2,
      "note": 69,
      "start": 31.7579,
      "duration": 1.4349,
      "velocity": 98,
      "chip": "ym2612"
    },
    {
      "channel": 4,
      "note": 69,
      "start": 31.7584,
      "duration": 0.0489,
      "velocity": 120,
      "chip": "ym2612"
    },
    {
      "channel": 4,
      "note": 69,
      "start": 31.8075,
      "duration": 0.0665,
      "velocity": 120,
      "chip": "ym2612"
    },
    {
      "channel": 4,
      "note": 69,
      "start": 31.8743,
      "duration": 0.0498,
      "velocity": 120,
      "chip": "ym2612"
    },
    {
      "channel": 3,
      "note": 69,
      "start": 31.8909,
      "duration": 1.4349,
      "velocity": 98,
      "chip": "ym2612"
    },
    {
      "channel": 4,
      "note": 69,
      "start": 31.9243,
      "duration": 0.0671,
      "velocity": 120,
      "chip": "ym2612"
    },
    {
      "channel": 0,
      "note": 48,
      "start": 31.9909,
      "duration": 0.1166,
      "velocity": 86,
      "chip": "ym2612"
    },
    {
      "channel": 1,
      "note": 65,
      "start": 31.9912,
      "duration": 0.1164,
      "velocity": 86,
      "chip": "ym2612"
    },
    {
      "channel": 4,
      "note": 69,
      "start": 31.9917,
      "duration": 0.0659,
      "velocity": 120,
      "chip": "ym2612"
    },
    {
      "channel": 4,
      "note": 69,
      "start": 32.0578,
      "duration": 0.05,
      "velocity": 120,
      "chip": "ym2612"
    },
    {
      "channel": 4,
      "note": 69,
      "start": 32.1081,
      "duration": 0.0663,
      "velocity": 120,
      "chip": "ym2612"
    },
    {
      "channel": 4,
      "note": 69,
      "start": 32.1746,
      "duration": 0.0505,
      "velocity": 120,
      "chip": "ym2612"
    },
    {
      "channel": 0,
      "note": 48,
      "start": 32.2245,
      "duration": 0.1333,
      "velocity": 86,
      "chip": "ym2612"
    },
    {
      "channel": 1,
      "note": 65,
      "start": 32.2249,
      "duration": 0.1331,
      "velocity": 86,
      "chip": "ym2612"
    },
    {
      "channel": 4,
      "note": 69,
      "start": 32.2254,
      "duration": 0.2499,
      "velocity": 120,
      "chip": "ym2612"
    },
    {
      "channel": 0,
      "note": 48,
      "start": 32.4748,
      "duration": 0.1166,
      "velocity": 86,
      "chip": "ym2612"
    },
    {
      "channel": 1,
      "note": 65,
      "start": 32.4752,
      "duration": 0.1164,
      "velocity": 86,
      "chip": "ym2612"
    },
    {
      "channel": 4,
      "note": 69,
      "start": 32.4756,
      "duration": 0.2336,
      "velocity": 120,
      "chip": "ym2612"
    },
    {
      "channel": 0,
      "note": 41,
      "start": 32.7085,
      "duration": 0.2501,
      "velocity": 86,
      "chip": "ym2612"
    },
    {
      "channel": 1,
      "note": 65,
      "start": 32.7088,
      "duration": 0.2501,
      "velocity": 86,
      "chip": "ym2612"
    },
    {
      "channel": 4,
      "note": 69,
      "start": 32.7094,
      "duration": 0.0658,
      "velocity": 120,
      "chip": "ym2612"
    },
    {
      "channel": 4,
      "note": 69,
      "start": 32.7754,
      "duration": 0.0498,
      "velocity": 120,
      "chip": "ym2612"
    },
    {
      "channel": 4,
      "note": 69,
      "start": 32.8255,
      "duration": 0.0665,
      "velocity": 120,
      "chip": "ym2612"
    },
    {
      "channel": 4,
      "note": 69,
      "start": 32.8922,
      "duration": 0.0671,
      "velocity": 120,
      "chip": "ym2612"
    },
    {
      "channel": 0,
      "note": 48,
      "start": 32.9588,
      "duration": 0.1166,
      "velocity": 86,
      "chip": "ym2612"
    },
    {
      "channel": 1,
      "note": 65,
      "start": 32.9592,
      "duration": 0.1164,
      "velocity": 86,
      "chip": "ym2612"
    },
    {
      "channel": 4,
      "note": 69,
      "start": 32.9596,
      "duration": 0.0493,
      "velocity": 120,
      "chip": "ym2612"
    },
    {
      "channel": 4,
      "note": 69,
      "start": 33.009,
      "duration": 0.0667,
      "velocity": 120,
      "chip": "ym2612"
    },
    {
      "channel": 4,
      "note": 69,
      "start": 33.076,
      "duration": 0.0496,
      "velocity": 120,
      "chip": "ym2612"
    },
    {
      "channel": 4,
      "note": 69,
      "start": 33.1259,
      "duration": 0.0675,
      "velocity": 120,
      "chip": "ym2612"
    },
    {
      "channel": 0,
      "note": 48,
      "start": 33.1924,
      "duration": 0.1166,
      "velocity": 86,
      "chip": "ym2612"
    },
    {
      "channel": 1,
      "note": 65,
      "start": 33.1928,
      "duration": 0.1164,
      "velocity": 86,
      "chip": "ym2612"
    },
    {
      "channel": 2,
      "note": 71,
      "start": 33.1931,
      "duration": 0.1661,
      "velocity": 98,
      "chip": "ym2612"
    },
    {
      "channel": 4,
      "note": 69,
      "start": 33.1936,
      "duration": 0.233,
      "velocity": 120,
      "chip": "ym2612"
    },
    {
      "channel": 3,
      "note": 71,
      "start": 33.3261,
      "duration": 0.1666,
      "velocity": 98,
      "chip": "ym2612"
    },
    {
      "channel": 2,
      "note": 69,
      "start": 33.3594,
      "duration": 0.15,
      "velocity": 98,
      "chip": "ym2612"
    },
    {
      "channel": 0,
      "note": 48,
      "start": 33.4261,
      "duration": 0.1333,
      "velocity": 86,
      "chip": "ym2612"
    },
    {
      "channel": 1,
      "note": 65,
      "start": 33.4264,
      "duration": 0.1331,
      "velocity": 86,
      "chip": "ym2612"
    },
    {
      "channel": 4,
      "note": 69,
      "start": 33.4268,
      "duration": 0.2505,
      "velocity": 120,
      "chip": "ym2612"
    },
    {
      "channel": 3,
      "note": 69,
      "start": 33.4929,
      "duration": 0.1667,
      "velocity": 98,
      "chip": "ym2612"
    },
    {
      "channel": 2,
      "note": 71,
      "start": 33.5096,
      "duration": 0.1673,
      "velocity": 98,
      "chip": "ym2612"
    },
    {
      "channel": 3,
      "note": 71,
      "start": 33.6598,
      "duration": 0.15,
      "velocity": 98,
      "chip": "ym2612"
    },
    {
      "channel": 0,
      "note": 41,
      "start": 33.6764,
      "duration": 0.2334,
      "velocity": 86,
      "chip": "ym2612"
    },
    {
      "channel": 1,
      "note": 65,
      "start": 33.6768,
      "duration": 0.2334,
      "velocity": 86,
      "chip": "ym2612"
    },
    {
      "channel": 2,
      "note": 72,
      "start": 33.677,
      "duration": 0.1494,
      "velocity": 98,
      "chip": "ym2612"
    },
    {
      "channel": 4,
      "note": 69,
      "start": 33.6775,
      "duration": 0.0489,
      "velocity": 120,
      "chip": "ym2612"
    },
    {
      "channel": 4,
      "note": 69,
      "start": 33.7266,
      "duration": 0.0665,
      "velocity": 120,
      "chip": "ym2612"
    },
    {
      "channel": 4,
      "note": 69,
      "start": 33.7934,
      "duration": 0.0665,
      "velocity": 120,
      "chip": "ym2612"
    },
    {
      "channel": 3,
      "note": 72,
      "start": 33.81,
      "duration": 0.1667,
      "velocity": 98,
      "chip": "ym2612"
    },
    {
      "channel": 2,
      "note": 71,
      "start": 33.8266,
      "duration": 0.1667,
      "velocity": 98,
      "chip": "ym2612"
    },
    {
      "channel": 4,
      "note": 69,
      "start": 33.8602,
      "duration": 0.0504,
      "velocity": 120,
      "chip": "ym2612"
    },
    {
      "channel": 0,
      "note": 48,
      "start": 33.91,
      "duration": 0.1166,
      "velocity": 86,
      "chip": "ym2612"
    },
    {
      "channel": 1,
      "note": 65,
      "start": 33.9104,
      "duration": 0.1164,
      "velocity": 86,
      "chip": "ym2612"
    },
    {
      "channel": 4,
      "note": 69,
      "start": 33.9108,
      "duration": 0.0662,
      "velocity": 120,
      "chip": "ym2612"
    },
    {
      "channel": 3,
      "note": 71,
      "start": 33.9769,
      "duration": 0.15,
      "velocity": 98,
      "chip": "ym2612"
    },
    {
      "channel": 4,
      "note": 69,
      "start": 33.9772,
      "duration": 0.0498,
      "velocity": 120,
      "chip": "ym2612"
    },
    {
      "channel": 2,
      "note": 72,
      "start": 33.9935,
      "duration": 0.1672,
      "velocity": 98,
      "chip": "ym2612"
    },
    {
      "channel": 4,
      "note": 69,
      "start": 34.0272,
      "duration": 0.0663,
      "velocity": 120,
      "chip": "ym2612"
    },
    {
      "channel": 4,
      "note": 69,
      "start": 34.0938,
      "duration": 0.0675,
      "velocity": 120,
      "chip": "ym2612"
    },
    {
      "channel": 3,
      "note": 72,
      "start": 34.1271,
      "duration": 0.1666,
      "velocity": 98,
      "chip": "ym2612"
    },
    {
      "channel": 0,
      "note": 48,
      "start": 34.1603,
      "duration": 0.1166,
      "velocity": 86,
      "chip": "ym2612"
    },
    {
      "channel": 1,
      "note": 65,
      "start": 34.1607,
      "duration": 0.1164,
      "velocity": 86,
      "chip": "ym2612"
    },
    {
      "channel": 2,
      "note": 74,
      "start": 34.161,
      "duration": 0.1494,
      "velocity": 98,
      "chip": "ym2612"
    },
    {
      "channel": 4,
      "note": 69,
      "start": 34.1615,
      "duration": 0.233,
      "velocity": 120,
      "chip": "ym2612"
    },
    {
      "channel": 3,
      "note": 74,
      "start": 34.2939,
      "duration": 0.1667,
      "velocity": 98,
      "chip": "ym2612"
    },
    {
      "channel": 2,
      "note": 72,
      "start": 34.3106,
      "duration": 0.1667,
      "velocity": 98,
      "chip": "ym2612"
    },
    {
      "channel": 0,
      "note": 48,
      "start": 34.394,
      "duration": 0.1166,
      "velocity": 86,
      "chip": "ym2612"
    },
    {
      "channel": 1,
      "note": 65,
      "start": 34.3943,
      "duration": 0.1164,
      "velocity": 86,
      "chip": "ym2612"
    },
    {
      "channel": 4,
      "note": 69,
      "start": 34.3947,
      "duration": 0.2338,
      "velocity": 120,
      "chip": "ym2612"
    },
    {
      "channel": 3,
      "note": 72,
      "start": 34.4608,
      "duration": 0.15,
      "velocity": 98,
      "chip": "ym2612"
    },
    {
      "channel": 2,
      "note": 74,
      "start": 34.4775,
      "duration": 0.1506,
      "velocity": 98,
      "chip": "ym2612"
    },
    {
      "channel": 3,
      "note": 74,
      "start": 34.611,
      "duration": 0.1667,
      "velocity": 98,
      "chip": "ym2612"
    },
    {
      "channel": 0,
      "note": 41,
      "start": 34.6276,
      "duration": 0.2501,
      "velocity": 86,
      "chip": "ym2612"
    },
    {
      "channel": 1,
      "note": 65,
      "start": 34.628,
      "duration": 0.2501,
      "velocity": 86,
      "chip": "ym2612"
    },
    {
      "channel": 2,
      "note": 76,
      "start": 34.6283,
      "duration": 0.1661,
      "velocity": 98,
      "chip": "ym2612"
    },
    {
      "channel": 4,
      "note": 69,
      "start": 34.6288,
      "duration": 0.0656,
      "velocity": 120,
      "chip": "ym2612"
    },
    {
      "channel": 4,
      "note": 69,
      "start": 34.6946,
      "duration": 0.0665,
      "velocity": 120,
      "chip": "ym2612"
    },
    {
      "channel": 4,
      "note": 69,
      "start": 34.7613,
      "duration": 0.0498,
      "velocity": 120,
      "chip": "ym2612"
    },
    {
      "channel": 3,
      "note": 76,
      "start": 34.7779,
      "duration": 0.15,
      "velocity": 98,
      "chip": "ym2612"
    },
    {
      "channel": 2,
      "note": 74,
      "start": 34.7946,
      "duration": 0.1667,
      "velocity": 98,
      "chip": "ym2612"
    },
    {
      "channel": 4,
      "note": 69,
      "start": 34.8114,
      "duration": 0.0671,
      "velocity": 120,
      "chip": "ym2612"
    },
    {
      "channel": 0,
      "note": 48,
      "start": 34.8779,
      "duration": 0.1166,
      "velocity": 86,
      "chip": "ym2612"
    },
    {
      "channel": 1,
      "note": 65,
      "start": 34.8783,
      "duration": 0.1164,
      "velocity": 86,
      "chip": "ym2612"
    },
    {
      "channel": 4,
      "note": 69,
      "start": 34.8787,
      "duration": 0.0495,
      "velocity": 120,
      "chip": "ym2612"
    },
    {
      "channel": 3,
      "note": 74,
      "start": 34.9281,
      "duration": 0.1666,
      "velocity": 98,
      "chip": "ym2612"
    },
    {
      "channel": 4,
      "note": 69,
      "start": 34.9284,
      "duration": 0.0665,
      "velocity": 120,
      "chip": "ym2612"
    },
    {
      "channel": 2,
      "note": 76,
      "start": 34.9615,
      "duration": 0.1505,
      "velocity": 98,
      "chip": "ym2612"
    },
    {
      "channel": 4,
      "note": 69,
      "start": 34.9951,
      "duration": 0.0663,
      "velocity": 120,
      "chip": "ym2612"
    },
    {
      "channel": 4,
      "note": 69,
      "start": 35.0617,
      "duration": 0.0508,
      "velocity": 120,
      "chip": "ym2612"
    },
    {
      "channel": 3,
      "note": 76,
      "start": 35.095,
      "duration": 0.1666,
      "velocity": 98,
      "chip": "ym2612"
    },
    {
      "channel": 0,
      "note": 48,
      "start": 35.1116,
      "duration": 0.1166,
      "velocity": 86,
      "chip": "ym2612"
    },
    {
      "channel": 1,
      "note": 65,
      "start": 35.1119,
      "duration": 0.1164,
      "velocity": 86,
      "chip": "ym2612"
    },
    {
      "channel": 2,
      "note": 77,
      "start": 35.1122,
      "duration": 0.1661,
      "velocity": 98,
      "chip": "ym2612"
    },
    {
      "channel": 4,
      "note": 69,
      "start": 35.1127,
      "duration": 0.2497,
      "velocity": 120,
      "chip": "ym2612"
    },
    {
      "channel": 3,
      "note": 77,
      "start": 35.2619,
      "duration": 0.15,
      "velocity": 98,
      "chip": "ym2612"
    },
    {
      "channel": 2,
      "note": 76,
      "start": 35.2785,
      "duration": 0.15,
      "velocity": 98,
      "chip": "ym2612"
    },
    {
      "channel": 0,
      "note": 48,
      "start": 35.3619,
      "duration": 0.1166,
      "velocity": 86,
      "chip": "ym2612"
    },
    {
      "channel": 1,
      "note": 65,
      "start": 35.3622,
      "duration": 0.1164,
      "velocity": 86,
      "chip": "ym2612"
    },
    {
      "channel": 4,
      "note": 69,
      "start": 35.3626,
      "duration": 0.2338,
      "velocity": 120,
      "chip": "ym2612"
    },
    {
      "channel": 3,
      "note": 76,
      "start": 35.4121,
      "duration": 0.1667,
      "velocity": 98,
      "chip": "ym2612"
    },
    {
      "channel": 2,
      "note": 77,
      "start": 35.4287,
      "duration": 0.1673,
      "velocity": 98,
      "chip": "ym2612"
    },
    {
      "channel": 3,
      "note": 77,
      "start": 35.5789,
      "duration": 0.15,
      "velocity": 98,
      "chip": "ym2612"
    },
    {
      "channel": 0,
      "note": 41,
      "start": 35.5956,
      "duration": 0.2334,
      "velocity": 86,
      "chip": "ym2612"
    },
    {
      "channel": 1,
      "note": 65,
      "start": 35.5959,
      "duration": 0.2334,
      "velocity": 86,
      "chip": "ym2612"
    },
    {
      "channel": 2,
      "note": 79,
      "start": 35.5962,
      "duration": 0.1661,
      "velocity": 98,
      "chip": "ym2612"
    },
    {
      "channel": 4,
      "note": 69,
      "start": 35.5967,
      "duration": 0.0656,
      "velocity": 120,
      "chip": "ym2612"
    },
    {
      "channel": 4,
      "note": 69,
      "start": 35.6625,
      "duration": 0.0498,
      "velocity": 120,
      "chip": "ym2612"
    },
    {
      "channel": 4,
      "note": 69,
      "start": 35.7125,
      "duration": 0.0665,
      "velocity": 120,
      "chip": "ym2612"
    },
    {
      "channel": 3,
      "note": 79,
      "start": 35.7291,
      "duration": 0.1667,
      "velocity": 98,
      "chip": "ym2612"
    },
    {
      "channel": 2,
      "note": 77,
      "start": 35.7625,
      "duration": 0.15,
      "velocity": 98,
      "chip": "ym2612"
    },
    {
      "channel": 4,
      "note": 69,
      "start": 35.7793,
      "duration": 0.0504,
      "velocity": 120,
      "chip": "ym2612"
    },
    {
      "channel": 0,
      "note": 48,
      "start": 35.8292,
      "duration": 0.1333,
      "velocity": 86,
      "chip": "ym2612"
    },
    {
      "channel": 1,
      "note": 65,
      "start": 35.8295,
      "duration": 0.1331,
      "velocity": 86,
      "chip": "ym2612"
    },
    {
      "channel": 4,
      "note": 69,
      "start": 35.8299,
      "duration": 0.0662,
      "velocity": 120,
      "chip": "ym2612"
    },
    {
      "channel": 3,
      "note": 77,
      "start": 35.896,
      "duration": 0.1666,
      "velocity": 98,
      "chip": "ym2612"
    },
    {
      "channel": 4,
      "note": 69,
      "start": 35.8963,
      "duration": 0.0665,
      "velocity": 120,
      "chip": "ym2612"
    },
    {
      "channel": 2,
      "note": 79,
      "start": 35.9127,
      "duration": 0.1672,
      "velocity": 98,
      "chip": "ym2612"
    },
    {
      "channel": 4,
      "note": 69,
      "start": 35.9631,
      "duration": 0.0496,
      "velocity": 120,
      "chip": "ym2612"
    },
    {
      "channel": 4,
      "note": 69,
      "start": 36.0129,
      "duration": 0.0675,
      "velocity": 120,
      "chip": "ym2612"
    },
    {
      "channel": 3,
      "note": 79,
      "start": 36.0629,
      "duration": 0.15,
      "velocity": 98,
      "chip": "ym2612"
    },
    {
      "channel": 0,
      "note": 48,
      "start": 36.0795,
      "duration": 0.1166,
      "velocity": 86,
      "chip": "ym2612"
    },
    {
      "channel": 1,
      "note": 65,
      "start": 36.0798,
      "duration": 0.1164,
      "velocity": 86,
      "chip": "ym2612"
    },
    {
      "channel": 2,
      "note": 81,
      "start": 36.0801,
      "duration": 0.1494,
      "velocity": 98,
      "chip": "ym2612"
    },
    {
      "channel": 4,
      "note": 69,
      "start": 36.0806,
      "duration": 0.233,
      "velocity": 120,
      "chip": "ym2612"
    },
    {
      "channel": 3,
      "note": 81,
      "start": 36.2131,
      "duration": 0.1667,
      "velocity": 98,
      "chip": "ym2612"
    },
    {
      "channel": 2,
      "note": 79,
      "start": 36.2297,
      "duration": 0.1667,
      "velocity": 98,
      "chip": "ym2612"
    },
    {
      "channel": 0,
      "note": 48,
      "start": 36.3131,
      "duration": 0.1166,
      "velocity": 86,
      "chip": "ym2612"
    },
    {
      "channel": 1,
      "note": 65,
      "start": 36.3135,
      "duration": 0.1164,
      "velocity": 86,
      "chip": "ym2612"
    },
    {
      "channel": 4,
      "note": 69,
      "start": 36.3138,
      "duration": 0.2505,
      "velocity": 120,
      "chip": "ym2612"
    },
    {
      "channel": 3,
      "note": 79,
      "start": 36.38,
      "duration": 0.15,
      "velocity": 98,
      "chip": "ym2612"
    },
    {
      "channel": 2,
      "note": 81,
      "start": 36.3966,
      "duration": 0.1673,
      "velocity": 98,
      "chip": "ym2612"
    },
    {
      "channel": 3,
      "note": 81,
      "start": 36.5302,
      "duration": 0.1667,
      "velocity": 98,
      "chip": "ym2612"
    },
    {
      "channel": 0,
      "note": 41,
      "start": 36.5635,
      "duration": 0.2334,
      "velocity": 86,
      "chip": "ym2612"
    },
    {
      "channel": 1,
      "note": 65,
      "start": 36.5638,
      "duration": 0.2334,
      "velocity": 86,
      "chip": "ym2612"
    },
    {
      "channel": 2,
      "note": 83,
      "start": 36.5641,
      "duration": 0.1494,
      "velocity": 98,
      "chip": "ym2612"
    },
    {
      "channel": 4,
      "note": 69,
      "start": 36.5646,
      "duration": 0.0489,
      "velocity": 120,
      "chip": "ym2612"
    },
    {
      "channel": 4,
      "note": 69,
      "start": 36.6137,
      "duration": 0.0665,
      "velocity": 120,
      "chip": "ym2612"
    },
    {
      "channel": 4,
      "note": 69,
      "start": 36.6805,
      "duration": 0.0498,
      "velocity": 120,
      "chip": "ym2612"
    },
    {
      "channel": 3,
      "note": 83,
      "start": 36.6971,
      "duration": 0.1667,
      "velocity": 98,
      "chip": "ym2612"
    },
    {
      "channel": 2,
      "note": 81,
      "start": 36.7137,
      "duration": 0.1667,
      "velocity": 98,
      "chip": "ym2612"
    },
    {
      "channel": 4,
      "note": 69,
      "start": 36.7305,
      "duration": 0.0671,
      "velocity": 120,
      "chip": "ym2612"
    },
    {
      "channel": 0,
      "note": 48,
      "start": 36.7971,
      "duration": 0.1166,
      "velocity": 86,
      "chip": "ym2612"
    },
    {
      "channel": 1,
      "note": 65,
      "start": 36.7974,
      "duration": 0.1164,
      "velocity": 86,
      "chip": "ym2612"
    },
    {
      "channel": 4,
      "note": 69,
      "start": 36.7978,
      "duration": 0.0662,
      "velocity": 120,
      "chip": "ym2612"
    },
    {
      "channel": 3,
      "note": 81,
      "start": 36.8639,
      "duration": 0.15,
      "velocity": 98,
      "chip": "ym2612"
    },
    {
      "channel": 4,
      "note": 69,
      "start": 36.8643,
      "duration": 0.0498,
      "velocity": 120,
      "chip": "ym2612"
    },
    {
      "channel": 2,
      "note": 83,
      "start": 36.8806,
      "duration": 0.1505,
      "velocity": 98,
      "chip": "ym2612"
    },
    {
      "channel": 4,
      "note": 69,
      "start": 36.9143,
      "duration": 0.0663,
      "velocity": 120,
      "chip": "ym2612"
    },
    {
      "channel": 4,
      "note": 69,
      "start": 36.9808,
      "duration": 0.0508,
      "velocity": 120,
      "chip": "ym2612"
    },
    {
      "channel": 3,
      "note": 83,
      "start": 37.0141,
      "duration": 0.1666,
      "velocity": 98,
      "chip": "ym2612"
    },
    {
      "channel": 0,
      "note": 48,
      "start": 37.0307,
      "duration": 0.1333,
      "velocity": 86,
      "chip": "ym2612"
    },
    {
      "channel": 1,
      "note": 65,
      "start": 37.031,
      "duration": 0.1331,
      "velocity": 86,
      "chip": "ym2612"
    },
    {
      "channel": 2,
      "note": 84,
      "start": 37.0313,
      "duration": 0.1661,
      "velocity": 98,
      "chip": "ym2612"
    },
    {
      "channel": 4,
      "note": 69,
      "start": 37.0318,
      "duration": 0.2497,
      "velocity": 120,
      "chip": "ym2612"
    },
    {
      "channel": 3,
      "note": 84,
      "start": 37.181,
      "duration": 0.15,
      "velocity": 98,
      "chip": "ym2612"
    },
    {
      "channel": 2,
      "note": 83,
      "start": 37.1976,
      "duration": 0.1667,
      "velocity": 98,
      "chip": "ym2612"
    },
    {
      "channel": 0,
      "note": 48,
      "start": 37.281,
      "duration": 0.1166,
      "velocity": 86,
      "chip": "ym2612"
    },
    {
      "channel": 1,
      "note": 65,
      "start": 37.2814,
      "duration": 0.1164,
      "velocity": 86,
      "chip": "ym2612"
    },
    {
      "channel": 4,
      "note": 69,
      "start": 37.2817,
      "duration": 0.2338,
      "velocity": 120,
      "chip": "ym2612"
    },
    {
      "channel": 3,
      "note": 83,
      "start": 37.3312,
      "duration": 0.1666,
      "velocity": 98,
      "chip": "ym2612"
    },
    {
      "channel": 2,
      "note": 84,
      "start": 37.3645,
      "duration": 0.1506,
      "velocity": 98,
      "chip": "ym2612"
    },
    {
      "channel": 3,
      "note": 84,
      "start": 37.4981,
      "duration": 0.1667,
      "velocity": 98,
      "chip": "ym2612"
    },
    {
      "channel": 0,
      "note": 41,
      "start": 37.5147,
      "duration": 0.2501,
      "velocity": 86,
      "chip": "ym2612"
    },
    {
      "channel": 1,
      "note": 65,
      "start": 37.515,
      "duration": 0.2501,
      "velocity": 86,
      "chip": "ym2612"
    },
    {
      "channel": 2,
      "note": 86,
      "start": 37.5153,
      "duration": 0.1661,
      "velocity": 98,
      "chip": "ym2612"
    },
    {
      "channel": 4,
      "note": 69,
      "start": 37.5158,
      "duration": 0.0656,
      "velocity": 120,
      "chip": "ym2612"
    },
    {
      "channel": 4,
      "note": 69,
      "start": 37.5816,
      "duration": 0.0498,
      "velocity": 120,
      "chip": "ym2612"
    },
    {
      "channel": 4,
      "note": 69,
      "start": 37.6317,
      "duration": 0.0665,
      "velocity": 120,
      "chip": "ym2612"
    },
    {
      "channel": 3,
      "note": 86,
      "start": 37.665,
      "duration": 0.15,
      "velocity": 98,
      "chip": "ym2612"
    },
    {
      "channel": 2,
      "note": 84,
      "start": 37.6816,
      "duration": 0.15,
      "velocity": 98,
      "chip": "ym2612"
    },
    {
      "channel": 4,
      "note": 69,
      "start": 37.6984,
      "duration": 0.0671,
      "velocity": 120,
      "chip": "ym2612"
    },
    {
      "channel": 0,
      "note": 48,
      "start": 37.765,
      "duration": 0.1166,
      "velocity": 86,
      "chip": "ym2612"
    },
    {
      "channel": 1,
      "note": 65,
      "start": 37.7654,
      "duration": 0.1164,
      "velocity": 86,
      "chip": "ym2612"
    },
    {
      "channel": 4,
      "note": 69,
      "start": 37.7658,
      "duration": 0.0495,
      "velocity": 120,
      "chip": "ym2612"
    },
    {
      "channel": 3,
      "note": 84,
      "start": 37.8152,
      "duration": 0.1666,
      "velocity": 98,
      "chip": "ym2612"
    },
    {
      "channel": 4,
      "note": 69,
      "start": 37.8155,
      "duration": 0.0665,
      "velocity": 120,
      "chip": "ym2612"
    },
    {
      "channel": 2,
      "note": 86,
      "start": 37.8318,
      "duration": 0.1672,
      "velocity": 98,
      "chip": "ym2612"
    },
    {
      "channel": 4,
      "note": 69,
      "start": 37.8822,
      "duration": 0.0496,
      "velocity": 120,
      "chip": "ym2612"
    },
    {
      "channel": 4,
      "note": 69,
      "start": 37.932,
      "duration": 0.0675,
      "velocity": 120,
      "chip": "ym2612"
    },
    {
      "channel": 3,
      "note": 86,
      "start": 37.982,
      "duration": 0.15,
      "velocity": 98,
      "chip": "ym2612"
    },
    {
      "channel": 0,
      "note": 48,
      "start": 37.9986,
      "duration": 0.1166,
      "velocity": 86,
      "chip": "ym2612"
    },
    {
      "channel": 1,
      "note": 65,
      "start": 37.999,
      "duration": 0.1164,
      "velocity": 86,
      "chip": "ym2612"
    },
    {
      "channel": 2,
      "note": 88,
      "start": 37.9993,
      "duration": 0.1661,
      "velocity": 98,
      "chip": "ym2612"
    },
    {
      "channel": 4,
      "note": 69,
      "start": 37.9998,
      "duration": 0.233,
      "velocity": 120,
      "chip": "ym2612"
    },
    {
      "channel": 3,
      "note": 88,
      "start": 38.1322,
      "duration": 0.1666,
      "velocity": 98,
      "chip": "ym2612"
    },
    {
      "channel": 0,
      "note": 48,
      "start": 38.2322,
      "duration": 0.1333,
      "velocity": 86,
      "chip": "ym2612"
    },
    {
      "channel": 1,
      "note": 65,
      "start": 38.2326,
      "duration": 0.1331,
      "velocity": 86,
      "chip": "ym2612"
    },
    {
      "channel": 4,
      "note": 69,
      "start": 38.2329,
      "duration": 0.2505,
      "velocity": 120,
      "chip": "ym2612"
    },
    {
      "channel": 2,
      "note": 88,
      "start": 38.3158,
      "duration": 0.1672,
      "velocity": 98,
      "chip": "ym2612"
    },
    {
      "channel": 3,
      "note": 88,
      "start": 38.466,
      "duration": 0.15,
      "velocity": 98,
      "chip": "ym2612"
    },
    {
      "channel": 0,
      "note": 45,
      "start": 38.4826,
      "duration": 0.2334,
      "velocity": 86,
      "chip": "ym2612"
    },
    {
      "channel": 1,
      "note": 68,
      "start": 38.4829,
      "duration": 0.2334,
      "velocity": 86,
      "chip": "ym2612"
    },
    {
      "channel": 2,
      "note": 85,
      "start": 38.4832,
      "duration": 1.9191,
      "velocity": 98,
      "chip": "ym2612"
    },
    {
      "channel": 4,
      "note": 69,
      "start": 38.4837,
      "duration": 0.0489,
      "velocity": 120,
      "chip": "ym2612"
    },
    {
      "channel": 4,
      "note": 69,
      "start": 38.5328,
      "duration": 0.0665,
      "velocity": 120,
      "chip": "ym2612"
    },
    {
      "channel": 4,
      "note": 69,
      "start": 38.5996,
      "duration": 0.0665,
      "velocity": 120,
      "chip": "ym2612"
    },
    {
      "channel": 3,
      "note": 85,
      "start": 38.6162,
      "duration": 1.9191,
      "velocity": 98,
      "chip": "ym2612"
    },
    {
      "channel": 4,
      "note": 69,
      "start": 38.6663,
      "duration": 0.0504,
      "velocity": 120,
      "chip": "ym2612"
    },
    {
      "channel": 0,
      "note": 52,
      "start": 38.7162,
      "duration": 0.1166,
      "velocity": 86,
      "chip": "ym2612"
    },
    {
      "channel": 1,
      "note": 69,
      "start": 38.7166,
      "duration": 0.1164,
      "velocity": 86,
      "chip": "ym2612"
    },
    {
      "channel": 4,
      "note": 69,
      "start": 38.717,
      "duration": 0.0659,
      "velocity": 120,
      "chip": "ym2612"
    },
    {
      "channel": 4,
      "note": 69,
      "start": 38.7832,
      "duration": 0.05,
      "velocity": 120,
      "chip": "ym2612"
    },
    {
      "channel": 4,
      "note": 69,
      "start": 38.8334,
      "duration": 0.0663,
      "velocity": 120,
      "chip": "ym2612"
    },
    {
      "channel": 4,
      "note": 69,
      "start": 38.9,
      "duration": 0.0672,
      "velocity": 120,
      "chip": "ym2612"
    },
    {
      "channel": 0,
      "note": 52,
      "start": 38.9665,
      "duration": 0.1166,
      "velocity": 86,
      "chip": "ym2612"
    },
    {
      "channel": 1,
      "note": 69,
      "start": 38.9669,
      "duration": 0.1164,
      "velocity": 86,
      "chip": "ym2612"
    },
    {
      "channel": 4,
      "note": 69,
      "start": 38.9674,
      "duration": 0.2332,
      "velocity": 120,
      "chip": "ym2612"
    },
    {
      "channel": 0,
      "note": 52,
      "start": 39.2002,
      "duration": 0.1166,
      "velocity": 86,
      "chip": "ym2612"
    },
    {
      "channel": 1,
      "note": 69,
      "start": 39.2005,
      "duration": 0.1164,
      "velocity": 86,
      "chip": "ym2612"
    },
    {
      "channel": 4,
      "note": 69,
      "start": 39.2009,
      "duration": 0.2336,
      "velocity": 120,
      "chip": "ym2612"
    },
    {
      "channel": 0,
      "note": 45,
      "start": 39.4338,
      "duration": 0.2501,
      "velocity": 86,
      "chip": "ym2612"
    },
    {
      "channel": 1,
      "note": 68,
      "start": 39.4342,
      "duration": 0.2501,
      "velocity": 86,
      "chip": "ym2612"
    },
    {
      "channel": 4,
      "note": 69,
      "start": 39.4347,
      "duration": 0.0658,
      "velocity": 120,
      "chip": "ym2612"
    },
    {
      "channel": 4,
      "note": 69,
      "start": 39.5007,
      "duration": 0.0665,
      "velocity": 120,
      "chip": "ym2612"
    },
    {
      "channel": 4,
      "note": 69,
      "start": 39.5675,
      "duration": 0.0498,
      "velocity": 120,
      "chip": "ym2612"
    },
    {
      "channel": 4,
      "note": 69,
      "start": 39.6176,
      "duration": 0.0671,
      "velocity": 120,
      "chip": "ym2612"
    },
    {
      "channel": 0,
      "note": 52,
      "start": 39.6841,
      "duration": 0.1166,
      "velocity": 86,
      "chip": "ym2612"
    },
    {
      "channel": 1,
      "note": 69,
      "start": 39.6845,
      "duration": 0.1164,
      "velocity": 86,
      "chip": "ym2612"
    },
    {
      "channel": 4,
      "note": 69,
      "start": 39.6849,
      "duration": 0.0493,
      "velocity": 120,
      "chip": "ym2612"
    },
    {
      "channel": 4,
      "note": 69,
      "start": 39.7344,
      "duration": 0.0667,
      "velocity": 120,
      "chip": "ym2612"
    },
    {
      "channel": 4,
      "note": 69,
      "start": 39.8013,
      "duration": 0.0663,
      "velocity": 120,
      "chip": "ym2612"
    },
    {
      "channel": 4,
      "note": 69,
      "start": 39.8679,
      "duration": 0.0505,
      "velocity": 120,
      "chip": "ym2612"
    },
    {
      "channel": 0,
      "note": 52,
      "start": 39.9178,
      "duration": 0.1166,
      "velocity": 86,
      "chip": "ym2612"
    },
    {
      "channel": 1,
      "note": 69,
      "start": 39.9181,
      "duration": 0.1164,
      "velocity": 86,
      "chip": "ym2612"
    },
    {
      "channel": 4,
      "note": 69,
      "start": 39.9186,
      "duration": 0.2499,
      "velocity": 120,
      "chip": "ym2612"
    },
    {
      "channel": 0,
      "note": 52,
      "start": 40.1681,
      "duration": 0.1166,
      "velocity": 86,
      "chip": "ym2612"
    },
    {
      "channel": 1,
      "note": 69,
      "start": 40.1684,
      "duration": 0.1164,
      "velocity": 86,
      "chip": "ym2612"
    },
    {
      "channel": 4,
      "note": 69,
      "start": 40.1688,
      "duration": 0.2339,
      "velocity": 120,
      "chip": "ym2612"
    },
    {
      "channel": 0,
      "note": 45,
      "start": 40.4017,
      "duration": 0.2334,
      "velocity": 86,
      "chip": "ym2612"
    },
    {
      "channel": 1,
      "note": 68,
      "start": 40.4021,
      "duration": 0.2334,
      "velocity": 86,
      "chip": "ym2612"
    },
    {
      "channel": 4,
      "note": 69,
      "start": 40.4029,
      "duration": 0.0655,
      "velocity": 120,
      "chip": "ym2612"
    },
    {
      "channel": 4,
      "note": 69,
      "start": 40.4687,
      "duration": 0.0498,
      "velocity": 120,
      "chip": "ym2612"
    },
    {
      "channel": 4,
      "note": 69,
      "start": 40.5187,
      "duration": 0.0665,
      "velocity": 120,
      "chip": "ym2612"
    },
    {
      "channel": 4,
      "note": 69,
      "start": 40.5855,
      "duration": 0.0504,
      "velocity": 120,
      "chip": "ym2612"
    },
    {
      "channel": 0,
      "note": 52,
      "start": 40.6354,
      "duration": 0.1333,
      "velocity": 86,
      "chip": "ym2612"
    },
    {
      "channel": 1,
      "note": 69,
      "start": 40.6357,
      "duration": 0.1331,
      "velocity": 86,
      "chip": "ym2612"
    },
    {
      "channel": 4,
      "note": 69,
      "start": 40.6361,
      "duration": 0.0659,
      "velocity": 120,
      "chip": "ym2612"
    },
    {
      "channel": 4,
      "note": 69,
      "start": 40.7023,
      "duration": 0.0667,
      "velocity": 120,
      "chip": "ym2612"
    },
    {
      "channel": 4,
      "note": 69,
      "start": 40.7692,
      "duration": 0.0496,
      "velocity": 120,
      "chip": "ym2612"
    },
    {
      "channel": 4,
      "note": 69,
      "start": 40.8191,
      "duration": 0.0672,
      "velocity": 120,
      "chip": "ym2612"
    },
    {
      "channel": 0,
      "note": 52,
      "start": 40.8857,
      "duration": 0.1166,
      "velocity": 86,
      "chip": "ym2612"
    },
    {
      "channel": 1,
      "note": 69,
      "start": 40.886,
      "duration": 0.1164,
      "velocity": 86,
      "chip": "ym2612"
    },
    {
      "channel": 4,
      "note": 69,
      "start": 40.8866,
      "duration": 0.2332,
      "velocity": 120,
      "chip": "ym2612"
    },
    {
      "channel": 0,
      "note": 52,
      "start": 41.1193,
      "duration": 0.1166,
      "velocity": 86,
      "chip": "ym2612"
    },
    {
      "channel": 1,
      "note": 69,
      "start": 41.1196,
      "duration": 0.1164,
      "velocity": 86,
      "chip": "ym2612"
    },
    {
      "channel": 4,
      "note": 69,
      "start": 41.12,
      "duration": 0.2503,
      "velocity": 120,
      "chip": "ym2612"
    },
    {
      "channel": 0,
      "note": 45,
      "start": 41.3697,
      "duration": 0.2334,
      "velocity": 86,
      "chip": "ym2612"
    },
    {
      "channel": 1,
      "note": 68,
      "start": 41.37,
      "duration": 0.2334,
      "velocity": 86,
      "chip": "ym2612"
    },
    {
      "channel": 4,
      "note": 69,
      "start": 41.3705,
      "duration": 0.0491,
      "velocity": 120,
      "chip": "ym2612"
    },
    {
      "channel": 4,
      "note": 69,
      "start": 41.4199,
      "duration": 0.0665,
      "velocity": 120,
      "chip": "ym2612"
    },
    {
      "channel": 4,
      "note": 69,
      "start": 41.4866,
      "duration": 0.0498,
      "velocity": 120,
      "chip": "ym2612"
    },
    {
      "channel": 4,
      "note": 69,
      "start": 41.5367,
      "duration": 0.0671,
      "velocity": 120,
      "chip": "ym2612"
    },
    {
      "channel": 0,
      "note": 52,
      "start": 41.6033,
      "duration": 0.1166,
      "velocity": 86,
      "chip": "ym2612"
    },
    {
      "channel": 1,
      "note": 69,
      "start": 41.6036,
      "duration": 0.1164,
      "velocity": 86,
      "chip": "ym2612"
    },
    {
      "channel": 4,
      "note": 69,
      "start": 41.604,
      "duration": 0.0659,
      "velocity": 120,
      "chip": "ym2612"
    },
    {
      "channel": 4,
      "note": 69,
      "start": 41.6702,
      "duration": 0.05,
      "velocity": 120,
      "chip": "ym2612"
    },
    {
      "channel": 4,
      "note": 69,
      "start": 41.7205,
      "duration": 0.0663,
      "velocity": 120,
      "chip": "ym2612"
    },
    {
      "channel": 4,
      "note": 69,
      "start": 41.787,
      "duration": 0.0517,
      "velocity": 120,
      "chip": "ym2612"
    },
    {
      "channel": 0,
      "note": 52,
      "start": 41.8369,
      "duration": 0.1333,
      "velocity": 86,
      "chip": "ym2612"
    },
    {
      "channel": 1,
      "note": 69,
      "start": 41.8372,
      "duration": 0.1331,
      "velocity": 86,
      "chip": "ym2612"
    },
    {
      "channel": 2,
      "note": 64,
      "start": 41.8385,
      "duration": 0.1651,
      "velocity": 88,
      "chip": "ym2612"
    },
    {
      "channel": 4,
      "note": 69,
      "start": 41.839,
      "duration": 0.2487,
      "velocity": 120,
      "chip": "ym2612"
    },
    {
      "channel": 3,
      "note": 64,
      "start": 41.9882,
      "duration": 0.149,
      "velocity": 88,
      "chip": "ym2612"
    },
    {
      "channel": 2,
      "note": 64,
      "start": 42.0038,
      "duration": 0.1667,
      "velocity": 88,
      "chip": "ym2612"
    },
    {
      "channel": 0,
      "note": 52,
      "start": 42.0872,
      "duration": 0.1166,
      "velocity": 86,
      "chip": "ym2612"
    },
    {
      "channel": 1,
      "note": 69,
      "start": 42.0876,
      "duration": 0.1164,
      "velocity": 86,
      "chip": "ym2612"
    },
    {
      "channel": 4,
      "note": 69,
      "start": 42.0879,
      "duration": 0.2338,
      "velocity": 120,
      "chip": "ym2612"
    },
    {
      "channel": 3,
      "note": 64,
      "start": 42.1374,
      "duration": 0.1666,
      "velocity": 88,
      "chip": "ym2612"
    },
    {
      "channel": 2,
      "note": 64,
      "start": 42.1707,
      "duration": 0.1505,
      "velocity": 88,
      "chip": "ym2612"
    },
    {
      "channel": 3,
      "note": 64,
      "start": 42.3043,
      "duration": 0.1667,
      "velocity": 88,
      "chip": "ym2612"
    },
    {
      "channel": 0,
      "note": 45,
      "start": 42.3209,
      "duration": 0.2501,
      "velocity": 86,
      "chip": "ym2612"
    },
    {
      "channel": 1,
      "note": 68,
      "start": 42.3212,
      "duration": 0.2501,
      "velocity": 86,
      "chip": "ym2612"
    },
    {
      "channel": 2,
      "note": 69,
      "start": 42.3215,
      "duration": 0.4837,
      "velocity": 88,
      "chip": "ym2612"
    },
    {
      "channel": 4,
      "note": 69,
      "start": 42.322,
      "duration": 0.0656,
      "velocity": 120,
      "chip": "ym2612"
    },
    {
      "channel": 4,
      "note": 69,
      "start": 42.3878,
      "duration": 0.0498,
      "velocity": 120,
      "chip": "ym2612"
    },
    {
      "channel": 4,
      "note": 69,
      "start": 42.4379,
      "duration": 0.0665,
      "velocity": 120,
      "chip": "ym2612"
    },
    {
      "channel": 3,
      "note": 69,
      "start": 42.4712,
      "duration": 0.467,
      "velocity": 88,
      "chip": "ym2612"
    },
    {
      "channel": 4,
      "note": 69,
      "start": 42.5046,
      "duration": 0.0671,
      "velocity": 120,
      "chip": "ym2612"
    },
    {
      "channel": 0,
      "note": 52,
      "start": 42.5712,
      "duration": 0.1166,
      "velocity": 86,
      "chip": "ym2612"
    },
    {
      "channel": 1,
      "note": 69,
      "start": 42.5715,
      "duration": 0.1164,
      "velocity": 86,
      "chip": "ym2612"
    },
    {
      "channel": 4,
      "note": 69,
      "start": 42.572,
      "duration": 0.0493,
      "velocity": 120,
      "chip": "ym2612"
    },
    {
      "channel": 4,
      "note": 69,
      "start": 42.6214,
      "duration": 0.0667,
      "velocity": 120,
      "chip": "ym2612"
    },
    {
      "channel": 4,
      "note": 69,
      "start": 42.6884,
      "duration": 0.0496,
      "velocity": 120,
      "chip": "ym2612"
    },
    {
      "channel": 4,
      "note": 69,
      "start": 42.7382,
      "duration": 0.0675,
      "velocity": 120,
      "chip": "ym2612"
    },
    {
      "channel": 0,
      "note": 52,
      "start": 42.8048,
      "duration": 0.1166,
      "velocity": 86,
      "chip": "ym2612"
    },
    {
      "channel": 1,
      "note": 69,
      "start": 42.8051,
      "duration": 0.1164,
      "velocity": 86,
      "chip": "ym2612"
    },
    {
      "channel": 2,
      "note": 57,
      "start": 42.8054,
      "duration": 0.2334,
      "velocity": 88,
      "chip": "ym2612"
    },
    {
      "channel": 4,
      "note": 69,
      "start": 42.8059,
      "duration": 0.2332,
      "velocity": 120,
      "chip": "ym2612"
    },
    {
      "channel": 3,
      "note": 57,
      "start": 42.9384,
      "duration": 0.2501,
      "velocity": 88,
      "chip": "ym2612"
    },
    {
      "channel": 0,
      "note": 52,
      "start": 43.0384,
      "duration": 0.1333,
      "velocity": 86,
      "chip": "ym2612"
    },
    {
      "channel": 1,
      "note": 69,
      "start": 43.0388,
      "duration": 0.1331,
      "velocity": 86,
      "chip": "ym2612"
    },
    {
      "channel": 2,
      "note": 64,
      "start": 43.0391,
      "duration": 0.2503,
      "velocity": 88,
      "chip": "ym2612"
    },
    {
      "channel": 4,
      "note": 69,
      "start": 43.0394,
      "duration": 0.2505,
      "velocity": 120,
      "chip": "ym2612"
    },
    {
      "channel": 3,
      "note": 64,
      "start": 43.1887,
      "duration": 0.2336,
      "velocity": 88,
      "chip": "ym2612"
    },
    {
      "channel": 0,
      "note": 45,
      "start": 43.2888,
      "duration": 0.2334,
      "velocity": 86,
      "chip": "ym2612"
    },
    {
      "channel": 1,
      "note": 68,
      "start": 43.2891,
      "duration": 0.2334,
      "velocity": 86,
      "chip": "ym2612"
    },
    {
      "channel": 2,
      "note": 69,
      "start": 43.2896,
      "duration": 0.4836,
      "velocity": 88,
      "chip": "ym2612"
    },
    {
      "channel": 4,
      "note": 69,
      "start": 43.2901,
      "duration": 0.0487,
      "velocity": 120,
      "chip": "ym2612"
    },
    {
      "channel": 4,
      "note": 69,
      "start": 43.339,
      "duration": 0.0665,
      "velocity": 120,
      "chip": "ym2612"
    },
    {
      "channel": 4,
      "note": 69,
      "start": 43.4058,
      "duration": 0.0665,
      "velocity": 120,
      "chip": "ym2612"
    },
    {
      "channel": 3,
      "note": 69,
      "start": 43.4225,
      "duration": 0.4836,
      "velocity": 88,
      "chip": "ym2612"
    },
    {
      "channel": 4,
      "note": 69,
      "start": 43.4725,
      "duration": 0.0504,
      "velocity": 120,
      "chip": "ym2612"
    },
    {
      "channel": 0,
      "note": 52,
      "start": 43.5224,
      "duration": 0.1166,
      "velocity": 86,
      "chip": "ym2612"
    },
    {
      "channel": 1,
      "note": 69,
      "start": 43.5228,
      "duration": 0.1164,
      "velocity": 86,
      "chip": "ym2612"
    },
    {
      "channel": 4,
      "note": 69,
      "start": 43.5232,
      "duration": 0.0659,
      "velocity": 120,
      "chip": "ym2612"
    },
    {
      "channel": 4,
      "note": 69,
      "start": 43.5893,
      "duration": 0.05,
      "velocity": 120,
      "chip": "ym2612"
    },
    {
      "channel": 4,
      "note": 69,
      "start": 43.6396,
      "duration": 0.0663,
      "velocity": 120,
      "chip": "ym2612"
    },
    {
      "channel": 4,
      "note": 69,
      "start": 43.7061,
      "duration": 0.0675,
      "velocity": 120,
      "chip": "ym2612"
    },
    {
      "channel": 0,
      "note": 52,
      "start": 43.7727,
      "duration": 0.1166,
      "velocity": 86,
      "chip": "ym2612"
    },
    {
      "channel": 1,
      "note": 69,
      "start": 43.7731,
      "duration": 0.1164,
      "velocity": 86,
      "chip": "ym2612"
    },
    {
      "channel": 2,
      "note": 57,
      "start": 43.7734,
      "duration": 0.2334,
      "velocity": 88,
      "chip": "ym2612"
    },
    {
      "channel": 4,
      "note": 69,
      "start": 43.7739,
      "duration": 0.2332,
      "velocity": 120,
      "chip": "ym2612"
    },
    {
      "channel": 3,
      "note": 57,
      "start": 43.9063,
      "duration": 0.2334,
      "velocity": 88,
      "chip": "ym2612"
    },
    {
      "channel": 0,
      "note": 52,
      "start": 44.0063,
      "duration": 0.1166,
      "velocity": 86,
      "chip": "ym2612"
    },
    {
      "channel": 1,
      "note": 69,
      "start": 44.0067,
      "duration": 0.1164,
      "velocity": 86,
      "chip": "ym2612"
    },
    {
      "channel": 2,
      "note": 64,
      "start": 44.007,
      "duration": 0.2336,
      "velocity": 88,
      "chip": "ym2612"
    },
    {
      "channel": 4,
      "note": 69,
      "start": 44.0073,
      "duration": 0.2338,
      "velocity": 120,
      "chip": "ym2612"
    },
    {
      "channel": 3,
      "note": 64,
      "start": 44.14,
      "duration": 0.2503,
      "velocity": 88,
      "chip": "ym2612"
    },
    {
      "channel": 0,
      "note": 45,
      "start": 44.24,
      "duration": 0.2501,
      "velocity": 86,
      "chip": "ym2612"
    },
    {
      "channel": 1,
      "note": 68,
      "start": 44.2404,
      "duration": 0.2501,
      "velocity": 86,
      "chip": "ym2612"
    },
    {
      "channel": 2,
      "note": 69,
      "start": 44.2408,
      "duration": 0.4836,
      "velocity": 88,
      "chip": "ym2612"
    },
    {
      "channel": 4,
      "note": 69,
      "start": 44.2413,
      "duration": 0.0654,
      "velocity": 120,
      "chip": "ym2612"
    },
    {
      "channel": 4,
      "note": 69,
      "start": 44.3069,
      "duration": 0.0665,
      "velocity": 120,
      "chip": "ym2612"
    },
    {
      "channel": 4,
      "note": 69,
      "start": 44.3737,
      "duration": 0.0498,
      "velocity": 120,
      "chip": "ym2612"
    },
    {
      "channel": 3,
      "note": 69,
      "start": 44.3905,
      "duration": 0.4836,
      "velocity": 88,
      "chip": "ym2612"
    },
    {
      "channel": 4,
      "note": 69,
      "start": 44.4238,
      "duration": 0.0671,
      "velocity": 120,
      "chip": "ym2612"
    },
    {
      "channel": 0,
      "note": 52,
      "start": 44.4903,
      "duration": 0.1166,
      "velocity": 86,
      "chip": "ym2612"
    },
    {
      "channel": 1,
      "note": 69,
      "start": 44.4907,
      "duration": 0.1164,
      "velocity": 86,
      "chip": "ym2612"
    },
    {
      "channel": 4,
      "note": 69,
      "start": 44.4911,
      "duration": 0.0493,
      "velocity": 120,
      "chip": "ym2612"
    },
    {
      "channel": 4,
      "note": 69,
      "start": 44.5406,
      "duration": 0.0667,
      "velocity": 120,
      "chip": "ym2612"
    },
    {
      "channel": 4,
      "note": 69,
      "start": 44.6075,
      "duration": 0.0663,
      "velocity": 120,
      "chip": "ym2612"
    },
    {
      "channel": 4,
      "note": 69,
      "start": 44.6741,
      "duration": 0.0508,
      "velocity": 120,
      "chip": "ym2612"
    },
    {
      "channel": 0,
      "note": 52,
      "start": 44.7239,
      "duration": 0.1166,
      "velocity": 86,
      "chip": "ym2612"
    },
    {
      "channel": 1,
      "note": 69,
      "start": 44.7243,
      "duration": 0.1164,
      "velocity": 86,
      "chip": "ym2612"
    },
    {
      "channel": 2,
      "note": 57,
      "start": 44.7246,
      "duration": 0.2501,
      "velocity": 88,
      "chip": "ym2612"
    },
    {
      "channel": 4,
      "note": 69,
      "start": 44.7251,
      "duration": 0.2499,
      "velocity": 120,
      "chip": "ym2612"
    },
    {
      "channel": 3,
      "note": 57,
      "start": 44.8743,
      "duration": 0.2334,
      "velocity": 88,
      "chip": "ym2612"
    },
    {
      "channel": 0,
      "note": 52,
      "start": 44.9743,
      "duration": 0.1166,
      "velocity": 86,
      "chip": "ym2612"
    },
    {
      "channel": 1,
      "note": 69,
      "start": 44.9746,
      "duration": 0.1164,
      "velocity": 86,
      "chip": "ym2612"
    },
    {
      "channel": 2,
      "note": 64,
      "start": 44.9749,
      "duration": 0.2336,
      "velocity": 88,
      "chip": "ym2612"
    },
    {
      "channel": 4,
      "note": 69,
      "start": 44.9752,
      "duration": 0.2338,
      "velocity": 120,
      "chip": "ym2612"
    },
    {
      "channel": 3,
      "note": 64,
      "start": 45.1079,
      "duration": 0.2336,
      "velocity": 88,
      "chip": "ym2612"
    },
    {
      "channel": 0,
      "note": 45,
      "start": 45.2079,
      "duration": 0.2334,
      "velocity": 86,
      "chip": "ym2612"
    },
    {
      "channel": 1,
      "note": 68,
      "start": 45.2083,
      "duration": 0.2334,
      "velocity": 86,
      "chip": "ym2612"
    },
    {
      "channel": 2,
      "note": 69,
      "start": 45.2087,
      "duration": 0.4836,
      "velocity": 88,
      "chip": "ym2612"
    },
    {
      "channel": 4,
      "note": 69,
      "start": 45.2092,
      "duration": 0.0654,
      "velocity": 120,
      "chip": "ym2612"
    },
    {
      "channel": 4,
      "note": 69,
      "start": 45.2749,
      "duration": 0.0498,
      "velocity": 120,
      "chip": "ym2612"
    },
    {
      "channel": 4,
      "note": 69,
      "start": 45.3249,
      "duration": 0.0665,
      "velocity": 120,
      "chip": "ym2612"
    },
    {
      "channel": 3,
      "note": 69,
      "start": 45.3417,
      "duration": 0.4836,
      "velocity": 88,
      "chip": "ym2612"
    },
    {
      "channel": 4,
      "note": 69,
      "start": 45.3917,
      "duration": 0.0504,
      "velocity": 120,
      "chip": "ym2612"
    },
    {
      "channel": 0,
      "note": 52,
      "start": 45.4415,
      "duration": 0.1333,
      "velocity": 86,
      "chip": "ym2612"
    },
    {
      "channel": 1,
      "note": 69,
      "start": 45.4419,
      "duration": 0.1331,
      "velocity": 86,
      "chip": "ym2612"
    },
    {
      "channel": 4,
      "note": 69,
      "start": 45.4423,
      "duration": 0.0659,
      "velocity": 120,
      "chip": "ym2612"
    },
    {
      "channel": 4,
      "note": 69,
      "start": 45.5085,
      "duration": 0.0667,
      "velocity": 120,
      "chip": "ym2612"
    },
    {
      "channel": 4,
      "note": 69,
      "start": 45.5754,
      "duration": 0.0496,
      "velocity": 120,
      "chip": "ym2612"
    },
    {
      "channel": 4,
      "note": 69,
      "start": 45.6253,
      "duration": 0.0675,
      "velocity": 120,
      "chip": "ym2612"
    },
    {
      "channel": 0,
      "note": 52,
      "start": 45.6919,
      "duration": 0.1166,
      "velocity": 86,
      "chip": "ym2612"
    },
    {
      "channel": 1,
      "note": 69,
      "start": 45.6922,
      "duration": 0.1164,
      "velocity": 86,
      "chip": "ym2612"
    },
    {
      "channel": 2,
      "note": 57,
      "start": 45.6925,
      "duration": 0.2334,
      "velocity": 88,
      "chip": "ym2612"
    },
    {
      "channel": 4,
      "note": 69,
      "start": 45.693,
      "duration": 0.2332,
      "velocity": 120,
      "chip": "ym2612"
    },
    {
      "channel": 3,
      "note": 57,
      "start": 45.8255,
      "duration": 0.2501,
      "velocity": 88,
      "chip": "ym2612"
    },
    {
      "channel": 0,
      "note": 52,
      "start": 45.9255,
      "duration": 0.1166,
      "velocity": 86,
      "chip": "ym2612"
    },
    {
      "channel": 1,
      "note": 69,
      "start": 45.9258,
      "duration": 0.1164,
      "velocity": 86,
      "chip": "ym2612"
    },
    {
      "channel": 2,
      "note": 64,
      "start": 45.9261,
      "duration": 0.2514,
      "velocity": 86,
      "chip": "ym2612"
    },
    {
      "channel": 4,
      "note": 69,
      "start": 45.9264,
      "duration": 0.2515,
      "velocity": 120,
      "chip": "ym2612"
    },
    {
      "channel": 3,
      "note": 64,
      "start": 46.0758,
      "duration": 0.2347,
      "velocity": 86,
      "chip": "ym2612"
    },
    {
      "channel": 0,
      "note": 45,
      "start": 46.1759,
      "duration": 0.1836,
      "velocity": 86,
      "chip": "ym2612"
    },
    {
      "channel": 1,
      "note": 68,
      "start": 46.1762,
      "duration": 0.1832,
      "velocity": 86,
      "chip": "ym2612"
    },
    {
      "channel": 2,
      "note": 80,
      "start": 46.1777,
      "duration": 0.1817,
      "velocity": 86,
      "chip": "ym2612"
    },
    {
      "channel": 4,
      "note": 69,
      "start": 46.1782,
      "duration": 0.0476,
      "velocity": 120,
      "chip": "ym2612"
    },
    {
      "channel": 4,
      "note": 69,
      "start": 46.2261,
      "duration": 0.0665,
      "velocity": 120,
      "chip": "ym2612"
    },
    {
      "channel": 4,
      "note": 69,
      "start": 46.2928,
      "duration": 0.0498,
      "velocity": 120,
      "chip": "ym2612"
    },
    {
      "channel": 3,
      "note": 80,
      "start": 46.3107,
      "duration": 0.0488,
      "velocity": 86,
      "chip": "ym2612"
    },
    {
      "channel": 4,
      "note": 69,
      "start": 46.3429,
      "duration": 0.0166,
      "velocity": 120,
      "chip": "ym2612"
    }
  ]
}