{
  "track_name": "04 - Choose a Door",
  "duration_sec": 43.73,
  "sample_rate": 44100,
  "note_count": 552,
  "unique_pitches": 20,
  "pitch_range": 38,
  "avg_note_duration": 0.3664,
  "reconstruction_stats": {
    "notes_reconstructed": 552,
    "keyon_events": 552,
    "keyoff_events": 547,
    "orphan_keyons": 5,
    "unique_pitches": 20,
    "pitch_range": 38,
    "avg_duration_sec": 0.3664
  },
  "metadata": {
    "source": "S\\Splatterhouse 3\\04 - Choose a Door.vgz"
  },
  "notes": [
    {
      "channel": 0,
      "note": 81,
      "start": 0.0,
      "duration": 2.1285,
      "velocity": 99,
      "chip": "ym2612"
    },
    {
      "channel": 2,
      "note": 64,
      "start": 0.0068,
      "duration": 2.1232,
      "velocity": 102,
      "chip": "ym2612"
    },
    {
      "channel": 3,
      "note": 59,
      "start": 0.0108,
      "duration": 0.1179,
      "velocity": 102,
      "chip": "ym2612"
    },
    {
      "channel": 5,
      "note": 57,
      "start": 0.015,
      "duration": 0.1175,
      "velocity": 124,
      "chip": "ym2612"
    },
    {
      "channel": 3,
      "note": 60,
      "start": 0.1289,
      "duration": 0.1336,
      "velocity": 102,
      "chip": "ym2612"
    },
    {
      "channel": 5,
      "note": 57,
      "start": 0.1327,
      "duration": 0.1371,
      "velocity": 124,
      "chip": "ym2612"
    },
    {
      "channel": 3,
      "note": 59,
      "start": 0.2626,
      "duration": 0.1327,
      "velocity": 102,
      "chip": "ym2612"
    },
    {
      "channel": 4,
      "note": 81,
      "start": 0.2663,
      "duration": 2.1302,
      "velocity": 99,
      "chip": "ym2612"
    },
    {
      "channel": 5,
      "note": 57,
      "start": 0.2699,
      "duration": 0.1294,
      "velocity": 124,
      "chip": "ym2612"
    },
    {
      "channel": 3,
      "note": 60,
      "start": 0.3954,
      "duration": 0.1332,
      "velocity": 102,
      "chip": "ym2612"
    },
    {
      "channel": 5,
      "note": 57,
      "start": 0.3995,
      "duration": 0.1332,
      "velocity": 124,
      "chip": "ym2612"
    },
    {
      "channel": 3,
      "note": 59,
      "start": 0.5287,
      "duration": 0.1333,
      "velocity": 102,
      "chip": "ym2612"
    },
    {
      "channel": 5,
      "note": 57,
      "start": 0.5327,
      "duration": 0.1333,
      "velocity": 124,
      "chip": "ym2612"
    },
    {
      "channel": 3,
      "note": 60,
      "start": 0.6621,
      "duration": 0.133,
      "velocity": 102,
      "chip": "ym2612"
    },
    {
      "channel": 5,
      "note": 57,
      "start": 0.6661,
      "duration": 0.133,
      "velocity": 124,
      "chip": "ym2612"
    },
    {
      "channel": 3,
      "note": 59,
      "start": 0.7952,
      "duration": 0.1332,
      "velocity": 102,
      "chip": "ym2612"
    },
    {
      "channel": 5,
      "note": 57,
      "start": 0.7992,
      "duration": 0.1332,
      "velocity": 124,
      "chip": "ym2612"
    },
    {
      "channel": 3,
      "note": 60,
      "start": 0.9285,
      "duration": 0.1333,
      "velocity": 102,
      "chip": "ym2612"
    },
    {
      "channel": 5,
      "note": 57,
      "start": 0.9325,
      "duration": 0.1333,
      "velocity": 124,
      "chip": "ym2612"
    },
    {
      "channel": 3,
      "note": 59,
      "start": 1.0619,
      "duration": 0.1333,
      "velocity": 102,
      "chip": "ym2612"
    },
    {
      "channel": 5,
      "note": 57,
      "start": 1.0659,
      "duration": 0.1332,
      "velocity": 124,
      "chip": "ym2612"
    },
    {
      "channel": 3,
      "note": 60,
      "start": 1.1953,
      "duration": 0.1332,
      "velocity": 102,
      "chip": "ym2612"
    },
    {
      "channel": 5,
      "note": 57,
      "start": 1.1993,
      "duration": 0.1331,
      "velocity": 124,
      "chip": "ym2612"
    },
    {
      "channel": 3,
      "note": 59,
      "start": 1.3285,
      "duration": 0.1332,
      "velocity": 102,
      "chip": "ym2612"
    },
    {
      "channel": 5,
      "note": 57,
      "start": 1.3325,
      "duration": 0.1332,
      "velocity": 124,
      "chip": "ym2612"
    },
    {
      "channel": 3,
      "note": 60,
      "start": 1.4619,
      "duration": 0.1332,
      "velocity": 102,
      "chip": "ym2612"
    },
    {
      "channel": 5,
      "note": 57,
      "start": 1.4658,
      "duration": 0.1332,
      "velocity": 124,
      "chip": "ym2612"
    },
    {
      "channel": 3,
      "note": 59,
      "start": 1.5952,
      "duration": 0.1332,
      "velocity": 102,
      "chip": "ym2612"
    },
    {
      "channel": 5,
      "note": 57,
      "start": 1.5991,
      "duration": 0.1332,
      "velocity": 124,
      "chip": "ym2612"
    },
    {
      "channel": 3,
      "note": 60,
      "start": 1.7285,
      "duration": 0.1332,
      "velocity": 102,
      "chip": "ym2612"
    },
    {
      "channel": 5,
      "note": 57,
      "start": 1.7324,
      "duration": 0.1332,
      "velocity": 124,
      "chip": "ym2612"
    },
    {
      "channel": 3,
      "note": 59,
      "start": 1.8618,
      "duration": 0.1333,
      "velocity": 102,
      "chip": "ym2612"
    },
    {
      "channel": 5,
      "note": 57,
      "start": 1.8657,
      "duration": 0.1333,
      "velocity": 124,
      "chip": "ym2612"
    },
    {
      "channel": 3,
      "note": 60,
      "start": 1.9951,
      "duration": 0.1358,
      "velocity": 102,
      "chip": "ym2612"
    },
    {
      "channel": 5,
      "note": 57,
      "start": 1.999,
      "duration": 0.1358,
      "velocity": 124,
      "chip": "ym2612"
    },
    {
      "channel": 0,
      "note": 87,
      "start": 2.1286,
      "duration": 2.1332,
      "velocity": 99,
      "chip": "ym2612"
    },
    {
      "channel": 2,
      "note": 69,
      "start": 2.13,
      "duration": 2.1332,
      "velocity": 102,
      "chip": "ym2612"
    },
    {
      "channel": 3,
      "note": 59,
      "start": 2.131,
      "duration": 0.1311,
      "velocity": 102,
      "chip": "ym2612"
    },
    {
      "channel": 5,
      "note": 57,
      "start": 2.1349,
      "duration": 0.1311,
      "velocity": 124,
      "chip": "ym2612"
    },
    {
      "channel": 3,
      "note": 60,
      "start": 2.2622,
      "duration": 0.1333,
      "velocity": 102,
      "chip": "ym2612"
    },
    {
      "channel": 5,
      "note": 57,
      "start": 2.2661,
      "duration": 0.134,
      "velocity": 124,
      "chip": "ym2612"
    },
    {
      "channel": 3,
      "note": 59,
      "start": 2.3956,
      "duration": 0.1331,
      "velocity": 102,
      "chip": "ym2612"
    },
    {
      "channel": 4,
      "note": 87,
      "start": 2.3966,
      "duration": 2.1332,
      "velocity": 99,
      "chip": "ym2612"
    },
    {
      "channel": 5,
      "note": 57,
      "start": 2.4002,
      "duration": 0.1324,
      "velocity": 124,
      "chip": "ym2612"
    },
    {
      "channel": 3,
      "note": 60,
      "start": 2.5287,
      "duration": 0.1333,
      "velocity": 102,
      "chip": "ym2612"
    },
    {
      "channel": 5,
      "note": 57,
      "start": 2.5327,
      "duration": 0.1332,
      "velocity": 124,
      "chip": "ym2612"
    },
    {
      "channel": 3,
      "note": 59,
      "start": 2.6621,
      "duration": 0.1332,
      "velocity": 102,
      "chip": "ym2612"
    },
    {
      "channel": 5,
      "note": 57,
      "start": 2.6661,
      "duration": 0.1333,
      "velocity": 124,
      "chip": "ym2612"
    },
    {
      "channel": 3,
      "note": 60,
      "start": 2.7954,
      "duration": 0.133,
      "velocity": 102,
      "chip": "ym2612"
    },
    {
      "channel": 5,
      "note": 57,
      "start": 2.7994,
      "duration": 0.133,
      "velocity": 124,
      "chip": "ym2612"
    },
    {
      "channel": 3,
      "note": 59,
      "start": 2.9285,
      "duration": 0.1332,
      "velocity": 102,
      "chip": "ym2612"
    },
    {
      "channel": 5,
      "note": 57,
      "start": 2.9325,
      "duration": 0.1331,
      "velocity": 124,
      "chip": "ym2612"
    },
    {
      "channel": 3,
      "note": 60,
      "start": 3.0618,
      "duration": 0.1333,
      "velocity": 102,
      "chip": "ym2612"
    },
    {
      "channel": 5,
      "note": 57,
      "start": 3.0658,
      "duration": 0.1333,
      "velocity": 124,
      "chip": "ym2612"
    },
    {
      "channel": 3,
      "note": 59,
      "start": 3.1953,
      "duration": 0.1332,
      "velocity": 102,
      "chip": "ym2612"
    },
    {
      "channel": 5,
      "note": 57,
      "start": 3.1992,
      "duration": 0.1332,
      "velocity": 124,
      "chip": "ym2612"
    },
    {
      "channel": 3,
      "note": 60,
      "start": 3.3286,
      "duration": 0.1332,
      "velocity": 102,
      "chip": "ym2612"
    },
    {
      "channel": 5,
      "note": 57,
      "start": 3.3325,
      "duration": 0.1332,
      "velocity": 124,
      "chip": "ym2612"
    },
    {
      "channel": 3,
      "note": 59,
      "start": 3.4619,
      "duration": 0.1332,
      "velocity": 102,
      "chip": "ym2612"
    },
    {
      "channel": 5,
      "note": 57,
      "start": 3.4658,
      "duration": 0.1333,
      "velocity": 124,
      "chip": "ym2612"
    },
    {
      "channel": 3,
      "note": 60,
      "start": 3.5952,
      "duration": 0.1332,
      "velocity": 102,
      "chip": "ym2612"
    },
    {
      "channel": 5,
      "note": 57,
      "start": 3.5992,
      "duration": 0.1332,
      "velocity": 124,
      "chip": "ym2612"
    },
    {
      "channel": 3,
      "note": 59,
      "start": 3.7285,
      "duration": 0.1332,
      "velocity": 102,
      "chip": "ym2612"
    },
    {
      "channel": 5,
      "note": 57,
      "start": 3.7325,
      "duration": 0.1331,
      "velocity": 124,
      "chip": "ym2612"
    },
    {
      "channel": 3,
      "note": 60,
      "start": 3.8619,
      "duration": 0.1332,
      "velocity": 102,
      "chip": "ym2612"
    },
    {
      "channel": 5,
      "note": 57,
      "start": 3.8657,
      "duration": 0.1332,
      "velocity": 124,
      "chip": "ym2612"
    },
    {
      "channel": 3,
      "note": 59,
      "start": 3.9951,
      "duration": 0.1333,
      "velocity": 102,
      "chip": "ym2612"
    },
    {
      "channel": 5,
      "note": 57,
      "start": 3.999,
      "duration": 0.1333,
      "velocity": 124,
      "chip": "ym2612"
    },
    {
      "channel": 3,
      "note": 60,
      "start": 4.1285,
      "duration": 0.1357,
      "velocity": 102,
      "chip": "ym2612"
    },
    {
      "channel": 5,
      "note": 57,
      "start": 4.1324,
      "duration": 0.1357,
      "velocity": 124,
      "chip": "ym2612"
    },
    {
      "channel": 0,
      "note": 91,
      "start": 4.2619,
      "duration": 4.2667,
      "velocity": 99,
      "chip": "ym2612"
    },
    {
      "channel": 2,
      "note": 71,
      "start": 4.2633,
      "duration": 4.2667,
      "velocity": 102,
      "chip": "ym2612"
    },
    {
      "channel": 3,
      "note": 59,
      "start": 4.2643,
      "duration": 0.1312,
      "velocity": 102,
      "chip": "ym2612"
    },
    {
      "channel": 5,
      "note": 57,
      "start": 4.2682,
      "duration": 0.1312,
      "velocity": 124,
      "chip": "ym2612"
    },
    {
      "channel": 3,
      "note": 60,
      "start": 4.3956,
      "duration": 0.1332,
      "velocity": 102,
      "chip": "ym2612"
    },
    {
      "channel": 5,
      "note": 57,
      "start": 4.3995,
      "duration": 0.134,
      "velocity": 124,
      "chip": "ym2612"
    },
    {
      "channel": 3,
      "note": 59,
      "start": 4.5289,
      "duration": 0.1331,
      "velocity": 102,
      "chip": "ym2612"
    },
    {
      "channel": 4,
      "note": 91,
      "start": 4.5299,
      "duration": 4.2666,
      "velocity": 99,
      "chip": "ym2612"
    },
    {
      "channel": 5,
      "note": 57,
      "start": 4.5336,
      "duration": 0.1324,
      "velocity": 124,
      "chip": "ym2612"
    },
    {
      "channel": 3,
      "note": 60,
      "start": 4.6621,
      "duration": 0.1332,
      "velocity": 102,
      "chip": "ym2612"
    },
    {
      "channel": 5,
      "note": 57,
      "start": 4.6661,
      "duration": 0.1332,
      "velocity": 124,
      "chip": "ym2612"
    },
    {
      "channel": 3,
      "note": 59,
      "start": 4.7954,
      "duration": 0.1333,
      "velocity": 102,
      "chip": "ym2612"
    },
    {
      "channel": 5,
      "note": 57,
      "start": 4.7994,
      "duration": 0.1333,
      "velocity": 124,
      "chip": "ym2612"
    },
    {
      "channel": 3,
      "note": 60,
      "start": 4.9288,
      "duration": 0.134,
      "velocity": 102,
      "chip": "ym2612"
    },
    {
      "channel": 5,
      "note": 57,
      "start": 4.9327,
      "duration": 0.134,
      "velocity": 124,
      "chip": "ym2612"
    },
    {
      "channel": 1,
      "note": 57,
      "start": 5.0617,
      "duration": 0.2666,
      "velocity": 85,
      "chip": "ym2612"
    },
    {
      "channel": 3,
      "note": 59,
      "start": 5.0629,
      "duration": 0.1325,
      "velocity": 102,
      "chip": "ym2612"
    },
    {
      "channel": 5,
      "note": 57,
      "start": 5.0669,
      "duration": 0.1325,
      "velocity": 124,
      "chip": "ym2612"
    },
    {
      "channel": 3,
      "note": 60,
      "start": 5.1955,
      "duration": 0.134,
      "velocity": 102,
      "chip": "ym2612"
    },
    {
      "channel": 5,
      "note": 57,
      "start": 5.1995,
      "duration": 0.134,
      "velocity": 124,
      "chip": "ym2612"
    },
    {
      "channel": 1,
      "note": 57,
      "start": 5.3284,
      "duration": 0.5331,
      "velocity": 85,
      "chip": "ym2612"
    },
    {
      "channel": 3,
      "note": 59,
      "start": 5.3296,
      "duration": 0.1325,
      "velocity": 102,
      "chip": "ym2612"
    },
    {
      "channel": 5,
      "note": 57,
      "start": 5.3336,
      "duration": 0.1325,
      "velocity": 124,
      "chip": "ym2612"
    },
    {
      "channel": 3,
      "note": 60,
      "start": 5.4622,
      "duration": 0.1331,
      "velocity": 102,
      "chip": "ym2612"
    },
    {
      "channel": 5,
      "note": 57,
      "start": 5.4663,
      "duration": 0.1331,
      "velocity": 124,
      "chip": "ym2612"
    },
    {
      "channel": 3,
      "note": 59,
      "start": 5.5954,
      "duration": 0.1333,
      "velocity": 102,
      "chip": "ym2612"
    },
    {
      "channel": 5,
      "note": 57,
      "start": 5.5995,
      "duration": 0.1332,
      "velocity": 124,
      "chip": "ym2612"
    },
    {
      "channel": 3,
      "note": 60,
      "start": 5.7288,
      "duration": 0.1339,
      "velocity": 102,
      "chip": "ym2612"
    },
    {
      "channel": 5,
      "note": 57,
      "start": 5.7328,
      "duration": 0.1339,
      "velocity": 124,
      "chip": "ym2612"
    },
    {
      "channel": 1,
      "note": 57,
      "start": 5.8617,
      "duration": 0.2661,
      "velocity": 85,
      "chip": "ym2612"
    },
    {
      "channel": 3,
      "note": 59,
      "start": 5.8629,
      "duration": 0.1325,
      "velocity": 102,
      "chip": "ym2612"
    },
    {
      "channel": 5,
      "note": 57,
      "start": 5.8668,
      "duration": 0.1324,
      "velocity": 124,
      "chip": "ym2612"
    },
    {
      "channel": 3,
      "note": 60,
      "start": 5.9955,
      "duration": 0.1334,
      "velocity": 102,
      "chip": "ym2612"
    },
    {
      "channel": 5,
      "note": 57,
      "start": 5.9993,
      "duration": 0.1334,
      "velocity": 124,
      "chip": "ym2612"
    },
    {
      "channel": 3,
      "note": 59,
      "start": 6.129,
      "duration": 0.1327,
      "velocity": 102,
      "chip": "ym2612"
    },
    {
      "channel": 5,
      "note": 57,
      "start": 6.1329,
      "duration": 0.1327,
      "velocity": 124,
      "chip": "ym2612"
    },
    {
      "channel": 3,
      "note": 60,
      "start": 6.2619,
      "duration": 0.134,
      "velocity": 102,
      "chip": "ym2612"
    },
    {
      "channel": 5,
      "note": 57,
      "start": 6.2657,
      "duration": 0.134,
      "velocity": 124,
      "chip": "ym2612"
    },
    {
      "channel": 3,
      "note": 59,
      "start": 6.396,
      "duration": 0.1326,
      "velocity": 102,
      "chip": "ym2612"
    },
    {
      "channel": 5,
      "note": 57,
      "start": 6.3999,
      "duration": 0.1326,
      "velocity": 124,
      "chip": "ym2612"
    },
    {
      "channel": 3,
      "note": 60,
      "start": 6.5287,
      "duration": 0.1331,
      "velocity": 102,
      "chip": "ym2612"
    },
    {
      "channel": 5,
      "note": 57,
      "start": 6.5325,
      "duration": 0.1331,
      "velocity": 124,
      "chip": "ym2612"
    },
    {
      "channel": 3,
      "note": 59,
      "start": 6.6619,
      "duration": 0.1332,
      "velocity": 102,
      "chip": "ym2612"
    },
    {
      "channel": 5,
      "note": 57,
      "start": 6.6658,
      "duration": 0.1332,
      "velocity": 124,
      "chip": "ym2612"
    },
    {
      "channel": 3,
      "note": 60,
      "start": 6.7952,
      "duration": 0.1332,
      "velocity": 102,
      "chip": "ym2612"
    },
    {
      "channel": 5,
      "note": 57,
      "start": 6.7991,
      "duration": 0.1332,
      "velocity": 124,
      "chip": "ym2612"
    },
    {
      "channel": 3,
      "note": 59,
      "start": 6.9285,
      "duration": 0.1332,
      "velocity": 102,
      "chip": "ym2612"
    },
    {
      "channel": 5,
      "note": 57,
      "start": 6.9324,
      "duration": 0.1332,
      "velocity": 124,
      "chip": "ym2612"
    },
    {
      "channel": 3,
      "note": 60,
      "start": 7.0618,
      "duration": 0.1333,
      "velocity": 102,
      "chip": "ym2612"
    },
    {
      "channel": 5,
      "note": 57,
      "start": 7.0657,
      "duration": 0.1333,
      "velocity": 124,
      "chip": "ym2612"
    },
    {
      "channel": 3,
      "note": 59,
      "start": 7.1951,
      "duration": 0.1333,
      "velocity": 102,
      "chip": "ym2612"
    },
    {
      "channel": 5,
      "note": 57,
      "start": 7.199,
      "duration": 0.1333,
      "velocity": 124,
      "chip": "ym2612"
    },
    {
      "channel": 3,
      "note": 60,
      "start": 7.3285,
      "duration": 0.1334,
      "velocity": 102,
      "chip": "ym2612"
    },
    {
      "channel": 5,
      "note": 57,
      "start": 7.3323,
      "duration": 0.1334,
      "velocity": 124,
      "chip": "ym2612"
    },
    {
      "channel": 3,
      "note": 59,
      "start": 7.4619,
      "duration": 0.1332,
      "velocity": 102,
      "chip": "ym2612"
    },
    {
      "channel": 5,
      "note": 57,
      "start": 7.4658,
      "duration": 0.1332,
      "velocity": 124,
      "chip": "ym2612"
    },
    {
      "channel": 3,
      "note": 60,
      "start": 7.5953,
      "duration": 0.1331,
      "velocity": 102,
      "chip": "ym2612"
    },
    {
      "channel": 5,
      "note": 57,
      "start": 7.5991,
      "duration": 0.1331,
      "velocity": 124,
      "chip": "ym2612"
    },
    {
      "channel": 3,
      "note": 59,
      "start": 7.7285,
      "duration": 0.1333,
      "velocity": 102,
      "chip": "ym2612"
    },
    {
      "channel": 5,
      "note": 57,
      "start": 7.7323,
      "duration": 0.1332,
      "velocity": 124,
      "chip": "ym2612"
    },
    {
      "channel": 3,
      "note": 60,
      "start": 7.8618,
      "duration": 0.1333,
      "velocity": 102,
      "chip": "ym2612"
    },
    {
      "channel": 5,
      "note": 57,
      "start": 7.8657,
      "duration": 0.1333,
      "velocity": 124,
      "chip": "ym2612"
    },
    {
      "channel": 3,
      "note": 59,
      "start": 7.9952,
      "duration": 0.1332,
      "velocity": 102,
      "chip": "ym2612"
    },
    {
      "channel": 5,
      "note": 57,
      "start": 7.9991,
      "duration": 0.1332,
      "velocity": 124,
      "chip": "ym2612"
    },
    {
      "channel": 3,
      "note": 60,
      "start": 8.1285,
      "duration": 0.1333,
      "velocity": 102,
      "chip": "ym2612"
    },
    {
      "channel": 5,
      "note": 57,
      "start": 8.1323,
      "duration": 0.1332,
      "velocity": 124,
      "chip": "ym2612"
    },
    {
      "channel": 3,
      "note": 59,
      "start": 8.2618,
      "duration": 0.1333,
      "velocity": 102,
      "chip": "ym2612"
    },
    {
      "channel": 5,
      "note": 57,
      "start": 8.2657,
      "duration": 0.1333,
      "velocity": 124,
      "chip": "ym2612"
    },
    {
      "channel": 3,
      "note": 60,
      "start": 8.3952,
      "duration": 0.1358,
      "velocity": 102,
      "chip": "ym2612"
    },
    {
      "channel": 5,
      "note": 57,
      "start": 8.3991,
      "duration": 0.1358,
      "velocity": 124,
      "chip": "ym2612"
    },
    {
      "channel": 0,
      "note": 81,
      "start": 8.5287,
      "duration": 2.1331,
      "velocity": 99,
      "chip": "ym2612"
    },
    {
      "channel": 2,
      "note": 64,
      "start": 8.5301,
      "duration": 2.1332,
      "velocity": 102,
      "chip": "ym2612"
    },
    {
      "channel": 3,
      "note": 59,
      "start": 8.5311,
      "duration": 0.131,
      "velocity": 102,
      "chip": "ym2612"
    },
    {
      "channel": 5,
      "note": 57,
      "start": 8.5349,
      "duration": 0.1311,
      "velocity": 124,
      "chip": "ym2612"
    },
    {
      "channel": 3,
      "note": 60,
      "start": 8.6622,
      "duration": 0.1332,
      "velocity": 102,
      "chip": "ym2612"
    },
    {
      "channel": 5,
      "note": 57,
      "start": 8.6661,
      "duration": 0.134,
      "velocity": 124,
      "chip": "ym2612"
    },
    {
      "channel": 3,
      "note": 59,
      "start": 8.7956,
      "duration": 0.1331,
      "velocity": 102,
      "chip": "ym2612"
    },
    {
      "channel": 4,
      "note": 81,
      "start": 8.7965,
      "duration": 2.1332,
      "velocity": 99,
      "chip": "ym2612"
    },
    {
      "channel": 5,
      "note": 57,
      "start": 8.8002,
      "duration": 0.1324,
      "velocity": 124,
      "chip": "ym2612"
    },
    {
      "channel": 3,
      "note": 60,
      "start": 8.9288,
      "duration": 0.1332,
      "velocity": 102,
      "chip": "ym2612"
    },
    {
      "channel": 5,
      "note": 57,
      "start": 8.9328,
      "duration": 0.1332,
      "velocity": 124,
      "chip": "ym2612"
    },
    {
      "channel": 3,
      "note": 59,
      "start": 9.0621,
      "duration": 0.1333,
      "velocity": 102,
      "chip": "ym2612"
    },
    {
      "channel": 5,
      "note": 57,
      "start": 9.0661,
      "duration": 0.1333,
      "velocity": 124,
      "chip": "ym2612"
    },
    {
      "channel": 3,
      "note": 60,
      "start": 9.1954,
      "duration": 0.133,
      "velocity": 102,
      "chip": "ym2612"
    },
    {
      "channel": 5,
      "note": 57,
      "start": 9.1994,
      "duration": 0.133,
      "velocity": 124,
      "chip": "ym2612"
    },
    {
      "channel": 3,
      "note": 59,
      "start": 9.3285,
      "duration": 0.1332,
      "velocity": 102,
      "chip": "ym2612"
    },
    {
      "channel": 5,
      "note": 57,
      "start": 9.3325,
      "duration": 0.1331,
      "velocity": 124,
      "chip": "ym2612"
    },
    {
      "channel": 3,
      "note": 60,
      "start": 9.4618,
      "duration": 0.1333,
      "velocity": 102,
      "chip": "ym2612"
    },
    {
      "channel": 5,
      "note": 57,
      "start": 9.4658,
      "duration": 0.1333,
      "velocity": 124,
      "chip": "ym2612"
    },
    {
      "channel": 3,
      "note": 59,
      "start": 9.5953,
      "duration": 0.1332,
      "velocity": 102,
      "chip": "ym2612"
    },
    {
      "channel": 5,
      "note": 57,
      "start": 9.5992,
      "duration": 0.1332,
      "velocity": 124,
      "chip": "ym2612"
    },
    {
      "channel": 3,
      "note": 60,
      "start": 9.7286,
      "duration": 0.1332,
      "velocity": 102,
      "chip": "ym2612"
    },
    {
      "channel": 5,
      "note": 57,
      "start": 9.7325,
      "duration": 0.1332,
      "velocity": 124,
      "chip": "ym2612"
    },
    {
      "channel": 3,
      "note": 59,
      "start": 9.8619,
      "duration": 0.1332,
      "velocity": 102,
      "chip": "ym2612"
    },
    {
      "channel": 5,
      "note": 57,
      "start": 9.8658,
      "duration": 0.1333,
      "velocity": 124,
      "chip": "ym2612"
    },
    {
      "channel": 3,
      "note": 60,
      "start": 9.9952,
      "duration": 0.1332,
      "velocity": 102,
      "chip": "ym2612"
    },
    {
      "channel": 5,
      "note": 57,
      "start": 9.9992,
      "duration": 0.1332,
      "velocity": 124,
      "chip": "ym2612"
    },
    {
      "channel": 3,
      "note": 59,
      "start": 10.1285,
      "duration": 0.1332,
      "velocity": 102,
      "chip": "ym2612"
    },
    {
      "channel": 5,
      "note": 57,
      "start": 10.1325,
      "duration": 0.1331,
      "velocity": 124,
      "chip": "ym2612"
    },
    {
      "channel": 3,
      "note": 60,
      "start": 10.2619,
      "duration": 0.1332,
      "velocity": 102,
      "chip": "ym2612"
    },
    {
      "channel": 5,
      "note": 57,
      "start": 10.2657,
      "duration": 0.1332,
      "velocity": 124,
      "chip": "ym2612"
    },
    {
      "channel": 3,
      "note": 59,
      "start": 10.3951,
      "duration": 0.1333,
      "velocity": 102,
      "chip": "ym2612"
    },
    {
      "channel": 5,
      "note": 57,
      "start": 10.399,
      "duration": 0.1333,
      "velocity": 124,
      "chip": "ym2612"
    },
    {
      "channel": 3,
      "note": 60,
      "start": 10.5285,
      "duration": 0.1357,
      "velocity": 102,
      "chip": "ym2612"
    },
    {
      "channel": 5,
      "note": 57,
      "start": 10.5324,
      "duration": 0.1357,
      "velocity": 124,
      "chip": "ym2612"
    },
    {
      "channel": 0,
      "note": 87,
      "start": 10.6619,
      "duration": 2.1332,
      "velocity": 99,
      "chip": "ym2612"
    },
    {
      "channel": 2,
      "note": 69,
      "start": 10.6633,
      "duration": 2.1333,
      "velocity": 102,
      "chip": "ym2612"
    },
    {
      "channel": 3,
      "note": 59,
      "start": 10.6643,
      "duration": 0.1312,
      "velocity": 102,
      "chip": "ym2612"
    },
    {
      "channel": 5,
      "note": 57,
      "start": 10.6682,
      "duration": 0.1312,
      "velocity": 124,
      "chip": "ym2612"
    },
    {
      "channel": 3,
      "note": 60,
      "start": 10.7956,
      "duration": 0.1332,
      "velocity": 102,
      "chip": "ym2612"
    },
    {
      "channel": 5,
      "note": 57,
      "start": 10.7995,
      "duration": 0.134,
      "velocity": 124,
      "chip": "ym2612"
    },
    {
      "channel": 3,
      "note": 59,
      "start": 10.9289,
      "duration": 0.1331,
      "velocity": 102,
      "chip": "ym2612"
    },
    {
      "channel": 4,
      "note": 87,
      "start": 10.9299,
      "duration": 2.1333,
      "velocity": 99,
      "chip": "ym2612"
    },
    {
      "channel": 5,
      "note": 57,
      "start": 10.9336,
      "duration": 0.1324,
      "velocity": 124,
      "chip": "ym2612"
    },
    {
      "channel": 3,
      "note": 60,
      "start": 11.0621,
      "duration": 0.1332,
      "velocity": 102,
      "chip": "ym2612"
    },
    {
      "channel": 5,
      "note": 57,
      "start": 11.0661,
      "duration": 0.1333,
      "velocity": 124,
      "chip": "ym2612"
    },
    {
      "channel": 3,
      "note": 59,
      "start": 11.1954,
      "duration": 0.1332,
      "velocity": 102,
      "chip": "ym2612"
    },
    {
      "channel": 5,
      "note": 57,
      "start": 11.1995,
      "duration": 0.1332,
      "velocity": 124,
      "chip": "ym2612"
    },
    {
      "channel": 3,
      "note": 60,
      "start": 11.3287,
      "duration": 0.133,
      "velocity": 102,
      "chip": "ym2612"
    },
    {
      "channel": 5,
      "note": 57,
      "start": 11.3327,
      "duration": 0.1329,
      "velocity": 124,
      "chip": "ym2612"
    },
    {
      "channel": 3,
      "note": 59,
      "start": 11.4619,
      "duration": 0.1332,
      "velocity": 102,
      "chip": "ym2612"
    },
    {
      "channel": 5,
      "note": 57,
      "start": 11.4658,
      "duration": 0.1332,
      "velocity": 124,
      "chip": "ym2612"
    },
    {
      "channel": 3,
      "note": 60,
      "start": 11.5952,
      "duration": 0.1333,
      "velocity": 102,
      "chip": "ym2612"
    },
    {
      "channel": 5,
      "note": 57,
      "start": 11.5991,
      "duration": 0.1333,
      "velocity": 124,
      "chip": "ym2612"
    },
    {
      "channel": 3,
      "note": 59,
      "start": 11.7286,
      "duration": 0.1332,
      "velocity": 102,
      "chip": "ym2612"
    },
    {
      "channel": 5,
      "note": 57,
      "start": 11.7325,
      "duration": 0.1332,
      "velocity": 124,
      "chip": "ym2612"
    },
    {
      "channel": 3,
      "note": 60,
      "start": 11.8619,
      "duration": 0.1332,
      "velocity": 102,
      "chip": "ym2612"
    },
    {
      "channel": 5,
      "note": 57,
      "start": 11.8659,
      "duration": 0.1332,
      "velocity": 124,
      "chip": "ym2612"
    },
    {
      "channel": 3,
      "note": 59,
      "start": 11.9952,
      "duration": 0.1332,
      "velocity": 102,
      "chip": "ym2612"
    },
    {
      "channel": 5,
      "note": 57,
      "start": 11.9991,
      "duration": 0.1333,
      "velocity": 124,
      "chip": "ym2612"
    },
    {
      "channel": 3,
      "note": 60,
      "start": 12.1285,
      "duration": 0.1332,
      "velocity": 102,
      "chip": "ym2612"
    },
    {
      "channel": 5,
      "note": 57,
      "start": 12.1325,
      "duration": 0.1332,
      "velocity": 124,
      "chip": "ym2612"
    },
    {
      "channel": 3,
      "note": 59,
      "start": 12.2619,
      "duration": 0.1332,
      "velocity": 102,
      "chip": "ym2612"
    },
    {
      "channel": 5,
      "note": 57,
      "start": 12.2659,
      "duration": 0.1331,
      "velocity": 124,
      "chip": "ym2612"
    },
    {
      "channel": 3,
      "note": 60,
      "start": 12.3952,
      "duration": 0.1332,
      "velocity": 102,
      "chip": "ym2612"
    },
    {
      "channel": 5,
      "note": 57,
      "start": 12.3991,
      "duration": 0.1332,
      "velocity": 124,
      "chip": "ym2612"
    },
    {
      "channel": 3,
      "note": 59,
      "start": 12.5285,
      "duration": 0.1333,
      "velocity": 102,
      "chip": "ym2612"
    },
    {
      "channel": 5,
      "note": 57,
      "start": 12.5323,
      "duration": 0.1333,
      "velocity": 124,
      "chip": "ym2612"
    },
    {
      "channel": 3,
      "note": 60,
      "start": 12.6619,
      "duration": 0.1357,
      "velocity": 102,
      "chip": "ym2612"
    },
    {
      "channel": 5,
      "note": 57,
      "start": 12.6657,
      "duration": 0.1357,
      "velocity": 124,
      "chip": "ym2612"
    },
    {
      "channel": 0,
      "note": 91,
      "start": 12.7952,
      "duration": 4.2663,
      "velocity": 99,
      "chip": "ym2612"
    },
    {
      "channel": 2,
      "note": 71,
      "start": 12.7967,
      "duration": 4.2664,
      "velocity": 102,
      "chip": "ym2612"
    },
    {
      "channel": 3,
      "note": 59,
      "start": 12.7976,
      "duration": 0.1312,
      "velocity": 102,
      "chip": "ym2612"
    },
    {
      "channel": 5,
      "note": 57,
      "start": 12.8015,
      "duration": 0.1312,
      "velocity": 124,
      "chip": "ym2612"
    },
    {
      "channel": 3,
      "note": 60,
      "start": 12.9289,
      "duration": 0.1332,
      "velocity": 102,
      "chip": "ym2612"
    },
    {
      "channel": 5,
      "note": 57,
      "start": 12.9328,
      "duration": 0.134,
      "velocity": 124,
      "chip": "ym2612"
    },
    {
      "channel": 3,
      "note": 59,
      "start": 13.0622,
      "duration": 0.1331,
      "velocity": 102,
      "chip": "ym2612"
    },
    {
      "channel": 4,
      "note": 91,
      "start": 13.0632,
      "duration": 4.2662,
      "velocity": 99,
      "chip": "ym2612"
    },
    {
      "channel": 5,
      "note": 57,
      "start": 13.0669,
      "duration": 0.1324,
      "velocity": 124,
      "chip": "ym2612"
    },
    {
      "channel": 3,
      "note": 60,
      "start": 13.1954,
      "duration": 0.1332,
      "velocity": 102,
      "chip": "ym2612"
    },
    {
      "channel": 5,
      "note": 57,
      "start": 13.1995,
      "duration": 0.1332,
      "velocity": 124,
      "chip": "ym2612"
    },
    {
      "channel": 3,
      "note": 59,
      "start": 13.3287,
      "duration": 0.1333,
      "velocity": 102,
      "chip": "ym2612"
    },
    {
      "channel": 5,
      "note": 57,
      "start": 13.3327,
      "duration": 0.1333,
      "velocity": 124,
      "chip": "ym2612"
    },
    {
      "channel": 3,
      "note": 60,
      "start": 13.4621,
      "duration": 0.134,
      "velocity": 102,
      "chip": "ym2612"
    },
    {
      "channel": 5,
      "note": 57,
      "start": 13.4661,
      "duration": 0.134,
      "velocity": 124,
      "chip": "ym2612"
    },
    {
      "channel": 1,
      "note": 57,
      "start": 13.5951,
      "duration": 0.2666,
      "velocity": 85,
      "chip": "ym2612"
    },
    {
      "channel": 3,
      "note": 59,
      "start": 13.5962,
      "duration": 0.1325,
      "velocity": 102,
      "chip": "ym2612"
    },
    {
      "channel": 5,
      "note": 57,
      "start": 13.6002,
      "duration": 0.1325,
      "velocity": 124,
      "chip": "ym2612"
    },
    {
      "channel": 3,
      "note": 60,
      "start": 13.7288,
      "duration": 0.134,
      "velocity": 102,
      "chip": "ym2612"
    },
    {
      "channel": 5,
      "note": 57,
      "start": 13.7329,
      "duration": 0.134,
      "velocity": 124,
      "chip": "ym2612"
    },
    {
      "channel": 1,
      "note": 57,
      "start": 13.8617,
      "duration": 0.5331,
      "velocity": 85,
      "chip": "ym2612"
    },
    {
      "channel": 3,
      "note": 59,
      "start": 13.8629,
      "duration": 0.1325,
      "velocity": 102,
      "chip": "ym2612"
    },
    {
      "channel": 5,
      "note": 57,
      "start": 13.867,
      "duration": 0.1325,
      "velocity": 124,
      "chip": "ym2612"
    },
    {
      "channel": 3,
      "note": 60,
      "start": 13.9956,
      "duration": 0.1331,
      "velocity": 102,
      "chip": "ym2612"
    },
    {
      "channel": 5,
      "note": 57,
      "start": 13.9996,
      "duration": 0.1331,
      "velocity": 124,
      "chip": "ym2612"
    },
    {
      "channel": 3,
      "note": 59,
      "start": 14.1288,
      "duration": 0.1333,
      "velocity": 102,
      "chip": "ym2612"
    },
    {
      "channel": 5,
      "note": 57,
      "start": 14.1328,
      "duration": 0.1332,
      "velocity": 124,
      "chip": "ym2612"
    },
    {
      "channel": 3,
      "note": 60,
      "start": 14.2622,
      "duration": 0.1339,
      "velocity": 102,
      "chip": "ym2612"
    },
    {
      "channel": 5,
      "note": 57,
      "start": 14.2661,
      "duration": 0.1339,
      "velocity": 124,
      "chip": "ym2612"
    },
    {
      "channel": 1,
      "note": 57,
      "start": 14.395,
      "duration": 0.2661,
      "velocity": 85,
      "chip": "ym2612"
    },
    {
      "channel": 3,
      "note": 59,
      "start": 14.3962,
      "duration": 0.1325,
      "velocity": 102,
      "chip": "ym2612"
    },
    {
      "channel": 5,
      "note": 57,
      "start": 14.4002,
      "duration": 0.1324,
      "velocity": 124,
      "chip": "ym2612"
    },
    {
      "channel": 3,
      "note": 60,
      "start": 14.5288,
      "duration": 0.1334,
      "velocity": 102,
      "chip": "ym2612"
    },
    {
      "channel": 5,
      "note": 57,
      "start": 14.5327,
      "duration": 0.1334,
      "velocity": 124,
      "chip": "ym2612"
    },
    {
      "channel": 3,
      "note": 59,
      "start": 14.6624,
      "duration": 0.1327,
      "velocity": 102,
      "chip": "ym2612"
    },
    {
      "channel": 5,
      "note": 57,
      "start": 14.6663,
      "duration": 0.1327,
      "velocity": 124,
      "chip": "ym2612"
    },
    {
      "channel": 3,
      "note": 60,
      "start": 14.7952,
      "duration": 0.134,
      "velocity": 102,
      "chip": "ym2612"
    },
    {
      "channel": 5,
      "note": 57,
      "start": 14.7991,
      "duration": 0.134,
      "velocity": 124,
      "chip": "ym2612"
    },
    {
      "channel": 3,
      "note": 59,
      "start": 14.9294,
      "duration": 0.1326,
      "velocity": 102,
      "chip": "ym2612"
    },
    {
      "channel": 5,
      "note": 57,
      "start": 14.9332,
      "duration": 0.1326,
      "velocity": 124,
      "chip": "ym2612"
    },
    {
      "channel": 3,
      "note": 60,
      "start": 15.0621,
      "duration": 0.1331,
      "velocity": 102,
      "chip": "ym2612"
    },
    {
      "channel": 5,
      "note": 57,
      "start": 15.0659,
      "duration": 0.1331,
      "velocity": 124,
      "chip": "ym2612"
    },
    {
      "channel": 3,
      "note": 59,
      "start": 15.1953,
      "duration": 0.1332,
      "velocity": 102,
      "chip": "ym2612"
    },
    {
      "channel": 5,
      "note": 57,
      "start": 15.1991,
      "duration": 0.1332,
      "velocity": 124,
      "chip": "ym2612"
    },
    {
      "channel": 3,
      "note": 60,
      "start": 15.3285,
      "duration": 0.1332,
      "velocity": 102,
      "chip": "ym2612"
    },
    {
      "channel": 5,
      "note": 57,
      "start": 15.3324,
      "duration": 0.1332,
      "velocity": 124,
      "chip": "ym2612"
    },
    {
      "channel": 3,
      "note": 59,
      "start": 15.4619,
      "duration": 0.1332,
      "velocity": 102,
      "chip": "ym2612"
    },
    {
      "channel": 5,
      "note": 57,
      "start": 15.4657,
      "duration": 0.1332,
      "velocity": 124,
      "chip": "ym2612"
    },
    {
      "channel": 3,
      "note": 60,
      "start": 15.5951,
      "duration": 0.1333,
      "velocity": 102,
      "chip": "ym2612"
    },
    {
      "channel": 5,
      "note": 57,
      "start": 15.599,
      "duration": 0.1333,
      "velocity": 124,
      "chip": "ym2612"
    },
    {
      "channel": 3,
      "note": 59,
      "start": 15.7285,
      "duration": 0.1333,
      "velocity": 102,
      "chip": "ym2612"
    },
    {
      "channel": 5,
      "note": 57,
      "start": 15.7323,
      "duration": 0.1333,
      "velocity": 124,
      "chip": "ym2612"
    },
    {
      "channel": 3,
      "note": 60,
      "start": 15.8618,
      "duration": 0.1334,
      "velocity": 102,
      "chip": "ym2612"
    },
    {
      "channel": 5,
      "note": 57,
      "start": 15.8657,
      "duration": 0.1334,
      "velocity": 124,
      "chip": "ym2612"
    },
    {
      "channel": 3,
      "note": 59,
      "start": 15.9953,
      "duration": 0.1332,
      "velocity": 102,
      "chip": "ym2612"
    },
    {
      "channel": 5,
      "note": 57,
      "start": 15.9991,
      "duration": 0.1332,
      "velocity": 124,
      "chip": "ym2612"
    },
    {
      "channel": 3,
      "note": 60,
      "start": 16.1286,
      "duration": 0.1331,
      "velocity": 102,
      "chip": "ym2612"
    },
    {
      "channel": 5,
      "note": 57,
      "start": 16.1325,
      "duration": 0.1331,
      "velocity": 124,
      "chip": "ym2612"
    },
    {
      "channel": 3,
      "note": 59,
      "start": 16.2618,
      "duration": 0.1333,
      "velocity": 102,
      "chip": "ym2612"
    },
    {
      "channel": 5,
      "note": 57,
      "start": 16.2657,
      "duration": 0.1332,
      "velocity": 124,
      "chip": "ym2612"
    },
    {
      "channel": 3,
      "note": 60,
      "start": 16.3951,
      "duration": 0.1333,
      "velocity": 102,
      "chip": "ym2612"
    },
    {
      "channel": 5,
      "note": 57,
      "start": 16.399,
      "duration": 0.1333,
      "velocity": 124,
      "chip": "ym2612"
    },
    {
      "channel": 3,
      "note": 59,
      "start": 16.5285,
      "duration": 0.1332,
      "velocity": 102,
      "chip": "ym2612"
    },
    {
      "channel": 5,
      "note": 57,
      "start": 16.5324,
      "duration": 0.1332,
      "velocity": 124,
      "chip": "ym2612"
    },
    {
      "channel": 3,
      "note": 60,
      "start": 16.6618,
      "duration": 0.1333,
      "velocity": 102,
      "chip": "ym2612"
    },
    {
      "channel": 5,
      "note": 57,
      "start": 16.6657,
      "duration": 0.1332,
      "velocity": 124,
      "chip": "ym2612"
    },
    {
      "channel": 3,
      "note": 59,
      "start": 16.7951,
      "duration": 0.1333,
      "velocity": 102,
      "chip": "ym2612"
    },
    {
      "channel": 5,
      "note": 57,
      "start": 16.799,
      "duration": 0.1333,
      "velocity": 124,
      "chip": "ym2612"
    },
    {
      "channel": 3,
      "note": 60,
      "start": 16.9285,
      "duration": 0.1355,
      "velocity": 102,
      "chip": "ym2612"
    },
    {
      "channel": 5,
      "note": 57,
      "start": 16.9324,
      "duration": 0.1324,
      "velocity": 124,
      "chip": "ym2612"
    },
    {
      "channel": 0,
      "note": 91,
      "start": 17.0617,
      "duration": 1.0665,
      "velocity": 99,
      "chip": "ym2612"
    },
    {
      "channel": 2,
      "note": 71,
      "start": 17.0631,
      "duration": 1.0662,
      "velocity": 102,
      "chip": "ym2612"
    },
    {
      "channel": 3,
      "note": 59,
      "start": 17.0641,
      "duration": 0.131,
      "velocity": 102,
      "chip": "ym2612"
    },
    {
      "channel": 3,
      "note": 60,
      "start": 17.1952,
      "duration": 0.1332,
      "velocity": 102,
      "chip": "ym2612"
    },
    {
      "channel": 3,
      "note": 59,
      "start": 17.3285,
      "duration": 0.1331,
      "velocity": 102,
      "chip": "ym2612"
    },
    {
      "channel": 4,
      "note": 91,
      "start": 17.3295,
      "duration": 1.0666,
      "velocity": 99,
      "chip": "ym2612"
    },
    {
      "channel": 3,
      "note": 60,
      "start": 17.4617,
      "duration": 0.1332,
      "velocity": 102,
      "chip": "ym2612"
    },
    {
      "channel": 3,
      "note": 59,
      "start": 17.5951,
      "duration": 0.1332,
      "velocity": 102,
      "chip": "ym2612"
    },
    {
      "channel": 3,
      "note": 60,
      "start": 17.7284,
      "duration": 0.1329,
      "velocity": 102,
      "chip": "ym2612"
    },
    {
      "channel": 3,
      "note": 59,
      "start": 17.8614,
      "duration": 0.1332,
      "velocity": 102,
      "chip": "ym2612"
    },
    {
      "channel": 3,
      "note": 60,
      "start": 17.9948,
      "duration": 0.1355,
      "velocity": 102,
      "chip": "ym2612"
    },
    {
      "channel": 0,
      "note": 90,
      "start": 18.1283,
      "duration": 2.1328,
      "velocity": 99,
      "chip": "ym2612"
    },
    {
      "channel": 2,
      "note": 71,
      "start": 18.1294,
      "duration": 2.1329,
      "velocity": 102,
      "chip": "ym2612"
    },
    {
      "channel": 3,
      "note": 59,
      "start": 18.1304,
      "duration": 0.1313,
      "velocity": 102,
      "chip": "ym2612"
    },
    {
      "channel": 5,
      "note": 80,
      "start": 18.1343,
      "duration": 0.5283,
      "velocity": 127,
      "chip": "ym2612"
    },
    {
      "channel": 3,
      "note": 60,
      "start": 18.2618,
      "duration": 0.1333,
      "velocity": 102,
      "chip": "ym2612"
    },
    {
      "channel": 3,
      "note": 59,
      "start": 18.3952,
      "duration": 0.1331,
      "velocity": 102,
      "chip": "ym2612"
    },
    {
      "channel": 4,
      "note": 90,
      "start": 18.3961,
      "duration": 2.1332,
      "velocity": 99,
      "chip": "ym2612"
    },
    {
      "channel": 3,
      "note": 60,
      "start": 18.5284,
      "duration": 0.1333,
      "velocity": 102,
      "chip": "ym2612"
    },
    {
      "channel": 3,
      "note": 59,
      "start": 18.6618,
      "duration": 0.1331,
      "velocity": 102,
      "chip": "ym2612"
    },
    {
      "channel": 3,
      "note": 60,
      "start": 18.795,
      "duration": 0.1329,
      "velocity": 102,
      "chip": "ym2612"
    },
    {
      "channel": 3,
      "note": 59,
      "start": 18.9281,
      "duration": 0.1332,
      "velocity": 102,
      "chip": "ym2612"
    },
    {
      "channel": 3,
      "note": 60,
      "start": 19.0614,
      "duration": 0.1343,
      "velocity": 102,
      "chip": "ym2612"
    },
    {
      "channel": 3,
      "note": 59,
      "start": 19.1959,
      "duration": 0.1322,
      "velocity": 102,
      "chip": "ym2612"
    },
    {
      "channel": 3,
      "note": 60,
      "start": 19.3283,
      "duration": 0.1332,
      "velocity": 102,
      "chip": "ym2612"
    },
    {
      "channel": 3,
      "note": 59,
      "start": 19.4615,
      "duration": 0.1332,
      "velocity": 102,
      "chip": "ym2612"
    },
    {
      "channel": 3,
      "note": 60,
      "start": 19.5948,
      "duration": 0.1332,
      "velocity": 102,
      "chip": "ym2612"
    },
    {
      "channel": 3,
      "note": 59,
      "start": 19.7281,
      "duration": 0.1332,
      "velocity": 102,
      "chip": "ym2612"
    },
    {
      "channel": 3,
      "note": 60,
      "start": 19.8614,
      "duration": 0.1333,
      "velocity": 102,
      "chip": "ym2612"
    },
    {
      "channel": 3,
      "note": 59,
      "start": 19.9948,
      "duration": 0.1333,
      "velocity": 102,
      "chip": "ym2612"
    },
    {
      "channel": 3,
      "note": 60,
      "start": 20.1281,
      "duration": 0.1351,
      "velocity": 102,
      "chip": "ym2612"
    },
    {
      "channel": 0,
      "note": 84,
      "start": 20.2613,
      "duration": 2.1334,
      "velocity": 99,
      "chip": "ym2612"
    },
    {
      "channel": 2,
      "note": 66,
      "start": 20.2624,
      "duration": 2.1338,
      "velocity": 102,
      "chip": "ym2612"
    },
    {
      "channel": 3,
      "note": 59,
      "start": 20.2633,
      "duration": 0.1316,
      "velocity": 102,
      "chip": "ym2612"
    },
    {
      "channel": 3,
      "note": 60,
      "start": 20.3951,
      "duration": 0.1333,
      "velocity": 102,
      "chip": "ym2612"
    },
    {
      "channel": 3,
      "note": 59,
      "start": 20.5285,
      "duration": 0.133,
      "velocity": 102,
      "chip": "ym2612"
    },
    {
      "channel": 4,
      "note": 84,
      "start": 20.5295,
      "duration": 2.1332,
      "velocity": 99,
      "chip": "ym2612"
    },
    {
      "channel": 3,
      "note": 60,
      "start": 20.6617,
      "duration": 0.1332,
      "velocity": 102,
      "chip": "ym2612"
    },
    {
      "channel": 3,
      "note": 59,
      "start": 20.795,
      "duration": 0.1333,
      "velocity": 102,
      "chip": "ym2612"
    },
    {
      "channel": 3,
      "note": 60,
      "start": 20.9283,
      "duration": 0.133,
      "velocity": 102,
      "chip": "ym2612"
    },
    {
      "channel": 3,
      "note": 59,
      "start": 21.0615,
      "duration": 0.1332,
      "velocity": 102,
      "chip": "ym2612"
    },
    {
      "channel": 3,
      "note": 60,
      "start": 21.1948,
      "duration": 0.1349,
      "velocity": 102,
      "chip": "ym2612"
    },
    {
      "channel": 1,
      "note": 60,
      "start": 21.3287,
      "duration": 0.266,
      "velocity": 85,
      "chip": "ym2612"
    },
    {
      "channel": 3,
      "note": 59,
      "start": 21.3298,
      "duration": 0.132,
      "velocity": 102,
      "chip": "ym2612"
    },
    {
      "channel": 5,
      "note": 80,
      "start": 21.3338,
      "duration": 0.5289,
      "velocity": 127,
      "chip": "ym2612"
    },
    {
      "channel": 3,
      "note": 60,
      "start": 21.4619,
      "duration": 0.134,
      "velocity": 102,
      "chip": "ym2612"
    },
    {
      "channel": 1,
      "note": 60,
      "start": 21.5948,
      "duration": 0.5331,
      "velocity": 85,
      "chip": "ym2612"
    },
    {
      "channel": 3,
      "note": 59,
      "start": 21.596,
      "duration": 0.1324,
      "velocity": 102,
      "chip": "ym2612"
    },
    {
      "channel": 3,
      "note": 60,
      "start": 21.7285,
      "duration": 0.1333,
      "velocity": 102,
      "chip": "ym2612"
    },
    {
      "channel": 3,
      "note": 59,
      "start": 21.8619,
      "duration": 0.1331,
      "velocity": 102,
      "chip": "ym2612"
    },
    {
      "channel": 3,
      "note": 60,
      "start": 21.9951,
      "duration": 0.134,
      "velocity": 102,
      "chip": "ym2612"
    },
    {
      "channel": 1,
      "note": 60,
      "start": 22.128,
      "duration": 0.2674,
      "velocity": 85,
      "chip": "ym2612"
    },
    {
      "channel": 3,
      "note": 59,
      "start": 22.1291,
      "duration": 0.1326,
      "velocity": 102,
      "chip": "ym2612"
    },
    {
      "channel": 3,
      "note": 60,
      "start": 22.2618,
      "duration": 0.1353,
      "velocity": 102,
      "chip": "ym2612"
    },
    {
      "channel": 0,
      "note": 92,
      "start": 22.3948,
      "duration": 1.0669,
      "velocity": 99,
      "chip": "ym2612"
    },
    {
      "channel": 2,
      "note": 72,
      "start": 22.3963,
      "duration": 1.0669,
      "velocity": 102,
      "chip": "ym2612"
    },
    {
      "channel": 3,
      "note": 59,
      "start": 22.3972,
      "duration": 0.1311,
      "velocity": 102,
      "chip": "ym2612"
    },
    {
      "channel": 3,
      "note": 60,
      "start": 22.5285,
      "duration": 0.1333,
      "velocity": 102,
      "chip": "ym2612"
    },
    {
      "channel": 3,
      "note": 59,
      "start": 22.6619,
      "duration": 0.1331,
      "velocity": 102,
      "chip": "ym2612"
    },
    {
      "channel": 4,
      "note": 92,
      "start": 22.6628,
      "duration": 1.0666,
      "velocity": 99,
      "chip": "ym2612"
    },
    {
      "channel": 3,
      "note": 60,
      "start": 22.795,
      "duration": 0.1332,
      "velocity": 102,
      "chip": "ym2612"
    },
    {
      "channel": 3,
      "note": 59,
      "start": 22.9283,
      "duration": 0.1333,
      "velocity": 102,
      "chip": "ym2612"
    },
    {
      "channel": 3,
      "note": 60,
      "start": 23.0617,
      "duration": 0.133,
      "velocity": 102,
      "chip": "ym2612"
    },
    {
      "channel": 3,
      "note": 59,
      "start": 23.1948,
      "duration": 0.1332,
      "velocity": 102,
      "chip": "ym2612"
    },
    {
      "channel": 3,
      "note": 60,
      "start": 23.3281,
      "duration": 0.136,
      "velocity": 102,
      "chip": "ym2612"
    },
    {
      "channel": 0,
      "note": 91,
      "start": 23.4618,
      "duration": 2.133,
      "velocity": 99,
      "chip": "ym2612"
    },
    {
      "channel": 2,
      "note": 72,
      "start": 23.4633,
      "duration": 2.133,
      "velocity": 102,
      "chip": "ym2612"
    },
    {
      "channel": 3,
      "note": 59,
      "start": 23.4642,
      "duration": 0.1309,
      "velocity": 102,
      "chip": "ym2612"
    },
    {
      "channel": 3,
      "note": 60,
      "start": 23.5952,
      "duration": 0.1333,
      "velocity": 102,
      "chip": "ym2612"
    },
    {
      "channel": 3,
      "note": 59,
      "start": 23.7285,
      "duration": 0.133,
      "velocity": 102,
      "chip": "ym2612"
    },
    {
      "channel": 4,
      "note": 91,
      "start": 23.7295,
      "duration": 2.1332,
      "velocity": 99,
      "chip": "ym2612"
    },
    {
      "channel": 3,
      "note": 60,
      "start": 23.8617,
      "duration": 0.1332,
      "velocity": 102,
      "chip": "ym2612"
    },
    {
      "channel": 3,
      "note": 59,
      "start": 23.995,
      "duration": 0.1332,
      "velocity": 102,
      "chip": "ym2612"
    },
    {
      "channel": 3,
      "note": 60,
      "start": 24.1283,
      "duration": 0.1329,
      "velocity": 102,
      "chip": "ym2612"
    },
    {
      "channel": 3,
      "note": 59,
      "start": 24.2614,
      "duration": 0.1332,
      "velocity": 102,
      "chip": "ym2612"
    },
    {
      "channel": 3,
      "note": 60,
      "start": 24.3948,
      "duration": 0.1333,
      "velocity": 102,
      "chip": "ym2612"
    },
    {
      "channel": 3,
      "note": 59,
      "start": 24.5281,
      "duration": 0.1333,
      "velocity": 102,
      "chip": "ym2612"
    },
    {
      "channel": 3,
      "note": 60,
      "start": 24.6615,
      "duration": 0.1332,
      "velocity": 102,
      "chip": "ym2612"
    },
    {
      "channel": 3,
      "note": 59,
      "start": 24.7948,
      "duration": 0.1332,
      "velocity": 102,
      "chip": "ym2612"
    },
    {
      "channel": 3,
      "note": 60,
      "start": 24.9281,
      "duration": 0.1332,
      "velocity": 102,
      "chip": "ym2612"
    },
    {
      "channel": 3,
      "note": 59,
      "start": 25.0615,
      "duration": 0.1332,
      "velocity": 102,
      "chip": "ym2612"
    },
    {
      "channel": 3,
      "note": 60,
      "start": 25.1948,
      "duration": 0.1333,
      "velocity": 102,
      "chip": "ym2612"
    },
    {
      "channel": 3,
      "note": 59,
      "start": 25.3281,
      "duration": 0.1332,
      "velocity": 102,
      "chip": "ym2612"
    },
    {
      "channel": 3,
      "note": 60,
      "start": 25.4614,
      "duration": 0.1358,
      "velocity": 102,
      "chip": "ym2612"
    },
    {
      "channel": 0,
      "note": 84,
      "start": 25.5949,
      "duration": 3.1997,
      "velocity": 99,
      "chip": "ym2612"
    },
    {
      "channel": 2,
      "note": 66,
      "start": 25.5964,
      "duration": 3.1997,
      "velocity": 102,
      "chip": "ym2612"
    },
    {
      "channel": 3,
      "note": 59,
      "start": 25.5974,
      "duration": 0.131,
      "velocity": 102,
      "chip": "ym2612"
    },
    {
      "channel": 3,
      "note": 60,
      "start": 25.7285,
      "duration": 0.1332,
      "velocity": 102,
      "chip": "ym2612"
    },
    {
      "channel": 3,
      "note": 59,
      "start": 25.8619,
      "duration": 0.1331,
      "velocity": 102,
      "chip": "ym2612"
    },
    {
      "channel": 4,
      "note": 84,
      "start": 25.8628,
      "duration": 3.1999,
      "velocity": 99,
      "chip": "ym2612"
    },
    {
      "channel": 3,
      "note": 60,
      "start": 25.995,
      "duration": 0.1332,
      "velocity": 102,
      "chip": "ym2612"
    },
    {
      "channel": 3,
      "note": 59,
      "start": 26.1283,
      "duration": 0.1333,
      "velocity": 102,
      "chip": "ym2612"
    },
    {
      "channel": 3,
      "note": 60,
      "start": 26.2617,
      "duration": 0.133,
      "velocity": 102,
      "chip": "ym2612"
    },
    {
      "channel": 3,
      "note": 59,
      "start": 26.3948,
      "duration": 0.1332,
      "velocity": 102,
      "chip": "ym2612"
    },
    {
      "channel": 3,
      "note": 60,
      "start": 26.5281,
      "duration": 0.1336,
      "velocity": 102,
      "chip": "ym2612"
    },
    {
      "channel": 3,
      "note": 59,
      "start": 26.6619,
      "duration": 0.1329,
      "velocity": 102,
      "chip": "ym2612"
    },
    {
      "channel": 5,
      "note": 80,
      "start": 26.6659,
      "duration": 0.5298,
      "velocity": 127,
      "chip": "ym2612"
    },
    {
      "channel": 3,
      "note": 60,
      "start": 26.7949,
      "duration": 0.1332,
      "velocity": 102,
      "chip": "ym2612"
    },
    {
      "channel": 3,
      "note": 59,
      "start": 26.9281,
      "duration": 0.1332,
      "velocity": 102,
      "chip": "ym2612"
    },
    {
      "channel": 3,
      "note": 60,
      "start": 27.0615,
      "duration": 0.1333,
      "velocity": 102,
      "chip": "ym2612"
    },
    {
      "channel": 3,
      "note": 59,
      "start": 27.1949,
      "duration": 0.1331,
      "velocity": 102,
      "chip": "ym2612"
    },
    {
      "channel": 3,
      "note": 60,
      "start": 27.3281,
      "duration": 0.1332,
      "velocity": 102,
      "chip": "ym2612"
    },
    {
      "channel": 3,
      "note": 59,
      "start": 27.4614,
      "duration": 0.1332,
      "velocity": 102,
      "chip": "ym2612"
    },
    {
      "channel": 3,
      "note": 60,
      "start": 27.5948,
      "duration": 0.1349,
      "velocity": 102,
      "chip": "ym2612"
    },
    {
      "channel": 1,
      "note": 60,
      "start": 27.7285,
      "duration": 0.266,
      "velocity": 85,
      "chip": "ym2612"
    },
    {
      "channel": 3,
      "note": 59,
      "start": 27.7297,
      "duration": 0.132,
      "velocity": 102,
      "chip": "ym2612"
    },
    {
      "channel": 3,
      "note": 60,
      "start": 27.8619,
      "duration": 0.1339,
      "velocity": 102,
      "chip": "ym2612"
    },
    {
      "channel": 1,
      "note": 60,
      "start": 27.9947,
      "duration": 0.5332,
      "velocity": 85,
      "chip": "ym2612"
    },
    {
      "channel": 3,
      "note": 59,
      "start": 27.9959,
      "duration": 0.1324,
      "velocity": 102,
      "chip": "ym2612"
    },
    {
      "channel": 3,
      "note": 60,
      "start": 28.1285,
      "duration": 0.1332,
      "velocity": 102,
      "chip": "ym2612"
    },
    {
      "channel": 3,
      "note": 59,
      "start": 28.2617,
      "duration": 0.1331,
      "velocity": 102,
      "chip": "ym2612"
    },
    {
      "channel": 3,
      "note": 60,
      "start": 28.395,
      "duration": 0.134,
      "velocity": 102,
      "chip": "ym2612"
    },
    {
      "channel": 1,
      "note": 60,
      "start": 28.528,
      "duration": 0.2673,
      "velocity": 85,
      "chip": "ym2612"
    },
    {
      "channel": 3,
      "note": 59,
      "start": 28.5292,
      "duration": 0.1325,
      "velocity": 102,
      "chip": "ym2612"
    },
    {
      "channel": 3,
      "note": 60,
      "start": 28.6618,
      "duration": 0.1353,
      "velocity": 102,
      "chip": "ym2612"
    },
    {
      "channel": 0,
      "note": 92,
      "start": 28.7948,
      "duration": 1.0667,
      "velocity": 99,
      "chip": "ym2612"
    },
    {
      "channel": 2,
      "note": 71,
      "start": 28.7962,
      "duration": 1.0667,
      "velocity": 102,
      "chip": "ym2612"
    },
    {
      "channel": 3,
      "note": 59,
      "start": 28.7972,
      "duration": 0.1312,
      "velocity": 102,
      "chip": "ym2612"
    },
    {
      "channel": 3,
      "note": 60,
      "start": 28.9285,
      "duration": 0.1332,
      "velocity": 102,
      "chip": "ym2612"
    },
    {
      "channel": 3,
      "note": 59,
      "start": 29.0618,
      "duration": 0.1332,
      "velocity": 102,
      "chip": "ym2612"
    },
    {
      "channel": 4,
      "note": 92,
      "start": 29.0628,
      "duration": 1.0666,
      "velocity": 99,
      "chip": "ym2612"
    },
    {
      "channel": 3,
      "note": 60,
      "start": 29.1951,
      "duration": 0.1331,
      "velocity": 102,
      "chip": "ym2612"
    },
    {
      "channel": 3,
      "note": 59,
      "start": 29.3283,
      "duration": 0.1332,
      "velocity": 102,
      "chip": "ym2612"
    },
    {
      "channel": 3,
      "note": 60,
      "start": 29.4617,
      "duration": 0.1329,
      "velocity": 102,
      "chip": "ym2612"
    },
    {
      "channel": 3,
      "note": 59,
      "start": 29.5948,
      "duration": 0.1332,
      "velocity": 102,
      "chip": "ym2612"
    },
    {
      "channel": 3,
      "note": 60,
      "start": 29.7281,
      "duration": 0.1358,
      "velocity": 102,
      "chip": "ym2612"
    },
    {
      "channel": 0,
      "note": 91,
      "start": 29.8616,
      "duration": 1.0667,
      "velocity": 99,
      "chip": "ym2612"
    },
    {
      "channel": 2,
      "note": 71,
      "start": 29.8631,
      "duration": 1.0662,
      "velocity": 102,
      "chip": "ym2612"
    },
    {
      "channel": 3,
      "note": 59,
      "start": 29.864,
      "duration": 0.1311,
      "velocity": 102,
      "chip": "ym2612"
    },
    {
      "channel": 3,
      "note": 60,
      "start": 29.9953,
      "duration": 0.1332,
      "velocity": 102,
      "chip": "ym2612"
    },
    {
      "channel": 3,
      "note": 59,
      "start": 30.1285,
      "duration": 0.1331,
      "velocity": 102,
      "chip": "ym2612"
    },
    {
      "channel": 4,
      "note": 91,
      "start": 30.1295,
      "duration": 1.0666,
      "velocity": 99,
      "chip": "ym2612"
    },
    {
      "channel": 3,
      "note": 60,
      "start": 30.2617,
      "duration": 0.1332,
      "velocity": 102,
      "chip": "ym2612"
    },
    {
      "channel": 3,
      "note": 59,
      "start": 30.395,
      "duration": 0.1333,
      "velocity": 102,
      "chip": "ym2612"
    },
    {
      "channel": 3,
      "note": 60,
      "start": 30.5283,
      "duration": 0.133,
      "velocity": 102,
      "chip": "ym2612"
    },
    {
      "channel": 3,
      "note": 59,
      "start": 30.6615,
      "duration": 0.1332,
      "velocity": 102,
      "chip": "ym2612"
    },
    {
      "channel": 3,
      "note": 60,
      "start": 30.7948,
      "duration": 0.1354,
      "velocity": 102,
      "chip": "ym2612"
    },
    {
      "channel": 0,
      "note": 90,
      "start": 30.9283,
      "duration": 1.0667,
      "velocity": 99,
      "chip": "ym2612"
    },
    {
      "channel": 2,
      "note": 71,
      "start": 30.9294,
      "duration": 1.0671,
      "velocity": 102,
      "chip": "ym2612"
    },
    {
      "channel": 3,
      "note": 59,
      "start": 30.9304,
      "duration": 0.1313,
      "velocity": 102,
      "chip": "ym2612"
    },
    {
      "channel": 5,
      "note": 80,
      "start": 30.9344,
      "duration": 0.5283,
      "velocity": 127,
      "chip": "ym2612"
    },
    {
      "channel": 3,
      "note": 60,
      "start": 31.0617,
      "duration": 0.1333,
      "velocity": 102,
      "chip": "ym2612"
    },
    {
      "channel": 3,
      "note": 59,
      "start": 31.1952,
      "duration": 0.133,
      "velocity": 102,
      "chip": "ym2612"
    },
    {
      "channel": 4,
      "note": 90,
      "start": 31.1961,
      "duration": 1.0666,
      "velocity": 99,
      "chip": "ym2612"
    },
    {
      "channel": 3,
      "note": 60,
      "start": 31.3283,
      "duration": 0.1334,
      "velocity": 102,
      "chip": "ym2612"
    },
    {
      "channel": 3,
      "note": 59,
      "start": 31.4618,
      "duration": 0.1331,
      "velocity": 102,
      "chip": "ym2612"
    },
    {
      "channel": 3,
      "note": 60,
      "start": 31.595,
      "duration": 0.1329,
      "velocity": 102,
      "chip": "ym2612"
    },
    {
      "channel": 3,
      "note": 59,
      "start": 31.7281,
      "duration": 0.1332,
      "velocity": 102,
      "chip": "ym2612"
    },
    {
      "channel": 3,
      "note": 60,
      "start": 31.8614,
      "duration": 0.1361,
      "velocity": 102,
      "chip": "ym2612"
    },
    {
      "channel": 0,
      "note": 95,
      "start": 31.9951,
      "duration": 4.2664,
      "velocity": 99,
      "chip": "ym2612"
    },
    {
      "channel": 2,
      "note": 77,
      "start": 31.9967,
      "duration": 4.2663,
      "velocity": 102,
      "chip": "ym2612"
    },
    {
      "channel": 3,
      "note": 59,
      "start": 31.9976,
      "duration": 0.1308,
      "velocity": 102,
      "chip": "ym2612"
    },
    {
      "channel": 3,
      "note": 60,
      "start": 32.1285,
      "duration": 0.1333,
      "velocity": 102,
      "chip": "ym2612"
    },
    {
      "channel": 3,
      "note": 59,
      "start": 32.2619,
      "duration": 0.1329,
      "velocity": 102,
      "chip": "ym2612"
    },
    {
      "channel": 4,
      "note": 95,
      "start": 32.2629,
      "duration": 4.2665,
      "velocity": 99,
      "chip": "ym2612"
    },
    {
      "channel": 3,
      "note": 60,
      "start": 32.395,
      "duration": 0.1332,
      "velocity": 102,
      "chip": "ym2612"
    },
    {
      "channel": 3,
      "note": 59,
      "start": 32.5283,
      "duration": 0.1332,
      "velocity": 102,
      "chip": "ym2612"
    },
    {
      "channel": 3,
      "note": 60,
      "start": 32.6617,
      "duration": 0.133,
      "velocity": 102,
      "chip": "ym2612"
    },
    {
      "channel": 3,
      "note": 59,
      "start": 32.7948,
      "duration": 0.1332,
      "velocity": 102,
      "chip": "ym2612"
    },
    {
      "channel": 3,
      "note": 60,
      "start": 32.9281,
      "duration": 0.1333,
      "velocity": 102,
      "chip": "ym2612"
    },
    {
      "channel": 3,
      "note": 59,
      "start": 33.0615,
      "duration": 0.1332,
      "velocity": 102,
      "chip": "ym2612"
    },
    {
      "channel": 3,
      "note": 60,
      "start": 33.1949,
      "duration": 0.1332,
      "velocity": 102,
      "chip": "ym2612"
    },
    {
      "channel": 3,
      "note": 59,
      "start": 33.3281,
      "duration": 0.1332,
      "velocity": 102,
      "chip": "ym2612"
    },
    {
      "channel": 3,
      "note": 60,
      "start": 33.4615,
      "duration": 0.1332,
      "velocity": 102,
      "chip": "ym2612"
    },
    {
      "channel": 3,
      "note": 59,
      "start": 33.5948,
      "duration": 0.1332,
      "velocity": 102,
      "chip": "ym2612"
    },
    {
      "channel": 3,
      "note": 60,
      "start": 33.7281,
      "duration": 0.1332,
      "velocity": 102,
      "chip": "ym2612"
    },
    {
      "channel": 3,
      "note": 59,
      "start": 33.8614,
      "duration": 0.1333,
      "velocity": 102,
      "chip": "ym2612"
    },
    {
      "channel": 3,
      "note": 60,
      "start": 33.9948,
      "duration": 0.1346,
      "velocity": 102,
      "chip": "ym2612"
    },
    {
      "channel": 1,
      "note": 59,
      "start": 34.1283,
      "duration": 0.2663,
      "velocity": 85,
      "chip": "ym2612"
    },
    {
      "channel": 3,
      "note": 59,
      "start": 34.1295,
      "duration": 0.1322,
      "velocity": 102,
      "chip": "ym2612"
    },
    {
      "channel": 3,
      "note": 60,
      "start": 34.2619,
      "duration": 0.1339,
      "velocity": 102,
      "chip": "ym2612"
    },
    {
      "channel": 1,
      "note": 59,
      "start": 34.3947,
      "duration": 0.5331,
      "velocity": 85,
      "chip": "ym2612"
    },
    {
      "channel": 3,
      "note": 59,
      "start": 34.3959,
      "duration": 0.1324,
      "velocity": 102,
      "chip": "ym2612"
    },
    {
      "channel": 3,
      "note": 60,
      "start": 34.5284,
      "duration": 0.1332,
      "velocity": 102,
      "chip": "ym2612"
    },
    {
      "channel": 3,
      "note": 59,
      "start": 34.6617,
      "duration": 0.1332,
      "velocity": 102,
      "chip": "ym2612"
    },
    {
      "channel": 3,
      "note": 60,
      "start": 34.7951,
      "duration": 0.134,
      "velocity": 102,
      "chip": "ym2612"
    },
    {
      "channel": 1,
      "note": 59,
      "start": 34.928,
      "duration": 0.2667,
      "velocity": 85,
      "chip": "ym2612"
    },
    {
      "channel": 3,
      "note": 59,
      "start": 34.9291,
      "duration": 0.1326,
      "velocity": 102,
      "chip": "ym2612"
    },
    {
      "channel": 3,
      "note": 60,
      "start": 35.0618,
      "duration": 0.1339,
      "velocity": 102,
      "chip": "ym2612"
    },
    {
      "channel": 3,
      "note": 59,
      "start": 35.1958,
      "duration": 0.1324,
      "velocity": 102,
      "chip": "ym2612"
    },
    {
      "channel": 5,
      "note": 80,
      "start": 35.1997,
      "duration": 0.5293,
      "velocity": 127,
      "chip": "ym2612"
    },
    {
      "channel": 3,
      "note": 60,
      "start": 35.3283,
      "duration": 0.1331,
      "velocity": 102,
      "chip": "ym2612"
    },
    {
      "channel": 3,
      "note": 59,
      "start": 35.4615,
      "duration": 0.1332,
      "velocity": 102,
      "chip": "ym2612"
    },
    {
      "channel": 3,
      "note": 60,
      "start": 35.5948,
      "duration": 0.1333,
      "velocity": 102,
      "chip": "ym2612"
    },
    {
      "channel": 3,
      "note": 59,
      "start": 35.7282,
      "duration": 0.1331,
      "velocity": 102,
      "chip": "ym2612"
    },
    {
      "channel": 3,
      "note": 60,
      "start": 35.8614,
      "duration": 0.1332,
      "velocity": 102,
      "chip": "ym2612"
    },
    {
      "channel": 3,
      "note": 59,
      "start": 35.9948,
      "duration": 0.1333,
      "velocity": 102,
      "chip": "ym2612"
    },
    {
      "channel": 3,
      "note": 60,
      "start": 36.1281,
      "duration": 0.1359,
      "velocity": 102,
      "chip": "ym2612"
    },
    {
      "channel": 0,
      "note": 91,
      "start": 36.2616,
      "duration": 1.0662,
      "velocity": 99,
      "chip": "ym2612"
    },
    {
      "channel": 2,
      "note": 71,
      "start": 36.2631,
      "duration": 1.0658,
      "velocity": 102,
      "chip": "ym2612"
    },
    {
      "channel": 3,
      "note": 59,
      "start": 36.2641,
      "duration": 0.131,
      "velocity": 102,
      "chip": "ym2612"
    },
    {
      "channel": 3,
      "note": 60,
      "start": 36.3952,
      "duration": 0.1333,
      "velocity": 102,
      "chip": "ym2612"
    },
    {
      "channel": 3,
      "note": 59,
      "start": 36.5285,
      "duration": 0.1331,
      "velocity": 102,
      "chip": "ym2612"
    },
    {
      "channel": 4,
      "note": 91,
      "start": 36.5295,
      "duration": 1.0666,
      "velocity": 99,
      "chip": "ym2612"
    },
    {
      "channel": 3,
      "note": 60,
      "start": 36.6617,
      "duration": 0.1332,
      "velocity": 102,
      "chip": "ym2612"
    },
    {
      "channel": 3,
      "note": 59,
      "start": 36.7951,
      "duration": 0.1331,
      "velocity": 102,
      "chip": "ym2612"
    },
    {
      "channel": 3,
      "note": 60,
      "start": 36.9283,
      "duration": 0.1329,
      "velocity": 102,
      "chip": "ym2612"
    },
    {
      "channel": 3,
      "note": 59,
      "start": 37.0614,
      "duration": 0.1332,
      "velocity": 102,
      "chip": "ym2612"
    },
    {
      "channel": 3,
      "note": 60,
      "start": 37.1948,
      "duration": 0.1351,
      "velocity": 102,
      "chip": "ym2612"
    },
    {
      "channel": 0,
      "note": 90,
      "start": 37.328,
      "duration": 1.0671,
      "velocity": 99,
      "chip": "ym2612"
    },
    {
      "channel": 2,
      "note": 71,
      "start": 37.329,
      "duration": 1.0674,
      "velocity": 102,
      "chip": "ym2612"
    },
    {
      "channel": 3,
      "note": 59,
      "start": 37.33,
      "duration": 0.1316,
      "velocity": 102,
      "chip": "ym2612"
    },
    {
      "channel": 3,
      "note": 60,
      "start": 37.4617,
      "duration": 0.1333,
      "velocity": 102,
      "chip": "ym2612"
    },
    {
      "channel": 3,
      "note": 59,
      "start": 37.5951,
      "duration": 0.1331,
      "velocity": 102,
      "chip": "ym2612"
    },
    {
      "channel": 4,
      "note": 90,
      "start": 37.5961,
      "duration": 1.0666,
      "velocity": 99,
      "chip": "ym2612"
    },
    {
      "channel": 3,
      "note": 60,
      "start": 37.7283,
      "duration": 0.1332,
      "velocity": 102,
      "chip": "ym2612"
    },
    {
      "channel": 3,
      "note": 59,
      "start": 37.8617,
      "duration": 0.1332,
      "velocity": 102,
      "chip": "ym2612"
    },
    {
      "channel": 3,
      "note": 60,
      "start": 37.995,
      "duration": 0.1329,
      "velocity": 102,
      "chip": "ym2612"
    },
    {
      "channel": 3,
      "note": 59,
      "start": 38.1281,
      "duration": 0.1332,
      "velocity": 102,
      "chip": "ym2612"
    },
    {
      "channel": 3,
      "note": 60,
      "start": 38.2614,
      "duration": 0.136,
      "velocity": 102,
      "chip": "ym2612"
    },
    {
      "channel": 0,
      "note": 89,
      "start": 38.3951,
      "duration": 1.0661,
      "velocity": 99,
      "chip": "ym2612"
    },
    {
      "channel": 2,
      "note": 71,
      "start": 38.3966,
      "duration": 1.0656,
      "velocity": 102,
      "chip": "ym2612"
    },
    {
      "channel": 3,
      "note": 59,
      "start": 38.3976,
      "duration": 0.1309,
      "velocity": 102,
      "chip": "ym2612"
    },
    {
      "channel": 3,
      "note": 60,
      "start": 38.5285,
      "duration": 0.1332,
      "velocity": 102,
      "chip": "ym2612"
    },
    {
      "channel": 3,
      "note": 59,
      "start": 38.6619,
      "duration": 0.1331,
      "velocity": 102,
      "chip": "ym2612"
    },
    {
      "channel": 4,
      "note": 89,
      "start": 38.6628,
      "duration": 1.0666,
      "velocity": 99,
      "chip": "ym2612"
    },
    {
      "channel": 3,
      "note": 60,
      "start": 38.795,
      "duration": 0.1332,
      "velocity": 102,
      "chip": "ym2612"
    },
    {
      "channel": 3,
      "note": 59,
      "start": 38.9283,
      "duration": 0.1333,
      "velocity": 102,
      "chip": "ym2612"
    },
    {
      "channel": 3,
      "note": 60,
      "start": 39.0617,
      "duration": 0.133,
      "velocity": 102,
      "chip": "ym2612"
    },
    {
      "channel": 3,
      "note": 59,
      "start": 39.1948,
      "duration": 0.1332,
      "velocity": 102,
      "chip": "ym2612"
    },
    {
      "channel": 3,
      "note": 60,
      "start": 39.3281,
      "duration": 0.1351,
      "velocity": 102,
      "chip": "ym2612"
    },
    {
      "channel": 0,
      "note": 83,
      "start": 39.4613,
      "duration": 3.2008,
      "velocity": 99,
      "chip": "ym2612"
    },
    {
      "channel": 2,
      "note": 65,
      "start": 39.4623,
      "duration": 3.2012,
      "velocity": 102,
      "chip": "ym2612"
    },
    {
      "channel": 3,
      "note": 59,
      "start": 39.4633,
      "duration": 0.1317,
      "velocity": 102,
      "chip": "ym2612"
    },
    {
      "channel": 3,
      "note": 60,
      "start": 39.5951,
      "duration": 0.1333,
      "velocity": 102,
      "chip": "ym2612"
    },
    {
      "channel": 3,
      "note": 59,
      "start": 39.7285,
      "duration": 0.1331,
      "velocity": 102,
      "chip": "ym2612"
    },
    {
      "channel": 4,
      "note": 83,
      "start": 39.7295,
      "duration": 3.2003,
      "velocity": 99,
      "chip": "ym2612"
    },
    {
      "channel": 3,
      "note": 60,
      "start": 39.8617,
      "duration": 0.1333,
      "velocity": 102,
      "chip": "ym2612"
    },
    {
      "channel": 3,
      "note": 59,
      "start": 39.995,
      "duration": 0.1333,
      "velocity": 102,
      "chip": "ym2612"
    },
    {
      "channel": 3,
      "note": 60,
      "start": 40.1284,
      "duration": 0.1329,
      "velocity": 102,
      "chip": "ym2612"
    },
    {
      "channel": 3,
      "note": 59,
      "start": 40.2614,
      "duration": 0.1332,
      "velocity": 102,
      "chip": "ym2612"
    },
    {
      "channel": 3,
      "note": 60,
      "start": 40.3948,
      "duration": 0.1349,
      "velocity": 102,
      "chip": "ym2612"
    },
    {
      "channel": 1,
      "note": 59,
      "start": 40.5286,
      "duration": 0.2661,
      "velocity": 85,
      "chip": "ym2612"
    },
    {
      "channel": 3,
      "note": 59,
      "start": 40.5298,
      "duration": 0.132,
      "velocity": 102,
      "chip": "ym2612"
    },
    {
      "channel": 5,
      "note": 80,
      "start": 40.5337,
      "duration": 0.529,
      "velocity": 127,
      "chip": "ym2612"
    },
    {
      "channel": 3,
      "note": 60,
      "start": 40.6619,
      "duration": 0.1339,
      "velocity": 102,
      "chip": "ym2612"
    },
    {
      "channel": 1,
      "note": 59,
      "start": 40.7948,
      "duration": 0.533,
      "velocity": 85,
      "chip": "ym2612"
    },
    {
      "channel": 3,
      "note": 59,
      "start": 40.796,
      "duration": 0.1324,
      "velocity": 102,
      "chip": "ym2612"
    },
    {
      "channel": 3,
      "note": 60,
      "start": 40.9285,
      "duration": 0.1333,
      "velocity": 102,
      "chip": "ym2612"
    },
    {
      "channel": 3,
      "note": 59,
      "start": 41.0619,
      "duration": 0.1331,
      "velocity": 102,
      "chip": "ym2612"
    },
    {
      "channel": 3,
      "note": 60,
      "start": 41.1951,
      "duration": 0.134,
      "velocity": 102,
      "chip": "ym2612"
    },
    {
      "channel": 1,
      "note": 59,
      "start": 41.328,
      "duration": 0.2662,
      "velocity": 85,
      "chip": "ym2612"
    },
    {
      "channel": 3,
      "note": 59,
      "start": 41.3291,
      "duration": 0.1326,
      "velocity": 102,
      "chip": "ym2612"
    },
    {
      "channel": 3,
      "note": 60,
      "start": 41.4618,
      "duration": 0.1335,
      "velocity": 102,
      "chip": "ym2612"
    },
    {
      "channel": 3,
      "note": 59,
      "start": 41.5954,
      "duration": 0.1327,
      "velocity": 102,
      "chip": "ym2612"
    },
    {
      "channel": 3,
      "note": 60,
      "start": 41.7283,
      "duration": 0.133,
      "velocity": 102,
      "chip": "ym2612"
    },
    {
      "channel": 3,
      "note": 59,
      "start": 41.8614,
      "duration": 0.1333,
      "velocity": 102,
      "chip": "ym2612"
    },
    {
      "channel": 3,
      "note": 60,
      "start": 41.9948,
      "duration": 0.1332,
      "velocity": 102,
      "chip": "ym2612"
    },
    {
      "channel": 3,
      "note": 59,
      "start": 42.1281,
      "duration": 0.1333,
      "velocity": 102,
      "chip": "ym2612"
    },
    {
      "channel": 3,
      "note": 60,
      "start": 42.2614,
      "duration": 0.1332,
      "velocity": 102,
      "chip": "ym2612"
    },
    {
      "channel": 3,
      "note": 59,
      "start": 42.3948,
      "duration": 0.1332,
      "velocity": 102,
      "chip": "ym2612"
    },
    {
      "channel": 3,
      "note": 60,
      "start": 42.5281,
      "duration": 0.1364,
      "velocity": 102,
      "chip": "ym2612"
    },
    {
      "channel": 0,
      "note": 81,
      "start": 42.6622,
      "duration": 1.0681,
      "velocity": 99,
      "chip": "ym2612"
    },
    {
      "channel": 2,
      "note": 64,
      "start": 42.6637,
      "duration": 1.0666,
      "velocity": 102,
      "chip": "ym2612"
    },
    {
      "channel": 3,
      "note": 59,
      "start": 42.6646,
      "duration": 0.131,
      "velocity": 102,
      "chip": "ym2612"
    },
    {
      "channel": 5,
      "note": 57,
      "start": 42.6685,
      "duration": 0.131,
      "velocity": 124,
      "chip": "ym2612"
    },
    {
      "channel": 3,
      "note": 60,
      "start": 42.7957,
      "duration": 0.1331,
      "velocity": 102,
      "chip": "ym2612"
    },
    {
      "channel": 5,
      "note": 57,
      "start": 42.7996,
      "duration": 0.1338,
      "velocity": 124,
      "chip": "ym2612"
    },
    {
      "channel": 3,
      "note": 59,
      "start": 42.9289,
      "duration": 0.1331,
      "velocity": 102,
      "chip": "ym2612"
    },
    {
      "channel": 4,
      "note": 81,
      "start": 42.9299,
      "duration": 0.8004,
      "velocity": 99,
      "chip": "ym2612"
    },
    {
      "channel": 5,
      "note": 57,
      "start": 42.9336,
      "duration": 0.1324,
      "velocity": 124,
      "chip": "ym2612"
    },
    {
      "channel": 3,
      "note": 60,
      "start": 43.0621,
      "duration": 0.1333,
      "velocity": 102,
      "chip": "ym2612"
    },
    {
      "channel": 5,
      "note": 57,
      "start": 43.0661,
      "duration": 0.1332,
      "velocity": 124,
      "chip": "ym2612"
    },
    {
      "channel": 3,
      "note": 59,
      "start": 43.1954,
      "duration": 0.1332,
      "velocity": 102,
      "chip": "ym2612"
    },
    {
      "channel": 5,
      "note": 57,
      "start": 43.1994,
      "duration": 0.1333,
      "velocity": 124,
      "chip": "ym2612"
    },
    {
      "channel": 3,
      "note": 60,
      "start": 43.3288,
      "duration": 0.133,
      "velocity": 102,
      "chip": "ym2612"
    },
    {
      "channel": 5,
      "note": 57,
      "start": 43.3327,
      "duration": 0.133,
      "velocity": 124,
      "chip": "ym2612"
    },
    {
      "channel": 3,
      "note": 59,
      "start": 43.4619,
      "duration": 0.1332,
      "velocity": 102,
      "chip": "ym2612"
    },
    {
      "channel": 5,
      "note": 57,
      "start": 43.4659,
      "duration": 0.1331,
      "velocity": 124,
      "chip": "ym2612"
    },
    {
      "channel": 3,
      "note": 60,
      "start": 43.5951,
      "duration": 0.1333,
      "velocity": 102,
      "chip": "ym2612"
    },
    {
      "channel": 5,
      "note": 57,
      "start": 43.5991,
      "duration": 0.1312,
      "velocity": 124,
      "chip": "ym2612"
    },
    {
      "channel": 3,
      "note": 59,
      "start": 43.7286,
      "duration": 0.0017,
      "velocity": 102,
      "chip": "ym2612"
    }
  ]
}