{
  "track_name": "04 - Stage 2- Elevator Shaft",
  "duration_sec": 95.603,
  "sample_rate": 44100,
  "note_count": 1603,
  "unique_pitches": 35,
  "pitch_range": 83,
  "avg_note_duration": 0.3255,
  "reconstruction_stats": {
    "notes_reconstructed": 1603,
    "keyon_events": 1603,
    "keyoff_events": 1597,
    "orphan_keyons": 6,
    "unique_pitches": 35,
    "pitch_range": 83,
    "avg_duration_sec": 0.3255
  },
  "metadata": {
    "source": "S\\Skeleton Krew\\04 - Stage 2- Elevator Shaft.vgz"
  },
  "notes": [
    {
      "channel": 0,
      "note": 84,
      "start": 0.0,
      "duration": 0.1292,
      "velocity": 98,
      "chip": "ym2612"
    },
    {
      "channel": 1,
      "note": 49,
      "start": 0.0,
      "duration": 0.1296,
      "velocity": 86,
      "chip": "ym2612"
    },
    {
      "channel": 2,
      "note": 103,
      "start": 0.0017,
      "duration": 6.353,
      "velocity": 113,
      "chip": "ym2612"
    },
    {
      "channel": 3,
      "note": 104,
      "start": 0.0034,
      "duration": 6.3517,
      "velocity": 113,
      "chip": "ym2612"
    },
    {
      "channel": 0,
      "note": 74,
      "start": 0.1294,
      "duration": 0.1323,
      "velocity": 100,
      "chip": "ym2612"
    },
    {
      "channel": 1,
      "note": 49,
      "start": 0.1297,
      "duration": 0.1323,
      "velocity": 86,
      "chip": "ym2612"
    },
    {
      "channel": 0,
      "note": 74,
      "start": 0.2617,
      "duration": 0.1319,
      "velocity": 98,
      "chip": "ym2612"
    },
    {
      "channel": 1,
      "note": 37,
      "start": 0.2621,
      "duration": 0.1323,
      "velocity": 86,
      "chip": "ym2612"
    },
    {
      "channel": 0,
      "note": 84,
      "start": 0.3938,
      "duration": 0.1322,
      "velocity": 100,
      "chip": "ym2612"
    },
    {
      "channel": 1,
      "note": 49,
      "start": 0.3945,
      "duration": 0.0641,
      "velocity": 86,
      "chip": "ym2612"
    },
    {
      "channel": 1,
      "note": 37,
      "start": 0.4587,
      "duration": 0.0677,
      "velocity": 86,
      "chip": "ym2612"
    },
    {
      "channel": 0,
      "note": 79,
      "start": 0.5262,
      "duration": 0.1323,
      "velocity": 98,
      "chip": "ym2612"
    },
    {
      "channel": 1,
      "note": 49,
      "start": 0.5265,
      "duration": 0.0644,
      "velocity": 86,
      "chip": "ym2612"
    },
    {
      "channel": 1,
      "note": 37,
      "start": 0.5911,
      "duration": 0.0677,
      "velocity": 86,
      "chip": "ym2612"
    },
    {
      "channel": 0,
      "note": 74,
      "start": 0.6586,
      "duration": 0.1323,
      "velocity": 100,
      "chip": "ym2612"
    },
    {
      "channel": 1,
      "note": 37,
      "start": 0.659,
      "duration": 0.0644,
      "velocity": 86,
      "chip": "ym2612"
    },
    {
      "channel": 1,
      "note": 37,
      "start": 0.7235,
      "duration": 0.0678,
      "velocity": 86,
      "chip": "ym2612"
    },
    {
      "channel": 0,
      "note": 74,
      "start": 0.7911,
      "duration": 0.1323,
      "velocity": 98,
      "chip": "ym2612"
    },
    {
      "channel": 1,
      "note": 37,
      "start": 0.7914,
      "duration": 0.0644,
      "velocity": 86,
      "chip": "ym2612"
    },
    {
      "channel": 1,
      "note": 37,
      "start": 0.856,
      "duration": 0.0677,
      "velocity": 86,
      "chip": "ym2612"
    },
    {
      "channel": 0,
      "note": 79,
      "start": 0.9234,
      "duration": 0.1323,
      "velocity": 100,
      "chip": "ym2612"
    },
    {
      "channel": 1,
      "note": 37,
      "start": 0.9238,
      "duration": 0.0644,
      "velocity": 86,
      "chip": "ym2612"
    },
    {
      "channel": 1,
      "note": 37,
      "start": 0.9884,
      "duration": 0.0677,
      "velocity": 86,
      "chip": "ym2612"
    },
    {
      "channel": 0,
      "note": 77,
      "start": 1.0559,
      "duration": 0.1322,
      "velocity": 98,
      "chip": "ym2612"
    },
    {
      "channel": 1,
      "note": 37,
      "start": 1.0562,
      "duration": 0.0644,
      "velocity": 86,
      "chip": "ym2612"
    },
    {
      "channel": 1,
      "note": 37,
      "start": 1.1208,
      "duration": 0.0677,
      "velocity": 86,
      "chip": "ym2612"
    },
    {
      "channel": 0,
      "note": 74,
      "start": 1.1883,
      "duration": 0.1323,
      "velocity": 100,
      "chip": "ym2612"
    },
    {
      "channel": 1,
      "note": 37,
      "start": 1.1887,
      "duration": 0.0644,
      "velocity": 86,
      "chip": "ym2612"
    },
    {
      "channel": 1,
      "note": 37,
      "start": 1.2532,
      "duration": 0.0677,
      "velocity": 86,
      "chip": "ym2612"
    },
    {
      "channel": 0,
      "note": 74,
      "start": 1.3207,
      "duration": 0.1323,
      "velocity": 98,
      "chip": "ym2612"
    },
    {
      "channel": 1,
      "note": 49,
      "start": 1.321,
      "duration": 0.1323,
      "velocity": 86,
      "chip": "ym2612"
    },
    {
      "channel": 0,
      "note": 77,
      "start": 1.4532,
      "duration": 0.1323,
      "velocity": 100,
      "chip": "ym2612"
    },
    {
      "channel": 1,
      "note": 49,
      "start": 1.4535,
      "duration": 0.4617,
      "velocity": 86,
      "chip": "ym2612"
    },
    {
      "channel": 0,
      "note": 84,
      "start": 1.5855,
      "duration": 0.1323,
      "velocity": 98,
      "chip": "ym2612"
    },
    {
      "channel": 0,
      "note": 74,
      "start": 1.718,
      "duration": 0.1323,
      "velocity": 100,
      "chip": "ym2612"
    },
    {
      "channel": 0,
      "note": 74,
      "start": 1.8504,
      "duration": 0.1322,
      "velocity": 98,
      "chip": "ym2612"
    },
    {
      "channel": 1,
      "note": 49,
      "start": 1.9153,
      "duration": 0.0677,
      "velocity": 86,
      "chip": "ym2612"
    },
    {
      "channel": 0,
      "note": 84,
      "start": 1.9828,
      "duration": 0.1323,
      "velocity": 100,
      "chip": "ym2612"
    },
    {
      "channel": 1,
      "note": 37,
      "start": 1.9831,
      "duration": 0.0644,
      "velocity": 86,
      "chip": "ym2612"
    },
    {
      "channel": 1,
      "note": 49,
      "start": 2.0478,
      "duration": 0.0677,
      "velocity": 86,
      "chip": "ym2612"
    },
    {
      "channel": 0,
      "note": 79,
      "start": 2.1152,
      "duration": 0.1323,
      "velocity": 98,
      "chip": "ym2612"
    },
    {
      "channel": 1,
      "note": 37,
      "start": 2.1156,
      "duration": 0.0644,
      "velocity": 86,
      "chip": "ym2612"
    },
    {
      "channel": 1,
      "note": 37,
      "start": 2.1801,
      "duration": 0.0678,
      "velocity": 86,
      "chip": "ym2612"
    },
    {
      "channel": 0,
      "note": 74,
      "start": 2.2477,
      "duration": 0.1323,
      "velocity": 100,
      "chip": "ym2612"
    },
    {
      "channel": 1,
      "note": 37,
      "start": 2.248,
      "duration": 0.0644,
      "velocity": 86,
      "chip": "ym2612"
    },
    {
      "channel": 1,
      "note": 37,
      "start": 2.3126,
      "duration": 0.0677,
      "velocity": 86,
      "chip": "ym2612"
    },
    {
      "channel": 0,
      "note": 74,
      "start": 2.3801,
      "duration": 0.1327,
      "velocity": 98,
      "chip": "ym2612"
    },
    {
      "channel": 1,
      "note": 37,
      "start": 2.3804,
      "duration": 0.0646,
      "velocity": 86,
      "chip": "ym2612"
    },
    {
      "channel": 1,
      "note": 37,
      "start": 2.4451,
      "duration": 0.0681,
      "velocity": 86,
      "chip": "ym2612"
    },
    {
      "channel": 0,
      "note": 79,
      "start": 2.5129,
      "duration": 0.1323,
      "velocity": 100,
      "chip": "ym2612"
    },
    {
      "channel": 1,
      "note": 37,
      "start": 2.5133,
      "duration": 0.064,
      "velocity": 86,
      "chip": "ym2612"
    },
    {
      "channel": 1,
      "note": 37,
      "start": 2.5778,
      "duration": 0.0677,
      "velocity": 86,
      "chip": "ym2612"
    },
    {
      "channel": 0,
      "note": 77,
      "start": 2.6453,
      "duration": 0.1319,
      "velocity": 98,
      "chip": "ym2612"
    },
    {
      "channel": 1,
      "note": 37,
      "start": 2.6456,
      "duration": 0.0641,
      "velocity": 86,
      "chip": "ym2612"
    },
    {
      "channel": 1,
      "note": 37,
      "start": 2.7098,
      "duration": 0.0681,
      "velocity": 86,
      "chip": "ym2612"
    },
    {
      "channel": 0,
      "note": 74,
      "start": 2.7778,
      "duration": 0.1319,
      "velocity": 100,
      "chip": "ym2612"
    },
    {
      "channel": 1,
      "note": 37,
      "start": 2.7781,
      "duration": 0.064,
      "velocity": 86,
      "chip": "ym2612"
    },
    {
      "channel": 1,
      "note": 49,
      "start": 2.8423,
      "duration": 0.1322,
      "velocity": 86,
      "chip": "ym2612"
    },
    {
      "channel": 0,
      "note": 74,
      "start": 2.9098,
      "duration": 0.1323,
      "velocity": 98,
      "chip": "ym2612"
    },
    {
      "channel": 1,
      "note": 49,
      "start": 2.9747,
      "duration": 0.1322,
      "velocity": 86,
      "chip": "ym2612"
    },
    {
      "channel": 0,
      "note": 77,
      "start": 3.0422,
      "duration": 0.1324,
      "velocity": 100,
      "chip": "ym2612"
    },
    {
      "channel": 0,
      "note": 84,
      "start": 3.1747,
      "duration": 0.1322,
      "velocity": 98,
      "chip": "ym2612"
    },
    {
      "channel": 1,
      "note": 32,
      "start": 3.1763,
      "duration": 2.9762,
      "velocity": 101,
      "chip": "ym2612"
    },
    {
      "channel": 0,
      "note": 74,
      "start": 3.3071,
      "duration": 0.1322,
      "velocity": 100,
      "chip": "ym2612"
    },
    {
      "channel": 0,
      "note": 74,
      "start": 3.4394,
      "duration": 0.1323,
      "velocity": 98,
      "chip": "ym2612"
    },
    {
      "channel": 0,
      "note": 84,
      "start": 3.5719,
      "duration": 0.1323,
      "velocity": 100,
      "chip": "ym2612"
    },
    {
      "channel": 0,
      "note": 79,
      "start": 3.7043,
      "duration": 0.1322,
      "velocity": 98,
      "chip": "ym2612"
    },
    {
      "channel": 0,
      "note": 74,
      "start": 3.8367,
      "duration": 0.1323,
      "velocity": 100,
      "chip": "ym2612"
    },
    {
      "channel": 0,
      "note": 74,
      "start": 3.9691,
      "duration": 0.1323,
      "velocity": 98,
      "chip": "ym2612"
    },
    {
      "channel": 0,
      "note": 79,
      "start": 4.1016,
      "duration": 0.1323,
      "velocity": 100,
      "chip": "ym2612"
    },
    {
      "channel": 0,
      "note": 77,
      "start": 4.2339,
      "duration": 0.1323,
      "velocity": 98,
      "chip": "ym2612"
    },
    {
      "channel": 0,
      "note": 74,
      "start": 4.3664,
      "duration": 0.1322,
      "velocity": 100,
      "chip": "ym2612"
    },
    {
      "channel": 0,
      "note": 74,
      "start": 4.4988,
      "duration": 0.1323,
      "velocity": 98,
      "chip": "ym2612"
    },
    {
      "channel": 0,
      "note": 77,
      "start": 4.6312,
      "duration": 0.1323,
      "velocity": 100,
      "chip": "ym2612"
    },
    {
      "channel": 0,
      "note": 84,
      "start": 4.7637,
      "duration": 0.1326,
      "velocity": 98,
      "chip": "ym2612"
    },
    {
      "channel": 0,
      "note": 74,
      "start": 4.8964,
      "duration": 0.1323,
      "velocity": 100,
      "chip": "ym2612"
    },
    {
      "channel": 0,
      "note": 74,
      "start": 5.0289,
      "duration": 0.1322,
      "velocity": 98,
      "chip": "ym2612"
    },
    {
      "channel": 0,
      "note": 84,
      "start": 5.1613,
      "duration": 0.1319,
      "velocity": 100,
      "chip": "ym2612"
    },
    {
      "channel": 0,
      "note": 79,
      "start": 5.2933,
      "duration": 0.1323,
      "velocity": 98,
      "chip": "ym2612"
    },
    {
      "channel": 0,
      "note": 74,
      "start": 5.4257,
      "duration": 0.1323,
      "velocity": 100,
      "chip": "ym2612"
    },
    {
      "channel": 0,
      "note": 74,
      "start": 5.5582,
      "duration": 0.1322,
      "velocity": 98,
      "chip": "ym2612"
    },
    {
      "channel": 0,
      "note": 79,
      "start": 5.6906,
      "duration": 0.1323,
      "velocity": 100,
      "chip": "ym2612"
    },
    {
      "channel": 0,
      "note": 77,
      "start": 5.823,
      "duration": 0.1322,
      "velocity": 98,
      "chip": "ym2612"
    },
    {
      "channel": 0,
      "note": 74,
      "start": 5.9554,
      "duration": 0.1323,
      "velocity": 100,
      "chip": "ym2612"
    },
    {
      "channel": 0,
      "note": 74,
      "start": 6.0878,
      "duration": 0.1323,
      "velocity": 98,
      "chip": "ym2612"
    },
    {
      "channel": 0,
      "note": 77,
      "start": 6.2203,
      "duration": 0.1323,
      "velocity": 100,
      "chip": "ym2612"
    },
    {
      "channel": 0,
      "note": 84,
      "start": 6.3527,
      "duration": 0.1322,
      "velocity": 98,
      "chip": "ym2612"
    },
    {
      "channel": 1,
      "note": 27,
      "start": 6.3544,
      "duration": 6.356,
      "velocity": 86,
      "chip": "ym2612"
    },
    {
      "channel": 2,
      "note": 109,
      "start": 6.3548,
      "duration": 6.3564,
      "velocity": 113,
      "chip": "ym2612"
    },
    {
      "channel": 3,
      "note": 110,
      "start": 6.3552,
      "duration": 6.3565,
      "velocity": 113,
      "chip": "ym2612"
    },
    {
      "channel": 0,
      "note": 73,
      "start": 6.4851,
      "duration": 0.1323,
      "velocity": 100,
      "chip": "ym2612"
    },
    {
      "channel": 0,
      "note": 73,
      "start": 6.6175,
      "duration": 0.1323,
      "velocity": 98,
      "chip": "ym2612"
    },
    {
      "channel": 0,
      "note": 84,
      "start": 6.7499,
      "duration": 0.1323,
      "velocity": 100,
      "chip": "ym2612"
    },
    {
      "channel": 0,
      "note": 79,
      "start": 6.8824,
      "duration": 0.1323,
      "velocity": 98,
      "chip": "ym2612"
    },
    {
      "channel": 0,
      "note": 73,
      "start": 7.0148,
      "duration": 0.1322,
      "velocity": 100,
      "chip": "ym2612"
    },
    {
      "channel": 0,
      "note": 73,
      "start": 7.1472,
      "duration": 0.1324,
      "velocity": 98,
      "chip": "ym2612"
    },
    {
      "channel": 0,
      "note": 79,
      "start": 7.2798,
      "duration": 0.1326,
      "velocity": 100,
      "chip": "ym2612"
    },
    {
      "channel": 0,
      "note": 77,
      "start": 7.4124,
      "duration": 0.1323,
      "velocity": 98,
      "chip": "ym2612"
    },
    {
      "channel": 0,
      "note": 73,
      "start": 7.5449,
      "duration": 0.1319,
      "velocity": 100,
      "chip": "ym2612"
    },
    {
      "channel": 0,
      "note": 73,
      "start": 7.6769,
      "duration": 0.1322,
      "velocity": 98,
      "chip": "ym2612"
    },
    {
      "channel": 0,
      "note": 77,
      "start": 7.8093,
      "duration": 0.1323,
      "velocity": 100,
      "chip": "ym2612"
    },
    {
      "channel": 0,
      "note": 84,
      "start": 7.9417,
      "duration": 0.1323,
      "velocity": 98,
      "chip": "ym2612"
    },
    {
      "channel": 0,
      "note": 73,
      "start": 8.0741,
      "duration": 0.1323,
      "velocity": 100,
      "chip": "ym2612"
    },
    {
      "channel": 0,
      "note": 73,
      "start": 8.2065,
      "duration": 0.1323,
      "velocity": 98,
      "chip": "ym2612"
    },
    {
      "channel": 0,
      "note": 84,
      "start": 8.339,
      "duration": 0.1323,
      "velocity": 100,
      "chip": "ym2612"
    },
    {
      "channel": 0,
      "note": 79,
      "start": 8.4714,
      "duration": 0.1322,
      "velocity": 98,
      "chip": "ym2612"
    },
    {
      "channel": 0,
      "note": 73,
      "start": 8.6038,
      "duration": 0.1323,
      "velocity": 100,
      "chip": "ym2612"
    },
    {
      "channel": 0,
      "note": 73,
      "start": 8.7362,
      "duration": 0.1323,
      "velocity": 98,
      "chip": "ym2612"
    },
    {
      "channel": 0,
      "note": 79,
      "start": 8.8687,
      "duration": 0.1322,
      "velocity": 100,
      "chip": "ym2612"
    },
    {
      "channel": 0,
      "note": 77,
      "start": 9.0011,
      "duration": 0.1323,
      "velocity": 98,
      "chip": "ym2612"
    },
    {
      "channel": 0,
      "note": 73,
      "start": 9.1335,
      "duration": 0.1323,
      "velocity": 100,
      "chip": "ym2612"
    },
    {
      "channel": 0,
      "note": 73,
      "start": 9.2659,
      "duration": 0.1323,
      "velocity": 98,
      "chip": "ym2612"
    },
    {
      "channel": 0,
      "note": 77,
      "start": 9.3983,
      "duration": 0.1324,
      "velocity": 100,
      "chip": "ym2612"
    },
    {
      "channel": 0,
      "note": 84,
      "start": 9.5308,
      "duration": 0.1322,
      "velocity": 98,
      "chip": "ym2612"
    },
    {
      "channel": 0,
      "note": 73,
      "start": 9.6632,
      "duration": 0.1328,
      "velocity": 100,
      "chip": "ym2612"
    },
    {
      "channel": 0,
      "note": 73,
      "start": 9.796,
      "duration": 0.1323,
      "velocity": 98,
      "chip": "ym2612"
    },
    {
      "channel": 0,
      "note": 84,
      "start": 9.9284,
      "duration": 0.1319,
      "velocity": 100,
      "chip": "ym2612"
    },
    {
      "channel": 0,
      "note": 79,
      "start": 10.0604,
      "duration": 0.1323,
      "velocity": 98,
      "chip": "ym2612"
    },
    {
      "channel": 0,
      "note": 73,
      "start": 10.1929,
      "duration": 0.1323,
      "velocity": 100,
      "chip": "ym2612"
    },
    {
      "channel": 0,
      "note": 73,
      "start": 10.3253,
      "duration": 0.1322,
      "velocity": 98,
      "chip": "ym2612"
    },
    {
      "channel": 0,
      "note": 79,
      "start": 10.4577,
      "duration": 0.1323,
      "velocity": 100,
      "chip": "ym2612"
    },
    {
      "channel": 0,
      "note": 77,
      "start": 10.5901,
      "duration": 0.1323,
      "velocity": 98,
      "chip": "ym2612"
    },
    {
      "channel": 0,
      "note": 73,
      "start": 10.7226,
      "duration": 0.1322,
      "velocity": 100,
      "chip": "ym2612"
    },
    {
      "channel": 0,
      "note": 73,
      "start": 10.8549,
      "duration": 0.1323,
      "velocity": 98,
      "chip": "ym2612"
    },
    {
      "channel": 0,
      "note": 77,
      "start": 10.9874,
      "duration": 0.1323,
      "velocity": 100,
      "chip": "ym2612"
    },
    {
      "channel": 0,
      "note": 84,
      "start": 11.1198,
      "duration": 0.1323,
      "velocity": 98,
      "chip": "ym2612"
    },
    {
      "channel": 0,
      "note": 73,
      "start": 11.2522,
      "duration": 0.1323,
      "velocity": 100,
      "chip": "ym2612"
    },
    {
      "channel": 0,
      "note": 73,
      "start": 11.3846,
      "duration": 0.1323,
      "velocity": 98,
      "chip": "ym2612"
    },
    {
      "channel": 0,
      "note": 84,
      "start": 11.5171,
      "duration": 0.1322,
      "velocity": 100,
      "chip": "ym2612"
    },
    {
      "channel": 0,
      "note": 79,
      "start": 11.6495,
      "duration": 0.1323,
      "velocity": 98,
      "chip": "ym2612"
    },
    {
      "channel": 0,
      "note": 73,
      "start": 11.7819,
      "duration": 0.1323,
      "velocity": 100,
      "chip": "ym2612"
    },
    {
      "channel": 0,
      "note": 73,
      "start": 11.9143,
      "duration": 0.1323,
      "velocity": 98,
      "chip": "ym2612"
    },
    {
      "channel": 0,
      "note": 79,
      "start": 12.0467,
      "duration": 0.1327,
      "velocity": 100,
      "chip": "ym2612"
    },
    {
      "channel": 0,
      "note": 77,
      "start": 12.1796,
      "duration": 0.1323,
      "velocity": 98,
      "chip": "ym2612"
    },
    {
      "channel": 0,
      "note": 73,
      "start": 12.312,
      "duration": 0.1319,
      "velocity": 100,
      "chip": "ym2612"
    },
    {
      "channel": 0,
      "note": 73,
      "start": 12.4444,
      "duration": 0.1319,
      "velocity": 98,
      "chip": "ym2612"
    },
    {
      "channel": 0,
      "note": 77,
      "start": 12.5764,
      "duration": 0.1323,
      "velocity": 100,
      "chip": "ym2612"
    },
    {
      "channel": 0,
      "note": 84,
      "start": 12.7089,
      "duration": 0.1322,
      "velocity": 98,
      "chip": "ym2612"
    },
    {
      "channel": 1,
      "note": 49,
      "start": 12.7105,
      "duration": 0.1309,
      "velocity": 86,
      "chip": "ym2612"
    },
    {
      "channel": 2,
      "note": 103,
      "start": 12.7114,
      "duration": 6.3557,
      "velocity": 113,
      "chip": "ym2612"
    },
    {
      "channel": 3,
      "note": 104,
      "start": 12.7118,
      "duration": 6.3556,
      "velocity": 113,
      "chip": "ym2612"
    },
    {
      "channel": 0,
      "note": 74,
      "start": 12.8413,
      "duration": 0.1323,
      "velocity": 100,
      "chip": "ym2612"
    },
    {
      "channel": 1,
      "note": 49,
      "start": 12.8416,
      "duration": 0.1323,
      "velocity": 86,
      "chip": "ym2612"
    },
    {
      "channel": 0,
      "note": 74,
      "start": 12.9737,
      "duration": 0.1322,
      "velocity": 98,
      "chip": "ym2612"
    },
    {
      "channel": 1,
      "note": 37,
      "start": 12.974,
      "duration": 0.1323,
      "velocity": 86,
      "chip": "ym2612"
    },
    {
      "channel": 0,
      "note": 84,
      "start": 13.1061,
      "duration": 0.1323,
      "velocity": 100,
      "chip": "ym2612"
    },
    {
      "channel": 1,
      "note": 49,
      "start": 13.1065,
      "duration": 0.0644,
      "velocity": 86,
      "chip": "ym2612"
    },
    {
      "channel": 1,
      "note": 37,
      "start": 13.171,
      "duration": 0.0677,
      "velocity": 86,
      "chip": "ym2612"
    },
    {
      "channel": 0,
      "note": 79,
      "start": 13.2385,
      "duration": 0.1323,
      "velocity": 98,
      "chip": "ym2612"
    },
    {
      "channel": 1,
      "note": 49,
      "start": 13.2388,
      "duration": 0.0644,
      "velocity": 86,
      "chip": "ym2612"
    },
    {
      "channel": 1,
      "note": 37,
      "start": 13.3034,
      "duration": 0.0677,
      "velocity": 86,
      "chip": "ym2612"
    },
    {
      "channel": 0,
      "note": 74,
      "start": 13.371,
      "duration": 0.1322,
      "velocity": 100,
      "chip": "ym2612"
    },
    {
      "channel": 1,
      "note": 37,
      "start": 13.3713,
      "duration": 0.0644,
      "velocity": 86,
      "chip": "ym2612"
    },
    {
      "channel": 1,
      "note": 37,
      "start": 13.4359,
      "duration": 0.0677,
      "velocity": 86,
      "chip": "ym2612"
    },
    {
      "channel": 0,
      "note": 74,
      "start": 13.5034,
      "duration": 0.1323,
      "velocity": 98,
      "chip": "ym2612"
    },
    {
      "channel": 1,
      "note": 37,
      "start": 13.5037,
      "duration": 0.0645,
      "velocity": 86,
      "chip": "ym2612"
    },
    {
      "channel": 1,
      "note": 37,
      "start": 13.5683,
      "duration": 0.0677,
      "velocity": 86,
      "chip": "ym2612"
    },
    {
      "channel": 0,
      "note": 79,
      "start": 13.6358,
      "duration": 0.1323,
      "velocity": 100,
      "chip": "ym2612"
    },
    {
      "channel": 1,
      "note": 37,
      "start": 13.6361,
      "duration": 0.0644,
      "velocity": 86,
      "chip": "ym2612"
    },
    {
      "channel": 1,
      "note": 37,
      "start": 13.7007,
      "duration": 0.0678,
      "velocity": 86,
      "chip": "ym2612"
    },
    {
      "channel": 0,
      "note": 77,
      "start": 13.7682,
      "duration": 0.1323,
      "velocity": 98,
      "chip": "ym2612"
    },
    {
      "channel": 1,
      "note": 37,
      "start": 13.7685,
      "duration": 0.0644,
      "velocity": 86,
      "chip": "ym2612"
    },
    {
      "channel": 1,
      "note": 37,
      "start": 13.8331,
      "duration": 0.0677,
      "velocity": 86,
      "chip": "ym2612"
    },
    {
      "channel": 0,
      "note": 74,
      "start": 13.9006,
      "duration": 0.1323,
      "velocity": 100,
      "chip": "ym2612"
    },
    {
      "channel": 1,
      "note": 37,
      "start": 13.9009,
      "duration": 0.0644,
      "velocity": 86,
      "chip": "ym2612"
    },
    {
      "channel": 1,
      "note": 37,
      "start": 13.9655,
      "duration": 0.0677,
      "velocity": 86,
      "chip": "ym2612"
    },
    {
      "channel": 0,
      "note": 74,
      "start": 14.0331,
      "duration": 0.1322,
      "velocity": 98,
      "chip": "ym2612"
    },
    {
      "channel": 1,
      "note": 49,
      "start": 14.0334,
      "duration": 0.1323,
      "velocity": 86,
      "chip": "ym2612"
    },
    {
      "channel": 0,
      "note": 77,
      "start": 14.1654,
      "duration": 0.1323,
      "velocity": 100,
      "chip": "ym2612"
    },
    {
      "channel": 1,
      "note": 49,
      "start": 14.1658,
      "duration": 0.4621,
      "velocity": 86,
      "chip": "ym2612"
    },
    {
      "channel": 0,
      "note": 84,
      "start": 14.2979,
      "duration": 0.1323,
      "velocity": 98,
      "chip": "ym2612"
    },
    {
      "channel": 0,
      "note": 74,
      "start": 14.4303,
      "duration": 0.1326,
      "velocity": 100,
      "chip": "ym2612"
    },
    {
      "channel": 0,
      "note": 74,
      "start": 14.5631,
      "duration": 0.1323,
      "velocity": 98,
      "chip": "ym2612"
    },
    {
      "channel": 1,
      "note": 49,
      "start": 14.628,
      "duration": 0.0677,
      "velocity": 86,
      "chip": "ym2612"
    },
    {
      "channel": 0,
      "note": 84,
      "start": 14.6955,
      "duration": 0.1323,
      "velocity": 100,
      "chip": "ym2612"
    },
    {
      "channel": 1,
      "note": 37,
      "start": 14.6959,
      "duration": 0.0641,
      "velocity": 86,
      "chip": "ym2612"
    },
    {
      "channel": 1,
      "note": 49,
      "start": 14.76,
      "duration": 0.0681,
      "velocity": 86,
      "chip": "ym2612"
    },
    {
      "channel": 0,
      "note": 79,
      "start": 14.828,
      "duration": 0.1319,
      "velocity": 98,
      "chip": "ym2612"
    },
    {
      "channel": 1,
      "note": 37,
      "start": 14.8283,
      "duration": 0.0641,
      "velocity": 86,
      "chip": "ym2612"
    },
    {
      "channel": 1,
      "note": 37,
      "start": 14.8925,
      "duration": 0.0678,
      "velocity": 86,
      "chip": "ym2612"
    },
    {
      "channel": 0,
      "note": 74,
      "start": 14.96,
      "duration": 0.1323,
      "velocity": 100,
      "chip": "ym2612"
    },
    {
      "channel": 1,
      "note": 37,
      "start": 14.9603,
      "duration": 0.0644,
      "velocity": 86,
      "chip": "ym2612"
    },
    {
      "channel": 1,
      "note": 37,
      "start": 15.0249,
      "duration": 0.0677,
      "velocity": 86,
      "chip": "ym2612"
    },
    {
      "channel": 0,
      "note": 74,
      "start": 15.0924,
      "duration": 0.1323,
      "velocity": 98,
      "chip": "ym2612"
    },
    {
      "channel": 1,
      "note": 37,
      "start": 15.0927,
      "duration": 0.0644,
      "velocity": 86,
      "chip": "ym2612"
    },
    {
      "channel": 1,
      "note": 37,
      "start": 15.1573,
      "duration": 0.0678,
      "velocity": 86,
      "chip": "ym2612"
    },
    {
      "channel": 0,
      "note": 79,
      "start": 15.2249,
      "duration": 0.1322,
      "velocity": 100,
      "chip": "ym2612"
    },
    {
      "channel": 1,
      "note": 37,
      "start": 15.2252,
      "duration": 0.0644,
      "velocity": 86,
      "chip": "ym2612"
    },
    {
      "channel": 1,
      "note": 37,
      "start": 15.2898,
      "duration": 0.0677,
      "velocity": 86,
      "chip": "ym2612"
    },
    {
      "channel": 0,
      "note": 77,
      "start": 15.3572,
      "duration": 0.1323,
      "velocity": 98,
      "chip": "ym2612"
    },
    {
      "channel": 1,
      "note": 37,
      "start": 15.3576,
      "duration": 0.0645,
      "velocity": 86,
      "chip": "ym2612"
    },
    {
      "channel": 1,
      "note": 37,
      "start": 15.4222,
      "duration": 0.0677,
      "velocity": 86,
      "chip": "ym2612"
    },
    {
      "channel": 0,
      "note": 74,
      "start": 15.4897,
      "duration": 0.1322,
      "velocity": 100,
      "chip": "ym2612"
    },
    {
      "channel": 1,
      "note": 37,
      "start": 15.49,
      "duration": 0.0644,
      "velocity": 86,
      "chip": "ym2612"
    },
    {
      "channel": 1,
      "note": 49,
      "start": 15.5546,
      "duration": 0.1323,
      "velocity": 86,
      "chip": "ym2612"
    },
    {
      "channel": 0,
      "note": 74,
      "start": 15.6221,
      "duration": 0.1323,
      "velocity": 98,
      "chip": "ym2612"
    },
    {
      "channel": 1,
      "note": 49,
      "start": 15.687,
      "duration": 0.1322,
      "velocity": 86,
      "chip": "ym2612"
    },
    {
      "channel": 0,
      "note": 77,
      "start": 15.7545,
      "duration": 0.1324,
      "velocity": 100,
      "chip": "ym2612"
    },
    {
      "channel": 0,
      "note": 84,
      "start": 15.887,
      "duration": 0.1322,
      "velocity": 98,
      "chip": "ym2612"
    },
    {
      "channel": 1,
      "note": 32,
      "start": 15.8886,
      "duration": 2.9763,
      "velocity": 101,
      "chip": "ym2612"
    },
    {
      "channel": 0,
      "note": 74,
      "start": 16.0193,
      "duration": 0.1323,
      "velocity": 100,
      "chip": "ym2612"
    },
    {
      "channel": 0,
      "note": 74,
      "start": 16.1518,
      "duration": 0.1323,
      "velocity": 98,
      "chip": "ym2612"
    },
    {
      "channel": 0,
      "note": 84,
      "start": 16.2842,
      "duration": 0.1323,
      "velocity": 100,
      "chip": "ym2612"
    },
    {
      "channel": 0,
      "note": 79,
      "start": 16.4166,
      "duration": 0.1323,
      "velocity": 98,
      "chip": "ym2612"
    },
    {
      "channel": 0,
      "note": 74,
      "start": 16.549,
      "duration": 0.1323,
      "velocity": 100,
      "chip": "ym2612"
    },
    {
      "channel": 0,
      "note": 74,
      "start": 16.6815,
      "duration": 0.1322,
      "velocity": 98,
      "chip": "ym2612"
    },
    {
      "channel": 0,
      "note": 79,
      "start": 16.8139,
      "duration": 0.1324,
      "velocity": 100,
      "chip": "ym2612"
    },
    {
      "channel": 0,
      "note": 77,
      "start": 16.9464,
      "duration": 0.1326,
      "velocity": 98,
      "chip": "ym2612"
    },
    {
      "channel": 0,
      "note": 74,
      "start": 17.0791,
      "duration": 0.1323,
      "velocity": 100,
      "chip": "ym2612"
    },
    {
      "channel": 0,
      "note": 74,
      "start": 17.2116,
      "duration": 0.1319,
      "velocity": 98,
      "chip": "ym2612"
    },
    {
      "channel": 0,
      "note": 77,
      "start": 17.3436,
      "duration": 0.1322,
      "velocity": 100,
      "chip": "ym2612"
    },
    {
      "channel": 0,
      "note": 84,
      "start": 17.4759,
      "duration": 0.1323,
      "velocity": 98,
      "chip": "ym2612"
    },
    {
      "channel": 0,
      "note": 74,
      "start": 17.6084,
      "duration": 0.1323,
      "velocity": 100,
      "chip": "ym2612"
    },
    {
      "channel": 0,
      "note": 74,
      "start": 17.7408,
      "duration": 0.1323,
      "velocity": 98,
      "chip": "ym2612"
    },
    {
      "channel": 0,
      "note": 84,
      "start": 17.8732,
      "duration": 0.1323,
      "velocity": 100,
      "chip": "ym2612"
    },
    {
      "channel": 0,
      "note": 79,
      "start": 18.0056,
      "duration": 0.1323,
      "velocity": 98,
      "chip": "ym2612"
    },
    {
      "channel": 0,
      "note": 74,
      "start": 18.1381,
      "duration": 0.1322,
      "velocity": 100,
      "chip": "ym2612"
    },
    {
      "channel": 0,
      "note": 74,
      "start": 18.2705,
      "duration": 0.1323,
      "velocity": 98,
      "chip": "ym2612"
    },
    {
      "channel": 0,
      "note": 79,
      "start": 18.4029,
      "duration": 0.1323,
      "velocity": 100,
      "chip": "ym2612"
    },
    {
      "channel": 0,
      "note": 77,
      "start": 18.5354,
      "duration": 0.1322,
      "velocity": 98,
      "chip": "ym2612"
    },
    {
      "channel": 0,
      "note": 74,
      "start": 18.6677,
      "duration": 0.1323,
      "velocity": 100,
      "chip": "ym2612"
    },
    {
      "channel": 0,
      "note": 74,
      "start": 18.8002,
      "duration": 0.1322,
      "velocity": 98,
      "chip": "ym2612"
    },
    {
      "channel": 0,
      "note": 77,
      "start": 18.9326,
      "duration": 0.1324,
      "velocity": 100,
      "chip": "ym2612"
    },
    {
      "channel": 0,
      "note": 84,
      "start": 19.0651,
      "duration": 0.1322,
      "velocity": 98,
      "chip": "ym2612"
    },
    {
      "channel": 1,
      "note": 27,
      "start": 19.0667,
      "duration": 6.3561,
      "velocity": 91,
      "chip": "ym2612"
    },
    {
      "channel": 2,
      "note": 109,
      "start": 19.0672,
      "duration": 6.4879,
      "velocity": 88,
      "chip": "ym2612"
    },
    {
      "channel": 3,
      "note": 110,
      "start": 19.0675,
      "duration": 6.3568,
      "velocity": 88,
      "chip": "ym2612"
    },
    {
      "channel": 0,
      "note": 73,
      "start": 19.1974,
      "duration": 0.1323,
      "velocity": 100,
      "chip": "ym2612"
    },
    {
      "channel": 0,
      "note": 73,
      "start": 19.3299,
      "duration": 0.1326,
      "velocity": 98,
      "chip": "ym2612"
    },
    {
      "channel": 0,
      "note": 84,
      "start": 19.4626,
      "duration": 0.1323,
      "velocity": 100,
      "chip": "ym2612"
    },
    {
      "channel": 0,
      "note": 79,
      "start": 19.5951,
      "duration": 0.1319,
      "velocity": 98,
      "chip": "ym2612"
    },
    {
      "channel": 0,
      "note": 73,
      "start": 19.7271,
      "duration": 0.1323,
      "velocity": 100,
      "chip": "ym2612"
    },
    {
      "channel": 0,
      "note": 73,
      "start": 19.8595,
      "duration": 0.1323,
      "velocity": 98,
      "chip": "ym2612"
    },
    {
      "channel": 0,
      "note": 79,
      "start": 19.992,
      "duration": 0.1322,
      "velocity": 100,
      "chip": "ym2612"
    },
    {
      "channel": 0,
      "note": 77,
      "start": 20.1244,
      "duration": 0.1323,
      "velocity": 98,
      "chip": "ym2612"
    },
    {
      "channel": 0,
      "note": 73,
      "start": 20.2568,
      "duration": 0.1323,
      "velocity": 100,
      "chip": "ym2612"
    },
    {
      "channel": 0,
      "note": 73,
      "start": 20.3892,
      "duration": 0.1322,
      "velocity": 98,
      "chip": "ym2612"
    },
    {
      "channel": 0,
      "note": 77,
      "start": 20.5216,
      "duration": 0.1323,
      "velocity": 100,
      "chip": "ym2612"
    },
    {
      "channel": 0,
      "note": 84,
      "start": 20.6541,
      "duration": 0.1322,
      "velocity": 98,
      "chip": "ym2612"
    },
    {
      "channel": 0,
      "note": 73,
      "start": 20.7864,
      "duration": 0.1323,
      "velocity": 100,
      "chip": "ym2612"
    },
    {
      "channel": 0,
      "note": 73,
      "start": 20.9189,
      "duration": 0.1323,
      "velocity": 98,
      "chip": "ym2612"
    },
    {
      "channel": 0,
      "note": 84,
      "start": 21.0513,
      "duration": 0.1322,
      "velocity": 100,
      "chip": "ym2612"
    },
    {
      "channel": 0,
      "note": 79,
      "start": 21.1837,
      "duration": 0.1323,
      "velocity": 98,
      "chip": "ym2612"
    },
    {
      "channel": 0,
      "note": 73,
      "start": 21.3161,
      "duration": 0.1323,
      "velocity": 100,
      "chip": "ym2612"
    },
    {
      "channel": 0,
      "note": 73,
      "start": 21.4486,
      "duration": 0.1323,
      "velocity": 98,
      "chip": "ym2612"
    },
    {
      "channel": 0,
      "note": 79,
      "start": 21.581,
      "duration": 0.1323,
      "velocity": 100,
      "chip": "ym2612"
    },
    {
      "channel": 0,
      "note": 77,
      "start": 21.7134,
      "duration": 0.1327,
      "velocity": 98,
      "chip": "ym2612"
    },
    {
      "channel": 0,
      "note": 73,
      "start": 21.8462,
      "duration": 0.1323,
      "velocity": 100,
      "chip": "ym2612"
    },
    {
      "channel": 0,
      "note": 73,
      "start": 21.9787,
      "duration": 0.1319,
      "velocity": 98,
      "chip": "ym2612"
    },
    {
      "channel": 0,
      "note": 77,
      "start": 22.111,
      "duration": 0.132,
      "velocity": 100,
      "chip": "ym2612"
    },
    {
      "channel": 0,
      "note": 84,
      "start": 22.2432,
      "duration": 0.1322,
      "velocity": 98,
      "chip": "ym2612"
    },
    {
      "channel": 0,
      "note": 73,
      "start": 22.3755,
      "duration": 0.1323,
      "velocity": 100,
      "chip": "ym2612"
    },
    {
      "channel": 0,
      "note": 73,
      "start": 22.5079,
      "duration": 0.1323,
      "velocity": 98,
      "chip": "ym2612"
    },
    {
      "channel": 0,
      "note": 84,
      "start": 22.6404,
      "duration": 0.1322,
      "velocity": 100,
      "chip": "ym2612"
    },
    {
      "channel": 0,
      "note": 79,
      "start": 22.7728,
      "duration": 0.1323,
      "velocity": 98,
      "chip": "ym2612"
    },
    {
      "channel": 0,
      "note": 73,
      "start": 22.9052,
      "duration": 0.1323,
      "velocity": 100,
      "chip": "ym2612"
    },
    {
      "channel": 0,
      "note": 73,
      "start": 23.0376,
      "duration": 0.1323,
      "velocity": 98,
      "chip": "ym2612"
    },
    {
      "channel": 0,
      "note": 79,
      "start": 23.17,
      "duration": 0.1323,
      "velocity": 100,
      "chip": "ym2612"
    },
    {
      "channel": 0,
      "note": 77,
      "start": 23.3025,
      "duration": 0.1322,
      "velocity": 98,
      "chip": "ym2612"
    },
    {
      "channel": 0,
      "note": 73,
      "start": 23.4349,
      "duration": 0.1323,
      "velocity": 100,
      "chip": "ym2612"
    },
    {
      "channel": 0,
      "note": 73,
      "start": 23.5673,
      "duration": 0.1323,
      "velocity": 98,
      "chip": "ym2612"
    },
    {
      "channel": 0,
      "note": 77,
      "start": 23.6997,
      "duration": 0.1322,
      "velocity": 100,
      "chip": "ym2612"
    },
    {
      "channel": 0,
      "note": 84,
      "start": 23.8321,
      "duration": 0.1323,
      "velocity": 98,
      "chip": "ym2612"
    },
    {
      "channel": 0,
      "note": 73,
      "start": 23.9646,
      "duration": 0.1323,
      "velocity": 100,
      "chip": "ym2612"
    },
    {
      "channel": 0,
      "note": 73,
      "start": 24.097,
      "duration": 0.1326,
      "velocity": 98,
      "chip": "ym2612"
    },
    {
      "channel": 0,
      "note": 84,
      "start": 24.2298,
      "duration": 0.1323,
      "velocity": 100,
      "chip": "ym2612"
    },
    {
      "channel": 0,
      "note": 79,
      "start": 24.3622,
      "duration": 0.1323,
      "velocity": 98,
      "chip": "ym2612"
    },
    {
      "channel": 0,
      "note": 73,
      "start": 24.4946,
      "duration": 0.1319,
      "velocity": 100,
      "chip": "ym2612"
    },
    {
      "channel": 0,
      "note": 73,
      "start": 24.6266,
      "duration": 0.1323,
      "velocity": 98,
      "chip": "ym2612"
    },
    {
      "channel": 0,
      "note": 79,
      "start": 24.7591,
      "duration": 0.1323,
      "velocity": 100,
      "chip": "ym2612"
    },
    {
      "channel": 0,
      "note": 77,
      "start": 24.8915,
      "duration": 0.1323,
      "velocity": 98,
      "chip": "ym2612"
    },
    {
      "channel": 0,
      "note": 73,
      "start": 25.0239,
      "duration": 0.1323,
      "velocity": 100,
      "chip": "ym2612"
    },
    {
      "channel": 0,
      "note": 73,
      "start": 25.1563,
      "duration": 0.1322,
      "velocity": 98,
      "chip": "ym2612"
    },
    {
      "channel": 0,
      "note": 77,
      "start": 25.2887,
      "duration": 0.1324,
      "velocity": 100,
      "chip": "ym2612"
    },
    {
      "channel": 0,
      "note": 73,
      "start": 25.4212,
      "duration": 0.1322,
      "velocity": 98,
      "chip": "ym2612"
    },
    {
      "channel": 1,
      "note": 85,
      "start": 25.4229,
      "duration": 0.2634,
      "velocity": 91,
      "chip": "ym2612"
    },
    {
      "channel": 3,
      "note": 44,
      "start": 25.4245,
      "duration": 3.1767,
      "velocity": 97,
      "chip": "ym2612"
    },
    {
      "channel": 4,
      "note": 44,
      "start": 25.4262,
      "duration": 6.3539,
      "velocity": 113,
      "chip": "ym2612"
    },
    {
      "channel": 5,
      "note": 44,
      "start": 25.4283,
      "duration": 6.3522,
      "velocity": 113,
      "chip": "ym2612"
    },
    {
      "channel": 0,
      "note": 63,
      "start": 25.5536,
      "duration": 0.1322,
      "velocity": 100,
      "chip": "ym2612"
    },
    {
      "channel": 2,
      "note": 75,
      "start": 25.5552,
      "duration": 0.2634,
      "velocity": 88,
      "chip": "ym2612"
    },
    {
      "channel": 0,
      "note": 63,
      "start": 25.686,
      "duration": 0.1323,
      "velocity": 98,
      "chip": "ym2612"
    },
    {
      "channel": 1,
      "note": 75,
      "start": 25.6864,
      "duration": 0.2647,
      "velocity": 91,
      "chip": "ym2612"
    },
    {
      "channel": 0,
      "note": 73,
      "start": 25.8184,
      "duration": 0.1323,
      "velocity": 100,
      "chip": "ym2612"
    },
    {
      "channel": 2,
      "note": 85,
      "start": 25.8188,
      "duration": 0.2648,
      "velocity": 88,
      "chip": "ym2612"
    },
    {
      "channel": 0,
      "note": 68,
      "start": 25.9509,
      "duration": 0.1323,
      "velocity": 98,
      "chip": "ym2612"
    },
    {
      "channel": 1,
      "note": 80,
      "start": 25.9512,
      "duration": 0.2647,
      "velocity": 91,
      "chip": "ym2612"
    },
    {
      "channel": 0,
      "note": 63,
      "start": 26.0832,
      "duration": 0.1323,
      "velocity": 100,
      "chip": "ym2612"
    },
    {
      "channel": 2,
      "note": 75,
      "start": 26.0836,
      "duration": 0.2647,
      "velocity": 88,
      "chip": "ym2612"
    },
    {
      "channel": 0,
      "note": 63,
      "start": 26.2157,
      "duration": 0.1323,
      "velocity": 98,
      "chip": "ym2612"
    },
    {
      "channel": 1,
      "note": 75,
      "start": 26.216,
      "duration": 0.2647,
      "velocity": 91,
      "chip": "ym2612"
    },
    {
      "channel": 0,
      "note": 68,
      "start": 26.3481,
      "duration": 0.1322,
      "velocity": 100,
      "chip": "ym2612"
    },
    {
      "channel": 2,
      "note": 80,
      "start": 26.3485,
      "duration": 0.2648,
      "velocity": 88,
      "chip": "ym2612"
    },
    {
      "channel": 0,
      "note": 66,
      "start": 26.4805,
      "duration": 0.1324,
      "velocity": 98,
      "chip": "ym2612"
    },
    {
      "channel": 1,
      "note": 78,
      "start": 26.4808,
      "duration": 0.2651,
      "velocity": 91,
      "chip": "ym2612"
    },
    {
      "channel": 0,
      "note": 63,
      "start": 26.6131,
      "duration": 0.1326,
      "velocity": 100,
      "chip": "ym2612"
    },
    {
      "channel": 2,
      "note": 75,
      "start": 26.6134,
      "duration": 0.265,
      "velocity": 88,
      "chip": "ym2612"
    },
    {
      "channel": 0,
      "note": 63,
      "start": 26.7458,
      "duration": 0.1323,
      "velocity": 98,
      "chip": "ym2612"
    },
    {
      "channel": 1,
      "note": 75,
      "start": 26.7461,
      "duration": 0.2643,
      "velocity": 91,
      "chip": "ym2612"
    },
    {
      "channel": 0,
      "note": 66,
      "start": 26.8782,
      "duration": 0.1319,
      "velocity": 100,
      "chip": "ym2612"
    },
    {
      "channel": 2,
      "note": 78,
      "start": 26.8785,
      "duration": 0.2643,
      "velocity": 88,
      "chip": "ym2612"
    },
    {
      "channel": 0,
      "note": 73,
      "start": 27.0102,
      "duration": 0.1322,
      "velocity": 98,
      "chip": "ym2612"
    },
    {
      "channel": 1,
      "note": 85,
      "start": 27.0105,
      "duration": 0.2647,
      "velocity": 91,
      "chip": "ym2612"
    },
    {
      "channel": 0,
      "note": 63,
      "start": 27.1426,
      "duration": 0.1323,
      "velocity": 100,
      "chip": "ym2612"
    },
    {
      "channel": 2,
      "note": 75,
      "start": 27.143,
      "duration": 0.2647,
      "velocity": 88,
      "chip": "ym2612"
    },
    {
      "channel": 0,
      "note": 63,
      "start": 27.2751,
      "duration": 0.1323,
      "velocity": 98,
      "chip": "ym2612"
    },
    {
      "channel": 1,
      "note": 75,
      "start": 27.2754,
      "duration": 0.2647,
      "velocity": 91,
      "chip": "ym2612"
    },
    {
      "channel": 0,
      "note": 73,
      "start": 27.4075,
      "duration": 0.1323,
      "velocity": 100,
      "chip": "ym2612"
    },
    {
      "channel": 2,
      "note": 85,
      "start": 27.4078,
      "duration": 0.2647,
      "velocity": 88,
      "chip": "ym2612"
    },
    {
      "channel": 0,
      "note": 68,
      "start": 27.5399,
      "duration": 0.1323,
      "velocity": 98,
      "chip": "ym2612"
    },
    {
      "channel": 1,
      "note": 80,
      "start": 27.5402,
      "duration": 0.2647,
      "velocity": 91,
      "chip": "ym2612"
    },
    {
      "channel": 0,
      "note": 63,
      "start": 27.6723,
      "duration": 0.1323,
      "velocity": 100,
      "chip": "ym2612"
    },
    {
      "channel": 2,
      "note": 75,
      "start": 27.6726,
      "duration": 0.2648,
      "velocity": 88,
      "chip": "ym2612"
    },
    {
      "channel": 0,
      "note": 63,
      "start": 27.8048,
      "duration": 0.1322,
      "velocity": 98,
      "chip": "ym2612"
    },
    {
      "channel": 1,
      "note": 75,
      "start": 27.8051,
      "duration": 0.2647,
      "velocity": 91,
      "chip": "ym2612"
    },
    {
      "channel": 0,
      "note": 68,
      "start": 27.9371,
      "duration": 0.1323,
      "velocity": 100,
      "chip": "ym2612"
    },
    {
      "channel": 2,
      "note": 80,
      "start": 27.9375,
      "duration": 0.2647,
      "velocity": 88,
      "chip": "ym2612"
    },
    {
      "channel": 0,
      "note": 66,
      "start": 28.0696,
      "duration": 0.1323,
      "velocity": 98,
      "chip": "ym2612"
    },
    {
      "channel": 1,
      "note": 78,
      "start": 28.0699,
      "duration": 0.2647,
      "velocity": 91,
      "chip": "ym2612"
    },
    {
      "channel": 0,
      "note": 63,
      "start": 28.202,
      "duration": 0.1323,
      "velocity": 100,
      "chip": "ym2612"
    },
    {
      "channel": 2,
      "note": 75,
      "start": 28.2023,
      "duration": 0.2647,
      "velocity": 88,
      "chip": "ym2612"
    },
    {
      "channel": 0,
      "note": 63,
      "start": 28.3344,
      "duration": 0.1323,
      "velocity": 98,
      "chip": "ym2612"
    },
    {
      "channel": 1,
      "note": 75,
      "start": 28.3347,
      "duration": 0.2648,
      "velocity": 91,
      "chip": "ym2612"
    },
    {
      "channel": 0,
      "note": 66,
      "start": 28.4668,
      "duration": 0.1323,
      "velocity": 100,
      "chip": "ym2612"
    },
    {
      "channel": 2,
      "note": 78,
      "start": 28.4672,
      "duration": 0.2647,
      "velocity": 88,
      "chip": "ym2612"
    },
    {
      "channel": 0,
      "note": 73,
      "start": 28.5993,
      "duration": 0.1323,
      "velocity": 98,
      "chip": "ym2612"
    },
    {
      "channel": 1,
      "note": 85,
      "start": 28.5997,
      "duration": 0.2646,
      "velocity": 91,
      "chip": "ym2612"
    },
    {
      "channel": 3,
      "note": 51,
      "start": 28.6012,
      "duration": 0.131,
      "velocity": 97,
      "chip": "ym2612"
    },
    {
      "channel": 0,
      "note": 63,
      "start": 28.7317,
      "duration": 0.1323,
      "velocity": 100,
      "chip": "ym2612"
    },
    {
      "channel": 2,
      "note": 75,
      "start": 28.732,
      "duration": 0.2647,
      "velocity": 88,
      "chip": "ym2612"
    },
    {
      "channel": 3,
      "note": 51,
      "start": 28.7324,
      "duration": 0.1322,
      "velocity": 97,
      "chip": "ym2612"
    },
    {
      "channel": 0,
      "note": 63,
      "start": 28.8641,
      "duration": 0.1322,
      "velocity": 98,
      "chip": "ym2612"
    },
    {
      "channel": 1,
      "note": 75,
      "start": 28.8644,
      "duration": 0.2651,
      "velocity": 91,
      "chip": "ym2612"
    },
    {
      "channel": 3,
      "note": 39,
      "start": 28.8647,
      "duration": 0.1323,
      "velocity": 97,
      "chip": "ym2612"
    },
    {
      "channel": 0,
      "note": 73,
      "start": 28.9965,
      "duration": 0.1327,
      "velocity": 100,
      "chip": "ym2612"
    },
    {
      "channel": 2,
      "note": 85,
      "start": 28.9969,
      "duration": 0.2651,
      "velocity": 88,
      "chip": "ym2612"
    },
    {
      "channel": 3,
      "note": 51,
      "start": 28.9972,
      "duration": 0.0644,
      "velocity": 97,
      "chip": "ym2612"
    },
    {
      "channel": 3,
      "note": 39,
      "start": 29.0617,
      "duration": 0.0681,
      "velocity": 97,
      "chip": "ym2612"
    },
    {
      "channel": 0,
      "note": 68,
      "start": 29.1294,
      "duration": 0.1323,
      "velocity": 98,
      "chip": "ym2612"
    },
    {
      "channel": 1,
      "note": 80,
      "start": 29.1297,
      "duration": 0.2647,
      "velocity": 91,
      "chip": "ym2612"
    },
    {
      "channel": 3,
      "note": 51,
      "start": 29.13,
      "duration": 0.0637,
      "velocity": 97,
      "chip": "ym2612"
    },
    {
      "channel": 3,
      "note": 39,
      "start": 29.1939,
      "duration": 0.0684,
      "velocity": 97,
      "chip": "ym2612"
    },
    {
      "channel": 0,
      "note": 63,
      "start": 29.2617,
      "duration": 0.1319,
      "velocity": 100,
      "chip": "ym2612"
    },
    {
      "channel": 2,
      "note": 75,
      "start": 29.2621,
      "duration": 0.2643,
      "velocity": 88,
      "chip": "ym2612"
    },
    {
      "channel": 3,
      "note": 39,
      "start": 29.2624,
      "duration": 0.0637,
      "velocity": 97,
      "chip": "ym2612"
    },
    {
      "channel": 3,
      "note": 39,
      "start": 29.3263,
      "duration": 0.0684,
      "velocity": 97,
      "chip": "ym2612"
    },
    {
      "channel": 0,
      "note": 63,
      "start": 29.3937,
      "duration": 0.1323,
      "velocity": 98,
      "chip": "ym2612"
    },
    {
      "channel": 1,
      "note": 75,
      "start": 29.3945,
      "duration": 0.2643,
      "velocity": 91,
      "chip": "ym2612"
    },
    {
      "channel": 3,
      "note": 39,
      "start": 29.3948,
      "duration": 0.0637,
      "velocity": 97,
      "chip": "ym2612"
    },
    {
      "channel": 3,
      "note": 39,
      "start": 29.4587,
      "duration": 0.068,
      "velocity": 97,
      "chip": "ym2612"
    },
    {
      "channel": 0,
      "note": 68,
      "start": 29.5262,
      "duration": 0.1323,
      "velocity": 100,
      "chip": "ym2612"
    },
    {
      "channel": 2,
      "note": 80,
      "start": 29.5265,
      "duration": 0.2647,
      "velocity": 88,
      "chip": "ym2612"
    },
    {
      "channel": 3,
      "note": 39,
      "start": 29.5268,
      "duration": 0.0641,
      "velocity": 97,
      "chip": "ym2612"
    },
    {
      "channel": 3,
      "note": 39,
      "start": 29.5911,
      "duration": 0.0681,
      "velocity": 97,
      "chip": "ym2612"
    },
    {
      "channel": 0,
      "note": 66,
      "start": 29.6586,
      "duration": 0.1322,
      "velocity": 98,
      "chip": "ym2612"
    },
    {
      "channel": 1,
      "note": 78,
      "start": 29.659,
      "duration": 0.2647,
      "velocity": 91,
      "chip": "ym2612"
    },
    {
      "channel": 3,
      "note": 39,
      "start": 29.6593,
      "duration": 0.0641,
      "velocity": 97,
      "chip": "ym2612"
    },
    {
      "channel": 3,
      "note": 39,
      "start": 29.7235,
      "duration": 0.068,
      "velocity": 97,
      "chip": "ym2612"
    },
    {
      "channel": 0,
      "note": 63,
      "start": 29.791,
      "duration": 0.1323,
      "velocity": 100,
      "chip": "ym2612"
    },
    {
      "channel": 2,
      "note": 75,
      "start": 29.7913,
      "duration": 0.2648,
      "velocity": 88,
      "chip": "ym2612"
    },
    {
      "channel": 3,
      "note": 39,
      "start": 29.7917,
      "duration": 0.0642,
      "velocity": 97,
      "chip": "ym2612"
    },
    {
      "channel": 3,
      "note": 39,
      "start": 29.856,
      "duration": 0.068,
      "velocity": 97,
      "chip": "ym2612"
    },
    {
      "channel": 0,
      "note": 63,
      "start": 29.9234,
      "duration": 0.1323,
      "velocity": 98,
      "chip": "ym2612"
    },
    {
      "channel": 1,
      "note": 75,
      "start": 29.9238,
      "duration": 0.2648,
      "velocity": 91,
      "chip": "ym2612"
    },
    {
      "channel": 3,
      "note": 51,
      "start": 29.9241,
      "duration": 0.1323,
      "velocity": 97,
      "chip": "ym2612"
    },
    {
      "channel": 0,
      "note": 66,
      "start": 30.0559,
      "duration": 0.1322,
      "velocity": 100,
      "chip": "ym2612"
    },
    {
      "channel": 2,
      "note": 78,
      "start": 30.0562,
      "duration": 0.2647,
      "velocity": 88,
      "chip": "ym2612"
    },
    {
      "channel": 3,
      "note": 51,
      "start": 30.0565,
      "duration": 0.4614,
      "velocity": 97,
      "chip": "ym2612"
    },
    {
      "channel": 0,
      "note": 73,
      "start": 30.1883,
      "duration": 0.1323,
      "velocity": 98,
      "chip": "ym2612"
    },
    {
      "channel": 1,
      "note": 85,
      "start": 30.1887,
      "duration": 0.2647,
      "velocity": 91,
      "chip": "ym2612"
    },
    {
      "channel": 0,
      "note": 63,
      "start": 30.3207,
      "duration": 0.1323,
      "velocity": 100,
      "chip": "ym2612"
    },
    {
      "channel": 2,
      "note": 75,
      "start": 30.321,
      "duration": 0.2647,
      "velocity": 88,
      "chip": "ym2612"
    },
    {
      "channel": 0,
      "note": 63,
      "start": 30.4532,
      "duration": 0.1323,
      "velocity": 98,
      "chip": "ym2612"
    },
    {
      "channel": 1,
      "note": 75,
      "start": 30.4535,
      "duration": 0.2647,
      "velocity": 91,
      "chip": "ym2612"
    },
    {
      "channel": 3,
      "note": 51,
      "start": 30.518,
      "duration": 0.068,
      "velocity": 97,
      "chip": "ym2612"
    },
    {
      "channel": 0,
      "note": 73,
      "start": 30.5855,
      "duration": 0.1323,
      "velocity": 100,
      "chip": "ym2612"
    },
    {
      "channel": 2,
      "note": 85,
      "start": 30.5859,
      "duration": 0.2648,
      "velocity": 88,
      "chip": "ym2612"
    },
    {
      "channel": 3,
      "note": 39,
      "start": 30.5862,
      "duration": 0.0641,
      "velocity": 97,
      "chip": "ym2612"
    },
    {
      "channel": 3,
      "note": 51,
      "start": 30.6505,
      "duration": 0.068,
      "velocity": 97,
      "chip": "ym2612"
    },
    {
      "channel": 0,
      "note": 68,
      "start": 30.718,
      "duration": 0.1322,
      "velocity": 98,
      "chip": "ym2612"
    },
    {
      "channel": 1,
      "note": 80,
      "start": 30.7183,
      "duration": 0.2647,
      "velocity": 91,
      "chip": "ym2612"
    },
    {
      "channel": 3,
      "note": 39,
      "start": 30.7186,
      "duration": 0.0641,
      "velocity": 97,
      "chip": "ym2612"
    },
    {
      "channel": 3,
      "note": 39,
      "start": 30.7829,
      "duration": 0.068,
      "velocity": 97,
      "chip": "ym2612"
    },
    {
      "channel": 0,
      "note": 63,
      "start": 30.8504,
      "duration": 0.1323,
      "velocity": 100,
      "chip": "ym2612"
    },
    {
      "channel": 2,
      "note": 75,
      "start": 30.8507,
      "duration": 0.2647,
      "velocity": 88,
      "chip": "ym2612"
    },
    {
      "channel": 3,
      "note": 39,
      "start": 30.8511,
      "duration": 0.0641,
      "velocity": 97,
      "chip": "ym2612"
    },
    {
      "channel": 3,
      "note": 39,
      "start": 30.9153,
      "duration": 0.068,
      "velocity": 97,
      "chip": "ym2612"
    },
    {
      "channel": 0,
      "note": 63,
      "start": 30.9828,
      "duration": 0.1323,
      "velocity": 98,
      "chip": "ym2612"
    },
    {
      "channel": 1,
      "note": 75,
      "start": 30.9831,
      "duration": 0.2648,
      "velocity": 91,
      "chip": "ym2612"
    },
    {
      "channel": 3,
      "note": 39,
      "start": 30.9834,
      "duration": 0.0641,
      "velocity": 97,
      "chip": "ym2612"
    },
    {
      "channel": 3,
      "note": 39,
      "start": 31.0478,
      "duration": 0.068,
      "velocity": 97,
      "chip": "ym2612"
    },
    {
      "channel": 0,
      "note": 68,
      "start": 31.1152,
      "duration": 0.1323,
      "velocity": 100,
      "chip": "ym2612"
    },
    {
      "channel": 2,
      "note": 80,
      "start": 31.1156,
      "duration": 0.2647,
      "velocity": 88,
      "chip": "ym2612"
    },
    {
      "channel": 3,
      "note": 39,
      "start": 31.1159,
      "duration": 0.0641,
      "velocity": 97,
      "chip": "ym2612"
    },
    {
      "channel": 3,
      "note": 39,
      "start": 31.1801,
      "duration": 0.0681,
      "velocity": 97,
      "chip": "ym2612"
    },
    {
      "channel": 0,
      "note": 66,
      "start": 31.2476,
      "duration": 0.1323,
      "velocity": 98,
      "chip": "ym2612"
    },
    {
      "channel": 1,
      "note": 78,
      "start": 31.248,
      "duration": 0.2651,
      "velocity": 91,
      "chip": "ym2612"
    },
    {
      "channel": 3,
      "note": 39,
      "start": 31.2483,
      "duration": 0.0641,
      "velocity": 97,
      "chip": "ym2612"
    },
    {
      "channel": 3,
      "note": 39,
      "start": 31.3126,
      "duration": 0.068,
      "velocity": 97,
      "chip": "ym2612"
    },
    {
      "channel": 0,
      "note": 63,
      "start": 31.3801,
      "duration": 0.1327,
      "velocity": 100,
      "chip": "ym2612"
    },
    {
      "channel": 2,
      "note": 75,
      "start": 31.3804,
      "duration": 0.2651,
      "velocity": 88,
      "chip": "ym2612"
    },
    {
      "channel": 3,
      "note": 39,
      "start": 31.3807,
      "duration": 0.0643,
      "velocity": 97,
      "chip": "ym2612"
    },
    {
      "channel": 3,
      "note": 51,
      "start": 31.4451,
      "duration": 0.1322,
      "velocity": 97,
      "chip": "ym2612"
    },
    {
      "channel": 0,
      "note": 63,
      "start": 31.5129,
      "duration": 0.1323,
      "velocity": 98,
      "chip": "ym2612"
    },
    {
      "channel": 1,
      "note": 75,
      "start": 31.5132,
      "duration": 0.2648,
      "velocity": 91,
      "chip": "ym2612"
    },
    {
      "channel": 3,
      "note": 51,
      "start": 31.5778,
      "duration": 0.1319,
      "velocity": 97,
      "chip": "ym2612"
    },
    {
      "channel": 0,
      "note": 66,
      "start": 31.6453,
      "duration": 0.132,
      "velocity": 100,
      "chip": "ym2612"
    },
    {
      "channel": 2,
      "note": 78,
      "start": 31.6456,
      "duration": 0.2643,
      "velocity": 88,
      "chip": "ym2612"
    },
    {
      "channel": 0,
      "note": 73,
      "start": 31.7778,
      "duration": 0.1318,
      "velocity": 98,
      "chip": "ym2612"
    },
    {
      "channel": 1,
      "note": 85,
      "start": 31.7782,
      "duration": 0.2642,
      "velocity": 91,
      "chip": "ym2612"
    },
    {
      "channel": 3,
      "note": 51,
      "start": 31.7798,
      "duration": 3.1763,
      "velocity": 88,
      "chip": "ym2612"
    },
    {
      "channel": 4,
      "note": 51,
      "start": 31.7802,
      "duration": 3.1763,
      "velocity": 113,
      "chip": "ym2612"
    },
    {
      "channel": 5,
      "note": 51,
      "start": 31.7806,
      "duration": 3.1762,
      "velocity": 113,
      "chip": "ym2612"
    },
    {
      "channel": 0,
      "note": 63,
      "start": 31.9097,
      "duration": 0.1323,
      "velocity": 100,
      "chip": "ym2612"
    },
    {
      "channel": 2,
      "note": 75,
      "start": 31.9101,
      "duration": 0.2647,
      "velocity": 88,
      "chip": "ym2612"
    },
    {
      "channel": 0,
      "note": 63,
      "start": 32.0422,
      "duration": 0.1323,
      "velocity": 98,
      "chip": "ym2612"
    },
    {
      "channel": 1,
      "note": 75,
      "start": 32.0425,
      "duration": 0.2648,
      "velocity": 91,
      "chip": "ym2612"
    },
    {
      "channel": 0,
      "note": 73,
      "start": 32.1746,
      "duration": 0.1323,
      "velocity": 100,
      "chip": "ym2612"
    },
    {
      "channel": 2,
      "note": 85,
      "start": 32.1749,
      "duration": 0.2647,
      "velocity": 88,
      "chip": "ym2612"
    },
    {
      "channel": 0,
      "note": 68,
      "start": 32.3071,
      "duration": 0.1322,
      "velocity": 98,
      "chip": "ym2612"
    },
    {
      "channel": 1,
      "note": 80,
      "start": 32.3074,
      "duration": 0.2647,
      "velocity": 91,
      "chip": "ym2612"
    },
    {
      "channel": 0,
      "note": 63,
      "start": 32.4394,
      "duration": 0.1323,
      "velocity": 100,
      "chip": "ym2612"
    },
    {
      "channel": 2,
      "note": 75,
      "start": 32.4398,
      "duration": 0.2647,
      "velocity": 88,
      "chip": "ym2612"
    },
    {
      "channel": 0,
      "note": 63,
      "start": 32.5719,
      "duration": 0.1323,
      "velocity": 98,
      "chip": "ym2612"
    },
    {
      "channel": 1,
      "note": 75,
      "start": 32.5722,
      "duration": 0.2647,
      "velocity": 91,
      "chip": "ym2612"
    },
    {
      "channel": 0,
      "note": 68,
      "start": 32.7042,
      "duration": 0.1323,
      "velocity": 100,
      "chip": "ym2612"
    },
    {
      "channel": 2,
      "note": 80,
      "start": 32.7046,
      "duration": 0.2647,
      "velocity": 88,
      "chip": "ym2612"
    },
    {
      "channel": 0,
      "note": 66,
      "start": 32.8367,
      "duration": 0.1323,
      "velocity": 98,
      "chip": "ym2612"
    },
    {
      "channel": 1,
      "note": 78,
      "start": 32.837,
      "duration": 0.2648,
      "velocity": 91,
      "chip": "ym2612"
    },
    {
      "channel": 0,
      "note": 63,
      "start": 32.9691,
      "duration": 0.1322,
      "velocity": 100,
      "chip": "ym2612"
    },
    {
      "channel": 2,
      "note": 75,
      "start": 32.9695,
      "duration": 0.2647,
      "velocity": 88,
      "chip": "ym2612"
    },
    {
      "channel": 0,
      "note": 63,
      "start": 33.1015,
      "duration": 0.1323,
      "velocity": 98,
      "chip": "ym2612"
    },
    {
      "channel": 1,
      "note": 75,
      "start": 33.1019,
      "duration": 0.2647,
      "velocity": 91,
      "chip": "ym2612"
    },
    {
      "channel": 0,
      "note": 66,
      "start": 33.2339,
      "duration": 0.1323,
      "velocity": 100,
      "chip": "ym2612"
    },
    {
      "channel": 2,
      "note": 78,
      "start": 33.2343,
      "duration": 0.2648,
      "velocity": 88,
      "chip": "ym2612"
    },
    {
      "channel": 0,
      "note": 73,
      "start": 33.3664,
      "duration": 0.1322,
      "velocity": 98,
      "chip": "ym2612"
    },
    {
      "channel": 1,
      "note": 85,
      "start": 33.3667,
      "duration": 0.2647,
      "velocity": 91,
      "chip": "ym2612"
    },
    {
      "channel": 0,
      "note": 63,
      "start": 33.4988,
      "duration": 0.1323,
      "velocity": 100,
      "chip": "ym2612"
    },
    {
      "channel": 2,
      "note": 75,
      "start": 33.4992,
      "duration": 0.2647,
      "velocity": 88,
      "chip": "ym2612"
    },
    {
      "channel": 0,
      "note": 63,
      "start": 33.6312,
      "duration": 0.1323,
      "velocity": 98,
      "chip": "ym2612"
    },
    {
      "channel": 1,
      "note": 75,
      "start": 33.6315,
      "duration": 0.2651,
      "velocity": 91,
      "chip": "ym2612"
    },
    {
      "channel": 0,
      "note": 73,
      "start": 33.7637,
      "duration": 0.1326,
      "velocity": 100,
      "chip": "ym2612"
    },
    {
      "channel": 2,
      "note": 85,
      "start": 33.764,
      "duration": 0.2651,
      "velocity": 88,
      "chip": "ym2612"
    },
    {
      "channel": 0,
      "note": 68,
      "start": 33.8964,
      "duration": 0.1323,
      "velocity": 98,
      "chip": "ym2612"
    },
    {
      "channel": 1,
      "note": 80,
      "start": 33.8967,
      "duration": 0.2648,
      "velocity": 91,
      "chip": "ym2612"
    },
    {
      "channel": 0,
      "note": 63,
      "start": 34.0289,
      "duration": 0.1323,
      "velocity": 100,
      "chip": "ym2612"
    },
    {
      "channel": 2,
      "note": 75,
      "start": 34.0292,
      "duration": 0.2643,
      "velocity": 88,
      "chip": "ym2612"
    },
    {
      "channel": 0,
      "note": 63,
      "start": 34.1613,
      "duration": 0.1319,
      "velocity": 98,
      "chip": "ym2612"
    },
    {
      "channel": 1,
      "note": 75,
      "start": 34.1616,
      "duration": 0.2643,
      "velocity": 91,
      "chip": "ym2612"
    },
    {
      "channel": 0,
      "note": 68,
      "start": 34.2933,
      "duration": 0.1323,
      "velocity": 100,
      "chip": "ym2612"
    },
    {
      "channel": 2,
      "note": 80,
      "start": 34.2936,
      "duration": 0.2648,
      "velocity": 88,
      "chip": "ym2612"
    },
    {
      "channel": 0,
      "note": 66,
      "start": 34.4257,
      "duration": 0.1323,
      "velocity": 98,
      "chip": "ym2612"
    },
    {
      "channel": 1,
      "note": 78,
      "start": 34.4261,
      "duration": 0.2647,
      "velocity": 91,
      "chip": "ym2612"
    },
    {
      "channel": 0,
      "note": 63,
      "start": 34.5581,
      "duration": 0.1323,
      "velocity": 100,
      "chip": "ym2612"
    },
    {
      "channel": 2,
      "note": 75,
      "start": 34.5585,
      "duration": 0.2647,
      "velocity": 88,
      "chip": "ym2612"
    },
    {
      "channel": 0,
      "note": 63,
      "start": 34.6906,
      "duration": 0.1323,
      "velocity": 98,
      "chip": "ym2612"
    },
    {
      "channel": 1,
      "note": 75,
      "start": 34.6909,
      "duration": 0.2648,
      "velocity": 91,
      "chip": "ym2612"
    },
    {
      "channel": 0,
      "note": 66,
      "start": 34.823,
      "duration": 0.1323,
      "velocity": 100,
      "chip": "ym2612"
    },
    {
      "channel": 2,
      "note": 78,
      "start": 34.8233,
      "duration": 0.2647,
      "velocity": 88,
      "chip": "ym2612"
    },
    {
      "channel": 0,
      "note": 85,
      "start": 34.9554,
      "duration": 0.1323,
      "velocity": 98,
      "chip": "ym2612"
    },
    {
      "channel": 1,
      "note": 85,
      "start": 34.9558,
      "duration": 0.2646,
      "velocity": 91,
      "chip": "ym2612"
    },
    {
      "channel": 3,
      "note": 50,
      "start": 34.9561,
      "duration": 3.1793,
      "velocity": 97,
      "chip": "ym2612"
    },
    {
      "channel": 4,
      "note": 50,
      "start": 34.9566,
      "duration": 6.3577,
      "velocity": 113,
      "chip": "ym2612"
    },
    {
      "channel": 5,
      "note": 50,
      "start": 34.957,
      "duration": 6.3578,
      "velocity": 113,
      "chip": "ym2612"
    },
    {
      "channel": 0,
      "note": 74,
      "start": 35.0878,
      "duration": 0.1323,
      "velocity": 100,
      "chip": "ym2612"
    },
    {
      "channel": 2,
      "note": 74,
      "start": 35.0881,
      "duration": 0.2648,
      "velocity": 88,
      "chip": "ym2612"
    },
    {
      "channel": 0,
      "note": 74,
      "start": 35.2203,
      "duration": 0.1322,
      "velocity": 98,
      "chip": "ym2612"
    },
    {
      "channel": 1,
      "note": 74,
      "start": 35.2206,
      "duration": 0.2647,
      "velocity": 91,
      "chip": "ym2612"
    },
    {
      "channel": 0,
      "note": 85,
      "start": 35.3527,
      "duration": 0.1323,
      "velocity": 100,
      "chip": "ym2612"
    },
    {
      "channel": 2,
      "note": 85,
      "start": 35.353,
      "duration": 0.2647,
      "velocity": 88,
      "chip": "ym2612"
    },
    {
      "channel": 0,
      "note": 80,
      "start": 35.4851,
      "duration": 0.1322,
      "velocity": 98,
      "chip": "ym2612"
    },
    {
      "channel": 1,
      "note": 80,
      "start": 35.4854,
      "duration": 0.2647,
      "velocity": 91,
      "chip": "ym2612"
    },
    {
      "channel": 0,
      "note": 74,
      "start": 35.6175,
      "duration": 0.1323,
      "velocity": 100,
      "chip": "ym2612"
    },
    {
      "channel": 2,
      "note": 74,
      "start": 35.6179,
      "duration": 0.2647,
      "velocity": 88,
      "chip": "ym2612"
    },
    {
      "channel": 0,
      "note": 74,
      "start": 35.7499,
      "duration": 0.1323,
      "velocity": 98,
      "chip": "ym2612"
    },
    {
      "channel": 1,
      "note": 74,
      "start": 35.7502,
      "duration": 0.2648,
      "velocity": 91,
      "chip": "ym2612"
    },
    {
      "channel": 0,
      "note": 80,
      "start": 35.8824,
      "duration": 0.1323,
      "velocity": 100,
      "chip": "ym2612"
    },
    {
      "channel": 2,
      "note": 80,
      "start": 35.8827,
      "duration": 0.2647,
      "velocity": 88,
      "chip": "ym2612"
    },
    {
      "channel": 0,
      "note": 78,
      "start": 36.0148,
      "duration": 0.1322,
      "velocity": 98,
      "chip": "ym2612"
    },
    {
      "channel": 1,
      "note": 78,
      "start": 36.0151,
      "duration": 0.2648,
      "velocity": 91,
      "chip": "ym2612"
    },
    {
      "channel": 0,
      "note": 74,
      "start": 36.1472,
      "duration": 0.1324,
      "velocity": 100,
      "chip": "ym2612"
    },
    {
      "channel": 2,
      "note": 74,
      "start": 36.1475,
      "duration": 0.2651,
      "velocity": 88,
      "chip": "ym2612"
    },
    {
      "channel": 0,
      "note": 74,
      "start": 36.2798,
      "duration": 0.1326,
      "velocity": 98,
      "chip": "ym2612"
    },
    {
      "channel": 1,
      "note": 74,
      "start": 36.2801,
      "duration": 0.265,
      "velocity": 91,
      "chip": "ym2612"
    },
    {
      "channel": 0,
      "note": 78,
      "start": 36.4124,
      "duration": 0.1323,
      "velocity": 100,
      "chip": "ym2612"
    },
    {
      "channel": 2,
      "note": 78,
      "start": 36.4128,
      "duration": 0.2643,
      "velocity": 88,
      "chip": "ym2612"
    },
    {
      "channel": 0,
      "note": 85,
      "start": 36.5449,
      "duration": 0.1319,
      "velocity": 98,
      "chip": "ym2612"
    },
    {
      "channel": 1,
      "note": 85,
      "start": 36.5452,
      "duration": 0.2643,
      "velocity": 91,
      "chip": "ym2612"
    },
    {
      "channel": 0,
      "note": 74,
      "start": 36.6769,
      "duration": 0.1322,
      "velocity": 100,
      "chip": "ym2612"
    },
    {
      "channel": 2,
      "note": 74,
      "start": 36.6772,
      "duration": 0.2647,
      "velocity": 88,
      "chip": "ym2612"
    },
    {
      "channel": 0,
      "note": 74,
      "start": 36.8093,
      "duration": 0.1323,
      "velocity": 98,
      "chip": "ym2612"
    },
    {
      "channel": 1,
      "note": 74,
      "start": 36.8097,
      "duration": 0.2647,
      "velocity": 91,
      "chip": "ym2612"
    },
    {
      "channel": 0,
      "note": 85,
      "start": 36.9417,
      "duration": 0.1323,
      "velocity": 100,
      "chip": "ym2612"
    },
    {
      "channel": 2,
      "note": 85,
      "start": 36.942,
      "duration": 0.2647,
      "velocity": 88,
      "chip": "ym2612"
    },
    {
      "channel": 0,
      "note": 80,
      "start": 37.0741,
      "duration": 0.1323,
      "velocity": 98,
      "chip": "ym2612"
    },
    {
      "channel": 1,
      "note": 80,
      "start": 37.0745,
      "duration": 0.2647,
      "velocity": 91,
      "chip": "ym2612"
    },
    {
      "channel": 0,
      "note": 74,
      "start": 37.2065,
      "duration": 0.1323,
      "velocity": 100,
      "chip": "ym2612"
    },
    {
      "channel": 2,
      "note": 74,
      "start": 37.2069,
      "duration": 0.2647,
      "velocity": 88,
      "chip": "ym2612"
    },
    {
      "channel": 0,
      "note": 74,
      "start": 37.339,
      "duration": 0.1323,
      "velocity": 98,
      "chip": "ym2612"
    },
    {
      "channel": 1,
      "note": 74,
      "start": 37.3393,
      "duration": 0.2647,
      "velocity": 91,
      "chip": "ym2612"
    },
    {
      "channel": 0,
      "note": 80,
      "start": 37.4714,
      "duration": 0.1322,
      "velocity": 100,
      "chip": "ym2612"
    },
    {
      "channel": 2,
      "note": 80,
      "start": 37.4717,
      "duration": 0.2647,
      "velocity": 88,
      "chip": "ym2612"
    },
    {
      "channel": 0,
      "note": 78,
      "start": 37.6038,
      "duration": 0.1323,
      "velocity": 98,
      "chip": "ym2612"
    },
    {
      "channel": 1,
      "note": 78,
      "start": 37.6041,
      "duration": 0.2647,
      "velocity": 91,
      "chip": "ym2612"
    },
    {
      "channel": 0,
      "note": 74,
      "start": 37.7362,
      "duration": 0.1323,
      "velocity": 100,
      "chip": "ym2612"
    },
    {
      "channel": 2,
      "note": 74,
      "start": 37.7366,
      "duration": 0.2647,
      "velocity": 88,
      "chip": "ym2612"
    },
    {
      "channel": 0,
      "note": 74,
      "start": 37.8687,
      "duration": 0.1322,
      "velocity": 98,
      "chip": "ym2612"
    },
    {
      "channel": 1,
      "note": 74,
      "start": 37.869,
      "duration": 0.2648,
      "velocity": 91,
      "chip": "ym2612"
    },
    {
      "channel": 0,
      "note": 78,
      "start": 38.0011,
      "duration": 0.1324,
      "velocity": 100,
      "chip": "ym2612"
    },
    {
      "channel": 2,
      "note": 78,
      "start": 38.0014,
      "duration": 0.2648,
      "velocity": 88,
      "chip": "ym2612"
    },
    {
      "channel": 0,
      "note": 85,
      "start": 38.1336,
      "duration": 0.1322,
      "velocity": 98,
      "chip": "ym2612"
    },
    {
      "channel": 1,
      "note": 85,
      "start": 38.1339,
      "duration": 0.2646,
      "velocity": 91,
      "chip": "ym2612"
    },
    {
      "channel": 3,
      "note": 51,
      "start": 38.1355,
      "duration": 0.1309,
      "velocity": 97,
      "chip": "ym2612"
    },
    {
      "channel": 0,
      "note": 74,
      "start": 38.2659,
      "duration": 0.1323,
      "velocity": 100,
      "chip": "ym2612"
    },
    {
      "channel": 2,
      "note": 74,
      "start": 38.2663,
      "duration": 0.2647,
      "velocity": 88,
      "chip": "ym2612"
    },
    {
      "channel": 3,
      "note": 51,
      "start": 38.2666,
      "duration": 0.1323,
      "velocity": 97,
      "chip": "ym2612"
    },
    {
      "channel": 0,
      "note": 74,
      "start": 38.3983,
      "duration": 0.1323,
      "velocity": 98,
      "chip": "ym2612"
    },
    {
      "channel": 1,
      "note": 74,
      "start": 38.3986,
      "duration": 0.2648,
      "velocity": 91,
      "chip": "ym2612"
    },
    {
      "channel": 3,
      "note": 39,
      "start": 38.399,
      "duration": 0.1323,
      "velocity": 97,
      "chip": "ym2612"
    },
    {
      "channel": 0,
      "note": 85,
      "start": 38.5308,
      "duration": 0.1322,
      "velocity": 100,
      "chip": "ym2612"
    },
    {
      "channel": 2,
      "note": 85,
      "start": 38.5311,
      "duration": 0.2651,
      "velocity": 88,
      "chip": "ym2612"
    },
    {
      "channel": 3,
      "note": 51,
      "start": 38.5314,
      "duration": 0.0641,
      "velocity": 97,
      "chip": "ym2612"
    },
    {
      "channel": 3,
      "note": 39,
      "start": 38.5956,
      "duration": 0.0681,
      "velocity": 97,
      "chip": "ym2612"
    },
    {
      "channel": 0,
      "note": 80,
      "start": 38.6632,
      "duration": 0.1327,
      "velocity": 98,
      "chip": "ym2612"
    },
    {
      "channel": 1,
      "note": 80,
      "start": 38.6635,
      "duration": 0.2651,
      "velocity": 91,
      "chip": "ym2612"
    },
    {
      "channel": 3,
      "note": 51,
      "start": 38.6639,
      "duration": 0.0644,
      "velocity": 97,
      "chip": "ym2612"
    },
    {
      "channel": 3,
      "note": 39,
      "start": 38.7284,
      "duration": 0.0681,
      "velocity": 97,
      "chip": "ym2612"
    },
    {
      "channel": 0,
      "note": 74,
      "start": 38.796,
      "duration": 0.1323,
      "velocity": 100,
      "chip": "ym2612"
    },
    {
      "channel": 2,
      "note": 74,
      "start": 38.7963,
      "duration": 0.2647,
      "velocity": 88,
      "chip": "ym2612"
    },
    {
      "channel": 3,
      "note": 39,
      "start": 38.7967,
      "duration": 0.0637,
      "velocity": 97,
      "chip": "ym2612"
    },
    {
      "channel": 3,
      "note": 39,
      "start": 38.8605,
      "duration": 0.0685,
      "velocity": 97,
      "chip": "ym2612"
    },
    {
      "channel": 0,
      "note": 74,
      "start": 38.9284,
      "duration": 0.1319,
      "velocity": 98,
      "chip": "ym2612"
    },
    {
      "channel": 1,
      "note": 74,
      "start": 38.9287,
      "duration": 0.2643,
      "velocity": 91,
      "chip": "ym2612"
    },
    {
      "channel": 3,
      "note": 39,
      "start": 38.929,
      "duration": 0.0637,
      "velocity": 97,
      "chip": "ym2612"
    },
    {
      "channel": 3,
      "note": 39,
      "start": 38.9929,
      "duration": 0.0684,
      "velocity": 97,
      "chip": "ym2612"
    },
    {
      "channel": 0,
      "note": 80,
      "start": 39.0604,
      "duration": 0.1323,
      "velocity": 100,
      "chip": "ym2612"
    },
    {
      "channel": 2,
      "note": 80,
      "start": 39.0612,
      "duration": 0.2643,
      "velocity": 88,
      "chip": "ym2612"
    },
    {
      "channel": 3,
      "note": 39,
      "start": 39.0615,
      "duration": 0.0637,
      "velocity": 97,
      "chip": "ym2612"
    },
    {
      "channel": 3,
      "note": 39,
      "start": 39.1254,
      "duration": 0.068,
      "velocity": 97,
      "chip": "ym2612"
    },
    {
      "channel": 0,
      "note": 78,
      "start": 39.1929,
      "duration": 0.1322,
      "velocity": 98,
      "chip": "ym2612"
    },
    {
      "channel": 1,
      "note": 78,
      "start": 39.1932,
      "duration": 0.2647,
      "velocity": 91,
      "chip": "ym2612"
    },
    {
      "channel": 3,
      "note": 39,
      "start": 39.1935,
      "duration": 0.0641,
      "velocity": 97,
      "chip": "ym2612"
    },
    {
      "channel": 3,
      "note": 39,
      "start": 39.2577,
      "duration": 0.0681,
      "velocity": 97,
      "chip": "ym2612"
    },
    {
      "channel": 0,
      "note": 74,
      "start": 39.3252,
      "duration": 0.1323,
      "velocity": 100,
      "chip": "ym2612"
    },
    {
      "channel": 2,
      "note": 74,
      "start": 39.3256,
      "duration": 0.2647,
      "velocity": 88,
      "chip": "ym2612"
    },
    {
      "channel": 3,
      "note": 39,
      "start": 39.3259,
      "duration": 0.0641,
      "velocity": 97,
      "chip": "ym2612"
    },
    {
      "channel": 3,
      "note": 39,
      "start": 39.3902,
      "duration": 0.068,
      "velocity": 97,
      "chip": "ym2612"
    },
    {
      "channel": 0,
      "note": 74,
      "start": 39.4577,
      "duration": 0.1323,
      "velocity": 98,
      "chip": "ym2612"
    },
    {
      "channel": 1,
      "note": 74,
      "start": 39.458,
      "duration": 0.2648,
      "velocity": 91,
      "chip": "ym2612"
    },
    {
      "channel": 3,
      "note": 51,
      "start": 39.4583,
      "duration": 0.1323,
      "velocity": 97,
      "chip": "ym2612"
    },
    {
      "channel": 0,
      "note": 78,
      "start": 39.5901,
      "duration": 0.1323,
      "velocity": 100,
      "chip": "ym2612"
    },
    {
      "channel": 2,
      "note": 78,
      "start": 39.5904,
      "duration": 0.2647,
      "velocity": 88,
      "chip": "ym2612"
    },
    {
      "channel": 3,
      "note": 51,
      "start": 39.5907,
      "duration": 0.4614,
      "velocity": 97,
      "chip": "ym2612"
    },
    {
      "channel": 0,
      "note": 85,
      "start": 39.7225,
      "duration": 0.1323,
      "velocity": 98,
      "chip": "ym2612"
    },
    {
      "channel": 1,
      "note": 85,
      "start": 39.7229,
      "duration": 0.2647,
      "velocity": 91,
      "chip": "ym2612"
    },
    {
      "channel": 0,
      "note": 74,
      "start": 39.8549,
      "duration": 0.1323,
      "velocity": 100,
      "chip": "ym2612"
    },
    {
      "channel": 2,
      "note": 74,
      "start": 39.8553,
      "duration": 0.2648,
      "velocity": 88,
      "chip": "ym2612"
    },
    {
      "channel": 0,
      "note": 74,
      "start": 39.9874,
      "duration": 0.1322,
      "velocity": 98,
      "chip": "ym2612"
    },
    {
      "channel": 1,
      "note": 74,
      "start": 39.9877,
      "duration": 0.2647,
      "velocity": 91,
      "chip": "ym2612"
    },
    {
      "channel": 3,
      "note": 51,
      "start": 40.0523,
      "duration": 0.0681,
      "velocity": 97,
      "chip": "ym2612"
    },
    {
      "channel": 0,
      "note": 85,
      "start": 40.1198,
      "duration": 0.1323,
      "velocity": 100,
      "chip": "ym2612"
    },
    {
      "channel": 2,
      "note": 85,
      "start": 40.1201,
      "duration": 0.2647,
      "velocity": 88,
      "chip": "ym2612"
    },
    {
      "channel": 3,
      "note": 39,
      "start": 40.1205,
      "duration": 0.0641,
      "velocity": 97,
      "chip": "ym2612"
    },
    {
      "channel": 3,
      "note": 51,
      "start": 40.1847,
      "duration": 0.068,
      "velocity": 97,
      "chip": "ym2612"
    },
    {
      "channel": 0,
      "note": 80,
      "start": 40.2522,
      "duration": 0.1323,
      "velocity": 98,
      "chip": "ym2612"
    },
    {
      "channel": 1,
      "note": 80,
      "start": 40.2525,
      "duration": 0.2648,
      "velocity": 91,
      "chip": "ym2612"
    },
    {
      "channel": 3,
      "note": 39,
      "start": 40.2528,
      "duration": 0.0641,
      "velocity": 97,
      "chip": "ym2612"
    },
    {
      "channel": 3,
      "note": 39,
      "start": 40.3172,
      "duration": 0.068,
      "velocity": 97,
      "chip": "ym2612"
    },
    {
      "channel": 0,
      "note": 74,
      "start": 40.3846,
      "duration": 0.1322,
      "velocity": 100,
      "chip": "ym2612"
    },
    {
      "channel": 2,
      "note": 74,
      "start": 40.385,
      "duration": 0.2647,
      "velocity": 88,
      "chip": "ym2612"
    },
    {
      "channel": 3,
      "note": 39,
      "start": 40.3853,
      "duration": 0.0641,
      "velocity": 97,
      "chip": "ym2612"
    },
    {
      "channel": 3,
      "note": 39,
      "start": 40.4495,
      "duration": 0.068,
      "velocity": 97,
      "chip": "ym2612"
    },
    {
      "channel": 0,
      "note": 74,
      "start": 40.517,
      "duration": 0.1323,
      "velocity": 98,
      "chip": "ym2612"
    },
    {
      "channel": 1,
      "note": 74,
      "start": 40.5174,
      "duration": 0.2647,
      "velocity": 91,
      "chip": "ym2612"
    },
    {
      "channel": 3,
      "note": 39,
      "start": 40.5177,
      "duration": 0.0641,
      "velocity": 97,
      "chip": "ym2612"
    },
    {
      "channel": 3,
      "note": 39,
      "start": 40.582,
      "duration": 0.068,
      "velocity": 97,
      "chip": "ym2612"
    },
    {
      "channel": 0,
      "note": 80,
      "start": 40.6495,
      "duration": 0.1323,
      "velocity": 100,
      "chip": "ym2612"
    },
    {
      "channel": 2,
      "note": 80,
      "start": 40.6498,
      "duration": 0.2647,
      "velocity": 88,
      "chip": "ym2612"
    },
    {
      "channel": 3,
      "note": 39,
      "start": 40.6501,
      "duration": 0.0641,
      "velocity": 97,
      "chip": "ym2612"
    },
    {
      "channel": 3,
      "note": 39,
      "start": 40.7144,
      "duration": 0.0681,
      "velocity": 97,
      "chip": "ym2612"
    },
    {
      "channel": 0,
      "note": 78,
      "start": 40.7819,
      "duration": 0.1323,
      "velocity": 98,
      "chip": "ym2612"
    },
    {
      "channel": 1,
      "note": 78,
      "start": 40.7822,
      "duration": 0.2647,
      "velocity": 91,
      "chip": "ym2612"
    },
    {
      "channel": 3,
      "note": 39,
      "start": 40.7826,
      "duration": 0.0641,
      "velocity": 97,
      "chip": "ym2612"
    },
    {
      "channel": 3,
      "note": 39,
      "start": 40.8468,
      "duration": 0.068,
      "velocity": 97,
      "chip": "ym2612"
    },
    {
      "channel": 0,
      "note": 74,
      "start": 40.9143,
      "duration": 0.1323,
      "velocity": 100,
      "chip": "ym2612"
    },
    {
      "channel": 2,
      "note": 74,
      "start": 40.9146,
      "duration": 0.2651,
      "velocity": 88,
      "chip": "ym2612"
    },
    {
      "channel": 3,
      "note": 39,
      "start": 40.9149,
      "duration": 0.0642,
      "velocity": 97,
      "chip": "ym2612"
    },
    {
      "channel": 3,
      "note": 51,
      "start": 40.9793,
      "duration": 0.1324,
      "velocity": 97,
      "chip": "ym2612"
    },
    {
      "channel": 0,
      "note": 74,
      "start": 41.0467,
      "duration": 0.1327,
      "velocity": 98,
      "chip": "ym2612"
    },
    {
      "channel": 1,
      "note": 74,
      "start": 41.0471,
      "duration": 0.2652,
      "velocity": 91,
      "chip": "ym2612"
    },
    {
      "channel": 3,
      "note": 51,
      "start": 41.1117,
      "duration": 0.1321,
      "velocity": 97,
      "chip": "ym2612"
    },
    {
      "channel": 0,
      "note": 78,
      "start": 41.1796,
      "duration": 0.1324,
      "velocity": 100,
      "chip": "ym2612"
    },
    {
      "channel": 2,
      "note": 78,
      "start": 41.1799,
      "duration": 0.2648,
      "velocity": 88,
      "chip": "ym2612"
    },
    {
      "channel": 0,
      "note": 73,
      "start": 41.3121,
      "duration": 0.1318,
      "velocity": 98,
      "chip": "ym2612"
    },
    {
      "channel": 1,
      "note": 85,
      "start": 41.3124,
      "duration": 0.2643,
      "velocity": 91,
      "chip": "ym2612"
    },
    {
      "channel": 3,
      "note": 44,
      "start": 41.314,
      "duration": 3.1776,
      "velocity": 97,
      "chip": "ym2612"
    },
    {
      "channel": 4,
      "note": 44,
      "start": 41.3144,
      "duration": 6.3557,
      "velocity": 113,
      "chip": "ym2612"
    },
    {
      "channel": 5,
      "note": 44,
      "start": 41.3149,
      "duration": 6.3556,
      "velocity": 113,
      "chip": "ym2612"
    },
    {
      "channel": 0,
      "note": 63,
      "start": 41.4444,
      "duration": 0.1319,
      "velocity": 100,
      "chip": "ym2612"
    },
    {
      "channel": 2,
      "note": 75,
      "start": 41.4448,
      "duration": 0.2643,
      "velocity": 88,
      "chip": "ym2612"
    },
    {
      "channel": 0,
      "note": 63,
      "start": 41.5764,
      "duration": 0.1323,
      "velocity": 98,
      "chip": "ym2612"
    },
    {
      "channel": 1,
      "note": 75,
      "start": 41.5768,
      "duration": 0.2647,
      "velocity": 91,
      "chip": "ym2612"
    },
    {
      "channel": 0,
      "note": 73,
      "start": 41.7088,
      "duration": 0.1323,
      "velocity": 100,
      "chip": "ym2612"
    },
    {
      "channel": 2,
      "note": 85,
      "start": 41.7091,
      "duration": 0.2648,
      "velocity": 88,
      "chip": "ym2612"
    },
    {
      "channel": 0,
      "note": 68,
      "start": 41.8413,
      "duration": 0.1322,
      "velocity": 98,
      "chip": "ym2612"
    },
    {
      "channel": 1,
      "note": 80,
      "start": 41.8416,
      "duration": 0.2647,
      "velocity": 91,
      "chip": "ym2612"
    },
    {
      "channel": 0,
      "note": 63,
      "start": 41.9737,
      "duration": 0.1323,
      "velocity": 100,
      "chip": "ym2612"
    },
    {
      "channel": 2,
      "note": 75,
      "start": 41.974,
      "duration": 0.2647,
      "velocity": 88,
      "chip": "ym2612"
    },
    {
      "channel": 0,
      "note": 63,
      "start": 42.1061,
      "duration": 0.1323,
      "velocity": 98,
      "chip": "ym2612"
    },
    {
      "channel": 1,
      "note": 75,
      "start": 42.1064,
      "duration": 0.2647,
      "velocity": 91,
      "chip": "ym2612"
    },
    {
      "channel": 0,
      "note": 68,
      "start": 42.2385,
      "duration": 0.1323,
      "velocity": 100,
      "chip": "ym2612"
    },
    {
      "channel": 2,
      "note": 80,
      "start": 42.2388,
      "duration": 0.2647,
      "velocity": 88,
      "chip": "ym2612"
    },
    {
      "channel": 0,
      "note": 66,
      "start": 42.3709,
      "duration": 0.1323,
      "velocity": 98,
      "chip": "ym2612"
    },
    {
      "channel": 1,
      "note": 78,
      "start": 42.3713,
      "duration": 0.2647,
      "velocity": 91,
      "chip": "ym2612"
    },
    {
      "channel": 0,
      "note": 63,
      "start": 42.5034,
      "duration": 0.1323,
      "velocity": 100,
      "chip": "ym2612"
    },
    {
      "channel": 2,
      "note": 75,
      "start": 42.5037,
      "duration": 0.2648,
      "velocity": 88,
      "chip": "ym2612"
    },
    {
      "channel": 0,
      "note": 63,
      "start": 42.6358,
      "duration": 0.1322,
      "velocity": 98,
      "chip": "ym2612"
    },
    {
      "channel": 1,
      "note": 75,
      "start": 42.6361,
      "duration": 0.2647,
      "velocity": 91,
      "chip": "ym2612"
    },
    {
      "channel": 0,
      "note": 66,
      "start": 42.7682,
      "duration": 0.1323,
      "velocity": 100,
      "chip": "ym2612"
    },
    {
      "channel": 2,
      "note": 78,
      "start": 42.7685,
      "duration": 0.2647,
      "velocity": 88,
      "chip": "ym2612"
    },
    {
      "channel": 0,
      "note": 73,
      "start": 42.9006,
      "duration": 0.1323,
      "velocity": 98,
      "chip": "ym2612"
    },
    {
      "channel": 1,
      "note": 85,
      "start": 42.9009,
      "duration": 0.2647,
      "velocity": 91,
      "chip": "ym2612"
    },
    {
      "channel": 0,
      "note": 63,
      "start": 43.033,
      "duration": 0.1323,
      "velocity": 100,
      "chip": "ym2612"
    },
    {
      "channel": 2,
      "note": 75,
      "start": 43.0334,
      "duration": 0.2647,
      "velocity": 88,
      "chip": "ym2612"
    },
    {
      "channel": 0,
      "note": 63,
      "start": 43.1654,
      "duration": 0.1323,
      "velocity": 98,
      "chip": "ym2612"
    },
    {
      "channel": 1,
      "note": 75,
      "start": 43.1658,
      "duration": 0.2648,
      "velocity": 91,
      "chip": "ym2612"
    },
    {
      "channel": 0,
      "note": 73,
      "start": 43.2979,
      "duration": 0.1323,
      "velocity": 100,
      "chip": "ym2612"
    },
    {
      "channel": 2,
      "note": 85,
      "start": 43.2982,
      "duration": 0.2651,
      "velocity": 88,
      "chip": "ym2612"
    },
    {
      "channel": 0,
      "note": 68,
      "start": 43.4303,
      "duration": 0.1326,
      "velocity": 98,
      "chip": "ym2612"
    },
    {
      "channel": 1,
      "note": 80,
      "start": 43.4306,
      "duration": 0.2651,
      "velocity": 91,
      "chip": "ym2612"
    },
    {
      "channel": 0,
      "note": 63,
      "start": 43.5631,
      "duration": 0.1323,
      "velocity": 100,
      "chip": "ym2612"
    },
    {
      "channel": 2,
      "note": 75,
      "start": 43.5634,
      "duration": 0.2648,
      "velocity": 88,
      "chip": "ym2612"
    },
    {
      "channel": 0,
      "note": 63,
      "start": 43.6955,
      "duration": 0.1323,
      "velocity": 98,
      "chip": "ym2612"
    },
    {
      "channel": 1,
      "note": 75,
      "start": 43.6959,
      "duration": 0.2643,
      "velocity": 91,
      "chip": "ym2612"
    },
    {
      "channel": 0,
      "note": 68,
      "start": 43.828,
      "duration": 0.1319,
      "velocity": 100,
      "chip": "ym2612"
    },
    {
      "channel": 2,
      "note": 80,
      "start": 43.8283,
      "duration": 0.2643,
      "velocity": 88,
      "chip": "ym2612"
    },
    {
      "channel": 0,
      "note": 66,
      "start": 43.96,
      "duration": 0.1323,
      "velocity": 98,
      "chip": "ym2612"
    },
    {
      "channel": 1,
      "note": 78,
      "start": 43.9603,
      "duration": 0.2648,
      "velocity": 91,
      "chip": "ym2612"
    },
    {
      "channel": 0,
      "note": 63,
      "start": 44.0924,
      "duration": 0.1323,
      "velocity": 100,
      "chip": "ym2612"
    },
    {
      "channel": 2,
      "note": 75,
      "start": 44.0927,
      "duration": 0.2647,
      "velocity": 88,
      "chip": "ym2612"
    },
    {
      "channel": 0,
      "note": 63,
      "start": 44.2248,
      "duration": 0.1323,
      "velocity": 98,
      "chip": "ym2612"
    },
    {
      "channel": 1,
      "note": 75,
      "start": 44.2252,
      "duration": 0.2648,
      "velocity": 91,
      "chip": "ym2612"
    },
    {
      "channel": 0,
      "note": 66,
      "start": 44.3572,
      "duration": 0.1324,
      "velocity": 100,
      "chip": "ym2612"
    },
    {
      "channel": 2,
      "note": 78,
      "start": 44.3576,
      "duration": 0.2648,
      "velocity": 88,
      "chip": "ym2612"
    },
    {
      "channel": 0,
      "note": 73,
      "start": 44.4898,
      "duration": 0.1322,
      "velocity": 98,
      "chip": "ym2612"
    },
    {
      "channel": 1,
      "note": 85,
      "start": 44.4901,
      "duration": 0.2646,
      "velocity": 91,
      "chip": "ym2612"
    },
    {
      "channel": 3,
      "note": 51,
      "start": 44.4917,
      "duration": 0.1309,
      "velocity": 97,
      "chip": "ym2612"
    },
    {
      "channel": 0,
      "note": 63,
      "start": 44.6221,
      "duration": 0.1323,
      "velocity": 100,
      "chip": "ym2612"
    },
    {
      "channel": 2,
      "note": 75,
      "start": 44.6224,
      "duration": 0.2647,
      "velocity": 88,
      "chip": "ym2612"
    },
    {
      "channel": 3,
      "note": 51,
      "start": 44.6228,
      "duration": 0.1322,
      "velocity": 97,
      "chip": "ym2612"
    },
    {
      "channel": 0,
      "note": 63,
      "start": 44.7545,
      "duration": 0.1323,
      "velocity": 98,
      "chip": "ym2612"
    },
    {
      "channel": 1,
      "note": 75,
      "start": 44.7548,
      "duration": 0.2648,
      "velocity": 91,
      "chip": "ym2612"
    },
    {
      "channel": 3,
      "note": 39,
      "start": 44.7551,
      "duration": 0.1323,
      "velocity": 97,
      "chip": "ym2612"
    },
    {
      "channel": 0,
      "note": 73,
      "start": 44.8869,
      "duration": 0.1322,
      "velocity": 100,
      "chip": "ym2612"
    },
    {
      "channel": 2,
      "note": 85,
      "start": 44.8873,
      "duration": 0.2647,
      "velocity": 88,
      "chip": "ym2612"
    },
    {
      "channel": 3,
      "note": 51,
      "start": 44.8876,
      "duration": 0.0641,
      "velocity": 97,
      "chip": "ym2612"
    },
    {
      "channel": 3,
      "note": 39,
      "start": 44.9518,
      "duration": 0.068,
      "velocity": 97,
      "chip": "ym2612"
    },
    {
      "channel": 0,
      "note": 68,
      "start": 45.0193,
      "duration": 0.1323,
      "velocity": 98,
      "chip": "ym2612"
    },
    {
      "channel": 1,
      "note": 80,
      "start": 45.0197,
      "duration": 0.2647,
      "velocity": 91,
      "chip": "ym2612"
    },
    {
      "channel": 3,
      "note": 51,
      "start": 45.02,
      "duration": 0.0641,
      "velocity": 97,
      "chip": "ym2612"
    },
    {
      "channel": 3,
      "note": 39,
      "start": 45.0842,
      "duration": 0.0681,
      "velocity": 97,
      "chip": "ym2612"
    },
    {
      "channel": 0,
      "note": 63,
      "start": 45.1518,
      "duration": 0.1323,
      "velocity": 100,
      "chip": "ym2612"
    },
    {
      "channel": 2,
      "note": 75,
      "start": 45.1521,
      "duration": 0.2647,
      "velocity": 88,
      "chip": "ym2612"
    },
    {
      "channel": 3,
      "note": 39,
      "start": 45.1524,
      "duration": 0.0641,
      "velocity": 97,
      "chip": "ym2612"
    },
    {
      "channel": 3,
      "note": 39,
      "start": 45.2166,
      "duration": 0.0681,
      "velocity": 97,
      "chip": "ym2612"
    },
    {
      "channel": 0,
      "note": 63,
      "start": 45.2842,
      "duration": 0.1323,
      "velocity": 98,
      "chip": "ym2612"
    },
    {
      "channel": 1,
      "note": 75,
      "start": 45.2845,
      "duration": 0.2647,
      "velocity": 91,
      "chip": "ym2612"
    },
    {
      "channel": 3,
      "note": 39,
      "start": 45.2849,
      "duration": 0.0641,
      "velocity": 97,
      "chip": "ym2612"
    },
    {
      "channel": 3,
      "note": 39,
      "start": 45.3491,
      "duration": 0.068,
      "velocity": 97,
      "chip": "ym2612"
    },
    {
      "channel": 0,
      "note": 68,
      "start": 45.4166,
      "duration": 0.1323,
      "velocity": 100,
      "chip": "ym2612"
    },
    {
      "channel": 2,
      "note": 80,
      "start": 45.4169,
      "duration": 0.2648,
      "velocity": 88,
      "chip": "ym2612"
    },
    {
      "channel": 3,
      "note": 39,
      "start": 45.4172,
      "duration": 0.0641,
      "velocity": 97,
      "chip": "ym2612"
    },
    {
      "channel": 3,
      "note": 39,
      "start": 45.4815,
      "duration": 0.068,
      "velocity": 97,
      "chip": "ym2612"
    },
    {
      "channel": 0,
      "note": 66,
      "start": 45.549,
      "duration": 0.1322,
      "velocity": 98,
      "chip": "ym2612"
    },
    {
      "channel": 1,
      "note": 78,
      "start": 45.5493,
      "duration": 0.2647,
      "velocity": 91,
      "chip": "ym2612"
    },
    {
      "channel": 3,
      "note": 39,
      "start": 45.5497,
      "duration": 0.0641,
      "velocity": 97,
      "chip": "ym2612"
    },
    {
      "channel": 3,
      "note": 39,
      "start": 45.6139,
      "duration": 0.068,
      "velocity": 97,
      "chip": "ym2612"
    },
    {
      "channel": 0,
      "note": 63,
      "start": 45.6814,
      "duration": 0.1323,
      "velocity": 100,
      "chip": "ym2612"
    },
    {
      "channel": 2,
      "note": 75,
      "start": 45.6818,
      "duration": 0.2648,
      "velocity": 88,
      "chip": "ym2612"
    },
    {
      "channel": 3,
      "note": 39,
      "start": 45.6821,
      "duration": 0.0641,
      "velocity": 97,
      "chip": "ym2612"
    },
    {
      "channel": 3,
      "note": 39,
      "start": 45.7463,
      "duration": 0.068,
      "velocity": 97,
      "chip": "ym2612"
    },
    {
      "channel": 0,
      "note": 63,
      "start": 45.8139,
      "duration": 0.1324,
      "velocity": 98,
      "chip": "ym2612"
    },
    {
      "channel": 1,
      "note": 75,
      "start": 45.8142,
      "duration": 0.2651,
      "velocity": 91,
      "chip": "ym2612"
    },
    {
      "channel": 3,
      "note": 51,
      "start": 45.8145,
      "duration": 0.1324,
      "velocity": 97,
      "chip": "ym2612"
    },
    {
      "channel": 0,
      "note": 66,
      "start": 45.9464,
      "duration": 0.1326,
      "velocity": 100,
      "chip": "ym2612"
    },
    {
      "channel": 2,
      "note": 78,
      "start": 45.9467,
      "duration": 0.2649,
      "velocity": 88,
      "chip": "ym2612"
    },
    {
      "channel": 3,
      "note": 51,
      "start": 45.9471,
      "duration": 0.4613,
      "velocity": 97,
      "chip": "ym2612"
    },
    {
      "channel": 0,
      "note": 73,
      "start": 46.0791,
      "duration": 0.1322,
      "velocity": 98,
      "chip": "ym2612"
    },
    {
      "channel": 1,
      "note": 85,
      "start": 46.0794,
      "duration": 0.2643,
      "velocity": 91,
      "chip": "ym2612"
    },
    {
      "channel": 0,
      "note": 63,
      "start": 46.2115,
      "duration": 0.1319,
      "velocity": 100,
      "chip": "ym2612"
    },
    {
      "channel": 2,
      "note": 75,
      "start": 46.2118,
      "duration": 0.2644,
      "velocity": 88,
      "chip": "ym2612"
    },
    {
      "channel": 0,
      "note": 63,
      "start": 46.3435,
      "duration": 0.1323,
      "velocity": 98,
      "chip": "ym2612"
    },
    {
      "channel": 1,
      "note": 75,
      "start": 46.3439,
      "duration": 0.2647,
      "velocity": 91,
      "chip": "ym2612"
    },
    {
      "channel": 3,
      "note": 51,
      "start": 46.4084,
      "duration": 0.0681,
      "velocity": 97,
      "chip": "ym2612"
    },
    {
      "channel": 0,
      "note": 73,
      "start": 46.4759,
      "duration": 0.1323,
      "velocity": 100,
      "chip": "ym2612"
    },
    {
      "channel": 2,
      "note": 85,
      "start": 46.4763,
      "duration": 0.2647,
      "velocity": 88,
      "chip": "ym2612"
    },
    {
      "channel": 3,
      "note": 39,
      "start": 46.4766,
      "duration": 0.0641,
      "velocity": 97,
      "chip": "ym2612"
    },
    {
      "channel": 3,
      "note": 51,
      "start": 46.5409,
      "duration": 0.068,
      "velocity": 97,
      "chip": "ym2612"
    },
    {
      "channel": 0,
      "note": 68,
      "start": 46.6084,
      "duration": 0.1322,
      "velocity": 98,
      "chip": "ym2612"
    },
    {
      "channel": 1,
      "note": 80,
      "start": 46.6087,
      "duration": 0.2647,
      "velocity": 91,
      "chip": "ym2612"
    },
    {
      "channel": 3,
      "note": 39,
      "start": 46.609,
      "duration": 0.0641,
      "velocity": 97,
      "chip": "ym2612"
    },
    {
      "channel": 3,
      "note": 39,
      "start": 46.6733,
      "duration": 0.0681,
      "velocity": 97,
      "chip": "ym2612"
    },
    {
      "channel": 0,
      "note": 63,
      "start": 46.7407,
      "duration": 0.1323,
      "velocity": 100,
      "chip": "ym2612"
    },
    {
      "channel": 2,
      "note": 75,
      "start": 46.7411,
      "duration": 0.2647,
      "velocity": 88,
      "chip": "ym2612"
    },
    {
      "channel": 3,
      "note": 39,
      "start": 46.7415,
      "duration": 0.0641,
      "velocity": 97,
      "chip": "ym2612"
    },
    {
      "channel": 3,
      "note": 39,
      "start": 46.8057,
      "duration": 0.068,
      "velocity": 97,
      "chip": "ym2612"
    },
    {
      "channel": 0,
      "note": 63,
      "start": 46.8732,
      "duration": 0.1323,
      "velocity": 98,
      "chip": "ym2612"
    },
    {
      "channel": 1,
      "note": 75,
      "start": 46.8735,
      "duration": 0.2648,
      "velocity": 91,
      "chip": "ym2612"
    },
    {
      "channel": 3,
      "note": 39,
      "start": 46.8738,
      "duration": 0.0641,
      "velocity": 97,
      "chip": "ym2612"
    },
    {
      "channel": 3,
      "note": 39,
      "start": 46.9381,
      "duration": 0.068,
      "velocity": 97,
      "chip": "ym2612"
    },
    {
      "channel": 0,
      "note": 68,
      "start": 47.0056,
      "duration": 0.1322,
      "velocity": 100,
      "chip": "ym2612"
    },
    {
      "channel": 2,
      "note": 80,
      "start": 47.006,
      "duration": 0.2647,
      "velocity": 88,
      "chip": "ym2612"
    },
    {
      "channel": 3,
      "note": 39,
      "start": 47.0063,
      "duration": 0.0641,
      "velocity": 97,
      "chip": "ym2612"
    },
    {
      "channel": 3,
      "note": 39,
      "start": 47.0705,
      "duration": 0.0681,
      "velocity": 97,
      "chip": "ym2612"
    },
    {
      "channel": 0,
      "note": 66,
      "start": 47.138,
      "duration": 0.1323,
      "velocity": 98,
      "chip": "ym2612"
    },
    {
      "channel": 1,
      "note": 78,
      "start": 47.1384,
      "duration": 0.2647,
      "velocity": 91,
      "chip": "ym2612"
    },
    {
      "channel": 3,
      "note": 39,
      "start": 47.1387,
      "duration": 0.0641,
      "velocity": 97,
      "chip": "ym2612"
    },
    {
      "channel": 3,
      "note": 39,
      "start": 47.203,
      "duration": 0.068,
      "velocity": 97,
      "chip": "ym2612"
    },
    {
      "channel": 0,
      "note": 63,
      "start": 47.2705,
      "duration": 0.1323,
      "velocity": 100,
      "chip": "ym2612"
    },
    {
      "channel": 2,
      "note": 75,
      "start": 47.2708,
      "duration": 0.2647,
      "velocity": 88,
      "chip": "ym2612"
    },
    {
      "channel": 3,
      "note": 39,
      "start": 47.2711,
      "duration": 0.0641,
      "velocity": 97,
      "chip": "ym2612"
    },
    {
      "channel": 3,
      "note": 51,
      "start": 47.3354,
      "duration": 0.1323,
      "velocity": 97,
      "chip": "ym2612"
    },
    {
      "channel": 0,
      "note": 63,
      "start": 47.4029,
      "duration": 0.1323,
      "velocity": 98,
      "chip": "ym2612"
    },
    {
      "channel": 1,
      "note": 75,
      "start": 47.4032,
      "duration": 0.2648,
      "velocity": 91,
      "chip": "ym2612"
    },
    {
      "channel": 3,
      "note": 51,
      "start": 47.4678,
      "duration": 0.1322,
      "velocity": 97,
      "chip": "ym2612"
    },
    {
      "channel": 0,
      "note": 66,
      "start": 47.5353,
      "duration": 0.1324,
      "velocity": 100,
      "chip": "ym2612"
    },
    {
      "channel": 2,
      "note": 78,
      "start": 47.5357,
      "duration": 0.2647,
      "velocity": 88,
      "chip": "ym2612"
    },
    {
      "channel": 0,
      "note": 73,
      "start": 47.6678,
      "duration": 0.1322,
      "velocity": 98,
      "chip": "ym2612"
    },
    {
      "channel": 1,
      "note": 85,
      "start": 47.6681,
      "duration": 0.2647,
      "velocity": 91,
      "chip": "ym2612"
    },
    {
      "channel": 3,
      "note": 51,
      "start": 47.6698,
      "duration": 3.1771,
      "velocity": 88,
      "chip": "ym2612"
    },
    {
      "channel": 4,
      "note": 51,
      "start": 47.6702,
      "duration": 3.1771,
      "velocity": 113,
      "chip": "ym2612"
    },
    {
      "channel": 5,
      "note": 51,
      "start": 47.6706,
      "duration": 3.1771,
      "velocity": 113,
      "chip": "ym2612"
    },
    {
      "channel": 0,
      "note": 63,
      "start": 47.8002,
      "duration": 0.1322,
      "velocity": 100,
      "chip": "ym2612"
    },
    {
      "channel": 2,
      "note": 75,
      "start": 47.8005,
      "duration": 0.2647,
      "velocity": 88,
      "chip": "ym2612"
    },
    {
      "channel": 0,
      "note": 63,
      "start": 47.9326,
      "duration": 0.1323,
      "velocity": 98,
      "chip": "ym2612"
    },
    {
      "channel": 1,
      "note": 75,
      "start": 47.9329,
      "duration": 0.2647,
      "velocity": 91,
      "chip": "ym2612"
    },
    {
      "channel": 0,
      "note": 73,
      "start": 48.065,
      "duration": 0.1323,
      "velocity": 100,
      "chip": "ym2612"
    },
    {
      "channel": 2,
      "note": 85,
      "start": 48.0653,
      "duration": 0.2648,
      "velocity": 88,
      "chip": "ym2612"
    },
    {
      "channel": 0,
      "note": 68,
      "start": 48.1974,
      "duration": 0.1322,
      "velocity": 98,
      "chip": "ym2612"
    },
    {
      "channel": 1,
      "note": 80,
      "start": 48.1978,
      "duration": 0.2651,
      "velocity": 91,
      "chip": "ym2612"
    },
    {
      "channel": 0,
      "note": 63,
      "start": 48.3298,
      "duration": 0.1327,
      "velocity": 100,
      "chip": "ym2612"
    },
    {
      "channel": 2,
      "note": 75,
      "start": 48.3302,
      "duration": 0.2651,
      "velocity": 88,
      "chip": "ym2612"
    },
    {
      "channel": 0,
      "note": 63,
      "start": 48.4626,
      "duration": 0.1323,
      "velocity": 98,
      "chip": "ym2612"
    },
    {
      "channel": 1,
      "note": 75,
      "start": 48.463,
      "duration": 0.2643,
      "velocity": 91,
      "chip": "ym2612"
    },
    {
      "channel": 0,
      "note": 68,
      "start": 48.5951,
      "duration": 0.1319,
      "velocity": 100,
      "chip": "ym2612"
    },
    {
      "channel": 2,
      "note": 80,
      "start": 48.5954,
      "duration": 0.2643,
      "velocity": 88,
      "chip": "ym2612"
    },
    {
      "channel": 0,
      "note": 66,
      "start": 48.7271,
      "duration": 0.1323,
      "velocity": 98,
      "chip": "ym2612"
    },
    {
      "channel": 1,
      "note": 78,
      "start": 48.7278,
      "duration": 0.2643,
      "velocity": 91,
      "chip": "ym2612"
    },
    {
      "channel": 0,
      "note": 63,
      "start": 48.8595,
      "duration": 0.1322,
      "velocity": 100,
      "chip": "ym2612"
    },
    {
      "channel": 2,
      "note": 75,
      "start": 48.8598,
      "duration": 0.2647,
      "velocity": 88,
      "chip": "ym2612"
    },
    {
      "channel": 0,
      "note": 63,
      "start": 48.9919,
      "duration": 0.1323,
      "velocity": 98,
      "chip": "ym2612"
    },
    {
      "channel": 1,
      "note": 75,
      "start": 48.9923,
      "duration": 0.2647,
      "velocity": 91,
      "chip": "ym2612"
    },
    {
      "channel": 0,
      "note": 66,
      "start": 49.1244,
      "duration": 0.1323,
      "velocity": 100,
      "chip": "ym2612"
    },
    {
      "channel": 2,
      "note": 78,
      "start": 49.1247,
      "duration": 0.2648,
      "velocity": 88,
      "chip": "ym2612"
    },
    {
      "channel": 0,
      "note": 73,
      "start": 49.2568,
      "duration": 0.1323,
      "velocity": 98,
      "chip": "ym2612"
    },
    {
      "channel": 1,
      "note": 85,
      "start": 49.2571,
      "duration": 0.2647,
      "velocity": 91,
      "chip": "ym2612"
    },
    {
      "channel": 0,
      "note": 63,
      "start": 49.3892,
      "duration": 0.1323,
      "velocity": 100,
      "chip": "ym2612"
    },
    {
      "channel": 2,
      "note": 75,
      "start": 49.3895,
      "duration": 0.2647,
      "velocity": 88,
      "chip": "ym2612"
    },
    {
      "channel": 0,
      "note": 63,
      "start": 49.5216,
      "duration": 0.1323,
      "velocity": 98,
      "chip": "ym2612"
    },
    {
      "channel": 1,
      "note": 75,
      "start": 49.5219,
      "duration": 0.2648,
      "velocity": 91,
      "chip": "ym2612"
    },
    {
      "channel": 0,
      "note": 73,
      "start": 49.6541,
      "duration": 0.1322,
      "velocity": 100,
      "chip": "ym2612"
    },
    {
      "channel": 2,
      "note": 85,
      "start": 49.6544,
      "duration": 0.2647,
      "velocity": 88,
      "chip": "ym2612"
    },
    {
      "channel": 0,
      "note": 68,
      "start": 49.7864,
      "duration": 0.1323,
      "velocity": 98,
      "chip": "ym2612"
    },
    {
      "channel": 1,
      "note": 80,
      "start": 49.7868,
      "duration": 0.2647,
      "velocity": 91,
      "chip": "ym2612"
    },
    {
      "channel": 0,
      "note": 63,
      "start": 49.9189,
      "duration": 0.1323,
      "velocity": 100,
      "chip": "ym2612"
    },
    {
      "channel": 2,
      "note": 75,
      "start": 49.9192,
      "duration": 0.2648,
      "velocity": 88,
      "chip": "ym2612"
    },
    {
      "channel": 0,
      "note": 63,
      "start": 50.0512,
      "duration": 0.1323,
      "velocity": 98,
      "chip": "ym2612"
    },
    {
      "channel": 1,
      "note": 75,
      "start": 50.0516,
      "duration": 0.2647,
      "velocity": 91,
      "chip": "ym2612"
    },
    {
      "channel": 0,
      "note": 68,
      "start": 50.1837,
      "duration": 0.1323,
      "velocity": 100,
      "chip": "ym2612"
    },
    {
      "channel": 2,
      "note": 80,
      "start": 50.1841,
      "duration": 0.2647,
      "velocity": 88,
      "chip": "ym2612"
    },
    {
      "channel": 0,
      "note": 66,
      "start": 50.3161,
      "duration": 0.1322,
      "velocity": 98,
      "chip": "ym2612"
    },
    {
      "channel": 1,
      "note": 78,
      "start": 50.3165,
      "duration": 0.2647,
      "velocity": 91,
      "chip": "ym2612"
    },
    {
      "channel": 0,
      "note": 63,
      "start": 50.4485,
      "duration": 0.1323,
      "velocity": 100,
      "chip": "ym2612"
    },
    {
      "channel": 2,
      "note": 75,
      "start": 50.4489,
      "duration": 0.2647,
      "velocity": 88,
      "chip": "ym2612"
    },
    {
      "channel": 0,
      "note": 63,
      "start": 50.581,
      "duration": 0.1323,
      "velocity": 98,
      "chip": "ym2612"
    },
    {
      "channel": 1,
      "note": 75,
      "start": 50.5813,
      "duration": 0.2652,
      "velocity": 91,
      "chip": "ym2612"
    },
    {
      "channel": 0,
      "note": 66,
      "start": 50.7134,
      "duration": 0.1328,
      "velocity": 100,
      "chip": "ym2612"
    },
    {
      "channel": 2,
      "note": 78,
      "start": 50.7137,
      "duration": 0.2651,
      "velocity": 88,
      "chip": "ym2612"
    },
    {
      "channel": 0,
      "note": 85,
      "start": 50.8463,
      "duration": 0.1322,
      "velocity": 98,
      "chip": "ym2612"
    },
    {
      "channel": 1,
      "note": 85,
      "start": 50.8466,
      "duration": 0.2646,
      "velocity": 91,
      "chip": "ym2612"
    },
    {
      "channel": 3,
      "note": 50,
      "start": 50.847,
      "duration": 3.1788,
      "velocity": 97,
      "chip": "ym2612"
    },
    {
      "channel": 4,
      "note": 50,
      "start": 50.8474,
      "duration": 44.7561,
      "velocity": 113,
      "chip": "ym2612"
    },
    {
      "channel": 5,
      "note": 50,
      "start": 50.8478,
      "duration": 44.7556,
      "velocity": 113,
      "chip": "ym2612"
    },
    {
      "channel": 0,
      "note": 74,
      "start": 50.9786,
      "duration": 0.1319,
      "velocity": 100,
      "chip": "ym2612"
    },
    {
      "channel": 2,
      "note": 74,
      "start": 50.979,
      "duration": 0.2643,
      "velocity": 88,
      "chip": "ym2612"
    },
    {
      "channel": 0,
      "note": 74,
      "start": 51.111,
      "duration": 0.1319,
      "velocity": 98,
      "chip": "ym2612"
    },
    {
      "channel": 1,
      "note": 74,
      "start": 51.1114,
      "duration": 0.2643,
      "velocity": 91,
      "chip": "ym2612"
    },
    {
      "channel": 0,
      "note": 85,
      "start": 51.243,
      "duration": 0.1323,
      "velocity": 100,
      "chip": "ym2612"
    },
    {
      "channel": 2,
      "note": 85,
      "start": 51.2434,
      "duration": 0.2647,
      "velocity": 88,
      "chip": "ym2612"
    },
    {
      "channel": 0,
      "note": 80,
      "start": 51.3755,
      "duration": 0.1323,
      "velocity": 98,
      "chip": "ym2612"
    },
    {
      "channel": 1,
      "note": 80,
      "start": 51.3758,
      "duration": 0.2648,
      "velocity": 91,
      "chip": "ym2612"
    },
    {
      "channel": 0,
      "note": 74,
      "start": 51.5079,
      "duration": 0.1322,
      "velocity": 100,
      "chip": "ym2612"
    },
    {
      "channel": 2,
      "note": 74,
      "start": 51.5083,
      "duration": 0.2647,
      "velocity": 88,
      "chip": "ym2612"
    },
    {
      "channel": 0,
      "note": 74,
      "start": 51.6403,
      "duration": 0.1323,
      "velocity": 98,
      "chip": "ym2612"
    },
    {
      "channel": 1,
      "note": 74,
      "start": 51.6407,
      "duration": 0.2647,
      "velocity": 91,
      "chip": "ym2612"
    },
    {
      "channel": 0,
      "note": 80,
      "start": 51.7728,
      "duration": 0.1323,
      "velocity": 100,
      "chip": "ym2612"
    },
    {
      "channel": 2,
      "note": 80,
      "start": 51.7731,
      "duration": 0.2647,
      "velocity": 88,
      "chip": "ym2612"
    },
    {
      "channel": 0,
      "note": 78,
      "start": 51.9052,
      "duration": 0.1323,
      "velocity": 98,
      "chip": "ym2612"
    },
    {
      "channel": 1,
      "note": 78,
      "start": 51.9055,
      "duration": 0.2647,
      "velocity": 91,
      "chip": "ym2612"
    },
    {
      "channel": 0,
      "note": 74,
      "start": 52.0376,
      "duration": 0.1323,
      "velocity": 100,
      "chip": "ym2612"
    },
    {
      "channel": 2,
      "note": 74,
      "start": 52.038,
      "duration": 0.2647,
      "velocity": 88,
      "chip": "ym2612"
    },
    {
      "channel": 0,
      "note": 74,
      "start": 52.17,
      "duration": 0.1323,
      "velocity": 98,
      "chip": "ym2612"
    },
    {
      "channel": 1,
      "note": 74,
      "start": 52.1703,
      "duration": 0.2647,
      "velocity": 91,
      "chip": "ym2612"
    },
    {
      "channel": 0,
      "note": 78,
      "start": 52.3025,
      "duration": 0.1322,
      "velocity": 100,
      "chip": "ym2612"
    },
    {
      "channel": 2,
      "note": 78,
      "start": 52.3028,
      "duration": 0.2647,
      "velocity": 88,
      "chip": "ym2612"
    },
    {
      "channel": 0,
      "note": 85,
      "start": 52.4349,
      "duration": 0.1323,
      "velocity": 98,
      "chip": "ym2612"
    },
    {
      "channel": 1,
      "note": 85,
      "start": 52.4352,
      "duration": 0.2647,
      "velocity": 91,
      "chip": "ym2612"
    },
    {
      "channel": 0,
      "note": 74,
      "start": 52.5673,
      "duration": 0.1323,
      "velocity": 100,
      "chip": "ym2612"
    },
    {
      "channel": 2,
      "note": 74,
      "start": 52.5676,
      "duration": 0.2647,
      "velocity": 88,
      "chip": "ym2612"
    },
    {
      "channel": 0,
      "note": 74,
      "start": 52.6997,
      "duration": 0.1322,
      "velocity": 98,
      "chip": "ym2612"
    },
    {
      "channel": 1,
      "note": 74,
      "start": 52.7,
      "duration": 0.2647,
      "velocity": 91,
      "chip": "ym2612"
    },
    {
      "channel": 0,
      "note": 85,
      "start": 52.8321,
      "duration": 0.1323,
      "velocity": 100,
      "chip": "ym2612"
    },
    {
      "channel": 2,
      "note": 85,
      "start": 52.8324,
      "duration": 0.2648,
      "velocity": 88,
      "chip": "ym2612"
    },
    {
      "channel": 0,
      "note": 80,
      "start": 52.9646,
      "duration": 0.1322,
      "velocity": 98,
      "chip": "ym2612"
    },
    {
      "channel": 1,
      "note": 80,
      "start": 52.9649,
      "duration": 0.2651,
      "velocity": 91,
      "chip": "ym2612"
    },
    {
      "channel": 0,
      "note": 74,
      "start": 53.0969,
      "duration": 0.1327,
      "velocity": 100,
      "chip": "ym2612"
    },
    {
      "channel": 2,
      "note": 74,
      "start": 53.0973,
      "duration": 0.2651,
      "velocity": 88,
      "chip": "ym2612"
    },
    {
      "channel": 0,
      "note": 74,
      "start": 53.2298,
      "duration": 0.1323,
      "velocity": 98,
      "chip": "ym2612"
    },
    {
      "channel": 1,
      "note": 74,
      "start": 53.2301,
      "duration": 0.2648,
      "velocity": 91,
      "chip": "ym2612"
    },
    {
      "channel": 0,
      "note": 80,
      "start": 53.3622,
      "duration": 0.1323,
      "velocity": 100,
      "chip": "ym2612"
    },
    {
      "channel": 2,
      "note": 80,
      "start": 53.3625,
      "duration": 0.2643,
      "velocity": 88,
      "chip": "ym2612"
    },
    {
      "channel": 0,
      "note": 78,
      "start": 53.4946,
      "duration": 0.1319,
      "velocity": 98,
      "chip": "ym2612"
    },
    {
      "channel": 1,
      "note": 78,
      "start": 53.495,
      "duration": 0.2643,
      "velocity": 91,
      "chip": "ym2612"
    },
    {
      "channel": 0,
      "note": 74,
      "start": 53.6266,
      "duration": 0.1323,
      "velocity": 100,
      "chip": "ym2612"
    },
    {
      "channel": 2,
      "note": 74,
      "start": 53.627,
      "duration": 0.2648,
      "velocity": 88,
      "chip": "ym2612"
    },
    {
      "channel": 0,
      "note": 74,
      "start": 53.7591,
      "duration": 0.1323,
      "velocity": 98,
      "chip": "ym2612"
    },
    {
      "channel": 1,
      "note": 74,
      "start": 53.7594,
      "duration": 0.2648,
      "velocity": 91,
      "chip": "ym2612"
    },
    {
      "channel": 0,
      "note": 78,
      "start": 53.8915,
      "duration": 0.1324,
      "velocity": 100,
      "chip": "ym2612"
    },
    {
      "channel": 2,
      "note": 78,
      "start": 53.8918,
      "duration": 0.2647,
      "velocity": 88,
      "chip": "ym2612"
    },
    {
      "channel": 0,
      "note": 85,
      "start": 54.024,
      "duration": 0.1322,
      "velocity": 98,
      "chip": "ym2612"
    },
    {
      "channel": 1,
      "note": 85,
      "start": 54.0243,
      "duration": 0.2646,
      "velocity": 91,
      "chip": "ym2612"
    },
    {
      "channel": 3,
      "note": 51,
      "start": 54.0259,
      "duration": 0.1309,
      "velocity": 97,
      "chip": "ym2612"
    },
    {
      "channel": 0,
      "note": 74,
      "start": 54.1563,
      "duration": 0.1322,
      "velocity": 100,
      "chip": "ym2612"
    },
    {
      "channel": 2,
      "note": 74,
      "start": 54.1567,
      "duration": 0.2647,
      "velocity": 88,
      "chip": "ym2612"
    },
    {
      "channel": 3,
      "note": 51,
      "start": 54.157,
      "duration": 0.1322,
      "velocity": 97,
      "chip": "ym2612"
    },
    {
      "channel": 0,
      "note": 74,
      "start": 54.2887,
      "duration": 0.1323,
      "velocity": 98,
      "chip": "ym2612"
    },
    {
      "channel": 1,
      "note": 74,
      "start": 54.289,
      "duration": 0.2648,
      "velocity": 91,
      "chip": "ym2612"
    },
    {
      "channel": 3,
      "note": 39,
      "start": 54.2894,
      "duration": 0.1323,
      "velocity": 97,
      "chip": "ym2612"
    },
    {
      "channel": 0,
      "note": 85,
      "start": 54.4212,
      "duration": 0.1323,
      "velocity": 100,
      "chip": "ym2612"
    },
    {
      "channel": 2,
      "note": 85,
      "start": 54.4215,
      "duration": 0.2647,
      "velocity": 88,
      "chip": "ym2612"
    },
    {
      "channel": 3,
      "note": 51,
      "start": 54.4218,
      "duration": 0.0641,
      "velocity": 97,
      "chip": "ym2612"
    },
    {
      "channel": 3,
      "note": 39,
      "start": 54.4861,
      "duration": 0.0681,
      "velocity": 97,
      "chip": "ym2612"
    },
    {
      "channel": 0,
      "note": 80,
      "start": 54.5535,
      "duration": 0.1323,
      "velocity": 98,
      "chip": "ym2612"
    },
    {
      "channel": 1,
      "note": 80,
      "start": 54.5539,
      "duration": 0.2647,
      "velocity": 91,
      "chip": "ym2612"
    },
    {
      "channel": 3,
      "note": 51,
      "start": 54.5542,
      "duration": 0.0641,
      "velocity": 97,
      "chip": "ym2612"
    },
    {
      "channel": 3,
      "note": 39,
      "start": 54.6185,
      "duration": 0.068,
      "velocity": 97,
      "chip": "ym2612"
    },
    {
      "channel": 0,
      "note": 74,
      "start": 54.686,
      "duration": 0.1323,
      "velocity": 100,
      "chip": "ym2612"
    },
    {
      "channel": 2,
      "note": 74,
      "start": 54.6863,
      "duration": 0.2648,
      "velocity": 88,
      "chip": "ym2612"
    },
    {
      "channel": 3,
      "note": 39,
      "start": 54.6866,
      "duration": 0.0641,
      "velocity": 97,
      "chip": "ym2612"
    },
    {
      "channel": 3,
      "note": 39,
      "start": 54.7509,
      "duration": 0.0681,
      "velocity": 97,
      "chip": "ym2612"
    },
    {
      "channel": 0,
      "note": 74,
      "start": 54.8184,
      "duration": 0.1322,
      "velocity": 98,
      "chip": "ym2612"
    },
    {
      "channel": 1,
      "note": 74,
      "start": 54.8188,
      "duration": 0.2647,
      "velocity": 91,
      "chip": "ym2612"
    },
    {
      "channel": 3,
      "note": 39,
      "start": 54.8191,
      "duration": 0.0641,
      "velocity": 97,
      "chip": "ym2612"
    },
    {
      "channel": 3,
      "note": 39,
      "start": 54.8833,
      "duration": 0.0681,
      "velocity": 97,
      "chip": "ym2612"
    },
    {
      "channel": 0,
      "note": 80,
      "start": 54.9508,
      "duration": 0.1323,
      "velocity": 100,
      "chip": "ym2612"
    },
    {
      "channel": 2,
      "note": 80,
      "start": 54.9512,
      "duration": 0.2647,
      "velocity": 88,
      "chip": "ym2612"
    },
    {
      "channel": 3,
      "note": 39,
      "start": 54.9515,
      "duration": 0.0641,
      "velocity": 97,
      "chip": "ym2612"
    },
    {
      "channel": 3,
      "note": 39,
      "start": 55.0158,
      "duration": 0.068,
      "velocity": 97,
      "chip": "ym2612"
    },
    {
      "channel": 0,
      "note": 78,
      "start": 55.0832,
      "duration": 0.1323,
      "velocity": 98,
      "chip": "ym2612"
    },
    {
      "channel": 1,
      "note": 78,
      "start": 55.0836,
      "duration": 0.2647,
      "velocity": 91,
      "chip": "ym2612"
    },
    {
      "channel": 3,
      "note": 39,
      "start": 55.0839,
      "duration": 0.0641,
      "velocity": 97,
      "chip": "ym2612"
    },
    {
      "channel": 3,
      "note": 39,
      "start": 55.1481,
      "duration": 0.0681,
      "velocity": 97,
      "chip": "ym2612"
    },
    {
      "channel": 0,
      "note": 74,
      "start": 55.2157,
      "duration": 0.1322,
      "velocity": 100,
      "chip": "ym2612"
    },
    {
      "channel": 2,
      "note": 74,
      "start": 55.216,
      "duration": 0.2647,
      "velocity": 88,
      "chip": "ym2612"
    },
    {
      "channel": 3,
      "note": 39,
      "start": 55.2163,
      "duration": 0.0641,
      "velocity": 97,
      "chip": "ym2612"
    },
    {
      "channel": 3,
      "note": 39,
      "start": 55.2806,
      "duration": 0.068,
      "velocity": 97,
      "chip": "ym2612"
    },
    {
      "channel": 0,
      "note": 74,
      "start": 55.3481,
      "duration": 0.1323,
      "velocity": 98,
      "chip": "ym2612"
    },
    {
      "channel": 1,
      "note": 74,
      "start": 55.3484,
      "duration": 0.2649,
      "velocity": 91,
      "chip": "ym2612"
    },
    {
      "channel": 3,
      "note": 51,
      "start": 55.3487,
      "duration": 0.1323,
      "velocity": 97,
      "chip": "ym2612"
    },
    {
      "channel": 0,
      "note": 78,
      "start": 55.4805,
      "duration": 0.1324,
      "velocity": 100,
      "chip": "ym2612"
    },
    {
      "channel": 2,
      "note": 78,
      "start": 55.4808,
      "duration": 0.2651,
      "velocity": 88,
      "chip": "ym2612"
    },
    {
      "channel": 3,
      "note": 51,
      "start": 55.4812,
      "duration": 0.4614,
      "velocity": 97,
      "chip": "ym2612"
    },
    {
      "channel": 0,
      "note": 85,
      "start": 55.6131,
      "duration": 0.1326,
      "velocity": 98,
      "chip": "ym2612"
    },
    {
      "channel": 1,
      "note": 85,
      "start": 55.6134,
      "duration": 0.2649,
      "velocity": 91,
      "chip": "ym2612"
    },
    {
      "channel": 0,
      "note": 74,
      "start": 55.7458,
      "duration": 0.1322,
      "velocity": 100,
      "chip": "ym2612"
    },
    {
      "channel": 2,
      "note": 74,
      "start": 55.7461,
      "duration": 0.2643,
      "velocity": 88,
      "chip": "ym2612"
    },
    {
      "channel": 0,
      "note": 74,
      "start": 55.8782,
      "duration": 0.1319,
      "velocity": 98,
      "chip": "ym2612"
    },
    {
      "channel": 1,
      "note": 74,
      "start": 55.8785,
      "duration": 0.2644,
      "velocity": 91,
      "chip": "ym2612"
    },
    {
      "channel": 3,
      "note": 51,
      "start": 55.9427,
      "duration": 0.0684,
      "velocity": 97,
      "chip": "ym2612"
    },
    {
      "channel": 0,
      "note": 85,
      "start": 56.0102,
      "duration": 0.1322,
      "velocity": 100,
      "chip": "ym2612"
    },
    {
      "channel": 2,
      "note": 85,
      "start": 56.0105,
      "duration": 0.2647,
      "velocity": 88,
      "chip": "ym2612"
    },
    {
      "channel": 3,
      "note": 39,
      "start": 56.0112,
      "duration": 0.0637,
      "velocity": 97,
      "chip": "ym2612"
    },
    {
      "channel": 3,
      "note": 51,
      "start": 56.0751,
      "duration": 0.0681,
      "velocity": 97,
      "chip": "ym2612"
    },
    {
      "channel": 0,
      "note": 80,
      "start": 56.1426,
      "duration": 0.1323,
      "velocity": 98,
      "chip": "ym2612"
    },
    {
      "channel": 1,
      "note": 80,
      "start": 56.143,
      "duration": 0.2647,
      "velocity": 91,
      "chip": "ym2612"
    },
    {
      "channel": 3,
      "note": 39,
      "start": 56.1433,
      "duration": 0.0641,
      "velocity": 97,
      "chip": "ym2612"
    },
    {
      "channel": 3,
      "note": 39,
      "start": 56.2075,
      "duration": 0.0681,
      "velocity": 97,
      "chip": "ym2612"
    },
    {
      "channel": 0,
      "note": 74,
      "start": 56.2751,
      "duration": 0.1323,
      "velocity": 100,
      "chip": "ym2612"
    },
    {
      "channel": 2,
      "note": 74,
      "start": 56.2754,
      "duration": 0.2647,
      "velocity": 88,
      "chip": "ym2612"
    },
    {
      "channel": 3,
      "note": 39,
      "start": 56.2757,
      "duration": 0.0641,
      "velocity": 97,
      "chip": "ym2612"
    },
    {
      "channel": 3,
      "note": 39,
      "start": 56.3399,
      "duration": 0.0681,
      "velocity": 97,
      "chip": "ym2612"
    },
    {
      "channel": 0,
      "note": 74,
      "start": 56.4075,
      "duration": 0.1323,
      "velocity": 98,
      "chip": "ym2612"
    },
    {
      "channel": 1,
      "note": 74,
      "start": 56.4078,
      "duration": 0.2647,
      "velocity": 91,
      "chip": "ym2612"
    },
    {
      "channel": 3,
      "note": 39,
      "start": 56.4081,
      "duration": 0.0641,
      "velocity": 97,
      "chip": "ym2612"
    },
    {
      "channel": 3,
      "note": 39,
      "start": 56.4724,
      "duration": 0.068,
      "velocity": 97,
      "chip": "ym2612"
    },
    {
      "channel": 0,
      "note": 80,
      "start": 56.5399,
      "duration": 0.1323,
      "velocity": 100,
      "chip": "ym2612"
    },
    {
      "channel": 2,
      "note": 80,
      "start": 56.5402,
      "duration": 0.2648,
      "velocity": 88,
      "chip": "ym2612"
    },
    {
      "channel": 3,
      "note": 39,
      "start": 56.5405,
      "duration": 0.0641,
      "velocity": 97,
      "chip": "ym2612"
    },
    {
      "channel": 3,
      "note": 39,
      "start": 56.6048,
      "duration": 0.068,
      "velocity": 97,
      "chip": "ym2612"
    },
    {
      "channel": 0,
      "note": 78,
      "start": 56.6723,
      "duration": 0.1322,
      "velocity": 98,
      "chip": "ym2612"
    },
    {
      "channel": 1,
      "note": 78,
      "start": 56.6726,
      "duration": 0.2647,
      "velocity": 91,
      "chip": "ym2612"
    },
    {
      "channel": 3,
      "note": 39,
      "start": 56.6729,
      "duration": 0.0641,
      "velocity": 97,
      "chip": "ym2612"
    },
    {
      "channel": 3,
      "note": 39,
      "start": 56.7372,
      "duration": 0.0681,
      "velocity": 97,
      "chip": "ym2612"
    },
    {
      "channel": 0,
      "note": 74,
      "start": 56.8047,
      "duration": 0.1323,
      "velocity": 100,
      "chip": "ym2612"
    },
    {
      "channel": 2,
      "note": 74,
      "start": 56.8051,
      "duration": 0.2647,
      "velocity": 88,
      "chip": "ym2612"
    },
    {
      "channel": 3,
      "note": 39,
      "start": 56.8054,
      "duration": 0.0641,
      "velocity": 97,
      "chip": "ym2612"
    },
    {
      "channel": 3,
      "note": 51,
      "start": 56.8696,
      "duration": 0.1322,
      "velocity": 97,
      "chip": "ym2612"
    },
    {
      "channel": 0,
      "note": 74,
      "start": 56.9371,
      "duration": 0.1323,
      "velocity": 98,
      "chip": "ym2612"
    },
    {
      "channel": 1,
      "note": 74,
      "start": 56.9375,
      "duration": 0.2661,
      "velocity": 113,
      "chip": "ym2612"
    },
    {
      "channel": 3,
      "note": 51,
      "start": 57.002,
      "duration": 0.1322,
      "velocity": 97,
      "chip": "ym2612"
    },
    {
      "channel": 0,
      "note": 78,
      "start": 57.0696,
      "duration": 0.1323,
      "velocity": 97,
      "chip": "ym2612"
    },
    {
      "channel": 2,
      "note": 78,
      "start": 57.0699,
      "duration": 0.1354,
      "velocity": 113,
      "chip": "ym2612"
    },
    {
      "channel": 0,
      "note": 85,
      "start": 57.202,
      "duration": 0.1323,
      "velocity": 86,
      "chip": "ym2612"
    },
    {
      "channel": 1,
      "note": 56,
      "start": 57.2037,
      "duration": 12.7122,
      "velocity": 91,
      "chip": "ym2612"
    },
    {
      "channel": 2,
      "note": 57,
      "start": 57.2054,
      "duration": 12.775,
      "velocity": 88,
      "chip": "ym2612"
    },
    {
      "channel": 3,
      "note": 44,
      "start": 57.2071,
      "duration": 3.1745,
      "velocity": 106,
      "chip": "ym2612"
    },
    {
      "channel": 0,
      "note": 75,
      "start": 57.3344,
      "duration": 0.1323,
      "velocity": 97,
      "chip": "ym2612"
    },
    {
      "channel": 0,
      "note": 75,
      "start": 57.4668,
      "duration": 0.1322,
      "velocity": 86,
      "chip": "ym2612"
    },
    {
      "channel": 0,
      "note": 85,
      "start": 57.5992,
      "duration": 0.1323,
      "velocity": 97,
      "chip": "ym2612"
    },
    {
      "channel": 0,
      "note": 80,
      "start": 57.7317,
      "duration": 0.1323,
      "velocity": 86,
      "chip": "ym2612"
    },
    {
      "channel": 0,
      "note": 75,
      "start": 57.864,
      "duration": 0.1323,
      "velocity": 97,
      "chip": "ym2612"
    },
    {
      "channel": 0,
      "note": 75,
      "start": 57.9965,
      "duration": 0.1327,
      "velocity": 86,
      "chip": "ym2612"
    },
    {
      "channel": 0,
      "note": 80,
      "start": 58.1293,
      "duration": 0.1323,
      "velocity": 97,
      "chip": "ym2612"
    },
    {
      "channel": 0,
      "note": 78,
      "start": 58.2617,
      "duration": 0.1319,
      "velocity": 86,
      "chip": "ym2612"
    },
    {
      "channel": 0,
      "note": 75,
      "start": 58.3937,
      "duration": 0.1323,
      "velocity": 97,
      "chip": "ym2612"
    },
    {
      "channel": 0,
      "note": 75,
      "start": 58.5262,
      "duration": 0.1322,
      "velocity": 86,
      "chip": "ym2612"
    },
    {
      "channel": 0,
      "note": 78,
      "start": 58.6586,
      "duration": 0.1323,
      "velocity": 97,
      "chip": "ym2612"
    },
    {
      "channel": 0,
      "note": 85,
      "start": 58.791,
      "duration": 0.1323,
      "velocity": 86,
      "chip": "ym2612"
    },
    {
      "channel": 0,
      "note": 75,
      "start": 58.9234,
      "duration": 0.1323,
      "velocity": 97,
      "chip": "ym2612"
    },
    {
      "channel": 0,
      "note": 75,
      "start": 59.0558,
      "duration": 0.1323,
      "velocity": 86,
      "chip": "ym2612"
    },
    {
      "channel": 0,
      "note": 85,
      "start": 59.1883,
      "duration": 0.1322,
      "velocity": 97,
      "chip": "ym2612"
    },
    {
      "channel": 0,
      "note": 80,
      "start": 59.3207,
      "duration": 0.1323,
      "velocity": 86,
      "chip": "ym2612"
    },
    {
      "channel": 0,
      "note": 75,
      "start": 59.4531,
      "duration": 0.1323,
      "velocity": 97,
      "chip": "ym2612"
    },
    {
      "channel": 0,
      "note": 75,
      "start": 59.5855,
      "duration": 0.1323,
      "velocity": 86,
      "chip": "ym2612"
    },
    {
      "channel": 0,
      "note": 80,
      "start": 59.7179,
      "duration": 0.1323,
      "velocity": 97,
      "chip": "ym2612"
    },
    {
      "channel": 0,
      "note": 78,
      "start": 59.8504,
      "duration": 0.1323,
      "velocity": 86,
      "chip": "ym2612"
    },
    {
      "channel": 0,
      "note": 75,
      "start": 59.9828,
      "duration": 0.1322,
      "velocity": 97,
      "chip": "ym2612"
    },
    {
      "channel": 0,
      "note": 75,
      "start": 60.1152,
      "duration": 0.1323,
      "velocity": 86,
      "chip": "ym2612"
    },
    {
      "channel": 0,
      "note": 78,
      "start": 60.2476,
      "duration": 0.1323,
      "velocity": 97,
      "chip": "ym2612"
    },
    {
      "channel": 0,
      "note": 85,
      "start": 60.3801,
      "duration": 0.1327,
      "velocity": 86,
      "chip": "ym2612"
    },
    {
      "channel": 3,
      "note": 27,
      "start": 60.3817,
      "duration": 3.1767,
      "velocity": 106,
      "chip": "ym2612"
    },
    {
      "channel": 0,
      "note": 75,
      "start": 60.5129,
      "duration": 0.1322,
      "velocity": 97,
      "chip": "ym2612"
    },
    {
      "channel": 0,
      "note": 75,
      "start": 60.6453,
      "duration": 0.1319,
      "velocity": 86,
      "chip": "ym2612"
    },
    {
      "channel": 0,
      "note": 85,
      "start": 60.7777,
      "duration": 0.1319,
      "velocity": 97,
      "chip": "ym2612"
    },
    {
      "channel": 0,
      "note": 80,
      "start": 60.9097,
      "duration": 0.1323,
      "velocity": 86,
      "chip": "ym2612"
    },
    {
      "channel": 0,
      "note": 75,
      "start": 61.0422,
      "duration": 0.1323,
      "velocity": 97,
      "chip": "ym2612"
    },
    {
      "channel": 0,
      "note": 75,
      "start": 61.1746,
      "duration": 0.1322,
      "velocity": 86,
      "chip": "ym2612"
    },
    {
      "channel": 0,
      "note": 80,
      "start": 61.307,
      "duration": 0.1323,
      "velocity": 97,
      "chip": "ym2612"
    },
    {
      "channel": 0,
      "note": 78,
      "start": 61.4394,
      "duration": 0.1322,
      "velocity": 86,
      "chip": "ym2612"
    },
    {
      "channel": 0,
      "note": 75,
      "start": 61.5718,
      "duration": 0.1323,
      "velocity": 97,
      "chip": "ym2612"
    },
    {
      "channel": 0,
      "note": 75,
      "start": 61.7042,
      "duration": 0.1323,
      "velocity": 86,
      "chip": "ym2612"
    },
    {
      "channel": 0,
      "note": 78,
      "start": 61.8367,
      "duration": 0.1322,
      "velocity": 97,
      "chip": "ym2612"
    },
    {
      "channel": 0,
      "note": 85,
      "start": 61.9691,
      "duration": 0.1323,
      "velocity": 86,
      "chip": "ym2612"
    },
    {
      "channel": 0,
      "note": 75,
      "start": 62.1015,
      "duration": 0.1323,
      "velocity": 97,
      "chip": "ym2612"
    },
    {
      "channel": 0,
      "note": 75,
      "start": 62.2339,
      "duration": 0.1323,
      "velocity": 86,
      "chip": "ym2612"
    },
    {
      "channel": 0,
      "note": 85,
      "start": 62.3663,
      "duration": 0.1323,
      "velocity": 97,
      "chip": "ym2612"
    },
    {
      "channel": 0,
      "note": 80,
      "start": 62.4988,
      "duration": 0.1323,
      "velocity": 86,
      "chip": "ym2612"
    },
    {
      "channel": 0,
      "note": 75,
      "start": 62.6312,
      "duration": 0.1322,
      "velocity": 97,
      "chip": "ym2612"
    },
    {
      "channel": 0,
      "note": 75,
      "start": 62.7636,
      "duration": 0.1327,
      "velocity": 86,
      "chip": "ym2612"
    },
    {
      "channel": 0,
      "note": 80,
      "start": 62.8964,
      "duration": 0.1323,
      "velocity": 97,
      "chip": "ym2612"
    },
    {
      "channel": 0,
      "note": 78,
      "start": 63.0289,
      "duration": 0.1323,
      "velocity": 86,
      "chip": "ym2612"
    },
    {
      "channel": 0,
      "note": 75,
      "start": 63.1613,
      "duration": 0.1319,
      "velocity": 97,
      "chip": "ym2612"
    },
    {
      "channel": 0,
      "note": 75,
      "start": 63.2933,
      "duration": 0.1322,
      "velocity": 86,
      "chip": "ym2612"
    },
    {
      "channel": 0,
      "note": 78,
      "start": 63.4257,
      "duration": 0.1323,
      "velocity": 97,
      "chip": "ym2612"
    },
    {
      "channel": 0,
      "note": 85,
      "start": 63.5581,
      "duration": 0.1323,
      "velocity": 86,
      "chip": "ym2612"
    },
    {
      "channel": 3,
      "note": 27,
      "start": 63.5585,
      "duration": 3.1779,
      "velocity": 106,
      "chip": "ym2612"
    },
    {
      "channel": 0,
      "note": 75,
      "start": 63.6906,
      "duration": 0.1322,
      "velocity": 97,
      "chip": "ym2612"
    },
    {
      "channel": 0,
      "note": 75,
      "start": 63.8229,
      "duration": 0.1323,
      "velocity": 86,
      "chip": "ym2612"
    },
    {
      "channel": 0,
      "note": 85,
      "start": 63.9554,
      "duration": 0.1323,
      "velocity": 97,
      "chip": "ym2612"
    },
    {
      "channel": 0,
      "note": 80,
      "start": 64.0878,
      "duration": 0.1323,
      "velocity": 86,
      "chip": "ym2612"
    },
    {
      "channel": 0,
      "note": 75,
      "start": 64.2202,
      "duration": 0.1323,
      "velocity": 97,
      "chip": "ym2612"
    },
    {
      "channel": 0,
      "note": 75,
      "start": 64.3527,
      "duration": 0.1323,
      "velocity": 86,
      "chip": "ym2612"
    },
    {
      "channel": 0,
      "note": 80,
      "start": 64.4851,
      "duration": 0.1322,
      "velocity": 97,
      "chip": "ym2612"
    },
    {
      "channel": 0,
      "note": 78,
      "start": 64.6175,
      "duration": 0.1323,
      "velocity": 86,
      "chip": "ym2612"
    },
    {
      "channel": 0,
      "note": 75,
      "start": 64.7499,
      "duration": 0.1323,
      "velocity": 97,
      "chip": "ym2612"
    },
    {
      "channel": 0,
      "note": 75,
      "start": 64.8823,
      "duration": 0.1323,
      "velocity": 86,
      "chip": "ym2612"
    },
    {
      "channel": 0,
      "note": 78,
      "start": 65.0147,
      "duration": 0.1323,
      "velocity": 97,
      "chip": "ym2612"
    },
    {
      "channel": 0,
      "note": 85,
      "start": 65.1472,
      "duration": 0.1324,
      "velocity": 86,
      "chip": "ym2612"
    },
    {
      "channel": 0,
      "note": 75,
      "start": 65.2798,
      "duration": 0.1326,
      "velocity": 97,
      "chip": "ym2612"
    },
    {
      "channel": 0,
      "note": 75,
      "start": 65.4124,
      "duration": 0.1322,
      "velocity": 86,
      "chip": "ym2612"
    },
    {
      "channel": 0,
      "note": 85,
      "start": 65.5448,
      "duration": 0.1319,
      "velocity": 97,
      "chip": "ym2612"
    },
    {
      "channel": 0,
      "note": 80,
      "start": 65.6768,
      "duration": 0.1323,
      "velocity": 86,
      "chip": "ym2612"
    },
    {
      "channel": 0,
      "note": 75,
      "start": 65.8093,
      "duration": 0.1323,
      "velocity": 97,
      "chip": "ym2612"
    },
    {
      "channel": 0,
      "note": 75,
      "start": 65.9417,
      "duration": 0.1322,
      "velocity": 86,
      "chip": "ym2612"
    },
    {
      "channel": 0,
      "note": 80,
      "start": 66.0741,
      "duration": 0.1323,
      "velocity": 97,
      "chip": "ym2612"
    },
    {
      "channel": 0,
      "note": 78,
      "start": 66.2065,
      "duration": 0.1323,
      "velocity": 86,
      "chip": "ym2612"
    },
    {
      "channel": 0,
      "note": 75,
      "start": 66.339,
      "duration": 0.1322,
      "velocity": 97,
      "chip": "ym2612"
    },
    {
      "channel": 0,
      "note": 75,
      "start": 66.4714,
      "duration": 0.1323,
      "velocity": 86,
      "chip": "ym2612"
    },
    {
      "channel": 0,
      "note": 78,
      "start": 66.6038,
      "duration": 0.1322,
      "velocity": 97,
      "chip": "ym2612"
    },
    {
      "channel": 0,
      "note": 85,
      "start": 66.7362,
      "duration": 0.1323,
      "velocity": 86,
      "chip": "ym2612"
    },
    {
      "channel": 3,
      "note": 27,
      "start": 66.7366,
      "duration": 3.1796,
      "velocity": 106,
      "chip": "ym2612"
    },
    {
      "channel": 0,
      "note": 75,
      "start": 66.8686,
      "duration": 0.1323,
      "velocity": 97,
      "chip": "ym2612"
    },
    {
      "channel": 0,
      "note": 75,
      "start": 67.0011,
      "duration": 0.1322,
      "velocity": 86,
      "chip": "ym2612"
    },
    {
      "channel": 0,
      "note": 85,
      "start": 67.1334,
      "duration": 0.1323,
      "velocity": 97,
      "chip": "ym2612"
    },
    {
      "channel": 0,
      "note": 80,
      "start": 67.2659,
      "duration": 0.1323,
      "velocity": 86,
      "chip": "ym2612"
    },
    {
      "channel": 0,
      "note": 75,
      "start": 67.3983,
      "duration": 0.1323,
      "velocity": 97,
      "chip": "ym2612"
    },
    {
      "channel": 0,
      "note": 75,
      "start": 67.5307,
      "duration": 0.1323,
      "velocity": 86,
      "chip": "ym2612"
    },
    {
      "channel": 0,
      "note": 80,
      "start": 67.6632,
      "duration": 0.1327,
      "velocity": 97,
      "chip": "ym2612"
    },
    {
      "channel": 0,
      "note": 78,
      "start": 67.796,
      "duration": 0.1323,
      "velocity": 86,
      "chip": "ym2612"
    },
    {
      "channel": 0,
      "note": 75,
      "start": 67.9284,
      "duration": 0.1319,
      "velocity": 97,
      "chip": "ym2612"
    },
    {
      "channel": 0,
      "note": 75,
      "start": 68.0604,
      "duration": 0.1323,
      "velocity": 86,
      "chip": "ym2612"
    },
    {
      "channel": 0,
      "note": 78,
      "start": 68.1929,
      "duration": 0.1322,
      "velocity": 97,
      "chip": "ym2612"
    },
    {
      "channel": 0,
      "note": 85,
      "start": 68.3252,
      "duration": 0.1323,
      "velocity": 86,
      "chip": "ym2612"
    },
    {
      "channel": 0,
      "note": 75,
      "start": 68.4577,
      "duration": 0.1323,
      "velocity": 97,
      "chip": "ym2612"
    },
    {
      "channel": 0,
      "note": 75,
      "start": 68.5901,
      "duration": 0.1323,
      "velocity": 86,
      "chip": "ym2612"
    },
    {
      "channel": 0,
      "note": 85,
      "start": 68.7225,
      "duration": 0.1323,
      "velocity": 97,
      "chip": "ym2612"
    },
    {
      "channel": 0,
      "note": 80,
      "start": 68.8549,
      "duration": 0.1322,
      "velocity": 86,
      "chip": "ym2612"
    },
    {
      "channel": 0,
      "note": 75,
      "start": 68.9873,
      "duration": 0.1323,
      "velocity": 97,
      "chip": "ym2612"
    },
    {
      "channel": 0,
      "note": 75,
      "start": 69.1198,
      "duration": 0.1323,
      "velocity": 86,
      "chip": "ym2612"
    },
    {
      "channel": 0,
      "note": 80,
      "start": 69.2522,
      "duration": 0.1323,
      "velocity": 97,
      "chip": "ym2612"
    },
    {
      "channel": 0,
      "note": 78,
      "start": 69.3846,
      "duration": 0.1323,
      "velocity": 86,
      "chip": "ym2612"
    },
    {
      "channel": 0,
      "note": 75,
      "start": 69.517,
      "duration": 0.1323,
      "velocity": 97,
      "chip": "ym2612"
    },
    {
      "channel": 0,
      "note": 75,
      "start": 69.6495,
      "duration": 0.1322,
      "velocity": 86,
      "chip": "ym2612"
    },
    {
      "channel": 0,
      "note": 78,
      "start": 69.7819,
      "duration": 0.1323,
      "velocity": 97,
      "chip": "ym2612"
    },
    {
      "channel": 0,
      "note": 85,
      "start": 69.9143,
      "duration": 0.1323,
      "velocity": 86,
      "chip": "ym2612"
    },
    {
      "channel": 1,
      "note": 61,
      "start": 69.9159,
      "duration": 0.131,
      "velocity": 91,
      "chip": "ym2612"
    },
    {
      "channel": 3,
      "note": 27,
      "start": 69.9163,
      "duration": 3.1767,
      "velocity": 106,
      "chip": "ym2612"
    },
    {
      "channel": 2,
      "note": 61,
      "start": 69.9805,
      "duration": 0.1311,
      "velocity": 88,
      "chip": "ym2612"
    },
    {
      "channel": 0,
      "note": 75,
      "start": 70.0467,
      "duration": 0.1326,
      "velocity": 97,
      "chip": "ym2612"
    },
    {
      "channel": 1,
      "note": 67,
      "start": 70.0471,
      "duration": 0.1327,
      "velocity": 91,
      "chip": "ym2612"
    },
    {
      "channel": 2,
      "note": 67,
      "start": 70.1117,
      "duration": 0.1321,
      "velocity": 88,
      "chip": "ym2612"
    },
    {
      "channel": 0,
      "note": 75,
      "start": 70.1796,
      "duration": 0.1322,
      "velocity": 86,
      "chip": "ym2612"
    },
    {
      "channel": 1,
      "note": 59,
      "start": 70.1799,
      "duration": 0.1322,
      "velocity": 91,
      "chip": "ym2612"
    },
    {
      "channel": 2,
      "note": 59,
      "start": 70.2444,
      "duration": 0.1319,
      "velocity": 88,
      "chip": "ym2612"
    },
    {
      "channel": 0,
      "note": 85,
      "start": 70.312,
      "duration": 0.1319,
      "velocity": 97,
      "chip": "ym2612"
    },
    {
      "channel": 1,
      "note": 65,
      "start": 70.3123,
      "duration": 0.1323,
      "velocity": 91,
      "chip": "ym2612"
    },
    {
      "channel": 2,
      "note": 65,
      "start": 70.3764,
      "duration": 0.1323,
      "velocity": 88,
      "chip": "ym2612"
    },
    {
      "channel": 0,
      "note": 80,
      "start": 70.4444,
      "duration": 0.1319,
      "velocity": 86,
      "chip": "ym2612"
    },
    {
      "channel": 1,
      "note": 61,
      "start": 70.4447,
      "duration": 0.1319,
      "velocity": 91,
      "chip": "ym2612"
    },
    {
      "channel": 2,
      "note": 61,
      "start": 70.5089,
      "duration": 0.1323,
      "velocity": 88,
      "chip": "ym2612"
    },
    {
      "channel": 0,
      "note": 75,
      "start": 70.5764,
      "duration": 0.1323,
      "velocity": 97,
      "chip": "ym2612"
    },
    {
      "channel": 1,
      "note": 63,
      "start": 70.5767,
      "duration": 0.1323,
      "velocity": 91,
      "chip": "ym2612"
    },
    {
      "channel": 2,
      "note": 63,
      "start": 70.6413,
      "duration": 0.1322,
      "velocity": 88,
      "chip": "ym2612"
    },
    {
      "channel": 0,
      "note": 75,
      "start": 70.7088,
      "duration": 0.1322,
      "velocity": 86,
      "chip": "ym2612"
    },
    {
      "channel": 1,
      "note": 59,
      "start": 70.7091,
      "duration": 0.1323,
      "velocity": 91,
      "chip": "ym2612"
    },
    {
      "channel": 2,
      "note": 59,
      "start": 70.7737,
      "duration": 0.1323,
      "velocity": 88,
      "chip": "ym2612"
    },
    {
      "channel": 0,
      "note": 80,
      "start": 70.8412,
      "duration": 0.1323,
      "velocity": 97,
      "chip": "ym2612"
    },
    {
      "channel": 1,
      "note": 67,
      "start": 70.8416,
      "duration": 0.1322,
      "velocity": 91,
      "chip": "ym2612"
    },
    {
      "channel": 2,
      "note": 67,
      "start": 70.9061,
      "duration": 0.1323,
      "velocity": 88,
      "chip": "ym2612"
    },
    {
      "channel": 0,
      "note": 78,
      "start": 70.9737,
      "duration": 0.1323,
      "velocity": 86,
      "chip": "ym2612"
    },
    {
      "channel": 1,
      "note": 61,
      "start": 70.974,
      "duration": 0.1323,
      "velocity": 91,
      "chip": "ym2612"
    },
    {
      "channel": 2,
      "note": 61,
      "start": 71.0386,
      "duration": 0.1322,
      "velocity": 88,
      "chip": "ym2612"
    },
    {
      "channel": 0,
      "note": 75,
      "start": 71.1061,
      "duration": 0.1322,
      "velocity": 97,
      "chip": "ym2612"
    },
    {
      "channel": 1,
      "note": 65,
      "start": 71.1064,
      "duration": 0.1323,
      "velocity": 91,
      "chip": "ym2612"
    },
    {
      "channel": 2,
      "note": 65,
      "start": 71.171,
      "duration": 0.1323,
      "velocity": 88,
      "chip": "ym2612"
    },
    {
      "channel": 0,
      "note": 75,
      "start": 71.2385,
      "duration": 0.1323,
      "velocity": 86,
      "chip": "ym2612"
    },
    {
      "channel": 1,
      "note": 59,
      "start": 71.2388,
      "duration": 0.1323,
      "velocity": 91,
      "chip": "ym2612"
    },
    {
      "channel": 2,
      "note": 59,
      "start": 71.3034,
      "duration": 0.1322,
      "velocity": 88,
      "chip": "ym2612"
    },
    {
      "channel": 0,
      "note": 78,
      "start": 71.3709,
      "duration": 0.1323,
      "velocity": 97,
      "chip": "ym2612"
    },
    {
      "channel": 1,
      "note": 63,
      "start": 71.3712,
      "duration": 0.1323,
      "velocity": 91,
      "chip": "ym2612"
    },
    {
      "channel": 2,
      "note": 63,
      "start": 71.4358,
      "duration": 0.1323,
      "velocity": 88,
      "chip": "ym2612"
    },
    {
      "channel": 0,
      "note": 85,
      "start": 71.5034,
      "duration": 0.1322,
      "velocity": 86,
      "chip": "ym2612"
    },
    {
      "channel": 1,
      "note": 61,
      "start": 71.5037,
      "duration": 0.1323,
      "velocity": 91,
      "chip": "ym2612"
    },
    {
      "channel": 2,
      "note": 61,
      "start": 71.5682,
      "duration": 0.1323,
      "velocity": 88,
      "chip": "ym2612"
    },
    {
      "channel": 0,
      "note": 75,
      "start": 71.6357,
      "duration": 0.1323,
      "velocity": 97,
      "chip": "ym2612"
    },
    {
      "channel": 1,
      "note": 67,
      "start": 71.6361,
      "duration": 0.1322,
      "velocity": 91,
      "chip": "ym2612"
    },
    {
      "channel": 2,
      "note": 67,
      "start": 71.7007,
      "duration": 0.1322,
      "velocity": 88,
      "chip": "ym2612"
    },
    {
      "channel": 0,
      "note": 75,
      "start": 71.7682,
      "duration": 0.1323,
      "velocity": 86,
      "chip": "ym2612"
    },
    {
      "channel": 1,
      "note": 59,
      "start": 71.7685,
      "duration": 0.1323,
      "velocity": 91,
      "chip": "ym2612"
    },
    {
      "channel": 2,
      "note": 59,
      "start": 71.8331,
      "duration": 0.1323,
      "velocity": 88,
      "chip": "ym2612"
    },
    {
      "channel": 0,
      "note": 85,
      "start": 71.9006,
      "duration": 0.1323,
      "velocity": 97,
      "chip": "ym2612"
    },
    {
      "channel": 1,
      "note": 65,
      "start": 71.9009,
      "duration": 0.1323,
      "velocity": 91,
      "chip": "ym2612"
    },
    {
      "channel": 2,
      "note": 65,
      "start": 71.9655,
      "duration": 0.1323,
      "velocity": 88,
      "chip": "ym2612"
    },
    {
      "channel": 0,
      "note": 80,
      "start": 72.033,
      "duration": 0.1323,
      "velocity": 86,
      "chip": "ym2612"
    },
    {
      "channel": 1,
      "note": 61,
      "start": 72.0334,
      "duration": 0.1322,
      "velocity": 91,
      "chip": "ym2612"
    },
    {
      "channel": 2,
      "note": 61,
      "start": 72.0979,
      "duration": 0.1323,
      "velocity": 88,
      "chip": "ym2612"
    },
    {
      "channel": 0,
      "note": 75,
      "start": 72.1654,
      "duration": 0.1323,
      "velocity": 97,
      "chip": "ym2612"
    },
    {
      "channel": 1,
      "note": 63,
      "start": 72.1658,
      "duration": 0.1323,
      "velocity": 91,
      "chip": "ym2612"
    },
    {
      "channel": 2,
      "note": 63,
      "start": 72.2303,
      "duration": 0.1323,
      "velocity": 88,
      "chip": "ym2612"
    },
    {
      "channel": 0,
      "note": 75,
      "start": 72.2979,
      "duration": 0.1322,
      "velocity": 86,
      "chip": "ym2612"
    },
    {
      "channel": 1,
      "note": 59,
      "start": 72.2982,
      "duration": 0.1323,
      "velocity": 91,
      "chip": "ym2612"
    },
    {
      "channel": 2,
      "note": 59,
      "start": 72.3628,
      "duration": 0.1323,
      "velocity": 88,
      "chip": "ym2612"
    },
    {
      "channel": 0,
      "note": 80,
      "start": 72.4303,
      "duration": 0.1327,
      "velocity": 97,
      "chip": "ym2612"
    },
    {
      "channel": 1,
      "note": 67,
      "start": 72.4306,
      "duration": 0.1327,
      "velocity": 91,
      "chip": "ym2612"
    },
    {
      "channel": 2,
      "note": 67,
      "start": 72.4952,
      "duration": 0.1327,
      "velocity": 88,
      "chip": "ym2612"
    },
    {
      "channel": 0,
      "note": 78,
      "start": 72.5631,
      "duration": 0.1323,
      "velocity": 86,
      "chip": "ym2612"
    },
    {
      "channel": 1,
      "note": 61,
      "start": 72.5634,
      "duration": 0.1323,
      "velocity": 91,
      "chip": "ym2612"
    },
    {
      "channel": 2,
      "note": 61,
      "start": 72.628,
      "duration": 0.1319,
      "velocity": 88,
      "chip": "ym2612"
    },
    {
      "channel": 0,
      "note": 75,
      "start": 72.6955,
      "duration": 0.1322,
      "velocity": 97,
      "chip": "ym2612"
    },
    {
      "channel": 1,
      "note": 65,
      "start": 72.6959,
      "duration": 0.1322,
      "velocity": 91,
      "chip": "ym2612"
    },
    {
      "channel": 2,
      "note": 65,
      "start": 72.76,
      "duration": 0.1323,
      "velocity": 88,
      "chip": "ym2612"
    },
    {
      "channel": 0,
      "note": 75,
      "start": 72.8279,
      "duration": 0.1319,
      "velocity": 86,
      "chip": "ym2612"
    },
    {
      "channel": 1,
      "note": 59,
      "start": 72.8282,
      "duration": 0.1319,
      "velocity": 91,
      "chip": "ym2612"
    },
    {
      "channel": 2,
      "note": 59,
      "start": 72.8925,
      "duration": 0.1322,
      "velocity": 88,
      "chip": "ym2612"
    },
    {
      "channel": 0,
      "note": 78,
      "start": 72.96,
      "duration": 0.1322,
      "velocity": 97,
      "chip": "ym2612"
    },
    {
      "channel": 1,
      "note": 63,
      "start": 72.9603,
      "duration": 0.1323,
      "velocity": 91,
      "chip": "ym2612"
    },
    {
      "channel": 2,
      "note": 63,
      "start": 73.0249,
      "duration": 0.1323,
      "velocity": 88,
      "chip": "ym2612"
    },
    {
      "channel": 0,
      "note": 85,
      "start": 73.0924,
      "duration": 0.1323,
      "velocity": 86,
      "chip": "ym2612"
    },
    {
      "channel": 1,
      "note": 61,
      "start": 73.0927,
      "duration": 0.1323,
      "velocity": 91,
      "chip": "ym2612"
    },
    {
      "channel": 3,
      "note": 27,
      "start": 73.093,
      "duration": 3.1779,
      "velocity": 106,
      "chip": "ym2612"
    },
    {
      "channel": 2,
      "note": 61,
      "start": 73.1573,
      "duration": 0.1322,
      "velocity": 88,
      "chip": "ym2612"
    },
    {
      "channel": 0,
      "note": 75,
      "start": 73.2248,
      "duration": 0.1323,
      "velocity": 97,
      "chip": "ym2612"
    },
    {
      "channel": 1,
      "note": 67,
      "start": 73.2251,
      "duration": 0.1323,
      "velocity": 91,
      "chip": "ym2612"
    },
    {
      "channel": 2,
      "note": 67,
      "start": 73.2897,
      "duration": 0.1323,
      "velocity": 88,
      "chip": "ym2612"
    },
    {
      "channel": 0,
      "note": 75,
      "start": 73.3572,
      "duration": 0.1322,
      "velocity": 86,
      "chip": "ym2612"
    },
    {
      "channel": 1,
      "note": 59,
      "start": 73.3576,
      "duration": 0.1323,
      "velocity": 91,
      "chip": "ym2612"
    },
    {
      "channel": 2,
      "note": 59,
      "start": 73.4221,
      "duration": 0.1323,
      "velocity": 88,
      "chip": "ym2612"
    },
    {
      "channel": 0,
      "note": 85,
      "start": 73.4896,
      "duration": 0.1323,
      "velocity": 97,
      "chip": "ym2612"
    },
    {
      "channel": 1,
      "note": 65,
      "start": 73.49,
      "duration": 0.1322,
      "velocity": 91,
      "chip": "ym2612"
    },
    {
      "channel": 2,
      "note": 65,
      "start": 73.5546,
      "duration": 0.1322,
      "velocity": 88,
      "chip": "ym2612"
    },
    {
      "channel": 0,
      "note": 80,
      "start": 73.6221,
      "duration": 0.1323,
      "velocity": 86,
      "chip": "ym2612"
    },
    {
      "channel": 1,
      "note": 61,
      "start": 73.6224,
      "duration": 0.1323,
      "velocity": 91,
      "chip": "ym2612"
    },
    {
      "channel": 2,
      "note": 61,
      "start": 73.6869,
      "duration": 0.1323,
      "velocity": 88,
      "chip": "ym2612"
    },
    {
      "channel": 0,
      "note": 75,
      "start": 73.7545,
      "duration": 0.1323,
      "velocity": 97,
      "chip": "ym2612"
    },
    {
      "channel": 1,
      "note": 63,
      "start": 73.7548,
      "duration": 0.1323,
      "velocity": 91,
      "chip": "ym2612"
    },
    {
      "channel": 2,
      "note": 63,
      "start": 73.8194,
      "duration": 0.1322,
      "velocity": 88,
      "chip": "ym2612"
    },
    {
      "channel": 0,
      "note": 75,
      "start": 73.8869,
      "duration": 0.1323,
      "velocity": 86,
      "chip": "ym2612"
    },
    {
      "channel": 1,
      "note": 59,
      "start": 73.8872,
      "duration": 0.1323,
      "velocity": 91,
      "chip": "ym2612"
    },
    {
      "channel": 2,
      "note": 59,
      "start": 73.9518,
      "duration": 0.1322,
      "velocity": 88,
      "chip": "ym2612"
    },
    {
      "channel": 0,
      "note": 80,
      "start": 74.0193,
      "duration": 0.1322,
      "velocity": 97,
      "chip": "ym2612"
    },
    {
      "channel": 1,
      "note": 67,
      "start": 74.0196,
      "duration": 0.1323,
      "velocity": 91,
      "chip": "ym2612"
    },
    {
      "channel": 2,
      "note": 67,
      "start": 74.0842,
      "duration": 0.1323,
      "velocity": 88,
      "chip": "ym2612"
    },
    {
      "channel": 0,
      "note": 78,
      "start": 74.1517,
      "duration": 0.1323,
      "velocity": 86,
      "chip": "ym2612"
    },
    {
      "channel": 1,
      "note": 61,
      "start": 74.1521,
      "duration": 0.1322,
      "velocity": 91,
      "chip": "ym2612"
    },
    {
      "channel": 2,
      "note": 61,
      "start": 74.2166,
      "duration": 0.1323,
      "velocity": 88,
      "chip": "ym2612"
    },
    {
      "channel": 0,
      "note": 75,
      "start": 74.2841,
      "duration": 0.1323,
      "velocity": 97,
      "chip": "ym2612"
    },
    {
      "channel": 1,
      "note": 65,
      "start": 74.2845,
      "duration": 0.1323,
      "velocity": 91,
      "chip": "ym2612"
    },
    {
      "channel": 2,
      "note": 65,
      "start": 74.3491,
      "duration": 0.1322,
      "velocity": 88,
      "chip": "ym2612"
    },
    {
      "channel": 0,
      "note": 75,
      "start": 74.4166,
      "duration": 0.1323,
      "velocity": 86,
      "chip": "ym2612"
    },
    {
      "channel": 1,
      "note": 59,
      "start": 74.4169,
      "duration": 0.1323,
      "velocity": 91,
      "chip": "ym2612"
    },
    {
      "channel": 2,
      "note": 59,
      "start": 74.4815,
      "duration": 0.1323,
      "velocity": 88,
      "chip": "ym2612"
    },
    {
      "channel": 0,
      "note": 78,
      "start": 74.549,
      "duration": 0.1322,
      "velocity": 97,
      "chip": "ym2612"
    },
    {
      "channel": 1,
      "note": 63,
      "start": 74.5493,
      "duration": 0.1322,
      "velocity": 91,
      "chip": "ym2612"
    },
    {
      "channel": 2,
      "note": 63,
      "start": 74.6139,
      "duration": 0.1322,
      "velocity": 88,
      "chip": "ym2612"
    },
    {
      "channel": 0,
      "note": 85,
      "start": 74.6814,
      "duration": 0.1323,
      "velocity": 86,
      "chip": "ym2612"
    },
    {
      "channel": 1,
      "note": 61,
      "start": 74.6817,
      "duration": 0.1323,
      "velocity": 91,
      "chip": "ym2612"
    },
    {
      "channel": 2,
      "note": 61,
      "start": 74.7463,
      "duration": 0.1323,
      "velocity": 88,
      "chip": "ym2612"
    },
    {
      "channel": 0,
      "note": 75,
      "start": 74.8139,
      "duration": 0.1324,
      "velocity": 97,
      "chip": "ym2612"
    },
    {
      "channel": 1,
      "note": 67,
      "start": 74.8142,
      "duration": 0.1324,
      "velocity": 91,
      "chip": "ym2612"
    },
    {
      "channel": 2,
      "note": 67,
      "start": 74.8787,
      "duration": 0.1327,
      "velocity": 88,
      "chip": "ym2612"
    },
    {
      "channel": 0,
      "note": 75,
      "start": 74.9464,
      "duration": 0.1325,
      "velocity": 86,
      "chip": "ym2612"
    },
    {
      "channel": 1,
      "note": 59,
      "start": 74.9467,
      "duration": 0.1325,
      "velocity": 91,
      "chip": "ym2612"
    },
    {
      "channel": 2,
      "note": 59,
      "start": 75.0116,
      "duration": 0.1319,
      "velocity": 88,
      "chip": "ym2612"
    },
    {
      "channel": 0,
      "note": 85,
      "start": 75.079,
      "duration": 0.1323,
      "velocity": 97,
      "chip": "ym2612"
    },
    {
      "channel": 1,
      "note": 65,
      "start": 75.0794,
      "duration": 0.1323,
      "velocity": 91,
      "chip": "ym2612"
    },
    {
      "channel": 2,
      "note": 65,
      "start": 75.1436,
      "duration": 0.1322,
      "velocity": 88,
      "chip": "ym2612"
    },
    {
      "channel": 0,
      "note": 80,
      "start": 75.2115,
      "duration": 0.1319,
      "velocity": 86,
      "chip": "ym2612"
    },
    {
      "channel": 1,
      "note": 61,
      "start": 75.2118,
      "duration": 0.1319,
      "velocity": 91,
      "chip": "ym2612"
    },
    {
      "channel": 2,
      "note": 61,
      "start": 75.276,
      "duration": 0.1323,
      "velocity": 88,
      "chip": "ym2612"
    },
    {
      "channel": 0,
      "note": 75,
      "start": 75.3435,
      "duration": 0.1323,
      "velocity": 97,
      "chip": "ym2612"
    },
    {
      "channel": 1,
      "note": 63,
      "start": 75.3439,
      "duration": 0.1322,
      "velocity": 91,
      "chip": "ym2612"
    },
    {
      "channel": 2,
      "note": 63,
      "start": 75.4084,
      "duration": 0.1323,
      "velocity": 88,
      "chip": "ym2612"
    },
    {
      "channel": 0,
      "note": 75,
      "start": 75.4759,
      "duration": 0.1323,
      "velocity": 86,
      "chip": "ym2612"
    },
    {
      "channel": 1,
      "note": 59,
      "start": 75.4763,
      "duration": 0.1323,
      "velocity": 91,
      "chip": "ym2612"
    },
    {
      "channel": 2,
      "note": 59,
      "start": 75.5408,
      "duration": 0.1323,
      "velocity": 88,
      "chip": "ym2612"
    },
    {
      "channel": 0,
      "note": 80,
      "start": 75.6084,
      "duration": 0.1322,
      "velocity": 97,
      "chip": "ym2612"
    },
    {
      "channel": 1,
      "note": 67,
      "start": 75.6087,
      "duration": 0.1323,
      "velocity": 91,
      "chip": "ym2612"
    },
    {
      "channel": 2,
      "note": 67,
      "start": 75.6733,
      "duration": 0.1322,
      "velocity": 88,
      "chip": "ym2612"
    },
    {
      "channel": 0,
      "note": 78,
      "start": 75.7407,
      "duration": 0.1323,
      "velocity": 86,
      "chip": "ym2612"
    },
    {
      "channel": 1,
      "note": 61,
      "start": 75.7411,
      "duration": 0.1323,
      "velocity": 91,
      "chip": "ym2612"
    },
    {
      "channel": 2,
      "note": 61,
      "start": 75.8057,
      "duration": 0.1322,
      "velocity": 88,
      "chip": "ym2612"
    },
    {
      "channel": 0,
      "note": 75,
      "start": 75.8732,
      "duration": 0.1323,
      "velocity": 97,
      "chip": "ym2612"
    },
    {
      "channel": 1,
      "note": 65,
      "start": 75.8735,
      "duration": 0.1323,
      "velocity": 91,
      "chip": "ym2612"
    },
    {
      "channel": 2,
      "note": 65,
      "start": 75.9381,
      "duration": 0.1323,
      "velocity": 88,
      "chip": "ym2612"
    },
    {
      "channel": 0,
      "note": 75,
      "start": 76.0056,
      "duration": 0.1322,
      "velocity": 86,
      "chip": "ym2612"
    },
    {
      "channel": 1,
      "note": 59,
      "start": 76.006,
      "duration": 0.1323,
      "velocity": 91,
      "chip": "ym2612"
    },
    {
      "channel": 2,
      "note": 59,
      "start": 76.0705,
      "duration": 0.1323,
      "velocity": 88,
      "chip": "ym2612"
    },
    {
      "channel": 0,
      "note": 78,
      "start": 76.138,
      "duration": 0.1323,
      "velocity": 97,
      "chip": "ym2612"
    },
    {
      "channel": 1,
      "note": 63,
      "start": 76.1384,
      "duration": 0.1322,
      "velocity": 91,
      "chip": "ym2612"
    },
    {
      "channel": 2,
      "note": 63,
      "start": 76.203,
      "duration": 0.1322,
      "velocity": 88,
      "chip": "ym2612"
    },
    {
      "channel": 0,
      "note": 85,
      "start": 76.2705,
      "duration": 0.1322,
      "velocity": 86,
      "chip": "ym2612"
    },
    {
      "channel": 1,
      "note": 61,
      "start": 76.2708,
      "duration": 0.1323,
      "velocity": 91,
      "chip": "ym2612"
    },
    {
      "channel": 3,
      "note": 27,
      "start": 76.2711,
      "duration": 3.178,
      "velocity": 106,
      "chip": "ym2612"
    },
    {
      "channel": 2,
      "note": 61,
      "start": 76.3354,
      "duration": 0.1323,
      "velocity": 88,
      "chip": "ym2612"
    },
    {
      "channel": 0,
      "note": 75,
      "start": 76.4028,
      "duration": 0.1323,
      "velocity": 97,
      "chip": "ym2612"
    },
    {
      "channel": 1,
      "note": 67,
      "start": 76.4032,
      "duration": 0.1323,
      "velocity": 91,
      "chip": "ym2612"
    },
    {
      "channel": 2,
      "note": 67,
      "start": 76.4678,
      "duration": 0.1322,
      "velocity": 88,
      "chip": "ym2612"
    },
    {
      "channel": 0,
      "note": 75,
      "start": 76.5353,
      "duration": 0.1323,
      "velocity": 86,
      "chip": "ym2612"
    },
    {
      "channel": 1,
      "note": 59,
      "start": 76.5356,
      "duration": 0.1323,
      "velocity": 91,
      "chip": "ym2612"
    },
    {
      "channel": 2,
      "note": 59,
      "start": 76.6002,
      "duration": 0.1323,
      "velocity": 88,
      "chip": "ym2612"
    },
    {
      "channel": 0,
      "note": 85,
      "start": 76.6677,
      "duration": 0.1322,
      "velocity": 97,
      "chip": "ym2612"
    },
    {
      "channel": 1,
      "note": 65,
      "start": 76.668,
      "duration": 0.1323,
      "velocity": 91,
      "chip": "ym2612"
    },
    {
      "channel": 2,
      "note": 65,
      "start": 76.7326,
      "duration": 0.1323,
      "velocity": 88,
      "chip": "ym2612"
    },
    {
      "channel": 0,
      "note": 80,
      "start": 76.8001,
      "duration": 0.1323,
      "velocity": 86,
      "chip": "ym2612"
    },
    {
      "channel": 1,
      "note": 61,
      "start": 76.8005,
      "duration": 0.1322,
      "velocity": 91,
      "chip": "ym2612"
    },
    {
      "channel": 2,
      "note": 61,
      "start": 76.8651,
      "duration": 0.1322,
      "velocity": 88,
      "chip": "ym2612"
    },
    {
      "channel": 0,
      "note": 75,
      "start": 76.9326,
      "duration": 0.1323,
      "velocity": 97,
      "chip": "ym2612"
    },
    {
      "channel": 1,
      "note": 63,
      "start": 76.9329,
      "duration": 0.1323,
      "velocity": 91,
      "chip": "ym2612"
    },
    {
      "channel": 2,
      "note": 63,
      "start": 76.9974,
      "duration": 0.1323,
      "velocity": 88,
      "chip": "ym2612"
    },
    {
      "channel": 0,
      "note": 75,
      "start": 77.065,
      "duration": 0.1323,
      "velocity": 86,
      "chip": "ym2612"
    },
    {
      "channel": 1,
      "note": 59,
      "start": 77.0653,
      "duration": 0.1323,
      "velocity": 91,
      "chip": "ym2612"
    },
    {
      "channel": 2,
      "note": 59,
      "start": 77.1299,
      "duration": 0.1323,
      "velocity": 88,
      "chip": "ym2612"
    },
    {
      "channel": 0,
      "note": 80,
      "start": 77.1974,
      "duration": 0.1323,
      "velocity": 97,
      "chip": "ym2612"
    },
    {
      "channel": 1,
      "note": 67,
      "start": 77.1978,
      "duration": 0.1322,
      "velocity": 91,
      "chip": "ym2612"
    },
    {
      "channel": 2,
      "note": 67,
      "start": 77.2623,
      "duration": 0.1327,
      "velocity": 88,
      "chip": "ym2612"
    },
    {
      "channel": 0,
      "note": 78,
      "start": 77.3298,
      "duration": 0.1327,
      "velocity": 86,
      "chip": "ym2612"
    },
    {
      "channel": 1,
      "note": 61,
      "start": 77.3301,
      "duration": 0.1327,
      "velocity": 91,
      "chip": "ym2612"
    },
    {
      "channel": 2,
      "note": 61,
      "start": 77.3951,
      "duration": 0.1319,
      "velocity": 88,
      "chip": "ym2612"
    },
    {
      "channel": 0,
      "note": 75,
      "start": 77.4626,
      "duration": 0.1323,
      "velocity": 97,
      "chip": "ym2612"
    },
    {
      "channel": 1,
      "note": 65,
      "start": 77.4629,
      "duration": 0.1323,
      "velocity": 91,
      "chip": "ym2612"
    },
    {
      "channel": 2,
      "note": 65,
      "start": 77.5271,
      "duration": 0.1322,
      "velocity": 88,
      "chip": "ym2612"
    },
    {
      "channel": 0,
      "note": 75,
      "start": 77.5951,
      "duration": 0.1319,
      "velocity": 86,
      "chip": "ym2612"
    },
    {
      "channel": 1,
      "note": 59,
      "start": 77.5954,
      "duration": 0.1319,
      "velocity": 91,
      "chip": "ym2612"
    },
    {
      "channel": 2,
      "note": 59,
      "start": 77.6596,
      "duration": 0.1322,
      "velocity": 88,
      "chip": "ym2612"
    },
    {
      "channel": 0,
      "note": 78,
      "start": 77.7271,
      "duration": 0.1323,
      "velocity": 97,
      "chip": "ym2612"
    },
    {
      "channel": 1,
      "note": 63,
      "start": 77.7278,
      "duration": 0.1319,
      "velocity": 91,
      "chip": "ym2612"
    },
    {
      "channel": 2,
      "note": 63,
      "start": 77.792,
      "duration": 0.1323,
      "velocity": 88,
      "chip": "ym2612"
    },
    {
      "channel": 0,
      "note": 85,
      "start": 77.8595,
      "duration": 0.1322,
      "velocity": 86,
      "chip": "ym2612"
    },
    {
      "channel": 1,
      "note": 61,
      "start": 77.8598,
      "duration": 0.1322,
      "velocity": 91,
      "chip": "ym2612"
    },
    {
      "channel": 2,
      "note": 61,
      "start": 77.9244,
      "duration": 0.1323,
      "velocity": 88,
      "chip": "ym2612"
    },
    {
      "channel": 0,
      "note": 75,
      "start": 77.9919,
      "duration": 0.1323,
      "velocity": 97,
      "chip": "ym2612"
    },
    {
      "channel": 1,
      "note": 67,
      "start": 77.9922,
      "duration": 0.1323,
      "velocity": 91,
      "chip": "ym2612"
    },
    {
      "channel": 2,
      "note": 67,
      "start": 78.0568,
      "duration": 0.1322,
      "velocity": 88,
      "chip": "ym2612"
    },
    {
      "channel": 0,
      "note": 75,
      "start": 78.1244,
      "duration": 0.1323,
      "velocity": 86,
      "chip": "ym2612"
    },
    {
      "channel": 1,
      "note": 59,
      "start": 78.1247,
      "duration": 0.1323,
      "velocity": 91,
      "chip": "ym2612"
    },
    {
      "channel": 2,
      "note": 59,
      "start": 78.1892,
      "duration": 0.1323,
      "velocity": 88,
      "chip": "ym2612"
    },
    {
      "channel": 0,
      "note": 85,
      "start": 78.2568,
      "duration": 0.1323,
      "velocity": 97,
      "chip": "ym2612"
    },
    {
      "channel": 1,
      "note": 65,
      "start": 78.2571,
      "duration": 0.1323,
      "velocity": 91,
      "chip": "ym2612"
    },
    {
      "channel": 2,
      "note": 65,
      "start": 78.3217,
      "duration": 0.1322,
      "velocity": 88,
      "chip": "ym2612"
    },
    {
      "channel": 0,
      "note": 80,
      "start": 78.3892,
      "duration": 0.1323,
      "velocity": 86,
      "chip": "ym2612"
    },
    {
      "channel": 1,
      "note": 61,
      "start": 78.3895,
      "duration": 0.1323,
      "velocity": 91,
      "chip": "ym2612"
    },
    {
      "channel": 2,
      "note": 61,
      "start": 78.4541,
      "duration": 0.1322,
      "velocity": 88,
      "chip": "ym2612"
    },
    {
      "channel": 0,
      "note": 75,
      "start": 78.5216,
      "duration": 0.1322,
      "velocity": 97,
      "chip": "ym2612"
    },
    {
      "channel": 1,
      "note": 63,
      "start": 78.5219,
      "duration": 0.1323,
      "velocity": 91,
      "chip": "ym2612"
    },
    {
      "channel": 2,
      "note": 63,
      "start": 78.5865,
      "duration": 0.1323,
      "velocity": 88,
      "chip": "ym2612"
    },
    {
      "channel": 0,
      "note": 75,
      "start": 78.654,
      "duration": 0.1323,
      "velocity": 86,
      "chip": "ym2612"
    },
    {
      "channel": 1,
      "note": 59,
      "start": 78.6544,
      "duration": 0.1322,
      "velocity": 91,
      "chip": "ym2612"
    },
    {
      "channel": 2,
      "note": 59,
      "start": 78.7189,
      "duration": 0.1323,
      "velocity": 88,
      "chip": "ym2612"
    },
    {
      "channel": 0,
      "note": 80,
      "start": 78.7864,
      "duration": 0.1323,
      "velocity": 97,
      "chip": "ym2612"
    },
    {
      "channel": 1,
      "note": 67,
      "start": 78.7868,
      "duration": 0.1323,
      "velocity": 91,
      "chip": "ym2612"
    },
    {
      "channel": 2,
      "note": 67,
      "start": 78.8514,
      "duration": 0.1322,
      "velocity": 88,
      "chip": "ym2612"
    },
    {
      "channel": 0,
      "note": 78,
      "start": 78.9189,
      "duration": 0.1323,
      "velocity": 86,
      "chip": "ym2612"
    },
    {
      "channel": 1,
      "note": 61,
      "start": 78.9192,
      "duration": 0.1323,
      "velocity": 91,
      "chip": "ym2612"
    },
    {
      "channel": 2,
      "note": 61,
      "start": 78.9838,
      "duration": 0.1323,
      "velocity": 88,
      "chip": "ym2612"
    },
    {
      "channel": 0,
      "note": 75,
      "start": 79.0512,
      "duration": 0.1323,
      "velocity": 97,
      "chip": "ym2612"
    },
    {
      "channel": 1,
      "note": 65,
      "start": 79.0516,
      "duration": 0.1322,
      "velocity": 91,
      "chip": "ym2612"
    },
    {
      "channel": 2,
      "note": 65,
      "start": 79.1162,
      "duration": 0.1322,
      "velocity": 88,
      "chip": "ym2612"
    },
    {
      "channel": 0,
      "note": 75,
      "start": 79.1837,
      "duration": 0.1323,
      "velocity": 86,
      "chip": "ym2612"
    },
    {
      "channel": 1,
      "note": 59,
      "start": 79.184,
      "duration": 0.1323,
      "velocity": 91,
      "chip": "ym2612"
    },
    {
      "channel": 2,
      "note": 59,
      "start": 79.2486,
      "duration": 0.1323,
      "velocity": 88,
      "chip": "ym2612"
    },
    {
      "channel": 0,
      "note": 78,
      "start": 79.3161,
      "duration": 0.1322,
      "velocity": 97,
      "chip": "ym2612"
    },
    {
      "channel": 1,
      "note": 63,
      "start": 79.3165,
      "duration": 0.1323,
      "velocity": 91,
      "chip": "ym2612"
    },
    {
      "channel": 2,
      "note": 63,
      "start": 79.381,
      "duration": 0.1323,
      "velocity": 88,
      "chip": "ym2612"
    },
    {
      "channel": 0,
      "note": 85,
      "start": 79.4485,
      "duration": 0.1323,
      "velocity": 86,
      "chip": "ym2612"
    },
    {
      "channel": 1,
      "note": 61,
      "start": 79.4489,
      "duration": 0.1322,
      "velocity": 91,
      "chip": "ym2612"
    },
    {
      "channel": 3,
      "note": 27,
      "start": 79.4492,
      "duration": 3.1779,
      "velocity": 106,
      "chip": "ym2612"
    },
    {
      "channel": 2,
      "note": 61,
      "start": 79.5135,
      "duration": 0.1322,
      "velocity": 88,
      "chip": "ym2612"
    },
    {
      "channel": 0,
      "note": 75,
      "start": 79.581,
      "duration": 0.1323,
      "velocity": 97,
      "chip": "ym2612"
    },
    {
      "channel": 1,
      "note": 67,
      "start": 79.5813,
      "duration": 0.1323,
      "velocity": 91,
      "chip": "ym2612"
    },
    {
      "channel": 2,
      "note": 67,
      "start": 79.6459,
      "duration": 0.1324,
      "velocity": 88,
      "chip": "ym2612"
    },
    {
      "channel": 0,
      "note": 75,
      "start": 79.7134,
      "duration": 0.1326,
      "velocity": 86,
      "chip": "ym2612"
    },
    {
      "channel": 1,
      "note": 59,
      "start": 79.7137,
      "duration": 0.1327,
      "velocity": 91,
      "chip": "ym2612"
    },
    {
      "channel": 2,
      "note": 59,
      "start": 79.7784,
      "duration": 0.1321,
      "velocity": 88,
      "chip": "ym2612"
    },
    {
      "channel": 0,
      "note": 85,
      "start": 79.8462,
      "duration": 0.1322,
      "velocity": 97,
      "chip": "ym2612"
    },
    {
      "channel": 1,
      "note": 65,
      "start": 79.8466,
      "duration": 0.1322,
      "velocity": 91,
      "chip": "ym2612"
    },
    {
      "channel": 2,
      "note": 65,
      "start": 79.9111,
      "duration": 0.1319,
      "velocity": 88,
      "chip": "ym2612"
    },
    {
      "channel": 0,
      "note": 80,
      "start": 79.9786,
      "duration": 0.1319,
      "velocity": 86,
      "chip": "ym2612"
    },
    {
      "channel": 1,
      "note": 61,
      "start": 79.9789,
      "duration": 0.1323,
      "velocity": 91,
      "chip": "ym2612"
    },
    {
      "channel": 2,
      "note": 61,
      "start": 80.0431,
      "duration": 0.1323,
      "velocity": 88,
      "chip": "ym2612"
    },
    {
      "channel": 0,
      "note": 75,
      "start": 80.111,
      "duration": 0.1319,
      "velocity": 97,
      "chip": "ym2612"
    },
    {
      "channel": 1,
      "note": 63,
      "start": 80.1114,
      "duration": 0.1319,
      "velocity": 91,
      "chip": "ym2612"
    },
    {
      "channel": 2,
      "note": 63,
      "start": 80.1756,
      "duration": 0.1322,
      "velocity": 88,
      "chip": "ym2612"
    },
    {
      "channel": 0,
      "note": 75,
      "start": 80.243,
      "duration": 0.1323,
      "velocity": 86,
      "chip": "ym2612"
    },
    {
      "channel": 1,
      "note": 59,
      "start": 80.2434,
      "duration": 0.1323,
      "velocity": 91,
      "chip": "ym2612"
    },
    {
      "channel": 2,
      "note": 59,
      "start": 80.3079,
      "duration": 0.1323,
      "velocity": 88,
      "chip": "ym2612"
    },
    {
      "channel": 0,
      "note": 80,
      "start": 80.3755,
      "duration": 0.1322,
      "velocity": 97,
      "chip": "ym2612"
    },
    {
      "channel": 1,
      "note": 67,
      "start": 80.3758,
      "duration": 0.1323,
      "velocity": 91,
      "chip": "ym2612"
    },
    {
      "channel": 2,
      "note": 67,
      "start": 80.4404,
      "duration": 0.1323,
      "velocity": 88,
      "chip": "ym2612"
    },
    {
      "channel": 0,
      "note": 78,
      "start": 80.5079,
      "duration": 0.1323,
      "velocity": 86,
      "chip": "ym2612"
    },
    {
      "channel": 1,
      "note": 61,
      "start": 80.5083,
      "duration": 0.1322,
      "velocity": 91,
      "chip": "ym2612"
    },
    {
      "channel": 2,
      "note": 61,
      "start": 80.5728,
      "duration": 0.1323,
      "velocity": 88,
      "chip": "ym2612"
    },
    {
      "channel": 0,
      "note": 75,
      "start": 80.6403,
      "duration": 0.1323,
      "velocity": 97,
      "chip": "ym2612"
    },
    {
      "channel": 1,
      "note": 65,
      "start": 80.6406,
      "duration": 0.1323,
      "velocity": 91,
      "chip": "ym2612"
    },
    {
      "channel": 2,
      "note": 65,
      "start": 80.7053,
      "duration": 0.1322,
      "velocity": 88,
      "chip": "ym2612"
    },
    {
      "channel": 0,
      "note": 75,
      "start": 80.7728,
      "duration": 0.1322,
      "velocity": 86,
      "chip": "ym2612"
    },
    {
      "channel": 1,
      "note": 59,
      "start": 80.7731,
      "duration": 0.1323,
      "velocity": 91,
      "chip": "ym2612"
    },
    {
      "channel": 2,
      "note": 59,
      "start": 80.8376,
      "duration": 0.1323,
      "velocity": 88,
      "chip": "ym2612"
    },
    {
      "channel": 0,
      "note": 78,
      "start": 80.9051,
      "duration": 0.1323,
      "velocity": 97,
      "chip": "ym2612"
    },
    {
      "channel": 1,
      "note": 63,
      "start": 80.9055,
      "duration": 0.1323,
      "velocity": 91,
      "chip": "ym2612"
    },
    {
      "channel": 2,
      "note": 63,
      "start": 80.9701,
      "duration": 0.1322,
      "velocity": 88,
      "chip": "ym2612"
    },
    {
      "channel": 0,
      "note": 85,
      "start": 81.0376,
      "duration": 0.1323,
      "velocity": 86,
      "chip": "ym2612"
    },
    {
      "channel": 1,
      "note": 61,
      "start": 81.0379,
      "duration": 0.1323,
      "velocity": 91,
      "chip": "ym2612"
    },
    {
      "channel": 2,
      "note": 61,
      "start": 81.1025,
      "duration": 0.1323,
      "velocity": 88,
      "chip": "ym2612"
    },
    {
      "channel": 0,
      "note": 75,
      "start": 81.17,
      "duration": 0.1322,
      "velocity": 97,
      "chip": "ym2612"
    },
    {
      "channel": 1,
      "note": 67,
      "start": 81.1703,
      "duration": 0.1323,
      "velocity": 91,
      "chip": "ym2612"
    },
    {
      "channel": 2,
      "note": 67,
      "start": 81.2349,
      "duration": 0.1323,
      "velocity": 88,
      "chip": "ym2612"
    },
    {
      "channel": 0,
      "note": 75,
      "start": 81.3024,
      "duration": 0.1323,
      "velocity": 86,
      "chip": "ym2612"
    },
    {
      "channel": 1,
      "note": 59,
      "start": 81.3028,
      "duration": 0.1322,
      "velocity": 91,
      "chip": "ym2612"
    },
    {
      "channel": 2,
      "note": 59,
      "start": 81.3673,
      "duration": 0.1322,
      "velocity": 88,
      "chip": "ym2612"
    },
    {
      "channel": 0,
      "note": 85,
      "start": 81.4349,
      "duration": 0.1323,
      "velocity": 97,
      "chip": "ym2612"
    },
    {
      "channel": 1,
      "note": 65,
      "start": 81.4352,
      "duration": 0.1323,
      "velocity": 91,
      "chip": "ym2612"
    },
    {
      "channel": 2,
      "note": 65,
      "start": 81.4997,
      "duration": 0.1323,
      "velocity": 88,
      "chip": "ym2612"
    },
    {
      "channel": 0,
      "note": 80,
      "start": 81.5673,
      "duration": 0.1323,
      "velocity": 86,
      "chip": "ym2612"
    },
    {
      "channel": 1,
      "note": 61,
      "start": 81.5676,
      "duration": 0.1323,
      "velocity": 91,
      "chip": "ym2612"
    },
    {
      "channel": 2,
      "note": 61,
      "start": 81.6322,
      "duration": 0.1322,
      "velocity": 88,
      "chip": "ym2612"
    },
    {
      "channel": 0,
      "note": 75,
      "start": 81.6997,
      "duration": 0.1323,
      "velocity": 97,
      "chip": "ym2612"
    },
    {
      "channel": 1,
      "note": 63,
      "start": 81.7,
      "duration": 0.1323,
      "velocity": 91,
      "chip": "ym2612"
    },
    {
      "channel": 2,
      "note": 63,
      "start": 81.7646,
      "duration": 0.1323,
      "velocity": 88,
      "chip": "ym2612"
    },
    {
      "channel": 0,
      "note": 75,
      "start": 81.8321,
      "duration": 0.1322,
      "velocity": 86,
      "chip": "ym2612"
    },
    {
      "channel": 1,
      "note": 59,
      "start": 81.8324,
      "duration": 0.1323,
      "velocity": 91,
      "chip": "ym2612"
    },
    {
      "channel": 2,
      "note": 59,
      "start": 81.897,
      "duration": 0.1323,
      "velocity": 88,
      "chip": "ym2612"
    },
    {
      "channel": 0,
      "note": 80,
      "start": 81.9645,
      "duration": 0.1323,
      "velocity": 97,
      "chip": "ym2612"
    },
    {
      "channel": 1,
      "note": 67,
      "start": 81.9649,
      "duration": 0.1322,
      "velocity": 91,
      "chip": "ym2612"
    },
    {
      "channel": 2,
      "note": 67,
      "start": 82.0294,
      "duration": 0.1322,
      "velocity": 88,
      "chip": "ym2612"
    },
    {
      "channel": 0,
      "note": 78,
      "start": 82.0969,
      "duration": 0.1327,
      "velocity": 86,
      "chip": "ym2612"
    },
    {
      "channel": 1,
      "note": 61,
      "start": 82.0973,
      "duration": 0.1327,
      "velocity": 91,
      "chip": "ym2612"
    },
    {
      "channel": 2,
      "note": 61,
      "start": 82.1619,
      "duration": 0.1326,
      "velocity": 88,
      "chip": "ym2612"
    },
    {
      "channel": 0,
      "note": 75,
      "start": 82.2298,
      "duration": 0.1323,
      "velocity": 97,
      "chip": "ym2612"
    },
    {
      "channel": 1,
      "note": 65,
      "start": 82.2301,
      "duration": 0.1323,
      "velocity": 91,
      "chip": "ym2612"
    },
    {
      "channel": 2,
      "note": 65,
      "start": 82.2946,
      "duration": 0.1319,
      "velocity": 88,
      "chip": "ym2612"
    },
    {
      "channel": 0,
      "note": 75,
      "start": 82.3622,
      "duration": 0.1322,
      "velocity": 86,
      "chip": "ym2612"
    },
    {
      "channel": 1,
      "note": 59,
      "start": 82.3625,
      "duration": 0.1322,
      "velocity": 91,
      "chip": "ym2612"
    },
    {
      "channel": 2,
      "note": 59,
      "start": 82.4267,
      "duration": 0.1323,
      "velocity": 88,
      "chip": "ym2612"
    },
    {
      "channel": 0,
      "note": 78,
      "start": 82.4946,
      "duration": 0.1319,
      "velocity": 97,
      "chip": "ym2612"
    },
    {
      "channel": 1,
      "note": 63,
      "start": 82.4949,
      "duration": 0.1319,
      "velocity": 91,
      "chip": "ym2612"
    },
    {
      "channel": 2,
      "note": 63,
      "start": 82.5591,
      "duration": 0.1323,
      "velocity": 88,
      "chip": "ym2612"
    },
    {
      "channel": 0,
      "note": 85,
      "start": 82.6266,
      "duration": 0.1322,
      "velocity": 86,
      "chip": "ym2612"
    },
    {
      "channel": 1,
      "note": 73,
      "start": 82.627,
      "duration": 0.1323,
      "velocity": 91,
      "chip": "ym2612"
    },
    {
      "channel": 3,
      "note": 27,
      "start": 82.6277,
      "duration": 3.1776,
      "velocity": 106,
      "chip": "ym2612"
    },
    {
      "channel": 2,
      "note": 73,
      "start": 82.6915,
      "duration": 0.1323,
      "velocity": 88,
      "chip": "ym2612"
    },
    {
      "channel": 0,
      "note": 75,
      "start": 82.759,
      "duration": 0.1323,
      "velocity": 97,
      "chip": "ym2612"
    },
    {
      "channel": 1,
      "note": 79,
      "start": 82.7594,
      "duration": 0.1323,
      "velocity": 91,
      "chip": "ym2612"
    },
    {
      "channel": 2,
      "note": 79,
      "start": 82.824,
      "duration": 0.1322,
      "velocity": 88,
      "chip": "ym2612"
    },
    {
      "channel": 0,
      "note": 75,
      "start": 82.8915,
      "duration": 0.1323,
      "velocity": 86,
      "chip": "ym2612"
    },
    {
      "channel": 1,
      "note": 71,
      "start": 82.8918,
      "duration": 0.1323,
      "velocity": 91,
      "chip": "ym2612"
    },
    {
      "channel": 2,
      "note": 71,
      "start": 82.9563,
      "duration": 0.1323,
      "velocity": 88,
      "chip": "ym2612"
    },
    {
      "channel": 0,
      "note": 85,
      "start": 83.0239,
      "duration": 0.1322,
      "velocity": 97,
      "chip": "ym2612"
    },
    {
      "channel": 1,
      "note": 77,
      "start": 83.0242,
      "duration": 0.1322,
      "velocity": 91,
      "chip": "ym2612"
    },
    {
      "channel": 2,
      "note": 77,
      "start": 83.0888,
      "duration": 0.1323,
      "velocity": 88,
      "chip": "ym2612"
    },
    {
      "channel": 0,
      "note": 80,
      "start": 83.1563,
      "duration": 0.1323,
      "velocity": 86,
      "chip": "ym2612"
    },
    {
      "channel": 1,
      "note": 73,
      "start": 83.1566,
      "duration": 0.1323,
      "velocity": 91,
      "chip": "ym2612"
    },
    {
      "channel": 2,
      "note": 73,
      "start": 83.2212,
      "duration": 0.1322,
      "velocity": 88,
      "chip": "ym2612"
    },
    {
      "channel": 0,
      "note": 75,
      "start": 83.2887,
      "duration": 0.1323,
      "velocity": 97,
      "chip": "ym2612"
    },
    {
      "channel": 1,
      "note": 75,
      "start": 83.289,
      "duration": 0.1323,
      "velocity": 91,
      "chip": "ym2612"
    },
    {
      "channel": 2,
      "note": 75,
      "start": 83.3536,
      "duration": 0.1323,
      "velocity": 88,
      "chip": "ym2612"
    },
    {
      "channel": 0,
      "note": 75,
      "start": 83.4212,
      "duration": 0.1323,
      "velocity": 86,
      "chip": "ym2612"
    },
    {
      "channel": 1,
      "note": 71,
      "start": 83.4215,
      "duration": 0.1323,
      "velocity": 91,
      "chip": "ym2612"
    },
    {
      "channel": 2,
      "note": 71,
      "start": 83.4861,
      "duration": 0.1323,
      "velocity": 88,
      "chip": "ym2612"
    },
    {
      "channel": 0,
      "note": 80,
      "start": 83.5535,
      "duration": 0.1323,
      "velocity": 97,
      "chip": "ym2612"
    },
    {
      "channel": 1,
      "note": 79,
      "start": 83.5539,
      "duration": 0.1322,
      "velocity": 91,
      "chip": "ym2612"
    },
    {
      "channel": 2,
      "note": 79,
      "start": 83.6185,
      "duration": 0.1322,
      "velocity": 88,
      "chip": "ym2612"
    },
    {
      "channel": 0,
      "note": 78,
      "start": 83.686,
      "duration": 0.1323,
      "velocity": 86,
      "chip": "ym2612"
    },
    {
      "channel": 1,
      "note": 73,
      "start": 83.6863,
      "duration": 0.1323,
      "velocity": 91,
      "chip": "ym2612"
    },
    {
      "channel": 2,
      "note": 73,
      "start": 83.7509,
      "duration": 0.1323,
      "velocity": 88,
      "chip": "ym2612"
    },
    {
      "channel": 0,
      "note": 75,
      "start": 83.8184,
      "duration": 0.1322,
      "velocity": 97,
      "chip": "ym2612"
    },
    {
      "channel": 1,
      "note": 77,
      "start": 83.8188,
      "duration": 0.1322,
      "velocity": 91,
      "chip": "ym2612"
    },
    {
      "channel": 2,
      "note": 77,
      "start": 83.8833,
      "duration": 0.1323,
      "velocity": 88,
      "chip": "ym2612"
    },
    {
      "channel": 0,
      "note": 75,
      "start": 83.9508,
      "duration": 0.1323,
      "velocity": 86,
      "chip": "ym2612"
    },
    {
      "channel": 1,
      "note": 71,
      "start": 83.9511,
      "duration": 0.1323,
      "velocity": 91,
      "chip": "ym2612"
    },
    {
      "channel": 2,
      "note": 71,
      "start": 84.0157,
      "duration": 0.1323,
      "velocity": 88,
      "chip": "ym2612"
    },
    {
      "channel": 0,
      "note": 78,
      "start": 84.0832,
      "duration": 0.1323,
      "velocity": 97,
      "chip": "ym2612"
    },
    {
      "channel": 1,
      "note": 75,
      "start": 84.0836,
      "duration": 0.1323,
      "velocity": 91,
      "chip": "ym2612"
    },
    {
      "channel": 2,
      "note": 75,
      "start": 84.1481,
      "duration": 0.1323,
      "velocity": 88,
      "chip": "ym2612"
    },
    {
      "channel": 0,
      "note": 85,
      "start": 84.2156,
      "duration": 0.1323,
      "velocity": 86,
      "chip": "ym2612"
    },
    {
      "channel": 1,
      "note": 73,
      "start": 84.216,
      "duration": 0.1322,
      "velocity": 91,
      "chip": "ym2612"
    },
    {
      "channel": 2,
      "note": 73,
      "start": 84.2806,
      "duration": 0.1322,
      "velocity": 88,
      "chip": "ym2612"
    },
    {
      "channel": 0,
      "note": 75,
      "start": 84.3481,
      "duration": 0.1323,
      "velocity": 97,
      "chip": "ym2612"
    },
    {
      "channel": 1,
      "note": 79,
      "start": 84.3484,
      "duration": 0.1323,
      "velocity": 91,
      "chip": "ym2612"
    },
    {
      "channel": 2,
      "note": 79,
      "start": 84.413,
      "duration": 0.1323,
      "velocity": 88,
      "chip": "ym2612"
    },
    {
      "channel": 0,
      "note": 75,
      "start": 84.4805,
      "duration": 0.1324,
      "velocity": 86,
      "chip": "ym2612"
    },
    {
      "channel": 1,
      "note": 71,
      "start": 84.4808,
      "duration": 0.1324,
      "velocity": 91,
      "chip": "ym2612"
    },
    {
      "channel": 2,
      "note": 71,
      "start": 84.5454,
      "duration": 0.1327,
      "velocity": 88,
      "chip": "ym2612"
    },
    {
      "channel": 0,
      "note": 85,
      "start": 84.6131,
      "duration": 0.1325,
      "velocity": 97,
      "chip": "ym2612"
    },
    {
      "channel": 1,
      "note": 77,
      "start": 84.6134,
      "duration": 0.1325,
      "velocity": 91,
      "chip": "ym2612"
    },
    {
      "channel": 2,
      "note": 77,
      "start": 84.6782,
      "duration": 0.1319,
      "velocity": 88,
      "chip": "ym2612"
    },
    {
      "channel": 0,
      "note": 80,
      "start": 84.7457,
      "duration": 0.1323,
      "velocity": 86,
      "chip": "ym2612"
    },
    {
      "channel": 1,
      "note": 73,
      "start": 84.746,
      "duration": 0.1323,
      "velocity": 91,
      "chip": "ym2612"
    },
    {
      "channel": 2,
      "note": 73,
      "start": 84.8102,
      "duration": 0.1323,
      "velocity": 88,
      "chip": "ym2612"
    },
    {
      "channel": 0,
      "note": 75,
      "start": 84.8782,
      "duration": 0.1319,
      "velocity": 97,
      "chip": "ym2612"
    },
    {
      "channel": 1,
      "note": 75,
      "start": 84.8785,
      "duration": 0.1319,
      "velocity": 91,
      "chip": "ym2612"
    },
    {
      "channel": 2,
      "note": 75,
      "start": 84.9427,
      "duration": 0.1322,
      "velocity": 88,
      "chip": "ym2612"
    },
    {
      "channel": 0,
      "note": 75,
      "start": 85.0102,
      "duration": 0.1323,
      "velocity": 86,
      "chip": "ym2612"
    },
    {
      "channel": 1,
      "note": 71,
      "start": 85.0105,
      "duration": 0.1322,
      "velocity": 91,
      "chip": "ym2612"
    },
    {
      "channel": 2,
      "note": 71,
      "start": 85.0751,
      "duration": 0.1323,
      "velocity": 88,
      "chip": "ym2612"
    },
    {
      "channel": 0,
      "note": 80,
      "start": 85.1426,
      "duration": 0.1322,
      "velocity": 97,
      "chip": "ym2612"
    },
    {
      "channel": 1,
      "note": 79,
      "start": 85.1429,
      "duration": 0.1323,
      "velocity": 91,
      "chip": "ym2612"
    },
    {
      "channel": 2,
      "note": 79,
      "start": 85.2075,
      "duration": 0.1323,
      "velocity": 88,
      "chip": "ym2612"
    },
    {
      "channel": 0,
      "note": 78,
      "start": 85.275,
      "duration": 0.1323,
      "velocity": 86,
      "chip": "ym2612"
    },
    {
      "channel": 1,
      "note": 73,
      "start": 85.2754,
      "duration": 0.1322,
      "velocity": 91,
      "chip": "ym2612"
    },
    {
      "channel": 2,
      "note": 73,
      "start": 85.3399,
      "duration": 0.1322,
      "velocity": 88,
      "chip": "ym2612"
    },
    {
      "channel": 0,
      "note": 75,
      "start": 85.4074,
      "duration": 0.1323,
      "velocity": 97,
      "chip": "ym2612"
    },
    {
      "channel": 1,
      "note": 77,
      "start": 85.4077,
      "duration": 0.1323,
      "velocity": 91,
      "chip": "ym2612"
    },
    {
      "channel": 2,
      "note": 77,
      "start": 85.4724,
      "duration": 0.1322,
      "velocity": 88,
      "chip": "ym2612"
    },
    {
      "channel": 0,
      "note": 75,
      "start": 85.5399,
      "duration": 0.1323,
      "velocity": 86,
      "chip": "ym2612"
    },
    {
      "channel": 1,
      "note": 71,
      "start": 85.5402,
      "duration": 0.1323,
      "velocity": 91,
      "chip": "ym2612"
    },
    {
      "channel": 2,
      "note": 71,
      "start": 85.6048,
      "duration": 0.1323,
      "velocity": 88,
      "chip": "ym2612"
    },
    {
      "channel": 0,
      "note": 78,
      "start": 85.6723,
      "duration": 0.1322,
      "velocity": 97,
      "chip": "ym2612"
    },
    {
      "channel": 1,
      "note": 75,
      "start": 85.6726,
      "duration": 0.1322,
      "velocity": 91,
      "chip": "ym2612"
    },
    {
      "channel": 2,
      "note": 75,
      "start": 85.7372,
      "duration": 0.1323,
      "velocity": 88,
      "chip": "ym2612"
    },
    {
      "channel": 0,
      "note": 85,
      "start": 85.8047,
      "duration": 0.1323,
      "velocity": 86,
      "chip": "ym2612"
    },
    {
      "channel": 1,
      "note": 73,
      "start": 85.805,
      "duration": 0.1323,
      "velocity": 91,
      "chip": "ym2612"
    },
    {
      "channel": 3,
      "note": 27,
      "start": 85.8054,
      "duration": 3.1779,
      "velocity": 106,
      "chip": "ym2612"
    },
    {
      "channel": 2,
      "note": 73,
      "start": 85.8696,
      "duration": 0.1322,
      "velocity": 88,
      "chip": "ym2612"
    },
    {
      "channel": 0,
      "note": 75,
      "start": 85.9371,
      "duration": 0.1322,
      "velocity": 97,
      "chip": "ym2612"
    },
    {
      "channel": 1,
      "note": 79,
      "start": 85.9375,
      "duration": 0.1323,
      "velocity": 91,
      "chip": "ym2612"
    },
    {
      "channel": 2,
      "note": 79,
      "start": 86.002,
      "duration": 0.1323,
      "velocity": 88,
      "chip": "ym2612"
    },
    {
      "channel": 0,
      "note": 75,
      "start": 86.0695,
      "duration": 0.1323,
      "velocity": 86,
      "chip": "ym2612"
    },
    {
      "channel": 1,
      "note": 71,
      "start": 86.0699,
      "duration": 0.1323,
      "velocity": 91,
      "chip": "ym2612"
    },
    {
      "channel": 2,
      "note": 71,
      "start": 86.1345,
      "duration": 0.1322,
      "velocity": 88,
      "chip": "ym2612"
    },
    {
      "channel": 0,
      "note": 85,
      "start": 86.202,
      "duration": 0.1323,
      "velocity": 97,
      "chip": "ym2612"
    },
    {
      "channel": 1,
      "note": 77,
      "start": 86.2023,
      "duration": 0.1323,
      "velocity": 91,
      "chip": "ym2612"
    },
    {
      "channel": 2,
      "note": 77,
      "start": 86.2669,
      "duration": 0.1323,
      "velocity": 88,
      "chip": "ym2612"
    },
    {
      "channel": 0,
      "note": 80,
      "start": 86.3344,
      "duration": 0.1322,
      "velocity": 86,
      "chip": "ym2612"
    },
    {
      "channel": 1,
      "note": 73,
      "start": 86.3347,
      "duration": 0.1323,
      "velocity": 91,
      "chip": "ym2612"
    },
    {
      "channel": 2,
      "note": 73,
      "start": 86.3993,
      "duration": 0.1323,
      "velocity": 88,
      "chip": "ym2612"
    },
    {
      "channel": 0,
      "note": 75,
      "start": 86.4668,
      "duration": 0.1323,
      "velocity": 97,
      "chip": "ym2612"
    },
    {
      "channel": 1,
      "note": 75,
      "start": 86.4672,
      "duration": 0.1322,
      "velocity": 91,
      "chip": "ym2612"
    },
    {
      "channel": 2,
      "note": 75,
      "start": 86.5317,
      "duration": 0.1322,
      "velocity": 88,
      "chip": "ym2612"
    },
    {
      "channel": 0,
      "note": 75,
      "start": 86.5992,
      "duration": 0.1323,
      "velocity": 86,
      "chip": "ym2612"
    },
    {
      "channel": 1,
      "note": 71,
      "start": 86.5995,
      "duration": 0.1323,
      "velocity": 91,
      "chip": "ym2612"
    },
    {
      "channel": 2,
      "note": 71,
      "start": 86.6641,
      "duration": 0.1323,
      "velocity": 88,
      "chip": "ym2612"
    },
    {
      "channel": 0,
      "note": 80,
      "start": 86.7317,
      "duration": 0.1323,
      "velocity": 97,
      "chip": "ym2612"
    },
    {
      "channel": 1,
      "note": 79,
      "start": 86.732,
      "duration": 0.1323,
      "velocity": 91,
      "chip": "ym2612"
    },
    {
      "channel": 2,
      "note": 79,
      "start": 86.7966,
      "duration": 0.1322,
      "velocity": 88,
      "chip": "ym2612"
    },
    {
      "channel": 0,
      "note": 78,
      "start": 86.864,
      "duration": 0.1323,
      "velocity": 86,
      "chip": "ym2612"
    },
    {
      "channel": 1,
      "note": 73,
      "start": 86.8644,
      "duration": 0.1322,
      "velocity": 91,
      "chip": "ym2612"
    },
    {
      "channel": 2,
      "note": 73,
      "start": 86.929,
      "duration": 0.1327,
      "velocity": 88,
      "chip": "ym2612"
    },
    {
      "channel": 0,
      "note": 75,
      "start": 86.9965,
      "duration": 0.1327,
      "velocity": 97,
      "chip": "ym2612"
    },
    {
      "channel": 1,
      "note": 77,
      "start": 86.9968,
      "duration": 0.1327,
      "velocity": 91,
      "chip": "ym2612"
    },
    {
      "channel": 2,
      "note": 77,
      "start": 87.0617,
      "duration": 0.1319,
      "velocity": 88,
      "chip": "ym2612"
    },
    {
      "channel": 0,
      "note": 75,
      "start": 87.1293,
      "duration": 0.1323,
      "velocity": 86,
      "chip": "ym2612"
    },
    {
      "channel": 1,
      "note": 71,
      "start": 87.1296,
      "duration": 0.1323,
      "velocity": 91,
      "chip": "ym2612"
    },
    {
      "channel": 2,
      "note": 71,
      "start": 87.1938,
      "duration": 0.1322,
      "velocity": 88,
      "chip": "ym2612"
    },
    {
      "channel": 0,
      "note": 78,
      "start": 87.2617,
      "duration": 0.1319,
      "velocity": 97,
      "chip": "ym2612"
    },
    {
      "channel": 1,
      "note": 75,
      "start": 87.2621,
      "duration": 0.1319,
      "velocity": 91,
      "chip": "ym2612"
    },
    {
      "channel": 2,
      "note": 75,
      "start": 87.3263,
      "duration": 0.1322,
      "velocity": 88,
      "chip": "ym2612"
    },
    {
      "channel": 0,
      "note": 85,
      "start": 87.3937,
      "duration": 0.1323,
      "velocity": 86,
      "chip": "ym2612"
    },
    {
      "channel": 1,
      "note": 73,
      "start": 87.3944,
      "duration": 0.1319,
      "velocity": 91,
      "chip": "ym2612"
    },
    {
      "channel": 2,
      "note": 73,
      "start": 87.4586,
      "duration": 0.1323,
      "velocity": 88,
      "chip": "ym2612"
    },
    {
      "channel": 0,
      "note": 75,
      "start": 87.5262,
      "duration": 0.1322,
      "velocity": 97,
      "chip": "ym2612"
    },
    {
      "channel": 1,
      "note": 79,
      "start": 87.5265,
      "duration": 0.1322,
      "velocity": 91,
      "chip": "ym2612"
    },
    {
      "channel": 2,
      "note": 79,
      "start": 87.5911,
      "duration": 0.1323,
      "velocity": 88,
      "chip": "ym2612"
    },
    {
      "channel": 0,
      "note": 75,
      "start": 87.6586,
      "duration": 0.1323,
      "velocity": 86,
      "chip": "ym2612"
    },
    {
      "channel": 1,
      "note": 71,
      "start": 87.6589,
      "duration": 0.1323,
      "velocity": 91,
      "chip": "ym2612"
    },
    {
      "channel": 2,
      "note": 71,
      "start": 87.7235,
      "duration": 0.1322,
      "velocity": 88,
      "chip": "ym2612"
    },
    {
      "channel": 0,
      "note": 85,
      "start": 87.791,
      "duration": 0.1322,
      "velocity": 97,
      "chip": "ym2612"
    },
    {
      "channel": 1,
      "note": 77,
      "start": 87.7913,
      "duration": 0.1323,
      "velocity": 91,
      "chip": "ym2612"
    },
    {
      "channel": 2,
      "note": 77,
      "start": 87.8559,
      "duration": 0.1323,
      "velocity": 88,
      "chip": "ym2612"
    },
    {
      "channel": 0,
      "note": 80,
      "start": 87.9234,
      "duration": 0.1323,
      "velocity": 86,
      "chip": "ym2612"
    },
    {
      "channel": 1,
      "note": 73,
      "start": 87.9238,
      "duration": 0.1323,
      "velocity": 91,
      "chip": "ym2612"
    },
    {
      "channel": 2,
      "note": 73,
      "start": 87.9883,
      "duration": 0.1322,
      "velocity": 88,
      "chip": "ym2612"
    },
    {
      "channel": 0,
      "note": 75,
      "start": 88.0558,
      "duration": 0.1323,
      "velocity": 97,
      "chip": "ym2612"
    },
    {
      "channel": 1,
      "note": 75,
      "start": 88.0561,
      "duration": 0.1323,
      "velocity": 91,
      "chip": "ym2612"
    },
    {
      "channel": 2,
      "note": 75,
      "start": 88.1208,
      "duration": 0.1322,
      "velocity": 88,
      "chip": "ym2612"
    },
    {
      "channel": 0,
      "note": 75,
      "start": 88.1883,
      "duration": 0.1322,
      "velocity": 86,
      "chip": "ym2612"
    },
    {
      "channel": 1,
      "note": 71,
      "start": 88.1886,
      "duration": 0.1323,
      "velocity": 91,
      "chip": "ym2612"
    },
    {
      "channel": 2,
      "note": 71,
      "start": 88.2532,
      "duration": 0.1323,
      "velocity": 88,
      "chip": "ym2612"
    },
    {
      "channel": 0,
      "note": 80,
      "start": 88.3207,
      "duration": 0.1323,
      "velocity": 97,
      "chip": "ym2612"
    },
    {
      "channel": 1,
      "note": 79,
      "start": 88.321,
      "duration": 0.1322,
      "velocity": 91,
      "chip": "ym2612"
    },
    {
      "channel": 2,
      "note": 79,
      "start": 88.3856,
      "duration": 0.1323,
      "velocity": 88,
      "chip": "ym2612"
    },
    {
      "channel": 0,
      "note": 78,
      "start": 88.4531,
      "duration": 0.1323,
      "velocity": 86,
      "chip": "ym2612"
    },
    {
      "channel": 1,
      "note": 73,
      "start": 88.4534,
      "duration": 0.1323,
      "velocity": 91,
      "chip": "ym2612"
    },
    {
      "channel": 2,
      "note": 73,
      "start": 88.518,
      "duration": 0.1323,
      "velocity": 88,
      "chip": "ym2612"
    },
    {
      "channel": 0,
      "note": 75,
      "start": 88.5855,
      "duration": 0.1323,
      "velocity": 97,
      "chip": "ym2612"
    },
    {
      "channel": 1,
      "note": 77,
      "start": 88.5859,
      "duration": 0.1323,
      "velocity": 91,
      "chip": "ym2612"
    },
    {
      "channel": 2,
      "note": 77,
      "start": 88.6504,
      "duration": 0.1322,
      "velocity": 88,
      "chip": "ym2612"
    },
    {
      "channel": 0,
      "note": 75,
      "start": 88.7179,
      "duration": 0.1323,
      "velocity": 86,
      "chip": "ym2612"
    },
    {
      "channel": 1,
      "note": 71,
      "start": 88.7182,
      "duration": 0.1323,
      "velocity": 91,
      "chip": "ym2612"
    },
    {
      "channel": 2,
      "note": 71,
      "start": 88.7829,
      "duration": 0.1322,
      "velocity": 88,
      "chip": "ym2612"
    },
    {
      "channel": 0,
      "note": 78,
      "start": 88.8504,
      "duration": 0.1323,
      "velocity": 97,
      "chip": "ym2612"
    },
    {
      "channel": 1,
      "note": 75,
      "start": 88.8507,
      "duration": 0.1323,
      "velocity": 91,
      "chip": "ym2612"
    },
    {
      "channel": 2,
      "note": 75,
      "start": 88.9152,
      "duration": 0.1323,
      "velocity": 88,
      "chip": "ym2612"
    },
    {
      "channel": 0,
      "note": 85,
      "start": 88.9828,
      "duration": 0.1322,
      "velocity": 86,
      "chip": "ym2612"
    },
    {
      "channel": 1,
      "note": 73,
      "start": 88.9831,
      "duration": 0.1322,
      "velocity": 91,
      "chip": "ym2612"
    },
    {
      "channel": 3,
      "note": 27,
      "start": 88.9834,
      "duration": 3.1784,
      "velocity": 106,
      "chip": "ym2612"
    },
    {
      "channel": 2,
      "note": 73,
      "start": 89.0477,
      "duration": 0.1323,
      "velocity": 88,
      "chip": "ym2612"
    },
    {
      "channel": 0,
      "note": 75,
      "start": 89.1152,
      "duration": 0.1323,
      "velocity": 97,
      "chip": "ym2612"
    },
    {
      "channel": 1,
      "note": 79,
      "start": 89.1155,
      "duration": 0.1323,
      "velocity": 91,
      "chip": "ym2612"
    },
    {
      "channel": 2,
      "note": 79,
      "start": 89.1801,
      "duration": 0.1322,
      "velocity": 88,
      "chip": "ym2612"
    },
    {
      "channel": 0,
      "note": 75,
      "start": 89.2476,
      "duration": 0.1323,
      "velocity": 86,
      "chip": "ym2612"
    },
    {
      "channel": 1,
      "note": 71,
      "start": 89.2479,
      "duration": 0.1323,
      "velocity": 91,
      "chip": "ym2612"
    },
    {
      "channel": 2,
      "note": 71,
      "start": 89.3125,
      "duration": 0.1324,
      "velocity": 88,
      "chip": "ym2612"
    },
    {
      "channel": 0,
      "note": 85,
      "start": 89.3801,
      "duration": 0.1326,
      "velocity": 97,
      "chip": "ym2612"
    },
    {
      "channel": 1,
      "note": 77,
      "start": 89.3804,
      "duration": 0.1327,
      "velocity": 91,
      "chip": "ym2612"
    },
    {
      "channel": 2,
      "note": 77,
      "start": 89.4451,
      "duration": 0.1321,
      "velocity": 88,
      "chip": "ym2612"
    },
    {
      "channel": 0,
      "note": 80,
      "start": 89.5129,
      "duration": 0.1322,
      "velocity": 86,
      "chip": "ym2612"
    },
    {
      "channel": 1,
      "note": 73,
      "start": 89.5132,
      "duration": 0.1322,
      "velocity": 91,
      "chip": "ym2612"
    },
    {
      "channel": 2,
      "note": 73,
      "start": 89.5778,
      "duration": 0.1319,
      "velocity": 88,
      "chip": "ym2612"
    },
    {
      "channel": 0,
      "note": 75,
      "start": 89.6453,
      "duration": 0.1319,
      "velocity": 97,
      "chip": "ym2612"
    },
    {
      "channel": 1,
      "note": 75,
      "start": 89.6456,
      "duration": 0.1323,
      "velocity": 91,
      "chip": "ym2612"
    },
    {
      "channel": 2,
      "note": 75,
      "start": 89.7098,
      "duration": 0.1323,
      "velocity": 88,
      "chip": "ym2612"
    },
    {
      "channel": 0,
      "note": 75,
      "start": 89.7777,
      "duration": 0.1319,
      "velocity": 86,
      "chip": "ym2612"
    },
    {
      "channel": 1,
      "note": 71,
      "start": 89.778,
      "duration": 0.1319,
      "velocity": 91,
      "chip": "ym2612"
    },
    {
      "channel": 2,
      "note": 71,
      "start": 89.8422,
      "duration": 0.1322,
      "velocity": 88,
      "chip": "ym2612"
    },
    {
      "channel": 0,
      "note": 80,
      "start": 89.9097,
      "duration": 0.1323,
      "velocity": 97,
      "chip": "ym2612"
    },
    {
      "channel": 1,
      "note": 79,
      "start": 89.91,
      "duration": 0.1323,
      "velocity": 91,
      "chip": "ym2612"
    },
    {
      "channel": 2,
      "note": 79,
      "start": 89.9747,
      "duration": 0.1322,
      "velocity": 88,
      "chip": "ym2612"
    },
    {
      "channel": 0,
      "note": 78,
      "start": 90.0422,
      "duration": 0.1322,
      "velocity": 86,
      "chip": "ym2612"
    },
    {
      "channel": 1,
      "note": 73,
      "start": 90.0425,
      "duration": 0.1323,
      "velocity": 91,
      "chip": "ym2612"
    },
    {
      "channel": 2,
      "note": 73,
      "start": 90.1071,
      "duration": 0.1323,
      "velocity": 88,
      "chip": "ym2612"
    },
    {
      "channel": 0,
      "note": 75,
      "start": 90.1745,
      "duration": 0.1323,
      "velocity": 97,
      "chip": "ym2612"
    },
    {
      "channel": 1,
      "note": 77,
      "start": 90.1749,
      "duration": 0.1322,
      "velocity": 91,
      "chip": "ym2612"
    },
    {
      "channel": 2,
      "note": 77,
      "start": 90.2395,
      "duration": 0.1323,
      "velocity": 88,
      "chip": "ym2612"
    },
    {
      "channel": 0,
      "note": 75,
      "start": 90.307,
      "duration": 0.1323,
      "velocity": 86,
      "chip": "ym2612"
    },
    {
      "channel": 1,
      "note": 71,
      "start": 90.3073,
      "duration": 0.1323,
      "velocity": 91,
      "chip": "ym2612"
    },
    {
      "channel": 2,
      "note": 71,
      "start": 90.3719,
      "duration": 0.1323,
      "velocity": 88,
      "chip": "ym2612"
    },
    {
      "channel": 0,
      "note": 78,
      "start": 90.4394,
      "duration": 0.1322,
      "velocity": 97,
      "chip": "ym2612"
    },
    {
      "channel": 1,
      "note": 75,
      "start": 90.4398,
      "duration": 0.1322,
      "velocity": 91,
      "chip": "ym2612"
    },
    {
      "channel": 2,
      "note": 75,
      "start": 90.5043,
      "duration": 0.1323,
      "velocity": 88,
      "chip": "ym2612"
    },
    {
      "channel": 0,
      "note": 85,
      "start": 90.5718,
      "duration": 0.1323,
      "velocity": 86,
      "chip": "ym2612"
    },
    {
      "channel": 1,
      "note": 73,
      "start": 90.5721,
      "duration": 0.1323,
      "velocity": 91,
      "chip": "ym2612"
    },
    {
      "channel": 2,
      "note": 73,
      "start": 90.6368,
      "duration": 0.1322,
      "velocity": 88,
      "chip": "ym2612"
    },
    {
      "channel": 0,
      "note": 75,
      "start": 90.7042,
      "duration": 0.1323,
      "velocity": 97,
      "chip": "ym2612"
    },
    {
      "channel": 1,
      "note": 79,
      "start": 90.7046,
      "duration": 0.1323,
      "velocity": 91,
      "chip": "ym2612"
    },
    {
      "channel": 2,
      "note": 79,
      "start": 90.7691,
      "duration": 0.1323,
      "velocity": 88,
      "chip": "ym2612"
    },
    {
      "channel": 0,
      "note": 75,
      "start": 90.8367,
      "duration": 0.1322,
      "velocity": 86,
      "chip": "ym2612"
    },
    {
      "channel": 1,
      "note": 71,
      "start": 90.837,
      "duration": 0.1322,
      "velocity": 91,
      "chip": "ym2612"
    },
    {
      "channel": 2,
      "note": 71,
      "start": 90.9016,
      "duration": 0.1323,
      "velocity": 88,
      "chip": "ym2612"
    },
    {
      "channel": 0,
      "note": 85,
      "start": 90.9691,
      "duration": 0.1323,
      "velocity": 97,
      "chip": "ym2612"
    },
    {
      "channel": 1,
      "note": 77,
      "start": 90.9694,
      "duration": 0.1323,
      "velocity": 91,
      "chip": "ym2612"
    },
    {
      "channel": 2,
      "note": 77,
      "start": 91.034,
      "duration": 0.1322,
      "velocity": 88,
      "chip": "ym2612"
    },
    {
      "channel": 0,
      "note": 80,
      "start": 91.1015,
      "duration": 0.1323,
      "velocity": 86,
      "chip": "ym2612"
    },
    {
      "channel": 1,
      "note": 73,
      "start": 91.1018,
      "duration": 0.1323,
      "velocity": 91,
      "chip": "ym2612"
    },
    {
      "channel": 2,
      "note": 73,
      "start": 91.1664,
      "duration": 0.1323,
      "velocity": 88,
      "chip": "ym2612"
    },
    {
      "channel": 0,
      "note": 75,
      "start": 91.2339,
      "duration": 0.1323,
      "velocity": 97,
      "chip": "ym2612"
    },
    {
      "channel": 1,
      "note": 75,
      "start": 91.2343,
      "duration": 0.1323,
      "velocity": 91,
      "chip": "ym2612"
    },
    {
      "channel": 2,
      "note": 75,
      "start": 91.2988,
      "duration": 0.1322,
      "velocity": 88,
      "chip": "ym2612"
    },
    {
      "channel": 0,
      "note": 75,
      "start": 91.3663,
      "duration": 0.1323,
      "velocity": 86,
      "chip": "ym2612"
    },
    {
      "channel": 1,
      "note": 71,
      "start": 91.3666,
      "duration": 0.1323,
      "velocity": 91,
      "chip": "ym2612"
    },
    {
      "channel": 2,
      "note": 71,
      "start": 91.4312,
      "duration": 0.1323,
      "velocity": 88,
      "chip": "ym2612"
    },
    {
      "channel": 0,
      "note": 80,
      "start": 91.4988,
      "duration": 0.1322,
      "velocity": 97,
      "chip": "ym2612"
    },
    {
      "channel": 1,
      "note": 79,
      "start": 91.4991,
      "duration": 0.1323,
      "velocity": 91,
      "chip": "ym2612"
    },
    {
      "channel": 2,
      "note": 79,
      "start": 91.5637,
      "duration": 0.1323,
      "velocity": 88,
      "chip": "ym2612"
    },
    {
      "channel": 0,
      "note": 78,
      "start": 91.6312,
      "duration": 0.1323,
      "velocity": 86,
      "chip": "ym2612"
    },
    {
      "channel": 1,
      "note": 73,
      "start": 91.6315,
      "duration": 0.1322,
      "velocity": 91,
      "chip": "ym2612"
    },
    {
      "channel": 2,
      "note": 73,
      "start": 91.6961,
      "duration": 0.1322,
      "velocity": 88,
      "chip": "ym2612"
    },
    {
      "channel": 0,
      "note": 75,
      "start": 91.7636,
      "duration": 0.1327,
      "velocity": 97,
      "chip": "ym2612"
    },
    {
      "channel": 1,
      "note": 77,
      "start": 91.7639,
      "duration": 0.1327,
      "velocity": 91,
      "chip": "ym2612"
    },
    {
      "channel": 2,
      "note": 77,
      "start": 91.8285,
      "duration": 0.1326,
      "velocity": 88,
      "chip": "ym2612"
    },
    {
      "channel": 0,
      "note": 75,
      "start": 91.8964,
      "duration": 0.1323,
      "velocity": 86,
      "chip": "ym2612"
    },
    {
      "channel": 1,
      "note": 71,
      "start": 91.8967,
      "duration": 0.1323,
      "velocity": 91,
      "chip": "ym2612"
    },
    {
      "channel": 2,
      "note": 71,
      "start": 91.9613,
      "duration": 0.1319,
      "velocity": 88,
      "chip": "ym2612"
    },
    {
      "channel": 0,
      "note": 78,
      "start": 92.0289,
      "duration": 0.1322,
      "velocity": 97,
      "chip": "ym2612"
    },
    {
      "channel": 1,
      "note": 75,
      "start": 92.0292,
      "duration": 0.1323,
      "velocity": 91,
      "chip": "ym2612"
    },
    {
      "channel": 2,
      "note": 75,
      "start": 92.0934,
      "duration": 0.1323,
      "velocity": 88,
      "chip": "ym2612"
    },
    {
      "channel": 0,
      "note": 85,
      "start": 92.1612,
      "duration": 0.1319,
      "velocity": 86,
      "chip": "ym2612"
    },
    {
      "channel": 1,
      "note": 85,
      "start": 92.1616,
      "duration": 0.1319,
      "velocity": 91,
      "chip": "ym2612"
    },
    {
      "channel": 3,
      "note": 27,
      "start": 92.162,
      "duration": 3.182,
      "velocity": 113,
      "chip": "ym2612"
    },
    {
      "channel": 2,
      "note": 85,
      "start": 92.2258,
      "duration": 0.1322,
      "velocity": 88,
      "chip": "ym2612"
    },
    {
      "channel": 0,
      "note": 75,
      "start": 92.2933,
      "duration": 0.1322,
      "velocity": 97,
      "chip": "ym2612"
    },
    {
      "channel": 1,
      "note": 91,
      "start": 92.2936,
      "duration": 0.1322,
      "velocity": 91,
      "chip": "ym2612"
    },
    {
      "channel": 2,
      "note": 91,
      "start": 92.3582,
      "duration": 0.1323,
      "velocity": 88,
      "chip": "ym2612"
    },
    {
      "channel": 0,
      "note": 75,
      "start": 92.4257,
      "duration": 0.1323,
      "velocity": 86,
      "chip": "ym2612"
    },
    {
      "channel": 1,
      "note": 83,
      "start": 92.426,
      "duration": 0.1323,
      "velocity": 91,
      "chip": "ym2612"
    },
    {
      "channel": 2,
      "note": 83,
      "start": 92.4906,
      "duration": 0.1322,
      "velocity": 88,
      "chip": "ym2612"
    },
    {
      "channel": 0,
      "note": 85,
      "start": 92.5581,
      "duration": 0.1323,
      "velocity": 97,
      "chip": "ym2612"
    },
    {
      "channel": 1,
      "note": 89,
      "start": 92.5584,
      "duration": 0.1323,
      "velocity": 91,
      "chip": "ym2612"
    },
    {
      "channel": 2,
      "note": 89,
      "start": 92.623,
      "duration": 0.1323,
      "velocity": 88,
      "chip": "ym2612"
    },
    {
      "channel": 0,
      "note": 80,
      "start": 92.6905,
      "duration": 0.1323,
      "velocity": 86,
      "chip": "ym2612"
    },
    {
      "channel": 1,
      "note": 85,
      "start": 92.6909,
      "duration": 0.1322,
      "velocity": 91,
      "chip": "ym2612"
    },
    {
      "channel": 2,
      "note": 85,
      "start": 92.7554,
      "duration": 0.1323,
      "velocity": 88,
      "chip": "ym2612"
    },
    {
      "channel": 0,
      "note": 75,
      "start": 92.8229,
      "duration": 0.1323,
      "velocity": 97,
      "chip": "ym2612"
    },
    {
      "channel": 1,
      "note": 87,
      "start": 92.8233,
      "duration": 0.1323,
      "velocity": 91,
      "chip": "ym2612"
    },
    {
      "channel": 2,
      "note": 87,
      "start": 92.8878,
      "duration": 0.1323,
      "velocity": 88,
      "chip": "ym2612"
    },
    {
      "channel": 0,
      "note": 75,
      "start": 92.9554,
      "duration": 0.1322,
      "velocity": 86,
      "chip": "ym2612"
    },
    {
      "channel": 1,
      "note": 83,
      "start": 92.9557,
      "duration": 0.1323,
      "velocity": 91,
      "chip": "ym2612"
    },
    {
      "channel": 2,
      "note": 83,
      "start": 93.0203,
      "duration": 0.1323,
      "velocity": 88,
      "chip": "ym2612"
    },
    {
      "channel": 0,
      "note": 80,
      "start": 93.0878,
      "duration": 0.1323,
      "velocity": 97,
      "chip": "ym2612"
    },
    {
      "channel": 1,
      "note": 91,
      "start": 93.0881,
      "duration": 0.1323,
      "velocity": 91,
      "chip": "ym2612"
    },
    {
      "channel": 2,
      "note": 91,
      "start": 93.1527,
      "duration": 0.1322,
      "velocity": 88,
      "chip": "ym2612"
    },
    {
      "channel": 0,
      "note": 78,
      "start": 93.2202,
      "duration": 0.1323,
      "velocity": 86,
      "chip": "ym2612"
    },
    {
      "channel": 1,
      "note": 85,
      "start": 93.2205,
      "duration": 0.1323,
      "velocity": 91,
      "chip": "ym2612"
    },
    {
      "channel": 2,
      "note": 85,
      "start": 93.2852,
      "duration": 0.1322,
      "velocity": 88,
      "chip": "ym2612"
    },
    {
      "channel": 0,
      "note": 75,
      "start": 93.3527,
      "duration": 0.1322,
      "velocity": 97,
      "chip": "ym2612"
    },
    {
      "channel": 1,
      "note": 89,
      "start": 93.353,
      "duration": 0.1323,
      "velocity": 91,
      "chip": "ym2612"
    },
    {
      "channel": 2,
      "note": 89,
      "start": 93.4175,
      "duration": 0.1323,
      "velocity": 88,
      "chip": "ym2612"
    },
    {
      "channel": 0,
      "note": 75,
      "start": 93.485,
      "duration": 0.1323,
      "velocity": 86,
      "chip": "ym2612"
    },
    {
      "channel": 1,
      "note": 83,
      "start": 93.4854,
      "duration": 0.1322,
      "velocity": 91,
      "chip": "ym2612"
    },
    {
      "channel": 2,
      "note": 83,
      "start": 93.55,
      "duration": 0.1323,
      "velocity": 88,
      "chip": "ym2612"
    },
    {
      "channel": 0,
      "note": 78,
      "start": 93.6175,
      "duration": 0.1323,
      "velocity": 97,
      "chip": "ym2612"
    },
    {
      "channel": 1,
      "note": 87,
      "start": 93.6178,
      "duration": 0.1323,
      "velocity": 91,
      "chip": "ym2612"
    },
    {
      "channel": 2,
      "note": 87,
      "start": 93.6824,
      "duration": 0.1323,
      "velocity": 88,
      "chip": "ym2612"
    },
    {
      "channel": 0,
      "note": 85,
      "start": 93.7499,
      "duration": 0.1323,
      "velocity": 86,
      "chip": "ym2612"
    },
    {
      "channel": 1,
      "note": 85,
      "start": 93.7502,
      "duration": 0.1323,
      "velocity": 91,
      "chip": "ym2612"
    },
    {
      "channel": 2,
      "note": 85,
      "start": 93.8148,
      "duration": 0.1323,
      "velocity": 88,
      "chip": "ym2612"
    },
    {
      "channel": 0,
      "note": 75,
      "start": 93.8823,
      "duration": 0.1323,
      "velocity": 97,
      "chip": "ym2612"
    },
    {
      "channel": 1,
      "note": 91,
      "start": 93.8827,
      "duration": 0.1322,
      "velocity": 91,
      "chip": "ym2612"
    },
    {
      "channel": 2,
      "note": 91,
      "start": 93.9473,
      "duration": 0.1322,
      "velocity": 88,
      "chip": "ym2612"
    },
    {
      "channel": 0,
      "note": 75,
      "start": 94.0147,
      "duration": 0.1323,
      "velocity": 86,
      "chip": "ym2612"
    },
    {
      "channel": 1,
      "note": 83,
      "start": 94.0151,
      "duration": 0.1323,
      "velocity": 91,
      "chip": "ym2612"
    },
    {
      "channel": 2,
      "note": 83,
      "start": 94.0796,
      "duration": 0.1323,
      "velocity": 88,
      "chip": "ym2612"
    },
    {
      "channel": 0,
      "note": 85,
      "start": 94.1472,
      "duration": 0.1324,
      "velocity": 97,
      "chip": "ym2612"
    },
    {
      "channel": 1,
      "note": 89,
      "start": 94.1475,
      "duration": 0.1324,
      "velocity": 91,
      "chip": "ym2612"
    },
    {
      "channel": 2,
      "note": 89,
      "start": 94.2121,
      "duration": 0.1327,
      "velocity": 88,
      "chip": "ym2612"
    },
    {
      "channel": 0,
      "note": 80,
      "start": 94.2798,
      "duration": 0.1325,
      "velocity": 86,
      "chip": "ym2612"
    },
    {
      "channel": 1,
      "note": 85,
      "start": 94.2801,
      "duration": 0.1325,
      "velocity": 91,
      "chip": "ym2612"
    },
    {
      "channel": 2,
      "note": 85,
      "start": 94.3449,
      "duration": 0.1319,
      "velocity": 88,
      "chip": "ym2612"
    },
    {
      "channel": 0,
      "note": 75,
      "start": 94.4124,
      "duration": 0.1323,
      "velocity": 97,
      "chip": "ym2612"
    },
    {
      "channel": 1,
      "note": 87,
      "start": 94.4127,
      "duration": 0.1323,
      "velocity": 91,
      "chip": "ym2612"
    },
    {
      "channel": 2,
      "note": 87,
      "start": 94.4769,
      "duration": 0.1323,
      "velocity": 88,
      "chip": "ym2612"
    },
    {
      "channel": 0,
      "note": 75,
      "start": 94.5448,
      "duration": 0.1319,
      "velocity": 86,
      "chip": "ym2612"
    },
    {
      "channel": 1,
      "note": 83,
      "start": 94.5451,
      "duration": 0.1319,
      "velocity": 91,
      "chip": "ym2612"
    },
    {
      "channel": 2,
      "note": 83,
      "start": 94.6093,
      "duration": 0.1322,
      "velocity": 88,
      "chip": "ym2612"
    },
    {
      "channel": 0,
      "note": 80,
      "start": 94.6768,
      "duration": 0.1323,
      "velocity": 97,
      "chip": "ym2612"
    },
    {
      "channel": 1,
      "note": 91,
      "start": 94.6772,
      "duration": 0.1322,
      "velocity": 91,
      "chip": "ym2612"
    },
    {
      "channel": 2,
      "note": 91,
      "start": 94.7417,
      "duration": 0.1323,
      "velocity": 88,
      "chip": "ym2612"
    },
    {
      "channel": 0,
      "note": 78,
      "start": 94.8093,
      "duration": 0.1323,
      "velocity": 86,
      "chip": "ym2612"
    },
    {
      "channel": 1,
      "note": 85,
      "start": 94.8096,
      "duration": 0.1323,
      "velocity": 91,
      "chip": "ym2612"
    },
    {
      "channel": 2,
      "note": 85,
      "start": 94.8741,
      "duration": 0.1323,
      "velocity": 88,
      "chip": "ym2612"
    },
    {
      "channel": 0,
      "note": 75,
      "start": 94.9417,
      "duration": 0.1322,
      "velocity": 97,
      "chip": "ym2612"
    },
    {
      "channel": 1,
      "note": 89,
      "start": 94.942,
      "duration": 0.1322,
      "velocity": 91,
      "chip": "ym2612"
    },
    {
      "channel": 2,
      "note": 89,
      "start": 95.0066,
      "duration": 0.1322,
      "velocity": 88,
      "chip": "ym2612"
    },
    {
      "channel": 0,
      "note": 75,
      "start": 95.0741,
      "duration": 0.1323,
      "velocity": 86,
      "chip": "ym2612"
    },
    {
      "channel": 1,
      "note": 83,
      "start": 95.0744,
      "duration": 0.1323,
      "velocity": 91,
      "chip": "ym2612"
    },
    {
      "channel": 2,
      "note": 83,
      "start": 95.139,
      "duration": 0.2032,
      "velocity": 113,
      "chip": "ym2612"
    },
    {
      "channel": 0,
      "note": 78,
      "start": 95.2065,
      "duration": 0.1323,
      "velocity": 100,
      "chip": "ym2612"
    },
    {
      "channel": 1,
      "note": 87,
      "start": 95.2068,
      "duration": 0.1337,
      "velocity": 86,
      "chip": "ym2612"
    },
    {
      "channel": 0,
      "note": 84,
      "start": 95.339,
      "duration": 0.1322,
      "velocity": 98,
      "chip": "ym2612"
    },
    {
      "channel": 1,
      "note": 49,
      "start": 95.3406,
      "duration": 0.1309,
      "velocity": 86,
      "chip": "ym2612"
    },
    {
      "channel": 2,
      "note": 103,
      "start": 95.3424,
      "duration": 0.2611,
      "velocity": 113,
      "chip": "ym2612"
    },
    {
      "channel": 3,
      "note": 104,
      "start": 95.3444,
      "duration": 0.259,
      "velocity": 113,
      "chip": "ym2612"
    },
    {
      "channel": 0,
      "note": 74,
      "start": 95.4714,
      "duration": 0.1321,
      "velocity": 100,
      "chip": "ym2612"
    },
    {
      "channel": 1,
      "note": 49,
      "start": 95.4717,
      "duration": 0.1318,
      "velocity": 86,
      "chip": "ym2612"
    }
  ]
}