{
  "track_name": "04 - Germany",
  "duration_sec": 128.697,
  "sample_rate": 44100,
  "note_count": 2868,
  "unique_pitches": 42,
  "pitch_range": 45,
  "avg_note_duration": 0.0829,
  "reconstruction_stats": {
    "notes_reconstructed": 2868,
    "keyon_events": 2868,
    "keyoff_events": 2867,
    "orphan_keyons": 1,
    "unique_pitches": 42,
    "pitch_range": 45,
    "avg_duration_sec": 0.0829
  },
  "metadata": {
    "source": "R\\Road Rash III\\04 - Germany.vgz"
  },
  "notes": [
    {
      "channel": 0,
      "note": 60,
      "start": 0.0,
      "duration": 0.0739,
      "velocity": 106,
      "chip": "ym2612"
    },
    {
      "channel": 0,
      "note": 59,
      "start": 0.094,
      "duration": 0.0798,
      "velocity": 106,
      "chip": "ym2612"
    },
    {
      "channel": 0,
      "note": 50,
      "start": 0.1943,
      "duration": 0.0293,
      "velocity": 117,
      "chip": "ym2612"
    },
    {
      "channel": 1,
      "note": 53,
      "start": 0.1984,
      "duration": 0.1753,
      "velocity": 101,
      "chip": "ym2612"
    },
    {
      "channel": 2,
      "note": 60,
      "start": 0.2026,
      "duration": 0.0723,
      "velocity": 106,
      "chip": "ym2612"
    },
    {
      "channel": 0,
      "note": 74,
      "start": 0.3781,
      "duration": 0.0288,
      "velocity": 127,
      "chip": "ym2612"
    },
    {
      "channel": 1,
      "note": 57,
      "start": 0.3825,
      "duration": 0.0591,
      "velocity": 106,
      "chip": "ym2612"
    },
    {
      "channel": 0,
      "note": 50,
      "start": 0.5776,
      "duration": 0.0305,
      "velocity": 117,
      "chip": "ym2612"
    },
    {
      "channel": 1,
      "note": 48,
      "start": 0.5815,
      "duration": 0.1756,
      "velocity": 101,
      "chip": "ym2612"
    },
    {
      "channel": 0,
      "note": 74,
      "start": 0.7774,
      "duration": 0.0295,
      "velocity": 127,
      "chip": "ym2612"
    },
    {
      "channel": 1,
      "note": 60,
      "start": 0.7818,
      "duration": 0.0767,
      "velocity": 106,
      "chip": "ym2612"
    },
    {
      "channel": 0,
      "note": 59,
      "start": 0.8627,
      "duration": 0.0789,
      "velocity": 106,
      "chip": "ym2612"
    },
    {
      "channel": 0,
      "note": 53,
      "start": 0.9606,
      "duration": 0.1798,
      "velocity": 101,
      "chip": "ym2612"
    },
    {
      "channel": 1,
      "note": 60,
      "start": 0.9648,
      "duration": 0.0757,
      "velocity": 106,
      "chip": "ym2612"
    },
    {
      "channel": 2,
      "note": 50,
      "start": 0.9693,
      "duration": 0.021,
      "velocity": 117,
      "chip": "ym2612"
    },
    {
      "channel": 0,
      "note": 74,
      "start": 1.162,
      "duration": 0.0282,
      "velocity": 127,
      "chip": "ym2612"
    },
    {
      "channel": 1,
      "note": 57,
      "start": 1.1664,
      "duration": 0.0586,
      "velocity": 106,
      "chip": "ym2612"
    },
    {
      "channel": 0,
      "note": 48,
      "start": 1.3605,
      "duration": 0.1799,
      "velocity": 101,
      "chip": "ym2612"
    },
    {
      "channel": 1,
      "note": 50,
      "start": 1.3648,
      "duration": 0.0254,
      "velocity": 117,
      "chip": "ym2612"
    },
    {
      "channel": 0,
      "note": 74,
      "start": 1.5448,
      "duration": 0.0288,
      "velocity": 127,
      "chip": "ym2612"
    },
    {
      "channel": 1,
      "note": 60,
      "start": 1.5491,
      "duration": 0.0758,
      "velocity": 106,
      "chip": "ym2612"
    },
    {
      "channel": 0,
      "note": 59,
      "start": 1.644,
      "duration": 0.0809,
      "velocity": 106,
      "chip": "ym2612"
    },
    {
      "channel": 0,
      "note": 50,
      "start": 1.7443,
      "duration": 0.0293,
      "velocity": 117,
      "chip": "ym2612"
    },
    {
      "channel": 1,
      "note": 53,
      "start": 1.7484,
      "duration": 0.1752,
      "velocity": 101,
      "chip": "ym2612"
    },
    {
      "channel": 2,
      "note": 60,
      "start": 1.7526,
      "duration": 0.0723,
      "velocity": 106,
      "chip": "ym2612"
    },
    {
      "channel": 0,
      "note": 74,
      "start": 1.9441,
      "duration": 0.0306,
      "velocity": 127,
      "chip": "ym2612"
    },
    {
      "channel": 1,
      "note": 65,
      "start": 1.9484,
      "duration": 0.0765,
      "velocity": 106,
      "chip": "ym2612"
    },
    {
      "channel": 0,
      "note": 50,
      "start": 2.1276,
      "duration": 0.0305,
      "velocity": 117,
      "chip": "ym2612"
    },
    {
      "channel": 1,
      "note": 48,
      "start": 2.1318,
      "duration": 0.1752,
      "velocity": 101,
      "chip": "ym2612"
    },
    {
      "channel": 2,
      "note": 67,
      "start": 2.136,
      "duration": 0.2389,
      "velocity": 106,
      "chip": "ym2612"
    },
    {
      "channel": 0,
      "note": 74,
      "start": 2.3274,
      "duration": 0.0295,
      "velocity": 127,
      "chip": "ym2612"
    },
    {
      "channel": 0,
      "note": 65,
      "start": 2.4294,
      "duration": 0.0777,
      "velocity": 106,
      "chip": "ym2612"
    },
    {
      "channel": 0,
      "note": 74,
      "start": 2.5287,
      "duration": 0.0282,
      "velocity": 127,
      "chip": "ym2612"
    },
    {
      "channel": 1,
      "note": 63,
      "start": 2.533,
      "duration": 0.0784,
      "velocity": 101,
      "chip": "ym2612"
    },
    {
      "channel": 2,
      "note": 75,
      "start": 2.5373,
      "duration": 0.0734,
      "velocity": 106,
      "chip": "ym2612"
    },
    {
      "channel": 0,
      "note": 74,
      "start": 2.6288,
      "duration": 0.0282,
      "velocity": 127,
      "chip": "ym2612"
    },
    {
      "channel": 1,
      "note": 62,
      "start": 2.633,
      "duration": 0.0795,
      "velocity": 101,
      "chip": "ym2612"
    },
    {
      "channel": 2,
      "note": 74,
      "start": 2.6373,
      "duration": 0.0745,
      "velocity": 106,
      "chip": "ym2612"
    },
    {
      "channel": 0,
      "note": 74,
      "start": 2.7275,
      "duration": 0.0294,
      "velocity": 127,
      "chip": "ym2612"
    },
    {
      "channel": 1,
      "note": 58,
      "start": 2.7318,
      "duration": 0.0824,
      "velocity": 101,
      "chip": "ym2612"
    },
    {
      "channel": 2,
      "note": 70,
      "start": 2.7361,
      "duration": 0.077,
      "velocity": 106,
      "chip": "ym2612"
    },
    {
      "channel": 0,
      "note": 74,
      "start": 2.8187,
      "duration": 0.0216,
      "velocity": 127,
      "chip": "ym2612"
    },
    {
      "channel": 1,
      "note": 57,
      "start": 2.8231,
      "duration": 0.0728,
      "velocity": 101,
      "chip": "ym2612"
    },
    {
      "channel": 2,
      "note": 69,
      "start": 2.8275,
      "duration": 0.0677,
      "velocity": 106,
      "chip": "ym2612"
    },
    {
      "channel": 0,
      "note": 56,
      "start": 2.9107,
      "duration": 0.081,
      "velocity": 101,
      "chip": "ym2612"
    },
    {
      "channel": 1,
      "note": 50,
      "start": 2.9153,
      "duration": 0.025,
      "velocity": 117,
      "chip": "ym2612"
    },
    {
      "channel": 2,
      "note": 68,
      "start": 2.9197,
      "duration": 0.0751,
      "velocity": 106,
      "chip": "ym2612"
    },
    {
      "channel": 0,
      "note": 55,
      "start": 3.0106,
      "duration": 0.0798,
      "velocity": 101,
      "chip": "ym2612"
    },
    {
      "channel": 1,
      "note": 67,
      "start": 3.015,
      "duration": 0.0796,
      "velocity": 106,
      "chip": "ym2612"
    },
    {
      "channel": 2,
      "note": 50,
      "start": 3.022,
      "duration": 0.0183,
      "velocity": 117,
      "chip": "ym2612"
    },
    {
      "channel": 0,
      "note": 50,
      "start": 3.111,
      "duration": 0.0292,
      "velocity": 117,
      "chip": "ym2612"
    },
    {
      "channel": 1,
      "note": 53,
      "start": 3.1153,
      "duration": 0.0794,
      "velocity": 101,
      "chip": "ym2612"
    },
    {
      "channel": 2,
      "note": 65,
      "start": 3.1196,
      "duration": 0.0744,
      "velocity": 106,
      "chip": "ym2612"
    },
    {
      "channel": 0,
      "note": 51,
      "start": 3.2106,
      "duration": 0.0798,
      "velocity": 101,
      "chip": "ym2612"
    },
    {
      "channel": 1,
      "note": 50,
      "start": 3.2153,
      "duration": 0.0249,
      "velocity": 117,
      "chip": "ym2612"
    },
    {
      "channel": 2,
      "note": 63,
      "start": 3.2196,
      "duration": 0.074,
      "velocity": 106,
      "chip": "ym2612"
    },
    {
      "channel": 0,
      "note": 50,
      "start": 3.3188,
      "duration": 0.1717,
      "velocity": 101,
      "chip": "ym2612"
    },
    {
      "channel": 1,
      "note": 62,
      "start": 3.3234,
      "duration": 0.1692,
      "velocity": 106,
      "chip": "ym2612"
    },
    {
      "channel": 2,
      "note": 50,
      "start": 3.3283,
      "duration": 0.0121,
      "velocity": 117,
      "chip": "ym2612"
    },
    {
      "channel": 0,
      "note": 74,
      "start": 3.4973,
      "duration": 0.0263,
      "velocity": 127,
      "chip": "ym2612"
    },
    {
      "channel": 1,
      "note": 50,
      "start": 3.5013,
      "duration": 0.1724,
      "velocity": 101,
      "chip": "ym2612"
    },
    {
      "channel": 2,
      "note": 62,
      "start": 3.5055,
      "duration": 0.1691,
      "velocity": 106,
      "chip": "ym2612"
    },
    {
      "channel": 0,
      "note": 50,
      "start": 3.6948,
      "duration": 0.1789,
      "velocity": 101,
      "chip": "ym2612"
    },
    {
      "channel": 1,
      "note": 62,
      "start": 3.6991,
      "duration": 0.1754,
      "velocity": 106,
      "chip": "ym2612"
    },
    {
      "channel": 2,
      "note": 50,
      "start": 3.7035,
      "duration": 0.0214,
      "velocity": 117,
      "chip": "ym2612"
    },
    {
      "channel": 2,
      "note": 50,
      "start": 3.7943,
      "duration": 0.0294,
      "velocity": 117,
      "chip": "ym2612"
    },
    {
      "channel": 0,
      "note": 74,
      "start": 3.8949,
      "duration": 0.0287,
      "velocity": 127,
      "chip": "ym2612"
    },
    {
      "channel": 1,
      "note": 50,
      "start": 3.8991,
      "duration": 0.1764,
      "velocity": 101,
      "chip": "ym2612"
    },
    {
      "channel": 2,
      "note": 62,
      "start": 3.9033,
      "duration": 0.1707,
      "velocity": 106,
      "chip": "ym2612"
    },
    {
      "channel": 0,
      "note": 50,
      "start": 4.0952,
      "duration": 0.1798,
      "velocity": 101,
      "chip": "ym2612"
    },
    {
      "channel": 1,
      "note": 62,
      "start": 4.0994,
      "duration": 0.1778,
      "velocity": 106,
      "chip": "ym2612"
    },
    {
      "channel": 2,
      "note": 50,
      "start": 4.1039,
      "duration": 0.0198,
      "velocity": 117,
      "chip": "ym2612"
    },
    {
      "channel": 0,
      "note": 74,
      "start": 4.2818,
      "duration": 0.0251,
      "velocity": 127,
      "chip": "ym2612"
    },
    {
      "channel": 1,
      "note": 50,
      "start": 4.2859,
      "duration": 0.0733,
      "velocity": 101,
      "chip": "ym2612"
    },
    {
      "channel": 2,
      "note": 62,
      "start": 4.2902,
      "duration": 0.0684,
      "velocity": 106,
      "chip": "ym2612"
    },
    {
      "channel": 0,
      "note": 55,
      "start": 4.3785,
      "duration": 0.1794,
      "velocity": 101,
      "chip": "ym2612"
    },
    {
      "channel": 1,
      "note": 67,
      "start": 4.3827,
      "duration": 0.1246,
      "velocity": 106,
      "chip": "ym2612"
    },
    {
      "channel": 2,
      "note": 50,
      "start": 4.387,
      "duration": 0.02,
      "velocity": 117,
      "chip": "ym2612"
    },
    {
      "channel": 0,
      "note": 53,
      "start": 4.5774,
      "duration": 0.2823,
      "velocity": 101,
      "chip": "ym2612"
    },
    {
      "channel": 1,
      "note": 50,
      "start": 4.5819,
      "duration": 0.0251,
      "velocity": 117,
      "chip": "ym2612"
    },
    {
      "channel": 2,
      "note": 65,
      "start": 4.586,
      "duration": 0.2749,
      "velocity": 106,
      "chip": "ym2612"
    },
    {
      "channel": 1,
      "note": 74,
      "start": 4.6782,
      "duration": 0.0288,
      "velocity": 127,
      "chip": "ym2612"
    },
    {
      "channel": 0,
      "note": 50,
      "start": 4.8659,
      "duration": 0.0244,
      "velocity": 117,
      "chip": "ym2612"
    },
    {
      "channel": 1,
      "note": 50,
      "start": 4.87,
      "duration": 0.1721,
      "velocity": 101,
      "chip": "ym2612"
    },
    {
      "channel": 2,
      "note": 62,
      "start": 4.8744,
      "duration": 0.1662,
      "velocity": 106,
      "chip": "ym2612"
    },
    {
      "channel": 0,
      "note": 74,
      "start": 5.061,
      "duration": 0.0305,
      "velocity": 127,
      "chip": "ym2612"
    },
    {
      "channel": 1,
      "note": 50,
      "start": 5.065,
      "duration": 0.1755,
      "velocity": 101,
      "chip": "ym2612"
    },
    {
      "channel": 2,
      "note": 62,
      "start": 5.0692,
      "duration": 0.1732,
      "velocity": 106,
      "chip": "ym2612"
    },
    {
      "channel": 0,
      "note": 50,
      "start": 5.2606,
      "duration": 0.181,
      "velocity": 101,
      "chip": "ym2612"
    },
    {
      "channel": 1,
      "note": 50,
      "start": 5.265,
      "duration": 0.0252,
      "velocity": 117,
      "chip": "ym2612"
    },
    {
      "channel": 2,
      "note": 62,
      "start": 5.2692,
      "duration": 0.1716,
      "velocity": 106,
      "chip": "ym2612"
    },
    {
      "channel": 1,
      "note": 50,
      "start": 5.3452,
      "duration": 0.0297,
      "velocity": 117,
      "chip": "ym2612"
    },
    {
      "channel": 0,
      "note": 74,
      "start": 5.4463,
      "duration": 0.0273,
      "velocity": 127,
      "chip": "ym2612"
    },
    {
      "channel": 1,
      "note": 50,
      "start": 5.4503,
      "duration": 0.1735,
      "velocity": 101,
      "chip": "ym2612"
    },
    {
      "channel": 2,
      "note": 62,
      "start": 5.4545,
      "duration": 0.171,
      "velocity": 106,
      "chip": "ym2612"
    },
    {
      "channel": 0,
      "note": 50,
      "start": 5.6456,
      "duration": 0.0279,
      "velocity": 117,
      "chip": "ym2612"
    },
    {
      "channel": 1,
      "note": 50,
      "start": 5.6497,
      "duration": 0.1753,
      "velocity": 101,
      "chip": "ym2612"
    },
    {
      "channel": 2,
      "note": 62,
      "start": 5.6538,
      "duration": 0.1721,
      "velocity": 106,
      "chip": "ym2612"
    },
    {
      "channel": 0,
      "note": 74,
      "start": 5.8441,
      "duration": 0.0295,
      "velocity": 127,
      "chip": "ym2612"
    },
    {
      "channel": 1,
      "note": 50,
      "start": 5.8482,
      "duration": 0.0769,
      "velocity": 101,
      "chip": "ym2612"
    },
    {
      "channel": 2,
      "note": 62,
      "start": 5.8523,
      "duration": 0.0739,
      "velocity": 106,
      "chip": "ym2612"
    },
    {
      "channel": 0,
      "note": 56,
      "start": 5.9307,
      "duration": 0.1776,
      "velocity": 101,
      "chip": "ym2612"
    },
    {
      "channel": 1,
      "note": 68,
      "start": 5.9349,
      "duration": 0.1223,
      "velocity": 106,
      "chip": "ym2612"
    },
    {
      "channel": 2,
      "note": 50,
      "start": 5.9394,
      "duration": 0.0176,
      "velocity": 117,
      "chip": "ym2612"
    },
    {
      "channel": 0,
      "note": 55,
      "start": 6.1272,
      "duration": 0.2809,
      "velocity": 101,
      "chip": "ym2612"
    },
    {
      "channel": 1,
      "note": 67,
      "start": 6.1314,
      "duration": 0.2776,
      "velocity": 106,
      "chip": "ym2612"
    },
    {
      "channel": 2,
      "note": 50,
      "start": 6.1358,
      "duration": 0.0212,
      "velocity": 117,
      "chip": "ym2612"
    },
    {
      "channel": 2,
      "note": 74,
      "start": 6.2274,
      "duration": 0.0296,
      "velocity": 127,
      "chip": "ym2612"
    },
    {
      "channel": 0,
      "note": 50,
      "start": 6.4273,
      "duration": 0.1798,
      "velocity": 101,
      "chip": "ym2612"
    },
    {
      "channel": 1,
      "note": 62,
      "start": 6.4316,
      "duration": 0.1766,
      "velocity": 106,
      "chip": "ym2612"
    },
    {
      "channel": 2,
      "note": 50,
      "start": 6.4361,
      "duration": 0.0209,
      "velocity": 117,
      "chip": "ym2612"
    },
    {
      "channel": 0,
      "note": 74,
      "start": 6.6128,
      "duration": 0.0275,
      "velocity": 127,
      "chip": "ym2612"
    },
    {
      "channel": 1,
      "note": 50,
      "start": 6.6169,
      "duration": 0.1736,
      "velocity": 101,
      "chip": "ym2612"
    },
    {
      "channel": 2,
      "note": 62,
      "start": 6.621,
      "duration": 0.1711,
      "velocity": 106,
      "chip": "ym2612"
    },
    {
      "channel": 0,
      "note": 50,
      "start": 6.8112,
      "duration": 0.0303,
      "velocity": 117,
      "chip": "ym2612"
    },
    {
      "channel": 1,
      "note": 50,
      "start": 6.8152,
      "duration": 0.1753,
      "velocity": 101,
      "chip": "ym2612"
    },
    {
      "channel": 2,
      "note": 62,
      "start": 6.8193,
      "duration": 0.173,
      "velocity": 106,
      "chip": "ym2612"
    },
    {
      "channel": 0,
      "note": 50,
      "start": 6.9109,
      "duration": 0.0293,
      "velocity": 117,
      "chip": "ym2612"
    },
    {
      "channel": 0,
      "note": 74,
      "start": 7.0108,
      "duration": 0.0295,
      "velocity": 127,
      "chip": "ym2612"
    },
    {
      "channel": 1,
      "note": 50,
      "start": 7.0148,
      "duration": 0.1757,
      "velocity": 101,
      "chip": "ym2612"
    },
    {
      "channel": 2,
      "note": 62,
      "start": 7.019,
      "duration": 0.1725,
      "velocity": 106,
      "chip": "ym2612"
    },
    {
      "channel": 0,
      "note": 50,
      "start": 7.1956,
      "duration": 0.179,
      "velocity": 101,
      "chip": "ym2612"
    },
    {
      "channel": 1,
      "note": 62,
      "start": 7.1998,
      "duration": 0.1741,
      "velocity": 106,
      "chip": "ym2612"
    },
    {
      "channel": 2,
      "note": 50,
      "start": 7.2042,
      "duration": 0.0195,
      "velocity": 117,
      "chip": "ym2612"
    },
    {
      "channel": 0,
      "note": 74,
      "start": 7.3954,
      "duration": 0.0282,
      "velocity": 127,
      "chip": "ym2612"
    },
    {
      "channel": 1,
      "note": 50,
      "start": 7.3994,
      "duration": 0.0756,
      "velocity": 101,
      "chip": "ym2612"
    },
    {
      "channel": 2,
      "note": 62,
      "start": 7.4036,
      "duration": 0.0723,
      "velocity": 106,
      "chip": "ym2612"
    },
    {
      "channel": 0,
      "note": 50,
      "start": 7.4943,
      "duration": 0.0293,
      "velocity": 117,
      "chip": "ym2612"
    },
    {
      "channel": 1,
      "note": 60,
      "start": 7.4984,
      "duration": 0.1754,
      "velocity": 101,
      "chip": "ym2612"
    },
    {
      "channel": 2,
      "note": 72,
      "start": 7.5025,
      "duration": 0.1214,
      "velocity": 106,
      "chip": "ym2612"
    },
    {
      "channel": 0,
      "note": 57,
      "start": 7.678,
      "duration": 0.2807,
      "velocity": 101,
      "chip": "ym2612"
    },
    {
      "channel": 1,
      "note": 50,
      "start": 7.6824,
      "duration": 0.0245,
      "velocity": 117,
      "chip": "ym2612"
    },
    {
      "channel": 2,
      "note": 69,
      "start": 7.6866,
      "duration": 0.2707,
      "velocity": 106,
      "chip": "ym2612"
    },
    {
      "channel": 1,
      "note": 74,
      "start": 7.7776,
      "duration": 0.0294,
      "velocity": 127,
      "chip": "ym2612"
    },
    {
      "channel": 0,
      "note": 50,
      "start": 7.9774,
      "duration": 0.0815,
      "velocity": 101,
      "chip": "ym2612"
    },
    {
      "channel": 1,
      "note": 62,
      "start": 7.9816,
      "duration": 0.0766,
      "velocity": 106,
      "chip": "ym2612"
    },
    {
      "channel": 2,
      "note": 50,
      "start": 7.986,
      "duration": 0.021,
      "velocity": 117,
      "chip": "ym2612"
    },
    {
      "channel": 0,
      "note": 51,
      "start": 8.0772,
      "duration": 0.0807,
      "velocity": 101,
      "chip": "ym2612"
    },
    {
      "channel": 1,
      "note": 63,
      "start": 8.0814,
      "duration": 0.0758,
      "velocity": 106,
      "chip": "ym2612"
    },
    {
      "channel": 2,
      "note": 50,
      "start": 8.0858,
      "duration": 0.0212,
      "velocity": 117,
      "chip": "ym2612"
    },
    {
      "channel": 0,
      "note": 74,
      "start": 8.1774,
      "duration": 0.0307,
      "velocity": 127,
      "chip": "ym2612"
    },
    {
      "channel": 1,
      "note": 53,
      "start": 8.1815,
      "duration": 0.0768,
      "velocity": 101,
      "chip": "ym2612"
    },
    {
      "channel": 2,
      "note": 65,
      "start": 8.1856,
      "duration": 0.0738,
      "velocity": 106,
      "chip": "ym2612"
    },
    {
      "channel": 0,
      "note": 74,
      "start": 8.2641,
      "duration": 0.0262,
      "velocity": 127,
      "chip": "ym2612"
    },
    {
      "channel": 1,
      "note": 54,
      "start": 8.2681,
      "duration": 0.0732,
      "velocity": 101,
      "chip": "ym2612"
    },
    {
      "channel": 2,
      "note": 66,
      "start": 8.2723,
      "duration": 0.0698,
      "velocity": 106,
      "chip": "ym2612"
    },
    {
      "channel": 0,
      "note": 50,
      "start": 8.3612,
      "duration": 0.0303,
      "velocity": 117,
      "chip": "ym2612"
    },
    {
      "channel": 1,
      "note": 56,
      "start": 8.3652,
      "duration": 0.0761,
      "velocity": 101,
      "chip": "ym2612"
    },
    {
      "channel": 2,
      "note": 68,
      "start": 8.3693,
      "duration": 0.0728,
      "velocity": 106,
      "chip": "ym2612"
    },
    {
      "channel": 0,
      "note": 58,
      "start": 8.4608,
      "duration": 0.0813,
      "velocity": 101,
      "chip": "ym2612"
    },
    {
      "channel": 1,
      "note": 50,
      "start": 8.4652,
      "duration": 0.0263,
      "velocity": 117,
      "chip": "ym2612"
    },
    {
      "channel": 2,
      "note": 70,
      "start": 8.4694,
      "duration": 0.0721,
      "velocity": 106,
      "chip": "ym2612"
    },
    {
      "channel": 0,
      "note": 74,
      "start": 8.561,
      "duration": 0.0293,
      "velocity": 127,
      "chip": "ym2612"
    },
    {
      "channel": 1,
      "note": 60,
      "start": 8.565,
      "duration": 0.0764,
      "velocity": 101,
      "chip": "ym2612"
    },
    {
      "channel": 2,
      "note": 72,
      "start": 8.5692,
      "duration": 0.0732,
      "velocity": 106,
      "chip": "ym2612"
    },
    {
      "channel": 0,
      "note": 74,
      "start": 8.6608,
      "duration": 0.0295,
      "velocity": 127,
      "chip": "ym2612"
    },
    {
      "channel": 1,
      "note": 62,
      "start": 8.6648,
      "duration": 0.0766,
      "velocity": 101,
      "chip": "ym2612"
    },
    {
      "channel": 2,
      "note": 74,
      "start": 8.669,
      "duration": 0.0733,
      "velocity": 106,
      "chip": "ym2612"
    },
    {
      "channel": 0,
      "note": 74,
      "start": 8.762,
      "duration": 0.0283,
      "velocity": 127,
      "chip": "ym2612"
    },
    {
      "channel": 1,
      "note": 63,
      "start": 8.7661,
      "duration": 0.0745,
      "velocity": 101,
      "chip": "ym2612"
    },
    {
      "channel": 2,
      "note": 75,
      "start": 8.7702,
      "duration": 0.0713,
      "velocity": 106,
      "chip": "ym2612"
    },
    {
      "channel": 0,
      "note": 74,
      "start": 8.8462,
      "duration": 0.0274,
      "velocity": 127,
      "chip": "ym2612"
    },
    {
      "channel": 1,
      "note": 62,
      "start": 8.8503,
      "duration": 0.0744,
      "velocity": 101,
      "chip": "ym2612"
    },
    {
      "channel": 2,
      "note": 74,
      "start": 8.8544,
      "duration": 0.0696,
      "velocity": 106,
      "chip": "ym2612"
    },
    {
      "channel": 0,
      "note": 74,
      "start": 8.9465,
      "duration": 0.0271,
      "velocity": 127,
      "chip": "ym2612"
    },
    {
      "channel": 1,
      "note": 58,
      "start": 8.9505,
      "duration": 0.0742,
      "velocity": 101,
      "chip": "ym2612"
    },
    {
      "channel": 2,
      "note": 70,
      "start": 8.9547,
      "duration": 0.0709,
      "velocity": 106,
      "chip": "ym2612"
    },
    {
      "channel": 0,
      "note": 74,
      "start": 9.0453,
      "duration": 0.0283,
      "velocity": 127,
      "chip": "ym2612"
    },
    {
      "channel": 1,
      "note": 57,
      "start": 9.0494,
      "duration": 0.0756,
      "velocity": 101,
      "chip": "ym2612"
    },
    {
      "channel": 2,
      "note": 69,
      "start": 9.0536,
      "duration": 0.0723,
      "velocity": 106,
      "chip": "ym2612"
    },
    {
      "channel": 0,
      "note": 56,
      "start": 9.144,
      "duration": 0.0828,
      "velocity": 101,
      "chip": "ym2612"
    },
    {
      "channel": 1,
      "note": 68,
      "start": 9.1482,
      "duration": 0.0779,
      "velocity": 106,
      "chip": "ym2612"
    },
    {
      "channel": 2,
      "note": 50,
      "start": 9.1525,
      "duration": 0.0212,
      "velocity": 117,
      "chip": "ym2612"
    },
    {
      "channel": 0,
      "note": 55,
      "start": 9.2439,
      "duration": 0.081,
      "velocity": 101,
      "chip": "ym2612"
    },
    {
      "channel": 1,
      "note": 50,
      "start": 9.2484,
      "duration": 0.0252,
      "velocity": 117,
      "chip": "ym2612"
    },
    {
      "channel": 2,
      "note": 67,
      "start": 9.2525,
      "duration": 0.0716,
      "velocity": 106,
      "chip": "ym2612"
    },
    {
      "channel": 0,
      "note": 50,
      "start": 9.3298,
      "duration": 0.0271,
      "velocity": 117,
      "chip": "ym2612"
    },
    {
      "channel": 1,
      "note": 53,
      "start": 9.3339,
      "duration": 0.0753,
      "velocity": 101,
      "chip": "ym2612"
    },
    {
      "channel": 2,
      "note": 65,
      "start": 9.338,
      "duration": 0.0706,
      "velocity": 106,
      "chip": "ym2612"
    },
    {
      "channel": 0,
      "note": 51,
      "start": 9.4285,
      "duration": 0.0803,
      "velocity": 101,
      "chip": "ym2612"
    },
    {
      "channel": 1,
      "note": 50,
      "start": 9.4328,
      "duration": 0.0241,
      "velocity": 117,
      "chip": "ym2612"
    },
    {
      "channel": 2,
      "note": 63,
      "start": 9.437,
      "duration": 0.0711,
      "velocity": 106,
      "chip": "ym2612"
    },
    {
      "channel": 0,
      "note": 50,
      "start": 9.5275,
      "duration": 0.1805,
      "velocity": 101,
      "chip": "ym2612"
    },
    {
      "channel": 1,
      "note": 62,
      "start": 9.5318,
      "duration": 0.1755,
      "velocity": 106,
      "chip": "ym2612"
    },
    {
      "channel": 2,
      "note": 50,
      "start": 9.5364,
      "duration": 0.0217,
      "velocity": 117,
      "chip": "ym2612"
    },
    {
      "channel": 0,
      "note": 74,
      "start": 9.7274,
      "duration": 0.0295,
      "velocity": 127,
      "chip": "ym2612"
    },
    {
      "channel": 1,
      "note": 50,
      "start": 9.7315,
      "duration": 0.1757,
      "velocity": 101,
      "chip": "ym2612"
    },
    {
      "channel": 2,
      "note": 62,
      "start": 9.7356,
      "duration": 0.1726,
      "velocity": 106,
      "chip": "ym2612"
    },
    {
      "channel": 0,
      "note": 50,
      "start": 9.9131,
      "duration": 0.0272,
      "velocity": 117,
      "chip": "ym2612"
    },
    {
      "channel": 1,
      "note": 50,
      "start": 9.9171,
      "duration": 0.1734,
      "velocity": 101,
      "chip": "ym2612"
    },
    {
      "channel": 2,
      "note": 62,
      "start": 9.9213,
      "duration": 0.1701,
      "velocity": 106,
      "chip": "ym2612"
    },
    {
      "channel": 0,
      "note": 50,
      "start": 10.0109,
      "duration": 0.0305,
      "velocity": 117,
      "chip": "ym2612"
    },
    {
      "channel": 0,
      "note": 74,
      "start": 10.1108,
      "duration": 0.0307,
      "velocity": 127,
      "chip": "ym2612"
    },
    {
      "channel": 1,
      "note": 50,
      "start": 10.1148,
      "duration": 0.1756,
      "velocity": 101,
      "chip": "ym2612"
    },
    {
      "channel": 2,
      "note": 62,
      "start": 10.119,
      "duration": 0.1724,
      "velocity": 106,
      "chip": "ym2612"
    },
    {
      "channel": 0,
      "note": 50,
      "start": 10.3106,
      "duration": 0.1821,
      "velocity": 101,
      "chip": "ym2612"
    },
    {
      "channel": 1,
      "note": 62,
      "start": 10.3148,
      "duration": 0.176,
      "velocity": 106,
      "chip": "ym2612"
    },
    {
      "channel": 2,
      "note": 50,
      "start": 10.3192,
      "duration": 0.0212,
      "velocity": 117,
      "chip": "ym2612"
    },
    {
      "channel": 0,
      "note": 74,
      "start": 10.4973,
      "duration": 0.0263,
      "velocity": 127,
      "chip": "ym2612"
    },
    {
      "channel": 1,
      "note": 50,
      "start": 10.5014,
      "duration": 0.0732,
      "velocity": 101,
      "chip": "ym2612"
    },
    {
      "channel": 2,
      "note": 62,
      "start": 10.5056,
      "duration": 0.0699,
      "velocity": 106,
      "chip": "ym2612"
    },
    {
      "channel": 0,
      "note": 50,
      "start": 10.5957,
      "duration": 0.0279,
      "velocity": 117,
      "chip": "ym2612"
    },
    {
      "channel": 1,
      "note": 55,
      "start": 10.5998,
      "duration": 0.1751,
      "velocity": 101,
      "chip": "ym2612"
    },
    {
      "channel": 2,
      "note": 67,
      "start": 10.6039,
      "duration": 0.12,
      "velocity": 106,
      "chip": "ym2612"
    },
    {
      "channel": 0,
      "note": 53,
      "start": 10.7939,
      "duration": 0.2825,
      "velocity": 101,
      "chip": "ym2612"
    },
    {
      "channel": 1,
      "note": 65,
      "start": 10.7981,
      "duration": 0.2794,
      "velocity": 106,
      "chip": "ym2612"
    },
    {
      "channel": 2,
      "note": 50,
      "start": 10.8025,
      "duration": 0.0212,
      "velocity": 117,
      "chip": "ym2612"
    },
    {
      "channel": 2,
      "note": 74,
      "start": 10.894,
      "duration": 0.0297,
      "velocity": 127,
      "chip": "ym2612"
    },
    {
      "channel": 0,
      "note": 50,
      "start": 11.0824,
      "duration": 0.0255,
      "velocity": 117,
      "chip": "ym2612"
    },
    {
      "channel": 1,
      "note": 50,
      "start": 11.0866,
      "duration": 0.1722,
      "velocity": 101,
      "chip": "ym2612"
    },
    {
      "channel": 2,
      "note": 62,
      "start": 11.091,
      "duration": 0.1663,
      "velocity": 106,
      "chip": "ym2612"
    },
    {
      "channel": 0,
      "note": 74,
      "start": 11.2776,
      "duration": 0.0293,
      "velocity": 127,
      "chip": "ym2612"
    },
    {
      "channel": 1,
      "note": 50,
      "start": 11.2817,
      "duration": 0.1754,
      "velocity": 101,
      "chip": "ym2612"
    },
    {
      "channel": 2,
      "note": 62,
      "start": 11.2858,
      "duration": 0.173,
      "velocity": 106,
      "chip": "ym2612"
    },
    {
      "channel": 0,
      "note": 50,
      "start": 11.4774,
      "duration": 0.1819,
      "velocity": 101,
      "chip": "ym2612"
    },
    {
      "channel": 1,
      "note": 62,
      "start": 11.4816,
      "duration": 0.1758,
      "velocity": 106,
      "chip": "ym2612"
    },
    {
      "channel": 2,
      "note": 50,
      "start": 11.486,
      "duration": 0.0222,
      "velocity": 117,
      "chip": "ym2612"
    },
    {
      "channel": 2,
      "note": 50,
      "start": 11.5778,
      "duration": 0.0304,
      "velocity": 117,
      "chip": "ym2612"
    },
    {
      "channel": 0,
      "note": 50,
      "start": 11.6638,
      "duration": 0.1783,
      "velocity": 101,
      "chip": "ym2612"
    },
    {
      "channel": 1,
      "note": 62,
      "start": 11.668,
      "duration": 0.1726,
      "velocity": 106,
      "chip": "ym2612"
    },
    {
      "channel": 2,
      "note": 74,
      "start": 11.6722,
      "duration": 0.0194,
      "velocity": 127,
      "chip": "ym2612"
    },
    {
      "channel": 0,
      "note": 50,
      "start": 11.8606,
      "duration": 0.1798,
      "velocity": 101,
      "chip": "ym2612"
    },
    {
      "channel": 1,
      "note": 62,
      "start": 11.8649,
      "duration": 0.1773,
      "velocity": 106,
      "chip": "ym2612"
    },
    {
      "channel": 2,
      "note": 50,
      "start": 11.8693,
      "duration": 0.021,
      "velocity": 117,
      "chip": "ym2612"
    },
    {
      "channel": 0,
      "note": 74,
      "start": 12.062,
      "duration": 0.0283,
      "velocity": 127,
      "chip": "ym2612"
    },
    {
      "channel": 1,
      "note": 50,
      "start": 12.066,
      "duration": 0.0745,
      "velocity": 101,
      "chip": "ym2612"
    },
    {
      "channel": 2,
      "note": 62,
      "start": 12.0702,
      "duration": 0.0712,
      "velocity": 106,
      "chip": "ym2612"
    },
    {
      "channel": 0,
      "note": 56,
      "start": 12.1618,
      "duration": 0.1798,
      "velocity": 101,
      "chip": "ym2612"
    },
    {
      "channel": 1,
      "note": 68,
      "start": 12.1661,
      "duration": 0.1245,
      "velocity": 106,
      "chip": "ym2612"
    },
    {
      "channel": 2,
      "note": 50,
      "start": 12.1704,
      "duration": 0.0199,
      "velocity": 117,
      "chip": "ym2612"
    },
    {
      "channel": 0,
      "note": 55,
      "start": 12.3461,
      "duration": 0.2797,
      "velocity": 101,
      "chip": "ym2612"
    },
    {
      "channel": 1,
      "note": 67,
      "start": 12.3503,
      "duration": 0.2763,
      "velocity": 106,
      "chip": "ym2612"
    },
    {
      "channel": 2,
      "note": 50,
      "start": 12.3547,
      "duration": 0.019,
      "velocity": 117,
      "chip": "ym2612"
    },
    {
      "channel": 2,
      "note": 74,
      "start": 12.445,
      "duration": 0.0288,
      "velocity": 127,
      "chip": "ym2612"
    },
    {
      "channel": 0,
      "note": 50,
      "start": 12.6443,
      "duration": 0.0303,
      "velocity": 117,
      "chip": "ym2612"
    },
    {
      "channel": 1,
      "note": 50,
      "start": 12.6484,
      "duration": 0.1772,
      "velocity": 101,
      "chip": "ym2612"
    },
    {
      "channel": 2,
      "note": 62,
      "start": 12.6526,
      "duration": 0.1714,
      "velocity": 106,
      "chip": "ym2612"
    },
    {
      "channel": 0,
      "note": 74,
      "start": 12.8441,
      "duration": 0.0295,
      "velocity": 127,
      "chip": "ym2612"
    },
    {
      "channel": 1,
      "note": 50,
      "start": 12.8482,
      "duration": 0.1757,
      "velocity": 101,
      "chip": "ym2612"
    },
    {
      "channel": 2,
      "note": 62,
      "start": 12.8523,
      "duration": 0.1737,
      "velocity": 106,
      "chip": "ym2612"
    },
    {
      "channel": 0,
      "note": 50,
      "start": 13.0302,
      "duration": 0.177,
      "velocity": 101,
      "chip": "ym2612"
    },
    {
      "channel": 1,
      "note": 50,
      "start": 13.0346,
      "duration": 0.0223,
      "velocity": 117,
      "chip": "ym2612"
    },
    {
      "channel": 2,
      "note": 62,
      "start": 13.0389,
      "duration": 0.17,
      "velocity": 106,
      "chip": "ym2612"
    },
    {
      "channel": 1,
      "note": 50,
      "start": 13.1278,
      "duration": 0.0305,
      "velocity": 117,
      "chip": "ym2612"
    },
    {
      "channel": 0,
      "note": 50,
      "start": 13.2272,
      "duration": 0.1807,
      "velocity": 101,
      "chip": "ym2612"
    },
    {
      "channel": 1,
      "note": 62,
      "start": 13.2314,
      "duration": 0.1758,
      "velocity": 106,
      "chip": "ym2612"
    },
    {
      "channel": 2,
      "note": 74,
      "start": 13.2356,
      "duration": 0.0226,
      "velocity": 127,
      "chip": "ym2612"
    },
    {
      "channel": 0,
      "note": 50,
      "start": 13.4272,
      "duration": 0.1809,
      "velocity": 101,
      "chip": "ym2612"
    },
    {
      "channel": 1,
      "note": 62,
      "start": 13.4314,
      "duration": 0.1759,
      "velocity": 106,
      "chip": "ym2612"
    },
    {
      "channel": 2,
      "note": 50,
      "start": 13.4358,
      "duration": 0.0212,
      "velocity": 117,
      "chip": "ym2612"
    },
    {
      "channel": 0,
      "note": 74,
      "start": 13.6124,
      "duration": 0.0288,
      "velocity": 127,
      "chip": "ym2612"
    },
    {
      "channel": 1,
      "note": 50,
      "start": 13.6165,
      "duration": 0.0748,
      "velocity": 101,
      "chip": "ym2612"
    },
    {
      "channel": 2,
      "note": 62,
      "start": 13.6206,
      "duration": 0.07,
      "velocity": 106,
      "chip": "ym2612"
    },
    {
      "channel": 0,
      "note": 60,
      "start": 13.7125,
      "duration": 0.1791,
      "velocity": 101,
      "chip": "ym2612"
    },
    {
      "channel": 1,
      "note": 50,
      "start": 13.7169,
      "duration": 0.0233,
      "velocity": 117,
      "chip": "ym2612"
    },
    {
      "channel": 2,
      "note": 72,
      "start": 13.7211,
      "duration": 0.1195,
      "velocity": 106,
      "chip": "ym2612"
    },
    {
      "channel": 0,
      "note": 50,
      "start": 13.9118,
      "duration": 0.0284,
      "velocity": 117,
      "chip": "ym2612"
    },
    {
      "channel": 1,
      "note": 57,
      "start": 13.9159,
      "duration": 0.2757,
      "velocity": 101,
      "chip": "ym2612"
    },
    {
      "channel": 2,
      "note": 69,
      "start": 13.9202,
      "duration": 0.2705,
      "velocity": 106,
      "chip": "ym2612"
    },
    {
      "channel": 0,
      "note": 74,
      "start": 14.0107,
      "duration": 0.0305,
      "velocity": 127,
      "chip": "ym2612"
    },
    {
      "channel": 0,
      "note": 50,
      "start": 14.0949,
      "duration": 0.0287,
      "velocity": 117,
      "chip": "ym2612"
    },
    {
      "channel": 0,
      "note": 65,
      "start": 14.1957,
      "duration": 0.0788,
      "velocity": 101,
      "chip": "ym2612"
    },
    {
      "channel": 1,
      "note": 77,
      "start": 14.1999,
      "duration": 0.074,
      "velocity": 106,
      "chip": "ym2612"
    },
    {
      "channel": 2,
      "note": 74,
      "start": 14.2041,
      "duration": 0.0204,
      "velocity": 127,
      "chip": "ym2612"
    },
    {
      "channel": 0,
      "note": 66,
      "start": 14.2947,
      "duration": 0.079,
      "velocity": 101,
      "chip": "ym2612"
    },
    {
      "channel": 1,
      "note": 74,
      "start": 14.2991,
      "duration": 0.0246,
      "velocity": 127,
      "chip": "ym2612"
    },
    {
      "channel": 2,
      "note": 78,
      "start": 14.3033,
      "duration": 0.0714,
      "velocity": 106,
      "chip": "ym2612"
    },
    {
      "channel": 0,
      "note": 67,
      "start": 14.3939,
      "duration": 0.0806,
      "velocity": 101,
      "chip": "ym2612"
    },
    {
      "channel": 1,
      "note": 79,
      "start": 14.3981,
      "duration": 0.0758,
      "velocity": 106,
      "chip": "ym2612"
    },
    {
      "channel": 2,
      "note": 50,
      "start": 14.4025,
      "duration": 0.0212,
      "velocity": 117,
      "chip": "ym2612"
    },
    {
      "channel": 0,
      "note": 60,
      "start": 14.4948,
      "duration": 0.079,
      "velocity": 101,
      "chip": "ym2612"
    },
    {
      "channel": 1,
      "note": 72,
      "start": 14.4991,
      "duration": 0.0757,
      "velocity": 106,
      "chip": "ym2612"
    },
    {
      "channel": 2,
      "note": 74,
      "start": 14.5033,
      "duration": 0.0205,
      "velocity": 127,
      "chip": "ym2612"
    },
    {
      "channel": 0,
      "note": 61,
      "start": 14.5789,
      "duration": 0.079,
      "velocity": 101,
      "chip": "ym2612"
    },
    {
      "channel": 1,
      "note": 73,
      "start": 14.5832,
      "duration": 0.0741,
      "velocity": 106,
      "chip": "ym2612"
    },
    {
      "channel": 2,
      "note": 74,
      "start": 14.5873,
      "duration": 0.0207,
      "velocity": 127,
      "chip": "ym2612"
    },
    {
      "channel": 0,
      "note": 74,
      "start": 14.6783,
      "duration": 0.0287,
      "velocity": 127,
      "chip": "ym2612"
    },
    {
      "channel": 1,
      "note": 62,
      "start": 14.6823,
      "duration": 0.0767,
      "velocity": 101,
      "chip": "ym2612"
    },
    {
      "channel": 2,
      "note": 74,
      "start": 14.6865,
      "duration": 0.0718,
      "velocity": 106,
      "chip": "ym2612"
    },
    {
      "channel": 0,
      "note": 55,
      "start": 14.7772,
      "duration": 0.0807,
      "velocity": 101,
      "chip": "ym2612"
    },
    {
      "channel": 1,
      "note": 67,
      "start": 14.7814,
      "duration": 0.0758,
      "velocity": 106,
      "chip": "ym2612"
    },
    {
      "channel": 2,
      "note": 50,
      "start": 14.7858,
      "duration": 0.0232,
      "velocity": 117,
      "chip": "ym2612"
    },
    {
      "channel": 0,
      "note": 56,
      "start": 14.8781,
      "duration": 0.0789,
      "velocity": 101,
      "chip": "ym2612"
    },
    {
      "channel": 1,
      "note": 68,
      "start": 14.8824,
      "duration": 0.0754,
      "velocity": 106,
      "chip": "ym2612"
    },
    {
      "channel": 2,
      "note": 50,
      "start": 14.8868,
      "duration": 0.0215,
      "velocity": 117,
      "chip": "ym2612"
    },
    {
      "channel": 0,
      "note": 57,
      "start": 14.9773,
      "duration": 0.0806,
      "velocity": 101,
      "chip": "ym2612"
    },
    {
      "channel": 1,
      "note": 74,
      "start": 14.9815,
      "duration": 0.0264,
      "velocity": 127,
      "chip": "ym2612"
    },
    {
      "channel": 2,
      "note": 69,
      "start": 14.9857,
      "duration": 0.0716,
      "velocity": 106,
      "chip": "ym2612"
    },
    {
      "channel": 0,
      "note": 53,
      "start": 15.0781,
      "duration": 0.0791,
      "velocity": 101,
      "chip": "ym2612"
    },
    {
      "channel": 1,
      "note": 65,
      "start": 15.0823,
      "duration": 0.0771,
      "velocity": 106,
      "chip": "ym2612"
    },
    {
      "channel": 2,
      "note": 50,
      "start": 15.0867,
      "duration": 0.0203,
      "velocity": 117,
      "chip": "ym2612"
    },
    {
      "channel": 0,
      "note": 73,
      "start": 15.1641,
      "duration": 0.0093,
      "velocity": 127,
      "chip": "ym2612"
    },
    {
      "channel": 1,
      "note": 54,
      "start": 15.1683,
      "duration": 0.0722,
      "velocity": 101,
      "chip": "ym2612"
    },
    {
      "channel": 2,
      "note": 66,
      "start": 15.1725,
      "duration": 0.0688,
      "velocity": 106,
      "chip": "ym2612"
    },
    {
      "channel": 0,
      "note": 74,
      "start": 15.1768,
      "duration": 0.0142,
      "velocity": 127,
      "chip": "ym2612"
    },
    {
      "channel": 0,
      "note": 50,
      "start": 15.261,
      "duration": 0.0293,
      "velocity": 117,
      "chip": "ym2612"
    },
    {
      "channel": 1,
      "note": 55,
      "start": 15.265,
      "duration": 0.0763,
      "velocity": 101,
      "chip": "ym2612"
    },
    {
      "channel": 2,
      "note": 67,
      "start": 15.2692,
      "duration": 0.0715,
      "velocity": 106,
      "chip": "ym2612"
    },
    {
      "channel": 0,
      "note": 74,
      "start": 15.3622,
      "duration": 0.0281,
      "velocity": 127,
      "chip": "ym2612"
    },
    {
      "channel": 1,
      "note": 48,
      "start": 15.3662,
      "duration": 0.0742,
      "velocity": 101,
      "chip": "ym2612"
    },
    {
      "channel": 2,
      "note": 60,
      "start": 15.3704,
      "duration": 0.0708,
      "velocity": 106,
      "chip": "ym2612"
    },
    {
      "channel": 0,
      "note": 49,
      "start": 15.4618,
      "duration": 0.0816,
      "velocity": 101,
      "chip": "ym2612"
    },
    {
      "channel": 1,
      "note": 50,
      "start": 15.4663,
      "duration": 0.024,
      "velocity": 117,
      "chip": "ym2612"
    },
    {
      "channel": 2,
      "note": 61,
      "start": 15.4704,
      "duration": 0.0715,
      "velocity": 106,
      "chip": "ym2612"
    },
    {
      "channel": 0,
      "note": 50,
      "start": 15.5606,
      "duration": 0.0819,
      "velocity": 101,
      "chip": "ym2612"
    },
    {
      "channel": 1,
      "note": 74,
      "start": 15.5648,
      "duration": 0.0263,
      "velocity": 127,
      "chip": "ym2612"
    },
    {
      "channel": 2,
      "note": 62,
      "start": 15.569,
      "duration": 0.0728,
      "velocity": 106,
      "chip": "ym2612"
    },
    {
      "channel": 0,
      "note": 51,
      "start": 15.6614,
      "duration": 0.0791,
      "velocity": 101,
      "chip": "ym2612"
    },
    {
      "channel": 1,
      "note": 63,
      "start": 15.6656,
      "duration": 0.0759,
      "velocity": 106,
      "chip": "ym2612"
    },
    {
      "channel": 2,
      "note": 74,
      "start": 15.6698,
      "duration": 0.0206,
      "velocity": 127,
      "chip": "ym2612"
    },
    {
      "channel": 0,
      "note": 53,
      "start": 15.7458,
      "duration": 0.1796,
      "velocity": 101,
      "chip": "ym2612"
    },
    {
      "channel": 1,
      "note": 65,
      "start": 15.7501,
      "duration": 0.1747,
      "velocity": 106,
      "chip": "ym2612"
    },
    {
      "channel": 2,
      "note": 50,
      "start": 15.7546,
      "duration": 0.0201,
      "velocity": 117,
      "chip": "ym2612"
    },
    {
      "channel": 0,
      "note": 53,
      "start": 15.9441,
      "duration": 0.1804,
      "velocity": 101,
      "chip": "ym2612"
    },
    {
      "channel": 1,
      "note": 65,
      "start": 15.9483,
      "duration": 0.1756,
      "velocity": 106,
      "chip": "ym2612"
    },
    {
      "channel": 2,
      "note": 74,
      "start": 15.9525,
      "duration": 0.0212,
      "velocity": 127,
      "chip": "ym2612"
    },
    {
      "channel": 0,
      "note": 53,
      "start": 16.1448,
      "duration": 0.179,
      "velocity": 101,
      "chip": "ym2612"
    },
    {
      "channel": 1,
      "note": 65,
      "start": 16.1491,
      "duration": 0.1757,
      "velocity": 106,
      "chip": "ym2612"
    },
    {
      "channel": 2,
      "note": 50,
      "start": 16.1535,
      "duration": 0.0202,
      "velocity": 117,
      "chip": "ym2612"
    },
    {
      "channel": 2,
      "note": 50,
      "start": 16.2443,
      "duration": 0.0306,
      "velocity": 117,
      "chip": "ym2612"
    },
    {
      "channel": 0,
      "note": 53,
      "start": 16.3289,
      "duration": 0.1798,
      "velocity": 101,
      "chip": "ym2612"
    },
    {
      "channel": 1,
      "note": 65,
      "start": 16.3331,
      "duration": 0.1742,
      "velocity": 106,
      "chip": "ym2612"
    },
    {
      "channel": 2,
      "note": 74,
      "start": 16.3373,
      "duration": 0.0197,
      "velocity": 127,
      "chip": "ym2612"
    },
    {
      "channel": 0,
      "note": 53,
      "start": 16.5273,
      "duration": 0.1798,
      "velocity": 101,
      "chip": "ym2612"
    },
    {
      "channel": 1,
      "note": 65,
      "start": 16.5316,
      "duration": 0.1773,
      "velocity": 106,
      "chip": "ym2612"
    },
    {
      "channel": 2,
      "note": 50,
      "start": 16.536,
      "duration": 0.0222,
      "velocity": 117,
      "chip": "ym2612"
    },
    {
      "channel": 0,
      "note": 74,
      "start": 16.7274,
      "duration": 0.0295,
      "velocity": 127,
      "chip": "ym2612"
    },
    {
      "channel": 1,
      "note": 53,
      "start": 16.7315,
      "duration": 0.0768,
      "velocity": 101,
      "chip": "ym2612"
    },
    {
      "channel": 2,
      "note": 65,
      "start": 16.7356,
      "duration": 0.0738,
      "velocity": 106,
      "chip": "ym2612"
    },
    {
      "channel": 0,
      "note": 50,
      "start": 16.8143,
      "duration": 0.026,
      "velocity": 117,
      "chip": "ym2612"
    },
    {
      "channel": 1,
      "note": 58,
      "start": 16.8183,
      "duration": 0.1721,
      "velocity": 101,
      "chip": "ym2612"
    },
    {
      "channel": 2,
      "note": 70,
      "start": 16.8227,
      "duration": 0.1179,
      "velocity": 106,
      "chip": "ym2612"
    },
    {
      "channel": 0,
      "note": 56,
      "start": 17.012,
      "duration": 0.2817,
      "velocity": 101,
      "chip": "ym2612"
    },
    {
      "channel": 1,
      "note": 50,
      "start": 17.0165,
      "duration": 0.0238,
      "velocity": 117,
      "chip": "ym2612"
    },
    {
      "channel": 2,
      "note": 68,
      "start": 17.0206,
      "duration": 0.274,
      "velocity": 106,
      "chip": "ym2612"
    },
    {
      "channel": 1,
      "note": 74,
      "start": 17.1127,
      "duration": 0.0276,
      "velocity": 127,
      "chip": "ym2612"
    },
    {
      "channel": 0,
      "note": 53,
      "start": 17.3106,
      "duration": 0.1798,
      "velocity": 101,
      "chip": "ym2612"
    },
    {
      "channel": 1,
      "note": 65,
      "start": 17.3149,
      "duration": 0.1777,
      "velocity": 106,
      "chip": "ym2612"
    },
    {
      "channel": 2,
      "note": 50,
      "start": 17.3193,
      "duration": 0.0221,
      "velocity": 117,
      "chip": "ym2612"
    },
    {
      "channel": 0,
      "note": 53,
      "start": 17.4971,
      "duration": 0.1784,
      "velocity": 101,
      "chip": "ym2612"
    },
    {
      "channel": 1,
      "note": 74,
      "start": 17.5013,
      "duration": 0.0224,
      "velocity": 127,
      "chip": "ym2612"
    },
    {
      "channel": 2,
      "note": 65,
      "start": 17.5055,
      "duration": 0.1685,
      "velocity": 106,
      "chip": "ym2612"
    },
    {
      "channel": 0,
      "note": 53,
      "start": 17.6942,
      "duration": 0.1812,
      "velocity": 101,
      "chip": "ym2612"
    },
    {
      "channel": 1,
      "note": 65,
      "start": 17.6984,
      "duration": 0.1756,
      "velocity": 106,
      "chip": "ym2612"
    },
    {
      "channel": 2,
      "note": 50,
      "start": 17.7027,
      "duration": 0.021,
      "velocity": 117,
      "chip": "ym2612"
    },
    {
      "channel": 2,
      "note": 50,
      "start": 17.7952,
      "duration": 0.0284,
      "velocity": 117,
      "chip": "ym2612"
    },
    {
      "channel": 0,
      "note": 53,
      "start": 17.8941,
      "duration": 0.1808,
      "velocity": 101,
      "chip": "ym2612"
    },
    {
      "channel": 1,
      "note": 65,
      "start": 17.8983,
      "duration": 0.1758,
      "velocity": 106,
      "chip": "ym2612"
    },
    {
      "channel": 2,
      "note": 74,
      "start": 17.9025,
      "duration": 0.0224,
      "velocity": 127,
      "chip": "ym2612"
    },
    {
      "channel": 0,
      "note": 50,
      "start": 18.0797,
      "duration": 0.0283,
      "velocity": 117,
      "chip": "ym2612"
    },
    {
      "channel": 1,
      "note": 53,
      "start": 18.0838,
      "duration": 0.1734,
      "velocity": 101,
      "chip": "ym2612"
    },
    {
      "channel": 2,
      "note": 65,
      "start": 18.0879,
      "duration": 0.1709,
      "velocity": 106,
      "chip": "ym2612"
    },
    {
      "channel": 0,
      "note": 53,
      "start": 18.2774,
      "duration": 0.0815,
      "velocity": 101,
      "chip": "ym2612"
    },
    {
      "channel": 1,
      "note": 65,
      "start": 18.2816,
      "duration": 0.0766,
      "velocity": 106,
      "chip": "ym2612"
    },
    {
      "channel": 2,
      "note": 74,
      "start": 18.2858,
      "duration": 0.0212,
      "velocity": 127,
      "chip": "ym2612"
    },
    {
      "channel": 0,
      "note": 59,
      "start": 18.3773,
      "duration": 0.1798,
      "velocity": 101,
      "chip": "ym2612"
    },
    {
      "channel": 1,
      "note": 50,
      "start": 18.3817,
      "duration": 0.0252,
      "velocity": 117,
      "chip": "ym2612"
    },
    {
      "channel": 2,
      "note": 71,
      "start": 18.3859,
      "duration": 0.1213,
      "velocity": 106,
      "chip": "ym2612"
    },
    {
      "channel": 0,
      "note": 58,
      "start": 18.5785,
      "duration": 0.2811,
      "velocity": 101,
      "chip": "ym2612"
    },
    {
      "channel": 1,
      "note": 50,
      "start": 18.5829,
      "duration": 0.024,
      "velocity": 117,
      "chip": "ym2612"
    },
    {
      "channel": 2,
      "note": 70,
      "start": 18.5871,
      "duration": 0.2716,
      "velocity": 106,
      "chip": "ym2612"
    },
    {
      "channel": 1,
      "note": 74,
      "start": 18.6774,
      "duration": 0.0296,
      "velocity": 127,
      "chip": "ym2612"
    },
    {
      "channel": 0,
      "note": 50,
      "start": 18.8638,
      "duration": 0.1766,
      "velocity": 101,
      "chip": "ym2612"
    },
    {
      "channel": 1,
      "note": 62,
      "start": 18.8681,
      "duration": 0.1739,
      "velocity": 106,
      "chip": "ym2612"
    },
    {
      "channel": 2,
      "note": 50,
      "start": 18.8729,
      "duration": 0.0176,
      "velocity": 117,
      "chip": "ym2612"
    },
    {
      "channel": 0,
      "note": 50,
      "start": 19.0608,
      "duration": 0.1805,
      "velocity": 101,
      "chip": "ym2612"
    },
    {
      "channel": 1,
      "note": 62,
      "start": 19.065,
      "duration": 0.1756,
      "velocity": 106,
      "chip": "ym2612"
    },
    {
      "channel": 2,
      "note": 74,
      "start": 19.0692,
      "duration": 0.0212,
      "velocity": 127,
      "chip": "ym2612"
    },
    {
      "channel": 0,
      "note": 50,
      "start": 19.2606,
      "duration": 0.181,
      "velocity": 101,
      "chip": "ym2612"
    },
    {
      "channel": 1,
      "note": 62,
      "start": 19.2648,
      "duration": 0.1759,
      "velocity": 106,
      "chip": "ym2612"
    },
    {
      "channel": 2,
      "note": 50,
      "start": 19.2692,
      "duration": 0.0221,
      "velocity": 117,
      "chip": "ym2612"
    },
    {
      "channel": 2,
      "note": 50,
      "start": 19.3442,
      "duration": 0.0295,
      "velocity": 117,
      "chip": "ym2612"
    },
    {
      "channel": 0,
      "note": 74,
      "start": 19.4462,
      "duration": 0.0274,
      "velocity": 127,
      "chip": "ym2612"
    },
    {
      "channel": 1,
      "note": 50,
      "start": 19.4503,
      "duration": 0.1735,
      "velocity": 101,
      "chip": "ym2612"
    },
    {
      "channel": 2,
      "note": 62,
      "start": 19.4544,
      "duration": 0.1711,
      "velocity": 106,
      "chip": "ym2612"
    },
    {
      "channel": 0,
      "note": 50,
      "start": 19.6445,
      "duration": 0.0303,
      "velocity": 117,
      "chip": "ym2612"
    },
    {
      "channel": 1,
      "note": 50,
      "start": 19.6485,
      "duration": 0.1753,
      "velocity": 101,
      "chip": "ym2612"
    },
    {
      "channel": 2,
      "note": 62,
      "start": 19.6527,
      "duration": 0.172,
      "velocity": 106,
      "chip": "ym2612"
    },
    {
      "channel": 0,
      "note": 50,
      "start": 19.8439,
      "duration": 0.082,
      "velocity": 101,
      "chip": "ym2612"
    },
    {
      "channel": 1,
      "note": 74,
      "start": 19.8482,
      "duration": 0.0264,
      "velocity": 127,
      "chip": "ym2612"
    },
    {
      "channel": 2,
      "note": 62,
      "start": 19.8523,
      "duration": 0.0718,
      "velocity": 106,
      "chip": "ym2612"
    },
    {
      "channel": 0,
      "note": 60,
      "start": 19.93,
      "duration": 0.177,
      "velocity": 101,
      "chip": "ym2612"
    },
    {
      "channel": 1,
      "note": 50,
      "start": 19.9344,
      "duration": 0.0225,
      "velocity": 117,
      "chip": "ym2612"
    },
    {
      "channel": 2,
      "note": 72,
      "start": 19.9386,
      "duration": 0.1186,
      "velocity": 106,
      "chip": "ym2612"
    },
    {
      "channel": 0,
      "note": 57,
      "start": 20.1285,
      "duration": 0.2816,
      "velocity": 101,
      "chip": "ym2612"
    },
    {
      "channel": 1,
      "note": 69,
      "start": 20.1327,
      "duration": 0.2768,
      "velocity": 106,
      "chip": "ym2612"
    },
    {
      "channel": 2,
      "note": 50,
      "start": 20.137,
      "duration": 0.02,
      "velocity": 117,
      "chip": "ym2612"
    },
    {
      "channel": 2,
      "note": 74,
      "start": 20.2286,
      "duration": 0.0284,
      "velocity": 127,
      "chip": "ym2612"
    },
    {
      "channel": 2,
      "note": 50,
      "start": 20.3276,
      "duration": 0.0294,
      "velocity": 117,
      "chip": "ym2612"
    },
    {
      "channel": 0,
      "note": 65,
      "start": 20.4273,
      "duration": 0.0835,
      "velocity": 101,
      "chip": "ym2612"
    },
    {
      "channel": 1,
      "note": 77,
      "start": 20.4316,
      "duration": 0.0758,
      "velocity": 106,
      "chip": "ym2612"
    },
    {
      "channel": 2,
      "note": 74,
      "start": 20.436,
      "duration": 0.0223,
      "velocity": 127,
      "chip": "ym2612"
    },
    {
      "channel": 0,
      "note": 66,
      "start": 20.515,
      "duration": 0.0777,
      "velocity": 101,
      "chip": "ym2612"
    },
    {
      "channel": 1,
      "note": 74,
      "start": 20.5193,
      "duration": 0.0221,
      "velocity": 127,
      "chip": "ym2612"
    },
    {
      "channel": 2,
      "note": 78,
      "start": 20.5238,
      "duration": 0.0698,
      "velocity": 106,
      "chip": "ym2612"
    },
    {
      "channel": 0,
      "note": 67,
      "start": 20.6106,
      "duration": 0.0816,
      "velocity": 101,
      "chip": "ym2612"
    },
    {
      "channel": 1,
      "note": 79,
      "start": 20.6149,
      "duration": 0.0767,
      "velocity": 106,
      "chip": "ym2612"
    },
    {
      "channel": 2,
      "note": 50,
      "start": 20.6195,
      "duration": 0.0221,
      "velocity": 117,
      "chip": "ym2612"
    },
    {
      "channel": 0,
      "note": 60,
      "start": 20.7106,
      "duration": 0.0816,
      "velocity": 101,
      "chip": "ym2612"
    },
    {
      "channel": 1,
      "note": 72,
      "start": 20.7148,
      "duration": 0.0758,
      "velocity": 106,
      "chip": "ym2612"
    },
    {
      "channel": 2,
      "note": 74,
      "start": 20.7193,
      "duration": 0.0211,
      "velocity": 127,
      "chip": "ym2612"
    },
    {
      "channel": 0,
      "note": 61,
      "start": 20.8129,
      "duration": 0.0776,
      "velocity": 101,
      "chip": "ym2612"
    },
    {
      "channel": 1,
      "note": 73,
      "start": 20.8173,
      "duration": 0.0744,
      "velocity": 106,
      "chip": "ym2612"
    },
    {
      "channel": 2,
      "note": 74,
      "start": 20.8218,
      "duration": 0.0196,
      "velocity": 127,
      "chip": "ym2612"
    },
    {
      "channel": 0,
      "note": 62,
      "start": 20.8986,
      "duration": 0.0761,
      "velocity": 101,
      "chip": "ym2612"
    },
    {
      "channel": 1,
      "note": 74,
      "start": 20.9029,
      "duration": 0.0726,
      "velocity": 106,
      "chip": "ym2612"
    },
    {
      "channel": 2,
      "note": 74,
      "start": 20.9075,
      "duration": 0.0162,
      "velocity": 127,
      "chip": "ym2612"
    },
    {
      "channel": 0,
      "note": 55,
      "start": 20.9951,
      "duration": 0.0813,
      "velocity": 101,
      "chip": "ym2612"
    },
    {
      "channel": 1,
      "note": 67,
      "start": 20.9994,
      "duration": 0.0756,
      "velocity": 106,
      "chip": "ym2612"
    },
    {
      "channel": 2,
      "note": 50,
      "start": 21.004,
      "duration": 0.0208,
      "velocity": 117,
      "chip": "ym2612"
    },
    {
      "channel": 0,
      "note": 50,
      "start": 21.0945,
      "duration": 0.0302,
      "velocity": 117,
      "chip": "ym2612"
    },
    {
      "channel": 1,
      "note": 56,
      "start": 21.0987,
      "duration": 0.078,
      "velocity": 101,
      "chip": "ym2612"
    },
    {
      "channel": 2,
      "note": 68,
      "start": 21.1029,
      "duration": 0.0712,
      "velocity": 106,
      "chip": "ym2612"
    },
    {
      "channel": 0,
      "note": 74,
      "start": 21.1941,
      "duration": 0.0317,
      "velocity": 127,
      "chip": "ym2612"
    },
    {
      "channel": 1,
      "note": 57,
      "start": 21.1982,
      "duration": 0.0773,
      "velocity": 101,
      "chip": "ym2612"
    },
    {
      "channel": 2,
      "note": 69,
      "start": 21.2025,
      "duration": 0.0724,
      "velocity": 106,
      "chip": "ym2612"
    },
    {
      "channel": 0,
      "note": 53,
      "start": 21.295,
      "duration": 0.0802,
      "velocity": 101,
      "chip": "ym2612"
    },
    {
      "channel": 1,
      "note": 65,
      "start": 21.2993,
      "duration": 0.077,
      "velocity": 106,
      "chip": "ym2612"
    },
    {
      "channel": 2,
      "note": 50,
      "start": 21.3037,
      "duration": 0.0222,
      "velocity": 117,
      "chip": "ym2612"
    },
    {
      "channel": 0,
      "note": 73,
      "start": 21.3807,
      "duration": 0.0051,
      "velocity": 127,
      "chip": "ym2612"
    },
    {
      "channel": 1,
      "note": 54,
      "start": 21.3848,
      "duration": 0.0742,
      "velocity": 101,
      "chip": "ym2612"
    },
    {
      "channel": 0,
      "note": 74,
      "start": 21.3891,
      "duration": 0.0198,
      "velocity": 127,
      "chip": "ym2612"
    },
    {
      "channel": 2,
      "note": 66,
      "start": 21.3935,
      "duration": 0.0663,
      "velocity": 106,
      "chip": "ym2612"
    },
    {
      "channel": 0,
      "note": 55,
      "start": 21.4775,
      "duration": 0.0826,
      "velocity": 101,
      "chip": "ym2612"
    },
    {
      "channel": 1,
      "note": 50,
      "start": 21.482,
      "duration": 0.0273,
      "velocity": 117,
      "chip": "ym2612"
    },
    {
      "channel": 2,
      "note": 67,
      "start": 21.4862,
      "duration": 0.0712,
      "velocity": 106,
      "chip": "ym2612"
    },
    {
      "channel": 0,
      "note": 48,
      "start": 21.5773,
      "duration": 0.0816,
      "velocity": 101,
      "chip": "ym2612"
    },
    {
      "channel": 1,
      "note": 60,
      "start": 21.5816,
      "duration": 0.0767,
      "velocity": 106,
      "chip": "ym2612"
    },
    {
      "channel": 2,
      "note": 74,
      "start": 21.586,
      "duration": 0.0225,
      "velocity": 127,
      "chip": "ym2612"
    },
    {
      "channel": 0,
      "note": 49,
      "start": 21.6773,
      "duration": 0.0808,
      "velocity": 101,
      "chip": "ym2612"
    },
    {
      "channel": 1,
      "note": 61,
      "start": 21.6816,
      "duration": 0.0772,
      "velocity": 106,
      "chip": "ym2612"
    },
    {
      "channel": 2,
      "note": 50,
      "start": 21.686,
      "duration": 0.022,
      "velocity": 117,
      "chip": "ym2612"
    },
    {
      "channel": 0,
      "note": 74,
      "start": 21.7797,
      "duration": 0.0283,
      "velocity": 127,
      "chip": "ym2612"
    },
    {
      "channel": 1,
      "note": 50,
      "start": 21.7838,
      "duration": 0.0749,
      "velocity": 101,
      "chip": "ym2612"
    },
    {
      "channel": 2,
      "note": 62,
      "start": 21.788,
      "duration": 0.072,
      "velocity": 106,
      "chip": "ym2612"
    },
    {
      "channel": 0,
      "note": 51,
      "start": 21.8686,
      "duration": 0.0749,
      "velocity": 101,
      "chip": "ym2612"
    },
    {
      "channel": 1,
      "note": 74,
      "start": 21.8731,
      "duration": 0.0172,
      "velocity": 127,
      "chip": "ym2612"
    },
    {
      "channel": 2,
      "note": 63,
      "start": 21.8776,
      "duration": 0.0653,
      "velocity": 106,
      "chip": "ym2612"
    },
    {
      "channel": 0,
      "note": 50,
      "start": 21.971,
      "duration": 0.1707,
      "velocity": 101,
      "chip": "ym2612"
    },
    {
      "channel": 1,
      "note": 62,
      "start": 21.9755,
      "duration": 0.1683,
      "velocity": 106,
      "chip": "ym2612"
    },
    {
      "channel": 2,
      "note": 50,
      "start": 21.9825,
      "duration": 0.0078,
      "velocity": 117,
      "chip": "ym2612"
    },
    {
      "channel": 0,
      "note": 74,
      "start": 22.1485,
      "duration": 0.0251,
      "velocity": 127,
      "chip": "ym2612"
    },
    {
      "channel": 1,
      "note": 50,
      "start": 22.1525,
      "duration": 0.1724,
      "velocity": 101,
      "chip": "ym2612"
    },
    {
      "channel": 2,
      "note": 62,
      "start": 22.1568,
      "duration": 0.169,
      "velocity": 106,
      "chip": "ym2612"
    },
    {
      "channel": 0,
      "note": 50,
      "start": 22.3448,
      "duration": 0.1789,
      "velocity": 101,
      "chip": "ym2612"
    },
    {
      "channel": 1,
      "note": 62,
      "start": 22.3491,
      "duration": 0.1754,
      "velocity": 106,
      "chip": "ym2612"
    },
    {
      "channel": 2,
      "note": 50,
      "start": 22.3535,
      "duration": 0.0202,
      "velocity": 117,
      "chip": "ym2612"
    },
    {
      "channel": 2,
      "note": 50,
      "start": 22.4443,
      "duration": 0.0294,
      "velocity": 117,
      "chip": "ym2612"
    },
    {
      "channel": 0,
      "note": 74,
      "start": 22.5449,
      "duration": 0.0287,
      "velocity": 127,
      "chip": "ym2612"
    },
    {
      "channel": 1,
      "note": 50,
      "start": 22.5491,
      "duration": 0.1764,
      "velocity": 101,
      "chip": "ym2612"
    },
    {
      "channel": 2,
      "note": 62,
      "start": 22.5533,
      "duration": 0.1707,
      "velocity": 106,
      "chip": "ym2612"
    },
    {
      "channel": 0,
      "note": 50,
      "start": 22.744,
      "duration": 0.1799,
      "velocity": 101,
      "chip": "ym2612"
    },
    {
      "channel": 1,
      "note": 62,
      "start": 22.7482,
      "duration": 0.1777,
      "velocity": 106,
      "chip": "ym2612"
    },
    {
      "channel": 2,
      "note": 50,
      "start": 22.7527,
      "duration": 0.021,
      "velocity": 117,
      "chip": "ym2612"
    },
    {
      "channel": 0,
      "note": 74,
      "start": 22.9306,
      "duration": 0.0263,
      "velocity": 127,
      "chip": "ym2612"
    },
    {
      "channel": 1,
      "note": 50,
      "start": 22.9346,
      "duration": 0.0733,
      "velocity": 101,
      "chip": "ym2612"
    },
    {
      "channel": 2,
      "note": 62,
      "start": 22.9388,
      "duration": 0.0684,
      "velocity": 106,
      "chip": "ym2612"
    },
    {
      "channel": 0,
      "note": 55,
      "start": 23.0285,
      "duration": 0.1794,
      "velocity": 101,
      "chip": "ym2612"
    },
    {
      "channel": 1,
      "note": 67,
      "start": 23.0326,
      "duration": 0.1258,
      "velocity": 106,
      "chip": "ym2612"
    },
    {
      "channel": 2,
      "note": 50,
      "start": 23.037,
      "duration": 0.0212,
      "velocity": 117,
      "chip": "ym2612"
    },
    {
      "channel": 0,
      "note": 53,
      "start": 23.2274,
      "duration": 0.2822,
      "velocity": 101,
      "chip": "ym2612"
    },
    {
      "channel": 1,
      "note": 50,
      "start": 23.2319,
      "duration": 0.0251,
      "velocity": 117,
      "chip": "ym2612"
    },
    {
      "channel": 2,
      "note": 65,
      "start": 23.236,
      "duration": 0.2748,
      "velocity": 106,
      "chip": "ym2612"
    },
    {
      "channel": 1,
      "note": 74,
      "start": 23.3281,
      "duration": 0.0289,
      "velocity": 127,
      "chip": "ym2612"
    },
    {
      "channel": 0,
      "note": 50,
      "start": 23.5158,
      "duration": 0.0245,
      "velocity": 117,
      "chip": "ym2612"
    },
    {
      "channel": 1,
      "note": 50,
      "start": 23.5199,
      "duration": 0.1722,
      "velocity": 101,
      "chip": "ym2612"
    },
    {
      "channel": 2,
      "note": 62,
      "start": 23.5243,
      "duration": 0.1663,
      "velocity": 106,
      "chip": "ym2612"
    },
    {
      "channel": 0,
      "note": 74,
      "start": 23.7122,
      "duration": 0.0281,
      "velocity": 127,
      "chip": "ym2612"
    },
    {
      "channel": 1,
      "note": 50,
      "start": 23.7162,
      "duration": 0.1755,
      "velocity": 101,
      "chip": "ym2612"
    },
    {
      "channel": 2,
      "note": 62,
      "start": 23.7204,
      "duration": 0.1732,
      "velocity": 106,
      "chip": "ym2612"
    },
    {
      "channel": 0,
      "note": 50,
      "start": 23.9106,
      "duration": 0.181,
      "velocity": 101,
      "chip": "ym2612"
    },
    {
      "channel": 1,
      "note": 50,
      "start": 23.915,
      "duration": 0.0252,
      "velocity": 117,
      "chip": "ym2612"
    },
    {
      "channel": 2,
      "note": 62,
      "start": 23.9192,
      "duration": 0.1716,
      "velocity": 106,
      "chip": "ym2612"
    },
    {
      "channel": 1,
      "note": 50,
      "start": 23.9952,
      "duration": 0.0284,
      "velocity": 117,
      "chip": "ym2612"
    },
    {
      "channel": 0,
      "note": 74,
      "start": 24.0963,
      "duration": 0.0273,
      "velocity": 127,
      "chip": "ym2612"
    },
    {
      "channel": 1,
      "note": 50,
      "start": 24.1003,
      "duration": 0.1735,
      "velocity": 101,
      "chip": "ym2612"
    },
    {
      "channel": 2,
      "note": 62,
      "start": 24.1045,
      "duration": 0.171,
      "velocity": 106,
      "chip": "ym2612"
    },
    {
      "channel": 0,
      "note": 50,
      "start": 24.2945,
      "duration": 0.0291,
      "velocity": 117,
      "chip": "ym2612"
    },
    {
      "channel": 1,
      "note": 50,
      "start": 24.2985,
      "duration": 0.1753,
      "velocity": 101,
      "chip": "ym2612"
    },
    {
      "channel": 2,
      "note": 62,
      "start": 24.3027,
      "duration": 0.172,
      "velocity": 106,
      "chip": "ym2612"
    },
    {
      "channel": 0,
      "note": 74,
      "start": 24.4941,
      "duration": 0.0307,
      "velocity": 127,
      "chip": "ym2612"
    },
    {
      "channel": 1,
      "note": 50,
      "start": 24.4982,
      "duration": 0.0757,
      "velocity": 101,
      "chip": "ym2612"
    },
    {
      "channel": 2,
      "note": 62,
      "start": 24.5023,
      "duration": 0.0726,
      "velocity": 106,
      "chip": "ym2612"
    },
    {
      "channel": 0,
      "note": 56,
      "start": 24.5794,
      "duration": 0.1777,
      "velocity": 101,
      "chip": "ym2612"
    },
    {
      "channel": 1,
      "note": 68,
      "start": 24.5836,
      "duration": 0.1247,
      "velocity": 106,
      "chip": "ym2612"
    },
    {
      "channel": 2,
      "note": 50,
      "start": 24.588,
      "duration": 0.019,
      "velocity": 117,
      "chip": "ym2612"
    },
    {
      "channel": 0,
      "note": 55,
      "start": 24.7772,
      "duration": 0.2809,
      "velocity": 101,
      "chip": "ym2612"
    },
    {
      "channel": 1,
      "note": 67,
      "start": 24.7814,
      "duration": 0.2776,
      "velocity": 106,
      "chip": "ym2612"
    },
    {
      "channel": 2,
      "note": 50,
      "start": 24.7858,
      "duration": 0.0224,
      "velocity": 117,
      "chip": "ym2612"
    },
    {
      "channel": 2,
      "note": 74,
      "start": 24.8774,
      "duration": 0.0297,
      "velocity": 127,
      "chip": "ym2612"
    },
    {
      "channel": 0,
      "note": 50,
      "start": 25.0785,
      "duration": 0.1798,
      "velocity": 101,
      "chip": "ym2612"
    },
    {
      "channel": 1,
      "note": 62,
      "start": 25.0828,
      "duration": 0.1766,
      "velocity": 106,
      "chip": "ym2612"
    },
    {
      "channel": 2,
      "note": 50,
      "start": 25.0896,
      "duration": 0.0174,
      "velocity": 117,
      "chip": "ym2612"
    },
    {
      "channel": 0,
      "note": 74,
      "start": 25.264,
      "duration": 0.0263,
      "velocity": 127,
      "chip": "ym2612"
    },
    {
      "channel": 1,
      "note": 50,
      "start": 25.2681,
      "duration": 0.1735,
      "velocity": 101,
      "chip": "ym2612"
    },
    {
      "channel": 2,
      "note": 62,
      "start": 25.2722,
      "duration": 0.171,
      "velocity": 106,
      "chip": "ym2612"
    },
    {
      "channel": 0,
      "note": 50,
      "start": 25.4612,
      "duration": 0.0291,
      "velocity": 117,
      "chip": "ym2612"
    },
    {
      "channel": 1,
      "note": 50,
      "start": 25.4652,
      "duration": 0.1753,
      "velocity": 101,
      "chip": "ym2612"
    },
    {
      "channel": 2,
      "note": 62,
      "start": 25.4693,
      "duration": 0.1729,
      "velocity": 106,
      "chip": "ym2612"
    },
    {
      "channel": 0,
      "note": 50,
      "start": 25.5609,
      "duration": 0.0293,
      "velocity": 117,
      "chip": "ym2612"
    },
    {
      "channel": 0,
      "note": 74,
      "start": 25.6608,
      "duration": 0.0295,
      "velocity": 127,
      "chip": "ym2612"
    },
    {
      "channel": 1,
      "note": 50,
      "start": 25.6648,
      "duration": 0.1757,
      "velocity": 101,
      "chip": "ym2612"
    },
    {
      "channel": 2,
      "note": 62,
      "start": 25.669,
      "duration": 0.1725,
      "velocity": 106,
      "chip": "ym2612"
    },
    {
      "channel": 0,
      "note": 50,
      "start": 25.8456,
      "duration": 0.1789,
      "velocity": 101,
      "chip": "ym2612"
    },
    {
      "channel": 1,
      "note": 62,
      "start": 25.8498,
      "duration": 0.1741,
      "velocity": 106,
      "chip": "ym2612"
    },
    {
      "channel": 2,
      "note": 50,
      "start": 25.8542,
      "duration": 0.0195,
      "velocity": 117,
      "chip": "ym2612"
    },
    {
      "channel": 0,
      "note": 74,
      "start": 26.0441,
      "duration": 0.0295,
      "velocity": 127,
      "chip": "ym2612"
    },
    {
      "channel": 1,
      "note": 50,
      "start": 26.0482,
      "duration": 0.0756,
      "velocity": 101,
      "chip": "ym2612"
    },
    {
      "channel": 2,
      "note": 62,
      "start": 26.0523,
      "duration": 0.0724,
      "velocity": 106,
      "chip": "ym2612"
    },
    {
      "channel": 0,
      "note": 50,
      "start": 26.1443,
      "duration": 0.0304,
      "velocity": 117,
      "chip": "ym2612"
    },
    {
      "channel": 1,
      "note": 60,
      "start": 26.1484,
      "duration": 0.1754,
      "velocity": 101,
      "chip": "ym2612"
    },
    {
      "channel": 2,
      "note": 72,
      "start": 26.1525,
      "duration": 0.1227,
      "velocity": 106,
      "chip": "ym2612"
    },
    {
      "channel": 0,
      "note": 57,
      "start": 26.328,
      "duration": 0.2807,
      "velocity": 101,
      "chip": "ym2612"
    },
    {
      "channel": 1,
      "note": 50,
      "start": 26.3324,
      "duration": 0.0258,
      "velocity": 117,
      "chip": "ym2612"
    },
    {
      "channel": 2,
      "note": 69,
      "start": 26.3366,
      "duration": 0.2707,
      "velocity": 106,
      "chip": "ym2612"
    },
    {
      "channel": 1,
      "note": 74,
      "start": 26.4276,
      "duration": 0.0307,
      "velocity": 127,
      "chip": "ym2612"
    },
    {
      "channel": 0,
      "note": 50,
      "start": 26.6274,
      "duration": 0.0815,
      "velocity": 101,
      "chip": "ym2612"
    },
    {
      "channel": 1,
      "note": 62,
      "start": 26.6316,
      "duration": 0.0766,
      "velocity": 106,
      "chip": "ym2612"
    },
    {
      "channel": 2,
      "note": 50,
      "start": 26.636,
      "duration": 0.021,
      "velocity": 117,
      "chip": "ym2612"
    },
    {
      "channel": 0,
      "note": 51,
      "start": 26.7285,
      "duration": 0.0795,
      "velocity": 101,
      "chip": "ym2612"
    },
    {
      "channel": 1,
      "note": 63,
      "start": 26.7327,
      "duration": 0.0746,
      "velocity": 106,
      "chip": "ym2612"
    },
    {
      "channel": 2,
      "note": 50,
      "start": 26.737,
      "duration": 0.02,
      "velocity": 117,
      "chip": "ym2612"
    },
    {
      "channel": 0,
      "note": 74,
      "start": 26.8286,
      "duration": 0.0283,
      "velocity": 127,
      "chip": "ym2612"
    },
    {
      "channel": 1,
      "note": 53,
      "start": 26.8327,
      "duration": 0.0767,
      "velocity": 101,
      "chip": "ym2612"
    },
    {
      "channel": 2,
      "note": 65,
      "start": 26.8368,
      "duration": 0.0737,
      "velocity": 106,
      "chip": "ym2612"
    },
    {
      "channel": 0,
      "note": 74,
      "start": 26.9152,
      "duration": 0.0251,
      "velocity": 127,
      "chip": "ym2612"
    },
    {
      "channel": 1,
      "note": 54,
      "start": 26.9192,
      "duration": 0.0721,
      "velocity": 101,
      "chip": "ym2612"
    },
    {
      "channel": 2,
      "note": 66,
      "start": 26.9236,
      "duration": 0.0686,
      "velocity": 106,
      "chip": "ym2612"
    },
    {
      "channel": 0,
      "note": 50,
      "start": 27.0124,
      "duration": 0.0279,
      "velocity": 117,
      "chip": "ym2612"
    },
    {
      "channel": 1,
      "note": 56,
      "start": 27.0165,
      "duration": 0.076,
      "velocity": 101,
      "chip": "ym2612"
    },
    {
      "channel": 2,
      "note": 68,
      "start": 27.0206,
      "duration": 0.0727,
      "velocity": 106,
      "chip": "ym2612"
    },
    {
      "channel": 0,
      "note": 58,
      "start": 27.1108,
      "duration": 0.0825,
      "velocity": 101,
      "chip": "ym2612"
    },
    {
      "channel": 1,
      "note": 50,
      "start": 27.1152,
      "duration": 0.0251,
      "velocity": 117,
      "chip": "ym2612"
    },
    {
      "channel": 2,
      "note": 70,
      "start": 27.1194,
      "duration": 0.0734,
      "velocity": 106,
      "chip": "ym2612"
    },
    {
      "channel": 0,
      "note": 74,
      "start": 27.211,
      "duration": 0.0293,
      "velocity": 127,
      "chip": "ym2612"
    },
    {
      "channel": 1,
      "note": 60,
      "start": 27.215,
      "duration": 0.0764,
      "velocity": 101,
      "chip": "ym2612"
    },
    {
      "channel": 2,
      "note": 72,
      "start": 27.2192,
      "duration": 0.0732,
      "velocity": 106,
      "chip": "ym2612"
    },
    {
      "channel": 0,
      "note": 74,
      "start": 27.3108,
      "duration": 0.0295,
      "velocity": 127,
      "chip": "ym2612"
    },
    {
      "channel": 1,
      "note": 62,
      "start": 27.3148,
      "duration": 0.0766,
      "velocity": 101,
      "chip": "ym2612"
    },
    {
      "channel": 2,
      "note": 74,
      "start": 27.319,
      "duration": 0.0733,
      "velocity": 106,
      "chip": "ym2612"
    },
    {
      "channel": 0,
      "note": 74,
      "start": 27.4108,
      "duration": 0.0295,
      "velocity": 127,
      "chip": "ym2612"
    },
    {
      "channel": 1,
      "note": 63,
      "start": 27.4148,
      "duration": 0.0756,
      "velocity": 101,
      "chip": "ym2612"
    },
    {
      "channel": 2,
      "note": 75,
      "start": 27.419,
      "duration": 0.0725,
      "velocity": 106,
      "chip": "ym2612"
    },
    {
      "channel": 0,
      "note": 74,
      "start": 27.4962,
      "duration": 0.0274,
      "velocity": 127,
      "chip": "ym2612"
    },
    {
      "channel": 1,
      "note": 62,
      "start": 27.5003,
      "duration": 0.0744,
      "velocity": 101,
      "chip": "ym2612"
    },
    {
      "channel": 2,
      "note": 74,
      "start": 27.5044,
      "duration": 0.0695,
      "velocity": 106,
      "chip": "ym2612"
    },
    {
      "channel": 0,
      "note": 74,
      "start": 27.5952,
      "duration": 0.0284,
      "velocity": 127,
      "chip": "ym2612"
    },
    {
      "channel": 1,
      "note": 58,
      "start": 27.5993,
      "duration": 0.0754,
      "velocity": 101,
      "chip": "ym2612"
    },
    {
      "channel": 2,
      "note": 70,
      "start": 27.6035,
      "duration": 0.0721,
      "velocity": 106,
      "chip": "ym2612"
    },
    {
      "channel": 0,
      "note": 74,
      "start": 27.6941,
      "duration": 0.0295,
      "velocity": 127,
      "chip": "ym2612"
    },
    {
      "channel": 1,
      "note": 57,
      "start": 27.6982,
      "duration": 0.0756,
      "velocity": 101,
      "chip": "ym2612"
    },
    {
      "channel": 2,
      "note": 69,
      "start": 27.7023,
      "duration": 0.0724,
      "velocity": 106,
      "chip": "ym2612"
    },
    {
      "channel": 0,
      "note": 56,
      "start": 27.794,
      "duration": 0.0816,
      "velocity": 101,
      "chip": "ym2612"
    },
    {
      "channel": 1,
      "note": 68,
      "start": 27.7982,
      "duration": 0.0767,
      "velocity": 106,
      "chip": "ym2612"
    },
    {
      "channel": 2,
      "note": 50,
      "start": 27.8025,
      "duration": 0.0224,
      "velocity": 117,
      "chip": "ym2612"
    },
    {
      "channel": 0,
      "note": 55,
      "start": 27.8939,
      "duration": 0.081,
      "velocity": 101,
      "chip": "ym2612"
    },
    {
      "channel": 1,
      "note": 50,
      "start": 27.8984,
      "duration": 0.0265,
      "velocity": 117,
      "chip": "ym2612"
    },
    {
      "channel": 2,
      "note": 67,
      "start": 27.9025,
      "duration": 0.0716,
      "velocity": 106,
      "chip": "ym2612"
    },
    {
      "channel": 0,
      "note": 50,
      "start": 27.9798,
      "duration": 0.0284,
      "velocity": 117,
      "chip": "ym2612"
    },
    {
      "channel": 1,
      "note": 53,
      "start": 27.9839,
      "duration": 0.0741,
      "velocity": 101,
      "chip": "ym2612"
    },
    {
      "channel": 2,
      "note": 65,
      "start": 27.988,
      "duration": 0.0693,
      "velocity": 106,
      "chip": "ym2612"
    },
    {
      "channel": 0,
      "note": 51,
      "start": 28.0785,
      "duration": 0.0803,
      "velocity": 101,
      "chip": "ym2612"
    },
    {
      "channel": 1,
      "note": 50,
      "start": 28.0828,
      "duration": 0.0253,
      "velocity": 117,
      "chip": "ym2612"
    },
    {
      "channel": 2,
      "note": 63,
      "start": 28.087,
      "duration": 0.0711,
      "velocity": 106,
      "chip": "ym2612"
    },
    {
      "channel": 0,
      "note": 50,
      "start": 28.1775,
      "duration": 0.1805,
      "velocity": 101,
      "chip": "ym2612"
    },
    {
      "channel": 1,
      "note": 62,
      "start": 28.1818,
      "duration": 0.1755,
      "velocity": 106,
      "chip": "ym2612"
    },
    {
      "channel": 2,
      "note": 50,
      "start": 28.1884,
      "duration": 0.0197,
      "velocity": 117,
      "chip": "ym2612"
    },
    {
      "channel": 0,
      "note": 74,
      "start": 28.3786,
      "duration": 0.0284,
      "velocity": 127,
      "chip": "ym2612"
    },
    {
      "channel": 1,
      "note": 50,
      "start": 28.3827,
      "duration": 0.1758,
      "velocity": 101,
      "chip": "ym2612"
    },
    {
      "channel": 2,
      "note": 62,
      "start": 28.3868,
      "duration": 0.1727,
      "velocity": 106,
      "chip": "ym2612"
    },
    {
      "channel": 0,
      "note": 50,
      "start": 28.5643,
      "duration": 0.026,
      "velocity": 117,
      "chip": "ym2612"
    },
    {
      "channel": 1,
      "note": 50,
      "start": 28.5683,
      "duration": 0.1733,
      "velocity": 101,
      "chip": "ym2612"
    },
    {
      "channel": 2,
      "note": 62,
      "start": 28.5727,
      "duration": 0.1699,
      "velocity": 106,
      "chip": "ym2612"
    },
    {
      "channel": 0,
      "note": 50,
      "start": 28.6622,
      "duration": 0.0281,
      "velocity": 117,
      "chip": "ym2612"
    },
    {
      "channel": 0,
      "note": 74,
      "start": 28.7608,
      "duration": 0.0295,
      "velocity": 127,
      "chip": "ym2612"
    },
    {
      "channel": 1,
      "note": 50,
      "start": 28.7648,
      "duration": 0.1756,
      "velocity": 101,
      "chip": "ym2612"
    },
    {
      "channel": 2,
      "note": 62,
      "start": 28.769,
      "duration": 0.1724,
      "velocity": 106,
      "chip": "ym2612"
    },
    {
      "channel": 0,
      "note": 50,
      "start": 28.9606,
      "duration": 0.1821,
      "velocity": 101,
      "chip": "ym2612"
    },
    {
      "channel": 1,
      "note": 62,
      "start": 28.9648,
      "duration": 0.176,
      "velocity": 106,
      "chip": "ym2612"
    },
    {
      "channel": 2,
      "note": 50,
      "start": 28.9692,
      "duration": 0.0212,
      "velocity": 117,
      "chip": "ym2612"
    },
    {
      "channel": 0,
      "note": 74,
      "start": 29.1473,
      "duration": 0.0263,
      "velocity": 127,
      "chip": "ym2612"
    },
    {
      "channel": 1,
      "note": 50,
      "start": 29.1514,
      "duration": 0.0733,
      "velocity": 101,
      "chip": "ym2612"
    },
    {
      "channel": 2,
      "note": 62,
      "start": 29.1556,
      "duration": 0.0699,
      "velocity": 106,
      "chip": "ym2612"
    },
    {
      "channel": 0,
      "note": 50,
      "start": 29.2445,
      "duration": 0.0291,
      "velocity": 117,
      "chip": "ym2612"
    },
    {
      "channel": 1,
      "note": 55,
      "start": 29.2485,
      "duration": 0.1752,
      "velocity": 101,
      "chip": "ym2612"
    },
    {
      "channel": 2,
      "note": 67,
      "start": 29.2527,
      "duration": 0.1212,
      "velocity": 106,
      "chip": "ym2612"
    },
    {
      "channel": 0,
      "note": 53,
      "start": 29.4439,
      "duration": 0.2824,
      "velocity": 101,
      "chip": "ym2612"
    },
    {
      "channel": 1,
      "note": 65,
      "start": 29.4481,
      "duration": 0.2793,
      "velocity": 106,
      "chip": "ym2612"
    },
    {
      "channel": 2,
      "note": 50,
      "start": 29.4525,
      "duration": 0.0224,
      "velocity": 117,
      "chip": "ym2612"
    },
    {
      "channel": 2,
      "note": 74,
      "start": 29.5441,
      "duration": 0.0308,
      "velocity": 127,
      "chip": "ym2612"
    },
    {
      "channel": 0,
      "note": 50,
      "start": 29.7324,
      "duration": 0.0268,
      "velocity": 117,
      "chip": "ym2612"
    },
    {
      "channel": 1,
      "note": 50,
      "start": 29.7366,
      "duration": 0.1722,
      "velocity": 101,
      "chip": "ym2612"
    },
    {
      "channel": 2,
      "note": 62,
      "start": 29.7409,
      "duration": 0.1664,
      "velocity": 106,
      "chip": "ym2612"
    },
    {
      "channel": 0,
      "note": 74,
      "start": 29.9276,
      "duration": 0.0293,
      "velocity": 127,
      "chip": "ym2612"
    },
    {
      "channel": 1,
      "note": 50,
      "start": 29.9317,
      "duration": 0.1754,
      "velocity": 101,
      "chip": "ym2612"
    },
    {
      "channel": 2,
      "note": 62,
      "start": 29.9358,
      "duration": 0.173,
      "velocity": 106,
      "chip": "ym2612"
    },
    {
      "channel": 0,
      "note": 50,
      "start": 30.1287,
      "duration": 0.1819,
      "velocity": 101,
      "chip": "ym2612"
    },
    {
      "channel": 1,
      "note": 62,
      "start": 30.1329,
      "duration": 0.1757,
      "velocity": 106,
      "chip": "ym2612"
    },
    {
      "channel": 2,
      "note": 50,
      "start": 30.1373,
      "duration": 0.0197,
      "velocity": 117,
      "chip": "ym2612"
    },
    {
      "channel": 2,
      "note": 50,
      "start": 30.2278,
      "duration": 0.0293,
      "velocity": 117,
      "chip": "ym2612"
    },
    {
      "channel": 0,
      "note": 50,
      "start": 30.3151,
      "duration": 0.1782,
      "velocity": 101,
      "chip": "ym2612"
    },
    {
      "channel": 1,
      "note": 62,
      "start": 30.3193,
      "duration": 0.1726,
      "velocity": 106,
      "chip": "ym2612"
    },
    {
      "channel": 2,
      "note": 74,
      "start": 30.3236,
      "duration": 0.0168,
      "velocity": 127,
      "chip": "ym2612"
    },
    {
      "channel": 0,
      "note": 50,
      "start": 30.5106,
      "duration": 0.1798,
      "velocity": 101,
      "chip": "ym2612"
    },
    {
      "channel": 1,
      "note": 62,
      "start": 30.5149,
      "duration": 0.1773,
      "velocity": 106,
      "chip": "ym2612"
    },
    {
      "channel": 2,
      "note": 50,
      "start": 30.5193,
      "duration": 0.021,
      "velocity": 117,
      "chip": "ym2612"
    },
    {
      "channel": 0,
      "note": 74,
      "start": 30.7108,
      "duration": 0.0295,
      "velocity": 127,
      "chip": "ym2612"
    },
    {
      "channel": 1,
      "note": 50,
      "start": 30.7148,
      "duration": 0.0756,
      "velocity": 101,
      "chip": "ym2612"
    },
    {
      "channel": 2,
      "note": 62,
      "start": 30.719,
      "duration": 0.0724,
      "velocity": 106,
      "chip": "ym2612"
    },
    {
      "channel": 0,
      "note": 56,
      "start": 30.8106,
      "duration": 0.1799,
      "velocity": 101,
      "chip": "ym2612"
    },
    {
      "channel": 1,
      "note": 68,
      "start": 30.8148,
      "duration": 0.1269,
      "velocity": 106,
      "chip": "ym2612"
    },
    {
      "channel": 2,
      "note": 50,
      "start": 30.8192,
      "duration": 0.0212,
      "velocity": 117,
      "chip": "ym2612"
    },
    {
      "channel": 0,
      "note": 55,
      "start": 30.9949,
      "duration": 0.2809,
      "velocity": 101,
      "chip": "ym2612"
    },
    {
      "channel": 1,
      "note": 67,
      "start": 30.9991,
      "duration": 0.2776,
      "velocity": 106,
      "chip": "ym2612"
    },
    {
      "channel": 2,
      "note": 50,
      "start": 31.0035,
      "duration": 0.0202,
      "velocity": 117,
      "chip": "ym2612"
    },
    {
      "channel": 2,
      "note": 74,
      "start": 31.095,
      "duration": 0.03,
      "velocity": 127,
      "chip": "ym2612"
    },
    {
      "channel": 0,
      "note": 50,
      "start": 31.2943,
      "duration": 0.0303,
      "velocity": 117,
      "chip": "ym2612"
    },
    {
      "channel": 1,
      "note": 50,
      "start": 31.2984,
      "duration": 0.1772,
      "velocity": 101,
      "chip": "ym2612"
    },
    {
      "channel": 2,
      "note": 62,
      "start": 31.3026,
      "duration": 0.1714,
      "velocity": 106,
      "chip": "ym2612"
    },
    {
      "channel": 0,
      "note": 74,
      "start": 31.4953,
      "duration": 0.0283,
      "velocity": 127,
      "chip": "ym2612"
    },
    {
      "channel": 1,
      "note": 50,
      "start": 31.4994,
      "duration": 0.1758,
      "velocity": 101,
      "chip": "ym2612"
    },
    {
      "channel": 2,
      "note": 62,
      "start": 31.5035,
      "duration": 0.1737,
      "velocity": 106,
      "chip": "ym2612"
    },
    {
      "channel": 0,
      "note": 50,
      "start": 31.6814,
      "duration": 0.177,
      "velocity": 101,
      "chip": "ym2612"
    },
    {
      "channel": 1,
      "note": 50,
      "start": 31.6859,
      "duration": 0.021,
      "velocity": 117,
      "chip": "ym2612"
    },
    {
      "channel": 2,
      "note": 62,
      "start": 31.6902,
      "duration": 0.1699,
      "velocity": 106,
      "chip": "ym2612"
    },
    {
      "channel": 1,
      "note": 50,
      "start": 31.779,
      "duration": 0.0279,
      "velocity": 117,
      "chip": "ym2612"
    },
    {
      "channel": 0,
      "note": 50,
      "start": 31.8772,
      "duration": 0.1807,
      "velocity": 101,
      "chip": "ym2612"
    },
    {
      "channel": 1,
      "note": 62,
      "start": 31.8814,
      "duration": 0.1759,
      "velocity": 106,
      "chip": "ym2612"
    },
    {
      "channel": 2,
      "note": 74,
      "start": 31.8856,
      "duration": 0.0215,
      "velocity": 127,
      "chip": "ym2612"
    },
    {
      "channel": 0,
      "note": 50,
      "start": 32.0772,
      "duration": 0.1809,
      "velocity": 101,
      "chip": "ym2612"
    },
    {
      "channel": 1,
      "note": 62,
      "start": 32.0814,
      "duration": 0.1759,
      "velocity": 106,
      "chip": "ym2612"
    },
    {
      "channel": 2,
      "note": 50,
      "start": 32.0858,
      "duration": 0.0212,
      "velocity": 117,
      "chip": "ym2612"
    },
    {
      "channel": 0,
      "note": 74,
      "start": 32.2624,
      "duration": 0.0288,
      "velocity": 127,
      "chip": "ym2612"
    },
    {
      "channel": 1,
      "note": 50,
      "start": 32.2665,
      "duration": 0.0748,
      "velocity": 101,
      "chip": "ym2612"
    },
    {
      "channel": 2,
      "note": 62,
      "start": 32.2706,
      "duration": 0.07,
      "velocity": 106,
      "chip": "ym2612"
    },
    {
      "channel": 0,
      "note": 60,
      "start": 32.3614,
      "duration": 0.1789,
      "velocity": 101,
      "chip": "ym2612"
    },
    {
      "channel": 1,
      "note": 50,
      "start": 32.3658,
      "duration": 0.0245,
      "velocity": 117,
      "chip": "ym2612"
    },
    {
      "channel": 2,
      "note": 72,
      "start": 32.37,
      "duration": 0.1207,
      "velocity": 106,
      "chip": "ym2612"
    },
    {
      "channel": 0,
      "note": 50,
      "start": 32.5618,
      "duration": 0.0296,
      "velocity": 117,
      "chip": "ym2612"
    },
    {
      "channel": 1,
      "note": 57,
      "start": 32.5659,
      "duration": 0.2756,
      "velocity": 101,
      "chip": "ym2612"
    },
    {
      "channel": 2,
      "note": 69,
      "start": 32.5702,
      "duration": 0.2705,
      "velocity": 106,
      "chip": "ym2612"
    },
    {
      "channel": 0,
      "note": 74,
      "start": 32.6607,
      "duration": 0.0317,
      "velocity": 127,
      "chip": "ym2612"
    },
    {
      "channel": 0,
      "note": 50,
      "start": 32.7449,
      "duration": 0.0298,
      "velocity": 117,
      "chip": "ym2612"
    },
    {
      "channel": 0,
      "note": 65,
      "start": 32.8457,
      "duration": 0.0789,
      "velocity": 101,
      "chip": "ym2612"
    },
    {
      "channel": 1,
      "note": 77,
      "start": 32.8499,
      "duration": 0.074,
      "velocity": 106,
      "chip": "ym2612"
    },
    {
      "channel": 2,
      "note": 74,
      "start": 32.854,
      "duration": 0.0217,
      "velocity": 127,
      "chip": "ym2612"
    },
    {
      "channel": 0,
      "note": 66,
      "start": 32.9448,
      "duration": 0.0789,
      "velocity": 101,
      "chip": "ym2612"
    },
    {
      "channel": 1,
      "note": 74,
      "start": 32.9491,
      "duration": 0.0246,
      "velocity": 127,
      "chip": "ym2612"
    },
    {
      "channel": 2,
      "note": 78,
      "start": 32.9533,
      "duration": 0.0714,
      "velocity": 106,
      "chip": "ym2612"
    },
    {
      "channel": 0,
      "note": 67,
      "start": 33.0439,
      "duration": 0.0806,
      "velocity": 101,
      "chip": "ym2612"
    },
    {
      "channel": 1,
      "note": 79,
      "start": 33.0481,
      "duration": 0.0758,
      "velocity": 106,
      "chip": "ym2612"
    },
    {
      "channel": 2,
      "note": 50,
      "start": 33.0525,
      "duration": 0.0212,
      "velocity": 117,
      "chip": "ym2612"
    },
    {
      "channel": 0,
      "note": 60,
      "start": 33.146,
      "duration": 0.0778,
      "velocity": 101,
      "chip": "ym2612"
    },
    {
      "channel": 1,
      "note": 72,
      "start": 33.1502,
      "duration": 0.0746,
      "velocity": 106,
      "chip": "ym2612"
    },
    {
      "channel": 2,
      "note": 74,
      "start": 33.1545,
      "duration": 0.0193,
      "velocity": 127,
      "chip": "ym2612"
    },
    {
      "channel": 0,
      "note": 61,
      "start": 33.229,
      "duration": 0.0789,
      "velocity": 101,
      "chip": "ym2612"
    },
    {
      "channel": 1,
      "note": 73,
      "start": 33.2332,
      "duration": 0.0741,
      "velocity": 106,
      "chip": "ym2612"
    },
    {
      "channel": 2,
      "note": 74,
      "start": 33.2373,
      "duration": 0.0206,
      "velocity": 127,
      "chip": "ym2612"
    },
    {
      "channel": 0,
      "note": 74,
      "start": 33.3294,
      "duration": 0.0275,
      "velocity": 127,
      "chip": "ym2612"
    },
    {
      "channel": 1,
      "note": 62,
      "start": 33.3335,
      "duration": 0.0755,
      "velocity": 101,
      "chip": "ym2612"
    },
    {
      "channel": 2,
      "note": 74,
      "start": 33.3376,
      "duration": 0.0707,
      "velocity": 106,
      "chip": "ym2612"
    },
    {
      "channel": 0,
      "note": 55,
      "start": 33.4285,
      "duration": 0.0805,
      "velocity": 101,
      "chip": "ym2612"
    },
    {
      "channel": 1,
      "note": 67,
      "start": 33.4327,
      "duration": 0.0757,
      "velocity": 106,
      "chip": "ym2612"
    },
    {
      "channel": 2,
      "note": 50,
      "start": 33.437,
      "duration": 0.0207,
      "velocity": 117,
      "chip": "ym2612"
    },
    {
      "channel": 0,
      "note": 56,
      "start": 33.5281,
      "duration": 0.0801,
      "velocity": 101,
      "chip": "ym2612"
    },
    {
      "channel": 1,
      "note": 68,
      "start": 33.5324,
      "duration": 0.0767,
      "velocity": 106,
      "chip": "ym2612"
    },
    {
      "channel": 2,
      "note": 50,
      "start": 33.5368,
      "duration": 0.0202,
      "velocity": 117,
      "chip": "ym2612"
    },
    {
      "channel": 0,
      "note": 57,
      "start": 33.6273,
      "duration": 0.0806,
      "velocity": 101,
      "chip": "ym2612"
    },
    {
      "channel": 1,
      "note": 74,
      "start": 33.6315,
      "duration": 0.0264,
      "velocity": 127,
      "chip": "ym2612"
    },
    {
      "channel": 2,
      "note": 69,
      "start": 33.6357,
      "duration": 0.0716,
      "velocity": 106,
      "chip": "ym2612"
    },
    {
      "channel": 0,
      "note": 53,
      "start": 33.7281,
      "duration": 0.0791,
      "velocity": 101,
      "chip": "ym2612"
    },
    {
      "channel": 1,
      "note": 65,
      "start": 33.7323,
      "duration": 0.0771,
      "velocity": 106,
      "chip": "ym2612"
    },
    {
      "channel": 2,
      "note": 50,
      "start": 33.7367,
      "duration": 0.0203,
      "velocity": 117,
      "chip": "ym2612"
    },
    {
      "channel": 0,
      "note": 73,
      "start": 33.8142,
      "duration": 0.0093,
      "velocity": 127,
      "chip": "ym2612"
    },
    {
      "channel": 1,
      "note": 54,
      "start": 33.8183,
      "duration": 0.0722,
      "velocity": 101,
      "chip": "ym2612"
    },
    {
      "channel": 2,
      "note": 66,
      "start": 33.8227,
      "duration": 0.0686,
      "velocity": 106,
      "chip": "ym2612"
    },
    {
      "channel": 0,
      "note": 74,
      "start": 33.8268,
      "duration": 0.0142,
      "velocity": 127,
      "chip": "ym2612"
    },
    {
      "channel": 0,
      "note": 50,
      "start": 33.911,
      "duration": 0.0293,
      "velocity": 117,
      "chip": "ym2612"
    },
    {
      "channel": 1,
      "note": 55,
      "start": 33.915,
      "duration": 0.0763,
      "velocity": 101,
      "chip": "ym2612"
    },
    {
      "channel": 2,
      "note": 67,
      "start": 33.9192,
      "duration": 0.0715,
      "velocity": 106,
      "chip": "ym2612"
    },
    {
      "channel": 0,
      "note": 74,
      "start": 34.011,
      "duration": 0.0293,
      "velocity": 127,
      "chip": "ym2612"
    },
    {
      "channel": 1,
      "note": 48,
      "start": 34.015,
      "duration": 0.0754,
      "velocity": 101,
      "chip": "ym2612"
    },
    {
      "channel": 2,
      "note": 60,
      "start": 34.0192,
      "duration": 0.0721,
      "velocity": 106,
      "chip": "ym2612"
    },
    {
      "channel": 0,
      "note": 49,
      "start": 34.1106,
      "duration": 0.0817,
      "velocity": 101,
      "chip": "ym2612"
    },
    {
      "channel": 1,
      "note": 50,
      "start": 34.115,
      "duration": 0.0253,
      "velocity": 117,
      "chip": "ym2612"
    },
    {
      "channel": 2,
      "note": 61,
      "start": 34.1192,
      "duration": 0.0715,
      "velocity": 106,
      "chip": "ym2612"
    },
    {
      "channel": 0,
      "note": 50,
      "start": 34.2106,
      "duration": 0.0807,
      "velocity": 101,
      "chip": "ym2612"
    },
    {
      "channel": 1,
      "note": 74,
      "start": 34.2148,
      "duration": 0.0274,
      "velocity": 127,
      "chip": "ym2612"
    },
    {
      "channel": 2,
      "note": 62,
      "start": 34.219,
      "duration": 0.0716,
      "velocity": 106,
      "chip": "ym2612"
    },
    {
      "channel": 0,
      "note": 51,
      "start": 34.3114,
      "duration": 0.0791,
      "velocity": 101,
      "chip": "ym2612"
    },
    {
      "channel": 1,
      "note": 63,
      "start": 34.3156,
      "duration": 0.0759,
      "velocity": 106,
      "chip": "ym2612"
    },
    {
      "channel": 2,
      "note": 74,
      "start": 34.3198,
      "duration": 0.0218,
      "velocity": 127,
      "chip": "ym2612"
    },
    {
      "channel": 0,
      "note": 53,
      "start": 34.3958,
      "duration": 0.1796,
      "velocity": 101,
      "chip": "ym2612"
    },
    {
      "channel": 1,
      "note": 65,
      "start": 34.4001,
      "duration": 0.1747,
      "velocity": 106,
      "chip": "ym2612"
    },
    {
      "channel": 2,
      "note": 50,
      "start": 34.4046,
      "duration": 0.0214,
      "velocity": 117,
      "chip": "ym2612"
    },
    {
      "channel": 0,
      "note": 53,
      "start": 34.5941,
      "duration": 0.1804,
      "velocity": 101,
      "chip": "ym2612"
    },
    {
      "channel": 1,
      "note": 65,
      "start": 34.5983,
      "duration": 0.1756,
      "velocity": 106,
      "chip": "ym2612"
    },
    {
      "channel": 2,
      "note": 74,
      "start": 34.6025,
      "duration": 0.0212,
      "velocity": 127,
      "chip": "ym2612"
    },
    {
      "channel": 0,
      "note": 53,
      "start": 34.796,
      "duration": 0.1789,
      "velocity": 101,
      "chip": "ym2612"
    },
    {
      "channel": 1,
      "note": 65,
      "start": 34.8003,
      "duration": 0.1756,
      "velocity": 106,
      "chip": "ym2612"
    },
    {
      "channel": 2,
      "note": 50,
      "start": 34.8046,
      "duration": 0.019,
      "velocity": 117,
      "chip": "ym2612"
    },
    {
      "channel": 2,
      "note": 50,
      "start": 34.8955,
      "duration": 0.0282,
      "velocity": 117,
      "chip": "ym2612"
    },
    {
      "channel": 0,
      "note": 53,
      "start": 34.98,
      "duration": 0.1799,
      "velocity": 101,
      "chip": "ym2612"
    },
    {
      "channel": 1,
      "note": 65,
      "start": 34.9842,
      "duration": 0.1743,
      "velocity": 106,
      "chip": "ym2612"
    },
    {
      "channel": 2,
      "note": 74,
      "start": 34.9884,
      "duration": 0.0186,
      "velocity": 127,
      "chip": "ym2612"
    },
    {
      "channel": 0,
      "note": 53,
      "start": 35.1773,
      "duration": 0.1798,
      "velocity": 101,
      "chip": "ym2612"
    },
    {
      "channel": 1,
      "note": 65,
      "start": 35.1816,
      "duration": 0.1773,
      "velocity": 106,
      "chip": "ym2612"
    },
    {
      "channel": 2,
      "note": 50,
      "start": 35.186,
      "duration": 0.021,
      "velocity": 117,
      "chip": "ym2612"
    },
    {
      "channel": 0,
      "note": 74,
      "start": 35.3774,
      "duration": 0.0295,
      "velocity": 127,
      "chip": "ym2612"
    },
    {
      "channel": 1,
      "note": 53,
      "start": 35.3815,
      "duration": 0.0768,
      "velocity": 101,
      "chip": "ym2612"
    },
    {
      "channel": 2,
      "note": 65,
      "start": 35.3856,
      "duration": 0.0737,
      "velocity": 106,
      "chip": "ym2612"
    },
    {
      "channel": 0,
      "note": 50,
      "start": 35.4643,
      "duration": 0.026,
      "velocity": 117,
      "chip": "ym2612"
    },
    {
      "channel": 1,
      "note": 58,
      "start": 35.4683,
      "duration": 0.1721,
      "velocity": 101,
      "chip": "ym2612"
    },
    {
      "channel": 2,
      "note": 70,
      "start": 35.4727,
      "duration": 0.1179,
      "velocity": 106,
      "chip": "ym2612"
    },
    {
      "channel": 0,
      "note": 56,
      "start": 35.6608,
      "duration": 0.2816,
      "velocity": 101,
      "chip": "ym2612"
    },
    {
      "channel": 1,
      "note": 50,
      "start": 35.6652,
      "duration": 0.0251,
      "velocity": 117,
      "chip": "ym2612"
    },
    {
      "channel": 2,
      "note": 68,
      "start": 35.6694,
      "duration": 0.2739,
      "velocity": 106,
      "chip": "ym2612"
    },
    {
      "channel": 1,
      "note": 74,
      "start": 35.7615,
      "duration": 0.0288,
      "velocity": 127,
      "chip": "ym2612"
    },
    {
      "channel": 0,
      "note": 53,
      "start": 35.9606,
      "duration": 0.1798,
      "velocity": 101,
      "chip": "ym2612"
    },
    {
      "channel": 1,
      "note": 65,
      "start": 35.9649,
      "duration": 0.1777,
      "velocity": 106,
      "chip": "ym2612"
    },
    {
      "channel": 2,
      "note": 50,
      "start": 35.9693,
      "duration": 0.0233,
      "velocity": 117,
      "chip": "ym2612"
    },
    {
      "channel": 0,
      "note": 53,
      "start": 36.1471,
      "duration": 0.1783,
      "velocity": 101,
      "chip": "ym2612"
    },
    {
      "channel": 1,
      "note": 74,
      "start": 36.1513,
      "duration": 0.0236,
      "velocity": 127,
      "chip": "ym2612"
    },
    {
      "channel": 2,
      "note": 65,
      "start": 36.1554,
      "duration": 0.1686,
      "velocity": 106,
      "chip": "ym2612"
    },
    {
      "channel": 0,
      "note": 53,
      "start": 36.3441,
      "duration": 0.1813,
      "velocity": 101,
      "chip": "ym2612"
    },
    {
      "channel": 1,
      "note": 65,
      "start": 36.3483,
      "duration": 0.1756,
      "velocity": 106,
      "chip": "ym2612"
    },
    {
      "channel": 2,
      "note": 50,
      "start": 36.3527,
      "duration": 0.021,
      "velocity": 117,
      "chip": "ym2612"
    },
    {
      "channel": 2,
      "note": 50,
      "start": 36.4463,
      "duration": 0.0273,
      "velocity": 117,
      "chip": "ym2612"
    },
    {
      "channel": 0,
      "note": 53,
      "start": 36.5454,
      "duration": 0.1808,
      "velocity": 101,
      "chip": "ym2612"
    },
    {
      "channel": 1,
      "note": 65,
      "start": 36.5496,
      "duration": 0.1757,
      "velocity": 106,
      "chip": "ym2612"
    },
    {
      "channel": 2,
      "note": 74,
      "start": 36.5537,
      "duration": 0.02,
      "velocity": 127,
      "chip": "ym2612"
    },
    {
      "channel": 0,
      "note": 50,
      "start": 36.731,
      "duration": 0.0259,
      "velocity": 117,
      "chip": "ym2612"
    },
    {
      "channel": 1,
      "note": 53,
      "start": 36.7351,
      "duration": 0.1733,
      "velocity": 101,
      "chip": "ym2612"
    },
    {
      "channel": 2,
      "note": 65,
      "start": 36.7393,
      "duration": 0.1707,
      "velocity": 106,
      "chip": "ym2612"
    },
    {
      "channel": 0,
      "note": 53,
      "start": 36.9274,
      "duration": 0.0815,
      "velocity": 101,
      "chip": "ym2612"
    },
    {
      "channel": 1,
      "note": 65,
      "start": 36.9316,
      "duration": 0.0766,
      "velocity": 106,
      "chip": "ym2612"
    },
    {
      "channel": 2,
      "note": 74,
      "start": 36.9358,
      "duration": 0.0212,
      "velocity": 127,
      "chip": "ym2612"
    },
    {
      "channel": 0,
      "note": 59,
      "start": 37.0272,
      "duration": 0.1798,
      "velocity": 101,
      "chip": "ym2612"
    },
    {
      "channel": 1,
      "note": 50,
      "start": 37.0317,
      "duration": 0.0252,
      "velocity": 117,
      "chip": "ym2612"
    },
    {
      "channel": 2,
      "note": 71,
      "start": 37.0358,
      "duration": 0.1214,
      "velocity": 106,
      "chip": "ym2612"
    },
    {
      "channel": 0,
      "note": 58,
      "start": 37.2272,
      "duration": 0.2823,
      "velocity": 101,
      "chip": "ym2612"
    },
    {
      "channel": 1,
      "note": 50,
      "start": 37.2317,
      "duration": 0.0252,
      "velocity": 117,
      "chip": "ym2612"
    },
    {
      "channel": 2,
      "note": 70,
      "start": 37.2358,
      "duration": 0.2728,
      "velocity": 106,
      "chip": "ym2612"
    },
    {
      "channel": 1,
      "note": 74,
      "start": 37.3274,
      "duration": 0.0309,
      "velocity": 127,
      "chip": "ym2612"
    },
    {
      "channel": 0,
      "note": 50,
      "start": 37.5138,
      "duration": 0.1766,
      "velocity": 101,
      "chip": "ym2612"
    },
    {
      "channel": 1,
      "note": 62,
      "start": 37.5181,
      "duration": 0.1739,
      "velocity": 106,
      "chip": "ym2612"
    },
    {
      "channel": 2,
      "note": 50,
      "start": 37.5228,
      "duration": 0.0188,
      "velocity": 117,
      "chip": "ym2612"
    },
    {
      "channel": 0,
      "note": 50,
      "start": 37.7108,
      "duration": 0.1805,
      "velocity": 101,
      "chip": "ym2612"
    },
    {
      "channel": 1,
      "note": 62,
      "start": 37.715,
      "duration": 0.1757,
      "velocity": 106,
      "chip": "ym2612"
    },
    {
      "channel": 2,
      "note": 74,
      "start": 37.7192,
      "duration": 0.0212,
      "velocity": 127,
      "chip": "ym2612"
    },
    {
      "channel": 0,
      "note": 50,
      "start": 37.9117,
      "duration": 0.181,
      "velocity": 101,
      "chip": "ym2612"
    },
    {
      "channel": 1,
      "note": 62,
      "start": 37.9159,
      "duration": 0.176,
      "velocity": 106,
      "chip": "ym2612"
    },
    {
      "channel": 2,
      "note": 50,
      "start": 37.9203,
      "duration": 0.0209,
      "velocity": 117,
      "chip": "ym2612"
    },
    {
      "channel": 2,
      "note": 50,
      "start": 37.9943,
      "duration": 0.0294,
      "velocity": 117,
      "chip": "ym2612"
    },
    {
      "channel": 0,
      "note": 74,
      "start": 38.0974,
      "duration": 0.0262,
      "velocity": 127,
      "chip": "ym2612"
    },
    {
      "channel": 1,
      "note": 50,
      "start": 38.1015,
      "duration": 0.1735,
      "velocity": 101,
      "chip": "ym2612"
    },
    {
      "channel": 2,
      "note": 62,
      "start": 38.1057,
      "duration": 0.171,
      "velocity": 106,
      "chip": "ym2612"
    },
    {
      "channel": 0,
      "note": 50,
      "start": 38.2945,
      "duration": 0.0291,
      "velocity": 117,
      "chip": "ym2612"
    },
    {
      "channel": 1,
      "note": 50,
      "start": 38.2985,
      "duration": 0.1753,
      "velocity": 101,
      "chip": "ym2612"
    },
    {
      "channel": 2,
      "note": 62,
      "start": 38.3027,
      "duration": 0.172,
      "velocity": 106,
      "chip": "ym2612"
    },
    {
      "channel": 0,
      "note": 50,
      "start": 38.4939,
      "duration": 0.082,
      "velocity": 101,
      "chip": "ym2612"
    },
    {
      "channel": 1,
      "note": 74,
      "start": 38.4982,
      "duration": 0.0264,
      "velocity": 127,
      "chip": "ym2612"
    },
    {
      "channel": 2,
      "note": 62,
      "start": 38.5023,
      "duration": 0.0718,
      "velocity": 106,
      "chip": "ym2612"
    },
    {
      "channel": 0,
      "note": 60,
      "start": 38.58,
      "duration": 0.1771,
      "velocity": 101,
      "chip": "ym2612"
    },
    {
      "channel": 1,
      "note": 50,
      "start": 38.5844,
      "duration": 0.0225,
      "velocity": 117,
      "chip": "ym2612"
    },
    {
      "channel": 2,
      "note": 72,
      "start": 38.5886,
      "duration": 0.1186,
      "velocity": 106,
      "chip": "ym2612"
    },
    {
      "channel": 0,
      "note": 57,
      "start": 38.7772,
      "duration": 0.2816,
      "velocity": 101,
      "chip": "ym2612"
    },
    {
      "channel": 1,
      "note": 69,
      "start": 38.7815,
      "duration": 0.2767,
      "velocity": 106,
      "chip": "ym2612"
    },
    {
      "channel": 2,
      "note": 50,
      "start": 38.7858,
      "duration": 0.0212,
      "velocity": 117,
      "chip": "ym2612"
    },
    {
      "channel": 2,
      "note": 74,
      "start": 38.8774,
      "duration": 0.0297,
      "velocity": 127,
      "chip": "ym2612"
    },
    {
      "channel": 2,
      "note": 50,
      "start": 38.9776,
      "duration": 0.0306,
      "velocity": 117,
      "chip": "ym2612"
    },
    {
      "channel": 0,
      "note": 65,
      "start": 39.0773,
      "duration": 0.0835,
      "velocity": 101,
      "chip": "ym2612"
    },
    {
      "channel": 1,
      "note": 77,
      "start": 39.0816,
      "duration": 0.0758,
      "velocity": 106,
      "chip": "ym2612"
    },
    {
      "channel": 2,
      "note": 74,
      "start": 39.088,
      "duration": 0.0215,
      "velocity": 127,
      "chip": "ym2612"
    },
    {
      "channel": 0,
      "note": 66,
      "start": 39.165,
      "duration": 0.0765,
      "velocity": 101,
      "chip": "ym2612"
    },
    {
      "channel": 1,
      "note": 74,
      "start": 39.1693,
      "duration": 0.0234,
      "velocity": 127,
      "chip": "ym2612"
    },
    {
      "channel": 2,
      "note": 78,
      "start": 39.1738,
      "duration": 0.0685,
      "velocity": 106,
      "chip": "ym2612"
    },
    {
      "channel": 0,
      "note": 67,
      "start": 39.2606,
      "duration": 0.0816,
      "velocity": 101,
      "chip": "ym2612"
    },
    {
      "channel": 1,
      "note": 79,
      "start": 39.2649,
      "duration": 0.0767,
      "velocity": 106,
      "chip": "ym2612"
    },
    {
      "channel": 2,
      "note": 50,
      "start": 39.2716,
      "duration": 0.0212,
      "velocity": 117,
      "chip": "ym2612"
    },
    {
      "channel": 0,
      "note": 60,
      "start": 39.3606,
      "duration": 0.0815,
      "velocity": 101,
      "chip": "ym2612"
    },
    {
      "channel": 1,
      "note": 72,
      "start": 39.3649,
      "duration": 0.0757,
      "velocity": 106,
      "chip": "ym2612"
    },
    {
      "channel": 2,
      "note": 74,
      "start": 39.3714,
      "duration": 0.019,
      "velocity": 127,
      "chip": "ym2612"
    },
    {
      "channel": 0,
      "note": 61,
      "start": 39.4629,
      "duration": 0.0776,
      "velocity": 101,
      "chip": "ym2612"
    },
    {
      "channel": 1,
      "note": 73,
      "start": 39.4673,
      "duration": 0.0744,
      "velocity": 106,
      "chip": "ym2612"
    },
    {
      "channel": 2,
      "note": 74,
      "start": 39.4741,
      "duration": 0.0174,
      "velocity": 127,
      "chip": "ym2612"
    },
    {
      "channel": 0,
      "note": 62,
      "start": 39.5485,
      "duration": 0.0761,
      "velocity": 101,
      "chip": "ym2612"
    },
    {
      "channel": 1,
      "note": 74,
      "start": 39.5528,
      "duration": 0.0727,
      "velocity": 106,
      "chip": "ym2612"
    },
    {
      "channel": 2,
      "note": 74,
      "start": 39.5596,
      "duration": 0.0141,
      "velocity": 127,
      "chip": "ym2612"
    },
    {
      "channel": 0,
      "note": 55,
      "start": 39.6451,
      "duration": 0.0813,
      "velocity": 101,
      "chip": "ym2612"
    },
    {
      "channel": 1,
      "note": 67,
      "start": 39.6494,
      "duration": 0.0756,
      "velocity": 106,
      "chip": "ym2612"
    },
    {
      "channel": 2,
      "note": 50,
      "start": 39.6563,
      "duration": 0.0186,
      "velocity": 117,
      "chip": "ym2612"
    },
    {
      "channel": 0,
      "note": 50,
      "start": 39.7458,
      "duration": 0.029,
      "velocity": 117,
      "chip": "ym2612"
    },
    {
      "channel": 1,
      "note": 56,
      "start": 39.7499,
      "duration": 0.0768,
      "velocity": 101,
      "chip": "ym2612"
    },
    {
      "channel": 2,
      "note": 68,
      "start": 39.7541,
      "duration": 0.07,
      "velocity": 106,
      "chip": "ym2612"
    },
    {
      "channel": 0,
      "note": 74,
      "start": 39.8453,
      "duration": 0.0294,
      "velocity": 127,
      "chip": "ym2612"
    },
    {
      "channel": 1,
      "note": 57,
      "start": 39.8495,
      "duration": 0.0773,
      "velocity": 101,
      "chip": "ym2612"
    },
    {
      "channel": 2,
      "note": 69,
      "start": 39.8537,
      "duration": 0.0724,
      "velocity": 106,
      "chip": "ym2612"
    },
    {
      "channel": 0,
      "note": 53,
      "start": 39.945,
      "duration": 0.0813,
      "velocity": 101,
      "chip": "ym2612"
    },
    {
      "channel": 1,
      "note": 65,
      "start": 39.9493,
      "duration": 0.0782,
      "velocity": 106,
      "chip": "ym2612"
    },
    {
      "channel": 2,
      "note": 50,
      "start": 39.9537,
      "duration": 0.0211,
      "velocity": 117,
      "chip": "ym2612"
    },
    {
      "channel": 0,
      "note": 73,
      "start": 40.0319,
      "duration": 0.0051,
      "velocity": 127,
      "chip": "ym2612"
    },
    {
      "channel": 1,
      "note": 54,
      "start": 40.036,
      "duration": 0.0741,
      "velocity": 101,
      "chip": "ym2612"
    },
    {
      "channel": 0,
      "note": 74,
      "start": 40.0405,
      "duration": 0.0172,
      "velocity": 127,
      "chip": "ym2612"
    },
    {
      "channel": 2,
      "note": 66,
      "start": 40.0447,
      "duration": 0.0662,
      "velocity": 106,
      "chip": "ym2612"
    },
    {
      "channel": 0,
      "note": 55,
      "start": 40.1275,
      "duration": 0.0838,
      "velocity": 101,
      "chip": "ym2612"
    },
    {
      "channel": 1,
      "note": 50,
      "start": 40.132,
      "duration": 0.0261,
      "velocity": 117,
      "chip": "ym2612"
    },
    {
      "channel": 2,
      "note": 67,
      "start": 40.1362,
      "duration": 0.0724,
      "velocity": 106,
      "chip": "ym2612"
    },
    {
      "channel": 0,
      "note": 48,
      "start": 40.2273,
      "duration": 0.0816,
      "velocity": 101,
      "chip": "ym2612"
    },
    {
      "channel": 1,
      "note": 60,
      "start": 40.2315,
      "duration": 0.0767,
      "velocity": 106,
      "chip": "ym2612"
    },
    {
      "channel": 2,
      "note": 74,
      "start": 40.238,
      "duration": 0.0205,
      "velocity": 127,
      "chip": "ym2612"
    },
    {
      "channel": 0,
      "note": 49,
      "start": 40.3273,
      "duration": 0.0807,
      "velocity": 101,
      "chip": "ym2612"
    },
    {
      "channel": 1,
      "note": 61,
      "start": 40.3316,
      "duration": 0.0772,
      "velocity": 106,
      "chip": "ym2612"
    },
    {
      "channel": 2,
      "note": 50,
      "start": 40.336,
      "duration": 0.0221,
      "velocity": 117,
      "chip": "ym2612"
    },
    {
      "channel": 0,
      "note": 74,
      "start": 40.4285,
      "duration": 0.0295,
      "velocity": 127,
      "chip": "ym2612"
    },
    {
      "channel": 1,
      "note": 50,
      "start": 40.4327,
      "duration": 0.0759,
      "velocity": 101,
      "chip": "ym2612"
    },
    {
      "channel": 2,
      "note": 62,
      "start": 40.4368,
      "duration": 0.073,
      "velocity": 106,
      "chip": "ym2612"
    },
    {
      "channel": 0,
      "note": 51,
      "start": 40.5185,
      "duration": 0.075,
      "velocity": 101,
      "chip": "ym2612"
    },
    {
      "channel": 1,
      "note": 74,
      "start": 40.523,
      "duration": 0.0173,
      "velocity": 127,
      "chip": "ym2612"
    },
    {
      "channel": 2,
      "note": 63,
      "start": 40.5275,
      "duration": 0.0653,
      "velocity": 106,
      "chip": "ym2612"
    },
    {
      "channel": 0,
      "note": 50,
      "start": 40.6193,
      "duration": 0.0209,
      "velocity": 117,
      "chip": "ym2612"
    },
    {
      "channel": 1,
      "note": 50,
      "start": 40.6234,
      "duration": 0.1669,
      "velocity": 101,
      "chip": "ym2612"
    },
    {
      "channel": 0,
      "note": 74,
      "start": 40.8107,
      "duration": 0.0307,
      "velocity": 127,
      "chip": "ym2612"
    },
    {
      "channel": 1,
      "note": 50,
      "start": 40.8147,
      "duration": 0.1756,
      "velocity": 101,
      "chip": "ym2612"
    },
    {
      "channel": 0,
      "note": 50,
      "start": 41.0109,
      "duration": 0.0293,
      "velocity": 117,
      "chip": "ym2612"
    },
    {
      "channel": 1,
      "note": 50,
      "start": 41.0149,
      "duration": 0.0754,
      "velocity": 101,
      "chip": "ym2612"
    },
    {
      "channel": 0,
      "note": 60,
      "start": 41.1105,
      "duration": 0.0798,
      "velocity": 101,
      "chip": "ym2612"
    },
    {
      "channel": 1,
      "note": 50,
      "start": 41.1148,
      "duration": 0.0254,
      "velocity": 117,
      "chip": "ym2612"
    },
    {
      "channel": 0,
      "note": 50,
      "start": 41.2117,
      "duration": 0.1799,
      "velocity": 101,
      "chip": "ym2612"
    },
    {
      "channel": 1,
      "note": 74,
      "start": 41.2159,
      "duration": 0.0244,
      "velocity": 127,
      "chip": "ym2612"
    },
    {
      "channel": 0,
      "note": 50,
      "start": 41.3957,
      "duration": 0.1791,
      "velocity": 101,
      "chip": "ym2612"
    },
    {
      "channel": 1,
      "note": 50,
      "start": 41.4,
      "duration": 0.0236,
      "velocity": 117,
      "chip": "ym2612"
    },
    {
      "channel": 0,
      "note": 74,
      "start": 41.594,
      "duration": 0.0295,
      "velocity": 127,
      "chip": "ym2612"
    },
    {
      "channel": 1,
      "note": 50,
      "start": 41.598,
      "duration": 0.077,
      "velocity": 101,
      "chip": "ym2612"
    },
    {
      "channel": 0,
      "note": 50,
      "start": 41.6942,
      "duration": 0.0293,
      "velocity": 117,
      "chip": "ym2612"
    },
    {
      "channel": 1,
      "note": 51,
      "start": 41.6982,
      "duration": 0.1754,
      "velocity": 101,
      "chip": "ym2612"
    },
    {
      "channel": 0,
      "note": 50,
      "start": 41.8942,
      "duration": 0.0293,
      "velocity": 117,
      "chip": "ym2612"
    },
    {
      "channel": 1,
      "note": 51,
      "start": 41.8982,
      "duration": 0.2756,
      "velocity": 101,
      "chip": "ym2612"
    },
    {
      "channel": 0,
      "note": 74,
      "start": 41.9773,
      "duration": 0.0296,
      "velocity": 127,
      "chip": "ym2612"
    },
    {
      "channel": 0,
      "note": 50,
      "start": 42.1778,
      "duration": 0.1792,
      "velocity": 101,
      "chip": "ym2612"
    },
    {
      "channel": 1,
      "note": 50,
      "start": 42.1822,
      "duration": 0.0247,
      "velocity": 117,
      "chip": "ym2612"
    },
    {
      "channel": 0,
      "note": 74,
      "start": 42.3774,
      "duration": 0.0308,
      "velocity": 127,
      "chip": "ym2612"
    },
    {
      "channel": 1,
      "note": 50,
      "start": 42.3813,
      "duration": 0.1758,
      "velocity": 101,
      "chip": "ym2612"
    },
    {
      "channel": 0,
      "note": 50,
      "start": 42.5612,
      "duration": 0.0792,
      "velocity": 101,
      "chip": "ym2612"
    },
    {
      "channel": 1,
      "note": 50,
      "start": 42.5655,
      "duration": 0.026,
      "velocity": 117,
      "chip": "ym2612"
    },
    {
      "channel": 0,
      "note": 50,
      "start": 42.6609,
      "duration": 0.0293,
      "velocity": 117,
      "chip": "ym2612"
    },
    {
      "channel": 1,
      "note": 65,
      "start": 42.6649,
      "duration": 0.0754,
      "velocity": 101,
      "chip": "ym2612"
    },
    {
      "channel": 0,
      "note": 74,
      "start": 42.7606,
      "duration": 0.0296,
      "velocity": 127,
      "chip": "ym2612"
    },
    {
      "channel": 1,
      "note": 50,
      "start": 42.7646,
      "duration": 0.1757,
      "velocity": 101,
      "chip": "ym2612"
    },
    {
      "channel": 0,
      "note": 50,
      "start": 42.9617,
      "duration": 0.1798,
      "velocity": 101,
      "chip": "ym2612"
    },
    {
      "channel": 1,
      "note": 50,
      "start": 42.9661,
      "duration": 0.0242,
      "velocity": 117,
      "chip": "ym2612"
    },
    {
      "channel": 0,
      "note": 74,
      "start": 43.1607,
      "duration": 0.0296,
      "velocity": 127,
      "chip": "ym2612"
    },
    {
      "channel": 1,
      "note": 50,
      "start": 43.1646,
      "duration": 0.0758,
      "velocity": 101,
      "chip": "ym2612"
    },
    {
      "channel": 0,
      "note": 50,
      "start": 43.2449,
      "duration": 0.0287,
      "velocity": 117,
      "chip": "ym2612"
    },
    {
      "channel": 1,
      "note": 51,
      "start": 43.2489,
      "duration": 0.1748,
      "velocity": 101,
      "chip": "ym2612"
    },
    {
      "channel": 0,
      "note": 51,
      "start": 43.4439,
      "duration": 0.2798,
      "velocity": 101,
      "chip": "ym2612"
    },
    {
      "channel": 1,
      "note": 50,
      "start": 43.4482,
      "duration": 0.0254,
      "velocity": 117,
      "chip": "ym2612"
    },
    {
      "channel": 1,
      "note": 74,
      "start": 43.544,
      "duration": 0.0296,
      "velocity": 127,
      "chip": "ym2612"
    },
    {
      "channel": 0,
      "note": 50,
      "start": 43.7442,
      "duration": 0.0305,
      "velocity": 117,
      "chip": "ym2612"
    },
    {
      "channel": 1,
      "note": 50,
      "start": 43.7482,
      "duration": 0.1756,
      "velocity": 101,
      "chip": "ym2612"
    },
    {
      "channel": 0,
      "note": 74,
      "start": 43.928,
      "duration": 0.0302,
      "velocity": 127,
      "chip": "ym2612"
    },
    {
      "channel": 1,
      "note": 50,
      "start": 43.932,
      "duration": 0.175,
      "velocity": 101,
      "chip": "ym2612"
    },
    {
      "channel": 0,
      "note": 50,
      "start": 44.1272,
      "duration": 0.0798,
      "velocity": 101,
      "chip": "ym2612"
    },
    {
      "channel": 1,
      "note": 50,
      "start": 44.1315,
      "duration": 0.0254,
      "velocity": 117,
      "chip": "ym2612"
    },
    {
      "channel": 0,
      "note": 60,
      "start": 44.2272,
      "duration": 0.0798,
      "velocity": 101,
      "chip": "ym2612"
    },
    {
      "channel": 1,
      "note": 50,
      "start": 44.2315,
      "duration": 0.0254,
      "velocity": 117,
      "chip": "ym2612"
    },
    {
      "channel": 0,
      "note": 74,
      "start": 44.3285,
      "duration": 0.0284,
      "velocity": 127,
      "chip": "ym2612"
    },
    {
      "channel": 1,
      "note": 50,
      "start": 44.3325,
      "duration": 0.1758,
      "velocity": 101,
      "chip": "ym2612"
    },
    {
      "channel": 0,
      "note": 50,
      "start": 44.5127,
      "duration": 0.0276,
      "velocity": 117,
      "chip": "ym2612"
    },
    {
      "channel": 1,
      "note": 50,
      "start": 44.5167,
      "duration": 0.1749,
      "velocity": 101,
      "chip": "ym2612"
    },
    {
      "channel": 0,
      "note": 50,
      "start": 44.7105,
      "duration": 0.081,
      "velocity": 101,
      "chip": "ym2612"
    },
    {
      "channel": 1,
      "note": 74,
      "start": 44.7146,
      "duration": 0.0256,
      "velocity": 127,
      "chip": "ym2612"
    },
    {
      "channel": 0,
      "note": 51,
      "start": 44.8105,
      "duration": 0.1798,
      "velocity": 101,
      "chip": "ym2612"
    },
    {
      "channel": 1,
      "note": 50,
      "start": 44.8149,
      "duration": 0.0254,
      "velocity": 117,
      "chip": "ym2612"
    },
    {
      "channel": 0,
      "note": 50,
      "start": 45.0109,
      "duration": 0.0293,
      "velocity": 117,
      "chip": "ym2612"
    },
    {
      "channel": 1,
      "note": 51,
      "start": 45.0149,
      "duration": 0.2756,
      "velocity": 101,
      "chip": "ym2612"
    },
    {
      "channel": 0,
      "note": 74,
      "start": 45.1106,
      "duration": 0.0296,
      "velocity": 127,
      "chip": "ym2612"
    },
    {
      "channel": 0,
      "note": 50,
      "start": 45.2949,
      "duration": 0.0287,
      "velocity": 117,
      "chip": "ym2612"
    },
    {
      "channel": 1,
      "note": 50,
      "start": 45.2989,
      "duration": 0.0748,
      "velocity": 101,
      "chip": "ym2612"
    },
    {
      "channel": 0,
      "note": 51,
      "start": 45.3939,
      "duration": 0.0798,
      "velocity": 101,
      "chip": "ym2612"
    },
    {
      "channel": 1,
      "note": 50,
      "start": 45.3982,
      "duration": 0.0266,
      "velocity": 117,
      "chip": "ym2612"
    },
    {
      "channel": 0,
      "note": 53,
      "start": 45.4939,
      "duration": 0.0798,
      "velocity": 101,
      "chip": "ym2612"
    },
    {
      "channel": 1,
      "note": 74,
      "start": 45.498,
      "duration": 0.0269,
      "velocity": 127,
      "chip": "ym2612"
    },
    {
      "channel": 0,
      "note": 74,
      "start": 45.594,
      "duration": 0.0296,
      "velocity": 127,
      "chip": "ym2612"
    },
    {
      "channel": 1,
      "note": 54,
      "start": 45.598,
      "duration": 0.0757,
      "velocity": 101,
      "chip": "ym2612"
    },
    {
      "channel": 0,
      "note": 56,
      "start": 45.6939,
      "duration": 0.0798,
      "velocity": 101,
      "chip": "ym2612"
    },
    {
      "channel": 1,
      "note": 50,
      "start": 45.6982,
      "duration": 0.0254,
      "velocity": 117,
      "chip": "ym2612"
    },
    {
      "channel": 0,
      "note": 58,
      "start": 45.7951,
      "duration": 0.0787,
      "velocity": 101,
      "chip": "ym2612"
    },
    {
      "channel": 1,
      "note": 50,
      "start": 45.7994,
      "duration": 0.0242,
      "velocity": 117,
      "chip": "ym2612"
    },
    {
      "channel": 0,
      "note": 60,
      "start": 45.8778,
      "duration": 0.0792,
      "velocity": 101,
      "chip": "ym2612"
    },
    {
      "channel": 1,
      "note": 74,
      "start": 45.882,
      "duration": 0.025,
      "velocity": 127,
      "chip": "ym2612"
    },
    {
      "channel": 0,
      "note": 74,
      "start": 45.9785,
      "duration": 0.0285,
      "velocity": 127,
      "chip": "ym2612"
    },
    {
      "channel": 1,
      "note": 62,
      "start": 45.9824,
      "duration": 0.0746,
      "velocity": 101,
      "chip": "ym2612"
    },
    {
      "channel": 0,
      "note": 63,
      "start": 46.0785,
      "duration": 0.0798,
      "velocity": 101,
      "chip": "ym2612"
    },
    {
      "channel": 1,
      "note": 74,
      "start": 46.0826,
      "duration": 0.0244,
      "velocity": 127,
      "chip": "ym2612"
    },
    {
      "channel": 0,
      "note": 62,
      "start": 46.1772,
      "duration": 0.081,
      "velocity": 101,
      "chip": "ym2612"
    },
    {
      "channel": 1,
      "note": 74,
      "start": 46.1814,
      "duration": 0.0256,
      "velocity": 127,
      "chip": "ym2612"
    },
    {
      "channel": 0,
      "note": 74,
      "start": 46.2774,
      "duration": 0.0295,
      "velocity": 127,
      "chip": "ym2612"
    },
    {
      "channel": 1,
      "note": 58,
      "start": 46.2814,
      "duration": 0.0756,
      "velocity": 101,
      "chip": "ym2612"
    },
    {
      "channel": 0,
      "note": 74,
      "start": 46.3774,
      "duration": 0.0295,
      "velocity": 127,
      "chip": "ym2612"
    },
    {
      "channel": 1,
      "note": 57,
      "start": 46.3814,
      "duration": 0.0756,
      "velocity": 101,
      "chip": "ym2612"
    },
    {
      "channel": 0,
      "note": 56,
      "start": 46.4772,
      "duration": 0.0799,
      "velocity": 101,
      "chip": "ym2612"
    },
    {
      "channel": 1,
      "note": 50,
      "start": 46.4816,
      "duration": 0.0254,
      "velocity": 117,
      "chip": "ym2612"
    },
    {
      "channel": 0,
      "note": 50,
      "start": 46.5615,
      "duration": 0.0288,
      "velocity": 117,
      "chip": "ym2612"
    },
    {
      "channel": 1,
      "note": 55,
      "start": 46.5655,
      "duration": 0.0749,
      "velocity": 101,
      "chip": "ym2612"
    },
    {
      "channel": 0,
      "note": 50,
      "start": 46.6609,
      "duration": 0.0293,
      "velocity": 117,
      "chip": "ym2612"
    },
    {
      "channel": 1,
      "note": 53,
      "start": 46.6649,
      "duration": 0.0754,
      "velocity": 101,
      "chip": "ym2612"
    },
    {
      "channel": 0,
      "note": 50,
      "start": 46.7609,
      "duration": 0.0293,
      "velocity": 117,
      "chip": "ym2612"
    },
    {
      "channel": 1,
      "note": 51,
      "start": 46.7649,
      "duration": 0.0754,
      "velocity": 101,
      "chip": "ym2612"
    },
    {
      "channel": 0,
      "note": 50,
      "start": 46.8605,
      "duration": 0.1798,
      "velocity": 101,
      "chip": "ym2612"
    },
    {
      "channel": 1,
      "note": 50,
      "start": 46.8648,
      "duration": 0.0267,
      "velocity": 117,
      "chip": "ym2612"
    },
    {
      "channel": 0,
      "note": 50,
      "start": 47.0605,
      "duration": 0.1799,
      "velocity": 101,
      "chip": "ym2612"
    },
    {
      "channel": 1,
      "note": 74,
      "start": 47.0647,
      "duration": 0.0256,
      "velocity": 127,
      "chip": "ym2612"
    },
    {
      "channel": 0,
      "note": 50,
      "start": 47.2449,
      "duration": 0.0287,
      "velocity": 117,
      "chip": "ym2612"
    },
    {
      "channel": 1,
      "note": 50,
      "start": 47.2488,
      "duration": 0.0749,
      "velocity": 101,
      "chip": "ym2612"
    },
    {
      "channel": 0,
      "note": 50,
      "start": 47.3442,
      "duration": 0.0293,
      "velocity": 117,
      "chip": "ym2612"
    },
    {
      "channel": 1,
      "note": 60,
      "start": 47.3482,
      "duration": 0.0754,
      "velocity": 101,
      "chip": "ym2612"
    },
    {
      "channel": 0,
      "note": 50,
      "start": 47.445,
      "duration": 0.1799,
      "velocity": 101,
      "chip": "ym2612"
    },
    {
      "channel": 1,
      "note": 74,
      "start": 47.4492,
      "duration": 0.0244,
      "velocity": 127,
      "chip": "ym2612"
    },
    {
      "channel": 0,
      "note": 50,
      "start": 47.6442,
      "duration": 0.0293,
      "velocity": 117,
      "chip": "ym2612"
    },
    {
      "channel": 1,
      "note": 50,
      "start": 47.6482,
      "duration": 0.1756,
      "velocity": 101,
      "chip": "ym2612"
    },
    {
      "channel": 0,
      "note": 50,
      "start": 47.8278,
      "duration": 0.0804,
      "velocity": 101,
      "chip": "ym2612"
    },
    {
      "channel": 1,
      "note": 74,
      "start": 47.832,
      "duration": 0.0249,
      "velocity": 127,
      "chip": "ym2612"
    },
    {
      "channel": 0,
      "note": 50,
      "start": 47.9276,
      "duration": 0.0293,
      "velocity": 117,
      "chip": "ym2612"
    },
    {
      "channel": 1,
      "note": 51,
      "start": 47.9316,
      "duration": 0.1754,
      "velocity": 101,
      "chip": "ym2612"
    },
    {
      "channel": 0,
      "note": 51,
      "start": 48.1272,
      "duration": 0.2799,
      "velocity": 101,
      "chip": "ym2612"
    },
    {
      "channel": 1,
      "note": 50,
      "start": 48.1316,
      "duration": 0.0254,
      "velocity": 117,
      "chip": "ym2612"
    },
    {
      "channel": 1,
      "note": 74,
      "start": 48.2273,
      "duration": 0.0296,
      "velocity": 127,
      "chip": "ym2612"
    },
    {
      "channel": 0,
      "note": 50,
      "start": 48.4112,
      "duration": 0.1792,
      "velocity": 101,
      "chip": "ym2612"
    },
    {
      "channel": 1,
      "note": 50,
      "start": 48.4155,
      "duration": 0.0248,
      "velocity": 117,
      "chip": "ym2612"
    },
    {
      "channel": 0,
      "note": 74,
      "start": 48.6107,
      "duration": 0.0308,
      "velocity": 127,
      "chip": "ym2612"
    },
    {
      "channel": 1,
      "note": 50,
      "start": 48.6146,
      "duration": 0.1757,
      "velocity": 101,
      "chip": "ym2612"
    },
    {
      "channel": 0,
      "note": 50,
      "start": 48.8105,
      "duration": 0.0798,
      "velocity": 101,
      "chip": "ym2612"
    },
    {
      "channel": 1,
      "note": 50,
      "start": 48.8149,
      "duration": 0.0253,
      "velocity": 117,
      "chip": "ym2612"
    },
    {
      "channel": 0,
      "note": 50,
      "start": 48.912,
      "duration": 0.0282,
      "velocity": 117,
      "chip": "ym2612"
    },
    {
      "channel": 1,
      "note": 62,
      "start": 48.916,
      "duration": 0.0744,
      "velocity": 101,
      "chip": "ym2612"
    },
    {
      "channel": 0,
      "note": 74,
      "start": 49.0119,
      "duration": 0.0283,
      "velocity": 127,
      "chip": "ym2612"
    },
    {
      "channel": 1,
      "note": 50,
      "start": 49.0159,
      "duration": 0.1758,
      "velocity": 101,
      "chip": "ym2612"
    },
    {
      "channel": 0,
      "note": 50,
      "start": 49.1961,
      "duration": 0.0274,
      "velocity": 117,
      "chip": "ym2612"
    },
    {
      "channel": 1,
      "note": 50,
      "start": 49.2001,
      "duration": 0.1749,
      "velocity": 101,
      "chip": "ym2612"
    },
    {
      "channel": 0,
      "note": 74,
      "start": 49.394,
      "duration": 0.0295,
      "velocity": 127,
      "chip": "ym2612"
    },
    {
      "channel": 1,
      "note": 50,
      "start": 49.398,
      "duration": 0.0756,
      "velocity": 101,
      "chip": "ym2612"
    },
    {
      "channel": 0,
      "note": 50,
      "start": 49.4942,
      "duration": 0.0293,
      "velocity": 117,
      "chip": "ym2612"
    },
    {
      "channel": 1,
      "note": 51,
      "start": 49.4982,
      "duration": 0.1754,
      "velocity": 101,
      "chip": "ym2612"
    },
    {
      "channel": 0,
      "note": 51,
      "start": 49.6939,
      "duration": 0.2799,
      "velocity": 101,
      "chip": "ym2612"
    },
    {
      "channel": 1,
      "note": 50,
      "start": 49.6982,
      "duration": 0.0254,
      "velocity": 117,
      "chip": "ym2612"
    },
    {
      "channel": 1,
      "note": 74,
      "start": 49.7774,
      "duration": 0.0296,
      "velocity": 127,
      "chip": "ym2612"
    },
    {
      "channel": 0,
      "note": 50,
      "start": 49.9781,
      "duration": 0.03,
      "velocity": 117,
      "chip": "ym2612"
    },
    {
      "channel": 1,
      "note": 50,
      "start": 49.9821,
      "duration": 0.1749,
      "velocity": 101,
      "chip": "ym2612"
    },
    {
      "channel": 0,
      "note": 50,
      "start": 50.1772,
      "duration": 0.1799,
      "velocity": 101,
      "chip": "ym2612"
    },
    {
      "channel": 1,
      "note": 74,
      "start": 50.1814,
      "duration": 0.0256,
      "velocity": 127,
      "chip": "ym2612"
    },
    {
      "channel": 0,
      "note": 50,
      "start": 50.3612,
      "duration": 0.0792,
      "velocity": 101,
      "chip": "ym2612"
    },
    {
      "channel": 1,
      "note": 50,
      "start": 50.3655,
      "duration": 0.0248,
      "velocity": 117,
      "chip": "ym2612"
    },
    {
      "channel": 0,
      "note": 50,
      "start": 50.4608,
      "duration": 0.0294,
      "velocity": 117,
      "chip": "ym2612"
    },
    {
      "channel": 1,
      "note": 60,
      "start": 50.4648,
      "duration": 0.0755,
      "velocity": 101,
      "chip": "ym2612"
    },
    {
      "channel": 0,
      "note": 50,
      "start": 50.5617,
      "duration": 0.1798,
      "velocity": 101,
      "chip": "ym2612"
    },
    {
      "channel": 1,
      "note": 74,
      "start": 50.5659,
      "duration": 0.0244,
      "velocity": 127,
      "chip": "ym2612"
    },
    {
      "channel": 0,
      "note": 50,
      "start": 50.7605,
      "duration": 0.1798,
      "velocity": 101,
      "chip": "ym2612"
    },
    {
      "channel": 1,
      "note": 50,
      "start": 50.7648,
      "duration": 0.0254,
      "velocity": 117,
      "chip": "ym2612"
    },
    {
      "channel": 0,
      "note": 50,
      "start": 50.9605,
      "duration": 0.0799,
      "velocity": 101,
      "chip": "ym2612"
    },
    {
      "channel": 1,
      "note": 74,
      "start": 50.9647,
      "duration": 0.0256,
      "velocity": 127,
      "chip": "ym2612"
    },
    {
      "channel": 0,
      "note": 50,
      "start": 51.0448,
      "duration": 0.0288,
      "velocity": 117,
      "chip": "ym2612"
    },
    {
      "channel": 1,
      "note": 51,
      "start": 51.0488,
      "duration": 0.1749,
      "velocity": 101,
      "chip": "ym2612"
    },
    {
      "channel": 0,
      "note": 51,
      "start": 51.2439,
      "duration": 0.2798,
      "velocity": 101,
      "chip": "ym2612"
    },
    {
      "channel": 1,
      "note": 50,
      "start": 51.2482,
      "duration": 0.0254,
      "velocity": 117,
      "chip": "ym2612"
    },
    {
      "channel": 1,
      "note": 74,
      "start": 51.344,
      "duration": 0.0296,
      "velocity": 127,
      "chip": "ym2612"
    },
    {
      "channel": 1,
      "note": 50,
      "start": 51.4442,
      "duration": 0.0307,
      "velocity": 117,
      "chip": "ym2612"
    },
    {
      "channel": 0,
      "note": 74,
      "start": 51.544,
      "duration": 0.0308,
      "velocity": 127,
      "chip": "ym2612"
    },
    {
      "channel": 1,
      "note": 65,
      "start": 51.548,
      "duration": 0.0757,
      "velocity": 101,
      "chip": "ym2612"
    },
    {
      "channel": 0,
      "note": 74,
      "start": 51.644,
      "duration": 0.0296,
      "velocity": 127,
      "chip": "ym2612"
    },
    {
      "channel": 1,
      "note": 66,
      "start": 51.648,
      "duration": 0.0758,
      "velocity": 101,
      "chip": "ym2612"
    },
    {
      "channel": 0,
      "note": 67,
      "start": 51.7278,
      "duration": 0.0792,
      "velocity": 101,
      "chip": "ym2612"
    },
    {
      "channel": 1,
      "note": 50,
      "start": 51.7322,
      "duration": 0.026,
      "velocity": 117,
      "chip": "ym2612"
    },
    {
      "channel": 0,
      "note": 60,
      "start": 51.8272,
      "duration": 0.0798,
      "velocity": 101,
      "chip": "ym2612"
    },
    {
      "channel": 1,
      "note": 74,
      "start": 51.8313,
      "duration": 0.0256,
      "velocity": 127,
      "chip": "ym2612"
    },
    {
      "channel": 0,
      "note": 74,
      "start": 51.9274,
      "duration": 0.0295,
      "velocity": 127,
      "chip": "ym2612"
    },
    {
      "channel": 1,
      "note": 61,
      "start": 51.9314,
      "duration": 0.0757,
      "velocity": 101,
      "chip": "ym2612"
    },
    {
      "channel": 0,
      "note": 62,
      "start": 52.0284,
      "duration": 0.0786,
      "velocity": 101,
      "chip": "ym2612"
    },
    {
      "channel": 1,
      "note": 74,
      "start": 52.0326,
      "duration": 0.0244,
      "velocity": 127,
      "chip": "ym2612"
    },
    {
      "channel": 0,
      "note": 50,
      "start": 52.1288,
      "duration": 0.0281,
      "velocity": 117,
      "chip": "ym2612"
    },
    {
      "channel": 1,
      "note": 55,
      "start": 52.1328,
      "duration": 0.0755,
      "velocity": 101,
      "chip": "ym2612"
    },
    {
      "channel": 0,
      "note": 50,
      "start": 52.2276,
      "duration": 0.0293,
      "velocity": 117,
      "chip": "ym2612"
    },
    {
      "channel": 1,
      "note": 56,
      "start": 52.2316,
      "duration": 0.0767,
      "velocity": 101,
      "chip": "ym2612"
    },
    {
      "channel": 0,
      "note": 57,
      "start": 52.3272,
      "duration": 0.0799,
      "velocity": 101,
      "chip": "ym2612"
    },
    {
      "channel": 1,
      "note": 74,
      "start": 52.3313,
      "duration": 0.0256,
      "velocity": 127,
      "chip": "ym2612"
    },
    {
      "channel": 0,
      "note": 53,
      "start": 52.4112,
      "duration": 0.0804,
      "velocity": 101,
      "chip": "ym2612"
    },
    {
      "channel": 1,
      "note": 50,
      "start": 52.4155,
      "duration": 0.0248,
      "velocity": 117,
      "chip": "ym2612"
    },
    {
      "channel": 0,
      "note": 73,
      "start": 52.5107,
      "duration": 0.0009,
      "velocity": 127,
      "chip": "ym2612"
    },
    {
      "channel": 0,
      "note": 74,
      "start": 52.5149,
      "duration": 0.026,
      "velocity": 127,
      "chip": "ym2612"
    },
    {
      "channel": 1,
      "note": 54,
      "start": 52.5189,
      "duration": 0.0714,
      "velocity": 101,
      "chip": "ym2612"
    },
    {
      "channel": 0,
      "note": 50,
      "start": 52.6109,
      "duration": 0.0293,
      "velocity": 117,
      "chip": "ym2612"
    },
    {
      "channel": 1,
      "note": 55,
      "start": 52.6149,
      "duration": 0.0754,
      "velocity": 101,
      "chip": "ym2612"
    },
    {
      "channel": 0,
      "note": 48,
      "start": 52.7105,
      "duration": 0.0798,
      "velocity": 101,
      "chip": "ym2612"
    },
    {
      "channel": 1,
      "note": 74,
      "start": 52.7146,
      "duration": 0.0256,
      "velocity": 127,
      "chip": "ym2612"
    },
    {
      "channel": 0,
      "note": 50,
      "start": 52.8109,
      "duration": 0.0293,
      "velocity": 117,
      "chip": "ym2612"
    },
    {
      "channel": 1,
      "note": 49,
      "start": 52.8149,
      "duration": 0.0754,
      "velocity": 101,
      "chip": "ym2612"
    },
    {
      "channel": 0,
      "note": 74,
      "start": 52.9107,
      "duration": 0.0308,
      "velocity": 127,
      "chip": "ym2612"
    },
    {
      "channel": 1,
      "note": 50,
      "start": 52.9147,
      "duration": 0.0757,
      "velocity": 101,
      "chip": "ym2612"
    },
    {
      "channel": 0,
      "note": 74,
      "start": 52.9947,
      "duration": 0.0289,
      "velocity": 127,
      "chip": "ym2612"
    },
    {
      "channel": 1,
      "note": 51,
      "start": 52.9987,
      "duration": 0.075,
      "velocity": 101,
      "chip": "ym2612"
    },
    {
      "channel": 0,
      "note": 72,
      "start": 53.0946,
      "duration": 0.0793,
      "velocity": 106,
      "chip": "ym2612"
    },
    {
      "channel": 1,
      "note": 50,
      "start": 53.0991,
      "duration": 0.0258,
      "velocity": 117,
      "chip": "ym2612"
    },
    {
      "channel": 2,
      "note": 84,
      "start": 53.1031,
      "duration": 0.0715,
      "velocity": 107,
      "chip": "ym2612"
    },
    {
      "channel": 1,
      "note": 72,
      "start": 53.1441,
      "duration": 0.081,
      "velocity": 106,
      "chip": "ym2612"
    },
    {
      "channel": 0,
      "note": 73,
      "start": 53.1941,
      "duration": 0.0805,
      "velocity": 106,
      "chip": "ym2612"
    },
    {
      "channel": 2,
      "note": 50,
      "start": 53.1985,
      "duration": 0.0272,
      "velocity": 117,
      "chip": "ym2612"
    },
    {
      "channel": 3,
      "note": 85,
      "start": 53.2026,
      "duration": 0.0712,
      "velocity": 107,
      "chip": "ym2612"
    },
    {
      "channel": 1,
      "note": 73,
      "start": 53.244,
      "duration": 0.08,
      "velocity": 106,
      "chip": "ym2612"
    },
    {
      "channel": 0,
      "note": 74,
      "start": 53.294,
      "duration": 0.0806,
      "velocity": 106,
      "chip": "ym2612"
    },
    {
      "channel": 2,
      "note": 74,
      "start": 53.2983,
      "duration": 0.0263,
      "velocity": 127,
      "chip": "ym2612"
    },
    {
      "channel": 3,
      "note": 86,
      "start": 53.3024,
      "duration": 0.0715,
      "velocity": 107,
      "chip": "ym2612"
    },
    {
      "channel": 1,
      "note": 74,
      "start": 53.3289,
      "duration": 0.0796,
      "velocity": 106,
      "chip": "ym2612"
    },
    {
      "channel": 0,
      "note": 77,
      "start": 53.394,
      "duration": 0.1313,
      "velocity": 106,
      "chip": "ym2612"
    },
    {
      "channel": 2,
      "note": 89,
      "start": 53.398,
      "duration": 0.1258,
      "velocity": 107,
      "chip": "ym2612"
    },
    {
      "channel": 1,
      "note": 77,
      "start": 53.4274,
      "duration": 0.1298,
      "velocity": 106,
      "chip": "ym2612"
    },
    {
      "channel": 3,
      "note": 50,
      "start": 53.4955,
      "duration": 0.0291,
      "velocity": 117,
      "chip": "ym2612"
    },
    {
      "channel": 0,
      "note": 50,
      "start": 53.5776,
      "duration": 0.0293,
      "velocity": 117,
      "chip": "ym2612"
    },
    {
      "channel": 1,
      "note": 72,
      "start": 53.5818,
      "duration": 0.0761,
      "velocity": 106,
      "chip": "ym2612"
    },
    {
      "channel": 2,
      "note": 84,
      "start": 53.5858,
      "duration": 0.0713,
      "velocity": 107,
      "chip": "ym2612"
    },
    {
      "channel": 0,
      "note": 72,
      "start": 53.6274,
      "duration": 0.0798,
      "velocity": 106,
      "chip": "ym2612"
    },
    {
      "channel": 1,
      "note": 73,
      "start": 53.6786,
      "duration": 0.0794,
      "velocity": 106,
      "chip": "ym2612"
    },
    {
      "channel": 2,
      "note": 74,
      "start": 53.6828,
      "duration": 0.025,
      "velocity": 127,
      "chip": "ym2612"
    },
    {
      "channel": 3,
      "note": 85,
      "start": 53.687,
      "duration": 0.0702,
      "velocity": 107,
      "chip": "ym2612"
    },
    {
      "channel": 0,
      "note": 73,
      "start": 53.7274,
      "duration": 0.0799,
      "velocity": 106,
      "chip": "ym2612"
    },
    {
      "channel": 1,
      "note": 50,
      "start": 53.7788,
      "duration": 0.029,
      "velocity": 117,
      "chip": "ym2612"
    },
    {
      "channel": 2,
      "note": 74,
      "start": 53.7831,
      "duration": 0.0761,
      "velocity": 106,
      "chip": "ym2612"
    },
    {
      "channel": 3,
      "note": 86,
      "start": 53.7872,
      "duration": 0.0712,
      "velocity": 107,
      "chip": "ym2612"
    },
    {
      "channel": 0,
      "note": 74,
      "start": 53.8121,
      "duration": 0.0784,
      "velocity": 106,
      "chip": "ym2612"
    },
    {
      "channel": 1,
      "note": 77,
      "start": 53.8774,
      "duration": 0.1313,
      "velocity": 106,
      "chip": "ym2612"
    },
    {
      "channel": 2,
      "note": 89,
      "start": 53.8814,
      "duration": 0.1258,
      "velocity": 107,
      "chip": "ym2612"
    },
    {
      "channel": 0,
      "note": 77,
      "start": 53.9108,
      "duration": 0.1309,
      "velocity": 106,
      "chip": "ym2612"
    },
    {
      "channel": 3,
      "note": 50,
      "start": 53.9776,
      "duration": 0.0304,
      "velocity": 117,
      "chip": "ym2612"
    },
    {
      "channel": 0,
      "note": 72,
      "start": 54.0774,
      "duration": 0.0799,
      "velocity": 106,
      "chip": "ym2612"
    },
    {
      "channel": 1,
      "note": 74,
      "start": 54.0816,
      "duration": 0.0254,
      "velocity": 127,
      "chip": "ym2612"
    },
    {
      "channel": 2,
      "note": 84,
      "start": 54.0856,
      "duration": 0.0726,
      "velocity": 107,
      "chip": "ym2612"
    },
    {
      "channel": 1,
      "note": 72,
      "start": 54.1113,
      "duration": 0.0793,
      "velocity": 106,
      "chip": "ym2612"
    },
    {
      "channel": 0,
      "note": 73,
      "start": 54.1625,
      "duration": 0.0788,
      "velocity": 106,
      "chip": "ym2612"
    },
    {
      "channel": 2,
      "note": 74,
      "start": 54.1667,
      "duration": 0.0245,
      "velocity": 127,
      "chip": "ym2612"
    },
    {
      "channel": 3,
      "note": 85,
      "start": 54.1709,
      "duration": 0.0697,
      "velocity": 107,
      "chip": "ym2612"
    },
    {
      "channel": 1,
      "note": 73,
      "start": 54.2107,
      "duration": 0.0799,
      "velocity": 106,
      "chip": "ym2612"
    },
    {
      "channel": 0,
      "note": 74,
      "start": 54.2607,
      "duration": 0.0806,
      "velocity": 106,
      "chip": "ym2612"
    },
    {
      "channel": 2,
      "note": 50,
      "start": 54.2651,
      "duration": 0.026,
      "velocity": 117,
      "chip": "ym2612"
    },
    {
      "channel": 3,
      "note": 86,
      "start": 54.2692,
      "duration": 0.0713,
      "velocity": 107,
      "chip": "ym2612"
    },
    {
      "channel": 1,
      "note": 74,
      "start": 54.3108,
      "duration": 0.0799,
      "velocity": 106,
      "chip": "ym2612"
    },
    {
      "channel": 0,
      "note": 79,
      "start": 54.3607,
      "duration": 0.2318,
      "velocity": 106,
      "chip": "ym2612"
    },
    {
      "channel": 2,
      "note": 50,
      "start": 54.3651,
      "duration": 0.0261,
      "velocity": 117,
      "chip": "ym2612"
    },
    {
      "channel": 3,
      "note": 91,
      "start": 54.3692,
      "duration": 0.2225,
      "velocity": 107,
      "chip": "ym2612"
    },
    {
      "channel": 1,
      "note": 79,
      "start": 54.3955,
      "duration": 0.2284,
      "velocity": 106,
      "chip": "ym2612"
    },
    {
      "channel": 2,
      "note": 74,
      "start": 54.4607,
      "duration": 0.0296,
      "velocity": 127,
      "chip": "ym2612"
    },
    {
      "channel": 0,
      "note": 72,
      "start": 54.6607,
      "duration": 0.0799,
      "velocity": 106,
      "chip": "ym2612"
    },
    {
      "channel": 1,
      "note": 50,
      "start": 54.6651,
      "duration": 0.0263,
      "velocity": 117,
      "chip": "ym2612"
    },
    {
      "channel": 2,
      "note": 84,
      "start": 54.6692,
      "duration": 0.0724,
      "velocity": 107,
      "chip": "ym2612"
    },
    {
      "channel": 1,
      "note": 72,
      "start": 54.6958,
      "duration": 0.0793,
      "velocity": 106,
      "chip": "ym2612"
    },
    {
      "channel": 0,
      "note": 50,
      "start": 54.7461,
      "duration": 0.0295,
      "velocity": 117,
      "chip": "ym2612"
    },
    {
      "channel": 2,
      "note": 73,
      "start": 54.7503,
      "duration": 0.0745,
      "velocity": 106,
      "chip": "ym2612"
    },
    {
      "channel": 3,
      "note": 85,
      "start": 54.7544,
      "duration": 0.0695,
      "velocity": 107,
      "chip": "ym2612"
    },
    {
      "channel": 0,
      "note": 73,
      "start": 54.794,
      "duration": 0.0811,
      "velocity": 106,
      "chip": "ym2612"
    },
    {
      "channel": 1,
      "note": 74,
      "start": 54.8441,
      "duration": 0.0806,
      "velocity": 106,
      "chip": "ym2612"
    },
    {
      "channel": 2,
      "note": 74,
      "start": 54.8483,
      "duration": 0.0274,
      "velocity": 127,
      "chip": "ym2612"
    },
    {
      "channel": 3,
      "note": 86,
      "start": 54.8524,
      "duration": 0.0715,
      "velocity": 107,
      "chip": "ym2612"
    },
    {
      "channel": 0,
      "note": 74,
      "start": 54.8941,
      "duration": 0.0798,
      "velocity": 106,
      "chip": "ym2612"
    },
    {
      "channel": 1,
      "note": 77,
      "start": 54.944,
      "duration": 0.1313,
      "velocity": 106,
      "chip": "ym2612"
    },
    {
      "channel": 2,
      "note": 89,
      "start": 54.9481,
      "duration": 0.1258,
      "velocity": 107,
      "chip": "ym2612"
    },
    {
      "channel": 0,
      "note": 77,
      "start": 54.9781,
      "duration": 0.1291,
      "velocity": 106,
      "chip": "ym2612"
    },
    {
      "channel": 3,
      "note": 50,
      "start": 55.0443,
      "duration": 0.0303,
      "velocity": 117,
      "chip": "ym2612"
    },
    {
      "channel": 0,
      "note": 50,
      "start": 55.1454,
      "duration": 0.0281,
      "velocity": 117,
      "chip": "ym2612"
    },
    {
      "channel": 1,
      "note": 69,
      "start": 55.1497,
      "duration": 0.0749,
      "velocity": 106,
      "chip": "ym2612"
    },
    {
      "channel": 2,
      "note": 81,
      "start": 55.1538,
      "duration": 0.0701,
      "velocity": 107,
      "chip": "ym2612"
    },
    {
      "channel": 0,
      "note": 69,
      "start": 55.1778,
      "duration": 0.0794,
      "velocity": 106,
      "chip": "ym2612"
    },
    {
      "channel": 1,
      "note": 74,
      "start": 55.2453,
      "duration": 0.0284,
      "velocity": 127,
      "chip": "ym2612"
    },
    {
      "channel": 2,
      "note": 72,
      "start": 55.2495,
      "duration": 0.0766,
      "velocity": 106,
      "chip": "ym2612"
    },
    {
      "channel": 3,
      "note": 84,
      "start": 55.2537,
      "duration": 0.0715,
      "velocity": 107,
      "chip": "ym2612"
    },
    {
      "channel": 0,
      "note": 72,
      "start": 55.2779,
      "duration": 0.0793,
      "velocity": 106,
      "chip": "ym2612"
    },
    {
      "channel": 1,
      "note": 73,
      "start": 55.3304,
      "duration": 0.0776,
      "velocity": 106,
      "chip": "ym2612"
    },
    {
      "channel": 2,
      "note": 85,
      "start": 55.3344,
      "duration": 0.0727,
      "velocity": 107,
      "chip": "ym2612"
    },
    {
      "channel": 0,
      "note": 73,
      "start": 55.3774,
      "duration": 0.0798,
      "velocity": 106,
      "chip": "ym2612"
    },
    {
      "channel": 1,
      "note": 50,
      "start": 55.4288,
      "duration": 0.029,
      "velocity": 117,
      "chip": "ym2612"
    },
    {
      "channel": 2,
      "note": 74,
      "start": 55.433,
      "duration": 0.0761,
      "velocity": 106,
      "chip": "ym2612"
    },
    {
      "channel": 3,
      "note": 86,
      "start": 55.4371,
      "duration": 0.0712,
      "velocity": 107,
      "chip": "ym2612"
    },
    {
      "channel": 0,
      "note": 74,
      "start": 55.4774,
      "duration": 0.0798,
      "velocity": 106,
      "chip": "ym2612"
    },
    {
      "channel": 1,
      "note": 72,
      "start": 55.5274,
      "duration": 0.0818,
      "velocity": 106,
      "chip": "ym2612"
    },
    {
      "channel": 2,
      "note": 50,
      "start": 55.5318,
      "duration": 0.0261,
      "velocity": 117,
      "chip": "ym2612"
    },
    {
      "channel": 3,
      "note": 84,
      "start": 55.536,
      "duration": 0.0725,
      "velocity": 107,
      "chip": "ym2612"
    },
    {
      "channel": 0,
      "note": 72,
      "start": 55.5621,
      "duration": 0.0784,
      "velocity": 106,
      "chip": "ym2612"
    },
    {
      "channel": 1,
      "note": 69,
      "start": 55.6274,
      "duration": 0.0807,
      "velocity": 106,
      "chip": "ym2612"
    },
    {
      "channel": 2,
      "note": 74,
      "start": 55.6316,
      "duration": 0.0254,
      "velocity": 127,
      "chip": "ym2612"
    },
    {
      "channel": 3,
      "note": 81,
      "start": 55.6357,
      "duration": 0.0715,
      "velocity": 107,
      "chip": "ym2612"
    },
    {
      "channel": 0,
      "note": 69,
      "start": 55.6613,
      "duration": 0.0793,
      "velocity": 106,
      "chip": "ym2612"
    },
    {
      "channel": 1,
      "note": 68,
      "start": 55.7274,
      "duration": 0.0806,
      "velocity": 106,
      "chip": "ym2612"
    },
    {
      "channel": 2,
      "note": 50,
      "start": 55.7318,
      "duration": 0.0252,
      "velocity": 117,
      "chip": "ym2612"
    },
    {
      "channel": 3,
      "note": 80,
      "start": 55.736,
      "duration": 0.0712,
      "velocity": 107,
      "chip": "ym2612"
    },
    {
      "channel": 0,
      "note": 68,
      "start": 55.7612,
      "duration": 0.0793,
      "velocity": 106,
      "chip": "ym2612"
    },
    {
      "channel": 1,
      "note": 67,
      "start": 55.8274,
      "duration": 0.0809,
      "velocity": 106,
      "chip": "ym2612"
    },
    {
      "channel": 2,
      "note": 79,
      "start": 55.8314,
      "duration": 0.0758,
      "velocity": 107,
      "chip": "ym2612"
    },
    {
      "channel": 0,
      "note": 67,
      "start": 55.8607,
      "duration": 0.0798,
      "velocity": 106,
      "chip": "ym2612"
    },
    {
      "channel": 1,
      "note": 65,
      "start": 55.9125,
      "duration": 0.2788,
      "velocity": 106,
      "chip": "ym2612"
    },
    {
      "channel": 2,
      "note": 50,
      "start": 55.917,
      "duration": 0.0241,
      "velocity": 117,
      "chip": "ym2612"
    },
    {
      "channel": 3,
      "note": 77,
      "start": 55.9211,
      "duration": 0.2695,
      "velocity": 107,
      "chip": "ym2612"
    },
    {
      "channel": 0,
      "note": 65,
      "start": 55.9608,
      "duration": 0.281,
      "velocity": 106,
      "chip": "ym2612"
    },
    {
      "channel": 2,
      "note": 74,
      "start": 56.0107,
      "duration": 0.0296,
      "velocity": 127,
      "chip": "ym2612"
    },
    {
      "channel": 2,
      "note": 74,
      "start": 56.1107,
      "duration": 0.0296,
      "velocity": 127,
      "chip": "ym2612"
    },
    {
      "channel": 1,
      "note": 72,
      "start": 56.2107,
      "duration": 0.0807,
      "velocity": 106,
      "chip": "ym2612"
    },
    {
      "channel": 2,
      "note": 50,
      "start": 56.2151,
      "duration": 0.0272,
      "velocity": 117,
      "chip": "ym2612"
    },
    {
      "channel": 3,
      "note": 84,
      "start": 56.2192,
      "duration": 0.0713,
      "velocity": 107,
      "chip": "ym2612"
    },
    {
      "channel": 0,
      "note": 72,
      "start": 56.2466,
      "duration": 0.0773,
      "velocity": 106,
      "chip": "ym2612"
    },
    {
      "channel": 1,
      "note": 73,
      "start": 56.3108,
      "duration": 0.0806,
      "velocity": 106,
      "chip": "ym2612"
    },
    {
      "channel": 2,
      "note": 50,
      "start": 56.3152,
      "duration": 0.0263,
      "velocity": 117,
      "chip": "ym2612"
    },
    {
      "channel": 3,
      "note": 85,
      "start": 56.3193,
      "duration": 0.0712,
      "velocity": 107,
      "chip": "ym2612"
    },
    {
      "channel": 0,
      "note": 73,
      "start": 56.3458,
      "duration": 0.0793,
      "velocity": 106,
      "chip": "ym2612"
    },
    {
      "channel": 1,
      "note": 74,
      "start": 56.4107,
      "duration": 0.0807,
      "velocity": 106,
      "chip": "ym2612"
    },
    {
      "channel": 2,
      "note": 74,
      "start": 56.415,
      "duration": 0.0254,
      "velocity": 127,
      "chip": "ym2612"
    },
    {
      "channel": 3,
      "note": 86,
      "start": 56.419,
      "duration": 0.0715,
      "velocity": 107,
      "chip": "ym2612"
    },
    {
      "channel": 0,
      "note": 74,
      "start": 56.4446,
      "duration": 0.0805,
      "velocity": 106,
      "chip": "ym2612"
    },
    {
      "channel": 1,
      "note": 77,
      "start": 56.5107,
      "duration": 0.1306,
      "velocity": 106,
      "chip": "ym2612"
    },
    {
      "channel": 2,
      "note": 89,
      "start": 56.5147,
      "duration": 0.1258,
      "velocity": 107,
      "chip": "ym2612"
    },
    {
      "channel": 0,
      "note": 77,
      "start": 56.5441,
      "duration": 0.1298,
      "velocity": 106,
      "chip": "ym2612"
    },
    {
      "channel": 3,
      "note": 50,
      "start": 56.5943,
      "duration": 0.0294,
      "velocity": 117,
      "chip": "ym2612"
    },
    {
      "channel": 0,
      "note": 50,
      "start": 56.6942,
      "duration": 0.0293,
      "velocity": 117,
      "chip": "ym2612"
    },
    {
      "channel": 1,
      "note": 72,
      "start": 56.6985,
      "duration": 0.0761,
      "velocity": 106,
      "chip": "ym2612"
    },
    {
      "channel": 2,
      "note": 84,
      "start": 56.7025,
      "duration": 0.0714,
      "velocity": 107,
      "chip": "ym2612"
    },
    {
      "channel": 0,
      "note": 72,
      "start": 56.7441,
      "duration": 0.0798,
      "velocity": 106,
      "chip": "ym2612"
    },
    {
      "channel": 1,
      "note": 74,
      "start": 56.7952,
      "duration": 0.0293,
      "velocity": 127,
      "chip": "ym2612"
    },
    {
      "channel": 2,
      "note": 73,
      "start": 56.7995,
      "duration": 0.0753,
      "velocity": 106,
      "chip": "ym2612"
    },
    {
      "channel": 3,
      "note": 85,
      "start": 56.8037,
      "duration": 0.0702,
      "velocity": 107,
      "chip": "ym2612"
    },
    {
      "channel": 0,
      "note": 73,
      "start": 56.8288,
      "duration": 0.0784,
      "velocity": 106,
      "chip": "ym2612"
    },
    {
      "channel": 1,
      "note": 74,
      "start": 56.8952,
      "duration": 0.0805,
      "velocity": 106,
      "chip": "ym2612"
    },
    {
      "channel": 2,
      "note": 86,
      "start": 56.8993,
      "duration": 0.0756,
      "velocity": 107,
      "chip": "ym2612"
    },
    {
      "channel": 0,
      "note": 74,
      "start": 56.9274,
      "duration": 0.0798,
      "velocity": 106,
      "chip": "ym2612"
    },
    {
      "channel": 1,
      "note": 50,
      "start": 56.9943,
      "duration": 0.0293,
      "velocity": 117,
      "chip": "ym2612"
    },
    {
      "channel": 2,
      "note": 77,
      "start": 56.9985,
      "duration": 0.1268,
      "velocity": 106,
      "chip": "ym2612"
    },
    {
      "channel": 3,
      "note": 89,
      "start": 57.0026,
      "duration": 0.1214,
      "velocity": 107,
      "chip": "ym2612"
    },
    {
      "channel": 0,
      "note": 77,
      "start": 57.0279,
      "duration": 0.1305,
      "velocity": 106,
      "chip": "ym2612"
    },
    {
      "channel": 1,
      "note": 50,
      "start": 57.0942,
      "duration": 0.0303,
      "velocity": 117,
      "chip": "ym2612"
    },
    {
      "channel": 0,
      "note": 74,
      "start": 57.1774,
      "duration": 0.0295,
      "velocity": 127,
      "chip": "ym2612"
    },
    {
      "channel": 1,
      "note": 72,
      "start": 57.1816,
      "duration": 0.0777,
      "velocity": 106,
      "chip": "ym2612"
    },
    {
      "channel": 2,
      "note": 84,
      "start": 57.1856,
      "duration": 0.0728,
      "velocity": 107,
      "chip": "ym2612"
    },
    {
      "channel": 0,
      "note": 72,
      "start": 57.2274,
      "duration": 0.0798,
      "velocity": 106,
      "chip": "ym2612"
    },
    {
      "channel": 1,
      "note": 73,
      "start": 57.2774,
      "duration": 0.0806,
      "velocity": 106,
      "chip": "ym2612"
    },
    {
      "channel": 2,
      "note": 50,
      "start": 57.2818,
      "duration": 0.026,
      "velocity": 117,
      "chip": "ym2612"
    },
    {
      "channel": 3,
      "note": 85,
      "start": 57.286,
      "duration": 0.0712,
      "velocity": 107,
      "chip": "ym2612"
    },
    {
      "channel": 0,
      "note": 73,
      "start": 57.3274,
      "duration": 0.0798,
      "velocity": 106,
      "chip": "ym2612"
    },
    {
      "channel": 1,
      "note": 74,
      "start": 57.3774,
      "duration": 0.0806,
      "velocity": 106,
      "chip": "ym2612"
    },
    {
      "channel": 2,
      "note": 86,
      "start": 57.3814,
      "duration": 0.0758,
      "velocity": 107,
      "chip": "ym2612"
    },
    {
      "channel": 0,
      "note": 74,
      "start": 57.4115,
      "duration": 0.0791,
      "velocity": 106,
      "chip": "ym2612"
    },
    {
      "channel": 1,
      "note": 50,
      "start": 57.4776,
      "duration": 0.0293,
      "velocity": 117,
      "chip": "ym2612"
    },
    {
      "channel": 2,
      "note": 79,
      "start": 57.4818,
      "duration": 0.228,
      "velocity": 106,
      "chip": "ym2612"
    },
    {
      "channel": 3,
      "note": 91,
      "start": 57.4859,
      "duration": 0.2225,
      "velocity": 107,
      "chip": "ym2612"
    },
    {
      "channel": 0,
      "note": 79,
      "start": 57.5112,
      "duration": 0.2294,
      "velocity": 106,
      "chip": "ym2612"
    },
    {
      "channel": 1,
      "note": 74,
      "start": 57.5774,
      "duration": 0.0296,
      "velocity": 127,
      "chip": "ym2612"
    },
    {
      "channel": 1,
      "note": 74,
      "start": 57.6774,
      "duration": 0.0317,
      "velocity": 127,
      "chip": "ym2612"
    },
    {
      "channel": 0,
      "note": 81,
      "start": 57.7607,
      "duration": 0.0798,
      "velocity": 106,
      "chip": "ym2612"
    },
    {
      "channel": 1,
      "note": 50,
      "start": 57.7651,
      "duration": 0.0251,
      "velocity": 117,
      "chip": "ym2612"
    },
    {
      "channel": 2,
      "note": 93,
      "start": 57.7692,
      "duration": 0.072,
      "velocity": 107,
      "chip": "ym2612"
    },
    {
      "channel": 1,
      "note": 81,
      "start": 57.812,
      "duration": 0.0798,
      "velocity": 106,
      "chip": "ym2612"
    },
    {
      "channel": 0,
      "note": 79,
      "start": 57.8607,
      "duration": 0.0806,
      "velocity": 106,
      "chip": "ym2612"
    },
    {
      "channel": 2,
      "note": 50,
      "start": 57.8651,
      "duration": 0.0272,
      "velocity": 117,
      "chip": "ym2612"
    },
    {
      "channel": 3,
      "note": 91,
      "start": 57.8692,
      "duration": 0.0713,
      "velocity": 107,
      "chip": "ym2612"
    },
    {
      "channel": 1,
      "note": 79,
      "start": 57.9107,
      "duration": 0.0812,
      "velocity": 106,
      "chip": "ym2612"
    },
    {
      "channel": 0,
      "note": 77,
      "start": 57.9607,
      "duration": 0.0806,
      "velocity": 106,
      "chip": "ym2612"
    },
    {
      "channel": 2,
      "note": 74,
      "start": 57.965,
      "duration": 0.0276,
      "velocity": 127,
      "chip": "ym2612"
    },
    {
      "channel": 3,
      "note": 89,
      "start": 57.969,
      "duration": 0.0715,
      "velocity": 107,
      "chip": "ym2612"
    },
    {
      "channel": 1,
      "note": 77,
      "start": 57.9968,
      "duration": 0.0783,
      "velocity": 106,
      "chip": "ym2612"
    },
    {
      "channel": 0,
      "note": 74,
      "start": 58.0608,
      "duration": 0.0295,
      "velocity": 127,
      "chip": "ym2612"
    },
    {
      "channel": 2,
      "note": 74,
      "start": 58.065,
      "duration": 0.0764,
      "velocity": 106,
      "chip": "ym2612"
    },
    {
      "channel": 3,
      "note": 86,
      "start": 58.069,
      "duration": 0.0715,
      "velocity": 107,
      "chip": "ym2612"
    },
    {
      "channel": 0,
      "note": 74,
      "start": 58.0945,
      "duration": 0.0805,
      "velocity": 106,
      "chip": "ym2612"
    },
    {
      "channel": 1,
      "note": 77,
      "start": 58.1608,
      "duration": 0.0806,
      "velocity": 106,
      "chip": "ym2612"
    },
    {
      "channel": 2,
      "note": 50,
      "start": 58.1651,
      "duration": 0.0252,
      "velocity": 117,
      "chip": "ym2612"
    },
    {
      "channel": 3,
      "note": 89,
      "start": 58.1693,
      "duration": 0.0712,
      "velocity": 107,
      "chip": "ym2612"
    },
    {
      "channel": 0,
      "note": 77,
      "start": 58.1946,
      "duration": 0.0793,
      "velocity": 106,
      "chip": "ym2612"
    },
    {
      "channel": 1,
      "note": 50,
      "start": 58.2622,
      "duration": 0.0281,
      "velocity": 117,
      "chip": "ym2612"
    },
    {
      "channel": 2,
      "note": 74,
      "start": 58.2664,
      "duration": 0.0753,
      "velocity": 106,
      "chip": "ym2612"
    },
    {
      "channel": 3,
      "note": 86,
      "start": 58.2704,
      "duration": 0.0702,
      "velocity": 107,
      "chip": "ym2612"
    },
    {
      "channel": 0,
      "note": 74,
      "start": 58.2945,
      "duration": 0.0793,
      "velocity": 106,
      "chip": "ym2612"
    },
    {
      "channel": 1,
      "note": 72,
      "start": 58.3459,
      "duration": 0.0788,
      "velocity": 106,
      "chip": "ym2612"
    },
    {
      "channel": 2,
      "note": 74,
      "start": 58.3502,
      "duration": 0.0243,
      "velocity": 127,
      "chip": "ym2612"
    },
    {
      "channel": 3,
      "note": 84,
      "start": 58.3543,
      "duration": 0.0696,
      "velocity": 107,
      "chip": "ym2612"
    },
    {
      "channel": 0,
      "note": 72,
      "start": 58.3941,
      "duration": 0.0798,
      "velocity": 106,
      "chip": "ym2612"
    },
    {
      "channel": 1,
      "note": 74,
      "start": 58.4452,
      "duration": 0.0292,
      "velocity": 127,
      "chip": "ym2612"
    },
    {
      "channel": 2,
      "note": 69,
      "start": 58.4494,
      "duration": 0.0753,
      "velocity": 106,
      "chip": "ym2612"
    },
    {
      "channel": 3,
      "note": 81,
      "start": 58.4535,
      "duration": 0.0704,
      "velocity": 107,
      "chip": "ym2612"
    },
    {
      "channel": 0,
      "note": 69,
      "start": 58.4941,
      "duration": 0.0798,
      "velocity": 106,
      "chip": "ym2612"
    },
    {
      "channel": 1,
      "note": 74,
      "start": 58.5453,
      "duration": 0.0806,
      "velocity": 106,
      "chip": "ym2612"
    },
    {
      "channel": 2,
      "note": 74,
      "start": 58.5495,
      "duration": 0.0251,
      "velocity": 127,
      "chip": "ym2612"
    },
    {
      "channel": 3,
      "note": 86,
      "start": 58.5537,
      "duration": 0.0715,
      "velocity": 107,
      "chip": "ym2612"
    },
    {
      "channel": 0,
      "note": 74,
      "start": 58.5788,
      "duration": 0.0784,
      "velocity": 106,
      "chip": "ym2612"
    },
    {
      "channel": 1,
      "note": 74,
      "start": 58.6441,
      "duration": 0.0296,
      "velocity": 127,
      "chip": "ym2612"
    },
    {
      "channel": 2,
      "note": 72,
      "start": 58.6483,
      "duration": 0.0777,
      "velocity": 106,
      "chip": "ym2612"
    },
    {
      "channel": 3,
      "note": 84,
      "start": 58.6524,
      "duration": 0.0728,
      "velocity": 107,
      "chip": "ym2612"
    },
    {
      "channel": 0,
      "note": 72,
      "start": 58.6779,
      "duration": 0.0793,
      "velocity": 106,
      "chip": "ym2612"
    },
    {
      "channel": 1,
      "note": 69,
      "start": 58.7441,
      "duration": 0.0806,
      "velocity": 106,
      "chip": "ym2612"
    },
    {
      "channel": 2,
      "note": 74,
      "start": 58.7483,
      "duration": 0.0254,
      "velocity": 127,
      "chip": "ym2612"
    },
    {
      "channel": 3,
      "note": 81,
      "start": 58.7524,
      "duration": 0.0715,
      "velocity": 107,
      "chip": "ym2612"
    },
    {
      "channel": 0,
      "note": 69,
      "start": 58.7779,
      "duration": 0.0793,
      "velocity": 106,
      "chip": "ym2612"
    },
    {
      "channel": 1,
      "note": 68,
      "start": 58.8441,
      "duration": 0.0809,
      "velocity": 106,
      "chip": "ym2612"
    },
    {
      "channel": 2,
      "note": 74,
      "start": 58.8483,
      "duration": 0.0254,
      "velocity": 127,
      "chip": "ym2612"
    },
    {
      "channel": 3,
      "note": 80,
      "start": 58.8524,
      "duration": 0.0716,
      "velocity": 107,
      "chip": "ym2612"
    },
    {
      "channel": 0,
      "note": 68,
      "start": 58.8779,
      "duration": 0.0793,
      "velocity": 106,
      "chip": "ym2612"
    },
    {
      "channel": 1,
      "note": 67,
      "start": 58.9293,
      "duration": 0.0788,
      "velocity": 106,
      "chip": "ym2612"
    },
    {
      "channel": 2,
      "note": 50,
      "start": 58.9337,
      "duration": 0.0241,
      "velocity": 117,
      "chip": "ym2612"
    },
    {
      "channel": 3,
      "note": 79,
      "start": 58.9378,
      "duration": 0.0694,
      "velocity": 107,
      "chip": "ym2612"
    },
    {
      "channel": 0,
      "note": 67,
      "start": 58.9774,
      "duration": 0.0799,
      "velocity": 106,
      "chip": "ym2612"
    },
    {
      "channel": 1,
      "note": 50,
      "start": 59.0276,
      "duration": 0.0302,
      "velocity": 117,
      "chip": "ym2612"
    },
    {
      "channel": 2,
      "note": 65,
      "start": 59.0318,
      "duration": 0.2762,
      "velocity": 106,
      "chip": "ym2612"
    },
    {
      "channel": 3,
      "note": 77,
      "start": 59.0359,
      "duration": 0.2713,
      "velocity": 107,
      "chip": "ym2612"
    },
    {
      "channel": 0,
      "note": 65,
      "start": 59.0774,
      "duration": 0.281,
      "velocity": 106,
      "chip": "ym2612"
    },
    {
      "channel": 1,
      "note": 50,
      "start": 59.1276,
      "duration": 0.0294,
      "velocity": 117,
      "chip": "ym2612"
    },
    {
      "channel": 1,
      "note": 50,
      "start": 59.2276,
      "duration": 0.0294,
      "velocity": 117,
      "chip": "ym2612"
    },
    {
      "channel": 1,
      "note": 72,
      "start": 59.3274,
      "duration": 0.0808,
      "velocity": 106,
      "chip": "ym2612"
    },
    {
      "channel": 2,
      "note": 60,
      "start": 59.3316,
      "duration": 0.0773,
      "velocity": 101,
      "chip": "ym2612"
    },
    {
      "channel": 3,
      "note": 50,
      "start": 59.3383,
      "duration": 0.0209,
      "velocity": 117,
      "chip": "ym2612"
    },
    {
      "channel": 0,
      "note": 50,
      "start": 59.4276,
      "duration": 0.0305,
      "velocity": 117,
      "chip": "ym2612"
    },
    {
      "channel": 1,
      "note": 61,
      "start": 59.4318,
      "duration": 0.0778,
      "velocity": 101,
      "chip": "ym2612"
    },
    {
      "channel": 2,
      "note": 73,
      "start": 59.436,
      "duration": 0.0726,
      "velocity": 106,
      "chip": "ym2612"
    },
    {
      "channel": 0,
      "note": 74,
      "start": 59.5139,
      "duration": 0.0774,
      "velocity": 106,
      "chip": "ym2612"
    },
    {
      "channel": 1,
      "note": 74,
      "start": 59.5205,
      "duration": 0.0221,
      "velocity": 127,
      "chip": "ym2612"
    },
    {
      "channel": 2,
      "note": 62,
      "start": 59.5247,
      "duration": 0.0658,
      "velocity": 101,
      "chip": "ym2612"
    },
    {
      "channel": 0,
      "note": 50,
      "start": 59.611,
      "duration": 0.0315,
      "velocity": 117,
      "chip": "ym2612"
    },
    {
      "channel": 1,
      "note": 77,
      "start": 59.6152,
      "duration": 0.1277,
      "velocity": 106,
      "chip": "ym2612"
    },
    {
      "channel": 2,
      "note": 65,
      "start": 59.6216,
      "duration": 0.119,
      "velocity": 101,
      "chip": "ym2612"
    },
    {
      "channel": 0,
      "note": 50,
      "start": 59.7109,
      "duration": 0.0303,
      "velocity": 117,
      "chip": "ym2612"
    },
    {
      "channel": 0,
      "note": 60,
      "start": 59.8106,
      "duration": 0.0798,
      "velocity": 101,
      "chip": "ym2612"
    },
    {
      "channel": 1,
      "note": 72,
      "start": 59.8148,
      "duration": 0.0764,
      "velocity": 106,
      "chip": "ym2612"
    },
    {
      "channel": 2,
      "note": 50,
      "start": 59.8216,
      "duration": 0.0188,
      "velocity": 117,
      "chip": "ym2612"
    },
    {
      "channel": 0,
      "note": 61,
      "start": 59.9118,
      "duration": 0.0796,
      "velocity": 101,
      "chip": "ym2612"
    },
    {
      "channel": 1,
      "note": 73,
      "start": 59.9161,
      "duration": 0.0761,
      "velocity": 106,
      "chip": "ym2612"
    },
    {
      "channel": 2,
      "note": 74,
      "start": 59.9227,
      "duration": 0.0177,
      "velocity": 127,
      "chip": "ym2612"
    },
    {
      "channel": 0,
      "note": 74,
      "start": 60.012,
      "duration": 0.0809,
      "velocity": 106,
      "chip": "ym2612"
    },
    {
      "channel": 1,
      "note": 50,
      "start": 60.0188,
      "duration": 0.0214,
      "velocity": 117,
      "chip": "ym2612"
    },
    {
      "channel": 2,
      "note": 62,
      "start": 60.023,
      "duration": 0.0688,
      "velocity": 101,
      "chip": "ym2612"
    },
    {
      "channel": 0,
      "note": 77,
      "start": 60.0983,
      "duration": 0.127,
      "velocity": 106,
      "chip": "ym2612"
    },
    {
      "channel": 1,
      "note": 65,
      "start": 60.1048,
      "duration": 0.119,
      "velocity": 101,
      "chip": "ym2612"
    },
    {
      "channel": 2,
      "note": 50,
      "start": 60.1093,
      "duration": 0.0153,
      "velocity": 117,
      "chip": "ym2612"
    },
    {
      "channel": 2,
      "note": 50,
      "start": 60.1955,
      "duration": 0.029,
      "velocity": 117,
      "chip": "ym2612"
    },
    {
      "channel": 0,
      "note": 72,
      "start": 60.294,
      "duration": 0.081,
      "velocity": 106,
      "chip": "ym2612"
    },
    {
      "channel": 1,
      "note": 74,
      "start": 60.3007,
      "duration": 0.0229,
      "velocity": 127,
      "chip": "ym2612"
    },
    {
      "channel": 2,
      "note": 60,
      "start": 60.3047,
      "duration": 0.072,
      "velocity": 101,
      "chip": "ym2612"
    },
    {
      "channel": 0,
      "note": 50,
      "start": 60.3943,
      "duration": 0.0293,
      "velocity": 117,
      "chip": "ym2612"
    },
    {
      "channel": 1,
      "note": 73,
      "start": 60.3986,
      "duration": 0.077,
      "velocity": 106,
      "chip": "ym2612"
    },
    {
      "channel": 2,
      "note": 61,
      "start": 60.405,
      "duration": 0.0688,
      "velocity": 101,
      "chip": "ym2612"
    },
    {
      "channel": 0,
      "note": 62,
      "start": 60.4939,
      "duration": 0.0808,
      "velocity": 101,
      "chip": "ym2612"
    },
    {
      "channel": 1,
      "note": 74,
      "start": 60.4982,
      "duration": 0.0772,
      "velocity": 106,
      "chip": "ym2612"
    },
    {
      "channel": 2,
      "note": 50,
      "start": 60.505,
      "duration": 0.0187,
      "velocity": 117,
      "chip": "ym2612"
    },
    {
      "channel": 0,
      "note": 79,
      "start": 60.5941,
      "duration": 0.2318,
      "velocity": 106,
      "chip": "ym2612"
    },
    {
      "channel": 1,
      "note": 50,
      "start": 60.6009,
      "duration": 0.0227,
      "velocity": 117,
      "chip": "ym2612"
    },
    {
      "channel": 2,
      "note": 67,
      "start": 60.6049,
      "duration": 0.2202,
      "velocity": 101,
      "chip": "ym2612"
    },
    {
      "channel": 1,
      "note": 74,
      "start": 60.6774,
      "duration": 0.0296,
      "velocity": 127,
      "chip": "ym2612"
    },
    {
      "channel": 1,
      "note": 50,
      "start": 60.7776,
      "duration": 0.0294,
      "velocity": 117,
      "chip": "ym2612"
    },
    {
      "channel": 0,
      "note": 50,
      "start": 60.8776,
      "duration": 0.0293,
      "velocity": 117,
      "chip": "ym2612"
    },
    {
      "channel": 1,
      "note": 60,
      "start": 60.8818,
      "duration": 0.0763,
      "velocity": 101,
      "chip": "ym2612"
    },
    {
      "channel": 2,
      "note": 72,
      "start": 60.886,
      "duration": 0.0729,
      "velocity": 106,
      "chip": "ym2612"
    },
    {
      "channel": 0,
      "note": 61,
      "start": 60.9773,
      "duration": 0.0807,
      "velocity": 101,
      "chip": "ym2612"
    },
    {
      "channel": 1,
      "note": 73,
      "start": 60.9816,
      "duration": 0.0772,
      "velocity": 106,
      "chip": "ym2612"
    },
    {
      "channel": 2,
      "note": 50,
      "start": 60.986,
      "duration": 0.0233,
      "velocity": 117,
      "chip": "ym2612"
    },
    {
      "channel": 0,
      "note": 74,
      "start": 61.0774,
      "duration": 0.0805,
      "velocity": 106,
      "chip": "ym2612"
    },
    {
      "channel": 1,
      "note": 74,
      "start": 61.0841,
      "duration": 0.0242,
      "velocity": 127,
      "chip": "ym2612"
    },
    {
      "channel": 2,
      "note": 62,
      "start": 61.088,
      "duration": 0.0691,
      "velocity": 101,
      "chip": "ym2612"
    },
    {
      "channel": 0,
      "note": 77,
      "start": 61.1774,
      "duration": 0.1312,
      "velocity": 106,
      "chip": "ym2612"
    },
    {
      "channel": 1,
      "note": 65,
      "start": 61.1839,
      "duration": 0.1233,
      "velocity": 101,
      "chip": "ym2612"
    },
    {
      "channel": 2,
      "note": 50,
      "start": 61.1883,
      "duration": 0.0188,
      "velocity": 117,
      "chip": "ym2612"
    },
    {
      "channel": 2,
      "note": 50,
      "start": 61.2776,
      "duration": 0.0303,
      "velocity": 117,
      "chip": "ym2612"
    },
    {
      "channel": 0,
      "note": 69,
      "start": 61.3608,
      "duration": 0.0798,
      "velocity": 106,
      "chip": "ym2612"
    },
    {
      "channel": 1,
      "note": 50,
      "start": 61.3676,
      "duration": 0.0227,
      "velocity": 117,
      "chip": "ym2612"
    },
    {
      "channel": 2,
      "note": 57,
      "start": 61.3716,
      "duration": 0.0706,
      "velocity": 101,
      "chip": "ym2612"
    },
    {
      "channel": 0,
      "note": 74,
      "start": 61.4608,
      "duration": 0.0305,
      "velocity": 127,
      "chip": "ym2612"
    },
    {
      "channel": 1,
      "note": 60,
      "start": 61.4649,
      "duration": 0.0773,
      "velocity": 101,
      "chip": "ym2612"
    },
    {
      "channel": 2,
      "note": 72,
      "start": 61.4691,
      "duration": 0.0725,
      "velocity": 106,
      "chip": "ym2612"
    },
    {
      "channel": 0,
      "note": 50,
      "start": 61.5622,
      "duration": 0.0291,
      "velocity": 117,
      "chip": "ym2612"
    },
    {
      "channel": 1,
      "note": 73,
      "start": 61.5665,
      "duration": 0.0758,
      "velocity": 106,
      "chip": "ym2612"
    },
    {
      "channel": 2,
      "note": 61,
      "start": 61.573,
      "duration": 0.0675,
      "velocity": 101,
      "chip": "ym2612"
    },
    {
      "channel": 0,
      "note": 74,
      "start": 61.662,
      "duration": 0.0805,
      "velocity": 106,
      "chip": "ym2612"
    },
    {
      "channel": 1,
      "note": 50,
      "start": 61.6688,
      "duration": 0.0214,
      "velocity": 117,
      "chip": "ym2612"
    },
    {
      "channel": 2,
      "note": 62,
      "start": 61.673,
      "duration": 0.0686,
      "velocity": 101,
      "chip": "ym2612"
    },
    {
      "channel": 0,
      "note": 60,
      "start": 61.7606,
      "duration": 0.082,
      "velocity": 101,
      "chip": "ym2612"
    },
    {
      "channel": 1,
      "note": 72,
      "start": 61.7649,
      "duration": 0.0785,
      "velocity": 106,
      "chip": "ym2612"
    },
    {
      "channel": 2,
      "note": 50,
      "start": 61.7716,
      "duration": 0.0188,
      "velocity": 117,
      "chip": "ym2612"
    },
    {
      "channel": 0,
      "note": 69,
      "start": 61.8608,
      "duration": 0.0808,
      "velocity": 106,
      "chip": "ym2612"
    },
    {
      "channel": 1,
      "note": 74,
      "start": 61.8674,
      "duration": 0.0229,
      "velocity": 127,
      "chip": "ym2612"
    },
    {
      "channel": 2,
      "note": 57,
      "start": 61.8715,
      "duration": 0.0691,
      "velocity": 101,
      "chip": "ym2612"
    },
    {
      "channel": 0,
      "note": 68,
      "start": 61.9471,
      "duration": 0.0788,
      "velocity": 106,
      "chip": "ym2612"
    },
    {
      "channel": 1,
      "note": 56,
      "start": 61.9536,
      "duration": 0.0714,
      "velocity": 101,
      "chip": "ym2612"
    },
    {
      "channel": 2,
      "note": 50,
      "start": 61.9581,
      "duration": 0.0165,
      "velocity": 117,
      "chip": "ym2612"
    },
    {
      "channel": 0,
      "note": 67,
      "start": 62.0441,
      "duration": 0.0807,
      "velocity": 106,
      "chip": "ym2612"
    },
    {
      "channel": 1,
      "note": 55,
      "start": 62.0482,
      "duration": 0.0773,
      "velocity": 101,
      "chip": "ym2612"
    },
    {
      "channel": 2,
      "note": 50,
      "start": 62.0549,
      "duration": 0.0197,
      "velocity": 117,
      "chip": "ym2612"
    },
    {
      "channel": 0,
      "note": 53,
      "start": 62.1439,
      "duration": 0.2808,
      "velocity": 101,
      "chip": "ym2612"
    },
    {
      "channel": 1,
      "note": 65,
      "start": 62.1482,
      "duration": 0.2772,
      "velocity": 106,
      "chip": "ym2612"
    },
    {
      "channel": 2,
      "note": 50,
      "start": 62.1549,
      "duration": 0.0198,
      "velocity": 117,
      "chip": "ym2612"
    },
    {
      "channel": 2,
      "note": 74,
      "start": 62.244,
      "duration": 0.0297,
      "velocity": 127,
      "chip": "ym2612"
    },
    {
      "channel": 2,
      "note": 50,
      "start": 62.3442,
      "duration": 0.0295,
      "velocity": 117,
      "chip": "ym2612"
    },
    {
      "channel": 0,
      "note": 72,
      "start": 62.4441,
      "duration": 0.0808,
      "velocity": 106,
      "chip": "ym2612"
    },
    {
      "channel": 1,
      "note": 50,
      "start": 62.4509,
      "duration": 0.0239,
      "velocity": 117,
      "chip": "ym2612"
    },
    {
      "channel": 2,
      "note": 60,
      "start": 62.4549,
      "duration": 0.069,
      "velocity": 101,
      "chip": "ym2612"
    },
    {
      "channel": 0,
      "note": 73,
      "start": 62.5304,
      "duration": 0.0775,
      "velocity": 106,
      "chip": "ym2612"
    },
    {
      "channel": 1,
      "note": 50,
      "start": 62.5349,
      "duration": 0.023,
      "velocity": 117,
      "chip": "ym2612"
    },
    {
      "channel": 2,
      "note": 61,
      "start": 62.5414,
      "duration": 0.0657,
      "velocity": 101,
      "chip": "ym2612"
    },
    {
      "channel": 0,
      "note": 74,
      "start": 62.6274,
      "duration": 0.0805,
      "velocity": 106,
      "chip": "ym2612"
    },
    {
      "channel": 1,
      "note": 74,
      "start": 62.6341,
      "duration": 0.0251,
      "velocity": 127,
      "chip": "ym2612"
    },
    {
      "channel": 2,
      "note": 62,
      "start": 62.638,
      "duration": 0.0691,
      "velocity": 101,
      "chip": "ym2612"
    },
    {
      "channel": 0,
      "note": 65,
      "start": 62.7273,
      "duration": 0.1314,
      "velocity": 101,
      "chip": "ym2612"
    },
    {
      "channel": 1,
      "note": 77,
      "start": 62.7316,
      "duration": 0.128,
      "velocity": 106,
      "chip": "ym2612"
    },
    {
      "channel": 2,
      "note": 50,
      "start": 62.7383,
      "duration": 0.021,
      "velocity": 117,
      "chip": "ym2612"
    },
    {
      "channel": 2,
      "note": 50,
      "start": 62.8276,
      "duration": 0.0305,
      "velocity": 117,
      "chip": "ym2612"
    },
    {
      "channel": 0,
      "note": 72,
      "start": 62.9274,
      "duration": 0.0798,
      "velocity": 106,
      "chip": "ym2612"
    },
    {
      "channel": 1,
      "note": 50,
      "start": 62.9342,
      "duration": 0.0227,
      "velocity": 117,
      "chip": "ym2612"
    },
    {
      "channel": 2,
      "note": 60,
      "start": 62.9383,
      "duration": 0.0706,
      "velocity": 101,
      "chip": "ym2612"
    },
    {
      "channel": 0,
      "note": 73,
      "start": 63.0286,
      "duration": 0.0796,
      "velocity": 106,
      "chip": "ym2612"
    },
    {
      "channel": 1,
      "note": 61,
      "start": 63.0352,
      "duration": 0.072,
      "velocity": 101,
      "chip": "ym2612"
    },
    {
      "channel": 2,
      "note": 74,
      "start": 63.0395,
      "duration": 0.0175,
      "velocity": 127,
      "chip": "ym2612"
    },
    {
      "channel": 0,
      "note": 74,
      "start": 63.1137,
      "duration": 0.0776,
      "velocity": 106,
      "chip": "ym2612"
    },
    {
      "channel": 1,
      "note": 50,
      "start": 63.1206,
      "duration": 0.0207,
      "velocity": 117,
      "chip": "ym2612"
    },
    {
      "channel": 2,
      "note": 62,
      "start": 63.1248,
      "duration": 0.0657,
      "velocity": 101,
      "chip": "ym2612"
    },
    {
      "channel": 0,
      "note": 65,
      "start": 63.2118,
      "duration": 0.1303,
      "velocity": 101,
      "chip": "ym2612"
    },
    {
      "channel": 1,
      "note": 77,
      "start": 63.2161,
      "duration": 0.1268,
      "velocity": 106,
      "chip": "ym2612"
    },
    {
      "channel": 2,
      "note": 50,
      "start": 63.223,
      "duration": 0.0183,
      "velocity": 117,
      "chip": "ym2612"
    },
    {
      "channel": 2,
      "note": 50,
      "start": 63.3121,
      "duration": 0.0293,
      "velocity": 117,
      "chip": "ym2612"
    },
    {
      "channel": 0,
      "note": 72,
      "start": 63.4107,
      "duration": 0.081,
      "velocity": 106,
      "chip": "ym2612"
    },
    {
      "channel": 1,
      "note": 74,
      "start": 63.415,
      "duration": 0.0253,
      "velocity": 127,
      "chip": "ym2612"
    },
    {
      "channel": 2,
      "note": 60,
      "start": 63.4214,
      "duration": 0.0711,
      "velocity": 101,
      "chip": "ym2612"
    },
    {
      "channel": 0,
      "note": 73,
      "start": 63.5108,
      "duration": 0.0805,
      "velocity": 106,
      "chip": "ym2612"
    },
    {
      "channel": 1,
      "note": 61,
      "start": 63.5173,
      "duration": 0.0732,
      "velocity": 101,
      "chip": "ym2612"
    },
    {
      "channel": 2,
      "note": 50,
      "start": 63.5216,
      "duration": 0.0187,
      "velocity": 117,
      "chip": "ym2612"
    },
    {
      "channel": 0,
      "note": 74,
      "start": 63.6108,
      "duration": 0.0811,
      "velocity": 106,
      "chip": "ym2612"
    },
    {
      "channel": 1,
      "note": 62,
      "start": 63.6149,
      "duration": 0.0779,
      "velocity": 101,
      "chip": "ym2612"
    },
    {
      "channel": 2,
      "note": 50,
      "start": 63.6216,
      "duration": 0.0187,
      "velocity": 117,
      "chip": "ym2612"
    },
    {
      "channel": 0,
      "note": 67,
      "start": 63.697,
      "duration": 0.2284,
      "velocity": 101,
      "chip": "ym2612"
    },
    {
      "channel": 1,
      "note": 79,
      "start": 63.7012,
      "duration": 0.225,
      "velocity": 106,
      "chip": "ym2612"
    },
    {
      "channel": 2,
      "note": 50,
      "start": 63.7081,
      "duration": 0.0165,
      "velocity": 117,
      "chip": "ym2612"
    },
    {
      "channel": 2,
      "note": 74,
      "start": 63.794,
      "duration": 0.0296,
      "velocity": 127,
      "chip": "ym2612"
    },
    {
      "channel": 2,
      "note": 50,
      "start": 63.8942,
      "duration": 0.0305,
      "velocity": 117,
      "chip": "ym2612"
    },
    {
      "channel": 0,
      "note": 86,
      "start": 63.9941,
      "duration": 0.0798,
      "velocity": 106,
      "chip": "ym2612"
    },
    {
      "channel": 1,
      "note": 74,
      "start": 64.0007,
      "duration": 0.0229,
      "velocity": 127,
      "chip": "ym2612"
    },
    {
      "channel": 2,
      "note": 74,
      "start": 64.0047,
      "duration": 0.0708,
      "velocity": 101,
      "chip": "ym2612"
    },
    {
      "channel": 0,
      "note": 84,
      "start": 64.0941,
      "duration": 0.0805,
      "velocity": 106,
      "chip": "ym2612"
    },
    {
      "channel": 1,
      "note": 74,
      "start": 64.1007,
      "duration": 0.0242,
      "velocity": 127,
      "chip": "ym2612"
    },
    {
      "channel": 2,
      "note": 72,
      "start": 64.1047,
      "duration": 0.0691,
      "velocity": 101,
      "chip": "ym2612"
    },
    {
      "channel": 0,
      "note": 69,
      "start": 64.194,
      "duration": 0.0811,
      "velocity": 101,
      "chip": "ym2612"
    },
    {
      "channel": 1,
      "note": 81,
      "start": 64.1982,
      "duration": 0.0779,
      "velocity": 106,
      "chip": "ym2612"
    },
    {
      "channel": 2,
      "note": 50,
      "start": 64.2049,
      "duration": 0.02,
      "velocity": 117,
      "chip": "ym2612"
    },
    {
      "channel": 0,
      "note": 79,
      "start": 64.2804,
      "duration": 0.0775,
      "velocity": 106,
      "chip": "ym2612"
    },
    {
      "channel": 1,
      "note": 74,
      "start": 64.287,
      "duration": 0.0221,
      "velocity": 127,
      "chip": "ym2612"
    },
    {
      "channel": 2,
      "note": 67,
      "start": 64.2912,
      "duration": 0.0659,
      "velocity": 101,
      "chip": "ym2612"
    },
    {
      "channel": 0,
      "note": 84,
      "start": 64.3774,
      "duration": 0.0805,
      "velocity": 106,
      "chip": "ym2612"
    },
    {
      "channel": 1,
      "note": 72,
      "start": 64.3839,
      "duration": 0.0733,
      "velocity": 101,
      "chip": "ym2612"
    },
    {
      "channel": 2,
      "note": 74,
      "start": 64.388,
      "duration": 0.0212,
      "velocity": 127,
      "chip": "ym2612"
    },
    {
      "channel": 0,
      "note": 74,
      "start": 64.4774,
      "duration": 0.0306,
      "velocity": 127,
      "chip": "ym2612"
    },
    {
      "channel": 1,
      "note": 81,
      "start": 64.4817,
      "duration": 0.0772,
      "velocity": 106,
      "chip": "ym2612"
    },
    {
      "channel": 2,
      "note": 69,
      "start": 64.488,
      "duration": 0.0691,
      "velocity": 101,
      "chip": "ym2612"
    },
    {
      "channel": 0,
      "note": 50,
      "start": 64.5776,
      "duration": 0.0293,
      "velocity": 117,
      "chip": "ym2612"
    },
    {
      "channel": 1,
      "note": 79,
      "start": 64.5819,
      "duration": 0.077,
      "velocity": 106,
      "chip": "ym2612"
    },
    {
      "channel": 2,
      "note": 67,
      "start": 64.5883,
      "duration": 0.0689,
      "velocity": 101,
      "chip": "ym2612"
    },
    {
      "channel": 0,
      "note": 65,
      "start": 64.6785,
      "duration": 0.0795,
      "velocity": 101,
      "chip": "ym2612"
    },
    {
      "channel": 1,
      "note": 77,
      "start": 64.6828,
      "duration": 0.076,
      "velocity": 106,
      "chip": "ym2612"
    },
    {
      "channel": 2,
      "note": 50,
      "start": 64.6872,
      "duration": 0.0198,
      "velocity": 117,
      "chip": "ym2612"
    },
    {
      "channel": 0,
      "note": 62,
      "start": 64.7785,
      "duration": 0.081,
      "velocity": 101,
      "chip": "ym2612"
    },
    {
      "channel": 1,
      "note": 74,
      "start": 64.7828,
      "duration": 0.0778,
      "velocity": 106,
      "chip": "ym2612"
    },
    {
      "channel": 2,
      "note": 74,
      "start": 64.7895,
      "duration": 0.0176,
      "velocity": 127,
      "chip": "ym2612"
    },
    {
      "channel": 0,
      "note": 72,
      "start": 64.865,
      "duration": 0.0763,
      "velocity": 106,
      "chip": "ym2612"
    },
    {
      "channel": 1,
      "note": 50,
      "start": 64.8718,
      "duration": 0.0195,
      "velocity": 117,
      "chip": "ym2612"
    },
    {
      "channel": 2,
      "note": 60,
      "start": 64.876,
      "duration": 0.0645,
      "velocity": 101,
      "chip": "ym2612"
    },
    {
      "channel": 0,
      "note": 73,
      "start": 64.962,
      "duration": 0.0118,
      "velocity": 127,
      "chip": "ym2612"
    },
    {
      "channel": 1,
      "note": 69,
      "start": 64.9664,
      "duration": 0.077,
      "velocity": 106,
      "chip": "ym2612"
    },
    {
      "channel": 2,
      "note": 57,
      "start": 64.973,
      "duration": 0.0686,
      "velocity": 101,
      "chip": "ym2612"
    },
    {
      "channel": 0,
      "note": 74,
      "start": 64.9772,
      "duration": 0.0142,
      "velocity": 127,
      "chip": "ym2612"
    },
    {
      "channel": 0,
      "note": 68,
      "start": 65.0608,
      "duration": 0.0818,
      "velocity": 106,
      "chip": "ym2612"
    },
    {
      "channel": 1,
      "note": 50,
      "start": 65.0676,
      "duration": 0.0238,
      "velocity": 117,
      "chip": "ym2612"
    },
    {
      "channel": 2,
      "note": 56,
      "start": 65.0716,
      "duration": 0.0701,
      "velocity": 101,
      "chip": "ym2612"
    },
    {
      "channel": 0,
      "note": 55,
      "start": 65.1606,
      "duration": 0.0807,
      "velocity": 101,
      "chip": "ym2612"
    },
    {
      "channel": 1,
      "note": 67,
      "start": 65.1649,
      "duration": 0.0772,
      "velocity": 106,
      "chip": "ym2612"
    },
    {
      "channel": 2,
      "note": 74,
      "start": 65.1714,
      "duration": 0.019,
      "velocity": 127,
      "chip": "ym2612"
    },
    {
      "channel": 0,
      "note": 65,
      "start": 65.2608,
      "duration": 0.2814,
      "velocity": 106,
      "chip": "ym2612"
    },
    {
      "channel": 1,
      "note": 50,
      "start": 65.2676,
      "duration": 0.0228,
      "velocity": 117,
      "chip": "ym2612"
    },
    {
      "channel": 2,
      "note": 53,
      "start": 65.2716,
      "duration": 0.2689,
      "velocity": 101,
      "chip": "ym2612"
    },
    {
      "channel": 1,
      "note": 74,
      "start": 65.3607,
      "duration": 0.0296,
      "velocity": 127,
      "chip": "ym2612"
    },
    {
      "channel": 1,
      "note": 74,
      "start": 65.444,
      "duration": 0.0307,
      "velocity": 127,
      "chip": "ym2612"
    },
    {
      "channel": 0,
      "note": 50,
      "start": 65.5685,
      "duration": 0.172,
      "velocity": 101,
      "chip": "ym2612"
    },
    {
      "channel": 1,
      "note": 62,
      "start": 65.573,
      "duration": 0.1695,
      "velocity": 106,
      "chip": "ym2612"
    },
    {
      "channel": 2,
      "note": 50,
      "start": 65.58,
      "duration": 0.0116,
      "velocity": 117,
      "chip": "ym2612"
    },
    {
      "channel": 0,
      "note": 74,
      "start": 65.7472,
      "duration": 0.0276,
      "velocity": 127,
      "chip": "ym2612"
    },
    {
      "channel": 1,
      "note": 50,
      "start": 65.7513,
      "duration": 0.1724,
      "velocity": 101,
      "chip": "ym2612"
    },
    {
      "channel": 2,
      "note": 62,
      "start": 65.7555,
      "duration": 0.1691,
      "velocity": 106,
      "chip": "ym2612"
    },
    {
      "channel": 0,
      "note": 50,
      "start": 65.9448,
      "duration": 0.1789,
      "velocity": 101,
      "chip": "ym2612"
    },
    {
      "channel": 1,
      "note": 62,
      "start": 65.9491,
      "duration": 0.1754,
      "velocity": 106,
      "chip": "ym2612"
    },
    {
      "channel": 2,
      "note": 50,
      "start": 65.9535,
      "duration": 0.0202,
      "velocity": 117,
      "chip": "ym2612"
    },
    {
      "channel": 2,
      "note": 50,
      "start": 66.0443,
      "duration": 0.0294,
      "velocity": 117,
      "chip": "ym2612"
    },
    {
      "channel": 0,
      "note": 74,
      "start": 66.1461,
      "duration": 0.0275,
      "velocity": 127,
      "chip": "ym2612"
    },
    {
      "channel": 1,
      "note": 50,
      "start": 66.1503,
      "duration": 0.1764,
      "velocity": 101,
      "chip": "ym2612"
    },
    {
      "channel": 2,
      "note": 62,
      "start": 66.1545,
      "duration": 0.1707,
      "velocity": 106,
      "chip": "ym2612"
    },
    {
      "channel": 0,
      "note": 50,
      "start": 66.344,
      "duration": 0.1798,
      "velocity": 101,
      "chip": "ym2612"
    },
    {
      "channel": 1,
      "note": 62,
      "start": 66.3482,
      "duration": 0.1777,
      "velocity": 106,
      "chip": "ym2612"
    },
    {
      "channel": 2,
      "note": 50,
      "start": 66.3527,
      "duration": 0.021,
      "velocity": 117,
      "chip": "ym2612"
    },
    {
      "channel": 0,
      "note": 74,
      "start": 66.5306,
      "duration": 0.0263,
      "velocity": 127,
      "chip": "ym2612"
    },
    {
      "channel": 1,
      "note": 50,
      "start": 66.5346,
      "duration": 0.0746,
      "velocity": 101,
      "chip": "ym2612"
    },
    {
      "channel": 2,
      "note": 62,
      "start": 66.5388,
      "duration": 0.0697,
      "velocity": 106,
      "chip": "ym2612"
    },
    {
      "channel": 0,
      "note": 55,
      "start": 66.6284,
      "duration": 0.1795,
      "velocity": 101,
      "chip": "ym2612"
    },
    {
      "channel": 1,
      "note": 67,
      "start": 66.6326,
      "duration": 0.1246,
      "velocity": 106,
      "chip": "ym2612"
    },
    {
      "channel": 2,
      "note": 50,
      "start": 66.637,
      "duration": 0.02,
      "velocity": 117,
      "chip": "ym2612"
    },
    {
      "channel": 0,
      "note": 53,
      "start": 66.8274,
      "duration": 0.2822,
      "velocity": 101,
      "chip": "ym2612"
    },
    {
      "channel": 1,
      "note": 50,
      "start": 66.8319,
      "duration": 0.0251,
      "velocity": 117,
      "chip": "ym2612"
    },
    {
      "channel": 2,
      "note": 65,
      "start": 66.836,
      "duration": 0.2748,
      "velocity": 106,
      "chip": "ym2612"
    },
    {
      "channel": 1,
      "note": 74,
      "start": 66.9282,
      "duration": 0.0288,
      "velocity": 127,
      "chip": "ym2612"
    },
    {
      "channel": 0,
      "note": 50,
      "start": 67.1158,
      "duration": 0.0245,
      "velocity": 117,
      "chip": "ym2612"
    },
    {
      "channel": 1,
      "note": 50,
      "start": 67.1199,
      "duration": 0.1722,
      "velocity": 101,
      "chip": "ym2612"
    },
    {
      "channel": 2,
      "note": 62,
      "start": 67.1244,
      "duration": 0.1663,
      "velocity": 106,
      "chip": "ym2612"
    },
    {
      "channel": 0,
      "note": 74,
      "start": 67.311,
      "duration": 0.0305,
      "velocity": 127,
      "chip": "ym2612"
    },
    {
      "channel": 1,
      "note": 50,
      "start": 67.315,
      "duration": 0.1754,
      "velocity": 101,
      "chip": "ym2612"
    },
    {
      "channel": 2,
      "note": 62,
      "start": 67.3192,
      "duration": 0.1731,
      "velocity": 106,
      "chip": "ym2612"
    },
    {
      "channel": 0,
      "note": 50,
      "start": 67.5106,
      "duration": 0.181,
      "velocity": 101,
      "chip": "ym2612"
    },
    {
      "channel": 1,
      "note": 50,
      "start": 67.515,
      "duration": 0.0252,
      "velocity": 117,
      "chip": "ym2612"
    },
    {
      "channel": 2,
      "note": 62,
      "start": 67.5192,
      "duration": 0.1716,
      "velocity": 106,
      "chip": "ym2612"
    },
    {
      "channel": 1,
      "note": 50,
      "start": 67.5952,
      "duration": 0.0284,
      "velocity": 117,
      "chip": "ym2612"
    },
    {
      "channel": 0,
      "note": 74,
      "start": 67.6963,
      "duration": 0.0273,
      "velocity": 127,
      "chip": "ym2612"
    },
    {
      "channel": 1,
      "note": 50,
      "start": 67.7003,
      "duration": 0.1735,
      "velocity": 101,
      "chip": "ym2612"
    },
    {
      "channel": 2,
      "note": 62,
      "start": 67.7045,
      "duration": 0.171,
      "velocity": 106,
      "chip": "ym2612"
    },
    {
      "channel": 0,
      "note": 50,
      "start": 67.8957,
      "duration": 0.0279,
      "velocity": 117,
      "chip": "ym2612"
    },
    {
      "channel": 1,
      "note": 50,
      "start": 67.8998,
      "duration": 0.1753,
      "velocity": 101,
      "chip": "ym2612"
    },
    {
      "channel": 2,
      "note": 62,
      "start": 67.9039,
      "duration": 0.172,
      "velocity": 106,
      "chip": "ym2612"
    },
    {
      "channel": 0,
      "note": 74,
      "start": 68.0941,
      "duration": 0.0295,
      "velocity": 127,
      "chip": "ym2612"
    },
    {
      "channel": 1,
      "note": 50,
      "start": 68.0982,
      "duration": 0.0757,
      "velocity": 101,
      "chip": "ym2612"
    },
    {
      "channel": 2,
      "note": 62,
      "start": 68.1023,
      "duration": 0.0726,
      "velocity": 106,
      "chip": "ym2612"
    },
    {
      "channel": 0,
      "note": 56,
      "start": 68.1794,
      "duration": 0.1777,
      "velocity": 101,
      "chip": "ym2612"
    },
    {
      "channel": 1,
      "note": 68,
      "start": 68.1836,
      "duration": 0.1236,
      "velocity": 106,
      "chip": "ym2612"
    },
    {
      "channel": 2,
      "note": 50,
      "start": 68.188,
      "duration": 0.019,
      "velocity": 117,
      "chip": "ym2612"
    },
    {
      "channel": 0,
      "note": 55,
      "start": 68.3772,
      "duration": 0.2809,
      "velocity": 101,
      "chip": "ym2612"
    },
    {
      "channel": 1,
      "note": 67,
      "start": 68.3814,
      "duration": 0.2776,
      "velocity": 106,
      "chip": "ym2612"
    },
    {
      "channel": 2,
      "note": 50,
      "start": 68.3858,
      "duration": 0.0212,
      "velocity": 117,
      "chip": "ym2612"
    },
    {
      "channel": 2,
      "note": 74,
      "start": 68.4774,
      "duration": 0.0297,
      "velocity": 127,
      "chip": "ym2612"
    },
    {
      "channel": 0,
      "note": 50,
      "start": 68.6773,
      "duration": 0.1798,
      "velocity": 101,
      "chip": "ym2612"
    },
    {
      "channel": 1,
      "note": 62,
      "start": 68.6816,
      "duration": 0.1766,
      "velocity": 106,
      "chip": "ym2612"
    },
    {
      "channel": 2,
      "note": 50,
      "start": 68.6883,
      "duration": 0.0199,
      "velocity": 117,
      "chip": "ym2612"
    },
    {
      "channel": 0,
      "note": 74,
      "start": 68.8628,
      "duration": 0.0287,
      "velocity": 127,
      "chip": "ym2612"
    },
    {
      "channel": 1,
      "note": 50,
      "start": 68.8669,
      "duration": 0.1736,
      "velocity": 101,
      "chip": "ym2612"
    },
    {
      "channel": 2,
      "note": 62,
      "start": 68.871,
      "duration": 0.1711,
      "velocity": 106,
      "chip": "ym2612"
    },
    {
      "channel": 0,
      "note": 50,
      "start": 69.0612,
      "duration": 0.0291,
      "velocity": 117,
      "chip": "ym2612"
    },
    {
      "channel": 1,
      "note": 50,
      "start": 69.0652,
      "duration": 0.1753,
      "velocity": 101,
      "chip": "ym2612"
    },
    {
      "channel": 2,
      "note": 62,
      "start": 69.0693,
      "duration": 0.173,
      "velocity": 106,
      "chip": "ym2612"
    },
    {
      "channel": 0,
      "note": 50,
      "start": 69.1609,
      "duration": 0.0294,
      "velocity": 117,
      "chip": "ym2612"
    },
    {
      "channel": 0,
      "note": 74,
      "start": 69.262,
      "duration": 0.0283,
      "velocity": 127,
      "chip": "ym2612"
    },
    {
      "channel": 1,
      "note": 50,
      "start": 69.2661,
      "duration": 0.1756,
      "velocity": 101,
      "chip": "ym2612"
    },
    {
      "channel": 2,
      "note": 62,
      "start": 69.2702,
      "duration": 0.1724,
      "velocity": 106,
      "chip": "ym2612"
    },
    {
      "channel": 0,
      "note": 50,
      "start": 69.4468,
      "duration": 0.179,
      "velocity": 101,
      "chip": "ym2612"
    },
    {
      "channel": 1,
      "note": 62,
      "start": 69.451,
      "duration": 0.1742,
      "velocity": 106,
      "chip": "ym2612"
    },
    {
      "channel": 2,
      "note": 50,
      "start": 69.4554,
      "duration": 0.0183,
      "velocity": 117,
      "chip": "ym2612"
    },
    {
      "channel": 0,
      "note": 74,
      "start": 69.6441,
      "duration": 0.0295,
      "velocity": 127,
      "chip": "ym2612"
    },
    {
      "channel": 1,
      "note": 50,
      "start": 69.6482,
      "duration": 0.0768,
      "velocity": 101,
      "chip": "ym2612"
    },
    {
      "channel": 2,
      "note": 62,
      "start": 69.6523,
      "duration": 0.0736,
      "velocity": 106,
      "chip": "ym2612"
    },
    {
      "channel": 0,
      "note": 50,
      "start": 69.7443,
      "duration": 0.0293,
      "velocity": 117,
      "chip": "ym2612"
    },
    {
      "channel": 1,
      "note": 60,
      "start": 69.7484,
      "duration": 0.1754,
      "velocity": 101,
      "chip": "ym2612"
    },
    {
      "channel": 2,
      "note": 72,
      "start": 69.7525,
      "duration": 0.1214,
      "velocity": 106,
      "chip": "ym2612"
    },
    {
      "channel": 0,
      "note": 57,
      "start": 69.928,
      "duration": 0.2808,
      "velocity": 101,
      "chip": "ym2612"
    },
    {
      "channel": 1,
      "note": 50,
      "start": 69.9324,
      "duration": 0.0245,
      "velocity": 117,
      "chip": "ym2612"
    },
    {
      "channel": 2,
      "note": 69,
      "start": 69.9366,
      "duration": 0.2707,
      "velocity": 106,
      "chip": "ym2612"
    },
    {
      "channel": 1,
      "note": 74,
      "start": 70.0276,
      "duration": 0.0295,
      "velocity": 127,
      "chip": "ym2612"
    },
    {
      "channel": 0,
      "note": 50,
      "start": 70.2274,
      "duration": 0.0815,
      "velocity": 101,
      "chip": "ym2612"
    },
    {
      "channel": 1,
      "note": 62,
      "start": 70.2316,
      "duration": 0.0766,
      "velocity": 106,
      "chip": "ym2612"
    },
    {
      "channel": 2,
      "note": 50,
      "start": 70.236,
      "duration": 0.021,
      "velocity": 117,
      "chip": "ym2612"
    },
    {
      "channel": 0,
      "note": 51,
      "start": 70.3272,
      "duration": 0.0807,
      "velocity": 101,
      "chip": "ym2612"
    },
    {
      "channel": 1,
      "note": 63,
      "start": 70.3314,
      "duration": 0.0758,
      "velocity": 106,
      "chip": "ym2612"
    },
    {
      "channel": 2,
      "note": 50,
      "start": 70.3358,
      "duration": 0.0224,
      "velocity": 117,
      "chip": "ym2612"
    },
    {
      "channel": 0,
      "note": 74,
      "start": 70.4274,
      "duration": 0.0308,
      "velocity": 127,
      "chip": "ym2612"
    },
    {
      "channel": 1,
      "note": 53,
      "start": 70.4315,
      "duration": 0.0768,
      "velocity": 101,
      "chip": "ym2612"
    },
    {
      "channel": 2,
      "note": 65,
      "start": 70.4356,
      "duration": 0.0738,
      "velocity": 106,
      "chip": "ym2612"
    },
    {
      "channel": 0,
      "note": 74,
      "start": 70.5141,
      "duration": 0.0274,
      "velocity": 127,
      "chip": "ym2612"
    },
    {
      "channel": 1,
      "note": 54,
      "start": 70.5181,
      "duration": 0.0732,
      "velocity": 101,
      "chip": "ym2612"
    },
    {
      "channel": 2,
      "note": 66,
      "start": 70.5223,
      "duration": 0.0698,
      "velocity": 106,
      "chip": "ym2612"
    },
    {
      "channel": 0,
      "note": 50,
      "start": 70.6112,
      "duration": 0.0303,
      "velocity": 117,
      "chip": "ym2612"
    },
    {
      "channel": 1,
      "note": 56,
      "start": 70.6152,
      "duration": 0.0761,
      "velocity": 101,
      "chip": "ym2612"
    },
    {
      "channel": 2,
      "note": 68,
      "start": 70.6194,
      "duration": 0.0727,
      "velocity": 106,
      "chip": "ym2612"
    },
    {
      "channel": 0,
      "note": 58,
      "start": 70.7108,
      "duration": 0.0812,
      "velocity": 101,
      "chip": "ym2612"
    },
    {
      "channel": 1,
      "note": 50,
      "start": 70.7152,
      "duration": 0.0251,
      "velocity": 117,
      "chip": "ym2612"
    },
    {
      "channel": 2,
      "note": 70,
      "start": 70.7194,
      "duration": 0.0721,
      "velocity": 106,
      "chip": "ym2612"
    },
    {
      "channel": 0,
      "note": 74,
      "start": 70.811,
      "duration": 0.0293,
      "velocity": 127,
      "chip": "ym2612"
    },
    {
      "channel": 1,
      "note": 60,
      "start": 70.815,
      "duration": 0.0764,
      "velocity": 101,
      "chip": "ym2612"
    },
    {
      "channel": 2,
      "note": 72,
      "start": 70.8192,
      "duration": 0.0732,
      "velocity": 106,
      "chip": "ym2612"
    },
    {
      "channel": 0,
      "note": 74,
      "start": 70.9119,
      "duration": 0.0284,
      "velocity": 127,
      "chip": "ym2612"
    },
    {
      "channel": 1,
      "note": 62,
      "start": 70.916,
      "duration": 0.0754,
      "velocity": 101,
      "chip": "ym2612"
    },
    {
      "channel": 2,
      "note": 74,
      "start": 70.9201,
      "duration": 0.0722,
      "velocity": 106,
      "chip": "ym2612"
    },
    {
      "channel": 0,
      "note": 74,
      "start": 71.012,
      "duration": 0.0283,
      "velocity": 127,
      "chip": "ym2612"
    },
    {
      "channel": 1,
      "note": 63,
      "start": 71.0161,
      "duration": 0.0757,
      "velocity": 101,
      "chip": "ym2612"
    },
    {
      "channel": 2,
      "note": 75,
      "start": 71.0202,
      "duration": 0.0725,
      "velocity": 106,
      "chip": "ym2612"
    },
    {
      "channel": 0,
      "note": 74,
      "start": 71.0975,
      "duration": 0.0261,
      "velocity": 127,
      "chip": "ym2612"
    },
    {
      "channel": 1,
      "note": 62,
      "start": 71.1015,
      "duration": 0.0731,
      "velocity": 101,
      "chip": "ym2612"
    },
    {
      "channel": 2,
      "note": 74,
      "start": 71.1057,
      "duration": 0.0683,
      "velocity": 106,
      "chip": "ym2612"
    },
    {
      "channel": 0,
      "note": 74,
      "start": 71.1965,
      "duration": 0.0271,
      "velocity": 127,
      "chip": "ym2612"
    },
    {
      "channel": 1,
      "note": 58,
      "start": 71.2006,
      "duration": 0.0754,
      "velocity": 101,
      "chip": "ym2612"
    },
    {
      "channel": 2,
      "note": 70,
      "start": 71.2047,
      "duration": 0.0722,
      "velocity": 106,
      "chip": "ym2612"
    },
    {
      "channel": 0,
      "note": 74,
      "start": 71.2941,
      "duration": 0.0295,
      "velocity": 127,
      "chip": "ym2612"
    },
    {
      "channel": 1,
      "note": 57,
      "start": 71.2982,
      "duration": 0.0768,
      "velocity": 101,
      "chip": "ym2612"
    },
    {
      "channel": 2,
      "note": 69,
      "start": 71.3024,
      "duration": 0.0735,
      "velocity": 106,
      "chip": "ym2612"
    },
    {
      "channel": 0,
      "note": 56,
      "start": 71.394,
      "duration": 0.0816,
      "velocity": 101,
      "chip": "ym2612"
    },
    {
      "channel": 1,
      "note": 68,
      "start": 71.3982,
      "duration": 0.0767,
      "velocity": 106,
      "chip": "ym2612"
    },
    {
      "channel": 2,
      "note": 50,
      "start": 71.4025,
      "duration": 0.0212,
      "velocity": 117,
      "chip": "ym2612"
    },
    {
      "channel": 0,
      "note": 55,
      "start": 71.4939,
      "duration": 0.081,
      "velocity": 101,
      "chip": "ym2612"
    },
    {
      "channel": 1,
      "note": 50,
      "start": 71.4984,
      "duration": 0.0252,
      "velocity": 117,
      "chip": "ym2612"
    },
    {
      "channel": 2,
      "note": 67,
      "start": 71.5025,
      "duration": 0.0716,
      "velocity": 106,
      "chip": "ym2612"
    },
    {
      "channel": 0,
      "note": 50,
      "start": 71.5798,
      "duration": 0.0271,
      "velocity": 117,
      "chip": "ym2612"
    },
    {
      "channel": 1,
      "note": 53,
      "start": 71.5839,
      "duration": 0.0741,
      "velocity": 101,
      "chip": "ym2612"
    },
    {
      "channel": 2,
      "note": 65,
      "start": 71.588,
      "duration": 0.0693,
      "velocity": 106,
      "chip": "ym2612"
    },
    {
      "channel": 0,
      "note": 51,
      "start": 71.6785,
      "duration": 0.0803,
      "velocity": 101,
      "chip": "ym2612"
    },
    {
      "channel": 1,
      "note": 50,
      "start": 71.6828,
      "duration": 0.0241,
      "velocity": 117,
      "chip": "ym2612"
    },
    {
      "channel": 2,
      "note": 63,
      "start": 71.687,
      "duration": 0.0711,
      "velocity": 106,
      "chip": "ym2612"
    },
    {
      "channel": 0,
      "note": 50,
      "start": 71.7775,
      "duration": 0.1805,
      "velocity": 101,
      "chip": "ym2612"
    },
    {
      "channel": 1,
      "note": 62,
      "start": 71.7818,
      "duration": 0.1755,
      "velocity": 106,
      "chip": "ym2612"
    },
    {
      "channel": 2,
      "note": 50,
      "start": 71.7884,
      "duration": 0.0197,
      "velocity": 117,
      "chip": "ym2612"
    },
    {
      "channel": 0,
      "note": 74,
      "start": 71.9774,
      "duration": 0.0307,
      "velocity": 127,
      "chip": "ym2612"
    },
    {
      "channel": 1,
      "note": 50,
      "start": 71.9815,
      "duration": 0.1757,
      "velocity": 101,
      "chip": "ym2612"
    },
    {
      "channel": 2,
      "note": 62,
      "start": 71.9856,
      "duration": 0.1726,
      "velocity": 106,
      "chip": "ym2612"
    },
    {
      "channel": 0,
      "note": 50,
      "start": 72.1631,
      "duration": 0.0284,
      "velocity": 117,
      "chip": "ym2612"
    },
    {
      "channel": 1,
      "note": 50,
      "start": 72.1671,
      "duration": 0.1734,
      "velocity": 101,
      "chip": "ym2612"
    },
    {
      "channel": 2,
      "note": 62,
      "start": 72.1713,
      "duration": 0.1701,
      "velocity": 106,
      "chip": "ym2612"
    },
    {
      "channel": 0,
      "note": 50,
      "start": 72.2609,
      "duration": 0.0306,
      "velocity": 117,
      "chip": "ym2612"
    },
    {
      "channel": 0,
      "note": 74,
      "start": 72.3608,
      "duration": 0.0295,
      "velocity": 127,
      "chip": "ym2612"
    },
    {
      "channel": 1,
      "note": 50,
      "start": 72.3648,
      "duration": 0.1756,
      "velocity": 101,
      "chip": "ym2612"
    },
    {
      "channel": 2,
      "note": 62,
      "start": 72.369,
      "duration": 0.1724,
      "velocity": 106,
      "chip": "ym2612"
    },
    {
      "channel": 0,
      "note": 50,
      "start": 72.5618,
      "duration": 0.1821,
      "velocity": 101,
      "chip": "ym2612"
    },
    {
      "channel": 1,
      "note": 62,
      "start": 72.566,
      "duration": 0.176,
      "velocity": 106,
      "chip": "ym2612"
    },
    {
      "channel": 2,
      "note": 50,
      "start": 72.5704,
      "duration": 0.02,
      "velocity": 117,
      "chip": "ym2612"
    },
    {
      "channel": 0,
      "note": 74,
      "start": 72.7485,
      "duration": 0.0251,
      "velocity": 127,
      "chip": "ym2612"
    },
    {
      "channel": 1,
      "note": 50,
      "start": 72.7526,
      "duration": 0.072,
      "velocity": 101,
      "chip": "ym2612"
    },
    {
      "channel": 2,
      "note": 62,
      "start": 72.7569,
      "duration": 0.0685,
      "velocity": 106,
      "chip": "ym2612"
    },
    {
      "channel": 0,
      "note": 50,
      "start": 72.8457,
      "duration": 0.0279,
      "velocity": 117,
      "chip": "ym2612"
    },
    {
      "channel": 1,
      "note": 55,
      "start": 72.8498,
      "duration": 0.1753,
      "velocity": 101,
      "chip": "ym2612"
    },
    {
      "channel": 2,
      "note": 67,
      "start": 72.8539,
      "duration": 0.12,
      "velocity": 106,
      "chip": "ym2612"
    },
    {
      "channel": 0,
      "note": 53,
      "start": 73.0439,
      "duration": 0.2824,
      "velocity": 101,
      "chip": "ym2612"
    },
    {
      "channel": 1,
      "note": 65,
      "start": 73.0481,
      "duration": 0.2793,
      "velocity": 106,
      "chip": "ym2612"
    },
    {
      "channel": 2,
      "note": 50,
      "start": 73.0525,
      "duration": 0.0212,
      "velocity": 117,
      "chip": "ym2612"
    },
    {
      "channel": 2,
      "note": 74,
      "start": 73.144,
      "duration": 0.0297,
      "velocity": 127,
      "chip": "ym2612"
    },
    {
      "channel": 0,
      "note": 50,
      "start": 73.3324,
      "duration": 0.0256,
      "velocity": 117,
      "chip": "ym2612"
    },
    {
      "channel": 1,
      "note": 50,
      "start": 73.3365,
      "duration": 0.1723,
      "velocity": 101,
      "chip": "ym2612"
    },
    {
      "channel": 2,
      "note": 62,
      "start": 73.3409,
      "duration": 0.1664,
      "velocity": 106,
      "chip": "ym2612"
    },
    {
      "channel": 0,
      "note": 74,
      "start": 73.5276,
      "duration": 0.0293,
      "velocity": 127,
      "chip": "ym2612"
    },
    {
      "channel": 1,
      "note": 50,
      "start": 73.5317,
      "duration": 0.1754,
      "velocity": 101,
      "chip": "ym2612"
    },
    {
      "channel": 2,
      "note": 62,
      "start": 73.5358,
      "duration": 0.173,
      "velocity": 106,
      "chip": "ym2612"
    },
    {
      "channel": 0,
      "note": 50,
      "start": 73.7274,
      "duration": 0.1819,
      "velocity": 101,
      "chip": "ym2612"
    },
    {
      "channel": 1,
      "note": 62,
      "start": 73.7316,
      "duration": 0.1758,
      "velocity": 106,
      "chip": "ym2612"
    },
    {
      "channel": 2,
      "note": 50,
      "start": 73.736,
      "duration": 0.0222,
      "velocity": 117,
      "chip": "ym2612"
    },
    {
      "channel": 2,
      "note": 50,
      "start": 73.8278,
      "duration": 0.0292,
      "velocity": 117,
      "chip": "ym2612"
    },
    {
      "channel": 0,
      "note": 50,
      "start": 73.9138,
      "duration": 0.1783,
      "velocity": 101,
      "chip": "ym2612"
    },
    {
      "channel": 1,
      "note": 62,
      "start": 73.918,
      "duration": 0.1726,
      "velocity": 106,
      "chip": "ym2612"
    },
    {
      "channel": 2,
      "note": 74,
      "start": 73.9222,
      "duration": 0.0194,
      "velocity": 127,
      "chip": "ym2612"
    },
    {
      "channel": 0,
      "note": 50,
      "start": 74.1106,
      "duration": 0.1798,
      "velocity": 101,
      "chip": "ym2612"
    },
    {
      "channel": 1,
      "note": 62,
      "start": 74.1149,
      "duration": 0.1773,
      "velocity": 106,
      "chip": "ym2612"
    },
    {
      "channel": 2,
      "note": 50,
      "start": 74.1193,
      "duration": 0.021,
      "velocity": 117,
      "chip": "ym2612"
    },
    {
      "channel": 0,
      "note": 74,
      "start": 74.312,
      "duration": 0.0283,
      "velocity": 127,
      "chip": "ym2612"
    },
    {
      "channel": 1,
      "note": 50,
      "start": 74.3161,
      "duration": 0.0756,
      "velocity": 101,
      "chip": "ym2612"
    },
    {
      "channel": 2,
      "note": 62,
      "start": 74.3202,
      "duration": 0.0724,
      "velocity": 106,
      "chip": "ym2612"
    },
    {
      "channel": 0,
      "note": 56,
      "start": 74.4106,
      "duration": 0.1798,
      "velocity": 101,
      "chip": "ym2612"
    },
    {
      "channel": 1,
      "note": 68,
      "start": 74.4148,
      "duration": 0.1257,
      "velocity": 106,
      "chip": "ym2612"
    },
    {
      "channel": 2,
      "note": 50,
      "start": 74.4192,
      "duration": 0.0212,
      "velocity": 117,
      "chip": "ym2612"
    },
    {
      "channel": 0,
      "note": 55,
      "start": 74.5949,
      "duration": 0.2809,
      "velocity": 101,
      "chip": "ym2612"
    },
    {
      "channel": 1,
      "note": 67,
      "start": 74.5991,
      "duration": 0.2775,
      "velocity": 106,
      "chip": "ym2612"
    },
    {
      "channel": 2,
      "note": 50,
      "start": 74.6034,
      "duration": 0.0202,
      "velocity": 117,
      "chip": "ym2612"
    },
    {
      "channel": 2,
      "note": 74,
      "start": 74.695,
      "duration": 0.0288,
      "velocity": 127,
      "chip": "ym2612"
    },
    {
      "channel": 0,
      "note": 50,
      "start": 74.8943,
      "duration": 0.0303,
      "velocity": 117,
      "chip": "ym2612"
    },
    {
      "channel": 1,
      "note": 50,
      "start": 74.8984,
      "duration": 0.1772,
      "velocity": 101,
      "chip": "ym2612"
    },
    {
      "channel": 2,
      "note": 62,
      "start": 74.9026,
      "duration": 0.1714,
      "velocity": 106,
      "chip": "ym2612"
    },
    {
      "channel": 0,
      "note": 74,
      "start": 75.0941,
      "duration": 0.0307,
      "velocity": 127,
      "chip": "ym2612"
    },
    {
      "channel": 1,
      "note": 50,
      "start": 75.0982,
      "duration": 0.1757,
      "velocity": 101,
      "chip": "ym2612"
    },
    {
      "channel": 2,
      "note": 62,
      "start": 75.1023,
      "duration": 0.1737,
      "velocity": 106,
      "chip": "ym2612"
    },
    {
      "channel": 0,
      "note": 50,
      "start": 75.2802,
      "duration": 0.177,
      "velocity": 101,
      "chip": "ym2612"
    },
    {
      "channel": 1,
      "note": 50,
      "start": 75.2847,
      "duration": 0.0234,
      "velocity": 117,
      "chip": "ym2612"
    },
    {
      "channel": 2,
      "note": 62,
      "start": 75.2889,
      "duration": 0.17,
      "velocity": 106,
      "chip": "ym2612"
    },
    {
      "channel": 1,
      "note": 50,
      "start": 75.3778,
      "duration": 0.0305,
      "velocity": 117,
      "chip": "ym2612"
    },
    {
      "channel": 0,
      "note": 50,
      "start": 75.4772,
      "duration": 0.1807,
      "velocity": 101,
      "chip": "ym2612"
    },
    {
      "channel": 1,
      "note": 62,
      "start": 75.4814,
      "duration": 0.1759,
      "velocity": 106,
      "chip": "ym2612"
    },
    {
      "channel": 2,
      "note": 74,
      "start": 75.4856,
      "duration": 0.0214,
      "velocity": 127,
      "chip": "ym2612"
    },
    {
      "channel": 0,
      "note": 50,
      "start": 75.6785,
      "duration": 0.1809,
      "velocity": 101,
      "chip": "ym2612"
    },
    {
      "channel": 1,
      "note": 62,
      "start": 75.6827,
      "duration": 0.1759,
      "velocity": 106,
      "chip": "ym2612"
    },
    {
      "channel": 2,
      "note": 50,
      "start": 75.687,
      "duration": 0.02,
      "velocity": 117,
      "chip": "ym2612"
    },
    {
      "channel": 0,
      "note": 74,
      "start": 75.8636,
      "duration": 0.0276,
      "velocity": 127,
      "chip": "ym2612"
    },
    {
      "channel": 1,
      "note": 50,
      "start": 75.8677,
      "duration": 0.0736,
      "velocity": 101,
      "chip": "ym2612"
    },
    {
      "channel": 2,
      "note": 62,
      "start": 75.8718,
      "duration": 0.0688,
      "velocity": 106,
      "chip": "ym2612"
    },
    {
      "channel": 0,
      "note": 60,
      "start": 75.9626,
      "duration": 0.179,
      "velocity": 101,
      "chip": "ym2612"
    },
    {
      "channel": 1,
      "note": 50,
      "start": 75.9671,
      "duration": 0.0232,
      "velocity": 117,
      "chip": "ym2612"
    },
    {
      "channel": 2,
      "note": 72,
      "start": 75.9712,
      "duration": 0.1195,
      "velocity": 106,
      "chip": "ym2612"
    },
    {
      "channel": 0,
      "note": 50,
      "start": 76.1618,
      "duration": 0.0284,
      "velocity": 117,
      "chip": "ym2612"
    },
    {
      "channel": 1,
      "note": 57,
      "start": 76.1659,
      "duration": 0.2756,
      "velocity": 101,
      "chip": "ym2612"
    },
    {
      "channel": 2,
      "note": 69,
      "start": 76.1702,
      "duration": 0.2705,
      "velocity": 106,
      "chip": "ym2612"
    },
    {
      "channel": 0,
      "note": 74,
      "start": 76.2607,
      "duration": 0.0305,
      "velocity": 127,
      "chip": "ym2612"
    },
    {
      "channel": 0,
      "note": 50,
      "start": 76.3449,
      "duration": 0.0286,
      "velocity": 117,
      "chip": "ym2612"
    },
    {
      "channel": 0,
      "note": 65,
      "start": 76.4457,
      "duration": 0.0788,
      "velocity": 101,
      "chip": "ym2612"
    },
    {
      "channel": 1,
      "note": 77,
      "start": 76.4499,
      "duration": 0.074,
      "velocity": 106,
      "chip": "ym2612"
    },
    {
      "channel": 2,
      "note": 74,
      "start": 76.4541,
      "duration": 0.0204,
      "velocity": 127,
      "chip": "ym2612"
    },
    {
      "channel": 0,
      "note": 66,
      "start": 76.5447,
      "duration": 0.0791,
      "velocity": 101,
      "chip": "ym2612"
    },
    {
      "channel": 1,
      "note": 74,
      "start": 76.5491,
      "duration": 0.0246,
      "velocity": 127,
      "chip": "ym2612"
    },
    {
      "channel": 2,
      "note": 78,
      "start": 76.5533,
      "duration": 0.0714,
      "velocity": 106,
      "chip": "ym2612"
    },
    {
      "channel": 0,
      "note": 67,
      "start": 76.6439,
      "duration": 0.0806,
      "velocity": 101,
      "chip": "ym2612"
    },
    {
      "channel": 1,
      "note": 79,
      "start": 76.6481,
      "duration": 0.0758,
      "velocity": 106,
      "chip": "ym2612"
    },
    {
      "channel": 2,
      "note": 50,
      "start": 76.6525,
      "duration": 0.0212,
      "velocity": 117,
      "chip": "ym2612"
    },
    {
      "channel": 0,
      "note": 60,
      "start": 76.7448,
      "duration": 0.079,
      "velocity": 101,
      "chip": "ym2612"
    },
    {
      "channel": 1,
      "note": 72,
      "start": 76.7491,
      "duration": 0.0757,
      "velocity": 106,
      "chip": "ym2612"
    },
    {
      "channel": 2,
      "note": 74,
      "start": 76.7533,
      "duration": 0.0216,
      "velocity": 127,
      "chip": "ym2612"
    },
    {
      "channel": 0,
      "note": 61,
      "start": 76.8289,
      "duration": 0.079,
      "velocity": 101,
      "chip": "ym2612"
    },
    {
      "channel": 1,
      "note": 73,
      "start": 76.8332,
      "duration": 0.0741,
      "velocity": 106,
      "chip": "ym2612"
    },
    {
      "channel": 2,
      "note": 74,
      "start": 76.8373,
      "duration": 0.0207,
      "velocity": 127,
      "chip": "ym2612"
    },
    {
      "channel": 0,
      "note": 74,
      "start": 76.9282,
      "duration": 0.03,
      "velocity": 127,
      "chip": "ym2612"
    },
    {
      "channel": 1,
      "note": 62,
      "start": 76.9323,
      "duration": 0.0767,
      "velocity": 101,
      "chip": "ym2612"
    },
    {
      "channel": 2,
      "note": 74,
      "start": 76.9364,
      "duration": 0.0719,
      "velocity": 106,
      "chip": "ym2612"
    },
    {
      "channel": 0,
      "note": 55,
      "start": 77.0272,
      "duration": 0.0807,
      "velocity": 101,
      "chip": "ym2612"
    },
    {
      "channel": 1,
      "note": 67,
      "start": 77.0314,
      "duration": 0.0758,
      "velocity": 106,
      "chip": "ym2612"
    },
    {
      "channel": 2,
      "note": 50,
      "start": 77.0358,
      "duration": 0.0232,
      "velocity": 117,
      "chip": "ym2612"
    },
    {
      "channel": 0,
      "note": 56,
      "start": 77.1281,
      "duration": 0.0789,
      "velocity": 101,
      "chip": "ym2612"
    },
    {
      "channel": 1,
      "note": 68,
      "start": 77.1324,
      "duration": 0.0754,
      "velocity": 106,
      "chip": "ym2612"
    },
    {
      "channel": 2,
      "note": 50,
      "start": 77.1368,
      "duration": 0.0202,
      "velocity": 117,
      "chip": "ym2612"
    },
    {
      "channel": 0,
      "note": 57,
      "start": 77.2273,
      "duration": 0.0806,
      "velocity": 101,
      "chip": "ym2612"
    },
    {
      "channel": 1,
      "note": 74,
      "start": 77.2315,
      "duration": 0.0264,
      "velocity": 127,
      "chip": "ym2612"
    },
    {
      "channel": 2,
      "note": 69,
      "start": 77.2357,
      "duration": 0.0716,
      "velocity": 106,
      "chip": "ym2612"
    },
    {
      "channel": 0,
      "note": 53,
      "start": 77.3293,
      "duration": 0.0779,
      "velocity": 101,
      "chip": "ym2612"
    },
    {
      "channel": 1,
      "note": 65,
      "start": 77.3335,
      "duration": 0.0759,
      "velocity": 106,
      "chip": "ym2612"
    },
    {
      "channel": 2,
      "note": 50,
      "start": 77.3379,
      "duration": 0.0191,
      "velocity": 117,
      "chip": "ym2612"
    },
    {
      "channel": 0,
      "note": 73,
      "start": 77.4142,
      "duration": 0.0093,
      "velocity": 127,
      "chip": "ym2612"
    },
    {
      "channel": 1,
      "note": 54,
      "start": 77.4183,
      "duration": 0.0721,
      "velocity": 101,
      "chip": "ym2612"
    },
    {
      "channel": 2,
      "note": 66,
      "start": 77.4227,
      "duration": 0.0686,
      "velocity": 106,
      "chip": "ym2612"
    },
    {
      "channel": 0,
      "note": 74,
      "start": 77.4269,
      "duration": 0.0141,
      "velocity": 127,
      "chip": "ym2612"
    },
    {
      "channel": 0,
      "note": 50,
      "start": 77.5121,
      "duration": 0.0281,
      "velocity": 117,
      "chip": "ym2612"
    },
    {
      "channel": 1,
      "note": 55,
      "start": 77.5162,
      "duration": 0.0752,
      "velocity": 101,
      "chip": "ym2612"
    },
    {
      "channel": 2,
      "note": 67,
      "start": 77.5203,
      "duration": 0.0703,
      "velocity": 106,
      "chip": "ym2612"
    },
    {
      "channel": 0,
      "note": 74,
      "start": 77.6122,
      "duration": 0.0281,
      "velocity": 127,
      "chip": "ym2612"
    },
    {
      "channel": 1,
      "note": 48,
      "start": 77.6162,
      "duration": 0.0754,
      "velocity": 101,
      "chip": "ym2612"
    },
    {
      "channel": 2,
      "note": 60,
      "start": 77.6204,
      "duration": 0.0721,
      "velocity": 106,
      "chip": "ym2612"
    },
    {
      "channel": 0,
      "note": 49,
      "start": 77.7106,
      "duration": 0.0829,
      "velocity": 101,
      "chip": "ym2612"
    },
    {
      "channel": 1,
      "note": 50,
      "start": 77.715,
      "duration": 0.0253,
      "velocity": 117,
      "chip": "ym2612"
    },
    {
      "channel": 2,
      "note": 61,
      "start": 77.7192,
      "duration": 0.0727,
      "velocity": 106,
      "chip": "ym2612"
    },
    {
      "channel": 0,
      "note": 50,
      "start": 77.8106,
      "duration": 0.0807,
      "velocity": 101,
      "chip": "ym2612"
    },
    {
      "channel": 1,
      "note": 74,
      "start": 77.8148,
      "duration": 0.0263,
      "velocity": 127,
      "chip": "ym2612"
    },
    {
      "channel": 2,
      "note": 62,
      "start": 77.819,
      "duration": 0.0716,
      "velocity": 106,
      "chip": "ym2612"
    },
    {
      "channel": 0,
      "note": 51,
      "start": 77.9114,
      "duration": 0.0791,
      "velocity": 101,
      "chip": "ym2612"
    },
    {
      "channel": 1,
      "note": 63,
      "start": 77.9156,
      "duration": 0.0759,
      "velocity": 106,
      "chip": "ym2612"
    },
    {
      "channel": 2,
      "note": 74,
      "start": 77.9198,
      "duration": 0.0206,
      "velocity": 127,
      "chip": "ym2612"
    },
    {
      "channel": 0,
      "note": 53,
      "start": 77.9958,
      "duration": 0.1796,
      "velocity": 101,
      "chip": "ym2612"
    },
    {
      "channel": 1,
      "note": 65,
      "start": 78.0001,
      "duration": 0.1747,
      "velocity": 106,
      "chip": "ym2612"
    },
    {
      "channel": 2,
      "note": 50,
      "start": 78.0046,
      "duration": 0.0202,
      "velocity": 117,
      "chip": "ym2612"
    },
    {
      "channel": 0,
      "note": 53,
      "start": 78.1941,
      "duration": 0.1804,
      "velocity": 101,
      "chip": "ym2612"
    },
    {
      "channel": 1,
      "note": 65,
      "start": 78.1983,
      "duration": 0.1756,
      "velocity": 106,
      "chip": "ym2612"
    },
    {
      "channel": 2,
      "note": 74,
      "start": 78.2025,
      "duration": 0.0212,
      "velocity": 127,
      "chip": "ym2612"
    },
    {
      "channel": 0,
      "note": 53,
      "start": 78.3948,
      "duration": 0.179,
      "velocity": 101,
      "chip": "ym2612"
    },
    {
      "channel": 1,
      "note": 65,
      "start": 78.3991,
      "duration": 0.1757,
      "velocity": 106,
      "chip": "ym2612"
    },
    {
      "channel": 2,
      "note": 50,
      "start": 78.4035,
      "duration": 0.0214,
      "velocity": 117,
      "chip": "ym2612"
    },
    {
      "channel": 2,
      "note": 50,
      "start": 78.4943,
      "duration": 0.0307,
      "velocity": 117,
      "chip": "ym2612"
    },
    {
      "channel": 0,
      "note": 53,
      "start": 78.5789,
      "duration": 0.1798,
      "velocity": 101,
      "chip": "ym2612"
    },
    {
      "channel": 1,
      "note": 65,
      "start": 78.5831,
      "duration": 0.1742,
      "velocity": 106,
      "chip": "ym2612"
    },
    {
      "channel": 2,
      "note": 74,
      "start": 78.5873,
      "duration": 0.0209,
      "velocity": 127,
      "chip": "ym2612"
    },
    {
      "channel": 0,
      "note": 53,
      "start": 78.7773,
      "duration": 0.1798,
      "velocity": 101,
      "chip": "ym2612"
    },
    {
      "channel": 1,
      "note": 65,
      "start": 78.7816,
      "duration": 0.1773,
      "velocity": 106,
      "chip": "ym2612"
    },
    {
      "channel": 2,
      "note": 50,
      "start": 78.786,
      "duration": 0.021,
      "velocity": 117,
      "chip": "ym2612"
    },
    {
      "channel": 0,
      "note": 74,
      "start": 78.9786,
      "duration": 0.0284,
      "velocity": 127,
      "chip": "ym2612"
    },
    {
      "channel": 1,
      "note": 53,
      "start": 78.9827,
      "duration": 0.0756,
      "velocity": 101,
      "chip": "ym2612"
    },
    {
      "channel": 2,
      "note": 65,
      "start": 78.9868,
      "duration": 0.0726,
      "velocity": 106,
      "chip": "ym2612"
    },
    {
      "channel": 0,
      "note": 50,
      "start": 79.0643,
      "duration": 0.026,
      "velocity": 117,
      "chip": "ym2612"
    },
    {
      "channel": 1,
      "note": 58,
      "start": 79.0683,
      "duration": 0.1721,
      "velocity": 101,
      "chip": "ym2612"
    },
    {
      "channel": 2,
      "note": 70,
      "start": 79.0727,
      "duration": 0.1179,
      "velocity": 106,
      "chip": "ym2612"
    },
    {
      "channel": 0,
      "note": 56,
      "start": 79.262,
      "duration": 0.2804,
      "velocity": 101,
      "chip": "ym2612"
    },
    {
      "channel": 1,
      "note": 50,
      "start": 79.2665,
      "duration": 0.0238,
      "velocity": 117,
      "chip": "ym2612"
    },
    {
      "channel": 2,
      "note": 68,
      "start": 79.2706,
      "duration": 0.2727,
      "velocity": 106,
      "chip": "ym2612"
    },
    {
      "channel": 1,
      "note": 74,
      "start": 79.3615,
      "duration": 0.0289,
      "velocity": 127,
      "chip": "ym2612"
    },
    {
      "channel": 0,
      "note": 53,
      "start": 79.5606,
      "duration": 0.1799,
      "velocity": 101,
      "chip": "ym2612"
    },
    {
      "channel": 1,
      "note": 65,
      "start": 79.5649,
      "duration": 0.1777,
      "velocity": 106,
      "chip": "ym2612"
    },
    {
      "channel": 2,
      "note": 50,
      "start": 79.5693,
      "duration": 0.0221,
      "velocity": 117,
      "chip": "ym2612"
    },
    {
      "channel": 0,
      "note": 53,
      "start": 79.7471,
      "duration": 0.1783,
      "velocity": 101,
      "chip": "ym2612"
    },
    {
      "channel": 1,
      "note": 74,
      "start": 79.7513,
      "duration": 0.0224,
      "velocity": 127,
      "chip": "ym2612"
    },
    {
      "channel": 2,
      "note": 65,
      "start": 79.7555,
      "duration": 0.1685,
      "velocity": 106,
      "chip": "ym2612"
    },
    {
      "channel": 0,
      "note": 53,
      "start": 79.9441,
      "duration": 0.1813,
      "velocity": 101,
      "chip": "ym2612"
    },
    {
      "channel": 1,
      "note": 65,
      "start": 79.9483,
      "duration": 0.1756,
      "velocity": 106,
      "chip": "ym2612"
    },
    {
      "channel": 2,
      "note": 50,
      "start": 79.9527,
      "duration": 0.021,
      "velocity": 117,
      "chip": "ym2612"
    },
    {
      "channel": 2,
      "note": 50,
      "start": 80.0452,
      "duration": 0.0297,
      "velocity": 117,
      "chip": "ym2612"
    },
    {
      "channel": 0,
      "note": 53,
      "start": 80.1441,
      "duration": 0.1808,
      "velocity": 101,
      "chip": "ym2612"
    },
    {
      "channel": 1,
      "note": 65,
      "start": 80.1483,
      "duration": 0.1757,
      "velocity": 106,
      "chip": "ym2612"
    },
    {
      "channel": 2,
      "note": 74,
      "start": 80.1525,
      "duration": 0.0224,
      "velocity": 127,
      "chip": "ym2612"
    },
    {
      "channel": 0,
      "note": 50,
      "start": 80.3297,
      "duration": 0.0284,
      "velocity": 117,
      "chip": "ym2612"
    },
    {
      "channel": 1,
      "note": 53,
      "start": 80.3338,
      "duration": 0.1734,
      "velocity": 101,
      "chip": "ym2612"
    },
    {
      "channel": 2,
      "note": 65,
      "start": 80.3379,
      "duration": 0.1709,
      "velocity": 106,
      "chip": "ym2612"
    },
    {
      "channel": 0,
      "note": 53,
      "start": 80.5274,
      "duration": 0.0815,
      "velocity": 101,
      "chip": "ym2612"
    },
    {
      "channel": 1,
      "note": 65,
      "start": 80.5316,
      "duration": 0.0766,
      "velocity": 106,
      "chip": "ym2612"
    },
    {
      "channel": 2,
      "note": 74,
      "start": 80.5358,
      "duration": 0.0212,
      "velocity": 127,
      "chip": "ym2612"
    },
    {
      "channel": 0,
      "note": 59,
      "start": 80.6285,
      "duration": 0.1798,
      "velocity": 101,
      "chip": "ym2612"
    },
    {
      "channel": 1,
      "note": 50,
      "start": 80.6329,
      "duration": 0.024,
      "velocity": 117,
      "chip": "ym2612"
    },
    {
      "channel": 2,
      "note": 71,
      "start": 80.637,
      "duration": 0.1202,
      "velocity": 106,
      "chip": "ym2612"
    },
    {
      "channel": 0,
      "note": 58,
      "start": 80.8272,
      "duration": 0.2823,
      "velocity": 101,
      "chip": "ym2612"
    },
    {
      "channel": 1,
      "note": 50,
      "start": 80.8317,
      "duration": 0.0252,
      "velocity": 117,
      "chip": "ym2612"
    },
    {
      "channel": 2,
      "note": 70,
      "start": 80.8358,
      "duration": 0.2728,
      "velocity": 106,
      "chip": "ym2612"
    },
    {
      "channel": 1,
      "note": 74,
      "start": 80.9274,
      "duration": 0.0296,
      "velocity": 127,
      "chip": "ym2612"
    },
    {
      "channel": 0,
      "note": 50,
      "start": 81.1138,
      "duration": 0.1766,
      "velocity": 101,
      "chip": "ym2612"
    },
    {
      "channel": 1,
      "note": 62,
      "start": 81.1181,
      "duration": 0.1739,
      "velocity": 106,
      "chip": "ym2612"
    },
    {
      "channel": 2,
      "note": 50,
      "start": 81.1228,
      "duration": 0.0176,
      "velocity": 117,
      "chip": "ym2612"
    },
    {
      "channel": 0,
      "note": 50,
      "start": 81.3108,
      "duration": 0.1805,
      "velocity": 101,
      "chip": "ym2612"
    },
    {
      "channel": 1,
      "note": 62,
      "start": 81.315,
      "duration": 0.1756,
      "velocity": 106,
      "chip": "ym2612"
    },
    {
      "channel": 2,
      "note": 74,
      "start": 81.3192,
      "duration": 0.0212,
      "velocity": 127,
      "chip": "ym2612"
    },
    {
      "channel": 0,
      "note": 50,
      "start": 81.5106,
      "duration": 0.181,
      "velocity": 101,
      "chip": "ym2612"
    },
    {
      "channel": 1,
      "note": 62,
      "start": 81.5148,
      "duration": 0.1759,
      "velocity": 106,
      "chip": "ym2612"
    },
    {
      "channel": 2,
      "note": 50,
      "start": 81.5192,
      "duration": 0.0233,
      "velocity": 117,
      "chip": "ym2612"
    },
    {
      "channel": 2,
      "note": 50,
      "start": 81.5943,
      "duration": 0.0294,
      "velocity": 117,
      "chip": "ym2612"
    },
    {
      "channel": 0,
      "note": 74,
      "start": 81.6962,
      "duration": 0.0286,
      "velocity": 127,
      "chip": "ym2612"
    },
    {
      "channel": 1,
      "note": 50,
      "start": 81.7003,
      "duration": 0.1735,
      "velocity": 101,
      "chip": "ym2612"
    },
    {
      "channel": 2,
      "note": 62,
      "start": 81.7044,
      "duration": 0.1711,
      "velocity": 106,
      "chip": "ym2612"
    },
    {
      "channel": 0,
      "note": 50,
      "start": 81.8945,
      "duration": 0.0291,
      "velocity": 117,
      "chip": "ym2612"
    },
    {
      "channel": 1,
      "note": 50,
      "start": 81.8985,
      "duration": 0.1753,
      "velocity": 101,
      "chip": "ym2612"
    },
    {
      "channel": 2,
      "note": 62,
      "start": 81.9027,
      "duration": 0.172,
      "velocity": 106,
      "chip": "ym2612"
    },
    {
      "channel": 0,
      "note": 50,
      "start": 82.0951,
      "duration": 0.0808,
      "velocity": 101,
      "chip": "ym2612"
    },
    {
      "channel": 1,
      "note": 74,
      "start": 82.0994,
      "duration": 0.0252,
      "velocity": 127,
      "chip": "ym2612"
    },
    {
      "channel": 2,
      "note": 62,
      "start": 82.1035,
      "duration": 0.0706,
      "velocity": 106,
      "chip": "ym2612"
    },
    {
      "channel": 0,
      "note": 60,
      "start": 82.18,
      "duration": 0.177,
      "velocity": 101,
      "chip": "ym2612"
    },
    {
      "channel": 1,
      "note": 50,
      "start": 82.1844,
      "duration": 0.0225,
      "velocity": 117,
      "chip": "ym2612"
    },
    {
      "channel": 2,
      "note": 72,
      "start": 82.1886,
      "duration": 0.1186,
      "velocity": 106,
      "chip": "ym2612"
    },
    {
      "channel": 0,
      "note": 57,
      "start": 82.3785,
      "duration": 0.2804,
      "velocity": 101,
      "chip": "ym2612"
    },
    {
      "channel": 1,
      "note": 69,
      "start": 82.3827,
      "duration": 0.2755,
      "velocity": 106,
      "chip": "ym2612"
    },
    {
      "channel": 2,
      "note": 50,
      "start": 82.3871,
      "duration": 0.0199,
      "velocity": 117,
      "chip": "ym2612"
    },
    {
      "channel": 2,
      "note": 74,
      "start": 82.4774,
      "duration": 0.0297,
      "velocity": 127,
      "chip": "ym2612"
    },
    {
      "channel": 2,
      "note": 50,
      "start": 82.5776,
      "duration": 0.0294,
      "velocity": 117,
      "chip": "ym2612"
    },
    {
      "channel": 0,
      "note": 65,
      "start": 82.6773,
      "duration": 0.0835,
      "velocity": 101,
      "chip": "ym2612"
    },
    {
      "channel": 1,
      "note": 77,
      "start": 82.6816,
      "duration": 0.0758,
      "velocity": 106,
      "chip": "ym2612"
    },
    {
      "channel": 2,
      "note": 74,
      "start": 82.688,
      "duration": 0.0202,
      "velocity": 127,
      "chip": "ym2612"
    },
    {
      "channel": 0,
      "note": 66,
      "start": 82.765,
      "duration": 0.0765,
      "velocity": 101,
      "chip": "ym2612"
    },
    {
      "channel": 1,
      "note": 74,
      "start": 82.7693,
      "duration": 0.0222,
      "velocity": 127,
      "chip": "ym2612"
    },
    {
      "channel": 2,
      "note": 78,
      "start": 82.7738,
      "duration": 0.0686,
      "velocity": 106,
      "chip": "ym2612"
    },
    {
      "channel": 0,
      "note": 67,
      "start": 82.8606,
      "duration": 0.0816,
      "velocity": 101,
      "chip": "ym2612"
    },
    {
      "channel": 1,
      "note": 79,
      "start": 82.8649,
      "duration": 0.0767,
      "velocity": 106,
      "chip": "ym2612"
    },
    {
      "channel": 2,
      "note": 50,
      "start": 82.8716,
      "duration": 0.02,
      "velocity": 117,
      "chip": "ym2612"
    },
    {
      "channel": 0,
      "note": 60,
      "start": 82.9606,
      "duration": 0.0816,
      "velocity": 101,
      "chip": "ym2612"
    },
    {
      "channel": 1,
      "note": 72,
      "start": 82.9649,
      "duration": 0.0757,
      "velocity": 106,
      "chip": "ym2612"
    },
    {
      "channel": 2,
      "note": 74,
      "start": 82.9714,
      "duration": 0.019,
      "velocity": 127,
      "chip": "ym2612"
    },
    {
      "channel": 0,
      "note": 61,
      "start": 83.0629,
      "duration": 0.0776,
      "velocity": 101,
      "chip": "ym2612"
    },
    {
      "channel": 1,
      "note": 73,
      "start": 83.0673,
      "duration": 0.0744,
      "velocity": 106,
      "chip": "ym2612"
    },
    {
      "channel": 2,
      "note": 74,
      "start": 83.0741,
      "duration": 0.0174,
      "velocity": 127,
      "chip": "ym2612"
    },
    {
      "channel": 0,
      "note": 62,
      "start": 83.1485,
      "duration": 0.0761,
      "velocity": 101,
      "chip": "ym2612"
    },
    {
      "channel": 1,
      "note": 74,
      "start": 83.1528,
      "duration": 0.0727,
      "velocity": 106,
      "chip": "ym2612"
    },
    {
      "channel": 2,
      "note": 74,
      "start": 83.1595,
      "duration": 0.0141,
      "velocity": 127,
      "chip": "ym2612"
    },
    {
      "channel": 0,
      "note": 55,
      "start": 83.2451,
      "duration": 0.0813,
      "velocity": 101,
      "chip": "ym2612"
    },
    {
      "channel": 1,
      "note": 67,
      "start": 83.2494,
      "duration": 0.0756,
      "velocity": 106,
      "chip": "ym2612"
    },
    {
      "channel": 2,
      "note": 50,
      "start": 83.2563,
      "duration": 0.0186,
      "velocity": 117,
      "chip": "ym2612"
    },
    {
      "channel": 0,
      "note": 50,
      "start": 83.3445,
      "duration": 0.0314,
      "velocity": 117,
      "chip": "ym2612"
    },
    {
      "channel": 1,
      "note": 56,
      "start": 83.3487,
      "duration": 0.078,
      "velocity": 101,
      "chip": "ym2612"
    },
    {
      "channel": 2,
      "note": 68,
      "start": 83.3529,
      "duration": 0.0712,
      "velocity": 106,
      "chip": "ym2612"
    },
    {
      "channel": 0,
      "note": 74,
      "start": 83.4441,
      "duration": 0.0318,
      "velocity": 127,
      "chip": "ym2612"
    },
    {
      "channel": 1,
      "note": 57,
      "start": 83.4483,
      "duration": 0.0773,
      "velocity": 101,
      "chip": "ym2612"
    },
    {
      "channel": 2,
      "note": 69,
      "start": 83.4525,
      "duration": 0.0724,
      "velocity": 106,
      "chip": "ym2612"
    },
    {
      "channel": 0,
      "note": 53,
      "start": 83.545,
      "duration": 0.0801,
      "velocity": 101,
      "chip": "ym2612"
    },
    {
      "channel": 1,
      "note": 65,
      "start": 83.5493,
      "duration": 0.077,
      "velocity": 106,
      "chip": "ym2612"
    },
    {
      "channel": 2,
      "note": 50,
      "start": 83.5537,
      "duration": 0.0211,
      "velocity": 117,
      "chip": "ym2612"
    },
    {
      "channel": 0,
      "note": 73,
      "start": 83.6306,
      "duration": 0.0051,
      "velocity": 127,
      "chip": "ym2612"
    },
    {
      "channel": 1,
      "note": 54,
      "start": 83.6348,
      "duration": 0.0742,
      "velocity": 101,
      "chip": "ym2612"
    },
    {
      "channel": 0,
      "note": 74,
      "start": 83.6391,
      "duration": 0.0199,
      "velocity": 127,
      "chip": "ym2612"
    },
    {
      "channel": 2,
      "note": 66,
      "start": 83.6435,
      "duration": 0.0663,
      "velocity": 106,
      "chip": "ym2612"
    },
    {
      "channel": 0,
      "note": 55,
      "start": 83.7275,
      "duration": 0.0825,
      "velocity": 101,
      "chip": "ym2612"
    },
    {
      "channel": 1,
      "note": 50,
      "start": 83.732,
      "duration": 0.0262,
      "velocity": 117,
      "chip": "ym2612"
    },
    {
      "channel": 2,
      "note": 67,
      "start": 83.7362,
      "duration": 0.0711,
      "velocity": 106,
      "chip": "ym2612"
    },
    {
      "channel": 0,
      "note": 48,
      "start": 83.8273,
      "duration": 0.0815,
      "velocity": 101,
      "chip": "ym2612"
    },
    {
      "channel": 1,
      "note": 60,
      "start": 83.8316,
      "duration": 0.0767,
      "velocity": 106,
      "chip": "ym2612"
    },
    {
      "channel": 2,
      "note": 74,
      "start": 83.838,
      "duration": 0.0205,
      "velocity": 127,
      "chip": "ym2612"
    },
    {
      "channel": 0,
      "note": 49,
      "start": 83.9285,
      "duration": 0.0795,
      "velocity": 101,
      "chip": "ym2612"
    },
    {
      "channel": 1,
      "note": 61,
      "start": 83.9328,
      "duration": 0.076,
      "velocity": 106,
      "chip": "ym2612"
    },
    {
      "channel": 2,
      "note": 50,
      "start": 83.9372,
      "duration": 0.0209,
      "velocity": 117,
      "chip": "ym2612"
    },
    {
      "channel": 0,
      "note": 74,
      "start": 84.0297,
      "duration": 0.0283,
      "velocity": 127,
      "chip": "ym2612"
    },
    {
      "channel": 1,
      "note": 50,
      "start": 84.0339,
      "duration": 0.0758,
      "velocity": 101,
      "chip": "ym2612"
    },
    {
      "channel": 2,
      "note": 62,
      "start": 84.0381,
      "duration": 0.0729,
      "velocity": 106,
      "chip": "ym2612"
    },
    {
      "channel": 0,
      "note": 51,
      "start": 84.1179,
      "duration": 0.0756,
      "velocity": 101,
      "chip": "ym2612"
    },
    {
      "channel": 1,
      "note": 74,
      "start": 84.1222,
      "duration": 0.0182,
      "velocity": 127,
      "chip": "ym2612"
    },
    {
      "channel": 2,
      "note": 63,
      "start": 84.1268,
      "duration": 0.0661,
      "velocity": 106,
      "chip": "ym2612"
    },
    {
      "channel": 0,
      "note": 77,
      "start": 84.2201,
      "duration": 0.0716,
      "velocity": 106,
      "chip": "ym2612"
    },
    {
      "channel": 1,
      "note": 74,
      "start": 84.2244,
      "duration": 0.0158,
      "velocity": 127,
      "chip": "ym2612"
    },
    {
      "channel": 1,
      "note": 65,
      "start": 84.2608,
      "duration": 0.0798,
      "velocity": 106,
      "chip": "ym2612"
    },
    {
      "channel": 0,
      "note": 74,
      "start": 84.3107,
      "duration": 0.081,
      "velocity": 106,
      "chip": "ym2612"
    },
    {
      "channel": 2,
      "note": 73,
      "start": 84.3149,
      "duration": 0.0263,
      "velocity": 127,
      "chip": "ym2612"
    },
    {
      "channel": 1,
      "note": 62,
      "start": 84.3608,
      "duration": 0.0798,
      "velocity": 106,
      "chip": "ym2612"
    },
    {
      "channel": 0,
      "note": 72,
      "start": 84.4106,
      "duration": 0.0798,
      "velocity": 106,
      "chip": "ym2612"
    },
    {
      "channel": 2,
      "note": 50,
      "start": 84.415,
      "duration": 0.0261,
      "velocity": 117,
      "chip": "ym2612"
    },
    {
      "channel": 1,
      "note": 60,
      "start": 84.4608,
      "duration": 0.0798,
      "velocity": 106,
      "chip": "ym2612"
    },
    {
      "channel": 0,
      "note": 69,
      "start": 84.5107,
      "duration": 0.0798,
      "velocity": 106,
      "chip": "ym2612"
    },
    {
      "channel": 2,
      "note": 50,
      "start": 84.5151,
      "duration": 0.0261,
      "velocity": 117,
      "chip": "ym2612"
    },
    {
      "channel": 1,
      "note": 57,
      "start": 84.5608,
      "duration": 0.0798,
      "velocity": 106,
      "chip": "ym2612"
    },
    {
      "channel": 0,
      "note": 77,
      "start": 84.6107,
      "duration": 0.0798,
      "velocity": 106,
      "chip": "ym2612"
    },
    {
      "channel": 2,
      "note": 74,
      "start": 84.6148,
      "duration": 0.0265,
      "velocity": 127,
      "chip": "ym2612"
    },
    {
      "channel": 1,
      "note": 65,
      "start": 84.6456,
      "duration": 0.0784,
      "velocity": 106,
      "chip": "ym2612"
    },
    {
      "channel": 0,
      "note": 74,
      "start": 84.6948,
      "duration": 0.079,
      "velocity": 106,
      "chip": "ym2612"
    },
    {
      "channel": 2,
      "note": 73,
      "start": 84.699,
      "duration": 0.0256,
      "velocity": 127,
      "chip": "ym2612"
    },
    {
      "channel": 1,
      "note": 62,
      "start": 84.7441,
      "duration": 0.0798,
      "velocity": 106,
      "chip": "ym2612"
    },
    {
      "channel": 0,
      "note": 72,
      "start": 84.794,
      "duration": 0.0798,
      "velocity": 106,
      "chip": "ym2612"
    },
    {
      "channel": 2,
      "note": 50,
      "start": 84.7984,
      "duration": 0.0261,
      "velocity": 117,
      "chip": "ym2612"
    },
    {
      "channel": 1,
      "note": 60,
      "start": 84.8452,
      "duration": 0.0787,
      "velocity": 106,
      "chip": "ym2612"
    },
    {
      "channel": 0,
      "note": 69,
      "start": 84.894,
      "duration": 0.0798,
      "velocity": 106,
      "chip": "ym2612"
    },
    {
      "channel": 2,
      "note": 50,
      "start": 84.8984,
      "duration": 0.0261,
      "velocity": 117,
      "chip": "ym2612"
    },
    {
      "channel": 1,
      "note": 57,
      "start": 84.9453,
      "duration": 0.0798,
      "velocity": 106,
      "chip": "ym2612"
    },
    {
      "channel": 0,
      "note": 79,
      "start": 84.994,
      "duration": 0.1798,
      "velocity": 106,
      "chip": "ym2612"
    },
    {
      "channel": 2,
      "note": 75,
      "start": 84.9982,
      "duration": 0.0276,
      "velocity": 127,
      "chip": "ym2612"
    },
    {
      "channel": 1,
      "note": 67,
      "start": 85.044,
      "duration": 0.1799,
      "velocity": 106,
      "chip": "ym2612"
    },
    {
      "channel": 0,
      "note": 74,
      "start": 85.1781,
      "duration": 0.0791,
      "velocity": 106,
      "chip": "ym2612"
    },
    {
      "channel": 2,
      "note": 74,
      "start": 85.1823,
      "duration": 0.026,
      "velocity": 127,
      "chip": "ym2612"
    },
    {
      "channel": 1,
      "note": 62,
      "start": 85.2282,
      "duration": 0.0803,
      "velocity": 106,
      "chip": "ym2612"
    },
    {
      "channel": 0,
      "note": 75,
      "start": 85.2774,
      "duration": 0.0798,
      "velocity": 106,
      "chip": "ym2612"
    },
    {
      "channel": 2,
      "note": 74,
      "start": 85.2815,
      "duration": 0.0276,
      "velocity": 127,
      "chip": "ym2612"
    },
    {
      "channel": 1,
      "note": 63,
      "start": 85.3274,
      "duration": 0.0799,
      "velocity": 106,
      "chip": "ym2612"
    },
    {
      "channel": 0,
      "note": 75,
      "start": 85.3774,
      "duration": 0.0304,
      "velocity": 127,
      "chip": "ym2612"
    },
    {
      "channel": 2,
      "note": 77,
      "start": 85.3816,
      "duration": 0.0756,
      "velocity": 106,
      "chip": "ym2612"
    },
    {
      "channel": 0,
      "note": 65,
      "start": 85.4274,
      "duration": 0.0798,
      "velocity": 106,
      "chip": "ym2612"
    },
    {
      "channel": 1,
      "note": 75,
      "start": 85.4774,
      "duration": 0.0304,
      "velocity": 127,
      "chip": "ym2612"
    },
    {
      "channel": 2,
      "note": 74,
      "start": 85.4816,
      "duration": 0.0756,
      "velocity": 106,
      "chip": "ym2612"
    },
    {
      "channel": 0,
      "note": 62,
      "start": 85.5274,
      "duration": 0.0798,
      "velocity": 106,
      "chip": "ym2612"
    },
    {
      "channel": 1,
      "note": 73,
      "start": 85.5785,
      "duration": 0.0788,
      "velocity": 106,
      "chip": "ym2612"
    },
    {
      "channel": 2,
      "note": 73,
      "start": 85.5827,
      "duration": 0.0251,
      "velocity": 127,
      "chip": "ym2612"
    },
    {
      "channel": 0,
      "note": 61,
      "start": 85.6274,
      "duration": 0.0798,
      "velocity": 106,
      "chip": "ym2612"
    },
    {
      "channel": 1,
      "note": 69,
      "start": 85.6615,
      "duration": 0.0791,
      "velocity": 106,
      "chip": "ym2612"
    },
    {
      "channel": 2,
      "note": 73,
      "start": 85.6657,
      "duration": 0.0247,
      "velocity": 127,
      "chip": "ym2612"
    },
    {
      "channel": 0,
      "note": 57,
      "start": 85.7115,
      "duration": 0.0791,
      "velocity": 106,
      "chip": "ym2612"
    },
    {
      "channel": 1,
      "note": 77,
      "start": 85.7619,
      "duration": 0.0786,
      "velocity": 106,
      "chip": "ym2612"
    },
    {
      "channel": 2,
      "note": 74,
      "start": 85.7661,
      "duration": 0.0251,
      "velocity": 127,
      "chip": "ym2612"
    },
    {
      "channel": 0,
      "note": 65,
      "start": 85.8107,
      "duration": 0.0799,
      "velocity": 106,
      "chip": "ym2612"
    },
    {
      "channel": 1,
      "note": 73,
      "start": 85.862,
      "duration": 0.0291,
      "velocity": 127,
      "chip": "ym2612"
    },
    {
      "channel": 2,
      "note": 74,
      "start": 85.8661,
      "duration": 0.0756,
      "velocity": 106,
      "chip": "ym2612"
    },
    {
      "channel": 0,
      "note": 62,
      "start": 85.9108,
      "duration": 0.0798,
      "velocity": 106,
      "chip": "ym2612"
    },
    {
      "channel": 1,
      "note": 72,
      "start": 85.9607,
      "duration": 0.081,
      "velocity": 106,
      "chip": "ym2612"
    },
    {
      "channel": 2,
      "note": 50,
      "start": 85.9651,
      "duration": 0.026,
      "velocity": 117,
      "chip": "ym2612"
    },
    {
      "channel": 0,
      "note": 60,
      "start": 86.0107,
      "duration": 0.0798,
      "velocity": 106,
      "chip": "ym2612"
    },
    {
      "channel": 1,
      "note": 69,
      "start": 86.0607,
      "duration": 0.0798,
      "velocity": 106,
      "chip": "ym2612"
    },
    {
      "channel": 2,
      "note": 50,
      "start": 86.0651,
      "duration": 0.026,
      "velocity": 117,
      "chip": "ym2612"
    },
    {
      "channel": 0,
      "note": 57,
      "start": 86.1108,
      "duration": 0.0798,
      "velocity": 106,
      "chip": "ym2612"
    },
    {
      "channel": 1,
      "note": 77,
      "start": 86.1607,
      "duration": 0.0799,
      "velocity": 106,
      "chip": "ym2612"
    },
    {
      "channel": 2,
      "note": 74,
      "start": 86.1648,
      "duration": 0.0264,
      "velocity": 127,
      "chip": "ym2612"
    },
    {
      "channel": 0,
      "note": 65,
      "start": 86.1955,
      "duration": 0.0784,
      "velocity": 106,
      "chip": "ym2612"
    },
    {
      "channel": 1,
      "note": 74,
      "start": 86.2448,
      "duration": 0.0791,
      "velocity": 106,
      "chip": "ym2612"
    },
    {
      "channel": 2,
      "note": 73,
      "start": 86.249,
      "duration": 0.0255,
      "velocity": 127,
      "chip": "ym2612"
    },
    {
      "channel": 0,
      "note": 62,
      "start": 86.294,
      "duration": 0.0798,
      "velocity": 106,
      "chip": "ym2612"
    },
    {
      "channel": 1,
      "note": 72,
      "start": 86.344,
      "duration": 0.0798,
      "velocity": 106,
      "chip": "ym2612"
    },
    {
      "channel": 2,
      "note": 50,
      "start": 86.3484,
      "duration": 0.026,
      "velocity": 117,
      "chip": "ym2612"
    },
    {
      "channel": 0,
      "note": 60,
      "start": 86.3941,
      "duration": 0.0798,
      "velocity": 106,
      "chip": "ym2612"
    },
    {
      "channel": 1,
      "note": 69,
      "start": 86.444,
      "duration": 0.0798,
      "velocity": 106,
      "chip": "ym2612"
    },
    {
      "channel": 2,
      "note": 50,
      "start": 86.4484,
      "duration": 0.0261,
      "velocity": 117,
      "chip": "ym2612"
    },
    {
      "channel": 0,
      "note": 57,
      "start": 86.4953,
      "duration": 0.0786,
      "velocity": 106,
      "chip": "ym2612"
    },
    {
      "channel": 1,
      "note": 79,
      "start": 86.544,
      "duration": 0.1799,
      "velocity": 106,
      "chip": "ym2612"
    },
    {
      "channel": 2,
      "note": 75,
      "start": 86.5482,
      "duration": 0.0263,
      "velocity": 127,
      "chip": "ym2612"
    },
    {
      "channel": 0,
      "note": 67,
      "start": 86.5953,
      "duration": 0.1798,
      "velocity": 106,
      "chip": "ym2612"
    },
    {
      "channel": 1,
      "note": 74,
      "start": 86.7281,
      "duration": 0.0791,
      "velocity": 106,
      "chip": "ym2612"
    },
    {
      "channel": 2,
      "note": 74,
      "start": 86.7323,
      "duration": 0.0247,
      "velocity": 127,
      "chip": "ym2612"
    },
    {
      "channel": 0,
      "note": 62,
      "start": 86.7793,
      "duration": 0.0791,
      "velocity": 106,
      "chip": "ym2612"
    },
    {
      "channel": 1,
      "note": 75,
      "start": 86.8274,
      "duration": 0.0798,
      "velocity": 106,
      "chip": "ym2612"
    },
    {
      "channel": 2,
      "note": 74,
      "start": 86.8315,
      "duration": 0.0276,
      "velocity": 127,
      "chip": "ym2612"
    },
    {
      "channel": 0,
      "note": 63,
      "start": 86.8774,
      "duration": 0.081,
      "velocity": 106,
      "chip": "ym2612"
    },
    {
      "channel": 1,
      "note": 77,
      "start": 86.9274,
      "duration": 0.0798,
      "velocity": 106,
      "chip": "ym2612"
    },
    {
      "channel": 2,
      "note": 75,
      "start": 86.9316,
      "duration": 0.0275,
      "velocity": 127,
      "chip": "ym2612"
    },
    {
      "channel": 0,
      "note": 65,
      "start": 86.9774,
      "duration": 0.0798,
      "velocity": 106,
      "chip": "ym2612"
    },
    {
      "channel": 1,
      "note": 74,
      "start": 87.0274,
      "duration": 0.0798,
      "velocity": 106,
      "chip": "ym2612"
    },
    {
      "channel": 2,
      "note": 75,
      "start": 87.0316,
      "duration": 0.0263,
      "velocity": 127,
      "chip": "ym2612"
    },
    {
      "channel": 0,
      "note": 62,
      "start": 87.0774,
      "duration": 0.0798,
      "velocity": 106,
      "chip": "ym2612"
    },
    {
      "channel": 1,
      "note": 73,
      "start": 87.1274,
      "duration": 0.0799,
      "velocity": 106,
      "chip": "ym2612"
    },
    {
      "channel": 2,
      "note": 73,
      "start": 87.1316,
      "duration": 0.0263,
      "velocity": 127,
      "chip": "ym2612"
    },
    {
      "channel": 0,
      "note": 61,
      "start": 87.1774,
      "duration": 0.0798,
      "velocity": 106,
      "chip": "ym2612"
    },
    {
      "channel": 1,
      "note": 69,
      "start": 87.2115,
      "duration": 0.0791,
      "velocity": 106,
      "chip": "ym2612"
    },
    {
      "channel": 2,
      "note": 73,
      "start": 87.2157,
      "duration": 0.0247,
      "velocity": 127,
      "chip": "ym2612"
    },
    {
      "channel": 0,
      "note": 57,
      "start": 87.2615,
      "duration": 0.0791,
      "velocity": 106,
      "chip": "ym2612"
    },
    {
      "channel": 1,
      "note": 77,
      "start": 87.3107,
      "duration": 0.0798,
      "velocity": 106,
      "chip": "ym2612"
    },
    {
      "channel": 2,
      "note": 75,
      "start": 87.3148,
      "duration": 0.0263,
      "velocity": 127,
      "chip": "ym2612"
    },
    {
      "channel": 0,
      "note": 65,
      "start": 87.3607,
      "duration": 0.0798,
      "velocity": 106,
      "chip": "ym2612"
    },
    {
      "channel": 1,
      "note": 74,
      "start": 87.4119,
      "duration": 0.0786,
      "velocity": 106,
      "chip": "ym2612"
    },
    {
      "channel": 2,
      "note": 74,
      "start": 87.4161,
      "duration": 0.0251,
      "velocity": 127,
      "chip": "ym2612"
    },
    {
      "channel": 0,
      "note": 62,
      "start": 87.4607,
      "duration": 0.0798,
      "velocity": 106,
      "chip": "ym2612"
    },
    {
      "channel": 1,
      "note": 72,
      "start": 87.5119,
      "duration": 0.0798,
      "velocity": 106,
      "chip": "ym2612"
    },
    {
      "channel": 2,
      "note": 71,
      "start": 87.5161,
      "duration": 0.0251,
      "velocity": 127,
      "chip": "ym2612"
    },
    {
      "channel": 0,
      "note": 60,
      "start": 87.5607,
      "duration": 0.0798,
      "velocity": 106,
      "chip": "ym2612"
    },
    {
      "channel": 1,
      "note": 66,
      "start": 87.6107,
      "duration": 0.0304,
      "velocity": 127,
      "chip": "ym2612"
    },
    {
      "channel": 2,
      "note": 69,
      "start": 87.6149,
      "duration": 0.0769,
      "velocity": 106,
      "chip": "ym2612"
    },
    {
      "channel": 0,
      "note": 57,
      "start": 87.6608,
      "duration": 0.0798,
      "velocity": 106,
      "chip": "ym2612"
    },
    {
      "channel": 1,
      "note": 50,
      "start": 87.7109,
      "duration": 0.0303,
      "velocity": 117,
      "chip": "ym2612"
    },
    {
      "channel": 2,
      "note": 67,
      "start": 87.7151,
      "duration": 0.0755,
      "velocity": 106,
      "chip": "ym2612"
    },
    {
      "channel": 0,
      "note": 55,
      "start": 87.7454,
      "duration": 0.0785,
      "velocity": 106,
      "chip": "ym2612"
    },
    {
      "channel": 1,
      "note": 50,
      "start": 87.7951,
      "duration": 0.0293,
      "velocity": 117,
      "chip": "ym2612"
    },
    {
      "channel": 2,
      "note": 65,
      "start": 87.7993,
      "duration": 0.0759,
      "velocity": 106,
      "chip": "ym2612"
    },
    {
      "channel": 0,
      "note": 53,
      "start": 87.8441,
      "duration": 0.0798,
      "velocity": 106,
      "chip": "ym2612"
    },
    {
      "channel": 1,
      "note": 75,
      "start": 87.894,
      "duration": 0.0304,
      "velocity": 127,
      "chip": "ym2612"
    },
    {
      "channel": 2,
      "note": 77,
      "start": 87.8982,
      "duration": 0.0756,
      "velocity": 106,
      "chip": "ym2612"
    },
    {
      "channel": 0,
      "note": 65,
      "start": 87.9441,
      "duration": 0.0798,
      "velocity": 106,
      "chip": "ym2612"
    },
    {
      "channel": 1,
      "note": 74,
      "start": 87.994,
      "duration": 0.0798,
      "velocity": 106,
      "chip": "ym2612"
    },
    {
      "channel": 2,
      "note": 74,
      "start": 87.9982,
      "duration": 0.0263,
      "velocity": 127,
      "chip": "ym2612"
    },
    {
      "channel": 0,
      "note": 62,
      "start": 88.0441,
      "duration": 0.0798,
      "velocity": 106,
      "chip": "ym2612"
    },
    {
      "channel": 1,
      "note": 71,
      "start": 88.094,
      "duration": 0.0304,
      "velocity": 127,
      "chip": "ym2612"
    },
    {
      "channel": 2,
      "note": 72,
      "start": 88.0982,
      "duration": 0.0756,
      "velocity": 106,
      "chip": "ym2612"
    },
    {
      "channel": 0,
      "note": 60,
      "start": 88.1453,
      "duration": 0.0786,
      "velocity": 106,
      "chip": "ym2612"
    },
    {
      "channel": 1,
      "note": 69,
      "start": 88.194,
      "duration": 0.0799,
      "velocity": 106,
      "chip": "ym2612"
    },
    {
      "channel": 2,
      "note": 66,
      "start": 88.1982,
      "duration": 0.0264,
      "velocity": 127,
      "chip": "ym2612"
    },
    {
      "channel": 0,
      "note": 57,
      "start": 88.2288,
      "duration": 0.0784,
      "velocity": 106,
      "chip": "ym2612"
    },
    {
      "channel": 1,
      "note": 50,
      "start": 88.2784,
      "duration": 0.0293,
      "velocity": 117,
      "chip": "ym2612"
    },
    {
      "channel": 2,
      "note": 67,
      "start": 88.2825,
      "duration": 0.0747,
      "velocity": 106,
      "chip": "ym2612"
    },
    {
      "channel": 0,
      "note": 55,
      "start": 88.3286,
      "duration": 0.0786,
      "velocity": 106,
      "chip": "ym2612"
    },
    {
      "channel": 1,
      "note": 50,
      "start": 88.3776,
      "duration": 0.0302,
      "velocity": 117,
      "chip": "ym2612"
    },
    {
      "channel": 2,
      "note": 65,
      "start": 88.3818,
      "duration": 0.0754,
      "velocity": 106,
      "chip": "ym2612"
    },
    {
      "channel": 0,
      "note": 53,
      "start": 88.4286,
      "duration": 0.0797,
      "velocity": 106,
      "chip": "ym2612"
    },
    {
      "channel": 1,
      "note": 75,
      "start": 88.4774,
      "duration": 0.0315,
      "velocity": 127,
      "chip": "ym2612"
    },
    {
      "channel": 2,
      "note": 77,
      "start": 88.4816,
      "duration": 0.0756,
      "velocity": 106,
      "chip": "ym2612"
    },
    {
      "channel": 0,
      "note": 65,
      "start": 88.5274,
      "duration": 0.081,
      "velocity": 106,
      "chip": "ym2612"
    },
    {
      "channel": 1,
      "note": 74,
      "start": 88.5774,
      "duration": 0.0798,
      "velocity": 106,
      "chip": "ym2612"
    },
    {
      "channel": 2,
      "note": 74,
      "start": 88.5816,
      "duration": 0.0275,
      "velocity": 127,
      "chip": "ym2612"
    },
    {
      "channel": 0,
      "note": 62,
      "start": 88.6274,
      "duration": 0.0798,
      "velocity": 106,
      "chip": "ym2612"
    },
    {
      "channel": 1,
      "note": 71,
      "start": 88.6774,
      "duration": 0.0304,
      "velocity": 127,
      "chip": "ym2612"
    },
    {
      "channel": 2,
      "note": 72,
      "start": 88.6816,
      "duration": 0.0757,
      "velocity": 106,
      "chip": "ym2612"
    },
    {
      "channel": 0,
      "note": 60,
      "start": 88.7274,
      "duration": 0.0798,
      "velocity": 106,
      "chip": "ym2612"
    },
    {
      "channel": 1,
      "note": 69,
      "start": 88.7615,
      "duration": 0.079,
      "velocity": 106,
      "chip": "ym2612"
    },
    {
      "channel": 2,
      "note": 66,
      "start": 88.7657,
      "duration": 0.0259,
      "velocity": 127,
      "chip": "ym2612"
    },
    {
      "channel": 0,
      "note": 57,
      "start": 88.8115,
      "duration": 0.0791,
      "velocity": 106,
      "chip": "ym2612"
    },
    {
      "channel": 1,
      "note": 67,
      "start": 88.8607,
      "duration": 0.0798,
      "velocity": 106,
      "chip": "ym2612"
    },
    {
      "channel": 2,
      "note": 50,
      "start": 88.8651,
      "duration": 0.026,
      "velocity": 117,
      "chip": "ym2612"
    },
    {
      "channel": 0,
      "note": 55,
      "start": 88.9107,
      "duration": 0.0798,
      "velocity": 106,
      "chip": "ym2612"
    },
    {
      "channel": 1,
      "note": 65,
      "start": 88.9607,
      "duration": 0.0798,
      "velocity": 106,
      "chip": "ym2612"
    },
    {
      "channel": 2,
      "note": 50,
      "start": 88.965,
      "duration": 0.0261,
      "velocity": 117,
      "chip": "ym2612"
    },
    {
      "channel": 0,
      "note": 53,
      "start": 89.0108,
      "duration": 0.0798,
      "velocity": 106,
      "chip": "ym2612"
    },
    {
      "channel": 1,
      "note": 77,
      "start": 89.0618,
      "duration": 0.0787,
      "velocity": 106,
      "chip": "ym2612"
    },
    {
      "channel": 2,
      "note": 75,
      "start": 89.0661,
      "duration": 0.0251,
      "velocity": 127,
      "chip": "ym2612"
    },
    {
      "channel": 0,
      "note": 65,
      "start": 89.1107,
      "duration": 0.0798,
      "velocity": 106,
      "chip": "ym2612"
    },
    {
      "channel": 1,
      "note": 74,
      "start": 89.1619,
      "duration": 0.0798,
      "velocity": 106,
      "chip": "ym2612"
    },
    {
      "channel": 2,
      "note": 74,
      "start": 89.1661,
      "duration": 0.0251,
      "velocity": 127,
      "chip": "ym2612"
    },
    {
      "channel": 0,
      "note": 62,
      "start": 89.2107,
      "duration": 0.0798,
      "velocity": 106,
      "chip": "ym2612"
    },
    {
      "channel": 1,
      "note": 71,
      "start": 89.246,
      "duration": 0.0276,
      "velocity": 127,
      "chip": "ym2612"
    },
    {
      "channel": 2,
      "note": 72,
      "start": 89.2501,
      "duration": 0.0737,
      "velocity": 106,
      "chip": "ym2612"
    },
    {
      "channel": 0,
      "note": 60,
      "start": 89.2948,
      "duration": 0.0791,
      "velocity": 106,
      "chip": "ym2612"
    },
    {
      "channel": 1,
      "note": 69,
      "start": 89.3452,
      "duration": 0.0798,
      "velocity": 106,
      "chip": "ym2612"
    },
    {
      "channel": 2,
      "note": 66,
      "start": 89.3494,
      "duration": 0.0251,
      "velocity": 127,
      "chip": "ym2612"
    },
    {
      "channel": 0,
      "note": 57,
      "start": 89.394,
      "duration": 0.0798,
      "velocity": 106,
      "chip": "ym2612"
    },
    {
      "channel": 1,
      "note": 67,
      "start": 89.444,
      "duration": 0.081,
      "velocity": 106,
      "chip": "ym2612"
    },
    {
      "channel": 2,
      "note": 50,
      "start": 89.4484,
      "duration": 0.0261,
      "velocity": 117,
      "chip": "ym2612"
    },
    {
      "channel": 0,
      "note": 55,
      "start": 89.494,
      "duration": 0.0798,
      "velocity": 106,
      "chip": "ym2612"
    },
    {
      "channel": 1,
      "note": 50,
      "start": 89.5442,
      "duration": 0.0302,
      "velocity": 117,
      "chip": "ym2612"
    },
    {
      "channel": 2,
      "note": 65,
      "start": 89.5484,
      "duration": 0.0754,
      "velocity": 106,
      "chip": "ym2612"
    },
    {
      "channel": 0,
      "note": 53,
      "start": 89.5941,
      "duration": 0.0798,
      "velocity": 106,
      "chip": "ym2612"
    },
    {
      "channel": 1,
      "note": 65,
      "start": 89.644,
      "duration": 0.0798,
      "velocity": 106,
      "chip": "ym2612"
    },
    {
      "channel": 2,
      "note": 74,
      "start": 89.6482,
      "duration": 0.0263,
      "velocity": 127,
      "chip": "ym2612"
    },
    {
      "channel": 0,
      "note": 65,
      "start": 89.6941,
      "duration": 0.0798,
      "velocity": 106,
      "chip": "ym2612"
    },
    {
      "channel": 1,
      "note": 73,
      "start": 89.744,
      "duration": 0.0305,
      "velocity": 127,
      "chip": "ym2612"
    },
    {
      "channel": 2,
      "note": 62,
      "start": 89.7482,
      "duration": 0.0757,
      "velocity": 106,
      "chip": "ym2612"
    },
    {
      "channel": 0,
      "note": 62,
      "start": 89.7788,
      "duration": 0.0784,
      "velocity": 106,
      "chip": "ym2612"
    },
    {
      "channel": 1,
      "note": 69,
      "start": 89.8282,
      "duration": 0.0296,
      "velocity": 127,
      "chip": "ym2612"
    },
    {
      "channel": 2,
      "note": 60,
      "start": 89.8324,
      "duration": 0.0748,
      "velocity": 106,
      "chip": "ym2612"
    },
    {
      "channel": 0,
      "note": 60,
      "start": 89.8774,
      "duration": 0.0798,
      "velocity": 106,
      "chip": "ym2612"
    },
    {
      "channel": 1,
      "note": 57,
      "start": 89.9274,
      "duration": 0.0798,
      "velocity": 106,
      "chip": "ym2612"
    },
    {
      "channel": 2,
      "note": 66,
      "start": 89.9316,
      "duration": 0.0263,
      "velocity": 127,
      "chip": "ym2612"
    },
    {
      "channel": 0,
      "note": 57,
      "start": 89.9786,
      "duration": 0.0786,
      "velocity": 106,
      "chip": "ym2612"
    },
    {
      "channel": 1,
      "note": 62,
      "start": 90.0274,
      "duration": 0.0798,
      "velocity": 106,
      "chip": "ym2612"
    },
    {
      "channel": 2,
      "note": 75,
      "start": 90.0315,
      "duration": 0.0263,
      "velocity": 127,
      "chip": "ym2612"
    },
    {
      "channel": 0,
      "note": 62,
      "start": 90.0786,
      "duration": 0.0798,
      "velocity": 106,
      "chip": "ym2612"
    },
    {
      "channel": 1,
      "note": 60,
      "start": 90.1323,
      "duration": 0.0767,
      "velocity": 101,
      "chip": "ym2612"
    },
    {
      "channel": 2,
      "note": 60,
      "start": 90.1365,
      "duration": 0.0708,
      "velocity": 106,
      "chip": "ym2612"
    },
    {
      "channel": 3,
      "note": 75,
      "start": 90.1409,
      "duration": 0.0182,
      "velocity": 127,
      "chip": "ym2612"
    },
    {
      "channel": 0,
      "note": 60,
      "start": 90.1774,
      "duration": 0.081,
      "velocity": 106,
      "chip": "ym2612"
    },
    {
      "channel": 1,
      "note": 75,
      "start": 90.2275,
      "duration": 0.0316,
      "velocity": 127,
      "chip": "ym2612"
    },
    {
      "channel": 2,
      "note": 62,
      "start": 90.2367,
      "duration": 0.0719,
      "velocity": 106,
      "chip": "ym2612"
    },
    {
      "channel": 3,
      "note": 62,
      "start": 90.2409,
      "duration": 0.0665,
      "velocity": 101,
      "chip": "ym2612"
    },
    {
      "channel": 0,
      "note": 57,
      "start": 90.2634,
      "duration": 0.0784,
      "velocity": 106,
      "chip": "ym2612"
    },
    {
      "channel": 1,
      "note": 63,
      "start": 90.318,
      "duration": 0.0754,
      "velocity": 106,
      "chip": "ym2612"
    },
    {
      "channel": 2,
      "note": 75,
      "start": 90.3249,
      "duration": 0.0175,
      "velocity": 127,
      "chip": "ym2612"
    },
    {
      "channel": 3,
      "note": 63,
      "start": 90.329,
      "duration": 0.0616,
      "velocity": 101,
      "chip": "ym2612"
    },
    {
      "channel": 0,
      "note": 55,
      "start": 90.3608,
      "duration": 0.081,
      "velocity": 106,
      "chip": "ym2612"
    },
    {
      "channel": 1,
      "note": 74,
      "start": 90.4108,
      "duration": 0.0315,
      "velocity": 127,
      "chip": "ym2612"
    },
    {
      "channel": 2,
      "note": 65,
      "start": 90.4174,
      "duration": 0.074,
      "velocity": 106,
      "chip": "ym2612"
    },
    {
      "channel": 3,
      "note": 65,
      "start": 90.4215,
      "duration": 0.0691,
      "velocity": 101,
      "chip": "ym2612"
    },
    {
      "channel": 0,
      "note": 62,
      "start": 90.5131,
      "duration": 0.0791,
      "velocity": 101,
      "chip": "ym2612"
    },
    {
      "channel": 1,
      "note": 62,
      "start": 90.5173,
      "duration": 0.0733,
      "velocity": 106,
      "chip": "ym2612"
    },
    {
      "channel": 2,
      "note": 73,
      "start": 90.5215,
      "duration": 0.0199,
      "velocity": 127,
      "chip": "ym2612"
    },
    {
      "channel": 0,
      "note": 50,
      "start": 90.611,
      "duration": 0.0303,
      "velocity": 117,
      "chip": "ym2612"
    },
    {
      "channel": 1,
      "note": 60,
      "start": 90.6151,
      "duration": 0.0771,
      "velocity": 101,
      "chip": "ym2612"
    },
    {
      "channel": 2,
      "note": 60,
      "start": 90.6216,
      "duration": 0.069,
      "velocity": 106,
      "chip": "ym2612"
    },
    {
      "channel": 0,
      "note": 57,
      "start": 90.7117,
      "duration": 0.0799,
      "velocity": 101,
      "chip": "ym2612"
    },
    {
      "channel": 1,
      "note": 57,
      "start": 90.7183,
      "duration": 0.0723,
      "velocity": 106,
      "chip": "ym2612"
    },
    {
      "channel": 2,
      "note": 50,
      "start": 90.7229,
      "duration": 0.0184,
      "velocity": 117,
      "chip": "ym2612"
    },
    {
      "channel": 0,
      "note": 65,
      "start": 90.7995,
      "duration": 0.076,
      "velocity": 106,
      "chip": "ym2612"
    },
    {
      "channel": 1,
      "note": 74,
      "start": 90.8037,
      "duration": 0.02,
      "velocity": 127,
      "chip": "ym2612"
    },
    {
      "channel": 2,
      "note": 65,
      "start": 90.8079,
      "duration": 0.0659,
      "velocity": 101,
      "chip": "ym2612"
    },
    {
      "channel": 0,
      "note": 73,
      "start": 90.8978,
      "duration": 0.0268,
      "velocity": 127,
      "chip": "ym2612"
    },
    {
      "channel": 1,
      "note": 62,
      "start": 90.9019,
      "duration": 0.0737,
      "velocity": 101,
      "chip": "ym2612"
    },
    {
      "channel": 2,
      "note": 62,
      "start": 90.9061,
      "duration": 0.0678,
      "velocity": 106,
      "chip": "ym2612"
    },
    {
      "channel": 0,
      "note": 60,
      "start": 90.9976,
      "duration": 0.0791,
      "velocity": 101,
      "chip": "ym2612"
    },
    {
      "channel": 1,
      "note": 50,
      "start": 91.002,
      "duration": 0.0226,
      "velocity": 117,
      "chip": "ym2612"
    },
    {
      "channel": 2,
      "note": 60,
      "start": 91.0063,
      "duration": 0.0689,
      "velocity": 106,
      "chip": "ym2612"
    },
    {
      "channel": 0,
      "note": 50,
      "start": 91.0967,
      "duration": 0.0278,
      "velocity": 117,
      "chip": "ym2612"
    },
    {
      "channel": 1,
      "note": 57,
      "start": 91.1009,
      "duration": 0.0759,
      "velocity": 106,
      "chip": "ym2612"
    },
    {
      "channel": 2,
      "note": 57,
      "start": 91.1049,
      "duration": 0.0701,
      "velocity": 101,
      "chip": "ym2612"
    },
    {
      "channel": 0,
      "note": 67,
      "start": 91.194,
      "duration": 0.181,
      "velocity": 101,
      "chip": "ym2612"
    },
    {
      "channel": 1,
      "note": 67,
      "start": 91.2006,
      "duration": 0.1734,
      "velocity": 106,
      "chip": "ym2612"
    },
    {
      "channel": 2,
      "note": 75,
      "start": 91.2048,
      "duration": 0.0199,
      "velocity": 127,
      "chip": "ym2612"
    },
    {
      "channel": 0,
      "note": 73,
      "start": 91.3829,
      "duration": 0.024,
      "velocity": 127,
      "chip": "ym2612"
    },
    {
      "channel": 1,
      "note": 62,
      "start": 91.3871,
      "duration": 0.0702,
      "velocity": 106,
      "chip": "ym2612"
    },
    {
      "channel": 2,
      "note": 62,
      "start": 91.3913,
      "duration": 0.0676,
      "velocity": 101,
      "chip": "ym2612"
    },
    {
      "channel": 0,
      "note": 63,
      "start": 91.4773,
      "duration": 0.0807,
      "velocity": 101,
      "chip": "ym2612"
    },
    {
      "channel": 1,
      "note": 63,
      "start": 91.4839,
      "duration": 0.0733,
      "velocity": 106,
      "chip": "ym2612"
    },
    {
      "channel": 2,
      "note": 72,
      "start": 91.4881,
      "duration": 0.0199,
      "velocity": 127,
      "chip": "ym2612"
    },
    {
      "channel": 0,
      "note": 65,
      "start": 91.5797,
      "duration": 0.0792,
      "velocity": 101,
      "chip": "ym2612"
    },
    {
      "channel": 1,
      "note": 74,
      "start": 91.5839,
      "duration": 0.0241,
      "velocity": 127,
      "chip": "ym2612"
    },
    {
      "channel": 2,
      "note": 65,
      "start": 91.588,
      "duration": 0.0692,
      "velocity": 106,
      "chip": "ym2612"
    },
    {
      "channel": 0,
      "note": 73,
      "start": 91.6798,
      "duration": 0.0281,
      "velocity": 127,
      "chip": "ym2612"
    },
    {
      "channel": 1,
      "note": 62,
      "start": 91.6841,
      "duration": 0.0748,
      "velocity": 106,
      "chip": "ym2612"
    },
    {
      "channel": 2,
      "note": 62,
      "start": 91.6881,
      "duration": 0.069,
      "velocity": 101,
      "chip": "ym2612"
    },
    {
      "channel": 0,
      "note": 70,
      "start": 91.7798,
      "duration": 0.0294,
      "velocity": 127,
      "chip": "ym2612"
    },
    {
      "channel": 1,
      "note": 61,
      "start": 91.7839,
      "duration": 0.0756,
      "velocity": 101,
      "chip": "ym2612"
    },
    {
      "channel": 2,
      "note": 61,
      "start": 91.788,
      "duration": 0.0693,
      "velocity": 106,
      "chip": "ym2612"
    },
    {
      "channel": 0,
      "note": 57,
      "start": 91.8663,
      "duration": 0.0759,
      "velocity": 106,
      "chip": "ym2612"
    },
    {
      "channel": 1,
      "note": 57,
      "start": 91.8704,
      "duration": 0.0701,
      "velocity": 101,
      "chip": "ym2612"
    },
    {
      "channel": 2,
      "note": 66,
      "start": 91.8747,
      "duration": 0.0167,
      "velocity": 127,
      "chip": "ym2612"
    },
    {
      "channel": 0,
      "note": 74,
      "start": 91.9632,
      "duration": 0.0293,
      "velocity": 127,
      "chip": "ym2612"
    },
    {
      "channel": 1,
      "note": 65,
      "start": 91.9673,
      "duration": 0.0749,
      "velocity": 101,
      "chip": "ym2612"
    },
    {
      "channel": 2,
      "note": 65,
      "start": 91.9714,
      "duration": 0.0692,
      "velocity": 106,
      "chip": "ym2612"
    },
    {
      "channel": 0,
      "note": 73,
      "start": 92.0632,
      "duration": 0.0293,
      "velocity": 127,
      "chip": "ym2612"
    },
    {
      "channel": 1,
      "note": 62,
      "start": 92.0674,
      "duration": 0.0748,
      "velocity": 106,
      "chip": "ym2612"
    },
    {
      "channel": 2,
      "note": 62,
      "start": 92.0715,
      "duration": 0.069,
      "velocity": 101,
      "chip": "ym2612"
    },
    {
      "channel": 0,
      "note": 60,
      "start": 92.1632,
      "duration": 0.079,
      "velocity": 106,
      "chip": "ym2612"
    },
    {
      "channel": 1,
      "note": 60,
      "start": 92.1673,
      "duration": 0.0732,
      "velocity": 101,
      "chip": "ym2612"
    },
    {
      "channel": 2,
      "note": 50,
      "start": 92.1716,
      "duration": 0.0197,
      "velocity": 117,
      "chip": "ym2612"
    },
    {
      "channel": 0,
      "note": 50,
      "start": 92.2634,
      "duration": 0.0278,
      "velocity": 117,
      "chip": "ym2612"
    },
    {
      "channel": 1,
      "note": 57,
      "start": 92.2676,
      "duration": 0.0752,
      "velocity": 106,
      "chip": "ym2612"
    },
    {
      "channel": 2,
      "note": 57,
      "start": 92.2716,
      "duration": 0.069,
      "velocity": 101,
      "chip": "ym2612"
    },
    {
      "channel": 0,
      "note": 65,
      "start": 92.3495,
      "duration": 0.076,
      "velocity": 106,
      "chip": "ym2612"
    },
    {
      "channel": 1,
      "note": 74,
      "start": 92.3537,
      "duration": 0.02,
      "velocity": 127,
      "chip": "ym2612"
    },
    {
      "channel": 2,
      "note": 65,
      "start": 92.3579,
      "duration": 0.0659,
      "velocity": 101,
      "chip": "ym2612"
    },
    {
      "channel": 0,
      "note": 62,
      "start": 92.4465,
      "duration": 0.079,
      "velocity": 106,
      "chip": "ym2612"
    },
    {
      "channel": 1,
      "note": 62,
      "start": 92.4506,
      "duration": 0.0732,
      "velocity": 101,
      "chip": "ym2612"
    },
    {
      "channel": 2,
      "note": 73,
      "start": 92.4548,
      "duration": 0.0199,
      "velocity": 127,
      "chip": "ym2612"
    },
    {
      "channel": 0,
      "note": 60,
      "start": 92.5476,
      "duration": 0.0779,
      "velocity": 101,
      "chip": "ym2612"
    },
    {
      "channel": 1,
      "note": 50,
      "start": 92.552,
      "duration": 0.0226,
      "velocity": 117,
      "chip": "ym2612"
    },
    {
      "channel": 2,
      "note": 60,
      "start": 92.5563,
      "duration": 0.0676,
      "velocity": 106,
      "chip": "ym2612"
    },
    {
      "channel": 0,
      "note": 57,
      "start": 92.6477,
      "duration": 0.079,
      "velocity": 106,
      "chip": "ym2612"
    },
    {
      "channel": 1,
      "note": 50,
      "start": 92.6521,
      "duration": 0.0225,
      "velocity": 117,
      "chip": "ym2612"
    },
    {
      "channel": 2,
      "note": 57,
      "start": 92.6563,
      "duration": 0.0687,
      "velocity": 101,
      "chip": "ym2612"
    },
    {
      "channel": 0,
      "note": 67,
      "start": 92.7465,
      "duration": 0.1796,
      "velocity": 106,
      "chip": "ym2612"
    },
    {
      "channel": 1,
      "note": 75,
      "start": 92.7507,
      "duration": 0.0239,
      "velocity": 127,
      "chip": "ym2612"
    },
    {
      "channel": 2,
      "note": 67,
      "start": 92.7547,
      "duration": 0.1692,
      "velocity": 101,
      "chip": "ym2612"
    },
    {
      "channel": 0,
      "note": 62,
      "start": 92.9327,
      "duration": 0.0773,
      "velocity": 101,
      "chip": "ym2612"
    },
    {
      "channel": 1,
      "note": 62,
      "start": 92.9369,
      "duration": 0.0716,
      "velocity": 106,
      "chip": "ym2612"
    },
    {
      "channel": 2,
      "note": 73,
      "start": 92.9413,
      "duration": 0.0158,
      "velocity": 127,
      "chip": "ym2612"
    },
    {
      "channel": 0,
      "note": 72,
      "start": 93.0298,
      "duration": 0.0281,
      "velocity": 127,
      "chip": "ym2612"
    },
    {
      "channel": 1,
      "note": 63,
      "start": 93.0341,
      "duration": 0.0749,
      "velocity": 106,
      "chip": "ym2612"
    },
    {
      "channel": 2,
      "note": 63,
      "start": 93.038,
      "duration": 0.0691,
      "velocity": 101,
      "chip": "ym2612"
    },
    {
      "channel": 0,
      "note": 74,
      "start": 93.1298,
      "duration": 0.0281,
      "velocity": 127,
      "chip": "ym2612"
    },
    {
      "channel": 1,
      "note": 65,
      "start": 93.1341,
      "duration": 0.0749,
      "velocity": 106,
      "chip": "ym2612"
    },
    {
      "channel": 2,
      "note": 65,
      "start": 93.138,
      "duration": 0.0691,
      "velocity": 101,
      "chip": "ym2612"
    },
    {
      "channel": 0,
      "note": 62,
      "start": 93.2298,
      "duration": 0.079,
      "velocity": 106,
      "chip": "ym2612"
    },
    {
      "channel": 1,
      "note": 73,
      "start": 93.2341,
      "duration": 0.0239,
      "velocity": 127,
      "chip": "ym2612"
    },
    {
      "channel": 2,
      "note": 62,
      "start": 93.238,
      "duration": 0.0691,
      "velocity": 101,
      "chip": "ym2612"
    },
    {
      "channel": 0,
      "note": 70,
      "start": 93.3298,
      "duration": 0.0282,
      "velocity": 127,
      "chip": "ym2612"
    },
    {
      "channel": 1,
      "note": 61,
      "start": 93.3341,
      "duration": 0.0753,
      "velocity": 106,
      "chip": "ym2612"
    },
    {
      "channel": 2,
      "note": 61,
      "start": 93.3381,
      "duration": 0.0691,
      "velocity": 101,
      "chip": "ym2612"
    },
    {
      "channel": 0,
      "note": 66,
      "start": 93.4162,
      "duration": 0.0251,
      "velocity": 127,
      "chip": "ym2612"
    },
    {
      "channel": 1,
      "note": 57,
      "start": 93.4202,
      "duration": 0.072,
      "velocity": 101,
      "chip": "ym2612"
    },
    {
      "channel": 2,
      "note": 57,
      "start": 93.4246,
      "duration": 0.066,
      "velocity": 106,
      "chip": "ym2612"
    },
    {
      "channel": 0,
      "note": 65,
      "start": 93.5131,
      "duration": 0.0791,
      "velocity": 101,
      "chip": "ym2612"
    },
    {
      "channel": 1,
      "note": 74,
      "start": 93.5173,
      "duration": 0.024,
      "velocity": 127,
      "chip": "ym2612"
    },
    {
      "channel": 2,
      "note": 65,
      "start": 93.5214,
      "duration": 0.0692,
      "velocity": 106,
      "chip": "ym2612"
    },
    {
      "channel": 0,
      "note": 62,
      "start": 93.6131,
      "duration": 0.0791,
      "velocity": 101,
      "chip": "ym2612"
    },
    {
      "channel": 1,
      "note": 62,
      "start": 93.6173,
      "duration": 0.0733,
      "velocity": 106,
      "chip": "ym2612"
    },
    {
      "channel": 2,
      "note": 73,
      "start": 93.6215,
      "duration": 0.0211,
      "velocity": 127,
      "chip": "ym2612"
    },
    {
      "channel": 0,
      "note": 60,
      "start": 93.7108,
      "duration": 0.0805,
      "velocity": 106,
      "chip": "ym2612"
    },
    {
      "channel": 1,
      "note": 69,
      "start": 93.7174,
      "duration": 0.0252,
      "velocity": 127,
      "chip": "ym2612"
    },
    {
      "channel": 2,
      "note": 60,
      "start": 93.7214,
      "duration": 0.0691,
      "velocity": 101,
      "chip": "ym2612"
    },
    {
      "channel": 0,
      "note": 66,
      "start": 93.8108,
      "duration": 0.0305,
      "velocity": 127,
      "chip": "ym2612"
    },
    {
      "channel": 1,
      "note": 57,
      "start": 93.8149,
      "duration": 0.0779,
      "velocity": 101,
      "chip": "ym2612"
    },
    {
      "channel": 2,
      "note": 57,
      "start": 93.8191,
      "duration": 0.0728,
      "velocity": 106,
      "chip": "ym2612"
    },
    {
      "channel": 0,
      "note": 55,
      "start": 93.8996,
      "duration": 0.0759,
      "velocity": 106,
      "chip": "ym2612"
    },
    {
      "channel": 1,
      "note": 50,
      "start": 93.904,
      "duration": 0.0208,
      "velocity": 117,
      "chip": "ym2612"
    },
    {
      "channel": 2,
      "note": 55,
      "start": 93.9082,
      "duration": 0.0656,
      "velocity": 101,
      "chip": "ym2612"
    },
    {
      "channel": 0,
      "note": 53,
      "start": 93.9941,
      "duration": 0.0805,
      "velocity": 106,
      "chip": "ym2612"
    },
    {
      "channel": 1,
      "note": 50,
      "start": 94.0009,
      "duration": 0.0237,
      "velocity": 117,
      "chip": "ym2612"
    },
    {
      "channel": 2,
      "note": 53,
      "start": 94.005,
      "duration": 0.0688,
      "velocity": 101,
      "chip": "ym2612"
    },
    {
      "channel": 0,
      "note": 65,
      "start": 94.0939,
      "duration": 0.0808,
      "velocity": 101,
      "chip": "ym2612"
    },
    {
      "channel": 1,
      "note": 65,
      "start": 94.0982,
      "duration": 0.0772,
      "velocity": 106,
      "chip": "ym2612"
    },
    {
      "channel": 2,
      "note": 74,
      "start": 94.1047,
      "duration": 0.02,
      "velocity": 127,
      "chip": "ym2612"
    },
    {
      "channel": 0,
      "note": 62,
      "start": 94.1951,
      "duration": 0.0796,
      "velocity": 101,
      "chip": "ym2612"
    },
    {
      "channel": 1,
      "note": 62,
      "start": 94.1994,
      "duration": 0.0761,
      "velocity": 106,
      "chip": "ym2612"
    },
    {
      "channel": 2,
      "note": 73,
      "start": 94.2037,
      "duration": 0.021,
      "velocity": 127,
      "chip": "ym2612"
    },
    {
      "channel": 0,
      "note": 60,
      "start": 94.2953,
      "duration": 0.081,
      "velocity": 106,
      "chip": "ym2612"
    },
    {
      "channel": 1,
      "note": 60,
      "start": 94.2994,
      "duration": 0.0778,
      "velocity": 101,
      "chip": "ym2612"
    },
    {
      "channel": 2,
      "note": 69,
      "start": 94.3037,
      "duration": 0.021,
      "velocity": 127,
      "chip": "ym2612"
    },
    {
      "channel": 0,
      "note": 57,
      "start": 94.3839,
      "duration": 0.0749,
      "velocity": 101,
      "chip": "ym2612"
    },
    {
      "channel": 1,
      "note": 57,
      "start": 94.388,
      "duration": 0.0692,
      "velocity": 106,
      "chip": "ym2612"
    },
    {
      "channel": 2,
      "note": 66,
      "start": 94.3924,
      "duration": 0.0146,
      "velocity": 127,
      "chip": "ym2612"
    },
    {
      "channel": 0,
      "note": 55,
      "start": 94.4811,
      "duration": 0.0791,
      "velocity": 106,
      "chip": "ym2612"
    },
    {
      "channel": 1,
      "note": 50,
      "start": 94.4854,
      "duration": 0.0225,
      "velocity": 117,
      "chip": "ym2612"
    },
    {
      "channel": 2,
      "note": 55,
      "start": 94.4896,
      "duration": 0.0688,
      "velocity": 101,
      "chip": "ym2612"
    },
    {
      "channel": 0,
      "note": 53,
      "start": 94.5773,
      "duration": 0.082,
      "velocity": 101,
      "chip": "ym2612"
    },
    {
      "channel": 1,
      "note": 53,
      "start": 94.5816,
      "duration": 0.0785,
      "velocity": 106,
      "chip": "ym2612"
    },
    {
      "channel": 2,
      "note": 50,
      "start": 94.5883,
      "duration": 0.0197,
      "velocity": 117,
      "chip": "ym2612"
    },
    {
      "channel": 0,
      "note": 74,
      "start": 94.6774,
      "duration": 0.0305,
      "velocity": 127,
      "chip": "ym2612"
    },
    {
      "channel": 1,
      "note": 65,
      "start": 94.6841,
      "duration": 0.074,
      "velocity": 106,
      "chip": "ym2612"
    },
    {
      "channel": 2,
      "note": 65,
      "start": 94.688,
      "duration": 0.0691,
      "velocity": 101,
      "chip": "ym2612"
    },
    {
      "channel": 0,
      "note": 62,
      "start": 94.7774,
      "duration": 0.0807,
      "velocity": 106,
      "chip": "ym2612"
    },
    {
      "channel": 1,
      "note": 62,
      "start": 94.7816,
      "duration": 0.0772,
      "velocity": 101,
      "chip": "ym2612"
    },
    {
      "channel": 2,
      "note": 73,
      "start": 94.7881,
      "duration": 0.0199,
      "velocity": 127,
      "chip": "ym2612"
    },
    {
      "channel": 0,
      "note": 60,
      "start": 94.8772,
      "duration": 0.0811,
      "velocity": 101,
      "chip": "ym2612"
    },
    {
      "channel": 1,
      "note": 69,
      "start": 94.8839,
      "duration": 0.0242,
      "velocity": 127,
      "chip": "ym2612"
    },
    {
      "channel": 2,
      "note": 60,
      "start": 94.888,
      "duration": 0.0693,
      "velocity": 106,
      "chip": "ym2612"
    },
    {
      "channel": 0,
      "note": 66,
      "start": 94.9662,
      "duration": 0.025,
      "velocity": 127,
      "chip": "ym2612"
    },
    {
      "channel": 1,
      "note": 57,
      "start": 94.9704,
      "duration": 0.0718,
      "velocity": 106,
      "chip": "ym2612"
    },
    {
      "channel": 2,
      "note": 57,
      "start": 94.9746,
      "duration": 0.0659,
      "velocity": 101,
      "chip": "ym2612"
    },
    {
      "channel": 0,
      "note": 55,
      "start": 95.0606,
      "duration": 0.0807,
      "velocity": 101,
      "chip": "ym2612"
    },
    {
      "channel": 1,
      "note": 55,
      "start": 95.0672,
      "duration": 0.0734,
      "velocity": 106,
      "chip": "ym2612"
    },
    {
      "channel": 2,
      "note": 50,
      "start": 95.0716,
      "duration": 0.0197,
      "velocity": 117,
      "chip": "ym2612"
    },
    {
      "channel": 0,
      "note": 53,
      "start": 95.1608,
      "duration": 0.0805,
      "velocity": 106,
      "chip": "ym2612"
    },
    {
      "channel": 1,
      "note": 53,
      "start": 95.1673,
      "duration": 0.0732,
      "velocity": 101,
      "chip": "ym2612"
    },
    {
      "channel": 2,
      "note": 50,
      "start": 95.1716,
      "duration": 0.0197,
      "velocity": 117,
      "chip": "ym2612"
    },
    {
      "channel": 0,
      "note": 65,
      "start": 95.2606,
      "duration": 0.0807,
      "velocity": 101,
      "chip": "ym2612"
    },
    {
      "channel": 1,
      "note": 74,
      "start": 95.2649,
      "duration": 0.0277,
      "velocity": 127,
      "chip": "ym2612"
    },
    {
      "channel": 2,
      "note": 65,
      "start": 95.2691,
      "duration": 0.0731,
      "velocity": 106,
      "chip": "ym2612"
    },
    {
      "channel": 0,
      "note": 62,
      "start": 95.3632,
      "duration": 0.0796,
      "velocity": 106,
      "chip": "ym2612"
    },
    {
      "channel": 1,
      "note": 73,
      "start": 95.3674,
      "duration": 0.0252,
      "velocity": 127,
      "chip": "ym2612"
    },
    {
      "channel": 2,
      "note": 62,
      "start": 95.3714,
      "duration": 0.0692,
      "velocity": 101,
      "chip": "ym2612"
    },
    {
      "channel": 0,
      "note": 60,
      "start": 95.4495,
      "duration": 0.076,
      "velocity": 106,
      "chip": "ym2612"
    },
    {
      "channel": 1,
      "note": 60,
      "start": 95.4536,
      "duration": 0.0702,
      "velocity": 101,
      "chip": "ym2612"
    },
    {
      "channel": 2,
      "note": 69,
      "start": 95.4579,
      "duration": 0.018,
      "velocity": 127,
      "chip": "ym2612"
    },
    {
      "channel": 0,
      "note": 57,
      "start": 95.5465,
      "duration": 0.079,
      "velocity": 106,
      "chip": "ym2612"
    },
    {
      "channel": 1,
      "note": 66,
      "start": 95.5507,
      "duration": 0.0251,
      "velocity": 127,
      "chip": "ym2612"
    },
    {
      "channel": 2,
      "note": 57,
      "start": 95.5547,
      "duration": 0.0691,
      "velocity": 101,
      "chip": "ym2612"
    },
    {
      "channel": 0,
      "note": 55,
      "start": 95.644,
      "duration": 0.0807,
      "velocity": 101,
      "chip": "ym2612"
    },
    {
      "channel": 1,
      "note": 50,
      "start": 95.6484,
      "duration": 0.0261,
      "velocity": 117,
      "chip": "ym2612"
    },
    {
      "channel": 2,
      "note": 55,
      "start": 95.6527,
      "duration": 0.0729,
      "velocity": 106,
      "chip": "ym2612"
    },
    {
      "channel": 0,
      "note": 50,
      "start": 95.7443,
      "duration": 0.0303,
      "velocity": 117,
      "chip": "ym2612"
    },
    {
      "channel": 1,
      "note": 53,
      "start": 95.7485,
      "duration": 0.077,
      "velocity": 106,
      "chip": "ym2612"
    },
    {
      "channel": 2,
      "note": 53,
      "start": 95.7549,
      "duration": 0.0689,
      "velocity": 101,
      "chip": "ym2612"
    },
    {
      "channel": 0,
      "note": 65,
      "start": 95.8477,
      "duration": 0.0784,
      "velocity": 106,
      "chip": "ym2612"
    },
    {
      "channel": 1,
      "note": 65,
      "start": 95.8517,
      "duration": 0.0722,
      "velocity": 101,
      "chip": "ym2612"
    },
    {
      "channel": 2,
      "note": 74,
      "start": 95.8561,
      "duration": 0.0186,
      "velocity": 127,
      "chip": "ym2612"
    },
    {
      "channel": 0,
      "note": 62,
      "start": 95.9302,
      "duration": 0.0777,
      "velocity": 101,
      "chip": "ym2612"
    },
    {
      "channel": 1,
      "note": 62,
      "start": 95.9368,
      "duration": 0.0704,
      "velocity": 106,
      "chip": "ym2612"
    },
    {
      "channel": 2,
      "note": 73,
      "start": 95.9413,
      "duration": 0.0158,
      "velocity": 127,
      "chip": "ym2612"
    },
    {
      "channel": 0,
      "note": 69,
      "start": 96.0287,
      "duration": 0.0292,
      "velocity": 127,
      "chip": "ym2612"
    },
    {
      "channel": 1,
      "note": 60,
      "start": 96.033,
      "duration": 0.0759,
      "velocity": 106,
      "chip": "ym2612"
    },
    {
      "channel": 2,
      "note": 60,
      "start": 96.037,
      "duration": 0.0711,
      "velocity": 101,
      "chip": "ym2612"
    },
    {
      "channel": 0,
      "note": 57,
      "start": 96.1311,
      "duration": 0.079,
      "velocity": 106,
      "chip": "ym2612"
    },
    {
      "channel": 1,
      "note": 66,
      "start": 96.1353,
      "duration": 0.0227,
      "velocity": 127,
      "chip": "ym2612"
    },
    {
      "channel": 2,
      "note": 57,
      "start": 96.1395,
      "duration": 0.0689,
      "velocity": 101,
      "chip": "ym2612"
    },
    {
      "channel": 0,
      "note": 62,
      "start": 96.2272,
      "duration": 0.082,
      "velocity": 101,
      "chip": "ym2612"
    },
    {
      "channel": 1,
      "note": 62,
      "start": 96.2316,
      "duration": 0.0784,
      "velocity": 106,
      "chip": "ym2612"
    },
    {
      "channel": 2,
      "note": 74,
      "start": 96.2358,
      "duration": 0.0223,
      "velocity": 127,
      "chip": "ym2612"
    },
    {
      "channel": 0,
      "note": 60,
      "start": 96.3297,
      "duration": 0.0797,
      "velocity": 101,
      "chip": "ym2612"
    },
    {
      "channel": 1,
      "note": 60,
      "start": 96.3339,
      "duration": 0.0734,
      "velocity": 106,
      "chip": "ym2612"
    },
    {
      "channel": 2,
      "note": 74,
      "start": 96.338,
      "duration": 0.02,
      "velocity": 127,
      "chip": "ym2612"
    },
    {
      "channel": 0,
      "note": 57,
      "start": 96.4138,
      "duration": 0.0789,
      "velocity": 106,
      "chip": "ym2612"
    },
    {
      "channel": 1,
      "note": 50,
      "start": 96.4183,
      "duration": 0.022,
      "velocity": 117,
      "chip": "ym2612"
    },
    {
      "channel": 2,
      "note": 57,
      "start": 96.4248,
      "duration": 0.0686,
      "velocity": 101,
      "chip": "ym2612"
    },
    {
      "channel": 0,
      "note": 55,
      "start": 96.5132,
      "duration": 0.079,
      "velocity": 106,
      "chip": "ym2612"
    },
    {
      "channel": 1,
      "note": 50,
      "start": 96.5176,
      "duration": 0.0237,
      "velocity": 117,
      "chip": "ym2612"
    },
    {
      "channel": 2,
      "note": 55,
      "start": 96.5216,
      "duration": 0.0689,
      "velocity": 101,
      "chip": "ym2612"
    },
    {
      "channel": 0,
      "note": 60,
      "start": 96.6106,
      "duration": 0.0807,
      "velocity": 101,
      "chip": "ym2612"
    },
    {
      "channel": 1,
      "note": 60,
      "start": 96.6149,
      "duration": 0.0772,
      "velocity": 106,
      "chip": "ym2612"
    },
    {
      "channel": 2,
      "note": 75,
      "start": 96.6214,
      "duration": 0.02,
      "velocity": 127,
      "chip": "ym2612"
    },
    {
      "channel": 0,
      "note": 57,
      "start": 96.7106,
      "duration": 0.0808,
      "velocity": 101,
      "chip": "ym2612"
    },
    {
      "channel": 1,
      "note": 57,
      "start": 96.7148,
      "duration": 0.0773,
      "velocity": 106,
      "chip": "ym2612"
    },
    {
      "channel": 2,
      "note": 75,
      "start": 96.7214,
      "duration": 0.02,
      "velocity": 127,
      "chip": "ym2612"
    },
    {
      "channel": 0,
      "note": 55,
      "start": 96.8108,
      "duration": 0.0805,
      "velocity": 106,
      "chip": "ym2612"
    },
    {
      "channel": 1,
      "note": 55,
      "start": 96.8173,
      "duration": 0.0732,
      "velocity": 101,
      "chip": "ym2612"
    },
    {
      "channel": 2,
      "note": 75,
      "start": 96.8214,
      "duration": 0.02,
      "velocity": 127,
      "chip": "ym2612"
    },
    {
      "channel": 0,
      "note": 75,
      "start": 96.9132,
      "duration": 0.0294,
      "velocity": 127,
      "chip": "ym2612"
    },
    {
      "channel": 1,
      "note": 53,
      "start": 96.9174,
      "duration": 0.0754,
      "velocity": 106,
      "chip": "ym2612"
    },
    {
      "channel": 2,
      "note": 53,
      "start": 96.9214,
      "duration": 0.0692,
      "velocity": 101,
      "chip": "ym2612"
    },
    {
      "channel": 0,
      "note": 57,
      "start": 96.9971,
      "duration": 0.0777,
      "velocity": 106,
      "chip": "ym2612"
    },
    {
      "channel": 1,
      "note": 57,
      "start": 97.0012,
      "duration": 0.0742,
      "velocity": 101,
      "chip": "ym2612"
    },
    {
      "channel": 2,
      "note": 75,
      "start": 97.0079,
      "duration": 0.0168,
      "velocity": 127,
      "chip": "ym2612"
    },
    {
      "channel": 0,
      "note": 55,
      "start": 97.0941,
      "duration": 0.0807,
      "velocity": 106,
      "chip": "ym2612"
    },
    {
      "channel": 1,
      "note": 55,
      "start": 97.0982,
      "duration": 0.0772,
      "velocity": 101,
      "chip": "ym2612"
    },
    {
      "channel": 2,
      "note": 75,
      "start": 97.1047,
      "duration": 0.0212,
      "velocity": 127,
      "chip": "ym2612"
    },
    {
      "channel": 0,
      "note": 53,
      "start": 97.194,
      "duration": 0.0807,
      "velocity": 101,
      "chip": "ym2612"
    },
    {
      "channel": 1,
      "note": 53,
      "start": 97.1982,
      "duration": 0.0772,
      "velocity": 106,
      "chip": "ym2612"
    },
    {
      "channel": 2,
      "note": 75,
      "start": 97.2024,
      "duration": 0.0235,
      "velocity": 127,
      "chip": "ym2612"
    },
    {
      "channel": 0,
      "note": 75,
      "start": 97.2941,
      "duration": 0.0305,
      "velocity": 127,
      "chip": "ym2612"
    },
    {
      "channel": 1,
      "note": 50,
      "start": 97.2984,
      "duration": 0.0774,
      "velocity": 106,
      "chip": "ym2612"
    },
    {
      "channel": 2,
      "note": 50,
      "start": 97.3047,
      "duration": 0.0692,
      "velocity": 101,
      "chip": "ym2612"
    },
    {
      "channel": 0,
      "note": 50,
      "start": 97.4019,
      "duration": 0.1718,
      "velocity": 101,
      "chip": "ym2612"
    },
    {
      "channel": 1,
      "note": 50,
      "start": 97.4094,
      "duration": 0.0142,
      "velocity": 117,
      "chip": "ym2612"
    },
    {
      "channel": 2,
      "note": 86,
      "start": 97.4135,
      "duration": 0.0603,
      "velocity": 107,
      "chip": "ym2612"
    },
    {
      "channel": 1,
      "note": 84,
      "start": 97.4952,
      "duration": 0.0796,
      "velocity": 107,
      "chip": "ym2612"
    },
    {
      "channel": 0,
      "note": 81,
      "start": 97.5802,
      "duration": 0.0769,
      "velocity": 107,
      "chip": "ym2612"
    },
    {
      "channel": 1,
      "note": 74,
      "start": 97.5844,
      "duration": 0.0226,
      "velocity": 127,
      "chip": "ym2612"
    },
    {
      "channel": 2,
      "note": 50,
      "start": 97.5885,
      "duration": 0.1686,
      "velocity": 101,
      "chip": "ym2612"
    },
    {
      "channel": 0,
      "note": 77,
      "start": 97.6785,
      "duration": 0.0965,
      "velocity": 107,
      "chip": "ym2612"
    },
    {
      "channel": 0,
      "note": 50,
      "start": 97.7792,
      "duration": 0.1791,
      "velocity": 101,
      "chip": "ym2612"
    },
    {
      "channel": 1,
      "note": 50,
      "start": 97.784,
      "duration": 0.0229,
      "velocity": 117,
      "chip": "ym2612"
    },
    {
      "channel": 2,
      "note": 79,
      "start": 97.788,
      "duration": 0.0703,
      "velocity": 107,
      "chip": "ym2612"
    },
    {
      "channel": 1,
      "note": 50,
      "start": 97.8776,
      "duration": 0.0293,
      "velocity": 117,
      "chip": "ym2612"
    },
    {
      "channel": 2,
      "note": 86,
      "start": 97.8817,
      "duration": 0.0922,
      "velocity": 107,
      "chip": "ym2612"
    },
    {
      "channel": 0,
      "note": 74,
      "start": 97.9783,
      "duration": 0.0287,
      "velocity": 127,
      "chip": "ym2612"
    },
    {
      "channel": 1,
      "note": 50,
      "start": 97.9824,
      "duration": 0.1763,
      "velocity": 101,
      "chip": "ym2612"
    },
    {
      "channel": 2,
      "note": 84,
      "start": 97.9867,
      "duration": 0.0704,
      "velocity": 107,
      "chip": "ym2612"
    },
    {
      "channel": 0,
      "note": 81,
      "start": 98.0772,
      "duration": 0.0809,
      "velocity": 107,
      "chip": "ym2612"
    },
    {
      "channel": 0,
      "note": 50,
      "start": 98.1773,
      "duration": 0.1799,
      "velocity": 101,
      "chip": "ym2612"
    },
    {
      "channel": 1,
      "note": 50,
      "start": 98.182,
      "duration": 0.0249,
      "velocity": 117,
      "chip": "ym2612"
    },
    {
      "channel": 2,
      "note": 77,
      "start": 98.1861,
      "duration": 0.0711,
      "velocity": 107,
      "chip": "ym2612"
    },
    {
      "channel": 1,
      "note": 79,
      "start": 98.2772,
      "duration": 0.0809,
      "velocity": 107,
      "chip": "ym2612"
    },
    {
      "channel": 0,
      "note": 86,
      "start": 98.3635,
      "duration": 0.0937,
      "velocity": 107,
      "chip": "ym2612"
    },
    {
      "channel": 1,
      "note": 74,
      "start": 98.3678,
      "duration": 0.0225,
      "velocity": 127,
      "chip": "ym2612"
    },
    {
      "channel": 2,
      "note": 50,
      "start": 98.3719,
      "duration": 0.0695,
      "velocity": 101,
      "chip": "ym2612"
    },
    {
      "channel": 0,
      "note": 84,
      "start": 98.4614,
      "duration": 0.079,
      "velocity": 107,
      "chip": "ym2612"
    },
    {
      "channel": 1,
      "note": 55,
      "start": 98.4655,
      "duration": 0.1756,
      "velocity": 101,
      "chip": "ym2612"
    },
    {
      "channel": 2,
      "note": 50,
      "start": 98.4701,
      "duration": 0.0202,
      "velocity": 117,
      "chip": "ym2612"
    },
    {
      "channel": 0,
      "note": 81,
      "start": 98.5606,
      "duration": 0.0799,
      "velocity": 107,
      "chip": "ym2612"
    },
    {
      "channel": 0,
      "note": 77,
      "start": 98.6607,
      "duration": 0.0964,
      "velocity": 107,
      "chip": "ym2612"
    },
    {
      "channel": 1,
      "note": 53,
      "start": 98.6648,
      "duration": 0.2782,
      "velocity": 101,
      "chip": "ym2612"
    },
    {
      "channel": 2,
      "note": 50,
      "start": 98.6692,
      "duration": 0.0223,
      "velocity": 117,
      "chip": "ym2612"
    },
    {
      "channel": 0,
      "note": 74,
      "start": 98.7613,
      "duration": 0.0289,
      "velocity": 127,
      "chip": "ym2612"
    },
    {
      "channel": 2,
      "note": 79,
      "start": 98.7654,
      "duration": 0.0751,
      "velocity": 107,
      "chip": "ym2612"
    },
    {
      "channel": 0,
      "note": 86,
      "start": 98.8446,
      "duration": 0.0973,
      "velocity": 107,
      "chip": "ym2612"
    },
    {
      "channel": 0,
      "note": 84,
      "start": 98.9484,
      "duration": 0.0753,
      "velocity": 107,
      "chip": "ym2612"
    },
    {
      "channel": 1,
      "note": 50,
      "start": 98.9529,
      "duration": 0.0207,
      "velocity": 117,
      "chip": "ym2612"
    },
    {
      "channel": 2,
      "note": 50,
      "start": 98.9573,
      "duration": 0.1681,
      "velocity": 101,
      "chip": "ym2612"
    },
    {
      "channel": 0,
      "note": 81,
      "start": 99.0278,
      "duration": 0.0969,
      "velocity": 107,
      "chip": "ym2612"
    },
    {
      "channel": 0,
      "note": 77,
      "start": 99.1452,
      "duration": 0.0964,
      "velocity": 107,
      "chip": "ym2612"
    },
    {
      "channel": 1,
      "note": 74,
      "start": 99.1495,
      "duration": 0.0242,
      "velocity": 127,
      "chip": "ym2612"
    },
    {
      "channel": 2,
      "note": 50,
      "start": 99.1536,
      "duration": 0.1715,
      "velocity": 101,
      "chip": "ym2612"
    },
    {
      "channel": 0,
      "note": 79,
      "start": 99.2457,
      "duration": 0.0802,
      "velocity": 107,
      "chip": "ym2612"
    },
    {
      "channel": 0,
      "note": 86,
      "start": 99.3308,
      "duration": 0.0942,
      "velocity": 107,
      "chip": "ym2612"
    },
    {
      "channel": 1,
      "note": 50,
      "start": 99.3439,
      "duration": 0.181,
      "velocity": 101,
      "chip": "ym2612"
    },
    {
      "channel": 2,
      "note": 50,
      "start": 99.3484,
      "duration": 0.0253,
      "velocity": 117,
      "chip": "ym2612"
    },
    {
      "channel": 0,
      "note": 84,
      "start": 99.4292,
      "duration": 0.0791,
      "velocity": 107,
      "chip": "ym2612"
    },
    {
      "channel": 2,
      "note": 50,
      "start": 99.4335,
      "duration": 0.0235,
      "velocity": 117,
      "chip": "ym2612"
    },
    {
      "channel": 0,
      "note": 81,
      "start": 99.5292,
      "duration": 0.0791,
      "velocity": 107,
      "chip": "ym2612"
    },
    {
      "channel": 1,
      "note": 74,
      "start": 99.5335,
      "duration": 0.0235,
      "velocity": 127,
      "chip": "ym2612"
    },
    {
      "channel": 2,
      "note": 50,
      "start": 99.5376,
      "duration": 0.1696,
      "velocity": 101,
      "chip": "ym2612"
    },
    {
      "channel": 0,
      "note": 77,
      "start": 99.6272,
      "duration": 0.0807,
      "velocity": 107,
      "chip": "ym2612"
    },
    {
      "channel": 0,
      "note": 79,
      "start": 99.7274,
      "duration": 0.0797,
      "velocity": 107,
      "chip": "ym2612"
    },
    {
      "channel": 1,
      "note": 50,
      "start": 99.7318,
      "duration": 0.0251,
      "velocity": 117,
      "chip": "ym2612"
    },
    {
      "channel": 2,
      "note": 50,
      "start": 99.7359,
      "duration": 0.1712,
      "velocity": 101,
      "chip": "ym2612"
    },
    {
      "channel": 0,
      "note": 86,
      "start": 99.8112,
      "duration": 0.0793,
      "velocity": 107,
      "chip": "ym2612"
    },
    {
      "channel": 0,
      "note": 84,
      "start": 99.9121,
      "duration": 0.0783,
      "velocity": 107,
      "chip": "ym2612"
    },
    {
      "channel": 1,
      "note": 74,
      "start": 99.9274,
      "duration": 0.0296,
      "velocity": 127,
      "chip": "ym2612"
    },
    {
      "channel": 2,
      "note": 50,
      "start": 99.9315,
      "duration": 0.0757,
      "velocity": 101,
      "chip": "ym2612"
    },
    {
      "channel": 0,
      "note": 81,
      "start": 100.0126,
      "duration": 0.0779,
      "velocity": 107,
      "chip": "ym2612"
    },
    {
      "channel": 1,
      "note": 56,
      "start": 100.0167,
      "duration": 0.1737,
      "velocity": 101,
      "chip": "ym2612"
    },
    {
      "channel": 2,
      "note": 50,
      "start": 100.0213,
      "duration": 0.019,
      "velocity": 117,
      "chip": "ym2612"
    },
    {
      "channel": 0,
      "note": 77,
      "start": 100.0945,
      "duration": 0.0793,
      "velocity": 107,
      "chip": "ym2612"
    },
    {
      "channel": 0,
      "note": 79,
      "start": 100.1945,
      "duration": 0.0793,
      "velocity": 107,
      "chip": "ym2612"
    },
    {
      "channel": 1,
      "note": 55,
      "start": 100.2106,
      "duration": 0.2809,
      "velocity": 101,
      "chip": "ym2612"
    },
    {
      "channel": 2,
      "note": 50,
      "start": 100.2152,
      "duration": 0.0263,
      "velocity": 117,
      "chip": "ym2612"
    },
    {
      "channel": 0,
      "note": 86,
      "start": 100.2778,
      "duration": 0.0959,
      "velocity": 107,
      "chip": "ym2612"
    },
    {
      "channel": 2,
      "note": 74,
      "start": 100.3107,
      "duration": 0.0309,
      "velocity": 127,
      "chip": "ym2612"
    },
    {
      "channel": 0,
      "note": 84,
      "start": 100.3939,
      "duration": 0.0799,
      "velocity": 107,
      "chip": "ym2612"
    },
    {
      "channel": 0,
      "note": 81,
      "start": 100.4965,
      "duration": 0.094,
      "velocity": 107,
      "chip": "ym2612"
    },
    {
      "channel": 1,
      "note": 50,
      "start": 100.5106,
      "duration": 0.1798,
      "velocity": 101,
      "chip": "ym2612"
    },
    {
      "channel": 2,
      "note": 50,
      "start": 100.5176,
      "duration": 0.0227,
      "velocity": 117,
      "chip": "ym2612"
    },
    {
      "channel": 0,
      "note": 77,
      "start": 100.5945,
      "duration": 0.0793,
      "velocity": 107,
      "chip": "ym2612"
    },
    {
      "channel": 0,
      "note": 79,
      "start": 100.6958,
      "duration": 0.078,
      "velocity": 107,
      "chip": "ym2612"
    },
    {
      "channel": 1,
      "note": 74,
      "start": 100.7001,
      "duration": 0.0236,
      "velocity": 127,
      "chip": "ym2612"
    },
    {
      "channel": 2,
      "note": 50,
      "start": 100.7041,
      "duration": 0.1697,
      "velocity": 101,
      "chip": "ym2612"
    },
    {
      "channel": 0,
      "note": 86,
      "start": 100.7778,
      "duration": 0.0968,
      "velocity": 107,
      "chip": "ym2612"
    },
    {
      "channel": 0,
      "note": 84,
      "start": 100.8952,
      "duration": 0.0618,
      "velocity": 107,
      "chip": "ym2612"
    },
    {
      "channel": 1,
      "note": 50,
      "start": 100.8997,
      "duration": 0.0239,
      "velocity": 117,
      "chip": "ym2612"
    },
    {
      "channel": 2,
      "note": 50,
      "start": 100.9038,
      "duration": 0.1714,
      "velocity": 101,
      "chip": "ym2612"
    },
    {
      "channel": 0,
      "note": 81,
      "start": 100.9784,
      "duration": 0.0975,
      "velocity": 107,
      "chip": "ym2612"
    },
    {
      "channel": 1,
      "note": 50,
      "start": 100.9942,
      "duration": 0.0294,
      "velocity": 117,
      "chip": "ym2612"
    },
    {
      "channel": 0,
      "note": 77,
      "start": 101.0809,
      "duration": 0.0929,
      "velocity": 107,
      "chip": "ym2612"
    },
    {
      "channel": 1,
      "note": 74,
      "start": 101.0941,
      "duration": 0.0296,
      "velocity": 127,
      "chip": "ym2612"
    },
    {
      "channel": 2,
      "note": 50,
      "start": 101.0982,
      "duration": 0.1757,
      "velocity": 101,
      "chip": "ym2612"
    },
    {
      "channel": 0,
      "note": 79,
      "start": 101.1778,
      "duration": 0.0805,
      "velocity": 107,
      "chip": "ym2612"
    },
    {
      "channel": 0,
      "note": 86,
      "start": 101.2624,
      "duration": 0.0947,
      "velocity": 107,
      "chip": "ym2612"
    },
    {
      "channel": 1,
      "note": 50,
      "start": 101.2791,
      "duration": 0.1789,
      "velocity": 101,
      "chip": "ym2612"
    },
    {
      "channel": 2,
      "note": 50,
      "start": 101.2837,
      "duration": 0.0233,
      "velocity": 117,
      "chip": "ym2612"
    },
    {
      "channel": 0,
      "note": 84,
      "start": 101.3612,
      "duration": 0.0805,
      "velocity": 107,
      "chip": "ym2612"
    },
    {
      "channel": 0,
      "note": 81,
      "start": 101.4458,
      "duration": 0.0946,
      "velocity": 107,
      "chip": "ym2612"
    },
    {
      "channel": 1,
      "note": 74,
      "start": 101.4774,
      "duration": 0.0296,
      "velocity": 127,
      "chip": "ym2612"
    },
    {
      "channel": 2,
      "note": 50,
      "start": 101.4815,
      "duration": 0.0756,
      "velocity": 101,
      "chip": "ym2612"
    },
    {
      "channel": 0,
      "note": 77,
      "start": 101.5621,
      "duration": 0.0783,
      "velocity": 107,
      "chip": "ym2612"
    },
    {
      "channel": 1,
      "note": 50,
      "start": 101.5776,
      "duration": 0.0293,
      "velocity": 117,
      "chip": "ym2612"
    },
    {
      "channel": 2,
      "note": 60,
      "start": 101.5817,
      "duration": 0.1755,
      "velocity": 101,
      "chip": "ym2612"
    },
    {
      "channel": 0,
      "note": 79,
      "start": 101.6606,
      "duration": 0.0799,
      "velocity": 107,
      "chip": "ym2612"
    },
    {
      "channel": 0,
      "note": 86,
      "start": 101.7445,
      "duration": 0.0959,
      "velocity": 107,
      "chip": "ym2612"
    },
    {
      "channel": 1,
      "note": 57,
      "start": 101.7613,
      "duration": 0.2807,
      "velocity": 101,
      "chip": "ym2612"
    },
    {
      "channel": 2,
      "note": 50,
      "start": 101.7658,
      "duration": 0.0246,
      "velocity": 117,
      "chip": "ym2612"
    },
    {
      "channel": 0,
      "note": 84,
      "start": 101.8606,
      "duration": 0.0798,
      "velocity": 107,
      "chip": "ym2612"
    },
    {
      "channel": 2,
      "note": 74,
      "start": 101.8648,
      "duration": 0.0268,
      "velocity": 127,
      "chip": "ym2612"
    },
    {
      "channel": 0,
      "note": 81,
      "start": 101.9606,
      "duration": 0.0809,
      "velocity": 107,
      "chip": "ym2612"
    },
    {
      "channel": 0,
      "note": 77,
      "start": 102.0606,
      "duration": 0.0799,
      "velocity": 107,
      "chip": "ym2612"
    },
    {
      "channel": 1,
      "note": 50,
      "start": 102.0648,
      "duration": 0.0774,
      "velocity": 101,
      "chip": "ym2612"
    },
    {
      "channel": 2,
      "note": 50,
      "start": 102.0694,
      "duration": 0.0209,
      "velocity": 117,
      "chip": "ym2612"
    },
    {
      "channel": 0,
      "note": 79,
      "start": 102.1463,
      "duration": 0.0775,
      "velocity": 107,
      "chip": "ym2612"
    },
    {
      "channel": 1,
      "note": 51,
      "start": 102.1606,
      "duration": 0.0808,
      "velocity": 101,
      "chip": "ym2612"
    },
    {
      "channel": 2,
      "note": 50,
      "start": 102.1653,
      "duration": 0.0251,
      "velocity": 117,
      "chip": "ym2612"
    },
    {
      "channel": 0,
      "note": 86,
      "start": 102.2454,
      "duration": 0.0951,
      "velocity": 107,
      "chip": "ym2612"
    },
    {
      "channel": 1,
      "note": 74,
      "start": 102.262,
      "duration": 0.0284,
      "velocity": 127,
      "chip": "ym2612"
    },
    {
      "channel": 2,
      "note": 53,
      "start": 102.2661,
      "duration": 0.0755,
      "velocity": 101,
      "chip": "ym2612"
    },
    {
      "channel": 0,
      "note": 84,
      "start": 102.3469,
      "duration": 0.0769,
      "velocity": 107,
      "chip": "ym2612"
    },
    {
      "channel": 1,
      "note": 74,
      "start": 102.3512,
      "duration": 0.0225,
      "velocity": 127,
      "chip": "ym2612"
    },
    {
      "channel": 2,
      "note": 54,
      "start": 102.3552,
      "duration": 0.0693,
      "velocity": 101,
      "chip": "ym2612"
    },
    {
      "channel": 0,
      "note": 81,
      "start": 102.4452,
      "duration": 0.0786,
      "velocity": 107,
      "chip": "ym2612"
    },
    {
      "channel": 1,
      "note": 50,
      "start": 102.4496,
      "duration": 0.024,
      "velocity": 117,
      "chip": "ym2612"
    },
    {
      "channel": 2,
      "note": 56,
      "start": 102.4538,
      "duration": 0.0708,
      "velocity": 101,
      "chip": "ym2612"
    },
    {
      "channel": 0,
      "note": 77,
      "start": 102.5452,
      "duration": 0.0798,
      "velocity": 107,
      "chip": "ym2612"
    },
    {
      "channel": 1,
      "note": 58,
      "start": 102.5494,
      "duration": 0.0772,
      "velocity": 101,
      "chip": "ym2612"
    },
    {
      "channel": 2,
      "note": 50,
      "start": 102.5538,
      "duration": 0.0198,
      "velocity": 117,
      "chip": "ym2612"
    },
    {
      "channel": 0,
      "note": 79,
      "start": 102.644,
      "duration": 0.081,
      "velocity": 107,
      "chip": "ym2612"
    },
    {
      "channel": 1,
      "note": 74,
      "start": 102.6483,
      "duration": 0.0254,
      "velocity": 127,
      "chip": "ym2612"
    },
    {
      "channel": 2,
      "note": 60,
      "start": 102.6524,
      "duration": 0.0735,
      "velocity": 101,
      "chip": "ym2612"
    },
    {
      "channel": 0,
      "note": 86,
      "start": 102.7309,
      "duration": 0.093,
      "velocity": 107,
      "chip": "ym2612"
    },
    {
      "channel": 1,
      "note": 74,
      "start": 102.7441,
      "duration": 0.0296,
      "velocity": 127,
      "chip": "ym2612"
    },
    {
      "channel": 2,
      "note": 62,
      "start": 102.7482,
      "duration": 0.0765,
      "velocity": 101,
      "chip": "ym2612"
    },
    {
      "channel": 0,
      "note": 84,
      "start": 102.8296,
      "duration": 0.0787,
      "velocity": 107,
      "chip": "ym2612"
    },
    {
      "channel": 1,
      "note": 74,
      "start": 102.8441,
      "duration": 0.0296,
      "velocity": 127,
      "chip": "ym2612"
    },
    {
      "channel": 2,
      "note": 63,
      "start": 102.8482,
      "duration": 0.0756,
      "velocity": 101,
      "chip": "ym2612"
    },
    {
      "channel": 0,
      "note": 81,
      "start": 102.9293,
      "duration": 0.0945,
      "velocity": 107,
      "chip": "ym2612"
    },
    {
      "channel": 1,
      "note": 74,
      "start": 102.9335,
      "duration": 0.0235,
      "velocity": 127,
      "chip": "ym2612"
    },
    {
      "channel": 2,
      "note": 62,
      "start": 102.9376,
      "duration": 0.0704,
      "velocity": 101,
      "chip": "ym2612"
    },
    {
      "channel": 0,
      "note": 77,
      "start": 103.0281,
      "duration": 0.0791,
      "velocity": 107,
      "chip": "ym2612"
    },
    {
      "channel": 1,
      "note": 74,
      "start": 103.0323,
      "duration": 0.0247,
      "velocity": 127,
      "chip": "ym2612"
    },
    {
      "channel": 2,
      "note": 58,
      "start": 103.0365,
      "duration": 0.0716,
      "velocity": 101,
      "chip": "ym2612"
    },
    {
      "channel": 0,
      "note": 79,
      "start": 103.113,
      "duration": 0.0774,
      "velocity": 107,
      "chip": "ym2612"
    },
    {
      "channel": 1,
      "note": 74,
      "start": 103.1274,
      "duration": 0.0296,
      "velocity": 127,
      "chip": "ym2612"
    },
    {
      "channel": 2,
      "note": 57,
      "start": 103.1316,
      "duration": 0.0756,
      "velocity": 101,
      "chip": "ym2612"
    },
    {
      "channel": 0,
      "note": 86,
      "start": 103.2122,
      "duration": 0.0951,
      "velocity": 107,
      "chip": "ym2612"
    },
    {
      "channel": 1,
      "note": 56,
      "start": 103.2273,
      "duration": 0.0816,
      "velocity": 101,
      "chip": "ym2612"
    },
    {
      "channel": 2,
      "note": 50,
      "start": 103.2319,
      "duration": 0.0251,
      "velocity": 117,
      "chip": "ym2612"
    },
    {
      "channel": 0,
      "note": 84,
      "start": 103.3129,
      "duration": 0.0775,
      "velocity": 107,
      "chip": "ym2612"
    },
    {
      "channel": 1,
      "note": 55,
      "start": 103.3273,
      "duration": 0.081,
      "velocity": 101,
      "chip": "ym2612"
    },
    {
      "channel": 2,
      "note": 50,
      "start": 103.3317,
      "duration": 0.0265,
      "velocity": 117,
      "chip": "ym2612"
    },
    {
      "channel": 0,
      "note": 81,
      "start": 103.4126,
      "duration": 0.0945,
      "velocity": 107,
      "chip": "ym2612"
    },
    {
      "channel": 1,
      "note": 50,
      "start": 103.4171,
      "duration": 0.0232,
      "velocity": 117,
      "chip": "ym2612"
    },
    {
      "channel": 2,
      "note": 53,
      "start": 103.4212,
      "duration": 0.0702,
      "velocity": 101,
      "chip": "ym2612"
    },
    {
      "channel": 0,
      "note": 77,
      "start": 103.5114,
      "duration": 0.0791,
      "velocity": 107,
      "chip": "ym2612"
    },
    {
      "channel": 1,
      "note": 51,
      "start": 103.5155,
      "duration": 0.0765,
      "velocity": 101,
      "chip": "ym2612"
    },
    {
      "channel": 2,
      "note": 50,
      "start": 103.52,
      "duration": 0.0216,
      "velocity": 117,
      "chip": "ym2612"
    },
    {
      "channel": 0,
      "note": 79,
      "start": 103.6107,
      "duration": 0.0798,
      "velocity": 107,
      "chip": "ym2612"
    },
    {
      "channel": 1,
      "note": 50,
      "start": 103.6149,
      "duration": 0.1765,
      "velocity": 101,
      "chip": "ym2612"
    },
    {
      "channel": 2,
      "note": 50,
      "start": 103.6219,
      "duration": 0.0207,
      "velocity": 117,
      "chip": "ym2612"
    },
    {
      "channel": 0,
      "note": 91,
      "start": 103.6945,
      "duration": 0.0793,
      "velocity": 107,
      "chip": "ym2612"
    },
    {
      "channel": 0,
      "note": 89,
      "start": 103.7954,
      "duration": 0.095,
      "velocity": 107,
      "chip": "ym2612"
    },
    {
      "channel": 1,
      "note": 74,
      "start": 103.8108,
      "duration": 0.0296,
      "velocity": 127,
      "chip": "ym2612"
    },
    {
      "channel": 2,
      "note": 50,
      "start": 103.8148,
      "duration": 0.1757,
      "velocity": 101,
      "chip": "ym2612"
    },
    {
      "channel": 0,
      "note": 91,
      "start": 103.8945,
      "duration": 0.0792,
      "velocity": 107,
      "chip": "ym2612"
    },
    {
      "channel": 0,
      "note": 79,
      "start": 103.9959,
      "duration": 0.0779,
      "velocity": 107,
      "chip": "ym2612"
    },
    {
      "channel": 1,
      "note": 50,
      "start": 104.0004,
      "duration": 0.0232,
      "velocity": 117,
      "chip": "ym2612"
    },
    {
      "channel": 2,
      "note": 50,
      "start": 104.0045,
      "duration": 0.1694,
      "velocity": 101,
      "chip": "ym2612"
    },
    {
      "channel": 0,
      "note": 81,
      "start": 104.0778,
      "duration": 0.0793,
      "velocity": 107,
      "chip": "ym2612"
    },
    {
      "channel": 1,
      "note": 50,
      "start": 104.0955,
      "duration": 0.0281,
      "velocity": 117,
      "chip": "ym2612"
    },
    {
      "channel": 0,
      "note": 91,
      "start": 104.1788,
      "duration": 0.0962,
      "velocity": 107,
      "chip": "ym2612"
    },
    {
      "channel": 1,
      "note": 74,
      "start": 104.1954,
      "duration": 0.0283,
      "velocity": 127,
      "chip": "ym2612"
    },
    {
      "channel": 2,
      "note": 50,
      "start": 104.1994,
      "duration": 0.1756,
      "velocity": 101,
      "chip": "ym2612"
    },
    {
      "channel": 0,
      "note": 89,
      "start": 104.279,
      "duration": 0.078,
      "velocity": 107,
      "chip": "ym2612"
    },
    {
      "channel": 0,
      "note": 86,
      "start": 104.38,
      "duration": 0.0782,
      "velocity": 107,
      "chip": "ym2612"
    },
    {
      "channel": 1,
      "note": 50,
      "start": 104.394,
      "duration": 0.1821,
      "velocity": 101,
      "chip": "ym2612"
    },
    {
      "channel": 2,
      "note": 50,
      "start": 104.3985,
      "duration": 0.0251,
      "velocity": 117,
      "chip": "ym2612"
    },
    {
      "channel": 0,
      "note": 79,
      "start": 104.4772,
      "duration": 0.0978,
      "velocity": 107,
      "chip": "ym2612"
    },
    {
      "channel": 0,
      "note": 81,
      "start": 104.5803,
      "duration": 0.0768,
      "velocity": 107,
      "chip": "ym2612"
    },
    {
      "channel": 1,
      "note": 74,
      "start": 104.5846,
      "duration": 0.0224,
      "velocity": 127,
      "chip": "ym2612"
    },
    {
      "channel": 2,
      "note": 50,
      "start": 104.5886,
      "duration": 0.0693,
      "velocity": 101,
      "chip": "ym2612"
    },
    {
      "channel": 0,
      "note": 91,
      "start": 104.6774,
      "duration": 0.0798,
      "velocity": 107,
      "chip": "ym2612"
    },
    {
      "channel": 1,
      "note": 50,
      "start": 104.6818,
      "duration": 0.0251,
      "velocity": 117,
      "chip": "ym2612"
    },
    {
      "channel": 2,
      "note": 55,
      "start": 104.6859,
      "duration": 0.1712,
      "velocity": 101,
      "chip": "ym2612"
    },
    {
      "channel": 0,
      "note": 89,
      "start": 104.7612,
      "duration": 0.0793,
      "velocity": 107,
      "chip": "ym2612"
    },
    {
      "channel": 0,
      "note": 86,
      "start": 104.8612,
      "duration": 0.0793,
      "velocity": 107,
      "chip": "ym2612"
    },
    {
      "channel": 1,
      "note": 53,
      "start": 104.8772,
      "duration": 0.2824,
      "velocity": 101,
      "chip": "ym2612"
    },
    {
      "channel": 2,
      "note": 50,
      "start": 104.8819,
      "duration": 0.0251,
      "velocity": 117,
      "chip": "ym2612"
    },
    {
      "channel": 0,
      "note": 79,
      "start": 104.9606,
      "duration": 0.0798,
      "velocity": 107,
      "chip": "ym2612"
    },
    {
      "channel": 2,
      "note": 74,
      "start": 104.9774,
      "duration": 0.0309,
      "velocity": 127,
      "chip": "ym2612"
    },
    {
      "channel": 0,
      "note": 81,
      "start": 105.0606,
      "duration": 0.098,
      "velocity": 107,
      "chip": "ym2612"
    },
    {
      "channel": 0,
      "note": 91,
      "start": 105.1651,
      "duration": 0.0753,
      "velocity": 107,
      "chip": "ym2612"
    },
    {
      "channel": 1,
      "note": 50,
      "start": 105.1696,
      "duration": 0.0229,
      "velocity": 117,
      "chip": "ym2612"
    },
    {
      "channel": 2,
      "note": 50,
      "start": 105.1739,
      "duration": 0.1682,
      "velocity": 101,
      "chip": "ym2612"
    },
    {
      "channel": 0,
      "note": 89,
      "start": 105.2606,
      "duration": 0.0809,
      "velocity": 107,
      "chip": "ym2612"
    },
    {
      "channel": 0,
      "note": 86,
      "start": 105.3606,
      "duration": 0.0965,
      "velocity": 107,
      "chip": "ym2612"
    },
    {
      "channel": 1,
      "note": 74,
      "start": 105.365,
      "duration": 0.0254,
      "velocity": 127,
      "chip": "ym2612"
    },
    {
      "channel": 2,
      "note": 50,
      "start": 105.369,
      "duration": 0.1715,
      "velocity": 101,
      "chip": "ym2612"
    },
    {
      "channel": 0,
      "note": 79,
      "start": 105.4612,
      "duration": 0.0801,
      "velocity": 107,
      "chip": "ym2612"
    },
    {
      "channel": 0,
      "note": 81,
      "start": 105.5619,
      "duration": 0.0785,
      "velocity": 107,
      "chip": "ym2612"
    },
    {
      "channel": 1,
      "note": 50,
      "start": 105.5661,
      "duration": 0.1778,
      "velocity": 101,
      "chip": "ym2612"
    },
    {
      "channel": 2,
      "note": 50,
      "start": 105.5707,
      "duration": 0.0197,
      "velocity": 117,
      "chip": "ym2612"
    },
    {
      "channel": 0,
      "note": 91,
      "start": 105.6618,
      "duration": 0.0812,
      "velocity": 107,
      "chip": "ym2612"
    },
    {
      "channel": 2,
      "note": 50,
      "start": 105.6662,
      "duration": 0.0241,
      "velocity": 117,
      "chip": "ym2612"
    },
    {
      "channel": 0,
      "note": 89,
      "start": 105.7482,
      "duration": 0.0935,
      "velocity": 107,
      "chip": "ym2612"
    },
    {
      "channel": 1,
      "note": 50,
      "start": 105.7522,
      "duration": 0.1744,
      "velocity": 101,
      "chip": "ym2612"
    },
    {
      "channel": 2,
      "note": 74,
      "start": 105.7568,
      "duration": 0.0169,
      "velocity": 127,
      "chip": "ym2612"
    },
    {
      "channel": 0,
      "note": 86,
      "start": 105.8458,
      "duration": 0.0802,
      "velocity": 107,
      "chip": "ym2612"
    },
    {
      "channel": 0,
      "note": 50,
      "start": 105.944,
      "duration": 0.1798,
      "velocity": 101,
      "chip": "ym2612"
    },
    {
      "channel": 1,
      "note": 50,
      "start": 105.9487,
      "duration": 0.0249,
      "velocity": 117,
      "chip": "ym2612"
    },
    {
      "channel": 2,
      "note": 79,
      "start": 105.9527,
      "duration": 0.0723,
      "velocity": 107,
      "chip": "ym2612"
    },
    {
      "channel": 1,
      "note": 81,
      "start": 106.0439,
      "duration": 0.0807,
      "velocity": 107,
      "chip": "ym2612"
    },
    {
      "channel": 0,
      "note": 91,
      "start": 106.1296,
      "duration": 0.0788,
      "velocity": 107,
      "chip": "ym2612"
    },
    {
      "channel": 1,
      "note": 74,
      "start": 106.1441,
      "duration": 0.0296,
      "velocity": 127,
      "chip": "ym2612"
    },
    {
      "channel": 2,
      "note": 50,
      "start": 106.1482,
      "duration": 0.0757,
      "velocity": 101,
      "chip": "ym2612"
    },
    {
      "channel": 0,
      "note": 89,
      "start": 106.2288,
      "duration": 0.0783,
      "velocity": 107,
      "chip": "ym2612"
    },
    {
      "channel": 1,
      "note": 56,
      "start": 106.244,
      "duration": 0.1798,
      "velocity": 101,
      "chip": "ym2612"
    },
    {
      "channel": 2,
      "note": 50,
      "start": 106.2485,
      "duration": 0.0251,
      "velocity": 117,
      "chip": "ym2612"
    },
    {
      "channel": 0,
      "note": 86,
      "start": 106.3272,
      "duration": 0.0798,
      "velocity": 107,
      "chip": "ym2612"
    },
    {
      "channel": 0,
      "note": 79,
      "start": 106.4281,
      "duration": 0.0957,
      "velocity": 107,
      "chip": "ym2612"
    },
    {
      "channel": 1,
      "note": 55,
      "start": 106.4322,
      "duration": 0.2768,
      "velocity": 101,
      "chip": "ym2612"
    },
    {
      "channel": 2,
      "note": 50,
      "start": 106.4368,
      "duration": 0.0202,
      "velocity": 117,
      "chip": "ym2612"
    },
    {
      "channel": 0,
      "note": 81,
      "start": 106.5279,
      "duration": 0.0792,
      "velocity": 107,
      "chip": "ym2612"
    },
    {
      "channel": 2,
      "note": 74,
      "start": 106.5321,
      "duration": 0.0249,
      "velocity": 127,
      "chip": "ym2612"
    },
    {
      "channel": 0,
      "note": 91,
      "start": 106.6112,
      "duration": 0.0971,
      "velocity": 107,
      "chip": "ym2612"
    },
    {
      "channel": 0,
      "note": 89,
      "start": 106.714,
      "duration": 0.0764,
      "velocity": 107,
      "chip": "ym2612"
    },
    {
      "channel": 1,
      "note": 50,
      "start": 106.7277,
      "duration": 0.0315,
      "velocity": 117,
      "chip": "ym2612"
    },
    {
      "channel": 2,
      "note": 50,
      "start": 106.7318,
      "duration": 0.1771,
      "velocity": 101,
      "chip": "ym2612"
    },
    {
      "channel": 0,
      "note": 86,
      "start": 106.8106,
      "duration": 0.0976,
      "velocity": 107,
      "chip": "ym2612"
    },
    {
      "channel": 0,
      "note": 79,
      "start": 106.913,
      "duration": 0.0774,
      "velocity": 107,
      "chip": "ym2612"
    },
    {
      "channel": 1,
      "note": 74,
      "start": 106.9274,
      "duration": 0.0296,
      "velocity": 127,
      "chip": "ym2612"
    },
    {
      "channel": 2,
      "note": 50,
      "start": 106.9315,
      "duration": 0.1758,
      "velocity": 101,
      "chip": "ym2612"
    },
    {
      "channel": 0,
      "note": 81,
      "start": 107.0106,
      "duration": 0.0977,
      "velocity": 107,
      "chip": "ym2612"
    },
    {
      "channel": 0,
      "note": 50,
      "start": 107.1135,
      "duration": 0.177,
      "velocity": 101,
      "chip": "ym2612"
    },
    {
      "channel": 1,
      "note": 50,
      "start": 107.118,
      "duration": 0.0223,
      "velocity": 117,
      "chip": "ym2612"
    },
    {
      "channel": 2,
      "note": 91,
      "start": 107.1223,
      "duration": 0.0682,
      "velocity": 107,
      "chip": "ym2612"
    },
    {
      "channel": 1,
      "note": 89,
      "start": 107.2118,
      "duration": 0.0795,
      "velocity": 107,
      "chip": "ym2612"
    },
    {
      "channel": 2,
      "note": 50,
      "start": 107.2162,
      "duration": 0.0241,
      "velocity": 117,
      "chip": "ym2612"
    },
    {
      "channel": 0,
      "note": 86,
      "start": 107.2963,
      "duration": 0.0954,
      "velocity": 107,
      "chip": "ym2612"
    },
    {
      "channel": 1,
      "note": 50,
      "start": 107.3118,
      "duration": 0.1808,
      "velocity": 101,
      "chip": "ym2612"
    },
    {
      "channel": 2,
      "note": 74,
      "start": 107.3162,
      "duration": 0.0242,
      "velocity": 127,
      "chip": "ym2612"
    },
    {
      "channel": 0,
      "note": 79,
      "start": 107.3957,
      "duration": 0.078,
      "velocity": 107,
      "chip": "ym2612"
    },
    {
      "channel": 0,
      "note": 81,
      "start": 107.4967,
      "duration": 0.0782,
      "velocity": 107,
      "chip": "ym2612"
    },
    {
      "channel": 1,
      "note": 50,
      "start": 107.5106,
      "duration": 0.181,
      "velocity": 101,
      "chip": "ym2612"
    },
    {
      "channel": 2,
      "note": 50,
      "start": 107.5152,
      "duration": 0.0251,
      "velocity": 117,
      "chip": "ym2612"
    },
    {
      "channel": 0,
      "note": 91,
      "start": 107.5939,
      "duration": 0.0811,
      "velocity": 107,
      "chip": "ym2612"
    },
    {
      "channel": 0,
      "note": 89,
      "start": 107.6791,
      "duration": 0.0447,
      "velocity": 107,
      "chip": "ym2612"
    },
    {
      "channel": 1,
      "note": 74,
      "start": 107.6959,
      "duration": 0.0286,
      "velocity": 127,
      "chip": "ym2612"
    },
    {
      "channel": 2,
      "note": 50,
      "start": 107.7,
      "duration": 0.0747,
      "velocity": 101,
      "chip": "ym2612"
    },
    {
      "channel": 0,
      "note": 86,
      "start": 107.7285,
      "duration": 0.062,
      "velocity": 107,
      "chip": "ym2612"
    },
    {
      "channel": 0,
      "note": 60,
      "start": 107.7946,
      "duration": 0.1791,
      "velocity": 101,
      "chip": "ym2612"
    },
    {
      "channel": 1,
      "note": 50,
      "start": 107.7991,
      "duration": 0.0245,
      "velocity": 117,
      "chip": "ym2612"
    },
    {
      "channel": 2,
      "note": 79,
      "start": 107.8106,
      "duration": 0.0632,
      "velocity": 107,
      "chip": "ym2612"
    },
    {
      "channel": 1,
      "note": 81,
      "start": 107.8779,
      "duration": 0.0468,
      "velocity": 107,
      "chip": "ym2612"
    },
    {
      "channel": 1,
      "note": 91,
      "start": 107.9451,
      "duration": 0.0454,
      "velocity": 107,
      "chip": "ym2612"
    },
    {
      "channel": 0,
      "note": 50,
      "start": 107.9951,
      "duration": 0.0284,
      "velocity": 117,
      "chip": "ym2612"
    },
    {
      "channel": 1,
      "note": 57,
      "start": 107.9993,
      "duration": 0.2757,
      "velocity": 101,
      "chip": "ym2612"
    },
    {
      "channel": 2,
      "note": 89,
      "start": 108.0036,
      "duration": 0.0381,
      "velocity": 107,
      "chip": "ym2612"
    },
    {
      "channel": 0,
      "note": 86,
      "start": 108.0606,
      "duration": 0.0644,
      "velocity": 107,
      "chip": "ym2612"
    },
    {
      "channel": 2,
      "note": 74,
      "start": 108.094,
      "duration": 0.0317,
      "velocity": 127,
      "chip": "ym2612"
    },
    {
      "channel": 0,
      "note": 79,
      "start": 108.1297,
      "duration": 0.0441,
      "velocity": 107,
      "chip": "ym2612"
    },
    {
      "channel": 0,
      "note": 50,
      "start": 108.1781,
      "duration": 0.0288,
      "velocity": 117,
      "chip": "ym2612"
    },
    {
      "channel": 2,
      "note": 81,
      "start": 108.194,
      "duration": 0.0632,
      "velocity": 107,
      "chip": "ym2612"
    },
    {
      "channel": 0,
      "note": 91,
      "start": 108.2613,
      "duration": 0.047,
      "velocity": 107,
      "chip": "ym2612"
    },
    {
      "channel": 1,
      "note": 65,
      "start": 108.2791,
      "duration": 0.0789,
      "velocity": 101,
      "chip": "ym2612"
    },
    {
      "channel": 2,
      "note": 74,
      "start": 108.2835,
      "duration": 0.0254,
      "velocity": 127,
      "chip": "ym2612"
    },
    {
      "channel": 0,
      "note": 89,
      "start": 108.3272,
      "duration": 0.0466,
      "velocity": 107,
      "chip": "ym2612"
    },
    {
      "channel": 0,
      "note": 66,
      "start": 108.378,
      "duration": 0.0791,
      "velocity": 101,
      "chip": "ym2612"
    },
    {
      "channel": 1,
      "note": 74,
      "start": 108.3823,
      "duration": 0.0259,
      "velocity": 127,
      "chip": "ym2612"
    },
    {
      "channel": 2,
      "note": 86,
      "start": 108.3867,
      "duration": 0.0538,
      "velocity": 107,
      "chip": "ym2612"
    },
    {
      "channel": 0,
      "note": 79,
      "start": 108.462,
      "duration": 0.0618,
      "velocity": 107,
      "chip": "ym2612"
    },
    {
      "channel": 1,
      "note": 67,
      "start": 108.4772,
      "duration": 0.0807,
      "velocity": 101,
      "chip": "ym2612"
    },
    {
      "channel": 2,
      "note": 50,
      "start": 108.4819,
      "duration": 0.0251,
      "velocity": 117,
      "chip": "ym2612"
    },
    {
      "channel": 0,
      "note": 81,
      "start": 108.5279,
      "duration": 0.0459,
      "velocity": 107,
      "chip": "ym2612"
    },
    {
      "channel": 0,
      "note": 60,
      "start": 108.578,
      "duration": 0.0791,
      "velocity": 101,
      "chip": "ym2612"
    },
    {
      "channel": 1,
      "note": 74,
      "start": 108.5825,
      "duration": 0.0245,
      "velocity": 127,
      "chip": "ym2612"
    },
    {
      "channel": 2,
      "note": 91,
      "start": 108.5866,
      "duration": 0.0372,
      "velocity": 107,
      "chip": "ym2612"
    },
    {
      "channel": 1,
      "note": 89,
      "start": 108.6439,
      "duration": 0.0466,
      "velocity": 107,
      "chip": "ym2612"
    },
    {
      "channel": 0,
      "note": 61,
      "start": 108.6623,
      "duration": 0.079,
      "velocity": 101,
      "chip": "ym2612"
    },
    {
      "channel": 2,
      "note": 74,
      "start": 108.6667,
      "duration": 0.0244,
      "velocity": 127,
      "chip": "ym2612"
    },
    {
      "channel": 1,
      "note": 86,
      "start": 108.6952,
      "duration": 0.062,
      "velocity": 107,
      "chip": "ym2612"
    },
    {
      "channel": 0,
      "note": 74,
      "start": 108.7615,
      "duration": 0.0288,
      "velocity": 127,
      "chip": "ym2612"
    },
    {
      "channel": 1,
      "note": 62,
      "start": 108.7655,
      "duration": 0.0768,
      "velocity": 101,
      "chip": "ym2612"
    },
    {
      "channel": 2,
      "note": 79,
      "start": 108.7785,
      "duration": 0.0621,
      "velocity": 107,
      "chip": "ym2612"
    },
    {
      "channel": 0,
      "note": 81,
      "start": 108.8464,
      "duration": 0.0441,
      "velocity": 107,
      "chip": "ym2612"
    },
    {
      "channel": 1,
      "note": 55,
      "start": 108.8618,
      "duration": 0.0795,
      "velocity": 101,
      "chip": "ym2612"
    },
    {
      "channel": 2,
      "note": 50,
      "start": 108.8664,
      "duration": 0.0246,
      "velocity": 117,
      "chip": "ym2612"
    },
    {
      "channel": 0,
      "note": 91,
      "start": 108.9106,
      "duration": 0.0478,
      "velocity": 107,
      "chip": "ym2612"
    },
    {
      "channel": 0,
      "note": 56,
      "start": 108.9626,
      "duration": 0.079,
      "velocity": 101,
      "chip": "ym2612"
    },
    {
      "channel": 1,
      "note": 50,
      "start": 108.9673,
      "duration": 0.0229,
      "velocity": 117,
      "chip": "ym2612"
    },
    {
      "channel": 2,
      "note": 89,
      "start": 108.9714,
      "duration": 0.0358,
      "velocity": 107,
      "chip": "ym2612"
    },
    {
      "channel": 1,
      "note": 86,
      "start": 109.0272,
      "duration": 0.0633,
      "velocity": 107,
      "chip": "ym2612"
    },
    {
      "channel": 0,
      "note": 57,
      "start": 109.0606,
      "duration": 0.0819,
      "velocity": 101,
      "chip": "ym2612"
    },
    {
      "channel": 2,
      "note": 74,
      "start": 109.0648,
      "duration": 0.0264,
      "velocity": 127,
      "chip": "ym2612"
    },
    {
      "channel": 1,
      "note": 79,
      "start": 109.0953,
      "duration": 0.062,
      "velocity": 107,
      "chip": "ym2612"
    },
    {
      "channel": 0,
      "note": 53,
      "start": 109.1613,
      "duration": 0.0791,
      "velocity": 101,
      "chip": "ym2612"
    },
    {
      "channel": 1,
      "note": 50,
      "start": 109.166,
      "duration": 0.0243,
      "velocity": 117,
      "chip": "ym2612"
    },
    {
      "channel": 2,
      "note": 81,
      "start": 109.1773,
      "duration": 0.0643,
      "velocity": 107,
      "chip": "ym2612"
    },
    {
      "channel": 0,
      "note": 91,
      "start": 109.247,
      "duration": 0.0434,
      "velocity": 107,
      "chip": "ym2612"
    },
    {
      "channel": 1,
      "note": 73,
      "start": 109.2514,
      "duration": 0.0054,
      "velocity": 127,
      "chip": "ym2612"
    },
    {
      "channel": 2,
      "note": 54,
      "start": 109.2555,
      "duration": 0.0696,
      "velocity": 101,
      "chip": "ym2612"
    },
    {
      "channel": 1,
      "note": 74,
      "start": 109.2601,
      "duration": 0.0142,
      "velocity": 127,
      "chip": "ym2612"
    },
    {
      "channel": 0,
      "note": 89,
      "start": 109.3106,
      "duration": 0.0465,
      "velocity": 107,
      "chip": "ym2612"
    },
    {
      "channel": 1,
      "note": 50,
      "start": 109.3443,
      "duration": 0.0293,
      "velocity": 117,
      "chip": "ym2612"
    },
    {
      "channel": 2,
      "note": 55,
      "start": 109.3484,
      "duration": 0.0764,
      "velocity": 101,
      "chip": "ym2612"
    },
    {
      "channel": 0,
      "note": 86,
      "start": 109.3612,
      "duration": 0.0643,
      "velocity": 107,
      "chip": "ym2612"
    },
    {
      "channel": 0,
      "note": 79,
      "start": 109.444,
      "duration": 0.0643,
      "velocity": 107,
      "chip": "ym2612"
    },
    {
      "channel": 1,
      "note": 74,
      "start": 109.4483,
      "duration": 0.0254,
      "velocity": 127,
      "chip": "ym2612"
    },
    {
      "channel": 2,
      "note": 48,
      "start": 109.4524,
      "duration": 0.0715,
      "velocity": 101,
      "chip": "ym2612"
    },
    {
      "channel": 0,
      "note": 81,
      "start": 109.5124,
      "duration": 0.0446,
      "velocity": 107,
      "chip": "ym2612"
    },
    {
      "channel": 1,
      "note": 49,
      "start": 109.544,
      "duration": 0.0816,
      "velocity": 101,
      "chip": "ym2612"
    },
    {
      "channel": 2,
      "note": 50,
      "start": 109.5484,
      "duration": 0.0252,
      "velocity": 117,
      "chip": "ym2612"
    },
    {
      "channel": 0,
      "note": 91,
      "start": 109.5778,
      "duration": 0.0471,
      "velocity": 107,
      "chip": "ym2612"
    },
    {
      "channel": 0,
      "note": 89,
      "start": 109.6296,
      "duration": 0.0442,
      "velocity": 107,
      "chip": "ym2612"
    },
    {
      "channel": 1,
      "note": 50,
      "start": 109.6439,
      "duration": 0.0807,
      "velocity": 101,
      "chip": "ym2612"
    },
    {
      "channel": 2,
      "note": 74,
      "start": 109.6482,
      "duration": 0.0262,
      "velocity": 127,
      "chip": "ym2612"
    },
    {
      "channel": 0,
      "note": 86,
      "start": 109.6951,
      "duration": 0.0454,
      "velocity": 107,
      "chip": "ym2612"
    },
    {
      "channel": 0,
      "note": 51,
      "start": 109.7447,
      "duration": 0.0791,
      "velocity": 101,
      "chip": "ym2612"
    },
    {
      "channel": 1,
      "note": 74,
      "start": 109.7491,
      "duration": 0.0258,
      "velocity": 127,
      "chip": "ym2612"
    },
    {
      "channel": 2,
      "note": 87,
      "start": 109.7606,
      "duration": 0.0466,
      "velocity": 107,
      "chip": "ym2612"
    },
    {
      "channel": 1,
      "note": 87,
      "start": 109.8113,
      "duration": 0.026,
      "velocity": 107,
      "chip": "ym2612"
    },
    {
      "channel": 0,
      "note": 53,
      "start": 109.8292,
      "duration": 0.1796,
      "velocity": 101,
      "chip": "ym2612"
    },
    {
      "channel": 2,
      "note": 50,
      "start": 109.8341,
      "duration": 0.024,
      "velocity": 117,
      "chip": "ym2612"
    },
    {
      "channel": 1,
      "note": 89,
      "start": 109.8406,
      "duration": 0.0665,
      "velocity": 107,
      "chip": "ym2612"
    },
    {
      "channel": 1,
      "note": 87,
      "start": 109.9272,
      "duration": 0.0632,
      "velocity": 107,
      "chip": "ym2612"
    },
    {
      "channel": 0,
      "note": 84,
      "start": 110.0274,
      "duration": 0.0797,
      "velocity": 107,
      "chip": "ym2612"
    },
    {
      "channel": 1,
      "note": 53,
      "start": 110.0314,
      "duration": 0.1765,
      "velocity": 101,
      "chip": "ym2612"
    },
    {
      "channel": 2,
      "note": 74,
      "start": 110.0359,
      "duration": 0.0224,
      "velocity": 127,
      "chip": "ym2612"
    },
    {
      "channel": 0,
      "note": 80,
      "start": 110.1272,
      "duration": 0.0966,
      "velocity": 107,
      "chip": "ym2612"
    },
    {
      "channel": 0,
      "note": 53,
      "start": 110.228,
      "duration": 0.1791,
      "velocity": 101,
      "chip": "ym2612"
    },
    {
      "channel": 1,
      "note": 50,
      "start": 110.2328,
      "duration": 0.0242,
      "velocity": 117,
      "chip": "ym2612"
    },
    {
      "channel": 2,
      "note": 82,
      "start": 110.2368,
      "duration": 0.0704,
      "velocity": 107,
      "chip": "ym2612"
    },
    {
      "channel": 1,
      "note": 50,
      "start": 110.3288,
      "duration": 0.0282,
      "velocity": 117,
      "chip": "ym2612"
    },
    {
      "channel": 2,
      "note": 89,
      "start": 110.3328,
      "duration": 0.0922,
      "velocity": 107,
      "chip": "ym2612"
    },
    {
      "channel": 0,
      "note": 53,
      "start": 110.4123,
      "duration": 0.1798,
      "velocity": 101,
      "chip": "ym2612"
    },
    {
      "channel": 1,
      "note": 74,
      "start": 110.4167,
      "duration": 0.0237,
      "velocity": 127,
      "chip": "ym2612"
    },
    {
      "channel": 2,
      "note": 87,
      "start": 110.4292,
      "duration": 0.0792,
      "velocity": 107,
      "chip": "ym2612"
    },
    {
      "channel": 1,
      "note": 84,
      "start": 110.5124,
      "duration": 0.0791,
      "velocity": 107,
      "chip": "ym2612"
    },
    {
      "channel": 0,
      "note": 53,
      "start": 110.6118,
      "duration": 0.1799,
      "velocity": 101,
      "chip": "ym2612"
    },
    {
      "channel": 1,
      "note": 50,
      "start": 110.6166,
      "duration": 0.0237,
      "velocity": 117,
      "chip": "ym2612"
    },
    {
      "channel": 2,
      "note": 80,
      "start": 110.6207,
      "duration": 0.0711,
      "velocity": 107,
      "chip": "ym2612"
    },
    {
      "channel": 1,
      "note": 82,
      "start": 110.7106,
      "duration": 0.0819,
      "velocity": 107,
      "chip": "ym2612"
    },
    {
      "channel": 0,
      "note": 89,
      "start": 110.7975,
      "duration": 0.0931,
      "velocity": 107,
      "chip": "ym2612"
    },
    {
      "channel": 1,
      "note": 74,
      "start": 110.8108,
      "duration": 0.0296,
      "velocity": 127,
      "chip": "ym2612"
    },
    {
      "channel": 2,
      "note": 53,
      "start": 110.8148,
      "duration": 0.0767,
      "velocity": 101,
      "chip": "ym2612"
    },
    {
      "channel": 0,
      "note": 87,
      "start": 110.8969,
      "duration": 0.078,
      "velocity": 107,
      "chip": "ym2612"
    },
    {
      "channel": 1,
      "note": 50,
      "start": 110.9014,
      "duration": 0.0222,
      "velocity": 117,
      "chip": "ym2612"
    },
    {
      "channel": 2,
      "note": 58,
      "start": 110.9055,
      "duration": 0.1683,
      "velocity": 101,
      "chip": "ym2612"
    },
    {
      "channel": 0,
      "note": 84,
      "start": 110.9939,
      "duration": 0.0806,
      "velocity": 107,
      "chip": "ym2612"
    },
    {
      "channel": 0,
      "note": 80,
      "start": 111.094,
      "duration": 0.0964,
      "velocity": 107,
      "chip": "ym2612"
    },
    {
      "channel": 1,
      "note": 56,
      "start": 111.0982,
      "duration": 0.2776,
      "velocity": 101,
      "chip": "ym2612"
    },
    {
      "channel": 2,
      "note": 50,
      "start": 111.1026,
      "duration": 0.0211,
      "velocity": 117,
      "chip": "ym2612"
    },
    {
      "channel": 0,
      "note": 74,
      "start": 111.1947,
      "duration": 0.0289,
      "velocity": 127,
      "chip": "ym2612"
    },
    {
      "channel": 2,
      "note": 82,
      "start": 111.1988,
      "duration": 0.0751,
      "velocity": 107,
      "chip": "ym2612"
    },
    {
      "channel": 0,
      "note": 89,
      "start": 111.2779,
      "duration": 0.097,
      "velocity": 107,
      "chip": "ym2612"
    },
    {
      "channel": 0,
      "note": 87,
      "start": 111.3807,
      "duration": 0.0763,
      "velocity": 107,
      "chip": "ym2612"
    },
    {
      "channel": 1,
      "note": 53,
      "start": 111.394,
      "duration": 0.1799,
      "velocity": 101,
      "chip": "ym2612"
    },
    {
      "channel": 2,
      "note": 50,
      "start": 111.3987,
      "duration": 0.0273,
      "velocity": 117,
      "chip": "ym2612"
    },
    {
      "channel": 0,
      "note": 84,
      "start": 111.4772,
      "duration": 0.0976,
      "velocity": 107,
      "chip": "ym2612"
    },
    {
      "channel": 0,
      "note": 80,
      "start": 111.5802,
      "duration": 0.0937,
      "velocity": 107,
      "chip": "ym2612"
    },
    {
      "channel": 1,
      "note": 53,
      "start": 111.5843,
      "duration": 0.1744,
      "velocity": 101,
      "chip": "ym2612"
    },
    {
      "channel": 2,
      "note": 74,
      "start": 111.5885,
      "duration": 0.0198,
      "velocity": 127,
      "chip": "ym2612"
    },
    {
      "channel": 0,
      "note": 82,
      "start": 111.6778,
      "duration": 0.0803,
      "velocity": 107,
      "chip": "ym2612"
    },
    {
      "channel": 0,
      "note": 89,
      "start": 111.7774,
      "duration": 0.0964,
      "velocity": 107,
      "chip": "ym2612"
    },
    {
      "channel": 1,
      "note": 53,
      "start": 111.7814,
      "duration": 0.1773,
      "velocity": 101,
      "chip": "ym2612"
    },
    {
      "channel": 2,
      "note": 50,
      "start": 111.7861,
      "duration": 0.0209,
      "velocity": 117,
      "chip": "ym2612"
    },
    {
      "channel": 0,
      "note": 87,
      "start": 111.8779,
      "duration": 0.0802,
      "velocity": 107,
      "chip": "ym2612"
    },
    {
      "channel": 2,
      "note": 50,
      "start": 111.8823,
      "duration": 0.0247,
      "velocity": 117,
      "chip": "ym2612"
    },
    {
      "channel": 0,
      "note": 84,
      "start": 111.9785,
      "duration": 0.0787,
      "velocity": 107,
      "chip": "ym2612"
    },
    {
      "channel": 1,
      "note": 53,
      "start": 111.9826,
      "duration": 0.177,
      "velocity": 101,
      "chip": "ym2612"
    },
    {
      "channel": 2,
      "note": 74,
      "start": 111.987,
      "duration": 0.02,
      "velocity": 127,
      "chip": "ym2612"
    },
    {
      "channel": 0,
      "note": 80,
      "start": 112.0612,
      "duration": 0.0792,
      "velocity": 107,
      "chip": "ym2612"
    },
    {
      "channel": 0,
      "note": 82,
      "start": 112.1638,
      "duration": 0.0766,
      "velocity": 107,
      "chip": "ym2612"
    },
    {
      "channel": 1,
      "note": 50,
      "start": 112.1683,
      "duration": 0.022,
      "velocity": 117,
      "chip": "ym2612"
    },
    {
      "channel": 2,
      "note": 53,
      "start": 112.1723,
      "duration": 0.1694,
      "velocity": 101,
      "chip": "ym2612"
    },
    {
      "channel": 0,
      "note": 89,
      "start": 112.2618,
      "duration": 0.0807,
      "velocity": 107,
      "chip": "ym2612"
    },
    {
      "channel": 0,
      "note": 87,
      "start": 112.3607,
      "duration": 0.081,
      "velocity": 107,
      "chip": "ym2612"
    },
    {
      "channel": 1,
      "note": 53,
      "start": 112.3648,
      "duration": 0.0786,
      "velocity": 101,
      "chip": "ym2612"
    },
    {
      "channel": 2,
      "note": 74,
      "start": 112.3692,
      "duration": 0.0212,
      "velocity": 127,
      "chip": "ym2612"
    },
    {
      "channel": 0,
      "note": 84,
      "start": 112.4475,
      "duration": 0.0775,
      "velocity": 107,
      "chip": "ym2612"
    },
    {
      "channel": 1,
      "note": 59,
      "start": 112.4606,
      "duration": 0.1798,
      "velocity": 101,
      "chip": "ym2612"
    },
    {
      "channel": 2,
      "note": 50,
      "start": 112.465,
      "duration": 0.0253,
      "velocity": 117,
      "chip": "ym2612"
    },
    {
      "channel": 0,
      "note": 80,
      "start": 112.5439,
      "duration": 0.081,
      "velocity": 107,
      "chip": "ym2612"
    },
    {
      "channel": 0,
      "note": 82,
      "start": 112.6445,
      "duration": 0.0793,
      "velocity": 107,
      "chip": "ym2612"
    },
    {
      "channel": 1,
      "note": 58,
      "start": 112.6606,
      "duration": 0.2823,
      "velocity": 101,
      "chip": "ym2612"
    },
    {
      "channel": 2,
      "note": 50,
      "start": 112.6651,
      "duration": 0.0252,
      "velocity": 117,
      "chip": "ym2612"
    },
    {
      "channel": 0,
      "note": 89,
      "start": 112.7278,
      "duration": 0.096,
      "velocity": 107,
      "chip": "ym2612"
    },
    {
      "channel": 2,
      "note": 74,
      "start": 112.7607,
      "duration": 0.0297,
      "velocity": 127,
      "chip": "ym2612"
    },
    {
      "channel": 0,
      "note": 87,
      "start": 112.8279,
      "duration": 0.0792,
      "velocity": 107,
      "chip": "ym2612"
    },
    {
      "channel": 0,
      "note": 84,
      "start": 112.9272,
      "duration": 0.0282,
      "velocity": 107,
      "chip": "ym2612"
    },
    {
      "channel": 1,
      "note": 50,
      "start": 112.9472,
      "duration": 0.1766,
      "velocity": 101,
      "chip": "ym2612"
    },
    {
      "channel": 2,
      "note": 50,
      "start": 112.9521,
      "duration": 0.0216,
      "velocity": 117,
      "chip": "ym2612"
    },
    {
      "channel": 0,
      "note": 75,
      "start": 112.9587,
      "duration": 0.0658,
      "velocity": 107,
      "chip": "ym2612"
    },
    {
      "channel": 0,
      "note": 77,
      "start": 113.0439,
      "duration": 0.0807,
      "velocity": 107,
      "chip": "ym2612"
    },
    {
      "channel": 0,
      "note": 75,
      "start": 113.144,
      "duration": 0.0798,
      "velocity": 107,
      "chip": "ym2612"
    },
    {
      "channel": 1,
      "note": 50,
      "start": 113.1481,
      "duration": 0.1766,
      "velocity": 101,
      "chip": "ym2612"
    },
    {
      "channel": 2,
      "note": 74,
      "start": 113.1526,
      "duration": 0.0224,
      "velocity": 127,
      "chip": "ym2612"
    },
    {
      "channel": 0,
      "note": 74,
      "start": 113.2278,
      "duration": 0.0793,
      "velocity": 107,
      "chip": "ym2612"
    },
    {
      "channel": 0,
      "note": 75,
      "start": 113.3288,
      "duration": 0.045,
      "velocity": 107,
      "chip": "ym2612"
    },
    {
      "channel": 1,
      "note": 50,
      "start": 113.3439,
      "duration": 0.181,
      "velocity": 101,
      "chip": "ym2612"
    },
    {
      "channel": 2,
      "note": 50,
      "start": 113.3485,
      "duration": 0.0259,
      "velocity": 117,
      "chip": "ym2612"
    },
    {
      "channel": 0,
      "note": 77,
      "start": 113.3785,
      "duration": 0.0631,
      "velocity": 107,
      "chip": "ym2612"
    },
    {
      "channel": 2,
      "note": 50,
      "start": 113.4276,
      "duration": 0.0294,
      "velocity": 117,
      "chip": "ym2612"
    },
    {
      "channel": 0,
      "note": 78,
      "start": 113.4456,
      "duration": 0.0615,
      "velocity": 107,
      "chip": "ym2612"
    },
    {
      "channel": 0,
      "note": 80,
      "start": 113.5292,
      "duration": 0.0958,
      "velocity": 107,
      "chip": "ym2612"
    },
    {
      "channel": 1,
      "note": 74,
      "start": 113.5335,
      "duration": 0.0235,
      "velocity": 127,
      "chip": "ym2612"
    },
    {
      "channel": 2,
      "note": 50,
      "start": 113.5376,
      "duration": 0.1697,
      "velocity": 101,
      "chip": "ym2612"
    },
    {
      "channel": 0,
      "note": 78,
      "start": 113.629,
      "duration": 0.0789,
      "velocity": 107,
      "chip": "ym2612"
    },
    {
      "channel": 0,
      "note": 77,
      "start": 113.7286,
      "duration": 0.0798,
      "velocity": 107,
      "chip": "ym2612"
    },
    {
      "channel": 1,
      "note": 50,
      "start": 113.7331,
      "duration": 0.0239,
      "velocity": 117,
      "chip": "ym2612"
    },
    {
      "channel": 2,
      "note": 50,
      "start": 113.7372,
      "duration": 0.1712,
      "velocity": 101,
      "chip": "ym2612"
    },
    {
      "channel": 0,
      "note": 78,
      "start": 113.8124,
      "duration": 0.0781,
      "velocity": 107,
      "chip": "ym2612"
    },
    {
      "channel": 0,
      "note": 80,
      "start": 113.9134,
      "duration": 0.0438,
      "velocity": 107,
      "chip": "ym2612"
    },
    {
      "channel": 1,
      "note": 50,
      "start": 113.9272,
      "duration": 0.082,
      "velocity": 101,
      "chip": "ym2612"
    },
    {
      "channel": 2,
      "note": 74,
      "start": 113.9315,
      "duration": 0.0263,
      "velocity": 127,
      "chip": "ym2612"
    },
    {
      "channel": 0,
      "note": 82,
      "start": 113.9619,
      "duration": 0.0464,
      "velocity": 107,
      "chip": "ym2612"
    },
    {
      "channel": 0,
      "note": 60,
      "start": 114.0133,
      "duration": 0.1771,
      "velocity": 101,
      "chip": "ym2612"
    },
    {
      "channel": 1,
      "note": 50,
      "start": 114.0178,
      "duration": 0.0225,
      "velocity": 117,
      "chip": "ym2612"
    },
    {
      "channel": 2,
      "note": 84,
      "start": 114.0273,
      "duration": 0.0644,
      "velocity": 107,
      "chip": "ym2612"
    },
    {
      "channel": 1,
      "note": 86,
      "start": 114.0958,
      "duration": 0.0954,
      "velocity": 107,
      "chip": "ym2612"
    },
    {
      "channel": 0,
      "note": 84,
      "start": 114.1952,
      "duration": 0.0797,
      "velocity": 107,
      "chip": "ym2612"
    },
    {
      "channel": 1,
      "note": 57,
      "start": 114.2106,
      "duration": 0.2817,
      "velocity": 101,
      "chip": "ym2612"
    },
    {
      "channel": 2,
      "note": 50,
      "start": 114.2152,
      "duration": 0.0251,
      "velocity": 117,
      "chip": "ym2612"
    },
    {
      "channel": 0,
      "note": 82,
      "start": 114.2939,
      "duration": 0.0799,
      "velocity": 107,
      "chip": "ym2612"
    },
    {
      "channel": 2,
      "note": 74,
      "start": 114.3107,
      "duration": 0.0297,
      "velocity": 127,
      "chip": "ym2612"
    },
    {
      "channel": 0,
      "note": 80,
      "start": 114.3779,
      "duration": 0.0805,
      "velocity": 107,
      "chip": "ym2612"
    },
    {
      "channel": 2,
      "note": 50,
      "start": 114.411,
      "duration": 0.0294,
      "velocity": 117,
      "chip": "ym2612"
    },
    {
      "channel": 0,
      "note": 82,
      "start": 114.4772,
      "duration": 0.0466,
      "velocity": 107,
      "chip": "ym2612"
    },
    {
      "channel": 1,
      "note": 65,
      "start": 114.5106,
      "duration": 0.0835,
      "velocity": 101,
      "chip": "ym2612"
    },
    {
      "channel": 2,
      "note": 74,
      "start": 114.5174,
      "duration": 0.0254,
      "velocity": 127,
      "chip": "ym2612"
    },
    {
      "channel": 0,
      "note": 84,
      "start": 114.547,
      "duration": 0.0462,
      "velocity": 107,
      "chip": "ym2612"
    },
    {
      "channel": 0,
      "note": 66,
      "start": 114.5984,
      "duration": 0.0765,
      "velocity": 101,
      "chip": "ym2612"
    },
    {
      "channel": 1,
      "note": 74,
      "start": 114.6027,
      "duration": 0.0221,
      "velocity": 127,
      "chip": "ym2612"
    },
    {
      "channel": 2,
      "note": 86,
      "start": 114.6097,
      "duration": 0.0475,
      "velocity": 107,
      "chip": "ym2612"
    },
    {
      "channel": 0,
      "note": 87,
      "start": 114.6798,
      "duration": 0.0471,
      "velocity": 107,
      "chip": "ym2612"
    },
    {
      "channel": 1,
      "note": 67,
      "start": 114.694,
      "duration": 0.0816,
      "velocity": 101,
      "chip": "ym2612"
    },
    {
      "channel": 2,
      "note": 50,
      "start": 114.701,
      "duration": 0.0251,
      "velocity": 117,
      "chip": "ym2612"
    },
    {
      "channel": 0,
      "note": 89,
      "start": 114.7464,
      "duration": 0.0607,
      "velocity": 107,
      "chip": "ym2612"
    },
    {
      "channel": 1,
      "note": 60,
      "start": 114.794,
      "duration": 0.0816,
      "velocity": 101,
      "chip": "ym2612"
    },
    {
      "channel": 2,
      "note": 74,
      "start": 114.8008,
      "duration": 0.0241,
      "velocity": 127,
      "chip": "ym2612"
    },
    {
      "channel": 0,
      "note": 90,
      "start": 114.8301,
      "duration": 0.0618,
      "velocity": 107,
      "chip": "ym2612"
    },
    {
      "channel": 0,
      "note": 61,
      "start": 114.8961,
      "duration": 0.0777,
      "velocity": 101,
      "chip": "ym2612"
    },
    {
      "channel": 1,
      "note": 74,
      "start": 114.9031,
      "duration": 0.0216,
      "velocity": 127,
      "chip": "ym2612"
    },
    {
      "channel": 2,
      "note": 90,
      "start": 114.9074,
      "duration": 0.0688,
      "velocity": 107,
      "chip": "ym2612"
    },
    {
      "channel": 0,
      "note": 89,
      "start": 114.9816,
      "duration": 0.0922,
      "velocity": 107,
      "chip": "ym2612"
    },
    {
      "channel": 1,
      "note": 62,
      "start": 114.9858,
      "duration": 0.0723,
      "velocity": 101,
      "chip": "ym2612"
    },
    {
      "channel": 2,
      "note": 74,
      "start": 114.9929,
      "duration": 0.0154,
      "velocity": 127,
      "chip": "ym2612"
    },
    {
      "channel": 0,
      "note": 87,
      "start": 115.0781,
      "duration": 0.081,
      "velocity": 107,
      "chip": "ym2612"
    },
    {
      "channel": 1,
      "note": 55,
      "start": 115.0823,
      "duration": 0.0774,
      "velocity": 101,
      "chip": "ym2612"
    },
    {
      "channel": 2,
      "note": 50,
      "start": 115.0895,
      "duration": 0.0186,
      "velocity": 117,
      "chip": "ym2612"
    },
    {
      "channel": 0,
      "note": 91,
      "start": 115.1774,
      "duration": 0.0819,
      "velocity": 107,
      "chip": "ym2612"
    },
    {
      "channel": 1,
      "note": 50,
      "start": 115.182,
      "duration": 0.0261,
      "velocity": 117,
      "chip": "ym2612"
    },
    {
      "channel": 2,
      "note": 56,
      "start": 115.1861,
      "duration": 0.074,
      "velocity": 101,
      "chip": "ym2612"
    },
    {
      "channel": 0,
      "note": 91,
      "start": 115.2641,
      "duration": 0.0764,
      "velocity": 107,
      "chip": "ym2612"
    },
    {
      "channel": 1,
      "note": 74,
      "start": 115.2787,
      "duration": 0.0294,
      "velocity": 127,
      "chip": "ym2612"
    },
    {
      "channel": 2,
      "note": 57,
      "start": 115.2828,
      "duration": 0.0761,
      "velocity": 101,
      "chip": "ym2612"
    },
    {
      "channel": 0,
      "note": 91,
      "start": 115.3445,
      "duration": 0.0793,
      "velocity": 107,
      "chip": "ym2612"
    },
    {
      "channel": 1,
      "note": 53,
      "start": 115.3796,
      "duration": 0.0801,
      "velocity": 101,
      "chip": "ym2612"
    },
    {
      "channel": 2,
      "note": 50,
      "start": 115.3843,
      "duration": 0.0238,
      "velocity": 117,
      "chip": "ym2612"
    },
    {
      "channel": 0,
      "note": 91,
      "start": 115.4439,
      "duration": 0.0976,
      "velocity": 107,
      "chip": "ym2612"
    },
    {
      "channel": 1,
      "note": 73,
      "start": 115.4653,
      "duration": 0.0051,
      "velocity": 127,
      "chip": "ym2612"
    },
    {
      "channel": 2,
      "note": 54,
      "start": 115.4695,
      "duration": 0.0728,
      "velocity": 101,
      "chip": "ym2612"
    },
    {
      "channel": 1,
      "note": 74,
      "start": 115.4739,
      "duration": 0.0172,
      "velocity": 127,
      "chip": "ym2612"
    },
    {
      "channel": 0,
      "note": 91,
      "start": 115.562,
      "duration": 0.0817,
      "velocity": 107,
      "chip": "ym2612"
    },
    {
      "channel": 1,
      "note": 55,
      "start": 115.5661,
      "duration": 0.0784,
      "velocity": 101,
      "chip": "ym2612"
    },
    {
      "channel": 2,
      "note": 50,
      "start": 115.5706,
      "duration": 0.0209,
      "velocity": 117,
      "chip": "ym2612"
    },
    {
      "channel": 0,
      "note": 91,
      "start": 115.6485,
      "duration": 0.3754,
      "velocity": 107,
      "chip": "ym2612"
    },
    {
      "channel": 1,
      "note": 48,
      "start": 115.6606,
      "duration": 0.0828,
      "velocity": 101,
      "chip": "ym2612"
    },
    {
      "channel": 2,
      "note": 74,
      "start": 115.6674,
      "duration": 0.0244,
      "velocity": 127,
      "chip": "ym2612"
    },
    {
      "channel": 1,
      "note": 49,
      "start": 115.7606,
      "duration": 0.0807,
      "velocity": 101,
      "chip": "ym2612"
    },
    {
      "channel": 2,
      "note": 50,
      "start": 115.7654,
      "duration": 0.026,
      "velocity": 117,
      "chip": "ym2612"
    },
    {
      "channel": 1,
      "note": 74,
      "start": 115.8618,
      "duration": 0.0296,
      "velocity": 127,
      "chip": "ym2612"
    },
    {
      "channel": 2,
      "note": 50,
      "start": 115.866,
      "duration": 0.076,
      "velocity": 101,
      "chip": "ym2612"
    },
    {
      "channel": 1,
      "note": 51,
      "start": 115.9519,
      "duration": 0.0749,
      "velocity": 101,
      "chip": "ym2612"
    },
    {
      "channel": 2,
      "note": 74,
      "start": 115.9564,
      "duration": 0.0173,
      "velocity": 127,
      "chip": "ym2612"
    },
    {
      "channel": 0,
      "note": 50,
      "start": 116.0531,
      "duration": 0.2707,
      "velocity": 101,
      "chip": "ym2612"
    },
    {
      "channel": 1,
      "note": 50,
      "start": 116.0576,
      "duration": 0.2685,
      "velocity": 106,
      "chip": "ym2612"
    },
    {
      "channel": 2,
      "note": 75,
      "start": 116.0642,
      "duration": 0.0006,
      "velocity": 127,
      "chip": "ym2612"
    },
    {
      "channel": 2,
      "note": 50,
      "start": 116.2442,
      "duration": 0.0128,
      "velocity": 117,
      "chip": "ym2612"
    },
    {
      "channel": 2,
      "note": 50,
      "start": 116.2776,
      "duration": 0.014,
      "velocity": 117,
      "chip": "ym2612"
    },
    {
      "channel": 0,
      "note": 50,
      "start": 116.3304,
      "duration": 1.2447,
      "velocity": 106,
      "chip": "ym2612"
    },
    {
      "channel": 1,
      "note": 50,
      "start": 116.3368,
      "duration": 1.2391,
      "velocity": 101,
      "chip": "ym2612"
    },
    {
      "channel": 2,
      "note": 75,
      "start": 116.3412,
      "duration": 0.0006,
      "velocity": 127,
      "chip": "ym2612"
    },
    {
      "channel": 2,
      "note": 74,
      "start": 116.394,
      "duration": 0.013,
      "velocity": 127,
      "chip": "ym2612"
    },
    {
      "channel": 2,
      "note": 74,
      "start": 116.4606,
      "duration": 0.0143,
      "velocity": 127,
      "chip": "ym2612"
    },
    {
      "channel": 2,
      "note": 50,
      "start": 116.5276,
      "duration": 0.0128,
      "velocity": 117,
      "chip": "ym2612"
    },
    {
      "channel": 2,
      "note": 50,
      "start": 116.5776,
      "duration": 0.0128,
      "velocity": 117,
      "chip": "ym2612"
    },
    {
      "channel": 2,
      "note": 74,
      "start": 116.6274,
      "duration": 0.013,
      "velocity": 127,
      "chip": "ym2612"
    },
    {
      "channel": 2,
      "note": 74,
      "start": 116.694,
      "duration": 0.013,
      "velocity": 127,
      "chip": "ym2612"
    },
    {
      "channel": 2,
      "note": 74,
      "start": 116.7607,
      "duration": 0.013,
      "velocity": 127,
      "chip": "ym2612"
    },
    {
      "channel": 2,
      "note": 50,
      "start": 116.8276,
      "duration": 0.014,
      "velocity": 117,
      "chip": "ym2612"
    },
    {
      "channel": 2,
      "note": 50,
      "start": 116.8776,
      "duration": 0.0128,
      "velocity": 117,
      "chip": "ym2612"
    },
    {
      "channel": 2,
      "note": 74,
      "start": 116.9107,
      "duration": 0.0142,
      "velocity": 127,
      "chip": "ym2612"
    },
    {
      "channel": 2,
      "note": 74,
      "start": 116.9774,
      "duration": 0.013,
      "velocity": 127,
      "chip": "ym2612"
    },
    {
      "channel": 2,
      "note": 74,
      "start": 117.044,
      "duration": 0.013,
      "velocity": 127,
      "chip": "ym2612"
    },
    {
      "channel": 2,
      "note": 50,
      "start": 117.112,
      "duration": 0.0116,
      "velocity": 117,
      "chip": "ym2612"
    },
    {
      "channel": 2,
      "note": 50,
      "start": 117.1609,
      "duration": 0.0128,
      "velocity": 117,
      "chip": "ym2612"
    },
    {
      "channel": 2,
      "note": 75,
      "start": 117.2119,
      "duration": 0.0118,
      "velocity": 127,
      "chip": "ym2612"
    },
    {
      "channel": 2,
      "note": 75,
      "start": 117.3107,
      "duration": 0.013,
      "velocity": 127,
      "chip": "ym2612"
    },
    {
      "channel": 2,
      "note": 75,
      "start": 117.4107,
      "duration": 0.013,
      "velocity": 127,
      "chip": "ym2612"
    },
    {
      "channel": 2,
      "note": 75,
      "start": 117.5107,
      "duration": 0.013,
      "velocity": 127,
      "chip": "ym2612"
    },
    {
      "channel": 0,
      "note": 50,
      "start": 117.5939,
      "duration": 0.2798,
      "velocity": 101,
      "chip": "ym2612"
    },
    {
      "channel": 1,
      "note": 50,
      "start": 117.5982,
      "duration": 0.2773,
      "velocity": 106,
      "chip": "ym2612"
    },
    {
      "channel": 2,
      "note": 74,
      "start": 117.6047,
      "duration": 0.0023,
      "velocity": 127,
      "chip": "ym2612"
    },
    {
      "channel": 2,
      "note": 74,
      "start": 117.6619,
      "duration": 0.0118,
      "velocity": 127,
      "chip": "ym2612"
    },
    {
      "channel": 2,
      "note": 74,
      "start": 117.7274,
      "duration": 0.013,
      "velocity": 127,
      "chip": "ym2612"
    },
    {
      "channel": 2,
      "note": 50,
      "start": 117.7942,
      "duration": 0.0128,
      "velocity": 117,
      "chip": "ym2612"
    },
    {
      "channel": 2,
      "note": 50,
      "start": 117.8454,
      "duration": 0.0116,
      "velocity": 117,
      "chip": "ym2612"
    },
    {
      "channel": 0,
      "note": 74,
      "start": 117.8941,
      "duration": 0.0128,
      "velocity": 127,
      "chip": "ym2612"
    },
    {
      "channel": 1,
      "note": 50,
      "start": 117.9007,
      "duration": 1.2406,
      "velocity": 106,
      "chip": "ym2612"
    },
    {
      "channel": 2,
      "note": 50,
      "start": 117.9047,
      "duration": 1.2358,
      "velocity": 101,
      "chip": "ym2612"
    },
    {
      "channel": 0,
      "note": 74,
      "start": 117.9607,
      "duration": 0.0129,
      "velocity": 127,
      "chip": "ym2612"
    },
    {
      "channel": 0,
      "note": 74,
      "start": 118.0286,
      "duration": 0.0117,
      "velocity": 127,
      "chip": "ym2612"
    },
    {
      "channel": 0,
      "note": 50,
      "start": 118.0942,
      "duration": 0.0127,
      "velocity": 117,
      "chip": "ym2612"
    },
    {
      "channel": 0,
      "note": 50,
      "start": 118.1288,
      "duration": 0.0115,
      "velocity": 117,
      "chip": "ym2612"
    },
    {
      "channel": 0,
      "note": 74,
      "start": 118.1773,
      "duration": 0.013,
      "velocity": 127,
      "chip": "ym2612"
    },
    {
      "channel": 0,
      "note": 74,
      "start": 118.244,
      "duration": 0.013,
      "velocity": 127,
      "chip": "ym2612"
    },
    {
      "channel": 0,
      "note": 74,
      "start": 118.3119,
      "duration": 0.0117,
      "velocity": 127,
      "chip": "ym2612"
    },
    {
      "channel": 0,
      "note": 50,
      "start": 118.3776,
      "duration": 0.0139,
      "velocity": 117,
      "chip": "ym2612"
    },
    {
      "channel": 0,
      "note": 50,
      "start": 118.4276,
      "duration": 0.0127,
      "velocity": 117,
      "chip": "ym2612"
    },
    {
      "channel": 0,
      "note": 74,
      "start": 118.4773,
      "duration": 0.0142,
      "velocity": 127,
      "chip": "ym2612"
    },
    {
      "channel": 0,
      "note": 74,
      "start": 118.544,
      "duration": 0.013,
      "velocity": 127,
      "chip": "ym2612"
    },
    {
      "channel": 0,
      "note": 74,
      "start": 118.6106,
      "duration": 0.013,
      "velocity": 127,
      "chip": "ym2612"
    },
    {
      "channel": 0,
      "note": 50,
      "start": 118.6788,
      "duration": 0.0115,
      "velocity": 117,
      "chip": "ym2612"
    },
    {
      "channel": 0,
      "note": 50,
      "start": 118.7276,
      "duration": 0.0127,
      "velocity": 117,
      "chip": "ym2612"
    },
    {
      "channel": 0,
      "note": 75,
      "start": 118.7619,
      "duration": 0.0117,
      "velocity": 127,
      "chip": "ym2612"
    },
    {
      "channel": 0,
      "note": 59,
      "start": 118.8276,
      "duration": 0.0127,
      "velocity": 117,
      "chip": "ym2612"
    },
    {
      "channel": 0,
      "note": 56,
      "start": 118.8942,
      "duration": 0.0127,
      "velocity": 117,
      "chip": "ym2612"
    },
    {
      "channel": 0,
      "note": 52,
      "start": 118.9609,
      "duration": 0.0127,
      "velocity": 117,
      "chip": "ym2612"
    },
    {
      "channel": 0,
      "note": 50,
      "start": 119.0276,
      "duration": 0.0139,
      "velocity": 117,
      "chip": "ym2612"
    },
    {
      "channel": 0,
      "note": 74,
      "start": 119.094,
      "duration": 0.0129,
      "velocity": 127,
      "chip": "ym2612"
    },
    {
      "channel": 0,
      "note": 50,
      "start": 119.1606,
      "duration": 0.2799,
      "velocity": 101,
      "chip": "ym2612"
    },
    {
      "channel": 1,
      "note": 50,
      "start": 119.1648,
      "duration": 0.2778,
      "velocity": 106,
      "chip": "ym2612"
    },
    {
      "channel": 2,
      "note": 50,
      "start": 119.1693,
      "duration": 0.0043,
      "velocity": 117,
      "chip": "ym2612"
    },
    {
      "channel": 2,
      "note": 61,
      "start": 119.2288,
      "duration": 0.0115,
      "velocity": 117,
      "chip": "ym2612"
    },
    {
      "channel": 2,
      "note": 58,
      "start": 119.2942,
      "duration": 0.0139,
      "velocity": 117,
      "chip": "ym2612"
    },
    {
      "channel": 2,
      "note": 52,
      "start": 119.3609,
      "duration": 0.0128,
      "velocity": 117,
      "chip": "ym2612"
    },
    {
      "channel": 2,
      "note": 52,
      "start": 119.4122,
      "duration": 0.0115,
      "velocity": 117,
      "chip": "ym2612"
    },
    {
      "channel": 0,
      "note": 50,
      "start": 119.4467,
      "duration": 1.2449,
      "velocity": 101,
      "chip": "ym2612"
    },
    {
      "channel": 1,
      "note": 50,
      "start": 119.4509,
      "duration": 1.2424,
      "velocity": 106,
      "chip": "ym2612"
    },
    {
      "channel": 2,
      "note": 52,
      "start": 119.4776,
      "duration": 0.014,
      "velocity": 117,
      "chip": "ym2612"
    },
    {
      "channel": 2,
      "note": 64,
      "start": 119.5442,
      "duration": 0.0128,
      "velocity": 117,
      "chip": "ym2612"
    },
    {
      "channel": 2,
      "note": 61,
      "start": 119.6109,
      "duration": 0.0128,
      "velocity": 117,
      "chip": "ym2612"
    },
    {
      "channel": 2,
      "note": 58,
      "start": 119.6788,
      "duration": 0.0116,
      "velocity": 117,
      "chip": "ym2612"
    },
    {
      "channel": 2,
      "note": 52,
      "start": 119.7442,
      "duration": 0.0128,
      "velocity": 117,
      "chip": "ym2612"
    },
    {
      "channel": 2,
      "note": 52,
      "start": 119.8109,
      "duration": 0.0128,
      "velocity": 117,
      "chip": "ym2612"
    },
    {
      "channel": 2,
      "note": 52,
      "start": 119.8776,
      "duration": 0.0128,
      "velocity": 117,
      "chip": "ym2612"
    },
    {
      "channel": 2,
      "note": 64,
      "start": 119.9442,
      "duration": 0.014,
      "velocity": 117,
      "chip": "ym2612"
    },
    {
      "channel": 2,
      "note": 61,
      "start": 120.0109,
      "duration": 0.0128,
      "velocity": 117,
      "chip": "ym2612"
    },
    {
      "channel": 2,
      "note": 58,
      "start": 120.0609,
      "duration": 0.0128,
      "velocity": 117,
      "chip": "ym2612"
    },
    {
      "channel": 2,
      "note": 52,
      "start": 120.1276,
      "duration": 0.0139,
      "velocity": 117,
      "chip": "ym2612"
    },
    {
      "channel": 2,
      "note": 52,
      "start": 120.1942,
      "duration": 0.0128,
      "velocity": 117,
      "chip": "ym2612"
    },
    {
      "channel": 2,
      "note": 52,
      "start": 120.2609,
      "duration": 0.0128,
      "velocity": 117,
      "chip": "ym2612"
    },
    {
      "channel": 2,
      "note": 74,
      "start": 120.3286,
      "duration": 0.0118,
      "velocity": 127,
      "chip": "ym2612"
    },
    {
      "channel": 2,
      "note": 74,
      "start": 120.394,
      "duration": 0.0142,
      "velocity": 127,
      "chip": "ym2612"
    },
    {
      "channel": 2,
      "note": 74,
      "start": 120.4607,
      "duration": 0.013,
      "velocity": 127,
      "chip": "ym2612"
    },
    {
      "channel": 2,
      "note": 64,
      "start": 120.5276,
      "duration": 0.0128,
      "velocity": 117,
      "chip": "ym2612"
    },
    {
      "channel": 2,
      "note": 61,
      "start": 120.5954,
      "duration": 0.0116,
      "velocity": 117,
      "chip": "ym2612"
    },
    {
      "channel": 2,
      "note": 58,
      "start": 120.6609,
      "duration": 0.0128,
      "velocity": 117,
      "chip": "ym2612"
    },
    {
      "channel": 0,
      "note": 50,
      "start": 120.7106,
      "duration": 0.2799,
      "velocity": 101,
      "chip": "ym2612"
    },
    {
      "channel": 1,
      "note": 52,
      "start": 120.7174,
      "duration": 0.0062,
      "velocity": 117,
      "chip": "ym2612"
    },
    {
      "channel": 2,
      "note": 50,
      "start": 120.7216,
      "duration": 0.2704,
      "velocity": 106,
      "chip": "ym2612"
    },
    {
      "channel": 1,
      "note": 52,
      "start": 120.7787,
      "duration": 0.0116,
      "velocity": 117,
      "chip": "ym2612"
    },
    {
      "channel": 1,
      "note": 52,
      "start": 120.8442,
      "duration": 0.0127,
      "velocity": 117,
      "chip": "ym2612"
    },
    {
      "channel": 1,
      "note": 64,
      "start": 120.9109,
      "duration": 0.0127,
      "velocity": 117,
      "chip": "ym2612"
    },
    {
      "channel": 1,
      "note": 61,
      "start": 120.9776,
      "duration": 0.0136,
      "velocity": 117,
      "chip": "ym2612"
    },
    {
      "channel": 0,
      "note": 50,
      "start": 121.0107,
      "duration": 1.2465,
      "velocity": 106,
      "chip": "ym2612"
    },
    {
      "channel": 1,
      "note": 50,
      "start": 121.017,
      "duration": 1.2409,
      "velocity": 101,
      "chip": "ym2612"
    },
    {
      "channel": 2,
      "note": 58,
      "start": 121.0442,
      "duration": 0.014,
      "velocity": 117,
      "chip": "ym2612"
    },
    {
      "channel": 2,
      "note": 52,
      "start": 121.1109,
      "duration": 0.0128,
      "velocity": 117,
      "chip": "ym2612"
    },
    {
      "channel": 2,
      "note": 52,
      "start": 121.1776,
      "duration": 0.0128,
      "velocity": 117,
      "chip": "ym2612"
    },
    {
      "channel": 2,
      "note": 52,
      "start": 121.2454,
      "duration": 0.0116,
      "velocity": 117,
      "chip": "ym2612"
    },
    {
      "channel": 2,
      "note": 74,
      "start": 121.3107,
      "duration": 0.0142,
      "velocity": 127,
      "chip": "ym2612"
    },
    {
      "channel": 2,
      "note": 74,
      "start": 121.3607,
      "duration": 0.013,
      "velocity": 127,
      "chip": "ym2612"
    },
    {
      "channel": 2,
      "note": 74,
      "start": 121.4286,
      "duration": 0.0118,
      "velocity": 127,
      "chip": "ym2612"
    },
    {
      "channel": 2,
      "note": 64,
      "start": 121.4942,
      "duration": 0.0139,
      "velocity": 117,
      "chip": "ym2612"
    },
    {
      "channel": 2,
      "note": 61,
      "start": 121.5609,
      "duration": 0.0128,
      "velocity": 117,
      "chip": "ym2612"
    },
    {
      "channel": 2,
      "note": 58,
      "start": 121.6276,
      "duration": 0.0128,
      "velocity": 117,
      "chip": "ym2612"
    },
    {
      "channel": 2,
      "note": 52,
      "start": 121.6955,
      "duration": 0.0115,
      "velocity": 117,
      "chip": "ym2612"
    },
    {
      "channel": 2,
      "note": 52,
      "start": 121.7609,
      "duration": 0.0128,
      "velocity": 117,
      "chip": "ym2612"
    },
    {
      "channel": 2,
      "note": 52,
      "start": 121.8276,
      "duration": 0.0128,
      "velocity": 117,
      "chip": "ym2612"
    },
    {
      "channel": 2,
      "note": 74,
      "start": 121.894,
      "duration": 0.013,
      "velocity": 127,
      "chip": "ym2612"
    },
    {
      "channel": 2,
      "note": 74,
      "start": 121.9606,
      "duration": 0.0143,
      "velocity": 127,
      "chip": "ym2612"
    },
    {
      "channel": 2,
      "note": 74,
      "start": 122.0107,
      "duration": 0.013,
      "velocity": 127,
      "chip": "ym2612"
    },
    {
      "channel": 2,
      "note": 64,
      "start": 122.0776,
      "duration": 0.0127,
      "velocity": 117,
      "chip": "ym2612"
    },
    {
      "channel": 2,
      "note": 61,
      "start": 122.1442,
      "duration": 0.014,
      "velocity": 117,
      "chip": "ym2612"
    },
    {
      "channel": 2,
      "note": 58,
      "start": 122.2109,
      "duration": 0.0128,
      "velocity": 117,
      "chip": "ym2612"
    },
    {
      "channel": 0,
      "note": 52,
      "start": 122.2776,
      "duration": 0.0126,
      "velocity": 117,
      "chip": "ym2612"
    },
    {
      "channel": 1,
      "note": 62,
      "start": 122.2819,
      "duration": 0.2777,
      "velocity": 106,
      "chip": "ym2612"
    },
    {
      "channel": 2,
      "note": 62,
      "start": 122.2883,
      "duration": 0.269,
      "velocity": 101,
      "chip": "ym2612"
    },
    {
      "channel": 0,
      "note": 52,
      "start": 122.3455,
      "duration": 0.0114,
      "velocity": 117,
      "chip": "ym2612"
    },
    {
      "channel": 0,
      "note": 52,
      "start": 122.4109,
      "duration": 0.0139,
      "velocity": 117,
      "chip": "ym2612"
    },
    {
      "channel": 0,
      "note": 64,
      "start": 122.4776,
      "duration": 0.0127,
      "velocity": 117,
      "chip": "ym2612"
    },
    {
      "channel": 0,
      "note": 61,
      "start": 122.5442,
      "duration": 0.0136,
      "velocity": 117,
      "chip": "ym2612"
    },
    {
      "channel": 0,
      "note": 62,
      "start": 122.5774,
      "duration": 1.2465,
      "velocity": 106,
      "chip": "ym2612"
    },
    {
      "channel": 1,
      "note": 62,
      "start": 122.5837,
      "duration": 1.2409,
      "velocity": 101,
      "chip": "ym2612"
    },
    {
      "channel": 2,
      "note": 58,
      "start": 122.6121,
      "duration": 0.0116,
      "velocity": 117,
      "chip": "ym2612"
    },
    {
      "channel": 2,
      "note": 52,
      "start": 122.6609,
      "duration": 0.0128,
      "velocity": 117,
      "chip": "ym2612"
    },
    {
      "channel": 2,
      "note": 52,
      "start": 122.7276,
      "duration": 0.0128,
      "velocity": 117,
      "chip": "ym2612"
    },
    {
      "channel": 2,
      "note": 52,
      "start": 122.7954,
      "duration": 0.0116,
      "velocity": 117,
      "chip": "ym2612"
    },
    {
      "channel": 2,
      "note": 74,
      "start": 122.8607,
      "duration": 0.013,
      "velocity": 127,
      "chip": "ym2612"
    },
    {
      "channel": 2,
      "note": 74,
      "start": 122.9274,
      "duration": 0.013,
      "velocity": 127,
      "chip": "ym2612"
    },
    {
      "channel": 2,
      "note": 74,
      "start": 122.994,
      "duration": 0.013,
      "velocity": 127,
      "chip": "ym2612"
    },
    {
      "channel": 2,
      "note": 64,
      "start": 123.061,
      "duration": 0.0139,
      "velocity": 117,
      "chip": "ym2612"
    },
    {
      "channel": 2,
      "note": 61,
      "start": 123.1276,
      "duration": 0.0127,
      "velocity": 117,
      "chip": "ym2612"
    },
    {
      "channel": 2,
      "note": 58,
      "start": 123.1942,
      "duration": 0.0128,
      "velocity": 117,
      "chip": "ym2612"
    },
    {
      "channel": 2,
      "note": 52,
      "start": 123.2622,
      "duration": 0.0115,
      "velocity": 117,
      "chip": "ym2612"
    },
    {
      "channel": 2,
      "note": 52,
      "start": 123.3109,
      "duration": 0.0128,
      "velocity": 117,
      "chip": "ym2612"
    },
    {
      "channel": 2,
      "note": 52,
      "start": 123.3776,
      "duration": 0.0128,
      "velocity": 117,
      "chip": "ym2612"
    },
    {
      "channel": 2,
      "note": 75,
      "start": 123.4452,
      "duration": 0.0118,
      "velocity": 127,
      "chip": "ym2612"
    },
    {
      "channel": 2,
      "note": 75,
      "start": 123.544,
      "duration": 0.013,
      "velocity": 127,
      "chip": "ym2612"
    },
    {
      "channel": 2,
      "note": 52,
      "start": 123.6442,
      "duration": 0.0128,
      "velocity": 117,
      "chip": "ym2612"
    },
    {
      "channel": 2,
      "note": 52,
      "start": 123.7442,
      "duration": 0.0128,
      "velocity": 117,
      "chip": "ym2612"
    },
    {
      "channel": 0,
      "note": 62,
      "start": 123.844,
      "duration": 0.2799,
      "velocity": 106,
      "chip": "ym2612"
    },
    {
      "channel": 1,
      "note": 62,
      "start": 123.8505,
      "duration": 0.2744,
      "velocity": 101,
      "chip": "ym2612"
    },
    {
      "channel": 2,
      "note": 75,
      "start": 123.8547,
      "duration": 0.0023,
      "velocity": 127,
      "chip": "ym2612"
    },
    {
      "channel": 2,
      "note": 74,
      "start": 123.9107,
      "duration": 0.013,
      "velocity": 127,
      "chip": "ym2612"
    },
    {
      "channel": 2,
      "note": 74,
      "start": 123.9607,
      "duration": 0.013,
      "velocity": 127,
      "chip": "ym2612"
    },
    {
      "channel": 2,
      "note": 74,
      "start": 124.0274,
      "duration": 0.013,
      "velocity": 127,
      "chip": "ym2612"
    },
    {
      "channel": 2,
      "note": 75,
      "start": 124.094,
      "duration": 0.013,
      "velocity": 127,
      "chip": "ym2612"
    },
    {
      "channel": 0,
      "note": 62,
      "start": 124.1302,
      "duration": 1.2437,
      "velocity": 106,
      "chip": "ym2612"
    },
    {
      "channel": 1,
      "note": 62,
      "start": 124.1365,
      "duration": 1.238,
      "velocity": 101,
      "chip": "ym2612"
    },
    {
      "channel": 2,
      "note": 74,
      "start": 124.1607,
      "duration": 0.0142,
      "velocity": 127,
      "chip": "ym2612"
    },
    {
      "channel": 2,
      "note": 74,
      "start": 124.2274,
      "duration": 0.013,
      "velocity": 127,
      "chip": "ym2612"
    },
    {
      "channel": 2,
      "note": 74,
      "start": 124.294,
      "duration": 0.013,
      "velocity": 127,
      "chip": "ym2612"
    },
    {
      "channel": 2,
      "note": 75,
      "start": 124.3619,
      "duration": 0.0118,
      "velocity": 127,
      "chip": "ym2612"
    },
    {
      "channel": 2,
      "note": 74,
      "start": 124.4274,
      "duration": 0.0141,
      "velocity": 127,
      "chip": "ym2612"
    },
    {
      "channel": 2,
      "note": 74,
      "start": 124.494,
      "duration": 0.013,
      "velocity": 127,
      "chip": "ym2612"
    },
    {
      "channel": 2,
      "note": 74,
      "start": 124.5607,
      "duration": 0.013,
      "velocity": 127,
      "chip": "ym2612"
    },
    {
      "channel": 2,
      "note": 75,
      "start": 124.6107,
      "duration": 0.0142,
      "velocity": 127,
      "chip": "ym2612"
    },
    {
      "channel": 2,
      "note": 74,
      "start": 124.6774,
      "duration": 0.013,
      "velocity": 127,
      "chip": "ym2612"
    },
    {
      "channel": 2,
      "note": 74,
      "start": 124.744,
      "duration": 0.013,
      "velocity": 127,
      "chip": "ym2612"
    },
    {
      "channel": 2,
      "note": 74,
      "start": 124.8119,
      "duration": 0.0118,
      "velocity": 127,
      "chip": "ym2612"
    },
    {
      "channel": 2,
      "note": 75,
      "start": 124.8774,
      "duration": 0.013,
      "velocity": 127,
      "chip": "ym2612"
    },
    {
      "channel": 2,
      "note": 74,
      "start": 124.944,
      "duration": 0.013,
      "velocity": 127,
      "chip": "ym2612"
    },
    {
      "channel": 2,
      "note": 75,
      "start": 125.0107,
      "duration": 0.013,
      "velocity": 127,
      "chip": "ym2612"
    },
    {
      "channel": 2,
      "note": 75,
      "start": 125.1107,
      "duration": 0.013,
      "velocity": 127,
      "chip": "ym2612"
    },
    {
      "channel": 2,
      "note": 75,
      "start": 125.2107,
      "duration": 0.013,
      "velocity": 127,
      "chip": "ym2612"
    },
    {
      "channel": 2,
      "note": 75,
      "start": 125.294,
      "duration": 0.013,
      "velocity": 127,
      "chip": "ym2612"
    },
    {
      "channel": 0,
      "note": 62,
      "start": 125.3939,
      "duration": 0.2799,
      "velocity": 101,
      "chip": "ym2612"
    },
    {
      "channel": 1,
      "note": 75,
      "start": 125.4006,
      "duration": 0.0063,
      "velocity": 127,
      "chip": "ym2612"
    },
    {
      "channel": 2,
      "note": 62,
      "start": 125.4047,
      "duration": 0.2707,
      "velocity": 106,
      "chip": "ym2612"
    },
    {
      "channel": 1,
      "note": 74,
      "start": 125.4619,
      "duration": 0.0118,
      "velocity": 127,
      "chip": "ym2612"
    },
    {
      "channel": 1,
      "note": 74,
      "start": 125.5274,
      "duration": 0.0142,
      "velocity": 127,
      "chip": "ym2612"
    },
    {
      "channel": 1,
      "note": 74,
      "start": 125.594,
      "duration": 0.013,
      "velocity": 127,
      "chip": "ym2612"
    },
    {
      "channel": 1,
      "note": 74,
      "start": 125.6607,
      "duration": 0.0138,
      "velocity": 127,
      "chip": "ym2612"
    },
    {
      "channel": 0,
      "note": 62,
      "start": 125.6963,
      "duration": 1.2459,
      "velocity": 101,
      "chip": "ym2612"
    },
    {
      "channel": 1,
      "note": 62,
      "start": 125.7004,
      "duration": 1.2412,
      "velocity": 106,
      "chip": "ym2612"
    },
    {
      "channel": 2,
      "note": 75,
      "start": 125.7286,
      "duration": 0.0118,
      "velocity": 127,
      "chip": "ym2612"
    },
    {
      "channel": 2,
      "note": 75,
      "start": 125.794,
      "duration": 0.013,
      "velocity": 127,
      "chip": "ym2612"
    },
    {
      "channel": 2,
      "note": 74,
      "start": 125.8607,
      "duration": 0.013,
      "velocity": 127,
      "chip": "ym2612"
    },
    {
      "channel": 2,
      "note": 75,
      "start": 125.9118,
      "duration": 0.0118,
      "velocity": 127,
      "chip": "ym2612"
    },
    {
      "channel": 2,
      "note": 74,
      "start": 125.9774,
      "duration": 0.013,
      "velocity": 127,
      "chip": "ym2612"
    },
    {
      "channel": 2,
      "note": 74,
      "start": 126.044,
      "duration": 0.013,
      "velocity": 127,
      "chip": "ym2612"
    },
    {
      "channel": 2,
      "note": 75,
      "start": 126.1107,
      "duration": 0.013,
      "velocity": 127,
      "chip": "ym2612"
    },
    {
      "channel": 2,
      "note": 74,
      "start": 126.1774,
      "duration": 0.0142,
      "velocity": 127,
      "chip": "ym2612"
    },
    {
      "channel": 2,
      "note": 74,
      "start": 126.244,
      "duration": 0.013,
      "velocity": 127,
      "chip": "ym2612"
    },
    {
      "channel": 2,
      "note": 74,
      "start": 126.3107,
      "duration": 0.013,
      "velocity": 127,
      "chip": "ym2612"
    },
    {
      "channel": 2,
      "note": 74,
      "start": 126.3786,
      "duration": 0.0118,
      "velocity": 127,
      "chip": "ym2612"
    },
    {
      "channel": 2,
      "note": 74,
      "start": 126.444,
      "duration": 0.0142,
      "velocity": 127,
      "chip": "ym2612"
    },
    {
      "channel": 2,
      "note": 74,
      "start": 126.5107,
      "duration": 0.013,
      "velocity": 127,
      "chip": "ym2612"
    },
    {
      "channel": 2,
      "note": 75,
      "start": 126.5619,
      "duration": 0.0118,
      "velocity": 127,
      "chip": "ym2612"
    },
    {
      "channel": 2,
      "note": 75,
      "start": 126.6274,
      "duration": 0.0141,
      "velocity": 127,
      "chip": "ym2612"
    },
    {
      "channel": 2,
      "note": 75,
      "start": 126.694,
      "duration": 0.013,
      "velocity": 127,
      "chip": "ym2612"
    },
    {
      "channel": 2,
      "note": 75,
      "start": 126.7607,
      "duration": 0.013,
      "velocity": 127,
      "chip": "ym2612"
    },
    {
      "channel": 2,
      "note": 75,
      "start": 126.8286,
      "duration": 0.0118,
      "velocity": 127,
      "chip": "ym2612"
    },
    {
      "channel": 2,
      "note": 75,
      "start": 126.894,
      "duration": 0.013,
      "velocity": 127,
      "chip": "ym2612"
    },
    {
      "channel": 0,
      "note": 77,
      "start": 126.9607,
      "duration": 0.0798,
      "velocity": 106,
      "chip": "ym2612"
    },
    {
      "channel": 1,
      "note": 65,
      "start": 126.9648,
      "duration": 0.0764,
      "velocity": 101,
      "chip": "ym2612"
    },
    {
      "channel": 2,
      "note": 74,
      "start": 126.9689,
      "duration": 0.0048,
      "velocity": 127,
      "chip": "ym2612"
    },
    {
      "channel": 0,
      "note": 74,
      "start": 127.0607,
      "duration": 0.0798,
      "velocity": 106,
      "chip": "ym2612"
    },
    {
      "channel": 1,
      "note": 73,
      "start": 127.0649,
      "duration": 0.0087,
      "velocity": 127,
      "chip": "ym2612"
    },
    {
      "channel": 2,
      "note": 62,
      "start": 127.0689,
      "duration": 0.0723,
      "velocity": 101,
      "chip": "ym2612"
    },
    {
      "channel": 0,
      "note": 69,
      "start": 127.1607,
      "duration": 0.0129,
      "velocity": 127,
      "chip": "ym2612"
    },
    {
      "channel": 1,
      "note": 72,
      "start": 127.1649,
      "duration": 0.0767,
      "velocity": 106,
      "chip": "ym2612"
    },
    {
      "channel": 2,
      "note": 60,
      "start": 127.1689,
      "duration": 0.0716,
      "velocity": 101,
      "chip": "ym2612"
    },
    {
      "channel": 0,
      "note": 66,
      "start": 127.2458,
      "duration": 0.0111,
      "velocity": 127,
      "chip": "ym2612"
    },
    {
      "channel": 1,
      "note": 57,
      "start": 127.2499,
      "duration": 0.0747,
      "velocity": 101,
      "chip": "ym2612"
    },
    {
      "channel": 2,
      "note": 69,
      "start": 127.2541,
      "duration": 0.0698,
      "velocity": 106,
      "chip": "ym2612"
    },
    {
      "channel": 0,
      "note": 62,
      "start": 127.3439,
      "duration": 0.0798,
      "velocity": 101,
      "chip": "ym2612"
    },
    {
      "channel": 1,
      "note": 74,
      "start": 127.3481,
      "duration": 0.0088,
      "velocity": 127,
      "chip": "ym2612"
    },
    {
      "channel": 2,
      "note": 74,
      "start": 127.3522,
      "duration": 0.0723,
      "velocity": 106,
      "chip": "ym2612"
    },
    {
      "channel": 0,
      "note": 72,
      "start": 127.444,
      "duration": 0.0798,
      "velocity": 106,
      "chip": "ym2612"
    },
    {
      "channel": 1,
      "note": 74,
      "start": 127.4482,
      "duration": 0.0087,
      "velocity": 127,
      "chip": "ym2612"
    },
    {
      "channel": 2,
      "note": 60,
      "start": 127.4523,
      "duration": 0.0722,
      "velocity": 101,
      "chip": "ym2612"
    },
    {
      "channel": 0,
      "note": 50,
      "start": 127.5442,
      "duration": 0.0139,
      "velocity": 117,
      "chip": "ym2612"
    },
    {
      "channel": 1,
      "note": 69,
      "start": 127.5485,
      "duration": 0.0761,
      "velocity": 106,
      "chip": "ym2612"
    },
    {
      "channel": 2,
      "note": 57,
      "start": 127.5525,
      "duration": 0.0712,
      "velocity": 101,
      "chip": "ym2612"
    },
    {
      "channel": 0,
      "note": 55,
      "start": 127.6439,
      "duration": 0.0798,
      "velocity": 101,
      "chip": "ym2612"
    },
    {
      "channel": 1,
      "note": 50,
      "start": 127.6483,
      "duration": 0.0099,
      "velocity": 117,
      "chip": "ym2612"
    },
    {
      "channel": 2,
      "note": 67,
      "start": 127.6525,
      "duration": 0.072,
      "velocity": 106,
      "chip": "ym2612"
    },
    {
      "channel": 0,
      "note": 60,
      "start": 127.7451,
      "duration": 0.0785,
      "velocity": 101,
      "chip": "ym2612"
    },
    {
      "channel": 1,
      "note": 75,
      "start": 127.7493,
      "duration": 0.0076,
      "velocity": 127,
      "chip": "ym2612"
    },
    {
      "channel": 2,
      "note": 72,
      "start": 127.7535,
      "duration": 0.071,
      "velocity": 106,
      "chip": "ym2612"
    },
    {
      "channel": 0,
      "note": 75,
      "start": 127.8453,
      "duration": 0.0116,
      "velocity": 127,
      "chip": "ym2612"
    },
    {
      "channel": 1,
      "note": 69,
      "start": 127.8495,
      "duration": 0.0766,
      "velocity": 106,
      "chip": "ym2612"
    },
    {
      "channel": 2,
      "note": 57,
      "start": 127.8535,
      "duration": 0.0716,
      "velocity": 101,
      "chip": "ym2612"
    },
    {
      "channel": 0,
      "note": 75,
      "start": 127.9304,
      "duration": 0.0099,
      "velocity": 127,
      "chip": "ym2612"
    },
    {
      "channel": 1,
      "note": 67,
      "start": 127.9346,
      "duration": 0.0734,
      "velocity": 106,
      "chip": "ym2612"
    },
    {
      "channel": 2,
      "note": 55,
      "start": 127.9386,
      "duration": 0.0686,
      "velocity": 101,
      "chip": "ym2612"
    },
    {
      "channel": 0,
      "note": 53,
      "start": 128.0285,
      "duration": 0.0797,
      "velocity": 101,
      "chip": "ym2612"
    },
    {
      "channel": 1,
      "note": 65,
      "start": 128.0327,
      "duration": 0.0763,
      "velocity": 106,
      "chip": "ym2612"
    },
    {
      "channel": 2,
      "note": 75,
      "start": 128.0368,
      "duration": 0.0035,
      "velocity": 127,
      "chip": "ym2612"
    },
    {
      "channel": 0,
      "note": 75,
      "start": 128.1274,
      "duration": 0.0128,
      "velocity": 127,
      "chip": "ym2612"
    },
    {
      "channel": 1,
      "note": 57,
      "start": 128.1315,
      "duration": 0.0776,
      "velocity": 101,
      "chip": "ym2612"
    },
    {
      "channel": 2,
      "note": 69,
      "start": 128.1356,
      "duration": 0.0728,
      "velocity": 106,
      "chip": "ym2612"
    },
    {
      "channel": 0,
      "note": 67,
      "start": 128.2274,
      "duration": 0.0798,
      "velocity": 106,
      "chip": "ym2612"
    },
    {
      "channel": 1,
      "note": 55,
      "start": 128.2314,
      "duration": 0.0764,
      "velocity": 101,
      "chip": "ym2612"
    },
    {
      "channel": 2,
      "note": 75,
      "start": 128.2356,
      "duration": 0.0048,
      "velocity": 127,
      "chip": "ym2612"
    },
    {
      "channel": 0,
      "note": 65,
      "start": 128.3274,
      "duration": 0.0798,
      "velocity": 106,
      "chip": "ym2612"
    },
    {
      "channel": 1,
      "note": 53,
      "start": 128.3314,
      "duration": 0.0764,
      "velocity": 101,
      "chip": "ym2612"
    },
    {
      "channel": 2,
      "note": 75,
      "start": 128.3356,
      "duration": 0.0047,
      "velocity": 127,
      "chip": "ym2612"
    },
    {
      "channel": 0,
      "note": 62,
      "start": 128.4274,
      "duration": 0.0798,
      "velocity": 106,
      "chip": "ym2612"
    },
    {
      "channel": 1,
      "note": 50,
      "start": 128.4314,
      "duration": 0.0768,
      "velocity": 101,
      "chip": "ym2612"
    },
    {
      "channel": 2,
      "note": 75,
      "start": 128.4356,
      "duration": 0.0047,
      "velocity": 127,
      "chip": "ym2612"
    },
    {
      "channel": 0,
      "note": 50,
      "start": 128.5213,
      "duration": 0.1692,
      "velocity": 101,
      "chip": "ym2612"
    },
    {
      "channel": 1,
      "note": 62,
      "start": 128.5258,
      "duration": 0.1668,
      "velocity": 106,
      "chip": "ym2612"
    },
    {
      "channel": 2,
      "note": 50,
      "start": 128.5307,
      "duration": 0.0097,
      "velocity": 117,
      "chip": "ym2612"
    },
    {
      "channel": 0,
      "note": 74,
      "start": 128.6972,
      "duration": 0.0,
      "velocity": 127,
      "chip": "ym2612"
    }
  ]
}