{
  "track_name": "04 - Stage Theme 3",
  "duration_sec": 107.513,
  "sample_rate": 44100,
  "note_count": 1869,
  "unique_pitches": 28,
  "pitch_range": 62,
  "avg_note_duration": 0.068,
  "reconstruction_stats": {
    "notes_reconstructed": 1869,
    "keyon_events": 1869,
    "keyoff_events": 1868,
    "orphan_keyons": 1,
    "unique_pitches": 28,
    "pitch_range": 62,
    "avg_duration_sec": 0.068
  },
  "metadata": {
    "source": "H\\Hurricanes\\04 - Stage Theme 3.vgz"
  },
  "notes": [
    {
      "channel": 1,
      "note": 46,
      "start": 0.0,
      "duration": 0.0114,
      "velocity": 92,
      "chip": "ym2612"
    },
    {
      "channel": 1,
      "note": 56,
      "start": 0.0116,
      "duration": 0.0124,
      "velocity": 92,
      "chip": "ym2612"
    },
    {
      "channel": 1,
      "note": 58,
      "start": 0.0366,
      "duration": 0.0261,
      "velocity": 92,
      "chip": "ym2612"
    },
    {
      "channel": 1,
      "note": 56,
      "start": 0.0629,
      "duration": 0.012,
      "velocity": 92,
      "chip": "ym2612"
    },
    {
      "channel": 1,
      "note": 49,
      "start": 0.0875,
      "duration": 0.0124,
      "velocity": 92,
      "chip": "ym2612"
    },
    {
      "channel": 1,
      "note": 52,
      "start": 0.1,
      "duration": 0.0123,
      "velocity": 92,
      "chip": "ym2612"
    },
    {
      "channel": 1,
      "note": 51,
      "start": 0.1125,
      "duration": 0.0137,
      "velocity": 92,
      "chip": "ym2612"
    },
    {
      "channel": 1,
      "note": 49,
      "start": 0.1263,
      "duration": 0.0243,
      "velocity": 92,
      "chip": "ym2612"
    },
    {
      "channel": 1,
      "note": 52,
      "start": 0.1508,
      "duration": 0.0124,
      "velocity": 92,
      "chip": "ym2612"
    },
    {
      "channel": 1,
      "note": 51,
      "start": 0.1633,
      "duration": 0.0123,
      "velocity": 92,
      "chip": "ym2612"
    },
    {
      "channel": 1,
      "note": 49,
      "start": 0.1758,
      "duration": 0.0257,
      "velocity": 92,
      "chip": "ym2612"
    },
    {
      "channel": 1,
      "note": 46,
      "start": 0.2017,
      "duration": 0.0127,
      "velocity": 92,
      "chip": "ym2612"
    },
    {
      "channel": 1,
      "note": 56,
      "start": 0.2146,
      "duration": 0.0124,
      "velocity": 92,
      "chip": "ym2612"
    },
    {
      "channel": 1,
      "note": 58,
      "start": 0.2395,
      "duration": 0.0256,
      "velocity": 92,
      "chip": "ym2612"
    },
    {
      "channel": 1,
      "note": 56,
      "start": 0.2653,
      "duration": 0.0124,
      "velocity": 92,
      "chip": "ym2612"
    },
    {
      "channel": 1,
      "note": 49,
      "start": 0.2904,
      "duration": 0.0124,
      "velocity": 92,
      "chip": "ym2612"
    },
    {
      "channel": 1,
      "note": 52,
      "start": 0.3029,
      "duration": 0.0137,
      "velocity": 92,
      "chip": "ym2612"
    },
    {
      "channel": 1,
      "note": 51,
      "start": 0.3168,
      "duration": 0.012,
      "velocity": 92,
      "chip": "ym2612"
    },
    {
      "channel": 1,
      "note": 49,
      "start": 0.329,
      "duration": 0.0248,
      "velocity": 92,
      "chip": "ym2612"
    },
    {
      "channel": 1,
      "note": 52,
      "start": 0.3539,
      "duration": 0.0124,
      "velocity": 92,
      "chip": "ym2612"
    },
    {
      "channel": 1,
      "note": 51,
      "start": 0.3665,
      "duration": 0.0137,
      "velocity": 92,
      "chip": "ym2612"
    },
    {
      "channel": 1,
      "note": 49,
      "start": 0.3804,
      "duration": 0.0244,
      "velocity": 92,
      "chip": "ym2612"
    },
    {
      "channel": 1,
      "note": 46,
      "start": 0.405,
      "duration": 0.0128,
      "velocity": 92,
      "chip": "ym2612"
    },
    {
      "channel": 1,
      "note": 56,
      "start": 0.4179,
      "duration": 0.0123,
      "velocity": 92,
      "chip": "ym2612"
    },
    {
      "channel": 1,
      "note": 58,
      "start": 0.4441,
      "duration": 0.0241,
      "velocity": 92,
      "chip": "ym2612"
    },
    {
      "channel": 1,
      "note": 56,
      "start": 0.4683,
      "duration": 0.0124,
      "velocity": 92,
      "chip": "ym2612"
    },
    {
      "channel": 1,
      "note": 49,
      "start": 0.4933,
      "duration": 0.0138,
      "velocity": 92,
      "chip": "ym2612"
    },
    {
      "channel": 1,
      "note": 52,
      "start": 0.5072,
      "duration": 0.012,
      "velocity": 92,
      "chip": "ym2612"
    },
    {
      "channel": 1,
      "note": 51,
      "start": 0.5193,
      "duration": 0.0125,
      "velocity": 92,
      "chip": "ym2612"
    },
    {
      "channel": 1,
      "note": 49,
      "start": 0.532,
      "duration": 0.0248,
      "velocity": 92,
      "chip": "ym2612"
    },
    {
      "channel": 1,
      "note": 52,
      "start": 0.5569,
      "duration": 0.0138,
      "velocity": 92,
      "chip": "ym2612"
    },
    {
      "channel": 1,
      "note": 51,
      "start": 0.5709,
      "duration": 0.012,
      "velocity": 92,
      "chip": "ym2612"
    },
    {
      "channel": 1,
      "note": 49,
      "start": 0.583,
      "duration": 0.0249,
      "velocity": 92,
      "chip": "ym2612"
    },
    {
      "channel": 1,
      "note": 46,
      "start": 0.6081,
      "duration": 0.0128,
      "velocity": 92,
      "chip": "ym2612"
    },
    {
      "channel": 1,
      "note": 56,
      "start": 0.6211,
      "duration": 0.0137,
      "velocity": 92,
      "chip": "ym2612"
    },
    {
      "channel": 1,
      "note": 58,
      "start": 0.6469,
      "duration": 0.0247,
      "velocity": 92,
      "chip": "ym2612"
    },
    {
      "channel": 1,
      "note": 56,
      "start": 0.6718,
      "duration": 0.0124,
      "velocity": 92,
      "chip": "ym2612"
    },
    {
      "channel": 1,
      "note": 49,
      "start": 0.6981,
      "duration": 0.0119,
      "velocity": 92,
      "chip": "ym2612"
    },
    {
      "channel": 1,
      "note": 52,
      "start": 0.7101,
      "duration": 0.0125,
      "velocity": 92,
      "chip": "ym2612"
    },
    {
      "channel": 1,
      "note": 52,
      "start": 0.7351,
      "duration": 0.0124,
      "velocity": 92,
      "chip": "ym2612"
    },
    {
      "channel": 1,
      "note": 51,
      "start": 0.7613,
      "duration": 0.0505,
      "velocity": 92,
      "chip": "ym2612"
    },
    {
      "channel": 0,
      "note": 58,
      "start": 0.8118,
      "duration": 0.0155,
      "velocity": 76,
      "chip": "ym2612"
    },
    {
      "channel": 1,
      "note": 46,
      "start": 0.8121,
      "duration": 0.0152,
      "velocity": 92,
      "chip": "ym2612"
    },
    {
      "channel": 2,
      "note": 32,
      "start": 0.8133,
      "duration": 0.0263,
      "velocity": 114,
      "chip": "ym2612"
    },
    {
      "channel": 1,
      "note": 56,
      "start": 0.8275,
      "duration": 0.012,
      "velocity": 92,
      "chip": "ym2612"
    },
    {
      "channel": 2,
      "note": 68,
      "start": 0.8408,
      "duration": 0.0251,
      "velocity": 100,
      "chip": "ym2612"
    },
    {
      "channel": 1,
      "note": 58,
      "start": 0.8533,
      "duration": 0.0261,
      "velocity": 92,
      "chip": "ym2612"
    },
    {
      "channel": 0,
      "note": 70,
      "start": 0.8658,
      "duration": 0.0531,
      "velocity": 76,
      "chip": "ym2612"
    },
    {
      "channel": 2,
      "note": 32,
      "start": 0.8671,
      "duration": 0.0262,
      "velocity": 114,
      "chip": "ym2612"
    },
    {
      "channel": 1,
      "note": 56,
      "start": 0.8796,
      "duration": 0.0136,
      "velocity": 92,
      "chip": "ym2612"
    },
    {
      "channel": 2,
      "note": 68,
      "start": 0.8944,
      "duration": 0.025,
      "velocity": 100,
      "chip": "ym2612"
    },
    {
      "channel": 1,
      "note": 49,
      "start": 0.9066,
      "duration": 0.0126,
      "velocity": 92,
      "chip": "ym2612"
    },
    {
      "channel": 0,
      "note": 65,
      "start": 0.9191,
      "duration": 0.0139,
      "velocity": 76,
      "chip": "ym2612"
    },
    {
      "channel": 1,
      "note": 52,
      "start": 0.9193,
      "duration": 0.0139,
      "velocity": 92,
      "chip": "ym2612"
    },
    {
      "channel": 2,
      "note": 32,
      "start": 0.9206,
      "duration": 0.0253,
      "velocity": 114,
      "chip": "ym2612"
    },
    {
      "channel": 0,
      "note": 64,
      "start": 0.9332,
      "duration": 0.0395,
      "velocity": 76,
      "chip": "ym2612"
    },
    {
      "channel": 1,
      "note": 51,
      "start": 0.9334,
      "duration": 0.0122,
      "velocity": 92,
      "chip": "ym2612"
    },
    {
      "channel": 1,
      "note": 49,
      "start": 0.9458,
      "duration": 0.0271,
      "velocity": 92,
      "chip": "ym2612"
    },
    {
      "channel": 2,
      "note": 68,
      "start": 0.9471,
      "duration": 0.026,
      "velocity": 100,
      "chip": "ym2612"
    },
    {
      "channel": 0,
      "note": 63,
      "start": 0.9728,
      "duration": 0.0139,
      "velocity": 76,
      "chip": "ym2612"
    },
    {
      "channel": 1,
      "note": 52,
      "start": 0.9731,
      "duration": 0.0137,
      "velocity": 92,
      "chip": "ym2612"
    },
    {
      "channel": 2,
      "note": 32,
      "start": 0.9743,
      "duration": 0.0256,
      "velocity": 114,
      "chip": "ym2612"
    },
    {
      "channel": 1,
      "note": 51,
      "start": 0.987,
      "duration": 0.0127,
      "velocity": 92,
      "chip": "ym2612"
    },
    {
      "channel": 0,
      "note": 61,
      "start": 0.9996,
      "duration": 0.0277,
      "velocity": 76,
      "chip": "ym2612"
    },
    {
      "channel": 1,
      "note": 49,
      "start": 0.9998,
      "duration": 0.0277,
      "velocity": 92,
      "chip": "ym2612"
    },
    {
      "channel": 2,
      "note": 68,
      "start": 1.0011,
      "duration": 0.0266,
      "velocity": 100,
      "chip": "ym2612"
    },
    {
      "channel": 0,
      "note": 58,
      "start": 1.0275,
      "duration": 0.0136,
      "velocity": 76,
      "chip": "ym2612"
    },
    {
      "channel": 1,
      "note": 46,
      "start": 1.0277,
      "duration": 0.0135,
      "velocity": 92,
      "chip": "ym2612"
    },
    {
      "channel": 2,
      "note": 32,
      "start": 1.029,
      "duration": 0.0249,
      "velocity": 114,
      "chip": "ym2612"
    },
    {
      "channel": 1,
      "note": 56,
      "start": 1.0414,
      "duration": 0.0124,
      "velocity": 92,
      "chip": "ym2612"
    },
    {
      "channel": 2,
      "note": 68,
      "start": 1.0551,
      "duration": 0.0253,
      "velocity": 100,
      "chip": "ym2612"
    },
    {
      "channel": 1,
      "note": 58,
      "start": 1.0677,
      "duration": 0.0276,
      "velocity": 92,
      "chip": "ym2612"
    },
    {
      "channel": 0,
      "note": 70,
      "start": 1.0803,
      "duration": 0.0533,
      "velocity": 76,
      "chip": "ym2612"
    },
    {
      "channel": 2,
      "note": 32,
      "start": 1.0816,
      "duration": 0.026,
      "velocity": 114,
      "chip": "ym2612"
    },
    {
      "channel": 1,
      "note": 56,
      "start": 1.0955,
      "duration": 0.012,
      "velocity": 92,
      "chip": "ym2612"
    },
    {
      "channel": 2,
      "note": 68,
      "start": 1.1088,
      "duration": 0.0253,
      "velocity": 100,
      "chip": "ym2612"
    },
    {
      "channel": 1,
      "note": 49,
      "start": 1.1212,
      "duration": 0.0126,
      "velocity": 92,
      "chip": "ym2612"
    },
    {
      "channel": 0,
      "note": 65,
      "start": 1.1337,
      "duration": 0.0138,
      "velocity": 76,
      "chip": "ym2612"
    },
    {
      "channel": 1,
      "note": 52,
      "start": 1.134,
      "duration": 0.0138,
      "velocity": 92,
      "chip": "ym2612"
    },
    {
      "channel": 2,
      "note": 32,
      "start": 1.1352,
      "duration": 0.0267,
      "velocity": 114,
      "chip": "ym2612"
    },
    {
      "channel": 0,
      "note": 64,
      "start": 1.1477,
      "duration": 0.0395,
      "velocity": 76,
      "chip": "ym2612"
    },
    {
      "channel": 1,
      "note": 51,
      "start": 1.1479,
      "duration": 0.0137,
      "velocity": 92,
      "chip": "ym2612"
    },
    {
      "channel": 1,
      "note": 49,
      "start": 1.1619,
      "duration": 0.0256,
      "velocity": 92,
      "chip": "ym2612"
    },
    {
      "channel": 2,
      "note": 68,
      "start": 1.1632,
      "duration": 0.0245,
      "velocity": 100,
      "chip": "ym2612"
    },
    {
      "channel": 0,
      "note": 63,
      "start": 1.1874,
      "duration": 0.0139,
      "velocity": 76,
      "chip": "ym2612"
    },
    {
      "channel": 1,
      "note": 52,
      "start": 1.1876,
      "duration": 0.0137,
      "velocity": 92,
      "chip": "ym2612"
    },
    {
      "channel": 2,
      "note": 32,
      "start": 1.1889,
      "duration": 0.0254,
      "velocity": 114,
      "chip": "ym2612"
    },
    {
      "channel": 1,
      "note": 51,
      "start": 1.2016,
      "duration": 0.0125,
      "velocity": 92,
      "chip": "ym2612"
    },
    {
      "channel": 0,
      "note": 61,
      "start": 1.214,
      "duration": 0.0272,
      "velocity": 76,
      "chip": "ym2612"
    },
    {
      "channel": 1,
      "note": 49,
      "start": 1.2142,
      "duration": 0.0272,
      "velocity": 92,
      "chip": "ym2612"
    },
    {
      "channel": 2,
      "note": 68,
      "start": 1.2155,
      "duration": 0.0262,
      "velocity": 100,
      "chip": "ym2612"
    },
    {
      "channel": 0,
      "note": 58,
      "start": 1.2414,
      "duration": 0.0142,
      "velocity": 76,
      "chip": "ym2612"
    },
    {
      "channel": 1,
      "note": 46,
      "start": 1.2417,
      "duration": 0.0141,
      "velocity": 92,
      "chip": "ym2612"
    },
    {
      "channel": 2,
      "note": 32,
      "start": 1.2429,
      "duration": 0.0253,
      "velocity": 114,
      "chip": "ym2612"
    },
    {
      "channel": 1,
      "note": 56,
      "start": 1.2559,
      "duration": 0.0123,
      "velocity": 92,
      "chip": "ym2612"
    },
    {
      "channel": 2,
      "note": 68,
      "start": 1.2695,
      "duration": 0.0265,
      "velocity": 100,
      "chip": "ym2612"
    },
    {
      "channel": 1,
      "note": 58,
      "start": 1.282,
      "duration": 0.0271,
      "velocity": 92,
      "chip": "ym2612"
    },
    {
      "channel": 0,
      "note": 70,
      "start": 1.2959,
      "duration": 0.052,
      "velocity": 76,
      "chip": "ym2612"
    },
    {
      "channel": 2,
      "note": 32,
      "start": 1.2972,
      "duration": 0.0246,
      "velocity": 114,
      "chip": "ym2612"
    },
    {
      "channel": 1,
      "note": 56,
      "start": 1.3093,
      "duration": 0.0124,
      "velocity": 92,
      "chip": "ym2612"
    },
    {
      "channel": 2,
      "note": 68,
      "start": 1.3231,
      "duration": 0.0254,
      "velocity": 100,
      "chip": "ym2612"
    },
    {
      "channel": 1,
      "note": 49,
      "start": 1.3356,
      "duration": 0.0126,
      "velocity": 92,
      "chip": "ym2612"
    },
    {
      "channel": 0,
      "note": 65,
      "start": 1.3481,
      "duration": 0.0153,
      "velocity": 76,
      "chip": "ym2612"
    },
    {
      "channel": 1,
      "note": 52,
      "start": 1.3483,
      "duration": 0.0152,
      "velocity": 92,
      "chip": "ym2612"
    },
    {
      "channel": 2,
      "note": 32,
      "start": 1.3496,
      "duration": 0.0262,
      "velocity": 114,
      "chip": "ym2612"
    },
    {
      "channel": 0,
      "note": 64,
      "start": 1.3636,
      "duration": 0.0381,
      "velocity": 76,
      "chip": "ym2612"
    },
    {
      "channel": 1,
      "note": 51,
      "start": 1.3638,
      "duration": 0.0119,
      "velocity": 92,
      "chip": "ym2612"
    },
    {
      "channel": 1,
      "note": 49,
      "start": 1.3758,
      "duration": 0.0262,
      "velocity": 92,
      "chip": "ym2612"
    },
    {
      "channel": 2,
      "note": 68,
      "start": 1.3771,
      "duration": 0.0252,
      "velocity": 100,
      "chip": "ym2612"
    },
    {
      "channel": 0,
      "note": 63,
      "start": 1.4019,
      "duration": 0.0137,
      "velocity": 76,
      "chip": "ym2612"
    },
    {
      "channel": 1,
      "note": 52,
      "start": 1.4022,
      "duration": 0.0136,
      "velocity": 92,
      "chip": "ym2612"
    },
    {
      "channel": 2,
      "note": 32,
      "start": 1.4034,
      "duration": 0.0266,
      "velocity": 114,
      "chip": "ym2612"
    },
    {
      "channel": 1,
      "note": 51,
      "start": 1.4159,
      "duration": 0.014,
      "velocity": 92,
      "chip": "ym2612"
    },
    {
      "channel": 0,
      "note": 61,
      "start": 1.4298,
      "duration": 0.0259,
      "velocity": 76,
      "chip": "ym2612"
    },
    {
      "channel": 1,
      "note": 49,
      "start": 1.43,
      "duration": 0.0259,
      "velocity": 92,
      "chip": "ym2612"
    },
    {
      "channel": 2,
      "note": 68,
      "start": 1.4313,
      "duration": 0.0249,
      "velocity": 100,
      "chip": "ym2612"
    },
    {
      "channel": 0,
      "note": 58,
      "start": 1.4559,
      "duration": 0.0141,
      "velocity": 76,
      "chip": "ym2612"
    },
    {
      "channel": 1,
      "note": 46,
      "start": 1.4561,
      "duration": 0.014,
      "velocity": 92,
      "chip": "ym2612"
    },
    {
      "channel": 2,
      "note": 32,
      "start": 1.4574,
      "duration": 0.0253,
      "velocity": 114,
      "chip": "ym2612"
    },
    {
      "channel": 1,
      "note": 56,
      "start": 1.4702,
      "duration": 0.0124,
      "velocity": 92,
      "chip": "ym2612"
    },
    {
      "channel": 2,
      "note": 68,
      "start": 1.4839,
      "duration": 0.0261,
      "velocity": 100,
      "chip": "ym2612"
    },
    {
      "channel": 1,
      "note": 58,
      "start": 1.4977,
      "duration": 0.0258,
      "velocity": 92,
      "chip": "ym2612"
    },
    {
      "channel": 0,
      "note": 70,
      "start": 1.5099,
      "duration": 0.0536,
      "velocity": 76,
      "chip": "ym2612"
    },
    {
      "channel": 2,
      "note": 32,
      "start": 1.5112,
      "duration": 0.025,
      "velocity": 114,
      "chip": "ym2612"
    },
    {
      "channel": 1,
      "note": 56,
      "start": 1.5238,
      "duration": 0.0124,
      "velocity": 92,
      "chip": "ym2612"
    },
    {
      "channel": 2,
      "note": 68,
      "start": 1.5374,
      "duration": 0.0265,
      "velocity": 100,
      "chip": "ym2612"
    },
    {
      "channel": 1,
      "note": 49,
      "start": 1.5498,
      "duration": 0.0139,
      "velocity": 92,
      "chip": "ym2612"
    },
    {
      "channel": 0,
      "note": 65,
      "start": 1.5637,
      "duration": 0.0134,
      "velocity": 76,
      "chip": "ym2612"
    },
    {
      "channel": 1,
      "note": 52,
      "start": 1.5639,
      "duration": 0.0134,
      "velocity": 92,
      "chip": "ym2612"
    },
    {
      "channel": 2,
      "note": 32,
      "start": 1.5652,
      "duration": 0.0248,
      "velocity": 114,
      "chip": "ym2612"
    },
    {
      "channel": 0,
      "note": 64,
      "start": 1.5773,
      "duration": 0.0388,
      "velocity": 76,
      "chip": "ym2612"
    },
    {
      "channel": 1,
      "note": 52,
      "start": 1.5899,
      "duration": 0.0137,
      "velocity": 92,
      "chip": "ym2612"
    },
    {
      "channel": 2,
      "note": 68,
      "start": 1.5912,
      "duration": 0.0253,
      "velocity": 100,
      "chip": "ym2612"
    },
    {
      "channel": 0,
      "note": 63,
      "start": 1.6162,
      "duration": 0.0151,
      "velocity": 76,
      "chip": "ym2612"
    },
    {
      "channel": 1,
      "note": 51,
      "start": 1.6164,
      "duration": 0.0533,
      "velocity": 92,
      "chip": "ym2612"
    },
    {
      "channel": 2,
      "note": 32,
      "start": 1.6177,
      "duration": 0.0258,
      "velocity": 114,
      "chip": "ym2612"
    },
    {
      "channel": 0,
      "note": 61,
      "start": 1.6434,
      "duration": 0.0261,
      "velocity": 76,
      "chip": "ym2612"
    },
    {
      "channel": 2,
      "note": 68,
      "start": 1.6447,
      "duration": 0.0253,
      "velocity": 100,
      "chip": "ym2612"
    },
    {
      "channel": 0,
      "note": 58,
      "start": 1.6696,
      "duration": 0.0142,
      "velocity": 76,
      "chip": "ym2612"
    },
    {
      "channel": 1,
      "note": 46,
      "start": 1.67,
      "duration": 0.0139,
      "velocity": 92,
      "chip": "ym2612"
    },
    {
      "channel": 2,
      "note": 32,
      "start": 1.6712,
      "duration": 0.0265,
      "velocity": 114,
      "chip": "ym2612"
    },
    {
      "channel": 1,
      "note": 56,
      "start": 1.6841,
      "duration": 0.0136,
      "velocity": 92,
      "chip": "ym2612"
    },
    {
      "channel": 2,
      "note": 68,
      "start": 1.699,
      "duration": 0.0247,
      "velocity": 100,
      "chip": "ym2612"
    },
    {
      "channel": 1,
      "note": 58,
      "start": 1.7111,
      "duration": 0.0262,
      "velocity": 92,
      "chip": "ym2612"
    },
    {
      "channel": 0,
      "note": 70,
      "start": 1.7236,
      "duration": 0.0534,
      "velocity": 76,
      "chip": "ym2612"
    },
    {
      "channel": 2,
      "note": 32,
      "start": 1.7249,
      "duration": 0.025,
      "velocity": 114,
      "chip": "ym2612"
    },
    {
      "channel": 1,
      "note": 56,
      "start": 1.7374,
      "duration": 0.0124,
      "velocity": 92,
      "chip": "ym2612"
    },
    {
      "channel": 2,
      "note": 68,
      "start": 1.7511,
      "duration": 0.0263,
      "velocity": 100,
      "chip": "ym2612"
    },
    {
      "channel": 1,
      "note": 49,
      "start": 1.765,
      "duration": 0.0122,
      "velocity": 92,
      "chip": "ym2612"
    },
    {
      "channel": 0,
      "note": 65,
      "start": 1.7771,
      "duration": 0.0139,
      "velocity": 76,
      "chip": "ym2612"
    },
    {
      "channel": 1,
      "note": 52,
      "start": 1.7774,
      "duration": 0.0139,
      "velocity": 92,
      "chip": "ym2612"
    },
    {
      "channel": 2,
      "note": 32,
      "start": 1.7786,
      "duration": 0.0254,
      "velocity": 114,
      "chip": "ym2612"
    },
    {
      "channel": 0,
      "note": 64,
      "start": 1.7912,
      "duration": 0.04,
      "velocity": 76,
      "chip": "ym2612"
    },
    {
      "channel": 1,
      "note": 51,
      "start": 1.7915,
      "duration": 0.0124,
      "velocity": 92,
      "chip": "ym2612"
    },
    {
      "channel": 1,
      "note": 49,
      "start": 1.804,
      "duration": 0.0275,
      "velocity": 92,
      "chip": "ym2612"
    },
    {
      "channel": 2,
      "note": 68,
      "start": 1.8052,
      "duration": 0.0265,
      "velocity": 100,
      "chip": "ym2612"
    },
    {
      "channel": 0,
      "note": 63,
      "start": 1.8315,
      "duration": 0.0134,
      "velocity": 76,
      "chip": "ym2612"
    },
    {
      "channel": 1,
      "note": 52,
      "start": 1.8317,
      "duration": 0.0133,
      "velocity": 92,
      "chip": "ym2612"
    },
    {
      "channel": 2,
      "note": 32,
      "start": 1.8329,
      "duration": 0.0251,
      "velocity": 114,
      "chip": "ym2612"
    },
    {
      "channel": 1,
      "note": 51,
      "start": 1.8451,
      "duration": 0.0127,
      "velocity": 92,
      "chip": "ym2612"
    },
    {
      "channel": 0,
      "note": 61,
      "start": 1.8577,
      "duration": 0.0261,
      "velocity": 76,
      "chip": "ym2612"
    },
    {
      "channel": 1,
      "note": 49,
      "start": 1.858,
      "duration": 0.0262,
      "velocity": 92,
      "chip": "ym2612"
    },
    {
      "channel": 2,
      "note": 68,
      "start": 1.8593,
      "duration": 0.0251,
      "velocity": 100,
      "chip": "ym2612"
    },
    {
      "channel": 0,
      "note": 58,
      "start": 1.8841,
      "duration": 0.0154,
      "velocity": 76,
      "chip": "ym2612"
    },
    {
      "channel": 1,
      "note": 46,
      "start": 1.8843,
      "duration": 0.0153,
      "velocity": 92,
      "chip": "ym2612"
    },
    {
      "channel": 2,
      "note": 32,
      "start": 1.8856,
      "duration": 0.0261,
      "velocity": 114,
      "chip": "ym2612"
    },
    {
      "channel": 1,
      "note": 56,
      "start": 1.8998,
      "duration": 0.0119,
      "velocity": 92,
      "chip": "ym2612"
    },
    {
      "channel": 2,
      "note": 68,
      "start": 1.9129,
      "duration": 0.0251,
      "velocity": 100,
      "chip": "ym2612"
    },
    {
      "channel": 1,
      "note": 58,
      "start": 1.9254,
      "duration": 0.026,
      "velocity": 92,
      "chip": "ym2612"
    },
    {
      "channel": 0,
      "note": 70,
      "start": 1.9379,
      "duration": 0.0531,
      "velocity": 76,
      "chip": "ym2612"
    },
    {
      "channel": 2,
      "note": 32,
      "start": 1.9392,
      "duration": 0.0262,
      "velocity": 114,
      "chip": "ym2612"
    },
    {
      "channel": 1,
      "note": 56,
      "start": 1.9517,
      "duration": 0.0137,
      "velocity": 92,
      "chip": "ym2612"
    },
    {
      "channel": 2,
      "note": 68,
      "start": 1.9666,
      "duration": 0.0249,
      "velocity": 100,
      "chip": "ym2612"
    },
    {
      "channel": 1,
      "note": 49,
      "start": 1.9787,
      "duration": 0.0126,
      "velocity": 92,
      "chip": "ym2612"
    },
    {
      "channel": 0,
      "note": 65,
      "start": 1.9912,
      "duration": 0.0139,
      "velocity": 76,
      "chip": "ym2612"
    },
    {
      "channel": 1,
      "note": 52,
      "start": 1.9915,
      "duration": 0.0139,
      "velocity": 92,
      "chip": "ym2612"
    },
    {
      "channel": 2,
      "note": 32,
      "start": 1.9927,
      "duration": 0.0254,
      "velocity": 114,
      "chip": "ym2612"
    },
    {
      "channel": 0,
      "note": 64,
      "start": 2.0054,
      "duration": 0.0396,
      "velocity": 76,
      "chip": "ym2612"
    },
    {
      "channel": 1,
      "note": 51,
      "start": 2.0056,
      "duration": 0.0123,
      "velocity": 92,
      "chip": "ym2612"
    },
    {
      "channel": 1,
      "note": 49,
      "start": 2.0181,
      "duration": 0.0271,
      "velocity": 92,
      "chip": "ym2612"
    },
    {
      "channel": 2,
      "note": 68,
      "start": 2.0194,
      "duration": 0.0261,
      "velocity": 100,
      "chip": "ym2612"
    },
    {
      "channel": 0,
      "note": 63,
      "start": 2.0451,
      "duration": 0.0139,
      "velocity": 76,
      "chip": "ym2612"
    },
    {
      "channel": 1,
      "note": 52,
      "start": 2.0454,
      "duration": 0.0137,
      "velocity": 92,
      "chip": "ym2612"
    },
    {
      "channel": 2,
      "note": 32,
      "start": 2.0467,
      "duration": 0.0256,
      "velocity": 114,
      "chip": "ym2612"
    },
    {
      "channel": 1,
      "note": 51,
      "start": 2.0593,
      "duration": 0.0127,
      "velocity": 92,
      "chip": "ym2612"
    },
    {
      "channel": 0,
      "note": 61,
      "start": 2.0719,
      "duration": 0.0277,
      "velocity": 76,
      "chip": "ym2612"
    },
    {
      "channel": 1,
      "note": 49,
      "start": 2.0722,
      "duration": 0.0277,
      "velocity": 92,
      "chip": "ym2612"
    },
    {
      "channel": 2,
      "note": 68,
      "start": 2.0734,
      "duration": 0.0266,
      "velocity": 100,
      "chip": "ym2612"
    },
    {
      "channel": 0,
      "note": 58,
      "start": 2.0998,
      "duration": 0.0136,
      "velocity": 76,
      "chip": "ym2612"
    },
    {
      "channel": 1,
      "note": 46,
      "start": 2.1,
      "duration": 0.0135,
      "velocity": 92,
      "chip": "ym2612"
    },
    {
      "channel": 2,
      "note": 32,
      "start": 2.1013,
      "duration": 0.0249,
      "velocity": 114,
      "chip": "ym2612"
    },
    {
      "channel": 1,
      "note": 56,
      "start": 2.1137,
      "duration": 0.0124,
      "velocity": 92,
      "chip": "ym2612"
    },
    {
      "channel": 2,
      "note": 68,
      "start": 2.1274,
      "duration": 0.0251,
      "velocity": 100,
      "chip": "ym2612"
    },
    {
      "channel": 1,
      "note": 58,
      "start": 2.14,
      "duration": 0.0275,
      "velocity": 92,
      "chip": "ym2612"
    },
    {
      "channel": 0,
      "note": 70,
      "start": 2.1524,
      "duration": 0.0532,
      "velocity": 76,
      "chip": "ym2612"
    },
    {
      "channel": 2,
      "note": 32,
      "start": 2.1537,
      "duration": 0.0259,
      "velocity": 114,
      "chip": "ym2612"
    },
    {
      "channel": 1,
      "note": 56,
      "start": 2.1676,
      "duration": 0.0119,
      "velocity": 92,
      "chip": "ym2612"
    },
    {
      "channel": 2,
      "note": 68,
      "start": 2.1808,
      "duration": 0.0254,
      "velocity": 100,
      "chip": "ym2612"
    },
    {
      "channel": 1,
      "note": 49,
      "start": 2.1933,
      "duration": 0.0126,
      "velocity": 92,
      "chip": "ym2612"
    },
    {
      "channel": 0,
      "note": 65,
      "start": 2.2059,
      "duration": 0.0138,
      "velocity": 76,
      "chip": "ym2612"
    },
    {
      "channel": 1,
      "note": 52,
      "start": 2.2061,
      "duration": 0.0138,
      "velocity": 92,
      "chip": "ym2612"
    },
    {
      "channel": 2,
      "note": 32,
      "start": 2.2074,
      "duration": 0.0266,
      "velocity": 114,
      "chip": "ym2612"
    },
    {
      "channel": 0,
      "note": 64,
      "start": 2.2199,
      "duration": 0.0395,
      "velocity": 76,
      "chip": "ym2612"
    },
    {
      "channel": 1,
      "note": 51,
      "start": 2.2201,
      "duration": 0.0136,
      "velocity": 92,
      "chip": "ym2612"
    },
    {
      "channel": 1,
      "note": 49,
      "start": 2.2339,
      "duration": 0.0258,
      "velocity": 92,
      "chip": "ym2612"
    },
    {
      "channel": 2,
      "note": 68,
      "start": 2.2351,
      "duration": 0.0247,
      "velocity": 100,
      "chip": "ym2612"
    },
    {
      "channel": 0,
      "note": 63,
      "start": 2.2595,
      "duration": 0.0139,
      "velocity": 76,
      "chip": "ym2612"
    },
    {
      "channel": 1,
      "note": 52,
      "start": 2.2598,
      "duration": 0.0138,
      "velocity": 92,
      "chip": "ym2612"
    },
    {
      "channel": 2,
      "note": 32,
      "start": 2.2611,
      "duration": 0.0255,
      "velocity": 114,
      "chip": "ym2612"
    },
    {
      "channel": 1,
      "note": 51,
      "start": 2.2737,
      "duration": 0.0126,
      "velocity": 92,
      "chip": "ym2612"
    },
    {
      "channel": 0,
      "note": 61,
      "start": 2.2863,
      "duration": 0.0273,
      "velocity": 76,
      "chip": "ym2612"
    },
    {
      "channel": 1,
      "note": 49,
      "start": 2.2865,
      "duration": 0.0273,
      "velocity": 92,
      "chip": "ym2612"
    },
    {
      "channel": 2,
      "note": 68,
      "start": 2.2877,
      "duration": 0.0263,
      "velocity": 100,
      "chip": "ym2612"
    },
    {
      "channel": 0,
      "note": 58,
      "start": 2.3137,
      "duration": 0.0129,
      "velocity": 76,
      "chip": "ym2612"
    },
    {
      "channel": 1,
      "note": 46,
      "start": 2.314,
      "duration": 0.0128,
      "velocity": 92,
      "chip": "ym2612"
    },
    {
      "channel": 1,
      "note": 56,
      "start": 2.327,
      "duration": 0.0124,
      "velocity": 92,
      "chip": "ym2612"
    },
    {
      "channel": 1,
      "note": 58,
      "start": 2.352,
      "duration": 0.0258,
      "velocity": 92,
      "chip": "ym2612"
    },
    {
      "channel": 0,
      "note": 70,
      "start": 2.3658,
      "duration": 0.0493,
      "velocity": 76,
      "chip": "ym2612"
    },
    {
      "channel": 1,
      "note": 56,
      "start": 2.3779,
      "duration": 0.0124,
      "velocity": 92,
      "chip": "ym2612"
    },
    {
      "channel": 1,
      "note": 49,
      "start": 2.4029,
      "duration": 0.0125,
      "velocity": 92,
      "chip": "ym2612"
    },
    {
      "channel": 0,
      "note": 65,
      "start": 2.4153,
      "duration": 0.0139,
      "velocity": 76,
      "chip": "ym2612"
    },
    {
      "channel": 1,
      "note": 52,
      "start": 2.4155,
      "duration": 0.0139,
      "velocity": 92,
      "chip": "ym2612"
    },
    {
      "channel": 0,
      "note": 64,
      "start": 2.4295,
      "duration": 0.0368,
      "velocity": 76,
      "chip": "ym2612"
    },
    {
      "channel": 1,
      "note": 52,
      "start": 2.4415,
      "duration": 0.0124,
      "velocity": 92,
      "chip": "ym2612"
    },
    {
      "channel": 0,
      "note": 63,
      "start": 2.4664,
      "duration": 0.0125,
      "velocity": 76,
      "chip": "ym2612"
    },
    {
      "channel": 1,
      "note": 51,
      "start": 2.4666,
      "duration": 0.0519,
      "velocity": 92,
      "chip": "ym2612"
    },
    {
      "channel": 0,
      "note": 61,
      "start": 2.4927,
      "duration": 0.0245,
      "velocity": 76,
      "chip": "ym2612"
    },
    {
      "channel": 0,
      "note": 32,
      "start": 2.5185,
      "duration": 0.0279,
      "velocity": 114,
      "chip": "ym2612"
    },
    {
      "channel": 1,
      "note": 70,
      "start": 2.5197,
      "duration": 0.0139,
      "velocity": 103,
      "chip": "ym2612"
    },
    {
      "channel": 2,
      "note": 46,
      "start": 2.521,
      "duration": 0.0127,
      "velocity": 115,
      "chip": "ym2612"
    },
    {
      "channel": 2,
      "note": 53,
      "start": 2.5339,
      "duration": 0.0139,
      "velocity": 115,
      "chip": "ym2612"
    },
    {
      "channel": 0,
      "note": 68,
      "start": 2.5476,
      "duration": 0.0263,
      "velocity": 100,
      "chip": "ym2612"
    },
    {
      "channel": 1,
      "note": 70,
      "start": 2.5478,
      "duration": 0.014,
      "velocity": 103,
      "chip": "ym2612"
    },
    {
      "channel": 2,
      "note": 46,
      "start": 2.548,
      "duration": 0.0138,
      "velocity": 115,
      "chip": "ym2612"
    },
    {
      "channel": 2,
      "note": 53,
      "start": 2.562,
      "duration": 0.0134,
      "velocity": 115,
      "chip": "ym2612"
    },
    {
      "channel": 0,
      "note": 32,
      "start": 2.5751,
      "duration": 0.0254,
      "velocity": 114,
      "chip": "ym2612"
    },
    {
      "channel": 1,
      "note": 82,
      "start": 2.5753,
      "duration": 0.0127,
      "velocity": 103,
      "chip": "ym2612"
    },
    {
      "channel": 2,
      "note": 46,
      "start": 2.5756,
      "duration": 0.0125,
      "velocity": 115,
      "chip": "ym2612"
    },
    {
      "channel": 2,
      "note": 53,
      "start": 2.5883,
      "duration": 0.0138,
      "velocity": 115,
      "chip": "ym2612"
    },
    {
      "channel": 0,
      "note": 68,
      "start": 2.6018,
      "duration": 0.0268,
      "velocity": 100,
      "chip": "ym2612"
    },
    {
      "channel": 1,
      "note": 70,
      "start": 2.602,
      "duration": 0.0127,
      "velocity": 103,
      "chip": "ym2612"
    },
    {
      "channel": 2,
      "note": 46,
      "start": 2.6023,
      "duration": 0.0125,
      "velocity": 115,
      "chip": "ym2612"
    },
    {
      "channel": 2,
      "note": 53,
      "start": 2.6149,
      "duration": 0.0152,
      "velocity": 115,
      "chip": "ym2612"
    },
    {
      "channel": 0,
      "note": 32,
      "start": 2.6298,
      "duration": 0.025,
      "velocity": 114,
      "chip": "ym2612"
    },
    {
      "channel": 1,
      "note": 77,
      "start": 2.6301,
      "duration": 0.0121,
      "velocity": 103,
      "chip": "ym2612"
    },
    {
      "channel": 2,
      "note": 41,
      "start": 2.6303,
      "duration": 0.0121,
      "velocity": 115,
      "chip": "ym2612"
    },
    {
      "channel": 1,
      "note": 76,
      "start": 2.6424,
      "duration": 0.0138,
      "velocity": 103,
      "chip": "ym2612"
    },
    {
      "channel": 2,
      "note": 48,
      "start": 2.6426,
      "duration": 0.0136,
      "velocity": 115,
      "chip": "ym2612"
    },
    {
      "channel": 0,
      "note": 68,
      "start": 2.6561,
      "duration": 0.0254,
      "velocity": 100,
      "chip": "ym2612"
    },
    {
      "channel": 2,
      "note": 41,
      "start": 2.6564,
      "duration": 0.0126,
      "velocity": 115,
      "chip": "ym2612"
    },
    {
      "channel": 1,
      "note": 75,
      "start": 2.6689,
      "duration": 0.0139,
      "velocity": 103,
      "chip": "ym2612"
    },
    {
      "channel": 2,
      "note": 48,
      "start": 2.6692,
      "duration": 0.0137,
      "velocity": 115,
      "chip": "ym2612"
    },
    {
      "channel": 0,
      "note": 32,
      "start": 2.6827,
      "duration": 0.0262,
      "velocity": 114,
      "chip": "ym2612"
    },
    {
      "channel": 2,
      "note": 41,
      "start": 2.683,
      "duration": 0.0139,
      "velocity": 115,
      "chip": "ym2612"
    },
    {
      "channel": 1,
      "note": 76,
      "start": 2.6969,
      "duration": 0.0133,
      "velocity": 103,
      "chip": "ym2612"
    },
    {
      "channel": 2,
      "note": 48,
      "start": 2.6971,
      "duration": 0.0133,
      "velocity": 115,
      "chip": "ym2612"
    },
    {
      "channel": 0,
      "note": 68,
      "start": 2.7101,
      "duration": 0.0254,
      "velocity": 100,
      "chip": "ym2612"
    },
    {
      "channel": 1,
      "note": 75,
      "start": 2.7103,
      "duration": 0.0264,
      "velocity": 103,
      "chip": "ym2612"
    },
    {
      "channel": 2,
      "note": 49,
      "start": 2.7106,
      "duration": 0.0123,
      "velocity": 115,
      "chip": "ym2612"
    },
    {
      "channel": 2,
      "note": 48,
      "start": 2.7231,
      "duration": 0.0139,
      "velocity": 115,
      "chip": "ym2612"
    },
    {
      "channel": 0,
      "note": 32,
      "start": 2.7367,
      "duration": 0.0271,
      "velocity": 114,
      "chip": "ym2612"
    },
    {
      "channel": 1,
      "note": 70,
      "start": 2.7369,
      "duration": 0.0129,
      "velocity": 103,
      "chip": "ym2612"
    },
    {
      "channel": 2,
      "note": 46,
      "start": 2.7372,
      "duration": 0.0126,
      "velocity": 115,
      "chip": "ym2612"
    },
    {
      "channel": 2,
      "note": 53,
      "start": 2.75,
      "duration": 0.0152,
      "velocity": 115,
      "chip": "ym2612"
    },
    {
      "channel": 0,
      "note": 68,
      "start": 2.765,
      "duration": 0.0249,
      "velocity": 100,
      "chip": "ym2612"
    },
    {
      "channel": 1,
      "note": 70,
      "start": 2.7652,
      "duration": 0.0122,
      "velocity": 103,
      "chip": "ym2612"
    },
    {
      "channel": 2,
      "note": 46,
      "start": 2.7654,
      "duration": 0.012,
      "velocity": 115,
      "chip": "ym2612"
    },
    {
      "channel": 2,
      "note": 53,
      "start": 2.7777,
      "duration": 0.0138,
      "velocity": 115,
      "chip": "ym2612"
    },
    {
      "channel": 0,
      "note": 32,
      "start": 2.7911,
      "duration": 0.0256,
      "velocity": 114,
      "chip": "ym2612"
    },
    {
      "channel": 1,
      "note": 82,
      "start": 2.7914,
      "duration": 0.0127,
      "velocity": 103,
      "chip": "ym2612"
    },
    {
      "channel": 2,
      "note": 46,
      "start": 2.7916,
      "duration": 0.0125,
      "velocity": 115,
      "chip": "ym2612"
    },
    {
      "channel": 2,
      "note": 53,
      "start": 2.8043,
      "duration": 0.0139,
      "velocity": 115,
      "chip": "ym2612"
    },
    {
      "channel": 0,
      "note": 68,
      "start": 2.8179,
      "duration": 0.0263,
      "velocity": 100,
      "chip": "ym2612"
    },
    {
      "channel": 1,
      "note": 70,
      "start": 2.8181,
      "duration": 0.0139,
      "velocity": 103,
      "chip": "ym2612"
    },
    {
      "channel": 2,
      "note": 46,
      "start": 2.8184,
      "duration": 0.0138,
      "velocity": 115,
      "chip": "ym2612"
    },
    {
      "channel": 2,
      "note": 53,
      "start": 2.8323,
      "duration": 0.0134,
      "velocity": 115,
      "chip": "ym2612"
    },
    {
      "channel": 0,
      "note": 32,
      "start": 2.8455,
      "duration": 0.0256,
      "velocity": 114,
      "chip": "ym2612"
    },
    {
      "channel": 1,
      "note": 77,
      "start": 2.8457,
      "duration": 0.0126,
      "velocity": 103,
      "chip": "ym2612"
    },
    {
      "channel": 2,
      "note": 41,
      "start": 2.846,
      "duration": 0.0126,
      "velocity": 115,
      "chip": "ym2612"
    },
    {
      "channel": 1,
      "note": 76,
      "start": 2.8585,
      "duration": 0.0139,
      "velocity": 103,
      "chip": "ym2612"
    },
    {
      "channel": 2,
      "note": 48,
      "start": 2.8587,
      "duration": 0.0138,
      "velocity": 115,
      "chip": "ym2612"
    },
    {
      "channel": 0,
      "note": 68,
      "start": 2.8724,
      "duration": 0.0268,
      "velocity": 100,
      "chip": "ym2612"
    },
    {
      "channel": 2,
      "note": 41,
      "start": 2.8727,
      "duration": 0.0126,
      "velocity": 115,
      "chip": "ym2612"
    },
    {
      "channel": 1,
      "note": 75,
      "start": 2.8852,
      "duration": 0.0152,
      "velocity": 103,
      "chip": "ym2612"
    },
    {
      "channel": 2,
      "note": 48,
      "start": 2.8855,
      "duration": 0.015,
      "velocity": 115,
      "chip": "ym2612"
    },
    {
      "channel": 0,
      "note": 32,
      "start": 2.9003,
      "duration": 0.0249,
      "velocity": 114,
      "chip": "ym2612"
    },
    {
      "channel": 2,
      "note": 41,
      "start": 2.9007,
      "duration": 0.0121,
      "velocity": 115,
      "chip": "ym2612"
    },
    {
      "channel": 1,
      "note": 76,
      "start": 2.9127,
      "duration": 0.0138,
      "velocity": 103,
      "chip": "ym2612"
    },
    {
      "channel": 2,
      "note": 48,
      "start": 2.9129,
      "duration": 0.0138,
      "velocity": 115,
      "chip": "ym2612"
    },
    {
      "channel": 0,
      "note": 68,
      "start": 2.9264,
      "duration": 0.0253,
      "velocity": 100,
      "chip": "ym2612"
    },
    {
      "channel": 1,
      "note": 75,
      "start": 2.9267,
      "duration": 0.0263,
      "velocity": 103,
      "chip": "ym2612"
    },
    {
      "channel": 2,
      "note": 49,
      "start": 2.9269,
      "duration": 0.0123,
      "velocity": 115,
      "chip": "ym2612"
    },
    {
      "channel": 2,
      "note": 48,
      "start": 2.9394,
      "duration": 0.0138,
      "velocity": 115,
      "chip": "ym2612"
    },
    {
      "channel": 0,
      "note": 32,
      "start": 2.9529,
      "duration": 0.0266,
      "velocity": 114,
      "chip": "ym2612"
    },
    {
      "channel": 1,
      "note": 82,
      "start": 2.9532,
      "duration": 0.0143,
      "velocity": 103,
      "chip": "ym2612"
    },
    {
      "channel": 2,
      "note": 46,
      "start": 2.9534,
      "duration": 0.0141,
      "velocity": 115,
      "chip": "ym2612"
    },
    {
      "channel": 2,
      "note": 53,
      "start": 2.9677,
      "duration": 0.0133,
      "velocity": 115,
      "chip": "ym2612"
    },
    {
      "channel": 0,
      "note": 68,
      "start": 2.9807,
      "duration": 0.0254,
      "velocity": 100,
      "chip": "ym2612"
    },
    {
      "channel": 1,
      "note": 82,
      "start": 2.981,
      "duration": 0.0126,
      "velocity": 103,
      "chip": "ym2612"
    },
    {
      "channel": 2,
      "note": 46,
      "start": 2.9812,
      "duration": 0.0124,
      "velocity": 115,
      "chip": "ym2612"
    },
    {
      "channel": 2,
      "note": 53,
      "start": 2.9938,
      "duration": 0.0139,
      "velocity": 115,
      "chip": "ym2612"
    },
    {
      "channel": 0,
      "note": 32,
      "start": 3.0074,
      "duration": 0.0268,
      "velocity": 114,
      "chip": "ym2612"
    },
    {
      "channel": 1,
      "note": 94,
      "start": 3.0076,
      "duration": 0.0126,
      "velocity": 103,
      "chip": "ym2612"
    },
    {
      "channel": 2,
      "note": 46,
      "start": 3.0078,
      "duration": 0.0124,
      "velocity": 115,
      "chip": "ym2612"
    },
    {
      "channel": 2,
      "note": 53,
      "start": 3.0204,
      "duration": 0.0152,
      "velocity": 115,
      "chip": "ym2612"
    },
    {
      "channel": 0,
      "note": 68,
      "start": 3.0354,
      "duration": 0.025,
      "velocity": 100,
      "chip": "ym2612"
    },
    {
      "channel": 1,
      "note": 82,
      "start": 3.0356,
      "duration": 0.0122,
      "velocity": 103,
      "chip": "ym2612"
    },
    {
      "channel": 2,
      "note": 46,
      "start": 3.0359,
      "duration": 0.012,
      "velocity": 115,
      "chip": "ym2612"
    },
    {
      "channel": 2,
      "note": 53,
      "start": 3.0481,
      "duration": 0.0138,
      "velocity": 115,
      "chip": "ym2612"
    },
    {
      "channel": 0,
      "note": 32,
      "start": 3.0616,
      "duration": 0.0256,
      "velocity": 114,
      "chip": "ym2612"
    },
    {
      "channel": 1,
      "note": 89,
      "start": 3.0618,
      "duration": 0.0127,
      "velocity": 103,
      "chip": "ym2612"
    },
    {
      "channel": 2,
      "note": 41,
      "start": 3.0621,
      "duration": 0.0127,
      "velocity": 115,
      "chip": "ym2612"
    },
    {
      "channel": 1,
      "note": 88,
      "start": 3.0747,
      "duration": 0.0139,
      "velocity": 103,
      "chip": "ym2612"
    },
    {
      "channel": 2,
      "note": 48,
      "start": 3.0749,
      "duration": 0.0137,
      "velocity": 115,
      "chip": "ym2612"
    },
    {
      "channel": 0,
      "note": 68,
      "start": 3.0885,
      "duration": 0.0264,
      "velocity": 100,
      "chip": "ym2612"
    },
    {
      "channel": 2,
      "note": 41,
      "start": 3.0888,
      "duration": 0.014,
      "velocity": 115,
      "chip": "ym2612"
    },
    {
      "channel": 1,
      "note": 87,
      "start": 3.1027,
      "duration": 0.0134,
      "velocity": 103,
      "chip": "ym2612"
    },
    {
      "channel": 2,
      "note": 48,
      "start": 3.1029,
      "duration": 0.0133,
      "velocity": 115,
      "chip": "ym2612"
    },
    {
      "channel": 0,
      "note": 32,
      "start": 3.1161,
      "duration": 0.0254,
      "velocity": 114,
      "chip": "ym2612"
    },
    {
      "channel": 2,
      "note": 41,
      "start": 3.1165,
      "duration": 0.0126,
      "velocity": 115,
      "chip": "ym2612"
    },
    {
      "channel": 1,
      "note": 88,
      "start": 3.129,
      "duration": 0.0138,
      "velocity": 103,
      "chip": "ym2612"
    },
    {
      "channel": 2,
      "note": 48,
      "start": 3.1292,
      "duration": 0.0139,
      "velocity": 115,
      "chip": "ym2612"
    },
    {
      "channel": 0,
      "note": 68,
      "start": 3.1428,
      "duration": 0.0267,
      "velocity": 100,
      "chip": "ym2612"
    },
    {
      "channel": 1,
      "note": 87,
      "start": 3.1431,
      "duration": 0.0277,
      "velocity": 103,
      "chip": "ym2612"
    },
    {
      "channel": 2,
      "note": 49,
      "start": 3.1433,
      "duration": 0.0122,
      "velocity": 115,
      "chip": "ym2612"
    },
    {
      "channel": 2,
      "note": 48,
      "start": 3.1557,
      "duration": 0.0153,
      "velocity": 115,
      "chip": "ym2612"
    },
    {
      "channel": 0,
      "note": 32,
      "start": 3.1707,
      "duration": 0.0251,
      "velocity": 114,
      "chip": "ym2612"
    },
    {
      "channel": 1,
      "note": 82,
      "start": 3.171,
      "duration": 0.0124,
      "velocity": 103,
      "chip": "ym2612"
    },
    {
      "channel": 2,
      "note": 46,
      "start": 3.1712,
      "duration": 0.0122,
      "velocity": 115,
      "chip": "ym2612"
    },
    {
      "channel": 2,
      "note": 53,
      "start": 3.1837,
      "duration": 0.0137,
      "velocity": 115,
      "chip": "ym2612"
    },
    {
      "channel": 0,
      "note": 68,
      "start": 3.197,
      "duration": 0.0254,
      "velocity": 100,
      "chip": "ym2612"
    },
    {
      "channel": 1,
      "note": 82,
      "start": 3.1973,
      "duration": 0.0127,
      "velocity": 103,
      "chip": "ym2612"
    },
    {
      "channel": 2,
      "note": 46,
      "start": 3.1975,
      "duration": 0.0125,
      "velocity": 115,
      "chip": "ym2612"
    },
    {
      "channel": 2,
      "note": 53,
      "start": 3.2102,
      "duration": 0.0138,
      "velocity": 115,
      "chip": "ym2612"
    },
    {
      "channel": 0,
      "note": 32,
      "start": 3.2237,
      "duration": 0.0263,
      "velocity": 114,
      "chip": "ym2612"
    },
    {
      "channel": 1,
      "note": 94,
      "start": 3.2239,
      "duration": 0.0139,
      "velocity": 103,
      "chip": "ym2612"
    },
    {
      "channel": 2,
      "note": 46,
      "start": 3.2241,
      "duration": 0.0138,
      "velocity": 115,
      "chip": "ym2612"
    },
    {
      "channel": 2,
      "note": 53,
      "start": 3.2381,
      "duration": 0.0134,
      "velocity": 115,
      "chip": "ym2612"
    },
    {
      "channel": 0,
      "note": 68,
      "start": 3.2512,
      "duration": 0.0255,
      "velocity": 100,
      "chip": "ym2612"
    },
    {
      "channel": 1,
      "note": 82,
      "start": 3.2514,
      "duration": 0.0126,
      "velocity": 103,
      "chip": "ym2612"
    },
    {
      "channel": 2,
      "note": 46,
      "start": 3.2517,
      "duration": 0.0124,
      "velocity": 115,
      "chip": "ym2612"
    },
    {
      "channel": 2,
      "note": 53,
      "start": 3.2643,
      "duration": 0.0138,
      "velocity": 115,
      "chip": "ym2612"
    },
    {
      "channel": 0,
      "note": 32,
      "start": 3.2779,
      "duration": 0.0269,
      "velocity": 114,
      "chip": "ym2612"
    },
    {
      "channel": 1,
      "note": 89,
      "start": 3.278,
      "duration": 0.0125,
      "velocity": 103,
      "chip": "ym2612"
    },
    {
      "channel": 2,
      "note": 41,
      "start": 3.2783,
      "duration": 0.0125,
      "velocity": 115,
      "chip": "ym2612"
    },
    {
      "channel": 1,
      "note": 88,
      "start": 3.2907,
      "duration": 0.0153,
      "velocity": 103,
      "chip": "ym2612"
    },
    {
      "channel": 2,
      "note": 48,
      "start": 3.291,
      "duration": 0.0152,
      "velocity": 115,
      "chip": "ym2612"
    },
    {
      "channel": 0,
      "note": 68,
      "start": 3.306,
      "duration": 0.025,
      "velocity": 100,
      "chip": "ym2612"
    },
    {
      "channel": 2,
      "note": 41,
      "start": 3.3063,
      "duration": 0.0122,
      "velocity": 115,
      "chip": "ym2612"
    },
    {
      "channel": 1,
      "note": 87,
      "start": 3.3184,
      "duration": 0.0139,
      "velocity": 103,
      "chip": "ym2612"
    },
    {
      "channel": 2,
      "note": 48,
      "start": 3.3187,
      "duration": 0.0137,
      "velocity": 115,
      "chip": "ym2612"
    },
    {
      "channel": 0,
      "note": 32,
      "start": 3.3323,
      "duration": 0.0255,
      "velocity": 114,
      "chip": "ym2612"
    },
    {
      "channel": 2,
      "note": 41,
      "start": 3.3326,
      "duration": 0.0127,
      "velocity": 115,
      "chip": "ym2612"
    },
    {
      "channel": 1,
      "note": 88,
      "start": 3.3452,
      "duration": 0.0139,
      "velocity": 103,
      "chip": "ym2612"
    },
    {
      "channel": 2,
      "note": 48,
      "start": 3.3454,
      "duration": 0.0138,
      "velocity": 115,
      "chip": "ym2612"
    },
    {
      "channel": 0,
      "note": 68,
      "start": 3.359,
      "duration": 0.0265,
      "velocity": 100,
      "chip": "ym2612"
    },
    {
      "channel": 1,
      "note": 87,
      "start": 3.3592,
      "duration": 0.0276,
      "velocity": 103,
      "chip": "ym2612"
    },
    {
      "channel": 2,
      "note": 49,
      "start": 3.3594,
      "duration": 0.0138,
      "velocity": 115,
      "chip": "ym2612"
    },
    {
      "channel": 2,
      "note": 48,
      "start": 3.3734,
      "duration": 0.0136,
      "velocity": 115,
      "chip": "ym2612"
    },
    {
      "channel": 0,
      "note": 32,
      "start": 3.3867,
      "duration": 0.0257,
      "velocity": 114,
      "chip": "ym2612"
    },
    {
      "channel": 1,
      "note": 70,
      "start": 3.3869,
      "duration": 0.0129,
      "velocity": 103,
      "chip": "ym2612"
    },
    {
      "channel": 2,
      "note": 46,
      "start": 3.3873,
      "duration": 0.0127,
      "velocity": 115,
      "chip": "ym2612"
    },
    {
      "channel": 2,
      "note": 53,
      "start": 3.4001,
      "duration": 0.0137,
      "velocity": 115,
      "chip": "ym2612"
    },
    {
      "channel": 0,
      "note": 68,
      "start": 3.4135,
      "duration": 0.0266,
      "velocity": 100,
      "chip": "ym2612"
    },
    {
      "channel": 1,
      "note": 70,
      "start": 3.4138,
      "duration": 0.0125,
      "velocity": 103,
      "chip": "ym2612"
    },
    {
      "channel": 2,
      "note": 46,
      "start": 3.414,
      "duration": 0.0123,
      "velocity": 115,
      "chip": "ym2612"
    },
    {
      "channel": 2,
      "note": 53,
      "start": 3.4266,
      "duration": 0.0151,
      "velocity": 115,
      "chip": "ym2612"
    },
    {
      "channel": 0,
      "note": 32,
      "start": 3.4414,
      "duration": 0.0249,
      "velocity": 114,
      "chip": "ym2612"
    },
    {
      "channel": 1,
      "note": 82,
      "start": 3.4416,
      "duration": 0.0121,
      "velocity": 103,
      "chip": "ym2612"
    },
    {
      "channel": 2,
      "note": 46,
      "start": 3.4418,
      "duration": 0.012,
      "velocity": 115,
      "chip": "ym2612"
    },
    {
      "channel": 2,
      "note": 53,
      "start": 3.454,
      "duration": 0.0138,
      "velocity": 115,
      "chip": "ym2612"
    },
    {
      "channel": 0,
      "note": 68,
      "start": 3.4675,
      "duration": 0.0253,
      "velocity": 100,
      "chip": "ym2612"
    },
    {
      "channel": 1,
      "note": 70,
      "start": 3.4677,
      "duration": 0.0125,
      "velocity": 103,
      "chip": "ym2612"
    },
    {
      "channel": 2,
      "note": 46,
      "start": 3.468,
      "duration": 0.0124,
      "velocity": 115,
      "chip": "ym2612"
    },
    {
      "channel": 2,
      "note": 53,
      "start": 3.4805,
      "duration": 0.0138,
      "velocity": 115,
      "chip": "ym2612"
    },
    {
      "channel": 0,
      "note": 32,
      "start": 3.494,
      "duration": 0.0265,
      "velocity": 114,
      "chip": "ym2612"
    },
    {
      "channel": 1,
      "note": 77,
      "start": 3.4942,
      "duration": 0.0139,
      "velocity": 103,
      "chip": "ym2612"
    },
    {
      "channel": 2,
      "note": 41,
      "start": 3.4944,
      "duration": 0.014,
      "velocity": 115,
      "chip": "ym2612"
    },
    {
      "channel": 1,
      "note": 76,
      "start": 3.5084,
      "duration": 0.0134,
      "velocity": 103,
      "chip": "ym2612"
    },
    {
      "channel": 2,
      "note": 48,
      "start": 3.5086,
      "duration": 0.0133,
      "velocity": 115,
      "chip": "ym2612"
    },
    {
      "channel": 0,
      "note": 68,
      "start": 3.5217,
      "duration": 0.0256,
      "velocity": 100,
      "chip": "ym2612"
    },
    {
      "channel": 2,
      "note": 41,
      "start": 3.522,
      "duration": 0.0127,
      "velocity": 115,
      "chip": "ym2612"
    },
    {
      "channel": 1,
      "note": 75,
      "start": 3.5347,
      "duration": 0.0138,
      "velocity": 103,
      "chip": "ym2612"
    },
    {
      "channel": 2,
      "note": 48,
      "start": 3.5349,
      "duration": 0.0138,
      "velocity": 115,
      "chip": "ym2612"
    },
    {
      "channel": 0,
      "note": 32,
      "start": 3.5485,
      "duration": 0.0268,
      "velocity": 114,
      "chip": "ym2612"
    },
    {
      "channel": 2,
      "note": 41,
      "start": 3.5489,
      "duration": 0.0125,
      "velocity": 115,
      "chip": "ym2612"
    },
    {
      "channel": 1,
      "note": 76,
      "start": 3.5613,
      "duration": 0.0153,
      "velocity": 103,
      "chip": "ym2612"
    },
    {
      "channel": 2,
      "note": 48,
      "start": 3.5616,
      "duration": 0.0152,
      "velocity": 115,
      "chip": "ym2612"
    },
    {
      "channel": 0,
      "note": 68,
      "start": 3.5765,
      "duration": 0.0249,
      "velocity": 100,
      "chip": "ym2612"
    },
    {
      "channel": 1,
      "note": 75,
      "start": 3.5767,
      "duration": 0.026,
      "velocity": 103,
      "chip": "ym2612"
    },
    {
      "channel": 2,
      "note": 49,
      "start": 3.577,
      "duration": 0.0119,
      "velocity": 115,
      "chip": "ym2612"
    },
    {
      "channel": 2,
      "note": 48,
      "start": 3.5891,
      "duration": 0.0138,
      "velocity": 115,
      "chip": "ym2612"
    },
    {
      "channel": 0,
      "note": 32,
      "start": 3.6027,
      "duration": 0.0258,
      "velocity": 114,
      "chip": "ym2612"
    },
    {
      "channel": 1,
      "note": 70,
      "start": 3.6029,
      "duration": 0.013,
      "velocity": 103,
      "chip": "ym2612"
    },
    {
      "channel": 2,
      "note": 46,
      "start": 3.6032,
      "duration": 0.0128,
      "velocity": 115,
      "chip": "ym2612"
    },
    {
      "channel": 2,
      "note": 53,
      "start": 3.6162,
      "duration": 0.0138,
      "velocity": 115,
      "chip": "ym2612"
    },
    {
      "channel": 0,
      "note": 68,
      "start": 3.6297,
      "duration": 0.0263,
      "velocity": 100,
      "chip": "ym2612"
    },
    {
      "channel": 1,
      "note": 70,
      "start": 3.6299,
      "duration": 0.014,
      "velocity": 103,
      "chip": "ym2612"
    },
    {
      "channel": 2,
      "note": 46,
      "start": 3.6302,
      "duration": 0.0138,
      "velocity": 115,
      "chip": "ym2612"
    },
    {
      "channel": 2,
      "note": 53,
      "start": 3.6442,
      "duration": 0.0133,
      "velocity": 115,
      "chip": "ym2612"
    },
    {
      "channel": 0,
      "note": 32,
      "start": 3.6573,
      "duration": 0.0254,
      "velocity": 114,
      "chip": "ym2612"
    },
    {
      "channel": 1,
      "note": 82,
      "start": 3.6575,
      "duration": 0.0126,
      "velocity": 103,
      "chip": "ym2612"
    },
    {
      "channel": 2,
      "note": 46,
      "start": 3.6577,
      "duration": 0.0124,
      "velocity": 115,
      "chip": "ym2612"
    },
    {
      "channel": 2,
      "note": 53,
      "start": 3.6703,
      "duration": 0.0139,
      "velocity": 115,
      "chip": "ym2612"
    },
    {
      "channel": 0,
      "note": 68,
      "start": 3.6839,
      "duration": 0.0267,
      "velocity": 100,
      "chip": "ym2612"
    },
    {
      "channel": 1,
      "note": 70,
      "start": 3.6841,
      "duration": 0.0125,
      "velocity": 103,
      "chip": "ym2612"
    },
    {
      "channel": 2,
      "note": 46,
      "start": 3.6844,
      "duration": 0.0123,
      "velocity": 115,
      "chip": "ym2612"
    },
    {
      "channel": 2,
      "note": 53,
      "start": 3.6969,
      "duration": 0.0152,
      "velocity": 115,
      "chip": "ym2612"
    },
    {
      "channel": 0,
      "note": 32,
      "start": 3.7118,
      "duration": 0.0251,
      "velocity": 114,
      "chip": "ym2612"
    },
    {
      "channel": 1,
      "note": 77,
      "start": 3.7121,
      "duration": 0.0121,
      "velocity": 103,
      "chip": "ym2612"
    },
    {
      "channel": 2,
      "note": 41,
      "start": 3.7122,
      "duration": 0.0121,
      "velocity": 115,
      "chip": "ym2612"
    },
    {
      "channel": 1,
      "note": 76,
      "start": 3.7243,
      "duration": 0.0139,
      "velocity": 103,
      "chip": "ym2612"
    },
    {
      "channel": 2,
      "note": 48,
      "start": 3.7245,
      "duration": 0.0138,
      "velocity": 115,
      "chip": "ym2612"
    },
    {
      "channel": 0,
      "note": 68,
      "start": 3.7381,
      "duration": 0.0254,
      "velocity": 100,
      "chip": "ym2612"
    },
    {
      "channel": 2,
      "note": 41,
      "start": 3.7384,
      "duration": 0.0126,
      "velocity": 115,
      "chip": "ym2612"
    },
    {
      "channel": 1,
      "note": 75,
      "start": 3.7509,
      "duration": 0.0139,
      "velocity": 103,
      "chip": "ym2612"
    },
    {
      "channel": 2,
      "note": 48,
      "start": 3.7512,
      "duration": 0.0137,
      "velocity": 115,
      "chip": "ym2612"
    },
    {
      "channel": 0,
      "note": 32,
      "start": 3.7647,
      "duration": 0.0264,
      "velocity": 114,
      "chip": "ym2612"
    },
    {
      "channel": 2,
      "note": 41,
      "start": 3.765,
      "duration": 0.014,
      "velocity": 115,
      "chip": "ym2612"
    },
    {
      "channel": 1,
      "note": 76,
      "start": 3.779,
      "duration": 0.0134,
      "velocity": 103,
      "chip": "ym2612"
    },
    {
      "channel": 2,
      "note": 48,
      "start": 3.7792,
      "duration": 0.0134,
      "velocity": 115,
      "chip": "ym2612"
    },
    {
      "channel": 0,
      "note": 68,
      "start": 3.7923,
      "duration": 0.0255,
      "velocity": 100,
      "chip": "ym2612"
    },
    {
      "channel": 1,
      "note": 75,
      "start": 3.7925,
      "duration": 0.0265,
      "velocity": 103,
      "chip": "ym2612"
    },
    {
      "channel": 2,
      "note": 49,
      "start": 3.7928,
      "duration": 0.0124,
      "velocity": 115,
      "chip": "ym2612"
    },
    {
      "channel": 2,
      "note": 48,
      "start": 3.8054,
      "duration": 0.0138,
      "velocity": 115,
      "chip": "ym2612"
    },
    {
      "channel": 0,
      "note": 32,
      "start": 3.819,
      "duration": 0.027,
      "velocity": 114,
      "chip": "ym2612"
    },
    {
      "channel": 1,
      "note": 82,
      "start": 3.8192,
      "duration": 0.0129,
      "velocity": 103,
      "chip": "ym2612"
    },
    {
      "channel": 2,
      "note": 46,
      "start": 3.8195,
      "duration": 0.0127,
      "velocity": 115,
      "chip": "ym2612"
    },
    {
      "channel": 2,
      "note": 53,
      "start": 3.8323,
      "duration": 0.0151,
      "velocity": 115,
      "chip": "ym2612"
    },
    {
      "channel": 0,
      "note": 68,
      "start": 3.8472,
      "duration": 0.025,
      "velocity": 100,
      "chip": "ym2612"
    },
    {
      "channel": 1,
      "note": 82,
      "start": 3.8474,
      "duration": 0.0122,
      "velocity": 103,
      "chip": "ym2612"
    },
    {
      "channel": 2,
      "note": 46,
      "start": 3.8477,
      "duration": 0.012,
      "velocity": 115,
      "chip": "ym2612"
    },
    {
      "channel": 2,
      "note": 53,
      "start": 3.8599,
      "duration": 0.0138,
      "velocity": 115,
      "chip": "ym2612"
    },
    {
      "channel": 0,
      "note": 32,
      "start": 3.8734,
      "duration": 0.0254,
      "velocity": 114,
      "chip": "ym2612"
    },
    {
      "channel": 1,
      "note": 94,
      "start": 3.8736,
      "duration": 0.0127,
      "velocity": 103,
      "chip": "ym2612"
    },
    {
      "channel": 2,
      "note": 46,
      "start": 3.8739,
      "duration": 0.0125,
      "velocity": 115,
      "chip": "ym2612"
    },
    {
      "channel": 2,
      "note": 53,
      "start": 3.8866,
      "duration": 0.0138,
      "velocity": 115,
      "chip": "ym2612"
    },
    {
      "channel": 0,
      "note": 68,
      "start": 3.9001,
      "duration": 0.0262,
      "velocity": 100,
      "chip": "ym2612"
    },
    {
      "channel": 1,
      "note": 82,
      "start": 3.9003,
      "duration": 0.014,
      "velocity": 103,
      "chip": "ym2612"
    },
    {
      "channel": 2,
      "note": 46,
      "start": 3.9005,
      "duration": 0.0138,
      "velocity": 115,
      "chip": "ym2612"
    },
    {
      "channel": 2,
      "note": 53,
      "start": 3.9145,
      "duration": 0.0133,
      "velocity": 115,
      "chip": "ym2612"
    },
    {
      "channel": 0,
      "note": 32,
      "start": 3.9276,
      "duration": 0.0255,
      "velocity": 114,
      "chip": "ym2612"
    },
    {
      "channel": 1,
      "note": 89,
      "start": 3.9278,
      "duration": 0.0126,
      "velocity": 103,
      "chip": "ym2612"
    },
    {
      "channel": 2,
      "note": 41,
      "start": 3.928,
      "duration": 0.0125,
      "velocity": 115,
      "chip": "ym2612"
    },
    {
      "channel": 1,
      "note": 88,
      "start": 3.9405,
      "duration": 0.0139,
      "velocity": 103,
      "chip": "ym2612"
    },
    {
      "channel": 2,
      "note": 48,
      "start": 3.9407,
      "duration": 0.0138,
      "velocity": 115,
      "chip": "ym2612"
    },
    {
      "channel": 0,
      "note": 68,
      "start": 3.9543,
      "duration": 0.0267,
      "velocity": 100,
      "chip": "ym2612"
    },
    {
      "channel": 2,
      "note": 41,
      "start": 3.9546,
      "duration": 0.0125,
      "velocity": 115,
      "chip": "ym2612"
    },
    {
      "channel": 1,
      "note": 87,
      "start": 3.9671,
      "duration": 0.0152,
      "velocity": 103,
      "chip": "ym2612"
    },
    {
      "channel": 2,
      "note": 48,
      "start": 3.9673,
      "duration": 0.015,
      "velocity": 115,
      "chip": "ym2612"
    },
    {
      "channel": 0,
      "note": 32,
      "start": 3.9822,
      "duration": 0.0249,
      "velocity": 114,
      "chip": "ym2612"
    },
    {
      "channel": 2,
      "note": 41,
      "start": 3.9825,
      "duration": 0.0121,
      "velocity": 115,
      "chip": "ym2612"
    },
    {
      "channel": 1,
      "note": 88,
      "start": 3.9946,
      "duration": 0.0138,
      "velocity": 103,
      "chip": "ym2612"
    },
    {
      "channel": 2,
      "note": 48,
      "start": 3.9948,
      "duration": 0.0138,
      "velocity": 115,
      "chip": "ym2612"
    },
    {
      "channel": 0,
      "note": 68,
      "start": 4.0083,
      "duration": 0.0255,
      "velocity": 100,
      "chip": "ym2612"
    },
    {
      "channel": 1,
      "note": 87,
      "start": 4.0085,
      "duration": 0.0265,
      "velocity": 103,
      "chip": "ym2612"
    },
    {
      "channel": 2,
      "note": 49,
      "start": 4.0088,
      "duration": 0.0124,
      "velocity": 115,
      "chip": "ym2612"
    },
    {
      "channel": 2,
      "note": 48,
      "start": 4.0214,
      "duration": 0.0139,
      "velocity": 115,
      "chip": "ym2612"
    },
    {
      "channel": 0,
      "note": 32,
      "start": 4.035,
      "duration": 0.0267,
      "velocity": 114,
      "chip": "ym2612"
    },
    {
      "channel": 1,
      "note": 82,
      "start": 4.0352,
      "duration": 0.0143,
      "velocity": 103,
      "chip": "ym2612"
    },
    {
      "channel": 2,
      "note": 46,
      "start": 4.0355,
      "duration": 0.0141,
      "velocity": 115,
      "chip": "ym2612"
    },
    {
      "channel": 2,
      "note": 53,
      "start": 4.0498,
      "duration": 0.0134,
      "velocity": 115,
      "chip": "ym2612"
    },
    {
      "channel": 0,
      "note": 68,
      "start": 4.0629,
      "duration": 0.0254,
      "velocity": 100,
      "chip": "ym2612"
    },
    {
      "channel": 1,
      "note": 82,
      "start": 4.0631,
      "duration": 0.0127,
      "velocity": 103,
      "chip": "ym2612"
    },
    {
      "channel": 2,
      "note": 46,
      "start": 4.0634,
      "duration": 0.0125,
      "velocity": 115,
      "chip": "ym2612"
    },
    {
      "channel": 2,
      "note": 53,
      "start": 4.076,
      "duration": 0.0138,
      "velocity": 115,
      "chip": "ym2612"
    },
    {
      "channel": 0,
      "note": 32,
      "start": 4.0896,
      "duration": 0.0268,
      "velocity": 114,
      "chip": "ym2612"
    },
    {
      "channel": 1,
      "note": 94,
      "start": 4.0898,
      "duration": 0.0127,
      "velocity": 103,
      "chip": "ym2612"
    },
    {
      "channel": 2,
      "note": 46,
      "start": 4.09,
      "duration": 0.0125,
      "velocity": 115,
      "chip": "ym2612"
    },
    {
      "channel": 2,
      "note": 53,
      "start": 4.1027,
      "duration": 0.0152,
      "velocity": 115,
      "chip": "ym2612"
    },
    {
      "channel": 0,
      "note": 68,
      "start": 4.1176,
      "duration": 0.0251,
      "velocity": 100,
      "chip": "ym2612"
    },
    {
      "channel": 1,
      "note": 82,
      "start": 4.1178,
      "duration": 0.0122,
      "velocity": 103,
      "chip": "ym2612"
    },
    {
      "channel": 2,
      "note": 46,
      "start": 4.118,
      "duration": 0.012,
      "velocity": 115,
      "chip": "ym2612"
    },
    {
      "channel": 2,
      "note": 53,
      "start": 4.1302,
      "duration": 0.0139,
      "velocity": 115,
      "chip": "ym2612"
    },
    {
      "channel": 0,
      "note": 32,
      "start": 4.1439,
      "duration": 0.0256,
      "velocity": 114,
      "chip": "ym2612"
    },
    {
      "channel": 1,
      "note": 89,
      "start": 4.1441,
      "duration": 0.0127,
      "velocity": 103,
      "chip": "ym2612"
    },
    {
      "channel": 2,
      "note": 41,
      "start": 4.1443,
      "duration": 0.0126,
      "velocity": 115,
      "chip": "ym2612"
    },
    {
      "channel": 1,
      "note": 88,
      "start": 4.1568,
      "duration": 0.0139,
      "velocity": 103,
      "chip": "ym2612"
    },
    {
      "channel": 2,
      "note": 48,
      "start": 4.1571,
      "duration": 0.0137,
      "velocity": 115,
      "chip": "ym2612"
    },
    {
      "channel": 0,
      "note": 68,
      "start": 4.1706,
      "duration": 0.0261,
      "velocity": 100,
      "chip": "ym2612"
    },
    {
      "channel": 2,
      "note": 41,
      "start": 4.171,
      "duration": 0.0138,
      "velocity": 115,
      "chip": "ym2612"
    },
    {
      "channel": 1,
      "note": 87,
      "start": 4.1847,
      "duration": 0.0134,
      "velocity": 103,
      "chip": "ym2612"
    },
    {
      "channel": 2,
      "note": 48,
      "start": 4.185,
      "duration": 0.0132,
      "velocity": 115,
      "chip": "ym2612"
    },
    {
      "channel": 0,
      "note": 32,
      "start": 4.198,
      "duration": 0.0253,
      "velocity": 114,
      "chip": "ym2612"
    },
    {
      "channel": 2,
      "note": 41,
      "start": 4.1984,
      "duration": 0.0126,
      "velocity": 115,
      "chip": "ym2612"
    },
    {
      "channel": 1,
      "note": 88,
      "start": 4.2109,
      "duration": 0.0138,
      "velocity": 103,
      "chip": "ym2612"
    },
    {
      "channel": 2,
      "note": 48,
      "start": 4.211,
      "duration": 0.0139,
      "velocity": 115,
      "chip": "ym2612"
    },
    {
      "channel": 0,
      "note": 68,
      "start": 4.2246,
      "duration": 0.0268,
      "velocity": 100,
      "chip": "ym2612"
    },
    {
      "channel": 1,
      "note": 87,
      "start": 4.2248,
      "duration": 0.0278,
      "velocity": 103,
      "chip": "ym2612"
    },
    {
      "channel": 2,
      "note": 49,
      "start": 4.2251,
      "duration": 0.0122,
      "velocity": 115,
      "chip": "ym2612"
    },
    {
      "channel": 2,
      "note": 48,
      "start": 4.2375,
      "duration": 0.0154,
      "velocity": 115,
      "chip": "ym2612"
    },
    {
      "channel": 0,
      "note": 58,
      "start": 4.2526,
      "duration": 0.0139,
      "velocity": 76,
      "chip": "ym2612"
    },
    {
      "channel": 1,
      "note": 70,
      "start": 4.2529,
      "duration": 0.0137,
      "velocity": 103,
      "chip": "ym2612"
    },
    {
      "channel": 2,
      "note": 46,
      "start": 4.2532,
      "duration": 0.0135,
      "velocity": 115,
      "chip": "ym2612"
    },
    {
      "channel": 3,
      "note": 32,
      "start": 4.2544,
      "duration": 0.0125,
      "velocity": 114,
      "chip": "ym2612"
    },
    {
      "channel": 2,
      "note": 53,
      "start": 4.2668,
      "duration": 0.0138,
      "velocity": 115,
      "chip": "ym2612"
    },
    {
      "channel": 3,
      "note": 68,
      "start": 4.2681,
      "duration": 0.0128,
      "velocity": 100,
      "chip": "ym2612"
    },
    {
      "channel": 1,
      "note": 70,
      "start": 4.2806,
      "duration": 0.0129,
      "velocity": 103,
      "chip": "ym2612"
    },
    {
      "channel": 2,
      "note": 46,
      "start": 4.2808,
      "duration": 0.0128,
      "velocity": 115,
      "chip": "ym2612"
    },
    {
      "channel": 3,
      "note": 68,
      "start": 4.2811,
      "duration": 0.0128,
      "velocity": 100,
      "chip": "ym2612"
    },
    {
      "channel": 2,
      "note": 53,
      "start": 4.2938,
      "duration": 0.0131,
      "velocity": 115,
      "chip": "ym2612"
    },
    {
      "channel": 3,
      "note": 68,
      "start": 4.2941,
      "duration": 0.0131,
      "velocity": 100,
      "chip": "ym2612"
    },
    {
      "channel": 0,
      "note": 70,
      "start": 4.3066,
      "duration": 0.0558,
      "velocity": 76,
      "chip": "ym2612"
    },
    {
      "channel": 1,
      "note": 82,
      "start": 4.3069,
      "duration": 0.0152,
      "velocity": 103,
      "chip": "ym2612"
    },
    {
      "channel": 2,
      "note": 46,
      "start": 4.3071,
      "duration": 0.0151,
      "velocity": 115,
      "chip": "ym2612"
    },
    {
      "channel": 3,
      "note": 84,
      "start": 4.3083,
      "duration": 0.014,
      "velocity": 127,
      "chip": "ym2612"
    },
    {
      "channel": 2,
      "note": 53,
      "start": 4.3223,
      "duration": 0.0134,
      "velocity": 115,
      "chip": "ym2612"
    },
    {
      "channel": 3,
      "note": 68,
      "start": 4.3236,
      "duration": 0.0124,
      "velocity": 100,
      "chip": "ym2612"
    },
    {
      "channel": 1,
      "note": 70,
      "start": 4.3357,
      "duration": 0.0129,
      "velocity": 103,
      "chip": "ym2612"
    },
    {
      "channel": 2,
      "note": 46,
      "start": 4.3359,
      "duration": 0.0127,
      "velocity": 115,
      "chip": "ym2612"
    },
    {
      "channel": 3,
      "note": 68,
      "start": 4.3362,
      "duration": 0.0127,
      "velocity": 100,
      "chip": "ym2612"
    },
    {
      "channel": 2,
      "note": 53,
      "start": 4.3488,
      "duration": 0.014,
      "velocity": 115,
      "chip": "ym2612"
    },
    {
      "channel": 3,
      "note": 84,
      "start": 4.3501,
      "duration": 0.0129,
      "velocity": 127,
      "chip": "ym2612"
    },
    {
      "channel": 0,
      "note": 65,
      "start": 4.3625,
      "duration": 0.014,
      "velocity": 76,
      "chip": "ym2612"
    },
    {
      "channel": 1,
      "note": 77,
      "start": 4.3627,
      "duration": 0.014,
      "velocity": 103,
      "chip": "ym2612"
    },
    {
      "channel": 2,
      "note": 41,
      "start": 4.363,
      "duration": 0.014,
      "velocity": 115,
      "chip": "ym2612"
    },
    {
      "channel": 3,
      "note": 32,
      "start": 4.3642,
      "duration": 0.013,
      "velocity": 114,
      "chip": "ym2612"
    },
    {
      "channel": 0,
      "note": 64,
      "start": 4.3767,
      "duration": 0.0419,
      "velocity": 76,
      "chip": "ym2612"
    },
    {
      "channel": 1,
      "note": 76,
      "start": 4.3769,
      "duration": 0.0153,
      "velocity": 103,
      "chip": "ym2612"
    },
    {
      "channel": 2,
      "note": 48,
      "start": 4.3771,
      "duration": 0.0151,
      "velocity": 115,
      "chip": "ym2612"
    },
    {
      "channel": 3,
      "note": 84,
      "start": 4.3784,
      "duration": 0.0141,
      "velocity": 127,
      "chip": "ym2612"
    },
    {
      "channel": 2,
      "note": 41,
      "start": 4.3924,
      "duration": 0.0134,
      "velocity": 115,
      "chip": "ym2612"
    },
    {
      "channel": 3,
      "note": 68,
      "start": 4.3937,
      "duration": 0.0124,
      "velocity": 100,
      "chip": "ym2612"
    },
    {
      "channel": 1,
      "note": 75,
      "start": 4.4057,
      "duration": 0.0131,
      "velocity": 103,
      "chip": "ym2612"
    },
    {
      "channel": 2,
      "note": 48,
      "start": 4.406,
      "duration": 0.0129,
      "velocity": 115,
      "chip": "ym2612"
    },
    {
      "channel": 3,
      "note": 68,
      "start": 4.4062,
      "duration": 0.0129,
      "velocity": 100,
      "chip": "ym2612"
    },
    {
      "channel": 0,
      "note": 63,
      "start": 4.4188,
      "duration": 0.0138,
      "velocity": 76,
      "chip": "ym2612"
    },
    {
      "channel": 2,
      "note": 41,
      "start": 4.4191,
      "duration": 0.0138,
      "velocity": 115,
      "chip": "ym2612"
    },
    {
      "channel": 3,
      "note": 84,
      "start": 4.4204,
      "duration": 0.0128,
      "velocity": 127,
      "chip": "ym2612"
    },
    {
      "channel": 1,
      "note": 76,
      "start": 4.4329,
      "duration": 0.0141,
      "velocity": 103,
      "chip": "ym2612"
    },
    {
      "channel": 2,
      "note": 48,
      "start": 4.4331,
      "duration": 0.0141,
      "velocity": 115,
      "chip": "ym2612"
    },
    {
      "channel": 3,
      "note": 68,
      "start": 4.4344,
      "duration": 0.0131,
      "velocity": 100,
      "chip": "ym2612"
    },
    {
      "channel": 0,
      "note": 61,
      "start": 4.4469,
      "duration": 0.0268,
      "velocity": 76,
      "chip": "ym2612"
    },
    {
      "channel": 1,
      "note": 75,
      "start": 4.4471,
      "duration": 0.0268,
      "velocity": 103,
      "chip": "ym2612"
    },
    {
      "channel": 2,
      "note": 49,
      "start": 4.4474,
      "duration": 0.0139,
      "velocity": 115,
      "chip": "ym2612"
    },
    {
      "channel": 3,
      "note": 68,
      "start": 4.4476,
      "duration": 0.0139,
      "velocity": 100,
      "chip": "ym2612"
    },
    {
      "channel": 2,
      "note": 48,
      "start": 4.4615,
      "duration": 0.0127,
      "velocity": 115,
      "chip": "ym2612"
    },
    {
      "channel": 3,
      "note": 68,
      "start": 4.4618,
      "duration": 0.0127,
      "velocity": 100,
      "chip": "ym2612"
    },
    {
      "channel": 0,
      "note": 58,
      "start": 4.4739,
      "duration": 0.0143,
      "velocity": 76,
      "chip": "ym2612"
    },
    {
      "channel": 1,
      "note": 70,
      "start": 4.4742,
      "duration": 0.0141,
      "velocity": 103,
      "chip": "ym2612"
    },
    {
      "channel": 2,
      "note": 46,
      "start": 4.4744,
      "duration": 0.0139,
      "velocity": 115,
      "chip": "ym2612"
    },
    {
      "channel": 3,
      "note": 32,
      "start": 4.4757,
      "duration": 0.0129,
      "velocity": 114,
      "chip": "ym2612"
    },
    {
      "channel": 2,
      "note": 53,
      "start": 4.4885,
      "duration": 0.0138,
      "velocity": 115,
      "chip": "ym2612"
    },
    {
      "channel": 3,
      "note": 68,
      "start": 4.4898,
      "duration": 0.0128,
      "velocity": 100,
      "chip": "ym2612"
    },
    {
      "channel": 1,
      "note": 70,
      "start": 4.5023,
      "duration": 0.0129,
      "velocity": 103,
      "chip": "ym2612"
    },
    {
      "channel": 2,
      "note": 46,
      "start": 4.5025,
      "duration": 0.0127,
      "velocity": 115,
      "chip": "ym2612"
    },
    {
      "channel": 3,
      "note": 68,
      "start": 4.5028,
      "duration": 0.0127,
      "velocity": 100,
      "chip": "ym2612"
    },
    {
      "channel": 2,
      "note": 53,
      "start": 4.5154,
      "duration": 0.0144,
      "velocity": 115,
      "chip": "ym2612"
    },
    {
      "channel": 3,
      "note": 68,
      "start": 4.5156,
      "duration": 0.0144,
      "velocity": 100,
      "chip": "ym2612"
    },
    {
      "channel": 0,
      "note": 70,
      "start": 4.5295,
      "duration": 0.0543,
      "velocity": 76,
      "chip": "ym2612"
    },
    {
      "channel": 1,
      "note": 82,
      "start": 4.5297,
      "duration": 0.0134,
      "velocity": 103,
      "chip": "ym2612"
    },
    {
      "channel": 2,
      "note": 46,
      "start": 4.53,
      "duration": 0.0132,
      "velocity": 115,
      "chip": "ym2612"
    },
    {
      "channel": 3,
      "note": 84,
      "start": 4.5312,
      "duration": 0.0122,
      "velocity": 127,
      "chip": "ym2612"
    },
    {
      "channel": 2,
      "note": 53,
      "start": 4.5433,
      "duration": 0.0138,
      "velocity": 115,
      "chip": "ym2612"
    },
    {
      "channel": 3,
      "note": 68,
      "start": 4.5446,
      "duration": 0.0128,
      "velocity": 100,
      "chip": "ym2612"
    },
    {
      "channel": 1,
      "note": 70,
      "start": 4.5571,
      "duration": 0.0129,
      "velocity": 103,
      "chip": "ym2612"
    },
    {
      "channel": 2,
      "note": 46,
      "start": 4.5573,
      "duration": 0.0127,
      "velocity": 115,
      "chip": "ym2612"
    },
    {
      "channel": 3,
      "note": 68,
      "start": 4.5576,
      "duration": 0.0127,
      "velocity": 100,
      "chip": "ym2612"
    },
    {
      "channel": 2,
      "note": 53,
      "start": 4.5702,
      "duration": 0.014,
      "velocity": 115,
      "chip": "ym2612"
    },
    {
      "channel": 3,
      "note": 84,
      "start": 4.5715,
      "duration": 0.013,
      "velocity": 127,
      "chip": "ym2612"
    },
    {
      "channel": 0,
      "note": 65,
      "start": 4.5839,
      "duration": 0.0154,
      "velocity": 76,
      "chip": "ym2612"
    },
    {
      "channel": 1,
      "note": 77,
      "start": 4.5841,
      "duration": 0.0154,
      "velocity": 103,
      "chip": "ym2612"
    },
    {
      "channel": 2,
      "note": 41,
      "start": 4.5844,
      "duration": 0.0154,
      "velocity": 115,
      "chip": "ym2612"
    },
    {
      "channel": 3,
      "note": 32,
      "start": 4.5857,
      "duration": 0.0144,
      "velocity": 114,
      "chip": "ym2612"
    },
    {
      "channel": 0,
      "note": 64,
      "start": 4.5995,
      "duration": 0.0405,
      "velocity": 76,
      "chip": "ym2612"
    },
    {
      "channel": 1,
      "note": 76,
      "start": 4.5998,
      "duration": 0.0134,
      "velocity": 103,
      "chip": "ym2612"
    },
    {
      "channel": 2,
      "note": 48,
      "start": 4.6,
      "duration": 0.0132,
      "velocity": 115,
      "chip": "ym2612"
    },
    {
      "channel": 3,
      "note": 84,
      "start": 4.6013,
      "duration": 0.0122,
      "velocity": 127,
      "chip": "ym2612"
    },
    {
      "channel": 2,
      "note": 41,
      "start": 4.6134,
      "duration": 0.0139,
      "velocity": 115,
      "chip": "ym2612"
    },
    {
      "channel": 3,
      "note": 68,
      "start": 4.6147,
      "duration": 0.0129,
      "velocity": 100,
      "chip": "ym2612"
    },
    {
      "channel": 1,
      "note": 75,
      "start": 4.6273,
      "duration": 0.0131,
      "velocity": 103,
      "chip": "ym2612"
    },
    {
      "channel": 2,
      "note": 48,
      "start": 4.6275,
      "duration": 0.0129,
      "velocity": 115,
      "chip": "ym2612"
    },
    {
      "channel": 3,
      "note": 68,
      "start": 4.6278,
      "duration": 0.0129,
      "velocity": 100,
      "chip": "ym2612"
    },
    {
      "channel": 0,
      "note": 63,
      "start": 4.6402,
      "duration": 0.014,
      "velocity": 76,
      "chip": "ym2612"
    },
    {
      "channel": 2,
      "note": 41,
      "start": 4.6406,
      "duration": 0.014,
      "velocity": 115,
      "chip": "ym2612"
    },
    {
      "channel": 3,
      "note": 84,
      "start": 4.6418,
      "duration": 0.0129,
      "velocity": 127,
      "chip": "ym2612"
    },
    {
      "channel": 1,
      "note": 76,
      "start": 4.6545,
      "duration": 0.0154,
      "velocity": 103,
      "chip": "ym2612"
    },
    {
      "channel": 2,
      "note": 48,
      "start": 4.6547,
      "duration": 0.0153,
      "velocity": 115,
      "chip": "ym2612"
    },
    {
      "channel": 3,
      "note": 68,
      "start": 4.6559,
      "duration": 0.0144,
      "velocity": 100,
      "chip": "ym2612"
    },
    {
      "channel": 0,
      "note": 61,
      "start": 4.6698,
      "duration": 0.0254,
      "velocity": 76,
      "chip": "ym2612"
    },
    {
      "channel": 1,
      "note": 75,
      "start": 4.67,
      "duration": 0.0255,
      "velocity": 103,
      "chip": "ym2612"
    },
    {
      "channel": 2,
      "note": 49,
      "start": 4.6702,
      "duration": 0.0122,
      "velocity": 115,
      "chip": "ym2612"
    },
    {
      "channel": 3,
      "note": 68,
      "start": 4.6705,
      "duration": 0.0122,
      "velocity": 100,
      "chip": "ym2612"
    },
    {
      "channel": 2,
      "note": 48,
      "start": 4.6826,
      "duration": 0.0132,
      "velocity": 115,
      "chip": "ym2612"
    },
    {
      "channel": 3,
      "note": 68,
      "start": 4.6829,
      "duration": 0.0132,
      "velocity": 100,
      "chip": "ym2612"
    },
    {
      "channel": 0,
      "note": 58,
      "start": 4.6954,
      "duration": 0.0143,
      "velocity": 76,
      "chip": "ym2612"
    },
    {
      "channel": 1,
      "note": 82,
      "start": 4.6957,
      "duration": 0.0141,
      "velocity": 103,
      "chip": "ym2612"
    },
    {
      "channel": 2,
      "note": 46,
      "start": 4.6959,
      "duration": 0.0139,
      "velocity": 115,
      "chip": "ym2612"
    },
    {
      "channel": 3,
      "note": 32,
      "start": 4.6972,
      "duration": 0.0129,
      "velocity": 114,
      "chip": "ym2612"
    },
    {
      "channel": 2,
      "note": 53,
      "start": 4.7101,
      "duration": 0.0138,
      "velocity": 115,
      "chip": "ym2612"
    },
    {
      "channel": 3,
      "note": 68,
      "start": 4.7114,
      "duration": 0.0127,
      "velocity": 100,
      "chip": "ym2612"
    },
    {
      "channel": 1,
      "note": 82,
      "start": 4.7238,
      "duration": 0.0142,
      "velocity": 103,
      "chip": "ym2612"
    },
    {
      "channel": 2,
      "note": 46,
      "start": 4.724,
      "duration": 0.014,
      "velocity": 115,
      "chip": "ym2612"
    },
    {
      "channel": 3,
      "note": 68,
      "start": 4.7243,
      "duration": 0.014,
      "velocity": 100,
      "chip": "ym2612"
    },
    {
      "channel": 2,
      "note": 53,
      "start": 4.7382,
      "duration": 0.0125,
      "velocity": 115,
      "chip": "ym2612"
    },
    {
      "channel": 3,
      "note": 68,
      "start": 4.7384,
      "duration": 0.0124,
      "velocity": 100,
      "chip": "ym2612"
    },
    {
      "channel": 0,
      "note": 70,
      "start": 4.7504,
      "duration": 0.0561,
      "velocity": 76,
      "chip": "ym2612"
    },
    {
      "channel": 1,
      "note": 94,
      "start": 4.7506,
      "duration": 0.0138,
      "velocity": 103,
      "chip": "ym2612"
    },
    {
      "channel": 2,
      "note": 46,
      "start": 4.7508,
      "duration": 0.0137,
      "velocity": 115,
      "chip": "ym2612"
    },
    {
      "channel": 3,
      "note": 84,
      "start": 4.7521,
      "duration": 0.0127,
      "velocity": 127,
      "chip": "ym2612"
    },
    {
      "channel": 2,
      "note": 53,
      "start": 4.7647,
      "duration": 0.0139,
      "velocity": 115,
      "chip": "ym2612"
    },
    {
      "channel": 3,
      "note": 68,
      "start": 4.766,
      "duration": 0.0128,
      "velocity": 100,
      "chip": "ym2612"
    },
    {
      "channel": 1,
      "note": 82,
      "start": 4.7785,
      "duration": 0.0128,
      "velocity": 103,
      "chip": "ym2612"
    },
    {
      "channel": 2,
      "note": 46,
      "start": 4.7787,
      "duration": 0.0127,
      "velocity": 115,
      "chip": "ym2612"
    },
    {
      "channel": 3,
      "note": 68,
      "start": 4.779,
      "duration": 0.0126,
      "velocity": 100,
      "chip": "ym2612"
    },
    {
      "channel": 2,
      "note": 53,
      "start": 4.7915,
      "duration": 0.0154,
      "velocity": 115,
      "chip": "ym2612"
    },
    {
      "channel": 3,
      "note": 84,
      "start": 4.7928,
      "duration": 0.0144,
      "velocity": 127,
      "chip": "ym2612"
    },
    {
      "channel": 0,
      "note": 65,
      "start": 4.8067,
      "duration": 0.0136,
      "velocity": 76,
      "chip": "ym2612"
    },
    {
      "channel": 1,
      "note": 89,
      "start": 4.8069,
      "duration": 0.0136,
      "velocity": 103,
      "chip": "ym2612"
    },
    {
      "channel": 2,
      "note": 41,
      "start": 4.8071,
      "duration": 0.0136,
      "velocity": 115,
      "chip": "ym2612"
    },
    {
      "channel": 3,
      "note": 32,
      "start": 4.8084,
      "duration": 0.0125,
      "velocity": 114,
      "chip": "ym2612"
    },
    {
      "channel": 0,
      "note": 64,
      "start": 4.8204,
      "duration": 0.041,
      "velocity": 76,
      "chip": "ym2612"
    },
    {
      "channel": 1,
      "note": 88,
      "start": 4.8207,
      "duration": 0.0139,
      "velocity": 103,
      "chip": "ym2612"
    },
    {
      "channel": 2,
      "note": 48,
      "start": 4.8209,
      "duration": 0.0138,
      "velocity": 115,
      "chip": "ym2612"
    },
    {
      "channel": 3,
      "note": 84,
      "start": 4.8221,
      "duration": 0.0128,
      "velocity": 127,
      "chip": "ym2612"
    },
    {
      "channel": 2,
      "note": 41,
      "start": 4.8349,
      "duration": 0.0138,
      "velocity": 115,
      "chip": "ym2612"
    },
    {
      "channel": 3,
      "note": 68,
      "start": 4.8361,
      "duration": 0.0128,
      "velocity": 100,
      "chip": "ym2612"
    },
    {
      "channel": 1,
      "note": 87,
      "start": 4.8486,
      "duration": 0.013,
      "velocity": 103,
      "chip": "ym2612"
    },
    {
      "channel": 2,
      "note": 48,
      "start": 4.8489,
      "duration": 0.0129,
      "velocity": 115,
      "chip": "ym2612"
    },
    {
      "channel": 3,
      "note": 68,
      "start": 4.8491,
      "duration": 0.0129,
      "velocity": 100,
      "chip": "ym2612"
    },
    {
      "channel": 0,
      "note": 63,
      "start": 4.8616,
      "duration": 0.0152,
      "velocity": 76,
      "chip": "ym2612"
    },
    {
      "channel": 2,
      "note": 41,
      "start": 4.8619,
      "duration": 0.0152,
      "velocity": 115,
      "chip": "ym2612"
    },
    {
      "channel": 3,
      "note": 84,
      "start": 4.8632,
      "duration": 0.0142,
      "velocity": 127,
      "chip": "ym2612"
    },
    {
      "channel": 1,
      "note": 88,
      "start": 4.8771,
      "duration": 0.0137,
      "velocity": 103,
      "chip": "ym2612"
    },
    {
      "channel": 2,
      "note": 48,
      "start": 4.8773,
      "duration": 0.0137,
      "velocity": 115,
      "chip": "ym2612"
    },
    {
      "channel": 3,
      "note": 68,
      "start": 4.8786,
      "duration": 0.0126,
      "velocity": 100,
      "chip": "ym2612"
    },
    {
      "channel": 0,
      "note": 61,
      "start": 4.8907,
      "duration": 0.0261,
      "velocity": 76,
      "chip": "ym2612"
    },
    {
      "channel": 1,
      "note": 87,
      "start": 4.891,
      "duration": 0.0261,
      "velocity": 103,
      "chip": "ym2612"
    },
    {
      "channel": 2,
      "note": 49,
      "start": 4.8912,
      "duration": 0.0127,
      "velocity": 115,
      "chip": "ym2612"
    },
    {
      "channel": 3,
      "note": 68,
      "start": 4.8915,
      "duration": 0.0126,
      "velocity": 100,
      "chip": "ym2612"
    },
    {
      "channel": 2,
      "note": 48,
      "start": 4.9041,
      "duration": 0.0132,
      "velocity": 115,
      "chip": "ym2612"
    },
    {
      "channel": 3,
      "note": 68,
      "start": 4.9043,
      "duration": 0.0132,
      "velocity": 100,
      "chip": "ym2612"
    },
    {
      "channel": 0,
      "note": 58,
      "start": 4.917,
      "duration": 0.0142,
      "velocity": 76,
      "chip": "ym2612"
    },
    {
      "channel": 1,
      "note": 82,
      "start": 4.9173,
      "duration": 0.014,
      "velocity": 103,
      "chip": "ym2612"
    },
    {
      "channel": 2,
      "note": 46,
      "start": 4.9175,
      "duration": 0.0139,
      "velocity": 115,
      "chip": "ym2612"
    },
    {
      "channel": 3,
      "note": 32,
      "start": 4.9188,
      "duration": 0.0128,
      "velocity": 114,
      "chip": "ym2612"
    },
    {
      "channel": 2,
      "note": 53,
      "start": 4.9315,
      "duration": 0.0152,
      "velocity": 115,
      "chip": "ym2612"
    },
    {
      "channel": 3,
      "note": 68,
      "start": 4.9328,
      "duration": 0.0142,
      "velocity": 100,
      "chip": "ym2612"
    },
    {
      "channel": 1,
      "note": 82,
      "start": 4.9467,
      "duration": 0.0124,
      "velocity": 103,
      "chip": "ym2612"
    },
    {
      "channel": 2,
      "note": 46,
      "start": 4.9469,
      "duration": 0.0122,
      "velocity": 115,
      "chip": "ym2612"
    },
    {
      "channel": 3,
      "note": 68,
      "start": 4.9472,
      "duration": 0.0122,
      "velocity": 100,
      "chip": "ym2612"
    },
    {
      "channel": 2,
      "note": 53,
      "start": 4.9593,
      "duration": 0.0131,
      "velocity": 115,
      "chip": "ym2612"
    },
    {
      "channel": 3,
      "note": 68,
      "start": 4.9596,
      "duration": 0.0131,
      "velocity": 100,
      "chip": "ym2612"
    },
    {
      "channel": 0,
      "note": 70,
      "start": 4.9721,
      "duration": 0.0556,
      "velocity": 76,
      "chip": "ym2612"
    },
    {
      "channel": 1,
      "note": 94,
      "start": 4.9724,
      "duration": 0.0139,
      "velocity": 103,
      "chip": "ym2612"
    },
    {
      "channel": 2,
      "note": 46,
      "start": 4.9726,
      "duration": 0.0137,
      "velocity": 115,
      "chip": "ym2612"
    },
    {
      "channel": 3,
      "note": 84,
      "start": 4.9739,
      "duration": 0.0127,
      "velocity": 127,
      "chip": "ym2612"
    },
    {
      "channel": 2,
      "note": 53,
      "start": 4.9865,
      "duration": 0.0138,
      "velocity": 115,
      "chip": "ym2612"
    },
    {
      "channel": 3,
      "note": 68,
      "start": 4.9877,
      "duration": 0.0128,
      "velocity": 100,
      "chip": "ym2612"
    },
    {
      "channel": 1,
      "note": 82,
      "start": 5.0002,
      "duration": 0.0141,
      "velocity": 103,
      "chip": "ym2612"
    },
    {
      "channel": 2,
      "note": 46,
      "start": 5.0005,
      "duration": 0.014,
      "velocity": 115,
      "chip": "ym2612"
    },
    {
      "channel": 3,
      "note": 68,
      "start": 5.0008,
      "duration": 0.0139,
      "velocity": 100,
      "chip": "ym2612"
    },
    {
      "channel": 2,
      "note": 53,
      "start": 5.0146,
      "duration": 0.0136,
      "velocity": 115,
      "chip": "ym2612"
    },
    {
      "channel": 3,
      "note": 84,
      "start": 5.0159,
      "duration": 0.0126,
      "velocity": 127,
      "chip": "ym2612"
    },
    {
      "channel": 0,
      "note": 65,
      "start": 5.0279,
      "duration": 0.014,
      "velocity": 76,
      "chip": "ym2612"
    },
    {
      "channel": 1,
      "note": 89,
      "start": 5.0282,
      "duration": 0.014,
      "velocity": 103,
      "chip": "ym2612"
    },
    {
      "channel": 2,
      "note": 41,
      "start": 5.0284,
      "duration": 0.0141,
      "velocity": 115,
      "chip": "ym2612"
    },
    {
      "channel": 3,
      "note": 32,
      "start": 5.0297,
      "duration": 0.013,
      "velocity": 114,
      "chip": "ym2612"
    },
    {
      "channel": 0,
      "note": 64,
      "start": 5.0421,
      "duration": 0.0422,
      "velocity": 76,
      "chip": "ym2612"
    },
    {
      "channel": 1,
      "note": 88,
      "start": 5.0424,
      "duration": 0.0138,
      "velocity": 103,
      "chip": "ym2612"
    },
    {
      "channel": 2,
      "note": 48,
      "start": 5.0426,
      "duration": 0.0137,
      "velocity": 115,
      "chip": "ym2612"
    },
    {
      "channel": 3,
      "note": 84,
      "start": 5.0439,
      "duration": 0.0126,
      "velocity": 127,
      "chip": "ym2612"
    },
    {
      "channel": 2,
      "note": 41,
      "start": 5.0564,
      "duration": 0.0139,
      "velocity": 115,
      "chip": "ym2612"
    },
    {
      "channel": 3,
      "note": 68,
      "start": 5.0577,
      "duration": 0.0128,
      "velocity": 100,
      "chip": "ym2612"
    },
    {
      "channel": 1,
      "note": 87,
      "start": 5.0702,
      "duration": 0.0143,
      "velocity": 103,
      "chip": "ym2612"
    },
    {
      "channel": 2,
      "note": 48,
      "start": 5.0704,
      "duration": 0.0142,
      "velocity": 115,
      "chip": "ym2612"
    },
    {
      "channel": 3,
      "note": 68,
      "start": 5.0707,
      "duration": 0.0141,
      "velocity": 100,
      "chip": "ym2612"
    },
    {
      "channel": 0,
      "note": 63,
      "start": 5.0845,
      "duration": 0.0134,
      "velocity": 76,
      "chip": "ym2612"
    },
    {
      "channel": 2,
      "note": 41,
      "start": 5.0848,
      "duration": 0.0134,
      "velocity": 115,
      "chip": "ym2612"
    },
    {
      "channel": 3,
      "note": 84,
      "start": 5.0861,
      "duration": 0.0124,
      "velocity": 127,
      "chip": "ym2612"
    },
    {
      "channel": 1,
      "note": 88,
      "start": 5.0983,
      "duration": 0.014,
      "velocity": 103,
      "chip": "ym2612"
    },
    {
      "channel": 2,
      "note": 48,
      "start": 5.0984,
      "duration": 0.0141,
      "velocity": 115,
      "chip": "ym2612"
    },
    {
      "channel": 3,
      "note": 68,
      "start": 5.0997,
      "duration": 0.013,
      "velocity": 100,
      "chip": "ym2612"
    },
    {
      "channel": 0,
      "note": 61,
      "start": 5.1122,
      "duration": 0.026,
      "velocity": 76,
      "chip": "ym2612"
    },
    {
      "channel": 1,
      "note": 87,
      "start": 5.1125,
      "duration": 0.0261,
      "velocity": 103,
      "chip": "ym2612"
    },
    {
      "channel": 2,
      "note": 49,
      "start": 5.1127,
      "duration": 0.0126,
      "velocity": 115,
      "chip": "ym2612"
    },
    {
      "channel": 3,
      "note": 68,
      "start": 5.113,
      "duration": 0.0126,
      "velocity": 100,
      "chip": "ym2612"
    },
    {
      "channel": 2,
      "note": 48,
      "start": 5.1256,
      "duration": 0.0133,
      "velocity": 115,
      "chip": "ym2612"
    },
    {
      "channel": 3,
      "note": 68,
      "start": 5.1258,
      "duration": 0.0133,
      "velocity": 100,
      "chip": "ym2612"
    },
    {
      "channel": 0,
      "note": 58,
      "start": 5.1385,
      "duration": 0.0158,
      "velocity": 76,
      "chip": "ym2612"
    },
    {
      "channel": 1,
      "note": 70,
      "start": 5.1388,
      "duration": 0.0156,
      "velocity": 103,
      "chip": "ym2612"
    },
    {
      "channel": 2,
      "note": 46,
      "start": 5.139,
      "duration": 0.0154,
      "velocity": 115,
      "chip": "ym2612"
    },
    {
      "channel": 3,
      "note": 32,
      "start": 5.1403,
      "duration": 0.0143,
      "velocity": 114,
      "chip": "ym2612"
    },
    {
      "channel": 2,
      "note": 53,
      "start": 5.1546,
      "duration": 0.0134,
      "velocity": 115,
      "chip": "ym2612"
    },
    {
      "channel": 3,
      "note": 68,
      "start": 5.1559,
      "duration": 0.0124,
      "velocity": 100,
      "chip": "ym2612"
    },
    {
      "channel": 1,
      "note": 70,
      "start": 5.1679,
      "duration": 0.0129,
      "velocity": 103,
      "chip": "ym2612"
    },
    {
      "channel": 2,
      "note": 46,
      "start": 5.1681,
      "duration": 0.0128,
      "velocity": 115,
      "chip": "ym2612"
    },
    {
      "channel": 3,
      "note": 68,
      "start": 5.1684,
      "duration": 0.0128,
      "velocity": 100,
      "chip": "ym2612"
    },
    {
      "channel": 2,
      "note": 53,
      "start": 5.1811,
      "duration": 0.0131,
      "velocity": 115,
      "chip": "ym2612"
    },
    {
      "channel": 3,
      "note": 68,
      "start": 5.1814,
      "duration": 0.013,
      "velocity": 100,
      "chip": "ym2612"
    },
    {
      "channel": 0,
      "note": 70,
      "start": 5.1939,
      "duration": 0.0556,
      "velocity": 76,
      "chip": "ym2612"
    },
    {
      "channel": 1,
      "note": 82,
      "start": 5.1941,
      "duration": 0.0138,
      "velocity": 103,
      "chip": "ym2612"
    },
    {
      "channel": 2,
      "note": 46,
      "start": 5.1944,
      "duration": 0.0136,
      "velocity": 115,
      "chip": "ym2612"
    },
    {
      "channel": 3,
      "note": 84,
      "start": 5.1956,
      "duration": 0.0127,
      "velocity": 127,
      "chip": "ym2612"
    },
    {
      "channel": 2,
      "note": 53,
      "start": 5.2082,
      "duration": 0.0151,
      "velocity": 115,
      "chip": "ym2612"
    },
    {
      "channel": 3,
      "note": 68,
      "start": 5.2095,
      "duration": 0.0141,
      "velocity": 100,
      "chip": "ym2612"
    },
    {
      "channel": 1,
      "note": 70,
      "start": 5.2232,
      "duration": 0.0124,
      "velocity": 103,
      "chip": "ym2612"
    },
    {
      "channel": 2,
      "note": 46,
      "start": 5.2234,
      "duration": 0.0122,
      "velocity": 115,
      "chip": "ym2612"
    },
    {
      "channel": 3,
      "note": 68,
      "start": 5.2238,
      "duration": 0.0122,
      "velocity": 100,
      "chip": "ym2612"
    },
    {
      "channel": 2,
      "note": 53,
      "start": 5.2359,
      "duration": 0.0141,
      "velocity": 115,
      "chip": "ym2612"
    },
    {
      "channel": 3,
      "note": 84,
      "start": 5.2371,
      "duration": 0.013,
      "velocity": 127,
      "chip": "ym2612"
    },
    {
      "channel": 0,
      "note": 65,
      "start": 5.2496,
      "duration": 0.0139,
      "velocity": 76,
      "chip": "ym2612"
    },
    {
      "channel": 1,
      "note": 77,
      "start": 5.2499,
      "duration": 0.0139,
      "velocity": 103,
      "chip": "ym2612"
    },
    {
      "channel": 2,
      "note": 41,
      "start": 5.2501,
      "duration": 0.014,
      "velocity": 115,
      "chip": "ym2612"
    },
    {
      "channel": 3,
      "note": 32,
      "start": 5.2514,
      "duration": 0.0129,
      "velocity": 114,
      "chip": "ym2612"
    },
    {
      "channel": 0,
      "note": 64,
      "start": 5.2638,
      "duration": 0.0418,
      "velocity": 76,
      "chip": "ym2612"
    },
    {
      "channel": 1,
      "note": 76,
      "start": 5.264,
      "duration": 0.0138,
      "velocity": 103,
      "chip": "ym2612"
    },
    {
      "channel": 2,
      "note": 48,
      "start": 5.2642,
      "duration": 0.0137,
      "velocity": 115,
      "chip": "ym2612"
    },
    {
      "channel": 3,
      "note": 84,
      "start": 5.2655,
      "duration": 0.0127,
      "velocity": 127,
      "chip": "ym2612"
    },
    {
      "channel": 2,
      "note": 41,
      "start": 5.2781,
      "duration": 0.0152,
      "velocity": 115,
      "chip": "ym2612"
    },
    {
      "channel": 3,
      "note": 68,
      "start": 5.2793,
      "duration": 0.0142,
      "velocity": 100,
      "chip": "ym2612"
    },
    {
      "channel": 1,
      "note": 75,
      "start": 5.2933,
      "duration": 0.0126,
      "velocity": 103,
      "chip": "ym2612"
    },
    {
      "channel": 2,
      "note": 48,
      "start": 5.2935,
      "duration": 0.0124,
      "velocity": 115,
      "chip": "ym2612"
    },
    {
      "channel": 3,
      "note": 68,
      "start": 5.2938,
      "duration": 0.0124,
      "velocity": 100,
      "chip": "ym2612"
    },
    {
      "channel": 0,
      "note": 63,
      "start": 5.3058,
      "duration": 0.014,
      "velocity": 76,
      "chip": "ym2612"
    },
    {
      "channel": 2,
      "note": 41,
      "start": 5.3061,
      "duration": 0.014,
      "velocity": 115,
      "chip": "ym2612"
    },
    {
      "channel": 3,
      "note": 84,
      "start": 5.3074,
      "duration": 0.0129,
      "velocity": 127,
      "chip": "ym2612"
    },
    {
      "channel": 1,
      "note": 76,
      "start": 5.32,
      "duration": 0.0141,
      "velocity": 103,
      "chip": "ym2612"
    },
    {
      "channel": 2,
      "note": 48,
      "start": 5.3202,
      "duration": 0.0141,
      "velocity": 115,
      "chip": "ym2612"
    },
    {
      "channel": 3,
      "note": 68,
      "start": 5.3215,
      "duration": 0.013,
      "velocity": 100,
      "chip": "ym2612"
    },
    {
      "channel": 0,
      "note": 61,
      "start": 5.3341,
      "duration": 0.0272,
      "velocity": 76,
      "chip": "ym2612"
    },
    {
      "channel": 1,
      "note": 75,
      "start": 5.3343,
      "duration": 0.0272,
      "velocity": 103,
      "chip": "ym2612"
    },
    {
      "channel": 2,
      "note": 49,
      "start": 5.3345,
      "duration": 0.0125,
      "velocity": 115,
      "chip": "ym2612"
    },
    {
      "channel": 3,
      "note": 68,
      "start": 5.3348,
      "duration": 0.0124,
      "velocity": 100,
      "chip": "ym2612"
    },
    {
      "channel": 2,
      "note": 48,
      "start": 5.3472,
      "duration": 0.0146,
      "velocity": 115,
      "chip": "ym2612"
    },
    {
      "channel": 3,
      "note": 68,
      "start": 5.3474,
      "duration": 0.0146,
      "velocity": 100,
      "chip": "ym2612"
    },
    {
      "channel": 0,
      "note": 58,
      "start": 5.3614,
      "duration": 0.0139,
      "velocity": 76,
      "chip": "ym2612"
    },
    {
      "channel": 1,
      "note": 70,
      "start": 5.3617,
      "duration": 0.0138,
      "velocity": 103,
      "chip": "ym2612"
    },
    {
      "channel": 2,
      "note": 46,
      "start": 5.362,
      "duration": 0.0135,
      "velocity": 115,
      "chip": "ym2612"
    },
    {
      "channel": 3,
      "note": 32,
      "start": 5.3633,
      "duration": 0.0125,
      "velocity": 114,
      "chip": "ym2612"
    },
    {
      "channel": 2,
      "note": 53,
      "start": 5.3757,
      "duration": 0.0138,
      "velocity": 115,
      "chip": "ym2612"
    },
    {
      "channel": 3,
      "note": 68,
      "start": 5.377,
      "duration": 0.0128,
      "velocity": 100,
      "chip": "ym2612"
    },
    {
      "channel": 1,
      "note": 70,
      "start": 5.3895,
      "duration": 0.0129,
      "velocity": 103,
      "chip": "ym2612"
    },
    {
      "channel": 2,
      "note": 46,
      "start": 5.3897,
      "duration": 0.0127,
      "velocity": 115,
      "chip": "ym2612"
    },
    {
      "channel": 3,
      "note": 68,
      "start": 5.39,
      "duration": 0.0127,
      "velocity": 100,
      "chip": "ym2612"
    },
    {
      "channel": 2,
      "note": 53,
      "start": 5.4026,
      "duration": 0.013,
      "velocity": 115,
      "chip": "ym2612"
    },
    {
      "channel": 3,
      "note": 68,
      "start": 5.4029,
      "duration": 0.013,
      "velocity": 100,
      "chip": "ym2612"
    },
    {
      "channel": 0,
      "note": 70,
      "start": 5.4154,
      "duration": 0.0558,
      "velocity": 76,
      "chip": "ym2612"
    },
    {
      "channel": 1,
      "note": 82,
      "start": 5.4156,
      "duration": 0.0153,
      "velocity": 103,
      "chip": "ym2612"
    },
    {
      "channel": 2,
      "note": 46,
      "start": 5.4158,
      "duration": 0.0151,
      "velocity": 115,
      "chip": "ym2612"
    },
    {
      "channel": 3,
      "note": 84,
      "start": 5.4171,
      "duration": 0.0141,
      "velocity": 127,
      "chip": "ym2612"
    },
    {
      "channel": 2,
      "note": 53,
      "start": 5.4311,
      "duration": 0.0135,
      "velocity": 115,
      "chip": "ym2612"
    },
    {
      "channel": 3,
      "note": 68,
      "start": 5.4324,
      "duration": 0.0124,
      "velocity": 100,
      "chip": "ym2612"
    },
    {
      "channel": 1,
      "note": 70,
      "start": 5.4445,
      "duration": 0.0129,
      "velocity": 103,
      "chip": "ym2612"
    },
    {
      "channel": 2,
      "note": 46,
      "start": 5.4447,
      "duration": 0.0127,
      "velocity": 115,
      "chip": "ym2612"
    },
    {
      "channel": 3,
      "note": 68,
      "start": 5.445,
      "duration": 0.0127,
      "velocity": 100,
      "chip": "ym2612"
    },
    {
      "channel": 2,
      "note": 53,
      "start": 5.4577,
      "duration": 0.014,
      "velocity": 115,
      "chip": "ym2612"
    },
    {
      "channel": 3,
      "note": 84,
      "start": 5.459,
      "duration": 0.0129,
      "velocity": 127,
      "chip": "ym2612"
    },
    {
      "channel": 0,
      "note": 65,
      "start": 5.4714,
      "duration": 0.0141,
      "velocity": 76,
      "chip": "ym2612"
    },
    {
      "channel": 1,
      "note": 77,
      "start": 5.4716,
      "duration": 0.014,
      "velocity": 103,
      "chip": "ym2612"
    },
    {
      "channel": 2,
      "note": 41,
      "start": 5.4719,
      "duration": 0.014,
      "velocity": 115,
      "chip": "ym2612"
    },
    {
      "channel": 3,
      "note": 32,
      "start": 5.4731,
      "duration": 0.013,
      "velocity": 114,
      "chip": "ym2612"
    },
    {
      "channel": 0,
      "note": 64,
      "start": 5.4856,
      "duration": 0.0417,
      "velocity": 76,
      "chip": "ym2612"
    },
    {
      "channel": 1,
      "note": 76,
      "start": 5.4858,
      "duration": 0.0151,
      "velocity": 103,
      "chip": "ym2612"
    },
    {
      "channel": 2,
      "note": 48,
      "start": 5.4861,
      "duration": 0.0149,
      "velocity": 115,
      "chip": "ym2612"
    },
    {
      "channel": 3,
      "note": 84,
      "start": 5.4873,
      "duration": 0.0139,
      "velocity": 127,
      "chip": "ym2612"
    },
    {
      "channel": 2,
      "note": 41,
      "start": 5.5012,
      "duration": 0.0134,
      "velocity": 115,
      "chip": "ym2612"
    },
    {
      "channel": 3,
      "note": 68,
      "start": 5.5024,
      "duration": 0.0123,
      "velocity": 100,
      "chip": "ym2612"
    },
    {
      "channel": 1,
      "note": 75,
      "start": 5.5145,
      "duration": 0.013,
      "velocity": 103,
      "chip": "ym2612"
    },
    {
      "channel": 2,
      "note": 48,
      "start": 5.5147,
      "duration": 0.013,
      "velocity": 115,
      "chip": "ym2612"
    },
    {
      "channel": 3,
      "note": 68,
      "start": 5.5149,
      "duration": 0.0129,
      "velocity": 100,
      "chip": "ym2612"
    },
    {
      "channel": 0,
      "note": 63,
      "start": 5.5275,
      "duration": 0.0139,
      "velocity": 76,
      "chip": "ym2612"
    },
    {
      "channel": 2,
      "note": 41,
      "start": 5.5278,
      "duration": 0.0139,
      "velocity": 115,
      "chip": "ym2612"
    },
    {
      "channel": 3,
      "note": 84,
      "start": 5.5291,
      "duration": 0.0129,
      "velocity": 127,
      "chip": "ym2612"
    },
    {
      "channel": 1,
      "note": 76,
      "start": 5.5417,
      "duration": 0.014,
      "velocity": 103,
      "chip": "ym2612"
    },
    {
      "channel": 2,
      "note": 48,
      "start": 5.5419,
      "duration": 0.014,
      "velocity": 115,
      "chip": "ym2612"
    },
    {
      "channel": 3,
      "note": 68,
      "start": 5.5432,
      "duration": 0.0129,
      "velocity": 100,
      "chip": "ym2612"
    },
    {
      "channel": 0,
      "note": 61,
      "start": 5.5556,
      "duration": 0.0268,
      "velocity": 76,
      "chip": "ym2612"
    },
    {
      "channel": 1,
      "note": 75,
      "start": 5.5558,
      "duration": 0.0269,
      "velocity": 103,
      "chip": "ym2612"
    },
    {
      "channel": 2,
      "note": 49,
      "start": 5.5561,
      "duration": 0.014,
      "velocity": 115,
      "chip": "ym2612"
    },
    {
      "channel": 3,
      "note": 68,
      "start": 5.5563,
      "duration": 0.014,
      "velocity": 100,
      "chip": "ym2612"
    },
    {
      "channel": 2,
      "note": 48,
      "start": 5.5702,
      "duration": 0.0127,
      "velocity": 115,
      "chip": "ym2612"
    },
    {
      "channel": 3,
      "note": 68,
      "start": 5.5705,
      "duration": 0.0127,
      "velocity": 100,
      "chip": "ym2612"
    },
    {
      "channel": 0,
      "note": 58,
      "start": 5.5827,
      "duration": 0.0143,
      "velocity": 76,
      "chip": "ym2612"
    },
    {
      "channel": 1,
      "note": 82,
      "start": 5.5829,
      "duration": 0.0141,
      "velocity": 103,
      "chip": "ym2612"
    },
    {
      "channel": 2,
      "note": 46,
      "start": 5.5832,
      "duration": 0.014,
      "velocity": 115,
      "chip": "ym2612"
    },
    {
      "channel": 3,
      "note": 32,
      "start": 5.5844,
      "duration": 0.0129,
      "velocity": 114,
      "chip": "ym2612"
    },
    {
      "channel": 2,
      "note": 53,
      "start": 5.5973,
      "duration": 0.0139,
      "velocity": 115,
      "chip": "ym2612"
    },
    {
      "channel": 3,
      "note": 68,
      "start": 5.5986,
      "duration": 0.0129,
      "velocity": 100,
      "chip": "ym2612"
    },
    {
      "channel": 1,
      "note": 82,
      "start": 5.6112,
      "duration": 0.0128,
      "velocity": 103,
      "chip": "ym2612"
    },
    {
      "channel": 2,
      "note": 46,
      "start": 5.6114,
      "duration": 0.0126,
      "velocity": 115,
      "chip": "ym2612"
    },
    {
      "channel": 3,
      "note": 68,
      "start": 5.6117,
      "duration": 0.0126,
      "velocity": 100,
      "chip": "ym2612"
    },
    {
      "channel": 2,
      "note": 53,
      "start": 5.6242,
      "duration": 0.0145,
      "velocity": 115,
      "chip": "ym2612"
    },
    {
      "channel": 3,
      "note": 68,
      "start": 5.6245,
      "duration": 0.0145,
      "velocity": 100,
      "chip": "ym2612"
    },
    {
      "channel": 0,
      "note": 70,
      "start": 5.6384,
      "duration": 0.0546,
      "velocity": 76,
      "chip": "ym2612"
    },
    {
      "channel": 1,
      "note": 94,
      "start": 5.6386,
      "duration": 0.0134,
      "velocity": 103,
      "chip": "ym2612"
    },
    {
      "channel": 2,
      "note": 46,
      "start": 5.6389,
      "duration": 0.0132,
      "velocity": 115,
      "chip": "ym2612"
    },
    {
      "channel": 3,
      "note": 84,
      "start": 5.6401,
      "duration": 0.0122,
      "velocity": 127,
      "chip": "ym2612"
    },
    {
      "channel": 2,
      "note": 53,
      "start": 5.6523,
      "duration": 0.0139,
      "velocity": 115,
      "chip": "ym2612"
    },
    {
      "channel": 3,
      "note": 68,
      "start": 5.6536,
      "duration": 0.0129,
      "velocity": 100,
      "chip": "ym2612"
    },
    {
      "channel": 1,
      "note": 82,
      "start": 5.6662,
      "duration": 0.0129,
      "velocity": 103,
      "chip": "ym2612"
    },
    {
      "channel": 2,
      "note": 46,
      "start": 5.6664,
      "duration": 0.0128,
      "velocity": 115,
      "chip": "ym2612"
    },
    {
      "channel": 3,
      "note": 68,
      "start": 5.6667,
      "duration": 0.0128,
      "velocity": 100,
      "chip": "ym2612"
    },
    {
      "channel": 2,
      "note": 53,
      "start": 5.6794,
      "duration": 0.014,
      "velocity": 115,
      "chip": "ym2612"
    },
    {
      "channel": 3,
      "note": 84,
      "start": 5.6807,
      "duration": 0.013,
      "velocity": 127,
      "chip": "ym2612"
    },
    {
      "channel": 0,
      "note": 65,
      "start": 5.6932,
      "duration": 0.0154,
      "velocity": 76,
      "chip": "ym2612"
    },
    {
      "channel": 1,
      "note": 89,
      "start": 5.6934,
      "duration": 0.0154,
      "velocity": 103,
      "chip": "ym2612"
    },
    {
      "channel": 2,
      "note": 41,
      "start": 5.6936,
      "duration": 0.0154,
      "velocity": 115,
      "chip": "ym2612"
    },
    {
      "channel": 3,
      "note": 32,
      "start": 5.6949,
      "duration": 0.0144,
      "velocity": 114,
      "chip": "ym2612"
    },
    {
      "channel": 0,
      "note": 64,
      "start": 5.7088,
      "duration": 0.0404,
      "velocity": 76,
      "chip": "ym2612"
    },
    {
      "channel": 1,
      "note": 88,
      "start": 5.709,
      "duration": 0.0134,
      "velocity": 103,
      "chip": "ym2612"
    },
    {
      "channel": 2,
      "note": 48,
      "start": 5.7092,
      "duration": 0.0132,
      "velocity": 115,
      "chip": "ym2612"
    },
    {
      "channel": 3,
      "note": 84,
      "start": 5.7105,
      "duration": 0.0122,
      "velocity": 127,
      "chip": "ym2612"
    },
    {
      "channel": 2,
      "note": 41,
      "start": 5.7227,
      "duration": 0.0138,
      "velocity": 115,
      "chip": "ym2612"
    },
    {
      "channel": 3,
      "note": 68,
      "start": 5.7239,
      "duration": 0.0128,
      "velocity": 100,
      "chip": "ym2612"
    },
    {
      "channel": 1,
      "note": 87,
      "start": 5.7364,
      "duration": 0.013,
      "velocity": 103,
      "chip": "ym2612"
    },
    {
      "channel": 2,
      "note": 48,
      "start": 5.7366,
      "duration": 0.0128,
      "velocity": 115,
      "chip": "ym2612"
    },
    {
      "channel": 3,
      "note": 68,
      "start": 5.7369,
      "duration": 0.0129,
      "velocity": 100,
      "chip": "ym2612"
    },
    {
      "channel": 0,
      "note": 63,
      "start": 5.7494,
      "duration": 0.0139,
      "velocity": 76,
      "chip": "ym2612"
    },
    {
      "channel": 2,
      "note": 41,
      "start": 5.7497,
      "duration": 0.0139,
      "velocity": 115,
      "chip": "ym2612"
    },
    {
      "channel": 3,
      "note": 84,
      "start": 5.751,
      "duration": 0.0129,
      "velocity": 127,
      "chip": "ym2612"
    },
    {
      "channel": 1,
      "note": 88,
      "start": 5.7635,
      "duration": 0.0153,
      "velocity": 103,
      "chip": "ym2612"
    },
    {
      "channel": 2,
      "note": 48,
      "start": 5.7638,
      "duration": 0.0153,
      "velocity": 115,
      "chip": "ym2612"
    },
    {
      "channel": 3,
      "note": 68,
      "start": 5.765,
      "duration": 0.0143,
      "velocity": 100,
      "chip": "ym2612"
    },
    {
      "channel": 0,
      "note": 61,
      "start": 5.7788,
      "duration": 0.0255,
      "velocity": 76,
      "chip": "ym2612"
    },
    {
      "channel": 1,
      "note": 87,
      "start": 5.779,
      "duration": 0.0256,
      "velocity": 103,
      "chip": "ym2612"
    },
    {
      "channel": 2,
      "note": 49,
      "start": 5.7792,
      "duration": 0.0122,
      "velocity": 115,
      "chip": "ym2612"
    },
    {
      "channel": 3,
      "note": 68,
      "start": 5.7795,
      "duration": 0.0122,
      "velocity": 100,
      "chip": "ym2612"
    },
    {
      "channel": 2,
      "note": 48,
      "start": 5.7916,
      "duration": 0.0132,
      "velocity": 115,
      "chip": "ym2612"
    },
    {
      "channel": 3,
      "note": 68,
      "start": 5.7918,
      "duration": 0.0132,
      "velocity": 100,
      "chip": "ym2612"
    },
    {
      "channel": 0,
      "note": 58,
      "start": 5.8045,
      "duration": 0.0143,
      "velocity": 76,
      "chip": "ym2612"
    },
    {
      "channel": 1,
      "note": 82,
      "start": 5.8047,
      "duration": 0.0142,
      "velocity": 103,
      "chip": "ym2612"
    },
    {
      "channel": 2,
      "note": 46,
      "start": 5.805,
      "duration": 0.014,
      "velocity": 115,
      "chip": "ym2612"
    },
    {
      "channel": 3,
      "note": 32,
      "start": 5.8063,
      "duration": 0.013,
      "velocity": 114,
      "chip": "ym2612"
    },
    {
      "channel": 2,
      "note": 53,
      "start": 5.8192,
      "duration": 0.0138,
      "velocity": 115,
      "chip": "ym2612"
    },
    {
      "channel": 3,
      "note": 68,
      "start": 5.8205,
      "duration": 0.0127,
      "velocity": 100,
      "chip": "ym2612"
    },
    {
      "channel": 1,
      "note": 82,
      "start": 5.8329,
      "duration": 0.0142,
      "velocity": 103,
      "chip": "ym2612"
    },
    {
      "channel": 2,
      "note": 46,
      "start": 5.8331,
      "duration": 0.0141,
      "velocity": 115,
      "chip": "ym2612"
    },
    {
      "channel": 3,
      "note": 68,
      "start": 5.8334,
      "duration": 0.014,
      "velocity": 100,
      "chip": "ym2612"
    },
    {
      "channel": 2,
      "note": 53,
      "start": 5.8474,
      "duration": 0.0127,
      "velocity": 115,
      "chip": "ym2612"
    },
    {
      "channel": 3,
      "note": 68,
      "start": 5.8476,
      "duration": 0.0127,
      "velocity": 100,
      "chip": "ym2612"
    },
    {
      "channel": 0,
      "note": 70,
      "start": 5.8598,
      "duration": 0.0562,
      "velocity": 76,
      "chip": "ym2612"
    },
    {
      "channel": 1,
      "note": 94,
      "start": 5.86,
      "duration": 0.0139,
      "velocity": 103,
      "chip": "ym2612"
    },
    {
      "channel": 2,
      "note": 46,
      "start": 5.8602,
      "duration": 0.0137,
      "velocity": 115,
      "chip": "ym2612"
    },
    {
      "channel": 3,
      "note": 84,
      "start": 5.8615,
      "duration": 0.0127,
      "velocity": 127,
      "chip": "ym2612"
    },
    {
      "channel": 2,
      "note": 53,
      "start": 5.8742,
      "duration": 0.0138,
      "velocity": 115,
      "chip": "ym2612"
    },
    {
      "channel": 3,
      "note": 68,
      "start": 5.8755,
      "duration": 0.0128,
      "velocity": 100,
      "chip": "ym2612"
    },
    {
      "channel": 1,
      "note": 82,
      "start": 5.8879,
      "duration": 0.0129,
      "velocity": 103,
      "chip": "ym2612"
    },
    {
      "channel": 2,
      "note": 46,
      "start": 5.8882,
      "duration": 0.0127,
      "velocity": 115,
      "chip": "ym2612"
    },
    {
      "channel": 3,
      "note": 68,
      "start": 5.8884,
      "duration": 0.0127,
      "velocity": 100,
      "chip": "ym2612"
    },
    {
      "channel": 2,
      "note": 53,
      "start": 5.901,
      "duration": 0.0154,
      "velocity": 115,
      "chip": "ym2612"
    },
    {
      "channel": 3,
      "note": 84,
      "start": 5.9023,
      "duration": 0.0144,
      "velocity": 127,
      "chip": "ym2612"
    },
    {
      "channel": 0,
      "note": 65,
      "start": 5.9162,
      "duration": 0.0137,
      "velocity": 76,
      "chip": "ym2612"
    },
    {
      "channel": 1,
      "note": 89,
      "start": 5.9164,
      "duration": 0.0137,
      "velocity": 103,
      "chip": "ym2612"
    },
    {
      "channel": 2,
      "note": 41,
      "start": 5.9166,
      "duration": 0.0137,
      "velocity": 115,
      "chip": "ym2612"
    },
    {
      "channel": 3,
      "note": 32,
      "start": 5.9179,
      "duration": 0.0126,
      "velocity": 114,
      "chip": "ym2612"
    },
    {
      "channel": 0,
      "note": 64,
      "start": 5.93,
      "duration": 0.041,
      "velocity": 76,
      "chip": "ym2612"
    },
    {
      "channel": 1,
      "note": 88,
      "start": 5.9302,
      "duration": 0.0139,
      "velocity": 103,
      "chip": "ym2612"
    },
    {
      "channel": 2,
      "note": 48,
      "start": 5.9305,
      "duration": 0.0137,
      "velocity": 115,
      "chip": "ym2612"
    },
    {
      "channel": 3,
      "note": 84,
      "start": 5.9317,
      "duration": 0.0128,
      "velocity": 127,
      "chip": "ym2612"
    },
    {
      "channel": 2,
      "note": 41,
      "start": 5.9444,
      "duration": 0.0138,
      "velocity": 115,
      "chip": "ym2612"
    },
    {
      "channel": 3,
      "note": 68,
      "start": 5.9457,
      "duration": 0.0128,
      "velocity": 100,
      "chip": "ym2612"
    },
    {
      "channel": 1,
      "note": 87,
      "start": 5.9582,
      "duration": 0.013,
      "velocity": 103,
      "chip": "ym2612"
    },
    {
      "channel": 2,
      "note": 48,
      "start": 5.9584,
      "duration": 0.0129,
      "velocity": 115,
      "chip": "ym2612"
    },
    {
      "channel": 3,
      "note": 68,
      "start": 5.9587,
      "duration": 0.0129,
      "velocity": 100,
      "chip": "ym2612"
    },
    {
      "channel": 0,
      "note": 63,
      "start": 5.9712,
      "duration": 0.0152,
      "velocity": 76,
      "chip": "ym2612"
    },
    {
      "channel": 2,
      "note": 41,
      "start": 5.9715,
      "duration": 0.0152,
      "velocity": 115,
      "chip": "ym2612"
    },
    {
      "channel": 3,
      "note": 84,
      "start": 5.9727,
      "duration": 0.0142,
      "velocity": 127,
      "chip": "ym2612"
    },
    {
      "channel": 1,
      "note": 88,
      "start": 5.9866,
      "duration": 0.0136,
      "velocity": 103,
      "chip": "ym2612"
    },
    {
      "channel": 2,
      "note": 48,
      "start": 5.9868,
      "duration": 0.0136,
      "velocity": 115,
      "chip": "ym2612"
    },
    {
      "channel": 3,
      "note": 68,
      "start": 5.9881,
      "duration": 0.0125,
      "velocity": 100,
      "chip": "ym2612"
    },
    {
      "channel": 0,
      "note": 61,
      "start": 6.0001,
      "duration": 0.0262,
      "velocity": 76,
      "chip": "ym2612"
    },
    {
      "channel": 1,
      "note": 87,
      "start": 6.0004,
      "duration": 0.0261,
      "velocity": 103,
      "chip": "ym2612"
    },
    {
      "channel": 2,
      "note": 49,
      "start": 6.0006,
      "duration": 0.0127,
      "velocity": 115,
      "chip": "ym2612"
    },
    {
      "channel": 3,
      "note": 68,
      "start": 6.0009,
      "duration": 0.0125,
      "velocity": 100,
      "chip": "ym2612"
    },
    {
      "channel": 2,
      "note": 48,
      "start": 6.0134,
      "duration": 0.0141,
      "velocity": 115,
      "chip": "ym2612"
    },
    {
      "channel": 3,
      "note": 68,
      "start": 6.0137,
      "duration": 0.0151,
      "velocity": 100,
      "chip": "ym2612"
    },
    {
      "channel": 2,
      "note": 82,
      "start": 6.0288,
      "duration": 0.0128,
      "velocity": 76,
      "chip": "ym2612"
    },
    {
      "channel": 1,
      "note": 89,
      "start": 6.0415,
      "duration": 0.0139,
      "velocity": 76,
      "chip": "ym2612"
    },
    {
      "channel": 2,
      "note": 85,
      "start": 6.0418,
      "duration": 0.0137,
      "velocity": 76,
      "chip": "ym2612"
    },
    {
      "channel": 1,
      "note": 89,
      "start": 6.0676,
      "duration": 0.0126,
      "velocity": 76,
      "chip": "ym2612"
    },
    {
      "channel": 2,
      "note": 85,
      "start": 6.0678,
      "duration": 0.0124,
      "velocity": 76,
      "chip": "ym2612"
    },
    {
      "channel": 2,
      "note": 82,
      "start": 6.0929,
      "duration": 0.0124,
      "velocity": 76,
      "chip": "ym2612"
    },
    {
      "channel": 1,
      "note": 91,
      "start": 6.1192,
      "duration": 0.0121,
      "velocity": 76,
      "chip": "ym2612"
    },
    {
      "channel": 2,
      "note": 87,
      "start": 6.1194,
      "duration": 0.012,
      "velocity": 76,
      "chip": "ym2612"
    },
    {
      "channel": 2,
      "note": 82,
      "start": 6.1441,
      "duration": 0.0125,
      "velocity": 76,
      "chip": "ym2612"
    },
    {
      "channel": 1,
      "note": 92,
      "start": 6.1565,
      "duration": 0.0126,
      "velocity": 76,
      "chip": "ym2612"
    },
    {
      "channel": 2,
      "note": 89,
      "start": 6.1568,
      "duration": 0.0124,
      "velocity": 76,
      "chip": "ym2612"
    },
    {
      "channel": 1,
      "note": 91,
      "start": 6.1831,
      "duration": 0.0245,
      "velocity": 76,
      "chip": "ym2612"
    },
    {
      "channel": 2,
      "note": 87,
      "start": 6.1833,
      "duration": 0.0496,
      "velocity": 76,
      "chip": "ym2612"
    },
    {
      "channel": 1,
      "note": 89,
      "start": 6.2077,
      "duration": 0.0124,
      "velocity": 76,
      "chip": "ym2612"
    },
    {
      "channel": 2,
      "note": 82,
      "start": 6.233,
      "duration": 0.0141,
      "velocity": 76,
      "chip": "ym2612"
    },
    {
      "channel": 1,
      "note": 89,
      "start": 6.2471,
      "duration": 0.0122,
      "velocity": 76,
      "chip": "ym2612"
    },
    {
      "channel": 2,
      "note": 85,
      "start": 6.2474,
      "duration": 0.012,
      "velocity": 76,
      "chip": "ym2612"
    },
    {
      "channel": 1,
      "note": 89,
      "start": 6.2718,
      "duration": 0.0127,
      "velocity": 76,
      "chip": "ym2612"
    },
    {
      "channel": 2,
      "note": 85,
      "start": 6.2721,
      "duration": 0.0125,
      "velocity": 76,
      "chip": "ym2612"
    },
    {
      "channel": 2,
      "note": 82,
      "start": 6.2971,
      "duration": 0.0137,
      "velocity": 76,
      "chip": "ym2612"
    },
    {
      "channel": 1,
      "note": 91,
      "start": 6.3229,
      "duration": 0.0126,
      "velocity": 76,
      "chip": "ym2612"
    },
    {
      "channel": 2,
      "note": 87,
      "start": 6.3231,
      "duration": 0.0124,
      "velocity": 76,
      "chip": "ym2612"
    },
    {
      "channel": 2,
      "note": 82,
      "start": 6.3482,
      "duration": 0.0127,
      "velocity": 76,
      "chip": "ym2612"
    },
    {
      "channel": 1,
      "note": 92,
      "start": 6.3608,
      "duration": 0.0139,
      "velocity": 76,
      "chip": "ym2612"
    },
    {
      "channel": 2,
      "note": 89,
      "start": 6.361,
      "duration": 0.0138,
      "velocity": 76,
      "chip": "ym2612"
    },
    {
      "channel": 1,
      "note": 91,
      "start": 6.387,
      "duration": 0.025,
      "velocity": 76,
      "chip": "ym2612"
    },
    {
      "channel": 2,
      "note": 87,
      "start": 6.3872,
      "duration": 0.0513,
      "velocity": 76,
      "chip": "ym2612"
    },
    {
      "channel": 1,
      "note": 89,
      "start": 6.4121,
      "duration": 0.0124,
      "velocity": 76,
      "chip": "ym2612"
    },
    {
      "channel": 2,
      "note": 82,
      "start": 6.4387,
      "duration": 0.0124,
      "velocity": 76,
      "chip": "ym2612"
    },
    {
      "channel": 1,
      "note": 89,
      "start": 6.4511,
      "duration": 0.0127,
      "velocity": 76,
      "chip": "ym2612"
    },
    {
      "channel": 2,
      "note": 85,
      "start": 6.4513,
      "duration": 0.0125,
      "velocity": 76,
      "chip": "ym2612"
    },
    {
      "channel": 1,
      "note": 89,
      "start": 6.4764,
      "duration": 0.0126,
      "velocity": 76,
      "chip": "ym2612"
    },
    {
      "channel": 2,
      "note": 85,
      "start": 6.4767,
      "duration": 0.0124,
      "velocity": 76,
      "chip": "ym2612"
    },
    {
      "channel": 2,
      "note": 82,
      "start": 6.5029,
      "duration": 0.012,
      "velocity": 76,
      "chip": "ym2612"
    },
    {
      "channel": 1,
      "note": 91,
      "start": 6.5274,
      "duration": 0.0126,
      "velocity": 76,
      "chip": "ym2612"
    },
    {
      "channel": 2,
      "note": 87,
      "start": 6.5277,
      "duration": 0.0124,
      "velocity": 76,
      "chip": "ym2612"
    },
    {
      "channel": 2,
      "note": 82,
      "start": 6.5526,
      "duration": 0.014,
      "velocity": 76,
      "chip": "ym2612"
    },
    {
      "channel": 1,
      "note": 92,
      "start": 6.5665,
      "duration": 0.0121,
      "velocity": 76,
      "chip": "ym2612"
    },
    {
      "channel": 2,
      "note": 89,
      "start": 6.5667,
      "duration": 0.012,
      "velocity": 76,
      "chip": "ym2612"
    },
    {
      "channel": 1,
      "note": 91,
      "start": 6.5912,
      "duration": 0.0251,
      "velocity": 76,
      "chip": "ym2612"
    },
    {
      "channel": 2,
      "note": 87,
      "start": 6.5915,
      "duration": 0.051,
      "velocity": 76,
      "chip": "ym2612"
    },
    {
      "channel": 1,
      "note": 89,
      "start": 6.6165,
      "duration": 0.0137,
      "velocity": 76,
      "chip": "ym2612"
    },
    {
      "channel": 2,
      "note": 82,
      "start": 6.6427,
      "duration": 0.0129,
      "velocity": 76,
      "chip": "ym2612"
    },
    {
      "channel": 1,
      "note": 89,
      "start": 6.6556,
      "duration": 0.0126,
      "velocity": 76,
      "chip": "ym2612"
    },
    {
      "channel": 2,
      "note": 85,
      "start": 6.6558,
      "duration": 0.0124,
      "velocity": 76,
      "chip": "ym2612"
    },
    {
      "channel": 1,
      "note": 89,
      "start": 6.6807,
      "duration": 0.0139,
      "velocity": 76,
      "chip": "ym2612"
    },
    {
      "channel": 2,
      "note": 85,
      "start": 6.6809,
      "duration": 0.0138,
      "velocity": 76,
      "chip": "ym2612"
    },
    {
      "channel": 2,
      "note": 82,
      "start": 6.7069,
      "duration": 0.0124,
      "velocity": 76,
      "chip": "ym2612"
    },
    {
      "channel": 1,
      "note": 91,
      "start": 6.7319,
      "duration": 0.0126,
      "velocity": 76,
      "chip": "ym2612"
    },
    {
      "channel": 2,
      "note": 87,
      "start": 6.7321,
      "duration": 0.0124,
      "velocity": 76,
      "chip": "ym2612"
    },
    {
      "channel": 2,
      "note": 82,
      "start": 6.7583,
      "duration": 0.0122,
      "velocity": 76,
      "chip": "ym2612"
    },
    {
      "channel": 1,
      "note": 92,
      "start": 6.7704,
      "duration": 0.0125,
      "velocity": 76,
      "chip": "ym2612"
    },
    {
      "channel": 2,
      "note": 89,
      "start": 6.7707,
      "duration": 0.0124,
      "velocity": 76,
      "chip": "ym2612"
    },
    {
      "channel": 1,
      "note": 91,
      "start": 6.7956,
      "duration": 0.0262,
      "velocity": 76,
      "chip": "ym2612"
    },
    {
      "channel": 2,
      "note": 87,
      "start": 6.7958,
      "duration": 0.0511,
      "velocity": 76,
      "chip": "ym2612"
    },
    {
      "channel": 1,
      "note": 89,
      "start": 6.822,
      "duration": 0.012,
      "velocity": 76,
      "chip": "ym2612"
    },
    {
      "channel": 0,
      "note": 58,
      "start": 6.8467,
      "duration": 0.0131,
      "velocity": 76,
      "chip": "ym2612"
    },
    {
      "channel": 2,
      "note": 82,
      "start": 6.8471,
      "duration": 0.013,
      "velocity": 76,
      "chip": "ym2612"
    },
    {
      "channel": 1,
      "note": 89,
      "start": 6.86,
      "duration": 0.0126,
      "velocity": 76,
      "chip": "ym2612"
    },
    {
      "channel": 2,
      "note": 85,
      "start": 6.8602,
      "duration": 0.0125,
      "velocity": 76,
      "chip": "ym2612"
    },
    {
      "channel": 1,
      "note": 89,
      "start": 6.8866,
      "duration": 0.0124,
      "velocity": 76,
      "chip": "ym2612"
    },
    {
      "channel": 2,
      "note": 85,
      "start": 6.8868,
      "duration": 0.0122,
      "velocity": 76,
      "chip": "ym2612"
    },
    {
      "channel": 0,
      "note": 70,
      "start": 6.8989,
      "duration": 0.0516,
      "velocity": 76,
      "chip": "ym2612"
    },
    {
      "channel": 2,
      "note": 82,
      "start": 6.9117,
      "duration": 0.0124,
      "velocity": 76,
      "chip": "ym2612"
    },
    {
      "channel": 1,
      "note": 91,
      "start": 6.9366,
      "duration": 0.0142,
      "velocity": 76,
      "chip": "ym2612"
    },
    {
      "channel": 2,
      "note": 87,
      "start": 6.9368,
      "duration": 0.014,
      "velocity": 76,
      "chip": "ym2612"
    },
    {
      "channel": 0,
      "note": 65,
      "start": 6.9507,
      "duration": 0.0121,
      "velocity": 76,
      "chip": "ym2612"
    },
    {
      "channel": 0,
      "note": 64,
      "start": 6.9629,
      "duration": 0.0377,
      "velocity": 76,
      "chip": "ym2612"
    },
    {
      "channel": 2,
      "note": 82,
      "start": 6.9632,
      "duration": 0.0126,
      "velocity": 76,
      "chip": "ym2612"
    },
    {
      "channel": 1,
      "note": 92,
      "start": 6.9757,
      "duration": 0.0125,
      "velocity": 76,
      "chip": "ym2612"
    },
    {
      "channel": 2,
      "note": 89,
      "start": 6.9759,
      "duration": 0.0124,
      "velocity": 76,
      "chip": "ym2612"
    },
    {
      "channel": 0,
      "note": 63,
      "start": 7.0008,
      "duration": 0.0141,
      "velocity": 76,
      "chip": "ym2612"
    },
    {
      "channel": 1,
      "note": 91,
      "start": 7.001,
      "duration": 0.0261,
      "velocity": 76,
      "chip": "ym2612"
    },
    {
      "channel": 2,
      "note": 87,
      "start": 7.0012,
      "duration": 0.0512,
      "velocity": 76,
      "chip": "ym2612"
    },
    {
      "channel": 0,
      "note": 61,
      "start": 7.027,
      "duration": 0.0251,
      "velocity": 76,
      "chip": "ym2612"
    },
    {
      "channel": 1,
      "note": 89,
      "start": 7.0273,
      "duration": 0.0124,
      "velocity": 76,
      "chip": "ym2612"
    },
    {
      "channel": 0,
      "note": 58,
      "start": 7.0523,
      "duration": 0.013,
      "velocity": 76,
      "chip": "ym2612"
    },
    {
      "channel": 2,
      "note": 82,
      "start": 7.0527,
      "duration": 0.0129,
      "velocity": 76,
      "chip": "ym2612"
    },
    {
      "channel": 1,
      "note": 89,
      "start": 7.0656,
      "duration": 0.0139,
      "velocity": 76,
      "chip": "ym2612"
    },
    {
      "channel": 2,
      "note": 85,
      "start": 7.0658,
      "duration": 0.0138,
      "velocity": 76,
      "chip": "ym2612"
    },
    {
      "channel": 1,
      "note": 89,
      "start": 7.0917,
      "duration": 0.0128,
      "velocity": 76,
      "chip": "ym2612"
    },
    {
      "channel": 2,
      "note": 85,
      "start": 7.092,
      "duration": 0.0127,
      "velocity": 76,
      "chip": "ym2612"
    },
    {
      "channel": 0,
      "note": 70,
      "start": 7.1045,
      "duration": 0.0513,
      "velocity": 76,
      "chip": "ym2612"
    },
    {
      "channel": 2,
      "note": 82,
      "start": 7.1173,
      "duration": 0.0123,
      "velocity": 76,
      "chip": "ym2612"
    },
    {
      "channel": 1,
      "note": 91,
      "start": 7.1435,
      "duration": 0.0124,
      "velocity": 76,
      "chip": "ym2612"
    },
    {
      "channel": 2,
      "note": 87,
      "start": 7.1438,
      "duration": 0.0122,
      "velocity": 76,
      "chip": "ym2612"
    },
    {
      "channel": 0,
      "note": 65,
      "start": 7.1559,
      "duration": 0.0126,
      "velocity": 76,
      "chip": "ym2612"
    },
    {
      "channel": 0,
      "note": 64,
      "start": 7.1687,
      "duration": 0.0392,
      "velocity": 76,
      "chip": "ym2612"
    },
    {
      "channel": 2,
      "note": 82,
      "start": 7.1689,
      "duration": 0.0126,
      "velocity": 76,
      "chip": "ym2612"
    },
    {
      "channel": 1,
      "note": 92,
      "start": 7.1815,
      "duration": 0.0126,
      "velocity": 76,
      "chip": "ym2612"
    },
    {
      "channel": 2,
      "note": 89,
      "start": 7.1817,
      "duration": 0.0125,
      "velocity": 76,
      "chip": "ym2612"
    },
    {
      "channel": 0,
      "note": 63,
      "start": 7.208,
      "duration": 0.0123,
      "velocity": 76,
      "chip": "ym2612"
    },
    {
      "channel": 1,
      "note": 91,
      "start": 7.2083,
      "duration": 0.0248,
      "velocity": 76,
      "chip": "ym2612"
    },
    {
      "channel": 2,
      "note": 87,
      "start": 7.2085,
      "duration": 0.0499,
      "velocity": 76,
      "chip": "ym2612"
    },
    {
      "channel": 0,
      "note": 61,
      "start": 7.2329,
      "duration": 0.0251,
      "velocity": 76,
      "chip": "ym2612"
    },
    {
      "channel": 1,
      "note": 89,
      "start": 7.2332,
      "duration": 0.0124,
      "velocity": 76,
      "chip": "ym2612"
    },
    {
      "channel": 0,
      "note": 58,
      "start": 7.2583,
      "duration": 0.0144,
      "velocity": 76,
      "chip": "ym2612"
    },
    {
      "channel": 2,
      "note": 82,
      "start": 7.2586,
      "duration": 0.0143,
      "velocity": 76,
      "chip": "ym2612"
    },
    {
      "channel": 1,
      "note": 89,
      "start": 7.2729,
      "duration": 0.0121,
      "velocity": 76,
      "chip": "ym2612"
    },
    {
      "channel": 2,
      "note": 85,
      "start": 7.2732,
      "duration": 0.012,
      "velocity": 76,
      "chip": "ym2612"
    },
    {
      "channel": 1,
      "note": 89,
      "start": 7.2977,
      "duration": 0.0128,
      "velocity": 76,
      "chip": "ym2612"
    },
    {
      "channel": 2,
      "note": 85,
      "start": 7.2979,
      "duration": 0.0126,
      "velocity": 76,
      "chip": "ym2612"
    },
    {
      "channel": 0,
      "note": 70,
      "start": 7.3104,
      "duration": 0.0512,
      "velocity": 76,
      "chip": "ym2612"
    },
    {
      "channel": 2,
      "note": 82,
      "start": 7.3231,
      "duration": 0.0137,
      "velocity": 76,
      "chip": "ym2612"
    },
    {
      "channel": 1,
      "note": 91,
      "start": 7.3489,
      "duration": 0.0128,
      "velocity": 76,
      "chip": "ym2612"
    },
    {
      "channel": 2,
      "note": 87,
      "start": 7.3491,
      "duration": 0.0127,
      "velocity": 76,
      "chip": "ym2612"
    },
    {
      "channel": 0,
      "note": 65,
      "start": 7.3617,
      "duration": 0.0126,
      "velocity": 76,
      "chip": "ym2612"
    },
    {
      "channel": 0,
      "note": 64,
      "start": 7.3744,
      "duration": 0.0389,
      "velocity": 76,
      "chip": "ym2612"
    },
    {
      "channel": 2,
      "note": 82,
      "start": 7.3747,
      "duration": 0.0127,
      "velocity": 76,
      "chip": "ym2612"
    },
    {
      "channel": 1,
      "note": 92,
      "start": 7.3873,
      "duration": 0.014,
      "velocity": 76,
      "chip": "ym2612"
    },
    {
      "channel": 2,
      "note": 89,
      "start": 7.3875,
      "duration": 0.0139,
      "velocity": 76,
      "chip": "ym2612"
    },
    {
      "channel": 0,
      "note": 63,
      "start": 7.4135,
      "duration": 0.0129,
      "velocity": 76,
      "chip": "ym2612"
    },
    {
      "channel": 1,
      "note": 91,
      "start": 7.4137,
      "duration": 0.0253,
      "velocity": 76,
      "chip": "ym2612"
    },
    {
      "channel": 2,
      "note": 87,
      "start": 7.4139,
      "duration": 0.0518,
      "velocity": 76,
      "chip": "ym2612"
    },
    {
      "channel": 0,
      "note": 61,
      "start": 7.4389,
      "duration": 0.0263,
      "velocity": 76,
      "chip": "ym2612"
    },
    {
      "channel": 1,
      "note": 89,
      "start": 7.4392,
      "duration": 0.0123,
      "velocity": 76,
      "chip": "ym2612"
    },
    {
      "channel": 0,
      "note": 58,
      "start": 7.4655,
      "duration": 0.0125,
      "velocity": 76,
      "chip": "ym2612"
    },
    {
      "channel": 2,
      "note": 82,
      "start": 7.4659,
      "duration": 0.0125,
      "velocity": 76,
      "chip": "ym2612"
    },
    {
      "channel": 1,
      "note": 89,
      "start": 7.4783,
      "duration": 0.0125,
      "velocity": 76,
      "chip": "ym2612"
    },
    {
      "channel": 2,
      "note": 85,
      "start": 7.4785,
      "duration": 0.0124,
      "velocity": 76,
      "chip": "ym2612"
    },
    {
      "channel": 1,
      "note": 89,
      "start": 7.5034,
      "duration": 0.0129,
      "velocity": 76,
      "chip": "ym2612"
    },
    {
      "channel": 2,
      "note": 85,
      "start": 7.5037,
      "duration": 0.0127,
      "velocity": 76,
      "chip": "ym2612"
    },
    {
      "channel": 0,
      "note": 70,
      "start": 7.5162,
      "duration": 0.0511,
      "velocity": 76,
      "chip": "ym2612"
    },
    {
      "channel": 2,
      "note": 82,
      "start": 7.5303,
      "duration": 0.0119,
      "velocity": 76,
      "chip": "ym2612"
    },
    {
      "channel": 1,
      "note": 91,
      "start": 7.5547,
      "duration": 0.0129,
      "velocity": 76,
      "chip": "ym2612"
    },
    {
      "channel": 2,
      "note": 87,
      "start": 7.555,
      "duration": 0.0127,
      "velocity": 76,
      "chip": "ym2612"
    },
    {
      "channel": 0,
      "note": 65,
      "start": 7.5675,
      "duration": 0.0125,
      "velocity": 76,
      "chip": "ym2612"
    },
    {
      "channel": 0,
      "note": 64,
      "start": 7.5802,
      "duration": 0.0389,
      "velocity": 76,
      "chip": "ym2612"
    },
    {
      "channel": 2,
      "note": 82,
      "start": 7.5805,
      "duration": 0.014,
      "velocity": 76,
      "chip": "ym2612"
    },
    {
      "channel": 1,
      "note": 92,
      "start": 7.5944,
      "duration": 0.0121,
      "velocity": 76,
      "chip": "ym2612"
    },
    {
      "channel": 2,
      "note": 89,
      "start": 7.5946,
      "duration": 0.012,
      "velocity": 76,
      "chip": "ym2612"
    },
    {
      "channel": 0,
      "note": 63,
      "start": 7.6193,
      "duration": 0.0128,
      "velocity": 76,
      "chip": "ym2612"
    },
    {
      "channel": 1,
      "note": 91,
      "start": 7.6195,
      "duration": 0.0254,
      "velocity": 76,
      "chip": "ym2612"
    },
    {
      "channel": 2,
      "note": 87,
      "start": 7.6197,
      "duration": 0.0515,
      "velocity": 76,
      "chip": "ym2612"
    },
    {
      "channel": 0,
      "note": 61,
      "start": 7.6448,
      "duration": 0.026,
      "velocity": 76,
      "chip": "ym2612"
    },
    {
      "channel": 1,
      "note": 89,
      "start": 7.645,
      "duration": 0.0137,
      "velocity": 76,
      "chip": "ym2612"
    },
    {
      "channel": 0,
      "note": 58,
      "start": 7.671,
      "duration": 0.0153,
      "velocity": 76,
      "chip": "ym2612"
    },
    {
      "channel": 2,
      "note": 82,
      "start": 7.6715,
      "duration": 0.0153,
      "velocity": 76,
      "chip": "ym2612"
    },
    {
      "channel": 3,
      "note": 46,
      "start": 7.6727,
      "duration": 0.0143,
      "velocity": 115,
      "chip": "ym2612"
    },
    {
      "channel": 4,
      "note": 32,
      "start": 7.674,
      "duration": 0.0132,
      "velocity": 114,
      "chip": "ym2612"
    },
    {
      "channel": 1,
      "note": 89,
      "start": 7.6867,
      "duration": 0.014,
      "velocity": 76,
      "chip": "ym2612"
    },
    {
      "channel": 2,
      "note": 85,
      "start": 7.6869,
      "duration": 0.0139,
      "velocity": 76,
      "chip": "ym2612"
    },
    {
      "channel": 3,
      "note": 53,
      "start": 7.6871,
      "duration": 0.0137,
      "velocity": 115,
      "chip": "ym2612"
    },
    {
      "channel": 4,
      "note": 68,
      "start": 7.6884,
      "duration": 0.0127,
      "velocity": 100,
      "chip": "ym2612"
    },
    {
      "channel": 3,
      "note": 46,
      "start": 7.701,
      "duration": 0.0131,
      "velocity": 115,
      "chip": "ym2612"
    },
    {
      "channel": 4,
      "note": 68,
      "start": 7.7012,
      "duration": 0.0131,
      "velocity": 100,
      "chip": "ym2612"
    },
    {
      "channel": 1,
      "note": 89,
      "start": 7.7138,
      "duration": 0.0145,
      "velocity": 76,
      "chip": "ym2612"
    },
    {
      "channel": 2,
      "note": 85,
      "start": 7.714,
      "duration": 0.0145,
      "velocity": 76,
      "chip": "ym2612"
    },
    {
      "channel": 3,
      "note": 53,
      "start": 7.7142,
      "duration": 0.0143,
      "velocity": 115,
      "chip": "ym2612"
    },
    {
      "channel": 4,
      "note": 68,
      "start": 7.7145,
      "duration": 0.0143,
      "velocity": 100,
      "chip": "ym2612"
    },
    {
      "channel": 0,
      "note": 70,
      "start": 7.7283,
      "duration": 0.0545,
      "velocity": 76,
      "chip": "ym2612"
    },
    {
      "channel": 3,
      "note": 46,
      "start": 7.7287,
      "duration": 0.0134,
      "velocity": 115,
      "chip": "ym2612"
    },
    {
      "channel": 4,
      "note": 84,
      "start": 7.73,
      "duration": 0.0123,
      "velocity": 127,
      "chip": "ym2612"
    },
    {
      "channel": 2,
      "note": 82,
      "start": 7.742,
      "duration": 0.0138,
      "velocity": 76,
      "chip": "ym2612"
    },
    {
      "channel": 3,
      "note": 53,
      "start": 7.7422,
      "duration": 0.0137,
      "velocity": 115,
      "chip": "ym2612"
    },
    {
      "channel": 4,
      "note": 68,
      "start": 7.7435,
      "duration": 0.0127,
      "velocity": 100,
      "chip": "ym2612"
    },
    {
      "channel": 3,
      "note": 46,
      "start": 7.7561,
      "duration": 0.0131,
      "velocity": 115,
      "chip": "ym2612"
    },
    {
      "channel": 4,
      "note": 68,
      "start": 7.7564,
      "duration": 0.013,
      "velocity": 100,
      "chip": "ym2612"
    },
    {
      "channel": 1,
      "note": 91,
      "start": 7.7689,
      "duration": 0.0142,
      "velocity": 76,
      "chip": "ym2612"
    },
    {
      "channel": 2,
      "note": 87,
      "start": 7.7691,
      "duration": 0.014,
      "velocity": 76,
      "chip": "ym2612"
    },
    {
      "channel": 3,
      "note": 53,
      "start": 7.7694,
      "duration": 0.0138,
      "velocity": 115,
      "chip": "ym2612"
    },
    {
      "channel": 4,
      "note": 84,
      "start": 7.7706,
      "duration": 0.0129,
      "velocity": 127,
      "chip": "ym2612"
    },
    {
      "channel": 0,
      "note": 65,
      "start": 7.783,
      "duration": 0.0154,
      "velocity": 76,
      "chip": "ym2612"
    },
    {
      "channel": 3,
      "note": 41,
      "start": 7.7834,
      "duration": 0.0154,
      "velocity": 115,
      "chip": "ym2612"
    },
    {
      "channel": 4,
      "note": 32,
      "start": 7.7846,
      "duration": 0.0144,
      "velocity": 114,
      "chip": "ym2612"
    },
    {
      "channel": 0,
      "note": 64,
      "start": 7.7985,
      "duration": 0.0407,
      "velocity": 76,
      "chip": "ym2612"
    },
    {
      "channel": 2,
      "note": 82,
      "start": 7.7988,
      "duration": 0.0136,
      "velocity": 76,
      "chip": "ym2612"
    },
    {
      "channel": 3,
      "note": 48,
      "start": 7.799,
      "duration": 0.0136,
      "velocity": 115,
      "chip": "ym2612"
    },
    {
      "channel": 4,
      "note": 84,
      "start": 7.8003,
      "duration": 0.0126,
      "velocity": 127,
      "chip": "ym2612"
    },
    {
      "channel": 1,
      "note": 92,
      "start": 7.8123,
      "duration": 0.0141,
      "velocity": 76,
      "chip": "ym2612"
    },
    {
      "channel": 2,
      "note": 89,
      "start": 7.8125,
      "duration": 0.0139,
      "velocity": 76,
      "chip": "ym2612"
    },
    {
      "channel": 3,
      "note": 41,
      "start": 7.8128,
      "duration": 0.0138,
      "velocity": 115,
      "chip": "ym2612"
    },
    {
      "channel": 4,
      "note": 68,
      "start": 7.8141,
      "duration": 0.0127,
      "velocity": 100,
      "chip": "ym2612"
    },
    {
      "channel": 3,
      "note": 48,
      "start": 7.8267,
      "duration": 0.0132,
      "velocity": 115,
      "chip": "ym2612"
    },
    {
      "channel": 4,
      "note": 68,
      "start": 7.827,
      "duration": 0.0132,
      "velocity": 100,
      "chip": "ym2612"
    },
    {
      "channel": 0,
      "note": 63,
      "start": 7.8395,
      "duration": 0.0142,
      "velocity": 76,
      "chip": "ym2612"
    },
    {
      "channel": 1,
      "note": 91,
      "start": 7.8397,
      "duration": 0.0295,
      "velocity": 76,
      "chip": "ym2612"
    },
    {
      "channel": 2,
      "note": 87,
      "start": 7.8399,
      "duration": 0.0552,
      "velocity": 76,
      "chip": "ym2612"
    },
    {
      "channel": 3,
      "note": 41,
      "start": 7.8402,
      "duration": 0.0137,
      "velocity": 115,
      "chip": "ym2612"
    },
    {
      "channel": 4,
      "note": 84,
      "start": 7.8415,
      "duration": 0.0126,
      "velocity": 127,
      "chip": "ym2612"
    },
    {
      "channel": 3,
      "note": 48,
      "start": 7.854,
      "duration": 0.0154,
      "velocity": 115,
      "chip": "ym2612"
    },
    {
      "channel": 4,
      "note": 68,
      "start": 7.8552,
      "duration": 0.0144,
      "velocity": 100,
      "chip": "ym2612"
    },
    {
      "channel": 0,
      "note": 61,
      "start": 7.8691,
      "duration": 0.0256,
      "velocity": 76,
      "chip": "ym2612"
    },
    {
      "channel": 1,
      "note": 89,
      "start": 7.8693,
      "duration": 0.0124,
      "velocity": 76,
      "chip": "ym2612"
    },
    {
      "channel": 3,
      "note": 49,
      "start": 7.8696,
      "duration": 0.0123,
      "velocity": 115,
      "chip": "ym2612"
    },
    {
      "channel": 4,
      "note": 68,
      "start": 7.8698,
      "duration": 0.0123,
      "velocity": 100,
      "chip": "ym2612"
    },
    {
      "channel": 3,
      "note": 48,
      "start": 7.8821,
      "duration": 0.0134,
      "velocity": 115,
      "chip": "ym2612"
    },
    {
      "channel": 4,
      "note": 68,
      "start": 7.8823,
      "duration": 0.0134,
      "velocity": 100,
      "chip": "ym2612"
    },
    {
      "channel": 0,
      "note": 58,
      "start": 7.895,
      "duration": 0.0144,
      "velocity": 76,
      "chip": "ym2612"
    },
    {
      "channel": 2,
      "note": 82,
      "start": 7.8954,
      "duration": 0.0143,
      "velocity": 76,
      "chip": "ym2612"
    },
    {
      "channel": 3,
      "note": 46,
      "start": 7.8956,
      "duration": 0.0143,
      "velocity": 115,
      "chip": "ym2612"
    },
    {
      "channel": 4,
      "note": 32,
      "start": 7.8969,
      "duration": 0.0133,
      "velocity": 114,
      "chip": "ym2612"
    },
    {
      "channel": 1,
      "note": 89,
      "start": 7.9097,
      "duration": 0.0139,
      "velocity": 76,
      "chip": "ym2612"
    },
    {
      "channel": 2,
      "note": 85,
      "start": 7.9099,
      "duration": 0.0138,
      "velocity": 76,
      "chip": "ym2612"
    },
    {
      "channel": 3,
      "note": 53,
      "start": 7.9102,
      "duration": 0.0137,
      "velocity": 115,
      "chip": "ym2612"
    },
    {
      "channel": 4,
      "note": 68,
      "start": 7.9114,
      "duration": 0.0127,
      "velocity": 100,
      "chip": "ym2612"
    },
    {
      "channel": 3,
      "note": 46,
      "start": 7.9241,
      "duration": 0.0144,
      "velocity": 115,
      "chip": "ym2612"
    },
    {
      "channel": 4,
      "note": 68,
      "start": 7.9243,
      "duration": 0.0143,
      "velocity": 100,
      "chip": "ym2612"
    },
    {
      "channel": 1,
      "note": 89,
      "start": 7.9381,
      "duration": 0.0129,
      "velocity": 76,
      "chip": "ym2612"
    },
    {
      "channel": 2,
      "note": 85,
      "start": 7.9384,
      "duration": 0.0127,
      "velocity": 76,
      "chip": "ym2612"
    },
    {
      "channel": 3,
      "note": 53,
      "start": 7.9386,
      "duration": 0.0126,
      "velocity": 115,
      "chip": "ym2612"
    },
    {
      "channel": 4,
      "note": 68,
      "start": 7.9389,
      "duration": 0.0125,
      "velocity": 100,
      "chip": "ym2612"
    },
    {
      "channel": 0,
      "note": 70,
      "start": 7.9509,
      "duration": 0.0563,
      "velocity": 76,
      "chip": "ym2612"
    },
    {
      "channel": 3,
      "note": 46,
      "start": 7.9514,
      "duration": 0.0138,
      "velocity": 115,
      "chip": "ym2612"
    },
    {
      "channel": 4,
      "note": 84,
      "start": 7.9526,
      "duration": 0.0128,
      "velocity": 127,
      "chip": "ym2612"
    },
    {
      "channel": 2,
      "note": 82,
      "start": 7.9652,
      "duration": 0.0138,
      "velocity": 76,
      "chip": "ym2612"
    },
    {
      "channel": 3,
      "note": 53,
      "start": 7.9654,
      "duration": 0.0137,
      "velocity": 115,
      "chip": "ym2612"
    },
    {
      "channel": 4,
      "note": 68,
      "start": 7.9666,
      "duration": 0.0126,
      "velocity": 100,
      "chip": "ym2612"
    },
    {
      "channel": 3,
      "note": 46,
      "start": 7.9792,
      "duration": 0.0131,
      "velocity": 115,
      "chip": "ym2612"
    },
    {
      "channel": 4,
      "note": 68,
      "start": 7.9795,
      "duration": 0.013,
      "velocity": 100,
      "chip": "ym2612"
    },
    {
      "channel": 1,
      "note": 91,
      "start": 7.992,
      "duration": 0.0155,
      "velocity": 76,
      "chip": "ym2612"
    },
    {
      "channel": 2,
      "note": 87,
      "start": 7.9922,
      "duration": 0.0154,
      "velocity": 76,
      "chip": "ym2612"
    },
    {
      "channel": 3,
      "note": 53,
      "start": 7.9924,
      "duration": 0.0152,
      "velocity": 115,
      "chip": "ym2612"
    },
    {
      "channel": 4,
      "note": 84,
      "start": 7.9937,
      "duration": 0.0142,
      "velocity": 127,
      "chip": "ym2612"
    },
    {
      "channel": 0,
      "note": 65,
      "start": 8.0074,
      "duration": 0.0135,
      "velocity": 76,
      "chip": "ym2612"
    },
    {
      "channel": 3,
      "note": 41,
      "start": 8.0078,
      "duration": 0.0136,
      "velocity": 115,
      "chip": "ym2612"
    },
    {
      "channel": 4,
      "note": 32,
      "start": 8.0091,
      "duration": 0.0126,
      "velocity": 114,
      "chip": "ym2612"
    },
    {
      "channel": 0,
      "note": 64,
      "start": 8.0211,
      "duration": 0.0412,
      "velocity": 76,
      "chip": "ym2612"
    },
    {
      "channel": 2,
      "note": 82,
      "start": 8.0213,
      "duration": 0.014,
      "velocity": 76,
      "chip": "ym2612"
    },
    {
      "channel": 3,
      "note": 48,
      "start": 8.0216,
      "duration": 0.014,
      "velocity": 115,
      "chip": "ym2612"
    },
    {
      "channel": 4,
      "note": 84,
      "start": 8.0228,
      "duration": 0.013,
      "velocity": 127,
      "chip": "ym2612"
    },
    {
      "channel": 1,
      "note": 92,
      "start": 8.0353,
      "duration": 0.0141,
      "velocity": 76,
      "chip": "ym2612"
    },
    {
      "channel": 2,
      "note": 89,
      "start": 8.0355,
      "duration": 0.0139,
      "velocity": 76,
      "chip": "ym2612"
    },
    {
      "channel": 3,
      "note": 41,
      "start": 8.0358,
      "duration": 0.0138,
      "velocity": 115,
      "chip": "ym2612"
    },
    {
      "channel": 4,
      "note": 68,
      "start": 8.037,
      "duration": 0.0128,
      "velocity": 100,
      "chip": "ym2612"
    },
    {
      "channel": 3,
      "note": 48,
      "start": 8.0497,
      "duration": 0.0133,
      "velocity": 115,
      "chip": "ym2612"
    },
    {
      "channel": 4,
      "note": 68,
      "start": 8.05,
      "duration": 0.0132,
      "velocity": 100,
      "chip": "ym2612"
    },
    {
      "channel": 0,
      "note": 63,
      "start": 8.0624,
      "duration": 0.0155,
      "velocity": 76,
      "chip": "ym2612"
    },
    {
      "channel": 1,
      "note": 91,
      "start": 8.0627,
      "duration": 0.029,
      "velocity": 76,
      "chip": "ym2612"
    },
    {
      "channel": 2,
      "note": 87,
      "start": 8.0629,
      "duration": 0.0551,
      "velocity": 76,
      "chip": "ym2612"
    },
    {
      "channel": 3,
      "note": 41,
      "start": 8.0632,
      "duration": 0.015,
      "velocity": 115,
      "chip": "ym2612"
    },
    {
      "channel": 4,
      "note": 84,
      "start": 8.0644,
      "duration": 0.014,
      "velocity": 127,
      "chip": "ym2612"
    },
    {
      "channel": 3,
      "note": 48,
      "start": 8.0783,
      "duration": 0.0136,
      "velocity": 115,
      "chip": "ym2612"
    },
    {
      "channel": 4,
      "note": 68,
      "start": 8.0796,
      "duration": 0.0126,
      "velocity": 100,
      "chip": "ym2612"
    },
    {
      "channel": 0,
      "note": 61,
      "start": 8.0916,
      "duration": 0.0261,
      "velocity": 76,
      "chip": "ym2612"
    },
    {
      "channel": 1,
      "note": 89,
      "start": 8.0919,
      "duration": 0.0129,
      "velocity": 76,
      "chip": "ym2612"
    },
    {
      "channel": 3,
      "note": 49,
      "start": 8.0921,
      "duration": 0.0127,
      "velocity": 115,
      "chip": "ym2612"
    },
    {
      "channel": 4,
      "note": 68,
      "start": 8.0924,
      "duration": 0.0127,
      "velocity": 100,
      "chip": "ym2612"
    },
    {
      "channel": 3,
      "note": 48,
      "start": 8.105,
      "duration": 0.0134,
      "velocity": 115,
      "chip": "ym2612"
    },
    {
      "channel": 4,
      "note": 68,
      "start": 8.1053,
      "duration": 0.0134,
      "velocity": 100,
      "chip": "ym2612"
    },
    {
      "channel": 0,
      "note": 58,
      "start": 8.1178,
      "duration": 0.0143,
      "velocity": 76,
      "chip": "ym2612"
    },
    {
      "channel": 2,
      "note": 82,
      "start": 8.1183,
      "duration": 0.0142,
      "velocity": 76,
      "chip": "ym2612"
    },
    {
      "channel": 3,
      "note": 46,
      "start": 8.1185,
      "duration": 0.0142,
      "velocity": 115,
      "chip": "ym2612"
    },
    {
      "channel": 4,
      "note": 32,
      "start": 8.1198,
      "duration": 0.0131,
      "velocity": 114,
      "chip": "ym2612"
    },
    {
      "channel": 1,
      "note": 89,
      "start": 8.1324,
      "duration": 0.0154,
      "velocity": 76,
      "chip": "ym2612"
    },
    {
      "channel": 2,
      "note": 85,
      "start": 8.1327,
      "duration": 0.0153,
      "velocity": 76,
      "chip": "ym2612"
    },
    {
      "channel": 3,
      "note": 53,
      "start": 8.1329,
      "duration": 0.0152,
      "velocity": 115,
      "chip": "ym2612"
    },
    {
      "channel": 4,
      "note": 68,
      "start": 8.1341,
      "duration": 0.0142,
      "velocity": 100,
      "chip": "ym2612"
    },
    {
      "channel": 3,
      "note": 46,
      "start": 8.1483,
      "duration": 0.0126,
      "velocity": 115,
      "chip": "ym2612"
    },
    {
      "channel": 4,
      "note": 68,
      "start": 8.1485,
      "duration": 0.0126,
      "velocity": 100,
      "chip": "ym2612"
    },
    {
      "channel": 1,
      "note": 89,
      "start": 8.1606,
      "duration": 0.0133,
      "velocity": 76,
      "chip": "ym2612"
    },
    {
      "channel": 2,
      "note": 85,
      "start": 8.1607,
      "duration": 0.0132,
      "velocity": 76,
      "chip": "ym2612"
    },
    {
      "channel": 3,
      "note": 53,
      "start": 8.161,
      "duration": 0.013,
      "velocity": 115,
      "chip": "ym2612"
    },
    {
      "channel": 4,
      "note": 68,
      "start": 8.1613,
      "duration": 0.013,
      "velocity": 100,
      "chip": "ym2612"
    },
    {
      "channel": 0,
      "note": 70,
      "start": 8.1738,
      "duration": 0.0561,
      "velocity": 76,
      "chip": "ym2612"
    },
    {
      "channel": 3,
      "note": 46,
      "start": 8.1742,
      "duration": 0.0139,
      "velocity": 115,
      "chip": "ym2612"
    },
    {
      "channel": 4,
      "note": 84,
      "start": 8.1755,
      "duration": 0.0129,
      "velocity": 127,
      "chip": "ym2612"
    },
    {
      "channel": 2,
      "note": 82,
      "start": 8.188,
      "duration": 0.0139,
      "velocity": 76,
      "chip": "ym2612"
    },
    {
      "channel": 3,
      "note": 53,
      "start": 8.1883,
      "duration": 0.0137,
      "velocity": 115,
      "chip": "ym2612"
    },
    {
      "channel": 4,
      "note": 68,
      "start": 8.1896,
      "duration": 0.0127,
      "velocity": 100,
      "chip": "ym2612"
    },
    {
      "channel": 3,
      "note": 46,
      "start": 8.2022,
      "duration": 0.0144,
      "velocity": 115,
      "chip": "ym2612"
    },
    {
      "channel": 4,
      "note": 68,
      "start": 8.2025,
      "duration": 0.0143,
      "velocity": 100,
      "chip": "ym2612"
    },
    {
      "channel": 1,
      "note": 91,
      "start": 8.2163,
      "duration": 0.0139,
      "velocity": 76,
      "chip": "ym2612"
    },
    {
      "channel": 2,
      "note": 87,
      "start": 8.2165,
      "duration": 0.0137,
      "velocity": 76,
      "chip": "ym2612"
    },
    {
      "channel": 3,
      "note": 53,
      "start": 8.2167,
      "duration": 0.0136,
      "velocity": 115,
      "chip": "ym2612"
    },
    {
      "channel": 4,
      "note": 84,
      "start": 8.218,
      "duration": 0.0126,
      "velocity": 127,
      "chip": "ym2612"
    },
    {
      "channel": 0,
      "note": 65,
      "start": 8.23,
      "duration": 0.0139,
      "velocity": 76,
      "chip": "ym2612"
    },
    {
      "channel": 3,
      "note": 41,
      "start": 8.2305,
      "duration": 0.0139,
      "velocity": 115,
      "chip": "ym2612"
    },
    {
      "channel": 4,
      "note": 32,
      "start": 8.2317,
      "duration": 0.013,
      "velocity": 114,
      "chip": "ym2612"
    },
    {
      "channel": 0,
      "note": 64,
      "start": 8.2441,
      "duration": 0.0425,
      "velocity": 76,
      "chip": "ym2612"
    },
    {
      "channel": 2,
      "note": 82,
      "start": 8.2444,
      "duration": 0.0141,
      "velocity": 76,
      "chip": "ym2612"
    },
    {
      "channel": 3,
      "note": 48,
      "start": 8.2446,
      "duration": 0.0141,
      "velocity": 115,
      "chip": "ym2612"
    },
    {
      "channel": 4,
      "note": 84,
      "start": 8.2459,
      "duration": 0.0131,
      "velocity": 127,
      "chip": "ym2612"
    },
    {
      "channel": 1,
      "note": 92,
      "start": 8.2584,
      "duration": 0.0139,
      "velocity": 76,
      "chip": "ym2612"
    },
    {
      "channel": 2,
      "note": 89,
      "start": 8.2586,
      "duration": 0.0138,
      "velocity": 76,
      "chip": "ym2612"
    },
    {
      "channel": 3,
      "note": 41,
      "start": 8.2589,
      "duration": 0.0136,
      "velocity": 115,
      "chip": "ym2612"
    },
    {
      "channel": 4,
      "note": 68,
      "start": 8.2601,
      "duration": 0.0127,
      "velocity": 100,
      "chip": "ym2612"
    },
    {
      "channel": 3,
      "note": 48,
      "start": 8.2727,
      "duration": 0.0146,
      "velocity": 115,
      "chip": "ym2612"
    },
    {
      "channel": 4,
      "note": 68,
      "start": 8.2729,
      "duration": 0.0146,
      "velocity": 100,
      "chip": "ym2612"
    },
    {
      "channel": 0,
      "note": 63,
      "start": 8.2868,
      "duration": 0.0137,
      "velocity": 76,
      "chip": "ym2612"
    },
    {
      "channel": 1,
      "note": 91,
      "start": 8.287,
      "duration": 0.0276,
      "velocity": 76,
      "chip": "ym2612"
    },
    {
      "channel": 2,
      "note": 87,
      "start": 8.2872,
      "duration": 0.0538,
      "velocity": 76,
      "chip": "ym2612"
    },
    {
      "channel": 3,
      "note": 41,
      "start": 8.2875,
      "duration": 0.0131,
      "velocity": 115,
      "chip": "ym2612"
    },
    {
      "channel": 4,
      "note": 84,
      "start": 8.2887,
      "duration": 0.0121,
      "velocity": 127,
      "chip": "ym2612"
    },
    {
      "channel": 3,
      "note": 48,
      "start": 8.3008,
      "duration": 0.0141,
      "velocity": 115,
      "chip": "ym2612"
    },
    {
      "channel": 4,
      "note": 68,
      "start": 8.3021,
      "duration": 0.0131,
      "velocity": 100,
      "chip": "ym2612"
    },
    {
      "channel": 0,
      "note": 61,
      "start": 8.3146,
      "duration": 0.026,
      "velocity": 76,
      "chip": "ym2612"
    },
    {
      "channel": 1,
      "note": 89,
      "start": 8.3148,
      "duration": 0.0129,
      "velocity": 76,
      "chip": "ym2612"
    },
    {
      "channel": 3,
      "note": 49,
      "start": 8.3151,
      "duration": 0.0127,
      "velocity": 115,
      "chip": "ym2612"
    },
    {
      "channel": 4,
      "note": 68,
      "start": 8.3153,
      "duration": 0.0127,
      "velocity": 100,
      "chip": "ym2612"
    },
    {
      "channel": 3,
      "note": 48,
      "start": 8.3279,
      "duration": 0.0133,
      "velocity": 115,
      "chip": "ym2612"
    },
    {
      "channel": 4,
      "note": 68,
      "start": 8.3282,
      "duration": 0.0133,
      "velocity": 100,
      "chip": "ym2612"
    },
    {
      "channel": 0,
      "note": 58,
      "start": 8.3408,
      "duration": 0.0157,
      "velocity": 76,
      "chip": "ym2612"
    },
    {
      "channel": 2,
      "note": 82,
      "start": 8.3412,
      "duration": 0.0157,
      "velocity": 76,
      "chip": "ym2612"
    },
    {
      "channel": 3,
      "note": 46,
      "start": 8.3415,
      "duration": 0.0156,
      "velocity": 115,
      "chip": "ym2612"
    },
    {
      "channel": 4,
      "note": 32,
      "start": 8.3428,
      "duration": 0.0145,
      "velocity": 114,
      "chip": "ym2612"
    },
    {
      "channel": 1,
      "note": 89,
      "start": 8.3568,
      "duration": 0.0136,
      "velocity": 76,
      "chip": "ym2612"
    },
    {
      "channel": 2,
      "note": 85,
      "start": 8.3571,
      "duration": 0.0134,
      "velocity": 76,
      "chip": "ym2612"
    },
    {
      "channel": 3,
      "note": 53,
      "start": 8.3573,
      "duration": 0.0133,
      "velocity": 115,
      "chip": "ym2612"
    },
    {
      "channel": 4,
      "note": 68,
      "start": 8.3585,
      "duration": 0.0123,
      "velocity": 100,
      "chip": "ym2612"
    },
    {
      "channel": 3,
      "note": 46,
      "start": 8.3707,
      "duration": 0.0131,
      "velocity": 115,
      "chip": "ym2612"
    },
    {
      "channel": 4,
      "note": 68,
      "start": 8.371,
      "duration": 0.0131,
      "velocity": 100,
      "chip": "ym2612"
    },
    {
      "channel": 1,
      "note": 89,
      "start": 8.3835,
      "duration": 0.0133,
      "velocity": 76,
      "chip": "ym2612"
    },
    {
      "channel": 2,
      "note": 85,
      "start": 8.3838,
      "duration": 0.0131,
      "velocity": 76,
      "chip": "ym2612"
    },
    {
      "channel": 3,
      "note": 53,
      "start": 8.384,
      "duration": 0.0129,
      "velocity": 115,
      "chip": "ym2612"
    },
    {
      "channel": 4,
      "note": 68,
      "start": 8.3843,
      "duration": 0.0129,
      "velocity": 100,
      "chip": "ym2612"
    },
    {
      "channel": 0,
      "note": 70,
      "start": 8.3967,
      "duration": 0.0559,
      "velocity": 76,
      "chip": "ym2612"
    },
    {
      "channel": 3,
      "note": 46,
      "start": 8.3971,
      "duration": 0.0138,
      "velocity": 115,
      "chip": "ym2612"
    },
    {
      "channel": 4,
      "note": 84,
      "start": 8.3984,
      "duration": 0.0128,
      "velocity": 127,
      "chip": "ym2612"
    },
    {
      "channel": 2,
      "note": 82,
      "start": 8.4109,
      "duration": 0.0152,
      "velocity": 76,
      "chip": "ym2612"
    },
    {
      "channel": 3,
      "note": 53,
      "start": 8.4111,
      "duration": 0.015,
      "velocity": 115,
      "chip": "ym2612"
    },
    {
      "channel": 4,
      "note": 68,
      "start": 8.4124,
      "duration": 0.0139,
      "velocity": 100,
      "chip": "ym2612"
    },
    {
      "channel": 3,
      "note": 46,
      "start": 8.4263,
      "duration": 0.0126,
      "velocity": 115,
      "chip": "ym2612"
    },
    {
      "channel": 4,
      "note": 68,
      "start": 8.4266,
      "duration": 0.0125,
      "velocity": 100,
      "chip": "ym2612"
    },
    {
      "channel": 1,
      "note": 91,
      "start": 8.4386,
      "duration": 0.0143,
      "velocity": 76,
      "chip": "ym2612"
    },
    {
      "channel": 2,
      "note": 87,
      "start": 8.4388,
      "duration": 0.0141,
      "velocity": 76,
      "chip": "ym2612"
    },
    {
      "channel": 3,
      "note": 53,
      "start": 8.4391,
      "duration": 0.014,
      "velocity": 115,
      "chip": "ym2612"
    },
    {
      "channel": 4,
      "note": 84,
      "start": 8.4403,
      "duration": 0.013,
      "velocity": 127,
      "chip": "ym2612"
    },
    {
      "channel": 0,
      "note": 65,
      "start": 8.4528,
      "duration": 0.0141,
      "velocity": 76,
      "chip": "ym2612"
    },
    {
      "channel": 3,
      "note": 41,
      "start": 8.4533,
      "duration": 0.0141,
      "velocity": 115,
      "chip": "ym2612"
    },
    {
      "channel": 4,
      "note": 32,
      "start": 8.4545,
      "duration": 0.0131,
      "velocity": 114,
      "chip": "ym2612"
    },
    {
      "channel": 0,
      "note": 64,
      "start": 8.467,
      "duration": 0.0422,
      "velocity": 76,
      "chip": "ym2612"
    },
    {
      "channel": 2,
      "note": 82,
      "start": 8.4673,
      "duration": 0.0142,
      "velocity": 76,
      "chip": "ym2612"
    },
    {
      "channel": 3,
      "note": 48,
      "start": 8.4675,
      "duration": 0.0141,
      "velocity": 115,
      "chip": "ym2612"
    },
    {
      "channel": 4,
      "note": 84,
      "start": 8.4688,
      "duration": 0.0131,
      "velocity": 127,
      "chip": "ym2612"
    },
    {
      "channel": 1,
      "note": 92,
      "start": 8.4814,
      "duration": 0.0154,
      "velocity": 76,
      "chip": "ym2612"
    },
    {
      "channel": 2,
      "note": 89,
      "start": 8.4816,
      "duration": 0.0152,
      "velocity": 76,
      "chip": "ym2612"
    },
    {
      "channel": 3,
      "note": 41,
      "start": 8.4818,
      "duration": 0.0151,
      "velocity": 115,
      "chip": "ym2612"
    },
    {
      "channel": 4,
      "note": 68,
      "start": 8.4831,
      "duration": 0.0141,
      "velocity": 100,
      "chip": "ym2612"
    },
    {
      "channel": 3,
      "note": 48,
      "start": 8.4971,
      "duration": 0.0127,
      "velocity": 115,
      "chip": "ym2612"
    },
    {
      "channel": 4,
      "note": 68,
      "start": 8.4973,
      "duration": 0.0128,
      "velocity": 100,
      "chip": "ym2612"
    },
    {
      "channel": 0,
      "note": 63,
      "start": 8.5093,
      "duration": 0.0143,
      "velocity": 76,
      "chip": "ym2612"
    },
    {
      "channel": 1,
      "note": 91,
      "start": 8.5096,
      "duration": 0.0281,
      "velocity": 76,
      "chip": "ym2612"
    },
    {
      "channel": 2,
      "note": 87,
      "start": 8.5098,
      "duration": 0.0555,
      "velocity": 76,
      "chip": "ym2612"
    },
    {
      "channel": 3,
      "note": 41,
      "start": 8.51,
      "duration": 0.0137,
      "velocity": 115,
      "chip": "ym2612"
    },
    {
      "channel": 4,
      "note": 84,
      "start": 8.5113,
      "duration": 0.0126,
      "velocity": 127,
      "chip": "ym2612"
    },
    {
      "channel": 3,
      "note": 48,
      "start": 8.5239,
      "duration": 0.0141,
      "velocity": 115,
      "chip": "ym2612"
    },
    {
      "channel": 4,
      "note": 68,
      "start": 8.5252,
      "duration": 0.013,
      "velocity": 100,
      "chip": "ym2612"
    },
    {
      "channel": 0,
      "note": 61,
      "start": 8.5376,
      "duration": 0.0272,
      "velocity": 76,
      "chip": "ym2612"
    },
    {
      "channel": 1,
      "note": 89,
      "start": 8.5379,
      "duration": 0.0127,
      "velocity": 76,
      "chip": "ym2612"
    },
    {
      "channel": 3,
      "note": 49,
      "start": 8.5381,
      "duration": 0.0126,
      "velocity": 115,
      "chip": "ym2612"
    },
    {
      "channel": 4,
      "note": 68,
      "start": 8.5384,
      "duration": 0.0125,
      "velocity": 100,
      "chip": "ym2612"
    },
    {
      "channel": 3,
      "note": 48,
      "start": 8.5509,
      "duration": 0.0147,
      "velocity": 115,
      "chip": "ym2612"
    },
    {
      "channel": 4,
      "note": 68,
      "start": 8.5512,
      "duration": 0.0146,
      "velocity": 100,
      "chip": "ym2612"
    },
    {
      "channel": 0,
      "note": 58,
      "start": 8.5651,
      "duration": 0.0139,
      "velocity": 76,
      "chip": "ym2612"
    },
    {
      "channel": 2,
      "note": 82,
      "start": 8.5655,
      "duration": 0.0138,
      "velocity": 76,
      "chip": "ym2612"
    },
    {
      "channel": 3,
      "note": 46,
      "start": 8.5658,
      "duration": 0.0137,
      "velocity": 115,
      "chip": "ym2612"
    },
    {
      "channel": 4,
      "note": 32,
      "start": 8.5671,
      "duration": 0.0127,
      "velocity": 114,
      "chip": "ym2612"
    },
    {
      "channel": 1,
      "note": 89,
      "start": 8.5793,
      "duration": 0.014,
      "velocity": 76,
      "chip": "ym2612"
    },
    {
      "channel": 2,
      "note": 85,
      "start": 8.5794,
      "duration": 0.0139,
      "velocity": 76,
      "chip": "ym2612"
    },
    {
      "channel": 3,
      "note": 53,
      "start": 8.5797,
      "duration": 0.0137,
      "velocity": 115,
      "chip": "ym2612"
    },
    {
      "channel": 4,
      "note": 68,
      "start": 8.581,
      "duration": 0.0127,
      "velocity": 100,
      "chip": "ym2612"
    },
    {
      "channel": 3,
      "note": 46,
      "start": 8.5936,
      "duration": 0.0132,
      "velocity": 115,
      "chip": "ym2612"
    },
    {
      "channel": 4,
      "note": 68,
      "start": 8.5939,
      "duration": 0.0131,
      "velocity": 100,
      "chip": "ym2612"
    },
    {
      "channel": 1,
      "note": 89,
      "start": 8.6064,
      "duration": 0.0133,
      "velocity": 76,
      "chip": "ym2612"
    },
    {
      "channel": 2,
      "note": 85,
      "start": 8.6067,
      "duration": 0.0132,
      "velocity": 76,
      "chip": "ym2612"
    },
    {
      "channel": 3,
      "note": 53,
      "start": 8.6069,
      "duration": 0.013,
      "velocity": 115,
      "chip": "ym2612"
    },
    {
      "channel": 4,
      "note": 68,
      "start": 8.6072,
      "duration": 0.0129,
      "velocity": 100,
      "chip": "ym2612"
    },
    {
      "channel": 0,
      "note": 70,
      "start": 8.6197,
      "duration": 0.0561,
      "velocity": 76,
      "chip": "ym2612"
    },
    {
      "channel": 3,
      "note": 46,
      "start": 8.6201,
      "duration": 0.0152,
      "velocity": 115,
      "chip": "ym2612"
    },
    {
      "channel": 4,
      "note": 84,
      "start": 8.6214,
      "duration": 0.0142,
      "velocity": 127,
      "chip": "ym2612"
    },
    {
      "channel": 2,
      "note": 82,
      "start": 8.6353,
      "duration": 0.0134,
      "velocity": 76,
      "chip": "ym2612"
    },
    {
      "channel": 3,
      "note": 53,
      "start": 8.6355,
      "duration": 0.0132,
      "velocity": 115,
      "chip": "ym2612"
    },
    {
      "channel": 4,
      "note": 68,
      "start": 8.6367,
      "duration": 0.0123,
      "velocity": 100,
      "chip": "ym2612"
    },
    {
      "channel": 3,
      "note": 46,
      "start": 8.649,
      "duration": 0.0131,
      "velocity": 115,
      "chip": "ym2612"
    },
    {
      "channel": 4,
      "note": 68,
      "start": 8.6492,
      "duration": 0.0131,
      "velocity": 100,
      "chip": "ym2612"
    },
    {
      "channel": 1,
      "note": 91,
      "start": 8.6617,
      "duration": 0.0143,
      "velocity": 76,
      "chip": "ym2612"
    },
    {
      "channel": 2,
      "note": 87,
      "start": 8.662,
      "duration": 0.0141,
      "velocity": 76,
      "chip": "ym2612"
    },
    {
      "channel": 3,
      "note": 53,
      "start": 8.6622,
      "duration": 0.0139,
      "velocity": 115,
      "chip": "ym2612"
    },
    {
      "channel": 4,
      "note": 84,
      "start": 8.6634,
      "duration": 0.013,
      "velocity": 127,
      "chip": "ym2612"
    },
    {
      "channel": 0,
      "note": 65,
      "start": 8.6759,
      "duration": 0.0139,
      "velocity": 76,
      "chip": "ym2612"
    },
    {
      "channel": 3,
      "note": 41,
      "start": 8.6763,
      "duration": 0.0139,
      "velocity": 115,
      "chip": "ym2612"
    },
    {
      "channel": 4,
      "note": 32,
      "start": 8.6776,
      "duration": 0.0129,
      "velocity": 114,
      "chip": "ym2612"
    },
    {
      "channel": 0,
      "note": 64,
      "start": 8.69,
      "duration": 0.0421,
      "velocity": 76,
      "chip": "ym2612"
    },
    {
      "channel": 2,
      "note": 82,
      "start": 8.6902,
      "duration": 0.0155,
      "velocity": 76,
      "chip": "ym2612"
    },
    {
      "channel": 3,
      "note": 48,
      "start": 8.6905,
      "duration": 0.0155,
      "velocity": 115,
      "chip": "ym2612"
    },
    {
      "channel": 4,
      "note": 84,
      "start": 8.6917,
      "duration": 0.0144,
      "velocity": 127,
      "chip": "ym2612"
    },
    {
      "channel": 1,
      "note": 92,
      "start": 8.7057,
      "duration": 0.0136,
      "velocity": 76,
      "chip": "ym2612"
    },
    {
      "channel": 2,
      "note": 89,
      "start": 8.7059,
      "duration": 0.0134,
      "velocity": 76,
      "chip": "ym2612"
    },
    {
      "channel": 3,
      "note": 41,
      "start": 8.7061,
      "duration": 0.0132,
      "velocity": 115,
      "chip": "ym2612"
    },
    {
      "channel": 4,
      "note": 68,
      "start": 8.7074,
      "duration": 0.0122,
      "velocity": 100,
      "chip": "ym2612"
    },
    {
      "channel": 3,
      "note": 48,
      "start": 8.7195,
      "duration": 0.0133,
      "velocity": 115,
      "chip": "ym2612"
    },
    {
      "channel": 4,
      "note": 68,
      "start": 8.7198,
      "duration": 0.0133,
      "velocity": 100,
      "chip": "ym2612"
    },
    {
      "channel": 0,
      "note": 63,
      "start": 8.7323,
      "duration": 0.0144,
      "velocity": 76,
      "chip": "ym2612"
    },
    {
      "channel": 1,
      "note": 91,
      "start": 8.7326,
      "duration": 0.0281,
      "velocity": 76,
      "chip": "ym2612"
    },
    {
      "channel": 2,
      "note": 87,
      "start": 8.7328,
      "duration": 0.055,
      "velocity": 76,
      "chip": "ym2612"
    },
    {
      "channel": 3,
      "note": 41,
      "start": 8.733,
      "duration": 0.0138,
      "velocity": 115,
      "chip": "ym2612"
    },
    {
      "channel": 4,
      "note": 84,
      "start": 8.7343,
      "duration": 0.0127,
      "velocity": 127,
      "chip": "ym2612"
    },
    {
      "channel": 3,
      "note": 48,
      "start": 8.747,
      "duration": 0.0139,
      "velocity": 115,
      "chip": "ym2612"
    },
    {
      "channel": 4,
      "note": 68,
      "start": 8.7483,
      "duration": 0.0129,
      "velocity": 100,
      "chip": "ym2612"
    },
    {
      "channel": 0,
      "note": 61,
      "start": 8.7606,
      "duration": 0.0267,
      "velocity": 76,
      "chip": "ym2612"
    },
    {
      "channel": 1,
      "note": 89,
      "start": 8.7608,
      "duration": 0.0141,
      "velocity": 76,
      "chip": "ym2612"
    },
    {
      "channel": 3,
      "note": 49,
      "start": 8.7611,
      "duration": 0.014,
      "velocity": 115,
      "chip": "ym2612"
    },
    {
      "channel": 4,
      "note": 68,
      "start": 8.7613,
      "duration": 0.014,
      "velocity": 100,
      "chip": "ym2612"
    },
    {
      "channel": 3,
      "note": 48,
      "start": 8.7752,
      "duration": 0.0128,
      "velocity": 115,
      "chip": "ym2612"
    },
    {
      "channel": 4,
      "note": 68,
      "start": 8.7755,
      "duration": 0.0128,
      "velocity": 100,
      "chip": "ym2612"
    },
    {
      "channel": 0,
      "note": 58,
      "start": 8.7876,
      "duration": 0.0144,
      "velocity": 76,
      "chip": "ym2612"
    },
    {
      "channel": 2,
      "note": 82,
      "start": 8.788,
      "duration": 0.0143,
      "velocity": 76,
      "chip": "ym2612"
    },
    {
      "channel": 3,
      "note": 46,
      "start": 8.7883,
      "duration": 0.0143,
      "velocity": 115,
      "chip": "ym2612"
    },
    {
      "channel": 4,
      "note": 32,
      "start": 8.7895,
      "duration": 0.0132,
      "velocity": 114,
      "chip": "ym2612"
    },
    {
      "channel": 1,
      "note": 89,
      "start": 8.8023,
      "duration": 0.014,
      "velocity": 76,
      "chip": "ym2612"
    },
    {
      "channel": 2,
      "note": 85,
      "start": 8.8025,
      "duration": 0.0139,
      "velocity": 76,
      "chip": "ym2612"
    },
    {
      "channel": 3,
      "note": 53,
      "start": 8.8027,
      "duration": 0.0137,
      "velocity": 115,
      "chip": "ym2612"
    },
    {
      "channel": 4,
      "note": 68,
      "start": 8.804,
      "duration": 0.0127,
      "velocity": 100,
      "chip": "ym2612"
    },
    {
      "channel": 3,
      "note": 46,
      "start": 8.8166,
      "duration": 0.013,
      "velocity": 115,
      "chip": "ym2612"
    },
    {
      "channel": 4,
      "note": 68,
      "start": 8.8169,
      "duration": 0.013,
      "velocity": 100,
      "chip": "ym2612"
    },
    {
      "channel": 1,
      "note": 89,
      "start": 8.8294,
      "duration": 0.0146,
      "velocity": 76,
      "chip": "ym2612"
    },
    {
      "channel": 2,
      "note": 85,
      "start": 8.8296,
      "duration": 0.0145,
      "velocity": 76,
      "chip": "ym2612"
    },
    {
      "channel": 3,
      "note": 53,
      "start": 8.8298,
      "duration": 0.0143,
      "velocity": 115,
      "chip": "ym2612"
    },
    {
      "channel": 4,
      "note": 68,
      "start": 8.8301,
      "duration": 0.0143,
      "velocity": 100,
      "chip": "ym2612"
    },
    {
      "channel": 0,
      "note": 70,
      "start": 8.8439,
      "duration": 0.0547,
      "velocity": 76,
      "chip": "ym2612"
    },
    {
      "channel": 3,
      "note": 46,
      "start": 8.8443,
      "duration": 0.0133,
      "velocity": 115,
      "chip": "ym2612"
    },
    {
      "channel": 4,
      "note": 84,
      "start": 8.8456,
      "duration": 0.0123,
      "velocity": 127,
      "chip": "ym2612"
    },
    {
      "channel": 2,
      "note": 82,
      "start": 8.8576,
      "duration": 0.0138,
      "velocity": 76,
      "chip": "ym2612"
    },
    {
      "channel": 3,
      "note": 53,
      "start": 8.8578,
      "duration": 0.0137,
      "velocity": 115,
      "chip": "ym2612"
    },
    {
      "channel": 4,
      "note": 68,
      "start": 8.8591,
      "duration": 0.0126,
      "velocity": 100,
      "chip": "ym2612"
    },
    {
      "channel": 3,
      "note": 46,
      "start": 8.8717,
      "duration": 0.0131,
      "velocity": 115,
      "chip": "ym2612"
    },
    {
      "channel": 4,
      "note": 68,
      "start": 8.8719,
      "duration": 0.0131,
      "velocity": 100,
      "chip": "ym2612"
    },
    {
      "channel": 1,
      "note": 91,
      "start": 8.8844,
      "duration": 0.0144,
      "velocity": 76,
      "chip": "ym2612"
    },
    {
      "channel": 2,
      "note": 87,
      "start": 8.8847,
      "duration": 0.0142,
      "velocity": 76,
      "chip": "ym2612"
    },
    {
      "channel": 3,
      "note": 53,
      "start": 8.8849,
      "duration": 0.0141,
      "velocity": 115,
      "chip": "ym2612"
    },
    {
      "channel": 4,
      "note": 84,
      "start": 8.8862,
      "duration": 0.013,
      "velocity": 127,
      "chip": "ym2612"
    },
    {
      "channel": 0,
      "note": 65,
      "start": 8.8988,
      "duration": 0.0153,
      "velocity": 76,
      "chip": "ym2612"
    },
    {
      "channel": 3,
      "note": 41,
      "start": 8.8992,
      "duration": 0.0154,
      "velocity": 115,
      "chip": "ym2612"
    },
    {
      "channel": 4,
      "note": 32,
      "start": 8.9005,
      "duration": 0.0143,
      "velocity": 114,
      "chip": "ym2612"
    },
    {
      "channel": 0,
      "note": 64,
      "start": 8.9142,
      "duration": 0.0409,
      "velocity": 76,
      "chip": "ym2612"
    },
    {
      "channel": 2,
      "note": 82,
      "start": 8.9145,
      "duration": 0.0137,
      "velocity": 76,
      "chip": "ym2612"
    },
    {
      "channel": 3,
      "note": 48,
      "start": 8.9147,
      "duration": 0.0137,
      "velocity": 115,
      "chip": "ym2612"
    },
    {
      "channel": 4,
      "note": 84,
      "start": 8.916,
      "duration": 0.0127,
      "velocity": 127,
      "chip": "ym2612"
    },
    {
      "channel": 1,
      "note": 92,
      "start": 8.9281,
      "duration": 0.0141,
      "velocity": 76,
      "chip": "ym2612"
    },
    {
      "channel": 2,
      "note": 89,
      "start": 8.9284,
      "duration": 0.0139,
      "velocity": 76,
      "chip": "ym2612"
    },
    {
      "channel": 3,
      "note": 41,
      "start": 8.9286,
      "duration": 0.0138,
      "velocity": 115,
      "chip": "ym2612"
    },
    {
      "channel": 4,
      "note": 68,
      "start": 8.9298,
      "duration": 0.0127,
      "velocity": 100,
      "chip": "ym2612"
    },
    {
      "channel": 3,
      "note": 48,
      "start": 8.9425,
      "duration": 0.0133,
      "velocity": 115,
      "chip": "ym2612"
    },
    {
      "channel": 4,
      "note": 68,
      "start": 8.9427,
      "duration": 0.0132,
      "velocity": 100,
      "chip": "ym2612"
    },
    {
      "channel": 0,
      "note": 63,
      "start": 8.9552,
      "duration": 0.0143,
      "velocity": 76,
      "chip": "ym2612"
    },
    {
      "channel": 1,
      "note": 91,
      "start": 8.9555,
      "duration": 0.0295,
      "velocity": 76,
      "chip": "ym2612"
    },
    {
      "channel": 2,
      "note": 87,
      "start": 8.9557,
      "duration": 0.0552,
      "velocity": 76,
      "chip": "ym2612"
    },
    {
      "channel": 3,
      "note": 41,
      "start": 8.9559,
      "duration": 0.0137,
      "velocity": 115,
      "chip": "ym2612"
    },
    {
      "channel": 4,
      "note": 84,
      "start": 8.9572,
      "duration": 0.0126,
      "velocity": 127,
      "chip": "ym2612"
    },
    {
      "channel": 3,
      "note": 48,
      "start": 8.9698,
      "duration": 0.0154,
      "velocity": 115,
      "chip": "ym2612"
    },
    {
      "channel": 4,
      "note": 68,
      "start": 8.971,
      "duration": 0.0144,
      "velocity": 100,
      "chip": "ym2612"
    },
    {
      "channel": 0,
      "note": 61,
      "start": 8.9849,
      "duration": 0.0256,
      "velocity": 76,
      "chip": "ym2612"
    },
    {
      "channel": 1,
      "note": 89,
      "start": 8.9852,
      "duration": 0.0124,
      "velocity": 76,
      "chip": "ym2612"
    },
    {
      "channel": 3,
      "note": 49,
      "start": 8.9854,
      "duration": 0.0123,
      "velocity": 115,
      "chip": "ym2612"
    },
    {
      "channel": 4,
      "note": 68,
      "start": 8.9857,
      "duration": 0.0122,
      "velocity": 100,
      "chip": "ym2612"
    },
    {
      "channel": 3,
      "note": 48,
      "start": 8.9978,
      "duration": 0.0134,
      "velocity": 115,
      "chip": "ym2612"
    },
    {
      "channel": 4,
      "note": 68,
      "start": 8.9981,
      "duration": 0.0134,
      "velocity": 100,
      "chip": "ym2612"
    },
    {
      "channel": 0,
      "note": 58,
      "start": 9.0107,
      "duration": 0.0144,
      "velocity": 76,
      "chip": "ym2612"
    },
    {
      "channel": 2,
      "note": 82,
      "start": 9.0112,
      "duration": 0.0142,
      "velocity": 76,
      "chip": "ym2612"
    },
    {
      "channel": 3,
      "note": 46,
      "start": 9.0114,
      "duration": 0.0142,
      "velocity": 115,
      "chip": "ym2612"
    },
    {
      "channel": 4,
      "note": 32,
      "start": 9.0127,
      "duration": 0.0132,
      "velocity": 114,
      "chip": "ym2612"
    },
    {
      "channel": 1,
      "note": 89,
      "start": 9.0254,
      "duration": 0.014,
      "velocity": 76,
      "chip": "ym2612"
    },
    {
      "channel": 2,
      "note": 85,
      "start": 9.0256,
      "duration": 0.0139,
      "velocity": 76,
      "chip": "ym2612"
    },
    {
      "channel": 3,
      "note": 53,
      "start": 9.0258,
      "duration": 0.0137,
      "velocity": 115,
      "chip": "ym2612"
    },
    {
      "channel": 4,
      "note": 68,
      "start": 9.0271,
      "duration": 0.0127,
      "velocity": 100,
      "chip": "ym2612"
    },
    {
      "channel": 3,
      "note": 46,
      "start": 9.0398,
      "duration": 0.0143,
      "velocity": 115,
      "chip": "ym2612"
    },
    {
      "channel": 4,
      "note": 68,
      "start": 9.04,
      "duration": 0.0143,
      "velocity": 100,
      "chip": "ym2612"
    },
    {
      "channel": 1,
      "note": 89,
      "start": 9.0538,
      "duration": 0.0128,
      "velocity": 76,
      "chip": "ym2612"
    },
    {
      "channel": 2,
      "note": 85,
      "start": 9.054,
      "duration": 0.0127,
      "velocity": 76,
      "chip": "ym2612"
    },
    {
      "channel": 3,
      "note": 53,
      "start": 9.0543,
      "duration": 0.0125,
      "velocity": 115,
      "chip": "ym2612"
    },
    {
      "channel": 4,
      "note": 68,
      "start": 9.0545,
      "duration": 0.0125,
      "velocity": 100,
      "chip": "ym2612"
    },
    {
      "channel": 0,
      "note": 70,
      "start": 9.0666,
      "duration": 0.0564,
      "velocity": 76,
      "chip": "ym2612"
    },
    {
      "channel": 3,
      "note": 46,
      "start": 9.067,
      "duration": 0.0138,
      "velocity": 115,
      "chip": "ym2612"
    },
    {
      "channel": 4,
      "note": 84,
      "start": 9.0682,
      "duration": 0.0129,
      "velocity": 127,
      "chip": "ym2612"
    },
    {
      "channel": 2,
      "note": 82,
      "start": 9.0808,
      "duration": 0.0138,
      "velocity": 76,
      "chip": "ym2612"
    },
    {
      "channel": 3,
      "note": 53,
      "start": 9.081,
      "duration": 0.0137,
      "velocity": 115,
      "chip": "ym2612"
    },
    {
      "channel": 4,
      "note": 68,
      "start": 9.0823,
      "duration": 0.0126,
      "velocity": 100,
      "chip": "ym2612"
    },
    {
      "channel": 3,
      "note": 46,
      "start": 9.0948,
      "duration": 0.0129,
      "velocity": 115,
      "chip": "ym2612"
    },
    {
      "channel": 4,
      "note": 68,
      "start": 9.0951,
      "duration": 0.0129,
      "velocity": 100,
      "chip": "ym2612"
    },
    {
      "channel": 1,
      "note": 91,
      "start": 9.1075,
      "duration": 0.0157,
      "velocity": 76,
      "chip": "ym2612"
    },
    {
      "channel": 2,
      "note": 87,
      "start": 9.1078,
      "duration": 0.0155,
      "velocity": 76,
      "chip": "ym2612"
    },
    {
      "channel": 3,
      "note": 53,
      "start": 9.108,
      "duration": 0.0154,
      "velocity": 115,
      "chip": "ym2612"
    },
    {
      "channel": 4,
      "note": 84,
      "start": 9.1092,
      "duration": 0.0143,
      "velocity": 127,
      "chip": "ym2612"
    },
    {
      "channel": 0,
      "note": 65,
      "start": 9.1231,
      "duration": 0.0136,
      "velocity": 76,
      "chip": "ym2612"
    },
    {
      "channel": 3,
      "note": 41,
      "start": 9.1235,
      "duration": 0.0137,
      "velocity": 115,
      "chip": "ym2612"
    },
    {
      "channel": 4,
      "note": 32,
      "start": 9.1248,
      "duration": 0.0126,
      "velocity": 114,
      "chip": "ym2612"
    },
    {
      "channel": 0,
      "note": 64,
      "start": 9.1368,
      "duration": 0.0413,
      "velocity": 76,
      "chip": "ym2612"
    },
    {
      "channel": 2,
      "note": 82,
      "start": 9.1371,
      "duration": 0.0141,
      "velocity": 76,
      "chip": "ym2612"
    },
    {
      "channel": 3,
      "note": 48,
      "start": 9.1373,
      "duration": 0.0141,
      "velocity": 115,
      "chip": "ym2612"
    },
    {
      "channel": 4,
      "note": 84,
      "start": 9.1386,
      "duration": 0.0131,
      "velocity": 127,
      "chip": "ym2612"
    },
    {
      "channel": 1,
      "note": 92,
      "start": 9.1511,
      "duration": 0.014,
      "velocity": 76,
      "chip": "ym2612"
    },
    {
      "channel": 2,
      "note": 89,
      "start": 9.1514,
      "duration": 0.0139,
      "velocity": 76,
      "chip": "ym2612"
    },
    {
      "channel": 3,
      "note": 41,
      "start": 9.1516,
      "duration": 0.0137,
      "velocity": 115,
      "chip": "ym2612"
    },
    {
      "channel": 4,
      "note": 68,
      "start": 9.1529,
      "duration": 0.0127,
      "velocity": 100,
      "chip": "ym2612"
    },
    {
      "channel": 3,
      "note": 48,
      "start": 9.1655,
      "duration": 0.0133,
      "velocity": 115,
      "chip": "ym2612"
    },
    {
      "channel": 4,
      "note": 68,
      "start": 9.1658,
      "duration": 0.0132,
      "velocity": 100,
      "chip": "ym2612"
    },
    {
      "channel": 0,
      "note": 63,
      "start": 9.1783,
      "duration": 0.0155,
      "velocity": 76,
      "chip": "ym2612"
    },
    {
      "channel": 1,
      "note": 91,
      "start": 9.1785,
      "duration": 0.029,
      "velocity": 76,
      "chip": "ym2612"
    },
    {
      "channel": 2,
      "note": 87,
      "start": 9.1788,
      "duration": 0.0551,
      "velocity": 76,
      "chip": "ym2612"
    },
    {
      "channel": 3,
      "note": 41,
      "start": 9.179,
      "duration": 0.015,
      "velocity": 115,
      "chip": "ym2612"
    },
    {
      "channel": 4,
      "note": 84,
      "start": 9.1802,
      "duration": 0.0139,
      "velocity": 127,
      "chip": "ym2612"
    },
    {
      "channel": 3,
      "note": 48,
      "start": 9.1941,
      "duration": 0.0137,
      "velocity": 115,
      "chip": "ym2612"
    },
    {
      "channel": 4,
      "note": 68,
      "start": 9.1954,
      "duration": 0.0126,
      "velocity": 100,
      "chip": "ym2612"
    },
    {
      "channel": 0,
      "note": 61,
      "start": 9.2074,
      "duration": 0.026,
      "velocity": 76,
      "chip": "ym2612"
    },
    {
      "channel": 1,
      "note": 89,
      "start": 9.2077,
      "duration": 0.0129,
      "velocity": 76,
      "chip": "ym2612"
    },
    {
      "channel": 3,
      "note": 49,
      "start": 9.2079,
      "duration": 0.0127,
      "velocity": 115,
      "chip": "ym2612"
    },
    {
      "channel": 4,
      "note": 68,
      "start": 9.2082,
      "duration": 0.0127,
      "velocity": 100,
      "chip": "ym2612"
    },
    {
      "channel": 3,
      "note": 48,
      "start": 9.2208,
      "duration": 0.0134,
      "velocity": 115,
      "chip": "ym2612"
    },
    {
      "channel": 4,
      "note": 68,
      "start": 9.2211,
      "duration": 0.0133,
      "velocity": 100,
      "chip": "ym2612"
    },
    {
      "channel": 0,
      "note": 58,
      "start": 9.2336,
      "duration": 0.0144,
      "velocity": 76,
      "chip": "ym2612"
    },
    {
      "channel": 2,
      "note": 82,
      "start": 9.2341,
      "duration": 0.0143,
      "velocity": 76,
      "chip": "ym2612"
    },
    {
      "channel": 3,
      "note": 46,
      "start": 9.2343,
      "duration": 0.0143,
      "velocity": 115,
      "chip": "ym2612"
    },
    {
      "channel": 4,
      "note": 32,
      "start": 9.2356,
      "duration": 0.0132,
      "velocity": 114,
      "chip": "ym2612"
    },
    {
      "channel": 1,
      "note": 89,
      "start": 9.2483,
      "duration": 0.0154,
      "velocity": 76,
      "chip": "ym2612"
    },
    {
      "channel": 2,
      "note": 85,
      "start": 9.2486,
      "duration": 0.0153,
      "velocity": 76,
      "chip": "ym2612"
    },
    {
      "channel": 3,
      "note": 53,
      "start": 9.2488,
      "duration": 0.0152,
      "velocity": 115,
      "chip": "ym2612"
    },
    {
      "channel": 4,
      "note": 68,
      "start": 9.25,
      "duration": 0.0142,
      "velocity": 100,
      "chip": "ym2612"
    },
    {
      "channel": 3,
      "note": 46,
      "start": 9.2641,
      "duration": 0.0126,
      "velocity": 115,
      "chip": "ym2612"
    },
    {
      "channel": 4,
      "note": 68,
      "start": 9.2644,
      "duration": 0.0126,
      "velocity": 100,
      "chip": "ym2612"
    },
    {
      "channel": 1,
      "note": 89,
      "start": 9.2765,
      "duration": 0.0133,
      "velocity": 76,
      "chip": "ym2612"
    },
    {
      "channel": 2,
      "note": 85,
      "start": 9.2767,
      "duration": 0.0131,
      "velocity": 76,
      "chip": "ym2612"
    },
    {
      "channel": 3,
      "note": 53,
      "start": 9.277,
      "duration": 0.0129,
      "velocity": 115,
      "chip": "ym2612"
    },
    {
      "channel": 4,
      "note": 68,
      "start": 9.2772,
      "duration": 0.0129,
      "velocity": 100,
      "chip": "ym2612"
    },
    {
      "channel": 0,
      "note": 70,
      "start": 9.2897,
      "duration": 0.0558,
      "velocity": 76,
      "chip": "ym2612"
    },
    {
      "channel": 3,
      "note": 46,
      "start": 9.2901,
      "duration": 0.0138,
      "velocity": 115,
      "chip": "ym2612"
    },
    {
      "channel": 4,
      "note": 84,
      "start": 9.2913,
      "duration": 0.0128,
      "velocity": 127,
      "chip": "ym2612"
    },
    {
      "channel": 2,
      "note": 82,
      "start": 9.3038,
      "duration": 0.0138,
      "velocity": 76,
      "chip": "ym2612"
    },
    {
      "channel": 3,
      "note": 53,
      "start": 9.304,
      "duration": 0.0137,
      "velocity": 115,
      "chip": "ym2612"
    },
    {
      "channel": 4,
      "note": 68,
      "start": 9.3053,
      "duration": 0.0126,
      "velocity": 100,
      "chip": "ym2612"
    },
    {
      "channel": 3,
      "note": 46,
      "start": 9.3178,
      "duration": 0.0143,
      "velocity": 115,
      "chip": "ym2612"
    },
    {
      "channel": 4,
      "note": 68,
      "start": 9.3182,
      "duration": 0.0143,
      "velocity": 100,
      "chip": "ym2612"
    },
    {
      "channel": 1,
      "note": 91,
      "start": 9.3319,
      "duration": 0.0137,
      "velocity": 76,
      "chip": "ym2612"
    },
    {
      "channel": 2,
      "note": 87,
      "start": 9.3321,
      "duration": 0.0137,
      "velocity": 76,
      "chip": "ym2612"
    },
    {
      "channel": 3,
      "note": 53,
      "start": 9.3324,
      "duration": 0.0135,
      "velocity": 115,
      "chip": "ym2612"
    },
    {
      "channel": 4,
      "note": 84,
      "start": 9.3336,
      "duration": 0.0124,
      "velocity": 127,
      "chip": "ym2612"
    },
    {
      "channel": 0,
      "note": 65,
      "start": 9.3456,
      "duration": 0.014,
      "velocity": 76,
      "chip": "ym2612"
    },
    {
      "channel": 3,
      "note": 41,
      "start": 9.346,
      "duration": 0.014,
      "velocity": 115,
      "chip": "ym2612"
    },
    {
      "channel": 4,
      "note": 32,
      "start": 9.3473,
      "duration": 0.013,
      "velocity": 114,
      "chip": "ym2612"
    },
    {
      "channel": 0,
      "note": 64,
      "start": 9.3598,
      "duration": 0.0424,
      "velocity": 76,
      "chip": "ym2612"
    },
    {
      "channel": 2,
      "note": 82,
      "start": 9.36,
      "duration": 0.014,
      "velocity": 76,
      "chip": "ym2612"
    },
    {
      "channel": 3,
      "note": 48,
      "start": 9.3602,
      "duration": 0.014,
      "velocity": 115,
      "chip": "ym2612"
    },
    {
      "channel": 4,
      "note": 84,
      "start": 9.3615,
      "duration": 0.013,
      "velocity": 127,
      "chip": "ym2612"
    },
    {
      "channel": 1,
      "note": 92,
      "start": 9.374,
      "duration": 0.0139,
      "velocity": 76,
      "chip": "ym2612"
    },
    {
      "channel": 2,
      "note": 89,
      "start": 9.3742,
      "duration": 0.0138,
      "velocity": 76,
      "chip": "ym2612"
    },
    {
      "channel": 3,
      "note": 41,
      "start": 9.3744,
      "duration": 0.0136,
      "velocity": 115,
      "chip": "ym2612"
    },
    {
      "channel": 4,
      "note": 68,
      "start": 9.3757,
      "duration": 0.0126,
      "velocity": 100,
      "chip": "ym2612"
    },
    {
      "channel": 3,
      "note": 48,
      "start": 9.3883,
      "duration": 0.0146,
      "velocity": 115,
      "chip": "ym2612"
    },
    {
      "channel": 4,
      "note": 68,
      "start": 9.3885,
      "duration": 0.0146,
      "velocity": 100,
      "chip": "ym2612"
    },
    {
      "channel": 0,
      "note": 63,
      "start": 9.4024,
      "duration": 0.0138,
      "velocity": 76,
      "chip": "ym2612"
    },
    {
      "channel": 1,
      "note": 91,
      "start": 9.4026,
      "duration": 0.0278,
      "velocity": 76,
      "chip": "ym2612"
    },
    {
      "channel": 2,
      "note": 87,
      "start": 9.4028,
      "duration": 0.0553,
      "velocity": 76,
      "chip": "ym2612"
    },
    {
      "channel": 3,
      "note": 41,
      "start": 9.4031,
      "duration": 0.0132,
      "velocity": 115,
      "chip": "ym2612"
    },
    {
      "channel": 4,
      "note": 84,
      "start": 9.4043,
      "duration": 0.0123,
      "velocity": 127,
      "chip": "ym2612"
    },
    {
      "channel": 3,
      "note": 48,
      "start": 9.4165,
      "duration": 0.0141,
      "velocity": 115,
      "chip": "ym2612"
    },
    {
      "channel": 4,
      "note": 68,
      "start": 9.4178,
      "duration": 0.013,
      "velocity": 100,
      "chip": "ym2612"
    },
    {
      "channel": 0,
      "note": 61,
      "start": 9.4303,
      "duration": 0.0263,
      "velocity": 76,
      "chip": "ym2612"
    },
    {
      "channel": 1,
      "note": 89,
      "start": 9.4305,
      "duration": 0.0128,
      "velocity": 76,
      "chip": "ym2612"
    },
    {
      "channel": 3,
      "note": 49,
      "start": 9.4308,
      "duration": 0.0127,
      "velocity": 115,
      "chip": "ym2612"
    },
    {
      "channel": 4,
      "note": 68,
      "start": 9.4311,
      "duration": 0.0126,
      "velocity": 100,
      "chip": "ym2612"
    },
    {
      "channel": 3,
      "note": 48,
      "start": 9.4437,
      "duration": 0.0157,
      "velocity": 115,
      "chip": "ym2612"
    },
    {
      "channel": 4,
      "note": 68,
      "start": 9.4439,
      "duration": 0.0167,
      "velocity": 100,
      "chip": "ym2612"
    },
    {
      "channel": 0,
      "note": 58,
      "start": 9.4567,
      "duration": 0.0177,
      "velocity": 76,
      "chip": "ym2612"
    },
    {
      "channel": 1,
      "note": 70,
      "start": 9.458,
      "duration": 0.0165,
      "velocity": 103,
      "chip": "ym2612"
    },
    {
      "channel": 2,
      "note": 46,
      "start": 9.4593,
      "duration": 0.0153,
      "velocity": 115,
      "chip": "ym2612"
    },
    {
      "channel": 3,
      "note": 32,
      "start": 9.4606,
      "duration": 0.0143,
      "velocity": 114,
      "chip": "ym2612"
    },
    {
      "channel": 2,
      "note": 53,
      "start": 9.4748,
      "duration": 0.0134,
      "velocity": 115,
      "chip": "ym2612"
    },
    {
      "channel": 3,
      "note": 68,
      "start": 9.476,
      "duration": 0.0124,
      "velocity": 100,
      "chip": "ym2612"
    },
    {
      "channel": 1,
      "note": 70,
      "start": 9.4881,
      "duration": 0.0129,
      "velocity": 103,
      "chip": "ym2612"
    },
    {
      "channel": 2,
      "note": 46,
      "start": 9.4884,
      "duration": 0.0127,
      "velocity": 115,
      "chip": "ym2612"
    },
    {
      "channel": 3,
      "note": 68,
      "start": 9.4886,
      "duration": 0.0127,
      "velocity": 100,
      "chip": "ym2612"
    },
    {
      "channel": 2,
      "note": 53,
      "start": 9.5013,
      "duration": 0.0131,
      "velocity": 115,
      "chip": "ym2612"
    },
    {
      "channel": 3,
      "note": 68,
      "start": 9.5016,
      "duration": 0.013,
      "velocity": 100,
      "chip": "ym2612"
    },
    {
      "channel": 0,
      "note": 70,
      "start": 9.514,
      "duration": 0.0556,
      "velocity": 76,
      "chip": "ym2612"
    },
    {
      "channel": 1,
      "note": 82,
      "start": 9.5143,
      "duration": 0.0138,
      "velocity": 103,
      "chip": "ym2612"
    },
    {
      "channel": 2,
      "note": 46,
      "start": 9.5145,
      "duration": 0.0137,
      "velocity": 115,
      "chip": "ym2612"
    },
    {
      "channel": 3,
      "note": 84,
      "start": 9.5158,
      "duration": 0.0126,
      "velocity": 127,
      "chip": "ym2612"
    },
    {
      "channel": 2,
      "note": 53,
      "start": 9.5283,
      "duration": 0.0152,
      "velocity": 115,
      "chip": "ym2612"
    },
    {
      "channel": 3,
      "note": 68,
      "start": 9.5296,
      "duration": 0.0142,
      "velocity": 100,
      "chip": "ym2612"
    },
    {
      "channel": 1,
      "note": 70,
      "start": 9.5435,
      "duration": 0.0124,
      "velocity": 103,
      "chip": "ym2612"
    },
    {
      "channel": 2,
      "note": 46,
      "start": 9.5437,
      "duration": 0.0122,
      "velocity": 115,
      "chip": "ym2612"
    },
    {
      "channel": 3,
      "note": 68,
      "start": 9.544,
      "duration": 0.0122,
      "velocity": 100,
      "chip": "ym2612"
    },
    {
      "channel": 2,
      "note": 53,
      "start": 9.5561,
      "duration": 0.014,
      "velocity": 115,
      "chip": "ym2612"
    },
    {
      "channel": 3,
      "note": 84,
      "start": 9.5574,
      "duration": 0.0129,
      "velocity": 127,
      "chip": "ym2612"
    },
    {
      "channel": 0,
      "note": 65,
      "start": 9.5698,
      "duration": 0.0141,
      "velocity": 76,
      "chip": "ym2612"
    },
    {
      "channel": 1,
      "note": 77,
      "start": 9.5701,
      "duration": 0.0141,
      "velocity": 103,
      "chip": "ym2612"
    },
    {
      "channel": 2,
      "note": 41,
      "start": 9.5703,
      "duration": 0.0141,
      "velocity": 115,
      "chip": "ym2612"
    },
    {
      "channel": 3,
      "note": 32,
      "start": 9.5716,
      "duration": 0.013,
      "velocity": 114,
      "chip": "ym2612"
    },
    {
      "channel": 0,
      "note": 64,
      "start": 9.5841,
      "duration": 0.0417,
      "velocity": 76,
      "chip": "ym2612"
    },
    {
      "channel": 1,
      "note": 76,
      "start": 9.5844,
      "duration": 0.0138,
      "velocity": 103,
      "chip": "ym2612"
    },
    {
      "channel": 2,
      "note": 48,
      "start": 9.5846,
      "duration": 0.0137,
      "velocity": 115,
      "chip": "ym2612"
    },
    {
      "channel": 3,
      "note": 84,
      "start": 9.5858,
      "duration": 0.0126,
      "velocity": 127,
      "chip": "ym2612"
    },
    {
      "channel": 2,
      "note": 41,
      "start": 9.5984,
      "duration": 0.0153,
      "velocity": 115,
      "chip": "ym2612"
    },
    {
      "channel": 3,
      "note": 68,
      "start": 9.5997,
      "duration": 0.0142,
      "velocity": 100,
      "chip": "ym2612"
    },
    {
      "channel": 1,
      "note": 75,
      "start": 9.6136,
      "duration": 0.0125,
      "velocity": 103,
      "chip": "ym2612"
    },
    {
      "channel": 2,
      "note": 48,
      "start": 9.6138,
      "duration": 0.0124,
      "velocity": 115,
      "chip": "ym2612"
    },
    {
      "channel": 3,
      "note": 68,
      "start": 9.6141,
      "duration": 0.0123,
      "velocity": 100,
      "chip": "ym2612"
    },
    {
      "channel": 0,
      "note": 63,
      "start": 9.626,
      "duration": 0.0139,
      "velocity": 76,
      "chip": "ym2612"
    },
    {
      "channel": 2,
      "note": 41,
      "start": 9.6263,
      "duration": 0.0139,
      "velocity": 115,
      "chip": "ym2612"
    },
    {
      "channel": 3,
      "note": 84,
      "start": 9.6276,
      "duration": 0.0129,
      "velocity": 127,
      "chip": "ym2612"
    },
    {
      "channel": 1,
      "note": 76,
      "start": 9.6402,
      "duration": 0.0139,
      "velocity": 103,
      "chip": "ym2612"
    },
    {
      "channel": 2,
      "note": 48,
      "start": 9.6404,
      "duration": 0.014,
      "velocity": 115,
      "chip": "ym2612"
    },
    {
      "channel": 3,
      "note": 68,
      "start": 9.6417,
      "duration": 0.013,
      "velocity": 100,
      "chip": "ym2612"
    },
    {
      "channel": 0,
      "note": 61,
      "start": 9.6541,
      "duration": 0.0273,
      "velocity": 76,
      "chip": "ym2612"
    },
    {
      "channel": 1,
      "note": 75,
      "start": 9.6543,
      "duration": 0.0273,
      "velocity": 103,
      "chip": "ym2612"
    },
    {
      "channel": 2,
      "note": 49,
      "start": 9.6546,
      "duration": 0.0126,
      "velocity": 115,
      "chip": "ym2612"
    },
    {
      "channel": 3,
      "note": 68,
      "start": 9.6548,
      "duration": 0.0126,
      "velocity": 100,
      "chip": "ym2612"
    },
    {
      "channel": 2,
      "note": 48,
      "start": 9.6674,
      "duration": 0.0146,
      "velocity": 115,
      "chip": "ym2612"
    },
    {
      "channel": 3,
      "note": 68,
      "start": 9.6676,
      "duration": 0.0146,
      "velocity": 100,
      "chip": "ym2612"
    },
    {
      "channel": 0,
      "note": 58,
      "start": 9.6817,
      "duration": 0.0138,
      "velocity": 76,
      "chip": "ym2612"
    },
    {
      "channel": 1,
      "note": 70,
      "start": 9.6819,
      "duration": 0.0137,
      "velocity": 103,
      "chip": "ym2612"
    },
    {
      "channel": 2,
      "note": 46,
      "start": 9.6822,
      "duration": 0.0134,
      "velocity": 115,
      "chip": "ym2612"
    },
    {
      "channel": 3,
      "note": 32,
      "start": 9.6835,
      "duration": 0.0124,
      "velocity": 114,
      "chip": "ym2612"
    },
    {
      "channel": 2,
      "note": 53,
      "start": 9.6958,
      "duration": 0.0139,
      "velocity": 115,
      "chip": "ym2612"
    },
    {
      "channel": 3,
      "note": 68,
      "start": 9.6971,
      "duration": 0.0129,
      "velocity": 100,
      "chip": "ym2612"
    },
    {
      "channel": 1,
      "note": 70,
      "start": 9.7097,
      "duration": 0.0129,
      "velocity": 103,
      "chip": "ym2612"
    },
    {
      "channel": 2,
      "note": 46,
      "start": 9.7099,
      "duration": 0.0128,
      "velocity": 115,
      "chip": "ym2612"
    },
    {
      "channel": 3,
      "note": 68,
      "start": 9.7102,
      "duration": 0.0128,
      "velocity": 100,
      "chip": "ym2612"
    },
    {
      "channel": 2,
      "note": 53,
      "start": 9.7229,
      "duration": 0.0131,
      "velocity": 115,
      "chip": "ym2612"
    },
    {
      "channel": 3,
      "note": 68,
      "start": 9.7231,
      "duration": 0.0131,
      "velocity": 100,
      "chip": "ym2612"
    },
    {
      "channel": 0,
      "note": 70,
      "start": 9.7357,
      "duration": 0.0556,
      "velocity": 76,
      "chip": "ym2612"
    },
    {
      "channel": 1,
      "note": 82,
      "start": 9.7359,
      "duration": 0.0151,
      "velocity": 103,
      "chip": "ym2612"
    },
    {
      "channel": 2,
      "note": 46,
      "start": 9.7362,
      "duration": 0.015,
      "velocity": 115,
      "chip": "ym2612"
    },
    {
      "channel": 3,
      "note": 84,
      "start": 9.7374,
      "duration": 0.0139,
      "velocity": 127,
      "chip": "ym2612"
    },
    {
      "channel": 2,
      "note": 53,
      "start": 9.7513,
      "duration": 0.0134,
      "velocity": 115,
      "chip": "ym2612"
    },
    {
      "channel": 3,
      "note": 68,
      "start": 9.7525,
      "duration": 0.0124,
      "velocity": 100,
      "chip": "ym2612"
    },
    {
      "channel": 1,
      "note": 70,
      "start": 9.7646,
      "duration": 0.0129,
      "velocity": 103,
      "chip": "ym2612"
    },
    {
      "channel": 2,
      "note": 46,
      "start": 9.7649,
      "duration": 0.0127,
      "velocity": 115,
      "chip": "ym2612"
    },
    {
      "channel": 3,
      "note": 68,
      "start": 9.7651,
      "duration": 0.0127,
      "velocity": 100,
      "chip": "ym2612"
    },
    {
      "channel": 2,
      "note": 53,
      "start": 9.7778,
      "duration": 0.0141,
      "velocity": 115,
      "chip": "ym2612"
    },
    {
      "channel": 3,
      "note": 84,
      "start": 9.779,
      "duration": 0.0129,
      "velocity": 127,
      "chip": "ym2612"
    },
    {
      "channel": 0,
      "note": 65,
      "start": 9.7915,
      "duration": 0.014,
      "velocity": 76,
      "chip": "ym2612"
    },
    {
      "channel": 1,
      "note": 77,
      "start": 9.7917,
      "duration": 0.014,
      "velocity": 103,
      "chip": "ym2612"
    },
    {
      "channel": 2,
      "note": 41,
      "start": 9.7919,
      "duration": 0.014,
      "velocity": 115,
      "chip": "ym2612"
    },
    {
      "channel": 3,
      "note": 32,
      "start": 9.7932,
      "duration": 0.013,
      "velocity": 114,
      "chip": "ym2612"
    },
    {
      "channel": 0,
      "note": 64,
      "start": 9.8057,
      "duration": 0.0417,
      "velocity": 76,
      "chip": "ym2612"
    },
    {
      "channel": 1,
      "note": 76,
      "start": 9.8059,
      "duration": 0.0152,
      "velocity": 103,
      "chip": "ym2612"
    },
    {
      "channel": 2,
      "note": 48,
      "start": 9.8061,
      "duration": 0.015,
      "velocity": 115,
      "chip": "ym2612"
    },
    {
      "channel": 3,
      "note": 84,
      "start": 9.8074,
      "duration": 0.014,
      "velocity": 127,
      "chip": "ym2612"
    },
    {
      "channel": 2,
      "note": 41,
      "start": 9.8214,
      "duration": 0.0134,
      "velocity": 115,
      "chip": "ym2612"
    },
    {
      "channel": 3,
      "note": 68,
      "start": 9.8226,
      "duration": 0.0123,
      "velocity": 100,
      "chip": "ym2612"
    },
    {
      "channel": 1,
      "note": 75,
      "start": 9.8346,
      "duration": 0.013,
      "velocity": 103,
      "chip": "ym2612"
    },
    {
      "channel": 2,
      "note": 48,
      "start": 9.8349,
      "duration": 0.0129,
      "velocity": 115,
      "chip": "ym2612"
    },
    {
      "channel": 3,
      "note": 68,
      "start": 9.8351,
      "duration": 0.0129,
      "velocity": 100,
      "chip": "ym2612"
    },
    {
      "channel": 0,
      "note": 63,
      "start": 9.8476,
      "duration": 0.0139,
      "velocity": 76,
      "chip": "ym2612"
    },
    {
      "channel": 2,
      "note": 41,
      "start": 9.8479,
      "duration": 0.0139,
      "velocity": 115,
      "chip": "ym2612"
    },
    {
      "channel": 3,
      "note": 84,
      "start": 9.8492,
      "duration": 0.0128,
      "velocity": 127,
      "chip": "ym2612"
    },
    {
      "channel": 1,
      "note": 76,
      "start": 9.8617,
      "duration": 0.014,
      "velocity": 103,
      "chip": "ym2612"
    },
    {
      "channel": 2,
      "note": 48,
      "start": 9.8619,
      "duration": 0.014,
      "velocity": 115,
      "chip": "ym2612"
    },
    {
      "channel": 3,
      "note": 68,
      "start": 9.8632,
      "duration": 0.013,
      "velocity": 100,
      "chip": "ym2612"
    },
    {
      "channel": 0,
      "note": 61,
      "start": 9.8756,
      "duration": 0.0267,
      "velocity": 76,
      "chip": "ym2612"
    },
    {
      "channel": 1,
      "note": 75,
      "start": 9.8759,
      "duration": 0.0268,
      "velocity": 103,
      "chip": "ym2612"
    },
    {
      "channel": 2,
      "note": 49,
      "start": 9.8761,
      "duration": 0.0139,
      "velocity": 115,
      "chip": "ym2612"
    },
    {
      "channel": 3,
      "note": 68,
      "start": 9.8763,
      "duration": 0.0138,
      "velocity": 100,
      "chip": "ym2612"
    },
    {
      "channel": 2,
      "note": 48,
      "start": 9.8901,
      "duration": 0.0128,
      "velocity": 115,
      "chip": "ym2612"
    },
    {
      "channel": 3,
      "note": 68,
      "start": 9.8904,
      "duration": 0.0127,
      "velocity": 100,
      "chip": "ym2612"
    },
    {
      "channel": 0,
      "note": 58,
      "start": 9.9026,
      "duration": 0.0143,
      "velocity": 76,
      "chip": "ym2612"
    },
    {
      "channel": 1,
      "note": 82,
      "start": 9.9028,
      "duration": 0.0142,
      "velocity": 103,
      "chip": "ym2612"
    },
    {
      "channel": 2,
      "note": 46,
      "start": 9.9031,
      "duration": 0.014,
      "velocity": 115,
      "chip": "ym2612"
    },
    {
      "channel": 3,
      "note": 32,
      "start": 9.9043,
      "duration": 0.013,
      "velocity": 114,
      "chip": "ym2612"
    },
    {
      "channel": 2,
      "note": 53,
      "start": 9.9172,
      "duration": 0.0139,
      "velocity": 115,
      "chip": "ym2612"
    },
    {
      "channel": 3,
      "note": 68,
      "start": 9.9185,
      "duration": 0.0129,
      "velocity": 100,
      "chip": "ym2612"
    },
    {
      "channel": 1,
      "note": 82,
      "start": 9.931,
      "duration": 0.0129,
      "velocity": 103,
      "chip": "ym2612"
    },
    {
      "channel": 2,
      "note": 46,
      "start": 9.9313,
      "duration": 0.0127,
      "velocity": 115,
      "chip": "ym2612"
    },
    {
      "channel": 3,
      "note": 68,
      "start": 9.9315,
      "duration": 0.0127,
      "velocity": 100,
      "chip": "ym2612"
    },
    {
      "channel": 2,
      "note": 53,
      "start": 9.9441,
      "duration": 0.0144,
      "velocity": 115,
      "chip": "ym2612"
    },
    {
      "channel": 3,
      "note": 68,
      "start": 9.9444,
      "duration": 0.0144,
      "velocity": 100,
      "chip": "ym2612"
    },
    {
      "channel": 0,
      "note": 70,
      "start": 9.9583,
      "duration": 0.0545,
      "velocity": 76,
      "chip": "ym2612"
    },
    {
      "channel": 1,
      "note": 94,
      "start": 9.9585,
      "duration": 0.0134,
      "velocity": 103,
      "chip": "ym2612"
    },
    {
      "channel": 2,
      "note": 46,
      "start": 9.9587,
      "duration": 0.0132,
      "velocity": 115,
      "chip": "ym2612"
    },
    {
      "channel": 3,
      "note": 84,
      "start": 9.96,
      "duration": 0.0122,
      "velocity": 127,
      "chip": "ym2612"
    },
    {
      "channel": 2,
      "note": 53,
      "start": 9.9722,
      "duration": 0.0139,
      "velocity": 115,
      "chip": "ym2612"
    },
    {
      "channel": 3,
      "note": 68,
      "start": 9.9734,
      "duration": 0.0128,
      "velocity": 100,
      "chip": "ym2612"
    },
    {
      "channel": 1,
      "note": 82,
      "start": 9.986,
      "duration": 0.0129,
      "velocity": 103,
      "chip": "ym2612"
    },
    {
      "channel": 2,
      "note": 46,
      "start": 9.9861,
      "duration": 0.0128,
      "velocity": 115,
      "chip": "ym2612"
    },
    {
      "channel": 3,
      "note": 68,
      "start": 9.9864,
      "duration": 0.0128,
      "velocity": 100,
      "chip": "ym2612"
    },
    {
      "channel": 2,
      "note": 53,
      "start": 9.9991,
      "duration": 0.0141,
      "velocity": 115,
      "chip": "ym2612"
    },
    {
      "channel": 3,
      "note": 84,
      "start": 10.0004,
      "duration": 0.0131,
      "velocity": 127,
      "chip": "ym2612"
    },
    {
      "channel": 0,
      "note": 65,
      "start": 10.013,
      "duration": 0.0154,
      "velocity": 76,
      "chip": "ym2612"
    },
    {
      "channel": 1,
      "note": 89,
      "start": 10.0132,
      "duration": 0.0154,
      "velocity": 103,
      "chip": "ym2612"
    },
    {
      "channel": 2,
      "note": 41,
      "start": 10.0134,
      "duration": 0.0154,
      "velocity": 115,
      "chip": "ym2612"
    },
    {
      "channel": 3,
      "note": 32,
      "start": 10.0147,
      "duration": 0.0144,
      "velocity": 114,
      "chip": "ym2612"
    },
    {
      "channel": 0,
      "note": 64,
      "start": 10.0285,
      "duration": 0.0405,
      "velocity": 76,
      "chip": "ym2612"
    },
    {
      "channel": 1,
      "note": 88,
      "start": 10.0287,
      "duration": 0.0134,
      "velocity": 103,
      "chip": "ym2612"
    },
    {
      "channel": 2,
      "note": 48,
      "start": 10.029,
      "duration": 0.0132,
      "velocity": 115,
      "chip": "ym2612"
    },
    {
      "channel": 3,
      "note": 84,
      "start": 10.0302,
      "duration": 0.0122,
      "velocity": 127,
      "chip": "ym2612"
    },
    {
      "channel": 2,
      "note": 41,
      "start": 10.0424,
      "duration": 0.0139,
      "velocity": 115,
      "chip": "ym2612"
    },
    {
      "channel": 3,
      "note": 68,
      "start": 10.0437,
      "duration": 0.0128,
      "velocity": 100,
      "chip": "ym2612"
    },
    {
      "channel": 1,
      "note": 87,
      "start": 10.0562,
      "duration": 0.0131,
      "velocity": 103,
      "chip": "ym2612"
    },
    {
      "channel": 2,
      "note": 48,
      "start": 10.0564,
      "duration": 0.0129,
      "velocity": 115,
      "chip": "ym2612"
    },
    {
      "channel": 3,
      "note": 68,
      "start": 10.0567,
      "duration": 0.0129,
      "velocity": 100,
      "chip": "ym2612"
    },
    {
      "channel": 0,
      "note": 63,
      "start": 10.0692,
      "duration": 0.0139,
      "velocity": 76,
      "chip": "ym2612"
    },
    {
      "channel": 2,
      "note": 41,
      "start": 10.0695,
      "duration": 0.0139,
      "velocity": 115,
      "chip": "ym2612"
    },
    {
      "channel": 3,
      "note": 84,
      "start": 10.0708,
      "duration": 0.0129,
      "velocity": 127,
      "chip": "ym2612"
    },
    {
      "channel": 1,
      "note": 88,
      "start": 10.0833,
      "duration": 0.0154,
      "velocity": 103,
      "chip": "ym2612"
    },
    {
      "channel": 2,
      "note": 48,
      "start": 10.0836,
      "duration": 0.0154,
      "velocity": 115,
      "chip": "ym2612"
    },
    {
      "channel": 3,
      "note": 68,
      "start": 10.0848,
      "duration": 0.0144,
      "velocity": 100,
      "chip": "ym2612"
    },
    {
      "channel": 0,
      "note": 61,
      "start": 10.0987,
      "duration": 0.0254,
      "velocity": 76,
      "chip": "ym2612"
    },
    {
      "channel": 1,
      "note": 87,
      "start": 10.0989,
      "duration": 0.0255,
      "velocity": 103,
      "chip": "ym2612"
    },
    {
      "channel": 2,
      "note": 49,
      "start": 10.0991,
      "duration": 0.0121,
      "velocity": 115,
      "chip": "ym2612"
    },
    {
      "channel": 3,
      "note": 68,
      "start": 10.0994,
      "duration": 0.0121,
      "velocity": 100,
      "chip": "ym2612"
    },
    {
      "channel": 2,
      "note": 48,
      "start": 10.1114,
      "duration": 0.0132,
      "velocity": 115,
      "chip": "ym2612"
    },
    {
      "channel": 3,
      "note": 68,
      "start": 10.1117,
      "duration": 0.0132,
      "velocity": 100,
      "chip": "ym2612"
    },
    {
      "channel": 0,
      "note": 58,
      "start": 10.1243,
      "duration": 0.0142,
      "velocity": 76,
      "chip": "ym2612"
    },
    {
      "channel": 1,
      "note": 82,
      "start": 10.1246,
      "duration": 0.0141,
      "velocity": 103,
      "chip": "ym2612"
    },
    {
      "channel": 2,
      "note": 46,
      "start": 10.1248,
      "duration": 0.0139,
      "velocity": 115,
      "chip": "ym2612"
    },
    {
      "channel": 3,
      "note": 32,
      "start": 10.1261,
      "duration": 0.0129,
      "velocity": 114,
      "chip": "ym2612"
    },
    {
      "channel": 2,
      "note": 53,
      "start": 10.1389,
      "duration": 0.0138,
      "velocity": 115,
      "chip": "ym2612"
    },
    {
      "channel": 3,
      "note": 68,
      "start": 10.1402,
      "duration": 0.0127,
      "velocity": 100,
      "chip": "ym2612"
    },
    {
      "channel": 1,
      "note": 82,
      "start": 10.1526,
      "duration": 0.0142,
      "velocity": 103,
      "chip": "ym2612"
    },
    {
      "channel": 2,
      "note": 46,
      "start": 10.1528,
      "duration": 0.0141,
      "velocity": 115,
      "chip": "ym2612"
    },
    {
      "channel": 3,
      "note": 68,
      "start": 10.1531,
      "duration": 0.014,
      "velocity": 100,
      "chip": "ym2612"
    },
    {
      "channel": 2,
      "note": 53,
      "start": 10.167,
      "duration": 0.0127,
      "velocity": 115,
      "chip": "ym2612"
    },
    {
      "channel": 3,
      "note": 68,
      "start": 10.1673,
      "duration": 0.0126,
      "velocity": 100,
      "chip": "ym2612"
    },
    {
      "channel": 0,
      "note": 70,
      "start": 10.1794,
      "duration": 0.0563,
      "velocity": 76,
      "chip": "ym2612"
    },
    {
      "channel": 1,
      "note": 94,
      "start": 10.1796,
      "duration": 0.0139,
      "velocity": 103,
      "chip": "ym2612"
    },
    {
      "channel": 2,
      "note": 46,
      "start": 10.1798,
      "duration": 0.0138,
      "velocity": 115,
      "chip": "ym2612"
    },
    {
      "channel": 3,
      "note": 84,
      "start": 10.1811,
      "duration": 0.0127,
      "velocity": 127,
      "chip": "ym2612"
    },
    {
      "channel": 2,
      "note": 53,
      "start": 10.1938,
      "duration": 0.0139,
      "velocity": 115,
      "chip": "ym2612"
    },
    {
      "channel": 3,
      "note": 68,
      "start": 10.1951,
      "duration": 0.0128,
      "velocity": 100,
      "chip": "ym2612"
    },
    {
      "channel": 1,
      "note": 82,
      "start": 10.2076,
      "duration": 0.0129,
      "velocity": 103,
      "chip": "ym2612"
    },
    {
      "channel": 2,
      "note": 46,
      "start": 10.2078,
      "duration": 0.0127,
      "velocity": 115,
      "chip": "ym2612"
    },
    {
      "channel": 3,
      "note": 68,
      "start": 10.2081,
      "duration": 0.0127,
      "velocity": 100,
      "chip": "ym2612"
    },
    {
      "channel": 2,
      "note": 53,
      "start": 10.2207,
      "duration": 0.0154,
      "velocity": 115,
      "chip": "ym2612"
    },
    {
      "channel": 3,
      "note": 84,
      "start": 10.222,
      "duration": 0.0144,
      "velocity": 127,
      "chip": "ym2612"
    },
    {
      "channel": 0,
      "note": 65,
      "start": 10.2358,
      "duration": 0.0137,
      "velocity": 76,
      "chip": "ym2612"
    },
    {
      "channel": 1,
      "note": 89,
      "start": 10.236,
      "duration": 0.0137,
      "velocity": 103,
      "chip": "ym2612"
    },
    {
      "channel": 2,
      "note": 41,
      "start": 10.2363,
      "duration": 0.0137,
      "velocity": 115,
      "chip": "ym2612"
    },
    {
      "channel": 3,
      "note": 32,
      "start": 10.2376,
      "duration": 0.0126,
      "velocity": 114,
      "chip": "ym2612"
    },
    {
      "channel": 0,
      "note": 64,
      "start": 10.2496,
      "duration": 0.041,
      "velocity": 76,
      "chip": "ym2612"
    },
    {
      "channel": 1,
      "note": 88,
      "start": 10.2499,
      "duration": 0.0139,
      "velocity": 103,
      "chip": "ym2612"
    },
    {
      "channel": 2,
      "note": 48,
      "start": 10.2501,
      "duration": 0.0137,
      "velocity": 115,
      "chip": "ym2612"
    },
    {
      "channel": 3,
      "note": 84,
      "start": 10.2514,
      "duration": 0.0127,
      "velocity": 127,
      "chip": "ym2612"
    },
    {
      "channel": 2,
      "note": 41,
      "start": 10.264,
      "duration": 0.0138,
      "velocity": 115,
      "chip": "ym2612"
    },
    {
      "channel": 3,
      "note": 68,
      "start": 10.2653,
      "duration": 0.0128,
      "velocity": 100,
      "chip": "ym2612"
    },
    {
      "channel": 1,
      "note": 87,
      "start": 10.2778,
      "duration": 0.0131,
      "velocity": 103,
      "chip": "ym2612"
    },
    {
      "channel": 2,
      "note": 48,
      "start": 10.278,
      "duration": 0.0129,
      "velocity": 115,
      "chip": "ym2612"
    },
    {
      "channel": 3,
      "note": 68,
      "start": 10.2783,
      "duration": 0.0129,
      "velocity": 100,
      "chip": "ym2612"
    },
    {
      "channel": 0,
      "note": 63,
      "start": 10.2908,
      "duration": 0.0153,
      "velocity": 76,
      "chip": "ym2612"
    },
    {
      "channel": 2,
      "note": 41,
      "start": 10.2911,
      "duration": 0.0153,
      "velocity": 115,
      "chip": "ym2612"
    },
    {
      "channel": 3,
      "note": 84,
      "start": 10.2924,
      "duration": 0.0144,
      "velocity": 127,
      "chip": "ym2612"
    },
    {
      "channel": 1,
      "note": 88,
      "start": 10.3064,
      "duration": 0.0136,
      "velocity": 103,
      "chip": "ym2612"
    },
    {
      "channel": 2,
      "note": 48,
      "start": 10.3066,
      "duration": 0.0136,
      "velocity": 115,
      "chip": "ym2612"
    },
    {
      "channel": 3,
      "note": 68,
      "start": 10.3079,
      "duration": 0.0126,
      "velocity": 100,
      "chip": "ym2612"
    },
    {
      "channel": 0,
      "note": 61,
      "start": 10.3199,
      "duration": 0.026,
      "velocity": 76,
      "chip": "ym2612"
    },
    {
      "channel": 1,
      "note": 87,
      "start": 10.3202,
      "duration": 0.026,
      "velocity": 103,
      "chip": "ym2612"
    },
    {
      "channel": 2,
      "note": 49,
      "start": 10.3204,
      "duration": 0.0127,
      "velocity": 115,
      "chip": "ym2612"
    },
    {
      "channel": 3,
      "note": 68,
      "start": 10.3207,
      "duration": 0.0126,
      "velocity": 100,
      "chip": "ym2612"
    },
    {
      "channel": 2,
      "note": 48,
      "start": 10.3333,
      "duration": 0.0131,
      "velocity": 115,
      "chip": "ym2612"
    },
    {
      "channel": 3,
      "note": 68,
      "start": 10.3335,
      "duration": 0.0132,
      "velocity": 100,
      "chip": "ym2612"
    },
    {
      "channel": 0,
      "note": 58,
      "start": 10.3461,
      "duration": 0.0144,
      "velocity": 76,
      "chip": "ym2612"
    },
    {
      "channel": 1,
      "note": 70,
      "start": 10.3464,
      "duration": 0.0141,
      "velocity": 103,
      "chip": "ym2612"
    },
    {
      "channel": 2,
      "note": 46,
      "start": 10.3467,
      "duration": 0.0139,
      "velocity": 115,
      "chip": "ym2612"
    },
    {
      "channel": 3,
      "note": 32,
      "start": 10.3479,
      "duration": 0.0129,
      "velocity": 114,
      "chip": "ym2612"
    },
    {
      "channel": 2,
      "note": 53,
      "start": 10.3607,
      "duration": 0.0151,
      "velocity": 115,
      "chip": "ym2612"
    },
    {
      "channel": 3,
      "note": 68,
      "start": 10.362,
      "duration": 0.0141,
      "velocity": 100,
      "chip": "ym2612"
    },
    {
      "channel": 1,
      "note": 70,
      "start": 10.3758,
      "duration": 0.0124,
      "velocity": 103,
      "chip": "ym2612"
    },
    {
      "channel": 2,
      "note": 46,
      "start": 10.376,
      "duration": 0.0122,
      "velocity": 115,
      "chip": "ym2612"
    },
    {
      "channel": 3,
      "note": 68,
      "start": 10.3763,
      "duration": 0.0122,
      "velocity": 100,
      "chip": "ym2612"
    },
    {
      "channel": 2,
      "note": 53,
      "start": 10.3884,
      "duration": 0.0129,
      "velocity": 115,
      "chip": "ym2612"
    },
    {
      "channel": 3,
      "note": 68,
      "start": 10.3887,
      "duration": 0.0129,
      "velocity": 100,
      "chip": "ym2612"
    },
    {
      "channel": 0,
      "note": 70,
      "start": 10.4011,
      "duration": 0.0557,
      "velocity": 76,
      "chip": "ym2612"
    },
    {
      "channel": 1,
      "note": 82,
      "start": 10.4013,
      "duration": 0.0139,
      "velocity": 103,
      "chip": "ym2612"
    },
    {
      "channel": 2,
      "note": 46,
      "start": 10.4016,
      "duration": 0.0137,
      "velocity": 115,
      "chip": "ym2612"
    },
    {
      "channel": 3,
      "note": 84,
      "start": 10.4028,
      "duration": 0.0127,
      "velocity": 127,
      "chip": "ym2612"
    },
    {
      "channel": 2,
      "note": 53,
      "start": 10.4155,
      "duration": 0.0138,
      "velocity": 115,
      "chip": "ym2612"
    },
    {
      "channel": 3,
      "note": 68,
      "start": 10.4167,
      "duration": 0.0128,
      "velocity": 100,
      "chip": "ym2612"
    },
    {
      "channel": 1,
      "note": 70,
      "start": 10.4292,
      "duration": 0.0141,
      "velocity": 103,
      "chip": "ym2612"
    },
    {
      "channel": 2,
      "note": 46,
      "start": 10.4294,
      "duration": 0.0141,
      "velocity": 115,
      "chip": "ym2612"
    },
    {
      "channel": 3,
      "note": 68,
      "start": 10.4297,
      "duration": 0.0139,
      "velocity": 100,
      "chip": "ym2612"
    },
    {
      "channel": 2,
      "note": 53,
      "start": 10.4436,
      "duration": 0.0137,
      "velocity": 115,
      "chip": "ym2612"
    },
    {
      "channel": 3,
      "note": 84,
      "start": 10.4449,
      "duration": 0.0126,
      "velocity": 127,
      "chip": "ym2612"
    },
    {
      "channel": 0,
      "note": 65,
      "start": 10.4569,
      "duration": 0.014,
      "velocity": 76,
      "chip": "ym2612"
    },
    {
      "channel": 1,
      "note": 77,
      "start": 10.4572,
      "duration": 0.0141,
      "velocity": 103,
      "chip": "ym2612"
    },
    {
      "channel": 2,
      "note": 41,
      "start": 10.4574,
      "duration": 0.0141,
      "velocity": 115,
      "chip": "ym2612"
    },
    {
      "channel": 3,
      "note": 32,
      "start": 10.4587,
      "duration": 0.013,
      "velocity": 114,
      "chip": "ym2612"
    },
    {
      "channel": 0,
      "note": 64,
      "start": 10.4712,
      "duration": 0.0422,
      "velocity": 76,
      "chip": "ym2612"
    },
    {
      "channel": 1,
      "note": 76,
      "start": 10.4714,
      "duration": 0.0138,
      "velocity": 103,
      "chip": "ym2612"
    },
    {
      "channel": 2,
      "note": 48,
      "start": 10.4716,
      "duration": 0.0137,
      "velocity": 115,
      "chip": "ym2612"
    },
    {
      "channel": 3,
      "note": 84,
      "start": 10.4729,
      "duration": 0.0127,
      "velocity": 127,
      "chip": "ym2612"
    },
    {
      "channel": 2,
      "note": 41,
      "start": 10.4855,
      "duration": 0.0139,
      "velocity": 115,
      "chip": "ym2612"
    },
    {
      "channel": 3,
      "note": 68,
      "start": 10.4868,
      "duration": 0.0128,
      "velocity": 100,
      "chip": "ym2612"
    },
    {
      "channel": 1,
      "note": 75,
      "start": 10.4993,
      "duration": 0.0143,
      "velocity": 103,
      "chip": "ym2612"
    },
    {
      "channel": 2,
      "note": 48,
      "start": 10.4995,
      "duration": 0.0142,
      "velocity": 115,
      "chip": "ym2612"
    },
    {
      "channel": 3,
      "note": 68,
      "start": 10.4998,
      "duration": 0.0141,
      "velocity": 100,
      "chip": "ym2612"
    },
    {
      "channel": 0,
      "note": 63,
      "start": 10.5136,
      "duration": 0.0134,
      "velocity": 76,
      "chip": "ym2612"
    },
    {
      "channel": 2,
      "note": 41,
      "start": 10.5139,
      "duration": 0.0134,
      "velocity": 115,
      "chip": "ym2612"
    },
    {
      "channel": 3,
      "note": 84,
      "start": 10.5151,
      "duration": 0.0124,
      "velocity": 127,
      "chip": "ym2612"
    },
    {
      "channel": 1,
      "note": 76,
      "start": 10.5273,
      "duration": 0.014,
      "velocity": 103,
      "chip": "ym2612"
    },
    {
      "channel": 2,
      "note": 48,
      "start": 10.5275,
      "duration": 0.0141,
      "velocity": 115,
      "chip": "ym2612"
    },
    {
      "channel": 3,
      "note": 68,
      "start": 10.5288,
      "duration": 0.013,
      "velocity": 100,
      "chip": "ym2612"
    },
    {
      "channel": 0,
      "note": 61,
      "start": 10.5413,
      "duration": 0.026,
      "velocity": 76,
      "chip": "ym2612"
    },
    {
      "channel": 1,
      "note": 75,
      "start": 10.5416,
      "duration": 0.0261,
      "velocity": 103,
      "chip": "ym2612"
    },
    {
      "channel": 2,
      "note": 49,
      "start": 10.5418,
      "duration": 0.0126,
      "velocity": 115,
      "chip": "ym2612"
    },
    {
      "channel": 3,
      "note": 68,
      "start": 10.5421,
      "duration": 0.0126,
      "velocity": 100,
      "chip": "ym2612"
    },
    {
      "channel": 2,
      "note": 48,
      "start": 10.5546,
      "duration": 0.0132,
      "velocity": 115,
      "chip": "ym2612"
    },
    {
      "channel": 3,
      "note": 68,
      "start": 10.5549,
      "duration": 0.0133,
      "velocity": 100,
      "chip": "ym2612"
    },
    {
      "channel": 0,
      "note": 58,
      "start": 10.5676,
      "duration": 0.0157,
      "velocity": 76,
      "chip": "ym2612"
    },
    {
      "channel": 1,
      "note": 70,
      "start": 10.5678,
      "duration": 0.0156,
      "velocity": 103,
      "chip": "ym2612"
    },
    {
      "channel": 2,
      "note": 46,
      "start": 10.5681,
      "duration": 0.0153,
      "velocity": 115,
      "chip": "ym2612"
    },
    {
      "channel": 3,
      "note": 32,
      "start": 10.5694,
      "duration": 0.0143,
      "velocity": 114,
      "chip": "ym2612"
    },
    {
      "channel": 2,
      "note": 53,
      "start": 10.5837,
      "duration": 0.0134,
      "velocity": 115,
      "chip": "ym2612"
    },
    {
      "channel": 3,
      "note": 68,
      "start": 10.5849,
      "duration": 0.0124,
      "velocity": 100,
      "chip": "ym2612"
    },
    {
      "channel": 1,
      "note": 70,
      "start": 10.597,
      "duration": 0.0129,
      "velocity": 103,
      "chip": "ym2612"
    },
    {
      "channel": 2,
      "note": 46,
      "start": 10.5972,
      "duration": 0.0127,
      "velocity": 115,
      "chip": "ym2612"
    },
    {
      "channel": 3,
      "note": 68,
      "start": 10.5975,
      "duration": 0.0127,
      "velocity": 100,
      "chip": "ym2612"
    },
    {
      "channel": 2,
      "note": 53,
      "start": 10.6101,
      "duration": 0.0131,
      "velocity": 115,
      "chip": "ym2612"
    },
    {
      "channel": 3,
      "note": 68,
      "start": 10.6103,
      "duration": 0.013,
      "velocity": 100,
      "chip": "ym2612"
    },
    {
      "channel": 0,
      "note": 70,
      "start": 10.6229,
      "duration": 0.0555,
      "velocity": 76,
      "chip": "ym2612"
    },
    {
      "channel": 1,
      "note": 82,
      "start": 10.6231,
      "duration": 0.0138,
      "velocity": 103,
      "chip": "ym2612"
    },
    {
      "channel": 2,
      "note": 46,
      "start": 10.6234,
      "duration": 0.0136,
      "velocity": 115,
      "chip": "ym2612"
    },
    {
      "channel": 3,
      "note": 84,
      "start": 10.6246,
      "duration": 0.0126,
      "velocity": 127,
      "chip": "ym2612"
    },
    {
      "channel": 2,
      "note": 53,
      "start": 10.6371,
      "duration": 0.0151,
      "velocity": 115,
      "chip": "ym2612"
    },
    {
      "channel": 3,
      "note": 68,
      "start": 10.6384,
      "duration": 0.0141,
      "velocity": 100,
      "chip": "ym2612"
    },
    {
      "channel": 1,
      "note": 70,
      "start": 10.6522,
      "duration": 0.0124,
      "velocity": 103,
      "chip": "ym2612"
    },
    {
      "channel": 2,
      "note": 46,
      "start": 10.6524,
      "duration": 0.0122,
      "velocity": 115,
      "chip": "ym2612"
    },
    {
      "channel": 3,
      "note": 68,
      "start": 10.6527,
      "duration": 0.0122,
      "velocity": 100,
      "chip": "ym2612"
    },
    {
      "channel": 2,
      "note": 53,
      "start": 10.6649,
      "duration": 0.014,
      "velocity": 115,
      "chip": "ym2612"
    },
    {
      "channel": 3,
      "note": 84,
      "start": 10.6661,
      "duration": 0.0129,
      "velocity": 127,
      "chip": "ym2612"
    },
    {
      "channel": 0,
      "note": 65,
      "start": 10.6785,
      "duration": 0.014,
      "velocity": 76,
      "chip": "ym2612"
    },
    {
      "channel": 1,
      "note": 77,
      "start": 10.6788,
      "duration": 0.0139,
      "velocity": 103,
      "chip": "ym2612"
    },
    {
      "channel": 2,
      "note": 41,
      "start": 10.679,
      "duration": 0.014,
      "velocity": 115,
      "chip": "ym2612"
    },
    {
      "channel": 3,
      "note": 32,
      "start": 10.6803,
      "duration": 0.0129,
      "velocity": 114,
      "chip": "ym2612"
    },
    {
      "channel": 0,
      "note": 64,
      "start": 10.6927,
      "duration": 0.0419,
      "velocity": 76,
      "chip": "ym2612"
    },
    {
      "channel": 1,
      "note": 76,
      "start": 10.6929,
      "duration": 0.0139,
      "velocity": 103,
      "chip": "ym2612"
    },
    {
      "channel": 2,
      "note": 48,
      "start": 10.6932,
      "duration": 0.0137,
      "velocity": 115,
      "chip": "ym2612"
    },
    {
      "channel": 3,
      "note": 84,
      "start": 10.6944,
      "duration": 0.0127,
      "velocity": 127,
      "chip": "ym2612"
    },
    {
      "channel": 2,
      "note": 41,
      "start": 10.7071,
      "duration": 0.0151,
      "velocity": 115,
      "chip": "ym2612"
    },
    {
      "channel": 3,
      "note": 68,
      "start": 10.7083,
      "duration": 0.0141,
      "velocity": 100,
      "chip": "ym2612"
    },
    {
      "channel": 1,
      "note": 75,
      "start": 10.7221,
      "duration": 0.0127,
      "velocity": 103,
      "chip": "ym2612"
    },
    {
      "channel": 2,
      "note": 48,
      "start": 10.7224,
      "duration": 0.0125,
      "velocity": 115,
      "chip": "ym2612"
    },
    {
      "channel": 3,
      "note": 68,
      "start": 10.7227,
      "duration": 0.0125,
      "velocity": 100,
      "chip": "ym2612"
    },
    {
      "channel": 0,
      "note": 63,
      "start": 10.7347,
      "duration": 0.0139,
      "velocity": 76,
      "chip": "ym2612"
    },
    {
      "channel": 2,
      "note": 41,
      "start": 10.7351,
      "duration": 0.014,
      "velocity": 115,
      "chip": "ym2612"
    },
    {
      "channel": 3,
      "note": 84,
      "start": 10.7363,
      "duration": 0.0129,
      "velocity": 127,
      "chip": "ym2612"
    },
    {
      "channel": 1,
      "note": 76,
      "start": 10.749,
      "duration": 0.014,
      "velocity": 103,
      "chip": "ym2612"
    },
    {
      "channel": 2,
      "note": 48,
      "start": 10.7492,
      "duration": 0.014,
      "velocity": 115,
      "chip": "ym2612"
    },
    {
      "channel": 3,
      "note": 68,
      "start": 10.7505,
      "duration": 0.0129,
      "velocity": 100,
      "chip": "ym2612"
    },
    {
      "channel": 0,
      "note": 61,
      "start": 10.7629,
      "duration": 0.0272,
      "velocity": 76,
      "chip": "ym2612"
    },
    {
      "channel": 1,
      "note": 75,
      "start": 10.7632,
      "duration": 0.0273,
      "velocity": 103,
      "chip": "ym2612"
    },
    {
      "channel": 2,
      "note": 49,
      "start": 10.7634,
      "duration": 0.0126,
      "velocity": 115,
      "chip": "ym2612"
    },
    {
      "channel": 3,
      "note": 68,
      "start": 10.7637,
      "duration": 0.0125,
      "velocity": 100,
      "chip": "ym2612"
    },
    {
      "channel": 2,
      "note": 48,
      "start": 10.7761,
      "duration": 0.0145,
      "velocity": 115,
      "chip": "ym2612"
    },
    {
      "channel": 3,
      "note": 68,
      "start": 10.7764,
      "duration": 0.0145,
      "velocity": 100,
      "chip": "ym2612"
    },
    {
      "channel": 0,
      "note": 58,
      "start": 10.7904,
      "duration": 0.0139,
      "velocity": 76,
      "chip": "ym2612"
    },
    {
      "channel": 1,
      "note": 82,
      "start": 10.7906,
      "duration": 0.0138,
      "velocity": 103,
      "chip": "ym2612"
    },
    {
      "channel": 2,
      "note": 46,
      "start": 10.7909,
      "duration": 0.0135,
      "velocity": 115,
      "chip": "ym2612"
    },
    {
      "channel": 3,
      "note": 32,
      "start": 10.7922,
      "duration": 0.0125,
      "velocity": 114,
      "chip": "ym2612"
    },
    {
      "channel": 2,
      "note": 53,
      "start": 10.8046,
      "duration": 0.0139,
      "velocity": 115,
      "chip": "ym2612"
    },
    {
      "channel": 3,
      "note": 68,
      "start": 10.8059,
      "duration": 0.0129,
      "velocity": 100,
      "chip": "ym2612"
    },
    {
      "channel": 1,
      "note": 82,
      "start": 10.8185,
      "duration": 0.0129,
      "velocity": 103,
      "chip": "ym2612"
    },
    {
      "channel": 2,
      "note": 46,
      "start": 10.8187,
      "duration": 0.0128,
      "velocity": 115,
      "chip": "ym2612"
    },
    {
      "channel": 3,
      "note": 68,
      "start": 10.819,
      "duration": 0.0128,
      "velocity": 100,
      "chip": "ym2612"
    },
    {
      "channel": 2,
      "note": 53,
      "start": 10.8317,
      "duration": 0.0131,
      "velocity": 115,
      "chip": "ym2612"
    },
    {
      "channel": 3,
      "note": 68,
      "start": 10.8319,
      "duration": 0.0131,
      "velocity": 100,
      "chip": "ym2612"
    },
    {
      "channel": 0,
      "note": 70,
      "start": 10.8445,
      "duration": 0.0555,
      "velocity": 76,
      "chip": "ym2612"
    },
    {
      "channel": 1,
      "note": 94,
      "start": 10.8447,
      "duration": 0.015,
      "velocity": 103,
      "chip": "ym2612"
    },
    {
      "channel": 2,
      "note": 46,
      "start": 10.845,
      "duration": 0.0149,
      "velocity": 115,
      "chip": "ym2612"
    },
    {
      "channel": 3,
      "note": 84,
      "start": 10.8462,
      "duration": 0.0138,
      "velocity": 127,
      "chip": "ym2612"
    },
    {
      "channel": 2,
      "note": 53,
      "start": 10.8601,
      "duration": 0.0134,
      "velocity": 115,
      "chip": "ym2612"
    },
    {
      "channel": 3,
      "note": 68,
      "start": 10.8613,
      "duration": 0.0124,
      "velocity": 100,
      "chip": "ym2612"
    },
    {
      "channel": 1,
      "note": 82,
      "start": 10.8734,
      "duration": 0.0128,
      "velocity": 103,
      "chip": "ym2612"
    },
    {
      "channel": 2,
      "note": 46,
      "start": 10.8736,
      "duration": 0.0127,
      "velocity": 115,
      "chip": "ym2612"
    },
    {
      "channel": 3,
      "note": 68,
      "start": 10.8739,
      "duration": 0.0127,
      "velocity": 100,
      "chip": "ym2612"
    },
    {
      "channel": 2,
      "note": 53,
      "start": 10.8865,
      "duration": 0.014,
      "velocity": 115,
      "chip": "ym2612"
    },
    {
      "channel": 3,
      "note": 84,
      "start": 10.8877,
      "duration": 0.0129,
      "velocity": 127,
      "chip": "ym2612"
    },
    {
      "channel": 0,
      "note": 65,
      "start": 10.9002,
      "duration": 0.0139,
      "velocity": 76,
      "chip": "ym2612"
    },
    {
      "channel": 1,
      "note": 89,
      "start": 10.9004,
      "duration": 0.0139,
      "velocity": 103,
      "chip": "ym2612"
    },
    {
      "channel": 2,
      "note": 41,
      "start": 10.9007,
      "duration": 0.0139,
      "velocity": 115,
      "chip": "ym2612"
    },
    {
      "channel": 3,
      "note": 32,
      "start": 10.9019,
      "duration": 0.0129,
      "velocity": 114,
      "chip": "ym2612"
    },
    {
      "channel": 0,
      "note": 64,
      "start": 10.9143,
      "duration": 0.0418,
      "velocity": 76,
      "chip": "ym2612"
    },
    {
      "channel": 1,
      "note": 88,
      "start": 10.9146,
      "duration": 0.0151,
      "velocity": 103,
      "chip": "ym2612"
    },
    {
      "channel": 2,
      "note": 48,
      "start": 10.9148,
      "duration": 0.015,
      "velocity": 115,
      "chip": "ym2612"
    },
    {
      "channel": 3,
      "note": 84,
      "start": 10.916,
      "duration": 0.0139,
      "velocity": 127,
      "chip": "ym2612"
    },
    {
      "channel": 2,
      "note": 41,
      "start": 10.9299,
      "duration": 0.0134,
      "velocity": 115,
      "chip": "ym2612"
    },
    {
      "channel": 3,
      "note": 68,
      "start": 10.9312,
      "duration": 0.0123,
      "velocity": 100,
      "chip": "ym2612"
    },
    {
      "channel": 1,
      "note": 87,
      "start": 10.9433,
      "duration": 0.0131,
      "velocity": 103,
      "chip": "ym2612"
    },
    {
      "channel": 2,
      "note": 48,
      "start": 10.9434,
      "duration": 0.013,
      "velocity": 115,
      "chip": "ym2612"
    },
    {
      "channel": 3,
      "note": 68,
      "start": 10.9437,
      "duration": 0.0129,
      "velocity": 100,
      "chip": "ym2612"
    },
    {
      "channel": 0,
      "note": 63,
      "start": 10.9563,
      "duration": 0.014,
      "velocity": 76,
      "chip": "ym2612"
    },
    {
      "channel": 2,
      "note": 41,
      "start": 10.9566,
      "duration": 0.014,
      "velocity": 115,
      "chip": "ym2612"
    },
    {
      "channel": 3,
      "note": 84,
      "start": 10.9578,
      "duration": 0.013,
      "velocity": 127,
      "chip": "ym2612"
    },
    {
      "channel": 1,
      "note": 88,
      "start": 10.9705,
      "duration": 0.0141,
      "velocity": 103,
      "chip": "ym2612"
    },
    {
      "channel": 2,
      "note": 48,
      "start": 10.9708,
      "duration": 0.014,
      "velocity": 115,
      "chip": "ym2612"
    },
    {
      "channel": 3,
      "note": 68,
      "start": 10.972,
      "duration": 0.013,
      "velocity": 100,
      "chip": "ym2612"
    },
    {
      "channel": 0,
      "note": 61,
      "start": 10.9845,
      "duration": 0.0268,
      "velocity": 76,
      "chip": "ym2612"
    },
    {
      "channel": 1,
      "note": 87,
      "start": 10.9847,
      "duration": 0.0269,
      "velocity": 103,
      "chip": "ym2612"
    },
    {
      "channel": 2,
      "note": 49,
      "start": 10.985,
      "duration": 0.014,
      "velocity": 115,
      "chip": "ym2612"
    },
    {
      "channel": 3,
      "note": 68,
      "start": 10.9852,
      "duration": 0.014,
      "velocity": 100,
      "chip": "ym2612"
    },
    {
      "channel": 2,
      "note": 48,
      "start": 10.9991,
      "duration": 0.0127,
      "velocity": 115,
      "chip": "ym2612"
    },
    {
      "channel": 3,
      "note": 68,
      "start": 10.9994,
      "duration": 0.0127,
      "velocity": 100,
      "chip": "ym2612"
    },
    {
      "channel": 0,
      "note": 58,
      "start": 11.0116,
      "duration": 0.0143,
      "velocity": 76,
      "chip": "ym2612"
    },
    {
      "channel": 1,
      "note": 82,
      "start": 11.0118,
      "duration": 0.0141,
      "velocity": 103,
      "chip": "ym2612"
    },
    {
      "channel": 2,
      "note": 46,
      "start": 11.0121,
      "duration": 0.014,
      "velocity": 115,
      "chip": "ym2612"
    },
    {
      "channel": 3,
      "note": 32,
      "start": 11.0133,
      "duration": 0.0129,
      "velocity": 114,
      "chip": "ym2612"
    },
    {
      "channel": 2,
      "note": 53,
      "start": 11.0262,
      "duration": 0.0139,
      "velocity": 115,
      "chip": "ym2612"
    },
    {
      "channel": 3,
      "note": 68,
      "start": 11.0275,
      "duration": 0.0128,
      "velocity": 100,
      "chip": "ym2612"
    },
    {
      "channel": 1,
      "note": 82,
      "start": 11.04,
      "duration": 0.0129,
      "velocity": 103,
      "chip": "ym2612"
    },
    {
      "channel": 2,
      "note": 46,
      "start": 11.0402,
      "duration": 0.0127,
      "velocity": 115,
      "chip": "ym2612"
    },
    {
      "channel": 3,
      "note": 68,
      "start": 11.0405,
      "duration": 0.0127,
      "velocity": 100,
      "chip": "ym2612"
    },
    {
      "channel": 2,
      "note": 53,
      "start": 11.0531,
      "duration": 0.0144,
      "velocity": 115,
      "chip": "ym2612"
    },
    {
      "channel": 3,
      "note": 68,
      "start": 11.0534,
      "duration": 0.0144,
      "velocity": 100,
      "chip": "ym2612"
    },
    {
      "channel": 0,
      "note": 70,
      "start": 11.0672,
      "duration": 0.0544,
      "velocity": 76,
      "chip": "ym2612"
    },
    {
      "channel": 1,
      "note": 94,
      "start": 11.0674,
      "duration": 0.0134,
      "velocity": 103,
      "chip": "ym2612"
    },
    {
      "channel": 2,
      "note": 46,
      "start": 11.0677,
      "duration": 0.0132,
      "velocity": 115,
      "chip": "ym2612"
    },
    {
      "channel": 3,
      "note": 84,
      "start": 11.0689,
      "duration": 0.0122,
      "velocity": 127,
      "chip": "ym2612"
    },
    {
      "channel": 2,
      "note": 53,
      "start": 11.0811,
      "duration": 0.0138,
      "velocity": 115,
      "chip": "ym2612"
    },
    {
      "channel": 3,
      "note": 68,
      "start": 11.0824,
      "duration": 0.0128,
      "velocity": 100,
      "chip": "ym2612"
    },
    {
      "channel": 1,
      "note": 82,
      "start": 11.0948,
      "duration": 0.0129,
      "velocity": 103,
      "chip": "ym2612"
    },
    {
      "channel": 2,
      "note": 46,
      "start": 11.0951,
      "duration": 0.0127,
      "velocity": 115,
      "chip": "ym2612"
    },
    {
      "channel": 3,
      "note": 68,
      "start": 11.0953,
      "duration": 0.0127,
      "velocity": 100,
      "chip": "ym2612"
    },
    {
      "channel": 2,
      "note": 53,
      "start": 11.108,
      "duration": 0.014,
      "velocity": 115,
      "chip": "ym2612"
    },
    {
      "channel": 3,
      "note": 84,
      "start": 11.1093,
      "duration": 0.013,
      "velocity": 127,
      "chip": "ym2612"
    },
    {
      "channel": 0,
      "note": 65,
      "start": 11.1217,
      "duration": 0.0153,
      "velocity": 76,
      "chip": "ym2612"
    },
    {
      "channel": 1,
      "note": 89,
      "start": 11.122,
      "duration": 0.0153,
      "velocity": 103,
      "chip": "ym2612"
    },
    {
      "channel": 2,
      "note": 41,
      "start": 11.1222,
      "duration": 0.0153,
      "velocity": 115,
      "chip": "ym2612"
    },
    {
      "channel": 3,
      "note": 32,
      "start": 11.1235,
      "duration": 0.0142,
      "velocity": 114,
      "chip": "ym2612"
    },
    {
      "channel": 0,
      "note": 64,
      "start": 11.1372,
      "duration": 0.0405,
      "velocity": 76,
      "chip": "ym2612"
    },
    {
      "channel": 1,
      "note": 88,
      "start": 11.1375,
      "duration": 0.0134,
      "velocity": 103,
      "chip": "ym2612"
    },
    {
      "channel": 2,
      "note": 48,
      "start": 11.1376,
      "duration": 0.0133,
      "velocity": 115,
      "chip": "ym2612"
    },
    {
      "channel": 3,
      "note": 84,
      "start": 11.1389,
      "duration": 0.0122,
      "velocity": 127,
      "chip": "ym2612"
    },
    {
      "channel": 2,
      "note": 41,
      "start": 11.1511,
      "duration": 0.0138,
      "velocity": 115,
      "chip": "ym2612"
    },
    {
      "channel": 3,
      "note": 68,
      "start": 11.1524,
      "duration": 0.0128,
      "velocity": 100,
      "chip": "ym2612"
    },
    {
      "channel": 1,
      "note": 87,
      "start": 11.1648,
      "duration": 0.0131,
      "velocity": 103,
      "chip": "ym2612"
    },
    {
      "channel": 2,
      "note": 48,
      "start": 11.1651,
      "duration": 0.0129,
      "velocity": 115,
      "chip": "ym2612"
    },
    {
      "channel": 3,
      "note": 68,
      "start": 11.1653,
      "duration": 0.0129,
      "velocity": 100,
      "chip": "ym2612"
    },
    {
      "channel": 0,
      "note": 63,
      "start": 11.1778,
      "duration": 0.0139,
      "velocity": 76,
      "chip": "ym2612"
    },
    {
      "channel": 2,
      "note": 41,
      "start": 11.1782,
      "duration": 0.0139,
      "velocity": 115,
      "chip": "ym2612"
    },
    {
      "channel": 3,
      "note": 84,
      "start": 11.1794,
      "duration": 0.0128,
      "velocity": 127,
      "chip": "ym2612"
    },
    {
      "channel": 1,
      "note": 88,
      "start": 11.192,
      "duration": 0.0154,
      "velocity": 103,
      "chip": "ym2612"
    },
    {
      "channel": 2,
      "note": 48,
      "start": 11.1922,
      "duration": 0.0154,
      "velocity": 115,
      "chip": "ym2612"
    },
    {
      "channel": 3,
      "note": 68,
      "start": 11.1934,
      "duration": 0.0144,
      "velocity": 100,
      "chip": "ym2612"
    },
    {
      "channel": 0,
      "note": 61,
      "start": 11.2073,
      "duration": 0.0257,
      "velocity": 76,
      "chip": "ym2612"
    },
    {
      "channel": 1,
      "note": 87,
      "start": 11.2075,
      "duration": 0.0268,
      "velocity": 103,
      "chip": "ym2612"
    },
    {
      "channel": 2,
      "note": 49,
      "start": 11.2078,
      "duration": 0.0121,
      "velocity": 115,
      "chip": "ym2612"
    },
    {
      "channel": 3,
      "note": 68,
      "start": 11.208,
      "duration": 0.0121,
      "velocity": 100,
      "chip": "ym2612"
    },
    {
      "channel": 2,
      "note": 48,
      "start": 11.2201,
      "duration": 0.0155,
      "velocity": 115,
      "chip": "ym2612"
    },
    {
      "channel": 3,
      "note": 68,
      "start": 11.2203,
      "duration": 0.0153,
      "velocity": 100,
      "chip": "ym2612"
    },
    {
      "channel": 0,
      "note": 32,
      "start": 11.2342,
      "duration": 0.0265,
      "velocity": 114,
      "chip": "ym2612"
    },
    {
      "channel": 1,
      "note": 46,
      "start": 11.2355,
      "duration": 0.0127,
      "velocity": 92,
      "chip": "ym2612"
    },
    {
      "channel": 1,
      "note": 56,
      "start": 11.2483,
      "duration": 0.0137,
      "velocity": 92,
      "chip": "ym2612"
    },
    {
      "channel": 0,
      "note": 68,
      "start": 11.262,
      "duration": 0.026,
      "velocity": 100,
      "chip": "ym2612"
    },
    {
      "channel": 1,
      "note": 58,
      "start": 11.276,
      "duration": 0.0256,
      "velocity": 92,
      "chip": "ym2612"
    },
    {
      "channel": 0,
      "note": 32,
      "start": 11.2892,
      "duration": 0.0249,
      "velocity": 114,
      "chip": "ym2612"
    },
    {
      "channel": 1,
      "note": 56,
      "start": 11.3017,
      "duration": 0.0136,
      "velocity": 92,
      "chip": "ym2612"
    },
    {
      "channel": 0,
      "note": 68,
      "start": 11.3152,
      "duration": 0.0264,
      "velocity": 100,
      "chip": "ym2612"
    },
    {
      "channel": 1,
      "note": 49,
      "start": 11.3279,
      "duration": 0.015,
      "velocity": 92,
      "chip": "ym2612"
    },
    {
      "channel": 0,
      "note": 32,
      "start": 11.3428,
      "duration": 0.0248,
      "velocity": 114,
      "chip": "ym2612"
    },
    {
      "channel": 1,
      "note": 52,
      "start": 11.3431,
      "duration": 0.0119,
      "velocity": 92,
      "chip": "ym2612"
    },
    {
      "channel": 1,
      "note": 51,
      "start": 11.3552,
      "duration": 0.0137,
      "velocity": 92,
      "chip": "ym2612"
    },
    {
      "channel": 0,
      "note": 68,
      "start": 11.3688,
      "duration": 0.0249,
      "velocity": 100,
      "chip": "ym2612"
    },
    {
      "channel": 1,
      "note": 49,
      "start": 11.3691,
      "duration": 0.0259,
      "velocity": 92,
      "chip": "ym2612"
    },
    {
      "channel": 0,
      "note": 32,
      "start": 11.3949,
      "duration": 0.0259,
      "velocity": 114,
      "chip": "ym2612"
    },
    {
      "channel": 1,
      "note": 52,
      "start": 11.3952,
      "duration": 0.0137,
      "velocity": 92,
      "chip": "ym2612"
    },
    {
      "channel": 1,
      "note": 51,
      "start": 11.409,
      "duration": 0.0131,
      "velocity": 92,
      "chip": "ym2612"
    },
    {
      "channel": 0,
      "note": 68,
      "start": 11.422,
      "duration": 0.0251,
      "velocity": 100,
      "chip": "ym2612"
    },
    {
      "channel": 1,
      "note": 49,
      "start": 11.4223,
      "duration": 0.0261,
      "velocity": 92,
      "chip": "ym2612"
    },
    {
      "channel": 0,
      "note": 32,
      "start": 11.4483,
      "duration": 0.0268,
      "velocity": 114,
      "chip": "ym2612"
    },
    {
      "channel": 1,
      "note": 46,
      "start": 11.4485,
      "duration": 0.0127,
      "velocity": 92,
      "chip": "ym2612"
    },
    {
      "channel": 1,
      "note": 56,
      "start": 11.4614,
      "duration": 0.015,
      "velocity": 92,
      "chip": "ym2612"
    },
    {
      "channel": 0,
      "note": 68,
      "start": 11.4763,
      "duration": 0.0245,
      "velocity": 100,
      "chip": "ym2612"
    },
    {
      "channel": 1,
      "note": 58,
      "start": 11.4885,
      "duration": 0.026,
      "velocity": 92,
      "chip": "ym2612"
    },
    {
      "channel": 0,
      "note": 32,
      "start": 11.502,
      "duration": 0.0251,
      "velocity": 114,
      "chip": "ym2612"
    },
    {
      "channel": 1,
      "note": 56,
      "start": 11.5146,
      "duration": 0.0137,
      "velocity": 92,
      "chip": "ym2612"
    },
    {
      "channel": 0,
      "note": 68,
      "start": 11.5283,
      "duration": 0.0257,
      "velocity": 100,
      "chip": "ym2612"
    },
    {
      "channel": 1,
      "note": 49,
      "start": 11.5421,
      "duration": 0.0132,
      "velocity": 92,
      "chip": "ym2612"
    },
    {
      "channel": 0,
      "note": 32,
      "start": 11.5553,
      "duration": 0.0251,
      "velocity": 114,
      "chip": "ym2612"
    },
    {
      "channel": 1,
      "note": 52,
      "start": 11.5555,
      "duration": 0.0124,
      "velocity": 92,
      "chip": "ym2612"
    },
    {
      "channel": 1,
      "note": 51,
      "start": 11.5681,
      "duration": 0.0136,
      "velocity": 92,
      "chip": "ym2612"
    },
    {
      "channel": 0,
      "note": 68,
      "start": 11.5816,
      "duration": 0.0261,
      "velocity": 100,
      "chip": "ym2612"
    },
    {
      "channel": 1,
      "note": 49,
      "start": 11.5819,
      "duration": 0.0271,
      "velocity": 92,
      "chip": "ym2612"
    },
    {
      "channel": 0,
      "note": 32,
      "start": 11.609,
      "duration": 0.0247,
      "velocity": 114,
      "chip": "ym2612"
    },
    {
      "channel": 1,
      "note": 52,
      "start": 11.6092,
      "duration": 0.0119,
      "velocity": 92,
      "chip": "ym2612"
    },
    {
      "channel": 1,
      "note": 51,
      "start": 11.6214,
      "duration": 0.0136,
      "velocity": 92,
      "chip": "ym2612"
    },
    {
      "channel": 0,
      "note": 68,
      "start": 11.6349,
      "duration": 0.0249,
      "velocity": 100,
      "chip": "ym2612"
    },
    {
      "channel": 1,
      "note": 49,
      "start": 11.6351,
      "duration": 0.0259,
      "velocity": 92,
      "chip": "ym2612"
    },
    {
      "channel": 0,
      "note": 32,
      "start": 11.661,
      "duration": 0.0264,
      "velocity": 114,
      "chip": "ym2612"
    },
    {
      "channel": 1,
      "note": 46,
      "start": 11.6612,
      "duration": 0.0141,
      "velocity": 92,
      "chip": "ym2612"
    },
    {
      "channel": 1,
      "note": 56,
      "start": 11.6756,
      "duration": 0.0131,
      "velocity": 92,
      "chip": "ym2612"
    },
    {
      "channel": 0,
      "note": 68,
      "start": 11.6886,
      "duration": 0.0249,
      "velocity": 100,
      "chip": "ym2612"
    },
    {
      "channel": 1,
      "note": 58,
      "start": 11.7012,
      "duration": 0.0259,
      "velocity": 92,
      "chip": "ym2612"
    },
    {
      "channel": 0,
      "note": 32,
      "start": 11.7148,
      "duration": 0.0263,
      "velocity": 114,
      "chip": "ym2612"
    },
    {
      "channel": 1,
      "note": 56,
      "start": 11.7273,
      "duration": 0.015,
      "velocity": 92,
      "chip": "ym2612"
    },
    {
      "channel": 0,
      "note": 68,
      "start": 11.7422,
      "duration": 0.0246,
      "velocity": 100,
      "chip": "ym2612"
    },
    {
      "channel": 1,
      "note": 49,
      "start": 11.7544,
      "duration": 0.0137,
      "velocity": 92,
      "chip": "ym2612"
    },
    {
      "channel": 0,
      "note": 32,
      "start": 11.7681,
      "duration": 0.0252,
      "velocity": 114,
      "chip": "ym2612"
    },
    {
      "channel": 1,
      "note": 52,
      "start": 11.7683,
      "duration": 0.0125,
      "velocity": 92,
      "chip": "ym2612"
    },
    {
      "channel": 1,
      "note": 51,
      "start": 11.7809,
      "duration": 0.0136,
      "velocity": 92,
      "chip": "ym2612"
    },
    {
      "channel": 0,
      "note": 68,
      "start": 11.7944,
      "duration": 0.0259,
      "velocity": 100,
      "chip": "ym2612"
    },
    {
      "channel": 1,
      "note": 49,
      "start": 11.7946,
      "duration": 0.0269,
      "velocity": 92,
      "chip": "ym2612"
    },
    {
      "channel": 0,
      "note": 32,
      "start": 11.8216,
      "duration": 0.0251,
      "velocity": 114,
      "chip": "ym2612"
    },
    {
      "channel": 1,
      "note": 52,
      "start": 11.8217,
      "duration": 0.0124,
      "velocity": 92,
      "chip": "ym2612"
    },
    {
      "channel": 1,
      "note": 51,
      "start": 11.8343,
      "duration": 0.0136,
      "velocity": 92,
      "chip": "ym2612"
    },
    {
      "channel": 0,
      "note": 68,
      "start": 11.8478,
      "duration": 0.0263,
      "velocity": 100,
      "chip": "ym2612"
    },
    {
      "channel": 1,
      "note": 49,
      "start": 11.8481,
      "duration": 0.0273,
      "velocity": 92,
      "chip": "ym2612"
    },
    {
      "channel": 0,
      "note": 32,
      "start": 11.8754,
      "duration": 0.025,
      "velocity": 114,
      "chip": "ym2612"
    },
    {
      "channel": 1,
      "note": 46,
      "start": 11.8756,
      "duration": 0.0123,
      "velocity": 92,
      "chip": "ym2612"
    },
    {
      "channel": 1,
      "note": 56,
      "start": 11.888,
      "duration": 0.0136,
      "velocity": 92,
      "chip": "ym2612"
    },
    {
      "channel": 0,
      "note": 68,
      "start": 11.9016,
      "duration": 0.0249,
      "velocity": 100,
      "chip": "ym2612"
    },
    {
      "channel": 1,
      "note": 58,
      "start": 11.9141,
      "duration": 0.0273,
      "velocity": 92,
      "chip": "ym2612"
    },
    {
      "channel": 0,
      "note": 32,
      "start": 11.9277,
      "duration": 0.0258,
      "velocity": 114,
      "chip": "ym2612"
    },
    {
      "channel": 1,
      "note": 56,
      "start": 11.9416,
      "duration": 0.0131,
      "velocity": 92,
      "chip": "ym2612"
    },
    {
      "channel": 0,
      "note": 68,
      "start": 11.9546,
      "duration": 0.025,
      "velocity": 100,
      "chip": "ym2612"
    },
    {
      "channel": 1,
      "note": 49,
      "start": 11.9673,
      "duration": 0.0137,
      "velocity": 92,
      "chip": "ym2612"
    },
    {
      "channel": 0,
      "note": 32,
      "start": 11.9808,
      "duration": 0.0263,
      "velocity": 114,
      "chip": "ym2612"
    },
    {
      "channel": 1,
      "note": 52,
      "start": 11.9811,
      "duration": 0.0124,
      "velocity": 92,
      "chip": "ym2612"
    },
    {
      "channel": 0,
      "note": 68,
      "start": 12.0084,
      "duration": 0.0245,
      "velocity": 100,
      "chip": "ym2612"
    },
    {
      "channel": 1,
      "note": 52,
      "start": 12.0086,
      "duration": 0.012,
      "velocity": 92,
      "chip": "ym2612"
    },
    {
      "channel": 0,
      "note": 32,
      "start": 12.0342,
      "duration": 0.025,
      "velocity": 114,
      "chip": "ym2612"
    },
    {
      "channel": 1,
      "note": 51,
      "start": 12.0344,
      "duration": 0.0522,
      "velocity": 92,
      "chip": "ym2612"
    },
    {
      "channel": 0,
      "note": 68,
      "start": 12.0604,
      "duration": 0.0261,
      "velocity": 100,
      "chip": "ym2612"
    },
    {
      "channel": 1,
      "note": 46,
      "start": 12.0868,
      "duration": 95.4258,
      "velocity": 92,
      "chip": "ym2612"
    }
  ]
}