{
  "track_name": "04 - Military on the Max-Power",
  "duration_sec": 68.667,
  "sample_rate": 44100,
  "note_count": 1036,
  "unique_pitches": 49,
  "pitch_range": 64,
  "avg_note_duration": 0.3168,
  "reconstruction_stats": {
    "notes_reconstructed": 1036,
    "keyon_events": 1036,
    "keyoff_events": 1028,
    "orphan_keyons": 5,
    "unique_pitches": 49,
    "pitch_range": 64,
    "avg_duration_sec": 0.3168
  },
  "metadata": {
    "source": "G\\Gunstar Heroes\\04 - Military on the Max-Power.vgz"
  },
  "notes": [
    {
      "channel": 0,
      "note": 47,
      "start": 0.0046,
      "duration": 2.5821,
      "velocity": 126,
      "chip": "ym2612"
    },
    {
      "channel": 1,
      "note": 93,
      "start": 0.0057,
      "duration": 0.0079,
      "velocity": 106,
      "chip": "ym2612"
    },
    {
      "channel": 2,
      "note": 90,
      "start": 0.0068,
      "duration": 0.0071,
      "velocity": 125,
      "chip": "ym2612"
    },
    {
      "channel": 3,
      "note": 76,
      "start": 0.0102,
      "duration": 0.0065,
      "velocity": 114,
      "chip": "ym2612"
    },
    {
      "channel": 1,
      "note": 95,
      "start": 0.0138,
      "duration": 2.5732,
      "velocity": 106,
      "chip": "ym2612"
    },
    {
      "channel": 2,
      "note": 78,
      "start": 0.0142,
      "duration": 0.006,
      "velocity": 125,
      "chip": "ym2612"
    },
    {
      "channel": 3,
      "note": 78,
      "start": 0.0168,
      "duration": 2.5736,
      "velocity": 114,
      "chip": "ym2612"
    },
    {
      "channel": 2,
      "note": 83,
      "start": 0.0204,
      "duration": 0.0088,
      "velocity": 125,
      "chip": "ym2612"
    },
    {
      "channel": 4,
      "note": 93,
      "start": 0.0216,
      "duration": 0.008,
      "velocity": 107,
      "chip": "ym2612"
    },
    {
      "channel": 2,
      "note": 90,
      "start": 0.0294,
      "duration": 0.0073,
      "velocity": 125,
      "chip": "ym2612"
    },
    {
      "channel": 4,
      "note": 95,
      "start": 0.0298,
      "duration": 2.7195,
      "velocity": 107,
      "chip": "ym2612"
    },
    {
      "channel": 2,
      "note": 78,
      "start": 0.0369,
      "duration": 0.0501,
      "velocity": 125,
      "chip": "ym2612"
    },
    {
      "channel": 2,
      "note": 83,
      "start": 0.0872,
      "duration": 0.0767,
      "velocity": 125,
      "chip": "ym2612"
    },
    {
      "channel": 2,
      "note": 90,
      "start": 0.1643,
      "duration": 0.1157,
      "velocity": 125,
      "chip": "ym2612"
    },
    {
      "channel": 2,
      "note": 78,
      "start": 0.2803,
      "duration": 0.1164,
      "velocity": 125,
      "chip": "ym2612"
    },
    {
      "channel": 2,
      "note": 83,
      "start": 0.3969,
      "duration": 0.1164,
      "velocity": 125,
      "chip": "ym2612"
    },
    {
      "channel": 2,
      "note": 91,
      "start": 0.5137,
      "duration": 0.1163,
      "velocity": 125,
      "chip": "ym2612"
    },
    {
      "channel": 2,
      "note": 79,
      "start": 0.6303,
      "duration": 0.1163,
      "velocity": 125,
      "chip": "ym2612"
    },
    {
      "channel": 2,
      "note": 91,
      "start": 0.7469,
      "duration": 0.1164,
      "velocity": 125,
      "chip": "ym2612"
    },
    {
      "channel": 2,
      "note": 71,
      "start": 0.8636,
      "duration": 0.0449,
      "velocity": 125,
      "chip": "ym2612"
    },
    {
      "channel": 2,
      "note": 74,
      "start": 0.9088,
      "duration": 0.1163,
      "velocity": 125,
      "chip": "ym2612"
    },
    {
      "channel": 2,
      "note": 91,
      "start": 1.0255,
      "duration": 0.1163,
      "velocity": 125,
      "chip": "ym2612"
    },
    {
      "channel": 2,
      "note": 79,
      "start": 1.1421,
      "duration": 0.1171,
      "velocity": 125,
      "chip": "ym2612"
    },
    {
      "channel": 2,
      "note": 90,
      "start": 1.2595,
      "duration": 0.1156,
      "velocity": 125,
      "chip": "ym2612"
    },
    {
      "channel": 2,
      "note": 78,
      "start": 1.3755,
      "duration": 0.1163,
      "velocity": 125,
      "chip": "ym2612"
    },
    {
      "channel": 2,
      "note": 83,
      "start": 1.4921,
      "duration": 0.117,
      "velocity": 125,
      "chip": "ym2612"
    },
    {
      "channel": 2,
      "note": 90,
      "start": 1.6095,
      "duration": 0.1158,
      "velocity": 125,
      "chip": "ym2612"
    },
    {
      "channel": 2,
      "note": 78,
      "start": 1.7255,
      "duration": 0.0446,
      "velocity": 125,
      "chip": "ym2612"
    },
    {
      "channel": 2,
      "note": 83,
      "start": 1.7704,
      "duration": 0.117,
      "velocity": 125,
      "chip": "ym2612"
    },
    {
      "channel": 2,
      "note": 90,
      "start": 1.8878,
      "duration": 0.1157,
      "velocity": 125,
      "chip": "ym2612"
    },
    {
      "channel": 2,
      "note": 78,
      "start": 2.0038,
      "duration": 0.1164,
      "velocity": 125,
      "chip": "ym2612"
    },
    {
      "channel": 2,
      "note": 83,
      "start": 2.1204,
      "duration": 0.1164,
      "velocity": 125,
      "chip": "ym2612"
    },
    {
      "channel": 2,
      "note": 91,
      "start": 2.2371,
      "duration": 0.1163,
      "velocity": 125,
      "chip": "ym2612"
    },
    {
      "channel": 2,
      "note": 79,
      "start": 2.3538,
      "duration": 0.1163,
      "velocity": 125,
      "chip": "ym2612"
    },
    {
      "channel": 2,
      "note": 91,
      "start": 2.4704,
      "duration": 0.1168,
      "velocity": 125,
      "chip": "ym2612"
    },
    {
      "channel": 0,
      "note": 59,
      "start": 2.5869,
      "duration": 0.3733,
      "velocity": 126,
      "chip": "ym2612"
    },
    {
      "channel": 1,
      "note": 93,
      "start": 2.5871,
      "duration": 0.0449,
      "velocity": 106,
      "chip": "ym2612"
    },
    {
      "channel": 2,
      "note": 93,
      "start": 2.5875,
      "duration": 0.0449,
      "velocity": 125,
      "chip": "ym2612"
    },
    {
      "channel": 3,
      "note": 76,
      "start": 2.5905,
      "duration": 0.0918,
      "velocity": 114,
      "chip": "ym2612"
    },
    {
      "channel": 1,
      "note": 95,
      "start": 2.6323,
      "duration": 0.3283,
      "velocity": 106,
      "chip": "ym2612"
    },
    {
      "channel": 2,
      "note": 79,
      "start": 2.6326,
      "duration": 0.1163,
      "velocity": 125,
      "chip": "ym2612"
    },
    {
      "channel": 3,
      "note": 78,
      "start": 2.6825,
      "duration": 0.2818,
      "velocity": 114,
      "chip": "ym2612"
    },
    {
      "channel": 2,
      "note": 91,
      "start": 2.7491,
      "duration": 0.0449,
      "velocity": 125,
      "chip": "ym2612"
    },
    {
      "channel": 4,
      "note": 93,
      "start": 2.7495,
      "duration": 0.045,
      "velocity": 107,
      "chip": "ym2612"
    },
    {
      "channel": 2,
      "note": 79,
      "start": 2.7943,
      "duration": 0.1171,
      "velocity": 125,
      "chip": "ym2612"
    },
    {
      "channel": 4,
      "note": 95,
      "start": 2.7948,
      "duration": 0.182,
      "velocity": 107,
      "chip": "ym2612"
    },
    {
      "channel": 2,
      "note": 90,
      "start": 2.9116,
      "duration": 0.0128,
      "velocity": 125,
      "chip": "ym2612"
    },
    {
      "channel": 2,
      "note": 78,
      "start": 2.9245,
      "duration": 0.0138,
      "velocity": 125,
      "chip": "ym2612"
    },
    {
      "channel": 2,
      "note": 83,
      "start": 2.9385,
      "duration": 0.0145,
      "velocity": 125,
      "chip": "ym2612"
    },
    {
      "channel": 2,
      "note": 90,
      "start": 2.9533,
      "duration": 0.0075,
      "velocity": 125,
      "chip": "ym2612"
    },
    {
      "channel": 0,
      "note": 59,
      "start": 2.9605,
      "duration": 1.409,
      "velocity": 83,
      "chip": "ym2612"
    },
    {
      "channel": 1,
      "note": 93,
      "start": 2.9607,
      "duration": 0.0076,
      "velocity": 106,
      "chip": "ym2612"
    },
    {
      "channel": 2,
      "note": 78,
      "start": 2.961,
      "duration": 0.0076,
      "velocity": 125,
      "chip": "ym2612"
    },
    {
      "channel": 3,
      "note": 76,
      "start": 2.9645,
      "duration": 0.0073,
      "velocity": 114,
      "chip": "ym2612"
    },
    {
      "channel": 1,
      "note": 95,
      "start": 2.9685,
      "duration": 1.402,
      "velocity": 112,
      "chip": "ym2612"
    },
    {
      "channel": 2,
      "note": 83,
      "start": 2.9688,
      "duration": 0.0075,
      "velocity": 125,
      "chip": "ym2612"
    },
    {
      "channel": 3,
      "note": 78,
      "start": 2.9719,
      "duration": 1.4043,
      "velocity": 112,
      "chip": "ym2612"
    },
    {
      "channel": 2,
      "note": 90,
      "start": 2.9766,
      "duration": 0.0074,
      "velocity": 125,
      "chip": "ym2612"
    },
    {
      "channel": 4,
      "note": 93,
      "start": 2.9771,
      "duration": 0.0072,
      "velocity": 107,
      "chip": "ym2612"
    },
    {
      "channel": 2,
      "note": 78,
      "start": 2.9841,
      "duration": 0.0511,
      "velocity": 125,
      "chip": "ym2612"
    },
    {
      "channel": 4,
      "note": 95,
      "start": 2.9846,
      "duration": 1.3876,
      "velocity": 107,
      "chip": "ym2612"
    },
    {
      "channel": 2,
      "note": 83,
      "start": 3.0354,
      "duration": 0.1163,
      "velocity": 125,
      "chip": "ym2612"
    },
    {
      "channel": 2,
      "note": 91,
      "start": 3.1521,
      "duration": 0.1163,
      "velocity": 125,
      "chip": "ym2612"
    },
    {
      "channel": 2,
      "note": 79,
      "start": 3.2687,
      "duration": 0.1163,
      "velocity": 125,
      "chip": "ym2612"
    },
    {
      "channel": 2,
      "note": 91,
      "start": 3.3854,
      "duration": 0.1164,
      "velocity": 125,
      "chip": "ym2612"
    },
    {
      "channel": 2,
      "note": 71,
      "start": 3.502,
      "duration": 0.0446,
      "velocity": 125,
      "chip": "ym2612"
    },
    {
      "channel": 2,
      "note": 74,
      "start": 3.547,
      "duration": 0.1163,
      "velocity": 125,
      "chip": "ym2612"
    },
    {
      "channel": 2,
      "note": 91,
      "start": 3.6637,
      "duration": 0.1163,
      "velocity": 125,
      "chip": "ym2612"
    },
    {
      "channel": 2,
      "note": 79,
      "start": 3.7803,
      "duration": 0.1171,
      "velocity": 125,
      "chip": "ym2612"
    },
    {
      "channel": 2,
      "note": 90,
      "start": 3.8978,
      "duration": 0.0444,
      "velocity": 125,
      "chip": "ym2612"
    },
    {
      "channel": 2,
      "note": 78,
      "start": 3.9425,
      "duration": 0.0081,
      "velocity": 125,
      "chip": "ym2612"
    },
    {
      "channel": 2,
      "note": 83,
      "start": 3.951,
      "duration": 0.0452,
      "velocity": 125,
      "chip": "ym2612"
    },
    {
      "channel": 2,
      "note": 90,
      "start": 3.9965,
      "duration": 0.044,
      "velocity": 125,
      "chip": "ym2612"
    },
    {
      "channel": 2,
      "note": 78,
      "start": 4.0408,
      "duration": 0.0133,
      "velocity": 125,
      "chip": "ym2612"
    },
    {
      "channel": 2,
      "note": 83,
      "start": 4.0542,
      "duration": 0.0145,
      "velocity": 125,
      "chip": "ym2612"
    },
    {
      "channel": 2,
      "note": 90,
      "start": 4.0689,
      "duration": 0.044,
      "velocity": 125,
      "chip": "ym2612"
    },
    {
      "channel": 2,
      "note": 78,
      "start": 4.1132,
      "duration": 0.0069,
      "velocity": 125,
      "chip": "ym2612"
    },
    {
      "channel": 2,
      "note": 83,
      "start": 4.1203,
      "duration": 0.0452,
      "velocity": 125,
      "chip": "ym2612"
    },
    {
      "channel": 2,
      "note": 91,
      "start": 4.1659,
      "duration": 0.0079,
      "velocity": 125,
      "chip": "ym2612"
    },
    {
      "channel": 2,
      "note": 79,
      "start": 4.174,
      "duration": 0.0447,
      "velocity": 125,
      "chip": "ym2612"
    },
    {
      "channel": 2,
      "note": 91,
      "start": 4.219,
      "duration": 0.1165,
      "velocity": 125,
      "chip": "ym2612"
    },
    {
      "channel": 2,
      "note": 93,
      "start": 4.3356,
      "duration": 0.0073,
      "velocity": 125,
      "chip": "ym2612"
    },
    {
      "channel": 2,
      "note": 79,
      "start": 4.3432,
      "duration": 0.0078,
      "velocity": 125,
      "chip": "ym2612"
    },
    {
      "channel": 2,
      "note": 91,
      "start": 4.3512,
      "duration": 0.0085,
      "velocity": 125,
      "chip": "ym2612"
    },
    {
      "channel": 2,
      "note": 79,
      "start": 4.3599,
      "duration": 0.0118,
      "velocity": 125,
      "chip": "ym2612"
    },
    {
      "channel": 1,
      "note": 95,
      "start": 4.3708,
      "duration": 1.0985,
      "velocity": 112,
      "chip": "ym2612"
    },
    {
      "channel": 2,
      "note": 78,
      "start": 4.372,
      "duration": 0.0102,
      "velocity": 125,
      "chip": "ym2612"
    },
    {
      "channel": 3,
      "note": 86,
      "start": 4.3763,
      "duration": 1.0963,
      "velocity": 112,
      "chip": "ym2612"
    },
    {
      "channel": 4,
      "note": 78,
      "start": 4.3775,
      "duration": 1.0953,
      "velocity": 112,
      "chip": "ym2612"
    },
    {
      "channel": 2,
      "note": 83,
      "start": 4.3824,
      "duration": 0.0073,
      "velocity": 125,
      "chip": "ym2612"
    },
    {
      "channel": 2,
      "note": 90,
      "start": 4.3898,
      "duration": 0.0069,
      "velocity": 125,
      "chip": "ym2612"
    },
    {
      "channel": 2,
      "note": 78,
      "start": 4.3969,
      "duration": 0.007,
      "velocity": 125,
      "chip": "ym2612"
    },
    {
      "channel": 0,
      "note": 47,
      "start": 4.4038,
      "duration": 0.3617,
      "velocity": 83,
      "chip": "ym2612"
    },
    {
      "channel": 2,
      "note": 83,
      "start": 4.4042,
      "duration": 0.0829,
      "velocity": 125,
      "chip": "ym2612"
    },
    {
      "channel": 2,
      "note": 78,
      "start": 4.4874,
      "duration": 0.1164,
      "velocity": 125,
      "chip": "ym2612"
    },
    {
      "channel": 2,
      "note": 90,
      "start": 4.6041,
      "duration": 0.1164,
      "velocity": 125,
      "chip": "ym2612"
    },
    {
      "channel": 2,
      "note": 78,
      "start": 4.7207,
      "duration": 0.0451,
      "velocity": 125,
      "chip": "ym2612"
    },
    {
      "channel": 2,
      "note": 78,
      "start": 4.7661,
      "duration": 0.1162,
      "velocity": 125,
      "chip": "ym2612"
    },
    {
      "channel": 2,
      "note": 83,
      "start": 4.8827,
      "duration": 0.1163,
      "velocity": 125,
      "chip": "ym2612"
    },
    {
      "channel": 2,
      "note": 90,
      "start": 4.9993,
      "duration": 0.1163,
      "velocity": 125,
      "chip": "ym2612"
    },
    {
      "channel": 2,
      "note": 78,
      "start": 5.116,
      "duration": 0.1167,
      "velocity": 125,
      "chip": "ym2612"
    },
    {
      "channel": 0,
      "note": 47,
      "start": 5.2325,
      "duration": 0.2367,
      "velocity": 83,
      "chip": "ym2612"
    },
    {
      "channel": 2,
      "note": 90,
      "start": 5.2329,
      "duration": 0.0077,
      "velocity": 125,
      "chip": "ym2612"
    },
    {
      "channel": 2,
      "note": 78,
      "start": 5.2408,
      "duration": 0.0076,
      "velocity": 125,
      "chip": "ym2612"
    },
    {
      "channel": 2,
      "note": 83,
      "start": 5.2486,
      "duration": 0.1041,
      "velocity": 125,
      "chip": "ym2612"
    },
    {
      "channel": 2,
      "note": 90,
      "start": 5.3529,
      "duration": 0.1166,
      "velocity": 125,
      "chip": "ym2612"
    },
    {
      "channel": 1,
      "note": 98,
      "start": 5.4695,
      "duration": 0.8817,
      "velocity": 112,
      "chip": "ym2612"
    },
    {
      "channel": 2,
      "note": 79,
      "start": 5.4697,
      "duration": 0.045,
      "velocity": 125,
      "chip": "ym2612"
    },
    {
      "channel": 3,
      "note": 83,
      "start": 5.4728,
      "duration": 0.8822,
      "velocity": 112,
      "chip": "ym2612"
    },
    {
      "channel": 4,
      "note": 79,
      "start": 5.4731,
      "duration": 0.8821,
      "velocity": 112,
      "chip": "ym2612"
    },
    {
      "channel": 2,
      "note": 83,
      "start": 5.515,
      "duration": 0.1163,
      "velocity": 125,
      "chip": "ym2612"
    },
    {
      "channel": 2,
      "note": 91,
      "start": 5.6317,
      "duration": 0.1163,
      "velocity": 125,
      "chip": "ym2612"
    },
    {
      "channel": 2,
      "note": 79,
      "start": 5.7483,
      "duration": 0.1167,
      "velocity": 125,
      "chip": "ym2612"
    },
    {
      "channel": 0,
      "note": 47,
      "start": 5.8648,
      "duration": 0.1656,
      "velocity": 83,
      "chip": "ym2612"
    },
    {
      "channel": 2,
      "note": 83,
      "start": 5.8653,
      "duration": 0.0078,
      "velocity": 125,
      "chip": "ym2612"
    },
    {
      "channel": 2,
      "note": 91,
      "start": 5.8734,
      "duration": 0.0077,
      "velocity": 125,
      "chip": "ym2612"
    },
    {
      "channel": 2,
      "note": 79,
      "start": 5.8813,
      "duration": 0.104,
      "velocity": 125,
      "chip": "ym2612"
    },
    {
      "channel": 2,
      "note": 91,
      "start": 5.9855,
      "duration": 0.0451,
      "velocity": 125,
      "chip": "ym2612"
    },
    {
      "channel": 2,
      "note": 79,
      "start": 6.031,
      "duration": 0.1163,
      "velocity": 125,
      "chip": "ym2612"
    },
    {
      "channel": 2,
      "note": 83,
      "start": 6.1476,
      "duration": 0.0075,
      "velocity": 125,
      "chip": "ym2612"
    },
    {
      "channel": 2,
      "note": 91,
      "start": 6.1552,
      "duration": 0.0449,
      "velocity": 125,
      "chip": "ym2612"
    },
    {
      "channel": 2,
      "note": 79,
      "start": 6.2004,
      "duration": 0.1166,
      "velocity": 125,
      "chip": "ym2612"
    },
    {
      "channel": 0,
      "note": 47,
      "start": 6.3169,
      "duration": 0.0341,
      "velocity": 83,
      "chip": "ym2612"
    },
    {
      "channel": 2,
      "note": 83,
      "start": 6.3172,
      "duration": 0.0077,
      "velocity": 125,
      "chip": "ym2612"
    },
    {
      "channel": 2,
      "note": 91,
      "start": 6.3253,
      "duration": 0.0081,
      "velocity": 125,
      "chip": "ym2612"
    },
    {
      "channel": 2,
      "note": 79,
      "start": 6.3336,
      "duration": 0.0087,
      "velocity": 125,
      "chip": "ym2612"
    },
    {
      "channel": 2,
      "note": 83,
      "start": 6.3426,
      "duration": 0.0088,
      "velocity": 125,
      "chip": "ym2612"
    },
    {
      "channel": 1,
      "note": 100,
      "start": 6.3513,
      "duration": 1.1093,
      "velocity": 112,
      "chip": "ym2612"
    },
    {
      "channel": 2,
      "note": 79,
      "start": 6.3517,
      "duration": 0.0453,
      "velocity": 125,
      "chip": "ym2612"
    },
    {
      "channel": 3,
      "note": 85,
      "start": 6.3551,
      "duration": 1.1089,
      "velocity": 112,
      "chip": "ym2612"
    },
    {
      "channel": 4,
      "note": 81,
      "start": 6.3555,
      "duration": 1.1088,
      "velocity": 112,
      "chip": "ym2612"
    },
    {
      "channel": 2,
      "note": 88,
      "start": 6.3973,
      "duration": 0.1164,
      "velocity": 125,
      "chip": "ym2612"
    },
    {
      "channel": 2,
      "note": 91,
      "start": 6.5139,
      "duration": 0.0136,
      "velocity": 125,
      "chip": "ym2612"
    },
    {
      "channel": 2,
      "note": 79,
      "start": 6.5277,
      "duration": 0.0142,
      "velocity": 125,
      "chip": "ym2612"
    },
    {
      "channel": 0,
      "note": 47,
      "start": 6.5418,
      "duration": 0.1652,
      "velocity": 83,
      "chip": "ym2612"
    },
    {
      "channel": 2,
      "note": 85,
      "start": 6.5422,
      "duration": 0.0077,
      "velocity": 125,
      "chip": "ym2612"
    },
    {
      "channel": 2,
      "note": 91,
      "start": 6.5502,
      "duration": 0.0077,
      "velocity": 125,
      "chip": "ym2612"
    },
    {
      "channel": 2,
      "note": 79,
      "start": 6.5581,
      "duration": 0.1041,
      "velocity": 125,
      "chip": "ym2612"
    },
    {
      "channel": 2,
      "note": 88,
      "start": 6.6624,
      "duration": 0.0449,
      "velocity": 125,
      "chip": "ym2612"
    },
    {
      "channel": 2,
      "note": 79,
      "start": 6.7076,
      "duration": 0.1162,
      "velocity": 125,
      "chip": "ym2612"
    },
    {
      "channel": 2,
      "note": 85,
      "start": 6.8242,
      "duration": 0.1163,
      "velocity": 125,
      "chip": "ym2612"
    },
    {
      "channel": 2,
      "note": 91,
      "start": 6.9409,
      "duration": 0.1163,
      "velocity": 125,
      "chip": "ym2612"
    },
    {
      "channel": 2,
      "note": 79,
      "start": 7.0575,
      "duration": 0.1167,
      "velocity": 125,
      "chip": "ym2612"
    },
    {
      "channel": 0,
      "note": 47,
      "start": 7.174,
      "duration": 0.2865,
      "velocity": 83,
      "chip": "ym2612"
    },
    {
      "channel": 2,
      "note": 88,
      "start": 7.1744,
      "duration": 0.0077,
      "velocity": 125,
      "chip": "ym2612"
    },
    {
      "channel": 2,
      "note": 91,
      "start": 7.1824,
      "duration": 0.045,
      "velocity": 125,
      "chip": "ym2612"
    },
    {
      "channel": 2,
      "note": 73,
      "start": 7.2277,
      "duration": 0.1164,
      "velocity": 125,
      "chip": "ym2612"
    },
    {
      "channel": 2,
      "note": 91,
      "start": 7.3444,
      "duration": 0.1165,
      "velocity": 125,
      "chip": "ym2612"
    },
    {
      "channel": 1,
      "note": 93,
      "start": 7.4609,
      "duration": 0.9014,
      "velocity": 112,
      "chip": "ym2612"
    },
    {
      "channel": 2,
      "note": 76,
      "start": 7.4611,
      "duration": 0.0451,
      "velocity": 125,
      "chip": "ym2612"
    },
    {
      "channel": 3,
      "note": 85,
      "start": 7.4642,
      "duration": 0.904,
      "velocity": 112,
      "chip": "ym2612"
    },
    {
      "channel": 4,
      "note": 76,
      "start": 7.4646,
      "duration": 0.9039,
      "velocity": 112,
      "chip": "ym2612"
    },
    {
      "channel": 2,
      "note": 93,
      "start": 7.5065,
      "duration": 0.1163,
      "velocity": 125,
      "chip": "ym2612"
    },
    {
      "channel": 2,
      "note": 88,
      "start": 7.6231,
      "duration": 0.1163,
      "velocity": 125,
      "chip": "ym2612"
    },
    {
      "channel": 2,
      "note": 76,
      "start": 7.7398,
      "duration": 0.1167,
      "velocity": 125,
      "chip": "ym2612"
    },
    {
      "channel": 0,
      "note": 47,
      "start": 7.8563,
      "duration": 0.1649,
      "velocity": 83,
      "chip": "ym2612"
    },
    {
      "channel": 2,
      "note": 93,
      "start": 7.8568,
      "duration": 0.0079,
      "velocity": 125,
      "chip": "ym2612"
    },
    {
      "channel": 2,
      "note": 85,
      "start": 7.8649,
      "duration": 0.0073,
      "velocity": 125,
      "chip": "ym2612"
    },
    {
      "channel": 2,
      "note": 76,
      "start": 7.8724,
      "duration": 0.104,
      "velocity": 125,
      "chip": "ym2612"
    },
    {
      "channel": 2,
      "note": 88,
      "start": 7.9766,
      "duration": 0.0449,
      "velocity": 125,
      "chip": "ym2612"
    },
    {
      "channel": 2,
      "note": 76,
      "start": 8.0219,
      "duration": 0.1163,
      "velocity": 125,
      "chip": "ym2612"
    },
    {
      "channel": 2,
      "note": 93,
      "start": 8.1384,
      "duration": 0.0074,
      "velocity": 125,
      "chip": "ym2612"
    },
    {
      "channel": 2,
      "note": 88,
      "start": 8.1461,
      "duration": 0.0446,
      "velocity": 125,
      "chip": "ym2612"
    },
    {
      "channel": 2,
      "note": 76,
      "start": 8.191,
      "duration": 0.1166,
      "velocity": 125,
      "chip": "ym2612"
    },
    {
      "channel": 0,
      "note": 47,
      "start": 8.3075,
      "duration": 0.0545,
      "velocity": 94,
      "chip": "ym2612"
    },
    {
      "channel": 2,
      "note": 85,
      "start": 8.3078,
      "duration": 0.0075,
      "velocity": 125,
      "chip": "ym2612"
    },
    {
      "channel": 2,
      "note": 76,
      "start": 8.3156,
      "duration": 0.0077,
      "velocity": 125,
      "chip": "ym2612"
    },
    {
      "channel": 2,
      "note": 79,
      "start": 8.3235,
      "duration": 0.0281,
      "velocity": 125,
      "chip": "ym2612"
    },
    {
      "channel": 2,
      "note": 88,
      "start": 8.3519,
      "duration": 0.0107,
      "velocity": 125,
      "chip": "ym2612"
    },
    {
      "channel": 0,
      "note": 47,
      "start": 8.3622,
      "duration": 0.0109,
      "velocity": 94,
      "chip": "ym2612"
    },
    {
      "channel": 1,
      "note": 95,
      "start": 8.3625,
      "duration": 1.1001,
      "velocity": 112,
      "chip": "ym2612"
    },
    {
      "channel": 2,
      "note": 78,
      "start": 8.3629,
      "duration": 0.0106,
      "velocity": 125,
      "chip": "ym2612"
    },
    {
      "channel": 3,
      "note": 86,
      "start": 8.3684,
      "duration": 1.0977,
      "velocity": 112,
      "chip": "ym2612"
    },
    {
      "channel": 4,
      "note": 78,
      "start": 8.3688,
      "duration": 1.0976,
      "velocity": 112,
      "chip": "ym2612"
    },
    {
      "channel": 0,
      "note": 59,
      "start": 8.3733,
      "duration": 0.0086,
      "velocity": 94,
      "chip": "ym2612"
    },
    {
      "channel": 2,
      "note": 83,
      "start": 8.3738,
      "duration": 0.0084,
      "velocity": 125,
      "chip": "ym2612"
    },
    {
      "channel": 0,
      "note": 47,
      "start": 8.382,
      "duration": 0.016,
      "velocity": 94,
      "chip": "ym2612"
    },
    {
      "channel": 2,
      "note": 90,
      "start": 8.3824,
      "duration": 0.0077,
      "velocity": 125,
      "chip": "ym2612"
    },
    {
      "channel": 2,
      "note": 78,
      "start": 8.3903,
      "duration": 0.008,
      "velocity": 125,
      "chip": "ym2612"
    },
    {
      "channel": 0,
      "note": 47,
      "start": 8.3982,
      "duration": 0.1985,
      "velocity": 94,
      "chip": "ym2612"
    },
    {
      "channel": 2,
      "note": 83,
      "start": 8.3985,
      "duration": 0.0817,
      "velocity": 125,
      "chip": "ym2612"
    },
    {
      "channel": 2,
      "note": 78,
      "start": 8.4805,
      "duration": 0.1164,
      "velocity": 125,
      "chip": "ym2612"
    },
    {
      "channel": 2,
      "note": 90,
      "start": 8.5972,
      "duration": 0.1164,
      "velocity": 125,
      "chip": "ym2612"
    },
    {
      "channel": 2,
      "note": 78,
      "start": 8.7139,
      "duration": 0.0449,
      "velocity": 125,
      "chip": "ym2612"
    },
    {
      "channel": 0,
      "note": 47,
      "start": 8.7585,
      "duration": 0.1164,
      "velocity": 94,
      "chip": "ym2612"
    },
    {
      "channel": 2,
      "note": 78,
      "start": 8.759,
      "duration": 0.1163,
      "velocity": 125,
      "chip": "ym2612"
    },
    {
      "channel": 0,
      "note": 47,
      "start": 8.8752,
      "duration": 0.1164,
      "velocity": 94,
      "chip": "ym2612"
    },
    {
      "channel": 2,
      "note": 83,
      "start": 8.8757,
      "duration": 0.1163,
      "velocity": 125,
      "chip": "ym2612"
    },
    {
      "channel": 0,
      "note": 49,
      "start": 8.9918,
      "duration": 0.1164,
      "velocity": 94,
      "chip": "ym2612"
    },
    {
      "channel": 2,
      "note": 90,
      "start": 8.9924,
      "duration": 0.1163,
      "velocity": 125,
      "chip": "ym2612"
    },
    {
      "channel": 0,
      "note": 49,
      "start": 9.1085,
      "duration": 0.1165,
      "velocity": 94,
      "chip": "ym2612"
    },
    {
      "channel": 2,
      "note": 78,
      "start": 9.109,
      "duration": 0.1164,
      "velocity": 125,
      "chip": "ym2612"
    },
    {
      "channel": 0,
      "note": 50,
      "start": 9.2253,
      "duration": 0.0081,
      "velocity": 94,
      "chip": "ym2612"
    },
    {
      "channel": 2,
      "note": 90,
      "start": 9.2256,
      "duration": 0.0082,
      "velocity": 125,
      "chip": "ym2612"
    },
    {
      "channel": 0,
      "note": 50,
      "start": 9.2336,
      "duration": 0.0081,
      "velocity": 94,
      "chip": "ym2612"
    },
    {
      "channel": 2,
      "note": 78,
      "start": 9.2339,
      "duration": 0.008,
      "velocity": 125,
      "chip": "ym2612"
    },
    {
      "channel": 0,
      "note": 52,
      "start": 9.2418,
      "duration": 0.1039,
      "velocity": 94,
      "chip": "ym2612"
    },
    {
      "channel": 2,
      "note": 83,
      "start": 9.2422,
      "duration": 0.104,
      "velocity": 125,
      "chip": "ym2612"
    },
    {
      "channel": 0,
      "note": 47,
      "start": 9.3459,
      "duration": 0.1166,
      "velocity": 94,
      "chip": "ym2612"
    },
    {
      "channel": 2,
      "note": 90,
      "start": 9.3465,
      "duration": 0.1164,
      "velocity": 125,
      "chip": "ym2612"
    },
    {
      "channel": 1,
      "note": 98,
      "start": 9.4628,
      "duration": 0.8798,
      "velocity": 112,
      "chip": "ym2612"
    },
    {
      "channel": 2,
      "note": 79,
      "start": 9.4631,
      "duration": 0.0451,
      "velocity": 125,
      "chip": "ym2612"
    },
    {
      "channel": 3,
      "note": 83,
      "start": 9.4663,
      "duration": 0.8804,
      "velocity": 112,
      "chip": "ym2612"
    },
    {
      "channel": 4,
      "note": 79,
      "start": 9.4665,
      "duration": 0.8805,
      "velocity": 112,
      "chip": "ym2612"
    },
    {
      "channel": 0,
      "note": 59,
      "start": 9.508,
      "duration": 0.1164,
      "velocity": 94,
      "chip": "ym2612"
    },
    {
      "channel": 2,
      "note": 83,
      "start": 9.5085,
      "duration": 0.1163,
      "velocity": 125,
      "chip": "ym2612"
    },
    {
      "channel": 0,
      "note": 47,
      "start": 9.6247,
      "duration": 0.2332,
      "velocity": 94,
      "chip": "ym2612"
    },
    {
      "channel": 2,
      "note": 91,
      "start": 9.6252,
      "duration": 0.1162,
      "velocity": 125,
      "chip": "ym2612"
    },
    {
      "channel": 2,
      "note": 79,
      "start": 9.7417,
      "duration": 0.1166,
      "velocity": 125,
      "chip": "ym2612"
    },
    {
      "channel": 0,
      "note": 47,
      "start": 9.8581,
      "duration": 0.0156,
      "velocity": 94,
      "chip": "ym2612"
    },
    {
      "channel": 2,
      "note": 83,
      "start": 9.8585,
      "duration": 0.0074,
      "velocity": 125,
      "chip": "ym2612"
    },
    {
      "channel": 2,
      "note": 91,
      "start": 9.8661,
      "duration": 0.0078,
      "velocity": 125,
      "chip": "ym2612"
    },
    {
      "channel": 2,
      "note": 79,
      "start": 9.8742,
      "duration": 0.104,
      "velocity": 125,
      "chip": "ym2612"
    },
    {
      "channel": 2,
      "note": 91,
      "start": 9.9784,
      "duration": 0.0449,
      "velocity": 125,
      "chip": "ym2612"
    },
    {
      "channel": 0,
      "note": 50,
      "start": 10.0231,
      "duration": 0.1247,
      "velocity": 94,
      "chip": "ym2612"
    },
    {
      "channel": 2,
      "note": 79,
      "start": 10.0236,
      "duration": 0.1162,
      "velocity": 125,
      "chip": "ym2612"
    },
    {
      "channel": 2,
      "note": 83,
      "start": 10.14,
      "duration": 0.0081,
      "velocity": 125,
      "chip": "ym2612"
    },
    {
      "channel": 2,
      "note": 91,
      "start": 10.1483,
      "duration": 0.0451,
      "velocity": 125,
      "chip": "ym2612"
    },
    {
      "channel": 0,
      "note": 50,
      "start": 10.1932,
      "duration": 0.1165,
      "velocity": 94,
      "chip": "ym2612"
    },
    {
      "channel": 2,
      "note": 79,
      "start": 10.1937,
      "duration": 0.1163,
      "velocity": 125,
      "chip": "ym2612"
    },
    {
      "channel": 2,
      "note": 83,
      "start": 10.3102,
      "duration": 0.0068,
      "velocity": 125,
      "chip": "ym2612"
    },
    {
      "channel": 0,
      "note": 50,
      "start": 10.3169,
      "duration": 0.008,
      "velocity": 94,
      "chip": "ym2612"
    },
    {
      "channel": 2,
      "note": 91,
      "start": 10.3172,
      "duration": 0.008,
      "velocity": 125,
      "chip": "ym2612"
    },
    {
      "channel": 0,
      "note": 52,
      "start": 10.3251,
      "duration": 0.0172,
      "velocity": 94,
      "chip": "ym2612"
    },
    {
      "channel": 2,
      "note": 79,
      "start": 10.3255,
      "duration": 0.0082,
      "velocity": 125,
      "chip": "ym2612"
    },
    {
      "channel": 2,
      "note": 83,
      "start": 10.3338,
      "duration": 0.0091,
      "velocity": 125,
      "chip": "ym2612"
    },
    {
      "channel": 0,
      "note": 47,
      "start": 10.3426,
      "duration": 0.0457,
      "velocity": 94,
      "chip": "ym2612"
    },
    {
      "channel": 1,
      "note": 100,
      "start": 10.3429,
      "duration": 1.1094,
      "velocity": 112,
      "chip": "ym2612"
    },
    {
      "channel": 2,
      "note": 81,
      "start": 10.3432,
      "duration": 0.0456,
      "velocity": 125,
      "chip": "ym2612"
    },
    {
      "channel": 3,
      "note": 85,
      "start": 10.3469,
      "duration": 1.716,
      "velocity": 112,
      "chip": "ym2612"
    },
    {
      "channel": 4,
      "note": 81,
      "start": 10.3473,
      "duration": 1.7159,
      "velocity": 112,
      "chip": "ym2612"
    },
    {
      "channel": 0,
      "note": 59,
      "start": 10.3886,
      "duration": 0.1165,
      "velocity": 94,
      "chip": "ym2612"
    },
    {
      "channel": 2,
      "note": 88,
      "start": 10.3891,
      "duration": 0.1163,
      "velocity": 125,
      "chip": "ym2612"
    },
    {
      "channel": 0,
      "note": 47,
      "start": 10.5053,
      "duration": 0.0278,
      "velocity": 94,
      "chip": "ym2612"
    },
    {
      "channel": 2,
      "note": 93,
      "start": 10.5058,
      "duration": 0.0137,
      "velocity": 125,
      "chip": "ym2612"
    },
    {
      "channel": 2,
      "note": 81,
      "start": 10.5196,
      "duration": 0.0139,
      "velocity": 125,
      "chip": "ym2612"
    },
    {
      "channel": 0,
      "note": 47,
      "start": 10.5333,
      "duration": 0.0155,
      "velocity": 94,
      "chip": "ym2612"
    },
    {
      "channel": 2,
      "note": 85,
      "start": 10.5338,
      "duration": 0.0076,
      "velocity": 125,
      "chip": "ym2612"
    },
    {
      "channel": 2,
      "note": 81,
      "start": 10.5417,
      "duration": 0.0073,
      "velocity": 125,
      "chip": "ym2612"
    },
    {
      "channel": 2,
      "note": 93,
      "start": 10.5491,
      "duration": 0.1039,
      "velocity": 125,
      "chip": "ym2612"
    },
    {
      "channel": 2,
      "note": 81,
      "start": 10.6533,
      "duration": 0.0451,
      "velocity": 125,
      "chip": "ym2612"
    },
    {
      "channel": 0,
      "note": 47,
      "start": 10.6981,
      "duration": 0.1164,
      "velocity": 94,
      "chip": "ym2612"
    },
    {
      "channel": 2,
      "note": 73,
      "start": 10.6986,
      "duration": 0.1163,
      "velocity": 125,
      "chip": "ym2612"
    },
    {
      "channel": 0,
      "note": 47,
      "start": 10.8148,
      "duration": 0.1164,
      "velocity": 94,
      "chip": "ym2612"
    },
    {
      "channel": 2,
      "note": 88,
      "start": 10.8153,
      "duration": 0.1163,
      "velocity": 125,
      "chip": "ym2612"
    },
    {
      "channel": 0,
      "note": 49,
      "start": 10.9314,
      "duration": 0.1164,
      "velocity": 94,
      "chip": "ym2612"
    },
    {
      "channel": 2,
      "note": 93,
      "start": 10.932,
      "duration": 0.1163,
      "velocity": 125,
      "chip": "ym2612"
    },
    {
      "channel": 0,
      "note": 49,
      "start": 11.0481,
      "duration": 0.1165,
      "velocity": 94,
      "chip": "ym2612"
    },
    {
      "channel": 2,
      "note": 81,
      "start": 11.0486,
      "duration": 0.1164,
      "velocity": 125,
      "chip": "ym2612"
    },
    {
      "channel": 0,
      "note": 50,
      "start": 11.1649,
      "duration": 0.0084,
      "velocity": 94,
      "chip": "ym2612"
    },
    {
      "channel": 2,
      "note": 88,
      "start": 11.1651,
      "duration": 0.0085,
      "velocity": 125,
      "chip": "ym2612"
    },
    {
      "channel": 0,
      "note": 50,
      "start": 11.1736,
      "duration": 0.0451,
      "velocity": 94,
      "chip": "ym2612"
    },
    {
      "channel": 2,
      "note": 81,
      "start": 11.1739,
      "duration": 0.0451,
      "velocity": 125,
      "chip": "ym2612"
    },
    {
      "channel": 0,
      "note": 52,
      "start": 11.2189,
      "duration": 0.1164,
      "velocity": 94,
      "chip": "ym2612"
    },
    {
      "channel": 2,
      "note": 85,
      "start": 11.2194,
      "duration": 0.1163,
      "velocity": 125,
      "chip": "ym2612"
    },
    {
      "channel": 0,
      "note": 47,
      "start": 11.3355,
      "duration": 0.1165,
      "velocity": 94,
      "chip": "ym2612"
    },
    {
      "channel": 2,
      "note": 93,
      "start": 11.3361,
      "duration": 0.1165,
      "velocity": 125,
      "chip": "ym2612"
    },
    {
      "channel": 0,
      "note": 55,
      "start": 11.4522,
      "duration": 0.1618,
      "velocity": 94,
      "chip": "ym2612"
    },
    {
      "channel": 1,
      "note": 105,
      "start": 11.4525,
      "duration": 0.9024,
      "velocity": 112,
      "chip": "ym2612"
    },
    {
      "channel": 2,
      "note": 76,
      "start": 11.4528,
      "duration": 0.0449,
      "velocity": 125,
      "chip": "ym2612"
    },
    {
      "channel": 2,
      "note": 81,
      "start": 11.498,
      "duration": 0.1163,
      "velocity": 125,
      "chip": "ym2612"
    },
    {
      "channel": 2,
      "note": 88,
      "start": 11.6147,
      "duration": 0.1165,
      "velocity": 125,
      "chip": "ym2612"
    },
    {
      "channel": 0,
      "note": 50,
      "start": 11.731,
      "duration": 0.1165,
      "velocity": 94,
      "chip": "ym2612"
    },
    {
      "channel": 2,
      "note": 76,
      "start": 11.7315,
      "duration": 0.1163,
      "velocity": 125,
      "chip": "ym2612"
    },
    {
      "channel": 2,
      "note": 81,
      "start": 11.8479,
      "duration": 0.007,
      "velocity": 125,
      "chip": "ym2612"
    },
    {
      "channel": 0,
      "note": 50,
      "start": 11.8547,
      "duration": 0.0076,
      "velocity": 94,
      "chip": "ym2612"
    },
    {
      "channel": 2,
      "note": 85,
      "start": 11.855,
      "duration": 0.0075,
      "velocity": 125,
      "chip": "ym2612"
    },
    {
      "channel": 0,
      "note": 55,
      "start": 11.8624,
      "duration": 0.15,
      "velocity": 94,
      "chip": "ym2612"
    },
    {
      "channel": 2,
      "note": 76,
      "start": 11.8628,
      "duration": 0.1045,
      "velocity": 125,
      "chip": "ym2612"
    },
    {
      "channel": 2,
      "note": 88,
      "start": 11.9674,
      "duration": 0.0455,
      "velocity": 125,
      "chip": "ym2612"
    },
    {
      "channel": 0,
      "note": 57,
      "start": 12.0127,
      "duration": 0.1245,
      "velocity": 94,
      "chip": "ym2612"
    },
    {
      "channel": 2,
      "note": 78,
      "start": 12.0132,
      "duration": 0.1162,
      "velocity": 125,
      "chip": "ym2612"
    },
    {
      "channel": 3,
      "note": 85,
      "start": 12.0631,
      "duration": 0.2989,
      "velocity": 126,
      "chip": "ym2612"
    },
    {
      "channel": 4,
      "note": 85,
      "start": 12.0635,
      "duration": 0.2939,
      "velocity": 107,
      "chip": "ym2612"
    },
    {
      "channel": 2,
      "note": 81,
      "start": 12.1296,
      "duration": 0.0079,
      "velocity": 125,
      "chip": "ym2612"
    },
    {
      "channel": 2,
      "note": 88,
      "start": 12.1377,
      "duration": 0.0451,
      "velocity": 125,
      "chip": "ym2612"
    },
    {
      "channel": 0,
      "note": 52,
      "start": 12.1827,
      "duration": 0.1165,
      "velocity": 94,
      "chip": "ym2612"
    },
    {
      "channel": 2,
      "note": 78,
      "start": 12.1832,
      "duration": 0.1162,
      "velocity": 125,
      "chip": "ym2612"
    },
    {
      "channel": 2,
      "note": 81,
      "start": 12.2996,
      "duration": 0.0078,
      "velocity": 125,
      "chip": "ym2612"
    },
    {
      "channel": 0,
      "note": 45,
      "start": 12.3072,
      "duration": 0.0076,
      "velocity": 94,
      "chip": "ym2612"
    },
    {
      "channel": 2,
      "note": 93,
      "start": 12.3075,
      "duration": 0.0076,
      "velocity": 125,
      "chip": "ym2612"
    },
    {
      "channel": 0,
      "note": 57,
      "start": 12.3149,
      "duration": 0.0283,
      "velocity": 94,
      "chip": "ym2612"
    },
    {
      "channel": 2,
      "note": 85,
      "start": 12.3153,
      "duration": 0.0284,
      "velocity": 125,
      "chip": "ym2612"
    },
    {
      "channel": 0,
      "note": 52,
      "start": 12.3434,
      "duration": 0.0101,
      "velocity": 94,
      "chip": "ym2612"
    },
    {
      "channel": 2,
      "note": 97,
      "start": 12.3439,
      "duration": 0.012,
      "velocity": 107,
      "chip": "ym2612"
    },
    {
      "channel": 0,
      "note": 47,
      "start": 12.3538,
      "duration": 0.0151,
      "velocity": 94,
      "chip": "ym2612"
    },
    {
      "channel": 1,
      "note": 95,
      "start": 12.355,
      "duration": 0.0903,
      "velocity": 112,
      "chip": "ym2612"
    },
    {
      "channel": 2,
      "note": 83,
      "start": 12.3561,
      "duration": 0.0894,
      "velocity": 107,
      "chip": "ym2612"
    },
    {
      "channel": 4,
      "note": 83,
      "start": 12.3577,
      "duration": 0.0881,
      "velocity": 107,
      "chip": "ym2612"
    },
    {
      "channel": 3,
      "note": 95,
      "start": 12.3622,
      "duration": 0.133,
      "velocity": 126,
      "chip": "ym2612"
    },
    {
      "channel": 0,
      "note": 54,
      "start": 12.369,
      "duration": 0.0759,
      "velocity": 94,
      "chip": "ym2612"
    },
    {
      "channel": 0,
      "note": 47,
      "start": 12.4452,
      "duration": 0.1164,
      "velocity": 94,
      "chip": "ym2612"
    },
    {
      "channel": 0,
      "note": 47,
      "start": 12.5619,
      "duration": 0.1165,
      "velocity": 94,
      "chip": "ym2612"
    },
    {
      "channel": 0,
      "note": 51,
      "start": 12.6786,
      "duration": 0.011,
      "velocity": 94,
      "chip": "ym2612"
    },
    {
      "channel": 1,
      "note": 66,
      "start": 12.6789,
      "duration": 0.1649,
      "velocity": 112,
      "chip": "ym2612"
    },
    {
      "channel": 2,
      "note": 54,
      "start": 12.6801,
      "duration": 0.164,
      "velocity": 111,
      "chip": "ym2612"
    },
    {
      "channel": 4,
      "note": 66,
      "start": 12.6813,
      "duration": 0.1633,
      "velocity": 126,
      "chip": "ym2612"
    },
    {
      "channel": 3,
      "note": 71,
      "start": 12.6853,
      "duration": 0.2086,
      "velocity": 126,
      "chip": "ym2612"
    },
    {
      "channel": 0,
      "note": 47,
      "start": 12.6966,
      "duration": 0.1017,
      "velocity": 94,
      "chip": "ym2612"
    },
    {
      "channel": 0,
      "note": 47,
      "start": 12.7985,
      "duration": 0.0451,
      "velocity": 94,
      "chip": "ym2612"
    },
    {
      "channel": 1,
      "note": 71,
      "start": 12.844,
      "duration": 0.4667,
      "velocity": 112,
      "chip": "ym2612"
    },
    {
      "channel": 2,
      "note": 59,
      "start": 12.8444,
      "duration": 0.4665,
      "velocity": 111,
      "chip": "ym2612"
    },
    {
      "channel": 4,
      "note": 71,
      "start": 12.8449,
      "duration": 0.4665,
      "velocity": 126,
      "chip": "ym2612"
    },
    {
      "channel": 3,
      "note": 78,
      "start": 12.8942,
      "duration": 0.4205,
      "velocity": 126,
      "chip": "ym2612"
    },
    {
      "channel": 0,
      "note": 47,
      "start": 12.9605,
      "duration": 0.1164,
      "velocity": 94,
      "chip": "ym2612"
    },
    {
      "channel": 0,
      "note": 47,
      "start": 13.0772,
      "duration": 0.1164,
      "velocity": 94,
      "chip": "ym2612"
    },
    {
      "channel": 0,
      "note": 51,
      "start": 13.3106,
      "duration": 0.0084,
      "velocity": 94,
      "chip": "ym2612"
    },
    {
      "channel": 1,
      "note": 78,
      "start": 13.3108,
      "duration": 0.2363,
      "velocity": 112,
      "chip": "ym2612"
    },
    {
      "channel": 2,
      "note": 66,
      "start": 13.3112,
      "duration": 0.2361,
      "velocity": 111,
      "chip": "ym2612"
    },
    {
      "channel": 4,
      "note": 78,
      "start": 13.3117,
      "duration": 0.2359,
      "velocity": 126,
      "chip": "ym2612"
    },
    {
      "channel": 3,
      "note": 83,
      "start": 13.3149,
      "duration": 0.2359,
      "velocity": 126,
      "chip": "ym2612"
    },
    {
      "channel": 0,
      "note": 47,
      "start": 13.3264,
      "duration": 0.1038,
      "velocity": 94,
      "chip": "ym2612"
    },
    {
      "channel": 0,
      "note": 47,
      "start": 13.4304,
      "duration": 0.1166,
      "velocity": 94,
      "chip": "ym2612"
    },
    {
      "channel": 1,
      "note": 81,
      "start": 13.5472,
      "duration": 0.8475,
      "velocity": 112,
      "chip": "ym2612"
    },
    {
      "channel": 2,
      "note": 69,
      "start": 13.5475,
      "duration": 0.8473,
      "velocity": 111,
      "chip": "ym2612"
    },
    {
      "channel": 4,
      "note": 81,
      "start": 13.5479,
      "duration": 0.8471,
      "velocity": 126,
      "chip": "ym2612"
    },
    {
      "channel": 3,
      "note": 86,
      "start": 13.5509,
      "duration": 0.8466,
      "velocity": 126,
      "chip": "ym2612"
    },
    {
      "channel": 0,
      "note": 59,
      "start": 13.5926,
      "duration": 0.1164,
      "velocity": 94,
      "chip": "ym2612"
    },
    {
      "channel": 0,
      "note": 47,
      "start": 13.7093,
      "duration": 0.1164,
      "velocity": 94,
      "chip": "ym2612"
    },
    {
      "channel": 0,
      "note": 54,
      "start": 13.8259,
      "duration": 0.1165,
      "velocity": 94,
      "chip": "ym2612"
    },
    {
      "channel": 0,
      "note": 47,
      "start": 13.9427,
      "duration": 0.0082,
      "velocity": 94,
      "chip": "ym2612"
    },
    {
      "channel": 0,
      "note": 47,
      "start": 13.9578,
      "duration": 0.1045,
      "velocity": 94,
      "chip": "ym2612"
    },
    {
      "channel": 0,
      "note": 47,
      "start": 14.0626,
      "duration": 0.0448,
      "velocity": 94,
      "chip": "ym2612"
    },
    {
      "channel": 0,
      "note": 51,
      "start": 14.2244,
      "duration": 0.0076,
      "velocity": 94,
      "chip": "ym2612"
    },
    {
      "channel": 0,
      "note": 47,
      "start": 14.2323,
      "duration": 0.0454,
      "velocity": 94,
      "chip": "ym2612"
    },
    {
      "channel": 0,
      "note": 59,
      "start": 14.3946,
      "duration": 0.0058,
      "velocity": 94,
      "chip": "ym2612"
    },
    {
      "channel": 0,
      "note": 47,
      "start": 14.4006,
      "duration": 0.0046,
      "velocity": 94,
      "chip": "ym2612"
    },
    {
      "channel": 0,
      "note": 47,
      "start": 14.4054,
      "duration": 0.0091,
      "velocity": 94,
      "chip": "ym2612"
    },
    {
      "channel": 1,
      "note": 79,
      "start": 14.4057,
      "duration": 0.0092,
      "velocity": 112,
      "chip": "ym2612"
    },
    {
      "channel": 2,
      "note": 67,
      "start": 14.4059,
      "duration": 0.0091,
      "velocity": 111,
      "chip": "ym2612"
    },
    {
      "channel": 4,
      "note": 79,
      "start": 14.4063,
      "duration": 0.0092,
      "velocity": 126,
      "chip": "ym2612"
    },
    {
      "channel": 3,
      "note": 86,
      "start": 14.41,
      "duration": 0.0094,
      "velocity": 126,
      "chip": "ym2612"
    },
    {
      "channel": 0,
      "note": 59,
      "start": 14.4148,
      "duration": 0.0092,
      "velocity": 94,
      "chip": "ym2612"
    },
    {
      "channel": 1,
      "note": 78,
      "start": 14.415,
      "duration": 0.0093,
      "velocity": 112,
      "chip": "ym2612"
    },
    {
      "channel": 2,
      "note": 66,
      "start": 14.4154,
      "duration": 0.0091,
      "velocity": 111,
      "chip": "ym2612"
    },
    {
      "channel": 4,
      "note": 78,
      "start": 14.4159,
      "duration": 0.009,
      "velocity": 126,
      "chip": "ym2612"
    },
    {
      "channel": 3,
      "note": 85,
      "start": 14.4195,
      "duration": 0.0087,
      "velocity": 126,
      "chip": "ym2612"
    },
    {
      "channel": 0,
      "note": 55,
      "start": 14.4242,
      "duration": 0.0451,
      "velocity": 94,
      "chip": "ym2612"
    },
    {
      "channel": 1,
      "note": 79,
      "start": 14.4245,
      "duration": 0.2049,
      "velocity": 112,
      "chip": "ym2612"
    },
    {
      "channel": 2,
      "note": 67,
      "start": 14.4247,
      "duration": 0.2048,
      "velocity": 111,
      "chip": "ym2612"
    },
    {
      "channel": 4,
      "note": 79,
      "start": 14.4251,
      "duration": 0.2049,
      "velocity": 126,
      "chip": "ym2612"
    },
    {
      "channel": 3,
      "note": 86,
      "start": 14.4284,
      "duration": 0.2393,
      "velocity": 126,
      "chip": "ym2612"
    },
    {
      "channel": 0,
      "note": 59,
      "start": 14.4696,
      "duration": 0.1165,
      "velocity": 94,
      "chip": "ym2612"
    },
    {
      "channel": 0,
      "note": 55,
      "start": 14.5864,
      "duration": 0.014,
      "velocity": 94,
      "chip": "ym2612"
    },
    {
      "channel": 0,
      "note": 55,
      "start": 14.6005,
      "duration": 0.0141,
      "velocity": 94,
      "chip": "ym2612"
    },
    {
      "channel": 0,
      "note": 59,
      "start": 14.6149,
      "duration": 0.0076,
      "velocity": 94,
      "chip": "ym2612"
    },
    {
      "channel": 0,
      "note": 55,
      "start": 14.6293,
      "duration": 0.1047,
      "velocity": 94,
      "chip": "ym2612"
    },
    {
      "channel": 1,
      "note": 74,
      "start": 14.6295,
      "duration": 0.1498,
      "velocity": 112,
      "chip": "ym2612"
    },
    {
      "channel": 2,
      "note": 62,
      "start": 14.6297,
      "duration": 0.1498,
      "velocity": 111,
      "chip": "ym2612"
    },
    {
      "channel": 4,
      "note": 74,
      "start": 14.6301,
      "duration": 0.15,
      "velocity": 126,
      "chip": "ym2612"
    },
    {
      "channel": 3,
      "note": 83,
      "start": 14.6679,
      "duration": 0.1615,
      "velocity": 126,
      "chip": "ym2612"
    },
    {
      "channel": 0,
      "note": 55,
      "start": 14.7342,
      "duration": 0.0449,
      "velocity": 94,
      "chip": "ym2612"
    },
    {
      "channel": 1,
      "note": 74,
      "start": 14.7795,
      "duration": 0.5204,
      "velocity": 112,
      "chip": "ym2612"
    },
    {
      "channel": 2,
      "note": 62,
      "start": 14.7799,
      "duration": 0.5203,
      "velocity": 111,
      "chip": "ym2612"
    },
    {
      "channel": 4,
      "note": 74,
      "start": 14.7804,
      "duration": 0.5202,
      "velocity": 126,
      "chip": "ym2612"
    },
    {
      "channel": 3,
      "note": 83,
      "start": 14.8297,
      "duration": 0.5203,
      "velocity": 126,
      "chip": "ym2612"
    },
    {
      "channel": 0,
      "note": 67,
      "start": 14.896,
      "duration": 0.1164,
      "velocity": 94,
      "chip": "ym2612"
    },
    {
      "channel": 0,
      "note": 55,
      "start": 15.0127,
      "duration": 0.1164,
      "velocity": 94,
      "chip": "ym2612"
    },
    {
      "channel": 0,
      "note": 55,
      "start": 15.1293,
      "duration": 0.1165,
      "velocity": 94,
      "chip": "ym2612"
    },
    {
      "channel": 0,
      "note": 67,
      "start": 15.2461,
      "duration": 0.0083,
      "velocity": 94,
      "chip": "ym2612"
    },
    {
      "channel": 0,
      "note": 55,
      "start": 15.2546,
      "duration": 0.0449,
      "velocity": 94,
      "chip": "ym2612"
    },
    {
      "channel": 0,
      "note": 55,
      "start": 15.2998,
      "duration": 0.1164,
      "velocity": 94,
      "chip": "ym2612"
    },
    {
      "channel": 1,
      "note": 74,
      "start": 15.3001,
      "duration": 0.1164,
      "velocity": 112,
      "chip": "ym2612"
    },
    {
      "channel": 2,
      "note": 62,
      "start": 15.3004,
      "duration": 0.1163,
      "velocity": 111,
      "chip": "ym2612"
    },
    {
      "channel": 4,
      "note": 74,
      "start": 15.301,
      "duration": 0.1163,
      "velocity": 126,
      "chip": "ym2612"
    },
    {
      "channel": 3,
      "note": 83,
      "start": 15.3502,
      "duration": 0.1164,
      "velocity": 126,
      "chip": "ym2612"
    },
    {
      "channel": 0,
      "note": 59,
      "start": 15.4164,
      "duration": 0.1165,
      "velocity": 94,
      "chip": "ym2612"
    },
    {
      "channel": 1,
      "note": 76,
      "start": 15.4167,
      "duration": 0.1165,
      "velocity": 112,
      "chip": "ym2612"
    },
    {
      "channel": 2,
      "note": 64,
      "start": 15.4171,
      "duration": 0.1164,
      "velocity": 111,
      "chip": "ym2612"
    },
    {
      "channel": 4,
      "note": 76,
      "start": 15.4176,
      "duration": 0.1163,
      "velocity": 126,
      "chip": "ym2612"
    },
    {
      "channel": 3,
      "note": 85,
      "start": 15.4669,
      "duration": 0.0703,
      "velocity": 126,
      "chip": "ym2612"
    },
    {
      "channel": 0,
      "note": 55,
      "start": 15.5332,
      "duration": 0.0452,
      "velocity": 94,
      "chip": "ym2612"
    },
    {
      "channel": 1,
      "note": 78,
      "start": 15.5334,
      "duration": 0.2786,
      "velocity": 112,
      "chip": "ym2612"
    },
    {
      "channel": 2,
      "note": 66,
      "start": 15.5337,
      "duration": 0.2785,
      "velocity": 111,
      "chip": "ym2612"
    },
    {
      "channel": 4,
      "note": 78,
      "start": 15.5341,
      "duration": 0.2787,
      "velocity": 126,
      "chip": "ym2612"
    },
    {
      "channel": 3,
      "note": 86,
      "start": 15.5373,
      "duration": 0.3248,
      "velocity": 126,
      "chip": "ym2612"
    },
    {
      "channel": 0,
      "note": 55,
      "start": 15.5786,
      "duration": 0.1164,
      "velocity": 94,
      "chip": "ym2612"
    },
    {
      "channel": 0,
      "note": 55,
      "start": 15.6953,
      "duration": 0.1164,
      "velocity": 94,
      "chip": "ym2612"
    },
    {
      "channel": 0,
      "note": 67,
      "start": 15.812,
      "duration": 0.1165,
      "velocity": 94,
      "chip": "ym2612"
    },
    {
      "channel": 1,
      "note": 76,
      "start": 15.8122,
      "duration": 0.1315,
      "velocity": 112,
      "chip": "ym2612"
    },
    {
      "channel": 2,
      "note": 64,
      "start": 15.8126,
      "duration": 0.1313,
      "velocity": 111,
      "chip": "ym2612"
    },
    {
      "channel": 4,
      "note": 76,
      "start": 15.8131,
      "duration": 0.1312,
      "velocity": 126,
      "chip": "ym2612"
    },
    {
      "channel": 3,
      "note": 85,
      "start": 15.8624,
      "duration": 0.1196,
      "velocity": 126,
      "chip": "ym2612"
    },
    {
      "channel": 0,
      "note": 55,
      "start": 15.9287,
      "duration": 0.008,
      "velocity": 94,
      "chip": "ym2612"
    },
    {
      "channel": 0,
      "note": 55,
      "start": 15.9437,
      "duration": 0.1047,
      "velocity": 94,
      "chip": "ym2612"
    },
    {
      "channel": 1,
      "note": 74,
      "start": 15.9439,
      "duration": 0.1502,
      "velocity": 112,
      "chip": "ym2612"
    },
    {
      "channel": 2,
      "note": 62,
      "start": 15.9441,
      "duration": 0.1502,
      "velocity": 111,
      "chip": "ym2612"
    },
    {
      "channel": 4,
      "note": 74,
      "start": 15.9445,
      "duration": 0.1503,
      "velocity": 126,
      "chip": "ym2612"
    },
    {
      "channel": 3,
      "note": 83,
      "start": 15.9823,
      "duration": 0.1619,
      "velocity": 126,
      "chip": "ym2612"
    },
    {
      "channel": 0,
      "note": 59,
      "start": 16.0486,
      "duration": 0.0451,
      "velocity": 94,
      "chip": "ym2612"
    },
    {
      "channel": 0,
      "note": 55,
      "start": 16.0939,
      "duration": 0.1165,
      "velocity": 94,
      "chip": "ym2612"
    },
    {
      "channel": 1,
      "note": 73,
      "start": 16.0943,
      "duration": 0.17,
      "velocity": 112,
      "chip": "ym2612"
    },
    {
      "channel": 2,
      "note": 61,
      "start": 16.0946,
      "duration": 0.17,
      "velocity": 111,
      "chip": "ym2612"
    },
    {
      "channel": 4,
      "note": 73,
      "start": 16.0952,
      "duration": 0.1699,
      "velocity": 126,
      "chip": "ym2612"
    },
    {
      "channel": 3,
      "note": 81,
      "start": 16.1444,
      "duration": 0.17,
      "velocity": 126,
      "chip": "ym2612"
    },
    {
      "channel": 0,
      "note": 57,
      "start": 16.2107,
      "duration": 0.008,
      "velocity": 94,
      "chip": "ym2612"
    },
    {
      "channel": 0,
      "note": 57,
      "start": 16.219,
      "duration": 0.045,
      "velocity": 94,
      "chip": "ym2612"
    },
    {
      "channel": 0,
      "note": 57,
      "start": 16.2642,
      "duration": 0.1165,
      "velocity": 94,
      "chip": "ym2612"
    },
    {
      "channel": 1,
      "note": 69,
      "start": 16.2645,
      "duration": 0.1326,
      "velocity": 112,
      "chip": "ym2612"
    },
    {
      "channel": 2,
      "note": 57,
      "start": 16.2649,
      "duration": 0.1325,
      "velocity": 111,
      "chip": "ym2612"
    },
    {
      "channel": 4,
      "note": 69,
      "start": 16.2654,
      "duration": 0.1324,
      "velocity": 126,
      "chip": "ym2612"
    },
    {
      "channel": 3,
      "note": 76,
      "start": 16.3147,
      "duration": 0.0874,
      "velocity": 126,
      "chip": "ym2612"
    },
    {
      "channel": 0,
      "note": 57,
      "start": 16.381,
      "duration": 0.0082,
      "velocity": 94,
      "chip": "ym2612"
    },
    {
      "channel": 0,
      "note": 57,
      "start": 16.397,
      "duration": 0.029,
      "velocity": 94,
      "chip": "ym2612"
    },
    {
      "channel": 1,
      "note": 64,
      "start": 16.3973,
      "duration": 0.0389,
      "velocity": 112,
      "chip": "ym2612"
    },
    {
      "channel": 2,
      "note": 52,
      "start": 16.3976,
      "duration": 0.0385,
      "velocity": 111,
      "chip": "ym2612"
    },
    {
      "channel": 4,
      "note": 64,
      "start": 16.3981,
      "duration": 0.0382,
      "velocity": 126,
      "chip": "ym2612"
    },
    {
      "channel": 3,
      "note": 73,
      "start": 16.4022,
      "duration": 0.0361,
      "velocity": 126,
      "chip": "ym2612"
    },
    {
      "channel": 0,
      "note": 57,
      "start": 16.4263,
      "duration": 0.0096,
      "velocity": 94,
      "chip": "ym2612"
    },
    {
      "channel": 0,
      "note": 47,
      "start": 16.4361,
      "duration": 0.044,
      "velocity": 94,
      "chip": "ym2612"
    },
    {
      "channel": 0,
      "note": 47,
      "start": 16.4803,
      "duration": 0.1164,
      "velocity": 94,
      "chip": "ym2612"
    },
    {
      "channel": 0,
      "note": 47,
      "start": 16.597,
      "duration": 0.1164,
      "velocity": 94,
      "chip": "ym2612"
    },
    {
      "channel": 0,
      "note": 47,
      "start": 16.7137,
      "duration": 0.1165,
      "velocity": 94,
      "chip": "ym2612"
    },
    {
      "channel": 0,
      "note": 51,
      "start": 16.8304,
      "duration": 0.0084,
      "velocity": 94,
      "chip": "ym2612"
    },
    {
      "channel": 1,
      "note": 66,
      "start": 16.8306,
      "duration": 0.1649,
      "velocity": 112,
      "chip": "ym2612"
    },
    {
      "channel": 2,
      "note": 54,
      "start": 16.831,
      "duration": 0.1648,
      "velocity": 111,
      "chip": "ym2612"
    },
    {
      "channel": 4,
      "note": 66,
      "start": 16.8313,
      "duration": 0.165,
      "velocity": 126,
      "chip": "ym2612"
    },
    {
      "channel": 3,
      "note": 71,
      "start": 16.8345,
      "duration": 0.2111,
      "velocity": 126,
      "chip": "ym2612"
    },
    {
      "channel": 0,
      "note": 47,
      "start": 16.8458,
      "duration": 0.1041,
      "velocity": 94,
      "chip": "ym2612"
    },
    {
      "channel": 0,
      "note": 47,
      "start": 16.9502,
      "duration": 0.0451,
      "velocity": 94,
      "chip": "ym2612"
    },
    {
      "channel": 1,
      "note": 71,
      "start": 16.9957,
      "duration": 0.4667,
      "velocity": 112,
      "chip": "ym2612"
    },
    {
      "channel": 2,
      "note": 59,
      "start": 16.9961,
      "duration": 0.4665,
      "velocity": 111,
      "chip": "ym2612"
    },
    {
      "channel": 4,
      "note": 71,
      "start": 16.9966,
      "duration": 0.4664,
      "velocity": 126,
      "chip": "ym2612"
    },
    {
      "channel": 3,
      "note": 78,
      "start": 17.0459,
      "duration": 0.4204,
      "velocity": 126,
      "chip": "ym2612"
    },
    {
      "channel": 0,
      "note": 59,
      "start": 17.1122,
      "duration": 0.1164,
      "velocity": 94,
      "chip": "ym2612"
    },
    {
      "channel": 0,
      "note": 47,
      "start": 17.2289,
      "duration": 0.1164,
      "velocity": 94,
      "chip": "ym2612"
    },
    {
      "channel": 0,
      "note": 47,
      "start": 17.3456,
      "duration": 0.1165,
      "velocity": 94,
      "chip": "ym2612"
    },
    {
      "channel": 0,
      "note": 59,
      "start": 17.4623,
      "duration": 0.0083,
      "velocity": 94,
      "chip": "ym2612"
    },
    {
      "channel": 1,
      "note": 78,
      "start": 17.4625,
      "duration": 0.2363,
      "velocity": 112,
      "chip": "ym2612"
    },
    {
      "channel": 2,
      "note": 66,
      "start": 17.4629,
      "duration": 0.2362,
      "velocity": 111,
      "chip": "ym2612"
    },
    {
      "channel": 4,
      "note": 78,
      "start": 17.4631,
      "duration": 0.2363,
      "velocity": 126,
      "chip": "ym2612"
    },
    {
      "channel": 3,
      "note": 83,
      "start": 17.4665,
      "duration": 0.236,
      "velocity": 126,
      "chip": "ym2612"
    },
    {
      "channel": 0,
      "note": 47,
      "start": 17.4708,
      "duration": 0.0075,
      "velocity": 94,
      "chip": "ym2612"
    },
    {
      "channel": 0,
      "note": 47,
      "start": 17.4785,
      "duration": 0.1034,
      "velocity": 94,
      "chip": "ym2612"
    },
    {
      "channel": 0,
      "note": 51,
      "start": 17.5822,
      "duration": 0.1166,
      "velocity": 94,
      "chip": "ym2612"
    },
    {
      "channel": 1,
      "note": 81,
      "start": 17.699,
      "duration": 0.8637,
      "velocity": 112,
      "chip": "ym2612"
    },
    {
      "channel": 2,
      "note": 69,
      "start": 17.6992,
      "duration": 0.8638,
      "velocity": 111,
      "chip": "ym2612"
    },
    {
      "channel": 4,
      "note": 81,
      "start": 17.6996,
      "duration": 0.8638,
      "velocity": 126,
      "chip": "ym2612"
    },
    {
      "channel": 3,
      "note": 86,
      "start": 17.7026,
      "duration": 0.8644,
      "velocity": 126,
      "chip": "ym2612"
    },
    {
      "channel": 0,
      "note": 59,
      "start": 17.7441,
      "duration": 0.1164,
      "velocity": 94,
      "chip": "ym2612"
    },
    {
      "channel": 0,
      "note": 47,
      "start": 17.8608,
      "duration": 0.1164,
      "velocity": 94,
      "chip": "ym2612"
    },
    {
      "channel": 0,
      "note": 47,
      "start": 17.9774,
      "duration": 0.1165,
      "velocity": 94,
      "chip": "ym2612"
    },
    {
      "channel": 0,
      "note": 47,
      "start": 18.0942,
      "duration": 0.0081,
      "velocity": 94,
      "chip": "ym2612"
    },
    {
      "channel": 0,
      "note": 59,
      "start": 18.1096,
      "duration": 0.1046,
      "velocity": 94,
      "chip": "ym2612"
    },
    {
      "channel": 0,
      "note": 47,
      "start": 18.2144,
      "duration": 0.0448,
      "velocity": 94,
      "chip": "ym2612"
    },
    {
      "channel": 0,
      "note": 47,
      "start": 18.3762,
      "duration": 0.0083,
      "velocity": 94,
      "chip": "ym2612"
    },
    {
      "channel": 0,
      "note": 59,
      "start": 18.3848,
      "duration": 0.0449,
      "velocity": 94,
      "chip": "ym2612"
    },
    {
      "channel": 0,
      "note": 47,
      "start": 18.4299,
      "duration": 0.1165,
      "velocity": 94,
      "chip": "ym2612"
    },
    {
      "channel": 0,
      "note": 47,
      "start": 18.5466,
      "duration": 0.008,
      "velocity": 94,
      "chip": "ym2612"
    },
    {
      "channel": 0,
      "note": 51,
      "start": 18.5548,
      "duration": 0.0077,
      "velocity": 94,
      "chip": "ym2612"
    },
    {
      "channel": 0,
      "note": 47,
      "start": 18.5627,
      "duration": 0.0089,
      "velocity": 94,
      "chip": "ym2612"
    },
    {
      "channel": 1,
      "note": 79,
      "start": 18.5629,
      "duration": 0.009,
      "velocity": 112,
      "chip": "ym2612"
    },
    {
      "channel": 2,
      "note": 67,
      "start": 18.5633,
      "duration": 0.009,
      "velocity": 111,
      "chip": "ym2612"
    },
    {
      "channel": 4,
      "note": 79,
      "start": 18.5637,
      "duration": 0.0088,
      "velocity": 126,
      "chip": "ym2612"
    },
    {
      "channel": 3,
      "note": 86,
      "start": 18.5672,
      "duration": 0.0087,
      "velocity": 126,
      "chip": "ym2612"
    },
    {
      "channel": 0,
      "note": 59,
      "start": 18.5719,
      "duration": 0.0086,
      "velocity": 94,
      "chip": "ym2612"
    },
    {
      "channel": 1,
      "note": 78,
      "start": 18.5722,
      "duration": 0.0086,
      "velocity": 112,
      "chip": "ym2612"
    },
    {
      "channel": 2,
      "note": 66,
      "start": 18.5724,
      "duration": 0.0085,
      "velocity": 111,
      "chip": "ym2612"
    },
    {
      "channel": 4,
      "note": 78,
      "start": 18.5728,
      "duration": 0.0086,
      "velocity": 126,
      "chip": "ym2612"
    },
    {
      "channel": 3,
      "note": 85,
      "start": 18.576,
      "duration": 0.0087,
      "velocity": 126,
      "chip": "ym2612"
    },
    {
      "channel": 0,
      "note": 47,
      "start": 18.5807,
      "duration": 0.0452,
      "velocity": 94,
      "chip": "ym2612"
    },
    {
      "channel": 1,
      "note": 79,
      "start": 18.5809,
      "duration": 0.2057,
      "velocity": 112,
      "chip": "ym2612"
    },
    {
      "channel": 2,
      "note": 67,
      "start": 18.5812,
      "duration": 0.2056,
      "velocity": 111,
      "chip": "ym2612"
    },
    {
      "channel": 4,
      "note": 79,
      "start": 18.5816,
      "duration": 0.2056,
      "velocity": 126,
      "chip": "ym2612"
    },
    {
      "channel": 3,
      "note": 86,
      "start": 18.5849,
      "duration": 0.2401,
      "velocity": 126,
      "chip": "ym2612"
    },
    {
      "channel": 0,
      "note": 55,
      "start": 18.6261,
      "duration": 0.1165,
      "velocity": 94,
      "chip": "ym2612"
    },
    {
      "channel": 0,
      "note": 55,
      "start": 18.7429,
      "duration": 0.0143,
      "velocity": 94,
      "chip": "ym2612"
    },
    {
      "channel": 0,
      "note": 55,
      "start": 18.7573,
      "duration": 0.0141,
      "velocity": 94,
      "chip": "ym2612"
    },
    {
      "channel": 0,
      "note": 59,
      "start": 18.7717,
      "duration": 0.0079,
      "velocity": 94,
      "chip": "ym2612"
    },
    {
      "channel": 0,
      "note": 55,
      "start": 18.7866,
      "duration": 0.1047,
      "velocity": 94,
      "chip": "ym2612"
    },
    {
      "channel": 1,
      "note": 86,
      "start": 18.7868,
      "duration": 0.1502,
      "velocity": 112,
      "chip": "ym2612"
    },
    {
      "channel": 2,
      "note": 74,
      "start": 18.787,
      "duration": 0.1503,
      "velocity": 111,
      "chip": "ym2612"
    },
    {
      "channel": 4,
      "note": 86,
      "start": 18.7874,
      "duration": 0.1505,
      "velocity": 126,
      "chip": "ym2612"
    },
    {
      "channel": 3,
      "note": 95,
      "start": 18.8253,
      "duration": 0.1619,
      "velocity": 126,
      "chip": "ym2612"
    },
    {
      "channel": 0,
      "note": 59,
      "start": 18.8916,
      "duration": 0.0451,
      "velocity": 94,
      "chip": "ym2612"
    },
    {
      "channel": 0,
      "note": 55,
      "start": 18.9369,
      "duration": 0.1164,
      "velocity": 94,
      "chip": "ym2612"
    },
    {
      "channel": 1,
      "note": 86,
      "start": 18.9373,
      "duration": 0.4746,
      "velocity": 112,
      "chip": "ym2612"
    },
    {
      "channel": 2,
      "note": 74,
      "start": 18.9376,
      "duration": 0.4743,
      "velocity": 111,
      "chip": "ym2612"
    },
    {
      "channel": 4,
      "note": 86,
      "start": 18.9382,
      "duration": 0.4738,
      "velocity": 126,
      "chip": "ym2612"
    },
    {
      "channel": 3,
      "note": 95,
      "start": 18.9874,
      "duration": 0.42,
      "velocity": 126,
      "chip": "ym2612"
    },
    {
      "channel": 0,
      "note": 59,
      "start": 19.0536,
      "duration": 0.1164,
      "velocity": 94,
      "chip": "ym2612"
    },
    {
      "channel": 0,
      "note": 55,
      "start": 19.1703,
      "duration": 0.1164,
      "velocity": 94,
      "chip": "ym2612"
    },
    {
      "channel": 0,
      "note": 55,
      "start": 19.2869,
      "duration": 0.1165,
      "velocity": 94,
      "chip": "ym2612"
    },
    {
      "channel": 0,
      "note": 55,
      "start": 19.4037,
      "duration": 0.0079,
      "velocity": 94,
      "chip": "ym2612"
    },
    {
      "channel": 0,
      "note": 55,
      "start": 19.4565,
      "duration": 0.1164,
      "velocity": 94,
      "chip": "ym2612"
    },
    {
      "channel": 1,
      "note": 86,
      "start": 19.4568,
      "duration": 0.1164,
      "velocity": 112,
      "chip": "ym2612"
    },
    {
      "channel": 2,
      "note": 74,
      "start": 19.4571,
      "duration": 0.1163,
      "velocity": 111,
      "chip": "ym2612"
    },
    {
      "channel": 4,
      "note": 86,
      "start": 19.4576,
      "duration": 0.1164,
      "velocity": 126,
      "chip": "ym2612"
    },
    {
      "channel": 3,
      "note": 95,
      "start": 19.507,
      "duration": 0.1164,
      "velocity": 126,
      "chip": "ym2612"
    },
    {
      "channel": 0,
      "note": 55,
      "start": 19.5732,
      "duration": 0.1165,
      "velocity": 94,
      "chip": "ym2612"
    },
    {
      "channel": 1,
      "note": 88,
      "start": 19.5734,
      "duration": 0.1164,
      "velocity": 112,
      "chip": "ym2612"
    },
    {
      "channel": 2,
      "note": 76,
      "start": 19.5738,
      "duration": 0.1162,
      "velocity": 111,
      "chip": "ym2612"
    },
    {
      "channel": 4,
      "note": 88,
      "start": 19.5743,
      "duration": 0.116,
      "velocity": 126,
      "chip": "ym2612"
    },
    {
      "channel": 3,
      "note": 97,
      "start": 19.6236,
      "duration": 0.0699,
      "velocity": 126,
      "chip": "ym2612"
    },
    {
      "channel": 1,
      "note": 90,
      "start": 19.69,
      "duration": 0.2789,
      "velocity": 112,
      "chip": "ym2612"
    },
    {
      "channel": 2,
      "note": 78,
      "start": 19.6902,
      "duration": 0.2789,
      "velocity": 111,
      "chip": "ym2612"
    },
    {
      "channel": 4,
      "note": 90,
      "start": 19.6905,
      "duration": 0.279,
      "velocity": 126,
      "chip": "ym2612"
    },
    {
      "channel": 3,
      "note": 98,
      "start": 19.6937,
      "duration": 0.3253,
      "velocity": 126,
      "chip": "ym2612"
    },
    {
      "channel": 0,
      "note": 55,
      "start": 19.7354,
      "duration": 0.1164,
      "velocity": 94,
      "chip": "ym2612"
    },
    {
      "channel": 0,
      "note": 55,
      "start": 19.9688,
      "duration": 0.1165,
      "velocity": 94,
      "chip": "ym2612"
    },
    {
      "channel": 1,
      "note": 88,
      "start": 19.969,
      "duration": 0.1316,
      "velocity": 112,
      "chip": "ym2612"
    },
    {
      "channel": 2,
      "note": 76,
      "start": 19.9694,
      "duration": 0.1314,
      "velocity": 111,
      "chip": "ym2612"
    },
    {
      "channel": 4,
      "note": 88,
      "start": 19.9699,
      "duration": 0.1313,
      "velocity": 126,
      "chip": "ym2612"
    },
    {
      "channel": 3,
      "note": 97,
      "start": 20.0192,
      "duration": 0.1198,
      "velocity": 126,
      "chip": "ym2612"
    },
    {
      "channel": 0,
      "note": 55,
      "start": 20.0855,
      "duration": 0.008,
      "velocity": 94,
      "chip": "ym2612"
    },
    {
      "channel": 0,
      "note": 59,
      "start": 20.1005,
      "duration": 0.1047,
      "velocity": 94,
      "chip": "ym2612"
    },
    {
      "channel": 1,
      "note": 86,
      "start": 20.1007,
      "duration": 0.1501,
      "velocity": 112,
      "chip": "ym2612"
    },
    {
      "channel": 2,
      "note": 74,
      "start": 20.101,
      "duration": 0.1501,
      "velocity": 111,
      "chip": "ym2612"
    },
    {
      "channel": 4,
      "note": 86,
      "start": 20.1014,
      "duration": 0.1502,
      "velocity": 126,
      "chip": "ym2612"
    },
    {
      "channel": 3,
      "note": 95,
      "start": 20.1393,
      "duration": 0.1617,
      "velocity": 126,
      "chip": "ym2612"
    },
    {
      "channel": 0,
      "note": 55,
      "start": 20.2056,
      "duration": 0.0451,
      "velocity": 94,
      "chip": "ym2612"
    },
    {
      "channel": 1,
      "note": 85,
      "start": 20.251,
      "duration": 0.1702,
      "velocity": 112,
      "chip": "ym2612"
    },
    {
      "channel": 2,
      "note": 73,
      "start": 20.2514,
      "duration": 0.1701,
      "velocity": 111,
      "chip": "ym2612"
    },
    {
      "channel": 4,
      "note": 85,
      "start": 20.252,
      "duration": 0.1701,
      "velocity": 126,
      "chip": "ym2612"
    },
    {
      "channel": 3,
      "note": 93,
      "start": 20.3012,
      "duration": 0.1702,
      "velocity": 126,
      "chip": "ym2612"
    },
    {
      "channel": 0,
      "note": 57,
      "start": 20.3677,
      "duration": 0.008,
      "velocity": 94,
      "chip": "ym2612"
    },
    {
      "channel": 0,
      "note": 57,
      "start": 20.376,
      "duration": 0.045,
      "velocity": 94,
      "chip": "ym2612"
    },
    {
      "channel": 0,
      "note": 57,
      "start": 20.4212,
      "duration": 0.1249,
      "velocity": 94,
      "chip": "ym2612"
    },
    {
      "channel": 1,
      "note": 81,
      "start": 20.4215,
      "duration": 0.133,
      "velocity": 112,
      "chip": "ym2612"
    },
    {
      "channel": 2,
      "note": 69,
      "start": 20.4218,
      "duration": 0.1329,
      "velocity": 111,
      "chip": "ym2612"
    },
    {
      "channel": 4,
      "note": 81,
      "start": 20.4224,
      "duration": 0.1327,
      "velocity": 126,
      "chip": "ym2612"
    },
    {
      "channel": 3,
      "note": 76,
      "start": 20.4716,
      "duration": 0.0878,
      "velocity": 126,
      "chip": "ym2612"
    },
    {
      "channel": 0,
      "note": 57,
      "start": 20.5463,
      "duration": 0.0079,
      "velocity": 94,
      "chip": "ym2612"
    },
    {
      "channel": 0,
      "note": 52,
      "start": 20.5544,
      "duration": 0.029,
      "velocity": 94,
      "chip": "ym2612"
    },
    {
      "channel": 1,
      "note": 76,
      "start": 20.5546,
      "duration": 0.0392,
      "velocity": 112,
      "chip": "ym2612"
    },
    {
      "channel": 2,
      "note": 64,
      "start": 20.5549,
      "duration": 0.0401,
      "velocity": 125,
      "chip": "ym2612"
    },
    {
      "channel": 4,
      "note": 76,
      "start": 20.5553,
      "duration": 0.0402,
      "velocity": 126,
      "chip": "ym2612"
    },
    {
      "channel": 3,
      "note": 85,
      "start": 20.5596,
      "duration": 0.0401,
      "velocity": 126,
      "chip": "ym2612"
    },
    {
      "channel": 0,
      "note": 57,
      "start": 20.5836,
      "duration": 0.0096,
      "velocity": 94,
      "chip": "ym2612"
    },
    {
      "channel": 0,
      "note": 51,
      "start": 20.5934,
      "duration": 0.0454,
      "velocity": 94,
      "chip": "ym2612"
    },
    {
      "channel": 1,
      "note": 102,
      "start": 20.594,
      "duration": 0.1617,
      "velocity": 112,
      "chip": "ym2612"
    },
    {
      "channel": 2,
      "note": 78,
      "start": 20.5952,
      "duration": 0.0441,
      "velocity": 125,
      "chip": "ym2612"
    },
    {
      "channel": 4,
      "note": 95,
      "start": 20.5957,
      "duration": 0.1608,
      "velocity": 126,
      "chip": "ym2612"
    },
    {
      "channel": 3,
      "note": 90,
      "start": 20.5999,
      "duration": 0.206,
      "velocity": 126,
      "chip": "ym2612"
    },
    {
      "channel": 0,
      "note": 51,
      "start": 20.639,
      "duration": 0.1164,
      "velocity": 94,
      "chip": "ym2612"
    },
    {
      "channel": 2,
      "note": 83,
      "start": 20.6395,
      "duration": 0.1164,
      "velocity": 125,
      "chip": "ym2612"
    },
    {
      "channel": 0,
      "note": 51,
      "start": 20.7557,
      "duration": 0.1164,
      "velocity": 94,
      "chip": "ym2612"
    },
    {
      "channel": 2,
      "note": 90,
      "start": 20.7562,
      "duration": 0.1163,
      "velocity": 125,
      "chip": "ym2612"
    },
    {
      "channel": 0,
      "note": 51,
      "start": 20.8724,
      "duration": 0.1165,
      "velocity": 94,
      "chip": "ym2612"
    },
    {
      "channel": 2,
      "note": 78,
      "start": 20.8728,
      "duration": 0.1164,
      "velocity": 125,
      "chip": "ym2612"
    },
    {
      "channel": 0,
      "note": 51,
      "start": 20.9891,
      "duration": 0.0057,
      "velocity": 94,
      "chip": "ym2612"
    },
    {
      "channel": 2,
      "note": 83,
      "start": 20.9895,
      "duration": 0.0054,
      "velocity": 125,
      "chip": "ym2612"
    },
    {
      "channel": 2,
      "note": 90,
      "start": 20.9951,
      "duration": 0.0066,
      "velocity": 125,
      "chip": "ym2612"
    },
    {
      "channel": 0,
      "note": 59,
      "start": 21.0003,
      "duration": 0.1075,
      "velocity": 94,
      "chip": "ym2612"
    },
    {
      "channel": 1,
      "note": 75,
      "start": 21.0016,
      "duration": 0.1519,
      "velocity": 107,
      "chip": "ym2612"
    },
    {
      "channel": 2,
      "note": 78,
      "start": 21.002,
      "duration": 0.1063,
      "velocity": 125,
      "chip": "ym2612"
    },
    {
      "channel": 4,
      "note": 87,
      "start": 21.0033,
      "duration": 0.1509,
      "velocity": 107,
      "chip": "ym2612"
    },
    {
      "channel": 3,
      "note": 83,
      "start": 21.0427,
      "duration": 0.1608,
      "velocity": 107,
      "chip": "ym2612"
    },
    {
      "channel": 0,
      "note": 51,
      "start": 21.1081,
      "duration": 0.045,
      "velocity": 94,
      "chip": "ym2612"
    },
    {
      "channel": 2,
      "note": 83,
      "start": 21.1085,
      "duration": 0.0452,
      "velocity": 125,
      "chip": "ym2612"
    },
    {
      "channel": 0,
      "note": 51,
      "start": 21.1534,
      "duration": 0.1164,
      "velocity": 94,
      "chip": "ym2612"
    },
    {
      "channel": 1,
      "note": 75,
      "start": 21.1537,
      "duration": 0.3498,
      "velocity": 107,
      "chip": "ym2612"
    },
    {
      "channel": 2,
      "note": 90,
      "start": 21.154,
      "duration": 0.1163,
      "velocity": 125,
      "chip": "ym2612"
    },
    {
      "channel": 4,
      "note": 87,
      "start": 21.1546,
      "duration": 0.3496,
      "velocity": 107,
      "chip": "ym2612"
    },
    {
      "channel": 3,
      "note": 83,
      "start": 21.2038,
      "duration": 0.3498,
      "velocity": 107,
      "chip": "ym2612"
    },
    {
      "channel": 0,
      "note": 63,
      "start": 21.27,
      "duration": 0.1164,
      "velocity": 94,
      "chip": "ym2612"
    },
    {
      "channel": 2,
      "note": 78,
      "start": 21.2705,
      "duration": 0.1163,
      "velocity": 125,
      "chip": "ym2612"
    },
    {
      "channel": 0,
      "note": 51,
      "start": 21.3867,
      "duration": 0.1164,
      "velocity": 94,
      "chip": "ym2612"
    },
    {
      "channel": 2,
      "note": 83,
      "start": 21.3872,
      "duration": 0.1165,
      "velocity": 125,
      "chip": "ym2612"
    },
    {
      "channel": 0,
      "note": 51,
      "start": 21.5034,
      "duration": 0.1165,
      "velocity": 94,
      "chip": "ym2612"
    },
    {
      "channel": 1,
      "note": 76,
      "start": 21.5036,
      "duration": 0.1307,
      "velocity": 107,
      "chip": "ym2612"
    },
    {
      "channel": 2,
      "note": 90,
      "start": 21.504,
      "duration": 0.1163,
      "velocity": 125,
      "chip": "ym2612"
    },
    {
      "channel": 4,
      "note": 88,
      "start": 21.5045,
      "duration": 0.1301,
      "velocity": 107,
      "chip": "ym2612"
    },
    {
      "channel": 3,
      "note": 85,
      "start": 21.5538,
      "duration": 0.119,
      "velocity": 107,
      "chip": "ym2612"
    },
    {
      "channel": 0,
      "note": 63,
      "start": 21.6201,
      "duration": 0.0071,
      "velocity": 94,
      "chip": "ym2612"
    },
    {
      "channel": 0,
      "note": 51,
      "start": 21.6274,
      "duration": 0.0066,
      "velocity": 94,
      "chip": "ym2612"
    },
    {
      "channel": 0,
      "note": 47,
      "start": 21.6342,
      "duration": 0.1049,
      "velocity": 94,
      "chip": "ym2612"
    },
    {
      "channel": 1,
      "note": 78,
      "start": 21.6344,
      "duration": 1.0694,
      "velocity": 107,
      "chip": "ym2612"
    },
    {
      "channel": 4,
      "note": 90,
      "start": 21.6348,
      "duration": 1.0695,
      "velocity": 107,
      "chip": "ym2612"
    },
    {
      "channel": 3,
      "note": 87,
      "start": 21.6731,
      "duration": 1.0337,
      "velocity": 107,
      "chip": "ym2612"
    },
    {
      "channel": 0,
      "note": 51,
      "start": 21.7393,
      "duration": 0.1165,
      "velocity": 94,
      "chip": "ym2612"
    },
    {
      "channel": 0,
      "note": 52,
      "start": 21.8561,
      "duration": 0.0451,
      "velocity": 94,
      "chip": "ym2612"
    },
    {
      "channel": 2,
      "note": 78,
      "start": 21.8566,
      "duration": 0.045,
      "velocity": 125,
      "chip": "ym2612"
    },
    {
      "channel": 0,
      "note": 52,
      "start": 21.9014,
      "duration": 0.1164,
      "velocity": 94,
      "chip": "ym2612"
    },
    {
      "channel": 2,
      "note": 83,
      "start": 21.9019,
      "duration": 0.1163,
      "velocity": 125,
      "chip": "ym2612"
    },
    {
      "channel": 0,
      "note": 52,
      "start": 22.0181,
      "duration": 0.1164,
      "velocity": 94,
      "chip": "ym2612"
    },
    {
      "channel": 2,
      "note": 90,
      "start": 22.0186,
      "duration": 0.1164,
      "velocity": 125,
      "chip": "ym2612"
    },
    {
      "channel": 0,
      "note": 52,
      "start": 22.1347,
      "duration": 0.1165,
      "velocity": 94,
      "chip": "ym2612"
    },
    {
      "channel": 2,
      "note": 78,
      "start": 22.1353,
      "duration": 0.1164,
      "velocity": 125,
      "chip": "ym2612"
    },
    {
      "channel": 0,
      "note": 56,
      "start": 22.2515,
      "duration": 0.0076,
      "velocity": 94,
      "chip": "ym2612"
    },
    {
      "channel": 2,
      "note": 83,
      "start": 22.2519,
      "duration": 0.0073,
      "velocity": 125,
      "chip": "ym2612"
    },
    {
      "channel": 2,
      "note": 90,
      "start": 22.2596,
      "duration": 0.0069,
      "velocity": 125,
      "chip": "ym2612"
    },
    {
      "channel": 0,
      "note": 52,
      "start": 22.2663,
      "duration": 0.1044,
      "velocity": 94,
      "chip": "ym2612"
    },
    {
      "channel": 2,
      "note": 78,
      "start": 22.2667,
      "duration": 0.1044,
      "velocity": 125,
      "chip": "ym2612"
    },
    {
      "channel": 0,
      "note": 56,
      "start": 22.371,
      "duration": 0.0452,
      "velocity": 94,
      "chip": "ym2612"
    },
    {
      "channel": 2,
      "note": 83,
      "start": 22.3712,
      "duration": 0.0454,
      "velocity": 125,
      "chip": "ym2612"
    },
    {
      "channel": 0,
      "note": 52,
      "start": 22.4164,
      "duration": 0.1165,
      "velocity": 94,
      "chip": "ym2612"
    },
    {
      "channel": 2,
      "note": 90,
      "start": 22.4169,
      "duration": 0.1165,
      "velocity": 125,
      "chip": "ym2612"
    },
    {
      "channel": 0,
      "note": 64,
      "start": 22.5332,
      "duration": 0.0081,
      "velocity": 94,
      "chip": "ym2612"
    },
    {
      "channel": 2,
      "note": 78,
      "start": 22.5336,
      "duration": 0.0081,
      "velocity": 125,
      "chip": "ym2612"
    },
    {
      "channel": 0,
      "note": 52,
      "start": 22.5415,
      "duration": 0.0452,
      "velocity": 94,
      "chip": "ym2612"
    },
    {
      "channel": 2,
      "note": 83,
      "start": 22.5418,
      "duration": 0.0454,
      "velocity": 125,
      "chip": "ym2612"
    },
    {
      "channel": 0,
      "note": 56,
      "start": 22.587,
      "duration": 0.1165,
      "velocity": 94,
      "chip": "ym2612"
    },
    {
      "channel": 2,
      "note": 90,
      "start": 22.5875,
      "duration": 0.1163,
      "velocity": 125,
      "chip": "ym2612"
    },
    {
      "channel": 0,
      "note": 64,
      "start": 22.7037,
      "duration": 0.0061,
      "velocity": 94,
      "chip": "ym2612"
    },
    {
      "channel": 2,
      "note": 78,
      "start": 22.7041,
      "duration": 0.0132,
      "velocity": 125,
      "chip": "ym2612"
    },
    {
      "channel": 0,
      "note": 52,
      "start": 22.71,
      "duration": 0.0067,
      "velocity": 94,
      "chip": "ym2612"
    },
    {
      "channel": 0,
      "note": 56,
      "start": 22.7169,
      "duration": 0.0083,
      "velocity": 94,
      "chip": "ym2612"
    },
    {
      "channel": 1,
      "note": 83,
      "start": 22.7172,
      "duration": 0.0083,
      "velocity": 107,
      "chip": "ym2612"
    },
    {
      "channel": 4,
      "note": 95,
      "start": 22.7175,
      "duration": 0.0083,
      "velocity": 107,
      "chip": "ym2612"
    },
    {
      "channel": 3,
      "note": 92,
      "start": 22.7208,
      "duration": 0.0086,
      "velocity": 107,
      "chip": "ym2612"
    },
    {
      "channel": 0,
      "note": 64,
      "start": 22.7254,
      "duration": 0.0086,
      "velocity": 94,
      "chip": "ym2612"
    },
    {
      "channel": 1,
      "note": 85,
      "start": 22.7257,
      "duration": 0.0087,
      "velocity": 107,
      "chip": "ym2612"
    },
    {
      "channel": 4,
      "note": 97,
      "start": 22.7261,
      "duration": 0.0087,
      "velocity": 107,
      "chip": "ym2612"
    },
    {
      "channel": 3,
      "note": 94,
      "start": 22.7295,
      "duration": 0.0086,
      "velocity": 107,
      "chip": "ym2612"
    },
    {
      "channel": 0,
      "note": 56,
      "start": 22.7343,
      "duration": 0.0451,
      "velocity": 94,
      "chip": "ym2612"
    },
    {
      "channel": 1,
      "note": 87,
      "start": 22.7345,
      "duration": 0.2058,
      "velocity": 107,
      "chip": "ym2612"
    },
    {
      "channel": 2,
      "note": 78,
      "start": 22.7348,
      "duration": 0.0451,
      "velocity": 125,
      "chip": "ym2612"
    },
    {
      "channel": 4,
      "note": 99,
      "start": 22.7351,
      "duration": 0.2059,
      "velocity": 107,
      "chip": "ym2612"
    },
    {
      "channel": 3,
      "note": 95,
      "start": 22.7383,
      "duration": 0.2396,
      "velocity": 107,
      "chip": "ym2612"
    },
    {
      "channel": 0,
      "note": 68,
      "start": 22.7796,
      "duration": 0.1165,
      "velocity": 94,
      "chip": "ym2612"
    },
    {
      "channel": 2,
      "note": 83,
      "start": 22.7802,
      "duration": 0.1165,
      "velocity": 125,
      "chip": "ym2612"
    },
    {
      "channel": 0,
      "note": 56,
      "start": 22.8964,
      "duration": 0.0139,
      "velocity": 94,
      "chip": "ym2612"
    },
    {
      "channel": 2,
      "note": 90,
      "start": 22.8969,
      "duration": 0.0138,
      "velocity": 125,
      "chip": "ym2612"
    },
    {
      "channel": 0,
      "note": 56,
      "start": 22.9104,
      "duration": 0.014,
      "velocity": 94,
      "chip": "ym2612"
    },
    {
      "channel": 2,
      "note": 78,
      "start": 22.9108,
      "duration": 0.014,
      "velocity": 125,
      "chip": "ym2612"
    },
    {
      "channel": 0,
      "note": 68,
      "start": 22.9246,
      "duration": 0.0078,
      "velocity": 94,
      "chip": "ym2612"
    },
    {
      "channel": 2,
      "note": 83,
      "start": 22.9251,
      "duration": 0.0076,
      "velocity": 125,
      "chip": "ym2612"
    },
    {
      "channel": 0,
      "note": 56,
      "start": 22.9326,
      "duration": 0.0075,
      "velocity": 94,
      "chip": "ym2612"
    },
    {
      "channel": 2,
      "note": 90,
      "start": 22.933,
      "duration": 0.0075,
      "velocity": 125,
      "chip": "ym2612"
    },
    {
      "channel": 0,
      "note": 56,
      "start": 22.9402,
      "duration": 0.104,
      "velocity": 94,
      "chip": "ym2612"
    },
    {
      "channel": 1,
      "note": 87,
      "start": 22.9405,
      "duration": 0.1495,
      "velocity": 107,
      "chip": "ym2612"
    },
    {
      "channel": 2,
      "note": 78,
      "start": 22.9408,
      "duration": 0.1039,
      "velocity": 125,
      "chip": "ym2612"
    },
    {
      "channel": 4,
      "note": 99,
      "start": 22.9412,
      "duration": 0.1495,
      "velocity": 107,
      "chip": "ym2612"
    },
    {
      "channel": 3,
      "note": 95,
      "start": 22.9782,
      "duration": 0.1619,
      "velocity": 107,
      "chip": "ym2612"
    },
    {
      "channel": 0,
      "note": 59,
      "start": 23.0445,
      "duration": 0.0451,
      "velocity": 94,
      "chip": "ym2612"
    },
    {
      "channel": 2,
      "note": 83,
      "start": 23.045,
      "duration": 0.0453,
      "velocity": 125,
      "chip": "ym2612"
    },
    {
      "channel": 0,
      "note": 56,
      "start": 23.0899,
      "duration": 0.1164,
      "velocity": 94,
      "chip": "ym2612"
    },
    {
      "channel": 1,
      "note": 88,
      "start": 23.0902,
      "duration": 0.3496,
      "velocity": 107,
      "chip": "ym2612"
    },
    {
      "channel": 2,
      "note": 90,
      "start": 23.0905,
      "duration": 0.1163,
      "velocity": 125,
      "chip": "ym2612"
    },
    {
      "channel": 4,
      "note": 100,
      "start": 23.0911,
      "duration": 0.3495,
      "velocity": 107,
      "chip": "ym2612"
    },
    {
      "channel": 3,
      "note": 97,
      "start": 23.1403,
      "duration": 0.3496,
      "velocity": 107,
      "chip": "ym2612"
    },
    {
      "channel": 0,
      "note": 56,
      "start": 23.2066,
      "duration": 0.1164,
      "velocity": 94,
      "chip": "ym2612"
    },
    {
      "channel": 2,
      "note": 78,
      "start": 23.2071,
      "duration": 0.1163,
      "velocity": 125,
      "chip": "ym2612"
    },
    {
      "channel": 0,
      "note": 68,
      "start": 23.3232,
      "duration": 0.1164,
      "velocity": 94,
      "chip": "ym2612"
    },
    {
      "channel": 2,
      "note": 83,
      "start": 23.3237,
      "duration": 0.1163,
      "velocity": 125,
      "chip": "ym2612"
    },
    {
      "channel": 1,
      "note": 87,
      "start": 23.44,
      "duration": 0.1693,
      "velocity": 107,
      "chip": "ym2612"
    },
    {
      "channel": 2,
      "note": 90,
      "start": 23.4404,
      "duration": 0.1164,
      "velocity": 125,
      "chip": "ym2612"
    },
    {
      "channel": 4,
      "note": 99,
      "start": 23.4409,
      "duration": 0.169,
      "velocity": 107,
      "chip": "ym2612"
    },
    {
      "channel": 3,
      "note": 95,
      "start": 23.4902,
      "duration": 0.1692,
      "velocity": 107,
      "chip": "ym2612"
    },
    {
      "channel": 0,
      "note": 68,
      "start": 23.5566,
      "duration": 0.0076,
      "velocity": 94,
      "chip": "ym2612"
    },
    {
      "channel": 0,
      "note": 56,
      "start": 23.5644,
      "duration": 0.0446,
      "velocity": 94,
      "chip": "ym2612"
    },
    {
      "channel": 0,
      "note": 59,
      "start": 23.6093,
      "duration": 0.1164,
      "velocity": 94,
      "chip": "ym2612"
    },
    {
      "channel": 1,
      "note": 87,
      "start": 23.6096,
      "duration": 0.643,
      "velocity": 107,
      "chip": "ym2612"
    },
    {
      "channel": 4,
      "note": 99,
      "start": 23.6102,
      "duration": 0.6429,
      "velocity": 107,
      "chip": "ym2612"
    },
    {
      "channel": 3,
      "note": 90,
      "start": 23.6597,
      "duration": 0.6311,
      "velocity": 107,
      "chip": "ym2612"
    },
    {
      "channel": 0,
      "note": 56,
      "start": 23.7259,
      "duration": 0.1165,
      "velocity": 94,
      "chip": "ym2612"
    },
    {
      "channel": 0,
      "note": 57,
      "start": 23.8427,
      "duration": 0.0451,
      "velocity": 94,
      "chip": "ym2612"
    },
    {
      "channel": 2,
      "note": 78,
      "start": 23.8432,
      "duration": 0.0451,
      "velocity": 125,
      "chip": "ym2612"
    },
    {
      "channel": 0,
      "note": 64,
      "start": 23.888,
      "duration": 0.1164,
      "velocity": 94,
      "chip": "ym2612"
    },
    {
      "channel": 2,
      "note": 83,
      "start": 23.8886,
      "duration": 0.1163,
      "velocity": 125,
      "chip": "ym2612"
    },
    {
      "channel": 0,
      "note": 57,
      "start": 24.0047,
      "duration": 0.1164,
      "velocity": 94,
      "chip": "ym2612"
    },
    {
      "channel": 2,
      "note": 90,
      "start": 24.0052,
      "duration": 0.1164,
      "velocity": 125,
      "chip": "ym2612"
    },
    {
      "channel": 0,
      "note": 57,
      "start": 24.1214,
      "duration": 0.1165,
      "velocity": 94,
      "chip": "ym2612"
    },
    {
      "channel": 2,
      "note": 78,
      "start": 24.1219,
      "duration": 0.1164,
      "velocity": 125,
      "chip": "ym2612"
    },
    {
      "channel": 0,
      "note": 57,
      "start": 24.2381,
      "duration": 0.0077,
      "velocity": 94,
      "chip": "ym2612"
    },
    {
      "channel": 2,
      "note": 83,
      "start": 24.2386,
      "duration": 0.0074,
      "velocity": 125,
      "chip": "ym2612"
    },
    {
      "channel": 2,
      "note": 90,
      "start": 24.2463,
      "duration": 0.0065,
      "velocity": 125,
      "chip": "ym2612"
    },
    {
      "channel": 0,
      "note": 52,
      "start": 24.2525,
      "duration": 0.1045,
      "velocity": 94,
      "chip": "ym2612"
    },
    {
      "channel": 1,
      "note": 85,
      "start": 24.2527,
      "duration": 0.1501,
      "velocity": 107,
      "chip": "ym2612"
    },
    {
      "channel": 2,
      "note": 78,
      "start": 24.253,
      "duration": 0.1045,
      "velocity": 125,
      "chip": "ym2612"
    },
    {
      "channel": 4,
      "note": 97,
      "start": 24.2532,
      "duration": 0.1504,
      "velocity": 107,
      "chip": "ym2612"
    },
    {
      "channel": 3,
      "note": 88,
      "start": 24.291,
      "duration": 0.1619,
      "velocity": 107,
      "chip": "ym2612"
    },
    {
      "channel": 0,
      "note": 57,
      "start": 24.3573,
      "duration": 0.0451,
      "velocity": 94,
      "chip": "ym2612"
    },
    {
      "channel": 2,
      "note": 83,
      "start": 24.3578,
      "duration": 0.0451,
      "velocity": 125,
      "chip": "ym2612"
    },
    {
      "channel": 1,
      "note": 85,
      "start": 24.4028,
      "duration": 0.3031,
      "velocity": 107,
      "chip": "ym2612"
    },
    {
      "channel": 2,
      "note": 90,
      "start": 24.4031,
      "duration": 0.1165,
      "velocity": 125,
      "chip": "ym2612"
    },
    {
      "channel": 4,
      "note": 97,
      "start": 24.4036,
      "duration": 0.3026,
      "velocity": 107,
      "chip": "ym2612"
    },
    {
      "channel": 3,
      "note": 88,
      "start": 24.4529,
      "duration": 0.2562,
      "velocity": 107,
      "chip": "ym2612"
    },
    {
      "channel": 0,
      "note": 69,
      "start": 24.5194,
      "duration": 0.0078,
      "velocity": 94,
      "chip": "ym2612"
    },
    {
      "channel": 2,
      "note": 78,
      "start": 24.5198,
      "duration": 0.0077,
      "velocity": 125,
      "chip": "ym2612"
    },
    {
      "channel": 0,
      "note": 57,
      "start": 24.5274,
      "duration": 0.0451,
      "velocity": 94,
      "chip": "ym2612"
    },
    {
      "channel": 2,
      "note": 83,
      "start": 24.5278,
      "duration": 0.0451,
      "velocity": 125,
      "chip": "ym2612"
    },
    {
      "channel": 0,
      "note": 57,
      "start": 24.5727,
      "duration": 0.1165,
      "velocity": 94,
      "chip": "ym2612"
    },
    {
      "channel": 2,
      "note": 90,
      "start": 24.5732,
      "duration": 0.1164,
      "velocity": 125,
      "chip": "ym2612"
    },
    {
      "channel": 0,
      "note": 64,
      "start": 24.6895,
      "duration": 0.0085,
      "velocity": 94,
      "chip": "ym2612"
    },
    {
      "channel": 2,
      "note": 78,
      "start": 24.6899,
      "duration": 0.0161,
      "velocity": 125,
      "chip": "ym2612"
    },
    {
      "channel": 0,
      "note": 57,
      "start": 24.7058,
      "duration": 0.0274,
      "velocity": 94,
      "chip": "ym2612"
    },
    {
      "channel": 0,
      "note": 57,
      "start": 24.7334,
      "duration": 0.0079,
      "velocity": 94,
      "chip": "ym2612"
    },
    {
      "channel": 0,
      "note": 59,
      "start": 24.7415,
      "duration": 0.0453,
      "velocity": 94,
      "chip": "ym2612"
    },
    {
      "channel": 1,
      "note": 87,
      "start": 24.7418,
      "duration": 0.3955,
      "velocity": 107,
      "chip": "ym2612"
    },
    {
      "channel": 2,
      "note": 78,
      "start": 24.742,
      "duration": 0.0452,
      "velocity": 125,
      "chip": "ym2612"
    },
    {
      "channel": 4,
      "note": 99,
      "start": 24.7424,
      "duration": 0.3952,
      "velocity": 107,
      "chip": "ym2612"
    },
    {
      "channel": 3,
      "note": 95,
      "start": 24.7458,
      "duration": 0.3944,
      "velocity": 107,
      "chip": "ym2612"
    },
    {
      "channel": 0,
      "note": 66,
      "start": 24.7871,
      "duration": 0.1164,
      "velocity": 94,
      "chip": "ym2612"
    },
    {
      "channel": 2,
      "note": 83,
      "start": 24.7876,
      "duration": 0.1163,
      "velocity": 125,
      "chip": "ym2612"
    },
    {
      "channel": 0,
      "note": 59,
      "start": 24.9037,
      "duration": 0.1164,
      "velocity": 94,
      "chip": "ym2612"
    },
    {
      "channel": 2,
      "note": 90,
      "start": 24.9043,
      "duration": 0.1164,
      "velocity": 125,
      "chip": "ym2612"
    },
    {
      "channel": 0,
      "note": 59,
      "start": 25.0204,
      "duration": 0.1165,
      "velocity": 94,
      "chip": "ym2612"
    },
    {
      "channel": 2,
      "note": 78,
      "start": 25.0209,
      "duration": 0.1164,
      "velocity": 125,
      "chip": "ym2612"
    },
    {
      "channel": 0,
      "note": 59,
      "start": 25.1372,
      "duration": 0.0062,
      "velocity": 94,
      "chip": "ym2612"
    },
    {
      "channel": 2,
      "note": 83,
      "start": 25.1374,
      "duration": 0.0061,
      "velocity": 125,
      "chip": "ym2612"
    },
    {
      "channel": 2,
      "note": 90,
      "start": 25.1437,
      "duration": 0.0053,
      "velocity": 125,
      "chip": "ym2612"
    },
    {
      "channel": 0,
      "note": 59,
      "start": 25.1488,
      "duration": 0.1069,
      "velocity": 94,
      "chip": "ym2612"
    },
    {
      "channel": 1,
      "note": 87,
      "start": 25.149,
      "duration": 0.1524,
      "velocity": 107,
      "chip": "ym2612"
    },
    {
      "channel": 2,
      "note": 78,
      "start": 25.1492,
      "duration": 0.1069,
      "velocity": 125,
      "chip": "ym2612"
    },
    {
      "channel": 4,
      "note": 99,
      "start": 25.1496,
      "duration": 0.1526,
      "velocity": 107,
      "chip": "ym2612"
    },
    {
      "channel": 3,
      "note": 95,
      "start": 25.1896,
      "duration": 0.1619,
      "velocity": 107,
      "chip": "ym2612"
    },
    {
      "channel": 0,
      "note": 59,
      "start": 25.2559,
      "duration": 0.0451,
      "velocity": 94,
      "chip": "ym2612"
    },
    {
      "channel": 2,
      "note": 83,
      "start": 25.2564,
      "duration": 0.0453,
      "velocity": 125,
      "chip": "ym2612"
    },
    {
      "channel": 0,
      "note": 59,
      "start": 25.3013,
      "duration": 0.1164,
      "velocity": 94,
      "chip": "ym2612"
    },
    {
      "channel": 1,
      "note": 87,
      "start": 25.3016,
      "duration": 0.3498,
      "velocity": 107,
      "chip": "ym2612"
    },
    {
      "channel": 2,
      "note": 90,
      "start": 25.3019,
      "duration": 0.1163,
      "velocity": 125,
      "chip": "ym2612"
    },
    {
      "channel": 4,
      "note": 99,
      "start": 25.3025,
      "duration": 0.3496,
      "velocity": 107,
      "chip": "ym2612"
    },
    {
      "channel": 3,
      "note": 95,
      "start": 25.3517,
      "duration": 0.3498,
      "velocity": 107,
      "chip": "ym2612"
    },
    {
      "channel": 0,
      "note": 59,
      "start": 25.4179,
      "duration": 0.1164,
      "velocity": 94,
      "chip": "ym2612"
    },
    {
      "channel": 2,
      "note": 78,
      "start": 25.4185,
      "duration": 0.1163,
      "velocity": 125,
      "chip": "ym2612"
    },
    {
      "channel": 0,
      "note": 66,
      "start": 25.5346,
      "duration": 0.1164,
      "velocity": 94,
      "chip": "ym2612"
    },
    {
      "channel": 2,
      "note": 83,
      "start": 25.5351,
      "duration": 0.1165,
      "velocity": 125,
      "chip": "ym2612"
    },
    {
      "channel": 0,
      "note": 59,
      "start": 25.6513,
      "duration": 0.1165,
      "velocity": 94,
      "chip": "ym2612"
    },
    {
      "channel": 1,
      "note": 90,
      "start": 25.6515,
      "duration": 0.1299,
      "velocity": 107,
      "chip": "ym2612"
    },
    {
      "channel": 2,
      "note": 90,
      "start": 25.6519,
      "duration": 0.1163,
      "velocity": 125,
      "chip": "ym2612"
    },
    {
      "channel": 4,
      "note": 102,
      "start": 25.6524,
      "duration": 0.1293,
      "velocity": 107,
      "chip": "ym2612"
    },
    {
      "channel": 3,
      "note": 99,
      "start": 25.7017,
      "duration": 0.1189,
      "velocity": 107,
      "chip": "ym2612"
    },
    {
      "channel": 0,
      "note": 59,
      "start": 25.768,
      "duration": 0.0071,
      "velocity": 94,
      "chip": "ym2612"
    },
    {
      "channel": 0,
      "note": 63,
      "start": 25.7814,
      "duration": 0.1055,
      "velocity": 94,
      "chip": "ym2612"
    },
    {
      "channel": 1,
      "note": 83,
      "start": 25.7816,
      "duration": 1.1023,
      "velocity": 126,
      "chip": "ym2612"
    },
    {
      "channel": 4,
      "note": 95,
      "start": 25.782,
      "duration": 1.1042,
      "velocity": 114,
      "chip": "ym2612"
    },
    {
      "channel": 3,
      "note": 92,
      "start": 25.8208,
      "duration": 1.0688,
      "velocity": 126,
      "chip": "ym2612"
    },
    {
      "channel": 0,
      "note": 59,
      "start": 25.8871,
      "duration": 0.1165,
      "velocity": 94,
      "chip": "ym2612"
    },
    {
      "channel": 2,
      "note": 80,
      "start": 26.0041,
      "duration": 0.0451,
      "velocity": 125,
      "chip": "ym2612"
    },
    {
      "channel": 0,
      "note": 59,
      "start": 26.0491,
      "duration": 0.1164,
      "velocity": 94,
      "chip": "ym2612"
    },
    {
      "channel": 2,
      "note": 83,
      "start": 26.0496,
      "duration": 0.1162,
      "velocity": 125,
      "chip": "ym2612"
    },
    {
      "channel": 2,
      "note": 90,
      "start": 26.1661,
      "duration": 0.1166,
      "velocity": 125,
      "chip": "ym2612"
    },
    {
      "channel": 0,
      "note": 59,
      "start": 26.2824,
      "duration": 0.1165,
      "velocity": 94,
      "chip": "ym2612"
    },
    {
      "channel": 2,
      "note": 80,
      "start": 26.2829,
      "duration": 0.1164,
      "velocity": 125,
      "chip": "ym2612"
    },
    {
      "channel": 0,
      "note": 59,
      "start": 26.3992,
      "duration": 0.0078,
      "velocity": 94,
      "chip": "ym2612"
    },
    {
      "channel": 2,
      "note": 83,
      "start": 26.3996,
      "duration": 0.0074,
      "velocity": 125,
      "chip": "ym2612"
    },
    {
      "channel": 2,
      "note": 90,
      "start": 26.4074,
      "duration": 0.0069,
      "velocity": 125,
      "chip": "ym2612"
    },
    {
      "channel": 0,
      "note": 59,
      "start": 26.4141,
      "duration": 0.1045,
      "velocity": 94,
      "chip": "ym2612"
    },
    {
      "channel": 2,
      "note": 80,
      "start": 26.4145,
      "duration": 0.1045,
      "velocity": 125,
      "chip": "ym2612"
    },
    {
      "channel": 0,
      "note": 59,
      "start": 26.5188,
      "duration": 0.0454,
      "velocity": 94,
      "chip": "ym2612"
    },
    {
      "channel": 2,
      "note": 83,
      "start": 26.5191,
      "duration": 0.0456,
      "velocity": 125,
      "chip": "ym2612"
    },
    {
      "channel": 0,
      "note": 63,
      "start": 26.5644,
      "duration": 0.1165,
      "velocity": 94,
      "chip": "ym2612"
    },
    {
      "channel": 2,
      "note": 90,
      "start": 26.565,
      "duration": 0.1162,
      "velocity": 125,
      "chip": "ym2612"
    },
    {
      "channel": 2,
      "note": 80,
      "start": 26.6814,
      "duration": 0.0077,
      "velocity": 125,
      "chip": "ym2612"
    },
    {
      "channel": 0,
      "note": 59,
      "start": 26.6889,
      "duration": 0.0449,
      "velocity": 94,
      "chip": "ym2612"
    },
    {
      "channel": 2,
      "note": 83,
      "start": 26.6893,
      "duration": 0.045,
      "velocity": 125,
      "chip": "ym2612"
    },
    {
      "channel": 0,
      "note": 59,
      "start": 26.734,
      "duration": 0.1322,
      "velocity": 94,
      "chip": "ym2612"
    },
    {
      "channel": 2,
      "note": 90,
      "start": 26.7345,
      "duration": 0.1162,
      "velocity": 125,
      "chip": "ym2612"
    },
    {
      "channel": 2,
      "note": 80,
      "start": 26.851,
      "duration": 0.0156,
      "velocity": 125,
      "chip": "ym2612"
    },
    {
      "channel": 0,
      "note": 59,
      "start": 26.8664,
      "duration": 0.0081,
      "velocity": 94,
      "chip": "ym2612"
    },
    {
      "channel": 0,
      "note": 59,
      "start": 26.8747,
      "duration": 0.008,
      "velocity": 94,
      "chip": "ym2612"
    },
    {
      "channel": 0,
      "note": 55,
      "start": 26.8829,
      "duration": 0.0452,
      "velocity": 94,
      "chip": "ym2612"
    },
    {
      "channel": 1,
      "note": 79,
      "start": 26.8841,
      "duration": 0.1748,
      "velocity": 126,
      "chip": "ym2612"
    },
    {
      "channel": 3,
      "note": 79,
      "start": 26.8899,
      "duration": 0.1787,
      "velocity": 126,
      "chip": "ym2612"
    },
    {
      "channel": 0,
      "note": 59,
      "start": 26.9284,
      "duration": 0.1165,
      "velocity": 94,
      "chip": "ym2612"
    },
    {
      "channel": 0,
      "note": 55,
      "start": 27.0451,
      "duration": 0.0136,
      "velocity": 94,
      "chip": "ym2612"
    },
    {
      "channel": 0,
      "note": 55,
      "start": 27.0588,
      "duration": 0.0137,
      "velocity": 94,
      "chip": "ym2612"
    },
    {
      "channel": 1,
      "note": 74,
      "start": 27.0591,
      "duration": 0.027,
      "velocity": 126,
      "chip": "ym2612"
    },
    {
      "channel": 3,
      "note": 74,
      "start": 27.0687,
      "duration": 0.0565,
      "velocity": 126,
      "chip": "ym2612"
    },
    {
      "channel": 0,
      "note": 55,
      "start": 27.0728,
      "duration": 0.0066,
      "velocity": 94,
      "chip": "ym2612"
    },
    {
      "channel": 2,
      "note": 79,
      "start": 27.0731,
      "duration": 0.9165,
      "velocity": 97,
      "chip": "ym2612"
    },
    {
      "channel": 0,
      "note": 50,
      "start": 27.0861,
      "duration": 0.1054,
      "velocity": 94,
      "chip": "ym2612"
    },
    {
      "channel": 1,
      "note": 83,
      "start": 27.0862,
      "duration": 0.1506,
      "velocity": 126,
      "chip": "ym2612"
    },
    {
      "channel": 3,
      "note": 83,
      "start": 27.1254,
      "duration": 0.1616,
      "velocity": 126,
      "chip": "ym2612"
    },
    {
      "channel": 0,
      "note": 55,
      "start": 27.1917,
      "duration": 0.0449,
      "velocity": 94,
      "chip": "ym2612"
    },
    {
      "channel": 1,
      "note": 81,
      "start": 27.237,
      "duration": 0.3499,
      "velocity": 126,
      "chip": "ym2612"
    },
    {
      "channel": 4,
      "note": 59,
      "start": 27.2377,
      "duration": 0.233,
      "velocity": 114,
      "chip": "ym2612"
    },
    {
      "channel": 3,
      "note": 81,
      "start": 27.2872,
      "duration": 0.3499,
      "velocity": 126,
      "chip": "ym2612"
    },
    {
      "channel": 0,
      "note": 55,
      "start": 27.3536,
      "duration": 0.1164,
      "velocity": 94,
      "chip": "ym2612"
    },
    {
      "channel": 0,
      "note": 55,
      "start": 27.4702,
      "duration": 0.1164,
      "velocity": 94,
      "chip": "ym2612"
    },
    {
      "channel": 0,
      "note": 55,
      "start": 27.5869,
      "duration": 0.1242,
      "velocity": 94,
      "chip": "ym2612"
    },
    {
      "channel": 1,
      "note": 76,
      "start": 27.5872,
      "duration": 0.1689,
      "velocity": 126,
      "chip": "ym2612"
    },
    {
      "channel": 4,
      "note": 59,
      "start": 27.5878,
      "duration": 0.1161,
      "velocity": 114,
      "chip": "ym2612"
    },
    {
      "channel": 3,
      "note": 76,
      "start": 27.6373,
      "duration": 0.1689,
      "velocity": 126,
      "chip": "ym2612"
    },
    {
      "channel": 0,
      "note": 62,
      "start": 27.7113,
      "duration": 0.0445,
      "velocity": 94,
      "chip": "ym2612"
    },
    {
      "channel": 0,
      "note": 55,
      "start": 27.7561,
      "duration": 0.1164,
      "velocity": 94,
      "chip": "ym2612"
    },
    {
      "channel": 1,
      "note": 85,
      "start": 27.7564,
      "duration": 0.233,
      "velocity": 126,
      "chip": "ym2612"
    },
    {
      "channel": 3,
      "note": 85,
      "start": 27.8065,
      "duration": 0.1861,
      "velocity": 126,
      "chip": "ym2612"
    },
    {
      "channel": 0,
      "note": 55,
      "start": 27.8727,
      "duration": 0.1165,
      "velocity": 94,
      "chip": "ym2612"
    },
    {
      "channel": 1,
      "note": 86,
      "start": 27.9895,
      "duration": 0.2785,
      "velocity": 126,
      "chip": "ym2612"
    },
    {
      "channel": 2,
      "note": 81,
      "start": 27.9898,
      "duration": 0.5598,
      "velocity": 97,
      "chip": "ym2612"
    },
    {
      "channel": 3,
      "note": 86,
      "start": 27.9928,
      "duration": 0.3253,
      "velocity": 126,
      "chip": "ym2612"
    },
    {
      "channel": 0,
      "note": 55,
      "start": 28.0346,
      "duration": 0.1164,
      "velocity": 94,
      "chip": "ym2612"
    },
    {
      "channel": 0,
      "note": 55,
      "start": 28.1512,
      "duration": 0.1164,
      "velocity": 94,
      "chip": "ym2612"
    },
    {
      "channel": 0,
      "note": 55,
      "start": 28.2679,
      "duration": 0.1321,
      "velocity": 94,
      "chip": "ym2612"
    },
    {
      "channel": 1,
      "note": 79,
      "start": 28.2682,
      "duration": 0.132,
      "velocity": 126,
      "chip": "ym2612"
    },
    {
      "channel": 3,
      "note": 79,
      "start": 28.3184,
      "duration": 0.1196,
      "velocity": 126,
      "chip": "ym2612"
    },
    {
      "channel": 4,
      "note": 59,
      "start": 28.3852,
      "duration": 0.0154,
      "velocity": 114,
      "chip": "ym2612"
    },
    {
      "channel": 0,
      "note": 55,
      "start": 28.4002,
      "duration": 0.1041,
      "velocity": 94,
      "chip": "ym2612"
    },
    {
      "channel": 1,
      "note": 86,
      "start": 28.4004,
      "duration": 0.149,
      "velocity": 126,
      "chip": "ym2612"
    },
    {
      "channel": 3,
      "note": 86,
      "start": 28.4382,
      "duration": 0.1612,
      "velocity": 126,
      "chip": "ym2612"
    },
    {
      "channel": 0,
      "note": 55,
      "start": 28.5045,
      "duration": 0.0446,
      "velocity": 94,
      "chip": "ym2612"
    },
    {
      "channel": 1,
      "note": 88,
      "start": 28.5495,
      "duration": 0.17,
      "velocity": 126,
      "chip": "ym2612"
    },
    {
      "channel": 2,
      "note": 71,
      "start": 28.5499,
      "duration": 0.2864,
      "velocity": 97,
      "chip": "ym2612"
    },
    {
      "channel": 4,
      "note": 59,
      "start": 28.5504,
      "duration": 0.1241,
      "velocity": 114,
      "chip": "ym2612"
    },
    {
      "channel": 3,
      "note": 88,
      "start": 28.5997,
      "duration": 0.17,
      "velocity": 126,
      "chip": "ym2612"
    },
    {
      "channel": 0,
      "note": 57,
      "start": 28.6661,
      "duration": 0.0078,
      "velocity": 94,
      "chip": "ym2612"
    },
    {
      "channel": 0,
      "note": 57,
      "start": 28.6741,
      "duration": 0.0451,
      "velocity": 94,
      "chip": "ym2612"
    },
    {
      "channel": 0,
      "note": 57,
      "start": 28.7195,
      "duration": 0.1247,
      "velocity": 94,
      "chip": "ym2612"
    },
    {
      "channel": 1,
      "note": 81,
      "start": 28.7198,
      "duration": 0.1322,
      "velocity": 126,
      "chip": "ym2612"
    },
    {
      "channel": 4,
      "note": 59,
      "start": 28.7204,
      "duration": 0.1162,
      "velocity": 114,
      "chip": "ym2612"
    },
    {
      "channel": 3,
      "note": 81,
      "start": 28.7699,
      "duration": 0.0866,
      "velocity": 126,
      "chip": "ym2612"
    },
    {
      "channel": 2,
      "note": 73,
      "start": 28.8364,
      "duration": 0.0567,
      "velocity": 107,
      "chip": "ym2612"
    },
    {
      "channel": 0,
      "note": 57,
      "start": 28.8444,
      "duration": 0.0072,
      "velocity": 94,
      "chip": "ym2612"
    },
    {
      "channel": 0,
      "note": 57,
      "start": 28.8519,
      "duration": 0.029,
      "velocity": 94,
      "chip": "ym2612"
    },
    {
      "channel": 1,
      "note": 90,
      "start": 28.8521,
      "duration": 0.0399,
      "velocity": 107,
      "chip": "ym2612"
    },
    {
      "channel": 4,
      "note": 59,
      "start": 28.8527,
      "duration": 0.0415,
      "velocity": 97,
      "chip": "ym2612"
    },
    {
      "channel": 3,
      "note": 90,
      "start": 28.8567,
      "duration": 0.042,
      "velocity": 107,
      "chip": "ym2612"
    },
    {
      "channel": 0,
      "note": 57,
      "start": 28.8811,
      "duration": 0.0096,
      "velocity": 94,
      "chip": "ym2612"
    },
    {
      "channel": 0,
      "note": 47,
      "start": 28.891,
      "duration": 0.0127,
      "velocity": 94,
      "chip": "ym2612"
    },
    {
      "channel": 1,
      "note": 107,
      "start": 28.8921,
      "duration": 0.0187,
      "velocity": 107,
      "chip": "ym2612"
    },
    {
      "channel": 4,
      "note": 71,
      "start": 28.8945,
      "duration": 0.0163,
      "velocity": 97,
      "chip": "ym2612"
    },
    {
      "channel": 3,
      "note": 95,
      "start": 28.899,
      "duration": 0.0081,
      "velocity": 107,
      "chip": "ym2612"
    },
    {
      "channel": 0,
      "note": 59,
      "start": 28.9038,
      "duration": 0.0068,
      "velocity": 94,
      "chip": "ym2612"
    },
    {
      "channel": 0,
      "note": 47,
      "start": 28.9107,
      "duration": 0.0053,
      "velocity": 94,
      "chip": "ym2612"
    },
    {
      "channel": 0,
      "note": 47,
      "start": 28.9161,
      "duration": 0.0051,
      "velocity": 94,
      "chip": "ym2612"
    },
    {
      "channel": 0,
      "note": 47,
      "start": 28.9214,
      "duration": 0.0853,
      "velocity": 94,
      "chip": "ym2612"
    },
    {
      "channel": 0,
      "note": 47,
      "start": 29.007,
      "duration": 0.1164,
      "velocity": 94,
      "chip": "ym2612"
    },
    {
      "channel": 0,
      "note": 47,
      "start": 29.1236,
      "duration": 0.1165,
      "velocity": 94,
      "chip": "ym2612"
    },
    {
      "channel": 0,
      "note": 47,
      "start": 29.2404,
      "duration": 0.0441,
      "velocity": 94,
      "chip": "ym2612"
    },
    {
      "channel": 0,
      "note": 47,
      "start": 29.2847,
      "duration": 0.1164,
      "velocity": 94,
      "chip": "ym2612"
    },
    {
      "channel": 1,
      "note": 83,
      "start": 29.2861,
      "duration": 0.3487,
      "velocity": 122,
      "chip": "ym2612"
    },
    {
      "channel": 2,
      "note": 95,
      "start": 29.2864,
      "duration": 0.3487,
      "velocity": 107,
      "chip": "ym2612"
    },
    {
      "channel": 4,
      "note": 83,
      "start": 29.2869,
      "duration": 0.3487,
      "velocity": 97,
      "chip": "ym2612"
    },
    {
      "channel": 3,
      "note": 71,
      "start": 29.3363,
      "duration": 0.3487,
      "velocity": 114,
      "chip": "ym2612"
    },
    {
      "channel": 0,
      "note": 47,
      "start": 29.4014,
      "duration": 0.1164,
      "velocity": 94,
      "chip": "ym2612"
    },
    {
      "channel": 0,
      "note": 47,
      "start": 29.5181,
      "duration": 0.1164,
      "velocity": 94,
      "chip": "ym2612"
    },
    {
      "channel": 0,
      "note": 59,
      "start": 29.6347,
      "duration": 0.1165,
      "velocity": 94,
      "chip": "ym2612"
    },
    {
      "channel": 1,
      "note": 78,
      "start": 29.635,
      "duration": 0.1309,
      "velocity": 122,
      "chip": "ym2612"
    },
    {
      "channel": 2,
      "note": 90,
      "start": 29.6354,
      "duration": 0.1307,
      "velocity": 107,
      "chip": "ym2612"
    },
    {
      "channel": 4,
      "note": 78,
      "start": 29.6359,
      "duration": 0.1306,
      "velocity": 97,
      "chip": "ym2612"
    },
    {
      "channel": 3,
      "note": 66,
      "start": 29.6852,
      "duration": 0.1196,
      "velocity": 114,
      "chip": "ym2612"
    },
    {
      "channel": 0,
      "note": 54,
      "start": 29.7659,
      "duration": 0.2669,
      "velocity": 94,
      "chip": "ym2612"
    },
    {
      "channel": 1,
      "note": 81,
      "start": 29.7661,
      "duration": 1.1024,
      "velocity": 107,
      "chip": "ym2612"
    },
    {
      "channel": 2,
      "note": 93,
      "start": 29.7663,
      "duration": 1.1024,
      "velocity": 107,
      "chip": "ym2612"
    },
    {
      "channel": 4,
      "note": 81,
      "start": 29.7667,
      "duration": 1.1021,
      "velocity": 97,
      "chip": "ym2612"
    },
    {
      "channel": 3,
      "note": 69,
      "start": 29.805,
      "duration": 1.068,
      "velocity": 107,
      "chip": "ym2612"
    },
    {
      "channel": 0,
      "note": 54,
      "start": 30.1496,
      "duration": 0.2332,
      "velocity": 94,
      "chip": "ym2612"
    },
    {
      "channel": 0,
      "note": 56,
      "start": 30.383,
      "duration": 0.0155,
      "velocity": 94,
      "chip": "ym2612"
    },
    {
      "channel": 0,
      "note": 57,
      "start": 30.3988,
      "duration": 0.1495,
      "velocity": 94,
      "chip": "ym2612"
    },
    {
      "channel": 0,
      "note": 58,
      "start": 30.5485,
      "duration": 0.1245,
      "velocity": 94,
      "chip": "ym2612"
    },
    {
      "channel": 0,
      "note": 66,
      "start": 30.6733,
      "duration": 0.1618,
      "velocity": 94,
      "chip": "ym2612"
    },
    {
      "channel": 0,
      "note": 47,
      "start": 30.8495,
      "duration": 0.0178,
      "velocity": 94,
      "chip": "ym2612"
    },
    {
      "channel": 1,
      "note": 107,
      "start": 30.8687,
      "duration": 0.0156,
      "velocity": 107,
      "chip": "ym2612"
    },
    {
      "channel": 4,
      "note": 71,
      "start": 30.8691,
      "duration": 0.0151,
      "velocity": 97,
      "chip": "ym2612"
    },
    {
      "channel": 3,
      "note": 95,
      "start": 30.8733,
      "duration": 0.0073,
      "velocity": 107,
      "chip": "ym2612"
    },
    {
      "channel": 0,
      "note": 47,
      "start": 30.8773,
      "duration": 0.0066,
      "velocity": 94,
      "chip": "ym2612"
    },
    {
      "channel": 0,
      "note": 47,
      "start": 30.8841,
      "duration": 0.0049,
      "velocity": 94,
      "chip": "ym2612"
    },
    {
      "channel": 0,
      "note": 59,
      "start": 30.8891,
      "duration": 0.005,
      "velocity": 94,
      "chip": "ym2612"
    },
    {
      "channel": 0,
      "note": 59,
      "start": 30.8942,
      "duration": 0.0851,
      "velocity": 94,
      "chip": "ym2612"
    },
    {
      "channel": 0,
      "note": 47,
      "start": 30.9796,
      "duration": 0.1164,
      "velocity": 94,
      "chip": "ym2612"
    },
    {
      "channel": 0,
      "note": 47,
      "start": 31.0963,
      "duration": 0.1165,
      "velocity": 94,
      "chip": "ym2612"
    },
    {
      "channel": 1,
      "note": 78,
      "start": 31.0976,
      "duration": 0.1154,
      "velocity": 122,
      "chip": "ym2612"
    },
    {
      "channel": 2,
      "note": 90,
      "start": 31.098,
      "duration": 0.1153,
      "velocity": 107,
      "chip": "ym2612"
    },
    {
      "channel": 4,
      "note": 78,
      "start": 31.0984,
      "duration": 0.1153,
      "velocity": 97,
      "chip": "ym2612"
    },
    {
      "channel": 3,
      "note": 66,
      "start": 31.1478,
      "duration": 0.0693,
      "velocity": 114,
      "chip": "ym2612"
    },
    {
      "channel": 0,
      "note": 59,
      "start": 31.213,
      "duration": 0.1622,
      "velocity": 94,
      "chip": "ym2612"
    },
    {
      "channel": 1,
      "note": 83,
      "start": 31.2132,
      "duration": 0.0455,
      "velocity": 122,
      "chip": "ym2612"
    },
    {
      "channel": 2,
      "note": 95,
      "start": 31.2135,
      "duration": 0.0455,
      "velocity": 107,
      "chip": "ym2612"
    },
    {
      "channel": 4,
      "note": 83,
      "start": 31.2139,
      "duration": 0.0457,
      "velocity": 97,
      "chip": "ym2612"
    },
    {
      "channel": 3,
      "note": 71,
      "start": 31.2173,
      "duration": 0.0917,
      "velocity": 114,
      "chip": "ym2612"
    },
    {
      "channel": 1,
      "note": 88,
      "start": 31.2589,
      "duration": 0.3499,
      "velocity": 122,
      "chip": "ym2612"
    },
    {
      "channel": 2,
      "note": 100,
      "start": 31.2593,
      "duration": 0.3498,
      "velocity": 107,
      "chip": "ym2612"
    },
    {
      "channel": 4,
      "note": 88,
      "start": 31.2599,
      "duration": 0.3498,
      "velocity": 97,
      "chip": "ym2612"
    },
    {
      "channel": 3,
      "note": 76,
      "start": 31.3092,
      "duration": 0.3498,
      "velocity": 114,
      "chip": "ym2612"
    },
    {
      "channel": 0,
      "note": 47,
      "start": 31.3754,
      "duration": 0.1164,
      "velocity": 94,
      "chip": "ym2612"
    },
    {
      "channel": 0,
      "note": 47,
      "start": 31.4921,
      "duration": 0.1164,
      "velocity": 94,
      "chip": "ym2612"
    },
    {
      "channel": 0,
      "note": 47,
      "start": 31.6088,
      "duration": 0.1165,
      "velocity": 94,
      "chip": "ym2612"
    },
    {
      "channel": 1,
      "note": 87,
      "start": 31.609,
      "duration": 0.1696,
      "velocity": 122,
      "chip": "ym2612"
    },
    {
      "channel": 2,
      "note": 99,
      "start": 31.6094,
      "duration": 0.1695,
      "velocity": 107,
      "chip": "ym2612"
    },
    {
      "channel": 4,
      "note": 87,
      "start": 31.6099,
      "duration": 0.1695,
      "velocity": 97,
      "chip": "ym2612"
    },
    {
      "channel": 3,
      "note": 75,
      "start": 31.6592,
      "duration": 0.1695,
      "velocity": 114,
      "chip": "ym2612"
    },
    {
      "channel": 0,
      "note": 54,
      "start": 31.7786,
      "duration": 0.2785,
      "velocity": 94,
      "chip": "ym2612"
    },
    {
      "channel": 1,
      "note": 86,
      "start": 31.7789,
      "duration": 1.1376,
      "velocity": 112,
      "chip": "ym2612"
    },
    {
      "channel": 2,
      "note": 98,
      "start": 31.7793,
      "duration": 1.1383,
      "velocity": 97,
      "chip": "ym2612"
    },
    {
      "channel": 4,
      "note": 86,
      "start": 31.7798,
      "duration": 1.139,
      "velocity": 114,
      "chip": "ym2612"
    },
    {
      "channel": 3,
      "note": 74,
      "start": 31.829,
      "duration": 1.0941,
      "velocity": 105,
      "chip": "ym2612"
    },
    {
      "channel": 0,
      "note": 54,
      "start": 32.1739,
      "duration": 0.2332,
      "velocity": 94,
      "chip": "ym2612"
    },
    {
      "channel": 0,
      "note": 56,
      "start": 32.4073,
      "duration": 0.0155,
      "velocity": 94,
      "chip": "ym2612"
    },
    {
      "channel": 0,
      "note": 57,
      "start": 32.423,
      "duration": 0.1493,
      "velocity": 94,
      "chip": "ym2612"
    },
    {
      "channel": 0,
      "note": 58,
      "start": 32.5726,
      "duration": 0.1244,
      "velocity": 94,
      "chip": "ym2612"
    },
    {
      "channel": 0,
      "note": 78,
      "start": 32.6973,
      "duration": 0.1618,
      "velocity": 94,
      "chip": "ym2612"
    },
    {
      "channel": 0,
      "note": 54,
      "start": 32.8594,
      "duration": 0.0165,
      "velocity": 94,
      "chip": "ym2612"
    },
    {
      "channel": 0,
      "note": 66,
      "start": 32.876,
      "duration": 0.0392,
      "velocity": 96,
      "chip": "ym2612"
    },
    {
      "channel": 0,
      "note": 55,
      "start": 32.9154,
      "duration": 0.0447,
      "velocity": 96,
      "chip": "ym2612"
    },
    {
      "channel": 1,
      "note": 98,
      "start": 32.9166,
      "duration": 0.2772,
      "velocity": 112,
      "chip": "ym2612"
    },
    {
      "channel": 2,
      "note": 79,
      "start": 32.9178,
      "duration": 0.5587,
      "velocity": 97,
      "chip": "ym2612"
    },
    {
      "channel": 4,
      "note": 55,
      "start": 32.919,
      "duration": 0.1586,
      "velocity": 114,
      "chip": "ym2612"
    },
    {
      "channel": 3,
      "note": 86,
      "start": 32.9233,
      "duration": 0.3206,
      "velocity": 105,
      "chip": "ym2612"
    },
    {
      "channel": 0,
      "note": 67,
      "start": 32.9604,
      "duration": 0.1164,
      "velocity": 96,
      "chip": "ym2612"
    },
    {
      "channel": 0,
      "note": 55,
      "start": 33.0771,
      "duration": 0.1164,
      "velocity": 96,
      "chip": "ym2612"
    },
    {
      "channel": 4,
      "note": 55,
      "start": 33.0779,
      "duration": 0.2329,
      "velocity": 114,
      "chip": "ym2612"
    },
    {
      "channel": 0,
      "note": 55,
      "start": 33.1937,
      "duration": 0.1165,
      "velocity": 96,
      "chip": "ym2612"
    },
    {
      "channel": 1,
      "note": 91,
      "start": 33.194,
      "duration": 0.1332,
      "velocity": 112,
      "chip": "ym2612"
    },
    {
      "channel": 3,
      "note": 79,
      "start": 33.2442,
      "duration": 0.1204,
      "velocity": 105,
      "chip": "ym2612"
    },
    {
      "channel": 0,
      "note": 59,
      "start": 33.3105,
      "duration": 0.0087,
      "velocity": 96,
      "chip": "ym2612"
    },
    {
      "channel": 4,
      "note": 43,
      "start": 33.3111,
      "duration": 0.0165,
      "velocity": 114,
      "chip": "ym2612"
    },
    {
      "channel": 0,
      "note": 55,
      "start": 33.3193,
      "duration": 0.0077,
      "velocity": 96,
      "chip": "ym2612"
    },
    {
      "channel": 0,
      "note": 55,
      "start": 33.3272,
      "duration": 0.1037,
      "velocity": 96,
      "chip": "ym2612"
    },
    {
      "channel": 1,
      "note": 98,
      "start": 33.3273,
      "duration": 0.1489,
      "velocity": 112,
      "chip": "ym2612"
    },
    {
      "channel": 4,
      "note": 57,
      "start": 33.3278,
      "duration": 0.1493,
      "velocity": 114,
      "chip": "ym2612"
    },
    {
      "channel": 3,
      "note": 86,
      "start": 33.3648,
      "duration": 0.1615,
      "velocity": 105,
      "chip": "ym2612"
    },
    {
      "channel": 0,
      "note": 69,
      "start": 33.4311,
      "duration": 0.0448,
      "velocity": 96,
      "chip": "ym2612"
    },
    {
      "channel": 0,
      "note": 57,
      "start": 33.4762,
      "duration": 0.1164,
      "velocity": 96,
      "chip": "ym2612"
    },
    {
      "channel": 1,
      "note": 97,
      "start": 33.4765,
      "duration": 0.3498,
      "velocity": 112,
      "chip": "ym2612"
    },
    {
      "channel": 2,
      "note": 81,
      "start": 33.4768,
      "duration": 0.7034,
      "velocity": 97,
      "chip": "ym2612"
    },
    {
      "channel": 4,
      "note": 57,
      "start": 33.4773,
      "duration": 0.2327,
      "velocity": 114,
      "chip": "ym2612"
    },
    {
      "channel": 3,
      "note": 85,
      "start": 33.5266,
      "duration": 0.3498,
      "velocity": 105,
      "chip": "ym2612"
    },
    {
      "channel": 0,
      "note": 69,
      "start": 33.5928,
      "duration": 0.1164,
      "velocity": 96,
      "chip": "ym2612"
    },
    {
      "channel": 0,
      "note": 57,
      "start": 33.7095,
      "duration": 0.1164,
      "velocity": 96,
      "chip": "ym2612"
    },
    {
      "channel": 4,
      "note": 57,
      "start": 33.7103,
      "duration": 0.233,
      "velocity": 114,
      "chip": "ym2612"
    },
    {
      "channel": 0,
      "note": 64,
      "start": 33.8262,
      "duration": 0.1165,
      "velocity": 96,
      "chip": "ym2612"
    },
    {
      "channel": 1,
      "note": 93,
      "start": 33.8264,
      "duration": 0.1328,
      "velocity": 112,
      "chip": "ym2612"
    },
    {
      "channel": 3,
      "note": 81,
      "start": 33.8766,
      "duration": 0.12,
      "velocity": 105,
      "chip": "ym2612"
    },
    {
      "channel": 0,
      "note": 57,
      "start": 33.9429,
      "duration": 0.0087,
      "velocity": 96,
      "chip": "ym2612"
    },
    {
      "channel": 4,
      "note": 57,
      "start": 33.9437,
      "duration": 0.016,
      "velocity": 114,
      "chip": "ym2612"
    },
    {
      "channel": 0,
      "note": 64,
      "start": 33.9517,
      "duration": 0.0073,
      "velocity": 96,
      "chip": "ym2612"
    },
    {
      "channel": 0,
      "note": 57,
      "start": 33.9591,
      "duration": 0.1037,
      "velocity": 96,
      "chip": "ym2612"
    },
    {
      "channel": 1,
      "note": 100,
      "start": 33.9593,
      "duration": 0.2206,
      "velocity": 112,
      "chip": "ym2612"
    },
    {
      "channel": 4,
      "note": 55,
      "start": 33.9599,
      "duration": 0.2207,
      "velocity": 114,
      "chip": "ym2612"
    },
    {
      "channel": 3,
      "note": 88,
      "start": 33.9969,
      "duration": 0.1873,
      "velocity": 105,
      "chip": "ym2612"
    },
    {
      "channel": 0,
      "note": 57,
      "start": 34.0631,
      "duration": 0.1165,
      "velocity": 96,
      "chip": "ym2612"
    },
    {
      "channel": 0,
      "note": 55,
      "start": 34.1799,
      "duration": 0.0457,
      "velocity": 96,
      "chip": "ym2612"
    },
    {
      "channel": 1,
      "note": 98,
      "start": 34.1801,
      "duration": 0.2791,
      "velocity": 112,
      "chip": "ym2612"
    },
    {
      "channel": 2,
      "note": 83,
      "start": 34.1805,
      "duration": 0.5614,
      "velocity": 97,
      "chip": "ym2612"
    },
    {
      "channel": 4,
      "note": 57,
      "start": 34.1809,
      "duration": 0.1622,
      "velocity": 114,
      "chip": "ym2612"
    },
    {
      "channel": 3,
      "note": 86,
      "start": 34.1844,
      "duration": 0.325,
      "velocity": 105,
      "chip": "ym2612"
    },
    {
      "channel": 0,
      "note": 59,
      "start": 34.2259,
      "duration": 0.1164,
      "velocity": 96,
      "chip": "ym2612"
    },
    {
      "channel": 0,
      "note": 55,
      "start": 34.3425,
      "duration": 0.1164,
      "velocity": 96,
      "chip": "ym2612"
    },
    {
      "channel": 4,
      "note": 55,
      "start": 34.3434,
      "duration": 0.2329,
      "velocity": 114,
      "chip": "ym2612"
    },
    {
      "channel": 0,
      "note": 55,
      "start": 34.4592,
      "duration": 0.1165,
      "velocity": 96,
      "chip": "ym2612"
    },
    {
      "channel": 1,
      "note": 91,
      "start": 34.4595,
      "duration": 0.1328,
      "velocity": 112,
      "chip": "ym2612"
    },
    {
      "channel": 3,
      "note": 79,
      "start": 34.5097,
      "duration": 0.1202,
      "velocity": 105,
      "chip": "ym2612"
    },
    {
      "channel": 0,
      "note": 67,
      "start": 34.576,
      "duration": 0.0087,
      "velocity": 96,
      "chip": "ym2612"
    },
    {
      "channel": 4,
      "note": 55,
      "start": 34.5766,
      "duration": 0.0161,
      "velocity": 114,
      "chip": "ym2612"
    },
    {
      "channel": 0,
      "note": 55,
      "start": 34.5848,
      "duration": 0.0073,
      "velocity": 96,
      "chip": "ym2612"
    },
    {
      "channel": 0,
      "note": 55,
      "start": 34.5922,
      "duration": 0.1039,
      "velocity": 96,
      "chip": "ym2612"
    },
    {
      "channel": 1,
      "note": 103,
      "start": 34.5924,
      "duration": 0.1491,
      "velocity": 112,
      "chip": "ym2612"
    },
    {
      "channel": 4,
      "note": 57,
      "start": 34.593,
      "duration": 0.1493,
      "velocity": 114,
      "chip": "ym2612"
    },
    {
      "channel": 3,
      "note": 91,
      "start": 34.6301,
      "duration": 0.1615,
      "velocity": 105,
      "chip": "ym2612"
    },
    {
      "channel": 0,
      "note": 57,
      "start": 34.6964,
      "duration": 0.0448,
      "velocity": 96,
      "chip": "ym2612"
    },
    {
      "channel": 0,
      "note": 57,
      "start": 34.7415,
      "duration": 0.1165,
      "velocity": 96,
      "chip": "ym2612"
    },
    {
      "channel": 1,
      "note": 102,
      "start": 34.7418,
      "duration": 0.1696,
      "velocity": 112,
      "chip": "ym2612"
    },
    {
      "channel": 2,
      "note": 85,
      "start": 34.7421,
      "duration": 0.3215,
      "velocity": 97,
      "chip": "ym2612"
    },
    {
      "channel": 4,
      "note": 57,
      "start": 34.7426,
      "duration": 0.1237,
      "velocity": 114,
      "chip": "ym2612"
    },
    {
      "channel": 3,
      "note": 90,
      "start": 34.7919,
      "duration": 0.1696,
      "velocity": 105,
      "chip": "ym2612"
    },
    {
      "channel": 0,
      "note": 69,
      "start": 34.8582,
      "duration": 0.0076,
      "velocity": 96,
      "chip": "ym2612"
    },
    {
      "channel": 0,
      "note": 69,
      "start": 34.866,
      "duration": 0.0451,
      "velocity": 96,
      "chip": "ym2612"
    },
    {
      "channel": 4,
      "note": 57,
      "start": 34.8666,
      "duration": 0.1618,
      "velocity": 114,
      "chip": "ym2612"
    },
    {
      "channel": 0,
      "note": 57,
      "start": 34.9114,
      "duration": 0.1165,
      "velocity": 96,
      "chip": "ym2612"
    },
    {
      "channel": 1,
      "note": 100,
      "start": 34.9116,
      "duration": 0.1334,
      "velocity": 112,
      "chip": "ym2612"
    },
    {
      "channel": 3,
      "note": 88,
      "start": 34.9618,
      "duration": 0.0874,
      "velocity": 105,
      "chip": "ym2612"
    },
    {
      "channel": 0,
      "note": 64,
      "start": 35.0281,
      "duration": 0.0087,
      "velocity": 96,
      "chip": "ym2612"
    },
    {
      "channel": 4,
      "note": 57,
      "start": 35.0288,
      "duration": 0.0168,
      "velocity": 114,
      "chip": "ym2612"
    },
    {
      "channel": 0,
      "note": 57,
      "start": 35.0369,
      "duration": 0.0079,
      "velocity": 96,
      "chip": "ym2612"
    },
    {
      "channel": 0,
      "note": 69,
      "start": 35.045,
      "duration": 0.009,
      "velocity": 96,
      "chip": "ym2612"
    },
    {
      "channel": 1,
      "note": 93,
      "start": 35.0452,
      "duration": 0.0181,
      "velocity": 112,
      "chip": "ym2612"
    },
    {
      "channel": 4,
      "note": 55,
      "start": 35.0458,
      "duration": 0.0182,
      "velocity": 114,
      "chip": "ym2612"
    },
    {
      "channel": 3,
      "note": 81,
      "start": 35.0494,
      "duration": 0.0175,
      "velocity": 105,
      "chip": "ym2612"
    },
    {
      "channel": 0,
      "note": 57,
      "start": 35.0543,
      "duration": 0.0089,
      "velocity": 96,
      "chip": "ym2612"
    },
    {
      "channel": 1,
      "note": 98,
      "start": 35.0635,
      "duration": 0.1764,
      "velocity": 112,
      "chip": "ym2612"
    },
    {
      "channel": 2,
      "note": 86,
      "start": 35.0638,
      "duration": 0.3554,
      "velocity": 97,
      "chip": "ym2612"
    },
    {
      "channel": 4,
      "note": 55,
      "start": 35.0642,
      "duration": 0.1616,
      "velocity": 114,
      "chip": "ym2612"
    },
    {
      "channel": 3,
      "note": 86,
      "start": 35.067,
      "duration": 0.1827,
      "velocity": 105,
      "chip": "ym2612"
    },
    {
      "channel": 0,
      "note": 55,
      "start": 35.1087,
      "duration": 0.1165,
      "velocity": 96,
      "chip": "ym2612"
    },
    {
      "channel": 0,
      "note": 55,
      "start": 35.2254,
      "duration": 0.0143,
      "velocity": 96,
      "chip": "ym2612"
    },
    {
      "channel": 4,
      "note": 55,
      "start": 35.2261,
      "duration": 0.0281,
      "velocity": 114,
      "chip": "ym2612"
    },
    {
      "channel": 0,
      "note": 55,
      "start": 35.2399,
      "duration": 0.0138,
      "velocity": 96,
      "chip": "ym2612"
    },
    {
      "channel": 1,
      "note": 91,
      "start": 35.2401,
      "duration": 0.03,
      "velocity": 112,
      "chip": "ym2612"
    },
    {
      "channel": 3,
      "note": 79,
      "start": 35.2499,
      "duration": 0.0576,
      "velocity": 105,
      "chip": "ym2612"
    },
    {
      "channel": 0,
      "note": 55,
      "start": 35.2538,
      "duration": 0.0161,
      "velocity": 96,
      "chip": "ym2612"
    },
    {
      "channel": 4,
      "note": 55,
      "start": 35.2546,
      "duration": 0.016,
      "velocity": 114,
      "chip": "ym2612"
    },
    {
      "channel": 0,
      "note": 59,
      "start": 35.2701,
      "duration": 0.1037,
      "velocity": 96,
      "chip": "ym2612"
    },
    {
      "channel": 1,
      "note": 98,
      "start": 35.2703,
      "duration": 0.1486,
      "velocity": 112,
      "chip": "ym2612"
    },
    {
      "channel": 4,
      "note": 57,
      "start": 35.2707,
      "duration": 0.1489,
      "velocity": 114,
      "chip": "ym2612"
    },
    {
      "channel": 3,
      "note": 86,
      "start": 35.3078,
      "duration": 0.1614,
      "velocity": 105,
      "chip": "ym2612"
    },
    {
      "channel": 0,
      "note": 57,
      "start": 35.374,
      "duration": 0.1613,
      "velocity": 96,
      "chip": "ym2612"
    },
    {
      "channel": 1,
      "note": 100,
      "start": 35.4191,
      "duration": 0.3499,
      "velocity": 112,
      "chip": "ym2612"
    },
    {
      "channel": 2,
      "note": 88,
      "start": 35.4195,
      "duration": 0.7534,
      "velocity": 97,
      "chip": "ym2612"
    },
    {
      "channel": 4,
      "note": 57,
      "start": 35.42,
      "duration": 0.2328,
      "velocity": 114,
      "chip": "ym2612"
    },
    {
      "channel": 3,
      "note": 88,
      "start": 35.4694,
      "duration": 0.3498,
      "velocity": 105,
      "chip": "ym2612"
    },
    {
      "channel": 0,
      "note": 57,
      "start": 35.5356,
      "duration": 0.1164,
      "velocity": 96,
      "chip": "ym2612"
    },
    {
      "channel": 0,
      "note": 57,
      "start": 35.6523,
      "duration": 0.1164,
      "velocity": 96,
      "chip": "ym2612"
    },
    {
      "channel": 4,
      "note": 55,
      "start": 35.6531,
      "duration": 0.2327,
      "velocity": 114,
      "chip": "ym2612"
    },
    {
      "channel": 0,
      "note": 57,
      "start": 35.769,
      "duration": 0.1702,
      "velocity": 96,
      "chip": "ym2612"
    },
    {
      "channel": 1,
      "note": 93,
      "start": 35.7693,
      "duration": 0.1702,
      "velocity": 112,
      "chip": "ym2612"
    },
    {
      "channel": 3,
      "note": 81,
      "start": 35.8194,
      "duration": 0.1702,
      "velocity": 105,
      "chip": "ym2612"
    },
    {
      "channel": 4,
      "note": 55,
      "start": 35.8861,
      "duration": 0.0539,
      "velocity": 114,
      "chip": "ym2612"
    },
    {
      "channel": 0,
      "note": 57,
      "start": 35.9394,
      "duration": 0.1164,
      "velocity": 96,
      "chip": "ym2612"
    },
    {
      "channel": 1,
      "note": 105,
      "start": 35.9397,
      "duration": 0.233,
      "velocity": 112,
      "chip": "ym2612"
    },
    {
      "channel": 4,
      "note": 57,
      "start": 35.9403,
      "duration": 0.2329,
      "velocity": 114,
      "chip": "ym2612"
    },
    {
      "channel": 3,
      "note": 93,
      "start": 35.9898,
      "duration": 0.1867,
      "velocity": 105,
      "chip": "ym2612"
    },
    {
      "channel": 0,
      "note": 55,
      "start": 36.0561,
      "duration": 0.1165,
      "velocity": 96,
      "chip": "ym2612"
    },
    {
      "channel": 1,
      "note": 103,
      "start": 36.1728,
      "duration": 0.2791,
      "velocity": 112,
      "chip": "ym2612"
    },
    {
      "channel": 2,
      "note": 79,
      "start": 36.1731,
      "duration": 0.561,
      "velocity": 97,
      "chip": "ym2612"
    },
    {
      "channel": 4,
      "note": 55,
      "start": 36.1735,
      "duration": 0.1622,
      "velocity": 114,
      "chip": "ym2612"
    },
    {
      "channel": 3,
      "note": 91,
      "start": 36.1768,
      "duration": 0.3253,
      "velocity": 105,
      "chip": "ym2612"
    },
    {
      "channel": 0,
      "note": 55,
      "start": 36.2185,
      "duration": 0.1164,
      "velocity": 96,
      "chip": "ym2612"
    },
    {
      "channel": 0,
      "note": 55,
      "start": 36.3352,
      "duration": 0.1164,
      "velocity": 96,
      "chip": "ym2612"
    },
    {
      "channel": 4,
      "note": 55,
      "start": 36.3361,
      "duration": 0.2329,
      "velocity": 114,
      "chip": "ym2612"
    },
    {
      "channel": 0,
      "note": 55,
      "start": 36.4519,
      "duration": 0.1165,
      "velocity": 96,
      "chip": "ym2612"
    },
    {
      "channel": 1,
      "note": 102,
      "start": 36.4522,
      "duration": 0.1327,
      "velocity": 112,
      "chip": "ym2612"
    },
    {
      "channel": 3,
      "note": 90,
      "start": 36.5023,
      "duration": 0.1201,
      "velocity": 105,
      "chip": "ym2612"
    },
    {
      "channel": 0,
      "note": 55,
      "start": 36.5686,
      "duration": 0.0161,
      "velocity": 96,
      "chip": "ym2612"
    },
    {
      "channel": 4,
      "note": 55,
      "start": 36.5693,
      "duration": 0.016,
      "velocity": 114,
      "chip": "ym2612"
    },
    {
      "channel": 0,
      "note": 50,
      "start": 36.5848,
      "duration": 0.1039,
      "velocity": 96,
      "chip": "ym2612"
    },
    {
      "channel": 1,
      "note": 100,
      "start": 36.585,
      "duration": 0.1488,
      "velocity": 112,
      "chip": "ym2612"
    },
    {
      "channel": 4,
      "note": 57,
      "start": 36.5855,
      "duration": 0.1491,
      "velocity": 114,
      "chip": "ym2612"
    },
    {
      "channel": 3,
      "note": 88,
      "start": 36.6227,
      "duration": 0.1614,
      "velocity": 105,
      "chip": "ym2612"
    },
    {
      "channel": 0,
      "note": 57,
      "start": 36.6889,
      "duration": 0.1614,
      "velocity": 96,
      "chip": "ym2612"
    },
    {
      "channel": 1,
      "note": 98,
      "start": 36.734,
      "duration": 0.17,
      "velocity": 112,
      "chip": "ym2612"
    },
    {
      "channel": 2,
      "note": 81,
      "start": 36.7344,
      "duration": 0.3457,
      "velocity": 125,
      "chip": "ym2612"
    },
    {
      "channel": 4,
      "note": 57,
      "start": 36.7349,
      "duration": 0.1241,
      "velocity": 114,
      "chip": "ym2612"
    },
    {
      "channel": 3,
      "note": 86,
      "start": 36.7843,
      "duration": 0.1698,
      "velocity": 105,
      "chip": "ym2612"
    },
    {
      "channel": 0,
      "note": 57,
      "start": 36.8506,
      "duration": 0.0077,
      "velocity": 96,
      "chip": "ym2612"
    },
    {
      "channel": 0,
      "note": 57,
      "start": 36.8585,
      "duration": 0.0451,
      "velocity": 96,
      "chip": "ym2612"
    },
    {
      "channel": 4,
      "note": 57,
      "start": 36.8593,
      "duration": 0.1616,
      "velocity": 114,
      "chip": "ym2612"
    },
    {
      "channel": 0,
      "note": 57,
      "start": 36.9039,
      "duration": 0.1531,
      "velocity": 96,
      "chip": "ym2612"
    },
    {
      "channel": 1,
      "note": 97,
      "start": 36.9042,
      "duration": 0.153,
      "velocity": 112,
      "chip": "ym2612"
    },
    {
      "channel": 3,
      "note": 85,
      "start": 36.9544,
      "duration": 0.1071,
      "velocity": 105,
      "chip": "ym2612"
    },
    {
      "channel": 4,
      "note": 57,
      "start": 37.0211,
      "duration": 0.0367,
      "velocity": 114,
      "chip": "ym2612"
    },
    {
      "channel": 0,
      "note": 57,
      "start": 37.0572,
      "duration": 0.0093,
      "velocity": 96,
      "chip": "ym2612"
    },
    {
      "channel": 1,
      "note": 95,
      "start": 37.0574,
      "duration": 0.0217,
      "velocity": 112,
      "chip": "ym2612"
    },
    {
      "channel": 4,
      "note": 55,
      "start": 37.058,
      "duration": 0.0227,
      "velocity": 114,
      "chip": "ym2612"
    },
    {
      "channel": 3,
      "note": 83,
      "start": 37.0617,
      "duration": 0.0229,
      "velocity": 112,
      "chip": "ym2612"
    },
    {
      "channel": 0,
      "note": 69,
      "start": 37.0667,
      "duration": 0.0111,
      "velocity": 83,
      "chip": "ym2612"
    },
    {
      "channel": 1,
      "note": 95,
      "start": 37.0793,
      "duration": 31.5881,
      "velocity": 112,
      "chip": "ym2612"
    },
    {
      "channel": 2,
      "note": 78,
      "start": 37.0804,
      "duration": 0.0101,
      "velocity": 125,
      "chip": "ym2612"
    },
    {
      "channel": 3,
      "note": 86,
      "start": 37.0848,
      "duration": 31.5826,
      "velocity": 112,
      "chip": "ym2612"
    },
    {
      "channel": 4,
      "note": 78,
      "start": 37.0859,
      "duration": 31.5815,
      "velocity": 112,
      "chip": "ym2612"
    },
    {
      "channel": 2,
      "note": 83,
      "start": 37.0907,
      "duration": 0.0068,
      "velocity": 125,
      "chip": "ym2612"
    },
    {
      "channel": 2,
      "note": 90,
      "start": 37.0978,
      "duration": 0.0072,
      "velocity": 125,
      "chip": "ym2612"
    },
    {
      "channel": 2,
      "note": 78,
      "start": 37.1053,
      "duration": 0.0074,
      "velocity": 125,
      "chip": "ym2612"
    },
    {
      "channel": 0,
      "note": 47,
      "start": 37.1126,
      "duration": 0.3167,
      "velocity": 83,
      "chip": "ym2612"
    },
    {
      "channel": 2,
      "note": 83,
      "start": 37.113,
      "duration": 0.0831,
      "velocity": 125,
      "chip": "ym2612"
    },
    {
      "channel": 2,
      "note": 78,
      "start": 37.1964,
      "duration": 0.1163,
      "velocity": 125,
      "chip": "ym2612"
    },
    {
      "channel": 2,
      "note": 90,
      "start": 37.3131,
      "duration": 0.1164,
      "velocity": 125,
      "chip": "ym2612"
    },
    {
      "channel": 2,
      "note": 78,
      "start": 37.4298,
      "duration": 0.0451,
      "velocity": 125,
      "chip": "ym2612"
    },
    {
      "channel": 2,
      "note": 78,
      "start": 37.4752,
      "duration": 0.1162,
      "velocity": 125,
      "chip": "ym2612"
    },
    {
      "channel": 2,
      "note": 83,
      "start": 37.5918,
      "duration": 0.1163,
      "velocity": 125,
      "chip": "ym2612"
    },
    {
      "channel": 2,
      "note": 90,
      "start": 37.7085,
      "duration": 0.1163,
      "velocity": 125,
      "chip": "ym2612"
    },
    {
      "channel": 2,
      "note": 78,
      "start": 37.8251,
      "duration": 0.1167,
      "velocity": 125,
      "chip": "ym2612"
    },
    {
      "channel": 0,
      "note": 47,
      "start": 37.9416,
      "duration": 30.7258,
      "velocity": 83,
      "chip": "ym2612"
    },
    {
      "channel": 2,
      "note": 90,
      "start": 37.9422,
      "duration": 30.7252,
      "velocity": 125,
      "chip": "ym2612"
    }
  ]
}