{
  "track_name": "04 - House Cellar",
  "duration_sec": 166.783,
  "sample_rate": 44100,
  "note_count": 1180,
  "unique_pitches": 45,
  "pitch_range": 61,
  "avg_note_duration": 0.2877,
  "reconstruction_stats": {
    "notes_reconstructed": 1180,
    "keyon_events": 1180,
    "keyoff_events": 1180,
    "orphan_keyons": 0,
    "unique_pitches": 45,
    "pitch_range": 61,
    "avg_duration_sec": 0.2877
  },
  "metadata": {
    "source": "S\\Spot Goes to Hollywood\\04 - House Cellar.vgz"
  },
  "notes": [
    {
      "channel": 0,
      "note": 60,
      "start": 0.0077,
      "duration": 4.2412,
      "velocity": 86,
      "chip": "ym2612"
    },
    {
      "channel": 1,
      "note": 64,
      "start": 0.0104,
      "duration": 4.2386,
      "velocity": 86,
      "chip": "ym2612"
    },
    {
      "channel": 3,
      "note": 57,
      "start": 0.0133,
      "duration": 4.2357,
      "velocity": 86,
      "chip": "ym2612"
    },
    {
      "channel": 4,
      "note": 76,
      "start": 3.8702,
      "duration": 0.379,
      "velocity": 101,
      "chip": "ym2612"
    },
    {
      "channel": 5,
      "note": 64,
      "start": 3.8731,
      "duration": 0.2751,
      "velocity": 104,
      "chip": "ym2612"
    },
    {
      "channel": 4,
      "note": 81,
      "start": 4.2605,
      "duration": 0.844,
      "velocity": 101,
      "chip": "ym2612"
    },
    {
      "channel": 2,
      "note": 69,
      "start": 4.2651,
      "duration": 0.8396,
      "velocity": 104,
      "chip": "ym2612"
    },
    {
      "channel": 0,
      "note": 57,
      "start": 4.2688,
      "duration": 0.0381,
      "velocity": 99,
      "chip": "ym2612"
    },
    {
      "channel": 1,
      "note": 69,
      "start": 4.2729,
      "duration": 0.034,
      "velocity": 99,
      "chip": "ym2612"
    },
    {
      "channel": 1,
      "note": 72,
      "start": 4.3179,
      "duration": 0.0421,
      "velocity": 99,
      "chip": "ym2612"
    },
    {
      "channel": 0,
      "note": 57,
      "start": 4.3706,
      "duration": 0.0447,
      "velocity": 99,
      "chip": "ym2612"
    },
    {
      "channel": 1,
      "note": 76,
      "start": 4.3727,
      "duration": 0.0426,
      "velocity": 99,
      "chip": "ym2612"
    },
    {
      "channel": 1,
      "note": 72,
      "start": 4.4252,
      "duration": 0.0443,
      "velocity": 99,
      "chip": "ym2612"
    },
    {
      "channel": 1,
      "note": 76,
      "start": 4.4799,
      "duration": 0.0444,
      "velocity": 99,
      "chip": "ym2612"
    },
    {
      "channel": 1,
      "note": 72,
      "start": 4.5474,
      "duration": 0.1168,
      "velocity": 99,
      "chip": "ym2612"
    },
    {
      "channel": 0,
      "note": 57,
      "start": 4.6872,
      "duration": 0.0474,
      "velocity": 99,
      "chip": "ym2612"
    },
    {
      "channel": 1,
      "note": 76,
      "start": 4.6897,
      "duration": 0.045,
      "velocity": 99,
      "chip": "ym2612"
    },
    {
      "channel": 1,
      "note": 72,
      "start": 4.7457,
      "duration": 0.0414,
      "velocity": 99,
      "chip": "ym2612"
    },
    {
      "channel": 1,
      "note": 69,
      "start": 4.7973,
      "duration": 0.0509,
      "velocity": 99,
      "chip": "ym2612"
    },
    {
      "channel": 1,
      "note": 72,
      "start": 4.8714,
      "duration": 0.1169,
      "velocity": 99,
      "chip": "ym2612"
    },
    {
      "channel": 0,
      "note": 57,
      "start": 5.0112,
      "duration": 0.0471,
      "velocity": 99,
      "chip": "ym2612"
    },
    {
      "channel": 1,
      "note": 76,
      "start": 5.0137,
      "duration": 0.0447,
      "velocity": 99,
      "chip": "ym2612"
    },
    {
      "channel": 1,
      "note": 72,
      "start": 5.0694,
      "duration": 0.035,
      "velocity": 99,
      "chip": "ym2612"
    },
    {
      "channel": 4,
      "note": 83,
      "start": 5.1217,
      "duration": 0.3079,
      "velocity": 101,
      "chip": "ym2612"
    },
    {
      "channel": 2,
      "note": 71,
      "start": 5.1243,
      "duration": 0.3054,
      "velocity": 104,
      "chip": "ym2612"
    },
    {
      "channel": 1,
      "note": 76,
      "start": 5.1275,
      "duration": 0.0315,
      "velocity": 99,
      "chip": "ym2612"
    },
    {
      "channel": 1,
      "note": 72,
      "start": 5.1955,
      "duration": 0.0969,
      "velocity": 99,
      "chip": "ym2612"
    },
    {
      "channel": 0,
      "note": 57,
      "start": 5.3355,
      "duration": 0.0397,
      "velocity": 99,
      "chip": "ym2612"
    },
    {
      "channel": 1,
      "note": 76,
      "start": 5.3379,
      "duration": 0.0374,
      "velocity": 99,
      "chip": "ym2612"
    },
    {
      "channel": 1,
      "note": 72,
      "start": 5.3854,
      "duration": 0.044,
      "velocity": 99,
      "chip": "ym2612"
    },
    {
      "channel": 4,
      "note": 84,
      "start": 5.4411,
      "duration": 0.5335,
      "velocity": 101,
      "chip": "ym2612"
    },
    {
      "channel": 2,
      "note": 72,
      "start": 5.4439,
      "duration": 0.5308,
      "velocity": 104,
      "chip": "ym2612"
    },
    {
      "channel": 0,
      "note": 57,
      "start": 5.4459,
      "duration": 0.0427,
      "velocity": 99,
      "chip": "ym2612"
    },
    {
      "channel": 1,
      "note": 69,
      "start": 5.4493,
      "duration": 0.0393,
      "velocity": 99,
      "chip": "ym2612"
    },
    {
      "channel": 1,
      "note": 72,
      "start": 5.4989,
      "duration": 0.0433,
      "velocity": 99,
      "chip": "ym2612"
    },
    {
      "channel": 0,
      "note": 57,
      "start": 5.5533,
      "duration": 0.0455,
      "velocity": 99,
      "chip": "ym2612"
    },
    {
      "channel": 1,
      "note": 76,
      "start": 5.5554,
      "duration": 0.0434,
      "velocity": 99,
      "chip": "ym2612"
    },
    {
      "channel": 1,
      "note": 72,
      "start": 5.6092,
      "duration": 0.0426,
      "velocity": 99,
      "chip": "ym2612"
    },
    {
      "channel": 1,
      "note": 76,
      "start": 5.6626,
      "duration": 0.0454,
      "velocity": 99,
      "chip": "ym2612"
    },
    {
      "channel": 1,
      "note": 72,
      "start": 5.7312,
      "duration": 0.1168,
      "velocity": 99,
      "chip": "ym2612"
    },
    {
      "channel": 0,
      "note": 57,
      "start": 5.8711,
      "duration": 0.0505,
      "velocity": 99,
      "chip": "ym2612"
    },
    {
      "channel": 1,
      "note": 76,
      "start": 5.8735,
      "duration": 0.0481,
      "velocity": 99,
      "chip": "ym2612"
    },
    {
      "channel": 1,
      "note": 72,
      "start": 5.9315,
      "duration": 0.0431,
      "velocity": 99,
      "chip": "ym2612"
    },
    {
      "channel": 4,
      "note": 81,
      "start": 5.9856,
      "duration": 0.5245,
      "velocity": 101,
      "chip": "ym2612"
    },
    {
      "channel": 2,
      "note": 69,
      "start": 5.9881,
      "duration": 0.5221,
      "velocity": 104,
      "chip": "ym2612"
    },
    {
      "channel": 1,
      "note": 69,
      "start": 5.9903,
      "duration": 0.0412,
      "velocity": 99,
      "chip": "ym2612"
    },
    {
      "channel": 1,
      "note": 72,
      "start": 6.0547,
      "duration": 0.1169,
      "velocity": 99,
      "chip": "ym2612"
    },
    {
      "channel": 0,
      "note": 57,
      "start": 6.1945,
      "duration": 0.0474,
      "velocity": 99,
      "chip": "ym2612"
    },
    {
      "channel": 1,
      "note": 76,
      "start": 6.197,
      "duration": 0.045,
      "velocity": 99,
      "chip": "ym2612"
    },
    {
      "channel": 1,
      "note": 72,
      "start": 6.2528,
      "duration": 0.0423,
      "velocity": 99,
      "chip": "ym2612"
    },
    {
      "channel": 1,
      "note": 76,
      "start": 6.3049,
      "duration": 0.0451,
      "velocity": 99,
      "chip": "ym2612"
    },
    {
      "channel": 1,
      "note": 72,
      "start": 6.3614,
      "duration": 0.0454,
      "velocity": 99,
      "chip": "ym2612"
    },
    {
      "channel": 0,
      "note": 57,
      "start": 6.4159,
      "duration": 0.0465,
      "velocity": 99,
      "chip": "ym2612"
    },
    {
      "channel": 1,
      "note": 76,
      "start": 6.4189,
      "duration": 0.0436,
      "velocity": 99,
      "chip": "ym2612"
    },
    {
      "channel": 1,
      "note": 72,
      "start": 6.4727,
      "duration": 0.0373,
      "velocity": 99,
      "chip": "ym2612"
    },
    {
      "channel": 4,
      "note": 75,
      "start": 6.5293,
      "duration": 1.9499,
      "velocity": 101,
      "chip": "ym2612"
    },
    {
      "channel": 2,
      "note": 63,
      "start": 6.5325,
      "duration": 1.9468,
      "velocity": 104,
      "chip": "ym2612"
    },
    {
      "channel": 0,
      "note": 57,
      "start": 6.5347,
      "duration": 0.0356,
      "velocity": 99,
      "chip": "ym2612"
    },
    {
      "channel": 1,
      "note": 67,
      "start": 6.5381,
      "duration": 0.0323,
      "velocity": 99,
      "chip": "ym2612"
    },
    {
      "channel": 1,
      "note": 72,
      "start": 6.5868,
      "duration": 0.0354,
      "velocity": 99,
      "chip": "ym2612"
    },
    {
      "channel": 0,
      "note": 57,
      "start": 6.6402,
      "duration": 0.0388,
      "velocity": 99,
      "chip": "ym2612"
    },
    {
      "channel": 1,
      "note": 75,
      "start": 6.6423,
      "duration": 0.0367,
      "velocity": 99,
      "chip": "ym2612"
    },
    {
      "channel": 1,
      "note": 72,
      "start": 6.6884,
      "duration": 0.0427,
      "velocity": 99,
      "chip": "ym2612"
    },
    {
      "channel": 1,
      "note": 75,
      "start": 6.7417,
      "duration": 0.0424,
      "velocity": 99,
      "chip": "ym2612"
    },
    {
      "channel": 1,
      "note": 72,
      "start": 6.7978,
      "duration": 0.1168,
      "velocity": 99,
      "chip": "ym2612"
    },
    {
      "channel": 0,
      "note": 57,
      "start": 6.9377,
      "duration": 0.0466,
      "velocity": 99,
      "chip": "ym2612"
    },
    {
      "channel": 1,
      "note": 75,
      "start": 6.9401,
      "duration": 0.0442,
      "velocity": 99,
      "chip": "ym2612"
    },
    {
      "channel": 1,
      "note": 72,
      "start": 6.9953,
      "duration": 0.0424,
      "velocity": 99,
      "chip": "ym2612"
    },
    {
      "channel": 1,
      "note": 67,
      "start": 7.048,
      "duration": 0.0516,
      "velocity": 99,
      "chip": "ym2612"
    },
    {
      "channel": 1,
      "note": 72,
      "start": 7.1228,
      "duration": 0.1168,
      "velocity": 99,
      "chip": "ym2612"
    },
    {
      "channel": 0,
      "note": 57,
      "start": 7.263,
      "duration": 0.0468,
      "velocity": 99,
      "chip": "ym2612"
    },
    {
      "channel": 1,
      "note": 75,
      "start": 7.2655,
      "duration": 0.0443,
      "velocity": 99,
      "chip": "ym2612"
    },
    {
      "channel": 1,
      "note": 72,
      "start": 7.3209,
      "duration": 0.0415,
      "velocity": 99,
      "chip": "ym2612"
    },
    {
      "channel": 1,
      "note": 75,
      "start": 7.3727,
      "duration": 0.0503,
      "velocity": 99,
      "chip": "ym2612"
    },
    {
      "channel": 1,
      "note": 72,
      "start": 7.4461,
      "duration": 0.1169,
      "velocity": 99,
      "chip": "ym2612"
    },
    {
      "channel": 0,
      "note": 57,
      "start": 7.5861,
      "duration": 0.0479,
      "velocity": 99,
      "chip": "ym2612"
    },
    {
      "channel": 1,
      "note": 75,
      "start": 7.5885,
      "duration": 0.0456,
      "velocity": 99,
      "chip": "ym2612"
    },
    {
      "channel": 0,
      "note": 57,
      "start": 7.6451,
      "duration": 0.0457,
      "velocity": 99,
      "chip": "ym2612"
    },
    {
      "channel": 1,
      "note": 72,
      "start": 7.6473,
      "duration": 0.0436,
      "velocity": 99,
      "chip": "ym2612"
    },
    {
      "channel": 0,
      "note": 57,
      "start": 7.7006,
      "duration": 0.0462,
      "velocity": 99,
      "chip": "ym2612"
    },
    {
      "channel": 1,
      "note": 67,
      "start": 7.7031,
      "duration": 0.0438,
      "velocity": 99,
      "chip": "ym2612"
    },
    {
      "channel": 1,
      "note": 72,
      "start": 7.7568,
      "duration": 0.0439,
      "velocity": 99,
      "chip": "ym2612"
    },
    {
      "channel": 0,
      "note": 57,
      "start": 7.811,
      "duration": 0.0442,
      "velocity": 99,
      "chip": "ym2612"
    },
    {
      "channel": 1,
      "note": 75,
      "start": 7.8132,
      "duration": 0.042,
      "velocity": 99,
      "chip": "ym2612"
    },
    {
      "channel": 1,
      "note": 72,
      "start": 7.8651,
      "duration": 0.0353,
      "velocity": 99,
      "chip": "ym2612"
    },
    {
      "channel": 1,
      "note": 75,
      "start": 7.919,
      "duration": 0.035,
      "velocity": 99,
      "chip": "ym2612"
    },
    {
      "channel": 1,
      "note": 72,
      "start": 7.9879,
      "duration": 0.0968,
      "velocity": 99,
      "chip": "ym2612"
    },
    {
      "channel": 0,
      "note": 57,
      "start": 8.1277,
      "duration": 0.0396,
      "velocity": 99,
      "chip": "ym2612"
    },
    {
      "channel": 1,
      "note": 75,
      "start": 8.1302,
      "duration": 0.0371,
      "velocity": 99,
      "chip": "ym2612"
    },
    {
      "channel": 1,
      "note": 72,
      "start": 8.1775,
      "duration": 0.0431,
      "velocity": 99,
      "chip": "ym2612"
    },
    {
      "channel": 1,
      "note": 67,
      "start": 8.2311,
      "duration": 0.0422,
      "velocity": 99,
      "chip": "ym2612"
    },
    {
      "channel": 1,
      "note": 72,
      "start": 8.2924,
      "duration": 0.1168,
      "velocity": 99,
      "chip": "ym2612"
    },
    {
      "channel": 0,
      "note": 57,
      "start": 8.4323,
      "duration": 0.0466,
      "velocity": 99,
      "chip": "ym2612"
    },
    {
      "channel": 1,
      "note": 75,
      "start": 8.4348,
      "duration": 0.0443,
      "velocity": 99,
      "chip": "ym2612"
    },
    {
      "channel": 1,
      "note": 72,
      "start": 8.4904,
      "duration": 0.0422,
      "velocity": 99,
      "chip": "ym2612"
    },
    {
      "channel": 4,
      "note": 84,
      "start": 8.5425,
      "duration": 0.1913,
      "velocity": 101,
      "chip": "ym2612"
    },
    {
      "channel": 2,
      "note": 72,
      "start": 8.5451,
      "duration": 0.1889,
      "velocity": 104,
      "chip": "ym2612"
    },
    {
      "channel": 1,
      "note": 75,
      "start": 8.5484,
      "duration": 0.0452,
      "velocity": 99,
      "chip": "ym2612"
    },
    {
      "channel": 1,
      "note": 72,
      "start": 8.6168,
      "duration": 0.1168,
      "velocity": 99,
      "chip": "ym2612"
    },
    {
      "channel": 4,
      "note": 86,
      "start": 8.7567,
      "duration": 0.1063,
      "velocity": 101,
      "chip": "ym2612"
    },
    {
      "channel": 2,
      "note": 74,
      "start": 8.7594,
      "duration": 0.1038,
      "velocity": 104,
      "chip": "ym2612"
    },
    {
      "channel": 0,
      "note": 57,
      "start": 8.762,
      "duration": 0.0456,
      "velocity": 99,
      "chip": "ym2612"
    },
    {
      "channel": 1,
      "note": 75,
      "start": 8.7645,
      "duration": 0.0431,
      "velocity": 99,
      "chip": "ym2612"
    },
    {
      "channel": 0,
      "note": 57,
      "start": 8.8176,
      "duration": 0.0453,
      "velocity": 99,
      "chip": "ym2612"
    },
    {
      "channel": 1,
      "note": 72,
      "start": 8.8198,
      "duration": 0.0432,
      "velocity": 99,
      "chip": "ym2612"
    },
    {
      "channel": 4,
      "note": 87,
      "start": 8.8735,
      "duration": 0.8506,
      "velocity": 101,
      "chip": "ym2612"
    },
    {
      "channel": 2,
      "note": 75,
      "start": 8.8764,
      "duration": 0.8478,
      "velocity": 104,
      "chip": "ym2612"
    },
    {
      "channel": 0,
      "note": 57,
      "start": 8.8797,
      "duration": 0.0434,
      "velocity": 99,
      "chip": "ym2612"
    },
    {
      "channel": 1,
      "note": 70,
      "start": 8.8824,
      "duration": 0.0408,
      "velocity": 99,
      "chip": "ym2612"
    },
    {
      "channel": 1,
      "note": 75,
      "start": 8.9336,
      "duration": 0.0425,
      "velocity": 99,
      "chip": "ym2612"
    },
    {
      "channel": 0,
      "note": 57,
      "start": 8.9872,
      "duration": 0.0453,
      "velocity": 99,
      "chip": "ym2612"
    },
    {
      "channel": 1,
      "note": 78,
      "start": 8.9893,
      "duration": 0.0433,
      "velocity": 99,
      "chip": "ym2612"
    },
    {
      "channel": 1,
      "note": 75,
      "start": 9.0425,
      "duration": 0.0441,
      "velocity": 99,
      "chip": "ym2612"
    },
    {
      "channel": 1,
      "note": 78,
      "start": 9.0973,
      "duration": 0.045,
      "velocity": 99,
      "chip": "ym2612"
    },
    {
      "channel": 1,
      "note": 75,
      "start": 9.1654,
      "duration": 0.1169,
      "velocity": 99,
      "chip": "ym2612"
    },
    {
      "channel": 0,
      "note": 57,
      "start": 9.3053,
      "duration": 0.0471,
      "velocity": 99,
      "chip": "ym2612"
    },
    {
      "channel": 1,
      "note": 78,
      "start": 9.3077,
      "duration": 0.0448,
      "velocity": 99,
      "chip": "ym2612"
    },
    {
      "channel": 1,
      "note": 75,
      "start": 9.3635,
      "duration": 0.0349,
      "velocity": 99,
      "chip": "ym2612"
    },
    {
      "channel": 1,
      "note": 70,
      "start": 9.4152,
      "duration": 0.0353,
      "velocity": 99,
      "chip": "ym2612"
    },
    {
      "channel": 1,
      "note": 75,
      "start": 9.4896,
      "duration": 0.0968,
      "velocity": 99,
      "chip": "ym2612"
    },
    {
      "channel": 0,
      "note": 57,
      "start": 9.6295,
      "duration": 0.04,
      "velocity": 99,
      "chip": "ym2612"
    },
    {
      "channel": 1,
      "note": 78,
      "start": 9.632,
      "duration": 0.0376,
      "velocity": 99,
      "chip": "ym2612"
    },
    {
      "channel": 1,
      "note": 75,
      "start": 9.68,
      "duration": 0.044,
      "velocity": 99,
      "chip": "ym2612"
    },
    {
      "channel": 4,
      "note": 89,
      "start": 9.7349,
      "duration": 0.3045,
      "velocity": 101,
      "chip": "ym2612"
    },
    {
      "channel": 2,
      "note": 77,
      "start": 9.7376,
      "duration": 0.3019,
      "velocity": 104,
      "chip": "ym2612"
    },
    {
      "channel": 1,
      "note": 78,
      "start": 9.7401,
      "duration": 0.0384,
      "velocity": 99,
      "chip": "ym2612"
    },
    {
      "channel": 1,
      "note": 75,
      "start": 9.7954,
      "duration": 0.1169,
      "velocity": 99,
      "chip": "ym2612"
    },
    {
      "channel": 0,
      "note": 57,
      "start": 9.9355,
      "duration": 0.0467,
      "velocity": 99,
      "chip": "ym2612"
    },
    {
      "channel": 1,
      "note": 78,
      "start": 9.9379,
      "duration": 0.0443,
      "velocity": 99,
      "chip": "ym2612"
    },
    {
      "channel": 0,
      "note": 57,
      "start": 9.9931,
      "duration": 0.0461,
      "velocity": 99,
      "chip": "ym2612"
    },
    {
      "channel": 1,
      "note": 75,
      "start": 9.9953,
      "duration": 0.0441,
      "velocity": 99,
      "chip": "ym2612"
    },
    {
      "channel": 4,
      "note": 90,
      "start": 10.0498,
      "duration": 0.5323,
      "velocity": 101,
      "chip": "ym2612"
    },
    {
      "channel": 2,
      "note": 78,
      "start": 10.0526,
      "duration": 0.5296,
      "velocity": 104,
      "chip": "ym2612"
    },
    {
      "channel": 0,
      "note": 57,
      "start": 10.0559,
      "duration": 0.0426,
      "velocity": 99,
      "chip": "ym2612"
    },
    {
      "channel": 1,
      "note": 70,
      "start": 10.0585,
      "duration": 0.04,
      "velocity": 99,
      "chip": "ym2612"
    },
    {
      "channel": 1,
      "note": 75,
      "start": 10.1089,
      "duration": 0.0431,
      "velocity": 99,
      "chip": "ym2612"
    },
    {
      "channel": 0,
      "note": 57,
      "start": 10.1629,
      "duration": 0.0453,
      "velocity": 99,
      "chip": "ym2612"
    },
    {
      "channel": 1,
      "note": 78,
      "start": 10.1651,
      "duration": 0.0432,
      "velocity": 99,
      "chip": "ym2612"
    },
    {
      "channel": 1,
      "note": 75,
      "start": 10.2181,
      "duration": 0.0436,
      "velocity": 99,
      "chip": "ym2612"
    },
    {
      "channel": 1,
      "note": 78,
      "start": 10.2725,
      "duration": 0.0452,
      "velocity": 99,
      "chip": "ym2612"
    },
    {
      "channel": 1,
      "note": 75,
      "start": 10.3409,
      "duration": 0.1169,
      "velocity": 99,
      "chip": "ym2612"
    },
    {
      "channel": 0,
      "note": 57,
      "start": 10.4809,
      "duration": 0.0477,
      "velocity": 99,
      "chip": "ym2612"
    },
    {
      "channel": 1,
      "note": 78,
      "start": 10.4833,
      "duration": 0.0453,
      "velocity": 99,
      "chip": "ym2612"
    },
    {
      "channel": 1,
      "note": 75,
      "start": 10.5397,
      "duration": 0.0424,
      "velocity": 99,
      "chip": "ym2612"
    },
    {
      "channel": 4,
      "note": 87,
      "start": 10.5921,
      "duration": 0.636,
      "velocity": 101,
      "chip": "ym2612"
    },
    {
      "channel": 2,
      "note": 75,
      "start": 10.5948,
      "duration": 0.6334,
      "velocity": 104,
      "chip": "ym2612"
    },
    {
      "channel": 1,
      "note": 70,
      "start": 10.598,
      "duration": 0.0451,
      "velocity": 99,
      "chip": "ym2612"
    },
    {
      "channel": 1,
      "note": 75,
      "start": 10.6663,
      "duration": 0.1168,
      "velocity": 99,
      "chip": "ym2612"
    },
    {
      "channel": 0,
      "note": 57,
      "start": 10.8061,
      "duration": 0.0471,
      "velocity": 99,
      "chip": "ym2612"
    },
    {
      "channel": 1,
      "note": 77,
      "start": 10.8085,
      "duration": 0.0447,
      "velocity": 99,
      "chip": "ym2612"
    },
    {
      "channel": 1,
      "note": 75,
      "start": 10.8644,
      "duration": 0.0349,
      "velocity": 99,
      "chip": "ym2612"
    },
    {
      "channel": 1,
      "note": 77,
      "start": 10.9161,
      "duration": 0.0353,
      "velocity": 99,
      "chip": "ym2612"
    },
    {
      "channel": 1,
      "note": 75,
      "start": 10.9905,
      "duration": 0.0968,
      "velocity": 99,
      "chip": "ym2612"
    },
    {
      "channel": 0,
      "note": 57,
      "start": 11.1305,
      "duration": 0.0427,
      "velocity": 99,
      "chip": "ym2612"
    },
    {
      "channel": 1,
      "note": 77,
      "start": 11.133,
      "duration": 0.0403,
      "velocity": 99,
      "chip": "ym2612"
    },
    {
      "channel": 0,
      "note": 57,
      "start": 11.1844,
      "duration": 0.0434,
      "velocity": 99,
      "chip": "ym2612"
    },
    {
      "channel": 1,
      "note": 75,
      "start": 11.1867,
      "duration": 0.0412,
      "velocity": 99,
      "chip": "ym2612"
    },
    {
      "channel": 4,
      "note": 84,
      "start": 11.239,
      "duration": 2.0346,
      "velocity": 101,
      "chip": "ym2612"
    },
    {
      "channel": 1,
      "note": 69,
      "start": 11.2418,
      "duration": 0.0471,
      "velocity": 99,
      "chip": "ym2612"
    },
    {
      "channel": 3,
      "note": 60,
      "start": 11.2454,
      "duration": 2.2525,
      "velocity": 86,
      "chip": "ym2612"
    },
    {
      "channel": 0,
      "note": 65,
      "start": 11.2478,
      "duration": 2.25,
      "velocity": 86,
      "chip": "ym2612"
    },
    {
      "channel": 2,
      "note": 57,
      "start": 11.2505,
      "duration": 2.2476,
      "velocity": 86,
      "chip": "ym2612"
    },
    {
      "channel": 1,
      "note": 72,
      "start": 11.2991,
      "duration": 0.0443,
      "velocity": 99,
      "chip": "ym2612"
    },
    {
      "channel": 1,
      "note": 77,
      "start": 11.3537,
      "duration": 0.0424,
      "velocity": 99,
      "chip": "ym2612"
    },
    {
      "channel": 1,
      "note": 72,
      "start": 11.4061,
      "duration": 0.0429,
      "velocity": 99,
      "chip": "ym2612"
    },
    {
      "channel": 1,
      "note": 77,
      "start": 11.46,
      "duration": 0.0473,
      "velocity": 99,
      "chip": "ym2612"
    },
    {
      "channel": 1,
      "note": 72,
      "start": 11.5305,
      "duration": 0.1169,
      "velocity": 99,
      "chip": "ym2612"
    },
    {
      "channel": 1,
      "note": 77,
      "start": 11.6705,
      "duration": 0.0469,
      "velocity": 99,
      "chip": "ym2612"
    },
    {
      "channel": 1,
      "note": 72,
      "start": 11.7281,
      "duration": 0.0426,
      "velocity": 99,
      "chip": "ym2612"
    },
    {
      "channel": 1,
      "note": 69,
      "start": 11.781,
      "duration": 0.0533,
      "velocity": 99,
      "chip": "ym2612"
    },
    {
      "channel": 1,
      "note": 72,
      "start": 11.8575,
      "duration": 0.1167,
      "velocity": 99,
      "chip": "ym2612"
    },
    {
      "channel": 1,
      "note": 77,
      "start": 11.9974,
      "duration": 0.0466,
      "velocity": 99,
      "chip": "ym2612"
    },
    {
      "channel": 1,
      "note": 72,
      "start": 12.055,
      "duration": 0.0424,
      "velocity": 99,
      "chip": "ym2612"
    },
    {
      "channel": 1,
      "note": 77,
      "start": 12.108,
      "duration": 0.0529,
      "velocity": 99,
      "chip": "ym2612"
    },
    {
      "channel": 1,
      "note": 72,
      "start": 12.1841,
      "duration": 0.1169,
      "velocity": 99,
      "chip": "ym2612"
    },
    {
      "channel": 1,
      "note": 77,
      "start": 12.3241,
      "duration": 0.0458,
      "velocity": 99,
      "chip": "ym2612"
    },
    {
      "channel": 1,
      "note": 72,
      "start": 12.3811,
      "duration": 0.0377,
      "velocity": 99,
      "chip": "ym2612"
    },
    {
      "channel": 1,
      "note": 69,
      "start": 12.4377,
      "duration": 0.0359,
      "velocity": 99,
      "chip": "ym2612"
    },
    {
      "channel": 1,
      "note": 72,
      "start": 12.4915,
      "duration": 0.0356,
      "velocity": 99,
      "chip": "ym2612"
    },
    {
      "channel": 1,
      "note": 77,
      "start": 12.5454,
      "duration": 0.0369,
      "velocity": 99,
      "chip": "ym2612"
    },
    {
      "channel": 1,
      "note": 72,
      "start": 12.5934,
      "duration": 0.0426,
      "velocity": 99,
      "chip": "ym2612"
    },
    {
      "channel": 1,
      "note": 77,
      "start": 12.6463,
      "duration": 0.0428,
      "velocity": 99,
      "chip": "ym2612"
    },
    {
      "channel": 1,
      "note": 72,
      "start": 12.7059,
      "duration": 0.1168,
      "velocity": 99,
      "chip": "ym2612"
    },
    {
      "channel": 1,
      "note": 77,
      "start": 12.8459,
      "duration": 0.0472,
      "velocity": 99,
      "chip": "ym2612"
    },
    {
      "channel": 1,
      "note": 72,
      "start": 12.9041,
      "duration": 0.0424,
      "velocity": 99,
      "chip": "ym2612"
    },
    {
      "channel": 1,
      "note": 69,
      "start": 12.9569,
      "duration": 0.0532,
      "velocity": 99,
      "chip": "ym2612"
    },
    {
      "channel": 1,
      "note": 72,
      "start": 13.0334,
      "duration": 0.1168,
      "velocity": 99,
      "chip": "ym2612"
    },
    {
      "channel": 1,
      "note": 77,
      "start": 13.1734,
      "duration": 0.0466,
      "velocity": 99,
      "chip": "ym2612"
    },
    {
      "channel": 1,
      "note": 72,
      "start": 13.2308,
      "duration": 0.0427,
      "velocity": 99,
      "chip": "ym2612"
    },
    {
      "channel": 4,
      "note": 76,
      "start": 13.2839,
      "duration": 0.2141,
      "velocity": 101,
      "chip": "ym2612"
    },
    {
      "channel": 1,
      "note": 77,
      "start": 13.2872,
      "duration": 0.0421,
      "velocity": 99,
      "chip": "ym2612"
    },
    {
      "channel": 1,
      "note": 72,
      "start": 13.3396,
      "duration": 0.0476,
      "velocity": 99,
      "chip": "ym2612"
    },
    {
      "channel": 1,
      "note": 77,
      "start": 13.3976,
      "duration": 0.0459,
      "velocity": 99,
      "chip": "ym2612"
    },
    {
      "channel": 1,
      "note": 72,
      "start": 13.4537,
      "duration": 0.0441,
      "velocity": 99,
      "chip": "ym2612"
    },
    {
      "channel": 4,
      "note": 81,
      "start": 13.5102,
      "duration": 0.8364,
      "velocity": 101,
      "chip": "ym2612"
    },
    {
      "channel": 1,
      "note": 69,
      "start": 13.5129,
      "duration": 0.0446,
      "velocity": 99,
      "chip": "ym2612"
    },
    {
      "channel": 0,
      "note": 60,
      "start": 13.5152,
      "duration": 2.3296,
      "velocity": 86,
      "chip": "ym2612"
    },
    {
      "channel": 3,
      "note": 57,
      "start": 13.5188,
      "duration": 2.3262,
      "velocity": 86,
      "chip": "ym2612"
    },
    {
      "channel": 2,
      "note": 64,
      "start": 13.5213,
      "duration": 2.3239,
      "velocity": 86,
      "chip": "ym2612"
    },
    {
      "channel": 1,
      "note": 72,
      "start": 13.5685,
      "duration": 0.0417,
      "velocity": 99,
      "chip": "ym2612"
    },
    {
      "channel": 1,
      "note": 76,
      "start": 13.6201,
      "duration": 0.0449,
      "velocity": 99,
      "chip": "ym2612"
    },
    {
      "channel": 1,
      "note": 72,
      "start": 13.6755,
      "duration": 0.0351,
      "velocity": 99,
      "chip": "ym2612"
    },
    {
      "channel": 1,
      "note": 76,
      "start": 13.7288,
      "duration": 0.0351,
      "velocity": 99,
      "chip": "ym2612"
    },
    {
      "channel": 1,
      "note": 72,
      "start": 13.8003,
      "duration": 0.0969,
      "velocity": 99,
      "chip": "ym2612"
    },
    {
      "channel": 1,
      "note": 76,
      "start": 13.9404,
      "duration": 0.0393,
      "velocity": 99,
      "chip": "ym2612"
    },
    {
      "channel": 1,
      "note": 72,
      "start": 13.9977,
      "duration": 0.0351,
      "velocity": 99,
      "chip": "ym2612"
    },
    {
      "channel": 1,
      "note": 69,
      "start": 14.0441,
      "duration": 0.0418,
      "velocity": 99,
      "chip": "ym2612"
    },
    {
      "channel": 1,
      "note": 72,
      "start": 14.1066,
      "duration": 0.1168,
      "velocity": 99,
      "chip": "ym2612"
    },
    {
      "channel": 1,
      "note": 76,
      "start": 14.2466,
      "duration": 0.0464,
      "velocity": 99,
      "chip": "ym2612"
    },
    {
      "channel": 1,
      "note": 72,
      "start": 14.3041,
      "duration": 0.0424,
      "velocity": 99,
      "chip": "ym2612"
    },
    {
      "channel": 4,
      "note": 83,
      "start": 14.3569,
      "duration": 0.3178,
      "velocity": 101,
      "chip": "ym2612"
    },
    {
      "channel": 1,
      "note": 76,
      "start": 14.3603,
      "duration": 0.0493,
      "velocity": 99,
      "chip": "ym2612"
    },
    {
      "channel": 1,
      "note": 72,
      "start": 14.4328,
      "duration": 0.1169,
      "velocity": 99,
      "chip": "ym2612"
    },
    {
      "channel": 1,
      "note": 76,
      "start": 14.5729,
      "duration": 0.0454,
      "velocity": 99,
      "chip": "ym2612"
    },
    {
      "channel": 1,
      "note": 72,
      "start": 14.6294,
      "duration": 0.0451,
      "velocity": 99,
      "chip": "ym2612"
    },
    {
      "channel": 4,
      "note": 84,
      "start": 14.6853,
      "duration": 0.5178,
      "velocity": 101,
      "chip": "ym2612"
    },
    {
      "channel": 1,
      "note": 69,
      "start": 14.6879,
      "duration": 0.0418,
      "velocity": 99,
      "chip": "ym2612"
    },
    {
      "channel": 1,
      "note": 72,
      "start": 14.7404,
      "duration": 0.0427,
      "velocity": 99,
      "chip": "ym2612"
    },
    {
      "channel": 1,
      "note": 76,
      "start": 14.7923,
      "duration": 0.0443,
      "velocity": 99,
      "chip": "ym2612"
    },
    {
      "channel": 1,
      "note": 72,
      "start": 14.8465,
      "duration": 0.0427,
      "velocity": 99,
      "chip": "ym2612"
    },
    {
      "channel": 1,
      "note": 76,
      "start": 14.9001,
      "duration": 0.048,
      "velocity": 99,
      "chip": "ym2612"
    },
    {
      "channel": 1,
      "note": 72,
      "start": 14.9712,
      "duration": 0.1168,
      "velocity": 99,
      "chip": "ym2612"
    },
    {
      "channel": 1,
      "note": 76,
      "start": 15.1112,
      "duration": 0.0455,
      "velocity": 99,
      "chip": "ym2612"
    },
    {
      "channel": 1,
      "note": 72,
      "start": 15.1677,
      "duration": 0.0352,
      "velocity": 99,
      "chip": "ym2612"
    },
    {
      "channel": 4,
      "note": 81,
      "start": 15.2204,
      "duration": 0.6246,
      "velocity": 101,
      "chip": "ym2612"
    },
    {
      "channel": 1,
      "note": 69,
      "start": 15.2236,
      "duration": 0.0338,
      "velocity": 99,
      "chip": "ym2612"
    },
    {
      "channel": 1,
      "note": 72,
      "start": 15.2972,
      "duration": 0.0968,
      "velocity": 99,
      "chip": "ym2612"
    },
    {
      "channel": 1,
      "note": 76,
      "start": 15.4372,
      "duration": 0.0393,
      "velocity": 99,
      "chip": "ym2612"
    },
    {
      "channel": 1,
      "note": 72,
      "start": 15.4946,
      "duration": 0.0351,
      "velocity": 99,
      "chip": "ym2612"
    },
    {
      "channel": 1,
      "note": 76,
      "start": 15.541,
      "duration": 0.0418,
      "velocity": 99,
      "chip": "ym2612"
    },
    {
      "channel": 1,
      "note": 72,
      "start": 15.6036,
      "duration": 0.1168,
      "velocity": 99,
      "chip": "ym2612"
    },
    {
      "channel": 1,
      "note": 76,
      "start": 15.7436,
      "duration": 0.046,
      "velocity": 99,
      "chip": "ym2612"
    },
    {
      "channel": 1,
      "note": 72,
      "start": 15.8007,
      "duration": 0.0442,
      "velocity": 99,
      "chip": "ym2612"
    },
    {
      "channel": 4,
      "note": 75,
      "start": 15.8561,
      "duration": 1.9841,
      "velocity": 101,
      "chip": "ym2612"
    },
    {
      "channel": 1,
      "note": 67,
      "start": 15.8588,
      "duration": 0.0458,
      "velocity": 99,
      "chip": "ym2612"
    },
    {
      "channel": 0,
      "note": 63,
      "start": 15.8615,
      "duration": 2.362,
      "velocity": 86,
      "chip": "ym2612"
    },
    {
      "channel": 3,
      "note": 67,
      "start": 15.8639,
      "duration": 2.3597,
      "velocity": 86,
      "chip": "ym2612"
    },
    {
      "channel": 2,
      "note": 60,
      "start": 15.8674,
      "duration": 2.3563,
      "velocity": 86,
      "chip": "ym2612"
    },
    {
      "channel": 1,
      "note": 72,
      "start": 15.9158,
      "duration": 0.0413,
      "velocity": 99,
      "chip": "ym2612"
    },
    {
      "channel": 1,
      "note": 75,
      "start": 15.9672,
      "duration": 0.0445,
      "velocity": 99,
      "chip": "ym2612"
    },
    {
      "channel": 1,
      "note": 72,
      "start": 16.0217,
      "duration": 0.0422,
      "velocity": 99,
      "chip": "ym2612"
    },
    {
      "channel": 1,
      "note": 75,
      "start": 16.0748,
      "duration": 0.0476,
      "velocity": 99,
      "chip": "ym2612"
    },
    {
      "channel": 1,
      "note": 72,
      "start": 16.1456,
      "duration": 0.1167,
      "velocity": 99,
      "chip": "ym2612"
    },
    {
      "channel": 1,
      "note": 75,
      "start": 16.2854,
      "duration": 0.0457,
      "velocity": 99,
      "chip": "ym2612"
    },
    {
      "channel": 1,
      "note": 72,
      "start": 16.3422,
      "duration": 0.0423,
      "velocity": 99,
      "chip": "ym2612"
    },
    {
      "channel": 1,
      "note": 67,
      "start": 16.3949,
      "duration": 0.0531,
      "velocity": 99,
      "chip": "ym2612"
    },
    {
      "channel": 1,
      "note": 72,
      "start": 16.4712,
      "duration": 0.1168,
      "velocity": 99,
      "chip": "ym2612"
    },
    {
      "channel": 1,
      "note": 75,
      "start": 16.6113,
      "duration": 0.0452,
      "velocity": 99,
      "chip": "ym2612"
    },
    {
      "channel": 1,
      "note": 72,
      "start": 16.6676,
      "duration": 0.0424,
      "velocity": 99,
      "chip": "ym2612"
    },
    {
      "channel": 1,
      "note": 75,
      "start": 16.7205,
      "duration": 0.0357,
      "velocity": 99,
      "chip": "ym2612"
    },
    {
      "channel": 1,
      "note": 72,
      "start": 16.7965,
      "duration": 0.0968,
      "velocity": 99,
      "chip": "ym2612"
    },
    {
      "channel": 1,
      "note": 75,
      "start": 16.9365,
      "duration": 0.0379,
      "velocity": 99,
      "chip": "ym2612"
    },
    {
      "channel": 1,
      "note": 72,
      "start": 16.9932,
      "duration": 0.0368,
      "velocity": 99,
      "chip": "ym2612"
    },
    {
      "channel": 1,
      "note": 67,
      "start": 17.0415,
      "duration": 0.0453,
      "velocity": 99,
      "chip": "ym2612"
    },
    {
      "channel": 1,
      "note": 72,
      "start": 17.0959,
      "duration": 0.0423,
      "velocity": 99,
      "chip": "ym2612"
    },
    {
      "channel": 1,
      "note": 75,
      "start": 17.1494,
      "duration": 0.0449,
      "velocity": 99,
      "chip": "ym2612"
    },
    {
      "channel": 1,
      "note": 72,
      "start": 17.2047,
      "duration": 0.0418,
      "velocity": 99,
      "chip": "ym2612"
    },
    {
      "channel": 1,
      "note": 75,
      "start": 17.2565,
      "duration": 0.0495,
      "velocity": 99,
      "chip": "ym2612"
    },
    {
      "channel": 1,
      "note": 72,
      "start": 17.3292,
      "duration": 0.1168,
      "velocity": 99,
      "chip": "ym2612"
    },
    {
      "channel": 1,
      "note": 75,
      "start": 17.4692,
      "duration": 0.0454,
      "velocity": 99,
      "chip": "ym2612"
    },
    {
      "channel": 1,
      "note": 72,
      "start": 17.5257,
      "duration": 0.0425,
      "velocity": 99,
      "chip": "ym2612"
    },
    {
      "channel": 1,
      "note": 67,
      "start": 17.5787,
      "duration": 0.0525,
      "velocity": 99,
      "chip": "ym2612"
    },
    {
      "channel": 1,
      "note": 72,
      "start": 17.6544,
      "duration": 0.1168,
      "velocity": 99,
      "chip": "ym2612"
    },
    {
      "channel": 1,
      "note": 75,
      "start": 17.7944,
      "duration": 0.0458,
      "velocity": 99,
      "chip": "ym2612"
    },
    {
      "channel": 1,
      "note": 72,
      "start": 17.8507,
      "duration": 0.042,
      "velocity": 99,
      "chip": "ym2612"
    },
    {
      "channel": 4,
      "note": 84,
      "start": 17.9035,
      "duration": 0.1929,
      "velocity": 101,
      "chip": "ym2612"
    },
    {
      "channel": 1,
      "note": 75,
      "start": 17.9068,
      "duration": 0.0495,
      "velocity": 99,
      "chip": "ym2612"
    },
    {
      "channel": 1,
      "note": 72,
      "start": 17.9795,
      "duration": 0.1167,
      "velocity": 99,
      "chip": "ym2612"
    },
    {
      "channel": 4,
      "note": 86,
      "start": 18.1192,
      "duration": 0.1044,
      "velocity": 101,
      "chip": "ym2612"
    },
    {
      "channel": 1,
      "note": 75,
      "start": 18.122,
      "duration": 0.0443,
      "velocity": 99,
      "chip": "ym2612"
    },
    {
      "channel": 1,
      "note": 72,
      "start": 18.1781,
      "duration": 0.0454,
      "velocity": 99,
      "chip": "ym2612"
    },
    {
      "channel": 4,
      "note": 87,
      "start": 18.233,
      "duration": 0.837,
      "velocity": 101,
      "chip": "ym2612"
    },
    {
      "channel": 1,
      "note": 70,
      "start": 18.2365,
      "duration": 0.0373,
      "velocity": 99,
      "chip": "ym2612"
    },
    {
      "channel": 0,
      "note": 66,
      "start": 18.2392,
      "duration": 2.3331,
      "velocity": 86,
      "chip": "ym2612"
    },
    {
      "channel": 3,
      "note": 70,
      "start": 18.2415,
      "duration": 2.3309,
      "velocity": 86,
      "chip": "ym2612"
    },
    {
      "channel": 2,
      "note": 63,
      "start": 18.2442,
      "duration": 2.3284,
      "velocity": 86,
      "chip": "ym2612"
    },
    {
      "channel": 1,
      "note": 75,
      "start": 18.2918,
      "duration": 0.0346,
      "velocity": 99,
      "chip": "ym2612"
    },
    {
      "channel": 1,
      "note": 78,
      "start": 18.3439,
      "duration": 0.0378,
      "velocity": 99,
      "chip": "ym2612"
    },
    {
      "channel": 1,
      "note": 75,
      "start": 18.3996,
      "duration": 0.0356,
      "velocity": 99,
      "chip": "ym2612"
    },
    {
      "channel": 1,
      "note": 78,
      "start": 18.4456,
      "duration": 0.0434,
      "velocity": 99,
      "chip": "ym2612"
    },
    {
      "channel": 1,
      "note": 75,
      "start": 18.505,
      "duration": 0.1168,
      "velocity": 99,
      "chip": "ym2612"
    },
    {
      "channel": 1,
      "note": 78,
      "start": 18.645,
      "duration": 0.0462,
      "velocity": 99,
      "chip": "ym2612"
    },
    {
      "channel": 1,
      "note": 75,
      "start": 18.7022,
      "duration": 0.0424,
      "velocity": 99,
      "chip": "ym2612"
    },
    {
      "channel": 1,
      "note": 70,
      "start": 18.755,
      "duration": 0.0528,
      "velocity": 99,
      "chip": "ym2612"
    },
    {
      "channel": 1,
      "note": 75,
      "start": 18.831,
      "duration": 0.1168,
      "velocity": 99,
      "chip": "ym2612"
    },
    {
      "channel": 1,
      "note": 78,
      "start": 18.971,
      "duration": 0.0455,
      "velocity": 99,
      "chip": "ym2612"
    },
    {
      "channel": 1,
      "note": 75,
      "start": 19.0275,
      "duration": 0.0424,
      "velocity": 99,
      "chip": "ym2612"
    },
    {
      "channel": 4,
      "note": 89,
      "start": 19.0803,
      "duration": 0.3195,
      "velocity": 101,
      "chip": "ym2612"
    },
    {
      "channel": 1,
      "note": 78,
      "start": 19.0837,
      "duration": 0.0497,
      "velocity": 99,
      "chip": "ym2612"
    },
    {
      "channel": 1,
      "note": 75,
      "start": 19.1566,
      "duration": 0.1169,
      "velocity": 99,
      "chip": "ym2612"
    },
    {
      "channel": 1,
      "note": 78,
      "start": 19.2966,
      "duration": 0.0457,
      "velocity": 99,
      "chip": "ym2612"
    },
    {
      "channel": 1,
      "note": 75,
      "start": 19.3538,
      "duration": 0.0459,
      "velocity": 99,
      "chip": "ym2612"
    },
    {
      "channel": 4,
      "note": 90,
      "start": 19.4107,
      "duration": 0.5213,
      "velocity": 101,
      "chip": "ym2612"
    },
    {
      "channel": 1,
      "note": 70,
      "start": 19.4134,
      "duration": 0.0426,
      "velocity": 99,
      "chip": "ym2612"
    },
    {
      "channel": 1,
      "note": 75,
      "start": 19.4665,
      "duration": 0.0442,
      "velocity": 99,
      "chip": "ym2612"
    },
    {
      "channel": 1,
      "note": 78,
      "start": 19.52,
      "duration": 0.0449,
      "velocity": 99,
      "chip": "ym2612"
    },
    {
      "channel": 1,
      "note": 75,
      "start": 19.5752,
      "duration": 0.0428,
      "velocity": 99,
      "chip": "ym2612"
    },
    {
      "channel": 1,
      "note": 78,
      "start": 19.6292,
      "duration": 0.0346,
      "velocity": 99,
      "chip": "ym2612"
    },
    {
      "channel": 1,
      "note": 75,
      "start": 19.7001,
      "duration": 0.0968,
      "velocity": 99,
      "chip": "ym2612"
    },
    {
      "channel": 1,
      "note": 78,
      "start": 19.84,
      "duration": 0.0388,
      "velocity": 99,
      "chip": "ym2612"
    },
    {
      "channel": 1,
      "note": 75,
      "start": 19.8968,
      "duration": 0.0351,
      "velocity": 99,
      "chip": "ym2612"
    },
    {
      "channel": 4,
      "note": 94,
      "start": 19.9427,
      "duration": 0.6298,
      "velocity": 101,
      "chip": "ym2612"
    },
    {
      "channel": 1,
      "note": 70,
      "start": 19.9453,
      "duration": 0.0405,
      "velocity": 99,
      "chip": "ym2612"
    },
    {
      "channel": 1,
      "note": 75,
      "start": 20.0051,
      "duration": 0.1168,
      "velocity": 99,
      "chip": "ym2612"
    },
    {
      "channel": 1,
      "note": 77,
      "start": 20.1452,
      "duration": 0.0457,
      "velocity": 99,
      "chip": "ym2612"
    },
    {
      "channel": 1,
      "note": 75,
      "start": 20.2015,
      "duration": 0.0421,
      "velocity": 99,
      "chip": "ym2612"
    },
    {
      "channel": 1,
      "note": 77,
      "start": 20.2539,
      "duration": 0.0532,
      "velocity": 99,
      "chip": "ym2612"
    },
    {
      "channel": 1,
      "note": 75,
      "start": 20.3303,
      "duration": 0.1168,
      "velocity": 99,
      "chip": "ym2612"
    },
    {
      "channel": 1,
      "note": 77,
      "start": 20.4704,
      "duration": 0.0454,
      "velocity": 99,
      "chip": "ym2612"
    },
    {
      "channel": 1,
      "note": 75,
      "start": 20.5272,
      "duration": 0.0451,
      "velocity": 99,
      "chip": "ym2612"
    },
    {
      "channel": 4,
      "note": 93,
      "start": 20.5836,
      "duration": 1.9425,
      "velocity": 101,
      "chip": "ym2612"
    },
    {
      "channel": 1,
      "note": 69,
      "start": 20.5863,
      "duration": 0.0442,
      "velocity": 99,
      "chip": "ym2612"
    },
    {
      "channel": 0,
      "note": 69,
      "start": 20.5889,
      "duration": 1.065,
      "velocity": 86,
      "chip": "ym2612"
    },
    {
      "channel": 3,
      "note": 60,
      "start": 20.5925,
      "duration": 1.0615,
      "velocity": 86,
      "chip": "ym2612"
    },
    {
      "channel": 2,
      "note": 65,
      "start": 20.5952,
      "duration": 1.059,
      "velocity": 86,
      "chip": "ym2612"
    },
    {
      "channel": 1,
      "note": 72,
      "start": 20.6417,
      "duration": 0.0413,
      "velocity": 99,
      "chip": "ym2612"
    },
    {
      "channel": 1,
      "note": 77,
      "start": 20.6935,
      "duration": 0.0455,
      "velocity": 99,
      "chip": "ym2612"
    },
    {
      "channel": 1,
      "note": 72,
      "start": 20.7501,
      "duration": 0.0418,
      "velocity": 99,
      "chip": "ym2612"
    },
    {
      "channel": 1,
      "note": 77,
      "start": 20.8023,
      "duration": 0.0508,
      "velocity": 99,
      "chip": "ym2612"
    },
    {
      "channel": 1,
      "note": 72,
      "start": 20.8763,
      "duration": 0.1168,
      "velocity": 99,
      "chip": "ym2612"
    },
    {
      "channel": 1,
      "note": 77,
      "start": 21.0163,
      "duration": 0.0461,
      "velocity": 99,
      "chip": "ym2612"
    },
    {
      "channel": 1,
      "note": 72,
      "start": 21.0733,
      "duration": 0.0426,
      "velocity": 99,
      "chip": "ym2612"
    },
    {
      "channel": 1,
      "note": 69,
      "start": 21.1264,
      "duration": 0.036,
      "velocity": 99,
      "chip": "ym2612"
    },
    {
      "channel": 1,
      "note": 72,
      "start": 21.2033,
      "duration": 0.0968,
      "velocity": 99,
      "chip": "ym2612"
    },
    {
      "channel": 1,
      "note": 77,
      "start": 21.3434,
      "duration": 0.0392,
      "velocity": 99,
      "chip": "ym2612"
    },
    {
      "channel": 1,
      "note": 72,
      "start": 21.4007,
      "duration": 0.0354,
      "velocity": 99,
      "chip": "ym2612"
    },
    {
      "channel": 1,
      "note": 77,
      "start": 21.4471,
      "duration": 0.0431,
      "velocity": 99,
      "chip": "ym2612"
    },
    {
      "channel": 1,
      "note": 72,
      "start": 21.5001,
      "duration": 0.0449,
      "velocity": 99,
      "chip": "ym2612"
    },
    {
      "channel": 1,
      "note": 77,
      "start": 21.554,
      "duration": 0.0442,
      "velocity": 99,
      "chip": "ym2612"
    },
    {
      "channel": 1,
      "note": 72,
      "start": 21.6085,
      "duration": 0.0455,
      "velocity": 99,
      "chip": "ym2612"
    },
    {
      "channel": 1,
      "note": 69,
      "start": 21.6645,
      "duration": 0.0491,
      "velocity": 99,
      "chip": "ym2612"
    },
    {
      "channel": 0,
      "note": 81,
      "start": 21.668,
      "duration": 0.8579,
      "velocity": 86,
      "chip": "ym2612"
    },
    {
      "channel": 3,
      "note": 72,
      "start": 21.6703,
      "duration": 0.8558,
      "velocity": 86,
      "chip": "ym2612"
    },
    {
      "channel": 2,
      "note": 78,
      "start": 21.6731,
      "duration": 0.8532,
      "velocity": 86,
      "chip": "ym2612"
    },
    {
      "channel": 1,
      "note": 72,
      "start": 21.7244,
      "duration": 0.0415,
      "velocity": 99,
      "chip": "ym2612"
    },
    {
      "channel": 1,
      "note": 77,
      "start": 21.7759,
      "duration": 0.0446,
      "velocity": 99,
      "chip": "ym2612"
    },
    {
      "channel": 1,
      "note": 72,
      "start": 21.8312,
      "duration": 0.0439,
      "velocity": 99,
      "chip": "ym2612"
    },
    {
      "channel": 1,
      "note": 77,
      "start": 21.8854,
      "duration": 0.0447,
      "velocity": 99,
      "chip": "ym2612"
    },
    {
      "channel": 1,
      "note": 72,
      "start": 21.9406,
      "duration": 0.0457,
      "velocity": 99,
      "chip": "ym2612"
    },
    {
      "channel": 1,
      "note": 77,
      "start": 21.9957,
      "duration": 0.045,
      "velocity": 99,
      "chip": "ym2612"
    },
    {
      "channel": 1,
      "note": 72,
      "start": 22.0508,
      "duration": 0.0421,
      "velocity": 99,
      "chip": "ym2612"
    },
    {
      "channel": 1,
      "note": 69,
      "start": 22.1038,
      "duration": 0.0443,
      "velocity": 99,
      "chip": "ym2612"
    },
    {
      "channel": 1,
      "note": 72,
      "start": 22.1571,
      "duration": 0.046,
      "velocity": 99,
      "chip": "ym2612"
    },
    {
      "channel": 1,
      "note": 77,
      "start": 22.212,
      "duration": 0.0449,
      "velocity": 99,
      "chip": "ym2612"
    },
    {
      "channel": 1,
      "note": 72,
      "start": 22.2672,
      "duration": 0.0449,
      "velocity": 99,
      "chip": "ym2612"
    },
    {
      "channel": 1,
      "note": 77,
      "start": 22.3225,
      "duration": 0.0372,
      "velocity": 99,
      "chip": "ym2612"
    },
    {
      "channel": 1,
      "note": 72,
      "start": 22.3774,
      "duration": 0.0383,
      "velocity": 99,
      "chip": "ym2612"
    },
    {
      "channel": 1,
      "note": 77,
      "start": 22.4335,
      "duration": 0.0376,
      "velocity": 99,
      "chip": "ym2612"
    },
    {
      "channel": 1,
      "note": 72,
      "start": 22.4904,
      "duration": 0.0356,
      "velocity": 99,
      "chip": "ym2612"
    },
    {
      "channel": 4,
      "note": 70,
      "start": 22.5372,
      "duration": 0.04,
      "velocity": 101,
      "chip": "ym2612"
    },
    {
      "channel": 0,
      "note": 46,
      "start": 22.54,
      "duration": 3.6279,
      "velocity": 104,
      "chip": "ym2612"
    },
    {
      "channel": 1,
      "note": 58,
      "start": 22.5425,
      "duration": 3.6255,
      "velocity": 104,
      "chip": "ym2612"
    },
    {
      "channel": 3,
      "note": 58,
      "start": 22.5462,
      "duration": 0.0309,
      "velocity": 99,
      "chip": "ym2612"
    },
    {
      "channel": 4,
      "note": 70,
      "start": 22.5937,
      "duration": 0.0376,
      "velocity": 101,
      "chip": "ym2612"
    },
    {
      "channel": 3,
      "note": 58,
      "start": 22.596,
      "duration": 0.0352,
      "velocity": 99,
      "chip": "ym2612"
    },
    {
      "channel": 4,
      "note": 70,
      "start": 22.6493,
      "duration": 0.0384,
      "velocity": 101,
      "chip": "ym2612"
    },
    {
      "channel": 3,
      "note": 58,
      "start": 22.6529,
      "duration": 0.0347,
      "velocity": 99,
      "chip": "ym2612"
    },
    {
      "channel": 2,
      "note": 106,
      "start": 22.7586,
      "duration": 0.029,
      "velocity": 105,
      "chip": "ym2612"
    },
    {
      "channel": 3,
      "note": 94,
      "start": 22.7616,
      "duration": 0.0259,
      "velocity": 105,
      "chip": "ym2612"
    },
    {
      "channel": 4,
      "note": 70,
      "start": 24.6473,
      "duration": 0.0331,
      "velocity": 101,
      "chip": "ym2612"
    },
    {
      "channel": 3,
      "note": 58,
      "start": 24.6503,
      "duration": 0.03,
      "velocity": 99,
      "chip": "ym2612"
    },
    {
      "channel": 4,
      "note": 70,
      "start": 24.7055,
      "duration": 0.0307,
      "velocity": 101,
      "chip": "ym2612"
    },
    {
      "channel": 3,
      "note": 58,
      "start": 24.708,
      "duration": 0.0282,
      "velocity": 99,
      "chip": "ym2612"
    },
    {
      "channel": 4,
      "note": 70,
      "start": 24.7553,
      "duration": 0.0367,
      "velocity": 101,
      "chip": "ym2612"
    },
    {
      "channel": 3,
      "note": 58,
      "start": 24.7578,
      "duration": 0.0341,
      "velocity": 99,
      "chip": "ym2612"
    },
    {
      "channel": 2,
      "note": 106,
      "start": 24.8618,
      "duration": 0.0298,
      "velocity": 105,
      "chip": "ym2612"
    },
    {
      "channel": 3,
      "note": 94,
      "start": 24.8654,
      "duration": 0.0261,
      "velocity": 105,
      "chip": "ym2612"
    },
    {
      "channel": 4,
      "note": 70,
      "start": 26.1911,
      "duration": 0.0445,
      "velocity": 101,
      "chip": "ym2612"
    },
    {
      "channel": 0,
      "note": 46,
      "start": 26.194,
      "duration": 0.9689,
      "velocity": 104,
      "chip": "ym2612"
    },
    {
      "channel": 1,
      "note": 58,
      "start": 26.1969,
      "duration": 0.9661,
      "velocity": 104,
      "chip": "ym2612"
    },
    {
      "channel": 3,
      "note": 58,
      "start": 26.1999,
      "duration": 0.0356,
      "velocity": 99,
      "chip": "ym2612"
    },
    {
      "channel": 4,
      "note": 70,
      "start": 26.2524,
      "duration": 0.0319,
      "velocity": 101,
      "chip": "ym2612"
    },
    {
      "channel": 3,
      "note": 58,
      "start": 26.2549,
      "duration": 0.0292,
      "velocity": 99,
      "chip": "ym2612"
    },
    {
      "channel": 4,
      "note": 70,
      "start": 26.3094,
      "duration": 0.0308,
      "velocity": 101,
      "chip": "ym2612"
    },
    {
      "channel": 3,
      "note": 58,
      "start": 26.312,
      "duration": 0.0282,
      "velocity": 99,
      "chip": "ym2612"
    },
    {
      "channel": 2,
      "note": 106,
      "start": 26.4185,
      "duration": 0.0208,
      "velocity": 105,
      "chip": "ym2612"
    },
    {
      "channel": 3,
      "note": 94,
      "start": 26.4213,
      "duration": 0.0179,
      "velocity": 105,
      "chip": "ym2612"
    },
    {
      "channel": 4,
      "note": 70,
      "start": 26.627,
      "duration": 0.0331,
      "velocity": 101,
      "chip": "ym2612"
    },
    {
      "channel": 3,
      "note": 58,
      "start": 26.63,
      "duration": 0.03,
      "velocity": 99,
      "chip": "ym2612"
    },
    {
      "channel": 4,
      "note": 70,
      "start": 26.6852,
      "duration": 0.0307,
      "velocity": 101,
      "chip": "ym2612"
    },
    {
      "channel": 3,
      "note": 58,
      "start": 26.6877,
      "duration": 0.0282,
      "velocity": 99,
      "chip": "ym2612"
    },
    {
      "channel": 4,
      "note": 70,
      "start": 26.7334,
      "duration": 0.0382,
      "velocity": 101,
      "chip": "ym2612"
    },
    {
      "channel": 3,
      "note": 58,
      "start": 26.7368,
      "duration": 0.0348,
      "velocity": 99,
      "chip": "ym2612"
    },
    {
      "channel": 4,
      "note": 70,
      "start": 26.7892,
      "duration": 0.0386,
      "velocity": 101,
      "chip": "ym2612"
    },
    {
      "channel": 3,
      "note": 58,
      "start": 26.7915,
      "duration": 0.0362,
      "velocity": 99,
      "chip": "ym2612"
    },
    {
      "channel": 4,
      "note": 70,
      "start": 26.8451,
      "duration": 0.0406,
      "velocity": 101,
      "chip": "ym2612"
    },
    {
      "channel": 3,
      "note": 58,
      "start": 26.8476,
      "duration": 0.038,
      "velocity": 99,
      "chip": "ym2612"
    },
    {
      "channel": 4,
      "note": 70,
      "start": 26.9021,
      "duration": 0.0385,
      "velocity": 101,
      "chip": "ym2612"
    },
    {
      "channel": 3,
      "note": 58,
      "start": 26.9044,
      "duration": 0.0361,
      "velocity": 99,
      "chip": "ym2612"
    },
    {
      "channel": 4,
      "note": 70,
      "start": 26.9582,
      "duration": 0.0385,
      "velocity": 101,
      "chip": "ym2612"
    },
    {
      "channel": 3,
      "note": 58,
      "start": 26.9615,
      "duration": 0.0351,
      "velocity": 99,
      "chip": "ym2612"
    },
    {
      "channel": 4,
      "note": 70,
      "start": 27.0665,
      "duration": 0.0373,
      "velocity": 101,
      "chip": "ym2612"
    },
    {
      "channel": 3,
      "note": 58,
      "start": 27.0689,
      "duration": 0.0348,
      "velocity": 99,
      "chip": "ym2612"
    },
    {
      "channel": 4,
      "note": 84,
      "start": 27.174,
      "duration": 1.2796,
      "velocity": 101,
      "chip": "ym2612"
    },
    {
      "channel": 2,
      "note": 83,
      "start": 27.177,
      "duration": 2.0274,
      "velocity": 101,
      "chip": "ym2612"
    },
    {
      "channel": 0,
      "note": 69,
      "start": 27.1796,
      "duration": 2.0246,
      "velocity": 104,
      "chip": "ym2612"
    },
    {
      "channel": 3,
      "note": 57,
      "start": 27.1818,
      "duration": 0.0318,
      "velocity": 99,
      "chip": "ym2612"
    },
    {
      "channel": 1,
      "note": 105,
      "start": 27.1855,
      "duration": 0.0216,
      "velocity": 105,
      "chip": "ym2612"
    },
    {
      "channel": 3,
      "note": 57,
      "start": 27.2826,
      "duration": 0.0375,
      "velocity": 99,
      "chip": "ym2612"
    },
    {
      "channel": 3,
      "note": 57,
      "start": 27.3381,
      "duration": 0.0377,
      "velocity": 99,
      "chip": "ym2612"
    },
    {
      "channel": 3,
      "note": 57,
      "start": 27.3935,
      "duration": 0.0381,
      "velocity": 99,
      "chip": "ym2612"
    },
    {
      "channel": 3,
      "note": 57,
      "start": 27.5018,
      "duration": 0.0301,
      "velocity": 99,
      "chip": "ym2612"
    },
    {
      "channel": 3,
      "note": 57,
      "start": 27.6091,
      "duration": 0.0304,
      "velocity": 99,
      "chip": "ym2612"
    },
    {
      "channel": 3,
      "note": 57,
      "start": 27.6646,
      "duration": 0.0294,
      "velocity": 99,
      "chip": "ym2612"
    },
    {
      "channel": 3,
      "note": 57,
      "start": 27.7191,
      "duration": 0.0313,
      "velocity": 99,
      "chip": "ym2612"
    },
    {
      "channel": 3,
      "note": 57,
      "start": 27.8194,
      "duration": 0.0368,
      "velocity": 99,
      "chip": "ym2612"
    },
    {
      "channel": 3,
      "note": 57,
      "start": 27.9256,
      "duration": 0.0377,
      "velocity": 99,
      "chip": "ym2612"
    },
    {
      "channel": 3,
      "note": 57,
      "start": 28.0325,
      "duration": 0.038,
      "velocity": 99,
      "chip": "ym2612"
    },
    {
      "channel": 3,
      "note": 57,
      "start": 28.1395,
      "duration": 0.0375,
      "velocity": 99,
      "chip": "ym2612"
    },
    {
      "channel": 3,
      "note": 57,
      "start": 28.1943,
      "duration": 0.0373,
      "velocity": 99,
      "chip": "ym2612"
    },
    {
      "channel": 3,
      "note": 57,
      "start": 28.2499,
      "duration": 0.036,
      "velocity": 99,
      "chip": "ym2612"
    },
    {
      "channel": 3,
      "note": 57,
      "start": 28.3573,
      "duration": 0.037,
      "velocity": 99,
      "chip": "ym2612"
    },
    {
      "channel": 4,
      "note": 86,
      "start": 28.4636,
      "duration": 0.4144,
      "velocity": 101,
      "chip": "ym2612"
    },
    {
      "channel": 3,
      "note": 57,
      "start": 28.4661,
      "duration": 0.035,
      "velocity": 99,
      "chip": "ym2612"
    },
    {
      "channel": 3,
      "note": 57,
      "start": 28.5184,
      "duration": 0.0305,
      "velocity": 99,
      "chip": "ym2612"
    },
    {
      "channel": 3,
      "note": 57,
      "start": 28.5746,
      "duration": 0.029,
      "velocity": 99,
      "chip": "ym2612"
    },
    {
      "channel": 3,
      "note": 57,
      "start": 28.6807,
      "duration": 0.0299,
      "velocity": 99,
      "chip": "ym2612"
    },
    {
      "channel": 3,
      "note": 57,
      "start": 28.7876,
      "duration": 0.0306,
      "velocity": 99,
      "chip": "ym2612"
    },
    {
      "channel": 4,
      "note": 88,
      "start": 28.8886,
      "duration": 0.4219,
      "velocity": 101,
      "chip": "ym2612"
    },
    {
      "channel": 3,
      "note": 57,
      "start": 28.891,
      "duration": 0.0344,
      "velocity": 99,
      "chip": "ym2612"
    },
    {
      "channel": 3,
      "note": 57,
      "start": 28.9964,
      "duration": 0.037,
      "velocity": 99,
      "chip": "ym2612"
    },
    {
      "channel": 3,
      "note": 57,
      "start": 29.0509,
      "duration": 0.0385,
      "velocity": 99,
      "chip": "ym2612"
    },
    {
      "channel": 3,
      "note": 57,
      "start": 29.1072,
      "duration": 0.0381,
      "velocity": 99,
      "chip": "ym2612"
    },
    {
      "channel": 3,
      "note": 57,
      "start": 29.2146,
      "duration": 0.0366,
      "velocity": 99,
      "chip": "ym2612"
    },
    {
      "channel": 4,
      "note": 89,
      "start": 29.3211,
      "duration": 1.2987,
      "velocity": 101,
      "chip": "ym2612"
    },
    {
      "channel": 3,
      "note": 57,
      "start": 29.3248,
      "duration": 0.038,
      "velocity": 99,
      "chip": "ym2612"
    },
    {
      "channel": 1,
      "note": 68,
      "start": 29.3277,
      "duration": 1.292,
      "velocity": 86,
      "chip": "ym2612"
    },
    {
      "channel": 0,
      "note": 62,
      "start": 29.3301,
      "duration": 1.2895,
      "velocity": 86,
      "chip": "ym2612"
    },
    {
      "channel": 2,
      "note": 71,
      "start": 29.333,
      "duration": 1.287,
      "velocity": 86,
      "chip": "ym2612"
    },
    {
      "channel": 3,
      "note": 57,
      "start": 29.3806,
      "duration": 0.0361,
      "velocity": 99,
      "chip": "ym2612"
    },
    {
      "channel": 3,
      "note": 57,
      "start": 29.4346,
      "duration": 0.0352,
      "velocity": 99,
      "chip": "ym2612"
    },
    {
      "channel": 3,
      "note": 57,
      "start": 29.5596,
      "duration": 0.0382,
      "velocity": 99,
      "chip": "ym2612"
    },
    {
      "channel": 3,
      "note": 57,
      "start": 29.6687,
      "duration": 0.0291,
      "velocity": 99,
      "chip": "ym2612"
    },
    {
      "channel": 3,
      "note": 57,
      "start": 29.7745,
      "duration": 0.0305,
      "velocity": 99,
      "chip": "ym2612"
    },
    {
      "channel": 3,
      "note": 57,
      "start": 29.8809,
      "duration": 0.0297,
      "velocity": 99,
      "chip": "ym2612"
    },
    {
      "channel": 3,
      "note": 57,
      "start": 29.9364,
      "duration": 0.0299,
      "velocity": 99,
      "chip": "ym2612"
    },
    {
      "channel": 3,
      "note": 57,
      "start": 29.9903,
      "duration": 0.0302,
      "velocity": 99,
      "chip": "ym2612"
    },
    {
      "channel": 3,
      "note": 57,
      "start": 30.0902,
      "duration": 0.0365,
      "velocity": 99,
      "chip": "ym2612"
    },
    {
      "channel": 3,
      "note": 57,
      "start": 30.1959,
      "duration": 0.037,
      "velocity": 99,
      "chip": "ym2612"
    },
    {
      "channel": 3,
      "note": 57,
      "start": 30.2525,
      "duration": 0.0374,
      "velocity": 99,
      "chip": "ym2612"
    },
    {
      "channel": 3,
      "note": 57,
      "start": 30.3076,
      "duration": 0.038,
      "velocity": 99,
      "chip": "ym2612"
    },
    {
      "channel": 3,
      "note": 57,
      "start": 30.4156,
      "duration": 0.0379,
      "velocity": 99,
      "chip": "ym2612"
    },
    {
      "channel": 3,
      "note": 57,
      "start": 30.5234,
      "duration": 0.037,
      "velocity": 99,
      "chip": "ym2612"
    },
    {
      "channel": 3,
      "note": 84,
      "start": 30.6302,
      "duration": 2.1304,
      "velocity": 104,
      "chip": "ym2612"
    },
    {
      "channel": 0,
      "note": 81,
      "start": 30.6325,
      "duration": 2.1278,
      "velocity": 104,
      "chip": "ym2612"
    },
    {
      "channel": 1,
      "note": 88,
      "start": 30.6359,
      "duration": 2.1245,
      "velocity": 104,
      "chip": "ym2612"
    },
    {
      "channel": 4,
      "note": 81,
      "start": 30.6397,
      "duration": 0.0808,
      "velocity": 105,
      "chip": "ym2612"
    },
    {
      "channel": 4,
      "note": 84,
      "start": 30.844,
      "duration": 0.1365,
      "velocity": 105,
      "chip": "ym2612"
    },
    {
      "channel": 4,
      "note": 88,
      "start": 31.1239,
      "duration": 0.0966,
      "velocity": 105,
      "chip": "ym2612"
    },
    {
      "channel": 4,
      "note": 84,
      "start": 31.4038,
      "duration": 0.0966,
      "velocity": 105,
      "chip": "ym2612"
    },
    {
      "channel": 4,
      "note": 81,
      "start": 31.684,
      "duration": 0.1564,
      "velocity": 105,
      "chip": "ym2612"
    },
    {
      "channel": 4,
      "note": 84,
      "start": 31.944,
      "duration": 0.0963,
      "velocity": 105,
      "chip": "ym2612"
    },
    {
      "channel": 4,
      "note": 88,
      "start": 32.2244,
      "duration": 0.1161,
      "velocity": 105,
      "chip": "ym2612"
    },
    {
      "channel": 4,
      "note": 84,
      "start": 32.504,
      "duration": 0.0963,
      "velocity": 105,
      "chip": "ym2612"
    },
    {
      "channel": 2,
      "note": 84,
      "start": 32.7841,
      "duration": 0.1367,
      "velocity": 99,
      "chip": "ym2612"
    },
    {
      "channel": 5,
      "note": 87,
      "start": 32.7867,
      "duration": 0.134,
      "velocity": 99,
      "chip": "ym2612"
    },
    {
      "channel": 4,
      "note": 91,
      "start": 32.7893,
      "duration": 0.1313,
      "velocity": 99,
      "chip": "ym2612"
    },
    {
      "channel": 0,
      "note": 60,
      "start": 32.7918,
      "duration": 0.1284,
      "velocity": 99,
      "chip": "ym2612"
    },
    {
      "channel": 1,
      "note": 67,
      "start": 32.7946,
      "duration": 0.1258,
      "velocity": 99,
      "chip": "ym2612"
    },
    {
      "channel": 3,
      "note": 81,
      "start": 32.7976,
      "duration": 0.1229,
      "velocity": 105,
      "chip": "ym2612"
    },
    {
      "channel": 3,
      "note": 84,
      "start": 33.064,
      "duration": 0.0963,
      "velocity": 105,
      "chip": "ym2612"
    },
    {
      "channel": 3,
      "note": 88,
      "start": 33.3439,
      "duration": 0.0965,
      "velocity": 105,
      "chip": "ym2612"
    },
    {
      "channel": 3,
      "note": 84,
      "start": 33.6238,
      "duration": 0.0766,
      "velocity": 105,
      "chip": "ym2612"
    },
    {
      "channel": 3,
      "note": 81,
      "start": 33.9039,
      "duration": 0.0765,
      "velocity": 105,
      "chip": "ym2612"
    },
    {
      "channel": 3,
      "note": 84,
      "start": 34.184,
      "duration": 0.0564,
      "velocity": 105,
      "chip": "ym2612"
    },
    {
      "channel": 3,
      "note": 88,
      "start": 34.464,
      "duration": 0.0764,
      "velocity": 105,
      "chip": "ym2612"
    },
    {
      "channel": 3,
      "note": 84,
      "start": 34.7244,
      "duration": 0.076,
      "velocity": 105,
      "chip": "ym2612"
    },
    {
      "channel": 0,
      "note": 84,
      "start": 35.004,
      "duration": 2.1962,
      "velocity": 104,
      "chip": "ym2612"
    },
    {
      "channel": 1,
      "note": 81,
      "start": 35.0065,
      "duration": 2.1938,
      "velocity": 104,
      "chip": "ym2612"
    },
    {
      "channel": 4,
      "note": 88,
      "start": 35.0093,
      "duration": 2.1912,
      "velocity": 104,
      "chip": "ym2612"
    },
    {
      "channel": 3,
      "note": 81,
      "start": 35.0125,
      "duration": 0.0879,
      "velocity": 105,
      "chip": "ym2612"
    },
    {
      "channel": 3,
      "note": 84,
      "start": 35.284,
      "duration": 0.0764,
      "velocity": 105,
      "chip": "ym2612"
    },
    {
      "channel": 3,
      "note": 88,
      "start": 35.564,
      "duration": 0.0964,
      "velocity": 105,
      "chip": "ym2612"
    },
    {
      "channel": 3,
      "note": 84,
      "start": 35.8438,
      "duration": 0.0966,
      "velocity": 105,
      "chip": "ym2612"
    },
    {
      "channel": 3,
      "note": 81,
      "start": 36.1239,
      "duration": 0.1164,
      "velocity": 105,
      "chip": "ym2612"
    },
    {
      "channel": 3,
      "note": 84,
      "start": 36.404,
      "duration": 0.0564,
      "velocity": 105,
      "chip": "ym2612"
    },
    {
      "channel": 3,
      "note": 88,
      "start": 36.684,
      "duration": 0.0764,
      "velocity": 105,
      "chip": "ym2612"
    },
    {
      "channel": 3,
      "note": 84,
      "start": 36.9639,
      "duration": 0.0765,
      "velocity": 105,
      "chip": "ym2612"
    },
    {
      "channel": 5,
      "note": 84,
      "start": 37.2439,
      "duration": 0.1168,
      "velocity": 99,
      "chip": "ym2612"
    },
    {
      "channel": 2,
      "note": 87,
      "start": 37.2464,
      "duration": 0.1144,
      "velocity": 99,
      "chip": "ym2612"
    },
    {
      "channel": 3,
      "note": 91,
      "start": 37.249,
      "duration": 0.1116,
      "velocity": 99,
      "chip": "ym2612"
    },
    {
      "channel": 0,
      "note": 60,
      "start": 37.2515,
      "duration": 0.1087,
      "velocity": 99,
      "chip": "ym2612"
    },
    {
      "channel": 1,
      "note": 67,
      "start": 37.2547,
      "duration": 0.1057,
      "velocity": 99,
      "chip": "ym2612"
    },
    {
      "channel": 4,
      "note": 81,
      "start": 37.2575,
      "duration": 0.0629,
      "velocity": 105,
      "chip": "ym2612"
    },
    {
      "channel": 4,
      "note": 84,
      "start": 37.5044,
      "duration": 0.076,
      "velocity": 105,
      "chip": "ym2612"
    },
    {
      "channel": 4,
      "note": 88,
      "start": 37.784,
      "duration": 0.0963,
      "velocity": 105,
      "chip": "ym2612"
    },
    {
      "channel": 4,
      "note": 84,
      "start": 38.0639,
      "duration": 0.0964,
      "velocity": 105,
      "chip": "ym2612"
    },
    {
      "channel": 4,
      "note": 81,
      "start": 38.3439,
      "duration": 0.0964,
      "velocity": 105,
      "chip": "ym2612"
    },
    {
      "channel": 4,
      "note": 84,
      "start": 38.624,
      "duration": 0.0563,
      "velocity": 105,
      "chip": "ym2612"
    },
    {
      "channel": 4,
      "note": 88,
      "start": 38.904,
      "duration": 0.0963,
      "velocity": 105,
      "chip": "ym2612"
    },
    {
      "channel": 4,
      "note": 84,
      "start": 39.1839,
      "duration": 0.0764,
      "velocity": 105,
      "chip": "ym2612"
    },
    {
      "channel": 0,
      "note": 57,
      "start": 39.4638,
      "duration": 1.0764,
      "velocity": 101,
      "chip": "ym2612"
    },
    {
      "channel": 1,
      "note": 69,
      "start": 39.4668,
      "duration": 1.0736,
      "velocity": 104,
      "chip": "ym2612"
    },
    {
      "channel": 4,
      "note": 81,
      "start": 39.4698,
      "duration": 0.0706,
      "velocity": 105,
      "chip": "ym2612"
    },
    {
      "channel": 3,
      "note": 57,
      "start": 39.4729,
      "duration": 1.0677,
      "velocity": 86,
      "chip": "ym2612"
    },
    {
      "channel": 4,
      "note": 84,
      "start": 39.7439,
      "duration": 0.0766,
      "velocity": 105,
      "chip": "ym2612"
    },
    {
      "channel": 4,
      "note": 88,
      "start": 40.0239,
      "duration": 0.0765,
      "velocity": 105,
      "chip": "ym2612"
    },
    {
      "channel": 4,
      "note": 84,
      "start": 40.2839,
      "duration": 0.0766,
      "velocity": 105,
      "chip": "ym2612"
    },
    {
      "channel": 0,
      "note": 59,
      "start": 40.5632,
      "duration": 1.0971,
      "velocity": 101,
      "chip": "ym2612"
    },
    {
      "channel": 1,
      "note": 71,
      "start": 40.5656,
      "duration": 1.0948,
      "velocity": 104,
      "chip": "ym2612"
    },
    {
      "channel": 4,
      "note": 81,
      "start": 40.5691,
      "duration": 0.0913,
      "velocity": 105,
      "chip": "ym2612"
    },
    {
      "channel": 3,
      "note": 59,
      "start": 40.5717,
      "duration": 1.0888,
      "velocity": 86,
      "chip": "ym2612"
    },
    {
      "channel": 4,
      "note": 84,
      "start": 40.8439,
      "duration": 0.0965,
      "velocity": 105,
      "chip": "ym2612"
    },
    {
      "channel": 4,
      "note": 88,
      "start": 41.1239,
      "duration": 0.0965,
      "velocity": 105,
      "chip": "ym2612"
    },
    {
      "channel": 4,
      "note": 84,
      "start": 41.4039,
      "duration": 0.0965,
      "velocity": 105,
      "chip": "ym2612"
    },
    {
      "channel": 0,
      "note": 60,
      "start": 41.6832,
      "duration": 1.077,
      "velocity": 101,
      "chip": "ym2612"
    },
    {
      "channel": 1,
      "note": 72,
      "start": 41.6856,
      "duration": 1.0747,
      "velocity": 104,
      "chip": "ym2612"
    },
    {
      "channel": 4,
      "note": 81,
      "start": 41.6888,
      "duration": 0.1115,
      "velocity": 105,
      "chip": "ym2612"
    },
    {
      "channel": 3,
      "note": 60,
      "start": 41.6914,
      "duration": 1.0691,
      "velocity": 86,
      "chip": "ym2612"
    },
    {
      "channel": 4,
      "note": 84,
      "start": 41.964,
      "duration": 0.0765,
      "velocity": 105,
      "chip": "ym2612"
    },
    {
      "channel": 4,
      "note": 88,
      "start": 42.2439,
      "duration": 0.0765,
      "velocity": 105,
      "chip": "ym2612"
    },
    {
      "channel": 4,
      "note": 84,
      "start": 42.5239,
      "duration": 0.0766,
      "velocity": 105,
      "chip": "ym2612"
    },
    {
      "channel": 0,
      "note": 64,
      "start": 42.8035,
      "duration": 0.5167,
      "velocity": 101,
      "chip": "ym2612"
    },
    {
      "channel": 1,
      "note": 76,
      "start": 42.8063,
      "duration": 0.5141,
      "velocity": 104,
      "chip": "ym2612"
    },
    {
      "channel": 4,
      "note": 81,
      "start": 42.8093,
      "duration": 0.0711,
      "velocity": 105,
      "chip": "ym2612"
    },
    {
      "channel": 3,
      "note": 64,
      "start": 42.8122,
      "duration": 0.5082,
      "velocity": 86,
      "chip": "ym2612"
    },
    {
      "channel": 4,
      "note": 84,
      "start": 43.0639,
      "duration": 0.0965,
      "velocity": 105,
      "chip": "ym2612"
    },
    {
      "channel": 0,
      "note": 65,
      "start": 43.3434,
      "duration": 0.5369,
      "velocity": 101,
      "chip": "ym2612"
    },
    {
      "channel": 1,
      "note": 77,
      "start": 43.3458,
      "duration": 0.5346,
      "velocity": 104,
      "chip": "ym2612"
    },
    {
      "channel": 4,
      "note": 88,
      "start": 43.3488,
      "duration": 0.0916,
      "velocity": 105,
      "chip": "ym2612"
    },
    {
      "channel": 3,
      "note": 65,
      "start": 43.3515,
      "duration": 0.5291,
      "velocity": 86,
      "chip": "ym2612"
    },
    {
      "channel": 4,
      "note": 84,
      "start": 43.6239,
      "duration": 0.0965,
      "velocity": 105,
      "chip": "ym2612"
    },
    {
      "channel": 1,
      "note": 84,
      "start": 43.9039,
      "duration": 2.1964,
      "velocity": 104,
      "chip": "ym2612"
    },
    {
      "channel": 5,
      "note": 81,
      "start": 43.9065,
      "duration": 2.1941,
      "velocity": 104,
      "chip": "ym2612"
    },
    {
      "channel": 2,
      "note": 88,
      "start": 43.9091,
      "duration": 2.1917,
      "velocity": 104,
      "chip": "ym2612"
    },
    {
      "channel": 4,
      "note": 76,
      "start": 43.9119,
      "duration": 2.1886,
      "velocity": 104,
      "chip": "ym2612"
    },
    {
      "channel": 0,
      "note": 81,
      "start": 43.9155,
      "duration": 0.0647,
      "velocity": 105,
      "chip": "ym2612"
    },
    {
      "channel": 3,
      "note": 64,
      "start": 43.9187,
      "duration": 2.1817,
      "velocity": 86,
      "chip": "ym2612"
    },
    {
      "channel": 0,
      "note": 84,
      "start": 44.1837,
      "duration": 0.0766,
      "velocity": 105,
      "chip": "ym2612"
    },
    {
      "channel": 0,
      "note": 88,
      "start": 44.4639,
      "duration": 0.0964,
      "velocity": 105,
      "chip": "ym2612"
    },
    {
      "channel": 0,
      "note": 84,
      "start": 44.7437,
      "duration": 0.0766,
      "velocity": 105,
      "chip": "ym2612"
    },
    {
      "channel": 0,
      "note": 81,
      "start": 45.0239,
      "duration": 0.1163,
      "velocity": 105,
      "chip": "ym2612"
    },
    {
      "channel": 0,
      "note": 84,
      "start": 45.3039,
      "duration": 0.0764,
      "velocity": 105,
      "chip": "ym2612"
    },
    {
      "channel": 0,
      "note": 88,
      "start": 45.5837,
      "duration": 0.0766,
      "velocity": 105,
      "chip": "ym2612"
    },
    {
      "channel": 0,
      "note": 84,
      "start": 45.8437,
      "duration": 0.0966,
      "velocity": 105,
      "chip": "ym2612"
    },
    {
      "channel": 0,
      "note": 84,
      "start": 46.1239,
      "duration": 0.1364,
      "velocity": 99,
      "chip": "ym2612"
    },
    {
      "channel": 1,
      "note": 87,
      "start": 46.1264,
      "duration": 0.1341,
      "velocity": 99,
      "chip": "ym2612"
    },
    {
      "channel": 3,
      "note": 91,
      "start": 46.129,
      "duration": 0.1316,
      "velocity": 99,
      "chip": "ym2612"
    },
    {
      "channel": 4,
      "note": 60,
      "start": 46.1315,
      "duration": 0.1292,
      "velocity": 99,
      "chip": "ym2612"
    },
    {
      "channel": 5,
      "note": 67,
      "start": 46.1344,
      "duration": 0.1264,
      "velocity": 99,
      "chip": "ym2612"
    },
    {
      "channel": 2,
      "note": 81,
      "start": 46.1372,
      "duration": 0.0833,
      "velocity": 105,
      "chip": "ym2612"
    },
    {
      "channel": 2,
      "note": 84,
      "start": 46.404,
      "duration": 0.0963,
      "velocity": 105,
      "chip": "ym2612"
    },
    {
      "channel": 2,
      "note": 88,
      "start": 46.684,
      "duration": 0.0965,
      "velocity": 105,
      "chip": "ym2612"
    },
    {
      "channel": 2,
      "note": 84,
      "start": 46.964,
      "duration": 0.0963,
      "velocity": 105,
      "chip": "ym2612"
    },
    {
      "channel": 2,
      "note": 81,
      "start": 47.244,
      "duration": 0.0963,
      "velocity": 105,
      "chip": "ym2612"
    },
    {
      "channel": 2,
      "note": 84,
      "start": 47.5246,
      "duration": 0.056,
      "velocity": 105,
      "chip": "ym2612"
    },
    {
      "channel": 2,
      "note": 88,
      "start": 47.8042,
      "duration": 0.0763,
      "velocity": 105,
      "chip": "ym2612"
    },
    {
      "channel": 2,
      "note": 84,
      "start": 48.0843,
      "duration": 0.0762,
      "velocity": 105,
      "chip": "ym2612"
    },
    {
      "channel": 0,
      "note": 57,
      "start": 48.3645,
      "duration": 1.7103,
      "velocity": 101,
      "chip": "ym2612"
    },
    {
      "channel": 1,
      "note": 69,
      "start": 48.3675,
      "duration": 0.4175,
      "velocity": 104,
      "chip": "ym2612"
    },
    {
      "channel": 3,
      "note": 88,
      "start": 48.3709,
      "duration": 1.704,
      "velocity": 99,
      "chip": "ym2612"
    },
    {
      "channel": 4,
      "note": 84,
      "start": 48.3737,
      "duration": 1.7013,
      "velocity": 99,
      "chip": "ym2612"
    },
    {
      "channel": 5,
      "note": 45,
      "start": 48.3775,
      "duration": 0.0006,
      "velocity": 86,
      "chip": "ym2612"
    },
    {
      "channel": 1,
      "note": 71,
      "start": 48.7958,
      "duration": 0.421,
      "velocity": 104,
      "chip": "ym2612"
    },
    {
      "channel": 2,
      "note": 47,
      "start": 48.7989,
      "duration": 0.4181,
      "velocity": 86,
      "chip": "ym2612"
    },
    {
      "channel": 1,
      "note": 72,
      "start": 49.228,
      "duration": 0.4124,
      "velocity": 104,
      "chip": "ym2612"
    },
    {
      "channel": 2,
      "note": 48,
      "start": 49.2311,
      "duration": 0.4095,
      "velocity": 86,
      "chip": "ym2612"
    },
    {
      "channel": 1,
      "note": 71,
      "start": 49.6515,
      "duration": 0.2045,
      "velocity": 104,
      "chip": "ym2612"
    },
    {
      "channel": 2,
      "note": 47,
      "start": 49.6548,
      "duration": 0.2013,
      "velocity": 86,
      "chip": "ym2612"
    },
    {
      "channel": 1,
      "note": 69,
      "start": 49.8668,
      "duration": 0.208,
      "velocity": 104,
      "chip": "ym2612"
    },
    {
      "channel": 2,
      "note": 45,
      "start": 49.8698,
      "duration": 0.2054,
      "velocity": 86,
      "chip": "ym2612"
    },
    {
      "channel": 0,
      "note": 60,
      "start": 50.0866,
      "duration": 1.7057,
      "velocity": 101,
      "chip": "ym2612"
    },
    {
      "channel": 1,
      "note": 75,
      "start": 50.0892,
      "duration": 0.4131,
      "velocity": 104,
      "chip": "ym2612"
    },
    {
      "channel": 3,
      "note": 84,
      "start": 50.0916,
      "duration": 1.6557,
      "velocity": 99,
      "chip": "ym2612"
    },
    {
      "channel": 4,
      "note": 79,
      "start": 50.0943,
      "duration": 1.6982,
      "velocity": 99,
      "chip": "ym2612"
    },
    {
      "channel": 2,
      "note": 51,
      "start": 50.0985,
      "duration": 0.404,
      "velocity": 86,
      "chip": "ym2612"
    },
    {
      "channel": 1,
      "note": 77,
      "start": 50.5212,
      "duration": 0.4115,
      "velocity": 104,
      "chip": "ym2612"
    },
    {
      "channel": 2,
      "note": 53,
      "start": 50.5243,
      "duration": 0.4086,
      "velocity": 86,
      "chip": "ym2612"
    },
    {
      "channel": 1,
      "note": 79,
      "start": 50.9442,
      "duration": 0.6298,
      "velocity": 104,
      "chip": "ym2612"
    },
    {
      "channel": 2,
      "note": 55,
      "start": 50.9476,
      "duration": 0.6266,
      "velocity": 86,
      "chip": "ym2612"
    },
    {
      "channel": 1,
      "note": 81,
      "start": 51.5922,
      "duration": 0.2002,
      "velocity": 104,
      "chip": "ym2612"
    },
    {
      "channel": 2,
      "note": 57,
      "start": 51.5953,
      "duration": 0.1973,
      "velocity": 86,
      "chip": "ym2612"
    },
    {
      "channel": 3,
      "note": 63,
      "start": 51.7493,
      "duration": 1.7175,
      "velocity": 101,
      "chip": "ym2612"
    },
    {
      "channel": 1,
      "note": 82,
      "start": 51.8025,
      "duration": 0.4236,
      "velocity": 104,
      "chip": "ym2612"
    },
    {
      "channel": 4,
      "note": 87,
      "start": 51.8058,
      "duration": 1.7156,
      "velocity": 99,
      "chip": "ym2612"
    },
    {
      "channel": 0,
      "note": 78,
      "start": 51.808,
      "duration": 0.0036,
      "velocity": 99,
      "chip": "ym2612"
    },
    {
      "channel": 2,
      "note": 82,
      "start": 51.8107,
      "duration": 1.7108,
      "velocity": 99,
      "chip": "ym2612"
    },
    {
      "channel": 0,
      "note": 58,
      "start": 51.8135,
      "duration": 0.4125,
      "velocity": 86,
      "chip": "ym2612"
    },
    {
      "channel": 1,
      "note": 84,
      "start": 52.237,
      "duration": 0.4151,
      "velocity": 104,
      "chip": "ym2612"
    },
    {
      "channel": 0,
      "note": 60,
      "start": 52.2398,
      "duration": 0.4121,
      "velocity": 86,
      "chip": "ym2612"
    },
    {
      "channel": 1,
      "note": 85,
      "start": 52.6709,
      "duration": 0.4134,
      "velocity": 104,
      "chip": "ym2612"
    },
    {
      "channel": 0,
      "note": 61,
      "start": 52.6739,
      "duration": 0.4104,
      "velocity": 86,
      "chip": "ym2612"
    },
    {
      "channel": 1,
      "note": 84,
      "start": 53.0956,
      "duration": 0.2061,
      "velocity": 104,
      "chip": "ym2612"
    },
    {
      "channel": 0,
      "note": 60,
      "start": 53.0992,
      "duration": 0.2024,
      "velocity": 86,
      "chip": "ym2612"
    },
    {
      "channel": 1,
      "note": 82,
      "start": 53.3125,
      "duration": 0.2088,
      "velocity": 104,
      "chip": "ym2612"
    },
    {
      "channel": 0,
      "note": 58,
      "start": 53.3158,
      "duration": 0.2055,
      "velocity": 86,
      "chip": "ym2612"
    },
    {
      "channel": 3,
      "note": 65,
      "start": 53.5326,
      "duration": 1.697,
      "velocity": 101,
      "chip": "ym2612"
    },
    {
      "channel": 1,
      "note": 84,
      "start": 53.5352,
      "duration": 1.6942,
      "velocity": 104,
      "chip": "ym2612"
    },
    {
      "channel": 4,
      "note": 89,
      "start": 53.5379,
      "duration": 1.6918,
      "velocity": 99,
      "chip": "ym2612"
    },
    {
      "channel": 2,
      "note": 81,
      "start": 53.5413,
      "duration": 1.6885,
      "velocity": 99,
      "chip": "ym2612"
    },
    {
      "channel": 0,
      "note": 60,
      "start": 53.5444,
      "duration": 0.7864,
      "velocity": 86,
      "chip": "ym2612"
    },
    {
      "channel": 0,
      "note": 79,
      "start": 54.3327,
      "duration": 0.0445,
      "velocity": 86,
      "chip": "ym2612"
    },
    {
      "channel": 0,
      "note": 80,
      "start": 54.3879,
      "duration": 0.8415,
      "velocity": 86,
      "chip": "ym2612"
    },
    {
      "channel": 3,
      "note": 70,
      "start": 55.2411,
      "duration": 0.0407,
      "velocity": 101,
      "chip": "ym2612"
    },
    {
      "channel": 1,
      "note": 46,
      "start": 55.2434,
      "duration": 3.5952,
      "velocity": 104,
      "chip": "ym2612"
    },
    {
      "channel": 0,
      "note": 58,
      "start": 55.2459,
      "duration": 3.5926,
      "velocity": 104,
      "chip": "ym2612"
    },
    {
      "channel": 4,
      "note": 58,
      "start": 55.2486,
      "duration": 0.0333,
      "velocity": 99,
      "chip": "ym2612"
    },
    {
      "channel": 3,
      "note": 70,
      "start": 55.2991,
      "duration": 0.0392,
      "velocity": 101,
      "chip": "ym2612"
    },
    {
      "channel": 4,
      "note": 58,
      "start": 55.3015,
      "duration": 0.0368,
      "velocity": 99,
      "chip": "ym2612"
    },
    {
      "channel": 3,
      "note": 70,
      "start": 55.3553,
      "duration": 0.0376,
      "velocity": 101,
      "chip": "ym2612"
    },
    {
      "channel": 4,
      "note": 58,
      "start": 55.3579,
      "duration": 0.0351,
      "velocity": 99,
      "chip": "ym2612"
    },
    {
      "channel": 2,
      "note": 106,
      "start": 55.4646,
      "duration": 0.0205,
      "velocity": 105,
      "chip": "ym2612"
    },
    {
      "channel": 3,
      "note": 94,
      "start": 55.4673,
      "duration": 0.0178,
      "velocity": 105,
      "chip": "ym2612"
    },
    {
      "channel": 4,
      "note": 70,
      "start": 57.3324,
      "duration": 0.0398,
      "velocity": 101,
      "chip": "ym2612"
    },
    {
      "channel": 3,
      "note": 58,
      "start": 57.3355,
      "duration": 0.0367,
      "velocity": 99,
      "chip": "ym2612"
    },
    {
      "channel": 4,
      "note": 70,
      "start": 57.3907,
      "duration": 0.0385,
      "velocity": 101,
      "chip": "ym2612"
    },
    {
      "channel": 3,
      "note": 58,
      "start": 57.3932,
      "duration": 0.036,
      "velocity": 99,
      "chip": "ym2612"
    },
    {
      "channel": 4,
      "note": 70,
      "start": 57.446,
      "duration": 0.0372,
      "velocity": 101,
      "chip": "ym2612"
    },
    {
      "channel": 3,
      "note": 58,
      "start": 57.4489,
      "duration": 0.0342,
      "velocity": 99,
      "chip": "ym2612"
    },
    {
      "channel": 2,
      "note": 106,
      "start": 57.5541,
      "duration": 0.0285,
      "velocity": 105,
      "chip": "ym2612"
    },
    {
      "channel": 3,
      "note": 94,
      "start": 57.558,
      "duration": 0.0245,
      "velocity": 105,
      "chip": "ym2612"
    },
    {
      "channel": 4,
      "note": 70,
      "start": 58.8815,
      "duration": 0.0371,
      "velocity": 101,
      "chip": "ym2612"
    },
    {
      "channel": 0,
      "note": 46,
      "start": 58.8847,
      "duration": 0.9719,
      "velocity": 104,
      "chip": "ym2612"
    },
    {
      "channel": 1,
      "note": 58,
      "start": 58.8873,
      "duration": 0.9693,
      "velocity": 104,
      "chip": "ym2612"
    },
    {
      "channel": 3,
      "note": 58,
      "start": 58.8902,
      "duration": 0.0283,
      "velocity": 99,
      "chip": "ym2612"
    },
    {
      "channel": 4,
      "note": 70,
      "start": 58.9434,
      "duration": 0.0307,
      "velocity": 101,
      "chip": "ym2612"
    },
    {
      "channel": 3,
      "note": 58,
      "start": 58.9458,
      "duration": 0.0283,
      "velocity": 99,
      "chip": "ym2612"
    },
    {
      "channel": 4,
      "note": 70,
      "start": 58.9924,
      "duration": 0.0373,
      "velocity": 101,
      "chip": "ym2612"
    },
    {
      "channel": 3,
      "note": 58,
      "start": 58.9949,
      "duration": 0.0347,
      "velocity": 99,
      "chip": "ym2612"
    },
    {
      "channel": 2,
      "note": 106,
      "start": 59.1007,
      "duration": 0.028,
      "velocity": 105,
      "chip": "ym2612"
    },
    {
      "channel": 3,
      "note": 94,
      "start": 59.1034,
      "duration": 0.0252,
      "velocity": 105,
      "chip": "ym2612"
    },
    {
      "channel": 4,
      "note": 70,
      "start": 59.3091,
      "duration": 0.04,
      "velocity": 101,
      "chip": "ym2612"
    },
    {
      "channel": 3,
      "note": 58,
      "start": 59.3121,
      "duration": 0.0369,
      "velocity": 99,
      "chip": "ym2612"
    },
    {
      "channel": 4,
      "note": 70,
      "start": 59.3676,
      "duration": 0.0378,
      "velocity": 101,
      "chip": "ym2612"
    },
    {
      "channel": 3,
      "note": 58,
      "start": 59.3699,
      "duration": 0.0354,
      "velocity": 99,
      "chip": "ym2612"
    },
    {
      "channel": 4,
      "note": 70,
      "start": 59.4229,
      "duration": 0.0382,
      "velocity": 101,
      "chip": "ym2612"
    },
    {
      "channel": 3,
      "note": 58,
      "start": 59.4253,
      "duration": 0.0357,
      "velocity": 99,
      "chip": "ym2612"
    },
    {
      "channel": 4,
      "note": 70,
      "start": 59.4786,
      "duration": 0.0409,
      "velocity": 101,
      "chip": "ym2612"
    },
    {
      "channel": 3,
      "note": 58,
      "start": 59.481,
      "duration": 0.0385,
      "velocity": 99,
      "chip": "ym2612"
    },
    {
      "channel": 4,
      "note": 70,
      "start": 59.5359,
      "duration": 0.0387,
      "velocity": 101,
      "chip": "ym2612"
    },
    {
      "channel": 3,
      "note": 58,
      "start": 59.5383,
      "duration": 0.0362,
      "velocity": 99,
      "chip": "ym2612"
    },
    {
      "channel": 4,
      "note": 70,
      "start": 59.5921,
      "duration": 0.0412,
      "velocity": 101,
      "chip": "ym2612"
    },
    {
      "channel": 3,
      "note": 58,
      "start": 59.5944,
      "duration": 0.0388,
      "velocity": 99,
      "chip": "ym2612"
    },
    {
      "channel": 4,
      "note": 70,
      "start": 59.65,
      "duration": 0.038,
      "velocity": 101,
      "chip": "ym2612"
    },
    {
      "channel": 3,
      "note": 58,
      "start": 59.6529,
      "duration": 0.0352,
      "velocity": 99,
      "chip": "ym2612"
    },
    {
      "channel": 4,
      "note": 70,
      "start": 59.759,
      "duration": 0.0378,
      "velocity": 101,
      "chip": "ym2612"
    },
    {
      "channel": 3,
      "note": 58,
      "start": 59.7616,
      "duration": 0.0352,
      "velocity": 99,
      "chip": "ym2612"
    },
    {
      "channel": 4,
      "note": 81,
      "start": 59.8686,
      "duration": 0.8296,
      "velocity": 101,
      "chip": "ym2612"
    },
    {
      "channel": 0,
      "note": 69,
      "start": 59.8719,
      "duration": 0.8262,
      "velocity": 104,
      "chip": "ym2612"
    },
    {
      "channel": 3,
      "note": 57,
      "start": 59.8768,
      "duration": 0.0379,
      "velocity": 99,
      "chip": "ym2612"
    },
    {
      "channel": 2,
      "note": 69,
      "start": 59.8813,
      "duration": 0.0335,
      "velocity": 99,
      "chip": "ym2612"
    },
    {
      "channel": 2,
      "note": 72,
      "start": 59.9246,
      "duration": 0.0431,
      "velocity": 99,
      "chip": "ym2612"
    },
    {
      "channel": 3,
      "note": 57,
      "start": 59.9782,
      "duration": 0.0373,
      "velocity": 99,
      "chip": "ym2612"
    },
    {
      "channel": 2,
      "note": 76,
      "start": 59.9805,
      "duration": 0.0351,
      "velocity": 99,
      "chip": "ym2612"
    },
    {
      "channel": 2,
      "note": 72,
      "start": 60.0329,
      "duration": 0.035,
      "velocity": 99,
      "chip": "ym2612"
    },
    {
      "channel": 2,
      "note": 76,
      "start": 60.0863,
      "duration": 0.0345,
      "velocity": 99,
      "chip": "ym2612"
    },
    {
      "channel": 2,
      "note": 72,
      "start": 60.1544,
      "duration": 0.0967,
      "velocity": 99,
      "chip": "ym2612"
    },
    {
      "channel": 3,
      "note": 57,
      "start": 60.2741,
      "duration": 0.0467,
      "velocity": 99,
      "chip": "ym2612"
    },
    {
      "channel": 2,
      "note": 76,
      "start": 60.2768,
      "duration": 0.0442,
      "velocity": 99,
      "chip": "ym2612"
    },
    {
      "channel": 2,
      "note": 72,
      "start": 60.3318,
      "duration": 0.0418,
      "velocity": 99,
      "chip": "ym2612"
    },
    {
      "channel": 2,
      "note": 69,
      "start": 60.3839,
      "duration": 0.0515,
      "velocity": 99,
      "chip": "ym2612"
    },
    {
      "channel": 2,
      "note": 72,
      "start": 60.4586,
      "duration": 0.1169,
      "velocity": 99,
      "chip": "ym2612"
    },
    {
      "channel": 3,
      "note": 57,
      "start": 60.5983,
      "duration": 0.0476,
      "velocity": 99,
      "chip": "ym2612"
    },
    {
      "channel": 2,
      "note": 76,
      "start": 60.6011,
      "duration": 0.045,
      "velocity": 99,
      "chip": "ym2612"
    },
    {
      "channel": 2,
      "note": 72,
      "start": 60.6571,
      "duration": 0.0412,
      "velocity": 99,
      "chip": "ym2612"
    },
    {
      "channel": 4,
      "note": 83,
      "start": 60.7086,
      "duration": 0.3161,
      "velocity": 101,
      "chip": "ym2612"
    },
    {
      "channel": 0,
      "note": 71,
      "start": 60.7109,
      "duration": 0.3137,
      "velocity": 104,
      "chip": "ym2612"
    },
    {
      "channel": 2,
      "note": 76,
      "start": 60.7146,
      "duration": 0.0447,
      "velocity": 99,
      "chip": "ym2612"
    },
    {
      "channel": 2,
      "note": 72,
      "start": 60.7826,
      "duration": 0.1167,
      "velocity": 99,
      "chip": "ym2612"
    },
    {
      "channel": 3,
      "note": 57,
      "start": 60.9223,
      "duration": 0.0475,
      "velocity": 99,
      "chip": "ym2612"
    },
    {
      "channel": 2,
      "note": 76,
      "start": 60.9251,
      "duration": 0.045,
      "velocity": 99,
      "chip": "ym2612"
    },
    {
      "channel": 2,
      "note": 72,
      "start": 60.9809,
      "duration": 0.0439,
      "velocity": 99,
      "chip": "ym2612"
    },
    {
      "channel": 4,
      "note": 84,
      "start": 61.0353,
      "duration": 0.5279,
      "velocity": 101,
      "chip": "ym2612"
    },
    {
      "channel": 0,
      "note": 72,
      "start": 61.0387,
      "duration": 0.5244,
      "velocity": 104,
      "chip": "ym2612"
    },
    {
      "channel": 3,
      "note": 57,
      "start": 61.041,
      "duration": 0.0428,
      "velocity": 99,
      "chip": "ym2612"
    },
    {
      "channel": 2,
      "note": 69,
      "start": 61.0434,
      "duration": 0.0404,
      "velocity": 99,
      "chip": "ym2612"
    },
    {
      "channel": 2,
      "note": 72,
      "start": 61.0948,
      "duration": 0.0417,
      "velocity": 99,
      "chip": "ym2612"
    },
    {
      "channel": 3,
      "note": 57,
      "start": 61.1468,
      "duration": 0.046,
      "velocity": 99,
      "chip": "ym2612"
    },
    {
      "channel": 2,
      "note": 76,
      "start": 61.1493,
      "duration": 0.0436,
      "velocity": 99,
      "chip": "ym2612"
    },
    {
      "channel": 2,
      "note": 72,
      "start": 61.203,
      "duration": 0.043,
      "velocity": 99,
      "chip": "ym2612"
    },
    {
      "channel": 2,
      "note": 76,
      "start": 61.2572,
      "duration": 0.0465,
      "velocity": 99,
      "chip": "ym2612"
    },
    {
      "channel": 2,
      "note": 72,
      "start": 61.327,
      "duration": 0.1167,
      "velocity": 99,
      "chip": "ym2612"
    },
    {
      "channel": 3,
      "note": 57,
      "start": 61.4667,
      "duration": 0.0438,
      "velocity": 99,
      "chip": "ym2612"
    },
    {
      "channel": 2,
      "note": 76,
      "start": 61.4694,
      "duration": 0.0412,
      "velocity": 99,
      "chip": "ym2612"
    },
    {
      "channel": 2,
      "note": 72,
      "start": 61.5273,
      "duration": 0.036,
      "velocity": 99,
      "chip": "ym2612"
    },
    {
      "channel": 4,
      "note": 81,
      "start": 61.5809,
      "duration": 0.5105,
      "velocity": 101,
      "chip": "ym2612"
    },
    {
      "channel": 0,
      "note": 69,
      "start": 61.5829,
      "duration": 0.5084,
      "velocity": 104,
      "chip": "ym2612"
    },
    {
      "channel": 2,
      "note": 69,
      "start": 61.5854,
      "duration": 0.0322,
      "velocity": 99,
      "chip": "ym2612"
    },
    {
      "channel": 2,
      "note": 72,
      "start": 61.6499,
      "duration": 0.0967,
      "velocity": 99,
      "chip": "ym2612"
    },
    {
      "channel": 3,
      "note": 57,
      "start": 61.7697,
      "duration": 0.0469,
      "velocity": 99,
      "chip": "ym2612"
    },
    {
      "channel": 2,
      "note": 76,
      "start": 61.7723,
      "duration": 0.0444,
      "velocity": 99,
      "chip": "ym2612"
    },
    {
      "channel": 2,
      "note": 72,
      "start": 61.8279,
      "duration": 0.0417,
      "velocity": 99,
      "chip": "ym2612"
    },
    {
      "channel": 2,
      "note": 76,
      "start": 61.8803,
      "duration": 0.0449,
      "velocity": 99,
      "chip": "ym2612"
    },
    {
      "channel": 2,
      "note": 72,
      "start": 61.9361,
      "duration": 0.044,
      "velocity": 99,
      "chip": "ym2612"
    },
    {
      "channel": 3,
      "note": 57,
      "start": 61.9904,
      "duration": 0.0466,
      "velocity": 99,
      "chip": "ym2612"
    },
    {
      "channel": 2,
      "note": 76,
      "start": 61.994,
      "duration": 0.0431,
      "velocity": 99,
      "chip": "ym2612"
    },
    {
      "channel": 2,
      "note": 72,
      "start": 62.047,
      "duration": 0.0445,
      "velocity": 99,
      "chip": "ym2612"
    },
    {
      "channel": 4,
      "note": 75,
      "start": 62.103,
      "duration": 1.9697,
      "velocity": 101,
      "chip": "ym2612"
    },
    {
      "channel": 0,
      "note": 63,
      "start": 62.1059,
      "duration": 1.9666,
      "velocity": 104,
      "chip": "ym2612"
    },
    {
      "channel": 3,
      "note": 57,
      "start": 62.1081,
      "duration": 0.041,
      "velocity": 99,
      "chip": "ym2612"
    },
    {
      "channel": 2,
      "note": 67,
      "start": 62.1116,
      "duration": 0.0376,
      "velocity": 99,
      "chip": "ym2612"
    },
    {
      "channel": 2,
      "note": 72,
      "start": 62.1592,
      "duration": 0.0428,
      "velocity": 99,
      "chip": "ym2612"
    },
    {
      "channel": 3,
      "note": 57,
      "start": 62.2122,
      "duration": 0.0444,
      "velocity": 99,
      "chip": "ym2612"
    },
    {
      "channel": 2,
      "note": 75,
      "start": 62.2147,
      "duration": 0.0422,
      "velocity": 99,
      "chip": "ym2612"
    },
    {
      "channel": 2,
      "note": 72,
      "start": 62.2672,
      "duration": 0.0435,
      "velocity": 99,
      "chip": "ym2612"
    },
    {
      "channel": 2,
      "note": 75,
      "start": 62.321,
      "duration": 0.044,
      "velocity": 99,
      "chip": "ym2612"
    },
    {
      "channel": 2,
      "note": 72,
      "start": 62.3882,
      "duration": 0.1167,
      "velocity": 99,
      "chip": "ym2612"
    },
    {
      "channel": 3,
      "note": 57,
      "start": 62.5278,
      "duration": 0.0481,
      "velocity": 99,
      "chip": "ym2612"
    },
    {
      "channel": 2,
      "note": 75,
      "start": 62.5306,
      "duration": 0.0455,
      "velocity": 99,
      "chip": "ym2612"
    },
    {
      "channel": 2,
      "note": 72,
      "start": 62.5873,
      "duration": 0.042,
      "velocity": 99,
      "chip": "ym2612"
    },
    {
      "channel": 2,
      "note": 67,
      "start": 62.6394,
      "duration": 0.0514,
      "velocity": 99,
      "chip": "ym2612"
    },
    {
      "channel": 2,
      "note": 72,
      "start": 62.714,
      "duration": 0.1169,
      "velocity": 99,
      "chip": "ym2612"
    },
    {
      "channel": 3,
      "note": 57,
      "start": 62.8538,
      "duration": 0.0404,
      "velocity": 99,
      "chip": "ym2612"
    },
    {
      "channel": 2,
      "note": 75,
      "start": 62.8565,
      "duration": 0.0379,
      "velocity": 99,
      "chip": "ym2612"
    },
    {
      "channel": 2,
      "note": 72,
      "start": 62.9132,
      "duration": 0.0346,
      "velocity": 99,
      "chip": "ym2612"
    },
    {
      "channel": 2,
      "note": 75,
      "start": 62.9653,
      "duration": 0.0352,
      "velocity": 99,
      "chip": "ym2612"
    },
    {
      "channel": 2,
      "note": 72,
      "start": 63.0389,
      "duration": 0.0969,
      "velocity": 99,
      "chip": "ym2612"
    },
    {
      "channel": 3,
      "note": 57,
      "start": 63.1587,
      "duration": 0.0473,
      "velocity": 99,
      "chip": "ym2612"
    },
    {
      "channel": 2,
      "note": 75,
      "start": 63.1615,
      "duration": 0.0447,
      "velocity": 99,
      "chip": "ym2612"
    },
    {
      "channel": 3,
      "note": 57,
      "start": 63.217,
      "duration": 0.0459,
      "velocity": 99,
      "chip": "ym2612"
    },
    {
      "channel": 2,
      "note": 72,
      "start": 63.2196,
      "duration": 0.0434,
      "velocity": 99,
      "chip": "ym2612"
    },
    {
      "channel": 3,
      "note": 57,
      "start": 63.273,
      "duration": 0.0462,
      "velocity": 99,
      "chip": "ym2612"
    },
    {
      "channel": 2,
      "note": 67,
      "start": 63.2755,
      "duration": 0.0439,
      "velocity": 99,
      "chip": "ym2612"
    },
    {
      "channel": 2,
      "note": 72,
      "start": 63.3297,
      "duration": 0.0431,
      "velocity": 99,
      "chip": "ym2612"
    },
    {
      "channel": 3,
      "note": 57,
      "start": 63.3834,
      "duration": 0.0456,
      "velocity": 99,
      "chip": "ym2612"
    },
    {
      "channel": 2,
      "note": 75,
      "start": 63.3858,
      "duration": 0.0434,
      "velocity": 99,
      "chip": "ym2612"
    },
    {
      "channel": 2,
      "note": 72,
      "start": 63.4395,
      "duration": 0.0431,
      "velocity": 99,
      "chip": "ym2612"
    },
    {
      "channel": 2,
      "note": 75,
      "start": 63.4934,
      "duration": 0.0445,
      "velocity": 99,
      "chip": "ym2612"
    },
    {
      "channel": 2,
      "note": 72,
      "start": 63.5612,
      "duration": 0.1167,
      "velocity": 99,
      "chip": "ym2612"
    },
    {
      "channel": 3,
      "note": 57,
      "start": 63.7008,
      "duration": 0.0469,
      "velocity": 99,
      "chip": "ym2612"
    },
    {
      "channel": 2,
      "note": 75,
      "start": 63.7035,
      "duration": 0.0445,
      "velocity": 99,
      "chip": "ym2612"
    },
    {
      "channel": 2,
      "note": 72,
      "start": 63.7591,
      "duration": 0.0422,
      "velocity": 99,
      "chip": "ym2612"
    },
    {
      "channel": 2,
      "note": 67,
      "start": 63.8115,
      "duration": 0.051,
      "velocity": 99,
      "chip": "ym2612"
    },
    {
      "channel": 2,
      "note": 72,
      "start": 63.8856,
      "duration": 0.1167,
      "velocity": 99,
      "chip": "ym2612"
    },
    {
      "channel": 3,
      "note": 57,
      "start": 64.0254,
      "duration": 0.0472,
      "velocity": 99,
      "chip": "ym2612"
    },
    {
      "channel": 2,
      "note": 75,
      "start": 64.028,
      "duration": 0.0447,
      "velocity": 99,
      "chip": "ym2612"
    },
    {
      "channel": 2,
      "note": 72,
      "start": 64.0839,
      "duration": 0.0424,
      "velocity": 99,
      "chip": "ym2612"
    },
    {
      "channel": 4,
      "note": 84,
      "start": 64.1364,
      "duration": 0.1906,
      "velocity": 101,
      "chip": "ym2612"
    },
    {
      "channel": 0,
      "note": 72,
      "start": 64.1388,
      "duration": 0.1881,
      "velocity": 104,
      "chip": "ym2612"
    },
    {
      "channel": 2,
      "note": 75,
      "start": 64.1424,
      "duration": 0.0445,
      "velocity": 99,
      "chip": "ym2612"
    },
    {
      "channel": 2,
      "note": 72,
      "start": 64.2102,
      "duration": 0.117,
      "velocity": 99,
      "chip": "ym2612"
    },
    {
      "channel": 4,
      "note": 86,
      "start": 64.3499,
      "duration": 0.1002,
      "velocity": 101,
      "chip": "ym2612"
    },
    {
      "channel": 0,
      "note": 74,
      "start": 64.3523,
      "duration": 0.0976,
      "velocity": 104,
      "chip": "ym2612"
    },
    {
      "channel": 3,
      "note": 57,
      "start": 64.3554,
      "duration": 0.0385,
      "velocity": 99,
      "chip": "ym2612"
    },
    {
      "channel": 2,
      "note": 75,
      "start": 64.3581,
      "duration": 0.0359,
      "velocity": 99,
      "chip": "ym2612"
    },
    {
      "channel": 3,
      "note": 57,
      "start": 64.4105,
      "duration": 0.0395,
      "velocity": 99,
      "chip": "ym2612"
    },
    {
      "channel": 2,
      "note": 72,
      "start": 64.4129,
      "duration": 0.0373,
      "velocity": 99,
      "chip": "ym2612"
    },
    {
      "channel": 4,
      "note": 87,
      "start": 64.4673,
      "duration": 0.8486,
      "velocity": 101,
      "chip": "ym2612"
    },
    {
      "channel": 0,
      "note": 75,
      "start": 64.4698,
      "duration": 0.846,
      "velocity": 104,
      "chip": "ym2612"
    },
    {
      "channel": 3,
      "note": 57,
      "start": 64.4731,
      "duration": 0.0352,
      "velocity": 99,
      "chip": "ym2612"
    },
    {
      "channel": 2,
      "note": 70,
      "start": 64.4757,
      "duration": 0.0328,
      "velocity": 99,
      "chip": "ym2612"
    },
    {
      "channel": 2,
      "note": 75,
      "start": 64.526,
      "duration": 0.0363,
      "velocity": 99,
      "chip": "ym2612"
    },
    {
      "channel": 3,
      "note": 57,
      "start": 64.5722,
      "duration": 0.0455,
      "velocity": 99,
      "chip": "ym2612"
    },
    {
      "channel": 2,
      "note": 78,
      "start": 64.5746,
      "duration": 0.0432,
      "velocity": 99,
      "chip": "ym2612"
    },
    {
      "channel": 2,
      "note": 75,
      "start": 64.6281,
      "duration": 0.0428,
      "velocity": 99,
      "chip": "ym2612"
    },
    {
      "channel": 2,
      "note": 78,
      "start": 64.6812,
      "duration": 0.0458,
      "velocity": 99,
      "chip": "ym2612"
    },
    {
      "channel": 2,
      "note": 75,
      "start": 64.7503,
      "duration": 0.1167,
      "velocity": 99,
      "chip": "ym2612"
    },
    {
      "channel": 3,
      "note": 57,
      "start": 64.89,
      "duration": 0.0472,
      "velocity": 99,
      "chip": "ym2612"
    },
    {
      "channel": 2,
      "note": 78,
      "start": 64.8927,
      "duration": 0.0447,
      "velocity": 99,
      "chip": "ym2612"
    },
    {
      "channel": 2,
      "note": 75,
      "start": 64.9484,
      "duration": 0.042,
      "velocity": 99,
      "chip": "ym2612"
    },
    {
      "channel": 2,
      "note": 70,
      "start": 65.0007,
      "duration": 0.0514,
      "velocity": 99,
      "chip": "ym2612"
    },
    {
      "channel": 2,
      "note": 75,
      "start": 65.0753,
      "duration": 0.1169,
      "velocity": 99,
      "chip": "ym2612"
    },
    {
      "channel": 3,
      "note": 57,
      "start": 65.2151,
      "duration": 0.0478,
      "velocity": 99,
      "chip": "ym2612"
    },
    {
      "channel": 2,
      "note": 78,
      "start": 65.2178,
      "duration": 0.0453,
      "velocity": 99,
      "chip": "ym2612"
    },
    {
      "channel": 2,
      "note": 75,
      "start": 65.2741,
      "duration": 0.042,
      "velocity": 99,
      "chip": "ym2612"
    },
    {
      "channel": 4,
      "note": 89,
      "start": 65.3263,
      "duration": 0.3183,
      "velocity": 101,
      "chip": "ym2612"
    },
    {
      "channel": 0,
      "note": 77,
      "start": 65.3287,
      "duration": 0.3157,
      "velocity": 104,
      "chip": "ym2612"
    },
    {
      "channel": 2,
      "note": 78,
      "start": 65.3324,
      "duration": 0.0444,
      "velocity": 99,
      "chip": "ym2612"
    },
    {
      "channel": 2,
      "note": 75,
      "start": 65.4001,
      "duration": 0.1167,
      "velocity": 99,
      "chip": "ym2612"
    },
    {
      "channel": 3,
      "note": 57,
      "start": 65.5398,
      "duration": 0.0481,
      "velocity": 99,
      "chip": "ym2612"
    },
    {
      "channel": 2,
      "note": 78,
      "start": 65.5425,
      "duration": 0.0456,
      "velocity": 99,
      "chip": "ym2612"
    },
    {
      "channel": 3,
      "note": 57,
      "start": 65.599,
      "duration": 0.0455,
      "velocity": 99,
      "chip": "ym2612"
    },
    {
      "channel": 2,
      "note": 75,
      "start": 65.6018,
      "duration": 0.0428,
      "velocity": 99,
      "chip": "ym2612"
    },
    {
      "channel": 4,
      "note": 90,
      "start": 65.6551,
      "duration": 0.511,
      "velocity": 101,
      "chip": "ym2612"
    },
    {
      "channel": 0,
      "note": 78,
      "start": 65.6577,
      "duration": 0.5083,
      "velocity": 104,
      "chip": "ym2612"
    },
    {
      "channel": 3,
      "note": 57,
      "start": 65.6609,
      "duration": 0.0423,
      "velocity": 99,
      "chip": "ym2612"
    },
    {
      "channel": 2,
      "note": 70,
      "start": 65.6634,
      "duration": 0.0399,
      "velocity": 99,
      "chip": "ym2612"
    },
    {
      "channel": 2,
      "note": 75,
      "start": 65.7136,
      "duration": 0.043,
      "velocity": 99,
      "chip": "ym2612"
    },
    {
      "channel": 3,
      "note": 57,
      "start": 65.7675,
      "duration": 0.0378,
      "velocity": 99,
      "chip": "ym2612"
    },
    {
      "channel": 2,
      "note": 78,
      "start": 65.7698,
      "duration": 0.0356,
      "velocity": 99,
      "chip": "ym2612"
    },
    {
      "channel": 2,
      "note": 75,
      "start": 65.8229,
      "duration": 0.0354,
      "velocity": 99,
      "chip": "ym2612"
    },
    {
      "channel": 2,
      "note": 78,
      "start": 65.8771,
      "duration": 0.0345,
      "velocity": 99,
      "chip": "ym2612"
    },
    {
      "channel": 2,
      "note": 75,
      "start": 65.9456,
      "duration": 0.0968,
      "velocity": 99,
      "chip": "ym2612"
    },
    {
      "channel": 3,
      "note": 57,
      "start": 66.0657,
      "duration": 0.0464,
      "velocity": 99,
      "chip": "ym2612"
    },
    {
      "channel": 2,
      "note": 78,
      "start": 66.0684,
      "duration": 0.044,
      "velocity": 99,
      "chip": "ym2612"
    },
    {
      "channel": 2,
      "note": 75,
      "start": 66.1237,
      "duration": 0.0426,
      "velocity": 99,
      "chip": "ym2612"
    },
    {
      "channel": 4,
      "note": 87,
      "start": 66.1763,
      "duration": 0.6439,
      "velocity": 101,
      "chip": "ym2612"
    },
    {
      "channel": 0,
      "note": 75,
      "start": 66.1788,
      "duration": 0.6412,
      "velocity": 104,
      "chip": "ym2612"
    },
    {
      "channel": 2,
      "note": 70,
      "start": 66.1814,
      "duration": 0.0455,
      "velocity": 99,
      "chip": "ym2612"
    },
    {
      "channel": 2,
      "note": 75,
      "start": 66.2501,
      "duration": 0.1167,
      "velocity": 99,
      "chip": "ym2612"
    },
    {
      "channel": 3,
      "note": 57,
      "start": 66.3899,
      "duration": 0.0471,
      "velocity": 99,
      "chip": "ym2612"
    },
    {
      "channel": 2,
      "note": 77,
      "start": 66.3926,
      "duration": 0.0447,
      "velocity": 99,
      "chip": "ym2612"
    },
    {
      "channel": 2,
      "note": 75,
      "start": 66.448,
      "duration": 0.042,
      "velocity": 99,
      "chip": "ym2612"
    },
    {
      "channel": 2,
      "note": 77,
      "start": 66.5006,
      "duration": 0.0507,
      "velocity": 99,
      "chip": "ym2612"
    },
    {
      "channel": 2,
      "note": 75,
      "start": 66.5746,
      "duration": 0.1167,
      "velocity": 99,
      "chip": "ym2612"
    },
    {
      "channel": 3,
      "note": 57,
      "start": 66.7143,
      "duration": 0.0503,
      "velocity": 99,
      "chip": "ym2612"
    },
    {
      "channel": 2,
      "note": 77,
      "start": 66.7171,
      "duration": 0.0478,
      "velocity": 99,
      "chip": "ym2612"
    },
    {
      "channel": 3,
      "note": 57,
      "start": 66.7752,
      "duration": 0.0449,
      "velocity": 99,
      "chip": "ym2612"
    },
    {
      "channel": 2,
      "note": 75,
      "start": 66.7776,
      "duration": 0.0427,
      "velocity": 99,
      "chip": "ym2612"
    },
    {
      "channel": 4,
      "note": 84,
      "start": 66.8311,
      "duration": 2.0249,
      "velocity": 101,
      "chip": "ym2612"
    },
    {
      "channel": 2,
      "note": 69,
      "start": 66.8338,
      "duration": 0.0458,
      "velocity": 99,
      "chip": "ym2612"
    },
    {
      "channel": 1,
      "note": 60,
      "start": 66.8377,
      "duration": 2.243,
      "velocity": 86,
      "chip": "ym2612"
    },
    {
      "channel": 0,
      "note": 65,
      "start": 66.8403,
      "duration": 2.2403,
      "velocity": 86,
      "chip": "ym2612"
    },
    {
      "channel": 3,
      "note": 57,
      "start": 66.843,
      "duration": 2.2378,
      "velocity": 86,
      "chip": "ym2612"
    },
    {
      "channel": 2,
      "note": 72,
      "start": 66.89,
      "duration": 0.0421,
      "velocity": 99,
      "chip": "ym2612"
    },
    {
      "channel": 2,
      "note": 77,
      "start": 66.942,
      "duration": 0.0452,
      "velocity": 99,
      "chip": "ym2612"
    },
    {
      "channel": 2,
      "note": 72,
      "start": 66.9973,
      "duration": 0.043,
      "velocity": 99,
      "chip": "ym2612"
    },
    {
      "channel": 2,
      "note": 77,
      "start": 67.0514,
      "duration": 0.0475,
      "velocity": 99,
      "chip": "ym2612"
    },
    {
      "channel": 2,
      "note": 72,
      "start": 67.1221,
      "duration": 0.1167,
      "velocity": 99,
      "chip": "ym2612"
    },
    {
      "channel": 2,
      "note": 77,
      "start": 67.2621,
      "duration": 0.039,
      "velocity": 99,
      "chip": "ym2612"
    },
    {
      "channel": 2,
      "note": 72,
      "start": 67.3197,
      "duration": 0.0354,
      "velocity": 99,
      "chip": "ym2612"
    },
    {
      "channel": 2,
      "note": 69,
      "start": 67.3728,
      "duration": 0.0359,
      "velocity": 99,
      "chip": "ym2612"
    },
    {
      "channel": 2,
      "note": 72,
      "start": 67.4495,
      "duration": 0.0968,
      "velocity": 99,
      "chip": "ym2612"
    },
    {
      "channel": 2,
      "note": 77,
      "start": 67.5695,
      "duration": 0.0466,
      "velocity": 99,
      "chip": "ym2612"
    },
    {
      "channel": 2,
      "note": 72,
      "start": 67.6271,
      "duration": 0.0424,
      "velocity": 99,
      "chip": "ym2612"
    },
    {
      "channel": 2,
      "note": 77,
      "start": 67.6802,
      "duration": 0.0531,
      "velocity": 99,
      "chip": "ym2612"
    },
    {
      "channel": 2,
      "note": 72,
      "start": 67.7565,
      "duration": 0.1168,
      "velocity": 99,
      "chip": "ym2612"
    },
    {
      "channel": 2,
      "note": 77,
      "start": 67.8965,
      "duration": 0.0462,
      "velocity": 99,
      "chip": "ym2612"
    },
    {
      "channel": 2,
      "note": 72,
      "start": 67.9534,
      "duration": 0.0453,
      "velocity": 99,
      "chip": "ym2612"
    },
    {
      "channel": 2,
      "note": 69,
      "start": 68.0089,
      "duration": 0.0447,
      "velocity": 99,
      "chip": "ym2612"
    },
    {
      "channel": 2,
      "note": 72,
      "start": 68.0636,
      "duration": 0.0429,
      "velocity": 99,
      "chip": "ym2612"
    },
    {
      "channel": 2,
      "note": 77,
      "start": 68.1178,
      "duration": 0.0452,
      "velocity": 99,
      "chip": "ym2612"
    },
    {
      "channel": 2,
      "note": 72,
      "start": 68.1729,
      "duration": 0.0422,
      "velocity": 99,
      "chip": "ym2612"
    },
    {
      "channel": 2,
      "note": 77,
      "start": 68.2262,
      "duration": 0.0479,
      "velocity": 99,
      "chip": "ym2612"
    },
    {
      "channel": 2,
      "note": 72,
      "start": 68.2973,
      "duration": 0.1167,
      "velocity": 99,
      "chip": "ym2612"
    },
    {
      "channel": 2,
      "note": 77,
      "start": 68.4372,
      "duration": 0.0465,
      "velocity": 99,
      "chip": "ym2612"
    },
    {
      "channel": 2,
      "note": 72,
      "start": 68.4947,
      "duration": 0.0423,
      "velocity": 99,
      "chip": "ym2612"
    },
    {
      "channel": 2,
      "note": 69,
      "start": 68.5475,
      "duration": 0.053,
      "velocity": 99,
      "chip": "ym2612"
    },
    {
      "channel": 2,
      "note": 72,
      "start": 68.6237,
      "duration": 0.1168,
      "velocity": 99,
      "chip": "ym2612"
    },
    {
      "channel": 2,
      "note": 77,
      "start": 68.7637,
      "duration": 0.0392,
      "velocity": 99,
      "chip": "ym2612"
    },
    {
      "channel": 2,
      "note": 72,
      "start": 68.8214,
      "duration": 0.0348,
      "velocity": 99,
      "chip": "ym2612"
    },
    {
      "channel": 4,
      "note": 76,
      "start": 68.8737,
      "duration": 0.2071,
      "velocity": 101,
      "chip": "ym2612"
    },
    {
      "channel": 2,
      "note": 77,
      "start": 68.8774,
      "duration": 0.0343,
      "velocity": 99,
      "chip": "ym2612"
    },
    {
      "channel": 2,
      "note": 72,
      "start": 68.9298,
      "duration": 0.0387,
      "velocity": 99,
      "chip": "ym2612"
    },
    {
      "channel": 2,
      "note": 77,
      "start": 68.986,
      "duration": 0.0406,
      "velocity": 99,
      "chip": "ym2612"
    },
    {
      "channel": 2,
      "note": 72,
      "start": 69.0369,
      "duration": 0.0441,
      "velocity": 99,
      "chip": "ym2612"
    },
    {
      "channel": 4,
      "note": 81,
      "start": 69.0912,
      "duration": 0.8572,
      "velocity": 101,
      "chip": "ym2612"
    },
    {
      "channel": 2,
      "note": 69,
      "start": 69.0946,
      "duration": 0.0454,
      "velocity": 99,
      "chip": "ym2612"
    },
    {
      "channel": 0,
      "note": 60,
      "start": 69.097,
      "duration": 2.3521,
      "velocity": 86,
      "chip": "ym2612"
    },
    {
      "channel": 1,
      "note": 57,
      "start": 69.0994,
      "duration": 2.3498,
      "velocity": 86,
      "chip": "ym2612"
    },
    {
      "channel": 3,
      "note": 64,
      "start": 69.1023,
      "duration": 2.347,
      "velocity": 86,
      "chip": "ym2612"
    },
    {
      "channel": 2,
      "note": 72,
      "start": 69.1508,
      "duration": 0.0421,
      "velocity": 99,
      "chip": "ym2612"
    },
    {
      "channel": 2,
      "note": 76,
      "start": 69.2029,
      "duration": 0.0452,
      "velocity": 99,
      "chip": "ym2612"
    },
    {
      "channel": 2,
      "note": 72,
      "start": 69.2583,
      "duration": 0.043,
      "velocity": 99,
      "chip": "ym2612"
    },
    {
      "channel": 2,
      "note": 76,
      "start": 69.3123,
      "duration": 0.0478,
      "velocity": 99,
      "chip": "ym2612"
    },
    {
      "channel": 2,
      "note": 72,
      "start": 69.3833,
      "duration": 0.1168,
      "velocity": 99,
      "chip": "ym2612"
    },
    {
      "channel": 2,
      "note": 76,
      "start": 69.5233,
      "duration": 0.0462,
      "velocity": 99,
      "chip": "ym2612"
    },
    {
      "channel": 2,
      "note": 72,
      "start": 69.5804,
      "duration": 0.0425,
      "velocity": 99,
      "chip": "ym2612"
    },
    {
      "channel": 2,
      "note": 69,
      "start": 69.6333,
      "duration": 0.0529,
      "velocity": 99,
      "chip": "ym2612"
    },
    {
      "channel": 2,
      "note": 72,
      "start": 69.7094,
      "duration": 0.1168,
      "velocity": 99,
      "chip": "ym2612"
    },
    {
      "channel": 2,
      "note": 76,
      "start": 69.8494,
      "duration": 0.0459,
      "velocity": 99,
      "chip": "ym2612"
    },
    {
      "channel": 2,
      "note": 72,
      "start": 69.9063,
      "duration": 0.0422,
      "velocity": 99,
      "chip": "ym2612"
    },
    {
      "channel": 4,
      "note": 83,
      "start": 69.9591,
      "duration": 0.3105,
      "velocity": 101,
      "chip": "ym2612"
    },
    {
      "channel": 2,
      "note": 76,
      "start": 69.9629,
      "duration": 0.0492,
      "velocity": 99,
      "chip": "ym2612"
    },
    {
      "channel": 2,
      "note": 72,
      "start": 70.0354,
      "duration": 0.1167,
      "velocity": 99,
      "chip": "ym2612"
    },
    {
      "channel": 2,
      "note": 76,
      "start": 70.1754,
      "duration": 0.0378,
      "velocity": 99,
      "chip": "ym2612"
    },
    {
      "channel": 2,
      "note": 72,
      "start": 70.2319,
      "duration": 0.0379,
      "velocity": 99,
      "chip": "ym2612"
    },
    {
      "channel": 4,
      "note": 84,
      "start": 70.2879,
      "duration": 0.5077,
      "velocity": 101,
      "chip": "ym2612"
    },
    {
      "channel": 2,
      "note": 69,
      "start": 70.2914,
      "duration": 0.035,
      "velocity": 99,
      "chip": "ym2612"
    },
    {
      "channel": 2,
      "note": 72,
      "start": 70.3439,
      "duration": 0.0351,
      "velocity": 99,
      "chip": "ym2612"
    },
    {
      "channel": 2,
      "note": 76,
      "start": 70.3969,
      "duration": 0.0376,
      "velocity": 99,
      "chip": "ym2612"
    },
    {
      "channel": 2,
      "note": 72,
      "start": 70.4457,
      "duration": 0.0411,
      "velocity": 99,
      "chip": "ym2612"
    },
    {
      "channel": 2,
      "note": 76,
      "start": 70.497,
      "duration": 0.043,
      "velocity": 99,
      "chip": "ym2612"
    },
    {
      "channel": 2,
      "note": 72,
      "start": 70.5563,
      "duration": 0.1168,
      "velocity": 99,
      "chip": "ym2612"
    },
    {
      "channel": 2,
      "note": 76,
      "start": 70.6963,
      "duration": 0.0464,
      "velocity": 99,
      "chip": "ym2612"
    },
    {
      "channel": 2,
      "note": 72,
      "start": 70.7538,
      "duration": 0.042,
      "velocity": 99,
      "chip": "ym2612"
    },
    {
      "channel": 4,
      "note": 81,
      "start": 70.8058,
      "duration": 0.6435,
      "velocity": 101,
      "chip": "ym2612"
    },
    {
      "channel": 2,
      "note": 69,
      "start": 70.8093,
      "duration": 0.0493,
      "velocity": 99,
      "chip": "ym2612"
    },
    {
      "channel": 2,
      "note": 72,
      "start": 70.8819,
      "duration": 0.1167,
      "velocity": 99,
      "chip": "ym2612"
    },
    {
      "channel": 2,
      "note": 76,
      "start": 71.0217,
      "duration": 0.0458,
      "velocity": 99,
      "chip": "ym2612"
    },
    {
      "channel": 2,
      "note": 72,
      "start": 71.0785,
      "duration": 0.0425,
      "velocity": 99,
      "chip": "ym2612"
    },
    {
      "channel": 2,
      "note": 76,
      "start": 71.1317,
      "duration": 0.0528,
      "velocity": 99,
      "chip": "ym2612"
    },
    {
      "channel": 2,
      "note": 72,
      "start": 71.2077,
      "duration": 0.1167,
      "velocity": 99,
      "chip": "ym2612"
    },
    {
      "channel": 2,
      "note": 76,
      "start": 71.3476,
      "duration": 0.045,
      "velocity": 99,
      "chip": "ym2612"
    },
    {
      "channel": 2,
      "note": 72,
      "start": 71.404,
      "duration": 0.0455,
      "velocity": 99,
      "chip": "ym2612"
    },
    {
      "channel": 4,
      "note": 75,
      "start": 71.4599,
      "duration": 1.9623,
      "velocity": 101,
      "chip": "ym2612"
    },
    {
      "channel": 2,
      "note": 67,
      "start": 71.4626,
      "duration": 0.045,
      "velocity": 99,
      "chip": "ym2612"
    },
    {
      "channel": 0,
      "note": 63,
      "start": 71.4651,
      "duration": 2.3252,
      "velocity": 86,
      "chip": "ym2612"
    },
    {
      "channel": 1,
      "note": 67,
      "start": 71.4674,
      "duration": 2.3229,
      "velocity": 86,
      "chip": "ym2612"
    },
    {
      "channel": 3,
      "note": 60,
      "start": 71.4699,
      "duration": 2.3205,
      "velocity": 86,
      "chip": "ym2612"
    },
    {
      "channel": 2,
      "note": 72,
      "start": 71.5176,
      "duration": 0.0424,
      "velocity": 99,
      "chip": "ym2612"
    },
    {
      "channel": 2,
      "note": 75,
      "start": 71.57,
      "duration": 0.0448,
      "velocity": 99,
      "chip": "ym2612"
    },
    {
      "channel": 2,
      "note": 72,
      "start": 71.6246,
      "duration": 0.0351,
      "velocity": 99,
      "chip": "ym2612"
    },
    {
      "channel": 2,
      "note": 75,
      "start": 71.6779,
      "duration": 0.0347,
      "velocity": 99,
      "chip": "ym2612"
    },
    {
      "channel": 2,
      "note": 72,
      "start": 71.7478,
      "duration": 0.0969,
      "velocity": 99,
      "chip": "ym2612"
    },
    {
      "channel": 2,
      "note": 75,
      "start": 71.8878,
      "duration": 0.0383,
      "velocity": 99,
      "chip": "ym2612"
    },
    {
      "channel": 2,
      "note": 72,
      "start": 71.9367,
      "duration": 0.0431,
      "velocity": 99,
      "chip": "ym2612"
    },
    {
      "channel": 2,
      "note": 67,
      "start": 71.9909,
      "duration": 0.0422,
      "velocity": 99,
      "chip": "ym2612"
    },
    {
      "channel": 2,
      "note": 72,
      "start": 72.0536,
      "duration": 0.1168,
      "velocity": 99,
      "chip": "ym2612"
    },
    {
      "channel": 2,
      "note": 75,
      "start": 72.1936,
      "duration": 0.0463,
      "velocity": 99,
      "chip": "ym2612"
    },
    {
      "channel": 2,
      "note": 72,
      "start": 72.2509,
      "duration": 0.0422,
      "velocity": 99,
      "chip": "ym2612"
    },
    {
      "channel": 2,
      "note": 75,
      "start": 72.3039,
      "duration": 0.053,
      "velocity": 99,
      "chip": "ym2612"
    },
    {
      "channel": 2,
      "note": 72,
      "start": 72.3801,
      "duration": 0.1168,
      "velocity": 99,
      "chip": "ym2612"
    },
    {
      "channel": 2,
      "note": 75,
      "start": 72.5201,
      "duration": 0.0454,
      "velocity": 99,
      "chip": "ym2612"
    },
    {
      "channel": 2,
      "note": 72,
      "start": 72.5768,
      "duration": 0.0449,
      "velocity": 99,
      "chip": "ym2612"
    },
    {
      "channel": 2,
      "note": 67,
      "start": 72.6317,
      "duration": 0.0441,
      "velocity": 99,
      "chip": "ym2612"
    },
    {
      "channel": 2,
      "note": 72,
      "start": 72.6859,
      "duration": 0.0427,
      "velocity": 99,
      "chip": "ym2612"
    },
    {
      "channel": 2,
      "note": 75,
      "start": 72.7398,
      "duration": 0.0439,
      "velocity": 99,
      "chip": "ym2612"
    },
    {
      "channel": 2,
      "note": 72,
      "start": 72.7937,
      "duration": 0.0429,
      "velocity": 99,
      "chip": "ym2612"
    },
    {
      "channel": 2,
      "note": 75,
      "start": 72.8477,
      "duration": 0.0476,
      "velocity": 99,
      "chip": "ym2612"
    },
    {
      "channel": 2,
      "note": 72,
      "start": 72.9185,
      "duration": 0.1169,
      "velocity": 99,
      "chip": "ym2612"
    },
    {
      "channel": 2,
      "note": 75,
      "start": 73.0586,
      "duration": 0.0457,
      "velocity": 99,
      "chip": "ym2612"
    },
    {
      "channel": 2,
      "note": 72,
      "start": 73.1153,
      "duration": 0.0348,
      "velocity": 99,
      "chip": "ym2612"
    },
    {
      "channel": 2,
      "note": 67,
      "start": 73.1679,
      "duration": 0.0355,
      "velocity": 99,
      "chip": "ym2612"
    },
    {
      "channel": 2,
      "note": 72,
      "start": 73.2439,
      "duration": 0.0968,
      "velocity": 99,
      "chip": "ym2612"
    },
    {
      "channel": 2,
      "note": 75,
      "start": 73.3839,
      "duration": 0.0385,
      "velocity": 99,
      "chip": "ym2612"
    },
    {
      "channel": 2,
      "note": 72,
      "start": 73.4325,
      "duration": 0.0433,
      "velocity": 99,
      "chip": "ym2612"
    },
    {
      "channel": 4,
      "note": 84,
      "start": 73.4869,
      "duration": 0.1786,
      "velocity": 101,
      "chip": "ym2612"
    },
    {
      "channel": 2,
      "note": 75,
      "start": 73.4897,
      "duration": 0.0398,
      "velocity": 99,
      "chip": "ym2612"
    },
    {
      "channel": 2,
      "note": 72,
      "start": 73.5487,
      "duration": 0.117,
      "velocity": 99,
      "chip": "ym2612"
    },
    {
      "channel": 4,
      "note": 86,
      "start": 73.6884,
      "duration": 0.1022,
      "velocity": 101,
      "chip": "ym2612"
    },
    {
      "channel": 2,
      "note": 75,
      "start": 73.6913,
      "duration": 0.044,
      "velocity": 99,
      "chip": "ym2612"
    },
    {
      "channel": 2,
      "note": 72,
      "start": 73.7465,
      "duration": 0.0442,
      "velocity": 99,
      "chip": "ym2612"
    },
    {
      "channel": 4,
      "note": 87,
      "start": 73.8023,
      "duration": 0.8481,
      "velocity": 101,
      "chip": "ym2612"
    },
    {
      "channel": 2,
      "note": 70,
      "start": 73.8049,
      "duration": 0.0458,
      "velocity": 99,
      "chip": "ym2612"
    },
    {
      "channel": 0,
      "note": 66,
      "start": 73.8074,
      "duration": 2.3565,
      "velocity": 86,
      "chip": "ym2612"
    },
    {
      "channel": 1,
      "note": 70,
      "start": 73.8097,
      "duration": 2.3542,
      "velocity": 86,
      "chip": "ym2612"
    },
    {
      "channel": 3,
      "note": 63,
      "start": 73.8122,
      "duration": 2.3518,
      "velocity": 86,
      "chip": "ym2612"
    },
    {
      "channel": 2,
      "note": 75,
      "start": 73.8619,
      "duration": 0.0415,
      "velocity": 99,
      "chip": "ym2612"
    },
    {
      "channel": 2,
      "note": 78,
      "start": 73.9136,
      "duration": 0.0449,
      "velocity": 99,
      "chip": "ym2612"
    },
    {
      "channel": 2,
      "note": 75,
      "start": 73.9683,
      "duration": 0.043,
      "velocity": 99,
      "chip": "ym2612"
    },
    {
      "channel": 2,
      "note": 78,
      "start": 74.0225,
      "duration": 0.0474,
      "velocity": 99,
      "chip": "ym2612"
    },
    {
      "channel": 2,
      "note": 75,
      "start": 74.0931,
      "duration": 0.1168,
      "velocity": 99,
      "chip": "ym2612"
    },
    {
      "channel": 2,
      "note": 78,
      "start": 74.2331,
      "duration": 0.0459,
      "velocity": 99,
      "chip": "ym2612"
    },
    {
      "channel": 2,
      "note": 75,
      "start": 74.29,
      "duration": 0.0419,
      "velocity": 99,
      "chip": "ym2612"
    },
    {
      "channel": 2,
      "note": 70,
      "start": 74.3423,
      "duration": 0.0527,
      "velocity": 99,
      "chip": "ym2612"
    },
    {
      "channel": 2,
      "note": 75,
      "start": 74.4182,
      "duration": 0.1167,
      "velocity": 99,
      "chip": "ym2612"
    },
    {
      "channel": 2,
      "note": 78,
      "start": 74.5582,
      "duration": 0.046,
      "velocity": 99,
      "chip": "ym2612"
    },
    {
      "channel": 2,
      "note": 75,
      "start": 74.6154,
      "duration": 0.0351,
      "velocity": 99,
      "chip": "ym2612"
    },
    {
      "channel": 4,
      "note": 89,
      "start": 74.6682,
      "duration": 0.3096,
      "velocity": 101,
      "chip": "ym2612"
    },
    {
      "channel": 2,
      "note": 78,
      "start": 74.672,
      "duration": 0.0327,
      "velocity": 99,
      "chip": "ym2612"
    },
    {
      "channel": 2,
      "note": 75,
      "start": 74.7438,
      "duration": 0.0968,
      "velocity": 99,
      "chip": "ym2612"
    },
    {
      "channel": 2,
      "note": 78,
      "start": 74.8838,
      "duration": 0.0388,
      "velocity": 99,
      "chip": "ym2612"
    },
    {
      "channel": 2,
      "note": 75,
      "start": 74.9332,
      "duration": 0.0447,
      "velocity": 99,
      "chip": "ym2612"
    },
    {
      "channel": 4,
      "note": 90,
      "start": 74.9891,
      "duration": 0.5269,
      "velocity": 101,
      "chip": "ym2612"
    },
    {
      "channel": 2,
      "note": 70,
      "start": 74.9917,
      "duration": 0.042,
      "velocity": 99,
      "chip": "ym2612"
    },
    {
      "channel": 2,
      "note": 75,
      "start": 75.0441,
      "duration": 0.043,
      "velocity": 99,
      "chip": "ym2612"
    },
    {
      "channel": 2,
      "note": 78,
      "start": 75.0973,
      "duration": 0.0449,
      "velocity": 99,
      "chip": "ym2612"
    },
    {
      "channel": 2,
      "note": 75,
      "start": 75.1524,
      "duration": 0.0431,
      "velocity": 99,
      "chip": "ym2612"
    },
    {
      "channel": 2,
      "note": 78,
      "start": 75.2065,
      "duration": 0.0471,
      "velocity": 99,
      "chip": "ym2612"
    },
    {
      "channel": 2,
      "note": 75,
      "start": 75.2767,
      "duration": 0.1167,
      "velocity": 99,
      "chip": "ym2612"
    },
    {
      "channel": 2,
      "note": 78,
      "start": 75.4166,
      "duration": 0.0459,
      "velocity": 99,
      "chip": "ym2612"
    },
    {
      "channel": 2,
      "note": 75,
      "start": 75.4735,
      "duration": 0.0426,
      "velocity": 99,
      "chip": "ym2612"
    },
    {
      "channel": 4,
      "note": 94,
      "start": 75.5262,
      "duration": 0.6379,
      "velocity": 101,
      "chip": "ym2612"
    },
    {
      "channel": 2,
      "note": 70,
      "start": 75.5297,
      "duration": 0.0494,
      "velocity": 99,
      "chip": "ym2612"
    },
    {
      "channel": 2,
      "note": 75,
      "start": 75.6023,
      "duration": 0.1169,
      "velocity": 99,
      "chip": "ym2612"
    },
    {
      "channel": 2,
      "note": 77,
      "start": 75.7424,
      "duration": 0.0462,
      "velocity": 99,
      "chip": "ym2612"
    },
    {
      "channel": 2,
      "note": 75,
      "start": 75.7998,
      "duration": 0.0423,
      "velocity": 99,
      "chip": "ym2612"
    },
    {
      "channel": 2,
      "note": 77,
      "start": 75.8527,
      "duration": 0.0526,
      "velocity": 99,
      "chip": "ym2612"
    },
    {
      "channel": 2,
      "note": 75,
      "start": 75.9285,
      "duration": 0.1168,
      "velocity": 99,
      "chip": "ym2612"
    },
    {
      "channel": 2,
      "note": 77,
      "start": 76.0685,
      "duration": 0.0463,
      "velocity": 99,
      "chip": "ym2612"
    },
    {
      "channel": 2,
      "note": 75,
      "start": 76.1266,
      "duration": 0.0377,
      "velocity": 99,
      "chip": "ym2612"
    },
    {
      "channel": 4,
      "note": 93,
      "start": 76.1834,
      "duration": 1.9317,
      "velocity": 101,
      "chip": "ym2612"
    },
    {
      "channel": 2,
      "note": 69,
      "start": 76.1861,
      "duration": 0.0374,
      "velocity": 99,
      "chip": "ym2612"
    },
    {
      "channel": 0,
      "note": 69,
      "start": 76.189,
      "duration": 1.0519,
      "velocity": 86,
      "chip": "ym2612"
    },
    {
      "channel": 1,
      "note": 60,
      "start": 76.1912,
      "duration": 1.0498,
      "velocity": 86,
      "chip": "ym2612"
    },
    {
      "channel": 3,
      "note": 65,
      "start": 76.1948,
      "duration": 1.0462,
      "velocity": 86,
      "chip": "ym2612"
    },
    {
      "channel": 2,
      "note": 72,
      "start": 76.242,
      "duration": 0.0351,
      "velocity": 99,
      "chip": "ym2612"
    },
    {
      "channel": 2,
      "note": 77,
      "start": 76.2941,
      "duration": 0.0366,
      "velocity": 99,
      "chip": "ym2612"
    },
    {
      "channel": 2,
      "note": 72,
      "start": 76.3413,
      "duration": 0.0423,
      "velocity": 99,
      "chip": "ym2612"
    },
    {
      "channel": 2,
      "note": 77,
      "start": 76.3939,
      "duration": 0.0429,
      "velocity": 99,
      "chip": "ym2612"
    },
    {
      "channel": 2,
      "note": 72,
      "start": 76.455,
      "duration": 0.1168,
      "velocity": 99,
      "chip": "ym2612"
    },
    {
      "channel": 2,
      "note": 77,
      "start": 76.595,
      "duration": 0.0468,
      "velocity": 99,
      "chip": "ym2612"
    },
    {
      "channel": 2,
      "note": 72,
      "start": 76.6528,
      "duration": 0.0421,
      "velocity": 99,
      "chip": "ym2612"
    },
    {
      "channel": 2,
      "note": 69,
      "start": 76.7054,
      "duration": 0.053,
      "velocity": 99,
      "chip": "ym2612"
    },
    {
      "channel": 2,
      "note": 72,
      "start": 76.7816,
      "duration": 0.1168,
      "velocity": 99,
      "chip": "ym2612"
    },
    {
      "channel": 2,
      "note": 77,
      "start": 76.9216,
      "duration": 0.0461,
      "velocity": 99,
      "chip": "ym2612"
    },
    {
      "channel": 2,
      "note": 72,
      "start": 76.9785,
      "duration": 0.0423,
      "velocity": 99,
      "chip": "ym2612"
    },
    {
      "channel": 2,
      "note": 77,
      "start": 77.0314,
      "duration": 0.0449,
      "velocity": 99,
      "chip": "ym2612"
    },
    {
      "channel": 2,
      "note": 72,
      "start": 77.0861,
      "duration": 0.0443,
      "velocity": 99,
      "chip": "ym2612"
    },
    {
      "channel": 2,
      "note": 77,
      "start": 77.1405,
      "duration": 0.0447,
      "velocity": 99,
      "chip": "ym2612"
    },
    {
      "channel": 2,
      "note": 72,
      "start": 77.1952,
      "duration": 0.046,
      "velocity": 99,
      "chip": "ym2612"
    },
    {
      "channel": 2,
      "note": 69,
      "start": 77.2513,
      "duration": 0.0487,
      "velocity": 99,
      "chip": "ym2612"
    },
    {
      "channel": 0,
      "note": 81,
      "start": 77.2546,
      "duration": 0.8604,
      "velocity": 86,
      "chip": "ym2612"
    },
    {
      "channel": 1,
      "note": 72,
      "start": 77.2569,
      "duration": 0.8581,
      "velocity": 86,
      "chip": "ym2612"
    },
    {
      "channel": 3,
      "note": 78,
      "start": 77.2594,
      "duration": 0.8557,
      "velocity": 86,
      "chip": "ym2612"
    },
    {
      "channel": 2,
      "note": 72,
      "start": 77.3107,
      "duration": 0.0419,
      "velocity": 99,
      "chip": "ym2612"
    },
    {
      "channel": 2,
      "note": 77,
      "start": 77.3629,
      "duration": 0.0446,
      "velocity": 99,
      "chip": "ym2612"
    },
    {
      "channel": 2,
      "note": 72,
      "start": 77.4185,
      "duration": 0.0368,
      "velocity": 99,
      "chip": "ym2612"
    },
    {
      "channel": 2,
      "note": 77,
      "start": 77.4728,
      "duration": 0.0376,
      "velocity": 99,
      "chip": "ym2612"
    },
    {
      "channel": 2,
      "note": 72,
      "start": 77.5279,
      "duration": 0.0377,
      "velocity": 99,
      "chip": "ym2612"
    },
    {
      "channel": 2,
      "note": 77,
      "start": 77.5831,
      "duration": 0.0371,
      "velocity": 99,
      "chip": "ym2612"
    },
    {
      "channel": 2,
      "note": 72,
      "start": 77.6313,
      "duration": 0.0414,
      "velocity": 99,
      "chip": "ym2612"
    },
    {
      "channel": 2,
      "note": 69,
      "start": 77.683,
      "duration": 0.0452,
      "velocity": 99,
      "chip": "ym2612"
    },
    {
      "channel": 2,
      "note": 72,
      "start": 77.7388,
      "duration": 0.044,
      "velocity": 99,
      "chip": "ym2612"
    },
    {
      "channel": 2,
      "note": 77,
      "start": 77.7929,
      "duration": 0.0452,
      "velocity": 99,
      "chip": "ym2612"
    },
    {
      "channel": 2,
      "note": 72,
      "start": 77.8482,
      "duration": 0.0449,
      "velocity": 99,
      "chip": "ym2612"
    },
    {
      "channel": 2,
      "note": 77,
      "start": 77.9035,
      "duration": 0.0437,
      "velocity": 99,
      "chip": "ym2612"
    },
    {
      "channel": 2,
      "note": 72,
      "start": 77.9574,
      "duration": 0.0456,
      "velocity": 99,
      "chip": "ym2612"
    },
    {
      "channel": 2,
      "note": 77,
      "start": 78.0129,
      "duration": 0.046,
      "velocity": 99,
      "chip": "ym2612"
    },
    {
      "channel": 2,
      "note": 72,
      "start": 78.0694,
      "duration": 0.0459,
      "velocity": 99,
      "chip": "ym2612"
    },
    {
      "channel": 4,
      "note": 70,
      "start": 78.1253,
      "duration": 0.0409,
      "velocity": 101,
      "chip": "ym2612"
    },
    {
      "channel": 0,
      "note": 46,
      "start": 78.1289,
      "duration": 3.5956,
      "velocity": 104,
      "chip": "ym2612"
    },
    {
      "channel": 1,
      "note": 58,
      "start": 78.1313,
      "duration": 3.5934,
      "velocity": 104,
      "chip": "ym2612"
    },
    {
      "channel": 3,
      "note": 58,
      "start": 78.1339,
      "duration": 0.0322,
      "velocity": 99,
      "chip": "ym2612"
    },
    {
      "channel": 4,
      "note": 70,
      "start": 78.1834,
      "duration": 0.04,
      "velocity": 101,
      "chip": "ym2612"
    },
    {
      "channel": 3,
      "note": 58,
      "start": 78.1857,
      "duration": 0.0376,
      "velocity": 99,
      "chip": "ym2612"
    },
    {
      "channel": 4,
      "note": 70,
      "start": 78.2402,
      "duration": 0.0382,
      "velocity": 101,
      "chip": "ym2612"
    },
    {
      "channel": 3,
      "note": 58,
      "start": 78.2426,
      "duration": 0.0356,
      "velocity": 99,
      "chip": "ym2612"
    },
    {
      "channel": 2,
      "note": 106,
      "start": 78.3492,
      "duration": 0.0204,
      "velocity": 105,
      "chip": "ym2612"
    },
    {
      "channel": 3,
      "note": 94,
      "start": 78.352,
      "duration": 0.0176,
      "velocity": 105,
      "chip": "ym2612"
    },
    {
      "channel": 4,
      "note": 70,
      "start": 80.2171,
      "duration": 0.0404,
      "velocity": 101,
      "chip": "ym2612"
    },
    {
      "channel": 3,
      "note": 58,
      "start": 80.2201,
      "duration": 0.0372,
      "velocity": 99,
      "chip": "ym2612"
    },
    {
      "channel": 4,
      "note": 70,
      "start": 80.2762,
      "duration": 0.0377,
      "velocity": 101,
      "chip": "ym2612"
    },
    {
      "channel": 3,
      "note": 58,
      "start": 80.2787,
      "duration": 0.0351,
      "velocity": 99,
      "chip": "ym2612"
    },
    {
      "channel": 4,
      "note": 70,
      "start": 80.3318,
      "duration": 0.0369,
      "velocity": 101,
      "chip": "ym2612"
    },
    {
      "channel": 3,
      "note": 58,
      "start": 80.3342,
      "duration": 0.0344,
      "velocity": 99,
      "chip": "ym2612"
    },
    {
      "channel": 2,
      "note": 106,
      "start": 80.4401,
      "duration": 0.0207,
      "velocity": 105,
      "chip": "ym2612"
    },
    {
      "channel": 3,
      "note": 94,
      "start": 80.443,
      "duration": 0.0177,
      "velocity": 105,
      "chip": "ym2612"
    },
    {
      "channel": 4,
      "note": 70,
      "start": 81.7478,
      "duration": 0.0442,
      "velocity": 101,
      "chip": "ym2612"
    },
    {
      "channel": 0,
      "note": 46,
      "start": 81.7506,
      "duration": 0.971,
      "velocity": 104,
      "chip": "ym2612"
    },
    {
      "channel": 1,
      "note": 58,
      "start": 81.7536,
      "duration": 0.9681,
      "velocity": 104,
      "chip": "ym2612"
    },
    {
      "channel": 3,
      "note": 58,
      "start": 81.7565,
      "duration": 0.0354,
      "velocity": 99,
      "chip": "ym2612"
    },
    {
      "channel": 4,
      "note": 70,
      "start": 81.8098,
      "duration": 0.039,
      "velocity": 101,
      "chip": "ym2612"
    },
    {
      "channel": 3,
      "note": 58,
      "start": 81.8121,
      "duration": 0.0366,
      "velocity": 99,
      "chip": "ym2612"
    },
    {
      "channel": 4,
      "note": 70,
      "start": 81.8663,
      "duration": 0.038,
      "velocity": 101,
      "chip": "ym2612"
    },
    {
      "channel": 3,
      "note": 58,
      "start": 81.8687,
      "duration": 0.0355,
      "velocity": 99,
      "chip": "ym2612"
    },
    {
      "channel": 2,
      "note": 106,
      "start": 81.9751,
      "duration": 0.0286,
      "velocity": 105,
      "chip": "ym2612"
    },
    {
      "channel": 3,
      "note": 94,
      "start": 81.9781,
      "duration": 0.0254,
      "velocity": 105,
      "chip": "ym2612"
    },
    {
      "channel": 4,
      "note": 70,
      "start": 82.1836,
      "duration": 0.0399,
      "velocity": 101,
      "chip": "ym2612"
    },
    {
      "channel": 3,
      "note": 58,
      "start": 82.1866,
      "duration": 0.0368,
      "velocity": 99,
      "chip": "ym2612"
    },
    {
      "channel": 4,
      "note": 70,
      "start": 82.2419,
      "duration": 0.0391,
      "velocity": 101,
      "chip": "ym2612"
    },
    {
      "channel": 3,
      "note": 58,
      "start": 82.2444,
      "duration": 0.0366,
      "velocity": 99,
      "chip": "ym2612"
    },
    {
      "channel": 4,
      "note": 70,
      "start": 82.2974,
      "duration": 0.0387,
      "velocity": 101,
      "chip": "ym2612"
    },
    {
      "channel": 3,
      "note": 58,
      "start": 82.2998,
      "duration": 0.0362,
      "velocity": 99,
      "chip": "ym2612"
    },
    {
      "channel": 4,
      "note": 70,
      "start": 82.3537,
      "duration": 0.0412,
      "velocity": 101,
      "chip": "ym2612"
    },
    {
      "channel": 3,
      "note": 58,
      "start": 82.356,
      "duration": 0.0388,
      "velocity": 99,
      "chip": "ym2612"
    },
    {
      "channel": 4,
      "note": 70,
      "start": 82.4112,
      "duration": 0.0384,
      "velocity": 101,
      "chip": "ym2612"
    },
    {
      "channel": 3,
      "note": 58,
      "start": 82.4136,
      "duration": 0.0359,
      "velocity": 99,
      "chip": "ym2612"
    },
    {
      "channel": 4,
      "note": 70,
      "start": 82.4671,
      "duration": 0.0382,
      "velocity": 101,
      "chip": "ym2612"
    },
    {
      "channel": 3,
      "note": 58,
      "start": 82.4694,
      "duration": 0.0358,
      "velocity": 99,
      "chip": "ym2612"
    },
    {
      "channel": 4,
      "note": 70,
      "start": 82.5231,
      "duration": 0.031,
      "velocity": 101,
      "chip": "ym2612"
    },
    {
      "channel": 3,
      "note": 58,
      "start": 82.5257,
      "duration": 0.0283,
      "velocity": 99,
      "chip": "ym2612"
    },
    {
      "channel": 4,
      "note": 70,
      "start": 82.6326,
      "duration": 0.03,
      "velocity": 101,
      "chip": "ym2612"
    },
    {
      "channel": 3,
      "note": 58,
      "start": 82.635,
      "duration": 0.0276,
      "velocity": 99,
      "chip": "ym2612"
    },
    {
      "channel": 4,
      "note": 84,
      "start": 82.7404,
      "duration": 1.2716,
      "velocity": 101,
      "chip": "ym2612"
    },
    {
      "channel": 2,
      "note": 83,
      "start": 82.7435,
      "duration": 2.0228,
      "velocity": 101,
      "chip": "ym2612"
    },
    {
      "channel": 0,
      "note": 69,
      "start": 82.7459,
      "duration": 2.0202,
      "velocity": 104,
      "chip": "ym2612"
    },
    {
      "channel": 3,
      "note": 57,
      "start": 82.7493,
      "duration": 0.0251,
      "velocity": 99,
      "chip": "ym2612"
    },
    {
      "channel": 1,
      "note": 105,
      "start": 82.7529,
      "duration": 0.0142,
      "velocity": 105,
      "chip": "ym2612"
    },
    {
      "channel": 3,
      "note": 57,
      "start": 82.8509,
      "duration": 0.0302,
      "velocity": 99,
      "chip": "ym2612"
    },
    {
      "channel": 3,
      "note": 57,
      "start": 82.8997,
      "duration": 0.0362,
      "velocity": 99,
      "chip": "ym2612"
    },
    {
      "channel": 3,
      "note": 57,
      "start": 82.9532,
      "duration": 0.0387,
      "velocity": 99,
      "chip": "ym2612"
    },
    {
      "channel": 3,
      "note": 57,
      "start": 83.0609,
      "duration": 0.037,
      "velocity": 99,
      "chip": "ym2612"
    },
    {
      "channel": 3,
      "note": 57,
      "start": 83.1676,
      "duration": 0.0374,
      "velocity": 99,
      "chip": "ym2612"
    },
    {
      "channel": 3,
      "note": 57,
      "start": 83.2234,
      "duration": 0.0366,
      "velocity": 99,
      "chip": "ym2612"
    },
    {
      "channel": 3,
      "note": 57,
      "start": 83.277,
      "duration": 0.0376,
      "velocity": 99,
      "chip": "ym2612"
    },
    {
      "channel": 3,
      "note": 57,
      "start": 83.3833,
      "duration": 0.0361,
      "velocity": 99,
      "chip": "ym2612"
    },
    {
      "channel": 3,
      "note": 57,
      "start": 83.4891,
      "duration": 0.0373,
      "velocity": 99,
      "chip": "ym2612"
    },
    {
      "channel": 3,
      "note": 57,
      "start": 83.5954,
      "duration": 0.0306,
      "velocity": 99,
      "chip": "ym2612"
    },
    {
      "channel": 3,
      "note": 57,
      "start": 83.7026,
      "duration": 0.0302,
      "velocity": 99,
      "chip": "ym2612"
    },
    {
      "channel": 3,
      "note": 57,
      "start": 83.7578,
      "duration": 0.0303,
      "velocity": 99,
      "chip": "ym2612"
    },
    {
      "channel": 3,
      "note": 57,
      "start": 83.8132,
      "duration": 0.0312,
      "velocity": 99,
      "chip": "ym2612"
    },
    {
      "channel": 3,
      "note": 57,
      "start": 83.9213,
      "duration": 0.0302,
      "velocity": 99,
      "chip": "ym2612"
    },
    {
      "channel": 4,
      "note": 86,
      "start": 84.0224,
      "duration": 0.4195,
      "velocity": 101,
      "chip": "ym2612"
    },
    {
      "channel": 3,
      "note": 57,
      "start": 84.0249,
      "duration": 0.0347,
      "velocity": 99,
      "chip": "ym2612"
    },
    {
      "channel": 3,
      "note": 57,
      "start": 84.0772,
      "duration": 0.0366,
      "velocity": 99,
      "chip": "ym2612"
    },
    {
      "channel": 3,
      "note": 57,
      "start": 84.1322,
      "duration": 0.0366,
      "velocity": 99,
      "chip": "ym2612"
    },
    {
      "channel": 3,
      "note": 57,
      "start": 84.2381,
      "duration": 0.0366,
      "velocity": 99,
      "chip": "ym2612"
    },
    {
      "channel": 3,
      "note": 57,
      "start": 84.3444,
      "duration": 0.0381,
      "velocity": 99,
      "chip": "ym2612"
    },
    {
      "channel": 4,
      "note": 88,
      "start": 84.452,
      "duration": 0.4163,
      "velocity": 101,
      "chip": "ym2612"
    },
    {
      "channel": 3,
      "note": 57,
      "start": 84.4544,
      "duration": 0.0371,
      "velocity": 99,
      "chip": "ym2612"
    },
    {
      "channel": 3,
      "note": 57,
      "start": 84.5619,
      "duration": 0.0359,
      "velocity": 99,
      "chip": "ym2612"
    },
    {
      "channel": 3,
      "note": 57,
      "start": 84.6152,
      "duration": 0.0373,
      "velocity": 99,
      "chip": "ym2612"
    },
    {
      "channel": 3,
      "note": 57,
      "start": 84.6695,
      "duration": 0.0298,
      "velocity": 99,
      "chip": "ym2612"
    },
    {
      "channel": 3,
      "note": 57,
      "start": 84.7773,
      "duration": 0.0304,
      "velocity": 99,
      "chip": "ym2612"
    },
    {
      "channel": 4,
      "note": 89,
      "start": 84.8858,
      "duration": 1.2792,
      "velocity": 101,
      "chip": "ym2612"
    },
    {
      "channel": 3,
      "note": 57,
      "start": 84.8882,
      "duration": 0.0319,
      "velocity": 99,
      "chip": "ym2612"
    },
    {
      "channel": 1,
      "note": 68,
      "start": 84.8922,
      "duration": 1.2727,
      "velocity": 86,
      "chip": "ym2612"
    },
    {
      "channel": 0,
      "note": 62,
      "start": 84.8947,
      "duration": 1.2701,
      "velocity": 86,
      "chip": "ym2612"
    },
    {
      "channel": 2,
      "note": 71,
      "start": 84.8976,
      "duration": 1.2675,
      "velocity": 86,
      "chip": "ym2612"
    },
    {
      "channel": 3,
      "note": 57,
      "start": 84.9461,
      "duration": 0.0299,
      "velocity": 99,
      "chip": "ym2612"
    },
    {
      "channel": 3,
      "note": 57,
      "start": 85.0013,
      "duration": 0.0284,
      "velocity": 99,
      "chip": "ym2612"
    },
    {
      "channel": 3,
      "note": 57,
      "start": 85.1059,
      "duration": 0.0383,
      "velocity": 99,
      "chip": "ym2612"
    },
    {
      "channel": 3,
      "note": 57,
      "start": 85.2146,
      "duration": 0.0355,
      "velocity": 99,
      "chip": "ym2612"
    },
    {
      "channel": 3,
      "note": 57,
      "start": 85.3188,
      "duration": 0.0372,
      "velocity": 99,
      "chip": "ym2612"
    },
    {
      "channel": 3,
      "note": 57,
      "start": 85.4259,
      "duration": 0.0378,
      "velocity": 99,
      "chip": "ym2612"
    },
    {
      "channel": 3,
      "note": 57,
      "start": 85.4811,
      "duration": 0.0379,
      "velocity": 99,
      "chip": "ym2612"
    },
    {
      "channel": 3,
      "note": 57,
      "start": 85.5361,
      "duration": 0.0384,
      "velocity": 99,
      "chip": "ym2612"
    },
    {
      "channel": 3,
      "note": 57,
      "start": 85.6439,
      "duration": 0.0373,
      "velocity": 99,
      "chip": "ym2612"
    },
    {
      "channel": 3,
      "note": 57,
      "start": 85.7504,
      "duration": 0.0305,
      "velocity": 99,
      "chip": "ym2612"
    },
    {
      "channel": 3,
      "note": 57,
      "start": 85.8066,
      "duration": 0.03,
      "velocity": 99,
      "chip": "ym2612"
    },
    {
      "channel": 3,
      "note": 57,
      "start": 85.8609,
      "duration": 0.0299,
      "velocity": 99,
      "chip": "ym2612"
    },
    {
      "channel": 3,
      "note": 57,
      "start": 85.9679,
      "duration": 0.03,
      "velocity": 99,
      "chip": "ym2612"
    },
    {
      "channel": 3,
      "note": 57,
      "start": 86.0749,
      "duration": 0.0299,
      "velocity": 99,
      "chip": "ym2612"
    },
    {
      "channel": 3,
      "note": 84,
      "start": 86.1754,
      "duration": 2.1372,
      "velocity": 104,
      "chip": "ym2612"
    },
    {
      "channel": 0,
      "note": 81,
      "start": 86.1778,
      "duration": 2.1346,
      "velocity": 104,
      "chip": "ym2612"
    },
    {
      "channel": 1,
      "note": 88,
      "start": 86.1803,
      "duration": 2.1322,
      "velocity": 104,
      "chip": "ym2612"
    },
    {
      "channel": 4,
      "note": 81,
      "start": 86.1838,
      "duration": 0.0888,
      "velocity": 105,
      "chip": "ym2612"
    },
    {
      "channel": 4,
      "note": 84,
      "start": 86.3761,
      "duration": 0.1363,
      "velocity": 105,
      "chip": "ym2612"
    },
    {
      "channel": 4,
      "note": 88,
      "start": 86.6564,
      "duration": 0.116,
      "velocity": 105,
      "chip": "ym2612"
    },
    {
      "channel": 4,
      "note": 84,
      "start": 86.9359,
      "duration": 0.1166,
      "velocity": 105,
      "chip": "ym2612"
    },
    {
      "channel": 4,
      "note": 81,
      "start": 87.216,
      "duration": 0.1566,
      "velocity": 105,
      "chip": "ym2612"
    },
    {
      "channel": 4,
      "note": 84,
      "start": 87.4961,
      "duration": 0.0965,
      "velocity": 105,
      "chip": "ym2612"
    },
    {
      "channel": 4,
      "note": 88,
      "start": 87.7761,
      "duration": 0.1164,
      "velocity": 105,
      "chip": "ym2612"
    },
    {
      "channel": 4,
      "note": 84,
      "start": 88.0561,
      "duration": 0.0764,
      "velocity": 105,
      "chip": "ym2612"
    },
    {
      "channel": 2,
      "note": 84,
      "start": 88.3361,
      "duration": 0.1369,
      "velocity": 99,
      "chip": "ym2612"
    },
    {
      "channel": 5,
      "note": 87,
      "start": 88.3388,
      "duration": 0.1341,
      "velocity": 99,
      "chip": "ym2612"
    },
    {
      "channel": 4,
      "note": 91,
      "start": 88.3413,
      "duration": 0.1315,
      "velocity": 99,
      "chip": "ym2612"
    },
    {
      "channel": 0,
      "note": 60,
      "start": 88.3438,
      "duration": 0.1286,
      "velocity": 99,
      "chip": "ym2612"
    },
    {
      "channel": 1,
      "note": 67,
      "start": 88.3466,
      "duration": 0.1259,
      "velocity": 99,
      "chip": "ym2612"
    },
    {
      "channel": 3,
      "note": 81,
      "start": 88.3496,
      "duration": 0.123,
      "velocity": 105,
      "chip": "ym2612"
    },
    {
      "channel": 3,
      "note": 84,
      "start": 88.616,
      "duration": 0.0765,
      "velocity": 105,
      "chip": "ym2612"
    },
    {
      "channel": 3,
      "note": 88,
      "start": 88.8759,
      "duration": 0.0965,
      "velocity": 105,
      "chip": "ym2612"
    },
    {
      "channel": 3,
      "note": 84,
      "start": 89.1559,
      "duration": 0.0966,
      "velocity": 105,
      "chip": "ym2612"
    },
    {
      "channel": 3,
      "note": 81,
      "start": 89.4363,
      "duration": 0.0961,
      "velocity": 105,
      "chip": "ym2612"
    },
    {
      "channel": 3,
      "note": 84,
      "start": 89.7161,
      "duration": 0.0764,
      "velocity": 105,
      "chip": "ym2612"
    },
    {
      "channel": 3,
      "note": 88,
      "start": 89.9961,
      "duration": 0.0963,
      "velocity": 105,
      "chip": "ym2612"
    },
    {
      "channel": 3,
      "note": 84,
      "start": 90.2761,
      "duration": 0.0564,
      "velocity": 105,
      "chip": "ym2612"
    },
    {
      "channel": 0,
      "note": 84,
      "start": 90.5561,
      "duration": 2.1962,
      "velocity": 104,
      "chip": "ym2612"
    },
    {
      "channel": 1,
      "note": 81,
      "start": 90.5586,
      "duration": 2.1939,
      "velocity": 104,
      "chip": "ym2612"
    },
    {
      "channel": 4,
      "note": 88,
      "start": 90.5614,
      "duration": 2.1912,
      "velocity": 104,
      "chip": "ym2612"
    },
    {
      "channel": 3,
      "note": 81,
      "start": 90.5646,
      "duration": 0.0679,
      "velocity": 105,
      "chip": "ym2612"
    },
    {
      "channel": 3,
      "note": 84,
      "start": 90.8361,
      "duration": 0.0564,
      "velocity": 105,
      "chip": "ym2612"
    },
    {
      "channel": 3,
      "note": 88,
      "start": 91.1161,
      "duration": 0.0764,
      "velocity": 105,
      "chip": "ym2612"
    },
    {
      "channel": 3,
      "note": 84,
      "start": 91.3959,
      "duration": 0.0765,
      "velocity": 105,
      "chip": "ym2612"
    },
    {
      "channel": 3,
      "note": 81,
      "start": 91.656,
      "duration": 0.1164,
      "velocity": 105,
      "chip": "ym2612"
    },
    {
      "channel": 3,
      "note": 84,
      "start": 91.9364,
      "duration": 0.076,
      "velocity": 105,
      "chip": "ym2612"
    },
    {
      "channel": 3,
      "note": 88,
      "start": 92.2161,
      "duration": 0.0964,
      "velocity": 105,
      "chip": "ym2612"
    },
    {
      "channel": 3,
      "note": 84,
      "start": 92.4959,
      "duration": 0.0965,
      "velocity": 105,
      "chip": "ym2612"
    },
    {
      "channel": 5,
      "note": 84,
      "start": 92.7763,
      "duration": 0.1365,
      "velocity": 99,
      "chip": "ym2612"
    },
    {
      "channel": 2,
      "note": 87,
      "start": 92.7788,
      "duration": 0.1342,
      "velocity": 99,
      "chip": "ym2612"
    },
    {
      "channel": 3,
      "note": 91,
      "start": 92.7814,
      "duration": 0.1313,
      "velocity": 99,
      "chip": "ym2612"
    },
    {
      "channel": 0,
      "note": 60,
      "start": 92.7839,
      "duration": 0.1285,
      "velocity": 99,
      "chip": "ym2612"
    },
    {
      "channel": 1,
      "note": 67,
      "start": 92.7867,
      "duration": 0.1258,
      "velocity": 99,
      "chip": "ym2612"
    },
    {
      "channel": 4,
      "note": 81,
      "start": 92.7895,
      "duration": 0.0829,
      "velocity": 105,
      "chip": "ym2612"
    },
    {
      "channel": 4,
      "note": 84,
      "start": 93.0561,
      "duration": 0.0563,
      "velocity": 105,
      "chip": "ym2612"
    },
    {
      "channel": 4,
      "note": 88,
      "start": 93.3361,
      "duration": 0.0963,
      "velocity": 105,
      "chip": "ym2612"
    },
    {
      "channel": 4,
      "note": 84,
      "start": 93.616,
      "duration": 0.0764,
      "velocity": 105,
      "chip": "ym2612"
    },
    {
      "channel": 4,
      "note": 81,
      "start": 93.896,
      "duration": 0.0764,
      "velocity": 105,
      "chip": "ym2612"
    },
    {
      "channel": 4,
      "note": 84,
      "start": 94.1761,
      "duration": 0.0563,
      "velocity": 105,
      "chip": "ym2612"
    },
    {
      "channel": 4,
      "note": 88,
      "start": 94.4361,
      "duration": 0.0963,
      "velocity": 105,
      "chip": "ym2612"
    },
    {
      "channel": 4,
      "note": 84,
      "start": 94.7163,
      "duration": 0.0962,
      "velocity": 105,
      "chip": "ym2612"
    },
    {
      "channel": 0,
      "note": 57,
      "start": 94.9963,
      "duration": 1.0962,
      "velocity": 101,
      "chip": "ym2612"
    },
    {
      "channel": 1,
      "note": 69,
      "start": 94.9993,
      "duration": 1.0933,
      "velocity": 104,
      "chip": "ym2612"
    },
    {
      "channel": 4,
      "note": 81,
      "start": 95.0023,
      "duration": 0.0903,
      "velocity": 105,
      "chip": "ym2612"
    },
    {
      "channel": 3,
      "note": 57,
      "start": 95.0053,
      "duration": 1.0873,
      "velocity": 86,
      "chip": "ym2612"
    },
    {
      "channel": 4,
      "note": 84,
      "start": 95.2759,
      "duration": 0.0965,
      "velocity": 105,
      "chip": "ym2612"
    },
    {
      "channel": 4,
      "note": 88,
      "start": 95.5559,
      "duration": 0.0965,
      "velocity": 105,
      "chip": "ym2612"
    },
    {
      "channel": 4,
      "note": 84,
      "start": 95.8361,
      "duration": 0.0563,
      "velocity": 105,
      "chip": "ym2612"
    },
    {
      "channel": 0,
      "note": 59,
      "start": 96.1153,
      "duration": 1.0771,
      "velocity": 101,
      "chip": "ym2612"
    },
    {
      "channel": 1,
      "note": 71,
      "start": 96.1177,
      "duration": 1.0748,
      "velocity": 104,
      "chip": "ym2612"
    },
    {
      "channel": 4,
      "note": 81,
      "start": 96.1209,
      "duration": 0.0916,
      "velocity": 105,
      "chip": "ym2612"
    },
    {
      "channel": 3,
      "note": 59,
      "start": 96.1235,
      "duration": 1.0691,
      "velocity": 86,
      "chip": "ym2612"
    },
    {
      "channel": 4,
      "note": 84,
      "start": 96.3959,
      "duration": 0.0765,
      "velocity": 105,
      "chip": "ym2612"
    },
    {
      "channel": 4,
      "note": 88,
      "start": 96.6759,
      "duration": 0.0767,
      "velocity": 105,
      "chip": "ym2612"
    },
    {
      "channel": 4,
      "note": 84,
      "start": 96.9559,
      "duration": 0.0765,
      "velocity": 105,
      "chip": "ym2612"
    },
    {
      "channel": 0,
      "note": 60,
      "start": 97.2153,
      "duration": 1.0971,
      "velocity": 101,
      "chip": "ym2612"
    },
    {
      "channel": 1,
      "note": 72,
      "start": 97.2177,
      "duration": 1.0948,
      "velocity": 104,
      "chip": "ym2612"
    },
    {
      "channel": 4,
      "note": 81,
      "start": 97.2209,
      "duration": 0.1115,
      "velocity": 105,
      "chip": "ym2612"
    },
    {
      "channel": 3,
      "note": 60,
      "start": 97.2235,
      "duration": 1.0891,
      "velocity": 86,
      "chip": "ym2612"
    },
    {
      "channel": 4,
      "note": 84,
      "start": 97.496,
      "duration": 0.0966,
      "velocity": 105,
      "chip": "ym2612"
    },
    {
      "channel": 4,
      "note": 88,
      "start": 97.7759,
      "duration": 0.0965,
      "velocity": 105,
      "chip": "ym2612"
    },
    {
      "channel": 4,
      "note": 84,
      "start": 98.0563,
      "duration": 0.0962,
      "velocity": 105,
      "chip": "ym2612"
    },
    {
      "channel": 0,
      "note": 64,
      "start": 98.3356,
      "duration": 0.5368,
      "velocity": 101,
      "chip": "ym2612"
    },
    {
      "channel": 1,
      "note": 76,
      "start": 98.3383,
      "duration": 0.5342,
      "velocity": 104,
      "chip": "ym2612"
    },
    {
      "channel": 4,
      "note": 81,
      "start": 98.3413,
      "duration": 0.0912,
      "velocity": 105,
      "chip": "ym2612"
    },
    {
      "channel": 3,
      "note": 64,
      "start": 98.3442,
      "duration": 0.5284,
      "velocity": 86,
      "chip": "ym2612"
    },
    {
      "channel": 4,
      "note": 84,
      "start": 98.6159,
      "duration": 0.0965,
      "velocity": 105,
      "chip": "ym2612"
    },
    {
      "channel": 0,
      "note": 65,
      "start": 98.8956,
      "duration": 0.5369,
      "velocity": 101,
      "chip": "ym2612"
    },
    {
      "channel": 1,
      "note": 77,
      "start": 98.898,
      "duration": 0.5346,
      "velocity": 104,
      "chip": "ym2612"
    },
    {
      "channel": 4,
      "note": 88,
      "start": 98.901,
      "duration": 0.0914,
      "velocity": 105,
      "chip": "ym2612"
    },
    {
      "channel": 3,
      "note": 65,
      "start": 98.9036,
      "duration": 0.5291,
      "velocity": 86,
      "chip": "ym2612"
    },
    {
      "channel": 4,
      "note": 84,
      "start": 99.1759,
      "duration": 0.0767,
      "velocity": 105,
      "chip": "ym2612"
    },
    {
      "channel": 1,
      "note": 84,
      "start": 99.4561,
      "duration": 2.1964,
      "velocity": 104,
      "chip": "ym2612"
    },
    {
      "channel": 5,
      "note": 81,
      "start": 99.4587,
      "duration": 2.1941,
      "velocity": 104,
      "chip": "ym2612"
    },
    {
      "channel": 2,
      "note": 88,
      "start": 99.4612,
      "duration": 2.1918,
      "velocity": 104,
      "chip": "ym2612"
    },
    {
      "channel": 4,
      "note": 76,
      "start": 99.464,
      "duration": 2.1886,
      "velocity": 104,
      "chip": "ym2612"
    },
    {
      "channel": 0,
      "note": 81,
      "start": 99.4674,
      "duration": 0.045,
      "velocity": 105,
      "chip": "ym2612"
    },
    {
      "channel": 3,
      "note": 64,
      "start": 99.4709,
      "duration": 2.1817,
      "velocity": 86,
      "chip": "ym2612"
    },
    {
      "channel": 0,
      "note": 84,
      "start": 99.7357,
      "duration": 0.0567,
      "velocity": 105,
      "chip": "ym2612"
    },
    {
      "channel": 0,
      "note": 88,
      "start": 99.996,
      "duration": 0.0963,
      "velocity": 105,
      "chip": "ym2612"
    },
    {
      "channel": 0,
      "note": 84,
      "start": 100.2757,
      "duration": 0.0966,
      "velocity": 105,
      "chip": "ym2612"
    },
    {
      "channel": 0,
      "note": 81,
      "start": 100.5559,
      "duration": 0.1165,
      "velocity": 105,
      "chip": "ym2612"
    },
    {
      "channel": 0,
      "note": 84,
      "start": 100.8359,
      "duration": 0.0965,
      "velocity": 105,
      "chip": "ym2612"
    },
    {
      "channel": 0,
      "note": 88,
      "start": 101.1157,
      "duration": 0.0966,
      "velocity": 105,
      "chip": "ym2612"
    },
    {
      "channel": 0,
      "note": 84,
      "start": 101.3961,
      "duration": 0.0962,
      "velocity": 105,
      "chip": "ym2612"
    },
    {
      "channel": 0,
      "note": 84,
      "start": 101.6759,
      "duration": 0.1363,
      "velocity": 99,
      "chip": "ym2612"
    },
    {
      "channel": 1,
      "note": 87,
      "start": 101.6785,
      "duration": 0.1339,
      "velocity": 99,
      "chip": "ym2612"
    },
    {
      "channel": 3,
      "note": 91,
      "start": 101.681,
      "duration": 0.1316,
      "velocity": 99,
      "chip": "ym2612"
    },
    {
      "channel": 4,
      "note": 60,
      "start": 101.6835,
      "duration": 0.1292,
      "velocity": 99,
      "chip": "ym2612"
    },
    {
      "channel": 5,
      "note": 67,
      "start": 101.6864,
      "duration": 0.1264,
      "velocity": 99,
      "chip": "ym2612"
    },
    {
      "channel": 2,
      "note": 81,
      "start": 101.6892,
      "duration": 0.0834,
      "velocity": 105,
      "chip": "ym2612"
    },
    {
      "channel": 2,
      "note": 84,
      "start": 101.9561,
      "duration": 0.0765,
      "velocity": 105,
      "chip": "ym2612"
    },
    {
      "channel": 2,
      "note": 88,
      "start": 102.2361,
      "duration": 0.0765,
      "velocity": 105,
      "chip": "ym2612"
    },
    {
      "channel": 2,
      "note": 84,
      "start": 102.5161,
      "duration": 0.0763,
      "velocity": 105,
      "chip": "ym2612"
    },
    {
      "channel": 2,
      "note": 81,
      "start": 102.7761,
      "duration": 0.0965,
      "velocity": 105,
      "chip": "ym2612"
    },
    {
      "channel": 2,
      "note": 84,
      "start": 103.0563,
      "duration": 0.0763,
      "velocity": 105,
      "chip": "ym2612"
    },
    {
      "channel": 2,
      "note": 88,
      "start": 103.3363,
      "duration": 0.0963,
      "velocity": 105,
      "chip": "ym2612"
    },
    {
      "channel": 2,
      "note": 84,
      "start": 103.6164,
      "duration": 0.0962,
      "velocity": 105,
      "chip": "ym2612"
    }
  ]
}