{
  "track_name": "04 - Waterfalls",
  "duration_sec": 50.517,
  "sample_rate": 44100,
  "note_count": 885,
  "unique_pitches": 27,
  "pitch_range": 29,
  "avg_note_duration": 0.3265,
  "reconstruction_stats": {
    "notes_reconstructed": 885,
    "keyon_events": 885,
    "keyoff_events": 879,
    "orphan_keyons": 6,
    "unique_pitches": 27,
    "pitch_range": 29,
    "avg_duration_sec": 0.3265
  },
  "metadata": {
    "source": "D\\Devilish\\04 - Waterfalls.vgz"
  },
  "notes": [
    {
      "channel": 0,
      "note": 47,
      "start": 0.0,
      "duration": 1.5227,
      "velocity": 100,
      "chip": "ym2612"
    },
    {
      "channel": 1,
      "note": 42,
      "start": 0.0018,
      "duration": 2.8366,
      "velocity": 107,
      "chip": "ym2612"
    },
    {
      "channel": 2,
      "note": 42,
      "start": 0.0051,
      "duration": 1.5184,
      "velocity": 100,
      "chip": "ym2612"
    },
    {
      "channel": 3,
      "note": 64,
      "start": 0.0111,
      "duration": 0.1123,
      "velocity": 127,
      "chip": "ym2612"
    },
    {
      "channel": 4,
      "note": 35,
      "start": 0.014,
      "duration": 0.2428,
      "velocity": 93,
      "chip": "ym2612"
    },
    {
      "channel": 3,
      "note": 64,
      "start": 0.1236,
      "duration": 0.1323,
      "velocity": 127,
      "chip": "ym2612"
    },
    {
      "channel": 3,
      "note": 64,
      "start": 0.2561,
      "duration": 0.1322,
      "velocity": 127,
      "chip": "ym2612"
    },
    {
      "channel": 4,
      "note": 35,
      "start": 0.257,
      "duration": 0.2613,
      "velocity": 93,
      "chip": "ym2612"
    },
    {
      "channel": 5,
      "note": 42,
      "start": 0.3215,
      "duration": 2.851,
      "velocity": 107,
      "chip": "ym2612"
    },
    {
      "channel": 3,
      "note": 64,
      "start": 0.3885,
      "duration": 0.1291,
      "velocity": 127,
      "chip": "ym2612"
    },
    {
      "channel": 3,
      "note": 64,
      "start": 0.5178,
      "duration": 0.1324,
      "velocity": 127,
      "chip": "ym2612"
    },
    {
      "channel": 4,
      "note": 35,
      "start": 0.5185,
      "duration": 0.2635,
      "velocity": 93,
      "chip": "ym2612"
    },
    {
      "channel": 3,
      "note": 64,
      "start": 0.6504,
      "duration": 0.1308,
      "velocity": 127,
      "chip": "ym2612"
    },
    {
      "channel": 3,
      "note": 59,
      "start": 0.7813,
      "duration": 0.132,
      "velocity": 123,
      "chip": "ym2612"
    },
    {
      "channel": 4,
      "note": 35,
      "start": 0.7823,
      "duration": 0.2634,
      "velocity": 93,
      "chip": "ym2612"
    },
    {
      "channel": 3,
      "note": 59,
      "start": 0.9135,
      "duration": 0.1312,
      "velocity": 123,
      "chip": "ym2612"
    },
    {
      "channel": 3,
      "note": 59,
      "start": 1.045,
      "duration": 0.1292,
      "velocity": 123,
      "chip": "ym2612"
    },
    {
      "channel": 4,
      "note": 35,
      "start": 1.0459,
      "duration": 0.2632,
      "velocity": 93,
      "chip": "ym2612"
    },
    {
      "channel": 3,
      "note": 59,
      "start": 1.1748,
      "duration": 0.1336,
      "velocity": 127,
      "chip": "ym2612"
    },
    {
      "channel": 3,
      "note": 64,
      "start": 1.3086,
      "duration": 0.1301,
      "velocity": 127,
      "chip": "ym2612"
    },
    {
      "channel": 4,
      "note": 35,
      "start": 1.3093,
      "duration": 0.2625,
      "velocity": 93,
      "chip": "ym2612"
    },
    {
      "channel": 3,
      "note": 64,
      "start": 1.4388,
      "duration": 0.1321,
      "velocity": 127,
      "chip": "ym2612"
    },
    {
      "channel": 0,
      "note": 52,
      "start": 1.5652,
      "duration": 0.4813,
      "velocity": 100,
      "chip": "ym2612"
    },
    {
      "channel": 2,
      "note": 47,
      "start": 1.5667,
      "duration": 0.4805,
      "velocity": 100,
      "chip": "ym2612"
    },
    {
      "channel": 3,
      "note": 64,
      "start": 1.5711,
      "duration": 0.1293,
      "velocity": 127,
      "chip": "ym2612"
    },
    {
      "channel": 4,
      "note": 35,
      "start": 1.5721,
      "duration": 0.2617,
      "velocity": 93,
      "chip": "ym2612"
    },
    {
      "channel": 3,
      "note": 64,
      "start": 1.7005,
      "duration": 0.1324,
      "velocity": 127,
      "chip": "ym2612"
    },
    {
      "channel": 3,
      "note": 64,
      "start": 1.8331,
      "duration": 0.1293,
      "velocity": 127,
      "chip": "ym2612"
    },
    {
      "channel": 4,
      "note": 35,
      "start": 1.834,
      "duration": 0.2626,
      "velocity": 93,
      "chip": "ym2612"
    },
    {
      "channel": 3,
      "note": 64,
      "start": 1.9626,
      "duration": 0.1333,
      "velocity": 127,
      "chip": "ym2612"
    },
    {
      "channel": 0,
      "note": 47,
      "start": 2.0918,
      "duration": 0.4842,
      "velocity": 100,
      "chip": "ym2612"
    },
    {
      "channel": 2,
      "note": 42,
      "start": 2.0934,
      "duration": 0.4833,
      "velocity": 100,
      "chip": "ym2612"
    },
    {
      "channel": 3,
      "note": 64,
      "start": 2.0961,
      "duration": 0.1317,
      "velocity": 127,
      "chip": "ym2612"
    },
    {
      "channel": 4,
      "note": 35,
      "start": 2.0969,
      "duration": 0.2629,
      "velocity": 93,
      "chip": "ym2612"
    },
    {
      "channel": 3,
      "note": 64,
      "start": 2.228,
      "duration": 0.1308,
      "velocity": 127,
      "chip": "ym2612"
    },
    {
      "channel": 3,
      "note": 59,
      "start": 2.359,
      "duration": 0.1313,
      "velocity": 123,
      "chip": "ym2612"
    },
    {
      "channel": 4,
      "note": 35,
      "start": 2.36,
      "duration": 0.2639,
      "velocity": 93,
      "chip": "ym2612"
    },
    {
      "channel": 3,
      "note": 59,
      "start": 2.4906,
      "duration": 0.1322,
      "velocity": 123,
      "chip": "ym2612"
    },
    {
      "channel": 0,
      "note": 52,
      "start": 2.6185,
      "duration": 0.2195,
      "velocity": 100,
      "chip": "ym2612"
    },
    {
      "channel": 2,
      "note": 47,
      "start": 2.6201,
      "duration": 0.2186,
      "velocity": 100,
      "chip": "ym2612"
    },
    {
      "channel": 3,
      "note": 59,
      "start": 2.6231,
      "duration": 0.1309,
      "velocity": 123,
      "chip": "ym2612"
    },
    {
      "channel": 4,
      "note": 35,
      "start": 2.6246,
      "duration": 0.2654,
      "velocity": 93,
      "chip": "ym2612"
    },
    {
      "channel": 3,
      "note": 59,
      "start": 2.7542,
      "duration": 0.1351,
      "velocity": 127,
      "chip": "ym2612"
    },
    {
      "channel": 0,
      "note": 56,
      "start": 2.8832,
      "duration": 0.2195,
      "velocity": 100,
      "chip": "ym2612"
    },
    {
      "channel": 1,
      "note": 35,
      "start": 2.8839,
      "duration": 0.2192,
      "velocity": 107,
      "chip": "ym2612"
    },
    {
      "channel": 2,
      "note": 52,
      "start": 2.8851,
      "duration": 0.2184,
      "velocity": 100,
      "chip": "ym2612"
    },
    {
      "channel": 3,
      "note": 64,
      "start": 2.8895,
      "duration": 0.1292,
      "velocity": 127,
      "chip": "ym2612"
    },
    {
      "channel": 4,
      "note": 35,
      "start": 2.8902,
      "duration": 0.2621,
      "velocity": 93,
      "chip": "ym2612"
    },
    {
      "channel": 3,
      "note": 64,
      "start": 3.0189,
      "duration": 0.1324,
      "velocity": 127,
      "chip": "ym2612"
    },
    {
      "channel": 0,
      "note": 58,
      "start": 3.1451,
      "duration": 0.4814,
      "velocity": 100,
      "chip": "ym2612"
    },
    {
      "channel": 1,
      "note": 42,
      "start": 3.1459,
      "duration": 2.8495,
      "velocity": 107,
      "chip": "ym2612"
    },
    {
      "channel": 2,
      "note": 54,
      "start": 3.1471,
      "duration": 0.4802,
      "velocity": 100,
      "chip": "ym2612"
    },
    {
      "channel": 3,
      "note": 64,
      "start": 3.1516,
      "duration": 0.1289,
      "velocity": 127,
      "chip": "ym2612"
    },
    {
      "channel": 4,
      "note": 35,
      "start": 3.1525,
      "duration": 0.2613,
      "velocity": 93,
      "chip": "ym2612"
    },
    {
      "channel": 5,
      "note": 35,
      "start": 3.2148,
      "duration": 0.2197,
      "velocity": 107,
      "chip": "ym2612"
    },
    {
      "channel": 3,
      "note": 64,
      "start": 3.2806,
      "duration": 0.1323,
      "velocity": 127,
      "chip": "ym2612"
    },
    {
      "channel": 3,
      "note": 64,
      "start": 3.4131,
      "duration": 0.13,
      "velocity": 127,
      "chip": "ym2612"
    },
    {
      "channel": 4,
      "note": 35,
      "start": 3.414,
      "duration": 0.2635,
      "velocity": 93,
      "chip": "ym2612"
    },
    {
      "channel": 5,
      "note": 42,
      "start": 3.4774,
      "duration": 2.8551,
      "velocity": 107,
      "chip": "ym2612"
    },
    {
      "channel": 3,
      "note": 64,
      "start": 3.5432,
      "duration": 0.1334,
      "velocity": 127,
      "chip": "ym2612"
    },
    {
      "channel": 0,
      "note": 59,
      "start": 3.6719,
      "duration": 0.4813,
      "velocity": 100,
      "chip": "ym2612"
    },
    {
      "channel": 2,
      "note": 54,
      "start": 3.6734,
      "duration": 0.4805,
      "velocity": 100,
      "chip": "ym2612"
    },
    {
      "channel": 3,
      "note": 64,
      "start": 3.677,
      "duration": 0.1303,
      "velocity": 127,
      "chip": "ym2612"
    },
    {
      "channel": 4,
      "note": 35,
      "start": 3.6777,
      "duration": 0.2615,
      "velocity": 93,
      "chip": "ym2612"
    },
    {
      "channel": 3,
      "note": 64,
      "start": 3.808,
      "duration": 0.1302,
      "velocity": 127,
      "chip": "ym2612"
    },
    {
      "channel": 3,
      "note": 59,
      "start": 3.9385,
      "duration": 0.1319,
      "velocity": 123,
      "chip": "ym2612"
    },
    {
      "channel": 4,
      "note": 35,
      "start": 3.9394,
      "duration": 0.2644,
      "velocity": 93,
      "chip": "ym2612"
    },
    {
      "channel": 3,
      "note": 59,
      "start": 4.0705,
      "duration": 0.1324,
      "velocity": 123,
      "chip": "ym2612"
    },
    {
      "channel": 0,
      "note": 54,
      "start": 4.1985,
      "duration": 0.2195,
      "velocity": 100,
      "chip": "ym2612"
    },
    {
      "channel": 2,
      "note": 51,
      "start": 4.2,
      "duration": 0.2186,
      "velocity": 100,
      "chip": "ym2612"
    },
    {
      "channel": 3,
      "note": 59,
      "start": 4.2031,
      "duration": 0.1308,
      "velocity": 123,
      "chip": "ym2612"
    },
    {
      "channel": 4,
      "note": 35,
      "start": 4.2041,
      "duration": 0.2629,
      "velocity": 93,
      "chip": "ym2612"
    },
    {
      "channel": 3,
      "note": 59,
      "start": 4.3341,
      "duration": 0.1321,
      "velocity": 127,
      "chip": "ym2612"
    },
    {
      "channel": 0,
      "note": 51,
      "start": 4.4604,
      "duration": 0.2194,
      "velocity": 100,
      "chip": "ym2612"
    },
    {
      "channel": 2,
      "note": 47,
      "start": 4.4621,
      "duration": 0.2185,
      "velocity": 100,
      "chip": "ym2612"
    },
    {
      "channel": 3,
      "note": 64,
      "start": 4.4664,
      "duration": 0.1294,
      "velocity": 127,
      "chip": "ym2612"
    },
    {
      "channel": 4,
      "note": 35,
      "start": 4.4672,
      "duration": 0.2651,
      "velocity": 93,
      "chip": "ym2612"
    },
    {
      "channel": 3,
      "note": 64,
      "start": 4.596,
      "duration": 0.1353,
      "velocity": 127,
      "chip": "ym2612"
    },
    {
      "channel": 0,
      "note": 50,
      "start": 4.7252,
      "duration": 0.2194,
      "velocity": 100,
      "chip": "ym2612"
    },
    {
      "channel": 2,
      "note": 47,
      "start": 4.7268,
      "duration": 0.4805,
      "velocity": 100,
      "chip": "ym2612"
    },
    {
      "channel": 3,
      "note": 64,
      "start": 4.7315,
      "duration": 0.1295,
      "velocity": 127,
      "chip": "ym2612"
    },
    {
      "channel": 4,
      "note": 35,
      "start": 4.7325,
      "duration": 0.2595,
      "velocity": 93,
      "chip": "ym2612"
    },
    {
      "channel": 3,
      "note": 64,
      "start": 4.8612,
      "duration": 0.1293,
      "velocity": 127,
      "chip": "ym2612"
    },
    {
      "channel": 0,
      "note": 49,
      "start": 4.9871,
      "duration": 0.2194,
      "velocity": 100,
      "chip": "ym2612"
    },
    {
      "channel": 3,
      "note": 64,
      "start": 4.9913,
      "duration": 0.1312,
      "velocity": 127,
      "chip": "ym2612"
    },
    {
      "channel": 4,
      "note": 35,
      "start": 4.9922,
      "duration": 0.2646,
      "velocity": 93,
      "chip": "ym2612"
    },
    {
      "channel": 3,
      "note": 64,
      "start": 5.1226,
      "duration": 0.1334,
      "velocity": 127,
      "chip": "ym2612"
    },
    {
      "channel": 0,
      "note": 47,
      "start": 5.2518,
      "duration": 0.2195,
      "velocity": 100,
      "chip": "ym2612"
    },
    {
      "channel": 2,
      "note": 43,
      "start": 5.2534,
      "duration": 0.2186,
      "velocity": 100,
      "chip": "ym2612"
    },
    {
      "channel": 3,
      "note": 64,
      "start": 5.2563,
      "duration": 0.1308,
      "velocity": 127,
      "chip": "ym2612"
    },
    {
      "channel": 4,
      "note": 35,
      "start": 5.2571,
      "duration": 0.2635,
      "velocity": 93,
      "chip": "ym2612"
    },
    {
      "channel": 3,
      "note": 64,
      "start": 5.3874,
      "duration": 0.1322,
      "velocity": 127,
      "chip": "ym2612"
    },
    {
      "channel": 0,
      "note": 49,
      "start": 5.5137,
      "duration": 0.2195,
      "velocity": 100,
      "chip": "ym2612"
    },
    {
      "channel": 2,
      "note": 45,
      "start": 5.5152,
      "duration": 0.4805,
      "velocity": 100,
      "chip": "ym2612"
    },
    {
      "channel": 3,
      "note": 59,
      "start": 5.5198,
      "duration": 0.1306,
      "velocity": 127,
      "chip": "ym2612"
    },
    {
      "channel": 4,
      "note": 35,
      "start": 5.5207,
      "duration": 0.262,
      "velocity": 93,
      "chip": "ym2612"
    },
    {
      "channel": 3,
      "note": 62,
      "start": 5.6505,
      "duration": 0.1312,
      "velocity": 127,
      "chip": "ym2612"
    },
    {
      "channel": 0,
      "note": 47,
      "start": 5.7784,
      "duration": 0.2165,
      "velocity": 100,
      "chip": "ym2612"
    },
    {
      "channel": 3,
      "note": 59,
      "start": 5.782,
      "duration": 0.1293,
      "velocity": 127,
      "chip": "ym2612"
    },
    {
      "channel": 4,
      "note": 35,
      "start": 5.7829,
      "duration": 0.2634,
      "velocity": 93,
      "chip": "ym2612"
    },
    {
      "channel": 3,
      "note": 59,
      "start": 5.9116,
      "duration": 0.134,
      "velocity": 127,
      "chip": "ym2612"
    },
    {
      "channel": 0,
      "note": 45,
      "start": 6.0403,
      "duration": 0.2195,
      "velocity": 100,
      "chip": "ym2612"
    },
    {
      "channel": 1,
      "note": 35,
      "start": 6.0417,
      "duration": 0.2185,
      "velocity": 107,
      "chip": "ym2612"
    },
    {
      "channel": 2,
      "note": 40,
      "start": 6.0429,
      "duration": 0.2177,
      "velocity": 100,
      "chip": "ym2612"
    },
    {
      "channel": 3,
      "note": 59,
      "start": 6.0458,
      "duration": 0.132,
      "velocity": 127,
      "chip": "ym2612"
    },
    {
      "channel": 4,
      "note": 35,
      "start": 6.0466,
      "duration": 0.2668,
      "velocity": 93,
      "chip": "ym2612"
    },
    {
      "channel": 3,
      "note": 64,
      "start": 6.178,
      "duration": 0.1344,
      "velocity": 127,
      "chip": "ym2612"
    },
    {
      "channel": 0,
      "note": 47,
      "start": 6.3052,
      "duration": 1.5346,
      "velocity": 100,
      "chip": "ym2612"
    },
    {
      "channel": 1,
      "note": 47,
      "start": 6.306,
      "duration": 0.4808,
      "velocity": 107,
      "chip": "ym2612"
    },
    {
      "channel": 2,
      "note": 42,
      "start": 6.3075,
      "duration": 1.5331,
      "velocity": 100,
      "chip": "ym2612"
    },
    {
      "channel": 3,
      "note": 64,
      "start": 6.3126,
      "duration": 0.1277,
      "velocity": 127,
      "chip": "ym2612"
    },
    {
      "channel": 4,
      "note": 35,
      "start": 6.3135,
      "duration": 0.2604,
      "velocity": 93,
      "chip": "ym2612"
    },
    {
      "channel": 5,
      "note": 35,
      "start": 6.3755,
      "duration": 0.2197,
      "velocity": 107,
      "chip": "ym2612"
    },
    {
      "channel": 3,
      "note": 64,
      "start": 6.4406,
      "duration": 0.1323,
      "velocity": 127,
      "chip": "ym2612"
    },
    {
      "channel": 3,
      "note": 64,
      "start": 6.5731,
      "duration": 0.1292,
      "velocity": 127,
      "chip": "ym2612"
    },
    {
      "channel": 4,
      "note": 35,
      "start": 6.5747,
      "duration": 0.2609,
      "velocity": 93,
      "chip": "ym2612"
    },
    {
      "channel": 5,
      "note": 47,
      "start": 6.6368,
      "duration": 0.4813,
      "velocity": 107,
      "chip": "ym2612"
    },
    {
      "channel": 3,
      "note": 64,
      "start": 6.7025,
      "duration": 0.1324,
      "velocity": 127,
      "chip": "ym2612"
    },
    {
      "channel": 1,
      "note": 42,
      "start": 6.8322,
      "duration": 0.2165,
      "velocity": 107,
      "chip": "ym2612"
    },
    {
      "channel": 3,
      "note": 64,
      "start": 6.8351,
      "duration": 0.1291,
      "velocity": 127,
      "chip": "ym2612"
    },
    {
      "channel": 4,
      "note": 35,
      "start": 6.8359,
      "duration": 0.2634,
      "velocity": 93,
      "chip": "ym2612"
    },
    {
      "channel": 3,
      "note": 64,
      "start": 6.9644,
      "duration": 0.134,
      "velocity": 127,
      "chip": "ym2612"
    },
    {
      "channel": 1,
      "note": 47,
      "start": 7.094,
      "duration": 0.2194,
      "velocity": 107,
      "chip": "ym2612"
    },
    {
      "channel": 3,
      "note": 59,
      "start": 7.0986,
      "duration": 0.1317,
      "velocity": 123,
      "chip": "ym2612"
    },
    {
      "channel": 4,
      "note": 35,
      "start": 7.0995,
      "duration": 0.2609,
      "velocity": 93,
      "chip": "ym2612"
    },
    {
      "channel": 5,
      "note": 42,
      "start": 7.1633,
      "duration": 0.2195,
      "velocity": 107,
      "chip": "ym2612"
    },
    {
      "channel": 3,
      "note": 59,
      "start": 7.2305,
      "duration": 0.1289,
      "velocity": 123,
      "chip": "ym2612"
    },
    {
      "channel": 1,
      "note": 49,
      "start": 7.3558,
      "duration": 0.2195,
      "velocity": 107,
      "chip": "ym2612"
    },
    {
      "channel": 3,
      "note": 59,
      "start": 7.3597,
      "duration": 0.1319,
      "velocity": 123,
      "chip": "ym2612"
    },
    {
      "channel": 4,
      "note": 35,
      "start": 7.3606,
      "duration": 0.2659,
      "velocity": 93,
      "chip": "ym2612"
    },
    {
      "channel": 5,
      "note": 47,
      "start": 7.4258,
      "duration": 0.2193,
      "velocity": 107,
      "chip": "ym2612"
    },
    {
      "channel": 3,
      "note": 59,
      "start": 7.4918,
      "duration": 0.134,
      "velocity": 127,
      "chip": "ym2612"
    },
    {
      "channel": 1,
      "note": 42,
      "start": 7.6207,
      "duration": 1.5347,
      "velocity": 107,
      "chip": "ym2612"
    },
    {
      "channel": 3,
      "note": 64,
      "start": 7.6259,
      "duration": 0.1297,
      "velocity": 127,
      "chip": "ym2612"
    },
    {
      "channel": 4,
      "note": 35,
      "start": 7.6267,
      "duration": 0.2622,
      "velocity": 93,
      "chip": "ym2612"
    },
    {
      "channel": 5,
      "note": 49,
      "start": 7.6899,
      "duration": 0.2202,
      "velocity": 107,
      "chip": "ym2612"
    },
    {
      "channel": 3,
      "note": 64,
      "start": 7.7558,
      "duration": 0.1321,
      "velocity": 127,
      "chip": "ym2612"
    },
    {
      "channel": 0,
      "note": 52,
      "start": 7.8822,
      "duration": 0.4814,
      "velocity": 100,
      "chip": "ym2612"
    },
    {
      "channel": 2,
      "note": 47,
      "start": 7.8838,
      "duration": 0.4804,
      "velocity": 100,
      "chip": "ym2612"
    },
    {
      "channel": 3,
      "note": 64,
      "start": 7.8881,
      "duration": 0.1293,
      "velocity": 127,
      "chip": "ym2612"
    },
    {
      "channel": 4,
      "note": 35,
      "start": 7.8891,
      "duration": 0.2617,
      "velocity": 93,
      "chip": "ym2612"
    },
    {
      "channel": 5,
      "note": 42,
      "start": 7.9519,
      "duration": 1.5376,
      "velocity": 107,
      "chip": "ym2612"
    },
    {
      "channel": 3,
      "note": 64,
      "start": 8.0175,
      "duration": 0.1323,
      "velocity": 127,
      "chip": "ym2612"
    },
    {
      "channel": 3,
      "note": 64,
      "start": 8.15,
      "duration": 0.1293,
      "velocity": 127,
      "chip": "ym2612"
    },
    {
      "channel": 4,
      "note": 35,
      "start": 8.1509,
      "duration": 0.2626,
      "velocity": 93,
      "chip": "ym2612"
    },
    {
      "channel": 3,
      "note": 64,
      "start": 8.2796,
      "duration": 0.1332,
      "velocity": 127,
      "chip": "ym2612"
    },
    {
      "channel": 0,
      "note": 47,
      "start": 8.4088,
      "duration": 0.4844,
      "velocity": 100,
      "chip": "ym2612"
    },
    {
      "channel": 2,
      "note": 42,
      "start": 8.4103,
      "duration": 0.4835,
      "velocity": 100,
      "chip": "ym2612"
    },
    {
      "channel": 3,
      "note": 64,
      "start": 8.413,
      "duration": 0.1317,
      "velocity": 127,
      "chip": "ym2612"
    },
    {
      "channel": 4,
      "note": 35,
      "start": 8.4137,
      "duration": 0.263,
      "velocity": 93,
      "chip": "ym2612"
    },
    {
      "channel": 3,
      "note": 64,
      "start": 8.5449,
      "duration": 0.1309,
      "velocity": 127,
      "chip": "ym2612"
    },
    {
      "channel": 3,
      "note": 59,
      "start": 8.676,
      "duration": 0.132,
      "velocity": 123,
      "chip": "ym2612"
    },
    {
      "channel": 4,
      "note": 35,
      "start": 8.677,
      "duration": 0.2644,
      "velocity": 93,
      "chip": "ym2612"
    },
    {
      "channel": 3,
      "note": 59,
      "start": 8.8082,
      "duration": 0.1315,
      "velocity": 123,
      "chip": "ym2612"
    },
    {
      "channel": 0,
      "note": 52,
      "start": 8.9355,
      "duration": 0.2195,
      "velocity": 100,
      "chip": "ym2612"
    },
    {
      "channel": 2,
      "note": 47,
      "start": 8.9371,
      "duration": 0.2186,
      "velocity": 100,
      "chip": "ym2612"
    },
    {
      "channel": 3,
      "note": 59,
      "start": 8.94,
      "duration": 0.1309,
      "velocity": 123,
      "chip": "ym2612"
    },
    {
      "channel": 4,
      "note": 35,
      "start": 8.9415,
      "duration": 0.2655,
      "velocity": 93,
      "chip": "ym2612"
    },
    {
      "channel": 3,
      "note": 59,
      "start": 9.0711,
      "duration": 0.1352,
      "velocity": 127,
      "chip": "ym2612"
    },
    {
      "channel": 0,
      "note": 56,
      "start": 9.2003,
      "duration": 0.2195,
      "velocity": 100,
      "chip": "ym2612"
    },
    {
      "channel": 1,
      "note": 42,
      "start": 9.201,
      "duration": 0.2191,
      "velocity": 107,
      "chip": "ym2612"
    },
    {
      "channel": 2,
      "note": 52,
      "start": 9.2021,
      "duration": 0.2184,
      "velocity": 100,
      "chip": "ym2612"
    },
    {
      "channel": 3,
      "note": 64,
      "start": 9.2065,
      "duration": 0.1292,
      "velocity": 127,
      "chip": "ym2612"
    },
    {
      "channel": 4,
      "note": 35,
      "start": 9.2079,
      "duration": 0.2613,
      "velocity": 93,
      "chip": "ym2612"
    },
    {
      "channel": 3,
      "note": 64,
      "start": 9.3359,
      "duration": 0.1324,
      "velocity": 127,
      "chip": "ym2612"
    },
    {
      "channel": 0,
      "note": 58,
      "start": 9.4622,
      "duration": 0.4813,
      "velocity": 100,
      "chip": "ym2612"
    },
    {
      "channel": 1,
      "note": 35,
      "start": 9.4629,
      "duration": 0.7457,
      "velocity": 107,
      "chip": "ym2612"
    },
    {
      "channel": 2,
      "note": 54,
      "start": 9.4641,
      "duration": 0.4801,
      "velocity": 100,
      "chip": "ym2612"
    },
    {
      "channel": 3,
      "note": 64,
      "start": 9.4685,
      "duration": 0.1289,
      "velocity": 127,
      "chip": "ym2612"
    },
    {
      "channel": 4,
      "note": 35,
      "start": 9.4695,
      "duration": 0.2614,
      "velocity": 93,
      "chip": "ym2612"
    },
    {
      "channel": 5,
      "note": 42,
      "start": 9.5318,
      "duration": 0.2196,
      "velocity": 107,
      "chip": "ym2612"
    },
    {
      "channel": 3,
      "note": 64,
      "start": 9.5976,
      "duration": 0.1323,
      "velocity": 127,
      "chip": "ym2612"
    },
    {
      "channel": 3,
      "note": 64,
      "start": 9.7301,
      "duration": 0.13,
      "velocity": 127,
      "chip": "ym2612"
    },
    {
      "channel": 4,
      "note": 35,
      "start": 9.731,
      "duration": 0.2632,
      "velocity": 93,
      "chip": "ym2612"
    },
    {
      "channel": 5,
      "note": 35,
      "start": 9.7944,
      "duration": 0.7455,
      "velocity": 107,
      "chip": "ym2612"
    },
    {
      "channel": 3,
      "note": 64,
      "start": 9.8603,
      "duration": 0.1331,
      "velocity": 127,
      "chip": "ym2612"
    },
    {
      "channel": 0,
      "note": 59,
      "start": 9.9888,
      "duration": 0.4813,
      "velocity": 100,
      "chip": "ym2612"
    },
    {
      "channel": 2,
      "note": 54,
      "start": 9.9904,
      "duration": 0.4805,
      "velocity": 100,
      "chip": "ym2612"
    },
    {
      "channel": 3,
      "note": 64,
      "start": 9.9937,
      "duration": 0.1311,
      "velocity": 127,
      "chip": "ym2612"
    },
    {
      "channel": 4,
      "note": 35,
      "start": 9.9944,
      "duration": 0.2621,
      "velocity": 93,
      "chip": "ym2612"
    },
    {
      "channel": 3,
      "note": 64,
      "start": 10.125,
      "duration": 0.1305,
      "velocity": 127,
      "chip": "ym2612"
    },
    {
      "channel": 1,
      "note": 42,
      "start": 10.2511,
      "duration": 0.7461,
      "velocity": 107,
      "chip": "ym2612"
    },
    {
      "channel": 3,
      "note": 59,
      "start": 10.2557,
      "duration": 0.1316,
      "velocity": 123,
      "chip": "ym2612"
    },
    {
      "channel": 4,
      "note": 35,
      "start": 10.2567,
      "duration": 0.2642,
      "velocity": 93,
      "chip": "ym2612"
    },
    {
      "channel": 3,
      "note": 59,
      "start": 10.3875,
      "duration": 0.1324,
      "velocity": 123,
      "chip": "ym2612"
    },
    {
      "channel": 0,
      "note": 54,
      "start": 10.5156,
      "duration": 0.2194,
      "velocity": 100,
      "chip": "ym2612"
    },
    {
      "channel": 2,
      "note": 51,
      "start": 10.517,
      "duration": 0.2186,
      "velocity": 100,
      "chip": "ym2612"
    },
    {
      "channel": 3,
      "note": 59,
      "start": 10.5201,
      "duration": 0.1308,
      "velocity": 123,
      "chip": "ym2612"
    },
    {
      "channel": 4,
      "note": 35,
      "start": 10.521,
      "duration": 0.263,
      "velocity": 93,
      "chip": "ym2612"
    },
    {
      "channel": 5,
      "note": 42,
      "start": 10.585,
      "duration": 0.7463,
      "velocity": 107,
      "chip": "ym2612"
    },
    {
      "channel": 3,
      "note": 59,
      "start": 10.6511,
      "duration": 0.1321,
      "velocity": 127,
      "chip": "ym2612"
    },
    {
      "channel": 0,
      "note": 51,
      "start": 10.7775,
      "duration": 0.2194,
      "velocity": 100,
      "chip": "ym2612"
    },
    {
      "channel": 2,
      "note": 47,
      "start": 10.7791,
      "duration": 0.2185,
      "velocity": 100,
      "chip": "ym2612"
    },
    {
      "channel": 3,
      "note": 64,
      "start": 10.7834,
      "duration": 0.1293,
      "velocity": 127,
      "chip": "ym2612"
    },
    {
      "channel": 4,
      "note": 35,
      "start": 10.7842,
      "duration": 0.2651,
      "velocity": 93,
      "chip": "ym2612"
    },
    {
      "channel": 3,
      "note": 64,
      "start": 10.9129,
      "duration": 0.1354,
      "velocity": 127,
      "chip": "ym2612"
    },
    {
      "channel": 0,
      "note": 50,
      "start": 11.0422,
      "duration": 0.2195,
      "velocity": 100,
      "chip": "ym2612"
    },
    {
      "channel": 1,
      "note": 47,
      "start": 11.0429,
      "duration": 0.7458,
      "velocity": 107,
      "chip": "ym2612"
    },
    {
      "channel": 2,
      "note": 47,
      "start": 11.0442,
      "duration": 0.4807,
      "velocity": 100,
      "chip": "ym2612"
    },
    {
      "channel": 3,
      "note": 64,
      "start": 11.0486,
      "duration": 0.1293,
      "velocity": 127,
      "chip": "ym2612"
    },
    {
      "channel": 4,
      "note": 35,
      "start": 11.0495,
      "duration": 0.2595,
      "velocity": 93,
      "chip": "ym2612"
    },
    {
      "channel": 3,
      "note": 64,
      "start": 11.1782,
      "duration": 0.13,
      "velocity": 127,
      "chip": "ym2612"
    },
    {
      "channel": 0,
      "note": 49,
      "start": 11.3041,
      "duration": 0.2194,
      "velocity": 100,
      "chip": "ym2612"
    },
    {
      "channel": 3,
      "note": 64,
      "start": 11.3083,
      "duration": 0.1311,
      "velocity": 127,
      "chip": "ym2612"
    },
    {
      "channel": 4,
      "note": 35,
      "start": 11.3092,
      "duration": 0.2646,
      "velocity": 93,
      "chip": "ym2612"
    },
    {
      "channel": 5,
      "note": 47,
      "start": 11.3739,
      "duration": 0.7459,
      "velocity": 107,
      "chip": "ym2612"
    },
    {
      "channel": 3,
      "note": 64,
      "start": 11.4396,
      "duration": 0.1334,
      "velocity": 127,
      "chip": "ym2612"
    },
    {
      "channel": 0,
      "note": 47,
      "start": 11.5688,
      "duration": 0.2195,
      "velocity": 100,
      "chip": "ym2612"
    },
    {
      "channel": 2,
      "note": 43,
      "start": 11.5703,
      "duration": 0.2187,
      "velocity": 100,
      "chip": "ym2612"
    },
    {
      "channel": 3,
      "note": 64,
      "start": 11.5733,
      "duration": 0.1309,
      "velocity": 127,
      "chip": "ym2612"
    },
    {
      "channel": 4,
      "note": 35,
      "start": 11.5747,
      "duration": 0.2634,
      "velocity": 93,
      "chip": "ym2612"
    },
    {
      "channel": 3,
      "note": 64,
      "start": 11.7044,
      "duration": 0.1327,
      "velocity": 127,
      "chip": "ym2612"
    },
    {
      "channel": 0,
      "note": 49,
      "start": 11.8308,
      "duration": 0.2194,
      "velocity": 100,
      "chip": "ym2612"
    },
    {
      "channel": 1,
      "note": 45,
      "start": 11.8315,
      "duration": 0.7457,
      "velocity": 107,
      "chip": "ym2612"
    },
    {
      "channel": 2,
      "note": 45,
      "start": 11.8327,
      "duration": 0.48,
      "velocity": 100,
      "chip": "ym2612"
    },
    {
      "channel": 3,
      "note": 59,
      "start": 11.8373,
      "duration": 0.1302,
      "velocity": 127,
      "chip": "ym2612"
    },
    {
      "channel": 4,
      "note": 35,
      "start": 11.8382,
      "duration": 0.2613,
      "velocity": 93,
      "chip": "ym2612"
    },
    {
      "channel": 3,
      "note": 62,
      "start": 11.9676,
      "duration": 0.131,
      "velocity": 127,
      "chip": "ym2612"
    },
    {
      "channel": 0,
      "note": 47,
      "start": 12.0955,
      "duration": 0.2166,
      "velocity": 100,
      "chip": "ym2612"
    },
    {
      "channel": 3,
      "note": 59,
      "start": 12.0988,
      "duration": 0.1292,
      "velocity": 127,
      "chip": "ym2612"
    },
    {
      "channel": 4,
      "note": 35,
      "start": 12.0997,
      "duration": 0.2633,
      "velocity": 93,
      "chip": "ym2612"
    },
    {
      "channel": 5,
      "note": 45,
      "start": 12.1623,
      "duration": 0.7496,
      "velocity": 107,
      "chip": "ym2612"
    },
    {
      "channel": 3,
      "note": 59,
      "start": 12.2282,
      "duration": 0.134,
      "velocity": 127,
      "chip": "ym2612"
    },
    {
      "channel": 0,
      "note": 45,
      "start": 12.358,
      "duration": 0.2188,
      "velocity": 100,
      "chip": "ym2612"
    },
    {
      "channel": 2,
      "note": 40,
      "start": 12.3595,
      "duration": 0.2181,
      "velocity": 100,
      "chip": "ym2612"
    },
    {
      "channel": 3,
      "note": 59,
      "start": 12.3625,
      "duration": 0.1324,
      "velocity": 127,
      "chip": "ym2612"
    },
    {
      "channel": 4,
      "note": 35,
      "start": 12.3633,
      "duration": 0.2671,
      "velocity": 93,
      "chip": "ym2612"
    },
    {
      "channel": 3,
      "note": 64,
      "start": 12.4951,
      "duration": 0.1342,
      "velocity": 127,
      "chip": "ym2612"
    },
    {
      "channel": 0,
      "note": 47,
      "start": 12.6222,
      "duration": 0.7431,
      "velocity": 100,
      "chip": "ym2612"
    },
    {
      "channel": 1,
      "note": 43,
      "start": 12.6229,
      "duration": 0.7428,
      "velocity": 107,
      "chip": "ym2612"
    },
    {
      "channel": 2,
      "note": 43,
      "start": 12.6249,
      "duration": 0.7412,
      "velocity": 100,
      "chip": "ym2612"
    },
    {
      "channel": 3,
      "note": 64,
      "start": 12.6295,
      "duration": 0.1285,
      "velocity": 127,
      "chip": "ym2612"
    },
    {
      "channel": 4,
      "note": 36,
      "start": 12.6306,
      "duration": 0.261,
      "velocity": 93,
      "chip": "ym2612"
    },
    {
      "channel": 3,
      "note": 64,
      "start": 12.7583,
      "duration": 0.1316,
      "velocity": 127,
      "chip": "ym2612"
    },
    {
      "channel": 3,
      "note": 64,
      "start": 12.8902,
      "duration": 0.1293,
      "velocity": 127,
      "chip": "ym2612"
    },
    {
      "channel": 4,
      "note": 36,
      "start": 12.8917,
      "duration": 0.2608,
      "velocity": 93,
      "chip": "ym2612"
    },
    {
      "channel": 5,
      "note": 43,
      "start": 12.9538,
      "duration": 0.7461,
      "velocity": 107,
      "chip": "ym2612"
    },
    {
      "channel": 3,
      "note": 64,
      "start": 13.0196,
      "duration": 0.1321,
      "velocity": 127,
      "chip": "ym2612"
    },
    {
      "channel": 3,
      "note": 64,
      "start": 13.152,
      "duration": 0.1293,
      "velocity": 127,
      "chip": "ym2612"
    },
    {
      "channel": 4,
      "note": 36,
      "start": 13.1527,
      "duration": 0.265,
      "velocity": 93,
      "chip": "ym2612"
    },
    {
      "channel": 3,
      "note": 64,
      "start": 13.2815,
      "duration": 0.1352,
      "velocity": 127,
      "chip": "ym2612"
    },
    {
      "channel": 0,
      "note": 45,
      "start": 13.4107,
      "duration": 0.7461,
      "velocity": 100,
      "chip": "ym2612"
    },
    {
      "channel": 1,
      "note": 45,
      "start": 13.4114,
      "duration": 1.5314,
      "velocity": 107,
      "chip": "ym2612"
    },
    {
      "channel": 2,
      "note": 42,
      "start": 13.4126,
      "duration": 0.7455,
      "velocity": 100,
      "chip": "ym2612"
    },
    {
      "channel": 3,
      "note": 59,
      "start": 13.4169,
      "duration": 0.1305,
      "velocity": 123,
      "chip": "ym2612"
    },
    {
      "channel": 4,
      "note": 36,
      "start": 13.4178,
      "duration": 0.2594,
      "velocity": 93,
      "chip": "ym2612"
    },
    {
      "channel": 3,
      "note": 59,
      "start": 13.5476,
      "duration": 0.1288,
      "velocity": 123,
      "chip": "ym2612"
    },
    {
      "channel": 3,
      "note": 59,
      "start": 13.6766,
      "duration": 0.1321,
      "velocity": 123,
      "chip": "ym2612"
    },
    {
      "channel": 4,
      "note": 36,
      "start": 13.6775,
      "duration": 0.2656,
      "velocity": 93,
      "chip": "ym2612"
    },
    {
      "channel": 5,
      "note": 45,
      "start": 13.7429,
      "duration": 1.5347,
      "velocity": 107,
      "chip": "ym2612"
    },
    {
      "channel": 3,
      "note": 59,
      "start": 13.8088,
      "duration": 0.1335,
      "velocity": 127,
      "chip": "ym2612"
    },
    {
      "channel": 3,
      "note": 64,
      "start": 13.9425,
      "duration": 0.1302,
      "velocity": 127,
      "chip": "ym2612"
    },
    {
      "channel": 4,
      "note": 36,
      "start": 13.9433,
      "duration": 0.2626,
      "velocity": 93,
      "chip": "ym2612"
    },
    {
      "channel": 3,
      "note": 64,
      "start": 14.0729,
      "duration": 0.132,
      "velocity": 127,
      "chip": "ym2612"
    },
    {
      "channel": 0,
      "note": 47,
      "start": 14.1993,
      "duration": 0.7431,
      "velocity": 100,
      "chip": "ym2612"
    },
    {
      "channel": 2,
      "note": 43,
      "start": 14.2008,
      "duration": 0.7423,
      "velocity": 100,
      "chip": "ym2612"
    },
    {
      "channel": 3,
      "note": 64,
      "start": 14.2051,
      "duration": 0.1293,
      "velocity": 127,
      "chip": "ym2612"
    },
    {
      "channel": 4,
      "note": 36,
      "start": 14.2061,
      "duration": 0.2618,
      "velocity": 93,
      "chip": "ym2612"
    },
    {
      "channel": 3,
      "note": 64,
      "start": 14.3346,
      "duration": 0.1324,
      "velocity": 127,
      "chip": "ym2612"
    },
    {
      "channel": 3,
      "note": 64,
      "start": 14.4672,
      "duration": 0.1292,
      "velocity": 127,
      "chip": "ym2612"
    },
    {
      "channel": 4,
      "note": 36,
      "start": 14.4681,
      "duration": 0.2613,
      "velocity": 93,
      "chip": "ym2612"
    },
    {
      "channel": 3,
      "note": 64,
      "start": 14.5966,
      "duration": 0.1321,
      "velocity": 127,
      "chip": "ym2612"
    },
    {
      "channel": 3,
      "note": 64,
      "start": 14.7289,
      "duration": 0.13,
      "velocity": 127,
      "chip": "ym2612"
    },
    {
      "channel": 4,
      "note": 36,
      "start": 14.7297,
      "duration": 0.2655,
      "velocity": 93,
      "chip": "ym2612"
    },
    {
      "channel": 3,
      "note": 64,
      "start": 14.8591,
      "duration": 0.1352,
      "velocity": 127,
      "chip": "ym2612"
    },
    {
      "channel": 0,
      "note": 48,
      "start": 14.9876,
      "duration": 0.7462,
      "velocity": 100,
      "chip": "ym2612"
    },
    {
      "channel": 1,
      "note": 38,
      "start": 14.9883,
      "duration": 0.2198,
      "velocity": 107,
      "chip": "ym2612"
    },
    {
      "channel": 2,
      "note": 43,
      "start": 14.9895,
      "duration": 0.745,
      "velocity": 100,
      "chip": "ym2612"
    },
    {
      "channel": 3,
      "note": 59,
      "start": 14.9945,
      "duration": 0.1304,
      "velocity": 123,
      "chip": "ym2612"
    },
    {
      "channel": 4,
      "note": 36,
      "start": 14.9955,
      "duration": 0.2612,
      "velocity": 93,
      "chip": "ym2612"
    },
    {
      "channel": 3,
      "note": 59,
      "start": 15.1252,
      "duration": 0.1306,
      "velocity": 123,
      "chip": "ym2612"
    },
    {
      "channel": 1,
      "note": 43,
      "start": 15.2528,
      "duration": 0.2195,
      "velocity": 107,
      "chip": "ym2612"
    },
    {
      "channel": 3,
      "note": 59,
      "start": 15.256,
      "duration": 0.1318,
      "velocity": 123,
      "chip": "ym2612"
    },
    {
      "channel": 4,
      "note": 36,
      "start": 15.2569,
      "duration": 0.263,
      "velocity": 93,
      "chip": "ym2612"
    },
    {
      "channel": 5,
      "note": 38,
      "start": 15.3221,
      "duration": 0.2203,
      "velocity": 107,
      "chip": "ym2612"
    },
    {
      "channel": 3,
      "note": 59,
      "start": 15.3881,
      "duration": 0.1311,
      "velocity": 127,
      "chip": "ym2612"
    },
    {
      "channel": 1,
      "note": 45,
      "start": 15.5148,
      "duration": 0.2195,
      "velocity": 107,
      "chip": "ym2612"
    },
    {
      "channel": 3,
      "note": 64,
      "start": 15.5194,
      "duration": 0.1303,
      "velocity": 127,
      "chip": "ym2612"
    },
    {
      "channel": 4,
      "note": 36,
      "start": 15.5201,
      "duration": 0.2663,
      "velocity": 93,
      "chip": "ym2612"
    },
    {
      "channel": 5,
      "note": 43,
      "start": 15.5841,
      "duration": 0.2195,
      "velocity": 107,
      "chip": "ym2612"
    },
    {
      "channel": 3,
      "note": 64,
      "start": 15.6499,
      "duration": 0.1356,
      "velocity": 127,
      "chip": "ym2612"
    },
    {
      "channel": 0,
      "note": 50,
      "start": 15.7792,
      "duration": 0.2195,
      "velocity": 100,
      "chip": "ym2612"
    },
    {
      "channel": 1,
      "note": 50,
      "start": 15.7799,
      "duration": 1.0076,
      "velocity": 107,
      "chip": "ym2612"
    },
    {
      "channel": 2,
      "note": 47,
      "start": 15.7812,
      "duration": 0.4801,
      "velocity": 100,
      "chip": "ym2612"
    },
    {
      "channel": 3,
      "note": 64,
      "start": 15.7857,
      "duration": 0.1286,
      "velocity": 127,
      "chip": "ym2612"
    },
    {
      "channel": 4,
      "note": 36,
      "start": 15.7867,
      "duration": 0.2593,
      "velocity": 93,
      "chip": "ym2612"
    },
    {
      "channel": 5,
      "note": 45,
      "start": 15.8488,
      "duration": 0.2198,
      "velocity": 107,
      "chip": "ym2612"
    },
    {
      "channel": 3,
      "note": 64,
      "start": 15.9145,
      "duration": 0.1305,
      "velocity": 127,
      "chip": "ym2612"
    },
    {
      "channel": 0,
      "note": 48,
      "start": 16.0418,
      "duration": 0.2188,
      "velocity": 100,
      "chip": "ym2612"
    },
    {
      "channel": 3,
      "note": 64,
      "start": 16.0453,
      "duration": 0.1318,
      "velocity": 127,
      "chip": "ym2612"
    },
    {
      "channel": 4,
      "note": 36,
      "start": 16.0462,
      "duration": 0.2651,
      "velocity": 93,
      "chip": "ym2612"
    },
    {
      "channel": 5,
      "note": 50,
      "start": 16.1115,
      "duration": 1.0074,
      "velocity": 107,
      "chip": "ym2612"
    },
    {
      "channel": 3,
      "note": 64,
      "start": 16.1773,
      "duration": 0.1332,
      "velocity": 127,
      "chip": "ym2612"
    },
    {
      "channel": 0,
      "note": 47,
      "start": 16.3058,
      "duration": 0.2195,
      "velocity": 100,
      "chip": "ym2612"
    },
    {
      "channel": 2,
      "note": 43,
      "start": 16.308,
      "duration": 0.2179,
      "velocity": 100,
      "chip": "ym2612"
    },
    {
      "channel": 3,
      "note": 64,
      "start": 16.3107,
      "duration": 0.1312,
      "velocity": 127,
      "chip": "ym2612"
    },
    {
      "channel": 4,
      "note": 36,
      "start": 16.3114,
      "duration": 0.2637,
      "velocity": 93,
      "chip": "ym2612"
    },
    {
      "channel": 3,
      "note": 64,
      "start": 16.4422,
      "duration": 0.1313,
      "velocity": 127,
      "chip": "ym2612"
    },
    {
      "channel": 0,
      "note": 43,
      "start": 16.5678,
      "duration": 0.4812,
      "velocity": 100,
      "chip": "ym2612"
    },
    {
      "channel": 2,
      "note": 40,
      "start": 16.5694,
      "duration": 0.4804,
      "velocity": 100,
      "chip": "ym2612"
    },
    {
      "channel": 3,
      "note": 59,
      "start": 16.5737,
      "duration": 0.1307,
      "velocity": 123,
      "chip": "ym2612"
    },
    {
      "channel": 4,
      "note": 36,
      "start": 16.5753,
      "duration": 0.2616,
      "velocity": 93,
      "chip": "ym2612"
    },
    {
      "channel": 3,
      "note": 59,
      "start": 16.7046,
      "duration": 0.1315,
      "velocity": 123,
      "chip": "ym2612"
    },
    {
      "channel": 1,
      "note": 48,
      "start": 16.8329,
      "duration": 0.2166,
      "velocity": 107,
      "chip": "ym2612"
    },
    {
      "channel": 3,
      "note": 59,
      "start": 16.8362,
      "duration": 0.1287,
      "velocity": 123,
      "chip": "ym2612"
    },
    {
      "channel": 4,
      "note": 36,
      "start": 16.8371,
      "duration": 0.264,
      "velocity": 93,
      "chip": "ym2612"
    },
    {
      "channel": 3,
      "note": 59,
      "start": 16.9652,
      "duration": 0.1352,
      "velocity": 127,
      "chip": "ym2612"
    },
    {
      "channel": 0,
      "note": 47,
      "start": 17.0944,
      "duration": 0.2195,
      "velocity": 100,
      "chip": "ym2612"
    },
    {
      "channel": 1,
      "note": 47,
      "start": 17.0951,
      "duration": 0.2191,
      "velocity": 107,
      "chip": "ym2612"
    },
    {
      "channel": 2,
      "note": 43,
      "start": 17.0962,
      "duration": 0.2183,
      "velocity": 100,
      "chip": "ym2612"
    },
    {
      "channel": 3,
      "note": 64,
      "start": 17.1005,
      "duration": 0.1291,
      "velocity": 127,
      "chip": "ym2612"
    },
    {
      "channel": 4,
      "note": 36,
      "start": 17.1013,
      "duration": 0.2627,
      "velocity": 93,
      "chip": "ym2612"
    },
    {
      "channel": 5,
      "note": 48,
      "start": 17.1639,
      "duration": 0.2197,
      "velocity": 107,
      "chip": "ym2612"
    },
    {
      "channel": 3,
      "note": 64,
      "start": 17.2299,
      "duration": 0.1331,
      "velocity": 127,
      "chip": "ym2612"
    },
    {
      "channel": 0,
      "note": 45,
      "start": 17.3563,
      "duration": 1.5351,
      "velocity": 100,
      "chip": "ym2612"
    },
    {
      "channel": 1,
      "note": 45,
      "start": 17.3571,
      "duration": 0.7456,
      "velocity": 107,
      "chip": "ym2612"
    },
    {
      "channel": 2,
      "note": 42,
      "start": 17.3589,
      "duration": 1.5333,
      "velocity": 100,
      "chip": "ym2612"
    },
    {
      "channel": 3,
      "note": 64,
      "start": 17.3632,
      "duration": 0.1314,
      "velocity": 127,
      "chip": "ym2612"
    },
    {
      "channel": 4,
      "note": 36,
      "start": 17.3642,
      "duration": 0.2615,
      "velocity": 93,
      "chip": "ym2612"
    },
    {
      "channel": 5,
      "note": 47,
      "start": 17.4288,
      "duration": 0.2167,
      "velocity": 107,
      "chip": "ym2612"
    },
    {
      "channel": 3,
      "note": 64,
      "start": 17.4948,
      "duration": 0.13,
      "velocity": 127,
      "chip": "ym2612"
    },
    {
      "channel": 3,
      "note": 64,
      "start": 17.6249,
      "duration": 0.1314,
      "velocity": 127,
      "chip": "ym2612"
    },
    {
      "channel": 4,
      "note": 36,
      "start": 17.6259,
      "duration": 0.2605,
      "velocity": 93,
      "chip": "ym2612"
    },
    {
      "channel": 5,
      "note": 45,
      "start": 17.6913,
      "duration": 0.7425,
      "velocity": 107,
      "chip": "ym2612"
    },
    {
      "channel": 3,
      "note": 64,
      "start": 17.7566,
      "duration": 0.1291,
      "velocity": 127,
      "chip": "ym2612"
    },
    {
      "channel": 3,
      "note": 64,
      "start": 17.8859,
      "duration": 0.1323,
      "velocity": 127,
      "chip": "ym2612"
    },
    {
      "channel": 4,
      "note": 36,
      "start": 17.8866,
      "duration": 0.2639,
      "velocity": 93,
      "chip": "ym2612"
    },
    {
      "channel": 3,
      "note": 64,
      "start": 18.0184,
      "duration": 0.1312,
      "velocity": 127,
      "chip": "ym2612"
    },
    {
      "channel": 1,
      "note": 43,
      "start": 18.1451,
      "duration": 0.4812,
      "velocity": 107,
      "chip": "ym2612"
    },
    {
      "channel": 3,
      "note": 59,
      "start": 18.1497,
      "duration": 0.1316,
      "velocity": 123,
      "chip": "ym2612"
    },
    {
      "channel": 4,
      "note": 36,
      "start": 18.1507,
      "duration": 0.2627,
      "velocity": 93,
      "chip": "ym2612"
    },
    {
      "channel": 3,
      "note": 59,
      "start": 18.2815,
      "duration": 0.131,
      "velocity": 123,
      "chip": "ym2612"
    },
    {
      "channel": 3,
      "note": 59,
      "start": 18.4127,
      "duration": 0.1299,
      "velocity": 123,
      "chip": "ym2612"
    },
    {
      "channel": 4,
      "note": 36,
      "start": 18.4137,
      "duration": 0.2639,
      "velocity": 93,
      "chip": "ym2612"
    },
    {
      "channel": 5,
      "note": 43,
      "start": 18.4768,
      "duration": 0.4844,
      "velocity": 107,
      "chip": "ym2612"
    },
    {
      "channel": 3,
      "note": 59,
      "start": 18.5428,
      "duration": 0.134,
      "velocity": 127,
      "chip": "ym2612"
    },
    {
      "channel": 1,
      "note": 47,
      "start": 18.6717,
      "duration": 0.22,
      "velocity": 107,
      "chip": "ym2612"
    },
    {
      "channel": 3,
      "note": 64,
      "start": 18.677,
      "duration": 0.1297,
      "velocity": 127,
      "chip": "ym2612"
    },
    {
      "channel": 4,
      "note": 36,
      "start": 18.6777,
      "duration": 0.2629,
      "velocity": 93,
      "chip": "ym2612"
    },
    {
      "channel": 3,
      "note": 64,
      "start": 18.8068,
      "duration": 0.1326,
      "velocity": 127,
      "chip": "ym2612"
    },
    {
      "channel": 0,
      "note": 45,
      "start": 18.9332,
      "duration": 1.5347,
      "velocity": 100,
      "chip": "ym2612"
    },
    {
      "channel": 1,
      "note": 45,
      "start": 18.934,
      "duration": 2.3227,
      "velocity": 107,
      "chip": "ym2612"
    },
    {
      "channel": 2,
      "note": 43,
      "start": 18.9352,
      "duration": 1.5334,
      "velocity": 100,
      "chip": "ym2612"
    },
    {
      "channel": 3,
      "note": 64,
      "start": 18.9397,
      "duration": 0.1316,
      "velocity": 127,
      "chip": "ym2612"
    },
    {
      "channel": 4,
      "note": 38,
      "start": 18.9414,
      "duration": 0.2605,
      "velocity": 93,
      "chip": "ym2612"
    },
    {
      "channel": 5,
      "note": 47,
      "start": 19.0058,
      "duration": 0.2167,
      "velocity": 107,
      "chip": "ym2612"
    },
    {
      "channel": 3,
      "note": 64,
      "start": 19.0715,
      "duration": 0.1295,
      "velocity": 127,
      "chip": "ym2612"
    },
    {
      "channel": 3,
      "note": 64,
      "start": 19.2012,
      "duration": 0.1321,
      "velocity": 127,
      "chip": "ym2612"
    },
    {
      "channel": 4,
      "note": 38,
      "start": 19.2021,
      "duration": 0.2612,
      "velocity": 93,
      "chip": "ym2612"
    },
    {
      "channel": 5,
      "note": 45,
      "start": 19.2677,
      "duration": 2.3238,
      "velocity": 107,
      "chip": "ym2612"
    },
    {
      "channel": 3,
      "note": 64,
      "start": 19.3334,
      "duration": 0.1291,
      "velocity": 127,
      "chip": "ym2612"
    },
    {
      "channel": 3,
      "note": 64,
      "start": 19.4628,
      "duration": 0.1323,
      "velocity": 127,
      "chip": "ym2612"
    },
    {
      "channel": 4,
      "note": 38,
      "start": 19.4635,
      "duration": 0.2642,
      "velocity": 93,
      "chip": "ym2612"
    },
    {
      "channel": 3,
      "note": 64,
      "start": 19.5953,
      "duration": 0.1315,
      "velocity": 127,
      "chip": "ym2612"
    },
    {
      "channel": 3,
      "note": 59,
      "start": 19.7271,
      "duration": 0.1319,
      "velocity": 123,
      "chip": "ym2612"
    },
    {
      "channel": 4,
      "note": 38,
      "start": 19.728,
      "duration": 0.2624,
      "velocity": 93,
      "chip": "ym2612"
    },
    {
      "channel": 3,
      "note": 59,
      "start": 19.8592,
      "duration": 0.1302,
      "velocity": 123,
      "chip": "ym2612"
    },
    {
      "channel": 3,
      "note": 59,
      "start": 19.9897,
      "duration": 0.1322,
      "velocity": 123,
      "chip": "ym2612"
    },
    {
      "channel": 4,
      "note": 38,
      "start": 19.9909,
      "duration": 0.2626,
      "velocity": 93,
      "chip": "ym2612"
    },
    {
      "channel": 3,
      "note": 59,
      "start": 20.1221,
      "duration": 0.1307,
      "velocity": 127,
      "chip": "ym2612"
    },
    {
      "channel": 3,
      "note": 64,
      "start": 20.253,
      "duration": 0.1307,
      "velocity": 127,
      "chip": "ym2612"
    },
    {
      "channel": 4,
      "note": 38,
      "start": 20.2537,
      "duration": 0.266,
      "velocity": 93,
      "chip": "ym2612"
    },
    {
      "channel": 3,
      "note": 64,
      "start": 20.3839,
      "duration": 0.1349,
      "velocity": 127,
      "chip": "ym2612"
    },
    {
      "channel": 0,
      "note": 50,
      "start": 20.5132,
      "duration": 0.4813,
      "velocity": 100,
      "chip": "ym2612"
    },
    {
      "channel": 2,
      "note": 45,
      "start": 20.5147,
      "duration": 0.4804,
      "velocity": 100,
      "chip": "ym2612"
    },
    {
      "channel": 3,
      "note": 64,
      "start": 20.519,
      "duration": 0.1293,
      "velocity": 127,
      "chip": "ym2612"
    },
    {
      "channel": 4,
      "note": 38,
      "start": 20.52,
      "duration": 0.259,
      "velocity": 93,
      "chip": "ym2612"
    },
    {
      "channel": 3,
      "note": 64,
      "start": 20.6485,
      "duration": 0.1297,
      "velocity": 127,
      "chip": "ym2612"
    },
    {
      "channel": 3,
      "note": 64,
      "start": 20.7783,
      "duration": 0.1326,
      "velocity": 127,
      "chip": "ym2612"
    },
    {
      "channel": 4,
      "note": 38,
      "start": 20.7793,
      "duration": 0.263,
      "velocity": 93,
      "chip": "ym2612"
    },
    {
      "channel": 3,
      "note": 64,
      "start": 20.9112,
      "duration": 0.1304,
      "velocity": 127,
      "chip": "ym2612"
    },
    {
      "channel": 0,
      "note": 45,
      "start": 21.037,
      "duration": 0.4841,
      "velocity": 100,
      "chip": "ym2612"
    },
    {
      "channel": 2,
      "note": 43,
      "start": 21.0385,
      "duration": 0.4834,
      "velocity": 100,
      "chip": "ym2612"
    },
    {
      "channel": 3,
      "note": 64,
      "start": 21.0418,
      "duration": 0.1304,
      "velocity": 127,
      "chip": "ym2612"
    },
    {
      "channel": 4,
      "note": 38,
      "start": 21.0425,
      "duration": 0.265,
      "velocity": 93,
      "chip": "ym2612"
    },
    {
      "channel": 3,
      "note": 64,
      "start": 21.1724,
      "duration": 0.134,
      "velocity": 127,
      "chip": "ym2612"
    },
    {
      "channel": 1,
      "note": 38,
      "start": 21.302,
      "duration": 0.2195,
      "velocity": 107,
      "chip": "ym2612"
    },
    {
      "channel": 3,
      "note": 59,
      "start": 21.3065,
      "duration": 0.1317,
      "velocity": 123,
      "chip": "ym2612"
    },
    {
      "channel": 4,
      "note": 38,
      "start": 21.3081,
      "duration": 0.2609,
      "velocity": 93,
      "chip": "ym2612"
    },
    {
      "channel": 3,
      "note": 59,
      "start": 21.4384,
      "duration": 0.1297,
      "velocity": 123,
      "chip": "ym2612"
    },
    {
      "channel": 0,
      "note": 50,
      "start": 21.5637,
      "duration": 0.2194,
      "velocity": 100,
      "chip": "ym2612"
    },
    {
      "channel": 1,
      "note": 43,
      "start": 21.5644,
      "duration": 0.2191,
      "velocity": 107,
      "chip": "ym2612"
    },
    {
      "channel": 2,
      "note": 45,
      "start": 21.5655,
      "duration": 0.2183,
      "velocity": 100,
      "chip": "ym2612"
    },
    {
      "channel": 3,
      "note": 59,
      "start": 21.5683,
      "duration": 0.1307,
      "velocity": 123,
      "chip": "ym2612"
    },
    {
      "channel": 4,
      "note": 38,
      "start": 21.5693,
      "duration": 0.2658,
      "velocity": 93,
      "chip": "ym2612"
    },
    {
      "channel": 5,
      "note": 38,
      "start": 21.6332,
      "duration": 0.2195,
      "velocity": 107,
      "chip": "ym2612"
    },
    {
      "channel": 3,
      "note": 59,
      "start": 21.6992,
      "duration": 0.1351,
      "velocity": 127,
      "chip": "ym2612"
    },
    {
      "channel": 0,
      "note": 55,
      "start": 21.8283,
      "duration": 0.2195,
      "velocity": 100,
      "chip": "ym2612"
    },
    {
      "channel": 1,
      "note": 45,
      "start": 21.829,
      "duration": 0.2192,
      "velocity": 107,
      "chip": "ym2612"
    },
    {
      "channel": 2,
      "note": 50,
      "start": 21.8302,
      "duration": 0.2183,
      "velocity": 100,
      "chip": "ym2612"
    },
    {
      "channel": 3,
      "note": 64,
      "start": 21.8345,
      "duration": 0.1291,
      "velocity": 127,
      "chip": "ym2612"
    },
    {
      "channel": 4,
      "note": 38,
      "start": 21.8353,
      "duration": 0.2629,
      "velocity": 93,
      "chip": "ym2612"
    },
    {
      "channel": 5,
      "note": 43,
      "start": 21.8979,
      "duration": 0.2196,
      "velocity": 107,
      "chip": "ym2612"
    },
    {
      "channel": 3,
      "note": 64,
      "start": 21.9638,
      "duration": 0.1333,
      "velocity": 127,
      "chip": "ym2612"
    },
    {
      "channel": 0,
      "note": 54,
      "start": 22.0902,
      "duration": 1.5376,
      "velocity": 100,
      "chip": "ym2612"
    },
    {
      "channel": 1,
      "note": 50,
      "start": 22.0917,
      "duration": 0.2214,
      "velocity": 107,
      "chip": "ym2612"
    },
    {
      "channel": 2,
      "note": 50,
      "start": 22.093,
      "duration": 1.5356,
      "velocity": 100,
      "chip": "ym2612"
    },
    {
      "channel": 3,
      "note": 64,
      "start": 22.0974,
      "duration": 0.131,
      "velocity": 127,
      "chip": "ym2612"
    },
    {
      "channel": 4,
      "note": 38,
      "start": 22.0983,
      "duration": 0.2618,
      "velocity": 93,
      "chip": "ym2612"
    },
    {
      "channel": 5,
      "note": 45,
      "start": 22.1628,
      "duration": 0.2197,
      "velocity": 107,
      "chip": "ym2612"
    },
    {
      "channel": 3,
      "note": 64,
      "start": 22.2285,
      "duration": 0.1307,
      "velocity": 127,
      "chip": "ym2612"
    },
    {
      "channel": 1,
      "note": 45,
      "start": 22.3556,
      "duration": 0.2197,
      "velocity": 107,
      "chip": "ym2612"
    },
    {
      "channel": 3,
      "note": 64,
      "start": 22.3594,
      "duration": 0.1311,
      "velocity": 127,
      "chip": "ym2612"
    },
    {
      "channel": 4,
      "note": 38,
      "start": 22.3603,
      "duration": 0.2643,
      "velocity": 93,
      "chip": "ym2612"
    },
    {
      "channel": 5,
      "note": 50,
      "start": 22.4255,
      "duration": 0.2195,
      "velocity": 107,
      "chip": "ym2612"
    },
    {
      "channel": 3,
      "note": 64,
      "start": 22.4913,
      "duration": 0.1319,
      "velocity": 127,
      "chip": "ym2612"
    },
    {
      "channel": 1,
      "note": 50,
      "start": 22.6203,
      "duration": 2.5884,
      "velocity": 107,
      "chip": "ym2612"
    },
    {
      "channel": 3,
      "note": 64,
      "start": 22.6234,
      "duration": 0.1317,
      "velocity": 127,
      "chip": "ym2612"
    },
    {
      "channel": 4,
      "note": 38,
      "start": 22.6248,
      "duration": 0.2623,
      "velocity": 93,
      "chip": "ym2612"
    },
    {
      "channel": 5,
      "note": 45,
      "start": 22.6895,
      "duration": 0.2204,
      "velocity": 107,
      "chip": "ym2612"
    },
    {
      "channel": 3,
      "note": 64,
      "start": 22.7554,
      "duration": 0.1308,
      "velocity": 127,
      "chip": "ym2612"
    },
    {
      "channel": 3,
      "note": 59,
      "start": 22.8864,
      "duration": 0.132,
      "velocity": 123,
      "chip": "ym2612"
    },
    {
      "channel": 4,
      "note": 38,
      "start": 22.8874,
      "duration": 0.2632,
      "velocity": 93,
      "chip": "ym2612"
    },
    {
      "channel": 5,
      "note": 50,
      "start": 22.9515,
      "duration": 2.5884,
      "velocity": 107,
      "chip": "ym2612"
    },
    {
      "channel": 3,
      "note": 59,
      "start": 23.0187,
      "duration": 0.131,
      "velocity": 123,
      "chip": "ym2612"
    },
    {
      "channel": 3,
      "note": 59,
      "start": 23.1499,
      "duration": 0.1291,
      "velocity": 123,
      "chip": "ym2612"
    },
    {
      "channel": 4,
      "note": 38,
      "start": 23.1508,
      "duration": 0.2628,
      "velocity": 93,
      "chip": "ym2612"
    },
    {
      "channel": 3,
      "note": 59,
      "start": 23.2792,
      "duration": 0.1337,
      "velocity": 127,
      "chip": "ym2612"
    },
    {
      "channel": 3,
      "note": 64,
      "start": 23.4131,
      "duration": 0.1312,
      "velocity": 127,
      "chip": "ym2612"
    },
    {
      "channel": 4,
      "note": 38,
      "start": 23.4139,
      "duration": 0.2643,
      "velocity": 93,
      "chip": "ym2612"
    },
    {
      "channel": 3,
      "note": 64,
      "start": 23.5446,
      "duration": 0.1326,
      "velocity": 127,
      "chip": "ym2612"
    },
    {
      "channel": 0,
      "note": 52,
      "start": 23.6703,
      "duration": 0.749,
      "velocity": 100,
      "chip": "ym2612"
    },
    {
      "channel": 2,
      "note": 48,
      "start": 23.6719,
      "duration": 0.7481,
      "velocity": 100,
      "chip": "ym2612"
    },
    {
      "channel": 3,
      "note": 64,
      "start": 23.6773,
      "duration": 0.1332,
      "velocity": 123,
      "chip": "ym2612"
    },
    {
      "channel": 4,
      "note": 38,
      "start": 23.6783,
      "duration": 0.2655,
      "velocity": 93,
      "chip": "ym2612"
    },
    {
      "channel": 3,
      "note": 57,
      "start": 23.8107,
      "duration": 0.1322,
      "velocity": 127,
      "chip": "ym2612"
    },
    {
      "channel": 3,
      "note": 59,
      "start": 23.9431,
      "duration": 0.2598,
      "velocity": 127,
      "chip": "ym2612"
    },
    {
      "channel": 4,
      "note": 38,
      "start": 23.9441,
      "duration": 0.2595,
      "velocity": 93,
      "chip": "ym2612"
    },
    {
      "channel": 3,
      "note": 59,
      "start": 24.2031,
      "duration": 0.2628,
      "velocity": 127,
      "chip": "ym2612"
    },
    {
      "channel": 4,
      "note": 38,
      "start": 24.2039,
      "duration": 0.2628,
      "velocity": 93,
      "chip": "ym2612"
    },
    {
      "channel": 0,
      "note": 54,
      "start": 24.4619,
      "duration": 0.7464,
      "velocity": 100,
      "chip": "ym2612"
    },
    {
      "channel": 2,
      "note": 50,
      "start": 24.4635,
      "duration": 0.7455,
      "velocity": 100,
      "chip": "ym2612"
    },
    {
      "channel": 3,
      "note": 59,
      "start": 24.4661,
      "duration": 0.1308,
      "velocity": 127,
      "chip": "ym2612"
    },
    {
      "channel": 4,
      "note": 38,
      "start": 24.4668,
      "duration": 0.2647,
      "velocity": 93,
      "chip": "ym2612"
    },
    {
      "channel": 3,
      "note": 59,
      "start": 24.5971,
      "duration": 0.1338,
      "velocity": 127,
      "chip": "ym2612"
    },
    {
      "channel": 3,
      "note": 62,
      "start": 24.7311,
      "duration": 0.1306,
      "velocity": 127,
      "chip": "ym2612"
    },
    {
      "channel": 4,
      "note": 36,
      "start": 24.7319,
      "duration": 0.2608,
      "velocity": 93,
      "chip": "ym2612"
    },
    {
      "channel": 3,
      "note": 59,
      "start": 24.8619,
      "duration": 0.1301,
      "velocity": 127,
      "chip": "ym2612"
    },
    {
      "channel": 3,
      "note": 59,
      "start": 24.9922,
      "duration": 0.1317,
      "velocity": 127,
      "chip": "ym2612"
    },
    {
      "channel": 4,
      "note": 38,
      "start": 24.9929,
      "duration": 0.2663,
      "velocity": 93,
      "chip": "ym2612"
    },
    {
      "channel": 3,
      "note": 59,
      "start": 25.1246,
      "duration": 0.1335,
      "velocity": 127,
      "chip": "ym2612"
    },
    {
      "channel": 0,
      "note": 51,
      "start": 25.2505,
      "duration": 1.5374,
      "velocity": 100,
      "chip": "ym2612"
    },
    {
      "channel": 1,
      "note": 46,
      "start": 25.2514,
      "duration": 2.852,
      "velocity": 107,
      "chip": "ym2612"
    },
    {
      "channel": 2,
      "note": 46,
      "start": 25.2528,
      "duration": 1.5358,
      "velocity": 100,
      "chip": "ym2612"
    },
    {
      "channel": 3,
      "note": 64,
      "start": 25.2583,
      "duration": 0.1301,
      "velocity": 127,
      "chip": "ym2612"
    },
    {
      "channel": 4,
      "note": 39,
      "start": 25.2595,
      "duration": 0.2596,
      "velocity": 93,
      "chip": "ym2612"
    },
    {
      "channel": 3,
      "note": 64,
      "start": 25.3887,
      "duration": 0.1295,
      "velocity": 127,
      "chip": "ym2612"
    },
    {
      "channel": 3,
      "note": 64,
      "start": 25.5184,
      "duration": 0.1321,
      "velocity": 127,
      "chip": "ym2612"
    },
    {
      "channel": 4,
      "note": 39,
      "start": 25.5193,
      "duration": 0.2612,
      "velocity": 93,
      "chip": "ym2612"
    },
    {
      "channel": 5,
      "note": 46,
      "start": 25.5849,
      "duration": 2.8498,
      "velocity": 107,
      "chip": "ym2612"
    },
    {
      "channel": 3,
      "note": 64,
      "start": 25.6507,
      "duration": 0.1291,
      "velocity": 127,
      "chip": "ym2612"
    },
    {
      "channel": 3,
      "note": 64,
      "start": 25.7799,
      "duration": 0.1323,
      "velocity": 127,
      "chip": "ym2612"
    },
    {
      "channel": 4,
      "note": 39,
      "start": 25.7807,
      "duration": 0.2642,
      "velocity": 93,
      "chip": "ym2612"
    },
    {
      "channel": 3,
      "note": 64,
      "start": 25.9124,
      "duration": 0.1315,
      "velocity": 127,
      "chip": "ym2612"
    },
    {
      "channel": 3,
      "note": 59,
      "start": 26.0441,
      "duration": 0.1319,
      "velocity": 123,
      "chip": "ym2612"
    },
    {
      "channel": 4,
      "note": 39,
      "start": 26.0451,
      "duration": 0.2632,
      "velocity": 93,
      "chip": "ym2612"
    },
    {
      "channel": 3,
      "note": 59,
      "start": 26.1763,
      "duration": 0.1304,
      "velocity": 123,
      "chip": "ym2612"
    },
    {
      "channel": 3,
      "note": 59,
      "start": 26.3069,
      "duration": 0.1321,
      "velocity": 123,
      "chip": "ym2612"
    },
    {
      "channel": 4,
      "note": 39,
      "start": 26.3085,
      "duration": 0.265,
      "velocity": 93,
      "chip": "ym2612"
    },
    {
      "channel": 3,
      "note": 59,
      "start": 26.4393,
      "duration": 0.1335,
      "velocity": 127,
      "chip": "ym2612"
    },
    {
      "channel": 3,
      "note": 64,
      "start": 26.573,
      "duration": 0.1308,
      "velocity": 127,
      "chip": "ym2612"
    },
    {
      "channel": 4,
      "note": 39,
      "start": 26.5738,
      "duration": 0.2632,
      "velocity": 93,
      "chip": "ym2612"
    },
    {
      "channel": 3,
      "note": 64,
      "start": 26.704,
      "duration": 0.132,
      "velocity": 127,
      "chip": "ym2612"
    },
    {
      "channel": 0,
      "note": 56,
      "start": 26.8302,
      "duration": 0.4814,
      "velocity": 100,
      "chip": "ym2612"
    },
    {
      "channel": 2,
      "note": 51,
      "start": 26.8319,
      "duration": 0.4804,
      "velocity": 100,
      "chip": "ym2612"
    },
    {
      "channel": 3,
      "note": 64,
      "start": 26.8362,
      "duration": 0.1293,
      "velocity": 127,
      "chip": "ym2612"
    },
    {
      "channel": 4,
      "note": 39,
      "start": 26.8372,
      "duration": 0.2618,
      "velocity": 93,
      "chip": "ym2612"
    },
    {
      "channel": 3,
      "note": 64,
      "start": 26.9658,
      "duration": 0.1322,
      "velocity": 127,
      "chip": "ym2612"
    },
    {
      "channel": 3,
      "note": 64,
      "start": 27.0983,
      "duration": 0.1298,
      "velocity": 127,
      "chip": "ym2612"
    },
    {
      "channel": 4,
      "note": 39,
      "start": 27.0992,
      "duration": 0.2632,
      "velocity": 93,
      "chip": "ym2612"
    },
    {
      "channel": 3,
      "note": 64,
      "start": 27.2283,
      "duration": 0.1333,
      "velocity": 127,
      "chip": "ym2612"
    },
    {
      "channel": 0,
      "note": 51,
      "start": 27.3569,
      "duration": 0.4814,
      "velocity": 100,
      "chip": "ym2612"
    },
    {
      "channel": 2,
      "note": 46,
      "start": 27.3591,
      "duration": 0.4798,
      "velocity": 100,
      "chip": "ym2612"
    },
    {
      "channel": 3,
      "note": 64,
      "start": 27.3619,
      "duration": 0.131,
      "velocity": 127,
      "chip": "ym2612"
    },
    {
      "channel": 4,
      "note": 39,
      "start": 27.3626,
      "duration": 0.2623,
      "velocity": 93,
      "chip": "ym2612"
    },
    {
      "channel": 3,
      "note": 64,
      "start": 27.4931,
      "duration": 0.1302,
      "velocity": 127,
      "chip": "ym2612"
    },
    {
      "channel": 3,
      "note": 59,
      "start": 27.6236,
      "duration": 0.1319,
      "velocity": 123,
      "chip": "ym2612"
    },
    {
      "channel": 4,
      "note": 39,
      "start": 27.6252,
      "duration": 0.2636,
      "velocity": 93,
      "chip": "ym2612"
    },
    {
      "channel": 3,
      "note": 59,
      "start": 27.7556,
      "duration": 0.1322,
      "velocity": 123,
      "chip": "ym2612"
    },
    {
      "channel": 0,
      "note": 56,
      "start": 27.8836,
      "duration": 0.2195,
      "velocity": 100,
      "chip": "ym2612"
    },
    {
      "channel": 2,
      "note": 51,
      "start": 27.8851,
      "duration": 0.2186,
      "velocity": 100,
      "chip": "ym2612"
    },
    {
      "channel": 3,
      "note": 59,
      "start": 27.888,
      "duration": 0.131,
      "velocity": 123,
      "chip": "ym2612"
    },
    {
      "channel": 4,
      "note": 39,
      "start": 27.889,
      "duration": 0.2634,
      "velocity": 93,
      "chip": "ym2612"
    },
    {
      "channel": 3,
      "note": 59,
      "start": 28.0192,
      "duration": 0.1324,
      "velocity": 127,
      "chip": "ym2612"
    },
    {
      "channel": 0,
      "note": 60,
      "start": 28.1455,
      "duration": 0.2194,
      "velocity": 100,
      "chip": "ym2612"
    },
    {
      "channel": 1,
      "note": 39,
      "start": 28.1462,
      "duration": 0.2191,
      "velocity": 107,
      "chip": "ym2612"
    },
    {
      "channel": 2,
      "note": 56,
      "start": 28.1474,
      "duration": 0.2183,
      "velocity": 100,
      "chip": "ym2612"
    },
    {
      "channel": 3,
      "note": 64,
      "start": 28.1518,
      "duration": 0.1291,
      "velocity": 127,
      "chip": "ym2612"
    },
    {
      "channel": 4,
      "note": 39,
      "start": 28.1525,
      "duration": 0.2649,
      "velocity": 93,
      "chip": "ym2612"
    },
    {
      "channel": 3,
      "note": 64,
      "start": 28.2811,
      "duration": 0.1353,
      "velocity": 127,
      "chip": "ym2612"
    },
    {
      "channel": 0,
      "note": 62,
      "start": 28.4102,
      "duration": 0.4814,
      "velocity": 100,
      "chip": "ym2612"
    },
    {
      "channel": 1,
      "note": 46,
      "start": 28.4109,
      "duration": 2.8495,
      "velocity": 107,
      "chip": "ym2612"
    },
    {
      "channel": 2,
      "note": 58,
      "start": 28.4121,
      "duration": 0.4802,
      "velocity": 100,
      "chip": "ym2612"
    },
    {
      "channel": 3,
      "note": 64,
      "start": 28.4166,
      "duration": 0.1289,
      "velocity": 127,
      "chip": "ym2612"
    },
    {
      "channel": 4,
      "note": 39,
      "start": 28.4176,
      "duration": 0.2592,
      "velocity": 93,
      "chip": "ym2612"
    },
    {
      "channel": 5,
      "note": 39,
      "start": 28.4799,
      "duration": 0.2168,
      "velocity": 107,
      "chip": "ym2612"
    },
    {
      "channel": 3,
      "note": 64,
      "start": 28.5456,
      "duration": 0.1302,
      "velocity": 127,
      "chip": "ym2612"
    },
    {
      "channel": 3,
      "note": 64,
      "start": 28.6761,
      "duration": 0.1321,
      "velocity": 127,
      "chip": "ym2612"
    },
    {
      "channel": 4,
      "note": 39,
      "start": 28.677,
      "duration": 0.262,
      "velocity": 93,
      "chip": "ym2612"
    },
    {
      "channel": 5,
      "note": 46,
      "start": 28.7423,
      "duration": 2.8552,
      "velocity": 107,
      "chip": "ym2612"
    },
    {
      "channel": 3,
      "note": 64,
      "start": 28.8083,
      "duration": 0.13,
      "velocity": 127,
      "chip": "ym2612"
    },
    {
      "channel": 0,
      "note": 63,
      "start": 28.934,
      "duration": 0.4842,
      "velocity": 100,
      "chip": "ym2612"
    },
    {
      "channel": 2,
      "note": 58,
      "start": 28.9355,
      "duration": 0.4834,
      "velocity": 100,
      "chip": "ym2612"
    },
    {
      "channel": 3,
      "note": 64,
      "start": 28.9385,
      "duration": 0.1309,
      "velocity": 127,
      "chip": "ym2612"
    },
    {
      "channel": 4,
      "note": 39,
      "start": 28.9392,
      "duration": 0.2648,
      "velocity": 93,
      "chip": "ym2612"
    },
    {
      "channel": 3,
      "note": 64,
      "start": 29.0696,
      "duration": 0.1336,
      "velocity": 127,
      "chip": "ym2612"
    },
    {
      "channel": 3,
      "note": 59,
      "start": 29.2034,
      "duration": 0.1321,
      "velocity": 123,
      "chip": "ym2612"
    },
    {
      "channel": 4,
      "note": 39,
      "start": 29.2043,
      "duration": 0.2617,
      "velocity": 93,
      "chip": "ym2612"
    },
    {
      "channel": 3,
      "note": 59,
      "start": 29.3356,
      "duration": 0.1295,
      "velocity": 123,
      "chip": "ym2612"
    },
    {
      "channel": 0,
      "note": 58,
      "start": 29.4607,
      "duration": 0.2195,
      "velocity": 100,
      "chip": "ym2612"
    },
    {
      "channel": 2,
      "note": 55,
      "start": 29.4622,
      "duration": 0.2186,
      "velocity": 100,
      "chip": "ym2612"
    },
    {
      "channel": 3,
      "note": 59,
      "start": 29.4653,
      "duration": 0.1309,
      "velocity": 123,
      "chip": "ym2612"
    },
    {
      "channel": 4,
      "note": 39,
      "start": 29.4663,
      "duration": 0.2656,
      "velocity": 93,
      "chip": "ym2612"
    },
    {
      "channel": 3,
      "note": 59,
      "start": 29.5963,
      "duration": 0.1348,
      "velocity": 127,
      "chip": "ym2612"
    },
    {
      "channel": 0,
      "note": 55,
      "start": 29.7254,
      "duration": 0.2195,
      "velocity": 100,
      "chip": "ym2612"
    },
    {
      "channel": 2,
      "note": 51,
      "start": 29.727,
      "duration": 0.2186,
      "velocity": 100,
      "chip": "ym2612"
    },
    {
      "channel": 3,
      "note": 64,
      "start": 29.7313,
      "duration": 0.13,
      "velocity": 127,
      "chip": "ym2612"
    },
    {
      "channel": 4,
      "note": 39,
      "start": 29.7321,
      "duration": 0.2629,
      "velocity": 93,
      "chip": "ym2612"
    },
    {
      "channel": 3,
      "note": 64,
      "start": 29.8616,
      "duration": 0.1324,
      "velocity": 127,
      "chip": "ym2612"
    },
    {
      "channel": 0,
      "note": 54,
      "start": 29.9873,
      "duration": 0.2224,
      "velocity": 100,
      "chip": "ym2612"
    },
    {
      "channel": 2,
      "note": 51,
      "start": 29.9889,
      "duration": 0.4833,
      "velocity": 100,
      "chip": "ym2612"
    },
    {
      "channel": 3,
      "note": 64,
      "start": 29.9942,
      "duration": 0.1319,
      "velocity": 127,
      "chip": "ym2612"
    },
    {
      "channel": 4,
      "note": 39,
      "start": 29.9952,
      "duration": 0.2612,
      "velocity": 93,
      "chip": "ym2612"
    },
    {
      "channel": 3,
      "note": 64,
      "start": 30.1263,
      "duration": 0.1293,
      "velocity": 127,
      "chip": "ym2612"
    },
    {
      "channel": 0,
      "note": 53,
      "start": 30.2522,
      "duration": 0.2193,
      "velocity": 100,
      "chip": "ym2612"
    },
    {
      "channel": 3,
      "note": 64,
      "start": 30.2558,
      "duration": 0.1317,
      "velocity": 127,
      "chip": "ym2612"
    },
    {
      "channel": 4,
      "note": 39,
      "start": 30.2567,
      "duration": 0.2623,
      "velocity": 93,
      "chip": "ym2612"
    },
    {
      "channel": 3,
      "note": 64,
      "start": 30.3876,
      "duration": 0.1306,
      "velocity": 127,
      "chip": "ym2612"
    },
    {
      "channel": 0,
      "note": 51,
      "start": 30.514,
      "duration": 0.2195,
      "velocity": 100,
      "chip": "ym2612"
    },
    {
      "channel": 2,
      "note": 47,
      "start": 30.5156,
      "duration": 0.2186,
      "velocity": 100,
      "chip": "ym2612"
    },
    {
      "channel": 3,
      "note": 64,
      "start": 30.5185,
      "duration": 0.1309,
      "velocity": 127,
      "chip": "ym2612"
    },
    {
      "channel": 4,
      "note": 39,
      "start": 30.5192,
      "duration": 0.2663,
      "velocity": 93,
      "chip": "ym2612"
    },
    {
      "channel": 3,
      "note": 64,
      "start": 30.6496,
      "duration": 0.1349,
      "velocity": 127,
      "chip": "ym2612"
    },
    {
      "channel": 0,
      "note": 53,
      "start": 30.7787,
      "duration": 0.2195,
      "velocity": 100,
      "chip": "ym2612"
    },
    {
      "channel": 2,
      "note": 49,
      "start": 30.7802,
      "duration": 0.4806,
      "velocity": 100,
      "chip": "ym2612"
    },
    {
      "channel": 3,
      "note": 59,
      "start": 30.7848,
      "duration": 0.1307,
      "velocity": 127,
      "chip": "ym2612"
    },
    {
      "channel": 4,
      "note": 39,
      "start": 30.7857,
      "duration": 0.2599,
      "velocity": 93,
      "chip": "ym2612"
    },
    {
      "channel": 3,
      "note": 62,
      "start": 30.9157,
      "duration": 0.1289,
      "velocity": 127,
      "chip": "ym2612"
    },
    {
      "channel": 0,
      "note": 51,
      "start": 31.0413,
      "duration": 0.2189,
      "velocity": 100,
      "chip": "ym2612"
    },
    {
      "channel": 3,
      "note": 59,
      "start": 31.0449,
      "duration": 0.1316,
      "velocity": 127,
      "chip": "ym2612"
    },
    {
      "channel": 4,
      "note": 39,
      "start": 31.0458,
      "duration": 0.2656,
      "velocity": 93,
      "chip": "ym2612"
    },
    {
      "channel": 3,
      "note": 59,
      "start": 31.1767,
      "duration": 0.134,
      "velocity": 127,
      "chip": "ym2612"
    },
    {
      "channel": 0,
      "note": 49,
      "start": 31.3054,
      "duration": 0.2196,
      "velocity": 100,
      "chip": "ym2612"
    },
    {
      "channel": 1,
      "note": 39,
      "start": 31.3061,
      "duration": 0.2192,
      "velocity": 107,
      "chip": "ym2612"
    },
    {
      "channel": 2,
      "note": 44,
      "start": 31.308,
      "duration": 0.2177,
      "velocity": 100,
      "chip": "ym2612"
    },
    {
      "channel": 3,
      "note": 59,
      "start": 31.3109,
      "duration": 0.132,
      "velocity": 127,
      "chip": "ym2612"
    },
    {
      "channel": 4,
      "note": 39,
      "start": 31.3117,
      "duration": 0.2669,
      "velocity": 93,
      "chip": "ym2612"
    },
    {
      "channel": 3,
      "note": 64,
      "start": 31.4432,
      "duration": 0.1344,
      "velocity": 127,
      "chip": "ym2612"
    },
    {
      "channel": 0,
      "note": 51,
      "start": 31.5703,
      "duration": 1.5346,
      "velocity": 100,
      "chip": "ym2612"
    },
    {
      "channel": 1,
      "note": 51,
      "start": 31.5711,
      "duration": 0.4809,
      "velocity": 107,
      "chip": "ym2612"
    },
    {
      "channel": 2,
      "note": 46,
      "start": 31.5724,
      "duration": 1.5333,
      "velocity": 100,
      "chip": "ym2612"
    },
    {
      "channel": 3,
      "note": 64,
      "start": 31.5777,
      "duration": 0.1277,
      "velocity": 127,
      "chip": "ym2612"
    },
    {
      "channel": 4,
      "note": 39,
      "start": 31.5787,
      "duration": 0.2602,
      "velocity": 93,
      "chip": "ym2612"
    },
    {
      "channel": 5,
      "note": 39,
      "start": 31.64,
      "duration": 0.2203,
      "velocity": 107,
      "chip": "ym2612"
    },
    {
      "channel": 3,
      "note": 64,
      "start": 31.7056,
      "duration": 0.1324,
      "velocity": 127,
      "chip": "ym2612"
    },
    {
      "channel": 3,
      "note": 64,
      "start": 31.8382,
      "duration": 0.1293,
      "velocity": 127,
      "chip": "ym2612"
    },
    {
      "channel": 4,
      "note": 39,
      "start": 31.8391,
      "duration": 0.2617,
      "velocity": 93,
      "chip": "ym2612"
    },
    {
      "channel": 5,
      "note": 51,
      "start": 31.9019,
      "duration": 0.4813,
      "velocity": 107,
      "chip": "ym2612"
    },
    {
      "channel": 3,
      "note": 64,
      "start": 31.9677,
      "duration": 0.1324,
      "velocity": 127,
      "chip": "ym2612"
    },
    {
      "channel": 1,
      "note": 46,
      "start": 32.0973,
      "duration": 0.2165,
      "velocity": 107,
      "chip": "ym2612"
    },
    {
      "channel": 3,
      "note": 64,
      "start": 32.1002,
      "duration": 0.1291,
      "velocity": 127,
      "chip": "ym2612"
    },
    {
      "channel": 4,
      "note": 39,
      "start": 32.101,
      "duration": 0.2634,
      "velocity": 93,
      "chip": "ym2612"
    },
    {
      "channel": 3,
      "note": 64,
      "start": 32.2296,
      "duration": 0.134,
      "velocity": 127,
      "chip": "ym2612"
    },
    {
      "channel": 1,
      "note": 51,
      "start": 32.3591,
      "duration": 0.2195,
      "velocity": 107,
      "chip": "ym2612"
    },
    {
      "channel": 3,
      "note": 59,
      "start": 32.3637,
      "duration": 0.1322,
      "velocity": 123,
      "chip": "ym2612"
    },
    {
      "channel": 4,
      "note": 39,
      "start": 32.3647,
      "duration": 0.2637,
      "velocity": 93,
      "chip": "ym2612"
    },
    {
      "channel": 5,
      "note": 46,
      "start": 32.4286,
      "duration": 0.2194,
      "velocity": 107,
      "chip": "ym2612"
    },
    {
      "channel": 3,
      "note": 59,
      "start": 32.4961,
      "duration": 0.1314,
      "velocity": 123,
      "chip": "ym2612"
    },
    {
      "channel": 1,
      "note": 53,
      "start": 32.6242,
      "duration": 0.2192,
      "velocity": 107,
      "chip": "ym2612"
    },
    {
      "channel": 3,
      "note": 59,
      "start": 32.6277,
      "duration": 0.132,
      "velocity": 123,
      "chip": "ym2612"
    },
    {
      "channel": 4,
      "note": 39,
      "start": 32.6287,
      "duration": 0.2632,
      "velocity": 93,
      "chip": "ym2612"
    },
    {
      "channel": 5,
      "note": 51,
      "start": 32.6939,
      "duration": 0.2189,
      "velocity": 107,
      "chip": "ym2612"
    },
    {
      "channel": 3,
      "note": 59,
      "start": 32.7598,
      "duration": 0.1307,
      "velocity": 127,
      "chip": "ym2612"
    },
    {
      "channel": 1,
      "note": 46,
      "start": 32.8859,
      "duration": 1.5375,
      "velocity": 107,
      "chip": "ym2612"
    },
    {
      "channel": 3,
      "note": 64,
      "start": 32.8913,
      "duration": 0.1296,
      "velocity": 127,
      "chip": "ym2612"
    },
    {
      "channel": 4,
      "note": 39,
      "start": 32.892,
      "duration": 0.2649,
      "velocity": 93,
      "chip": "ym2612"
    },
    {
      "channel": 5,
      "note": 53,
      "start": 32.9552,
      "duration": 0.2202,
      "velocity": 107,
      "chip": "ym2612"
    },
    {
      "channel": 3,
      "note": 64,
      "start": 33.021,
      "duration": 0.1349,
      "velocity": 127,
      "chip": "ym2612"
    },
    {
      "channel": 0,
      "note": 56,
      "start": 33.1503,
      "duration": 0.4813,
      "velocity": 100,
      "chip": "ym2612"
    },
    {
      "channel": 2,
      "note": 51,
      "start": 33.1518,
      "duration": 0.4805,
      "velocity": 100,
      "chip": "ym2612"
    },
    {
      "channel": 3,
      "note": 64,
      "start": 33.1561,
      "duration": 0.1293,
      "velocity": 127,
      "chip": "ym2612"
    },
    {
      "channel": 4,
      "note": 39,
      "start": 33.1572,
      "duration": 0.2588,
      "velocity": 93,
      "chip": "ym2612"
    },
    {
      "channel": 5,
      "note": 46,
      "start": 33.22,
      "duration": 1.5347,
      "velocity": 107,
      "chip": "ym2612"
    },
    {
      "channel": 3,
      "note": 64,
      "start": 33.2856,
      "duration": 0.1296,
      "velocity": 127,
      "chip": "ym2612"
    },
    {
      "channel": 3,
      "note": 64,
      "start": 33.4154,
      "duration": 0.1321,
      "velocity": 127,
      "chip": "ym2612"
    },
    {
      "channel": 4,
      "note": 39,
      "start": 33.4163,
      "duration": 0.2631,
      "velocity": 93,
      "chip": "ym2612"
    },
    {
      "channel": 3,
      "note": 64,
      "start": 33.5477,
      "duration": 0.131,
      "velocity": 127,
      "chip": "ym2612"
    },
    {
      "channel": 0,
      "note": 51,
      "start": 33.6747,
      "duration": 0.4837,
      "velocity": 100,
      "chip": "ym2612"
    },
    {
      "channel": 2,
      "note": 46,
      "start": 33.6762,
      "duration": 0.4829,
      "velocity": 100,
      "chip": "ym2612"
    },
    {
      "channel": 3,
      "note": 64,
      "start": 33.6789,
      "duration": 0.1311,
      "velocity": 127,
      "chip": "ym2612"
    },
    {
      "channel": 4,
      "note": 39,
      "start": 33.6796,
      "duration": 0.2651,
      "velocity": 93,
      "chip": "ym2612"
    },
    {
      "channel": 3,
      "note": 64,
      "start": 33.8102,
      "duration": 0.1337,
      "velocity": 127,
      "chip": "ym2612"
    },
    {
      "channel": 3,
      "note": 59,
      "start": 33.944,
      "duration": 0.132,
      "velocity": 123,
      "chip": "ym2612"
    },
    {
      "channel": 4,
      "note": 39,
      "start": 33.9449,
      "duration": 0.2645,
      "velocity": 93,
      "chip": "ym2612"
    },
    {
      "channel": 3,
      "note": 59,
      "start": 34.0763,
      "duration": 0.1322,
      "velocity": 123,
      "chip": "ym2612"
    },
    {
      "channel": 0,
      "note": 56,
      "start": 34.2036,
      "duration": 0.2195,
      "velocity": 100,
      "chip": "ym2612"
    },
    {
      "channel": 2,
      "note": 51,
      "start": 34.2052,
      "duration": 0.2187,
      "velocity": 100,
      "chip": "ym2612"
    },
    {
      "channel": 3,
      "note": 59,
      "start": 34.2088,
      "duration": 0.1302,
      "velocity": 123,
      "chip": "ym2612"
    },
    {
      "channel": 4,
      "note": 39,
      "start": 34.2097,
      "duration": 0.2626,
      "velocity": 93,
      "chip": "ym2612"
    },
    {
      "channel": 3,
      "note": 59,
      "start": 34.3392,
      "duration": 0.1324,
      "velocity": 127,
      "chip": "ym2612"
    },
    {
      "channel": 0,
      "note": 60,
      "start": 34.4656,
      "duration": 0.2194,
      "velocity": 100,
      "chip": "ym2612"
    },
    {
      "channel": 1,
      "note": 46,
      "start": 34.4663,
      "duration": 0.2191,
      "velocity": 107,
      "chip": "ym2612"
    },
    {
      "channel": 2,
      "note": 56,
      "start": 34.4675,
      "duration": 0.2183,
      "velocity": 100,
      "chip": "ym2612"
    },
    {
      "channel": 3,
      "note": 64,
      "start": 34.4717,
      "duration": 0.1291,
      "velocity": 127,
      "chip": "ym2612"
    },
    {
      "channel": 4,
      "note": 39,
      "start": 34.4725,
      "duration": 0.2648,
      "velocity": 93,
      "chip": "ym2612"
    },
    {
      "channel": 3,
      "note": 64,
      "start": 34.6011,
      "duration": 0.1352,
      "velocity": 127,
      "chip": "ym2612"
    },
    {
      "channel": 0,
      "note": 62,
      "start": 34.7303,
      "duration": 0.4813,
      "velocity": 100,
      "chip": "ym2612"
    },
    {
      "channel": 1,
      "note": 39,
      "start": 34.731,
      "duration": 0.7429,
      "velocity": 107,
      "chip": "ym2612"
    },
    {
      "channel": 2,
      "note": 58,
      "start": 34.7322,
      "duration": 0.4801,
      "velocity": 100,
      "chip": "ym2612"
    },
    {
      "channel": 3,
      "note": 64,
      "start": 34.7366,
      "duration": 0.129,
      "velocity": 127,
      "chip": "ym2612"
    },
    {
      "channel": 4,
      "note": 39,
      "start": 34.7375,
      "duration": 0.2586,
      "velocity": 93,
      "chip": "ym2612"
    },
    {
      "channel": 5,
      "note": 46,
      "start": 34.7998,
      "duration": 0.2167,
      "velocity": 107,
      "chip": "ym2612"
    },
    {
      "channel": 3,
      "note": 64,
      "start": 34.8657,
      "duration": 0.1295,
      "velocity": 127,
      "chip": "ym2612"
    },
    {
      "channel": 3,
      "note": 64,
      "start": 34.9954,
      "duration": 0.1326,
      "velocity": 127,
      "chip": "ym2612"
    },
    {
      "channel": 4,
      "note": 39,
      "start": 34.9963,
      "duration": 0.2631,
      "velocity": 93,
      "chip": "ym2612"
    },
    {
      "channel": 5,
      "note": 39,
      "start": 35.0619,
      "duration": 0.7468,
      "velocity": 107,
      "chip": "ym2612"
    },
    {
      "channel": 3,
      "note": 64,
      "start": 35.1282,
      "duration": 0.1305,
      "velocity": 127,
      "chip": "ym2612"
    },
    {
      "channel": 0,
      "note": 63,
      "start": 35.2541,
      "duration": 0.4842,
      "velocity": 100,
      "chip": "ym2612"
    },
    {
      "channel": 2,
      "note": 58,
      "start": 35.2556,
      "duration": 0.4833,
      "velocity": 100,
      "chip": "ym2612"
    },
    {
      "channel": 3,
      "note": 64,
      "start": 35.2589,
      "duration": 0.1305,
      "velocity": 127,
      "chip": "ym2612"
    },
    {
      "channel": 4,
      "note": 39,
      "start": 35.2597,
      "duration": 0.2655,
      "velocity": 93,
      "chip": "ym2612"
    },
    {
      "channel": 3,
      "note": 64,
      "start": 35.3895,
      "duration": 0.134,
      "velocity": 127,
      "chip": "ym2612"
    },
    {
      "channel": 1,
      "note": 46,
      "start": 35.5191,
      "duration": 0.7462,
      "velocity": 107,
      "chip": "ym2612"
    },
    {
      "channel": 3,
      "note": 59,
      "start": 35.5238,
      "duration": 0.1316,
      "velocity": 123,
      "chip": "ym2612"
    },
    {
      "channel": 4,
      "note": 39,
      "start": 35.5254,
      "duration": 0.2606,
      "velocity": 93,
      "chip": "ym2612"
    },
    {
      "channel": 3,
      "note": 59,
      "start": 35.6556,
      "duration": 0.1295,
      "velocity": 123,
      "chip": "ym2612"
    },
    {
      "channel": 0,
      "note": 58,
      "start": 35.7807,
      "duration": 0.2195,
      "velocity": 100,
      "chip": "ym2612"
    },
    {
      "channel": 2,
      "note": 55,
      "start": 35.7822,
      "duration": 0.2186,
      "velocity": 100,
      "chip": "ym2612"
    },
    {
      "channel": 3,
      "note": 59,
      "start": 35.7853,
      "duration": 0.1308,
      "velocity": 123,
      "chip": "ym2612"
    },
    {
      "channel": 4,
      "note": 39,
      "start": 35.7862,
      "duration": 0.2659,
      "velocity": 93,
      "chip": "ym2612"
    },
    {
      "channel": 5,
      "note": 46,
      "start": 35.8503,
      "duration": 0.7492,
      "velocity": 107,
      "chip": "ym2612"
    },
    {
      "channel": 3,
      "note": 59,
      "start": 35.9163,
      "duration": 0.1349,
      "velocity": 127,
      "chip": "ym2612"
    },
    {
      "channel": 0,
      "note": 55,
      "start": 36.0455,
      "duration": 0.2195,
      "velocity": 100,
      "chip": "ym2612"
    },
    {
      "channel": 2,
      "note": 51,
      "start": 36.0471,
      "duration": 0.2185,
      "velocity": 100,
      "chip": "ym2612"
    },
    {
      "channel": 3,
      "note": 64,
      "start": 36.0515,
      "duration": 0.1295,
      "velocity": 127,
      "chip": "ym2612"
    },
    {
      "channel": 4,
      "note": 39,
      "start": 36.0522,
      "duration": 0.263,
      "velocity": 93,
      "chip": "ym2612"
    },
    {
      "channel": 3,
      "note": 64,
      "start": 36.1811,
      "duration": 0.1332,
      "velocity": 127,
      "chip": "ym2612"
    },
    {
      "channel": 0,
      "note": 54,
      "start": 36.308,
      "duration": 0.2218,
      "velocity": 100,
      "chip": "ym2612"
    },
    {
      "channel": 1,
      "note": 51,
      "start": 36.3088,
      "duration": 0.748,
      "velocity": 107,
      "chip": "ym2612"
    },
    {
      "channel": 2,
      "note": 51,
      "start": 36.31,
      "duration": 0.4823,
      "velocity": 100,
      "chip": "ym2612"
    },
    {
      "channel": 3,
      "note": 64,
      "start": 36.3144,
      "duration": 0.1311,
      "velocity": 127,
      "chip": "ym2612"
    },
    {
      "channel": 4,
      "note": 39,
      "start": 36.3154,
      "duration": 0.2617,
      "velocity": 93,
      "chip": "ym2612"
    },
    {
      "channel": 3,
      "note": 64,
      "start": 36.4457,
      "duration": 0.1305,
      "velocity": 127,
      "chip": "ym2612"
    },
    {
      "channel": 0,
      "note": 53,
      "start": 36.5722,
      "duration": 0.2195,
      "velocity": 100,
      "chip": "ym2612"
    },
    {
      "channel": 3,
      "note": 64,
      "start": 36.5764,
      "duration": 0.1318,
      "velocity": 127,
      "chip": "ym2612"
    },
    {
      "channel": 4,
      "note": 39,
      "start": 36.5774,
      "duration": 0.2653,
      "velocity": 93,
      "chip": "ym2612"
    },
    {
      "channel": 5,
      "note": 51,
      "start": 36.6427,
      "duration": 0.7453,
      "velocity": 107,
      "chip": "ym2612"
    },
    {
      "channel": 3,
      "note": 64,
      "start": 36.7085,
      "duration": 0.1334,
      "velocity": 127,
      "chip": "ym2612"
    },
    {
      "channel": 0,
      "note": 51,
      "start": 36.8369,
      "duration": 0.2195,
      "velocity": 100,
      "chip": "ym2612"
    },
    {
      "channel": 2,
      "note": 47,
      "start": 36.8385,
      "duration": 0.2187,
      "velocity": 100,
      "chip": "ym2612"
    },
    {
      "channel": 3,
      "note": 64,
      "start": 36.8421,
      "duration": 0.1303,
      "velocity": 127,
      "chip": "ym2612"
    },
    {
      "channel": 4,
      "note": 39,
      "start": 36.8429,
      "duration": 0.2633,
      "velocity": 93,
      "chip": "ym2612"
    },
    {
      "channel": 3,
      "note": 64,
      "start": 36.9726,
      "duration": 0.1326,
      "velocity": 127,
      "chip": "ym2612"
    },
    {
      "channel": 0,
      "note": 53,
      "start": 37.099,
      "duration": 0.2194,
      "velocity": 100,
      "chip": "ym2612"
    },
    {
      "channel": 1,
      "note": 49,
      "start": 37.0997,
      "duration": 0.7457,
      "velocity": 107,
      "chip": "ym2612"
    },
    {
      "channel": 2,
      "note": 49,
      "start": 37.1009,
      "duration": 0.48,
      "velocity": 100,
      "chip": "ym2612"
    },
    {
      "channel": 3,
      "note": 59,
      "start": 37.1054,
      "duration": 0.1301,
      "velocity": 127,
      "chip": "ym2612"
    },
    {
      "channel": 4,
      "note": 39,
      "start": 37.1063,
      "duration": 0.2613,
      "velocity": 93,
      "chip": "ym2612"
    },
    {
      "channel": 3,
      "note": 62,
      "start": 37.2357,
      "duration": 0.131,
      "velocity": 127,
      "chip": "ym2612"
    },
    {
      "channel": 0,
      "note": 51,
      "start": 37.3637,
      "duration": 0.2165,
      "velocity": 100,
      "chip": "ym2612"
    },
    {
      "channel": 3,
      "note": 59,
      "start": 37.367,
      "duration": 0.129,
      "velocity": 127,
      "chip": "ym2612"
    },
    {
      "channel": 4,
      "note": 39,
      "start": 37.3679,
      "duration": 0.2625,
      "velocity": 93,
      "chip": "ym2612"
    },
    {
      "channel": 5,
      "note": 49,
      "start": 37.4304,
      "duration": 0.7493,
      "velocity": 107,
      "chip": "ym2612"
    },
    {
      "channel": 3,
      "note": 59,
      "start": 37.4962,
      "duration": 0.1336,
      "velocity": 127,
      "chip": "ym2612"
    },
    {
      "channel": 0,
      "note": 49,
      "start": 37.6255,
      "duration": 0.2195,
      "velocity": 100,
      "chip": "ym2612"
    },
    {
      "channel": 2,
      "note": 44,
      "start": 37.627,
      "duration": 0.2188,
      "velocity": 100,
      "chip": "ym2612"
    },
    {
      "channel": 3,
      "note": 59,
      "start": 37.6299,
      "duration": 0.133,
      "velocity": 127,
      "chip": "ym2612"
    },
    {
      "channel": 4,
      "note": 39,
      "start": 37.6307,
      "duration": 0.2678,
      "velocity": 93,
      "chip": "ym2612"
    },
    {
      "channel": 3,
      "note": 64,
      "start": 37.7631,
      "duration": 0.1344,
      "velocity": 127,
      "chip": "ym2612"
    },
    {
      "channel": 0,
      "note": 51,
      "start": 37.8905,
      "duration": 0.743,
      "velocity": 100,
      "chip": "ym2612"
    },
    {
      "channel": 1,
      "note": 47,
      "start": 37.8917,
      "duration": 0.7422,
      "velocity": 107,
      "chip": "ym2612"
    },
    {
      "channel": 2,
      "note": 47,
      "start": 37.893,
      "duration": 0.7412,
      "velocity": 100,
      "chip": "ym2612"
    },
    {
      "channel": 3,
      "note": 64,
      "start": 37.8976,
      "duration": 0.1286,
      "velocity": 127,
      "chip": "ym2612"
    },
    {
      "channel": 4,
      "note": 40,
      "start": 37.8987,
      "duration": 0.261,
      "velocity": 93,
      "chip": "ym2612"
    },
    {
      "channel": 3,
      "note": 64,
      "start": 38.0264,
      "duration": 0.1324,
      "velocity": 127,
      "chip": "ym2612"
    },
    {
      "channel": 3,
      "note": 64,
      "start": 38.159,
      "duration": 0.1286,
      "velocity": 127,
      "chip": "ym2612"
    },
    {
      "channel": 4,
      "note": 40,
      "start": 38.1599,
      "duration": 0.2605,
      "velocity": 93,
      "chip": "ym2612"
    },
    {
      "channel": 5,
      "note": 47,
      "start": 38.2219,
      "duration": 0.7461,
      "velocity": 107,
      "chip": "ym2612"
    },
    {
      "channel": 3,
      "note": 64,
      "start": 38.2878,
      "duration": 0.132,
      "velocity": 127,
      "chip": "ym2612"
    },
    {
      "channel": 3,
      "note": 64,
      "start": 38.42,
      "duration": 0.1295,
      "velocity": 127,
      "chip": "ym2612"
    },
    {
      "channel": 4,
      "note": 40,
      "start": 38.4207,
      "duration": 0.2651,
      "velocity": 93,
      "chip": "ym2612"
    },
    {
      "channel": 3,
      "note": 64,
      "start": 38.5497,
      "duration": 0.1352,
      "velocity": 127,
      "chip": "ym2612"
    },
    {
      "channel": 0,
      "note": 49,
      "start": 38.6789,
      "duration": 0.7461,
      "velocity": 100,
      "chip": "ym2612"
    },
    {
      "channel": 1,
      "note": 49,
      "start": 38.6796,
      "duration": 1.5313,
      "velocity": 107,
      "chip": "ym2612"
    },
    {
      "channel": 2,
      "note": 46,
      "start": 38.6807,
      "duration": 0.7449,
      "velocity": 100,
      "chip": "ym2612"
    },
    {
      "channel": 3,
      "note": 59,
      "start": 38.6851,
      "duration": 0.1305,
      "velocity": 123,
      "chip": "ym2612"
    },
    {
      "channel": 4,
      "note": 40,
      "start": 38.6861,
      "duration": 0.2593,
      "velocity": 93,
      "chip": "ym2612"
    },
    {
      "channel": 3,
      "note": 59,
      "start": 38.8158,
      "duration": 0.1288,
      "velocity": 123,
      "chip": "ym2612"
    },
    {
      "channel": 3,
      "note": 59,
      "start": 38.9447,
      "duration": 0.1321,
      "velocity": 123,
      "chip": "ym2612"
    },
    {
      "channel": 4,
      "note": 40,
      "start": 38.9456,
      "duration": 0.2656,
      "velocity": 93,
      "chip": "ym2612"
    },
    {
      "channel": 5,
      "note": 49,
      "start": 39.011,
      "duration": 1.5342,
      "velocity": 107,
      "chip": "ym2612"
    },
    {
      "channel": 3,
      "note": 59,
      "start": 39.077,
      "duration": 0.1335,
      "velocity": 127,
      "chip": "ym2612"
    },
    {
      "channel": 3,
      "note": 64,
      "start": 39.2107,
      "duration": 0.1308,
      "velocity": 127,
      "chip": "ym2612"
    },
    {
      "channel": 4,
      "note": 40,
      "start": 39.2114,
      "duration": 0.2634,
      "velocity": 93,
      "chip": "ym2612"
    },
    {
      "channel": 3,
      "note": 64,
      "start": 39.3417,
      "duration": 0.1315,
      "velocity": 127,
      "chip": "ym2612"
    },
    {
      "channel": 0,
      "note": 51,
      "start": 39.4675,
      "duration": 0.7431,
      "velocity": 100,
      "chip": "ym2612"
    },
    {
      "channel": 2,
      "note": 47,
      "start": 39.469,
      "duration": 0.7422,
      "velocity": 100,
      "chip": "ym2612"
    },
    {
      "channel": 3,
      "note": 64,
      "start": 39.4733,
      "duration": 0.1292,
      "velocity": 127,
      "chip": "ym2612"
    },
    {
      "channel": 4,
      "note": 40,
      "start": 39.475,
      "duration": 0.2609,
      "velocity": 93,
      "chip": "ym2612"
    },
    {
      "channel": 3,
      "note": 64,
      "start": 39.6027,
      "duration": 0.1323,
      "velocity": 127,
      "chip": "ym2612"
    },
    {
      "channel": 3,
      "note": 64,
      "start": 39.7352,
      "duration": 0.1293,
      "velocity": 127,
      "chip": "ym2612"
    },
    {
      "channel": 4,
      "note": 40,
      "start": 39.7361,
      "duration": 0.2615,
      "velocity": 93,
      "chip": "ym2612"
    },
    {
      "channel": 3,
      "note": 64,
      "start": 39.8647,
      "duration": 0.1321,
      "velocity": 127,
      "chip": "ym2612"
    },
    {
      "channel": 3,
      "note": 64,
      "start": 39.9971,
      "duration": 0.13,
      "velocity": 127,
      "chip": "ym2612"
    },
    {
      "channel": 4,
      "note": 40,
      "start": 39.9978,
      "duration": 0.2655,
      "velocity": 93,
      "chip": "ym2612"
    },
    {
      "channel": 3,
      "note": 64,
      "start": 40.1273,
      "duration": 0.1351,
      "velocity": 127,
      "chip": "ym2612"
    },
    {
      "channel": 0,
      "note": 52,
      "start": 40.2558,
      "duration": 0.7462,
      "velocity": 100,
      "chip": "ym2612"
    },
    {
      "channel": 1,
      "note": 42,
      "start": 40.2565,
      "duration": 0.2192,
      "velocity": 107,
      "chip": "ym2612"
    },
    {
      "channel": 2,
      "note": 47,
      "start": 40.2583,
      "duration": 0.7445,
      "velocity": 100,
      "chip": "ym2612"
    },
    {
      "channel": 3,
      "note": 59,
      "start": 40.2626,
      "duration": 0.1304,
      "velocity": 123,
      "chip": "ym2612"
    },
    {
      "channel": 4,
      "note": 40,
      "start": 40.2636,
      "duration": 0.2619,
      "velocity": 93,
      "chip": "ym2612"
    },
    {
      "channel": 3,
      "note": 59,
      "start": 40.3933,
      "duration": 0.1313,
      "velocity": 123,
      "chip": "ym2612"
    },
    {
      "channel": 1,
      "note": 47,
      "start": 40.521,
      "duration": 0.2195,
      "velocity": 107,
      "chip": "ym2612"
    },
    {
      "channel": 3,
      "note": 59,
      "start": 40.5248,
      "duration": 0.1312,
      "velocity": 123,
      "chip": "ym2612"
    },
    {
      "channel": 4,
      "note": 40,
      "start": 40.5257,
      "duration": 0.2624,
      "velocity": 93,
      "chip": "ym2612"
    },
    {
      "channel": 5,
      "note": 42,
      "start": 40.5902,
      "duration": 0.2202,
      "velocity": 107,
      "chip": "ym2612"
    },
    {
      "channel": 3,
      "note": 59,
      "start": 40.6562,
      "duration": 0.1312,
      "velocity": 127,
      "chip": "ym2612"
    },
    {
      "channel": 1,
      "note": 49,
      "start": 40.7829,
      "duration": 0.2195,
      "velocity": 107,
      "chip": "ym2612"
    },
    {
      "channel": 3,
      "note": 64,
      "start": 40.7876,
      "duration": 0.1303,
      "velocity": 127,
      "chip": "ym2612"
    },
    {
      "channel": 4,
      "note": 40,
      "start": 40.7883,
      "duration": 0.2662,
      "velocity": 93,
      "chip": "ym2612"
    },
    {
      "channel": 5,
      "note": 47,
      "start": 40.8522,
      "duration": 0.2195,
      "velocity": 107,
      "chip": "ym2612"
    },
    {
      "channel": 3,
      "note": 64,
      "start": 40.918,
      "duration": 0.1355,
      "velocity": 127,
      "chip": "ym2612"
    },
    {
      "channel": 0,
      "note": 54,
      "start": 41.0473,
      "duration": 0.2195,
      "velocity": 100,
      "chip": "ym2612"
    },
    {
      "channel": 1,
      "note": 54,
      "start": 41.0481,
      "duration": 1.0076,
      "velocity": 107,
      "chip": "ym2612"
    },
    {
      "channel": 2,
      "note": 51,
      "start": 41.0493,
      "duration": 0.48,
      "velocity": 100,
      "chip": "ym2612"
    },
    {
      "channel": 3,
      "note": 64,
      "start": 41.0538,
      "duration": 0.1287,
      "velocity": 127,
      "chip": "ym2612"
    },
    {
      "channel": 4,
      "note": 40,
      "start": 41.0548,
      "duration": 0.2587,
      "velocity": 93,
      "chip": "ym2612"
    },
    {
      "channel": 5,
      "note": 49,
      "start": 41.1169,
      "duration": 0.2169,
      "velocity": 107,
      "chip": "ym2612"
    },
    {
      "channel": 3,
      "note": 64,
      "start": 41.1827,
      "duration": 0.1299,
      "velocity": 127,
      "chip": "ym2612"
    },
    {
      "channel": 0,
      "note": 52,
      "start": 41.3093,
      "duration": 0.2193,
      "velocity": 100,
      "chip": "ym2612"
    },
    {
      "channel": 3,
      "note": 64,
      "start": 41.3128,
      "duration": 0.132,
      "velocity": 127,
      "chip": "ym2612"
    },
    {
      "channel": 4,
      "note": 40,
      "start": 41.3137,
      "duration": 0.2628,
      "velocity": 93,
      "chip": "ym2612"
    },
    {
      "channel": 5,
      "note": 54,
      "start": 41.3788,
      "duration": 1.0082,
      "velocity": 107,
      "chip": "ym2612"
    },
    {
      "channel": 3,
      "note": 64,
      "start": 41.445,
      "duration": 0.1307,
      "velocity": 127,
      "chip": "ym2612"
    },
    {
      "channel": 0,
      "note": 51,
      "start": 41.571,
      "duration": 0.2196,
      "velocity": 100,
      "chip": "ym2612"
    },
    {
      "channel": 2,
      "note": 47,
      "start": 41.5726,
      "duration": 0.2193,
      "velocity": 100,
      "chip": "ym2612"
    },
    {
      "channel": 3,
      "note": 64,
      "start": 41.5759,
      "duration": 0.1304,
      "velocity": 127,
      "chip": "ym2612"
    },
    {
      "channel": 4,
      "note": 40,
      "start": 41.5767,
      "duration": 0.2664,
      "velocity": 93,
      "chip": "ym2612"
    },
    {
      "channel": 3,
      "note": 64,
      "start": 41.7066,
      "duration": 0.1356,
      "velocity": 127,
      "chip": "ym2612"
    },
    {
      "channel": 0,
      "note": 47,
      "start": 41.8359,
      "duration": 0.4812,
      "velocity": 100,
      "chip": "ym2612"
    },
    {
      "channel": 2,
      "note": 44,
      "start": 41.8374,
      "duration": 0.4805,
      "velocity": 100,
      "chip": "ym2612"
    },
    {
      "channel": 3,
      "note": 59,
      "start": 41.8423,
      "duration": 0.1301,
      "velocity": 123,
      "chip": "ym2612"
    },
    {
      "channel": 4,
      "note": 40,
      "start": 41.8433,
      "duration": 0.2589,
      "velocity": 93,
      "chip": "ym2612"
    },
    {
      "channel": 3,
      "note": 59,
      "start": 41.9726,
      "duration": 0.1286,
      "velocity": 123,
      "chip": "ym2612"
    },
    {
      "channel": 1,
      "note": 52,
      "start": 42.0981,
      "duration": 0.2194,
      "velocity": 107,
      "chip": "ym2612"
    },
    {
      "channel": 3,
      "note": 59,
      "start": 42.1015,
      "duration": 0.1315,
      "velocity": 123,
      "chip": "ym2612"
    },
    {
      "channel": 4,
      "note": 40,
      "start": 42.1024,
      "duration": 0.264,
      "velocity": 93,
      "chip": "ym2612"
    },
    {
      "channel": 3,
      "note": 59,
      "start": 42.2332,
      "duration": 0.1324,
      "velocity": 127,
      "chip": "ym2612"
    },
    {
      "channel": 0,
      "note": 51,
      "start": 42.3597,
      "duration": 0.2193,
      "velocity": 100,
      "chip": "ym2612"
    },
    {
      "channel": 1,
      "note": 51,
      "start": 42.3603,
      "duration": 0.2191,
      "velocity": 107,
      "chip": "ym2612"
    },
    {
      "channel": 2,
      "note": 47,
      "start": 42.3616,
      "duration": 0.2182,
      "velocity": 100,
      "chip": "ym2612"
    },
    {
      "channel": 3,
      "note": 64,
      "start": 42.3659,
      "duration": 0.129,
      "velocity": 127,
      "chip": "ym2612"
    },
    {
      "channel": 4,
      "note": 40,
      "start": 42.3666,
      "duration": 0.2654,
      "velocity": 93,
      "chip": "ym2612"
    },
    {
      "channel": 5,
      "note": 52,
      "start": 42.4293,
      "duration": 0.2195,
      "velocity": 107,
      "chip": "ym2612"
    },
    {
      "channel": 3,
      "note": 64,
      "start": 42.4951,
      "duration": 0.1359,
      "velocity": 127,
      "chip": "ym2612"
    },
    {
      "channel": 0,
      "note": 49,
      "start": 42.625,
      "duration": 1.5309,
      "velocity": 100,
      "chip": "ym2612"
    },
    {
      "channel": 1,
      "note": 49,
      "start": 42.6257,
      "duration": 0.7421,
      "velocity": 107,
      "chip": "ym2612"
    },
    {
      "channel": 2,
      "note": 46,
      "start": 42.627,
      "duration": 1.5297,
      "velocity": 100,
      "chip": "ym2612"
    },
    {
      "channel": 3,
      "note": 64,
      "start": 42.6313,
      "duration": 0.129,
      "velocity": 127,
      "chip": "ym2612"
    },
    {
      "channel": 4,
      "note": 40,
      "start": 42.6322,
      "duration": 0.2579,
      "velocity": 93,
      "chip": "ym2612"
    },
    {
      "channel": 5,
      "note": 51,
      "start": 42.6946,
      "duration": 0.2167,
      "velocity": 107,
      "chip": "ym2612"
    },
    {
      "channel": 3,
      "note": 64,
      "start": 42.7604,
      "duration": 0.1288,
      "velocity": 127,
      "chip": "ym2612"
    },
    {
      "channel": 3,
      "note": 64,
      "start": 42.8894,
      "duration": 0.1321,
      "velocity": 127,
      "chip": "ym2612"
    },
    {
      "channel": 4,
      "note": 40,
      "start": 42.8903,
      "duration": 0.2612,
      "velocity": 93,
      "chip": "ym2612"
    },
    {
      "channel": 5,
      "note": 49,
      "start": 42.9558,
      "duration": 0.7432,
      "velocity": 107,
      "chip": "ym2612"
    },
    {
      "channel": 3,
      "note": 64,
      "start": 43.0217,
      "duration": 0.1291,
      "velocity": 127,
      "chip": "ym2612"
    },
    {
      "channel": 3,
      "note": 64,
      "start": 43.151,
      "duration": 0.1323,
      "velocity": 127,
      "chip": "ym2612"
    },
    {
      "channel": 4,
      "note": 40,
      "start": 43.1518,
      "duration": 0.2639,
      "velocity": 93,
      "chip": "ym2612"
    },
    {
      "channel": 3,
      "note": 64,
      "start": 43.2835,
      "duration": 0.1312,
      "velocity": 127,
      "chip": "ym2612"
    },
    {
      "channel": 1,
      "note": 47,
      "start": 43.4103,
      "duration": 0.4817,
      "velocity": 107,
      "chip": "ym2612"
    },
    {
      "channel": 3,
      "note": 59,
      "start": 43.4149,
      "duration": 0.1316,
      "velocity": 123,
      "chip": "ym2612"
    },
    {
      "channel": 4,
      "note": 40,
      "start": 43.4159,
      "duration": 0.2631,
      "velocity": 93,
      "chip": "ym2612"
    },
    {
      "channel": 3,
      "note": 59,
      "start": 43.5467,
      "duration": 0.1314,
      "velocity": 123,
      "chip": "ym2612"
    },
    {
      "channel": 3,
      "note": 59,
      "start": 43.6783,
      "duration": 0.1289,
      "velocity": 123,
      "chip": "ym2612"
    },
    {
      "channel": 4,
      "note": 40,
      "start": 43.6792,
      "duration": 0.2635,
      "velocity": 93,
      "chip": "ym2612"
    },
    {
      "channel": 5,
      "note": 47,
      "start": 43.742,
      "duration": 0.4844,
      "velocity": 107,
      "chip": "ym2612"
    },
    {
      "channel": 3,
      "note": 59,
      "start": 43.808,
      "duration": 0.1339,
      "velocity": 127,
      "chip": "ym2612"
    },
    {
      "channel": 1,
      "note": 51,
      "start": 43.9369,
      "duration": 0.2194,
      "velocity": 107,
      "chip": "ym2612"
    },
    {
      "channel": 3,
      "note": 64,
      "start": 43.9421,
      "duration": 0.1297,
      "velocity": 127,
      "chip": "ym2612"
    },
    {
      "channel": 4,
      "note": 40,
      "start": 43.9429,
      "duration": 0.2628,
      "velocity": 93,
      "chip": "ym2612"
    },
    {
      "channel": 3,
      "note": 64,
      "start": 44.0721,
      "duration": 0.1325,
      "velocity": 127,
      "chip": "ym2612"
    },
    {
      "channel": 0,
      "note": 49,
      "start": 44.1984,
      "duration": 1.5345,
      "velocity": 100,
      "chip": "ym2612"
    },
    {
      "channel": 1,
      "note": 49,
      "start": 44.1992,
      "duration": 2.3226,
      "velocity": 107,
      "chip": "ym2612"
    },
    {
      "channel": 2,
      "note": 47,
      "start": 44.2004,
      "duration": 1.5333,
      "velocity": 100,
      "chip": "ym2612"
    },
    {
      "channel": 3,
      "note": 64,
      "start": 44.2048,
      "duration": 0.1287,
      "velocity": 127,
      "chip": "ym2612"
    },
    {
      "channel": 4,
      "note": 42,
      "start": 44.2058,
      "duration": 0.2611,
      "velocity": 93,
      "chip": "ym2612"
    },
    {
      "channel": 5,
      "note": 51,
      "start": 44.268,
      "duration": 0.2196,
      "velocity": 107,
      "chip": "ym2612"
    },
    {
      "channel": 3,
      "note": 64,
      "start": 44.3337,
      "duration": 0.1323,
      "velocity": 127,
      "chip": "ym2612"
    },
    {
      "channel": 3,
      "note": 64,
      "start": 44.4662,
      "duration": 0.1293,
      "velocity": 127,
      "chip": "ym2612"
    },
    {
      "channel": 4,
      "note": 42,
      "start": 44.4671,
      "duration": 0.2615,
      "velocity": 93,
      "chip": "ym2612"
    },
    {
      "channel": 5,
      "note": 49,
      "start": 44.5299,
      "duration": 2.323,
      "velocity": 107,
      "chip": "ym2612"
    },
    {
      "channel": 3,
      "note": 64,
      "start": 44.5956,
      "duration": 0.1322,
      "velocity": 127,
      "chip": "ym2612"
    },
    {
      "channel": 3,
      "note": 64,
      "start": 44.7281,
      "duration": 0.1298,
      "velocity": 127,
      "chip": "ym2612"
    },
    {
      "channel": 4,
      "note": 42,
      "start": 44.7288,
      "duration": 0.2639,
      "velocity": 93,
      "chip": "ym2612"
    },
    {
      "channel": 3,
      "note": 64,
      "start": 44.8581,
      "duration": 0.1337,
      "velocity": 127,
      "chip": "ym2612"
    },
    {
      "channel": 3,
      "note": 59,
      "start": 44.992,
      "duration": 0.1314,
      "velocity": 123,
      "chip": "ym2612"
    },
    {
      "channel": 4,
      "note": 42,
      "start": 44.9929,
      "duration": 0.2625,
      "velocity": 93,
      "chip": "ym2612"
    },
    {
      "channel": 3,
      "note": 59,
      "start": 45.1236,
      "duration": 0.131,
      "velocity": 123,
      "chip": "ym2612"
    },
    {
      "channel": 3,
      "note": 59,
      "start": 45.2548,
      "duration": 0.1293,
      "velocity": 123,
      "chip": "ym2612"
    },
    {
      "channel": 4,
      "note": 42,
      "start": 45.2556,
      "duration": 0.2628,
      "velocity": 93,
      "chip": "ym2612"
    },
    {
      "channel": 3,
      "note": 59,
      "start": 45.3843,
      "duration": 0.1335,
      "velocity": 127,
      "chip": "ym2612"
    },
    {
      "channel": 3,
      "note": 64,
      "start": 45.518,
      "duration": 0.1308,
      "velocity": 127,
      "chip": "ym2612"
    },
    {
      "channel": 4,
      "note": 42,
      "start": 45.5188,
      "duration": 0.2632,
      "velocity": 93,
      "chip": "ym2612"
    },
    {
      "channel": 3,
      "note": 64,
      "start": 45.649,
      "duration": 0.132,
      "velocity": 127,
      "chip": "ym2612"
    },
    {
      "channel": 0,
      "note": 54,
      "start": 45.7754,
      "duration": 0.4812,
      "velocity": 100,
      "chip": "ym2612"
    },
    {
      "channel": 2,
      "note": 49,
      "start": 45.777,
      "duration": 0.4811,
      "velocity": 100,
      "chip": "ym2612"
    },
    {
      "channel": 3,
      "note": 64,
      "start": 45.7812,
      "duration": 0.1298,
      "velocity": 127,
      "chip": "ym2612"
    },
    {
      "channel": 4,
      "note": 42,
      "start": 45.7822,
      "duration": 0.2624,
      "velocity": 93,
      "chip": "ym2612"
    },
    {
      "channel": 3,
      "note": 64,
      "start": 45.9113,
      "duration": 0.1324,
      "velocity": 127,
      "chip": "ym2612"
    },
    {
      "channel": 3,
      "note": 64,
      "start": 46.0439,
      "duration": 0.1285,
      "velocity": 127,
      "chip": "ym2612"
    },
    {
      "channel": 4,
      "note": 42,
      "start": 46.0448,
      "duration": 0.2618,
      "velocity": 93,
      "chip": "ym2612"
    },
    {
      "channel": 3,
      "note": 64,
      "start": 46.1727,
      "duration": 0.1333,
      "velocity": 127,
      "chip": "ym2612"
    },
    {
      "channel": 0,
      "note": 49,
      "start": 46.3021,
      "duration": 0.4813,
      "velocity": 100,
      "chip": "ym2612"
    },
    {
      "channel": 2,
      "note": 47,
      "start": 46.3036,
      "duration": 0.4805,
      "velocity": 100,
      "chip": "ym2612"
    },
    {
      "channel": 3,
      "note": 64,
      "start": 46.3061,
      "duration": 0.1311,
      "velocity": 127,
      "chip": "ym2612"
    },
    {
      "channel": 4,
      "note": 42,
      "start": 46.3069,
      "duration": 0.2626,
      "velocity": 93,
      "chip": "ym2612"
    },
    {
      "channel": 3,
      "note": 64,
      "start": 46.4374,
      "duration": 0.1312,
      "velocity": 127,
      "chip": "ym2612"
    },
    {
      "channel": 1,
      "note": 42,
      "start": 46.5643,
      "duration": 0.2195,
      "velocity": 107,
      "chip": "ym2612"
    },
    {
      "channel": 3,
      "note": 59,
      "start": 46.5688,
      "duration": 0.1317,
      "velocity": 123,
      "chip": "ym2612"
    },
    {
      "channel": 4,
      "note": 42,
      "start": 46.5698,
      "duration": 0.2643,
      "velocity": 93,
      "chip": "ym2612"
    },
    {
      "channel": 3,
      "note": 59,
      "start": 46.7007,
      "duration": 0.1325,
      "velocity": 123,
      "chip": "ym2612"
    },
    {
      "channel": 0,
      "note": 54,
      "start": 46.8287,
      "duration": 0.2194,
      "velocity": 100,
      "chip": "ym2612"
    },
    {
      "channel": 1,
      "note": 47,
      "start": 46.8294,
      "duration": 0.2192,
      "velocity": 107,
      "chip": "ym2612"
    },
    {
      "channel": 2,
      "note": 49,
      "start": 46.8306,
      "duration": 0.2183,
      "velocity": 100,
      "chip": "ym2612"
    },
    {
      "channel": 3,
      "note": 59,
      "start": 46.8334,
      "duration": 0.1306,
      "velocity": 123,
      "chip": "ym2612"
    },
    {
      "channel": 4,
      "note": 42,
      "start": 46.8343,
      "duration": 0.2637,
      "velocity": 93,
      "chip": "ym2612"
    },
    {
      "channel": 5,
      "note": 42,
      "start": 46.8983,
      "duration": 0.2195,
      "velocity": 107,
      "chip": "ym2612"
    },
    {
      "channel": 3,
      "note": 59,
      "start": 46.9642,
      "duration": 0.1331,
      "velocity": 127,
      "chip": "ym2612"
    },
    {
      "channel": 0,
      "note": 59,
      "start": 47.0913,
      "duration": 0.2188,
      "velocity": 100,
      "chip": "ym2612"
    },
    {
      "channel": 1,
      "note": 49,
      "start": 47.092,
      "duration": 0.2184,
      "velocity": 107,
      "chip": "ym2612"
    },
    {
      "channel": 2,
      "note": 54,
      "start": 47.0932,
      "duration": 0.2176,
      "velocity": 100,
      "chip": "ym2612"
    },
    {
      "channel": 3,
      "note": 64,
      "start": 47.0974,
      "duration": 0.129,
      "velocity": 127,
      "chip": "ym2612"
    },
    {
      "channel": 4,
      "note": 42,
      "start": 47.0982,
      "duration": 0.265,
      "velocity": 93,
      "chip": "ym2612"
    },
    {
      "channel": 5,
      "note": 47,
      "start": 47.1609,
      "duration": 0.2217,
      "velocity": 107,
      "chip": "ym2612"
    },
    {
      "channel": 3,
      "note": 64,
      "start": 47.2267,
      "duration": 0.1355,
      "velocity": 127,
      "chip": "ym2612"
    },
    {
      "channel": 0,
      "note": 58,
      "start": 47.3553,
      "duration": 1.5347,
      "velocity": 100,
      "chip": "ym2612"
    },
    {
      "channel": 1,
      "note": 54,
      "start": 47.356,
      "duration": 0.2193,
      "velocity": 107,
      "chip": "ym2612"
    },
    {
      "channel": 2,
      "note": 54,
      "start": 47.358,
      "duration": 1.5333,
      "velocity": 100,
      "chip": "ym2612"
    },
    {
      "channel": 3,
      "note": 64,
      "start": 47.3624,
      "duration": 0.1284,
      "velocity": 127,
      "chip": "ym2612"
    },
    {
      "channel": 4,
      "note": 42,
      "start": 47.3634,
      "duration": 0.2616,
      "velocity": 93,
      "chip": "ym2612"
    },
    {
      "channel": 5,
      "note": 49,
      "start": 47.4256,
      "duration": 0.2196,
      "velocity": 107,
      "chip": "ym2612"
    },
    {
      "channel": 3,
      "note": 64,
      "start": 47.4914,
      "duration": 0.1321,
      "velocity": 127,
      "chip": "ym2612"
    },
    {
      "channel": 1,
      "note": 49,
      "start": 47.6205,
      "duration": 0.2194,
      "velocity": 107,
      "chip": "ym2612"
    },
    {
      "channel": 3,
      "note": 64,
      "start": 47.6237,
      "duration": 0.1318,
      "velocity": 127,
      "chip": "ym2612"
    },
    {
      "channel": 4,
      "note": 42,
      "start": 47.6252,
      "duration": 0.2609,
      "velocity": 93,
      "chip": "ym2612"
    },
    {
      "channel": 5,
      "note": 54,
      "start": 47.6899,
      "duration": 0.2165,
      "velocity": 107,
      "chip": "ym2612"
    },
    {
      "channel": 3,
      "note": 64,
      "start": 47.7557,
      "duration": 0.1297,
      "velocity": 127,
      "chip": "ym2612"
    },
    {
      "channel": 1,
      "note": 54,
      "start": 47.8825,
      "duration": 2.5849,
      "velocity": 107,
      "chip": "ym2612"
    },
    {
      "channel": 3,
      "note": 64,
      "start": 47.8857,
      "duration": 0.1317,
      "velocity": 127,
      "chip": "ym2612"
    },
    {
      "channel": 4,
      "note": 42,
      "start": 47.8864,
      "duration": 0.2629,
      "velocity": 93,
      "chip": "ym2612"
    },
    {
      "channel": 5,
      "note": 49,
      "start": 47.9516,
      "duration": 0.2197,
      "velocity": 107,
      "chip": "ym2612"
    },
    {
      "channel": 3,
      "note": 64,
      "start": 48.0176,
      "duration": 0.1307,
      "velocity": 127,
      "chip": "ym2612"
    },
    {
      "channel": 3,
      "note": 59,
      "start": 48.1486,
      "duration": 0.132,
      "velocity": 123,
      "chip": "ym2612"
    },
    {
      "channel": 4,
      "note": 42,
      "start": 48.1495,
      "duration": 0.2632,
      "velocity": 93,
      "chip": "ym2612"
    },
    {
      "channel": 5,
      "note": 54,
      "start": 48.2136,
      "duration": 2.3037,
      "velocity": 107,
      "chip": "ym2612"
    },
    {
      "channel": 3,
      "note": 59,
      "start": 48.2807,
      "duration": 0.131,
      "velocity": 123,
      "chip": "ym2612"
    },
    {
      "channel": 3,
      "note": 59,
      "start": 48.412,
      "duration": 0.1298,
      "velocity": 123,
      "chip": "ym2612"
    },
    {
      "channel": 4,
      "note": 42,
      "start": 48.4129,
      "duration": 0.2634,
      "velocity": 93,
      "chip": "ym2612"
    },
    {
      "channel": 3,
      "note": 59,
      "start": 48.542,
      "duration": 0.1336,
      "velocity": 127,
      "chip": "ym2612"
    },
    {
      "channel": 3,
      "note": 64,
      "start": 48.6757,
      "duration": 0.1301,
      "velocity": 127,
      "chip": "ym2612"
    },
    {
      "channel": 4,
      "note": 42,
      "start": 48.6765,
      "duration": 0.263,
      "velocity": 93,
      "chip": "ym2612"
    },
    {
      "channel": 3,
      "note": 64,
      "start": 48.806,
      "duration": 0.1325,
      "velocity": 127,
      "chip": "ym2612"
    },
    {
      "channel": 0,
      "note": 56,
      "start": 48.9324,
      "duration": 0.7461,
      "velocity": 100,
      "chip": "ym2612"
    },
    {
      "channel": 2,
      "note": 52,
      "start": 48.934,
      "duration": 0.7452,
      "velocity": 100,
      "chip": "ym2612"
    },
    {
      "channel": 3,
      "note": 64,
      "start": 48.9388,
      "duration": 0.1302,
      "velocity": 123,
      "chip": "ym2612"
    },
    {
      "channel": 4,
      "note": 42,
      "start": 48.9398,
      "duration": 0.2625,
      "velocity": 93,
      "chip": "ym2612"
    },
    {
      "channel": 3,
      "note": 57,
      "start": 49.0692,
      "duration": 0.1322,
      "velocity": 127,
      "chip": "ym2612"
    },
    {
      "channel": 3,
      "note": 59,
      "start": 49.2016,
      "duration": 0.2604,
      "velocity": 127,
      "chip": "ym2612"
    },
    {
      "channel": 4,
      "note": 42,
      "start": 49.2025,
      "duration": 0.2602,
      "velocity": 93,
      "chip": "ym2612"
    },
    {
      "channel": 3,
      "note": 59,
      "start": 49.4622,
      "duration": 0.2635,
      "velocity": 127,
      "chip": "ym2612"
    },
    {
      "channel": 4,
      "note": 42,
      "start": 49.4629,
      "duration": 0.2635,
      "velocity": 93,
      "chip": "ym2612"
    },
    {
      "channel": 0,
      "note": 58,
      "start": 49.721,
      "duration": 0.746,
      "velocity": 100,
      "chip": "ym2612"
    },
    {
      "channel": 2,
      "note": 54,
      "start": 49.7226,
      "duration": 0.7451,
      "velocity": 100,
      "chip": "ym2612"
    },
    {
      "channel": 3,
      "note": 59,
      "start": 49.7259,
      "duration": 0.1301,
      "velocity": 127,
      "chip": "ym2612"
    },
    {
      "channel": 4,
      "note": 42,
      "start": 49.7267,
      "duration": 0.2648,
      "velocity": 93,
      "chip": "ym2612"
    },
    {
      "channel": 3,
      "note": 59,
      "start": 49.8562,
      "duration": 0.1338,
      "velocity": 127,
      "chip": "ym2612"
    },
    {
      "channel": 3,
      "note": 62,
      "start": 49.9903,
      "duration": 0.1305,
      "velocity": 127,
      "chip": "ym2612"
    },
    {
      "channel": 4,
      "note": 40,
      "start": 49.9917,
      "duration": 0.2594,
      "velocity": 93,
      "chip": "ym2612"
    },
    {
      "channel": 3,
      "note": 59,
      "start": 50.121,
      "duration": 0.1293,
      "velocity": 127,
      "chip": "ym2612"
    },
    {
      "channel": 3,
      "note": 59,
      "start": 50.2505,
      "duration": 0.1323,
      "velocity": 127,
      "chip": "ym2612"
    },
    {
      "channel": 4,
      "note": 42,
      "start": 50.2513,
      "duration": 0.266,
      "velocity": 93,
      "chip": "ym2612"
    },
    {
      "channel": 3,
      "note": 59,
      "start": 50.3831,
      "duration": 0.1342,
      "velocity": 127,
      "chip": "ym2612"
    },
    {
      "channel": 0,
      "note": 47,
      "start": 50.5098,
      "duration": 0.0075,
      "velocity": 100,
      "chip": "ym2612"
    },
    {
      "channel": 1,
      "note": 42,
      "start": 50.5109,
      "duration": 0.0064,
      "velocity": 107,
      "chip": "ym2612"
    },
    {
      "channel": 2,
      "note": 42,
      "start": 50.5125,
      "duration": 0.0048,
      "velocity": 100,
      "chip": "ym2612"
    }
  ]
}